{
  "jsonPath": "Rock/Modern Rock/Muse/i-belong-to-you-mon-coeur-souvre-a-ta-voix.json",
  "path": "Rock\\Modern Rock\\Muse\\I Belong To You Mon Coeur SOuvre A Ta Voix.mid",
  "name": "I Belong To You Mon Coeur SOuvre A Ta Voix",
  "difficulty": "Advanced",
  "bpm": 106.0006996046174,
  "notes": [
    {
      "midi": 56,
      "hit": false,
      "t": 0,
      "d": 196.42837500000002,
      "v": 84
    },
    {
      "midi": 60,
      "hit": false,
      "t": 0,
      "d": 196.42837500000002,
      "v": 84
    },
    {
      "midi": 65,
      "hit": false,
      "t": 0,
      "d": 196.42837500000002,
      "v": 84
    },
    {
      "midi": 29,
      "hit": false,
      "t": 0,
      "d": 410.71387500000003,
      "v": 100
    },
    {
      "midi": 41,
      "hit": false,
      "t": 0,
      "d": 410.71387500000003,
      "v": 100
    },
    {
      "midi": 56,
      "hit": false,
      "t": 428.571,
      "d": 196.42837500000007,
      "v": 84
    },
    {
      "midi": 60,
      "hit": false,
      "t": 428.571,
      "d": 196.42837500000007,
      "v": 84
    },
    {
      "midi": 65,
      "hit": false,
      "t": 428.571,
      "d": 196.42837500000007,
      "v": 84
    },
    {
      "midi": 29,
      "hit": false,
      "t": 428.571,
      "d": 410.71387500000014,
      "v": 100
    },
    {
      "midi": 41,
      "hit": false,
      "t": 428.571,
      "d": 410.71387500000014,
      "v": 100
    },
    {
      "midi": 56,
      "hit": false,
      "t": 857.1420000000002,
      "d": 196.42837500000007,
      "v": 84
    },
    {
      "midi": 60,
      "hit": false,
      "t": 857.1420000000002,
      "d": 196.42837500000007,
      "v": 84
    },
    {
      "midi": 65,
      "hit": false,
      "t": 857.1420000000002,
      "d": 196.42837500000007,
      "v": 84
    },
    {
      "midi": 32,
      "hit": false,
      "t": 857.1420000000002,
      "d": 410.71387500000003,
      "v": 100
    },
    {
      "midi": 44,
      "hit": false,
      "t": 857.1420000000002,
      "d": 410.71387500000003,
      "v": 100
    },
    {
      "midi": 56,
      "hit": false,
      "t": 1285.7130000000002,
      "d": 196.42837499999996,
      "v": 84
    },
    {
      "midi": 60,
      "hit": false,
      "t": 1285.7130000000002,
      "d": 196.42837499999996,
      "v": 84
    },
    {
      "midi": 65,
      "hit": false,
      "t": 1285.7130000000002,
      "d": 196.42837499999996,
      "v": 84
    },
    {
      "midi": 32,
      "hit": false,
      "t": 1285.7130000000002,
      "d": 410.7138749999999,
      "v": 100
    },
    {
      "midi": 44,
      "hit": false,
      "t": 1285.7130000000002,
      "d": 410.7138749999999,
      "v": 100
    },
    {
      "midi": 56,
      "hit": false,
      "t": 1714.284,
      "d": 196.42837499999996,
      "v": 84
    },
    {
      "midi": 60,
      "hit": false,
      "t": 1714.284,
      "d": 196.42837499999996,
      "v": 84
    },
    {
      "midi": 65,
      "hit": false,
      "t": 1714.284,
      "d": 196.42837499999996,
      "v": 84
    },
    {
      "midi": 36,
      "hit": false,
      "t": 1714.284,
      "d": 410.7138749999999,
      "v": 100
    },
    {
      "midi": 48,
      "hit": false,
      "t": 1714.284,
      "d": 410.7138749999999,
      "v": 100
    },
    {
      "midi": 56,
      "hit": false,
      "t": 2142.855,
      "d": 196.42837499999996,
      "v": 84
    },
    {
      "midi": 60,
      "hit": false,
      "t": 2142.855,
      "d": 196.42837499999996,
      "v": 84
    },
    {
      "midi": 65,
      "hit": false,
      "t": 2142.855,
      "d": 196.42837499999996,
      "v": 84
    },
    {
      "midi": 36,
      "hit": false,
      "t": 2142.855,
      "d": 410.7138749999999,
      "v": 100
    },
    {
      "midi": 48,
      "hit": false,
      "t": 2142.855,
      "d": 410.7138749999999,
      "v": 100
    },
    {
      "midi": 56,
      "hit": false,
      "t": 2571.426,
      "d": 196.42837499999996,
      "v": 84
    },
    {
      "midi": 60,
      "hit": false,
      "t": 2571.426,
      "d": 196.42837499999996,
      "v": 84
    },
    {
      "midi": 65,
      "hit": false,
      "t": 2571.426,
      "d": 196.42837499999996,
      "v": 84
    },
    {
      "midi": 41,
      "hit": false,
      "t": 2571.426,
      "d": 410.7138749999999,
      "v": 100
    },
    {
      "midi": 53,
      "hit": false,
      "t": 2571.426,
      "d": 410.7138749999999,
      "v": 100
    },
    {
      "midi": 56,
      "hit": false,
      "t": 2999.997,
      "d": 196.42837499999996,
      "v": 84
    },
    {
      "midi": 60,
      "hit": false,
      "t": 2999.997,
      "d": 196.42837499999996,
      "v": 84
    },
    {
      "midi": 65,
      "hit": false,
      "t": 2999.997,
      "d": 196.42837499999996,
      "v": 84
    },
    {
      "midi": 41,
      "hit": false,
      "t": 2999.997,
      "d": 410.7138749999999,
      "v": 100
    },
    {
      "midi": 53,
      "hit": false,
      "t": 2999.997,
      "d": 410.7138749999999,
      "v": 100
    },
    {
      "midi": 60,
      "hit": false,
      "t": 3428.5679999999998,
      "d": 196.42837499999996,
      "v": 84
    },
    {
      "midi": 63,
      "hit": false,
      "t": 3428.5679999999998,
      "d": 196.42837499999996,
      "v": 84
    },
    {
      "midi": 67,
      "hit": false,
      "t": 3428.5679999999998,
      "d": 196.42837499999996,
      "v": 84
    },
    {
      "midi": 39,
      "hit": false,
      "t": 3428.5679999999998,
      "d": 410.7138749999999,
      "v": 100
    },
    {
      "midi": 51,
      "hit": false,
      "t": 3428.5679999999998,
      "d": 410.7138749999999,
      "v": 100
    },
    {
      "midi": 60,
      "hit": false,
      "t": 3857.1389999999997,
      "d": 196.42837499999996,
      "v": 84
    },
    {
      "midi": 63,
      "hit": false,
      "t": 3857.1389999999997,
      "d": 196.42837499999996,
      "v": 84
    },
    {
      "midi": 67,
      "hit": false,
      "t": 3857.1389999999997,
      "d": 196.42837499999996,
      "v": 84
    },
    {
      "midi": 39,
      "hit": false,
      "t": 3857.1389999999997,
      "d": 410.7138749999999,
      "v": 100
    },
    {
      "midi": 51,
      "hit": false,
      "t": 3857.1389999999997,
      "d": 410.7138749999999,
      "v": 100
    },
    {
      "midi": 60,
      "hit": false,
      "t": 4285.71,
      "d": 196.42837500000041,
      "v": 84
    },
    {
      "midi": 63,
      "hit": false,
      "t": 4285.71,
      "d": 196.42837500000041,
      "v": 84
    },
    {
      "midi": 67,
      "hit": false,
      "t": 4285.71,
      "d": 196.42837500000041,
      "v": 84
    },
    {
      "midi": 36,
      "hit": false,
      "t": 4285.71,
      "d": 410.71387500000037,
      "v": 100
    },
    {
      "midi": 48,
      "hit": false,
      "t": 4285.71,
      "d": 410.71387500000037,
      "v": 100
    },
    {
      "midi": 60,
      "hit": false,
      "t": 4714.281000000001,
      "d": 196.42837500000041,
      "v": 84
    },
    {
      "midi": 63,
      "hit": false,
      "t": 4714.281000000001,
      "d": 196.42837500000041,
      "v": 84
    },
    {
      "midi": 67,
      "hit": false,
      "t": 4714.281000000001,
      "d": 196.42837500000041,
      "v": 84
    },
    {
      "midi": 36,
      "hit": false,
      "t": 4714.281000000001,
      "d": 410.71387500000037,
      "v": 100
    },
    {
      "midi": 48,
      "hit": false,
      "t": 4714.281000000001,
      "d": 410.71387500000037,
      "v": 100
    },
    {
      "midi": 60,
      "hit": false,
      "t": 5142.852000000002,
      "d": 196.42837500000041,
      "v": 84
    },
    {
      "midi": 63,
      "hit": false,
      "t": 5142.852000000002,
      "d": 196.42837500000041,
      "v": 84
    },
    {
      "midi": 67,
      "hit": false,
      "t": 5142.852000000002,
      "d": 196.42837500000041,
      "v": 84
    },
    {
      "midi": 31,
      "hit": false,
      "t": 5142.852000000002,
      "d": 410.71387500000037,
      "v": 100
    },
    {
      "midi": 43,
      "hit": false,
      "t": 5142.852000000002,
      "d": 410.71387500000037,
      "v": 100
    },
    {
      "midi": 60,
      "hit": false,
      "t": 5571.4230000000025,
      "d": 196.42837500000041,
      "v": 84
    },
    {
      "midi": 63,
      "hit": false,
      "t": 5571.4230000000025,
      "d": 196.42837500000041,
      "v": 84
    },
    {
      "midi": 67,
      "hit": false,
      "t": 5571.4230000000025,
      "d": 196.42837500000041,
      "v": 84
    },
    {
      "midi": 31,
      "hit": false,
      "t": 5571.4230000000025,
      "d": 410.71387500000037,
      "v": 100
    },
    {
      "midi": 43,
      "hit": false,
      "t": 5571.4230000000025,
      "d": 410.71387500000037,
      "v": 100
    },
    {
      "midi": 60,
      "hit": false,
      "t": 5999.994000000003,
      "d": 196.42837500000041,
      "v": 84
    },
    {
      "midi": 63,
      "hit": false,
      "t": 5999.994000000003,
      "d": 196.42837500000041,
      "v": 84
    },
    {
      "midi": 67,
      "hit": false,
      "t": 5999.994000000003,
      "d": 196.42837500000041,
      "v": 84
    },
    {
      "midi": 27,
      "hit": false,
      "t": 5999.994000000003,
      "d": 410.71387500000037,
      "v": 100
    },
    {
      "midi": 39,
      "hit": false,
      "t": 5999.994000000003,
      "d": 410.71387500000037,
      "v": 100
    },
    {
      "midi": 60,
      "hit": false,
      "t": 6428.565000000004,
      "d": 196.42837500000041,
      "v": 84
    },
    {
      "midi": 63,
      "hit": false,
      "t": 6428.565000000004,
      "d": 196.42837500000041,
      "v": 84
    },
    {
      "midi": 67,
      "hit": false,
      "t": 6428.565000000004,
      "d": 196.42837500000041,
      "v": 84
    },
    {
      "midi": 27,
      "hit": false,
      "t": 6428.565000000004,
      "d": 410.71387500000037,
      "v": 100
    },
    {
      "midi": 39,
      "hit": false,
      "t": 6428.565000000004,
      "d": 410.71387500000037,
      "v": 100
    },
    {
      "midi": 56,
      "hit": false,
      "t": 6857.136000000005,
      "d": 196.42837500000041,
      "v": 84
    },
    {
      "midi": 60,
      "hit": false,
      "t": 6857.136000000005,
      "d": 196.42837500000041,
      "v": 84
    },
    {
      "midi": 65,
      "hit": false,
      "t": 6857.136000000005,
      "d": 196.42837500000041,
      "v": 84
    },
    {
      "midi": 29,
      "hit": false,
      "t": 6857.136000000005,
      "d": 410.71387500000037,
      "v": 100
    },
    {
      "midi": 41,
      "hit": false,
      "t": 6857.136000000005,
      "d": 410.71387500000037,
      "v": 100
    },
    {
      "midi": 56,
      "hit": false,
      "t": 7285.707000000006,
      "d": 196.42837500000041,
      "v": 84
    },
    {
      "midi": 60,
      "hit": false,
      "t": 7285.707000000006,
      "d": 196.42837500000041,
      "v": 84
    },
    {
      "midi": 65,
      "hit": false,
      "t": 7285.707000000006,
      "d": 196.42837500000041,
      "v": 84
    },
    {
      "midi": 29,
      "hit": false,
      "t": 7285.707000000006,
      "d": 410.71387500000037,
      "v": 100
    },
    {
      "midi": 41,
      "hit": false,
      "t": 7285.707000000006,
      "d": 410.71387500000037,
      "v": 100
    },
    {
      "midi": 56,
      "hit": false,
      "t": 7714.278000000007,
      "d": 196.42837500000041,
      "v": 84
    },
    {
      "midi": 60,
      "hit": false,
      "t": 7714.278000000007,
      "d": 196.42837500000041,
      "v": 84
    },
    {
      "midi": 65,
      "hit": false,
      "t": 7714.278000000007,
      "d": 196.42837500000041,
      "v": 84
    },
    {
      "midi": 32,
      "hit": false,
      "t": 7714.278000000007,
      "d": 410.71387500000037,
      "v": 100
    },
    {
      "midi": 44,
      "hit": false,
      "t": 7714.278000000007,
      "d": 410.71387500000037,
      "v": 100
    },
    {
      "midi": 56,
      "hit": false,
      "t": 8142.849000000007,
      "d": 196.4283749999995,
      "v": 84
    },
    {
      "midi": 60,
      "hit": false,
      "t": 8142.849000000007,
      "d": 196.4283749999995,
      "v": 84
    },
    {
      "midi": 65,
      "hit": false,
      "t": 8142.849000000007,
      "d": 196.4283749999995,
      "v": 84
    },
    {
      "midi": 32,
      "hit": false,
      "t": 8142.849000000007,
      "d": 410.71387499999946,
      "v": 100
    },
    {
      "midi": 44,
      "hit": false,
      "t": 8142.849000000007,
      "d": 410.71387499999946,
      "v": 100
    },
    {
      "midi": 56,
      "hit": false,
      "t": 8571.420000000007,
      "d": 196.4283749999995,
      "v": 84
    },
    {
      "midi": 60,
      "hit": false,
      "t": 8571.420000000007,
      "d": 196.4283749999995,
      "v": 84
    },
    {
      "midi": 65,
      "hit": false,
      "t": 8571.420000000007,
      "d": 196.4283749999995,
      "v": 84
    },
    {
      "midi": 36,
      "hit": false,
      "t": 8571.420000000007,
      "d": 410.71387499999946,
      "v": 100
    },
    {
      "midi": 48,
      "hit": false,
      "t": 8571.420000000007,
      "d": 410.71387499999946,
      "v": 100
    },
    {
      "midi": 56,
      "hit": false,
      "t": 8999.991000000007,
      "d": 196.4283749999995,
      "v": 84
    },
    {
      "midi": 60,
      "hit": false,
      "t": 8999.991000000007,
      "d": 196.4283749999995,
      "v": 84
    },
    {
      "midi": 65,
      "hit": false,
      "t": 8999.991000000007,
      "d": 196.4283749999995,
      "v": 84
    },
    {
      "midi": 36,
      "hit": false,
      "t": 8999.991000000007,
      "d": 410.71387499999946,
      "v": 100
    },
    {
      "midi": 48,
      "hit": false,
      "t": 8999.991000000007,
      "d": 410.71387499999946,
      "v": 100
    },
    {
      "midi": 56,
      "hit": false,
      "t": 9428.562000000007,
      "d": 196.4283749999995,
      "v": 84
    },
    {
      "midi": 60,
      "hit": false,
      "t": 9428.562000000007,
      "d": 196.4283749999995,
      "v": 84
    },
    {
      "midi": 65,
      "hit": false,
      "t": 9428.562000000007,
      "d": 196.4283749999995,
      "v": 84
    },
    {
      "midi": 41,
      "hit": false,
      "t": 9428.562000000007,
      "d": 410.71387499999946,
      "v": 100
    },
    {
      "midi": 53,
      "hit": false,
      "t": 9428.562000000007,
      "d": 410.71387499999946,
      "v": 100
    },
    {
      "midi": 56,
      "hit": false,
      "t": 9857.133000000007,
      "d": 196.4283749999995,
      "v": 84
    },
    {
      "midi": 60,
      "hit": false,
      "t": 9857.133000000007,
      "d": 196.4283749999995,
      "v": 84
    },
    {
      "midi": 65,
      "hit": false,
      "t": 9857.133000000007,
      "d": 196.4283749999995,
      "v": 84
    },
    {
      "midi": 41,
      "hit": false,
      "t": 9857.133000000007,
      "d": 410.71387499999946,
      "v": 100
    },
    {
      "midi": 53,
      "hit": false,
      "t": 9857.133000000007,
      "d": 410.71387499999946,
      "v": 100
    },
    {
      "midi": 60,
      "hit": false,
      "t": 10285.704000000007,
      "d": 196.4283749999995,
      "v": 84
    },
    {
      "midi": 63,
      "hit": false,
      "t": 10285.704000000007,
      "d": 196.4283749999995,
      "v": 84
    },
    {
      "midi": 67,
      "hit": false,
      "t": 10285.704000000007,
      "d": 196.4283749999995,
      "v": 84
    },
    {
      "midi": 39,
      "hit": false,
      "t": 10285.704000000007,
      "d": 410.71387499999946,
      "v": 100
    },
    {
      "midi": 51,
      "hit": false,
      "t": 10285.704000000007,
      "d": 410.71387499999946,
      "v": 100
    },
    {
      "midi": 60,
      "hit": false,
      "t": 10714.275000000007,
      "d": 196.4283749999995,
      "v": 84
    },
    {
      "midi": 63,
      "hit": false,
      "t": 10714.275000000007,
      "d": 196.4283749999995,
      "v": 84
    },
    {
      "midi": 67,
      "hit": false,
      "t": 10714.275000000007,
      "d": 196.4283749999995,
      "v": 84
    },
    {
      "midi": 39,
      "hit": false,
      "t": 10714.275000000007,
      "d": 410.71387499999946,
      "v": 100
    },
    {
      "midi": 51,
      "hit": false,
      "t": 10714.275000000007,
      "d": 410.71387499999946,
      "v": 100
    },
    {
      "midi": 60,
      "hit": false,
      "t": 11142.846000000007,
      "d": 196.4283749999995,
      "v": 84
    },
    {
      "midi": 63,
      "hit": false,
      "t": 11142.846000000007,
      "d": 196.4283749999995,
      "v": 84
    },
    {
      "midi": 67,
      "hit": false,
      "t": 11142.846000000007,
      "d": 196.4283749999995,
      "v": 84
    },
    {
      "midi": 36,
      "hit": false,
      "t": 11142.846000000007,
      "d": 410.71387499999946,
      "v": 100
    },
    {
      "midi": 48,
      "hit": false,
      "t": 11142.846000000007,
      "d": 410.71387499999946,
      "v": 100
    },
    {
      "midi": 60,
      "hit": false,
      "t": 11571.417000000007,
      "d": 196.4283749999995,
      "v": 84
    },
    {
      "midi": 63,
      "hit": false,
      "t": 11571.417000000007,
      "d": 196.4283749999995,
      "v": 84
    },
    {
      "midi": 67,
      "hit": false,
      "t": 11571.417000000007,
      "d": 196.4283749999995,
      "v": 84
    },
    {
      "midi": 36,
      "hit": false,
      "t": 11571.417000000007,
      "d": 410.71387499999946,
      "v": 100
    },
    {
      "midi": 48,
      "hit": false,
      "t": 11571.417000000007,
      "d": 410.71387499999946,
      "v": 100
    },
    {
      "midi": 60,
      "hit": false,
      "t": 11999.988000000007,
      "d": 196.4283749999995,
      "v": 84
    },
    {
      "midi": 63,
      "hit": false,
      "t": 11999.988000000007,
      "d": 196.4283749999995,
      "v": 84
    },
    {
      "midi": 67,
      "hit": false,
      "t": 11999.988000000007,
      "d": 196.4283749999995,
      "v": 84
    },
    {
      "midi": 31,
      "hit": false,
      "t": 11999.988000000007,
      "d": 410.71387499999946,
      "v": 100
    },
    {
      "midi": 43,
      "hit": false,
      "t": 11999.988000000007,
      "d": 410.71387499999946,
      "v": 100
    },
    {
      "midi": 60,
      "hit": false,
      "t": 12428.559000000007,
      "d": 196.4283749999995,
      "v": 84
    },
    {
      "midi": 63,
      "hit": false,
      "t": 12428.559000000007,
      "d": 196.4283749999995,
      "v": 84
    },
    {
      "midi": 67,
      "hit": false,
      "t": 12428.559000000007,
      "d": 196.4283749999995,
      "v": 84
    },
    {
      "midi": 31,
      "hit": false,
      "t": 12428.559000000007,
      "d": 410.71387499999946,
      "v": 100
    },
    {
      "midi": 43,
      "hit": false,
      "t": 12428.559000000007,
      "d": 410.71387499999946,
      "v": 100
    },
    {
      "midi": 60,
      "hit": false,
      "t": 12857.130000000006,
      "d": 196.4283749999995,
      "v": 84
    },
    {
      "midi": 63,
      "hit": false,
      "t": 12857.130000000006,
      "d": 196.4283749999995,
      "v": 84
    },
    {
      "midi": 67,
      "hit": false,
      "t": 12857.130000000006,
      "d": 196.4283749999995,
      "v": 84
    },
    {
      "midi": 27,
      "hit": false,
      "t": 12857.130000000006,
      "d": 410.71387499999946,
      "v": 100
    },
    {
      "midi": 39,
      "hit": false,
      "t": 12857.130000000006,
      "d": 410.71387499999946,
      "v": 100
    },
    {
      "midi": 60,
      "hit": false,
      "t": 13285.701000000006,
      "d": 196.4283749999995,
      "v": 84
    },
    {
      "midi": 63,
      "hit": false,
      "t": 13285.701000000006,
      "d": 196.4283749999995,
      "v": 84
    },
    {
      "midi": 67,
      "hit": false,
      "t": 13285.701000000006,
      "d": 196.4283749999995,
      "v": 84
    },
    {
      "midi": 27,
      "hit": false,
      "t": 13285.701000000006,
      "d": 410.71387499999946,
      "v": 100
    },
    {
      "midi": 39,
      "hit": false,
      "t": 13285.701000000006,
      "d": 410.71387499999946,
      "v": 100
    },
    {
      "midi": 56,
      "hit": false,
      "t": 13714.272000000006,
      "d": 196.4283749999995,
      "v": 84
    },
    {
      "midi": 60,
      "hit": false,
      "t": 13714.272000000006,
      "d": 196.4283749999995,
      "v": 84
    },
    {
      "midi": 65,
      "hit": false,
      "t": 13714.272000000006,
      "d": 196.4283749999995,
      "v": 84
    },
    {
      "midi": 29,
      "hit": false,
      "t": 13714.272000000006,
      "d": 410.71387499999946,
      "v": 100
    },
    {
      "midi": 41,
      "hit": false,
      "t": 13714.272000000006,
      "d": 410.71387499999946,
      "v": 100
    },
    {
      "midi": 56,
      "hit": false,
      "t": 14142.843000000006,
      "d": 196.4283749999995,
      "v": 84
    },
    {
      "midi": 60,
      "hit": false,
      "t": 14142.843000000006,
      "d": 196.4283749999995,
      "v": 84
    },
    {
      "midi": 65,
      "hit": false,
      "t": 14142.843000000006,
      "d": 196.4283749999995,
      "v": 84
    },
    {
      "midi": 29,
      "hit": false,
      "t": 14142.843000000006,
      "d": 410.71387499999946,
      "v": 100
    },
    {
      "midi": 41,
      "hit": false,
      "t": 14142.843000000006,
      "d": 410.71387499999946,
      "v": 100
    },
    {
      "midi": 56,
      "hit": false,
      "t": 14571.414000000006,
      "d": 196.4283749999995,
      "v": 84
    },
    {
      "midi": 60,
      "hit": false,
      "t": 14571.414000000006,
      "d": 196.4283749999995,
      "v": 84
    },
    {
      "midi": 65,
      "hit": false,
      "t": 14571.414000000006,
      "d": 196.4283749999995,
      "v": 84
    },
    {
      "midi": 32,
      "hit": false,
      "t": 14571.414000000006,
      "d": 410.71387499999946,
      "v": 100
    },
    {
      "midi": 44,
      "hit": false,
      "t": 14571.414000000006,
      "d": 410.71387499999946,
      "v": 100
    },
    {
      "midi": 56,
      "hit": false,
      "t": 14999.985000000006,
      "d": 196.4283749999995,
      "v": 84
    },
    {
      "midi": 60,
      "hit": false,
      "t": 14999.985000000006,
      "d": 196.4283749999995,
      "v": 84
    },
    {
      "midi": 65,
      "hit": false,
      "t": 14999.985000000006,
      "d": 196.4283749999995,
      "v": 84
    },
    {
      "midi": 32,
      "hit": false,
      "t": 14999.985000000006,
      "d": 410.71387499999946,
      "v": 100
    },
    {
      "midi": 44,
      "hit": false,
      "t": 14999.985000000006,
      "d": 410.71387499999946,
      "v": 100
    },
    {
      "midi": 56,
      "hit": false,
      "t": 15428.556000000006,
      "d": 196.4283749999995,
      "v": 84
    },
    {
      "midi": 60,
      "hit": false,
      "t": 15428.556000000006,
      "d": 196.4283749999995,
      "v": 84
    },
    {
      "midi": 65,
      "hit": false,
      "t": 15428.556000000006,
      "d": 196.4283749999995,
      "v": 84
    },
    {
      "midi": 36,
      "hit": false,
      "t": 15428.556000000006,
      "d": 410.71387499999946,
      "v": 100
    },
    {
      "midi": 48,
      "hit": false,
      "t": 15428.556000000006,
      "d": 410.71387499999946,
      "v": 100
    },
    {
      "midi": 56,
      "hit": false,
      "t": 15857.127000000006,
      "d": 196.4283749999995,
      "v": 84
    },
    {
      "midi": 60,
      "hit": false,
      "t": 15857.127000000006,
      "d": 196.4283749999995,
      "v": 84
    },
    {
      "midi": 65,
      "hit": false,
      "t": 15857.127000000006,
      "d": 196.4283749999995,
      "v": 84
    },
    {
      "midi": 36,
      "hit": false,
      "t": 15857.127000000006,
      "d": 410.71387499999946,
      "v": 100
    },
    {
      "midi": 48,
      "hit": false,
      "t": 15857.127000000006,
      "d": 410.71387499999946,
      "v": 100
    },
    {
      "midi": 56,
      "hit": false,
      "t": 16285.698000000006,
      "d": 196.42837500000132,
      "v": 84
    },
    {
      "midi": 60,
      "hit": false,
      "t": 16285.698000000006,
      "d": 196.42837500000132,
      "v": 84
    },
    {
      "midi": 65,
      "hit": false,
      "t": 16285.698000000006,
      "d": 196.42837500000132,
      "v": 84
    },
    {
      "midi": 41,
      "hit": false,
      "t": 16285.698000000006,
      "d": 410.7138750000031,
      "v": 100
    },
    {
      "midi": 53,
      "hit": false,
      "t": 16285.698000000006,
      "d": 410.7138750000031,
      "v": 100
    },
    {
      "midi": 56,
      "hit": false,
      "t": 16714.269000000008,
      "d": 196.4283749999995,
      "v": 84
    },
    {
      "midi": 60,
      "hit": false,
      "t": 16714.269000000008,
      "d": 196.4283749999995,
      "v": 84
    },
    {
      "midi": 65,
      "hit": false,
      "t": 16714.269000000008,
      "d": 196.4283749999995,
      "v": 84
    },
    {
      "midi": 41,
      "hit": false,
      "t": 16714.269000000008,
      "d": 410.7138750000013,
      "v": 100
    },
    {
      "midi": 53,
      "hit": false,
      "t": 16714.269000000008,
      "d": 410.7138750000013,
      "v": 100
    },
    {
      "midi": 60,
      "hit": false,
      "t": 17142.840000000007,
      "d": 196.4283749999995,
      "v": 84
    },
    {
      "midi": 63,
      "hit": false,
      "t": 17142.840000000007,
      "d": 196.4283749999995,
      "v": 84
    },
    {
      "midi": 67,
      "hit": false,
      "t": 17142.840000000007,
      "d": 196.4283749999995,
      "v": 84
    },
    {
      "midi": 39,
      "hit": false,
      "t": 17142.840000000007,
      "d": 410.7138750000013,
      "v": 100
    },
    {
      "midi": 51,
      "hit": false,
      "t": 17142.840000000007,
      "d": 410.7138750000013,
      "v": 100
    },
    {
      "midi": 60,
      "hit": false,
      "t": 17571.411000000007,
      "d": 196.4283749999995,
      "v": 84
    },
    {
      "midi": 63,
      "hit": false,
      "t": 17571.411000000007,
      "d": 196.4283749999995,
      "v": 84
    },
    {
      "midi": 67,
      "hit": false,
      "t": 17571.411000000007,
      "d": 196.4283749999995,
      "v": 84
    },
    {
      "midi": 39,
      "hit": false,
      "t": 17571.411000000007,
      "d": 410.7138750000013,
      "v": 100
    },
    {
      "midi": 51,
      "hit": false,
      "t": 17571.411000000007,
      "d": 410.7138750000013,
      "v": 100
    },
    {
      "midi": 60,
      "hit": false,
      "t": 17999.982000000007,
      "d": 196.4283749999995,
      "v": 84
    },
    {
      "midi": 63,
      "hit": false,
      "t": 17999.982000000007,
      "d": 196.4283749999995,
      "v": 84
    },
    {
      "midi": 67,
      "hit": false,
      "t": 17999.982000000007,
      "d": 196.4283749999995,
      "v": 84
    },
    {
      "midi": 36,
      "hit": false,
      "t": 17999.982000000007,
      "d": 410.7138750000013,
      "v": 100
    },
    {
      "midi": 48,
      "hit": false,
      "t": 17999.982000000007,
      "d": 410.7138750000013,
      "v": 100
    },
    {
      "midi": 60,
      "hit": false,
      "t": 18428.553000000007,
      "d": 196.4283749999995,
      "v": 84
    },
    {
      "midi": 63,
      "hit": false,
      "t": 18428.553000000007,
      "d": 196.4283749999995,
      "v": 84
    },
    {
      "midi": 67,
      "hit": false,
      "t": 18428.553000000007,
      "d": 196.4283749999995,
      "v": 84
    },
    {
      "midi": 36,
      "hit": false,
      "t": 18428.553000000007,
      "d": 410.7138750000013,
      "v": 100
    },
    {
      "midi": 48,
      "hit": false,
      "t": 18428.553000000007,
      "d": 410.7138750000013,
      "v": 100
    },
    {
      "midi": 60,
      "hit": false,
      "t": 18857.124000000007,
      "d": 196.4283749999995,
      "v": 84
    },
    {
      "midi": 63,
      "hit": false,
      "t": 18857.124000000007,
      "d": 196.4283749999995,
      "v": 84
    },
    {
      "midi": 67,
      "hit": false,
      "t": 18857.124000000007,
      "d": 196.4283749999995,
      "v": 84
    },
    {
      "midi": 31,
      "hit": false,
      "t": 18857.124000000007,
      "d": 410.7138750000013,
      "v": 100
    },
    {
      "midi": 43,
      "hit": false,
      "t": 18857.124000000007,
      "d": 410.7138750000013,
      "v": 100
    },
    {
      "midi": 60,
      "hit": false,
      "t": 19285.695000000007,
      "d": 196.4283749999995,
      "v": 84
    },
    {
      "midi": 63,
      "hit": false,
      "t": 19285.695000000007,
      "d": 196.4283749999995,
      "v": 84
    },
    {
      "midi": 67,
      "hit": false,
      "t": 19285.695000000007,
      "d": 196.4283749999995,
      "v": 84
    },
    {
      "midi": 31,
      "hit": false,
      "t": 19285.695000000007,
      "d": 410.7138750000013,
      "v": 100
    },
    {
      "midi": 43,
      "hit": false,
      "t": 19285.695000000007,
      "d": 410.7138750000013,
      "v": 100
    },
    {
      "midi": 60,
      "hit": false,
      "t": 19714.266000000007,
      "d": 196.4283749999995,
      "v": 84
    },
    {
      "midi": 63,
      "hit": false,
      "t": 19714.266000000007,
      "d": 196.4283749999995,
      "v": 84
    },
    {
      "midi": 67,
      "hit": false,
      "t": 19714.266000000007,
      "d": 196.4283749999995,
      "v": 84
    },
    {
      "midi": 27,
      "hit": false,
      "t": 19714.266000000007,
      "d": 410.7138750000013,
      "v": 100
    },
    {
      "midi": 39,
      "hit": false,
      "t": 19714.266000000007,
      "d": 410.7138750000013,
      "v": 100
    },
    {
      "midi": 60,
      "hit": false,
      "t": 20142.837000000007,
      "d": 196.4283749999995,
      "v": 84
    },
    {
      "midi": 63,
      "hit": false,
      "t": 20142.837000000007,
      "d": 196.4283749999995,
      "v": 84
    },
    {
      "midi": 67,
      "hit": false,
      "t": 20142.837000000007,
      "d": 196.4283749999995,
      "v": 84
    },
    {
      "midi": 27,
      "hit": false,
      "t": 20142.837000000007,
      "d": 410.7138750000013,
      "v": 100
    },
    {
      "midi": 39,
      "hit": false,
      "t": 20142.837000000007,
      "d": 410.7138750000013,
      "v": 100
    },
    {
      "midi": 50,
      "hit": false,
      "t": 20571.408000000007,
      "d": 839.2848750000012,
      "v": 95
    },
    {
      "midi": 54,
      "hit": false,
      "t": 20571.408000000007,
      "d": 839.2848750000012,
      "v": 95
    },
    {
      "midi": 57,
      "hit": false,
      "t": 20571.408000000007,
      "d": 839.2848750000012,
      "v": 95
    },
    {
      "midi": 62,
      "hit": false,
      "t": 20571.408000000007,
      "d": 839.2848750000012,
      "v": 95
    },
    {
      "midi": 26,
      "hit": false,
      "t": 20571.408000000007,
      "d": 3410.7108750000007,
      "v": 127
    },
    {
      "midi": 38,
      "hit": false,
      "t": 20571.408000000007,
      "d": 3410.7108750000007,
      "v": 127
    },
    {
      "midi": 69,
      "hit": false,
      "t": 21428.550000000007,
      "d": 410.7138750000013,
      "v": 79
    },
    {
      "midi": 74,
      "hit": false,
      "t": 21428.550000000007,
      "d": 410.7138750000013,
      "v": 79
    },
    {
      "midi": 78,
      "hit": false,
      "t": 21428.550000000007,
      "d": 410.7138750000013,
      "v": 79
    },
    {
      "midi": 69,
      "hit": false,
      "t": 21857.121000000006,
      "d": 410.7138750000013,
      "v": 79
    },
    {
      "midi": 74,
      "hit": false,
      "t": 21857.121000000006,
      "d": 410.7138750000013,
      "v": 79
    },
    {
      "midi": 78,
      "hit": false,
      "t": 21857.121000000006,
      "d": 410.7138750000013,
      "v": 79
    },
    {
      "midi": 66,
      "hit": false,
      "t": 22285.692000000006,
      "d": 410.7138750000013,
      "v": 79
    },
    {
      "midi": 69,
      "hit": false,
      "t": 22285.692000000006,
      "d": 410.7138750000013,
      "v": 79
    },
    {
      "midi": 74,
      "hit": false,
      "t": 22285.692000000006,
      "d": 410.7138750000013,
      "v": 79
    },
    {
      "midi": 66,
      "hit": false,
      "t": 22714.263000000006,
      "d": 410.7138750000013,
      "v": 79
    },
    {
      "midi": 69,
      "hit": false,
      "t": 22714.263000000006,
      "d": 410.7138750000013,
      "v": 79
    },
    {
      "midi": 74,
      "hit": false,
      "t": 22714.263000000006,
      "d": 410.7138750000013,
      "v": 79
    },
    {
      "midi": 62,
      "hit": false,
      "t": 23142.834000000006,
      "d": 410.7138750000013,
      "v": 79
    },
    {
      "midi": 66,
      "hit": false,
      "t": 23142.834000000006,
      "d": 410.7138750000013,
      "v": 79
    },
    {
      "midi": 69,
      "hit": false,
      "t": 23142.834000000006,
      "d": 410.7138750000013,
      "v": 79
    },
    {
      "midi": 62,
      "hit": false,
      "t": 23571.405000000006,
      "d": 410.7138750000013,
      "v": 79
    },
    {
      "midi": 66,
      "hit": false,
      "t": 23571.405000000006,
      "d": 410.7138750000013,
      "v": 79
    },
    {
      "midi": 69,
      "hit": false,
      "t": 23571.405000000006,
      "d": 410.7138750000013,
      "v": 79
    },
    {
      "midi": 27,
      "hit": false,
      "t": 23999.976000000006,
      "d": 410.7138750000013,
      "v": 95
    },
    {
      "midi": 39,
      "hit": false,
      "t": 23999.976000000006,
      "d": 410.7138750000013,
      "v": 95
    },
    {
      "midi": 55,
      "hit": false,
      "t": 23999.976000000006,
      "d": 410.7138750000013,
      "v": 79
    },
    {
      "midi": 60,
      "hit": false,
      "t": 23999.976000000006,
      "d": 410.7138750000013,
      "v": 79
    },
    {
      "midi": 63,
      "hit": false,
      "t": 23999.976000000006,
      "d": 410.7138750000013,
      "v": 79
    },
    {
      "midi": 27,
      "hit": false,
      "t": 24428.547000000006,
      "d": 410.7138750000013,
      "v": 95
    },
    {
      "midi": 39,
      "hit": false,
      "t": 24428.547000000006,
      "d": 410.7138750000013,
      "v": 95
    },
    {
      "midi": 55,
      "hit": false,
      "t": 24428.547000000006,
      "d": 410.7138750000013,
      "v": 79
    },
    {
      "midi": 60,
      "hit": false,
      "t": 24428.547000000006,
      "d": 410.7138750000013,
      "v": 79
    },
    {
      "midi": 63,
      "hit": false,
      "t": 24428.547000000006,
      "d": 410.7138750000013,
      "v": 79
    },
    {
      "midi": 31,
      "hit": false,
      "t": 24857.118000000006,
      "d": 410.7138750000013,
      "v": 95
    },
    {
      "midi": 43,
      "hit": false,
      "t": 24857.118000000006,
      "d": 410.7138750000013,
      "v": 95
    },
    {
      "midi": 60,
      "hit": false,
      "t": 24857.118000000006,
      "d": 410.7138750000013,
      "v": 79
    },
    {
      "midi": 63,
      "hit": false,
      "t": 24857.118000000006,
      "d": 410.7138750000013,
      "v": 79
    },
    {
      "midi": 67,
      "hit": false,
      "t": 24857.118000000006,
      "d": 410.7138750000013,
      "v": 79
    },
    {
      "midi": 31,
      "hit": false,
      "t": 25285.689000000006,
      "d": 410.7138750000013,
      "v": 95
    },
    {
      "midi": 43,
      "hit": false,
      "t": 25285.689000000006,
      "d": 410.7138750000013,
      "v": 95
    },
    {
      "midi": 60,
      "hit": false,
      "t": 25285.689000000006,
      "d": 410.7138750000013,
      "v": 79
    },
    {
      "midi": 63,
      "hit": false,
      "t": 25285.689000000006,
      "d": 410.7138750000013,
      "v": 79
    },
    {
      "midi": 67,
      "hit": false,
      "t": 25285.689000000006,
      "d": 410.7138750000013,
      "v": 79
    },
    {
      "midi": 36,
      "hit": false,
      "t": 25714.260000000006,
      "d": 410.7138750000013,
      "v": 95
    },
    {
      "midi": 48,
      "hit": false,
      "t": 25714.260000000006,
      "d": 410.7138750000013,
      "v": 95
    },
    {
      "midi": 63,
      "hit": false,
      "t": 25714.260000000006,
      "d": 410.7138750000013,
      "v": 79
    },
    {
      "midi": 67,
      "hit": false,
      "t": 25714.260000000006,
      "d": 410.7138750000013,
      "v": 79
    },
    {
      "midi": 72,
      "hit": false,
      "t": 25714.260000000006,
      "d": 410.7138750000013,
      "v": 79
    },
    {
      "midi": 36,
      "hit": false,
      "t": 26142.831000000006,
      "d": 410.7138750000013,
      "v": 95
    },
    {
      "midi": 48,
      "hit": false,
      "t": 26142.831000000006,
      "d": 410.7138750000013,
      "v": 95
    },
    {
      "midi": 63,
      "hit": false,
      "t": 26142.831000000006,
      "d": 410.7138750000013,
      "v": 79
    },
    {
      "midi": 67,
      "hit": false,
      "t": 26142.831000000006,
      "d": 410.7138750000013,
      "v": 79
    },
    {
      "midi": 72,
      "hit": false,
      "t": 26142.831000000006,
      "d": 410.7138750000013,
      "v": 79
    },
    {
      "midi": 35,
      "hit": false,
      "t": 26571.402000000006,
      "d": 410.7138750000013,
      "v": 95
    },
    {
      "midi": 47,
      "hit": false,
      "t": 26571.402000000006,
      "d": 410.7138750000013,
      "v": 95
    },
    {
      "midi": 63,
      "hit": false,
      "t": 26571.402000000006,
      "d": 410.7138750000013,
      "v": 79
    },
    {
      "midi": 67,
      "hit": false,
      "t": 26571.402000000006,
      "d": 410.7138750000013,
      "v": 79
    },
    {
      "midi": 71,
      "hit": false,
      "t": 26571.402000000006,
      "d": 410.7138750000013,
      "v": 79
    },
    {
      "midi": 36,
      "hit": false,
      "t": 26999.973000000005,
      "d": 410.7138750000013,
      "v": 95
    },
    {
      "midi": 48,
      "hit": false,
      "t": 26999.973000000005,
      "d": 410.7138750000013,
      "v": 95
    },
    {
      "midi": 63,
      "hit": false,
      "t": 26999.973000000005,
      "d": 410.7138750000013,
      "v": 79
    },
    {
      "midi": 67,
      "hit": false,
      "t": 26999.973000000005,
      "d": 410.7138750000013,
      "v": 79
    },
    {
      "midi": 72,
      "hit": false,
      "t": 26999.973000000005,
      "d": 410.7138750000013,
      "v": 79
    },
    {
      "midi": 69,
      "hit": false,
      "t": 27428.544000000005,
      "d": 410.7138750000013,
      "v": 79
    },
    {
      "midi": 74,
      "hit": false,
      "t": 27428.544000000005,
      "d": 410.7138750000013,
      "v": 79
    },
    {
      "midi": 78,
      "hit": false,
      "t": 27428.544000000005,
      "d": 410.7138750000013,
      "v": 79
    },
    {
      "midi": 38,
      "hit": false,
      "t": 27428.544000000005,
      "d": 2553.568875000001,
      "v": 95
    },
    {
      "midi": 50,
      "hit": false,
      "t": 27428.544000000005,
      "d": 2553.568875000001,
      "v": 95
    },
    {
      "midi": 69,
      "hit": false,
      "t": 27857.115000000005,
      "d": 410.7138750000013,
      "v": 79
    },
    {
      "midi": 74,
      "hit": false,
      "t": 27857.115000000005,
      "d": 410.7138750000013,
      "v": 79
    },
    {
      "midi": 78,
      "hit": false,
      "t": 27857.115000000005,
      "d": 410.7138750000013,
      "v": 79
    },
    {
      "midi": 66,
      "hit": false,
      "t": 28285.686000000005,
      "d": 410.7138750000013,
      "v": 79
    },
    {
      "midi": 69,
      "hit": false,
      "t": 28285.686000000005,
      "d": 410.7138750000013,
      "v": 79
    },
    {
      "midi": 74,
      "hit": false,
      "t": 28285.686000000005,
      "d": 410.7138750000013,
      "v": 79
    },
    {
      "midi": 66,
      "hit": false,
      "t": 28714.257000000005,
      "d": 410.7138750000013,
      "v": 79
    },
    {
      "midi": 69,
      "hit": false,
      "t": 28714.257000000005,
      "d": 410.7138750000013,
      "v": 79
    },
    {
      "midi": 74,
      "hit": false,
      "t": 28714.257000000005,
      "d": 410.7138750000013,
      "v": 79
    },
    {
      "midi": 62,
      "hit": false,
      "t": 29142.828000000005,
      "d": 410.7138750000013,
      "v": 79
    },
    {
      "midi": 66,
      "hit": false,
      "t": 29142.828000000005,
      "d": 410.7138750000013,
      "v": 79
    },
    {
      "midi": 69,
      "hit": false,
      "t": 29142.828000000005,
      "d": 410.7138750000013,
      "v": 79
    },
    {
      "midi": 62,
      "hit": false,
      "t": 29571.399000000005,
      "d": 410.7138750000013,
      "v": 79
    },
    {
      "midi": 66,
      "hit": false,
      "t": 29571.399000000005,
      "d": 410.7138750000013,
      "v": 79
    },
    {
      "midi": 69,
      "hit": false,
      "t": 29571.399000000005,
      "d": 410.7138750000013,
      "v": 79
    },
    {
      "midi": 27,
      "hit": false,
      "t": 29999.970000000005,
      "d": 410.7138750000013,
      "v": 95
    },
    {
      "midi": 39,
      "hit": false,
      "t": 29999.970000000005,
      "d": 410.7138750000013,
      "v": 95
    },
    {
      "midi": 55,
      "hit": false,
      "t": 29999.970000000005,
      "d": 410.7138750000013,
      "v": 79
    },
    {
      "midi": 60,
      "hit": false,
      "t": 29999.970000000005,
      "d": 410.7138750000013,
      "v": 79
    },
    {
      "midi": 63,
      "hit": false,
      "t": 29999.970000000005,
      "d": 410.7138750000013,
      "v": 79
    },
    {
      "midi": 27,
      "hit": false,
      "t": 30428.541000000005,
      "d": 410.7138750000013,
      "v": 95
    },
    {
      "midi": 39,
      "hit": false,
      "t": 30428.541000000005,
      "d": 410.7138750000013,
      "v": 95
    },
    {
      "midi": 55,
      "hit": false,
      "t": 30428.541000000005,
      "d": 410.7138750000013,
      "v": 79
    },
    {
      "midi": 60,
      "hit": false,
      "t": 30428.541000000005,
      "d": 410.7138750000013,
      "v": 79
    },
    {
      "midi": 63,
      "hit": false,
      "t": 30428.541000000005,
      "d": 410.7138750000013,
      "v": 79
    },
    {
      "midi": 31,
      "hit": false,
      "t": 30857.112000000005,
      "d": 410.7138750000013,
      "v": 95
    },
    {
      "midi": 43,
      "hit": false,
      "t": 30857.112000000005,
      "d": 410.7138750000013,
      "v": 95
    },
    {
      "midi": 60,
      "hit": false,
      "t": 30857.112000000005,
      "d": 410.7138750000013,
      "v": 79
    },
    {
      "midi": 63,
      "hit": false,
      "t": 30857.112000000005,
      "d": 410.7138750000013,
      "v": 79
    },
    {
      "midi": 67,
      "hit": false,
      "t": 30857.112000000005,
      "d": 410.7138750000013,
      "v": 79
    },
    {
      "midi": 31,
      "hit": false,
      "t": 31285.683000000005,
      "d": 410.7138750000013,
      "v": 95
    },
    {
      "midi": 43,
      "hit": false,
      "t": 31285.683000000005,
      "d": 410.7138750000013,
      "v": 95
    },
    {
      "midi": 60,
      "hit": false,
      "t": 31285.683000000005,
      "d": 410.7138750000013,
      "v": 79
    },
    {
      "midi": 63,
      "hit": false,
      "t": 31285.683000000005,
      "d": 410.7138750000013,
      "v": 79
    },
    {
      "midi": 67,
      "hit": false,
      "t": 31285.683000000005,
      "d": 410.7138750000013,
      "v": 79
    },
    {
      "midi": 36,
      "hit": false,
      "t": 31714.254000000004,
      "d": 410.7138750000013,
      "v": 95
    },
    {
      "midi": 48,
      "hit": false,
      "t": 31714.254000000004,
      "d": 410.7138750000013,
      "v": 95
    },
    {
      "midi": 63,
      "hit": false,
      "t": 31714.254000000004,
      "d": 410.7138750000013,
      "v": 79
    },
    {
      "midi": 67,
      "hit": false,
      "t": 31714.254000000004,
      "d": 410.7138750000013,
      "v": 79
    },
    {
      "midi": 72,
      "hit": false,
      "t": 31714.254000000004,
      "d": 410.7138750000013,
      "v": 79
    },
    {
      "midi": 36,
      "hit": false,
      "t": 32142.825000000004,
      "d": 410.7138750000013,
      "v": 95
    },
    {
      "midi": 48,
      "hit": false,
      "t": 32142.825000000004,
      "d": 410.7138750000013,
      "v": 95
    },
    {
      "midi": 63,
      "hit": false,
      "t": 32142.825000000004,
      "d": 410.7138750000013,
      "v": 79
    },
    {
      "midi": 67,
      "hit": false,
      "t": 32142.825000000004,
      "d": 410.7138750000013,
      "v": 79
    },
    {
      "midi": 72,
      "hit": false,
      "t": 32142.825000000004,
      "d": 410.7138750000013,
      "v": 79
    },
    {
      "midi": 63,
      "hit": false,
      "t": 32571.396000000004,
      "d": 410.71387499999764,
      "v": 79
    },
    {
      "midi": 67,
      "hit": false,
      "t": 32571.396000000004,
      "d": 410.71387499999764,
      "v": 79
    },
    {
      "midi": 72,
      "hit": false,
      "t": 32571.396000000004,
      "d": 410.71387499999764,
      "v": 79
    },
    {
      "midi": 48,
      "hit": false,
      "t": 32571.396000000004,
      "d": 1428.5699999999888,
      "v": 95
    },
    {
      "midi": 36,
      "hit": false,
      "t": 32571.396000000004,
      "d": 1589.2841249999874,
      "v": 95
    },
    {
      "midi": 93,
      "hit": false,
      "t": 32999.967000000004,
      "d": 35.714249999997264,
      "v": 95
    },
    {
      "midi": 91,
      "hit": false,
      "t": 33053.538375000004,
      "d": 35.714249999997264,
      "v": 95
    },
    {
      "midi": 89,
      "hit": false,
      "t": 33107.10975,
      "d": 35.714249999997264,
      "v": 95
    },
    {
      "midi": 88,
      "hit": false,
      "t": 33160.681125,
      "d": 35.714249999997264,
      "v": 95
    },
    {
      "midi": 86,
      "hit": false,
      "t": 33214.2525,
      "d": 35.714249999997264,
      "v": 95
    },
    {
      "midi": 84,
      "hit": false,
      "t": 33267.823875,
      "d": 35.714249999997264,
      "v": 95
    },
    {
      "midi": 83,
      "hit": false,
      "t": 33321.39525,
      "d": 35.714249999997264,
      "v": 95
    },
    {
      "midi": 81,
      "hit": false,
      "t": 33374.966625,
      "d": 35.714249999997264,
      "v": 95
    },
    {
      "midi": 79,
      "hit": false,
      "t": 33428.538,
      "d": 35.714249999997264,
      "v": 95
    },
    {
      "midi": 77,
      "hit": false,
      "t": 33482.109375,
      "d": 35.714249999997264,
      "v": 95
    },
    {
      "midi": 76,
      "hit": false,
      "t": 33535.68075,
      "d": 35.714249999997264,
      "v": 95
    },
    {
      "midi": 74,
      "hit": false,
      "t": 33589.252125,
      "d": 35.714249999997264,
      "v": 95
    },
    {
      "midi": 72,
      "hit": false,
      "t": 33642.8235,
      "d": 35.714249999997264,
      "v": 95
    },
    {
      "midi": 71,
      "hit": false,
      "t": 33696.394875,
      "d": 35.714249999997264,
      "v": 95
    },
    {
      "midi": 69,
      "hit": false,
      "t": 33749.96625,
      "d": 35.714249999997264,
      "v": 95
    },
    {
      "midi": 67,
      "hit": false,
      "t": 33803.537625,
      "d": 35.714249999997264,
      "v": 95
    },
    {
      "midi": 65,
      "hit": false,
      "t": 33857.109,
      "d": 35.714249999997264,
      "v": 95
    },
    {
      "midi": 64,
      "hit": false,
      "t": 33910.680374999996,
      "d": 35.714249999997264,
      "v": 95
    },
    {
      "midi": 62,
      "hit": false,
      "t": 33964.251749999996,
      "d": 35.714249999997264,
      "v": 95
    },
    {
      "midi": 60,
      "hit": false,
      "t": 34017.823124999995,
      "d": 35.714249999997264,
      "v": 95
    },
    {
      "midi": 59,
      "hit": false,
      "t": 34071.394499999995,
      "d": 35.714249999997264,
      "v": 95
    },
    {
      "midi": 57,
      "hit": false,
      "t": 34124.965874999994,
      "d": 35.714249999997264,
      "v": 95
    },
    {
      "midi": 29,
      "hit": false,
      "t": 34285.67999999999,
      "d": 410.7138750000013,
      "v": 95
    },
    {
      "midi": 41,
      "hit": false,
      "t": 34285.67999999999,
      "d": 410.7138750000013,
      "v": 95
    },
    {
      "midi": 56,
      "hit": false,
      "t": 34285.67999999999,
      "d": 410.7138750000013,
      "v": 79
    },
    {
      "midi": 60,
      "hit": false,
      "t": 34285.67999999999,
      "d": 410.7138750000013,
      "v": 79
    },
    {
      "midi": 65,
      "hit": false,
      "t": 34285.67999999999,
      "d": 410.7138750000013,
      "v": 79
    },
    {
      "midi": 29,
      "hit": false,
      "t": 34714.251,
      "d": 410.7138750000013,
      "v": 95
    },
    {
      "midi": 41,
      "hit": false,
      "t": 34714.251,
      "d": 410.7138750000013,
      "v": 95
    },
    {
      "midi": 56,
      "hit": false,
      "t": 34714.251,
      "d": 410.7138750000013,
      "v": 79
    },
    {
      "midi": 60,
      "hit": false,
      "t": 34714.251,
      "d": 410.7138750000013,
      "v": 79
    },
    {
      "midi": 65,
      "hit": false,
      "t": 34714.251,
      "d": 410.7138750000013,
      "v": 79
    },
    {
      "midi": 32,
      "hit": false,
      "t": 35142.822,
      "d": 410.7138750000013,
      "v": 95
    },
    {
      "midi": 44,
      "hit": false,
      "t": 35142.822,
      "d": 410.7138750000013,
      "v": 95
    },
    {
      "midi": 56,
      "hit": false,
      "t": 35142.822,
      "d": 410.7138750000013,
      "v": 79
    },
    {
      "midi": 60,
      "hit": false,
      "t": 35142.822,
      "d": 410.7138750000013,
      "v": 79
    },
    {
      "midi": 65,
      "hit": false,
      "t": 35142.822,
      "d": 410.7138750000013,
      "v": 79
    },
    {
      "midi": 32,
      "hit": false,
      "t": 35571.393000000004,
      "d": 410.7138750000013,
      "v": 95
    },
    {
      "midi": 44,
      "hit": false,
      "t": 35571.393000000004,
      "d": 410.7138750000013,
      "v": 95
    },
    {
      "midi": 56,
      "hit": false,
      "t": 35571.393000000004,
      "d": 410.7138750000013,
      "v": 79
    },
    {
      "midi": 60,
      "hit": false,
      "t": 35571.393000000004,
      "d": 410.7138750000013,
      "v": 79
    },
    {
      "midi": 65,
      "hit": false,
      "t": 35571.393000000004,
      "d": 410.7138750000013,
      "v": 79
    },
    {
      "midi": 56,
      "hit": false,
      "t": 35999.96400000001,
      "d": 196.42837500000314,
      "v": 79
    },
    {
      "midi": 60,
      "hit": false,
      "t": 35999.96400000001,
      "d": 196.42837500000314,
      "v": 79
    },
    {
      "midi": 65,
      "hit": false,
      "t": 35999.96400000001,
      "d": 196.42837500000314,
      "v": 79
    },
    {
      "midi": 36,
      "hit": false,
      "t": 35999.96400000001,
      "d": 410.7138750000013,
      "v": 95
    },
    {
      "midi": 48,
      "hit": false,
      "t": 35999.96400000001,
      "d": 410.7138750000013,
      "v": 95
    },
    {
      "midi": 56,
      "hit": false,
      "t": 36428.53500000001,
      "d": 196.42837500000314,
      "v": 79
    },
    {
      "midi": 60,
      "hit": false,
      "t": 36428.53500000001,
      "d": 196.42837500000314,
      "v": 79
    },
    {
      "midi": 65,
      "hit": false,
      "t": 36428.53500000001,
      "d": 196.42837500000314,
      "v": 79
    },
    {
      "midi": 36,
      "hit": false,
      "t": 36428.53500000001,
      "d": 410.7138750000013,
      "v": 95
    },
    {
      "midi": 48,
      "hit": false,
      "t": 36428.53500000001,
      "d": 410.7138750000013,
      "v": 95
    },
    {
      "midi": 56,
      "hit": false,
      "t": 36857.106000000014,
      "d": 196.42837500000314,
      "v": 79
    },
    {
      "midi": 60,
      "hit": false,
      "t": 36857.106000000014,
      "d": 196.42837500000314,
      "v": 79
    },
    {
      "midi": 65,
      "hit": false,
      "t": 36857.106000000014,
      "d": 196.42837500000314,
      "v": 79
    },
    {
      "midi": 41,
      "hit": false,
      "t": 36857.106000000014,
      "d": 410.7138750000013,
      "v": 95
    },
    {
      "midi": 53,
      "hit": false,
      "t": 36857.106000000014,
      "d": 410.7138750000013,
      "v": 95
    },
    {
      "midi": 56,
      "hit": false,
      "t": 37285.67700000002,
      "d": 196.42837500000314,
      "v": 79
    },
    {
      "midi": 60,
      "hit": false,
      "t": 37285.67700000002,
      "d": 196.42837500000314,
      "v": 79
    },
    {
      "midi": 65,
      "hit": false,
      "t": 37285.67700000002,
      "d": 196.42837500000314,
      "v": 79
    },
    {
      "midi": 41,
      "hit": false,
      "t": 37285.67700000002,
      "d": 410.7138750000013,
      "v": 95
    },
    {
      "midi": 53,
      "hit": false,
      "t": 37285.67700000002,
      "d": 410.7138750000013,
      "v": 95
    },
    {
      "midi": 39,
      "hit": false,
      "t": 37714.24800000002,
      "d": 410.7138750000013,
      "v": 95
    },
    {
      "midi": 51,
      "hit": false,
      "t": 37714.24800000002,
      "d": 410.7138750000013,
      "v": 95
    },
    {
      "midi": 60,
      "hit": false,
      "t": 37714.24800000002,
      "d": 410.7138750000013,
      "v": 79
    },
    {
      "midi": 63,
      "hit": false,
      "t": 37714.24800000002,
      "d": 410.7138750000013,
      "v": 79
    },
    {
      "midi": 67,
      "hit": false,
      "t": 37714.24800000002,
      "d": 410.7138750000013,
      "v": 79
    },
    {
      "midi": 39,
      "hit": false,
      "t": 38142.819000000025,
      "d": 410.7138750000013,
      "v": 95
    },
    {
      "midi": 51,
      "hit": false,
      "t": 38142.819000000025,
      "d": 410.7138750000013,
      "v": 95
    },
    {
      "midi": 60,
      "hit": false,
      "t": 38142.819000000025,
      "d": 410.7138750000013,
      "v": 79
    },
    {
      "midi": 63,
      "hit": false,
      "t": 38142.819000000025,
      "d": 410.7138750000013,
      "v": 79
    },
    {
      "midi": 67,
      "hit": false,
      "t": 38142.819000000025,
      "d": 410.7138750000013,
      "v": 79
    },
    {
      "midi": 36,
      "hit": false,
      "t": 38571.39000000003,
      "d": 410.7138750000013,
      "v": 95
    },
    {
      "midi": 48,
      "hit": false,
      "t": 38571.39000000003,
      "d": 410.7138750000013,
      "v": 95
    },
    {
      "midi": 60,
      "hit": false,
      "t": 38571.39000000003,
      "d": 410.7138750000013,
      "v": 79
    },
    {
      "midi": 63,
      "hit": false,
      "t": 38571.39000000003,
      "d": 410.7138750000013,
      "v": 79
    },
    {
      "midi": 67,
      "hit": false,
      "t": 38571.39000000003,
      "d": 410.7138750000013,
      "v": 79
    },
    {
      "midi": 36,
      "hit": false,
      "t": 38999.96100000003,
      "d": 410.7138750000013,
      "v": 95
    },
    {
      "midi": 48,
      "hit": false,
      "t": 38999.96100000003,
      "d": 410.7138750000013,
      "v": 95
    },
    {
      "midi": 60,
      "hit": false,
      "t": 38999.96100000003,
      "d": 410.7138750000013,
      "v": 79
    },
    {
      "midi": 63,
      "hit": false,
      "t": 38999.96100000003,
      "d": 410.7138750000013,
      "v": 79
    },
    {
      "midi": 67,
      "hit": false,
      "t": 38999.96100000003,
      "d": 410.7138750000013,
      "v": 79
    },
    {
      "midi": 60,
      "hit": false,
      "t": 39428.532000000036,
      "d": 196.42837500000314,
      "v": 79
    },
    {
      "midi": 63,
      "hit": false,
      "t": 39428.532000000036,
      "d": 196.42837500000314,
      "v": 79
    },
    {
      "midi": 67,
      "hit": false,
      "t": 39428.532000000036,
      "d": 196.42837500000314,
      "v": 79
    },
    {
      "midi": 31,
      "hit": false,
      "t": 39428.532000000036,
      "d": 410.7138750000013,
      "v": 95
    },
    {
      "midi": 43,
      "hit": false,
      "t": 39428.532000000036,
      "d": 410.7138750000013,
      "v": 95
    },
    {
      "midi": 60,
      "hit": false,
      "t": 39857.10300000004,
      "d": 196.42837500000314,
      "v": 79
    },
    {
      "midi": 63,
      "hit": false,
      "t": 39857.10300000004,
      "d": 196.42837500000314,
      "v": 79
    },
    {
      "midi": 67,
      "hit": false,
      "t": 39857.10300000004,
      "d": 196.42837500000314,
      "v": 79
    },
    {
      "midi": 31,
      "hit": false,
      "t": 39857.10300000004,
      "d": 410.7138750000013,
      "v": 95
    },
    {
      "midi": 43,
      "hit": false,
      "t": 39857.10300000004,
      "d": 410.7138750000013,
      "v": 95
    },
    {
      "midi": 60,
      "hit": false,
      "t": 40285.67400000004,
      "d": 196.42837500000314,
      "v": 79
    },
    {
      "midi": 63,
      "hit": false,
      "t": 40285.67400000004,
      "d": 196.42837500000314,
      "v": 79
    },
    {
      "midi": 67,
      "hit": false,
      "t": 40285.67400000004,
      "d": 196.42837500000314,
      "v": 79
    },
    {
      "midi": 27,
      "hit": false,
      "t": 40285.67400000004,
      "d": 410.7138750000013,
      "v": 95
    },
    {
      "midi": 39,
      "hit": false,
      "t": 40285.67400000004,
      "d": 410.7138750000013,
      "v": 95
    },
    {
      "midi": 60,
      "hit": false,
      "t": 40714.245000000046,
      "d": 196.42837500000314,
      "v": 79
    },
    {
      "midi": 63,
      "hit": false,
      "t": 40714.245000000046,
      "d": 196.42837500000314,
      "v": 79
    },
    {
      "midi": 67,
      "hit": false,
      "t": 40714.245000000046,
      "d": 196.42837500000314,
      "v": 79
    },
    {
      "midi": 27,
      "hit": false,
      "t": 40714.245000000046,
      "d": 410.7138750000013,
      "v": 95
    },
    {
      "midi": 39,
      "hit": false,
      "t": 40714.245000000046,
      "d": 410.7138750000013,
      "v": 95
    },
    {
      "midi": 29,
      "hit": false,
      "t": 41142.81600000005,
      "d": 410.7138750000013,
      "v": 95
    },
    {
      "midi": 41,
      "hit": false,
      "t": 41142.81600000005,
      "d": 410.7138750000013,
      "v": 95
    },
    {
      "midi": 56,
      "hit": false,
      "t": 41142.81600000005,
      "d": 410.7138750000013,
      "v": 79
    },
    {
      "midi": 60,
      "hit": false,
      "t": 41142.81600000005,
      "d": 410.7138750000013,
      "v": 79
    },
    {
      "midi": 65,
      "hit": false,
      "t": 41142.81600000005,
      "d": 410.7138750000013,
      "v": 79
    },
    {
      "midi": 29,
      "hit": false,
      "t": 41571.38700000005,
      "d": 410.7138750000013,
      "v": 95
    },
    {
      "midi": 41,
      "hit": false,
      "t": 41571.38700000005,
      "d": 410.7138750000013,
      "v": 95
    },
    {
      "midi": 56,
      "hit": false,
      "t": 41571.38700000005,
      "d": 410.7138750000013,
      "v": 79
    },
    {
      "midi": 60,
      "hit": false,
      "t": 41571.38700000005,
      "d": 410.7138750000013,
      "v": 79
    },
    {
      "midi": 65,
      "hit": false,
      "t": 41571.38700000005,
      "d": 410.7138750000013,
      "v": 79
    },
    {
      "midi": 32,
      "hit": false,
      "t": 41999.95800000006,
      "d": 410.7138750000013,
      "v": 95
    },
    {
      "midi": 44,
      "hit": false,
      "t": 41999.95800000006,
      "d": 410.7138750000013,
      "v": 95
    },
    {
      "midi": 56,
      "hit": false,
      "t": 41999.95800000006,
      "d": 410.7138750000013,
      "v": 79
    },
    {
      "midi": 60,
      "hit": false,
      "t": 41999.95800000006,
      "d": 410.7138750000013,
      "v": 79
    },
    {
      "midi": 65,
      "hit": false,
      "t": 41999.95800000006,
      "d": 410.7138750000013,
      "v": 79
    },
    {
      "midi": 32,
      "hit": false,
      "t": 42428.52900000006,
      "d": 410.7138750000013,
      "v": 95
    },
    {
      "midi": 44,
      "hit": false,
      "t": 42428.52900000006,
      "d": 410.7138750000013,
      "v": 95
    },
    {
      "midi": 56,
      "hit": false,
      "t": 42428.52900000006,
      "d": 410.7138750000013,
      "v": 79
    },
    {
      "midi": 60,
      "hit": false,
      "t": 42428.52900000006,
      "d": 410.7138750000013,
      "v": 79
    },
    {
      "midi": 65,
      "hit": false,
      "t": 42428.52900000006,
      "d": 410.7138750000013,
      "v": 79
    },
    {
      "midi": 56,
      "hit": false,
      "t": 42857.100000000064,
      "d": 196.42837500000314,
      "v": 79
    },
    {
      "midi": 60,
      "hit": false,
      "t": 42857.100000000064,
      "d": 196.42837500000314,
      "v": 79
    },
    {
      "midi": 65,
      "hit": false,
      "t": 42857.100000000064,
      "d": 196.42837500000314,
      "v": 79
    },
    {
      "midi": 36,
      "hit": false,
      "t": 42857.100000000064,
      "d": 410.7138750000013,
      "v": 95
    },
    {
      "midi": 48,
      "hit": false,
      "t": 42857.100000000064,
      "d": 410.7138750000013,
      "v": 95
    },
    {
      "midi": 56,
      "hit": false,
      "t": 43285.67100000007,
      "d": 196.42837500000314,
      "v": 79
    },
    {
      "midi": 60,
      "hit": false,
      "t": 43285.67100000007,
      "d": 196.42837500000314,
      "v": 79
    },
    {
      "midi": 65,
      "hit": false,
      "t": 43285.67100000007,
      "d": 196.42837500000314,
      "v": 79
    },
    {
      "midi": 36,
      "hit": false,
      "t": 43285.67100000007,
      "d": 410.7138750000013,
      "v": 95
    },
    {
      "midi": 48,
      "hit": false,
      "t": 43285.67100000007,
      "d": 410.7138750000013,
      "v": 95
    },
    {
      "midi": 56,
      "hit": false,
      "t": 43714.24200000007,
      "d": 196.42837500000314,
      "v": 79
    },
    {
      "midi": 60,
      "hit": false,
      "t": 43714.24200000007,
      "d": 196.42837500000314,
      "v": 79
    },
    {
      "midi": 65,
      "hit": false,
      "t": 43714.24200000007,
      "d": 196.42837500000314,
      "v": 79
    },
    {
      "midi": 41,
      "hit": false,
      "t": 43714.24200000007,
      "d": 410.7138750000013,
      "v": 95
    },
    {
      "midi": 53,
      "hit": false,
      "t": 43714.24200000007,
      "d": 410.7138750000013,
      "v": 95
    },
    {
      "midi": 56,
      "hit": false,
      "t": 44142.813000000075,
      "d": 196.42837500000314,
      "v": 79
    },
    {
      "midi": 60,
      "hit": false,
      "t": 44142.813000000075,
      "d": 196.42837500000314,
      "v": 79
    },
    {
      "midi": 65,
      "hit": false,
      "t": 44142.813000000075,
      "d": 196.42837500000314,
      "v": 79
    },
    {
      "midi": 41,
      "hit": false,
      "t": 44142.813000000075,
      "d": 410.7138750000013,
      "v": 95
    },
    {
      "midi": 53,
      "hit": false,
      "t": 44142.813000000075,
      "d": 410.7138750000013,
      "v": 95
    },
    {
      "midi": 39,
      "hit": false,
      "t": 44571.38400000008,
      "d": 410.7138750000013,
      "v": 95
    },
    {
      "midi": 51,
      "hit": false,
      "t": 44571.38400000008,
      "d": 410.7138750000013,
      "v": 95
    },
    {
      "midi": 60,
      "hit": false,
      "t": 44571.38400000008,
      "d": 410.7138750000013,
      "v": 79
    },
    {
      "midi": 63,
      "hit": false,
      "t": 44571.38400000008,
      "d": 410.7138750000013,
      "v": 79
    },
    {
      "midi": 67,
      "hit": false,
      "t": 44571.38400000008,
      "d": 410.7138750000013,
      "v": 79
    },
    {
      "midi": 39,
      "hit": false,
      "t": 44999.95500000008,
      "d": 410.7138750000013,
      "v": 95
    },
    {
      "midi": 51,
      "hit": false,
      "t": 44999.95500000008,
      "d": 410.7138750000013,
      "v": 95
    },
    {
      "midi": 60,
      "hit": false,
      "t": 44999.95500000008,
      "d": 410.7138750000013,
      "v": 79
    },
    {
      "midi": 63,
      "hit": false,
      "t": 44999.95500000008,
      "d": 410.7138750000013,
      "v": 79
    },
    {
      "midi": 67,
      "hit": false,
      "t": 44999.95500000008,
      "d": 410.7138750000013,
      "v": 79
    },
    {
      "midi": 36,
      "hit": false,
      "t": 45428.526000000085,
      "d": 410.7138750000013,
      "v": 95
    },
    {
      "midi": 48,
      "hit": false,
      "t": 45428.526000000085,
      "d": 410.7138750000013,
      "v": 95
    },
    {
      "midi": 60,
      "hit": false,
      "t": 45428.526000000085,
      "d": 410.7138750000013,
      "v": 79
    },
    {
      "midi": 63,
      "hit": false,
      "t": 45428.526000000085,
      "d": 410.7138750000013,
      "v": 79
    },
    {
      "midi": 67,
      "hit": false,
      "t": 45428.526000000085,
      "d": 410.7138750000013,
      "v": 79
    },
    {
      "midi": 36,
      "hit": false,
      "t": 45857.09700000009,
      "d": 410.7138750000013,
      "v": 95
    },
    {
      "midi": 48,
      "hit": false,
      "t": 45857.09700000009,
      "d": 410.7138750000013,
      "v": 95
    },
    {
      "midi": 60,
      "hit": false,
      "t": 45857.09700000009,
      "d": 410.7138750000013,
      "v": 79
    },
    {
      "midi": 63,
      "hit": false,
      "t": 45857.09700000009,
      "d": 410.7138750000013,
      "v": 79
    },
    {
      "midi": 67,
      "hit": false,
      "t": 45857.09700000009,
      "d": 410.7138750000013,
      "v": 79
    },
    {
      "midi": 60,
      "hit": false,
      "t": 46285.66800000009,
      "d": 196.42837500000314,
      "v": 79
    },
    {
      "midi": 63,
      "hit": false,
      "t": 46285.66800000009,
      "d": 196.42837500000314,
      "v": 79
    },
    {
      "midi": 67,
      "hit": false,
      "t": 46285.66800000009,
      "d": 196.42837500000314,
      "v": 79
    },
    {
      "midi": 31,
      "hit": false,
      "t": 46285.66800000009,
      "d": 410.7138750000013,
      "v": 95
    },
    {
      "midi": 43,
      "hit": false,
      "t": 46285.66800000009,
      "d": 410.7138750000013,
      "v": 95
    },
    {
      "midi": 60,
      "hit": false,
      "t": 46714.239000000096,
      "d": 196.42837500000314,
      "v": 79
    },
    {
      "midi": 63,
      "hit": false,
      "t": 46714.239000000096,
      "d": 196.42837500000314,
      "v": 79
    },
    {
      "midi": 67,
      "hit": false,
      "t": 46714.239000000096,
      "d": 196.42837500000314,
      "v": 79
    },
    {
      "midi": 31,
      "hit": false,
      "t": 46714.239000000096,
      "d": 410.7138750000013,
      "v": 95
    },
    {
      "midi": 43,
      "hit": false,
      "t": 46714.239000000096,
      "d": 410.7138750000013,
      "v": 95
    },
    {
      "midi": 60,
      "hit": false,
      "t": 47142.8100000001,
      "d": 196.42837500000314,
      "v": 79
    },
    {
      "midi": 63,
      "hit": false,
      "t": 47142.8100000001,
      "d": 196.42837500000314,
      "v": 79
    },
    {
      "midi": 67,
      "hit": false,
      "t": 47142.8100000001,
      "d": 196.42837500000314,
      "v": 79
    },
    {
      "midi": 27,
      "hit": false,
      "t": 47142.8100000001,
      "d": 410.7138750000013,
      "v": 95
    },
    {
      "midi": 39,
      "hit": false,
      "t": 47142.8100000001,
      "d": 410.7138750000013,
      "v": 95
    },
    {
      "midi": 60,
      "hit": false,
      "t": 47571.3810000001,
      "d": 196.42837500000314,
      "v": 79
    },
    {
      "midi": 63,
      "hit": false,
      "t": 47571.3810000001,
      "d": 196.42837500000314,
      "v": 79
    },
    {
      "midi": 67,
      "hit": false,
      "t": 47571.3810000001,
      "d": 196.42837500000314,
      "v": 79
    },
    {
      "midi": 27,
      "hit": false,
      "t": 47571.3810000001,
      "d": 410.7138750000013,
      "v": 95
    },
    {
      "midi": 39,
      "hit": false,
      "t": 47571.3810000001,
      "d": 410.7138750000013,
      "v": 95
    },
    {
      "midi": 29,
      "hit": false,
      "t": 47999.95200000011,
      "d": 410.7138750000013,
      "v": 95
    },
    {
      "midi": 41,
      "hit": false,
      "t": 47999.95200000011,
      "d": 410.7138750000013,
      "v": 95
    },
    {
      "midi": 56,
      "hit": false,
      "t": 47999.95200000011,
      "d": 410.7138750000013,
      "v": 79
    },
    {
      "midi": 60,
      "hit": false,
      "t": 47999.95200000011,
      "d": 410.7138750000013,
      "v": 79
    },
    {
      "midi": 65,
      "hit": false,
      "t": 47999.95200000011,
      "d": 410.7138750000013,
      "v": 79
    },
    {
      "midi": 29,
      "hit": false,
      "t": 48428.52300000011,
      "d": 410.7138750000013,
      "v": 95
    },
    {
      "midi": 41,
      "hit": false,
      "t": 48428.52300000011,
      "d": 410.7138750000013,
      "v": 95
    },
    {
      "midi": 56,
      "hit": false,
      "t": 48428.52300000011,
      "d": 410.7138750000013,
      "v": 79
    },
    {
      "midi": 60,
      "hit": false,
      "t": 48428.52300000011,
      "d": 410.7138750000013,
      "v": 79
    },
    {
      "midi": 65,
      "hit": false,
      "t": 48428.52300000011,
      "d": 410.7138750000013,
      "v": 79
    },
    {
      "midi": 32,
      "hit": false,
      "t": 48857.094000000114,
      "d": 410.7138750000013,
      "v": 95
    },
    {
      "midi": 44,
      "hit": false,
      "t": 48857.094000000114,
      "d": 410.7138750000013,
      "v": 95
    },
    {
      "midi": 56,
      "hit": false,
      "t": 48857.094000000114,
      "d": 410.7138750000013,
      "v": 79
    },
    {
      "midi": 60,
      "hit": false,
      "t": 48857.094000000114,
      "d": 410.7138750000013,
      "v": 79
    },
    {
      "midi": 65,
      "hit": false,
      "t": 48857.094000000114,
      "d": 410.7138750000013,
      "v": 79
    },
    {
      "midi": 32,
      "hit": false,
      "t": 49285.66500000012,
      "d": 410.7138750000013,
      "v": 95
    },
    {
      "midi": 44,
      "hit": false,
      "t": 49285.66500000012,
      "d": 410.7138750000013,
      "v": 95
    },
    {
      "midi": 56,
      "hit": false,
      "t": 49285.66500000012,
      "d": 410.7138750000013,
      "v": 79
    },
    {
      "midi": 60,
      "hit": false,
      "t": 49285.66500000012,
      "d": 410.7138750000013,
      "v": 79
    },
    {
      "midi": 65,
      "hit": false,
      "t": 49285.66500000012,
      "d": 410.7138750000013,
      "v": 79
    },
    {
      "midi": 56,
      "hit": false,
      "t": 49714.23600000012,
      "d": 196.42837500000314,
      "v": 79
    },
    {
      "midi": 60,
      "hit": false,
      "t": 49714.23600000012,
      "d": 196.42837500000314,
      "v": 79
    },
    {
      "midi": 65,
      "hit": false,
      "t": 49714.23600000012,
      "d": 196.42837500000314,
      "v": 79
    },
    {
      "midi": 36,
      "hit": false,
      "t": 49714.23600000012,
      "d": 410.7138750000013,
      "v": 95
    },
    {
      "midi": 48,
      "hit": false,
      "t": 49714.23600000012,
      "d": 410.7138750000013,
      "v": 95
    },
    {
      "midi": 56,
      "hit": false,
      "t": 50142.807000000124,
      "d": 196.42837500000314,
      "v": 79
    },
    {
      "midi": 60,
      "hit": false,
      "t": 50142.807000000124,
      "d": 196.42837500000314,
      "v": 79
    },
    {
      "midi": 65,
      "hit": false,
      "t": 50142.807000000124,
      "d": 196.42837500000314,
      "v": 79
    },
    {
      "midi": 36,
      "hit": false,
      "t": 50142.807000000124,
      "d": 410.7138750000013,
      "v": 95
    },
    {
      "midi": 48,
      "hit": false,
      "t": 50142.807000000124,
      "d": 410.7138750000013,
      "v": 95
    },
    {
      "midi": 56,
      "hit": false,
      "t": 50571.37800000013,
      "d": 196.42837500000314,
      "v": 79
    },
    {
      "midi": 60,
      "hit": false,
      "t": 50571.37800000013,
      "d": 196.42837500000314,
      "v": 79
    },
    {
      "midi": 65,
      "hit": false,
      "t": 50571.37800000013,
      "d": 196.42837500000314,
      "v": 79
    },
    {
      "midi": 41,
      "hit": false,
      "t": 50571.37800000013,
      "d": 410.7138750000013,
      "v": 95
    },
    {
      "midi": 53,
      "hit": false,
      "t": 50571.37800000013,
      "d": 410.7138750000013,
      "v": 95
    },
    {
      "midi": 56,
      "hit": false,
      "t": 50999.94900000013,
      "d": 196.42837500000314,
      "v": 79
    },
    {
      "midi": 60,
      "hit": false,
      "t": 50999.94900000013,
      "d": 196.42837500000314,
      "v": 79
    },
    {
      "midi": 65,
      "hit": false,
      "t": 50999.94900000013,
      "d": 196.42837500000314,
      "v": 79
    },
    {
      "midi": 41,
      "hit": false,
      "t": 50999.94900000013,
      "d": 410.7138750000013,
      "v": 95
    },
    {
      "midi": 53,
      "hit": false,
      "t": 50999.94900000013,
      "d": 410.7138750000013,
      "v": 95
    },
    {
      "midi": 39,
      "hit": false,
      "t": 51428.520000000135,
      "d": 410.7138750000013,
      "v": 95
    },
    {
      "midi": 51,
      "hit": false,
      "t": 51428.520000000135,
      "d": 410.7138750000013,
      "v": 95
    },
    {
      "midi": 60,
      "hit": false,
      "t": 51428.520000000135,
      "d": 410.7138750000013,
      "v": 79
    },
    {
      "midi": 63,
      "hit": false,
      "t": 51428.520000000135,
      "d": 410.7138750000013,
      "v": 79
    },
    {
      "midi": 67,
      "hit": false,
      "t": 51428.520000000135,
      "d": 410.7138750000013,
      "v": 79
    },
    {
      "midi": 39,
      "hit": false,
      "t": 51857.09100000014,
      "d": 410.7138750000013,
      "v": 95
    },
    {
      "midi": 51,
      "hit": false,
      "t": 51857.09100000014,
      "d": 410.7138750000013,
      "v": 95
    },
    {
      "midi": 60,
      "hit": false,
      "t": 51857.09100000014,
      "d": 410.7138750000013,
      "v": 79
    },
    {
      "midi": 63,
      "hit": false,
      "t": 51857.09100000014,
      "d": 410.7138750000013,
      "v": 79
    },
    {
      "midi": 67,
      "hit": false,
      "t": 51857.09100000014,
      "d": 410.7138750000013,
      "v": 79
    },
    {
      "midi": 36,
      "hit": false,
      "t": 52285.66200000014,
      "d": 410.7138750000013,
      "v": 95
    },
    {
      "midi": 48,
      "hit": false,
      "t": 52285.66200000014,
      "d": 410.7138750000013,
      "v": 95
    },
    {
      "midi": 60,
      "hit": false,
      "t": 52285.66200000014,
      "d": 410.7138750000013,
      "v": 79
    },
    {
      "midi": 63,
      "hit": false,
      "t": 52285.66200000014,
      "d": 410.7138750000013,
      "v": 79
    },
    {
      "midi": 67,
      "hit": false,
      "t": 52285.66200000014,
      "d": 410.7138750000013,
      "v": 79
    },
    {
      "midi": 36,
      "hit": false,
      "t": 52714.233000000146,
      "d": 410.7138750000013,
      "v": 95
    },
    {
      "midi": 48,
      "hit": false,
      "t": 52714.233000000146,
      "d": 410.7138750000013,
      "v": 95
    },
    {
      "midi": 60,
      "hit": false,
      "t": 52714.233000000146,
      "d": 410.7138750000013,
      "v": 79
    },
    {
      "midi": 63,
      "hit": false,
      "t": 52714.233000000146,
      "d": 410.7138750000013,
      "v": 79
    },
    {
      "midi": 67,
      "hit": false,
      "t": 52714.233000000146,
      "d": 410.7138750000013,
      "v": 79
    },
    {
      "midi": 60,
      "hit": false,
      "t": 53142.80400000015,
      "d": 196.42837500000314,
      "v": 79
    },
    {
      "midi": 63,
      "hit": false,
      "t": 53142.80400000015,
      "d": 196.42837500000314,
      "v": 79
    },
    {
      "midi": 67,
      "hit": false,
      "t": 53142.80400000015,
      "d": 196.42837500000314,
      "v": 79
    },
    {
      "midi": 31,
      "hit": false,
      "t": 53142.80400000015,
      "d": 410.7138750000013,
      "v": 95
    },
    {
      "midi": 43,
      "hit": false,
      "t": 53142.80400000015,
      "d": 410.7138750000013,
      "v": 95
    },
    {
      "midi": 60,
      "hit": false,
      "t": 53571.37500000015,
      "d": 196.42837500000314,
      "v": 79
    },
    {
      "midi": 63,
      "hit": false,
      "t": 53571.37500000015,
      "d": 196.42837500000314,
      "v": 79
    },
    {
      "midi": 67,
      "hit": false,
      "t": 53571.37500000015,
      "d": 196.42837500000314,
      "v": 79
    },
    {
      "midi": 31,
      "hit": false,
      "t": 53571.37500000015,
      "d": 410.7138750000013,
      "v": 95
    },
    {
      "midi": 43,
      "hit": false,
      "t": 53571.37500000015,
      "d": 410.7138750000013,
      "v": 95
    },
    {
      "midi": 60,
      "hit": false,
      "t": 53999.946000000156,
      "d": 196.42837500000314,
      "v": 79
    },
    {
      "midi": 63,
      "hit": false,
      "t": 53999.946000000156,
      "d": 196.42837500000314,
      "v": 79
    },
    {
      "midi": 67,
      "hit": false,
      "t": 53999.946000000156,
      "d": 196.42837500000314,
      "v": 79
    },
    {
      "midi": 27,
      "hit": false,
      "t": 53999.946000000156,
      "d": 410.7138750000013,
      "v": 95
    },
    {
      "midi": 39,
      "hit": false,
      "t": 53999.946000000156,
      "d": 410.7138750000013,
      "v": 95
    },
    {
      "midi": 60,
      "hit": false,
      "t": 54428.51700000016,
      "d": 196.42837500000314,
      "v": 79
    },
    {
      "midi": 63,
      "hit": false,
      "t": 54428.51700000016,
      "d": 196.42837500000314,
      "v": 79
    },
    {
      "midi": 67,
      "hit": false,
      "t": 54428.51700000016,
      "d": 196.42837500000314,
      "v": 79
    },
    {
      "midi": 27,
      "hit": false,
      "t": 54428.51700000016,
      "d": 410.7138750000013,
      "v": 95
    },
    {
      "midi": 39,
      "hit": false,
      "t": 54428.51700000016,
      "d": 410.7138750000013,
      "v": 95
    },
    {
      "midi": 50,
      "hit": false,
      "t": 54857.08800000016,
      "d": 839.2848749999976,
      "v": 95
    },
    {
      "midi": 54,
      "hit": false,
      "t": 54857.08800000016,
      "d": 839.2848749999976,
      "v": 95
    },
    {
      "midi": 57,
      "hit": false,
      "t": 54857.08800000016,
      "d": 839.2848749999976,
      "v": 95
    },
    {
      "midi": 62,
      "hit": false,
      "t": 54857.08800000016,
      "d": 839.2848749999976,
      "v": 95
    },
    {
      "midi": 26,
      "hit": false,
      "t": 54857.08800000016,
      "d": 3410.710875000019,
      "v": 127
    },
    {
      "midi": 38,
      "hit": false,
      "t": 54857.08800000016,
      "d": 3410.710875000019,
      "v": 127
    },
    {
      "midi": 69,
      "hit": false,
      "t": 55714.23000000016,
      "d": 410.7138750000013,
      "v": 79
    },
    {
      "midi": 74,
      "hit": false,
      "t": 55714.23000000016,
      "d": 410.7138750000013,
      "v": 79
    },
    {
      "midi": 78,
      "hit": false,
      "t": 55714.23000000016,
      "d": 410.7138750000013,
      "v": 79
    },
    {
      "midi": 69,
      "hit": false,
      "t": 56142.80100000017,
      "d": 410.7138750000013,
      "v": 79
    },
    {
      "midi": 74,
      "hit": false,
      "t": 56142.80100000017,
      "d": 410.7138750000013,
      "v": 79
    },
    {
      "midi": 78,
      "hit": false,
      "t": 56142.80100000017,
      "d": 410.7138750000013,
      "v": 79
    },
    {
      "midi": 66,
      "hit": false,
      "t": 56571.37200000017,
      "d": 410.7138750000013,
      "v": 79
    },
    {
      "midi": 69,
      "hit": false,
      "t": 56571.37200000017,
      "d": 410.7138750000013,
      "v": 79
    },
    {
      "midi": 74,
      "hit": false,
      "t": 56571.37200000017,
      "d": 410.7138750000013,
      "v": 79
    },
    {
      "midi": 66,
      "hit": false,
      "t": 56999.943000000174,
      "d": 410.7138750000013,
      "v": 79
    },
    {
      "midi": 69,
      "hit": false,
      "t": 56999.943000000174,
      "d": 410.7138750000013,
      "v": 79
    },
    {
      "midi": 74,
      "hit": false,
      "t": 56999.943000000174,
      "d": 410.7138750000013,
      "v": 79
    },
    {
      "midi": 62,
      "hit": false,
      "t": 57428.51400000018,
      "d": 410.7138750000013,
      "v": 79
    },
    {
      "midi": 66,
      "hit": false,
      "t": 57428.51400000018,
      "d": 410.7138750000013,
      "v": 79
    },
    {
      "midi": 69,
      "hit": false,
      "t": 57428.51400000018,
      "d": 410.7138750000013,
      "v": 79
    },
    {
      "midi": 62,
      "hit": false,
      "t": 57857.08500000018,
      "d": 410.7138750000013,
      "v": 79
    },
    {
      "midi": 66,
      "hit": false,
      "t": 57857.08500000018,
      "d": 410.7138750000013,
      "v": 79
    },
    {
      "midi": 69,
      "hit": false,
      "t": 57857.08500000018,
      "d": 410.7138750000013,
      "v": 79
    },
    {
      "midi": 27,
      "hit": false,
      "t": 58285.656000000185,
      "d": 410.7138750000013,
      "v": 95
    },
    {
      "midi": 39,
      "hit": false,
      "t": 58285.656000000185,
      "d": 410.7138750000013,
      "v": 95
    },
    {
      "midi": 55,
      "hit": false,
      "t": 58285.656000000185,
      "d": 410.7138750000013,
      "v": 79
    },
    {
      "midi": 60,
      "hit": false,
      "t": 58285.656000000185,
      "d": 410.7138750000013,
      "v": 79
    },
    {
      "midi": 63,
      "hit": false,
      "t": 58285.656000000185,
      "d": 410.7138750000013,
      "v": 79
    },
    {
      "midi": 27,
      "hit": false,
      "t": 58714.22700000019,
      "d": 410.7138750000013,
      "v": 95
    },
    {
      "midi": 39,
      "hit": false,
      "t": 58714.22700000019,
      "d": 410.7138750000013,
      "v": 95
    },
    {
      "midi": 55,
      "hit": false,
      "t": 58714.22700000019,
      "d": 410.7138750000013,
      "v": 79
    },
    {
      "midi": 60,
      "hit": false,
      "t": 58714.22700000019,
      "d": 410.7138750000013,
      "v": 79
    },
    {
      "midi": 63,
      "hit": false,
      "t": 58714.22700000019,
      "d": 410.7138750000013,
      "v": 79
    },
    {
      "midi": 31,
      "hit": false,
      "t": 59142.79800000019,
      "d": 410.7138750000013,
      "v": 95
    },
    {
      "midi": 43,
      "hit": false,
      "t": 59142.79800000019,
      "d": 410.7138750000013,
      "v": 95
    },
    {
      "midi": 60,
      "hit": false,
      "t": 59142.79800000019,
      "d": 410.7138750000013,
      "v": 79
    },
    {
      "midi": 63,
      "hit": false,
      "t": 59142.79800000019,
      "d": 410.7138750000013,
      "v": 79
    },
    {
      "midi": 67,
      "hit": false,
      "t": 59142.79800000019,
      "d": 410.7138750000013,
      "v": 79
    },
    {
      "midi": 31,
      "hit": false,
      "t": 59571.369000000195,
      "d": 410.7138750000013,
      "v": 95
    },
    {
      "midi": 43,
      "hit": false,
      "t": 59571.369000000195,
      "d": 410.7138750000013,
      "v": 95
    },
    {
      "midi": 60,
      "hit": false,
      "t": 59571.369000000195,
      "d": 410.7138750000013,
      "v": 79
    },
    {
      "midi": 63,
      "hit": false,
      "t": 59571.369000000195,
      "d": 410.7138750000013,
      "v": 79
    },
    {
      "midi": 67,
      "hit": false,
      "t": 59571.369000000195,
      "d": 410.7138750000013,
      "v": 79
    },
    {
      "midi": 36,
      "hit": false,
      "t": 59999.9400000002,
      "d": 410.7138750000013,
      "v": 95
    },
    {
      "midi": 48,
      "hit": false,
      "t": 59999.9400000002,
      "d": 410.7138750000013,
      "v": 95
    },
    {
      "midi": 63,
      "hit": false,
      "t": 59999.9400000002,
      "d": 410.7138750000013,
      "v": 79
    },
    {
      "midi": 67,
      "hit": false,
      "t": 59999.9400000002,
      "d": 410.7138750000013,
      "v": 79
    },
    {
      "midi": 72,
      "hit": false,
      "t": 59999.9400000002,
      "d": 410.7138750000013,
      "v": 79
    },
    {
      "midi": 36,
      "hit": false,
      "t": 60428.5110000002,
      "d": 410.7138750000013,
      "v": 95
    },
    {
      "midi": 48,
      "hit": false,
      "t": 60428.5110000002,
      "d": 410.7138750000013,
      "v": 95
    },
    {
      "midi": 63,
      "hit": false,
      "t": 60428.5110000002,
      "d": 410.7138750000013,
      "v": 79
    },
    {
      "midi": 67,
      "hit": false,
      "t": 60428.5110000002,
      "d": 410.7138750000013,
      "v": 79
    },
    {
      "midi": 72,
      "hit": false,
      "t": 60428.5110000002,
      "d": 410.7138750000013,
      "v": 79
    },
    {
      "midi": 35,
      "hit": false,
      "t": 60857.082000000206,
      "d": 410.7138750000013,
      "v": 95
    },
    {
      "midi": 47,
      "hit": false,
      "t": 60857.082000000206,
      "d": 410.7138750000013,
      "v": 95
    },
    {
      "midi": 63,
      "hit": false,
      "t": 60857.082000000206,
      "d": 410.7138750000013,
      "v": 79
    },
    {
      "midi": 67,
      "hit": false,
      "t": 60857.082000000206,
      "d": 410.7138750000013,
      "v": 79
    },
    {
      "midi": 71,
      "hit": false,
      "t": 60857.082000000206,
      "d": 410.7138750000013,
      "v": 79
    },
    {
      "midi": 36,
      "hit": false,
      "t": 61285.65300000021,
      "d": 410.7138750000013,
      "v": 95
    },
    {
      "midi": 48,
      "hit": false,
      "t": 61285.65300000021,
      "d": 410.7138750000013,
      "v": 95
    },
    {
      "midi": 63,
      "hit": false,
      "t": 61285.65300000021,
      "d": 410.7138750000013,
      "v": 79
    },
    {
      "midi": 67,
      "hit": false,
      "t": 61285.65300000021,
      "d": 410.7138750000013,
      "v": 79
    },
    {
      "midi": 72,
      "hit": false,
      "t": 61285.65300000021,
      "d": 410.7138750000013,
      "v": 79
    },
    {
      "midi": 69,
      "hit": false,
      "t": 61714.22400000021,
      "d": 410.7138750000013,
      "v": 79
    },
    {
      "midi": 74,
      "hit": false,
      "t": 61714.22400000021,
      "d": 410.7138750000013,
      "v": 79
    },
    {
      "midi": 78,
      "hit": false,
      "t": 61714.22400000021,
      "d": 410.7138750000013,
      "v": 79
    },
    {
      "midi": 38,
      "hit": false,
      "t": 61714.22400000021,
      "d": 2553.568875000019,
      "v": 95
    },
    {
      "midi": 50,
      "hit": false,
      "t": 61714.22400000021,
      "d": 2553.568875000019,
      "v": 95
    },
    {
      "midi": 69,
      "hit": false,
      "t": 62142.79500000022,
      "d": 410.7138750000013,
      "v": 79
    },
    {
      "midi": 74,
      "hit": false,
      "t": 62142.79500000022,
      "d": 410.7138750000013,
      "v": 79
    },
    {
      "midi": 78,
      "hit": false,
      "t": 62142.79500000022,
      "d": 410.7138750000013,
      "v": 79
    },
    {
      "midi": 66,
      "hit": false,
      "t": 62571.36600000022,
      "d": 410.7138750000013,
      "v": 79
    },
    {
      "midi": 69,
      "hit": false,
      "t": 62571.36600000022,
      "d": 410.7138750000013,
      "v": 79
    },
    {
      "midi": 74,
      "hit": false,
      "t": 62571.36600000022,
      "d": 410.7138750000013,
      "v": 79
    },
    {
      "midi": 66,
      "hit": false,
      "t": 62999.93700000022,
      "d": 410.7138750000013,
      "v": 79
    },
    {
      "midi": 69,
      "hit": false,
      "t": 62999.93700000022,
      "d": 410.7138750000013,
      "v": 79
    },
    {
      "midi": 74,
      "hit": false,
      "t": 62999.93700000022,
      "d": 410.7138750000013,
      "v": 79
    },
    {
      "midi": 62,
      "hit": false,
      "t": 63428.50800000023,
      "d": 410.7138750000013,
      "v": 79
    },
    {
      "midi": 66,
      "hit": false,
      "t": 63428.50800000023,
      "d": 410.7138750000013,
      "v": 79
    },
    {
      "midi": 69,
      "hit": false,
      "t": 63428.50800000023,
      "d": 410.7138750000013,
      "v": 79
    },
    {
      "midi": 62,
      "hit": false,
      "t": 63857.07900000023,
      "d": 410.7138750000013,
      "v": 79
    },
    {
      "midi": 66,
      "hit": false,
      "t": 63857.07900000023,
      "d": 410.7138750000013,
      "v": 79
    },
    {
      "midi": 69,
      "hit": false,
      "t": 63857.07900000023,
      "d": 410.7138750000013,
      "v": 79
    },
    {
      "midi": 27,
      "hit": false,
      "t": 64285.650000000234,
      "d": 410.7138750000013,
      "v": 95
    },
    {
      "midi": 39,
      "hit": false,
      "t": 64285.650000000234,
      "d": 410.7138750000013,
      "v": 95
    },
    {
      "midi": 55,
      "hit": false,
      "t": 64285.650000000234,
      "d": 410.7138750000013,
      "v": 79
    },
    {
      "midi": 60,
      "hit": false,
      "t": 64285.650000000234,
      "d": 410.7138750000013,
      "v": 79
    },
    {
      "midi": 63,
      "hit": false,
      "t": 64285.650000000234,
      "d": 410.7138750000013,
      "v": 79
    },
    {
      "midi": 27,
      "hit": false,
      "t": 64714.22100000024,
      "d": 410.7138750000013,
      "v": 95
    },
    {
      "midi": 39,
      "hit": false,
      "t": 64714.22100000024,
      "d": 410.7138750000013,
      "v": 95
    },
    {
      "midi": 55,
      "hit": false,
      "t": 64714.22100000024,
      "d": 410.7138750000013,
      "v": 79
    },
    {
      "midi": 60,
      "hit": false,
      "t": 64714.22100000024,
      "d": 410.7138750000013,
      "v": 79
    },
    {
      "midi": 63,
      "hit": false,
      "t": 64714.22100000024,
      "d": 410.7138750000013,
      "v": 79
    },
    {
      "midi": 31,
      "hit": false,
      "t": 65142.79200000024,
      "d": 410.713874999994,
      "v": 95
    },
    {
      "midi": 43,
      "hit": false,
      "t": 65142.79200000024,
      "d": 410.713874999994,
      "v": 95
    },
    {
      "midi": 60,
      "hit": false,
      "t": 65142.79200000024,
      "d": 410.713874999994,
      "v": 79
    },
    {
      "midi": 63,
      "hit": false,
      "t": 65142.79200000024,
      "d": 410.713874999994,
      "v": 79
    },
    {
      "midi": 67,
      "hit": false,
      "t": 65142.79200000024,
      "d": 410.713874999994,
      "v": 79
    },
    {
      "midi": 31,
      "hit": false,
      "t": 65571.36300000023,
      "d": 410.7138750000013,
      "v": 95
    },
    {
      "midi": 43,
      "hit": false,
      "t": 65571.36300000023,
      "d": 410.7138750000013,
      "v": 95
    },
    {
      "midi": 60,
      "hit": false,
      "t": 65571.36300000023,
      "d": 410.7138750000013,
      "v": 79
    },
    {
      "midi": 63,
      "hit": false,
      "t": 65571.36300000023,
      "d": 410.7138750000013,
      "v": 79
    },
    {
      "midi": 67,
      "hit": false,
      "t": 65571.36300000023,
      "d": 410.7138750000013,
      "v": 79
    },
    {
      "midi": 36,
      "hit": false,
      "t": 65999.93400000023,
      "d": 410.7138750000013,
      "v": 95
    },
    {
      "midi": 48,
      "hit": false,
      "t": 65999.93400000023,
      "d": 410.7138750000013,
      "v": 95
    },
    {
      "midi": 63,
      "hit": false,
      "t": 65999.93400000023,
      "d": 410.7138750000013,
      "v": 79
    },
    {
      "midi": 67,
      "hit": false,
      "t": 65999.93400000023,
      "d": 410.7138750000013,
      "v": 79
    },
    {
      "midi": 72,
      "hit": false,
      "t": 65999.93400000023,
      "d": 410.7138750000013,
      "v": 79
    },
    {
      "midi": 36,
      "hit": false,
      "t": 66428.50500000022,
      "d": 410.7138750000013,
      "v": 95
    },
    {
      "midi": 48,
      "hit": false,
      "t": 66428.50500000022,
      "d": 410.7138750000013,
      "v": 95
    },
    {
      "midi": 63,
      "hit": false,
      "t": 66428.50500000022,
      "d": 410.7138750000013,
      "v": 79
    },
    {
      "midi": 67,
      "hit": false,
      "t": 66428.50500000022,
      "d": 410.7138750000013,
      "v": 79
    },
    {
      "midi": 72,
      "hit": false,
      "t": 66428.50500000022,
      "d": 410.7138750000013,
      "v": 79
    },
    {
      "midi": 63,
      "hit": false,
      "t": 66857.07600000022,
      "d": 410.7138750000013,
      "v": 79
    },
    {
      "midi": 67,
      "hit": false,
      "t": 66857.07600000022,
      "d": 410.7138750000013,
      "v": 79
    },
    {
      "midi": 72,
      "hit": false,
      "t": 66857.07600000022,
      "d": 410.7138750000013,
      "v": 79
    },
    {
      "midi": 48,
      "hit": false,
      "t": 66857.07600000022,
      "d": 1428.5699999999924,
      "v": 95
    },
    {
      "midi": 36,
      "hit": false,
      "t": 66857.07600000022,
      "d": 1589.284124999991,
      "v": 95
    },
    {
      "midi": 93,
      "hit": false,
      "t": 67285.64700000022,
      "d": 35.71425000000454,
      "v": 95
    },
    {
      "midi": 91,
      "hit": false,
      "t": 67339.21837500022,
      "d": 35.71425000000454,
      "v": 95
    },
    {
      "midi": 89,
      "hit": false,
      "t": 67392.78975000021,
      "d": 35.71425000000454,
      "v": 95
    },
    {
      "midi": 88,
      "hit": false,
      "t": 67446.36112500021,
      "d": 35.71425000000454,
      "v": 95
    },
    {
      "midi": 86,
      "hit": false,
      "t": 67499.93250000021,
      "d": 35.71425000000454,
      "v": 95
    },
    {
      "midi": 84,
      "hit": false,
      "t": 67553.50387500021,
      "d": 35.71425000000454,
      "v": 95
    },
    {
      "midi": 83,
      "hit": false,
      "t": 67607.07525000021,
      "d": 35.71425000000454,
      "v": 95
    },
    {
      "midi": 81,
      "hit": false,
      "t": 67660.64662500021,
      "d": 35.71425000000454,
      "v": 95
    },
    {
      "midi": 79,
      "hit": false,
      "t": 67714.21800000021,
      "d": 35.71425000000454,
      "v": 95
    },
    {
      "midi": 77,
      "hit": false,
      "t": 67767.78937500021,
      "d": 35.71425000000454,
      "v": 95
    },
    {
      "midi": 76,
      "hit": false,
      "t": 67821.36075000021,
      "d": 35.71425000000454,
      "v": 95
    },
    {
      "midi": 74,
      "hit": false,
      "t": 67874.93212500021,
      "d": 35.71425000000454,
      "v": 95
    },
    {
      "midi": 72,
      "hit": false,
      "t": 67928.50350000021,
      "d": 35.71425000000454,
      "v": 95
    },
    {
      "midi": 71,
      "hit": false,
      "t": 67982.07487500021,
      "d": 35.71425000000454,
      "v": 95
    },
    {
      "midi": 69,
      "hit": false,
      "t": 68035.64625000021,
      "d": 35.71425000000454,
      "v": 95
    },
    {
      "midi": 67,
      "hit": false,
      "t": 68089.21762500021,
      "d": 35.71425000000454,
      "v": 95
    },
    {
      "midi": 65,
      "hit": false,
      "t": 68142.78900000021,
      "d": 35.71425000000454,
      "v": 95
    },
    {
      "midi": 64,
      "hit": false,
      "t": 68196.36037500021,
      "d": 35.71425000000454,
      "v": 95
    },
    {
      "midi": 62,
      "hit": false,
      "t": 68249.9317500002,
      "d": 35.71425000000454,
      "v": 95
    },
    {
      "midi": 60,
      "hit": false,
      "t": 68303.5031250002,
      "d": 35.71425000000454,
      "v": 95
    },
    {
      "midi": 59,
      "hit": false,
      "t": 68357.0745000002,
      "d": 35.71425000000454,
      "v": 95
    },
    {
      "midi": 57,
      "hit": false,
      "t": 68410.6458750002,
      "d": 35.71425000000454,
      "v": 95
    },
    {
      "midi": 29,
      "hit": false,
      "t": 68571.3600000002,
      "d": 410.7138750000013,
      "v": 95
    },
    {
      "midi": 41,
      "hit": false,
      "t": 68571.3600000002,
      "d": 410.7138750000013,
      "v": 95
    },
    {
      "midi": 56,
      "hit": false,
      "t": 68571.3600000002,
      "d": 410.7138750000013,
      "v": 79
    },
    {
      "midi": 60,
      "hit": false,
      "t": 68571.3600000002,
      "d": 410.7138750000013,
      "v": 79
    },
    {
      "midi": 65,
      "hit": false,
      "t": 68571.3600000002,
      "d": 410.7138750000013,
      "v": 79
    },
    {
      "midi": 29,
      "hit": false,
      "t": 68999.9310000002,
      "d": 410.7138750000013,
      "v": 95
    },
    {
      "midi": 41,
      "hit": false,
      "t": 68999.9310000002,
      "d": 410.7138750000013,
      "v": 95
    },
    {
      "midi": 56,
      "hit": false,
      "t": 68999.9310000002,
      "d": 410.7138750000013,
      "v": 79
    },
    {
      "midi": 60,
      "hit": false,
      "t": 68999.9310000002,
      "d": 410.7138750000013,
      "v": 79
    },
    {
      "midi": 65,
      "hit": false,
      "t": 68999.9310000002,
      "d": 410.7138750000013,
      "v": 79
    },
    {
      "midi": 32,
      "hit": false,
      "t": 69428.5020000002,
      "d": 410.7138750000013,
      "v": 95
    },
    {
      "midi": 44,
      "hit": false,
      "t": 69428.5020000002,
      "d": 410.7138750000013,
      "v": 95
    },
    {
      "midi": 56,
      "hit": false,
      "t": 69428.5020000002,
      "d": 410.7138750000013,
      "v": 79
    },
    {
      "midi": 60,
      "hit": false,
      "t": 69428.5020000002,
      "d": 410.7138750000013,
      "v": 79
    },
    {
      "midi": 65,
      "hit": false,
      "t": 69428.5020000002,
      "d": 410.7138750000013,
      "v": 79
    },
    {
      "midi": 32,
      "hit": false,
      "t": 69857.0730000002,
      "d": 410.7138750000013,
      "v": 95
    },
    {
      "midi": 44,
      "hit": false,
      "t": 69857.0730000002,
      "d": 410.7138750000013,
      "v": 95
    },
    {
      "midi": 56,
      "hit": false,
      "t": 69857.0730000002,
      "d": 410.7138750000013,
      "v": 79
    },
    {
      "midi": 60,
      "hit": false,
      "t": 69857.0730000002,
      "d": 410.7138750000013,
      "v": 79
    },
    {
      "midi": 65,
      "hit": false,
      "t": 69857.0730000002,
      "d": 410.7138750000013,
      "v": 79
    },
    {
      "midi": 56,
      "hit": false,
      "t": 70285.64400000019,
      "d": 196.42837500000314,
      "v": 79
    },
    {
      "midi": 60,
      "hit": false,
      "t": 70285.64400000019,
      "d": 196.42837500000314,
      "v": 79
    },
    {
      "midi": 65,
      "hit": false,
      "t": 70285.64400000019,
      "d": 196.42837500000314,
      "v": 79
    },
    {
      "midi": 36,
      "hit": false,
      "t": 70285.64400000019,
      "d": 410.7138750000013,
      "v": 95
    },
    {
      "midi": 48,
      "hit": false,
      "t": 70285.64400000019,
      "d": 410.7138750000013,
      "v": 95
    },
    {
      "midi": 56,
      "hit": false,
      "t": 70714.21500000019,
      "d": 196.42837500000314,
      "v": 79
    },
    {
      "midi": 60,
      "hit": false,
      "t": 70714.21500000019,
      "d": 196.42837500000314,
      "v": 79
    },
    {
      "midi": 65,
      "hit": false,
      "t": 70714.21500000019,
      "d": 196.42837500000314,
      "v": 79
    },
    {
      "midi": 36,
      "hit": false,
      "t": 70714.21500000019,
      "d": 410.7138750000013,
      "v": 95
    },
    {
      "midi": 48,
      "hit": false,
      "t": 70714.21500000019,
      "d": 410.7138750000013,
      "v": 95
    },
    {
      "midi": 56,
      "hit": false,
      "t": 71142.78600000018,
      "d": 196.42837500000314,
      "v": 79
    },
    {
      "midi": 60,
      "hit": false,
      "t": 71142.78600000018,
      "d": 196.42837500000314,
      "v": 79
    },
    {
      "midi": 65,
      "hit": false,
      "t": 71142.78600000018,
      "d": 196.42837500000314,
      "v": 79
    },
    {
      "midi": 41,
      "hit": false,
      "t": 71142.78600000018,
      "d": 410.7138750000013,
      "v": 95
    },
    {
      "midi": 53,
      "hit": false,
      "t": 71142.78600000018,
      "d": 410.7138750000013,
      "v": 95
    },
    {
      "midi": 56,
      "hit": false,
      "t": 71571.35700000018,
      "d": 196.42837500000314,
      "v": 79
    },
    {
      "midi": 60,
      "hit": false,
      "t": 71571.35700000018,
      "d": 196.42837500000314,
      "v": 79
    },
    {
      "midi": 65,
      "hit": false,
      "t": 71571.35700000018,
      "d": 196.42837500000314,
      "v": 79
    },
    {
      "midi": 41,
      "hit": false,
      "t": 71571.35700000018,
      "d": 410.7138750000013,
      "v": 95
    },
    {
      "midi": 53,
      "hit": false,
      "t": 71571.35700000018,
      "d": 410.7138750000013,
      "v": 95
    },
    {
      "midi": 39,
      "hit": false,
      "t": 71999.92800000017,
      "d": 410.7138750000013,
      "v": 95
    },
    {
      "midi": 51,
      "hit": false,
      "t": 71999.92800000017,
      "d": 410.7138750000013,
      "v": 95
    },
    {
      "midi": 60,
      "hit": false,
      "t": 71999.92800000017,
      "d": 410.7138750000013,
      "v": 79
    },
    {
      "midi": 63,
      "hit": false,
      "t": 71999.92800000017,
      "d": 410.7138750000013,
      "v": 79
    },
    {
      "midi": 67,
      "hit": false,
      "t": 71999.92800000017,
      "d": 410.7138750000013,
      "v": 79
    },
    {
      "midi": 39,
      "hit": false,
      "t": 72428.49900000017,
      "d": 410.7138750000013,
      "v": 95
    },
    {
      "midi": 51,
      "hit": false,
      "t": 72428.49900000017,
      "d": 410.7138750000013,
      "v": 95
    },
    {
      "midi": 60,
      "hit": false,
      "t": 72428.49900000017,
      "d": 410.7138750000013,
      "v": 79
    },
    {
      "midi": 63,
      "hit": false,
      "t": 72428.49900000017,
      "d": 410.7138750000013,
      "v": 79
    },
    {
      "midi": 67,
      "hit": false,
      "t": 72428.49900000017,
      "d": 410.7138750000013,
      "v": 79
    },
    {
      "midi": 36,
      "hit": false,
      "t": 72857.07000000017,
      "d": 410.7138750000013,
      "v": 95
    },
    {
      "midi": 48,
      "hit": false,
      "t": 72857.07000000017,
      "d": 410.7138750000013,
      "v": 95
    },
    {
      "midi": 60,
      "hit": false,
      "t": 72857.07000000017,
      "d": 410.7138750000013,
      "v": 79
    },
    {
      "midi": 63,
      "hit": false,
      "t": 72857.07000000017,
      "d": 410.7138750000013,
      "v": 79
    },
    {
      "midi": 67,
      "hit": false,
      "t": 72857.07000000017,
      "d": 410.7138750000013,
      "v": 79
    },
    {
      "midi": 36,
      "hit": false,
      "t": 73285.64100000016,
      "d": 410.7138750000013,
      "v": 95
    },
    {
      "midi": 48,
      "hit": false,
      "t": 73285.64100000016,
      "d": 410.7138750000013,
      "v": 95
    },
    {
      "midi": 60,
      "hit": false,
      "t": 73285.64100000016,
      "d": 410.7138750000013,
      "v": 79
    },
    {
      "midi": 63,
      "hit": false,
      "t": 73285.64100000016,
      "d": 410.7138750000013,
      "v": 79
    },
    {
      "midi": 67,
      "hit": false,
      "t": 73285.64100000016,
      "d": 410.7138750000013,
      "v": 79
    },
    {
      "midi": 60,
      "hit": false,
      "t": 73714.21200000016,
      "d": 196.42837500000314,
      "v": 79
    },
    {
      "midi": 63,
      "hit": false,
      "t": 73714.21200000016,
      "d": 196.42837500000314,
      "v": 79
    },
    {
      "midi": 67,
      "hit": false,
      "t": 73714.21200000016,
      "d": 196.42837500000314,
      "v": 79
    },
    {
      "midi": 31,
      "hit": false,
      "t": 73714.21200000016,
      "d": 410.7138750000013,
      "v": 95
    },
    {
      "midi": 43,
      "hit": false,
      "t": 73714.21200000016,
      "d": 410.7138750000013,
      "v": 95
    },
    {
      "midi": 60,
      "hit": false,
      "t": 74142.78300000016,
      "d": 196.42837500000314,
      "v": 79
    },
    {
      "midi": 63,
      "hit": false,
      "t": 74142.78300000016,
      "d": 196.42837500000314,
      "v": 79
    },
    {
      "midi": 67,
      "hit": false,
      "t": 74142.78300000016,
      "d": 196.42837500000314,
      "v": 79
    },
    {
      "midi": 31,
      "hit": false,
      "t": 74142.78300000016,
      "d": 410.7138750000013,
      "v": 95
    },
    {
      "midi": 43,
      "hit": false,
      "t": 74142.78300000016,
      "d": 410.7138750000013,
      "v": 95
    },
    {
      "midi": 60,
      "hit": false,
      "t": 74571.35400000015,
      "d": 196.42837500000314,
      "v": 79
    },
    {
      "midi": 63,
      "hit": false,
      "t": 74571.35400000015,
      "d": 196.42837500000314,
      "v": 79
    },
    {
      "midi": 67,
      "hit": false,
      "t": 74571.35400000015,
      "d": 196.42837500000314,
      "v": 79
    },
    {
      "midi": 27,
      "hit": false,
      "t": 74571.35400000015,
      "d": 410.7138750000013,
      "v": 95
    },
    {
      "midi": 39,
      "hit": false,
      "t": 74571.35400000015,
      "d": 410.7138750000013,
      "v": 95
    },
    {
      "midi": 60,
      "hit": false,
      "t": 74999.92500000015,
      "d": 196.42837500000314,
      "v": 79
    },
    {
      "midi": 63,
      "hit": false,
      "t": 74999.92500000015,
      "d": 196.42837500000314,
      "v": 79
    },
    {
      "midi": 67,
      "hit": false,
      "t": 74999.92500000015,
      "d": 196.42837500000314,
      "v": 79
    },
    {
      "midi": 27,
      "hit": false,
      "t": 74999.92500000015,
      "d": 410.7138750000013,
      "v": 95
    },
    {
      "midi": 39,
      "hit": false,
      "t": 74999.92500000015,
      "d": 410.7138750000013,
      "v": 95
    },
    {
      "midi": 29,
      "hit": false,
      "t": 75428.49600000014,
      "d": 410.7138750000013,
      "v": 95
    },
    {
      "midi": 41,
      "hit": false,
      "t": 75428.49600000014,
      "d": 410.7138750000013,
      "v": 95
    },
    {
      "midi": 56,
      "hit": false,
      "t": 75428.49600000014,
      "d": 410.7138750000013,
      "v": 79
    },
    {
      "midi": 60,
      "hit": false,
      "t": 75428.49600000014,
      "d": 410.7138750000013,
      "v": 79
    },
    {
      "midi": 65,
      "hit": false,
      "t": 75428.49600000014,
      "d": 410.7138750000013,
      "v": 79
    },
    {
      "midi": 29,
      "hit": false,
      "t": 75857.06700000014,
      "d": 410.7138750000013,
      "v": 95
    },
    {
      "midi": 41,
      "hit": false,
      "t": 75857.06700000014,
      "d": 410.7138750000013,
      "v": 95
    },
    {
      "midi": 56,
      "hit": false,
      "t": 75857.06700000014,
      "d": 410.7138750000013,
      "v": 79
    },
    {
      "midi": 60,
      "hit": false,
      "t": 75857.06700000014,
      "d": 410.7138750000013,
      "v": 79
    },
    {
      "midi": 65,
      "hit": false,
      "t": 75857.06700000014,
      "d": 410.7138750000013,
      "v": 79
    },
    {
      "midi": 32,
      "hit": false,
      "t": 76285.63800000014,
      "d": 410.7138750000013,
      "v": 95
    },
    {
      "midi": 44,
      "hit": false,
      "t": 76285.63800000014,
      "d": 410.7138750000013,
      "v": 95
    },
    {
      "midi": 56,
      "hit": false,
      "t": 76285.63800000014,
      "d": 410.7138750000013,
      "v": 79
    },
    {
      "midi": 60,
      "hit": false,
      "t": 76285.63800000014,
      "d": 410.7138750000013,
      "v": 79
    },
    {
      "midi": 65,
      "hit": false,
      "t": 76285.63800000014,
      "d": 410.7138750000013,
      "v": 79
    },
    {
      "midi": 32,
      "hit": false,
      "t": 76714.20900000013,
      "d": 410.7138750000013,
      "v": 95
    },
    {
      "midi": 44,
      "hit": false,
      "t": 76714.20900000013,
      "d": 410.7138750000013,
      "v": 95
    },
    {
      "midi": 56,
      "hit": false,
      "t": 76714.20900000013,
      "d": 410.7138750000013,
      "v": 79
    },
    {
      "midi": 60,
      "hit": false,
      "t": 76714.20900000013,
      "d": 410.7138750000013,
      "v": 79
    },
    {
      "midi": 65,
      "hit": false,
      "t": 76714.20900000013,
      "d": 410.7138750000013,
      "v": 79
    },
    {
      "midi": 56,
      "hit": false,
      "t": 77142.78000000013,
      "d": 196.42837500000314,
      "v": 79
    },
    {
      "midi": 60,
      "hit": false,
      "t": 77142.78000000013,
      "d": 196.42837500000314,
      "v": 79
    },
    {
      "midi": 65,
      "hit": false,
      "t": 77142.78000000013,
      "d": 196.42837500000314,
      "v": 79
    },
    {
      "midi": 36,
      "hit": false,
      "t": 77142.78000000013,
      "d": 410.7138750000013,
      "v": 95
    },
    {
      "midi": 48,
      "hit": false,
      "t": 77142.78000000013,
      "d": 410.7138750000013,
      "v": 95
    },
    {
      "midi": 56,
      "hit": false,
      "t": 77571.35100000013,
      "d": 196.42837500000314,
      "v": 79
    },
    {
      "midi": 60,
      "hit": false,
      "t": 77571.35100000013,
      "d": 196.42837500000314,
      "v": 79
    },
    {
      "midi": 65,
      "hit": false,
      "t": 77571.35100000013,
      "d": 196.42837500000314,
      "v": 79
    },
    {
      "midi": 36,
      "hit": false,
      "t": 77571.35100000013,
      "d": 410.7138750000013,
      "v": 95
    },
    {
      "midi": 48,
      "hit": false,
      "t": 77571.35100000013,
      "d": 410.7138750000013,
      "v": 95
    },
    {
      "midi": 56,
      "hit": false,
      "t": 77999.92200000012,
      "d": 196.42837500000314,
      "v": 79
    },
    {
      "midi": 60,
      "hit": false,
      "t": 77999.92200000012,
      "d": 196.42837500000314,
      "v": 79
    },
    {
      "midi": 65,
      "hit": false,
      "t": 77999.92200000012,
      "d": 196.42837500000314,
      "v": 79
    },
    {
      "midi": 41,
      "hit": false,
      "t": 77999.92200000012,
      "d": 410.7138750000013,
      "v": 95
    },
    {
      "midi": 53,
      "hit": false,
      "t": 77999.92200000012,
      "d": 410.7138750000013,
      "v": 95
    },
    {
      "midi": 56,
      "hit": false,
      "t": 78428.49300000012,
      "d": 196.42837500000314,
      "v": 79
    },
    {
      "midi": 60,
      "hit": false,
      "t": 78428.49300000012,
      "d": 196.42837500000314,
      "v": 79
    },
    {
      "midi": 65,
      "hit": false,
      "t": 78428.49300000012,
      "d": 196.42837500000314,
      "v": 79
    },
    {
      "midi": 41,
      "hit": false,
      "t": 78428.49300000012,
      "d": 410.7138750000013,
      "v": 95
    },
    {
      "midi": 53,
      "hit": false,
      "t": 78428.49300000012,
      "d": 410.7138750000013,
      "v": 95
    },
    {
      "midi": 39,
      "hit": false,
      "t": 78857.06400000011,
      "d": 410.7138750000013,
      "v": 95
    },
    {
      "midi": 51,
      "hit": false,
      "t": 78857.06400000011,
      "d": 410.7138750000013,
      "v": 95
    },
    {
      "midi": 60,
      "hit": false,
      "t": 78857.06400000011,
      "d": 410.7138750000013,
      "v": 79
    },
    {
      "midi": 63,
      "hit": false,
      "t": 78857.06400000011,
      "d": 410.7138750000013,
      "v": 79
    },
    {
      "midi": 67,
      "hit": false,
      "t": 78857.06400000011,
      "d": 410.7138750000013,
      "v": 79
    },
    {
      "midi": 39,
      "hit": false,
      "t": 79285.63500000011,
      "d": 410.7138750000013,
      "v": 95
    },
    {
      "midi": 51,
      "hit": false,
      "t": 79285.63500000011,
      "d": 410.7138750000013,
      "v": 95
    },
    {
      "midi": 60,
      "hit": false,
      "t": 79285.63500000011,
      "d": 410.7138750000013,
      "v": 79
    },
    {
      "midi": 63,
      "hit": false,
      "t": 79285.63500000011,
      "d": 410.7138750000013,
      "v": 79
    },
    {
      "midi": 67,
      "hit": false,
      "t": 79285.63500000011,
      "d": 410.7138750000013,
      "v": 79
    },
    {
      "midi": 36,
      "hit": false,
      "t": 79714.20600000011,
      "d": 410.7138750000013,
      "v": 95
    },
    {
      "midi": 48,
      "hit": false,
      "t": 79714.20600000011,
      "d": 410.7138750000013,
      "v": 95
    },
    {
      "midi": 60,
      "hit": false,
      "t": 79714.20600000011,
      "d": 410.7138750000013,
      "v": 79
    },
    {
      "midi": 63,
      "hit": false,
      "t": 79714.20600000011,
      "d": 410.7138750000013,
      "v": 79
    },
    {
      "midi": 67,
      "hit": false,
      "t": 79714.20600000011,
      "d": 410.7138750000013,
      "v": 79
    },
    {
      "midi": 36,
      "hit": false,
      "t": 80142.7770000001,
      "d": 410.7138750000013,
      "v": 95
    },
    {
      "midi": 48,
      "hit": false,
      "t": 80142.7770000001,
      "d": 410.7138750000013,
      "v": 95
    },
    {
      "midi": 60,
      "hit": false,
      "t": 80142.7770000001,
      "d": 410.7138750000013,
      "v": 79
    },
    {
      "midi": 63,
      "hit": false,
      "t": 80142.7770000001,
      "d": 410.7138750000013,
      "v": 79
    },
    {
      "midi": 67,
      "hit": false,
      "t": 80142.7770000001,
      "d": 410.7138750000013,
      "v": 79
    },
    {
      "midi": 60,
      "hit": false,
      "t": 80571.3480000001,
      "d": 196.42837500000314,
      "v": 79
    },
    {
      "midi": 63,
      "hit": false,
      "t": 80571.3480000001,
      "d": 196.42837500000314,
      "v": 79
    },
    {
      "midi": 67,
      "hit": false,
      "t": 80571.3480000001,
      "d": 196.42837500000314,
      "v": 79
    },
    {
      "midi": 31,
      "hit": false,
      "t": 80571.3480000001,
      "d": 410.7138750000013,
      "v": 95
    },
    {
      "midi": 43,
      "hit": false,
      "t": 80571.3480000001,
      "d": 410.7138750000013,
      "v": 95
    },
    {
      "midi": 60,
      "hit": false,
      "t": 80999.9190000001,
      "d": 196.42837500000314,
      "v": 79
    },
    {
      "midi": 63,
      "hit": false,
      "t": 80999.9190000001,
      "d": 196.42837500000314,
      "v": 79
    },
    {
      "midi": 67,
      "hit": false,
      "t": 80999.9190000001,
      "d": 196.42837500000314,
      "v": 79
    },
    {
      "midi": 31,
      "hit": false,
      "t": 80999.9190000001,
      "d": 410.7138750000013,
      "v": 95
    },
    {
      "midi": 43,
      "hit": false,
      "t": 80999.9190000001,
      "d": 410.7138750000013,
      "v": 95
    },
    {
      "midi": 60,
      "hit": false,
      "t": 81428.49000000009,
      "d": 196.42837500000314,
      "v": 79
    },
    {
      "midi": 63,
      "hit": false,
      "t": 81428.49000000009,
      "d": 196.42837500000314,
      "v": 79
    },
    {
      "midi": 67,
      "hit": false,
      "t": 81428.49000000009,
      "d": 196.42837500000314,
      "v": 79
    },
    {
      "midi": 27,
      "hit": false,
      "t": 81428.49000000009,
      "d": 410.7138750000013,
      "v": 95
    },
    {
      "midi": 39,
      "hit": false,
      "t": 81428.49000000009,
      "d": 410.7138750000013,
      "v": 95
    },
    {
      "midi": 60,
      "hit": false,
      "t": 81857.06100000009,
      "d": 196.42837500000314,
      "v": 79
    },
    {
      "midi": 63,
      "hit": false,
      "t": 81857.06100000009,
      "d": 196.42837500000314,
      "v": 79
    },
    {
      "midi": 67,
      "hit": false,
      "t": 81857.06100000009,
      "d": 196.42837500000314,
      "v": 79
    },
    {
      "midi": 27,
      "hit": false,
      "t": 81857.06100000009,
      "d": 410.7138750000013,
      "v": 95
    },
    {
      "midi": 39,
      "hit": false,
      "t": 81857.06100000009,
      "d": 410.7138750000013,
      "v": 95
    },
    {
      "midi": 29,
      "hit": false,
      "t": 82285.63200000009,
      "d": 410.7138750000013,
      "v": 95
    },
    {
      "midi": 41,
      "hit": false,
      "t": 82285.63200000009,
      "d": 410.7138750000013,
      "v": 95
    },
    {
      "midi": 56,
      "hit": false,
      "t": 82285.63200000009,
      "d": 410.7138750000013,
      "v": 79
    },
    {
      "midi": 60,
      "hit": false,
      "t": 82285.63200000009,
      "d": 410.7138750000013,
      "v": 79
    },
    {
      "midi": 65,
      "hit": false,
      "t": 82285.63200000009,
      "d": 410.7138750000013,
      "v": 79
    },
    {
      "midi": 29,
      "hit": false,
      "t": 82714.20300000008,
      "d": 410.7138750000013,
      "v": 95
    },
    {
      "midi": 41,
      "hit": false,
      "t": 82714.20300000008,
      "d": 410.7138750000013,
      "v": 95
    },
    {
      "midi": 56,
      "hit": false,
      "t": 82714.20300000008,
      "d": 410.7138750000013,
      "v": 79
    },
    {
      "midi": 60,
      "hit": false,
      "t": 82714.20300000008,
      "d": 410.7138750000013,
      "v": 79
    },
    {
      "midi": 65,
      "hit": false,
      "t": 82714.20300000008,
      "d": 410.7138750000013,
      "v": 79
    },
    {
      "midi": 32,
      "hit": false,
      "t": 83142.77400000008,
      "d": 410.7138750000013,
      "v": 95
    },
    {
      "midi": 44,
      "hit": false,
      "t": 83142.77400000008,
      "d": 410.7138750000013,
      "v": 95
    },
    {
      "midi": 56,
      "hit": false,
      "t": 83142.77400000008,
      "d": 410.7138750000013,
      "v": 79
    },
    {
      "midi": 60,
      "hit": false,
      "t": 83142.77400000008,
      "d": 410.7138750000013,
      "v": 79
    },
    {
      "midi": 65,
      "hit": false,
      "t": 83142.77400000008,
      "d": 410.7138750000013,
      "v": 79
    },
    {
      "midi": 32,
      "hit": false,
      "t": 83571.34500000007,
      "d": 410.7138750000013,
      "v": 95
    },
    {
      "midi": 44,
      "hit": false,
      "t": 83571.34500000007,
      "d": 410.7138750000013,
      "v": 95
    },
    {
      "midi": 56,
      "hit": false,
      "t": 83571.34500000007,
      "d": 410.7138750000013,
      "v": 79
    },
    {
      "midi": 60,
      "hit": false,
      "t": 83571.34500000007,
      "d": 410.7138750000013,
      "v": 79
    },
    {
      "midi": 65,
      "hit": false,
      "t": 83571.34500000007,
      "d": 410.7138750000013,
      "v": 79
    },
    {
      "midi": 56,
      "hit": false,
      "t": 83999.91600000007,
      "d": 196.42837500000314,
      "v": 79
    },
    {
      "midi": 60,
      "hit": false,
      "t": 83999.91600000007,
      "d": 196.42837500000314,
      "v": 79
    },
    {
      "midi": 65,
      "hit": false,
      "t": 83999.91600000007,
      "d": 196.42837500000314,
      "v": 79
    },
    {
      "midi": 36,
      "hit": false,
      "t": 83999.91600000007,
      "d": 410.7138750000013,
      "v": 95
    },
    {
      "midi": 48,
      "hit": false,
      "t": 83999.91600000007,
      "d": 410.7138750000013,
      "v": 95
    },
    {
      "midi": 56,
      "hit": false,
      "t": 84428.48700000007,
      "d": 196.42837500000314,
      "v": 79
    },
    {
      "midi": 60,
      "hit": false,
      "t": 84428.48700000007,
      "d": 196.42837500000314,
      "v": 79
    },
    {
      "midi": 65,
      "hit": false,
      "t": 84428.48700000007,
      "d": 196.42837500000314,
      "v": 79
    },
    {
      "midi": 36,
      "hit": false,
      "t": 84428.48700000007,
      "d": 410.7138750000013,
      "v": 95
    },
    {
      "midi": 48,
      "hit": false,
      "t": 84428.48700000007,
      "d": 410.7138750000013,
      "v": 95
    },
    {
      "midi": 56,
      "hit": false,
      "t": 84857.05800000006,
      "d": 196.42837500000314,
      "v": 79
    },
    {
      "midi": 60,
      "hit": false,
      "t": 84857.05800000006,
      "d": 196.42837500000314,
      "v": 79
    },
    {
      "midi": 65,
      "hit": false,
      "t": 84857.05800000006,
      "d": 196.42837500000314,
      "v": 79
    },
    {
      "midi": 41,
      "hit": false,
      "t": 84857.05800000006,
      "d": 410.7138750000013,
      "v": 95
    },
    {
      "midi": 53,
      "hit": false,
      "t": 84857.05800000006,
      "d": 410.7138750000013,
      "v": 95
    },
    {
      "midi": 56,
      "hit": false,
      "t": 85285.62900000006,
      "d": 196.42837500000314,
      "v": 79
    },
    {
      "midi": 60,
      "hit": false,
      "t": 85285.62900000006,
      "d": 196.42837500000314,
      "v": 79
    },
    {
      "midi": 65,
      "hit": false,
      "t": 85285.62900000006,
      "d": 196.42837500000314,
      "v": 79
    },
    {
      "midi": 41,
      "hit": false,
      "t": 85285.62900000006,
      "d": 410.7138750000013,
      "v": 95
    },
    {
      "midi": 53,
      "hit": false,
      "t": 85285.62900000006,
      "d": 410.7138750000013,
      "v": 95
    },
    {
      "midi": 39,
      "hit": false,
      "t": 85714.20000000006,
      "d": 410.7138750000013,
      "v": 95
    },
    {
      "midi": 51,
      "hit": false,
      "t": 85714.20000000006,
      "d": 410.7138750000013,
      "v": 95
    },
    {
      "midi": 60,
      "hit": false,
      "t": 85714.20000000006,
      "d": 410.7138750000013,
      "v": 79
    },
    {
      "midi": 63,
      "hit": false,
      "t": 85714.20000000006,
      "d": 410.7138750000013,
      "v": 79
    },
    {
      "midi": 67,
      "hit": false,
      "t": 85714.20000000006,
      "d": 410.7138750000013,
      "v": 79
    },
    {
      "midi": 39,
      "hit": false,
      "t": 86142.77100000005,
      "d": 410.7138750000013,
      "v": 95
    },
    {
      "midi": 51,
      "hit": false,
      "t": 86142.77100000005,
      "d": 410.7138750000013,
      "v": 95
    },
    {
      "midi": 60,
      "hit": false,
      "t": 86142.77100000005,
      "d": 410.7138750000013,
      "v": 79
    },
    {
      "midi": 63,
      "hit": false,
      "t": 86142.77100000005,
      "d": 410.7138750000013,
      "v": 79
    },
    {
      "midi": 67,
      "hit": false,
      "t": 86142.77100000005,
      "d": 410.7138750000013,
      "v": 79
    },
    {
      "midi": 36,
      "hit": false,
      "t": 86571.34200000005,
      "d": 410.7138750000013,
      "v": 95
    },
    {
      "midi": 48,
      "hit": false,
      "t": 86571.34200000005,
      "d": 410.7138750000013,
      "v": 95
    },
    {
      "midi": 60,
      "hit": false,
      "t": 86571.34200000005,
      "d": 410.7138750000013,
      "v": 79
    },
    {
      "midi": 63,
      "hit": false,
      "t": 86571.34200000005,
      "d": 410.7138750000013,
      "v": 79
    },
    {
      "midi": 67,
      "hit": false,
      "t": 86571.34200000005,
      "d": 410.7138750000013,
      "v": 79
    },
    {
      "midi": 36,
      "hit": false,
      "t": 86999.91300000004,
      "d": 410.7138750000013,
      "v": 95
    },
    {
      "midi": 48,
      "hit": false,
      "t": 86999.91300000004,
      "d": 410.7138750000013,
      "v": 95
    },
    {
      "midi": 60,
      "hit": false,
      "t": 86999.91300000004,
      "d": 410.7138750000013,
      "v": 79
    },
    {
      "midi": 63,
      "hit": false,
      "t": 86999.91300000004,
      "d": 410.7138750000013,
      "v": 79
    },
    {
      "midi": 67,
      "hit": false,
      "t": 86999.91300000004,
      "d": 410.7138750000013,
      "v": 79
    },
    {
      "midi": 60,
      "hit": false,
      "t": 87428.48400000004,
      "d": 196.42837500000314,
      "v": 79
    },
    {
      "midi": 63,
      "hit": false,
      "t": 87428.48400000004,
      "d": 196.42837500000314,
      "v": 79
    },
    {
      "midi": 67,
      "hit": false,
      "t": 87428.48400000004,
      "d": 196.42837500000314,
      "v": 79
    },
    {
      "midi": 31,
      "hit": false,
      "t": 87428.48400000004,
      "d": 410.7138750000013,
      "v": 95
    },
    {
      "midi": 43,
      "hit": false,
      "t": 87428.48400000004,
      "d": 410.7138750000013,
      "v": 95
    },
    {
      "midi": 60,
      "hit": false,
      "t": 87857.05500000004,
      "d": 196.42837500000314,
      "v": 79
    },
    {
      "midi": 63,
      "hit": false,
      "t": 87857.05500000004,
      "d": 196.42837500000314,
      "v": 79
    },
    {
      "midi": 67,
      "hit": false,
      "t": 87857.05500000004,
      "d": 196.42837500000314,
      "v": 79
    },
    {
      "midi": 31,
      "hit": false,
      "t": 87857.05500000004,
      "d": 410.7138750000013,
      "v": 95
    },
    {
      "midi": 43,
      "hit": false,
      "t": 87857.05500000004,
      "d": 410.7138750000013,
      "v": 95
    },
    {
      "midi": 60,
      "hit": false,
      "t": 88285.62600000003,
      "d": 196.42837500000314,
      "v": 79
    },
    {
      "midi": 63,
      "hit": false,
      "t": 88285.62600000003,
      "d": 196.42837500000314,
      "v": 79
    },
    {
      "midi": 67,
      "hit": false,
      "t": 88285.62600000003,
      "d": 196.42837500000314,
      "v": 79
    },
    {
      "midi": 27,
      "hit": false,
      "t": 88285.62600000003,
      "d": 410.7138750000013,
      "v": 95
    },
    {
      "midi": 39,
      "hit": false,
      "t": 88285.62600000003,
      "d": 410.7138750000013,
      "v": 95
    },
    {
      "midi": 60,
      "hit": false,
      "t": 88714.19700000003,
      "d": 196.42837500000314,
      "v": 79
    },
    {
      "midi": 63,
      "hit": false,
      "t": 88714.19700000003,
      "d": 196.42837500000314,
      "v": 79
    },
    {
      "midi": 67,
      "hit": false,
      "t": 88714.19700000003,
      "d": 196.42837500000314,
      "v": 79
    },
    {
      "midi": 27,
      "hit": false,
      "t": 88714.19700000003,
      "d": 410.7138750000013,
      "v": 95
    },
    {
      "midi": 39,
      "hit": false,
      "t": 88714.19700000003,
      "d": 410.7138750000013,
      "v": 95
    },
    {
      "midi": 62,
      "hit": false,
      "t": 89142.76800000003,
      "d": 196.42837500000314,
      "v": 79
    },
    {
      "midi": 66,
      "hit": false,
      "t": 89142.76800000003,
      "d": 196.42837500000314,
      "v": 79
    },
    {
      "midi": 69,
      "hit": false,
      "t": 89142.76800000003,
      "d": 196.42837500000314,
      "v": 79
    },
    {
      "midi": 26,
      "hit": false,
      "t": 89142.76800000003,
      "d": 410.7138750000013,
      "v": 95
    },
    {
      "midi": 38,
      "hit": false,
      "t": 89142.76800000003,
      "d": 410.7138750000013,
      "v": 95
    },
    {
      "midi": 62,
      "hit": false,
      "t": 89571.33900000002,
      "d": 196.42837500000314,
      "v": 79
    },
    {
      "midi": 66,
      "hit": false,
      "t": 89571.33900000002,
      "d": 196.42837500000314,
      "v": 79
    },
    {
      "midi": 69,
      "hit": false,
      "t": 89571.33900000002,
      "d": 196.42837500000314,
      "v": 79
    },
    {
      "midi": 26,
      "hit": false,
      "t": 89571.33900000002,
      "d": 410.7138750000013,
      "v": 95
    },
    {
      "midi": 38,
      "hit": false,
      "t": 89571.33900000002,
      "d": 410.7138750000013,
      "v": 95
    },
    {
      "midi": 62,
      "hit": false,
      "t": 89999.91000000002,
      "d": 196.42837500000314,
      "v": 79
    },
    {
      "midi": 66,
      "hit": false,
      "t": 89999.91000000002,
      "d": 196.42837500000314,
      "v": 79
    },
    {
      "midi": 69,
      "hit": false,
      "t": 89999.91000000002,
      "d": 196.42837500000314,
      "v": 79
    },
    {
      "midi": 33,
      "hit": false,
      "t": 89999.91000000002,
      "d": 410.7138750000013,
      "v": 95
    },
    {
      "midi": 45,
      "hit": false,
      "t": 89999.91000000002,
      "d": 410.7138750000013,
      "v": 95
    },
    {
      "midi": 62,
      "hit": false,
      "t": 90428.48100000001,
      "d": 196.42837500000314,
      "v": 79
    },
    {
      "midi": 66,
      "hit": false,
      "t": 90428.48100000001,
      "d": 196.42837500000314,
      "v": 79
    },
    {
      "midi": 69,
      "hit": false,
      "t": 90428.48100000001,
      "d": 196.42837500000314,
      "v": 79
    },
    {
      "midi": 33,
      "hit": false,
      "t": 90428.48100000001,
      "d": 410.7138750000013,
      "v": 95
    },
    {
      "midi": 45,
      "hit": false,
      "t": 90428.48100000001,
      "d": 410.7138750000013,
      "v": 95
    },
    {
      "midi": 62,
      "hit": false,
      "t": 90857.05200000001,
      "d": 196.42837500000314,
      "v": 79
    },
    {
      "midi": 66,
      "hit": false,
      "t": 90857.05200000001,
      "d": 196.42837500000314,
      "v": 79
    },
    {
      "midi": 69,
      "hit": false,
      "t": 90857.05200000001,
      "d": 196.42837500000314,
      "v": 79
    },
    {
      "midi": 38,
      "hit": false,
      "t": 90857.05200000001,
      "d": 410.7138750000013,
      "v": 95
    },
    {
      "midi": 50,
      "hit": false,
      "t": 90857.05200000001,
      "d": 410.7138750000013,
      "v": 95
    },
    {
      "midi": 62,
      "hit": false,
      "t": 91285.623,
      "d": 196.42837500000314,
      "v": 79
    },
    {
      "midi": 66,
      "hit": false,
      "t": 91285.623,
      "d": 196.42837500000314,
      "v": 79
    },
    {
      "midi": 69,
      "hit": false,
      "t": 91285.623,
      "d": 196.42837500000314,
      "v": 79
    },
    {
      "midi": 38,
      "hit": false,
      "t": 91285.623,
      "d": 410.7138750000013,
      "v": 95
    },
    {
      "midi": 50,
      "hit": false,
      "t": 91285.623,
      "d": 410.7138750000013,
      "v": 95
    },
    {
      "midi": 62,
      "hit": false,
      "t": 91714.194,
      "d": 196.42837500000314,
      "v": 79
    },
    {
      "midi": 66,
      "hit": false,
      "t": 91714.194,
      "d": 196.42837500000314,
      "v": 79
    },
    {
      "midi": 69,
      "hit": false,
      "t": 91714.194,
      "d": 196.42837500000314,
      "v": 79
    },
    {
      "midi": 45,
      "hit": false,
      "t": 91714.194,
      "d": 410.7138750000013,
      "v": 95
    },
    {
      "midi": 57,
      "hit": false,
      "t": 91714.194,
      "d": 410.7138750000013,
      "v": 95
    },
    {
      "midi": 62,
      "hit": false,
      "t": 92142.765,
      "d": 196.42837500000314,
      "v": 79
    },
    {
      "midi": 66,
      "hit": false,
      "t": 92142.765,
      "d": 196.42837500000314,
      "v": 79
    },
    {
      "midi": 69,
      "hit": false,
      "t": 92142.765,
      "d": 196.42837500000314,
      "v": 79
    },
    {
      "midi": 45,
      "hit": false,
      "t": 92142.765,
      "d": 410.7138750000013,
      "v": 95
    },
    {
      "midi": 57,
      "hit": false,
      "t": 92142.765,
      "d": 410.7138750000013,
      "v": 95
    },
    {
      "midi": 62,
      "hit": false,
      "t": 92571.336,
      "d": 196.42837500000314,
      "v": 79
    },
    {
      "midi": 67,
      "hit": false,
      "t": 92571.336,
      "d": 196.42837500000314,
      "v": 79
    },
    {
      "midi": 70,
      "hit": false,
      "t": 92571.336,
      "d": 196.42837500000314,
      "v": 79
    },
    {
      "midi": 46,
      "hit": false,
      "t": 92571.336,
      "d": 410.7138750000013,
      "v": 95
    },
    {
      "midi": 58,
      "hit": false,
      "t": 92571.336,
      "d": 410.7138750000013,
      "v": 95
    },
    {
      "midi": 62,
      "hit": false,
      "t": 92999.90699999999,
      "d": 196.42837500000314,
      "v": 79
    },
    {
      "midi": 67,
      "hit": false,
      "t": 92999.90699999999,
      "d": 196.42837500000314,
      "v": 79
    },
    {
      "midi": 70,
      "hit": false,
      "t": 92999.90699999999,
      "d": 196.42837500000314,
      "v": 79
    },
    {
      "midi": 46,
      "hit": false,
      "t": 92999.90699999999,
      "d": 410.7138750000013,
      "v": 95
    },
    {
      "midi": 58,
      "hit": false,
      "t": 92999.90699999999,
      "d": 410.7138750000013,
      "v": 95
    },
    {
      "midi": 62,
      "hit": false,
      "t": 93428.47799999999,
      "d": 196.42837500000314,
      "v": 79
    },
    {
      "midi": 67,
      "hit": false,
      "t": 93428.47799999999,
      "d": 196.42837500000314,
      "v": 79
    },
    {
      "midi": 70,
      "hit": false,
      "t": 93428.47799999999,
      "d": 196.42837500000314,
      "v": 79
    },
    {
      "midi": 43,
      "hit": false,
      "t": 93428.47799999999,
      "d": 410.7138750000013,
      "v": 95
    },
    {
      "midi": 55,
      "hit": false,
      "t": 93428.47799999999,
      "d": 410.7138750000013,
      "v": 95
    },
    {
      "midi": 62,
      "hit": false,
      "t": 93857.04899999998,
      "d": 196.42837500000314,
      "v": 79
    },
    {
      "midi": 67,
      "hit": false,
      "t": 93857.04899999998,
      "d": 196.42837500000314,
      "v": 79
    },
    {
      "midi": 70,
      "hit": false,
      "t": 93857.04899999998,
      "d": 196.42837500000314,
      "v": 79
    },
    {
      "midi": 43,
      "hit": false,
      "t": 93857.04899999998,
      "d": 410.7138750000013,
      "v": 95
    },
    {
      "midi": 55,
      "hit": false,
      "t": 93857.04899999998,
      "d": 410.7138750000013,
      "v": 95
    },
    {
      "midi": 62,
      "hit": false,
      "t": 94285.61999999998,
      "d": 196.42837500000314,
      "v": 79
    },
    {
      "midi": 67,
      "hit": false,
      "t": 94285.61999999998,
      "d": 196.42837500000314,
      "v": 79
    },
    {
      "midi": 70,
      "hit": false,
      "t": 94285.61999999998,
      "d": 196.42837500000314,
      "v": 79
    },
    {
      "midi": 38,
      "hit": false,
      "t": 94285.61999999998,
      "d": 410.7138750000013,
      "v": 95
    },
    {
      "midi": 50,
      "hit": false,
      "t": 94285.61999999998,
      "d": 410.7138750000013,
      "v": 95
    },
    {
      "midi": 62,
      "hit": false,
      "t": 94714.19099999998,
      "d": 196.42837500000314,
      "v": 79
    },
    {
      "midi": 67,
      "hit": false,
      "t": 94714.19099999998,
      "d": 196.42837500000314,
      "v": 79
    },
    {
      "midi": 70,
      "hit": false,
      "t": 94714.19099999998,
      "d": 196.42837500000314,
      "v": 79
    },
    {
      "midi": 38,
      "hit": false,
      "t": 94714.19099999998,
      "d": 410.7138750000013,
      "v": 95
    },
    {
      "midi": 50,
      "hit": false,
      "t": 94714.19099999998,
      "d": 410.7138750000013,
      "v": 95
    },
    {
      "midi": 62,
      "hit": false,
      "t": 95142.76199999997,
      "d": 196.42837500000314,
      "v": 79
    },
    {
      "midi": 67,
      "hit": false,
      "t": 95142.76199999997,
      "d": 196.42837500000314,
      "v": 79
    },
    {
      "midi": 70,
      "hit": false,
      "t": 95142.76199999997,
      "d": 196.42837500000314,
      "v": 79
    },
    {
      "midi": 34,
      "hit": false,
      "t": 95142.76199999997,
      "d": 410.7138750000013,
      "v": 95
    },
    {
      "midi": 46,
      "hit": false,
      "t": 95142.76199999997,
      "d": 410.7138750000013,
      "v": 95
    },
    {
      "midi": 62,
      "hit": false,
      "t": 95571.33299999997,
      "d": 196.42837500000314,
      "v": 79
    },
    {
      "midi": 67,
      "hit": false,
      "t": 95571.33299999997,
      "d": 196.42837500000314,
      "v": 79
    },
    {
      "midi": 70,
      "hit": false,
      "t": 95571.33299999997,
      "d": 196.42837500000314,
      "v": 79
    },
    {
      "midi": 34,
      "hit": false,
      "t": 95571.33299999997,
      "d": 410.7138750000013,
      "v": 95
    },
    {
      "midi": 46,
      "hit": false,
      "t": 95571.33299999997,
      "d": 410.7138750000013,
      "v": 95
    },
    {
      "midi": 63,
      "hit": false,
      "t": 95999.90399999997,
      "d": 196.42837500000314,
      "v": 79
    },
    {
      "midi": 67,
      "hit": false,
      "t": 95999.90399999997,
      "d": 196.42837500000314,
      "v": 79
    },
    {
      "midi": 70,
      "hit": false,
      "t": 95999.90399999997,
      "d": 196.42837500000314,
      "v": 79
    },
    {
      "midi": 27,
      "hit": false,
      "t": 95999.90399999997,
      "d": 410.7138750000013,
      "v": 95
    },
    {
      "midi": 39,
      "hit": false,
      "t": 95999.90399999997,
      "d": 410.7138750000013,
      "v": 95
    },
    {
      "midi": 63,
      "hit": false,
      "t": 96428.47499999996,
      "d": 196.42837500000314,
      "v": 79
    },
    {
      "midi": 67,
      "hit": false,
      "t": 96428.47499999996,
      "d": 196.42837500000314,
      "v": 79
    },
    {
      "midi": 70,
      "hit": false,
      "t": 96428.47499999996,
      "d": 196.42837500000314,
      "v": 79
    },
    {
      "midi": 27,
      "hit": false,
      "t": 96428.47499999996,
      "d": 410.7138750000013,
      "v": 95
    },
    {
      "midi": 39,
      "hit": false,
      "t": 96428.47499999996,
      "d": 410.7138750000013,
      "v": 95
    },
    {
      "midi": 63,
      "hit": false,
      "t": 96857.04599999996,
      "d": 196.42837500000314,
      "v": 79
    },
    {
      "midi": 67,
      "hit": false,
      "t": 96857.04599999996,
      "d": 196.42837500000314,
      "v": 79
    },
    {
      "midi": 70,
      "hit": false,
      "t": 96857.04599999996,
      "d": 196.42837500000314,
      "v": 79
    },
    {
      "midi": 34,
      "hit": false,
      "t": 96857.04599999996,
      "d": 410.7138750000013,
      "v": 95
    },
    {
      "midi": 46,
      "hit": false,
      "t": 96857.04599999996,
      "d": 410.7138750000013,
      "v": 95
    },
    {
      "midi": 63,
      "hit": false,
      "t": 97285.61699999995,
      "d": 196.42837500000314,
      "v": 79
    },
    {
      "midi": 67,
      "hit": false,
      "t": 97285.61699999995,
      "d": 196.42837500000314,
      "v": 79
    },
    {
      "midi": 70,
      "hit": false,
      "t": 97285.61699999995,
      "d": 196.42837500000314,
      "v": 79
    },
    {
      "midi": 34,
      "hit": false,
      "t": 97285.61699999995,
      "d": 410.7138750000013,
      "v": 95
    },
    {
      "midi": 46,
      "hit": false,
      "t": 97285.61699999995,
      "d": 410.7138750000013,
      "v": 95
    },
    {
      "midi": 63,
      "hit": false,
      "t": 97714.18799999995,
      "d": 196.42837500000314,
      "v": 79
    },
    {
      "midi": 67,
      "hit": false,
      "t": 97714.18799999995,
      "d": 196.42837500000314,
      "v": 79
    },
    {
      "midi": 70,
      "hit": false,
      "t": 97714.18799999995,
      "d": 196.42837500000314,
      "v": 79
    },
    {
      "midi": 39,
      "hit": false,
      "t": 97714.18799999995,
      "d": 410.7138750000013,
      "v": 95
    },
    {
      "midi": 51,
      "hit": false,
      "t": 97714.18799999995,
      "d": 410.7138750000013,
      "v": 95
    },
    {
      "midi": 63,
      "hit": false,
      "t": 98142.75899999995,
      "d": 196.42837500000314,
      "v": 79
    },
    {
      "midi": 67,
      "hit": false,
      "t": 98142.75899999995,
      "d": 196.42837500000314,
      "v": 79
    },
    {
      "midi": 70,
      "hit": false,
      "t": 98142.75899999995,
      "d": 196.42837500000314,
      "v": 79
    },
    {
      "midi": 39,
      "hit": false,
      "t": 98142.75899999995,
      "d": 410.7138750000013,
      "v": 95
    },
    {
      "midi": 51,
      "hit": false,
      "t": 98142.75899999995,
      "d": 410.7138750000013,
      "v": 95
    },
    {
      "midi": 63,
      "hit": false,
      "t": 98571.32999999994,
      "d": 196.42837500000314,
      "v": 79
    },
    {
      "midi": 67,
      "hit": false,
      "t": 98571.32999999994,
      "d": 196.42837500000314,
      "v": 79
    },
    {
      "midi": 70,
      "hit": false,
      "t": 98571.32999999994,
      "d": 196.42837500000314,
      "v": 79
    },
    {
      "midi": 46,
      "hit": false,
      "t": 98571.32999999994,
      "d": 410.7138750000013,
      "v": 95
    },
    {
      "midi": 58,
      "hit": false,
      "t": 98571.32999999994,
      "d": 410.7138750000013,
      "v": 95
    },
    {
      "midi": 63,
      "hit": false,
      "t": 98999.90099999994,
      "d": 196.42837500000314,
      "v": 79
    },
    {
      "midi": 67,
      "hit": false,
      "t": 98999.90099999994,
      "d": 196.42837500000314,
      "v": 79
    },
    {
      "midi": 70,
      "hit": false,
      "t": 98999.90099999994,
      "d": 196.42837500000314,
      "v": 79
    },
    {
      "midi": 46,
      "hit": false,
      "t": 98999.90099999994,
      "d": 410.7138750000013,
      "v": 95
    },
    {
      "midi": 58,
      "hit": false,
      "t": 98999.90099999994,
      "d": 410.7138750000013,
      "v": 95
    },
    {
      "midi": 62,
      "hit": false,
      "t": 99428.47199999994,
      "d": 196.42837500000314,
      "v": 79
    },
    {
      "midi": 65,
      "hit": false,
      "t": 99428.47199999994,
      "d": 196.42837500000314,
      "v": 79
    },
    {
      "midi": 70,
      "hit": false,
      "t": 99428.47199999994,
      "d": 196.42837500000314,
      "v": 79
    },
    {
      "midi": 46,
      "hit": false,
      "t": 99428.47199999994,
      "d": 410.7138750000013,
      "v": 95
    },
    {
      "midi": 58,
      "hit": false,
      "t": 99428.47199999994,
      "d": 410.7138750000013,
      "v": 95
    },
    {
      "midi": 62,
      "hit": false,
      "t": 99857.04299999993,
      "d": 196.42837500000314,
      "v": 79
    },
    {
      "midi": 65,
      "hit": false,
      "t": 99857.04299999993,
      "d": 196.42837500000314,
      "v": 79
    },
    {
      "midi": 70,
      "hit": false,
      "t": 99857.04299999993,
      "d": 196.42837500000314,
      "v": 79
    },
    {
      "midi": 46,
      "hit": false,
      "t": 99857.04299999993,
      "d": 410.7138750000013,
      "v": 95
    },
    {
      "midi": 58,
      "hit": false,
      "t": 99857.04299999993,
      "d": 410.7138750000013,
      "v": 95
    },
    {
      "midi": 62,
      "hit": false,
      "t": 100285.61399999993,
      "d": 196.42837500000314,
      "v": 79
    },
    {
      "midi": 65,
      "hit": false,
      "t": 100285.61399999993,
      "d": 196.42837500000314,
      "v": 79
    },
    {
      "midi": 70,
      "hit": false,
      "t": 100285.61399999993,
      "d": 196.42837500000314,
      "v": 79
    },
    {
      "midi": 41,
      "hit": false,
      "t": 100285.61399999993,
      "d": 410.7138750000013,
      "v": 95
    },
    {
      "midi": 53,
      "hit": false,
      "t": 100285.61399999993,
      "d": 410.7138750000013,
      "v": 95
    },
    {
      "midi": 62,
      "hit": false,
      "t": 100714.18499999992,
      "d": 196.42837500000314,
      "v": 79
    },
    {
      "midi": 65,
      "hit": false,
      "t": 100714.18499999992,
      "d": 196.42837500000314,
      "v": 79
    },
    {
      "midi": 70,
      "hit": false,
      "t": 100714.18499999992,
      "d": 196.42837500000314,
      "v": 79
    },
    {
      "midi": 41,
      "hit": false,
      "t": 100714.18499999992,
      "d": 410.7138750000013,
      "v": 95
    },
    {
      "midi": 53,
      "hit": false,
      "t": 100714.18499999992,
      "d": 410.7138750000013,
      "v": 95
    },
    {
      "midi": 62,
      "hit": false,
      "t": 101142.75599999992,
      "d": 196.42837500000314,
      "v": 79
    },
    {
      "midi": 65,
      "hit": false,
      "t": 101142.75599999992,
      "d": 196.42837500000314,
      "v": 79
    },
    {
      "midi": 70,
      "hit": false,
      "t": 101142.75599999992,
      "d": 196.42837500000314,
      "v": 79
    },
    {
      "midi": 38,
      "hit": false,
      "t": 101142.75599999992,
      "d": 410.7138750000013,
      "v": 95
    },
    {
      "midi": 50,
      "hit": false,
      "t": 101142.75599999992,
      "d": 410.7138750000013,
      "v": 95
    },
    {
      "midi": 62,
      "hit": false,
      "t": 101571.32699999992,
      "d": 196.42837500000314,
      "v": 79
    },
    {
      "midi": 65,
      "hit": false,
      "t": 101571.32699999992,
      "d": 196.42837500000314,
      "v": 79
    },
    {
      "midi": 70,
      "hit": false,
      "t": 101571.32699999992,
      "d": 196.42837500000314,
      "v": 79
    },
    {
      "midi": 38,
      "hit": false,
      "t": 101571.32699999992,
      "d": 410.7138750000013,
      "v": 95
    },
    {
      "midi": 50,
      "hit": false,
      "t": 101571.32699999992,
      "d": 410.7138750000013,
      "v": 95
    },
    {
      "midi": 62,
      "hit": false,
      "t": 101999.89799999991,
      "d": 196.42837500000314,
      "v": 79
    },
    {
      "midi": 65,
      "hit": false,
      "t": 101999.89799999991,
      "d": 196.42837500000314,
      "v": 79
    },
    {
      "midi": 70,
      "hit": false,
      "t": 101999.89799999991,
      "d": 196.42837500000314,
      "v": 79
    },
    {
      "midi": 34,
      "hit": false,
      "t": 101999.89799999991,
      "d": 410.7138750000013,
      "v": 95
    },
    {
      "midi": 46,
      "hit": false,
      "t": 101999.89799999991,
      "d": 410.7138750000013,
      "v": 95
    },
    {
      "midi": 62,
      "hit": false,
      "t": 102428.46899999991,
      "d": 196.42837500000314,
      "v": 79
    },
    {
      "midi": 65,
      "hit": false,
      "t": 102428.46899999991,
      "d": 196.42837500000314,
      "v": 79
    },
    {
      "midi": 70,
      "hit": false,
      "t": 102428.46899999991,
      "d": 196.42837500000314,
      "v": 79
    },
    {
      "midi": 34,
      "hit": false,
      "t": 102428.46899999991,
      "d": 410.7138750000013,
      "v": 95
    },
    {
      "midi": 46,
      "hit": false,
      "t": 102428.46899999991,
      "d": 410.7138750000013,
      "v": 95
    },
    {
      "midi": 62,
      "hit": false,
      "t": 102857.0399999999,
      "d": 196.42837500000314,
      "v": 79
    },
    {
      "midi": 66,
      "hit": false,
      "t": 102857.0399999999,
      "d": 196.42837500000314,
      "v": 79
    },
    {
      "midi": 69,
      "hit": false,
      "t": 102857.0399999999,
      "d": 196.42837500000314,
      "v": 79
    },
    {
      "midi": 26,
      "hit": false,
      "t": 102857.0399999999,
      "d": 410.7138750000013,
      "v": 95
    },
    {
      "midi": 38,
      "hit": false,
      "t": 102857.0399999999,
      "d": 410.7138750000013,
      "v": 95
    },
    {
      "midi": 62,
      "hit": false,
      "t": 103285.6109999999,
      "d": 196.42837500000314,
      "v": 79
    },
    {
      "midi": 66,
      "hit": false,
      "t": 103285.6109999999,
      "d": 196.42837500000314,
      "v": 79
    },
    {
      "midi": 69,
      "hit": false,
      "t": 103285.6109999999,
      "d": 196.42837500000314,
      "v": 79
    },
    {
      "midi": 26,
      "hit": false,
      "t": 103285.6109999999,
      "d": 410.7138750000013,
      "v": 95
    },
    {
      "midi": 38,
      "hit": false,
      "t": 103285.6109999999,
      "d": 410.7138750000013,
      "v": 95
    },
    {
      "midi": 62,
      "hit": false,
      "t": 103714.1819999999,
      "d": 196.42837500000314,
      "v": 79
    },
    {
      "midi": 66,
      "hit": false,
      "t": 103714.1819999999,
      "d": 196.42837500000314,
      "v": 79
    },
    {
      "midi": 69,
      "hit": false,
      "t": 103714.1819999999,
      "d": 196.42837500000314,
      "v": 79
    },
    {
      "midi": 33,
      "hit": false,
      "t": 103714.1819999999,
      "d": 410.7138750000013,
      "v": 95
    },
    {
      "midi": 45,
      "hit": false,
      "t": 103714.1819999999,
      "d": 410.7138750000013,
      "v": 95
    },
    {
      "midi": 62,
      "hit": false,
      "t": 104142.7529999999,
      "d": 196.42837500000314,
      "v": 79
    },
    {
      "midi": 66,
      "hit": false,
      "t": 104142.7529999999,
      "d": 196.42837500000314,
      "v": 79
    },
    {
      "midi": 69,
      "hit": false,
      "t": 104142.7529999999,
      "d": 196.42837500000314,
      "v": 79
    },
    {
      "midi": 33,
      "hit": false,
      "t": 104142.7529999999,
      "d": 410.7138750000013,
      "v": 95
    },
    {
      "midi": 45,
      "hit": false,
      "t": 104142.7529999999,
      "d": 410.7138750000013,
      "v": 95
    },
    {
      "midi": 62,
      "hit": false,
      "t": 104571.32399999989,
      "d": 196.42837500000314,
      "v": 79
    },
    {
      "midi": 66,
      "hit": false,
      "t": 104571.32399999989,
      "d": 196.42837500000314,
      "v": 79
    },
    {
      "midi": 69,
      "hit": false,
      "t": 104571.32399999989,
      "d": 196.42837500000314,
      "v": 79
    },
    {
      "midi": 38,
      "hit": false,
      "t": 104571.32399999989,
      "d": 410.7138750000013,
      "v": 95
    },
    {
      "midi": 50,
      "hit": false,
      "t": 104571.32399999989,
      "d": 410.7138750000013,
      "v": 95
    },
    {
      "midi": 62,
      "hit": false,
      "t": 104999.89499999989,
      "d": 196.42837500000314,
      "v": 79
    },
    {
      "midi": 66,
      "hit": false,
      "t": 104999.89499999989,
      "d": 196.42837500000314,
      "v": 79
    },
    {
      "midi": 69,
      "hit": false,
      "t": 104999.89499999989,
      "d": 196.42837500000314,
      "v": 79
    },
    {
      "midi": 38,
      "hit": false,
      "t": 104999.89499999989,
      "d": 410.7138750000013,
      "v": 95
    },
    {
      "midi": 50,
      "hit": false,
      "t": 104999.89499999989,
      "d": 410.7138750000013,
      "v": 95
    },
    {
      "midi": 62,
      "hit": false,
      "t": 105428.46599999988,
      "d": 196.42837500000314,
      "v": 79
    },
    {
      "midi": 66,
      "hit": false,
      "t": 105428.46599999988,
      "d": 196.42837500000314,
      "v": 79
    },
    {
      "midi": 69,
      "hit": false,
      "t": 105428.46599999988,
      "d": 196.42837500000314,
      "v": 79
    },
    {
      "midi": 45,
      "hit": false,
      "t": 105428.46599999988,
      "d": 410.7138750000013,
      "v": 95
    },
    {
      "midi": 57,
      "hit": false,
      "t": 105428.46599999988,
      "d": 410.7138750000013,
      "v": 95
    },
    {
      "midi": 62,
      "hit": false,
      "t": 105857.03699999988,
      "d": 196.42837500000314,
      "v": 79
    },
    {
      "midi": 66,
      "hit": false,
      "t": 105857.03699999988,
      "d": 196.42837500000314,
      "v": 79
    },
    {
      "midi": 69,
      "hit": false,
      "t": 105857.03699999988,
      "d": 196.42837500000314,
      "v": 79
    },
    {
      "midi": 45,
      "hit": false,
      "t": 105857.03699999988,
      "d": 410.7138750000013,
      "v": 95
    },
    {
      "midi": 57,
      "hit": false,
      "t": 105857.03699999988,
      "d": 410.7138750000013,
      "v": 95
    },
    {
      "midi": 62,
      "hit": false,
      "t": 106285.60799999988,
      "d": 196.42837500000314,
      "v": 79
    },
    {
      "midi": 67,
      "hit": false,
      "t": 106285.60799999988,
      "d": 196.42837500000314,
      "v": 79
    },
    {
      "midi": 70,
      "hit": false,
      "t": 106285.60799999988,
      "d": 196.42837500000314,
      "v": 79
    },
    {
      "midi": 46,
      "hit": false,
      "t": 106285.60799999988,
      "d": 410.7138750000013,
      "v": 95
    },
    {
      "midi": 58,
      "hit": false,
      "t": 106285.60799999988,
      "d": 410.7138750000013,
      "v": 95
    },
    {
      "midi": 62,
      "hit": false,
      "t": 106714.17899999987,
      "d": 196.42837500000314,
      "v": 79
    },
    {
      "midi": 67,
      "hit": false,
      "t": 106714.17899999987,
      "d": 196.42837500000314,
      "v": 79
    },
    {
      "midi": 70,
      "hit": false,
      "t": 106714.17899999987,
      "d": 196.42837500000314,
      "v": 79
    },
    {
      "midi": 46,
      "hit": false,
      "t": 106714.17899999987,
      "d": 410.7138750000013,
      "v": 95
    },
    {
      "midi": 58,
      "hit": false,
      "t": 106714.17899999987,
      "d": 410.7138750000013,
      "v": 95
    },
    {
      "midi": 62,
      "hit": false,
      "t": 107142.74999999987,
      "d": 196.42837500000314,
      "v": 79
    },
    {
      "midi": 67,
      "hit": false,
      "t": 107142.74999999987,
      "d": 196.42837500000314,
      "v": 79
    },
    {
      "midi": 70,
      "hit": false,
      "t": 107142.74999999987,
      "d": 196.42837500000314,
      "v": 79
    },
    {
      "midi": 43,
      "hit": false,
      "t": 107142.74999999987,
      "d": 410.7138750000013,
      "v": 95
    },
    {
      "midi": 55,
      "hit": false,
      "t": 107142.74999999987,
      "d": 410.7138750000013,
      "v": 95
    },
    {
      "midi": 62,
      "hit": false,
      "t": 107571.32099999987,
      "d": 196.42837500000314,
      "v": 79
    },
    {
      "midi": 67,
      "hit": false,
      "t": 107571.32099999987,
      "d": 196.42837500000314,
      "v": 79
    },
    {
      "midi": 70,
      "hit": false,
      "t": 107571.32099999987,
      "d": 196.42837500000314,
      "v": 79
    },
    {
      "midi": 43,
      "hit": false,
      "t": 107571.32099999987,
      "d": 410.7138750000013,
      "v": 95
    },
    {
      "midi": 55,
      "hit": false,
      "t": 107571.32099999987,
      "d": 410.7138750000013,
      "v": 95
    },
    {
      "midi": 62,
      "hit": false,
      "t": 107999.89199999986,
      "d": 196.42837500000314,
      "v": 79
    },
    {
      "midi": 67,
      "hit": false,
      "t": 107999.89199999986,
      "d": 196.42837500000314,
      "v": 79
    },
    {
      "midi": 70,
      "hit": false,
      "t": 107999.89199999986,
      "d": 196.42837500000314,
      "v": 79
    },
    {
      "midi": 38,
      "hit": false,
      "t": 107999.89199999986,
      "d": 410.7138750000013,
      "v": 95
    },
    {
      "midi": 50,
      "hit": false,
      "t": 107999.89199999986,
      "d": 410.7138750000013,
      "v": 95
    },
    {
      "midi": 62,
      "hit": false,
      "t": 108428.46299999986,
      "d": 196.42837500000314,
      "v": 79
    },
    {
      "midi": 67,
      "hit": false,
      "t": 108428.46299999986,
      "d": 196.42837500000314,
      "v": 79
    },
    {
      "midi": 70,
      "hit": false,
      "t": 108428.46299999986,
      "d": 196.42837500000314,
      "v": 79
    },
    {
      "midi": 38,
      "hit": false,
      "t": 108428.46299999986,
      "d": 410.7138750000013,
      "v": 95
    },
    {
      "midi": 50,
      "hit": false,
      "t": 108428.46299999986,
      "d": 410.7138750000013,
      "v": 95
    },
    {
      "midi": 62,
      "hit": false,
      "t": 108857.03399999985,
      "d": 196.42837500000314,
      "v": 79
    },
    {
      "midi": 67,
      "hit": false,
      "t": 108857.03399999985,
      "d": 196.42837500000314,
      "v": 79
    },
    {
      "midi": 70,
      "hit": false,
      "t": 108857.03399999985,
      "d": 196.42837500000314,
      "v": 79
    },
    {
      "midi": 34,
      "hit": false,
      "t": 108857.03399999985,
      "d": 410.7138750000013,
      "v": 95
    },
    {
      "midi": 46,
      "hit": false,
      "t": 108857.03399999985,
      "d": 410.7138750000013,
      "v": 95
    },
    {
      "midi": 62,
      "hit": false,
      "t": 109285.60499999985,
      "d": 196.42837500000314,
      "v": 79
    },
    {
      "midi": 67,
      "hit": false,
      "t": 109285.60499999985,
      "d": 196.42837500000314,
      "v": 79
    },
    {
      "midi": 70,
      "hit": false,
      "t": 109285.60499999985,
      "d": 196.42837500000314,
      "v": 79
    },
    {
      "midi": 34,
      "hit": false,
      "t": 109285.60499999985,
      "d": 410.7138750000013,
      "v": 95
    },
    {
      "midi": 46,
      "hit": false,
      "t": 109285.60499999985,
      "d": 410.7138750000013,
      "v": 95
    },
    {
      "midi": 63,
      "hit": false,
      "t": 109714.17599999985,
      "d": 196.42837500000314,
      "v": 79
    },
    {
      "midi": 67,
      "hit": false,
      "t": 109714.17599999985,
      "d": 196.42837500000314,
      "v": 79
    },
    {
      "midi": 70,
      "hit": false,
      "t": 109714.17599999985,
      "d": 196.42837500000314,
      "v": 79
    },
    {
      "midi": 27,
      "hit": false,
      "t": 109714.17599999985,
      "d": 410.7138750000013,
      "v": 95
    },
    {
      "midi": 39,
      "hit": false,
      "t": 109714.17599999985,
      "d": 410.7138750000013,
      "v": 95
    },
    {
      "midi": 63,
      "hit": false,
      "t": 110142.74699999984,
      "d": 196.42837500000314,
      "v": 79
    },
    {
      "midi": 67,
      "hit": false,
      "t": 110142.74699999984,
      "d": 196.42837500000314,
      "v": 79
    },
    {
      "midi": 70,
      "hit": false,
      "t": 110142.74699999984,
      "d": 196.42837500000314,
      "v": 79
    },
    {
      "midi": 27,
      "hit": false,
      "t": 110142.74699999984,
      "d": 410.7138750000013,
      "v": 95
    },
    {
      "midi": 39,
      "hit": false,
      "t": 110142.74699999984,
      "d": 410.7138750000013,
      "v": 95
    },
    {
      "midi": 63,
      "hit": false,
      "t": 110571.31799999984,
      "d": 196.42837500000314,
      "v": 79
    },
    {
      "midi": 67,
      "hit": false,
      "t": 110571.31799999984,
      "d": 196.42837500000314,
      "v": 79
    },
    {
      "midi": 70,
      "hit": false,
      "t": 110571.31799999984,
      "d": 196.42837500000314,
      "v": 79
    },
    {
      "midi": 34,
      "hit": false,
      "t": 110571.31799999984,
      "d": 410.7138750000013,
      "v": 95
    },
    {
      "midi": 46,
      "hit": false,
      "t": 110571.31799999984,
      "d": 410.7138750000013,
      "v": 95
    },
    {
      "midi": 63,
      "hit": false,
      "t": 110999.88899999984,
      "d": 196.42837500000314,
      "v": 79
    },
    {
      "midi": 67,
      "hit": false,
      "t": 110999.88899999984,
      "d": 196.42837500000314,
      "v": 79
    },
    {
      "midi": 70,
      "hit": false,
      "t": 110999.88899999984,
      "d": 196.42837500000314,
      "v": 79
    },
    {
      "midi": 34,
      "hit": false,
      "t": 110999.88899999984,
      "d": 410.7138750000013,
      "v": 95
    },
    {
      "midi": 46,
      "hit": false,
      "t": 110999.88899999984,
      "d": 410.7138750000013,
      "v": 95
    },
    {
      "midi": 63,
      "hit": false,
      "t": 111428.45999999983,
      "d": 196.42837500000314,
      "v": 79
    },
    {
      "midi": 67,
      "hit": false,
      "t": 111428.45999999983,
      "d": 196.42837500000314,
      "v": 79
    },
    {
      "midi": 70,
      "hit": false,
      "t": 111428.45999999983,
      "d": 196.42837500000314,
      "v": 79
    },
    {
      "midi": 39,
      "hit": false,
      "t": 111428.45999999983,
      "d": 410.7138750000013,
      "v": 95
    },
    {
      "midi": 51,
      "hit": false,
      "t": 111428.45999999983,
      "d": 410.7138750000013,
      "v": 95
    },
    {
      "midi": 63,
      "hit": false,
      "t": 111857.03099999983,
      "d": 196.42837500000314,
      "v": 79
    },
    {
      "midi": 67,
      "hit": false,
      "t": 111857.03099999983,
      "d": 196.42837500000314,
      "v": 79
    },
    {
      "midi": 70,
      "hit": false,
      "t": 111857.03099999983,
      "d": 196.42837500000314,
      "v": 79
    },
    {
      "midi": 39,
      "hit": false,
      "t": 111857.03099999983,
      "d": 410.7138750000013,
      "v": 95
    },
    {
      "midi": 51,
      "hit": false,
      "t": 111857.03099999983,
      "d": 410.7138750000013,
      "v": 95
    },
    {
      "midi": 63,
      "hit": false,
      "t": 112285.60199999982,
      "d": 196.42837500000314,
      "v": 79
    },
    {
      "midi": 67,
      "hit": false,
      "t": 112285.60199999982,
      "d": 196.42837500000314,
      "v": 79
    },
    {
      "midi": 70,
      "hit": false,
      "t": 112285.60199999982,
      "d": 196.42837500000314,
      "v": 79
    },
    {
      "midi": 46,
      "hit": false,
      "t": 112285.60199999982,
      "d": 410.7138750000013,
      "v": 95
    },
    {
      "midi": 58,
      "hit": false,
      "t": 112285.60199999982,
      "d": 410.7138750000013,
      "v": 95
    },
    {
      "midi": 63,
      "hit": false,
      "t": 112714.17299999982,
      "d": 196.42837500000314,
      "v": 79
    },
    {
      "midi": 67,
      "hit": false,
      "t": 112714.17299999982,
      "d": 196.42837500000314,
      "v": 79
    },
    {
      "midi": 70,
      "hit": false,
      "t": 112714.17299999982,
      "d": 196.42837500000314,
      "v": 79
    },
    {
      "midi": 46,
      "hit": false,
      "t": 112714.17299999982,
      "d": 410.7138750000013,
      "v": 95
    },
    {
      "midi": 58,
      "hit": false,
      "t": 112714.17299999982,
      "d": 410.7138750000013,
      "v": 95
    },
    {
      "midi": 62,
      "hit": false,
      "t": 113142.74399999982,
      "d": 196.42837500000314,
      "v": 79
    },
    {
      "midi": 65,
      "hit": false,
      "t": 113142.74399999982,
      "d": 196.42837500000314,
      "v": 79
    },
    {
      "midi": 70,
      "hit": false,
      "t": 113142.74399999982,
      "d": 196.42837500000314,
      "v": 79
    },
    {
      "midi": 46,
      "hit": false,
      "t": 113142.74399999982,
      "d": 410.7138750000013,
      "v": 95
    },
    {
      "midi": 58,
      "hit": false,
      "t": 113142.74399999982,
      "d": 410.7138750000013,
      "v": 95
    },
    {
      "midi": 62,
      "hit": false,
      "t": 113571.31499999981,
      "d": 196.42837500000314,
      "v": 79
    },
    {
      "midi": 65,
      "hit": false,
      "t": 113571.31499999981,
      "d": 196.42837500000314,
      "v": 79
    },
    {
      "midi": 70,
      "hit": false,
      "t": 113571.31499999981,
      "d": 196.42837500000314,
      "v": 79
    },
    {
      "midi": 46,
      "hit": false,
      "t": 113571.31499999981,
      "d": 410.7138750000013,
      "v": 95
    },
    {
      "midi": 58,
      "hit": false,
      "t": 113571.31499999981,
      "d": 410.7138750000013,
      "v": 95
    },
    {
      "midi": 62,
      "hit": false,
      "t": 113999.88599999981,
      "d": 196.42837500000314,
      "v": 79
    },
    {
      "midi": 65,
      "hit": false,
      "t": 113999.88599999981,
      "d": 196.42837500000314,
      "v": 79
    },
    {
      "midi": 70,
      "hit": false,
      "t": 113999.88599999981,
      "d": 196.42837500000314,
      "v": 79
    },
    {
      "midi": 41,
      "hit": false,
      "t": 113999.88599999981,
      "d": 410.7138750000013,
      "v": 95
    },
    {
      "midi": 53,
      "hit": false,
      "t": 113999.88599999981,
      "d": 410.7138750000013,
      "v": 95
    },
    {
      "midi": 62,
      "hit": false,
      "t": 114428.4569999998,
      "d": 196.42837500000314,
      "v": 79
    },
    {
      "midi": 65,
      "hit": false,
      "t": 114428.4569999998,
      "d": 196.42837500000314,
      "v": 79
    },
    {
      "midi": 70,
      "hit": false,
      "t": 114428.4569999998,
      "d": 196.42837500000314,
      "v": 79
    },
    {
      "midi": 41,
      "hit": false,
      "t": 114428.4569999998,
      "d": 410.7138750000013,
      "v": 95
    },
    {
      "midi": 53,
      "hit": false,
      "t": 114428.4569999998,
      "d": 410.7138750000013,
      "v": 95
    },
    {
      "midi": 62,
      "hit": false,
      "t": 114857.0279999998,
      "d": 196.42837500000314,
      "v": 79
    },
    {
      "midi": 65,
      "hit": false,
      "t": 114857.0279999998,
      "d": 196.42837500000314,
      "v": 79
    },
    {
      "midi": 70,
      "hit": false,
      "t": 114857.0279999998,
      "d": 196.42837500000314,
      "v": 79
    },
    {
      "midi": 38,
      "hit": false,
      "t": 114857.0279999998,
      "d": 410.7138750000013,
      "v": 95
    },
    {
      "midi": 50,
      "hit": false,
      "t": 114857.0279999998,
      "d": 410.7138750000013,
      "v": 95
    },
    {
      "midi": 62,
      "hit": false,
      "t": 115285.5989999998,
      "d": 196.42837500000314,
      "v": 79
    },
    {
      "midi": 65,
      "hit": false,
      "t": 115285.5989999998,
      "d": 196.42837500000314,
      "v": 79
    },
    {
      "midi": 70,
      "hit": false,
      "t": 115285.5989999998,
      "d": 196.42837500000314,
      "v": 79
    },
    {
      "midi": 38,
      "hit": false,
      "t": 115285.5989999998,
      "d": 410.7138750000013,
      "v": 95
    },
    {
      "midi": 50,
      "hit": false,
      "t": 115285.5989999998,
      "d": 410.7138750000013,
      "v": 95
    },
    {
      "midi": 62,
      "hit": false,
      "t": 115714.1699999998,
      "d": 196.42837500000314,
      "v": 79
    },
    {
      "midi": 65,
      "hit": false,
      "t": 115714.1699999998,
      "d": 196.42837500000314,
      "v": 79
    },
    {
      "midi": 70,
      "hit": false,
      "t": 115714.1699999998,
      "d": 196.42837500000314,
      "v": 79
    },
    {
      "midi": 34,
      "hit": false,
      "t": 115714.1699999998,
      "d": 410.7138750000013,
      "v": 95
    },
    {
      "midi": 46,
      "hit": false,
      "t": 115714.1699999998,
      "d": 410.7138750000013,
      "v": 95
    },
    {
      "midi": 62,
      "hit": false,
      "t": 116142.74099999979,
      "d": 196.42837500000314,
      "v": 79
    },
    {
      "midi": 65,
      "hit": false,
      "t": 116142.74099999979,
      "d": 196.42837500000314,
      "v": 79
    },
    {
      "midi": 70,
      "hit": false,
      "t": 116142.74099999979,
      "d": 196.42837500000314,
      "v": 79
    },
    {
      "midi": 34,
      "hit": false,
      "t": 116142.74099999979,
      "d": 410.7138750000013,
      "v": 95
    },
    {
      "midi": 46,
      "hit": false,
      "t": 116142.74099999979,
      "d": 410.7138750000013,
      "v": 95
    },
    {
      "midi": 50,
      "hit": false,
      "t": 116571.31199999979,
      "d": 839.2848749999976,
      "v": 95
    },
    {
      "midi": 54,
      "hit": false,
      "t": 116571.31199999979,
      "d": 839.2848749999976,
      "v": 95
    },
    {
      "midi": 57,
      "hit": false,
      "t": 116571.31199999979,
      "d": 839.2848749999976,
      "v": 95
    },
    {
      "midi": 62,
      "hit": false,
      "t": 116571.31199999979,
      "d": 839.2848749999976,
      "v": 95
    },
    {
      "midi": 26,
      "hit": false,
      "t": 116571.31199999979,
      "d": 3410.710874999975,
      "v": 127
    },
    {
      "midi": 38,
      "hit": false,
      "t": 116571.31199999979,
      "d": 3410.710874999975,
      "v": 127
    },
    {
      "midi": 69,
      "hit": false,
      "t": 117428.45399999978,
      "d": 410.7138750000013,
      "v": 79
    },
    {
      "midi": 74,
      "hit": false,
      "t": 117428.45399999978,
      "d": 410.7138750000013,
      "v": 79
    },
    {
      "midi": 78,
      "hit": false,
      "t": 117428.45399999978,
      "d": 410.7138750000013,
      "v": 79
    },
    {
      "midi": 69,
      "hit": false,
      "t": 117857.02499999978,
      "d": 410.7138750000013,
      "v": 79
    },
    {
      "midi": 74,
      "hit": false,
      "t": 117857.02499999978,
      "d": 410.7138750000013,
      "v": 79
    },
    {
      "midi": 78,
      "hit": false,
      "t": 117857.02499999978,
      "d": 410.7138750000013,
      "v": 79
    },
    {
      "midi": 66,
      "hit": false,
      "t": 118285.59599999977,
      "d": 410.7138750000013,
      "v": 79
    },
    {
      "midi": 69,
      "hit": false,
      "t": 118285.59599999977,
      "d": 410.7138750000013,
      "v": 79
    },
    {
      "midi": 74,
      "hit": false,
      "t": 118285.59599999977,
      "d": 410.7138750000013,
      "v": 79
    },
    {
      "midi": 66,
      "hit": false,
      "t": 118714.16699999977,
      "d": 410.7138750000013,
      "v": 79
    },
    {
      "midi": 69,
      "hit": false,
      "t": 118714.16699999977,
      "d": 410.7138750000013,
      "v": 79
    },
    {
      "midi": 74,
      "hit": false,
      "t": 118714.16699999977,
      "d": 410.7138750000013,
      "v": 79
    },
    {
      "midi": 62,
      "hit": false,
      "t": 119142.73799999976,
      "d": 410.7138750000013,
      "v": 79
    },
    {
      "midi": 66,
      "hit": false,
      "t": 119142.73799999976,
      "d": 410.7138750000013,
      "v": 79
    },
    {
      "midi": 69,
      "hit": false,
      "t": 119142.73799999976,
      "d": 410.7138750000013,
      "v": 79
    },
    {
      "midi": 62,
      "hit": false,
      "t": 119571.30899999976,
      "d": 410.7138750000013,
      "v": 79
    },
    {
      "midi": 66,
      "hit": false,
      "t": 119571.30899999976,
      "d": 410.7138750000013,
      "v": 79
    },
    {
      "midi": 69,
      "hit": false,
      "t": 119571.30899999976,
      "d": 410.7138750000013,
      "v": 79
    },
    {
      "midi": 27,
      "hit": false,
      "t": 119999.87999999976,
      "d": 410.7138750000013,
      "v": 95
    },
    {
      "midi": 39,
      "hit": false,
      "t": 119999.87999999976,
      "d": 410.7138750000013,
      "v": 95
    },
    {
      "midi": 55,
      "hit": false,
      "t": 119999.87999999976,
      "d": 410.7138750000013,
      "v": 79
    },
    {
      "midi": 60,
      "hit": false,
      "t": 119999.87999999976,
      "d": 410.7138750000013,
      "v": 79
    },
    {
      "midi": 63,
      "hit": false,
      "t": 119999.87999999976,
      "d": 410.7138750000013,
      "v": 79
    },
    {
      "midi": 27,
      "hit": false,
      "t": 120428.45099999975,
      "d": 410.7138750000013,
      "v": 95
    },
    {
      "midi": 39,
      "hit": false,
      "t": 120428.45099999975,
      "d": 410.7138750000013,
      "v": 95
    },
    {
      "midi": 55,
      "hit": false,
      "t": 120428.45099999975,
      "d": 410.7138750000013,
      "v": 79
    },
    {
      "midi": 60,
      "hit": false,
      "t": 120428.45099999975,
      "d": 410.7138750000013,
      "v": 79
    },
    {
      "midi": 63,
      "hit": false,
      "t": 120428.45099999975,
      "d": 410.7138750000013,
      "v": 79
    },
    {
      "midi": 31,
      "hit": false,
      "t": 120857.02199999975,
      "d": 410.7138750000013,
      "v": 95
    },
    {
      "midi": 43,
      "hit": false,
      "t": 120857.02199999975,
      "d": 410.7138750000013,
      "v": 95
    },
    {
      "midi": 60,
      "hit": false,
      "t": 120857.02199999975,
      "d": 410.7138750000013,
      "v": 79
    },
    {
      "midi": 63,
      "hit": false,
      "t": 120857.02199999975,
      "d": 410.7138750000013,
      "v": 79
    },
    {
      "midi": 67,
      "hit": false,
      "t": 120857.02199999975,
      "d": 410.7138750000013,
      "v": 79
    },
    {
      "midi": 31,
      "hit": false,
      "t": 121285.59299999975,
      "d": 410.7138750000013,
      "v": 95
    },
    {
      "midi": 43,
      "hit": false,
      "t": 121285.59299999975,
      "d": 410.7138750000013,
      "v": 95
    },
    {
      "midi": 60,
      "hit": false,
      "t": 121285.59299999975,
      "d": 410.7138750000013,
      "v": 79
    },
    {
      "midi": 63,
      "hit": false,
      "t": 121285.59299999975,
      "d": 410.7138750000013,
      "v": 79
    },
    {
      "midi": 67,
      "hit": false,
      "t": 121285.59299999975,
      "d": 410.7138750000013,
      "v": 79
    },
    {
      "midi": 36,
      "hit": false,
      "t": 121714.16399999974,
      "d": 410.7138750000013,
      "v": 95
    },
    {
      "midi": 48,
      "hit": false,
      "t": 121714.16399999974,
      "d": 410.7138750000013,
      "v": 95
    },
    {
      "midi": 63,
      "hit": false,
      "t": 121714.16399999974,
      "d": 410.7138750000013,
      "v": 79
    },
    {
      "midi": 67,
      "hit": false,
      "t": 121714.16399999974,
      "d": 410.7138750000013,
      "v": 79
    },
    {
      "midi": 72,
      "hit": false,
      "t": 121714.16399999974,
      "d": 410.7138750000013,
      "v": 79
    },
    {
      "midi": 36,
      "hit": false,
      "t": 122142.73499999974,
      "d": 410.7138750000013,
      "v": 95
    },
    {
      "midi": 48,
      "hit": false,
      "t": 122142.73499999974,
      "d": 410.7138750000013,
      "v": 95
    },
    {
      "midi": 63,
      "hit": false,
      "t": 122142.73499999974,
      "d": 410.7138750000013,
      "v": 79
    },
    {
      "midi": 67,
      "hit": false,
      "t": 122142.73499999974,
      "d": 410.7138750000013,
      "v": 79
    },
    {
      "midi": 72,
      "hit": false,
      "t": 122142.73499999974,
      "d": 410.7138750000013,
      "v": 79
    },
    {
      "midi": 35,
      "hit": false,
      "t": 122571.30599999973,
      "d": 410.7138750000013,
      "v": 95
    },
    {
      "midi": 47,
      "hit": false,
      "t": 122571.30599999973,
      "d": 410.7138750000013,
      "v": 95
    },
    {
      "midi": 63,
      "hit": false,
      "t": 122571.30599999973,
      "d": 410.7138750000013,
      "v": 79
    },
    {
      "midi": 67,
      "hit": false,
      "t": 122571.30599999973,
      "d": 410.7138750000013,
      "v": 79
    },
    {
      "midi": 71,
      "hit": false,
      "t": 122571.30599999973,
      "d": 410.7138750000013,
      "v": 79
    },
    {
      "midi": 36,
      "hit": false,
      "t": 122999.87699999973,
      "d": 410.7138750000013,
      "v": 95
    },
    {
      "midi": 48,
      "hit": false,
      "t": 122999.87699999973,
      "d": 410.7138750000013,
      "v": 95
    },
    {
      "midi": 63,
      "hit": false,
      "t": 122999.87699999973,
      "d": 410.7138750000013,
      "v": 79
    },
    {
      "midi": 67,
      "hit": false,
      "t": 122999.87699999973,
      "d": 410.7138750000013,
      "v": 79
    },
    {
      "midi": 72,
      "hit": false,
      "t": 122999.87699999973,
      "d": 410.7138750000013,
      "v": 79
    },
    {
      "midi": 69,
      "hit": false,
      "t": 123428.44799999973,
      "d": 410.7138750000013,
      "v": 79
    },
    {
      "midi": 74,
      "hit": false,
      "t": 123428.44799999973,
      "d": 410.7138750000013,
      "v": 79
    },
    {
      "midi": 78,
      "hit": false,
      "t": 123428.44799999973,
      "d": 410.7138750000013,
      "v": 79
    },
    {
      "midi": 38,
      "hit": false,
      "t": 123428.44799999973,
      "d": 2553.5688749999827,
      "v": 95
    },
    {
      "midi": 50,
      "hit": false,
      "t": 123428.44799999973,
      "d": 2553.5688749999827,
      "v": 95
    },
    {
      "midi": 69,
      "hit": false,
      "t": 123857.01899999972,
      "d": 410.7138750000013,
      "v": 79
    },
    {
      "midi": 74,
      "hit": false,
      "t": 123857.01899999972,
      "d": 410.7138750000013,
      "v": 79
    },
    {
      "midi": 78,
      "hit": false,
      "t": 123857.01899999972,
      "d": 410.7138750000013,
      "v": 79
    },
    {
      "midi": 66,
      "hit": false,
      "t": 124285.58999999972,
      "d": 410.7138750000013,
      "v": 79
    },
    {
      "midi": 69,
      "hit": false,
      "t": 124285.58999999972,
      "d": 410.7138750000013,
      "v": 79
    },
    {
      "midi": 74,
      "hit": false,
      "t": 124285.58999999972,
      "d": 410.7138750000013,
      "v": 79
    },
    {
      "midi": 66,
      "hit": false,
      "t": 124714.16099999972,
      "d": 410.7138750000013,
      "v": 79
    },
    {
      "midi": 69,
      "hit": false,
      "t": 124714.16099999972,
      "d": 410.7138750000013,
      "v": 79
    },
    {
      "midi": 74,
      "hit": false,
      "t": 124714.16099999972,
      "d": 410.7138750000013,
      "v": 79
    },
    {
      "midi": 62,
      "hit": false,
      "t": 125142.73199999971,
      "d": 410.7138750000013,
      "v": 79
    },
    {
      "midi": 66,
      "hit": false,
      "t": 125142.73199999971,
      "d": 410.7138750000013,
      "v": 79
    },
    {
      "midi": 69,
      "hit": false,
      "t": 125142.73199999971,
      "d": 410.7138750000013,
      "v": 79
    },
    {
      "midi": 62,
      "hit": false,
      "t": 125571.30299999971,
      "d": 410.7138750000013,
      "v": 79
    },
    {
      "midi": 66,
      "hit": false,
      "t": 125571.30299999971,
      "d": 410.7138750000013,
      "v": 79
    },
    {
      "midi": 69,
      "hit": false,
      "t": 125571.30299999971,
      "d": 410.7138750000013,
      "v": 79
    },
    {
      "midi": 27,
      "hit": false,
      "t": 125999.8739999997,
      "d": 410.7138750000013,
      "v": 95
    },
    {
      "midi": 39,
      "hit": false,
      "t": 125999.8739999997,
      "d": 410.7138750000013,
      "v": 95
    },
    {
      "midi": 55,
      "hit": false,
      "t": 125999.8739999997,
      "d": 410.7138750000013,
      "v": 79
    },
    {
      "midi": 60,
      "hit": false,
      "t": 125999.8739999997,
      "d": 410.7138750000013,
      "v": 79
    },
    {
      "midi": 63,
      "hit": false,
      "t": 125999.8739999997,
      "d": 410.7138750000013,
      "v": 79
    },
    {
      "midi": 27,
      "hit": false,
      "t": 126428.4449999997,
      "d": 410.7138750000013,
      "v": 95
    },
    {
      "midi": 39,
      "hit": false,
      "t": 126428.4449999997,
      "d": 410.7138750000013,
      "v": 95
    },
    {
      "midi": 55,
      "hit": false,
      "t": 126428.4449999997,
      "d": 410.7138750000013,
      "v": 79
    },
    {
      "midi": 60,
      "hit": false,
      "t": 126428.4449999997,
      "d": 410.7138750000013,
      "v": 79
    },
    {
      "midi": 63,
      "hit": false,
      "t": 126428.4449999997,
      "d": 410.7138750000013,
      "v": 79
    },
    {
      "midi": 31,
      "hit": false,
      "t": 126857.0159999997,
      "d": 410.7138750000013,
      "v": 95
    },
    {
      "midi": 43,
      "hit": false,
      "t": 126857.0159999997,
      "d": 410.7138750000013,
      "v": 95
    },
    {
      "midi": 60,
      "hit": false,
      "t": 126857.0159999997,
      "d": 410.7138750000013,
      "v": 79
    },
    {
      "midi": 63,
      "hit": false,
      "t": 126857.0159999997,
      "d": 410.7138750000013,
      "v": 79
    },
    {
      "midi": 67,
      "hit": false,
      "t": 126857.0159999997,
      "d": 410.7138750000013,
      "v": 79
    },
    {
      "midi": 31,
      "hit": false,
      "t": 127285.5869999997,
      "d": 410.7138750000013,
      "v": 95
    },
    {
      "midi": 43,
      "hit": false,
      "t": 127285.5869999997,
      "d": 410.7138750000013,
      "v": 95
    },
    {
      "midi": 60,
      "hit": false,
      "t": 127285.5869999997,
      "d": 410.7138750000013,
      "v": 79
    },
    {
      "midi": 63,
      "hit": false,
      "t": 127285.5869999997,
      "d": 410.7138750000013,
      "v": 79
    },
    {
      "midi": 67,
      "hit": false,
      "t": 127285.5869999997,
      "d": 410.7138750000013,
      "v": 79
    },
    {
      "midi": 36,
      "hit": false,
      "t": 127714.15799999969,
      "d": 410.7138750000013,
      "v": 95
    },
    {
      "midi": 48,
      "hit": false,
      "t": 127714.15799999969,
      "d": 410.7138750000013,
      "v": 95
    },
    {
      "midi": 63,
      "hit": false,
      "t": 127714.15799999969,
      "d": 410.7138750000013,
      "v": 79
    },
    {
      "midi": 67,
      "hit": false,
      "t": 127714.15799999969,
      "d": 410.7138750000013,
      "v": 79
    },
    {
      "midi": 72,
      "hit": false,
      "t": 127714.15799999969,
      "d": 410.7138750000013,
      "v": 79
    },
    {
      "midi": 36,
      "hit": false,
      "t": 128142.72899999969,
      "d": 410.7138750000013,
      "v": 95
    },
    {
      "midi": 48,
      "hit": false,
      "t": 128142.72899999969,
      "d": 410.7138750000013,
      "v": 95
    },
    {
      "midi": 63,
      "hit": false,
      "t": 128142.72899999969,
      "d": 410.7138750000013,
      "v": 79
    },
    {
      "midi": 67,
      "hit": false,
      "t": 128142.72899999969,
      "d": 410.7138750000013,
      "v": 79
    },
    {
      "midi": 72,
      "hit": false,
      "t": 128142.72899999969,
      "d": 410.7138750000013,
      "v": 79
    },
    {
      "midi": 63,
      "hit": false,
      "t": 128571.29999999968,
      "d": 410.7138750000013,
      "v": 79
    },
    {
      "midi": 67,
      "hit": false,
      "t": 128571.29999999968,
      "d": 410.7138750000013,
      "v": 79
    },
    {
      "midi": 72,
      "hit": false,
      "t": 128571.29999999968,
      "d": 410.7138750000013,
      "v": 79
    },
    {
      "midi": 48,
      "hit": false,
      "t": 128571.29999999968,
      "d": 1428.5699999999924,
      "v": 95
    },
    {
      "midi": 36,
      "hit": false,
      "t": 128571.29999999968,
      "d": 1589.284124999991,
      "v": 95
    },
    {
      "midi": 93,
      "hit": false,
      "t": 128999.87099999968,
      "d": 35.71425000000454,
      "v": 95
    },
    {
      "midi": 91,
      "hit": false,
      "t": 129053.44237499968,
      "d": 35.71425000000454,
      "v": 95
    },
    {
      "midi": 89,
      "hit": false,
      "t": 129107.01374999968,
      "d": 35.71425000000454,
      "v": 95
    },
    {
      "midi": 88,
      "hit": false,
      "t": 129160.58512499968,
      "d": 35.71425000000454,
      "v": 95
    },
    {
      "midi": 86,
      "hit": false,
      "t": 129214.15649999968,
      "d": 35.71425000000454,
      "v": 95
    },
    {
      "midi": 84,
      "hit": false,
      "t": 129267.72787499968,
      "d": 35.71425000000454,
      "v": 95
    },
    {
      "midi": 83,
      "hit": false,
      "t": 129321.29924999968,
      "d": 35.71425000000454,
      "v": 95
    },
    {
      "midi": 81,
      "hit": false,
      "t": 129374.87062499968,
      "d": 35.71425000000454,
      "v": 95
    },
    {
      "midi": 79,
      "hit": false,
      "t": 129428.44199999968,
      "d": 35.71425000000454,
      "v": 95
    },
    {
      "midi": 77,
      "hit": false,
      "t": 129482.01337499967,
      "d": 35.71425000000454,
      "v": 95
    },
    {
      "midi": 76,
      "hit": false,
      "t": 129535.58474999967,
      "d": 35.71425000000454,
      "v": 95
    },
    {
      "midi": 74,
      "hit": false,
      "t": 129589.15612499967,
      "d": 35.71425000000454,
      "v": 95
    },
    {
      "midi": 72,
      "hit": false,
      "t": 129642.72749999967,
      "d": 35.71425000000454,
      "v": 95
    },
    {
      "midi": 71,
      "hit": false,
      "t": 129696.29887499967,
      "d": 35.71425000000454,
      "v": 95
    },
    {
      "midi": 69,
      "hit": false,
      "t": 129749.87024999967,
      "d": 35.71425000000454,
      "v": 95
    },
    {
      "midi": 67,
      "hit": false,
      "t": 129803.44162499967,
      "d": 35.71425000000454,
      "v": 95
    },
    {
      "midi": 65,
      "hit": false,
      "t": 129857.01299999967,
      "d": 35.71425000000454,
      "v": 95
    },
    {
      "midi": 64,
      "hit": false,
      "t": 129910.58437499967,
      "d": 35.71425000000454,
      "v": 95
    },
    {
      "midi": 62,
      "hit": false,
      "t": 129964.15574999967,
      "d": 35.71425000000454,
      "v": 95
    },
    {
      "midi": 60,
      "hit": false,
      "t": 130017.72712499967,
      "d": 35.71425000000454,
      "v": 95
    },
    {
      "midi": 59,
      "hit": false,
      "t": 130071.29849999967,
      "d": 35.71425000000454,
      "v": 95
    },
    {
      "midi": 57,
      "hit": false,
      "t": 130124.86987499967,
      "d": 35.71425000000454,
      "v": 95
    },
    {
      "midi": 29,
      "hit": false,
      "t": 130285.58399999967,
      "d": 410.7138750000013,
      "v": 95
    },
    {
      "midi": 41,
      "hit": false,
      "t": 130285.58399999967,
      "d": 410.7138750000013,
      "v": 95
    },
    {
      "midi": 56,
      "hit": false,
      "t": 130285.58399999967,
      "d": 410.7138750000013,
      "v": 79
    },
    {
      "midi": 60,
      "hit": false,
      "t": 130285.58399999967,
      "d": 410.7138750000013,
      "v": 79
    },
    {
      "midi": 65,
      "hit": false,
      "t": 130285.58399999967,
      "d": 410.7138750000013,
      "v": 79
    },
    {
      "midi": 29,
      "hit": false,
      "t": 130714.15499999966,
      "d": 410.7138750000013,
      "v": 95
    },
    {
      "midi": 41,
      "hit": false,
      "t": 130714.15499999966,
      "d": 410.7138750000013,
      "v": 95
    },
    {
      "midi": 56,
      "hit": false,
      "t": 130714.15499999966,
      "d": 410.7138750000013,
      "v": 79
    },
    {
      "midi": 60,
      "hit": false,
      "t": 130714.15499999966,
      "d": 410.7138750000013,
      "v": 79
    },
    {
      "midi": 65,
      "hit": false,
      "t": 130714.15499999966,
      "d": 410.7138750000013,
      "v": 79
    },
    {
      "midi": 32,
      "hit": false,
      "t": 131142.72599999967,
      "d": 410.71387499998673,
      "v": 95
    },
    {
      "midi": 44,
      "hit": false,
      "t": 131142.72599999967,
      "d": 410.71387499998673,
      "v": 95
    },
    {
      "midi": 56,
      "hit": false,
      "t": 131142.72599999967,
      "d": 410.71387499998673,
      "v": 79
    },
    {
      "midi": 60,
      "hit": false,
      "t": 131142.72599999967,
      "d": 410.71387499998673,
      "v": 79
    },
    {
      "midi": 65,
      "hit": false,
      "t": 131142.72599999967,
      "d": 410.71387499998673,
      "v": 79
    },
    {
      "midi": 32,
      "hit": false,
      "t": 131571.29699999967,
      "d": 410.71387499998673,
      "v": 95
    },
    {
      "midi": 44,
      "hit": false,
      "t": 131571.29699999967,
      "d": 410.71387499998673,
      "v": 95
    },
    {
      "midi": 56,
      "hit": false,
      "t": 131571.29699999967,
      "d": 410.71387499998673,
      "v": 79
    },
    {
      "midi": 60,
      "hit": false,
      "t": 131571.29699999967,
      "d": 410.71387499998673,
      "v": 79
    },
    {
      "midi": 65,
      "hit": false,
      "t": 131571.29699999967,
      "d": 410.71387499998673,
      "v": 79
    },
    {
      "midi": 56,
      "hit": false,
      "t": 131999.86799999967,
      "d": 196.4283749999886,
      "v": 79
    },
    {
      "midi": 60,
      "hit": false,
      "t": 131999.86799999967,
      "d": 196.4283749999886,
      "v": 79
    },
    {
      "midi": 65,
      "hit": false,
      "t": 131999.86799999967,
      "d": 196.4283749999886,
      "v": 79
    },
    {
      "midi": 36,
      "hit": false,
      "t": 131999.86799999967,
      "d": 410.71387499998673,
      "v": 95
    },
    {
      "midi": 48,
      "hit": false,
      "t": 131999.86799999967,
      "d": 410.71387499998673,
      "v": 95
    },
    {
      "midi": 56,
      "hit": false,
      "t": 132428.43899999966,
      "d": 196.4283749999886,
      "v": 79
    },
    {
      "midi": 60,
      "hit": false,
      "t": 132428.43899999966,
      "d": 196.4283749999886,
      "v": 79
    },
    {
      "midi": 65,
      "hit": false,
      "t": 132428.43899999966,
      "d": 196.4283749999886,
      "v": 79
    },
    {
      "midi": 36,
      "hit": false,
      "t": 132428.43899999966,
      "d": 410.71387499998673,
      "v": 95
    },
    {
      "midi": 48,
      "hit": false,
      "t": 132428.43899999966,
      "d": 410.71387499998673,
      "v": 95
    },
    {
      "midi": 56,
      "hit": false,
      "t": 132857.00999999966,
      "d": 196.4283749999886,
      "v": 79
    },
    {
      "midi": 60,
      "hit": false,
      "t": 132857.00999999966,
      "d": 196.4283749999886,
      "v": 79
    },
    {
      "midi": 65,
      "hit": false,
      "t": 132857.00999999966,
      "d": 196.4283749999886,
      "v": 79
    },
    {
      "midi": 41,
      "hit": false,
      "t": 132857.00999999966,
      "d": 410.71387499998673,
      "v": 95
    },
    {
      "midi": 53,
      "hit": false,
      "t": 132857.00999999966,
      "d": 410.71387499998673,
      "v": 95
    },
    {
      "midi": 56,
      "hit": false,
      "t": 133285.58099999966,
      "d": 196.4283749999886,
      "v": 79
    },
    {
      "midi": 60,
      "hit": false,
      "t": 133285.58099999966,
      "d": 196.4283749999886,
      "v": 79
    },
    {
      "midi": 65,
      "hit": false,
      "t": 133285.58099999966,
      "d": 196.4283749999886,
      "v": 79
    },
    {
      "midi": 41,
      "hit": false,
      "t": 133285.58099999966,
      "d": 410.71387499998673,
      "v": 95
    },
    {
      "midi": 53,
      "hit": false,
      "t": 133285.58099999966,
      "d": 410.71387499998673,
      "v": 95
    },
    {
      "midi": 39,
      "hit": false,
      "t": 133714.15199999965,
      "d": 410.71387499998673,
      "v": 95
    },
    {
      "midi": 51,
      "hit": false,
      "t": 133714.15199999965,
      "d": 410.71387499998673,
      "v": 95
    },
    {
      "midi": 60,
      "hit": false,
      "t": 133714.15199999965,
      "d": 410.71387499998673,
      "v": 79
    },
    {
      "midi": 63,
      "hit": false,
      "t": 133714.15199999965,
      "d": 410.71387499998673,
      "v": 79
    },
    {
      "midi": 67,
      "hit": false,
      "t": 133714.15199999965,
      "d": 410.71387499998673,
      "v": 79
    },
    {
      "midi": 39,
      "hit": false,
      "t": 134142.72299999965,
      "d": 410.71387499998673,
      "v": 95
    },
    {
      "midi": 51,
      "hit": false,
      "t": 134142.72299999965,
      "d": 410.71387499998673,
      "v": 95
    },
    {
      "midi": 60,
      "hit": false,
      "t": 134142.72299999965,
      "d": 410.71387499998673,
      "v": 79
    },
    {
      "midi": 63,
      "hit": false,
      "t": 134142.72299999965,
      "d": 410.71387499998673,
      "v": 79
    },
    {
      "midi": 67,
      "hit": false,
      "t": 134142.72299999965,
      "d": 410.71387499998673,
      "v": 79
    },
    {
      "midi": 36,
      "hit": false,
      "t": 134571.29399999965,
      "d": 410.71387499998673,
      "v": 95
    },
    {
      "midi": 48,
      "hit": false,
      "t": 134571.29399999965,
      "d": 410.71387499998673,
      "v": 95
    },
    {
      "midi": 60,
      "hit": false,
      "t": 134571.29399999965,
      "d": 410.71387499998673,
      "v": 79
    },
    {
      "midi": 63,
      "hit": false,
      "t": 134571.29399999965,
      "d": 410.71387499998673,
      "v": 79
    },
    {
      "midi": 67,
      "hit": false,
      "t": 134571.29399999965,
      "d": 410.71387499998673,
      "v": 79
    },
    {
      "midi": 36,
      "hit": false,
      "t": 134999.86499999964,
      "d": 410.71387499998673,
      "v": 95
    },
    {
      "midi": 48,
      "hit": false,
      "t": 134999.86499999964,
      "d": 410.71387499998673,
      "v": 95
    },
    {
      "midi": 60,
      "hit": false,
      "t": 134999.86499999964,
      "d": 410.71387499998673,
      "v": 79
    },
    {
      "midi": 63,
      "hit": false,
      "t": 134999.86499999964,
      "d": 410.71387499998673,
      "v": 79
    },
    {
      "midi": 67,
      "hit": false,
      "t": 134999.86499999964,
      "d": 410.71387499998673,
      "v": 79
    },
    {
      "midi": 60,
      "hit": false,
      "t": 135428.43599999964,
      "d": 196.4283749999886,
      "v": 79
    },
    {
      "midi": 63,
      "hit": false,
      "t": 135428.43599999964,
      "d": 196.4283749999886,
      "v": 79
    },
    {
      "midi": 67,
      "hit": false,
      "t": 135428.43599999964,
      "d": 196.4283749999886,
      "v": 79
    },
    {
      "midi": 31,
      "hit": false,
      "t": 135428.43599999964,
      "d": 410.71387499998673,
      "v": 95
    },
    {
      "midi": 43,
      "hit": false,
      "t": 135428.43599999964,
      "d": 410.71387499998673,
      "v": 95
    },
    {
      "midi": 60,
      "hit": false,
      "t": 135857.00699999963,
      "d": 196.4283749999886,
      "v": 79
    },
    {
      "midi": 63,
      "hit": false,
      "t": 135857.00699999963,
      "d": 196.4283749999886,
      "v": 79
    },
    {
      "midi": 67,
      "hit": false,
      "t": 135857.00699999963,
      "d": 196.4283749999886,
      "v": 79
    },
    {
      "midi": 31,
      "hit": false,
      "t": 135857.00699999963,
      "d": 410.71387499998673,
      "v": 95
    },
    {
      "midi": 43,
      "hit": false,
      "t": 135857.00699999963,
      "d": 410.71387499998673,
      "v": 95
    },
    {
      "midi": 60,
      "hit": false,
      "t": 136285.57799999963,
      "d": 196.4283749999886,
      "v": 79
    },
    {
      "midi": 63,
      "hit": false,
      "t": 136285.57799999963,
      "d": 196.4283749999886,
      "v": 79
    },
    {
      "midi": 67,
      "hit": false,
      "t": 136285.57799999963,
      "d": 196.4283749999886,
      "v": 79
    },
    {
      "midi": 27,
      "hit": false,
      "t": 136285.57799999963,
      "d": 410.71387499998673,
      "v": 95
    },
    {
      "midi": 39,
      "hit": false,
      "t": 136285.57799999963,
      "d": 410.71387499998673,
      "v": 95
    },
    {
      "midi": 60,
      "hit": false,
      "t": 136714.14899999963,
      "d": 196.4283749999886,
      "v": 79
    },
    {
      "midi": 63,
      "hit": false,
      "t": 136714.14899999963,
      "d": 196.4283749999886,
      "v": 79
    },
    {
      "midi": 67,
      "hit": false,
      "t": 136714.14899999963,
      "d": 196.4283749999886,
      "v": 79
    },
    {
      "midi": 27,
      "hit": false,
      "t": 136714.14899999963,
      "d": 410.71387499998673,
      "v": 95
    },
    {
      "midi": 39,
      "hit": false,
      "t": 136714.14899999963,
      "d": 410.71387499998673,
      "v": 95
    },
    {
      "midi": 29,
      "hit": false,
      "t": 137142.71999999962,
      "d": 410.71387499998673,
      "v": 95
    },
    {
      "midi": 41,
      "hit": false,
      "t": 137142.71999999962,
      "d": 410.71387499998673,
      "v": 95
    },
    {
      "midi": 56,
      "hit": false,
      "t": 137142.71999999962,
      "d": 410.71387499998673,
      "v": 79
    },
    {
      "midi": 60,
      "hit": false,
      "t": 137142.71999999962,
      "d": 410.71387499998673,
      "v": 79
    },
    {
      "midi": 65,
      "hit": false,
      "t": 137142.71999999962,
      "d": 410.71387499998673,
      "v": 79
    },
    {
      "midi": 29,
      "hit": false,
      "t": 137571.29099999962,
      "d": 410.71387499998673,
      "v": 95
    },
    {
      "midi": 41,
      "hit": false,
      "t": 137571.29099999962,
      "d": 410.71387499998673,
      "v": 95
    },
    {
      "midi": 56,
      "hit": false,
      "t": 137571.29099999962,
      "d": 410.71387499998673,
      "v": 79
    },
    {
      "midi": 60,
      "hit": false,
      "t": 137571.29099999962,
      "d": 410.71387499998673,
      "v": 79
    },
    {
      "midi": 65,
      "hit": false,
      "t": 137571.29099999962,
      "d": 410.71387499998673,
      "v": 79
    },
    {
      "midi": 32,
      "hit": false,
      "t": 137999.86199999962,
      "d": 410.71387499998673,
      "v": 95
    },
    {
      "midi": 44,
      "hit": false,
      "t": 137999.86199999962,
      "d": 410.71387499998673,
      "v": 95
    },
    {
      "midi": 56,
      "hit": false,
      "t": 137999.86199999962,
      "d": 410.71387499998673,
      "v": 79
    },
    {
      "midi": 60,
      "hit": false,
      "t": 137999.86199999962,
      "d": 410.71387499998673,
      "v": 79
    },
    {
      "midi": 65,
      "hit": false,
      "t": 137999.86199999962,
      "d": 410.71387499998673,
      "v": 79
    },
    {
      "midi": 32,
      "hit": false,
      "t": 138428.4329999996,
      "d": 410.71387499998673,
      "v": 95
    },
    {
      "midi": 44,
      "hit": false,
      "t": 138428.4329999996,
      "d": 410.71387499998673,
      "v": 95
    },
    {
      "midi": 56,
      "hit": false,
      "t": 138428.4329999996,
      "d": 410.71387499998673,
      "v": 79
    },
    {
      "midi": 60,
      "hit": false,
      "t": 138428.4329999996,
      "d": 410.71387499998673,
      "v": 79
    },
    {
      "midi": 65,
      "hit": false,
      "t": 138428.4329999996,
      "d": 410.71387499998673,
      "v": 79
    },
    {
      "midi": 56,
      "hit": false,
      "t": 138857.0039999996,
      "d": 196.4283749999886,
      "v": 79
    },
    {
      "midi": 60,
      "hit": false,
      "t": 138857.0039999996,
      "d": 196.4283749999886,
      "v": 79
    },
    {
      "midi": 65,
      "hit": false,
      "t": 138857.0039999996,
      "d": 196.4283749999886,
      "v": 79
    },
    {
      "midi": 36,
      "hit": false,
      "t": 138857.0039999996,
      "d": 410.71387499998673,
      "v": 95
    },
    {
      "midi": 48,
      "hit": false,
      "t": 138857.0039999996,
      "d": 410.71387499998673,
      "v": 95
    },
    {
      "midi": 56,
      "hit": false,
      "t": 139285.5749999996,
      "d": 196.4283749999886,
      "v": 79
    },
    {
      "midi": 60,
      "hit": false,
      "t": 139285.5749999996,
      "d": 196.4283749999886,
      "v": 79
    },
    {
      "midi": 65,
      "hit": false,
      "t": 139285.5749999996,
      "d": 196.4283749999886,
      "v": 79
    },
    {
      "midi": 36,
      "hit": false,
      "t": 139285.5749999996,
      "d": 410.71387499998673,
      "v": 95
    },
    {
      "midi": 48,
      "hit": false,
      "t": 139285.5749999996,
      "d": 410.71387499998673,
      "v": 95
    },
    {
      "midi": 56,
      "hit": false,
      "t": 139714.1459999996,
      "d": 196.4283749999886,
      "v": 79
    },
    {
      "midi": 60,
      "hit": false,
      "t": 139714.1459999996,
      "d": 196.4283749999886,
      "v": 79
    },
    {
      "midi": 65,
      "hit": false,
      "t": 139714.1459999996,
      "d": 196.4283749999886,
      "v": 79
    },
    {
      "midi": 41,
      "hit": false,
      "t": 139714.1459999996,
      "d": 410.71387499998673,
      "v": 95
    },
    {
      "midi": 53,
      "hit": false,
      "t": 139714.1459999996,
      "d": 410.71387499998673,
      "v": 95
    },
    {
      "midi": 56,
      "hit": false,
      "t": 140142.7169999996,
      "d": 196.4283749999886,
      "v": 79
    },
    {
      "midi": 60,
      "hit": false,
      "t": 140142.7169999996,
      "d": 196.4283749999886,
      "v": 79
    },
    {
      "midi": 65,
      "hit": false,
      "t": 140142.7169999996,
      "d": 196.4283749999886,
      "v": 79
    },
    {
      "midi": 41,
      "hit": false,
      "t": 140142.7169999996,
      "d": 410.71387499998673,
      "v": 95
    },
    {
      "midi": 53,
      "hit": false,
      "t": 140142.7169999996,
      "d": 410.71387499998673,
      "v": 95
    },
    {
      "midi": 39,
      "hit": false,
      "t": 140571.2879999996,
      "d": 410.71387499998673,
      "v": 95
    },
    {
      "midi": 51,
      "hit": false,
      "t": 140571.2879999996,
      "d": 410.71387499998673,
      "v": 95
    },
    {
      "midi": 60,
      "hit": false,
      "t": 140571.2879999996,
      "d": 410.71387499998673,
      "v": 79
    },
    {
      "midi": 63,
      "hit": false,
      "t": 140571.2879999996,
      "d": 410.71387499998673,
      "v": 79
    },
    {
      "midi": 67,
      "hit": false,
      "t": 140571.2879999996,
      "d": 410.71387499998673,
      "v": 79
    },
    {
      "midi": 39,
      "hit": false,
      "t": 140999.8589999996,
      "d": 410.71387499998673,
      "v": 95
    },
    {
      "midi": 51,
      "hit": false,
      "t": 140999.8589999996,
      "d": 410.71387499998673,
      "v": 95
    },
    {
      "midi": 60,
      "hit": false,
      "t": 140999.8589999996,
      "d": 410.71387499998673,
      "v": 79
    },
    {
      "midi": 63,
      "hit": false,
      "t": 140999.8589999996,
      "d": 410.71387499998673,
      "v": 79
    },
    {
      "midi": 67,
      "hit": false,
      "t": 140999.8589999996,
      "d": 410.71387499998673,
      "v": 79
    },
    {
      "midi": 36,
      "hit": false,
      "t": 141428.4299999996,
      "d": 410.71387499998673,
      "v": 95
    },
    {
      "midi": 48,
      "hit": false,
      "t": 141428.4299999996,
      "d": 410.71387499998673,
      "v": 95
    },
    {
      "midi": 60,
      "hit": false,
      "t": 141428.4299999996,
      "d": 410.71387499998673,
      "v": 79
    },
    {
      "midi": 63,
      "hit": false,
      "t": 141428.4299999996,
      "d": 410.71387499998673,
      "v": 79
    },
    {
      "midi": 67,
      "hit": false,
      "t": 141428.4299999996,
      "d": 410.71387499998673,
      "v": 79
    },
    {
      "midi": 36,
      "hit": false,
      "t": 141857.00099999958,
      "d": 410.71387499998673,
      "v": 95
    },
    {
      "midi": 48,
      "hit": false,
      "t": 141857.00099999958,
      "d": 410.71387499998673,
      "v": 95
    },
    {
      "midi": 60,
      "hit": false,
      "t": 141857.00099999958,
      "d": 410.71387499998673,
      "v": 79
    },
    {
      "midi": 63,
      "hit": false,
      "t": 141857.00099999958,
      "d": 410.71387499998673,
      "v": 79
    },
    {
      "midi": 67,
      "hit": false,
      "t": 141857.00099999958,
      "d": 410.71387499998673,
      "v": 79
    },
    {
      "midi": 60,
      "hit": false,
      "t": 142285.57199999958,
      "d": 196.4283749999886,
      "v": 79
    },
    {
      "midi": 63,
      "hit": false,
      "t": 142285.57199999958,
      "d": 196.4283749999886,
      "v": 79
    },
    {
      "midi": 67,
      "hit": false,
      "t": 142285.57199999958,
      "d": 196.4283749999886,
      "v": 79
    },
    {
      "midi": 31,
      "hit": false,
      "t": 142285.57199999958,
      "d": 410.71387499998673,
      "v": 95
    },
    {
      "midi": 43,
      "hit": false,
      "t": 142285.57199999958,
      "d": 410.71387499998673,
      "v": 95
    },
    {
      "midi": 60,
      "hit": false,
      "t": 142714.14299999957,
      "d": 196.4283749999886,
      "v": 79
    },
    {
      "midi": 63,
      "hit": false,
      "t": 142714.14299999957,
      "d": 196.4283749999886,
      "v": 79
    },
    {
      "midi": 67,
      "hit": false,
      "t": 142714.14299999957,
      "d": 196.4283749999886,
      "v": 79
    },
    {
      "midi": 31,
      "hit": false,
      "t": 142714.14299999957,
      "d": 410.71387499998673,
      "v": 95
    },
    {
      "midi": 43,
      "hit": false,
      "t": 142714.14299999957,
      "d": 410.71387499998673,
      "v": 95
    },
    {
      "midi": 60,
      "hit": false,
      "t": 143142.71399999957,
      "d": 196.4283749999886,
      "v": 79
    },
    {
      "midi": 63,
      "hit": false,
      "t": 143142.71399999957,
      "d": 196.4283749999886,
      "v": 79
    },
    {
      "midi": 67,
      "hit": false,
      "t": 143142.71399999957,
      "d": 196.4283749999886,
      "v": 79
    },
    {
      "midi": 27,
      "hit": false,
      "t": 143142.71399999957,
      "d": 410.71387499998673,
      "v": 95
    },
    {
      "midi": 39,
      "hit": false,
      "t": 143142.71399999957,
      "d": 410.71387499998673,
      "v": 95
    },
    {
      "midi": 60,
      "hit": false,
      "t": 143571.28499999957,
      "d": 196.4283749999886,
      "v": 79
    },
    {
      "midi": 63,
      "hit": false,
      "t": 143571.28499999957,
      "d": 196.4283749999886,
      "v": 79
    },
    {
      "midi": 67,
      "hit": false,
      "t": 143571.28499999957,
      "d": 196.4283749999886,
      "v": 79
    },
    {
      "midi": 27,
      "hit": false,
      "t": 143571.28499999957,
      "d": 410.71387499998673,
      "v": 95
    },
    {
      "midi": 39,
      "hit": false,
      "t": 143571.28499999957,
      "d": 410.71387499998673,
      "v": 95
    },
    {
      "midi": 29,
      "hit": false,
      "t": 143999.85599999956,
      "d": 410.71387499998673,
      "v": 95
    },
    {
      "midi": 41,
      "hit": false,
      "t": 143999.85599999956,
      "d": 410.71387499998673,
      "v": 95
    },
    {
      "midi": 56,
      "hit": false,
      "t": 143999.85599999956,
      "d": 410.71387499998673,
      "v": 79
    },
    {
      "midi": 60,
      "hit": false,
      "t": 143999.85599999956,
      "d": 410.71387499998673,
      "v": 79
    },
    {
      "midi": 65,
      "hit": false,
      "t": 143999.85599999956,
      "d": 410.71387499998673,
      "v": 79
    },
    {
      "midi": 29,
      "hit": false,
      "t": 144428.42699999956,
      "d": 410.71387499998673,
      "v": 95
    },
    {
      "midi": 41,
      "hit": false,
      "t": 144428.42699999956,
      "d": 410.71387499998673,
      "v": 95
    },
    {
      "midi": 56,
      "hit": false,
      "t": 144428.42699999956,
      "d": 410.71387499998673,
      "v": 79
    },
    {
      "midi": 60,
      "hit": false,
      "t": 144428.42699999956,
      "d": 410.71387499998673,
      "v": 79
    },
    {
      "midi": 65,
      "hit": false,
      "t": 144428.42699999956,
      "d": 410.71387499998673,
      "v": 79
    },
    {
      "midi": 32,
      "hit": false,
      "t": 144856.99799999956,
      "d": 410.71387499998673,
      "v": 95
    },
    {
      "midi": 44,
      "hit": false,
      "t": 144856.99799999956,
      "d": 410.71387499998673,
      "v": 95
    },
    {
      "midi": 56,
      "hit": false,
      "t": 144856.99799999956,
      "d": 410.71387499998673,
      "v": 79
    },
    {
      "midi": 60,
      "hit": false,
      "t": 144856.99799999956,
      "d": 410.71387499998673,
      "v": 79
    },
    {
      "midi": 65,
      "hit": false,
      "t": 144856.99799999956,
      "d": 410.71387499998673,
      "v": 79
    },
    {
      "midi": 32,
      "hit": false,
      "t": 145285.56899999955,
      "d": 410.71387499998673,
      "v": 95
    },
    {
      "midi": 44,
      "hit": false,
      "t": 145285.56899999955,
      "d": 410.71387499998673,
      "v": 95
    },
    {
      "midi": 56,
      "hit": false,
      "t": 145285.56899999955,
      "d": 410.71387499998673,
      "v": 79
    },
    {
      "midi": 60,
      "hit": false,
      "t": 145285.56899999955,
      "d": 410.71387499998673,
      "v": 79
    },
    {
      "midi": 65,
      "hit": false,
      "t": 145285.56899999955,
      "d": 410.71387499998673,
      "v": 79
    },
    {
      "midi": 56,
      "hit": false,
      "t": 145714.13999999955,
      "d": 196.4283749999886,
      "v": 79
    },
    {
      "midi": 60,
      "hit": false,
      "t": 145714.13999999955,
      "d": 196.4283749999886,
      "v": 79
    },
    {
      "midi": 65,
      "hit": false,
      "t": 145714.13999999955,
      "d": 196.4283749999886,
      "v": 79
    },
    {
      "midi": 36,
      "hit": false,
      "t": 145714.13999999955,
      "d": 410.71387499998673,
      "v": 95
    },
    {
      "midi": 48,
      "hit": false,
      "t": 145714.13999999955,
      "d": 410.71387499998673,
      "v": 95
    },
    {
      "midi": 56,
      "hit": false,
      "t": 146142.71099999954,
      "d": 196.4283749999886,
      "v": 79
    },
    {
      "midi": 60,
      "hit": false,
      "t": 146142.71099999954,
      "d": 196.4283749999886,
      "v": 79
    },
    {
      "midi": 65,
      "hit": false,
      "t": 146142.71099999954,
      "d": 196.4283749999886,
      "v": 79
    },
    {
      "midi": 36,
      "hit": false,
      "t": 146142.71099999954,
      "d": 410.71387499998673,
      "v": 95
    },
    {
      "midi": 48,
      "hit": false,
      "t": 146142.71099999954,
      "d": 410.71387499998673,
      "v": 95
    },
    {
      "midi": 56,
      "hit": false,
      "t": 146571.28199999954,
      "d": 196.4283749999886,
      "v": 79
    },
    {
      "midi": 60,
      "hit": false,
      "t": 146571.28199999954,
      "d": 196.4283749999886,
      "v": 79
    },
    {
      "midi": 65,
      "hit": false,
      "t": 146571.28199999954,
      "d": 196.4283749999886,
      "v": 79
    },
    {
      "midi": 41,
      "hit": false,
      "t": 146571.28199999954,
      "d": 410.71387499998673,
      "v": 95
    },
    {
      "midi": 53,
      "hit": false,
      "t": 146571.28199999954,
      "d": 410.71387499998673,
      "v": 95
    },
    {
      "midi": 56,
      "hit": false,
      "t": 146999.85299999954,
      "d": 196.4283749999886,
      "v": 79
    },
    {
      "midi": 60,
      "hit": false,
      "t": 146999.85299999954,
      "d": 196.4283749999886,
      "v": 79
    },
    {
      "midi": 65,
      "hit": false,
      "t": 146999.85299999954,
      "d": 196.4283749999886,
      "v": 79
    },
    {
      "midi": 41,
      "hit": false,
      "t": 146999.85299999954,
      "d": 410.71387499998673,
      "v": 95
    },
    {
      "midi": 53,
      "hit": false,
      "t": 146999.85299999954,
      "d": 410.71387499998673,
      "v": 95
    },
    {
      "midi": 39,
      "hit": false,
      "t": 147428.42399999953,
      "d": 410.71387499998673,
      "v": 95
    },
    {
      "midi": 51,
      "hit": false,
      "t": 147428.42399999953,
      "d": 410.71387499998673,
      "v": 95
    },
    {
      "midi": 60,
      "hit": false,
      "t": 147428.42399999953,
      "d": 410.71387499998673,
      "v": 79
    },
    {
      "midi": 63,
      "hit": false,
      "t": 147428.42399999953,
      "d": 410.71387499998673,
      "v": 79
    },
    {
      "midi": 67,
      "hit": false,
      "t": 147428.42399999953,
      "d": 410.71387499998673,
      "v": 79
    },
    {
      "midi": 39,
      "hit": false,
      "t": 147856.99499999953,
      "d": 410.71387499998673,
      "v": 95
    },
    {
      "midi": 51,
      "hit": false,
      "t": 147856.99499999953,
      "d": 410.71387499998673,
      "v": 95
    },
    {
      "midi": 60,
      "hit": false,
      "t": 147856.99499999953,
      "d": 410.71387499998673,
      "v": 79
    },
    {
      "midi": 63,
      "hit": false,
      "t": 147856.99499999953,
      "d": 410.71387499998673,
      "v": 79
    },
    {
      "midi": 67,
      "hit": false,
      "t": 147856.99499999953,
      "d": 410.71387499998673,
      "v": 79
    },
    {
      "midi": 36,
      "hit": false,
      "t": 148285.56599999953,
      "d": 410.71387499998673,
      "v": 95
    },
    {
      "midi": 48,
      "hit": false,
      "t": 148285.56599999953,
      "d": 410.71387499998673,
      "v": 95
    },
    {
      "midi": 60,
      "hit": false,
      "t": 148285.56599999953,
      "d": 410.71387499998673,
      "v": 79
    },
    {
      "midi": 63,
      "hit": false,
      "t": 148285.56599999953,
      "d": 410.71387499998673,
      "v": 79
    },
    {
      "midi": 67,
      "hit": false,
      "t": 148285.56599999953,
      "d": 410.71387499998673,
      "v": 79
    },
    {
      "midi": 36,
      "hit": false,
      "t": 148714.13699999952,
      "d": 410.71387499998673,
      "v": 95
    },
    {
      "midi": 48,
      "hit": false,
      "t": 148714.13699999952,
      "d": 410.71387499998673,
      "v": 95
    },
    {
      "midi": 60,
      "hit": false,
      "t": 148714.13699999952,
      "d": 410.71387499998673,
      "v": 79
    },
    {
      "midi": 63,
      "hit": false,
      "t": 148714.13699999952,
      "d": 410.71387499998673,
      "v": 79
    },
    {
      "midi": 67,
      "hit": false,
      "t": 148714.13699999952,
      "d": 410.71387499998673,
      "v": 79
    },
    {
      "midi": 60,
      "hit": false,
      "t": 149142.70799999952,
      "d": 196.4283749999886,
      "v": 79
    },
    {
      "midi": 63,
      "hit": false,
      "t": 149142.70799999952,
      "d": 196.4283749999886,
      "v": 79
    },
    {
      "midi": 67,
      "hit": false,
      "t": 149142.70799999952,
      "d": 196.4283749999886,
      "v": 79
    },
    {
      "midi": 31,
      "hit": false,
      "t": 149142.70799999952,
      "d": 410.71387499998673,
      "v": 95
    },
    {
      "midi": 43,
      "hit": false,
      "t": 149142.70799999952,
      "d": 410.71387499998673,
      "v": 95
    },
    {
      "midi": 60,
      "hit": false,
      "t": 149571.27899999951,
      "d": 196.4283749999886,
      "v": 79
    },
    {
      "midi": 63,
      "hit": false,
      "t": 149571.27899999951,
      "d": 196.4283749999886,
      "v": 79
    },
    {
      "midi": 67,
      "hit": false,
      "t": 149571.27899999951,
      "d": 196.4283749999886,
      "v": 79
    },
    {
      "midi": 31,
      "hit": false,
      "t": 149571.27899999951,
      "d": 410.71387499998673,
      "v": 95
    },
    {
      "midi": 43,
      "hit": false,
      "t": 149571.27899999951,
      "d": 410.71387499998673,
      "v": 95
    },
    {
      "midi": 60,
      "hit": false,
      "t": 149999.8499999995,
      "d": 196.4283749999886,
      "v": 79
    },
    {
      "midi": 63,
      "hit": false,
      "t": 149999.8499999995,
      "d": 196.4283749999886,
      "v": 79
    },
    {
      "midi": 67,
      "hit": false,
      "t": 149999.8499999995,
      "d": 196.4283749999886,
      "v": 79
    },
    {
      "midi": 27,
      "hit": false,
      "t": 149999.8499999995,
      "d": 410.71387499998673,
      "v": 95
    },
    {
      "midi": 39,
      "hit": false,
      "t": 149999.8499999995,
      "d": 410.71387499998673,
      "v": 95
    },
    {
      "midi": 60,
      "hit": false,
      "t": 150428.4209999995,
      "d": 196.4283749999886,
      "v": 79
    },
    {
      "midi": 63,
      "hit": false,
      "t": 150428.4209999995,
      "d": 196.4283749999886,
      "v": 79
    },
    {
      "midi": 67,
      "hit": false,
      "t": 150428.4209999995,
      "d": 196.4283749999886,
      "v": 79
    },
    {
      "midi": 27,
      "hit": false,
      "t": 150428.4209999995,
      "d": 410.71387499998673,
      "v": 95
    },
    {
      "midi": 39,
      "hit": false,
      "t": 150428.4209999995,
      "d": 410.71387499998673,
      "v": 95
    },
    {
      "midi": 62,
      "hit": false,
      "t": 150856.9919999995,
      "d": 196.4283749999886,
      "v": 79
    },
    {
      "midi": 66,
      "hit": false,
      "t": 150856.9919999995,
      "d": 196.4283749999886,
      "v": 79
    },
    {
      "midi": 69,
      "hit": false,
      "t": 150856.9919999995,
      "d": 196.4283749999886,
      "v": 79
    },
    {
      "midi": 26,
      "hit": false,
      "t": 150856.9919999995,
      "d": 410.71387499998673,
      "v": 95
    },
    {
      "midi": 38,
      "hit": false,
      "t": 150856.9919999995,
      "d": 410.71387499998673,
      "v": 95
    },
    {
      "midi": 62,
      "hit": false,
      "t": 151285.5629999995,
      "d": 196.4283749999886,
      "v": 79
    },
    {
      "midi": 66,
      "hit": false,
      "t": 151285.5629999995,
      "d": 196.4283749999886,
      "v": 79
    },
    {
      "midi": 69,
      "hit": false,
      "t": 151285.5629999995,
      "d": 196.4283749999886,
      "v": 79
    },
    {
      "midi": 26,
      "hit": false,
      "t": 151285.5629999995,
      "d": 410.71387499998673,
      "v": 95
    },
    {
      "midi": 38,
      "hit": false,
      "t": 151285.5629999995,
      "d": 410.71387499998673,
      "v": 95
    },
    {
      "midi": 62,
      "hit": false,
      "t": 151714.1339999995,
      "d": 196.4283749999886,
      "v": 79
    },
    {
      "midi": 66,
      "hit": false,
      "t": 151714.1339999995,
      "d": 196.4283749999886,
      "v": 79
    },
    {
      "midi": 69,
      "hit": false,
      "t": 151714.1339999995,
      "d": 196.4283749999886,
      "v": 79
    },
    {
      "midi": 33,
      "hit": false,
      "t": 151714.1339999995,
      "d": 410.71387499998673,
      "v": 95
    },
    {
      "midi": 45,
      "hit": false,
      "t": 151714.1339999995,
      "d": 410.71387499998673,
      "v": 95
    },
    {
      "midi": 62,
      "hit": false,
      "t": 152142.7049999995,
      "d": 196.4283749999886,
      "v": 79
    },
    {
      "midi": 66,
      "hit": false,
      "t": 152142.7049999995,
      "d": 196.4283749999886,
      "v": 79
    },
    {
      "midi": 69,
      "hit": false,
      "t": 152142.7049999995,
      "d": 196.4283749999886,
      "v": 79
    },
    {
      "midi": 33,
      "hit": false,
      "t": 152142.7049999995,
      "d": 410.71387499998673,
      "v": 95
    },
    {
      "midi": 45,
      "hit": false,
      "t": 152142.7049999995,
      "d": 410.71387499998673,
      "v": 95
    },
    {
      "midi": 62,
      "hit": false,
      "t": 152571.2759999995,
      "d": 196.4283749999886,
      "v": 79
    },
    {
      "midi": 66,
      "hit": false,
      "t": 152571.2759999995,
      "d": 196.4283749999886,
      "v": 79
    },
    {
      "midi": 69,
      "hit": false,
      "t": 152571.2759999995,
      "d": 196.4283749999886,
      "v": 79
    },
    {
      "midi": 38,
      "hit": false,
      "t": 152571.2759999995,
      "d": 410.71387499998673,
      "v": 95
    },
    {
      "midi": 50,
      "hit": false,
      "t": 152571.2759999995,
      "d": 410.71387499998673,
      "v": 95
    },
    {
      "midi": 62,
      "hit": false,
      "t": 152999.84699999948,
      "d": 196.4283749999886,
      "v": 79
    },
    {
      "midi": 66,
      "hit": false,
      "t": 152999.84699999948,
      "d": 196.4283749999886,
      "v": 79
    },
    {
      "midi": 69,
      "hit": false,
      "t": 152999.84699999948,
      "d": 196.4283749999886,
      "v": 79
    },
    {
      "midi": 38,
      "hit": false,
      "t": 152999.84699999948,
      "d": 410.71387499998673,
      "v": 95
    },
    {
      "midi": 50,
      "hit": false,
      "t": 152999.84699999948,
      "d": 410.71387499998673,
      "v": 95
    },
    {
      "midi": 62,
      "hit": false,
      "t": 153428.41799999948,
      "d": 196.4283749999886,
      "v": 79
    },
    {
      "midi": 66,
      "hit": false,
      "t": 153428.41799999948,
      "d": 196.4283749999886,
      "v": 79
    },
    {
      "midi": 69,
      "hit": false,
      "t": 153428.41799999948,
      "d": 196.4283749999886,
      "v": 79
    },
    {
      "midi": 45,
      "hit": false,
      "t": 153428.41799999948,
      "d": 410.71387499998673,
      "v": 95
    },
    {
      "midi": 57,
      "hit": false,
      "t": 153428.41799999948,
      "d": 410.71387499998673,
      "v": 95
    },
    {
      "midi": 62,
      "hit": false,
      "t": 153856.98899999948,
      "d": 196.4283749999886,
      "v": 79
    },
    {
      "midi": 66,
      "hit": false,
      "t": 153856.98899999948,
      "d": 196.4283749999886,
      "v": 79
    },
    {
      "midi": 69,
      "hit": false,
      "t": 153856.98899999948,
      "d": 196.4283749999886,
      "v": 79
    },
    {
      "midi": 45,
      "hit": false,
      "t": 153856.98899999948,
      "d": 410.71387499998673,
      "v": 95
    },
    {
      "midi": 57,
      "hit": false,
      "t": 153856.98899999948,
      "d": 410.71387499998673,
      "v": 95
    },
    {
      "midi": 62,
      "hit": false,
      "t": 154285.55999999947,
      "d": 196.4283749999886,
      "v": 79
    },
    {
      "midi": 67,
      "hit": false,
      "t": 154285.55999999947,
      "d": 196.4283749999886,
      "v": 79
    },
    {
      "midi": 70,
      "hit": false,
      "t": 154285.55999999947,
      "d": 196.4283749999886,
      "v": 79
    },
    {
      "midi": 46,
      "hit": false,
      "t": 154285.55999999947,
      "d": 410.71387499998673,
      "v": 95
    },
    {
      "midi": 58,
      "hit": false,
      "t": 154285.55999999947,
      "d": 410.71387499998673,
      "v": 95
    },
    {
      "midi": 62,
      "hit": false,
      "t": 154714.13099999947,
      "d": 196.4283749999886,
      "v": 79
    },
    {
      "midi": 67,
      "hit": false,
      "t": 154714.13099999947,
      "d": 196.4283749999886,
      "v": 79
    },
    {
      "midi": 70,
      "hit": false,
      "t": 154714.13099999947,
      "d": 196.4283749999886,
      "v": 79
    },
    {
      "midi": 46,
      "hit": false,
      "t": 154714.13099999947,
      "d": 410.71387499998673,
      "v": 95
    },
    {
      "midi": 58,
      "hit": false,
      "t": 154714.13099999947,
      "d": 410.71387499998673,
      "v": 95
    },
    {
      "midi": 62,
      "hit": false,
      "t": 155142.70199999947,
      "d": 196.4283749999886,
      "v": 79
    },
    {
      "midi": 67,
      "hit": false,
      "t": 155142.70199999947,
      "d": 196.4283749999886,
      "v": 79
    },
    {
      "midi": 70,
      "hit": false,
      "t": 155142.70199999947,
      "d": 196.4283749999886,
      "v": 79
    },
    {
      "midi": 43,
      "hit": false,
      "t": 155142.70199999947,
      "d": 410.71387499998673,
      "v": 95
    },
    {
      "midi": 55,
      "hit": false,
      "t": 155142.70199999947,
      "d": 410.71387499998673,
      "v": 95
    },
    {
      "midi": 62,
      "hit": false,
      "t": 155571.27299999946,
      "d": 196.4283749999886,
      "v": 79
    },
    {
      "midi": 67,
      "hit": false,
      "t": 155571.27299999946,
      "d": 196.4283749999886,
      "v": 79
    },
    {
      "midi": 70,
      "hit": false,
      "t": 155571.27299999946,
      "d": 196.4283749999886,
      "v": 79
    },
    {
      "midi": 43,
      "hit": false,
      "t": 155571.27299999946,
      "d": 410.71387499998673,
      "v": 95
    },
    {
      "midi": 55,
      "hit": false,
      "t": 155571.27299999946,
      "d": 410.71387499998673,
      "v": 95
    },
    {
      "midi": 62,
      "hit": false,
      "t": 155999.84399999946,
      "d": 196.4283749999886,
      "v": 79
    },
    {
      "midi": 67,
      "hit": false,
      "t": 155999.84399999946,
      "d": 196.4283749999886,
      "v": 79
    },
    {
      "midi": 70,
      "hit": false,
      "t": 155999.84399999946,
      "d": 196.4283749999886,
      "v": 79
    },
    {
      "midi": 38,
      "hit": false,
      "t": 155999.84399999946,
      "d": 410.71387499998673,
      "v": 95
    },
    {
      "midi": 50,
      "hit": false,
      "t": 155999.84399999946,
      "d": 410.71387499998673,
      "v": 95
    },
    {
      "midi": 62,
      "hit": false,
      "t": 156428.41499999946,
      "d": 196.4283749999886,
      "v": 79
    },
    {
      "midi": 67,
      "hit": false,
      "t": 156428.41499999946,
      "d": 196.4283749999886,
      "v": 79
    },
    {
      "midi": 70,
      "hit": false,
      "t": 156428.41499999946,
      "d": 196.4283749999886,
      "v": 79
    },
    {
      "midi": 38,
      "hit": false,
      "t": 156428.41499999946,
      "d": 410.71387499998673,
      "v": 95
    },
    {
      "midi": 50,
      "hit": false,
      "t": 156428.41499999946,
      "d": 410.71387499998673,
      "v": 95
    },
    {
      "midi": 62,
      "hit": false,
      "t": 156856.98599999945,
      "d": 196.4283749999886,
      "v": 79
    },
    {
      "midi": 67,
      "hit": false,
      "t": 156856.98599999945,
      "d": 196.4283749999886,
      "v": 79
    },
    {
      "midi": 70,
      "hit": false,
      "t": 156856.98599999945,
      "d": 196.4283749999886,
      "v": 79
    },
    {
      "midi": 34,
      "hit": false,
      "t": 156856.98599999945,
      "d": 410.71387499998673,
      "v": 95
    },
    {
      "midi": 46,
      "hit": false,
      "t": 156856.98599999945,
      "d": 410.71387499998673,
      "v": 95
    },
    {
      "midi": 62,
      "hit": false,
      "t": 157285.55699999945,
      "d": 196.4283749999886,
      "v": 79
    },
    {
      "midi": 67,
      "hit": false,
      "t": 157285.55699999945,
      "d": 196.4283749999886,
      "v": 79
    },
    {
      "midi": 70,
      "hit": false,
      "t": 157285.55699999945,
      "d": 196.4283749999886,
      "v": 79
    },
    {
      "midi": 34,
      "hit": false,
      "t": 157285.55699999945,
      "d": 410.71387499998673,
      "v": 95
    },
    {
      "midi": 46,
      "hit": false,
      "t": 157285.55699999945,
      "d": 410.71387499998673,
      "v": 95
    },
    {
      "midi": 63,
      "hit": false,
      "t": 157714.12799999944,
      "d": 196.4283749999886,
      "v": 79
    },
    {
      "midi": 67,
      "hit": false,
      "t": 157714.12799999944,
      "d": 196.4283749999886,
      "v": 79
    },
    {
      "midi": 70,
      "hit": false,
      "t": 157714.12799999944,
      "d": 196.4283749999886,
      "v": 79
    },
    {
      "midi": 27,
      "hit": false,
      "t": 157714.12799999944,
      "d": 410.71387499998673,
      "v": 95
    },
    {
      "midi": 39,
      "hit": false,
      "t": 157714.12799999944,
      "d": 410.71387499998673,
      "v": 95
    },
    {
      "midi": 63,
      "hit": false,
      "t": 158142.69899999944,
      "d": 196.4283749999886,
      "v": 79
    },
    {
      "midi": 67,
      "hit": false,
      "t": 158142.69899999944,
      "d": 196.4283749999886,
      "v": 79
    },
    {
      "midi": 70,
      "hit": false,
      "t": 158142.69899999944,
      "d": 196.4283749999886,
      "v": 79
    },
    {
      "midi": 27,
      "hit": false,
      "t": 158142.69899999944,
      "d": 410.71387499998673,
      "v": 95
    },
    {
      "midi": 39,
      "hit": false,
      "t": 158142.69899999944,
      "d": 410.71387499998673,
      "v": 95
    },
    {
      "midi": 63,
      "hit": false,
      "t": 158571.26999999944,
      "d": 196.4283749999886,
      "v": 79
    },
    {
      "midi": 67,
      "hit": false,
      "t": 158571.26999999944,
      "d": 196.4283749999886,
      "v": 79
    },
    {
      "midi": 70,
      "hit": false,
      "t": 158571.26999999944,
      "d": 196.4283749999886,
      "v": 79
    },
    {
      "midi": 34,
      "hit": false,
      "t": 158571.26999999944,
      "d": 410.71387499998673,
      "v": 95
    },
    {
      "midi": 46,
      "hit": false,
      "t": 158571.26999999944,
      "d": 410.71387499998673,
      "v": 95
    },
    {
      "midi": 63,
      "hit": false,
      "t": 158999.84099999943,
      "d": 196.4283749999886,
      "v": 79
    },
    {
      "midi": 67,
      "hit": false,
      "t": 158999.84099999943,
      "d": 196.4283749999886,
      "v": 79
    },
    {
      "midi": 70,
      "hit": false,
      "t": 158999.84099999943,
      "d": 196.4283749999886,
      "v": 79
    },
    {
      "midi": 34,
      "hit": false,
      "t": 158999.84099999943,
      "d": 410.71387499998673,
      "v": 95
    },
    {
      "midi": 46,
      "hit": false,
      "t": 158999.84099999943,
      "d": 410.71387499998673,
      "v": 95
    },
    {
      "midi": 63,
      "hit": false,
      "t": 159428.41199999943,
      "d": 196.4283749999886,
      "v": 79
    },
    {
      "midi": 67,
      "hit": false,
      "t": 159428.41199999943,
      "d": 196.4283749999886,
      "v": 79
    },
    {
      "midi": 70,
      "hit": false,
      "t": 159428.41199999943,
      "d": 196.4283749999886,
      "v": 79
    },
    {
      "midi": 39,
      "hit": false,
      "t": 159428.41199999943,
      "d": 410.71387499998673,
      "v": 95
    },
    {
      "midi": 51,
      "hit": false,
      "t": 159428.41199999943,
      "d": 410.71387499998673,
      "v": 95
    },
    {
      "midi": 63,
      "hit": false,
      "t": 159856.98299999943,
      "d": 196.4283749999886,
      "v": 79
    },
    {
      "midi": 67,
      "hit": false,
      "t": 159856.98299999943,
      "d": 196.4283749999886,
      "v": 79
    },
    {
      "midi": 70,
      "hit": false,
      "t": 159856.98299999943,
      "d": 196.4283749999886,
      "v": 79
    },
    {
      "midi": 39,
      "hit": false,
      "t": 159856.98299999943,
      "d": 410.71387499998673,
      "v": 95
    },
    {
      "midi": 51,
      "hit": false,
      "t": 159856.98299999943,
      "d": 410.71387499998673,
      "v": 95
    },
    {
      "midi": 63,
      "hit": false,
      "t": 160285.55399999942,
      "d": 196.4283749999886,
      "v": 79
    },
    {
      "midi": 67,
      "hit": false,
      "t": 160285.55399999942,
      "d": 196.4283749999886,
      "v": 79
    },
    {
      "midi": 70,
      "hit": false,
      "t": 160285.55399999942,
      "d": 196.4283749999886,
      "v": 79
    },
    {
      "midi": 46,
      "hit": false,
      "t": 160285.55399999942,
      "d": 410.71387499998673,
      "v": 95
    },
    {
      "midi": 58,
      "hit": false,
      "t": 160285.55399999942,
      "d": 410.71387499998673,
      "v": 95
    },
    {
      "midi": 63,
      "hit": false,
      "t": 160714.12499999942,
      "d": 196.4283749999886,
      "v": 79
    },
    {
      "midi": 67,
      "hit": false,
      "t": 160714.12499999942,
      "d": 196.4283749999886,
      "v": 79
    },
    {
      "midi": 70,
      "hit": false,
      "t": 160714.12499999942,
      "d": 196.4283749999886,
      "v": 79
    },
    {
      "midi": 46,
      "hit": false,
      "t": 160714.12499999942,
      "d": 410.71387499998673,
      "v": 95
    },
    {
      "midi": 58,
      "hit": false,
      "t": 160714.12499999942,
      "d": 410.71387499998673,
      "v": 95
    },
    {
      "midi": 62,
      "hit": false,
      "t": 161142.6959999994,
      "d": 196.4283749999886,
      "v": 79
    },
    {
      "midi": 65,
      "hit": false,
      "t": 161142.6959999994,
      "d": 196.4283749999886,
      "v": 79
    },
    {
      "midi": 70,
      "hit": false,
      "t": 161142.6959999994,
      "d": 196.4283749999886,
      "v": 79
    },
    {
      "midi": 46,
      "hit": false,
      "t": 161142.6959999994,
      "d": 410.71387499998673,
      "v": 95
    },
    {
      "midi": 58,
      "hit": false,
      "t": 161142.6959999994,
      "d": 410.71387499998673,
      "v": 95
    },
    {
      "midi": 62,
      "hit": false,
      "t": 161571.2669999994,
      "d": 196.4283749999886,
      "v": 79
    },
    {
      "midi": 65,
      "hit": false,
      "t": 161571.2669999994,
      "d": 196.4283749999886,
      "v": 79
    },
    {
      "midi": 70,
      "hit": false,
      "t": 161571.2669999994,
      "d": 196.4283749999886,
      "v": 79
    },
    {
      "midi": 46,
      "hit": false,
      "t": 161571.2669999994,
      "d": 410.71387499998673,
      "v": 95
    },
    {
      "midi": 58,
      "hit": false,
      "t": 161571.2669999994,
      "d": 410.71387499998673,
      "v": 95
    },
    {
      "midi": 62,
      "hit": false,
      "t": 161999.8379999994,
      "d": 196.4283749999886,
      "v": 79
    },
    {
      "midi": 65,
      "hit": false,
      "t": 161999.8379999994,
      "d": 196.4283749999886,
      "v": 79
    },
    {
      "midi": 70,
      "hit": false,
      "t": 161999.8379999994,
      "d": 196.4283749999886,
      "v": 79
    },
    {
      "midi": 41,
      "hit": false,
      "t": 161999.8379999994,
      "d": 410.71387499998673,
      "v": 95
    },
    {
      "midi": 53,
      "hit": false,
      "t": 161999.8379999994,
      "d": 410.71387499998673,
      "v": 95
    },
    {
      "midi": 62,
      "hit": false,
      "t": 162428.4089999994,
      "d": 196.4283749999886,
      "v": 79
    },
    {
      "midi": 65,
      "hit": false,
      "t": 162428.4089999994,
      "d": 196.4283749999886,
      "v": 79
    },
    {
      "midi": 70,
      "hit": false,
      "t": 162428.4089999994,
      "d": 196.4283749999886,
      "v": 79
    },
    {
      "midi": 41,
      "hit": false,
      "t": 162428.4089999994,
      "d": 410.71387499998673,
      "v": 95
    },
    {
      "midi": 53,
      "hit": false,
      "t": 162428.4089999994,
      "d": 410.71387499998673,
      "v": 95
    },
    {
      "midi": 62,
      "hit": false,
      "t": 162856.9799999994,
      "d": 196.4283749999886,
      "v": 79
    },
    {
      "midi": 65,
      "hit": false,
      "t": 162856.9799999994,
      "d": 196.4283749999886,
      "v": 79
    },
    {
      "midi": 70,
      "hit": false,
      "t": 162856.9799999994,
      "d": 196.4283749999886,
      "v": 79
    },
    {
      "midi": 38,
      "hit": false,
      "t": 162856.9799999994,
      "d": 410.71387499998673,
      "v": 95
    },
    {
      "midi": 50,
      "hit": false,
      "t": 162856.9799999994,
      "d": 410.71387499998673,
      "v": 95
    },
    {
      "midi": 62,
      "hit": false,
      "t": 163285.5509999994,
      "d": 196.4283749999886,
      "v": 79
    },
    {
      "midi": 65,
      "hit": false,
      "t": 163285.5509999994,
      "d": 196.4283749999886,
      "v": 79
    },
    {
      "midi": 70,
      "hit": false,
      "t": 163285.5509999994,
      "d": 196.4283749999886,
      "v": 79
    },
    {
      "midi": 38,
      "hit": false,
      "t": 163285.5509999994,
      "d": 410.71387499998673,
      "v": 95
    },
    {
      "midi": 50,
      "hit": false,
      "t": 163285.5509999994,
      "d": 410.71387499998673,
      "v": 95
    },
    {
      "midi": 62,
      "hit": false,
      "t": 163714.1219999994,
      "d": 196.4283749999886,
      "v": 79
    },
    {
      "midi": 65,
      "hit": false,
      "t": 163714.1219999994,
      "d": 196.4283749999886,
      "v": 79
    },
    {
      "midi": 70,
      "hit": false,
      "t": 163714.1219999994,
      "d": 196.4283749999886,
      "v": 79
    },
    {
      "midi": 34,
      "hit": false,
      "t": 163714.1219999994,
      "d": 410.71387499998673,
      "v": 95
    },
    {
      "midi": 46,
      "hit": false,
      "t": 163714.1219999994,
      "d": 410.71387499998673,
      "v": 95
    },
    {
      "midi": 62,
      "hit": false,
      "t": 164142.6929999994,
      "d": 196.4283749999886,
      "v": 79
    },
    {
      "midi": 65,
      "hit": false,
      "t": 164142.6929999994,
      "d": 196.4283749999886,
      "v": 79
    },
    {
      "midi": 70,
      "hit": false,
      "t": 164142.6929999994,
      "d": 196.4283749999886,
      "v": 79
    },
    {
      "midi": 34,
      "hit": false,
      "t": 164142.6929999994,
      "d": 410.71387499998673,
      "v": 95
    },
    {
      "midi": 46,
      "hit": false,
      "t": 164142.6929999994,
      "d": 410.71387499998673,
      "v": 95
    },
    {
      "midi": 62,
      "hit": false,
      "t": 164571.26399999938,
      "d": 196.4283749999886,
      "v": 79
    },
    {
      "midi": 66,
      "hit": false,
      "t": 164571.26399999938,
      "d": 196.4283749999886,
      "v": 79
    },
    {
      "midi": 69,
      "hit": false,
      "t": 164571.26399999938,
      "d": 196.4283749999886,
      "v": 79
    },
    {
      "midi": 26,
      "hit": false,
      "t": 164571.26399999938,
      "d": 410.71387499998673,
      "v": 95
    },
    {
      "midi": 38,
      "hit": false,
      "t": 164571.26399999938,
      "d": 410.71387499998673,
      "v": 95
    },
    {
      "midi": 62,
      "hit": false,
      "t": 164999.83499999938,
      "d": 196.4283749999886,
      "v": 79
    },
    {
      "midi": 66,
      "hit": false,
      "t": 164999.83499999938,
      "d": 196.4283749999886,
      "v": 79
    },
    {
      "midi": 69,
      "hit": false,
      "t": 164999.83499999938,
      "d": 196.4283749999886,
      "v": 79
    },
    {
      "midi": 26,
      "hit": false,
      "t": 164999.83499999938,
      "d": 410.71387499998673,
      "v": 95
    },
    {
      "midi": 38,
      "hit": false,
      "t": 164999.83499999938,
      "d": 410.71387499998673,
      "v": 95
    },
    {
      "midi": 62,
      "hit": false,
      "t": 165428.40599999938,
      "d": 196.4283749999886,
      "v": 79
    },
    {
      "midi": 66,
      "hit": false,
      "t": 165428.40599999938,
      "d": 196.4283749999886,
      "v": 79
    },
    {
      "midi": 69,
      "hit": false,
      "t": 165428.40599999938,
      "d": 196.4283749999886,
      "v": 79
    },
    {
      "midi": 33,
      "hit": false,
      "t": 165428.40599999938,
      "d": 410.71387499998673,
      "v": 95
    },
    {
      "midi": 45,
      "hit": false,
      "t": 165428.40599999938,
      "d": 410.71387499998673,
      "v": 95
    },
    {
      "midi": 62,
      "hit": false,
      "t": 165856.97699999937,
      "d": 196.4283749999886,
      "v": 79
    },
    {
      "midi": 66,
      "hit": false,
      "t": 165856.97699999937,
      "d": 196.4283749999886,
      "v": 79
    },
    {
      "midi": 69,
      "hit": false,
      "t": 165856.97699999937,
      "d": 196.4283749999886,
      "v": 79
    },
    {
      "midi": 33,
      "hit": false,
      "t": 165856.97699999937,
      "d": 410.71387499998673,
      "v": 95
    },
    {
      "midi": 45,
      "hit": false,
      "t": 165856.97699999937,
      "d": 410.71387499998673,
      "v": 95
    },
    {
      "midi": 62,
      "hit": false,
      "t": 166285.54799999937,
      "d": 196.4283749999886,
      "v": 79
    },
    {
      "midi": 66,
      "hit": false,
      "t": 166285.54799999937,
      "d": 196.4283749999886,
      "v": 79
    },
    {
      "midi": 69,
      "hit": false,
      "t": 166285.54799999937,
      "d": 196.4283749999886,
      "v": 79
    },
    {
      "midi": 38,
      "hit": false,
      "t": 166285.54799999937,
      "d": 410.71387499998673,
      "v": 95
    },
    {
      "midi": 50,
      "hit": false,
      "t": 166285.54799999937,
      "d": 410.71387499998673,
      "v": 95
    },
    {
      "midi": 62,
      "hit": false,
      "t": 166714.11899999937,
      "d": 196.4283749999886,
      "v": 79
    },
    {
      "midi": 66,
      "hit": false,
      "t": 166714.11899999937,
      "d": 196.4283749999886,
      "v": 79
    },
    {
      "midi": 69,
      "hit": false,
      "t": 166714.11899999937,
      "d": 196.4283749999886,
      "v": 79
    },
    {
      "midi": 38,
      "hit": false,
      "t": 166714.11899999937,
      "d": 410.71387499998673,
      "v": 95
    },
    {
      "midi": 50,
      "hit": false,
      "t": 166714.11899999937,
      "d": 410.71387499998673,
      "v": 95
    },
    {
      "midi": 62,
      "hit": false,
      "t": 167142.68999999936,
      "d": 196.4283749999886,
      "v": 79
    },
    {
      "midi": 66,
      "hit": false,
      "t": 167142.68999999936,
      "d": 196.4283749999886,
      "v": 79
    },
    {
      "midi": 69,
      "hit": false,
      "t": 167142.68999999936,
      "d": 196.4283749999886,
      "v": 79
    },
    {
      "midi": 45,
      "hit": false,
      "t": 167142.68999999936,
      "d": 410.71387499998673,
      "v": 95
    },
    {
      "midi": 57,
      "hit": false,
      "t": 167142.68999999936,
      "d": 410.71387499998673,
      "v": 95
    },
    {
      "midi": 62,
      "hit": false,
      "t": 167571.26099999936,
      "d": 196.4283749999886,
      "v": 79
    },
    {
      "midi": 66,
      "hit": false,
      "t": 167571.26099999936,
      "d": 196.4283749999886,
      "v": 79
    },
    {
      "midi": 69,
      "hit": false,
      "t": 167571.26099999936,
      "d": 196.4283749999886,
      "v": 79
    },
    {
      "midi": 45,
      "hit": false,
      "t": 167571.26099999936,
      "d": 410.71387499998673,
      "v": 95
    },
    {
      "midi": 57,
      "hit": false,
      "t": 167571.26099999936,
      "d": 410.71387499998673,
      "v": 95
    },
    {
      "midi": 62,
      "hit": false,
      "t": 167999.83199999935,
      "d": 196.4283749999886,
      "v": 79
    },
    {
      "midi": 67,
      "hit": false,
      "t": 167999.83199999935,
      "d": 196.4283749999886,
      "v": 79
    },
    {
      "midi": 70,
      "hit": false,
      "t": 167999.83199999935,
      "d": 196.4283749999886,
      "v": 79
    },
    {
      "midi": 46,
      "hit": false,
      "t": 167999.83199999935,
      "d": 410.71387499998673,
      "v": 95
    },
    {
      "midi": 58,
      "hit": false,
      "t": 167999.83199999935,
      "d": 410.71387499998673,
      "v": 95
    },
    {
      "midi": 62,
      "hit": false,
      "t": 168428.40299999935,
      "d": 196.4283749999886,
      "v": 79
    },
    {
      "midi": 67,
      "hit": false,
      "t": 168428.40299999935,
      "d": 196.4283749999886,
      "v": 79
    },
    {
      "midi": 70,
      "hit": false,
      "t": 168428.40299999935,
      "d": 196.4283749999886,
      "v": 79
    },
    {
      "midi": 46,
      "hit": false,
      "t": 168428.40299999935,
      "d": 410.71387499998673,
      "v": 95
    },
    {
      "midi": 58,
      "hit": false,
      "t": 168428.40299999935,
      "d": 410.71387499998673,
      "v": 95
    },
    {
      "midi": 62,
      "hit": false,
      "t": 168856.97399999935,
      "d": 196.4283749999886,
      "v": 79
    },
    {
      "midi": 67,
      "hit": false,
      "t": 168856.97399999935,
      "d": 196.4283749999886,
      "v": 79
    },
    {
      "midi": 70,
      "hit": false,
      "t": 168856.97399999935,
      "d": 196.4283749999886,
      "v": 79
    },
    {
      "midi": 43,
      "hit": false,
      "t": 168856.97399999935,
      "d": 410.71387499998673,
      "v": 95
    },
    {
      "midi": 55,
      "hit": false,
      "t": 168856.97399999935,
      "d": 410.71387499998673,
      "v": 95
    },
    {
      "midi": 62,
      "hit": false,
      "t": 169285.54499999934,
      "d": 196.4283749999886,
      "v": 79
    },
    {
      "midi": 67,
      "hit": false,
      "t": 169285.54499999934,
      "d": 196.4283749999886,
      "v": 79
    },
    {
      "midi": 70,
      "hit": false,
      "t": 169285.54499999934,
      "d": 196.4283749999886,
      "v": 79
    },
    {
      "midi": 43,
      "hit": false,
      "t": 169285.54499999934,
      "d": 410.71387499998673,
      "v": 95
    },
    {
      "midi": 55,
      "hit": false,
      "t": 169285.54499999934,
      "d": 410.71387499998673,
      "v": 95
    },
    {
      "midi": 62,
      "hit": false,
      "t": 169714.11599999934,
      "d": 196.4283749999886,
      "v": 79
    },
    {
      "midi": 67,
      "hit": false,
      "t": 169714.11599999934,
      "d": 196.4283749999886,
      "v": 79
    },
    {
      "midi": 70,
      "hit": false,
      "t": 169714.11599999934,
      "d": 196.4283749999886,
      "v": 79
    },
    {
      "midi": 38,
      "hit": false,
      "t": 169714.11599999934,
      "d": 410.71387499998673,
      "v": 95
    },
    {
      "midi": 50,
      "hit": false,
      "t": 169714.11599999934,
      "d": 410.71387499998673,
      "v": 95
    },
    {
      "midi": 62,
      "hit": false,
      "t": 170142.68699999934,
      "d": 196.4283749999886,
      "v": 79
    },
    {
      "midi": 67,
      "hit": false,
      "t": 170142.68699999934,
      "d": 196.4283749999886,
      "v": 79
    },
    {
      "midi": 70,
      "hit": false,
      "t": 170142.68699999934,
      "d": 196.4283749999886,
      "v": 79
    },
    {
      "midi": 38,
      "hit": false,
      "t": 170142.68699999934,
      "d": 410.71387499998673,
      "v": 95
    },
    {
      "midi": 50,
      "hit": false,
      "t": 170142.68699999934,
      "d": 410.71387499998673,
      "v": 95
    },
    {
      "midi": 62,
      "hit": false,
      "t": 170571.25799999933,
      "d": 196.4283749999886,
      "v": 79
    },
    {
      "midi": 67,
      "hit": false,
      "t": 170571.25799999933,
      "d": 196.4283749999886,
      "v": 79
    },
    {
      "midi": 70,
      "hit": false,
      "t": 170571.25799999933,
      "d": 196.4283749999886,
      "v": 79
    },
    {
      "midi": 34,
      "hit": false,
      "t": 170571.25799999933,
      "d": 410.71387499998673,
      "v": 95
    },
    {
      "midi": 46,
      "hit": false,
      "t": 170571.25799999933,
      "d": 410.71387499998673,
      "v": 95
    },
    {
      "midi": 62,
      "hit": false,
      "t": 170999.82899999933,
      "d": 196.4283749999886,
      "v": 79
    },
    {
      "midi": 67,
      "hit": false,
      "t": 170999.82899999933,
      "d": 196.4283749999886,
      "v": 79
    },
    {
      "midi": 70,
      "hit": false,
      "t": 170999.82899999933,
      "d": 196.4283749999886,
      "v": 79
    },
    {
      "midi": 34,
      "hit": false,
      "t": 170999.82899999933,
      "d": 410.71387499998673,
      "v": 95
    },
    {
      "midi": 46,
      "hit": false,
      "t": 170999.82899999933,
      "d": 410.71387499998673,
      "v": 95
    },
    {
      "midi": 63,
      "hit": false,
      "t": 171428.39999999932,
      "d": 196.4283749999886,
      "v": 79
    },
    {
      "midi": 67,
      "hit": false,
      "t": 171428.39999999932,
      "d": 196.4283749999886,
      "v": 79
    },
    {
      "midi": 70,
      "hit": false,
      "t": 171428.39999999932,
      "d": 196.4283749999886,
      "v": 79
    },
    {
      "midi": 27,
      "hit": false,
      "t": 171428.39999999932,
      "d": 410.71387499998673,
      "v": 95
    },
    {
      "midi": 39,
      "hit": false,
      "t": 171428.39999999932,
      "d": 410.71387499998673,
      "v": 95
    },
    {
      "midi": 63,
      "hit": false,
      "t": 171856.97099999932,
      "d": 196.4283749999886,
      "v": 79
    },
    {
      "midi": 67,
      "hit": false,
      "t": 171856.97099999932,
      "d": 196.4283749999886,
      "v": 79
    },
    {
      "midi": 70,
      "hit": false,
      "t": 171856.97099999932,
      "d": 196.4283749999886,
      "v": 79
    },
    {
      "midi": 27,
      "hit": false,
      "t": 171856.97099999932,
      "d": 410.71387499998673,
      "v": 95
    },
    {
      "midi": 39,
      "hit": false,
      "t": 171856.97099999932,
      "d": 410.71387499998673,
      "v": 95
    },
    {
      "midi": 63,
      "hit": false,
      "t": 172285.54199999932,
      "d": 196.4283749999886,
      "v": 79
    },
    {
      "midi": 67,
      "hit": false,
      "t": 172285.54199999932,
      "d": 196.4283749999886,
      "v": 79
    },
    {
      "midi": 70,
      "hit": false,
      "t": 172285.54199999932,
      "d": 196.4283749999886,
      "v": 79
    },
    {
      "midi": 34,
      "hit": false,
      "t": 172285.54199999932,
      "d": 410.71387499998673,
      "v": 95
    },
    {
      "midi": 46,
      "hit": false,
      "t": 172285.54199999932,
      "d": 410.71387499998673,
      "v": 95
    },
    {
      "midi": 63,
      "hit": false,
      "t": 172714.1129999993,
      "d": 196.4283749999886,
      "v": 79
    },
    {
      "midi": 67,
      "hit": false,
      "t": 172714.1129999993,
      "d": 196.4283749999886,
      "v": 79
    },
    {
      "midi": 70,
      "hit": false,
      "t": 172714.1129999993,
      "d": 196.4283749999886,
      "v": 79
    },
    {
      "midi": 34,
      "hit": false,
      "t": 172714.1129999993,
      "d": 410.71387499998673,
      "v": 95
    },
    {
      "midi": 46,
      "hit": false,
      "t": 172714.1129999993,
      "d": 410.71387499998673,
      "v": 95
    },
    {
      "midi": 63,
      "hit": false,
      "t": 173142.6839999993,
      "d": 196.4283749999886,
      "v": 79
    },
    {
      "midi": 67,
      "hit": false,
      "t": 173142.6839999993,
      "d": 196.4283749999886,
      "v": 79
    },
    {
      "midi": 70,
      "hit": false,
      "t": 173142.6839999993,
      "d": 196.4283749999886,
      "v": 79
    },
    {
      "midi": 39,
      "hit": false,
      "t": 173142.6839999993,
      "d": 410.71387499998673,
      "v": 95
    },
    {
      "midi": 51,
      "hit": false,
      "t": 173142.6839999993,
      "d": 410.71387499998673,
      "v": 95
    },
    {
      "midi": 63,
      "hit": false,
      "t": 173571.2549999993,
      "d": 196.4283749999886,
      "v": 79
    },
    {
      "midi": 67,
      "hit": false,
      "t": 173571.2549999993,
      "d": 196.4283749999886,
      "v": 79
    },
    {
      "midi": 70,
      "hit": false,
      "t": 173571.2549999993,
      "d": 196.4283749999886,
      "v": 79
    },
    {
      "midi": 39,
      "hit": false,
      "t": 173571.2549999993,
      "d": 410.71387499998673,
      "v": 95
    },
    {
      "midi": 51,
      "hit": false,
      "t": 173571.2549999993,
      "d": 410.71387499998673,
      "v": 95
    },
    {
      "midi": 63,
      "hit": false,
      "t": 173999.8259999993,
      "d": 196.4283749999886,
      "v": 79
    },
    {
      "midi": 67,
      "hit": false,
      "t": 173999.8259999993,
      "d": 196.4283749999886,
      "v": 79
    },
    {
      "midi": 70,
      "hit": false,
      "t": 173999.8259999993,
      "d": 196.4283749999886,
      "v": 79
    },
    {
      "midi": 46,
      "hit": false,
      "t": 173999.8259999993,
      "d": 410.71387499998673,
      "v": 95
    },
    {
      "midi": 58,
      "hit": false,
      "t": 173999.8259999993,
      "d": 410.71387499998673,
      "v": 95
    },
    {
      "midi": 63,
      "hit": false,
      "t": 174428.3969999993,
      "d": 196.4283749999886,
      "v": 79
    },
    {
      "midi": 67,
      "hit": false,
      "t": 174428.3969999993,
      "d": 196.4283749999886,
      "v": 79
    },
    {
      "midi": 70,
      "hit": false,
      "t": 174428.3969999993,
      "d": 196.4283749999886,
      "v": 79
    },
    {
      "midi": 46,
      "hit": false,
      "t": 174428.3969999993,
      "d": 410.71387499998673,
      "v": 95
    },
    {
      "midi": 58,
      "hit": false,
      "t": 174428.3969999993,
      "d": 410.71387499998673,
      "v": 95
    },
    {
      "midi": 62,
      "hit": false,
      "t": 174856.9679999993,
      "d": 196.4283749999886,
      "v": 79
    },
    {
      "midi": 65,
      "hit": false,
      "t": 174856.9679999993,
      "d": 196.4283749999886,
      "v": 79
    },
    {
      "midi": 70,
      "hit": false,
      "t": 174856.9679999993,
      "d": 196.4283749999886,
      "v": 79
    },
    {
      "midi": 46,
      "hit": false,
      "t": 174856.9679999993,
      "d": 410.71387499998673,
      "v": 95
    },
    {
      "midi": 58,
      "hit": false,
      "t": 174856.9679999993,
      "d": 410.71387499998673,
      "v": 95
    },
    {
      "midi": 62,
      "hit": false,
      "t": 175285.5389999993,
      "d": 196.4283749999886,
      "v": 79
    },
    {
      "midi": 65,
      "hit": false,
      "t": 175285.5389999993,
      "d": 196.4283749999886,
      "v": 79
    },
    {
      "midi": 70,
      "hit": false,
      "t": 175285.5389999993,
      "d": 196.4283749999886,
      "v": 79
    },
    {
      "midi": 46,
      "hit": false,
      "t": 175285.5389999993,
      "d": 410.71387499998673,
      "v": 95
    },
    {
      "midi": 58,
      "hit": false,
      "t": 175285.5389999993,
      "d": 410.71387499998673,
      "v": 95
    },
    {
      "midi": 62,
      "hit": false,
      "t": 175714.1099999993,
      "d": 196.4283749999886,
      "v": 79
    },
    {
      "midi": 65,
      "hit": false,
      "t": 175714.1099999993,
      "d": 196.4283749999886,
      "v": 79
    },
    {
      "midi": 70,
      "hit": false,
      "t": 175714.1099999993,
      "d": 196.4283749999886,
      "v": 79
    },
    {
      "midi": 41,
      "hit": false,
      "t": 175714.1099999993,
      "d": 410.71387499998673,
      "v": 95
    },
    {
      "midi": 53,
      "hit": false,
      "t": 175714.1099999993,
      "d": 410.71387499998673,
      "v": 95
    },
    {
      "midi": 62,
      "hit": false,
      "t": 176142.68099999928,
      "d": 196.4283749999886,
      "v": 79
    },
    {
      "midi": 65,
      "hit": false,
      "t": 176142.68099999928,
      "d": 196.4283749999886,
      "v": 79
    },
    {
      "midi": 70,
      "hit": false,
      "t": 176142.68099999928,
      "d": 196.4283749999886,
      "v": 79
    },
    {
      "midi": 41,
      "hit": false,
      "t": 176142.68099999928,
      "d": 410.71387499998673,
      "v": 95
    },
    {
      "midi": 53,
      "hit": false,
      "t": 176142.68099999928,
      "d": 410.71387499998673,
      "v": 95
    },
    {
      "midi": 62,
      "hit": false,
      "t": 176571.25199999928,
      "d": 196.4283749999886,
      "v": 79
    },
    {
      "midi": 65,
      "hit": false,
      "t": 176571.25199999928,
      "d": 196.4283749999886,
      "v": 79
    },
    {
      "midi": 70,
      "hit": false,
      "t": 176571.25199999928,
      "d": 196.4283749999886,
      "v": 79
    },
    {
      "midi": 38,
      "hit": false,
      "t": 176571.25199999928,
      "d": 410.71387499998673,
      "v": 95
    },
    {
      "midi": 50,
      "hit": false,
      "t": 176571.25199999928,
      "d": 410.71387499998673,
      "v": 95
    },
    {
      "midi": 62,
      "hit": false,
      "t": 176999.82299999928,
      "d": 196.4283749999886,
      "v": 79
    },
    {
      "midi": 65,
      "hit": false,
      "t": 176999.82299999928,
      "d": 196.4283749999886,
      "v": 79
    },
    {
      "midi": 70,
      "hit": false,
      "t": 176999.82299999928,
      "d": 196.4283749999886,
      "v": 79
    },
    {
      "midi": 38,
      "hit": false,
      "t": 176999.82299999928,
      "d": 410.71387499998673,
      "v": 95
    },
    {
      "midi": 50,
      "hit": false,
      "t": 176999.82299999928,
      "d": 410.71387499998673,
      "v": 95
    },
    {
      "midi": 62,
      "hit": false,
      "t": 177428.39399999927,
      "d": 196.4283749999886,
      "v": 79
    },
    {
      "midi": 65,
      "hit": false,
      "t": 177428.39399999927,
      "d": 196.4283749999886,
      "v": 79
    },
    {
      "midi": 70,
      "hit": false,
      "t": 177428.39399999927,
      "d": 196.4283749999886,
      "v": 79
    },
    {
      "midi": 34,
      "hit": false,
      "t": 177428.39399999927,
      "d": 410.71387499998673,
      "v": 95
    },
    {
      "midi": 46,
      "hit": false,
      "t": 177428.39399999927,
      "d": 410.71387499998673,
      "v": 95
    },
    {
      "midi": 62,
      "hit": false,
      "t": 177856.96499999927,
      "d": 196.4283749999886,
      "v": 79
    },
    {
      "midi": 65,
      "hit": false,
      "t": 177856.96499999927,
      "d": 196.4283749999886,
      "v": 79
    },
    {
      "midi": 70,
      "hit": false,
      "t": 177856.96499999927,
      "d": 196.4283749999886,
      "v": 79
    },
    {
      "midi": 34,
      "hit": false,
      "t": 177856.96499999927,
      "d": 410.71387499998673,
      "v": 95
    },
    {
      "midi": 46,
      "hit": false,
      "t": 177856.96499999927,
      "d": 410.71387499998673,
      "v": 95
    },
    {
      "midi": 50,
      "hit": false,
      "t": 178285.53599999927,
      "d": 839.2848750000121,
      "v": 95
    },
    {
      "midi": 54,
      "hit": false,
      "t": 178285.53599999927,
      "d": 839.2848750000121,
      "v": 95
    },
    {
      "midi": 57,
      "hit": false,
      "t": 178285.53599999927,
      "d": 839.2848750000121,
      "v": 95
    },
    {
      "midi": 62,
      "hit": false,
      "t": 178285.53599999927,
      "d": 839.2848750000121,
      "v": 95
    },
    {
      "midi": 26,
      "hit": false,
      "t": 178285.53599999927,
      "d": 3410.7108749999898,
      "v": 127
    },
    {
      "midi": 38,
      "hit": false,
      "t": 178285.53599999927,
      "d": 3410.7108749999898,
      "v": 127
    },
    {
      "midi": 69,
      "hit": false,
      "t": 179142.6779999993,
      "d": 410.71387499998673,
      "v": 79
    },
    {
      "midi": 74,
      "hit": false,
      "t": 179142.6779999993,
      "d": 410.71387499998673,
      "v": 79
    },
    {
      "midi": 78,
      "hit": false,
      "t": 179142.6779999993,
      "d": 410.71387499998673,
      "v": 79
    },
    {
      "midi": 69,
      "hit": false,
      "t": 179571.24899999928,
      "d": 410.71387499998673,
      "v": 79
    },
    {
      "midi": 74,
      "hit": false,
      "t": 179571.24899999928,
      "d": 410.71387499998673,
      "v": 79
    },
    {
      "midi": 78,
      "hit": false,
      "t": 179571.24899999928,
      "d": 410.71387499998673,
      "v": 79
    },
    {
      "midi": 66,
      "hit": false,
      "t": 179999.81999999928,
      "d": 410.71387499998673,
      "v": 79
    },
    {
      "midi": 69,
      "hit": false,
      "t": 179999.81999999928,
      "d": 410.71387499998673,
      "v": 79
    },
    {
      "midi": 74,
      "hit": false,
      "t": 179999.81999999928,
      "d": 410.71387499998673,
      "v": 79
    },
    {
      "midi": 66,
      "hit": false,
      "t": 180428.39099999928,
      "d": 410.71387499998673,
      "v": 79
    },
    {
      "midi": 69,
      "hit": false,
      "t": 180428.39099999928,
      "d": 410.71387499998673,
      "v": 79
    },
    {
      "midi": 74,
      "hit": false,
      "t": 180428.39099999928,
      "d": 410.71387499998673,
      "v": 79
    },
    {
      "midi": 62,
      "hit": false,
      "t": 180856.96199999927,
      "d": 410.71387499998673,
      "v": 79
    },
    {
      "midi": 66,
      "hit": false,
      "t": 180856.96199999927,
      "d": 410.71387499998673,
      "v": 79
    },
    {
      "midi": 69,
      "hit": false,
      "t": 180856.96199999927,
      "d": 410.71387499998673,
      "v": 79
    },
    {
      "midi": 62,
      "hit": false,
      "t": 181285.53299999927,
      "d": 410.71387499998673,
      "v": 79
    },
    {
      "midi": 66,
      "hit": false,
      "t": 181285.53299999927,
      "d": 410.71387499998673,
      "v": 79
    },
    {
      "midi": 69,
      "hit": false,
      "t": 181285.53299999927,
      "d": 410.71387499998673,
      "v": 79
    },
    {
      "midi": 27,
      "hit": false,
      "t": 181714.10399999926,
      "d": 410.71387499998673,
      "v": 95
    },
    {
      "midi": 39,
      "hit": false,
      "t": 181714.10399999926,
      "d": 410.71387499998673,
      "v": 95
    },
    {
      "midi": 55,
      "hit": false,
      "t": 181714.10399999926,
      "d": 410.71387499998673,
      "v": 79
    },
    {
      "midi": 60,
      "hit": false,
      "t": 181714.10399999926,
      "d": 410.71387499998673,
      "v": 79
    },
    {
      "midi": 63,
      "hit": false,
      "t": 181714.10399999926,
      "d": 410.71387499998673,
      "v": 79
    },
    {
      "midi": 27,
      "hit": false,
      "t": 182142.67499999926,
      "d": 410.71387499998673,
      "v": 95
    },
    {
      "midi": 39,
      "hit": false,
      "t": 182142.67499999926,
      "d": 410.71387499998673,
      "v": 95
    },
    {
      "midi": 55,
      "hit": false,
      "t": 182142.67499999926,
      "d": 410.71387499998673,
      "v": 79
    },
    {
      "midi": 60,
      "hit": false,
      "t": 182142.67499999926,
      "d": 410.71387499998673,
      "v": 79
    },
    {
      "midi": 63,
      "hit": false,
      "t": 182142.67499999926,
      "d": 410.71387499998673,
      "v": 79
    },
    {
      "midi": 31,
      "hit": false,
      "t": 182571.24599999926,
      "d": 410.71387499998673,
      "v": 95
    },
    {
      "midi": 43,
      "hit": false,
      "t": 182571.24599999926,
      "d": 410.71387499998673,
      "v": 95
    },
    {
      "midi": 60,
      "hit": false,
      "t": 182571.24599999926,
      "d": 410.71387499998673,
      "v": 79
    },
    {
      "midi": 63,
      "hit": false,
      "t": 182571.24599999926,
      "d": 410.71387499998673,
      "v": 79
    },
    {
      "midi": 67,
      "hit": false,
      "t": 182571.24599999926,
      "d": 410.71387499998673,
      "v": 79
    },
    {
      "midi": 31,
      "hit": false,
      "t": 182999.81699999925,
      "d": 410.71387499998673,
      "v": 95
    },
    {
      "midi": 43,
      "hit": false,
      "t": 182999.81699999925,
      "d": 410.71387499998673,
      "v": 95
    },
    {
      "midi": 60,
      "hit": false,
      "t": 182999.81699999925,
      "d": 410.71387499998673,
      "v": 79
    },
    {
      "midi": 63,
      "hit": false,
      "t": 182999.81699999925,
      "d": 410.71387499998673,
      "v": 79
    },
    {
      "midi": 67,
      "hit": false,
      "t": 182999.81699999925,
      "d": 410.71387499998673,
      "v": 79
    },
    {
      "midi": 36,
      "hit": false,
      "t": 183428.38799999925,
      "d": 410.71387499998673,
      "v": 95
    },
    {
      "midi": 48,
      "hit": false,
      "t": 183428.38799999925,
      "d": 410.71387499998673,
      "v": 95
    },
    {
      "midi": 63,
      "hit": false,
      "t": 183428.38799999925,
      "d": 410.71387499998673,
      "v": 79
    },
    {
      "midi": 67,
      "hit": false,
      "t": 183428.38799999925,
      "d": 410.71387499998673,
      "v": 79
    },
    {
      "midi": 72,
      "hit": false,
      "t": 183428.38799999925,
      "d": 410.71387499998673,
      "v": 79
    },
    {
      "midi": 36,
      "hit": false,
      "t": 183856.95899999925,
      "d": 410.71387499998673,
      "v": 95
    },
    {
      "midi": 48,
      "hit": false,
      "t": 183856.95899999925,
      "d": 410.71387499998673,
      "v": 95
    },
    {
      "midi": 63,
      "hit": false,
      "t": 183856.95899999925,
      "d": 410.71387499998673,
      "v": 79
    },
    {
      "midi": 67,
      "hit": false,
      "t": 183856.95899999925,
      "d": 410.71387499998673,
      "v": 79
    },
    {
      "midi": 72,
      "hit": false,
      "t": 183856.95899999925,
      "d": 410.71387499998673,
      "v": 79
    },
    {
      "midi": 35,
      "hit": false,
      "t": 184285.52999999924,
      "d": 410.71387499998673,
      "v": 95
    },
    {
      "midi": 47,
      "hit": false,
      "t": 184285.52999999924,
      "d": 410.71387499998673,
      "v": 95
    },
    {
      "midi": 63,
      "hit": false,
      "t": 184285.52999999924,
      "d": 410.71387499998673,
      "v": 79
    },
    {
      "midi": 67,
      "hit": false,
      "t": 184285.52999999924,
      "d": 410.71387499998673,
      "v": 79
    },
    {
      "midi": 71,
      "hit": false,
      "t": 184285.52999999924,
      "d": 410.71387499998673,
      "v": 79
    },
    {
      "midi": 36,
      "hit": false,
      "t": 184714.10099999924,
      "d": 410.71387499998673,
      "v": 95
    },
    {
      "midi": 48,
      "hit": false,
      "t": 184714.10099999924,
      "d": 410.71387499998673,
      "v": 95
    },
    {
      "midi": 63,
      "hit": false,
      "t": 184714.10099999924,
      "d": 410.71387499998673,
      "v": 79
    },
    {
      "midi": 67,
      "hit": false,
      "t": 184714.10099999924,
      "d": 410.71387499998673,
      "v": 79
    },
    {
      "midi": 72,
      "hit": false,
      "t": 184714.10099999924,
      "d": 410.71387499998673,
      "v": 79
    },
    {
      "midi": 69,
      "hit": false,
      "t": 185142.67199999923,
      "d": 410.71387499998673,
      "v": 79
    },
    {
      "midi": 74,
      "hit": false,
      "t": 185142.67199999923,
      "d": 410.71387499998673,
      "v": 79
    },
    {
      "midi": 78,
      "hit": false,
      "t": 185142.67199999923,
      "d": 410.71387499998673,
      "v": 79
    },
    {
      "midi": 38,
      "hit": false,
      "t": 185142.67199999923,
      "d": 2553.568874999968,
      "v": 95
    },
    {
      "midi": 50,
      "hit": false,
      "t": 185142.67199999923,
      "d": 2553.568874999968,
      "v": 95
    },
    {
      "midi": 69,
      "hit": false,
      "t": 185571.24299999923,
      "d": 410.71387499998673,
      "v": 79
    },
    {
      "midi": 74,
      "hit": false,
      "t": 185571.24299999923,
      "d": 410.71387499998673,
      "v": 79
    },
    {
      "midi": 78,
      "hit": false,
      "t": 185571.24299999923,
      "d": 410.71387499998673,
      "v": 79
    },
    {
      "midi": 66,
      "hit": false,
      "t": 185999.81399999923,
      "d": 410.71387499998673,
      "v": 79
    },
    {
      "midi": 69,
      "hit": false,
      "t": 185999.81399999923,
      "d": 410.71387499998673,
      "v": 79
    },
    {
      "midi": 74,
      "hit": false,
      "t": 185999.81399999923,
      "d": 410.71387499998673,
      "v": 79
    },
    {
      "midi": 66,
      "hit": false,
      "t": 186428.38499999922,
      "d": 410.71387499998673,
      "v": 79
    },
    {
      "midi": 69,
      "hit": false,
      "t": 186428.38499999922,
      "d": 410.71387499998673,
      "v": 79
    },
    {
      "midi": 74,
      "hit": false,
      "t": 186428.38499999922,
      "d": 410.71387499998673,
      "v": 79
    },
    {
      "midi": 62,
      "hit": false,
      "t": 186856.95599999922,
      "d": 410.71387499998673,
      "v": 79
    },
    {
      "midi": 66,
      "hit": false,
      "t": 186856.95599999922,
      "d": 410.71387499998673,
      "v": 79
    },
    {
      "midi": 69,
      "hit": false,
      "t": 186856.95599999922,
      "d": 410.71387499998673,
      "v": 79
    },
    {
      "midi": 62,
      "hit": false,
      "t": 187285.52699999922,
      "d": 410.71387499998673,
      "v": 79
    },
    {
      "midi": 66,
      "hit": false,
      "t": 187285.52699999922,
      "d": 410.71387499998673,
      "v": 79
    },
    {
      "midi": 69,
      "hit": false,
      "t": 187285.52699999922,
      "d": 410.71387499998673,
      "v": 79
    },
    {
      "midi": 27,
      "hit": false,
      "t": 187714.0979999992,
      "d": 410.71387499998673,
      "v": 95
    },
    {
      "midi": 39,
      "hit": false,
      "t": 187714.0979999992,
      "d": 410.71387499998673,
      "v": 95
    },
    {
      "midi": 55,
      "hit": false,
      "t": 187714.0979999992,
      "d": 410.71387499998673,
      "v": 79
    },
    {
      "midi": 60,
      "hit": false,
      "t": 187714.0979999992,
      "d": 410.71387499998673,
      "v": 79
    },
    {
      "midi": 63,
      "hit": false,
      "t": 187714.0979999992,
      "d": 410.71387499998673,
      "v": 79
    },
    {
      "midi": 27,
      "hit": false,
      "t": 188142.6689999992,
      "d": 410.71387499998673,
      "v": 95
    },
    {
      "midi": 39,
      "hit": false,
      "t": 188142.6689999992,
      "d": 410.71387499998673,
      "v": 95
    },
    {
      "midi": 55,
      "hit": false,
      "t": 188142.6689999992,
      "d": 410.71387499998673,
      "v": 79
    },
    {
      "midi": 60,
      "hit": false,
      "t": 188142.6689999992,
      "d": 410.71387499998673,
      "v": 79
    },
    {
      "midi": 63,
      "hit": false,
      "t": 188142.6689999992,
      "d": 410.71387499998673,
      "v": 79
    },
    {
      "midi": 31,
      "hit": false,
      "t": 188571.2399999992,
      "d": 410.71387499998673,
      "v": 95
    },
    {
      "midi": 43,
      "hit": false,
      "t": 188571.2399999992,
      "d": 410.71387499998673,
      "v": 95
    },
    {
      "midi": 60,
      "hit": false,
      "t": 188571.2399999992,
      "d": 410.71387499998673,
      "v": 79
    },
    {
      "midi": 63,
      "hit": false,
      "t": 188571.2399999992,
      "d": 410.71387499998673,
      "v": 79
    },
    {
      "midi": 67,
      "hit": false,
      "t": 188571.2399999992,
      "d": 410.71387499998673,
      "v": 79
    },
    {
      "midi": 31,
      "hit": false,
      "t": 188999.8109999992,
      "d": 410.71387499998673,
      "v": 95
    },
    {
      "midi": 43,
      "hit": false,
      "t": 188999.8109999992,
      "d": 410.71387499998673,
      "v": 95
    },
    {
      "midi": 60,
      "hit": false,
      "t": 188999.8109999992,
      "d": 410.71387499998673,
      "v": 79
    },
    {
      "midi": 63,
      "hit": false,
      "t": 188999.8109999992,
      "d": 410.71387499998673,
      "v": 79
    },
    {
      "midi": 67,
      "hit": false,
      "t": 188999.8109999992,
      "d": 410.71387499998673,
      "v": 79
    },
    {
      "midi": 36,
      "hit": false,
      "t": 189428.3819999992,
      "d": 410.71387499998673,
      "v": 95
    },
    {
      "midi": 48,
      "hit": false,
      "t": 189428.3819999992,
      "d": 410.71387499998673,
      "v": 95
    },
    {
      "midi": 63,
      "hit": false,
      "t": 189428.3819999992,
      "d": 410.71387499998673,
      "v": 79
    },
    {
      "midi": 67,
      "hit": false,
      "t": 189428.3819999992,
      "d": 410.71387499998673,
      "v": 79
    },
    {
      "midi": 72,
      "hit": false,
      "t": 189428.3819999992,
      "d": 410.71387499998673,
      "v": 79
    },
    {
      "midi": 36,
      "hit": false,
      "t": 189856.9529999992,
      "d": 410.71387499998673,
      "v": 95
    },
    {
      "midi": 48,
      "hit": false,
      "t": 189856.9529999992,
      "d": 410.71387499998673,
      "v": 95
    },
    {
      "midi": 63,
      "hit": false,
      "t": 189856.9529999992,
      "d": 410.71387499998673,
      "v": 79
    },
    {
      "midi": 67,
      "hit": false,
      "t": 189856.9529999992,
      "d": 410.71387499998673,
      "v": 79
    },
    {
      "midi": 72,
      "hit": false,
      "t": 189856.9529999992,
      "d": 410.71387499998673,
      "v": 79
    },
    {
      "midi": 36,
      "hit": false,
      "t": 190285.5239999992,
      "d": 410.71387499998673,
      "v": 95
    },
    {
      "midi": 48,
      "hit": false,
      "t": 190285.5239999992,
      "d": 410.71387499998673,
      "v": 95
    },
    {
      "midi": 67,
      "hit": false,
      "t": 190285.5239999992,
      "d": 410.71387499998673,
      "v": 95
    },
    {
      "midi": 72,
      "hit": false,
      "t": 190285.5239999992,
      "d": 410.71387499998673,
      "v": 95
    },
    {
      "midi": 75,
      "hit": false,
      "t": 190285.5239999992,
      "d": 410.71387499998673,
      "v": 95
    },
    {
      "midi": 36,
      "hit": false,
      "t": 190714.0949999992,
      "d": 410.71387499998673,
      "v": 95
    },
    {
      "midi": 48,
      "hit": false,
      "t": 190714.0949999992,
      "d": 410.71387499998673,
      "v": 95
    },
    {
      "midi": 67,
      "hit": false,
      "t": 190714.0949999992,
      "d": 410.71387499998673,
      "v": 95
    },
    {
      "midi": 72,
      "hit": false,
      "t": 190714.0949999992,
      "d": 410.71387499998673,
      "v": 95
    },
    {
      "midi": 75,
      "hit": false,
      "t": 190714.0949999992,
      "d": 410.71387499998673,
      "v": 95
    },
    {
      "midi": 35,
      "hit": false,
      "t": 191142.66599999918,
      "d": 410.71387499998673,
      "v": 95
    },
    {
      "midi": 47,
      "hit": false,
      "t": 191142.66599999918,
      "d": 410.71387499998673,
      "v": 95
    },
    {
      "midi": 71,
      "hit": false,
      "t": 191142.66599999918,
      "d": 410.71387499998673,
      "v": 95
    },
    {
      "midi": 75,
      "hit": false,
      "t": 191142.66599999918,
      "d": 410.71387499998673,
      "v": 95
    },
    {
      "midi": 79,
      "hit": false,
      "t": 191142.66599999918,
      "d": 410.71387499998673,
      "v": 95
    },
    {
      "midi": 36,
      "hit": false,
      "t": 191571.23699999918,
      "d": 410.71387499998673,
      "v": 95
    },
    {
      "midi": 48,
      "hit": false,
      "t": 191571.23699999918,
      "d": 410.71387499998673,
      "v": 95
    },
    {
      "midi": 72,
      "hit": false,
      "t": 191571.23699999918,
      "d": 410.71387499998673,
      "v": 95
    },
    {
      "midi": 75,
      "hit": false,
      "t": 191571.23699999918,
      "d": 410.71387499998673,
      "v": 95
    },
    {
      "midi": 79,
      "hit": false,
      "t": 191571.23699999918,
      "d": 410.71387499998673,
      "v": 95
    },
    {
      "midi": 50,
      "hit": false,
      "t": 191999.80799999918,
      "d": 124.99987500000861,
      "v": 95
    },
    {
      "midi": 69,
      "hit": false,
      "t": 191999.80799999918,
      "d": 1267.8558750000957,
      "v": 95
    },
    {
      "midi": 74,
      "hit": false,
      "t": 191999.80799999918,
      "d": 1696.4268750001502,
      "v": 95
    },
    {
      "midi": 78,
      "hit": false,
      "t": 191999.80799999918,
      "d": 2124.9978750002047,
      "v": 95
    },
    {
      "midi": 38,
      "hit": false,
      "t": 191999.80799999918,
      "d": 3410.7108750002226,
      "v": 95
    },
    {
      "midi": 50,
      "hit": false,
      "t": 192142.6649999992,
      "d": 124.99987500000861,
      "v": 63
    },
    {
      "midi": 54,
      "hit": false,
      "t": 192285.5219999992,
      "d": 267.8568749999977,
      "v": 63
    },
    {
      "midi": 57,
      "hit": false,
      "t": 192428.3789999992,
      "d": 267.8568750000268,
      "v": 63
    },
    {
      "midi": 54,
      "hit": false,
      "t": 192571.23599999922,
      "d": 3267.8538750001753,
      "v": 63
    },
    {
      "midi": 57,
      "hit": false,
      "t": 192714.09299999924,
      "d": 267.8568749999977,
      "v": 63
    },
    {
      "midi": 62,
      "hit": false,
      "t": 192856.94999999923,
      "d": 267.8568750000268,
      "v": 79
    },
    {
      "midi": 57,
      "hit": false,
      "t": 192999.80699999924,
      "d": 2839.28287500015,
      "v": 79
    },
    {
      "midi": 62,
      "hit": false,
      "t": 193142.66399999926,
      "d": 267.8568750000268,
      "v": 79
    },
    {
      "midi": 66,
      "hit": false,
      "t": 193285.52099999928,
      "d": 267.8568750000268,
      "v": 79
    },
    {
      "midi": 62,
      "hit": false,
      "t": 193428.3779999993,
      "d": 2410.7118750000955,
      "v": 79
    },
    {
      "midi": 66,
      "hit": false,
      "t": 193571.23499999932,
      "d": 267.8568750000268,
      "v": 79
    },
    {
      "midi": 69,
      "hit": false,
      "t": 193714.09199999933,
      "d": 267.8568750000268,
      "v": 95
    },
    {
      "midi": 66,
      "hit": false,
      "t": 193856.94899999935,
      "d": 1982.140875000041,
      "v": 95
    },
    {
      "midi": 69,
      "hit": false,
      "t": 193999.80599999937,
      "d": 1839.2838750000228,
      "v": 95
    },
    {
      "midi": 74,
      "hit": false,
      "t": 194142.6629999994,
      "d": 124.99987500000861,
      "v": 95
    },
    {
      "midi": 78,
      "hit": false,
      "t": 194285.5199999994,
      "d": 267.8568749999977,
      "v": 95
    },
    {
      "midi": 78,
      "hit": false,
      "t": 194571.23399999941,
      "d": 410.71387499998673,
      "v": 95
    },
    {
      "midi": 78,
      "hit": false,
      "t": 194999.8049999994,
      "d": 839.284874999983,
      "v": 95
    },
    {
      "midi": 27,
      "hit": false,
      "t": 202285.5119999994,
      "d": 410.71387499998673,
      "v": 95
    },
    {
      "midi": 39,
      "hit": false,
      "t": 202285.5119999994,
      "d": 410.71387499998673,
      "v": 95
    },
    {
      "midi": 55,
      "hit": false,
      "t": 202285.5119999994,
      "d": 410.71387499998673,
      "v": 79
    },
    {
      "midi": 60,
      "hit": false,
      "t": 202285.5119999994,
      "d": 410.71387499998673,
      "v": 79
    },
    {
      "midi": 63,
      "hit": false,
      "t": 202285.5119999994,
      "d": 410.71387499998673,
      "v": 79
    },
    {
      "midi": 27,
      "hit": false,
      "t": 202714.0829999994,
      "d": 410.71387499998673,
      "v": 95
    },
    {
      "midi": 39,
      "hit": false,
      "t": 202714.0829999994,
      "d": 410.71387499998673,
      "v": 95
    },
    {
      "midi": 55,
      "hit": false,
      "t": 202714.0829999994,
      "d": 410.71387499998673,
      "v": 79
    },
    {
      "midi": 60,
      "hit": false,
      "t": 202714.0829999994,
      "d": 410.71387499998673,
      "v": 79
    },
    {
      "midi": 63,
      "hit": false,
      "t": 202714.0829999994,
      "d": 410.71387499998673,
      "v": 79
    },
    {
      "midi": 31,
      "hit": false,
      "t": 203142.6539999994,
      "d": 410.71387499998673,
      "v": 95
    },
    {
      "midi": 43,
      "hit": false,
      "t": 203142.6539999994,
      "d": 410.71387499998673,
      "v": 95
    },
    {
      "midi": 60,
      "hit": false,
      "t": 203142.6539999994,
      "d": 410.71387499998673,
      "v": 79
    },
    {
      "midi": 63,
      "hit": false,
      "t": 203142.6539999994,
      "d": 410.71387499998673,
      "v": 79
    },
    {
      "midi": 67,
      "hit": false,
      "t": 203142.6539999994,
      "d": 410.71387499998673,
      "v": 79
    },
    {
      "midi": 31,
      "hit": false,
      "t": 203571.2249999994,
      "d": 410.71387499998673,
      "v": 95
    },
    {
      "midi": 43,
      "hit": false,
      "t": 203571.2249999994,
      "d": 410.71387499998673,
      "v": 95
    },
    {
      "midi": 60,
      "hit": false,
      "t": 203571.2249999994,
      "d": 410.71387499998673,
      "v": 79
    },
    {
      "midi": 63,
      "hit": false,
      "t": 203571.2249999994,
      "d": 410.71387499998673,
      "v": 79
    },
    {
      "midi": 67,
      "hit": false,
      "t": 203571.2249999994,
      "d": 410.71387499998673,
      "v": 79
    },
    {
      "midi": 36,
      "hit": false,
      "t": 203999.7959999994,
      "d": 410.71387499998673,
      "v": 95
    },
    {
      "midi": 48,
      "hit": false,
      "t": 203999.7959999994,
      "d": 410.71387499998673,
      "v": 95
    },
    {
      "midi": 63,
      "hit": false,
      "t": 203999.7959999994,
      "d": 410.71387499998673,
      "v": 79
    },
    {
      "midi": 67,
      "hit": false,
      "t": 203999.7959999994,
      "d": 410.71387499998673,
      "v": 79
    },
    {
      "midi": 72,
      "hit": false,
      "t": 203999.7959999994,
      "d": 410.71387499998673,
      "v": 79
    },
    {
      "midi": 36,
      "hit": false,
      "t": 204428.3669999994,
      "d": 410.71387499998673,
      "v": 95
    },
    {
      "midi": 48,
      "hit": false,
      "t": 204428.3669999994,
      "d": 410.71387499998673,
      "v": 95
    },
    {
      "midi": 63,
      "hit": false,
      "t": 204428.3669999994,
      "d": 410.71387499998673,
      "v": 79
    },
    {
      "midi": 67,
      "hit": false,
      "t": 204428.3669999994,
      "d": 410.71387499998673,
      "v": 79
    },
    {
      "midi": 72,
      "hit": false,
      "t": 204428.3669999994,
      "d": 410.71387499998673,
      "v": 79
    },
    {
      "midi": 35,
      "hit": false,
      "t": 204856.93799999938,
      "d": 410.71387499998673,
      "v": 95
    },
    {
      "midi": 47,
      "hit": false,
      "t": 204856.93799999938,
      "d": 410.71387499998673,
      "v": 95
    },
    {
      "midi": 63,
      "hit": false,
      "t": 204856.93799999938,
      "d": 410.71387499998673,
      "v": 79
    },
    {
      "midi": 67,
      "hit": false,
      "t": 204856.93799999938,
      "d": 410.71387499998673,
      "v": 79
    },
    {
      "midi": 71,
      "hit": false,
      "t": 204856.93799999938,
      "d": 410.71387499998673,
      "v": 79
    },
    {
      "midi": 36,
      "hit": false,
      "t": 205285.50899999938,
      "d": 410.71387499998673,
      "v": 95
    },
    {
      "midi": 48,
      "hit": false,
      "t": 205285.50899999938,
      "d": 410.71387499998673,
      "v": 95
    },
    {
      "midi": 63,
      "hit": false,
      "t": 205285.50899999938,
      "d": 410.71387499998673,
      "v": 79
    },
    {
      "midi": 67,
      "hit": false,
      "t": 205285.50899999938,
      "d": 410.71387499998673,
      "v": 79
    },
    {
      "midi": 72,
      "hit": false,
      "t": 205285.50899999938,
      "d": 410.71387499998673,
      "v": 79
    },
    {
      "midi": 69,
      "hit": false,
      "t": 205714.07999999938,
      "d": 410.71387499998673,
      "v": 79
    },
    {
      "midi": 74,
      "hit": false,
      "t": 205714.07999999938,
      "d": 410.71387499998673,
      "v": 79
    },
    {
      "midi": 78,
      "hit": false,
      "t": 205714.07999999938,
      "d": 410.71387499998673,
      "v": 79
    },
    {
      "midi": 38,
      "hit": false,
      "t": 205714.07999999938,
      "d": 2553.568874999968,
      "v": 95
    },
    {
      "midi": 50,
      "hit": false,
      "t": 205714.07999999938,
      "d": 2553.568874999968,
      "v": 95
    },
    {
      "midi": 69,
      "hit": false,
      "t": 206142.65099999937,
      "d": 410.71387499998673,
      "v": 79
    },
    {
      "midi": 74,
      "hit": false,
      "t": 206142.65099999937,
      "d": 410.71387499998673,
      "v": 79
    },
    {
      "midi": 78,
      "hit": false,
      "t": 206142.65099999937,
      "d": 410.71387499998673,
      "v": 79
    },
    {
      "midi": 66,
      "hit": false,
      "t": 206571.22199999937,
      "d": 410.71387499998673,
      "v": 79
    },
    {
      "midi": 69,
      "hit": false,
      "t": 206571.22199999937,
      "d": 410.71387499998673,
      "v": 79
    },
    {
      "midi": 74,
      "hit": false,
      "t": 206571.22199999937,
      "d": 410.71387499998673,
      "v": 79
    },
    {
      "midi": 66,
      "hit": false,
      "t": 206999.79299999936,
      "d": 410.71387499998673,
      "v": 79
    },
    {
      "midi": 69,
      "hit": false,
      "t": 206999.79299999936,
      "d": 410.71387499998673,
      "v": 79
    },
    {
      "midi": 74,
      "hit": false,
      "t": 206999.79299999936,
      "d": 410.71387499998673,
      "v": 79
    },
    {
      "midi": 62,
      "hit": false,
      "t": 207428.36399999936,
      "d": 410.71387499998673,
      "v": 79
    },
    {
      "midi": 66,
      "hit": false,
      "t": 207428.36399999936,
      "d": 410.71387499998673,
      "v": 79
    },
    {
      "midi": 69,
      "hit": false,
      "t": 207428.36399999936,
      "d": 410.71387499998673,
      "v": 79
    },
    {
      "midi": 62,
      "hit": false,
      "t": 207856.93499999936,
      "d": 410.71387499998673,
      "v": 79
    },
    {
      "midi": 66,
      "hit": false,
      "t": 207856.93499999936,
      "d": 410.71387499998673,
      "v": 79
    },
    {
      "midi": 69,
      "hit": false,
      "t": 207856.93499999936,
      "d": 410.71387499998673,
      "v": 79
    },
    {
      "midi": 27,
      "hit": false,
      "t": 208285.50599999935,
      "d": 410.71387499998673,
      "v": 95
    },
    {
      "midi": 39,
      "hit": false,
      "t": 208285.50599999935,
      "d": 410.71387499998673,
      "v": 95
    },
    {
      "midi": 55,
      "hit": false,
      "t": 208285.50599999935,
      "d": 410.71387499998673,
      "v": 79
    },
    {
      "midi": 60,
      "hit": false,
      "t": 208285.50599999935,
      "d": 410.71387499998673,
      "v": 79
    },
    {
      "midi": 63,
      "hit": false,
      "t": 208285.50599999935,
      "d": 410.71387499998673,
      "v": 79
    },
    {
      "midi": 27,
      "hit": false,
      "t": 208714.07699999935,
      "d": 410.71387499998673,
      "v": 95
    },
    {
      "midi": 39,
      "hit": false,
      "t": 208714.07699999935,
      "d": 410.71387499998673,
      "v": 95
    },
    {
      "midi": 55,
      "hit": false,
      "t": 208714.07699999935,
      "d": 410.71387499998673,
      "v": 79
    },
    {
      "midi": 60,
      "hit": false,
      "t": 208714.07699999935,
      "d": 410.71387499998673,
      "v": 79
    },
    {
      "midi": 63,
      "hit": false,
      "t": 208714.07699999935,
      "d": 410.71387499998673,
      "v": 79
    },
    {
      "midi": 31,
      "hit": false,
      "t": 209142.64799999935,
      "d": 410.71387499998673,
      "v": 95
    },
    {
      "midi": 43,
      "hit": false,
      "t": 209142.64799999935,
      "d": 410.71387499998673,
      "v": 95
    },
    {
      "midi": 60,
      "hit": false,
      "t": 209142.64799999935,
      "d": 410.71387499998673,
      "v": 79
    },
    {
      "midi": 63,
      "hit": false,
      "t": 209142.64799999935,
      "d": 410.71387499998673,
      "v": 79
    },
    {
      "midi": 67,
      "hit": false,
      "t": 209142.64799999935,
      "d": 410.71387499998673,
      "v": 79
    },
    {
      "midi": 31,
      "hit": false,
      "t": 209571.21899999934,
      "d": 410.71387499998673,
      "v": 95
    },
    {
      "midi": 43,
      "hit": false,
      "t": 209571.21899999934,
      "d": 410.71387499998673,
      "v": 95
    },
    {
      "midi": 60,
      "hit": false,
      "t": 209571.21899999934,
      "d": 410.71387499998673,
      "v": 79
    },
    {
      "midi": 63,
      "hit": false,
      "t": 209571.21899999934,
      "d": 410.71387499998673,
      "v": 79
    },
    {
      "midi": 67,
      "hit": false,
      "t": 209571.21899999934,
      "d": 410.71387499998673,
      "v": 79
    },
    {
      "midi": 36,
      "hit": false,
      "t": 209999.78999999934,
      "d": 410.71387499998673,
      "v": 95
    },
    {
      "midi": 48,
      "hit": false,
      "t": 209999.78999999934,
      "d": 410.71387499998673,
      "v": 95
    },
    {
      "midi": 63,
      "hit": false,
      "t": 209999.78999999934,
      "d": 410.71387499998673,
      "v": 79
    },
    {
      "midi": 67,
      "hit": false,
      "t": 209999.78999999934,
      "d": 410.71387499998673,
      "v": 79
    },
    {
      "midi": 72,
      "hit": false,
      "t": 209999.78999999934,
      "d": 410.71387499998673,
      "v": 79
    },
    {
      "midi": 36,
      "hit": false,
      "t": 210428.36099999934,
      "d": 410.71387499998673,
      "v": 95
    },
    {
      "midi": 48,
      "hit": false,
      "t": 210428.36099999934,
      "d": 410.71387499998673,
      "v": 95
    },
    {
      "midi": 63,
      "hit": false,
      "t": 210428.36099999934,
      "d": 410.71387499998673,
      "v": 79
    },
    {
      "midi": 67,
      "hit": false,
      "t": 210428.36099999934,
      "d": 410.71387499998673,
      "v": 79
    },
    {
      "midi": 72,
      "hit": false,
      "t": 210428.36099999934,
      "d": 410.71387499998673,
      "v": 79
    },
    {
      "midi": 63,
      "hit": false,
      "t": 210856.93199999933,
      "d": 410.71387499998673,
      "v": 79
    },
    {
      "midi": 67,
      "hit": false,
      "t": 210856.93199999933,
      "d": 410.71387499998673,
      "v": 79
    },
    {
      "midi": 72,
      "hit": false,
      "t": 210856.93199999933,
      "d": 410.71387499998673,
      "v": 79
    },
    {
      "midi": 48,
      "hit": false,
      "t": 210856.93199999933,
      "d": 1428.5699999999779,
      "v": 95
    },
    {
      "midi": 36,
      "hit": false,
      "t": 210856.93199999933,
      "d": 1589.2841249999765,
      "v": 95
    },
    {
      "midi": 93,
      "hit": false,
      "t": 211285.50299999933,
      "d": 35.71424999998999,
      "v": 95
    },
    {
      "midi": 91,
      "hit": false,
      "t": 211339.07437499933,
      "d": 35.71424999998999,
      "v": 95
    },
    {
      "midi": 89,
      "hit": false,
      "t": 211392.64574999933,
      "d": 35.71424999998999,
      "v": 95
    },
    {
      "midi": 88,
      "hit": false,
      "t": 211446.21712499933,
      "d": 35.71424999998999,
      "v": 95
    },
    {
      "midi": 86,
      "hit": false,
      "t": 211499.78849999933,
      "d": 35.71424999998999,
      "v": 95
    },
    {
      "midi": 84,
      "hit": false,
      "t": 211553.35987499933,
      "d": 35.71424999998999,
      "v": 95
    },
    {
      "midi": 83,
      "hit": false,
      "t": 211606.93124999932,
      "d": 35.71424999998999,
      "v": 95
    },
    {
      "midi": 81,
      "hit": false,
      "t": 211660.50262499932,
      "d": 35.71424999998999,
      "v": 95
    },
    {
      "midi": 79,
      "hit": false,
      "t": 211714.07399999932,
      "d": 35.71424999998999,
      "v": 95
    },
    {
      "midi": 77,
      "hit": false,
      "t": 211767.64537499932,
      "d": 35.71424999998999,
      "v": 95
    },
    {
      "midi": 76,
      "hit": false,
      "t": 211821.21674999932,
      "d": 35.71424999998999,
      "v": 95
    },
    {
      "midi": 74,
      "hit": false,
      "t": 211874.78812499932,
      "d": 35.71424999998999,
      "v": 95
    },
    {
      "midi": 72,
      "hit": false,
      "t": 211928.35949999932,
      "d": 35.71424999998999,
      "v": 95
    },
    {
      "midi": 71,
      "hit": false,
      "t": 211981.93087499932,
      "d": 35.71424999998999,
      "v": 95
    },
    {
      "midi": 69,
      "hit": false,
      "t": 212035.50224999932,
      "d": 35.71424999998999,
      "v": 95
    },
    {
      "midi": 67,
      "hit": false,
      "t": 212089.07362499932,
      "d": 35.71424999998999,
      "v": 95
    },
    {
      "midi": 65,
      "hit": false,
      "t": 212142.64499999932,
      "d": 35.71424999998999,
      "v": 95
    },
    {
      "midi": 64,
      "hit": false,
      "t": 212196.21637499932,
      "d": 35.71424999998999,
      "v": 95
    },
    {
      "midi": 62,
      "hit": false,
      "t": 212249.78774999932,
      "d": 35.71424999998999,
      "v": 95
    },
    {
      "midi": 60,
      "hit": false,
      "t": 212303.35912499932,
      "d": 35.71424999998999,
      "v": 95
    },
    {
      "midi": 59,
      "hit": false,
      "t": 212356.93049999932,
      "d": 35.71424999998999,
      "v": 95
    },
    {
      "midi": 57,
      "hit": false,
      "t": 212410.50187499932,
      "d": 35.71424999998999,
      "v": 95
    },
    {
      "midi": 29,
      "hit": false,
      "t": 212571.21599999932,
      "d": 410.71387499998673,
      "v": 95
    },
    {
      "midi": 41,
      "hit": false,
      "t": 212571.21599999932,
      "d": 410.71387499998673,
      "v": 95
    },
    {
      "midi": 56,
      "hit": false,
      "t": 212571.21599999932,
      "d": 410.71387499998673,
      "v": 79
    },
    {
      "midi": 60,
      "hit": false,
      "t": 212571.21599999932,
      "d": 410.71387499998673,
      "v": 79
    },
    {
      "midi": 65,
      "hit": false,
      "t": 212571.21599999932,
      "d": 410.71387499998673,
      "v": 79
    },
    {
      "midi": 29,
      "hit": false,
      "t": 212999.7869999993,
      "d": 410.71387499998673,
      "v": 95
    },
    {
      "midi": 41,
      "hit": false,
      "t": 212999.7869999993,
      "d": 410.71387499998673,
      "v": 95
    },
    {
      "midi": 56,
      "hit": false,
      "t": 212999.7869999993,
      "d": 410.71387499998673,
      "v": 79
    },
    {
      "midi": 60,
      "hit": false,
      "t": 212999.7869999993,
      "d": 410.71387499998673,
      "v": 79
    },
    {
      "midi": 65,
      "hit": false,
      "t": 212999.7869999993,
      "d": 410.71387499998673,
      "v": 79
    },
    {
      "midi": 32,
      "hit": false,
      "t": 213428.3579999993,
      "d": 410.71387499998673,
      "v": 95
    },
    {
      "midi": 44,
      "hit": false,
      "t": 213428.3579999993,
      "d": 410.71387499998673,
      "v": 95
    },
    {
      "midi": 56,
      "hit": false,
      "t": 213428.3579999993,
      "d": 410.71387499998673,
      "v": 79
    },
    {
      "midi": 60,
      "hit": false,
      "t": 213428.3579999993,
      "d": 410.71387499998673,
      "v": 79
    },
    {
      "midi": 65,
      "hit": false,
      "t": 213428.3579999993,
      "d": 410.71387499998673,
      "v": 79
    },
    {
      "midi": 32,
      "hit": false,
      "t": 213856.9289999993,
      "d": 410.71387499998673,
      "v": 95
    },
    {
      "midi": 44,
      "hit": false,
      "t": 213856.9289999993,
      "d": 410.71387499998673,
      "v": 95
    },
    {
      "midi": 56,
      "hit": false,
      "t": 213856.9289999993,
      "d": 410.71387499998673,
      "v": 79
    },
    {
      "midi": 60,
      "hit": false,
      "t": 213856.9289999993,
      "d": 410.71387499998673,
      "v": 79
    },
    {
      "midi": 65,
      "hit": false,
      "t": 213856.9289999993,
      "d": 410.71387499998673,
      "v": 79
    },
    {
      "midi": 56,
      "hit": false,
      "t": 214285.4999999993,
      "d": 196.4283749999886,
      "v": 79
    },
    {
      "midi": 60,
      "hit": false,
      "t": 214285.4999999993,
      "d": 196.4283749999886,
      "v": 79
    },
    {
      "midi": 65,
      "hit": false,
      "t": 214285.4999999993,
      "d": 196.4283749999886,
      "v": 79
    },
    {
      "midi": 36,
      "hit": false,
      "t": 214285.4999999993,
      "d": 410.71387499998673,
      "v": 95
    },
    {
      "midi": 48,
      "hit": false,
      "t": 214285.4999999993,
      "d": 410.71387499998673,
      "v": 95
    },
    {
      "midi": 56,
      "hit": false,
      "t": 214714.0709999993,
      "d": 196.4283749999886,
      "v": 79
    },
    {
      "midi": 60,
      "hit": false,
      "t": 214714.0709999993,
      "d": 196.4283749999886,
      "v": 79
    },
    {
      "midi": 65,
      "hit": false,
      "t": 214714.0709999993,
      "d": 196.4283749999886,
      "v": 79
    },
    {
      "midi": 36,
      "hit": false,
      "t": 214714.0709999993,
      "d": 410.71387499998673,
      "v": 95
    },
    {
      "midi": 48,
      "hit": false,
      "t": 214714.0709999993,
      "d": 410.71387499998673,
      "v": 95
    },
    {
      "midi": 56,
      "hit": false,
      "t": 215142.6419999993,
      "d": 196.4283749999886,
      "v": 79
    },
    {
      "midi": 60,
      "hit": false,
      "t": 215142.6419999993,
      "d": 196.4283749999886,
      "v": 79
    },
    {
      "midi": 65,
      "hit": false,
      "t": 215142.6419999993,
      "d": 196.4283749999886,
      "v": 79
    },
    {
      "midi": 41,
      "hit": false,
      "t": 215142.6419999993,
      "d": 410.71387499998673,
      "v": 95
    },
    {
      "midi": 53,
      "hit": false,
      "t": 215142.6419999993,
      "d": 410.71387499998673,
      "v": 95
    },
    {
      "midi": 56,
      "hit": false,
      "t": 215571.2129999993,
      "d": 196.4283749999886,
      "v": 79
    },
    {
      "midi": 60,
      "hit": false,
      "t": 215571.2129999993,
      "d": 196.4283749999886,
      "v": 79
    },
    {
      "midi": 65,
      "hit": false,
      "t": 215571.2129999993,
      "d": 196.4283749999886,
      "v": 79
    },
    {
      "midi": 41,
      "hit": false,
      "t": 215571.2129999993,
      "d": 410.71387499998673,
      "v": 95
    },
    {
      "midi": 53,
      "hit": false,
      "t": 215571.2129999993,
      "d": 410.71387499998673,
      "v": 95
    },
    {
      "midi": 39,
      "hit": false,
      "t": 215999.7839999993,
      "d": 410.71387499998673,
      "v": 95
    },
    {
      "midi": 51,
      "hit": false,
      "t": 215999.7839999993,
      "d": 410.71387499998673,
      "v": 95
    },
    {
      "midi": 60,
      "hit": false,
      "t": 215999.7839999993,
      "d": 410.71387499998673,
      "v": 79
    },
    {
      "midi": 63,
      "hit": false,
      "t": 215999.7839999993,
      "d": 410.71387499998673,
      "v": 79
    },
    {
      "midi": 67,
      "hit": false,
      "t": 215999.7839999993,
      "d": 410.71387499998673,
      "v": 79
    },
    {
      "midi": 39,
      "hit": false,
      "t": 216428.35499999928,
      "d": 410.71387499998673,
      "v": 95
    },
    {
      "midi": 51,
      "hit": false,
      "t": 216428.35499999928,
      "d": 410.71387499998673,
      "v": 95
    },
    {
      "midi": 60,
      "hit": false,
      "t": 216428.35499999928,
      "d": 410.71387499998673,
      "v": 79
    },
    {
      "midi": 63,
      "hit": false,
      "t": 216428.35499999928,
      "d": 410.71387499998673,
      "v": 79
    },
    {
      "midi": 67,
      "hit": false,
      "t": 216428.35499999928,
      "d": 410.71387499998673,
      "v": 79
    },
    {
      "midi": 36,
      "hit": false,
      "t": 216856.92599999928,
      "d": 410.71387499998673,
      "v": 95
    },
    {
      "midi": 48,
      "hit": false,
      "t": 216856.92599999928,
      "d": 410.71387499998673,
      "v": 95
    },
    {
      "midi": 60,
      "hit": false,
      "t": 216856.92599999928,
      "d": 410.71387499998673,
      "v": 79
    },
    {
      "midi": 63,
      "hit": false,
      "t": 216856.92599999928,
      "d": 410.71387499998673,
      "v": 79
    },
    {
      "midi": 67,
      "hit": false,
      "t": 216856.92599999928,
      "d": 410.71387499998673,
      "v": 79
    },
    {
      "midi": 36,
      "hit": false,
      "t": 217285.49699999928,
      "d": 410.71387499998673,
      "v": 95
    },
    {
      "midi": 48,
      "hit": false,
      "t": 217285.49699999928,
      "d": 410.71387499998673,
      "v": 95
    },
    {
      "midi": 60,
      "hit": false,
      "t": 217285.49699999928,
      "d": 410.71387499998673,
      "v": 79
    },
    {
      "midi": 63,
      "hit": false,
      "t": 217285.49699999928,
      "d": 410.71387499998673,
      "v": 79
    },
    {
      "midi": 67,
      "hit": false,
      "t": 217285.49699999928,
      "d": 410.71387499998673,
      "v": 79
    },
    {
      "midi": 60,
      "hit": false,
      "t": 217714.06799999927,
      "d": 196.4283749999886,
      "v": 79
    },
    {
      "midi": 63,
      "hit": false,
      "t": 217714.06799999927,
      "d": 196.4283749999886,
      "v": 79
    },
    {
      "midi": 67,
      "hit": false,
      "t": 217714.06799999927,
      "d": 196.4283749999886,
      "v": 79
    },
    {
      "midi": 31,
      "hit": false,
      "t": 217714.06799999927,
      "d": 410.71387499998673,
      "v": 95
    },
    {
      "midi": 43,
      "hit": false,
      "t": 217714.06799999927,
      "d": 410.71387499998673,
      "v": 95
    },
    {
      "midi": 60,
      "hit": false,
      "t": 218142.63899999927,
      "d": 196.4283749999886,
      "v": 79
    },
    {
      "midi": 63,
      "hit": false,
      "t": 218142.63899999927,
      "d": 196.4283749999886,
      "v": 79
    },
    {
      "midi": 67,
      "hit": false,
      "t": 218142.63899999927,
      "d": 196.4283749999886,
      "v": 79
    },
    {
      "midi": 31,
      "hit": false,
      "t": 218142.63899999927,
      "d": 410.71387499998673,
      "v": 95
    },
    {
      "midi": 43,
      "hit": false,
      "t": 218142.63899999927,
      "d": 410.71387499998673,
      "v": 95
    },
    {
      "midi": 60,
      "hit": false,
      "t": 218571.20999999926,
      "d": 196.4283749999886,
      "v": 79
    },
    {
      "midi": 63,
      "hit": false,
      "t": 218571.20999999926,
      "d": 196.4283749999886,
      "v": 79
    },
    {
      "midi": 67,
      "hit": false,
      "t": 218571.20999999926,
      "d": 196.4283749999886,
      "v": 79
    },
    {
      "midi": 27,
      "hit": false,
      "t": 218571.20999999926,
      "d": 410.71387499998673,
      "v": 95
    },
    {
      "midi": 39,
      "hit": false,
      "t": 218571.20999999926,
      "d": 410.71387499998673,
      "v": 95
    },
    {
      "midi": 60,
      "hit": false,
      "t": 218999.78099999926,
      "d": 196.4283749999886,
      "v": 79
    },
    {
      "midi": 63,
      "hit": false,
      "t": 218999.78099999926,
      "d": 196.4283749999886,
      "v": 79
    },
    {
      "midi": 67,
      "hit": false,
      "t": 218999.78099999926,
      "d": 196.4283749999886,
      "v": 79
    },
    {
      "midi": 27,
      "hit": false,
      "t": 218999.78099999926,
      "d": 410.71387499998673,
      "v": 95
    },
    {
      "midi": 39,
      "hit": false,
      "t": 218999.78099999926,
      "d": 410.71387499998673,
      "v": 95
    },
    {
      "midi": 29,
      "hit": false,
      "t": 219428.35199999926,
      "d": 410.71387499998673,
      "v": 95
    },
    {
      "midi": 41,
      "hit": false,
      "t": 219428.35199999926,
      "d": 410.71387499998673,
      "v": 95
    },
    {
      "midi": 56,
      "hit": false,
      "t": 219428.35199999926,
      "d": 410.71387499998673,
      "v": 79
    },
    {
      "midi": 60,
      "hit": false,
      "t": 219428.35199999926,
      "d": 410.71387499998673,
      "v": 79
    },
    {
      "midi": 65,
      "hit": false,
      "t": 219428.35199999926,
      "d": 410.71387499998673,
      "v": 79
    },
    {
      "midi": 29,
      "hit": false,
      "t": 219856.92299999925,
      "d": 410.71387499998673,
      "v": 95
    },
    {
      "midi": 41,
      "hit": false,
      "t": 219856.92299999925,
      "d": 410.71387499998673,
      "v": 95
    },
    {
      "midi": 56,
      "hit": false,
      "t": 219856.92299999925,
      "d": 410.71387499998673,
      "v": 79
    },
    {
      "midi": 60,
      "hit": false,
      "t": 219856.92299999925,
      "d": 410.71387499998673,
      "v": 79
    },
    {
      "midi": 65,
      "hit": false,
      "t": 219856.92299999925,
      "d": 410.71387499998673,
      "v": 79
    },
    {
      "midi": 32,
      "hit": false,
      "t": 220285.49399999925,
      "d": 410.71387499998673,
      "v": 95
    },
    {
      "midi": 44,
      "hit": false,
      "t": 220285.49399999925,
      "d": 410.71387499998673,
      "v": 95
    },
    {
      "midi": 56,
      "hit": false,
      "t": 220285.49399999925,
      "d": 410.71387499998673,
      "v": 79
    },
    {
      "midi": 60,
      "hit": false,
      "t": 220285.49399999925,
      "d": 410.71387499998673,
      "v": 79
    },
    {
      "midi": 65,
      "hit": false,
      "t": 220285.49399999925,
      "d": 410.71387499998673,
      "v": 79
    },
    {
      "midi": 32,
      "hit": false,
      "t": 220714.06499999925,
      "d": 410.71387499998673,
      "v": 95
    },
    {
      "midi": 44,
      "hit": false,
      "t": 220714.06499999925,
      "d": 410.71387499998673,
      "v": 95
    },
    {
      "midi": 56,
      "hit": false,
      "t": 220714.06499999925,
      "d": 410.71387499998673,
      "v": 79
    },
    {
      "midi": 60,
      "hit": false,
      "t": 220714.06499999925,
      "d": 410.71387499998673,
      "v": 79
    },
    {
      "midi": 65,
      "hit": false,
      "t": 220714.06499999925,
      "d": 410.71387499998673,
      "v": 79
    },
    {
      "midi": 56,
      "hit": false,
      "t": 221142.63599999924,
      "d": 196.4283749999886,
      "v": 79
    },
    {
      "midi": 60,
      "hit": false,
      "t": 221142.63599999924,
      "d": 196.4283749999886,
      "v": 79
    },
    {
      "midi": 65,
      "hit": false,
      "t": 221142.63599999924,
      "d": 196.4283749999886,
      "v": 79
    },
    {
      "midi": 36,
      "hit": false,
      "t": 221142.63599999924,
      "d": 410.71387499998673,
      "v": 95
    },
    {
      "midi": 48,
      "hit": false,
      "t": 221142.63599999924,
      "d": 410.71387499998673,
      "v": 95
    },
    {
      "midi": 56,
      "hit": false,
      "t": 221571.20699999924,
      "d": 196.4283749999886,
      "v": 79
    },
    {
      "midi": 60,
      "hit": false,
      "t": 221571.20699999924,
      "d": 196.4283749999886,
      "v": 79
    },
    {
      "midi": 65,
      "hit": false,
      "t": 221571.20699999924,
      "d": 196.4283749999886,
      "v": 79
    },
    {
      "midi": 36,
      "hit": false,
      "t": 221571.20699999924,
      "d": 410.71387499998673,
      "v": 95
    },
    {
      "midi": 48,
      "hit": false,
      "t": 221571.20699999924,
      "d": 410.71387499998673,
      "v": 95
    },
    {
      "midi": 56,
      "hit": false,
      "t": 221999.77799999923,
      "d": 196.4283749999886,
      "v": 79
    },
    {
      "midi": 60,
      "hit": false,
      "t": 221999.77799999923,
      "d": 196.4283749999886,
      "v": 79
    },
    {
      "midi": 65,
      "hit": false,
      "t": 221999.77799999923,
      "d": 196.4283749999886,
      "v": 79
    },
    {
      "midi": 41,
      "hit": false,
      "t": 221999.77799999923,
      "d": 410.71387499998673,
      "v": 95
    },
    {
      "midi": 53,
      "hit": false,
      "t": 221999.77799999923,
      "d": 410.71387499998673,
      "v": 95
    },
    {
      "midi": 56,
      "hit": false,
      "t": 222428.34899999923,
      "d": 196.4283749999886,
      "v": 79
    },
    {
      "midi": 60,
      "hit": false,
      "t": 222428.34899999923,
      "d": 196.4283749999886,
      "v": 79
    },
    {
      "midi": 65,
      "hit": false,
      "t": 222428.34899999923,
      "d": 196.4283749999886,
      "v": 79
    },
    {
      "midi": 41,
      "hit": false,
      "t": 222428.34899999923,
      "d": 410.71387499998673,
      "v": 95
    },
    {
      "midi": 53,
      "hit": false,
      "t": 222428.34899999923,
      "d": 410.71387499998673,
      "v": 95
    },
    {
      "midi": 39,
      "hit": false,
      "t": 222856.91999999923,
      "d": 410.71387499998673,
      "v": 95
    },
    {
      "midi": 51,
      "hit": false,
      "t": 222856.91999999923,
      "d": 410.71387499998673,
      "v": 95
    },
    {
      "midi": 60,
      "hit": false,
      "t": 222856.91999999923,
      "d": 410.71387499998673,
      "v": 79
    },
    {
      "midi": 63,
      "hit": false,
      "t": 222856.91999999923,
      "d": 410.71387499998673,
      "v": 79
    },
    {
      "midi": 67,
      "hit": false,
      "t": 222856.91999999923,
      "d": 410.71387499998673,
      "v": 79
    },
    {
      "midi": 39,
      "hit": false,
      "t": 223285.49099999922,
      "d": 410.71387499998673,
      "v": 95
    },
    {
      "midi": 51,
      "hit": false,
      "t": 223285.49099999922,
      "d": 410.71387499998673,
      "v": 95
    },
    {
      "midi": 60,
      "hit": false,
      "t": 223285.49099999922,
      "d": 410.71387499998673,
      "v": 79
    },
    {
      "midi": 63,
      "hit": false,
      "t": 223285.49099999922,
      "d": 410.71387499998673,
      "v": 79
    },
    {
      "midi": 67,
      "hit": false,
      "t": 223285.49099999922,
      "d": 410.71387499998673,
      "v": 79
    },
    {
      "midi": 36,
      "hit": false,
      "t": 223714.06199999922,
      "d": 410.71387499998673,
      "v": 95
    },
    {
      "midi": 48,
      "hit": false,
      "t": 223714.06199999922,
      "d": 410.71387499998673,
      "v": 95
    },
    {
      "midi": 60,
      "hit": false,
      "t": 223714.06199999922,
      "d": 410.71387499998673,
      "v": 79
    },
    {
      "midi": 63,
      "hit": false,
      "t": 223714.06199999922,
      "d": 410.71387499998673,
      "v": 79
    },
    {
      "midi": 67,
      "hit": false,
      "t": 223714.06199999922,
      "d": 410.71387499998673,
      "v": 79
    },
    {
      "midi": 36,
      "hit": false,
      "t": 224142.63299999922,
      "d": 410.71387499998673,
      "v": 95
    },
    {
      "midi": 48,
      "hit": false,
      "t": 224142.63299999922,
      "d": 410.71387499998673,
      "v": 95
    },
    {
      "midi": 60,
      "hit": false,
      "t": 224142.63299999922,
      "d": 410.71387499998673,
      "v": 79
    },
    {
      "midi": 63,
      "hit": false,
      "t": 224142.63299999922,
      "d": 410.71387499998673,
      "v": 79
    },
    {
      "midi": 67,
      "hit": false,
      "t": 224142.63299999922,
      "d": 410.71387499998673,
      "v": 79
    },
    {
      "midi": 60,
      "hit": false,
      "t": 224571.2039999992,
      "d": 196.4283749999886,
      "v": 79
    },
    {
      "midi": 63,
      "hit": false,
      "t": 224571.2039999992,
      "d": 196.4283749999886,
      "v": 79
    },
    {
      "midi": 67,
      "hit": false,
      "t": 224571.2039999992,
      "d": 196.4283749999886,
      "v": 79
    },
    {
      "midi": 31,
      "hit": false,
      "t": 224571.2039999992,
      "d": 410.71387499998673,
      "v": 95
    },
    {
      "midi": 43,
      "hit": false,
      "t": 224571.2039999992,
      "d": 410.71387499998673,
      "v": 95
    },
    {
      "midi": 60,
      "hit": false,
      "t": 224999.7749999992,
      "d": 196.4283749999886,
      "v": 79
    },
    {
      "midi": 63,
      "hit": false,
      "t": 224999.7749999992,
      "d": 196.4283749999886,
      "v": 79
    },
    {
      "midi": 67,
      "hit": false,
      "t": 224999.7749999992,
      "d": 196.4283749999886,
      "v": 79
    },
    {
      "midi": 31,
      "hit": false,
      "t": 224999.7749999992,
      "d": 410.71387499998673,
      "v": 95
    },
    {
      "midi": 43,
      "hit": false,
      "t": 224999.7749999992,
      "d": 410.71387499998673,
      "v": 95
    },
    {
      "midi": 60,
      "hit": false,
      "t": 225428.3459999992,
      "d": 196.4283749999886,
      "v": 79
    },
    {
      "midi": 63,
      "hit": false,
      "t": 225428.3459999992,
      "d": 196.4283749999886,
      "v": 79
    },
    {
      "midi": 67,
      "hit": false,
      "t": 225428.3459999992,
      "d": 196.4283749999886,
      "v": 79
    },
    {
      "midi": 27,
      "hit": false,
      "t": 225428.3459999992,
      "d": 410.71387499998673,
      "v": 95
    },
    {
      "midi": 39,
      "hit": false,
      "t": 225428.3459999992,
      "d": 410.71387499998673,
      "v": 95
    },
    {
      "midi": 60,
      "hit": false,
      "t": 225856.9169999992,
      "d": 196.4283749999886,
      "v": 79
    },
    {
      "midi": 63,
      "hit": false,
      "t": 225856.9169999992,
      "d": 196.4283749999886,
      "v": 79
    },
    {
      "midi": 67,
      "hit": false,
      "t": 225856.9169999992,
      "d": 196.4283749999886,
      "v": 79
    },
    {
      "midi": 27,
      "hit": false,
      "t": 225856.9169999992,
      "d": 410.71387499998673,
      "v": 95
    },
    {
      "midi": 39,
      "hit": false,
      "t": 225856.9169999992,
      "d": 410.71387499998673,
      "v": 95
    },
    {
      "midi": 29,
      "hit": false,
      "t": 226285.4879999992,
      "d": 410.71387499998673,
      "v": 95
    },
    {
      "midi": 41,
      "hit": false,
      "t": 226285.4879999992,
      "d": 410.71387499998673,
      "v": 95
    },
    {
      "midi": 56,
      "hit": false,
      "t": 226285.4879999992,
      "d": 410.71387499998673,
      "v": 79
    },
    {
      "midi": 60,
      "hit": false,
      "t": 226285.4879999992,
      "d": 410.71387499998673,
      "v": 79
    },
    {
      "midi": 65,
      "hit": false,
      "t": 226285.4879999992,
      "d": 410.71387499998673,
      "v": 79
    },
    {
      "midi": 29,
      "hit": false,
      "t": 226714.0589999992,
      "d": 410.71387499998673,
      "v": 95
    },
    {
      "midi": 41,
      "hit": false,
      "t": 226714.0589999992,
      "d": 410.71387499998673,
      "v": 95
    },
    {
      "midi": 56,
      "hit": false,
      "t": 226714.0589999992,
      "d": 410.71387499998673,
      "v": 79
    },
    {
      "midi": 60,
      "hit": false,
      "t": 226714.0589999992,
      "d": 410.71387499998673,
      "v": 79
    },
    {
      "midi": 65,
      "hit": false,
      "t": 226714.0589999992,
      "d": 410.71387499998673,
      "v": 79
    },
    {
      "midi": 32,
      "hit": false,
      "t": 227142.6299999992,
      "d": 410.71387499998673,
      "v": 95
    },
    {
      "midi": 44,
      "hit": false,
      "t": 227142.6299999992,
      "d": 410.71387499998673,
      "v": 95
    },
    {
      "midi": 56,
      "hit": false,
      "t": 227142.6299999992,
      "d": 410.71387499998673,
      "v": 79
    },
    {
      "midi": 60,
      "hit": false,
      "t": 227142.6299999992,
      "d": 410.71387499998673,
      "v": 79
    },
    {
      "midi": 65,
      "hit": false,
      "t": 227142.6299999992,
      "d": 410.71387499998673,
      "v": 79
    },
    {
      "midi": 32,
      "hit": false,
      "t": 227571.2009999992,
      "d": 410.71387499998673,
      "v": 95
    },
    {
      "midi": 44,
      "hit": false,
      "t": 227571.2009999992,
      "d": 410.71387499998673,
      "v": 95
    },
    {
      "midi": 56,
      "hit": false,
      "t": 227571.2009999992,
      "d": 410.71387499998673,
      "v": 79
    },
    {
      "midi": 60,
      "hit": false,
      "t": 227571.2009999992,
      "d": 410.71387499998673,
      "v": 79
    },
    {
      "midi": 65,
      "hit": false,
      "t": 227571.2009999992,
      "d": 410.71387499998673,
      "v": 79
    },
    {
      "midi": 56,
      "hit": false,
      "t": 227999.77199999918,
      "d": 196.4283749999886,
      "v": 79
    },
    {
      "midi": 60,
      "hit": false,
      "t": 227999.77199999918,
      "d": 196.4283749999886,
      "v": 79
    },
    {
      "midi": 65,
      "hit": false,
      "t": 227999.77199999918,
      "d": 196.4283749999886,
      "v": 79
    },
    {
      "midi": 36,
      "hit": false,
      "t": 227999.77199999918,
      "d": 410.71387499998673,
      "v": 95
    },
    {
      "midi": 48,
      "hit": false,
      "t": 227999.77199999918,
      "d": 410.71387499998673,
      "v": 95
    },
    {
      "midi": 56,
      "hit": false,
      "t": 228428.34299999918,
      "d": 196.4283749999886,
      "v": 79
    },
    {
      "midi": 60,
      "hit": false,
      "t": 228428.34299999918,
      "d": 196.4283749999886,
      "v": 79
    },
    {
      "midi": 65,
      "hit": false,
      "t": 228428.34299999918,
      "d": 196.4283749999886,
      "v": 79
    },
    {
      "midi": 36,
      "hit": false,
      "t": 228428.34299999918,
      "d": 410.71387499998673,
      "v": 95
    },
    {
      "midi": 48,
      "hit": false,
      "t": 228428.34299999918,
      "d": 410.71387499998673,
      "v": 95
    },
    {
      "midi": 56,
      "hit": false,
      "t": 228856.91399999917,
      "d": 196.4283749999886,
      "v": 79
    },
    {
      "midi": 60,
      "hit": false,
      "t": 228856.91399999917,
      "d": 196.4283749999886,
      "v": 79
    },
    {
      "midi": 65,
      "hit": false,
      "t": 228856.91399999917,
      "d": 196.4283749999886,
      "v": 79
    },
    {
      "midi": 41,
      "hit": false,
      "t": 228856.91399999917,
      "d": 410.71387499998673,
      "v": 95
    },
    {
      "midi": 53,
      "hit": false,
      "t": 228856.91399999917,
      "d": 410.71387499998673,
      "v": 95
    },
    {
      "midi": 56,
      "hit": false,
      "t": 229285.48499999917,
      "d": 196.4283749999886,
      "v": 79
    },
    {
      "midi": 60,
      "hit": false,
      "t": 229285.48499999917,
      "d": 196.4283749999886,
      "v": 79
    },
    {
      "midi": 65,
      "hit": false,
      "t": 229285.48499999917,
      "d": 196.4283749999886,
      "v": 79
    },
    {
      "midi": 41,
      "hit": false,
      "t": 229285.48499999917,
      "d": 410.71387499998673,
      "v": 95
    },
    {
      "midi": 53,
      "hit": false,
      "t": 229285.48499999917,
      "d": 410.71387499998673,
      "v": 95
    },
    {
      "midi": 39,
      "hit": false,
      "t": 229714.05599999917,
      "d": 410.71387499998673,
      "v": 95
    },
    {
      "midi": 51,
      "hit": false,
      "t": 229714.05599999917,
      "d": 410.71387499998673,
      "v": 95
    },
    {
      "midi": 60,
      "hit": false,
      "t": 229714.05599999917,
      "d": 410.71387499998673,
      "v": 79
    },
    {
      "midi": 63,
      "hit": false,
      "t": 229714.05599999917,
      "d": 410.71387499998673,
      "v": 79
    },
    {
      "midi": 67,
      "hit": false,
      "t": 229714.05599999917,
      "d": 410.71387499998673,
      "v": 79
    },
    {
      "midi": 39,
      "hit": false,
      "t": 230142.62699999916,
      "d": 410.71387499998673,
      "v": 95
    },
    {
      "midi": 51,
      "hit": false,
      "t": 230142.62699999916,
      "d": 410.71387499998673,
      "v": 95
    },
    {
      "midi": 60,
      "hit": false,
      "t": 230142.62699999916,
      "d": 410.71387499998673,
      "v": 79
    },
    {
      "midi": 63,
      "hit": false,
      "t": 230142.62699999916,
      "d": 410.71387499998673,
      "v": 79
    },
    {
      "midi": 67,
      "hit": false,
      "t": 230142.62699999916,
      "d": 410.71387499998673,
      "v": 79
    },
    {
      "midi": 36,
      "hit": false,
      "t": 230571.19799999916,
      "d": 410.71387499998673,
      "v": 95
    },
    {
      "midi": 48,
      "hit": false,
      "t": 230571.19799999916,
      "d": 410.71387499998673,
      "v": 95
    },
    {
      "midi": 60,
      "hit": false,
      "t": 230571.19799999916,
      "d": 410.71387499998673,
      "v": 79
    },
    {
      "midi": 63,
      "hit": false,
      "t": 230571.19799999916,
      "d": 410.71387499998673,
      "v": 79
    },
    {
      "midi": 67,
      "hit": false,
      "t": 230571.19799999916,
      "d": 410.71387499998673,
      "v": 79
    },
    {
      "midi": 36,
      "hit": false,
      "t": 230999.76899999916,
      "d": 410.71387499998673,
      "v": 95
    },
    {
      "midi": 48,
      "hit": false,
      "t": 230999.76899999916,
      "d": 410.71387499998673,
      "v": 95
    },
    {
      "midi": 60,
      "hit": false,
      "t": 230999.76899999916,
      "d": 410.71387499998673,
      "v": 79
    },
    {
      "midi": 63,
      "hit": false,
      "t": 230999.76899999916,
      "d": 410.71387499998673,
      "v": 79
    },
    {
      "midi": 67,
      "hit": false,
      "t": 230999.76899999916,
      "d": 410.71387499998673,
      "v": 79
    },
    {
      "midi": 60,
      "hit": false,
      "t": 231428.33999999915,
      "d": 196.4283749999886,
      "v": 79
    },
    {
      "midi": 63,
      "hit": false,
      "t": 231428.33999999915,
      "d": 196.4283749999886,
      "v": 79
    },
    {
      "midi": 67,
      "hit": false,
      "t": 231428.33999999915,
      "d": 196.4283749999886,
      "v": 79
    },
    {
      "midi": 31,
      "hit": false,
      "t": 231428.33999999915,
      "d": 410.71387499998673,
      "v": 95
    },
    {
      "midi": 43,
      "hit": false,
      "t": 231428.33999999915,
      "d": 410.71387499998673,
      "v": 95
    },
    {
      "midi": 60,
      "hit": false,
      "t": 231856.91099999915,
      "d": 196.4283749999886,
      "v": 79
    },
    {
      "midi": 63,
      "hit": false,
      "t": 231856.91099999915,
      "d": 196.4283749999886,
      "v": 79
    },
    {
      "midi": 67,
      "hit": false,
      "t": 231856.91099999915,
      "d": 196.4283749999886,
      "v": 79
    },
    {
      "midi": 31,
      "hit": false,
      "t": 231856.91099999915,
      "d": 410.71387499998673,
      "v": 95
    },
    {
      "midi": 43,
      "hit": false,
      "t": 231856.91099999915,
      "d": 410.71387499998673,
      "v": 95
    },
    {
      "midi": 60,
      "hit": false,
      "t": 232285.48199999915,
      "d": 196.4283749999886,
      "v": 79
    },
    {
      "midi": 63,
      "hit": false,
      "t": 232285.48199999915,
      "d": 196.4283749999886,
      "v": 79
    },
    {
      "midi": 67,
      "hit": false,
      "t": 232285.48199999915,
      "d": 196.4283749999886,
      "v": 79
    },
    {
      "midi": 27,
      "hit": false,
      "t": 232285.48199999915,
      "d": 410.71387499998673,
      "v": 95
    },
    {
      "midi": 39,
      "hit": false,
      "t": 232285.48199999915,
      "d": 410.71387499998673,
      "v": 95
    },
    {
      "midi": 60,
      "hit": false,
      "t": 232714.05299999914,
      "d": 196.4283749999886,
      "v": 79
    },
    {
      "midi": 63,
      "hit": false,
      "t": 232714.05299999914,
      "d": 196.4283749999886,
      "v": 79
    },
    {
      "midi": 67,
      "hit": false,
      "t": 232714.05299999914,
      "d": 196.4283749999886,
      "v": 79
    },
    {
      "midi": 27,
      "hit": false,
      "t": 232714.05299999914,
      "d": 410.71387499998673,
      "v": 95
    },
    {
      "midi": 39,
      "hit": false,
      "t": 232714.05299999914,
      "d": 410.71387499998673,
      "v": 95
    },
    {
      "midi": 62,
      "hit": false,
      "t": 233142.62399999914,
      "d": 196.4283749999886,
      "v": 79
    },
    {
      "midi": 66,
      "hit": false,
      "t": 233142.62399999914,
      "d": 196.4283749999886,
      "v": 79
    },
    {
      "midi": 69,
      "hit": false,
      "t": 233142.62399999914,
      "d": 196.4283749999886,
      "v": 79
    },
    {
      "midi": 26,
      "hit": false,
      "t": 233142.62399999914,
      "d": 410.71387499998673,
      "v": 95
    },
    {
      "midi": 38,
      "hit": false,
      "t": 233142.62399999914,
      "d": 410.71387499998673,
      "v": 95
    },
    {
      "midi": 62,
      "hit": false,
      "t": 233571.19499999913,
      "d": 196.4283749999886,
      "v": 79
    },
    {
      "midi": 66,
      "hit": false,
      "t": 233571.19499999913,
      "d": 196.4283749999886,
      "v": 79
    },
    {
      "midi": 69,
      "hit": false,
      "t": 233571.19499999913,
      "d": 196.4283749999886,
      "v": 79
    },
    {
      "midi": 26,
      "hit": false,
      "t": 233571.19499999913,
      "d": 410.71387499998673,
      "v": 95
    },
    {
      "midi": 38,
      "hit": false,
      "t": 233571.19499999913,
      "d": 410.71387499998673,
      "v": 95
    },
    {
      "midi": 62,
      "hit": false,
      "t": 233999.76599999913,
      "d": 196.4283749999886,
      "v": 79
    },
    {
      "midi": 66,
      "hit": false,
      "t": 233999.76599999913,
      "d": 196.4283749999886,
      "v": 79
    },
    {
      "midi": 69,
      "hit": false,
      "t": 233999.76599999913,
      "d": 196.4283749999886,
      "v": 79
    },
    {
      "midi": 33,
      "hit": false,
      "t": 233999.76599999913,
      "d": 410.71387499998673,
      "v": 95
    },
    {
      "midi": 45,
      "hit": false,
      "t": 233999.76599999913,
      "d": 410.71387499998673,
      "v": 95
    },
    {
      "midi": 62,
      "hit": false,
      "t": 234428.33699999913,
      "d": 196.4283749999886,
      "v": 79
    },
    {
      "midi": 66,
      "hit": false,
      "t": 234428.33699999913,
      "d": 196.4283749999886,
      "v": 79
    },
    {
      "midi": 69,
      "hit": false,
      "t": 234428.33699999913,
      "d": 196.4283749999886,
      "v": 79
    },
    {
      "midi": 33,
      "hit": false,
      "t": 234428.33699999913,
      "d": 410.71387499998673,
      "v": 95
    },
    {
      "midi": 45,
      "hit": false,
      "t": 234428.33699999913,
      "d": 410.71387499998673,
      "v": 95
    },
    {
      "midi": 62,
      "hit": false,
      "t": 234856.90799999912,
      "d": 196.4283749999886,
      "v": 79
    },
    {
      "midi": 66,
      "hit": false,
      "t": 234856.90799999912,
      "d": 196.4283749999886,
      "v": 79
    },
    {
      "midi": 69,
      "hit": false,
      "t": 234856.90799999912,
      "d": 196.4283749999886,
      "v": 79
    },
    {
      "midi": 38,
      "hit": false,
      "t": 234856.90799999912,
      "d": 410.71387499998673,
      "v": 95
    },
    {
      "midi": 50,
      "hit": false,
      "t": 234856.90799999912,
      "d": 410.71387499998673,
      "v": 95
    },
    {
      "midi": 62,
      "hit": false,
      "t": 235285.47899999912,
      "d": 196.4283749999886,
      "v": 79
    },
    {
      "midi": 66,
      "hit": false,
      "t": 235285.47899999912,
      "d": 196.4283749999886,
      "v": 79
    },
    {
      "midi": 69,
      "hit": false,
      "t": 235285.47899999912,
      "d": 196.4283749999886,
      "v": 79
    },
    {
      "midi": 38,
      "hit": false,
      "t": 235285.47899999912,
      "d": 410.71387499998673,
      "v": 95
    },
    {
      "midi": 50,
      "hit": false,
      "t": 235285.47899999912,
      "d": 410.71387499998673,
      "v": 95
    },
    {
      "midi": 62,
      "hit": false,
      "t": 235714.04999999912,
      "d": 196.4283749999886,
      "v": 79
    },
    {
      "midi": 66,
      "hit": false,
      "t": 235714.04999999912,
      "d": 196.4283749999886,
      "v": 79
    },
    {
      "midi": 69,
      "hit": false,
      "t": 235714.04999999912,
      "d": 196.4283749999886,
      "v": 79
    },
    {
      "midi": 45,
      "hit": false,
      "t": 235714.04999999912,
      "d": 410.71387499998673,
      "v": 95
    },
    {
      "midi": 57,
      "hit": false,
      "t": 235714.04999999912,
      "d": 410.71387499998673,
      "v": 95
    },
    {
      "midi": 62,
      "hit": false,
      "t": 236142.6209999991,
      "d": 196.4283749999886,
      "v": 79
    },
    {
      "midi": 66,
      "hit": false,
      "t": 236142.6209999991,
      "d": 196.4283749999886,
      "v": 79
    },
    {
      "midi": 69,
      "hit": false,
      "t": 236142.6209999991,
      "d": 196.4283749999886,
      "v": 79
    },
    {
      "midi": 45,
      "hit": false,
      "t": 236142.6209999991,
      "d": 410.71387499998673,
      "v": 95
    },
    {
      "midi": 57,
      "hit": false,
      "t": 236142.6209999991,
      "d": 410.71387499998673,
      "v": 95
    },
    {
      "midi": 62,
      "hit": false,
      "t": 236571.1919999991,
      "d": 196.4283749999886,
      "v": 79
    },
    {
      "midi": 67,
      "hit": false,
      "t": 236571.1919999991,
      "d": 196.4283749999886,
      "v": 79
    },
    {
      "midi": 70,
      "hit": false,
      "t": 236571.1919999991,
      "d": 196.4283749999886,
      "v": 79
    },
    {
      "midi": 46,
      "hit": false,
      "t": 236571.1919999991,
      "d": 410.71387499998673,
      "v": 95
    },
    {
      "midi": 58,
      "hit": false,
      "t": 236571.1919999991,
      "d": 410.71387499998673,
      "v": 95
    },
    {
      "midi": 62,
      "hit": false,
      "t": 236999.7629999991,
      "d": 196.4283749999886,
      "v": 79
    },
    {
      "midi": 67,
      "hit": false,
      "t": 236999.7629999991,
      "d": 196.4283749999886,
      "v": 79
    },
    {
      "midi": 70,
      "hit": false,
      "t": 236999.7629999991,
      "d": 196.4283749999886,
      "v": 79
    },
    {
      "midi": 46,
      "hit": false,
      "t": 236999.7629999991,
      "d": 410.71387499998673,
      "v": 95
    },
    {
      "midi": 58,
      "hit": false,
      "t": 236999.7629999991,
      "d": 410.71387499998673,
      "v": 95
    },
    {
      "midi": 62,
      "hit": false,
      "t": 237428.3339999991,
      "d": 196.4283749999886,
      "v": 79
    },
    {
      "midi": 67,
      "hit": false,
      "t": 237428.3339999991,
      "d": 196.4283749999886,
      "v": 79
    },
    {
      "midi": 70,
      "hit": false,
      "t": 237428.3339999991,
      "d": 196.4283749999886,
      "v": 79
    },
    {
      "midi": 43,
      "hit": false,
      "t": 237428.3339999991,
      "d": 410.71387499998673,
      "v": 95
    },
    {
      "midi": 55,
      "hit": false,
      "t": 237428.3339999991,
      "d": 410.71387499998673,
      "v": 95
    },
    {
      "midi": 62,
      "hit": false,
      "t": 237856.9049999991,
      "d": 196.4283749999886,
      "v": 79
    },
    {
      "midi": 67,
      "hit": false,
      "t": 237856.9049999991,
      "d": 196.4283749999886,
      "v": 79
    },
    {
      "midi": 70,
      "hit": false,
      "t": 237856.9049999991,
      "d": 196.4283749999886,
      "v": 79
    },
    {
      "midi": 43,
      "hit": false,
      "t": 237856.9049999991,
      "d": 410.71387499998673,
      "v": 95
    },
    {
      "midi": 55,
      "hit": false,
      "t": 237856.9049999991,
      "d": 410.71387499998673,
      "v": 95
    },
    {
      "midi": 62,
      "hit": false,
      "t": 238285.4759999991,
      "d": 196.4283749999886,
      "v": 79
    },
    {
      "midi": 67,
      "hit": false,
      "t": 238285.4759999991,
      "d": 196.4283749999886,
      "v": 79
    },
    {
      "midi": 70,
      "hit": false,
      "t": 238285.4759999991,
      "d": 196.4283749999886,
      "v": 79
    },
    {
      "midi": 38,
      "hit": false,
      "t": 238285.4759999991,
      "d": 410.71387499998673,
      "v": 95
    },
    {
      "midi": 50,
      "hit": false,
      "t": 238285.4759999991,
      "d": 410.71387499998673,
      "v": 95
    },
    {
      "midi": 62,
      "hit": false,
      "t": 238714.0469999991,
      "d": 196.4283749999886,
      "v": 79
    },
    {
      "midi": 67,
      "hit": false,
      "t": 238714.0469999991,
      "d": 196.4283749999886,
      "v": 79
    },
    {
      "midi": 70,
      "hit": false,
      "t": 238714.0469999991,
      "d": 196.4283749999886,
      "v": 79
    },
    {
      "midi": 38,
      "hit": false,
      "t": 238714.0469999991,
      "d": 410.71387499998673,
      "v": 95
    },
    {
      "midi": 50,
      "hit": false,
      "t": 238714.0469999991,
      "d": 410.71387499998673,
      "v": 95
    },
    {
      "midi": 62,
      "hit": false,
      "t": 239142.61799999909,
      "d": 196.4283749999886,
      "v": 79
    },
    {
      "midi": 67,
      "hit": false,
      "t": 239142.61799999909,
      "d": 196.4283749999886,
      "v": 79
    },
    {
      "midi": 70,
      "hit": false,
      "t": 239142.61799999909,
      "d": 196.4283749999886,
      "v": 79
    },
    {
      "midi": 34,
      "hit": false,
      "t": 239142.61799999909,
      "d": 410.71387499998673,
      "v": 95
    },
    {
      "midi": 46,
      "hit": false,
      "t": 239142.61799999909,
      "d": 410.71387499998673,
      "v": 95
    },
    {
      "midi": 62,
      "hit": false,
      "t": 239571.18899999908,
      "d": 196.4283749999886,
      "v": 79
    },
    {
      "midi": 67,
      "hit": false,
      "t": 239571.18899999908,
      "d": 196.4283749999886,
      "v": 79
    },
    {
      "midi": 70,
      "hit": false,
      "t": 239571.18899999908,
      "d": 196.4283749999886,
      "v": 79
    },
    {
      "midi": 34,
      "hit": false,
      "t": 239571.18899999908,
      "d": 410.71387499998673,
      "v": 95
    },
    {
      "midi": 46,
      "hit": false,
      "t": 239571.18899999908,
      "d": 410.71387499998673,
      "v": 95
    },
    {
      "midi": 63,
      "hit": false,
      "t": 239999.75999999908,
      "d": 196.4283749999886,
      "v": 79
    },
    {
      "midi": 67,
      "hit": false,
      "t": 239999.75999999908,
      "d": 196.4283749999886,
      "v": 79
    },
    {
      "midi": 70,
      "hit": false,
      "t": 239999.75999999908,
      "d": 196.4283749999886,
      "v": 79
    },
    {
      "midi": 27,
      "hit": false,
      "t": 239999.75999999908,
      "d": 410.71387499998673,
      "v": 95
    },
    {
      "midi": 39,
      "hit": false,
      "t": 239999.75999999908,
      "d": 410.71387499998673,
      "v": 95
    },
    {
      "midi": 63,
      "hit": false,
      "t": 240428.33099999907,
      "d": 196.4283749999886,
      "v": 79
    },
    {
      "midi": 67,
      "hit": false,
      "t": 240428.33099999907,
      "d": 196.4283749999886,
      "v": 79
    },
    {
      "midi": 70,
      "hit": false,
      "t": 240428.33099999907,
      "d": 196.4283749999886,
      "v": 79
    },
    {
      "midi": 27,
      "hit": false,
      "t": 240428.33099999907,
      "d": 410.71387499998673,
      "v": 95
    },
    {
      "midi": 39,
      "hit": false,
      "t": 240428.33099999907,
      "d": 410.71387499998673,
      "v": 95
    },
    {
      "midi": 63,
      "hit": false,
      "t": 240856.90199999907,
      "d": 196.4283749999886,
      "v": 79
    },
    {
      "midi": 67,
      "hit": false,
      "t": 240856.90199999907,
      "d": 196.4283749999886,
      "v": 79
    },
    {
      "midi": 70,
      "hit": false,
      "t": 240856.90199999907,
      "d": 196.4283749999886,
      "v": 79
    },
    {
      "midi": 34,
      "hit": false,
      "t": 240856.90199999907,
      "d": 410.71387499998673,
      "v": 95
    },
    {
      "midi": 46,
      "hit": false,
      "t": 240856.90199999907,
      "d": 410.71387499998673,
      "v": 95
    },
    {
      "midi": 63,
      "hit": false,
      "t": 241285.47299999907,
      "d": 196.4283749999886,
      "v": 79
    },
    {
      "midi": 67,
      "hit": false,
      "t": 241285.47299999907,
      "d": 196.4283749999886,
      "v": 79
    },
    {
      "midi": 70,
      "hit": false,
      "t": 241285.47299999907,
      "d": 196.4283749999886,
      "v": 79
    },
    {
      "midi": 34,
      "hit": false,
      "t": 241285.47299999907,
      "d": 410.71387499998673,
      "v": 95
    },
    {
      "midi": 46,
      "hit": false,
      "t": 241285.47299999907,
      "d": 410.71387499998673,
      "v": 95
    },
    {
      "midi": 63,
      "hit": false,
      "t": 241714.04399999906,
      "d": 196.4283749999886,
      "v": 79
    },
    {
      "midi": 67,
      "hit": false,
      "t": 241714.04399999906,
      "d": 196.4283749999886,
      "v": 79
    },
    {
      "midi": 70,
      "hit": false,
      "t": 241714.04399999906,
      "d": 196.4283749999886,
      "v": 79
    },
    {
      "midi": 39,
      "hit": false,
      "t": 241714.04399999906,
      "d": 410.71387499998673,
      "v": 95
    },
    {
      "midi": 51,
      "hit": false,
      "t": 241714.04399999906,
      "d": 410.71387499998673,
      "v": 95
    },
    {
      "midi": 63,
      "hit": false,
      "t": 242142.61499999906,
      "d": 196.4283749999886,
      "v": 79
    },
    {
      "midi": 67,
      "hit": false,
      "t": 242142.61499999906,
      "d": 196.4283749999886,
      "v": 79
    },
    {
      "midi": 70,
      "hit": false,
      "t": 242142.61499999906,
      "d": 196.4283749999886,
      "v": 79
    },
    {
      "midi": 39,
      "hit": false,
      "t": 242142.61499999906,
      "d": 410.71387499998673,
      "v": 95
    },
    {
      "midi": 51,
      "hit": false,
      "t": 242142.61499999906,
      "d": 410.71387499998673,
      "v": 95
    },
    {
      "midi": 63,
      "hit": false,
      "t": 242571.18599999906,
      "d": 196.4283749999886,
      "v": 79
    },
    {
      "midi": 67,
      "hit": false,
      "t": 242571.18599999906,
      "d": 196.4283749999886,
      "v": 79
    },
    {
      "midi": 70,
      "hit": false,
      "t": 242571.18599999906,
      "d": 196.4283749999886,
      "v": 79
    },
    {
      "midi": 46,
      "hit": false,
      "t": 242571.18599999906,
      "d": 410.71387499998673,
      "v": 95
    },
    {
      "midi": 58,
      "hit": false,
      "t": 242571.18599999906,
      "d": 410.71387499998673,
      "v": 95
    },
    {
      "midi": 63,
      "hit": false,
      "t": 242999.75699999905,
      "d": 196.4283749999886,
      "v": 79
    },
    {
      "midi": 67,
      "hit": false,
      "t": 242999.75699999905,
      "d": 196.4283749999886,
      "v": 79
    },
    {
      "midi": 70,
      "hit": false,
      "t": 242999.75699999905,
      "d": 196.4283749999886,
      "v": 79
    },
    {
      "midi": 46,
      "hit": false,
      "t": 242999.75699999905,
      "d": 410.71387499998673,
      "v": 95
    },
    {
      "midi": 58,
      "hit": false,
      "t": 242999.75699999905,
      "d": 410.71387499998673,
      "v": 95
    },
    {
      "midi": 62,
      "hit": false,
      "t": 243428.32799999905,
      "d": 196.4283749999886,
      "v": 79
    },
    {
      "midi": 65,
      "hit": false,
      "t": 243428.32799999905,
      "d": 196.4283749999886,
      "v": 79
    },
    {
      "midi": 70,
      "hit": false,
      "t": 243428.32799999905,
      "d": 196.4283749999886,
      "v": 79
    },
    {
      "midi": 46,
      "hit": false,
      "t": 243428.32799999905,
      "d": 410.71387499998673,
      "v": 95
    },
    {
      "midi": 58,
      "hit": false,
      "t": 243428.32799999905,
      "d": 410.71387499998673,
      "v": 95
    },
    {
      "midi": 62,
      "hit": false,
      "t": 243856.89899999904,
      "d": 196.4283749999886,
      "v": 79
    },
    {
      "midi": 65,
      "hit": false,
      "t": 243856.89899999904,
      "d": 196.4283749999886,
      "v": 79
    },
    {
      "midi": 70,
      "hit": false,
      "t": 243856.89899999904,
      "d": 196.4283749999886,
      "v": 79
    },
    {
      "midi": 46,
      "hit": false,
      "t": 243856.89899999904,
      "d": 410.71387499998673,
      "v": 95
    },
    {
      "midi": 58,
      "hit": false,
      "t": 243856.89899999904,
      "d": 410.71387499998673,
      "v": 95
    },
    {
      "midi": 62,
      "hit": false,
      "t": 244285.46999999904,
      "d": 196.4283749999886,
      "v": 79
    },
    {
      "midi": 65,
      "hit": false,
      "t": 244285.46999999904,
      "d": 196.4283749999886,
      "v": 79
    },
    {
      "midi": 70,
      "hit": false,
      "t": 244285.46999999904,
      "d": 196.4283749999886,
      "v": 79
    },
    {
      "midi": 41,
      "hit": false,
      "t": 244285.46999999904,
      "d": 410.71387499998673,
      "v": 95
    },
    {
      "midi": 53,
      "hit": false,
      "t": 244285.46999999904,
      "d": 410.71387499998673,
      "v": 95
    },
    {
      "midi": 62,
      "hit": false,
      "t": 244714.04099999904,
      "d": 196.4283749999886,
      "v": 79
    },
    {
      "midi": 65,
      "hit": false,
      "t": 244714.04099999904,
      "d": 196.4283749999886,
      "v": 79
    },
    {
      "midi": 70,
      "hit": false,
      "t": 244714.04099999904,
      "d": 196.4283749999886,
      "v": 79
    },
    {
      "midi": 41,
      "hit": false,
      "t": 244714.04099999904,
      "d": 410.71387499998673,
      "v": 95
    },
    {
      "midi": 53,
      "hit": false,
      "t": 244714.04099999904,
      "d": 410.71387499998673,
      "v": 95
    },
    {
      "midi": 62,
      "hit": false,
      "t": 245142.61199999903,
      "d": 196.4283749999886,
      "v": 79
    },
    {
      "midi": 65,
      "hit": false,
      "t": 245142.61199999903,
      "d": 196.4283749999886,
      "v": 79
    },
    {
      "midi": 70,
      "hit": false,
      "t": 245142.61199999903,
      "d": 196.4283749999886,
      "v": 79
    },
    {
      "midi": 38,
      "hit": false,
      "t": 245142.61199999903,
      "d": 410.71387499998673,
      "v": 95
    },
    {
      "midi": 50,
      "hit": false,
      "t": 245142.61199999903,
      "d": 410.71387499998673,
      "v": 95
    },
    {
      "midi": 62,
      "hit": false,
      "t": 245571.18299999903,
      "d": 196.4283749999886,
      "v": 79
    },
    {
      "midi": 65,
      "hit": false,
      "t": 245571.18299999903,
      "d": 196.4283749999886,
      "v": 79
    },
    {
      "midi": 70,
      "hit": false,
      "t": 245571.18299999903,
      "d": 196.4283749999886,
      "v": 79
    },
    {
      "midi": 38,
      "hit": false,
      "t": 245571.18299999903,
      "d": 410.71387499998673,
      "v": 95
    },
    {
      "midi": 50,
      "hit": false,
      "t": 245571.18299999903,
      "d": 410.71387499998673,
      "v": 95
    },
    {
      "midi": 62,
      "hit": false,
      "t": 245999.75399999903,
      "d": 196.4283749999886,
      "v": 79
    },
    {
      "midi": 65,
      "hit": false,
      "t": 245999.75399999903,
      "d": 196.4283749999886,
      "v": 79
    },
    {
      "midi": 70,
      "hit": false,
      "t": 245999.75399999903,
      "d": 196.4283749999886,
      "v": 79
    },
    {
      "midi": 34,
      "hit": false,
      "t": 245999.75399999903,
      "d": 410.71387499998673,
      "v": 95
    },
    {
      "midi": 46,
      "hit": false,
      "t": 245999.75399999903,
      "d": 410.71387499998673,
      "v": 95
    },
    {
      "midi": 62,
      "hit": false,
      "t": 246428.32499999902,
      "d": 196.4283749999886,
      "v": 79
    },
    {
      "midi": 65,
      "hit": false,
      "t": 246428.32499999902,
      "d": 196.4283749999886,
      "v": 79
    },
    {
      "midi": 70,
      "hit": false,
      "t": 246428.32499999902,
      "d": 196.4283749999886,
      "v": 79
    },
    {
      "midi": 34,
      "hit": false,
      "t": 246428.32499999902,
      "d": 410.71387499998673,
      "v": 95
    },
    {
      "midi": 46,
      "hit": false,
      "t": 246428.32499999902,
      "d": 410.71387499998673,
      "v": 95
    },
    {
      "midi": 62,
      "hit": false,
      "t": 246856.89599999902,
      "d": 196.4283749999886,
      "v": 79
    },
    {
      "midi": 66,
      "hit": false,
      "t": 246856.89599999902,
      "d": 196.4283749999886,
      "v": 79
    },
    {
      "midi": 69,
      "hit": false,
      "t": 246856.89599999902,
      "d": 196.4283749999886,
      "v": 79
    },
    {
      "midi": 26,
      "hit": false,
      "t": 246856.89599999902,
      "d": 410.71387499998673,
      "v": 95
    },
    {
      "midi": 38,
      "hit": false,
      "t": 246856.89599999902,
      "d": 410.71387499998673,
      "v": 95
    },
    {
      "midi": 62,
      "hit": false,
      "t": 247285.46699999901,
      "d": 196.4283749999886,
      "v": 79
    },
    {
      "midi": 66,
      "hit": false,
      "t": 247285.46699999901,
      "d": 196.4283749999886,
      "v": 79
    },
    {
      "midi": 69,
      "hit": false,
      "t": 247285.46699999901,
      "d": 196.4283749999886,
      "v": 79
    },
    {
      "midi": 26,
      "hit": false,
      "t": 247285.46699999901,
      "d": 410.71387499998673,
      "v": 95
    },
    {
      "midi": 38,
      "hit": false,
      "t": 247285.46699999901,
      "d": 410.71387499998673,
      "v": 95
    },
    {
      "midi": 62,
      "hit": false,
      "t": 247714.037999999,
      "d": 196.4283749999886,
      "v": 79
    },
    {
      "midi": 66,
      "hit": false,
      "t": 247714.037999999,
      "d": 196.4283749999886,
      "v": 79
    },
    {
      "midi": 69,
      "hit": false,
      "t": 247714.037999999,
      "d": 196.4283749999886,
      "v": 79
    },
    {
      "midi": 33,
      "hit": false,
      "t": 247714.037999999,
      "d": 410.71387499998673,
      "v": 95
    },
    {
      "midi": 45,
      "hit": false,
      "t": 247714.037999999,
      "d": 410.71387499998673,
      "v": 95
    },
    {
      "midi": 62,
      "hit": false,
      "t": 248142.608999999,
      "d": 196.4283749999886,
      "v": 79
    },
    {
      "midi": 66,
      "hit": false,
      "t": 248142.608999999,
      "d": 196.4283749999886,
      "v": 79
    },
    {
      "midi": 69,
      "hit": false,
      "t": 248142.608999999,
      "d": 196.4283749999886,
      "v": 79
    },
    {
      "midi": 33,
      "hit": false,
      "t": 248142.608999999,
      "d": 410.71387499998673,
      "v": 95
    },
    {
      "midi": 45,
      "hit": false,
      "t": 248142.608999999,
      "d": 410.71387499998673,
      "v": 95
    },
    {
      "midi": 62,
      "hit": false,
      "t": 248571.179999999,
      "d": 196.4283749999886,
      "v": 79
    },
    {
      "midi": 66,
      "hit": false,
      "t": 248571.179999999,
      "d": 196.4283749999886,
      "v": 79
    },
    {
      "midi": 69,
      "hit": false,
      "t": 248571.179999999,
      "d": 196.4283749999886,
      "v": 79
    },
    {
      "midi": 38,
      "hit": false,
      "t": 248571.179999999,
      "d": 410.71387499998673,
      "v": 95
    },
    {
      "midi": 50,
      "hit": false,
      "t": 248571.179999999,
      "d": 410.71387499998673,
      "v": 95
    },
    {
      "midi": 62,
      "hit": false,
      "t": 248999.750999999,
      "d": 196.4283749999886,
      "v": 79
    },
    {
      "midi": 66,
      "hit": false,
      "t": 248999.750999999,
      "d": 196.4283749999886,
      "v": 79
    },
    {
      "midi": 69,
      "hit": false,
      "t": 248999.750999999,
      "d": 196.4283749999886,
      "v": 79
    },
    {
      "midi": 38,
      "hit": false,
      "t": 248999.750999999,
      "d": 410.71387499998673,
      "v": 95
    },
    {
      "midi": 50,
      "hit": false,
      "t": 248999.750999999,
      "d": 410.71387499998673,
      "v": 95
    },
    {
      "midi": 62,
      "hit": false,
      "t": 249428.321999999,
      "d": 196.4283749999886,
      "v": 79
    },
    {
      "midi": 66,
      "hit": false,
      "t": 249428.321999999,
      "d": 196.4283749999886,
      "v": 79
    },
    {
      "midi": 69,
      "hit": false,
      "t": 249428.321999999,
      "d": 196.4283749999886,
      "v": 79
    },
    {
      "midi": 45,
      "hit": false,
      "t": 249428.321999999,
      "d": 410.71387499998673,
      "v": 95
    },
    {
      "midi": 57,
      "hit": false,
      "t": 249428.321999999,
      "d": 410.71387499998673,
      "v": 95
    },
    {
      "midi": 62,
      "hit": false,
      "t": 249856.892999999,
      "d": 196.4283749999886,
      "v": 79
    },
    {
      "midi": 66,
      "hit": false,
      "t": 249856.892999999,
      "d": 196.4283749999886,
      "v": 79
    },
    {
      "midi": 69,
      "hit": false,
      "t": 249856.892999999,
      "d": 196.4283749999886,
      "v": 79
    },
    {
      "midi": 45,
      "hit": false,
      "t": 249856.892999999,
      "d": 410.71387499998673,
      "v": 95
    },
    {
      "midi": 57,
      "hit": false,
      "t": 249856.892999999,
      "d": 410.71387499998673,
      "v": 95
    },
    {
      "midi": 62,
      "hit": false,
      "t": 250285.463999999,
      "d": 196.4283749999886,
      "v": 79
    },
    {
      "midi": 67,
      "hit": false,
      "t": 250285.463999999,
      "d": 196.4283749999886,
      "v": 79
    },
    {
      "midi": 70,
      "hit": false,
      "t": 250285.463999999,
      "d": 196.4283749999886,
      "v": 79
    },
    {
      "midi": 46,
      "hit": false,
      "t": 250285.463999999,
      "d": 410.71387499998673,
      "v": 95
    },
    {
      "midi": 58,
      "hit": false,
      "t": 250285.463999999,
      "d": 410.71387499998673,
      "v": 95
    },
    {
      "midi": 62,
      "hit": false,
      "t": 250714.03499999898,
      "d": 196.4283749999886,
      "v": 79
    },
    {
      "midi": 67,
      "hit": false,
      "t": 250714.03499999898,
      "d": 196.4283749999886,
      "v": 79
    },
    {
      "midi": 70,
      "hit": false,
      "t": 250714.03499999898,
      "d": 196.4283749999886,
      "v": 79
    },
    {
      "midi": 46,
      "hit": false,
      "t": 250714.03499999898,
      "d": 410.71387499998673,
      "v": 95
    },
    {
      "midi": 58,
      "hit": false,
      "t": 250714.03499999898,
      "d": 410.71387499998673,
      "v": 95
    },
    {
      "midi": 62,
      "hit": false,
      "t": 251142.60599999898,
      "d": 196.4283749999886,
      "v": 79
    },
    {
      "midi": 67,
      "hit": false,
      "t": 251142.60599999898,
      "d": 196.4283749999886,
      "v": 79
    },
    {
      "midi": 70,
      "hit": false,
      "t": 251142.60599999898,
      "d": 196.4283749999886,
      "v": 79
    },
    {
      "midi": 43,
      "hit": false,
      "t": 251142.60599999898,
      "d": 410.71387499998673,
      "v": 95
    },
    {
      "midi": 55,
      "hit": false,
      "t": 251142.60599999898,
      "d": 410.71387499998673,
      "v": 95
    },
    {
      "midi": 62,
      "hit": false,
      "t": 251571.17699999898,
      "d": 196.4283749999886,
      "v": 79
    },
    {
      "midi": 67,
      "hit": false,
      "t": 251571.17699999898,
      "d": 196.4283749999886,
      "v": 79
    },
    {
      "midi": 70,
      "hit": false,
      "t": 251571.17699999898,
      "d": 196.4283749999886,
      "v": 79
    },
    {
      "midi": 43,
      "hit": false,
      "t": 251571.17699999898,
      "d": 410.71387499998673,
      "v": 95
    },
    {
      "midi": 55,
      "hit": false,
      "t": 251571.17699999898,
      "d": 410.71387499998673,
      "v": 95
    },
    {
      "midi": 62,
      "hit": false,
      "t": 251999.74799999897,
      "d": 196.4283749999886,
      "v": 79
    },
    {
      "midi": 67,
      "hit": false,
      "t": 251999.74799999897,
      "d": 196.4283749999886,
      "v": 79
    },
    {
      "midi": 70,
      "hit": false,
      "t": 251999.74799999897,
      "d": 196.4283749999886,
      "v": 79
    },
    {
      "midi": 38,
      "hit": false,
      "t": 251999.74799999897,
      "d": 410.71387499998673,
      "v": 95
    },
    {
      "midi": 50,
      "hit": false,
      "t": 251999.74799999897,
      "d": 410.71387499998673,
      "v": 95
    },
    {
      "midi": 62,
      "hit": false,
      "t": 252428.31899999897,
      "d": 196.4283749999886,
      "v": 79
    },
    {
      "midi": 67,
      "hit": false,
      "t": 252428.31899999897,
      "d": 196.4283749999886,
      "v": 79
    },
    {
      "midi": 70,
      "hit": false,
      "t": 252428.31899999897,
      "d": 196.4283749999886,
      "v": 79
    },
    {
      "midi": 38,
      "hit": false,
      "t": 252428.31899999897,
      "d": 410.71387499998673,
      "v": 95
    },
    {
      "midi": 50,
      "hit": false,
      "t": 252428.31899999897,
      "d": 410.71387499998673,
      "v": 95
    },
    {
      "midi": 62,
      "hit": false,
      "t": 252856.88999999897,
      "d": 196.4283749999886,
      "v": 79
    },
    {
      "midi": 67,
      "hit": false,
      "t": 252856.88999999897,
      "d": 196.4283749999886,
      "v": 79
    },
    {
      "midi": 70,
      "hit": false,
      "t": 252856.88999999897,
      "d": 196.4283749999886,
      "v": 79
    },
    {
      "midi": 34,
      "hit": false,
      "t": 252856.88999999897,
      "d": 410.71387499998673,
      "v": 95
    },
    {
      "midi": 46,
      "hit": false,
      "t": 252856.88999999897,
      "d": 410.71387499998673,
      "v": 95
    },
    {
      "midi": 62,
      "hit": false,
      "t": 253285.46099999896,
      "d": 196.4283749999886,
      "v": 79
    },
    {
      "midi": 67,
      "hit": false,
      "t": 253285.46099999896,
      "d": 196.4283749999886,
      "v": 79
    },
    {
      "midi": 70,
      "hit": false,
      "t": 253285.46099999896,
      "d": 196.4283749999886,
      "v": 79
    },
    {
      "midi": 34,
      "hit": false,
      "t": 253285.46099999896,
      "d": 410.71387499998673,
      "v": 95
    },
    {
      "midi": 46,
      "hit": false,
      "t": 253285.46099999896,
      "d": 410.71387499998673,
      "v": 95
    },
    {
      "midi": 63,
      "hit": false,
      "t": 253714.03199999896,
      "d": 196.4283749999886,
      "v": 79
    },
    {
      "midi": 67,
      "hit": false,
      "t": 253714.03199999896,
      "d": 196.4283749999886,
      "v": 79
    },
    {
      "midi": 70,
      "hit": false,
      "t": 253714.03199999896,
      "d": 196.4283749999886,
      "v": 79
    },
    {
      "midi": 27,
      "hit": false,
      "t": 253714.03199999896,
      "d": 410.71387499998673,
      "v": 95
    },
    {
      "midi": 39,
      "hit": false,
      "t": 253714.03199999896,
      "d": 410.71387499998673,
      "v": 95
    },
    {
      "midi": 63,
      "hit": false,
      "t": 254142.60299999896,
      "d": 196.4283749999886,
      "v": 79
    },
    {
      "midi": 67,
      "hit": false,
      "t": 254142.60299999896,
      "d": 196.4283749999886,
      "v": 79
    },
    {
      "midi": 70,
      "hit": false,
      "t": 254142.60299999896,
      "d": 196.4283749999886,
      "v": 79
    },
    {
      "midi": 27,
      "hit": false,
      "t": 254142.60299999896,
      "d": 410.71387499998673,
      "v": 95
    },
    {
      "midi": 39,
      "hit": false,
      "t": 254142.60299999896,
      "d": 410.71387499998673,
      "v": 95
    },
    {
      "midi": 63,
      "hit": false,
      "t": 254571.17399999895,
      "d": 196.4283749999886,
      "v": 79
    },
    {
      "midi": 67,
      "hit": false,
      "t": 254571.17399999895,
      "d": 196.4283749999886,
      "v": 79
    },
    {
      "midi": 70,
      "hit": false,
      "t": 254571.17399999895,
      "d": 196.4283749999886,
      "v": 79
    },
    {
      "midi": 34,
      "hit": false,
      "t": 254571.17399999895,
      "d": 410.71387499998673,
      "v": 95
    },
    {
      "midi": 46,
      "hit": false,
      "t": 254571.17399999895,
      "d": 410.71387499998673,
      "v": 95
    },
    {
      "midi": 63,
      "hit": false,
      "t": 254999.74499999895,
      "d": 196.4283749999886,
      "v": 79
    },
    {
      "midi": 67,
      "hit": false,
      "t": 254999.74499999895,
      "d": 196.4283749999886,
      "v": 79
    },
    {
      "midi": 70,
      "hit": false,
      "t": 254999.74499999895,
      "d": 196.4283749999886,
      "v": 79
    },
    {
      "midi": 34,
      "hit": false,
      "t": 254999.74499999895,
      "d": 410.71387499998673,
      "v": 95
    },
    {
      "midi": 46,
      "hit": false,
      "t": 254999.74499999895,
      "d": 410.71387499998673,
      "v": 95
    },
    {
      "midi": 63,
      "hit": false,
      "t": 255428.31599999894,
      "d": 196.4283749999886,
      "v": 79
    },
    {
      "midi": 67,
      "hit": false,
      "t": 255428.31599999894,
      "d": 196.4283749999886,
      "v": 79
    },
    {
      "midi": 70,
      "hit": false,
      "t": 255428.31599999894,
      "d": 196.4283749999886,
      "v": 79
    },
    {
      "midi": 39,
      "hit": false,
      "t": 255428.31599999894,
      "d": 410.71387499998673,
      "v": 95
    },
    {
      "midi": 51,
      "hit": false,
      "t": 255428.31599999894,
      "d": 410.71387499998673,
      "v": 95
    },
    {
      "midi": 63,
      "hit": false,
      "t": 255856.88699999894,
      "d": 196.4283749999886,
      "v": 79
    },
    {
      "midi": 67,
      "hit": false,
      "t": 255856.88699999894,
      "d": 196.4283749999886,
      "v": 79
    },
    {
      "midi": 70,
      "hit": false,
      "t": 255856.88699999894,
      "d": 196.4283749999886,
      "v": 79
    },
    {
      "midi": 39,
      "hit": false,
      "t": 255856.88699999894,
      "d": 410.71387499998673,
      "v": 95
    },
    {
      "midi": 51,
      "hit": false,
      "t": 255856.88699999894,
      "d": 410.71387499998673,
      "v": 95
    },
    {
      "midi": 63,
      "hit": false,
      "t": 256285.45799999894,
      "d": 196.4283749999886,
      "v": 79
    },
    {
      "midi": 67,
      "hit": false,
      "t": 256285.45799999894,
      "d": 196.4283749999886,
      "v": 79
    },
    {
      "midi": 70,
      "hit": false,
      "t": 256285.45799999894,
      "d": 196.4283749999886,
      "v": 79
    },
    {
      "midi": 46,
      "hit": false,
      "t": 256285.45799999894,
      "d": 410.71387499998673,
      "v": 95
    },
    {
      "midi": 58,
      "hit": false,
      "t": 256285.45799999894,
      "d": 410.71387499998673,
      "v": 95
    },
    {
      "midi": 63,
      "hit": false,
      "t": 256714.02899999893,
      "d": 196.4283749999886,
      "v": 79
    },
    {
      "midi": 67,
      "hit": false,
      "t": 256714.02899999893,
      "d": 196.4283749999886,
      "v": 79
    },
    {
      "midi": 70,
      "hit": false,
      "t": 256714.02899999893,
      "d": 196.4283749999886,
      "v": 79
    },
    {
      "midi": 46,
      "hit": false,
      "t": 256714.02899999893,
      "d": 410.71387499998673,
      "v": 95
    },
    {
      "midi": 58,
      "hit": false,
      "t": 256714.02899999893,
      "d": 410.71387499998673,
      "v": 95
    },
    {
      "midi": 62,
      "hit": false,
      "t": 257142.59999999893,
      "d": 196.4283749999886,
      "v": 79
    },
    {
      "midi": 65,
      "hit": false,
      "t": 257142.59999999893,
      "d": 196.4283749999886,
      "v": 79
    },
    {
      "midi": 70,
      "hit": false,
      "t": 257142.59999999893,
      "d": 196.4283749999886,
      "v": 79
    },
    {
      "midi": 46,
      "hit": false,
      "t": 257142.59999999893,
      "d": 410.71387499998673,
      "v": 95
    },
    {
      "midi": 58,
      "hit": false,
      "t": 257142.59999999893,
      "d": 410.71387499998673,
      "v": 95
    },
    {
      "midi": 62,
      "hit": false,
      "t": 257571.17099999893,
      "d": 196.4283749999886,
      "v": 79
    },
    {
      "midi": 65,
      "hit": false,
      "t": 257571.17099999893,
      "d": 196.4283749999886,
      "v": 79
    },
    {
      "midi": 70,
      "hit": false,
      "t": 257571.17099999893,
      "d": 196.4283749999886,
      "v": 79
    },
    {
      "midi": 46,
      "hit": false,
      "t": 257571.17099999893,
      "d": 410.71387499998673,
      "v": 95
    },
    {
      "midi": 58,
      "hit": false,
      "t": 257571.17099999893,
      "d": 410.71387499998673,
      "v": 95
    },
    {
      "midi": 62,
      "hit": false,
      "t": 257999.74199999892,
      "d": 196.4283749999886,
      "v": 79
    },
    {
      "midi": 65,
      "hit": false,
      "t": 257999.74199999892,
      "d": 196.4283749999886,
      "v": 79
    },
    {
      "midi": 70,
      "hit": false,
      "t": 257999.74199999892,
      "d": 196.4283749999886,
      "v": 79
    },
    {
      "midi": 41,
      "hit": false,
      "t": 257999.74199999892,
      "d": 410.71387499998673,
      "v": 95
    },
    {
      "midi": 53,
      "hit": false,
      "t": 257999.74199999892,
      "d": 410.71387499998673,
      "v": 95
    },
    {
      "midi": 62,
      "hit": false,
      "t": 258428.31299999892,
      "d": 196.4283749999886,
      "v": 79
    },
    {
      "midi": 65,
      "hit": false,
      "t": 258428.31299999892,
      "d": 196.4283749999886,
      "v": 79
    },
    {
      "midi": 70,
      "hit": false,
      "t": 258428.31299999892,
      "d": 196.4283749999886,
      "v": 79
    },
    {
      "midi": 41,
      "hit": false,
      "t": 258428.31299999892,
      "d": 410.71387499998673,
      "v": 95
    },
    {
      "midi": 53,
      "hit": false,
      "t": 258428.31299999892,
      "d": 410.71387499998673,
      "v": 95
    },
    {
      "midi": 62,
      "hit": false,
      "t": 258856.8839999989,
      "d": 196.4283749999886,
      "v": 79
    },
    {
      "midi": 65,
      "hit": false,
      "t": 258856.8839999989,
      "d": 196.4283749999886,
      "v": 79
    },
    {
      "midi": 70,
      "hit": false,
      "t": 258856.8839999989,
      "d": 196.4283749999886,
      "v": 79
    },
    {
      "midi": 38,
      "hit": false,
      "t": 258856.8839999989,
      "d": 410.71387499998673,
      "v": 95
    },
    {
      "midi": 50,
      "hit": false,
      "t": 258856.8839999989,
      "d": 410.71387499998673,
      "v": 95
    },
    {
      "midi": 62,
      "hit": false,
      "t": 259285.4549999989,
      "d": 196.4283749999886,
      "v": 79
    },
    {
      "midi": 65,
      "hit": false,
      "t": 259285.4549999989,
      "d": 196.4283749999886,
      "v": 79
    },
    {
      "midi": 70,
      "hit": false,
      "t": 259285.4549999989,
      "d": 196.4283749999886,
      "v": 79
    },
    {
      "midi": 38,
      "hit": false,
      "t": 259285.4549999989,
      "d": 410.71387499998673,
      "v": 95
    },
    {
      "midi": 50,
      "hit": false,
      "t": 259285.4549999989,
      "d": 410.71387499998673,
      "v": 95
    },
    {
      "midi": 62,
      "hit": false,
      "t": 259714.0259999989,
      "d": 196.4283749999886,
      "v": 79
    },
    {
      "midi": 65,
      "hit": false,
      "t": 259714.0259999989,
      "d": 196.4283749999886,
      "v": 79
    },
    {
      "midi": 70,
      "hit": false,
      "t": 259714.0259999989,
      "d": 196.4283749999886,
      "v": 79
    },
    {
      "midi": 34,
      "hit": false,
      "t": 259714.0259999989,
      "d": 410.71387499998673,
      "v": 95
    },
    {
      "midi": 46,
      "hit": false,
      "t": 259714.0259999989,
      "d": 410.71387499998673,
      "v": 95
    },
    {
      "midi": 62,
      "hit": false,
      "t": 260142.5969999989,
      "d": 196.4283749999886,
      "v": 79
    },
    {
      "midi": 65,
      "hit": false,
      "t": 260142.5969999989,
      "d": 196.4283749999886,
      "v": 79
    },
    {
      "midi": 70,
      "hit": false,
      "t": 260142.5969999989,
      "d": 196.4283749999886,
      "v": 79
    },
    {
      "midi": 34,
      "hit": false,
      "t": 260142.5969999989,
      "d": 410.71387499998673,
      "v": 95
    },
    {
      "midi": 46,
      "hit": false,
      "t": 260142.5969999989,
      "d": 410.71387499998673,
      "v": 95
    },
    {
      "midi": 62,
      "hit": false,
      "t": 260571.1679999989,
      "d": 196.4283749999886,
      "v": 79
    },
    {
      "midi": 66,
      "hit": false,
      "t": 260571.1679999989,
      "d": 196.4283749999886,
      "v": 79
    },
    {
      "midi": 69,
      "hit": false,
      "t": 260571.1679999989,
      "d": 196.4283749999886,
      "v": 79
    },
    {
      "midi": 26,
      "hit": false,
      "t": 260571.1679999989,
      "d": 410.71387499998673,
      "v": 95
    },
    {
      "midi": 38,
      "hit": false,
      "t": 260571.1679999989,
      "d": 410.71387499998673,
      "v": 95
    },
    {
      "midi": 62,
      "hit": false,
      "t": 260999.7389999989,
      "d": 196.4283749999886,
      "v": 79
    },
    {
      "midi": 66,
      "hit": false,
      "t": 260999.7389999989,
      "d": 196.4283749999886,
      "v": 79
    },
    {
      "midi": 69,
      "hit": false,
      "t": 260999.7389999989,
      "d": 196.4283749999886,
      "v": 79
    },
    {
      "midi": 26,
      "hit": false,
      "t": 260999.7389999989,
      "d": 410.71387499998673,
      "v": 95
    },
    {
      "midi": 38,
      "hit": false,
      "t": 260999.7389999989,
      "d": 410.71387499998673,
      "v": 95
    },
    {
      "midi": 62,
      "hit": false,
      "t": 261428.3099999989,
      "d": 196.4283749999886,
      "v": 79
    },
    {
      "midi": 66,
      "hit": false,
      "t": 261428.3099999989,
      "d": 196.4283749999886,
      "v": 79
    },
    {
      "midi": 69,
      "hit": false,
      "t": 261428.3099999989,
      "d": 196.4283749999886,
      "v": 79
    },
    {
      "midi": 33,
      "hit": false,
      "t": 261428.3099999989,
      "d": 410.71387499998673,
      "v": 95
    },
    {
      "midi": 45,
      "hit": false,
      "t": 261428.3099999989,
      "d": 410.71387499998673,
      "v": 95
    },
    {
      "midi": 62,
      "hit": false,
      "t": 261856.8809999989,
      "d": 196.4283749999886,
      "v": 79
    },
    {
      "midi": 66,
      "hit": false,
      "t": 261856.8809999989,
      "d": 196.4283749999886,
      "v": 79
    },
    {
      "midi": 69,
      "hit": false,
      "t": 261856.8809999989,
      "d": 196.4283749999886,
      "v": 79
    },
    {
      "midi": 33,
      "hit": false,
      "t": 261856.8809999989,
      "d": 410.71387500001583,
      "v": 95
    },
    {
      "midi": 45,
      "hit": false,
      "t": 261856.8809999989,
      "d": 410.71387500001583,
      "v": 95
    },
    {
      "midi": 62,
      "hit": false,
      "t": 262285.4519999989,
      "d": 196.4283750000177,
      "v": 79
    },
    {
      "midi": 66,
      "hit": false,
      "t": 262285.4519999989,
      "d": 196.4283750000177,
      "v": 79
    },
    {
      "midi": 69,
      "hit": false,
      "t": 262285.4519999989,
      "d": 196.4283750000177,
      "v": 79
    },
    {
      "midi": 38,
      "hit": false,
      "t": 262285.4519999989,
      "d": 410.71387500001583,
      "v": 95
    },
    {
      "midi": 50,
      "hit": false,
      "t": 262285.4519999989,
      "d": 410.71387500001583,
      "v": 95
    },
    {
      "midi": 62,
      "hit": false,
      "t": 262714.0229999989,
      "d": 196.4283750000177,
      "v": 79
    },
    {
      "midi": 66,
      "hit": false,
      "t": 262714.0229999989,
      "d": 196.4283750000177,
      "v": 79
    },
    {
      "midi": 69,
      "hit": false,
      "t": 262714.0229999989,
      "d": 196.4283750000177,
      "v": 79
    },
    {
      "midi": 38,
      "hit": false,
      "t": 262714.0229999989,
      "d": 410.71387500001583,
      "v": 95
    },
    {
      "midi": 50,
      "hit": false,
      "t": 262714.0229999989,
      "d": 410.71387500001583,
      "v": 95
    },
    {
      "midi": 62,
      "hit": false,
      "t": 263142.5939999989,
      "d": 196.4283750000177,
      "v": 79
    },
    {
      "midi": 66,
      "hit": false,
      "t": 263142.5939999989,
      "d": 196.4283750000177,
      "v": 79
    },
    {
      "midi": 69,
      "hit": false,
      "t": 263142.5939999989,
      "d": 196.4283750000177,
      "v": 79
    },
    {
      "midi": 45,
      "hit": false,
      "t": 263142.5939999989,
      "d": 410.71387500001583,
      "v": 95
    },
    {
      "midi": 57,
      "hit": false,
      "t": 263142.5939999989,
      "d": 410.71387500001583,
      "v": 95
    },
    {
      "midi": 62,
      "hit": false,
      "t": 263571.1649999989,
      "d": 196.4283750000177,
      "v": 79
    },
    {
      "midi": 66,
      "hit": false,
      "t": 263571.1649999989,
      "d": 196.4283750000177,
      "v": 79
    },
    {
      "midi": 69,
      "hit": false,
      "t": 263571.1649999989,
      "d": 196.4283750000177,
      "v": 79
    },
    {
      "midi": 45,
      "hit": false,
      "t": 263571.1649999989,
      "d": 410.71387500001583,
      "v": 95
    },
    {
      "midi": 57,
      "hit": false,
      "t": 263571.1649999989,
      "d": 410.71387500001583,
      "v": 95
    },
    {
      "midi": 62,
      "hit": false,
      "t": 263999.73599999887,
      "d": 196.4283750000177,
      "v": 79
    },
    {
      "midi": 67,
      "hit": false,
      "t": 263999.73599999887,
      "d": 196.4283750000177,
      "v": 79
    },
    {
      "midi": 70,
      "hit": false,
      "t": 263999.73599999887,
      "d": 196.4283750000177,
      "v": 79
    },
    {
      "midi": 46,
      "hit": false,
      "t": 263999.73599999887,
      "d": 410.71387500001583,
      "v": 95
    },
    {
      "midi": 58,
      "hit": false,
      "t": 263999.73599999887,
      "d": 410.71387500001583,
      "v": 95
    },
    {
      "midi": 62,
      "hit": false,
      "t": 264428.30699999887,
      "d": 196.4283750000177,
      "v": 79
    },
    {
      "midi": 67,
      "hit": false,
      "t": 264428.30699999887,
      "d": 196.4283750000177,
      "v": 79
    },
    {
      "midi": 70,
      "hit": false,
      "t": 264428.30699999887,
      "d": 196.4283750000177,
      "v": 79
    },
    {
      "midi": 46,
      "hit": false,
      "t": 264428.30699999887,
      "d": 410.71387500001583,
      "v": 95
    },
    {
      "midi": 58,
      "hit": false,
      "t": 264428.30699999887,
      "d": 410.71387500001583,
      "v": 95
    },
    {
      "midi": 62,
      "hit": false,
      "t": 264856.87799999886,
      "d": 196.4283750000177,
      "v": 79
    },
    {
      "midi": 67,
      "hit": false,
      "t": 264856.87799999886,
      "d": 196.4283750000177,
      "v": 79
    },
    {
      "midi": 70,
      "hit": false,
      "t": 264856.87799999886,
      "d": 196.4283750000177,
      "v": 79
    },
    {
      "midi": 43,
      "hit": false,
      "t": 264856.87799999886,
      "d": 410.71387500001583,
      "v": 95
    },
    {
      "midi": 55,
      "hit": false,
      "t": 264856.87799999886,
      "d": 410.71387500001583,
      "v": 95
    },
    {
      "midi": 62,
      "hit": false,
      "t": 265285.44899999886,
      "d": 196.4283750000177,
      "v": 79
    },
    {
      "midi": 67,
      "hit": false,
      "t": 265285.44899999886,
      "d": 196.4283750000177,
      "v": 79
    },
    {
      "midi": 70,
      "hit": false,
      "t": 265285.44899999886,
      "d": 196.4283750000177,
      "v": 79
    },
    {
      "midi": 43,
      "hit": false,
      "t": 265285.44899999886,
      "d": 410.71387500001583,
      "v": 95
    },
    {
      "midi": 55,
      "hit": false,
      "t": 265285.44899999886,
      "d": 410.71387500001583,
      "v": 95
    },
    {
      "midi": 62,
      "hit": false,
      "t": 265714.01999999885,
      "d": 196.4283750000177,
      "v": 79
    },
    {
      "midi": 67,
      "hit": false,
      "t": 265714.01999999885,
      "d": 196.4283750000177,
      "v": 79
    },
    {
      "midi": 70,
      "hit": false,
      "t": 265714.01999999885,
      "d": 196.4283750000177,
      "v": 79
    },
    {
      "midi": 38,
      "hit": false,
      "t": 265714.01999999885,
      "d": 410.71387500001583,
      "v": 95
    },
    {
      "midi": 50,
      "hit": false,
      "t": 265714.01999999885,
      "d": 410.71387500001583,
      "v": 95
    },
    {
      "midi": 62,
      "hit": false,
      "t": 266142.59099999885,
      "d": 196.4283750000177,
      "v": 79
    },
    {
      "midi": 67,
      "hit": false,
      "t": 266142.59099999885,
      "d": 196.4283750000177,
      "v": 79
    },
    {
      "midi": 70,
      "hit": false,
      "t": 266142.59099999885,
      "d": 196.4283750000177,
      "v": 79
    },
    {
      "midi": 38,
      "hit": false,
      "t": 266142.59099999885,
      "d": 410.71387500001583,
      "v": 95
    },
    {
      "midi": 50,
      "hit": false,
      "t": 266142.59099999885,
      "d": 410.71387500001583,
      "v": 95
    },
    {
      "midi": 62,
      "hit": false,
      "t": 266571.16199999885,
      "d": 196.4283750000177,
      "v": 79
    },
    {
      "midi": 67,
      "hit": false,
      "t": 266571.16199999885,
      "d": 196.4283750000177,
      "v": 79
    },
    {
      "midi": 70,
      "hit": false,
      "t": 266571.16199999885,
      "d": 196.4283750000177,
      "v": 79
    },
    {
      "midi": 34,
      "hit": false,
      "t": 266571.16199999885,
      "d": 410.71387500001583,
      "v": 95
    },
    {
      "midi": 46,
      "hit": false,
      "t": 266571.16199999885,
      "d": 410.71387500001583,
      "v": 95
    },
    {
      "midi": 62,
      "hit": false,
      "t": 266999.73299999884,
      "d": 196.4283750000177,
      "v": 79
    },
    {
      "midi": 67,
      "hit": false,
      "t": 266999.73299999884,
      "d": 196.4283750000177,
      "v": 79
    },
    {
      "midi": 70,
      "hit": false,
      "t": 266999.73299999884,
      "d": 196.4283750000177,
      "v": 79
    },
    {
      "midi": 34,
      "hit": false,
      "t": 266999.73299999884,
      "d": 410.71387500001583,
      "v": 95
    },
    {
      "midi": 46,
      "hit": false,
      "t": 266999.73299999884,
      "d": 410.71387500001583,
      "v": 95
    },
    {
      "midi": 63,
      "hit": false,
      "t": 267428.30399999884,
      "d": 196.4283750000177,
      "v": 79
    },
    {
      "midi": 67,
      "hit": false,
      "t": 267428.30399999884,
      "d": 196.4283750000177,
      "v": 79
    },
    {
      "midi": 70,
      "hit": false,
      "t": 267428.30399999884,
      "d": 196.4283750000177,
      "v": 79
    },
    {
      "midi": 27,
      "hit": false,
      "t": 267428.30399999884,
      "d": 410.71387500001583,
      "v": 95
    },
    {
      "midi": 39,
      "hit": false,
      "t": 267428.30399999884,
      "d": 410.71387500001583,
      "v": 95
    },
    {
      "midi": 63,
      "hit": false,
      "t": 267856.87499999884,
      "d": 196.4283750000177,
      "v": 79
    },
    {
      "midi": 67,
      "hit": false,
      "t": 267856.87499999884,
      "d": 196.4283750000177,
      "v": 79
    },
    {
      "midi": 70,
      "hit": false,
      "t": 267856.87499999884,
      "d": 196.4283750000177,
      "v": 79
    },
    {
      "midi": 27,
      "hit": false,
      "t": 267856.87499999884,
      "d": 410.71387500001583,
      "v": 95
    },
    {
      "midi": 39,
      "hit": false,
      "t": 267856.87499999884,
      "d": 410.71387500001583,
      "v": 95
    },
    {
      "midi": 63,
      "hit": false,
      "t": 268285.44599999883,
      "d": 196.4283750000177,
      "v": 79
    },
    {
      "midi": 67,
      "hit": false,
      "t": 268285.44599999883,
      "d": 196.4283750000177,
      "v": 79
    },
    {
      "midi": 70,
      "hit": false,
      "t": 268285.44599999883,
      "d": 196.4283750000177,
      "v": 79
    },
    {
      "midi": 34,
      "hit": false,
      "t": 268285.44599999883,
      "d": 410.71387500001583,
      "v": 95
    },
    {
      "midi": 46,
      "hit": false,
      "t": 268285.44599999883,
      "d": 410.71387500001583,
      "v": 95
    },
    {
      "midi": 63,
      "hit": false,
      "t": 268714.0169999988,
      "d": 196.4283750000177,
      "v": 79
    },
    {
      "midi": 67,
      "hit": false,
      "t": 268714.0169999988,
      "d": 196.4283750000177,
      "v": 79
    },
    {
      "midi": 70,
      "hit": false,
      "t": 268714.0169999988,
      "d": 196.4283750000177,
      "v": 79
    },
    {
      "midi": 34,
      "hit": false,
      "t": 268714.0169999988,
      "d": 410.71387500001583,
      "v": 95
    },
    {
      "midi": 46,
      "hit": false,
      "t": 268714.0169999988,
      "d": 410.71387500001583,
      "v": 95
    },
    {
      "midi": 63,
      "hit": false,
      "t": 269142.5879999988,
      "d": 196.4283750000177,
      "v": 79
    },
    {
      "midi": 67,
      "hit": false,
      "t": 269142.5879999988,
      "d": 196.4283750000177,
      "v": 79
    },
    {
      "midi": 70,
      "hit": false,
      "t": 269142.5879999988,
      "d": 196.4283750000177,
      "v": 79
    },
    {
      "midi": 39,
      "hit": false,
      "t": 269142.5879999988,
      "d": 410.71387500001583,
      "v": 95
    },
    {
      "midi": 51,
      "hit": false,
      "t": 269142.5879999988,
      "d": 410.71387500001583,
      "v": 95
    },
    {
      "midi": 63,
      "hit": false,
      "t": 269571.1589999988,
      "d": 196.4283750000177,
      "v": 79
    },
    {
      "midi": 67,
      "hit": false,
      "t": 269571.1589999988,
      "d": 196.4283750000177,
      "v": 79
    },
    {
      "midi": 70,
      "hit": false,
      "t": 269571.1589999988,
      "d": 196.4283750000177,
      "v": 79
    },
    {
      "midi": 39,
      "hit": false,
      "t": 269571.1589999988,
      "d": 410.71387500001583,
      "v": 95
    },
    {
      "midi": 51,
      "hit": false,
      "t": 269571.1589999988,
      "d": 410.71387500001583,
      "v": 95
    },
    {
      "midi": 63,
      "hit": false,
      "t": 269999.7299999988,
      "d": 196.4283750000177,
      "v": 79
    },
    {
      "midi": 67,
      "hit": false,
      "t": 269999.7299999988,
      "d": 196.4283750000177,
      "v": 79
    },
    {
      "midi": 70,
      "hit": false,
      "t": 269999.7299999988,
      "d": 196.4283750000177,
      "v": 79
    },
    {
      "midi": 46,
      "hit": false,
      "t": 269999.7299999988,
      "d": 410.71387500001583,
      "v": 95
    },
    {
      "midi": 58,
      "hit": false,
      "t": 269999.7299999988,
      "d": 410.71387500001583,
      "v": 95
    },
    {
      "midi": 63,
      "hit": false,
      "t": 270428.3009999988,
      "d": 196.4283750000177,
      "v": 79
    },
    {
      "midi": 67,
      "hit": false,
      "t": 270428.3009999988,
      "d": 196.4283750000177,
      "v": 79
    },
    {
      "midi": 70,
      "hit": false,
      "t": 270428.3009999988,
      "d": 196.4283750000177,
      "v": 79
    },
    {
      "midi": 46,
      "hit": false,
      "t": 270428.3009999988,
      "d": 410.71387500001583,
      "v": 95
    },
    {
      "midi": 58,
      "hit": false,
      "t": 270428.3009999988,
      "d": 410.71387500001583,
      "v": 95
    },
    {
      "midi": 62,
      "hit": false,
      "t": 270856.8719999988,
      "d": 196.4283750000177,
      "v": 79
    },
    {
      "midi": 65,
      "hit": false,
      "t": 270856.8719999988,
      "d": 196.4283750000177,
      "v": 79
    },
    {
      "midi": 70,
      "hit": false,
      "t": 270856.8719999988,
      "d": 196.4283750000177,
      "v": 79
    },
    {
      "midi": 46,
      "hit": false,
      "t": 270856.8719999988,
      "d": 410.71387500001583,
      "v": 95
    },
    {
      "midi": 58,
      "hit": false,
      "t": 270856.8719999988,
      "d": 410.71387500001583,
      "v": 95
    },
    {
      "midi": 62,
      "hit": false,
      "t": 271285.4429999988,
      "d": 196.4283750000177,
      "v": 79
    },
    {
      "midi": 65,
      "hit": false,
      "t": 271285.4429999988,
      "d": 196.4283750000177,
      "v": 79
    },
    {
      "midi": 70,
      "hit": false,
      "t": 271285.4429999988,
      "d": 196.4283750000177,
      "v": 79
    },
    {
      "midi": 46,
      "hit": false,
      "t": 271285.4429999988,
      "d": 410.71387500001583,
      "v": 95
    },
    {
      "midi": 58,
      "hit": false,
      "t": 271285.4429999988,
      "d": 410.71387500001583,
      "v": 95
    },
    {
      "midi": 62,
      "hit": false,
      "t": 271714.0139999988,
      "d": 196.4283750000177,
      "v": 79
    },
    {
      "midi": 65,
      "hit": false,
      "t": 271714.0139999988,
      "d": 196.4283750000177,
      "v": 79
    },
    {
      "midi": 70,
      "hit": false,
      "t": 271714.0139999988,
      "d": 196.4283750000177,
      "v": 79
    },
    {
      "midi": 41,
      "hit": false,
      "t": 271714.0139999988,
      "d": 410.71387500001583,
      "v": 95
    },
    {
      "midi": 53,
      "hit": false,
      "t": 271714.0139999988,
      "d": 410.71387500001583,
      "v": 95
    },
    {
      "midi": 62,
      "hit": false,
      "t": 272142.5849999988,
      "d": 196.4283750000177,
      "v": 79
    },
    {
      "midi": 65,
      "hit": false,
      "t": 272142.5849999988,
      "d": 196.4283750000177,
      "v": 79
    },
    {
      "midi": 70,
      "hit": false,
      "t": 272142.5849999988,
      "d": 196.4283750000177,
      "v": 79
    },
    {
      "midi": 41,
      "hit": false,
      "t": 272142.5849999988,
      "d": 410.71387500001583,
      "v": 95
    },
    {
      "midi": 53,
      "hit": false,
      "t": 272142.5849999988,
      "d": 410.71387500001583,
      "v": 95
    },
    {
      "midi": 62,
      "hit": false,
      "t": 272571.1559999988,
      "d": 196.4283750000177,
      "v": 79
    },
    {
      "midi": 65,
      "hit": false,
      "t": 272571.1559999988,
      "d": 196.4283750000177,
      "v": 79
    },
    {
      "midi": 70,
      "hit": false,
      "t": 272571.1559999988,
      "d": 196.4283750000177,
      "v": 79
    },
    {
      "midi": 38,
      "hit": false,
      "t": 272571.1559999988,
      "d": 410.71387500001583,
      "v": 95
    },
    {
      "midi": 50,
      "hit": false,
      "t": 272571.1559999988,
      "d": 410.71387500001583,
      "v": 95
    },
    {
      "midi": 62,
      "hit": false,
      "t": 272999.7269999988,
      "d": 196.4283750000177,
      "v": 79
    },
    {
      "midi": 65,
      "hit": false,
      "t": 272999.7269999988,
      "d": 196.4283750000177,
      "v": 79
    },
    {
      "midi": 70,
      "hit": false,
      "t": 272999.7269999988,
      "d": 196.4283750000177,
      "v": 79
    },
    {
      "midi": 38,
      "hit": false,
      "t": 272999.7269999988,
      "d": 410.71387500001583,
      "v": 95
    },
    {
      "midi": 50,
      "hit": false,
      "t": 272999.7269999988,
      "d": 410.71387500001583,
      "v": 95
    },
    {
      "midi": 62,
      "hit": false,
      "t": 273428.2979999988,
      "d": 196.4283750000177,
      "v": 79
    },
    {
      "midi": 65,
      "hit": false,
      "t": 273428.2979999988,
      "d": 196.4283750000177,
      "v": 79
    },
    {
      "midi": 70,
      "hit": false,
      "t": 273428.2979999988,
      "d": 196.4283750000177,
      "v": 79
    },
    {
      "midi": 34,
      "hit": false,
      "t": 273428.2979999988,
      "d": 410.71387500001583,
      "v": 95
    },
    {
      "midi": 46,
      "hit": false,
      "t": 273428.2979999988,
      "d": 410.71387500001583,
      "v": 95
    },
    {
      "midi": 62,
      "hit": false,
      "t": 273856.8689999988,
      "d": 196.4283750000177,
      "v": 79
    },
    {
      "midi": 65,
      "hit": false,
      "t": 273856.8689999988,
      "d": 196.4283750000177,
      "v": 79
    },
    {
      "midi": 70,
      "hit": false,
      "t": 273856.8689999988,
      "d": 196.4283750000177,
      "v": 79
    },
    {
      "midi": 34,
      "hit": false,
      "t": 273856.8689999988,
      "d": 410.71387500001583,
      "v": 95
    },
    {
      "midi": 46,
      "hit": false,
      "t": 273856.8689999988,
      "d": 410.71387500001583,
      "v": 95
    },
    {
      "midi": 50,
      "hit": false,
      "t": 274285.4399999988,
      "d": 839.2848750000121,
      "v": 95
    },
    {
      "midi": 54,
      "hit": false,
      "t": 274285.4399999988,
      "d": 839.2848750000121,
      "v": 95
    },
    {
      "midi": 57,
      "hit": false,
      "t": 274285.4399999988,
      "d": 839.2848750000121,
      "v": 95
    },
    {
      "midi": 62,
      "hit": false,
      "t": 274285.4399999988,
      "d": 839.2848750000121,
      "v": 95
    },
    {
      "midi": 26,
      "hit": false,
      "t": 274285.4399999988,
      "d": 3410.7108749999898,
      "v": 127
    },
    {
      "midi": 38,
      "hit": false,
      "t": 274285.4399999988,
      "d": 3410.7108749999898,
      "v": 127
    },
    {
      "midi": 69,
      "hit": false,
      "t": 275142.5819999988,
      "d": 410.71387500001583,
      "v": 79
    },
    {
      "midi": 74,
      "hit": false,
      "t": 275142.5819999988,
      "d": 410.71387500001583,
      "v": 79
    },
    {
      "midi": 78,
      "hit": false,
      "t": 275142.5819999988,
      "d": 410.71387500001583,
      "v": 79
    },
    {
      "midi": 69,
      "hit": false,
      "t": 275571.15299999877,
      "d": 410.71387500001583,
      "v": 79
    },
    {
      "midi": 74,
      "hit": false,
      "t": 275571.15299999877,
      "d": 410.71387500001583,
      "v": 79
    },
    {
      "midi": 78,
      "hit": false,
      "t": 275571.15299999877,
      "d": 410.71387500001583,
      "v": 79
    },
    {
      "midi": 66,
      "hit": false,
      "t": 275999.72399999877,
      "d": 410.71387500001583,
      "v": 79
    },
    {
      "midi": 69,
      "hit": false,
      "t": 275999.72399999877,
      "d": 410.71387500001583,
      "v": 79
    },
    {
      "midi": 74,
      "hit": false,
      "t": 275999.72399999877,
      "d": 410.71387500001583,
      "v": 79
    },
    {
      "midi": 66,
      "hit": false,
      "t": 276428.29499999876,
      "d": 410.71387500001583,
      "v": 79
    },
    {
      "midi": 69,
      "hit": false,
      "t": 276428.29499999876,
      "d": 410.71387500001583,
      "v": 79
    },
    {
      "midi": 74,
      "hit": false,
      "t": 276428.29499999876,
      "d": 410.71387500001583,
      "v": 79
    },
    {
      "midi": 62,
      "hit": false,
      "t": 276856.86599999876,
      "d": 410.71387500001583,
      "v": 79
    },
    {
      "midi": 66,
      "hit": false,
      "t": 276856.86599999876,
      "d": 410.71387500001583,
      "v": 79
    },
    {
      "midi": 69,
      "hit": false,
      "t": 276856.86599999876,
      "d": 410.71387500001583,
      "v": 79
    },
    {
      "midi": 62,
      "hit": false,
      "t": 277285.43699999875,
      "d": 410.71387500001583,
      "v": 79
    },
    {
      "midi": 66,
      "hit": false,
      "t": 277285.43699999875,
      "d": 410.71387500001583,
      "v": 79
    },
    {
      "midi": 69,
      "hit": false,
      "t": 277285.43699999875,
      "d": 410.71387500001583,
      "v": 79
    },
    {
      "midi": 27,
      "hit": false,
      "t": 277714.00799999875,
      "d": 410.71387500001583,
      "v": 95
    },
    {
      "midi": 39,
      "hit": false,
      "t": 277714.00799999875,
      "d": 410.71387500001583,
      "v": 95
    },
    {
      "midi": 55,
      "hit": false,
      "t": 277714.00799999875,
      "d": 410.71387500001583,
      "v": 79
    },
    {
      "midi": 60,
      "hit": false,
      "t": 277714.00799999875,
      "d": 410.71387500001583,
      "v": 79
    },
    {
      "midi": 63,
      "hit": false,
      "t": 277714.00799999875,
      "d": 410.71387500001583,
      "v": 79
    },
    {
      "midi": 27,
      "hit": false,
      "t": 278142.57899999875,
      "d": 410.71387500001583,
      "v": 95
    },
    {
      "midi": 39,
      "hit": false,
      "t": 278142.57899999875,
      "d": 410.71387500001583,
      "v": 95
    },
    {
      "midi": 55,
      "hit": false,
      "t": 278142.57899999875,
      "d": 410.71387500001583,
      "v": 79
    },
    {
      "midi": 60,
      "hit": false,
      "t": 278142.57899999875,
      "d": 410.71387500001583,
      "v": 79
    },
    {
      "midi": 63,
      "hit": false,
      "t": 278142.57899999875,
      "d": 410.71387500001583,
      "v": 79
    },
    {
      "midi": 31,
      "hit": false,
      "t": 278571.14999999874,
      "d": 410.71387500001583,
      "v": 95
    },
    {
      "midi": 43,
      "hit": false,
      "t": 278571.14999999874,
      "d": 410.71387500001583,
      "v": 95
    },
    {
      "midi": 60,
      "hit": false,
      "t": 278571.14999999874,
      "d": 410.71387500001583,
      "v": 79
    },
    {
      "midi": 63,
      "hit": false,
      "t": 278571.14999999874,
      "d": 410.71387500001583,
      "v": 79
    },
    {
      "midi": 67,
      "hit": false,
      "t": 278571.14999999874,
      "d": 410.71387500001583,
      "v": 79
    },
    {
      "midi": 31,
      "hit": false,
      "t": 278999.72099999874,
      "d": 410.71387500001583,
      "v": 95
    },
    {
      "midi": 43,
      "hit": false,
      "t": 278999.72099999874,
      "d": 410.71387500001583,
      "v": 95
    },
    {
      "midi": 60,
      "hit": false,
      "t": 278999.72099999874,
      "d": 410.71387500001583,
      "v": 79
    },
    {
      "midi": 63,
      "hit": false,
      "t": 278999.72099999874,
      "d": 410.71387500001583,
      "v": 79
    },
    {
      "midi": 67,
      "hit": false,
      "t": 278999.72099999874,
      "d": 410.71387500001583,
      "v": 79
    },
    {
      "midi": 36,
      "hit": false,
      "t": 279428.29199999874,
      "d": 410.71387500001583,
      "v": 95
    },
    {
      "midi": 48,
      "hit": false,
      "t": 279428.29199999874,
      "d": 410.71387500001583,
      "v": 95
    },
    {
      "midi": 63,
      "hit": false,
      "t": 279428.29199999874,
      "d": 410.71387500001583,
      "v": 79
    },
    {
      "midi": 67,
      "hit": false,
      "t": 279428.29199999874,
      "d": 410.71387500001583,
      "v": 79
    },
    {
      "midi": 72,
      "hit": false,
      "t": 279428.29199999874,
      "d": 410.71387500001583,
      "v": 79
    },
    {
      "midi": 36,
      "hit": false,
      "t": 279856.86299999873,
      "d": 410.71387500001583,
      "v": 95
    },
    {
      "midi": 48,
      "hit": false,
      "t": 279856.86299999873,
      "d": 410.71387500001583,
      "v": 95
    },
    {
      "midi": 63,
      "hit": false,
      "t": 279856.86299999873,
      "d": 410.71387500001583,
      "v": 79
    },
    {
      "midi": 67,
      "hit": false,
      "t": 279856.86299999873,
      "d": 410.71387500001583,
      "v": 79
    },
    {
      "midi": 72,
      "hit": false,
      "t": 279856.86299999873,
      "d": 410.71387500001583,
      "v": 79
    },
    {
      "midi": 35,
      "hit": false,
      "t": 280285.4339999987,
      "d": 410.71387500001583,
      "v": 95
    },
    {
      "midi": 47,
      "hit": false,
      "t": 280285.4339999987,
      "d": 410.71387500001583,
      "v": 95
    },
    {
      "midi": 63,
      "hit": false,
      "t": 280285.4339999987,
      "d": 410.71387500001583,
      "v": 79
    },
    {
      "midi": 67,
      "hit": false,
      "t": 280285.4339999987,
      "d": 410.71387500001583,
      "v": 79
    },
    {
      "midi": 71,
      "hit": false,
      "t": 280285.4339999987,
      "d": 410.71387500001583,
      "v": 79
    },
    {
      "midi": 36,
      "hit": false,
      "t": 280714.0049999987,
      "d": 410.71387500001583,
      "v": 95
    },
    {
      "midi": 48,
      "hit": false,
      "t": 280714.0049999987,
      "d": 410.71387500001583,
      "v": 95
    },
    {
      "midi": 63,
      "hit": false,
      "t": 280714.0049999987,
      "d": 410.71387500001583,
      "v": 79
    },
    {
      "midi": 67,
      "hit": false,
      "t": 280714.0049999987,
      "d": 410.71387500001583,
      "v": 79
    },
    {
      "midi": 72,
      "hit": false,
      "t": 280714.0049999987,
      "d": 410.71387500001583,
      "v": 79
    },
    {
      "midi": 69,
      "hit": false,
      "t": 281142.5759999987,
      "d": 410.71387500001583,
      "v": 79
    },
    {
      "midi": 74,
      "hit": false,
      "t": 281142.5759999987,
      "d": 410.71387500001583,
      "v": 79
    },
    {
      "midi": 78,
      "hit": false,
      "t": 281142.5759999987,
      "d": 410.71387500001583,
      "v": 79
    },
    {
      "midi": 38,
      "hit": false,
      "t": 281142.5759999987,
      "d": 2553.568874999997,
      "v": 95
    },
    {
      "midi": 50,
      "hit": false,
      "t": 281142.5759999987,
      "d": 2553.568874999997,
      "v": 95
    },
    {
      "midi": 69,
      "hit": false,
      "t": 281571.1469999987,
      "d": 410.71387500001583,
      "v": 79
    },
    {
      "midi": 74,
      "hit": false,
      "t": 281571.1469999987,
      "d": 410.71387500001583,
      "v": 79
    },
    {
      "midi": 78,
      "hit": false,
      "t": 281571.1469999987,
      "d": 410.71387500001583,
      "v": 79
    },
    {
      "midi": 66,
      "hit": false,
      "t": 281999.7179999987,
      "d": 410.71387500001583,
      "v": 79
    },
    {
      "midi": 69,
      "hit": false,
      "t": 281999.7179999987,
      "d": 410.71387500001583,
      "v": 79
    },
    {
      "midi": 74,
      "hit": false,
      "t": 281999.7179999987,
      "d": 410.71387500001583,
      "v": 79
    },
    {
      "midi": 66,
      "hit": false,
      "t": 282428.2889999987,
      "d": 410.71387500001583,
      "v": 79
    },
    {
      "midi": 69,
      "hit": false,
      "t": 282428.2889999987,
      "d": 410.71387500001583,
      "v": 79
    },
    {
      "midi": 74,
      "hit": false,
      "t": 282428.2889999987,
      "d": 410.71387500001583,
      "v": 79
    },
    {
      "midi": 62,
      "hit": false,
      "t": 282856.8599999987,
      "d": 410.71387500001583,
      "v": 79
    },
    {
      "midi": 66,
      "hit": false,
      "t": 282856.8599999987,
      "d": 410.71387500001583,
      "v": 79
    },
    {
      "midi": 69,
      "hit": false,
      "t": 282856.8599999987,
      "d": 410.71387500001583,
      "v": 79
    },
    {
      "midi": 62,
      "hit": false,
      "t": 283285.4309999987,
      "d": 410.71387500001583,
      "v": 79
    },
    {
      "midi": 66,
      "hit": false,
      "t": 283285.4309999987,
      "d": 410.71387500001583,
      "v": 79
    },
    {
      "midi": 69,
      "hit": false,
      "t": 283285.4309999987,
      "d": 410.71387500001583,
      "v": 79
    },
    {
      "midi": 27,
      "hit": false,
      "t": 283714.0019999987,
      "d": 410.71387500001583,
      "v": 95
    },
    {
      "midi": 39,
      "hit": false,
      "t": 283714.0019999987,
      "d": 410.71387500001583,
      "v": 95
    },
    {
      "midi": 55,
      "hit": false,
      "t": 283714.0019999987,
      "d": 410.71387500001583,
      "v": 79
    },
    {
      "midi": 60,
      "hit": false,
      "t": 283714.0019999987,
      "d": 410.71387500001583,
      "v": 79
    },
    {
      "midi": 63,
      "hit": false,
      "t": 283714.0019999987,
      "d": 410.71387500001583,
      "v": 79
    },
    {
      "midi": 27,
      "hit": false,
      "t": 284142.5729999987,
      "d": 410.71387500001583,
      "v": 95
    },
    {
      "midi": 39,
      "hit": false,
      "t": 284142.5729999987,
      "d": 410.71387500001583,
      "v": 95
    },
    {
      "midi": 55,
      "hit": false,
      "t": 284142.5729999987,
      "d": 410.71387500001583,
      "v": 79
    },
    {
      "midi": 60,
      "hit": false,
      "t": 284142.5729999987,
      "d": 410.71387500001583,
      "v": 79
    },
    {
      "midi": 63,
      "hit": false,
      "t": 284142.5729999987,
      "d": 410.71387500001583,
      "v": 79
    },
    {
      "midi": 31,
      "hit": false,
      "t": 284571.1439999987,
      "d": 410.71387500001583,
      "v": 95
    },
    {
      "midi": 43,
      "hit": false,
      "t": 284571.1439999987,
      "d": 410.71387500001583,
      "v": 95
    },
    {
      "midi": 60,
      "hit": false,
      "t": 284571.1439999987,
      "d": 410.71387500001583,
      "v": 79
    },
    {
      "midi": 63,
      "hit": false,
      "t": 284571.1439999987,
      "d": 410.71387500001583,
      "v": 79
    },
    {
      "midi": 67,
      "hit": false,
      "t": 284571.1439999987,
      "d": 410.71387500001583,
      "v": 79
    },
    {
      "midi": 31,
      "hit": false,
      "t": 284999.7149999987,
      "d": 410.71387500001583,
      "v": 95
    },
    {
      "midi": 43,
      "hit": false,
      "t": 284999.7149999987,
      "d": 410.71387500001583,
      "v": 95
    },
    {
      "midi": 60,
      "hit": false,
      "t": 284999.7149999987,
      "d": 410.71387500001583,
      "v": 79
    },
    {
      "midi": 63,
      "hit": false,
      "t": 284999.7149999987,
      "d": 410.71387500001583,
      "v": 79
    },
    {
      "midi": 67,
      "hit": false,
      "t": 284999.7149999987,
      "d": 410.71387500001583,
      "v": 79
    },
    {
      "midi": 36,
      "hit": false,
      "t": 285428.2859999987,
      "d": 410.71387500001583,
      "v": 95
    },
    {
      "midi": 48,
      "hit": false,
      "t": 285428.2859999987,
      "d": 410.71387500001583,
      "v": 95
    },
    {
      "midi": 63,
      "hit": false,
      "t": 285428.2859999987,
      "d": 410.71387500001583,
      "v": 79
    },
    {
      "midi": 67,
      "hit": false,
      "t": 285428.2859999987,
      "d": 410.71387500001583,
      "v": 79
    },
    {
      "midi": 72,
      "hit": false,
      "t": 285428.2859999987,
      "d": 410.71387500001583,
      "v": 79
    },
    {
      "midi": 36,
      "hit": false,
      "t": 285856.8569999987,
      "d": 410.71387500001583,
      "v": 95
    },
    {
      "midi": 48,
      "hit": false,
      "t": 285856.8569999987,
      "d": 410.71387500001583,
      "v": 95
    },
    {
      "midi": 63,
      "hit": false,
      "t": 285856.8569999987,
      "d": 410.71387500001583,
      "v": 79
    },
    {
      "midi": 67,
      "hit": false,
      "t": 285856.8569999987,
      "d": 410.71387500001583,
      "v": 79
    },
    {
      "midi": 72,
      "hit": false,
      "t": 285856.8569999987,
      "d": 410.71387500001583,
      "v": 79
    },
    {
      "midi": 36,
      "hit": false,
      "t": 286285.4279999987,
      "d": 410.71387500001583,
      "v": 95
    },
    {
      "midi": 48,
      "hit": false,
      "t": 286285.4279999987,
      "d": 410.71387500001583,
      "v": 95
    },
    {
      "midi": 67,
      "hit": false,
      "t": 286285.4279999987,
      "d": 410.71387500001583,
      "v": 95
    },
    {
      "midi": 72,
      "hit": false,
      "t": 286285.4279999987,
      "d": 410.71387500001583,
      "v": 95
    },
    {
      "midi": 75,
      "hit": false,
      "t": 286285.4279999987,
      "d": 410.71387500001583,
      "v": 95
    },
    {
      "midi": 36,
      "hit": false,
      "t": 286713.9989999987,
      "d": 410.71387500001583,
      "v": 95
    },
    {
      "midi": 48,
      "hit": false,
      "t": 286713.9989999987,
      "d": 410.71387500001583,
      "v": 95
    },
    {
      "midi": 67,
      "hit": false,
      "t": 286713.9989999987,
      "d": 410.71387500001583,
      "v": 95
    },
    {
      "midi": 72,
      "hit": false,
      "t": 286713.9989999987,
      "d": 410.71387500001583,
      "v": 95
    },
    {
      "midi": 75,
      "hit": false,
      "t": 286713.9989999987,
      "d": 410.71387500001583,
      "v": 95
    },
    {
      "midi": 35,
      "hit": false,
      "t": 287142.56999999867,
      "d": 410.71387500001583,
      "v": 95
    },
    {
      "midi": 47,
      "hit": false,
      "t": 287142.56999999867,
      "d": 410.71387500001583,
      "v": 95
    },
    {
      "midi": 71,
      "hit": false,
      "t": 287142.56999999867,
      "d": 410.71387500001583,
      "v": 95
    },
    {
      "midi": 75,
      "hit": false,
      "t": 287142.56999999867,
      "d": 410.71387500001583,
      "v": 95
    },
    {
      "midi": 79,
      "hit": false,
      "t": 287142.56999999867,
      "d": 410.71387500001583,
      "v": 95
    },
    {
      "midi": 36,
      "hit": false,
      "t": 287571.14099999866,
      "d": 410.71387500001583,
      "v": 95
    },
    {
      "midi": 48,
      "hit": false,
      "t": 287571.14099999866,
      "d": 410.71387500001583,
      "v": 95
    },
    {
      "midi": 72,
      "hit": false,
      "t": 287571.14099999866,
      "d": 410.71387500001583,
      "v": 95
    },
    {
      "midi": 75,
      "hit": false,
      "t": 287571.14099999866,
      "d": 410.71387500001583,
      "v": 95
    },
    {
      "midi": 79,
      "hit": false,
      "t": 287571.14099999866,
      "d": 410.71387500001583,
      "v": 95
    },
    {
      "midi": 38,
      "hit": false,
      "t": 287999.71199999866,
      "d": 124.99987499997951,
      "v": 95
    },
    {
      "midi": 69,
      "hit": false,
      "t": 287999.71199999866,
      "d": 1267.8558749997756,
      "v": 95
    },
    {
      "midi": 74,
      "hit": false,
      "t": 287999.71199999866,
      "d": 1696.4268749996554,
      "v": 95
    },
    {
      "midi": 78,
      "hit": false,
      "t": 287999.71199999866,
      "d": 2124.9978749995353,
      "v": 95
    },
    {
      "midi": 50,
      "hit": false,
      "t": 288142.5689999986,
      "d": 124.99987499997951,
      "v": 63
    },
    {
      "midi": 54,
      "hit": false,
      "t": 288285.4259999986,
      "d": 267.8568749999977,
      "v": 63
    },
    {
      "midi": 57,
      "hit": false,
      "t": 288428.2829999986,
      "d": 267.85687499993946,
      "v": 63
    },
    {
      "midi": 54,
      "hit": false,
      "t": 288571.13999999856,
      "d": 3696.4248749995604,
      "v": 63
    },
    {
      "midi": 57,
      "hit": false,
      "t": 288713.9969999985,
      "d": 267.8568749999977,
      "v": 63
    },
    {
      "midi": 62,
      "hit": false,
      "t": 288856.85399999854,
      "d": 267.85687499993946,
      "v": 79
    },
    {
      "midi": 57,
      "hit": false,
      "t": 288999.7109999985,
      "d": 3267.8538749996223,
      "v": 79
    },
    {
      "midi": 62,
      "hit": false,
      "t": 289142.56799999846,
      "d": 267.85687499993946,
      "v": 79
    },
    {
      "midi": 66,
      "hit": false,
      "t": 289285.4249999984,
      "d": 267.85687499993946,
      "v": 79
    },
    {
      "midi": 62,
      "hit": false,
      "t": 289428.2819999984,
      "d": 2839.2828749997425,
      "v": 79
    },
    {
      "midi": 66,
      "hit": false,
      "t": 289571.13899999834,
      "d": 267.85687499993946,
      "v": 79
    },
    {
      "midi": 69,
      "hit": false,
      "t": 289713.9959999983,
      "d": 267.85687499993946,
      "v": 95
    },
    {
      "midi": 66,
      "hit": false,
      "t": 289856.85299999826,
      "d": 2410.7118749998626,
      "v": 95
    },
    {
      "midi": 69,
      "hit": false,
      "t": 289999.7099999982,
      "d": 2267.8548749999027,
      "v": 95
    },
    {
      "midi": 74,
      "hit": false,
      "t": 290142.5669999982,
      "d": 124.99987499997951,
      "v": 95
    },
    {
      "midi": 78,
      "hit": false,
      "t": 290285.42399999814,
      "d": 267.8568749999977,
      "v": 95
    },
    {
      "midi": 78,
      "hit": false,
      "t": 290571.1379999981,
      "d": 410.71387500001583,
      "v": 95
    },
    {
      "midi": 78,
      "hit": false,
      "t": 290999.7089999981,
      "d": 1267.8558750000084,
      "v": 95
    }
  ]
}