{
  "jsonPath": "Unknown/Vocal Harmony Group/Cliff Adams/bewitched-pal-joey.json",
  "path": "Unknown\\Vocal Harmony Group\\Cliff Adams\\Bewitched (Pal Joey).mid",
  "name": "Bewitched (Pal Joey)",
  "difficulty": "Advanced",
  "bpm": 100,
  "notes": [
    {
      "midi": 81,
      "hit": false,
      "t": 0,
      "d": 750,
      "v": 49
    },
    {
      "midi": 65,
      "hit": false,
      "t": 0,
      "d": 3000,
      "v": 49
    },
    {
      "midi": 67,
      "hit": false,
      "t": 0,
      "d": 3000,
      "v": 49
    },
    {
      "midi": 71,
      "hit": false,
      "t": 0,
      "d": 3000,
      "v": 49
    },
    {
      "midi": 81,
      "hit": false,
      "t": 0,
      "d": 750,
      "v": 49
    },
    {
      "midi": 65,
      "hit": false,
      "t": 0,
      "d": 3000,
      "v": 49
    },
    {
      "midi": 67,
      "hit": false,
      "t": 0,
      "d": 3000,
      "v": 49
    },
    {
      "midi": 71,
      "hit": false,
      "t": 0,
      "d": 3000,
      "v": 49
    },
    {
      "midi": 74,
      "hit": false,
      "t": 750,
      "d": 750,
      "v": 49
    },
    {
      "midi": 74,
      "hit": false,
      "t": 750,
      "d": 750,
      "v": 49
    },
    {
      "midi": 76,
      "hit": false,
      "t": 1500,
      "d": 750,
      "v": 49
    },
    {
      "midi": 76,
      "hit": false,
      "t": 1500,
      "d": 750,
      "v": 49
    },
    {
      "midi": 77,
      "hit": false,
      "t": 2250,
      "d": 750,
      "v": 49
    },
    {
      "midi": 77,
      "hit": false,
      "t": 2250,
      "d": 750,
      "v": 49
    },
    {
      "midi": 79,
      "hit": false,
      "t": 3000,
      "d": 750,
      "v": 49
    },
    {
      "midi": 71,
      "hit": false,
      "t": 3000,
      "d": 1500,
      "v": 49
    },
    {
      "midi": 74,
      "hit": false,
      "t": 3000,
      "d": 1500,
      "v": 49
    },
    {
      "midi": 64,
      "hit": false,
      "t": 3000,
      "d": 2250,
      "v": 49
    },
    {
      "midi": 67,
      "hit": false,
      "t": 3000,
      "d": 2250,
      "v": 49
    },
    {
      "midi": 79,
      "hit": false,
      "t": 3000,
      "d": 750,
      "v": 49
    },
    {
      "midi": 71,
      "hit": false,
      "t": 3000,
      "d": 1500,
      "v": 49
    },
    {
      "midi": 74,
      "hit": false,
      "t": 3000,
      "d": 1500,
      "v": 49
    },
    {
      "midi": 64,
      "hit": false,
      "t": 3000,
      "d": 2250,
      "v": 49
    },
    {
      "midi": 67,
      "hit": false,
      "t": 3000,
      "d": 2250,
      "v": 49
    },
    {
      "midi": 83,
      "hit": false,
      "t": 3750,
      "d": 750,
      "v": 49
    },
    {
      "midi": 83,
      "hit": false,
      "t": 3750,
      "d": 750,
      "v": 49
    },
    {
      "midi": 79,
      "hit": false,
      "t": 4500,
      "d": 375,
      "v": 49
    },
    {
      "midi": 69,
      "hit": false,
      "t": 4500,
      "d": 750,
      "v": 49
    },
    {
      "midi": 72,
      "hit": false,
      "t": 4500,
      "d": 750,
      "v": 49
    },
    {
      "midi": 79,
      "hit": false,
      "t": 4500,
      "d": 375,
      "v": 49
    },
    {
      "midi": 69,
      "hit": false,
      "t": 4500,
      "d": 750,
      "v": 49
    },
    {
      "midi": 72,
      "hit": false,
      "t": 4500,
      "d": 750,
      "v": 49
    },
    {
      "midi": 76,
      "hit": false,
      "t": 4875,
      "d": 375,
      "v": 49
    },
    {
      "midi": 76,
      "hit": false,
      "t": 4875,
      "d": 375,
      "v": 49
    },
    {
      "midi": 72,
      "hit": false,
      "t": 5250,
      "d": 375,
      "v": 49
    },
    {
      "midi": 72,
      "hit": false,
      "t": 5250,
      "d": 375,
      "v": 49
    },
    {
      "midi": 69,
      "hit": false,
      "t": 5625,
      "d": 375,
      "v": 49
    },
    {
      "midi": 69,
      "hit": false,
      "t": 5625,
      "d": 375,
      "v": 49
    },
    {
      "midi": 71,
      "hit": false,
      "t": 6000,
      "d": 750,
      "v": 49
    },
    {
      "midi": 50,
      "hit": false,
      "t": 6000,
      "d": 3000,
      "v": 49
    },
    {
      "midi": 54,
      "hit": false,
      "t": 6000,
      "d": 3000,
      "v": 49
    },
    {
      "midi": 60,
      "hit": false,
      "t": 6000,
      "d": 3000,
      "v": 49
    },
    {
      "midi": 64,
      "hit": false,
      "t": 6000,
      "d": 3000,
      "v": 49
    },
    {
      "midi": 71,
      "hit": false,
      "t": 6000,
      "d": 750,
      "v": 49
    },
    {
      "midi": 50,
      "hit": false,
      "t": 6000,
      "d": 3000,
      "v": 49
    },
    {
      "midi": 54,
      "hit": false,
      "t": 6000,
      "d": 3000,
      "v": 49
    },
    {
      "midi": 60,
      "hit": false,
      "t": 6000,
      "d": 3000,
      "v": 49
    },
    {
      "midi": 64,
      "hit": false,
      "t": 6000,
      "d": 3000,
      "v": 49
    },
    {
      "midi": 70,
      "hit": false,
      "t": 6750,
      "d": 750,
      "v": 49
    },
    {
      "midi": 70,
      "hit": false,
      "t": 6750,
      "d": 750,
      "v": 49
    },
    {
      "midi": 69,
      "hit": false,
      "t": 7500,
      "d": 1500,
      "v": 49
    },
    {
      "midi": 69,
      "hit": false,
      "t": 7500,
      "d": 1500,
      "v": 49
    },
    {
      "midi": 74,
      "hit": false,
      "t": 8250,
      "d": 750,
      "v": 49
    },
    {
      "midi": 74,
      "hit": false,
      "t": 8250,
      "d": 750,
      "v": 49
    },
    {
      "midi": 69,
      "hit": false,
      "t": 9000,
      "d": 750,
      "v": 49
    },
    {
      "midi": 43,
      "hit": false,
      "t": 9000,
      "d": 3000,
      "v": 49
    },
    {
      "midi": 53,
      "hit": false,
      "t": 9000,
      "d": 3000,
      "v": 49
    },
    {
      "midi": 59,
      "hit": false,
      "t": 9000,
      "d": 3000,
      "v": 49
    },
    {
      "midi": 63,
      "hit": false,
      "t": 9000,
      "d": 3000,
      "v": 49
    },
    {
      "midi": 69,
      "hit": false,
      "t": 9000,
      "d": 750,
      "v": 49
    },
    {
      "midi": 43,
      "hit": false,
      "t": 9000,
      "d": 3000,
      "v": 49
    },
    {
      "midi": 53,
      "hit": false,
      "t": 9000,
      "d": 3000,
      "v": 49
    },
    {
      "midi": 59,
      "hit": false,
      "t": 9000,
      "d": 3000,
      "v": 49
    },
    {
      "midi": 63,
      "hit": false,
      "t": 9000,
      "d": 3000,
      "v": 49
    },
    {
      "midi": 68,
      "hit": false,
      "t": 9750,
      "d": 750,
      "v": 49
    },
    {
      "midi": 68,
      "hit": false,
      "t": 9750,
      "d": 750,
      "v": 49
    },
    {
      "midi": 67,
      "hit": false,
      "t": 10500,
      "d": 1500,
      "v": 49
    },
    {
      "midi": 67,
      "hit": false,
      "t": 10500,
      "d": 1500,
      "v": 49
    },
    {
      "midi": 69,
      "hit": false,
      "t": 12000,
      "d": 750,
      "v": 66
    },
    {
      "midi": 60,
      "hit": false,
      "t": 12000,
      "d": 750,
      "v": 62
    },
    {
      "midi": 65,
      "hit": false,
      "t": 12000,
      "d": 750,
      "v": 62
    },
    {
      "midi": 69,
      "hit": false,
      "t": 12000,
      "d": 750,
      "v": 62
    },
    {
      "midi": 50,
      "hit": false,
      "t": 12000,
      "d": 1500,
      "v": 62
    },
    {
      "midi": 60,
      "hit": false,
      "t": 12000,
      "d": 750,
      "v": 62
    },
    {
      "midi": 65,
      "hit": false,
      "t": 12000,
      "d": 750,
      "v": 62
    },
    {
      "midi": 69,
      "hit": false,
      "t": 12000,
      "d": 750,
      "v": 62
    },
    {
      "midi": 50,
      "hit": false,
      "t": 12000,
      "d": 1500,
      "v": 62
    },
    {
      "midi": 69,
      "hit": false,
      "t": 12000,
      "d": 750,
      "v": 66
    },
    {
      "midi": 62,
      "hit": false,
      "t": 12750,
      "d": 750,
      "v": 66
    },
    {
      "midi": 62,
      "hit": false,
      "t": 12750,
      "d": 750,
      "v": 62
    },
    {
      "midi": 62,
      "hit": false,
      "t": 12750,
      "d": 750,
      "v": 62
    },
    {
      "midi": 62,
      "hit": false,
      "t": 12750,
      "d": 750,
      "v": 66
    },
    {
      "midi": 64,
      "hit": false,
      "t": 13500,
      "d": 750,
      "v": 66
    },
    {
      "midi": 64,
      "hit": false,
      "t": 13500,
      "d": 750,
      "v": 62
    },
    {
      "midi": 43,
      "hit": false,
      "t": 13500,
      "d": 1500,
      "v": 62
    },
    {
      "midi": 53,
      "hit": false,
      "t": 13500,
      "d": 1500,
      "v": 62
    },
    {
      "midi": 59,
      "hit": false,
      "t": 13500,
      "d": 1500,
      "v": 62
    },
    {
      "midi": 64,
      "hit": false,
      "t": 13500,
      "d": 750,
      "v": 62
    },
    {
      "midi": 43,
      "hit": false,
      "t": 13500,
      "d": 1500,
      "v": 62
    },
    {
      "midi": 53,
      "hit": false,
      "t": 13500,
      "d": 1500,
      "v": 62
    },
    {
      "midi": 59,
      "hit": false,
      "t": 13500,
      "d": 1500,
      "v": 62
    },
    {
      "midi": 64,
      "hit": false,
      "t": 13500,
      "d": 750,
      "v": 66
    },
    {
      "midi": 65,
      "hit": false,
      "t": 14250,
      "d": 750,
      "v": 66
    },
    {
      "midi": 65,
      "hit": false,
      "t": 14250,
      "d": 750,
      "v": 62
    },
    {
      "midi": 65,
      "hit": false,
      "t": 14250,
      "d": 750,
      "v": 62
    },
    {
      "midi": 65,
      "hit": false,
      "t": 14250,
      "d": 750,
      "v": 66
    },
    {
      "midi": 67,
      "hit": false,
      "t": 15000,
      "d": 750,
      "v": 66
    },
    {
      "midi": 67,
      "hit": false,
      "t": 15000,
      "d": 750,
      "v": 62
    },
    {
      "midi": 52,
      "hit": false,
      "t": 15000,
      "d": 1500,
      "v": 62
    },
    {
      "midi": 59,
      "hit": false,
      "t": 15000,
      "d": 1500,
      "v": 62
    },
    {
      "midi": 62,
      "hit": false,
      "t": 15000,
      "d": 1500,
      "v": 62
    },
    {
      "midi": 67,
      "hit": false,
      "t": 15000,
      "d": 750,
      "v": 62
    },
    {
      "midi": 52,
      "hit": false,
      "t": 15000,
      "d": 1500,
      "v": 62
    },
    {
      "midi": 59,
      "hit": false,
      "t": 15000,
      "d": 1500,
      "v": 62
    },
    {
      "midi": 62,
      "hit": false,
      "t": 15000,
      "d": 1500,
      "v": 62
    },
    {
      "midi": 67,
      "hit": false,
      "t": 15000,
      "d": 750,
      "v": 66
    },
    {
      "midi": 71,
      "hit": false,
      "t": 15750,
      "d": 750,
      "v": 66
    },
    {
      "midi": 71,
      "hit": false,
      "t": 15750,
      "d": 750,
      "v": 62
    },
    {
      "midi": 71,
      "hit": false,
      "t": 15750,
      "d": 750,
      "v": 62
    },
    {
      "midi": 71,
      "hit": false,
      "t": 15750,
      "d": 750,
      "v": 66
    },
    {
      "midi": 67,
      "hit": false,
      "t": 16500,
      "d": 750,
      "v": 66
    },
    {
      "midi": 67,
      "hit": false,
      "t": 16500,
      "d": 750,
      "v": 62
    },
    {
      "midi": 45,
      "hit": false,
      "t": 16500,
      "d": 1500,
      "v": 62
    },
    {
      "midi": 55,
      "hit": false,
      "t": 16500,
      "d": 1500,
      "v": 62
    },
    {
      "midi": 59,
      "hit": false,
      "t": 16500,
      "d": 1500,
      "v": 62
    },
    {
      "midi": 61,
      "hit": false,
      "t": 16500,
      "d": 1500,
      "v": 62
    },
    {
      "midi": 67,
      "hit": false,
      "t": 16500,
      "d": 750,
      "v": 62
    },
    {
      "midi": 45,
      "hit": false,
      "t": 16500,
      "d": 1500,
      "v": 62
    },
    {
      "midi": 55,
      "hit": false,
      "t": 16500,
      "d": 1500,
      "v": 62
    },
    {
      "midi": 59,
      "hit": false,
      "t": 16500,
      "d": 1500,
      "v": 62
    },
    {
      "midi": 61,
      "hit": false,
      "t": 16500,
      "d": 1500,
      "v": 62
    },
    {
      "midi": 67,
      "hit": false,
      "t": 16500,
      "d": 750,
      "v": 66
    },
    {
      "midi": 64,
      "hit": false,
      "t": 17250,
      "d": 750,
      "v": 66
    },
    {
      "midi": 64,
      "hit": false,
      "t": 17250,
      "d": 750,
      "v": 62
    },
    {
      "midi": 64,
      "hit": false,
      "t": 17250,
      "d": 750,
      "v": 62
    },
    {
      "midi": 64,
      "hit": false,
      "t": 17250,
      "d": 750,
      "v": 66
    },
    {
      "midi": 69,
      "hit": false,
      "t": 18000,
      "d": 750,
      "v": 66
    },
    {
      "midi": 60,
      "hit": false,
      "t": 18000,
      "d": 750,
      "v": 62
    },
    {
      "midi": 65,
      "hit": false,
      "t": 18000,
      "d": 750,
      "v": 62
    },
    {
      "midi": 69,
      "hit": false,
      "t": 18000,
      "d": 750,
      "v": 62
    },
    {
      "midi": 50,
      "hit": false,
      "t": 18000,
      "d": 1500,
      "v": 62
    },
    {
      "midi": 60,
      "hit": false,
      "t": 18000,
      "d": 750,
      "v": 62
    },
    {
      "midi": 65,
      "hit": false,
      "t": 18000,
      "d": 750,
      "v": 62
    },
    {
      "midi": 69,
      "hit": false,
      "t": 18000,
      "d": 750,
      "v": 62
    },
    {
      "midi": 50,
      "hit": false,
      "t": 18000,
      "d": 1500,
      "v": 62
    },
    {
      "midi": 69,
      "hit": false,
      "t": 18000,
      "d": 750,
      "v": 66
    },
    {
      "midi": 62,
      "hit": false,
      "t": 18750,
      "d": 750,
      "v": 66
    },
    {
      "midi": 62,
      "hit": false,
      "t": 18750,
      "d": 750,
      "v": 62
    },
    {
      "midi": 62,
      "hit": false,
      "t": 18750,
      "d": 750,
      "v": 62
    },
    {
      "midi": 62,
      "hit": false,
      "t": 18750,
      "d": 750,
      "v": 66
    },
    {
      "midi": 64,
      "hit": false,
      "t": 19500,
      "d": 750,
      "v": 66
    },
    {
      "midi": 64,
      "hit": false,
      "t": 19500,
      "d": 750,
      "v": 62
    },
    {
      "midi": 43,
      "hit": false,
      "t": 19500,
      "d": 1500,
      "v": 62
    },
    {
      "midi": 53,
      "hit": false,
      "t": 19500,
      "d": 1500,
      "v": 62
    },
    {
      "midi": 59,
      "hit": false,
      "t": 19500,
      "d": 3000,
      "v": 62
    },
    {
      "midi": 64,
      "hit": false,
      "t": 19500,
      "d": 750,
      "v": 62
    },
    {
      "midi": 43,
      "hit": false,
      "t": 19500,
      "d": 1500,
      "v": 62
    },
    {
      "midi": 53,
      "hit": false,
      "t": 19500,
      "d": 1500,
      "v": 62
    },
    {
      "midi": 59,
      "hit": false,
      "t": 19500,
      "d": 3000,
      "v": 62
    },
    {
      "midi": 64,
      "hit": false,
      "t": 19500,
      "d": 750,
      "v": 66
    },
    {
      "midi": 65,
      "hit": false,
      "t": 20250,
      "d": 750,
      "v": 66
    },
    {
      "midi": 65,
      "hit": false,
      "t": 20250,
      "d": 750,
      "v": 62
    },
    {
      "midi": 65,
      "hit": false,
      "t": 20250,
      "d": 750,
      "v": 62
    },
    {
      "midi": 65,
      "hit": false,
      "t": 20250,
      "d": 750,
      "v": 66
    },
    {
      "midi": 67,
      "hit": false,
      "t": 21000,
      "d": 750,
      "v": 66
    },
    {
      "midi": 67,
      "hit": false,
      "t": 21000,
      "d": 750,
      "v": 62
    },
    {
      "midi": 52,
      "hit": false,
      "t": 21000,
      "d": 1500,
      "v": 62
    },
    {
      "midi": 62,
      "hit": false,
      "t": 21000,
      "d": 1500,
      "v": 62
    },
    {
      "midi": 67,
      "hit": false,
      "t": 21000,
      "d": 750,
      "v": 62
    },
    {
      "midi": 52,
      "hit": false,
      "t": 21000,
      "d": 1500,
      "v": 62
    },
    {
      "midi": 62,
      "hit": false,
      "t": 21000,
      "d": 1500,
      "v": 62
    },
    {
      "midi": 67,
      "hit": false,
      "t": 21000,
      "d": 750,
      "v": 66
    },
    {
      "midi": 71,
      "hit": false,
      "t": 21750,
      "d": 750,
      "v": 66
    },
    {
      "midi": 71,
      "hit": false,
      "t": 21750,
      "d": 750,
      "v": 62
    },
    {
      "midi": 71,
      "hit": false,
      "t": 21750,
      "d": 750,
      "v": 62
    },
    {
      "midi": 71,
      "hit": false,
      "t": 21750,
      "d": 750,
      "v": 66
    },
    {
      "midi": 70,
      "hit": false,
      "t": 22500,
      "d": 1500,
      "v": 66
    },
    {
      "midi": 66,
      "hit": false,
      "t": 22500,
      "d": 750,
      "v": 62
    },
    {
      "midi": 45,
      "hit": false,
      "t": 22500,
      "d": 1500,
      "v": 62
    },
    {
      "midi": 55,
      "hit": false,
      "t": 22500,
      "d": 1500,
      "v": 62
    },
    {
      "midi": 61,
      "hit": false,
      "t": 22500,
      "d": 1500,
      "v": 62
    },
    {
      "midi": 70,
      "hit": false,
      "t": 22500,
      "d": 1500,
      "v": 62
    },
    {
      "midi": 66,
      "hit": false,
      "t": 22500,
      "d": 750,
      "v": 62
    },
    {
      "midi": 45,
      "hit": false,
      "t": 22500,
      "d": 1500,
      "v": 62
    },
    {
      "midi": 55,
      "hit": false,
      "t": 22500,
      "d": 1500,
      "v": 62
    },
    {
      "midi": 61,
      "hit": false,
      "t": 22500,
      "d": 1500,
      "v": 62
    },
    {
      "midi": 70,
      "hit": false,
      "t": 22500,
      "d": 1500,
      "v": 62
    },
    {
      "midi": 70,
      "hit": false,
      "t": 22500,
      "d": 1500,
      "v": 66
    },
    {
      "midi": 65,
      "hit": false,
      "t": 23250,
      "d": 1500,
      "v": 62
    },
    {
      "midi": 65,
      "hit": false,
      "t": 23250,
      "d": 1500,
      "v": 62
    },
    {
      "midi": 69,
      "hit": false,
      "t": 24000,
      "d": 750,
      "v": 66
    },
    {
      "midi": 60,
      "hit": false,
      "t": 24000,
      "d": 750,
      "v": 62
    },
    {
      "midi": 69,
      "hit": false,
      "t": 24000,
      "d": 750,
      "v": 62
    },
    {
      "midi": 50,
      "hit": false,
      "t": 24000,
      "d": 1500,
      "v": 62
    },
    {
      "midi": 60,
      "hit": false,
      "t": 24000,
      "d": 750,
      "v": 62
    },
    {
      "midi": 69,
      "hit": false,
      "t": 24000,
      "d": 750,
      "v": 62
    },
    {
      "midi": 50,
      "hit": false,
      "t": 24000,
      "d": 1500,
      "v": 62
    },
    {
      "midi": 69,
      "hit": false,
      "t": 24000,
      "d": 750,
      "v": 66
    },
    {
      "midi": 62,
      "hit": false,
      "t": 24750,
      "d": 750,
      "v": 66
    },
    {
      "midi": 62,
      "hit": false,
      "t": 24750,
      "d": 750,
      "v": 62
    },
    {
      "midi": 62,
      "hit": false,
      "t": 24750,
      "d": 750,
      "v": 62
    },
    {
      "midi": 62,
      "hit": false,
      "t": 24750,
      "d": 750,
      "v": 66
    },
    {
      "midi": 64,
      "hit": false,
      "t": 25500,
      "d": 750,
      "v": 66
    },
    {
      "midi": 64,
      "hit": false,
      "t": 25500,
      "d": 750,
      "v": 62
    },
    {
      "midi": 43,
      "hit": false,
      "t": 25500,
      "d": 1500,
      "v": 62
    },
    {
      "midi": 53,
      "hit": false,
      "t": 25500,
      "d": 1500,
      "v": 62
    },
    {
      "midi": 57,
      "hit": false,
      "t": 25500,
      "d": 1500,
      "v": 62
    },
    {
      "midi": 59,
      "hit": false,
      "t": 25500,
      "d": 1500,
      "v": 62
    },
    {
      "midi": 64,
      "hit": false,
      "t": 25500,
      "d": 750,
      "v": 62
    },
    {
      "midi": 43,
      "hit": false,
      "t": 25500,
      "d": 1500,
      "v": 62
    },
    {
      "midi": 53,
      "hit": false,
      "t": 25500,
      "d": 1500,
      "v": 62
    },
    {
      "midi": 57,
      "hit": false,
      "t": 25500,
      "d": 1500,
      "v": 62
    },
    {
      "midi": 59,
      "hit": false,
      "t": 25500,
      "d": 1500,
      "v": 62
    },
    {
      "midi": 64,
      "hit": false,
      "t": 25500,
      "d": 750,
      "v": 66
    },
    {
      "midi": 65,
      "hit": false,
      "t": 26250,
      "d": 750,
      "v": 66
    },
    {
      "midi": 65,
      "hit": false,
      "t": 26250,
      "d": 750,
      "v": 62
    },
    {
      "midi": 65,
      "hit": false,
      "t": 26250,
      "d": 750,
      "v": 62
    },
    {
      "midi": 65,
      "hit": false,
      "t": 26250,
      "d": 750,
      "v": 66
    },
    {
      "midi": 67,
      "hit": false,
      "t": 27000,
      "d": 750,
      "v": 66
    },
    {
      "midi": 67,
      "hit": false,
      "t": 27000,
      "d": 750,
      "v": 62
    },
    {
      "midi": 52,
      "hit": false,
      "t": 27000,
      "d": 1500,
      "v": 62
    },
    {
      "midi": 59,
      "hit": false,
      "t": 27000,
      "d": 1500,
      "v": 62
    },
    {
      "midi": 62,
      "hit": false,
      "t": 27000,
      "d": 1500,
      "v": 62
    },
    {
      "midi": 67,
      "hit": false,
      "t": 27000,
      "d": 750,
      "v": 62
    },
    {
      "midi": 52,
      "hit": false,
      "t": 27000,
      "d": 1500,
      "v": 62
    },
    {
      "midi": 59,
      "hit": false,
      "t": 27000,
      "d": 1500,
      "v": 62
    },
    {
      "midi": 62,
      "hit": false,
      "t": 27000,
      "d": 1500,
      "v": 62
    },
    {
      "midi": 67,
      "hit": false,
      "t": 27000,
      "d": 750,
      "v": 66
    },
    {
      "midi": 74,
      "hit": false,
      "t": 27750,
      "d": 750,
      "v": 66
    },
    {
      "midi": 74,
      "hit": false,
      "t": 27750,
      "d": 750,
      "v": 62
    },
    {
      "midi": 74,
      "hit": false,
      "t": 27750,
      "d": 750,
      "v": 62
    },
    {
      "midi": 74,
      "hit": false,
      "t": 27750,
      "d": 750,
      "v": 66
    },
    {
      "midi": 71,
      "hit": false,
      "t": 28500,
      "d": 750,
      "v": 66
    },
    {
      "midi": 71,
      "hit": false,
      "t": 28500,
      "d": 750,
      "v": 62
    },
    {
      "midi": 45,
      "hit": false,
      "t": 28500,
      "d": 1500,
      "v": 62
    },
    {
      "midi": 55,
      "hit": false,
      "t": 28500,
      "d": 1500,
      "v": 62
    },
    {
      "midi": 60,
      "hit": false,
      "t": 28500,
      "d": 1500,
      "v": 62
    },
    {
      "midi": 64,
      "hit": false,
      "t": 28500,
      "d": 1500,
      "v": 62
    },
    {
      "midi": 71,
      "hit": false,
      "t": 28500,
      "d": 750,
      "v": 62
    },
    {
      "midi": 45,
      "hit": false,
      "t": 28500,
      "d": 1500,
      "v": 62
    },
    {
      "midi": 55,
      "hit": false,
      "t": 28500,
      "d": 1500,
      "v": 62
    },
    {
      "midi": 60,
      "hit": false,
      "t": 28500,
      "d": 1500,
      "v": 62
    },
    {
      "midi": 64,
      "hit": false,
      "t": 28500,
      "d": 1500,
      "v": 62
    },
    {
      "midi": 71,
      "hit": false,
      "t": 28500,
      "d": 750,
      "v": 66
    },
    {
      "midi": 67,
      "hit": false,
      "t": 29250,
      "d": 750,
      "v": 66
    },
    {
      "midi": 67,
      "hit": false,
      "t": 29250,
      "d": 750,
      "v": 62
    },
    {
      "midi": 67,
      "hit": false,
      "t": 29250,
      "d": 750,
      "v": 62
    },
    {
      "midi": 67,
      "hit": false,
      "t": 29250,
      "d": 750,
      "v": 66
    },
    {
      "midi": 65,
      "hit": false,
      "t": 30000,
      "d": 750,
      "v": 66
    },
    {
      "midi": 50,
      "hit": false,
      "t": 30000,
      "d": 1500,
      "v": 62
    },
    {
      "midi": 60,
      "hit": false,
      "t": 30000,
      "d": 1500,
      "v": 62
    },
    {
      "midi": 65,
      "hit": false,
      "t": 30000,
      "d": 1500,
      "v": 62
    },
    {
      "midi": 50,
      "hit": false,
      "t": 30000,
      "d": 1500,
      "v": 62
    },
    {
      "midi": 60,
      "hit": false,
      "t": 30000,
      "d": 1500,
      "v": 62
    },
    {
      "midi": 65,
      "hit": false,
      "t": 30000,
      "d": 1500,
      "v": 62
    },
    {
      "midi": 65,
      "hit": false,
      "t": 30000,
      "d": 750,
      "v": 66
    },
    {
      "midi": 72,
      "hit": false,
      "t": 30750,
      "d": 750,
      "v": 66
    },
    {
      "midi": 72,
      "hit": false,
      "t": 30750,
      "d": 750,
      "v": 62
    },
    {
      "midi": 72,
      "hit": false,
      "t": 30750,
      "d": 750,
      "v": 62
    },
    {
      "midi": 72,
      "hit": false,
      "t": 30750,
      "d": 750,
      "v": 66
    },
    {
      "midi": 69,
      "hit": false,
      "t": 31500,
      "d": 750,
      "v": 66
    },
    {
      "midi": 65,
      "hit": false,
      "t": 31500,
      "d": 750,
      "v": 62
    },
    {
      "midi": 69,
      "hit": false,
      "t": 31500,
      "d": 750,
      "v": 62
    },
    {
      "midi": 55,
      "hit": false,
      "t": 31500,
      "d": 1500,
      "v": 62
    },
    {
      "midi": 59,
      "hit": false,
      "t": 31500,
      "d": 1500,
      "v": 62
    },
    {
      "midi": 65,
      "hit": false,
      "t": 31500,
      "d": 750,
      "v": 62
    },
    {
      "midi": 69,
      "hit": false,
      "t": 31500,
      "d": 750,
      "v": 62
    },
    {
      "midi": 55,
      "hit": false,
      "t": 31500,
      "d": 1500,
      "v": 62
    },
    {
      "midi": 59,
      "hit": false,
      "t": 31500,
      "d": 1500,
      "v": 62
    },
    {
      "midi": 69,
      "hit": false,
      "t": 31500,
      "d": 750,
      "v": 66
    },
    {
      "midi": 65,
      "hit": false,
      "t": 32250,
      "d": 750,
      "v": 66
    },
    {
      "midi": 65,
      "hit": false,
      "t": 32250,
      "d": 750,
      "v": 62
    },
    {
      "midi": 65,
      "hit": false,
      "t": 32250,
      "d": 750,
      "v": 62
    },
    {
      "midi": 65,
      "hit": false,
      "t": 32250,
      "d": 750,
      "v": 66
    },
    {
      "midi": 64,
      "hit": false,
      "t": 33000,
      "d": 3000,
      "v": 66
    },
    {
      "midi": 59,
      "hit": false,
      "t": 33000,
      "d": 1500,
      "v": 62
    },
    {
      "midi": 62,
      "hit": false,
      "t": 33000,
      "d": 1500,
      "v": 62
    },
    {
      "midi": 48,
      "hit": false,
      "t": 33000,
      "d": 3000,
      "v": 62
    },
    {
      "midi": 55,
      "hit": false,
      "t": 33000,
      "d": 3000,
      "v": 62
    },
    {
      "midi": 64,
      "hit": false,
      "t": 33000,
      "d": 3000,
      "v": 62
    },
    {
      "midi": 59,
      "hit": false,
      "t": 33000,
      "d": 1500,
      "v": 62
    },
    {
      "midi": 62,
      "hit": false,
      "t": 33000,
      "d": 1500,
      "v": 62
    },
    {
      "midi": 48,
      "hit": false,
      "t": 33000,
      "d": 3000,
      "v": 62
    },
    {
      "midi": 55,
      "hit": false,
      "t": 33000,
      "d": 3000,
      "v": 62
    },
    {
      "midi": 64,
      "hit": false,
      "t": 33000,
      "d": 3000,
      "v": 62
    },
    {
      "midi": 64,
      "hit": false,
      "t": 33000,
      "d": 3000,
      "v": 66
    },
    {
      "midi": 57,
      "hit": false,
      "t": 34500,
      "d": 1500,
      "v": 62
    },
    {
      "midi": 60,
      "hit": false,
      "t": 34500,
      "d": 1500,
      "v": 62
    },
    {
      "midi": 57,
      "hit": false,
      "t": 34500,
      "d": 1500,
      "v": 62
    },
    {
      "midi": 60,
      "hit": false,
      "t": 34500,
      "d": 1500,
      "v": 62
    },
    {
      "midi": 69,
      "hit": false,
      "t": 36000,
      "d": 750,
      "v": 66
    },
    {
      "midi": 60,
      "hit": false,
      "t": 36000,
      "d": 750,
      "v": 62
    },
    {
      "midi": 65,
      "hit": false,
      "t": 36000,
      "d": 750,
      "v": 62
    },
    {
      "midi": 69,
      "hit": false,
      "t": 36000,
      "d": 750,
      "v": 62
    },
    {
      "midi": 50,
      "hit": false,
      "t": 36000,
      "d": 1500,
      "v": 62
    },
    {
      "midi": 60,
      "hit": false,
      "t": 36000,
      "d": 750,
      "v": 62
    },
    {
      "midi": 65,
      "hit": false,
      "t": 36000,
      "d": 750,
      "v": 62
    },
    {
      "midi": 69,
      "hit": false,
      "t": 36000,
      "d": 750,
      "v": 62
    },
    {
      "midi": 50,
      "hit": false,
      "t": 36000,
      "d": 1500,
      "v": 62
    },
    {
      "midi": 69,
      "hit": false,
      "t": 36000,
      "d": 750,
      "v": 66
    },
    {
      "midi": 62,
      "hit": false,
      "t": 36750,
      "d": 750,
      "v": 66
    },
    {
      "midi": 62,
      "hit": false,
      "t": 36750,
      "d": 750,
      "v": 62
    },
    {
      "midi": 62,
      "hit": false,
      "t": 36750,
      "d": 750,
      "v": 62
    },
    {
      "midi": 62,
      "hit": false,
      "t": 36750,
      "d": 750,
      "v": 66
    },
    {
      "midi": 64,
      "hit": false,
      "t": 37500,
      "d": 750,
      "v": 66
    },
    {
      "midi": 64,
      "hit": false,
      "t": 37500,
      "d": 750,
      "v": 62
    },
    {
      "midi": 43,
      "hit": false,
      "t": 37500,
      "d": 1500,
      "v": 62
    },
    {
      "midi": 53,
      "hit": false,
      "t": 37500,
      "d": 1500,
      "v": 62
    },
    {
      "midi": 59,
      "hit": false,
      "t": 37500,
      "d": 1500,
      "v": 62
    },
    {
      "midi": 64,
      "hit": false,
      "t": 37500,
      "d": 750,
      "v": 62
    },
    {
      "midi": 43,
      "hit": false,
      "t": 37500,
      "d": 1500,
      "v": 62
    },
    {
      "midi": 53,
      "hit": false,
      "t": 37500,
      "d": 1500,
      "v": 62
    },
    {
      "midi": 59,
      "hit": false,
      "t": 37500,
      "d": 1500,
      "v": 62
    },
    {
      "midi": 64,
      "hit": false,
      "t": 37500,
      "d": 750,
      "v": 66
    },
    {
      "midi": 65,
      "hit": false,
      "t": 38250,
      "d": 750,
      "v": 66
    },
    {
      "midi": 65,
      "hit": false,
      "t": 38250,
      "d": 750,
      "v": 62
    },
    {
      "midi": 65,
      "hit": false,
      "t": 38250,
      "d": 750,
      "v": 62
    },
    {
      "midi": 65,
      "hit": false,
      "t": 38250,
      "d": 750,
      "v": 66
    },
    {
      "midi": 67,
      "hit": false,
      "t": 39000,
      "d": 750,
      "v": 66
    },
    {
      "midi": 67,
      "hit": false,
      "t": 39000,
      "d": 750,
      "v": 62
    },
    {
      "midi": 52,
      "hit": false,
      "t": 39000,
      "d": 1500,
      "v": 62
    },
    {
      "midi": 59,
      "hit": false,
      "t": 39000,
      "d": 1500,
      "v": 62
    },
    {
      "midi": 62,
      "hit": false,
      "t": 39000,
      "d": 1500,
      "v": 62
    },
    {
      "midi": 67,
      "hit": false,
      "t": 39000,
      "d": 750,
      "v": 62
    },
    {
      "midi": 52,
      "hit": false,
      "t": 39000,
      "d": 1500,
      "v": 62
    },
    {
      "midi": 59,
      "hit": false,
      "t": 39000,
      "d": 1500,
      "v": 62
    },
    {
      "midi": 62,
      "hit": false,
      "t": 39000,
      "d": 1500,
      "v": 62
    },
    {
      "midi": 67,
      "hit": false,
      "t": 39000,
      "d": 750,
      "v": 66
    },
    {
      "midi": 71,
      "hit": false,
      "t": 39750,
      "d": 750,
      "v": 66
    },
    {
      "midi": 71,
      "hit": false,
      "t": 39750,
      "d": 750,
      "v": 62
    },
    {
      "midi": 71,
      "hit": false,
      "t": 39750,
      "d": 750,
      "v": 62
    },
    {
      "midi": 71,
      "hit": false,
      "t": 39750,
      "d": 750,
      "v": 66
    },
    {
      "midi": 67,
      "hit": false,
      "t": 40500,
      "d": 750,
      "v": 66
    },
    {
      "midi": 67,
      "hit": false,
      "t": 40500,
      "d": 750,
      "v": 62
    },
    {
      "midi": 45,
      "hit": false,
      "t": 40500,
      "d": 1500,
      "v": 62
    },
    {
      "midi": 55,
      "hit": false,
      "t": 40500,
      "d": 1500,
      "v": 62
    },
    {
      "midi": 59,
      "hit": false,
      "t": 40500,
      "d": 1500,
      "v": 62
    },
    {
      "midi": 61,
      "hit": false,
      "t": 40500,
      "d": 1500,
      "v": 62
    },
    {
      "midi": 67,
      "hit": false,
      "t": 40500,
      "d": 750,
      "v": 62
    },
    {
      "midi": 45,
      "hit": false,
      "t": 40500,
      "d": 1500,
      "v": 62
    },
    {
      "midi": 55,
      "hit": false,
      "t": 40500,
      "d": 1500,
      "v": 62
    },
    {
      "midi": 59,
      "hit": false,
      "t": 40500,
      "d": 1500,
      "v": 62
    },
    {
      "midi": 61,
      "hit": false,
      "t": 40500,
      "d": 1500,
      "v": 62
    },
    {
      "midi": 67,
      "hit": false,
      "t": 40500,
      "d": 750,
      "v": 66
    },
    {
      "midi": 64,
      "hit": false,
      "t": 41250,
      "d": 750,
      "v": 66
    },
    {
      "midi": 64,
      "hit": false,
      "t": 41250,
      "d": 750,
      "v": 62
    },
    {
      "midi": 64,
      "hit": false,
      "t": 41250,
      "d": 750,
      "v": 62
    },
    {
      "midi": 64,
      "hit": false,
      "t": 41250,
      "d": 750,
      "v": 66
    },
    {
      "midi": 69,
      "hit": false,
      "t": 42000,
      "d": 750,
      "v": 66
    },
    {
      "midi": 60,
      "hit": false,
      "t": 42000,
      "d": 750,
      "v": 62
    },
    {
      "midi": 65,
      "hit": false,
      "t": 42000,
      "d": 750,
      "v": 62
    },
    {
      "midi": 69,
      "hit": false,
      "t": 42000,
      "d": 750,
      "v": 62
    },
    {
      "midi": 50,
      "hit": false,
      "t": 42000,
      "d": 1500,
      "v": 62
    },
    {
      "midi": 60,
      "hit": false,
      "t": 42000,
      "d": 750,
      "v": 62
    },
    {
      "midi": 65,
      "hit": false,
      "t": 42000,
      "d": 750,
      "v": 62
    },
    {
      "midi": 69,
      "hit": false,
      "t": 42000,
      "d": 750,
      "v": 62
    },
    {
      "midi": 50,
      "hit": false,
      "t": 42000,
      "d": 1500,
      "v": 62
    },
    {
      "midi": 69,
      "hit": false,
      "t": 42000,
      "d": 750,
      "v": 66
    },
    {
      "midi": 62,
      "hit": false,
      "t": 42750,
      "d": 750,
      "v": 66
    },
    {
      "midi": 62,
      "hit": false,
      "t": 42750,
      "d": 750,
      "v": 62
    },
    {
      "midi": 62,
      "hit": false,
      "t": 42750,
      "d": 750,
      "v": 62
    },
    {
      "midi": 62,
      "hit": false,
      "t": 42750,
      "d": 750,
      "v": 66
    },
    {
      "midi": 64,
      "hit": false,
      "t": 43500,
      "d": 750,
      "v": 66
    },
    {
      "midi": 64,
      "hit": false,
      "t": 43500,
      "d": 750,
      "v": 62
    },
    {
      "midi": 43,
      "hit": false,
      "t": 43500,
      "d": 1500,
      "v": 62
    },
    {
      "midi": 53,
      "hit": false,
      "t": 43500,
      "d": 1500,
      "v": 62
    },
    {
      "midi": 59,
      "hit": false,
      "t": 43500,
      "d": 3000,
      "v": 62
    },
    {
      "midi": 64,
      "hit": false,
      "t": 43500,
      "d": 750,
      "v": 62
    },
    {
      "midi": 43,
      "hit": false,
      "t": 43500,
      "d": 1500,
      "v": 62
    },
    {
      "midi": 53,
      "hit": false,
      "t": 43500,
      "d": 1500,
      "v": 62
    },
    {
      "midi": 59,
      "hit": false,
      "t": 43500,
      "d": 3000,
      "v": 62
    },
    {
      "midi": 64,
      "hit": false,
      "t": 43500,
      "d": 750,
      "v": 66
    },
    {
      "midi": 65,
      "hit": false,
      "t": 44250,
      "d": 750,
      "v": 66
    },
    {
      "midi": 65,
      "hit": false,
      "t": 44250,
      "d": 750,
      "v": 62
    },
    {
      "midi": 65,
      "hit": false,
      "t": 44250,
      "d": 750,
      "v": 62
    },
    {
      "midi": 65,
      "hit": false,
      "t": 44250,
      "d": 750,
      "v": 66
    },
    {
      "midi": 67,
      "hit": false,
      "t": 45000,
      "d": 750,
      "v": 66
    },
    {
      "midi": 67,
      "hit": false,
      "t": 45000,
      "d": 750,
      "v": 62
    },
    {
      "midi": 52,
      "hit": false,
      "t": 45000,
      "d": 1500,
      "v": 62
    },
    {
      "midi": 62,
      "hit": false,
      "t": 45000,
      "d": 1500,
      "v": 62
    },
    {
      "midi": 67,
      "hit": false,
      "t": 45000,
      "d": 750,
      "v": 62
    },
    {
      "midi": 52,
      "hit": false,
      "t": 45000,
      "d": 1500,
      "v": 62
    },
    {
      "midi": 62,
      "hit": false,
      "t": 45000,
      "d": 1500,
      "v": 62
    },
    {
      "midi": 67,
      "hit": false,
      "t": 45000,
      "d": 750,
      "v": 66
    },
    {
      "midi": 71,
      "hit": false,
      "t": 45750,
      "d": 750,
      "v": 66
    },
    {
      "midi": 71,
      "hit": false,
      "t": 45750,
      "d": 750,
      "v": 62
    },
    {
      "midi": 71,
      "hit": false,
      "t": 45750,
      "d": 750,
      "v": 62
    },
    {
      "midi": 71,
      "hit": false,
      "t": 45750,
      "d": 750,
      "v": 66
    },
    {
      "midi": 70,
      "hit": false,
      "t": 46500,
      "d": 1500,
      "v": 66
    },
    {
      "midi": 66,
      "hit": false,
      "t": 46500,
      "d": 750,
      "v": 62
    },
    {
      "midi": 45,
      "hit": false,
      "t": 46500,
      "d": 1500,
      "v": 62
    },
    {
      "midi": 55,
      "hit": false,
      "t": 46500,
      "d": 1500,
      "v": 62
    },
    {
      "midi": 61,
      "hit": false,
      "t": 46500,
      "d": 1500,
      "v": 62
    },
    {
      "midi": 70,
      "hit": false,
      "t": 46500,
      "d": 1500,
      "v": 62
    },
    {
      "midi": 66,
      "hit": false,
      "t": 46500,
      "d": 750,
      "v": 62
    },
    {
      "midi": 45,
      "hit": false,
      "t": 46500,
      "d": 1500,
      "v": 62
    },
    {
      "midi": 55,
      "hit": false,
      "t": 46500,
      "d": 1500,
      "v": 62
    },
    {
      "midi": 61,
      "hit": false,
      "t": 46500,
      "d": 1500,
      "v": 62
    },
    {
      "midi": 70,
      "hit": false,
      "t": 46500,
      "d": 1500,
      "v": 62
    },
    {
      "midi": 70,
      "hit": false,
      "t": 46500,
      "d": 1500,
      "v": 66
    },
    {
      "midi": 65,
      "hit": false,
      "t": 47250,
      "d": 1500,
      "v": 62
    },
    {
      "midi": 65,
      "hit": false,
      "t": 47250,
      "d": 1500,
      "v": 62
    },
    {
      "midi": 69,
      "hit": false,
      "t": 48000,
      "d": 750,
      "v": 66
    },
    {
      "midi": 60,
      "hit": false,
      "t": 48000,
      "d": 750,
      "v": 62
    },
    {
      "midi": 69,
      "hit": false,
      "t": 48000,
      "d": 750,
      "v": 62
    },
    {
      "midi": 50,
      "hit": false,
      "t": 48000,
      "d": 1500,
      "v": 62
    },
    {
      "midi": 60,
      "hit": false,
      "t": 48000,
      "d": 750,
      "v": 62
    },
    {
      "midi": 69,
      "hit": false,
      "t": 48000,
      "d": 750,
      "v": 62
    },
    {
      "midi": 50,
      "hit": false,
      "t": 48000,
      "d": 1500,
      "v": 62
    },
    {
      "midi": 69,
      "hit": false,
      "t": 48000,
      "d": 750,
      "v": 66
    },
    {
      "midi": 62,
      "hit": false,
      "t": 48750,
      "d": 750,
      "v": 66
    },
    {
      "midi": 62,
      "hit": false,
      "t": 48750,
      "d": 750,
      "v": 62
    },
    {
      "midi": 62,
      "hit": false,
      "t": 48750,
      "d": 750,
      "v": 62
    },
    {
      "midi": 62,
      "hit": false,
      "t": 48750,
      "d": 750,
      "v": 66
    },
    {
      "midi": 64,
      "hit": false,
      "t": 49500,
      "d": 750,
      "v": 66
    },
    {
      "midi": 64,
      "hit": false,
      "t": 49500,
      "d": 750,
      "v": 62
    },
    {
      "midi": 43,
      "hit": false,
      "t": 49500,
      "d": 1500,
      "v": 62
    },
    {
      "midi": 53,
      "hit": false,
      "t": 49500,
      "d": 1500,
      "v": 62
    },
    {
      "midi": 57,
      "hit": false,
      "t": 49500,
      "d": 1500,
      "v": 62
    },
    {
      "midi": 59,
      "hit": false,
      "t": 49500,
      "d": 1500,
      "v": 62
    },
    {
      "midi": 64,
      "hit": false,
      "t": 49500,
      "d": 750,
      "v": 62
    },
    {
      "midi": 43,
      "hit": false,
      "t": 49500,
      "d": 1500,
      "v": 62
    },
    {
      "midi": 53,
      "hit": false,
      "t": 49500,
      "d": 1500,
      "v": 62
    },
    {
      "midi": 57,
      "hit": false,
      "t": 49500,
      "d": 1500,
      "v": 62
    },
    {
      "midi": 59,
      "hit": false,
      "t": 49500,
      "d": 1500,
      "v": 62
    },
    {
      "midi": 64,
      "hit": false,
      "t": 49500,
      "d": 750,
      "v": 66
    },
    {
      "midi": 65,
      "hit": false,
      "t": 50250,
      "d": 750,
      "v": 66
    },
    {
      "midi": 65,
      "hit": false,
      "t": 50250,
      "d": 750,
      "v": 62
    },
    {
      "midi": 65,
      "hit": false,
      "t": 50250,
      "d": 750,
      "v": 62
    },
    {
      "midi": 65,
      "hit": false,
      "t": 50250,
      "d": 750,
      "v": 66
    },
    {
      "midi": 67,
      "hit": false,
      "t": 51000,
      "d": 750,
      "v": 66
    },
    {
      "midi": 67,
      "hit": false,
      "t": 51000,
      "d": 750,
      "v": 62
    },
    {
      "midi": 52,
      "hit": false,
      "t": 51000,
      "d": 1500,
      "v": 62
    },
    {
      "midi": 59,
      "hit": false,
      "t": 51000,
      "d": 1500,
      "v": 62
    },
    {
      "midi": 62,
      "hit": false,
      "t": 51000,
      "d": 1500,
      "v": 62
    },
    {
      "midi": 67,
      "hit": false,
      "t": 51000,
      "d": 750,
      "v": 62
    },
    {
      "midi": 52,
      "hit": false,
      "t": 51000,
      "d": 1500,
      "v": 62
    },
    {
      "midi": 59,
      "hit": false,
      "t": 51000,
      "d": 1500,
      "v": 62
    },
    {
      "midi": 62,
      "hit": false,
      "t": 51000,
      "d": 1500,
      "v": 62
    },
    {
      "midi": 67,
      "hit": false,
      "t": 51000,
      "d": 750,
      "v": 66
    },
    {
      "midi": 74,
      "hit": false,
      "t": 51750,
      "d": 750,
      "v": 66
    },
    {
      "midi": 74,
      "hit": false,
      "t": 51750,
      "d": 750,
      "v": 62
    },
    {
      "midi": 74,
      "hit": false,
      "t": 51750,
      "d": 750,
      "v": 62
    },
    {
      "midi": 74,
      "hit": false,
      "t": 51750,
      "d": 750,
      "v": 66
    },
    {
      "midi": 71,
      "hit": false,
      "t": 52500,
      "d": 750,
      "v": 66
    },
    {
      "midi": 71,
      "hit": false,
      "t": 52500,
      "d": 750,
      "v": 62
    },
    {
      "midi": 45,
      "hit": false,
      "t": 52500,
      "d": 1500,
      "v": 62
    },
    {
      "midi": 55,
      "hit": false,
      "t": 52500,
      "d": 1500,
      "v": 62
    },
    {
      "midi": 60,
      "hit": false,
      "t": 52500,
      "d": 1500,
      "v": 62
    },
    {
      "midi": 64,
      "hit": false,
      "t": 52500,
      "d": 1500,
      "v": 62
    },
    {
      "midi": 71,
      "hit": false,
      "t": 52500,
      "d": 750,
      "v": 62
    },
    {
      "midi": 45,
      "hit": false,
      "t": 52500,
      "d": 1500,
      "v": 62
    },
    {
      "midi": 55,
      "hit": false,
      "t": 52500,
      "d": 1500,
      "v": 62
    },
    {
      "midi": 60,
      "hit": false,
      "t": 52500,
      "d": 1500,
      "v": 62
    },
    {
      "midi": 64,
      "hit": false,
      "t": 52500,
      "d": 1500,
      "v": 62
    },
    {
      "midi": 71,
      "hit": false,
      "t": 52500,
      "d": 750,
      "v": 66
    },
    {
      "midi": 67,
      "hit": false,
      "t": 53250,
      "d": 750,
      "v": 66
    },
    {
      "midi": 67,
      "hit": false,
      "t": 53250,
      "d": 750,
      "v": 62
    },
    {
      "midi": 67,
      "hit": false,
      "t": 53250,
      "d": 750,
      "v": 62
    },
    {
      "midi": 67,
      "hit": false,
      "t": 53250,
      "d": 750,
      "v": 66
    },
    {
      "midi": 65,
      "hit": false,
      "t": 54000,
      "d": 750,
      "v": 66
    },
    {
      "midi": 65,
      "hit": false,
      "t": 54000,
      "d": 1500,
      "v": 62
    },
    {
      "midi": 50,
      "hit": false,
      "t": 54000,
      "d": 3000,
      "v": 62
    },
    {
      "midi": 60,
      "hit": false,
      "t": 54000,
      "d": 3000,
      "v": 62
    },
    {
      "midi": 62,
      "hit": false,
      "t": 54000,
      "d": 3000,
      "v": 62
    },
    {
      "midi": 65,
      "hit": false,
      "t": 54000,
      "d": 1500,
      "v": 62
    },
    {
      "midi": 50,
      "hit": false,
      "t": 54000,
      "d": 3000,
      "v": 62
    },
    {
      "midi": 60,
      "hit": false,
      "t": 54000,
      "d": 3000,
      "v": 62
    },
    {
      "midi": 62,
      "hit": false,
      "t": 54000,
      "d": 3000,
      "v": 62
    },
    {
      "midi": 65,
      "hit": false,
      "t": 54000,
      "d": 750,
      "v": 66
    },
    {
      "midi": 72,
      "hit": false,
      "t": 54750,
      "d": 750,
      "v": 66
    },
    {
      "midi": 72,
      "hit": false,
      "t": 54750,
      "d": 750,
      "v": 62
    },
    {
      "midi": 72,
      "hit": false,
      "t": 54750,
      "d": 750,
      "v": 62
    },
    {
      "midi": 72,
      "hit": false,
      "t": 54750,
      "d": 750,
      "v": 66
    },
    {
      "midi": 69,
      "hit": false,
      "t": 55500,
      "d": 750,
      "v": 66
    },
    {
      "midi": 65,
      "hit": false,
      "t": 55500,
      "d": 750,
      "v": 62
    },
    {
      "midi": 69,
      "hit": false,
      "t": 55500,
      "d": 750,
      "v": 62
    },
    {
      "midi": 65,
      "hit": false,
      "t": 55500,
      "d": 750,
      "v": 62
    },
    {
      "midi": 69,
      "hit": false,
      "t": 55500,
      "d": 750,
      "v": 62
    },
    {
      "midi": 69,
      "hit": false,
      "t": 55500,
      "d": 750,
      "v": 66
    },
    {
      "midi": 65,
      "hit": false,
      "t": 56250,
      "d": 750,
      "v": 66
    },
    {
      "midi": 65,
      "hit": false,
      "t": 56250,
      "d": 750,
      "v": 62
    },
    {
      "midi": 65,
      "hit": false,
      "t": 56250,
      "d": 750,
      "v": 62
    },
    {
      "midi": 65,
      "hit": false,
      "t": 56250,
      "d": 750,
      "v": 66
    },
    {
      "midi": 64,
      "hit": false,
      "t": 57000,
      "d": 750,
      "v": 66
    },
    {
      "midi": 67,
      "hit": false,
      "t": 57000,
      "d": 2250,
      "v": 66
    },
    {
      "midi": 64,
      "hit": false,
      "t": 57000,
      "d": 750,
      "v": 62
    },
    {
      "midi": 43,
      "hit": false,
      "t": 57000,
      "d": 2250,
      "v": 62
    },
    {
      "midi": 53,
      "hit": false,
      "t": 57000,
      "d": 2250,
      "v": 62
    },
    {
      "midi": 59,
      "hit": false,
      "t": 57000,
      "d": 2250,
      "v": 62
    },
    {
      "midi": 67,
      "hit": false,
      "t": 57000,
      "d": 2250,
      "v": 62
    },
    {
      "midi": 64,
      "hit": false,
      "t": 57000,
      "d": 750,
      "v": 62
    },
    {
      "midi": 43,
      "hit": false,
      "t": 57000,
      "d": 2250,
      "v": 62
    },
    {
      "midi": 53,
      "hit": false,
      "t": 57000,
      "d": 2250,
      "v": 62
    },
    {
      "midi": 59,
      "hit": false,
      "t": 57000,
      "d": 2250,
      "v": 62
    },
    {
      "midi": 67,
      "hit": false,
      "t": 57000,
      "d": 2250,
      "v": 62
    },
    {
      "midi": 64,
      "hit": false,
      "t": 57000,
      "d": 750,
      "v": 66
    },
    {
      "midi": 67,
      "hit": false,
      "t": 57000,
      "d": 2250,
      "v": 66
    },
    {
      "midi": 61,
      "hit": false,
      "t": 57750,
      "d": 750,
      "v": 66
    },
    {
      "midi": 61,
      "hit": false,
      "t": 57750,
      "d": 750,
      "v": 62
    },
    {
      "midi": 61,
      "hit": false,
      "t": 57750,
      "d": 750,
      "v": 62
    },
    {
      "midi": 61,
      "hit": false,
      "t": 57750,
      "d": 750,
      "v": 66
    },
    {
      "midi": 62,
      "hit": false,
      "t": 58500,
      "d": 750,
      "v": 66
    },
    {
      "midi": 62,
      "hit": false,
      "t": 58500,
      "d": 750,
      "v": 62
    },
    {
      "midi": 62,
      "hit": false,
      "t": 58500,
      "d": 750,
      "v": 62
    },
    {
      "midi": 62,
      "hit": false,
      "t": 58500,
      "d": 750,
      "v": 66
    },
    {
      "midi": 55,
      "hit": false,
      "t": 59250,
      "d": 750,
      "v": 66
    },
    {
      "midi": 43,
      "hit": false,
      "t": 59250,
      "d": 750,
      "v": 75
    },
    {
      "midi": 53,
      "hit": false,
      "t": 59250,
      "d": 750,
      "v": 75
    },
    {
      "midi": 59,
      "hit": false,
      "t": 59250,
      "d": 750,
      "v": 75
    },
    {
      "midi": 63,
      "hit": false,
      "t": 59250,
      "d": 750,
      "v": 75
    },
    {
      "midi": 67,
      "hit": false,
      "t": 59250,
      "d": 750,
      "v": 75
    },
    {
      "midi": 43,
      "hit": false,
      "t": 59250,
      "d": 750,
      "v": 75
    },
    {
      "midi": 53,
      "hit": false,
      "t": 59250,
      "d": 750,
      "v": 75
    },
    {
      "midi": 59,
      "hit": false,
      "t": 59250,
      "d": 750,
      "v": 75
    },
    {
      "midi": 63,
      "hit": false,
      "t": 59250,
      "d": 750,
      "v": 75
    },
    {
      "midi": 67,
      "hit": false,
      "t": 59250,
      "d": 750,
      "v": 75
    },
    {
      "midi": 55,
      "hit": false,
      "t": 59250,
      "d": 750,
      "v": 66
    },
    {
      "midi": 52,
      "hit": false,
      "t": 60000,
      "d": 375,
      "v": 66
    },
    {
      "midi": 52,
      "hit": false,
      "t": 60000,
      "d": 375,
      "v": 75
    },
    {
      "midi": 55,
      "hit": false,
      "t": 60000,
      "d": 375,
      "v": 75
    },
    {
      "midi": 57,
      "hit": false,
      "t": 60000,
      "d": 375,
      "v": 75
    },
    {
      "midi": 60,
      "hit": false,
      "t": 60000,
      "d": 375,
      "v": 75
    },
    {
      "midi": 64,
      "hit": false,
      "t": 60000,
      "d": 375,
      "v": 75
    },
    {
      "midi": 52,
      "hit": false,
      "t": 60000,
      "d": 375,
      "v": 75
    },
    {
      "midi": 55,
      "hit": false,
      "t": 60000,
      "d": 375,
      "v": 75
    },
    {
      "midi": 57,
      "hit": false,
      "t": 60000,
      "d": 375,
      "v": 75
    },
    {
      "midi": 60,
      "hit": false,
      "t": 60000,
      "d": 375,
      "v": 75
    },
    {
      "midi": 64,
      "hit": false,
      "t": 60000,
      "d": 375,
      "v": 75
    },
    {
      "midi": 52,
      "hit": false,
      "t": 60000,
      "d": 375,
      "v": 66
    },
    {
      "midi": 59,
      "hit": false,
      "t": 60375,
      "d": 375,
      "v": 66
    },
    {
      "midi": 59,
      "hit": false,
      "t": 60375,
      "d": 375,
      "v": 75
    },
    {
      "midi": 62,
      "hit": false,
      "t": 60375,
      "d": 375,
      "v": 75
    },
    {
      "midi": 64,
      "hit": false,
      "t": 60375,
      "d": 375,
      "v": 75
    },
    {
      "midi": 67,
      "hit": false,
      "t": 60375,
      "d": 375,
      "v": 75
    },
    {
      "midi": 71,
      "hit": false,
      "t": 60375,
      "d": 375,
      "v": 75
    },
    {
      "midi": 59,
      "hit": false,
      "t": 60375,
      "d": 375,
      "v": 75
    },
    {
      "midi": 62,
      "hit": false,
      "t": 60375,
      "d": 375,
      "v": 75
    },
    {
      "midi": 64,
      "hit": false,
      "t": 60375,
      "d": 375,
      "v": 75
    },
    {
      "midi": 67,
      "hit": false,
      "t": 60375,
      "d": 375,
      "v": 75
    },
    {
      "midi": 71,
      "hit": false,
      "t": 60375,
      "d": 375,
      "v": 75
    },
    {
      "midi": 59,
      "hit": false,
      "t": 60375,
      "d": 375,
      "v": 66
    },
    {
      "midi": 60,
      "hit": false,
      "t": 60750,
      "d": 1500,
      "v": 66
    },
    {
      "midi": 60,
      "hit": false,
      "t": 60750,
      "d": 1500,
      "v": 75
    },
    {
      "midi": 64,
      "hit": false,
      "t": 60750,
      "d": 1500,
      "v": 75
    },
    {
      "midi": 67,
      "hit": false,
      "t": 60750,
      "d": 1500,
      "v": 75
    },
    {
      "midi": 69,
      "hit": false,
      "t": 60750,
      "d": 1500,
      "v": 75
    },
    {
      "midi": 72,
      "hit": false,
      "t": 60750,
      "d": 1500,
      "v": 75
    },
    {
      "midi": 60,
      "hit": false,
      "t": 60750,
      "d": 1500,
      "v": 75
    },
    {
      "midi": 64,
      "hit": false,
      "t": 60750,
      "d": 1500,
      "v": 75
    },
    {
      "midi": 67,
      "hit": false,
      "t": 60750,
      "d": 1500,
      "v": 75
    },
    {
      "midi": 69,
      "hit": false,
      "t": 60750,
      "d": 1500,
      "v": 75
    },
    {
      "midi": 72,
      "hit": false,
      "t": 60750,
      "d": 1500,
      "v": 75
    },
    {
      "midi": 60,
      "hit": false,
      "t": 60750,
      "d": 1500,
      "v": 66
    },
    {
      "midi": 52,
      "hit": false,
      "t": 62250,
      "d": 750,
      "v": 66
    },
    {
      "midi": 52,
      "hit": false,
      "t": 62250,
      "d": 750,
      "v": 75
    },
    {
      "midi": 55,
      "hit": false,
      "t": 62250,
      "d": 750,
      "v": 75
    },
    {
      "midi": 57,
      "hit": false,
      "t": 62250,
      "d": 750,
      "v": 75
    },
    {
      "midi": 60,
      "hit": false,
      "t": 62250,
      "d": 750,
      "v": 75
    },
    {
      "midi": 64,
      "hit": false,
      "t": 62250,
      "d": 750,
      "v": 75
    },
    {
      "midi": 52,
      "hit": false,
      "t": 62250,
      "d": 750,
      "v": 75
    },
    {
      "midi": 55,
      "hit": false,
      "t": 62250,
      "d": 750,
      "v": 75
    },
    {
      "midi": 57,
      "hit": false,
      "t": 62250,
      "d": 750,
      "v": 75
    },
    {
      "midi": 60,
      "hit": false,
      "t": 62250,
      "d": 750,
      "v": 75
    },
    {
      "midi": 64,
      "hit": false,
      "t": 62250,
      "d": 750,
      "v": 75
    },
    {
      "midi": 52,
      "hit": false,
      "t": 62250,
      "d": 750,
      "v": 66
    },
    {
      "midi": 53,
      "hit": false,
      "t": 63000,
      "d": 375,
      "v": 66
    },
    {
      "midi": 53,
      "hit": false,
      "t": 63000,
      "d": 375,
      "v": 75
    },
    {
      "midi": 57,
      "hit": false,
      "t": 63000,
      "d": 375,
      "v": 75
    },
    {
      "midi": 60,
      "hit": false,
      "t": 63000,
      "d": 375,
      "v": 75
    },
    {
      "midi": 62,
      "hit": false,
      "t": 63000,
      "d": 375,
      "v": 75
    },
    {
      "midi": 65,
      "hit": false,
      "t": 63000,
      "d": 375,
      "v": 75
    },
    {
      "midi": 53,
      "hit": false,
      "t": 63000,
      "d": 375,
      "v": 75
    },
    {
      "midi": 57,
      "hit": false,
      "t": 63000,
      "d": 375,
      "v": 75
    },
    {
      "midi": 60,
      "hit": false,
      "t": 63000,
      "d": 375,
      "v": 75
    },
    {
      "midi": 62,
      "hit": false,
      "t": 63000,
      "d": 375,
      "v": 75
    },
    {
      "midi": 65,
      "hit": false,
      "t": 63000,
      "d": 375,
      "v": 75
    },
    {
      "midi": 53,
      "hit": false,
      "t": 63000,
      "d": 375,
      "v": 66
    },
    {
      "midi": 59,
      "hit": false,
      "t": 63375,
      "d": 375,
      "v": 66
    },
    {
      "midi": 59,
      "hit": false,
      "t": 63375,
      "d": 375,
      "v": 75
    },
    {
      "midi": 62,
      "hit": false,
      "t": 63375,
      "d": 375,
      "v": 75
    },
    {
      "midi": 65,
      "hit": false,
      "t": 63375,
      "d": 375,
      "v": 75
    },
    {
      "midi": 68,
      "hit": false,
      "t": 63375,
      "d": 375,
      "v": 75
    },
    {
      "midi": 71,
      "hit": false,
      "t": 63375,
      "d": 375,
      "v": 75
    },
    {
      "midi": 59,
      "hit": false,
      "t": 63375,
      "d": 375,
      "v": 75
    },
    {
      "midi": 62,
      "hit": false,
      "t": 63375,
      "d": 375,
      "v": 75
    },
    {
      "midi": 65,
      "hit": false,
      "t": 63375,
      "d": 375,
      "v": 75
    },
    {
      "midi": 68,
      "hit": false,
      "t": 63375,
      "d": 375,
      "v": 75
    },
    {
      "midi": 71,
      "hit": false,
      "t": 63375,
      "d": 375,
      "v": 75
    },
    {
      "midi": 59,
      "hit": false,
      "t": 63375,
      "d": 375,
      "v": 66
    },
    {
      "midi": 60,
      "hit": false,
      "t": 63750,
      "d": 1500,
      "v": 66
    },
    {
      "midi": 60,
      "hit": false,
      "t": 63750,
      "d": 1500,
      "v": 75
    },
    {
      "midi": 62,
      "hit": false,
      "t": 63750,
      "d": 1500,
      "v": 75
    },
    {
      "midi": 65,
      "hit": false,
      "t": 63750,
      "d": 1500,
      "v": 75
    },
    {
      "midi": 69,
      "hit": false,
      "t": 63750,
      "d": 1500,
      "v": 75
    },
    {
      "midi": 72,
      "hit": false,
      "t": 63750,
      "d": 1500,
      "v": 75
    },
    {
      "midi": 60,
      "hit": false,
      "t": 63750,
      "d": 1500,
      "v": 75
    },
    {
      "midi": 62,
      "hit": false,
      "t": 63750,
      "d": 1500,
      "v": 75
    },
    {
      "midi": 65,
      "hit": false,
      "t": 63750,
      "d": 1500,
      "v": 75
    },
    {
      "midi": 69,
      "hit": false,
      "t": 63750,
      "d": 1500,
      "v": 75
    },
    {
      "midi": 72,
      "hit": false,
      "t": 63750,
      "d": 1500,
      "v": 75
    },
    {
      "midi": 60,
      "hit": false,
      "t": 63750,
      "d": 1500,
      "v": 66
    },
    {
      "midi": 53,
      "hit": false,
      "t": 65250,
      "d": 750,
      "v": 66
    },
    {
      "midi": 53,
      "hit": false,
      "t": 65250,
      "d": 750,
      "v": 75
    },
    {
      "midi": 57,
      "hit": false,
      "t": 65250,
      "d": 750,
      "v": 75
    },
    {
      "midi": 60,
      "hit": false,
      "t": 65250,
      "d": 750,
      "v": 75
    },
    {
      "midi": 62,
      "hit": false,
      "t": 65250,
      "d": 750,
      "v": 75
    },
    {
      "midi": 65,
      "hit": false,
      "t": 65250,
      "d": 750,
      "v": 75
    },
    {
      "midi": 53,
      "hit": false,
      "t": 65250,
      "d": 750,
      "v": 75
    },
    {
      "midi": 57,
      "hit": false,
      "t": 65250,
      "d": 750,
      "v": 75
    },
    {
      "midi": 60,
      "hit": false,
      "t": 65250,
      "d": 750,
      "v": 75
    },
    {
      "midi": 62,
      "hit": false,
      "t": 65250,
      "d": 750,
      "v": 75
    },
    {
      "midi": 65,
      "hit": false,
      "t": 65250,
      "d": 750,
      "v": 75
    },
    {
      "midi": 53,
      "hit": false,
      "t": 65250,
      "d": 750,
      "v": 66
    },
    {
      "midi": 55,
      "hit": false,
      "t": 66000,
      "d": 375,
      "v": 66
    },
    {
      "midi": 55,
      "hit": false,
      "t": 66000,
      "d": 375,
      "v": 75
    },
    {
      "midi": 59,
      "hit": false,
      "t": 66000,
      "d": 375,
      "v": 75
    },
    {
      "midi": 62,
      "hit": false,
      "t": 66000,
      "d": 375,
      "v": 75
    },
    {
      "midi": 64,
      "hit": false,
      "t": 66000,
      "d": 375,
      "v": 75
    },
    {
      "midi": 67,
      "hit": false,
      "t": 66000,
      "d": 375,
      "v": 75
    },
    {
      "midi": 55,
      "hit": false,
      "t": 66000,
      "d": 375,
      "v": 75
    },
    {
      "midi": 59,
      "hit": false,
      "t": 66000,
      "d": 375,
      "v": 75
    },
    {
      "midi": 62,
      "hit": false,
      "t": 66000,
      "d": 375,
      "v": 75
    },
    {
      "midi": 64,
      "hit": false,
      "t": 66000,
      "d": 375,
      "v": 75
    },
    {
      "midi": 67,
      "hit": false,
      "t": 66000,
      "d": 375,
      "v": 75
    },
    {
      "midi": 55,
      "hit": false,
      "t": 66000,
      "d": 375,
      "v": 66
    },
    {
      "midi": 59,
      "hit": false,
      "t": 66375,
      "d": 375,
      "v": 66
    },
    {
      "midi": 59,
      "hit": false,
      "t": 66375,
      "d": 375,
      "v": 75
    },
    {
      "midi": 62,
      "hit": false,
      "t": 66375,
      "d": 375,
      "v": 75
    },
    {
      "midi": 64,
      "hit": false,
      "t": 66375,
      "d": 375,
      "v": 75
    },
    {
      "midi": 67,
      "hit": false,
      "t": 66375,
      "d": 375,
      "v": 75
    },
    {
      "midi": 71,
      "hit": false,
      "t": 66375,
      "d": 375,
      "v": 75
    },
    {
      "midi": 59,
      "hit": false,
      "t": 66375,
      "d": 375,
      "v": 75
    },
    {
      "midi": 62,
      "hit": false,
      "t": 66375,
      "d": 375,
      "v": 75
    },
    {
      "midi": 64,
      "hit": false,
      "t": 66375,
      "d": 375,
      "v": 75
    },
    {
      "midi": 67,
      "hit": false,
      "t": 66375,
      "d": 375,
      "v": 75
    },
    {
      "midi": 71,
      "hit": false,
      "t": 66375,
      "d": 375,
      "v": 75
    },
    {
      "midi": 59,
      "hit": false,
      "t": 66375,
      "d": 375,
      "v": 66
    },
    {
      "midi": 60,
      "hit": false,
      "t": 66750,
      "d": 750,
      "v": 66
    },
    {
      "midi": 60,
      "hit": false,
      "t": 66750,
      "d": 750,
      "v": 75
    },
    {
      "midi": 64,
      "hit": false,
      "t": 66750,
      "d": 750,
      "v": 75
    },
    {
      "midi": 67,
      "hit": false,
      "t": 66750,
      "d": 750,
      "v": 75
    },
    {
      "midi": 69,
      "hit": false,
      "t": 66750,
      "d": 750,
      "v": 75
    },
    {
      "midi": 72,
      "hit": false,
      "t": 66750,
      "d": 750,
      "v": 75
    },
    {
      "midi": 60,
      "hit": false,
      "t": 66750,
      "d": 750,
      "v": 75
    },
    {
      "midi": 64,
      "hit": false,
      "t": 66750,
      "d": 750,
      "v": 75
    },
    {
      "midi": 67,
      "hit": false,
      "t": 66750,
      "d": 750,
      "v": 75
    },
    {
      "midi": 69,
      "hit": false,
      "t": 66750,
      "d": 750,
      "v": 75
    },
    {
      "midi": 72,
      "hit": false,
      "t": 66750,
      "d": 750,
      "v": 75
    },
    {
      "midi": 60,
      "hit": false,
      "t": 66750,
      "d": 750,
      "v": 66
    },
    {
      "midi": 56,
      "hit": false,
      "t": 67500,
      "d": 375,
      "v": 66
    },
    {
      "midi": 56,
      "hit": false,
      "t": 67500,
      "d": 375,
      "v": 75
    },
    {
      "midi": 59,
      "hit": false,
      "t": 67500,
      "d": 375,
      "v": 75
    },
    {
      "midi": 62,
      "hit": false,
      "t": 67500,
      "d": 375,
      "v": 75
    },
    {
      "midi": 64,
      "hit": false,
      "t": 67500,
      "d": 375,
      "v": 75
    },
    {
      "midi": 68,
      "hit": false,
      "t": 67500,
      "d": 375,
      "v": 75
    },
    {
      "midi": 56,
      "hit": false,
      "t": 67500,
      "d": 375,
      "v": 75
    },
    {
      "midi": 59,
      "hit": false,
      "t": 67500,
      "d": 375,
      "v": 75
    },
    {
      "midi": 62,
      "hit": false,
      "t": 67500,
      "d": 375,
      "v": 75
    },
    {
      "midi": 64,
      "hit": false,
      "t": 67500,
      "d": 375,
      "v": 75
    },
    {
      "midi": 68,
      "hit": false,
      "t": 67500,
      "d": 375,
      "v": 75
    },
    {
      "midi": 56,
      "hit": false,
      "t": 67500,
      "d": 375,
      "v": 66
    },
    {
      "midi": 59,
      "hit": false,
      "t": 67875,
      "d": 375,
      "v": 66
    },
    {
      "midi": 59,
      "hit": false,
      "t": 67875,
      "d": 375,
      "v": 75
    },
    {
      "midi": 62,
      "hit": false,
      "t": 67875,
      "d": 375,
      "v": 75
    },
    {
      "midi": 64,
      "hit": false,
      "t": 67875,
      "d": 375,
      "v": 75
    },
    {
      "midi": 68,
      "hit": false,
      "t": 67875,
      "d": 375,
      "v": 75
    },
    {
      "midi": 71,
      "hit": false,
      "t": 67875,
      "d": 375,
      "v": 75
    },
    {
      "midi": 59,
      "hit": false,
      "t": 67875,
      "d": 375,
      "v": 75
    },
    {
      "midi": 62,
      "hit": false,
      "t": 67875,
      "d": 375,
      "v": 75
    },
    {
      "midi": 64,
      "hit": false,
      "t": 67875,
      "d": 375,
      "v": 75
    },
    {
      "midi": 68,
      "hit": false,
      "t": 67875,
      "d": 375,
      "v": 75
    },
    {
      "midi": 71,
      "hit": false,
      "t": 67875,
      "d": 375,
      "v": 75
    },
    {
      "midi": 59,
      "hit": false,
      "t": 67875,
      "d": 375,
      "v": 66
    },
    {
      "midi": 60,
      "hit": false,
      "t": 68250,
      "d": 750,
      "v": 66
    },
    {
      "midi": 60,
      "hit": false,
      "t": 68250,
      "d": 750,
      "v": 75
    },
    {
      "midi": 62,
      "hit": false,
      "t": 68250,
      "d": 750,
      "v": 75
    },
    {
      "midi": 64,
      "hit": false,
      "t": 68250,
      "d": 750,
      "v": 75
    },
    {
      "midi": 68,
      "hit": false,
      "t": 68250,
      "d": 750,
      "v": 75
    },
    {
      "midi": 72,
      "hit": false,
      "t": 68250,
      "d": 750,
      "v": 75
    },
    {
      "midi": 60,
      "hit": false,
      "t": 68250,
      "d": 750,
      "v": 75
    },
    {
      "midi": 62,
      "hit": false,
      "t": 68250,
      "d": 750,
      "v": 75
    },
    {
      "midi": 64,
      "hit": false,
      "t": 68250,
      "d": 750,
      "v": 75
    },
    {
      "midi": 68,
      "hit": false,
      "t": 68250,
      "d": 750,
      "v": 75
    },
    {
      "midi": 72,
      "hit": false,
      "t": 68250,
      "d": 750,
      "v": 75
    },
    {
      "midi": 60,
      "hit": false,
      "t": 68250,
      "d": 750,
      "v": 66
    },
    {
      "midi": 57,
      "hit": false,
      "t": 69000,
      "d": 375,
      "v": 66
    },
    {
      "midi": 57,
      "hit": false,
      "t": 69000,
      "d": 375,
      "v": 75
    },
    {
      "midi": 60,
      "hit": false,
      "t": 69000,
      "d": 375,
      "v": 75
    },
    {
      "midi": 62,
      "hit": false,
      "t": 69000,
      "d": 375,
      "v": 75
    },
    {
      "midi": 65,
      "hit": false,
      "t": 69000,
      "d": 375,
      "v": 75
    },
    {
      "midi": 69,
      "hit": false,
      "t": 69000,
      "d": 375,
      "v": 75
    },
    {
      "midi": 57,
      "hit": false,
      "t": 69000,
      "d": 375,
      "v": 75
    },
    {
      "midi": 60,
      "hit": false,
      "t": 69000,
      "d": 375,
      "v": 75
    },
    {
      "midi": 62,
      "hit": false,
      "t": 69000,
      "d": 375,
      "v": 75
    },
    {
      "midi": 65,
      "hit": false,
      "t": 69000,
      "d": 375,
      "v": 75
    },
    {
      "midi": 69,
      "hit": false,
      "t": 69000,
      "d": 375,
      "v": 75
    },
    {
      "midi": 57,
      "hit": false,
      "t": 69000,
      "d": 375,
      "v": 66
    },
    {
      "midi": 59,
      "hit": false,
      "t": 69375,
      "d": 375,
      "v": 66
    },
    {
      "midi": 59,
      "hit": false,
      "t": 69375,
      "d": 375,
      "v": 75
    },
    {
      "midi": 62,
      "hit": false,
      "t": 69375,
      "d": 375,
      "v": 75
    },
    {
      "midi": 65,
      "hit": false,
      "t": 69375,
      "d": 375,
      "v": 75
    },
    {
      "midi": 67,
      "hit": false,
      "t": 69375,
      "d": 375,
      "v": 75
    },
    {
      "midi": 71,
      "hit": false,
      "t": 69375,
      "d": 375,
      "v": 75
    },
    {
      "midi": 59,
      "hit": false,
      "t": 69375,
      "d": 375,
      "v": 75
    },
    {
      "midi": 62,
      "hit": false,
      "t": 69375,
      "d": 375,
      "v": 75
    },
    {
      "midi": 65,
      "hit": false,
      "t": 69375,
      "d": 375,
      "v": 75
    },
    {
      "midi": 67,
      "hit": false,
      "t": 69375,
      "d": 375,
      "v": 75
    },
    {
      "midi": 71,
      "hit": false,
      "t": 69375,
      "d": 375,
      "v": 75
    },
    {
      "midi": 59,
      "hit": false,
      "t": 69375,
      "d": 375,
      "v": 66
    },
    {
      "midi": 60,
      "hit": false,
      "t": 69750,
      "d": 1500,
      "v": 66
    },
    {
      "midi": 60,
      "hit": false,
      "t": 69750,
      "d": 1500,
      "v": 75
    },
    {
      "midi": 62,
      "hit": false,
      "t": 69750,
      "d": 1500,
      "v": 75
    },
    {
      "midi": 65,
      "hit": false,
      "t": 69750,
      "d": 1500,
      "v": 75
    },
    {
      "midi": 69,
      "hit": false,
      "t": 69750,
      "d": 1500,
      "v": 75
    },
    {
      "midi": 72,
      "hit": false,
      "t": 69750,
      "d": 1500,
      "v": 75
    },
    {
      "midi": 60,
      "hit": false,
      "t": 69750,
      "d": 1500,
      "v": 75
    },
    {
      "midi": 62,
      "hit": false,
      "t": 69750,
      "d": 1500,
      "v": 75
    },
    {
      "midi": 65,
      "hit": false,
      "t": 69750,
      "d": 1500,
      "v": 75
    },
    {
      "midi": 69,
      "hit": false,
      "t": 69750,
      "d": 1500,
      "v": 75
    },
    {
      "midi": 72,
      "hit": false,
      "t": 69750,
      "d": 1500,
      "v": 75
    },
    {
      "midi": 60,
      "hit": false,
      "t": 69750,
      "d": 1500,
      "v": 66
    },
    {
      "midi": 59,
      "hit": false,
      "t": 71250,
      "d": 750,
      "v": 66
    },
    {
      "midi": 59,
      "hit": false,
      "t": 71250,
      "d": 750,
      "v": 75
    },
    {
      "midi": 62,
      "hit": false,
      "t": 71250,
      "d": 750,
      "v": 75
    },
    {
      "midi": 65,
      "hit": false,
      "t": 71250,
      "d": 750,
      "v": 75
    },
    {
      "midi": 68,
      "hit": false,
      "t": 71250,
      "d": 750,
      "v": 75
    },
    {
      "midi": 71,
      "hit": false,
      "t": 71250,
      "d": 750,
      "v": 75
    },
    {
      "midi": 59,
      "hit": false,
      "t": 71250,
      "d": 750,
      "v": 75
    },
    {
      "midi": 62,
      "hit": false,
      "t": 71250,
      "d": 750,
      "v": 75
    },
    {
      "midi": 65,
      "hit": false,
      "t": 71250,
      "d": 750,
      "v": 75
    },
    {
      "midi": 68,
      "hit": false,
      "t": 71250,
      "d": 750,
      "v": 75
    },
    {
      "midi": 71,
      "hit": false,
      "t": 71250,
      "d": 750,
      "v": 75
    },
    {
      "midi": 59,
      "hit": false,
      "t": 71250,
      "d": 750,
      "v": 66
    },
    {
      "midi": 60,
      "hit": false,
      "t": 72000,
      "d": 750,
      "v": 66
    },
    {
      "midi": 60,
      "hit": false,
      "t": 72000,
      "d": 750,
      "v": 75
    },
    {
      "midi": 64,
      "hit": false,
      "t": 72000,
      "d": 750,
      "v": 75
    },
    {
      "midi": 67,
      "hit": false,
      "t": 72000,
      "d": 750,
      "v": 75
    },
    {
      "midi": 69,
      "hit": false,
      "t": 72000,
      "d": 750,
      "v": 75
    },
    {
      "midi": 72,
      "hit": false,
      "t": 72000,
      "d": 750,
      "v": 75
    },
    {
      "midi": 60,
      "hit": false,
      "t": 72000,
      "d": 750,
      "v": 75
    },
    {
      "midi": 64,
      "hit": false,
      "t": 72000,
      "d": 750,
      "v": 75
    },
    {
      "midi": 67,
      "hit": false,
      "t": 72000,
      "d": 750,
      "v": 75
    },
    {
      "midi": 69,
      "hit": false,
      "t": 72000,
      "d": 750,
      "v": 75
    },
    {
      "midi": 72,
      "hit": false,
      "t": 72000,
      "d": 750,
      "v": 75
    },
    {
      "midi": 60,
      "hit": false,
      "t": 72000,
      "d": 750,
      "v": 66
    },
    {
      "midi": 59,
      "hit": false,
      "t": 73500,
      "d": 375,
      "v": 66
    },
    {
      "midi": 59,
      "hit": false,
      "t": 73500,
      "d": 375,
      "v": 75
    },
    {
      "midi": 60,
      "hit": false,
      "t": 73500,
      "d": 375,
      "v": 75
    },
    {
      "midi": 63,
      "hit": false,
      "t": 73500,
      "d": 375,
      "v": 75
    },
    {
      "midi": 66,
      "hit": false,
      "t": 73500,
      "d": 375,
      "v": 75
    },
    {
      "midi": 71,
      "hit": false,
      "t": 73500,
      "d": 375,
      "v": 75
    },
    {
      "midi": 59,
      "hit": false,
      "t": 73500,
      "d": 375,
      "v": 75
    },
    {
      "midi": 60,
      "hit": false,
      "t": 73500,
      "d": 375,
      "v": 75
    },
    {
      "midi": 63,
      "hit": false,
      "t": 73500,
      "d": 375,
      "v": 75
    },
    {
      "midi": 66,
      "hit": false,
      "t": 73500,
      "d": 375,
      "v": 75
    },
    {
      "midi": 71,
      "hit": false,
      "t": 73500,
      "d": 375,
      "v": 75
    },
    {
      "midi": 59,
      "hit": false,
      "t": 73500,
      "d": 375,
      "v": 66
    },
    {
      "midi": 57,
      "hit": false,
      "t": 73875,
      "d": 375,
      "v": 66
    },
    {
      "midi": 57,
      "hit": false,
      "t": 73875,
      "d": 375,
      "v": 75
    },
    {
      "midi": 60,
      "hit": false,
      "t": 73875,
      "d": 375,
      "v": 75
    },
    {
      "midi": 63,
      "hit": false,
      "t": 73875,
      "d": 375,
      "v": 75
    },
    {
      "midi": 66,
      "hit": false,
      "t": 73875,
      "d": 375,
      "v": 75
    },
    {
      "midi": 69,
      "hit": false,
      "t": 73875,
      "d": 375,
      "v": 75
    },
    {
      "midi": 57,
      "hit": false,
      "t": 73875,
      "d": 375,
      "v": 75
    },
    {
      "midi": 60,
      "hit": false,
      "t": 73875,
      "d": 375,
      "v": 75
    },
    {
      "midi": 63,
      "hit": false,
      "t": 73875,
      "d": 375,
      "v": 75
    },
    {
      "midi": 66,
      "hit": false,
      "t": 73875,
      "d": 375,
      "v": 75
    },
    {
      "midi": 69,
      "hit": false,
      "t": 73875,
      "d": 375,
      "v": 75
    },
    {
      "midi": 57,
      "hit": false,
      "t": 73875,
      "d": 375,
      "v": 66
    },
    {
      "midi": 55,
      "hit": false,
      "t": 74250,
      "d": 375,
      "v": 66
    },
    {
      "midi": 55,
      "hit": false,
      "t": 74250,
      "d": 375,
      "v": 75
    },
    {
      "midi": 57,
      "hit": false,
      "t": 74250,
      "d": 375,
      "v": 75
    },
    {
      "midi": 60,
      "hit": false,
      "t": 74250,
      "d": 375,
      "v": 75
    },
    {
      "midi": 63,
      "hit": false,
      "t": 74250,
      "d": 375,
      "v": 75
    },
    {
      "midi": 67,
      "hit": false,
      "t": 74250,
      "d": 375,
      "v": 75
    },
    {
      "midi": 55,
      "hit": false,
      "t": 74250,
      "d": 375,
      "v": 75
    },
    {
      "midi": 57,
      "hit": false,
      "t": 74250,
      "d": 375,
      "v": 75
    },
    {
      "midi": 60,
      "hit": false,
      "t": 74250,
      "d": 375,
      "v": 75
    },
    {
      "midi": 63,
      "hit": false,
      "t": 74250,
      "d": 375,
      "v": 75
    },
    {
      "midi": 67,
      "hit": false,
      "t": 74250,
      "d": 375,
      "v": 75
    },
    {
      "midi": 55,
      "hit": false,
      "t": 74250,
      "d": 375,
      "v": 66
    },
    {
      "midi": 54,
      "hit": false,
      "t": 74625,
      "d": 375,
      "v": 66
    },
    {
      "midi": 54,
      "hit": false,
      "t": 74625,
      "d": 375,
      "v": 75
    },
    {
      "midi": 57,
      "hit": false,
      "t": 74625,
      "d": 375,
      "v": 75
    },
    {
      "midi": 60,
      "hit": false,
      "t": 74625,
      "d": 375,
      "v": 75
    },
    {
      "midi": 63,
      "hit": false,
      "t": 74625,
      "d": 375,
      "v": 75
    },
    {
      "midi": 66,
      "hit": false,
      "t": 74625,
      "d": 375,
      "v": 75
    },
    {
      "midi": 54,
      "hit": false,
      "t": 74625,
      "d": 375,
      "v": 75
    },
    {
      "midi": 57,
      "hit": false,
      "t": 74625,
      "d": 375,
      "v": 75
    },
    {
      "midi": 60,
      "hit": false,
      "t": 74625,
      "d": 375,
      "v": 75
    },
    {
      "midi": 63,
      "hit": false,
      "t": 74625,
      "d": 375,
      "v": 75
    },
    {
      "midi": 66,
      "hit": false,
      "t": 74625,
      "d": 375,
      "v": 75
    },
    {
      "midi": 54,
      "hit": false,
      "t": 74625,
      "d": 375,
      "v": 66
    },
    {
      "midi": 55,
      "hit": false,
      "t": 75000,
      "d": 750,
      "v": 66
    },
    {
      "midi": 55,
      "hit": false,
      "t": 75000,
      "d": 750,
      "v": 75
    },
    {
      "midi": 57,
      "hit": false,
      "t": 75000,
      "d": 750,
      "v": 75
    },
    {
      "midi": 60,
      "hit": false,
      "t": 75000,
      "d": 750,
      "v": 75
    },
    {
      "midi": 62,
      "hit": false,
      "t": 75000,
      "d": 750,
      "v": 75
    },
    {
      "midi": 67,
      "hit": false,
      "t": 75000,
      "d": 750,
      "v": 75
    },
    {
      "midi": 55,
      "hit": false,
      "t": 75000,
      "d": 750,
      "v": 75
    },
    {
      "midi": 57,
      "hit": false,
      "t": 75000,
      "d": 750,
      "v": 75
    },
    {
      "midi": 60,
      "hit": false,
      "t": 75000,
      "d": 750,
      "v": 75
    },
    {
      "midi": 62,
      "hit": false,
      "t": 75000,
      "d": 750,
      "v": 75
    },
    {
      "midi": 67,
      "hit": false,
      "t": 75000,
      "d": 750,
      "v": 75
    },
    {
      "midi": 55,
      "hit": false,
      "t": 75000,
      "d": 750,
      "v": 66
    },
    {
      "midi": 50,
      "hit": false,
      "t": 75750,
      "d": 1500,
      "v": 66
    },
    {
      "midi": 57,
      "hit": false,
      "t": 75750,
      "d": 750,
      "v": 75
    },
    {
      "midi": 60,
      "hit": false,
      "t": 75750,
      "d": 750,
      "v": 75
    },
    {
      "midi": 50,
      "hit": false,
      "t": 75750,
      "d": 1500,
      "v": 75
    },
    {
      "midi": 53,
      "hit": false,
      "t": 75750,
      "d": 1500,
      "v": 75
    },
    {
      "midi": 62,
      "hit": false,
      "t": 75750,
      "d": 1500,
      "v": 75
    },
    {
      "midi": 57,
      "hit": false,
      "t": 75750,
      "d": 750,
      "v": 75
    },
    {
      "midi": 60,
      "hit": false,
      "t": 75750,
      "d": 750,
      "v": 75
    },
    {
      "midi": 50,
      "hit": false,
      "t": 75750,
      "d": 1500,
      "v": 75
    },
    {
      "midi": 53,
      "hit": false,
      "t": 75750,
      "d": 1500,
      "v": 75
    },
    {
      "midi": 62,
      "hit": false,
      "t": 75750,
      "d": 1500,
      "v": 75
    },
    {
      "midi": 50,
      "hit": false,
      "t": 75750,
      "d": 1500,
      "v": 66
    },
    {
      "midi": 55,
      "hit": false,
      "t": 76500,
      "d": 750,
      "v": 75
    },
    {
      "midi": 59,
      "hit": false,
      "t": 76500,
      "d": 750,
      "v": 75
    },
    {
      "midi": 55,
      "hit": false,
      "t": 76500,
      "d": 750,
      "v": 75
    },
    {
      "midi": 59,
      "hit": false,
      "t": 76500,
      "d": 750,
      "v": 75
    },
    {
      "midi": 52,
      "hit": false,
      "t": 77250,
      "d": 750,
      "v": 66
    },
    {
      "midi": 52,
      "hit": false,
      "t": 77250,
      "d": 750,
      "v": 75
    },
    {
      "midi": 55,
      "hit": false,
      "t": 77250,
      "d": 750,
      "v": 75
    },
    {
      "midi": 58,
      "hit": false,
      "t": 77250,
      "d": 750,
      "v": 75
    },
    {
      "midi": 61,
      "hit": false,
      "t": 77250,
      "d": 750,
      "v": 75
    },
    {
      "midi": 64,
      "hit": false,
      "t": 77250,
      "d": 750,
      "v": 75
    },
    {
      "midi": 52,
      "hit": false,
      "t": 77250,
      "d": 750,
      "v": 75
    },
    {
      "midi": 55,
      "hit": false,
      "t": 77250,
      "d": 750,
      "v": 75
    },
    {
      "midi": 58,
      "hit": false,
      "t": 77250,
      "d": 750,
      "v": 75
    },
    {
      "midi": 61,
      "hit": false,
      "t": 77250,
      "d": 750,
      "v": 75
    },
    {
      "midi": 64,
      "hit": false,
      "t": 77250,
      "d": 750,
      "v": 75
    },
    {
      "midi": 52,
      "hit": false,
      "t": 77250,
      "d": 750,
      "v": 66
    },
    {
      "midi": 53,
      "hit": false,
      "t": 78000,
      "d": 4500,
      "v": 66
    },
    {
      "midi": 53,
      "hit": false,
      "t": 78000,
      "d": 1500,
      "v": 75
    },
    {
      "midi": 57,
      "hit": false,
      "t": 78000,
      "d": 1500,
      "v": 75
    },
    {
      "midi": 60,
      "hit": false,
      "t": 78000,
      "d": 1500,
      "v": 75
    },
    {
      "midi": 62,
      "hit": false,
      "t": 78000,
      "d": 1500,
      "v": 75
    },
    {
      "midi": 65,
      "hit": false,
      "t": 78000,
      "d": 1500,
      "v": 75
    },
    {
      "midi": 53,
      "hit": false,
      "t": 78000,
      "d": 1500,
      "v": 75
    },
    {
      "midi": 57,
      "hit": false,
      "t": 78000,
      "d": 1500,
      "v": 75
    },
    {
      "midi": 60,
      "hit": false,
      "t": 78000,
      "d": 1500,
      "v": 75
    },
    {
      "midi": 62,
      "hit": false,
      "t": 78000,
      "d": 1500,
      "v": 75
    },
    {
      "midi": 65,
      "hit": false,
      "t": 78000,
      "d": 1500,
      "v": 75
    },
    {
      "midi": 53,
      "hit": false,
      "t": 78000,
      "d": 4500,
      "v": 66
    },
    {
      "midi": 64,
      "hit": false,
      "t": 79500,
      "d": 375,
      "v": 75
    },
    {
      "midi": 65,
      "hit": false,
      "t": 79500,
      "d": 375,
      "v": 75
    },
    {
      "midi": 69,
      "hit": false,
      "t": 79500,
      "d": 375,
      "v": 75
    },
    {
      "midi": 72,
      "hit": false,
      "t": 79500,
      "d": 375,
      "v": 75
    },
    {
      "midi": 76,
      "hit": false,
      "t": 79500,
      "d": 375,
      "v": 75
    },
    {
      "midi": 64,
      "hit": false,
      "t": 79500,
      "d": 375,
      "v": 75
    },
    {
      "midi": 65,
      "hit": false,
      "t": 79500,
      "d": 375,
      "v": 75
    },
    {
      "midi": 69,
      "hit": false,
      "t": 79500,
      "d": 375,
      "v": 75
    },
    {
      "midi": 72,
      "hit": false,
      "t": 79500,
      "d": 375,
      "v": 75
    },
    {
      "midi": 76,
      "hit": false,
      "t": 79500,
      "d": 375,
      "v": 75
    },
    {
      "midi": 62,
      "hit": false,
      "t": 79875,
      "d": 375,
      "v": 75
    },
    {
      "midi": 65,
      "hit": false,
      "t": 79875,
      "d": 375,
      "v": 75
    },
    {
      "midi": 69,
      "hit": false,
      "t": 79875,
      "d": 375,
      "v": 75
    },
    {
      "midi": 72,
      "hit": false,
      "t": 79875,
      "d": 375,
      "v": 75
    },
    {
      "midi": 74,
      "hit": false,
      "t": 79875,
      "d": 375,
      "v": 75
    },
    {
      "midi": 62,
      "hit": false,
      "t": 79875,
      "d": 375,
      "v": 75
    },
    {
      "midi": 65,
      "hit": false,
      "t": 79875,
      "d": 375,
      "v": 75
    },
    {
      "midi": 69,
      "hit": false,
      "t": 79875,
      "d": 375,
      "v": 75
    },
    {
      "midi": 72,
      "hit": false,
      "t": 79875,
      "d": 375,
      "v": 75
    },
    {
      "midi": 74,
      "hit": false,
      "t": 79875,
      "d": 375,
      "v": 75
    },
    {
      "midi": 60,
      "hit": false,
      "t": 80250,
      "d": 375,
      "v": 75
    },
    {
      "midi": 62,
      "hit": false,
      "t": 80250,
      "d": 375,
      "v": 75
    },
    {
      "midi": 65,
      "hit": false,
      "t": 80250,
      "d": 375,
      "v": 75
    },
    {
      "midi": 69,
      "hit": false,
      "t": 80250,
      "d": 375,
      "v": 75
    },
    {
      "midi": 72,
      "hit": false,
      "t": 80250,
      "d": 375,
      "v": 75
    },
    {
      "midi": 60,
      "hit": false,
      "t": 80250,
      "d": 375,
      "v": 75
    },
    {
      "midi": 62,
      "hit": false,
      "t": 80250,
      "d": 375,
      "v": 75
    },
    {
      "midi": 65,
      "hit": false,
      "t": 80250,
      "d": 375,
      "v": 75
    },
    {
      "midi": 69,
      "hit": false,
      "t": 80250,
      "d": 375,
      "v": 75
    },
    {
      "midi": 72,
      "hit": false,
      "t": 80250,
      "d": 375,
      "v": 75
    },
    {
      "midi": 57,
      "hit": false,
      "t": 80625,
      "d": 375,
      "v": 75
    },
    {
      "midi": 60,
      "hit": false,
      "t": 80625,
      "d": 375,
      "v": 75
    },
    {
      "midi": 62,
      "hit": false,
      "t": 80625,
      "d": 375,
      "v": 75
    },
    {
      "midi": 65,
      "hit": false,
      "t": 80625,
      "d": 375,
      "v": 75
    },
    {
      "midi": 69,
      "hit": false,
      "t": 80625,
      "d": 375,
      "v": 75
    },
    {
      "midi": 57,
      "hit": false,
      "t": 80625,
      "d": 375,
      "v": 75
    },
    {
      "midi": 60,
      "hit": false,
      "t": 80625,
      "d": 375,
      "v": 75
    },
    {
      "midi": 62,
      "hit": false,
      "t": 80625,
      "d": 375,
      "v": 75
    },
    {
      "midi": 65,
      "hit": false,
      "t": 80625,
      "d": 375,
      "v": 75
    },
    {
      "midi": 69,
      "hit": false,
      "t": 80625,
      "d": 375,
      "v": 75
    },
    {
      "midi": 53,
      "hit": false,
      "t": 81000,
      "d": 375,
      "v": 75
    },
    {
      "midi": 57,
      "hit": false,
      "t": 81000,
      "d": 375,
      "v": 75
    },
    {
      "midi": 60,
      "hit": false,
      "t": 81000,
      "d": 375,
      "v": 75
    },
    {
      "midi": 62,
      "hit": false,
      "t": 81000,
      "d": 375,
      "v": 75
    },
    {
      "midi": 65,
      "hit": false,
      "t": 81000,
      "d": 375,
      "v": 75
    },
    {
      "midi": 53,
      "hit": false,
      "t": 81000,
      "d": 375,
      "v": 75
    },
    {
      "midi": 57,
      "hit": false,
      "t": 81000,
      "d": 375,
      "v": 75
    },
    {
      "midi": 60,
      "hit": false,
      "t": 81000,
      "d": 375,
      "v": 75
    },
    {
      "midi": 62,
      "hit": false,
      "t": 81000,
      "d": 375,
      "v": 75
    },
    {
      "midi": 65,
      "hit": false,
      "t": 81000,
      "d": 375,
      "v": 75
    },
    {
      "midi": 60,
      "hit": false,
      "t": 81375,
      "d": 375,
      "v": 75
    },
    {
      "midi": 62,
      "hit": false,
      "t": 81375,
      "d": 375,
      "v": 75
    },
    {
      "midi": 65,
      "hit": false,
      "t": 81375,
      "d": 375,
      "v": 75
    },
    {
      "midi": 69,
      "hit": false,
      "t": 81375,
      "d": 375,
      "v": 75
    },
    {
      "midi": 72,
      "hit": false,
      "t": 81375,
      "d": 375,
      "v": 75
    },
    {
      "midi": 60,
      "hit": false,
      "t": 81375,
      "d": 375,
      "v": 75
    },
    {
      "midi": 62,
      "hit": false,
      "t": 81375,
      "d": 375,
      "v": 75
    },
    {
      "midi": 65,
      "hit": false,
      "t": 81375,
      "d": 375,
      "v": 75
    },
    {
      "midi": 69,
      "hit": false,
      "t": 81375,
      "d": 375,
      "v": 75
    },
    {
      "midi": 72,
      "hit": false,
      "t": 81375,
      "d": 375,
      "v": 75
    },
    {
      "midi": 57,
      "hit": false,
      "t": 81750,
      "d": 375,
      "v": 75
    },
    {
      "midi": 60,
      "hit": false,
      "t": 81750,
      "d": 375,
      "v": 75
    },
    {
      "midi": 62,
      "hit": false,
      "t": 81750,
      "d": 375,
      "v": 75
    },
    {
      "midi": 65,
      "hit": false,
      "t": 81750,
      "d": 375,
      "v": 75
    },
    {
      "midi": 69,
      "hit": false,
      "t": 81750,
      "d": 375,
      "v": 75
    },
    {
      "midi": 57,
      "hit": false,
      "t": 81750,
      "d": 375,
      "v": 75
    },
    {
      "midi": 60,
      "hit": false,
      "t": 81750,
      "d": 375,
      "v": 75
    },
    {
      "midi": 62,
      "hit": false,
      "t": 81750,
      "d": 375,
      "v": 75
    },
    {
      "midi": 65,
      "hit": false,
      "t": 81750,
      "d": 375,
      "v": 75
    },
    {
      "midi": 69,
      "hit": false,
      "t": 81750,
      "d": 375,
      "v": 75
    },
    {
      "midi": 53,
      "hit": false,
      "t": 82125,
      "d": 375,
      "v": 75
    },
    {
      "midi": 57,
      "hit": false,
      "t": 82125,
      "d": 375,
      "v": 75
    },
    {
      "midi": 60,
      "hit": false,
      "t": 82125,
      "d": 375,
      "v": 75
    },
    {
      "midi": 62,
      "hit": false,
      "t": 82125,
      "d": 375,
      "v": 75
    },
    {
      "midi": 65,
      "hit": false,
      "t": 82125,
      "d": 375,
      "v": 75
    },
    {
      "midi": 53,
      "hit": false,
      "t": 82125,
      "d": 375,
      "v": 75
    },
    {
      "midi": 57,
      "hit": false,
      "t": 82125,
      "d": 375,
      "v": 75
    },
    {
      "midi": 60,
      "hit": false,
      "t": 82125,
      "d": 375,
      "v": 75
    },
    {
      "midi": 62,
      "hit": false,
      "t": 82125,
      "d": 375,
      "v": 75
    },
    {
      "midi": 65,
      "hit": false,
      "t": 82125,
      "d": 375,
      "v": 75
    },
    {
      "midi": 43,
      "hit": false,
      "t": 82500,
      "d": 750,
      "v": 75
    },
    {
      "midi": 53,
      "hit": false,
      "t": 82500,
      "d": 750,
      "v": 75
    },
    {
      "midi": 55,
      "hit": false,
      "t": 82500,
      "d": 750,
      "v": 75
    },
    {
      "midi": 59,
      "hit": false,
      "t": 82500,
      "d": 750,
      "v": 75
    },
    {
      "midi": 64,
      "hit": false,
      "t": 82500,
      "d": 750,
      "v": 75
    },
    {
      "midi": 43,
      "hit": false,
      "t": 82500,
      "d": 750,
      "v": 75
    },
    {
      "midi": 53,
      "hit": false,
      "t": 82500,
      "d": 750,
      "v": 75
    },
    {
      "midi": 55,
      "hit": false,
      "t": 82500,
      "d": 750,
      "v": 75
    },
    {
      "midi": 59,
      "hit": false,
      "t": 82500,
      "d": 750,
      "v": 75
    },
    {
      "midi": 64,
      "hit": false,
      "t": 82500,
      "d": 750,
      "v": 75
    },
    {
      "midi": 55,
      "hit": false,
      "t": 83250,
      "d": 750,
      "v": 66
    },
    {
      "midi": 43,
      "hit": false,
      "t": 83250,
      "d": 750,
      "v": 75
    },
    {
      "midi": 53,
      "hit": false,
      "t": 83250,
      "d": 750,
      "v": 75
    },
    {
      "midi": 55,
      "hit": false,
      "t": 83250,
      "d": 750,
      "v": 75
    },
    {
      "midi": 63,
      "hit": false,
      "t": 83250,
      "d": 750,
      "v": 75
    },
    {
      "midi": 67,
      "hit": false,
      "t": 83250,
      "d": 750,
      "v": 75
    },
    {
      "midi": 43,
      "hit": false,
      "t": 83250,
      "d": 750,
      "v": 75
    },
    {
      "midi": 53,
      "hit": false,
      "t": 83250,
      "d": 750,
      "v": 75
    },
    {
      "midi": 55,
      "hit": false,
      "t": 83250,
      "d": 750,
      "v": 75
    },
    {
      "midi": 63,
      "hit": false,
      "t": 83250,
      "d": 750,
      "v": 75
    },
    {
      "midi": 67,
      "hit": false,
      "t": 83250,
      "d": 750,
      "v": 75
    },
    {
      "midi": 55,
      "hit": false,
      "t": 83250,
      "d": 750,
      "v": 66
    },
    {
      "midi": 52,
      "hit": false,
      "t": 84000,
      "d": 375,
      "v": 66
    },
    {
      "midi": 52,
      "hit": false,
      "t": 84000,
      "d": 375,
      "v": 75
    },
    {
      "midi": 55,
      "hit": false,
      "t": 84000,
      "d": 375,
      "v": 75
    },
    {
      "midi": 57,
      "hit": false,
      "t": 84000,
      "d": 375,
      "v": 75
    },
    {
      "midi": 60,
      "hit": false,
      "t": 84000,
      "d": 375,
      "v": 75
    },
    {
      "midi": 64,
      "hit": false,
      "t": 84000,
      "d": 375,
      "v": 75
    },
    {
      "midi": 52,
      "hit": false,
      "t": 84000,
      "d": 375,
      "v": 75
    },
    {
      "midi": 55,
      "hit": false,
      "t": 84000,
      "d": 375,
      "v": 75
    },
    {
      "midi": 57,
      "hit": false,
      "t": 84000,
      "d": 375,
      "v": 75
    },
    {
      "midi": 60,
      "hit": false,
      "t": 84000,
      "d": 375,
      "v": 75
    },
    {
      "midi": 64,
      "hit": false,
      "t": 84000,
      "d": 375,
      "v": 75
    },
    {
      "midi": 52,
      "hit": false,
      "t": 84000,
      "d": 375,
      "v": 66
    },
    {
      "midi": 59,
      "hit": false,
      "t": 84375,
      "d": 375,
      "v": 66
    },
    {
      "midi": 59,
      "hit": false,
      "t": 84375,
      "d": 375,
      "v": 75
    },
    {
      "midi": 62,
      "hit": false,
      "t": 84375,
      "d": 375,
      "v": 75
    },
    {
      "midi": 64,
      "hit": false,
      "t": 84375,
      "d": 375,
      "v": 75
    },
    {
      "midi": 67,
      "hit": false,
      "t": 84375,
      "d": 375,
      "v": 75
    },
    {
      "midi": 71,
      "hit": false,
      "t": 84375,
      "d": 375,
      "v": 75
    },
    {
      "midi": 59,
      "hit": false,
      "t": 84375,
      "d": 375,
      "v": 75
    },
    {
      "midi": 62,
      "hit": false,
      "t": 84375,
      "d": 375,
      "v": 75
    },
    {
      "midi": 64,
      "hit": false,
      "t": 84375,
      "d": 375,
      "v": 75
    },
    {
      "midi": 67,
      "hit": false,
      "t": 84375,
      "d": 375,
      "v": 75
    },
    {
      "midi": 71,
      "hit": false,
      "t": 84375,
      "d": 375,
      "v": 75
    },
    {
      "midi": 59,
      "hit": false,
      "t": 84375,
      "d": 375,
      "v": 66
    },
    {
      "midi": 60,
      "hit": false,
      "t": 84750,
      "d": 1500,
      "v": 66
    },
    {
      "midi": 60,
      "hit": false,
      "t": 84750,
      "d": 1500,
      "v": 75
    },
    {
      "midi": 64,
      "hit": false,
      "t": 84750,
      "d": 1500,
      "v": 75
    },
    {
      "midi": 67,
      "hit": false,
      "t": 84750,
      "d": 1500,
      "v": 75
    },
    {
      "midi": 69,
      "hit": false,
      "t": 84750,
      "d": 1500,
      "v": 75
    },
    {
      "midi": 72,
      "hit": false,
      "t": 84750,
      "d": 1500,
      "v": 75
    },
    {
      "midi": 60,
      "hit": false,
      "t": 84750,
      "d": 1500,
      "v": 75
    },
    {
      "midi": 64,
      "hit": false,
      "t": 84750,
      "d": 1500,
      "v": 75
    },
    {
      "midi": 67,
      "hit": false,
      "t": 84750,
      "d": 1500,
      "v": 75
    },
    {
      "midi": 69,
      "hit": false,
      "t": 84750,
      "d": 1500,
      "v": 75
    },
    {
      "midi": 72,
      "hit": false,
      "t": 84750,
      "d": 1500,
      "v": 75
    },
    {
      "midi": 60,
      "hit": false,
      "t": 84750,
      "d": 1500,
      "v": 66
    },
    {
      "midi": 52,
      "hit": false,
      "t": 86250,
      "d": 750,
      "v": 66
    },
    {
      "midi": 52,
      "hit": false,
      "t": 86250,
      "d": 750,
      "v": 75
    },
    {
      "midi": 55,
      "hit": false,
      "t": 86250,
      "d": 750,
      "v": 75
    },
    {
      "midi": 57,
      "hit": false,
      "t": 86250,
      "d": 750,
      "v": 75
    },
    {
      "midi": 60,
      "hit": false,
      "t": 86250,
      "d": 750,
      "v": 75
    },
    {
      "midi": 64,
      "hit": false,
      "t": 86250,
      "d": 750,
      "v": 75
    },
    {
      "midi": 52,
      "hit": false,
      "t": 86250,
      "d": 750,
      "v": 75
    },
    {
      "midi": 55,
      "hit": false,
      "t": 86250,
      "d": 750,
      "v": 75
    },
    {
      "midi": 57,
      "hit": false,
      "t": 86250,
      "d": 750,
      "v": 75
    },
    {
      "midi": 60,
      "hit": false,
      "t": 86250,
      "d": 750,
      "v": 75
    },
    {
      "midi": 64,
      "hit": false,
      "t": 86250,
      "d": 750,
      "v": 75
    },
    {
      "midi": 52,
      "hit": false,
      "t": 86250,
      "d": 750,
      "v": 66
    },
    {
      "midi": 53,
      "hit": false,
      "t": 87000,
      "d": 375,
      "v": 66
    },
    {
      "midi": 53,
      "hit": false,
      "t": 87000,
      "d": 375,
      "v": 75
    },
    {
      "midi": 57,
      "hit": false,
      "t": 87000,
      "d": 375,
      "v": 75
    },
    {
      "midi": 60,
      "hit": false,
      "t": 87000,
      "d": 375,
      "v": 75
    },
    {
      "midi": 62,
      "hit": false,
      "t": 87000,
      "d": 375,
      "v": 75
    },
    {
      "midi": 65,
      "hit": false,
      "t": 87000,
      "d": 375,
      "v": 75
    },
    {
      "midi": 53,
      "hit": false,
      "t": 87000,
      "d": 375,
      "v": 75
    },
    {
      "midi": 57,
      "hit": false,
      "t": 87000,
      "d": 375,
      "v": 75
    },
    {
      "midi": 60,
      "hit": false,
      "t": 87000,
      "d": 375,
      "v": 75
    },
    {
      "midi": 62,
      "hit": false,
      "t": 87000,
      "d": 375,
      "v": 75
    },
    {
      "midi": 65,
      "hit": false,
      "t": 87000,
      "d": 375,
      "v": 75
    },
    {
      "midi": 53,
      "hit": false,
      "t": 87000,
      "d": 375,
      "v": 66
    },
    {
      "midi": 59,
      "hit": false,
      "t": 87375,
      "d": 375,
      "v": 66
    },
    {
      "midi": 59,
      "hit": false,
      "t": 87375,
      "d": 375,
      "v": 75
    },
    {
      "midi": 62,
      "hit": false,
      "t": 87375,
      "d": 375,
      "v": 75
    },
    {
      "midi": 65,
      "hit": false,
      "t": 87375,
      "d": 375,
      "v": 75
    },
    {
      "midi": 68,
      "hit": false,
      "t": 87375,
      "d": 375,
      "v": 75
    },
    {
      "midi": 71,
      "hit": false,
      "t": 87375,
      "d": 375,
      "v": 75
    },
    {
      "midi": 59,
      "hit": false,
      "t": 87375,
      "d": 375,
      "v": 75
    },
    {
      "midi": 62,
      "hit": false,
      "t": 87375,
      "d": 375,
      "v": 75
    },
    {
      "midi": 65,
      "hit": false,
      "t": 87375,
      "d": 375,
      "v": 75
    },
    {
      "midi": 68,
      "hit": false,
      "t": 87375,
      "d": 375,
      "v": 75
    },
    {
      "midi": 71,
      "hit": false,
      "t": 87375,
      "d": 375,
      "v": 75
    },
    {
      "midi": 59,
      "hit": false,
      "t": 87375,
      "d": 375,
      "v": 66
    },
    {
      "midi": 60,
      "hit": false,
      "t": 87750,
      "d": 1500,
      "v": 66
    },
    {
      "midi": 60,
      "hit": false,
      "t": 87750,
      "d": 1500,
      "v": 75
    },
    {
      "midi": 62,
      "hit": false,
      "t": 87750,
      "d": 1500,
      "v": 75
    },
    {
      "midi": 65,
      "hit": false,
      "t": 87750,
      "d": 1500,
      "v": 75
    },
    {
      "midi": 69,
      "hit": false,
      "t": 87750,
      "d": 1500,
      "v": 75
    },
    {
      "midi": 72,
      "hit": false,
      "t": 87750,
      "d": 1500,
      "v": 75
    },
    {
      "midi": 60,
      "hit": false,
      "t": 87750,
      "d": 1500,
      "v": 75
    },
    {
      "midi": 62,
      "hit": false,
      "t": 87750,
      "d": 1500,
      "v": 75
    },
    {
      "midi": 65,
      "hit": false,
      "t": 87750,
      "d": 1500,
      "v": 75
    },
    {
      "midi": 69,
      "hit": false,
      "t": 87750,
      "d": 1500,
      "v": 75
    },
    {
      "midi": 72,
      "hit": false,
      "t": 87750,
      "d": 1500,
      "v": 75
    },
    {
      "midi": 60,
      "hit": false,
      "t": 87750,
      "d": 1500,
      "v": 66
    },
    {
      "midi": 53,
      "hit": false,
      "t": 89250,
      "d": 750,
      "v": 66
    },
    {
      "midi": 53,
      "hit": false,
      "t": 89250,
      "d": 750,
      "v": 75
    },
    {
      "midi": 57,
      "hit": false,
      "t": 89250,
      "d": 750,
      "v": 75
    },
    {
      "midi": 60,
      "hit": false,
      "t": 89250,
      "d": 750,
      "v": 75
    },
    {
      "midi": 62,
      "hit": false,
      "t": 89250,
      "d": 750,
      "v": 75
    },
    {
      "midi": 65,
      "hit": false,
      "t": 89250,
      "d": 750,
      "v": 75
    },
    {
      "midi": 53,
      "hit": false,
      "t": 89250,
      "d": 750,
      "v": 75
    },
    {
      "midi": 57,
      "hit": false,
      "t": 89250,
      "d": 750,
      "v": 75
    },
    {
      "midi": 60,
      "hit": false,
      "t": 89250,
      "d": 750,
      "v": 75
    },
    {
      "midi": 62,
      "hit": false,
      "t": 89250,
      "d": 750,
      "v": 75
    },
    {
      "midi": 65,
      "hit": false,
      "t": 89250,
      "d": 750,
      "v": 75
    },
    {
      "midi": 53,
      "hit": false,
      "t": 89250,
      "d": 750,
      "v": 66
    },
    {
      "midi": 55,
      "hit": false,
      "t": 90000,
      "d": 375,
      "v": 66
    },
    {
      "midi": 55,
      "hit": false,
      "t": 90000,
      "d": 375,
      "v": 75
    },
    {
      "midi": 59,
      "hit": false,
      "t": 90000,
      "d": 375,
      "v": 75
    },
    {
      "midi": 62,
      "hit": false,
      "t": 90000,
      "d": 375,
      "v": 75
    },
    {
      "midi": 64,
      "hit": false,
      "t": 90000,
      "d": 375,
      "v": 75
    },
    {
      "midi": 67,
      "hit": false,
      "t": 90000,
      "d": 375,
      "v": 75
    },
    {
      "midi": 55,
      "hit": false,
      "t": 90000,
      "d": 375,
      "v": 75
    },
    {
      "midi": 59,
      "hit": false,
      "t": 90000,
      "d": 375,
      "v": 75
    },
    {
      "midi": 62,
      "hit": false,
      "t": 90000,
      "d": 375,
      "v": 75
    },
    {
      "midi": 64,
      "hit": false,
      "t": 90000,
      "d": 375,
      "v": 75
    },
    {
      "midi": 67,
      "hit": false,
      "t": 90000,
      "d": 375,
      "v": 75
    },
    {
      "midi": 55,
      "hit": false,
      "t": 90000,
      "d": 375,
      "v": 66
    },
    {
      "midi": 59,
      "hit": false,
      "t": 90375,
      "d": 375,
      "v": 66
    },
    {
      "midi": 59,
      "hit": false,
      "t": 90375,
      "d": 375,
      "v": 75
    },
    {
      "midi": 62,
      "hit": false,
      "t": 90375,
      "d": 375,
      "v": 75
    },
    {
      "midi": 64,
      "hit": false,
      "t": 90375,
      "d": 375,
      "v": 75
    },
    {
      "midi": 67,
      "hit": false,
      "t": 90375,
      "d": 375,
      "v": 75
    },
    {
      "midi": 71,
      "hit": false,
      "t": 90375,
      "d": 375,
      "v": 75
    },
    {
      "midi": 59,
      "hit": false,
      "t": 90375,
      "d": 375,
      "v": 75
    },
    {
      "midi": 62,
      "hit": false,
      "t": 90375,
      "d": 375,
      "v": 75
    },
    {
      "midi": 64,
      "hit": false,
      "t": 90375,
      "d": 375,
      "v": 75
    },
    {
      "midi": 67,
      "hit": false,
      "t": 90375,
      "d": 375,
      "v": 75
    },
    {
      "midi": 71,
      "hit": false,
      "t": 90375,
      "d": 375,
      "v": 75
    },
    {
      "midi": 59,
      "hit": false,
      "t": 90375,
      "d": 375,
      "v": 66
    },
    {
      "midi": 60,
      "hit": false,
      "t": 90750,
      "d": 750,
      "v": 66
    },
    {
      "midi": 60,
      "hit": false,
      "t": 90750,
      "d": 750,
      "v": 75
    },
    {
      "midi": 64,
      "hit": false,
      "t": 90750,
      "d": 750,
      "v": 75
    },
    {
      "midi": 67,
      "hit": false,
      "t": 90750,
      "d": 750,
      "v": 75
    },
    {
      "midi": 69,
      "hit": false,
      "t": 90750,
      "d": 750,
      "v": 75
    },
    {
      "midi": 72,
      "hit": false,
      "t": 90750,
      "d": 750,
      "v": 75
    },
    {
      "midi": 60,
      "hit": false,
      "t": 90750,
      "d": 750,
      "v": 75
    },
    {
      "midi": 64,
      "hit": false,
      "t": 90750,
      "d": 750,
      "v": 75
    },
    {
      "midi": 67,
      "hit": false,
      "t": 90750,
      "d": 750,
      "v": 75
    },
    {
      "midi": 69,
      "hit": false,
      "t": 90750,
      "d": 750,
      "v": 75
    },
    {
      "midi": 72,
      "hit": false,
      "t": 90750,
      "d": 750,
      "v": 75
    },
    {
      "midi": 60,
      "hit": false,
      "t": 90750,
      "d": 750,
      "v": 66
    },
    {
      "midi": 56,
      "hit": false,
      "t": 91500,
      "d": 375,
      "v": 66
    },
    {
      "midi": 56,
      "hit": false,
      "t": 91500,
      "d": 375,
      "v": 75
    },
    {
      "midi": 59,
      "hit": false,
      "t": 91500,
      "d": 375,
      "v": 75
    },
    {
      "midi": 62,
      "hit": false,
      "t": 91500,
      "d": 375,
      "v": 75
    },
    {
      "midi": 64,
      "hit": false,
      "t": 91500,
      "d": 375,
      "v": 75
    },
    {
      "midi": 68,
      "hit": false,
      "t": 91500,
      "d": 375,
      "v": 75
    },
    {
      "midi": 56,
      "hit": false,
      "t": 91500,
      "d": 375,
      "v": 75
    },
    {
      "midi": 59,
      "hit": false,
      "t": 91500,
      "d": 375,
      "v": 75
    },
    {
      "midi": 62,
      "hit": false,
      "t": 91500,
      "d": 375,
      "v": 75
    },
    {
      "midi": 64,
      "hit": false,
      "t": 91500,
      "d": 375,
      "v": 75
    },
    {
      "midi": 68,
      "hit": false,
      "t": 91500,
      "d": 375,
      "v": 75
    },
    {
      "midi": 56,
      "hit": false,
      "t": 91500,
      "d": 375,
      "v": 66
    },
    {
      "midi": 59,
      "hit": false,
      "t": 91875,
      "d": 375,
      "v": 66
    },
    {
      "midi": 59,
      "hit": false,
      "t": 91875,
      "d": 375,
      "v": 75
    },
    {
      "midi": 62,
      "hit": false,
      "t": 91875,
      "d": 375,
      "v": 75
    },
    {
      "midi": 64,
      "hit": false,
      "t": 91875,
      "d": 375,
      "v": 75
    },
    {
      "midi": 68,
      "hit": false,
      "t": 91875,
      "d": 375,
      "v": 75
    },
    {
      "midi": 71,
      "hit": false,
      "t": 91875,
      "d": 375,
      "v": 75
    },
    {
      "midi": 59,
      "hit": false,
      "t": 91875,
      "d": 375,
      "v": 75
    },
    {
      "midi": 62,
      "hit": false,
      "t": 91875,
      "d": 375,
      "v": 75
    },
    {
      "midi": 64,
      "hit": false,
      "t": 91875,
      "d": 375,
      "v": 75
    },
    {
      "midi": 68,
      "hit": false,
      "t": 91875,
      "d": 375,
      "v": 75
    },
    {
      "midi": 71,
      "hit": false,
      "t": 91875,
      "d": 375,
      "v": 75
    },
    {
      "midi": 59,
      "hit": false,
      "t": 91875,
      "d": 375,
      "v": 66
    },
    {
      "midi": 60,
      "hit": false,
      "t": 92250,
      "d": 750,
      "v": 66
    },
    {
      "midi": 60,
      "hit": false,
      "t": 92250,
      "d": 750,
      "v": 75
    },
    {
      "midi": 62,
      "hit": false,
      "t": 92250,
      "d": 750,
      "v": 75
    },
    {
      "midi": 64,
      "hit": false,
      "t": 92250,
      "d": 750,
      "v": 75
    },
    {
      "midi": 68,
      "hit": false,
      "t": 92250,
      "d": 750,
      "v": 75
    },
    {
      "midi": 72,
      "hit": false,
      "t": 92250,
      "d": 750,
      "v": 75
    },
    {
      "midi": 60,
      "hit": false,
      "t": 92250,
      "d": 750,
      "v": 75
    },
    {
      "midi": 62,
      "hit": false,
      "t": 92250,
      "d": 750,
      "v": 75
    },
    {
      "midi": 64,
      "hit": false,
      "t": 92250,
      "d": 750,
      "v": 75
    },
    {
      "midi": 68,
      "hit": false,
      "t": 92250,
      "d": 750,
      "v": 75
    },
    {
      "midi": 72,
      "hit": false,
      "t": 92250,
      "d": 750,
      "v": 75
    },
    {
      "midi": 60,
      "hit": false,
      "t": 92250,
      "d": 750,
      "v": 66
    },
    {
      "midi": 57,
      "hit": false,
      "t": 93000,
      "d": 375,
      "v": 66
    },
    {
      "midi": 57,
      "hit": false,
      "t": 93000,
      "d": 375,
      "v": 75
    },
    {
      "midi": 60,
      "hit": false,
      "t": 93000,
      "d": 375,
      "v": 75
    },
    {
      "midi": 62,
      "hit": false,
      "t": 93000,
      "d": 375,
      "v": 75
    },
    {
      "midi": 65,
      "hit": false,
      "t": 93000,
      "d": 375,
      "v": 75
    },
    {
      "midi": 69,
      "hit": false,
      "t": 93000,
      "d": 375,
      "v": 75
    },
    {
      "midi": 57,
      "hit": false,
      "t": 93000,
      "d": 375,
      "v": 75
    },
    {
      "midi": 60,
      "hit": false,
      "t": 93000,
      "d": 375,
      "v": 75
    },
    {
      "midi": 62,
      "hit": false,
      "t": 93000,
      "d": 375,
      "v": 75
    },
    {
      "midi": 65,
      "hit": false,
      "t": 93000,
      "d": 375,
      "v": 75
    },
    {
      "midi": 69,
      "hit": false,
      "t": 93000,
      "d": 375,
      "v": 75
    },
    {
      "midi": 57,
      "hit": false,
      "t": 93000,
      "d": 375,
      "v": 66
    },
    {
      "midi": 59,
      "hit": false,
      "t": 93375,
      "d": 375,
      "v": 66
    },
    {
      "midi": 59,
      "hit": false,
      "t": 93375,
      "d": 375,
      "v": 75
    },
    {
      "midi": 62,
      "hit": false,
      "t": 93375,
      "d": 375,
      "v": 75
    },
    {
      "midi": 65,
      "hit": false,
      "t": 93375,
      "d": 375,
      "v": 75
    },
    {
      "midi": 67,
      "hit": false,
      "t": 93375,
      "d": 375,
      "v": 75
    },
    {
      "midi": 71,
      "hit": false,
      "t": 93375,
      "d": 375,
      "v": 75
    },
    {
      "midi": 59,
      "hit": false,
      "t": 93375,
      "d": 375,
      "v": 75
    },
    {
      "midi": 62,
      "hit": false,
      "t": 93375,
      "d": 375,
      "v": 75
    },
    {
      "midi": 65,
      "hit": false,
      "t": 93375,
      "d": 375,
      "v": 75
    },
    {
      "midi": 67,
      "hit": false,
      "t": 93375,
      "d": 375,
      "v": 75
    },
    {
      "midi": 71,
      "hit": false,
      "t": 93375,
      "d": 375,
      "v": 75
    },
    {
      "midi": 59,
      "hit": false,
      "t": 93375,
      "d": 375,
      "v": 66
    },
    {
      "midi": 60,
      "hit": false,
      "t": 93750,
      "d": 1500,
      "v": 66
    },
    {
      "midi": 60,
      "hit": false,
      "t": 93750,
      "d": 1500,
      "v": 75
    },
    {
      "midi": 62,
      "hit": false,
      "t": 93750,
      "d": 1500,
      "v": 75
    },
    {
      "midi": 65,
      "hit": false,
      "t": 93750,
      "d": 1500,
      "v": 75
    },
    {
      "midi": 69,
      "hit": false,
      "t": 93750,
      "d": 1500,
      "v": 75
    },
    {
      "midi": 72,
      "hit": false,
      "t": 93750,
      "d": 1500,
      "v": 75
    },
    {
      "midi": 60,
      "hit": false,
      "t": 93750,
      "d": 1500,
      "v": 75
    },
    {
      "midi": 62,
      "hit": false,
      "t": 93750,
      "d": 1500,
      "v": 75
    },
    {
      "midi": 65,
      "hit": false,
      "t": 93750,
      "d": 1500,
      "v": 75
    },
    {
      "midi": 69,
      "hit": false,
      "t": 93750,
      "d": 1500,
      "v": 75
    },
    {
      "midi": 72,
      "hit": false,
      "t": 93750,
      "d": 1500,
      "v": 75
    },
    {
      "midi": 60,
      "hit": false,
      "t": 93750,
      "d": 1500,
      "v": 66
    },
    {
      "midi": 59,
      "hit": false,
      "t": 95250,
      "d": 750,
      "v": 66
    },
    {
      "midi": 59,
      "hit": false,
      "t": 95250,
      "d": 750,
      "v": 75
    },
    {
      "midi": 62,
      "hit": false,
      "t": 95250,
      "d": 750,
      "v": 75
    },
    {
      "midi": 65,
      "hit": false,
      "t": 95250,
      "d": 750,
      "v": 75
    },
    {
      "midi": 68,
      "hit": false,
      "t": 95250,
      "d": 750,
      "v": 75
    },
    {
      "midi": 71,
      "hit": false,
      "t": 95250,
      "d": 750,
      "v": 75
    },
    {
      "midi": 59,
      "hit": false,
      "t": 95250,
      "d": 750,
      "v": 75
    },
    {
      "midi": 62,
      "hit": false,
      "t": 95250,
      "d": 750,
      "v": 75
    },
    {
      "midi": 65,
      "hit": false,
      "t": 95250,
      "d": 750,
      "v": 75
    },
    {
      "midi": 68,
      "hit": false,
      "t": 95250,
      "d": 750,
      "v": 75
    },
    {
      "midi": 71,
      "hit": false,
      "t": 95250,
      "d": 750,
      "v": 75
    },
    {
      "midi": 59,
      "hit": false,
      "t": 95250,
      "d": 750,
      "v": 66
    },
    {
      "midi": 60,
      "hit": false,
      "t": 96000,
      "d": 750,
      "v": 66
    },
    {
      "midi": 60,
      "hit": false,
      "t": 96000,
      "d": 750,
      "v": 75
    },
    {
      "midi": 64,
      "hit": false,
      "t": 96000,
      "d": 750,
      "v": 75
    },
    {
      "midi": 67,
      "hit": false,
      "t": 96000,
      "d": 750,
      "v": 75
    },
    {
      "midi": 69,
      "hit": false,
      "t": 96000,
      "d": 750,
      "v": 75
    },
    {
      "midi": 72,
      "hit": false,
      "t": 96000,
      "d": 750,
      "v": 75
    },
    {
      "midi": 60,
      "hit": false,
      "t": 96000,
      "d": 750,
      "v": 75
    },
    {
      "midi": 64,
      "hit": false,
      "t": 96000,
      "d": 750,
      "v": 75
    },
    {
      "midi": 67,
      "hit": false,
      "t": 96000,
      "d": 750,
      "v": 75
    },
    {
      "midi": 69,
      "hit": false,
      "t": 96000,
      "d": 750,
      "v": 75
    },
    {
      "midi": 72,
      "hit": false,
      "t": 96000,
      "d": 750,
      "v": 75
    },
    {
      "midi": 60,
      "hit": false,
      "t": 96000,
      "d": 750,
      "v": 66
    },
    {
      "midi": 59,
      "hit": false,
      "t": 97500,
      "d": 375,
      "v": 66
    },
    {
      "midi": 59,
      "hit": false,
      "t": 97500,
      "d": 375,
      "v": 75
    },
    {
      "midi": 60,
      "hit": false,
      "t": 97500,
      "d": 375,
      "v": 75
    },
    {
      "midi": 63,
      "hit": false,
      "t": 97500,
      "d": 375,
      "v": 75
    },
    {
      "midi": 66,
      "hit": false,
      "t": 97500,
      "d": 375,
      "v": 75
    },
    {
      "midi": 71,
      "hit": false,
      "t": 97500,
      "d": 375,
      "v": 75
    },
    {
      "midi": 59,
      "hit": false,
      "t": 97500,
      "d": 375,
      "v": 75
    },
    {
      "midi": 60,
      "hit": false,
      "t": 97500,
      "d": 375,
      "v": 75
    },
    {
      "midi": 63,
      "hit": false,
      "t": 97500,
      "d": 375,
      "v": 75
    },
    {
      "midi": 66,
      "hit": false,
      "t": 97500,
      "d": 375,
      "v": 75
    },
    {
      "midi": 71,
      "hit": false,
      "t": 97500,
      "d": 375,
      "v": 75
    },
    {
      "midi": 59,
      "hit": false,
      "t": 97500,
      "d": 375,
      "v": 66
    },
    {
      "midi": 57,
      "hit": false,
      "t": 97875,
      "d": 375,
      "v": 66
    },
    {
      "midi": 57,
      "hit": false,
      "t": 97875,
      "d": 375,
      "v": 75
    },
    {
      "midi": 60,
      "hit": false,
      "t": 97875,
      "d": 375,
      "v": 75
    },
    {
      "midi": 63,
      "hit": false,
      "t": 97875,
      "d": 375,
      "v": 75
    },
    {
      "midi": 66,
      "hit": false,
      "t": 97875,
      "d": 375,
      "v": 75
    },
    {
      "midi": 69,
      "hit": false,
      "t": 97875,
      "d": 375,
      "v": 75
    },
    {
      "midi": 57,
      "hit": false,
      "t": 97875,
      "d": 375,
      "v": 75
    },
    {
      "midi": 60,
      "hit": false,
      "t": 97875,
      "d": 375,
      "v": 75
    },
    {
      "midi": 63,
      "hit": false,
      "t": 97875,
      "d": 375,
      "v": 75
    },
    {
      "midi": 66,
      "hit": false,
      "t": 97875,
      "d": 375,
      "v": 75
    },
    {
      "midi": 69,
      "hit": false,
      "t": 97875,
      "d": 375,
      "v": 75
    },
    {
      "midi": 57,
      "hit": false,
      "t": 97875,
      "d": 375,
      "v": 66
    },
    {
      "midi": 55,
      "hit": false,
      "t": 98250,
      "d": 375,
      "v": 66
    },
    {
      "midi": 55,
      "hit": false,
      "t": 98250,
      "d": 375,
      "v": 75
    },
    {
      "midi": 57,
      "hit": false,
      "t": 98250,
      "d": 375,
      "v": 75
    },
    {
      "midi": 60,
      "hit": false,
      "t": 98250,
      "d": 375,
      "v": 75
    },
    {
      "midi": 63,
      "hit": false,
      "t": 98250,
      "d": 375,
      "v": 75
    },
    {
      "midi": 67,
      "hit": false,
      "t": 98250,
      "d": 375,
      "v": 75
    },
    {
      "midi": 55,
      "hit": false,
      "t": 98250,
      "d": 375,
      "v": 75
    },
    {
      "midi": 57,
      "hit": false,
      "t": 98250,
      "d": 375,
      "v": 75
    },
    {
      "midi": 60,
      "hit": false,
      "t": 98250,
      "d": 375,
      "v": 75
    },
    {
      "midi": 63,
      "hit": false,
      "t": 98250,
      "d": 375,
      "v": 75
    },
    {
      "midi": 67,
      "hit": false,
      "t": 98250,
      "d": 375,
      "v": 75
    },
    {
      "midi": 55,
      "hit": false,
      "t": 98250,
      "d": 375,
      "v": 66
    },
    {
      "midi": 54,
      "hit": false,
      "t": 98625,
      "d": 375,
      "v": 66
    },
    {
      "midi": 54,
      "hit": false,
      "t": 98625,
      "d": 375,
      "v": 75
    },
    {
      "midi": 57,
      "hit": false,
      "t": 98625,
      "d": 375,
      "v": 75
    },
    {
      "midi": 60,
      "hit": false,
      "t": 98625,
      "d": 375,
      "v": 75
    },
    {
      "midi": 63,
      "hit": false,
      "t": 98625,
      "d": 375,
      "v": 75
    },
    {
      "midi": 66,
      "hit": false,
      "t": 98625,
      "d": 375,
      "v": 75
    },
    {
      "midi": 54,
      "hit": false,
      "t": 98625,
      "d": 375,
      "v": 75
    },
    {
      "midi": 57,
      "hit": false,
      "t": 98625,
      "d": 375,
      "v": 75
    },
    {
      "midi": 60,
      "hit": false,
      "t": 98625,
      "d": 375,
      "v": 75
    },
    {
      "midi": 63,
      "hit": false,
      "t": 98625,
      "d": 375,
      "v": 75
    },
    {
      "midi": 66,
      "hit": false,
      "t": 98625,
      "d": 375,
      "v": 75
    },
    {
      "midi": 54,
      "hit": false,
      "t": 98625,
      "d": 375,
      "v": 66
    },
    {
      "midi": 55,
      "hit": false,
      "t": 99000,
      "d": 750,
      "v": 66
    },
    {
      "midi": 55,
      "hit": false,
      "t": 99000,
      "d": 750,
      "v": 75
    },
    {
      "midi": 57,
      "hit": false,
      "t": 99000,
      "d": 750,
      "v": 75
    },
    {
      "midi": 60,
      "hit": false,
      "t": 99000,
      "d": 750,
      "v": 75
    },
    {
      "midi": 62,
      "hit": false,
      "t": 99000,
      "d": 750,
      "v": 75
    },
    {
      "midi": 67,
      "hit": false,
      "t": 99000,
      "d": 750,
      "v": 75
    },
    {
      "midi": 55,
      "hit": false,
      "t": 99000,
      "d": 750,
      "v": 75
    },
    {
      "midi": 57,
      "hit": false,
      "t": 99000,
      "d": 750,
      "v": 75
    },
    {
      "midi": 60,
      "hit": false,
      "t": 99000,
      "d": 750,
      "v": 75
    },
    {
      "midi": 62,
      "hit": false,
      "t": 99000,
      "d": 750,
      "v": 75
    },
    {
      "midi": 67,
      "hit": false,
      "t": 99000,
      "d": 750,
      "v": 75
    },
    {
      "midi": 55,
      "hit": false,
      "t": 99000,
      "d": 750,
      "v": 66
    },
    {
      "midi": 50,
      "hit": false,
      "t": 99750,
      "d": 1500,
      "v": 66
    },
    {
      "midi": 57,
      "hit": false,
      "t": 99750,
      "d": 750,
      "v": 75
    },
    {
      "midi": 60,
      "hit": false,
      "t": 99750,
      "d": 750,
      "v": 75
    },
    {
      "midi": 50,
      "hit": false,
      "t": 99750,
      "d": 1500,
      "v": 75
    },
    {
      "midi": 53,
      "hit": false,
      "t": 99750,
      "d": 1500,
      "v": 75
    },
    {
      "midi": 62,
      "hit": false,
      "t": 99750,
      "d": 1500,
      "v": 75
    },
    {
      "midi": 57,
      "hit": false,
      "t": 99750,
      "d": 750,
      "v": 75
    },
    {
      "midi": 60,
      "hit": false,
      "t": 99750,
      "d": 750,
      "v": 75
    },
    {
      "midi": 50,
      "hit": false,
      "t": 99750,
      "d": 1500,
      "v": 75
    },
    {
      "midi": 53,
      "hit": false,
      "t": 99750,
      "d": 1500,
      "v": 75
    },
    {
      "midi": 62,
      "hit": false,
      "t": 99750,
      "d": 1500,
      "v": 75
    },
    {
      "midi": 50,
      "hit": false,
      "t": 99750,
      "d": 1500,
      "v": 66
    },
    {
      "midi": 55,
      "hit": false,
      "t": 100500,
      "d": 750,
      "v": 75
    },
    {
      "midi": 59,
      "hit": false,
      "t": 100500,
      "d": 750,
      "v": 75
    },
    {
      "midi": 55,
      "hit": false,
      "t": 100500,
      "d": 750,
      "v": 75
    },
    {
      "midi": 59,
      "hit": false,
      "t": 100500,
      "d": 750,
      "v": 75
    },
    {
      "midi": 52,
      "hit": false,
      "t": 101250,
      "d": 750,
      "v": 66
    },
    {
      "midi": 48,
      "hit": false,
      "t": 101250,
      "d": 750,
      "v": 75
    },
    {
      "midi": 55,
      "hit": false,
      "t": 101250,
      "d": 750,
      "v": 75
    },
    {
      "midi": 58,
      "hit": false,
      "t": 101250,
      "d": 750,
      "v": 75
    },
    {
      "midi": 61,
      "hit": false,
      "t": 101250,
      "d": 750,
      "v": 75
    },
    {
      "midi": 64,
      "hit": false,
      "t": 101250,
      "d": 750,
      "v": 75
    },
    {
      "midi": 48,
      "hit": false,
      "t": 101250,
      "d": 750,
      "v": 75
    },
    {
      "midi": 55,
      "hit": false,
      "t": 101250,
      "d": 750,
      "v": 75
    },
    {
      "midi": 58,
      "hit": false,
      "t": 101250,
      "d": 750,
      "v": 75
    },
    {
      "midi": 61,
      "hit": false,
      "t": 101250,
      "d": 750,
      "v": 75
    },
    {
      "midi": 64,
      "hit": false,
      "t": 101250,
      "d": 750,
      "v": 75
    },
    {
      "midi": 52,
      "hit": false,
      "t": 101250,
      "d": 750,
      "v": 66
    },
    {
      "midi": 57,
      "hit": false,
      "t": 102000,
      "d": 2250,
      "v": 66
    },
    {
      "midi": 52,
      "hit": false,
      "t": 102000,
      "d": 375,
      "v": 75
    },
    {
      "midi": 53,
      "hit": false,
      "t": 102000,
      "d": 375,
      "v": 75
    },
    {
      "midi": 57,
      "hit": false,
      "t": 102000,
      "d": 375,
      "v": 75
    },
    {
      "midi": 60,
      "hit": false,
      "t": 102000,
      "d": 375,
      "v": 75
    },
    {
      "midi": 64,
      "hit": false,
      "t": 102000,
      "d": 375,
      "v": 75
    },
    {
      "midi": 52,
      "hit": false,
      "t": 102000,
      "d": 375,
      "v": 75
    },
    {
      "midi": 53,
      "hit": false,
      "t": 102000,
      "d": 375,
      "v": 75
    },
    {
      "midi": 57,
      "hit": false,
      "t": 102000,
      "d": 375,
      "v": 75
    },
    {
      "midi": 60,
      "hit": false,
      "t": 102000,
      "d": 375,
      "v": 75
    },
    {
      "midi": 64,
      "hit": false,
      "t": 102000,
      "d": 375,
      "v": 75
    },
    {
      "midi": 57,
      "hit": false,
      "t": 102000,
      "d": 2250,
      "v": 66
    },
    {
      "midi": 48,
      "hit": false,
      "t": 102375,
      "d": 375,
      "v": 75
    },
    {
      "midi": 60,
      "hit": false,
      "t": 102375,
      "d": 375,
      "v": 75
    },
    {
      "midi": 48,
      "hit": false,
      "t": 102375,
      "d": 375,
      "v": 75
    },
    {
      "midi": 60,
      "hit": false,
      "t": 102375,
      "d": 375,
      "v": 75
    },
    {
      "midi": 50,
      "hit": false,
      "t": 102750,
      "d": 375,
      "v": 75
    },
    {
      "midi": 62,
      "hit": false,
      "t": 102750,
      "d": 375,
      "v": 75
    },
    {
      "midi": 50,
      "hit": false,
      "t": 102750,
      "d": 375,
      "v": 75
    },
    {
      "midi": 62,
      "hit": false,
      "t": 102750,
      "d": 375,
      "v": 75
    },
    {
      "midi": 52,
      "hit": false,
      "t": 103125,
      "d": 375,
      "v": 75
    },
    {
      "midi": 64,
      "hit": false,
      "t": 103125,
      "d": 375,
      "v": 75
    },
    {
      "midi": 52,
      "hit": false,
      "t": 103125,
      "d": 375,
      "v": 75
    },
    {
      "midi": 64,
      "hit": false,
      "t": 103125,
      "d": 375,
      "v": 75
    },
    {
      "midi": 50,
      "hit": false,
      "t": 103500,
      "d": 750,
      "v": 75
    },
    {
      "midi": 53,
      "hit": false,
      "t": 103500,
      "d": 750,
      "v": 75
    },
    {
      "midi": 57,
      "hit": false,
      "t": 103500,
      "d": 750,
      "v": 75
    },
    {
      "midi": 60,
      "hit": false,
      "t": 103500,
      "d": 750,
      "v": 75
    },
    {
      "midi": 62,
      "hit": false,
      "t": 103500,
      "d": 750,
      "v": 75
    },
    {
      "midi": 50,
      "hit": false,
      "t": 103500,
      "d": 750,
      "v": 75
    },
    {
      "midi": 53,
      "hit": false,
      "t": 103500,
      "d": 750,
      "v": 75
    },
    {
      "midi": 57,
      "hit": false,
      "t": 103500,
      "d": 750,
      "v": 75
    },
    {
      "midi": 60,
      "hit": false,
      "t": 103500,
      "d": 750,
      "v": 75
    },
    {
      "midi": 62,
      "hit": false,
      "t": 103500,
      "d": 750,
      "v": 75
    },
    {
      "midi": 57,
      "hit": false,
      "t": 104250,
      "d": 2250,
      "v": 66
    },
    {
      "midi": 50,
      "hit": false,
      "t": 104250,
      "d": 1125,
      "v": 75
    },
    {
      "midi": 52,
      "hit": false,
      "t": 104250,
      "d": 1125,
      "v": 75
    },
    {
      "midi": 55,
      "hit": false,
      "t": 104250,
      "d": 1125,
      "v": 75
    },
    {
      "midi": 59,
      "hit": false,
      "t": 104250,
      "d": 1125,
      "v": 75
    },
    {
      "midi": 62,
      "hit": false,
      "t": 104250,
      "d": 1125,
      "v": 75
    },
    {
      "midi": 50,
      "hit": false,
      "t": 104250,
      "d": 1125,
      "v": 75
    },
    {
      "midi": 52,
      "hit": false,
      "t": 104250,
      "d": 1125,
      "v": 75
    },
    {
      "midi": 55,
      "hit": false,
      "t": 104250,
      "d": 1125,
      "v": 75
    },
    {
      "midi": 59,
      "hit": false,
      "t": 104250,
      "d": 1125,
      "v": 75
    },
    {
      "midi": 62,
      "hit": false,
      "t": 104250,
      "d": 1125,
      "v": 75
    },
    {
      "midi": 57,
      "hit": false,
      "t": 104250,
      "d": 2250,
      "v": 66
    },
    {
      "midi": 47,
      "hit": false,
      "t": 105375,
      "d": 375,
      "v": 75
    },
    {
      "midi": 59,
      "hit": false,
      "t": 105375,
      "d": 375,
      "v": 75
    },
    {
      "midi": 47,
      "hit": false,
      "t": 105375,
      "d": 375,
      "v": 75
    },
    {
      "midi": 59,
      "hit": false,
      "t": 105375,
      "d": 375,
      "v": 75
    },
    {
      "midi": 49,
      "hit": false,
      "t": 105750,
      "d": 375,
      "v": 75
    },
    {
      "midi": 61,
      "hit": false,
      "t": 105750,
      "d": 375,
      "v": 75
    },
    {
      "midi": 49,
      "hit": false,
      "t": 105750,
      "d": 375,
      "v": 75
    },
    {
      "midi": 61,
      "hit": false,
      "t": 105750,
      "d": 375,
      "v": 75
    },
    {
      "midi": 50,
      "hit": false,
      "t": 106125,
      "d": 375,
      "v": 75
    },
    {
      "midi": 62,
      "hit": false,
      "t": 106125,
      "d": 375,
      "v": 75
    },
    {
      "midi": 50,
      "hit": false,
      "t": 106125,
      "d": 375,
      "v": 75
    },
    {
      "midi": 62,
      "hit": false,
      "t": 106125,
      "d": 375,
      "v": 75
    },
    {
      "midi": 49,
      "hit": false,
      "t": 106500,
      "d": 1500,
      "v": 75
    },
    {
      "midi": 52,
      "hit": false,
      "t": 106500,
      "d": 1500,
      "v": 75
    },
    {
      "midi": 55,
      "hit": false,
      "t": 106500,
      "d": 1500,
      "v": 75
    },
    {
      "midi": 57,
      "hit": false,
      "t": 106500,
      "d": 1500,
      "v": 75
    },
    {
      "midi": 61,
      "hit": false,
      "t": 106500,
      "d": 1500,
      "v": 75
    },
    {
      "midi": 49,
      "hit": false,
      "t": 106500,
      "d": 1500,
      "v": 75
    },
    {
      "midi": 52,
      "hit": false,
      "t": 106500,
      "d": 1500,
      "v": 75
    },
    {
      "midi": 55,
      "hit": false,
      "t": 106500,
      "d": 1500,
      "v": 75
    },
    {
      "midi": 57,
      "hit": false,
      "t": 106500,
      "d": 1500,
      "v": 75
    },
    {
      "midi": 61,
      "hit": false,
      "t": 106500,
      "d": 1500,
      "v": 75
    },
    {
      "midi": 59,
      "hit": false,
      "t": 108000,
      "d": 375,
      "v": 66
    },
    {
      "midi": 71,
      "hit": false,
      "t": 108000,
      "d": 375,
      "v": 75
    },
    {
      "midi": 50,
      "hit": false,
      "t": 108000,
      "d": 1125,
      "v": 75
    },
    {
      "midi": 53,
      "hit": false,
      "t": 108000,
      "d": 1125,
      "v": 75
    },
    {
      "midi": 57,
      "hit": false,
      "t": 108000,
      "d": 1125,
      "v": 75
    },
    {
      "midi": 71,
      "hit": false,
      "t": 108000,
      "d": 375,
      "v": 75
    },
    {
      "midi": 50,
      "hit": false,
      "t": 108000,
      "d": 1125,
      "v": 75
    },
    {
      "midi": 53,
      "hit": false,
      "t": 108000,
      "d": 1125,
      "v": 75
    },
    {
      "midi": 57,
      "hit": false,
      "t": 108000,
      "d": 1125,
      "v": 75
    },
    {
      "midi": 59,
      "hit": false,
      "t": 108000,
      "d": 375,
      "v": 66
    },
    {
      "midi": 57,
      "hit": false,
      "t": 108375,
      "d": 375,
      "v": 66
    },
    {
      "midi": 69,
      "hit": false,
      "t": 108375,
      "d": 375,
      "v": 75
    },
    {
      "midi": 69,
      "hit": false,
      "t": 108375,
      "d": 375,
      "v": 75
    },
    {
      "midi": 57,
      "hit": false,
      "t": 108375,
      "d": 375,
      "v": 66
    },
    {
      "midi": 53,
      "hit": false,
      "t": 108750,
      "d": 1500,
      "v": 66
    },
    {
      "midi": 65,
      "hit": false,
      "t": 108750,
      "d": 1500,
      "v": 75
    },
    {
      "midi": 65,
      "hit": false,
      "t": 108750,
      "d": 1500,
      "v": 75
    },
    {
      "midi": 53,
      "hit": false,
      "t": 108750,
      "d": 1500,
      "v": 66
    },
    {
      "midi": 50,
      "hit": false,
      "t": 109125,
      "d": 375,
      "v": 75
    },
    {
      "midi": 53,
      "hit": false,
      "t": 109125,
      "d": 375,
      "v": 75
    },
    {
      "midi": 57,
      "hit": false,
      "t": 109125,
      "d": 375,
      "v": 75
    },
    {
      "midi": 50,
      "hit": false,
      "t": 109125,
      "d": 375,
      "v": 75
    },
    {
      "midi": 53,
      "hit": false,
      "t": 109125,
      "d": 375,
      "v": 75
    },
    {
      "midi": 57,
      "hit": false,
      "t": 109125,
      "d": 375,
      "v": 75
    },
    {
      "midi": 50,
      "hit": false,
      "t": 109500,
      "d": 1500,
      "v": 75
    },
    {
      "midi": 53,
      "hit": false,
      "t": 109500,
      "d": 1500,
      "v": 75
    },
    {
      "midi": 57,
      "hit": false,
      "t": 109500,
      "d": 1500,
      "v": 75
    },
    {
      "midi": 50,
      "hit": false,
      "t": 109500,
      "d": 1500,
      "v": 75
    },
    {
      "midi": 53,
      "hit": false,
      "t": 109500,
      "d": 1500,
      "v": 75
    },
    {
      "midi": 57,
      "hit": false,
      "t": 109500,
      "d": 1500,
      "v": 75
    },
    {
      "midi": 59,
      "hit": false,
      "t": 110250,
      "d": 375,
      "v": 66
    },
    {
      "midi": 71,
      "hit": false,
      "t": 110250,
      "d": 375,
      "v": 75
    },
    {
      "midi": 71,
      "hit": false,
      "t": 110250,
      "d": 375,
      "v": 75
    },
    {
      "midi": 59,
      "hit": false,
      "t": 110250,
      "d": 375,
      "v": 66
    },
    {
      "midi": 57,
      "hit": false,
      "t": 110625,
      "d": 375,
      "v": 66
    },
    {
      "midi": 69,
      "hit": false,
      "t": 110625,
      "d": 375,
      "v": 75
    },
    {
      "midi": 69,
      "hit": false,
      "t": 110625,
      "d": 375,
      "v": 75
    },
    {
      "midi": 57,
      "hit": false,
      "t": 110625,
      "d": 375,
      "v": 66
    },
    {
      "midi": 53,
      "hit": false,
      "t": 111000,
      "d": 750,
      "v": 66
    },
    {
      "midi": 65,
      "hit": false,
      "t": 111000,
      "d": 750,
      "v": 75
    },
    {
      "midi": 50,
      "hit": false,
      "t": 111000,
      "d": 1125,
      "v": 75
    },
    {
      "midi": 53,
      "hit": false,
      "t": 111000,
      "d": 1125,
      "v": 75
    },
    {
      "midi": 57,
      "hit": false,
      "t": 111000,
      "d": 1125,
      "v": 75
    },
    {
      "midi": 65,
      "hit": false,
      "t": 111000,
      "d": 750,
      "v": 75
    },
    {
      "midi": 50,
      "hit": false,
      "t": 111000,
      "d": 1125,
      "v": 75
    },
    {
      "midi": 53,
      "hit": false,
      "t": 111000,
      "d": 1125,
      "v": 75
    },
    {
      "midi": 57,
      "hit": false,
      "t": 111000,
      "d": 1125,
      "v": 75
    },
    {
      "midi": 53,
      "hit": false,
      "t": 111000,
      "d": 750,
      "v": 66
    },
    {
      "midi": 53,
      "hit": false,
      "t": 111750,
      "d": 2250,
      "v": 66
    },
    {
      "midi": 65,
      "hit": false,
      "t": 111750,
      "d": 2250,
      "v": 75
    },
    {
      "midi": 65,
      "hit": false,
      "t": 111750,
      "d": 2250,
      "v": 75
    },
    {
      "midi": 53,
      "hit": false,
      "t": 111750,
      "d": 2250,
      "v": 66
    },
    {
      "midi": 50,
      "hit": false,
      "t": 112125,
      "d": 375,
      "v": 75
    },
    {
      "midi": 53,
      "hit": false,
      "t": 112125,
      "d": 375,
      "v": 75
    },
    {
      "midi": 57,
      "hit": false,
      "t": 112125,
      "d": 375,
      "v": 75
    },
    {
      "midi": 50,
      "hit": false,
      "t": 112125,
      "d": 375,
      "v": 75
    },
    {
      "midi": 53,
      "hit": false,
      "t": 112125,
      "d": 375,
      "v": 75
    },
    {
      "midi": 57,
      "hit": false,
      "t": 112125,
      "d": 375,
      "v": 75
    },
    {
      "midi": 50,
      "hit": false,
      "t": 112500,
      "d": 750,
      "v": 75
    },
    {
      "midi": 53,
      "hit": false,
      "t": 112500,
      "d": 750,
      "v": 75
    },
    {
      "midi": 57,
      "hit": false,
      "t": 112500,
      "d": 750,
      "v": 75
    },
    {
      "midi": 50,
      "hit": false,
      "t": 112500,
      "d": 750,
      "v": 75
    },
    {
      "midi": 53,
      "hit": false,
      "t": 112500,
      "d": 750,
      "v": 75
    },
    {
      "midi": 57,
      "hit": false,
      "t": 112500,
      "d": 750,
      "v": 75
    },
    {
      "midi": 50,
      "hit": false,
      "t": 113250,
      "d": 750,
      "v": 75
    },
    {
      "midi": 53,
      "hit": false,
      "t": 113250,
      "d": 750,
      "v": 75
    },
    {
      "midi": 57,
      "hit": false,
      "t": 113250,
      "d": 750,
      "v": 75
    },
    {
      "midi": 50,
      "hit": false,
      "t": 113250,
      "d": 750,
      "v": 75
    },
    {
      "midi": 53,
      "hit": false,
      "t": 113250,
      "d": 750,
      "v": 75
    },
    {
      "midi": 57,
      "hit": false,
      "t": 113250,
      "d": 750,
      "v": 75
    },
    {
      "midi": 59,
      "hit": false,
      "t": 114000,
      "d": 375,
      "v": 66
    },
    {
      "midi": 71,
      "hit": false,
      "t": 114000,
      "d": 375,
      "v": 75
    },
    {
      "midi": 52,
      "hit": false,
      "t": 114000,
      "d": 1125,
      "v": 75
    },
    {
      "midi": 59,
      "hit": false,
      "t": 114000,
      "d": 1125,
      "v": 75
    },
    {
      "midi": 60,
      "hit": false,
      "t": 114000,
      "d": 1125,
      "v": 75
    },
    {
      "midi": 71,
      "hit": false,
      "t": 114000,
      "d": 375,
      "v": 75
    },
    {
      "midi": 52,
      "hit": false,
      "t": 114000,
      "d": 1125,
      "v": 75
    },
    {
      "midi": 59,
      "hit": false,
      "t": 114000,
      "d": 1125,
      "v": 75
    },
    {
      "midi": 60,
      "hit": false,
      "t": 114000,
      "d": 1125,
      "v": 75
    },
    {
      "midi": 59,
      "hit": false,
      "t": 114000,
      "d": 375,
      "v": 66
    },
    {
      "midi": 57,
      "hit": false,
      "t": 114375,
      "d": 375,
      "v": 66
    },
    {
      "midi": 69,
      "hit": false,
      "t": 114375,
      "d": 375,
      "v": 75
    },
    {
      "midi": 69,
      "hit": false,
      "t": 114375,
      "d": 375,
      "v": 75
    },
    {
      "midi": 57,
      "hit": false,
      "t": 114375,
      "d": 375,
      "v": 66
    },
    {
      "midi": 52,
      "hit": false,
      "t": 114750,
      "d": 1500,
      "v": 66
    },
    {
      "midi": 64,
      "hit": false,
      "t": 114750,
      "d": 1500,
      "v": 75
    },
    {
      "midi": 64,
      "hit": false,
      "t": 114750,
      "d": 1500,
      "v": 75
    },
    {
      "midi": 52,
      "hit": false,
      "t": 114750,
      "d": 1500,
      "v": 66
    },
    {
      "midi": 52,
      "hit": false,
      "t": 115125,
      "d": 375,
      "v": 75
    },
    {
      "midi": 59,
      "hit": false,
      "t": 115125,
      "d": 375,
      "v": 75
    },
    {
      "midi": 60,
      "hit": false,
      "t": 115125,
      "d": 375,
      "v": 75
    },
    {
      "midi": 52,
      "hit": false,
      "t": 115125,
      "d": 375,
      "v": 75
    },
    {
      "midi": 59,
      "hit": false,
      "t": 115125,
      "d": 375,
      "v": 75
    },
    {
      "midi": 60,
      "hit": false,
      "t": 115125,
      "d": 375,
      "v": 75
    },
    {
      "midi": 52,
      "hit": false,
      "t": 115500,
      "d": 1500,
      "v": 75
    },
    {
      "midi": 57,
      "hit": false,
      "t": 115500,
      "d": 1500,
      "v": 75
    },
    {
      "midi": 60,
      "hit": false,
      "t": 115500,
      "d": 1500,
      "v": 75
    },
    {
      "midi": 52,
      "hit": false,
      "t": 115500,
      "d": 1500,
      "v": 75
    },
    {
      "midi": 57,
      "hit": false,
      "t": 115500,
      "d": 1500,
      "v": 75
    },
    {
      "midi": 60,
      "hit": false,
      "t": 115500,
      "d": 1500,
      "v": 75
    },
    {
      "midi": 59,
      "hit": false,
      "t": 116250,
      "d": 375,
      "v": 66
    },
    {
      "midi": 71,
      "hit": false,
      "t": 116250,
      "d": 375,
      "v": 75
    },
    {
      "midi": 71,
      "hit": false,
      "t": 116250,
      "d": 375,
      "v": 75
    },
    {
      "midi": 59,
      "hit": false,
      "t": 116250,
      "d": 375,
      "v": 66
    },
    {
      "midi": 57,
      "hit": false,
      "t": 116625,
      "d": 375,
      "v": 66
    },
    {
      "midi": 69,
      "hit": false,
      "t": 116625,
      "d": 375,
      "v": 75
    },
    {
      "midi": 69,
      "hit": false,
      "t": 116625,
      "d": 375,
      "v": 75
    },
    {
      "midi": 57,
      "hit": false,
      "t": 116625,
      "d": 375,
      "v": 66
    },
    {
      "midi": 52,
      "hit": false,
      "t": 117000,
      "d": 3000,
      "v": 66
    },
    {
      "midi": 52,
      "hit": false,
      "t": 117000,
      "d": 1125,
      "v": 75
    },
    {
      "midi": 59,
      "hit": false,
      "t": 117000,
      "d": 1125,
      "v": 75
    },
    {
      "midi": 60,
      "hit": false,
      "t": 117000,
      "d": 1125,
      "v": 75
    },
    {
      "midi": 64,
      "hit": false,
      "t": 117000,
      "d": 3000,
      "v": 75
    },
    {
      "midi": 52,
      "hit": false,
      "t": 117000,
      "d": 1125,
      "v": 75
    },
    {
      "midi": 59,
      "hit": false,
      "t": 117000,
      "d": 1125,
      "v": 75
    },
    {
      "midi": 60,
      "hit": false,
      "t": 117000,
      "d": 1125,
      "v": 75
    },
    {
      "midi": 64,
      "hit": false,
      "t": 117000,
      "d": 3000,
      "v": 75
    },
    {
      "midi": 52,
      "hit": false,
      "t": 117000,
      "d": 3000,
      "v": 66
    },
    {
      "midi": 52,
      "hit": false,
      "t": 118125,
      "d": 375,
      "v": 75
    },
    {
      "midi": 59,
      "hit": false,
      "t": 118125,
      "d": 375,
      "v": 75
    },
    {
      "midi": 60,
      "hit": false,
      "t": 118125,
      "d": 375,
      "v": 75
    },
    {
      "midi": 52,
      "hit": false,
      "t": 118125,
      "d": 375,
      "v": 75
    },
    {
      "midi": 59,
      "hit": false,
      "t": 118125,
      "d": 375,
      "v": 75
    },
    {
      "midi": 60,
      "hit": false,
      "t": 118125,
      "d": 375,
      "v": 75
    },
    {
      "midi": 52,
      "hit": false,
      "t": 118500,
      "d": 750,
      "v": 75
    },
    {
      "midi": 57,
      "hit": false,
      "t": 118500,
      "d": 750,
      "v": 75
    },
    {
      "midi": 60,
      "hit": false,
      "t": 118500,
      "d": 750,
      "v": 75
    },
    {
      "midi": 52,
      "hit": false,
      "t": 118500,
      "d": 750,
      "v": 75
    },
    {
      "midi": 57,
      "hit": false,
      "t": 118500,
      "d": 750,
      "v": 75
    },
    {
      "midi": 60,
      "hit": false,
      "t": 118500,
      "d": 750,
      "v": 75
    },
    {
      "midi": 52,
      "hit": false,
      "t": 119250,
      "d": 750,
      "v": 75
    },
    {
      "midi": 57,
      "hit": false,
      "t": 119250,
      "d": 750,
      "v": 75
    },
    {
      "midi": 60,
      "hit": false,
      "t": 119250,
      "d": 750,
      "v": 75
    },
    {
      "midi": 52,
      "hit": false,
      "t": 119250,
      "d": 750,
      "v": 75
    },
    {
      "midi": 57,
      "hit": false,
      "t": 119250,
      "d": 750,
      "v": 75
    },
    {
      "midi": 60,
      "hit": false,
      "t": 119250,
      "d": 750,
      "v": 75
    },
    {
      "midi": 60,
      "hit": false,
      "t": 120000,
      "d": 375,
      "v": 66
    },
    {
      "midi": 72,
      "hit": false,
      "t": 120000,
      "d": 375,
      "v": 75
    },
    {
      "midi": 50,
      "hit": false,
      "t": 120000,
      "d": 1125,
      "v": 75
    },
    {
      "midi": 53,
      "hit": false,
      "t": 120000,
      "d": 1125,
      "v": 75
    },
    {
      "midi": 57,
      "hit": false,
      "t": 120000,
      "d": 1125,
      "v": 75
    },
    {
      "midi": 60,
      "hit": false,
      "t": 120000,
      "d": 1125,
      "v": 75
    },
    {
      "midi": 72,
      "hit": false,
      "t": 120000,
      "d": 375,
      "v": 75
    },
    {
      "midi": 50,
      "hit": false,
      "t": 120000,
      "d": 1125,
      "v": 75
    },
    {
      "midi": 53,
      "hit": false,
      "t": 120000,
      "d": 1125,
      "v": 75
    },
    {
      "midi": 57,
      "hit": false,
      "t": 120000,
      "d": 1125,
      "v": 75
    },
    {
      "midi": 60,
      "hit": false,
      "t": 120000,
      "d": 1125,
      "v": 75
    },
    {
      "midi": 60,
      "hit": false,
      "t": 120000,
      "d": 375,
      "v": 66
    },
    {
      "midi": 59,
      "hit": false,
      "t": 120375,
      "d": 375,
      "v": 66
    },
    {
      "midi": 71,
      "hit": false,
      "t": 120375,
      "d": 375,
      "v": 75
    },
    {
      "midi": 71,
      "hit": false,
      "t": 120375,
      "d": 375,
      "v": 75
    },
    {
      "midi": 59,
      "hit": false,
      "t": 120375,
      "d": 375,
      "v": 66
    },
    {
      "midi": 55,
      "hit": false,
      "t": 120750,
      "d": 1500,
      "v": 66
    },
    {
      "midi": 67,
      "hit": false,
      "t": 120750,
      "d": 1500,
      "v": 75
    },
    {
      "midi": 67,
      "hit": false,
      "t": 120750,
      "d": 1500,
      "v": 75
    },
    {
      "midi": 55,
      "hit": false,
      "t": 120750,
      "d": 1500,
      "v": 66
    },
    {
      "midi": 50,
      "hit": false,
      "t": 121125,
      "d": 375,
      "v": 75
    },
    {
      "midi": 53,
      "hit": false,
      "t": 121125,
      "d": 375,
      "v": 75
    },
    {
      "midi": 57,
      "hit": false,
      "t": 121125,
      "d": 375,
      "v": 75
    },
    {
      "midi": 60,
      "hit": false,
      "t": 121125,
      "d": 375,
      "v": 75
    },
    {
      "midi": 50,
      "hit": false,
      "t": 121125,
      "d": 375,
      "v": 75
    },
    {
      "midi": 53,
      "hit": false,
      "t": 121125,
      "d": 375,
      "v": 75
    },
    {
      "midi": 57,
      "hit": false,
      "t": 121125,
      "d": 375,
      "v": 75
    },
    {
      "midi": 60,
      "hit": false,
      "t": 121125,
      "d": 375,
      "v": 75
    },
    {
      "midi": 50,
      "hit": false,
      "t": 121500,
      "d": 1500,
      "v": 75
    },
    {
      "midi": 53,
      "hit": false,
      "t": 121500,
      "d": 1500,
      "v": 75
    },
    {
      "midi": 55,
      "hit": false,
      "t": 121500,
      "d": 1500,
      "v": 75
    },
    {
      "midi": 59,
      "hit": false,
      "t": 121500,
      "d": 1500,
      "v": 75
    },
    {
      "midi": 50,
      "hit": false,
      "t": 121500,
      "d": 1500,
      "v": 75
    },
    {
      "midi": 53,
      "hit": false,
      "t": 121500,
      "d": 1500,
      "v": 75
    },
    {
      "midi": 55,
      "hit": false,
      "t": 121500,
      "d": 1500,
      "v": 75
    },
    {
      "midi": 59,
      "hit": false,
      "t": 121500,
      "d": 1500,
      "v": 75
    },
    {
      "midi": 60,
      "hit": false,
      "t": 122250,
      "d": 375,
      "v": 66
    },
    {
      "midi": 72,
      "hit": false,
      "t": 122250,
      "d": 375,
      "v": 75
    },
    {
      "midi": 72,
      "hit": false,
      "t": 122250,
      "d": 375,
      "v": 75
    },
    {
      "midi": 60,
      "hit": false,
      "t": 122250,
      "d": 375,
      "v": 66
    },
    {
      "midi": 59,
      "hit": false,
      "t": 122625,
      "d": 375,
      "v": 66
    },
    {
      "midi": 71,
      "hit": false,
      "t": 122625,
      "d": 375,
      "v": 75
    },
    {
      "midi": 71,
      "hit": false,
      "t": 122625,
      "d": 375,
      "v": 75
    },
    {
      "midi": 59,
      "hit": false,
      "t": 122625,
      "d": 375,
      "v": 66
    },
    {
      "midi": 55,
      "hit": false,
      "t": 123000,
      "d": 750,
      "v": 66
    },
    {
      "midi": 67,
      "hit": false,
      "t": 123000,
      "d": 750,
      "v": 75
    },
    {
      "midi": 50,
      "hit": false,
      "t": 123000,
      "d": 1125,
      "v": 75
    },
    {
      "midi": 53,
      "hit": false,
      "t": 123000,
      "d": 1125,
      "v": 75
    },
    {
      "midi": 57,
      "hit": false,
      "t": 123000,
      "d": 1125,
      "v": 75
    },
    {
      "midi": 60,
      "hit": false,
      "t": 123000,
      "d": 1125,
      "v": 75
    },
    {
      "midi": 67,
      "hit": false,
      "t": 123000,
      "d": 750,
      "v": 75
    },
    {
      "midi": 50,
      "hit": false,
      "t": 123000,
      "d": 1125,
      "v": 75
    },
    {
      "midi": 53,
      "hit": false,
      "t": 123000,
      "d": 1125,
      "v": 75
    },
    {
      "midi": 57,
      "hit": false,
      "t": 123000,
      "d": 1125,
      "v": 75
    },
    {
      "midi": 60,
      "hit": false,
      "t": 123000,
      "d": 1125,
      "v": 75
    },
    {
      "midi": 55,
      "hit": false,
      "t": 123000,
      "d": 750,
      "v": 66
    },
    {
      "midi": 55,
      "hit": false,
      "t": 123750,
      "d": 1125,
      "v": 66
    },
    {
      "midi": 67,
      "hit": false,
      "t": 123750,
      "d": 1125,
      "v": 75
    },
    {
      "midi": 67,
      "hit": false,
      "t": 123750,
      "d": 1125,
      "v": 75
    },
    {
      "midi": 55,
      "hit": false,
      "t": 123750,
      "d": 1125,
      "v": 66
    },
    {
      "midi": 50,
      "hit": false,
      "t": 124125,
      "d": 375,
      "v": 75
    },
    {
      "midi": 53,
      "hit": false,
      "t": 124125,
      "d": 375,
      "v": 75
    },
    {
      "midi": 57,
      "hit": false,
      "t": 124125,
      "d": 375,
      "v": 75
    },
    {
      "midi": 60,
      "hit": false,
      "t": 124125,
      "d": 375,
      "v": 75
    },
    {
      "midi": 50,
      "hit": false,
      "t": 124125,
      "d": 375,
      "v": 75
    },
    {
      "midi": 53,
      "hit": false,
      "t": 124125,
      "d": 375,
      "v": 75
    },
    {
      "midi": 57,
      "hit": false,
      "t": 124125,
      "d": 375,
      "v": 75
    },
    {
      "midi": 60,
      "hit": false,
      "t": 124125,
      "d": 375,
      "v": 75
    },
    {
      "midi": 50,
      "hit": false,
      "t": 124500,
      "d": 1500,
      "v": 75
    },
    {
      "midi": 53,
      "hit": false,
      "t": 124500,
      "d": 1500,
      "v": 75
    },
    {
      "midi": 55,
      "hit": false,
      "t": 124500,
      "d": 1500,
      "v": 75
    },
    {
      "midi": 59,
      "hit": false,
      "t": 124500,
      "d": 1500,
      "v": 75
    },
    {
      "midi": 50,
      "hit": false,
      "t": 124500,
      "d": 1500,
      "v": 75
    },
    {
      "midi": 53,
      "hit": false,
      "t": 124500,
      "d": 1500,
      "v": 75
    },
    {
      "midi": 55,
      "hit": false,
      "t": 124500,
      "d": 1500,
      "v": 75
    },
    {
      "midi": 59,
      "hit": false,
      "t": 124500,
      "d": 1500,
      "v": 75
    },
    {
      "midi": 57,
      "hit": false,
      "t": 124875,
      "d": 375,
      "v": 66
    },
    {
      "midi": 69,
      "hit": false,
      "t": 124875,
      "d": 375,
      "v": 75
    },
    {
      "midi": 69,
      "hit": false,
      "t": 124875,
      "d": 375,
      "v": 75
    },
    {
      "midi": 57,
      "hit": false,
      "t": 124875,
      "d": 375,
      "v": 66
    },
    {
      "midi": 59,
      "hit": false,
      "t": 125250,
      "d": 375,
      "v": 66
    },
    {
      "midi": 71,
      "hit": false,
      "t": 125250,
      "d": 375,
      "v": 75
    },
    {
      "midi": 71,
      "hit": false,
      "t": 125250,
      "d": 375,
      "v": 75
    },
    {
      "midi": 59,
      "hit": false,
      "t": 125250,
      "d": 375,
      "v": 66
    },
    {
      "midi": 60,
      "hit": false,
      "t": 125625,
      "d": 375,
      "v": 66
    },
    {
      "midi": 72,
      "hit": false,
      "t": 125625,
      "d": 375,
      "v": 75
    },
    {
      "midi": 72,
      "hit": false,
      "t": 125625,
      "d": 375,
      "v": 75
    },
    {
      "midi": 60,
      "hit": false,
      "t": 125625,
      "d": 375,
      "v": 66
    },
    {
      "midi": 62,
      "hit": false,
      "t": 126000,
      "d": 1500,
      "v": 66
    },
    {
      "midi": 62,
      "hit": false,
      "t": 126000,
      "d": 1500,
      "v": 75
    },
    {
      "midi": 64,
      "hit": false,
      "t": 126000,
      "d": 1500,
      "v": 75
    },
    {
      "midi": 67,
      "hit": false,
      "t": 126000,
      "d": 1500,
      "v": 75
    },
    {
      "midi": 71,
      "hit": false,
      "t": 126000,
      "d": 1500,
      "v": 75
    },
    {
      "midi": 74,
      "hit": false,
      "t": 126000,
      "d": 1500,
      "v": 75
    },
    {
      "midi": 62,
      "hit": false,
      "t": 126000,
      "d": 1500,
      "v": 75
    },
    {
      "midi": 64,
      "hit": false,
      "t": 126000,
      "d": 1500,
      "v": 75
    },
    {
      "midi": 67,
      "hit": false,
      "t": 126000,
      "d": 1500,
      "v": 75
    },
    {
      "midi": 71,
      "hit": false,
      "t": 126000,
      "d": 1500,
      "v": 75
    },
    {
      "midi": 74,
      "hit": false,
      "t": 126000,
      "d": 1500,
      "v": 75
    },
    {
      "midi": 62,
      "hit": false,
      "t": 126000,
      "d": 1500,
      "v": 66
    },
    {
      "midi": 60,
      "hit": false,
      "t": 127500,
      "d": 1500,
      "v": 66
    },
    {
      "midi": 60,
      "hit": false,
      "t": 127500,
      "d": 1500,
      "v": 75
    },
    {
      "midi": 64,
      "hit": false,
      "t": 127500,
      "d": 1500,
      "v": 75
    },
    {
      "midi": 66,
      "hit": false,
      "t": 127500,
      "d": 1500,
      "v": 75
    },
    {
      "midi": 68,
      "hit": false,
      "t": 127500,
      "d": 1500,
      "v": 75
    },
    {
      "midi": 72,
      "hit": false,
      "t": 127500,
      "d": 1500,
      "v": 75
    },
    {
      "midi": 60,
      "hit": false,
      "t": 127500,
      "d": 1500,
      "v": 75
    },
    {
      "midi": 64,
      "hit": false,
      "t": 127500,
      "d": 1500,
      "v": 75
    },
    {
      "midi": 66,
      "hit": false,
      "t": 127500,
      "d": 1500,
      "v": 75
    },
    {
      "midi": 68,
      "hit": false,
      "t": 127500,
      "d": 1500,
      "v": 75
    },
    {
      "midi": 72,
      "hit": false,
      "t": 127500,
      "d": 1500,
      "v": 75
    },
    {
      "midi": 60,
      "hit": false,
      "t": 127500,
      "d": 1500,
      "v": 66
    },
    {
      "midi": 53,
      "hit": false,
      "t": 129000,
      "d": 2250,
      "v": 66
    },
    {
      "midi": 50,
      "hit": false,
      "t": 129000,
      "d": 1125,
      "v": 75
    },
    {
      "midi": 53,
      "hit": false,
      "t": 129000,
      "d": 1125,
      "v": 75
    },
    {
      "midi": 57,
      "hit": false,
      "t": 129000,
      "d": 1125,
      "v": 75
    },
    {
      "midi": 60,
      "hit": false,
      "t": 129000,
      "d": 1125,
      "v": 75
    },
    {
      "midi": 65,
      "hit": false,
      "t": 129000,
      "d": 2250,
      "v": 75
    },
    {
      "midi": 50,
      "hit": false,
      "t": 129000,
      "d": 1125,
      "v": 75
    },
    {
      "midi": 53,
      "hit": false,
      "t": 129000,
      "d": 1125,
      "v": 75
    },
    {
      "midi": 57,
      "hit": false,
      "t": 129000,
      "d": 1125,
      "v": 75
    },
    {
      "midi": 60,
      "hit": false,
      "t": 129000,
      "d": 1125,
      "v": 75
    },
    {
      "midi": 65,
      "hit": false,
      "t": 129000,
      "d": 2250,
      "v": 75
    },
    {
      "midi": 53,
      "hit": false,
      "t": 129000,
      "d": 2250,
      "v": 66
    },
    {
      "midi": 50,
      "hit": false,
      "t": 130125,
      "d": 375,
      "v": 75
    },
    {
      "midi": 53,
      "hit": false,
      "t": 130125,
      "d": 375,
      "v": 75
    },
    {
      "midi": 57,
      "hit": false,
      "t": 130125,
      "d": 375,
      "v": 75
    },
    {
      "midi": 60,
      "hit": false,
      "t": 130125,
      "d": 375,
      "v": 75
    },
    {
      "midi": 50,
      "hit": false,
      "t": 130125,
      "d": 375,
      "v": 75
    },
    {
      "midi": 53,
      "hit": false,
      "t": 130125,
      "d": 375,
      "v": 75
    },
    {
      "midi": 57,
      "hit": false,
      "t": 130125,
      "d": 375,
      "v": 75
    },
    {
      "midi": 60,
      "hit": false,
      "t": 130125,
      "d": 375,
      "v": 75
    },
    {
      "midi": 49,
      "hit": false,
      "t": 130500,
      "d": 1500,
      "v": 75
    },
    {
      "midi": 53,
      "hit": false,
      "t": 130500,
      "d": 1500,
      "v": 75
    },
    {
      "midi": 56,
      "hit": false,
      "t": 130500,
      "d": 1500,
      "v": 75
    },
    {
      "midi": 59,
      "hit": false,
      "t": 130500,
      "d": 1500,
      "v": 75
    },
    {
      "midi": 49,
      "hit": false,
      "t": 130500,
      "d": 1500,
      "v": 75
    },
    {
      "midi": 53,
      "hit": false,
      "t": 130500,
      "d": 1500,
      "v": 75
    },
    {
      "midi": 56,
      "hit": false,
      "t": 130500,
      "d": 1500,
      "v": 75
    },
    {
      "midi": 59,
      "hit": false,
      "t": 130500,
      "d": 1500,
      "v": 75
    },
    {
      "midi": 55,
      "hit": false,
      "t": 131250,
      "d": 750,
      "v": 66
    },
    {
      "midi": 63,
      "hit": false,
      "t": 131250,
      "d": 750,
      "v": 75
    },
    {
      "midi": 67,
      "hit": false,
      "t": 131250,
      "d": 750,
      "v": 75
    },
    {
      "midi": 63,
      "hit": false,
      "t": 131250,
      "d": 750,
      "v": 75
    },
    {
      "midi": 67,
      "hit": false,
      "t": 131250,
      "d": 750,
      "v": 75
    },
    {
      "midi": 55,
      "hit": false,
      "t": 131250,
      "d": 750,
      "v": 66
    },
    {
      "midi": 52,
      "hit": false,
      "t": 132000,
      "d": 375,
      "v": 66
    },
    {
      "midi": 52,
      "hit": false,
      "t": 132000,
      "d": 375,
      "v": 75
    },
    {
      "midi": 55,
      "hit": false,
      "t": 132000,
      "d": 375,
      "v": 75
    },
    {
      "midi": 57,
      "hit": false,
      "t": 132000,
      "d": 375,
      "v": 75
    },
    {
      "midi": 60,
      "hit": false,
      "t": 132000,
      "d": 375,
      "v": 75
    },
    {
      "midi": 64,
      "hit": false,
      "t": 132000,
      "d": 375,
      "v": 75
    },
    {
      "midi": 52,
      "hit": false,
      "t": 132000,
      "d": 375,
      "v": 75
    },
    {
      "midi": 55,
      "hit": false,
      "t": 132000,
      "d": 375,
      "v": 75
    },
    {
      "midi": 57,
      "hit": false,
      "t": 132000,
      "d": 375,
      "v": 75
    },
    {
      "midi": 60,
      "hit": false,
      "t": 132000,
      "d": 375,
      "v": 75
    },
    {
      "midi": 64,
      "hit": false,
      "t": 132000,
      "d": 375,
      "v": 75
    },
    {
      "midi": 52,
      "hit": false,
      "t": 132000,
      "d": 375,
      "v": 66
    },
    {
      "midi": 59,
      "hit": false,
      "t": 132375,
      "d": 375,
      "v": 66
    },
    {
      "midi": 59,
      "hit": false,
      "t": 132375,
      "d": 375,
      "v": 75
    },
    {
      "midi": 62,
      "hit": false,
      "t": 132375,
      "d": 375,
      "v": 75
    },
    {
      "midi": 64,
      "hit": false,
      "t": 132375,
      "d": 375,
      "v": 75
    },
    {
      "midi": 67,
      "hit": false,
      "t": 132375,
      "d": 375,
      "v": 75
    },
    {
      "midi": 71,
      "hit": false,
      "t": 132375,
      "d": 375,
      "v": 75
    },
    {
      "midi": 59,
      "hit": false,
      "t": 132375,
      "d": 375,
      "v": 75
    },
    {
      "midi": 62,
      "hit": false,
      "t": 132375,
      "d": 375,
      "v": 75
    },
    {
      "midi": 64,
      "hit": false,
      "t": 132375,
      "d": 375,
      "v": 75
    },
    {
      "midi": 67,
      "hit": false,
      "t": 132375,
      "d": 375,
      "v": 75
    },
    {
      "midi": 71,
      "hit": false,
      "t": 132375,
      "d": 375,
      "v": 75
    },
    {
      "midi": 59,
      "hit": false,
      "t": 132375,
      "d": 375,
      "v": 66
    },
    {
      "midi": 60,
      "hit": false,
      "t": 132750,
      "d": 1500,
      "v": 66
    },
    {
      "midi": 60,
      "hit": false,
      "t": 132750,
      "d": 1500,
      "v": 75
    },
    {
      "midi": 64,
      "hit": false,
      "t": 132750,
      "d": 1500,
      "v": 75
    },
    {
      "midi": 67,
      "hit": false,
      "t": 132750,
      "d": 1500,
      "v": 75
    },
    {
      "midi": 69,
      "hit": false,
      "t": 132750,
      "d": 1500,
      "v": 75
    },
    {
      "midi": 72,
      "hit": false,
      "t": 132750,
      "d": 1500,
      "v": 75
    },
    {
      "midi": 60,
      "hit": false,
      "t": 132750,
      "d": 1500,
      "v": 75
    },
    {
      "midi": 64,
      "hit": false,
      "t": 132750,
      "d": 1500,
      "v": 75
    },
    {
      "midi": 67,
      "hit": false,
      "t": 132750,
      "d": 1500,
      "v": 75
    },
    {
      "midi": 69,
      "hit": false,
      "t": 132750,
      "d": 1500,
      "v": 75
    },
    {
      "midi": 72,
      "hit": false,
      "t": 132750,
      "d": 1500,
      "v": 75
    },
    {
      "midi": 60,
      "hit": false,
      "t": 132750,
      "d": 1500,
      "v": 66
    },
    {
      "midi": 52,
      "hit": false,
      "t": 134250,
      "d": 750,
      "v": 66
    },
    {
      "midi": 52,
      "hit": false,
      "t": 134250,
      "d": 750,
      "v": 75
    },
    {
      "midi": 55,
      "hit": false,
      "t": 134250,
      "d": 750,
      "v": 75
    },
    {
      "midi": 57,
      "hit": false,
      "t": 134250,
      "d": 750,
      "v": 75
    },
    {
      "midi": 60,
      "hit": false,
      "t": 134250,
      "d": 750,
      "v": 75
    },
    {
      "midi": 64,
      "hit": false,
      "t": 134250,
      "d": 750,
      "v": 75
    },
    {
      "midi": 52,
      "hit": false,
      "t": 134250,
      "d": 750,
      "v": 75
    },
    {
      "midi": 55,
      "hit": false,
      "t": 134250,
      "d": 750,
      "v": 75
    },
    {
      "midi": 57,
      "hit": false,
      "t": 134250,
      "d": 750,
      "v": 75
    },
    {
      "midi": 60,
      "hit": false,
      "t": 134250,
      "d": 750,
      "v": 75
    },
    {
      "midi": 64,
      "hit": false,
      "t": 134250,
      "d": 750,
      "v": 75
    },
    {
      "midi": 52,
      "hit": false,
      "t": 134250,
      "d": 750,
      "v": 66
    },
    {
      "midi": 53,
      "hit": false,
      "t": 135000,
      "d": 375,
      "v": 66
    },
    {
      "midi": 53,
      "hit": false,
      "t": 135000,
      "d": 375,
      "v": 75
    },
    {
      "midi": 57,
      "hit": false,
      "t": 135000,
      "d": 375,
      "v": 75
    },
    {
      "midi": 60,
      "hit": false,
      "t": 135000,
      "d": 375,
      "v": 75
    },
    {
      "midi": 62,
      "hit": false,
      "t": 135000,
      "d": 375,
      "v": 75
    },
    {
      "midi": 65,
      "hit": false,
      "t": 135000,
      "d": 375,
      "v": 75
    },
    {
      "midi": 53,
      "hit": false,
      "t": 135000,
      "d": 375,
      "v": 75
    },
    {
      "midi": 57,
      "hit": false,
      "t": 135000,
      "d": 375,
      "v": 75
    },
    {
      "midi": 60,
      "hit": false,
      "t": 135000,
      "d": 375,
      "v": 75
    },
    {
      "midi": 62,
      "hit": false,
      "t": 135000,
      "d": 375,
      "v": 75
    },
    {
      "midi": 65,
      "hit": false,
      "t": 135000,
      "d": 375,
      "v": 75
    },
    {
      "midi": 53,
      "hit": false,
      "t": 135000,
      "d": 375,
      "v": 66
    },
    {
      "midi": 59,
      "hit": false,
      "t": 135375,
      "d": 375,
      "v": 66
    },
    {
      "midi": 59,
      "hit": false,
      "t": 135375,
      "d": 375,
      "v": 75
    },
    {
      "midi": 62,
      "hit": false,
      "t": 135375,
      "d": 375,
      "v": 75
    },
    {
      "midi": 65,
      "hit": false,
      "t": 135375,
      "d": 375,
      "v": 75
    },
    {
      "midi": 68,
      "hit": false,
      "t": 135375,
      "d": 375,
      "v": 75
    },
    {
      "midi": 71,
      "hit": false,
      "t": 135375,
      "d": 375,
      "v": 75
    },
    {
      "midi": 59,
      "hit": false,
      "t": 135375,
      "d": 375,
      "v": 75
    },
    {
      "midi": 62,
      "hit": false,
      "t": 135375,
      "d": 375,
      "v": 75
    },
    {
      "midi": 65,
      "hit": false,
      "t": 135375,
      "d": 375,
      "v": 75
    },
    {
      "midi": 68,
      "hit": false,
      "t": 135375,
      "d": 375,
      "v": 75
    },
    {
      "midi": 71,
      "hit": false,
      "t": 135375,
      "d": 375,
      "v": 75
    },
    {
      "midi": 59,
      "hit": false,
      "t": 135375,
      "d": 375,
      "v": 66
    },
    {
      "midi": 60,
      "hit": false,
      "t": 135750,
      "d": 1500,
      "v": 66
    },
    {
      "midi": 60,
      "hit": false,
      "t": 135750,
      "d": 1500,
      "v": 75
    },
    {
      "midi": 62,
      "hit": false,
      "t": 135750,
      "d": 1500,
      "v": 75
    },
    {
      "midi": 65,
      "hit": false,
      "t": 135750,
      "d": 1500,
      "v": 75
    },
    {
      "midi": 69,
      "hit": false,
      "t": 135750,
      "d": 1500,
      "v": 75
    },
    {
      "midi": 72,
      "hit": false,
      "t": 135750,
      "d": 1500,
      "v": 75
    },
    {
      "midi": 60,
      "hit": false,
      "t": 135750,
      "d": 1500,
      "v": 75
    },
    {
      "midi": 62,
      "hit": false,
      "t": 135750,
      "d": 1500,
      "v": 75
    },
    {
      "midi": 65,
      "hit": false,
      "t": 135750,
      "d": 1500,
      "v": 75
    },
    {
      "midi": 69,
      "hit": false,
      "t": 135750,
      "d": 1500,
      "v": 75
    },
    {
      "midi": 72,
      "hit": false,
      "t": 135750,
      "d": 1500,
      "v": 75
    },
    {
      "midi": 60,
      "hit": false,
      "t": 135750,
      "d": 1500,
      "v": 66
    },
    {
      "midi": 53,
      "hit": false,
      "t": 137250,
      "d": 750,
      "v": 66
    },
    {
      "midi": 53,
      "hit": false,
      "t": 137250,
      "d": 750,
      "v": 75
    },
    {
      "midi": 57,
      "hit": false,
      "t": 137250,
      "d": 750,
      "v": 75
    },
    {
      "midi": 60,
      "hit": false,
      "t": 137250,
      "d": 750,
      "v": 75
    },
    {
      "midi": 62,
      "hit": false,
      "t": 137250,
      "d": 750,
      "v": 75
    },
    {
      "midi": 65,
      "hit": false,
      "t": 137250,
      "d": 750,
      "v": 75
    },
    {
      "midi": 53,
      "hit": false,
      "t": 137250,
      "d": 750,
      "v": 75
    },
    {
      "midi": 57,
      "hit": false,
      "t": 137250,
      "d": 750,
      "v": 75
    },
    {
      "midi": 60,
      "hit": false,
      "t": 137250,
      "d": 750,
      "v": 75
    },
    {
      "midi": 62,
      "hit": false,
      "t": 137250,
      "d": 750,
      "v": 75
    },
    {
      "midi": 65,
      "hit": false,
      "t": 137250,
      "d": 750,
      "v": 75
    },
    {
      "midi": 53,
      "hit": false,
      "t": 137250,
      "d": 750,
      "v": 66
    },
    {
      "midi": 55,
      "hit": false,
      "t": 138000,
      "d": 375,
      "v": 66
    },
    {
      "midi": 55,
      "hit": false,
      "t": 138000,
      "d": 375,
      "v": 75
    },
    {
      "midi": 59,
      "hit": false,
      "t": 138000,
      "d": 375,
      "v": 75
    },
    {
      "midi": 62,
      "hit": false,
      "t": 138000,
      "d": 375,
      "v": 75
    },
    {
      "midi": 64,
      "hit": false,
      "t": 138000,
      "d": 375,
      "v": 75
    },
    {
      "midi": 67,
      "hit": false,
      "t": 138000,
      "d": 375,
      "v": 75
    },
    {
      "midi": 55,
      "hit": false,
      "t": 138000,
      "d": 375,
      "v": 75
    },
    {
      "midi": 59,
      "hit": false,
      "t": 138000,
      "d": 375,
      "v": 75
    },
    {
      "midi": 62,
      "hit": false,
      "t": 138000,
      "d": 375,
      "v": 75
    },
    {
      "midi": 64,
      "hit": false,
      "t": 138000,
      "d": 375,
      "v": 75
    },
    {
      "midi": 67,
      "hit": false,
      "t": 138000,
      "d": 375,
      "v": 75
    },
    {
      "midi": 55,
      "hit": false,
      "t": 138000,
      "d": 375,
      "v": 66
    },
    {
      "midi": 59,
      "hit": false,
      "t": 138375,
      "d": 375,
      "v": 66
    },
    {
      "midi": 59,
      "hit": false,
      "t": 138375,
      "d": 375,
      "v": 75
    },
    {
      "midi": 62,
      "hit": false,
      "t": 138375,
      "d": 375,
      "v": 75
    },
    {
      "midi": 64,
      "hit": false,
      "t": 138375,
      "d": 375,
      "v": 75
    },
    {
      "midi": 67,
      "hit": false,
      "t": 138375,
      "d": 375,
      "v": 75
    },
    {
      "midi": 71,
      "hit": false,
      "t": 138375,
      "d": 375,
      "v": 75
    },
    {
      "midi": 59,
      "hit": false,
      "t": 138375,
      "d": 375,
      "v": 75
    },
    {
      "midi": 62,
      "hit": false,
      "t": 138375,
      "d": 375,
      "v": 75
    },
    {
      "midi": 64,
      "hit": false,
      "t": 138375,
      "d": 375,
      "v": 75
    },
    {
      "midi": 67,
      "hit": false,
      "t": 138375,
      "d": 375,
      "v": 75
    },
    {
      "midi": 71,
      "hit": false,
      "t": 138375,
      "d": 375,
      "v": 75
    },
    {
      "midi": 59,
      "hit": false,
      "t": 138375,
      "d": 375,
      "v": 66
    },
    {
      "midi": 60,
      "hit": false,
      "t": 138750,
      "d": 750,
      "v": 66
    },
    {
      "midi": 60,
      "hit": false,
      "t": 138750,
      "d": 750,
      "v": 75
    },
    {
      "midi": 64,
      "hit": false,
      "t": 138750,
      "d": 750,
      "v": 75
    },
    {
      "midi": 67,
      "hit": false,
      "t": 138750,
      "d": 750,
      "v": 75
    },
    {
      "midi": 69,
      "hit": false,
      "t": 138750,
      "d": 750,
      "v": 75
    },
    {
      "midi": 72,
      "hit": false,
      "t": 138750,
      "d": 750,
      "v": 75
    },
    {
      "midi": 60,
      "hit": false,
      "t": 138750,
      "d": 750,
      "v": 75
    },
    {
      "midi": 64,
      "hit": false,
      "t": 138750,
      "d": 750,
      "v": 75
    },
    {
      "midi": 67,
      "hit": false,
      "t": 138750,
      "d": 750,
      "v": 75
    },
    {
      "midi": 69,
      "hit": false,
      "t": 138750,
      "d": 750,
      "v": 75
    },
    {
      "midi": 72,
      "hit": false,
      "t": 138750,
      "d": 750,
      "v": 75
    },
    {
      "midi": 60,
      "hit": false,
      "t": 138750,
      "d": 750,
      "v": 66
    },
    {
      "midi": 56,
      "hit": false,
      "t": 139500,
      "d": 375,
      "v": 66
    },
    {
      "midi": 56,
      "hit": false,
      "t": 139500,
      "d": 375,
      "v": 75
    },
    {
      "midi": 59,
      "hit": false,
      "t": 139500,
      "d": 375,
      "v": 75
    },
    {
      "midi": 62,
      "hit": false,
      "t": 139500,
      "d": 375,
      "v": 75
    },
    {
      "midi": 64,
      "hit": false,
      "t": 139500,
      "d": 375,
      "v": 75
    },
    {
      "midi": 68,
      "hit": false,
      "t": 139500,
      "d": 375,
      "v": 75
    },
    {
      "midi": 56,
      "hit": false,
      "t": 139500,
      "d": 375,
      "v": 75
    },
    {
      "midi": 59,
      "hit": false,
      "t": 139500,
      "d": 375,
      "v": 75
    },
    {
      "midi": 62,
      "hit": false,
      "t": 139500,
      "d": 375,
      "v": 75
    },
    {
      "midi": 64,
      "hit": false,
      "t": 139500,
      "d": 375,
      "v": 75
    },
    {
      "midi": 68,
      "hit": false,
      "t": 139500,
      "d": 375,
      "v": 75
    },
    {
      "midi": 56,
      "hit": false,
      "t": 139500,
      "d": 375,
      "v": 66
    },
    {
      "midi": 59,
      "hit": false,
      "t": 139875,
      "d": 375,
      "v": 66
    },
    {
      "midi": 59,
      "hit": false,
      "t": 139875,
      "d": 375,
      "v": 75
    },
    {
      "midi": 62,
      "hit": false,
      "t": 139875,
      "d": 375,
      "v": 75
    },
    {
      "midi": 64,
      "hit": false,
      "t": 139875,
      "d": 375,
      "v": 75
    },
    {
      "midi": 68,
      "hit": false,
      "t": 139875,
      "d": 375,
      "v": 75
    },
    {
      "midi": 71,
      "hit": false,
      "t": 139875,
      "d": 375,
      "v": 75
    },
    {
      "midi": 59,
      "hit": false,
      "t": 139875,
      "d": 375,
      "v": 75
    },
    {
      "midi": 62,
      "hit": false,
      "t": 139875,
      "d": 375,
      "v": 75
    },
    {
      "midi": 64,
      "hit": false,
      "t": 139875,
      "d": 375,
      "v": 75
    },
    {
      "midi": 68,
      "hit": false,
      "t": 139875,
      "d": 375,
      "v": 75
    },
    {
      "midi": 71,
      "hit": false,
      "t": 139875,
      "d": 375,
      "v": 75
    },
    {
      "midi": 59,
      "hit": false,
      "t": 139875,
      "d": 375,
      "v": 66
    },
    {
      "midi": 60,
      "hit": false,
      "t": 140250,
      "d": 750,
      "v": 66
    },
    {
      "midi": 60,
      "hit": false,
      "t": 140250,
      "d": 750,
      "v": 75
    },
    {
      "midi": 62,
      "hit": false,
      "t": 140250,
      "d": 750,
      "v": 75
    },
    {
      "midi": 64,
      "hit": false,
      "t": 140250,
      "d": 750,
      "v": 75
    },
    {
      "midi": 68,
      "hit": false,
      "t": 140250,
      "d": 750,
      "v": 75
    },
    {
      "midi": 72,
      "hit": false,
      "t": 140250,
      "d": 750,
      "v": 75
    },
    {
      "midi": 60,
      "hit": false,
      "t": 140250,
      "d": 750,
      "v": 75
    },
    {
      "midi": 62,
      "hit": false,
      "t": 140250,
      "d": 750,
      "v": 75
    },
    {
      "midi": 64,
      "hit": false,
      "t": 140250,
      "d": 750,
      "v": 75
    },
    {
      "midi": 68,
      "hit": false,
      "t": 140250,
      "d": 750,
      "v": 75
    },
    {
      "midi": 72,
      "hit": false,
      "t": 140250,
      "d": 750,
      "v": 75
    },
    {
      "midi": 60,
      "hit": false,
      "t": 140250,
      "d": 750,
      "v": 66
    },
    {
      "midi": 57,
      "hit": false,
      "t": 141000,
      "d": 375,
      "v": 66
    },
    {
      "midi": 57,
      "hit": false,
      "t": 141000,
      "d": 375,
      "v": 75
    },
    {
      "midi": 60,
      "hit": false,
      "t": 141000,
      "d": 375,
      "v": 75
    },
    {
      "midi": 62,
      "hit": false,
      "t": 141000,
      "d": 375,
      "v": 75
    },
    {
      "midi": 65,
      "hit": false,
      "t": 141000,
      "d": 375,
      "v": 75
    },
    {
      "midi": 69,
      "hit": false,
      "t": 141000,
      "d": 375,
      "v": 75
    },
    {
      "midi": 57,
      "hit": false,
      "t": 141000,
      "d": 375,
      "v": 75
    },
    {
      "midi": 60,
      "hit": false,
      "t": 141000,
      "d": 375,
      "v": 75
    },
    {
      "midi": 62,
      "hit": false,
      "t": 141000,
      "d": 375,
      "v": 75
    },
    {
      "midi": 65,
      "hit": false,
      "t": 141000,
      "d": 375,
      "v": 75
    },
    {
      "midi": 69,
      "hit": false,
      "t": 141000,
      "d": 375,
      "v": 75
    },
    {
      "midi": 57,
      "hit": false,
      "t": 141000,
      "d": 375,
      "v": 66
    },
    {
      "midi": 59,
      "hit": false,
      "t": 141375,
      "d": 375,
      "v": 66
    },
    {
      "midi": 59,
      "hit": false,
      "t": 141375,
      "d": 375,
      "v": 75
    },
    {
      "midi": 62,
      "hit": false,
      "t": 141375,
      "d": 375,
      "v": 75
    },
    {
      "midi": 65,
      "hit": false,
      "t": 141375,
      "d": 375,
      "v": 75
    },
    {
      "midi": 67,
      "hit": false,
      "t": 141375,
      "d": 375,
      "v": 75
    },
    {
      "midi": 71,
      "hit": false,
      "t": 141375,
      "d": 375,
      "v": 75
    },
    {
      "midi": 59,
      "hit": false,
      "t": 141375,
      "d": 375,
      "v": 75
    },
    {
      "midi": 62,
      "hit": false,
      "t": 141375,
      "d": 375,
      "v": 75
    },
    {
      "midi": 65,
      "hit": false,
      "t": 141375,
      "d": 375,
      "v": 75
    },
    {
      "midi": 67,
      "hit": false,
      "t": 141375,
      "d": 375,
      "v": 75
    },
    {
      "midi": 71,
      "hit": false,
      "t": 141375,
      "d": 375,
      "v": 75
    },
    {
      "midi": 59,
      "hit": false,
      "t": 141375,
      "d": 375,
      "v": 66
    },
    {
      "midi": 60,
      "hit": false,
      "t": 141750,
      "d": 1500,
      "v": 66
    },
    {
      "midi": 60,
      "hit": false,
      "t": 141750,
      "d": 1500,
      "v": 75
    },
    {
      "midi": 62,
      "hit": false,
      "t": 141750,
      "d": 1500,
      "v": 75
    },
    {
      "midi": 65,
      "hit": false,
      "t": 141750,
      "d": 1500,
      "v": 75
    },
    {
      "midi": 69,
      "hit": false,
      "t": 141750,
      "d": 1500,
      "v": 75
    },
    {
      "midi": 72,
      "hit": false,
      "t": 141750,
      "d": 1500,
      "v": 75
    },
    {
      "midi": 60,
      "hit": false,
      "t": 141750,
      "d": 1500,
      "v": 75
    },
    {
      "midi": 62,
      "hit": false,
      "t": 141750,
      "d": 1500,
      "v": 75
    },
    {
      "midi": 65,
      "hit": false,
      "t": 141750,
      "d": 1500,
      "v": 75
    },
    {
      "midi": 69,
      "hit": false,
      "t": 141750,
      "d": 1500,
      "v": 75
    },
    {
      "midi": 72,
      "hit": false,
      "t": 141750,
      "d": 1500,
      "v": 75
    },
    {
      "midi": 60,
      "hit": false,
      "t": 141750,
      "d": 1500,
      "v": 66
    },
    {
      "midi": 59,
      "hit": false,
      "t": 143250,
      "d": 750,
      "v": 66
    },
    {
      "midi": 59,
      "hit": false,
      "t": 143250,
      "d": 750,
      "v": 75
    },
    {
      "midi": 62,
      "hit": false,
      "t": 143250,
      "d": 750,
      "v": 75
    },
    {
      "midi": 65,
      "hit": false,
      "t": 143250,
      "d": 750,
      "v": 75
    },
    {
      "midi": 68,
      "hit": false,
      "t": 143250,
      "d": 750,
      "v": 75
    },
    {
      "midi": 71,
      "hit": false,
      "t": 143250,
      "d": 750,
      "v": 75
    },
    {
      "midi": 59,
      "hit": false,
      "t": 143250,
      "d": 750,
      "v": 75
    },
    {
      "midi": 62,
      "hit": false,
      "t": 143250,
      "d": 750,
      "v": 75
    },
    {
      "midi": 65,
      "hit": false,
      "t": 143250,
      "d": 750,
      "v": 75
    },
    {
      "midi": 68,
      "hit": false,
      "t": 143250,
      "d": 750,
      "v": 75
    },
    {
      "midi": 71,
      "hit": false,
      "t": 143250,
      "d": 750,
      "v": 75
    },
    {
      "midi": 59,
      "hit": false,
      "t": 143250,
      "d": 750,
      "v": 66
    },
    {
      "midi": 60,
      "hit": false,
      "t": 144000,
      "d": 750,
      "v": 66
    },
    {
      "midi": 60,
      "hit": false,
      "t": 144000,
      "d": 750,
      "v": 75
    },
    {
      "midi": 64,
      "hit": false,
      "t": 144000,
      "d": 750,
      "v": 75
    },
    {
      "midi": 67,
      "hit": false,
      "t": 144000,
      "d": 750,
      "v": 75
    },
    {
      "midi": 69,
      "hit": false,
      "t": 144000,
      "d": 750,
      "v": 75
    },
    {
      "midi": 72,
      "hit": false,
      "t": 144000,
      "d": 750,
      "v": 75
    },
    {
      "midi": 60,
      "hit": false,
      "t": 144000,
      "d": 750,
      "v": 75
    },
    {
      "midi": 64,
      "hit": false,
      "t": 144000,
      "d": 750,
      "v": 75
    },
    {
      "midi": 67,
      "hit": false,
      "t": 144000,
      "d": 750,
      "v": 75
    },
    {
      "midi": 69,
      "hit": false,
      "t": 144000,
      "d": 750,
      "v": 75
    },
    {
      "midi": 72,
      "hit": false,
      "t": 144000,
      "d": 750,
      "v": 75
    },
    {
      "midi": 60,
      "hit": false,
      "t": 144000,
      "d": 750,
      "v": 66
    },
    {
      "midi": 59,
      "hit": false,
      "t": 145500,
      "d": 375,
      "v": 66
    },
    {
      "midi": 59,
      "hit": false,
      "t": 145500,
      "d": 375,
      "v": 75
    },
    {
      "midi": 60,
      "hit": false,
      "t": 145500,
      "d": 375,
      "v": 75
    },
    {
      "midi": 63,
      "hit": false,
      "t": 145500,
      "d": 375,
      "v": 75
    },
    {
      "midi": 66,
      "hit": false,
      "t": 145500,
      "d": 375,
      "v": 75
    },
    {
      "midi": 71,
      "hit": false,
      "t": 145500,
      "d": 375,
      "v": 75
    },
    {
      "midi": 59,
      "hit": false,
      "t": 145500,
      "d": 375,
      "v": 75
    },
    {
      "midi": 60,
      "hit": false,
      "t": 145500,
      "d": 375,
      "v": 75
    },
    {
      "midi": 63,
      "hit": false,
      "t": 145500,
      "d": 375,
      "v": 75
    },
    {
      "midi": 66,
      "hit": false,
      "t": 145500,
      "d": 375,
      "v": 75
    },
    {
      "midi": 71,
      "hit": false,
      "t": 145500,
      "d": 375,
      "v": 75
    },
    {
      "midi": 59,
      "hit": false,
      "t": 145500,
      "d": 375,
      "v": 66
    },
    {
      "midi": 57,
      "hit": false,
      "t": 145875,
      "d": 375,
      "v": 66
    },
    {
      "midi": 57,
      "hit": false,
      "t": 145875,
      "d": 375,
      "v": 75
    },
    {
      "midi": 60,
      "hit": false,
      "t": 145875,
      "d": 375,
      "v": 75
    },
    {
      "midi": 63,
      "hit": false,
      "t": 145875,
      "d": 375,
      "v": 75
    },
    {
      "midi": 66,
      "hit": false,
      "t": 145875,
      "d": 375,
      "v": 75
    },
    {
      "midi": 69,
      "hit": false,
      "t": 145875,
      "d": 375,
      "v": 75
    },
    {
      "midi": 57,
      "hit": false,
      "t": 145875,
      "d": 375,
      "v": 75
    },
    {
      "midi": 60,
      "hit": false,
      "t": 145875,
      "d": 375,
      "v": 75
    },
    {
      "midi": 63,
      "hit": false,
      "t": 145875,
      "d": 375,
      "v": 75
    },
    {
      "midi": 66,
      "hit": false,
      "t": 145875,
      "d": 375,
      "v": 75
    },
    {
      "midi": 69,
      "hit": false,
      "t": 145875,
      "d": 375,
      "v": 75
    },
    {
      "midi": 57,
      "hit": false,
      "t": 145875,
      "d": 375,
      "v": 66
    },
    {
      "midi": 55,
      "hit": false,
      "t": 146250,
      "d": 375,
      "v": 66
    },
    {
      "midi": 55,
      "hit": false,
      "t": 146250,
      "d": 375,
      "v": 75
    },
    {
      "midi": 57,
      "hit": false,
      "t": 146250,
      "d": 375,
      "v": 75
    },
    {
      "midi": 60,
      "hit": false,
      "t": 146250,
      "d": 375,
      "v": 75
    },
    {
      "midi": 63,
      "hit": false,
      "t": 146250,
      "d": 375,
      "v": 75
    },
    {
      "midi": 67,
      "hit": false,
      "t": 146250,
      "d": 375,
      "v": 75
    },
    {
      "midi": 55,
      "hit": false,
      "t": 146250,
      "d": 375,
      "v": 75
    },
    {
      "midi": 57,
      "hit": false,
      "t": 146250,
      "d": 375,
      "v": 75
    },
    {
      "midi": 60,
      "hit": false,
      "t": 146250,
      "d": 375,
      "v": 75
    },
    {
      "midi": 63,
      "hit": false,
      "t": 146250,
      "d": 375,
      "v": 75
    },
    {
      "midi": 67,
      "hit": false,
      "t": 146250,
      "d": 375,
      "v": 75
    },
    {
      "midi": 55,
      "hit": false,
      "t": 146250,
      "d": 375,
      "v": 66
    },
    {
      "midi": 54,
      "hit": false,
      "t": 146625,
      "d": 375,
      "v": 66
    },
    {
      "midi": 54,
      "hit": false,
      "t": 146625,
      "d": 375,
      "v": 75
    },
    {
      "midi": 57,
      "hit": false,
      "t": 146625,
      "d": 375,
      "v": 75
    },
    {
      "midi": 60,
      "hit": false,
      "t": 146625,
      "d": 375,
      "v": 75
    },
    {
      "midi": 63,
      "hit": false,
      "t": 146625,
      "d": 375,
      "v": 75
    },
    {
      "midi": 66,
      "hit": false,
      "t": 146625,
      "d": 375,
      "v": 75
    },
    {
      "midi": 54,
      "hit": false,
      "t": 146625,
      "d": 375,
      "v": 75
    },
    {
      "midi": 57,
      "hit": false,
      "t": 146625,
      "d": 375,
      "v": 75
    },
    {
      "midi": 60,
      "hit": false,
      "t": 146625,
      "d": 375,
      "v": 75
    },
    {
      "midi": 63,
      "hit": false,
      "t": 146625,
      "d": 375,
      "v": 75
    },
    {
      "midi": 66,
      "hit": false,
      "t": 146625,
      "d": 375,
      "v": 75
    },
    {
      "midi": 54,
      "hit": false,
      "t": 146625,
      "d": 375,
      "v": 66
    },
    {
      "midi": 55,
      "hit": false,
      "t": 147000,
      "d": 750,
      "v": 66
    },
    {
      "midi": 55,
      "hit": false,
      "t": 147000,
      "d": 750,
      "v": 75
    },
    {
      "midi": 57,
      "hit": false,
      "t": 147000,
      "d": 750,
      "v": 75
    },
    {
      "midi": 60,
      "hit": false,
      "t": 147000,
      "d": 750,
      "v": 75
    },
    {
      "midi": 62,
      "hit": false,
      "t": 147000,
      "d": 750,
      "v": 75
    },
    {
      "midi": 67,
      "hit": false,
      "t": 147000,
      "d": 750,
      "v": 75
    },
    {
      "midi": 55,
      "hit": false,
      "t": 147000,
      "d": 750,
      "v": 75
    },
    {
      "midi": 57,
      "hit": false,
      "t": 147000,
      "d": 750,
      "v": 75
    },
    {
      "midi": 60,
      "hit": false,
      "t": 147000,
      "d": 750,
      "v": 75
    },
    {
      "midi": 62,
      "hit": false,
      "t": 147000,
      "d": 750,
      "v": 75
    },
    {
      "midi": 67,
      "hit": false,
      "t": 147000,
      "d": 750,
      "v": 75
    },
    {
      "midi": 55,
      "hit": false,
      "t": 147000,
      "d": 750,
      "v": 66
    },
    {
      "midi": 62,
      "hit": false,
      "t": 147750,
      "d": 1500,
      "v": 66
    },
    {
      "midi": 69,
      "hit": false,
      "t": 147750,
      "d": 750,
      "v": 75
    },
    {
      "midi": 72,
      "hit": false,
      "t": 147750,
      "d": 750,
      "v": 75
    },
    {
      "midi": 62,
      "hit": false,
      "t": 147750,
      "d": 1500,
      "v": 75
    },
    {
      "midi": 65,
      "hit": false,
      "t": 147750,
      "d": 1500,
      "v": 75
    },
    {
      "midi": 74,
      "hit": false,
      "t": 147750,
      "d": 1500,
      "v": 75
    },
    {
      "midi": 69,
      "hit": false,
      "t": 147750,
      "d": 750,
      "v": 75
    },
    {
      "midi": 72,
      "hit": false,
      "t": 147750,
      "d": 750,
      "v": 75
    },
    {
      "midi": 62,
      "hit": false,
      "t": 147750,
      "d": 1500,
      "v": 75
    },
    {
      "midi": 65,
      "hit": false,
      "t": 147750,
      "d": 1500,
      "v": 75
    },
    {
      "midi": 74,
      "hit": false,
      "t": 147750,
      "d": 1500,
      "v": 75
    },
    {
      "midi": 62,
      "hit": false,
      "t": 147750,
      "d": 1500,
      "v": 66
    },
    {
      "midi": 67,
      "hit": false,
      "t": 148500,
      "d": 750,
      "v": 75
    },
    {
      "midi": 71,
      "hit": false,
      "t": 148500,
      "d": 750,
      "v": 75
    },
    {
      "midi": 67,
      "hit": false,
      "t": 148500,
      "d": 750,
      "v": 75
    },
    {
      "midi": 71,
      "hit": false,
      "t": 148500,
      "d": 750,
      "v": 75
    },
    {
      "midi": 55,
      "hit": false,
      "t": 149250,
      "d": 750,
      "v": 66
    },
    {
      "midi": 55,
      "hit": false,
      "t": 149250,
      "d": 750,
      "v": 75
    },
    {
      "midi": 59,
      "hit": false,
      "t": 149250,
      "d": 750,
      "v": 75
    },
    {
      "midi": 62,
      "hit": false,
      "t": 149250,
      "d": 750,
      "v": 75
    },
    {
      "midi": 65,
      "hit": false,
      "t": 149250,
      "d": 750,
      "v": 75
    },
    {
      "midi": 67,
      "hit": false,
      "t": 149250,
      "d": 750,
      "v": 75
    },
    {
      "midi": 55,
      "hit": false,
      "t": 149250,
      "d": 750,
      "v": 75
    },
    {
      "midi": 59,
      "hit": false,
      "t": 149250,
      "d": 750,
      "v": 75
    },
    {
      "midi": 62,
      "hit": false,
      "t": 149250,
      "d": 750,
      "v": 75
    },
    {
      "midi": 65,
      "hit": false,
      "t": 149250,
      "d": 750,
      "v": 75
    },
    {
      "midi": 67,
      "hit": false,
      "t": 149250,
      "d": 750,
      "v": 75
    },
    {
      "midi": 55,
      "hit": false,
      "t": 149250,
      "d": 750,
      "v": 66
    },
    {
      "midi": 60,
      "hit": false,
      "t": 150000,
      "d": 3750,
      "v": 66
    },
    {
      "midi": 60,
      "hit": false,
      "t": 150000,
      "d": 750,
      "v": 75
    },
    {
      "midi": 64,
      "hit": false,
      "t": 150000,
      "d": 750,
      "v": 75
    },
    {
      "midi": 67,
      "hit": false,
      "t": 150000,
      "d": 750,
      "v": 75
    },
    {
      "midi": 69,
      "hit": false,
      "t": 150000,
      "d": 750,
      "v": 75
    },
    {
      "midi": 72,
      "hit": false,
      "t": 150000,
      "d": 750,
      "v": 75
    },
    {
      "midi": 60,
      "hit": false,
      "t": 150000,
      "d": 750,
      "v": 75
    },
    {
      "midi": 64,
      "hit": false,
      "t": 150000,
      "d": 750,
      "v": 75
    },
    {
      "midi": 67,
      "hit": false,
      "t": 150000,
      "d": 750,
      "v": 75
    },
    {
      "midi": 69,
      "hit": false,
      "t": 150000,
      "d": 750,
      "v": 75
    },
    {
      "midi": 72,
      "hit": false,
      "t": 150000,
      "d": 750,
      "v": 75
    },
    {
      "midi": 60,
      "hit": false,
      "t": 150000,
      "d": 3750,
      "v": 66
    },
    {
      "midi": 59,
      "hit": false,
      "t": 150750,
      "d": 375,
      "v": 75
    },
    {
      "midi": 62,
      "hit": false,
      "t": 150750,
      "d": 375,
      "v": 75
    },
    {
      "midi": 64,
      "hit": false,
      "t": 150750,
      "d": 375,
      "v": 75
    },
    {
      "midi": 67,
      "hit": false,
      "t": 150750,
      "d": 375,
      "v": 75
    },
    {
      "midi": 71,
      "hit": false,
      "t": 150750,
      "d": 375,
      "v": 75
    },
    {
      "midi": 59,
      "hit": false,
      "t": 150750,
      "d": 375,
      "v": 75
    },
    {
      "midi": 62,
      "hit": false,
      "t": 150750,
      "d": 375,
      "v": 75
    },
    {
      "midi": 64,
      "hit": false,
      "t": 150750,
      "d": 375,
      "v": 75
    },
    {
      "midi": 67,
      "hit": false,
      "t": 150750,
      "d": 375,
      "v": 75
    },
    {
      "midi": 71,
      "hit": false,
      "t": 150750,
      "d": 375,
      "v": 75
    },
    {
      "midi": 60,
      "hit": false,
      "t": 151125,
      "d": 375,
      "v": 75
    },
    {
      "midi": 64,
      "hit": false,
      "t": 151125,
      "d": 375,
      "v": 75
    },
    {
      "midi": 67,
      "hit": false,
      "t": 151125,
      "d": 375,
      "v": 75
    },
    {
      "midi": 69,
      "hit": false,
      "t": 151125,
      "d": 375,
      "v": 75
    },
    {
      "midi": 72,
      "hit": false,
      "t": 151125,
      "d": 375,
      "v": 75
    },
    {
      "midi": 60,
      "hit": false,
      "t": 151125,
      "d": 375,
      "v": 75
    },
    {
      "midi": 64,
      "hit": false,
      "t": 151125,
      "d": 375,
      "v": 75
    },
    {
      "midi": 67,
      "hit": false,
      "t": 151125,
      "d": 375,
      "v": 75
    },
    {
      "midi": 69,
      "hit": false,
      "t": 151125,
      "d": 375,
      "v": 75
    },
    {
      "midi": 72,
      "hit": false,
      "t": 151125,
      "d": 375,
      "v": 75
    },
    {
      "midi": 62,
      "hit": false,
      "t": 151500,
      "d": 750,
      "v": 75
    },
    {
      "midi": 64,
      "hit": false,
      "t": 151500,
      "d": 750,
      "v": 75
    },
    {
      "midi": 67,
      "hit": false,
      "t": 151500,
      "d": 750,
      "v": 75
    },
    {
      "midi": 71,
      "hit": false,
      "t": 151500,
      "d": 750,
      "v": 75
    },
    {
      "midi": 74,
      "hit": false,
      "t": 151500,
      "d": 750,
      "v": 75
    },
    {
      "midi": 62,
      "hit": false,
      "t": 151500,
      "d": 750,
      "v": 75
    },
    {
      "midi": 64,
      "hit": false,
      "t": 151500,
      "d": 750,
      "v": 75
    },
    {
      "midi": 67,
      "hit": false,
      "t": 151500,
      "d": 750,
      "v": 75
    },
    {
      "midi": 71,
      "hit": false,
      "t": 151500,
      "d": 750,
      "v": 75
    },
    {
      "midi": 74,
      "hit": false,
      "t": 151500,
      "d": 750,
      "v": 75
    },
    {
      "midi": 60,
      "hit": false,
      "t": 152250,
      "d": 750,
      "v": 75
    },
    {
      "midi": 64,
      "hit": false,
      "t": 152250,
      "d": 750,
      "v": 75
    },
    {
      "midi": 67,
      "hit": false,
      "t": 152250,
      "d": 750,
      "v": 75
    },
    {
      "midi": 69,
      "hit": false,
      "t": 152250,
      "d": 750,
      "v": 75
    },
    {
      "midi": 72,
      "hit": false,
      "t": 152250,
      "d": 750,
      "v": 75
    },
    {
      "midi": 60,
      "hit": false,
      "t": 152250,
      "d": 750,
      "v": 75
    },
    {
      "midi": 64,
      "hit": false,
      "t": 152250,
      "d": 750,
      "v": 75
    },
    {
      "midi": 67,
      "hit": false,
      "t": 152250,
      "d": 750,
      "v": 75
    },
    {
      "midi": 69,
      "hit": false,
      "t": 152250,
      "d": 750,
      "v": 75
    },
    {
      "midi": 72,
      "hit": false,
      "t": 152250,
      "d": 750,
      "v": 75
    },
    {
      "midi": 50,
      "hit": false,
      "t": 153000,
      "d": 750,
      "v": 75
    },
    {
      "midi": 53,
      "hit": false,
      "t": 153000,
      "d": 750,
      "v": 75
    },
    {
      "midi": 57,
      "hit": false,
      "t": 153000,
      "d": 750,
      "v": 75
    },
    {
      "midi": 60,
      "hit": false,
      "t": 153000,
      "d": 750,
      "v": 75
    },
    {
      "midi": 62,
      "hit": false,
      "t": 153000,
      "d": 750,
      "v": 75
    },
    {
      "midi": 50,
      "hit": false,
      "t": 153000,
      "d": 750,
      "v": 75
    },
    {
      "midi": 53,
      "hit": false,
      "t": 153000,
      "d": 750,
      "v": 75
    },
    {
      "midi": 57,
      "hit": false,
      "t": 153000,
      "d": 750,
      "v": 75
    },
    {
      "midi": 60,
      "hit": false,
      "t": 153000,
      "d": 750,
      "v": 75
    },
    {
      "midi": 62,
      "hit": false,
      "t": 153000,
      "d": 750,
      "v": 75
    },
    {
      "midi": 52,
      "hit": false,
      "t": 153750,
      "d": 375,
      "v": 75
    },
    {
      "midi": 53,
      "hit": false,
      "t": 153750,
      "d": 375,
      "v": 75
    },
    {
      "midi": 57,
      "hit": false,
      "t": 153750,
      "d": 375,
      "v": 75
    },
    {
      "midi": 60,
      "hit": false,
      "t": 153750,
      "d": 375,
      "v": 75
    },
    {
      "midi": 64,
      "hit": false,
      "t": 153750,
      "d": 375,
      "v": 75
    },
    {
      "midi": 52,
      "hit": false,
      "t": 153750,
      "d": 375,
      "v": 75
    },
    {
      "midi": 53,
      "hit": false,
      "t": 153750,
      "d": 375,
      "v": 75
    },
    {
      "midi": 57,
      "hit": false,
      "t": 153750,
      "d": 375,
      "v": 75
    },
    {
      "midi": 60,
      "hit": false,
      "t": 153750,
      "d": 375,
      "v": 75
    },
    {
      "midi": 64,
      "hit": false,
      "t": 153750,
      "d": 375,
      "v": 75
    },
    {
      "midi": 53,
      "hit": false,
      "t": 154125,
      "d": 375,
      "v": 75
    },
    {
      "midi": 57,
      "hit": false,
      "t": 154125,
      "d": 375,
      "v": 75
    },
    {
      "midi": 60,
      "hit": false,
      "t": 154125,
      "d": 375,
      "v": 75
    },
    {
      "midi": 62,
      "hit": false,
      "t": 154125,
      "d": 375,
      "v": 75
    },
    {
      "midi": 65,
      "hit": false,
      "t": 154125,
      "d": 375,
      "v": 75
    },
    {
      "midi": 53,
      "hit": false,
      "t": 154125,
      "d": 375,
      "v": 75
    },
    {
      "midi": 57,
      "hit": false,
      "t": 154125,
      "d": 375,
      "v": 75
    },
    {
      "midi": 60,
      "hit": false,
      "t": 154125,
      "d": 375,
      "v": 75
    },
    {
      "midi": 62,
      "hit": false,
      "t": 154125,
      "d": 375,
      "v": 75
    },
    {
      "midi": 65,
      "hit": false,
      "t": 154125,
      "d": 375,
      "v": 75
    },
    {
      "midi": 55,
      "hit": false,
      "t": 154500,
      "d": 750,
      "v": 75
    },
    {
      "midi": 59,
      "hit": false,
      "t": 154500,
      "d": 750,
      "v": 75
    },
    {
      "midi": 62,
      "hit": false,
      "t": 154500,
      "d": 750,
      "v": 75
    },
    {
      "midi": 65,
      "hit": false,
      "t": 154500,
      "d": 750,
      "v": 75
    },
    {
      "midi": 67,
      "hit": false,
      "t": 154500,
      "d": 750,
      "v": 75
    },
    {
      "midi": 55,
      "hit": false,
      "t": 154500,
      "d": 750,
      "v": 75
    },
    {
      "midi": 59,
      "hit": false,
      "t": 154500,
      "d": 750,
      "v": 75
    },
    {
      "midi": 62,
      "hit": false,
      "t": 154500,
      "d": 750,
      "v": 75
    },
    {
      "midi": 65,
      "hit": false,
      "t": 154500,
      "d": 750,
      "v": 75
    },
    {
      "midi": 67,
      "hit": false,
      "t": 154500,
      "d": 750,
      "v": 75
    },
    {
      "midi": 55,
      "hit": false,
      "t": 155250,
      "d": 750,
      "v": 66
    },
    {
      "midi": 49,
      "hit": false,
      "t": 155250,
      "d": 750,
      "v": 75
    },
    {
      "midi": 53,
      "hit": false,
      "t": 155250,
      "d": 750,
      "v": 75
    },
    {
      "midi": 56,
      "hit": false,
      "t": 155250,
      "d": 750,
      "v": 75
    },
    {
      "midi": 59,
      "hit": false,
      "t": 155250,
      "d": 750,
      "v": 75
    },
    {
      "midi": 63,
      "hit": false,
      "t": 155250,
      "d": 750,
      "v": 75
    },
    {
      "midi": 67,
      "hit": false,
      "t": 155250,
      "d": 750,
      "v": 75
    },
    {
      "midi": 49,
      "hit": false,
      "t": 155250,
      "d": 750,
      "v": 75
    },
    {
      "midi": 53,
      "hit": false,
      "t": 155250,
      "d": 750,
      "v": 75
    },
    {
      "midi": 56,
      "hit": false,
      "t": 155250,
      "d": 750,
      "v": 75
    },
    {
      "midi": 59,
      "hit": false,
      "t": 155250,
      "d": 750,
      "v": 75
    },
    {
      "midi": 63,
      "hit": false,
      "t": 155250,
      "d": 750,
      "v": 75
    },
    {
      "midi": 67,
      "hit": false,
      "t": 155250,
      "d": 750,
      "v": 75
    },
    {
      "midi": 55,
      "hit": false,
      "t": 155250,
      "d": 750,
      "v": 66
    },
    {
      "midi": 52,
      "hit": false,
      "t": 156000,
      "d": 375,
      "v": 66
    },
    {
      "midi": 52,
      "hit": false,
      "t": 156000,
      "d": 375,
      "v": 75
    },
    {
      "midi": 55,
      "hit": false,
      "t": 156000,
      "d": 375,
      "v": 75
    },
    {
      "midi": 57,
      "hit": false,
      "t": 156000,
      "d": 375,
      "v": 75
    },
    {
      "midi": 60,
      "hit": false,
      "t": 156000,
      "d": 375,
      "v": 75
    },
    {
      "midi": 64,
      "hit": false,
      "t": 156000,
      "d": 375,
      "v": 75
    },
    {
      "midi": 52,
      "hit": false,
      "t": 156000,
      "d": 375,
      "v": 75
    },
    {
      "midi": 55,
      "hit": false,
      "t": 156000,
      "d": 375,
      "v": 75
    },
    {
      "midi": 57,
      "hit": false,
      "t": 156000,
      "d": 375,
      "v": 75
    },
    {
      "midi": 60,
      "hit": false,
      "t": 156000,
      "d": 375,
      "v": 75
    },
    {
      "midi": 64,
      "hit": false,
      "t": 156000,
      "d": 375,
      "v": 75
    },
    {
      "midi": 52,
      "hit": false,
      "t": 156000,
      "d": 375,
      "v": 66
    },
    {
      "midi": 59,
      "hit": false,
      "t": 156375,
      "d": 375,
      "v": 66
    },
    {
      "midi": 59,
      "hit": false,
      "t": 156375,
      "d": 375,
      "v": 75
    },
    {
      "midi": 62,
      "hit": false,
      "t": 156375,
      "d": 375,
      "v": 75
    },
    {
      "midi": 64,
      "hit": false,
      "t": 156375,
      "d": 375,
      "v": 75
    },
    {
      "midi": 67,
      "hit": false,
      "t": 156375,
      "d": 375,
      "v": 75
    },
    {
      "midi": 71,
      "hit": false,
      "t": 156375,
      "d": 375,
      "v": 75
    },
    {
      "midi": 59,
      "hit": false,
      "t": 156375,
      "d": 375,
      "v": 75
    },
    {
      "midi": 62,
      "hit": false,
      "t": 156375,
      "d": 375,
      "v": 75
    },
    {
      "midi": 64,
      "hit": false,
      "t": 156375,
      "d": 375,
      "v": 75
    },
    {
      "midi": 67,
      "hit": false,
      "t": 156375,
      "d": 375,
      "v": 75
    },
    {
      "midi": 71,
      "hit": false,
      "t": 156375,
      "d": 375,
      "v": 75
    },
    {
      "midi": 59,
      "hit": false,
      "t": 156375,
      "d": 375,
      "v": 66
    },
    {
      "midi": 60,
      "hit": false,
      "t": 156750,
      "d": 1500,
      "v": 66
    },
    {
      "midi": 60,
      "hit": false,
      "t": 156750,
      "d": 1500,
      "v": 75
    },
    {
      "midi": 64,
      "hit": false,
      "t": 156750,
      "d": 1500,
      "v": 75
    },
    {
      "midi": 67,
      "hit": false,
      "t": 156750,
      "d": 1500,
      "v": 75
    },
    {
      "midi": 69,
      "hit": false,
      "t": 156750,
      "d": 1500,
      "v": 75
    },
    {
      "midi": 72,
      "hit": false,
      "t": 156750,
      "d": 1500,
      "v": 75
    },
    {
      "midi": 60,
      "hit": false,
      "t": 156750,
      "d": 1500,
      "v": 75
    },
    {
      "midi": 64,
      "hit": false,
      "t": 156750,
      "d": 1500,
      "v": 75
    },
    {
      "midi": 67,
      "hit": false,
      "t": 156750,
      "d": 1500,
      "v": 75
    },
    {
      "midi": 69,
      "hit": false,
      "t": 156750,
      "d": 1500,
      "v": 75
    },
    {
      "midi": 72,
      "hit": false,
      "t": 156750,
      "d": 1500,
      "v": 75
    },
    {
      "midi": 60,
      "hit": false,
      "t": 156750,
      "d": 1500,
      "v": 66
    },
    {
      "midi": 52,
      "hit": false,
      "t": 158250,
      "d": 750,
      "v": 66
    },
    {
      "midi": 52,
      "hit": false,
      "t": 158250,
      "d": 750,
      "v": 75
    },
    {
      "midi": 55,
      "hit": false,
      "t": 158250,
      "d": 750,
      "v": 75
    },
    {
      "midi": 57,
      "hit": false,
      "t": 158250,
      "d": 750,
      "v": 75
    },
    {
      "midi": 60,
      "hit": false,
      "t": 158250,
      "d": 750,
      "v": 75
    },
    {
      "midi": 64,
      "hit": false,
      "t": 158250,
      "d": 750,
      "v": 75
    },
    {
      "midi": 52,
      "hit": false,
      "t": 158250,
      "d": 750,
      "v": 75
    },
    {
      "midi": 55,
      "hit": false,
      "t": 158250,
      "d": 750,
      "v": 75
    },
    {
      "midi": 57,
      "hit": false,
      "t": 158250,
      "d": 750,
      "v": 75
    },
    {
      "midi": 60,
      "hit": false,
      "t": 158250,
      "d": 750,
      "v": 75
    },
    {
      "midi": 64,
      "hit": false,
      "t": 158250,
      "d": 750,
      "v": 75
    },
    {
      "midi": 52,
      "hit": false,
      "t": 158250,
      "d": 750,
      "v": 66
    },
    {
      "midi": 53,
      "hit": false,
      "t": 159000,
      "d": 375,
      "v": 66
    },
    {
      "midi": 53,
      "hit": false,
      "t": 159000,
      "d": 375,
      "v": 75
    },
    {
      "midi": 57,
      "hit": false,
      "t": 159000,
      "d": 375,
      "v": 75
    },
    {
      "midi": 60,
      "hit": false,
      "t": 159000,
      "d": 375,
      "v": 75
    },
    {
      "midi": 62,
      "hit": false,
      "t": 159000,
      "d": 375,
      "v": 75
    },
    {
      "midi": 65,
      "hit": false,
      "t": 159000,
      "d": 375,
      "v": 75
    },
    {
      "midi": 53,
      "hit": false,
      "t": 159000,
      "d": 375,
      "v": 75
    },
    {
      "midi": 57,
      "hit": false,
      "t": 159000,
      "d": 375,
      "v": 75
    },
    {
      "midi": 60,
      "hit": false,
      "t": 159000,
      "d": 375,
      "v": 75
    },
    {
      "midi": 62,
      "hit": false,
      "t": 159000,
      "d": 375,
      "v": 75
    },
    {
      "midi": 65,
      "hit": false,
      "t": 159000,
      "d": 375,
      "v": 75
    },
    {
      "midi": 53,
      "hit": false,
      "t": 159000,
      "d": 375,
      "v": 66
    },
    {
      "midi": 59,
      "hit": false,
      "t": 159375,
      "d": 375,
      "v": 66
    },
    {
      "midi": 59,
      "hit": false,
      "t": 159375,
      "d": 375,
      "v": 75
    },
    {
      "midi": 62,
      "hit": false,
      "t": 159375,
      "d": 375,
      "v": 75
    },
    {
      "midi": 65,
      "hit": false,
      "t": 159375,
      "d": 375,
      "v": 75
    },
    {
      "midi": 68,
      "hit": false,
      "t": 159375,
      "d": 375,
      "v": 75
    },
    {
      "midi": 71,
      "hit": false,
      "t": 159375,
      "d": 375,
      "v": 75
    },
    {
      "midi": 59,
      "hit": false,
      "t": 159375,
      "d": 375,
      "v": 75
    },
    {
      "midi": 62,
      "hit": false,
      "t": 159375,
      "d": 375,
      "v": 75
    },
    {
      "midi": 65,
      "hit": false,
      "t": 159375,
      "d": 375,
      "v": 75
    },
    {
      "midi": 68,
      "hit": false,
      "t": 159375,
      "d": 375,
      "v": 75
    },
    {
      "midi": 71,
      "hit": false,
      "t": 159375,
      "d": 375,
      "v": 75
    },
    {
      "midi": 59,
      "hit": false,
      "t": 159375,
      "d": 375,
      "v": 66
    },
    {
      "midi": 60,
      "hit": false,
      "t": 159750,
      "d": 1500,
      "v": 66
    },
    {
      "midi": 60,
      "hit": false,
      "t": 159750,
      "d": 1500,
      "v": 75
    },
    {
      "midi": 62,
      "hit": false,
      "t": 159750,
      "d": 1500,
      "v": 75
    },
    {
      "midi": 65,
      "hit": false,
      "t": 159750,
      "d": 1500,
      "v": 75
    },
    {
      "midi": 69,
      "hit": false,
      "t": 159750,
      "d": 1500,
      "v": 75
    },
    {
      "midi": 72,
      "hit": false,
      "t": 159750,
      "d": 1500,
      "v": 75
    },
    {
      "midi": 60,
      "hit": false,
      "t": 159750,
      "d": 1500,
      "v": 75
    },
    {
      "midi": 62,
      "hit": false,
      "t": 159750,
      "d": 1500,
      "v": 75
    },
    {
      "midi": 65,
      "hit": false,
      "t": 159750,
      "d": 1500,
      "v": 75
    },
    {
      "midi": 69,
      "hit": false,
      "t": 159750,
      "d": 1500,
      "v": 75
    },
    {
      "midi": 72,
      "hit": false,
      "t": 159750,
      "d": 1500,
      "v": 75
    },
    {
      "midi": 60,
      "hit": false,
      "t": 159750,
      "d": 1500,
      "v": 66
    },
    {
      "midi": 53,
      "hit": false,
      "t": 161250,
      "d": 750,
      "v": 66
    },
    {
      "midi": 53,
      "hit": false,
      "t": 161250,
      "d": 750,
      "v": 75
    },
    {
      "midi": 57,
      "hit": false,
      "t": 161250,
      "d": 750,
      "v": 75
    },
    {
      "midi": 60,
      "hit": false,
      "t": 161250,
      "d": 750,
      "v": 75
    },
    {
      "midi": 62,
      "hit": false,
      "t": 161250,
      "d": 750,
      "v": 75
    },
    {
      "midi": 65,
      "hit": false,
      "t": 161250,
      "d": 750,
      "v": 75
    },
    {
      "midi": 53,
      "hit": false,
      "t": 161250,
      "d": 750,
      "v": 75
    },
    {
      "midi": 57,
      "hit": false,
      "t": 161250,
      "d": 750,
      "v": 75
    },
    {
      "midi": 60,
      "hit": false,
      "t": 161250,
      "d": 750,
      "v": 75
    },
    {
      "midi": 62,
      "hit": false,
      "t": 161250,
      "d": 750,
      "v": 75
    },
    {
      "midi": 65,
      "hit": false,
      "t": 161250,
      "d": 750,
      "v": 75
    },
    {
      "midi": 53,
      "hit": false,
      "t": 161250,
      "d": 750,
      "v": 66
    },
    {
      "midi": 55,
      "hit": false,
      "t": 162000,
      "d": 375,
      "v": 66
    },
    {
      "midi": 55,
      "hit": false,
      "t": 162000,
      "d": 375,
      "v": 75
    },
    {
      "midi": 59,
      "hit": false,
      "t": 162000,
      "d": 375,
      "v": 75
    },
    {
      "midi": 62,
      "hit": false,
      "t": 162000,
      "d": 375,
      "v": 75
    },
    {
      "midi": 64,
      "hit": false,
      "t": 162000,
      "d": 375,
      "v": 75
    },
    {
      "midi": 67,
      "hit": false,
      "t": 162000,
      "d": 375,
      "v": 75
    },
    {
      "midi": 55,
      "hit": false,
      "t": 162000,
      "d": 375,
      "v": 75
    },
    {
      "midi": 59,
      "hit": false,
      "t": 162000,
      "d": 375,
      "v": 75
    },
    {
      "midi": 62,
      "hit": false,
      "t": 162000,
      "d": 375,
      "v": 75
    },
    {
      "midi": 64,
      "hit": false,
      "t": 162000,
      "d": 375,
      "v": 75
    },
    {
      "midi": 67,
      "hit": false,
      "t": 162000,
      "d": 375,
      "v": 75
    },
    {
      "midi": 55,
      "hit": false,
      "t": 162000,
      "d": 375,
      "v": 66
    },
    {
      "midi": 59,
      "hit": false,
      "t": 162375,
      "d": 375,
      "v": 66
    },
    {
      "midi": 59,
      "hit": false,
      "t": 162375,
      "d": 375,
      "v": 75
    },
    {
      "midi": 62,
      "hit": false,
      "t": 162375,
      "d": 375,
      "v": 75
    },
    {
      "midi": 64,
      "hit": false,
      "t": 162375,
      "d": 375,
      "v": 75
    },
    {
      "midi": 67,
      "hit": false,
      "t": 162375,
      "d": 375,
      "v": 75
    },
    {
      "midi": 71,
      "hit": false,
      "t": 162375,
      "d": 375,
      "v": 75
    },
    {
      "midi": 59,
      "hit": false,
      "t": 162375,
      "d": 375,
      "v": 75
    },
    {
      "midi": 62,
      "hit": false,
      "t": 162375,
      "d": 375,
      "v": 75
    },
    {
      "midi": 64,
      "hit": false,
      "t": 162375,
      "d": 375,
      "v": 75
    },
    {
      "midi": 67,
      "hit": false,
      "t": 162375,
      "d": 375,
      "v": 75
    },
    {
      "midi": 71,
      "hit": false,
      "t": 162375,
      "d": 375,
      "v": 75
    },
    {
      "midi": 59,
      "hit": false,
      "t": 162375,
      "d": 375,
      "v": 66
    },
    {
      "midi": 60,
      "hit": false,
      "t": 162750,
      "d": 750,
      "v": 66
    },
    {
      "midi": 60,
      "hit": false,
      "t": 162750,
      "d": 750,
      "v": 75
    },
    {
      "midi": 64,
      "hit": false,
      "t": 162750,
      "d": 750,
      "v": 75
    },
    {
      "midi": 67,
      "hit": false,
      "t": 162750,
      "d": 750,
      "v": 75
    },
    {
      "midi": 69,
      "hit": false,
      "t": 162750,
      "d": 750,
      "v": 75
    },
    {
      "midi": 72,
      "hit": false,
      "t": 162750,
      "d": 750,
      "v": 75
    },
    {
      "midi": 60,
      "hit": false,
      "t": 162750,
      "d": 750,
      "v": 75
    },
    {
      "midi": 64,
      "hit": false,
      "t": 162750,
      "d": 750,
      "v": 75
    },
    {
      "midi": 67,
      "hit": false,
      "t": 162750,
      "d": 750,
      "v": 75
    },
    {
      "midi": 69,
      "hit": false,
      "t": 162750,
      "d": 750,
      "v": 75
    },
    {
      "midi": 72,
      "hit": false,
      "t": 162750,
      "d": 750,
      "v": 75
    },
    {
      "midi": 60,
      "hit": false,
      "t": 162750,
      "d": 750,
      "v": 66
    },
    {
      "midi": 56,
      "hit": false,
      "t": 163500,
      "d": 375,
      "v": 66
    },
    {
      "midi": 56,
      "hit": false,
      "t": 163500,
      "d": 375,
      "v": 75
    },
    {
      "midi": 59,
      "hit": false,
      "t": 163500,
      "d": 375,
      "v": 75
    },
    {
      "midi": 62,
      "hit": false,
      "t": 163500,
      "d": 375,
      "v": 75
    },
    {
      "midi": 64,
      "hit": false,
      "t": 163500,
      "d": 375,
      "v": 75
    },
    {
      "midi": 68,
      "hit": false,
      "t": 163500,
      "d": 375,
      "v": 75
    },
    {
      "midi": 56,
      "hit": false,
      "t": 163500,
      "d": 375,
      "v": 75
    },
    {
      "midi": 59,
      "hit": false,
      "t": 163500,
      "d": 375,
      "v": 75
    },
    {
      "midi": 62,
      "hit": false,
      "t": 163500,
      "d": 375,
      "v": 75
    },
    {
      "midi": 64,
      "hit": false,
      "t": 163500,
      "d": 375,
      "v": 75
    },
    {
      "midi": 68,
      "hit": false,
      "t": 163500,
      "d": 375,
      "v": 75
    },
    {
      "midi": 56,
      "hit": false,
      "t": 163500,
      "d": 375,
      "v": 66
    },
    {
      "midi": 59,
      "hit": false,
      "t": 163875,
      "d": 375,
      "v": 66
    },
    {
      "midi": 59,
      "hit": false,
      "t": 163875,
      "d": 375,
      "v": 75
    },
    {
      "midi": 62,
      "hit": false,
      "t": 163875,
      "d": 375,
      "v": 75
    },
    {
      "midi": 64,
      "hit": false,
      "t": 163875,
      "d": 375,
      "v": 75
    },
    {
      "midi": 68,
      "hit": false,
      "t": 163875,
      "d": 375,
      "v": 75
    },
    {
      "midi": 71,
      "hit": false,
      "t": 163875,
      "d": 375,
      "v": 75
    },
    {
      "midi": 59,
      "hit": false,
      "t": 163875,
      "d": 375,
      "v": 75
    },
    {
      "midi": 62,
      "hit": false,
      "t": 163875,
      "d": 375,
      "v": 75
    },
    {
      "midi": 64,
      "hit": false,
      "t": 163875,
      "d": 375,
      "v": 75
    },
    {
      "midi": 68,
      "hit": false,
      "t": 163875,
      "d": 375,
      "v": 75
    },
    {
      "midi": 71,
      "hit": false,
      "t": 163875,
      "d": 375,
      "v": 75
    },
    {
      "midi": 59,
      "hit": false,
      "t": 163875,
      "d": 375,
      "v": 66
    },
    {
      "midi": 60,
      "hit": false,
      "t": 164250,
      "d": 750,
      "v": 66
    },
    {
      "midi": 60,
      "hit": false,
      "t": 164250,
      "d": 750,
      "v": 75
    },
    {
      "midi": 62,
      "hit": false,
      "t": 164250,
      "d": 750,
      "v": 75
    },
    {
      "midi": 64,
      "hit": false,
      "t": 164250,
      "d": 750,
      "v": 75
    },
    {
      "midi": 68,
      "hit": false,
      "t": 164250,
      "d": 750,
      "v": 75
    },
    {
      "midi": 72,
      "hit": false,
      "t": 164250,
      "d": 750,
      "v": 75
    },
    {
      "midi": 60,
      "hit": false,
      "t": 164250,
      "d": 750,
      "v": 75
    },
    {
      "midi": 62,
      "hit": false,
      "t": 164250,
      "d": 750,
      "v": 75
    },
    {
      "midi": 64,
      "hit": false,
      "t": 164250,
      "d": 750,
      "v": 75
    },
    {
      "midi": 68,
      "hit": false,
      "t": 164250,
      "d": 750,
      "v": 75
    },
    {
      "midi": 72,
      "hit": false,
      "t": 164250,
      "d": 750,
      "v": 75
    },
    {
      "midi": 60,
      "hit": false,
      "t": 164250,
      "d": 750,
      "v": 66
    },
    {
      "midi": 57,
      "hit": false,
      "t": 165000,
      "d": 375,
      "v": 66
    },
    {
      "midi": 57,
      "hit": false,
      "t": 165000,
      "d": 375,
      "v": 75
    },
    {
      "midi": 60,
      "hit": false,
      "t": 165000,
      "d": 375,
      "v": 75
    },
    {
      "midi": 62,
      "hit": false,
      "t": 165000,
      "d": 375,
      "v": 75
    },
    {
      "midi": 65,
      "hit": false,
      "t": 165000,
      "d": 375,
      "v": 75
    },
    {
      "midi": 69,
      "hit": false,
      "t": 165000,
      "d": 375,
      "v": 75
    },
    {
      "midi": 57,
      "hit": false,
      "t": 165000,
      "d": 375,
      "v": 75
    },
    {
      "midi": 60,
      "hit": false,
      "t": 165000,
      "d": 375,
      "v": 75
    },
    {
      "midi": 62,
      "hit": false,
      "t": 165000,
      "d": 375,
      "v": 75
    },
    {
      "midi": 65,
      "hit": false,
      "t": 165000,
      "d": 375,
      "v": 75
    },
    {
      "midi": 69,
      "hit": false,
      "t": 165000,
      "d": 375,
      "v": 75
    },
    {
      "midi": 57,
      "hit": false,
      "t": 165000,
      "d": 375,
      "v": 66
    },
    {
      "midi": 59,
      "hit": false,
      "t": 165375,
      "d": 375,
      "v": 66
    },
    {
      "midi": 59,
      "hit": false,
      "t": 165375,
      "d": 375,
      "v": 75
    },
    {
      "midi": 62,
      "hit": false,
      "t": 165375,
      "d": 375,
      "v": 75
    },
    {
      "midi": 65,
      "hit": false,
      "t": 165375,
      "d": 375,
      "v": 75
    },
    {
      "midi": 67,
      "hit": false,
      "t": 165375,
      "d": 375,
      "v": 75
    },
    {
      "midi": 71,
      "hit": false,
      "t": 165375,
      "d": 375,
      "v": 75
    },
    {
      "midi": 59,
      "hit": false,
      "t": 165375,
      "d": 375,
      "v": 75
    },
    {
      "midi": 62,
      "hit": false,
      "t": 165375,
      "d": 375,
      "v": 75
    },
    {
      "midi": 65,
      "hit": false,
      "t": 165375,
      "d": 375,
      "v": 75
    },
    {
      "midi": 67,
      "hit": false,
      "t": 165375,
      "d": 375,
      "v": 75
    },
    {
      "midi": 71,
      "hit": false,
      "t": 165375,
      "d": 375,
      "v": 75
    },
    {
      "midi": 59,
      "hit": false,
      "t": 165375,
      "d": 375,
      "v": 66
    },
    {
      "midi": 60,
      "hit": false,
      "t": 165750,
      "d": 1500,
      "v": 66
    },
    {
      "midi": 60,
      "hit": false,
      "t": 165750,
      "d": 1500,
      "v": 75
    },
    {
      "midi": 62,
      "hit": false,
      "t": 165750,
      "d": 1500,
      "v": 75
    },
    {
      "midi": 65,
      "hit": false,
      "t": 165750,
      "d": 1500,
      "v": 75
    },
    {
      "midi": 69,
      "hit": false,
      "t": 165750,
      "d": 1500,
      "v": 75
    },
    {
      "midi": 72,
      "hit": false,
      "t": 165750,
      "d": 1500,
      "v": 75
    },
    {
      "midi": 60,
      "hit": false,
      "t": 165750,
      "d": 1500,
      "v": 75
    },
    {
      "midi": 62,
      "hit": false,
      "t": 165750,
      "d": 1500,
      "v": 75
    },
    {
      "midi": 65,
      "hit": false,
      "t": 165750,
      "d": 1500,
      "v": 75
    },
    {
      "midi": 69,
      "hit": false,
      "t": 165750,
      "d": 1500,
      "v": 75
    },
    {
      "midi": 72,
      "hit": false,
      "t": 165750,
      "d": 1500,
      "v": 75
    },
    {
      "midi": 60,
      "hit": false,
      "t": 165750,
      "d": 1500,
      "v": 66
    },
    {
      "midi": 59,
      "hit": false,
      "t": 167250,
      "d": 750,
      "v": 66
    },
    {
      "midi": 59,
      "hit": false,
      "t": 167250,
      "d": 750,
      "v": 75
    },
    {
      "midi": 62,
      "hit": false,
      "t": 167250,
      "d": 750,
      "v": 75
    },
    {
      "midi": 65,
      "hit": false,
      "t": 167250,
      "d": 750,
      "v": 75
    },
    {
      "midi": 68,
      "hit": false,
      "t": 167250,
      "d": 750,
      "v": 75
    },
    {
      "midi": 71,
      "hit": false,
      "t": 167250,
      "d": 750,
      "v": 75
    },
    {
      "midi": 59,
      "hit": false,
      "t": 167250,
      "d": 750,
      "v": 75
    },
    {
      "midi": 62,
      "hit": false,
      "t": 167250,
      "d": 750,
      "v": 75
    },
    {
      "midi": 65,
      "hit": false,
      "t": 167250,
      "d": 750,
      "v": 75
    },
    {
      "midi": 68,
      "hit": false,
      "t": 167250,
      "d": 750,
      "v": 75
    },
    {
      "midi": 71,
      "hit": false,
      "t": 167250,
      "d": 750,
      "v": 75
    },
    {
      "midi": 59,
      "hit": false,
      "t": 167250,
      "d": 750,
      "v": 66
    },
    {
      "midi": 60,
      "hit": false,
      "t": 168000,
      "d": 750,
      "v": 66
    },
    {
      "midi": 60,
      "hit": false,
      "t": 168000,
      "d": 750,
      "v": 75
    },
    {
      "midi": 64,
      "hit": false,
      "t": 168000,
      "d": 750,
      "v": 75
    },
    {
      "midi": 67,
      "hit": false,
      "t": 168000,
      "d": 750,
      "v": 75
    },
    {
      "midi": 69,
      "hit": false,
      "t": 168000,
      "d": 750,
      "v": 75
    },
    {
      "midi": 72,
      "hit": false,
      "t": 168000,
      "d": 750,
      "v": 75
    },
    {
      "midi": 60,
      "hit": false,
      "t": 168000,
      "d": 750,
      "v": 75
    },
    {
      "midi": 64,
      "hit": false,
      "t": 168000,
      "d": 750,
      "v": 75
    },
    {
      "midi": 67,
      "hit": false,
      "t": 168000,
      "d": 750,
      "v": 75
    },
    {
      "midi": 69,
      "hit": false,
      "t": 168000,
      "d": 750,
      "v": 75
    },
    {
      "midi": 72,
      "hit": false,
      "t": 168000,
      "d": 750,
      "v": 75
    },
    {
      "midi": 60,
      "hit": false,
      "t": 168000,
      "d": 750,
      "v": 66
    },
    {
      "midi": 59,
      "hit": false,
      "t": 169500,
      "d": 375,
      "v": 66
    },
    {
      "midi": 59,
      "hit": false,
      "t": 169500,
      "d": 375,
      "v": 75
    },
    {
      "midi": 60,
      "hit": false,
      "t": 169500,
      "d": 375,
      "v": 75
    },
    {
      "midi": 63,
      "hit": false,
      "t": 169500,
      "d": 375,
      "v": 75
    },
    {
      "midi": 66,
      "hit": false,
      "t": 169500,
      "d": 375,
      "v": 75
    },
    {
      "midi": 71,
      "hit": false,
      "t": 169500,
      "d": 375,
      "v": 75
    },
    {
      "midi": 59,
      "hit": false,
      "t": 169500,
      "d": 375,
      "v": 75
    },
    {
      "midi": 60,
      "hit": false,
      "t": 169500,
      "d": 375,
      "v": 75
    },
    {
      "midi": 63,
      "hit": false,
      "t": 169500,
      "d": 375,
      "v": 75
    },
    {
      "midi": 66,
      "hit": false,
      "t": 169500,
      "d": 375,
      "v": 75
    },
    {
      "midi": 71,
      "hit": false,
      "t": 169500,
      "d": 375,
      "v": 75
    },
    {
      "midi": 59,
      "hit": false,
      "t": 169500,
      "d": 375,
      "v": 66
    },
    {
      "midi": 57,
      "hit": false,
      "t": 169875,
      "d": 375,
      "v": 66
    },
    {
      "midi": 57,
      "hit": false,
      "t": 169875,
      "d": 375,
      "v": 75
    },
    {
      "midi": 60,
      "hit": false,
      "t": 169875,
      "d": 375,
      "v": 75
    },
    {
      "midi": 63,
      "hit": false,
      "t": 169875,
      "d": 375,
      "v": 75
    },
    {
      "midi": 66,
      "hit": false,
      "t": 169875,
      "d": 375,
      "v": 75
    },
    {
      "midi": 69,
      "hit": false,
      "t": 169875,
      "d": 375,
      "v": 75
    },
    {
      "midi": 57,
      "hit": false,
      "t": 169875,
      "d": 375,
      "v": 75
    },
    {
      "midi": 60,
      "hit": false,
      "t": 169875,
      "d": 375,
      "v": 75
    },
    {
      "midi": 63,
      "hit": false,
      "t": 169875,
      "d": 375,
      "v": 75
    },
    {
      "midi": 66,
      "hit": false,
      "t": 169875,
      "d": 375,
      "v": 75
    },
    {
      "midi": 69,
      "hit": false,
      "t": 169875,
      "d": 375,
      "v": 75
    },
    {
      "midi": 57,
      "hit": false,
      "t": 169875,
      "d": 375,
      "v": 66
    },
    {
      "midi": 55,
      "hit": false,
      "t": 170250,
      "d": 375,
      "v": 66
    },
    {
      "midi": 55,
      "hit": false,
      "t": 170250,
      "d": 375,
      "v": 75
    },
    {
      "midi": 57,
      "hit": false,
      "t": 170250,
      "d": 375,
      "v": 75
    },
    {
      "midi": 60,
      "hit": false,
      "t": 170250,
      "d": 375,
      "v": 75
    },
    {
      "midi": 63,
      "hit": false,
      "t": 170250,
      "d": 375,
      "v": 75
    },
    {
      "midi": 67,
      "hit": false,
      "t": 170250,
      "d": 375,
      "v": 75
    },
    {
      "midi": 55,
      "hit": false,
      "t": 170250,
      "d": 375,
      "v": 75
    },
    {
      "midi": 57,
      "hit": false,
      "t": 170250,
      "d": 375,
      "v": 75
    },
    {
      "midi": 60,
      "hit": false,
      "t": 170250,
      "d": 375,
      "v": 75
    },
    {
      "midi": 63,
      "hit": false,
      "t": 170250,
      "d": 375,
      "v": 75
    },
    {
      "midi": 67,
      "hit": false,
      "t": 170250,
      "d": 375,
      "v": 75
    },
    {
      "midi": 55,
      "hit": false,
      "t": 170250,
      "d": 375,
      "v": 66
    },
    {
      "midi": 54,
      "hit": false,
      "t": 170625,
      "d": 375,
      "v": 66
    },
    {
      "midi": 54,
      "hit": false,
      "t": 170625,
      "d": 375,
      "v": 75
    },
    {
      "midi": 57,
      "hit": false,
      "t": 170625,
      "d": 375,
      "v": 75
    },
    {
      "midi": 60,
      "hit": false,
      "t": 170625,
      "d": 375,
      "v": 75
    },
    {
      "midi": 63,
      "hit": false,
      "t": 170625,
      "d": 375,
      "v": 75
    },
    {
      "midi": 66,
      "hit": false,
      "t": 170625,
      "d": 375,
      "v": 75
    },
    {
      "midi": 54,
      "hit": false,
      "t": 170625,
      "d": 375,
      "v": 75
    },
    {
      "midi": 57,
      "hit": false,
      "t": 170625,
      "d": 375,
      "v": 75
    },
    {
      "midi": 60,
      "hit": false,
      "t": 170625,
      "d": 375,
      "v": 75
    },
    {
      "midi": 63,
      "hit": false,
      "t": 170625,
      "d": 375,
      "v": 75
    },
    {
      "midi": 66,
      "hit": false,
      "t": 170625,
      "d": 375,
      "v": 75
    },
    {
      "midi": 54,
      "hit": false,
      "t": 170625,
      "d": 375,
      "v": 66
    },
    {
      "midi": 55,
      "hit": false,
      "t": 171000,
      "d": 750,
      "v": 66
    },
    {
      "midi": 55,
      "hit": false,
      "t": 171000,
      "d": 750,
      "v": 75
    },
    {
      "midi": 57,
      "hit": false,
      "t": 171000,
      "d": 750,
      "v": 75
    },
    {
      "midi": 60,
      "hit": false,
      "t": 171000,
      "d": 750,
      "v": 75
    },
    {
      "midi": 62,
      "hit": false,
      "t": 171000,
      "d": 750,
      "v": 75
    },
    {
      "midi": 67,
      "hit": false,
      "t": 171000,
      "d": 750,
      "v": 75
    },
    {
      "midi": 55,
      "hit": false,
      "t": 171000,
      "d": 750,
      "v": 75
    },
    {
      "midi": 57,
      "hit": false,
      "t": 171000,
      "d": 750,
      "v": 75
    },
    {
      "midi": 60,
      "hit": false,
      "t": 171000,
      "d": 750,
      "v": 75
    },
    {
      "midi": 62,
      "hit": false,
      "t": 171000,
      "d": 750,
      "v": 75
    },
    {
      "midi": 67,
      "hit": false,
      "t": 171000,
      "d": 750,
      "v": 75
    },
    {
      "midi": 55,
      "hit": false,
      "t": 171000,
      "d": 750,
      "v": 66
    },
    {
      "midi": 50,
      "hit": false,
      "t": 171750,
      "d": 1500,
      "v": 66
    },
    {
      "midi": 57,
      "hit": false,
      "t": 171750,
      "d": 750,
      "v": 75
    },
    {
      "midi": 60,
      "hit": false,
      "t": 171750,
      "d": 750,
      "v": 75
    },
    {
      "midi": 50,
      "hit": false,
      "t": 171750,
      "d": 1500,
      "v": 75
    },
    {
      "midi": 53,
      "hit": false,
      "t": 171750,
      "d": 1500,
      "v": 75
    },
    {
      "midi": 62,
      "hit": false,
      "t": 171750,
      "d": 1500,
      "v": 75
    },
    {
      "midi": 57,
      "hit": false,
      "t": 171750,
      "d": 750,
      "v": 75
    },
    {
      "midi": 60,
      "hit": false,
      "t": 171750,
      "d": 750,
      "v": 75
    },
    {
      "midi": 50,
      "hit": false,
      "t": 171750,
      "d": 1500,
      "v": 75
    },
    {
      "midi": 53,
      "hit": false,
      "t": 171750,
      "d": 1500,
      "v": 75
    },
    {
      "midi": 62,
      "hit": false,
      "t": 171750,
      "d": 1500,
      "v": 75
    },
    {
      "midi": 50,
      "hit": false,
      "t": 171750,
      "d": 1500,
      "v": 66
    },
    {
      "midi": 55,
      "hit": false,
      "t": 172500,
      "d": 750,
      "v": 75
    },
    {
      "midi": 59,
      "hit": false,
      "t": 172500,
      "d": 750,
      "v": 75
    },
    {
      "midi": 55,
      "hit": false,
      "t": 172500,
      "d": 750,
      "v": 75
    },
    {
      "midi": 59,
      "hit": false,
      "t": 172500,
      "d": 750,
      "v": 75
    },
    {
      "midi": 52,
      "hit": false,
      "t": 173250,
      "d": 750,
      "v": 66
    },
    {
      "midi": 52,
      "hit": false,
      "t": 173250,
      "d": 750,
      "v": 75
    },
    {
      "midi": 55,
      "hit": false,
      "t": 173250,
      "d": 750,
      "v": 75
    },
    {
      "midi": 58,
      "hit": false,
      "t": 173250,
      "d": 750,
      "v": 75
    },
    {
      "midi": 61,
      "hit": false,
      "t": 173250,
      "d": 750,
      "v": 75
    },
    {
      "midi": 64,
      "hit": false,
      "t": 173250,
      "d": 750,
      "v": 75
    },
    {
      "midi": 52,
      "hit": false,
      "t": 173250,
      "d": 750,
      "v": 75
    },
    {
      "midi": 55,
      "hit": false,
      "t": 173250,
      "d": 750,
      "v": 75
    },
    {
      "midi": 58,
      "hit": false,
      "t": 173250,
      "d": 750,
      "v": 75
    },
    {
      "midi": 61,
      "hit": false,
      "t": 173250,
      "d": 750,
      "v": 75
    },
    {
      "midi": 64,
      "hit": false,
      "t": 173250,
      "d": 750,
      "v": 75
    },
    {
      "midi": 52,
      "hit": false,
      "t": 173250,
      "d": 750,
      "v": 66
    },
    {
      "midi": 53,
      "hit": false,
      "t": 174000,
      "d": 4500,
      "v": 66
    },
    {
      "midi": 53,
      "hit": false,
      "t": 174000,
      "d": 1500,
      "v": 75
    },
    {
      "midi": 57,
      "hit": false,
      "t": 174000,
      "d": 1500,
      "v": 75
    },
    {
      "midi": 60,
      "hit": false,
      "t": 174000,
      "d": 1500,
      "v": 75
    },
    {
      "midi": 62,
      "hit": false,
      "t": 174000,
      "d": 1500,
      "v": 75
    },
    {
      "midi": 65,
      "hit": false,
      "t": 174000,
      "d": 1500,
      "v": 75
    },
    {
      "midi": 53,
      "hit": false,
      "t": 174000,
      "d": 1500,
      "v": 75
    },
    {
      "midi": 57,
      "hit": false,
      "t": 174000,
      "d": 1500,
      "v": 75
    },
    {
      "midi": 60,
      "hit": false,
      "t": 174000,
      "d": 1500,
      "v": 75
    },
    {
      "midi": 62,
      "hit": false,
      "t": 174000,
      "d": 1500,
      "v": 75
    },
    {
      "midi": 65,
      "hit": false,
      "t": 174000,
      "d": 1500,
      "v": 75
    },
    {
      "midi": 53,
      "hit": false,
      "t": 174000,
      "d": 4500,
      "v": 66
    },
    {
      "midi": 64,
      "hit": false,
      "t": 175500,
      "d": 375,
      "v": 75
    },
    {
      "midi": 65,
      "hit": false,
      "t": 175500,
      "d": 375,
      "v": 75
    },
    {
      "midi": 69,
      "hit": false,
      "t": 175500,
      "d": 375,
      "v": 75
    },
    {
      "midi": 72,
      "hit": false,
      "t": 175500,
      "d": 375,
      "v": 75
    },
    {
      "midi": 76,
      "hit": false,
      "t": 175500,
      "d": 375,
      "v": 75
    },
    {
      "midi": 64,
      "hit": false,
      "t": 175500,
      "d": 375,
      "v": 75
    },
    {
      "midi": 65,
      "hit": false,
      "t": 175500,
      "d": 375,
      "v": 75
    },
    {
      "midi": 69,
      "hit": false,
      "t": 175500,
      "d": 375,
      "v": 75
    },
    {
      "midi": 72,
      "hit": false,
      "t": 175500,
      "d": 375,
      "v": 75
    },
    {
      "midi": 76,
      "hit": false,
      "t": 175500,
      "d": 375,
      "v": 75
    },
    {
      "midi": 62,
      "hit": false,
      "t": 175875,
      "d": 375,
      "v": 75
    },
    {
      "midi": 65,
      "hit": false,
      "t": 175875,
      "d": 375,
      "v": 75
    },
    {
      "midi": 69,
      "hit": false,
      "t": 175875,
      "d": 375,
      "v": 75
    },
    {
      "midi": 72,
      "hit": false,
      "t": 175875,
      "d": 375,
      "v": 75
    },
    {
      "midi": 74,
      "hit": false,
      "t": 175875,
      "d": 375,
      "v": 75
    },
    {
      "midi": 62,
      "hit": false,
      "t": 175875,
      "d": 375,
      "v": 75
    },
    {
      "midi": 65,
      "hit": false,
      "t": 175875,
      "d": 375,
      "v": 75
    },
    {
      "midi": 69,
      "hit": false,
      "t": 175875,
      "d": 375,
      "v": 75
    },
    {
      "midi": 72,
      "hit": false,
      "t": 175875,
      "d": 375,
      "v": 75
    },
    {
      "midi": 74,
      "hit": false,
      "t": 175875,
      "d": 375,
      "v": 75
    },
    {
      "midi": 60,
      "hit": false,
      "t": 176250,
      "d": 375,
      "v": 75
    },
    {
      "midi": 62,
      "hit": false,
      "t": 176250,
      "d": 375,
      "v": 75
    },
    {
      "midi": 65,
      "hit": false,
      "t": 176250,
      "d": 375,
      "v": 75
    },
    {
      "midi": 69,
      "hit": false,
      "t": 176250,
      "d": 375,
      "v": 75
    },
    {
      "midi": 72,
      "hit": false,
      "t": 176250,
      "d": 375,
      "v": 75
    },
    {
      "midi": 60,
      "hit": false,
      "t": 176250,
      "d": 375,
      "v": 75
    },
    {
      "midi": 62,
      "hit": false,
      "t": 176250,
      "d": 375,
      "v": 75
    },
    {
      "midi": 65,
      "hit": false,
      "t": 176250,
      "d": 375,
      "v": 75
    },
    {
      "midi": 69,
      "hit": false,
      "t": 176250,
      "d": 375,
      "v": 75
    },
    {
      "midi": 72,
      "hit": false,
      "t": 176250,
      "d": 375,
      "v": 75
    },
    {
      "midi": 57,
      "hit": false,
      "t": 176625,
      "d": 375,
      "v": 75
    },
    {
      "midi": 60,
      "hit": false,
      "t": 176625,
      "d": 375,
      "v": 75
    },
    {
      "midi": 62,
      "hit": false,
      "t": 176625,
      "d": 375,
      "v": 75
    },
    {
      "midi": 65,
      "hit": false,
      "t": 176625,
      "d": 375,
      "v": 75
    },
    {
      "midi": 69,
      "hit": false,
      "t": 176625,
      "d": 375,
      "v": 75
    },
    {
      "midi": 57,
      "hit": false,
      "t": 176625,
      "d": 375,
      "v": 75
    },
    {
      "midi": 60,
      "hit": false,
      "t": 176625,
      "d": 375,
      "v": 75
    },
    {
      "midi": 62,
      "hit": false,
      "t": 176625,
      "d": 375,
      "v": 75
    },
    {
      "midi": 65,
      "hit": false,
      "t": 176625,
      "d": 375,
      "v": 75
    },
    {
      "midi": 69,
      "hit": false,
      "t": 176625,
      "d": 375,
      "v": 75
    },
    {
      "midi": 53,
      "hit": false,
      "t": 177000,
      "d": 375,
      "v": 75
    },
    {
      "midi": 57,
      "hit": false,
      "t": 177000,
      "d": 375,
      "v": 75
    },
    {
      "midi": 60,
      "hit": false,
      "t": 177000,
      "d": 375,
      "v": 75
    },
    {
      "midi": 62,
      "hit": false,
      "t": 177000,
      "d": 375,
      "v": 75
    },
    {
      "midi": 65,
      "hit": false,
      "t": 177000,
      "d": 375,
      "v": 75
    },
    {
      "midi": 53,
      "hit": false,
      "t": 177000,
      "d": 375,
      "v": 75
    },
    {
      "midi": 57,
      "hit": false,
      "t": 177000,
      "d": 375,
      "v": 75
    },
    {
      "midi": 60,
      "hit": false,
      "t": 177000,
      "d": 375,
      "v": 75
    },
    {
      "midi": 62,
      "hit": false,
      "t": 177000,
      "d": 375,
      "v": 75
    },
    {
      "midi": 65,
      "hit": false,
      "t": 177000,
      "d": 375,
      "v": 75
    },
    {
      "midi": 60,
      "hit": false,
      "t": 177375,
      "d": 375,
      "v": 75
    },
    {
      "midi": 62,
      "hit": false,
      "t": 177375,
      "d": 375,
      "v": 75
    },
    {
      "midi": 65,
      "hit": false,
      "t": 177375,
      "d": 375,
      "v": 75
    },
    {
      "midi": 69,
      "hit": false,
      "t": 177375,
      "d": 375,
      "v": 75
    },
    {
      "midi": 72,
      "hit": false,
      "t": 177375,
      "d": 375,
      "v": 75
    },
    {
      "midi": 60,
      "hit": false,
      "t": 177375,
      "d": 375,
      "v": 75
    },
    {
      "midi": 62,
      "hit": false,
      "t": 177375,
      "d": 375,
      "v": 75
    },
    {
      "midi": 65,
      "hit": false,
      "t": 177375,
      "d": 375,
      "v": 75
    },
    {
      "midi": 69,
      "hit": false,
      "t": 177375,
      "d": 375,
      "v": 75
    },
    {
      "midi": 72,
      "hit": false,
      "t": 177375,
      "d": 375,
      "v": 75
    },
    {
      "midi": 57,
      "hit": false,
      "t": 177750,
      "d": 375,
      "v": 75
    },
    {
      "midi": 60,
      "hit": false,
      "t": 177750,
      "d": 375,
      "v": 75
    },
    {
      "midi": 62,
      "hit": false,
      "t": 177750,
      "d": 375,
      "v": 75
    },
    {
      "midi": 65,
      "hit": false,
      "t": 177750,
      "d": 375,
      "v": 75
    },
    {
      "midi": 69,
      "hit": false,
      "t": 177750,
      "d": 375,
      "v": 75
    },
    {
      "midi": 57,
      "hit": false,
      "t": 177750,
      "d": 375,
      "v": 75
    },
    {
      "midi": 60,
      "hit": false,
      "t": 177750,
      "d": 375,
      "v": 75
    },
    {
      "midi": 62,
      "hit": false,
      "t": 177750,
      "d": 375,
      "v": 75
    },
    {
      "midi": 65,
      "hit": false,
      "t": 177750,
      "d": 375,
      "v": 75
    },
    {
      "midi": 69,
      "hit": false,
      "t": 177750,
      "d": 375,
      "v": 75
    },
    {
      "midi": 53,
      "hit": false,
      "t": 178125,
      "d": 375,
      "v": 75
    },
    {
      "midi": 57,
      "hit": false,
      "t": 178125,
      "d": 375,
      "v": 75
    },
    {
      "midi": 60,
      "hit": false,
      "t": 178125,
      "d": 375,
      "v": 75
    },
    {
      "midi": 62,
      "hit": false,
      "t": 178125,
      "d": 375,
      "v": 75
    },
    {
      "midi": 65,
      "hit": false,
      "t": 178125,
      "d": 375,
      "v": 75
    },
    {
      "midi": 53,
      "hit": false,
      "t": 178125,
      "d": 375,
      "v": 75
    },
    {
      "midi": 57,
      "hit": false,
      "t": 178125,
      "d": 375,
      "v": 75
    },
    {
      "midi": 60,
      "hit": false,
      "t": 178125,
      "d": 375,
      "v": 75
    },
    {
      "midi": 62,
      "hit": false,
      "t": 178125,
      "d": 375,
      "v": 75
    },
    {
      "midi": 65,
      "hit": false,
      "t": 178125,
      "d": 375,
      "v": 75
    },
    {
      "midi": 43,
      "hit": false,
      "t": 178500,
      "d": 750,
      "v": 75
    },
    {
      "midi": 53,
      "hit": false,
      "t": 178500,
      "d": 750,
      "v": 75
    },
    {
      "midi": 55,
      "hit": false,
      "t": 178500,
      "d": 750,
      "v": 75
    },
    {
      "midi": 59,
      "hit": false,
      "t": 178500,
      "d": 750,
      "v": 75
    },
    {
      "midi": 64,
      "hit": false,
      "t": 178500,
      "d": 750,
      "v": 75
    },
    {
      "midi": 43,
      "hit": false,
      "t": 178500,
      "d": 750,
      "v": 75
    },
    {
      "midi": 53,
      "hit": false,
      "t": 178500,
      "d": 750,
      "v": 75
    },
    {
      "midi": 55,
      "hit": false,
      "t": 178500,
      "d": 750,
      "v": 75
    },
    {
      "midi": 59,
      "hit": false,
      "t": 178500,
      "d": 750,
      "v": 75
    },
    {
      "midi": 64,
      "hit": false,
      "t": 178500,
      "d": 750,
      "v": 75
    },
    {
      "midi": 55,
      "hit": false,
      "t": 179250,
      "d": 750,
      "v": 66
    },
    {
      "midi": 43,
      "hit": false,
      "t": 179250,
      "d": 750,
      "v": 75
    },
    {
      "midi": 53,
      "hit": false,
      "t": 179250,
      "d": 750,
      "v": 75
    },
    {
      "midi": 55,
      "hit": false,
      "t": 179250,
      "d": 750,
      "v": 75
    },
    {
      "midi": 63,
      "hit": false,
      "t": 179250,
      "d": 750,
      "v": 75
    },
    {
      "midi": 67,
      "hit": false,
      "t": 179250,
      "d": 750,
      "v": 75
    },
    {
      "midi": 43,
      "hit": false,
      "t": 179250,
      "d": 750,
      "v": 75
    },
    {
      "midi": 53,
      "hit": false,
      "t": 179250,
      "d": 750,
      "v": 75
    },
    {
      "midi": 55,
      "hit": false,
      "t": 179250,
      "d": 750,
      "v": 75
    },
    {
      "midi": 63,
      "hit": false,
      "t": 179250,
      "d": 750,
      "v": 75
    },
    {
      "midi": 67,
      "hit": false,
      "t": 179250,
      "d": 750,
      "v": 75
    },
    {
      "midi": 55,
      "hit": false,
      "t": 179250,
      "d": 750,
      "v": 66
    },
    {
      "midi": 52,
      "hit": false,
      "t": 180000,
      "d": 375,
      "v": 66
    },
    {
      "midi": 52,
      "hit": false,
      "t": 180000,
      "d": 375,
      "v": 75
    },
    {
      "midi": 55,
      "hit": false,
      "t": 180000,
      "d": 375,
      "v": 75
    },
    {
      "midi": 57,
      "hit": false,
      "t": 180000,
      "d": 375,
      "v": 75
    },
    {
      "midi": 60,
      "hit": false,
      "t": 180000,
      "d": 375,
      "v": 75
    },
    {
      "midi": 64,
      "hit": false,
      "t": 180000,
      "d": 375,
      "v": 75
    },
    {
      "midi": 52,
      "hit": false,
      "t": 180000,
      "d": 375,
      "v": 75
    },
    {
      "midi": 55,
      "hit": false,
      "t": 180000,
      "d": 375,
      "v": 75
    },
    {
      "midi": 57,
      "hit": false,
      "t": 180000,
      "d": 375,
      "v": 75
    },
    {
      "midi": 60,
      "hit": false,
      "t": 180000,
      "d": 375,
      "v": 75
    },
    {
      "midi": 64,
      "hit": false,
      "t": 180000,
      "d": 375,
      "v": 75
    },
    {
      "midi": 52,
      "hit": false,
      "t": 180000,
      "d": 375,
      "v": 66
    },
    {
      "midi": 59,
      "hit": false,
      "t": 180375,
      "d": 375,
      "v": 66
    },
    {
      "midi": 59,
      "hit": false,
      "t": 180375,
      "d": 375,
      "v": 75
    },
    {
      "midi": 62,
      "hit": false,
      "t": 180375,
      "d": 375,
      "v": 75
    },
    {
      "midi": 64,
      "hit": false,
      "t": 180375,
      "d": 375,
      "v": 75
    },
    {
      "midi": 67,
      "hit": false,
      "t": 180375,
      "d": 375,
      "v": 75
    },
    {
      "midi": 71,
      "hit": false,
      "t": 180375,
      "d": 375,
      "v": 75
    },
    {
      "midi": 59,
      "hit": false,
      "t": 180375,
      "d": 375,
      "v": 75
    },
    {
      "midi": 62,
      "hit": false,
      "t": 180375,
      "d": 375,
      "v": 75
    },
    {
      "midi": 64,
      "hit": false,
      "t": 180375,
      "d": 375,
      "v": 75
    },
    {
      "midi": 67,
      "hit": false,
      "t": 180375,
      "d": 375,
      "v": 75
    },
    {
      "midi": 71,
      "hit": false,
      "t": 180375,
      "d": 375,
      "v": 75
    },
    {
      "midi": 59,
      "hit": false,
      "t": 180375,
      "d": 375,
      "v": 66
    },
    {
      "midi": 60,
      "hit": false,
      "t": 180750,
      "d": 1500,
      "v": 66
    },
    {
      "midi": 60,
      "hit": false,
      "t": 180750,
      "d": 1500,
      "v": 75
    },
    {
      "midi": 64,
      "hit": false,
      "t": 180750,
      "d": 1500,
      "v": 75
    },
    {
      "midi": 67,
      "hit": false,
      "t": 180750,
      "d": 1500,
      "v": 75
    },
    {
      "midi": 69,
      "hit": false,
      "t": 180750,
      "d": 1500,
      "v": 75
    },
    {
      "midi": 72,
      "hit": false,
      "t": 180750,
      "d": 1500,
      "v": 75
    },
    {
      "midi": 60,
      "hit": false,
      "t": 180750,
      "d": 1500,
      "v": 75
    },
    {
      "midi": 64,
      "hit": false,
      "t": 180750,
      "d": 1500,
      "v": 75
    },
    {
      "midi": 67,
      "hit": false,
      "t": 180750,
      "d": 1500,
      "v": 75
    },
    {
      "midi": 69,
      "hit": false,
      "t": 180750,
      "d": 1500,
      "v": 75
    },
    {
      "midi": 72,
      "hit": false,
      "t": 180750,
      "d": 1500,
      "v": 75
    },
    {
      "midi": 60,
      "hit": false,
      "t": 180750,
      "d": 1500,
      "v": 66
    },
    {
      "midi": 52,
      "hit": false,
      "t": 182250,
      "d": 750,
      "v": 66
    },
    {
      "midi": 52,
      "hit": false,
      "t": 182250,
      "d": 750,
      "v": 75
    },
    {
      "midi": 55,
      "hit": false,
      "t": 182250,
      "d": 750,
      "v": 75
    },
    {
      "midi": 57,
      "hit": false,
      "t": 182250,
      "d": 750,
      "v": 75
    },
    {
      "midi": 60,
      "hit": false,
      "t": 182250,
      "d": 750,
      "v": 75
    },
    {
      "midi": 64,
      "hit": false,
      "t": 182250,
      "d": 750,
      "v": 75
    },
    {
      "midi": 52,
      "hit": false,
      "t": 182250,
      "d": 750,
      "v": 75
    },
    {
      "midi": 55,
      "hit": false,
      "t": 182250,
      "d": 750,
      "v": 75
    },
    {
      "midi": 57,
      "hit": false,
      "t": 182250,
      "d": 750,
      "v": 75
    },
    {
      "midi": 60,
      "hit": false,
      "t": 182250,
      "d": 750,
      "v": 75
    },
    {
      "midi": 64,
      "hit": false,
      "t": 182250,
      "d": 750,
      "v": 75
    },
    {
      "midi": 52,
      "hit": false,
      "t": 182250,
      "d": 750,
      "v": 66
    },
    {
      "midi": 53,
      "hit": false,
      "t": 183000,
      "d": 375,
      "v": 66
    },
    {
      "midi": 53,
      "hit": false,
      "t": 183000,
      "d": 375,
      "v": 75
    },
    {
      "midi": 57,
      "hit": false,
      "t": 183000,
      "d": 375,
      "v": 75
    },
    {
      "midi": 60,
      "hit": false,
      "t": 183000,
      "d": 375,
      "v": 75
    },
    {
      "midi": 62,
      "hit": false,
      "t": 183000,
      "d": 375,
      "v": 75
    },
    {
      "midi": 65,
      "hit": false,
      "t": 183000,
      "d": 375,
      "v": 75
    },
    {
      "midi": 53,
      "hit": false,
      "t": 183000,
      "d": 375,
      "v": 75
    },
    {
      "midi": 57,
      "hit": false,
      "t": 183000,
      "d": 375,
      "v": 75
    },
    {
      "midi": 60,
      "hit": false,
      "t": 183000,
      "d": 375,
      "v": 75
    },
    {
      "midi": 62,
      "hit": false,
      "t": 183000,
      "d": 375,
      "v": 75
    },
    {
      "midi": 65,
      "hit": false,
      "t": 183000,
      "d": 375,
      "v": 75
    },
    {
      "midi": 53,
      "hit": false,
      "t": 183000,
      "d": 375,
      "v": 66
    },
    {
      "midi": 59,
      "hit": false,
      "t": 183375,
      "d": 375,
      "v": 66
    },
    {
      "midi": 59,
      "hit": false,
      "t": 183375,
      "d": 375,
      "v": 75
    },
    {
      "midi": 62,
      "hit": false,
      "t": 183375,
      "d": 375,
      "v": 75
    },
    {
      "midi": 65,
      "hit": false,
      "t": 183375,
      "d": 375,
      "v": 75
    },
    {
      "midi": 68,
      "hit": false,
      "t": 183375,
      "d": 375,
      "v": 75
    },
    {
      "midi": 71,
      "hit": false,
      "t": 183375,
      "d": 375,
      "v": 75
    },
    {
      "midi": 59,
      "hit": false,
      "t": 183375,
      "d": 375,
      "v": 75
    },
    {
      "midi": 62,
      "hit": false,
      "t": 183375,
      "d": 375,
      "v": 75
    },
    {
      "midi": 65,
      "hit": false,
      "t": 183375,
      "d": 375,
      "v": 75
    },
    {
      "midi": 68,
      "hit": false,
      "t": 183375,
      "d": 375,
      "v": 75
    },
    {
      "midi": 71,
      "hit": false,
      "t": 183375,
      "d": 375,
      "v": 75
    },
    {
      "midi": 59,
      "hit": false,
      "t": 183375,
      "d": 375,
      "v": 66
    },
    {
      "midi": 60,
      "hit": false,
      "t": 183750,
      "d": 1500,
      "v": 66
    },
    {
      "midi": 60,
      "hit": false,
      "t": 183750,
      "d": 1500,
      "v": 75
    },
    {
      "midi": 62,
      "hit": false,
      "t": 183750,
      "d": 1500,
      "v": 75
    },
    {
      "midi": 65,
      "hit": false,
      "t": 183750,
      "d": 1500,
      "v": 75
    },
    {
      "midi": 69,
      "hit": false,
      "t": 183750,
      "d": 1500,
      "v": 75
    },
    {
      "midi": 72,
      "hit": false,
      "t": 183750,
      "d": 1500,
      "v": 75
    },
    {
      "midi": 60,
      "hit": false,
      "t": 183750,
      "d": 1500,
      "v": 75
    },
    {
      "midi": 62,
      "hit": false,
      "t": 183750,
      "d": 1500,
      "v": 75
    },
    {
      "midi": 65,
      "hit": false,
      "t": 183750,
      "d": 1500,
      "v": 75
    },
    {
      "midi": 69,
      "hit": false,
      "t": 183750,
      "d": 1500,
      "v": 75
    },
    {
      "midi": 72,
      "hit": false,
      "t": 183750,
      "d": 1500,
      "v": 75
    },
    {
      "midi": 60,
      "hit": false,
      "t": 183750,
      "d": 1500,
      "v": 66
    },
    {
      "midi": 53,
      "hit": false,
      "t": 185250,
      "d": 750,
      "v": 66
    },
    {
      "midi": 53,
      "hit": false,
      "t": 185250,
      "d": 750,
      "v": 75
    },
    {
      "midi": 57,
      "hit": false,
      "t": 185250,
      "d": 750,
      "v": 75
    },
    {
      "midi": 60,
      "hit": false,
      "t": 185250,
      "d": 750,
      "v": 75
    },
    {
      "midi": 62,
      "hit": false,
      "t": 185250,
      "d": 750,
      "v": 75
    },
    {
      "midi": 65,
      "hit": false,
      "t": 185250,
      "d": 750,
      "v": 75
    },
    {
      "midi": 53,
      "hit": false,
      "t": 185250,
      "d": 750,
      "v": 75
    },
    {
      "midi": 57,
      "hit": false,
      "t": 185250,
      "d": 750,
      "v": 75
    },
    {
      "midi": 60,
      "hit": false,
      "t": 185250,
      "d": 750,
      "v": 75
    },
    {
      "midi": 62,
      "hit": false,
      "t": 185250,
      "d": 750,
      "v": 75
    },
    {
      "midi": 65,
      "hit": false,
      "t": 185250,
      "d": 750,
      "v": 75
    },
    {
      "midi": 53,
      "hit": false,
      "t": 185250,
      "d": 750,
      "v": 66
    },
    {
      "midi": 55,
      "hit": false,
      "t": 186000,
      "d": 375,
      "v": 66
    },
    {
      "midi": 55,
      "hit": false,
      "t": 186000,
      "d": 375,
      "v": 75
    },
    {
      "midi": 59,
      "hit": false,
      "t": 186000,
      "d": 375,
      "v": 75
    },
    {
      "midi": 62,
      "hit": false,
      "t": 186000,
      "d": 375,
      "v": 75
    },
    {
      "midi": 64,
      "hit": false,
      "t": 186000,
      "d": 375,
      "v": 75
    },
    {
      "midi": 67,
      "hit": false,
      "t": 186000,
      "d": 375,
      "v": 75
    },
    {
      "midi": 55,
      "hit": false,
      "t": 186000,
      "d": 375,
      "v": 75
    },
    {
      "midi": 59,
      "hit": false,
      "t": 186000,
      "d": 375,
      "v": 75
    },
    {
      "midi": 62,
      "hit": false,
      "t": 186000,
      "d": 375,
      "v": 75
    },
    {
      "midi": 64,
      "hit": false,
      "t": 186000,
      "d": 375,
      "v": 75
    },
    {
      "midi": 67,
      "hit": false,
      "t": 186000,
      "d": 375,
      "v": 75
    },
    {
      "midi": 55,
      "hit": false,
      "t": 186000,
      "d": 375,
      "v": 66
    },
    {
      "midi": 59,
      "hit": false,
      "t": 186375,
      "d": 375,
      "v": 66
    },
    {
      "midi": 59,
      "hit": false,
      "t": 186375,
      "d": 375,
      "v": 75
    },
    {
      "midi": 62,
      "hit": false,
      "t": 186375,
      "d": 375,
      "v": 75
    },
    {
      "midi": 64,
      "hit": false,
      "t": 186375,
      "d": 375,
      "v": 75
    },
    {
      "midi": 67,
      "hit": false,
      "t": 186375,
      "d": 375,
      "v": 75
    },
    {
      "midi": 71,
      "hit": false,
      "t": 186375,
      "d": 375,
      "v": 75
    },
    {
      "midi": 59,
      "hit": false,
      "t": 186375,
      "d": 375,
      "v": 75
    },
    {
      "midi": 62,
      "hit": false,
      "t": 186375,
      "d": 375,
      "v": 75
    },
    {
      "midi": 64,
      "hit": false,
      "t": 186375,
      "d": 375,
      "v": 75
    },
    {
      "midi": 67,
      "hit": false,
      "t": 186375,
      "d": 375,
      "v": 75
    },
    {
      "midi": 71,
      "hit": false,
      "t": 186375,
      "d": 375,
      "v": 75
    },
    {
      "midi": 59,
      "hit": false,
      "t": 186375,
      "d": 375,
      "v": 66
    },
    {
      "midi": 60,
      "hit": false,
      "t": 186750,
      "d": 750,
      "v": 66
    },
    {
      "midi": 60,
      "hit": false,
      "t": 186750,
      "d": 750,
      "v": 75
    },
    {
      "midi": 64,
      "hit": false,
      "t": 186750,
      "d": 750,
      "v": 75
    },
    {
      "midi": 67,
      "hit": false,
      "t": 186750,
      "d": 750,
      "v": 75
    },
    {
      "midi": 69,
      "hit": false,
      "t": 186750,
      "d": 750,
      "v": 75
    },
    {
      "midi": 72,
      "hit": false,
      "t": 186750,
      "d": 750,
      "v": 75
    },
    {
      "midi": 60,
      "hit": false,
      "t": 186750,
      "d": 750,
      "v": 75
    },
    {
      "midi": 64,
      "hit": false,
      "t": 186750,
      "d": 750,
      "v": 75
    },
    {
      "midi": 67,
      "hit": false,
      "t": 186750,
      "d": 750,
      "v": 75
    },
    {
      "midi": 69,
      "hit": false,
      "t": 186750,
      "d": 750,
      "v": 75
    },
    {
      "midi": 72,
      "hit": false,
      "t": 186750,
      "d": 750,
      "v": 75
    },
    {
      "midi": 60,
      "hit": false,
      "t": 186750,
      "d": 750,
      "v": 66
    },
    {
      "midi": 56,
      "hit": false,
      "t": 187500,
      "d": 375,
      "v": 66
    },
    {
      "midi": 56,
      "hit": false,
      "t": 187500,
      "d": 375,
      "v": 75
    },
    {
      "midi": 59,
      "hit": false,
      "t": 187500,
      "d": 375,
      "v": 75
    },
    {
      "midi": 62,
      "hit": false,
      "t": 187500,
      "d": 375,
      "v": 75
    },
    {
      "midi": 64,
      "hit": false,
      "t": 187500,
      "d": 375,
      "v": 75
    },
    {
      "midi": 68,
      "hit": false,
      "t": 187500,
      "d": 375,
      "v": 75
    },
    {
      "midi": 56,
      "hit": false,
      "t": 187500,
      "d": 375,
      "v": 75
    },
    {
      "midi": 59,
      "hit": false,
      "t": 187500,
      "d": 375,
      "v": 75
    },
    {
      "midi": 62,
      "hit": false,
      "t": 187500,
      "d": 375,
      "v": 75
    },
    {
      "midi": 64,
      "hit": false,
      "t": 187500,
      "d": 375,
      "v": 75
    },
    {
      "midi": 68,
      "hit": false,
      "t": 187500,
      "d": 375,
      "v": 75
    },
    {
      "midi": 56,
      "hit": false,
      "t": 187500,
      "d": 375,
      "v": 66
    },
    {
      "midi": 59,
      "hit": false,
      "t": 187875,
      "d": 375,
      "v": 66
    },
    {
      "midi": 59,
      "hit": false,
      "t": 187875,
      "d": 375,
      "v": 75
    },
    {
      "midi": 62,
      "hit": false,
      "t": 187875,
      "d": 375,
      "v": 75
    },
    {
      "midi": 64,
      "hit": false,
      "t": 187875,
      "d": 375,
      "v": 75
    },
    {
      "midi": 68,
      "hit": false,
      "t": 187875,
      "d": 375,
      "v": 75
    },
    {
      "midi": 71,
      "hit": false,
      "t": 187875,
      "d": 375,
      "v": 75
    },
    {
      "midi": 59,
      "hit": false,
      "t": 187875,
      "d": 375,
      "v": 75
    },
    {
      "midi": 62,
      "hit": false,
      "t": 187875,
      "d": 375,
      "v": 75
    },
    {
      "midi": 64,
      "hit": false,
      "t": 187875,
      "d": 375,
      "v": 75
    },
    {
      "midi": 68,
      "hit": false,
      "t": 187875,
      "d": 375,
      "v": 75
    },
    {
      "midi": 71,
      "hit": false,
      "t": 187875,
      "d": 375,
      "v": 75
    },
    {
      "midi": 59,
      "hit": false,
      "t": 187875,
      "d": 375,
      "v": 66
    },
    {
      "midi": 60,
      "hit": false,
      "t": 188250,
      "d": 750,
      "v": 66
    },
    {
      "midi": 60,
      "hit": false,
      "t": 188250,
      "d": 750,
      "v": 75
    },
    {
      "midi": 62,
      "hit": false,
      "t": 188250,
      "d": 750,
      "v": 75
    },
    {
      "midi": 64,
      "hit": false,
      "t": 188250,
      "d": 750,
      "v": 75
    },
    {
      "midi": 68,
      "hit": false,
      "t": 188250,
      "d": 750,
      "v": 75
    },
    {
      "midi": 72,
      "hit": false,
      "t": 188250,
      "d": 750,
      "v": 75
    },
    {
      "midi": 60,
      "hit": false,
      "t": 188250,
      "d": 750,
      "v": 75
    },
    {
      "midi": 62,
      "hit": false,
      "t": 188250,
      "d": 750,
      "v": 75
    },
    {
      "midi": 64,
      "hit": false,
      "t": 188250,
      "d": 750,
      "v": 75
    },
    {
      "midi": 68,
      "hit": false,
      "t": 188250,
      "d": 750,
      "v": 75
    },
    {
      "midi": 72,
      "hit": false,
      "t": 188250,
      "d": 750,
      "v": 75
    },
    {
      "midi": 60,
      "hit": false,
      "t": 188250,
      "d": 750,
      "v": 66
    },
    {
      "midi": 57,
      "hit": false,
      "t": 189000,
      "d": 375,
      "v": 66
    },
    {
      "midi": 57,
      "hit": false,
      "t": 189000,
      "d": 375,
      "v": 75
    },
    {
      "midi": 60,
      "hit": false,
      "t": 189000,
      "d": 375,
      "v": 75
    },
    {
      "midi": 62,
      "hit": false,
      "t": 189000,
      "d": 375,
      "v": 75
    },
    {
      "midi": 65,
      "hit": false,
      "t": 189000,
      "d": 375,
      "v": 75
    },
    {
      "midi": 69,
      "hit": false,
      "t": 189000,
      "d": 375,
      "v": 75
    },
    {
      "midi": 57,
      "hit": false,
      "t": 189000,
      "d": 375,
      "v": 75
    },
    {
      "midi": 60,
      "hit": false,
      "t": 189000,
      "d": 375,
      "v": 75
    },
    {
      "midi": 62,
      "hit": false,
      "t": 189000,
      "d": 375,
      "v": 75
    },
    {
      "midi": 65,
      "hit": false,
      "t": 189000,
      "d": 375,
      "v": 75
    },
    {
      "midi": 69,
      "hit": false,
      "t": 189000,
      "d": 375,
      "v": 75
    },
    {
      "midi": 57,
      "hit": false,
      "t": 189000,
      "d": 375,
      "v": 66
    },
    {
      "midi": 59,
      "hit": false,
      "t": 189375,
      "d": 375,
      "v": 66
    },
    {
      "midi": 59,
      "hit": false,
      "t": 189375,
      "d": 375,
      "v": 75
    },
    {
      "midi": 62,
      "hit": false,
      "t": 189375,
      "d": 375,
      "v": 75
    },
    {
      "midi": 65,
      "hit": false,
      "t": 189375,
      "d": 375,
      "v": 75
    },
    {
      "midi": 67,
      "hit": false,
      "t": 189375,
      "d": 375,
      "v": 75
    },
    {
      "midi": 71,
      "hit": false,
      "t": 189375,
      "d": 375,
      "v": 75
    },
    {
      "midi": 59,
      "hit": false,
      "t": 189375,
      "d": 375,
      "v": 75
    },
    {
      "midi": 62,
      "hit": false,
      "t": 189375,
      "d": 375,
      "v": 75
    },
    {
      "midi": 65,
      "hit": false,
      "t": 189375,
      "d": 375,
      "v": 75
    },
    {
      "midi": 67,
      "hit": false,
      "t": 189375,
      "d": 375,
      "v": 75
    },
    {
      "midi": 71,
      "hit": false,
      "t": 189375,
      "d": 375,
      "v": 75
    },
    {
      "midi": 59,
      "hit": false,
      "t": 189375,
      "d": 375,
      "v": 66
    },
    {
      "midi": 60,
      "hit": false,
      "t": 189750,
      "d": 1500,
      "v": 66
    },
    {
      "midi": 60,
      "hit": false,
      "t": 189750,
      "d": 1500,
      "v": 75
    },
    {
      "midi": 62,
      "hit": false,
      "t": 189750,
      "d": 1500,
      "v": 75
    },
    {
      "midi": 65,
      "hit": false,
      "t": 189750,
      "d": 1500,
      "v": 75
    },
    {
      "midi": 69,
      "hit": false,
      "t": 189750,
      "d": 1500,
      "v": 75
    },
    {
      "midi": 72,
      "hit": false,
      "t": 189750,
      "d": 1500,
      "v": 75
    },
    {
      "midi": 60,
      "hit": false,
      "t": 189750,
      "d": 1500,
      "v": 75
    },
    {
      "midi": 62,
      "hit": false,
      "t": 189750,
      "d": 1500,
      "v": 75
    },
    {
      "midi": 65,
      "hit": false,
      "t": 189750,
      "d": 1500,
      "v": 75
    },
    {
      "midi": 69,
      "hit": false,
      "t": 189750,
      "d": 1500,
      "v": 75
    },
    {
      "midi": 72,
      "hit": false,
      "t": 189750,
      "d": 1500,
      "v": 75
    },
    {
      "midi": 60,
      "hit": false,
      "t": 189750,
      "d": 1500,
      "v": 66
    },
    {
      "midi": 59,
      "hit": false,
      "t": 191250,
      "d": 750,
      "v": 66
    },
    {
      "midi": 59,
      "hit": false,
      "t": 191250,
      "d": 750,
      "v": 75
    },
    {
      "midi": 62,
      "hit": false,
      "t": 191250,
      "d": 750,
      "v": 75
    },
    {
      "midi": 65,
      "hit": false,
      "t": 191250,
      "d": 750,
      "v": 75
    },
    {
      "midi": 68,
      "hit": false,
      "t": 191250,
      "d": 750,
      "v": 75
    },
    {
      "midi": 71,
      "hit": false,
      "t": 191250,
      "d": 750,
      "v": 75
    },
    {
      "midi": 59,
      "hit": false,
      "t": 191250,
      "d": 750,
      "v": 75
    },
    {
      "midi": 62,
      "hit": false,
      "t": 191250,
      "d": 750,
      "v": 75
    },
    {
      "midi": 65,
      "hit": false,
      "t": 191250,
      "d": 750,
      "v": 75
    },
    {
      "midi": 68,
      "hit": false,
      "t": 191250,
      "d": 750,
      "v": 75
    },
    {
      "midi": 71,
      "hit": false,
      "t": 191250,
      "d": 750,
      "v": 75
    },
    {
      "midi": 59,
      "hit": false,
      "t": 191250,
      "d": 750,
      "v": 66
    },
    {
      "midi": 60,
      "hit": false,
      "t": 192000,
      "d": 750,
      "v": 66
    },
    {
      "midi": 60,
      "hit": false,
      "t": 192000,
      "d": 750,
      "v": 75
    },
    {
      "midi": 64,
      "hit": false,
      "t": 192000,
      "d": 750,
      "v": 75
    },
    {
      "midi": 67,
      "hit": false,
      "t": 192000,
      "d": 750,
      "v": 75
    },
    {
      "midi": 69,
      "hit": false,
      "t": 192000,
      "d": 750,
      "v": 75
    },
    {
      "midi": 72,
      "hit": false,
      "t": 192000,
      "d": 750,
      "v": 75
    },
    {
      "midi": 60,
      "hit": false,
      "t": 192000,
      "d": 750,
      "v": 75
    },
    {
      "midi": 64,
      "hit": false,
      "t": 192000,
      "d": 750,
      "v": 75
    },
    {
      "midi": 67,
      "hit": false,
      "t": 192000,
      "d": 750,
      "v": 75
    },
    {
      "midi": 69,
      "hit": false,
      "t": 192000,
      "d": 750,
      "v": 75
    },
    {
      "midi": 72,
      "hit": false,
      "t": 192000,
      "d": 750,
      "v": 75
    },
    {
      "midi": 60,
      "hit": false,
      "t": 192000,
      "d": 750,
      "v": 66
    },
    {
      "midi": 59,
      "hit": false,
      "t": 193500,
      "d": 375,
      "v": 66
    },
    {
      "midi": 59,
      "hit": false,
      "t": 193500,
      "d": 375,
      "v": 75
    },
    {
      "midi": 60,
      "hit": false,
      "t": 193500,
      "d": 375,
      "v": 75
    },
    {
      "midi": 63,
      "hit": false,
      "t": 193500,
      "d": 375,
      "v": 75
    },
    {
      "midi": 66,
      "hit": false,
      "t": 193500,
      "d": 375,
      "v": 75
    },
    {
      "midi": 71,
      "hit": false,
      "t": 193500,
      "d": 375,
      "v": 75
    },
    {
      "midi": 59,
      "hit": false,
      "t": 193500,
      "d": 375,
      "v": 75
    },
    {
      "midi": 60,
      "hit": false,
      "t": 193500,
      "d": 375,
      "v": 75
    },
    {
      "midi": 63,
      "hit": false,
      "t": 193500,
      "d": 375,
      "v": 75
    },
    {
      "midi": 66,
      "hit": false,
      "t": 193500,
      "d": 375,
      "v": 75
    },
    {
      "midi": 71,
      "hit": false,
      "t": 193500,
      "d": 375,
      "v": 75
    },
    {
      "midi": 59,
      "hit": false,
      "t": 193500,
      "d": 375,
      "v": 66
    },
    {
      "midi": 57,
      "hit": false,
      "t": 193875,
      "d": 375,
      "v": 66
    },
    {
      "midi": 57,
      "hit": false,
      "t": 193875,
      "d": 375,
      "v": 75
    },
    {
      "midi": 60,
      "hit": false,
      "t": 193875,
      "d": 375,
      "v": 75
    },
    {
      "midi": 63,
      "hit": false,
      "t": 193875,
      "d": 375,
      "v": 75
    },
    {
      "midi": 66,
      "hit": false,
      "t": 193875,
      "d": 375,
      "v": 75
    },
    {
      "midi": 69,
      "hit": false,
      "t": 193875,
      "d": 375,
      "v": 75
    },
    {
      "midi": 57,
      "hit": false,
      "t": 193875,
      "d": 375,
      "v": 75
    },
    {
      "midi": 60,
      "hit": false,
      "t": 193875,
      "d": 375,
      "v": 75
    },
    {
      "midi": 63,
      "hit": false,
      "t": 193875,
      "d": 375,
      "v": 75
    },
    {
      "midi": 66,
      "hit": false,
      "t": 193875,
      "d": 375,
      "v": 75
    },
    {
      "midi": 69,
      "hit": false,
      "t": 193875,
      "d": 375,
      "v": 75
    },
    {
      "midi": 57,
      "hit": false,
      "t": 193875,
      "d": 375,
      "v": 66
    },
    {
      "midi": 55,
      "hit": false,
      "t": 194250,
      "d": 375,
      "v": 66
    },
    {
      "midi": 55,
      "hit": false,
      "t": 194250,
      "d": 375,
      "v": 75
    },
    {
      "midi": 57,
      "hit": false,
      "t": 194250,
      "d": 375,
      "v": 75
    },
    {
      "midi": 60,
      "hit": false,
      "t": 194250,
      "d": 375,
      "v": 75
    },
    {
      "midi": 63,
      "hit": false,
      "t": 194250,
      "d": 375,
      "v": 75
    },
    {
      "midi": 67,
      "hit": false,
      "t": 194250,
      "d": 375,
      "v": 75
    },
    {
      "midi": 55,
      "hit": false,
      "t": 194250,
      "d": 375,
      "v": 75
    },
    {
      "midi": 57,
      "hit": false,
      "t": 194250,
      "d": 375,
      "v": 75
    },
    {
      "midi": 60,
      "hit": false,
      "t": 194250,
      "d": 375,
      "v": 75
    },
    {
      "midi": 63,
      "hit": false,
      "t": 194250,
      "d": 375,
      "v": 75
    },
    {
      "midi": 67,
      "hit": false,
      "t": 194250,
      "d": 375,
      "v": 75
    },
    {
      "midi": 55,
      "hit": false,
      "t": 194250,
      "d": 375,
      "v": 66
    },
    {
      "midi": 54,
      "hit": false,
      "t": 194625,
      "d": 375,
      "v": 66
    },
    {
      "midi": 54,
      "hit": false,
      "t": 194625,
      "d": 375,
      "v": 75
    },
    {
      "midi": 57,
      "hit": false,
      "t": 194625,
      "d": 375,
      "v": 75
    },
    {
      "midi": 60,
      "hit": false,
      "t": 194625,
      "d": 375,
      "v": 75
    },
    {
      "midi": 63,
      "hit": false,
      "t": 194625,
      "d": 375,
      "v": 75
    },
    {
      "midi": 66,
      "hit": false,
      "t": 194625,
      "d": 375,
      "v": 75
    },
    {
      "midi": 54,
      "hit": false,
      "t": 194625,
      "d": 375,
      "v": 75
    },
    {
      "midi": 57,
      "hit": false,
      "t": 194625,
      "d": 375,
      "v": 75
    },
    {
      "midi": 60,
      "hit": false,
      "t": 194625,
      "d": 375,
      "v": 75
    },
    {
      "midi": 63,
      "hit": false,
      "t": 194625,
      "d": 375,
      "v": 75
    },
    {
      "midi": 66,
      "hit": false,
      "t": 194625,
      "d": 375,
      "v": 75
    },
    {
      "midi": 54,
      "hit": false,
      "t": 194625,
      "d": 375,
      "v": 66
    },
    {
      "midi": 55,
      "hit": false,
      "t": 195000,
      "d": 750,
      "v": 66
    },
    {
      "midi": 55,
      "hit": false,
      "t": 195000,
      "d": 750,
      "v": 75
    },
    {
      "midi": 57,
      "hit": false,
      "t": 195000,
      "d": 750,
      "v": 75
    },
    {
      "midi": 60,
      "hit": false,
      "t": 195000,
      "d": 750,
      "v": 75
    },
    {
      "midi": 62,
      "hit": false,
      "t": 195000,
      "d": 750,
      "v": 75
    },
    {
      "midi": 67,
      "hit": false,
      "t": 195000,
      "d": 750,
      "v": 75
    },
    {
      "midi": 55,
      "hit": false,
      "t": 195000,
      "d": 750,
      "v": 75
    },
    {
      "midi": 57,
      "hit": false,
      "t": 195000,
      "d": 750,
      "v": 75
    },
    {
      "midi": 60,
      "hit": false,
      "t": 195000,
      "d": 750,
      "v": 75
    },
    {
      "midi": 62,
      "hit": false,
      "t": 195000,
      "d": 750,
      "v": 75
    },
    {
      "midi": 67,
      "hit": false,
      "t": 195000,
      "d": 750,
      "v": 75
    },
    {
      "midi": 55,
      "hit": false,
      "t": 195000,
      "d": 750,
      "v": 66
    },
    {
      "midi": 50,
      "hit": false,
      "t": 195750,
      "d": 1500,
      "v": 66
    },
    {
      "midi": 57,
      "hit": false,
      "t": 195750,
      "d": 750,
      "v": 75
    },
    {
      "midi": 60,
      "hit": false,
      "t": 195750,
      "d": 750,
      "v": 75
    },
    {
      "midi": 50,
      "hit": false,
      "t": 195750,
      "d": 1500,
      "v": 75
    },
    {
      "midi": 53,
      "hit": false,
      "t": 195750,
      "d": 1500,
      "v": 75
    },
    {
      "midi": 62,
      "hit": false,
      "t": 195750,
      "d": 1500,
      "v": 75
    },
    {
      "midi": 57,
      "hit": false,
      "t": 195750,
      "d": 750,
      "v": 75
    },
    {
      "midi": 60,
      "hit": false,
      "t": 195750,
      "d": 750,
      "v": 75
    },
    {
      "midi": 50,
      "hit": false,
      "t": 195750,
      "d": 1500,
      "v": 75
    },
    {
      "midi": 53,
      "hit": false,
      "t": 195750,
      "d": 1500,
      "v": 75
    },
    {
      "midi": 62,
      "hit": false,
      "t": 195750,
      "d": 1500,
      "v": 75
    },
    {
      "midi": 50,
      "hit": false,
      "t": 195750,
      "d": 1500,
      "v": 66
    },
    {
      "midi": 55,
      "hit": false,
      "t": 196500,
      "d": 750,
      "v": 75
    },
    {
      "midi": 59,
      "hit": false,
      "t": 196500,
      "d": 750,
      "v": 75
    },
    {
      "midi": 55,
      "hit": false,
      "t": 196500,
      "d": 750,
      "v": 75
    },
    {
      "midi": 59,
      "hit": false,
      "t": 196500,
      "d": 750,
      "v": 75
    },
    {
      "midi": 52,
      "hit": false,
      "t": 197250,
      "d": 750,
      "v": 66
    },
    {
      "midi": 48,
      "hit": false,
      "t": 197250,
      "d": 750,
      "v": 75
    },
    {
      "midi": 55,
      "hit": false,
      "t": 197250,
      "d": 750,
      "v": 75
    },
    {
      "midi": 58,
      "hit": false,
      "t": 197250,
      "d": 750,
      "v": 75
    },
    {
      "midi": 61,
      "hit": false,
      "t": 197250,
      "d": 750,
      "v": 75
    },
    {
      "midi": 64,
      "hit": false,
      "t": 197250,
      "d": 750,
      "v": 75
    },
    {
      "midi": 48,
      "hit": false,
      "t": 197250,
      "d": 750,
      "v": 75
    },
    {
      "midi": 55,
      "hit": false,
      "t": 197250,
      "d": 750,
      "v": 75
    },
    {
      "midi": 58,
      "hit": false,
      "t": 197250,
      "d": 750,
      "v": 75
    },
    {
      "midi": 61,
      "hit": false,
      "t": 197250,
      "d": 750,
      "v": 75
    },
    {
      "midi": 64,
      "hit": false,
      "t": 197250,
      "d": 750,
      "v": 75
    },
    {
      "midi": 52,
      "hit": false,
      "t": 197250,
      "d": 750,
      "v": 66
    },
    {
      "midi": 57,
      "hit": false,
      "t": 198000,
      "d": 2250,
      "v": 66
    },
    {
      "midi": 52,
      "hit": false,
      "t": 198000,
      "d": 375,
      "v": 75
    },
    {
      "midi": 53,
      "hit": false,
      "t": 198000,
      "d": 375,
      "v": 75
    },
    {
      "midi": 57,
      "hit": false,
      "t": 198000,
      "d": 375,
      "v": 75
    },
    {
      "midi": 60,
      "hit": false,
      "t": 198000,
      "d": 375,
      "v": 75
    },
    {
      "midi": 64,
      "hit": false,
      "t": 198000,
      "d": 375,
      "v": 75
    },
    {
      "midi": 52,
      "hit": false,
      "t": 198000,
      "d": 375,
      "v": 75
    },
    {
      "midi": 53,
      "hit": false,
      "t": 198000,
      "d": 375,
      "v": 75
    },
    {
      "midi": 57,
      "hit": false,
      "t": 198000,
      "d": 375,
      "v": 75
    },
    {
      "midi": 60,
      "hit": false,
      "t": 198000,
      "d": 375,
      "v": 75
    },
    {
      "midi": 64,
      "hit": false,
      "t": 198000,
      "d": 375,
      "v": 75
    },
    {
      "midi": 57,
      "hit": false,
      "t": 198000,
      "d": 2250,
      "v": 66
    },
    {
      "midi": 48,
      "hit": false,
      "t": 198375,
      "d": 375,
      "v": 75
    },
    {
      "midi": 60,
      "hit": false,
      "t": 198375,
      "d": 375,
      "v": 75
    },
    {
      "midi": 48,
      "hit": false,
      "t": 198375,
      "d": 375,
      "v": 75
    },
    {
      "midi": 60,
      "hit": false,
      "t": 198375,
      "d": 375,
      "v": 75
    },
    {
      "midi": 50,
      "hit": false,
      "t": 198750,
      "d": 375,
      "v": 75
    },
    {
      "midi": 62,
      "hit": false,
      "t": 198750,
      "d": 375,
      "v": 75
    },
    {
      "midi": 50,
      "hit": false,
      "t": 198750,
      "d": 375,
      "v": 75
    },
    {
      "midi": 62,
      "hit": false,
      "t": 198750,
      "d": 375,
      "v": 75
    },
    {
      "midi": 52,
      "hit": false,
      "t": 199125,
      "d": 375,
      "v": 75
    },
    {
      "midi": 64,
      "hit": false,
      "t": 199125,
      "d": 375,
      "v": 75
    },
    {
      "midi": 52,
      "hit": false,
      "t": 199125,
      "d": 375,
      "v": 75
    },
    {
      "midi": 64,
      "hit": false,
      "t": 199125,
      "d": 375,
      "v": 75
    },
    {
      "midi": 50,
      "hit": false,
      "t": 199500,
      "d": 750,
      "v": 75
    },
    {
      "midi": 53,
      "hit": false,
      "t": 199500,
      "d": 750,
      "v": 75
    },
    {
      "midi": 57,
      "hit": false,
      "t": 199500,
      "d": 750,
      "v": 75
    },
    {
      "midi": 60,
      "hit": false,
      "t": 199500,
      "d": 750,
      "v": 75
    },
    {
      "midi": 62,
      "hit": false,
      "t": 199500,
      "d": 750,
      "v": 75
    },
    {
      "midi": 50,
      "hit": false,
      "t": 199500,
      "d": 750,
      "v": 75
    },
    {
      "midi": 53,
      "hit": false,
      "t": 199500,
      "d": 750,
      "v": 75
    },
    {
      "midi": 57,
      "hit": false,
      "t": 199500,
      "d": 750,
      "v": 75
    },
    {
      "midi": 60,
      "hit": false,
      "t": 199500,
      "d": 750,
      "v": 75
    },
    {
      "midi": 62,
      "hit": false,
      "t": 199500,
      "d": 750,
      "v": 75
    },
    {
      "midi": 57,
      "hit": false,
      "t": 200250,
      "d": 2250,
      "v": 66
    },
    {
      "midi": 50,
      "hit": false,
      "t": 200250,
      "d": 1125,
      "v": 75
    },
    {
      "midi": 52,
      "hit": false,
      "t": 200250,
      "d": 1125,
      "v": 75
    },
    {
      "midi": 55,
      "hit": false,
      "t": 200250,
      "d": 1125,
      "v": 75
    },
    {
      "midi": 59,
      "hit": false,
      "t": 200250,
      "d": 1125,
      "v": 75
    },
    {
      "midi": 62,
      "hit": false,
      "t": 200250,
      "d": 1125,
      "v": 75
    },
    {
      "midi": 50,
      "hit": false,
      "t": 200250,
      "d": 1125,
      "v": 75
    },
    {
      "midi": 52,
      "hit": false,
      "t": 200250,
      "d": 1125,
      "v": 75
    },
    {
      "midi": 55,
      "hit": false,
      "t": 200250,
      "d": 1125,
      "v": 75
    },
    {
      "midi": 59,
      "hit": false,
      "t": 200250,
      "d": 1125,
      "v": 75
    },
    {
      "midi": 62,
      "hit": false,
      "t": 200250,
      "d": 1125,
      "v": 75
    },
    {
      "midi": 57,
      "hit": false,
      "t": 200250,
      "d": 2250,
      "v": 66
    },
    {
      "midi": 47,
      "hit": false,
      "t": 201375,
      "d": 375,
      "v": 75
    },
    {
      "midi": 59,
      "hit": false,
      "t": 201375,
      "d": 375,
      "v": 75
    },
    {
      "midi": 47,
      "hit": false,
      "t": 201375,
      "d": 375,
      "v": 75
    },
    {
      "midi": 59,
      "hit": false,
      "t": 201375,
      "d": 375,
      "v": 75
    },
    {
      "midi": 49,
      "hit": false,
      "t": 201750,
      "d": 375,
      "v": 75
    },
    {
      "midi": 61,
      "hit": false,
      "t": 201750,
      "d": 375,
      "v": 75
    },
    {
      "midi": 49,
      "hit": false,
      "t": 201750,
      "d": 375,
      "v": 75
    },
    {
      "midi": 61,
      "hit": false,
      "t": 201750,
      "d": 375,
      "v": 75
    },
    {
      "midi": 50,
      "hit": false,
      "t": 202125,
      "d": 375,
      "v": 75
    },
    {
      "midi": 62,
      "hit": false,
      "t": 202125,
      "d": 375,
      "v": 75
    },
    {
      "midi": 50,
      "hit": false,
      "t": 202125,
      "d": 375,
      "v": 75
    },
    {
      "midi": 62,
      "hit": false,
      "t": 202125,
      "d": 375,
      "v": 75
    },
    {
      "midi": 49,
      "hit": false,
      "t": 202500,
      "d": 1500,
      "v": 75
    },
    {
      "midi": 52,
      "hit": false,
      "t": 202500,
      "d": 1500,
      "v": 75
    },
    {
      "midi": 55,
      "hit": false,
      "t": 202500,
      "d": 1500,
      "v": 75
    },
    {
      "midi": 57,
      "hit": false,
      "t": 202500,
      "d": 1500,
      "v": 75
    },
    {
      "midi": 61,
      "hit": false,
      "t": 202500,
      "d": 1500,
      "v": 75
    },
    {
      "midi": 49,
      "hit": false,
      "t": 202500,
      "d": 1500,
      "v": 75
    },
    {
      "midi": 52,
      "hit": false,
      "t": 202500,
      "d": 1500,
      "v": 75
    },
    {
      "midi": 55,
      "hit": false,
      "t": 202500,
      "d": 1500,
      "v": 75
    },
    {
      "midi": 57,
      "hit": false,
      "t": 202500,
      "d": 1500,
      "v": 75
    },
    {
      "midi": 61,
      "hit": false,
      "t": 202500,
      "d": 1500,
      "v": 75
    },
    {
      "midi": 59,
      "hit": false,
      "t": 204000,
      "d": 375,
      "v": 66
    },
    {
      "midi": 71,
      "hit": false,
      "t": 204000,
      "d": 375,
      "v": 75
    },
    {
      "midi": 50,
      "hit": false,
      "t": 204000,
      "d": 1125,
      "v": 75
    },
    {
      "midi": 53,
      "hit": false,
      "t": 204000,
      "d": 1125,
      "v": 75
    },
    {
      "midi": 57,
      "hit": false,
      "t": 204000,
      "d": 1125,
      "v": 75
    },
    {
      "midi": 71,
      "hit": false,
      "t": 204000,
      "d": 375,
      "v": 75
    },
    {
      "midi": 50,
      "hit": false,
      "t": 204000,
      "d": 1125,
      "v": 75
    },
    {
      "midi": 53,
      "hit": false,
      "t": 204000,
      "d": 1125,
      "v": 75
    },
    {
      "midi": 57,
      "hit": false,
      "t": 204000,
      "d": 1125,
      "v": 75
    },
    {
      "midi": 59,
      "hit": false,
      "t": 204000,
      "d": 375,
      "v": 66
    },
    {
      "midi": 57,
      "hit": false,
      "t": 204375,
      "d": 375,
      "v": 66
    },
    {
      "midi": 69,
      "hit": false,
      "t": 204375,
      "d": 375,
      "v": 75
    },
    {
      "midi": 69,
      "hit": false,
      "t": 204375,
      "d": 375,
      "v": 75
    },
    {
      "midi": 57,
      "hit": false,
      "t": 204375,
      "d": 375,
      "v": 66
    },
    {
      "midi": 53,
      "hit": false,
      "t": 204750,
      "d": 1500,
      "v": 66
    },
    {
      "midi": 65,
      "hit": false,
      "t": 204750,
      "d": 1500,
      "v": 75
    },
    {
      "midi": 65,
      "hit": false,
      "t": 204750,
      "d": 1500,
      "v": 75
    },
    {
      "midi": 53,
      "hit": false,
      "t": 204750,
      "d": 1500,
      "v": 66
    },
    {
      "midi": 50,
      "hit": false,
      "t": 205125,
      "d": 375,
      "v": 75
    },
    {
      "midi": 53,
      "hit": false,
      "t": 205125,
      "d": 375,
      "v": 75
    },
    {
      "midi": 57,
      "hit": false,
      "t": 205125,
      "d": 375,
      "v": 75
    },
    {
      "midi": 50,
      "hit": false,
      "t": 205125,
      "d": 375,
      "v": 75
    },
    {
      "midi": 53,
      "hit": false,
      "t": 205125,
      "d": 375,
      "v": 75
    },
    {
      "midi": 57,
      "hit": false,
      "t": 205125,
      "d": 375,
      "v": 75
    },
    {
      "midi": 50,
      "hit": false,
      "t": 205500,
      "d": 1500,
      "v": 75
    },
    {
      "midi": 53,
      "hit": false,
      "t": 205500,
      "d": 1500,
      "v": 75
    },
    {
      "midi": 57,
      "hit": false,
      "t": 205500,
      "d": 1500,
      "v": 75
    },
    {
      "midi": 50,
      "hit": false,
      "t": 205500,
      "d": 1500,
      "v": 75
    },
    {
      "midi": 53,
      "hit": false,
      "t": 205500,
      "d": 1500,
      "v": 75
    },
    {
      "midi": 57,
      "hit": false,
      "t": 205500,
      "d": 1500,
      "v": 75
    },
    {
      "midi": 59,
      "hit": false,
      "t": 206250,
      "d": 375,
      "v": 66
    },
    {
      "midi": 71,
      "hit": false,
      "t": 206250,
      "d": 375,
      "v": 75
    },
    {
      "midi": 71,
      "hit": false,
      "t": 206250,
      "d": 375,
      "v": 75
    },
    {
      "midi": 59,
      "hit": false,
      "t": 206250,
      "d": 375,
      "v": 66
    },
    {
      "midi": 57,
      "hit": false,
      "t": 206625,
      "d": 375,
      "v": 66
    },
    {
      "midi": 69,
      "hit": false,
      "t": 206625,
      "d": 375,
      "v": 75
    },
    {
      "midi": 69,
      "hit": false,
      "t": 206625,
      "d": 375,
      "v": 75
    },
    {
      "midi": 57,
      "hit": false,
      "t": 206625,
      "d": 375,
      "v": 66
    },
    {
      "midi": 53,
      "hit": false,
      "t": 207000,
      "d": 750,
      "v": 66
    },
    {
      "midi": 65,
      "hit": false,
      "t": 207000,
      "d": 750,
      "v": 75
    },
    {
      "midi": 50,
      "hit": false,
      "t": 207000,
      "d": 1125,
      "v": 75
    },
    {
      "midi": 53,
      "hit": false,
      "t": 207000,
      "d": 1125,
      "v": 75
    },
    {
      "midi": 57,
      "hit": false,
      "t": 207000,
      "d": 1125,
      "v": 75
    },
    {
      "midi": 65,
      "hit": false,
      "t": 207000,
      "d": 750,
      "v": 75
    },
    {
      "midi": 50,
      "hit": false,
      "t": 207000,
      "d": 1125,
      "v": 75
    },
    {
      "midi": 53,
      "hit": false,
      "t": 207000,
      "d": 1125,
      "v": 75
    },
    {
      "midi": 57,
      "hit": false,
      "t": 207000,
      "d": 1125,
      "v": 75
    },
    {
      "midi": 53,
      "hit": false,
      "t": 207000,
      "d": 750,
      "v": 66
    },
    {
      "midi": 53,
      "hit": false,
      "t": 207750,
      "d": 2250,
      "v": 66
    },
    {
      "midi": 65,
      "hit": false,
      "t": 207750,
      "d": 2250,
      "v": 75
    },
    {
      "midi": 65,
      "hit": false,
      "t": 207750,
      "d": 2250,
      "v": 75
    },
    {
      "midi": 53,
      "hit": false,
      "t": 207750,
      "d": 2250,
      "v": 66
    },
    {
      "midi": 50,
      "hit": false,
      "t": 208125,
      "d": 375,
      "v": 75
    },
    {
      "midi": 53,
      "hit": false,
      "t": 208125,
      "d": 375,
      "v": 75
    },
    {
      "midi": 57,
      "hit": false,
      "t": 208125,
      "d": 375,
      "v": 75
    },
    {
      "midi": 50,
      "hit": false,
      "t": 208125,
      "d": 375,
      "v": 75
    },
    {
      "midi": 53,
      "hit": false,
      "t": 208125,
      "d": 375,
      "v": 75
    },
    {
      "midi": 57,
      "hit": false,
      "t": 208125,
      "d": 375,
      "v": 75
    },
    {
      "midi": 50,
      "hit": false,
      "t": 208500,
      "d": 750,
      "v": 75
    },
    {
      "midi": 53,
      "hit": false,
      "t": 208500,
      "d": 750,
      "v": 75
    },
    {
      "midi": 57,
      "hit": false,
      "t": 208500,
      "d": 750,
      "v": 75
    },
    {
      "midi": 50,
      "hit": false,
      "t": 208500,
      "d": 750,
      "v": 75
    },
    {
      "midi": 53,
      "hit": false,
      "t": 208500,
      "d": 750,
      "v": 75
    },
    {
      "midi": 57,
      "hit": false,
      "t": 208500,
      "d": 750,
      "v": 75
    },
    {
      "midi": 50,
      "hit": false,
      "t": 209250,
      "d": 750,
      "v": 75
    },
    {
      "midi": 53,
      "hit": false,
      "t": 209250,
      "d": 750,
      "v": 75
    },
    {
      "midi": 57,
      "hit": false,
      "t": 209250,
      "d": 750,
      "v": 75
    },
    {
      "midi": 50,
      "hit": false,
      "t": 209250,
      "d": 750,
      "v": 75
    },
    {
      "midi": 53,
      "hit": false,
      "t": 209250,
      "d": 750,
      "v": 75
    },
    {
      "midi": 57,
      "hit": false,
      "t": 209250,
      "d": 750,
      "v": 75
    },
    {
      "midi": 59,
      "hit": false,
      "t": 210000,
      "d": 375,
      "v": 66
    },
    {
      "midi": 71,
      "hit": false,
      "t": 210000,
      "d": 375,
      "v": 75
    },
    {
      "midi": 52,
      "hit": false,
      "t": 210000,
      "d": 1125,
      "v": 75
    },
    {
      "midi": 59,
      "hit": false,
      "t": 210000,
      "d": 1125,
      "v": 75
    },
    {
      "midi": 60,
      "hit": false,
      "t": 210000,
      "d": 1125,
      "v": 75
    },
    {
      "midi": 71,
      "hit": false,
      "t": 210000,
      "d": 375,
      "v": 75
    },
    {
      "midi": 52,
      "hit": false,
      "t": 210000,
      "d": 1125,
      "v": 75
    },
    {
      "midi": 59,
      "hit": false,
      "t": 210000,
      "d": 1125,
      "v": 75
    },
    {
      "midi": 60,
      "hit": false,
      "t": 210000,
      "d": 1125,
      "v": 75
    },
    {
      "midi": 59,
      "hit": false,
      "t": 210000,
      "d": 375,
      "v": 66
    },
    {
      "midi": 57,
      "hit": false,
      "t": 210375,
      "d": 375,
      "v": 66
    },
    {
      "midi": 69,
      "hit": false,
      "t": 210375,
      "d": 375,
      "v": 75
    },
    {
      "midi": 69,
      "hit": false,
      "t": 210375,
      "d": 375,
      "v": 75
    },
    {
      "midi": 57,
      "hit": false,
      "t": 210375,
      "d": 375,
      "v": 66
    },
    {
      "midi": 52,
      "hit": false,
      "t": 210750,
      "d": 1500,
      "v": 66
    },
    {
      "midi": 64,
      "hit": false,
      "t": 210750,
      "d": 1500,
      "v": 75
    },
    {
      "midi": 64,
      "hit": false,
      "t": 210750,
      "d": 1500,
      "v": 75
    },
    {
      "midi": 52,
      "hit": false,
      "t": 210750,
      "d": 1500,
      "v": 66
    },
    {
      "midi": 52,
      "hit": false,
      "t": 211125,
      "d": 375,
      "v": 75
    },
    {
      "midi": 59,
      "hit": false,
      "t": 211125,
      "d": 375,
      "v": 75
    },
    {
      "midi": 60,
      "hit": false,
      "t": 211125,
      "d": 375,
      "v": 75
    },
    {
      "midi": 52,
      "hit": false,
      "t": 211125,
      "d": 375,
      "v": 75
    },
    {
      "midi": 59,
      "hit": false,
      "t": 211125,
      "d": 375,
      "v": 75
    },
    {
      "midi": 60,
      "hit": false,
      "t": 211125,
      "d": 375,
      "v": 75
    },
    {
      "midi": 52,
      "hit": false,
      "t": 211500,
      "d": 1500,
      "v": 75
    },
    {
      "midi": 57,
      "hit": false,
      "t": 211500,
      "d": 1500,
      "v": 75
    },
    {
      "midi": 60,
      "hit": false,
      "t": 211500,
      "d": 1500,
      "v": 75
    },
    {
      "midi": 52,
      "hit": false,
      "t": 211500,
      "d": 1500,
      "v": 75
    },
    {
      "midi": 57,
      "hit": false,
      "t": 211500,
      "d": 1500,
      "v": 75
    },
    {
      "midi": 60,
      "hit": false,
      "t": 211500,
      "d": 1500,
      "v": 75
    },
    {
      "midi": 59,
      "hit": false,
      "t": 212250,
      "d": 375,
      "v": 66
    },
    {
      "midi": 71,
      "hit": false,
      "t": 212250,
      "d": 375,
      "v": 75
    },
    {
      "midi": 71,
      "hit": false,
      "t": 212250,
      "d": 375,
      "v": 75
    },
    {
      "midi": 59,
      "hit": false,
      "t": 212250,
      "d": 375,
      "v": 66
    },
    {
      "midi": 57,
      "hit": false,
      "t": 212625,
      "d": 375,
      "v": 66
    },
    {
      "midi": 69,
      "hit": false,
      "t": 212625,
      "d": 375,
      "v": 75
    },
    {
      "midi": 69,
      "hit": false,
      "t": 212625,
      "d": 375,
      "v": 75
    },
    {
      "midi": 57,
      "hit": false,
      "t": 212625,
      "d": 375,
      "v": 66
    },
    {
      "midi": 52,
      "hit": false,
      "t": 213000,
      "d": 3000,
      "v": 66
    },
    {
      "midi": 52,
      "hit": false,
      "t": 213000,
      "d": 1125,
      "v": 75
    },
    {
      "midi": 59,
      "hit": false,
      "t": 213000,
      "d": 1125,
      "v": 75
    },
    {
      "midi": 60,
      "hit": false,
      "t": 213000,
      "d": 1125,
      "v": 75
    },
    {
      "midi": 64,
      "hit": false,
      "t": 213000,
      "d": 3000,
      "v": 75
    },
    {
      "midi": 52,
      "hit": false,
      "t": 213000,
      "d": 1125,
      "v": 75
    },
    {
      "midi": 59,
      "hit": false,
      "t": 213000,
      "d": 1125,
      "v": 75
    },
    {
      "midi": 60,
      "hit": false,
      "t": 213000,
      "d": 1125,
      "v": 75
    },
    {
      "midi": 64,
      "hit": false,
      "t": 213000,
      "d": 3000,
      "v": 75
    },
    {
      "midi": 52,
      "hit": false,
      "t": 213000,
      "d": 3000,
      "v": 66
    },
    {
      "midi": 52,
      "hit": false,
      "t": 214125,
      "d": 375,
      "v": 75
    },
    {
      "midi": 59,
      "hit": false,
      "t": 214125,
      "d": 375,
      "v": 75
    },
    {
      "midi": 60,
      "hit": false,
      "t": 214125,
      "d": 375,
      "v": 75
    },
    {
      "midi": 52,
      "hit": false,
      "t": 214125,
      "d": 375,
      "v": 75
    },
    {
      "midi": 59,
      "hit": false,
      "t": 214125,
      "d": 375,
      "v": 75
    },
    {
      "midi": 60,
      "hit": false,
      "t": 214125,
      "d": 375,
      "v": 75
    },
    {
      "midi": 52,
      "hit": false,
      "t": 214500,
      "d": 750,
      "v": 75
    },
    {
      "midi": 57,
      "hit": false,
      "t": 214500,
      "d": 750,
      "v": 75
    },
    {
      "midi": 60,
      "hit": false,
      "t": 214500,
      "d": 750,
      "v": 75
    },
    {
      "midi": 52,
      "hit": false,
      "t": 214500,
      "d": 750,
      "v": 75
    },
    {
      "midi": 57,
      "hit": false,
      "t": 214500,
      "d": 750,
      "v": 75
    },
    {
      "midi": 60,
      "hit": false,
      "t": 214500,
      "d": 750,
      "v": 75
    },
    {
      "midi": 52,
      "hit": false,
      "t": 215250,
      "d": 750,
      "v": 75
    },
    {
      "midi": 57,
      "hit": false,
      "t": 215250,
      "d": 750,
      "v": 75
    },
    {
      "midi": 60,
      "hit": false,
      "t": 215250,
      "d": 750,
      "v": 75
    },
    {
      "midi": 52,
      "hit": false,
      "t": 215250,
      "d": 750,
      "v": 75
    },
    {
      "midi": 57,
      "hit": false,
      "t": 215250,
      "d": 750,
      "v": 75
    },
    {
      "midi": 60,
      "hit": false,
      "t": 215250,
      "d": 750,
      "v": 75
    },
    {
      "midi": 60,
      "hit": false,
      "t": 216000,
      "d": 375,
      "v": 66
    },
    {
      "midi": 72,
      "hit": false,
      "t": 216000,
      "d": 375,
      "v": 75
    },
    {
      "midi": 50,
      "hit": false,
      "t": 216000,
      "d": 1125,
      "v": 75
    },
    {
      "midi": 53,
      "hit": false,
      "t": 216000,
      "d": 1125,
      "v": 75
    },
    {
      "midi": 57,
      "hit": false,
      "t": 216000,
      "d": 1125,
      "v": 75
    },
    {
      "midi": 60,
      "hit": false,
      "t": 216000,
      "d": 1125,
      "v": 75
    },
    {
      "midi": 72,
      "hit": false,
      "t": 216000,
      "d": 375,
      "v": 75
    },
    {
      "midi": 50,
      "hit": false,
      "t": 216000,
      "d": 1125,
      "v": 75
    },
    {
      "midi": 53,
      "hit": false,
      "t": 216000,
      "d": 1125,
      "v": 75
    },
    {
      "midi": 57,
      "hit": false,
      "t": 216000,
      "d": 1125,
      "v": 75
    },
    {
      "midi": 60,
      "hit": false,
      "t": 216000,
      "d": 1125,
      "v": 75
    },
    {
      "midi": 60,
      "hit": false,
      "t": 216000,
      "d": 375,
      "v": 66
    },
    {
      "midi": 59,
      "hit": false,
      "t": 216375,
      "d": 375,
      "v": 66
    },
    {
      "midi": 71,
      "hit": false,
      "t": 216375,
      "d": 375,
      "v": 75
    },
    {
      "midi": 71,
      "hit": false,
      "t": 216375,
      "d": 375,
      "v": 75
    },
    {
      "midi": 59,
      "hit": false,
      "t": 216375,
      "d": 375,
      "v": 66
    },
    {
      "midi": 55,
      "hit": false,
      "t": 216750,
      "d": 1500,
      "v": 66
    },
    {
      "midi": 67,
      "hit": false,
      "t": 216750,
      "d": 1500,
      "v": 75
    },
    {
      "midi": 67,
      "hit": false,
      "t": 216750,
      "d": 1500,
      "v": 75
    },
    {
      "midi": 55,
      "hit": false,
      "t": 216750,
      "d": 1500,
      "v": 66
    },
    {
      "midi": 50,
      "hit": false,
      "t": 217125,
      "d": 375,
      "v": 75
    },
    {
      "midi": 53,
      "hit": false,
      "t": 217125,
      "d": 375,
      "v": 75
    },
    {
      "midi": 57,
      "hit": false,
      "t": 217125,
      "d": 375,
      "v": 75
    },
    {
      "midi": 60,
      "hit": false,
      "t": 217125,
      "d": 375,
      "v": 75
    },
    {
      "midi": 50,
      "hit": false,
      "t": 217125,
      "d": 375,
      "v": 75
    },
    {
      "midi": 53,
      "hit": false,
      "t": 217125,
      "d": 375,
      "v": 75
    },
    {
      "midi": 57,
      "hit": false,
      "t": 217125,
      "d": 375,
      "v": 75
    },
    {
      "midi": 60,
      "hit": false,
      "t": 217125,
      "d": 375,
      "v": 75
    },
    {
      "midi": 50,
      "hit": false,
      "t": 217500,
      "d": 1500,
      "v": 75
    },
    {
      "midi": 53,
      "hit": false,
      "t": 217500,
      "d": 1500,
      "v": 75
    },
    {
      "midi": 55,
      "hit": false,
      "t": 217500,
      "d": 1500,
      "v": 75
    },
    {
      "midi": 59,
      "hit": false,
      "t": 217500,
      "d": 1500,
      "v": 75
    },
    {
      "midi": 50,
      "hit": false,
      "t": 217500,
      "d": 1500,
      "v": 75
    },
    {
      "midi": 53,
      "hit": false,
      "t": 217500,
      "d": 1500,
      "v": 75
    },
    {
      "midi": 55,
      "hit": false,
      "t": 217500,
      "d": 1500,
      "v": 75
    },
    {
      "midi": 59,
      "hit": false,
      "t": 217500,
      "d": 1500,
      "v": 75
    },
    {
      "midi": 60,
      "hit": false,
      "t": 218250,
      "d": 375,
      "v": 66
    },
    {
      "midi": 72,
      "hit": false,
      "t": 218250,
      "d": 375,
      "v": 75
    },
    {
      "midi": 72,
      "hit": false,
      "t": 218250,
      "d": 375,
      "v": 75
    },
    {
      "midi": 60,
      "hit": false,
      "t": 218250,
      "d": 375,
      "v": 66
    },
    {
      "midi": 59,
      "hit": false,
      "t": 218625,
      "d": 375,
      "v": 66
    },
    {
      "midi": 71,
      "hit": false,
      "t": 218625,
      "d": 375,
      "v": 75
    },
    {
      "midi": 71,
      "hit": false,
      "t": 218625,
      "d": 375,
      "v": 75
    },
    {
      "midi": 59,
      "hit": false,
      "t": 218625,
      "d": 375,
      "v": 66
    },
    {
      "midi": 55,
      "hit": false,
      "t": 219000,
      "d": 750,
      "v": 66
    },
    {
      "midi": 67,
      "hit": false,
      "t": 219000,
      "d": 750,
      "v": 75
    },
    {
      "midi": 50,
      "hit": false,
      "t": 219000,
      "d": 1125,
      "v": 75
    },
    {
      "midi": 53,
      "hit": false,
      "t": 219000,
      "d": 1125,
      "v": 75
    },
    {
      "midi": 57,
      "hit": false,
      "t": 219000,
      "d": 1125,
      "v": 75
    },
    {
      "midi": 60,
      "hit": false,
      "t": 219000,
      "d": 1125,
      "v": 75
    },
    {
      "midi": 67,
      "hit": false,
      "t": 219000,
      "d": 750,
      "v": 75
    },
    {
      "midi": 50,
      "hit": false,
      "t": 219000,
      "d": 1125,
      "v": 75
    },
    {
      "midi": 53,
      "hit": false,
      "t": 219000,
      "d": 1125,
      "v": 75
    },
    {
      "midi": 57,
      "hit": false,
      "t": 219000,
      "d": 1125,
      "v": 75
    },
    {
      "midi": 60,
      "hit": false,
      "t": 219000,
      "d": 1125,
      "v": 75
    },
    {
      "midi": 55,
      "hit": false,
      "t": 219000,
      "d": 750,
      "v": 66
    },
    {
      "midi": 55,
      "hit": false,
      "t": 219750,
      "d": 1125,
      "v": 66
    },
    {
      "midi": 67,
      "hit": false,
      "t": 219750,
      "d": 1125,
      "v": 75
    },
    {
      "midi": 67,
      "hit": false,
      "t": 219750,
      "d": 1125,
      "v": 75
    },
    {
      "midi": 55,
      "hit": false,
      "t": 219750,
      "d": 1125,
      "v": 66
    },
    {
      "midi": 50,
      "hit": false,
      "t": 220125,
      "d": 375,
      "v": 75
    },
    {
      "midi": 53,
      "hit": false,
      "t": 220125,
      "d": 375,
      "v": 75
    },
    {
      "midi": 57,
      "hit": false,
      "t": 220125,
      "d": 375,
      "v": 75
    },
    {
      "midi": 60,
      "hit": false,
      "t": 220125,
      "d": 375,
      "v": 75
    },
    {
      "midi": 50,
      "hit": false,
      "t": 220125,
      "d": 375,
      "v": 75
    },
    {
      "midi": 53,
      "hit": false,
      "t": 220125,
      "d": 375,
      "v": 75
    },
    {
      "midi": 57,
      "hit": false,
      "t": 220125,
      "d": 375,
      "v": 75
    },
    {
      "midi": 60,
      "hit": false,
      "t": 220125,
      "d": 375,
      "v": 75
    },
    {
      "midi": 50,
      "hit": false,
      "t": 220500,
      "d": 1500,
      "v": 75
    },
    {
      "midi": 53,
      "hit": false,
      "t": 220500,
      "d": 1500,
      "v": 75
    },
    {
      "midi": 55,
      "hit": false,
      "t": 220500,
      "d": 1500,
      "v": 75
    },
    {
      "midi": 59,
      "hit": false,
      "t": 220500,
      "d": 1500,
      "v": 75
    },
    {
      "midi": 50,
      "hit": false,
      "t": 220500,
      "d": 1500,
      "v": 75
    },
    {
      "midi": 53,
      "hit": false,
      "t": 220500,
      "d": 1500,
      "v": 75
    },
    {
      "midi": 55,
      "hit": false,
      "t": 220500,
      "d": 1500,
      "v": 75
    },
    {
      "midi": 59,
      "hit": false,
      "t": 220500,
      "d": 1500,
      "v": 75
    },
    {
      "midi": 57,
      "hit": false,
      "t": 220875,
      "d": 375,
      "v": 66
    },
    {
      "midi": 69,
      "hit": false,
      "t": 220875,
      "d": 375,
      "v": 75
    },
    {
      "midi": 69,
      "hit": false,
      "t": 220875,
      "d": 375,
      "v": 75
    },
    {
      "midi": 57,
      "hit": false,
      "t": 220875,
      "d": 375,
      "v": 66
    },
    {
      "midi": 59,
      "hit": false,
      "t": 221250,
      "d": 375,
      "v": 66
    },
    {
      "midi": 71,
      "hit": false,
      "t": 221250,
      "d": 375,
      "v": 75
    },
    {
      "midi": 71,
      "hit": false,
      "t": 221250,
      "d": 375,
      "v": 75
    },
    {
      "midi": 59,
      "hit": false,
      "t": 221250,
      "d": 375,
      "v": 66
    },
    {
      "midi": 60,
      "hit": false,
      "t": 221625,
      "d": 375,
      "v": 66
    },
    {
      "midi": 72,
      "hit": false,
      "t": 221625,
      "d": 375,
      "v": 75
    },
    {
      "midi": 72,
      "hit": false,
      "t": 221625,
      "d": 375,
      "v": 75
    },
    {
      "midi": 60,
      "hit": false,
      "t": 221625,
      "d": 375,
      "v": 66
    },
    {
      "midi": 62,
      "hit": false,
      "t": 222000,
      "d": 1500,
      "v": 66
    },
    {
      "midi": 62,
      "hit": false,
      "t": 222000,
      "d": 1500,
      "v": 75
    },
    {
      "midi": 64,
      "hit": false,
      "t": 222000,
      "d": 1500,
      "v": 75
    },
    {
      "midi": 67,
      "hit": false,
      "t": 222000,
      "d": 1500,
      "v": 75
    },
    {
      "midi": 71,
      "hit": false,
      "t": 222000,
      "d": 1500,
      "v": 75
    },
    {
      "midi": 74,
      "hit": false,
      "t": 222000,
      "d": 1500,
      "v": 75
    },
    {
      "midi": 62,
      "hit": false,
      "t": 222000,
      "d": 1500,
      "v": 75
    },
    {
      "midi": 64,
      "hit": false,
      "t": 222000,
      "d": 1500,
      "v": 75
    },
    {
      "midi": 67,
      "hit": false,
      "t": 222000,
      "d": 1500,
      "v": 75
    },
    {
      "midi": 71,
      "hit": false,
      "t": 222000,
      "d": 1500,
      "v": 75
    },
    {
      "midi": 74,
      "hit": false,
      "t": 222000,
      "d": 1500,
      "v": 75
    },
    {
      "midi": 62,
      "hit": false,
      "t": 222000,
      "d": 1500,
      "v": 66
    },
    {
      "midi": 60,
      "hit": false,
      "t": 223500,
      "d": 1500,
      "v": 66
    },
    {
      "midi": 60,
      "hit": false,
      "t": 223500,
      "d": 1500,
      "v": 75
    },
    {
      "midi": 64,
      "hit": false,
      "t": 223500,
      "d": 1500,
      "v": 75
    },
    {
      "midi": 66,
      "hit": false,
      "t": 223500,
      "d": 1500,
      "v": 75
    },
    {
      "midi": 68,
      "hit": false,
      "t": 223500,
      "d": 1500,
      "v": 75
    },
    {
      "midi": 72,
      "hit": false,
      "t": 223500,
      "d": 1500,
      "v": 75
    },
    {
      "midi": 60,
      "hit": false,
      "t": 223500,
      "d": 1500,
      "v": 75
    },
    {
      "midi": 64,
      "hit": false,
      "t": 223500,
      "d": 1500,
      "v": 75
    },
    {
      "midi": 66,
      "hit": false,
      "t": 223500,
      "d": 1500,
      "v": 75
    },
    {
      "midi": 68,
      "hit": false,
      "t": 223500,
      "d": 1500,
      "v": 75
    },
    {
      "midi": 72,
      "hit": false,
      "t": 223500,
      "d": 1500,
      "v": 75
    },
    {
      "midi": 60,
      "hit": false,
      "t": 223500,
      "d": 1500,
      "v": 66
    },
    {
      "midi": 53,
      "hit": false,
      "t": 225000,
      "d": 2250,
      "v": 66
    },
    {
      "midi": 50,
      "hit": false,
      "t": 225000,
      "d": 1125,
      "v": 75
    },
    {
      "midi": 53,
      "hit": false,
      "t": 225000,
      "d": 1125,
      "v": 75
    },
    {
      "midi": 57,
      "hit": false,
      "t": 225000,
      "d": 1125,
      "v": 75
    },
    {
      "midi": 60,
      "hit": false,
      "t": 225000,
      "d": 1125,
      "v": 75
    },
    {
      "midi": 65,
      "hit": false,
      "t": 225000,
      "d": 2250,
      "v": 75
    },
    {
      "midi": 50,
      "hit": false,
      "t": 225000,
      "d": 1125,
      "v": 75
    },
    {
      "midi": 53,
      "hit": false,
      "t": 225000,
      "d": 1125,
      "v": 75
    },
    {
      "midi": 57,
      "hit": false,
      "t": 225000,
      "d": 1125,
      "v": 75
    },
    {
      "midi": 60,
      "hit": false,
      "t": 225000,
      "d": 1125,
      "v": 75
    },
    {
      "midi": 65,
      "hit": false,
      "t": 225000,
      "d": 2250,
      "v": 75
    },
    {
      "midi": 53,
      "hit": false,
      "t": 225000,
      "d": 2250,
      "v": 66
    },
    {
      "midi": 50,
      "hit": false,
      "t": 226125,
      "d": 375,
      "v": 75
    },
    {
      "midi": 53,
      "hit": false,
      "t": 226125,
      "d": 375,
      "v": 75
    },
    {
      "midi": 57,
      "hit": false,
      "t": 226125,
      "d": 375,
      "v": 75
    },
    {
      "midi": 60,
      "hit": false,
      "t": 226125,
      "d": 375,
      "v": 75
    },
    {
      "midi": 50,
      "hit": false,
      "t": 226125,
      "d": 375,
      "v": 75
    },
    {
      "midi": 53,
      "hit": false,
      "t": 226125,
      "d": 375,
      "v": 75
    },
    {
      "midi": 57,
      "hit": false,
      "t": 226125,
      "d": 375,
      "v": 75
    },
    {
      "midi": 60,
      "hit": false,
      "t": 226125,
      "d": 375,
      "v": 75
    },
    {
      "midi": 49,
      "hit": false,
      "t": 226500,
      "d": 1500,
      "v": 75
    },
    {
      "midi": 53,
      "hit": false,
      "t": 226500,
      "d": 1500,
      "v": 75
    },
    {
      "midi": 56,
      "hit": false,
      "t": 226500,
      "d": 1500,
      "v": 75
    },
    {
      "midi": 59,
      "hit": false,
      "t": 226500,
      "d": 1500,
      "v": 75
    },
    {
      "midi": 49,
      "hit": false,
      "t": 226500,
      "d": 1500,
      "v": 75
    },
    {
      "midi": 53,
      "hit": false,
      "t": 226500,
      "d": 1500,
      "v": 75
    },
    {
      "midi": 56,
      "hit": false,
      "t": 226500,
      "d": 1500,
      "v": 75
    },
    {
      "midi": 59,
      "hit": false,
      "t": 226500,
      "d": 1500,
      "v": 75
    },
    {
      "midi": 55,
      "hit": false,
      "t": 227250,
      "d": 750,
      "v": 66
    },
    {
      "midi": 63,
      "hit": false,
      "t": 227250,
      "d": 750,
      "v": 75
    },
    {
      "midi": 67,
      "hit": false,
      "t": 227250,
      "d": 750,
      "v": 75
    },
    {
      "midi": 63,
      "hit": false,
      "t": 227250,
      "d": 750,
      "v": 75
    },
    {
      "midi": 67,
      "hit": false,
      "t": 227250,
      "d": 750,
      "v": 75
    },
    {
      "midi": 55,
      "hit": false,
      "t": 227250,
      "d": 750,
      "v": 66
    },
    {
      "midi": 52,
      "hit": false,
      "t": 228000,
      "d": 375,
      "v": 66
    },
    {
      "midi": 52,
      "hit": false,
      "t": 228000,
      "d": 375,
      "v": 75
    },
    {
      "midi": 55,
      "hit": false,
      "t": 228000,
      "d": 375,
      "v": 75
    },
    {
      "midi": 57,
      "hit": false,
      "t": 228000,
      "d": 375,
      "v": 75
    },
    {
      "midi": 60,
      "hit": false,
      "t": 228000,
      "d": 375,
      "v": 75
    },
    {
      "midi": 64,
      "hit": false,
      "t": 228000,
      "d": 375,
      "v": 75
    },
    {
      "midi": 52,
      "hit": false,
      "t": 228000,
      "d": 375,
      "v": 75
    },
    {
      "midi": 55,
      "hit": false,
      "t": 228000,
      "d": 375,
      "v": 75
    },
    {
      "midi": 57,
      "hit": false,
      "t": 228000,
      "d": 375,
      "v": 75
    },
    {
      "midi": 60,
      "hit": false,
      "t": 228000,
      "d": 375,
      "v": 75
    },
    {
      "midi": 64,
      "hit": false,
      "t": 228000,
      "d": 375,
      "v": 75
    },
    {
      "midi": 52,
      "hit": false,
      "t": 228000,
      "d": 375,
      "v": 66
    },
    {
      "midi": 59,
      "hit": false,
      "t": 228375,
      "d": 375,
      "v": 66
    },
    {
      "midi": 59,
      "hit": false,
      "t": 228375,
      "d": 375,
      "v": 75
    },
    {
      "midi": 62,
      "hit": false,
      "t": 228375,
      "d": 375,
      "v": 75
    },
    {
      "midi": 64,
      "hit": false,
      "t": 228375,
      "d": 375,
      "v": 75
    },
    {
      "midi": 67,
      "hit": false,
      "t": 228375,
      "d": 375,
      "v": 75
    },
    {
      "midi": 71,
      "hit": false,
      "t": 228375,
      "d": 375,
      "v": 75
    },
    {
      "midi": 59,
      "hit": false,
      "t": 228375,
      "d": 375,
      "v": 75
    },
    {
      "midi": 62,
      "hit": false,
      "t": 228375,
      "d": 375,
      "v": 75
    },
    {
      "midi": 64,
      "hit": false,
      "t": 228375,
      "d": 375,
      "v": 75
    },
    {
      "midi": 67,
      "hit": false,
      "t": 228375,
      "d": 375,
      "v": 75
    },
    {
      "midi": 71,
      "hit": false,
      "t": 228375,
      "d": 375,
      "v": 75
    },
    {
      "midi": 59,
      "hit": false,
      "t": 228375,
      "d": 375,
      "v": 66
    },
    {
      "midi": 60,
      "hit": false,
      "t": 228750,
      "d": 1500,
      "v": 66
    },
    {
      "midi": 60,
      "hit": false,
      "t": 228750,
      "d": 1500,
      "v": 75
    },
    {
      "midi": 64,
      "hit": false,
      "t": 228750,
      "d": 1500,
      "v": 75
    },
    {
      "midi": 67,
      "hit": false,
      "t": 228750,
      "d": 1500,
      "v": 75
    },
    {
      "midi": 69,
      "hit": false,
      "t": 228750,
      "d": 1500,
      "v": 75
    },
    {
      "midi": 72,
      "hit": false,
      "t": 228750,
      "d": 1500,
      "v": 75
    },
    {
      "midi": 60,
      "hit": false,
      "t": 228750,
      "d": 1500,
      "v": 75
    },
    {
      "midi": 64,
      "hit": false,
      "t": 228750,
      "d": 1500,
      "v": 75
    },
    {
      "midi": 67,
      "hit": false,
      "t": 228750,
      "d": 1500,
      "v": 75
    },
    {
      "midi": 69,
      "hit": false,
      "t": 228750,
      "d": 1500,
      "v": 75
    },
    {
      "midi": 72,
      "hit": false,
      "t": 228750,
      "d": 1500,
      "v": 75
    },
    {
      "midi": 60,
      "hit": false,
      "t": 228750,
      "d": 1500,
      "v": 66
    },
    {
      "midi": 52,
      "hit": false,
      "t": 230250,
      "d": 750,
      "v": 66
    },
    {
      "midi": 52,
      "hit": false,
      "t": 230250,
      "d": 750,
      "v": 75
    },
    {
      "midi": 55,
      "hit": false,
      "t": 230250,
      "d": 750,
      "v": 75
    },
    {
      "midi": 57,
      "hit": false,
      "t": 230250,
      "d": 750,
      "v": 75
    },
    {
      "midi": 60,
      "hit": false,
      "t": 230250,
      "d": 750,
      "v": 75
    },
    {
      "midi": 64,
      "hit": false,
      "t": 230250,
      "d": 750,
      "v": 75
    },
    {
      "midi": 52,
      "hit": false,
      "t": 230250,
      "d": 750,
      "v": 75
    },
    {
      "midi": 55,
      "hit": false,
      "t": 230250,
      "d": 750,
      "v": 75
    },
    {
      "midi": 57,
      "hit": false,
      "t": 230250,
      "d": 750,
      "v": 75
    },
    {
      "midi": 60,
      "hit": false,
      "t": 230250,
      "d": 750,
      "v": 75
    },
    {
      "midi": 64,
      "hit": false,
      "t": 230250,
      "d": 750,
      "v": 75
    },
    {
      "midi": 52,
      "hit": false,
      "t": 230250,
      "d": 750,
      "v": 66
    },
    {
      "midi": 53,
      "hit": false,
      "t": 231000,
      "d": 375,
      "v": 66
    },
    {
      "midi": 53,
      "hit": false,
      "t": 231000,
      "d": 375,
      "v": 75
    },
    {
      "midi": 57,
      "hit": false,
      "t": 231000,
      "d": 375,
      "v": 75
    },
    {
      "midi": 60,
      "hit": false,
      "t": 231000,
      "d": 375,
      "v": 75
    },
    {
      "midi": 62,
      "hit": false,
      "t": 231000,
      "d": 375,
      "v": 75
    },
    {
      "midi": 65,
      "hit": false,
      "t": 231000,
      "d": 375,
      "v": 75
    },
    {
      "midi": 53,
      "hit": false,
      "t": 231000,
      "d": 375,
      "v": 75
    },
    {
      "midi": 57,
      "hit": false,
      "t": 231000,
      "d": 375,
      "v": 75
    },
    {
      "midi": 60,
      "hit": false,
      "t": 231000,
      "d": 375,
      "v": 75
    },
    {
      "midi": 62,
      "hit": false,
      "t": 231000,
      "d": 375,
      "v": 75
    },
    {
      "midi": 65,
      "hit": false,
      "t": 231000,
      "d": 375,
      "v": 75
    },
    {
      "midi": 53,
      "hit": false,
      "t": 231000,
      "d": 375,
      "v": 66
    },
    {
      "midi": 59,
      "hit": false,
      "t": 231375,
      "d": 375,
      "v": 66
    },
    {
      "midi": 59,
      "hit": false,
      "t": 231375,
      "d": 375,
      "v": 75
    },
    {
      "midi": 62,
      "hit": false,
      "t": 231375,
      "d": 375,
      "v": 75
    },
    {
      "midi": 65,
      "hit": false,
      "t": 231375,
      "d": 375,
      "v": 75
    },
    {
      "midi": 68,
      "hit": false,
      "t": 231375,
      "d": 375,
      "v": 75
    },
    {
      "midi": 71,
      "hit": false,
      "t": 231375,
      "d": 375,
      "v": 75
    },
    {
      "midi": 59,
      "hit": false,
      "t": 231375,
      "d": 375,
      "v": 75
    },
    {
      "midi": 62,
      "hit": false,
      "t": 231375,
      "d": 375,
      "v": 75
    },
    {
      "midi": 65,
      "hit": false,
      "t": 231375,
      "d": 375,
      "v": 75
    },
    {
      "midi": 68,
      "hit": false,
      "t": 231375,
      "d": 375,
      "v": 75
    },
    {
      "midi": 71,
      "hit": false,
      "t": 231375,
      "d": 375,
      "v": 75
    },
    {
      "midi": 59,
      "hit": false,
      "t": 231375,
      "d": 375,
      "v": 66
    },
    {
      "midi": 60,
      "hit": false,
      "t": 231750,
      "d": 1500,
      "v": 66
    },
    {
      "midi": 60,
      "hit": false,
      "t": 231750,
      "d": 1500,
      "v": 75
    },
    {
      "midi": 62,
      "hit": false,
      "t": 231750,
      "d": 1500,
      "v": 75
    },
    {
      "midi": 65,
      "hit": false,
      "t": 231750,
      "d": 1500,
      "v": 75
    },
    {
      "midi": 69,
      "hit": false,
      "t": 231750,
      "d": 1500,
      "v": 75
    },
    {
      "midi": 72,
      "hit": false,
      "t": 231750,
      "d": 1500,
      "v": 75
    },
    {
      "midi": 60,
      "hit": false,
      "t": 231750,
      "d": 1500,
      "v": 75
    },
    {
      "midi": 62,
      "hit": false,
      "t": 231750,
      "d": 1500,
      "v": 75
    },
    {
      "midi": 65,
      "hit": false,
      "t": 231750,
      "d": 1500,
      "v": 75
    },
    {
      "midi": 69,
      "hit": false,
      "t": 231750,
      "d": 1500,
      "v": 75
    },
    {
      "midi": 72,
      "hit": false,
      "t": 231750,
      "d": 1500,
      "v": 75
    },
    {
      "midi": 60,
      "hit": false,
      "t": 231750,
      "d": 1500,
      "v": 66
    },
    {
      "midi": 53,
      "hit": false,
      "t": 233250,
      "d": 750,
      "v": 66
    },
    {
      "midi": 53,
      "hit": false,
      "t": 233250,
      "d": 750,
      "v": 75
    },
    {
      "midi": 57,
      "hit": false,
      "t": 233250,
      "d": 750,
      "v": 75
    },
    {
      "midi": 60,
      "hit": false,
      "t": 233250,
      "d": 750,
      "v": 75
    },
    {
      "midi": 62,
      "hit": false,
      "t": 233250,
      "d": 750,
      "v": 75
    },
    {
      "midi": 65,
      "hit": false,
      "t": 233250,
      "d": 750,
      "v": 75
    },
    {
      "midi": 53,
      "hit": false,
      "t": 233250,
      "d": 750,
      "v": 75
    },
    {
      "midi": 57,
      "hit": false,
      "t": 233250,
      "d": 750,
      "v": 75
    },
    {
      "midi": 60,
      "hit": false,
      "t": 233250,
      "d": 750,
      "v": 75
    },
    {
      "midi": 62,
      "hit": false,
      "t": 233250,
      "d": 750,
      "v": 75
    },
    {
      "midi": 65,
      "hit": false,
      "t": 233250,
      "d": 750,
      "v": 75
    },
    {
      "midi": 53,
      "hit": false,
      "t": 233250,
      "d": 750,
      "v": 66
    },
    {
      "midi": 55,
      "hit": false,
      "t": 234000,
      "d": 375,
      "v": 66
    },
    {
      "midi": 55,
      "hit": false,
      "t": 234000,
      "d": 375,
      "v": 75
    },
    {
      "midi": 59,
      "hit": false,
      "t": 234000,
      "d": 375,
      "v": 75
    },
    {
      "midi": 62,
      "hit": false,
      "t": 234000,
      "d": 375,
      "v": 75
    },
    {
      "midi": 64,
      "hit": false,
      "t": 234000,
      "d": 375,
      "v": 75
    },
    {
      "midi": 67,
      "hit": false,
      "t": 234000,
      "d": 375,
      "v": 75
    },
    {
      "midi": 55,
      "hit": false,
      "t": 234000,
      "d": 375,
      "v": 75
    },
    {
      "midi": 59,
      "hit": false,
      "t": 234000,
      "d": 375,
      "v": 75
    },
    {
      "midi": 62,
      "hit": false,
      "t": 234000,
      "d": 375,
      "v": 75
    },
    {
      "midi": 64,
      "hit": false,
      "t": 234000,
      "d": 375,
      "v": 75
    },
    {
      "midi": 67,
      "hit": false,
      "t": 234000,
      "d": 375,
      "v": 75
    },
    {
      "midi": 55,
      "hit": false,
      "t": 234000,
      "d": 375,
      "v": 66
    },
    {
      "midi": 59,
      "hit": false,
      "t": 234375,
      "d": 375,
      "v": 66
    },
    {
      "midi": 59,
      "hit": false,
      "t": 234375,
      "d": 375,
      "v": 75
    },
    {
      "midi": 62,
      "hit": false,
      "t": 234375,
      "d": 375,
      "v": 75
    },
    {
      "midi": 64,
      "hit": false,
      "t": 234375,
      "d": 375,
      "v": 75
    },
    {
      "midi": 67,
      "hit": false,
      "t": 234375,
      "d": 375,
      "v": 75
    },
    {
      "midi": 71,
      "hit": false,
      "t": 234375,
      "d": 375,
      "v": 75
    },
    {
      "midi": 59,
      "hit": false,
      "t": 234375,
      "d": 375,
      "v": 75
    },
    {
      "midi": 62,
      "hit": false,
      "t": 234375,
      "d": 375,
      "v": 75
    },
    {
      "midi": 64,
      "hit": false,
      "t": 234375,
      "d": 375,
      "v": 75
    },
    {
      "midi": 67,
      "hit": false,
      "t": 234375,
      "d": 375,
      "v": 75
    },
    {
      "midi": 71,
      "hit": false,
      "t": 234375,
      "d": 375,
      "v": 75
    },
    {
      "midi": 59,
      "hit": false,
      "t": 234375,
      "d": 375,
      "v": 66
    },
    {
      "midi": 60,
      "hit": false,
      "t": 234750,
      "d": 750,
      "v": 66
    },
    {
      "midi": 60,
      "hit": false,
      "t": 234750,
      "d": 750,
      "v": 75
    },
    {
      "midi": 64,
      "hit": false,
      "t": 234750,
      "d": 750,
      "v": 75
    },
    {
      "midi": 67,
      "hit": false,
      "t": 234750,
      "d": 750,
      "v": 75
    },
    {
      "midi": 69,
      "hit": false,
      "t": 234750,
      "d": 750,
      "v": 75
    },
    {
      "midi": 72,
      "hit": false,
      "t": 234750,
      "d": 750,
      "v": 75
    },
    {
      "midi": 60,
      "hit": false,
      "t": 234750,
      "d": 750,
      "v": 75
    },
    {
      "midi": 64,
      "hit": false,
      "t": 234750,
      "d": 750,
      "v": 75
    },
    {
      "midi": 67,
      "hit": false,
      "t": 234750,
      "d": 750,
      "v": 75
    },
    {
      "midi": 69,
      "hit": false,
      "t": 234750,
      "d": 750,
      "v": 75
    },
    {
      "midi": 72,
      "hit": false,
      "t": 234750,
      "d": 750,
      "v": 75
    },
    {
      "midi": 60,
      "hit": false,
      "t": 234750,
      "d": 750,
      "v": 66
    },
    {
      "midi": 56,
      "hit": false,
      "t": 235500,
      "d": 375,
      "v": 66
    },
    {
      "midi": 56,
      "hit": false,
      "t": 235500,
      "d": 375,
      "v": 75
    },
    {
      "midi": 59,
      "hit": false,
      "t": 235500,
      "d": 375,
      "v": 75
    },
    {
      "midi": 62,
      "hit": false,
      "t": 235500,
      "d": 375,
      "v": 75
    },
    {
      "midi": 64,
      "hit": false,
      "t": 235500,
      "d": 375,
      "v": 75
    },
    {
      "midi": 68,
      "hit": false,
      "t": 235500,
      "d": 375,
      "v": 75
    },
    {
      "midi": 56,
      "hit": false,
      "t": 235500,
      "d": 375,
      "v": 75
    },
    {
      "midi": 59,
      "hit": false,
      "t": 235500,
      "d": 375,
      "v": 75
    },
    {
      "midi": 62,
      "hit": false,
      "t": 235500,
      "d": 375,
      "v": 75
    },
    {
      "midi": 64,
      "hit": false,
      "t": 235500,
      "d": 375,
      "v": 75
    },
    {
      "midi": 68,
      "hit": false,
      "t": 235500,
      "d": 375,
      "v": 75
    },
    {
      "midi": 56,
      "hit": false,
      "t": 235500,
      "d": 375,
      "v": 66
    },
    {
      "midi": 59,
      "hit": false,
      "t": 235875,
      "d": 375,
      "v": 66
    },
    {
      "midi": 59,
      "hit": false,
      "t": 235875,
      "d": 375,
      "v": 75
    },
    {
      "midi": 62,
      "hit": false,
      "t": 235875,
      "d": 375,
      "v": 75
    },
    {
      "midi": 64,
      "hit": false,
      "t": 235875,
      "d": 375,
      "v": 75
    },
    {
      "midi": 68,
      "hit": false,
      "t": 235875,
      "d": 375,
      "v": 75
    },
    {
      "midi": 71,
      "hit": false,
      "t": 235875,
      "d": 375,
      "v": 75
    },
    {
      "midi": 59,
      "hit": false,
      "t": 235875,
      "d": 375,
      "v": 75
    },
    {
      "midi": 62,
      "hit": false,
      "t": 235875,
      "d": 375,
      "v": 75
    },
    {
      "midi": 64,
      "hit": false,
      "t": 235875,
      "d": 375,
      "v": 75
    },
    {
      "midi": 68,
      "hit": false,
      "t": 235875,
      "d": 375,
      "v": 75
    },
    {
      "midi": 71,
      "hit": false,
      "t": 235875,
      "d": 375,
      "v": 75
    },
    {
      "midi": 59,
      "hit": false,
      "t": 235875,
      "d": 375,
      "v": 66
    },
    {
      "midi": 60,
      "hit": false,
      "t": 236250,
      "d": 750,
      "v": 66
    },
    {
      "midi": 60,
      "hit": false,
      "t": 236250,
      "d": 750,
      "v": 75
    },
    {
      "midi": 62,
      "hit": false,
      "t": 236250,
      "d": 750,
      "v": 75
    },
    {
      "midi": 64,
      "hit": false,
      "t": 236250,
      "d": 750,
      "v": 75
    },
    {
      "midi": 68,
      "hit": false,
      "t": 236250,
      "d": 750,
      "v": 75
    },
    {
      "midi": 72,
      "hit": false,
      "t": 236250,
      "d": 750,
      "v": 75
    },
    {
      "midi": 60,
      "hit": false,
      "t": 236250,
      "d": 750,
      "v": 75
    },
    {
      "midi": 62,
      "hit": false,
      "t": 236250,
      "d": 750,
      "v": 75
    },
    {
      "midi": 64,
      "hit": false,
      "t": 236250,
      "d": 750,
      "v": 75
    },
    {
      "midi": 68,
      "hit": false,
      "t": 236250,
      "d": 750,
      "v": 75
    },
    {
      "midi": 72,
      "hit": false,
      "t": 236250,
      "d": 750,
      "v": 75
    },
    {
      "midi": 60,
      "hit": false,
      "t": 236250,
      "d": 750,
      "v": 66
    },
    {
      "midi": 57,
      "hit": false,
      "t": 237000,
      "d": 375,
      "v": 66
    },
    {
      "midi": 57,
      "hit": false,
      "t": 237000,
      "d": 375,
      "v": 75
    },
    {
      "midi": 60,
      "hit": false,
      "t": 237000,
      "d": 375,
      "v": 75
    },
    {
      "midi": 62,
      "hit": false,
      "t": 237000,
      "d": 375,
      "v": 75
    },
    {
      "midi": 65,
      "hit": false,
      "t": 237000,
      "d": 375,
      "v": 75
    },
    {
      "midi": 69,
      "hit": false,
      "t": 237000,
      "d": 375,
      "v": 75
    },
    {
      "midi": 57,
      "hit": false,
      "t": 237000,
      "d": 375,
      "v": 75
    },
    {
      "midi": 60,
      "hit": false,
      "t": 237000,
      "d": 375,
      "v": 75
    },
    {
      "midi": 62,
      "hit": false,
      "t": 237000,
      "d": 375,
      "v": 75
    },
    {
      "midi": 65,
      "hit": false,
      "t": 237000,
      "d": 375,
      "v": 75
    },
    {
      "midi": 69,
      "hit": false,
      "t": 237000,
      "d": 375,
      "v": 75
    },
    {
      "midi": 57,
      "hit": false,
      "t": 237000,
      "d": 375,
      "v": 66
    },
    {
      "midi": 59,
      "hit": false,
      "t": 237375,
      "d": 375,
      "v": 66
    },
    {
      "midi": 59,
      "hit": false,
      "t": 237375,
      "d": 375,
      "v": 75
    },
    {
      "midi": 62,
      "hit": false,
      "t": 237375,
      "d": 375,
      "v": 75
    },
    {
      "midi": 65,
      "hit": false,
      "t": 237375,
      "d": 375,
      "v": 75
    },
    {
      "midi": 67,
      "hit": false,
      "t": 237375,
      "d": 375,
      "v": 75
    },
    {
      "midi": 71,
      "hit": false,
      "t": 237375,
      "d": 375,
      "v": 75
    },
    {
      "midi": 59,
      "hit": false,
      "t": 237375,
      "d": 375,
      "v": 75
    },
    {
      "midi": 62,
      "hit": false,
      "t": 237375,
      "d": 375,
      "v": 75
    },
    {
      "midi": 65,
      "hit": false,
      "t": 237375,
      "d": 375,
      "v": 75
    },
    {
      "midi": 67,
      "hit": false,
      "t": 237375,
      "d": 375,
      "v": 75
    },
    {
      "midi": 71,
      "hit": false,
      "t": 237375,
      "d": 375,
      "v": 75
    },
    {
      "midi": 59,
      "hit": false,
      "t": 237375,
      "d": 375,
      "v": 66
    },
    {
      "midi": 60,
      "hit": false,
      "t": 237750,
      "d": 1500,
      "v": 66
    },
    {
      "midi": 60,
      "hit": false,
      "t": 237750,
      "d": 1500,
      "v": 75
    },
    {
      "midi": 62,
      "hit": false,
      "t": 237750,
      "d": 1500,
      "v": 75
    },
    {
      "midi": 65,
      "hit": false,
      "t": 237750,
      "d": 1500,
      "v": 75
    },
    {
      "midi": 69,
      "hit": false,
      "t": 237750,
      "d": 1500,
      "v": 75
    },
    {
      "midi": 72,
      "hit": false,
      "t": 237750,
      "d": 1500,
      "v": 75
    },
    {
      "midi": 60,
      "hit": false,
      "t": 237750,
      "d": 1500,
      "v": 75
    },
    {
      "midi": 62,
      "hit": false,
      "t": 237750,
      "d": 1500,
      "v": 75
    },
    {
      "midi": 65,
      "hit": false,
      "t": 237750,
      "d": 1500,
      "v": 75
    },
    {
      "midi": 69,
      "hit": false,
      "t": 237750,
      "d": 1500,
      "v": 75
    },
    {
      "midi": 72,
      "hit": false,
      "t": 237750,
      "d": 1500,
      "v": 75
    },
    {
      "midi": 60,
      "hit": false,
      "t": 237750,
      "d": 1500,
      "v": 66
    },
    {
      "midi": 59,
      "hit": false,
      "t": 239250,
      "d": 750,
      "v": 66
    },
    {
      "midi": 59,
      "hit": false,
      "t": 239250,
      "d": 750,
      "v": 75
    },
    {
      "midi": 62,
      "hit": false,
      "t": 239250,
      "d": 750,
      "v": 75
    },
    {
      "midi": 65,
      "hit": false,
      "t": 239250,
      "d": 750,
      "v": 75
    },
    {
      "midi": 68,
      "hit": false,
      "t": 239250,
      "d": 750,
      "v": 75
    },
    {
      "midi": 71,
      "hit": false,
      "t": 239250,
      "d": 750,
      "v": 75
    },
    {
      "midi": 59,
      "hit": false,
      "t": 239250,
      "d": 750,
      "v": 75
    },
    {
      "midi": 62,
      "hit": false,
      "t": 239250,
      "d": 750,
      "v": 75
    },
    {
      "midi": 65,
      "hit": false,
      "t": 239250,
      "d": 750,
      "v": 75
    },
    {
      "midi": 68,
      "hit": false,
      "t": 239250,
      "d": 750,
      "v": 75
    },
    {
      "midi": 71,
      "hit": false,
      "t": 239250,
      "d": 750,
      "v": 75
    },
    {
      "midi": 59,
      "hit": false,
      "t": 239250,
      "d": 750,
      "v": 66
    },
    {
      "midi": 60,
      "hit": false,
      "t": 240000,
      "d": 750,
      "v": 66
    },
    {
      "midi": 60,
      "hit": false,
      "t": 240000,
      "d": 750,
      "v": 75
    },
    {
      "midi": 64,
      "hit": false,
      "t": 240000,
      "d": 750,
      "v": 75
    },
    {
      "midi": 67,
      "hit": false,
      "t": 240000,
      "d": 750,
      "v": 75
    },
    {
      "midi": 69,
      "hit": false,
      "t": 240000,
      "d": 750,
      "v": 75
    },
    {
      "midi": 72,
      "hit": false,
      "t": 240000,
      "d": 750,
      "v": 75
    },
    {
      "midi": 60,
      "hit": false,
      "t": 240000,
      "d": 750,
      "v": 75
    },
    {
      "midi": 64,
      "hit": false,
      "t": 240000,
      "d": 750,
      "v": 75
    },
    {
      "midi": 67,
      "hit": false,
      "t": 240000,
      "d": 750,
      "v": 75
    },
    {
      "midi": 69,
      "hit": false,
      "t": 240000,
      "d": 750,
      "v": 75
    },
    {
      "midi": 72,
      "hit": false,
      "t": 240000,
      "d": 750,
      "v": 75
    },
    {
      "midi": 60,
      "hit": false,
      "t": 240000,
      "d": 750,
      "v": 66
    },
    {
      "midi": 59,
      "hit": false,
      "t": 241500,
      "d": 375,
      "v": 66
    },
    {
      "midi": 59,
      "hit": false,
      "t": 241500,
      "d": 375,
      "v": 75
    },
    {
      "midi": 60,
      "hit": false,
      "t": 241500,
      "d": 375,
      "v": 75
    },
    {
      "midi": 63,
      "hit": false,
      "t": 241500,
      "d": 375,
      "v": 75
    },
    {
      "midi": 66,
      "hit": false,
      "t": 241500,
      "d": 375,
      "v": 75
    },
    {
      "midi": 71,
      "hit": false,
      "t": 241500,
      "d": 375,
      "v": 75
    },
    {
      "midi": 59,
      "hit": false,
      "t": 241500,
      "d": 375,
      "v": 75
    },
    {
      "midi": 60,
      "hit": false,
      "t": 241500,
      "d": 375,
      "v": 75
    },
    {
      "midi": 63,
      "hit": false,
      "t": 241500,
      "d": 375,
      "v": 75
    },
    {
      "midi": 66,
      "hit": false,
      "t": 241500,
      "d": 375,
      "v": 75
    },
    {
      "midi": 71,
      "hit": false,
      "t": 241500,
      "d": 375,
      "v": 75
    },
    {
      "midi": 59,
      "hit": false,
      "t": 241500,
      "d": 375,
      "v": 66
    },
    {
      "midi": 57,
      "hit": false,
      "t": 241875,
      "d": 375,
      "v": 66
    },
    {
      "midi": 57,
      "hit": false,
      "t": 241875,
      "d": 375,
      "v": 75
    },
    {
      "midi": 60,
      "hit": false,
      "t": 241875,
      "d": 375,
      "v": 75
    },
    {
      "midi": 63,
      "hit": false,
      "t": 241875,
      "d": 375,
      "v": 75
    },
    {
      "midi": 66,
      "hit": false,
      "t": 241875,
      "d": 375,
      "v": 75
    },
    {
      "midi": 69,
      "hit": false,
      "t": 241875,
      "d": 375,
      "v": 75
    },
    {
      "midi": 57,
      "hit": false,
      "t": 241875,
      "d": 375,
      "v": 75
    },
    {
      "midi": 60,
      "hit": false,
      "t": 241875,
      "d": 375,
      "v": 75
    },
    {
      "midi": 63,
      "hit": false,
      "t": 241875,
      "d": 375,
      "v": 75
    },
    {
      "midi": 66,
      "hit": false,
      "t": 241875,
      "d": 375,
      "v": 75
    },
    {
      "midi": 69,
      "hit": false,
      "t": 241875,
      "d": 375,
      "v": 75
    },
    {
      "midi": 57,
      "hit": false,
      "t": 241875,
      "d": 375,
      "v": 66
    },
    {
      "midi": 55,
      "hit": false,
      "t": 242250,
      "d": 375,
      "v": 66
    },
    {
      "midi": 55,
      "hit": false,
      "t": 242250,
      "d": 375,
      "v": 75
    },
    {
      "midi": 57,
      "hit": false,
      "t": 242250,
      "d": 375,
      "v": 75
    },
    {
      "midi": 60,
      "hit": false,
      "t": 242250,
      "d": 375,
      "v": 75
    },
    {
      "midi": 63,
      "hit": false,
      "t": 242250,
      "d": 375,
      "v": 75
    },
    {
      "midi": 67,
      "hit": false,
      "t": 242250,
      "d": 375,
      "v": 75
    },
    {
      "midi": 55,
      "hit": false,
      "t": 242250,
      "d": 375,
      "v": 75
    },
    {
      "midi": 57,
      "hit": false,
      "t": 242250,
      "d": 375,
      "v": 75
    },
    {
      "midi": 60,
      "hit": false,
      "t": 242250,
      "d": 375,
      "v": 75
    },
    {
      "midi": 63,
      "hit": false,
      "t": 242250,
      "d": 375,
      "v": 75
    },
    {
      "midi": 67,
      "hit": false,
      "t": 242250,
      "d": 375,
      "v": 75
    },
    {
      "midi": 55,
      "hit": false,
      "t": 242250,
      "d": 375,
      "v": 66
    },
    {
      "midi": 54,
      "hit": false,
      "t": 242625,
      "d": 375,
      "v": 66
    },
    {
      "midi": 54,
      "hit": false,
      "t": 242625,
      "d": 375,
      "v": 75
    },
    {
      "midi": 57,
      "hit": false,
      "t": 242625,
      "d": 375,
      "v": 75
    },
    {
      "midi": 60,
      "hit": false,
      "t": 242625,
      "d": 375,
      "v": 75
    },
    {
      "midi": 63,
      "hit": false,
      "t": 242625,
      "d": 375,
      "v": 75
    },
    {
      "midi": 66,
      "hit": false,
      "t": 242625,
      "d": 375,
      "v": 75
    },
    {
      "midi": 54,
      "hit": false,
      "t": 242625,
      "d": 375,
      "v": 75
    },
    {
      "midi": 57,
      "hit": false,
      "t": 242625,
      "d": 375,
      "v": 75
    },
    {
      "midi": 60,
      "hit": false,
      "t": 242625,
      "d": 375,
      "v": 75
    },
    {
      "midi": 63,
      "hit": false,
      "t": 242625,
      "d": 375,
      "v": 75
    },
    {
      "midi": 66,
      "hit": false,
      "t": 242625,
      "d": 375,
      "v": 75
    },
    {
      "midi": 54,
      "hit": false,
      "t": 242625,
      "d": 375,
      "v": 66
    },
    {
      "midi": 55,
      "hit": false,
      "t": 243000,
      "d": 750,
      "v": 66
    },
    {
      "midi": 55,
      "hit": false,
      "t": 243000,
      "d": 750,
      "v": 75
    },
    {
      "midi": 57,
      "hit": false,
      "t": 243000,
      "d": 750,
      "v": 75
    },
    {
      "midi": 60,
      "hit": false,
      "t": 243000,
      "d": 750,
      "v": 75
    },
    {
      "midi": 62,
      "hit": false,
      "t": 243000,
      "d": 750,
      "v": 75
    },
    {
      "midi": 67,
      "hit": false,
      "t": 243000,
      "d": 750,
      "v": 75
    },
    {
      "midi": 55,
      "hit": false,
      "t": 243000,
      "d": 750,
      "v": 75
    },
    {
      "midi": 57,
      "hit": false,
      "t": 243000,
      "d": 750,
      "v": 75
    },
    {
      "midi": 60,
      "hit": false,
      "t": 243000,
      "d": 750,
      "v": 75
    },
    {
      "midi": 62,
      "hit": false,
      "t": 243000,
      "d": 750,
      "v": 75
    },
    {
      "midi": 67,
      "hit": false,
      "t": 243000,
      "d": 750,
      "v": 75
    },
    {
      "midi": 55,
      "hit": false,
      "t": 243000,
      "d": 750,
      "v": 66
    },
    {
      "midi": 62,
      "hit": false,
      "t": 243750,
      "d": 1500,
      "v": 66
    },
    {
      "midi": 69,
      "hit": false,
      "t": 243750,
      "d": 750,
      "v": 75
    },
    {
      "midi": 72,
      "hit": false,
      "t": 243750,
      "d": 750,
      "v": 75
    },
    {
      "midi": 62,
      "hit": false,
      "t": 243750,
      "d": 1500,
      "v": 75
    },
    {
      "midi": 65,
      "hit": false,
      "t": 243750,
      "d": 1500,
      "v": 75
    },
    {
      "midi": 74,
      "hit": false,
      "t": 243750,
      "d": 1500,
      "v": 75
    },
    {
      "midi": 69,
      "hit": false,
      "t": 243750,
      "d": 750,
      "v": 75
    },
    {
      "midi": 72,
      "hit": false,
      "t": 243750,
      "d": 750,
      "v": 75
    },
    {
      "midi": 62,
      "hit": false,
      "t": 243750,
      "d": 1500,
      "v": 75
    },
    {
      "midi": 65,
      "hit": false,
      "t": 243750,
      "d": 1500,
      "v": 75
    },
    {
      "midi": 74,
      "hit": false,
      "t": 243750,
      "d": 1500,
      "v": 75
    },
    {
      "midi": 62,
      "hit": false,
      "t": 243750,
      "d": 1500,
      "v": 66
    },
    {
      "midi": 67,
      "hit": false,
      "t": 244500,
      "d": 750,
      "v": 75
    },
    {
      "midi": 71,
      "hit": false,
      "t": 244500,
      "d": 750,
      "v": 75
    },
    {
      "midi": 67,
      "hit": false,
      "t": 244500,
      "d": 750,
      "v": 75
    },
    {
      "midi": 71,
      "hit": false,
      "t": 244500,
      "d": 750,
      "v": 75
    },
    {
      "midi": 55,
      "hit": false,
      "t": 245250,
      "d": 750,
      "v": 66
    },
    {
      "midi": 55,
      "hit": false,
      "t": 245250,
      "d": 750,
      "v": 75
    },
    {
      "midi": 59,
      "hit": false,
      "t": 245250,
      "d": 750,
      "v": 75
    },
    {
      "midi": 62,
      "hit": false,
      "t": 245250,
      "d": 750,
      "v": 75
    },
    {
      "midi": 65,
      "hit": false,
      "t": 245250,
      "d": 750,
      "v": 75
    },
    {
      "midi": 67,
      "hit": false,
      "t": 245250,
      "d": 750,
      "v": 75
    },
    {
      "midi": 55,
      "hit": false,
      "t": 245250,
      "d": 750,
      "v": 75
    },
    {
      "midi": 59,
      "hit": false,
      "t": 245250,
      "d": 750,
      "v": 75
    },
    {
      "midi": 62,
      "hit": false,
      "t": 245250,
      "d": 750,
      "v": 75
    },
    {
      "midi": 65,
      "hit": false,
      "t": 245250,
      "d": 750,
      "v": 75
    },
    {
      "midi": 67,
      "hit": false,
      "t": 245250,
      "d": 750,
      "v": 75
    },
    {
      "midi": 55,
      "hit": false,
      "t": 245250,
      "d": 750,
      "v": 66
    },
    {
      "midi": 60,
      "hit": false,
      "t": 246000,
      "d": 2250,
      "v": 66
    },
    {
      "midi": 60,
      "hit": false,
      "t": 246000,
      "d": 1125,
      "v": 75
    },
    {
      "midi": 64,
      "hit": false,
      "t": 246000,
      "d": 2250,
      "v": 75
    },
    {
      "midi": 67,
      "hit": false,
      "t": 246000,
      "d": 2250,
      "v": 75
    },
    {
      "midi": 69,
      "hit": false,
      "t": 246000,
      "d": 2250,
      "v": 75
    },
    {
      "midi": 72,
      "hit": false,
      "t": 246000,
      "d": 2250,
      "v": 75
    },
    {
      "midi": 60,
      "hit": false,
      "t": 246000,
      "d": 1125,
      "v": 75
    },
    {
      "midi": 64,
      "hit": false,
      "t": 246000,
      "d": 2250,
      "v": 75
    },
    {
      "midi": 67,
      "hit": false,
      "t": 246000,
      "d": 2250,
      "v": 75
    },
    {
      "midi": 69,
      "hit": false,
      "t": 246000,
      "d": 2250,
      "v": 75
    },
    {
      "midi": 72,
      "hit": false,
      "t": 246000,
      "d": 2250,
      "v": 75
    },
    {
      "midi": 60,
      "hit": false,
      "t": 246000,
      "d": 2250,
      "v": 66
    },
    {
      "midi": 55,
      "hit": false,
      "t": 247125,
      "d": 375,
      "v": 75
    },
    {
      "midi": 55,
      "hit": false,
      "t": 247125,
      "d": 375,
      "v": 75
    },
    {
      "midi": 48,
      "hit": false,
      "t": 247500,
      "d": 750,
      "v": 75
    },
    {
      "midi": 48,
      "hit": false,
      "t": 247500,
      "d": 750,
      "v": 75
    },
    {
      "midi": 60,
      "hit": false,
      "t": 248250,
      "d": 750,
      "v": 66
    },
    {
      "midi": 46,
      "hit": false,
      "t": 248250,
      "d": 750,
      "v": 75
    },
    {
      "midi": 53,
      "hit": false,
      "t": 248250,
      "d": 750,
      "v": 75
    },
    {
      "midi": 58,
      "hit": false,
      "t": 248250,
      "d": 750,
      "v": 75
    },
    {
      "midi": 62,
      "hit": false,
      "t": 248250,
      "d": 750,
      "v": 75
    },
    {
      "midi": 65,
      "hit": false,
      "t": 248250,
      "d": 750,
      "v": 75
    },
    {
      "midi": 68,
      "hit": false,
      "t": 248250,
      "d": 750,
      "v": 75
    },
    {
      "midi": 72,
      "hit": false,
      "t": 248250,
      "d": 750,
      "v": 75
    },
    {
      "midi": 46,
      "hit": false,
      "t": 248250,
      "d": 750,
      "v": 75
    },
    {
      "midi": 53,
      "hit": false,
      "t": 248250,
      "d": 750,
      "v": 75
    },
    {
      "midi": 58,
      "hit": false,
      "t": 248250,
      "d": 750,
      "v": 75
    },
    {
      "midi": 62,
      "hit": false,
      "t": 248250,
      "d": 750,
      "v": 75
    },
    {
      "midi": 65,
      "hit": false,
      "t": 248250,
      "d": 750,
      "v": 75
    },
    {
      "midi": 68,
      "hit": false,
      "t": 248250,
      "d": 750,
      "v": 75
    },
    {
      "midi": 72,
      "hit": false,
      "t": 248250,
      "d": 750,
      "v": 75
    },
    {
      "midi": 60,
      "hit": false,
      "t": 248250,
      "d": 750,
      "v": 66
    },
    {
      "midi": 59,
      "hit": false,
      "t": 249000,
      "d": 1875,
      "v": 66
    },
    {
      "midi": 67,
      "hit": false,
      "t": 249000,
      "d": 1875,
      "v": 66
    },
    {
      "midi": 48,
      "hit": false,
      "t": 249000,
      "d": 1875,
      "v": 75
    },
    {
      "midi": 55,
      "hit": false,
      "t": 249000,
      "d": 1875,
      "v": 75
    },
    {
      "midi": 60,
      "hit": false,
      "t": 249000,
      "d": 1875,
      "v": 75
    },
    {
      "midi": 64,
      "hit": false,
      "t": 249000,
      "d": 1875,
      "v": 75
    },
    {
      "midi": 67,
      "hit": false,
      "t": 249000,
      "d": 1875,
      "v": 75
    },
    {
      "midi": 71,
      "hit": false,
      "t": 249000,
      "d": 1875,
      "v": 75
    },
    {
      "midi": 48,
      "hit": false,
      "t": 249000,
      "d": 1875,
      "v": 75
    },
    {
      "midi": 55,
      "hit": false,
      "t": 249000,
      "d": 1875,
      "v": 75
    },
    {
      "midi": 60,
      "hit": false,
      "t": 249000,
      "d": 1875,
      "v": 75
    },
    {
      "midi": 64,
      "hit": false,
      "t": 249000,
      "d": 1875,
      "v": 75
    },
    {
      "midi": 67,
      "hit": false,
      "t": 249000,
      "d": 1875,
      "v": 75
    },
    {
      "midi": 71,
      "hit": false,
      "t": 249000,
      "d": 1875,
      "v": 75
    },
    {
      "midi": 59,
      "hit": false,
      "t": 249000,
      "d": 1875,
      "v": 66
    },
    {
      "midi": 67,
      "hit": false,
      "t": 249000,
      "d": 1875,
      "v": 66
    }
  ]
}