{
  "jsonPath": "Pop/Classic Italian Pop/Roberto Vecchioni/luci-a-san-siro.json",
  "path": "Pop\\Classic Italian Pop\\Roberto Vecchioni\\Luci A San Siro.mid",
  "name": "Luci A San Siro",
  "difficulty": "Advanced",
  "bpm": 65.00048750365627,
  "notes": [
    {
      "midi": 74,
      "hit": false,
      "t": 6.9167708333333335,
      "d": 352.7553125,
      "v": 69
    },
    {
      "midi": 57,
      "hit": false,
      "t": 6.9167708333333335,
      "d": 625.9677604166667,
      "v": 57
    },
    {
      "midi": 57,
      "hit": false,
      "t": 10.37515625,
      "d": 650.1764583333332,
      "v": 55
    },
    {
      "midi": 78,
      "hit": false,
      "t": 10.37515625,
      "d": 349.29692708333334,
      "v": 61
    },
    {
      "midi": 74,
      "hit": false,
      "t": 13.833541666666667,
      "d": 345.83854166666663,
      "v": 63
    },
    {
      "midi": 78,
      "hit": false,
      "t": 13.833541666666667,
      "d": 345.83854166666663,
      "v": 59
    },
    {
      "midi": 66,
      "hit": false,
      "t": 328.54661458333334,
      "d": 332.00500000000005,
      "v": 45
    },
    {
      "midi": 66,
      "hit": false,
      "t": 332.005,
      "d": 328.5466145833333,
      "v": 43
    },
    {
      "midi": 69,
      "hit": false,
      "t": 332.005,
      "d": 356.21369791666666,
      "v": 59
    },
    {
      "midi": 69,
      "hit": false,
      "t": 332.005,
      "d": 356.2136979166668,
      "v": 65
    },
    {
      "midi": 74,
      "hit": false,
      "t": 664.01,
      "d": 383.88078125000015,
      "v": 59
    },
    {
      "midi": 78,
      "hit": false,
      "t": 664.01,
      "d": 383.88078125000015,
      "v": 55
    },
    {
      "midi": 62,
      "hit": false,
      "t": 664.01,
      "d": 688.218697916667,
      "v": 47
    },
    {
      "midi": 74,
      "hit": false,
      "t": 664.0100000000001,
      "d": 359.6720833333334,
      "v": 61
    },
    {
      "midi": 78,
      "hit": false,
      "t": 664.0100000000001,
      "d": 383.88078125000004,
      "v": 57
    },
    {
      "midi": 62,
      "hit": false,
      "t": 664.0100000000001,
      "d": 660.5516145833334,
      "v": 49
    },
    {
      "midi": 66,
      "hit": false,
      "t": 992.5566145833334,
      "d": 335.4633854166668,
      "v": 45
    },
    {
      "midi": 66,
      "hit": false,
      "t": 996.0150000000001,
      "d": 332.0050000000001,
      "v": 39
    },
    {
      "midi": 69,
      "hit": false,
      "t": 996.0150000000001,
      "d": 359.6720833333336,
      "v": 59
    },
    {
      "midi": 69,
      "hit": false,
      "t": 996.0150000000001,
      "d": 359.6720833333336,
      "v": 65
    },
    {
      "midi": 57,
      "hit": false,
      "t": 1328.0200000000002,
      "d": 664.0100000000002,
      "v": 49
    },
    {
      "midi": 74,
      "hit": false,
      "t": 1331.478385416667,
      "d": 356.2136979166669,
      "v": 55
    },
    {
      "midi": 78,
      "hit": false,
      "t": 1331.478385416667,
      "d": 380.42239583333367,
      "v": 55
    },
    {
      "midi": 57,
      "hit": false,
      "t": 1331.478385416667,
      "d": 664.0100000000004,
      "v": 43
    },
    {
      "midi": 74,
      "hit": false,
      "t": 1331.478385416667,
      "d": 352.7553125000002,
      "v": 61
    },
    {
      "midi": 78,
      "hit": false,
      "t": 1331.478385416667,
      "d": 356.2136979166669,
      "v": 57
    },
    {
      "midi": 66,
      "hit": false,
      "t": 1656.5666145833338,
      "d": 363.1304687500003,
      "v": 43
    },
    {
      "midi": 66,
      "hit": false,
      "t": 1656.5666145833338,
      "d": 335.4633854166666,
      "v": 45
    },
    {
      "midi": 69,
      "hit": false,
      "t": 1656.5666145833338,
      "d": 363.1304687500001,
      "v": 65
    },
    {
      "midi": 69,
      "hit": false,
      "t": 1660.0250000000005,
      "d": 359.6720833333336,
      "v": 59
    },
    {
      "midi": 78,
      "hit": false,
      "t": 1995.4883854166671,
      "d": 325.0882291666669,
      "v": 57
    },
    {
      "midi": 74,
      "hit": false,
      "t": 1995.4883854166671,
      "d": 352.7553125000002,
      "v": 61
    },
    {
      "midi": 62,
      "hit": false,
      "t": 1995.4883854166671,
      "d": 657.093229166667,
      "v": 49
    },
    {
      "midi": 78,
      "hit": false,
      "t": 1998.946770833334,
      "d": 321.62984374999996,
      "v": 55
    },
    {
      "midi": 74,
      "hit": false,
      "t": 1998.946770833334,
      "d": 349.29692708333323,
      "v": 59
    },
    {
      "midi": 62,
      "hit": false,
      "t": 1998.946770833334,
      "d": 657.0932291666668,
      "v": 47
    },
    {
      "midi": 66,
      "hit": false,
      "t": 2320.576614583334,
      "d": 335.4633854166668,
      "v": 49
    },
    {
      "midi": 66,
      "hit": false,
      "t": 2324.0350000000008,
      "d": 359.6720833333334,
      "v": 47
    },
    {
      "midi": 69,
      "hit": false,
      "t": 2324.0350000000008,
      "d": 356.21369791666666,
      "v": 65
    },
    {
      "midi": 69,
      "hit": false,
      "t": 2327.4933854166675,
      "d": 380.4223958333332,
      "v": 59
    },
    {
      "midi": 74,
      "hit": false,
      "t": 2656.040000000001,
      "d": 383.8807812499999,
      "v": 59
    },
    {
      "midi": 78,
      "hit": false,
      "t": 2656.040000000001,
      "d": 387.33916666666664,
      "v": 55
    },
    {
      "midi": 57,
      "hit": false,
      "t": 2656.040000000001,
      "d": 660.5516145833335,
      "v": 51
    },
    {
      "midi": 78,
      "hit": false,
      "t": 2656.040000000001,
      "d": 359.6720833333329,
      "v": 57
    },
    {
      "midi": 74,
      "hit": false,
      "t": 2656.040000000001,
      "d": 383.8807812499995,
      "v": 61
    },
    {
      "midi": 57,
      "hit": false,
      "t": 2656.040000000001,
      "d": 660.5516145833326,
      "v": 53
    },
    {
      "midi": 66,
      "hit": false,
      "t": 2984.586614583334,
      "d": 332.00499999999965,
      "v": 53
    },
    {
      "midi": 69,
      "hit": false,
      "t": 2988.0450000000005,
      "d": 356.2136979166662,
      "v": 65
    },
    {
      "midi": 66,
      "hit": false,
      "t": 2988.045000000001,
      "d": 328.5466145833334,
      "v": 47
    },
    {
      "midi": 69,
      "hit": false,
      "t": 2988.045000000001,
      "d": 356.21369791666666,
      "v": 63
    },
    {
      "midi": 74,
      "hit": false,
      "t": 3316.5916145833335,
      "d": 359.6720833333334,
      "v": 65
    },
    {
      "midi": 78,
      "hit": false,
      "t": 3316.5916145833335,
      "d": 363.1304687500001,
      "v": 61
    },
    {
      "midi": 62,
      "hit": false,
      "t": 3316.5916145833335,
      "d": 667.4683854166669,
      "v": 53
    },
    {
      "midi": 78,
      "hit": false,
      "t": 3316.5916145833344,
      "d": 363.1304687500001,
      "v": 59
    },
    {
      "midi": 74,
      "hit": false,
      "t": 3316.5916145833344,
      "d": 387.33916666666664,
      "v": 59
    },
    {
      "midi": 62,
      "hit": false,
      "t": 3316.5916145833344,
      "d": 667.4683854166665,
      "v": 51
    },
    {
      "midi": 66,
      "hit": false,
      "t": 3648.5966145833336,
      "d": 335.4633854166668,
      "v": 53
    },
    {
      "midi": 69,
      "hit": false,
      "t": 3648.5966145833336,
      "d": 363.1304687500001,
      "v": 65
    },
    {
      "midi": 66,
      "hit": false,
      "t": 3648.5966145833345,
      "d": 363.13046874999964,
      "v": 47
    },
    {
      "midi": 69,
      "hit": false,
      "t": 3652.055000000001,
      "d": 359.6720833333329,
      "v": 59
    },
    {
      "midi": 74,
      "hit": false,
      "t": 3984.0600000000004,
      "d": 328.5466145833334,
      "v": 61
    },
    {
      "midi": 78,
      "hit": false,
      "t": 3984.0600000000004,
      "d": 332.0050000000001,
      "v": 57
    },
    {
      "midi": 57,
      "hit": false,
      "t": 3984.0600000000004,
      "d": 660.5516145833335,
      "v": 53
    },
    {
      "midi": 74,
      "hit": false,
      "t": 3984.060000000001,
      "d": 356.21369791666666,
      "v": 59
    },
    {
      "midi": 78,
      "hit": false,
      "t": 3984.060000000001,
      "d": 356.21369791666666,
      "v": 55
    },
    {
      "midi": 57,
      "hit": false,
      "t": 3984.060000000001,
      "d": 660.551614583333,
      "v": 51
    },
    {
      "midi": 66,
      "hit": false,
      "t": 4316.0650000000005,
      "d": 356.2136979166671,
      "v": 47
    },
    {
      "midi": 69,
      "hit": false,
      "t": 4316.0650000000005,
      "d": 359.67208333333383,
      "v": 63
    },
    {
      "midi": 66,
      "hit": false,
      "t": 4316.0650000000005,
      "d": 328.5466145833334,
      "v": 53
    },
    {
      "midi": 69,
      "hit": false,
      "t": 4316.0650000000005,
      "d": 356.2136979166671,
      "v": 65
    },
    {
      "midi": 78,
      "hit": false,
      "t": 4648.070000000001,
      "d": 359.67208333333383,
      "v": 51
    },
    {
      "midi": 74,
      "hit": false,
      "t": 4648.070000000001,
      "d": 387.33916666666755,
      "v": 55
    },
    {
      "midi": 62,
      "hit": false,
      "t": 4648.070000000001,
      "d": 415.0062500000013,
      "v": 47
    },
    {
      "midi": 74,
      "hit": false,
      "t": 4648.070000000001,
      "d": 359.67208333333383,
      "v": 61
    },
    {
      "midi": 78,
      "hit": false,
      "t": 4648.070000000001,
      "d": 359.67208333333383,
      "v": 57
    },
    {
      "midi": 62,
      "hit": false,
      "t": 4648.070000000001,
      "d": 415.00625000000036,
      "v": 53
    },
    {
      "midi": 66,
      "hit": false,
      "t": 4976.616614583334,
      "d": 86.45963541666697,
      "v": 49
    },
    {
      "midi": 66,
      "hit": false,
      "t": 4980.075000000001,
      "d": 83.00125000000116,
      "v": 47
    },
    {
      "midi": 69,
      "hit": false,
      "t": 4980.075000000001,
      "d": 107.20994791666817,
      "v": 59
    },
    {
      "midi": 69,
      "hit": false,
      "t": 4980.075000000001,
      "d": 83.00125000000025,
      "v": 65
    },
    {
      "midi": 74,
      "hit": false,
      "t": 5308.621614583334,
      "d": 387.33916666666755,
      "v": 65
    },
    {
      "midi": 57,
      "hit": false,
      "t": 5308.621614583334,
      "d": 664.0100000000011,
      "v": 53
    },
    {
      "midi": 78,
      "hit": false,
      "t": 5312.080000000001,
      "d": 387.33916666666755,
      "v": 61
    },
    {
      "midi": 74,
      "hit": false,
      "t": 5312.080000000003,
      "d": 387.33916666666755,
      "v": 63
    },
    {
      "midi": 78,
      "hit": false,
      "t": 5312.080000000003,
      "d": 387.33916666666755,
      "v": 59
    },
    {
      "midi": 57,
      "hit": false,
      "t": 5312.080000000003,
      "d": 660.5516145833344,
      "v": 51
    },
    {
      "midi": 66,
      "hit": false,
      "t": 5640.626614583334,
      "d": 335.46338541666773,
      "v": 53
    },
    {
      "midi": 69,
      "hit": false,
      "t": 5640.626614583334,
      "d": 359.67208333333474,
      "v": 61
    },
    {
      "midi": 66,
      "hit": false,
      "t": 5640.626614583336,
      "d": 359.67208333333474,
      "v": 47
    },
    {
      "midi": 69,
      "hit": false,
      "t": 5644.085000000003,
      "d": 359.67208333333474,
      "v": 55
    },
    {
      "midi": 78,
      "hit": false,
      "t": 5976.090000000002,
      "d": 328.5466145833334,
      "v": 61
    },
    {
      "midi": 74,
      "hit": false,
      "t": 5976.090000000002,
      "d": 356.2136979166671,
      "v": 65
    },
    {
      "midi": 62,
      "hit": false,
      "t": 5976.090000000002,
      "d": 660.5516145833335,
      "v": 61
    },
    {
      "midi": 78,
      "hit": false,
      "t": 5976.090000000004,
      "d": 332.0050000000001,
      "v": 55
    },
    {
      "midi": 74,
      "hit": false,
      "t": 5976.090000000004,
      "d": 356.2136979166671,
      "v": 59
    },
    {
      "midi": 62,
      "hit": false,
      "t": 5976.090000000004,
      "d": 688.2186979166672,
      "v": 55
    },
    {
      "midi": 66,
      "hit": false,
      "t": 6308.095000000002,
      "d": 328.5466145833334,
      "v": 49
    },
    {
      "midi": 69,
      "hit": false,
      "t": 6308.095000000002,
      "d": 359.67208333333383,
      "v": 65
    },
    {
      "midi": 66,
      "hit": false,
      "t": 6311.553385416671,
      "d": 356.2136979166671,
      "v": 47
    },
    {
      "midi": 69,
      "hit": false,
      "t": 6311.553385416671,
      "d": 356.2136979166671,
      "v": 63
    },
    {
      "midi": 57,
      "hit": false,
      "t": 6636.6416145833355,
      "d": 667.4683854166678,
      "v": 49
    },
    {
      "midi": 78,
      "hit": false,
      "t": 6640.100000000002,
      "d": 328.5466145833334,
      "v": 57
    },
    {
      "midi": 74,
      "hit": false,
      "t": 6640.100000000002,
      "d": 356.2136979166671,
      "v": 61
    },
    {
      "midi": 74,
      "hit": false,
      "t": 6640.100000000004,
      "d": 356.2136979166671,
      "v": 55
    },
    {
      "midi": 78,
      "hit": false,
      "t": 6640.100000000004,
      "d": 359.67208333333383,
      "v": 55
    },
    {
      "midi": 57,
      "hit": false,
      "t": 6640.100000000004,
      "d": 664.0100000000002,
      "v": 47
    },
    {
      "midi": 69,
      "hit": false,
      "t": 6968.646614583336,
      "d": 55.33416666666744,
      "v": 65
    },
    {
      "midi": 66,
      "hit": false,
      "t": 6968.646614583336,
      "d": 86.45963541666788,
      "v": 57
    },
    {
      "midi": 66,
      "hit": false,
      "t": 6968.646614583337,
      "d": 86.45963541666697,
      "v": 51
    },
    {
      "midi": 69,
      "hit": false,
      "t": 6972.105000000004,
      "d": 83.00125000000025,
      "v": 63
    },
    {
      "midi": 74,
      "hit": false,
      "t": 7304.110000000003,
      "d": 162.5441145833338,
      "v": 69
    },
    {
      "midi": 62,
      "hit": false,
      "t": 7304.110000000003,
      "d": 632.8845312499998,
      "v": 61
    },
    {
      "midi": 79,
      "hit": false,
      "t": 7307.56838541667,
      "d": 131.41864583333336,
      "v": 61
    },
    {
      "midi": 79,
      "hit": false,
      "t": 7307.568385416671,
      "d": 131.41864583333336,
      "v": 59
    },
    {
      "midi": 74,
      "hit": false,
      "t": 7307.568385416671,
      "d": 159.08572916666708,
      "v": 67
    },
    {
      "midi": 62,
      "hit": false,
      "t": 7307.568385416671,
      "d": 657.0932291666668,
      "v": 55
    },
    {
      "midi": 66,
      "hit": false,
      "t": 7632.656614583337,
      "d": 304.3379166666664,
      "v": 65
    },
    {
      "midi": 69,
      "hit": false,
      "t": 7632.656614583337,
      "d": 332.0050000000001,
      "v": 61
    },
    {
      "midi": 66,
      "hit": false,
      "t": 7632.656614583338,
      "d": 304.3379166666664,
      "v": 59
    },
    {
      "midi": 69,
      "hit": false,
      "t": 7636.115000000004,
      "d": 356.2136979166671,
      "v": 59
    },
    {
      "midi": 74,
      "hit": false,
      "t": 7968.1200000000035,
      "d": 356.2136979166671,
      "v": 61
    },
    {
      "midi": 78,
      "hit": false,
      "t": 7968.1200000000035,
      "d": 356.2136979166671,
      "v": 65
    },
    {
      "midi": 57,
      "hit": false,
      "t": 7968.1200000000035,
      "d": 660.5516145833344,
      "v": 53
    },
    {
      "midi": 74,
      "hit": false,
      "t": 7968.120000000004,
      "d": 359.67208333333474,
      "v": 55
    },
    {
      "midi": 78,
      "hit": false,
      "t": 7968.120000000004,
      "d": 359.67208333333474,
      "v": 59
    },
    {
      "midi": 57,
      "hit": false,
      "t": 7968.120000000004,
      "d": 688.218697916669,
      "v": 51
    },
    {
      "midi": 66,
      "hit": false,
      "t": 8296.666614583337,
      "d": 332.005000000001,
      "v": 49
    },
    {
      "midi": 69,
      "hit": false,
      "t": 8296.666614583337,
      "d": 359.67208333333474,
      "v": 61
    },
    {
      "midi": 66,
      "hit": false,
      "t": 8296.666614583339,
      "d": 332.005000000001,
      "v": 43
    },
    {
      "midi": 69,
      "hit": false,
      "t": 8300.125000000005,
      "d": 356.213697916668,
      "v": 59
    },
    {
      "midi": 78,
      "hit": false,
      "t": 8632.130000000005,
      "d": 328.5466145833343,
      "v": 57
    },
    {
      "midi": 74,
      "hit": false,
      "t": 8632.130000000005,
      "d": 356.213697916668,
      "v": 61
    },
    {
      "midi": 62,
      "hit": false,
      "t": 8632.130000000005,
      "d": 688.218697916669,
      "v": 53
    },
    {
      "midi": 74,
      "hit": false,
      "t": 8632.130000000006,
      "d": 356.213697916668,
      "v": 59
    },
    {
      "midi": 78,
      "hit": false,
      "t": 8632.130000000006,
      "d": 359.67208333333474,
      "v": 55
    },
    {
      "midi": 62,
      "hit": false,
      "t": 8632.130000000006,
      "d": 691.6770833333358,
      "v": 51
    },
    {
      "midi": 66,
      "hit": false,
      "t": 8960.676614583339,
      "d": 332.005000000001,
      "v": 53
    },
    {
      "midi": 69,
      "hit": false,
      "t": 8964.135000000006,
      "d": 359.67208333333474,
      "v": 69
    },
    {
      "midi": 66,
      "hit": false,
      "t": 8964.135000000007,
      "d": 332.005000000001,
      "v": 47
    },
    {
      "midi": 69,
      "hit": false,
      "t": 8964.135000000007,
      "d": 359.67208333333474,
      "v": 63
    },
    {
      "midi": 74,
      "hit": false,
      "t": 9296.140000000007,
      "d": 356.213697916668,
      "v": 65
    },
    {
      "midi": 78,
      "hit": false,
      "t": 9296.140000000007,
      "d": 356.213697916668,
      "v": 61
    },
    {
      "midi": 57,
      "hit": false,
      "t": 9296.140000000007,
      "d": 715.8857812500028,
      "v": 53
    },
    {
      "midi": 74,
      "hit": false,
      "t": 9299.598385416675,
      "d": 380.42239583333503,
      "v": 63
    },
    {
      "midi": 78,
      "hit": false,
      "t": 9299.598385416675,
      "d": 380.42239583333503,
      "v": 55
    },
    {
      "midi": 57,
      "hit": false,
      "t": 9299.598385416675,
      "d": 712.427395833336,
      "v": 51
    },
    {
      "midi": 66,
      "hit": false,
      "t": 9624.686614583341,
      "d": 83.00125000000116,
      "v": 49
    },
    {
      "midi": 69,
      "hit": false,
      "t": 9624.686614583341,
      "d": 86.45963541666788,
      "v": 65
    },
    {
      "midi": 66,
      "hit": false,
      "t": 9624.686614583343,
      "d": 86.45963541666788,
      "v": 47
    },
    {
      "midi": 69,
      "hit": false,
      "t": 9628.14500000001,
      "d": 83.00125000000116,
      "v": 59
    },
    {
      "midi": 81,
      "hit": false,
      "t": 9956.691614583342,
      "d": 138.3354166666686,
      "v": 65
    },
    {
      "midi": 74,
      "hit": false,
      "t": 9956.691614583342,
      "d": 193.66958333333605,
      "v": 65
    },
    {
      "midi": 62,
      "hit": false,
      "t": 9956.691614583342,
      "d": 442.6733333333359,
      "v": 53
    },
    {
      "midi": 81,
      "hit": false,
      "t": 9960.15000000001,
      "d": 162.5441145833356,
      "v": 63
    },
    {
      "midi": 74,
      "hit": false,
      "t": 9960.15000000001,
      "d": 190.21119791666933,
      "v": 59
    },
    {
      "midi": 62,
      "hit": false,
      "t": 9960.15000000001,
      "d": 466.8820312500029,
      "v": 47
    },
    {
      "midi": 66,
      "hit": false,
      "t": 10288.696614583345,
      "d": 83.00124999999935,
      "v": 53
    },
    {
      "midi": 69,
      "hit": false,
      "t": 10288.696614583345,
      "d": 83.00124999999935,
      "v": 65
    },
    {
      "midi": 66,
      "hit": false,
      "t": 10288.696614583347,
      "d": 83.00124999999935,
      "v": 47
    },
    {
      "midi": 69,
      "hit": false,
      "t": 10288.696614583347,
      "d": 110.66833333333307,
      "v": 59
    },
    {
      "midi": 74,
      "hit": false,
      "t": 10624.16000000001,
      "d": 134.87703125000007,
      "v": 65
    },
    {
      "midi": 81,
      "hit": false,
      "t": 10624.16000000001,
      "d": 134.87703125000007,
      "v": 65
    },
    {
      "midi": 57,
      "hit": false,
      "t": 10624.16000000001,
      "d": 577.5503645833342,
      "v": 57
    },
    {
      "midi": 81,
      "hit": false,
      "t": 10627.618385416681,
      "d": 131.41864583333336,
      "v": 63
    },
    {
      "midi": 74,
      "hit": false,
      "t": 10627.618385416681,
      "d": 159.08572916666708,
      "v": 63
    },
    {
      "midi": 57,
      "hit": false,
      "t": 10627.618385416681,
      "d": 574.0919791666674,
      "v": 51
    },
    {
      "midi": 69,
      "hit": false,
      "t": 10952.706614583345,
      "d": 83.00124999999935,
      "v": 69
    },
    {
      "midi": 66,
      "hit": false,
      "t": 10952.706614583345,
      "d": 193.6695833333324,
      "v": 49
    },
    {
      "midi": 66,
      "hit": false,
      "t": 10952.706614583349,
      "d": 197.12796874999913,
      "v": 43
    },
    {
      "midi": 69,
      "hit": false,
      "t": 10956.165000000015,
      "d": 110.66833333333307,
      "v": 63
    },
    {
      "midi": 79,
      "hit": false,
      "t": 11284.711614583344,
      "d": 166.0025000000005,
      "v": 65
    },
    {
      "midi": 74,
      "hit": false,
      "t": 11284.711614583344,
      "d": 193.66958333333423,
      "v": 69
    },
    {
      "midi": 62,
      "hit": false,
      "t": 11284.711614583344,
      "d": 667.4683854166688,
      "v": 61
    },
    {
      "midi": 79,
      "hit": false,
      "t": 11284.711614583348,
      "d": 193.6695833333324,
      "v": 63
    },
    {
      "midi": 74,
      "hit": false,
      "t": 11284.711614583348,
      "d": 221.33666666666613,
      "v": 67
    },
    {
      "midi": 62,
      "hit": false,
      "t": 11284.711614583348,
      "d": 667.4683854166669,
      "v": 59
    },
    {
      "midi": 66,
      "hit": false,
      "t": 11620.175000000012,
      "d": 273.21244791666686,
      "v": 69
    },
    {
      "midi": 69,
      "hit": false,
      "t": 11620.175000000012,
      "d": 356.213697916668,
      "v": 65
    },
    {
      "midi": 66,
      "hit": false,
      "t": 11620.175000000014,
      "d": 300.8795312500006,
      "v": 63
    },
    {
      "midi": 69,
      "hit": false,
      "t": 11620.175000000014,
      "d": 359.67208333333474,
      "v": 63
    },
    {
      "midi": 74,
      "hit": false,
      "t": 11952.180000000013,
      "d": 332.0049999999992,
      "v": 65
    },
    {
      "midi": 57,
      "hit": false,
      "t": 11952.180000000013,
      "d": 691.6770833333321,
      "v": 53
    },
    {
      "midi": 78,
      "hit": false,
      "t": 11955.63838541668,
      "d": 328.5466145833325,
      "v": 65
    },
    {
      "midi": 74,
      "hit": false,
      "t": 11955.638385416682,
      "d": 356.213697916668,
      "v": 63
    },
    {
      "midi": 57,
      "hit": false,
      "t": 11955.638385416682,
      "d": 688.218697916669,
      "v": 51
    },
    {
      "midi": 78,
      "hit": false,
      "t": 11959.096770833348,
      "d": 325.0882291666676,
      "v": 63
    },
    {
      "midi": 66,
      "hit": false,
      "t": 12284.185000000012,
      "d": 332.0049999999992,
      "v": 53
    },
    {
      "midi": 69,
      "hit": false,
      "t": 12284.185000000012,
      "d": 359.6720833333329,
      "v": 69
    },
    {
      "midi": 66,
      "hit": false,
      "t": 12284.185000000016,
      "d": 335.46338541666773,
      "v": 47
    },
    {
      "midi": 69,
      "hit": false,
      "t": 12284.185000000016,
      "d": 383.88078125000175,
      "v": 63
    },
    {
      "midi": 74,
      "hit": false,
      "t": 12619.648385416678,
      "d": 356.213697916668,
      "v": 65
    },
    {
      "midi": 78,
      "hit": false,
      "t": 12619.648385416678,
      "d": 356.213697916668,
      "v": 57
    },
    {
      "midi": 62,
      "hit": false,
      "t": 12619.648385416678,
      "d": 411.54786458333547,
      "v": 61
    },
    {
      "midi": 74,
      "hit": false,
      "t": 12619.648385416684,
      "d": 356.2136979166662,
      "v": 63
    },
    {
      "midi": 78,
      "hit": false,
      "t": 12619.648385416684,
      "d": 383.8807812499999,
      "v": 55
    },
    {
      "midi": 62,
      "hit": false,
      "t": 12619.648385416684,
      "d": 411.54786458333365,
      "v": 55
    },
    {
      "midi": 66,
      "hit": false,
      "t": 12948.195000000012,
      "d": 83.00125000000116,
      "v": 45
    },
    {
      "midi": 69,
      "hit": false,
      "t": 12948.195000000012,
      "d": 83.00125000000116,
      "v": 61
    },
    {
      "midi": 66,
      "hit": false,
      "t": 12948.195000000016,
      "d": 83.00125000000116,
      "v": 43
    },
    {
      "midi": 69,
      "hit": false,
      "t": 12948.195000000016,
      "d": 83.00125000000116,
      "v": 55
    },
    {
      "midi": 76,
      "hit": false,
      "t": 13276.741614583347,
      "d": 359.67208333333474,
      "v": 65
    },
    {
      "midi": 59,
      "hit": false,
      "t": 13276.741614583347,
      "d": 667.4683854166688,
      "v": 65
    },
    {
      "midi": 79,
      "hit": false,
      "t": 13280.200000000013,
      "d": 356.213697916668,
      "v": 69
    },
    {
      "midi": 76,
      "hit": false,
      "t": 13280.200000000017,
      "d": 356.2136979166662,
      "v": 59
    },
    {
      "midi": 59,
      "hit": false,
      "t": 13280.200000000017,
      "d": 664.0100000000002,
      "v": 59
    },
    {
      "midi": 79,
      "hit": false,
      "t": 13283.658385416684,
      "d": 356.2136979166662,
      "v": 63
    },
    {
      "midi": 67,
      "hit": false,
      "t": 13608.746614583348,
      "d": 335.46338541666773,
      "v": 57
    },
    {
      "midi": 71,
      "hit": false,
      "t": 13612.205000000014,
      "d": 332.005000000001,
      "v": 65
    },
    {
      "midi": 67,
      "hit": false,
      "t": 13612.205000000016,
      "d": 332.005000000001,
      "v": 51
    },
    {
      "midi": 71,
      "hit": false,
      "t": 13612.205000000016,
      "d": 356.213697916668,
      "v": 59
    },
    {
      "midi": 76,
      "hit": false,
      "t": 13944.210000000015,
      "d": 356.2136979166662,
      "v": 57
    },
    {
      "midi": 79,
      "hit": false,
      "t": 13944.210000000015,
      "d": 359.6720833333329,
      "v": 65
    },
    {
      "midi": 64,
      "hit": false,
      "t": 13944.210000000015,
      "d": 664.0100000000002,
      "v": 61
    },
    {
      "midi": 76,
      "hit": false,
      "t": 13944.210000000017,
      "d": 359.67208333333474,
      "v": 51
    },
    {
      "midi": 79,
      "hit": false,
      "t": 13944.210000000017,
      "d": 383.88078125000175,
      "v": 55
    },
    {
      "midi": 64,
      "hit": false,
      "t": 13944.210000000017,
      "d": 691.6770833333358,
      "v": 59
    },
    {
      "midi": 67,
      "hit": false,
      "t": 14272.756614583348,
      "d": 335.46338541666773,
      "v": 53
    },
    {
      "midi": 71,
      "hit": false,
      "t": 14272.756614583348,
      "d": 335.46338541666773,
      "v": 61
    },
    {
      "midi": 67,
      "hit": false,
      "t": 14272.756614583352,
      "d": 335.46338541666773,
      "v": 51
    },
    {
      "midi": 71,
      "hit": false,
      "t": 14276.215000000018,
      "d": 359.67208333333474,
      "v": 59
    },
    {
      "midi": 79,
      "hit": false,
      "t": 14611.678385416682,
      "d": 325.08822916666577,
      "v": 61
    },
    {
      "midi": 76,
      "hit": false,
      "t": 14611.678385416682,
      "d": 352.7553124999995,
      "v": 65
    },
    {
      "midi": 59,
      "hit": false,
      "t": 14611.678385416682,
      "d": 684.7603125000005,
      "v": 53
    },
    {
      "midi": 76,
      "hit": false,
      "t": 14611.678385416686,
      "d": 352.7553124999995,
      "v": 55
    },
    {
      "midi": 79,
      "hit": false,
      "t": 14611.678385416686,
      "d": 352.7553124999995,
      "v": 55
    },
    {
      "midi": 59,
      "hit": false,
      "t": 14611.678385416686,
      "d": 688.2186979166672,
      "v": 47
    },
    {
      "midi": 67,
      "hit": false,
      "t": 14936.766614583348,
      "d": 332.005000000001,
      "v": 53
    },
    {
      "midi": 71,
      "hit": false,
      "t": 14940.225000000015,
      "d": 356.213697916668,
      "v": 61
    },
    {
      "midi": 67,
      "hit": false,
      "t": 14940.225000000019,
      "d": 359.67208333333474,
      "v": 51
    },
    {
      "midi": 71,
      "hit": false,
      "t": 14940.225000000019,
      "d": 359.67208333333474,
      "v": 55
    },
    {
      "midi": 64,
      "hit": false,
      "t": 15272.230000000016,
      "d": 383.8807812499999,
      "v": 61
    },
    {
      "midi": 76,
      "hit": false,
      "t": 15272.230000000016,
      "d": 411.54786458333365,
      "v": 61
    },
    {
      "midi": 79,
      "hit": false,
      "t": 15272.230000000016,
      "d": 415.00625000000036,
      "v": 65
    },
    {
      "midi": 64,
      "hit": false,
      "t": 15272.23000000002,
      "d": 383.8807812499999,
      "v": 55
    },
    {
      "midi": 76,
      "hit": false,
      "t": 15272.23000000002,
      "d": 439.21494791666737,
      "v": 55
    },
    {
      "midi": 79,
      "hit": false,
      "t": 15272.23000000002,
      "d": 439.21494791666737,
      "v": 55
    },
    {
      "midi": 67,
      "hit": false,
      "t": 15604.235000000015,
      "d": 79.54286458333445,
      "v": 53
    },
    {
      "midi": 71,
      "hit": false,
      "t": 15604.235000000015,
      "d": 79.54286458333445,
      "v": 53
    },
    {
      "midi": 67,
      "hit": false,
      "t": 15604.235000000019,
      "d": 83.00125000000116,
      "v": 47
    },
    {
      "midi": 71,
      "hit": false,
      "t": 15604.235000000019,
      "d": 83.00125000000116,
      "v": 51
    },
    {
      "midi": 76,
      "hit": false,
      "t": 15932.78161458335,
      "d": 332.005000000001,
      "v": 65
    },
    {
      "midi": 79,
      "hit": false,
      "t": 15932.78161458335,
      "d": 332.005000000001,
      "v": 73
    },
    {
      "midi": 59,
      "hit": false,
      "t": 15932.78161458335,
      "d": 664.010000000002,
      "v": 57
    },
    {
      "midi": 76,
      "hit": false,
      "t": 15936.24000000002,
      "d": 328.5466145833343,
      "v": 55
    },
    {
      "midi": 79,
      "hit": false,
      "t": 15936.24000000002,
      "d": 356.213697916668,
      "v": 63
    },
    {
      "midi": 59,
      "hit": false,
      "t": 15936.24000000002,
      "d": 691.6770833333358,
      "v": 55
    },
    {
      "midi": 67,
      "hit": false,
      "t": 16268.245000000017,
      "d": 245.54536458333314,
      "v": 57
    },
    {
      "midi": 71,
      "hit": false,
      "t": 16268.245000000017,
      "d": 359.67208333333474,
      "v": 61
    },
    {
      "midi": 67,
      "hit": false,
      "t": 16268.24500000002,
      "d": 273.21244791666686,
      "v": 55
    },
    {
      "midi": 71,
      "hit": false,
      "t": 16268.24500000002,
      "d": 359.67208333333474,
      "v": 59
    },
    {
      "midi": 79,
      "hit": false,
      "t": 16600.25000000002,
      "d": 328.5466145833343,
      "v": 65
    },
    {
      "midi": 76,
      "hit": false,
      "t": 16600.25000000002,
      "d": 356.213697916668,
      "v": 65
    },
    {
      "midi": 64,
      "hit": false,
      "t": 16600.25000000002,
      "d": 660.5516145833353,
      "v": 61
    },
    {
      "midi": 76,
      "hit": false,
      "t": 16600.250000000022,
      "d": 356.213697916668,
      "v": 55
    },
    {
      "midi": 79,
      "hit": false,
      "t": 16600.250000000022,
      "d": 356.213697916668,
      "v": 55
    },
    {
      "midi": 64,
      "hit": false,
      "t": 16600.250000000022,
      "d": 660.5516145833353,
      "v": 59
    },
    {
      "midi": 67,
      "hit": false,
      "t": 16928.796614583352,
      "d": 55.33416666666744,
      "v": 65
    },
    {
      "midi": 71,
      "hit": false,
      "t": 16932.25500000002,
      "d": 51.87578125000073,
      "v": 65
    },
    {
      "midi": 67,
      "hit": false,
      "t": 16932.255000000023,
      "d": 51.87578125000073,
      "v": 59
    },
    {
      "midi": 71,
      "hit": false,
      "t": 16932.255000000023,
      "d": 79.54286458333445,
      "v": 63
    },
    {
      "midi": 83,
      "hit": false,
      "t": 17264.26000000002,
      "d": 162.5441145833356,
      "v": 65
    },
    {
      "midi": 76,
      "hit": false,
      "t": 17264.26000000002,
      "d": 217.87828125000306,
      "v": 57
    },
    {
      "midi": 59,
      "hit": false,
      "t": 17264.26000000002,
      "d": 688.2186979166727,
      "v": 53
    },
    {
      "midi": 83,
      "hit": false,
      "t": 17264.260000000024,
      "d": 190.2111979166657,
      "v": 55
    },
    {
      "midi": 76,
      "hit": false,
      "t": 17264.260000000024,
      "d": 217.87828124999942,
      "v": 51
    },
    {
      "midi": 59,
      "hit": false,
      "t": 17264.260000000024,
      "d": 715.8857812500028,
      "v": 47
    },
    {
      "midi": 67,
      "hit": false,
      "t": 17592.806614583358,
      "d": 249.00374999999985,
      "v": 53
    },
    {
      "midi": 67,
      "hit": false,
      "t": 17596.265000000025,
      "d": 245.54536458333314,
      "v": 51
    },
    {
      "midi": 71,
      "hit": false,
      "t": 17596.265000000025,
      "d": 356.213697916668,
      "v": 51
    },
    {
      "midi": 71,
      "hit": false,
      "t": 17596.265000000025,
      "d": 332.005000000001,
      "v": 53
    },
    {
      "midi": 79,
      "hit": false,
      "t": 17928.270000000026,
      "d": 332.005000000001,
      "v": 59
    },
    {
      "midi": 64,
      "hit": false,
      "t": 17928.270000000026,
      "d": 356.213697916668,
      "v": 55
    },
    {
      "midi": 76,
      "hit": false,
      "t": 17928.270000000026,
      "d": 356.213697916668,
      "v": 59
    },
    {
      "midi": 64,
      "hit": false,
      "t": 17928.270000000026,
      "d": 328.5466145833343,
      "v": 61
    },
    {
      "midi": 76,
      "hit": false,
      "t": 17928.270000000026,
      "d": 328.5466145833343,
      "v": 65
    },
    {
      "midi": 79,
      "hit": false,
      "t": 17928.270000000026,
      "d": 328.5466145833343,
      "v": 69
    },
    {
      "midi": 67,
      "hit": false,
      "t": 18260.275000000027,
      "d": 51.87578125000073,
      "v": 55
    },
    {
      "midi": 71,
      "hit": false,
      "t": 18260.275000000027,
      "d": 79.54286458333445,
      "v": 59
    },
    {
      "midi": 67,
      "hit": false,
      "t": 18260.275000000027,
      "d": 51.87578125000073,
      "v": 61
    },
    {
      "midi": 71,
      "hit": false,
      "t": 18260.275000000027,
      "d": 51.87578125000073,
      "v": 61
    },
    {
      "midi": 73,
      "hit": false,
      "t": 18592.280000000028,
      "d": 442.6733333333359,
      "v": 51
    },
    {
      "midi": 76,
      "hit": false,
      "t": 18592.280000000028,
      "d": 466.8820312500029,
      "v": 67
    },
    {
      "midi": 57,
      "hit": false,
      "t": 18592.280000000028,
      "d": 688.218697916669,
      "v": 55
    },
    {
      "midi": 73,
      "hit": false,
      "t": 18592.280000000028,
      "d": 439.2149479166692,
      "v": 57
    },
    {
      "midi": 76,
      "hit": false,
      "t": 18592.280000000028,
      "d": 439.2149479166692,
      "v": 73
    },
    {
      "midi": 57,
      "hit": false,
      "t": 18592.280000000028,
      "d": 688.218697916669,
      "v": 57
    },
    {
      "midi": 64,
      "hit": false,
      "t": 18920.826614583362,
      "d": 304.3379166666673,
      "v": 61
    },
    {
      "midi": 64,
      "hit": false,
      "t": 18924.28500000003,
      "d": 328.5466145833343,
      "v": 59
    },
    {
      "midi": 69,
      "hit": false,
      "t": 18924.28500000003,
      "d": 359.67208333333474,
      "v": 59
    },
    {
      "midi": 69,
      "hit": false,
      "t": 18924.28500000003,
      "d": 328.5466145833343,
      "v": 61
    },
    {
      "midi": 61,
      "hit": false,
      "t": 19252.831614583363,
      "d": 691.6770833333358,
      "v": 49
    },
    {
      "midi": 73,
      "hit": false,
      "t": 19256.29000000003,
      "d": 415.0062500000022,
      "v": 55
    },
    {
      "midi": 76,
      "hit": false,
      "t": 19256.29000000003,
      "d": 418.4646354166689,
      "v": 59
    },
    {
      "midi": 61,
      "hit": false,
      "t": 19256.29000000003,
      "d": 691.6770833333358,
      "v": 43
    },
    {
      "midi": 76,
      "hit": false,
      "t": 19256.29000000003,
      "d": 387.33916666666846,
      "v": 65
    },
    {
      "midi": 73,
      "hit": false,
      "t": 19256.29000000003,
      "d": 415.0062500000022,
      "v": 57
    },
    {
      "midi": 64,
      "hit": false,
      "t": 19584.836614583364,
      "d": 58.79255208333416,
      "v": 61
    },
    {
      "midi": 69,
      "hit": false,
      "t": 19584.836614583364,
      "d": 58.79255208333416,
      "v": 65
    },
    {
      "midi": 64,
      "hit": false,
      "t": 19588.29500000003,
      "d": 55.33416666666744,
      "v": 59
    },
    {
      "midi": 69,
      "hit": false,
      "t": 19588.29500000003,
      "d": 86.45963541666788,
      "v": 59
    },
    {
      "midi": 81,
      "hit": false,
      "t": 19920.300000000032,
      "d": 193.6695833333324,
      "v": 65
    },
    {
      "midi": 76,
      "hit": false,
      "t": 19920.300000000032,
      "d": 221.33666666666613,
      "v": 65
    },
    {
      "midi": 57,
      "hit": false,
      "t": 19920.300000000032,
      "d": 660.5516145833353,
      "v": 57
    },
    {
      "midi": 81,
      "hit": false,
      "t": 19923.7583854167,
      "d": 190.2111979166657,
      "v": 63
    },
    {
      "midi": 76,
      "hit": false,
      "t": 19923.7583854167,
      "d": 217.87828124999942,
      "v": 63
    },
    {
      "midi": 57,
      "hit": false,
      "t": 19923.7583854167,
      "d": 660.5516145833353,
      "v": 51
    },
    {
      "midi": 64,
      "hit": false,
      "t": 20248.846614583366,
      "d": 307.796302083334,
      "v": 63
    },
    {
      "midi": 64,
      "hit": false,
      "t": 20248.846614583366,
      "d": 304.3379166666673,
      "v": 65
    },
    {
      "midi": 69,
      "hit": false,
      "t": 20248.846614583366,
      "d": 335.46338541666773,
      "v": 65
    },
    {
      "midi": 69,
      "hit": false,
      "t": 20252.305000000033,
      "d": 359.67208333333474,
      "v": 63
    },
    {
      "midi": 61,
      "hit": false,
      "t": 20584.310000000034,
      "d": 415.0062500000022,
      "v": 47
    },
    {
      "midi": 73,
      "hit": false,
      "t": 20584.310000000034,
      "d": 415.0062500000022,
      "v": 55
    },
    {
      "midi": 76,
      "hit": false,
      "t": 20584.310000000034,
      "d": 439.2149479166692,
      "v": 59
    },
    {
      "midi": 61,
      "hit": false,
      "t": 20584.310000000034,
      "d": 411.54786458333547,
      "v": 53
    },
    {
      "midi": 73,
      "hit": false,
      "t": 20584.310000000034,
      "d": 411.54786458333547,
      "v": 57
    },
    {
      "midi": 76,
      "hit": false,
      "t": 20584.310000000034,
      "d": 411.54786458333547,
      "v": 65
    },
    {
      "midi": 64,
      "hit": false,
      "t": 20916.315000000035,
      "d": 83.00125000000116,
      "v": 47
    },
    {
      "midi": 64,
      "hit": false,
      "t": 20916.315000000035,
      "d": 83.00125000000116,
      "v": 53
    },
    {
      "midi": 69,
      "hit": false,
      "t": 20916.315000000035,
      "d": 83.00125000000116,
      "v": 53
    },
    {
      "midi": 69,
      "hit": false,
      "t": 20919.7733854167,
      "d": 103.75156250000146,
      "v": 51
    },
    {
      "midi": 67,
      "hit": false,
      "t": 21244.86161458337,
      "d": 276.6708333333336,
      "v": 69
    },
    {
      "midi": 52,
      "hit": false,
      "t": 21244.86161458337,
      "d": 691.6770833333358,
      "v": 53
    },
    {
      "midi": 67,
      "hit": false,
      "t": 21248.320000000036,
      "d": 273.21244791666686,
      "v": 63
    },
    {
      "midi": 71,
      "hit": false,
      "t": 21248.320000000036,
      "d": 328.5466145833343,
      "v": 67
    },
    {
      "midi": 52,
      "hit": false,
      "t": 21248.320000000036,
      "d": 691.6770833333358,
      "v": 51
    },
    {
      "midi": 71,
      "hit": false,
      "t": 21248.320000000036,
      "d": 328.5466145833343,
      "v": 69
    },
    {
      "midi": 62,
      "hit": false,
      "t": 21576.86661458337,
      "d": 276.6708333333336,
      "v": 65
    },
    {
      "midi": 62,
      "hit": false,
      "t": 21580.325000000037,
      "d": 273.21244791666686,
      "v": 63
    },
    {
      "midi": 67,
      "hit": false,
      "t": 21580.325000000037,
      "d": 359.67208333333474,
      "v": 63
    },
    {
      "midi": 67,
      "hit": false,
      "t": 21580.325000000037,
      "d": 359.67208333333474,
      "v": 65
    },
    {
      "midi": 59,
      "hit": false,
      "t": 21908.87161458337,
      "d": 415.0062500000022,
      "v": 65
    },
    {
      "midi": 71,
      "hit": false,
      "t": 21908.87161458337,
      "d": 418.4646354166689,
      "v": 65
    },
    {
      "midi": 59,
      "hit": false,
      "t": 21912.330000000038,
      "d": 418.4646354166689,
      "v": 63
    },
    {
      "midi": 71,
      "hit": false,
      "t": 21912.330000000038,
      "d": 442.6733333333359,
      "v": 63
    },
    {
      "midi": 74,
      "hit": false,
      "t": 21912.330000000038,
      "d": 439.2149479166692,
      "v": 69
    },
    {
      "midi": 74,
      "hit": false,
      "t": 21915.788385416705,
      "d": 439.2149479166692,
      "v": 67
    },
    {
      "midi": 62,
      "hit": false,
      "t": 22240.876614583372,
      "d": 83.00125000000116,
      "v": 69
    },
    {
      "midi": 67,
      "hit": false,
      "t": 22240.876614583372,
      "d": 83.00125000000116,
      "v": 65
    },
    {
      "midi": 62,
      "hit": false,
      "t": 22244.33500000004,
      "d": 79.54286458333445,
      "v": 63
    },
    {
      "midi": 67,
      "hit": false,
      "t": 22244.33500000004,
      "d": 83.00125000000116,
      "v": 63
    },
    {
      "midi": 76,
      "hit": false,
      "t": 22576.34000000004,
      "d": 411.54786458333547,
      "v": 73
    },
    {
      "midi": 73,
      "hit": false,
      "t": 22576.34000000004,
      "d": 439.2149479166692,
      "v": 69
    },
    {
      "midi": 57,
      "hit": false,
      "t": 22576.34000000004,
      "d": 688.218697916669,
      "v": 69
    },
    {
      "midi": 73,
      "hit": false,
      "t": 22579.798385416707,
      "d": 435.7565625000025,
      "v": 63
    },
    {
      "midi": 76,
      "hit": false,
      "t": 22579.798385416707,
      "d": 435.7565625000025,
      "v": 67
    },
    {
      "midi": 57,
      "hit": false,
      "t": 22579.798385416707,
      "d": 712.427395833336,
      "v": 63
    },
    {
      "midi": 64,
      "hit": false,
      "t": 22904.886614583374,
      "d": 55.33416666666744,
      "v": 69
    },
    {
      "midi": 64,
      "hit": false,
      "t": 22908.34500000004,
      "d": 79.54286458333445,
      "v": 67
    },
    {
      "midi": 69,
      "hit": false,
      "t": 22908.34500000004,
      "d": 83.00125000000116,
      "v": 63
    },
    {
      "midi": 69,
      "hit": false,
      "t": 22908.34500000004,
      "d": 79.54286458333445,
      "v": 69
    },
    {
      "midi": 73,
      "hit": false,
      "t": 23236.891614583375,
      "d": 276.6708333333336,
      "v": 69
    },
    {
      "midi": 81,
      "hit": false,
      "t": 23236.891614583375,
      "d": 359.67208333333474,
      "v": 69
    },
    {
      "midi": 61,
      "hit": false,
      "t": 23236.891614583375,
      "d": 446.1317187500026,
      "v": 61
    },
    {
      "midi": 73,
      "hit": false,
      "t": 23240.350000000042,
      "d": 276.6708333333336,
      "v": 59
    },
    {
      "midi": 81,
      "hit": false,
      "t": 23240.350000000042,
      "d": 356.213697916668,
      "v": 63
    },
    {
      "midi": 61,
      "hit": false,
      "t": 23240.350000000042,
      "d": 470.3404166666696,
      "v": 59
    },
    {
      "midi": 69,
      "hit": false,
      "t": 23568.896614583377,
      "d": 86.45963541666788,
      "v": 63
    },
    {
      "midi": 69,
      "hit": false,
      "t": 23568.896614583377,
      "d": 86.45963541666788,
      "v": 65
    },
    {
      "midi": 73,
      "hit": false,
      "t": 23568.896614583377,
      "d": 86.45963541666788,
      "v": 65
    },
    {
      "midi": 73,
      "hit": false,
      "t": 23572.355000000043,
      "d": 83.00125000000116,
      "v": 63
    },
    {
      "midi": 74,
      "hit": false,
      "t": 23900.901614583378,
      "d": 691.6770833333358,
      "v": 73
    },
    {
      "midi": 50,
      "hit": false,
      "t": 23900.901614583378,
      "d": 2493.495885416676,
      "v": 69
    },
    {
      "midi": 74,
      "hit": false,
      "t": 23904.360000000044,
      "d": 688.218697916669,
      "v": 63
    },
    {
      "midi": 78,
      "hit": false,
      "t": 23904.360000000044,
      "d": 1075.5578645833375,
      "v": 63
    },
    {
      "midi": 50,
      "hit": false,
      "t": 23904.360000000044,
      "d": 2490.0375000000095,
      "v": 67
    },
    {
      "midi": 78,
      "hit": false,
      "t": 23904.360000000044,
      "d": 1047.8907812500038,
      "v": 69
    },
    {
      "midi": 57,
      "hit": false,
      "t": 24236.365000000045,
      "d": 332.005000000001,
      "v": 59
    },
    {
      "midi": 66,
      "hit": false,
      "t": 24236.365000000045,
      "d": 332.005000000001,
      "v": 63
    },
    {
      "midi": 57,
      "hit": false,
      "t": 24236.365000000045,
      "d": 328.5466145833343,
      "v": 61
    },
    {
      "midi": 66,
      "hit": false,
      "t": 24236.365000000045,
      "d": 332.005000000001,
      "v": 65
    },
    {
      "midi": 54,
      "hit": false,
      "t": 24568.370000000046,
      "d": 688.218697916669,
      "v": 65
    },
    {
      "midi": 54,
      "hit": false,
      "t": 24571.828385416713,
      "d": 688.218697916669,
      "v": 59
    },
    {
      "midi": 69,
      "hit": false,
      "t": 24571.828385416713,
      "d": 688.218697916669,
      "v": 67
    },
    {
      "midi": 69,
      "hit": false,
      "t": 24571.828385416713,
      "d": 688.218697916669,
      "v": 69
    },
    {
      "midi": 57,
      "hit": false,
      "t": 24896.91661458338,
      "d": 332.005000000001,
      "v": 69
    },
    {
      "midi": 57,
      "hit": false,
      "t": 24900.375000000047,
      "d": 359.67208333333474,
      "v": 63
    },
    {
      "midi": 66,
      "hit": false,
      "t": 24900.375000000047,
      "d": 359.67208333333474,
      "v": 71
    },
    {
      "midi": 66,
      "hit": false,
      "t": 24900.375000000047,
      "d": 328.5466145833343,
      "v": 73
    },
    {
      "midi": 62,
      "hit": false,
      "t": 25228.92161458338,
      "d": 387.33916666666846,
      "v": 65
    },
    {
      "midi": 74,
      "hit": false,
      "t": 25228.92161458338,
      "d": 1137.8088020833384,
      "v": 69
    },
    {
      "midi": 62,
      "hit": false,
      "t": 25232.38000000005,
      "d": 387.33916666666846,
      "v": 59
    },
    {
      "midi": 74,
      "hit": false,
      "t": 25232.38000000005,
      "d": 1134.3504166666717,
      "v": 67
    },
    {
      "midi": 66,
      "hit": false,
      "t": 25560.926614583383,
      "d": 332.005000000001,
      "v": 57
    },
    {
      "midi": 54,
      "hit": false,
      "t": 25560.926614583383,
      "d": 805.8038020833374,
      "v": 57
    },
    {
      "midi": 66,
      "hit": false,
      "t": 25564.38500000005,
      "d": 356.213697916668,
      "v": 55
    },
    {
      "midi": 54,
      "hit": false,
      "t": 25564.38500000005,
      "d": 830.0125000000044,
      "v": 55
    },
    {
      "midi": 57,
      "hit": false,
      "t": 25892.931614583384,
      "d": 470.3404166666696,
      "v": 73
    },
    {
      "midi": 57,
      "hit": false,
      "t": 25896.39000000005,
      "d": 473.79880208333634,
      "v": 67
    },
    {
      "midi": 78,
      "hit": false,
      "t": 25896.39000000005,
      "d": 498.00750000000335,
      "v": 71
    },
    {
      "midi": 78,
      "hit": false,
      "t": 25896.39000000005,
      "d": 470.3404166666696,
      "v": 73
    },
    {
      "midi": 62,
      "hit": false,
      "t": 26228.39500000005,
      "d": 107.20994791666817,
      "v": 65
    },
    {
      "midi": 66,
      "hit": false,
      "t": 26231.853385416718,
      "d": 76.08447916666773,
      "v": 71
    },
    {
      "midi": 62,
      "hit": false,
      "t": 26231.853385416718,
      "d": 107.20994791666817,
      "v": 59
    },
    {
      "midi": 66,
      "hit": false,
      "t": 26231.853385416718,
      "d": 76.08447916666773,
      "v": 73
    },
    {
      "midi": 78,
      "hit": false,
      "t": 26556.941614583386,
      "d": 193.6695833333324,
      "v": 61
    },
    {
      "midi": 38,
      "hit": false,
      "t": 26556.941614583386,
      "d": 608.675833333331,
      "v": 73
    },
    {
      "midi": 81,
      "hit": false,
      "t": 26560.400000000052,
      "d": 166.0024999999987,
      "v": 75
    },
    {
      "midi": 78,
      "hit": false,
      "t": 26560.400000000052,
      "d": 217.87828124999942,
      "v": 59
    },
    {
      "midi": 38,
      "hit": false,
      "t": 26560.400000000052,
      "d": 632.8845312500016,
      "v": 71
    },
    {
      "midi": 81,
      "hit": false,
      "t": 26560.400000000052,
      "d": 162.54411458333198,
      "v": 77
    },
    {
      "midi": 45,
      "hit": false,
      "t": 26888.946614583383,
      "d": 335.46338541666773,
      "v": 61
    },
    {
      "midi": 66,
      "hit": false,
      "t": 26888.946614583383,
      "d": 335.46338541666773,
      "v": 65
    },
    {
      "midi": 69,
      "hit": false,
      "t": 26892.40500000005,
      "d": 359.67208333333474,
      "v": 73
    },
    {
      "midi": 66,
      "hit": false,
      "t": 26892.405000000053,
      "d": 332.005000000001,
      "v": 59
    },
    {
      "midi": 45,
      "hit": false,
      "t": 26892.405000000053,
      "d": 359.67208333333474,
      "v": 55
    },
    {
      "midi": 69,
      "hit": false,
      "t": 26892.405000000053,
      "d": 359.67208333333474,
      "v": 71
    },
    {
      "midi": 50,
      "hit": false,
      "t": 27224.41000000005,
      "d": 162.54411458333198,
      "v": 61
    },
    {
      "midi": 74,
      "hit": false,
      "t": 27224.41000000005,
      "d": 356.2136979166644,
      "v": 65
    },
    {
      "midi": 78,
      "hit": false,
      "t": 27227.868385416718,
      "d": 325.08822916666395,
      "v": 69
    },
    {
      "midi": 50,
      "hit": false,
      "t": 27227.86838541672,
      "d": 159.08572916666526,
      "v": 55
    },
    {
      "midi": 74,
      "hit": false,
      "t": 27227.86838541672,
      "d": 352.7553124999977,
      "v": 63
    },
    {
      "midi": 78,
      "hit": false,
      "t": 27227.86838541672,
      "d": 352.7553124999977,
      "v": 67
    },
    {
      "midi": 57,
      "hit": false,
      "t": 27552.95661458338,
      "d": 332.005000000001,
      "v": 69
    },
    {
      "midi": 66,
      "hit": false,
      "t": 27556.415000000048,
      "d": 332.005000000001,
      "v": 65
    },
    {
      "midi": 69,
      "hit": false,
      "t": 27556.415000000048,
      "d": 332.005000000001,
      "v": 69
    },
    {
      "midi": 57,
      "hit": false,
      "t": 27556.41500000005,
      "d": 332.005000000001,
      "v": 67
    },
    {
      "midi": 66,
      "hit": false,
      "t": 27556.41500000005,
      "d": 332.005000000001,
      "v": 63
    },
    {
      "midi": 69,
      "hit": false,
      "t": 27556.41500000005,
      "d": 356.213697916668,
      "v": 67
    },
    {
      "midi": 62,
      "hit": false,
      "t": 27888.42000000005,
      "d": 332.005000000001,
      "v": 65
    },
    {
      "midi": 74,
      "hit": false,
      "t": 27888.42000000005,
      "d": 383.88078125000175,
      "v": 65
    },
    {
      "midi": 78,
      "hit": false,
      "t": 27888.42000000005,
      "d": 383.88078125000175,
      "v": 69
    },
    {
      "midi": 62,
      "hit": false,
      "t": 27888.420000000053,
      "d": 332.005000000001,
      "v": 59
    },
    {
      "midi": 74,
      "hit": false,
      "t": 27888.420000000053,
      "d": 383.88078125000175,
      "v": 63
    },
    {
      "midi": 78,
      "hit": false,
      "t": 27888.420000000053,
      "d": 387.33916666666846,
      "v": 67
    },
    {
      "midi": 66,
      "hit": false,
      "t": 28223.883385416717,
      "d": 48.41739583333401,
      "v": 73
    },
    {
      "midi": 69,
      "hit": false,
      "t": 28223.883385416717,
      "d": 51.87578125000073,
      "v": 73
    },
    {
      "midi": 54,
      "hit": false,
      "t": 28223.883385416717,
      "d": 767.7615624999999,
      "v": 69
    },
    {
      "midi": 54,
      "hit": false,
      "t": 28223.88338541672,
      "d": 771.2199479166666,
      "v": 67
    },
    {
      "midi": 66,
      "hit": false,
      "t": 28227.341770833387,
      "d": 48.41739583333401,
      "v": 67
    },
    {
      "midi": 69,
      "hit": false,
      "t": 28227.341770833387,
      "d": 48.41739583333401,
      "v": 67
    },
    {
      "midi": 57,
      "hit": false,
      "t": 28548.971614583385,
      "d": 415.00624999999854,
      "v": 65
    },
    {
      "midi": 83,
      "hit": false,
      "t": 28552.43000000005,
      "d": 138.33541666666497,
      "v": 73
    },
    {
      "midi": 78,
      "hit": false,
      "t": 28552.43000000005,
      "d": 166.0024999999987,
      "v": 69
    },
    {
      "midi": 83,
      "hit": false,
      "t": 28552.430000000055,
      "d": 138.33541666666497,
      "v": 63
    },
    {
      "midi": 78,
      "hit": false,
      "t": 28552.430000000055,
      "d": 166.0024999999987,
      "v": 59
    },
    {
      "midi": 57,
      "hit": false,
      "t": 28552.430000000055,
      "d": 442.67333333333227,
      "v": 63
    },
    {
      "midi": 62,
      "hit": false,
      "t": 28880.976614583382,
      "d": 110.66833333333489,
      "v": 61
    },
    {
      "midi": 66,
      "hit": false,
      "t": 28884.43500000005,
      "d": 83.00125000000116,
      "v": 73
    },
    {
      "midi": 69,
      "hit": false,
      "t": 28884.43500000005,
      "d": 83.00125000000116,
      "v": 81
    },
    {
      "midi": 66,
      "hit": false,
      "t": 28884.435000000052,
      "d": 83.00125000000116,
      "v": 67
    },
    {
      "midi": 62,
      "hit": false,
      "t": 28884.435000000052,
      "d": 110.66833333333489,
      "v": 59
    },
    {
      "midi": 69,
      "hit": false,
      "t": 28884.435000000052,
      "d": 114.1267187500016,
      "v": 75
    },
    {
      "midi": 42,
      "hit": false,
      "t": 29216.44000000005,
      "d": 190.21119791666933,
      "v": 77
    },
    {
      "midi": 81,
      "hit": false,
      "t": 29216.44000000005,
      "d": 996.015000000003,
      "v": 81
    },
    {
      "midi": 42,
      "hit": false,
      "t": 29216.440000000053,
      "d": 190.21119791666933,
      "v": 75
    },
    {
      "midi": 81,
      "hit": false,
      "t": 29219.89838541672,
      "d": 992.5566145833363,
      "v": 71
    },
    {
      "midi": 61,
      "hit": false,
      "t": 29544.986614583384,
      "d": 332.005000000001,
      "v": 69
    },
    {
      "midi": 69,
      "hit": false,
      "t": 29544.986614583384,
      "d": 332.005000000001,
      "v": 77
    },
    {
      "midi": 61,
      "hit": false,
      "t": 29544.986614583388,
      "d": 359.67208333333474,
      "v": 67
    },
    {
      "midi": 69,
      "hit": false,
      "t": 29548.445000000054,
      "d": 332.005000000001,
      "v": 75
    },
    {
      "midi": 57,
      "hit": false,
      "t": 29880.45000000005,
      "d": 300.8795312500006,
      "v": 73
    },
    {
      "midi": 73,
      "hit": false,
      "t": 29880.45000000005,
      "d": 522.2161979166667,
      "v": 69
    },
    {
      "midi": 57,
      "hit": false,
      "t": 29880.450000000055,
      "d": 332.005000000001,
      "v": 67
    },
    {
      "midi": 73,
      "hit": false,
      "t": 29883.908385416722,
      "d": 522.2161979166667,
      "v": 63
    },
    {
      "midi": 69,
      "hit": false,
      "t": 30212.455000000053,
      "d": 328.54661458333067,
      "v": 73
    },
    {
      "midi": 61,
      "hit": false,
      "t": 30212.455000000053,
      "d": 356.2136979166644,
      "v": 61
    },
    {
      "midi": 61,
      "hit": false,
      "t": 30212.455000000056,
      "d": 359.6720833333311,
      "v": 59
    },
    {
      "midi": 69,
      "hit": false,
      "t": 30215.913385416723,
      "d": 356.2136979166644,
      "v": 71
    },
    {
      "midi": 66,
      "hit": false,
      "t": 30541.001614583383,
      "d": 332.005000000001,
      "v": 69
    },
    {
      "midi": 78,
      "hit": false,
      "t": 30541.001614583383,
      "d": 1106.683333333338,
      "v": 69
    },
    {
      "midi": 66,
      "hit": false,
      "t": 30544.460000000054,
      "d": 356.213697916668,
      "v": 63
    },
    {
      "midi": 78,
      "hit": false,
      "t": 30544.460000000054,
      "d": 1106.683333333338,
      "v": 67
    },
    {
      "midi": 69,
      "hit": false,
      "t": 30873.006614583384,
      "d": 335.46338541666773,
      "v": 77
    },
    {
      "midi": 57,
      "hit": false,
      "t": 30873.006614583384,
      "d": 363.13046875000146,
      "v": 69
    },
    {
      "midi": 69,
      "hit": false,
      "t": 30876.465000000055,
      "d": 332.005000000001,
      "v": 75
    },
    {
      "midi": 57,
      "hit": false,
      "t": 30876.465000000055,
      "d": 383.88078125000175,
      "v": 63
    },
    {
      "midi": 61,
      "hit": false,
      "t": 31211.92838541672,
      "d": 352.7553125000013,
      "v": 61
    },
    {
      "midi": 81,
      "hit": false,
      "t": 31211.92838541672,
      "d": 463.4236458333362,
      "v": 77
    },
    {
      "midi": 61,
      "hit": false,
      "t": 31211.928385416722,
      "d": 352.7553125000013,
      "v": 59
    },
    {
      "midi": 81,
      "hit": false,
      "t": 31211.928385416722,
      "d": 466.8820312500029,
      "v": 71
    },
    {
      "midi": 54,
      "hit": false,
      "t": 31537.016614583386,
      "d": 110.66833333333489,
      "v": 73
    },
    {
      "midi": 69,
      "hit": false,
      "t": 31540.475000000053,
      "d": 79.54286458333445,
      "v": 73
    },
    {
      "midi": 69,
      "hit": false,
      "t": 31540.475000000057,
      "d": 83.00125000000116,
      "v": 71
    },
    {
      "midi": 54,
      "hit": false,
      "t": 31540.475000000057,
      "d": 110.66833333333489,
      "v": 71
    },
    {
      "midi": 35,
      "hit": false,
      "t": 31872.480000000054,
      "d": 134.8770312500019,
      "v": 69
    },
    {
      "midi": 81,
      "hit": false,
      "t": 31872.480000000054,
      "d": 387.33916666666846,
      "v": 81
    },
    {
      "midi": 35,
      "hit": false,
      "t": 31872.480000000058,
      "d": 162.5441145833356,
      "v": 63
    },
    {
      "midi": 81,
      "hit": false,
      "t": 31875.938385416724,
      "d": 383.88078125000175,
      "v": 79
    },
    {
      "midi": 69,
      "hit": false,
      "t": 32201.02661458339,
      "d": 332.005000000001,
      "v": 77
    },
    {
      "midi": 47,
      "hit": false,
      "t": 32201.02661458339,
      "d": 664.010000000002,
      "v": 69
    },
    {
      "midi": 69,
      "hit": false,
      "t": 32201.026614583392,
      "d": 359.67208333333474,
      "v": 75
    },
    {
      "midi": 47,
      "hit": false,
      "t": 32201.026614583392,
      "d": 664.0099999999984,
      "v": 63
    },
    {
      "midi": 54,
      "hit": false,
      "t": 32536.490000000056,
      "d": 328.5466145833343,
      "v": 77
    },
    {
      "midi": 75,
      "hit": false,
      "t": 32536.490000000056,
      "d": 691.6770833333285,
      "v": 77
    },
    {
      "midi": 54,
      "hit": false,
      "t": 32536.49000000006,
      "d": 356.2136979166571,
      "v": 71
    },
    {
      "midi": 75,
      "hit": false,
      "t": 32536.49000000006,
      "d": 691.6770833333248,
      "v": 71
    },
    {
      "midi": 69,
      "hit": false,
      "t": 32868.49500000005,
      "d": 332.0049999999974,
      "v": 79
    },
    {
      "midi": 57,
      "hit": false,
      "t": 32868.49500000005,
      "d": 359.6720833333311,
      "v": 67
    },
    {
      "midi": 69,
      "hit": false,
      "t": 32868.49500000005,
      "d": 332.0049999999974,
      "v": 85
    },
    {
      "midi": 57,
      "hit": false,
      "t": 32868.49500000005,
      "d": 359.6720833333311,
      "v": 73
    },
    {
      "midi": 79,
      "hit": false,
      "t": 33200.50000000005,
      "d": 411.5478645833282,
      "v": 63
    },
    {
      "midi": 59,
      "hit": false,
      "t": 33200.50000000005,
      "d": 664.0099999999948,
      "v": 63
    },
    {
      "midi": 79,
      "hit": false,
      "t": 33200.50000000005,
      "d": 383.88078125000175,
      "v": 85
    },
    {
      "midi": 59,
      "hit": false,
      "t": 33200.50000000005,
      "d": 664.010000000002,
      "v": 65
    },
    {
      "midi": 69,
      "hit": false,
      "t": 33529.046614583385,
      "d": 332.00500000000466,
      "v": 61
    },
    {
      "midi": 69,
      "hit": false,
      "t": 33532.50500000005,
      "d": 356.21369791666075,
      "v": 59
    },
    {
      "midi": 63,
      "hit": false,
      "t": 33864.51000000005,
      "d": 328.546614583327,
      "v": 57
    },
    {
      "midi": 63,
      "hit": false,
      "t": 33867.96838541671,
      "d": 352.7553124999904,
      "v": 55
    },
    {
      "midi": 78,
      "hit": false,
      "t": 33867.96838541671,
      "d": 356.2136979166535,
      "v": 63
    },
    {
      "midi": 78,
      "hit": false,
      "t": 33867.968385416716,
      "d": 352.7553124999904,
      "v": 69
    },
    {
      "midi": 66,
      "hit": false,
      "t": 34193.05661458338,
      "d": 86.45963541665697,
      "v": 53
    },
    {
      "midi": 66,
      "hit": false,
      "t": 34196.515000000036,
      "d": 83.00124999999389,
      "v": 51
    },
    {
      "midi": 81,
      "hit": false,
      "t": 34196.515000000036,
      "d": 83.00124999999389,
      "v": 59
    },
    {
      "midi": 81,
      "hit": false,
      "t": 34196.51500000004,
      "d": 83.00124999999389,
      "v": 65
    },
    {
      "midi": 40,
      "hit": false,
      "t": 34528.52000000003,
      "d": 356.213697916668,
      "v": 55
    },
    {
      "midi": 71,
      "hit": false,
      "t": 34528.52000000003,
      "d": 660.5516145833317,
      "v": 63
    },
    {
      "midi": 40,
      "hit": false,
      "t": 34528.52000000003,
      "d": 356.21369791666075,
      "v": 57
    },
    {
      "midi": 71,
      "hit": false,
      "t": 34528.52000000003,
      "d": 660.5516145833244,
      "v": 65
    },
    {
      "midi": 47,
      "hit": false,
      "t": 34857.06661458336,
      "d": 335.46338541666046,
      "v": 65
    },
    {
      "midi": 47,
      "hit": false,
      "t": 34857.06661458337,
      "d": 335.46338541666046,
      "v": 63
    },
    {
      "midi": 52,
      "hit": false,
      "t": 35192.53000000002,
      "d": 107.20994791666453,
      "v": 57
    },
    {
      "midi": 76,
      "hit": false,
      "t": 35192.53000000002,
      "d": 1549.356666666652,
      "v": 77
    },
    {
      "midi": 52,
      "hit": false,
      "t": 35192.53000000003,
      "d": 107.20994791666453,
      "v": 55
    },
    {
      "midi": 76,
      "hit": false,
      "t": 35192.53000000003,
      "d": 1577.023749999993,
      "v": 63
    },
    {
      "midi": 55,
      "hit": false,
      "t": 35524.53500000002,
      "d": 356.21369791666075,
      "v": 73
    },
    {
      "midi": 55,
      "hit": false,
      "t": 35524.535000000025,
      "d": 356.21369791666075,
      "v": 67
    },
    {
      "midi": 59,
      "hit": false,
      "t": 35853.08161458335,
      "d": 916.472135416654,
      "v": 69
    },
    {
      "midi": 79,
      "hit": false,
      "t": 35856.540000000015,
      "d": 913.013749999991,
      "v": 73
    },
    {
      "midi": 59,
      "hit": false,
      "t": 35856.54000000002,
      "d": 916.4721354166613,
      "v": 67
    },
    {
      "midi": 79,
      "hit": false,
      "t": 35856.54000000002,
      "d": 940.6808333333247,
      "v": 63
    },
    {
      "midi": 71,
      "hit": false,
      "t": 36185.08661458334,
      "d": 529.1329687499965,
      "v": 65
    },
    {
      "midi": 64,
      "hit": false,
      "t": 36185.08661458334,
      "d": 556.8000520833302,
      "v": 69
    },
    {
      "midi": 71,
      "hit": false,
      "t": 36188.54500000002,
      "d": 553.3416666666672,
      "v": 51
    },
    {
      "midi": 64,
      "hit": false,
      "t": 36188.54500000002,
      "d": 584.467135416664,
      "v": 63
    },
    {
      "midi": 52,
      "hit": false,
      "t": 36517.09161458334,
      "d": 255.92052083332965,
      "v": 61
    },
    {
      "midi": 83,
      "hit": false,
      "t": 36520.55,
      "d": 255.92052083332965,
      "v": 69
    },
    {
      "midi": 52,
      "hit": false,
      "t": 36520.55000000002,
      "d": 276.67083333332994,
      "v": 55
    },
    {
      "midi": 83,
      "hit": false,
      "t": 36520.55000000002,
      "d": 276.67083333332994,
      "v": 55
    },
    {
      "midi": 58,
      "hit": false,
      "t": 37125.76744791667,
      "d": 857.6795833333308,
      "v": 69
    },
    {
      "midi": 58,
      "hit": false,
      "t": 37153.434531250015,
      "d": 830.0124999999898,
      "v": 59
    },
    {
      "midi": 64,
      "hit": false,
      "t": 37181.101614583335,
      "d": 830.0124999999898,
      "v": 77
    },
    {
      "midi": 64,
      "hit": false,
      "t": 37181.10161458335,
      "d": 830.0124999999898,
      "v": 71
    },
    {
      "midi": 70,
      "hit": false,
      "t": 37208.76869791667,
      "d": 747.0112499999959,
      "v": 57
    },
    {
      "midi": 70,
      "hit": false,
      "t": 37212.227083333346,
      "d": 743.5528645833256,
      "v": 51
    },
    {
      "midi": 76,
      "hit": false,
      "t": 37236.43578125,
      "d": 774.6783333333224,
      "v": 73
    },
    {
      "midi": 76,
      "hit": false,
      "t": 37236.43578125001,
      "d": 778.1367187499927,
      "v": 63
    },
    {
      "midi": 81,
      "hit": false,
      "t": 37267.56125,
      "d": 328.5466145833343,
      "v": 73
    },
    {
      "midi": 81,
      "hit": false,
      "t": 37295.22833333334,
      "d": 300.8795312500006,
      "v": 67
    },
    {
      "midi": 79,
      "hit": false,
      "t": 37568.44078125,
      "d": 418.4646354166616,
      "v": 65
    },
    {
      "midi": 79,
      "hit": false,
      "t": 37596.10786458334,
      "d": 418.4646354166616,
      "v": 59
    },
    {
      "midi": 58,
      "hit": false,
      "t": 38370.786197916656,
      "d": 1414.4796354166538,
      "v": 53
    },
    {
      "midi": 61,
      "hit": false,
      "t": 38370.786197916656,
      "d": 1414.4796354166538,
      "v": 41
    },
    {
      "midi": 58,
      "hit": false,
      "t": 38370.78619791667,
      "d": 1414.479635416661,
      "v": 43
    },
    {
      "midi": 61,
      "hit": false,
      "t": 38398.453281250004,
      "d": 1386.8125520833273,
      "v": 31
    },
    {
      "midi": 64,
      "hit": false,
      "t": 38426.12036458332,
      "d": 1331.4783854166526,
      "v": 65
    },
    {
      "midi": 64,
      "hit": false,
      "t": 38426.12036458334,
      "d": 1359.1454687499936,
      "v": 59
    },
    {
      "midi": 67,
      "hit": false,
      "t": 38453.78744791666,
      "d": 1303.8113020833189,
      "v": 65
    },
    {
      "midi": 73,
      "hit": false,
      "t": 38457.24583333332,
      "d": 1269.227447916659,
      "v": 57
    },
    {
      "midi": 67,
      "hit": false,
      "t": 38457.245833333334,
      "d": 1328.0199999999968,
      "v": 59
    },
    {
      "midi": 73,
      "hit": false,
      "t": 38481.45453125,
      "d": 1276.1442187499997,
      "v": 51
    },
    {
      "midi": 76,
      "hit": false,
      "t": 38509.12161458332,
      "d": 1248.4771354166587,
      "v": 65
    },
    {
      "midi": 76,
      "hit": false,
      "t": 38512.579999999994,
      "d": 1245.018750000003,
      "v": 55
    },
    {
      "midi": 79,
      "hit": false,
      "t": 38540.247083333314,
      "d": 1217.351666666662,
      "v": 65
    },
    {
      "midi": 79,
      "hit": false,
      "t": 38540.24708333333,
      "d": 1245.018750000003,
      "v": 59
    },
    {
      "midi": 82,
      "hit": false,
      "t": 38567.91416666665,
      "d": 1189.6845833333282,
      "v": 73
    },
    {
      "midi": 82,
      "hit": false,
      "t": 38567.91416666666,
      "d": 1189.6845833333355,
      "v": 67
    },
    {
      "midi": 57,
      "hit": false,
      "t": 39729.93166666664,
      "d": 885.3466666666645,
      "v": 57
    },
    {
      "midi": 57,
      "hit": false,
      "t": 39729.931666666664,
      "d": 888.8050520833276,
      "v": 51
    },
    {
      "midi": 62,
      "hit": false,
      "t": 39785.26583333331,
      "d": 802.3454166666706,
      "v": 65
    },
    {
      "midi": 69,
      "hit": false,
      "t": 39785.26583333331,
      "d": 802.3454166666706,
      "v": 65
    },
    {
      "midi": 62,
      "hit": false,
      "t": 39785.26583333333,
      "d": 802.3454166666634,
      "v": 59
    },
    {
      "midi": 69,
      "hit": false,
      "t": 39785.26583333333,
      "d": 802.3454166666634,
      "v": 55
    },
    {
      "midi": 74,
      "hit": false,
      "t": 39812.93291666664,
      "d": 798.8870312500003,
      "v": 61
    },
    {
      "midi": 74,
      "hit": false,
      "t": 39837.14161458333,
      "d": 778.13671875,
      "v": 51
    },
    {
      "midi": 78,
      "hit": false,
      "t": 39864.80869791664,
      "d": 722.8025520833398,
      "v": 53
    },
    {
      "midi": 78,
      "hit": false,
      "t": 39864.80869791666,
      "d": 750.4696354166663,
      "v": 47
    },
    {
      "midi": 81,
      "hit": false,
      "t": 39892.475781249974,
      "d": 695.1354687500061,
      "v": 53
    },
    {
      "midi": 81,
      "hit": false,
      "t": 39895.93416666666,
      "d": 691.6770833333358,
      "v": 47
    },
    {
      "midi": 57,
      "hit": false,
      "t": 41026.82619791664,
      "d": 747.0112500000032,
      "v": 53
    },
    {
      "midi": 57,
      "hit": false,
      "t": 41054.49328124999,
      "d": 750.469635416659,
      "v": 51
    },
    {
      "midi": 61,
      "hit": false,
      "t": 41082.16036458331,
      "d": 639.8013020833387,
      "v": 61
    },
    {
      "midi": 69,
      "hit": false,
      "t": 41109.82744791664,
      "d": 636.3429166666683,
      "v": 73
    },
    {
      "midi": 61,
      "hit": false,
      "t": 41109.82744791666,
      "d": 612.1342187499977,
      "v": 55
    },
    {
      "midi": 69,
      "hit": false,
      "t": 41109.82744791666,
      "d": 636.342916666661,
      "v": 67
    },
    {
      "midi": 73,
      "hit": false,
      "t": 41137.49453124998,
      "d": 639.8013020833314,
      "v": 57
    },
    {
      "midi": 73,
      "hit": false,
      "t": 41137.49453124999,
      "d": 639.8013020833241,
      "v": 51
    },
    {
      "midi": 78,
      "hit": false,
      "t": 41192.828697916644,
      "d": 584.467135416664,
      "v": 53
    },
    {
      "midi": 78,
      "hit": false,
      "t": 41192.82869791666,
      "d": 612.1342187499904,
      "v": 51
    },
    {
      "midi": 81,
      "hit": false,
      "t": 41220.49578124998,
      "d": 584.467135416664,
      "v": 57
    },
    {
      "midi": 81,
      "hit": false,
      "t": 41223.954166666656,
      "d": 608.6758333333273,
      "v": 55
    },
    {
      "midi": 45,
      "hit": false,
      "t": 42330.637499999975,
      "d": 715.8857812499991,
      "v": 61
    },
    {
      "midi": 45,
      "hit": false,
      "t": 42354.846197916646,
      "d": 719.3441666666622,
      "v": 55
    },
    {
      "midi": 55,
      "hit": false,
      "t": 42382.51328124997,
      "d": 667.4683854166651,
      "v": 65
    },
    {
      "midi": 55,
      "hit": false,
      "t": 42410.18036458331,
      "d": 664.0099999999948,
      "v": 59
    },
    {
      "midi": 64,
      "hit": false,
      "t": 42413.63874999997,
      "d": 605.2174479166715,
      "v": 65
    },
    {
      "midi": 64,
      "hit": false,
      "t": 42437.84744791665,
      "d": 581.0087500000009,
      "v": 63
    },
    {
      "midi": 71,
      "hit": false,
      "t": 42465.514531249966,
      "d": 584.4671354166712,
      "v": 61
    },
    {
      "midi": 71,
      "hit": false,
      "t": 42493.181614583315,
      "d": 556.8000520833302,
      "v": 59
    },
    {
      "midi": 79,
      "hit": false,
      "t": 42520.848697916634,
      "d": 556.8000520833375,
      "v": 73
    },
    {
      "midi": 79,
      "hit": false,
      "t": 42548.51578124998,
      "d": 529.1329687499892,
      "v": 71
    },
    {
      "midi": 45,
      "hit": false,
      "t": 43627.532031249975,
      "d": 719.3441666666768,
      "v": 57
    },
    {
      "midi": 45,
      "hit": false,
      "t": 43655.19911458331,
      "d": 695.1354687499988,
      "v": 55
    },
    {
      "midi": 57,
      "hit": false,
      "t": 43710.53328124998,
      "d": 639.8013020833314,
      "v": 47
    },
    {
      "midi": 57,
      "hit": false,
      "t": 43710.53328124998,
      "d": 639.8013020833387,
      "v": 49
    },
    {
      "midi": 61,
      "hit": false,
      "t": 43738.20036458331,
      "d": 581.0087500000009,
      "v": 47
    },
    {
      "midi": 61,
      "hit": false,
      "t": 43738.20036458331,
      "d": 581.0087500000081,
      "v": 53
    },
    {
      "midi": 69,
      "hit": false,
      "t": 43793.53453124998,
      "d": 556.8000520833302,
      "v": 47
    },
    {
      "midi": 69,
      "hit": false,
      "t": 43793.53453124998,
      "d": 556.8000520833375,
      "v": 53
    },
    {
      "midi": 73,
      "hit": false,
      "t": 43821.20161458331,
      "d": 529.1329687500038,
      "v": 57
    },
    {
      "midi": 73,
      "hit": false,
      "t": 43852.32708333331,
      "d": 522.2161979166631,
      "v": 51
    },
    {
      "midi": 76,
      "hit": false,
      "t": 43904.20286458331,
      "d": 473.79880208333634,
      "v": 65
    },
    {
      "midi": 76,
      "hit": false,
      "t": 43907.661249999976,
      "d": 470.3404166666587,
      "v": 63
    },
    {
      "midi": 38,
      "hit": false,
      "t": 45204.55578124998,
      "d": 581.0087500000009,
      "v": 69
    },
    {
      "midi": 38,
      "hit": false,
      "t": 45232.2228645833,
      "d": 553.3416666666672,
      "v": 63
    },
    {
      "midi": 45,
      "hit": false,
      "t": 45564.227864583314,
      "d": 280.1292187500003,
      "v": 57
    },
    {
      "midi": 45,
      "hit": false,
      "t": 45591.89494791663,
      "d": 276.67083333332994,
      "v": 51
    },
    {
      "midi": 50,
      "hit": false,
      "t": 45757.89744791665,
      "d": 4706.86255208333,
      "v": 65
    },
    {
      "midi": 50,
      "hit": false,
      "t": 45789.02291666663,
      "d": 4675.737083333326,
      "v": 59
    },
    {
      "midi": 57,
      "hit": false,
      "t": 45951.56703124998,
      "d": 387.3391666666648,
      "v": 53
    },
    {
      "midi": 62,
      "hit": false,
      "t": 45951.56703124998,
      "d": 446.13171874999534,
      "v": 57
    },
    {
      "midi": 57,
      "hit": false,
      "t": 45955.02541666663,
      "d": 383.88078125000175,
      "v": 51
    },
    {
      "midi": 62,
      "hit": false,
      "t": 45955.02541666663,
      "d": 470.340416666666,
      "v": 55
    },
    {
      "midi": 66,
      "hit": false,
      "t": 46117.56953124998,
      "d": 4347.190468749999,
      "v": 65
    },
    {
      "midi": 66,
      "hit": false,
      "t": 46121.02791666663,
      "d": 4343.732083333329,
      "v": 59
    },
    {
      "midi": 69,
      "hit": false,
      "t": 46314.697499999966,
      "d": 217.87828124999214,
      "v": 63
    },
    {
      "midi": 69,
      "hit": false,
      "t": 46314.69749999998,
      "d": 190.21119791665842,
      "v": 65
    },
    {
      "midi": 74,
      "hit": false,
      "t": 46480.699999999975,
      "d": 1103.2249479166712,
      "v": 61
    },
    {
      "midi": 74,
      "hit": false,
      "t": 46508.367083333294,
      "d": 1075.5578645833375,
      "v": 55
    },
    {
      "midi": 81,
      "hit": false,
      "t": 46753.91244791664,
      "d": 705.5106250000026,
      "v": 53
    },
    {
      "midi": 81,
      "hit": false,
      "t": 46781.57953124996,
      "d": 712.427395833336,
      "v": 47
    },
    {
      "midi": 38,
      "hit": false,
      "t": 47193.1273958333,
      "d": 2770.166718749999,
      "v": 43
    },
    {
      "midi": 86,
      "hit": false,
      "t": 47193.1273958333,
      "d": 2773.625104166662,
      "v": 51
    },
    {
      "midi": 86,
      "hit": false,
      "t": 47193.12739583331,
      "d": 3275.090989583332,
      "v": 57
    },
    {
      "midi": 62,
      "hit": false,
      "t": 82226.57166666664,
      "d": 909.5553645833279,
      "v": 69
    },
    {
      "midi": 62,
      "hit": false,
      "t": 82257.69713541663,
      "d": 878.4298958333384,
      "v": 47
    },
    {
      "midi": 79,
      "hit": false,
      "t": 82278.44744791664,
      "d": 805.8038020833337,
      "v": 61
    },
    {
      "midi": 79,
      "hit": false,
      "t": 82281.9058333333,
      "d": 826.5541145833413,
      "v": 39
    },
    {
      "midi": 82,
      "hit": false,
      "t": 82306.11453124997,
      "d": 833.4708854166674,
      "v": 61
    },
    {
      "midi": 82,
      "hit": false,
      "t": 82337.23999999996,
      "d": 802.3454166666779,
      "v": 39
    },
    {
      "midi": 88,
      "hit": false,
      "t": 82364.9070833333,
      "d": 781.5951041666704,
      "v": 35
    },
    {
      "midi": 88,
      "hit": false,
      "t": 82364.90708333331,
      "d": 774.6783333333296,
      "v": 57
    },
    {
      "midi": 91,
      "hit": false,
      "t": 82420.24124999996,
      "d": 691.677083333343,
      "v": 47
    },
    {
      "midi": 91,
      "hit": false,
      "t": 82420.24124999998,
      "d": 688.2186979166581,
      "v": 69
    },
    {
      "midi": 61,
      "hit": false,
      "t": 83551.13328124997,
      "d": 581.0087500000081,
      "v": 61
    },
    {
      "midi": 61,
      "hit": false,
      "t": 83554.59166666663,
      "d": 581.0087500000081,
      "v": 39
    },
    {
      "midi": 79,
      "hit": false,
      "t": 83582.25874999996,
      "d": 525.6745833333407,
      "v": 39
    },
    {
      "midi": 79,
      "hit": false,
      "t": 83582.25874999998,
      "d": 525.6745833333407,
      "v": 61
    },
    {
      "midi": 82,
      "hit": false,
      "t": 83609.92583333331,
      "d": 498.007500000007,
      "v": 65
    },
    {
      "midi": 82,
      "hit": false,
      "t": 83634.13453124996,
      "d": 477.25718750001397,
      "v": 43
    },
    {
      "midi": 88,
      "hit": false,
      "t": 83665.25999999997,
      "d": 498.007500000007,
      "v": 39
    },
    {
      "midi": 88,
      "hit": false,
      "t": 83665.25999999998,
      "d": 470.34041666667326,
      "v": 61
    },
    {
      "midi": 91,
      "hit": false,
      "t": 83692.9270833333,
      "d": 494.54911458333663,
      "v": 47
    },
    {
      "midi": 91,
      "hit": false,
      "t": 83692.92708333331,
      "d": 473.7988020833436,
      "v": 69
    },
    {
      "midi": 57,
      "hit": false,
      "t": 84882.61166666663,
      "d": 802.3454166666634,
      "v": 51
    },
    {
      "midi": 57,
      "hit": false,
      "t": 84882.61166666666,
      "d": 802.3454166666634,
      "v": 73
    },
    {
      "midi": 78,
      "hit": false,
      "t": 84910.27875,
      "d": 774.6783333333296,
      "v": 53
    },
    {
      "midi": 78,
      "hit": false,
      "t": 84934.48744791663,
      "d": 753.9280208333366,
      "v": 31
    },
    {
      "midi": 81,
      "hit": false,
      "t": 84937.94583333333,
      "d": 774.6783333333296,
      "v": 61
    },
    {
      "midi": 81,
      "hit": false,
      "t": 84962.15453124997,
      "d": 750.4696354166663,
      "v": 39
    },
    {
      "midi": 86,
      "hit": false,
      "t": 84993.27999999997,
      "d": 722.8025520833326,
      "v": 43
    },
    {
      "midi": 86,
      "hit": false,
      "t": 84993.28,
      "d": 722.8025520833326,
      "v": 65
    },
    {
      "midi": 90,
      "hit": false,
      "t": 85045.15578124997,
      "d": 643.2596875000017,
      "v": 39
    },
    {
      "midi": 90,
      "hit": false,
      "t": 85045.15578125,
      "d": 643.2596875000017,
      "v": 61
    },
    {
      "midi": 57,
      "hit": false,
      "t": 86207.17328125,
      "d": 553.3416666666744,
      "v": 69
    },
    {
      "midi": 57,
      "hit": false,
      "t": 86210.63166666664,
      "d": 577.5503645833232,
      "v": 47
    },
    {
      "midi": 78,
      "hit": false,
      "t": 86238.29874999997,
      "d": 411.5478645833209,
      "v": 47
    },
    {
      "midi": 78,
      "hit": false,
      "t": 86238.29875,
      "d": 411.54786458333547,
      "v": 69
    },
    {
      "midi": 81,
      "hit": false,
      "t": 86265.9658333333,
      "d": 415.00624999999127,
      "v": 43
    },
    {
      "midi": 81,
      "hit": false,
      "t": 86265.96583333334,
      "d": 415.0062500000058,
      "v": 65
    },
    {
      "midi": 85,
      "hit": false,
      "t": 86321.3,
      "d": 359.6720833333384,
      "v": 61
    },
    {
      "midi": 85,
      "hit": false,
      "t": 86324.75838541663,
      "d": 356.213697916668,
      "v": 39
    },
    {
      "midi": 90,
      "hit": false,
      "t": 86348.96708333334,
      "d": 332.00500000000466,
      "v": 69
    },
    {
      "midi": 90,
      "hit": false,
      "t": 86373.17578124996,
      "d": 311.25468750001164,
      "v": 47
    },
    {
      "midi": 64,
      "hit": false,
      "t": 87510.9845833333,
      "d": 913.0137499999837,
      "v": 51
    },
    {
      "midi": 64,
      "hit": false,
      "t": 87510.98458333334,
      "d": 913.0137499999983,
      "v": 73
    },
    {
      "midi": 74,
      "hit": false,
      "t": 87562.86036458334,
      "d": 750.4696354166663,
      "v": 65
    },
    {
      "midi": 74,
      "hit": false,
      "t": 87566.31874999996,
      "d": 747.0112499999959,
      "v": 43
    },
    {
      "midi": 79,
      "hit": false,
      "t": 87618.19453125,
      "d": 719.3441666666622,
      "v": 61
    },
    {
      "midi": 79,
      "hit": false,
      "t": 87621.65291666663,
      "d": 743.552864583311,
      "v": 39
    },
    {
      "midi": 83,
      "hit": false,
      "t": 87645.8616145833,
      "d": 695.1354687499843,
      "v": 43
    },
    {
      "midi": 83,
      "hit": false,
      "t": 87645.86161458334,
      "d": 695.1354687499988,
      "v": 65
    },
    {
      "midi": 88,
      "hit": false,
      "t": 87701.19578125,
      "d": 612.1342187499977,
      "v": 73
    },
    {
      "midi": 88,
      "hit": false,
      "t": 87728.8628645833,
      "d": 591.3839062499901,
      "v": 51
    },
    {
      "midi": 57,
      "hit": false,
      "t": 88866.67166666662,
      "d": 747.0112499999959,
      "v": 51
    },
    {
      "midi": 57,
      "hit": false,
      "t": 88866.67166666668,
      "d": 743.5528645833256,
      "v": 73
    },
    {
      "midi": 73,
      "hit": false,
      "t": 88894.33875000001,
      "d": 608.6758333333273,
      "v": 65
    },
    {
      "midi": 73,
      "hit": false,
      "t": 88922.00583333329,
      "d": 581.0087499999936,
      "v": 43
    },
    {
      "midi": 76,
      "hit": false,
      "t": 88925.46421875001,
      "d": 577.5503645833232,
      "v": 61
    },
    {
      "midi": 76,
      "hit": false,
      "t": 88946.21453124995,
      "d": 587.9255208333343,
      "v": 39
    },
    {
      "midi": 81,
      "hit": false,
      "t": 88973.88161458334,
      "d": 529.1329687499965,
      "v": 61
    },
    {
      "midi": 81,
      "hit": false,
      "t": 89005.00708333327,
      "d": 529.1329687500111,
      "v": 39
    },
    {
      "midi": 88,
      "hit": false,
      "t": 89036.13255208333,
      "d": 498.007500000007,
      "v": 69
    },
    {
      "midi": 88,
      "hit": false,
      "t": 89056.88286458327,
      "d": 477.25718750001397,
      "v": 47
    },
    {
      "midi": 57,
      "hit": false,
      "t": 90139.35749999995,
      "d": 802.3454166666634,
      "v": 51
    },
    {
      "midi": 57,
      "hit": false,
      "t": 90139.35750000001,
      "d": 798.8870312500076,
      "v": 73
    },
    {
      "midi": 62,
      "hit": false,
      "t": 90250.02583333329,
      "d": 691.6770833333285,
      "v": 39
    },
    {
      "midi": 62,
      "hit": false,
      "t": 90250.02583333335,
      "d": 660.551614583339,
      "v": 61
    },
    {
      "midi": 74,
      "hit": false,
      "t": 90277.69291666668,
      "d": 553.3416666666744,
      "v": 69
    },
    {
      "midi": 74,
      "hit": false,
      "t": 90305.35999999996,
      "d": 525.6745833333262,
      "v": 47
    },
    {
      "midi": 78,
      "hit": false,
      "t": 90305.35999999996,
      "d": 553.3416666666599,
      "v": 39
    },
    {
      "midi": 78,
      "hit": false,
      "t": 90305.36000000002,
      "d": 553.3416666666744,
      "v": 61
    },
    {
      "midi": 81,
      "hit": false,
      "t": 90360.69416666668,
      "d": 501.46588541667734,
      "v": 65
    },
    {
      "midi": 81,
      "hit": false,
      "t": 90388.36124999996,
      "d": 473.79880208332906,
      "v": 43
    },
    {
      "midi": 86,
      "hit": false,
      "t": 90416.02833333329,
      "d": 449.5901041666657,
      "v": 47
    },
    {
      "midi": 86,
      "hit": false,
      "t": 90416.02833333335,
      "d": 446.1317187500099,
      "v": 69
    },
    {
      "midi": 58,
      "hit": false,
      "t": 91605.71291666669,
      "d": 193.66958333333605,
      "v": 81
    },
    {
      "midi": 46,
      "hit": false,
      "t": 91605.71291666669,
      "d": 276.6708333333372,
      "v": 85
    },
    {
      "midi": 62,
      "hit": false,
      "t": 91744.04833333335,
      "d": 107.20994791666453,
      "v": 69
    },
    {
      "midi": 68,
      "hit": false,
      "t": 91827.04958333336,
      "d": 83.00125000000116,
      "v": 49
    },
    {
      "midi": 58,
      "hit": false,
      "t": 91854.71666666669,
      "d": 138.3354166666686,
      "v": 53
    },
    {
      "midi": 46,
      "hit": false,
      "t": 91937.71791666669,
      "d": 107.20994791666453,
      "v": 57
    },
    {
      "midi": 62,
      "hit": false,
      "t": 91937.71791666669,
      "d": 134.87703124999825,
      "v": 49
    },
    {
      "midi": 68,
      "hit": false,
      "t": 92017.26078125002,
      "d": 83.00125000000116,
      "v": 49
    },
    {
      "midi": 58,
      "hit": false,
      "t": 92044.92786458335,
      "d": 141.79380208333896,
      "v": 65
    },
    {
      "midi": 46,
      "hit": false,
      "t": 92127.92911458336,
      "d": 83.00125000000116,
      "v": 65
    },
    {
      "midi": 62,
      "hit": false,
      "t": 92127.92911458336,
      "d": 83.00125000000116,
      "v": 49
    },
    {
      "midi": 68,
      "hit": false,
      "t": 92186.7216666667,
      "d": 79.54286458333081,
      "v": 61
    },
    {
      "midi": 58,
      "hit": false,
      "t": 92238.59744791669,
      "d": 307.7963020833413,
      "v": 65
    },
    {
      "midi": 62,
      "hit": false,
      "t": 92269.7229166667,
      "d": 107.20994791666453,
      "v": 61
    },
    {
      "midi": 46,
      "hit": false,
      "t": 92328.51546875003,
      "d": 76.08447916666046,
      "v": 61
    },
    {
      "midi": 68,
      "hit": false,
      "t": 92349.26578125003,
      "d": 86.45963541667152,
      "v": 69
    },
    {
      "midi": 62,
      "hit": false,
      "t": 92435.7254166667,
      "d": 110.66833333333489,
      "v": 61
    },
    {
      "midi": 46,
      "hit": false,
      "t": 92491.05958333336,
      "d": 107.20994791666453,
      "v": 57
    },
    {
      "midi": 68,
      "hit": false,
      "t": 92491.05958333336,
      "d": 110.66833333333489,
      "v": 65
    },
    {
      "midi": 58,
      "hit": false,
      "t": 92601.7279166667,
      "d": 134.87703124999825,
      "v": 69
    },
    {
      "midi": 62,
      "hit": false,
      "t": 92629.39500000003,
      "d": 110.66833333333489,
      "v": 61
    },
    {
      "midi": 68,
      "hit": false,
      "t": 92688.18755208337,
      "d": 76.08447916666046,
      "v": 61
    },
    {
      "midi": 46,
      "hit": false,
      "t": 92688.18755208337,
      "d": 107.20994791666453,
      "v": 69
    },
    {
      "midi": 58,
      "hit": false,
      "t": 92795.39750000004,
      "d": 110.66833333333489,
      "v": 65
    },
    {
      "midi": 62,
      "hit": false,
      "t": 92795.39750000004,
      "d": 110.66833333333489,
      "v": 53
    },
    {
      "midi": 68,
      "hit": false,
      "t": 92847.27328125003,
      "d": 86.45963541667152,
      "v": 65
    },
    {
      "midi": 46,
      "hit": false,
      "t": 92850.7316666667,
      "d": 110.66833333333489,
      "v": 53
    },
    {
      "midi": 58,
      "hit": false,
      "t": 92961.40000000004,
      "d": 110.66833333333489,
      "v": 73
    },
    {
      "midi": 62,
      "hit": false,
      "t": 92961.40000000004,
      "d": 110.66833333333489,
      "v": 61
    },
    {
      "midi": 68,
      "hit": false,
      "t": 93013.27578125003,
      "d": 83.00125000000116,
      "v": 65
    },
    {
      "midi": 46,
      "hit": false,
      "t": 93016.7341666667,
      "d": 138.3354166666686,
      "v": 45
    },
    {
      "midi": 62,
      "hit": false,
      "t": 93127.40250000004,
      "d": 110.66833333333489,
      "v": 57
    },
    {
      "midi": 58,
      "hit": false,
      "t": 93155.06958333337,
      "d": 138.3354166666686,
      "v": 73
    },
    {
      "midi": 68,
      "hit": false,
      "t": 93179.27828125004,
      "d": 114.12671875000524,
      "v": 65
    },
    {
      "midi": 46,
      "hit": false,
      "t": 93238.07083333338,
      "d": 107.20994791666453,
      "v": 61
    },
    {
      "midi": 62,
      "hit": false,
      "t": 93296.86338541671,
      "d": 107.20994791666453,
      "v": 57
    },
    {
      "midi": 58,
      "hit": false,
      "t": 93321.07208333338,
      "d": 138.3354166666686,
      "v": 49
    },
    {
      "midi": 68,
      "hit": false,
      "t": 93376.40625000004,
      "d": 83.00125000000116,
      "v": 69
    },
    {
      "midi": 46,
      "hit": false,
      "t": 93407.53171875005,
      "d": 107.20994791666453,
      "v": 57
    },
    {
      "midi": 62,
      "hit": false,
      "t": 93487.07458333338,
      "d": 107.20994791666453,
      "v": 61
    },
    {
      "midi": 58,
      "hit": false,
      "t": 93514.74166666671,
      "d": 110.66833333333489,
      "v": 65
    },
    {
      "midi": 68,
      "hit": false,
      "t": 93542.40875000005,
      "d": 83.00125000000116,
      "v": 69
    },
    {
      "midi": 46,
      "hit": false,
      "t": 93594.28453125004,
      "d": 83.00125000000116,
      "v": 65
    },
    {
      "midi": 62,
      "hit": false,
      "t": 93653.07708333338,
      "d": 110.66833333333489,
      "v": 65
    },
    {
      "midi": 58,
      "hit": false,
      "t": 93677.28578125004,
      "d": 114.12671875000524,
      "v": 73
    },
    {
      "midi": 68,
      "hit": false,
      "t": 93704.95286458338,
      "d": 86.45963541667152,
      "v": 69
    },
    {
      "midi": 46,
      "hit": false,
      "t": 93732.61994791671,
      "d": 110.66833333333489,
      "v": 61
    },
    {
      "midi": 62,
      "hit": false,
      "t": 93815.62119791671,
      "d": 110.66833333333489,
      "v": 61
    },
    {
      "midi": 58,
      "hit": false,
      "t": 93846.74666666672,
      "d": 110.66833333333489,
      "v": 61
    },
    {
      "midi": 68,
      "hit": false,
      "t": 93870.95536458338,
      "d": 110.66833333333489,
      "v": 69
    },
    {
      "midi": 46,
      "hit": false,
      "t": 93902.08083333338,
      "d": 273.21244791666686,
      "v": 45
    },
    {
      "midi": 62,
      "hit": false,
      "t": 94009.29078125005,
      "d": 114.12671875000524,
      "v": 57
    },
    {
      "midi": 58,
      "hit": false,
      "t": 94009.29078125005,
      "d": 197.1279687500064,
      "v": 69
    },
    {
      "midi": 68,
      "hit": false,
      "t": 94040.41625000005,
      "d": 83.00125000000116,
      "v": 73
    },
    {
      "midi": 70,
      "hit": false,
      "t": 94296.33677083338,
      "d": 574.0919791666674,
      "v": 77
    },
    {
      "midi": 82,
      "hit": false,
      "t": 94296.33677083338,
      "d": 574.0919791666674,
      "v": 81
    },
    {
      "midi": 72,
      "hit": false,
      "t": 94960.34677083338,
      "d": 660.551614583339,
      "v": 73
    },
    {
      "midi": 84,
      "hit": false,
      "t": 94960.34677083338,
      "d": 664.0100000000093,
      "v": 77
    },
    {
      "midi": 74,
      "hit": false,
      "t": 95631.27354166671,
      "d": 318.1714583333378,
      "v": 73
    },
    {
      "midi": 86,
      "hit": false,
      "t": 95631.27354166671,
      "d": 318.1714583333378,
      "v": 73
    },
    {
      "midi": 75,
      "hit": false,
      "t": 95949.44500000005,
      "d": 332.00500000000466,
      "v": 69
    },
    {
      "midi": 87,
      "hit": false,
      "t": 95949.44500000005,
      "d": 332.00500000000466,
      "v": 69
    },
    {
      "midi": 72,
      "hit": false,
      "t": 96284.90838541673,
      "d": 325.08822916666395,
      "v": 69
    },
    {
      "midi": 84,
      "hit": false,
      "t": 96284.90838541673,
      "d": 328.5466145833343,
      "v": 77
    },
    {
      "midi": 67,
      "hit": false,
      "t": 96613.45500000006,
      "d": 335.46338541666046,
      "v": 65
    },
    {
      "midi": 79,
      "hit": false,
      "t": 96613.45500000006,
      "d": 338.9217708333308,
      "v": 73
    },
    {
      "midi": 70,
      "hit": false,
      "t": 96959.29354166672,
      "d": 650.1764583333279,
      "v": 73
    },
    {
      "midi": 82,
      "hit": false,
      "t": 96959.29354166672,
      "d": 650.1764583333279,
      "v": 73
    },
    {
      "midi": 72,
      "hit": false,
      "t": 97616.38677083337,
      "d": 657.0932291666686,
      "v": 73
    },
    {
      "midi": 84,
      "hit": false,
      "t": 97619.84515625004,
      "d": 657.0932291666686,
      "v": 77
    },
    {
      "midi": 74,
      "hit": false,
      "t": 98283.85515625004,
      "d": 321.62984375000815,
      "v": 73
    },
    {
      "midi": 86,
      "hit": false,
      "t": 98287.3135416667,
      "d": 318.1714583333378,
      "v": 73
    },
    {
      "midi": 75,
      "hit": false,
      "t": 98608.94338541671,
      "d": 328.5466145833343,
      "v": 65
    },
    {
      "midi": 87,
      "hit": false,
      "t": 98608.94338541671,
      "d": 328.5466145833343,
      "v": 69
    },
    {
      "midi": 84,
      "hit": false,
      "t": 98947.86515625005,
      "d": 297.42114583333023,
      "v": 77
    },
    {
      "midi": 72,
      "hit": false,
      "t": 98947.86515625005,
      "d": 321.6298437499936,
      "v": 65
    },
    {
      "midi": 79,
      "hit": false,
      "t": 99272.95338541671,
      "d": 245.54536458333314,
      "v": 81
    },
    {
      "midi": 67,
      "hit": false,
      "t": 99272.95338541671,
      "d": 273.21244791666686,
      "v": 73
    },
    {
      "midi": 70,
      "hit": false,
      "t": 99615.33354166671,
      "d": 650.1764583333279,
      "v": 69
    },
    {
      "midi": 82,
      "hit": false,
      "t": 99615.33354166671,
      "d": 650.1764583333279,
      "v": 77
    },
    {
      "midi": 72,
      "hit": false,
      "t": 100265.51000000004,
      "d": 664.0099999999948,
      "v": 73
    },
    {
      "midi": 84,
      "hit": false,
      "t": 100265.51000000004,
      "d": 664.0099999999948,
      "v": 77
    },
    {
      "midi": 74,
      "hit": false,
      "t": 100929.52000000003,
      "d": 664.0099999999948,
      "v": 77
    },
    {
      "midi": 86,
      "hit": false,
      "t": 100929.52000000003,
      "d": 664.0099999999948,
      "v": 73
    },
    {
      "midi": 75,
      "hit": false,
      "t": 101603.90515625002,
      "d": 653.6348437499983,
      "v": 73
    },
    {
      "midi": 87,
      "hit": false,
      "t": 101603.90515625002,
      "d": 657.0932291666686,
      "v": 73
    },
    {
      "midi": 72,
      "hit": false,
      "t": 102271.37354166669,
      "d": 978.7230729166622,
      "v": 69
    },
    {
      "midi": 84,
      "hit": false,
      "t": 102271.37354166669,
      "d": 982.1814583333326,
      "v": 77
    },
    {
      "midi": 79,
      "hit": false,
      "t": 103253.55500000002,
      "d": 328.5466145833343,
      "v": 73
    },
    {
      "midi": 80,
      "hit": false,
      "t": 103582.10161458336,
      "d": 335.46338541666046,
      "v": 73
    },
    {
      "midi": 79,
      "hit": false,
      "t": 103917.56500000002,
      "d": 328.5466145833343,
      "v": 77
    },
    {
      "midi": 77,
      "hit": false,
      "t": 104249.57000000002,
      "d": 332.00500000000466,
      "v": 77
    },
    {
      "midi": 72,
      "hit": false,
      "t": 104581.57500000003,
      "d": 332.00500000000466,
      "v": 81
    },
    {
      "midi": 72,
      "hit": false,
      "t": 104920.49677083336,
      "d": 629.4261458333349,
      "v": 85
    },
    {
      "midi": 74,
      "hit": false,
      "t": 105577.59000000003,
      "d": 660.551614583339,
      "v": 85
    },
    {
      "midi": 75,
      "hit": false,
      "t": 106241.60000000003,
      "d": 328.5466145833343,
      "v": 85
    },
    {
      "midi": 77,
      "hit": false,
      "t": 106580.52177083337,
      "d": 328.5466145833343,
      "v": 85
    },
    {
      "midi": 72,
      "hit": false,
      "t": 106912.52677083337,
      "d": 574.0919791666674,
      "v": 81
    },
    {
      "midi": 72,
      "hit": false,
      "t": 107569.62000000004,
      "d": 667.4683854166651,
      "v": 85
    },
    {
      "midi": 74,
      "hit": false,
      "t": 108240.54677083337,
      "d": 657.0932291666686,
      "v": 85
    },
    {
      "midi": 75,
      "hit": false,
      "t": 108904.55677083337,
      "d": 293.9627604166599,
      "v": 81
    },
    {
      "midi": 77,
      "hit": false,
      "t": 109243.4785416667,
      "d": 318.1714583333378,
      "v": 81
    },
    {
      "midi": 75,
      "hit": false,
      "t": 109561.65000000004,
      "d": 300.8795312500006,
      "v": 81
    },
    {
      "midi": 74,
      "hit": false,
      "t": 109893.65500000004,
      "d": 300.8795312500006,
      "v": 85
    },
    {
      "midi": 72,
      "hit": false,
      "t": 110236.03515625004,
      "d": 653.6348437499983,
      "v": 81
    },
    {
      "midi": 84,
      "hit": false,
      "t": 110236.03515625004,
      "d": 653.6348437499983,
      "v": 73
    },
    {
      "midi": 74,
      "hit": false,
      "t": 110900.04515625004,
      "d": 653.6348437499983,
      "v": 81
    },
    {
      "midi": 86,
      "hit": false,
      "t": 110900.04515625004,
      "d": 653.6348437499983,
      "v": 69
    },
    {
      "midi": 75,
      "hit": false,
      "t": 111553.68000000004,
      "d": 664.0099999999948,
      "v": 77
    },
    {
      "midi": 87,
      "hit": false,
      "t": 111553.68000000004,
      "d": 664.0099999999948,
      "v": 69
    },
    {
      "midi": 77,
      "hit": false,
      "t": 112217.69000000003,
      "d": 466.8820312500029,
      "v": 77
    },
    {
      "midi": 89,
      "hit": false,
      "t": 112217.69000000003,
      "d": 664.0100000000093,
      "v": 65
    },
    {
      "midi": 79,
      "hit": false,
      "t": 112888.61677083337,
      "d": 1953.9877604166686,
      "v": 65
    },
    {
      "midi": 91,
      "hit": false,
      "t": 112888.61677083337,
      "d": 2012.7803125000064,
      "v": 73
    },
    {
      "midi": 64,
      "hit": false,
      "t": 138120.99677083333,
      "d": 352.7553124999977,
      "v": 85
    },
    {
      "midi": 68,
      "hit": false,
      "t": 138120.99677083333,
      "d": 352.7553124999977,
      "v": 85
    },
    {
      "midi": 56,
      "hit": false,
      "t": 138442.62661458334,
      "d": 332.00499999997555,
      "v": 57
    },
    {
      "midi": 59,
      "hit": false,
      "t": 138442.62661458334,
      "d": 359.6720833333093,
      "v": 65
    },
    {
      "midi": 68,
      "hit": false,
      "t": 138778.08999999997,
      "d": 332.00500000000466,
      "v": 85
    },
    {
      "midi": 64,
      "hit": false,
      "t": 138778.08999999997,
      "d": 356.2136979166826,
      "v": 85
    },
    {
      "midi": 56,
      "hit": false,
      "t": 139110.09499999997,
      "d": 328.54661458334886,
      "v": 57
    },
    {
      "midi": 59,
      "hit": false,
      "t": 139110.09499999997,
      "d": 359.6720833333675,
      "v": 65
    },
    {
      "midi": 64,
      "hit": false,
      "t": 139445.55838541666,
      "d": 325.08822916666395,
      "v": 85
    },
    {
      "midi": 68,
      "hit": false,
      "t": 139445.55838541666,
      "d": 328.54661458331975,
      "v": 85
    },
    {
      "midi": 56,
      "hit": false,
      "t": 139777.56338541664,
      "d": 356.2136979166535,
      "v": 57
    },
    {
      "midi": 59,
      "hit": false,
      "t": 139777.56338541664,
      "d": 356.2136979166535,
      "v": 65
    },
    {
      "midi": 64,
      "hit": false,
      "t": 140106.10999999996,
      "d": 332.00500000000466,
      "v": 85
    },
    {
      "midi": 68,
      "hit": false,
      "t": 140109.5683854166,
      "d": 332.00500000000466,
      "v": 85
    },
    {
      "midi": 56,
      "hit": false,
      "t": 140441.57338541662,
      "d": 297.42114583333023,
      "v": 57
    },
    {
      "midi": 59,
      "hit": false,
      "t": 140441.57338541662,
      "d": 356.2136979166535,
      "v": 65
    },
    {
      "midi": 64,
      "hit": false,
      "t": 140770.11999999994,
      "d": 359.6720833333384,
      "v": 85
    },
    {
      "midi": 68,
      "hit": false,
      "t": 140770.11999999994,
      "d": 359.6720833333384,
      "v": 85
    },
    {
      "midi": 56,
      "hit": false,
      "t": 141102.12499999994,
      "d": 328.54661458331975,
      "v": 57
    },
    {
      "midi": 59,
      "hit": false,
      "t": 141102.12499999994,
      "d": 356.2136979166535,
      "v": 65
    },
    {
      "midi": 68,
      "hit": false,
      "t": 141437.5883854166,
      "d": 328.54661458331975,
      "v": 85
    },
    {
      "midi": 64,
      "hit": false,
      "t": 141437.5883854166,
      "d": 356.21369791662437,
      "v": 85
    },
    {
      "midi": 56,
      "hit": false,
      "t": 141769.59338541658,
      "d": 328.54661458331975,
      "v": 57
    },
    {
      "midi": 59,
      "hit": false,
      "t": 141773.05177083323,
      "d": 325.08822916666395,
      "v": 65
    },
    {
      "midi": 64,
      "hit": false,
      "t": 142101.59838541655,
      "d": 356.2136979166535,
      "v": 85
    },
    {
      "midi": 68,
      "hit": false,
      "t": 142105.0567708332,
      "d": 325.08822916666395,
      "v": 85
    },
    {
      "midi": 56,
      "hit": false,
      "t": 142430.14499999987,
      "d": 332.00500000000466,
      "v": 57
    },
    {
      "midi": 59,
      "hit": false,
      "t": 142430.14499999987,
      "d": 332.00500000000466,
      "v": 65
    },
    {
      "midi": 64,
      "hit": false,
      "t": 142765.60838541653,
      "d": 328.54661458331975,
      "v": 85
    },
    {
      "midi": 68,
      "hit": false,
      "t": 142765.60838541653,
      "d": 328.54661458331975,
      "v": 85
    },
    {
      "midi": 56,
      "hit": false,
      "t": 143097.6133854165,
      "d": 300.87953124998603,
      "v": 57
    },
    {
      "midi": 59,
      "hit": false,
      "t": 143097.6133854165,
      "d": 352.75531249996857,
      "v": 65
    },
    {
      "midi": 64,
      "hit": false,
      "t": 143426.15999999983,
      "d": 359.6720833333093,
      "v": 85
    },
    {
      "midi": 68,
      "hit": false,
      "t": 143429.61838541648,
      "d": 356.2136979166535,
      "v": 85
    },
    {
      "midi": 56,
      "hit": false,
      "t": 143754.70661458315,
      "d": 363.1304687499942,
      "v": 57
    },
    {
      "midi": 59,
      "hit": false,
      "t": 143758.1649999998,
      "d": 359.6720833333384,
      "v": 65
    },
    {
      "midi": 64,
      "hit": false,
      "t": 144090.1699999998,
      "d": 359.6720833333384,
      "v": 85
    },
    {
      "midi": 68,
      "hit": false,
      "t": 144090.1699999998,
      "d": 359.6720833333384,
      "v": 85
    },
    {
      "midi": 56,
      "hit": false,
      "t": 144422.1749999998,
      "d": 356.2136979166535,
      "v": 57
    },
    {
      "midi": 59,
      "hit": false,
      "t": 144425.63338541647,
      "d": 383.8807812499872,
      "v": 65
    },
    {
      "midi": 64,
      "hit": false,
      "t": 144754.17999999982,
      "d": 356.21369791662437,
      "v": 85
    },
    {
      "midi": 68,
      "hit": false,
      "t": 144757.63838541647,
      "d": 328.54661458331975,
      "v": 85
    },
    {
      "midi": 56,
      "hit": false,
      "t": 145089.64338541645,
      "d": 325.08822916666395,
      "v": 57
    },
    {
      "midi": 59,
      "hit": false,
      "t": 145089.64338541645,
      "d": 356.2136979166535,
      "v": 65
    },
    {
      "midi": 64,
      "hit": false,
      "t": 145418.18999999977,
      "d": 359.6720833333384,
      "v": 85
    },
    {
      "midi": 68,
      "hit": false,
      "t": 145418.18999999977,
      "d": 359.6720833333384,
      "v": 85
    },
    {
      "midi": 56,
      "hit": false,
      "t": 145750.19499999977,
      "d": 55.33416666666744,
      "v": 57
    },
    {
      "midi": 59,
      "hit": false,
      "t": 145750.19499999977,
      "d": 83.00125000000116,
      "v": 65
    },
    {
      "midi": 66,
      "hit": false,
      "t": 146082.19999999978,
      "d": 332.00500000000466,
      "v": 85
    },
    {
      "midi": 61,
      "hit": false,
      "t": 146082.19999999978,
      "d": 359.6720833333384,
      "v": 85
    },
    {
      "midi": 54,
      "hit": false,
      "t": 146417.66338541644,
      "d": 328.54661458334886,
      "v": 57
    },
    {
      "midi": 57,
      "hit": false,
      "t": 146417.66338541644,
      "d": 356.2136979166826,
      "v": 57
    },
    {
      "midi": 66,
      "hit": false,
      "t": 146749.66838541644,
      "d": 297.42114583333023,
      "v": 85
    },
    {
      "midi": 61,
      "hit": false,
      "t": 146749.66838541644,
      "d": 325.08822916666395,
      "v": 85
    },
    {
      "midi": 54,
      "hit": false,
      "t": 147078.21499999976,
      "d": 300.87953124998603,
      "v": 57
    },
    {
      "midi": 57,
      "hit": false,
      "t": 147078.21499999976,
      "d": 356.2136979166535,
      "v": 57
    },
    {
      "midi": 66,
      "hit": false,
      "t": 147410.21999999974,
      "d": 300.87953125001513,
      "v": 85
    },
    {
      "midi": 61,
      "hit": false,
      "t": 147410.21999999974,
      "d": 328.54661458334886,
      "v": 85
    },
    {
      "midi": 54,
      "hit": false,
      "t": 147742.22499999974,
      "d": 304.33791666667094,
      "v": 57
    },
    {
      "midi": 57,
      "hit": false,
      "t": 147742.22499999974,
      "d": 356.2136979166826,
      "v": 57
    },
    {
      "midi": 66,
      "hit": false,
      "t": 148074.22999999975,
      "d": 304.33791666667094,
      "v": 85
    },
    {
      "midi": 61,
      "hit": false,
      "t": 148074.22999999975,
      "d": 332.00500000000466,
      "v": 85
    },
    {
      "midi": 54,
      "hit": false,
      "t": 148406.23499999975,
      "d": 245.5453645833477,
      "v": 57
    },
    {
      "midi": 57,
      "hit": false,
      "t": 148406.23499999975,
      "d": 276.6708333333372,
      "v": 57
    },
    {
      "midi": 66,
      "hit": false,
      "t": 148738.23999999976,
      "d": 332.00500000000466,
      "v": 85
    },
    {
      "midi": 61,
      "hit": false,
      "t": 148738.23999999976,
      "d": 387.3391666666721,
      "v": 85
    },
    {
      "midi": 54,
      "hit": false,
      "t": 149077.1617708331,
      "d": 297.42114583333023,
      "v": 57
    },
    {
      "midi": 57,
      "hit": false,
      "t": 149077.1617708331,
      "d": 352.7553124999977,
      "v": 57
    },
    {
      "midi": 66,
      "hit": false,
      "t": 149402.24999999977,
      "d": 300.87953124998603,
      "v": 85
    },
    {
      "midi": 61,
      "hit": false,
      "t": 149402.24999999977,
      "d": 332.00499999997555,
      "v": 85
    },
    {
      "midi": 54,
      "hit": false,
      "t": 149734.25499999974,
      "d": 276.6708333333372,
      "v": 57
    },
    {
      "midi": 57,
      "hit": false,
      "t": 149734.25499999974,
      "d": 383.8807812500163,
      "v": 57
    },
    {
      "midi": 66,
      "hit": false,
      "t": 150066.25999999975,
      "d": 276.6708333333372,
      "v": 85
    },
    {
      "midi": 61,
      "hit": false,
      "t": 150066.25999999975,
      "d": 332.00500000000466,
      "v": 85
    },
    {
      "midi": 54,
      "hit": false,
      "t": 150401.7233854164,
      "d": 269.7540624999965,
      "v": 57
    },
    {
      "midi": 57,
      "hit": false,
      "t": 150401.7233854164,
      "d": 352.7553124999977,
      "v": 57
    },
    {
      "midi": 61,
      "hit": false,
      "t": 150730.26999999973,
      "d": 359.6720833333384,
      "v": 85
    },
    {
      "midi": 66,
      "hit": false,
      "t": 150730.26999999973,
      "d": 359.6720833333384,
      "v": 85
    },
    {
      "midi": 54,
      "hit": false,
      "t": 151062.27499999973,
      "d": 55.33416666666744,
      "v": 57
    },
    {
      "midi": 57,
      "hit": false,
      "t": 151062.27499999973,
      "d": 55.33416666666744,
      "v": 57
    },
    {
      "midi": 66,
      "hit": false,
      "t": 151401.19677083308,
      "d": 321.62984375000815,
      "v": 85
    },
    {
      "midi": 63,
      "hit": false,
      "t": 151401.19677083308,
      "d": 380.4223958333314,
      "v": 85
    },
    {
      "midi": 54,
      "hit": false,
      "t": 151726.28499999974,
      "d": 304.33791666667094,
      "v": 57
    },
    {
      "midi": 57,
      "hit": false,
      "t": 151726.28499999974,
      "d": 356.2136979166535,
      "v": 57
    },
    {
      "midi": 66,
      "hit": false,
      "t": 152061.7483854164,
      "d": 269.7540624999965,
      "v": 85
    },
    {
      "midi": 63,
      "hit": false,
      "t": 152061.7483854164,
      "d": 383.8807812499872,
      "v": 85
    },
    {
      "midi": 54,
      "hit": false,
      "t": 152390.29499999972,
      "d": 249.0037500000035,
      "v": 57
    },
    {
      "midi": 57,
      "hit": false,
      "t": 152390.29499999972,
      "d": 335.46338541666046,
      "v": 57
    },
    {
      "midi": 66,
      "hit": false,
      "t": 152732.67515624972,
      "d": 266.2956770833407,
      "v": 85
    },
    {
      "midi": 63,
      "hit": false,
      "t": 152732.67515624972,
      "d": 349.29692708334187,
      "v": 85
    },
    {
      "midi": 54,
      "hit": false,
      "t": 153054.30499999973,
      "d": 276.6708333333372,
      "v": 57
    },
    {
      "midi": 57,
      "hit": false,
      "t": 153054.30499999973,
      "d": 335.46338541666046,
      "v": 57
    },
    {
      "midi": 66,
      "hit": false,
      "t": 153389.7683854164,
      "d": 245.5453645833477,
      "v": 85
    },
    {
      "midi": 63,
      "hit": false,
      "t": 153389.7683854164,
      "d": 328.54661458334886,
      "v": 85
    },
    {
      "midi": 54,
      "hit": false,
      "t": 153718.31499999974,
      "d": 83.00125000000116,
      "v": 57
    },
    {
      "midi": 57,
      "hit": false,
      "t": 153718.31499999974,
      "d": 107.20994791667908,
      "v": 57
    },
    {
      "midi": 61,
      "hit": false,
      "t": 154050.31999999975,
      "d": 387.3391666666721,
      "v": 85
    },
    {
      "midi": 64,
      "hit": false,
      "t": 154050.31999999975,
      "d": 387.3391666666721,
      "v": 85
    },
    {
      "midi": 54,
      "hit": false,
      "t": 154385.7833854164,
      "d": 269.7540625000256,
      "v": 57
    },
    {
      "midi": 57,
      "hit": false,
      "t": 154385.7833854164,
      "d": 383.8807812500163,
      "v": 57
    },
    {
      "midi": 61,
      "hit": false,
      "t": 154717.78838541644,
      "d": 383.8807812499872,
      "v": 81
    },
    {
      "midi": 64,
      "hit": false,
      "t": 154721.2467708331,
      "d": 266.2956770833407,
      "v": 85
    },
    {
      "midi": 54,
      "hit": false,
      "t": 155046.33499999976,
      "d": 141.7938020833244,
      "v": 57
    },
    {
      "midi": 57,
      "hit": false,
      "t": 155046.33499999976,
      "d": 166.00250000000233,
      "v": 57
    },
    {
      "midi": 59,
      "hit": false,
      "t": 155385.2567708331,
      "d": 352.7553124999977,
      "v": 89
    },
    {
      "midi": 63,
      "hit": false,
      "t": 155385.2567708331,
      "d": 352.7553124999977,
      "v": 85
    },
    {
      "midi": 54,
      "hit": false,
      "t": 155710.34499999977,
      "d": 300.87953124998603,
      "v": 57
    },
    {
      "midi": 57,
      "hit": false,
      "t": 155710.34499999977,
      "d": 332.00499999997555,
      "v": 57
    },
    {
      "midi": 59,
      "hit": false,
      "t": 156042.34999999974,
      "d": 335.46338541666046,
      "v": 93
    },
    {
      "midi": 63,
      "hit": false,
      "t": 156042.34999999974,
      "d": 335.46338541666046,
      "v": 85
    },
    {
      "midi": 54,
      "hit": false,
      "t": 156377.8133854164,
      "d": 79.54286458334536,
      "v": 57
    },
    {
      "midi": 57,
      "hit": false,
      "t": 156377.8133854164,
      "d": 79.54286458334536,
      "v": 57
    },
    {
      "midi": 56,
      "hit": false,
      "t": 156713.27677083306,
      "d": 380.4223958333023,
      "v": 85
    },
    {
      "midi": 64,
      "hit": false,
      "t": 156716.73515624972,
      "d": 349.29692708331277,
      "v": 85
    },
    {
      "midi": 52,
      "hit": false,
      "t": 157038.3649999997,
      "d": 359.6720833333384,
      "v": 57
    },
    {
      "midi": 59,
      "hit": false,
      "t": 157038.3649999997,
      "d": 383.8807812500163,
      "v": 57
    },
    {
      "midi": 56,
      "hit": false,
      "t": 157373.82838541636,
      "d": 332.00500000003376,
      "v": 77
    },
    {
      "midi": 64,
      "hit": false,
      "t": 157373.82838541636,
      "d": 335.46338541668956,
      "v": 77
    },
    {
      "midi": 52,
      "hit": false,
      "t": 157712.7501562497,
      "d": 290.5043749999895,
      "v": 37
    },
    {
      "midi": 59,
      "hit": false,
      "t": 157712.7501562497,
      "d": 345.83854166665697,
      "v": 37
    },
    {
      "midi": 56,
      "hit": false,
      "t": 158034.37999999968,
      "d": 332.00500000000466,
      "v": 49
    },
    {
      "midi": 64,
      "hit": false,
      "t": 158034.37999999968,
      "d": 332.00500000000466,
      "v": 49
    },
    {
      "midi": 52,
      "hit": false,
      "t": 158373.30177083303,
      "d": 352.7553124999977,
      "v": 13
    },
    {
      "midi": 59,
      "hit": false,
      "t": 158376.7601562497,
      "d": 349.29692708334187,
      "v": 13
    },
    {
      "midi": 56,
      "hit": false,
      "t": 158698.3899999997,
      "d": 79.54286458334536,
      "v": 13
    },
    {
      "midi": 64,
      "hit": false,
      "t": 158698.3899999997,
      "d": 107.20994791667908,
      "v": 13
    },
    {
      "midi": 64,
      "hit": false,
      "t": 179393.36833333332,
      "d": 107.20994791667908,
      "v": 69
    },
    {
      "midi": 70,
      "hit": false,
      "t": 179476.36958333332,
      "d": 79.54286458334536,
      "v": 49
    },
    {
      "midi": 60,
      "hit": false,
      "t": 179500.57828125,
      "d": 138.3354166666686,
      "v": 53
    },
    {
      "midi": 48,
      "hit": false,
      "t": 179587.03791666665,
      "d": 110.66833333333489,
      "v": 57
    },
    {
      "midi": 64,
      "hit": false,
      "t": 179587.03791666665,
      "d": 138.3354166666686,
      "v": 49
    },
    {
      "midi": 70,
      "hit": false,
      "t": 179670.03916666665,
      "d": 79.54286458334536,
      "v": 49
    },
    {
      "midi": 60,
      "hit": false,
      "t": 179697.70625,
      "d": 134.8770312500128,
      "v": 65
    },
    {
      "midi": 64,
      "hit": false,
      "t": 179780.7075,
      "d": 79.54286458334536,
      "v": 49
    },
    {
      "midi": 48,
      "hit": false,
      "t": 179780.7075,
      "d": 83.00125000000116,
      "v": 65
    },
    {
      "midi": 70,
      "hit": false,
      "t": 179836.04166666666,
      "d": 79.54286458334536,
      "v": 61
    },
    {
      "midi": 60,
      "hit": false,
      "t": 179891.37583333332,
      "d": 300.87953125001513,
      "v": 65
    },
    {
      "midi": 64,
      "hit": false,
      "t": 179915.58453125,
      "d": 110.66833333333489,
      "v": 61
    },
    {
      "midi": 48,
      "hit": false,
      "t": 179974.37708333333,
      "d": 79.54286458334536,
      "v": 61
    },
    {
      "midi": 70,
      "hit": false,
      "t": 179998.58578125,
      "d": 86.45963541665697,
      "v": 69
    },
    {
      "midi": 64,
      "hit": false,
      "t": 180085.04541666666,
      "d": 110.66833333333489,
      "v": 61
    },
    {
      "midi": 48,
      "hit": false,
      "t": 180136.92119791667,
      "d": 110.66833333333489,
      "v": 57
    },
    {
      "midi": 70,
      "hit": false,
      "t": 180140.37958333333,
      "d": 107.20994791667908,
      "v": 65
    },
    {
      "midi": 60,
      "hit": false,
      "t": 180251.04791666666,
      "d": 134.8770312500128,
      "v": 69
    },
    {
      "midi": 64,
      "hit": false,
      "t": 180275.25661458334,
      "d": 110.66833333333489,
      "v": 61
    },
    {
      "midi": 70,
      "hit": false,
      "t": 180334.04916666666,
      "d": 83.00125000000116,
      "v": 61
    },
    {
      "midi": 48,
      "hit": false,
      "t": 180334.04916666666,
      "d": 110.66833333333489,
      "v": 69
    },
    {
      "midi": 64,
      "hit": false,
      "t": 180444.7175,
      "d": 107.20994791667908,
      "v": 53
    },
    {
      "midi": 60,
      "hit": false,
      "t": 180444.7175,
      "d": 110.66833333333489,
      "v": 65
    },
    {
      "midi": 70,
      "hit": false,
      "t": 180496.59328125,
      "d": 89.91802083331277,
      "v": 65
    },
    {
      "midi": 48,
      "hit": false,
      "t": 180496.59328125,
      "d": 110.66833333330578,
      "v": 53
    },
    {
      "midi": 64,
      "hit": false,
      "t": 180607.26161458332,
      "d": 110.66833333333489,
      "v": 61
    },
    {
      "midi": 60,
      "hit": false,
      "t": 180610.71999999997,
      "d": 107.20994791667908,
      "v": 73
    },
    {
      "midi": 70,
      "hit": false,
      "t": 180662.59578124998,
      "d": 83.00125000000116,
      "v": 65
    },
    {
      "midi": 48,
      "hit": false,
      "t": 180662.59578124998,
      "d": 141.7938020833244,
      "v": 45
    },
    {
      "midi": 64,
      "hit": false,
      "t": 180776.72249999997,
      "d": 107.20994791667908,
      "v": 57
    },
    {
      "midi": 60,
      "hit": false,
      "t": 180804.3895833333,
      "d": 138.3354166666686,
      "v": 73
    },
    {
      "midi": 70,
      "hit": false,
      "t": 180832.05666666664,
      "d": 110.66833333333489,
      "v": 65
    },
    {
      "midi": 48,
      "hit": false,
      "t": 180883.93244791665,
      "d": 110.66833333333489,
      "v": 61
    },
    {
      "midi": 64,
      "hit": false,
      "t": 180942.72499999998,
      "d": 107.20994791667908,
      "v": 57
    },
    {
      "midi": 60,
      "hit": false,
      "t": 180966.93369791665,
      "d": 138.3354166666686,
      "v": 49
    },
    {
      "midi": 70,
      "hit": false,
      "t": 181022.26786458332,
      "d": 83.00125000000116,
      "v": 69
    },
    {
      "midi": 48,
      "hit": false,
      "t": 181053.3933333333,
      "d": 110.66833333333489,
      "v": 57
    },
    {
      "midi": 64,
      "hit": false,
      "t": 181132.93619791666,
      "d": 110.66833333333489,
      "v": 61
    },
    {
      "midi": 60,
      "hit": false,
      "t": 181164.06166666665,
      "d": 107.20994791667908,
      "v": 65
    },
    {
      "midi": 70,
      "hit": false,
      "t": 181191.72874999998,
      "d": 83.00125000000116,
      "v": 69
    },
    {
      "midi": 48,
      "hit": false,
      "t": 181247.06291666665,
      "d": 79.54286458334536,
      "v": 65
    },
    {
      "midi": 64,
      "hit": false,
      "t": 181302.39708333332,
      "d": 110.66833333333489,
      "v": 65
    },
    {
      "midi": 60,
      "hit": false,
      "t": 181326.60578125,
      "d": 110.66833333333489,
      "v": 73
    },
    {
      "midi": 70,
      "hit": false,
      "t": 181354.27286458333,
      "d": 86.45963541665697,
      "v": 69
    },
    {
      "midi": 48,
      "hit": false,
      "t": 181385.39833333332,
      "d": 110.66833333333489,
      "v": 61
    },
    {
      "midi": 64,
      "hit": false,
      "t": 181468.39958333332,
      "d": 107.20994791667908,
      "v": 61
    },
    {
      "midi": 60,
      "hit": false,
      "t": 181496.06666666665,
      "d": 107.20994791667908,
      "v": 61
    },
    {
      "midi": 70,
      "hit": false,
      "t": 181520.27536458333,
      "d": 110.66833333333489,
      "v": 69
    },
    {
      "midi": 48,
      "hit": false,
      "t": 181547.94244791666,
      "d": 276.6708333333372,
      "v": 45
    },
    {
      "midi": 64,
      "hit": false,
      "t": 181662.06916666665,
      "d": 110.66833333333489,
      "v": 57
    },
    {
      "midi": 60,
      "hit": false,
      "t": 181662.06916666665,
      "d": 190.21119791668025,
      "v": 69
    },
    {
      "midi": 70,
      "hit": false,
      "t": 181686.27786458333,
      "d": 86.45963541665697,
      "v": 73
    },
    {
      "midi": 72,
      "hit": false,
      "t": 181949.11515625,
      "d": 570.6335937499825,
      "v": 77
    },
    {
      "midi": 84,
      "hit": false,
      "t": 181952.57354166664,
      "d": 567.1752083333267,
      "v": 81
    },
    {
      "midi": 74,
      "hit": false,
      "t": 182613.12515624997,
      "d": 653.6348437500128,
      "v": 73
    },
    {
      "midi": 86,
      "hit": false,
      "t": 182613.12515624997,
      "d": 653.6348437500128,
      "v": 77
    },
    {
      "midi": 76,
      "hit": false,
      "t": 183266.75999999998,
      "d": 332.00500000000466,
      "v": 73
    },
    {
      "midi": 88,
      "hit": false,
      "t": 183266.75999999998,
      "d": 332.00500000000466,
      "v": 73
    },
    {
      "midi": 77,
      "hit": false,
      "t": 183598.76499999998,
      "d": 335.46338541666046,
      "v": 69
    },
    {
      "midi": 89,
      "hit": false,
      "t": 183598.76499999998,
      "d": 335.46338541666046,
      "v": 69
    },
    {
      "midi": 74,
      "hit": false,
      "t": 183944.60354166664,
      "d": 321.62984375000815,
      "v": 69
    },
    {
      "midi": 86,
      "hit": false,
      "t": 183944.60354166664,
      "d": 321.62984375000815,
      "v": 77
    },
    {
      "midi": 69,
      "hit": false,
      "t": 184273.15015625,
      "d": 321.62984374997905,
      "v": 65
    },
    {
      "midi": 81,
      "hit": false,
      "t": 184276.60854166665,
      "d": 318.17145833332324,
      "v": 73
    },
    {
      "midi": 72,
      "hit": false,
      "t": 184594.77999999997,
      "d": 664.0100000000093,
      "v": 73
    },
    {
      "midi": 84,
      "hit": false,
      "t": 184594.77999999997,
      "d": 664.0100000000093,
      "v": 73
    },
    {
      "midi": 74,
      "hit": false,
      "t": 185258.78999999998,
      "d": 670.9267708333209,
      "v": 73
    },
    {
      "midi": 86,
      "hit": false,
      "t": 185258.78999999998,
      "d": 670.9267708333209,
      "v": 77
    },
    {
      "midi": 76,
      "hit": false,
      "t": 185936.63354166664,
      "d": 318.17145833332324,
      "v": 73
    },
    {
      "midi": 88,
      "hit": false,
      "t": 185936.63354166664,
      "d": 318.17145833332324,
      "v": 73
    },
    {
      "midi": 77,
      "hit": false,
      "t": 186254.80499999996,
      "d": 332.00500000000466,
      "v": 65
    },
    {
      "midi": 89,
      "hit": false,
      "t": 186254.80499999996,
      "d": 332.00500000000466,
      "v": 69
    },
    {
      "midi": 86,
      "hit": false,
      "t": 186586.80999999997,
      "d": 304.33791666667094,
      "v": 77
    },
    {
      "midi": 74,
      "hit": false,
      "t": 186586.80999999997,
      "d": 335.46338541666046,
      "v": 65
    },
    {
      "midi": 81,
      "hit": false,
      "t": 186925.73177083328,
      "d": 242.0869791666628,
      "v": 81
    },
    {
      "midi": 69,
      "hit": false,
      "t": 186925.73177083328,
      "d": 269.7540624999965,
      "v": 73
    },
    {
      "midi": 72,
      "hit": false,
      "t": 187254.2783854166,
      "d": 660.5516145833244,
      "v": 69
    },
    {
      "midi": 84,
      "hit": false,
      "t": 187254.2783854166,
      "d": 660.5516145833244,
      "v": 77
    },
    {
      "midi": 74,
      "hit": false,
      "t": 187914.82999999993,
      "d": 667.4683854166651,
      "v": 73
    },
    {
      "midi": 86,
      "hit": false,
      "t": 187914.82999999993,
      "d": 667.4683854166651,
      "v": 77
    },
    {
      "midi": 76,
      "hit": false,
      "t": 188589.21515624993,
      "d": 653.6348437500128,
      "v": 77
    },
    {
      "midi": 88,
      "hit": false,
      "t": 188589.21515624993,
      "d": 653.6348437500128,
      "v": 73
    },
    {
      "midi": 77,
      "hit": false,
      "t": 189242.84999999995,
      "d": 667.4683854166651,
      "v": 73
    },
    {
      "midi": 89,
      "hit": false,
      "t": 189242.84999999995,
      "d": 667.4683854166651,
      "v": 73
    },
    {
      "midi": 74,
      "hit": false,
      "t": 189920.6935416666,
      "d": 982.1814583333326,
      "v": 69
    },
    {
      "midi": 86,
      "hit": false,
      "t": 189920.6935416666,
      "d": 982.1814583333326,
      "v": 77
    },
    {
      "midi": 81,
      "hit": false,
      "t": 190906.3333854166,
      "d": 328.54661458331975,
      "v": 73
    },
    {
      "midi": 82,
      "hit": false,
      "t": 191241.79677083326,
      "d": 325.08822916666395,
      "v": 73
    },
    {
      "midi": 81,
      "hit": false,
      "t": 191566.88499999992,
      "d": 332.00500000000466,
      "v": 77
    },
    {
      "midi": 79,
      "hit": false,
      "t": 191898.88999999993,
      "d": 332.00500000000466,
      "v": 77
    },
    {
      "midi": 74,
      "hit": false,
      "t": 192234.3533854166,
      "d": 328.54661458331975,
      "v": 81
    },
    {
      "midi": 74,
      "hit": false,
      "t": 192576.73354166656,
      "d": 619.0509895833384,
      "v": 85
    },
    {
      "midi": 76,
      "hit": false,
      "t": 193240.74354166657,
      "d": 650.1764583333279,
      "v": 85
    },
    {
      "midi": 77,
      "hit": false,
      "t": 193890.9199999999,
      "d": 332.00500000000466,
      "v": 85
    },
    {
      "midi": 79,
      "hit": false,
      "t": 194222.9249999999,
      "d": 335.46338541666046,
      "v": 85
    },
    {
      "midi": 74,
      "hit": false,
      "t": 194561.84677083322,
      "d": 570.6335937500116,
      "v": 81
    },
    {
      "midi": 74,
      "hit": false,
      "t": 195218.9399999999,
      "d": 664.0100000000093,
      "v": 85
    },
    {
      "midi": 76,
      "hit": false,
      "t": 195896.78354166655,
      "d": 650.1764583333279,
      "v": 85
    },
    {
      "midi": 77,
      "hit": false,
      "t": 196546.95999999988,
      "d": 304.33791666667094,
      "v": 81
    },
    {
      "midi": 79,
      "hit": false,
      "t": 196878.96499999988,
      "d": 335.46338541666046,
      "v": 81
    },
    {
      "midi": 77,
      "hit": false,
      "t": 197217.8867708332,
      "d": 297.42114583333023,
      "v": 81
    },
    {
      "midi": 76,
      "hit": false,
      "t": 197553.35015624986,
      "d": 293.9627604166744,
      "v": 85
    },
    {
      "midi": 74,
      "hit": false,
      "t": 197885.35515624986,
      "d": 657.0932291666686,
      "v": 81
    },
    {
      "midi": 86,
      "hit": false,
      "t": 197885.35515624986,
      "d": 660.5516145833244,
      "v": 73
    },
    {
      "midi": 76,
      "hit": false,
      "t": 198552.82354166653,
      "d": 650.1764583333279,
      "v": 81
    },
    {
      "midi": 88,
      "hit": false,
      "t": 198552.82354166653,
      "d": 650.1764583333279,
      "v": 69
    },
    {
      "midi": 77,
      "hit": false,
      "t": 199202.99999999985,
      "d": 664.0100000000093,
      "v": 77
    },
    {
      "midi": 89,
      "hit": false,
      "t": 199202.99999999985,
      "d": 664.0100000000093,
      "v": 69
    },
    {
      "midi": 79,
      "hit": false,
      "t": 199867.00999999986,
      "d": 470.34041666667326,
      "v": 77
    },
    {
      "midi": 91,
      "hit": false,
      "t": 199867.00999999986,
      "d": 664.0100000000093,
      "v": 65
    },
    {
      "midi": 81,
      "hit": false,
      "t": 200531.01999999987,
      "d": 1960.9045312500093,
      "v": 65
    },
    {
      "midi": 93,
      "hit": false,
      "t": 200531.01999999987,
      "d": 2023.1554687500175,
      "v": 73
    },
    {
      "midi": 61,
      "hit": false,
      "t": 213731.67713541663,
      "d": 964.8895312499953,
      "v": 59
    },
    {
      "midi": 61,
      "hit": false,
      "t": 213735.13552083322,
      "d": 961.4311458333395,
      "v": 69
    },
    {
      "midi": 65,
      "hit": false,
      "t": 213780.09453124995,
      "d": 885.3466666666791,
      "v": 55
    },
    {
      "midi": 65,
      "hit": false,
      "t": 213783.55291666655,
      "d": 881.8882812500233,
      "v": 65
    },
    {
      "midi": 67,
      "hit": false,
      "t": 213835.42869791662,
      "d": 833.4708854166674,
      "v": 59
    },
    {
      "midi": 67,
      "hit": false,
      "t": 213838.88708333322,
      "d": 830.0125000000116,
      "v": 69
    },
    {
      "midi": 70,
      "hit": false,
      "t": 213890.7628645833,
      "d": 830.0125000000116,
      "v": 47
    },
    {
      "midi": 70,
      "hit": false,
      "t": 213894.2212499999,
      "d": 830.0125000000116,
      "v": 57
    },
    {
      "midi": 77,
      "hit": false,
      "t": 213949.55541666655,
      "d": 798.8870312500221,
      "v": 61
    },
    {
      "midi": 77,
      "hit": false,
      "t": 213949.5554166666,
      "d": 798.8870312500221,
      "v": 51
    },
    {
      "midi": 79,
      "hit": false,
      "t": 214029.09828124996,
      "d": 639.8013020833314,
      "v": 63
    },
    {
      "midi": 79,
      "hit": false,
      "t": 214032.55666666655,
      "d": 636.3429166666756,
      "v": 73
    },
    {
      "midi": 61,
      "hit": false,
      "t": 215135.7816145833,
      "d": 1165.475885416643,
      "v": 55
    },
    {
      "midi": 61,
      "hit": false,
      "t": 215139.2399999999,
      "d": 1162.0175000000163,
      "v": 65
    },
    {
      "midi": 64,
      "hit": false,
      "t": 215218.7828645833,
      "d": 999.4733854166407,
      "v": 63
    },
    {
      "midi": 64,
      "hit": false,
      "t": 215222.2412499999,
      "d": 996.015000000014,
      "v": 73
    },
    {
      "midi": 67,
      "hit": false,
      "t": 215277.57541666657,
      "d": 1023.6820833333477,
      "v": 69
    },
    {
      "midi": 67,
      "hit": false,
      "t": 215277.57541666663,
      "d": 1023.6820833333186,
      "v": 59
    },
    {
      "midi": 70,
      "hit": false,
      "t": 215305.2424999999,
      "d": 996.015000000014,
      "v": 57
    },
    {
      "midi": 70,
      "hit": false,
      "t": 215305.24249999996,
      "d": 996.0149999999849,
      "v": 47
    },
    {
      "midi": 73,
      "hit": false,
      "t": 215360.57666666657,
      "d": 940.6808333333465,
      "v": 61
    },
    {
      "midi": 73,
      "hit": false,
      "t": 215360.57666666663,
      "d": 940.6808333333174,
      "v": 51
    },
    {
      "midi": 79,
      "hit": false,
      "t": 215443.57791666657,
      "d": 747.0112500000105,
      "v": 73
    },
    {
      "midi": 79,
      "hit": false,
      "t": 215443.57791666663,
      "d": 743.5528645833256,
      "v": 63
    },
    {
      "midi": 48,
      "hit": false,
      "t": 216712.80536458327,
      "d": 1165.475885416614,
      "v": 47
    },
    {
      "midi": 48,
      "hit": false,
      "t": 216716.26374999993,
      "d": 1162.0175000000163,
      "v": 57
    },
    {
      "midi": 57,
      "hit": false,
      "t": 216771.5979166666,
      "d": 1134.3504166666244,
      "v": 51
    },
    {
      "midi": 57,
      "hit": false,
      "t": 216775.05630208325,
      "d": 1130.8920312500268,
      "v": 61
    },
    {
      "midi": 60,
      "hit": false,
      "t": 216854.5991666666,
      "d": 1023.6820833332895,
      "v": 43
    },
    {
      "midi": 60,
      "hit": false,
      "t": 216854.5991666666,
      "d": 1023.6820833333477,
      "v": 53
    },
    {
      "midi": 65,
      "hit": false,
      "t": 216882.26624999993,
      "d": 968.347916666622,
      "v": 55
    },
    {
      "midi": 65,
      "hit": false,
      "t": 216882.26624999993,
      "d": 968.3479166666802,
      "v": 65
    },
    {
      "midi": 69,
      "hit": false,
      "t": 216913.39171874992,
      "d": 992.5566145833,
      "v": 55
    },
    {
      "midi": 69,
      "hit": false,
      "t": 216913.39171874992,
      "d": 992.5566145833582,
      "v": 65
    },
    {
      "midi": 72,
      "hit": false,
      "t": 216961.80911458324,
      "d": 916.4721354166395,
      "v": 59
    },
    {
      "midi": 72,
      "hit": false,
      "t": 216965.26749999993,
      "d": 913.0137500000128,
      "v": 69
    },
    {
      "midi": 77,
      "hit": false,
      "t": 217020.60166666657,
      "d": 830.0124999999825,
      "v": 67
    },
    {
      "midi": 77,
      "hit": false,
      "t": 217020.6016666666,
      "d": 830.0125000000116,
      "v": 77
    },
    {
      "midi": 48,
      "hit": false,
      "t": 218206.8278645832,
      "d": 1300.352916666714,
      "v": 47
    },
    {
      "midi": 48,
      "hit": false,
      "t": 218210.28624999995,
      "d": 1300.352916666685,
      "v": 57
    },
    {
      "midi": 57,
      "hit": false,
      "t": 218289.8291145832,
      "d": 1193.142968750035,
      "v": 51
    },
    {
      "midi": 57,
      "hit": false,
      "t": 218289.8291145833,
      "d": 1193.1429687500058,
      "v": 61
    },
    {
      "midi": 60,
      "hit": false,
      "t": 218348.62166666653,
      "d": 1162.0175000000454,
      "v": 47
    },
    {
      "midi": 60,
      "hit": false,
      "t": 218348.62166666662,
      "d": 1162.0175000000163,
      "v": 57
    },
    {
      "midi": 64,
      "hit": false,
      "t": 218376.28874999986,
      "d": 1079.0162500000442,
      "v": 55
    },
    {
      "midi": 64,
      "hit": false,
      "t": 218376.28874999995,
      "d": 1079.0162500000151,
      "v": 65
    },
    {
      "midi": 69,
      "hit": false,
      "t": 218400.49744791654,
      "d": 1110.1417187500338,
      "v": 59
    },
    {
      "midi": 69,
      "hit": false,
      "t": 218403.95583333328,
      "d": 1106.6833333333489,
      "v": 69
    },
    {
      "midi": 72,
      "hit": false,
      "t": 218490.41546874988,
      "d": 1047.8907812500256,
      "v": 59
    },
    {
      "midi": 72,
      "hit": false,
      "t": 218493.87385416662,
      "d": 1044.4323958333407,
      "v": 69
    },
    {
      "midi": 76,
      "hit": false,
      "t": 218569.95833333323,
      "d": 913.0137500000128,
      "v": 67
    },
    {
      "midi": 76,
      "hit": false,
      "t": 218569.95833333328,
      "d": 913.0137500000128,
      "v": 77
    },
    {
      "midi": 48,
      "hit": false,
      "t": 219897.97833333325,
      "d": 1324.5616145833337,
      "v": 47
    },
    {
      "midi": 48,
      "hit": false,
      "t": 219897.9783333333,
      "d": 1328.0199999999895,
      "v": 57
    },
    {
      "midi": 55,
      "hit": false,
      "t": 219949.85411458326,
      "d": 1300.3529166666558,
      "v": 47
    },
    {
      "midi": 55,
      "hit": false,
      "t": 219953.31249999997,
      "d": 1300.3529166666558,
      "v": 57
    },
    {
      "midi": 58,
      "hit": false,
      "t": 220036.3137499999,
      "d": 1189.684583333321,
      "v": 43
    },
    {
      "midi": 58,
      "hit": false,
      "t": 220036.31374999997,
      "d": 1189.684583333321,
      "v": 53
    },
    {
      "midi": 60,
      "hit": false,
      "t": 220115.85661458326,
      "d": 1110.1417187499756,
      "v": 51
    },
    {
      "midi": 60,
      "hit": false,
      "t": 220119.31499999997,
      "d": 1106.6833333333198,
      "v": 61
    },
    {
      "midi": 62,
      "hit": false,
      "t": 220174.64916666658,
      "d": 1079.016249999986,
      "v": 47
    },
    {
      "midi": 62,
      "hit": false,
      "t": 220178.1075520833,
      "d": 1079.016249999986,
      "v": 57
    },
    {
      "midi": 67,
      "hit": false,
      "t": 220257.65041666658,
      "d": 909.5553645833279,
      "v": 63
    },
    {
      "midi": 67,
      "hit": false,
      "t": 220257.6504166666,
      "d": 913.0137500000128,
      "v": 73
    },
    {
      "midi": 48,
      "hit": false,
      "t": 221751.67291666658,
      "d": 1328.0199999999895,
      "v": 39
    },
    {
      "midi": 48,
      "hit": false,
      "t": 221751.6729166666,
      "d": 1328.0199999999895,
      "v": 49
    },
    {
      "midi": 55,
      "hit": false,
      "t": 221803.5486979166,
      "d": 1248.4771354166442,
      "v": 39
    },
    {
      "midi": 55,
      "hit": false,
      "t": 221807.00708333327,
      "d": 1245.0187499999884,
      "v": 49
    },
    {
      "midi": 58,
      "hit": false,
      "t": 221862.3412499999,
      "d": 1020.2236979166628,
      "v": 39
    },
    {
      "midi": 58,
      "hit": false,
      "t": 221862.34124999994,
      "d": 1023.6820833333186,
      "v": 49
    },
    {
      "midi": 60,
      "hit": false,
      "t": 221890.00833333324,
      "d": 1245.0187499999884,
      "v": 31
    },
    {
      "midi": 60,
      "hit": false,
      "t": 221890.00833333327,
      "d": 1245.0187499999884,
      "v": 41
    },
    {
      "midi": 67,
      "hit": false,
      "t": 222028.3437499999,
      "d": 1158.5591145833314,
      "v": 43
    },
    {
      "midi": 67,
      "hit": false,
      "t": 222031.8021354166,
      "d": 1155.1007291666756,
      "v": 53
    },
    {
      "midi": 41,
      "hit": false,
      "t": 223906.24703124992,
      "d": 1051.3491666666232,
      "v": 47
    },
    {
      "midi": 41,
      "hit": false,
      "t": 223906.24703124995,
      "d": 1051.3491666666523,
      "v": 57
    },
    {
      "midi": 48,
      "hit": false,
      "t": 224404.2545312499,
      "d": 608.6758333333128,
      "v": 43
    },
    {
      "midi": 48,
      "hit": false,
      "t": 224407.7129166666,
      "d": 608.6758333333128,
      "v": 53
    },
    {
      "midi": 57,
      "hit": false,
      "t": 224736.25953124987,
      "d": 280.129218749993,
      "v": 43
    },
    {
      "midi": 57,
      "hit": false,
      "t": 224736.25953124993,
      "d": 280.129218749993,
      "v": 53
    },
    {
      "midi": 60,
      "hit": false,
      "t": 224985.26328124988,
      "d": 667.4683854166651,
      "v": 43
    },
    {
      "midi": 60,
      "hit": false,
      "t": 224988.7216666666,
      "d": 667.4683854166651,
      "v": 53
    },
    {
      "midi": 65,
      "hit": false,
      "t": 225206.59994791655,
      "d": 501.4658854166628,
      "v": 47
    },
    {
      "midi": 65,
      "hit": false,
      "t": 225210.05833333326,
      "d": 498.007500000007,
      "v": 57
    },
    {
      "midi": 69,
      "hit": false,
      "t": 225459.0620833332,
      "d": 304.33791666667094,
      "v": 47
    },
    {
      "midi": 69,
      "hit": false,
      "t": 225459.06208333327,
      "d": 304.33791666667094,
      "v": 57
    },
    {
      "midi": 72,
      "hit": false,
      "t": 225766.8583854166,
      "d": 2403.577864583349,
      "v": 53
    },
    {
      "midi": 77,
      "hit": false,
      "t": 226154.1975520832,
      "d": 2016.2386979166477,
      "v": 43
    },
    {
      "midi": 77,
      "hit": false,
      "t": 226154.19755208326,
      "d": 2016.2386979166768,
      "v": 53
    },
    {
      "midi": 81,
      "hit": false,
      "t": 226676.41374999992,
      "d": 1497.4808854166768,
      "v": 49
    },
    {
      "midi": 53,
      "hit": false,
      "t": 227506.42624999984,
      "d": 5312.080000000016,
      "v": 27
    },
    {
      "midi": 72,
      "hit": false,
      "t": 227506.42624999984,
      "d": 5312.080000000016,
      "v": 31
    },
    {
      "midi": 81,
      "hit": false,
      "t": 227506.42624999984,
      "d": 5312.080000000016,
      "v": 39
    },
    {
      "midi": 65,
      "hit": false,
      "t": 227506.42624999984,
      "d": 5336.288697916694,
      "v": 35
    },
    {
      "midi": 84,
      "hit": false,
      "t": 227506.42624999993,
      "d": 5315.538385416672,
      "v": 41
    },
    {
      "midi": 96,
      "hit": false,
      "t": 227506.42624999993,
      "d": 5315.538385416672,
      "v": 33
    },
    {
      "midi": 89,
      "hit": false,
      "t": 227506.42624999993,
      "d": 5318.996770833328,
      "v": 45
    },
    {
      "midi": 93,
      "hit": false,
      "t": 227506.42624999993,
      "d": 5318.996770833328,
      "v": 49
    }
  ]
}