{
  "jsonPath": "Soundtracks/Video Game Music/Final Fantasy 3/final-fantasy-3-japan-battle.json",
  "path": "Soundtracks\\Video Game Music\\Final Fantasy 3\\Final_Fantasy_3_Japan_Battle.mid",
  "name": "Final_Fantasy_3_Japan_Battle",
  "difficulty": "Advanced",
  "bpm": 160,
  "notes": [
    {
      "midi": 33,
      "hit": false,
      "t": 1500,
      "d": 160.15625,
      "v": 103
    },
    {
      "midi": 33,
      "hit": false,
      "t": 1687.5,
      "d": 160.15625,
      "v": 103
    },
    {
      "midi": 33,
      "hit": false,
      "t": 1875,
      "d": 160.15625,
      "v": 103
    },
    {
      "midi": 33,
      "hit": false,
      "t": 2062.5,
      "d": 160.15625,
      "v": 103
    },
    {
      "midi": 33,
      "hit": false,
      "t": 2250,
      "d": 160.15625,
      "v": 103
    },
    {
      "midi": 33,
      "hit": false,
      "t": 2437.5,
      "d": 160.15625,
      "v": 103
    },
    {
      "midi": 31,
      "hit": false,
      "t": 2625,
      "d": 160.15625,
      "v": 103
    },
    {
      "midi": 31,
      "hit": false,
      "t": 2812.5,
      "d": 160.15625,
      "v": 103
    },
    {
      "midi": 33,
      "hit": false,
      "t": 3000,
      "d": 160.15625,
      "v": 103
    },
    {
      "midi": 33,
      "hit": false,
      "t": 3187.5,
      "d": 160.15625,
      "v": 103
    },
    {
      "midi": 33,
      "hit": false,
      "t": 3375,
      "d": 160.15625,
      "v": 103
    },
    {
      "midi": 33,
      "hit": false,
      "t": 3562.5,
      "d": 160.15625,
      "v": 103
    },
    {
      "midi": 33,
      "hit": false,
      "t": 3750,
      "d": 160.15625,
      "v": 103
    },
    {
      "midi": 33,
      "hit": false,
      "t": 3937.5,
      "d": 160.15625,
      "v": 103
    },
    {
      "midi": 31,
      "hit": false,
      "t": 4125,
      "d": 160.15625,
      "v": 103
    },
    {
      "midi": 31,
      "hit": false,
      "t": 4312.5,
      "d": 160.15625,
      "v": 103
    },
    {
      "midi": 69,
      "hit": false,
      "t": 4500,
      "d": 1121.09375,
      "v": 103
    },
    {
      "midi": 60,
      "hit": false,
      "t": 4500,
      "d": 183.59375,
      "v": 87
    },
    {
      "midi": 64,
      "hit": false,
      "t": 4687.5,
      "d": 183.59375,
      "v": 87
    },
    {
      "midi": 60,
      "hit": false,
      "t": 4875,
      "d": 183.59375,
      "v": 87
    },
    {
      "midi": 64,
      "hit": false,
      "t": 5062.5,
      "d": 183.59375,
      "v": 87
    },
    {
      "midi": 62,
      "hit": false,
      "t": 5250,
      "d": 183.59375,
      "v": 87
    },
    {
      "midi": 66,
      "hit": false,
      "t": 5437.5,
      "d": 183.59375,
      "v": 87
    },
    {
      "midi": 71,
      "hit": false,
      "t": 5625,
      "d": 371.09375,
      "v": 103
    },
    {
      "midi": 62,
      "hit": false,
      "t": 5625,
      "d": 183.59375,
      "v": 87
    },
    {
      "midi": 66,
      "hit": false,
      "t": 5812.5,
      "d": 183.59375,
      "v": 87
    },
    {
      "midi": 72,
      "hit": false,
      "t": 6000,
      "d": 1121.09375,
      "v": 103
    },
    {
      "midi": 64,
      "hit": false,
      "t": 6000,
      "d": 183.59375,
      "v": 87
    },
    {
      "midi": 68,
      "hit": false,
      "t": 6187.5,
      "d": 183.59375,
      "v": 87
    },
    {
      "midi": 64,
      "hit": false,
      "t": 6375,
      "d": 183.59375,
      "v": 87
    },
    {
      "midi": 68,
      "hit": false,
      "t": 6562.5,
      "d": 183.59375,
      "v": 87
    },
    {
      "midi": 64,
      "hit": false,
      "t": 6750,
      "d": 183.59375,
      "v": 87
    },
    {
      "midi": 68,
      "hit": false,
      "t": 6937.5,
      "d": 183.59375,
      "v": 87
    },
    {
      "midi": 74,
      "hit": false,
      "t": 7125,
      "d": 371.09375,
      "v": 103
    },
    {
      "midi": 64,
      "hit": false,
      "t": 7125,
      "d": 183.59375,
      "v": 87
    },
    {
      "midi": 68,
      "hit": false,
      "t": 7312.5,
      "d": 183.59375,
      "v": 87
    },
    {
      "midi": 76,
      "hit": false,
      "t": 7500,
      "d": 371.09375,
      "v": 103
    },
    {
      "midi": 67,
      "hit": false,
      "t": 7500,
      "d": 89.84375,
      "v": 87
    },
    {
      "midi": 62,
      "hit": false,
      "t": 7593.75,
      "d": 89.84375,
      "v": 87
    },
    {
      "midi": 64,
      "hit": false,
      "t": 7687.5,
      "d": 89.84375,
      "v": 87
    },
    {
      "midi": 67,
      "hit": false,
      "t": 7781.25,
      "d": 89.84375,
      "v": 87
    },
    {
      "midi": 81,
      "hit": false,
      "t": 7875,
      "d": 371.09375,
      "v": 103
    },
    {
      "midi": 69,
      "hit": false,
      "t": 7875,
      "d": 89.84375,
      "v": 87
    },
    {
      "midi": 64,
      "hit": false,
      "t": 7968.75,
      "d": 89.84375,
      "v": 87
    },
    {
      "midi": 67,
      "hit": false,
      "t": 8062.5,
      "d": 89.84375,
      "v": 87
    },
    {
      "midi": 69,
      "hit": false,
      "t": 8156.25,
      "d": 89.84375,
      "v": 87
    },
    {
      "midi": 79,
      "hit": false,
      "t": 8250,
      "d": 371.09375,
      "v": 103
    },
    {
      "midi": 71,
      "hit": false,
      "t": 8250,
      "d": 89.84375,
      "v": 87
    },
    {
      "midi": 64,
      "hit": false,
      "t": 8343.75,
      "d": 89.84375,
      "v": 87
    },
    {
      "midi": 67,
      "hit": false,
      "t": 8437.5,
      "d": 89.84375,
      "v": 87
    },
    {
      "midi": 71,
      "hit": false,
      "t": 8531.25,
      "d": 89.84375,
      "v": 87
    },
    {
      "midi": 76,
      "hit": false,
      "t": 8625,
      "d": 371.09375,
      "v": 103
    },
    {
      "midi": 72,
      "hit": false,
      "t": 8625,
      "d": 89.84375,
      "v": 87
    },
    {
      "midi": 67,
      "hit": false,
      "t": 8718.75,
      "d": 89.84375,
      "v": 87
    },
    {
      "midi": 71,
      "hit": false,
      "t": 8812.5,
      "d": 89.84375,
      "v": 87
    },
    {
      "midi": 72,
      "hit": false,
      "t": 8906.25,
      "d": 89.84375,
      "v": 87
    },
    {
      "midi": 78,
      "hit": false,
      "t": 9000,
      "d": 183.59375,
      "v": 103
    },
    {
      "midi": 78,
      "hit": false,
      "t": 9000,
      "d": 183.59375,
      "v": 87
    },
    {
      "midi": 74,
      "hit": false,
      "t": 9187.5,
      "d": 89.84375,
      "v": 103
    },
    {
      "midi": 74,
      "hit": false,
      "t": 9187.5,
      "d": 183.59375,
      "v": 87
    },
    {
      "midi": 69,
      "hit": false,
      "t": 9375,
      "d": 89.84375,
      "v": 87
    },
    {
      "midi": 71,
      "hit": false,
      "t": 9468.75,
      "d": 89.84375,
      "v": 87
    },
    {
      "midi": 72,
      "hit": false,
      "t": 9562.5,
      "d": 89.84375,
      "v": 87
    },
    {
      "midi": 74,
      "hit": false,
      "t": 9656.25,
      "d": 89.84375,
      "v": 87
    },
    {
      "midi": 72,
      "hit": false,
      "t": 9750,
      "d": 89.84375,
      "v": 87
    },
    {
      "midi": 71,
      "hit": false,
      "t": 9843.75,
      "d": 89.84375,
      "v": 87
    },
    {
      "midi": 69,
      "hit": false,
      "t": 9937.5,
      "d": 89.84375,
      "v": 87
    },
    {
      "midi": 67,
      "hit": false,
      "t": 10031.25,
      "d": 89.84375,
      "v": 87
    },
    {
      "midi": 66,
      "hit": false,
      "t": 10125,
      "d": 89.84375,
      "v": 87
    },
    {
      "midi": 64,
      "hit": false,
      "t": 10218.75,
      "d": 89.84375,
      "v": 87
    },
    {
      "midi": 62,
      "hit": false,
      "t": 10312.5,
      "d": 183.59375,
      "v": 87
    },
    {
      "midi": 77,
      "hit": false,
      "t": 10500,
      "d": 371.09375,
      "v": 103
    },
    {
      "midi": 69,
      "hit": false,
      "t": 10500,
      "d": 183.59375,
      "v": 87
    },
    {
      "midi": 69,
      "hit": false,
      "t": 10687.5,
      "d": 183.59375,
      "v": 87
    },
    {
      "midi": 72,
      "hit": false,
      "t": 10875,
      "d": 371.09375,
      "v": 103
    },
    {
      "midi": 69,
      "hit": false,
      "t": 11250,
      "d": 371.09375,
      "v": 103
    },
    {
      "midi": 57,
      "hit": false,
      "t": 11250,
      "d": 89.84375,
      "v": 87
    },
    {
      "midi": 59,
      "hit": false,
      "t": 11343.75,
      "d": 89.84375,
      "v": 87
    },
    {
      "midi": 60,
      "hit": false,
      "t": 11437.5,
      "d": 89.84375,
      "v": 87
    },
    {
      "midi": 64,
      "hit": false,
      "t": 11531.25,
      "d": 89.84375,
      "v": 87
    },
    {
      "midi": 77,
      "hit": false,
      "t": 11625,
      "d": 371.09375,
      "v": 103
    },
    {
      "midi": 65,
      "hit": false,
      "t": 11625,
      "d": 371.09375,
      "v": 87
    },
    {
      "midi": 76,
      "hit": false,
      "t": 12000,
      "d": 371.09375,
      "v": 103
    },
    {
      "midi": 68,
      "hit": false,
      "t": 12000,
      "d": 183.59375,
      "v": 87
    },
    {
      "midi": 68,
      "hit": false,
      "t": 12187.5,
      "d": 183.59375,
      "v": 87
    },
    {
      "midi": 71,
      "hit": false,
      "t": 12375,
      "d": 371.09375,
      "v": 103
    },
    {
      "midi": 68,
      "hit": false,
      "t": 12750,
      "d": 371.09375,
      "v": 103
    },
    {
      "midi": 56,
      "hit": false,
      "t": 12750,
      "d": 89.84375,
      "v": 87
    },
    {
      "midi": 59,
      "hit": false,
      "t": 12843.75,
      "d": 89.84375,
      "v": 87
    },
    {
      "midi": 60,
      "hit": false,
      "t": 12937.5,
      "d": 89.84375,
      "v": 87
    },
    {
      "midi": 62,
      "hit": false,
      "t": 13031.25,
      "d": 89.84375,
      "v": 87
    },
    {
      "midi": 76,
      "hit": false,
      "t": 13125,
      "d": 371.09375,
      "v": 103
    },
    {
      "midi": 64,
      "hit": false,
      "t": 13125,
      "d": 371.09375,
      "v": 87
    },
    {
      "midi": 74,
      "hit": false,
      "t": 13500,
      "d": 371.09375,
      "v": 103
    },
    {
      "midi": 65,
      "hit": false,
      "t": 13500,
      "d": 183.59375,
      "v": 87
    },
    {
      "midi": 62,
      "hit": false,
      "t": 13687.5,
      "d": 183.59375,
      "v": 87
    },
    {
      "midi": 72,
      "hit": false,
      "t": 13875,
      "d": 371.09375,
      "v": 103
    },
    {
      "midi": 65,
      "hit": false,
      "t": 13875,
      "d": 183.59375,
      "v": 87
    },
    {
      "midi": 62,
      "hit": false,
      "t": 14062.5,
      "d": 183.59375,
      "v": 87
    },
    {
      "midi": 69,
      "hit": false,
      "t": 14250,
      "d": 371.09375,
      "v": 103
    },
    {
      "midi": 65,
      "hit": false,
      "t": 14250,
      "d": 183.59375,
      "v": 87
    },
    {
      "midi": 62,
      "hit": false,
      "t": 14437.5,
      "d": 183.59375,
      "v": 87
    },
    {
      "midi": 72,
      "hit": false,
      "t": 14625,
      "d": 371.09375,
      "v": 103
    },
    {
      "midi": 65,
      "hit": false,
      "t": 14625,
      "d": 183.59375,
      "v": 87
    },
    {
      "midi": 62,
      "hit": false,
      "t": 14812.5,
      "d": 183.59375,
      "v": 87
    },
    {
      "midi": 71,
      "hit": false,
      "t": 15000,
      "d": 183.59375,
      "v": 103
    },
    {
      "midi": 64,
      "hit": false,
      "t": 15000,
      "d": 183.59375,
      "v": 87
    },
    {
      "midi": 69,
      "hit": false,
      "t": 15187.5,
      "d": 183.59375,
      "v": 103
    },
    {
      "midi": 68,
      "hit": false,
      "t": 15375,
      "d": 183.59375,
      "v": 103
    },
    {
      "midi": 65,
      "hit": false,
      "t": 15562.5,
      "d": 183.59375,
      "v": 103
    },
    {
      "midi": 64,
      "hit": false,
      "t": 15750,
      "d": 183.59375,
      "v": 103
    },
    {
      "midi": 60,
      "hit": false,
      "t": 15937.5,
      "d": 183.59375,
      "v": 103
    },
    {
      "midi": 59,
      "hit": false,
      "t": 16125,
      "d": 183.59375,
      "v": 103
    },
    {
      "midi": 64,
      "hit": false,
      "t": 16312.5,
      "d": 183.59375,
      "v": 103
    },
    {
      "midi": 69,
      "hit": false,
      "t": 16500,
      "d": 1121.09375,
      "v": 103
    },
    {
      "midi": 60,
      "hit": false,
      "t": 16500,
      "d": 183.59375,
      "v": 87
    },
    {
      "midi": 64,
      "hit": false,
      "t": 16687.5,
      "d": 183.59375,
      "v": 87
    },
    {
      "midi": 60,
      "hit": false,
      "t": 16875,
      "d": 183.59375,
      "v": 87
    },
    {
      "midi": 64,
      "hit": false,
      "t": 17062.5,
      "d": 183.59375,
      "v": 87
    },
    {
      "midi": 62,
      "hit": false,
      "t": 17250,
      "d": 183.59375,
      "v": 87
    },
    {
      "midi": 66,
      "hit": false,
      "t": 17437.5,
      "d": 183.59375,
      "v": 87
    },
    {
      "midi": 71,
      "hit": false,
      "t": 17625,
      "d": 371.09375,
      "v": 103
    },
    {
      "midi": 62,
      "hit": false,
      "t": 17625,
      "d": 183.59375,
      "v": 87
    },
    {
      "midi": 66,
      "hit": false,
      "t": 17812.5,
      "d": 183.59375,
      "v": 87
    },
    {
      "midi": 72,
      "hit": false,
      "t": 18000,
      "d": 1121.09375,
      "v": 103
    },
    {
      "midi": 64,
      "hit": false,
      "t": 18000,
      "d": 183.59375,
      "v": 87
    },
    {
      "midi": 68,
      "hit": false,
      "t": 18187.5,
      "d": 183.59375,
      "v": 87
    },
    {
      "midi": 64,
      "hit": false,
      "t": 18375,
      "d": 183.59375,
      "v": 87
    },
    {
      "midi": 68,
      "hit": false,
      "t": 18562.5,
      "d": 183.59375,
      "v": 87
    },
    {
      "midi": 64,
      "hit": false,
      "t": 18750,
      "d": 183.59375,
      "v": 87
    },
    {
      "midi": 68,
      "hit": false,
      "t": 18937.5,
      "d": 183.59375,
      "v": 87
    },
    {
      "midi": 74,
      "hit": false,
      "t": 19125,
      "d": 371.09375,
      "v": 103
    },
    {
      "midi": 64,
      "hit": false,
      "t": 19125,
      "d": 183.59375,
      "v": 87
    },
    {
      "midi": 68,
      "hit": false,
      "t": 19312.5,
      "d": 183.59375,
      "v": 87
    },
    {
      "midi": 76,
      "hit": false,
      "t": 19500,
      "d": 371.09375,
      "v": 103
    },
    {
      "midi": 67,
      "hit": false,
      "t": 19500,
      "d": 89.84375,
      "v": 87
    },
    {
      "midi": 62,
      "hit": false,
      "t": 19593.75,
      "d": 89.84375,
      "v": 87
    },
    {
      "midi": 64,
      "hit": false,
      "t": 19687.5,
      "d": 89.84375,
      "v": 87
    },
    {
      "midi": 67,
      "hit": false,
      "t": 19781.25,
      "d": 89.84375,
      "v": 87
    },
    {
      "midi": 81,
      "hit": false,
      "t": 19875,
      "d": 371.09375,
      "v": 103
    },
    {
      "midi": 69,
      "hit": false,
      "t": 19875,
      "d": 89.84375,
      "v": 87
    },
    {
      "midi": 64,
      "hit": false,
      "t": 19968.75,
      "d": 89.84375,
      "v": 87
    },
    {
      "midi": 67,
      "hit": false,
      "t": 20062.5,
      "d": 89.84375,
      "v": 87
    },
    {
      "midi": 69,
      "hit": false,
      "t": 20156.25,
      "d": 89.84375,
      "v": 87
    },
    {
      "midi": 79,
      "hit": false,
      "t": 20250,
      "d": 371.09375,
      "v": 103
    },
    {
      "midi": 71,
      "hit": false,
      "t": 20250,
      "d": 89.84375,
      "v": 87
    },
    {
      "midi": 64,
      "hit": false,
      "t": 20343.75,
      "d": 89.84375,
      "v": 87
    },
    {
      "midi": 67,
      "hit": false,
      "t": 20437.5,
      "d": 89.84375,
      "v": 87
    },
    {
      "midi": 71,
      "hit": false,
      "t": 20531.25,
      "d": 89.84375,
      "v": 87
    },
    {
      "midi": 76,
      "hit": false,
      "t": 20625,
      "d": 371.09375,
      "v": 103
    },
    {
      "midi": 72,
      "hit": false,
      "t": 20625,
      "d": 89.84375,
      "v": 87
    },
    {
      "midi": 67,
      "hit": false,
      "t": 20718.75,
      "d": 89.84375,
      "v": 87
    },
    {
      "midi": 71,
      "hit": false,
      "t": 20812.5,
      "d": 89.84375,
      "v": 87
    },
    {
      "midi": 72,
      "hit": false,
      "t": 20906.25,
      "d": 89.84375,
      "v": 87
    },
    {
      "midi": 78,
      "hit": false,
      "t": 21000,
      "d": 183.59375,
      "v": 103
    },
    {
      "midi": 78,
      "hit": false,
      "t": 21000,
      "d": 183.59375,
      "v": 87
    },
    {
      "midi": 74,
      "hit": false,
      "t": 21187.5,
      "d": 89.84375,
      "v": 103
    },
    {
      "midi": 74,
      "hit": false,
      "t": 21187.5,
      "d": 183.59375,
      "v": 87
    },
    {
      "midi": 69,
      "hit": false,
      "t": 21375,
      "d": 89.84375,
      "v": 87
    },
    {
      "midi": 71,
      "hit": false,
      "t": 21468.75,
      "d": 89.84375,
      "v": 87
    },
    {
      "midi": 72,
      "hit": false,
      "t": 21562.5,
      "d": 89.84375,
      "v": 87
    },
    {
      "midi": 74,
      "hit": false,
      "t": 21656.25,
      "d": 89.84375,
      "v": 87
    },
    {
      "midi": 72,
      "hit": false,
      "t": 21750,
      "d": 89.84375,
      "v": 87
    },
    {
      "midi": 71,
      "hit": false,
      "t": 21843.75,
      "d": 89.84375,
      "v": 87
    },
    {
      "midi": 69,
      "hit": false,
      "t": 21937.5,
      "d": 89.84375,
      "v": 87
    },
    {
      "midi": 67,
      "hit": false,
      "t": 22031.25,
      "d": 89.84375,
      "v": 87
    },
    {
      "midi": 66,
      "hit": false,
      "t": 22125,
      "d": 89.84375,
      "v": 87
    },
    {
      "midi": 64,
      "hit": false,
      "t": 22218.75,
      "d": 89.84375,
      "v": 87
    },
    {
      "midi": 62,
      "hit": false,
      "t": 22312.5,
      "d": 183.59375,
      "v": 87
    },
    {
      "midi": 77,
      "hit": false,
      "t": 22500,
      "d": 371.09375,
      "v": 103
    },
    {
      "midi": 69,
      "hit": false,
      "t": 22500,
      "d": 183.59375,
      "v": 87
    },
    {
      "midi": 69,
      "hit": false,
      "t": 22687.5,
      "d": 183.59375,
      "v": 87
    },
    {
      "midi": 72,
      "hit": false,
      "t": 22875,
      "d": 371.09375,
      "v": 103
    },
    {
      "midi": 69,
      "hit": false,
      "t": 23250,
      "d": 371.09375,
      "v": 103
    },
    {
      "midi": 57,
      "hit": false,
      "t": 23250,
      "d": 89.84375,
      "v": 87
    },
    {
      "midi": 59,
      "hit": false,
      "t": 23343.75,
      "d": 89.84375,
      "v": 87
    },
    {
      "midi": 60,
      "hit": false,
      "t": 23437.5,
      "d": 89.84375,
      "v": 87
    },
    {
      "midi": 64,
      "hit": false,
      "t": 23531.25,
      "d": 89.84375,
      "v": 87
    },
    {
      "midi": 77,
      "hit": false,
      "t": 23625,
      "d": 371.09375,
      "v": 103
    },
    {
      "midi": 65,
      "hit": false,
      "t": 23625,
      "d": 371.09375,
      "v": 87
    },
    {
      "midi": 76,
      "hit": false,
      "t": 24000,
      "d": 371.09375,
      "v": 103
    },
    {
      "midi": 68,
      "hit": false,
      "t": 24000,
      "d": 183.59375,
      "v": 87
    },
    {
      "midi": 68,
      "hit": false,
      "t": 24187.5,
      "d": 183.59375,
      "v": 87
    },
    {
      "midi": 71,
      "hit": false,
      "t": 24375,
      "d": 371.09375,
      "v": 103
    },
    {
      "midi": 68,
      "hit": false,
      "t": 24750,
      "d": 371.09375,
      "v": 103
    },
    {
      "midi": 56,
      "hit": false,
      "t": 24750,
      "d": 89.84375,
      "v": 87
    },
    {
      "midi": 59,
      "hit": false,
      "t": 24843.75,
      "d": 89.84375,
      "v": 87
    },
    {
      "midi": 60,
      "hit": false,
      "t": 24937.5,
      "d": 89.84375,
      "v": 87
    },
    {
      "midi": 62,
      "hit": false,
      "t": 25031.25,
      "d": 89.84375,
      "v": 87
    },
    {
      "midi": 71,
      "hit": false,
      "t": 25125,
      "d": 371.09375,
      "v": 103
    },
    {
      "midi": 64,
      "hit": false,
      "t": 25125,
      "d": 371.09375,
      "v": 87
    },
    {
      "midi": 69,
      "hit": false,
      "t": 25500,
      "d": 2996.09375,
      "v": 103
    },
    {
      "midi": 64,
      "hit": false,
      "t": 25500,
      "d": 183.59375,
      "v": 87
    },
    {
      "midi": 65,
      "hit": false,
      "t": 25687.5,
      "d": 183.59375,
      "v": 87
    },
    {
      "midi": 62,
      "hit": false,
      "t": 25875,
      "d": 183.59375,
      "v": 87
    },
    {
      "midi": 65,
      "hit": false,
      "t": 26062.5,
      "d": 183.59375,
      "v": 87
    },
    {
      "midi": 60,
      "hit": false,
      "t": 26250,
      "d": 183.59375,
      "v": 87
    },
    {
      "midi": 65,
      "hit": false,
      "t": 26437.5,
      "d": 183.59375,
      "v": 87
    },
    {
      "midi": 62,
      "hit": false,
      "t": 26625,
      "d": 183.59375,
      "v": 87
    },
    {
      "midi": 65,
      "hit": false,
      "t": 26812.5,
      "d": 183.59375,
      "v": 87
    },
    {
      "midi": 64,
      "hit": false,
      "t": 27000,
      "d": 183.59375,
      "v": 87
    },
    {
      "midi": 65,
      "hit": false,
      "t": 27187.5,
      "d": 183.59375,
      "v": 87
    },
    {
      "midi": 60,
      "hit": false,
      "t": 27375,
      "d": 183.59375,
      "v": 87
    },
    {
      "midi": 65,
      "hit": false,
      "t": 27562.5,
      "d": 183.59375,
      "v": 87
    },
    {
      "midi": 62,
      "hit": false,
      "t": 27750,
      "d": 183.59375,
      "v": 87
    },
    {
      "midi": 65,
      "hit": false,
      "t": 27937.5,
      "d": 183.59375,
      "v": 87
    },
    {
      "midi": 60,
      "hit": false,
      "t": 28125,
      "d": 183.59375,
      "v": 87
    },
    {
      "midi": 65,
      "hit": false,
      "t": 28312.5,
      "d": 183.59375,
      "v": 87
    },
    {
      "midi": 74,
      "hit": false,
      "t": 28500,
      "d": 746.09375,
      "v": 103
    },
    {
      "midi": 62,
      "hit": false,
      "t": 28500,
      "d": 183.59375,
      "v": 87
    },
    {
      "midi": 69,
      "hit": false,
      "t": 28687.5,
      "d": 183.59375,
      "v": 87
    },
    {
      "midi": 62,
      "hit": false,
      "t": 28875,
      "d": 183.59375,
      "v": 87
    },
    {
      "midi": 69,
      "hit": false,
      "t": 29062.5,
      "d": 183.59375,
      "v": 87
    },
    {
      "midi": 76,
      "hit": false,
      "t": 29250,
      "d": 746.09375,
      "v": 103
    },
    {
      "midi": 64,
      "hit": false,
      "t": 29250,
      "d": 183.59375,
      "v": 87
    },
    {
      "midi": 69,
      "hit": false,
      "t": 29437.5,
      "d": 183.59375,
      "v": 87
    },
    {
      "midi": 64,
      "hit": false,
      "t": 29625,
      "d": 183.59375,
      "v": 87
    },
    {
      "midi": 69,
      "hit": false,
      "t": 29812.5,
      "d": 183.59375,
      "v": 87
    },
    {
      "midi": 77,
      "hit": false,
      "t": 30000,
      "d": 746.09375,
      "v": 103
    },
    {
      "midi": 68,
      "hit": false,
      "t": 30000,
      "d": 183.59375,
      "v": 87
    },
    {
      "midi": 71,
      "hit": false,
      "t": 30187.5,
      "d": 183.59375,
      "v": 87
    },
    {
      "midi": 68,
      "hit": false,
      "t": 30375,
      "d": 183.59375,
      "v": 87
    },
    {
      "midi": 71,
      "hit": false,
      "t": 30562.5,
      "d": 183.59375,
      "v": 87
    },
    {
      "midi": 74,
      "hit": false,
      "t": 30750,
      "d": 746.09375,
      "v": 103
    },
    {
      "midi": 68,
      "hit": false,
      "t": 30750,
      "d": 183.59375,
      "v": 87
    },
    {
      "midi": 71,
      "hit": false,
      "t": 30937.5,
      "d": 183.59375,
      "v": 87
    },
    {
      "midi": 68,
      "hit": false,
      "t": 31125,
      "d": 183.59375,
      "v": 87
    },
    {
      "midi": 71,
      "hit": false,
      "t": 31312.5,
      "d": 183.59375,
      "v": 87
    },
    {
      "midi": 72,
      "hit": false,
      "t": 31500,
      "d": 183.59375,
      "v": 103
    },
    {
      "midi": 69,
      "hit": false,
      "t": 31500,
      "d": 183.59375,
      "v": 87
    },
    {
      "midi": 74,
      "hit": false,
      "t": 31687.5,
      "d": 183.59375,
      "v": 103
    },
    {
      "midi": 64,
      "hit": false,
      "t": 31687.5,
      "d": 183.59375,
      "v": 87
    },
    {
      "midi": 76,
      "hit": false,
      "t": 31875,
      "d": 183.59375,
      "v": 103
    },
    {
      "midi": 60,
      "hit": false,
      "t": 31875,
      "d": 183.59375,
      "v": 87
    },
    {
      "midi": 69,
      "hit": false,
      "t": 32062.5,
      "d": 183.59375,
      "v": 103
    },
    {
      "midi": 57,
      "hit": false,
      "t": 32062.5,
      "d": 183.59375,
      "v": 87
    },
    {
      "midi": 71,
      "hit": false,
      "t": 32250,
      "d": 183.59375,
      "v": 103
    },
    {
      "midi": 68,
      "hit": false,
      "t": 32250,
      "d": 183.59375,
      "v": 87
    },
    {
      "midi": 72,
      "hit": false,
      "t": 32437.5,
      "d": 183.59375,
      "v": 103
    },
    {
      "midi": 64,
      "hit": false,
      "t": 32437.5,
      "d": 183.59375,
      "v": 87
    },
    {
      "midi": 60,
      "hit": false,
      "t": 32625,
      "d": 183.59375,
      "v": 87
    },
    {
      "midi": 72,
      "hit": false,
      "t": 32812.5,
      "d": 183.59375,
      "v": 103
    },
    {
      "midi": 57,
      "hit": false,
      "t": 32812.5,
      "d": 183.59375,
      "v": 87
    },
    {
      "midi": 76,
      "hit": false,
      "t": 33000,
      "d": 183.59375,
      "v": 103
    },
    {
      "midi": 64,
      "hit": false,
      "t": 33000,
      "d": 183.59375,
      "v": 87
    },
    {
      "midi": 69,
      "hit": false,
      "t": 33187.5,
      "d": 183.59375,
      "v": 103
    },
    {
      "midi": 60,
      "hit": false,
      "t": 33187.5,
      "d": 183.59375,
      "v": 87
    },
    {
      "midi": 71,
      "hit": false,
      "t": 33375,
      "d": 183.59375,
      "v": 103
    },
    {
      "midi": 59,
      "hit": false,
      "t": 33375,
      "d": 183.59375,
      "v": 87
    },
    {
      "midi": 72,
      "hit": false,
      "t": 33562.5,
      "d": 933.59375,
      "v": 103
    },
    {
      "midi": 57,
      "hit": false,
      "t": 33562.5,
      "d": 183.59375,
      "v": 87
    },
    {
      "midi": 67,
      "hit": false,
      "t": 33750,
      "d": 183.59375,
      "v": 87
    },
    {
      "midi": 64,
      "hit": false,
      "t": 33937.5,
      "d": 183.59375,
      "v": 87
    },
    {
      "midi": 60,
      "hit": false,
      "t": 34125,
      "d": 183.59375,
      "v": 87
    },
    {
      "midi": 57,
      "hit": false,
      "t": 34312.5,
      "d": 183.59375,
      "v": 87
    },
    {
      "midi": 74,
      "hit": false,
      "t": 34500,
      "d": 746.09375,
      "v": 103
    },
    {
      "midi": 62,
      "hit": false,
      "t": 34500,
      "d": 183.59375,
      "v": 87
    },
    {
      "midi": 69,
      "hit": false,
      "t": 34687.5,
      "d": 183.59375,
      "v": 87
    },
    {
      "midi": 62,
      "hit": false,
      "t": 34875,
      "d": 183.59375,
      "v": 87
    },
    {
      "midi": 69,
      "hit": false,
      "t": 35062.5,
      "d": 183.59375,
      "v": 87
    },
    {
      "midi": 76,
      "hit": false,
      "t": 35250,
      "d": 746.09375,
      "v": 103
    },
    {
      "midi": 64,
      "hit": false,
      "t": 35250,
      "d": 183.59375,
      "v": 87
    },
    {
      "midi": 69,
      "hit": false,
      "t": 35437.5,
      "d": 183.59375,
      "v": 87
    },
    {
      "midi": 64,
      "hit": false,
      "t": 35625,
      "d": 183.59375,
      "v": 87
    },
    {
      "midi": 69,
      "hit": false,
      "t": 35812.5,
      "d": 183.59375,
      "v": 87
    },
    {
      "midi": 77,
      "hit": false,
      "t": 36000,
      "d": 746.09375,
      "v": 103
    },
    {
      "midi": 68,
      "hit": false,
      "t": 36000,
      "d": 183.59375,
      "v": 87
    },
    {
      "midi": 71,
      "hit": false,
      "t": 36187.5,
      "d": 183.59375,
      "v": 87
    },
    {
      "midi": 68,
      "hit": false,
      "t": 36375,
      "d": 183.59375,
      "v": 87
    },
    {
      "midi": 71,
      "hit": false,
      "t": 36562.5,
      "d": 183.59375,
      "v": 87
    },
    {
      "midi": 74,
      "hit": false,
      "t": 36750,
      "d": 746.09375,
      "v": 103
    },
    {
      "midi": 68,
      "hit": false,
      "t": 36750,
      "d": 183.59375,
      "v": 87
    },
    {
      "midi": 71,
      "hit": false,
      "t": 36937.5,
      "d": 183.59375,
      "v": 87
    },
    {
      "midi": 68,
      "hit": false,
      "t": 37125,
      "d": 183.59375,
      "v": 87
    },
    {
      "midi": 71,
      "hit": false,
      "t": 37312.5,
      "d": 183.59375,
      "v": 87
    },
    {
      "midi": 69,
      "hit": false,
      "t": 37500,
      "d": 136.71875,
      "v": 103
    },
    {
      "midi": 57,
      "hit": false,
      "t": 37500,
      "d": 183.59375,
      "v": 87
    },
    {
      "midi": 71,
      "hit": false,
      "t": 37687.5,
      "d": 136.71875,
      "v": 103
    },
    {
      "midi": 64,
      "hit": false,
      "t": 37687.5,
      "d": 183.59375,
      "v": 87
    },
    {
      "midi": 72,
      "hit": false,
      "t": 37875,
      "d": 371.09375,
      "v": 103
    },
    {
      "midi": 57,
      "hit": false,
      "t": 37875,
      "d": 183.59375,
      "v": 87
    },
    {
      "midi": 64,
      "hit": false,
      "t": 38062.5,
      "d": 183.59375,
      "v": 87
    },
    {
      "midi": 71,
      "hit": false,
      "t": 38250,
      "d": 136.71875,
      "v": 103
    },
    {
      "midi": 62,
      "hit": false,
      "t": 38250,
      "d": 183.59375,
      "v": 87
    },
    {
      "midi": 72,
      "hit": false,
      "t": 38437.5,
      "d": 136.71875,
      "v": 103
    },
    {
      "midi": 65,
      "hit": false,
      "t": 38437.5,
      "d": 183.59375,
      "v": 87
    },
    {
      "midi": 74,
      "hit": false,
      "t": 38625,
      "d": 371.09375,
      "v": 103
    },
    {
      "midi": 62,
      "hit": false,
      "t": 38625,
      "d": 183.59375,
      "v": 87
    },
    {
      "midi": 65,
      "hit": false,
      "t": 38812.5,
      "d": 183.59375,
      "v": 87
    },
    {
      "midi": 72,
      "hit": false,
      "t": 39000,
      "d": 136.71875,
      "v": 103
    },
    {
      "midi": 60,
      "hit": false,
      "t": 39000,
      "d": 183.59375,
      "v": 87
    },
    {
      "midi": 74,
      "hit": false,
      "t": 39187.5,
      "d": 136.71875,
      "v": 103
    },
    {
      "midi": 64,
      "hit": false,
      "t": 39187.5,
      "d": 183.59375,
      "v": 87
    },
    {
      "midi": 76,
      "hit": false,
      "t": 39375,
      "d": 371.09375,
      "v": 103
    },
    {
      "midi": 60,
      "hit": false,
      "t": 39375,
      "d": 183.59375,
      "v": 87
    },
    {
      "midi": 64,
      "hit": false,
      "t": 39562.5,
      "d": 183.59375,
      "v": 87
    },
    {
      "midi": 74,
      "hit": false,
      "t": 39750,
      "d": 183.59375,
      "v": 103
    },
    {
      "midi": 62,
      "hit": false,
      "t": 39750,
      "d": 183.59375,
      "v": 87
    },
    {
      "midi": 76,
      "hit": false,
      "t": 39937.5,
      "d": 183.59375,
      "v": 103
    },
    {
      "midi": 69,
      "hit": false,
      "t": 39937.5,
      "d": 183.59375,
      "v": 87
    },
    {
      "midi": 77,
      "hit": false,
      "t": 40125,
      "d": 183.59375,
      "v": 103
    },
    {
      "midi": 62,
      "hit": false,
      "t": 40125,
      "d": 183.59375,
      "v": 87
    },
    {
      "midi": 81,
      "hit": false,
      "t": 40312.5,
      "d": 183.59375,
      "v": 103
    },
    {
      "midi": 69,
      "hit": false,
      "t": 40312.5,
      "d": 183.59375,
      "v": 87
    },
    {
      "midi": 80,
      "hit": false,
      "t": 40500,
      "d": 1496.09375,
      "v": 103
    },
    {
      "midi": 71,
      "hit": false,
      "t": 40500,
      "d": 183.59375,
      "v": 87
    },
    {
      "midi": 64,
      "hit": false,
      "t": 40687.5,
      "d": 183.59375,
      "v": 87
    },
    {
      "midi": 68,
      "hit": false,
      "t": 40875,
      "d": 183.59375,
      "v": 87
    },
    {
      "midi": 64,
      "hit": false,
      "t": 41062.5,
      "d": 183.59375,
      "v": 87
    },
    {
      "midi": 71,
      "hit": false,
      "t": 41250,
      "d": 89.84375,
      "v": 87
    },
    {
      "midi": 59,
      "hit": false,
      "t": 41343.75,
      "d": 89.84375,
      "v": 87
    },
    {
      "midi": 64,
      "hit": false,
      "t": 41437.5,
      "d": 89.84375,
      "v": 87
    },
    {
      "midi": 68,
      "hit": false,
      "t": 41531.25,
      "d": 89.84375,
      "v": 87
    },
    {
      "midi": 71,
      "hit": false,
      "t": 41625,
      "d": 89.84375,
      "v": 87
    },
    {
      "midi": 68,
      "hit": false,
      "t": 41718.75,
      "d": 89.84375,
      "v": 87
    },
    {
      "midi": 64,
      "hit": false,
      "t": 41812.5,
      "d": 89.84375,
      "v": 87
    },
    {
      "midi": 59,
      "hit": false,
      "t": 41906.25,
      "d": 89.84375,
      "v": 87
    },
    {
      "midi": 76,
      "hit": false,
      "t": 42000,
      "d": 1496.09375,
      "v": 103
    },
    {
      "midi": 76,
      "hit": false,
      "t": 42000,
      "d": 183.59375,
      "v": 87
    },
    {
      "midi": 68,
      "hit": false,
      "t": 42187.5,
      "d": 183.59375,
      "v": 87
    },
    {
      "midi": 72,
      "hit": false,
      "t": 42375,
      "d": 183.59375,
      "v": 87
    },
    {
      "midi": 68,
      "hit": false,
      "t": 42562.5,
      "d": 183.59375,
      "v": 87
    },
    {
      "midi": 76,
      "hit": false,
      "t": 42750,
      "d": 89.84375,
      "v": 87
    },
    {
      "midi": 64,
      "hit": false,
      "t": 42843.75,
      "d": 89.84375,
      "v": 87
    },
    {
      "midi": 68,
      "hit": false,
      "t": 42937.5,
      "d": 89.84375,
      "v": 87
    },
    {
      "midi": 71,
      "hit": false,
      "t": 43031.25,
      "d": 89.84375,
      "v": 87
    },
    {
      "midi": 76,
      "hit": false,
      "t": 43125,
      "d": 89.84375,
      "v": 87
    },
    {
      "midi": 71,
      "hit": false,
      "t": 43218.75,
      "d": 89.84375,
      "v": 87
    },
    {
      "midi": 68,
      "hit": false,
      "t": 43312.5,
      "d": 89.84375,
      "v": 87
    },
    {
      "midi": 64,
      "hit": false,
      "t": 43406.25,
      "d": 89.84375,
      "v": 87
    },
    {
      "midi": 69,
      "hit": false,
      "t": 43500,
      "d": 1121.09375,
      "v": 103
    },
    {
      "midi": 60,
      "hit": false,
      "t": 43500,
      "d": 183.59375,
      "v": 87
    },
    {
      "midi": 64,
      "hit": false,
      "t": 43687.5,
      "d": 183.59375,
      "v": 87
    },
    {
      "midi": 60,
      "hit": false,
      "t": 43875,
      "d": 183.59375,
      "v": 87
    },
    {
      "midi": 64,
      "hit": false,
      "t": 44062.5,
      "d": 183.59375,
      "v": 87
    },
    {
      "midi": 62,
      "hit": false,
      "t": 44250,
      "d": 183.59375,
      "v": 87
    },
    {
      "midi": 66,
      "hit": false,
      "t": 44437.5,
      "d": 183.59375,
      "v": 87
    },
    {
      "midi": 71,
      "hit": false,
      "t": 44625,
      "d": 371.09375,
      "v": 103
    },
    {
      "midi": 62,
      "hit": false,
      "t": 44625,
      "d": 183.59375,
      "v": 87
    },
    {
      "midi": 66,
      "hit": false,
      "t": 44812.5,
      "d": 183.59375,
      "v": 87
    },
    {
      "midi": 72,
      "hit": false,
      "t": 45000,
      "d": 1121.09375,
      "v": 103
    },
    {
      "midi": 64,
      "hit": false,
      "t": 45000,
      "d": 183.59375,
      "v": 87
    },
    {
      "midi": 68,
      "hit": false,
      "t": 45187.5,
      "d": 183.59375,
      "v": 87
    },
    {
      "midi": 64,
      "hit": false,
      "t": 45375,
      "d": 183.59375,
      "v": 87
    },
    {
      "midi": 68,
      "hit": false,
      "t": 45562.5,
      "d": 183.59375,
      "v": 87
    },
    {
      "midi": 64,
      "hit": false,
      "t": 45750,
      "d": 183.59375,
      "v": 87
    },
    {
      "midi": 68,
      "hit": false,
      "t": 45937.5,
      "d": 183.59375,
      "v": 87
    },
    {
      "midi": 74,
      "hit": false,
      "t": 46125,
      "d": 371.09375,
      "v": 103
    },
    {
      "midi": 64,
      "hit": false,
      "t": 46125,
      "d": 183.59375,
      "v": 87
    },
    {
      "midi": 68,
      "hit": false,
      "t": 46312.5,
      "d": 183.59375,
      "v": 87
    },
    {
      "midi": 76,
      "hit": false,
      "t": 46500,
      "d": 371.09375,
      "v": 103
    },
    {
      "midi": 67,
      "hit": false,
      "t": 46500,
      "d": 89.84375,
      "v": 87
    },
    {
      "midi": 62,
      "hit": false,
      "t": 46593.75,
      "d": 89.84375,
      "v": 87
    },
    {
      "midi": 64,
      "hit": false,
      "t": 46687.5,
      "d": 89.84375,
      "v": 87
    },
    {
      "midi": 67,
      "hit": false,
      "t": 46781.25,
      "d": 89.84375,
      "v": 87
    },
    {
      "midi": 81,
      "hit": false,
      "t": 46875,
      "d": 371.09375,
      "v": 103
    },
    {
      "midi": 69,
      "hit": false,
      "t": 46875,
      "d": 89.84375,
      "v": 87
    },
    {
      "midi": 64,
      "hit": false,
      "t": 46968.75,
      "d": 89.84375,
      "v": 87
    },
    {
      "midi": 67,
      "hit": false,
      "t": 47062.5,
      "d": 89.84375,
      "v": 87
    },
    {
      "midi": 69,
      "hit": false,
      "t": 47156.25,
      "d": 89.84375,
      "v": 87
    },
    {
      "midi": 79,
      "hit": false,
      "t": 47250,
      "d": 371.09375,
      "v": 103
    },
    {
      "midi": 71,
      "hit": false,
      "t": 47250,
      "d": 89.84375,
      "v": 87
    },
    {
      "midi": 64,
      "hit": false,
      "t": 47343.75,
      "d": 89.84375,
      "v": 87
    },
    {
      "midi": 67,
      "hit": false,
      "t": 47437.5,
      "d": 89.84375,
      "v": 87
    },
    {
      "midi": 71,
      "hit": false,
      "t": 47531.25,
      "d": 89.84375,
      "v": 87
    },
    {
      "midi": 76,
      "hit": false,
      "t": 47625,
      "d": 371.09375,
      "v": 103
    },
    {
      "midi": 72,
      "hit": false,
      "t": 47625,
      "d": 89.84375,
      "v": 87
    },
    {
      "midi": 67,
      "hit": false,
      "t": 47718.75,
      "d": 89.84375,
      "v": 87
    },
    {
      "midi": 71,
      "hit": false,
      "t": 47812.5,
      "d": 89.84375,
      "v": 87
    },
    {
      "midi": 72,
      "hit": false,
      "t": 47906.25,
      "d": 89.84375,
      "v": 87
    },
    {
      "midi": 78,
      "hit": false,
      "t": 48000,
      "d": 183.59375,
      "v": 103
    },
    {
      "midi": 78,
      "hit": false,
      "t": 48000,
      "d": 183.59375,
      "v": 87
    },
    {
      "midi": 74,
      "hit": false,
      "t": 48187.5,
      "d": 89.84375,
      "v": 103
    },
    {
      "midi": 74,
      "hit": false,
      "t": 48187.5,
      "d": 183.59375,
      "v": 87
    },
    {
      "midi": 69,
      "hit": false,
      "t": 48375,
      "d": 89.84375,
      "v": 87
    },
    {
      "midi": 71,
      "hit": false,
      "t": 48468.75,
      "d": 89.84375,
      "v": 87
    },
    {
      "midi": 72,
      "hit": false,
      "t": 48562.5,
      "d": 89.84375,
      "v": 87
    },
    {
      "midi": 74,
      "hit": false,
      "t": 48656.25,
      "d": 89.84375,
      "v": 87
    },
    {
      "midi": 72,
      "hit": false,
      "t": 48750,
      "d": 89.84375,
      "v": 87
    },
    {
      "midi": 71,
      "hit": false,
      "t": 48843.75,
      "d": 89.84375,
      "v": 87
    },
    {
      "midi": 69,
      "hit": false,
      "t": 48937.5,
      "d": 89.84375,
      "v": 87
    },
    {
      "midi": 67,
      "hit": false,
      "t": 49031.25,
      "d": 89.84375,
      "v": 87
    },
    {
      "midi": 66,
      "hit": false,
      "t": 49125,
      "d": 89.84375,
      "v": 87
    },
    {
      "midi": 64,
      "hit": false,
      "t": 49218.75,
      "d": 89.84375,
      "v": 87
    },
    {
      "midi": 62,
      "hit": false,
      "t": 49312.5,
      "d": 183.59375,
      "v": 87
    },
    {
      "midi": 77,
      "hit": false,
      "t": 49500,
      "d": 371.09375,
      "v": 103
    },
    {
      "midi": 69,
      "hit": false,
      "t": 49500,
      "d": 183.59375,
      "v": 87
    },
    {
      "midi": 69,
      "hit": false,
      "t": 49687.5,
      "d": 183.59375,
      "v": 87
    },
    {
      "midi": 72,
      "hit": false,
      "t": 49875,
      "d": 371.09375,
      "v": 103
    },
    {
      "midi": 69,
      "hit": false,
      "t": 50250,
      "d": 371.09375,
      "v": 103
    },
    {
      "midi": 57,
      "hit": false,
      "t": 50250,
      "d": 89.84375,
      "v": 87
    },
    {
      "midi": 59,
      "hit": false,
      "t": 50343.75,
      "d": 89.84375,
      "v": 87
    },
    {
      "midi": 60,
      "hit": false,
      "t": 50437.5,
      "d": 89.84375,
      "v": 87
    },
    {
      "midi": 64,
      "hit": false,
      "t": 50531.25,
      "d": 89.84375,
      "v": 87
    },
    {
      "midi": 77,
      "hit": false,
      "t": 50625,
      "d": 371.09375,
      "v": 103
    },
    {
      "midi": 65,
      "hit": false,
      "t": 50625,
      "d": 371.09375,
      "v": 87
    },
    {
      "midi": 76,
      "hit": false,
      "t": 51000,
      "d": 371.09375,
      "v": 103
    },
    {
      "midi": 68,
      "hit": false,
      "t": 51000,
      "d": 183.59375,
      "v": 87
    },
    {
      "midi": 68,
      "hit": false,
      "t": 51187.5,
      "d": 183.59375,
      "v": 87
    },
    {
      "midi": 71,
      "hit": false,
      "t": 51375,
      "d": 371.09375,
      "v": 103
    },
    {
      "midi": 68,
      "hit": false,
      "t": 51750,
      "d": 371.09375,
      "v": 103
    },
    {
      "midi": 56,
      "hit": false,
      "t": 51750,
      "d": 89.84375,
      "v": 87
    },
    {
      "midi": 59,
      "hit": false,
      "t": 51843.75,
      "d": 89.84375,
      "v": 87
    },
    {
      "midi": 60,
      "hit": false,
      "t": 51937.5,
      "d": 89.84375,
      "v": 87
    },
    {
      "midi": 62,
      "hit": false,
      "t": 52031.25,
      "d": 89.84375,
      "v": 87
    },
    {
      "midi": 76,
      "hit": false,
      "t": 52125,
      "d": 371.09375,
      "v": 103
    },
    {
      "midi": 64,
      "hit": false,
      "t": 52125,
      "d": 371.09375,
      "v": 87
    },
    {
      "midi": 74,
      "hit": false,
      "t": 52500,
      "d": 371.09375,
      "v": 103
    },
    {
      "midi": 65,
      "hit": false,
      "t": 52500,
      "d": 183.59375,
      "v": 87
    },
    {
      "midi": 62,
      "hit": false,
      "t": 52687.5,
      "d": 183.59375,
      "v": 87
    },
    {
      "midi": 72,
      "hit": false,
      "t": 52875,
      "d": 371.09375,
      "v": 103
    },
    {
      "midi": 65,
      "hit": false,
      "t": 52875,
      "d": 183.59375,
      "v": 87
    },
    {
      "midi": 62,
      "hit": false,
      "t": 53062.5,
      "d": 183.59375,
      "v": 87
    },
    {
      "midi": 69,
      "hit": false,
      "t": 53250,
      "d": 371.09375,
      "v": 103
    },
    {
      "midi": 65,
      "hit": false,
      "t": 53250,
      "d": 183.59375,
      "v": 87
    },
    {
      "midi": 62,
      "hit": false,
      "t": 53437.5,
      "d": 183.59375,
      "v": 87
    },
    {
      "midi": 72,
      "hit": false,
      "t": 53625,
      "d": 371.09375,
      "v": 103
    },
    {
      "midi": 65,
      "hit": false,
      "t": 53625,
      "d": 183.59375,
      "v": 87
    },
    {
      "midi": 62,
      "hit": false,
      "t": 53812.5,
      "d": 183.59375,
      "v": 87
    },
    {
      "midi": 71,
      "hit": false,
      "t": 54000,
      "d": 183.59375,
      "v": 103
    },
    {
      "midi": 64,
      "hit": false,
      "t": 54000,
      "d": 183.59375,
      "v": 87
    },
    {
      "midi": 69,
      "hit": false,
      "t": 54187.5,
      "d": 183.59375,
      "v": 103
    },
    {
      "midi": 68,
      "hit": false,
      "t": 54375,
      "d": 183.59375,
      "v": 103
    },
    {
      "midi": 65,
      "hit": false,
      "t": 54562.5,
      "d": 183.59375,
      "v": 103
    },
    {
      "midi": 64,
      "hit": false,
      "t": 54750,
      "d": 183.59375,
      "v": 103
    },
    {
      "midi": 60,
      "hit": false,
      "t": 54937.5,
      "d": 183.59375,
      "v": 103
    },
    {
      "midi": 59,
      "hit": false,
      "t": 55125,
      "d": 183.59375,
      "v": 103
    },
    {
      "midi": 64,
      "hit": false,
      "t": 55312.5,
      "d": 183.59375,
      "v": 103
    },
    {
      "midi": 69,
      "hit": false,
      "t": 55500,
      "d": 1121.09375,
      "v": 103
    },
    {
      "midi": 60,
      "hit": false,
      "t": 55500,
      "d": 183.59375,
      "v": 87
    },
    {
      "midi": 64,
      "hit": false,
      "t": 55687.5,
      "d": 183.59375,
      "v": 87
    },
    {
      "midi": 60,
      "hit": false,
      "t": 55875,
      "d": 183.59375,
      "v": 87
    },
    {
      "midi": 64,
      "hit": false,
      "t": 56062.5,
      "d": 183.59375,
      "v": 87
    },
    {
      "midi": 62,
      "hit": false,
      "t": 56250,
      "d": 183.59375,
      "v": 87
    },
    {
      "midi": 66,
      "hit": false,
      "t": 56437.5,
      "d": 183.59375,
      "v": 87
    },
    {
      "midi": 71,
      "hit": false,
      "t": 56625,
      "d": 371.09375,
      "v": 103
    },
    {
      "midi": 62,
      "hit": false,
      "t": 56625,
      "d": 183.59375,
      "v": 87
    },
    {
      "midi": 66,
      "hit": false,
      "t": 56812.5,
      "d": 183.59375,
      "v": 87
    },
    {
      "midi": 72,
      "hit": false,
      "t": 57000,
      "d": 1121.09375,
      "v": 103
    },
    {
      "midi": 64,
      "hit": false,
      "t": 57000,
      "d": 183.59375,
      "v": 87
    },
    {
      "midi": 68,
      "hit": false,
      "t": 57187.5,
      "d": 183.59375,
      "v": 87
    },
    {
      "midi": 64,
      "hit": false,
      "t": 57375,
      "d": 183.59375,
      "v": 87
    },
    {
      "midi": 68,
      "hit": false,
      "t": 57562.5,
      "d": 183.59375,
      "v": 87
    },
    {
      "midi": 64,
      "hit": false,
      "t": 57750,
      "d": 183.59375,
      "v": 87
    },
    {
      "midi": 68,
      "hit": false,
      "t": 57937.5,
      "d": 183.59375,
      "v": 87
    },
    {
      "midi": 74,
      "hit": false,
      "t": 58125,
      "d": 371.09375,
      "v": 103
    },
    {
      "midi": 64,
      "hit": false,
      "t": 58125,
      "d": 183.59375,
      "v": 87
    },
    {
      "midi": 68,
      "hit": false,
      "t": 58312.5,
      "d": 183.59375,
      "v": 87
    },
    {
      "midi": 76,
      "hit": false,
      "t": 58500,
      "d": 371.09375,
      "v": 103
    },
    {
      "midi": 67,
      "hit": false,
      "t": 58500,
      "d": 89.84375,
      "v": 87
    },
    {
      "midi": 62,
      "hit": false,
      "t": 58593.75,
      "d": 89.84375,
      "v": 87
    },
    {
      "midi": 64,
      "hit": false,
      "t": 58687.5,
      "d": 89.84375,
      "v": 87
    },
    {
      "midi": 67,
      "hit": false,
      "t": 58781.25,
      "d": 89.84375,
      "v": 87
    },
    {
      "midi": 81,
      "hit": false,
      "t": 58875,
      "d": 371.09375,
      "v": 103
    },
    {
      "midi": 69,
      "hit": false,
      "t": 58875,
      "d": 89.84375,
      "v": 87
    },
    {
      "midi": 64,
      "hit": false,
      "t": 58968.75,
      "d": 89.84375,
      "v": 87
    },
    {
      "midi": 67,
      "hit": false,
      "t": 59062.5,
      "d": 89.84375,
      "v": 87
    },
    {
      "midi": 69,
      "hit": false,
      "t": 59156.25,
      "d": 89.84375,
      "v": 87
    },
    {
      "midi": 79,
      "hit": false,
      "t": 59250,
      "d": 371.09375,
      "v": 103
    },
    {
      "midi": 71,
      "hit": false,
      "t": 59250,
      "d": 89.84375,
      "v": 87
    },
    {
      "midi": 64,
      "hit": false,
      "t": 59343.75,
      "d": 89.84375,
      "v": 87
    },
    {
      "midi": 67,
      "hit": false,
      "t": 59437.5,
      "d": 89.84375,
      "v": 87
    },
    {
      "midi": 71,
      "hit": false,
      "t": 59531.25,
      "d": 89.84375,
      "v": 87
    },
    {
      "midi": 76,
      "hit": false,
      "t": 59625,
      "d": 371.09375,
      "v": 103
    },
    {
      "midi": 72,
      "hit": false,
      "t": 59625,
      "d": 89.84375,
      "v": 87
    },
    {
      "midi": 67,
      "hit": false,
      "t": 59718.75,
      "d": 89.84375,
      "v": 87
    },
    {
      "midi": 71,
      "hit": false,
      "t": 59812.5,
      "d": 89.84375,
      "v": 87
    },
    {
      "midi": 72,
      "hit": false,
      "t": 59906.25,
      "d": 89.84375,
      "v": 87
    },
    {
      "midi": 78,
      "hit": false,
      "t": 60000,
      "d": 183.59375,
      "v": 103
    },
    {
      "midi": 78,
      "hit": false,
      "t": 60000,
      "d": 183.59375,
      "v": 87
    },
    {
      "midi": 74,
      "hit": false,
      "t": 60187.5,
      "d": 89.84375,
      "v": 103
    },
    {
      "midi": 74,
      "hit": false,
      "t": 60187.5,
      "d": 183.59375,
      "v": 87
    },
    {
      "midi": 69,
      "hit": false,
      "t": 60375,
      "d": 89.84375,
      "v": 87
    },
    {
      "midi": 71,
      "hit": false,
      "t": 60468.75,
      "d": 89.84375,
      "v": 87
    },
    {
      "midi": 72,
      "hit": false,
      "t": 60562.5,
      "d": 89.84375,
      "v": 87
    },
    {
      "midi": 74,
      "hit": false,
      "t": 60656.25,
      "d": 89.84375,
      "v": 87
    },
    {
      "midi": 72,
      "hit": false,
      "t": 60750,
      "d": 89.84375,
      "v": 87
    },
    {
      "midi": 71,
      "hit": false,
      "t": 60843.75,
      "d": 89.84375,
      "v": 87
    },
    {
      "midi": 69,
      "hit": false,
      "t": 60937.5,
      "d": 89.84375,
      "v": 87
    },
    {
      "midi": 67,
      "hit": false,
      "t": 61031.25,
      "d": 89.84375,
      "v": 87
    },
    {
      "midi": 66,
      "hit": false,
      "t": 61125,
      "d": 89.84375,
      "v": 87
    },
    {
      "midi": 64,
      "hit": false,
      "t": 61218.75,
      "d": 89.84375,
      "v": 87
    },
    {
      "midi": 62,
      "hit": false,
      "t": 61312.5,
      "d": 183.59375,
      "v": 87
    },
    {
      "midi": 77,
      "hit": false,
      "t": 61500,
      "d": 371.09375,
      "v": 103
    },
    {
      "midi": 69,
      "hit": false,
      "t": 61500,
      "d": 183.59375,
      "v": 87
    },
    {
      "midi": 69,
      "hit": false,
      "t": 61687.5,
      "d": 183.59375,
      "v": 87
    },
    {
      "midi": 72,
      "hit": false,
      "t": 61875,
      "d": 371.09375,
      "v": 103
    },
    {
      "midi": 69,
      "hit": false,
      "t": 62250,
      "d": 371.09375,
      "v": 103
    },
    {
      "midi": 57,
      "hit": false,
      "t": 62250,
      "d": 89.84375,
      "v": 87
    },
    {
      "midi": 59,
      "hit": false,
      "t": 62343.75,
      "d": 89.84375,
      "v": 87
    },
    {
      "midi": 60,
      "hit": false,
      "t": 62437.5,
      "d": 89.84375,
      "v": 87
    },
    {
      "midi": 64,
      "hit": false,
      "t": 62531.25,
      "d": 89.84375,
      "v": 87
    },
    {
      "midi": 77,
      "hit": false,
      "t": 62625,
      "d": 371.09375,
      "v": 103
    },
    {
      "midi": 65,
      "hit": false,
      "t": 62625,
      "d": 371.09375,
      "v": 87
    },
    {
      "midi": 76,
      "hit": false,
      "t": 63000,
      "d": 371.09375,
      "v": 103
    },
    {
      "midi": 68,
      "hit": false,
      "t": 63000,
      "d": 183.59375,
      "v": 87
    },
    {
      "midi": 68,
      "hit": false,
      "t": 63187.5,
      "d": 183.59375,
      "v": 87
    },
    {
      "midi": 71,
      "hit": false,
      "t": 63375,
      "d": 371.09375,
      "v": 103
    },
    {
      "midi": 68,
      "hit": false,
      "t": 63750,
      "d": 371.09375,
      "v": 103
    },
    {
      "midi": 56,
      "hit": false,
      "t": 63750,
      "d": 89.84375,
      "v": 87
    },
    {
      "midi": 59,
      "hit": false,
      "t": 63843.75,
      "d": 89.84375,
      "v": 87
    },
    {
      "midi": 60,
      "hit": false,
      "t": 63937.5,
      "d": 89.84375,
      "v": 87
    },
    {
      "midi": 62,
      "hit": false,
      "t": 64031.25,
      "d": 89.84375,
      "v": 87
    },
    {
      "midi": 71,
      "hit": false,
      "t": 64125,
      "d": 371.09375,
      "v": 103
    },
    {
      "midi": 64,
      "hit": false,
      "t": 64125,
      "d": 371.09375,
      "v": 87
    },
    {
      "midi": 69,
      "hit": false,
      "t": 64500,
      "d": 2996.09375,
      "v": 103
    },
    {
      "midi": 64,
      "hit": false,
      "t": 64500,
      "d": 183.59375,
      "v": 87
    },
    {
      "midi": 65,
      "hit": false,
      "t": 64687.5,
      "d": 183.59375,
      "v": 87
    },
    {
      "midi": 62,
      "hit": false,
      "t": 64875,
      "d": 183.59375,
      "v": 87
    },
    {
      "midi": 65,
      "hit": false,
      "t": 65062.5,
      "d": 183.59375,
      "v": 87
    },
    {
      "midi": 60,
      "hit": false,
      "t": 65250,
      "d": 183.59375,
      "v": 87
    },
    {
      "midi": 65,
      "hit": false,
      "t": 65437.5,
      "d": 183.59375,
      "v": 87
    },
    {
      "midi": 62,
      "hit": false,
      "t": 65625,
      "d": 183.59375,
      "v": 87
    },
    {
      "midi": 65,
      "hit": false,
      "t": 65812.5,
      "d": 183.59375,
      "v": 87
    },
    {
      "midi": 64,
      "hit": false,
      "t": 66000,
      "d": 183.59375,
      "v": 87
    },
    {
      "midi": 65,
      "hit": false,
      "t": 66187.5,
      "d": 183.59375,
      "v": 87
    },
    {
      "midi": 60,
      "hit": false,
      "t": 66375,
      "d": 183.59375,
      "v": 87
    },
    {
      "midi": 65,
      "hit": false,
      "t": 66562.5,
      "d": 183.59375,
      "v": 87
    },
    {
      "midi": 62,
      "hit": false,
      "t": 66750,
      "d": 183.59375,
      "v": 87
    },
    {
      "midi": 65,
      "hit": false,
      "t": 66937.5,
      "d": 183.59375,
      "v": 87
    },
    {
      "midi": 60,
      "hit": false,
      "t": 67125,
      "d": 183.59375,
      "v": 87
    },
    {
      "midi": 65,
      "hit": false,
      "t": 67312.5,
      "d": 183.59375,
      "v": 87
    },
    {
      "midi": 74,
      "hit": false,
      "t": 67500,
      "d": 746.09375,
      "v": 103
    },
    {
      "midi": 62,
      "hit": false,
      "t": 67500,
      "d": 183.59375,
      "v": 87
    },
    {
      "midi": 69,
      "hit": false,
      "t": 67687.5,
      "d": 183.59375,
      "v": 87
    },
    {
      "midi": 62,
      "hit": false,
      "t": 67875,
      "d": 183.59375,
      "v": 87
    },
    {
      "midi": 69,
      "hit": false,
      "t": 68062.5,
      "d": 183.59375,
      "v": 87
    },
    {
      "midi": 76,
      "hit": false,
      "t": 68250,
      "d": 746.09375,
      "v": 103
    },
    {
      "midi": 64,
      "hit": false,
      "t": 68250,
      "d": 183.59375,
      "v": 87
    },
    {
      "midi": 69,
      "hit": false,
      "t": 68437.5,
      "d": 183.59375,
      "v": 87
    },
    {
      "midi": 64,
      "hit": false,
      "t": 68625,
      "d": 183.59375,
      "v": 87
    },
    {
      "midi": 69,
      "hit": false,
      "t": 68812.5,
      "d": 183.59375,
      "v": 87
    },
    {
      "midi": 77,
      "hit": false,
      "t": 69000,
      "d": 746.09375,
      "v": 103
    },
    {
      "midi": 68,
      "hit": false,
      "t": 69000,
      "d": 183.59375,
      "v": 87
    },
    {
      "midi": 71,
      "hit": false,
      "t": 69187.5,
      "d": 183.59375,
      "v": 87
    },
    {
      "midi": 68,
      "hit": false,
      "t": 69375,
      "d": 183.59375,
      "v": 87
    },
    {
      "midi": 71,
      "hit": false,
      "t": 69562.5,
      "d": 183.59375,
      "v": 87
    },
    {
      "midi": 74,
      "hit": false,
      "t": 69750,
      "d": 746.09375,
      "v": 103
    },
    {
      "midi": 68,
      "hit": false,
      "t": 69750,
      "d": 183.59375,
      "v": 87
    },
    {
      "midi": 71,
      "hit": false,
      "t": 69937.5,
      "d": 183.59375,
      "v": 87
    },
    {
      "midi": 68,
      "hit": false,
      "t": 70125,
      "d": 183.59375,
      "v": 87
    },
    {
      "midi": 71,
      "hit": false,
      "t": 70312.5,
      "d": 183.59375,
      "v": 87
    },
    {
      "midi": 72,
      "hit": false,
      "t": 70500,
      "d": 183.59375,
      "v": 103
    },
    {
      "midi": 69,
      "hit": false,
      "t": 70500,
      "d": 183.59375,
      "v": 87
    },
    {
      "midi": 74,
      "hit": false,
      "t": 70687.5,
      "d": 183.59375,
      "v": 103
    },
    {
      "midi": 64,
      "hit": false,
      "t": 70687.5,
      "d": 183.59375,
      "v": 87
    },
    {
      "midi": 76,
      "hit": false,
      "t": 70875,
      "d": 183.59375,
      "v": 103
    },
    {
      "midi": 60,
      "hit": false,
      "t": 70875,
      "d": 183.59375,
      "v": 87
    },
    {
      "midi": 69,
      "hit": false,
      "t": 71062.5,
      "d": 183.59375,
      "v": 103
    },
    {
      "midi": 57,
      "hit": false,
      "t": 71062.5,
      "d": 183.59375,
      "v": 87
    },
    {
      "midi": 71,
      "hit": false,
      "t": 71250,
      "d": 183.59375,
      "v": 103
    },
    {
      "midi": 68,
      "hit": false,
      "t": 71250,
      "d": 183.59375,
      "v": 87
    },
    {
      "midi": 72,
      "hit": false,
      "t": 71437.5,
      "d": 183.59375,
      "v": 103
    },
    {
      "midi": 64,
      "hit": false,
      "t": 71437.5,
      "d": 183.59375,
      "v": 87
    },
    {
      "midi": 60,
      "hit": false,
      "t": 71625,
      "d": 183.59375,
      "v": 87
    },
    {
      "midi": 72,
      "hit": false,
      "t": 71812.5,
      "d": 183.59375,
      "v": 103
    },
    {
      "midi": 57,
      "hit": false,
      "t": 71812.5,
      "d": 183.59375,
      "v": 87
    },
    {
      "midi": 76,
      "hit": false,
      "t": 72000,
      "d": 183.59375,
      "v": 103
    },
    {
      "midi": 64,
      "hit": false,
      "t": 72000,
      "d": 183.59375,
      "v": 87
    },
    {
      "midi": 69,
      "hit": false,
      "t": 72187.5,
      "d": 183.59375,
      "v": 103
    },
    {
      "midi": 60,
      "hit": false,
      "t": 72187.5,
      "d": 183.59375,
      "v": 87
    },
    {
      "midi": 71,
      "hit": false,
      "t": 72375,
      "d": 183.59375,
      "v": 103
    },
    {
      "midi": 59,
      "hit": false,
      "t": 72375,
      "d": 183.59375,
      "v": 87
    },
    {
      "midi": 72,
      "hit": false,
      "t": 72562.5,
      "d": 933.59375,
      "v": 103
    },
    {
      "midi": 57,
      "hit": false,
      "t": 72562.5,
      "d": 183.59375,
      "v": 87
    },
    {
      "midi": 67,
      "hit": false,
      "t": 72750,
      "d": 183.59375,
      "v": 87
    },
    {
      "midi": 64,
      "hit": false,
      "t": 72937.5,
      "d": 183.59375,
      "v": 87
    },
    {
      "midi": 60,
      "hit": false,
      "t": 73125,
      "d": 183.59375,
      "v": 87
    },
    {
      "midi": 57,
      "hit": false,
      "t": 73312.5,
      "d": 183.59375,
      "v": 87
    },
    {
      "midi": 74,
      "hit": false,
      "t": 73500,
      "d": 746.09375,
      "v": 103
    },
    {
      "midi": 62,
      "hit": false,
      "t": 73500,
      "d": 183.59375,
      "v": 87
    },
    {
      "midi": 69,
      "hit": false,
      "t": 73687.5,
      "d": 183.59375,
      "v": 87
    },
    {
      "midi": 62,
      "hit": false,
      "t": 73875,
      "d": 183.59375,
      "v": 87
    },
    {
      "midi": 69,
      "hit": false,
      "t": 74062.5,
      "d": 183.59375,
      "v": 87
    },
    {
      "midi": 76,
      "hit": false,
      "t": 74250,
      "d": 746.09375,
      "v": 103
    },
    {
      "midi": 64,
      "hit": false,
      "t": 74250,
      "d": 183.59375,
      "v": 87
    },
    {
      "midi": 69,
      "hit": false,
      "t": 74437.5,
      "d": 183.59375,
      "v": 87
    },
    {
      "midi": 64,
      "hit": false,
      "t": 74625,
      "d": 183.59375,
      "v": 87
    },
    {
      "midi": 69,
      "hit": false,
      "t": 74812.5,
      "d": 183.59375,
      "v": 87
    },
    {
      "midi": 77,
      "hit": false,
      "t": 75000,
      "d": 746.09375,
      "v": 103
    },
    {
      "midi": 68,
      "hit": false,
      "t": 75000,
      "d": 183.59375,
      "v": 87
    },
    {
      "midi": 71,
      "hit": false,
      "t": 75187.5,
      "d": 183.59375,
      "v": 87
    },
    {
      "midi": 68,
      "hit": false,
      "t": 75375,
      "d": 183.59375,
      "v": 87
    },
    {
      "midi": 71,
      "hit": false,
      "t": 75562.5,
      "d": 183.59375,
      "v": 87
    },
    {
      "midi": 74,
      "hit": false,
      "t": 75750,
      "d": 746.09375,
      "v": 103
    },
    {
      "midi": 68,
      "hit": false,
      "t": 75750,
      "d": 183.59375,
      "v": 87
    },
    {
      "midi": 71,
      "hit": false,
      "t": 75937.5,
      "d": 183.59375,
      "v": 87
    },
    {
      "midi": 68,
      "hit": false,
      "t": 76125,
      "d": 183.59375,
      "v": 87
    },
    {
      "midi": 71,
      "hit": false,
      "t": 76312.5,
      "d": 183.59375,
      "v": 87
    },
    {
      "midi": 69,
      "hit": false,
      "t": 76500,
      "d": 136.71875,
      "v": 103
    },
    {
      "midi": 57,
      "hit": false,
      "t": 76500,
      "d": 183.59375,
      "v": 87
    },
    {
      "midi": 71,
      "hit": false,
      "t": 76687.5,
      "d": 136.71875,
      "v": 103
    },
    {
      "midi": 64,
      "hit": false,
      "t": 76687.5,
      "d": 183.59375,
      "v": 87
    },
    {
      "midi": 72,
      "hit": false,
      "t": 76875,
      "d": 371.09375,
      "v": 103
    },
    {
      "midi": 57,
      "hit": false,
      "t": 76875,
      "d": 183.59375,
      "v": 87
    },
    {
      "midi": 64,
      "hit": false,
      "t": 77062.5,
      "d": 183.59375,
      "v": 87
    },
    {
      "midi": 71,
      "hit": false,
      "t": 77250,
      "d": 136.71875,
      "v": 103
    },
    {
      "midi": 62,
      "hit": false,
      "t": 77250,
      "d": 183.59375,
      "v": 87
    },
    {
      "midi": 72,
      "hit": false,
      "t": 77437.5,
      "d": 136.71875,
      "v": 103
    },
    {
      "midi": 65,
      "hit": false,
      "t": 77437.5,
      "d": 183.59375,
      "v": 87
    },
    {
      "midi": 74,
      "hit": false,
      "t": 77625,
      "d": 371.09375,
      "v": 103
    },
    {
      "midi": 62,
      "hit": false,
      "t": 77625,
      "d": 183.59375,
      "v": 87
    },
    {
      "midi": 65,
      "hit": false,
      "t": 77812.5,
      "d": 183.59375,
      "v": 87
    },
    {
      "midi": 72,
      "hit": false,
      "t": 78000,
      "d": 136.71875,
      "v": 103
    },
    {
      "midi": 60,
      "hit": false,
      "t": 78000,
      "d": 183.59375,
      "v": 87
    },
    {
      "midi": 74,
      "hit": false,
      "t": 78187.5,
      "d": 136.71875,
      "v": 103
    },
    {
      "midi": 64,
      "hit": false,
      "t": 78187.5,
      "d": 183.59375,
      "v": 87
    },
    {
      "midi": 76,
      "hit": false,
      "t": 78375,
      "d": 371.09375,
      "v": 103
    },
    {
      "midi": 60,
      "hit": false,
      "t": 78375,
      "d": 183.59375,
      "v": 87
    },
    {
      "midi": 64,
      "hit": false,
      "t": 78562.5,
      "d": 183.59375,
      "v": 87
    },
    {
      "midi": 74,
      "hit": false,
      "t": 78750,
      "d": 183.59375,
      "v": 103
    },
    {
      "midi": 62,
      "hit": false,
      "t": 78750,
      "d": 183.59375,
      "v": 87
    },
    {
      "midi": 76,
      "hit": false,
      "t": 78937.5,
      "d": 183.59375,
      "v": 103
    },
    {
      "midi": 69,
      "hit": false,
      "t": 78937.5,
      "d": 183.59375,
      "v": 87
    },
    {
      "midi": 77,
      "hit": false,
      "t": 79125,
      "d": 183.59375,
      "v": 103
    },
    {
      "midi": 62,
      "hit": false,
      "t": 79125,
      "d": 183.59375,
      "v": 87
    },
    {
      "midi": 81,
      "hit": false,
      "t": 79312.5,
      "d": 183.59375,
      "v": 103
    },
    {
      "midi": 69,
      "hit": false,
      "t": 79312.5,
      "d": 183.59375,
      "v": 87
    },
    {
      "midi": 80,
      "hit": false,
      "t": 79500,
      "d": 1496.09375,
      "v": 103
    },
    {
      "midi": 71,
      "hit": false,
      "t": 79500,
      "d": 183.59375,
      "v": 87
    },
    {
      "midi": 64,
      "hit": false,
      "t": 79687.5,
      "d": 183.59375,
      "v": 87
    },
    {
      "midi": 68,
      "hit": false,
      "t": 79875,
      "d": 183.59375,
      "v": 87
    },
    {
      "midi": 64,
      "hit": false,
      "t": 80062.5,
      "d": 183.59375,
      "v": 87
    },
    {
      "midi": 71,
      "hit": false,
      "t": 80250,
      "d": 89.84375,
      "v": 87
    },
    {
      "midi": 59,
      "hit": false,
      "t": 80343.75,
      "d": 89.84375,
      "v": 87
    },
    {
      "midi": 64,
      "hit": false,
      "t": 80437.5,
      "d": 89.84375,
      "v": 87
    },
    {
      "midi": 68,
      "hit": false,
      "t": 80531.25,
      "d": 89.84375,
      "v": 87
    },
    {
      "midi": 71,
      "hit": false,
      "t": 80625,
      "d": 89.84375,
      "v": 87
    },
    {
      "midi": 68,
      "hit": false,
      "t": 80718.75,
      "d": 89.84375,
      "v": 87
    },
    {
      "midi": 64,
      "hit": false,
      "t": 80812.5,
      "d": 89.84375,
      "v": 87
    },
    {
      "midi": 59,
      "hit": false,
      "t": 80906.25,
      "d": 89.84375,
      "v": 87
    },
    {
      "midi": 76,
      "hit": false,
      "t": 81000,
      "d": 1496.09375,
      "v": 103
    },
    {
      "midi": 76,
      "hit": false,
      "t": 81000,
      "d": 183.59375,
      "v": 87
    },
    {
      "midi": 68,
      "hit": false,
      "t": 81187.5,
      "d": 183.59375,
      "v": 87
    },
    {
      "midi": 72,
      "hit": false,
      "t": 81375,
      "d": 183.59375,
      "v": 87
    },
    {
      "midi": 68,
      "hit": false,
      "t": 81562.5,
      "d": 183.59375,
      "v": 87
    },
    {
      "midi": 76,
      "hit": false,
      "t": 81750,
      "d": 89.84375,
      "v": 87
    },
    {
      "midi": 64,
      "hit": false,
      "t": 81843.75,
      "d": 89.84375,
      "v": 87
    },
    {
      "midi": 68,
      "hit": false,
      "t": 81937.5,
      "d": 89.84375,
      "v": 87
    },
    {
      "midi": 71,
      "hit": false,
      "t": 82031.25,
      "d": 89.84375,
      "v": 87
    },
    {
      "midi": 76,
      "hit": false,
      "t": 82125,
      "d": 89.84375,
      "v": 87
    },
    {
      "midi": 71,
      "hit": false,
      "t": 82218.75,
      "d": 89.84375,
      "v": 87
    },
    {
      "midi": 68,
      "hit": false,
      "t": 82312.5,
      "d": 89.84375,
      "v": 87
    },
    {
      "midi": 64,
      "hit": false,
      "t": 82406.25,
      "d": 89.84375,
      "v": 87
    }
  ]
}