{
  "jsonPath": "Soundtracks/Video Game Music/Final Fantasy 3/final-fantasy-3-kefkastowerdancingmadkefka.json",
  "path": "Soundtracks\\Video Game Music\\Final Fantasy 3\\Final_Fantasy_3_KefkasTowerDancingMadKefka.mid",
  "name": "Final_Fantasy_3_KefkasTowerDancingMadKefka",
  "difficulty": "Advanced",
  "bpm": 123.99999173333389,
  "notes": [
    {
      "midi": 37,
      "hit": false,
      "t": 0,
      "d": 205.645175,
      "v": 127
    },
    {
      "midi": 39,
      "hit": false,
      "t": 241.9355,
      "d": 101.81452291666665,
      "v": 127
    },
    {
      "midi": 40,
      "hit": false,
      "t": 362.90324999999996,
      "d": 229.83872499999995,
      "v": 127
    },
    {
      "midi": 39,
      "hit": false,
      "t": 604.8387499999999,
      "d": 133.064525,
      "v": 127
    },
    {
      "midi": 37,
      "hit": false,
      "t": 725.8064999999999,
      "d": 209.67743333333328,
      "v": 127
    },
    {
      "midi": 39,
      "hit": false,
      "t": 967.7419999999998,
      "d": 140.1209770833333,
      "v": 127
    },
    {
      "midi": 40,
      "hit": false,
      "t": 1088.7097499999998,
      "d": 256.0484041666666,
      "v": 127
    },
    {
      "midi": 39,
      "hit": false,
      "t": 1330.6452499999998,
      "d": 117.9435562499998,
      "v": 127
    },
    {
      "midi": 37,
      "hit": false,
      "t": 1451.6129999999996,
      "d": 236.89517708333324,
      "v": 127
    },
    {
      "midi": 39,
      "hit": false,
      "t": 1693.5484999999994,
      "d": 229.83872500000007,
      "v": 127
    },
    {
      "midi": 37,
      "hit": false,
      "t": 1935.4839999999995,
      "d": 217.7419500000001,
      "v": 127
    },
    {
      "midi": 39,
      "hit": false,
      "t": 2177.4194999999995,
      "d": 136.08871874999977,
      "v": 127
    },
    {
      "midi": 40,
      "hit": false,
      "t": 2298.3872499999993,
      "d": 254.03227500000003,
      "v": 127
    },
    {
      "midi": 39,
      "hit": false,
      "t": 2540.3227499999994,
      "d": 140.12097708333295,
      "v": 127
    },
    {
      "midi": 37,
      "hit": false,
      "t": 2661.290499999999,
      "d": 222.78227291666644,
      "v": 127
    },
    {
      "midi": 39,
      "hit": false,
      "t": 2903.2259999999987,
      "d": 154.23388124999974,
      "v": 127
    },
    {
      "midi": 40,
      "hit": false,
      "t": 3024.1937499999985,
      "d": 254.03227500000003,
      "v": 127
    },
    {
      "midi": 39,
      "hit": false,
      "t": 3266.1292499999986,
      "d": 133.06452499999978,
      "v": 127
    },
    {
      "midi": 37,
      "hit": false,
      "t": 3387.0969999999984,
      "d": 234.87904791666688,
      "v": 127
    },
    {
      "midi": 39,
      "hit": false,
      "t": 3629.0324999999984,
      "d": 238.91130625000005,
      "v": 127
    },
    {
      "midi": 37,
      "hit": false,
      "t": 3870.9679999999985,
      "d": 222.7822729166669,
      "v": 127
    },
    {
      "midi": 39,
      "hit": false,
      "t": 4112.9034999999985,
      "d": 143.1451708333334,
      "v": 127
    },
    {
      "midi": 40,
      "hit": false,
      "t": 4233.871249999998,
      "d": 239.91937083333323,
      "v": 127
    },
    {
      "midi": 39,
      "hit": false,
      "t": 4475.806749999998,
      "d": 140.12097708333295,
      "v": 127
    },
    {
      "midi": 37,
      "hit": false,
      "t": 4596.774499999998,
      "d": 217.74194999999963,
      "v": 127
    },
    {
      "midi": 39,
      "hit": false,
      "t": 4838.709999999997,
      "d": 152.21775208333293,
      "v": 127
    },
    {
      "midi": 40,
      "hit": false,
      "t": 4959.677749999997,
      "d": 271.16937291666636,
      "v": 127
    },
    {
      "midi": 39,
      "hit": false,
      "t": 5201.613249999997,
      "d": 140.12097708333295,
      "v": 127
    },
    {
      "midi": 37,
      "hit": false,
      "t": 5322.5809999999965,
      "d": 219.7580791666669,
      "v": 127
    },
    {
      "midi": 39,
      "hit": false,
      "t": 5564.516499999997,
      "d": 229.8387249999996,
      "v": 127
    },
    {
      "midi": 37,
      "hit": false,
      "t": 5806.451999999997,
      "d": 229.8387249999996,
      "v": 127
    },
    {
      "midi": 39,
      "hit": false,
      "t": 6048.387499999996,
      "d": 140.12097708333295,
      "v": 127
    },
    {
      "midi": 40,
      "hit": false,
      "t": 6169.355249999996,
      "d": 245.96775833333322,
      "v": 127
    },
    {
      "midi": 39,
      "hit": false,
      "t": 6411.290749999996,
      "d": 136.08871875000114,
      "v": 127
    },
    {
      "midi": 37,
      "hit": false,
      "t": 6532.258499999996,
      "d": 224.7984020833337,
      "v": 127
    },
    {
      "midi": 39,
      "hit": false,
      "t": 6774.193999999997,
      "d": 159.2742041666661,
      "v": 127
    },
    {
      "midi": 40,
      "hit": false,
      "t": 6895.161749999997,
      "d": 238.91130625000005,
      "v": 127
    },
    {
      "midi": 39,
      "hit": false,
      "t": 7137.097249999997,
      "d": 120.9677499999998,
      "v": 127
    },
    {
      "midi": 37,
      "hit": false,
      "t": 7258.064999999997,
      "d": 234.87904791666642,
      "v": 127
    },
    {
      "midi": 39,
      "hit": false,
      "t": 7500.0004999999965,
      "d": 202.6209812500001,
      "v": 127
    },
    {
      "midi": 37,
      "hit": false,
      "t": 7741.935999999997,
      "d": 212.70162708333373,
      "v": 127
    },
    {
      "midi": 39,
      "hit": false,
      "t": 7983.8714999999975,
      "d": 120.9677499999998,
      "v": 127
    },
    {
      "midi": 80,
      "hit": false,
      "t": 7983.8715,
      "d": 145.16129999999976,
      "v": 127
    },
    {
      "midi": 78,
      "hit": false,
      "t": 7983.8715,
      "d": 215.72582083333236,
      "v": 127
    },
    {
      "midi": 40,
      "hit": false,
      "t": 8104.839249999997,
      "d": 229.8387249999996,
      "v": 127
    },
    {
      "midi": 80,
      "hit": false,
      "t": 8225.806999999999,
      "d": 143.1451708333334,
      "v": 127
    },
    {
      "midi": 76,
      "hit": false,
      "t": 8225.806999999999,
      "d": 205.64517499999965,
      "v": 127
    },
    {
      "midi": 39,
      "hit": false,
      "t": 8346.774749999997,
      "d": 96.77419999999984,
      "v": 127
    },
    {
      "midi": 37,
      "hit": false,
      "t": 8467.742499999997,
      "d": 248.99195208333367,
      "v": 127
    },
    {
      "midi": 80,
      "hit": false,
      "t": 8467.742499999998,
      "d": 130.04033125000024,
      "v": 127
    },
    {
      "midi": 75,
      "hit": false,
      "t": 8467.742499999998,
      "d": 179.43549583333333,
      "v": 127
    },
    {
      "midi": 44,
      "hit": false,
      "t": 8709.677999999996,
      "d": 131.04839583333523,
      "v": 127
    },
    {
      "midi": 73,
      "hit": false,
      "t": 8709.677999999998,
      "d": 166.33065625000017,
      "v": 127
    },
    {
      "midi": 80,
      "hit": false,
      "t": 8709.677999999998,
      "d": 248.99195208333367,
      "v": 127
    },
    {
      "midi": 49,
      "hit": false,
      "t": 8830.645749999998,
      "d": 226.81453125000007,
      "v": 127
    },
    {
      "midi": 73,
      "hit": false,
      "t": 8951.613499999998,
      "d": 120.96775000000162,
      "v": 127
    },
    {
      "midi": 42,
      "hit": false,
      "t": 9072.581249999997,
      "d": 129.03226666666706,
      "v": 127
    },
    {
      "midi": 83,
      "hit": false,
      "t": 9072.58125,
      "d": 162.29839791666745,
      "v": 127
    },
    {
      "midi": 76,
      "hit": false,
      "t": 9072.58125,
      "d": 222.78227291666735,
      "v": 127
    },
    {
      "midi": 47,
      "hit": false,
      "t": 9193.548999999997,
      "d": 217.74195000000145,
      "v": 127
    },
    {
      "midi": 81,
      "hit": false,
      "t": 9314.51675,
      "d": 77.62097291666578,
      "v": 127
    },
    {
      "midi": 75,
      "hit": false,
      "t": 9314.51675,
      "d": 91.73387708333212,
      "v": 127
    },
    {
      "midi": 73,
      "hit": false,
      "t": 9435.484499999999,
      "d": 215.72582083333327,
      "v": 127
    },
    {
      "midi": 79,
      "hit": false,
      "t": 9435.484499999999,
      "d": 236.8951770833337,
      "v": 127
    },
    {
      "midi": 37,
      "hit": false,
      "t": 9435.484499999999,
      "d": 181.4516249999997,
      "v": 127
    },
    {
      "midi": 78,
      "hit": false,
      "t": 9677.419999999998,
      "d": 99.79839374999938,
      "v": 127
    },
    {
      "midi": 80,
      "hit": false,
      "t": 9677.419999999998,
      "d": 157.25807499999974,
      "v": 127
    },
    {
      "midi": 39,
      "hit": false,
      "t": 9677.419999999998,
      "d": 126.0080729166657,
      "v": 127
    },
    {
      "midi": 40,
      "hit": false,
      "t": 9798.387749999998,
      "d": 179.43549583333333,
      "v": 127
    },
    {
      "midi": 81,
      "hit": false,
      "t": 9919.355499999998,
      "d": 87.7016187499994,
      "v": 127
    },
    {
      "midi": 78,
      "hit": false,
      "t": 9919.355499999998,
      "d": 133.06452499999978,
      "v": 127
    },
    {
      "midi": 83,
      "hit": false,
      "t": 10040.323249999998,
      "d": 178.42743125000015,
      "v": 127
    },
    {
      "midi": 76,
      "hit": false,
      "t": 10040.323249999998,
      "d": 231.85485416666597,
      "v": 127
    },
    {
      "midi": 39,
      "hit": false,
      "t": 10040.323249999998,
      "d": 92.74194166666712,
      "v": 127
    },
    {
      "midi": 37,
      "hit": false,
      "t": 10161.290999999997,
      "d": 186.4919479166674,
      "v": 127
    },
    {
      "midi": 81,
      "hit": false,
      "t": 10282.258749999997,
      "d": 214.7177562500001,
      "v": 127
    },
    {
      "midi": 75,
      "hit": false,
      "t": 10282.258749999997,
      "d": 219.758079166666,
      "v": 127
    },
    {
      "midi": 44,
      "hit": false,
      "t": 10403.226499999999,
      "d": 111.89516874999936,
      "v": 127
    },
    {
      "midi": 80,
      "hit": false,
      "t": 10524.194249999997,
      "d": 186.4919479166674,
      "v": 127
    },
    {
      "midi": 73,
      "hit": false,
      "t": 10524.194249999997,
      "d": 248.9919520833355,
      "v": 127
    },
    {
      "midi": 49,
      "hit": false,
      "t": 10524.194249999999,
      "d": 198.5887229166674,
      "v": 127
    },
    {
      "midi": 75,
      "hit": false,
      "t": 10766.129749999998,
      "d": 108.87097500000164,
      "v": 127
    },
    {
      "midi": 42,
      "hit": false,
      "t": 10766.12975,
      "d": 101.81452291666756,
      "v": 127
    },
    {
      "midi": 83,
      "hit": false,
      "t": 10887.0975,
      "d": 112.90323333333254,
      "v": 127
    },
    {
      "midi": 78,
      "hit": false,
      "t": 10887.0975,
      "d": 174.39517291666562,
      "v": 127
    },
    {
      "midi": 47,
      "hit": false,
      "t": 10887.097500000002,
      "d": 210.68549791666737,
      "v": 127
    },
    {
      "midi": 82,
      "hit": false,
      "t": 11008.06525,
      "d": 145.16129999999976,
      "v": 127
    },
    {
      "midi": 81,
      "hit": false,
      "t": 11129.033,
      "d": 103.83065208333392,
      "v": 127
    },
    {
      "midi": 76,
      "hit": false,
      "t": 11129.033,
      "d": 181.4516249999997,
      "v": 127
    },
    {
      "midi": 46,
      "hit": false,
      "t": 11129.033000000003,
      "d": 215.72582083333327,
      "v": 127
    },
    {
      "midi": 80,
      "hit": false,
      "t": 11250.00075,
      "d": 120.9677499999998,
      "v": 127
    },
    {
      "midi": 42,
      "hit": false,
      "t": 11370.968500000003,
      "d": 212.70162708333373,
      "v": 127
    },
    {
      "midi": 85,
      "hit": false,
      "t": 11612.903999999999,
      "d": 162.29839791666745,
      "v": 127
    },
    {
      "midi": 83,
      "hit": false,
      "t": 11612.903999999999,
      "d": 252.01614583333503,
      "v": 127
    },
    {
      "midi": 44,
      "hit": false,
      "t": 11612.904000000002,
      "d": 120.9677499999998,
      "v": 127
    },
    {
      "midi": 45,
      "hit": false,
      "t": 11733.871750000002,
      "d": 229.8387249999996,
      "v": 127
    },
    {
      "midi": 85,
      "hit": false,
      "t": 11854.8395,
      "d": 193.54839999999967,
      "v": 127
    },
    {
      "midi": 81,
      "hit": false,
      "t": 11854.8395,
      "d": 238.91130625000005,
      "v": 127
    },
    {
      "midi": 44,
      "hit": false,
      "t": 11975.807250000002,
      "d": 96.77419999999984,
      "v": 127
    },
    {
      "midi": 85,
      "hit": false,
      "t": 12096.775,
      "d": 193.54839999999967,
      "v": 127
    },
    {
      "midi": 80,
      "hit": false,
      "t": 12096.775,
      "d": 214.7177562500001,
      "v": 127
    },
    {
      "midi": 42,
      "hit": false,
      "t": 12096.775000000001,
      "d": 248.99195208333367,
      "v": 127
    },
    {
      "midi": 78,
      "hit": false,
      "t": 12338.7105,
      "d": 142.13710625000022,
      "v": 127
    },
    {
      "midi": 85,
      "hit": false,
      "t": 12338.7105,
      "d": 145.16129999999976,
      "v": 127
    },
    {
      "midi": 49,
      "hit": false,
      "t": 12338.710500000001,
      "d": 131.04839583333523,
      "v": 127
    },
    {
      "midi": 54,
      "hit": false,
      "t": 12459.678250000003,
      "d": 226.81453125000007,
      "v": 127
    },
    {
      "midi": 78,
      "hit": false,
      "t": 12580.645999999999,
      "d": 84.67742499999986,
      "v": 127
    },
    {
      "midi": 85,
      "hit": false,
      "t": 12580.645999999999,
      "d": 147.17742916666612,
      "v": 127
    },
    {
      "midi": 88,
      "hit": false,
      "t": 12701.613749999999,
      "d": 154.2338812500002,
      "v": 127
    },
    {
      "midi": 81,
      "hit": false,
      "t": 12701.613749999999,
      "d": 190.52420625000013,
      "v": 127
    },
    {
      "midi": 47,
      "hit": false,
      "t": 12701.613750000002,
      "d": 129.03226666666706,
      "v": 127
    },
    {
      "midi": 52,
      "hit": false,
      "t": 12822.581500000002,
      "d": 217.74195000000145,
      "v": 127
    },
    {
      "midi": 87,
      "hit": false,
      "t": 12943.549249999998,
      "d": 108.87097499999982,
      "v": 127
    },
    {
      "midi": 80,
      "hit": false,
      "t": 12943.549249999998,
      "d": 108.87097499999982,
      "v": 127
    },
    {
      "midi": 84,
      "hit": false,
      "t": 13064.516999999998,
      "d": 212.70162708333373,
      "v": 127
    },
    {
      "midi": 78,
      "hit": false,
      "t": 13064.516999999998,
      "d": 236.8951770833337,
      "v": 127
    },
    {
      "midi": 42,
      "hit": false,
      "t": 13064.517000000003,
      "d": 181.4516249999997,
      "v": 127
    },
    {
      "midi": 83,
      "hit": false,
      "t": 13306.452499999998,
      "d": 108.87097499999982,
      "v": 127
    },
    {
      "midi": 85,
      "hit": false,
      "t": 13306.452499999998,
      "d": 112.90323333333254,
      "v": 127
    },
    {
      "midi": 44,
      "hit": false,
      "t": 13306.452500000003,
      "d": 126.0080729166657,
      "v": 127
    },
    {
      "midi": 45,
      "hit": false,
      "t": 13427.420250000003,
      "d": 179.43549583333333,
      "v": 127
    },
    {
      "midi": 85,
      "hit": false,
      "t": 13548.387999999997,
      "d": 122.98387916666616,
      "v": 127
    },
    {
      "midi": 83,
      "hit": false,
      "t": 13548.387999999997,
      "d": 157.25807499999974,
      "v": 127
    },
    {
      "midi": 88,
      "hit": false,
      "t": 13669.355749999997,
      "d": 159.2742041666661,
      "v": 127
    },
    {
      "midi": 81,
      "hit": false,
      "t": 13669.355749999997,
      "d": 196.5725937499992,
      "v": 127
    },
    {
      "midi": 44,
      "hit": false,
      "t": 13669.355750000002,
      "d": 92.74194166666712,
      "v": 127
    },
    {
      "midi": 42,
      "hit": false,
      "t": 13790.323500000002,
      "d": 186.4919479166674,
      "v": 127
    },
    {
      "midi": 80,
      "hit": false,
      "t": 13911.291249999997,
      "d": 166.33065625000017,
      "v": 127
    },
    {
      "midi": 87,
      "hit": false,
      "t": 13911.291249999997,
      "d": 172.37904375000107,
      "v": 127
    },
    {
      "midi": 49,
      "hit": false,
      "t": 14032.259000000004,
      "d": 111.89516874999936,
      "v": 127
    },
    {
      "midi": 85,
      "hit": false,
      "t": 14153.226749999998,
      "d": 137.0967833333325,
      "v": 127
    },
    {
      "midi": 78,
      "hit": false,
      "t": 14153.226749999998,
      "d": 188.50807708333195,
      "v": 127
    },
    {
      "midi": 54,
      "hit": false,
      "t": 14153.226750000003,
      "d": 198.5887229166674,
      "v": 127
    },
    {
      "midi": 80,
      "hit": false,
      "t": 14395.162249999996,
      "d": 89.71774791666576,
      "v": 127
    },
    {
      "midi": 85,
      "hit": false,
      "t": 14395.162249999996,
      "d": 145.16129999999976,
      "v": 127
    },
    {
      "midi": 47,
      "hit": false,
      "t": 14395.162250000005,
      "d": 101.81452291666756,
      "v": 127
    },
    {
      "midi": 81,
      "hit": false,
      "t": 14516.129999999996,
      "d": 164.31452708333381,
      "v": 127
    },
    {
      "midi": 84,
      "hit": false,
      "t": 14516.129999999996,
      "d": 181.4516249999997,
      "v": 127
    },
    {
      "midi": 52,
      "hit": false,
      "t": 14516.130000000006,
      "d": 210.68549791666737,
      "v": 127
    },
    {
      "midi": 85,
      "hit": false,
      "t": 14758.065499999995,
      "d": 202.6209812500001,
      "v": 127
    },
    {
      "midi": 80,
      "hit": false,
      "t": 14758.065499999995,
      "d": 203.6290458333333,
      "v": 127
    },
    {
      "midi": 51,
      "hit": false,
      "t": 14758.065500000008,
      "d": 215.72582083333327,
      "v": 127
    },
    {
      "midi": 37,
      "hit": false,
      "t": 15000.001000000007,
      "d": 212.70162708333373,
      "v": 127
    },
    {
      "midi": 80,
      "hit": false,
      "t": 15241.936499999994,
      "d": 145.16129999999976,
      "v": 127
    },
    {
      "midi": 78,
      "hit": false,
      "t": 15241.936499999994,
      "d": 215.72582083333327,
      "v": 127
    },
    {
      "midi": 39,
      "hit": false,
      "t": 15241.936500000007,
      "d": 120.9677499999998,
      "v": 127
    },
    {
      "midi": 40,
      "hit": false,
      "t": 15362.904250000007,
      "d": 229.8387249999996,
      "v": 127
    },
    {
      "midi": 80,
      "hit": false,
      "t": 15483.871999999994,
      "d": 143.1451708333334,
      "v": 127
    },
    {
      "midi": 76,
      "hit": false,
      "t": 15483.871999999994,
      "d": 205.64517499999965,
      "v": 127
    },
    {
      "midi": 39,
      "hit": false,
      "t": 15604.839750000006,
      "d": 96.77419999999984,
      "v": 127
    },
    {
      "midi": 80,
      "hit": false,
      "t": 15725.807499999994,
      "d": 130.04033125000024,
      "v": 127
    },
    {
      "midi": 75,
      "hit": false,
      "t": 15725.807499999994,
      "d": 179.43549583333333,
      "v": 127
    },
    {
      "midi": 37,
      "hit": false,
      "t": 15725.807500000006,
      "d": 248.99195208333367,
      "v": 127
    },
    {
      "midi": 73,
      "hit": false,
      "t": 15967.742999999993,
      "d": 166.33065625000017,
      "v": 127
    },
    {
      "midi": 80,
      "hit": false,
      "t": 15967.742999999993,
      "d": 248.99195208333367,
      "v": 127
    },
    {
      "midi": 44,
      "hit": false,
      "t": 15967.743000000006,
      "d": 131.04839583333523,
      "v": 127
    },
    {
      "midi": 49,
      "hit": false,
      "t": 16088.710750000007,
      "d": 226.81453125000007,
      "v": 127
    },
    {
      "midi": 73,
      "hit": false,
      "t": 16209.678499999993,
      "d": 120.96775000000162,
      "v": 127
    },
    {
      "midi": 83,
      "hit": false,
      "t": 16330.646249999994,
      "d": 162.29839791666745,
      "v": 127
    },
    {
      "midi": 76,
      "hit": false,
      "t": 16330.646249999994,
      "d": 222.78227291666917,
      "v": 127
    },
    {
      "midi": 42,
      "hit": false,
      "t": 16330.646250000007,
      "d": 129.03226666666706,
      "v": 127
    },
    {
      "midi": 47,
      "hit": false,
      "t": 16451.61400000001,
      "d": 217.74194999999963,
      "v": 127
    },
    {
      "midi": 81,
      "hit": false,
      "t": 16572.581749999998,
      "d": 77.62097291666578,
      "v": 127
    },
    {
      "midi": 75,
      "hit": false,
      "t": 16572.581749999998,
      "d": 91.73387708333394,
      "v": 127
    },
    {
      "midi": 73,
      "hit": false,
      "t": 16693.549499999997,
      "d": 215.72582083333327,
      "v": 127
    },
    {
      "midi": 79,
      "hit": false,
      "t": 16693.549499999997,
      "d": 236.8951770833337,
      "v": 127
    },
    {
      "midi": 37,
      "hit": false,
      "t": 16693.54950000001,
      "d": 181.4516250000015,
      "v": 127
    },
    {
      "midi": 78,
      "hit": false,
      "t": 16935.484999999997,
      "d": 99.79839374999938,
      "v": 127
    },
    {
      "midi": 80,
      "hit": false,
      "t": 16935.484999999997,
      "d": 157.25807499999792,
      "v": 127
    },
    {
      "midi": 39,
      "hit": false,
      "t": 16935.48500000001,
      "d": 126.0080729166657,
      "v": 127
    },
    {
      "midi": 40,
      "hit": false,
      "t": 17056.45275000001,
      "d": 179.43549583333152,
      "v": 127
    },
    {
      "midi": 81,
      "hit": false,
      "t": 17177.420499999997,
      "d": 87.70161875000122,
      "v": 127
    },
    {
      "midi": 78,
      "hit": false,
      "t": 17177.420499999997,
      "d": 133.0645250000016,
      "v": 127
    },
    {
      "midi": 83,
      "hit": false,
      "t": 17298.388249999996,
      "d": 178.42743125000197,
      "v": 127
    },
    {
      "midi": 76,
      "hit": false,
      "t": 17298.388249999996,
      "d": 231.8548541666678,
      "v": 127
    },
    {
      "midi": 39,
      "hit": false,
      "t": 17298.38825000001,
      "d": 92.74194166666712,
      "v": 127
    },
    {
      "midi": 37,
      "hit": false,
      "t": 17419.35600000001,
      "d": 186.4919479166674,
      "v": 127
    },
    {
      "midi": 81,
      "hit": false,
      "t": 17540.323749999996,
      "d": 214.7177562500001,
      "v": 127
    },
    {
      "midi": 75,
      "hit": false,
      "t": 17540.323749999996,
      "d": 219.758079166666,
      "v": 127
    },
    {
      "midi": 44,
      "hit": false,
      "t": 17661.29150000001,
      "d": 111.89516875000118,
      "v": 127
    },
    {
      "midi": 80,
      "hit": false,
      "t": 17782.259249999996,
      "d": 186.4919479166674,
      "v": 127
    },
    {
      "midi": 73,
      "hit": false,
      "t": 17782.259249999996,
      "d": 248.99195208333185,
      "v": 127
    },
    {
      "midi": 49,
      "hit": false,
      "t": 17782.25925000001,
      "d": 198.58872291666557,
      "v": 127
    },
    {
      "midi": 75,
      "hit": false,
      "t": 18024.194749999995,
      "d": 108.870974999998,
      "v": 127
    },
    {
      "midi": 42,
      "hit": false,
      "t": 18024.19475000001,
      "d": 101.81452291666574,
      "v": 127
    },
    {
      "midi": 83,
      "hit": false,
      "t": 18145.162499999995,
      "d": 112.90323333333436,
      "v": 127
    },
    {
      "midi": 78,
      "hit": false,
      "t": 18145.162499999995,
      "d": 174.39517291666562,
      "v": 127
    },
    {
      "midi": 47,
      "hit": false,
      "t": 18145.16250000001,
      "d": 210.68549791666737,
      "v": 127
    },
    {
      "midi": 82,
      "hit": false,
      "t": 18266.130249999995,
      "d": 145.16129999999976,
      "v": 127
    },
    {
      "midi": 81,
      "hit": false,
      "t": 18387.097999999994,
      "d": 103.8306520833321,
      "v": 127
    },
    {
      "midi": 76,
      "hit": false,
      "t": 18387.097999999994,
      "d": 181.4516250000015,
      "v": 127
    },
    {
      "midi": 46,
      "hit": false,
      "t": 18387.09800000001,
      "d": 215.72582083333327,
      "v": 127
    },
    {
      "midi": 80,
      "hit": false,
      "t": 18508.065749999994,
      "d": 120.96775000000343,
      "v": 127
    },
    {
      "midi": 42,
      "hit": false,
      "t": 18629.03350000001,
      "d": 212.70162708333373,
      "v": 127
    },
    {
      "midi": 85,
      "hit": false,
      "t": 18870.968999999997,
      "d": 162.29839791666745,
      "v": 127
    },
    {
      "midi": 83,
      "hit": false,
      "t": 18870.968999999997,
      "d": 252.0161458333314,
      "v": 127
    },
    {
      "midi": 44,
      "hit": false,
      "t": 18870.96900000001,
      "d": 120.9677499999998,
      "v": 127
    },
    {
      "midi": 45,
      "hit": false,
      "t": 18991.936750000008,
      "d": 229.83872500000143,
      "v": 127
    },
    {
      "midi": 85,
      "hit": false,
      "t": 19112.904499999997,
      "d": 193.54839999999967,
      "v": 127
    },
    {
      "midi": 81,
      "hit": false,
      "t": 19112.904499999997,
      "d": 238.91130625000005,
      "v": 127
    },
    {
      "midi": 44,
      "hit": false,
      "t": 19233.87225000001,
      "d": 96.77419999999984,
      "v": 127
    },
    {
      "midi": 85,
      "hit": false,
      "t": 19354.839999999997,
      "d": 193.54839999999967,
      "v": 127
    },
    {
      "midi": 80,
      "hit": false,
      "t": 19354.839999999997,
      "d": 214.7177562500001,
      "v": 127
    },
    {
      "midi": 42,
      "hit": false,
      "t": 19354.84000000001,
      "d": 248.99195208333185,
      "v": 127
    },
    {
      "midi": 78,
      "hit": false,
      "t": 19596.775499999996,
      "d": 142.13710625000022,
      "v": 127
    },
    {
      "midi": 85,
      "hit": false,
      "t": 19596.775499999996,
      "d": 145.16129999999976,
      "v": 127
    },
    {
      "midi": 49,
      "hit": false,
      "t": 19596.77550000001,
      "d": 131.0483958333316,
      "v": 127
    },
    {
      "midi": 54,
      "hit": false,
      "t": 19717.74325000001,
      "d": 226.81453124999825,
      "v": 127
    },
    {
      "midi": 78,
      "hit": false,
      "t": 19838.710999999996,
      "d": 84.67742500000168,
      "v": 127
    },
    {
      "midi": 85,
      "hit": false,
      "t": 19838.710999999996,
      "d": 147.17742916666975,
      "v": 127
    },
    {
      "midi": 88,
      "hit": false,
      "t": 19959.67875,
      "d": 154.23388124999838,
      "v": 127
    },
    {
      "midi": 81,
      "hit": false,
      "t": 19959.67875,
      "d": 190.52420625000013,
      "v": 127
    },
    {
      "midi": 47,
      "hit": false,
      "t": 19959.67875000001,
      "d": 129.03226666666524,
      "v": 127
    },
    {
      "midi": 52,
      "hit": false,
      "t": 20080.64650000001,
      "d": 217.74194999999963,
      "v": 127
    },
    {
      "midi": 80,
      "hit": false,
      "t": 20201.61425,
      "d": 108.87097500000164,
      "v": 127
    },
    {
      "midi": 87,
      "hit": false,
      "t": 20201.61425,
      "d": 108.87097500000164,
      "v": 127
    },
    {
      "midi": 84,
      "hit": false,
      "t": 20322.582000000002,
      "d": 212.70162708333373,
      "v": 127
    },
    {
      "midi": 78,
      "hit": false,
      "t": 20322.582000000002,
      "d": 236.8951770833337,
      "v": 127
    },
    {
      "midi": 42,
      "hit": false,
      "t": 20322.58200000001,
      "d": 181.4516250000015,
      "v": 127
    },
    {
      "midi": 83,
      "hit": false,
      "t": 20564.5175,
      "d": 108.87097500000164,
      "v": 127
    },
    {
      "midi": 85,
      "hit": false,
      "t": 20564.5175,
      "d": 112.90323333333436,
      "v": 127
    },
    {
      "midi": 44,
      "hit": false,
      "t": 20564.517500000013,
      "d": 126.0080729166657,
      "v": 127
    },
    {
      "midi": 45,
      "hit": false,
      "t": 20685.485250000012,
      "d": 179.43549583333152,
      "v": 127
    },
    {
      "midi": 85,
      "hit": false,
      "t": 20806.453,
      "d": 122.98387916666616,
      "v": 127
    },
    {
      "midi": 83,
      "hit": false,
      "t": 20806.453,
      "d": 157.25807499999792,
      "v": 127
    },
    {
      "midi": 88,
      "hit": false,
      "t": 20927.42075,
      "d": 159.27420416666428,
      "v": 127
    },
    {
      "midi": 81,
      "hit": false,
      "t": 20927.42075,
      "d": 196.5725937499992,
      "v": 127
    },
    {
      "midi": 44,
      "hit": false,
      "t": 20927.420750000012,
      "d": 92.74194166666712,
      "v": 127
    },
    {
      "midi": 42,
      "hit": false,
      "t": 21048.388500000012,
      "d": 186.4919479166674,
      "v": 127
    },
    {
      "midi": 80,
      "hit": false,
      "t": 21169.35625,
      "d": 166.33065625000017,
      "v": 127
    },
    {
      "midi": 87,
      "hit": false,
      "t": 21169.35625,
      "d": 172.37904374999925,
      "v": 127
    },
    {
      "midi": 49,
      "hit": false,
      "t": 21290.32400000001,
      "d": 111.89516875000118,
      "v": 127
    },
    {
      "midi": 85,
      "hit": false,
      "t": 21411.29175,
      "d": 137.09678333333432,
      "v": 127
    },
    {
      "midi": 78,
      "hit": false,
      "t": 21411.29175,
      "d": 188.50807708333377,
      "v": 127
    },
    {
      "midi": 54,
      "hit": false,
      "t": 21411.29175000001,
      "d": 198.58872291666557,
      "v": 127
    },
    {
      "midi": 80,
      "hit": false,
      "t": 21653.22725,
      "d": 89.71774791666758,
      "v": 127
    },
    {
      "midi": 85,
      "hit": false,
      "t": 21653.22725,
      "d": 145.16129999999976,
      "v": 127
    },
    {
      "midi": 47,
      "hit": false,
      "t": 21653.22725000001,
      "d": 101.81452291666574,
      "v": 127
    },
    {
      "midi": 81,
      "hit": false,
      "t": 21774.195,
      "d": 164.31452708333381,
      "v": 127
    },
    {
      "midi": 84,
      "hit": false,
      "t": 21774.195,
      "d": 181.4516250000015,
      "v": 127
    },
    {
      "midi": 52,
      "hit": false,
      "t": 21774.19500000001,
      "d": 210.68549791666737,
      "v": 127
    },
    {
      "midi": 85,
      "hit": false,
      "t": 22016.130500000003,
      "d": 202.6209812499983,
      "v": 127
    },
    {
      "midi": 80,
      "hit": false,
      "t": 22016.130500000003,
      "d": 203.62904583333147,
      "v": 127
    },
    {
      "midi": 51,
      "hit": false,
      "t": 22016.13050000001,
      "d": 215.72582083333327,
      "v": 127
    },
    {
      "midi": 80,
      "hit": false,
      "t": 22258.066000000003,
      "d": 355.84679791666713,
      "v": 127
    },
    {
      "midi": 72,
      "hit": false,
      "t": 22258.066000000003,
      "d": 408.26615624999977,
      "v": 127
    },
    {
      "midi": 32,
      "hit": false,
      "t": 22258.06600000001,
      "d": 411.2903499999993,
      "v": 127
    },
    {
      "midi": 75,
      "hit": false,
      "t": 22620.969250000002,
      "d": 118.95162083333344,
      "v": 127
    },
    {
      "midi": 76,
      "hit": false,
      "t": 22741.937,
      "d": 105.84678124999846,
      "v": 127
    },
    {
      "midi": 69,
      "hit": false,
      "t": 22741.937,
      "d": 418.34680208333157,
      "v": 127
    },
    {
      "midi": 33,
      "hit": false,
      "t": 22741.93700000001,
      "d": 454.6371270833333,
      "v": 127
    },
    {
      "midi": 73,
      "hit": false,
      "t": 22862.90475,
      "d": 207.66130416666783,
      "v": 127
    },
    {
      "midi": 76,
      "hit": false,
      "t": 23104.84025,
      "d": 135.08065416666795,
      "v": 127
    },
    {
      "midi": 78,
      "hit": false,
      "t": 23225.808,
      "d": 147.17742916666975,
      "v": 127
    },
    {
      "midi": 71,
      "hit": false,
      "t": 23225.808,
      "d": 420.36293125000157,
      "v": 127
    },
    {
      "midi": 35,
      "hit": false,
      "t": 23225.808000000008,
      "d": 454.6371270833333,
      "v": 127
    },
    {
      "midi": 78,
      "hit": false,
      "t": 23467.743500000004,
      "d": 173.38710833333243,
      "v": 127
    },
    {
      "midi": 70,
      "hit": false,
      "t": 23709.679000000004,
      "d": 171.37097916666607,
      "v": 127
    },
    {
      "midi": 76,
      "hit": false,
      "t": 23709.679000000004,
      "d": 189.51614166666695,
      "v": 127
    },
    {
      "midi": 36,
      "hit": false,
      "t": 23709.679000000007,
      "d": 409.27422083333295,
      "v": 127
    },
    {
      "midi": 72,
      "hit": false,
      "t": 23951.614500000003,
      "d": 196.5725937499992,
      "v": 127
    },
    {
      "midi": 69,
      "hit": false,
      "t": 23951.614500000003,
      "d": 241.9354999999996,
      "v": 127
    },
    {
      "midi": 73,
      "hit": false,
      "t": 24193.550000000003,
      "d": 1637.0968833333318,
      "v": 127
    },
    {
      "midi": 68,
      "hit": false,
      "t": 24193.550000000003,
      "d": 1659.2743041666654,
      "v": 127
    },
    {
      "midi": 37,
      "hit": false,
      "t": 24193.550000000007,
      "d": 226.81453124999825,
      "v": 127
    },
    {
      "midi": 39,
      "hit": false,
      "t": 24435.485500000006,
      "d": 143.1451708333334,
      "v": 127
    },
    {
      "midi": 40,
      "hit": false,
      "t": 24556.453250000006,
      "d": 208.669368750001,
      "v": 127
    },
    {
      "midi": 42,
      "hit": false,
      "t": 24798.388750000006,
      "d": 133.0645250000016,
      "v": 127
    },
    {
      "midi": 43,
      "hit": false,
      "t": 24919.356500000005,
      "d": 221.774208333336,
      "v": 127
    },
    {
      "midi": 42,
      "hit": false,
      "t": 25161.29200000001,
      "d": 123.99194374999934,
      "v": 127
    },
    {
      "midi": 40,
      "hit": false,
      "t": 25282.25975000001,
      "d": 246.9758229166655,
      "v": 127
    },
    {
      "midi": 39,
      "hit": false,
      "t": 25524.195250000008,
      "d": 131.0483958333316,
      "v": 127
    },
    {
      "midi": 37,
      "hit": false,
      "t": 25645.163000000008,
      "d": 210.68549791666373,
      "v": 127
    },
    {
      "midi": 39,
      "hit": false,
      "t": 25887.098500000004,
      "d": 129.03226666666524,
      "v": 127
    },
    {
      "midi": 40,
      "hit": false,
      "t": 26008.066250000003,
      "d": 210.68549791666373,
      "v": 127
    },
    {
      "midi": 42,
      "hit": false,
      "t": 26250.00175,
      "d": 155.24194583333156,
      "v": 127
    },
    {
      "midi": 43,
      "hit": false,
      "t": 26370.9695,
      "d": 222.78227291666553,
      "v": 127
    },
    {
      "midi": 42,
      "hit": false,
      "t": 26612.905,
      "d": 238.91130625000005,
      "v": 127
    },
    {
      "midi": 40,
      "hit": false,
      "t": 26854.8405,
      "d": 227.82259583333507,
      "v": 127
    },
    {
      "midi": 39,
      "hit": false,
      "t": 27096.776,
      "d": 212.70162708333373,
      "v": 127
    },
    {
      "midi": 80,
      "hit": false,
      "t": 27338.7115,
      "d": 355.84679791666713,
      "v": 127
    },
    {
      "midi": 72,
      "hit": false,
      "t": 27338.7115,
      "d": 408.26615624999977,
      "v": 127
    },
    {
      "midi": 32,
      "hit": false,
      "t": 27338.7115,
      "d": 411.2903499999993,
      "v": 127
    },
    {
      "midi": 75,
      "hit": false,
      "t": 27701.61475,
      "d": 118.95162083333344,
      "v": 127
    },
    {
      "midi": 76,
      "hit": false,
      "t": 27822.5825,
      "d": 105.84678124999846,
      "v": 127
    },
    {
      "midi": 69,
      "hit": false,
      "t": 27822.5825,
      "d": 418.34680208333157,
      "v": 127
    },
    {
      "midi": 33,
      "hit": false,
      "t": 27822.5825,
      "d": 454.6371270833333,
      "v": 127
    },
    {
      "midi": 73,
      "hit": false,
      "t": 27943.55025,
      "d": 207.66130416666783,
      "v": 127
    },
    {
      "midi": 76,
      "hit": false,
      "t": 28185.48575,
      "d": 135.08065416666795,
      "v": 127
    },
    {
      "midi": 78,
      "hit": false,
      "t": 28306.4535,
      "d": 147.17742916666975,
      "v": 127
    },
    {
      "midi": 71,
      "hit": false,
      "t": 28306.4535,
      "d": 420.36293125000157,
      "v": 127
    },
    {
      "midi": 35,
      "hit": false,
      "t": 28306.4535,
      "d": 454.6371270833333,
      "v": 127
    },
    {
      "midi": 78,
      "hit": false,
      "t": 28548.389000000003,
      "d": 173.38710833333243,
      "v": 127
    },
    {
      "midi": 36,
      "hit": false,
      "t": 28790.3245,
      "d": 409.27422083333295,
      "v": 127
    },
    {
      "midi": 70,
      "hit": false,
      "t": 28790.324500000002,
      "d": 171.37097916666607,
      "v": 127
    },
    {
      "midi": 76,
      "hit": false,
      "t": 28790.324500000002,
      "d": 189.51614166666695,
      "v": 127
    },
    {
      "midi": 72,
      "hit": false,
      "t": 29032.260000000002,
      "d": 196.5725937499992,
      "v": 127
    },
    {
      "midi": 69,
      "hit": false,
      "t": 29032.260000000002,
      "d": 241.9354999999996,
      "v": 127
    },
    {
      "midi": 37,
      "hit": false,
      "t": 29274.195499999998,
      "d": 205.64517500000147,
      "v": 127
    },
    {
      "midi": 68,
      "hit": false,
      "t": 29274.1955,
      "d": 1316.5323458333332,
      "v": 127
    },
    {
      "midi": 73,
      "hit": false,
      "t": 29274.1955,
      "d": 1316.5323458333332,
      "v": 127
    },
    {
      "midi": 39,
      "hit": false,
      "t": 29516.131,
      "d": 101.81452291666574,
      "v": 127
    },
    {
      "midi": 40,
      "hit": false,
      "t": 29637.09875,
      "d": 229.83872500000143,
      "v": 127
    },
    {
      "midi": 39,
      "hit": false,
      "t": 29879.034250000004,
      "d": 133.0645250000016,
      "v": 127
    },
    {
      "midi": 37,
      "hit": false,
      "t": 30000.002000000004,
      "d": 209.6774333333342,
      "v": 127
    },
    {
      "midi": 39,
      "hit": false,
      "t": 30241.937500000004,
      "d": 140.12097708333386,
      "v": 127
    },
    {
      "midi": 40,
      "hit": false,
      "t": 30362.905250000003,
      "d": 256.04840416666775,
      "v": 127
    },
    {
      "midi": 39,
      "hit": false,
      "t": 30604.840750000003,
      "d": 117.94355625000026,
      "v": 127
    },
    {
      "midi": 37,
      "hit": false,
      "t": 30725.808500000003,
      "d": 236.8951770833337,
      "v": 127
    },
    {
      "midi": 39,
      "hit": false,
      "t": 30967.744000000002,
      "d": 229.83872500000143,
      "v": 127
    },
    {
      "midi": 37,
      "hit": false,
      "t": 31209.679500000006,
      "d": 217.74194999999963,
      "v": 127
    },
    {
      "midi": 39,
      "hit": false,
      "t": 31451.615000000005,
      "d": 136.08871875000114,
      "v": 127
    },
    {
      "midi": 40,
      "hit": false,
      "t": 31572.582750000005,
      "d": 254.0322750000014,
      "v": 127
    },
    {
      "midi": 39,
      "hit": false,
      "t": 31814.518250000005,
      "d": 140.1209770833375,
      "v": 127
    },
    {
      "midi": 37,
      "hit": false,
      "t": 31935.486000000008,
      "d": 222.78227291666917,
      "v": 127
    },
    {
      "midi": 39,
      "hit": false,
      "t": 32177.42150000001,
      "d": 154.23388124999838,
      "v": 127
    },
    {
      "midi": 40,
      "hit": false,
      "t": 32298.38925000001,
      "d": 254.0322750000014,
      "v": 127
    },
    {
      "midi": 39,
      "hit": false,
      "t": 32540.32475000001,
      "d": 133.06452500000523,
      "v": 127
    },
    {
      "midi": 37,
      "hit": false,
      "t": 32661.292500000014,
      "d": 234.87904791666733,
      "v": 127
    },
    {
      "midi": 39,
      "hit": false,
      "t": 32903.22800000002,
      "d": 238.91130624999641,
      "v": 127
    },
    {
      "midi": 37,
      "hit": false,
      "t": 33145.16350000002,
      "d": 212.70162708333373,
      "v": 127
    },
    {
      "midi": 80,
      "hit": false,
      "t": 33387.099,
      "d": 145.16129999999976,
      "v": 127
    },
    {
      "midi": 78,
      "hit": false,
      "t": 33387.099,
      "d": 215.72582083332964,
      "v": 127
    },
    {
      "midi": 39,
      "hit": false,
      "t": 33387.09900000002,
      "d": 120.96775000000343,
      "v": 127
    },
    {
      "midi": 40,
      "hit": false,
      "t": 33508.06675000002,
      "d": 229.83872500000143,
      "v": 127
    },
    {
      "midi": 80,
      "hit": false,
      "t": 33629.0345,
      "d": 143.1451708333334,
      "v": 127
    },
    {
      "midi": 76,
      "hit": false,
      "t": 33629.0345,
      "d": 205.64517499999783,
      "v": 127
    },
    {
      "midi": 39,
      "hit": false,
      "t": 33750.00225000002,
      "d": 96.77419999999984,
      "v": 127
    },
    {
      "midi": 80,
      "hit": false,
      "t": 33870.97,
      "d": 130.04033124999842,
      "v": 127
    },
    {
      "midi": 75,
      "hit": false,
      "t": 33870.97,
      "d": 179.43549583333515,
      "v": 127
    },
    {
      "midi": 37,
      "hit": false,
      "t": 33870.97000000002,
      "d": 248.9919520833355,
      "v": 127
    },
    {
      "midi": 73,
      "hit": false,
      "t": 34112.9055,
      "d": 166.33065625000017,
      "v": 127
    },
    {
      "midi": 80,
      "hit": false,
      "t": 34112.9055,
      "d": 248.9919520833355,
      "v": 127
    },
    {
      "midi": 44,
      "hit": false,
      "t": 34112.90550000002,
      "d": 131.04839583333523,
      "v": 127
    },
    {
      "midi": 49,
      "hit": false,
      "t": 34233.873250000026,
      "d": 226.81453124999825,
      "v": 127
    },
    {
      "midi": 73,
      "hit": false,
      "t": 34354.841,
      "d": 120.96775000000343,
      "v": 127
    },
    {
      "midi": 83,
      "hit": false,
      "t": 34475.808750000004,
      "d": 162.29839791666745,
      "v": 127
    },
    {
      "midi": 76,
      "hit": false,
      "t": 34475.808750000004,
      "d": 222.78227291666553,
      "v": 127
    },
    {
      "midi": 42,
      "hit": false,
      "t": 34475.808750000026,
      "d": 129.03226666666887,
      "v": 127
    },
    {
      "midi": 47,
      "hit": false,
      "t": 34596.77650000003,
      "d": 217.741949999996,
      "v": 127
    },
    {
      "midi": 81,
      "hit": false,
      "t": 34717.74425,
      "d": 77.62097291666578,
      "v": 127
    },
    {
      "midi": 75,
      "hit": false,
      "t": 34717.74425,
      "d": 91.7338770833303,
      "v": 127
    },
    {
      "midi": 73,
      "hit": false,
      "t": 34838.712,
      "d": 215.7258208333369,
      "v": 127
    },
    {
      "midi": 79,
      "hit": false,
      "t": 34838.712,
      "d": 236.89517708333733,
      "v": 127
    },
    {
      "midi": 37,
      "hit": false,
      "t": 34838.71200000003,
      "d": 181.4516250000015,
      "v": 127
    },
    {
      "midi": 78,
      "hit": false,
      "t": 35080.64750000001,
      "d": 99.79839375000302,
      "v": 127
    },
    {
      "midi": 80,
      "hit": false,
      "t": 35080.64750000001,
      "d": 157.2580750000052,
      "v": 127
    },
    {
      "midi": 39,
      "hit": false,
      "t": 35080.64750000003,
      "d": 126.00807291667297,
      "v": 127
    },
    {
      "midi": 40,
      "hit": false,
      "t": 35201.61525000003,
      "d": 179.43549583333515,
      "v": 127
    },
    {
      "midi": 81,
      "hit": false,
      "t": 35322.58300000001,
      "d": 87.70161874999758,
      "v": 127
    },
    {
      "midi": 78,
      "hit": false,
      "t": 35322.58300000001,
      "d": 133.06452499999432,
      "v": 127
    },
    {
      "midi": 83,
      "hit": false,
      "t": 35443.55075000001,
      "d": 178.42743124999834,
      "v": 127
    },
    {
      "midi": 76,
      "hit": false,
      "t": 35443.55075000001,
      "d": 231.8548541666678,
      "v": 127
    },
    {
      "midi": 39,
      "hit": false,
      "t": 35443.55075000003,
      "d": 92.74194166666712,
      "v": 127
    },
    {
      "midi": 37,
      "hit": false,
      "t": 35564.518500000035,
      "d": 186.49194791666378,
      "v": 127
    },
    {
      "midi": 81,
      "hit": false,
      "t": 35685.48625000001,
      "d": 214.7177562500001,
      "v": 127
    },
    {
      "midi": 75,
      "hit": false,
      "t": 35685.48625000001,
      "d": 219.75807916666963,
      "v": 127
    },
    {
      "midi": 44,
      "hit": false,
      "t": 35806.454000000034,
      "d": 111.89516875000118,
      "v": 127
    },
    {
      "midi": 80,
      "hit": false,
      "t": 35927.42175000001,
      "d": 186.49194791666378,
      "v": 127
    },
    {
      "midi": 73,
      "hit": false,
      "t": 35927.42175000001,
      "d": 248.9919520833355,
      "v": 127
    },
    {
      "midi": 49,
      "hit": false,
      "t": 35927.42175000004,
      "d": 198.5887229166692,
      "v": 127
    },
    {
      "midi": 75,
      "hit": false,
      "t": 36169.35725000001,
      "d": 108.87097500000527,
      "v": 127
    },
    {
      "midi": 42,
      "hit": false,
      "t": 36169.35725000004,
      "d": 101.81452291666938,
      "v": 127
    },
    {
      "midi": 83,
      "hit": false,
      "t": 36290.32500000001,
      "d": 112.90323333333072,
      "v": 127
    },
    {
      "midi": 78,
      "hit": false,
      "t": 36290.32500000001,
      "d": 174.39517291666562,
      "v": 127
    },
    {
      "midi": 47,
      "hit": false,
      "t": 36290.32500000004,
      "d": 210.68549791666737,
      "v": 127
    },
    {
      "midi": 82,
      "hit": false,
      "t": 36411.29275000001,
      "d": 145.16130000000703,
      "v": 127
    },
    {
      "midi": 81,
      "hit": false,
      "t": 36532.26050000001,
      "d": 103.83065208333574,
      "v": 127
    },
    {
      "midi": 76,
      "hit": false,
      "t": 36532.26050000001,
      "d": 181.4516250000015,
      "v": 127
    },
    {
      "midi": 46,
      "hit": false,
      "t": 36532.26050000004,
      "d": 215.7258208333369,
      "v": 127
    },
    {
      "midi": 80,
      "hit": false,
      "t": 36653.228250000015,
      "d": 120.96774999999616,
      "v": 127
    },
    {
      "midi": 42,
      "hit": false,
      "t": 36774.19600000005,
      "d": 212.70162708333373,
      "v": 127
    },
    {
      "midi": 85,
      "hit": false,
      "t": 37016.13150000001,
      "d": 162.29839791666745,
      "v": 127
    },
    {
      "midi": 83,
      "hit": false,
      "t": 37016.13150000001,
      "d": 252.0161458333314,
      "v": 127
    },
    {
      "midi": 44,
      "hit": false,
      "t": 37016.13150000005,
      "d": 120.96775000000343,
      "v": 127
    },
    {
      "midi": 45,
      "hit": false,
      "t": 37137.09925000005,
      "d": 229.83872500000143,
      "v": 127
    },
    {
      "midi": 85,
      "hit": false,
      "t": 37258.06700000001,
      "d": 193.54839999999967,
      "v": 127
    },
    {
      "midi": 81,
      "hit": false,
      "t": 37258.06700000001,
      "d": 238.91130624999641,
      "v": 127
    },
    {
      "midi": 44,
      "hit": false,
      "t": 37379.03475000005,
      "d": 96.77419999999984,
      "v": 127
    },
    {
      "midi": 85,
      "hit": false,
      "t": 37500.00250000001,
      "d": 193.54839999999967,
      "v": 127
    },
    {
      "midi": 80,
      "hit": false,
      "t": 37500.00250000001,
      "d": 214.7177562500001,
      "v": 127
    },
    {
      "midi": 42,
      "hit": false,
      "t": 37500.00250000005,
      "d": 248.9919520833355,
      "v": 127
    },
    {
      "midi": 78,
      "hit": false,
      "t": 37741.93800000001,
      "d": 142.13710624999658,
      "v": 127
    },
    {
      "midi": 85,
      "hit": false,
      "t": 37741.93800000001,
      "d": 145.16129999999976,
      "v": 127
    },
    {
      "midi": 49,
      "hit": false,
      "t": 37741.93800000005,
      "d": 131.04839583333523,
      "v": 127
    },
    {
      "midi": 54,
      "hit": false,
      "t": 37862.905750000056,
      "d": 226.81453124999825,
      "v": 127
    },
    {
      "midi": 78,
      "hit": false,
      "t": 37983.87350000001,
      "d": 84.67742500000168,
      "v": 127
    },
    {
      "midi": 85,
      "hit": false,
      "t": 37983.87350000001,
      "d": 147.1774291666734,
      "v": 127
    },
    {
      "midi": 88,
      "hit": false,
      "t": 38104.84125000001,
      "d": 154.233881250002,
      "v": 127
    },
    {
      "midi": 81,
      "hit": false,
      "t": 38104.84125000001,
      "d": 190.52420625000377,
      "v": 127
    },
    {
      "midi": 47,
      "hit": false,
      "t": 38104.841250000056,
      "d": 129.03226666666887,
      "v": 127
    },
    {
      "midi": 52,
      "hit": false,
      "t": 38225.80900000006,
      "d": 217.741949999996,
      "v": 127
    },
    {
      "midi": 87,
      "hit": false,
      "t": 38346.77675000002,
      "d": 108.870974999998,
      "v": 127
    },
    {
      "midi": 80,
      "hit": false,
      "t": 38346.77675000002,
      "d": 108.870974999998,
      "v": 127
    },
    {
      "midi": 84,
      "hit": false,
      "t": 38467.744500000015,
      "d": 212.70162708333373,
      "v": 127
    },
    {
      "midi": 78,
      "hit": false,
      "t": 38467.744500000015,
      "d": 236.89517708333733,
      "v": 127
    },
    {
      "midi": 42,
      "hit": false,
      "t": 38467.74450000006,
      "d": 181.4516250000015,
      "v": 127
    },
    {
      "midi": 83,
      "hit": false,
      "t": 38709.68000000002,
      "d": 108.870974999998,
      "v": 127
    },
    {
      "midi": 85,
      "hit": false,
      "t": 38709.68000000002,
      "d": 112.90323333333072,
      "v": 127
    },
    {
      "midi": 44,
      "hit": false,
      "t": 38709.68000000006,
      "d": 126.00807291667297,
      "v": 127
    },
    {
      "midi": 45,
      "hit": false,
      "t": 38830.64775000006,
      "d": 179.43549583333515,
      "v": 127
    },
    {
      "midi": 85,
      "hit": false,
      "t": 38951.61550000002,
      "d": 122.9838791666698,
      "v": 127
    },
    {
      "midi": 83,
      "hit": false,
      "t": 38951.61550000002,
      "d": 157.2580750000052,
      "v": 127
    },
    {
      "midi": 88,
      "hit": false,
      "t": 39072.583250000025,
      "d": 159.27420416667155,
      "v": 127
    },
    {
      "midi": 81,
      "hit": false,
      "t": 39072.583250000025,
      "d": 196.57259375000285,
      "v": 127
    },
    {
      "midi": 44,
      "hit": false,
      "t": 39072.58325000006,
      "d": 92.74194166666712,
      "v": 127
    },
    {
      "midi": 42,
      "hit": false,
      "t": 39193.551000000065,
      "d": 186.49194791666378,
      "v": 127
    },
    {
      "midi": 80,
      "hit": false,
      "t": 39314.518750000025,
      "d": 166.33065625000017,
      "v": 127
    },
    {
      "midi": 87,
      "hit": false,
      "t": 39314.518750000025,
      "d": 172.37904374999925,
      "v": 127
    },
    {
      "midi": 49,
      "hit": false,
      "t": 39435.486500000065,
      "d": 111.89516875000118,
      "v": 127
    },
    {
      "midi": 85,
      "hit": false,
      "t": 39556.454250000024,
      "d": 137.09678333333432,
      "v": 127
    },
    {
      "midi": 78,
      "hit": false,
      "t": 39556.454250000024,
      "d": 188.5080770833374,
      "v": 127
    },
    {
      "midi": 54,
      "hit": false,
      "t": 39556.45425000007,
      "d": 198.5887229166692,
      "v": 127
    },
    {
      "midi": 80,
      "hit": false,
      "t": 39798.38975000003,
      "d": 89.71774791666394,
      "v": 127
    },
    {
      "midi": 85,
      "hit": false,
      "t": 39798.38975000003,
      "d": 145.16129999999976,
      "v": 127
    },
    {
      "midi": 47,
      "hit": false,
      "t": 39798.38975000007,
      "d": 101.81452291666938,
      "v": 127
    },
    {
      "midi": 81,
      "hit": false,
      "t": 39919.35750000003,
      "d": 164.31452708333381,
      "v": 127
    },
    {
      "midi": 84,
      "hit": false,
      "t": 39919.35750000003,
      "d": 181.4516250000015,
      "v": 127
    },
    {
      "midi": 52,
      "hit": false,
      "t": 39919.35750000007,
      "d": 210.68549791666737,
      "v": 127
    },
    {
      "midi": 85,
      "hit": false,
      "t": 40161.29300000003,
      "d": 202.62098125000193,
      "v": 127
    },
    {
      "midi": 80,
      "hit": false,
      "t": 40161.29300000003,
      "d": 203.62904583333875,
      "v": 127
    },
    {
      "midi": 51,
      "hit": false,
      "t": 40161.29300000007,
      "d": 215.7258208333369,
      "v": 127
    },
    {
      "midi": 37,
      "hit": false,
      "t": 40403.22850000008,
      "d": 212.70162708333373,
      "v": 127
    },
    {
      "midi": 80,
      "hit": false,
      "t": 40645.16400000003,
      "d": 145.16129999999976,
      "v": 127
    },
    {
      "midi": 78,
      "hit": false,
      "t": 40645.16400000003,
      "d": 215.72582083332964,
      "v": 127
    },
    {
      "midi": 39,
      "hit": false,
      "t": 40645.16400000008,
      "d": 120.96775000000343,
      "v": 127
    },
    {
      "midi": 40,
      "hit": false,
      "t": 40766.13175000008,
      "d": 229.83872500000143,
      "v": 127
    },
    {
      "midi": 80,
      "hit": false,
      "t": 40887.09950000003,
      "d": 143.1451708333334,
      "v": 127
    },
    {
      "midi": 76,
      "hit": false,
      "t": 40887.09950000003,
      "d": 205.64517499999783,
      "v": 127
    },
    {
      "midi": 39,
      "hit": false,
      "t": 41008.06725000008,
      "d": 96.77419999999984,
      "v": 127
    },
    {
      "midi": 80,
      "hit": false,
      "t": 41129.03500000003,
      "d": 130.04033124999842,
      "v": 127
    },
    {
      "midi": 75,
      "hit": false,
      "t": 41129.03500000003,
      "d": 179.43549583333515,
      "v": 127
    },
    {
      "midi": 37,
      "hit": false,
      "t": 41129.03500000008,
      "d": 248.9919520833355,
      "v": 127
    },
    {
      "midi": 73,
      "hit": false,
      "t": 41370.97050000003,
      "d": 166.33065625000017,
      "v": 127
    },
    {
      "midi": 80,
      "hit": false,
      "t": 41370.97050000003,
      "d": 248.9919520833355,
      "v": 127
    },
    {
      "midi": 44,
      "hit": false,
      "t": 41370.97050000008,
      "d": 131.04839583333523,
      "v": 127
    },
    {
      "midi": 49,
      "hit": false,
      "t": 41491.93825000009,
      "d": 226.81453124999825,
      "v": 127
    },
    {
      "midi": 73,
      "hit": false,
      "t": 41612.90600000003,
      "d": 120.96775000000343,
      "v": 127
    },
    {
      "midi": 83,
      "hit": false,
      "t": 41733.873750000035,
      "d": 162.29839791666745,
      "v": 127
    },
    {
      "midi": 76,
      "hit": false,
      "t": 41733.873750000035,
      "d": 222.78227291666553,
      "v": 127
    },
    {
      "midi": 42,
      "hit": false,
      "t": 41733.873750000086,
      "d": 129.03226666666887,
      "v": 127
    },
    {
      "midi": 47,
      "hit": false,
      "t": 41854.84150000009,
      "d": 217.741949999996,
      "v": 127
    },
    {
      "midi": 81,
      "hit": false,
      "t": 41975.809250000035,
      "d": 77.62097291666578,
      "v": 127
    },
    {
      "midi": 75,
      "hit": false,
      "t": 41975.809250000035,
      "d": 91.7338770833303,
      "v": 127
    },
    {
      "midi": 73,
      "hit": false,
      "t": 42096.77700000003,
      "d": 215.7258208333369,
      "v": 127
    },
    {
      "midi": 79,
      "hit": false,
      "t": 42096.77700000003,
      "d": 236.89517708333733,
      "v": 127
    },
    {
      "midi": 37,
      "hit": false,
      "t": 42096.77700000009,
      "d": 181.4516250000015,
      "v": 127
    },
    {
      "midi": 78,
      "hit": false,
      "t": 42338.71250000004,
      "d": 99.79839375000302,
      "v": 127
    },
    {
      "midi": 80,
      "hit": false,
      "t": 42338.71250000004,
      "d": 157.2580750000052,
      "v": 127
    },
    {
      "midi": 39,
      "hit": false,
      "t": 42338.71250000009,
      "d": 126.00807291667297,
      "v": 127
    },
    {
      "midi": 40,
      "hit": false,
      "t": 42459.68025000009,
      "d": 179.43549583333515,
      "v": 127
    },
    {
      "midi": 81,
      "hit": false,
      "t": 42580.648000000045,
      "d": 87.70161874999758,
      "v": 127
    },
    {
      "midi": 78,
      "hit": false,
      "t": 42580.648000000045,
      "d": 133.06452499999432,
      "v": 127
    },
    {
      "midi": 83,
      "hit": false,
      "t": 42701.61575000004,
      "d": 178.42743124999834,
      "v": 127
    },
    {
      "midi": 76,
      "hit": false,
      "t": 42701.61575000004,
      "d": 231.8548541666678,
      "v": 127
    },
    {
      "midi": 39,
      "hit": false,
      "t": 42701.61575000009,
      "d": 92.74194166666712,
      "v": 127
    },
    {
      "midi": 37,
      "hit": false,
      "t": 42822.583500000095,
      "d": 186.49194791666378,
      "v": 127
    },
    {
      "midi": 81,
      "hit": false,
      "t": 42943.55125000004,
      "d": 214.7177562500001,
      "v": 127
    },
    {
      "midi": 75,
      "hit": false,
      "t": 42943.55125000004,
      "d": 219.75807916666963,
      "v": 127
    },
    {
      "midi": 44,
      "hit": false,
      "t": 43064.519000000095,
      "d": 111.89516875000118,
      "v": 127
    },
    {
      "midi": 80,
      "hit": false,
      "t": 43185.48675000004,
      "d": 186.49194791666378,
      "v": 127
    },
    {
      "midi": 73,
      "hit": false,
      "t": 43185.48675000004,
      "d": 248.9919520833355,
      "v": 127
    },
    {
      "midi": 49,
      "hit": false,
      "t": 43185.4867500001,
      "d": 198.5887229166692,
      "v": 127
    },
    {
      "midi": 75,
      "hit": false,
      "t": 43427.42225000004,
      "d": 108.87097500000527,
      "v": 127
    },
    {
      "midi": 42,
      "hit": false,
      "t": 43427.4222500001,
      "d": 101.81452291666938,
      "v": 127
    },
    {
      "midi": 83,
      "hit": false,
      "t": 43548.39000000004,
      "d": 112.90323333333072,
      "v": 127
    },
    {
      "midi": 78,
      "hit": false,
      "t": 43548.39000000004,
      "d": 174.39517291666562,
      "v": 127
    },
    {
      "midi": 47,
      "hit": false,
      "t": 43548.3900000001,
      "d": 210.68549791666737,
      "v": 127
    },
    {
      "midi": 82,
      "hit": false,
      "t": 43669.35775000004,
      "d": 145.16130000000703,
      "v": 127
    },
    {
      "midi": 81,
      "hit": false,
      "t": 43790.32550000004,
      "d": 103.83065208333574,
      "v": 127
    },
    {
      "midi": 76,
      "hit": false,
      "t": 43790.32550000004,
      "d": 181.4516250000015,
      "v": 127
    },
    {
      "midi": 46,
      "hit": false,
      "t": 43790.3255000001,
      "d": 215.7258208333369,
      "v": 127
    },
    {
      "midi": 80,
      "hit": false,
      "t": 43911.293250000046,
      "d": 120.96774999999616,
      "v": 127
    },
    {
      "midi": 42,
      "hit": false,
      "t": 44032.26100000011,
      "d": 212.70162708333373,
      "v": 127
    },
    {
      "midi": 85,
      "hit": false,
      "t": 44274.19650000004,
      "d": 162.29839791666745,
      "v": 127
    },
    {
      "midi": 83,
      "hit": false,
      "t": 44274.19650000004,
      "d": 252.0161458333314,
      "v": 127
    },
    {
      "midi": 44,
      "hit": false,
      "t": 44274.19650000011,
      "d": 120.96775000000343,
      "v": 127
    },
    {
      "midi": 45,
      "hit": false,
      "t": 44395.16425000011,
      "d": 229.83872500000143,
      "v": 127
    },
    {
      "midi": 85,
      "hit": false,
      "t": 44516.13200000004,
      "d": 193.54839999999967,
      "v": 127
    },
    {
      "midi": 81,
      "hit": false,
      "t": 44516.13200000004,
      "d": 238.91130624999641,
      "v": 127
    },
    {
      "midi": 44,
      "hit": false,
      "t": 44637.09975000011,
      "d": 96.77419999999984,
      "v": 127
    },
    {
      "midi": 85,
      "hit": false,
      "t": 44758.06750000004,
      "d": 193.54839999999967,
      "v": 127
    },
    {
      "midi": 80,
      "hit": false,
      "t": 44758.06750000004,
      "d": 214.7177562500001,
      "v": 127
    },
    {
      "midi": 42,
      "hit": false,
      "t": 44758.067500000114,
      "d": 248.9919520833355,
      "v": 127
    },
    {
      "midi": 78,
      "hit": false,
      "t": 45000.00300000004,
      "d": 142.13710624999658,
      "v": 127
    },
    {
      "midi": 85,
      "hit": false,
      "t": 45000.00300000004,
      "d": 145.16129999999976,
      "v": 127
    },
    {
      "midi": 49,
      "hit": false,
      "t": 45000.00300000011,
      "d": 131.04839583333523,
      "v": 127
    },
    {
      "midi": 54,
      "hit": false,
      "t": 45120.97075000012,
      "d": 226.81453124999825,
      "v": 127
    },
    {
      "midi": 78,
      "hit": false,
      "t": 45241.93850000004,
      "d": 84.67742500000168,
      "v": 127
    },
    {
      "midi": 85,
      "hit": false,
      "t": 45241.93850000004,
      "d": 147.1774291666734,
      "v": 127
    },
    {
      "midi": 88,
      "hit": false,
      "t": 45362.906250000044,
      "d": 154.233881250002,
      "v": 127
    },
    {
      "midi": 81,
      "hit": false,
      "t": 45362.906250000044,
      "d": 190.52420625000377,
      "v": 127
    },
    {
      "midi": 47,
      "hit": false,
      "t": 45362.90625000012,
      "d": 129.03226666666887,
      "v": 127
    },
    {
      "midi": 52,
      "hit": false,
      "t": 45483.87400000012,
      "d": 217.741949999996,
      "v": 127
    },
    {
      "midi": 87,
      "hit": false,
      "t": 45604.84175000005,
      "d": 108.870974999998,
      "v": 127
    },
    {
      "midi": 80,
      "hit": false,
      "t": 45604.84175000005,
      "d": 108.870974999998,
      "v": 127
    },
    {
      "midi": 84,
      "hit": false,
      "t": 45725.80950000005,
      "d": 212.70162708333373,
      "v": 127
    },
    {
      "midi": 78,
      "hit": false,
      "t": 45725.80950000005,
      "d": 236.89517708333733,
      "v": 127
    },
    {
      "midi": 42,
      "hit": false,
      "t": 45725.80950000012,
      "d": 181.4516250000015,
      "v": 127
    },
    {
      "midi": 83,
      "hit": false,
      "t": 45967.74500000005,
      "d": 108.870974999998,
      "v": 127
    },
    {
      "midi": 85,
      "hit": false,
      "t": 45967.74500000005,
      "d": 112.90323333333072,
      "v": 127
    },
    {
      "midi": 44,
      "hit": false,
      "t": 45967.74500000012,
      "d": 126.00807291667297,
      "v": 127
    },
    {
      "midi": 45,
      "hit": false,
      "t": 46088.71275000012,
      "d": 179.43549583333515,
      "v": 127
    },
    {
      "midi": 85,
      "hit": false,
      "t": 46209.68050000005,
      "d": 122.9838791666698,
      "v": 127
    },
    {
      "midi": 83,
      "hit": false,
      "t": 46209.68050000005,
      "d": 157.2580750000052,
      "v": 127
    },
    {
      "midi": 88,
      "hit": false,
      "t": 46330.64825000006,
      "d": 159.27420416667155,
      "v": 127
    },
    {
      "midi": 81,
      "hit": false,
      "t": 46330.64825000006,
      "d": 196.57259375000285,
      "v": 127
    },
    {
      "midi": 44,
      "hit": false,
      "t": 46330.64825000012,
      "d": 92.74194166666712,
      "v": 127
    },
    {
      "midi": 42,
      "hit": false,
      "t": 46451.616000000125,
      "d": 186.49194791666378,
      "v": 127
    },
    {
      "midi": 80,
      "hit": false,
      "t": 46572.583750000056,
      "d": 166.33065625000017,
      "v": 127
    },
    {
      "midi": 87,
      "hit": false,
      "t": 46572.583750000056,
      "d": 172.37904374999925,
      "v": 127
    },
    {
      "midi": 49,
      "hit": false,
      "t": 46693.551500000125,
      "d": 111.89516875000118,
      "v": 127
    },
    {
      "midi": 85,
      "hit": false,
      "t": 46814.519250000056,
      "d": 137.09678333333432,
      "v": 127
    },
    {
      "midi": 78,
      "hit": false,
      "t": 46814.519250000056,
      "d": 188.5080770833374,
      "v": 127
    },
    {
      "midi": 54,
      "hit": false,
      "t": 46814.51925000013,
      "d": 198.5887229166692,
      "v": 127
    },
    {
      "midi": 80,
      "hit": false,
      "t": 47056.45475000006,
      "d": 89.71774791666394,
      "v": 127
    },
    {
      "midi": 85,
      "hit": false,
      "t": 47056.45475000006,
      "d": 145.16129999999976,
      "v": 127
    },
    {
      "midi": 47,
      "hit": false,
      "t": 47056.45475000013,
      "d": 101.81452291666938,
      "v": 127
    },
    {
      "midi": 81,
      "hit": false,
      "t": 47177.42250000006,
      "d": 164.31452708333381,
      "v": 127
    },
    {
      "midi": 84,
      "hit": false,
      "t": 47177.42250000006,
      "d": 181.4516250000015,
      "v": 127
    },
    {
      "midi": 52,
      "hit": false,
      "t": 47177.42250000013,
      "d": 210.68549791666737,
      "v": 127
    },
    {
      "midi": 85,
      "hit": false,
      "t": 47419.35800000006,
      "d": 202.62098125000193,
      "v": 127
    },
    {
      "midi": 80,
      "hit": false,
      "t": 47419.35800000006,
      "d": 203.62904583333875,
      "v": 127
    },
    {
      "midi": 51,
      "hit": false,
      "t": 47419.35800000013,
      "d": 215.7258208333369,
      "v": 127
    },
    {
      "midi": 80,
      "hit": false,
      "t": 47661.293500000065,
      "d": 355.84679791666713,
      "v": 127
    },
    {
      "midi": 72,
      "hit": false,
      "t": 47661.293500000065,
      "d": 408.26615624999977,
      "v": 127
    },
    {
      "midi": 32,
      "hit": false,
      "t": 47661.29350000014,
      "d": 411.29035000000295,
      "v": 127
    },
    {
      "midi": 75,
      "hit": false,
      "t": 48024.19675000007,
      "d": 118.9516208333298,
      "v": 127
    },
    {
      "midi": 76,
      "hit": false,
      "t": 48145.164500000064,
      "d": 105.8467812500021,
      "v": 127
    },
    {
      "midi": 69,
      "hit": false,
      "t": 48145.164500000064,
      "d": 418.34680208333884,
      "v": 127
    },
    {
      "midi": 33,
      "hit": false,
      "t": 48145.164500000144,
      "d": 454.6371270833333,
      "v": 127
    },
    {
      "midi": 73,
      "hit": false,
      "t": 48266.13225000007,
      "d": 207.6613041666642,
      "v": 127
    },
    {
      "midi": 76,
      "hit": false,
      "t": 48508.06775000007,
      "d": 135.08065416666795,
      "v": 127
    },
    {
      "midi": 78,
      "hit": false,
      "t": 48629.03550000007,
      "d": 147.17742916666612,
      "v": 127
    },
    {
      "midi": 71,
      "hit": false,
      "t": 48629.03550000007,
      "d": 420.3629312500052,
      "v": 127
    },
    {
      "midi": 35,
      "hit": false,
      "t": 48629.035500000144,
      "d": 454.6371270833333,
      "v": 127
    },
    {
      "midi": 78,
      "hit": false,
      "t": 48870.97100000007,
      "d": 173.38710833333607,
      "v": 127
    },
    {
      "midi": 70,
      "hit": false,
      "t": 49112.90650000008,
      "d": 171.3709791666697,
      "v": 127
    },
    {
      "midi": 76,
      "hit": false,
      "t": 49112.90650000008,
      "d": 189.51614166666695,
      "v": 127
    },
    {
      "midi": 36,
      "hit": false,
      "t": 49112.90650000014,
      "d": 409.2742208333366,
      "v": 127
    },
    {
      "midi": 72,
      "hit": false,
      "t": 49354.84200000008,
      "d": 196.57259375000285,
      "v": 127
    },
    {
      "midi": 69,
      "hit": false,
      "t": 49354.84200000008,
      "d": 241.9354999999996,
      "v": 127
    },
    {
      "midi": 73,
      "hit": false,
      "t": 49596.77750000008,
      "d": 1637.0968833333318,
      "v": 127
    },
    {
      "midi": 68,
      "hit": false,
      "t": 49596.77750000008,
      "d": 1659.2743041666618,
      "v": 127
    },
    {
      "midi": 37,
      "hit": false,
      "t": 49596.77750000015,
      "d": 226.81453124999825,
      "v": 127
    },
    {
      "midi": 39,
      "hit": false,
      "t": 49838.71300000015,
      "d": 143.1451708333334,
      "v": 127
    },
    {
      "midi": 40,
      "hit": false,
      "t": 49959.68075000015,
      "d": 208.66936874999374,
      "v": 127
    },
    {
      "midi": 42,
      "hit": false,
      "t": 50201.616250000145,
      "d": 133.0645250000016,
      "v": 127
    },
    {
      "midi": 43,
      "hit": false,
      "t": 50322.58400000015,
      "d": 221.77420833332872,
      "v": 127
    },
    {
      "midi": 42,
      "hit": false,
      "t": 50564.51950000014,
      "d": 123.99194375000661,
      "v": 127
    },
    {
      "midi": 40,
      "hit": false,
      "t": 50685.487250000144,
      "d": 246.97582291666913,
      "v": 127
    },
    {
      "midi": 39,
      "hit": false,
      "t": 50927.42275000014,
      "d": 131.04839583333523,
      "v": 127
    },
    {
      "midi": 37,
      "hit": false,
      "t": 51048.39050000015,
      "d": 210.68549791666737,
      "v": 127
    },
    {
      "midi": 39,
      "hit": false,
      "t": 51290.32600000015,
      "d": 129.03226666666887,
      "v": 127
    },
    {
      "midi": 40,
      "hit": false,
      "t": 51411.29375000015,
      "d": 210.68549791666737,
      "v": 127
    },
    {
      "midi": 42,
      "hit": false,
      "t": 51653.22925000015,
      "d": 155.24194583333883,
      "v": 127
    },
    {
      "midi": 43,
      "hit": false,
      "t": 51774.19700000015,
      "d": 222.78227291666553,
      "v": 127
    },
    {
      "midi": 42,
      "hit": false,
      "t": 52016.13250000015,
      "d": 238.91130624999641,
      "v": 127
    },
    {
      "midi": 40,
      "hit": false,
      "t": 52258.06800000015,
      "d": 227.82259583333507,
      "v": 127
    },
    {
      "midi": 39,
      "hit": false,
      "t": 52500.00350000015,
      "d": 212.70162708333373,
      "v": 127
    },
    {
      "midi": 80,
      "hit": false,
      "t": 52741.93900000007,
      "d": 355.84679791666713,
      "v": 127
    },
    {
      "midi": 72,
      "hit": false,
      "t": 52741.93900000007,
      "d": 408.26615624999977,
      "v": 127
    },
    {
      "midi": 32,
      "hit": false,
      "t": 52741.93900000015,
      "d": 411.29035000000295,
      "v": 127
    },
    {
      "midi": 75,
      "hit": false,
      "t": 53104.842250000074,
      "d": 118.9516208333298,
      "v": 127
    },
    {
      "midi": 76,
      "hit": false,
      "t": 53225.81000000007,
      "d": 105.8467812500021,
      "v": 127
    },
    {
      "midi": 69,
      "hit": false,
      "t": 53225.81000000007,
      "d": 418.34680208333884,
      "v": 127
    },
    {
      "midi": 33,
      "hit": false,
      "t": 53225.81000000016,
      "d": 454.6371270833333,
      "v": 127
    },
    {
      "midi": 73,
      "hit": false,
      "t": 53346.777750000074,
      "d": 207.6613041666642,
      "v": 127
    },
    {
      "midi": 76,
      "hit": false,
      "t": 53588.71325000007,
      "d": 135.08065416666795,
      "v": 127
    },
    {
      "midi": 78,
      "hit": false,
      "t": 53709.68100000008,
      "d": 147.17742916666612,
      "v": 127
    },
    {
      "midi": 71,
      "hit": false,
      "t": 53709.68100000008,
      "d": 420.3629312500052,
      "v": 127
    },
    {
      "midi": 35,
      "hit": false,
      "t": 53709.68100000016,
      "d": 454.6371270833333,
      "v": 127
    },
    {
      "midi": 78,
      "hit": false,
      "t": 53951.61650000008,
      "d": 173.38710833333607,
      "v": 127
    },
    {
      "midi": 70,
      "hit": false,
      "t": 54193.55200000008,
      "d": 171.3709791666697,
      "v": 127
    },
    {
      "midi": 76,
      "hit": false,
      "t": 54193.55200000008,
      "d": 189.51614166666695,
      "v": 127
    },
    {
      "midi": 36,
      "hit": false,
      "t": 54193.552000000156,
      "d": 409.2742208333366,
      "v": 127
    },
    {
      "midi": 72,
      "hit": false,
      "t": 54435.48750000008,
      "d": 196.57259375000285,
      "v": 127
    },
    {
      "midi": 69,
      "hit": false,
      "t": 54435.48750000008,
      "d": 241.9354999999996,
      "v": 127
    },
    {
      "midi": 68,
      "hit": false,
      "t": 54677.42300000008,
      "d": 1316.5323458333296,
      "v": 127
    },
    {
      "midi": 73,
      "hit": false,
      "t": 54677.42300000008,
      "d": 1316.5323458333296,
      "v": 127
    },
    {
      "midi": 37,
      "hit": false,
      "t": 54677.42300000016,
      "d": 205.64517499999783,
      "v": 127
    },
    {
      "midi": 39,
      "hit": false,
      "t": 54919.35850000016,
      "d": 101.81452291666938,
      "v": 127
    },
    {
      "midi": 40,
      "hit": false,
      "t": 55040.326250000166,
      "d": 229.83872500000143,
      "v": 127
    },
    {
      "midi": 39,
      "hit": false,
      "t": 55282.261750000165,
      "d": 133.0645250000016,
      "v": 127
    },
    {
      "midi": 37,
      "hit": false,
      "t": 55403.22950000017,
      "d": 209.67743333333055,
      "v": 127
    },
    {
      "midi": 39,
      "hit": false,
      "t": 55645.16500000017,
      "d": 140.1209770833375,
      "v": 127
    },
    {
      "midi": 40,
      "hit": false,
      "t": 55766.13275000017,
      "d": 256.0484041666641,
      "v": 127
    },
    {
      "midi": 39,
      "hit": false,
      "t": 56008.06825000017,
      "d": 117.94355625000026,
      "v": 127
    },
    {
      "midi": 37,
      "hit": false,
      "t": 56129.036000000175,
      "d": 236.89517708333005,
      "v": 127
    },
    {
      "midi": 39,
      "hit": false,
      "t": 56370.971500000174,
      "d": 229.83872500000143,
      "v": 127
    },
    {
      "midi": 37,
      "hit": false,
      "t": 56612.907000000174,
      "d": 217.74195000000327,
      "v": 127
    },
    {
      "midi": 39,
      "hit": false,
      "t": 56854.84250000018,
      "d": 136.08871875000477,
      "v": 127
    },
    {
      "midi": 40,
      "hit": false,
      "t": 56975.810250000184,
      "d": 254.03227499999775,
      "v": 127
    },
    {
      "midi": 39,
      "hit": false,
      "t": 57217.745750000184,
      "d": 140.12097708333022,
      "v": 127
    },
    {
      "midi": 37,
      "hit": false,
      "t": 57338.71350000018,
      "d": 222.78227291666553,
      "v": 127
    },
    {
      "midi": 39,
      "hit": false,
      "t": 57580.64900000018,
      "d": 154.233881250002,
      "v": 127
    },
    {
      "midi": 40,
      "hit": false,
      "t": 57701.61675000018,
      "d": 254.03227499999775,
      "v": 127
    },
    {
      "midi": 39,
      "hit": false,
      "t": 57943.55225000018,
      "d": 133.06452499999432,
      "v": 127
    },
    {
      "midi": 37,
      "hit": false,
      "t": 58064.52000000018,
      "d": 234.8790479166637,
      "v": 127
    },
    {
      "midi": 39,
      "hit": false,
      "t": 58306.45550000018,
      "d": 238.91130624999641,
      "v": 127
    },
    {
      "midi": 79,
      "hit": false,
      "t": 58548.391000000076,
      "d": 169.35485000000335,
      "v": 127
    },
    {
      "midi": 36,
      "hit": false,
      "t": 58548.39100000018,
      "d": 270.1613083333359,
      "v": 127
    },
    {
      "midi": 74,
      "hit": false,
      "t": 58669.35875000008,
      "d": 162.29839791666745,
      "v": 127
    },
    {
      "midi": 69,
      "hit": false,
      "t": 58790.32650000008,
      "d": 100.80645833333256,
      "v": 127
    },
    {
      "midi": 43,
      "hit": false,
      "t": 58790.32650000018,
      "d": 109.87903958333482,
      "v": 127
    },
    {
      "midi": 77,
      "hit": false,
      "t": 58911.29425000008,
      "d": 176.41130208333925,
      "v": 127
    },
    {
      "midi": 48,
      "hit": false,
      "t": 58911.29425000018,
      "d": 199.59678749999875,
      "v": 127
    },
    {
      "midi": 72,
      "hit": false,
      "t": 59032.26200000008,
      "d": 117.94355625000026,
      "v": 127
    },
    {
      "midi": 67,
      "hit": false,
      "t": 59153.229750000086,
      "d": 135.08065416666795,
      "v": 127
    },
    {
      "midi": 49,
      "hit": false,
      "t": 59153.22975000018,
      "d": 146.16936458333657,
      "v": 127
    },
    {
      "midi": 75,
      "hit": false,
      "t": 59274.19750000009,
      "d": 164.31452708332654,
      "v": 127
    },
    {
      "midi": 48,
      "hit": false,
      "t": 59274.197500000184,
      "d": 298.38711666666495,
      "v": 127
    },
    {
      "midi": 70,
      "hit": false,
      "t": 59395.165250000086,
      "d": 98.7903291666662,
      "v": 127
    },
    {
      "midi": 65,
      "hit": false,
      "t": 59516.13300000008,
      "d": 147.1774291666734,
      "v": 127
    },
    {
      "midi": 43,
      "hit": false,
      "t": 59516.13300000018,
      "d": 218.7500145833328,
      "v": 127
    },
    {
      "midi": 67,
      "hit": false,
      "t": 59637.100750000085,
      "d": 157.2580750000052,
      "v": 127
    },
    {
      "midi": 68,
      "hit": false,
      "t": 59758.06850000009,
      "d": 142.13710625000385,
      "v": 127
    },
    {
      "midi": 42,
      "hit": false,
      "t": 59758.06850000018,
      "d": 243.95162916666595,
      "v": 127
    },
    {
      "midi": 73,
      "hit": false,
      "t": 59879.03625000009,
      "d": 143.1451708333334,
      "v": 127
    },
    {
      "midi": 78,
      "hit": false,
      "t": 60000.004000000095,
      "d": 136.0887187499975,
      "v": 127
    },
    {
      "midi": 46,
      "hit": false,
      "t": 60000.00400000018,
      "d": 228.8306604166646,
      "v": 127
    },
    {
      "midi": 83,
      "hit": false,
      "t": 60120.97175000009,
      "d": 110.88710416667163,
      "v": 127
    },
    {
      "midi": 79,
      "hit": false,
      "t": 60241.939500000095,
      "d": 169.35485000000335,
      "v": 127
    },
    {
      "midi": 36,
      "hit": false,
      "t": 60241.93950000018,
      "d": 270.1613083333359,
      "v": 127
    },
    {
      "midi": 74,
      "hit": false,
      "t": 60362.9072500001,
      "d": 162.29839791666745,
      "v": 127
    },
    {
      "midi": 69,
      "hit": false,
      "t": 60483.8750000001,
      "d": 100.80645833333256,
      "v": 127
    },
    {
      "midi": 43,
      "hit": false,
      "t": 60483.87500000018,
      "d": 109.87903958333482,
      "v": 127
    },
    {
      "midi": 77,
      "hit": false,
      "t": 60604.8427500001,
      "d": 176.41130208333925,
      "v": 127
    },
    {
      "midi": 48,
      "hit": false,
      "t": 60604.842750000185,
      "d": 199.59678749999875,
      "v": 127
    },
    {
      "midi": 72,
      "hit": false,
      "t": 60725.8105000001,
      "d": 117.94355625000026,
      "v": 127
    },
    {
      "midi": 67,
      "hit": false,
      "t": 60846.778250000105,
      "d": 135.08065416666795,
      "v": 127
    },
    {
      "midi": 49,
      "hit": false,
      "t": 60846.778250000185,
      "d": 146.16936458333657,
      "v": 127
    },
    {
      "midi": 75,
      "hit": false,
      "t": 60967.74600000011,
      "d": 164.31452708332654,
      "v": 127
    },
    {
      "midi": 48,
      "hit": false,
      "t": 60967.74600000019,
      "d": 298.38711666666495,
      "v": 127
    },
    {
      "midi": 70,
      "hit": false,
      "t": 61088.713750000104,
      "d": 98.7903291666662,
      "v": 127
    },
    {
      "midi": 65,
      "hit": false,
      "t": 61209.6815000001,
      "d": 147.1774291666734,
      "v": 127
    },
    {
      "midi": 43,
      "hit": false,
      "t": 61209.68150000019,
      "d": 218.7500145833328,
      "v": 127
    },
    {
      "midi": 67,
      "hit": false,
      "t": 61330.649250000104,
      "d": 157.2580750000052,
      "v": 127
    },
    {
      "midi": 68,
      "hit": false,
      "t": 61451.61700000011,
      "d": 142.13710625000385,
      "v": 127
    },
    {
      "midi": 42,
      "hit": false,
      "t": 61451.61700000019,
      "d": 243.95162916666595,
      "v": 127
    },
    {
      "midi": 73,
      "hit": false,
      "t": 61572.58475000011,
      "d": 143.1451708333334,
      "v": 127
    },
    {
      "midi": 78,
      "hit": false,
      "t": 61693.552500000114,
      "d": 136.0887187499975,
      "v": 127
    },
    {
      "midi": 46,
      "hit": false,
      "t": 61693.55250000019,
      "d": 228.8306604166646,
      "v": 127
    },
    {
      "midi": 83,
      "hit": false,
      "t": 61814.52025000011,
      "d": 171.3709791666697,
      "v": 127
    },
    {
      "midi": 78,
      "hit": false,
      "t": 61935.488000000114,
      "d": 120.96774999999616,
      "v": 127
    },
    {
      "midi": 51,
      "hit": false,
      "t": 61935.48800000019,
      "d": 241.9354999999996,
      "v": 127
    },
    {
      "midi": 73,
      "hit": false,
      "t": 62056.45575000011,
      "d": 120.96775000000343,
      "v": 127
    },
    {
      "midi": 79,
      "hit": false,
      "t": 62177.42350000011,
      "d": 169.35485000000335,
      "v": 127
    },
    {
      "midi": 36,
      "hit": false,
      "t": 62177.423500000186,
      "d": 270.1613083333359,
      "v": 127
    },
    {
      "midi": 74,
      "hit": false,
      "t": 62298.39125000012,
      "d": 162.29839791666745,
      "v": 127
    },
    {
      "midi": 69,
      "hit": false,
      "t": 62419.35900000012,
      "d": 100.80645833333256,
      "v": 127
    },
    {
      "midi": 43,
      "hit": false,
      "t": 62419.359000000186,
      "d": 109.87903958333482,
      "v": 127
    },
    {
      "midi": 77,
      "hit": false,
      "t": 62540.32675000012,
      "d": 176.41130208333925,
      "v": 127
    },
    {
      "midi": 48,
      "hit": false,
      "t": 62540.32675000019,
      "d": 199.59678749999875,
      "v": 127
    },
    {
      "midi": 72,
      "hit": false,
      "t": 62661.29450000012,
      "d": 117.94355625000026,
      "v": 127
    },
    {
      "midi": 67,
      "hit": false,
      "t": 62782.26225000012,
      "d": 135.08065416666795,
      "v": 127
    },
    {
      "midi": 49,
      "hit": false,
      "t": 62782.26225000019,
      "d": 146.16936458333657,
      "v": 127
    },
    {
      "midi": 75,
      "hit": false,
      "t": 62903.23000000013,
      "d": 164.31452708332654,
      "v": 127
    },
    {
      "midi": 48,
      "hit": false,
      "t": 62903.23000000019,
      "d": 298.38711666666495,
      "v": 127
    },
    {
      "midi": 70,
      "hit": false,
      "t": 63024.19775000012,
      "d": 98.7903291666662,
      "v": 127
    },
    {
      "midi": 65,
      "hit": false,
      "t": 63145.16550000012,
      "d": 147.1774291666734,
      "v": 127
    },
    {
      "midi": 43,
      "hit": false,
      "t": 63145.16550000019,
      "d": 218.7500145833328,
      "v": 127
    },
    {
      "midi": 67,
      "hit": false,
      "t": 63266.13325000012,
      "d": 157.2580750000052,
      "v": 127
    },
    {
      "midi": 68,
      "hit": false,
      "t": 63387.101000000126,
      "d": 142.13710625000385,
      "v": 127
    },
    {
      "midi": 42,
      "hit": false,
      "t": 63387.10100000019,
      "d": 243.95162916666595,
      "v": 127
    },
    {
      "midi": 73,
      "hit": false,
      "t": 63508.06875000013,
      "d": 143.1451708333334,
      "v": 127
    },
    {
      "midi": 78,
      "hit": false,
      "t": 63629.03650000013,
      "d": 136.0887187499975,
      "v": 127
    },
    {
      "midi": 46,
      "hit": false,
      "t": 63629.03650000019,
      "d": 228.8306604166646,
      "v": 127
    },
    {
      "midi": 83,
      "hit": false,
      "t": 63750.00425000013,
      "d": 110.88710416667163,
      "v": 127
    },
    {
      "midi": 79,
      "hit": false,
      "t": 63870.97200000013,
      "d": 169.35485000000335,
      "v": 127
    },
    {
      "midi": 36,
      "hit": false,
      "t": 63870.97200000019,
      "d": 270.1613083333359,
      "v": 127
    },
    {
      "midi": 74,
      "hit": false,
      "t": 63991.939750000136,
      "d": 162.29839791666745,
      "v": 127
    },
    {
      "midi": 69,
      "hit": false,
      "t": 64112.90750000014,
      "d": 100.80645833333256,
      "v": 127
    },
    {
      "midi": 43,
      "hit": false,
      "t": 64112.90750000019,
      "d": 109.87903958333482,
      "v": 127
    },
    {
      "midi": 77,
      "hit": false,
      "t": 64233.875250000136,
      "d": 176.41130208333925,
      "v": 127
    },
    {
      "midi": 48,
      "hit": false,
      "t": 64233.875250000194,
      "d": 199.59678749999875,
      "v": 127
    },
    {
      "midi": 72,
      "hit": false,
      "t": 64354.84300000014,
      "d": 117.94355625000026,
      "v": 127
    },
    {
      "midi": 67,
      "hit": false,
      "t": 64475.81075000014,
      "d": 135.08065416666795,
      "v": 127
    },
    {
      "midi": 49,
      "hit": false,
      "t": 64475.81075000019,
      "d": 146.16936458333657,
      "v": 127
    },
    {
      "midi": 75,
      "hit": false,
      "t": 64596.778500000146,
      "d": 164.31452708332654,
      "v": 127
    },
    {
      "midi": 48,
      "hit": false,
      "t": 64596.7785000002,
      "d": 298.38711666666495,
      "v": 127
    },
    {
      "midi": 70,
      "hit": false,
      "t": 64717.74625000014,
      "d": 98.7903291666662,
      "v": 127
    },
    {
      "midi": 65,
      "hit": false,
      "t": 64838.71400000014,
      "d": 147.1774291666734,
      "v": 127
    },
    {
      "midi": 43,
      "hit": false,
      "t": 64838.7140000002,
      "d": 218.7500145833328,
      "v": 127
    },
    {
      "midi": 67,
      "hit": false,
      "t": 64959.68175000014,
      "d": 157.2580750000052,
      "v": 127
    },
    {
      "midi": 68,
      "hit": false,
      "t": 65080.649500000145,
      "d": 142.13710625000385,
      "v": 127
    },
    {
      "midi": 42,
      "hit": false,
      "t": 65080.649500000196,
      "d": 243.95162916666595,
      "v": 127
    },
    {
      "midi": 73,
      "hit": false,
      "t": 65201.61725000015,
      "d": 143.1451708333334,
      "v": 127
    },
    {
      "midi": 78,
      "hit": false,
      "t": 65322.58500000015,
      "d": 136.0887187499975,
      "v": 127
    },
    {
      "midi": 46,
      "hit": false,
      "t": 65322.585000000196,
      "d": 228.8306604166719,
      "v": 127
    },
    {
      "midi": 83,
      "hit": false,
      "t": 65443.55275000015,
      "d": 171.37097916666244,
      "v": 127
    },
    {
      "midi": 78,
      "hit": false,
      "t": 65564.52050000014,
      "d": 120.96774999999616,
      "v": 127
    },
    {
      "midi": 51,
      "hit": false,
      "t": 65564.5205000002,
      "d": 241.93550000000687,
      "v": 127
    },
    {
      "midi": 73,
      "hit": false,
      "t": 65685.48825000014,
      "d": 120.96774999999616,
      "v": 127
    },
    {
      "midi": 61,
      "hit": false,
      "t": 65806.45600000014,
      "d": 107.86291041666118,
      "v": 127
    },
    {
      "midi": 60,
      "hit": false,
      "t": 66048.39150000013,
      "d": 89.71774791667121,
      "v": 127
    },
    {
      "midi": 63,
      "hit": false,
      "t": 66048.39150000013,
      "d": 107.86291041667573,
      "v": 127
    },
    {
      "midi": 59,
      "hit": false,
      "t": 66290.32700000014,
      "d": 84.67742500000168,
      "v": 127
    },
    {
      "midi": 64,
      "hit": false,
      "t": 66290.32700000014,
      "d": 94.75807083334075,
      "v": 127
    },
    {
      "midi": 58,
      "hit": false,
      "t": 66532.26250000014,
      "d": 99.79839374999574,
      "v": 127
    },
    {
      "midi": 66,
      "hit": false,
      "t": 66532.26250000014,
      "d": 101.81452291666938,
      "v": 127
    },
    {
      "midi": 57,
      "hit": false,
      "t": 66774.19800000015,
      "d": 78.62903749999532,
      "v": 127
    },
    {
      "midi": 68,
      "hit": false,
      "t": 66774.19800000015,
      "d": 214.7177562500001,
      "v": 127
    },
    {
      "midi": 56,
      "hit": false,
      "t": 67016.13350000016,
      "d": 89.71774791667121,
      "v": 127
    },
    {
      "midi": 64,
      "hit": false,
      "t": 67016.13350000016,
      "d": 136.08871875000477,
      "v": 127
    },
    {
      "midi": 54,
      "hit": false,
      "t": 67258.06900000016,
      "d": 148.18549375000293,
      "v": 127
    },
    {
      "midi": 69,
      "hit": false,
      "t": 67258.06900000016,
      "d": 232.8629187500046,
      "v": 127
    },
    {
      "midi": 52,
      "hit": false,
      "t": 67500.00450000017,
      "d": 89.71774791667121,
      "v": 127
    },
    {
      "midi": 68,
      "hit": false,
      "t": 67500.00450000017,
      "d": 107.86291041667573,
      "v": 127
    },
    {
      "midi": 66,
      "hit": false,
      "t": 67620.97225000018,
      "d": 82.66129583332804,
      "v": 127
    },
    {
      "midi": 51,
      "hit": false,
      "t": 67620.97225000018,
      "d": 138.10484791666386,
      "v": 127
    },
    {
      "midi": 79,
      "hit": false,
      "t": 67741.94000000018,
      "d": 169.35485000000335,
      "v": 127
    },
    {
      "midi": 36,
      "hit": false,
      "t": 67741.9400000002,
      "d": 270.1613083333359,
      "v": 127
    },
    {
      "midi": 74,
      "hit": false,
      "t": 67862.90775000017,
      "d": 162.29839791667473,
      "v": 127
    },
    {
      "midi": 69,
      "hit": false,
      "t": 67983.87550000018,
      "d": 100.80645833333256,
      "v": 127
    },
    {
      "midi": 43,
      "hit": false,
      "t": 67983.87550000021,
      "d": 109.87903958333482,
      "v": 127
    },
    {
      "midi": 77,
      "hit": false,
      "t": 68104.84325000018,
      "d": 176.41130208333198,
      "v": 127
    },
    {
      "midi": 48,
      "hit": false,
      "t": 68104.84325000021,
      "d": 199.59678750000603,
      "v": 127
    },
    {
      "midi": 72,
      "hit": false,
      "t": 68225.81100000018,
      "d": 117.94355625000026,
      "v": 127
    },
    {
      "midi": 67,
      "hit": false,
      "t": 68346.77875000017,
      "d": 135.08065416666795,
      "v": 127
    },
    {
      "midi": 49,
      "hit": false,
      "t": 68346.77875000022,
      "d": 146.1693645833293,
      "v": 127
    },
    {
      "midi": 75,
      "hit": false,
      "t": 68467.74650000017,
      "d": 164.31452708334837,
      "v": 127
    },
    {
      "midi": 48,
      "hit": false,
      "t": 68467.74650000021,
      "d": 298.3871166666795,
      "v": 127
    },
    {
      "midi": 70,
      "hit": false,
      "t": 68588.71425000018,
      "d": 98.79032916667347,
      "v": 127
    },
    {
      "midi": 65,
      "hit": false,
      "t": 68709.68200000019,
      "d": 147.17742916666612,
      "v": 127
    },
    {
      "midi": 43,
      "hit": false,
      "t": 68709.68200000022,
      "d": 218.7500145833328,
      "v": 127
    },
    {
      "midi": 67,
      "hit": false,
      "t": 68830.64975000019,
      "d": 157.25807499999064,
      "v": 127
    },
    {
      "midi": 68,
      "hit": false,
      "t": 68951.61750000018,
      "d": 142.13710624999658,
      "v": 127
    },
    {
      "midi": 42,
      "hit": false,
      "t": 68951.61750000021,
      "d": 243.9516291666805,
      "v": 127
    },
    {
      "midi": 73,
      "hit": false,
      "t": 69072.58525000018,
      "d": 143.1451708333334,
      "v": 127
    },
    {
      "midi": 78,
      "hit": false,
      "t": 69193.55300000017,
      "d": 136.08871875000477,
      "v": 127
    },
    {
      "midi": 46,
      "hit": false,
      "t": 69193.55300000022,
      "d": 228.8306604166719,
      "v": 127
    },
    {
      "midi": 83,
      "hit": false,
      "t": 69314.52075000019,
      "d": 110.88710416665708,
      "v": 127
    },
    {
      "midi": 79,
      "hit": false,
      "t": 69435.48850000018,
      "d": 169.35485000000335,
      "v": 127
    },
    {
      "midi": 36,
      "hit": false,
      "t": 69435.48850000023,
      "d": 270.1613083333359,
      "v": 127
    },
    {
      "midi": 74,
      "hit": false,
      "t": 69556.45625000018,
      "d": 162.29839791667473,
      "v": 127
    },
    {
      "midi": 69,
      "hit": false,
      "t": 69677.42400000019,
      "d": 100.80645833333256,
      "v": 127
    },
    {
      "midi": 43,
      "hit": false,
      "t": 69677.42400000023,
      "d": 109.87903958333482,
      "v": 127
    },
    {
      "midi": 77,
      "hit": false,
      "t": 69798.39175000018,
      "d": 176.41130208333198,
      "v": 127
    },
    {
      "midi": 48,
      "hit": false,
      "t": 69798.39175000023,
      "d": 199.59678750000603,
      "v": 127
    },
    {
      "midi": 72,
      "hit": false,
      "t": 69919.35950000018,
      "d": 117.94355625000026,
      "v": 127
    },
    {
      "midi": 67,
      "hit": false,
      "t": 70040.32725000018,
      "d": 135.08065416666795,
      "v": 127
    },
    {
      "midi": 49,
      "hit": false,
      "t": 70040.32725000023,
      "d": 146.1693645833293,
      "v": 127
    },
    {
      "midi": 75,
      "hit": false,
      "t": 70161.29500000017,
      "d": 164.31452708334837,
      "v": 127
    },
    {
      "midi": 48,
      "hit": false,
      "t": 70161.29500000023,
      "d": 298.3871166666795,
      "v": 127
    },
    {
      "midi": 70,
      "hit": false,
      "t": 70282.26275000018,
      "d": 98.79032916667347,
      "v": 127
    },
    {
      "midi": 65,
      "hit": false,
      "t": 70403.2305000002,
      "d": 147.17742916666612,
      "v": 127
    },
    {
      "midi": 43,
      "hit": false,
      "t": 70403.23050000024,
      "d": 218.7500145833328,
      "v": 127
    },
    {
      "midi": 67,
      "hit": false,
      "t": 70524.19825000019,
      "d": 157.25807499999064,
      "v": 127
    },
    {
      "midi": 68,
      "hit": false,
      "t": 70645.16600000019,
      "d": 142.13710624999658,
      "v": 127
    },
    {
      "midi": 42,
      "hit": false,
      "t": 70645.16600000023,
      "d": 243.9516291666805,
      "v": 127
    },
    {
      "midi": 73,
      "hit": false,
      "t": 70766.13375000018,
      "d": 143.1451708333334,
      "v": 127
    },
    {
      "midi": 78,
      "hit": false,
      "t": 70887.10150000018,
      "d": 136.08871875000477,
      "v": 127
    },
    {
      "midi": 46,
      "hit": false,
      "t": 70887.10150000024,
      "d": 228.8306604166719,
      "v": 127
    },
    {
      "midi": 83,
      "hit": false,
      "t": 71008.06925000019,
      "d": 171.37097916666244,
      "v": 127
    },
    {
      "midi": 78,
      "hit": false,
      "t": 71129.03700000019,
      "d": 120.96774999999616,
      "v": 127
    },
    {
      "midi": 51,
      "hit": false,
      "t": 71129.03700000024,
      "d": 241.93550000000687,
      "v": 127
    },
    {
      "midi": 73,
      "hit": false,
      "t": 71250.00475000018,
      "d": 120.96774999999616,
      "v": 127
    },
    {
      "midi": 79,
      "hit": false,
      "t": 71370.97250000018,
      "d": 169.35485000000335,
      "v": 127
    },
    {
      "midi": 36,
      "hit": false,
      "t": 71370.97250000025,
      "d": 270.1613083333359,
      "v": 127
    },
    {
      "midi": 74,
      "hit": false,
      "t": 71491.94025000017,
      "d": 162.29839791667473,
      "v": 127
    },
    {
      "midi": 69,
      "hit": false,
      "t": 71612.90800000018,
      "d": 100.80645833333256,
      "v": 127
    },
    {
      "midi": 43,
      "hit": false,
      "t": 71612.90800000026,
      "d": 109.87903958333482,
      "v": 127
    },
    {
      "midi": 77,
      "hit": false,
      "t": 71733.87575000018,
      "d": 176.41130208333198,
      "v": 127
    },
    {
      "midi": 48,
      "hit": false,
      "t": 71733.87575000025,
      "d": 199.59678750000603,
      "v": 127
    },
    {
      "midi": 72,
      "hit": false,
      "t": 71854.84350000018,
      "d": 117.94355625000026,
      "v": 127
    },
    {
      "midi": 67,
      "hit": false,
      "t": 71975.81125000017,
      "d": 135.08065416666795,
      "v": 127
    },
    {
      "midi": 49,
      "hit": false,
      "t": 71975.81125000026,
      "d": 146.1693645833293,
      "v": 127
    },
    {
      "midi": 75,
      "hit": false,
      "t": 72096.77900000017,
      "d": 164.31452708334837,
      "v": 127
    },
    {
      "midi": 48,
      "hit": false,
      "t": 72096.77900000026,
      "d": 298.3871166666795,
      "v": 127
    },
    {
      "midi": 70,
      "hit": false,
      "t": 72217.74675000018,
      "d": 98.79032916667347,
      "v": 127
    },
    {
      "midi": 65,
      "hit": false,
      "t": 72338.71450000019,
      "d": 147.17742916666612,
      "v": 127
    },
    {
      "midi": 43,
      "hit": false,
      "t": 72338.71450000026,
      "d": 218.7500145833328,
      "v": 127
    },
    {
      "midi": 67,
      "hit": false,
      "t": 72459.68225000019,
      "d": 157.25807499999064,
      "v": 127
    },
    {
      "midi": 68,
      "hit": false,
      "t": 72580.65000000018,
      "d": 142.13710624999658,
      "v": 127
    },
    {
      "midi": 42,
      "hit": false,
      "t": 72580.65000000026,
      "d": 243.9516291666805,
      "v": 127
    },
    {
      "midi": 73,
      "hit": false,
      "t": 72701.61775000018,
      "d": 143.1451708333334,
      "v": 127
    },
    {
      "midi": 78,
      "hit": false,
      "t": 72822.58550000018,
      "d": 136.08871875000477,
      "v": 127
    },
    {
      "midi": 46,
      "hit": false,
      "t": 72822.58550000026,
      "d": 228.8306604166719,
      "v": 127
    },
    {
      "midi": 83,
      "hit": false,
      "t": 72943.55325000019,
      "d": 110.88710416665708,
      "v": 127
    },
    {
      "midi": 79,
      "hit": false,
      "t": 73064.52100000018,
      "d": 169.35485000000335,
      "v": 127
    },
    {
      "midi": 36,
      "hit": false,
      "t": 73064.52100000027,
      "d": 270.1613083333359,
      "v": 127
    },
    {
      "midi": 74,
      "hit": false,
      "t": 73185.48875000018,
      "d": 162.29839791667473,
      "v": 127
    },
    {
      "midi": 69,
      "hit": false,
      "t": 73306.45650000019,
      "d": 100.80645833333256,
      "v": 127
    },
    {
      "midi": 43,
      "hit": false,
      "t": 73306.45650000028,
      "d": 109.87903958333482,
      "v": 127
    },
    {
      "midi": 77,
      "hit": false,
      "t": 73427.42425000019,
      "d": 176.41130208333198,
      "v": 127
    },
    {
      "midi": 48,
      "hit": false,
      "t": 73427.42425000027,
      "d": 199.59678750000603,
      "v": 127
    },
    {
      "midi": 72,
      "hit": false,
      "t": 73548.39200000018,
      "d": 117.94355625000026,
      "v": 127
    },
    {
      "midi": 67,
      "hit": false,
      "t": 73669.35975000018,
      "d": 135.08065416666795,
      "v": 127
    },
    {
      "midi": 49,
      "hit": false,
      "t": 73669.35975000028,
      "d": 146.1693645833293,
      "v": 127
    },
    {
      "midi": 75,
      "hit": false,
      "t": 73790.32750000017,
      "d": 164.31452708334837,
      "v": 127
    },
    {
      "midi": 48,
      "hit": false,
      "t": 73790.32750000028,
      "d": 298.3871166666795,
      "v": 127
    },
    {
      "midi": 70,
      "hit": false,
      "t": 73911.29525000018,
      "d": 98.79032916667347,
      "v": 127
    },
    {
      "midi": 65,
      "hit": false,
      "t": 74032.2630000002,
      "d": 147.17742916666612,
      "v": 127
    },
    {
      "midi": 43,
      "hit": false,
      "t": 74032.26300000028,
      "d": 218.7500145833328,
      "v": 127
    },
    {
      "midi": 67,
      "hit": false,
      "t": 74153.23075000019,
      "d": 157.25807499999064,
      "v": 127
    },
    {
      "midi": 68,
      "hit": false,
      "t": 74274.19850000019,
      "d": 142.13710624999658,
      "v": 127
    },
    {
      "midi": 42,
      "hit": false,
      "t": 74274.19850000028,
      "d": 243.9516291666805,
      "v": 127
    },
    {
      "midi": 73,
      "hit": false,
      "t": 74395.16625000018,
      "d": 143.1451708333334,
      "v": 127
    },
    {
      "midi": 78,
      "hit": false,
      "t": 74516.13400000018,
      "d": 136.08871875000477,
      "v": 127
    },
    {
      "midi": 46,
      "hit": false,
      "t": 74516.13400000028,
      "d": 228.8306604166719,
      "v": 127
    },
    {
      "midi": 83,
      "hit": false,
      "t": 74637.10175000019,
      "d": 171.37097916666244,
      "v": 127
    },
    {
      "midi": 78,
      "hit": false,
      "t": 74758.06950000019,
      "d": 120.96774999999616,
      "v": 127
    },
    {
      "midi": 51,
      "hit": false,
      "t": 74758.06950000029,
      "d": 241.93550000000687,
      "v": 127
    },
    {
      "midi": 73,
      "hit": false,
      "t": 74879.03725000018,
      "d": 120.96774999999616,
      "v": 127
    },
    {
      "midi": 80,
      "hit": false,
      "t": 75000.00500000018,
      "d": 355.84679791665985,
      "v": 127
    },
    {
      "midi": 72,
      "hit": false,
      "t": 75000.00500000018,
      "d": 408.2661562499852,
      "v": 127
    },
    {
      "midi": 32,
      "hit": false,
      "t": 75000.0050000003,
      "d": 411.29034999999567,
      "v": 127
    },
    {
      "midi": 75,
      "hit": false,
      "t": 75362.90825000017,
      "d": 118.95162083333707,
      "v": 127
    },
    {
      "midi": 76,
      "hit": false,
      "t": 75483.87600000018,
      "d": 105.8467812500021,
      "v": 127
    },
    {
      "midi": 69,
      "hit": false,
      "t": 75483.87600000018,
      "d": 418.34680208333884,
      "v": 127
    },
    {
      "midi": 33,
      "hit": false,
      "t": 75483.8760000003,
      "d": 454.6371270833333,
      "v": 127
    },
    {
      "midi": 73,
      "hit": false,
      "t": 75604.84375000017,
      "d": 207.66130416667147,
      "v": 127
    },
    {
      "midi": 76,
      "hit": false,
      "t": 75846.77925000018,
      "d": 135.08065416666795,
      "v": 127
    },
    {
      "midi": 78,
      "hit": false,
      "t": 75967.74700000018,
      "d": 147.17742916666612,
      "v": 127
    },
    {
      "midi": 71,
      "hit": false,
      "t": 75967.74700000018,
      "d": 420.3629312499979,
      "v": 127
    },
    {
      "midi": 35,
      "hit": false,
      "t": 75967.7470000003,
      "d": 454.6371270833333,
      "v": 127
    },
    {
      "midi": 78,
      "hit": false,
      "t": 76209.68250000017,
      "d": 173.38710833333607,
      "v": 127
    },
    {
      "midi": 70,
      "hit": false,
      "t": 76451.61800000018,
      "d": 171.37097916666244,
      "v": 127
    },
    {
      "midi": 76,
      "hit": false,
      "t": 76451.61800000018,
      "d": 189.51614166666695,
      "v": 127
    },
    {
      "midi": 36,
      "hit": false,
      "t": 76451.6180000003,
      "d": 409.2742208333366,
      "v": 127
    },
    {
      "midi": 72,
      "hit": false,
      "t": 76693.55350000018,
      "d": 196.57259374999558,
      "v": 127
    },
    {
      "midi": 69,
      "hit": false,
      "t": 76693.55350000018,
      "d": 241.93549999999232,
      "v": 127
    },
    {
      "midi": 73,
      "hit": false,
      "t": 76935.48900000018,
      "d": 1637.0968833333318,
      "v": 127
    },
    {
      "midi": 68,
      "hit": false,
      "t": 76935.48900000018,
      "d": 1659.274304166669,
      "v": 127
    },
    {
      "midi": 37,
      "hit": false,
      "t": 76935.48900000029,
      "d": 226.81453124999825,
      "v": 127
    },
    {
      "midi": 39,
      "hit": false,
      "t": 77177.42450000028,
      "d": 143.1451708333334,
      "v": 127
    },
    {
      "midi": 40,
      "hit": false,
      "t": 77298.39225000028,
      "d": 208.6693687500083,
      "v": 127
    },
    {
      "midi": 42,
      "hit": false,
      "t": 77540.32775000029,
      "d": 133.06452499999432,
      "v": 127
    },
    {
      "midi": 43,
      "hit": false,
      "t": 77661.29550000028,
      "d": 221.77420833332872,
      "v": 127
    },
    {
      "midi": 42,
      "hit": false,
      "t": 77903.23100000028,
      "d": 123.99194374999206,
      "v": 127
    },
    {
      "midi": 40,
      "hit": false,
      "t": 78024.19875000027,
      "d": 246.97582291666185,
      "v": 127
    },
    {
      "midi": 39,
      "hit": false,
      "t": 78266.13425000026,
      "d": 131.04839583333523,
      "v": 127
    },
    {
      "midi": 37,
      "hit": false,
      "t": 78387.10200000026,
      "d": 210.68549791666737,
      "v": 127
    },
    {
      "midi": 39,
      "hit": false,
      "t": 78629.03750000027,
      "d": 129.0322666666616,
      "v": 127
    },
    {
      "midi": 40,
      "hit": false,
      "t": 78750.00525000026,
      "d": 210.68549791666737,
      "v": 127
    },
    {
      "midi": 42,
      "hit": false,
      "t": 78991.94075000027,
      "d": 155.24194583333156,
      "v": 127
    },
    {
      "midi": 43,
      "hit": false,
      "t": 79112.90850000027,
      "d": 222.78227291666553,
      "v": 127
    },
    {
      "midi": 42,
      "hit": false,
      "t": 79354.84400000026,
      "d": 238.91130624999641,
      "v": 127
    },
    {
      "midi": 40,
      "hit": false,
      "t": 79596.77950000025,
      "d": 227.82259583333507,
      "v": 127
    },
    {
      "midi": 39,
      "hit": false,
      "t": 79838.71500000026,
      "d": 212.70162708332646,
      "v": 127
    },
    {
      "midi": 80,
      "hit": false,
      "t": 80080.65050000018,
      "d": 355.84679791665985,
      "v": 127
    },
    {
      "midi": 72,
      "hit": false,
      "t": 80080.65050000018,
      "d": 408.2661562499852,
      "v": 127
    },
    {
      "midi": 32,
      "hit": false,
      "t": 80080.65050000025,
      "d": 411.29034999999567,
      "v": 127
    },
    {
      "midi": 75,
      "hit": false,
      "t": 80443.55375000017,
      "d": 118.95162083333707,
      "v": 127
    },
    {
      "midi": 76,
      "hit": false,
      "t": 80564.52150000018,
      "d": 105.8467812500021,
      "v": 127
    },
    {
      "midi": 69,
      "hit": false,
      "t": 80564.52150000018,
      "d": 418.34680208333884,
      "v": 127
    },
    {
      "midi": 33,
      "hit": false,
      "t": 80564.52150000025,
      "d": 454.6371270833333,
      "v": 127
    },
    {
      "midi": 73,
      "hit": false,
      "t": 80685.48925000017,
      "d": 207.66130416667147,
      "v": 127
    },
    {
      "midi": 76,
      "hit": false,
      "t": 80927.42475000018,
      "d": 135.08065416666795,
      "v": 127
    },
    {
      "midi": 78,
      "hit": false,
      "t": 81048.39250000018,
      "d": 147.17742916666612,
      "v": 127
    },
    {
      "midi": 71,
      "hit": false,
      "t": 81048.39250000018,
      "d": 420.3629312499979,
      "v": 127
    },
    {
      "midi": 35,
      "hit": false,
      "t": 81048.39250000025,
      "d": 454.6371270833333,
      "v": 127
    },
    {
      "midi": 78,
      "hit": false,
      "t": 81290.32800000017,
      "d": 173.38710833333607,
      "v": 127
    },
    {
      "midi": 70,
      "hit": false,
      "t": 81532.26350000018,
      "d": 171.37097916666244,
      "v": 127
    },
    {
      "midi": 76,
      "hit": false,
      "t": 81532.26350000018,
      "d": 189.51614166666695,
      "v": 127
    },
    {
      "midi": 36,
      "hit": false,
      "t": 81532.26350000025,
      "d": 409.2742208333366,
      "v": 127
    },
    {
      "midi": 72,
      "hit": false,
      "t": 81774.19900000018,
      "d": 196.57259374999558,
      "v": 127
    },
    {
      "midi": 69,
      "hit": false,
      "t": 81774.19900000018,
      "d": 241.93549999999232,
      "v": 127
    },
    {
      "midi": 61,
      "hit": false,
      "t": 82016.13450000017,
      "d": 200.6048520833283,
      "v": 127
    },
    {
      "midi": 73,
      "hit": false,
      "t": 82016.13450000017,
      "d": 220.7661437499919,
      "v": 127
    },
    {
      "midi": 37,
      "hit": false,
      "t": 82016.13450000025,
      "d": 193.54839999999967,
      "v": 127
    },
    {
      "midi": 75,
      "hit": false,
      "t": 82258.07000000017,
      "d": 89.71774791667121,
      "v": 127
    },
    {
      "midi": 63,
      "hit": false,
      "t": 82258.07000000017,
      "d": 91.73387708334485,
      "v": 127
    },
    {
      "midi": 39,
      "hit": false,
      "t": 82258.07000000025,
      "d": 77.62097291667305,
      "v": 127
    },
    {
      "midi": 64,
      "hit": false,
      "t": 82379.03775000018,
      "d": 202.62098125000193,
      "v": 127
    },
    {
      "midi": 76,
      "hit": false,
      "t": 82379.03775000018,
      "d": 210.68549791666737,
      "v": 127
    },
    {
      "midi": 40,
      "hit": false,
      "t": 82379.03775000027,
      "d": 162.29839791666018,
      "v": 127
    },
    {
      "midi": 78,
      "hit": false,
      "t": 82620.97325000018,
      "d": 115.92742708332662,
      "v": 127
    },
    {
      "midi": 66,
      "hit": false,
      "t": 82620.97325000018,
      "d": 135.08065416666795,
      "v": 127
    },
    {
      "midi": 42,
      "hit": false,
      "t": 82620.97325000026,
      "d": 110.88710416667163,
      "v": 127
    },
    {
      "midi": 79,
      "hit": false,
      "t": 82741.94100000018,
      "d": 191.5322708333406,
      "v": 127
    },
    {
      "midi": 67,
      "hit": false,
      "t": 82741.94100000018,
      "d": 193.54840000001423,
      "v": 127
    },
    {
      "midi": 43,
      "hit": false,
      "t": 82741.94100000027,
      "d": 186.49194791667105,
      "v": 127
    },
    {
      "midi": 67,
      "hit": false,
      "t": 83951.6185000002,
      "d": 186.49194791667105,
      "v": 127
    },
    {
      "midi": 79,
      "hit": false,
      "t": 83951.6185000002,
      "d": 202.62098125000193,
      "v": 127
    },
    {
      "midi": 43,
      "hit": false,
      "t": 83951.61850000027,
      "d": 181.4516250000015,
      "v": 127
    },
    {
      "midi": 68,
      "hit": false,
      "t": 84193.55400000021,
      "d": 84.67742500000168,
      "v": 127
    },
    {
      "midi": 80,
      "hit": false,
      "t": 84193.55400000021,
      "d": 98.79032916667347,
      "v": 127
    },
    {
      "midi": 44,
      "hit": false,
      "t": 84193.55400000028,
      "d": 82.66129583332804,
      "v": 127
    },
    {
      "midi": 70,
      "hit": false,
      "t": 84314.52175000022,
      "d": 160.2822687500011,
      "v": 127
    },
    {
      "midi": 82,
      "hit": false,
      "t": 84314.52175000022,
      "d": 195.5645291666733,
      "v": 127
    },
    {
      "midi": 46,
      "hit": false,
      "t": 84314.52175000028,
      "d": 138.10484791666386,
      "v": 127
    },
    {
      "midi": 71,
      "hit": false,
      "t": 84556.45725000023,
      "d": 101.81452291666938,
      "v": 127
    },
    {
      "midi": 83,
      "hit": false,
      "t": 84556.45725000023,
      "d": 129.0322666666616,
      "v": 127
    },
    {
      "midi": 47,
      "hit": false,
      "t": 84556.45725000027,
      "d": 108.870974999998,
      "v": 127
    },
    {
      "midi": 85,
      "hit": false,
      "t": 84677.42500000022,
      "d": 191.53227083332604,
      "v": 127
    },
    {
      "midi": 73,
      "hit": false,
      "t": 84677.42500000022,
      "d": 224.79840208332462,
      "v": 127
    },
    {
      "midi": 49,
      "hit": false,
      "t": 84677.42500000026,
      "d": 203.62904583333875,
      "v": 127
    },
    {
      "midi": 49,
      "hit": false,
      "t": 86370.97350000027,
      "d": 1606.854945833329,
      "v": 127
    },
    {
      "midi": 52,
      "hit": false,
      "t": 86370.97350000027,
      "d": 1944.5565812499844,
      "v": 127
    },
    {
      "midi": 61,
      "hit": false,
      "t": 86370.97350000027,
      "d": 2906.250193749991,
      "v": 127
    },
    {
      "midi": 49,
      "hit": false,
      "t": 88064.52200000026,
      "d": 201.61291666666511,
      "v": 127
    },
    {
      "midi": 51,
      "hit": false,
      "t": 88306.45750000025,
      "d": 251.00808125000913,
      "v": 127
    },
    {
      "midi": 54,
      "hit": false,
      "t": 88306.45750000025,
      "d": 1918.3469020833581,
      "v": 127
    },
    {
      "midi": 51,
      "hit": false,
      "t": 88790.32850000027,
      "d": 1229.8387916666688,
      "v": 127
    },
    {
      "midi": 59,
      "hit": false,
      "t": 89274.19950000026,
      "d": 707.6613375000015,
      "v": 127
    },
    {
      "midi": 49,
      "hit": false,
      "t": 90000.00600000027,
      "d": 130.04033124999842,
      "v": 127
    },
    {
      "midi": 61,
      "hit": false,
      "t": 90000.00600000027,
      "d": 165.32259166667063,
      "v": 127
    },
    {
      "midi": 51,
      "hit": false,
      "t": 90120.97375000027,
      "d": 139.11291250001523,
      "v": 127
    },
    {
      "midi": 63,
      "hit": false,
      "t": 90120.97375000027,
      "d": 141.12904166668886,
      "v": 127
    },
    {
      "midi": 56,
      "hit": false,
      "t": 90241.94150000028,
      "d": 10.080645833339076,
      "v": 127
    },
    {
      "midi": 52,
      "hit": false,
      "t": 90241.94150000028,
      "d": 1618.9517208333418,
      "v": 127
    },
    {
      "midi": 59,
      "hit": false,
      "t": 90241.94150000028,
      "d": 1980.8469062500226,
      "v": 127
    },
    {
      "midi": 64,
      "hit": false,
      "t": 90241.94150000028,
      "d": 2930.443743750031,
      "v": 127
    },
    {
      "midi": 52,
      "hit": false,
      "t": 91935.49000000028,
      "d": 203.62904583333875,
      "v": 127
    },
    {
      "midi": 56,
      "hit": false,
      "t": 92177.42550000029,
      "d": 27.217743750006775,
      "v": 127
    },
    {
      "midi": 50,
      "hit": false,
      "t": 92177.42550000029,
      "d": 267.13711458334,
      "v": 127
    },
    {
      "midi": 54,
      "hit": false,
      "t": 92177.42550000029,
      "d": 1924.39528958335,
      "v": 127
    },
    {
      "midi": 50,
      "hit": false,
      "t": 92661.2965000003,
      "d": 1145.1613666666672,
      "v": 127
    },
    {
      "midi": 62,
      "hit": false,
      "t": 93145.1675000003,
      "d": 1914.3146437499963,
      "v": 127
    },
    {
      "midi": 57,
      "hit": false,
      "t": 93145.1675000003,
      "d": 1930.4436770833272,
      "v": 127
    },
    {
      "midi": 50,
      "hit": false,
      "t": 93870.97400000031,
      "d": 226.81453124999825,
      "v": 127
    },
    {
      "midi": 47,
      "hit": false,
      "t": 94112.9095000003,
      "d": 1704.6372104166658,
      "v": 127
    },
    {
      "midi": 53,
      "hit": false,
      "t": 94112.9095000003,
      "d": 1932.4598062500008,
      "v": 127
    },
    {
      "midi": 61,
      "hit": false,
      "t": 95080.6515000003,
      "d": 227.82259583333507,
      "v": 127
    },
    {
      "midi": 55,
      "hit": false,
      "t": 95322.5870000003,
      "d": 244.95969375000277,
      "v": 127
    },
    {
      "midi": 59,
      "hit": false,
      "t": 95806.4580000003,
      "d": 188.50807708333014,
      "v": 127
    },
    {
      "midi": 49,
      "hit": false,
      "t": 95806.4580000003,
      "d": 210.68549791666737,
      "v": 127
    },
    {
      "midi": 54,
      "hit": false,
      "t": 96048.3935000003,
      "d": 228.8306604166719,
      "v": 127
    },
    {
      "midi": 59,
      "hit": false,
      "t": 96048.3935000003,
      "d": 987.903291666662,
      "v": 127
    },
    {
      "midi": 56,
      "hit": false,
      "t": 96532.2645000003,
      "d": 80.64516666666896,
      "v": 127
    },
    {
      "midi": 54,
      "hit": false,
      "t": 96532.2645000003,
      "d": 480.8468062500033,
      "v": 127
    },
    {
      "midi": 49,
      "hit": false,
      "t": 97016.1355000003,
      "d": 973.7903875000193,
      "v": 127
    },
    {
      "midi": 52,
      "hit": false,
      "t": 97741.9420000003,
      "d": 58.46774583333172,
      "v": 127
    },
    {
      "midi": 57,
      "hit": false,
      "t": 97983.87750000031,
      "d": 7.056452083343174,
      "v": 127
    },
    {
      "midi": 51,
      "hit": false,
      "t": 97983.87750000031,
      "d": 1255.0404062500165,
      "v": 127
    },
    {
      "midi": 56,
      "hit": false,
      "t": 98951.61950000032,
      "d": 945.5645791666757,
      "v": 127
    },
    {
      "midi": 50,
      "hit": false,
      "t": 99193.55500000033,
      "d": 242.94356458332913,
      "v": 127
    },
    {
      "midi": 51,
      "hit": false,
      "t": 99435.49050000032,
      "d": 244.95969375000277,
      "v": 127
    },
    {
      "midi": 54,
      "hit": false,
      "t": 99677.42600000033,
      "d": 183.4677541666606,
      "v": 127
    },
    {
      "midi": 48,
      "hit": false,
      "t": 99677.42600000033,
      "d": 213.70969166666328,
      "v": 127
    },
    {
      "midi": 49,
      "hit": false,
      "t": 99919.36150000033,
      "d": 327.6209895833308,
      "v": 127
    },
    {
      "midi": 54,
      "hit": false,
      "t": 99919.36150000033,
      "d": 967.7419999999984,
      "v": 127
    },
    {
      "midi": 56,
      "hit": false,
      "t": 99919.36150000033,
      "d": 1675.4033375,
      "v": 127
    },
    {
      "midi": 52,
      "hit": false,
      "t": 100887.10350000033,
      "d": 244.95969375000277,
      "v": 127
    },
    {
      "midi": 49,
      "hit": false,
      "t": 101129.03900000034,
      "d": 228.83066041665734,
      "v": 127
    },
    {
      "midi": 52,
      "hit": false,
      "t": 101370.97450000033,
      "d": 247.98388750001322,
      "v": 127
    },
    {
      "midi": 47,
      "hit": false,
      "t": 101612.91000000034,
      "d": 257.0564687500155,
      "v": 127
    },
    {
      "midi": 49,
      "hit": false,
      "t": 101854.84550000035,
      "d": 1.008064583336818,
      "v": 127
    },
    {
      "midi": 56,
      "hit": false,
      "t": 101854.84550000035,
      "d": 120.96775000001071,
      "v": 127
    },
    {
      "midi": 45,
      "hit": false,
      "t": 101854.84550000035,
      "d": 1905.242062499994,
      "v": 127
    },
    {
      "midi": 57,
      "hit": false,
      "t": 101854.84550000035,
      "d": 1965.7259374999994,
      "v": 127
    },
    {
      "midi": 54,
      "hit": false,
      "t": 102822.58750000036,
      "d": 507.0564854166587,
      "v": 127
    },
    {
      "midi": 52,
      "hit": false,
      "t": 103306.45850000036,
      "d": 30.241937499988126,
      "v": 127
    },
    {
      "midi": 49,
      "hit": false,
      "t": 103772.18433750034,
      "d": 21.16935625000042,
      "v": 127
    },
    {
      "midi": 44,
      "hit": false,
      "t": 103790.32950000034,
      "d": 279.23388958333817,
      "v": 127
    },
    {
      "midi": 52,
      "hit": false,
      "t": 103790.32950000034,
      "d": 1912.2985145833372,
      "v": 127
    },
    {
      "midi": 44,
      "hit": false,
      "t": 104274.20050000034,
      "d": 1364.9194458333368,
      "v": 127
    },
    {
      "midi": 44,
      "hit": false,
      "t": 105725.81350000034,
      "d": 1611.8952687499986,
      "v": 127
    },
    {
      "midi": 48,
      "hit": false,
      "t": 105725.81350000034,
      "d": 1993.9517458333576,
      "v": 127
    },
    {
      "midi": 51,
      "hit": false,
      "t": 105725.81350000034,
      "d": 2000.000133333364,
      "v": 127
    },
    {
      "midi": 44,
      "hit": false,
      "t": 107419.36200000034,
      "d": 252.01614583334594,
      "v": 127
    },
    {
      "midi": 56,
      "hit": false,
      "t": 107661.29750000035,
      "d": 70.56452083335898,
      "v": 127
    },
    {
      "midi": 42,
      "hit": false,
      "t": 107661.29750000035,
      "d": 304.43550416668586,
      "v": 127
    },
    {
      "midi": 61,
      "hit": false,
      "t": 107661.29750000035,
      "d": 1957.6614208333485,
      "v": 127
    },
    {
      "midi": 42,
      "hit": false,
      "t": 108145.16850000036,
      "d": 1177.419433333329,
      "v": 127
    },
    {
      "midi": 42,
      "hit": false,
      "t": 109354.84600000035,
      "d": 181.4516250000015,
      "v": 127
    },
    {
      "midi": 42,
      "hit": false,
      "t": 109596.78150000036,
      "d": 1896.1694812500064,
      "v": 127
    },
    {
      "midi": 60,
      "hit": false,
      "t": 109596.78150000036,
      "d": 1898.18561041668,
      "v": 127
    },
    {
      "midi": 30,
      "hit": false,
      "t": 109605.85408125036,
      "d": 1923.3872250000131,
      "v": 127
    },
    {
      "midi": 66,
      "hit": false,
      "t": 111048.39450000021,
      "d": 105.8467812500021,
      "v": 127
    },
    {
      "midi": 68,
      "hit": false,
      "t": 111169.36225000021,
      "d": 127.01613750000251,
      "v": 127
    },
    {
      "midi": 70,
      "hit": false,
      "t": 111290.3300000002,
      "d": 134.0725895833457,
      "v": 127
    },
    {
      "midi": 72,
      "hit": false,
      "t": 111411.29775000022,
      "d": 131.04839583333523,
      "v": 127
    },
    {
      "midi": 73,
      "hit": false,
      "t": 111532.26550000021,
      "d": 2906.2501937500056,
      "v": 127
    },
    {
      "midi": 49,
      "hit": false,
      "t": 111532.26550000037,
      "d": 1606.854945833329,
      "v": 127
    },
    {
      "midi": 25,
      "hit": false,
      "t": 111532.26550000037,
      "d": 1934.47593541666,
      "v": 127
    },
    {
      "midi": 52,
      "hit": false,
      "t": 111532.26550000037,
      "d": 1944.556581249999,
      "v": 127
    },
    {
      "midi": 61,
      "hit": false,
      "t": 111532.26550000037,
      "d": 2906.2501937500056,
      "v": 127
    },
    {
      "midi": 49,
      "hit": false,
      "t": 113225.81400000036,
      "d": 201.61291666666511,
      "v": 127
    },
    {
      "midi": 27,
      "hit": false,
      "t": 113464.72530625036,
      "d": 1938.5081937500363,
      "v": 127
    },
    {
      "midi": 51,
      "hit": false,
      "t": 113467.74950000037,
      "d": 251.00808125000913,
      "v": 127
    },
    {
      "midi": 54,
      "hit": false,
      "t": 113467.74950000037,
      "d": 1918.3469020833581,
      "v": 127
    },
    {
      "midi": 51,
      "hit": false,
      "t": 113951.62050000038,
      "d": 1229.8387916666688,
      "v": 127
    },
    {
      "midi": 71,
      "hit": false,
      "t": 114435.49150000022,
      "d": 707.6613375000015,
      "v": 127
    },
    {
      "midi": 59,
      "hit": false,
      "t": 114435.49150000038,
      "d": 707.6613375000015,
      "v": 127
    },
    {
      "midi": 73,
      "hit": false,
      "t": 115161.29800000023,
      "d": 165.32259166665608,
      "v": 127
    },
    {
      "midi": 49,
      "hit": false,
      "t": 115161.29800000039,
      "d": 130.04033124999842,
      "v": 127
    },
    {
      "midi": 61,
      "hit": false,
      "t": 115161.29800000039,
      "d": 165.32259166667063,
      "v": 127
    },
    {
      "midi": 75,
      "hit": false,
      "t": 115282.26575000022,
      "d": 141.12904166665976,
      "v": 127
    },
    {
      "midi": 51,
      "hit": false,
      "t": 115282.26575000038,
      "d": 139.11291250001523,
      "v": 127
    },
    {
      "midi": 63,
      "hit": false,
      "t": 115282.26575000038,
      "d": 141.12904166668886,
      "v": 127
    },
    {
      "midi": 28,
      "hit": false,
      "t": 115390.12866041706,
      "d": 1950.60496875002,
      "v": 127
    },
    {
      "midi": 76,
      "hit": false,
      "t": 115403.23350000022,
      "d": 2930.443743750002,
      "v": 127
    },
    {
      "midi": 56,
      "hit": false,
      "t": 115403.2335000004,
      "d": 10.080645833339076,
      "v": 127
    },
    {
      "midi": 59,
      "hit": false,
      "t": 115403.2335000004,
      "d": 1980.8469062500226,
      "v": 127
    },
    {
      "midi": 64,
      "hit": false,
      "t": 115403.2335000004,
      "d": 2930.443743750031,
      "v": 127
    },
    {
      "midi": 52,
      "hit": false,
      "t": 117096.7820000004,
      "d": 203.62904583333875,
      "v": 127
    },
    {
      "midi": 26,
      "hit": false,
      "t": 117331.66104791708,
      "d": 1959.6775500000076,
      "v": 127
    },
    {
      "midi": 56,
      "hit": false,
      "t": 117338.7175000004,
      "d": 27.217743750006775,
      "v": 127
    },
    {
      "midi": 50,
      "hit": false,
      "t": 117338.7175000004,
      "d": 267.13711458334,
      "v": 127
    },
    {
      "midi": 54,
      "hit": false,
      "t": 117338.7175000004,
      "d": 1924.39528958335,
      "v": 127
    },
    {
      "midi": 50,
      "hit": false,
      "t": 117822.58850000042,
      "d": 1145.1613666666672,
      "v": 127
    },
    {
      "midi": 74,
      "hit": false,
      "t": 118306.45950000022,
      "d": 1914.3146437500109,
      "v": 127
    },
    {
      "midi": 62,
      "hit": false,
      "t": 118306.45950000042,
      "d": 1914.3146437499963,
      "v": 127
    },
    {
      "midi": 57,
      "hit": false,
      "t": 118306.45950000042,
      "d": 1930.4436770833272,
      "v": 127
    },
    {
      "midi": 50,
      "hit": false,
      "t": 119032.26600000043,
      "d": 226.81453124999825,
      "v": 127
    },
    {
      "midi": 47,
      "hit": false,
      "t": 119274.20150000042,
      "d": 1704.6372104166658,
      "v": 127
    },
    {
      "midi": 53,
      "hit": false,
      "t": 119274.20150000042,
      "d": 1932.4598062500154,
      "v": 127
    },
    {
      "midi": 23,
      "hit": false,
      "t": 119275.20956458375,
      "d": 1925.4033541666722,
      "v": 127
    },
    {
      "midi": 73,
      "hit": false,
      "t": 120241.94350000023,
      "d": 227.82259583333507,
      "v": 127
    },
    {
      "midi": 61,
      "hit": false,
      "t": 120241.94350000042,
      "d": 227.82259583333507,
      "v": 127
    },
    {
      "midi": 67,
      "hit": false,
      "t": 120483.87900000023,
      "d": 244.95969375000277,
      "v": 127
    },
    {
      "midi": 55,
      "hit": false,
      "t": 120483.87900000042,
      "d": 244.95969375000277,
      "v": 127
    },
    {
      "midi": 68,
      "hit": false,
      "t": 120725.81450000024,
      "d": 202.62098125000193,
      "v": 127
    },
    {
      "midi": 71,
      "hit": false,
      "t": 120967.75000000025,
      "d": 188.50807708333014,
      "v": 127
    },
    {
      "midi": 59,
      "hit": false,
      "t": 120967.75000000042,
      "d": 188.50807708333014,
      "v": 127
    },
    {
      "midi": 49,
      "hit": false,
      "t": 120967.75000000042,
      "d": 210.68549791666737,
      "v": 127
    },
    {
      "midi": 30,
      "hit": false,
      "t": 121194.56453125042,
      "d": 1700.6049520833476,
      "v": 127
    },
    {
      "midi": 71,
      "hit": false,
      "t": 121209.68550000024,
      "d": 504.0322916666628,
      "v": 127
    },
    {
      "midi": 54,
      "hit": false,
      "t": 121209.68550000043,
      "d": 228.8306604166719,
      "v": 127
    },
    {
      "midi": 59,
      "hit": false,
      "t": 121209.68550000043,
      "d": 504.0322916666628,
      "v": 127
    },
    {
      "midi": 68,
      "hit": false,
      "t": 121693.55650000024,
      "d": 510.08067916666914,
      "v": 127
    },
    {
      "midi": 56,
      "hit": false,
      "t": 121693.55650000043,
      "d": 80.64516666666896,
      "v": 127
    },
    {
      "midi": 54,
      "hit": false,
      "t": 121693.55650000043,
      "d": 480.8468062500033,
      "v": 127
    },
    {
      "midi": 49,
      "hit": false,
      "t": 122177.42750000043,
      "d": 973.7903875000047,
      "v": 127
    },
    {
      "midi": 28,
      "hit": false,
      "t": 122861.90335208377,
      "d": 276.2096958333277,
      "v": 127
    },
    {
      "midi": 52,
      "hit": false,
      "t": 122903.23400000043,
      "d": 58.46774583333172,
      "v": 127
    },
    {
      "midi": 27,
      "hit": false,
      "t": 123121.98401458377,
      "d": 1694.5565645833558,
      "v": 127
    },
    {
      "midi": 69,
      "hit": false,
      "t": 123145.16950000024,
      "d": 7.056452083328622,
      "v": 127
    },
    {
      "midi": 57,
      "hit": false,
      "t": 123145.16950000043,
      "d": 7.056452083343174,
      "v": 127
    },
    {
      "midi": 68,
      "hit": false,
      "t": 124112.91150000023,
      "d": 219.75807916666963,
      "v": 127
    },
    {
      "midi": 56,
      "hit": false,
      "t": 124112.91150000044,
      "d": 219.75807916666963,
      "v": 127
    },
    {
      "midi": 62,
      "hit": false,
      "t": 124354.84700000024,
      "d": 242.9435645833437,
      "v": 127
    },
    {
      "midi": 50,
      "hit": false,
      "t": 124354.84700000045,
      "d": 242.9435645833437,
      "v": 127
    },
    {
      "midi": 63,
      "hit": false,
      "t": 124596.78250000025,
      "d": 267.13711458334,
      "v": 127
    },
    {
      "midi": 51,
      "hit": false,
      "t": 124596.78250000045,
      "d": 244.95969375000277,
      "v": 127
    },
    {
      "midi": 24,
      "hit": false,
      "t": 124800.41154583379,
      "d": 274.1935666666541,
      "v": 127
    },
    {
      "midi": 66,
      "hit": false,
      "t": 124838.71800000026,
      "d": 183.4677541666606,
      "v": 127
    },
    {
      "midi": 54,
      "hit": false,
      "t": 124838.71800000046,
      "d": 183.4677541666606,
      "v": 127
    },
    {
      "midi": 48,
      "hit": false,
      "t": 124838.71800000046,
      "d": 213.70969166666328,
      "v": 127
    },
    {
      "midi": 25,
      "hit": false,
      "t": 125063.51640208378,
      "d": 1647.1775291666709,
      "v": 127
    },
    {
      "midi": 66,
      "hit": false,
      "t": 125080.65350000025,
      "d": 967.7419999999984,
      "v": 127
    },
    {
      "midi": 49,
      "hit": false,
      "t": 125080.65350000045,
      "d": 327.6209895833308,
      "v": 127
    },
    {
      "midi": 54,
      "hit": false,
      "t": 125080.65350000045,
      "d": 967.7419999999984,
      "v": 127
    },
    {
      "midi": 56,
      "hit": false,
      "t": 125080.65350000045,
      "d": 1675.4033375,
      "v": 127
    },
    {
      "midi": 64,
      "hit": false,
      "t": 126048.39550000025,
      "d": 244.95969375000277,
      "v": 127
    },
    {
      "midi": 52,
      "hit": false,
      "t": 126048.39550000045,
      "d": 244.95969375000277,
      "v": 127
    },
    {
      "midi": 61,
      "hit": false,
      "t": 126290.33100000025,
      "d": 228.83066041665734,
      "v": 127
    },
    {
      "midi": 49,
      "hit": false,
      "t": 126290.33100000046,
      "d": 228.83066041665734,
      "v": 127
    },
    {
      "midi": 64,
      "hit": false,
      "t": 126532.26650000025,
      "d": 247.98388750001322,
      "v": 127
    },
    {
      "midi": 52,
      "hit": false,
      "t": 126532.26650000045,
      "d": 247.98388750001322,
      "v": 127
    },
    {
      "midi": 23,
      "hit": false,
      "t": 126732.87135208379,
      "d": 274.19356666666863,
      "v": 127
    },
    {
      "midi": 47,
      "hit": false,
      "t": 126774.20200000046,
      "d": 257.0564687500155,
      "v": 127
    },
    {
      "midi": 33,
      "hit": false,
      "t": 126988.91975625046,
      "d": 1969.7581958333467,
      "v": 127
    },
    {
      "midi": 68,
      "hit": false,
      "t": 127016.13750000026,
      "d": 120.96774999999616,
      "v": 127
    },
    {
      "midi": 49,
      "hit": false,
      "t": 127016.13750000046,
      "d": 1.008064583336818,
      "v": 127
    },
    {
      "midi": 56,
      "hit": false,
      "t": 127016.13750000046,
      "d": 120.96775000001071,
      "v": 127
    },
    {
      "midi": 45,
      "hit": false,
      "t": 127016.13750000046,
      "d": 1905.242062499994,
      "v": 127
    },
    {
      "midi": 57,
      "hit": false,
      "t": 127016.13750000046,
      "d": 1965.7259374999994,
      "v": 127
    },
    {
      "midi": 66,
      "hit": false,
      "t": 127983.87950000026,
      "d": 507.0564854166587,
      "v": 127
    },
    {
      "midi": 54,
      "hit": false,
      "t": 127983.87950000048,
      "d": 507.0564854166587,
      "v": 127
    },
    {
      "midi": 64,
      "hit": false,
      "t": 128467.75050000026,
      "d": 483.8709999999992,
      "v": 127
    },
    {
      "midi": 52,
      "hit": false,
      "t": 128467.75050000047,
      "d": 30.241937499988126,
      "v": 127
    },
    {
      "midi": 64,
      "hit": false,
      "t": 128951.62150000026,
      "d": 1912.2985145833372,
      "v": 127
    },
    {
      "midi": 49,
      "hit": false,
      "t": 128951.62150000046,
      "d": 3.024193750010454,
      "v": 127
    },
    {
      "midi": 44,
      "hit": false,
      "t": 128951.62150000046,
      "d": 279.23388958333817,
      "v": 127
    },
    {
      "midi": 52,
      "hit": false,
      "t": 128951.62150000046,
      "d": 1912.2985145833372,
      "v": 127
    },
    {
      "midi": 32,
      "hit": false,
      "t": 128953.63762916713,
      "d": 3837.701868749995,
      "v": 127
    },
    {
      "midi": 44,
      "hit": false,
      "t": 129435.49250000046,
      "d": 1364.9194458333368,
      "v": 127
    },
    {
      "midi": 63,
      "hit": false,
      "t": 130887.10550000025,
      "d": 927.4194166666566,
      "v": 127
    },
    {
      "midi": 44,
      "hit": false,
      "t": 130887.10550000046,
      "d": 1611.8952687500132,
      "v": 127
    },
    {
      "midi": 48,
      "hit": false,
      "t": 130887.10550000046,
      "d": 1993.951745833343,
      "v": 127
    },
    {
      "midi": 51,
      "hit": false,
      "t": 130887.10550000046,
      "d": 2000.0001333333348,
      "v": 127
    },
    {
      "midi": 64,
      "hit": false,
      "t": 131975.81525000025,
      "d": 135.08065416666795,
      "v": 127
    },
    {
      "midi": 65,
      "hit": false,
      "t": 132096.78300000026,
      "d": 125.00000833332888,
      "v": 127
    },
    {
      "midi": 66,
      "hit": false,
      "t": 132217.75075000024,
      "d": 130.04033124999842,
      "v": 127
    },
    {
      "midi": 67,
      "hit": false,
      "t": 132338.71850000025,
      "d": 122.98387916665524,
      "v": 127
    },
    {
      "midi": 68,
      "hit": false,
      "t": 132459.68625000023,
      "d": 125.00000833335798,
      "v": 127
    },
    {
      "midi": 70,
      "hit": false,
      "t": 132580.65400000024,
      "d": 150.20162291667657,
      "v": 127
    },
    {
      "midi": 44,
      "hit": false,
      "t": 132580.65400000048,
      "d": 252.0161458333314,
      "v": 127
    },
    {
      "midi": 72,
      "hit": false,
      "t": 132701.62175000025,
      "d": 129.03226666667615,
      "v": 127
    },
    {
      "midi": 30,
      "hit": false,
      "t": 132795.37175625048,
      "d": 3822.5808999999426,
      "v": 127
    },
    {
      "midi": 73,
      "hit": false,
      "t": 132822.58950000026,
      "d": 1952.62109791665,
      "v": 127
    },
    {
      "midi": 56,
      "hit": false,
      "t": 132822.58950000047,
      "d": 70.56452083331533,
      "v": 127
    },
    {
      "midi": 42,
      "hit": false,
      "t": 132822.58950000047,
      "d": 304.4355041666422,
      "v": 127
    },
    {
      "midi": 61,
      "hit": false,
      "t": 132822.58950000047,
      "d": 1957.6614208332903,
      "v": 127
    },
    {
      "midi": 42,
      "hit": false,
      "t": 133306.46050000045,
      "d": 1177.419433333329,
      "v": 127
    },
    {
      "midi": 42,
      "hit": false,
      "t": 134516.13800000044,
      "d": 181.45162499998696,
      "v": 127
    },
    {
      "midi": 72,
      "hit": false,
      "t": 134758.07350000026,
      "d": 1689.5162416666572,
      "v": 127
    },
    {
      "midi": 42,
      "hit": false,
      "t": 134758.07350000044,
      "d": 1896.1694812499627,
      "v": 127
    },
    {
      "midi": 60,
      "hit": false,
      "t": 134758.07350000044,
      "d": 1898.1856104166363,
      "v": 127
    },
    {
      "midi": 70,
      "hit": false,
      "t": 136451.62200000026,
      "d": 136.08871875001932,
      "v": 127
    },
    {
      "midi": 72,
      "hit": false,
      "t": 136572.58975000028,
      "d": 143.1451708333334,
      "v": 127
    },
    {
      "midi": 37,
      "hit": false,
      "t": 136693.55750000043,
      "d": 205.6451750000124,
      "v": 127
    },
    {
      "midi": 73,
      "hit": false,
      "t": 136697.5897583336,
      "d": 3801.4115437500004,
      "v": 127
    },
    {
      "midi": 64,
      "hit": false,
      "t": 136719.7671791671,
      "d": 3820.5647708334727,
      "v": 127
    },
    {
      "midi": 68,
      "hit": false,
      "t": 136724.80750208377,
      "d": 3805.443802083464,
      "v": 127
    },
    {
      "midi": 61,
      "hit": false,
      "t": 136724.80750208377,
      "d": 3812.5002541668073,
      "v": 127
    },
    {
      "midi": 39,
      "hit": false,
      "t": 136935.49300000045,
      "d": 101.81452291665482,
      "v": 127
    },
    {
      "midi": 40,
      "hit": false,
      "t": 137056.46075000043,
      "d": 229.8387250000087,
      "v": 127
    },
    {
      "midi": 39,
      "hit": false,
      "t": 137298.39625000046,
      "d": 133.06452500002342,
      "v": 127
    },
    {
      "midi": 37,
      "hit": false,
      "t": 137419.36400000047,
      "d": 209.67743333335966,
      "v": 127
    },
    {
      "midi": 39,
      "hit": false,
      "t": 137661.2995000005,
      "d": 140.1209770833375,
      "v": 127
    },
    {
      "midi": 40,
      "hit": false,
      "t": 137782.2672500005,
      "d": 256.04840416664956,
      "v": 127
    },
    {
      "midi": 39,
      "hit": false,
      "t": 138024.2027500005,
      "d": 117.9435562499857,
      "v": 127
    },
    {
      "midi": 37,
      "hit": false,
      "t": 138145.17050000047,
      "d": 236.89517708332278,
      "v": 127
    },
    {
      "midi": 39,
      "hit": false,
      "t": 138387.10600000047,
      "d": 229.8387250000087,
      "v": 127
    },
    {
      "midi": 37,
      "hit": false,
      "t": 138629.0415000005,
      "d": 217.741949999996,
      "v": 127
    },
    {
      "midi": 39,
      "hit": false,
      "t": 138870.97700000048,
      "d": 136.08871875001932,
      "v": 127
    },
    {
      "midi": 40,
      "hit": false,
      "t": 138991.9447500005,
      "d": 254.03227500003413,
      "v": 127
    },
    {
      "midi": 39,
      "hit": false,
      "t": 139233.8802500005,
      "d": 140.1209770833375,
      "v": 127
    },
    {
      "midi": 37,
      "hit": false,
      "t": 139354.84800000052,
      "d": 222.78227291666553,
      "v": 127
    },
    {
      "midi": 39,
      "hit": false,
      "t": 139596.7835000005,
      "d": 154.23388125002384,
      "v": 127
    },
    {
      "midi": 40,
      "hit": false,
      "t": 139717.75125000053,
      "d": 254.03227500003413,
      "v": 127
    },
    {
      "midi": 39,
      "hit": false,
      "t": 139959.68675000055,
      "d": 133.06452500002342,
      "v": 127
    },
    {
      "midi": 37,
      "hit": false,
      "t": 140080.65450000056,
      "d": 234.87904791667825,
      "v": 127
    },
    {
      "midi": 39,
      "hit": false,
      "t": 140322.59000000058,
      "d": 238.91130624999641,
      "v": 127
    },
    {
      "midi": 37,
      "hit": false,
      "t": 140564.52550000057,
      "d": 222.78227291666553,
      "v": 127
    },
    {
      "midi": 39,
      "hit": false,
      "t": 140806.46100000056,
      "d": 143.1451708333334,
      "v": 127
    },
    {
      "midi": 40,
      "hit": false,
      "t": 140927.42875000057,
      "d": 239.91937083331868,
      "v": 127
    },
    {
      "midi": 39,
      "hit": false,
      "t": 141169.36425000057,
      "d": 140.1209770833375,
      "v": 127
    },
    {
      "midi": 37,
      "hit": false,
      "t": 141290.33200000058,
      "d": 217.741949999996,
      "v": 127
    },
    {
      "midi": 39,
      "hit": false,
      "t": 141532.26750000057,
      "d": 152.2177520833502,
      "v": 127
    },
    {
      "midi": 40,
      "hit": false,
      "t": 141653.23525000058,
      "d": 271.1693729166582,
      "v": 127
    },
    {
      "midi": 39,
      "hit": false,
      "t": 141895.17075000057,
      "d": 140.1209770833375,
      "v": 127
    },
    {
      "midi": 37,
      "hit": false,
      "t": 142016.13850000058,
      "d": 219.75807916666963,
      "v": 127
    },
    {
      "midi": 39,
      "hit": false,
      "t": 142258.07400000058,
      "d": 229.8387250000087,
      "v": 127
    },
    {
      "midi": 37,
      "hit": false,
      "t": 142500.0095000006,
      "d": 229.8387250000087,
      "v": 127
    },
    {
      "midi": 39,
      "hit": false,
      "t": 142741.94500000062,
      "d": 140.1209770833375,
      "v": 127
    },
    {
      "midi": 40,
      "hit": false,
      "t": 142862.91275000063,
      "d": 245.9677583333396,
      "v": 127
    },
    {
      "midi": 39,
      "hit": false,
      "t": 143104.84825000062,
      "d": 136.08871875001932,
      "v": 127
    },
    {
      "midi": 37,
      "hit": false,
      "t": 143225.81600000063,
      "d": 224.79840208333917,
      "v": 127
    },
    {
      "midi": 39,
      "hit": false,
      "t": 143467.75150000062,
      "d": 159.27420416666428,
      "v": 127
    },
    {
      "midi": 40,
      "hit": false,
      "t": 143588.71925000063,
      "d": 238.91130624999641,
      "v": 127
    },
    {
      "midi": 39,
      "hit": false,
      "t": 143830.65475000063,
      "d": 120.96775000001071,
      "v": 127
    },
    {
      "midi": 37,
      "hit": false,
      "t": 143951.62250000064,
      "d": 234.87904791667825,
      "v": 127
    },
    {
      "midi": 39,
      "hit": false,
      "t": 144193.55800000066,
      "d": 202.62098124998738,
      "v": 127
    },
    {
      "midi": 37,
      "hit": false,
      "t": 144435.49350000065,
      "d": 212.70162708332646,
      "v": 127
    },
    {
      "midi": 39,
      "hit": false,
      "t": 144677.42900000064,
      "d": 120.96775000001071,
      "v": 127
    },
    {
      "midi": 40,
      "hit": false,
      "t": 144798.39675000065,
      "d": 229.8387250000087,
      "v": 127
    },
    {
      "midi": 39,
      "hit": false,
      "t": 145040.33225000068,
      "d": 96.77420000001439,
      "v": 127
    },
    {
      "midi": 37,
      "hit": false,
      "t": 145161.3000000007,
      "d": 248.9919520833355,
      "v": 127
    },
    {
      "midi": 44,
      "hit": false,
      "t": 145403.23550000068,
      "d": 131.0483958333498,
      "v": 127
    },
    {
      "midi": 49,
      "hit": false,
      "t": 145524.2032500007,
      "d": 226.8145312500128,
      "v": 127
    },
    {
      "midi": 42,
      "hit": false,
      "t": 145766.1387500007,
      "d": 129.03226666667615,
      "v": 127
    },
    {
      "midi": 47,
      "hit": false,
      "t": 145887.10650000072,
      "d": 217.741949999996,
      "v": 127
    },
    {
      "midi": 37,
      "hit": false,
      "t": 146129.0420000007,
      "d": 181.45162499998696,
      "v": 127
    },
    {
      "midi": 39,
      "hit": false,
      "t": 146370.9775000007,
      "d": 126.00807291668025,
      "v": 127
    },
    {
      "midi": 40,
      "hit": false,
      "t": 146491.94525000072,
      "d": 179.43549583334243,
      "v": 127
    },
    {
      "midi": 39,
      "hit": false,
      "t": 146733.88075000074,
      "d": 92.74194166666712,
      "v": 127
    },
    {
      "midi": 37,
      "hit": false,
      "t": 146854.84850000075,
      "d": 186.4919479166565,
      "v": 127
    },
    {
      "midi": 44,
      "hit": false,
      "t": 147096.78400000074,
      "d": 111.8951687499939,
      "v": 127
    },
    {
      "midi": 49,
      "hit": false,
      "t": 147217.75175000072,
      "d": 198.5887229166692,
      "v": 127
    },
    {
      "midi": 42,
      "hit": false,
      "t": 147459.68725000072,
      "d": 101.81452291665482,
      "v": 127
    },
    {
      "midi": 47,
      "hit": false,
      "t": 147580.6550000007,
      "d": 210.68549791665282,
      "v": 127
    },
    {
      "midi": 46,
      "hit": false,
      "t": 147822.5905000007,
      "d": 215.72582083332236,
      "v": 127
    },
    {
      "midi": 42,
      "hit": false,
      "t": 148064.52600000068,
      "d": 212.70162708332646,
      "v": 127
    },
    {
      "midi": 44,
      "hit": false,
      "t": 148306.46150000067,
      "d": 120.96775000001071,
      "v": 127
    },
    {
      "midi": 45,
      "hit": false,
      "t": 148427.42925000068,
      "d": 229.8387250000087,
      "v": 127
    },
    {
      "midi": 44,
      "hit": false,
      "t": 148669.3647500007,
      "d": 96.77420000001439,
      "v": 127
    },
    {
      "midi": 42,
      "hit": false,
      "t": 148790.33250000072,
      "d": 248.9919520833355,
      "v": 127
    },
    {
      "midi": 49,
      "hit": false,
      "t": 149032.2680000007,
      "d": 131.0483958333498,
      "v": 127
    },
    {
      "midi": 54,
      "hit": false,
      "t": 149153.23575000072,
      "d": 226.8145312500128,
      "v": 127
    },
    {
      "midi": 47,
      "hit": false,
      "t": 149395.17125000074,
      "d": 129.03226666667615,
      "v": 127
    },
    {
      "midi": 52,
      "hit": false,
      "t": 149516.13900000075,
      "d": 217.741949999996,
      "v": 127
    },
    {
      "midi": 42,
      "hit": false,
      "t": 149758.07450000074,
      "d": 181.45162499998696,
      "v": 127
    },
    {
      "midi": 44,
      "hit": false,
      "t": 150000.01000000074,
      "d": 126.00807291668025,
      "v": 127
    },
    {
      "midi": 45,
      "hit": false,
      "t": 150120.97775000075,
      "d": 179.43549583334243,
      "v": 127
    },
    {
      "midi": 44,
      "hit": false,
      "t": 150362.91325000077,
      "d": 92.74194166666712,
      "v": 127
    },
    {
      "midi": 42,
      "hit": false,
      "t": 150483.88100000078,
      "d": 186.4919479166565,
      "v": 127
    },
    {
      "midi": 49,
      "hit": false,
      "t": 150725.81650000077,
      "d": 111.8951687499939,
      "v": 127
    },
    {
      "midi": 54,
      "hit": false,
      "t": 150846.78425000075,
      "d": 198.5887229166692,
      "v": 127
    },
    {
      "midi": 47,
      "hit": false,
      "t": 151088.71975000075,
      "d": 101.81452291665482,
      "v": 127
    },
    {
      "midi": 52,
      "hit": false,
      "t": 151209.68750000073,
      "d": 210.68549791665282,
      "v": 127
    },
    {
      "midi": 51,
      "hit": false,
      "t": 151451.62300000072,
      "d": 215.72582083332236,
      "v": 127
    },
    {
      "midi": 37,
      "hit": false,
      "t": 151693.5585000007,
      "d": 212.70162708332646,
      "v": 127
    },
    {
      "midi": 39,
      "hit": false,
      "t": 151935.4940000007,
      "d": 120.96775000001071,
      "v": 127
    },
    {
      "midi": 40,
      "hit": false,
      "t": 152056.46175000072,
      "d": 229.8387250000087,
      "v": 127
    },
    {
      "midi": 39,
      "hit": false,
      "t": 152298.39725000074,
      "d": 96.77420000001439,
      "v": 127
    },
    {
      "midi": 37,
      "hit": false,
      "t": 152419.36500000075,
      "d": 248.9919520833355,
      "v": 127
    },
    {
      "midi": 44,
      "hit": false,
      "t": 152661.30050000074,
      "d": 131.0483958333498,
      "v": 127
    },
    {
      "midi": 49,
      "hit": false,
      "t": 152782.26825000075,
      "d": 226.8145312500128,
      "v": 127
    },
    {
      "midi": 42,
      "hit": false,
      "t": 153024.20375000077,
      "d": 129.03226666667615,
      "v": 127
    },
    {
      "midi": 47,
      "hit": false,
      "t": 153145.17150000078,
      "d": 217.741949999996,
      "v": 127
    },
    {
      "midi": 37,
      "hit": false,
      "t": 153387.10700000077,
      "d": 181.45162499998696,
      "v": 127
    },
    {
      "midi": 39,
      "hit": false,
      "t": 153629.04250000077,
      "d": 126.00807291668025,
      "v": 127
    },
    {
      "midi": 40,
      "hit": false,
      "t": 153750.01025000078,
      "d": 179.43549583334243,
      "v": 127
    },
    {
      "midi": 39,
      "hit": false,
      "t": 153991.9457500008,
      "d": 92.74194166666712,
      "v": 127
    },
    {
      "midi": 37,
      "hit": false,
      "t": 154112.9135000008,
      "d": 186.4919479166565,
      "v": 127
    },
    {
      "midi": 44,
      "hit": false,
      "t": 154354.8490000008,
      "d": 111.8951687499939,
      "v": 127
    },
    {
      "midi": 49,
      "hit": false,
      "t": 154475.81675000078,
      "d": 198.5887229166692,
      "v": 127
    },
    {
      "midi": 42,
      "hit": false,
      "t": 154717.75225000078,
      "d": 101.81452291665482,
      "v": 127
    },
    {
      "midi": 47,
      "hit": false,
      "t": 154838.72000000076,
      "d": 210.68549791665282,
      "v": 127
    },
    {
      "midi": 46,
      "hit": false,
      "t": 155080.65550000075,
      "d": 215.72582083332236,
      "v": 127
    },
    {
      "midi": 42,
      "hit": false,
      "t": 155322.59100000074,
      "d": 212.70162708332646,
      "v": 127
    },
    {
      "midi": 44,
      "hit": false,
      "t": 155564.52650000073,
      "d": 120.96775000001071,
      "v": 127
    },
    {
      "midi": 45,
      "hit": false,
      "t": 155685.49425000075,
      "d": 229.8387250000087,
      "v": 127
    },
    {
      "midi": 44,
      "hit": false,
      "t": 155927.42975000077,
      "d": 96.77420000001439,
      "v": 127
    },
    {
      "midi": 42,
      "hit": false,
      "t": 156048.39750000078,
      "d": 248.9919520833355,
      "v": 127
    },
    {
      "midi": 49,
      "hit": false,
      "t": 156290.33300000077,
      "d": 131.0483958333498,
      "v": 127
    },
    {
      "midi": 54,
      "hit": false,
      "t": 156411.30075000078,
      "d": 226.8145312500128,
      "v": 127
    },
    {
      "midi": 47,
      "hit": false,
      "t": 156653.2362500008,
      "d": 129.03226666667615,
      "v": 127
    },
    {
      "midi": 52,
      "hit": false,
      "t": 156774.2040000008,
      "d": 217.741949999996,
      "v": 127
    },
    {
      "midi": 42,
      "hit": false,
      "t": 157016.1395000008,
      "d": 181.45162499998696,
      "v": 127
    },
    {
      "midi": 44,
      "hit": false,
      "t": 157258.0750000008,
      "d": 126.00807291668025,
      "v": 127
    },
    {
      "midi": 45,
      "hit": false,
      "t": 157379.0427500008,
      "d": 179.43549583334243,
      "v": 127
    },
    {
      "midi": 44,
      "hit": false,
      "t": 157620.97825000083,
      "d": 92.74194166666712,
      "v": 127
    },
    {
      "midi": 42,
      "hit": false,
      "t": 157741.94600000084,
      "d": 186.4919479166565,
      "v": 127
    },
    {
      "midi": 49,
      "hit": false,
      "t": 157983.88150000083,
      "d": 111.8951687499939,
      "v": 127
    },
    {
      "midi": 54,
      "hit": false,
      "t": 158104.8492500008,
      "d": 198.5887229166692,
      "v": 127
    },
    {
      "midi": 47,
      "hit": false,
      "t": 158346.7847500008,
      "d": 101.81452291665482,
      "v": 127
    },
    {
      "midi": 52,
      "hit": false,
      "t": 158467.7525000008,
      "d": 210.68549791665282,
      "v": 127
    },
    {
      "midi": 51,
      "hit": false,
      "t": 158709.68800000078,
      "d": 215.72582083332236,
      "v": 127
    },
    {
      "midi": 32,
      "hit": false,
      "t": 158951.62350000077,
      "d": 411.29034999999567,
      "v": 127
    },
    {
      "midi": 33,
      "hit": false,
      "t": 159435.49450000076,
      "d": 454.6371270833479,
      "v": 127
    },
    {
      "midi": 35,
      "hit": false,
      "t": 159919.36550000077,
      "d": 454.6371270833188,
      "v": 127
    },
    {
      "midi": 36,
      "hit": false,
      "t": 160403.23650000076,
      "d": 409.27422083332203,
      "v": 127
    },
    {
      "midi": 37,
      "hit": false,
      "t": 160887.10750000074,
      "d": 226.8145312500128,
      "v": 127
    },
    {
      "midi": 39,
      "hit": false,
      "t": 161129.04300000076,
      "d": 143.1451708333334,
      "v": 127
    },
    {
      "midi": 40,
      "hit": false,
      "t": 161250.01075000077,
      "d": 208.66936874997918,
      "v": 127
    },
    {
      "midi": 42,
      "hit": false,
      "t": 161491.94625000076,
      "d": 133.06452500002342,
      "v": 127
    },
    {
      "midi": 43,
      "hit": false,
      "t": 161612.91400000078,
      "d": 221.77420833334327,
      "v": 127
    },
    {
      "midi": 42,
      "hit": false,
      "t": 161854.8495000008,
      "d": 123.99194375000661,
      "v": 127
    },
    {
      "midi": 40,
      "hit": false,
      "t": 161975.8172500008,
      "d": 246.97582291666185,
      "v": 127
    },
    {
      "midi": 39,
      "hit": false,
      "t": 162217.7527500008,
      "d": 131.0483958333498,
      "v": 127
    },
    {
      "midi": 37,
      "hit": false,
      "t": 162338.7205000008,
      "d": 210.68549791668192,
      "v": 127
    },
    {
      "midi": 39,
      "hit": false,
      "t": 162580.65600000083,
      "d": 129.03226666667615,
      "v": 127
    },
    {
      "midi": 40,
      "hit": false,
      "t": 162701.62375000084,
      "d": 210.68549791665282,
      "v": 127
    },
    {
      "midi": 42,
      "hit": false,
      "t": 162943.55925000084,
      "d": 155.2419458333461,
      "v": 127
    },
    {
      "midi": 43,
      "hit": false,
      "t": 163064.52700000085,
      "d": 222.78227291666553,
      "v": 127
    },
    {
      "midi": 42,
      "hit": false,
      "t": 163306.46250000084,
      "d": 238.91130624999641,
      "v": 127
    },
    {
      "midi": 40,
      "hit": false,
      "t": 163548.39800000083,
      "d": 227.82259583333507,
      "v": 127
    },
    {
      "midi": 39,
      "hit": false,
      "t": 163790.33350000082,
      "d": 212.70162708332646,
      "v": 127
    },
    {
      "midi": 32,
      "hit": false,
      "t": 164032.26900000082,
      "d": 411.29034999999567,
      "v": 127
    },
    {
      "midi": 33,
      "hit": false,
      "t": 164516.1400000008,
      "d": 454.6371270833479,
      "v": 127
    },
    {
      "midi": 35,
      "hit": false,
      "t": 165000.0110000008,
      "d": 454.6371270833188,
      "v": 127
    },
    {
      "midi": 36,
      "hit": false,
      "t": 165483.8820000008,
      "d": 409.27422083332203,
      "v": 127
    },
    {
      "midi": 37,
      "hit": false,
      "t": 165967.75300000078,
      "d": 226.8145312500128,
      "v": 127
    },
    {
      "midi": 39,
      "hit": false,
      "t": 166209.6885000008,
      "d": 143.1451708333334,
      "v": 127
    },
    {
      "midi": 40,
      "hit": false,
      "t": 166330.65625000081,
      "d": 208.66936874997918,
      "v": 127
    },
    {
      "midi": 42,
      "hit": false,
      "t": 166572.5917500008,
      "d": 133.06452500002342,
      "v": 127
    },
    {
      "midi": 43,
      "hit": false,
      "t": 166693.55950000082,
      "d": 221.77420833334327,
      "v": 127
    },
    {
      "midi": 42,
      "hit": false,
      "t": 166935.49500000084,
      "d": 123.99194375000661,
      "v": 127
    },
    {
      "midi": 40,
      "hit": false,
      "t": 167056.46275000085,
      "d": 246.97582291666185,
      "v": 127
    },
    {
      "midi": 39,
      "hit": false,
      "t": 167298.39825000084,
      "d": 131.0483958333498,
      "v": 127
    },
    {
      "midi": 37,
      "hit": false,
      "t": 167419.36600000085,
      "d": 210.68549791668192,
      "v": 127
    },
    {
      "midi": 39,
      "hit": false,
      "t": 167661.30150000087,
      "d": 129.03226666667615,
      "v": 127
    },
    {
      "midi": 40,
      "hit": false,
      "t": 167782.26925000089,
      "d": 210.68549791665282,
      "v": 127
    },
    {
      "midi": 42,
      "hit": false,
      "t": 168024.20475000088,
      "d": 155.2419458333461,
      "v": 127
    },
    {
      "midi": 43,
      "hit": false,
      "t": 168145.1725000009,
      "d": 222.78227291666553,
      "v": 127
    },
    {
      "midi": 42,
      "hit": false,
      "t": 168387.10800000088,
      "d": 238.91130624999641,
      "v": 127
    },
    {
      "midi": 40,
      "hit": false,
      "t": 168629.04350000087,
      "d": 227.82259583333507,
      "v": 127
    },
    {
      "midi": 39,
      "hit": false,
      "t": 168870.97900000087,
      "d": 212.70162708332646,
      "v": 127
    },
    {
      "midi": 32,
      "hit": false,
      "t": 169096.78546666753,
      "d": 287.29840624998906,
      "v": 127
    },
    {
      "midi": 33,
      "hit": false,
      "t": 169596.78550000084,
      "d": 274.1935666666541,
      "v": 127
    },
    {
      "midi": 35,
      "hit": false,
      "t": 170068.55972500084,
      "d": 315.52421458333265,
      "v": 127
    },
    {
      "midi": 36,
      "hit": false,
      "t": 170563.51943541752,
      "d": 285.2822770833445,
      "v": 127
    },
    {
      "midi": 37,
      "hit": false,
      "t": 171044.36624166754,
      "d": 221.77420833334327,
      "v": 127
    }
  ]
}