{
  "jsonPath": "Soundtracks/Video Game Music/Final Fantasy 3/final-fantasy-3-thedayafter.json",
  "path": "Soundtracks\\Video Game Music\\Final Fantasy 3\\Final_Fantasy_3_TheDayAfter.mid",
  "name": "Final_Fantasy_3_TheDayAfter",
  "difficulty": "Advanced",
  "bpm": 110.00011000011,
  "notes": [
    {
      "midi": 60,
      "hit": false,
      "t": 0,
      "d": 267.0451875,
      "v": 110
    },
    {
      "midi": 64,
      "hit": false,
      "t": 0,
      "d": 267.0451875,
      "v": 110
    },
    {
      "midi": 33,
      "hit": false,
      "t": 0,
      "d": 267.0451875,
      "v": 110
    },
    {
      "midi": 45,
      "hit": false,
      "t": 0,
      "d": 267.0451875,
      "v": 110
    },
    {
      "midi": 72,
      "hit": false,
      "t": 272.727,
      "d": 267.0451875,
      "v": 110
    },
    {
      "midi": 52,
      "hit": false,
      "t": 272.727,
      "d": 267.0451875,
      "v": 110
    },
    {
      "midi": 71,
      "hit": false,
      "t": 545.454,
      "d": 267.0451875,
      "v": 110
    },
    {
      "midi": 57,
      "hit": false,
      "t": 545.454,
      "d": 267.0451875,
      "v": 110
    },
    {
      "midi": 72,
      "hit": false,
      "t": 818.1809999999999,
      "d": 267.0451875,
      "v": 110
    },
    {
      "midi": 60,
      "hit": false,
      "t": 818.1809999999999,
      "d": 267.0451875,
      "v": 110
    },
    {
      "midi": 64,
      "hit": false,
      "t": 1090.908,
      "d": 454.5450000000001,
      "v": 110
    },
    {
      "midi": 69,
      "hit": false,
      "t": 1090.908,
      "d": 454.5450000000001,
      "v": 110
    },
    {
      "midi": 60,
      "hit": false,
      "t": 1090.908,
      "d": 267.0451874999999,
      "v": 110
    },
    {
      "midi": 60,
      "hit": false,
      "t": 1363.6349999999998,
      "d": 267.0451874999999,
      "v": 110
    },
    {
      "midi": 57,
      "hit": false,
      "t": 1636.3619999999996,
      "d": 267.0451874999999,
      "v": 110
    },
    {
      "midi": 64,
      "hit": false,
      "t": 1636.362,
      "d": 454.5450000000001,
      "v": 110
    },
    {
      "midi": 33,
      "hit": false,
      "t": 1909.0889999999995,
      "d": 267.0451874999999,
      "v": 110
    },
    {
      "midi": 45,
      "hit": false,
      "t": 1909.0889999999995,
      "d": 267.0451874999999,
      "v": 110
    },
    {
      "midi": 33,
      "hit": false,
      "t": 2181.8159999999993,
      "d": 267.0451874999999,
      "v": 110
    },
    {
      "midi": 45,
      "hit": false,
      "t": 2181.8159999999993,
      "d": 267.0451874999999,
      "v": 110
    },
    {
      "midi": 59,
      "hit": false,
      "t": 2181.8160000000003,
      "d": 267.0451874999999,
      "v": 110
    },
    {
      "midi": 63,
      "hit": false,
      "t": 2181.8160000000003,
      "d": 267.0451874999999,
      "v": 110
    },
    {
      "midi": 54,
      "hit": false,
      "t": 2454.542999999999,
      "d": 267.0451874999999,
      "v": 110
    },
    {
      "midi": 66,
      "hit": false,
      "t": 2454.543,
      "d": 267.0451874999999,
      "v": 110
    },
    {
      "midi": 59,
      "hit": false,
      "t": 2727.269999999999,
      "d": 267.0451874999999,
      "v": 110
    },
    {
      "midi": 71,
      "hit": false,
      "t": 2727.27,
      "d": 954.5445,
      "v": 110
    },
    {
      "midi": 63,
      "hit": false,
      "t": 2999.996999999999,
      "d": 267.0451874999999,
      "v": 110
    },
    {
      "midi": 66,
      "hit": false,
      "t": 3272.723999999999,
      "d": 267.0451874999999,
      "v": 110
    },
    {
      "midi": 63,
      "hit": false,
      "t": 3545.4509999999987,
      "d": 267.0451874999999,
      "v": 110
    },
    {
      "midi": 59,
      "hit": false,
      "t": 3818.1779999999985,
      "d": 267.0451874999999,
      "v": 110
    },
    {
      "midi": 66,
      "hit": false,
      "t": 3818.178,
      "d": 267.0451874999999,
      "v": 110
    },
    {
      "midi": 54,
      "hit": false,
      "t": 4090.9049999999984,
      "d": 267.04518750000034,
      "v": 110
    },
    {
      "midi": 71,
      "hit": false,
      "t": 4090.9049999999997,
      "d": 267.0451874999999,
      "v": 110
    },
    {
      "midi": 33,
      "hit": false,
      "t": 4363.631999999999,
      "d": 267.0451874999999,
      "v": 110
    },
    {
      "midi": 45,
      "hit": false,
      "t": 4363.631999999999,
      "d": 267.0451874999999,
      "v": 110
    },
    {
      "midi": 74,
      "hit": false,
      "t": 4363.632,
      "d": 267.0451874999999,
      "v": 110
    },
    {
      "midi": 53,
      "hit": false,
      "t": 4636.358999999999,
      "d": 267.0451874999999,
      "v": 110
    },
    {
      "midi": 70,
      "hit": false,
      "t": 4636.3589999999995,
      "d": 267.0451874999999,
      "v": 110
    },
    {
      "midi": 58,
      "hit": false,
      "t": 4909.085999999998,
      "d": 267.0451874999999,
      "v": 110
    },
    {
      "midi": 69,
      "hit": false,
      "t": 4909.085999999999,
      "d": 267.0451874999999,
      "v": 110
    },
    {
      "midi": 62,
      "hit": false,
      "t": 5181.812999999998,
      "d": 267.0451874999999,
      "v": 110
    },
    {
      "midi": 70,
      "hit": false,
      "t": 5181.812999999999,
      "d": 267.0451874999999,
      "v": 110
    },
    {
      "midi": 65,
      "hit": false,
      "t": 5454.539999999998,
      "d": 267.0451874999999,
      "v": 110
    },
    {
      "midi": 77,
      "hit": false,
      "t": 5454.539999999999,
      "d": 454.5450000000001,
      "v": 110
    },
    {
      "midi": 62,
      "hit": false,
      "t": 5727.266999999998,
      "d": 267.0451874999999,
      "v": 110
    },
    {
      "midi": 58,
      "hit": false,
      "t": 5999.993999999998,
      "d": 267.0451874999999,
      "v": 110
    },
    {
      "midi": 62,
      "hit": false,
      "t": 5999.993999999999,
      "d": 454.5450000000001,
      "v": 110
    },
    {
      "midi": 45,
      "hit": false,
      "t": 6272.720999999998,
      "d": 267.0451874999999,
      "v": 110
    },
    {
      "midi": 33,
      "hit": false,
      "t": 6545.447999999998,
      "d": 267.0451874999999,
      "v": 110
    },
    {
      "midi": 45,
      "hit": false,
      "t": 6545.447999999998,
      "d": 267.0451874999999,
      "v": 110
    },
    {
      "midi": 61,
      "hit": false,
      "t": 6545.4479999999985,
      "d": 267.0451874999999,
      "v": 110
    },
    {
      "midi": 64,
      "hit": false,
      "t": 6545.4479999999985,
      "d": 267.0451874999999,
      "v": 110
    },
    {
      "midi": 52,
      "hit": false,
      "t": 6818.174999999997,
      "d": 267.0451874999999,
      "v": 110
    },
    {
      "midi": 64,
      "hit": false,
      "t": 6818.174999999998,
      "d": 267.0451874999999,
      "v": 110
    },
    {
      "midi": 57,
      "hit": false,
      "t": 7090.901999999997,
      "d": 267.0451874999999,
      "v": 110
    },
    {
      "midi": 69,
      "hit": false,
      "t": 7090.901999999998,
      "d": 1499.9984999999997,
      "v": 110
    },
    {
      "midi": 61,
      "hit": false,
      "t": 7363.628999999997,
      "d": 267.0451874999999,
      "v": 110
    },
    {
      "midi": 64,
      "hit": false,
      "t": 7636.355999999997,
      "d": 267.0451874999999,
      "v": 110
    },
    {
      "midi": 61,
      "hit": false,
      "t": 7909.082999999997,
      "d": 267.0451874999999,
      "v": 110
    },
    {
      "midi": 57,
      "hit": false,
      "t": 8181.809999999997,
      "d": 267.0451875000008,
      "v": 110
    },
    {
      "midi": 52,
      "hit": false,
      "t": 8454.536999999998,
      "d": 267.0451874999999,
      "v": 110
    },
    {
      "midi": 60,
      "hit": false,
      "t": 8727.263999999997,
      "d": 267.0451874999999,
      "v": 110
    },
    {
      "midi": 64,
      "hit": false,
      "t": 8727.263999999997,
      "d": 267.0451874999999,
      "v": 110
    },
    {
      "midi": 33,
      "hit": false,
      "t": 8727.264,
      "d": 267.0451874999999,
      "v": 110
    },
    {
      "midi": 45,
      "hit": false,
      "t": 8727.264,
      "d": 267.0451874999999,
      "v": 110
    },
    {
      "midi": 72,
      "hit": false,
      "t": 8999.990999999998,
      "d": 267.0451874999999,
      "v": 110
    },
    {
      "midi": 52,
      "hit": false,
      "t": 8999.991,
      "d": 267.0451874999999,
      "v": 110
    },
    {
      "midi": 71,
      "hit": false,
      "t": 9272.717999999999,
      "d": 267.0451874999999,
      "v": 110
    },
    {
      "midi": 57,
      "hit": false,
      "t": 9272.718,
      "d": 267.0451874999999,
      "v": 110
    },
    {
      "midi": 72,
      "hit": false,
      "t": 9545.445,
      "d": 267.0451874999999,
      "v": 110
    },
    {
      "midi": 60,
      "hit": false,
      "t": 9545.445000000002,
      "d": 267.0451874999999,
      "v": 110
    },
    {
      "midi": 64,
      "hit": false,
      "t": 9818.172,
      "d": 454.5450000000001,
      "v": 110
    },
    {
      "midi": 69,
      "hit": false,
      "t": 9818.172,
      "d": 454.5450000000001,
      "v": 110
    },
    {
      "midi": 60,
      "hit": false,
      "t": 9818.172000000002,
      "d": 267.0451874999999,
      "v": 110
    },
    {
      "midi": 60,
      "hit": false,
      "t": 10090.899000000003,
      "d": 267.0451874999999,
      "v": 110
    },
    {
      "midi": 64,
      "hit": false,
      "t": 10363.626,
      "d": 454.5450000000001,
      "v": 110
    },
    {
      "midi": 57,
      "hit": false,
      "t": 10363.626000000004,
      "d": 267.0451874999999,
      "v": 110
    },
    {
      "midi": 33,
      "hit": false,
      "t": 10636.353000000005,
      "d": 267.0451874999999,
      "v": 110
    },
    {
      "midi": 45,
      "hit": false,
      "t": 10636.353000000005,
      "d": 267.0451874999999,
      "v": 110
    },
    {
      "midi": 59,
      "hit": false,
      "t": 10909.08,
      "d": 267.0451874999999,
      "v": 110
    },
    {
      "midi": 63,
      "hit": false,
      "t": 10909.08,
      "d": 267.0451874999999,
      "v": 110
    },
    {
      "midi": 33,
      "hit": false,
      "t": 10909.080000000005,
      "d": 267.0451874999999,
      "v": 110
    },
    {
      "midi": 45,
      "hit": false,
      "t": 10909.080000000005,
      "d": 267.0451874999999,
      "v": 110
    },
    {
      "midi": 66,
      "hit": false,
      "t": 11181.807,
      "d": 267.0451874999999,
      "v": 110
    },
    {
      "midi": 54,
      "hit": false,
      "t": 11181.807000000006,
      "d": 267.0451874999999,
      "v": 110
    },
    {
      "midi": 71,
      "hit": false,
      "t": 11454.534000000001,
      "d": 954.5445,
      "v": 110
    },
    {
      "midi": 59,
      "hit": false,
      "t": 11454.534000000007,
      "d": 267.0451874999999,
      "v": 110
    },
    {
      "midi": 63,
      "hit": false,
      "t": 11727.261000000008,
      "d": 267.0451874999999,
      "v": 110
    },
    {
      "midi": 66,
      "hit": false,
      "t": 11999.988000000008,
      "d": 267.0451874999999,
      "v": 110
    },
    {
      "midi": 63,
      "hit": false,
      "t": 12272.71500000001,
      "d": 267.0451874999999,
      "v": 110
    },
    {
      "midi": 66,
      "hit": false,
      "t": 12545.442000000001,
      "d": 267.0451874999999,
      "v": 110
    },
    {
      "midi": 59,
      "hit": false,
      "t": 12545.44200000001,
      "d": 267.0451874999999,
      "v": 110
    },
    {
      "midi": 71,
      "hit": false,
      "t": 12818.169000000002,
      "d": 267.0451874999999,
      "v": 110
    },
    {
      "midi": 54,
      "hit": false,
      "t": 12818.16900000001,
      "d": 267.0451874999999,
      "v": 110
    },
    {
      "midi": 74,
      "hit": false,
      "t": 13090.896000000002,
      "d": 267.0451874999999,
      "v": 110
    },
    {
      "midi": 33,
      "hit": false,
      "t": 13090.896000000012,
      "d": 267.0451874999999,
      "v": 110
    },
    {
      "midi": 45,
      "hit": false,
      "t": 13090.896000000012,
      "d": 267.0451874999999,
      "v": 110
    },
    {
      "midi": 70,
      "hit": false,
      "t": 13363.623000000003,
      "d": 267.0451874999999,
      "v": 110
    },
    {
      "midi": 53,
      "hit": false,
      "t": 13363.623000000012,
      "d": 267.0451874999999,
      "v": 110
    },
    {
      "midi": 69,
      "hit": false,
      "t": 13636.350000000004,
      "d": 267.0451874999999,
      "v": 110
    },
    {
      "midi": 58,
      "hit": false,
      "t": 13636.350000000013,
      "d": 267.0451874999999,
      "v": 110
    },
    {
      "midi": 70,
      "hit": false,
      "t": 13909.077000000005,
      "d": 267.0451874999999,
      "v": 110
    },
    {
      "midi": 62,
      "hit": false,
      "t": 13909.077000000014,
      "d": 267.0451874999999,
      "v": 110
    },
    {
      "midi": 77,
      "hit": false,
      "t": 14181.804000000006,
      "d": 454.5450000000001,
      "v": 110
    },
    {
      "midi": 65,
      "hit": false,
      "t": 14181.804000000015,
      "d": 267.0451874999999,
      "v": 110
    },
    {
      "midi": 62,
      "hit": false,
      "t": 14454.531000000015,
      "d": 267.0451874999999,
      "v": 110
    },
    {
      "midi": 62,
      "hit": false,
      "t": 14727.258000000005,
      "d": 454.5450000000001,
      "v": 110
    },
    {
      "midi": 58,
      "hit": false,
      "t": 14727.258000000016,
      "d": 267.0451874999999,
      "v": 110
    },
    {
      "midi": 45,
      "hit": false,
      "t": 14999.985000000017,
      "d": 267.0451874999999,
      "v": 110
    },
    {
      "midi": 61,
      "hit": false,
      "t": 15272.712000000005,
      "d": 267.0451874999999,
      "v": 110
    },
    {
      "midi": 64,
      "hit": false,
      "t": 15272.712000000005,
      "d": 267.0451874999999,
      "v": 110
    },
    {
      "midi": 33,
      "hit": false,
      "t": 15272.712000000018,
      "d": 267.0451874999999,
      "v": 110
    },
    {
      "midi": 45,
      "hit": false,
      "t": 15272.712000000018,
      "d": 267.0451874999999,
      "v": 110
    },
    {
      "midi": 64,
      "hit": false,
      "t": 15545.439000000006,
      "d": 267.0451874999999,
      "v": 110
    },
    {
      "midi": 52,
      "hit": false,
      "t": 15545.439000000018,
      "d": 267.0451874999999,
      "v": 110
    },
    {
      "midi": 69,
      "hit": false,
      "t": 15818.166000000007,
      "d": 727.271999999999,
      "v": 110
    },
    {
      "midi": 57,
      "hit": false,
      "t": 15818.16600000002,
      "d": 267.0451874999999,
      "v": 110
    },
    {
      "midi": 61,
      "hit": false,
      "t": 16090.89300000002,
      "d": 267.0451874999999,
      "v": 110
    },
    {
      "midi": 64,
      "hit": false,
      "t": 16363.62000000002,
      "d": 267.0451874999999,
      "v": 110
    },
    {
      "midi": 74,
      "hit": false,
      "t": 16636.347000000005,
      "d": 267.0451874999999,
      "v": 110
    },
    {
      "midi": 60,
      "hit": false,
      "t": 16636.34700000002,
      "d": 267.0451874999999,
      "v": 110
    },
    {
      "midi": 72,
      "hit": false,
      "t": 16909.074000000004,
      "d": 267.0451874999999,
      "v": 110
    },
    {
      "midi": 57,
      "hit": false,
      "t": 16909.07400000002,
      "d": 267.0451874999999,
      "v": 110
    },
    {
      "midi": 76,
      "hit": false,
      "t": 17181.801000000003,
      "d": 267.0451874999999,
      "v": 110
    },
    {
      "midi": 52,
      "hit": false,
      "t": 17181.801000000018,
      "d": 267.0451874999999,
      "v": 110
    },
    {
      "midi": 33,
      "hit": false,
      "t": 17454.528000000017,
      "d": 267.0451874999999,
      "v": 110
    },
    {
      "midi": 45,
      "hit": false,
      "t": 17454.528000000017,
      "d": 267.0451874999999,
      "v": 110
    },
    {
      "midi": 59,
      "hit": false,
      "t": 17727.255000000016,
      "d": 539.7721874999988,
      "v": 110
    },
    {
      "midi": 59,
      "hit": false,
      "t": 18272.709000000013,
      "d": 267.0451874999999,
      "v": 110
    },
    {
      "midi": 57,
      "hit": false,
      "t": 18545.436000000012,
      "d": 267.0451874999999,
      "v": 110
    },
    {
      "midi": 59,
      "hit": false,
      "t": 18818.16300000001,
      "d": 267.0451874999999,
      "v": 110
    },
    {
      "midi": 57,
      "hit": false,
      "t": 19090.89000000001,
      "d": 267.0451874999999,
      "v": 110
    },
    {
      "midi": 33,
      "hit": false,
      "t": 19363.61700000001,
      "d": 267.0451874999999,
      "v": 110
    },
    {
      "midi": 45,
      "hit": false,
      "t": 19363.61700000001,
      "d": 267.0451874999999,
      "v": 110
    },
    {
      "midi": 33,
      "hit": false,
      "t": 19636.34400000001,
      "d": 267.0451874999999,
      "v": 110
    },
    {
      "midi": 45,
      "hit": false,
      "t": 19636.34400000001,
      "d": 267.0451874999999,
      "v": 110
    },
    {
      "midi": 59,
      "hit": false,
      "t": 19909.071000000007,
      "d": 539.7721874999988,
      "v": 110
    },
    {
      "midi": 59,
      "hit": false,
      "t": 20454.525000000005,
      "d": 267.0451874999999,
      "v": 110
    },
    {
      "midi": 57,
      "hit": false,
      "t": 20727.252000000004,
      "d": 267.0451874999999,
      "v": 110
    },
    {
      "midi": 59,
      "hit": false,
      "t": 20999.979000000003,
      "d": 267.0451874999999,
      "v": 110
    },
    {
      "midi": 57,
      "hit": false,
      "t": 21272.706000000002,
      "d": 267.0451874999999,
      "v": 110
    },
    {
      "midi": 52,
      "hit": false,
      "t": 21545.433,
      "d": 267.0451874999999,
      "v": 110
    },
    {
      "midi": 33,
      "hit": false,
      "t": 21818.16,
      "d": 267.0451874999999,
      "v": 110
    },
    {
      "midi": 45,
      "hit": false,
      "t": 21818.16,
      "d": 267.0451874999999,
      "v": 110
    },
    {
      "midi": 59,
      "hit": false,
      "t": 22090.887,
      "d": 539.7721874999988,
      "v": 110
    },
    {
      "midi": 59,
      "hit": false,
      "t": 22636.340999999997,
      "d": 267.0451874999999,
      "v": 110
    },
    {
      "midi": 57,
      "hit": false,
      "t": 22909.067999999996,
      "d": 267.0451874999999,
      "v": 110
    },
    {
      "midi": 59,
      "hit": false,
      "t": 23181.794999999995,
      "d": 267.0451874999999,
      "v": 110
    },
    {
      "midi": 57,
      "hit": false,
      "t": 23454.521999999994,
      "d": 267.0451874999999,
      "v": 110
    },
    {
      "midi": 33,
      "hit": false,
      "t": 23727.248999999993,
      "d": 267.0451874999999,
      "v": 110
    },
    {
      "midi": 45,
      "hit": false,
      "t": 23727.248999999993,
      "d": 267.0451874999999,
      "v": 110
    },
    {
      "midi": 33,
      "hit": false,
      "t": 23999.97599999999,
      "d": 267.0451874999999,
      "v": 110
    },
    {
      "midi": 45,
      "hit": false,
      "t": 23999.97599999999,
      "d": 267.0451874999999,
      "v": 110
    },
    {
      "midi": 59,
      "hit": false,
      "t": 24272.70299999999,
      "d": 539.7721874999988,
      "v": 110
    },
    {
      "midi": 59,
      "hit": false,
      "t": 24818.15699999999,
      "d": 267.0451874999999,
      "v": 110
    },
    {
      "midi": 57,
      "hit": false,
      "t": 25090.883999999987,
      "d": 267.0451874999999,
      "v": 110
    },
    {
      "midi": 59,
      "hit": false,
      "t": 25363.610999999986,
      "d": 267.0451874999999,
      "v": 110
    },
    {
      "midi": 57,
      "hit": false,
      "t": 25636.337999999985,
      "d": 267.0451874999999,
      "v": 110
    },
    {
      "midi": 52,
      "hit": false,
      "t": 25909.064999999984,
      "d": 267.0451874999999,
      "v": 110
    },
    {
      "midi": 33,
      "hit": false,
      "t": 26181.791999999983,
      "d": 267.0451874999999,
      "v": 110
    },
    {
      "midi": 45,
      "hit": false,
      "t": 26181.791999999983,
      "d": 267.0451874999999,
      "v": 110
    },
    {
      "midi": 72,
      "hit": false,
      "t": 26181.792,
      "d": 954.5445,
      "v": 110
    },
    {
      "midi": 69,
      "hit": false,
      "t": 26181.792,
      "d": 1818.1800000000003,
      "v": 110
    },
    {
      "midi": 59,
      "hit": false,
      "t": 26454.518999999982,
      "d": 539.7721874999988,
      "v": 110
    },
    {
      "midi": 59,
      "hit": false,
      "t": 26999.97299999998,
      "d": 267.0451874999999,
      "v": 110
    },
    {
      "midi": 57,
      "hit": false,
      "t": 27272.69999999998,
      "d": 267.0451874999999,
      "v": 110
    },
    {
      "midi": 72,
      "hit": false,
      "t": 27272.7,
      "d": 727.2720000000008,
      "v": 110
    },
    {
      "midi": 59,
      "hit": false,
      "t": 27545.426999999978,
      "d": 267.0451874999999,
      "v": 110
    },
    {
      "midi": 57,
      "hit": false,
      "t": 27818.153999999977,
      "d": 267.0451874999999,
      "v": 110
    },
    {
      "midi": 33,
      "hit": false,
      "t": 28090.880999999976,
      "d": 267.0451874999999,
      "v": 110
    },
    {
      "midi": 45,
      "hit": false,
      "t": 28090.880999999976,
      "d": 267.0451874999999,
      "v": 110
    },
    {
      "midi": 67,
      "hit": false,
      "t": 28090.881,
      "d": 267.0451874999999,
      "v": 110
    },
    {
      "midi": 71,
      "hit": false,
      "t": 28090.881,
      "d": 267.0451874999999,
      "v": 110
    },
    {
      "midi": 33,
      "hit": false,
      "t": 28363.607999999975,
      "d": 267.0451874999999,
      "v": 110
    },
    {
      "midi": 45,
      "hit": false,
      "t": 28363.607999999975,
      "d": 267.0451874999999,
      "v": 110
    },
    {
      "midi": 69,
      "hit": false,
      "t": 28363.608,
      "d": 454.54499999999825,
      "v": 110
    },
    {
      "midi": 72,
      "hit": false,
      "t": 28363.608,
      "d": 454.54499999999825,
      "v": 110
    },
    {
      "midi": 59,
      "hit": false,
      "t": 28636.334999999974,
      "d": 539.7721874999988,
      "v": 110
    },
    {
      "midi": 64,
      "hit": false,
      "t": 28909.061999999998,
      "d": 954.5445,
      "v": 110
    },
    {
      "midi": 69,
      "hit": false,
      "t": 28909.061999999998,
      "d": 954.5445,
      "v": 110
    },
    {
      "midi": 59,
      "hit": false,
      "t": 29181.78899999997,
      "d": 267.0451874999999,
      "v": 110
    },
    {
      "midi": 57,
      "hit": false,
      "t": 29454.51599999997,
      "d": 267.0451874999999,
      "v": 110
    },
    {
      "midi": 59,
      "hit": false,
      "t": 29727.24299999997,
      "d": 267.0451874999999,
      "v": 110
    },
    {
      "midi": 57,
      "hit": false,
      "t": 29999.96999999997,
      "d": 267.0451874999999,
      "v": 110
    },
    {
      "midi": 64,
      "hit": false,
      "t": 29999.969999999998,
      "d": 267.0451874999999,
      "v": 110
    },
    {
      "midi": 69,
      "hit": false,
      "t": 29999.969999999998,
      "d": 267.0451874999999,
      "v": 110
    },
    {
      "midi": 52,
      "hit": false,
      "t": 30272.696999999967,
      "d": 267.0451874999999,
      "v": 110
    },
    {
      "midi": 67,
      "hit": false,
      "t": 30272.696999999996,
      "d": 267.0451874999999,
      "v": 110
    },
    {
      "midi": 71,
      "hit": false,
      "t": 30272.696999999996,
      "d": 267.0451874999999,
      "v": 110
    },
    {
      "midi": 33,
      "hit": false,
      "t": 30545.423999999966,
      "d": 267.0451874999999,
      "v": 110
    },
    {
      "midi": 45,
      "hit": false,
      "t": 30545.423999999966,
      "d": 267.0451874999999,
      "v": 110
    },
    {
      "midi": 69,
      "hit": false,
      "t": 30545.423999999995,
      "d": 454.54499999999825,
      "v": 110
    },
    {
      "midi": 72,
      "hit": false,
      "t": 30545.423999999995,
      "d": 454.54499999999825,
      "v": 110
    },
    {
      "midi": 59,
      "hit": false,
      "t": 30818.150999999965,
      "d": 539.7721874999988,
      "v": 110
    },
    {
      "midi": 71,
      "hit": false,
      "t": 31090.877999999993,
      "d": 454.54499999999825,
      "v": 110
    },
    {
      "midi": 74,
      "hit": false,
      "t": 31090.877999999993,
      "d": 454.54499999999825,
      "v": 110
    },
    {
      "midi": 59,
      "hit": false,
      "t": 31363.604999999963,
      "d": 267.0451874999999,
      "v": 110
    },
    {
      "midi": 57,
      "hit": false,
      "t": 31636.331999999962,
      "d": 267.0451874999999,
      "v": 110
    },
    {
      "midi": 69,
      "hit": false,
      "t": 31636.33199999999,
      "d": 267.0451874999999,
      "v": 110
    },
    {
      "midi": 72,
      "hit": false,
      "t": 31636.33199999999,
      "d": 267.0451874999999,
      "v": 110
    },
    {
      "midi": 59,
      "hit": false,
      "t": 31909.05899999996,
      "d": 267.0451874999999,
      "v": 110
    },
    {
      "midi": 71,
      "hit": false,
      "t": 31909.05899999999,
      "d": 267.0451874999999,
      "v": 110
    },
    {
      "midi": 74,
      "hit": false,
      "t": 31909.05899999999,
      "d": 267.0451874999999,
      "v": 110
    },
    {
      "midi": 57,
      "hit": false,
      "t": 32181.78599999996,
      "d": 267.0451874999999,
      "v": 110
    },
    {
      "midi": 69,
      "hit": false,
      "t": 32181.78599999999,
      "d": 267.0451874999999,
      "v": 110
    },
    {
      "midi": 72,
      "hit": false,
      "t": 32181.78599999999,
      "d": 267.0451874999999,
      "v": 110
    },
    {
      "midi": 33,
      "hit": false,
      "t": 32454.51299999996,
      "d": 267.0451874999999,
      "v": 110
    },
    {
      "midi": 45,
      "hit": false,
      "t": 32454.51299999996,
      "d": 267.0451874999999,
      "v": 110
    },
    {
      "midi": 67,
      "hit": false,
      "t": 32454.512999999988,
      "d": 267.0451874999999,
      "v": 110
    },
    {
      "midi": 71,
      "hit": false,
      "t": 32454.512999999988,
      "d": 267.0451874999999,
      "v": 110
    },
    {
      "midi": 33,
      "hit": false,
      "t": 32727.239999999958,
      "d": 267.0451875000035,
      "v": 110
    },
    {
      "midi": 45,
      "hit": false,
      "t": 32727.239999999958,
      "d": 267.0451875000035,
      "v": 110
    },
    {
      "midi": 69,
      "hit": false,
      "t": 32727.239999999987,
      "d": 267.0451875000035,
      "v": 110
    },
    {
      "midi": 72,
      "hit": false,
      "t": 32727.239999999987,
      "d": 267.0451875000035,
      "v": 110
    },
    {
      "midi": 59,
      "hit": false,
      "t": 32999.96699999996,
      "d": 539.7721874999988,
      "v": 110
    },
    {
      "midi": 64,
      "hit": false,
      "t": 32999.96699999999,
      "d": 1772.7255000000005,
      "v": 110
    },
    {
      "midi": 69,
      "hit": false,
      "t": 32999.96699999999,
      "d": 1772.7255000000005,
      "v": 110
    },
    {
      "midi": 59,
      "hit": false,
      "t": 33545.42099999996,
      "d": 267.0451874999999,
      "v": 110
    },
    {
      "midi": 57,
      "hit": false,
      "t": 33818.14799999996,
      "d": 267.0451874999999,
      "v": 110
    },
    {
      "midi": 59,
      "hit": false,
      "t": 34090.874999999956,
      "d": 267.0451874999999,
      "v": 110
    },
    {
      "midi": 57,
      "hit": false,
      "t": 34363.601999999955,
      "d": 267.0451874999999,
      "v": 110
    },
    {
      "midi": 52,
      "hit": false,
      "t": 34636.328999999954,
      "d": 267.0451874999999,
      "v": 110
    },
    {
      "midi": 33,
      "hit": false,
      "t": 34909.05599999995,
      "d": 267.0451874999999,
      "v": 110
    },
    {
      "midi": 45,
      "hit": false,
      "t": 34909.05599999995,
      "d": 267.0451874999999,
      "v": 110
    },
    {
      "midi": 69,
      "hit": false,
      "t": 34909.05599999999,
      "d": 1818.1800000000003,
      "v": 110
    },
    {
      "midi": 72,
      "hit": false,
      "t": 34909.05599999999,
      "d": 1818.1800000000003,
      "v": 110
    },
    {
      "midi": 59,
      "hit": false,
      "t": 35181.78299999995,
      "d": 539.7721874999988,
      "v": 110
    },
    {
      "midi": 59,
      "hit": false,
      "t": 35727.23699999995,
      "d": 267.0451874999999,
      "v": 110
    },
    {
      "midi": 57,
      "hit": false,
      "t": 35999.96399999995,
      "d": 267.0451874999999,
      "v": 110
    },
    {
      "midi": 59,
      "hit": false,
      "t": 36272.69099999995,
      "d": 267.0451874999999,
      "v": 110
    },
    {
      "midi": 57,
      "hit": false,
      "t": 36545.41799999995,
      "d": 267.0451874999999,
      "v": 110
    },
    {
      "midi": 33,
      "hit": false,
      "t": 36818.144999999946,
      "d": 267.0451874999999,
      "v": 110
    },
    {
      "midi": 45,
      "hit": false,
      "t": 36818.144999999946,
      "d": 267.0451874999999,
      "v": 110
    },
    {
      "midi": 67,
      "hit": false,
      "t": 36818.14499999999,
      "d": 267.0451874999999,
      "v": 110
    },
    {
      "midi": 71,
      "hit": false,
      "t": 36818.14499999999,
      "d": 267.0451874999999,
      "v": 110
    },
    {
      "midi": 33,
      "hit": false,
      "t": 37090.871999999945,
      "d": 267.0451874999999,
      "v": 110
    },
    {
      "midi": 45,
      "hit": false,
      "t": 37090.871999999945,
      "d": 267.0451874999999,
      "v": 110
    },
    {
      "midi": 69,
      "hit": false,
      "t": 37090.87199999999,
      "d": 454.54499999999825,
      "v": 110
    },
    {
      "midi": 72,
      "hit": false,
      "t": 37090.87199999999,
      "d": 454.54499999999825,
      "v": 110
    },
    {
      "midi": 59,
      "hit": false,
      "t": 37363.598999999944,
      "d": 539.7721874999988,
      "v": 110
    },
    {
      "midi": 64,
      "hit": false,
      "t": 37636.32599999999,
      "d": 954.5445000000036,
      "v": 110
    },
    {
      "midi": 69,
      "hit": false,
      "t": 37636.32599999999,
      "d": 954.5445000000036,
      "v": 110
    },
    {
      "midi": 59,
      "hit": false,
      "t": 37909.05299999994,
      "d": 267.0451874999999,
      "v": 110
    },
    {
      "midi": 57,
      "hit": false,
      "t": 38181.77999999994,
      "d": 267.0451874999999,
      "v": 110
    },
    {
      "midi": 59,
      "hit": false,
      "t": 38454.50699999994,
      "d": 267.0451874999999,
      "v": 110
    },
    {
      "midi": 57,
      "hit": false,
      "t": 38727.23399999994,
      "d": 267.0451874999999,
      "v": 110
    },
    {
      "midi": 64,
      "hit": false,
      "t": 38727.23399999999,
      "d": 267.0451874999999,
      "v": 110
    },
    {
      "midi": 69,
      "hit": false,
      "t": 38727.23399999999,
      "d": 267.0451874999999,
      "v": 110
    },
    {
      "midi": 52,
      "hit": false,
      "t": 38999.96099999994,
      "d": 267.0451874999999,
      "v": 110
    },
    {
      "midi": 67,
      "hit": false,
      "t": 38999.96099999999,
      "d": 267.0451874999999,
      "v": 110
    },
    {
      "midi": 71,
      "hit": false,
      "t": 38999.96099999999,
      "d": 267.0451874999999,
      "v": 110
    },
    {
      "midi": 33,
      "hit": false,
      "t": 39272.68799999994,
      "d": 267.0451874999999,
      "v": 110
    },
    {
      "midi": 45,
      "hit": false,
      "t": 39272.68799999994,
      "d": 267.0451874999999,
      "v": 110
    },
    {
      "midi": 69,
      "hit": false,
      "t": 39272.68799999999,
      "d": 454.54499999999825,
      "v": 110
    },
    {
      "midi": 72,
      "hit": false,
      "t": 39272.68799999999,
      "d": 454.54499999999825,
      "v": 110
    },
    {
      "midi": 59,
      "hit": false,
      "t": 39545.414999999935,
      "d": 539.7721874999988,
      "v": 110
    },
    {
      "midi": 71,
      "hit": false,
      "t": 39818.141999999985,
      "d": 454.54499999999825,
      "v": 110
    },
    {
      "midi": 74,
      "hit": false,
      "t": 39818.141999999985,
      "d": 454.54499999999825,
      "v": 110
    },
    {
      "midi": 59,
      "hit": false,
      "t": 40090.86899999993,
      "d": 267.0451874999999,
      "v": 110
    },
    {
      "midi": 57,
      "hit": false,
      "t": 40363.59599999993,
      "d": 267.0451874999999,
      "v": 110
    },
    {
      "midi": 69,
      "hit": false,
      "t": 40363.59599999998,
      "d": 267.0451874999999,
      "v": 110
    },
    {
      "midi": 72,
      "hit": false,
      "t": 40363.59599999998,
      "d": 267.0451874999999,
      "v": 110
    },
    {
      "midi": 59,
      "hit": false,
      "t": 40636.32299999993,
      "d": 267.0451874999999,
      "v": 110
    },
    {
      "midi": 71,
      "hit": false,
      "t": 40636.32299999998,
      "d": 267.0451874999999,
      "v": 110
    },
    {
      "midi": 74,
      "hit": false,
      "t": 40636.32299999998,
      "d": 267.0451874999999,
      "v": 110
    },
    {
      "midi": 57,
      "hit": false,
      "t": 40909.04999999993,
      "d": 267.0451874999999,
      "v": 110
    },
    {
      "midi": 69,
      "hit": false,
      "t": 40909.04999999998,
      "d": 267.0451874999999,
      "v": 110
    },
    {
      "midi": 72,
      "hit": false,
      "t": 40909.04999999998,
      "d": 267.0451874999999,
      "v": 110
    },
    {
      "midi": 33,
      "hit": false,
      "t": 41181.77699999993,
      "d": 267.0451874999999,
      "v": 110
    },
    {
      "midi": 45,
      "hit": false,
      "t": 41181.77699999993,
      "d": 267.0451874999999,
      "v": 110
    },
    {
      "midi": 67,
      "hit": false,
      "t": 41181.77699999998,
      "d": 267.0451874999999,
      "v": 110
    },
    {
      "midi": 71,
      "hit": false,
      "t": 41181.77699999998,
      "d": 267.0451874999999,
      "v": 110
    },
    {
      "midi": 33,
      "hit": false,
      "t": 41454.50399999993,
      "d": 267.0451874999999,
      "v": 110
    },
    {
      "midi": 45,
      "hit": false,
      "t": 41454.50399999993,
      "d": 267.0451874999999,
      "v": 110
    },
    {
      "midi": 69,
      "hit": false,
      "t": 41454.50399999998,
      "d": 267.0451874999999,
      "v": 110
    },
    {
      "midi": 72,
      "hit": false,
      "t": 41454.50399999998,
      "d": 267.0451874999999,
      "v": 110
    },
    {
      "midi": 59,
      "hit": false,
      "t": 41727.23099999993,
      "d": 539.7721874999988,
      "v": 110
    },
    {
      "midi": 64,
      "hit": false,
      "t": 41727.23099999998,
      "d": 1772.7255000000005,
      "v": 110
    },
    {
      "midi": 69,
      "hit": false,
      "t": 41727.23099999998,
      "d": 1772.7255000000005,
      "v": 110
    },
    {
      "midi": 59,
      "hit": false,
      "t": 42272.684999999925,
      "d": 267.0451874999999,
      "v": 110
    },
    {
      "midi": 57,
      "hit": false,
      "t": 42545.411999999924,
      "d": 267.0451874999999,
      "v": 110
    },
    {
      "midi": 59,
      "hit": false,
      "t": 42818.13899999992,
      "d": 267.0451874999999,
      "v": 110
    },
    {
      "midi": 57,
      "hit": false,
      "t": 43090.86599999992,
      "d": 267.0451874999999,
      "v": 110
    },
    {
      "midi": 52,
      "hit": false,
      "t": 43363.59299999992,
      "d": 267.0451874999999,
      "v": 110
    },
    {
      "midi": 36,
      "hit": false,
      "t": 43636.31999999992,
      "d": 267.0451874999999,
      "v": 110
    },
    {
      "midi": 48,
      "hit": false,
      "t": 43636.31999999992,
      "d": 267.0451874999999,
      "v": 110
    },
    {
      "midi": 72,
      "hit": false,
      "t": 43636.31999999998,
      "d": 1818.1800000000003,
      "v": 110
    },
    {
      "midi": 76,
      "hit": false,
      "t": 43636.31999999998,
      "d": 1818.1800000000003,
      "v": 110
    },
    {
      "midi": 60,
      "hit": false,
      "t": 43909.04699999992,
      "d": 539.7721874999988,
      "v": 110
    },
    {
      "midi": 60,
      "hit": false,
      "t": 44454.50099999992,
      "d": 267.0451874999999,
      "v": 110
    },
    {
      "midi": 59,
      "hit": false,
      "t": 44727.227999999915,
      "d": 267.0451874999999,
      "v": 110
    },
    {
      "midi": 60,
      "hit": false,
      "t": 44999.954999999914,
      "d": 267.0451874999999,
      "v": 110
    },
    {
      "midi": 55,
      "hit": false,
      "t": 45272.68199999991,
      "d": 267.0451874999999,
      "v": 110
    },
    {
      "midi": 36,
      "hit": false,
      "t": 45545.40899999991,
      "d": 267.0451874999999,
      "v": 110
    },
    {
      "midi": 48,
      "hit": false,
      "t": 45545.40899999991,
      "d": 267.0451874999999,
      "v": 110
    },
    {
      "midi": 71,
      "hit": false,
      "t": 45545.40899999998,
      "d": 267.0451874999999,
      "v": 110
    },
    {
      "midi": 74,
      "hit": false,
      "t": 45545.40899999998,
      "d": 267.0451874999999,
      "v": 110
    },
    {
      "midi": 36,
      "hit": false,
      "t": 45818.13599999991,
      "d": 267.0451874999999,
      "v": 110
    },
    {
      "midi": 48,
      "hit": false,
      "t": 45818.13599999991,
      "d": 267.0451874999999,
      "v": 110
    },
    {
      "midi": 72,
      "hit": false,
      "t": 45818.13599999998,
      "d": 454.54499999999825,
      "v": 110
    },
    {
      "midi": 76,
      "hit": false,
      "t": 45818.13599999998,
      "d": 454.54499999999825,
      "v": 110
    },
    {
      "midi": 60,
      "hit": false,
      "t": 46090.86299999991,
      "d": 539.7721874999988,
      "v": 110
    },
    {
      "midi": 67,
      "hit": false,
      "t": 46363.589999999975,
      "d": 954.5444999999963,
      "v": 110
    },
    {
      "midi": 72,
      "hit": false,
      "t": 46363.589999999975,
      "d": 954.5444999999963,
      "v": 110
    },
    {
      "midi": 60,
      "hit": false,
      "t": 46636.31699999991,
      "d": 267.0451874999999,
      "v": 110
    },
    {
      "midi": 59,
      "hit": false,
      "t": 46909.04399999991,
      "d": 267.0451874999999,
      "v": 110
    },
    {
      "midi": 60,
      "hit": false,
      "t": 47181.770999999906,
      "d": 267.0451874999999,
      "v": 110
    },
    {
      "midi": 55,
      "hit": false,
      "t": 47454.497999999905,
      "d": 267.0451874999999,
      "v": 110
    },
    {
      "midi": 67,
      "hit": false,
      "t": 47454.49799999997,
      "d": 267.0451874999999,
      "v": 110
    },
    {
      "midi": 72,
      "hit": false,
      "t": 47454.49799999997,
      "d": 267.0451874999999,
      "v": 110
    },
    {
      "midi": 52,
      "hit": false,
      "t": 47727.224999999904,
      "d": 267.0451874999999,
      "v": 110
    },
    {
      "midi": 71,
      "hit": false,
      "t": 47727.22499999997,
      "d": 267.0451874999999,
      "v": 110
    },
    {
      "midi": 74,
      "hit": false,
      "t": 47727.22499999997,
      "d": 267.0451874999999,
      "v": 110
    },
    {
      "midi": 36,
      "hit": false,
      "t": 47999.9519999999,
      "d": 267.0451874999999,
      "v": 110
    },
    {
      "midi": 48,
      "hit": false,
      "t": 47999.9519999999,
      "d": 267.0451874999999,
      "v": 110
    },
    {
      "midi": 72,
      "hit": false,
      "t": 47999.95199999997,
      "d": 454.54499999999825,
      "v": 110
    },
    {
      "midi": 76,
      "hit": false,
      "t": 47999.95199999997,
      "d": 454.54499999999825,
      "v": 110
    },
    {
      "midi": 60,
      "hit": false,
      "t": 48272.6789999999,
      "d": 539.7721874999988,
      "v": 110
    },
    {
      "midi": 76,
      "hit": false,
      "t": 48545.405999999966,
      "d": 454.54499999999825,
      "v": 110
    },
    {
      "midi": 79,
      "hit": false,
      "t": 48545.405999999966,
      "d": 454.54499999999825,
      "v": 110
    },
    {
      "midi": 60,
      "hit": false,
      "t": 48818.1329999999,
      "d": 267.0451874999999,
      "v": 110
    },
    {
      "midi": 38,
      "hit": false,
      "t": 49090.8599999999,
      "d": 267.0451874999999,
      "v": 110
    },
    {
      "midi": 50,
      "hit": false,
      "t": 49090.8599999999,
      "d": 267.0451874999999,
      "v": 110
    },
    {
      "midi": 74,
      "hit": false,
      "t": 49090.859999999964,
      "d": 267.0451874999999,
      "v": 110
    },
    {
      "midi": 78,
      "hit": false,
      "t": 49090.859999999964,
      "d": 267.0451874999999,
      "v": 110
    },
    {
      "midi": 60,
      "hit": false,
      "t": 49363.5869999999,
      "d": 267.0451874999999,
      "v": 110
    },
    {
      "midi": 76,
      "hit": false,
      "t": 49363.58699999996,
      "d": 267.0451874999999,
      "v": 110
    },
    {
      "midi": 79,
      "hit": false,
      "t": 49363.58699999996,
      "d": 267.0451874999999,
      "v": 110
    },
    {
      "midi": 57,
      "hit": false,
      "t": 49636.3139999999,
      "d": 267.0451874999999,
      "v": 110
    },
    {
      "midi": 74,
      "hit": false,
      "t": 49636.31399999996,
      "d": 267.0451874999999,
      "v": 110
    },
    {
      "midi": 78,
      "hit": false,
      "t": 49636.31399999996,
      "d": 267.0451874999999,
      "v": 110
    },
    {
      "midi": 54,
      "hit": false,
      "t": 49909.040999999896,
      "d": 267.0451874999999,
      "v": 110
    },
    {
      "midi": 69,
      "hit": false,
      "t": 49909.04099999996,
      "d": 267.0451874999999,
      "v": 110
    },
    {
      "midi": 74,
      "hit": false,
      "t": 49909.04099999996,
      "d": 267.0451874999999,
      "v": 110
    },
    {
      "midi": 40,
      "hit": false,
      "t": 50181.767999999895,
      "d": 267.0451874999999,
      "v": 110
    },
    {
      "midi": 52,
      "hit": false,
      "t": 50181.767999999895,
      "d": 267.0451874999999,
      "v": 110
    },
    {
      "midi": 69,
      "hit": false,
      "t": 50181.76799999996,
      "d": 727.2719999999972,
      "v": 110
    },
    {
      "midi": 76,
      "hit": false,
      "t": 50181.76799999996,
      "d": 727.2719999999972,
      "v": 110
    },
    {
      "midi": 62,
      "hit": false,
      "t": 50454.49499999989,
      "d": 539.7721874999988,
      "v": 110
    },
    {
      "midi": 62,
      "hit": false,
      "t": 50999.94899999989,
      "d": 267.0451874999999,
      "v": 110
    },
    {
      "midi": 71,
      "hit": false,
      "t": 50999.94899999996,
      "d": 130.6816875000004,
      "v": 110
    },
    {
      "midi": 69,
      "hit": false,
      "t": 51136.312499999956,
      "d": 130.6816875000004,
      "v": 110
    },
    {
      "midi": 59,
      "hit": false,
      "t": 51272.67599999989,
      "d": 267.0451874999999,
      "v": 110
    },
    {
      "midi": 68,
      "hit": false,
      "t": 51272.675999999956,
      "d": 954.5444999999963,
      "v": 110
    },
    {
      "midi": 76,
      "hit": false,
      "t": 51272.675999999956,
      "d": 954.5444999999963,
      "v": 110
    },
    {
      "midi": 62,
      "hit": false,
      "t": 51545.40299999989,
      "d": 267.0451874999999,
      "v": 110
    },
    {
      "midi": 59,
      "hit": false,
      "t": 51818.12999999989,
      "d": 267.0451874999999,
      "v": 110
    },
    {
      "midi": 56,
      "hit": false,
      "t": 52090.85699999989,
      "d": 267.0451874999999,
      "v": 110
    },
    {
      "midi": 33,
      "hit": false,
      "t": 52363.583999999886,
      "d": 267.0451874999999,
      "v": 110
    },
    {
      "midi": 45,
      "hit": false,
      "t": 52363.583999999886,
      "d": 267.0451874999999,
      "v": 110
    },
    {
      "midi": 69,
      "hit": false,
      "t": 52363.58399999995,
      "d": 1818.1800000000003,
      "v": 110
    },
    {
      "midi": 72,
      "hit": false,
      "t": 52363.58399999995,
      "d": 1818.1800000000003,
      "v": 110
    },
    {
      "midi": 59,
      "hit": false,
      "t": 52636.310999999885,
      "d": 539.7721874999988,
      "v": 110
    },
    {
      "midi": 59,
      "hit": false,
      "t": 53181.76499999988,
      "d": 267.0451874999999,
      "v": 110
    },
    {
      "midi": 57,
      "hit": false,
      "t": 53454.49199999988,
      "d": 267.0451874999999,
      "v": 110
    },
    {
      "midi": 59,
      "hit": false,
      "t": 53727.21899999988,
      "d": 267.0451874999999,
      "v": 110
    },
    {
      "midi": 57,
      "hit": false,
      "t": 53999.94599999988,
      "d": 267.0451874999999,
      "v": 110
    },
    {
      "midi": 33,
      "hit": false,
      "t": 54272.67299999988,
      "d": 267.0451874999999,
      "v": 110
    },
    {
      "midi": 45,
      "hit": false,
      "t": 54272.67299999988,
      "d": 267.0451874999999,
      "v": 110
    },
    {
      "midi": 67,
      "hit": false,
      "t": 54272.67299999995,
      "d": 267.0451874999999,
      "v": 110
    },
    {
      "midi": 71,
      "hit": false,
      "t": 54272.67299999995,
      "d": 267.0451874999999,
      "v": 110
    },
    {
      "midi": 33,
      "hit": false,
      "t": 54545.39999999988,
      "d": 267.0451874999999,
      "v": 110
    },
    {
      "midi": 45,
      "hit": false,
      "t": 54545.39999999988,
      "d": 267.0451874999999,
      "v": 110
    },
    {
      "midi": 69,
      "hit": false,
      "t": 54545.39999999995,
      "d": 454.54499999999825,
      "v": 110
    },
    {
      "midi": 72,
      "hit": false,
      "t": 54545.39999999995,
      "d": 454.54499999999825,
      "v": 110
    },
    {
      "midi": 59,
      "hit": false,
      "t": 54818.12699999988,
      "d": 539.7721874999988,
      "v": 110
    },
    {
      "midi": 64,
      "hit": false,
      "t": 55090.85399999995,
      "d": 954.5445000000036,
      "v": 110
    },
    {
      "midi": 69,
      "hit": false,
      "t": 55090.85399999995,
      "d": 954.5445000000036,
      "v": 110
    },
    {
      "midi": 59,
      "hit": false,
      "t": 55363.580999999875,
      "d": 267.0451874999999,
      "v": 110
    },
    {
      "midi": 57,
      "hit": false,
      "t": 55636.30799999987,
      "d": 267.0451874999999,
      "v": 110
    },
    {
      "midi": 59,
      "hit": false,
      "t": 55909.03499999987,
      "d": 267.0451874999999,
      "v": 110
    },
    {
      "midi": 57,
      "hit": false,
      "t": 56181.76199999987,
      "d": 267.0451874999999,
      "v": 110
    },
    {
      "midi": 64,
      "hit": false,
      "t": 56181.76199999995,
      "d": 267.0451874999999,
      "v": 110
    },
    {
      "midi": 69,
      "hit": false,
      "t": 56181.76199999995,
      "d": 267.0451874999999,
      "v": 110
    },
    {
      "midi": 52,
      "hit": false,
      "t": 56454.48899999987,
      "d": 267.0451874999999,
      "v": 110
    },
    {
      "midi": 67,
      "hit": false,
      "t": 56454.48899999995,
      "d": 267.0451874999999,
      "v": 110
    },
    {
      "midi": 71,
      "hit": false,
      "t": 56454.48899999995,
      "d": 267.0451874999999,
      "v": 110
    },
    {
      "midi": 33,
      "hit": false,
      "t": 56727.21599999987,
      "d": 267.0451874999999,
      "v": 110
    },
    {
      "midi": 45,
      "hit": false,
      "t": 56727.21599999987,
      "d": 267.0451874999999,
      "v": 110
    },
    {
      "midi": 69,
      "hit": false,
      "t": 56727.21599999995,
      "d": 454.54499999999825,
      "v": 110
    },
    {
      "midi": 72,
      "hit": false,
      "t": 56727.21599999995,
      "d": 454.54499999999825,
      "v": 110
    },
    {
      "midi": 59,
      "hit": false,
      "t": 56999.94299999987,
      "d": 539.7721874999988,
      "v": 110
    },
    {
      "midi": 71,
      "hit": false,
      "t": 57272.66999999995,
      "d": 454.54499999999825,
      "v": 110
    },
    {
      "midi": 74,
      "hit": false,
      "t": 57272.66999999995,
      "d": 454.54499999999825,
      "v": 110
    },
    {
      "midi": 59,
      "hit": false,
      "t": 57545.396999999866,
      "d": 267.0451874999999,
      "v": 110
    },
    {
      "midi": 57,
      "hit": false,
      "t": 57818.123999999865,
      "d": 267.0451874999999,
      "v": 110
    },
    {
      "midi": 69,
      "hit": false,
      "t": 57818.123999999945,
      "d": 267.0451874999999,
      "v": 110
    },
    {
      "midi": 72,
      "hit": false,
      "t": 57818.123999999945,
      "d": 267.0451874999999,
      "v": 110
    },
    {
      "midi": 59,
      "hit": false,
      "t": 58090.850999999864,
      "d": 267.0451874999999,
      "v": 110
    },
    {
      "midi": 71,
      "hit": false,
      "t": 58090.850999999944,
      "d": 267.0451874999999,
      "v": 110
    },
    {
      "midi": 74,
      "hit": false,
      "t": 58090.850999999944,
      "d": 267.0451874999999,
      "v": 110
    },
    {
      "midi": 57,
      "hit": false,
      "t": 58363.57799999986,
      "d": 267.0451874999999,
      "v": 110
    },
    {
      "midi": 69,
      "hit": false,
      "t": 58363.57799999994,
      "d": 267.0451874999999,
      "v": 110
    },
    {
      "midi": 72,
      "hit": false,
      "t": 58363.57799999994,
      "d": 267.0451874999999,
      "v": 110
    },
    {
      "midi": 33,
      "hit": false,
      "t": 58636.30499999986,
      "d": 267.0451874999999,
      "v": 110
    },
    {
      "midi": 45,
      "hit": false,
      "t": 58636.30499999986,
      "d": 267.0451874999999,
      "v": 110
    },
    {
      "midi": 67,
      "hit": false,
      "t": 58636.30499999994,
      "d": 267.0451874999999,
      "v": 110
    },
    {
      "midi": 71,
      "hit": false,
      "t": 58636.30499999994,
      "d": 267.0451874999999,
      "v": 110
    },
    {
      "midi": 33,
      "hit": false,
      "t": 58909.03199999986,
      "d": 267.0451874999999,
      "v": 110
    },
    {
      "midi": 45,
      "hit": false,
      "t": 58909.03199999986,
      "d": 267.0451874999999,
      "v": 110
    },
    {
      "midi": 69,
      "hit": false,
      "t": 58909.03199999994,
      "d": 267.0451874999999,
      "v": 110
    },
    {
      "midi": 72,
      "hit": false,
      "t": 58909.03199999994,
      "d": 267.0451874999999,
      "v": 110
    },
    {
      "midi": 59,
      "hit": false,
      "t": 59181.75899999986,
      "d": 539.7721874999988,
      "v": 110
    },
    {
      "midi": 64,
      "hit": false,
      "t": 59181.75899999994,
      "d": 1772.7255000000005,
      "v": 110
    },
    {
      "midi": 69,
      "hit": false,
      "t": 59181.75899999994,
      "d": 1772.7255000000005,
      "v": 110
    },
    {
      "midi": 59,
      "hit": false,
      "t": 59727.21299999986,
      "d": 267.0451874999999,
      "v": 110
    },
    {
      "midi": 57,
      "hit": false,
      "t": 59999.93999999986,
      "d": 267.0451874999999,
      "v": 110
    },
    {
      "midi": 59,
      "hit": false,
      "t": 60272.666999999856,
      "d": 267.0451874999999,
      "v": 110
    },
    {
      "midi": 57,
      "hit": false,
      "t": 60545.393999999855,
      "d": 267.0451874999999,
      "v": 110
    },
    {
      "midi": 52,
      "hit": false,
      "t": 60818.120999999854,
      "d": 267.0451874999999,
      "v": 110
    },
    {
      "midi": 33,
      "hit": false,
      "t": 61090.84799999985,
      "d": 267.0451874999999,
      "v": 110
    },
    {
      "midi": 45,
      "hit": false,
      "t": 61090.84799999985,
      "d": 267.0451874999999,
      "v": 110
    },
    {
      "midi": 60,
      "hit": false,
      "t": 61090.84799999994,
      "d": 267.0451874999999,
      "v": 110
    },
    {
      "midi": 64,
      "hit": false,
      "t": 61090.84799999994,
      "d": 267.0451874999999,
      "v": 110
    },
    {
      "midi": 52,
      "hit": false,
      "t": 61363.57499999985,
      "d": 267.0451874999999,
      "v": 110
    },
    {
      "midi": 72,
      "hit": false,
      "t": 61363.57499999994,
      "d": 267.0451874999999,
      "v": 110
    },
    {
      "midi": 57,
      "hit": false,
      "t": 61636.30199999985,
      "d": 267.0451874999999,
      "v": 110
    },
    {
      "midi": 71,
      "hit": false,
      "t": 61636.30199999994,
      "d": 267.0451874999999,
      "v": 110
    },
    {
      "midi": 60,
      "hit": false,
      "t": 61909.02899999985,
      "d": 267.0451874999999,
      "v": 110
    },
    {
      "midi": 72,
      "hit": false,
      "t": 61909.02899999994,
      "d": 267.0451874999999,
      "v": 110
    },
    {
      "midi": 60,
      "hit": false,
      "t": 62181.75599999985,
      "d": 267.0451874999999,
      "v": 110
    },
    {
      "midi": 64,
      "hit": false,
      "t": 62181.755999999936,
      "d": 454.54499999999825,
      "v": 110
    },
    {
      "midi": 69,
      "hit": false,
      "t": 62181.755999999936,
      "d": 454.54499999999825,
      "v": 110
    },
    {
      "midi": 60,
      "hit": false,
      "t": 62454.48299999985,
      "d": 267.0451874999999,
      "v": 110
    },
    {
      "midi": 57,
      "hit": false,
      "t": 62727.209999999846,
      "d": 267.0451874999999,
      "v": 110
    },
    {
      "midi": 64,
      "hit": false,
      "t": 62727.209999999934,
      "d": 454.54499999999825,
      "v": 110
    },
    {
      "midi": 33,
      "hit": false,
      "t": 62999.936999999845,
      "d": 267.0451874999999,
      "v": 110
    },
    {
      "midi": 45,
      "hit": false,
      "t": 62999.936999999845,
      "d": 267.0451874999999,
      "v": 110
    },
    {
      "midi": 33,
      "hit": false,
      "t": 63272.663999999844,
      "d": 267.0451874999999,
      "v": 110
    },
    {
      "midi": 45,
      "hit": false,
      "t": 63272.663999999844,
      "d": 267.0451874999999,
      "v": 110
    },
    {
      "midi": 59,
      "hit": false,
      "t": 63272.66399999993,
      "d": 267.0451874999999,
      "v": 110
    },
    {
      "midi": 63,
      "hit": false,
      "t": 63272.66399999993,
      "d": 267.0451874999999,
      "v": 110
    },
    {
      "midi": 54,
      "hit": false,
      "t": 63545.39099999984,
      "d": 267.0451874999999,
      "v": 110
    },
    {
      "midi": 66,
      "hit": false,
      "t": 63545.39099999993,
      "d": 267.0451874999999,
      "v": 110
    },
    {
      "midi": 59,
      "hit": false,
      "t": 63818.11799999984,
      "d": 267.0451874999999,
      "v": 110
    },
    {
      "midi": 71,
      "hit": false,
      "t": 63818.11799999993,
      "d": 954.5445000000036,
      "v": 110
    },
    {
      "midi": 63,
      "hit": false,
      "t": 64090.84499999984,
      "d": 267.0451874999999,
      "v": 110
    },
    {
      "midi": 66,
      "hit": false,
      "t": 64363.57199999984,
      "d": 267.0451874999999,
      "v": 110
    },
    {
      "midi": 63,
      "hit": false,
      "t": 64636.29899999984,
      "d": 267.0451874999999,
      "v": 110
    },
    {
      "midi": 59,
      "hit": false,
      "t": 64909.02599999984,
      "d": 267.0451874999999,
      "v": 110
    },
    {
      "midi": 66,
      "hit": false,
      "t": 64909.02599999993,
      "d": 267.0451874999999,
      "v": 110
    },
    {
      "midi": 54,
      "hit": false,
      "t": 65181.75299999984,
      "d": 267.0451874999999,
      "v": 110
    },
    {
      "midi": 71,
      "hit": false,
      "t": 65181.75299999993,
      "d": 267.0451874999999,
      "v": 110
    },
    {
      "midi": 33,
      "hit": false,
      "t": 65454.479999999836,
      "d": 267.0451874999999,
      "v": 110
    },
    {
      "midi": 45,
      "hit": false,
      "t": 65454.479999999836,
      "d": 267.0451874999999,
      "v": 110
    },
    {
      "midi": 74,
      "hit": false,
      "t": 65454.47999999993,
      "d": 267.04518750000716,
      "v": 110
    },
    {
      "midi": 53,
      "hit": false,
      "t": 65727.20699999983,
      "d": 267.0451874999999,
      "v": 110
    },
    {
      "midi": 70,
      "hit": false,
      "t": 65727.20699999994,
      "d": 267.0451874999999,
      "v": 110
    },
    {
      "midi": 58,
      "hit": false,
      "t": 65999.93399999983,
      "d": 267.0451874999999,
      "v": 110
    },
    {
      "midi": 69,
      "hit": false,
      "t": 65999.93399999994,
      "d": 267.0451874999999,
      "v": 110
    },
    {
      "midi": 62,
      "hit": false,
      "t": 66272.66099999983,
      "d": 267.0451874999999,
      "v": 110
    },
    {
      "midi": 70,
      "hit": false,
      "t": 66272.66099999993,
      "d": 267.0451874999999,
      "v": 110
    },
    {
      "midi": 65,
      "hit": false,
      "t": 66545.38799999983,
      "d": 267.0451874999999,
      "v": 110
    },
    {
      "midi": 77,
      "hit": false,
      "t": 66545.38799999993,
      "d": 454.54499999999825,
      "v": 110
    },
    {
      "midi": 62,
      "hit": false,
      "t": 66818.11499999983,
      "d": 267.0451874999999,
      "v": 110
    },
    {
      "midi": 58,
      "hit": false,
      "t": 67090.84199999983,
      "d": 267.0451874999999,
      "v": 110
    },
    {
      "midi": 62,
      "hit": false,
      "t": 67090.84199999993,
      "d": 454.54499999999825,
      "v": 110
    },
    {
      "midi": 45,
      "hit": false,
      "t": 67363.56899999983,
      "d": 267.0451874999999,
      "v": 110
    },
    {
      "midi": 33,
      "hit": false,
      "t": 67636.29599999983,
      "d": 267.0451874999999,
      "v": 110
    },
    {
      "midi": 45,
      "hit": false,
      "t": 67636.29599999983,
      "d": 267.0451874999999,
      "v": 110
    },
    {
      "midi": 61,
      "hit": false,
      "t": 67636.29599999993,
      "d": 267.0451874999999,
      "v": 110
    },
    {
      "midi": 64,
      "hit": false,
      "t": 67636.29599999993,
      "d": 267.0451874999999,
      "v": 110
    },
    {
      "midi": 52,
      "hit": false,
      "t": 67909.02299999983,
      "d": 267.0451874999999,
      "v": 110
    },
    {
      "midi": 64,
      "hit": false,
      "t": 67909.02299999993,
      "d": 267.0451874999999,
      "v": 110
    },
    {
      "midi": 57,
      "hit": false,
      "t": 68181.74999999983,
      "d": 267.0451874999999,
      "v": 110
    },
    {
      "midi": 69,
      "hit": false,
      "t": 68181.74999999993,
      "d": 1499.9985000000015,
      "v": 110
    },
    {
      "midi": 61,
      "hit": false,
      "t": 68454.47699999982,
      "d": 267.0451874999999,
      "v": 110
    },
    {
      "midi": 64,
      "hit": false,
      "t": 68727.20399999982,
      "d": 267.0451874999999,
      "v": 110
    },
    {
      "midi": 61,
      "hit": false,
      "t": 68999.93099999982,
      "d": 267.0451874999999,
      "v": 110
    },
    {
      "midi": 57,
      "hit": false,
      "t": 69272.65799999982,
      "d": 267.0451874999999,
      "v": 110
    },
    {
      "midi": 52,
      "hit": false,
      "t": 69545.38499999982,
      "d": 267.0451874999999,
      "v": 110
    },
    {
      "midi": 33,
      "hit": false,
      "t": 69818.11199999982,
      "d": 267.0451874999999,
      "v": 110
    },
    {
      "midi": 45,
      "hit": false,
      "t": 69818.11199999982,
      "d": 267.0451874999999,
      "v": 110
    },
    {
      "midi": 60,
      "hit": false,
      "t": 69818.11199999994,
      "d": 267.0451874999999,
      "v": 110
    },
    {
      "midi": 64,
      "hit": false,
      "t": 69818.11199999994,
      "d": 267.0451874999999,
      "v": 110
    },
    {
      "midi": 52,
      "hit": false,
      "t": 70090.83899999982,
      "d": 267.0451874999999,
      "v": 110
    },
    {
      "midi": 72,
      "hit": false,
      "t": 70090.83899999993,
      "d": 267.0451874999999,
      "v": 110
    },
    {
      "midi": 57,
      "hit": false,
      "t": 70363.56599999982,
      "d": 267.0451874999999,
      "v": 110
    },
    {
      "midi": 71,
      "hit": false,
      "t": 70363.56599999993,
      "d": 267.0451874999999,
      "v": 110
    },
    {
      "midi": 60,
      "hit": false,
      "t": 70636.29299999982,
      "d": 267.0451874999999,
      "v": 110
    },
    {
      "midi": 72,
      "hit": false,
      "t": 70636.29299999993,
      "d": 267.0451874999999,
      "v": 110
    },
    {
      "midi": 60,
      "hit": false,
      "t": 70909.01999999981,
      "d": 267.0451874999999,
      "v": 110
    },
    {
      "midi": 64,
      "hit": false,
      "t": 70909.01999999993,
      "d": 454.54499999999825,
      "v": 110
    },
    {
      "midi": 69,
      "hit": false,
      "t": 70909.01999999993,
      "d": 454.54499999999825,
      "v": 110
    },
    {
      "midi": 60,
      "hit": false,
      "t": 71181.74699999981,
      "d": 267.0451874999999,
      "v": 110
    },
    {
      "midi": 57,
      "hit": false,
      "t": 71454.47399999981,
      "d": 267.0451874999999,
      "v": 110
    },
    {
      "midi": 64,
      "hit": false,
      "t": 71454.47399999993,
      "d": 454.54499999999825,
      "v": 110
    },
    {
      "midi": 33,
      "hit": false,
      "t": 71727.20099999981,
      "d": 267.0451874999999,
      "v": 110
    },
    {
      "midi": 45,
      "hit": false,
      "t": 71727.20099999981,
      "d": 267.0451874999999,
      "v": 110
    },
    {
      "midi": 33,
      "hit": false,
      "t": 71999.92799999981,
      "d": 267.0451874999999,
      "v": 110
    },
    {
      "midi": 45,
      "hit": false,
      "t": 71999.92799999981,
      "d": 267.0451874999999,
      "v": 110
    },
    {
      "midi": 59,
      "hit": false,
      "t": 71999.92799999993,
      "d": 267.0451874999999,
      "v": 110
    },
    {
      "midi": 63,
      "hit": false,
      "t": 71999.92799999993,
      "d": 267.0451874999999,
      "v": 110
    },
    {
      "midi": 54,
      "hit": false,
      "t": 72272.65499999981,
      "d": 267.0451874999999,
      "v": 110
    },
    {
      "midi": 66,
      "hit": false,
      "t": 72272.65499999993,
      "d": 267.0451874999999,
      "v": 110
    },
    {
      "midi": 59,
      "hit": false,
      "t": 72545.38199999981,
      "d": 267.0451874999999,
      "v": 110
    },
    {
      "midi": 71,
      "hit": false,
      "t": 72545.38199999993,
      "d": 954.5445000000036,
      "v": 110
    },
    {
      "midi": 63,
      "hit": false,
      "t": 72818.10899999981,
      "d": 267.0451874999999,
      "v": 110
    },
    {
      "midi": 66,
      "hit": false,
      "t": 73090.8359999998,
      "d": 267.0451874999999,
      "v": 110
    },
    {
      "midi": 63,
      "hit": false,
      "t": 73363.5629999998,
      "d": 267.0451874999999,
      "v": 110
    },
    {
      "midi": 59,
      "hit": false,
      "t": 73636.2899999998,
      "d": 267.0451874999999,
      "v": 110
    },
    {
      "midi": 66,
      "hit": false,
      "t": 73636.28999999994,
      "d": 267.0451874999999,
      "v": 110
    },
    {
      "midi": 54,
      "hit": false,
      "t": 73909.0169999998,
      "d": 267.0451874999999,
      "v": 110
    },
    {
      "midi": 71,
      "hit": false,
      "t": 73909.01699999993,
      "d": 267.0451874999999,
      "v": 110
    },
    {
      "midi": 33,
      "hit": false,
      "t": 74181.7439999998,
      "d": 267.0451874999999,
      "v": 110
    },
    {
      "midi": 45,
      "hit": false,
      "t": 74181.7439999998,
      "d": 267.0451874999999,
      "v": 110
    },
    {
      "midi": 74,
      "hit": false,
      "t": 74181.74399999993,
      "d": 267.0451874999999,
      "v": 110
    },
    {
      "midi": 53,
      "hit": false,
      "t": 74454.4709999998,
      "d": 267.0451874999999,
      "v": 110
    },
    {
      "midi": 70,
      "hit": false,
      "t": 74454.47099999993,
      "d": 267.0451874999999,
      "v": 110
    },
    {
      "midi": 58,
      "hit": false,
      "t": 74727.1979999998,
      "d": 267.0451874999999,
      "v": 110
    },
    {
      "midi": 69,
      "hit": false,
      "t": 74727.19799999993,
      "d": 267.0451874999999,
      "v": 110
    },
    {
      "midi": 62,
      "hit": false,
      "t": 74999.9249999998,
      "d": 267.0451874999999,
      "v": 110
    },
    {
      "midi": 70,
      "hit": false,
      "t": 74999.92499999993,
      "d": 267.0451874999999,
      "v": 110
    },
    {
      "midi": 65,
      "hit": false,
      "t": 75272.6519999998,
      "d": 267.0451874999999,
      "v": 110
    },
    {
      "midi": 77,
      "hit": false,
      "t": 75272.65199999993,
      "d": 454.54499999999825,
      "v": 110
    },
    {
      "midi": 62,
      "hit": false,
      "t": 75545.3789999998,
      "d": 267.0451874999999,
      "v": 110
    },
    {
      "midi": 58,
      "hit": false,
      "t": 75818.1059999998,
      "d": 267.0451874999999,
      "v": 110
    },
    {
      "midi": 62,
      "hit": false,
      "t": 75818.10599999993,
      "d": 454.54499999999825,
      "v": 110
    },
    {
      "midi": 45,
      "hit": false,
      "t": 76090.8329999998,
      "d": 267.0451874999999,
      "v": 110
    },
    {
      "midi": 33,
      "hit": false,
      "t": 76363.5599999998,
      "d": 267.0451874999999,
      "v": 110
    },
    {
      "midi": 45,
      "hit": false,
      "t": 76363.5599999998,
      "d": 267.0451874999999,
      "v": 110
    },
    {
      "midi": 61,
      "hit": false,
      "t": 76363.55999999992,
      "d": 267.0451874999999,
      "v": 110
    },
    {
      "midi": 64,
      "hit": false,
      "t": 76363.55999999992,
      "d": 267.0451874999999,
      "v": 110
    },
    {
      "midi": 52,
      "hit": false,
      "t": 76636.2869999998,
      "d": 267.0451874999999,
      "v": 110
    },
    {
      "midi": 64,
      "hit": false,
      "t": 76636.28699999992,
      "d": 267.0451874999999,
      "v": 110
    },
    {
      "midi": 57,
      "hit": false,
      "t": 76909.01399999979,
      "d": 267.0451874999999,
      "v": 110
    },
    {
      "midi": 69,
      "hit": false,
      "t": 76909.01399999992,
      "d": 727.2719999999972,
      "v": 110
    },
    {
      "midi": 61,
      "hit": false,
      "t": 77181.74099999979,
      "d": 267.0451874999999,
      "v": 110
    },
    {
      "midi": 64,
      "hit": false,
      "t": 77454.46799999979,
      "d": 267.0451874999999,
      "v": 110
    },
    {
      "midi": 60,
      "hit": false,
      "t": 77727.19499999979,
      "d": 267.0451874999999,
      "v": 110
    },
    {
      "midi": 74,
      "hit": false,
      "t": 77727.19499999992,
      "d": 267.0451874999999,
      "v": 110
    },
    {
      "midi": 57,
      "hit": false,
      "t": 77999.92199999979,
      "d": 267.0451874999999,
      "v": 110
    },
    {
      "midi": 72,
      "hit": false,
      "t": 77999.92199999992,
      "d": 267.0451874999999,
      "v": 110
    },
    {
      "midi": 52,
      "hit": false,
      "t": 78272.64899999979,
      "d": 267.0451874999999,
      "v": 110
    },
    {
      "midi": 76,
      "hit": false,
      "t": 78272.64899999992,
      "d": 267.0451874999999,
      "v": 110
    },
    {
      "midi": 33,
      "hit": false,
      "t": 78545.37599999979,
      "d": 267.0451874999999,
      "v": 110
    },
    {
      "midi": 45,
      "hit": false,
      "t": 78545.37599999979,
      "d": 267.0451874999999,
      "v": 110
    },
    {
      "midi": 59,
      "hit": false,
      "t": 78818.10299999978,
      "d": 539.7721874999988,
      "v": 110
    },
    {
      "midi": 59,
      "hit": false,
      "t": 79363.55699999978,
      "d": 267.0451874999999,
      "v": 110
    },
    {
      "midi": 57,
      "hit": false,
      "t": 79636.28399999978,
      "d": 267.0451874999999,
      "v": 110
    },
    {
      "midi": 59,
      "hit": false,
      "t": 79909.01099999978,
      "d": 267.0451874999999,
      "v": 110
    },
    {
      "midi": 57,
      "hit": false,
      "t": 80181.73799999978,
      "d": 267.0451874999999,
      "v": 110
    },
    {
      "midi": 33,
      "hit": false,
      "t": 80454.46499999978,
      "d": 267.0451874999999,
      "v": 110
    },
    {
      "midi": 45,
      "hit": false,
      "t": 80454.46499999978,
      "d": 267.0451874999999,
      "v": 110
    },
    {
      "midi": 33,
      "hit": false,
      "t": 80727.19199999978,
      "d": 267.0451874999999,
      "v": 110
    },
    {
      "midi": 45,
      "hit": false,
      "t": 80727.19199999978,
      "d": 267.0451874999999,
      "v": 110
    },
    {
      "midi": 59,
      "hit": false,
      "t": 80999.91899999978,
      "d": 539.7721874999988,
      "v": 110
    },
    {
      "midi": 59,
      "hit": false,
      "t": 81545.37299999977,
      "d": 267.0451874999999,
      "v": 110
    },
    {
      "midi": 57,
      "hit": false,
      "t": 81818.09999999977,
      "d": 267.0451874999999,
      "v": 110
    },
    {
      "midi": 59,
      "hit": false,
      "t": 82090.82699999977,
      "d": 267.0451874999999,
      "v": 110
    },
    {
      "midi": 57,
      "hit": false,
      "t": 82363.55399999977,
      "d": 267.0451874999999,
      "v": 110
    },
    {
      "midi": 52,
      "hit": false,
      "t": 82636.28099999977,
      "d": 267.0451874999999,
      "v": 110
    },
    {
      "midi": 33,
      "hit": false,
      "t": 82909.00799999977,
      "d": 267.0451874999999,
      "v": 110
    },
    {
      "midi": 45,
      "hit": false,
      "t": 82909.00799999977,
      "d": 267.0451874999999,
      "v": 110
    },
    {
      "midi": 59,
      "hit": false,
      "t": 83181.73499999977,
      "d": 539.7721874999988,
      "v": 110
    },
    {
      "midi": 59,
      "hit": false,
      "t": 83727.18899999977,
      "d": 267.0451874999999,
      "v": 110
    },
    {
      "midi": 57,
      "hit": false,
      "t": 83999.91599999976,
      "d": 267.0451874999999,
      "v": 110
    },
    {
      "midi": 59,
      "hit": false,
      "t": 84272.64299999976,
      "d": 267.0451874999999,
      "v": 110
    },
    {
      "midi": 57,
      "hit": false,
      "t": 84545.36999999976,
      "d": 267.0451874999999,
      "v": 110
    },
    {
      "midi": 33,
      "hit": false,
      "t": 84818.09699999976,
      "d": 267.0451874999999,
      "v": 110
    },
    {
      "midi": 45,
      "hit": false,
      "t": 84818.09699999976,
      "d": 267.0451874999999,
      "v": 110
    },
    {
      "midi": 33,
      "hit": false,
      "t": 85090.82399999976,
      "d": 267.0451874999999,
      "v": 110
    },
    {
      "midi": 45,
      "hit": false,
      "t": 85090.82399999976,
      "d": 267.0451874999999,
      "v": 110
    },
    {
      "midi": 59,
      "hit": false,
      "t": 85363.55099999976,
      "d": 539.7721874999988,
      "v": 110
    },
    {
      "midi": 59,
      "hit": false,
      "t": 85909.00499999976,
      "d": 267.0451874999999,
      "v": 110
    },
    {
      "midi": 57,
      "hit": false,
      "t": 86181.73199999976,
      "d": 267.0451874999999,
      "v": 110
    },
    {
      "midi": 59,
      "hit": false,
      "t": 86454.45899999976,
      "d": 267.0451874999999,
      "v": 110
    },
    {
      "midi": 57,
      "hit": false,
      "t": 86727.18599999975,
      "d": 267.0451874999999,
      "v": 110
    },
    {
      "midi": 52,
      "hit": false,
      "t": 86999.91299999975,
      "d": 267.0451874999999,
      "v": 110
    },
    {
      "midi": 33,
      "hit": false,
      "t": 87272.63999999975,
      "d": 267.0451874999999,
      "v": 110
    },
    {
      "midi": 45,
      "hit": false,
      "t": 87272.63999999975,
      "d": 267.0451874999999,
      "v": 110
    },
    {
      "midi": 72,
      "hit": false,
      "t": 87272.63999999991,
      "d": 954.5445000000036,
      "v": 110
    },
    {
      "midi": 69,
      "hit": false,
      "t": 87272.63999999991,
      "d": 1818.1800000000076,
      "v": 110
    },
    {
      "midi": 59,
      "hit": false,
      "t": 87545.36699999975,
      "d": 539.7721874999988,
      "v": 110
    },
    {
      "midi": 59,
      "hit": false,
      "t": 88090.82099999975,
      "d": 267.0451874999999,
      "v": 110
    },
    {
      "midi": 57,
      "hit": false,
      "t": 88363.54799999975,
      "d": 267.0451874999999,
      "v": 110
    },
    {
      "midi": 72,
      "hit": false,
      "t": 88363.54799999992,
      "d": 727.2719999999972,
      "v": 110
    },
    {
      "midi": 59,
      "hit": false,
      "t": 88636.27499999975,
      "d": 267.0451874999999,
      "v": 110
    },
    {
      "midi": 57,
      "hit": false,
      "t": 88909.00199999975,
      "d": 267.0451874999999,
      "v": 110
    },
    {
      "midi": 33,
      "hit": false,
      "t": 89181.72899999974,
      "d": 267.0451874999999,
      "v": 110
    },
    {
      "midi": 45,
      "hit": false,
      "t": 89181.72899999974,
      "d": 267.0451874999999,
      "v": 110
    },
    {
      "midi": 67,
      "hit": false,
      "t": 89181.72899999992,
      "d": 267.0451874999999,
      "v": 110
    },
    {
      "midi": 71,
      "hit": false,
      "t": 89181.72899999992,
      "d": 267.0451874999999,
      "v": 110
    },
    {
      "midi": 33,
      "hit": false,
      "t": 89454.45599999974,
      "d": 267.0451874999999,
      "v": 110
    },
    {
      "midi": 45,
      "hit": false,
      "t": 89454.45599999974,
      "d": 267.0451874999999,
      "v": 110
    },
    {
      "midi": 69,
      "hit": false,
      "t": 89454.45599999992,
      "d": 454.54499999999825,
      "v": 110
    },
    {
      "midi": 72,
      "hit": false,
      "t": 89454.45599999992,
      "d": 454.54499999999825,
      "v": 110
    },
    {
      "midi": 59,
      "hit": false,
      "t": 89727.18299999974,
      "d": 539.7721874999988,
      "v": 110
    },
    {
      "midi": 64,
      "hit": false,
      "t": 89999.90999999992,
      "d": 954.5445000000036,
      "v": 110
    },
    {
      "midi": 69,
      "hit": false,
      "t": 89999.90999999992,
      "d": 954.5445000000036,
      "v": 110
    },
    {
      "midi": 59,
      "hit": false,
      "t": 90272.63699999974,
      "d": 267.0451874999999,
      "v": 110
    },
    {
      "midi": 57,
      "hit": false,
      "t": 90545.36399999974,
      "d": 267.0451874999999,
      "v": 110
    },
    {
      "midi": 59,
      "hit": false,
      "t": 90818.09099999974,
      "d": 267.0451874999999,
      "v": 110
    },
    {
      "midi": 57,
      "hit": false,
      "t": 91090.81799999974,
      "d": 267.0451874999999,
      "v": 110
    },
    {
      "midi": 64,
      "hit": false,
      "t": 91090.81799999993,
      "d": 267.0451874999999,
      "v": 110
    },
    {
      "midi": 69,
      "hit": false,
      "t": 91090.81799999993,
      "d": 267.0451874999999,
      "v": 110
    },
    {
      "midi": 52,
      "hit": false,
      "t": 91363.54499999974,
      "d": 267.0451874999999,
      "v": 110
    },
    {
      "midi": 67,
      "hit": false,
      "t": 91363.54499999993,
      "d": 267.0451874999999,
      "v": 110
    },
    {
      "midi": 71,
      "hit": false,
      "t": 91363.54499999993,
      "d": 267.0451874999999,
      "v": 110
    },
    {
      "midi": 33,
      "hit": false,
      "t": 91636.27199999974,
      "d": 267.0451874999999,
      "v": 110
    },
    {
      "midi": 45,
      "hit": false,
      "t": 91636.27199999974,
      "d": 267.0451874999999,
      "v": 110
    },
    {
      "midi": 69,
      "hit": false,
      "t": 91636.27199999992,
      "d": 454.54499999999825,
      "v": 110
    },
    {
      "midi": 72,
      "hit": false,
      "t": 91636.27199999992,
      "d": 454.54499999999825,
      "v": 110
    },
    {
      "midi": 59,
      "hit": false,
      "t": 91908.99899999973,
      "d": 539.7721874999988,
      "v": 110
    },
    {
      "midi": 71,
      "hit": false,
      "t": 92181.72599999992,
      "d": 454.54499999999825,
      "v": 110
    },
    {
      "midi": 74,
      "hit": false,
      "t": 92181.72599999992,
      "d": 454.54499999999825,
      "v": 110
    },
    {
      "midi": 59,
      "hit": false,
      "t": 92454.45299999973,
      "d": 267.0451874999999,
      "v": 110
    },
    {
      "midi": 57,
      "hit": false,
      "t": 92727.17999999973,
      "d": 267.0451874999999,
      "v": 110
    },
    {
      "midi": 69,
      "hit": false,
      "t": 92727.17999999992,
      "d": 267.0451874999999,
      "v": 110
    },
    {
      "midi": 72,
      "hit": false,
      "t": 92727.17999999992,
      "d": 267.0451874999999,
      "v": 110
    },
    {
      "midi": 59,
      "hit": false,
      "t": 92999.90699999973,
      "d": 267.0451874999999,
      "v": 110
    },
    {
      "midi": 71,
      "hit": false,
      "t": 92999.90699999992,
      "d": 267.0451874999999,
      "v": 110
    },
    {
      "midi": 74,
      "hit": false,
      "t": 92999.90699999992,
      "d": 267.0451874999999,
      "v": 110
    },
    {
      "midi": 57,
      "hit": false,
      "t": 93272.63399999973,
      "d": 267.0451874999999,
      "v": 110
    },
    {
      "midi": 69,
      "hit": false,
      "t": 93272.63399999992,
      "d": 267.0451874999999,
      "v": 110
    },
    {
      "midi": 72,
      "hit": false,
      "t": 93272.63399999992,
      "d": 267.0451874999999,
      "v": 110
    },
    {
      "midi": 33,
      "hit": false,
      "t": 93545.36099999973,
      "d": 267.0451874999999,
      "v": 110
    },
    {
      "midi": 45,
      "hit": false,
      "t": 93545.36099999973,
      "d": 267.0451874999999,
      "v": 110
    },
    {
      "midi": 67,
      "hit": false,
      "t": 93545.36099999992,
      "d": 267.0451874999999,
      "v": 110
    },
    {
      "midi": 71,
      "hit": false,
      "t": 93545.36099999992,
      "d": 267.0451874999999,
      "v": 110
    },
    {
      "midi": 33,
      "hit": false,
      "t": 93818.08799999973,
      "d": 267.0451874999999,
      "v": 110
    },
    {
      "midi": 45,
      "hit": false,
      "t": 93818.08799999973,
      "d": 267.0451874999999,
      "v": 110
    },
    {
      "midi": 69,
      "hit": false,
      "t": 93818.08799999992,
      "d": 267.0451874999999,
      "v": 110
    },
    {
      "midi": 72,
      "hit": false,
      "t": 93818.08799999992,
      "d": 267.0451874999999,
      "v": 110
    },
    {
      "midi": 59,
      "hit": false,
      "t": 94090.81499999973,
      "d": 539.7721874999988,
      "v": 110
    },
    {
      "midi": 64,
      "hit": false,
      "t": 94090.81499999992,
      "d": 1772.7255000000005,
      "v": 110
    },
    {
      "midi": 69,
      "hit": false,
      "t": 94090.81499999992,
      "d": 1772.7255000000005,
      "v": 110
    },
    {
      "midi": 59,
      "hit": false,
      "t": 94636.26899999972,
      "d": 267.0451874999999,
      "v": 110
    },
    {
      "midi": 57,
      "hit": false,
      "t": 94908.99599999972,
      "d": 267.0451874999999,
      "v": 110
    },
    {
      "midi": 59,
      "hit": false,
      "t": 95181.72299999972,
      "d": 267.0451874999999,
      "v": 110
    },
    {
      "midi": 57,
      "hit": false,
      "t": 95454.44999999972,
      "d": 267.0451874999999,
      "v": 110
    },
    {
      "midi": 52,
      "hit": false,
      "t": 95727.17699999972,
      "d": 267.0451874999999,
      "v": 110
    },
    {
      "midi": 33,
      "hit": false,
      "t": 95999.90399999972,
      "d": 267.0451874999999,
      "v": 110
    },
    {
      "midi": 45,
      "hit": false,
      "t": 95999.90399999972,
      "d": 267.0451874999999,
      "v": 110
    },
    {
      "midi": 69,
      "hit": false,
      "t": 95999.90399999992,
      "d": 1818.179999999993,
      "v": 110
    },
    {
      "midi": 72,
      "hit": false,
      "t": 95999.90399999992,
      "d": 1818.179999999993,
      "v": 110
    },
    {
      "midi": 59,
      "hit": false,
      "t": 96272.63099999972,
      "d": 539.7721874999988,
      "v": 110
    },
    {
      "midi": 59,
      "hit": false,
      "t": 96818.08499999972,
      "d": 267.0451874999999,
      "v": 110
    },
    {
      "midi": 57,
      "hit": false,
      "t": 97090.81199999971,
      "d": 267.0451874999999,
      "v": 110
    },
    {
      "midi": 59,
      "hit": false,
      "t": 97363.53899999971,
      "d": 267.0451874999999,
      "v": 110
    },
    {
      "midi": 57,
      "hit": false,
      "t": 97636.26599999971,
      "d": 267.0451874999999,
      "v": 110
    },
    {
      "midi": 33,
      "hit": false,
      "t": 97908.99299999971,
      "d": 267.0451874999999,
      "v": 110
    },
    {
      "midi": 45,
      "hit": false,
      "t": 97908.99299999971,
      "d": 267.0451874999999,
      "v": 110
    },
    {
      "midi": 67,
      "hit": false,
      "t": 97908.99299999991,
      "d": 267.0451874999999,
      "v": 110
    },
    {
      "midi": 71,
      "hit": false,
      "t": 97908.99299999991,
      "d": 267.0451874999999,
      "v": 110
    },
    {
      "midi": 33,
      "hit": false,
      "t": 98181.71999999971,
      "d": 267.0451874999999,
      "v": 110
    },
    {
      "midi": 45,
      "hit": false,
      "t": 98181.71999999971,
      "d": 267.0451874999999,
      "v": 110
    },
    {
      "midi": 69,
      "hit": false,
      "t": 98181.71999999991,
      "d": 454.54499999999825,
      "v": 110
    },
    {
      "midi": 72,
      "hit": false,
      "t": 98181.71999999991,
      "d": 454.54499999999825,
      "v": 110
    },
    {
      "midi": 59,
      "hit": false,
      "t": 98454.44699999971,
      "d": 539.7721874999988,
      "v": 110
    },
    {
      "midi": 64,
      "hit": false,
      "t": 98727.17399999991,
      "d": 954.5445000000036,
      "v": 110
    },
    {
      "midi": 69,
      "hit": false,
      "t": 98727.17399999991,
      "d": 954.5445000000036,
      "v": 110
    },
    {
      "midi": 59,
      "hit": false,
      "t": 98999.9009999997,
      "d": 267.0451874999999,
      "v": 110
    },
    {
      "midi": 57,
      "hit": false,
      "t": 99272.6279999997,
      "d": 267.0451874999999,
      "v": 110
    },
    {
      "midi": 59,
      "hit": false,
      "t": 99545.3549999997,
      "d": 267.0451874999999,
      "v": 110
    },
    {
      "midi": 57,
      "hit": false,
      "t": 99818.0819999997,
      "d": 267.0451874999999,
      "v": 110
    },
    {
      "midi": 64,
      "hit": false,
      "t": 99818.08199999992,
      "d": 267.0451874999999,
      "v": 110
    },
    {
      "midi": 69,
      "hit": false,
      "t": 99818.08199999992,
      "d": 267.0451874999999,
      "v": 110
    },
    {
      "midi": 52,
      "hit": false,
      "t": 100090.8089999997,
      "d": 267.0451874999999,
      "v": 110
    },
    {
      "midi": 67,
      "hit": false,
      "t": 100090.80899999992,
      "d": 267.0451874999999,
      "v": 110
    },
    {
      "midi": 71,
      "hit": false,
      "t": 100090.80899999992,
      "d": 267.0451874999999,
      "v": 110
    },
    {
      "midi": 33,
      "hit": false,
      "t": 100363.5359999997,
      "d": 267.0451874999999,
      "v": 110
    },
    {
      "midi": 45,
      "hit": false,
      "t": 100363.5359999997,
      "d": 267.0451874999999,
      "v": 110
    },
    {
      "midi": 69,
      "hit": false,
      "t": 100363.53599999992,
      "d": 454.54499999999825,
      "v": 110
    },
    {
      "midi": 72,
      "hit": false,
      "t": 100363.53599999992,
      "d": 454.54499999999825,
      "v": 110
    },
    {
      "midi": 59,
      "hit": false,
      "t": 100636.2629999997,
      "d": 539.7721874999988,
      "v": 110
    },
    {
      "midi": 71,
      "hit": false,
      "t": 100908.98999999992,
      "d": 454.54499999999825,
      "v": 110
    },
    {
      "midi": 74,
      "hit": false,
      "t": 100908.98999999992,
      "d": 454.54499999999825,
      "v": 110
    },
    {
      "midi": 59,
      "hit": false,
      "t": 101181.7169999997,
      "d": 267.0451874999999,
      "v": 110
    },
    {
      "midi": 57,
      "hit": false,
      "t": 101454.4439999997,
      "d": 267.0451874999999,
      "v": 110
    },
    {
      "midi": 69,
      "hit": false,
      "t": 101454.44399999992,
      "d": 267.0451874999999,
      "v": 110
    },
    {
      "midi": 72,
      "hit": false,
      "t": 101454.44399999992,
      "d": 267.0451874999999,
      "v": 110
    },
    {
      "midi": 59,
      "hit": false,
      "t": 101727.1709999997,
      "d": 267.0451874999999,
      "v": 110
    },
    {
      "midi": 71,
      "hit": false,
      "t": 101727.17099999991,
      "d": 267.0451874999999,
      "v": 110
    },
    {
      "midi": 74,
      "hit": false,
      "t": 101727.17099999991,
      "d": 267.0451874999999,
      "v": 110
    },
    {
      "midi": 57,
      "hit": false,
      "t": 101999.8979999997,
      "d": 267.0451874999999,
      "v": 110
    },
    {
      "midi": 69,
      "hit": false,
      "t": 101999.89799999991,
      "d": 267.0451874999999,
      "v": 110
    },
    {
      "midi": 72,
      "hit": false,
      "t": 101999.89799999991,
      "d": 267.0451874999999,
      "v": 110
    },
    {
      "midi": 33,
      "hit": false,
      "t": 102272.6249999997,
      "d": 267.0451874999999,
      "v": 110
    },
    {
      "midi": 45,
      "hit": false,
      "t": 102272.6249999997,
      "d": 267.0451874999999,
      "v": 110
    },
    {
      "midi": 67,
      "hit": false,
      "t": 102272.62499999991,
      "d": 267.0451874999999,
      "v": 110
    },
    {
      "midi": 71,
      "hit": false,
      "t": 102272.62499999991,
      "d": 267.0451874999999,
      "v": 110
    },
    {
      "midi": 33,
      "hit": false,
      "t": 102545.3519999997,
      "d": 267.0451874999999,
      "v": 110
    },
    {
      "midi": 45,
      "hit": false,
      "t": 102545.3519999997,
      "d": 267.0451874999999,
      "v": 110
    },
    {
      "midi": 69,
      "hit": false,
      "t": 102545.35199999991,
      "d": 267.0451874999999,
      "v": 110
    },
    {
      "midi": 72,
      "hit": false,
      "t": 102545.35199999991,
      "d": 267.0451874999999,
      "v": 110
    },
    {
      "midi": 59,
      "hit": false,
      "t": 102818.07899999969,
      "d": 539.7721874999988,
      "v": 110
    },
    {
      "midi": 64,
      "hit": false,
      "t": 102818.07899999991,
      "d": 1772.7255000000005,
      "v": 110
    },
    {
      "midi": 69,
      "hit": false,
      "t": 102818.07899999991,
      "d": 1772.7255000000005,
      "v": 110
    },
    {
      "midi": 59,
      "hit": false,
      "t": 103363.53299999969,
      "d": 267.0451874999999,
      "v": 110
    },
    {
      "midi": 57,
      "hit": false,
      "t": 103636.25999999969,
      "d": 267.0451874999999,
      "v": 110
    },
    {
      "midi": 59,
      "hit": false,
      "t": 103908.98699999969,
      "d": 267.0451874999999,
      "v": 110
    },
    {
      "midi": 57,
      "hit": false,
      "t": 104181.71399999969,
      "d": 267.0451874999999,
      "v": 110
    },
    {
      "midi": 52,
      "hit": false,
      "t": 104454.44099999969,
      "d": 267.0451874999999,
      "v": 110
    },
    {
      "midi": 36,
      "hit": false,
      "t": 104727.16799999968,
      "d": 267.0451874999999,
      "v": 110
    },
    {
      "midi": 48,
      "hit": false,
      "t": 104727.16799999968,
      "d": 267.0451874999999,
      "v": 110
    },
    {
      "midi": 72,
      "hit": false,
      "t": 104727.16799999992,
      "d": 1818.179999999993,
      "v": 110
    },
    {
      "midi": 76,
      "hit": false,
      "t": 104727.16799999992,
      "d": 1818.179999999993,
      "v": 110
    },
    {
      "midi": 60,
      "hit": false,
      "t": 104999.89499999968,
      "d": 539.7721874999988,
      "v": 110
    },
    {
      "midi": 60,
      "hit": false,
      "t": 105545.34899999968,
      "d": 267.0451874999999,
      "v": 110
    },
    {
      "midi": 59,
      "hit": false,
      "t": 105818.07599999968,
      "d": 267.0451874999999,
      "v": 110
    },
    {
      "midi": 60,
      "hit": false,
      "t": 106090.80299999968,
      "d": 267.0451874999999,
      "v": 110
    },
    {
      "midi": 55,
      "hit": false,
      "t": 106363.52999999968,
      "d": 267.0451874999999,
      "v": 110
    },
    {
      "midi": 36,
      "hit": false,
      "t": 106636.25699999968,
      "d": 267.0451874999999,
      "v": 110
    },
    {
      "midi": 48,
      "hit": false,
      "t": 106636.25699999968,
      "d": 267.0451874999999,
      "v": 110
    },
    {
      "midi": 71,
      "hit": false,
      "t": 106636.25699999991,
      "d": 267.0451874999999,
      "v": 110
    },
    {
      "midi": 74,
      "hit": false,
      "t": 106636.25699999991,
      "d": 267.0451874999999,
      "v": 110
    },
    {
      "midi": 36,
      "hit": false,
      "t": 106908.98399999968,
      "d": 267.0451874999999,
      "v": 110
    },
    {
      "midi": 48,
      "hit": false,
      "t": 106908.98399999968,
      "d": 267.0451874999999,
      "v": 110
    },
    {
      "midi": 72,
      "hit": false,
      "t": 106908.98399999991,
      "d": 454.54499999999825,
      "v": 110
    },
    {
      "midi": 76,
      "hit": false,
      "t": 106908.98399999991,
      "d": 454.54499999999825,
      "v": 110
    },
    {
      "midi": 60,
      "hit": false,
      "t": 107181.71099999968,
      "d": 539.7721874999988,
      "v": 110
    },
    {
      "midi": 67,
      "hit": false,
      "t": 107454.43799999991,
      "d": 954.5445000000036,
      "v": 110
    },
    {
      "midi": 72,
      "hit": false,
      "t": 107454.43799999991,
      "d": 954.5445000000036,
      "v": 110
    },
    {
      "midi": 60,
      "hit": false,
      "t": 107727.16499999967,
      "d": 267.0451874999999,
      "v": 110
    },
    {
      "midi": 59,
      "hit": false,
      "t": 107999.89199999967,
      "d": 267.0451874999999,
      "v": 110
    },
    {
      "midi": 60,
      "hit": false,
      "t": 108272.61899999967,
      "d": 267.0451874999999,
      "v": 110
    },
    {
      "midi": 55,
      "hit": false,
      "t": 108545.34599999967,
      "d": 267.0451874999999,
      "v": 110
    },
    {
      "midi": 67,
      "hit": false,
      "t": 108545.34599999992,
      "d": 267.0451874999999,
      "v": 110
    },
    {
      "midi": 72,
      "hit": false,
      "t": 108545.34599999992,
      "d": 267.0451874999999,
      "v": 110
    },
    {
      "midi": 52,
      "hit": false,
      "t": 108818.07299999967,
      "d": 267.0451874999999,
      "v": 110
    },
    {
      "midi": 71,
      "hit": false,
      "t": 108818.07299999992,
      "d": 267.0451874999999,
      "v": 110
    },
    {
      "midi": 74,
      "hit": false,
      "t": 108818.07299999992,
      "d": 267.0451874999999,
      "v": 110
    },
    {
      "midi": 36,
      "hit": false,
      "t": 109090.79999999967,
      "d": 267.0451874999999,
      "v": 110
    },
    {
      "midi": 48,
      "hit": false,
      "t": 109090.79999999967,
      "d": 267.0451874999999,
      "v": 110
    },
    {
      "midi": 72,
      "hit": false,
      "t": 109090.79999999992,
      "d": 454.54499999999825,
      "v": 110
    },
    {
      "midi": 76,
      "hit": false,
      "t": 109090.79999999992,
      "d": 454.54499999999825,
      "v": 110
    },
    {
      "midi": 60,
      "hit": false,
      "t": 109363.52699999967,
      "d": 539.7721874999988,
      "v": 110
    },
    {
      "midi": 76,
      "hit": false,
      "t": 109636.25399999991,
      "d": 454.54499999999825,
      "v": 110
    },
    {
      "midi": 79,
      "hit": false,
      "t": 109636.25399999991,
      "d": 454.54499999999825,
      "v": 110
    },
    {
      "midi": 60,
      "hit": false,
      "t": 109908.98099999967,
      "d": 267.0451874999999,
      "v": 110
    },
    {
      "midi": 38,
      "hit": false,
      "t": 110181.70799999966,
      "d": 267.0451874999999,
      "v": 110
    },
    {
      "midi": 50,
      "hit": false,
      "t": 110181.70799999966,
      "d": 267.0451874999999,
      "v": 110
    },
    {
      "midi": 74,
      "hit": false,
      "t": 110181.70799999991,
      "d": 267.0451874999999,
      "v": 110
    },
    {
      "midi": 78,
      "hit": false,
      "t": 110181.70799999991,
      "d": 267.0451874999999,
      "v": 110
    },
    {
      "midi": 60,
      "hit": false,
      "t": 110454.43499999966,
      "d": 267.0451874999999,
      "v": 110
    },
    {
      "midi": 76,
      "hit": false,
      "t": 110454.43499999991,
      "d": 267.0451874999999,
      "v": 110
    },
    {
      "midi": 79,
      "hit": false,
      "t": 110454.43499999991,
      "d": 267.0451874999999,
      "v": 110
    },
    {
      "midi": 57,
      "hit": false,
      "t": 110727.16199999966,
      "d": 267.0451874999999,
      "v": 110
    },
    {
      "midi": 74,
      "hit": false,
      "t": 110727.16199999991,
      "d": 267.0451874999999,
      "v": 110
    },
    {
      "midi": 78,
      "hit": false,
      "t": 110727.16199999991,
      "d": 267.0451874999999,
      "v": 110
    },
    {
      "midi": 54,
      "hit": false,
      "t": 110999.88899999966,
      "d": 267.0451874999999,
      "v": 110
    },
    {
      "midi": 69,
      "hit": false,
      "t": 110999.88899999991,
      "d": 267.0451874999999,
      "v": 110
    },
    {
      "midi": 74,
      "hit": false,
      "t": 110999.88899999991,
      "d": 267.0451874999999,
      "v": 110
    },
    {
      "midi": 40,
      "hit": false,
      "t": 111272.61599999966,
      "d": 267.0451874999999,
      "v": 110
    },
    {
      "midi": 52,
      "hit": false,
      "t": 111272.61599999966,
      "d": 267.0451874999999,
      "v": 110
    },
    {
      "midi": 69,
      "hit": false,
      "t": 111272.6159999999,
      "d": 727.2719999999972,
      "v": 110
    },
    {
      "midi": 76,
      "hit": false,
      "t": 111272.6159999999,
      "d": 727.2719999999972,
      "v": 110
    },
    {
      "midi": 62,
      "hit": false,
      "t": 111545.34299999966,
      "d": 539.7721874999988,
      "v": 110
    },
    {
      "midi": 62,
      "hit": false,
      "t": 112090.79699999966,
      "d": 267.0451874999999,
      "v": 110
    },
    {
      "midi": 71,
      "hit": false,
      "t": 112090.7969999999,
      "d": 130.68168749999313,
      "v": 110
    },
    {
      "midi": 69,
      "hit": false,
      "t": 112227.1604999999,
      "d": 130.68168749999313,
      "v": 110
    },
    {
      "midi": 59,
      "hit": false,
      "t": 112363.52399999966,
      "d": 267.0451874999999,
      "v": 110
    },
    {
      "midi": 68,
      "hit": false,
      "t": 112363.52399999989,
      "d": 954.5445000000036,
      "v": 110
    },
    {
      "midi": 76,
      "hit": false,
      "t": 112363.52399999989,
      "d": 954.5445000000036,
      "v": 110
    },
    {
      "midi": 62,
      "hit": false,
      "t": 112636.25099999965,
      "d": 267.0451874999999,
      "v": 110
    },
    {
      "midi": 59,
      "hit": false,
      "t": 112908.97799999965,
      "d": 267.0451874999999,
      "v": 110
    },
    {
      "midi": 56,
      "hit": false,
      "t": 113181.70499999965,
      "d": 267.0451874999999,
      "v": 110
    },
    {
      "midi": 33,
      "hit": false,
      "t": 113454.43199999965,
      "d": 267.0451874999999,
      "v": 110
    },
    {
      "midi": 45,
      "hit": false,
      "t": 113454.43199999965,
      "d": 267.0451874999999,
      "v": 110
    },
    {
      "midi": 69,
      "hit": false,
      "t": 113454.4319999999,
      "d": 1818.179999999993,
      "v": 110
    },
    {
      "midi": 72,
      "hit": false,
      "t": 113454.4319999999,
      "d": 1818.179999999993,
      "v": 110
    },
    {
      "midi": 59,
      "hit": false,
      "t": 113727.15899999965,
      "d": 539.7721874999988,
      "v": 110
    },
    {
      "midi": 59,
      "hit": false,
      "t": 114272.61299999965,
      "d": 267.0451874999999,
      "v": 110
    },
    {
      "midi": 57,
      "hit": false,
      "t": 114545.33999999965,
      "d": 267.0451874999999,
      "v": 110
    },
    {
      "midi": 59,
      "hit": false,
      "t": 114818.06699999965,
      "d": 267.0451874999999,
      "v": 110
    },
    {
      "midi": 57,
      "hit": false,
      "t": 115090.79399999965,
      "d": 267.0451874999999,
      "v": 110
    },
    {
      "midi": 33,
      "hit": false,
      "t": 115363.52099999964,
      "d": 267.0451874999999,
      "v": 110
    },
    {
      "midi": 45,
      "hit": false,
      "t": 115363.52099999964,
      "d": 267.0451874999999,
      "v": 110
    },
    {
      "midi": 67,
      "hit": false,
      "t": 115363.52099999989,
      "d": 267.0451874999999,
      "v": 110
    },
    {
      "midi": 71,
      "hit": false,
      "t": 115363.52099999989,
      "d": 267.0451874999999,
      "v": 110
    },
    {
      "midi": 33,
      "hit": false,
      "t": 115636.24799999964,
      "d": 267.0451874999999,
      "v": 110
    },
    {
      "midi": 45,
      "hit": false,
      "t": 115636.24799999964,
      "d": 267.0451874999999,
      "v": 110
    },
    {
      "midi": 69,
      "hit": false,
      "t": 115636.24799999989,
      "d": 454.54499999999825,
      "v": 110
    },
    {
      "midi": 72,
      "hit": false,
      "t": 115636.24799999989,
      "d": 454.54499999999825,
      "v": 110
    },
    {
      "midi": 59,
      "hit": false,
      "t": 115908.97499999964,
      "d": 539.7721874999988,
      "v": 110
    },
    {
      "midi": 64,
      "hit": false,
      "t": 116181.70199999989,
      "d": 954.5445000000036,
      "v": 110
    },
    {
      "midi": 69,
      "hit": false,
      "t": 116181.70199999989,
      "d": 954.5445000000036,
      "v": 110
    },
    {
      "midi": 59,
      "hit": false,
      "t": 116454.42899999964,
      "d": 267.0451874999999,
      "v": 110
    },
    {
      "midi": 57,
      "hit": false,
      "t": 116727.15599999964,
      "d": 267.0451874999999,
      "v": 110
    },
    {
      "midi": 59,
      "hit": false,
      "t": 116999.88299999964,
      "d": 267.0451874999999,
      "v": 110
    },
    {
      "midi": 57,
      "hit": false,
      "t": 117272.60999999964,
      "d": 267.0451874999999,
      "v": 110
    },
    {
      "midi": 64,
      "hit": false,
      "t": 117272.6099999999,
      "d": 267.0451874999999,
      "v": 110
    },
    {
      "midi": 69,
      "hit": false,
      "t": 117272.6099999999,
      "d": 267.0451874999999,
      "v": 110
    },
    {
      "midi": 52,
      "hit": false,
      "t": 117545.33699999964,
      "d": 267.0451874999999,
      "v": 110
    },
    {
      "midi": 67,
      "hit": false,
      "t": 117545.3369999999,
      "d": 267.0451874999999,
      "v": 110
    },
    {
      "midi": 71,
      "hit": false,
      "t": 117545.3369999999,
      "d": 267.0451874999999,
      "v": 110
    },
    {
      "midi": 33,
      "hit": false,
      "t": 117818.06399999963,
      "d": 267.0451874999999,
      "v": 110
    },
    {
      "midi": 45,
      "hit": false,
      "t": 117818.06399999963,
      "d": 267.0451874999999,
      "v": 110
    },
    {
      "midi": 69,
      "hit": false,
      "t": 117818.0639999999,
      "d": 454.54499999999825,
      "v": 110
    },
    {
      "midi": 72,
      "hit": false,
      "t": 117818.0639999999,
      "d": 454.54499999999825,
      "v": 110
    },
    {
      "midi": 59,
      "hit": false,
      "t": 118090.79099999963,
      "d": 539.7721874999988,
      "v": 110
    },
    {
      "midi": 71,
      "hit": false,
      "t": 118363.5179999999,
      "d": 454.54499999999825,
      "v": 110
    },
    {
      "midi": 74,
      "hit": false,
      "t": 118363.5179999999,
      "d": 454.54499999999825,
      "v": 110
    },
    {
      "midi": 59,
      "hit": false,
      "t": 118636.24499999963,
      "d": 267.0451874999999,
      "v": 110
    },
    {
      "midi": 57,
      "hit": false,
      "t": 118908.97199999963,
      "d": 267.0451874999999,
      "v": 110
    },
    {
      "midi": 69,
      "hit": false,
      "t": 118908.97199999989,
      "d": 267.0451874999999,
      "v": 110
    },
    {
      "midi": 72,
      "hit": false,
      "t": 118908.97199999989,
      "d": 267.0451874999999,
      "v": 110
    },
    {
      "midi": 59,
      "hit": false,
      "t": 119181.69899999963,
      "d": 267.0451874999999,
      "v": 110
    },
    {
      "midi": 71,
      "hit": false,
      "t": 119181.69899999989,
      "d": 267.0451874999999,
      "v": 110
    },
    {
      "midi": 74,
      "hit": false,
      "t": 119181.69899999989,
      "d": 267.0451874999999,
      "v": 110
    },
    {
      "midi": 57,
      "hit": false,
      "t": 119454.42599999963,
      "d": 267.0451874999999,
      "v": 110
    },
    {
      "midi": 69,
      "hit": false,
      "t": 119454.42599999989,
      "d": 267.0451874999999,
      "v": 110
    },
    {
      "midi": 72,
      "hit": false,
      "t": 119454.42599999989,
      "d": 267.0451874999999,
      "v": 110
    },
    {
      "midi": 33,
      "hit": false,
      "t": 119727.15299999963,
      "d": 267.0451874999999,
      "v": 110
    },
    {
      "midi": 45,
      "hit": false,
      "t": 119727.15299999963,
      "d": 267.0451874999999,
      "v": 110
    },
    {
      "midi": 67,
      "hit": false,
      "t": 119727.15299999989,
      "d": 267.0451874999999,
      "v": 110
    },
    {
      "midi": 71,
      "hit": false,
      "t": 119727.15299999989,
      "d": 267.0451874999999,
      "v": 110
    },
    {
      "midi": 33,
      "hit": false,
      "t": 119999.87999999963,
      "d": 267.0451874999999,
      "v": 110
    },
    {
      "midi": 45,
      "hit": false,
      "t": 119999.87999999963,
      "d": 267.0451874999999,
      "v": 110
    },
    {
      "midi": 69,
      "hit": false,
      "t": 119999.87999999989,
      "d": 267.0451874999999,
      "v": 110
    },
    {
      "midi": 72,
      "hit": false,
      "t": 119999.87999999989,
      "d": 267.0451874999999,
      "v": 110
    },
    {
      "midi": 59,
      "hit": false,
      "t": 120272.60699999963,
      "d": 539.7721874999988,
      "v": 110
    },
    {
      "midi": 64,
      "hit": false,
      "t": 120272.60699999989,
      "d": 1772.7255000000005,
      "v": 110
    },
    {
      "midi": 69,
      "hit": false,
      "t": 120272.60699999989,
      "d": 1772.7255000000005,
      "v": 110
    },
    {
      "midi": 59,
      "hit": false,
      "t": 120818.06099999962,
      "d": 267.0451874999999,
      "v": 110
    },
    {
      "midi": 57,
      "hit": false,
      "t": 121090.78799999962,
      "d": 267.0451874999999,
      "v": 110
    },
    {
      "midi": 59,
      "hit": false,
      "t": 121363.51499999962,
      "d": 267.0451874999999,
      "v": 110
    },
    {
      "midi": 57,
      "hit": false,
      "t": 121636.24199999962,
      "d": 267.0451874999999,
      "v": 110
    },
    {
      "midi": 52,
      "hit": false,
      "t": 121908.96899999962,
      "d": 267.0451874999999,
      "v": 110
    }
  ]
}