{
  "jsonPath": "Soundtracks/Video Game Music/Final Fantasy 8/final-fantasy-8-liberifatalipiano.json",
  "path": "Soundtracks\\Video Game Music\\Final Fantasy 8\\Final_Fantasy_8_LiberiFataliPiano.mid",
  "name": "Final_Fantasy_8_LiberiFataliPiano",
  "difficulty": "Advanced",
  "bpm": 130.00013000013,
  "notes": [
    {
      "midi": 69,
      "hit": false,
      "t": 1600.0000000000007,
      "d": 640.0000000000002,
      "v": 65
    },
    {
      "midi": 69,
      "hit": false,
      "t": 2400.000000000001,
      "d": 2008.333333333333,
      "v": 69
    },
    {
      "midi": 69,
      "hit": false,
      "t": 4800.000000000001,
      "d": 640,
      "v": 68
    },
    {
      "midi": 69,
      "hit": false,
      "t": 5600.000000000001,
      "d": 2050,
      "v": 80
    },
    {
      "midi": 69,
      "hit": false,
      "t": 8000.000000000001,
      "d": 639.9999999999991,
      "v": 69
    },
    {
      "midi": 69,
      "hit": false,
      "t": 8800,
      "d": 2000,
      "v": 70
    },
    {
      "midi": 69,
      "hit": false,
      "t": 11200,
      "d": 320,
      "v": 72
    },
    {
      "midi": 69,
      "hit": false,
      "t": 11600,
      "d": 320,
      "v": 60
    },
    {
      "midi": 69,
      "hit": false,
      "t": 12000,
      "d": 640,
      "v": 67
    },
    {
      "midi": 45,
      "hit": false,
      "t": 12800,
      "d": 308.33333333333394,
      "v": 88
    },
    {
      "midi": 57,
      "hit": false,
      "t": 13000,
      "d": 47.5,
      "v": 90
    },
    {
      "midi": 45,
      "hit": false,
      "t": 13200,
      "d": 291.66666666666606,
      "v": 90
    },
    {
      "midi": 57,
      "hit": false,
      "t": 13400,
      "d": 47.5,
      "v": 94
    },
    {
      "midi": 45,
      "hit": false,
      "t": 13600,
      "d": 266.66666666666606,
      "v": 96
    },
    {
      "midi": 57,
      "hit": false,
      "t": 13800,
      "d": 47.5,
      "v": 100
    },
    {
      "midi": 45,
      "hit": false,
      "t": 14000,
      "d": 283.33333333333394,
      "v": 105
    },
    {
      "midi": 57,
      "hit": false,
      "t": 14200,
      "d": 47.5,
      "v": 94
    },
    {
      "midi": 45,
      "hit": false,
      "t": 14400,
      "d": 275,
      "v": 112
    },
    {
      "midi": 57,
      "hit": false,
      "t": 14600,
      "d": 47.5,
      "v": 105
    },
    {
      "midi": 45,
      "hit": false,
      "t": 14800,
      "d": 266.66666666666606,
      "v": 105
    },
    {
      "midi": 57,
      "hit": false,
      "t": 15000,
      "d": 47.5,
      "v": 110
    },
    {
      "midi": 45,
      "hit": false,
      "t": 15200,
      "d": 291.66666666666606,
      "v": 100
    },
    {
      "midi": 57,
      "hit": false,
      "t": 15400,
      "d": 47.5,
      "v": 105
    },
    {
      "midi": 45,
      "hit": false,
      "t": 15600,
      "d": 283.33333333333394,
      "v": 105
    },
    {
      "midi": 57,
      "hit": false,
      "t": 15800,
      "d": 47.5,
      "v": 105
    },
    {
      "midi": 45,
      "hit": false,
      "t": 16000,
      "d": 160,
      "v": 105
    },
    {
      "midi": 33,
      "hit": false,
      "t": 16000,
      "d": 160,
      "v": 90
    },
    {
      "midi": 52,
      "hit": false,
      "t": 16200,
      "d": 160,
      "v": 99
    },
    {
      "midi": 40,
      "hit": false,
      "t": 16200,
      "d": 160,
      "v": 108
    },
    {
      "midi": 45,
      "hit": false,
      "t": 16400,
      "d": 160,
      "v": 115
    },
    {
      "midi": 33,
      "hit": false,
      "t": 16400,
      "d": 160,
      "v": 97
    },
    {
      "midi": 52,
      "hit": false,
      "t": 16600,
      "d": 160,
      "v": 95
    },
    {
      "midi": 40,
      "hit": false,
      "t": 16600,
      "d": 160,
      "v": 112
    },
    {
      "midi": 45,
      "hit": false,
      "t": 16800,
      "d": 160,
      "v": 120
    },
    {
      "midi": 33,
      "hit": false,
      "t": 16800,
      "d": 160,
      "v": 105
    },
    {
      "midi": 52,
      "hit": false,
      "t": 17000,
      "d": 160,
      "v": 105
    },
    {
      "midi": 40,
      "hit": false,
      "t": 17000,
      "d": 160,
      "v": 110
    },
    {
      "midi": 45,
      "hit": false,
      "t": 17200,
      "d": 160,
      "v": 127
    },
    {
      "midi": 33,
      "hit": false,
      "t": 17200,
      "d": 160,
      "v": 108
    },
    {
      "midi": 52,
      "hit": false,
      "t": 17400,
      "d": 160,
      "v": 105
    },
    {
      "midi": 40,
      "hit": false,
      "t": 17400,
      "d": 160,
      "v": 105
    },
    {
      "midi": 45,
      "hit": false,
      "t": 17600,
      "d": 320,
      "v": 125
    },
    {
      "midi": 33,
      "hit": false,
      "t": 17600,
      "d": 616.6666666666679,
      "v": 127
    },
    {
      "midi": 69,
      "hit": false,
      "t": 18000,
      "d": 2716.666666666668,
      "v": 102
    },
    {
      "midi": 65,
      "hit": false,
      "t": 18000,
      "d": 2741.666666666668,
      "v": 112
    },
    {
      "midi": 77,
      "hit": false,
      "t": 18000,
      "d": 2750,
      "v": 89
    },
    {
      "midi": 72,
      "hit": false,
      "t": 18000,
      "d": 2758.333333333332,
      "v": 87
    },
    {
      "midi": 64,
      "hit": false,
      "t": 18000,
      "d": 2791.6666666666642,
      "v": 105
    },
    {
      "midi": 45,
      "hit": false,
      "t": 18000,
      "d": 50,
      "v": 110
    },
    {
      "midi": 45,
      "hit": false,
      "t": 18400,
      "d": 158.33333333333212,
      "v": 105
    },
    {
      "midi": 45,
      "hit": false,
      "t": 18800,
      "d": 208.33333333333212,
      "v": 107
    },
    {
      "midi": 45,
      "hit": false,
      "t": 19200,
      "d": 320,
      "v": 125
    },
    {
      "midi": 33,
      "hit": false,
      "t": 19200,
      "d": 708.3333333333321,
      "v": 105
    },
    {
      "midi": 45,
      "hit": false,
      "t": 19600,
      "d": 50,
      "v": 106
    },
    {
      "midi": 45,
      "hit": false,
      "t": 20000,
      "d": 150,
      "v": 105
    },
    {
      "midi": 45,
      "hit": false,
      "t": 20400,
      "d": 225,
      "v": 103
    },
    {
      "midi": 69,
      "hit": false,
      "t": 20799.999999999996,
      "d": 216.66666666666788,
      "v": 101
    },
    {
      "midi": 45,
      "hit": false,
      "t": 20800,
      "d": 320,
      "v": 116
    },
    {
      "midi": 64,
      "hit": false,
      "t": 20999.999999999996,
      "d": 50,
      "v": 93
    },
    {
      "midi": 75,
      "hit": false,
      "t": 21199.999999999996,
      "d": 366.6666666666679,
      "v": 105
    },
    {
      "midi": 77,
      "hit": false,
      "t": 21199.999999999996,
      "d": 366.6666666666679,
      "v": 105
    },
    {
      "midi": 67,
      "hit": false,
      "t": 21199.999999999996,
      "d": 383.33333333333576,
      "v": 112
    },
    {
      "midi": 45,
      "hit": false,
      "t": 21200,
      "d": 41.66666666666788,
      "v": 110
    },
    {
      "midi": 62,
      "hit": false,
      "t": 21600,
      "d": 200,
      "v": 114
    },
    {
      "midi": 69,
      "hit": false,
      "t": 21600,
      "d": 225,
      "v": 98
    },
    {
      "midi": 33,
      "hit": false,
      "t": 21600,
      "d": 91.66666666666788,
      "v": 100
    },
    {
      "midi": 45,
      "hit": false,
      "t": 21600,
      "d": 108.33333333333576,
      "v": 105
    },
    {
      "midi": 61,
      "hit": false,
      "t": 21800,
      "d": 33.33333333333212,
      "v": 103
    },
    {
      "midi": 64,
      "hit": false,
      "t": 21800,
      "d": 41.66666666666424,
      "v": 103
    },
    {
      "midi": 72,
      "hit": false,
      "t": 21999.999999999996,
      "d": 375,
      "v": 108
    },
    {
      "midi": 67,
      "hit": false,
      "t": 21999.999999999996,
      "d": 375,
      "v": 124
    },
    {
      "midi": 76,
      "hit": false,
      "t": 21999.999999999996,
      "d": 383.3333333333321,
      "v": 108
    },
    {
      "midi": 45,
      "hit": false,
      "t": 22000.000000000004,
      "d": 191.66666666666788,
      "v": 107
    },
    {
      "midi": 69,
      "hit": false,
      "t": 22399.999999999996,
      "d": 250,
      "v": 124
    },
    {
      "midi": 45,
      "hit": false,
      "t": 22400.000000000004,
      "d": 320,
      "v": 112
    },
    {
      "midi": 64,
      "hit": false,
      "t": 22599.999999999996,
      "d": 33.33333333333212,
      "v": 106
    },
    {
      "midi": 79,
      "hit": false,
      "t": 22799.999999999996,
      "d": 216.66666666666788,
      "v": 114
    },
    {
      "midi": 45,
      "hit": false,
      "t": 22800.000000000004,
      "d": 50,
      "v": 106
    },
    {
      "midi": 77,
      "hit": false,
      "t": 22999.999999999996,
      "d": 25,
      "v": 105
    },
    {
      "midi": 76,
      "hit": false,
      "t": 23199.999999999996,
      "d": 216.66666666666788,
      "v": 110
    },
    {
      "midi": 45,
      "hit": false,
      "t": 23200.000000000004,
      "d": 100,
      "v": 105
    },
    {
      "midi": 33,
      "hit": false,
      "t": 23200.000000000004,
      "d": 125,
      "v": 100
    },
    {
      "midi": 77,
      "hit": false,
      "t": 23399.999999999996,
      "d": 33.33333333333576,
      "v": 101
    },
    {
      "midi": 74,
      "hit": false,
      "t": 23600,
      "d": 508.3333333333321,
      "v": 109
    },
    {
      "midi": 69,
      "hit": false,
      "t": 23600,
      "d": 516.6666666666642,
      "v": 99
    },
    {
      "midi": 45,
      "hit": false,
      "t": 23600.000000000004,
      "d": 200,
      "v": 103
    },
    {
      "midi": 57,
      "hit": false,
      "t": 24000,
      "d": 119.99999999999636,
      "v": 90
    },
    {
      "midi": 45,
      "hit": false,
      "t": 24000.000000000004,
      "d": 320,
      "v": 116
    },
    {
      "midi": 59,
      "hit": false,
      "t": 24100,
      "d": 119.99999999999636,
      "v": 83
    },
    {
      "midi": 60,
      "hit": false,
      "t": 24199.999999999996,
      "d": 120,
      "v": 85
    },
    {
      "midi": 62,
      "hit": false,
      "t": 24299.999999999996,
      "d": 120,
      "v": 101
    },
    {
      "midi": 64,
      "hit": false,
      "t": 24399.999999999996,
      "d": 120,
      "v": 83
    },
    {
      "midi": 45,
      "hit": false,
      "t": 24400.000000000004,
      "d": 41.66666666666788,
      "v": 110
    },
    {
      "midi": 62,
      "hit": false,
      "t": 24499.999999999996,
      "d": 120,
      "v": 88
    },
    {
      "midi": 60,
      "hit": false,
      "t": 24599.999999999996,
      "d": 120,
      "v": 85
    },
    {
      "midi": 59,
      "hit": false,
      "t": 24699.999999999996,
      "d": 120,
      "v": 97
    },
    {
      "midi": 60,
      "hit": false,
      "t": 24799.999999999996,
      "d": 120,
      "v": 96
    },
    {
      "midi": 33,
      "hit": false,
      "t": 24800.000000000004,
      "d": 83.33333333333212,
      "v": 100
    },
    {
      "midi": 45,
      "hit": false,
      "t": 24800.000000000004,
      "d": 108.33333333333212,
      "v": 105
    },
    {
      "midi": 62,
      "hit": false,
      "t": 24899.999999999996,
      "d": 120,
      "v": 100
    },
    {
      "midi": 64,
      "hit": false,
      "t": 24999.999999999996,
      "d": 120,
      "v": 96
    },
    {
      "midi": 65,
      "hit": false,
      "t": 25099.999999999996,
      "d": 120,
      "v": 100
    },
    {
      "midi": 67,
      "hit": false,
      "t": 25199.999999999996,
      "d": 120,
      "v": 100
    },
    {
      "midi": 45,
      "hit": false,
      "t": 25200.000000000004,
      "d": 191.66666666666788,
      "v": 107
    },
    {
      "midi": 65,
      "hit": false,
      "t": 25299.999999999996,
      "d": 120,
      "v": 90
    },
    {
      "midi": 64,
      "hit": false,
      "t": 25399.999999999996,
      "d": 120,
      "v": 96
    },
    {
      "midi": 62,
      "hit": false,
      "t": 25499.999999999996,
      "d": 120,
      "v": 111
    },
    {
      "midi": 64,
      "hit": false,
      "t": 25599.999999999996,
      "d": 120,
      "v": 108
    },
    {
      "midi": 45,
      "hit": false,
      "t": 25600.000000000004,
      "d": 320,
      "v": 112
    },
    {
      "midi": 65,
      "hit": false,
      "t": 25699.999999999996,
      "d": 120,
      "v": 100
    },
    {
      "midi": 67,
      "hit": false,
      "t": 25799.999999999996,
      "d": 120,
      "v": 102
    },
    {
      "midi": 69,
      "hit": false,
      "t": 25899.999999999996,
      "d": 120,
      "v": 107
    },
    {
      "midi": 71,
      "hit": false,
      "t": 25999.999999999996,
      "d": 120,
      "v": 93
    },
    {
      "midi": 45,
      "hit": false,
      "t": 26000.000000000004,
      "d": 50,
      "v": 106
    },
    {
      "midi": 69,
      "hit": false,
      "t": 26099.999999999996,
      "d": 120,
      "v": 99
    },
    {
      "midi": 67,
      "hit": false,
      "t": 26199.999999999996,
      "d": 120,
      "v": 115
    },
    {
      "midi": 65,
      "hit": false,
      "t": 26299.999999999996,
      "d": 120,
      "v": 120
    },
    {
      "midi": 72,
      "hit": false,
      "t": 26399.999999999996,
      "d": 120,
      "v": 99
    },
    {
      "midi": 45,
      "hit": false,
      "t": 26400.000000000004,
      "d": 100,
      "v": 105
    },
    {
      "midi": 33,
      "hit": false,
      "t": 26400.000000000004,
      "d": 108.33333333333212,
      "v": 100
    },
    {
      "midi": 71,
      "hit": false,
      "t": 26499.999999999996,
      "d": 120,
      "v": 99
    },
    {
      "midi": 69,
      "hit": false,
      "t": 26599.999999999996,
      "d": 120,
      "v": 111
    },
    {
      "midi": 67,
      "hit": false,
      "t": 26699.999999999996,
      "d": 120,
      "v": 115
    },
    {
      "midi": 74,
      "hit": false,
      "t": 26799.999999999996,
      "d": 120,
      "v": 111
    },
    {
      "midi": 45,
      "hit": false,
      "t": 26800.000000000004,
      "d": 200,
      "v": 103
    },
    {
      "midi": 72,
      "hit": false,
      "t": 26899.999999999996,
      "d": 120,
      "v": 99
    },
    {
      "midi": 71,
      "hit": false,
      "t": 26999.999999999996,
      "d": 120,
      "v": 115
    },
    {
      "midi": 69,
      "hit": false,
      "t": 27099.999999999996,
      "d": 80,
      "v": 118
    },
    {
      "midi": 69,
      "hit": false,
      "t": 27199.999999999996,
      "d": 320,
      "v": 114
    },
    {
      "midi": 64,
      "hit": false,
      "t": 27199.999999999996,
      "d": 320,
      "v": 108
    },
    {
      "midi": 33,
      "hit": false,
      "t": 27200.000000000004,
      "d": 125,
      "v": 94
    },
    {
      "midi": 45,
      "hit": false,
      "t": 27200.000000000004,
      "d": 316.6666666666679,
      "v": 110
    },
    {
      "midi": 33,
      "hit": false,
      "t": 27400.000000000004,
      "d": 116.66666666666788,
      "v": 94
    },
    {
      "midi": 64,
      "hit": false,
      "t": 27599.999999999996,
      "d": 58.33333333333212,
      "v": 105
    },
    {
      "midi": 76,
      "hit": false,
      "t": 27599.999999999996,
      "d": 66.66666666666424,
      "v": 90
    },
    {
      "midi": 69,
      "hit": false,
      "t": 27599.999999999996,
      "d": 66.66666666666424,
      "v": 114
    },
    {
      "midi": 45,
      "hit": false,
      "t": 27600.000000000004,
      "d": 41.66666666666788,
      "v": 104
    },
    {
      "midi": 62,
      "hit": false,
      "t": 27999.999999999993,
      "d": 160,
      "v": 99
    },
    {
      "midi": 45,
      "hit": false,
      "t": 28000.000000000004,
      "d": 108.33333333333212,
      "v": 99
    },
    {
      "midi": 59,
      "hit": false,
      "t": 28199.999999999993,
      "d": 33.33333333333212,
      "v": 89
    },
    {
      "midi": 60,
      "hit": false,
      "t": 28399.999999999993,
      "d": 160,
      "v": 94
    },
    {
      "midi": 45,
      "hit": false,
      "t": 28400.000000000004,
      "d": 191.66666666666788,
      "v": 101
    },
    {
      "midi": 52,
      "hit": false,
      "t": 28599.999999999993,
      "d": 41.66666666666788,
      "v": 104
    },
    {
      "midi": 57,
      "hit": false,
      "t": 28799.999999999993,
      "d": 160,
      "v": 100
    },
    {
      "midi": 33,
      "hit": false,
      "t": 28800.000000000004,
      "d": 133.33333333333212,
      "v": 94
    },
    {
      "midi": 45,
      "hit": false,
      "t": 28800.000000000004,
      "d": 320,
      "v": 106
    },
    {
      "midi": 64,
      "hit": false,
      "t": 28999.999999999993,
      "d": 41.66666666666788,
      "v": 99
    },
    {
      "midi": 33,
      "hit": false,
      "t": 29000.000000000004,
      "d": 133.33333333333212,
      "v": 94
    },
    {
      "midi": 57,
      "hit": false,
      "t": 29199.999999999993,
      "d": 160,
      "v": 92
    },
    {
      "midi": 45,
      "hit": false,
      "t": 29200.000000000004,
      "d": 33.33333333333212,
      "v": 100
    },
    {
      "midi": 71,
      "hit": false,
      "t": 29399.999999999993,
      "d": 75,
      "v": 84
    },
    {
      "midi": 64,
      "hit": false,
      "t": 29399.999999999993,
      "d": 83.33333333333212,
      "v": 90
    },
    {
      "midi": 64,
      "hit": false,
      "t": 29599.999999999993,
      "d": 80,
      "v": 86
    },
    {
      "midi": 59,
      "hit": false,
      "t": 29599.999999999993,
      "d": 80,
      "v": 82
    },
    {
      "midi": 45,
      "hit": false,
      "t": 29600.000000000004,
      "d": 100,
      "v": 99
    },
    {
      "midi": 65,
      "hit": false,
      "t": 29699.999999999993,
      "d": 80,
      "v": 90
    },
    {
      "midi": 64,
      "hit": false,
      "t": 29799.999999999993,
      "d": 80,
      "v": 92
    },
    {
      "midi": 62,
      "hit": false,
      "t": 29899.999999999993,
      "d": 80,
      "v": 96
    },
    {
      "midi": 64,
      "hit": false,
      "t": 29999.999999999993,
      "d": 208.33333333333212,
      "v": 89
    },
    {
      "midi": 60,
      "hit": false,
      "t": 29999.999999999993,
      "d": 233.33333333333212,
      "v": 89
    },
    {
      "midi": 45,
      "hit": false,
      "t": 30000.000000000004,
      "d": 200,
      "v": 97
    },
    {
      "midi": 52,
      "hit": false,
      "t": 30199.999999999993,
      "d": 50,
      "v": 104
    },
    {
      "midi": 64,
      "hit": false,
      "t": 30399.999999999993,
      "d": 320,
      "v": 108
    },
    {
      "midi": 71,
      "hit": false,
      "t": 30399.999999999993,
      "d": 320,
      "v": 114
    },
    {
      "midi": 33,
      "hit": false,
      "t": 30400.000000000004,
      "d": 133.33333333333212,
      "v": 94
    },
    {
      "midi": 45,
      "hit": false,
      "t": 30400.000000000004,
      "d": 320,
      "v": 110
    },
    {
      "midi": 33,
      "hit": false,
      "t": 30600.000000000004,
      "d": 133.33333333333212,
      "v": 94
    },
    {
      "midi": 64,
      "hit": false,
      "t": 30799.999999999993,
      "d": 58.33333333333212,
      "v": 105
    },
    {
      "midi": 71,
      "hit": false,
      "t": 30799.999999999993,
      "d": 66.66666666666424,
      "v": 114
    },
    {
      "midi": 76,
      "hit": false,
      "t": 30799.999999999993,
      "d": 66.66666666666424,
      "v": 90
    },
    {
      "midi": 45,
      "hit": false,
      "t": 30800.000000000004,
      "d": 33.33333333333212,
      "v": 104
    },
    {
      "midi": 62,
      "hit": false,
      "t": 31199.99999999999,
      "d": 160,
      "v": 99
    },
    {
      "midi": 45,
      "hit": false,
      "t": 31200.000000000004,
      "d": 108.33333333333212,
      "v": 99
    },
    {
      "midi": 59,
      "hit": false,
      "t": 31399.99999999999,
      "d": 33.33333333333212,
      "v": 89
    },
    {
      "midi": 60,
      "hit": false,
      "t": 31599.99999999999,
      "d": 160,
      "v": 94
    },
    {
      "midi": 45,
      "hit": false,
      "t": 31600.000000000004,
      "d": 191.66666666666788,
      "v": 101
    },
    {
      "midi": 52,
      "hit": false,
      "t": 31799.99999999999,
      "d": 41.66666666666788,
      "v": 104
    },
    {
      "midi": 57,
      "hit": false,
      "t": 31999.99999999999,
      "d": 160,
      "v": 100
    },
    {
      "midi": 33,
      "hit": false,
      "t": 32000.000000000004,
      "d": 141.66666666666788,
      "v": 94
    },
    {
      "midi": 45,
      "hit": false,
      "t": 32000.000000000004,
      "d": 320,
      "v": 106
    },
    {
      "midi": 64,
      "hit": false,
      "t": 32199.99999999999,
      "d": 41.66666666666788,
      "v": 99
    },
    {
      "midi": 33,
      "hit": false,
      "t": 32200.000000000004,
      "d": 141.66666666666788,
      "v": 94
    },
    {
      "midi": 57,
      "hit": false,
      "t": 32399.99999999999,
      "d": 160,
      "v": 92
    },
    {
      "midi": 45,
      "hit": false,
      "t": 32400.000000000004,
      "d": 25,
      "v": 100
    },
    {
      "midi": 71,
      "hit": false,
      "t": 32599.99999999999,
      "d": 75,
      "v": 84
    },
    {
      "midi": 64,
      "hit": false,
      "t": 32599.99999999999,
      "d": 83.33333333333212,
      "v": 90
    },
    {
      "midi": 64,
      "hit": false,
      "t": 32799.999999999985,
      "d": 80,
      "v": 86
    },
    {
      "midi": 59,
      "hit": false,
      "t": 32799.999999999985,
      "d": 80,
      "v": 82
    },
    {
      "midi": 45,
      "hit": false,
      "t": 32800,
      "d": 100,
      "v": 99
    },
    {
      "midi": 65,
      "hit": false,
      "t": 32899.999999999985,
      "d": 80,
      "v": 90
    },
    {
      "midi": 64,
      "hit": false,
      "t": 32999.999999999985,
      "d": 80,
      "v": 92
    },
    {
      "midi": 62,
      "hit": false,
      "t": 33099.999999999985,
      "d": 80,
      "v": 96
    },
    {
      "midi": 64,
      "hit": false,
      "t": 33199.999999999985,
      "d": 208.33333333333576,
      "v": 89
    },
    {
      "midi": 60,
      "hit": false,
      "t": 33199.999999999985,
      "d": 233.33333333333576,
      "v": 89
    },
    {
      "midi": 45,
      "hit": false,
      "t": 33200,
      "d": 200,
      "v": 97
    },
    {
      "midi": 52,
      "hit": false,
      "t": 33399.999999999985,
      "d": 50,
      "v": 104
    },
    {
      "midi": 72,
      "hit": false,
      "t": 33599.999999999985,
      "d": 320,
      "v": 114
    },
    {
      "midi": 65,
      "hit": false,
      "t": 33599.999999999985,
      "d": 320,
      "v": 108
    },
    {
      "midi": 33,
      "hit": false,
      "t": 33600,
      "d": 133.33333333333576,
      "v": 94
    },
    {
      "midi": 45,
      "hit": false,
      "t": 33600,
      "d": 320,
      "v": 110
    },
    {
      "midi": 33,
      "hit": false,
      "t": 33800,
      "d": 133.33333333333576,
      "v": 94
    },
    {
      "midi": 65,
      "hit": false,
      "t": 33999.999999999985,
      "d": 58.33333333333576,
      "v": 105
    },
    {
      "midi": 77,
      "hit": false,
      "t": 33999.999999999985,
      "d": 66.66666666667152,
      "v": 90
    },
    {
      "midi": 72,
      "hit": false,
      "t": 33999.999999999985,
      "d": 66.66666666667152,
      "v": 114
    },
    {
      "midi": 45,
      "hit": false,
      "t": 34000,
      "d": 41.66666666666424,
      "v": 104
    },
    {
      "midi": 62,
      "hit": false,
      "t": 34399.99999999999,
      "d": 160,
      "v": 110
    },
    {
      "midi": 45,
      "hit": false,
      "t": 34400,
      "d": 108.33333333333576,
      "v": 99
    },
    {
      "midi": 59,
      "hit": false,
      "t": 34599.99999999999,
      "d": 33.33333333333576,
      "v": 99
    },
    {
      "midi": 60,
      "hit": false,
      "t": 34799.99999999999,
      "d": 160,
      "v": 105
    },
    {
      "midi": 45,
      "hit": false,
      "t": 34800,
      "d": 191.66666666666424,
      "v": 101
    },
    {
      "midi": 52,
      "hit": false,
      "t": 34999.99999999999,
      "d": 41.66666666666424,
      "v": 116
    },
    {
      "midi": 45,
      "hit": false,
      "t": 35200,
      "d": 320,
      "v": 112
    },
    {
      "midi": 33,
      "hit": false,
      "t": 35200,
      "d": 633.3333333333358,
      "v": 100
    },
    {
      "midi": 71,
      "hit": false,
      "t": 35599.99999999999,
      "d": 640,
      "v": 96
    },
    {
      "midi": 67,
      "hit": false,
      "t": 35599.99999999999,
      "d": 640,
      "v": 111
    },
    {
      "midi": 76,
      "hit": false,
      "t": 35599.99999999999,
      "d": 640,
      "v": 103
    },
    {
      "midi": 45,
      "hit": false,
      "t": 35600,
      "d": 50,
      "v": 106
    },
    {
      "midi": 45,
      "hit": false,
      "t": 36000,
      "d": 100,
      "v": 105
    },
    {
      "midi": 69,
      "hit": false,
      "t": 36399.99999999999,
      "d": 320,
      "v": 103
    },
    {
      "midi": 65,
      "hit": false,
      "t": 36399.99999999999,
      "d": 320,
      "v": 107
    },
    {
      "midi": 74,
      "hit": false,
      "t": 36399.99999999999,
      "d": 320,
      "v": 94
    },
    {
      "midi": 45,
      "hit": false,
      "t": 36400,
      "d": 200,
      "v": 89
    },
    {
      "midi": 65,
      "hit": false,
      "t": 36799.99999999999,
      "d": 160,
      "v": 94
    },
    {
      "midi": 74,
      "hit": false,
      "t": 36799.99999999999,
      "d": 160,
      "v": 90
    },
    {
      "midi": 45,
      "hit": false,
      "t": 36800,
      "d": 320,
      "v": 116
    },
    {
      "midi": 33,
      "hit": false,
      "t": 36800,
      "d": 633.3333333333285,
      "v": 100
    },
    {
      "midi": 65,
      "hit": false,
      "t": 36999.99999999999,
      "d": 41.66666666666424,
      "v": 105
    },
    {
      "midi": 74,
      "hit": false,
      "t": 36999.99999999999,
      "d": 41.66666666666424,
      "v": 103
    },
    {
      "midi": 74,
      "hit": false,
      "t": 37199.99999999999,
      "d": 233.33333333333576,
      "v": 100
    },
    {
      "midi": 65,
      "hit": false,
      "t": 37199.99999999999,
      "d": 250,
      "v": 109
    },
    {
      "midi": 45,
      "hit": false,
      "t": 37200,
      "d": 41.66666666666424,
      "v": 110
    },
    {
      "midi": 79,
      "hit": false,
      "t": 37599.99999999999,
      "d": 320,
      "v": 95
    },
    {
      "midi": 71,
      "hit": false,
      "t": 37599.99999999999,
      "d": 320,
      "v": 103
    },
    {
      "midi": 45,
      "hit": false,
      "t": 37599.99999999999,
      "d": 108.33333333333576,
      "v": 105
    },
    {
      "midi": 71,
      "hit": false,
      "t": 37999.99999999999,
      "d": 320,
      "v": 105
    },
    {
      "midi": 67,
      "hit": false,
      "t": 37999.99999999999,
      "d": 320,
      "v": 107
    },
    {
      "midi": 76,
      "hit": false,
      "t": 37999.99999999999,
      "d": 320,
      "v": 103
    },
    {
      "midi": 45,
      "hit": false,
      "t": 37999.99999999999,
      "d": 191.66666666666424,
      "v": 89
    },
    {
      "midi": 69,
      "hit": false,
      "t": 38399.99999999999,
      "d": 320,
      "v": 103
    },
    {
      "midi": 74,
      "hit": false,
      "t": 38399.99999999999,
      "d": 320,
      "v": 88
    },
    {
      "midi": 65,
      "hit": false,
      "t": 38399.99999999999,
      "d": 320,
      "v": 111
    },
    {
      "midi": 45,
      "hit": false,
      "t": 38399.99999999999,
      "d": 320,
      "v": 112
    },
    {
      "midi": 33,
      "hit": false,
      "t": 38399.99999999999,
      "d": 633.3333333333358,
      "v": 100
    },
    {
      "midi": 76,
      "hit": false,
      "t": 38799.99999999999,
      "d": 100,
      "v": 96
    },
    {
      "midi": 45,
      "hit": false,
      "t": 38799.99999999999,
      "d": 50,
      "v": 106
    },
    {
      "midi": 74,
      "hit": false,
      "t": 38899.99999999999,
      "d": 120,
      "v": 105
    },
    {
      "midi": 72,
      "hit": false,
      "t": 38999.99999999999,
      "d": 120,
      "v": 105
    },
    {
      "midi": 71,
      "hit": false,
      "t": 39099.99999999999,
      "d": 120,
      "v": 109
    },
    {
      "midi": 59,
      "hit": false,
      "t": 39199.99999999999,
      "d": 320,
      "v": 90
    },
    {
      "midi": 53,
      "hit": false,
      "t": 39199.99999999999,
      "d": 600,
      "v": 81
    },
    {
      "midi": 52,
      "hit": false,
      "t": 39199.99999999999,
      "d": 608.3333333333358,
      "v": 81
    },
    {
      "midi": 45,
      "hit": false,
      "t": 39199.99999999999,
      "d": 100,
      "v": 105
    },
    {
      "midi": 60,
      "hit": false,
      "t": 39599.99999999999,
      "d": 66.66666666666424,
      "v": 114
    },
    {
      "midi": 45,
      "hit": false,
      "t": 39599.99999999999,
      "d": 200,
      "v": 89
    },
    {
      "midi": 64,
      "hit": false,
      "t": 39999.99999999999,
      "d": 320,
      "v": 111
    },
    {
      "midi": 69,
      "hit": false,
      "t": 39999.99999999999,
      "d": 320,
      "v": 115
    },
    {
      "midi": 60,
      "hit": false,
      "t": 39999.99999999999,
      "d": 320,
      "v": 107
    },
    {
      "midi": 45,
      "hit": false,
      "t": 39999.99999999999,
      "d": 566.6666666666642,
      "v": 111
    },
    {
      "midi": 69,
      "hit": false,
      "t": 40399.99999999999,
      "d": 66.66666666666424,
      "v": 118
    },
    {
      "midi": 60,
      "hit": false,
      "t": 40399.99999999999,
      "d": 66.66666666666424,
      "v": 123
    },
    {
      "midi": 64,
      "hit": false,
      "t": 40399.99999999999,
      "d": 75,
      "v": 123
    },
    {
      "midi": 33,
      "hit": false,
      "t": 40399.99999999999,
      "d": 600,
      "v": 100
    },
    {
      "midi": 65,
      "hit": false,
      "t": 40799.99999999999,
      "d": 160,
      "v": 114
    },
    {
      "midi": 74,
      "hit": false,
      "t": 40799.99999999999,
      "d": 160,
      "v": 103
    },
    {
      "midi": 45,
      "hit": false,
      "t": 40799.99999999999,
      "d": 591.6666666666642,
      "v": 106
    },
    {
      "midi": 62,
      "hit": false,
      "t": 40999.99999999999,
      "d": 160,
      "v": 112
    },
    {
      "midi": 71,
      "hit": false,
      "t": 40999.99999999999,
      "d": 160,
      "v": 101
    },
    {
      "midi": 64,
      "hit": false,
      "t": 41199.99999999999,
      "d": 160,
      "v": 105
    },
    {
      "midi": 72,
      "hit": false,
      "t": 41199.99999999999,
      "d": 160,
      "v": 98
    },
    {
      "midi": 65,
      "hit": false,
      "t": 41399.99999999999,
      "d": 160,
      "v": 117
    },
    {
      "midi": 74,
      "hit": false,
      "t": 41399.99999999999,
      "d": 160,
      "v": 101
    },
    {
      "midi": 57,
      "hit": false,
      "t": 41599.99999999999,
      "d": 160,
      "v": 121
    },
    {
      "midi": 45,
      "hit": false,
      "t": 41599.99999999999,
      "d": 566.6666666666642,
      "v": 120
    },
    {
      "midi": 65,
      "hit": false,
      "t": 41799.99999999999,
      "d": 160,
      "v": 108
    },
    {
      "midi": 64,
      "hit": false,
      "t": 41999.99999999999,
      "d": 160,
      "v": 110
    },
    {
      "midi": 33,
      "hit": false,
      "t": 41999.99999999999,
      "d": 600,
      "v": 100
    },
    {
      "midi": 71,
      "hit": false,
      "t": 42199.99999999999,
      "d": 160,
      "v": 105
    },
    {
      "midi": 74,
      "hit": false,
      "t": 42399.99999999999,
      "d": 80,
      "v": 105
    },
    {
      "midi": 45,
      "hit": false,
      "t": 42399.99999999999,
      "d": 591.6666666666642,
      "v": 112
    },
    {
      "midi": 72,
      "hit": false,
      "t": 42499.99999999999,
      "d": 80,
      "v": 98
    },
    {
      "midi": 71,
      "hit": false,
      "t": 42599.99999999999,
      "d": 160,
      "v": 91
    },
    {
      "midi": 77,
      "hit": false,
      "t": 42799.99999999999,
      "d": 53.33333333333576,
      "v": 103
    },
    {
      "midi": 79,
      "hit": false,
      "t": 42866.666666666664,
      "d": 53.33333333333576,
      "v": 103
    },
    {
      "midi": 77,
      "hit": false,
      "t": 42933.333333333336,
      "d": 53.33333333333576,
      "v": 112
    },
    {
      "midi": 76,
      "hit": false,
      "t": 43000.00000000001,
      "d": 160,
      "v": 101
    },
    {
      "midi": 45,
      "hit": false,
      "t": 43199.99999999999,
      "d": 566.6666666666642,
      "v": 111
    },
    {
      "midi": 62,
      "hit": false,
      "t": 43200.00000000001,
      "d": 320,
      "v": 107
    },
    {
      "midi": 65,
      "hit": false,
      "t": 43200.00000000001,
      "d": 320,
      "v": 111
    },
    {
      "midi": 71,
      "hit": false,
      "t": 43200.00000000001,
      "d": 320,
      "v": 115
    },
    {
      "midi": 33,
      "hit": false,
      "t": 43599.99999999999,
      "d": 600,
      "v": 100
    },
    {
      "midi": 62,
      "hit": false,
      "t": 43600.00000000001,
      "d": 66.66666666666424,
      "v": 123
    },
    {
      "midi": 71,
      "hit": false,
      "t": 43600.00000000001,
      "d": 66.66666666666424,
      "v": 118
    },
    {
      "midi": 65,
      "hit": false,
      "t": 43600.00000000001,
      "d": 75,
      "v": 123
    },
    {
      "midi": 45,
      "hit": false,
      "t": 43999.99999999999,
      "d": 591.6666666666642,
      "v": 105
    },
    {
      "midi": 65,
      "hit": false,
      "t": 44000.00000000001,
      "d": 160,
      "v": 114
    },
    {
      "midi": 74,
      "hit": false,
      "t": 44000.00000000001,
      "d": 160,
      "v": 103
    },
    {
      "midi": 62,
      "hit": false,
      "t": 44200.00000000001,
      "d": 160,
      "v": 112
    },
    {
      "midi": 71,
      "hit": false,
      "t": 44200.00000000001,
      "d": 160,
      "v": 101
    },
    {
      "midi": 64,
      "hit": false,
      "t": 44400.00000000001,
      "d": 160,
      "v": 105
    },
    {
      "midi": 72,
      "hit": false,
      "t": 44400.00000000001,
      "d": 160,
      "v": 98
    },
    {
      "midi": 65,
      "hit": false,
      "t": 44600.00000000001,
      "d": 160,
      "v": 117
    },
    {
      "midi": 74,
      "hit": false,
      "t": 44600.00000000001,
      "d": 160,
      "v": 101
    },
    {
      "midi": 45,
      "hit": false,
      "t": 44799.99999999999,
      "d": 566.6666666666642,
      "v": 121
    },
    {
      "midi": 57,
      "hit": false,
      "t": 44800.00000000001,
      "d": 160,
      "v": 121
    },
    {
      "midi": 65,
      "hit": false,
      "t": 45000.00000000001,
      "d": 160,
      "v": 108
    },
    {
      "midi": 33,
      "hit": false,
      "t": 45199.99999999999,
      "d": 816.6666666666642,
      "v": 110
    },
    {
      "midi": 64,
      "hit": false,
      "t": 45200.00000000001,
      "d": 160,
      "v": 110
    },
    {
      "midi": 71,
      "hit": false,
      "t": 45400.00000000001,
      "d": 160,
      "v": 105
    },
    {
      "midi": 45,
      "hit": false,
      "t": 45599.99999999999,
      "d": 591.6666666666642,
      "v": 112
    },
    {
      "midi": 74,
      "hit": false,
      "t": 45600.00000000001,
      "d": 80,
      "v": 105
    },
    {
      "midi": 72,
      "hit": false,
      "t": 45700.00000000001,
      "d": 80,
      "v": 98
    },
    {
      "midi": 71,
      "hit": false,
      "t": 45800.00000000001,
      "d": 160,
      "v": 91
    },
    {
      "midi": 77,
      "hit": false,
      "t": 46000.00000000001,
      "d": 53.33333333333576,
      "v": 103
    },
    {
      "midi": 79,
      "hit": false,
      "t": 46066.66666666668,
      "d": 53.33333333333576,
      "v": 103
    },
    {
      "midi": 77,
      "hit": false,
      "t": 46133.33333333335,
      "d": 53.33333333333576,
      "v": 112
    },
    {
      "midi": 76,
      "hit": false,
      "t": 46200.00000000002,
      "d": 160,
      "v": 101
    },
    {
      "midi": 45,
      "hit": false,
      "t": 46399.99999999999,
      "d": 308.33333333333576,
      "v": 120
    },
    {
      "midi": 72,
      "hit": false,
      "t": 46400.00000000002,
      "d": 320,
      "v": 115
    },
    {
      "midi": 64,
      "hit": false,
      "t": 46400.00000000002,
      "d": 320,
      "v": 107
    },
    {
      "midi": 65,
      "hit": false,
      "t": 46400.00000000002,
      "d": 320,
      "v": 111
    },
    {
      "midi": 45,
      "hit": false,
      "t": 46799.99999999999,
      "d": 58.33333333333576,
      "v": 111
    },
    {
      "midi": 33,
      "hit": false,
      "t": 46799.99999999999,
      "d": 75,
      "v": 100
    },
    {
      "midi": 72,
      "hit": false,
      "t": 46800.00000000002,
      "d": 66.66666666666424,
      "v": 118
    },
    {
      "midi": 64,
      "hit": false,
      "t": 46800.00000000002,
      "d": 66.66666666666424,
      "v": 123
    },
    {
      "midi": 65,
      "hit": false,
      "t": 46800.00000000002,
      "d": 75,
      "v": 123
    },
    {
      "midi": 45,
      "hit": false,
      "t": 47199.99999999999,
      "d": 141.66666666666424,
      "v": 102
    },
    {
      "midi": 45,
      "hit": false,
      "t": 47399.99999999999,
      "d": 58.33333333333576,
      "v": 100
    },
    {
      "midi": 33,
      "hit": false,
      "t": 47399.99999999999,
      "d": 316.66666666666424,
      "v": 100
    },
    {
      "midi": 45,
      "hit": false,
      "t": 47599.99999999999,
      "d": 191.66666666666424,
      "v": 110
    },
    {
      "midi": 76,
      "hit": false,
      "t": 47600.00000000002,
      "d": 106.66666666666424,
      "v": 107
    },
    {
      "midi": 81,
      "hit": false,
      "t": 47733.33333333335,
      "d": 106.66666666666424,
      "v": 105
    },
    {
      "midi": 83,
      "hit": false,
      "t": 47866.66666666668,
      "d": 106.66666666666424,
      "v": 119
    },
    {
      "midi": 45,
      "hit": false,
      "t": 47999.99999999999,
      "d": 308.33333333333576,
      "v": 120
    },
    {
      "midi": 88,
      "hit": false,
      "t": 48000.00000000001,
      "d": 106.66666666666424,
      "v": 115
    },
    {
      "midi": 81,
      "hit": false,
      "t": 48133.333333333336,
      "d": 106.66666666666424,
      "v": 105
    },
    {
      "midi": 76,
      "hit": false,
      "t": 48266.666666666664,
      "d": 106.66666666666424,
      "v": 82
    },
    {
      "midi": 86,
      "hit": false,
      "t": 48399.99999999999,
      "d": 106.66666666666424,
      "v": 105
    },
    {
      "midi": 45,
      "hit": false,
      "t": 48399.99999999999,
      "d": 58.33333333333576,
      "v": 111
    },
    {
      "midi": 33,
      "hit": false,
      "t": 48399.99999999999,
      "d": 75,
      "v": 100
    },
    {
      "midi": 81,
      "hit": false,
      "t": 48533.33333333332,
      "d": 106.66666666666424,
      "v": 105
    },
    {
      "midi": 76,
      "hit": false,
      "t": 48666.66666666665,
      "d": 106.66666666666424,
      "v": 91
    },
    {
      "midi": 88,
      "hit": false,
      "t": 48799.99999999998,
      "d": 106.66666666666424,
      "v": 112
    },
    {
      "midi": 45,
      "hit": false,
      "t": 48799.99999999999,
      "d": 141.66666666666424,
      "v": 102
    },
    {
      "midi": 81,
      "hit": false,
      "t": 48933.33333333331,
      "d": 106.66666666666424,
      "v": 96
    },
    {
      "midi": 45,
      "hit": false,
      "t": 48999.99999999999,
      "d": 58.33333333333576,
      "v": 100
    },
    {
      "midi": 33,
      "hit": false,
      "t": 48999.99999999999,
      "d": 241.66666666666424,
      "v": 100
    },
    {
      "midi": 76,
      "hit": false,
      "t": 49066.666666666635,
      "d": 106.66666666666424,
      "v": 103
    },
    {
      "midi": 86,
      "hit": false,
      "t": 49199.99999999996,
      "d": 106.66666666666424,
      "v": 107
    },
    {
      "midi": 45,
      "hit": false,
      "t": 49199.99999999999,
      "d": 191.66666666666424,
      "v": 110
    },
    {
      "midi": 81,
      "hit": false,
      "t": 49333.33333333329,
      "d": 106.66666666666424,
      "v": 98
    },
    {
      "midi": 76,
      "hit": false,
      "t": 49466.66666666662,
      "d": 106.66666666666424,
      "v": 91
    },
    {
      "midi": 69,
      "hit": false,
      "t": 49599.99999999995,
      "d": 160,
      "v": 109
    },
    {
      "midi": 74,
      "hit": false,
      "t": 49599.99999999995,
      "d": 160,
      "v": 93
    },
    {
      "midi": 65,
      "hit": false,
      "t": 49599.99999999995,
      "d": 160,
      "v": 109
    },
    {
      "midi": 45,
      "hit": false,
      "t": 49599.99999999999,
      "d": 308.33333333333576,
      "v": 120
    },
    {
      "midi": 69,
      "hit": false,
      "t": 49799.99999999995,
      "d": 50,
      "v": 101
    },
    {
      "midi": 74,
      "hit": false,
      "t": 49799.99999999995,
      "d": 50,
      "v": 88
    },
    {
      "midi": 65,
      "hit": false,
      "t": 49799.99999999995,
      "d": 58.33333333333576,
      "v": 95
    },
    {
      "midi": 69,
      "hit": false,
      "t": 49999.99999999995,
      "d": 225,
      "v": 107
    },
    {
      "midi": 65,
      "hit": false,
      "t": 49999.99999999995,
      "d": 225,
      "v": 117
    },
    {
      "midi": 74,
      "hit": false,
      "t": 49999.99999999995,
      "d": 225,
      "v": 105
    },
    {
      "midi": 45,
      "hit": false,
      "t": 49999.99999999999,
      "d": 58.33333333333576,
      "v": 111
    },
    {
      "midi": 33,
      "hit": false,
      "t": 49999.99999999999,
      "d": 66.66666666667152,
      "v": 100
    },
    {
      "midi": 45,
      "hit": false,
      "t": 50400,
      "d": 141.66666666666424,
      "v": 121
    },
    {
      "midi": 45,
      "hit": false,
      "t": 50600,
      "d": 58.33333333333576,
      "v": 108
    },
    {
      "midi": 33,
      "hit": false,
      "t": 50600,
      "d": 141.66666666667152,
      "v": 108
    },
    {
      "midi": 33,
      "hit": false,
      "t": 50800.00000000001,
      "d": 316.66666666666424,
      "v": 110
    },
    {
      "midi": 45,
      "hit": false,
      "t": 50800.00000000001,
      "d": 333.3333333333285,
      "v": 110
    },
    {
      "midi": 76,
      "hit": false,
      "t": 51199.99999999995,
      "d": 80,
      "v": 103
    },
    {
      "midi": 45,
      "hit": false,
      "t": 51200,
      "d": 308.33333333333576,
      "v": 120
    },
    {
      "midi": 77,
      "hit": false,
      "t": 51299.99999999995,
      "d": 80,
      "v": 110
    },
    {
      "midi": 79,
      "hit": false,
      "t": 51399.99999999995,
      "d": 80,
      "v": 110
    },
    {
      "midi": 81,
      "hit": false,
      "t": 51499.99999999995,
      "d": 80,
      "v": 112
    },
    {
      "midi": 83,
      "hit": false,
      "t": 51599.99999999995,
      "d": 320,
      "v": 115
    },
    {
      "midi": 45,
      "hit": false,
      "t": 51600,
      "d": 58.33333333333576,
      "v": 111
    },
    {
      "midi": 33,
      "hit": false,
      "t": 51600,
      "d": 66.66666666667152,
      "v": 100
    },
    {
      "midi": 69,
      "hit": false,
      "t": 51999.99999999995,
      "d": 320,
      "v": 99
    },
    {
      "midi": 65,
      "hit": false,
      "t": 51999.99999999995,
      "d": 320,
      "v": 95
    },
    {
      "midi": 45,
      "hit": false,
      "t": 52000.00000000001,
      "d": 141.66666666666424,
      "v": 102
    },
    {
      "midi": 45,
      "hit": false,
      "t": 52200.00000000001,
      "d": 58.33333333333576,
      "v": 100
    },
    {
      "midi": 33,
      "hit": false,
      "t": 52200.00000000001,
      "d": 333.33333333333576,
      "v": 100
    },
    {
      "midi": 70,
      "hit": false,
      "t": 52399.99999999995,
      "d": 320,
      "v": 100
    },
    {
      "midi": 66,
      "hit": false,
      "t": 52399.99999999995,
      "d": 320,
      "v": 110
    },
    {
      "midi": 45,
      "hit": false,
      "t": 52400.00000000001,
      "d": 266.66666666666424,
      "v": 98
    },
    {
      "midi": 33,
      "hit": false,
      "t": 52600.00000000001,
      "d": 125,
      "v": 100
    },
    {
      "midi": 62,
      "hit": false,
      "t": 52791.66666666661,
      "d": 488.33333333333576,
      "v": 100
    },
    {
      "midi": 69,
      "hit": false,
      "t": 52794.16666666661,
      "d": 469.16666666666424,
      "v": 80
    },
    {
      "midi": 65,
      "hit": false,
      "t": 52796.66666666661,
      "d": 475,
      "v": 88
    },
    {
      "midi": 50,
      "hit": false,
      "t": 52800.00000000001,
      "d": 308.33333333333576,
      "v": 115
    },
    {
      "midi": 38,
      "hit": false,
      "t": 52800.00000000001,
      "d": 1291.6666666666642,
      "v": 99
    },
    {
      "midi": 50,
      "hit": false,
      "t": 53200.00000000001,
      "d": 50,
      "v": 106
    },
    {
      "midi": 69,
      "hit": false,
      "t": 53581.66666666661,
      "d": 604.1666666666642,
      "v": 101
    },
    {
      "midi": 62,
      "hit": false,
      "t": 53584.16666666661,
      "d": 530.8333333333285,
      "v": 115
    },
    {
      "midi": 65,
      "hit": false,
      "t": 53585.83333333328,
      "d": 559.1666666666642,
      "v": 110
    },
    {
      "midi": 50,
      "hit": false,
      "t": 53600.00000000001,
      "d": 233.33333333333576,
      "v": 110
    },
    {
      "midi": 50,
      "hit": false,
      "t": 54000.00000000001,
      "d": 50,
      "v": 107
    },
    {
      "midi": 50,
      "hit": false,
      "t": 54200.00000000001,
      "d": 58.33333333333576,
      "v": 100
    },
    {
      "midi": 62,
      "hit": false,
      "t": 54378.33333333328,
      "d": 583.3333333333285,
      "v": 98
    },
    {
      "midi": 64,
      "hit": false,
      "t": 54379.99999999994,
      "d": 588.3333333333285,
      "v": 94
    },
    {
      "midi": 67,
      "hit": false,
      "t": 54382.49999999994,
      "d": 619.1666666666642,
      "v": 92
    },
    {
      "midi": 50,
      "hit": false,
      "t": 54400.00000000001,
      "d": 308.33333333333576,
      "v": 108
    },
    {
      "midi": 38,
      "hit": false,
      "t": 54400.00000000001,
      "d": 1283.3333333333358,
      "v": 99
    },
    {
      "midi": 50,
      "hit": false,
      "t": 54800.00000000001,
      "d": 50,
      "v": 100
    },
    {
      "midi": 62,
      "hit": false,
      "t": 55194.166666666606,
      "d": 458.33333333333576,
      "v": 110
    },
    {
      "midi": 69,
      "hit": false,
      "t": 55196.666666666606,
      "d": 470.83333333333576,
      "v": 101
    },
    {
      "midi": 65,
      "hit": false,
      "t": 55199.166666666606,
      "d": 475,
      "v": 104
    },
    {
      "midi": 50,
      "hit": false,
      "t": 55200.00000000001,
      "d": 233.33333333333576,
      "v": 103
    },
    {
      "midi": 50,
      "hit": false,
      "t": 55600.00000000001,
      "d": 50,
      "v": 108
    },
    {
      "midi": 50,
      "hit": false,
      "t": 55800.00000000001,
      "d": 58.33333333333576,
      "v": 100
    },
    {
      "midi": 67,
      "hit": false,
      "t": 55986.666666666606,
      "d": 481.66666666666424,
      "v": 96
    },
    {
      "midi": 62,
      "hit": false,
      "t": 55988.33333333327,
      "d": 446.66666666666424,
      "v": 96
    },
    {
      "midi": 70,
      "hit": false,
      "t": 55990.83333333327,
      "d": 567.5,
      "v": 76
    },
    {
      "midi": 50,
      "hit": false,
      "t": 56000.00000000001,
      "d": 308.33333333333576,
      "v": 115
    },
    {
      "midi": 38,
      "hit": false,
      "t": 56000.00000000001,
      "d": 1283.3333333333358,
      "v": 99
    },
    {
      "midi": 50,
      "hit": false,
      "t": 56400.00000000001,
      "d": 50,
      "v": 106
    },
    {
      "midi": 70,
      "hit": false,
      "t": 56789.166666666606,
      "d": 533.3333333333358,
      "v": 72
    },
    {
      "midi": 62,
      "hit": false,
      "t": 56791.666666666606,
      "d": 483.33333333333576,
      "v": 106
    },
    {
      "midi": 67,
      "hit": false,
      "t": 56794.166666666606,
      "d": 508.33333333333576,
      "v": 98
    },
    {
      "midi": 50,
      "hit": false,
      "t": 56800.00000000001,
      "d": 233.33333333333576,
      "v": 110
    },
    {
      "midi": 50,
      "hit": false,
      "t": 57200.00000000001,
      "d": 50,
      "v": 107
    },
    {
      "midi": 50,
      "hit": false,
      "t": 57400.00000000001,
      "d": 58.33333333333576,
      "v": 100
    },
    {
      "midi": 62,
      "hit": false,
      "t": 57587.49999999994,
      "d": 552.5,
      "v": 98
    },
    {
      "midi": 64,
      "hit": false,
      "t": 57593.33333333328,
      "d": 558.3333333333285,
      "v": 87
    },
    {
      "midi": 67,
      "hit": false,
      "t": 57595.83333333328,
      "d": 602.4999999999927,
      "v": 90
    },
    {
      "midi": 50,
      "hit": false,
      "t": 57600.00000000001,
      "d": 308.33333333333576,
      "v": 117
    },
    {
      "midi": 38,
      "hit": false,
      "t": 57600.00000000001,
      "d": 1291.6666666666642,
      "v": 99
    },
    {
      "midi": 50,
      "hit": false,
      "t": 58000.00000000001,
      "d": 50,
      "v": 100
    },
    {
      "midi": 69,
      "hit": false,
      "t": 58395.83333333327,
      "d": 468.33333333333576,
      "v": 98
    },
    {
      "midi": 62,
      "hit": false,
      "t": 58398.33333333327,
      "d": 421.6666666666715,
      "v": 110
    },
    {
      "midi": 50,
      "hit": false,
      "t": 58400.00000000001,
      "d": 233.33333333333576,
      "v": 103
    },
    {
      "midi": 65,
      "hit": false,
      "t": 58404.166666666606,
      "d": 432.5,
      "v": 104
    },
    {
      "midi": 50,
      "hit": false,
      "t": 58800.00000000001,
      "d": 50,
      "v": 108
    },
    {
      "midi": 50,
      "hit": false,
      "t": 59000.00000000001,
      "d": 58.33333333333576,
      "v": 100
    },
    {
      "midi": 67,
      "hit": false,
      "t": 59194.166666666606,
      "d": 524.9999999999927,
      "v": 98
    },
    {
      "midi": 70,
      "hit": false,
      "t": 59196.666666666606,
      "d": 494.9999999999927,
      "v": 81
    },
    {
      "midi": 62,
      "hit": false,
      "t": 59198.33333333327,
      "d": 491.66666666666424,
      "v": 98
    },
    {
      "midi": 50,
      "hit": false,
      "t": 59200.00000000001,
      "d": 308.33333333333576,
      "v": 115
    },
    {
      "midi": 38,
      "hit": false,
      "t": 59200.00000000001,
      "d": 1291.6666666666642,
      "v": 99
    },
    {
      "midi": 50,
      "hit": false,
      "t": 59600.00000000001,
      "d": 50,
      "v": 106
    },
    {
      "midi": 62,
      "hit": false,
      "t": 59985.83333333326,
      "d": 475,
      "v": 98
    },
    {
      "midi": 69,
      "hit": false,
      "t": 59988.33333333326,
      "d": 475,
      "v": 92
    },
    {
      "midi": 65,
      "hit": false,
      "t": 59989.99999999993,
      "d": 475,
      "v": 96
    },
    {
      "midi": 50,
      "hit": false,
      "t": 60000.00000000001,
      "d": 233.33333333333576,
      "v": 110
    },
    {
      "midi": 50,
      "hit": false,
      "t": 60400.00000000001,
      "d": 50,
      "v": 107
    },
    {
      "midi": 50,
      "hit": false,
      "t": 60600.00000000001,
      "d": 58.33333333333576,
      "v": 100
    },
    {
      "midi": 72,
      "hit": false,
      "t": 60782.49999999993,
      "d": 504.16666666666424,
      "v": 85
    },
    {
      "midi": 62,
      "hit": false,
      "t": 60784.99999999993,
      "d": 470,
      "v": 106
    },
    {
      "midi": 69,
      "hit": false,
      "t": 60786.66666666659,
      "d": 475,
      "v": 96
    },
    {
      "midi": 50,
      "hit": false,
      "t": 60800.00000000001,
      "d": 308.33333333333576,
      "v": 108
    },
    {
      "midi": 38,
      "hit": false,
      "t": 60800.00000000001,
      "d": 1291.6666666666642,
      "v": 99
    },
    {
      "midi": 50,
      "hit": false,
      "t": 61200.00000000001,
      "d": 50,
      "v": 100
    },
    {
      "midi": 67,
      "hit": false,
      "t": 61584.99999999993,
      "d": 475,
      "v": 90
    },
    {
      "midi": 62,
      "hit": false,
      "t": 61586.66666666659,
      "d": 466.6666666666715,
      "v": 90
    },
    {
      "midi": 70,
      "hit": false,
      "t": 61589.16666666659,
      "d": 430.83333333333576,
      "v": 81
    },
    {
      "midi": 50,
      "hit": false,
      "t": 61600.00000000001,
      "d": 233.33333333333576,
      "v": 103
    },
    {
      "midi": 50,
      "hit": false,
      "t": 62000.00000000001,
      "d": 50,
      "v": 108
    },
    {
      "midi": 50,
      "hit": false,
      "t": 62200.00000000001,
      "d": 58.33333333333576,
      "v": 100
    },
    {
      "midi": 69,
      "hit": false,
      "t": 62382.49999999993,
      "d": 497.5,
      "v": 94
    },
    {
      "midi": 62,
      "hit": false,
      "t": 62384.99999999993,
      "d": 525,
      "v": 106
    },
    {
      "midi": 65,
      "hit": false,
      "t": 62387.49999999993,
      "d": 467.5,
      "v": 94
    },
    {
      "midi": 50,
      "hit": false,
      "t": 62400.00000000001,
      "d": 308.33333333333576,
      "v": 115
    },
    {
      "midi": 38,
      "hit": false,
      "t": 62400.00000000001,
      "d": 1291.6666666666642,
      "v": 99
    },
    {
      "midi": 50,
      "hit": false,
      "t": 62800.00000000001,
      "d": 50,
      "v": 106
    },
    {
      "midi": 62,
      "hit": false,
      "t": 63189.99999999993,
      "d": 458.33333333333576,
      "v": 101
    },
    {
      "midi": 70,
      "hit": false,
      "t": 63192.49999999993,
      "d": 440,
      "v": 79
    },
    {
      "midi": 67,
      "hit": false,
      "t": 63194.99999999993,
      "d": 491.6666666666715,
      "v": 94
    },
    {
      "midi": 50,
      "hit": false,
      "t": 63200.00000000001,
      "d": 233.33333333333576,
      "v": 110
    },
    {
      "midi": 50,
      "hit": false,
      "t": 63600.00000000001,
      "d": 50,
      "v": 107
    },
    {
      "midi": 50,
      "hit": false,
      "t": 63800.00000000001,
      "d": 58.33333333333576,
      "v": 100
    },
    {
      "midi": 62,
      "hit": false,
      "t": 63988.33333333326,
      "d": 525,
      "v": 104
    },
    {
      "midi": 64,
      "hit": false,
      "t": 63990.83333333326,
      "d": 482.5,
      "v": 92
    },
    {
      "midi": 67,
      "hit": false,
      "t": 63993.33333333326,
      "d": 529.1666666666642,
      "v": 92
    },
    {
      "midi": 50,
      "hit": false,
      "t": 64000.00000000001,
      "d": 308.33333333333576,
      "v": 117
    },
    {
      "midi": 38,
      "hit": false,
      "t": 64000.00000000001,
      "d": 1291.6666666666642,
      "v": 99
    },
    {
      "midi": 50,
      "hit": false,
      "t": 64400.00000000001,
      "d": 50,
      "v": 100
    },
    {
      "midi": 50,
      "hit": false,
      "t": 64800.00000000001,
      "d": 233.33333333333576,
      "v": 103
    },
    {
      "midi": 69,
      "hit": false,
      "t": 64810.83333333326,
      "d": 241.66666666666424,
      "v": 98
    },
    {
      "midi": 62,
      "hit": false,
      "t": 64813.33333333326,
      "d": 166.66666666666424,
      "v": 113
    },
    {
      "midi": 65,
      "hit": false,
      "t": 64814.99999999993,
      "d": 208.33333333333576,
      "v": 96
    },
    {
      "midi": 50,
      "hit": false,
      "t": 65200.00000000001,
      "d": 50,
      "v": 108
    },
    {
      "midi": 69,
      "hit": false,
      "t": 65207.49999999993,
      "d": 150,
      "v": 104
    },
    {
      "midi": 62,
      "hit": false,
      "t": 65209.99999999993,
      "d": 133.33333333333576,
      "v": 115
    },
    {
      "midi": 65,
      "hit": false,
      "t": 65212.49999999993,
      "d": 133.33333333333576,
      "v": 113
    },
    {
      "midi": 50,
      "hit": false,
      "t": 65400.00000000001,
      "d": 58.33333333333576,
      "v": 100
    },
    {
      "midi": 62,
      "hit": false,
      "t": 65599.99999999993,
      "d": 160,
      "v": 97
    },
    {
      "midi": 50,
      "hit": false,
      "t": 65600.00000000001,
      "d": 716.6666666666715,
      "v": 115
    },
    {
      "midi": 38,
      "hit": false,
      "t": 65600.00000000001,
      "d": 758.333333333343,
      "v": 105
    },
    {
      "midi": 65,
      "hit": false,
      "t": 65799.99999999993,
      "d": 41.66666666667152,
      "v": 84
    },
    {
      "midi": 69,
      "hit": false,
      "t": 65799.99999999993,
      "d": 50,
      "v": 84
    },
    {
      "midi": 65,
      "hit": false,
      "t": 65999.99999999993,
      "d": 150,
      "v": 94
    },
    {
      "midi": 69,
      "hit": false,
      "t": 65999.99999999993,
      "d": 158.33333333332848,
      "v": 88
    },
    {
      "midi": 70,
      "hit": false,
      "t": 66199.99999999993,
      "d": 91.66666666667152,
      "v": 73
    },
    {
      "midi": 67,
      "hit": false,
      "t": 66199.99999999993,
      "d": 91.66666666667152,
      "v": 90
    },
    {
      "midi": 67,
      "hit": false,
      "t": 66399.99999999993,
      "d": 160,
      "v": 78
    },
    {
      "midi": 64,
      "hit": false,
      "t": 66399.99999999993,
      "d": 160,
      "v": 86
    },
    {
      "midi": 67,
      "hit": false,
      "t": 66599.99999999993,
      "d": 50,
      "v": 73
    },
    {
      "midi": 64,
      "hit": false,
      "t": 66599.99999999993,
      "d": 58.33333333332848,
      "v": 73
    },
    {
      "midi": 69,
      "hit": false,
      "t": 66799.99999999993,
      "d": 160,
      "v": 86
    },
    {
      "midi": 65,
      "hit": false,
      "t": 66799.99999999993,
      "d": 160,
      "v": 86
    },
    {
      "midi": 50,
      "hit": false,
      "t": 66800.00000000003,
      "d": 191.66666666667152,
      "v": 110
    },
    {
      "midi": 38,
      "hit": false,
      "t": 66800.00000000003,
      "d": 216.66666666667152,
      "v": 100
    },
    {
      "midi": 69,
      "hit": false,
      "t": 66999.99999999993,
      "d": 33.33333333332848,
      "v": 86
    },
    {
      "midi": 65,
      "hit": false,
      "t": 66999.99999999993,
      "d": 33.33333333332848,
      "v": 90
    },
    {
      "midi": 69,
      "hit": false,
      "t": 67099.99999999993,
      "d": 33.33333333332848,
      "v": 80
    },
    {
      "midi": 65,
      "hit": false,
      "t": 67199.99999999993,
      "d": 160,
      "v": 105
    },
    {
      "midi": 53,
      "hit": false,
      "t": 67200.00000000003,
      "d": 716.6666666666715,
      "v": 115
    },
    {
      "midi": 41,
      "hit": false,
      "t": 67200.00000000003,
      "d": 758.333333333343,
      "v": 105
    },
    {
      "midi": 72,
      "hit": false,
      "t": 67399.99999999993,
      "d": 33.33333333332848,
      "v": 94
    },
    {
      "midi": 68,
      "hit": false,
      "t": 67399.99999999993,
      "d": 41.666666666656965,
      "v": 87
    },
    {
      "midi": 72,
      "hit": false,
      "t": 67599.99999999991,
      "d": 160,
      "v": 98
    },
    {
      "midi": 68,
      "hit": false,
      "t": 67599.99999999991,
      "d": 160,
      "v": 87
    },
    {
      "midi": 70,
      "hit": false,
      "t": 67799.99999999991,
      "d": 33.33333333332848,
      "v": 78
    },
    {
      "midi": 73,
      "hit": false,
      "t": 67799.99999999991,
      "d": 41.666666666656965,
      "v": 82
    },
    {
      "midi": 70,
      "hit": false,
      "t": 67999.9999999999,
      "d": 160,
      "v": 75
    },
    {
      "midi": 67,
      "hit": false,
      "t": 67999.9999999999,
      "d": 160,
      "v": 94
    },
    {
      "midi": 67,
      "hit": false,
      "t": 68199.9999999999,
      "d": 41.66666666667152,
      "v": 89
    },
    {
      "midi": 70,
      "hit": false,
      "t": 68199.9999999999,
      "d": 50,
      "v": 79
    },
    {
      "midi": 72,
      "hit": false,
      "t": 68399.9999999999,
      "d": 160,
      "v": 94
    },
    {
      "midi": 68,
      "hit": false,
      "t": 68399.9999999999,
      "d": 160,
      "v": 87
    },
    {
      "midi": 41,
      "hit": false,
      "t": 68400.00000000004,
      "d": 216.66666666667152,
      "v": 109
    },
    {
      "midi": 68,
      "hit": false,
      "t": 68599.9999999999,
      "d": 25,
      "v": 85
    },
    {
      "midi": 72,
      "hit": false,
      "t": 68599.9999999999,
      "d": 33.33333333332848,
      "v": 98
    },
    {
      "midi": 48,
      "hit": false,
      "t": 68600.00000000004,
      "d": 216.66666666667152,
      "v": 113
    },
    {
      "midi": 68,
      "hit": false,
      "t": 68799.9999999999,
      "d": 183.33333333332848,
      "v": 100
    },
    {
      "midi": 63,
      "hit": false,
      "t": 68799.9999999999,
      "d": 183.33333333332848,
      "v": 100
    },
    {
      "midi": 32,
      "hit": false,
      "t": 68800.00000000004,
      "d": 191.66666666667152,
      "v": 100
    },
    {
      "midi": 44,
      "hit": false,
      "t": 68800.00000000004,
      "d": 308.33333333334303,
      "v": 112
    },
    {
      "midi": 68,
      "hit": false,
      "t": 69199.9999999999,
      "d": 333.3333333333285,
      "v": 97
    },
    {
      "midi": 63,
      "hit": false,
      "t": 69199.9999999999,
      "d": 350,
      "v": 107
    },
    {
      "midi": 44,
      "hit": false,
      "t": 69200.00000000006,
      "d": 66.66666666667152,
      "v": 98
    },
    {
      "midi": 80,
      "hit": false,
      "t": 69599.9999999999,
      "d": 183.33333333332848,
      "v": 97
    },
    {
      "midi": 75,
      "hit": false,
      "t": 69599.9999999999,
      "d": 200,
      "v": 92
    },
    {
      "midi": 44,
      "hit": false,
      "t": 69600.00000000006,
      "d": 183.33333333332848,
      "v": 101
    },
    {
      "midi": 80,
      "hit": false,
      "t": 69999.9999999999,
      "d": 308.3333333333285,
      "v": 92
    },
    {
      "midi": 75,
      "hit": false,
      "t": 69999.9999999999,
      "d": 308.3333333333285,
      "v": 87
    },
    {
      "midi": 32,
      "hit": false,
      "t": 70000.00000000006,
      "d": 191.66666666667152,
      "v": 100
    },
    {
      "midi": 44,
      "hit": false,
      "t": 70000.00000000006,
      "d": 275,
      "v": 106
    },
    {
      "midi": 70,
      "hit": false,
      "t": 70399.9999999999,
      "d": 183.33333333332848,
      "v": 97
    },
    {
      "midi": 64,
      "hit": false,
      "t": 70399.9999999999,
      "d": 191.66666666665697,
      "v": 102
    },
    {
      "midi": 32,
      "hit": false,
      "t": 70400.00000000006,
      "d": 191.66666666667152,
      "v": 100
    },
    {
      "midi": 44,
      "hit": false,
      "t": 70400.00000000006,
      "d": 308.33333333334303,
      "v": 115
    },
    {
      "midi": 64,
      "hit": false,
      "t": 70799.99999999988,
      "d": 325,
      "v": 112
    },
    {
      "midi": 70,
      "hit": false,
      "t": 70799.99999999988,
      "d": 350,
      "v": 97
    },
    {
      "midi": 44,
      "hit": false,
      "t": 70800.00000000007,
      "d": 66.66666666667152,
      "v": 104
    },
    {
      "midi": 76,
      "hit": false,
      "t": 71199.99999999988,
      "d": 200,
      "v": 85
    },
    {
      "midi": 82,
      "hit": false,
      "t": 71199.99999999988,
      "d": 208.33333333332848,
      "v": 97
    },
    {
      "midi": 44,
      "hit": false,
      "t": 71200.00000000007,
      "d": 183.33333333332848,
      "v": 95
    },
    {
      "midi": 82,
      "hit": false,
      "t": 71599.99999999988,
      "d": 316.6666666666715,
      "v": 92
    },
    {
      "midi": 76,
      "hit": false,
      "t": 71599.99999999988,
      "d": 325,
      "v": 92
    },
    {
      "midi": 32,
      "hit": false,
      "t": 71600.00000000007,
      "d": 191.66666666667152,
      "v": 95
    },
    {
      "midi": 44,
      "hit": false,
      "t": 71600.00000000007,
      "d": 275,
      "v": 95
    },
    {
      "midi": 71,
      "hit": false,
      "t": 71999.99999999988,
      "d": 160,
      "v": 98
    },
    {
      "midi": 68,
      "hit": false,
      "t": 71999.99999999988,
      "d": 160,
      "v": 98
    },
    {
      "midi": 63,
      "hit": false,
      "t": 71999.99999999988,
      "d": 160,
      "v": 107
    },
    {
      "midi": 32,
      "hit": false,
      "t": 72000.00000000007,
      "d": 191.66666666667152,
      "v": 100
    },
    {
      "midi": 44,
      "hit": false,
      "t": 72000.00000000007,
      "d": 308.33333333334303,
      "v": 112
    },
    {
      "midi": 71,
      "hit": false,
      "t": 72199.99999999988,
      "d": 41.66666666667152,
      "v": 97
    },
    {
      "midi": 68,
      "hit": false,
      "t": 72199.99999999988,
      "d": 41.66666666667152,
      "v": 101
    },
    {
      "midi": 63,
      "hit": false,
      "t": 72199.99999999988,
      "d": 58.333333333343035,
      "v": 104
    },
    {
      "midi": 71,
      "hit": false,
      "t": 72399.9999999999,
      "d": 320,
      "v": 98
    },
    {
      "midi": 68,
      "hit": false,
      "t": 72399.9999999999,
      "d": 320,
      "v": 103
    },
    {
      "midi": 63,
      "hit": false,
      "t": 72399.9999999999,
      "d": 320,
      "v": 113
    },
    {
      "midi": 44,
      "hit": false,
      "t": 72400.00000000009,
      "d": 66.66666666667152,
      "v": 98
    },
    {
      "midi": 83,
      "hit": false,
      "t": 72799.9999999999,
      "d": 91.66666666667152,
      "v": 113
    },
    {
      "midi": 80,
      "hit": false,
      "t": 72799.9999999999,
      "d": 108.33333333334303,
      "v": 103
    },
    {
      "midi": 75,
      "hit": false,
      "t": 72799.9999999999,
      "d": 116.66666666667152,
      "v": 107
    },
    {
      "midi": 44,
      "hit": false,
      "t": 72800.00000000009,
      "d": 183.33333333332848,
      "v": 101
    },
    {
      "midi": 83,
      "hit": false,
      "t": 73199.9999999999,
      "d": 320,
      "v": 101
    },
    {
      "midi": 80,
      "hit": false,
      "t": 73199.9999999999,
      "d": 320,
      "v": 103
    },
    {
      "midi": 75,
      "hit": false,
      "t": 73199.9999999999,
      "d": 320,
      "v": 98
    },
    {
      "midi": 32,
      "hit": false,
      "t": 73200.00000000009,
      "d": 191.66666666667152,
      "v": 100
    },
    {
      "midi": 44,
      "hit": false,
      "t": 73200.00000000009,
      "d": 275,
      "v": 106
    },
    {
      "midi": 70,
      "hit": false,
      "t": 73599.9999999999,
      "d": 160,
      "v": 97
    },
    {
      "midi": 73,
      "hit": false,
      "t": 73599.9999999999,
      "d": 160,
      "v": 92
    },
    {
      "midi": 63,
      "hit": false,
      "t": 73599.9999999999,
      "d": 160,
      "v": 103
    },
    {
      "midi": 32,
      "hit": false,
      "t": 73600.00000000009,
      "d": 191.66666666667152,
      "v": 100
    },
    {
      "midi": 44,
      "hit": false,
      "t": 73600.00000000009,
      "d": 308.33333333334303,
      "v": 115
    },
    {
      "midi": 63,
      "hit": false,
      "t": 73799.9999999999,
      "d": 58.33333333332848,
      "v": 113
    },
    {
      "midi": 70,
      "hit": false,
      "t": 73799.9999999999,
      "d": 58.33333333332848,
      "v": 107
    },
    {
      "midi": 73,
      "hit": false,
      "t": 73799.9999999999,
      "d": 66.66666666665697,
      "v": 101
    },
    {
      "midi": 63,
      "hit": false,
      "t": 73999.99999999988,
      "d": 233.33333333332848,
      "v": 127
    },
    {
      "midi": 70,
      "hit": false,
      "t": 73999.99999999988,
      "d": 241.66666666665697,
      "v": 103
    },
    {
      "midi": 73,
      "hit": false,
      "t": 73999.99999999988,
      "d": 241.66666666665697,
      "v": 101
    },
    {
      "midi": 44,
      "hit": false,
      "t": 74000.0000000001,
      "d": 66.66666666667152,
      "v": 104
    },
    {
      "midi": 85,
      "hit": false,
      "t": 74399.99999999987,
      "d": 183.33333333332848,
      "v": 107
    },
    {
      "midi": 82,
      "hit": false,
      "t": 74399.99999999987,
      "d": 208.33333333332848,
      "v": 103
    },
    {
      "midi": 75,
      "hit": false,
      "t": 74399.99999999987,
      "d": 216.66666666665697,
      "v": 110
    },
    {
      "midi": 44,
      "hit": false,
      "t": 74400.0000000001,
      "d": 183.33333333332848,
      "v": 95
    },
    {
      "midi": 82,
      "hit": false,
      "t": 74799.99999999985,
      "d": 320,
      "v": 110
    },
    {
      "midi": 85,
      "hit": false,
      "t": 74799.99999999985,
      "d": 320,
      "v": 113
    },
    {
      "midi": 75,
      "hit": false,
      "t": 74799.99999999985,
      "d": 320,
      "v": 127
    },
    {
      "midi": 32,
      "hit": false,
      "t": 74800.0000000001,
      "d": 191.66666666667152,
      "v": 95
    },
    {
      "midi": 44,
      "hit": false,
      "t": 74800.0000000001,
      "d": 275,
      "v": 95
    },
    {
      "midi": 70,
      "hit": false,
      "t": 75199.99999999985,
      "d": 160,
      "v": 102
    },
    {
      "midi": 39,
      "hit": false,
      "t": 75200.0000000001,
      "d": 716.6666666666715,
      "v": 110
    },
    {
      "midi": 78,
      "hit": false,
      "t": 75399.99999999985,
      "d": 160,
      "v": 93
    },
    {
      "midi": 27,
      "hit": false,
      "t": 75400.0000000001,
      "d": 558.333333333343,
      "v": 86
    },
    {
      "midi": 82,
      "hit": false,
      "t": 75599.99999999985,
      "d": 160,
      "v": 95
    },
    {
      "midi": 78,
      "hit": false,
      "t": 75799.99999999985,
      "d": 160,
      "v": 92
    },
    {
      "midi": 70,
      "hit": false,
      "t": 75999.99999999985,
      "d": 160,
      "v": 91
    },
    {
      "midi": 46,
      "hit": false,
      "t": 76000.00000000012,
      "d": 750,
      "v": 110
    },
    {
      "midi": 78,
      "hit": false,
      "t": 76199.99999999985,
      "d": 160,
      "v": 86
    },
    {
      "midi": 34,
      "hit": false,
      "t": 76200.00000000012,
      "d": 558.3333333333285,
      "v": 92
    },
    {
      "midi": 82,
      "hit": false,
      "t": 76399.99999999985,
      "d": 160,
      "v": 86
    },
    {
      "midi": 78,
      "hit": false,
      "t": 76599.99999999985,
      "d": 160,
      "v": 89
    },
    {
      "midi": 70,
      "hit": false,
      "t": 76799.99999999985,
      "d": 160,
      "v": 100
    },
    {
      "midi": 47,
      "hit": false,
      "t": 76800.00000000012,
      "d": 708.333333333343,
      "v": 108
    },
    {
      "midi": 78,
      "hit": false,
      "t": 76999.99999999985,
      "d": 160,
      "v": 85
    },
    {
      "midi": 35,
      "hit": false,
      "t": 77000.00000000012,
      "d": 333.3333333333285,
      "v": 86
    },
    {
      "midi": 82,
      "hit": false,
      "t": 77199.99999999985,
      "d": 160,
      "v": 86
    },
    {
      "midi": 78,
      "hit": false,
      "t": 77399.99999999985,
      "d": 160,
      "v": 89
    },
    {
      "midi": 35,
      "hit": false,
      "t": 77400.00000000012,
      "d": 66.66666666667152,
      "v": 92
    },
    {
      "midi": 70,
      "hit": false,
      "t": 77599.99999999985,
      "d": 160,
      "v": 105
    },
    {
      "midi": 46,
      "hit": false,
      "t": 77600.00000000013,
      "d": 741.6666666666715,
      "v": 103
    },
    {
      "midi": 78,
      "hit": false,
      "t": 77799.99999999985,
      "d": 160,
      "v": 85
    },
    {
      "midi": 34,
      "hit": false,
      "t": 77800.00000000013,
      "d": 550,
      "v": 86
    },
    {
      "midi": 82,
      "hit": false,
      "t": 77999.99999999985,
      "d": 160,
      "v": 85
    },
    {
      "midi": 78,
      "hit": false,
      "t": 78199.99999999985,
      "d": 160,
      "v": 88
    },
    {
      "midi": 72,
      "hit": false,
      "t": 78399.99999999985,
      "d": 160,
      "v": 89
    },
    {
      "midi": 45,
      "hit": false,
      "t": 78400.00000000013,
      "d": 966.666666666657,
      "v": 106
    },
    {
      "midi": 77,
      "hit": false,
      "t": 78599.99999999985,
      "d": 160,
      "v": 98
    },
    {
      "midi": 33,
      "hit": false,
      "t": 78600.00000000013,
      "d": 758.3333333333285,
      "v": 92
    },
    {
      "midi": 81,
      "hit": false,
      "t": 78799.99999999985,
      "d": 160,
      "v": 106
    },
    {
      "midi": 77,
      "hit": false,
      "t": 78999.99999999985,
      "d": 160,
      "v": 96
    },
    {
      "midi": 72,
      "hit": false,
      "t": 79199.99999999985,
      "d": 160,
      "v": 101
    },
    {
      "midi": 77,
      "hit": false,
      "t": 79399.99999999985,
      "d": 160,
      "v": 93
    },
    {
      "midi": 81,
      "hit": false,
      "t": 79599.99999999985,
      "d": 160,
      "v": 98
    },
    {
      "midi": 41,
      "hit": false,
      "t": 79600.00000000012,
      "d": 133.33333333332848,
      "v": 100
    },
    {
      "midi": 53,
      "hit": false,
      "t": 79633.33333333344,
      "d": 150,
      "v": 100
    },
    {
      "midi": 77,
      "hit": false,
      "t": 79799.99999999985,
      "d": 160,
      "v": 91
    },
    {
      "midi": 72,
      "hit": false,
      "t": 79999.99999999985,
      "d": 160,
      "v": 98
    },
    {
      "midi": 39,
      "hit": false,
      "t": 80000.00000000012,
      "d": 1408.3333333333285,
      "v": 100
    },
    {
      "midi": 51,
      "hit": false,
      "t": 80000.00000000012,
      "d": 1450,
      "v": 110
    },
    {
      "midi": 77,
      "hit": false,
      "t": 80199.99999999985,
      "d": 160,
      "v": 91
    },
    {
      "midi": 81,
      "hit": false,
      "t": 80399.99999999985,
      "d": 160,
      "v": 93
    },
    {
      "midi": 77,
      "hit": false,
      "t": 80599.99999999985,
      "d": 160,
      "v": 98
    },
    {
      "midi": 72,
      "hit": false,
      "t": 80799.99999999985,
      "d": 160,
      "v": 104
    },
    {
      "midi": 77,
      "hit": false,
      "t": 80999.99999999985,
      "d": 160,
      "v": 87
    },
    {
      "midi": 81,
      "hit": false,
      "t": 81199.99999999985,
      "d": 160,
      "v": 104
    },
    {
      "midi": 77,
      "hit": false,
      "t": 81399.99999999985,
      "d": 160,
      "v": 91
    },
    {
      "midi": 71,
      "hit": false,
      "t": 81599.99999999985,
      "d": 160,
      "v": 91
    },
    {
      "midi": 44,
      "hit": false,
      "t": 81600.00000000012,
      "d": 225,
      "v": 100
    },
    {
      "midi": 56,
      "hit": false,
      "t": 81633.33333333344,
      "d": 216.66666666667152,
      "v": 100
    },
    {
      "midi": 80,
      "hit": false,
      "t": 81799.99999999985,
      "d": 160,
      "v": 91
    },
    {
      "midi": 83,
      "hit": false,
      "t": 81999.99999999985,
      "d": 160,
      "v": 104
    },
    {
      "midi": 42,
      "hit": false,
      "t": 82000.00000000012,
      "d": 58.33333333332848,
      "v": 95
    },
    {
      "midi": 54,
      "hit": false,
      "t": 82033.33333333344,
      "d": 83.33333333332848,
      "v": 103
    },
    {
      "midi": 80,
      "hit": false,
      "t": 82199.99999999985,
      "d": 160,
      "v": 89
    },
    {
      "midi": 71,
      "hit": false,
      "t": 82399.99999999985,
      "d": 160,
      "v": 87
    },
    {
      "midi": 35,
      "hit": false,
      "t": 82400.0000000001,
      "d": 141.66666666667152,
      "v": 103
    },
    {
      "midi": 47,
      "hit": false,
      "t": 82400.0000000001,
      "d": 1133.3333333333285,
      "v": 110
    },
    {
      "midi": 80,
      "hit": false,
      "t": 82599.99999999985,
      "d": 160,
      "v": 81
    },
    {
      "midi": 35,
      "hit": false,
      "t": 82600.0000000001,
      "d": 333.3333333333285,
      "v": 92
    },
    {
      "midi": 83,
      "hit": false,
      "t": 82799.99999999985,
      "d": 160,
      "v": 104
    },
    {
      "midi": 80,
      "hit": false,
      "t": 82999.99999999985,
      "d": 160,
      "v": 83
    },
    {
      "midi": 35,
      "hit": false,
      "t": 83000.0000000001,
      "d": 150,
      "v": 100
    },
    {
      "midi": 71,
      "hit": false,
      "t": 83199.99999999985,
      "d": 160,
      "v": 93
    },
    {
      "midi": 35,
      "hit": false,
      "t": 83200.0000000001,
      "d": 758.333333333343,
      "v": 95
    },
    {
      "midi": 80,
      "hit": false,
      "t": 83399.99999999985,
      "d": 160,
      "v": 88
    },
    {
      "midi": 83,
      "hit": false,
      "t": 83599.99999999985,
      "d": 160,
      "v": 98
    },
    {
      "midi": 37,
      "hit": false,
      "t": 83600.0000000001,
      "d": 291.6666666666715,
      "v": 92
    },
    {
      "midi": 49,
      "hit": false,
      "t": 83600.0000000001,
      "d": 316.6666666666715,
      "v": 112
    },
    {
      "midi": 80,
      "hit": false,
      "t": 83799.99999999985,
      "d": 160,
      "v": 85
    },
    {
      "midi": 71,
      "hit": false,
      "t": 83999.99999999985,
      "d": 160,
      "v": 98
    },
    {
      "midi": 50,
      "hit": false,
      "t": 84000.00000000012,
      "d": 83.33333333332848,
      "v": 110
    },
    {
      "midi": 38,
      "hit": false,
      "t": 84000.00000000012,
      "d": 91.66666666665697,
      "v": 103
    },
    {
      "midi": 78,
      "hit": false,
      "t": 84199.99999999985,
      "d": 160,
      "v": 89
    },
    {
      "midi": 83,
      "hit": false,
      "t": 84399.99999999985,
      "d": 160,
      "v": 98
    },
    {
      "midi": 54,
      "hit": false,
      "t": 84400.0000000001,
      "d": 166.66666666667152,
      "v": 108
    },
    {
      "midi": 42,
      "hit": false,
      "t": 84400.0000000001,
      "d": 183.33333333334303,
      "v": 100
    },
    {
      "midi": 78,
      "hit": false,
      "t": 84599.99999999985,
      "d": 166.66666666667152,
      "v": 98
    },
    {
      "midi": 71,
      "hit": false,
      "t": 84799.99999999985,
      "d": 160,
      "v": 101
    },
    {
      "midi": 49,
      "hit": false,
      "t": 84800.00000000012,
      "d": 233.33333333332848,
      "v": 108
    },
    {
      "midi": 61,
      "hit": false,
      "t": 84833.33333333344,
      "d": 258.3333333333285,
      "v": 100
    },
    {
      "midi": 78,
      "hit": false,
      "t": 84999.99999999985,
      "d": 160,
      "v": 91
    },
    {
      "midi": 83,
      "hit": false,
      "t": 85199.99999999985,
      "d": 160,
      "v": 114
    },
    {
      "midi": 47,
      "hit": false,
      "t": 85200.0000000001,
      "d": 75,
      "v": 99
    },
    {
      "midi": 59,
      "hit": false,
      "t": 85233.33333333343,
      "d": 75,
      "v": 103
    },
    {
      "midi": 78,
      "hit": false,
      "t": 85399.99999999985,
      "d": 160,
      "v": 98
    },
    {
      "midi": 78,
      "hit": false,
      "t": 85599.99999999985,
      "d": 160,
      "v": 98
    },
    {
      "midi": 38,
      "hit": false,
      "t": 85600.0000000001,
      "d": 183.33333333332848,
      "v": 112
    },
    {
      "midi": 50,
      "hit": false,
      "t": 85600.0000000001,
      "d": 1158.3333333333285,
      "v": 100
    },
    {
      "midi": 78,
      "hit": false,
      "t": 85799.99999999985,
      "d": 160,
      "v": 91
    },
    {
      "midi": 38,
      "hit": false,
      "t": 85800.0000000001,
      "d": 350,
      "v": 105
    },
    {
      "midi": 78,
      "hit": false,
      "t": 85999.99999999985,
      "d": 160,
      "v": 98
    },
    {
      "midi": 78,
      "hit": false,
      "t": 86199.99999999985,
      "d": 160,
      "v": 106
    },
    {
      "midi": 38,
      "hit": false,
      "t": 86200.0000000001,
      "d": 191.66666666667152,
      "v": 99
    },
    {
      "midi": 78,
      "hit": false,
      "t": 86399.99999999985,
      "d": 160,
      "v": 109
    },
    {
      "midi": 38,
      "hit": false,
      "t": 86400.0000000001,
      "d": 366.66666666665697,
      "v": 102
    },
    {
      "midi": 78,
      "hit": false,
      "t": 86599.99999999985,
      "d": 160,
      "v": 111
    },
    {
      "midi": 76,
      "hit": false,
      "t": 86799.99999999985,
      "d": 106.66666666667152,
      "v": 96
    },
    {
      "midi": 24,
      "hit": false,
      "t": 86800.00000000009,
      "d": 250,
      "v": 90
    },
    {
      "midi": 48,
      "hit": false,
      "t": 86800.00000000009,
      "d": 250,
      "v": 118
    },
    {
      "midi": 36,
      "hit": false,
      "t": 86800.00000000009,
      "d": 291.6666666666715,
      "v": 110
    },
    {
      "midi": 76,
      "hit": false,
      "t": 86933.3333333332,
      "d": 106.66666666667152,
      "v": 89
    },
    {
      "midi": 76,
      "hit": false,
      "t": 87066.66666666654,
      "d": 106.66666666667152,
      "v": 124
    },
    {
      "midi": 78,
      "hit": false,
      "t": 87199.99999999988,
      "d": 106.66666666667152,
      "v": 119
    },
    {
      "midi": 23,
      "hit": false,
      "t": 87200.00000000009,
      "d": 58.33333333332848,
      "v": 90
    },
    {
      "midi": 35,
      "hit": false,
      "t": 87200.00000000009,
      "d": 58.33333333332848,
      "v": 113
    },
    {
      "midi": 47,
      "hit": false,
      "t": 87200.00000000009,
      "d": 75,
      "v": 113
    },
    {
      "midi": 78,
      "hit": false,
      "t": 87333.33333333323,
      "d": 106.66666666667152,
      "v": 89
    },
    {
      "midi": 78,
      "hit": false,
      "t": 87466.66666666657,
      "d": 106.66666666667152,
      "v": 114
    },
    {
      "midi": 79,
      "hit": false,
      "t": 87599.99999999991,
      "d": 106.66666666667152,
      "v": 101
    },
    {
      "midi": 76,
      "hit": false,
      "t": 87599.99999999991,
      "d": 106.66666666667152,
      "v": 101
    },
    {
      "midi": 57,
      "hit": false,
      "t": 87600.00000000009,
      "d": 175,
      "v": 110
    },
    {
      "midi": 33,
      "hit": false,
      "t": 87600.00000000009,
      "d": 183.33333333332848,
      "v": 118
    },
    {
      "midi": 45,
      "hit": false,
      "t": 87600.00000000009,
      "d": 183.33333333332848,
      "v": 123
    },
    {
      "midi": 79,
      "hit": false,
      "t": 87733.33333333326,
      "d": 106.66666666667152,
      "v": 93
    },
    {
      "midi": 76,
      "hit": false,
      "t": 87733.33333333326,
      "d": 106.66666666667152,
      "v": 89
    },
    {
      "midi": 79,
      "hit": false,
      "t": 87866.6666666666,
      "d": 106.66666666667152,
      "v": 119
    },
    {
      "midi": 76,
      "hit": false,
      "t": 87866.6666666666,
      "d": 106.66666666667152,
      "v": 111
    },
    {
      "midi": 61,
      "hit": false,
      "t": 87999.99999999994,
      "d": 614.1666666666715,
      "v": 98
    },
    {
      "midi": 42,
      "hit": false,
      "t": 88000.00000000009,
      "d": 566.666666666657,
      "v": 120
    },
    {
      "midi": 69,
      "hit": false,
      "t": 88022.49999999994,
      "d": 536.6666666666715,
      "v": 106
    },
    {
      "midi": 73,
      "hit": false,
      "t": 88023.33333333327,
      "d": 516.6666666666715,
      "v": 94
    },
    {
      "midi": 30,
      "hit": false,
      "t": 88400.00000000009,
      "d": 83.33333333332848,
      "v": 105
    },
    {
      "midi": 61,
      "hit": false,
      "t": 88799.99999999994,
      "d": 580,
      "v": 90
    },
    {
      "midi": 42,
      "hit": false,
      "t": 88800.00000000007,
      "d": 566.6666666666715,
      "v": 121
    },
    {
      "midi": 73,
      "hit": false,
      "t": 88815.83333333327,
      "d": 556.6666666666715,
      "v": 106
    },
    {
      "midi": 69,
      "hit": false,
      "t": 88818.33333333327,
      "d": 491.6666666666715,
      "v": 110
    },
    {
      "midi": 30,
      "hit": false,
      "t": 89200.00000000007,
      "d": 75,
      "v": 103
    },
    {
      "midi": 59,
      "hit": false,
      "t": 89593.33333333327,
      "d": 579.166666666657,
      "v": 92
    },
    {
      "midi": 42,
      "hit": false,
      "t": 89600.00000000007,
      "d": 558.3333333333285,
      "v": 120
    },
    {
      "midi": 68,
      "hit": false,
      "t": 89604.1666666666,
      "d": 510,
      "v": 100
    },
    {
      "midi": 71,
      "hit": false,
      "t": 89608.33333333327,
      "d": 549.166666666657,
      "v": 96
    },
    {
      "midi": 30,
      "hit": false,
      "t": 90000.00000000007,
      "d": 83.33333333332848,
      "v": 99
    },
    {
      "midi": 61,
      "hit": false,
      "t": 90388.33333333326,
      "d": 618.3333333333285,
      "v": 96
    },
    {
      "midi": 69,
      "hit": false,
      "t": 90391.66666666658,
      "d": 546.6666666666715,
      "v": 110
    },
    {
      "midi": 73,
      "hit": false,
      "t": 90394.16666666658,
      "d": 566.6666666666715,
      "v": 89
    },
    {
      "midi": 42,
      "hit": false,
      "t": 90400.00000000007,
      "d": 575,
      "v": 121
    },
    {
      "midi": 30,
      "hit": false,
      "t": 90800.00000000007,
      "d": 75,
      "v": 105
    },
    {
      "midi": 30,
      "hit": false,
      "t": 91000.00000000007,
      "d": 58.33333333332848,
      "v": 92
    },
    {
      "midi": 62,
      "hit": false,
      "t": 91184.16666666658,
      "d": 530,
      "v": 98
    },
    {
      "midi": 71,
      "hit": false,
      "t": 91191.66666666658,
      "d": 520,
      "v": 100
    },
    {
      "midi": 74,
      "hit": false,
      "t": 91193.33333333326,
      "d": 529.166666666657,
      "v": 98
    },
    {
      "midi": 42,
      "hit": false,
      "t": 91200.00000000007,
      "d": 566.666666666657,
      "v": 120
    },
    {
      "midi": 30,
      "hit": false,
      "t": 91600.00000000007,
      "d": 83.33333333332848,
      "v": 105
    },
    {
      "midi": 62,
      "hit": false,
      "t": 91999.99999999991,
      "d": 553.3333333333285,
      "v": 105
    },
    {
      "midi": 74,
      "hit": false,
      "t": 91999.99999999991,
      "d": 583.3333333333285,
      "v": 98
    },
    {
      "midi": 71,
      "hit": false,
      "t": 91999.99999999991,
      "d": 591.666666666657,
      "v": 100
    },
    {
      "midi": 42,
      "hit": false,
      "t": 92000.00000000006,
      "d": 566.6666666666715,
      "v": 121
    },
    {
      "midi": 30,
      "hit": false,
      "t": 92400.00000000006,
      "d": 75,
      "v": 103
    },
    {
      "midi": 59,
      "hit": false,
      "t": 92795.83333333324,
      "d": 554.9999999999854,
      "v": 102
    },
    {
      "midi": 42,
      "hit": false,
      "t": 92800.00000000006,
      "d": 558.3333333333285,
      "v": 120
    },
    {
      "midi": 68,
      "hit": false,
      "t": 92804.16666666657,
      "d": 444.16666666665697,
      "v": 89
    },
    {
      "midi": 71,
      "hit": false,
      "t": 92804.9999999999,
      "d": 483.3333333333285,
      "v": 96
    },
    {
      "midi": 30,
      "hit": false,
      "t": 93200.00000000006,
      "d": 83.33333333332848,
      "v": 99
    },
    {
      "midi": 61,
      "hit": false,
      "t": 93579.9999999999,
      "d": 515,
      "v": 100
    },
    {
      "midi": 73,
      "hit": false,
      "t": 93587.4999999999,
      "d": 502.5,
      "v": 94
    },
    {
      "midi": 69,
      "hit": false,
      "t": 93589.9999999999,
      "d": 490,
      "v": 106
    },
    {
      "midi": 42,
      "hit": false,
      "t": 93600.00000000006,
      "d": 575,
      "v": 121
    },
    {
      "midi": 30,
      "hit": false,
      "t": 94000.00000000006,
      "d": 75,
      "v": 105
    },
    {
      "midi": 30,
      "hit": false,
      "t": 94200.00000000006,
      "d": 58.33333333332848,
      "v": 92
    },
    {
      "midi": 42,
      "hit": false,
      "t": 94400.00000000006,
      "d": 583.3333333333285,
      "v": 114
    },
    {
      "midi": 69,
      "hit": false,
      "t": 94799.9999999999,
      "d": 133.33333333332848,
      "v": 107
    },
    {
      "midi": 73,
      "hit": false,
      "t": 94799.9999999999,
      "d": 141.66666666665697,
      "v": 86
    },
    {
      "midi": 78,
      "hit": false,
      "t": 94799.9999999999,
      "d": 141.66666666665697,
      "v": 83
    },
    {
      "midi": 30,
      "hit": false,
      "t": 94800.00000000006,
      "d": 75,
      "v": 100
    },
    {
      "midi": 67,
      "hit": false,
      "t": 95199.99999999988,
      "d": 208.33333333332848,
      "v": 110
    },
    {
      "midi": 50,
      "hit": false,
      "t": 95200.00000000006,
      "d": 250,
      "v": 111
    },
    {
      "midi": 38,
      "hit": false,
      "t": 95200.00000000006,
      "d": 258.3333333333285,
      "v": 100
    },
    {
      "midi": 69,
      "hit": false,
      "t": 95399.99999999988,
      "d": 100,
      "v": 107
    },
    {
      "midi": 71,
      "hit": false,
      "t": 95599.99999999988,
      "d": 166.66666666667152,
      "v": 100
    },
    {
      "midi": 40,
      "hit": false,
      "t": 95600.00000000006,
      "d": 66.66666666667152,
      "v": 100
    },
    {
      "midi": 52,
      "hit": false,
      "t": 95600.00000000006,
      "d": 75,
      "v": 105
    },
    {
      "midi": 73,
      "hit": false,
      "t": 95799.99999999988,
      "d": 83.33333333332848,
      "v": 98
    },
    {
      "midi": 78,
      "hit": false,
      "t": 95999.99999999988,
      "d": 133.33333333332848,
      "v": 88
    },
    {
      "midi": 73,
      "hit": false,
      "t": 95999.99999999988,
      "d": 141.66666666665697,
      "v": 86
    },
    {
      "midi": 69,
      "hit": false,
      "t": 95999.99999999988,
      "d": 158.33333333332848,
      "v": 98
    },
    {
      "midi": 74,
      "hit": false,
      "t": 96399.99999999988,
      "d": 158.33333333332848,
      "v": 91
    },
    {
      "midi": 43,
      "hit": false,
      "t": 96400.00000000006,
      "d": 1208.3333333333285,
      "v": 100
    },
    {
      "midi": 31,
      "hit": false,
      "t": 96400.00000000006,
      "d": 1208.3333333333285,
      "v": 105
    },
    {
      "midi": 73,
      "hit": false,
      "t": 96599.99999999988,
      "d": 175,
      "v": 88
    },
    {
      "midi": 76,
      "hit": false,
      "t": 96799.99999999988,
      "d": 183.33333333332848,
      "v": 98
    },
    {
      "midi": 78,
      "hit": false,
      "t": 96999.99999999988,
      "d": 91.66666666667152,
      "v": 100
    },
    {
      "midi": 80,
      "hit": false,
      "t": 97199.99999999988,
      "d": 183.33333333332848,
      "v": 103
    },
    {
      "midi": 81,
      "hit": false,
      "t": 97399.99999999988,
      "d": 91.66666666667152,
      "v": 117
    },
    {
      "midi": 70,
      "hit": false,
      "t": 97599.99999999988,
      "d": 320,
      "v": 79
    },
    {
      "midi": 66,
      "hit": false,
      "t": 97599.99999999988,
      "d": 320,
      "v": 103
    },
    {
      "midi": 75,
      "hit": false,
      "t": 97599.99999999988,
      "d": 320,
      "v": 80
    },
    {
      "midi": 51,
      "hit": false,
      "t": 97600.00000000006,
      "d": 158.33333333332848,
      "v": 83
    },
    {
      "midi": 39,
      "hit": false,
      "t": 97600.00000000006,
      "d": 591.6666666666715,
      "v": 86
    },
    {
      "midi": 51,
      "hit": false,
      "t": 97800.00000000006,
      "d": 63.33333333332848,
      "v": 103
    },
    {
      "midi": 70,
      "hit": false,
      "t": 97999.99999999988,
      "d": 75,
      "v": 86
    },
    {
      "midi": 75,
      "hit": false,
      "t": 97999.99999999988,
      "d": 83.33333333332848,
      "v": 83
    },
    {
      "midi": 66,
      "hit": false,
      "t": 97999.99999999988,
      "d": 83.33333333332848,
      "v": 95
    },
    {
      "midi": 53,
      "hit": false,
      "t": 98000.00000000006,
      "d": 160,
      "v": 88
    },
    {
      "midi": 51,
      "hit": false,
      "t": 98200.00000000006,
      "d": 63.33333333332848,
      "v": 95
    },
    {
      "midi": 54,
      "hit": false,
      "t": 98400.00000000006,
      "d": 160,
      "v": 88
    },
    {
      "midi": 51,
      "hit": false,
      "t": 98600.00000000006,
      "d": 63.33333333332848,
      "v": 88
    },
    {
      "midi": 56,
      "hit": false,
      "t": 98800.00000000006,
      "d": 160,
      "v": 88
    },
    {
      "midi": 51,
      "hit": false,
      "t": 99000.00000000006,
      "d": 63.33333333332848,
      "v": 91
    },
    {
      "midi": 66,
      "hit": false,
      "t": 99199.99999999988,
      "d": 320,
      "v": 88
    },
    {
      "midi": 73,
      "hit": false,
      "t": 99199.99999999988,
      "d": 320,
      "v": 82
    },
    {
      "midi": 63,
      "hit": false,
      "t": 99199.99999999988,
      "d": 320,
      "v": 95
    },
    {
      "midi": 51,
      "hit": false,
      "t": 99200.00000000006,
      "d": 166.66666666667152,
      "v": 98
    },
    {
      "midi": 39,
      "hit": false,
      "t": 99200.00000000006,
      "d": 591.6666666666715,
      "v": 83
    },
    {
      "midi": 51,
      "hit": false,
      "t": 99400.00000000006,
      "d": 63.33333333332848,
      "v": 83
    },
    {
      "midi": 63,
      "hit": false,
      "t": 99599.99999999988,
      "d": 66.66666666667152,
      "v": 95
    },
    {
      "midi": 66,
      "hit": false,
      "t": 99599.99999999988,
      "d": 75,
      "v": 93
    },
    {
      "midi": 73,
      "hit": false,
      "t": 99599.99999999988,
      "d": 75,
      "v": 91
    },
    {
      "midi": 53,
      "hit": false,
      "t": 99600.00000000006,
      "d": 160,
      "v": 93
    },
    {
      "midi": 51,
      "hit": false,
      "t": 99800.00000000006,
      "d": 63.33333333332848,
      "v": 95
    },
    {
      "midi": 54,
      "hit": false,
      "t": 100000.00000000006,
      "d": 160,
      "v": 88
    },
    {
      "midi": 51,
      "hit": false,
      "t": 100200.00000000006,
      "d": 63.33333333332848,
      "v": 95
    },
    {
      "midi": 56,
      "hit": false,
      "t": 100400.00000000006,
      "d": 160,
      "v": 110
    },
    {
      "midi": 51,
      "hit": false,
      "t": 100600.00000000006,
      "d": 63.33333333332848,
      "v": 95
    },
    {
      "midi": 66,
      "hit": false,
      "t": 100799.99999999988,
      "d": 320,
      "v": 91
    },
    {
      "midi": 63,
      "hit": false,
      "t": 100799.99999999988,
      "d": 320,
      "v": 88
    },
    {
      "midi": 71,
      "hit": false,
      "t": 100799.99999999988,
      "d": 320,
      "v": 98
    },
    {
      "midi": 51,
      "hit": false,
      "t": 100800.00000000006,
      "d": 166.66666666667152,
      "v": 88
    },
    {
      "midi": 39,
      "hit": false,
      "t": 100800.00000000006,
      "d": 600,
      "v": 82
    },
    {
      "midi": 51,
      "hit": false,
      "t": 101000.00000000006,
      "d": 63.33333333332848,
      "v": 91
    },
    {
      "midi": 66,
      "hit": false,
      "t": 101199.99999999988,
      "d": 75,
      "v": 95
    },
    {
      "midi": 71,
      "hit": false,
      "t": 101199.99999999988,
      "d": 75,
      "v": 86
    },
    {
      "midi": 63,
      "hit": false,
      "t": 101199.99999999988,
      "d": 75,
      "v": 79
    },
    {
      "midi": 53,
      "hit": false,
      "t": 101200.00000000006,
      "d": 160,
      "v": 83
    },
    {
      "midi": 51,
      "hit": false,
      "t": 101400.00000000006,
      "d": 63.33333333332848,
      "v": 95
    },
    {
      "midi": 54,
      "hit": false,
      "t": 101600.00000000006,
      "d": 160,
      "v": 98
    },
    {
      "midi": 51,
      "hit": false,
      "t": 101800.00000000006,
      "d": 63.33333333332848,
      "v": 91
    },
    {
      "midi": 56,
      "hit": false,
      "t": 102000.00000000006,
      "d": 160,
      "v": 98
    },
    {
      "midi": 51,
      "hit": false,
      "t": 102200.00000000006,
      "d": 63.33333333332848,
      "v": 91
    },
    {
      "midi": 70,
      "hit": false,
      "t": 102399.99999999988,
      "d": 150,
      "v": 83
    },
    {
      "midi": 66,
      "hit": false,
      "t": 102399.99999999988,
      "d": 158.33333333332848,
      "v": 91
    },
    {
      "midi": 63,
      "hit": false,
      "t": 102399.99999999988,
      "d": 158.33333333332848,
      "v": 93
    },
    {
      "midi": 51,
      "hit": false,
      "t": 102400.00000000006,
      "d": 166.66666666667152,
      "v": 86
    },
    {
      "midi": 39,
      "hit": false,
      "t": 102400.00000000006,
      "d": 600,
      "v": 83
    },
    {
      "midi": 63,
      "hit": false,
      "t": 102599.99999999988,
      "d": 116.66666666667152,
      "v": 81
    },
    {
      "midi": 70,
      "hit": false,
      "t": 102599.99999999988,
      "d": 116.66666666667152,
      "v": 80
    },
    {
      "midi": 66,
      "hit": false,
      "t": 102599.99999999988,
      "d": 125,
      "v": 90
    },
    {
      "midi": 51,
      "hit": false,
      "t": 102600.00000000006,
      "d": 63.33333333332848,
      "v": 93
    },
    {
      "midi": 66,
      "hit": false,
      "t": 102799.99999999988,
      "d": 66.66666666667152,
      "v": 90
    },
    {
      "midi": 70,
      "hit": false,
      "t": 102799.99999999988,
      "d": 66.66666666667152,
      "v": 90
    },
    {
      "midi": 63,
      "hit": false,
      "t": 102799.99999999988,
      "d": 75,
      "v": 98
    },
    {
      "midi": 53,
      "hit": false,
      "t": 102800.00000000006,
      "d": 160,
      "v": 105
    },
    {
      "midi": 51,
      "hit": false,
      "t": 103000.00000000006,
      "d": 63.33333333332848,
      "v": 91
    },
    {
      "midi": 54,
      "hit": false,
      "t": 103200.00000000006,
      "d": 160,
      "v": 88
    },
    {
      "midi": 51,
      "hit": false,
      "t": 103400.00000000006,
      "d": 63.33333333332848,
      "v": 88
    },
    {
      "midi": 56,
      "hit": false,
      "t": 103600.00000000006,
      "d": 160,
      "v": 100
    },
    {
      "midi": 51,
      "hit": false,
      "t": 103800.00000000006,
      "d": 63.33333333332848,
      "v": 91
    },
    {
      "midi": 82,
      "hit": false,
      "t": 103999.99999999988,
      "d": 320,
      "v": 94
    },
    {
      "midi": 87,
      "hit": false,
      "t": 103999.99999999988,
      "d": 320,
      "v": 91
    },
    {
      "midi": 78,
      "hit": false,
      "t": 103999.99999999988,
      "d": 320,
      "v": 93
    },
    {
      "midi": 51,
      "hit": false,
      "t": 104000.00000000006,
      "d": 158.33333333332848,
      "v": 83
    },
    {
      "midi": 39,
      "hit": false,
      "t": 104000.00000000006,
      "d": 255.83333333332848,
      "v": 88
    },
    {
      "midi": 51,
      "hit": false,
      "t": 104200.00000000006,
      "d": 63.33333333332848,
      "v": 103
    },
    {
      "midi": 87,
      "hit": false,
      "t": 104399.99999999988,
      "d": 66.66666666667152,
      "v": 87
    },
    {
      "midi": 82,
      "hit": false,
      "t": 104399.99999999988,
      "d": 83.33333333334303,
      "v": 95
    },
    {
      "midi": 78,
      "hit": false,
      "t": 104399.99999999988,
      "d": 83.33333333334303,
      "v": 87
    },
    {
      "midi": 53,
      "hit": false,
      "t": 104400.00000000006,
      "d": 160,
      "v": 88
    },
    {
      "midi": 39,
      "hit": false,
      "t": 104400.00000000006,
      "d": 255.83333333332848,
      "v": 90
    },
    {
      "midi": 51,
      "hit": false,
      "t": 104600.00000000006,
      "d": 63.33333333332848,
      "v": 95
    },
    {
      "midi": 58,
      "hit": false,
      "t": 104799.9999999999,
      "d": 640,
      "v": 90
    },
    {
      "midi": 54,
      "hit": false,
      "t": 104799.9999999999,
      "d": 640,
      "v": 98
    },
    {
      "midi": 63,
      "hit": false,
      "t": 104799.9999999999,
      "d": 640,
      "v": 101
    },
    {
      "midi": 54,
      "hit": false,
      "t": 104800.00000000006,
      "d": 160,
      "v": 88
    },
    {
      "midi": 39,
      "hit": false,
      "t": 104800.00000000006,
      "d": 255.83333333332848,
      "v": 67
    },
    {
      "midi": 51,
      "hit": false,
      "t": 105000.00000000006,
      "d": 63.33333333332848,
      "v": 88
    },
    {
      "midi": 56,
      "hit": false,
      "t": 105200.00000000006,
      "d": 160,
      "v": 88
    },
    {
      "midi": 39,
      "hit": false,
      "t": 105200.00000000006,
      "d": 255.83333333332848,
      "v": 76
    },
    {
      "midi": 51,
      "hit": false,
      "t": 105400.00000000006,
      "d": 63.33333333332848,
      "v": 91
    },
    {
      "midi": 85,
      "hit": false,
      "t": 105599.9999999999,
      "d": 320,
      "v": 93
    },
    {
      "midi": 78,
      "hit": false,
      "t": 105599.9999999999,
      "d": 320,
      "v": 98
    },
    {
      "midi": 75,
      "hit": false,
      "t": 105599.9999999999,
      "d": 320,
      "v": 81
    },
    {
      "midi": 51,
      "hit": false,
      "t": 105600.00000000006,
      "d": 166.66666666667152,
      "v": 98
    },
    {
      "midi": 39,
      "hit": false,
      "t": 105600.00000000006,
      "d": 255.83333333332848,
      "v": 98
    },
    {
      "midi": 51,
      "hit": false,
      "t": 105800.00000000006,
      "d": 63.33333333332848,
      "v": 83
    },
    {
      "midi": 85,
      "hit": false,
      "t": 105999.9999999999,
      "d": 83.33333333332848,
      "v": 91
    },
    {
      "midi": 75,
      "hit": false,
      "t": 105999.9999999999,
      "d": 91.66666666665697,
      "v": 85
    },
    {
      "midi": 78,
      "hit": false,
      "t": 105999.9999999999,
      "d": 99.99999999998545,
      "v": 95
    },
    {
      "midi": 53,
      "hit": false,
      "t": 106000.00000000006,
      "d": 160,
      "v": 93
    },
    {
      "midi": 39,
      "hit": false,
      "t": 106000.00000000006,
      "d": 255.83333333332848,
      "v": 69
    },
    {
      "midi": 51,
      "hit": false,
      "t": 106200.00000000006,
      "d": 63.33333333332848,
      "v": 95
    },
    {
      "midi": 65,
      "hit": false,
      "t": 106399.99999999988,
      "d": 583.3333333333285,
      "v": 90
    },
    {
      "midi": 61,
      "hit": false,
      "t": 106399.99999999988,
      "d": 591.666666666657,
      "v": 90
    },
    {
      "midi": 56,
      "hit": false,
      "t": 106399.99999999988,
      "d": 608.3333333333285,
      "v": 98
    },
    {
      "midi": 54,
      "hit": false,
      "t": 106400.00000000006,
      "d": 160,
      "v": 88
    },
    {
      "midi": 39,
      "hit": false,
      "t": 106400.00000000006,
      "d": 255.83333333332848,
      "v": 80
    },
    {
      "midi": 51,
      "hit": false,
      "t": 106600.00000000006,
      "d": 63.33333333332848,
      "v": 95
    },
    {
      "midi": 56,
      "hit": false,
      "t": 106800.00000000006,
      "d": 160,
      "v": 110
    },
    {
      "midi": 39,
      "hit": false,
      "t": 106800.00000000006,
      "d": 255.83333333332848,
      "v": 88
    },
    {
      "midi": 51,
      "hit": false,
      "t": 107000.00000000006,
      "d": 63.33333333332848,
      "v": 95
    },
    {
      "midi": 83,
      "hit": false,
      "t": 107199.99999999988,
      "d": 320,
      "v": 118
    },
    {
      "midi": 78,
      "hit": false,
      "t": 107199.99999999988,
      "d": 320,
      "v": 101
    },
    {
      "midi": 75,
      "hit": false,
      "t": 107199.99999999988,
      "d": 320,
      "v": 95
    },
    {
      "midi": 51,
      "hit": false,
      "t": 107200.00000000006,
      "d": 166.66666666667152,
      "v": 96
    },
    {
      "midi": 39,
      "hit": false,
      "t": 107200.00000000006,
      "d": 255.83333333332848,
      "v": 112
    },
    {
      "midi": 51,
      "hit": false,
      "t": 107400.00000000006,
      "d": 63.33333333332848,
      "v": 100
    },
    {
      "midi": 83,
      "hit": false,
      "t": 107599.99999999988,
      "d": 83.33333333332848,
      "v": 112
    },
    {
      "midi": 78,
      "hit": false,
      "t": 107599.99999999988,
      "d": 91.66666666665697,
      "v": 98
    },
    {
      "midi": 75,
      "hit": false,
      "t": 107599.99999999988,
      "d": 91.66666666665697,
      "v": 95
    },
    {
      "midi": 53,
      "hit": false,
      "t": 107600.00000000006,
      "d": 160,
      "v": 91
    },
    {
      "midi": 39,
      "hit": false,
      "t": 107600.00000000006,
      "d": 255.83333333332848,
      "v": 73
    },
    {
      "midi": 51,
      "hit": false,
      "t": 107800.00000000006,
      "d": 63.33333333332848,
      "v": 104
    },
    {
      "midi": 66,
      "hit": false,
      "t": 107999.99999999987,
      "d": 625,
      "v": 98
    },
    {
      "midi": 63,
      "hit": false,
      "t": 107999.99999999987,
      "d": 633.3333333333285,
      "v": 106
    },
    {
      "midi": 54,
      "hit": false,
      "t": 108000.00000000006,
      "d": 160,
      "v": 107
    },
    {
      "midi": 39,
      "hit": false,
      "t": 108000.00000000006,
      "d": 255.83333333332848,
      "v": 88
    },
    {
      "midi": 51,
      "hit": false,
      "t": 108200.00000000006,
      "d": 63.33333333332848,
      "v": 100
    },
    {
      "midi": 56,
      "hit": false,
      "t": 108400.00000000006,
      "d": 160,
      "v": 107
    },
    {
      "midi": 39,
      "hit": false,
      "t": 108400.00000000006,
      "d": 255.83333333332848,
      "v": 92
    },
    {
      "midi": 51,
      "hit": false,
      "t": 108600.00000000006,
      "d": 63.33333333332848,
      "v": 100
    },
    {
      "midi": 78,
      "hit": false,
      "t": 108799.99999999987,
      "d": 141.66666666667152,
      "v": 114
    },
    {
      "midi": 82,
      "hit": false,
      "t": 108799.99999999987,
      "d": 150,
      "v": 99
    },
    {
      "midi": 75,
      "hit": false,
      "t": 108799.99999999987,
      "d": 166.66666666667152,
      "v": 97
    },
    {
      "midi": 51,
      "hit": false,
      "t": 108800.00000000006,
      "d": 166.66666666667152,
      "v": 94
    },
    {
      "midi": 39,
      "hit": false,
      "t": 108800.00000000006,
      "d": 255.83333333332848,
      "v": 118
    },
    {
      "midi": 82,
      "hit": false,
      "t": 108999.99999999987,
      "d": 108.33333333332848,
      "v": 105
    },
    {
      "midi": 75,
      "hit": false,
      "t": 108999.99999999987,
      "d": 116.66666666665697,
      "v": 105
    },
    {
      "midi": 78,
      "hit": false,
      "t": 108999.99999999987,
      "d": 124.99999999998545,
      "v": 105
    },
    {
      "midi": 51,
      "hit": false,
      "t": 109000.00000000006,
      "d": 63.33333333332848,
      "v": 102
    },
    {
      "midi": 78,
      "hit": false,
      "t": 109199.99999999985,
      "d": 83.33333333332848,
      "v": 109
    },
    {
      "midi": 82,
      "hit": false,
      "t": 109199.99999999985,
      "d": 91.66666666665697,
      "v": 97
    },
    {
      "midi": 75,
      "hit": false,
      "t": 109199.99999999985,
      "d": 91.66666666665697,
      "v": 102
    },
    {
      "midi": 53,
      "hit": false,
      "t": 109200.00000000006,
      "d": 160,
      "v": 115
    },
    {
      "midi": 39,
      "hit": false,
      "t": 109200.00000000006,
      "d": 255.83333333332848,
      "v": 90
    },
    {
      "midi": 51,
      "hit": false,
      "t": 109400.00000000006,
      "d": 63.33333333332848,
      "v": 100
    },
    {
      "midi": 70,
      "hit": false,
      "t": 109599.99999999984,
      "d": 616.6666666666715,
      "v": 109
    },
    {
      "midi": 63,
      "hit": false,
      "t": 109599.99999999984,
      "d": 616.6666666666715,
      "v": 111
    },
    {
      "midi": 66,
      "hit": false,
      "t": 109599.99999999984,
      "d": 641.6666666666715,
      "v": 109
    },
    {
      "midi": 54,
      "hit": false,
      "t": 109600.00000000006,
      "d": 160,
      "v": 96
    },
    {
      "midi": 39,
      "hit": false,
      "t": 109600.00000000006,
      "d": 255.83333333332848,
      "v": 98
    },
    {
      "midi": 51,
      "hit": false,
      "t": 109800.00000000006,
      "d": 63.33333333332848,
      "v": 96
    },
    {
      "midi": 56,
      "hit": false,
      "t": 110000.00000000006,
      "d": 160,
      "v": 110
    },
    {
      "midi": 39,
      "hit": false,
      "t": 110000.00000000006,
      "d": 255.83333333332848,
      "v": 105
    },
    {
      "midi": 51,
      "hit": false,
      "t": 110200.00000000006,
      "d": 63.33333333332848,
      "v": 100
    },
    {
      "midi": 69,
      "hit": false,
      "t": 110399.99999999984,
      "d": 320,
      "v": 121
    },
    {
      "midi": 65,
      "hit": false,
      "t": 110399.99999999984,
      "d": 320,
      "v": 121
    },
    {
      "midi": 62,
      "hit": false,
      "t": 110399.99999999984,
      "d": 320,
      "v": 127
    },
    {
      "midi": 50,
      "hit": false,
      "t": 110400.00000000006,
      "d": 195,
      "v": 107
    },
    {
      "midi": 38,
      "hit": false,
      "t": 110400.00000000006,
      "d": 195,
      "v": 94
    },
    {
      "midi": 45,
      "hit": false,
      "t": 110600.00000000006,
      "d": 124.16666666667152,
      "v": 122
    },
    {
      "midi": 62,
      "hit": false,
      "t": 110799.99999999984,
      "d": 320,
      "v": 126
    },
    {
      "midi": 65,
      "hit": false,
      "t": 110799.99999999984,
      "d": 320,
      "v": 114
    },
    {
      "midi": 69,
      "hit": false,
      "t": 110799.99999999984,
      "d": 320,
      "v": 119
    },
    {
      "midi": 50,
      "hit": false,
      "t": 110800.00000000006,
      "d": 195,
      "v": 105
    },
    {
      "midi": 38,
      "hit": false,
      "t": 110800.00000000006,
      "d": 195,
      "v": 90
    },
    {
      "midi": 45,
      "hit": false,
      "t": 111000.00000000006,
      "d": 124.16666666667152,
      "v": 112
    },
    {
      "midi": 67,
      "hit": false,
      "t": 111199.99999999984,
      "d": 320,
      "v": 110
    },
    {
      "midi": 64,
      "hit": false,
      "t": 111199.99999999984,
      "d": 320,
      "v": 110
    },
    {
      "midi": 62,
      "hit": false,
      "t": 111199.99999999984,
      "d": 320,
      "v": 114
    },
    {
      "midi": 50,
      "hit": false,
      "t": 111200.00000000006,
      "d": 195,
      "v": 101
    },
    {
      "midi": 38,
      "hit": false,
      "t": 111200.00000000006,
      "d": 195,
      "v": 82
    },
    {
      "midi": 45,
      "hit": false,
      "t": 111400.00000000006,
      "d": 124.16666666667152,
      "v": 112
    },
    {
      "midi": 69,
      "hit": false,
      "t": 111599.99999999984,
      "d": 320,
      "v": 112
    },
    {
      "midi": 62,
      "hit": false,
      "t": 111599.99999999984,
      "d": 320,
      "v": 117
    },
    {
      "midi": 65,
      "hit": false,
      "t": 111599.99999999984,
      "d": 320,
      "v": 117
    },
    {
      "midi": 50,
      "hit": false,
      "t": 111600.00000000006,
      "d": 195,
      "v": 103
    },
    {
      "midi": 38,
      "hit": false,
      "t": 111600.00000000006,
      "d": 195,
      "v": 74
    },
    {
      "midi": 45,
      "hit": false,
      "t": 111800.00000000006,
      "d": 124.16666666667152,
      "v": 112
    },
    {
      "midi": 67,
      "hit": false,
      "t": 111999.99999999984,
      "d": 320,
      "v": 103
    },
    {
      "midi": 62,
      "hit": false,
      "t": 111999.99999999984,
      "d": 320,
      "v": 112
    },
    {
      "midi": 70,
      "hit": false,
      "t": 111999.99999999984,
      "d": 320,
      "v": 94
    },
    {
      "midi": 50,
      "hit": false,
      "t": 112000.00000000006,
      "d": 195,
      "v": 101
    },
    {
      "midi": 38,
      "hit": false,
      "t": 112000.00000000006,
      "d": 195,
      "v": 92
    },
    {
      "midi": 45,
      "hit": false,
      "t": 112200.00000000006,
      "d": 124.16666666667152,
      "v": 112
    },
    {
      "midi": 62,
      "hit": false,
      "t": 112399.99999999984,
      "d": 320,
      "v": 117
    },
    {
      "midi": 67,
      "hit": false,
      "t": 112399.99999999984,
      "d": 320,
      "v": 112
    },
    {
      "midi": 70,
      "hit": false,
      "t": 112399.99999999984,
      "d": 320,
      "v": 94
    },
    {
      "midi": 50,
      "hit": false,
      "t": 112400.00000000006,
      "d": 195,
      "v": 105
    },
    {
      "midi": 38,
      "hit": false,
      "t": 112400.00000000006,
      "d": 195,
      "v": 103
    },
    {
      "midi": 45,
      "hit": false,
      "t": 112600.00000000006,
      "d": 124.16666666667152,
      "v": 112
    },
    {
      "midi": 67,
      "hit": false,
      "t": 112799.99999999984,
      "d": 320,
      "v": 114
    },
    {
      "midi": 64,
      "hit": false,
      "t": 112799.99999999984,
      "d": 320,
      "v": 110
    },
    {
      "midi": 62,
      "hit": false,
      "t": 112799.99999999984,
      "d": 320,
      "v": 119
    },
    {
      "midi": 50,
      "hit": false,
      "t": 112800.00000000006,
      "d": 195,
      "v": 101
    },
    {
      "midi": 38,
      "hit": false,
      "t": 112800.00000000006,
      "d": 195,
      "v": 99
    },
    {
      "midi": 45,
      "hit": false,
      "t": 113000.00000000006,
      "d": 124.16666666667152,
      "v": 112
    },
    {
      "midi": 69,
      "hit": false,
      "t": 113199.99999999984,
      "d": 320,
      "v": 112
    },
    {
      "midi": 62,
      "hit": false,
      "t": 113199.99999999984,
      "d": 320,
      "v": 117
    },
    {
      "midi": 65,
      "hit": false,
      "t": 113199.99999999984,
      "d": 320,
      "v": 114
    },
    {
      "midi": 50,
      "hit": false,
      "t": 113200.00000000006,
      "d": 195,
      "v": 99
    },
    {
      "midi": 38,
      "hit": false,
      "t": 113200.00000000006,
      "d": 195,
      "v": 103
    },
    {
      "midi": 45,
      "hit": false,
      "t": 113400.00000000006,
      "d": 124.16666666667152,
      "v": 110
    },
    {
      "midi": 67,
      "hit": false,
      "t": 113599.99999999984,
      "d": 320,
      "v": 110
    },
    {
      "midi": 70,
      "hit": false,
      "t": 113599.99999999984,
      "d": 320,
      "v": 101
    },
    {
      "midi": 62,
      "hit": false,
      "t": 113599.99999999984,
      "d": 320,
      "v": 114
    },
    {
      "midi": 50,
      "hit": false,
      "t": 113600.00000000006,
      "d": 195,
      "v": 99
    },
    {
      "midi": 38,
      "hit": false,
      "t": 113600.00000000006,
      "d": 195,
      "v": 99
    },
    {
      "midi": 45,
      "hit": false,
      "t": 113800.00000000006,
      "d": 124.16666666667152,
      "v": 115
    },
    {
      "midi": 62,
      "hit": false,
      "t": 113999.99999999984,
      "d": 320,
      "v": 112
    },
    {
      "midi": 69,
      "hit": false,
      "t": 113999.99999999984,
      "d": 320,
      "v": 105
    },
    {
      "midi": 65,
      "hit": false,
      "t": 113999.99999999984,
      "d": 320,
      "v": 112
    },
    {
      "midi": 50,
      "hit": false,
      "t": 114000.00000000006,
      "d": 195,
      "v": 103
    },
    {
      "midi": 38,
      "hit": false,
      "t": 114000.00000000006,
      "d": 195,
      "v": 99
    },
    {
      "midi": 45,
      "hit": false,
      "t": 114200.00000000006,
      "d": 124.16666666667152,
      "v": 117
    },
    {
      "midi": 62,
      "hit": false,
      "t": 114399.99999999984,
      "d": 320,
      "v": 124
    },
    {
      "midi": 69,
      "hit": false,
      "t": 114399.99999999984,
      "d": 320,
      "v": 112
    },
    {
      "midi": 72,
      "hit": false,
      "t": 114399.99999999984,
      "d": 320,
      "v": 112
    },
    {
      "midi": 50,
      "hit": false,
      "t": 114400.00000000006,
      "d": 195,
      "v": 103
    },
    {
      "midi": 38,
      "hit": false,
      "t": 114400.00000000006,
      "d": 195,
      "v": 101
    },
    {
      "midi": 45,
      "hit": false,
      "t": 114600.00000000006,
      "d": 124.16666666667152,
      "v": 112
    },
    {
      "midi": 70,
      "hit": false,
      "t": 114799.99999999984,
      "d": 320,
      "v": 89
    },
    {
      "midi": 62,
      "hit": false,
      "t": 114799.99999999984,
      "d": 320,
      "v": 112
    },
    {
      "midi": 67,
      "hit": false,
      "t": 114799.99999999984,
      "d": 320,
      "v": 112
    },
    {
      "midi": 50,
      "hit": false,
      "t": 114800.00000000006,
      "d": 195,
      "v": 103
    },
    {
      "midi": 38,
      "hit": false,
      "t": 114800.00000000006,
      "d": 195,
      "v": 105
    },
    {
      "midi": 45,
      "hit": false,
      "t": 115000.00000000006,
      "d": 124.16666666667152,
      "v": 105
    },
    {
      "midi": 62,
      "hit": false,
      "t": 115199.99999999984,
      "d": 320,
      "v": 112
    },
    {
      "midi": 69,
      "hit": false,
      "t": 115199.99999999984,
      "d": 320,
      "v": 110
    },
    {
      "midi": 65,
      "hit": false,
      "t": 115199.99999999984,
      "d": 320,
      "v": 110
    },
    {
      "midi": 50,
      "hit": false,
      "t": 115200.00000000006,
      "d": 195,
      "v": 107
    },
    {
      "midi": 38,
      "hit": false,
      "t": 115200.00000000006,
      "d": 195,
      "v": 99
    },
    {
      "midi": 45,
      "hit": false,
      "t": 115400.00000000006,
      "d": 124.16666666667152,
      "v": 110
    },
    {
      "midi": 62,
      "hit": false,
      "t": 115599.99999999984,
      "d": 320,
      "v": 112
    },
    {
      "midi": 67,
      "hit": false,
      "t": 115599.99999999984,
      "d": 320,
      "v": 110
    },
    {
      "midi": 70,
      "hit": false,
      "t": 115599.99999999984,
      "d": 320,
      "v": 101
    },
    {
      "midi": 50,
      "hit": false,
      "t": 115600.00000000006,
      "d": 195,
      "v": 107
    },
    {
      "midi": 38,
      "hit": false,
      "t": 115600.00000000006,
      "d": 195,
      "v": 101
    },
    {
      "midi": 45,
      "hit": false,
      "t": 115800.00000000006,
      "d": 124.16666666667152,
      "v": 103
    },
    {
      "midi": 64,
      "hit": false,
      "t": 115999.99999999984,
      "d": 320,
      "v": 108
    },
    {
      "midi": 62,
      "hit": false,
      "t": 115999.99999999984,
      "d": 320,
      "v": 114
    },
    {
      "midi": 67,
      "hit": false,
      "t": 115999.99999999984,
      "d": 320,
      "v": 114
    },
    {
      "midi": 38,
      "hit": false,
      "t": 116000.00000000006,
      "d": 195,
      "v": 79
    },
    {
      "midi": 50,
      "hit": false,
      "t": 116000.00000000006,
      "d": 195,
      "v": 101
    },
    {
      "midi": 45,
      "hit": false,
      "t": 116200.00000000006,
      "d": 124.16666666667152,
      "v": 124
    },
    {
      "midi": 65,
      "hit": false,
      "t": 116399.99999999984,
      "d": 320,
      "v": 117
    },
    {
      "midi": 69,
      "hit": false,
      "t": 116399.99999999984,
      "d": 320,
      "v": 119
    },
    {
      "midi": 62,
      "hit": false,
      "t": 116399.99999999984,
      "d": 320,
      "v": 121
    },
    {
      "midi": 50,
      "hit": false,
      "t": 116400.00000000006,
      "d": 195,
      "v": 105
    },
    {
      "midi": 38,
      "hit": false,
      "t": 116400.00000000006,
      "d": 195,
      "v": 94
    },
    {
      "midi": 45,
      "hit": false,
      "t": 116600.00000000006,
      "d": 124.16666666667152,
      "v": 115
    },
    {
      "midi": 67,
      "hit": false,
      "t": 116799.99999999984,
      "d": 320,
      "v": 92
    },
    {
      "midi": 50,
      "hit": false,
      "t": 116800.00000000006,
      "d": 541.6666666666715,
      "v": 95
    },
    {
      "midi": 38,
      "hit": false,
      "t": 116800.00000000006,
      "d": 541.6666666666715,
      "v": 100
    },
    {
      "midi": 65,
      "hit": false,
      "t": 117199.99999999984,
      "d": 213.33333333332848,
      "v": 93
    },
    {
      "midi": 64,
      "hit": false,
      "t": 117466.6666666665,
      "d": 66.66666666667152,
      "v": 88
    },
    {
      "midi": 62,
      "hit": false,
      "t": 117599.99999999984,
      "d": 116.66666666667152,
      "v": 88
    },
    {
      "midi": 50,
      "hit": false,
      "t": 117600.00000000006,
      "d": 558.3333333333285,
      "v": 103
    },
    {
      "midi": 38,
      "hit": false,
      "t": 117600.00000000006,
      "d": 558.3333333333285,
      "v": 100
    },
    {
      "midi": 62,
      "hit": false,
      "t": 117999.99999999984,
      "d": 106.66666666667152,
      "v": 85
    },
    {
      "midi": 64,
      "hit": false,
      "t": 118133.33333333318,
      "d": 106.66666666667152,
      "v": 78
    },
    {
      "midi": 65,
      "hit": false,
      "t": 118266.66666666653,
      "d": 106.66666666667152,
      "v": 95
    },
    {
      "midi": 70,
      "hit": false,
      "t": 118399.99999999987,
      "d": 320,
      "v": 93
    },
    {
      "midi": 69,
      "hit": false,
      "t": 118799.99999999987,
      "d": 108.33333333332848,
      "v": 103
    },
    {
      "midi": 38,
      "hit": false,
      "t": 118800.00000000006,
      "d": 500,
      "v": 98
    },
    {
      "midi": 50,
      "hit": false,
      "t": 118800.00000000006,
      "d": 516.6666666666715,
      "v": 100
    },
    {
      "midi": 69,
      "hit": false,
      "t": 119599.99999999987,
      "d": 106.66666666667152,
      "v": 98
    },
    {
      "midi": 68,
      "hit": false,
      "t": 119599.99999999987,
      "d": 106.66666666667152,
      "v": 75
    },
    {
      "midi": 69,
      "hit": false,
      "t": 119733.33333333321,
      "d": 106.66666666667152,
      "v": 105
    },
    {
      "midi": 68,
      "hit": false,
      "t": 119733.33333333321,
      "d": 106.66666666667152,
      "v": 76
    },
    {
      "midi": 69,
      "hit": false,
      "t": 119866.66666666656,
      "d": 106.66666666667152,
      "v": 103
    },
    {
      "midi": 68,
      "hit": false,
      "t": 119866.66666666656,
      "d": 106.66666666667152,
      "v": 81
    },
    {
      "midi": 69,
      "hit": false,
      "t": 119999.9999999999,
      "d": 1280,
      "v": 117
    },
    {
      "midi": 68,
      "hit": false,
      "t": 119999.9999999999,
      "d": 1280,
      "v": 76
    },
    {
      "midi": 74,
      "hit": false,
      "t": 119999.9999999999,
      "d": 1280,
      "v": 91
    },
    {
      "midi": 53,
      "hit": false,
      "t": 120400.00000000006,
      "d": 99.16666666667152,
      "v": 91
    },
    {
      "midi": 48,
      "hit": false,
      "t": 120600.00000000006,
      "d": 116.66666666667152,
      "v": 108
    },
    {
      "midi": 52,
      "hit": false,
      "t": 120800.00000000006,
      "d": 150,
      "v": 101
    },
    {
      "midi": 46,
      "hit": false,
      "t": 121000.00000000006,
      "d": 158.33333333332848,
      "v": 93
    },
    {
      "midi": 50,
      "hit": false,
      "t": 121200.00000000006,
      "d": 175,
      "v": 101
    },
    {
      "midi": 45,
      "hit": false,
      "t": 121400.00000000006,
      "d": 208.33333333332848,
      "v": 108
    },
    {
      "midi": 38,
      "hit": false,
      "t": 121600.00000000006,
      "d": 160,
      "v": 98
    },
    {
      "midi": 45,
      "hit": false,
      "t": 121800.00000000006,
      "d": 160,
      "v": 117
    },
    {
      "midi": 67,
      "hit": false,
      "t": 121999.9999999999,
      "d": 320,
      "v": 114
    },
    {
      "midi": 38,
      "hit": false,
      "t": 122000.00000000006,
      "d": 160,
      "v": 99
    },
    {
      "midi": 62,
      "hit": false,
      "t": 122199.9999999999,
      "d": 133.33333333332848,
      "v": 100
    },
    {
      "midi": 45,
      "hit": false,
      "t": 122200.00000000006,
      "d": 160,
      "v": 114
    },
    {
      "midi": 67,
      "hit": false,
      "t": 122399.9999999999,
      "d": 300,
      "v": 100
    },
    {
      "midi": 70,
      "hit": false,
      "t": 122399.9999999999,
      "d": 320,
      "v": 119
    },
    {
      "midi": 38,
      "hit": false,
      "t": 122400.00000000006,
      "d": 160,
      "v": 102
    },
    {
      "midi": 62,
      "hit": false,
      "t": 122599.9999999999,
      "d": 141.66666666667152,
      "v": 100
    },
    {
      "midi": 45,
      "hit": false,
      "t": 122600.00000000006,
      "d": 160,
      "v": 121
    },
    {
      "midi": 77,
      "hit": false,
      "t": 122799.9999999999,
      "d": 266.6666666666715,
      "v": 80
    },
    {
      "midi": 65,
      "hit": false,
      "t": 122799.9999999999,
      "d": 300,
      "v": 89
    },
    {
      "midi": 69,
      "hit": false,
      "t": 122799.9999999999,
      "d": 300,
      "v": 100
    },
    {
      "midi": 73,
      "hit": false,
      "t": 122799.9999999999,
      "d": 320,
      "v": 127
    },
    {
      "midi": 38,
      "hit": false,
      "t": 122800.00000000006,
      "d": 160,
      "v": 108
    },
    {
      "midi": 62,
      "hit": false,
      "t": 122999.9999999999,
      "d": 100,
      "v": 108
    },
    {
      "midi": 45,
      "hit": false,
      "t": 123000.00000000006,
      "d": 160,
      "v": 122
    },
    {
      "midi": 69,
      "hit": false,
      "t": 123199.9999999999,
      "d": 320,
      "v": 92
    },
    {
      "midi": 74,
      "hit": false,
      "t": 123199.9999999999,
      "d": 320,
      "v": 101
    },
    {
      "midi": 77,
      "hit": false,
      "t": 123199.9999999999,
      "d": 320,
      "v": 110
    },
    {
      "midi": 81,
      "hit": false,
      "t": 123199.9999999999,
      "d": 320,
      "v": 110
    },
    {
      "midi": 50,
      "hit": false,
      "t": 123200.00000000006,
      "d": 159.99999999998545,
      "v": 126
    },
    {
      "midi": 38,
      "hit": false,
      "t": 123200.00000000006,
      "d": 159.99999999998545,
      "v": 126
    },
    {
      "midi": 45,
      "hit": false,
      "t": 123400.00000000004,
      "d": 160,
      "v": 105
    },
    {
      "midi": 69,
      "hit": false,
      "t": 123599.9999999999,
      "d": 320,
      "v": 96
    },
    {
      "midi": 77,
      "hit": false,
      "t": 123599.9999999999,
      "d": 320,
      "v": 120
    },
    {
      "midi": 74,
      "hit": false,
      "t": 123599.9999999999,
      "d": 320,
      "v": 116
    },
    {
      "midi": 81,
      "hit": false,
      "t": 123599.9999999999,
      "d": 320,
      "v": 123
    },
    {
      "midi": 50,
      "hit": false,
      "t": 123600.00000000004,
      "d": 160,
      "v": 94
    },
    {
      "midi": 38,
      "hit": false,
      "t": 123600.00000000004,
      "d": 160,
      "v": 87
    },
    {
      "midi": 45,
      "hit": false,
      "t": 123800.00000000004,
      "d": 160,
      "v": 114
    },
    {
      "midi": 67,
      "hit": false,
      "t": 123999.9999999999,
      "d": 320,
      "v": 98
    },
    {
      "midi": 76,
      "hit": false,
      "t": 123999.9999999999,
      "d": 320,
      "v": 112
    },
    {
      "midi": 74,
      "hit": false,
      "t": 123999.9999999999,
      "d": 320,
      "v": 93
    },
    {
      "midi": 79,
      "hit": false,
      "t": 123999.9999999999,
      "d": 320,
      "v": 108
    },
    {
      "midi": 50,
      "hit": false,
      "t": 124000.00000000004,
      "d": 160,
      "v": 101
    },
    {
      "midi": 38,
      "hit": false,
      "t": 124000.00000000004,
      "d": 160,
      "v": 89
    },
    {
      "midi": 45,
      "hit": false,
      "t": 124200.00000000004,
      "d": 160,
      "v": 114
    },
    {
      "midi": 69,
      "hit": false,
      "t": 124399.9999999999,
      "d": 320,
      "v": 92
    },
    {
      "midi": 77,
      "hit": false,
      "t": 124399.9999999999,
      "d": 320,
      "v": 118
    },
    {
      "midi": 74,
      "hit": false,
      "t": 124399.9999999999,
      "d": 320,
      "v": 120
    },
    {
      "midi": 81,
      "hit": false,
      "t": 124399.9999999999,
      "d": 320,
      "v": 126
    },
    {
      "midi": 50,
      "hit": false,
      "t": 124400.00000000004,
      "d": 160,
      "v": 103
    },
    {
      "midi": 38,
      "hit": false,
      "t": 124400.00000000004,
      "d": 160,
      "v": 94
    },
    {
      "midi": 45,
      "hit": false,
      "t": 124600.00000000004,
      "d": 160,
      "v": 121
    },
    {
      "midi": 70,
      "hit": false,
      "t": 124799.9999999999,
      "d": 320,
      "v": 76
    },
    {
      "midi": 74,
      "hit": false,
      "t": 124799.9999999999,
      "d": 320,
      "v": 101
    },
    {
      "midi": 82,
      "hit": false,
      "t": 124799.9999999999,
      "d": 320,
      "v": 110
    },
    {
      "midi": 79,
      "hit": false,
      "t": 124799.9999999999,
      "d": 320,
      "v": 112
    },
    {
      "midi": 50,
      "hit": false,
      "t": 124800.00000000004,
      "d": 160,
      "v": 96
    },
    {
      "midi": 38,
      "hit": false,
      "t": 124800.00000000004,
      "d": 160,
      "v": 77
    },
    {
      "midi": 45,
      "hit": false,
      "t": 125000.00000000004,
      "d": 160,
      "v": 127
    },
    {
      "midi": 70,
      "hit": false,
      "t": 125199.9999999999,
      "d": 320,
      "v": 90
    },
    {
      "midi": 74,
      "hit": false,
      "t": 125199.9999999999,
      "d": 320,
      "v": 104
    },
    {
      "midi": 82,
      "hit": false,
      "t": 125199.9999999999,
      "d": 320,
      "v": 110
    },
    {
      "midi": 79,
      "hit": false,
      "t": 125199.9999999999,
      "d": 320,
      "v": 99
    },
    {
      "midi": 50,
      "hit": false,
      "t": 125200.00000000004,
      "d": 160,
      "v": 110
    },
    {
      "midi": 38,
      "hit": false,
      "t": 125200.00000000004,
      "d": 160,
      "v": 91
    },
    {
      "midi": 45,
      "hit": false,
      "t": 125400.00000000004,
      "d": 160,
      "v": 127
    },
    {
      "midi": 67,
      "hit": false,
      "t": 125599.9999999999,
      "d": 320,
      "v": 90
    },
    {
      "midi": 74,
      "hit": false,
      "t": 125599.9999999999,
      "d": 320,
      "v": 116
    },
    {
      "midi": 76,
      "hit": false,
      "t": 125599.9999999999,
      "d": 320,
      "v": 112
    },
    {
      "midi": 79,
      "hit": false,
      "t": 125599.9999999999,
      "d": 320,
      "v": 112
    },
    {
      "midi": 50,
      "hit": false,
      "t": 125600.00000000004,
      "d": 160,
      "v": 121
    },
    {
      "midi": 38,
      "hit": false,
      "t": 125600.00000000004,
      "d": 160,
      "v": 98
    },
    {
      "midi": 45,
      "hit": false,
      "t": 125800.00000000004,
      "d": 160,
      "v": 112
    },
    {
      "midi": 69,
      "hit": false,
      "t": 125999.9999999999,
      "d": 320,
      "v": 100
    },
    {
      "midi": 77,
      "hit": false,
      "t": 125999.9999999999,
      "d": 320,
      "v": 123
    },
    {
      "midi": 74,
      "hit": false,
      "t": 125999.9999999999,
      "d": 320,
      "v": 110
    },
    {
      "midi": 81,
      "hit": false,
      "t": 125999.9999999999,
      "d": 320,
      "v": 118
    },
    {
      "midi": 50,
      "hit": false,
      "t": 126000.00000000004,
      "d": 160,
      "v": 121
    },
    {
      "midi": 38,
      "hit": false,
      "t": 126000.00000000004,
      "d": 160,
      "v": 103
    },
    {
      "midi": 45,
      "hit": false,
      "t": 126200.00000000004,
      "d": 160,
      "v": 124
    },
    {
      "midi": 70,
      "hit": false,
      "t": 126399.9999999999,
      "d": 320,
      "v": 86
    },
    {
      "midi": 74,
      "hit": false,
      "t": 126399.9999999999,
      "d": 320,
      "v": 110
    },
    {
      "midi": 82,
      "hit": false,
      "t": 126399.9999999999,
      "d": 320,
      "v": 112
    },
    {
      "midi": 79,
      "hit": false,
      "t": 126399.9999999999,
      "d": 320,
      "v": 101
    },
    {
      "midi": 50,
      "hit": false,
      "t": 126400.00000000004,
      "d": 160,
      "v": 110
    },
    {
      "midi": 38,
      "hit": false,
      "t": 126400.00000000004,
      "d": 160,
      "v": 94
    },
    {
      "midi": 45,
      "hit": false,
      "t": 126600.00000000004,
      "d": 160,
      "v": 124
    },
    {
      "midi": 69,
      "hit": false,
      "t": 126799.9999999999,
      "d": 320,
      "v": 98
    },
    {
      "midi": 77,
      "hit": false,
      "t": 126799.9999999999,
      "d": 320,
      "v": 123
    },
    {
      "midi": 74,
      "hit": false,
      "t": 126799.9999999999,
      "d": 320,
      "v": 110
    },
    {
      "midi": 81,
      "hit": false,
      "t": 126799.9999999999,
      "d": 320,
      "v": 127
    },
    {
      "midi": 50,
      "hit": false,
      "t": 126800.00000000004,
      "d": 160,
      "v": 117
    },
    {
      "midi": 38,
      "hit": false,
      "t": 126800.00000000004,
      "d": 160,
      "v": 101
    },
    {
      "midi": 45,
      "hit": false,
      "t": 127000.00000000004,
      "d": 160,
      "v": 117
    },
    {
      "midi": 72,
      "hit": false,
      "t": 127199.9999999999,
      "d": 320,
      "v": 92
    },
    {
      "midi": 74,
      "hit": false,
      "t": 127199.9999999999,
      "d": 320,
      "v": 107
    },
    {
      "midi": 84,
      "hit": false,
      "t": 127199.9999999999,
      "d": 320,
      "v": 104
    },
    {
      "midi": 81,
      "hit": false,
      "t": 127199.9999999999,
      "d": 320,
      "v": 107
    },
    {
      "midi": 50,
      "hit": false,
      "t": 127200.00000000004,
      "d": 160,
      "v": 114
    },
    {
      "midi": 38,
      "hit": false,
      "t": 127200.00000000004,
      "d": 160,
      "v": 98
    },
    {
      "midi": 45,
      "hit": false,
      "t": 127400.00000000004,
      "d": 160,
      "v": 121
    },
    {
      "midi": 70,
      "hit": false,
      "t": 127599.9999999999,
      "d": 320,
      "v": 86
    },
    {
      "midi": 74,
      "hit": false,
      "t": 127599.9999999999,
      "d": 320,
      "v": 93
    },
    {
      "midi": 82,
      "hit": false,
      "t": 127599.9999999999,
      "d": 320,
      "v": 97
    },
    {
      "midi": 79,
      "hit": false,
      "t": 127599.9999999999,
      "d": 320,
      "v": 99
    },
    {
      "midi": 50,
      "hit": false,
      "t": 127600.00000000004,
      "d": 160,
      "v": 112
    },
    {
      "midi": 38,
      "hit": false,
      "t": 127600.00000000004,
      "d": 160,
      "v": 101
    },
    {
      "midi": 45,
      "hit": false,
      "t": 127800.00000000004,
      "d": 160,
      "v": 126
    },
    {
      "midi": 69,
      "hit": false,
      "t": 127999.9999999999,
      "d": 320,
      "v": 114
    },
    {
      "midi": 74,
      "hit": false,
      "t": 127999.9999999999,
      "d": 320,
      "v": 111
    },
    {
      "midi": 77,
      "hit": false,
      "t": 127999.9999999999,
      "d": 320,
      "v": 111
    },
    {
      "midi": 81,
      "hit": false,
      "t": 127999.9999999999,
      "d": 320,
      "v": 123
    },
    {
      "midi": 50,
      "hit": false,
      "t": 128000.00000000004,
      "d": 160,
      "v": 108
    },
    {
      "midi": 38,
      "hit": false,
      "t": 128000.00000000004,
      "d": 160,
      "v": 89
    },
    {
      "midi": 45,
      "hit": false,
      "t": 128200.00000000004,
      "d": 160,
      "v": 121
    },
    {
      "midi": 70,
      "hit": false,
      "t": 128399.9999999999,
      "d": 320,
      "v": 86
    },
    {
      "midi": 74,
      "hit": false,
      "t": 128399.9999999999,
      "d": 320,
      "v": 97
    },
    {
      "midi": 82,
      "hit": false,
      "t": 128399.9999999999,
      "d": 320,
      "v": 89
    },
    {
      "midi": 79,
      "hit": false,
      "t": 128399.9999999999,
      "d": 320,
      "v": 91
    },
    {
      "midi": 50,
      "hit": false,
      "t": 128400.00000000004,
      "d": 160,
      "v": 117
    },
    {
      "midi": 38,
      "hit": false,
      "t": 128400.00000000004,
      "d": 160,
      "v": 94
    },
    {
      "midi": 45,
      "hit": false,
      "t": 128600.00000000004,
      "d": 160,
      "v": 126
    },
    {
      "midi": 67,
      "hit": false,
      "t": 128799.9999999999,
      "d": 320,
      "v": 96
    },
    {
      "midi": 76,
      "hit": false,
      "t": 128799.9999999999,
      "d": 320,
      "v": 110
    },
    {
      "midi": 74,
      "hit": false,
      "t": 128799.9999999999,
      "d": 320,
      "v": 97
    },
    {
      "midi": 79,
      "hit": false,
      "t": 128799.9999999999,
      "d": 320,
      "v": 112
    },
    {
      "midi": 50,
      "hit": false,
      "t": 128800.00000000004,
      "d": 160,
      "v": 114
    },
    {
      "midi": 38,
      "hit": false,
      "t": 128800.00000000004,
      "d": 160,
      "v": 101
    },
    {
      "midi": 45,
      "hit": false,
      "t": 129000.00000000004,
      "d": 160,
      "v": 121
    },
    {
      "midi": 69,
      "hit": false,
      "t": 129199.9999999999,
      "d": 320,
      "v": 100
    },
    {
      "midi": 74,
      "hit": false,
      "t": 129199.9999999999,
      "d": 320,
      "v": 93
    },
    {
      "midi": 77,
      "hit": false,
      "t": 129199.9999999999,
      "d": 320,
      "v": 112
    },
    {
      "midi": 81,
      "hit": false,
      "t": 129199.9999999999,
      "d": 320,
      "v": 108
    },
    {
      "midi": 50,
      "hit": false,
      "t": 129200.00000000004,
      "d": 160,
      "v": 110
    },
    {
      "midi": 38,
      "hit": false,
      "t": 129200.00000000004,
      "d": 160,
      "v": 103
    },
    {
      "midi": 45,
      "hit": false,
      "t": 129400.00000000004,
      "d": 160,
      "v": 126
    },
    {
      "midi": 74,
      "hit": false,
      "t": 129599.9999999999,
      "d": 108.33333333332848,
      "v": 110
    },
    {
      "midi": 38,
      "hit": false,
      "t": 129600.00000000004,
      "d": 160,
      "v": 90
    },
    {
      "midi": 50,
      "hit": false,
      "t": 129600.00000000004,
      "d": 160,
      "v": 88
    },
    {
      "midi": 69,
      "hit": false,
      "t": 129799.9999999999,
      "d": 100,
      "v": 105
    },
    {
      "midi": 45,
      "hit": false,
      "t": 129800.00000000004,
      "d": 160,
      "v": 107
    },
    {
      "midi": 78,
      "hit": false,
      "t": 129999.9999999999,
      "d": 900,
      "v": 112
    },
    {
      "midi": 82,
      "hit": false,
      "t": 129999.9999999999,
      "d": 900,
      "v": 113
    },
    {
      "midi": 70,
      "hit": false,
      "t": 129999.9999999999,
      "d": 925,
      "v": 100
    },
    {
      "midi": 73,
      "hit": false,
      "t": 129999.9999999999,
      "d": 958.3333333333285,
      "v": 115
    },
    {
      "midi": 50,
      "hit": false,
      "t": 130000.00000000004,
      "d": 160,
      "v": 96
    },
    {
      "midi": 38,
      "hit": false,
      "t": 130000.00000000004,
      "d": 160,
      "v": 78
    },
    {
      "midi": 45,
      "hit": false,
      "t": 130200.00000000004,
      "d": 160,
      "v": 115
    },
    {
      "midi": 38,
      "hit": false,
      "t": 130400.00000000004,
      "d": 160,
      "v": 92
    },
    {
      "midi": 50,
      "hit": false,
      "t": 130400.00000000004,
      "d": 160,
      "v": 103
    },
    {
      "midi": 45,
      "hit": false,
      "t": 130600.00000000004,
      "d": 160,
      "v": 115
    },
    {
      "midi": 50,
      "hit": false,
      "t": 130800.00000000004,
      "d": 160,
      "v": 99
    },
    {
      "midi": 38,
      "hit": false,
      "t": 130800.00000000004,
      "d": 160,
      "v": 83
    },
    {
      "midi": 45,
      "hit": false,
      "t": 131000.00000000004,
      "d": 160.00000000001455,
      "v": 116
    },
    {
      "midi": 74,
      "hit": false,
      "t": 131199.99999999988,
      "d": 100,
      "v": 107
    },
    {
      "midi": 38,
      "hit": false,
      "t": 131200.00000000006,
      "d": 160,
      "v": 92
    },
    {
      "midi": 50,
      "hit": false,
      "t": 131200.00000000006,
      "d": 160,
      "v": 103
    },
    {
      "midi": 69,
      "hit": false,
      "t": 131399.99999999988,
      "d": 75,
      "v": 110
    },
    {
      "midi": 45,
      "hit": false,
      "t": 131400.00000000006,
      "d": 160,
      "v": 104
    },
    {
      "midi": 69,
      "hit": false,
      "t": 131599.99999999988,
      "d": 925,
      "v": 100
    },
    {
      "midi": 81,
      "hit": false,
      "t": 131599.99999999988,
      "d": 960,
      "v": 117
    },
    {
      "midi": 77,
      "hit": false,
      "t": 131599.99999999988,
      "d": 960,
      "v": 120
    },
    {
      "midi": 72,
      "hit": false,
      "t": 131599.99999999988,
      "d": 960,
      "v": 117
    },
    {
      "midi": 50,
      "hit": false,
      "t": 131600.00000000006,
      "d": 160,
      "v": 99
    },
    {
      "midi": 38,
      "hit": false,
      "t": 131600.00000000006,
      "d": 160,
      "v": 92
    },
    {
      "midi": 45,
      "hit": false,
      "t": 131800.00000000006,
      "d": 160,
      "v": 111
    },
    {
      "midi": 38,
      "hit": false,
      "t": 132000.00000000006,
      "d": 160,
      "v": 75
    },
    {
      "midi": 50,
      "hit": false,
      "t": 132000.00000000006,
      "d": 160,
      "v": 103
    },
    {
      "midi": 45,
      "hit": false,
      "t": 132200.00000000006,
      "d": 160,
      "v": 111
    },
    {
      "midi": 38,
      "hit": false,
      "t": 132400.00000000006,
      "d": 160,
      "v": 86
    },
    {
      "midi": 50,
      "hit": false,
      "t": 132400.00000000006,
      "d": 160,
      "v": 94
    },
    {
      "midi": 45,
      "hit": false,
      "t": 132600.00000000006,
      "d": 160,
      "v": 111
    },
    {
      "midi": 74,
      "hit": false,
      "t": 132799.99999999988,
      "d": 160,
      "v": 100
    },
    {
      "midi": 50,
      "hit": false,
      "t": 132800.00000000006,
      "d": 160,
      "v": 109
    },
    {
      "midi": 38,
      "hit": false,
      "t": 132800.00000000006,
      "d": 160,
      "v": 92
    },
    {
      "midi": 69,
      "hit": false,
      "t": 132999.99999999988,
      "d": 160,
      "v": 115
    },
    {
      "midi": 45,
      "hit": false,
      "t": 133000.00000000006,
      "d": 160,
      "v": 104
    },
    {
      "midi": 76,
      "hit": false,
      "t": 133199.99999999988,
      "d": 160,
      "v": 91
    },
    {
      "midi": 84,
      "hit": false,
      "t": 133199.99999999988,
      "d": 160,
      "v": 93
    },
    {
      "midi": 50,
      "hit": false,
      "t": 133200.00000000006,
      "d": 160,
      "v": 99
    },
    {
      "midi": 38,
      "hit": false,
      "t": 133200.00000000006,
      "d": 160,
      "v": 90
    },
    {
      "midi": 74,
      "hit": false,
      "t": 133399.99999999988,
      "d": 160,
      "v": 100
    },
    {
      "midi": 82,
      "hit": false,
      "t": 133399.99999999988,
      "d": 160,
      "v": 98
    },
    {
      "midi": 45,
      "hit": false,
      "t": 133400.00000000006,
      "d": 160,
      "v": 115
    },
    {
      "midi": 81,
      "hit": false,
      "t": 133599.99999999988,
      "d": 160,
      "v": 103
    },
    {
      "midi": 72,
      "hit": false,
      "t": 133599.99999999988,
      "d": 160,
      "v": 105
    },
    {
      "midi": 50,
      "hit": false,
      "t": 133600.00000000006,
      "d": 160,
      "v": 92
    },
    {
      "midi": 38,
      "hit": false,
      "t": 133600.00000000006,
      "d": 160,
      "v": 83
    },
    {
      "midi": 82,
      "hit": false,
      "t": 133799.99999999988,
      "d": 160,
      "v": 93
    },
    {
      "midi": 74,
      "hit": false,
      "t": 133799.99999999988,
      "d": 160,
      "v": 105
    },
    {
      "midi": 45,
      "hit": false,
      "t": 133800.00000000006,
      "d": 160,
      "v": 116
    },
    {
      "midi": 79,
      "hit": false,
      "t": 133999.99999999988,
      "d": 160,
      "v": 91
    },
    {
      "midi": 76,
      "hit": false,
      "t": 133999.99999999988,
      "d": 160,
      "v": 82
    },
    {
      "midi": 50,
      "hit": false,
      "t": 134000.00000000006,
      "d": 160,
      "v": 109
    },
    {
      "midi": 38,
      "hit": false,
      "t": 134000.00000000006,
      "d": 160,
      "v": 96
    },
    {
      "midi": 81,
      "hit": false,
      "t": 134199.99999999988,
      "d": 160,
      "v": 100
    },
    {
      "midi": 77,
      "hit": false,
      "t": 134199.99999999988,
      "d": 160,
      "v": 91
    },
    {
      "midi": 45,
      "hit": false,
      "t": 134200.00000000006,
      "d": 160,
      "v": 116
    },
    {
      "midi": 74,
      "hit": false,
      "t": 134399.99999999988,
      "d": 158.33333333334303,
      "v": 100
    },
    {
      "midi": 77,
      "hit": false,
      "t": 134399.99999999988,
      "d": 160,
      "v": 97
    },
    {
      "midi": 50,
      "hit": false,
      "t": 134400.00000000006,
      "d": 160,
      "v": 109
    },
    {
      "midi": 38,
      "hit": false,
      "t": 134400.00000000006,
      "d": 160,
      "v": 101
    },
    {
      "midi": 76,
      "hit": false,
      "t": 134599.99999999988,
      "d": 158.33333333334303,
      "v": 100
    },
    {
      "midi": 79,
      "hit": false,
      "t": 134599.99999999988,
      "d": 160,
      "v": 106
    },
    {
      "midi": 45,
      "hit": false,
      "t": 134600.00000000006,
      "d": 160,
      "v": 115
    },
    {
      "midi": 67,
      "hit": false,
      "t": 134799.99999999988,
      "d": 158.33333333334303,
      "v": 99
    },
    {
      "midi": 76,
      "hit": false,
      "t": 134799.99999999988,
      "d": 160,
      "v": 118
    },
    {
      "midi": 50,
      "hit": false,
      "t": 134800.00000000006,
      "d": 160,
      "v": 101
    },
    {
      "midi": 38,
      "hit": false,
      "t": 134800.00000000006,
      "d": 160,
      "v": 88
    },
    {
      "midi": 69,
      "hit": false,
      "t": 134999.99999999988,
      "d": 158.33333333334303,
      "v": 99
    },
    {
      "midi": 77,
      "hit": false,
      "t": 134999.99999999988,
      "d": 160,
      "v": 103
    },
    {
      "midi": 45,
      "hit": false,
      "t": 135000.00000000006,
      "d": 160,
      "v": 116
    },
    {
      "midi": 65,
      "hit": false,
      "t": 135199.99999999988,
      "d": 158.33333333334303,
      "v": 99
    },
    {
      "midi": 74,
      "hit": false,
      "t": 135199.99999999988,
      "d": 160,
      "v": 116
    },
    {
      "midi": 50,
      "hit": false,
      "t": 135200.00000000006,
      "d": 160,
      "v": 103
    },
    {
      "midi": 38,
      "hit": false,
      "t": 135200.00000000006,
      "d": 160,
      "v": 94
    },
    {
      "midi": 67,
      "hit": false,
      "t": 135399.99999999988,
      "d": 158.33333333334303,
      "v": 99
    },
    {
      "midi": 76,
      "hit": false,
      "t": 135399.99999999988,
      "d": 160,
      "v": 106
    },
    {
      "midi": 45,
      "hit": false,
      "t": 135400.00000000006,
      "d": 160,
      "v": 116
    },
    {
      "midi": 64,
      "hit": false,
      "t": 135599.99999999988,
      "d": 158.33333333334303,
      "v": 99
    },
    {
      "midi": 72,
      "hit": false,
      "t": 135599.99999999988,
      "d": 160,
      "v": 126
    },
    {
      "midi": 50,
      "hit": false,
      "t": 135600.00000000006,
      "d": 160,
      "v": 111
    },
    {
      "midi": 38,
      "hit": false,
      "t": 135600.00000000006,
      "d": 160,
      "v": 101
    },
    {
      "midi": 62,
      "hit": false,
      "t": 135799.99999999988,
      "d": 158.33333333334303,
      "v": 97
    },
    {
      "midi": 70,
      "hit": false,
      "t": 135799.99999999988,
      "d": 160,
      "v": 107
    },
    {
      "midi": 45,
      "hit": false,
      "t": 135800.00000000006,
      "d": 160,
      "v": 116
    },
    {
      "midi": 64,
      "hit": false,
      "t": 135999.99999999988,
      "d": 320,
      "v": 110
    },
    {
      "midi": 61,
      "hit": false,
      "t": 135999.99999999988,
      "d": 320,
      "v": 110
    },
    {
      "midi": 68,
      "hit": false,
      "t": 135999.99999999988,
      "d": 320,
      "v": 108
    },
    {
      "midi": 37,
      "hit": false,
      "t": 136000.00000000006,
      "d": 160,
      "v": 83
    },
    {
      "midi": 49,
      "hit": false,
      "t": 136000.00000000006,
      "d": 160,
      "v": 93
    },
    {
      "midi": 44,
      "hit": false,
      "t": 136200.00000000006,
      "d": 160,
      "v": 100
    },
    {
      "midi": 64,
      "hit": false,
      "t": 136399.99999999988,
      "d": 320,
      "v": 119
    },
    {
      "midi": 61,
      "hit": false,
      "t": 136399.99999999988,
      "d": 320,
      "v": 119
    },
    {
      "midi": 68,
      "hit": false,
      "t": 136399.99999999988,
      "d": 320,
      "v": 100
    },
    {
      "midi": 37,
      "hit": false,
      "t": 136400.00000000006,
      "d": 160,
      "v": 86
    },
    {
      "midi": 49,
      "hit": false,
      "t": 136400.00000000006,
      "d": 160,
      "v": 111
    },
    {
      "midi": 44,
      "hit": false,
      "t": 136600.00000000006,
      "d": 160,
      "v": 93
    },
    {
      "midi": 66,
      "hit": false,
      "t": 136799.99999999988,
      "d": 320,
      "v": 93
    },
    {
      "midi": 63,
      "hit": false,
      "t": 136799.99999999988,
      "d": 320,
      "v": 95
    },
    {
      "midi": 61,
      "hit": false,
      "t": 136799.99999999988,
      "d": 320,
      "v": 110
    },
    {
      "midi": 37,
      "hit": false,
      "t": 136800.00000000006,
      "d": 160,
      "v": 83
    },
    {
      "midi": 49,
      "hit": false,
      "t": 136800.00000000006,
      "d": 160,
      "v": 91
    },
    {
      "midi": 44,
      "hit": false,
      "t": 137000.00000000006,
      "d": 160,
      "v": 91
    },
    {
      "midi": 64,
      "hit": false,
      "t": 137199.99999999988,
      "d": 320,
      "v": 124
    },
    {
      "midi": 61,
      "hit": false,
      "t": 137199.99999999988,
      "d": 320,
      "v": 122
    },
    {
      "midi": 68,
      "hit": false,
      "t": 137199.99999999988,
      "d": 320,
      "v": 103
    },
    {
      "midi": 37,
      "hit": false,
      "t": 137200.00000000006,
      "d": 160,
      "v": 95
    },
    {
      "midi": 49,
      "hit": false,
      "t": 137200.00000000006,
      "d": 160,
      "v": 102
    },
    {
      "midi": 44,
      "hit": false,
      "t": 137400.00000000006,
      "d": 160,
      "v": 85
    },
    {
      "midi": 61,
      "hit": false,
      "t": 137599.99999999988,
      "d": 575,
      "v": 115
    },
    {
      "midi": 69,
      "hit": false,
      "t": 137599.99999999988,
      "d": 575,
      "v": 104
    },
    {
      "midi": 66,
      "hit": false,
      "t": 137599.99999999988,
      "d": 650,
      "v": 97
    },
    {
      "midi": 37,
      "hit": false,
      "t": 137600.00000000006,
      "d": 160,
      "v": 97
    },
    {
      "midi": 49,
      "hit": false,
      "t": 137600.00000000006,
      "d": 160,
      "v": 91
    },
    {
      "midi": 44,
      "hit": false,
      "t": 137800.00000000006,
      "d": 160,
      "v": 85
    },
    {
      "midi": 37,
      "hit": false,
      "t": 138000.00000000006,
      "d": 160,
      "v": 88
    },
    {
      "midi": 49,
      "hit": false,
      "t": 138000.00000000006,
      "d": 160,
      "v": 89
    },
    {
      "midi": 44,
      "hit": false,
      "t": 138200.00000000006,
      "d": 160,
      "v": 91
    },
    {
      "midi": 66,
      "hit": false,
      "t": 138399.99999999988,
      "d": 320,
      "v": 107
    },
    {
      "midi": 63,
      "hit": false,
      "t": 138399.99999999988,
      "d": 320,
      "v": 100
    },
    {
      "midi": 61,
      "hit": false,
      "t": 138399.99999999988,
      "d": 320,
      "v": 115
    },
    {
      "midi": 37,
      "hit": false,
      "t": 138400.00000000006,
      "d": 160,
      "v": 85
    },
    {
      "midi": 49,
      "hit": false,
      "t": 138400.00000000006,
      "d": 160,
      "v": 88
    },
    {
      "midi": 44,
      "hit": false,
      "t": 138600.00000000006,
      "d": 160,
      "v": 96
    },
    {
      "midi": 64,
      "hit": false,
      "t": 138799.99999999988,
      "d": 320,
      "v": 126
    },
    {
      "midi": 68,
      "hit": false,
      "t": 138799.99999999988,
      "d": 320,
      "v": 104
    },
    {
      "midi": 61,
      "hit": false,
      "t": 138799.99999999988,
      "d": 320,
      "v": 117
    },
    {
      "midi": 37,
      "hit": false,
      "t": 138800.00000000006,
      "d": 160,
      "v": 85
    },
    {
      "midi": 49,
      "hit": false,
      "t": 138800.00000000006,
      "d": 160,
      "v": 92
    },
    {
      "midi": 44,
      "hit": false,
      "t": 139000.00000000006,
      "d": 160,
      "v": 92
    },
    {
      "midi": 68,
      "hit": false,
      "t": 139199.99999999988,
      "d": 183.33333333334303,
      "v": 109
    },
    {
      "midi": 61,
      "hit": false,
      "t": 139199.99999999988,
      "d": 209.16666666668607,
      "v": 114
    },
    {
      "midi": 73,
      "hit": false,
      "t": 139199.99999999988,
      "d": 223.33333333334303,
      "v": 114
    },
    {
      "midi": 64,
      "hit": false,
      "t": 139199.99999999988,
      "d": 250,
      "v": 127
    },
    {
      "midi": 37,
      "hit": false,
      "t": 139200.00000000006,
      "d": 160,
      "v": 95
    },
    {
      "midi": 49,
      "hit": false,
      "t": 139200.00000000006,
      "d": 160,
      "v": 92
    },
    {
      "midi": 44,
      "hit": false,
      "t": 139400.00000000006,
      "d": 160,
      "v": 107
    },
    {
      "midi": 37,
      "hit": false,
      "t": 139600.00000000006,
      "d": 160,
      "v": 93
    },
    {
      "midi": 49,
      "hit": false,
      "t": 139600.00000000006,
      "d": 160,
      "v": 91
    },
    {
      "midi": 44,
      "hit": false,
      "t": 139800.00000000006,
      "d": 160,
      "v": 97
    },
    {
      "midi": 37,
      "hit": false,
      "t": 140000.00000000006,
      "d": 160,
      "v": 105
    },
    {
      "midi": 49,
      "hit": false,
      "t": 140000.00000000006,
      "d": 160,
      "v": 100
    },
    {
      "midi": 44,
      "hit": false,
      "t": 140200.00000000006,
      "d": 160,
      "v": 96
    },
    {
      "midi": 61,
      "hit": false,
      "t": 140399.99999999988,
      "d": 175,
      "v": 114
    },
    {
      "midi": 73,
      "hit": false,
      "t": 140399.99999999988,
      "d": 200,
      "v": 103
    },
    {
      "midi": 64,
      "hit": false,
      "t": 140399.99999999988,
      "d": 223.33333333334303,
      "v": 126
    },
    {
      "midi": 68,
      "hit": false,
      "t": 140399.99999999988,
      "d": 223.33333333334303,
      "v": 98
    },
    {
      "midi": 37,
      "hit": false,
      "t": 140400.00000000006,
      "d": 160,
      "v": 92
    },
    {
      "midi": 49,
      "hit": false,
      "t": 140400.00000000006,
      "d": 160,
      "v": 93
    },
    {
      "midi": 44,
      "hit": false,
      "t": 140600.00000000006,
      "d": 160,
      "v": 96
    },
    {
      "midi": 37,
      "hit": false,
      "t": 140800.00000000006,
      "d": 160,
      "v": 81
    },
    {
      "midi": 49,
      "hit": false,
      "t": 140800.00000000006,
      "d": 160,
      "v": 96
    },
    {
      "midi": 44,
      "hit": false,
      "t": 141000.00000000006,
      "d": 160,
      "v": 95
    },
    {
      "midi": 61,
      "hit": false,
      "t": 141199.99999999988,
      "d": 209.16666666665697,
      "v": 114
    },
    {
      "midi": 64,
      "hit": false,
      "t": 141199.99999999988,
      "d": 223.33333333331393,
      "v": 123
    },
    {
      "midi": 73,
      "hit": false,
      "t": 141199.99999999988,
      "d": 241.66666666665697,
      "v": 103
    },
    {
      "midi": 68,
      "hit": false,
      "t": 141199.99999999988,
      "d": 266.66666666665697,
      "v": 103
    },
    {
      "midi": 49,
      "hit": false,
      "t": 141200.00000000006,
      "d": 160,
      "v": 105
    },
    {
      "midi": 37,
      "hit": false,
      "t": 141200.00000000006,
      "d": 160,
      "v": 93
    },
    {
      "midi": 44,
      "hit": false,
      "t": 141400.00000000006,
      "d": 160,
      "v": 93
    },
    {
      "midi": 37,
      "hit": false,
      "t": 141600.00000000006,
      "d": 160,
      "v": 88
    },
    {
      "midi": 49,
      "hit": false,
      "t": 141600.00000000006,
      "d": 160,
      "v": 97
    },
    {
      "midi": 44,
      "hit": false,
      "t": 141800.00000000006,
      "d": 160,
      "v": 93
    },
    {
      "midi": 68,
      "hit": false,
      "t": 141999.99999999988,
      "d": 175,
      "v": 114
    },
    {
      "midi": 61,
      "hit": false,
      "t": 141999.99999999988,
      "d": 200,
      "v": 114
    },
    {
      "midi": 73,
      "hit": false,
      "t": 141999.99999999988,
      "d": 233.33333333334303,
      "v": 105
    },
    {
      "midi": 64,
      "hit": false,
      "t": 141999.99999999988,
      "d": 258.33333333334303,
      "v": 127
    },
    {
      "midi": 37,
      "hit": false,
      "t": 142000.00000000006,
      "d": 160,
      "v": 92
    },
    {
      "midi": 49,
      "hit": false,
      "t": 142000.00000000006,
      "d": 160,
      "v": 95
    },
    {
      "midi": 44,
      "hit": false,
      "t": 142200.00000000006,
      "d": 160,
      "v": 79
    },
    {
      "midi": 69,
      "hit": false,
      "t": 142399.99999999988,
      "d": 320,
      "v": 116
    },
    {
      "midi": 66,
      "hit": false,
      "t": 142399.99999999988,
      "d": 320,
      "v": 106
    },
    {
      "midi": 61,
      "hit": false,
      "t": 142399.99999999988,
      "d": 320,
      "v": 99
    },
    {
      "midi": 49,
      "hit": false,
      "t": 142400.00000000006,
      "d": 160,
      "v": 105
    },
    {
      "midi": 37,
      "hit": false,
      "t": 142400.00000000006,
      "d": 160,
      "v": 92
    },
    {
      "midi": 44,
      "hit": false,
      "t": 142600.00000000006,
      "d": 160,
      "v": 95
    },
    {
      "midi": 64,
      "hit": false,
      "t": 142799.99999999988,
      "d": 320,
      "v": 123
    },
    {
      "midi": 61,
      "hit": false,
      "t": 142799.99999999988,
      "d": 320,
      "v": 114
    },
    {
      "midi": 68,
      "hit": false,
      "t": 142799.99999999988,
      "d": 320,
      "v": 96
    },
    {
      "midi": 49,
      "hit": false,
      "t": 142800.00000000006,
      "d": 160,
      "v": 102
    },
    {
      "midi": 37,
      "hit": false,
      "t": 142800.00000000006,
      "d": 160,
      "v": 92
    },
    {
      "midi": 44,
      "hit": false,
      "t": 143000.00000000006,
      "d": 160,
      "v": 95
    },
    {
      "midi": 71,
      "hit": false,
      "t": 143199.99999999988,
      "d": 320,
      "v": 96
    },
    {
      "midi": 68,
      "hit": false,
      "t": 143199.99999999988,
      "d": 320,
      "v": 93
    },
    {
      "midi": 61,
      "hit": false,
      "t": 143199.99999999988,
      "d": 320,
      "v": 111
    },
    {
      "midi": 37,
      "hit": false,
      "t": 143200.00000000006,
      "d": 160,
      "v": 96
    },
    {
      "midi": 49,
      "hit": false,
      "t": 143200.00000000006,
      "d": 160,
      "v": 102
    },
    {
      "midi": 44,
      "hit": false,
      "t": 143400.00000000006,
      "d": 160,
      "v": 95
    },
    {
      "midi": 66,
      "hit": false,
      "t": 143599.99999999988,
      "d": 320,
      "v": 119
    },
    {
      "midi": 69,
      "hit": false,
      "t": 143599.99999999988,
      "d": 320,
      "v": 116
    },
    {
      "midi": 61,
      "hit": false,
      "t": 143599.99999999988,
      "d": 320,
      "v": 105
    },
    {
      "midi": 49,
      "hit": false,
      "t": 143600.00000000006,
      "d": 160,
      "v": 105
    },
    {
      "midi": 37,
      "hit": false,
      "t": 143600.00000000006,
      "d": 160,
      "v": 96
    },
    {
      "midi": 44,
      "hit": false,
      "t": 143800.00000000006,
      "d": 160,
      "v": 93
    },
    {
      "midi": 64,
      "hit": false,
      "t": 143999.99999999988,
      "d": 320,
      "v": 114
    },
    {
      "midi": 61,
      "hit": false,
      "t": 143999.99999999988,
      "d": 320,
      "v": 93
    },
    {
      "midi": 68,
      "hit": false,
      "t": 143999.99999999988,
      "d": 320,
      "v": 96
    },
    {
      "midi": 49,
      "hit": false,
      "t": 144000.00000000006,
      "d": 160,
      "v": 92
    },
    {
      "midi": 37,
      "hit": false,
      "t": 144000.00000000006,
      "d": 160,
      "v": 88
    },
    {
      "midi": 44,
      "hit": false,
      "t": 144200.00000000006,
      "d": 160,
      "v": 97
    },
    {
      "midi": 66,
      "hit": false,
      "t": 144399.99999999988,
      "d": 320,
      "v": 110
    },
    {
      "midi": 69,
      "hit": false,
      "t": 144399.99999999988,
      "d": 320,
      "v": 110
    },
    {
      "midi": 61,
      "hit": false,
      "t": 144399.99999999988,
      "d": 320,
      "v": 114
    },
    {
      "midi": 49,
      "hit": false,
      "t": 144400.00000000006,
      "d": 160,
      "v": 97
    },
    {
      "midi": 37,
      "hit": false,
      "t": 144400.00000000006,
      "d": 160,
      "v": 96
    },
    {
      "midi": 44,
      "hit": false,
      "t": 144600.00000000006,
      "d": 160,
      "v": 102
    },
    {
      "midi": 66,
      "hit": false,
      "t": 144799.99999999988,
      "d": 320,
      "v": 97
    },
    {
      "midi": 63,
      "hit": false,
      "t": 144799.99999999988,
      "d": 320,
      "v": 94
    },
    {
      "midi": 61,
      "hit": false,
      "t": 144799.99999999988,
      "d": 320,
      "v": 105
    },
    {
      "midi": 49,
      "hit": false,
      "t": 144800.00000000006,
      "d": 160,
      "v": 92
    },
    {
      "midi": 37,
      "hit": false,
      "t": 144800.00000000006,
      "d": 160,
      "v": 89
    },
    {
      "midi": 44,
      "hit": false,
      "t": 145000.00000000006,
      "d": 160,
      "v": 105
    },
    {
      "midi": 64,
      "hit": false,
      "t": 145199.99999999988,
      "d": 320,
      "v": 127
    },
    {
      "midi": 61,
      "hit": false,
      "t": 145199.99999999988,
      "d": 320,
      "v": 117
    },
    {
      "midi": 68,
      "hit": false,
      "t": 145199.99999999988,
      "d": 320,
      "v": 103
    },
    {
      "midi": 49,
      "hit": false,
      "t": 145200.00000000006,
      "d": 160,
      "v": 105
    },
    {
      "midi": 37,
      "hit": false,
      "t": 145200.00000000006,
      "d": 160,
      "v": 100
    },
    {
      "midi": 44,
      "hit": false,
      "t": 145400.00000000006,
      "d": 160,
      "v": 107
    },
    {
      "midi": 49,
      "hit": false,
      "t": 145600.00000000006,
      "d": 160,
      "v": 100
    },
    {
      "midi": 37,
      "hit": false,
      "t": 145600.00000000006,
      "d": 160,
      "v": 97
    },
    {
      "midi": 44,
      "hit": false,
      "t": 145800.00000000006,
      "d": 160,
      "v": 100
    },
    {
      "midi": 69,
      "hit": false,
      "t": 145999.99999999988,
      "d": 320,
      "v": 125
    },
    {
      "midi": 61,
      "hit": false,
      "t": 145999.99999999988,
      "d": 320,
      "v": 109
    },
    {
      "midi": 49,
      "hit": false,
      "t": 146000.00000000006,
      "d": 160,
      "v": 97
    },
    {
      "midi": 37,
      "hit": false,
      "t": 146000.00000000006,
      "d": 160,
      "v": 85
    },
    {
      "midi": 44,
      "hit": false,
      "t": 146200.00000000006,
      "d": 160,
      "v": 100
    },
    {
      "midi": 37,
      "hit": false,
      "t": 146400.00000000006,
      "d": 160,
      "v": 85
    },
    {
      "midi": 49,
      "hit": false,
      "t": 146400.00000000006,
      "d": 160,
      "v": 105
    },
    {
      "midi": 44,
      "hit": false,
      "t": 146600.00000000006,
      "d": 160,
      "v": 102
    },
    {
      "midi": 68,
      "hit": false,
      "t": 146799.99999999988,
      "d": 320,
      "v": 109
    },
    {
      "midi": 61,
      "hit": false,
      "t": 146799.99999999988,
      "d": 320,
      "v": 89
    },
    {
      "midi": 49,
      "hit": false,
      "t": 146800.00000000006,
      "d": 160,
      "v": 122
    },
    {
      "midi": 37,
      "hit": false,
      "t": 146800.00000000006,
      "d": 160,
      "v": 89
    },
    {
      "midi": 44,
      "hit": false,
      "t": 147000.00000000006,
      "d": 160,
      "v": 96
    },
    {
      "midi": 37,
      "hit": false,
      "t": 147200.00000000006,
      "d": 160,
      "v": 100
    },
    {
      "midi": 49,
      "hit": false,
      "t": 147200.00000000006,
      "d": 160,
      "v": 127
    },
    {
      "midi": 44,
      "hit": false,
      "t": 147400.00000000006,
      "d": 160,
      "v": 92
    },
    {
      "midi": 71,
      "hit": false,
      "t": 147599.99999999988,
      "d": 160,
      "v": 109
    },
    {
      "midi": 62,
      "hit": false,
      "t": 147599.99999999988,
      "d": 175,
      "v": 90
    },
    {
      "midi": 37,
      "hit": false,
      "t": 147600.00000000006,
      "d": 160,
      "v": 102
    },
    {
      "midi": 49,
      "hit": false,
      "t": 147600.00000000006,
      "d": 160,
      "v": 122
    },
    {
      "midi": 69,
      "hit": false,
      "t": 147799.99999999988,
      "d": 160,
      "v": 127
    },
    {
      "midi": 61,
      "hit": false,
      "t": 147799.99999999988,
      "d": 175,
      "v": 90
    },
    {
      "midi": 44,
      "hit": false,
      "t": 147800.00000000006,
      "d": 160,
      "v": 97
    },
    {
      "midi": 68,
      "hit": false,
      "t": 147999.99999999988,
      "d": 160,
      "v": 103
    },
    {
      "midi": 59,
      "hit": false,
      "t": 147999.99999999988,
      "d": 175,
      "v": 90
    },
    {
      "midi": 49,
      "hit": false,
      "t": 148000.00000000006,
      "d": 160,
      "v": 107
    },
    {
      "midi": 37,
      "hit": false,
      "t": 148000.00000000006,
      "d": 160,
      "v": 83
    },
    {
      "midi": 69,
      "hit": false,
      "t": 148199.99999999988,
      "d": 160,
      "v": 109
    },
    {
      "midi": 61,
      "hit": false,
      "t": 148199.99999999988,
      "d": 175,
      "v": 90
    },
    {
      "midi": 44,
      "hit": false,
      "t": 148200.00000000006,
      "d": 160,
      "v": 119
    },
    {
      "midi": 66,
      "hit": false,
      "t": 148399.99999999988,
      "d": 160,
      "v": 103
    },
    {
      "midi": 62,
      "hit": false,
      "t": 148399.99999999988,
      "d": 175,
      "v": 90
    },
    {
      "midi": 37,
      "hit": false,
      "t": 148400.00000000006,
      "d": 160,
      "v": 95
    },
    {
      "midi": 49,
      "hit": false,
      "t": 148400.00000000006,
      "d": 160,
      "v": 125
    },
    {
      "midi": 68,
      "hit": false,
      "t": 148599.99999999988,
      "d": 160,
      "v": 117
    },
    {
      "midi": 61,
      "hit": false,
      "t": 148599.99999999988,
      "d": 175,
      "v": 90
    },
    {
      "midi": 44,
      "hit": false,
      "t": 148600.00000000006,
      "d": 160,
      "v": 100
    },
    {
      "midi": 74,
      "hit": false,
      "t": 148799.99999999988,
      "d": 80,
      "v": 105
    },
    {
      "midi": 43,
      "hit": false,
      "t": 148800.00000000006,
      "d": 750,
      "v": 104
    },
    {
      "midi": 55,
      "hit": false,
      "t": 148800.00000000006,
      "d": 766.666666666657,
      "v": 112
    },
    {
      "midi": 73,
      "hit": false,
      "t": 148899.99999999988,
      "d": 80,
      "v": 86
    },
    {
      "midi": 72,
      "hit": false,
      "t": 148999.99999999988,
      "d": 80,
      "v": 88
    },
    {
      "midi": 71,
      "hit": false,
      "t": 149099.99999999988,
      "d": 80,
      "v": 86
    },
    {
      "midi": 70,
      "hit": false,
      "t": 149199.99999999988,
      "d": 80,
      "v": 91
    },
    {
      "midi": 71,
      "hit": false,
      "t": 149299.99999999988,
      "d": 80,
      "v": 77
    },
    {
      "midi": 72,
      "hit": false,
      "t": 149399.99999999988,
      "d": 80,
      "v": 89
    },
    {
      "midi": 73,
      "hit": false,
      "t": 149499.99999999988,
      "d": 80,
      "v": 93
    },
    {
      "midi": 74,
      "hit": false,
      "t": 149599.99999999988,
      "d": 80,
      "v": 103
    },
    {
      "midi": 57,
      "hit": false,
      "t": 149600.00000000006,
      "d": 758.333333333343,
      "v": 94
    },
    {
      "midi": 45,
      "hit": false,
      "t": 149600.00000000006,
      "d": 775,
      "v": 107
    },
    {
      "midi": 73,
      "hit": false,
      "t": 149699.99999999988,
      "d": 80,
      "v": 95
    },
    {
      "midi": 72,
      "hit": false,
      "t": 149799.99999999988,
      "d": 80,
      "v": 94
    },
    {
      "midi": 71,
      "hit": false,
      "t": 149899.99999999988,
      "d": 80,
      "v": 72
    },
    {
      "midi": 70,
      "hit": false,
      "t": 149999.99999999988,
      "d": 80,
      "v": 91
    },
    {
      "midi": 71,
      "hit": false,
      "t": 150099.99999999988,
      "d": 80,
      "v": 65
    },
    {
      "midi": 72,
      "hit": false,
      "t": 150199.99999999988,
      "d": 80,
      "v": 86
    },
    {
      "midi": 73,
      "hit": false,
      "t": 150299.99999999988,
      "d": 80,
      "v": 95
    },
    {
      "midi": 74,
      "hit": false,
      "t": 150399.99999999988,
      "d": 80,
      "v": 103
    },
    {
      "midi": 58,
      "hit": false,
      "t": 150400.00000000006,
      "d": 1141.666666666657,
      "v": 103
    },
    {
      "midi": 46,
      "hit": false,
      "t": 150400.00000000006,
      "d": 1175,
      "v": 100
    },
    {
      "midi": 73,
      "hit": false,
      "t": 150499.99999999988,
      "d": 80,
      "v": 95
    },
    {
      "midi": 72,
      "hit": false,
      "t": 150599.99999999988,
      "d": 80,
      "v": 97
    },
    {
      "midi": 71,
      "hit": false,
      "t": 150699.99999999988,
      "d": 80,
      "v": 81
    },
    {
      "midi": 70,
      "hit": false,
      "t": 150799.99999999988,
      "d": 80,
      "v": 93
    },
    {
      "midi": 71,
      "hit": false,
      "t": 150899.99999999988,
      "d": 80,
      "v": 71
    },
    {
      "midi": 72,
      "hit": false,
      "t": 150999.99999999988,
      "d": 80,
      "v": 105
    },
    {
      "midi": 73,
      "hit": false,
      "t": 151099.99999999988,
      "d": 80,
      "v": 81
    },
    {
      "midi": 74,
      "hit": false,
      "t": 151199.99999999988,
      "d": 80,
      "v": 100
    },
    {
      "midi": 73,
      "hit": false,
      "t": 151299.99999999988,
      "d": 80,
      "v": 94
    },
    {
      "midi": 72,
      "hit": false,
      "t": 151399.99999999988,
      "d": 80,
      "v": 105
    },
    {
      "midi": 71,
      "hit": false,
      "t": 151499.99999999988,
      "d": 80,
      "v": 82
    },
    {
      "midi": 70,
      "hit": false,
      "t": 151599.99999999988,
      "d": 80,
      "v": 91
    },
    {
      "midi": 48,
      "hit": false,
      "t": 151600.00000000006,
      "d": 358.33333333334303,
      "v": 95
    },
    {
      "midi": 60,
      "hit": false,
      "t": 151600.00000000006,
      "d": 391.66666666668607,
      "v": 95
    },
    {
      "midi": 71,
      "hit": false,
      "t": 151699.99999999988,
      "d": 80,
      "v": 78
    },
    {
      "midi": 72,
      "hit": false,
      "t": 151799.99999999988,
      "d": 80,
      "v": 105
    },
    {
      "midi": 73,
      "hit": false,
      "t": 151899.99999999988,
      "d": 80,
      "v": 103
    },
    {
      "midi": 74,
      "hit": false,
      "t": 151999.99999999988,
      "d": 80,
      "v": 109
    },
    {
      "midi": 50,
      "hit": false,
      "t": 152000.0000000001,
      "d": 766.666666666657,
      "v": 91
    },
    {
      "midi": 62,
      "hit": false,
      "t": 152000.0000000001,
      "d": 775,
      "v": 107
    },
    {
      "midi": 73,
      "hit": false,
      "t": 152099.99999999988,
      "d": 80,
      "v": 95
    },
    {
      "midi": 72,
      "hit": false,
      "t": 152199.99999999988,
      "d": 80,
      "v": 57
    },
    {
      "midi": 71,
      "hit": false,
      "t": 152299.99999999988,
      "d": 80,
      "v": 93
    },
    {
      "midi": 70,
      "hit": false,
      "t": 152399.99999999988,
      "d": 80,
      "v": 75
    },
    {
      "midi": 71,
      "hit": false,
      "t": 152499.99999999988,
      "d": 80,
      "v": 75
    },
    {
      "midi": 72,
      "hit": false,
      "t": 152599.99999999988,
      "d": 80,
      "v": 95
    },
    {
      "midi": 73,
      "hit": false,
      "t": 152699.99999999988,
      "d": 80,
      "v": 103
    },
    {
      "midi": 74,
      "hit": false,
      "t": 152799.99999999988,
      "d": 80,
      "v": 100
    },
    {
      "midi": 53,
      "hit": false,
      "t": 152800.0000000001,
      "d": 375,
      "v": 98
    },
    {
      "midi": 65,
      "hit": false,
      "t": 152800.0000000001,
      "d": 383.33333333334303,
      "v": 98
    },
    {
      "midi": 73,
      "hit": false,
      "t": 152899.99999999988,
      "d": 80,
      "v": 98
    },
    {
      "midi": 72,
      "hit": false,
      "t": 152999.99999999988,
      "d": 80,
      "v": 97
    },
    {
      "midi": 71,
      "hit": false,
      "t": 153099.99999999988,
      "d": 80,
      "v": 81
    },
    {
      "midi": 70,
      "hit": false,
      "t": 153199.99999999988,
      "d": 80,
      "v": 94
    },
    {
      "midi": 64,
      "hit": false,
      "t": 153200.0000000001,
      "d": 375,
      "v": 100
    },
    {
      "midi": 52,
      "hit": false,
      "t": 153200.0000000001,
      "d": 383.33333333334303,
      "v": 100
    },
    {
      "midi": 71,
      "hit": false,
      "t": 153299.99999999988,
      "d": 80,
      "v": 89
    },
    {
      "midi": 72,
      "hit": false,
      "t": 153399.99999999988,
      "d": 80,
      "v": 100
    },
    {
      "midi": 73,
      "hit": false,
      "t": 153499.99999999988,
      "d": 80,
      "v": 95
    },
    {
      "midi": 74,
      "hit": false,
      "t": 153599.99999999988,
      "d": 80,
      "v": 117
    },
    {
      "midi": 51,
      "hit": false,
      "t": 153600.0000000001,
      "d": 758.333333333343,
      "v": 91
    },
    {
      "midi": 63,
      "hit": false,
      "t": 153600.0000000001,
      "d": 775,
      "v": 103
    },
    {
      "midi": 73,
      "hit": false,
      "t": 153699.99999999988,
      "d": 80,
      "v": 105
    },
    {
      "midi": 72,
      "hit": false,
      "t": 153799.99999999988,
      "d": 80,
      "v": 111
    },
    {
      "midi": 71,
      "hit": false,
      "t": 153899.99999999988,
      "d": 80,
      "v": 87
    },
    {
      "midi": 70,
      "hit": false,
      "t": 153999.99999999988,
      "d": 80,
      "v": 89
    },
    {
      "midi": 71,
      "hit": false,
      "t": 154099.99999999988,
      "d": 80,
      "v": 88
    },
    {
      "midi": 72,
      "hit": false,
      "t": 154199.99999999988,
      "d": 80,
      "v": 117
    },
    {
      "midi": 73,
      "hit": false,
      "t": 154299.99999999988,
      "d": 80,
      "v": 117
    },
    {
      "midi": 74,
      "hit": false,
      "t": 154399.99999999988,
      "d": 80,
      "v": 117
    },
    {
      "midi": 58,
      "hit": false,
      "t": 154400.0000000001,
      "d": 758.333333333343,
      "v": 99
    },
    {
      "midi": 46,
      "hit": false,
      "t": 154400.0000000001,
      "d": 783.333333333343,
      "v": 99
    },
    {
      "midi": 73,
      "hit": false,
      "t": 154499.99999999988,
      "d": 80,
      "v": 105
    },
    {
      "midi": 72,
      "hit": false,
      "t": 154599.99999999988,
      "d": 80,
      "v": 111
    },
    {
      "midi": 71,
      "hit": false,
      "t": 154699.99999999988,
      "d": 80,
      "v": 87
    },
    {
      "midi": 70,
      "hit": false,
      "t": 154799.99999999988,
      "d": 80,
      "v": 89
    },
    {
      "midi": 71,
      "hit": false,
      "t": 154899.99999999988,
      "d": 80,
      "v": 88
    },
    {
      "midi": 72,
      "hit": false,
      "t": 154999.99999999988,
      "d": 80,
      "v": 117
    },
    {
      "midi": 73,
      "hit": false,
      "t": 155099.99999999988,
      "d": 80,
      "v": 117
    },
    {
      "midi": 62,
      "hit": false,
      "t": 155199.99999999988,
      "d": 320,
      "v": 104
    },
    {
      "midi": 38,
      "hit": false,
      "t": 155200.0000000001,
      "d": 640,
      "v": 92
    },
    {
      "midi": 62,
      "hit": false,
      "t": 155599.99999999988,
      "d": 125,
      "v": 109
    },
    {
      "midi": 64,
      "hit": false,
      "t": 155999.99999999988,
      "d": 160,
      "v": 77
    },
    {
      "midi": 62,
      "hit": false,
      "t": 155999.99999999988,
      "d": 160,
      "v": 88
    },
    {
      "midi": 38,
      "hit": false,
      "t": 156000.0000000001,
      "d": 640,
      "v": 100
    },
    {
      "midi": 62,
      "hit": false,
      "t": 156199.99999999988,
      "d": 160,
      "v": 81
    },
    {
      "midi": 64,
      "hit": false,
      "t": 156199.99999999988,
      "d": 160,
      "v": 86
    },
    {
      "midi": 64,
      "hit": false,
      "t": 156399.99999999988,
      "d": 275,
      "v": 90
    },
    {
      "midi": 62,
      "hit": false,
      "t": 156399.99999999988,
      "d": 291.66666666665697,
      "v": 99
    },
    {
      "midi": 65,
      "hit": false,
      "t": 156799.99999999988,
      "d": 320,
      "v": 102
    },
    {
      "midi": 62,
      "hit": false,
      "t": 156799.99999999988,
      "d": 320,
      "v": 99
    },
    {
      "midi": 38,
      "hit": false,
      "t": 156800.0000000001,
      "d": 640,
      "v": 110
    },
    {
      "midi": 62,
      "hit": false,
      "t": 157199.99999999988,
      "d": 91.66666666665697,
      "v": 99
    },
    {
      "midi": 65,
      "hit": false,
      "t": 157199.99999999988,
      "d": 100,
      "v": 94
    },
    {
      "midi": 64,
      "hit": false,
      "t": 157599.99999999988,
      "d": 160,
      "v": 109
    },
    {
      "midi": 67,
      "hit": false,
      "t": 157599.99999999988,
      "d": 160,
      "v": 104
    },
    {
      "midi": 38,
      "hit": false,
      "t": 157600.0000000001,
      "d": 640,
      "v": 116
    },
    {
      "midi": 64,
      "hit": false,
      "t": 157799.99999999988,
      "d": 160,
      "v": 99
    },
    {
      "midi": 67,
      "hit": false,
      "t": 157799.99999999988,
      "d": 160,
      "v": 99
    },
    {
      "midi": 64,
      "hit": false,
      "t": 157999.99999999988,
      "d": 320,
      "v": 97
    },
    {
      "midi": 67,
      "hit": false,
      "t": 157999.99999999988,
      "d": 320,
      "v": 99
    },
    {
      "midi": 62,
      "hit": false,
      "t": 158399.99999999988,
      "d": 320,
      "v": 94
    },
    {
      "midi": 38,
      "hit": false,
      "t": 158400.0000000001,
      "d": 640,
      "v": 89
    },
    {
      "midi": 62,
      "hit": false,
      "t": 158799.99999999988,
      "d": 100,
      "v": 90
    },
    {
      "midi": 64,
      "hit": false,
      "t": 159199.99999999988,
      "d": 160,
      "v": 83
    },
    {
      "midi": 62,
      "hit": false,
      "t": 159199.99999999988,
      "d": 160,
      "v": 94
    },
    {
      "midi": 38,
      "hit": false,
      "t": 159200.0000000001,
      "d": 640,
      "v": 96
    },
    {
      "midi": 62,
      "hit": false,
      "t": 159399.99999999988,
      "d": 160,
      "v": 81
    },
    {
      "midi": 64,
      "hit": false,
      "t": 159399.99999999988,
      "d": 160,
      "v": 79
    },
    {
      "midi": 64,
      "hit": false,
      "t": 159599.99999999988,
      "d": 320,
      "v": 73
    },
    {
      "midi": 62,
      "hit": false,
      "t": 159599.99999999988,
      "d": 320,
      "v": 94
    },
    {
      "midi": 65,
      "hit": false,
      "t": 159999.99999999988,
      "d": 320,
      "v": 83
    },
    {
      "midi": 62,
      "hit": false,
      "t": 159999.99999999988,
      "d": 320,
      "v": 94
    },
    {
      "midi": 38,
      "hit": false,
      "t": 160000.0000000001,
      "d": 640,
      "v": 110
    },
    {
      "midi": 62,
      "hit": false,
      "t": 160399.99999999988,
      "d": 108.33333333334303,
      "v": 112
    },
    {
      "midi": 65,
      "hit": false,
      "t": 160399.99999999988,
      "d": 116.66666666668607,
      "v": 112
    },
    {
      "midi": 67,
      "hit": false,
      "t": 160799.9999999999,
      "d": 160,
      "v": 88
    },
    {
      "midi": 64,
      "hit": false,
      "t": 160799.9999999999,
      "d": 160,
      "v": 83
    },
    {
      "midi": 38,
      "hit": false,
      "t": 160800.0000000001,
      "d": 533.333333333343,
      "v": 110
    },
    {
      "midi": 67,
      "hit": false,
      "t": 160999.9999999999,
      "d": 160,
      "v": 104
    },
    {
      "midi": 64,
      "hit": false,
      "t": 160999.9999999999,
      "d": 160,
      "v": 94
    },
    {
      "midi": 67,
      "hit": false,
      "t": 161199.9999999999,
      "d": 320,
      "v": 104
    },
    {
      "midi": 64,
      "hit": false,
      "t": 161199.9999999999,
      "d": 320,
      "v": 104
    },
    {
      "midi": 50,
      "hit": false,
      "t": 161400.0000000001,
      "d": 150,
      "v": 100
    },
    {
      "midi": 38,
      "hit": false,
      "t": 161400.0000000001,
      "d": 183.33333333334303,
      "v": 114
    },
    {
      "midi": 74,
      "hit": false,
      "t": 161599.9999999999,
      "d": 320.0000000000291,
      "v": 114
    },
    {
      "midi": 69,
      "hit": false,
      "t": 161599.9999999999,
      "d": 447.5000000000291,
      "v": 89
    },
    {
      "midi": 65,
      "hit": false,
      "t": 161599.9999999999,
      "d": 447.5000000000291,
      "v": 89
    },
    {
      "midi": 38,
      "hit": false,
      "t": 161605.0000000001,
      "d": 352.5,
      "v": 112
    },
    {
      "midi": 50,
      "hit": false,
      "t": 161610.0000000001,
      "d": 322.5,
      "v": 100
    },
    {
      "midi": 45,
      "hit": false,
      "t": 161999.16666666674,
      "d": 281.66666666665697,
      "v": 100
    },
    {
      "midi": 74,
      "hit": false,
      "t": 161999.99999999994,
      "d": 91.66666666665697,
      "v": 106
    },
    {
      "midi": 38,
      "hit": false,
      "t": 162390.00000000006,
      "d": 390,
      "v": 99
    },
    {
      "midi": 50,
      "hit": false,
      "t": 162398.3333333334,
      "d": 326.66666666665697,
      "v": 112
    },
    {
      "midi": 73,
      "hit": false,
      "t": 162399.99999999994,
      "d": 320,
      "v": 112
    },
    {
      "midi": 69,
      "hit": false,
      "t": 162399.99999999994,
      "d": 447.5,
      "v": 96
    },
    {
      "midi": 65,
      "hit": false,
      "t": 162399.99999999994,
      "d": 447.5,
      "v": 98
    },
    {
      "midi": 45,
      "hit": false,
      "t": 162795.00000000006,
      "d": 298.33333333334303,
      "v": 106
    },
    {
      "midi": 73,
      "hit": false,
      "t": 162799.99999999994,
      "d": 91.66666666665697,
      "v": 112
    },
    {
      "midi": 38,
      "hit": false,
      "t": 163196.66666666674,
      "d": 383.33333333334303,
      "v": 106
    },
    {
      "midi": 72,
      "hit": false,
      "t": 163199.99999999994,
      "d": 320,
      "v": 114
    },
    {
      "midi": 69,
      "hit": false,
      "t": 163199.99999999994,
      "d": 447.5,
      "v": 84
    },
    {
      "midi": 65,
      "hit": false,
      "t": 163199.99999999994,
      "d": 447.5,
      "v": 91
    },
    {
      "midi": 50,
      "hit": false,
      "t": 163202.5000000001,
      "d": 342.5,
      "v": 102
    },
    {
      "midi": 72,
      "hit": false,
      "t": 163599.99999999994,
      "d": 108.33333333334303,
      "v": 112
    },
    {
      "midi": 45,
      "hit": false,
      "t": 163605.0000000001,
      "d": 238.33333333334303,
      "v": 94
    },
    {
      "midi": 38,
      "hit": false,
      "t": 163989.16666666677,
      "d": 451.66666666665697,
      "v": 102
    },
    {
      "midi": 50,
      "hit": false,
      "t": 163994.16666666677,
      "d": 404.16666666665697,
      "v": 99
    },
    {
      "midi": 71,
      "hit": false,
      "t": 163999.99999999994,
      "d": 160,
      "v": 114
    },
    {
      "midi": 69,
      "hit": false,
      "t": 163999.99999999994,
      "d": 447.5,
      "v": 84
    },
    {
      "midi": 65,
      "hit": false,
      "t": 163999.99999999994,
      "d": 447.5,
      "v": 89
    },
    {
      "midi": 71,
      "hit": false,
      "t": 164199.99999999994,
      "d": 160,
      "v": 103
    },
    {
      "midi": 71,
      "hit": false,
      "t": 164399.99999999994,
      "d": 308.33333333334303,
      "v": 118
    },
    {
      "midi": 45,
      "hit": false,
      "t": 164400.0000000001,
      "d": 225,
      "v": 88
    },
    {
      "midi": 38,
      "hit": false,
      "t": 164796.66666666674,
      "d": 507.5,
      "v": 97
    },
    {
      "midi": 74,
      "hit": false,
      "t": 164799.99999999994,
      "d": 320,
      "v": 111
    },
    {
      "midi": 69,
      "hit": false,
      "t": 164799.99999999994,
      "d": 447.5,
      "v": 80
    },
    {
      "midi": 65,
      "hit": false,
      "t": 164799.99999999994,
      "d": 447.5,
      "v": 96
    },
    {
      "midi": 50,
      "hit": false,
      "t": 164803.3333333334,
      "d": 432.5,
      "v": 110
    },
    {
      "midi": 45,
      "hit": false,
      "t": 165191.66666666674,
      "d": 295,
      "v": 89
    },
    {
      "midi": 74,
      "hit": false,
      "t": 165199.99999999994,
      "d": 91.66666666665697,
      "v": 111
    },
    {
      "midi": 38,
      "hit": false,
      "t": 165591.66666666674,
      "d": 461.66666666665697,
      "v": 105
    },
    {
      "midi": 50,
      "hit": false,
      "t": 165596.66666666674,
      "d": 427.5,
      "v": 90
    },
    {
      "midi": 73,
      "hit": false,
      "t": 165599.99999999994,
      "d": 320,
      "v": 113
    },
    {
      "midi": 69,
      "hit": false,
      "t": 165599.99999999994,
      "d": 447.5,
      "v": 78
    },
    {
      "midi": 65,
      "hit": false,
      "t": 165599.99999999994,
      "d": 447.5,
      "v": 92
    },
    {
      "midi": 45,
      "hit": false,
      "t": 165988.3333333334,
      "d": 300,
      "v": 88
    },
    {
      "midi": 73,
      "hit": false,
      "t": 165999.99999999994,
      "d": 75,
      "v": 109
    },
    {
      "midi": 38,
      "hit": false,
      "t": 166390.8333333334,
      "d": 465.83333333331393,
      "v": 100
    },
    {
      "midi": 50,
      "hit": false,
      "t": 166395.00000000006,
      "d": 422.5,
      "v": 116
    },
    {
      "midi": 72,
      "hit": false,
      "t": 166399.99999999994,
      "d": 320,
      "v": 113
    },
    {
      "midi": 69,
      "hit": false,
      "t": 166399.99999999994,
      "d": 447.5,
      "v": 89
    },
    {
      "midi": 65,
      "hit": false,
      "t": 166399.99999999994,
      "d": 447.5,
      "v": 107
    },
    {
      "midi": 45,
      "hit": false,
      "t": 166784.16666666672,
      "d": 323.33333333334303,
      "v": 106
    },
    {
      "midi": 72,
      "hit": false,
      "t": 166799.99999999994,
      "d": 75,
      "v": 113
    },
    {
      "midi": 38,
      "hit": false,
      "t": 167183.3333333334,
      "d": 514.166666666657,
      "v": 105
    },
    {
      "midi": 50,
      "hit": false,
      "t": 167188.3333333334,
      "d": 459.16666666665697,
      "v": 123
    },
    {
      "midi": 71,
      "hit": false,
      "t": 167199.99999999994,
      "d": 160,
      "v": 114
    },
    {
      "midi": 69,
      "hit": false,
      "t": 167199.99999999994,
      "d": 447.5,
      "v": 92
    },
    {
      "midi": 65,
      "hit": false,
      "t": 167199.99999999994,
      "d": 447.5,
      "v": 92
    },
    {
      "midi": 71,
      "hit": false,
      "t": 167399.99999999994,
      "d": 160,
      "v": 114
    },
    {
      "midi": 45,
      "hit": false,
      "t": 167590.00000000006,
      "d": 284.16666666665697,
      "v": 123
    },
    {
      "midi": 71,
      "hit": false,
      "t": 167599.99999999994,
      "d": 241.66666666665697,
      "v": 114
    },
    {
      "midi": 54,
      "hit": false,
      "t": 167999.99999999994,
      "d": 640,
      "v": 100
    },
    {
      "midi": 63,
      "hit": false,
      "t": 167999.99999999994,
      "d": 640,
      "v": 103
    },
    {
      "midi": 51,
      "hit": false,
      "t": 168006.66666666672,
      "d": 176.66666666665697,
      "v": 105
    },
    {
      "midi": 39,
      "hit": false,
      "t": 168009.16666666672,
      "d": 209.16666666665697,
      "v": 110
    },
    {
      "midi": 46,
      "hit": false,
      "t": 168210.83333333337,
      "d": 105,
      "v": 110
    },
    {
      "midi": 51,
      "hit": false,
      "t": 168400.00000000003,
      "d": 195,
      "v": 114
    },
    {
      "midi": 39,
      "hit": false,
      "t": 168404.1666666667,
      "d": 210,
      "v": 114
    },
    {
      "midi": 46,
      "hit": false,
      "t": 168595.00000000003,
      "d": 105,
      "v": 105
    },
    {
      "midi": 39,
      "hit": false,
      "t": 168787.50000000003,
      "d": 249.16666666668607,
      "v": 117
    },
    {
      "midi": 51,
      "hit": false,
      "t": 168788.33333333337,
      "d": 220.83333333334303,
      "v": 117
    },
    {
      "midi": 65,
      "hit": false,
      "t": 168799.99999999994,
      "d": 640,
      "v": 105
    },
    {
      "midi": 56,
      "hit": false,
      "t": 168799.99999999994,
      "d": 650,
      "v": 100
    },
    {
      "midi": 46,
      "hit": false,
      "t": 168993.33333333337,
      "d": 100,
      "v": 105
    },
    {
      "midi": 39,
      "hit": false,
      "t": 169193.33333333337,
      "d": 250.83333333331393,
      "v": 110
    },
    {
      "midi": 51,
      "hit": false,
      "t": 169195.00000000003,
      "d": 231.66666666665697,
      "v": 111
    },
    {
      "midi": 46,
      "hit": false,
      "t": 169406.6666666667,
      "d": 95.83333333334303,
      "v": 106
    },
    {
      "midi": 51,
      "hit": false,
      "t": 169598.33333333337,
      "d": 220,
      "v": 97
    },
    {
      "midi": 39,
      "hit": false,
      "t": 169598.33333333337,
      "d": 237.5,
      "v": 114
    },
    {
      "midi": 72,
      "hit": false,
      "t": 169599.99999999994,
      "d": 640,
      "v": 107
    },
    {
      "midi": 63,
      "hit": false,
      "t": 169599.99999999994,
      "d": 650,
      "v": 100
    },
    {
      "midi": 46,
      "hit": false,
      "t": 169806.66666666672,
      "d": 95.83333333331393,
      "v": 111
    },
    {
      "midi": 39,
      "hit": false,
      "t": 169998.33333333337,
      "d": 243.33333333337214,
      "v": 102
    },
    {
      "midi": 51,
      "hit": false,
      "t": 170001.66666666672,
      "d": 231.66666666668607,
      "v": 106
    },
    {
      "midi": 46,
      "hit": false,
      "t": 170212.50000000006,
      "d": 101.66666666668607,
      "v": 110
    },
    {
      "midi": 79,
      "hit": false,
      "t": 170399.99999999994,
      "d": 640,
      "v": 112
    },
    {
      "midi": 70,
      "hit": false,
      "t": 170399.99999999994,
      "d": 650,
      "v": 100
    },
    {
      "midi": 39,
      "hit": false,
      "t": 170401.66666666674,
      "d": 222.5,
      "v": 102
    },
    {
      "midi": 51,
      "hit": false,
      "t": 170405.0000000001,
      "d": 210,
      "v": 106
    },
    {
      "midi": 46,
      "hit": false,
      "t": 170604.16666666674,
      "d": 105,
      "v": 104
    },
    {
      "midi": 39,
      "hit": false,
      "t": 170793.3333333334,
      "d": 248.33333333331393,
      "v": 104
    },
    {
      "midi": 51,
      "hit": false,
      "t": 170795.8333333334,
      "d": 220.83333333331393,
      "v": 116
    },
    {
      "midi": 46,
      "hit": false,
      "t": 171005.00000000006,
      "d": 100,
      "v": 105
    },
    {
      "midi": 66,
      "hit": false,
      "t": 171199.99999999994,
      "d": 640,
      "v": 102
    },
    {
      "midi": 58,
      "hit": false,
      "t": 171199.99999999994,
      "d": 650,
      "v": 100
    },
    {
      "midi": 39,
      "hit": false,
      "t": 171200.00000000006,
      "d": 226.66666666665697,
      "v": 119
    },
    {
      "midi": 51,
      "hit": false,
      "t": 171201.66666666672,
      "d": 235,
      "v": 99
    },
    {
      "midi": 46,
      "hit": false,
      "t": 171413.33333333337,
      "d": 93.33333333334303,
      "v": 110
    },
    {
      "midi": 39,
      "hit": false,
      "t": 171593.33333333337,
      "d": 228.33333333331393,
      "v": 122
    },
    {
      "midi": 51,
      "hit": false,
      "t": 171595.83333333337,
      "d": 218.33333333331393,
      "v": 116
    },
    {
      "midi": 46,
      "hit": false,
      "t": 171807.50000000003,
      "d": 96.66666666665697,
      "v": 103
    },
    {
      "midi": 39,
      "hit": false,
      "t": 171995.00000000003,
      "d": 215,
      "v": 104
    },
    {
      "midi": 51,
      "hit": false,
      "t": 171996.6666666667,
      "d": 210,
      "v": 127
    },
    {
      "midi": 68,
      "hit": false,
      "t": 171999.99999999994,
      "d": 640,
      "v": 112
    },
    {
      "midi": 60,
      "hit": false,
      "t": 171999.99999999994,
      "d": 650,
      "v": 100
    },
    {
      "midi": 46,
      "hit": false,
      "t": 172203.33333333334,
      "d": 100.0000000000291,
      "v": 121
    },
    {
      "midi": 39,
      "hit": false,
      "t": 172396.66666666672,
      "d": 213.33333333331393,
      "v": 122
    },
    {
      "midi": 51,
      "hit": false,
      "t": 172398.33333333337,
      "d": 207.5,
      "v": 127
    },
    {
      "midi": 46,
      "hit": false,
      "t": 172601.66666666672,
      "d": 95.83333333331393,
      "v": 114
    },
    {
      "midi": 39,
      "hit": false,
      "t": 172790.83333333337,
      "d": 214.16666666665697,
      "v": 118
    },
    {
      "midi": 51,
      "hit": false,
      "t": 172792.50000000003,
      "d": 213.33333333334303,
      "v": 126
    },
    {
      "midi": 73,
      "hit": false,
      "t": 172799.99999999994,
      "d": 640,
      "v": 116
    },
    {
      "midi": 65,
      "hit": false,
      "t": 172799.99999999994,
      "d": 650,
      "v": 100
    },
    {
      "midi": 46,
      "hit": false,
      "t": 172994.1666666667,
      "d": 105.0000000000291,
      "v": 121
    },
    {
      "midi": 51,
      "hit": false,
      "t": 173185.83333333337,
      "d": 223.33333333334303,
      "v": 113
    },
    {
      "midi": 39,
      "hit": false,
      "t": 173187.50000000003,
      "d": 200,
      "v": 127
    },
    {
      "midi": 46,
      "hit": false,
      "t": 173390.83333333337,
      "d": 122.5,
      "v": 122
    },
    {
      "midi": 51,
      "hit": false,
      "t": 173585.83333333337,
      "d": 237.5,
      "v": 106
    },
    {
      "midi": 39,
      "hit": false,
      "t": 173588.33333333337,
      "d": 241.66666666665697,
      "v": 126
    },
    {
      "midi": 69,
      "hit": false,
      "t": 173599.99999999994,
      "d": 308.33333333334303,
      "v": 100
    },
    {
      "midi": 78,
      "hit": false,
      "t": 173599.99999999994,
      "d": 320,
      "v": 127
    },
    {
      "midi": 46,
      "hit": false,
      "t": 173793.33333333337,
      "d": 119.16666666665697,
      "v": 118
    },
    {
      "midi": 39,
      "hit": false,
      "t": 173991.6666666667,
      "d": 78.33333333331393,
      "v": 127
    },
    {
      "midi": 51,
      "hit": false,
      "t": 173993.33333333334,
      "d": 74.16666666665697,
      "v": 121
    },
    {
      "midi": 71,
      "hit": false,
      "t": 173999.99999999994,
      "d": 106.66666666665697,
      "v": 111
    },
    {
      "midi": 77,
      "hit": false,
      "t": 173999.99999999994,
      "d": 106.66666666665697,
      "v": 126
    },
    {
      "midi": 51,
      "hit": false,
      "t": 174111.66666666666,
      "d": 77.4999999999709,
      "v": 127
    },
    {
      "midi": 39,
      "hit": false,
      "t": 174113.3333333333,
      "d": 66.66666666665697,
      "v": 127
    },
    {
      "midi": 71,
      "hit": false,
      "t": 174133.33333333326,
      "d": 106.66666666665697,
      "v": 127
    },
    {
      "midi": 77,
      "hit": false,
      "t": 174133.33333333326,
      "d": 106.66666666665697,
      "v": 109
    },
    {
      "midi": 71,
      "hit": false,
      "t": 174266.66666666657,
      "d": 106.66666666665697,
      "v": 127
    },
    {
      "midi": 77,
      "hit": false,
      "t": 174266.66666666657,
      "d": 106.66666666665697,
      "v": 112
    },
    {
      "midi": 39,
      "hit": false,
      "t": 174289.16666666663,
      "d": 74.16666666665697,
      "v": 127
    },
    {
      "midi": 51,
      "hit": false,
      "t": 174291.66666666663,
      "d": 64.16666666665697,
      "v": 127
    },
    {
      "midi": 71,
      "hit": false,
      "t": 174399.99999999988,
      "d": 166.66666666665697,
      "v": 123
    },
    {
      "midi": 77,
      "hit": false,
      "t": 174399.99999999988,
      "d": 166.66666666665697,
      "v": 118
    },
    {
      "midi": 65,
      "hit": false,
      "t": 174399.99999999988,
      "d": 175,
      "v": 127
    },
    {
      "midi": 51,
      "hit": false,
      "t": 174415.83333333328,
      "d": 63.333333333343035,
      "v": 127
    },
    {
      "midi": 39,
      "hit": false,
      "t": 174418.33333333328,
      "d": 63.333333333343035,
      "v": 127
    },
    {
      "midi": 65,
      "hit": false,
      "t": 175999.99999999988,
      "d": 4325,
      "v": 103
    },
    {
      "midi": 77,
      "hit": false,
      "t": 175999.99999999988,
      "d": 4400,
      "v": 82
    },
    {
      "midi": 70,
      "hit": false,
      "t": 175999.99999999988,
      "d": 4466.666666666657,
      "v": 77
    },
    {
      "midi": 72,
      "hit": false,
      "t": 175999.99999999988,
      "d": 4475,
      "v": 94
    },
    {
      "midi": 53,
      "hit": false,
      "t": 175999.99999999997,
      "d": 4633.333333333343,
      "v": 100
    },
    {
      "midi": 41,
      "hit": false,
      "t": 175999.99999999997,
      "d": 4650,
      "v": 85
    }
  ]
}