{
  "jsonPath": "Unknown/Unknown/Kenny Rogers And Dottie West/all-i-ever-need-is-you.json",
  "path": "Unknown\\Unknown\\Kenny Rogers And Dottie West\\All I Ever Need Is You.mid",
  "name": "All I Ever Need Is You",
  "difficulty": "Advanced",
  "bpm": 190.00570017100512,
  "notes": [
    {
      "midi": 61,
      "hit": false,
      "t": 12627.910625000002,
      "d": 2118.3575,
      "v": 94
    },
    {
      "midi": 57,
      "hit": false,
      "t": 12631.200000000003,
      "d": 2118.3575,
      "v": 103
    },
    {
      "midi": 56,
      "hit": false,
      "t": 15154.150625000002,
      "d": 1065.7574999999997,
      "v": 91
    },
    {
      "midi": 61,
      "hit": false,
      "t": 15154.150625000002,
      "d": 1065.7574999999997,
      "v": 89
    },
    {
      "midi": 53,
      "hit": false,
      "t": 15154.150625000002,
      "d": 1085.4937499999996,
      "v": 98
    },
    {
      "midi": 59,
      "hit": false,
      "t": 15154.150625000002,
      "d": 1085.4937499999996,
      "v": 101
    },
    {
      "midi": 57,
      "hit": false,
      "t": 17683.68,
      "d": 1355.2224999999999,
      "v": 102
    },
    {
      "midi": 54,
      "hit": false,
      "t": 17683.68,
      "d": 1365.0906250000007,
      "v": 90
    },
    {
      "midi": 61,
      "hit": false,
      "t": 17683.68,
      "d": 1365.0906250000007,
      "v": 94
    },
    {
      "midi": 54,
      "hit": false,
      "t": 19140.873125000002,
      "d": 49.34062500000073,
      "v": 97
    },
    {
      "midi": 57,
      "hit": false,
      "t": 19140.873125000002,
      "d": 49.34062500000073,
      "v": 105
    },
    {
      "midi": 61,
      "hit": false,
      "t": 19147.451875000002,
      "d": 39.472499999999854,
      "v": 92
    },
    {
      "midi": 57,
      "hit": false,
      "t": 20209.920000000002,
      "d": 1325.6181250000009,
      "v": 107
    },
    {
      "midi": 55,
      "hit": false,
      "t": 20209.920000000002,
      "d": 1332.1968750000015,
      "v": 108
    },
    {
      "midi": 52,
      "hit": false,
      "t": 20209.920000000002,
      "d": 1355.2224999999999,
      "v": 99
    },
    {
      "midi": 55,
      "hit": false,
      "t": 21667.113125000003,
      "d": 26.31499999999869,
      "v": 92
    },
    {
      "midi": 57,
      "hit": false,
      "t": 21667.113125000003,
      "d": 26.31499999999869,
      "v": 93
    },
    {
      "midi": 52,
      "hit": false,
      "t": 21667.113125000003,
      "d": 49.34062499999709,
      "v": 95
    },
    {
      "midi": 61,
      "hit": false,
      "t": 21667.113125000003,
      "d": 65.78749999999854,
      "v": 98
    },
    {
      "midi": 61,
      "hit": false,
      "t": 22101.310625000002,
      "d": 59.20874999999796,
      "v": 87
    },
    {
      "midi": 55,
      "hit": false,
      "t": 22104.600000000002,
      "d": 29.60437499999898,
      "v": 75
    },
    {
      "midi": 62,
      "hit": false,
      "t": 22732.870625,
      "d": 1325.6181250000009,
      "v": 110
    },
    {
      "midi": 57,
      "hit": false,
      "t": 22732.870625,
      "d": 1381.5375000000022,
      "v": 107
    },
    {
      "midi": 54,
      "hit": false,
      "t": 22736.16,
      "d": 1236.8050000000003,
      "v": 108
    },
    {
      "midi": 57,
      "hit": false,
      "t": 24193.353125,
      "d": 26.31499999999869,
      "v": 93
    },
    {
      "midi": 62,
      "hit": false,
      "t": 24193.353125,
      "d": 26.31499999999869,
      "v": 101
    },
    {
      "midi": 57,
      "hit": false,
      "t": 25259.110625,
      "d": 960.4975000000013,
      "v": 109
    },
    {
      "midi": 61,
      "hit": false,
      "t": 25259.110625,
      "d": 960.4975000000013,
      "v": 99
    },
    {
      "midi": 54,
      "hit": false,
      "t": 26719.593125000003,
      "d": 19.736250000001746,
      "v": 92
    },
    {
      "midi": 57,
      "hit": false,
      "t": 26719.593125000003,
      "d": 29.60437500000262,
      "v": 107
    },
    {
      "midi": 61,
      "hit": false,
      "t": 26719.593125000003,
      "d": 29.60437500000262,
      "v": 97
    },
    {
      "midi": 61,
      "hit": false,
      "t": 27153.790625000005,
      "d": 69.07687500000247,
      "v": 108
    },
    {
      "midi": 57,
      "hit": false,
      "t": 27157.080000000005,
      "d": 39.472499999999854,
      "v": 116
    },
    {
      "midi": 54,
      "hit": false,
      "t": 27157.080000000005,
      "d": 49.34062500000073,
      "v": 92
    },
    {
      "midi": 54,
      "hit": false,
      "t": 27788.640000000007,
      "d": 1315.75,
      "v": 87
    },
    {
      "midi": 57,
      "hit": false,
      "t": 27788.640000000007,
      "d": 1315.75,
      "v": 98
    },
    {
      "midi": 59,
      "hit": false,
      "t": 27788.640000000007,
      "d": 1315.75,
      "v": 108
    },
    {
      "midi": 59,
      "hit": false,
      "t": 29245.83312500001,
      "d": 19.736250000001746,
      "v": 102
    },
    {
      "midi": 54,
      "hit": false,
      "t": 29245.83312500001,
      "d": 39.47250000000349,
      "v": 92
    },
    {
      "midi": 57,
      "hit": false,
      "t": 29245.83312500001,
      "d": 39.47250000000349,
      "v": 108
    },
    {
      "midi": 63,
      "hit": false,
      "t": 29245.83312500001,
      "d": 59.20875000000524,
      "v": 104
    },
    {
      "midi": 63,
      "hit": false,
      "t": 29680.030625000014,
      "d": 384.8568750000013,
      "v": 90
    },
    {
      "midi": 57,
      "hit": false,
      "t": 29680.030625000014,
      "d": 414.46125000000393,
      "v": 92
    },
    {
      "midi": 54,
      "hit": false,
      "t": 29683.320000000014,
      "d": 394.7250000000022,
      "v": 87
    },
    {
      "midi": 59,
      "hit": false,
      "t": 29683.320000000014,
      "d": 513.1425000000054,
      "v": 100
    },
    {
      "midi": 52,
      "hit": false,
      "t": 30311.59062500002,
      "d": 493.40625,
      "v": 126
    },
    {
      "midi": 56,
      "hit": false,
      "t": 30311.59062500002,
      "d": 542.7468750000007,
      "v": 108
    },
    {
      "midi": 59,
      "hit": false,
      "t": 30311.59062500002,
      "d": 562.4831250000025,
      "v": 116
    },
    {
      "midi": 57,
      "hit": false,
      "t": 30943.15062500002,
      "d": 483.5381249999991,
      "v": 115
    },
    {
      "midi": 54,
      "hit": false,
      "t": 30943.15062500002,
      "d": 499.9850000000006,
      "v": 113
    },
    {
      "midi": 61,
      "hit": false,
      "t": 30943.15062500002,
      "d": 552.6150000000016,
      "v": 110
    },
    {
      "midi": 61,
      "hit": false,
      "t": 31574.71062500002,
      "d": 539.4575000000004,
      "v": 103
    },
    {
      "midi": 58,
      "hit": false,
      "t": 31574.71062500002,
      "d": 592.0875000000015,
      "v": 108
    },
    {
      "midi": 55,
      "hit": false,
      "t": 31578.000000000022,
      "d": 374.98875000000044,
      "v": 102
    },
    {
      "midi": 56,
      "hit": false,
      "t": 32206.270625000023,
      "d": 404.5931249999994,
      "v": 84
    },
    {
      "midi": 62,
      "hit": false,
      "t": 32206.270625000023,
      "d": 513.1424999999981,
      "v": 98
    },
    {
      "midi": 59,
      "hit": false,
      "t": 32206.270625000023,
      "d": 552.614999999998,
      "v": 104
    },
    {
      "midi": 57,
      "hit": false,
      "t": 32837.830625000024,
      "d": 730.2412499999991,
      "v": 96
    },
    {
      "midi": 61,
      "hit": false,
      "t": 32837.830625000024,
      "d": 740.109375,
      "v": 90
    },
    {
      "midi": 61,
      "hit": false,
      "t": 33666.753125000025,
      "d": 39.47250000000349,
      "v": 90
    },
    {
      "midi": 52,
      "hit": false,
      "t": 33666.753125000025,
      "d": 59.20875000000524,
      "v": 116
    },
    {
      "midi": 57,
      "hit": false,
      "t": 33670.042500000025,
      "d": 19.736250000001746,
      "v": 96
    },
    {
      "midi": 61,
      "hit": false,
      "t": 35360.78125000003,
      "d": 769.7137500000026,
      "v": 94
    },
    {
      "midi": 56,
      "hit": false,
      "t": 35360.78125000003,
      "d": 802.6075000000055,
      "v": 96
    },
    {
      "midi": 53,
      "hit": false,
      "t": 35364.07062500003,
      "d": 779.5818750000035,
      "v": 99
    },
    {
      "midi": 59,
      "hit": false,
      "t": 35364.07062500003,
      "d": 779.5818750000035,
      "v": 106
    },
    {
      "midi": 61,
      "hit": false,
      "t": 36192.99312500004,
      "d": 39.47250000000349,
      "v": 89
    },
    {
      "midi": 53,
      "hit": false,
      "t": 36196.28250000004,
      "d": 26.31500000000233,
      "v": 83
    },
    {
      "midi": 53,
      "hit": false,
      "t": 37156.78000000004,
      "d": 49.34062499999709,
      "v": 94
    },
    {
      "midi": 56,
      "hit": false,
      "t": 37156.78000000004,
      "d": 49.34062499999709,
      "v": 84
    },
    {
      "midi": 59,
      "hit": false,
      "t": 37156.78000000004,
      "d": 49.34062499999709,
      "v": 104
    },
    {
      "midi": 61,
      "hit": false,
      "t": 37156.78000000004,
      "d": 49.34062499999709,
      "v": 90
    },
    {
      "midi": 54,
      "hit": false,
      "t": 37893.60000000004,
      "d": 710.5049999999974,
      "v": 109
    },
    {
      "midi": 57,
      "hit": false,
      "t": 37893.60000000004,
      "d": 710.5049999999974,
      "v": 104
    },
    {
      "midi": 61,
      "hit": false,
      "t": 37893.60000000004,
      "d": 720.3731249999983,
      "v": 108
    },
    {
      "midi": 54,
      "hit": false,
      "t": 38719.23312500004,
      "d": 29.60437500000262,
      "v": 93
    },
    {
      "midi": 57,
      "hit": false,
      "t": 38719.23312500004,
      "d": 39.47250000000349,
      "v": 111
    },
    {
      "midi": 61,
      "hit": false,
      "t": 38719.23312500004,
      "d": 39.47250000000349,
      "v": 97
    },
    {
      "midi": 57,
      "hit": false,
      "t": 39156.720000000045,
      "d": 49.34062499999709,
      "v": 102
    },
    {
      "midi": 61,
      "hit": false,
      "t": 39156.720000000045,
      "d": 49.34062499999709,
      "v": 94
    },
    {
      "midi": 57,
      "hit": false,
      "t": 39669.86250000004,
      "d": 286.1756250000035,
      "v": 89
    },
    {
      "midi": 54,
      "hit": false,
      "t": 39669.86250000004,
      "d": 342.09500000000116,
      "v": 74
    },
    {
      "midi": 61,
      "hit": false,
      "t": 39669.86250000004,
      "d": 542.7468750000044,
      "v": 76
    },
    {
      "midi": 55,
      "hit": false,
      "t": 40416.55062500005,
      "d": 723.6624999999985,
      "v": 111
    },
    {
      "midi": 57,
      "hit": false,
      "t": 40416.55062500005,
      "d": 723.6624999999985,
      "v": 106
    },
    {
      "midi": 52,
      "hit": false,
      "t": 40416.55062500005,
      "d": 730.2412499999991,
      "v": 109
    },
    {
      "midi": 61,
      "hit": false,
      "t": 40416.55062500005,
      "d": 730.2412499999991,
      "v": 102
    },
    {
      "midi": 61,
      "hit": false,
      "t": 41245.47312500005,
      "d": 39.47250000000349,
      "v": 93
    },
    {
      "midi": 55,
      "hit": false,
      "t": 41245.47312500005,
      "d": 49.340625000004366,
      "v": 107
    },
    {
      "midi": 57,
      "hit": false,
      "t": 41248.76250000005,
      "d": 29.60437500000262,
      "v": 88
    },
    {
      "midi": 55,
      "hit": false,
      "t": 41682.96000000005,
      "d": 355.2525000000023,
      "v": 111
    },
    {
      "midi": 61,
      "hit": false,
      "t": 41682.96000000005,
      "d": 355.2525000000023,
      "v": 111
    },
    {
      "midi": 57,
      "hit": false,
      "t": 41682.96000000005,
      "d": 365.1206250000032,
      "v": 105
    },
    {
      "midi": 57,
      "hit": false,
      "t": 42192.81312500005,
      "d": 39.47250000000349,
      "v": 104
    },
    {
      "midi": 55,
      "hit": false,
      "t": 42192.81312500005,
      "d": 49.340625000004366,
      "v": 111
    },
    {
      "midi": 61,
      "hit": false,
      "t": 42192.81312500005,
      "d": 49.340625000004366,
      "v": 94
    },
    {
      "midi": 62,
      "hit": false,
      "t": 42942.79062500005,
      "d": 1046.021249999998,
      "v": 116
    },
    {
      "midi": 57,
      "hit": false,
      "t": 42942.79062500005,
      "d": 1085.4937500000015,
      "v": 120
    },
    {
      "midi": 54,
      "hit": false,
      "t": 42946.08000000005,
      "d": 986.8125,
      "v": 104
    },
    {
      "midi": 60,
      "hit": false,
      "t": 44403.27312500005,
      "d": 325.6481249999997,
      "v": 127
    },
    {
      "midi": 57,
      "hit": false,
      "t": 44406.56250000005,
      "d": 49.34062499999709,
      "v": 116
    },
    {
      "midi": 60,
      "hit": false,
      "t": 44834.18125000005,
      "d": 335.51625000000786,
      "v": 101
    },
    {
      "midi": 57,
      "hit": false,
      "t": 44837.47062500005,
      "d": 203.9412500000035,
      "v": 85
    },
    {
      "midi": 57,
      "hit": false,
      "t": 45146.67187500006,
      "d": 246.703125,
      "v": 81
    },
    {
      "midi": 52,
      "hit": false,
      "t": 45469.03062500006,
      "d": 463.8018749999974,
      "v": 99
    },
    {
      "midi": 57,
      "hit": false,
      "t": 45469.03062500006,
      "d": 493.40625,
      "v": 106
    },
    {
      "midi": 61,
      "hit": false,
      "t": 45469.03062500006,
      "d": 493.40625,
      "v": 97
    },
    {
      "midi": 52,
      "hit": false,
      "t": 46103.880000000056,
      "d": 167.7581250000003,
      "v": 127
    },
    {
      "midi": 56,
      "hit": false,
      "t": 46103.880000000056,
      "d": 414.4612500000003,
      "v": 122
    },
    {
      "midi": 61,
      "hit": false,
      "t": 46103.880000000056,
      "d": 1325.6181250000009,
      "v": 118
    },
    {
      "midi": 54,
      "hit": false,
      "t": 46732.15062500005,
      "d": 710.5050000000047,
      "v": 108
    },
    {
      "midi": 54,
      "hit": false,
      "t": 47561.07312500006,
      "d": 26.31500000000233,
      "v": 98
    },
    {
      "midi": 57,
      "hit": false,
      "t": 47561.07312500006,
      "d": 26.31500000000233,
      "v": 109
    },
    {
      "midi": 61,
      "hit": false,
      "t": 47577.52000000006,
      "d": 49.340625000004366,
      "v": 113
    },
    {
      "midi": 59,
      "hit": false,
      "t": 48311.05062500007,
      "d": 29.60437500000262,
      "v": 101
    },
    {
      "midi": 54,
      "hit": false,
      "t": 48311.05062500007,
      "d": 49.340625000004366,
      "v": 109
    },
    {
      "midi": 57,
      "hit": false,
      "t": 48311.05062500007,
      "d": 49.340625000004366,
      "v": 104
    },
    {
      "midi": 63,
      "hit": false,
      "t": 48311.05062500007,
      "d": 49.340625000004366,
      "v": 104
    },
    {
      "midi": 54,
      "hit": false,
      "t": 48824.19312500007,
      "d": 246.703125,
      "v": 94
    },
    {
      "midi": 57,
      "hit": false,
      "t": 48824.19312500007,
      "d": 256.5712500000009,
      "v": 102
    },
    {
      "midi": 63,
      "hit": false,
      "t": 48824.19312500007,
      "d": 276.3075000000026,
      "v": 103
    },
    {
      "midi": 59,
      "hit": false,
      "t": 48824.19312500007,
      "d": 888.1312500000058,
      "v": 104
    },
    {
      "midi": 52,
      "hit": false,
      "t": 49258.39062500007,
      "d": 444.0656250000029,
      "v": 116
    },
    {
      "midi": 56,
      "hit": false,
      "t": 49258.39062500007,
      "d": 444.0656250000029,
      "v": 96
    },
    {
      "midi": 56,
      "hit": false,
      "t": 49771.533125000075,
      "d": 611.8237500000032,
      "v": 115
    },
    {
      "midi": 59,
      "hit": false,
      "t": 49771.533125000075,
      "d": 789.4500000000044,
      "v": 116
    },
    {
      "midi": 52,
      "hit": false,
      "t": 49771.533125000075,
      "d": 828.9225000000079,
      "v": 120
    },
    {
      "midi": 57,
      "hit": false,
      "t": 50521.510625000075,
      "d": 88.81312500000786,
      "v": 96
    },
    {
      "midi": 61,
      "hit": false,
      "t": 50521.510625000075,
      "d": 128.28562500001135,
      "v": 89
    },
    {
      "midi": 61,
      "hit": false,
      "t": 50834.00125000009,
      "d": 39.47250000000349,
      "v": 99
    },
    {
      "midi": 52,
      "hit": false,
      "t": 50837.29062500009,
      "d": 19.736250000001746,
      "v": 97
    },
    {
      "midi": 57,
      "hit": false,
      "t": 50837.29062500009,
      "d": 55.91937500000495,
      "v": 106
    },
    {
      "midi": 61,
      "hit": false,
      "t": 51350.43312500009,
      "d": 39.47250000000349,
      "v": 85
    },
    {
      "midi": 52,
      "hit": false,
      "t": 51353.72250000009,
      "d": 16.446875000001455,
      "v": 80
    },
    {
      "midi": 57,
      "hit": false,
      "t": 51353.72250000009,
      "d": 16.446875000001455,
      "v": 92
    },
    {
      "midi": 52,
      "hit": false,
      "t": 52103.70000000009,
      "d": 65.78749999999854,
      "v": 77
    },
    {
      "midi": 57,
      "hit": false,
      "t": 52103.70000000009,
      "d": 88.81312500000058,
      "v": 96
    },
    {
      "midi": 61,
      "hit": false,
      "t": 52103.70000000009,
      "d": 88.81312500000058,
      "v": 83
    },
    {
      "midi": 52,
      "hit": false,
      "t": 52419.48000000009,
      "d": 394.72499999999854,
      "v": 126
    },
    {
      "midi": 57,
      "hit": false,
      "t": 52419.48000000009,
      "d": 562.4831249999988,
      "v": 124
    },
    {
      "midi": 61,
      "hit": false,
      "t": 52419.48000000009,
      "d": 565.7724999999991,
      "v": 120
    },
    {
      "midi": 54,
      "hit": false,
      "t": 53051.04000000009,
      "d": 723.6624999999985,
      "v": 123
    },
    {
      "midi": 57,
      "hit": false,
      "t": 53051.04000000009,
      "d": 723.6624999999985,
      "v": 104
    },
    {
      "midi": 62,
      "hit": false,
      "t": 53051.04000000009,
      "d": 723.6624999999985,
      "v": 123
    },
    {
      "midi": 54,
      "hit": false,
      "t": 53876.67312500009,
      "d": 16.446875000001455,
      "v": 79
    },
    {
      "midi": 57,
      "hit": false,
      "t": 53876.67312500009,
      "d": 26.31500000000233,
      "v": 110
    },
    {
      "midi": 62,
      "hit": false,
      "t": 53876.67312500009,
      "d": 59.20875000000524,
      "v": 110
    },
    {
      "midi": 62,
      "hit": false,
      "t": 54314.16000000009,
      "d": 39.47250000000349,
      "v": 95
    },
    {
      "midi": 54,
      "hit": false,
      "t": 54824.01312500009,
      "d": 236.83499999999913,
      "v": 107
    },
    {
      "midi": 57,
      "hit": false,
      "t": 54824.01312500009,
      "d": 473.66999999999825,
      "v": 115
    },
    {
      "midi": 62,
      "hit": false,
      "t": 54824.01312500009,
      "d": 680.900625000002,
      "v": 123
    },
    {
      "midi": 54,
      "hit": false,
      "t": 55251.631875000094,
      "d": 138.15374999999767,
      "v": 93
    },
    {
      "midi": 56,
      "hit": false,
      "t": 55573.99062500009,
      "d": 723.6624999999985,
      "v": 107
    },
    {
      "midi": 52,
      "hit": false,
      "t": 55573.99062500009,
      "d": 730.2412499999991,
      "v": 116
    },
    {
      "midi": 59,
      "hit": false,
      "t": 55573.99062500009,
      "d": 749.9775000000009,
      "v": 106
    },
    {
      "midi": 56,
      "hit": false,
      "t": 56402.913125000094,
      "d": 39.47250000000349,
      "v": 94
    },
    {
      "midi": 59,
      "hit": false,
      "t": 56402.913125000094,
      "d": 49.340625000004366,
      "v": 109
    },
    {
      "midi": 52,
      "hit": false,
      "t": 56402.913125000094,
      "d": 59.20875000000524,
      "v": 104
    },
    {
      "midi": 56,
      "hit": false,
      "t": 56837.110625000096,
      "d": 59.20874999999796,
      "v": 101
    },
    {
      "midi": 59,
      "hit": false,
      "t": 56837.110625000096,
      "d": 69.07687499999884,
      "v": 113
    },
    {
      "midi": 52,
      "hit": false,
      "t": 56837.110625000096,
      "d": 78.94499999999971,
      "v": 114
    },
    {
      "midi": 52,
      "hit": false,
      "t": 57350.2531250001,
      "d": 582.2193750000006,
      "v": 115
    },
    {
      "midi": 59,
      "hit": false,
      "t": 57350.2531250001,
      "d": 592.0875000000015,
      "v": 120
    },
    {
      "midi": 56,
      "hit": false,
      "t": 57350.2531250001,
      "d": 621.6918750000041,
      "v": 103
    },
    {
      "midi": 54,
      "hit": false,
      "t": 58100.2306250001,
      "d": 740.109375,
      "v": 123
    },
    {
      "midi": 57,
      "hit": false,
      "t": 58103.5200000001,
      "d": 730.2412499999991,
      "v": 116
    },
    {
      "midi": 62,
      "hit": false,
      "t": 58103.5200000001,
      "d": 730.2412499999991,
      "v": 127
    },
    {
      "midi": 57,
      "hit": false,
      "t": 58932.4425000001,
      "d": 39.47250000000349,
      "v": 116
    },
    {
      "midi": 54,
      "hit": false,
      "t": 58932.4425000001,
      "d": 46.051250000004075,
      "v": 115
    },
    {
      "midi": 62,
      "hit": false,
      "t": 58932.4425000001,
      "d": 46.051250000004075,
      "v": 117
    },
    {
      "midi": 54,
      "hit": false,
      "t": 59366.6400000001,
      "d": 59.20875000000524,
      "v": 92
    },
    {
      "midi": 62,
      "hit": false,
      "t": 59366.6400000001,
      "d": 59.20875000000524,
      "v": 115
    },
    {
      "midi": 57,
      "hit": false,
      "t": 59369.9293750001,
      "d": 26.31500000000233,
      "v": 98
    },
    {
      "midi": 54,
      "hit": false,
      "t": 59876.49312500011,
      "d": 463.8018749999974,
      "v": 98
    },
    {
      "midi": 57,
      "hit": false,
      "t": 59876.49312500011,
      "d": 582.2193750000006,
      "v": 107
    },
    {
      "midi": 62,
      "hit": false,
      "t": 59876.49312500011,
      "d": 621.6918750000041,
      "v": 113
    },
    {
      "midi": 56,
      "hit": false,
      "t": 60626.47062500011,
      "d": 740.109375,
      "v": 109
    },
    {
      "midi": 61,
      "hit": false,
      "t": 60626.47062500011,
      "d": 740.109375,
      "v": 104
    },
    {
      "midi": 59,
      "hit": false,
      "t": 60626.47062500011,
      "d": 749.9775000000009,
      "v": 116
    },
    {
      "midi": 56,
      "hit": false,
      "t": 61455.39312500011,
      "d": 26.31500000000233,
      "v": 101
    },
    {
      "midi": 61,
      "hit": false,
      "t": 61455.39312500011,
      "d": 26.31500000000233,
      "v": 95
    },
    {
      "midi": 59,
      "hit": false,
      "t": 61455.39312500011,
      "d": 39.47250000000349,
      "v": 111
    },
    {
      "midi": 52,
      "hit": false,
      "t": 61455.39312500011,
      "d": 46.051250000004075,
      "v": 121
    },
    {
      "midi": 52,
      "hit": false,
      "t": 61892.880000000114,
      "d": 26.31500000000233,
      "v": 108
    },
    {
      "midi": 56,
      "hit": false,
      "t": 61892.880000000114,
      "d": 49.340625000004366,
      "v": 96
    },
    {
      "midi": 61,
      "hit": false,
      "t": 61892.880000000114,
      "d": 49.340625000004366,
      "v": 90
    },
    {
      "midi": 59,
      "hit": false,
      "t": 61892.880000000114,
      "d": 69.07687500000611,
      "v": 106
    },
    {
      "midi": 52,
      "hit": false,
      "t": 62402.73312500012,
      "d": 621.6918749999968,
      "v": 127
    },
    {
      "midi": 56,
      "hit": false,
      "t": 62402.73312500012,
      "d": 680.9006249999948,
      "v": 100
    },
    {
      "midi": 61,
      "hit": false,
      "t": 62402.73312500012,
      "d": 730.2412499999919,
      "v": 96
    },
    {
      "midi": 59,
      "hit": false,
      "t": 62402.73312500012,
      "d": 749.9774999999936,
      "v": 109
    },
    {
      "midi": 54,
      "hit": false,
      "t": 63152.710625000116,
      "d": 710.5049999999974,
      "v": 103
    },
    {
      "midi": 57,
      "hit": false,
      "t": 63152.710625000116,
      "d": 749.9775000000009,
      "v": 106
    },
    {
      "midi": 62,
      "hit": false,
      "t": 63152.710625000116,
      "d": 749.9775000000009,
      "v": 115
    },
    {
      "midi": 54,
      "hit": false,
      "t": 63981.63312500012,
      "d": 39.47250000000349,
      "v": 123
    },
    {
      "midi": 57,
      "hit": false,
      "t": 63981.63312500012,
      "d": 39.47250000000349,
      "v": 116
    },
    {
      "midi": 62,
      "hit": false,
      "t": 63981.63312500012,
      "d": 49.340625000004366,
      "v": 113
    },
    {
      "midi": 57,
      "hit": false,
      "t": 64419.12000000012,
      "d": 39.47250000000349,
      "v": 116
    },
    {
      "midi": 54,
      "hit": false,
      "t": 64419.12000000012,
      "d": 49.340625000004366,
      "v": 106
    },
    {
      "midi": 62,
      "hit": false,
      "t": 64419.12000000012,
      "d": 65.78750000000582,
      "v": 120
    },
    {
      "midi": 54,
      "hit": false,
      "t": 64945.42000000012,
      "d": 651.2962500000067,
      "v": 111
    },
    {
      "midi": 57,
      "hit": false,
      "t": 64945.42000000012,
      "d": 680.900625000002,
      "v": 111
    },
    {
      "midi": 62,
      "hit": false,
      "t": 64945.42000000012,
      "d": 690.7687499999956,
      "v": 116
    },
    {
      "midi": 61,
      "hit": false,
      "t": 65678.95062500011,
      "d": 565.7725000000064,
      "v": 103
    },
    {
      "midi": 64,
      "hit": false,
      "t": 65678.95062500011,
      "d": 565.7725000000064,
      "v": 126
    },
    {
      "midi": 57,
      "hit": false,
      "t": 65678.95062500011,
      "d": 592.0875000000087,
      "v": 119
    },
    {
      "midi": 56,
      "hit": false,
      "t": 66310.51062500013,
      "d": 542.7468749999971,
      "v": 121
    },
    {
      "midi": 64,
      "hit": false,
      "t": 66310.51062500013,
      "d": 562.4831249999988,
      "v": 119
    },
    {
      "midi": 61,
      "hit": false,
      "t": 66313.80000000012,
      "d": 575.640625,
      "v": 110
    },
    {
      "midi": 54,
      "hit": false,
      "t": 66945.36000000012,
      "d": 424.32937500000116,
      "v": 109
    },
    {
      "midi": 61,
      "hit": false,
      "t": 66945.36000000012,
      "d": 532.8787500000035,
      "v": 102
    },
    {
      "midi": 57,
      "hit": false,
      "t": 66945.36000000012,
      "d": 552.6150000000052,
      "v": 116
    },
    {
      "midi": 57,
      "hit": false,
      "t": 67576.92000000013,
      "d": 434.19749999999476,
      "v": 109
    },
    {
      "midi": 61,
      "hit": false,
      "t": 67576.92000000013,
      "d": 444.06562499998836,
      "v": 104
    },
    {
      "midi": 52,
      "hit": false,
      "t": 67576.92000000013,
      "d": 493.40624999998545,
      "v": 126
    },
    {
      "midi": 57,
      "hit": false,
      "t": 68205.19062500012,
      "d": 572.3512499999779,
      "v": 126
    },
    {
      "midi": 54,
      "hit": false,
      "t": 68208.48000000011,
      "d": 460.5124999999971,
      "v": 109
    },
    {
      "midi": 50,
      "hit": false,
      "t": 68208.48000000011,
      "d": 552.6149999999907,
      "v": 117
    },
    {
      "midi": 57,
      "hit": false,
      "t": 68836.7506250001,
      "d": 572.351250000007,
      "v": 116
    },
    {
      "midi": 49,
      "hit": false,
      "t": 68836.7506250001,
      "d": 592.0875000000087,
      "v": 123
    },
    {
      "midi": 54,
      "hit": false,
      "t": 69468.31062500011,
      "d": 930.8931250000023,
      "v": 106
    },
    {
      "midi": 57,
      "hit": false,
      "t": 69468.31062500011,
      "d": 930.8931250000023,
      "v": 110
    },
    {
      "midi": 47,
      "hit": false,
      "t": 69471.60000000011,
      "d": 819.054375000007,
      "v": 124
    },
    {
      "midi": 50,
      "hit": false,
      "t": 69471.60000000011,
      "d": 868.3950000000041,
      "v": 122
    },
    {
      "midi": 57,
      "hit": false,
      "t": 70731.43062500011,
      "d": 539.4575000000041,
      "v": 112
    },
    {
      "midi": 54,
      "hit": false,
      "t": 70731.43062500011,
      "d": 552.6150000000052,
      "v": 106
    },
    {
      "midi": 62,
      "hit": false,
      "t": 70731.43062500011,
      "d": 552.6150000000052,
      "v": 123
    },
    {
      "midi": 54,
      "hit": false,
      "t": 71362.99062500012,
      "d": 542.7468749999971,
      "v": 88
    },
    {
      "midi": 62,
      "hit": false,
      "t": 71362.99062500012,
      "d": 552.6149999999907,
      "v": 91
    },
    {
      "midi": 57,
      "hit": false,
      "t": 71362.99062500012,
      "d": 565.7724999999919,
      "v": 104
    },
    {
      "midi": 57,
      "hit": false,
      "t": 71994.55062500012,
      "d": 493.40625,
      "v": 109
    },
    {
      "midi": 62,
      "hit": false,
      "t": 71994.55062500012,
      "d": 493.40625,
      "v": 114
    },
    {
      "midi": 54,
      "hit": false,
      "t": 71994.55062500012,
      "d": 503.2743749999936,
      "v": 102
    },
    {
      "midi": 54,
      "hit": false,
      "t": 72626.11062500012,
      "d": 381.56750000000466,
      "v": 117
    },
    {
      "midi": 57,
      "hit": false,
      "t": 72626.11062500012,
      "d": 523.0106250000099,
      "v": 126
    },
    {
      "midi": 62,
      "hit": false,
      "t": 72626.11062500012,
      "d": 582.2193750000151,
      "v": 127
    },
    {
      "midi": 64,
      "hit": false,
      "t": 73257.67062500013,
      "d": 59.20875000000524,
      "v": 103
    },
    {
      "midi": 59,
      "hit": false,
      "t": 73257.67062500013,
      "d": 69.07687499999884,
      "v": 96
    },
    {
      "midi": 52,
      "hit": false,
      "t": 73257.67062500013,
      "d": 78.94499999999243,
      "v": 100
    },
    {
      "midi": 40,
      "hit": false,
      "t": 73257.67062500013,
      "d": 88.81312499998603,
      "v": 104
    },
    {
      "midi": 64,
      "hit": false,
      "t": 73573.45062500011,
      "d": 65.78750000000582,
      "v": 103
    },
    {
      "midi": 52,
      "hit": false,
      "t": 73573.45062500011,
      "d": 88.81312500000058,
      "v": 102
    },
    {
      "midi": 59,
      "hit": false,
      "t": 73573.45062500011,
      "d": 88.81312500000058,
      "v": 101
    },
    {
      "midi": 40,
      "hit": false,
      "t": 73573.45062500011,
      "d": 95.39187500000116,
      "v": 111
    },
    {
      "midi": 52,
      "hit": false,
      "t": 73889.23062500011,
      "d": 55.91937499999767,
      "v": 110
    },
    {
      "midi": 59,
      "hit": false,
      "t": 73889.23062500011,
      "d": 65.78749999999127,
      "v": 108
    },
    {
      "midi": 64,
      "hit": false,
      "t": 73889.23062500011,
      "d": 65.78749999999127,
      "v": 106
    },
    {
      "midi": 40,
      "hit": false,
      "t": 73889.23062500011,
      "d": 88.81312499998603,
      "v": 108
    },
    {
      "midi": 40,
      "hit": false,
      "t": 74205.0106250001,
      "d": 59.20875000000524,
      "v": 104
    },
    {
      "midi": 59,
      "hit": false,
      "t": 74205.0106250001,
      "d": 69.07687499999884,
      "v": 108
    },
    {
      "midi": 64,
      "hit": false,
      "t": 74205.0106250001,
      "d": 69.07687499999884,
      "v": 107
    },
    {
      "midi": 52,
      "hit": false,
      "t": 74205.0106250001,
      "d": 78.94499999999243,
      "v": 100
    },
    {
      "midi": 59,
      "hit": false,
      "t": 74349.7431250001,
      "d": 128.28562499998952,
      "v": 107
    },
    {
      "midi": 52,
      "hit": false,
      "t": 74349.7431250001,
      "d": 138.15374999998312,
      "v": 101
    },
    {
      "midi": 64,
      "hit": false,
      "t": 74349.7431250001,
      "d": 148.02187499997672,
      "v": 99
    },
    {
      "midi": 40,
      "hit": false,
      "t": 74379.34750000009,
      "d": 118.41749999998137,
      "v": 98
    },
    {
      "midi": 40,
      "hit": false,
      "t": 74681.97000000007,
      "d": 88.81312500000058,
      "v": 97
    },
    {
      "midi": 59,
      "hit": false,
      "t": 74681.97000000007,
      "d": 118.41749999999593,
      "v": 114
    },
    {
      "midi": 52,
      "hit": false,
      "t": 74681.97000000007,
      "d": 128.28562499998952,
      "v": 106
    },
    {
      "midi": 64,
      "hit": false,
      "t": 74681.97000000007,
      "d": 144.7324999999837,
      "v": 101
    },
    {
      "midi": 52,
      "hit": false,
      "t": 75010.90750000006,
      "d": 49.34062499999709,
      "v": 99
    },
    {
      "midi": 40,
      "hit": false,
      "t": 75010.90750000006,
      "d": 65.78749999999127,
      "v": 101
    },
    {
      "midi": 64,
      "hit": false,
      "t": 75010.90750000006,
      "d": 95.39187499998661,
      "v": 101
    },
    {
      "midi": 59,
      "hit": false,
      "t": 75017.48625000006,
      "d": 65.78749999999127,
      "v": 103
    },
    {
      "midi": 42,
      "hit": false,
      "t": 75155.64000000004,
      "d": 95.39187500000116,
      "v": 89
    },
    {
      "midi": 57,
      "hit": false,
      "t": 75155.64000000004,
      "d": 167.75812500000757,
      "v": 99
    },
    {
      "midi": 62,
      "hit": false,
      "t": 75155.64000000004,
      "d": 174.33687500000815,
      "v": 110
    },
    {
      "midi": 66,
      "hit": false,
      "t": 75155.64000000004,
      "d": 177.62625000000116,
      "v": 108
    },
    {
      "midi": 59,
      "hit": false,
      "t": 75468.13062500005,
      "d": 177.62625000000116,
      "v": 89
    },
    {
      "midi": 64,
      "hit": false,
      "t": 75468.13062500005,
      "d": 207.2306249999965,
      "v": 91
    },
    {
      "midi": 68,
      "hit": false,
      "t": 75468.13062500005,
      "d": 217.0987499999901,
      "v": 110
    },
    {
      "midi": 44,
      "hit": false,
      "t": 75468.13062500005,
      "d": 223.6774999999907,
      "v": 127
    },
    {
      "midi": 69,
      "hit": false,
      "t": 75787.20000000001,
      "d": 1105.229999999996,
      "v": 103
    },
    {
      "midi": 57,
      "hit": false,
      "t": 75787.20000000004,
      "d": 424.32937500000116,
      "v": 98
    },
    {
      "midi": 52,
      "hit": false,
      "t": 75787.20000000004,
      "d": 434.19749999999476,
      "v": 101
    },
    {
      "midi": 61,
      "hit": false,
      "t": 75787.20000000004,
      "d": 434.19749999999476,
      "v": 102
    },
    {
      "midi": 52,
      "hit": false,
      "t": 76612.83312500003,
      "d": 26.31500000000233,
      "v": 104
    },
    {
      "midi": 57,
      "hit": false,
      "t": 76612.83312500003,
      "d": 39.47250000000349,
      "v": 104
    },
    {
      "midi": 61,
      "hit": false,
      "t": 76612.83312500003,
      "d": 39.47250000000349,
      "v": 98
    },
    {
      "midi": 73,
      "hit": false,
      "t": 76892.43000000001,
      "d": 1105.229999999996,
      "v": 105
    },
    {
      "midi": 52,
      "hit": false,
      "t": 77576.62000000004,
      "d": 236.8350000000064,
      "v": 104
    },
    {
      "midi": 57,
      "hit": false,
      "t": 77576.62000000004,
      "d": 381.56750000000466,
      "v": 104
    },
    {
      "midi": 61,
      "hit": false,
      "t": 77576.62000000004,
      "d": 394.7250000000058,
      "v": 100
    },
    {
      "midi": 57,
      "hit": false,
      "t": 77994.37062500004,
      "d": 118.41749999999593,
      "v": 105
    },
    {
      "midi": 61,
      "hit": false,
      "t": 77994.37062500004,
      "d": 203.94124999998894,
      "v": 94
    },
    {
      "midi": 69,
      "hit": false,
      "t": 77997.66,
      "d": 473.66999999999825,
      "v": 96
    },
    {
      "midi": 52,
      "hit": false,
      "t": 77997.66000000003,
      "d": 55.91937499999767,
      "v": 84
    },
    {
      "midi": 53,
      "hit": false,
      "t": 78310.15062500002,
      "d": 730.2412500000064,
      "v": 111
    },
    {
      "midi": 56,
      "hit": false,
      "t": 78310.15062500002,
      "d": 730.2412500000064,
      "v": 103
    },
    {
      "midi": 61,
      "hit": false,
      "t": 78310.15062500002,
      "d": 740.109375,
      "v": 100
    },
    {
      "midi": 59,
      "hit": false,
      "t": 78310.15062500002,
      "d": 749.9774999999936,
      "v": 109
    },
    {
      "midi": 68,
      "hit": false,
      "t": 78471.33,
      "d": 473.66999999999825,
      "v": 91
    },
    {
      "midi": 53,
      "hit": false,
      "t": 79139.07312500002,
      "d": 39.47250000000349,
      "v": 120
    },
    {
      "midi": 56,
      "hit": false,
      "t": 79139.07312500002,
      "d": 39.47250000000349,
      "v": 103
    },
    {
      "midi": 59,
      "hit": false,
      "t": 79139.07312500002,
      "d": 39.47250000000349,
      "v": 116
    },
    {
      "midi": 61,
      "hit": false,
      "t": 79139.07312500002,
      "d": 39.47250000000349,
      "v": 101
    },
    {
      "midi": 53,
      "hit": false,
      "t": 79454.85312500002,
      "d": 46.051250000004075,
      "v": 101
    },
    {
      "midi": 61,
      "hit": false,
      "t": 79576.56000000003,
      "d": 39.47250000000349,
      "v": 114
    },
    {
      "midi": 53,
      "hit": false,
      "t": 79576.56000000003,
      "d": 49.34062499999709,
      "v": 108
    },
    {
      "midi": 56,
      "hit": false,
      "t": 79576.56000000003,
      "d": 49.34062499999709,
      "v": 115
    },
    {
      "midi": 59,
      "hit": false,
      "t": 79576.56000000003,
      "d": 49.34062499999709,
      "v": 123
    },
    {
      "midi": 53,
      "hit": false,
      "t": 80086.41312500002,
      "d": 226.96687499999825,
      "v": 116
    },
    {
      "midi": 59,
      "hit": false,
      "t": 80086.41312500002,
      "d": 661.1643750000221,
      "v": 116
    },
    {
      "midi": 61,
      "hit": false,
      "t": 80102.86000000002,
      "d": 371.69937500001106,
      "v": 109
    },
    {
      "midi": 56,
      "hit": false,
      "t": 80102.86000000002,
      "d": 611.823750000025,
      "v": 114
    },
    {
      "midi": 53,
      "hit": false,
      "t": 80402.19312500002,
      "d": 197.36250000001746,
      "v": 96
    },
    {
      "midi": 61,
      "hit": false,
      "t": 80520.61062500003,
      "d": 187.4943750000093,
      "v": 85
    },
    {
      "midi": 54,
      "hit": false,
      "t": 80836.39062500004,
      "d": 720.3731249999983,
      "v": 120
    },
    {
      "midi": 57,
      "hit": false,
      "t": 80836.39062500004,
      "d": 720.3731249999983,
      "v": 116
    },
    {
      "midi": 61,
      "hit": false,
      "t": 80836.39062500004,
      "d": 740.109375,
      "v": 123
    },
    {
      "midi": 66,
      "hit": false,
      "t": 80839.68,
      "d": 1105.229999999996,
      "v": 113
    },
    {
      "midi": 54,
      "hit": false,
      "t": 81665.31312500004,
      "d": 29.604374999995343,
      "v": 127
    },
    {
      "midi": 57,
      "hit": false,
      "t": 81665.31312500004,
      "d": 29.604374999995343,
      "v": 116
    },
    {
      "midi": 61,
      "hit": false,
      "t": 81665.31312500004,
      "d": 49.34062499999709,
      "v": 125
    },
    {
      "midi": 69,
      "hit": false,
      "t": 81944.90999999999,
      "d": 1105.229999999996,
      "v": 104
    },
    {
      "midi": 54,
      "hit": false,
      "t": 81981.09312500004,
      "d": 49.34062499999709,
      "v": 100
    },
    {
      "midi": 57,
      "hit": false,
      "t": 82099.51062500004,
      "d": 39.47250000000349,
      "v": 106
    },
    {
      "midi": 61,
      "hit": false,
      "t": 82099.51062500004,
      "d": 46.051250000004075,
      "v": 110
    },
    {
      "midi": 54,
      "hit": false,
      "t": 82612.65312500004,
      "d": 217.09875000000466,
      "v": 127
    },
    {
      "midi": 61,
      "hit": false,
      "t": 82612.65312500004,
      "d": 325.64812499999243,
      "v": 127
    },
    {
      "midi": 57,
      "hit": false,
      "t": 82612.65312500004,
      "d": 365.1206249999959,
      "v": 127
    },
    {
      "midi": 54,
      "hit": false,
      "t": 82928.43312500004,
      "d": 187.49437499999476,
      "v": 97
    },
    {
      "midi": 61,
      "hit": false,
      "t": 83046.85062500004,
      "d": 236.83499999999185,
      "v": 103
    },
    {
      "midi": 66,
      "hit": false,
      "t": 83050.13999999998,
      "d": 473.66999999999825,
      "v": 99
    },
    {
      "midi": 57,
      "hit": false,
      "t": 83050.14000000003,
      "d": 19.736250000001746,
      "v": 85
    },
    {
      "midi": 52,
      "hit": false,
      "t": 83365.92000000003,
      "d": 710.5050000000047,
      "v": 117
    },
    {
      "midi": 55,
      "hit": false,
      "t": 83365.92000000003,
      "d": 710.5050000000047,
      "v": 116
    },
    {
      "midi": 61,
      "hit": false,
      "t": 83365.92000000003,
      "d": 710.5050000000047,
      "v": 114
    },
    {
      "midi": 57,
      "hit": false,
      "t": 83365.92000000003,
      "d": 730.2412500000064,
      "v": 116
    },
    {
      "midi": 64,
      "hit": false,
      "t": 83523.80999999998,
      "d": 789.4499999999971,
      "v": 105
    },
    {
      "midi": 52,
      "hit": false,
      "t": 84191.55312500003,
      "d": 39.47250000000349,
      "v": 114
    },
    {
      "midi": 57,
      "hit": false,
      "t": 84191.55312500003,
      "d": 39.47250000000349,
      "v": 106
    },
    {
      "midi": 61,
      "hit": false,
      "t": 84191.55312500003,
      "d": 39.47250000000349,
      "v": 92
    },
    {
      "midi": 55,
      "hit": false,
      "t": 84191.55312500003,
      "d": 46.051250000004075,
      "v": 117
    },
    {
      "midi": 52,
      "hit": false,
      "t": 84510.62250000004,
      "d": 39.47250000000349,
      "v": 104
    },
    {
      "midi": 52,
      "hit": false,
      "t": 84823.11312500005,
      "d": 49.34062499999709,
      "v": 124
    },
    {
      "midi": 55,
      "hit": false,
      "t": 84823.11312500005,
      "d": 49.34062499999709,
      "v": 115
    },
    {
      "midi": 61,
      "hit": false,
      "t": 84823.11312500005,
      "d": 49.34062499999709,
      "v": 113
    },
    {
      "midi": 57,
      "hit": false,
      "t": 84826.40250000004,
      "d": 26.31500000000233,
      "v": 98
    },
    {
      "midi": 52,
      "hit": false,
      "t": 85257.31062500004,
      "d": 404.5931249999994,
      "v": 110
    },
    {
      "midi": 61,
      "hit": false,
      "t": 85257.31062500004,
      "d": 503.2743749999936,
      "v": 110
    },
    {
      "midi": 55,
      "hit": false,
      "t": 85257.31062500004,
      "d": 542.7468749999971,
      "v": 126
    },
    {
      "midi": 57,
      "hit": false,
      "t": 85257.31062500004,
      "d": 542.7468749999971,
      "v": 121
    },
    {
      "midi": 54,
      "hit": false,
      "t": 85888.87062500004,
      "d": 700.6368749999965,
      "v": 117
    },
    {
      "midi": 57,
      "hit": false,
      "t": 85888.87062500004,
      "d": 700.6368749999965,
      "v": 113
    },
    {
      "midi": 62,
      "hit": false,
      "t": 85888.87062500004,
      "d": 700.6368749999965,
      "v": 127
    },
    {
      "midi": 54,
      "hit": false,
      "t": 86717.79312500004,
      "d": 26.31500000000233,
      "v": 115
    },
    {
      "midi": 62,
      "hit": false,
      "t": 86717.79312500004,
      "d": 55.91937499999767,
      "v": 113
    },
    {
      "midi": 57,
      "hit": false,
      "t": 86717.79312500004,
      "d": 69.07687499999884,
      "v": 115
    },
    {
      "midi": 56,
      "hit": false,
      "t": 87349.35312500004,
      "d": 78.94500000000698,
      "v": 127
    },
    {
      "midi": 60,
      "hit": false,
      "t": 87349.35312500004,
      "d": 374.9887500000041,
      "v": 127
    },
    {
      "midi": 57,
      "hit": false,
      "t": 87349.35312500004,
      "d": 404.5931249999994,
      "v": 127
    },
    {
      "midi": 56,
      "hit": false,
      "t": 87783.55062500003,
      "d": 144.73249999999825,
      "v": 94
    },
    {
      "midi": 60,
      "hit": false,
      "t": 87783.55062500003,
      "d": 513.1425000000017,
      "v": 116
    },
    {
      "midi": 57,
      "hit": false,
      "t": 87786.84000000003,
      "d": 263.15000000000873,
      "v": 101
    },
    {
      "midi": 57,
      "hit": false,
      "t": 88102.62000000004,
      "d": 819.0543749999779,
      "v": 101
    },
    {
      "midi": 52,
      "hit": false,
      "t": 88415.11062500003,
      "d": 532.8787499999889,
      "v": 104
    },
    {
      "midi": 61,
      "hit": false,
      "t": 88418.40000000002,
      "d": 503.2743749999936,
      "v": 113
    },
    {
      "midi": 52,
      "hit": false,
      "t": 89046.67062500001,
      "d": 69.07687499999884,
      "v": 106
    },
    {
      "midi": 61,
      "hit": false,
      "t": 89046.67062500001,
      "d": 749.9774999999936,
      "v": 113
    },
    {
      "midi": 57,
      "hit": false,
      "t": 89046.67062500001,
      "d": 769.7137499999953,
      "v": 115
    },
    {
      "midi": 61,
      "hit": false,
      "t": 89875.59312500001,
      "d": 29.604374999995343,
      "v": 114
    },
    {
      "midi": 54,
      "hit": false,
      "t": 89875.59312500001,
      "d": 49.34062499999709,
      "v": 113
    },
    {
      "midi": 57,
      "hit": false,
      "t": 89875.59312500001,
      "d": 55.91937499999767,
      "v": 110
    },
    {
      "midi": 54,
      "hit": false,
      "t": 90194.6625,
      "d": 39.47250000000349,
      "v": 82
    },
    {
      "midi": 61,
      "hit": false,
      "t": 90309.79062500001,
      "d": 197.36249999998836,
      "v": 111
    },
    {
      "midi": 57,
      "hit": false,
      "t": 90313.08,
      "d": 108.54937500000233,
      "v": 110
    },
    {
      "midi": 54,
      "hit": false,
      "t": 90313.08,
      "d": 177.62625000000116,
      "v": 94
    },
    {
      "midi": 54,
      "hit": false,
      "t": 90625.570625,
      "d": 177.62625000000116,
      "v": 92
    },
    {
      "midi": 57,
      "hit": false,
      "t": 90625.570625,
      "d": 236.8350000000064,
      "v": 109
    },
    {
      "midi": 61,
      "hit": false,
      "t": 90625.570625,
      "d": 236.8350000000064,
      "v": 101
    },
    {
      "midi": 57,
      "hit": false,
      "t": 90944.64,
      "d": 335.5162500000006,
      "v": 104
    },
    {
      "midi": 59,
      "hit": false,
      "t": 90944.64,
      "d": 335.5162500000006,
      "v": 113
    },
    {
      "midi": 63,
      "hit": false,
      "t": 90944.64,
      "d": 335.5162500000006,
      "v": 115
    },
    {
      "midi": 54,
      "hit": false,
      "t": 90944.64,
      "d": 355.2525000000023,
      "v": 97
    },
    {
      "midi": 57,
      "hit": false,
      "t": 91470.94,
      "d": 26.31500000000233,
      "v": 90
    },
    {
      "midi": 54,
      "hit": false,
      "t": 91470.94,
      "d": 39.47250000000349,
      "v": 86
    },
    {
      "midi": 63,
      "hit": false,
      "t": 91470.94,
      "d": 39.47250000000349,
      "v": 103
    },
    {
      "midi": 57,
      "hit": false,
      "t": 92418.28,
      "d": 39.47250000000349,
      "v": 120
    },
    {
      "midi": 59,
      "hit": false,
      "t": 92418.28,
      "d": 39.47250000000349,
      "v": 113
    },
    {
      "midi": 54,
      "hit": false,
      "t": 92418.28,
      "d": 49.34062499999709,
      "v": 120
    },
    {
      "midi": 63,
      "hit": false,
      "t": 92418.28,
      "d": 49.34062499999709,
      "v": 121
    },
    {
      "midi": 54,
      "hit": false,
      "t": 92717.61312499999,
      "d": 39.47250000000349,
      "v": 88
    },
    {
      "midi": 59,
      "hit": false,
      "t": 92832.74124999999,
      "d": 177.62625000000116,
      "v": 123
    },
    {
      "midi": 54,
      "hit": false,
      "t": 92832.74124999999,
      "d": 207.2306249999965,
      "v": 109
    },
    {
      "midi": 57,
      "hit": false,
      "t": 92832.74124999999,
      "d": 217.0987499999901,
      "v": 126
    },
    {
      "midi": 63,
      "hit": false,
      "t": 92832.74124999999,
      "d": 503.27437499997905,
      "v": 127
    },
    {
      "midi": 54,
      "hit": false,
      "t": 93151.81062499998,
      "d": 167.75812499999302,
      "v": 99
    },
    {
      "midi": 57,
      "hit": false,
      "t": 93151.81062499998,
      "d": 197.36249999998836,
      "v": 106
    },
    {
      "midi": 59,
      "hit": false,
      "t": 93155.09999999998,
      "d": 236.83499999999185,
      "v": 100
    },
    {
      "midi": 56,
      "hit": false,
      "t": 93467.59062499997,
      "d": 256.5712499999936,
      "v": 115
    },
    {
      "midi": 52,
      "hit": false,
      "t": 93467.59062499997,
      "d": 263.1499999999942,
      "v": 127
    },
    {
      "midi": 59,
      "hit": false,
      "t": 93467.59062499997,
      "d": 263.1499999999942,
      "v": 123
    },
    {
      "midi": 52,
      "hit": false,
      "t": 93783.37062499997,
      "d": 187.49437499999476,
      "v": 104
    },
    {
      "midi": 56,
      "hit": false,
      "t": 93786.65999999996,
      "d": 223.67750000000524,
      "v": 108
    },
    {
      "midi": 59,
      "hit": false,
      "t": 93786.65999999996,
      "d": 256.57125000000815,
      "v": 116
    },
    {
      "midi": 54,
      "hit": false,
      "t": 94102.43999999997,
      "d": 246.703125,
      "v": 127
    },
    {
      "midi": 57,
      "hit": false,
      "t": 94102.43999999997,
      "d": 246.703125,
      "v": 119
    },
    {
      "midi": 61,
      "hit": false,
      "t": 94102.43999999997,
      "d": 246.703125,
      "v": 120
    },
    {
      "midi": 54,
      "hit": false,
      "t": 94418.21999999997,
      "d": 207.2306249999965,
      "v": 104
    },
    {
      "midi": 57,
      "hit": false,
      "t": 94418.21999999997,
      "d": 207.2306249999965,
      "v": 108
    },
    {
      "midi": 61,
      "hit": false,
      "t": 94418.21999999997,
      "d": 276.30749999999534,
      "v": 106
    },
    {
      "midi": 58,
      "hit": false,
      "t": 94733.99999999997,
      "d": 246.703125,
      "v": 120
    },
    {
      "midi": 55,
      "hit": false,
      "t": 94733.99999999997,
      "d": 256.5712499999936,
      "v": 116
    },
    {
      "midi": 61,
      "hit": false,
      "t": 94733.99999999997,
      "d": 266.4393749999872,
      "v": 109
    },
    {
      "midi": 55,
      "hit": false,
      "t": 95049.77999999996,
      "d": 184.20500000000175,
      "v": 110
    },
    {
      "midi": 58,
      "hit": false,
      "t": 95049.77999999996,
      "d": 263.15000000000873,
      "v": 121
    },
    {
      "midi": 61,
      "hit": false,
      "t": 95049.77999999996,
      "d": 292.7543750000041,
      "v": 127
    },
    {
      "midi": 59,
      "hit": false,
      "t": 95365.55999999995,
      "d": 217.09875000000466,
      "v": 108
    },
    {
      "midi": 62,
      "hit": false,
      "t": 95365.55999999995,
      "d": 226.96687499999825,
      "v": 111
    },
    {
      "midi": 56,
      "hit": false,
      "t": 95365.55999999995,
      "d": 463.8018749999901,
      "v": 102
    },
    {
      "midi": 59,
      "hit": false,
      "t": 95678.05062499995,
      "d": 266.43937500000175,
      "v": 109
    },
    {
      "midi": 62,
      "hit": false,
      "t": 95678.05062499995,
      "d": 286.1756250000035,
      "v": 100
    },
    {
      "midi": 61,
      "hit": false,
      "t": 95997.11999999995,
      "d": 187.49437499999476,
      "v": 82
    },
    {
      "midi": 57,
      "hit": false,
      "t": 95997.11999999995,
      "d": 217.0987499999901,
      "v": 95
    },
    {
      "midi": 69,
      "hit": false,
      "t": 95997.11999999998,
      "d": 1263.1199999999953,
      "v": 107
    },
    {
      "midi": 57,
      "hit": false,
      "t": 96309.61062499994,
      "d": 39.47250000000349,
      "v": 96
    },
    {
      "midi": 61,
      "hit": false,
      "t": 96309.61062499994,
      "d": 55.91937499999767,
      "v": 95
    },
    {
      "midi": 52,
      "hit": false,
      "t": 96309.61062499994,
      "d": 69.07687499999884,
      "v": 104
    },
    {
      "midi": 57,
      "hit": false,
      "t": 96822.75312499994,
      "d": 39.47250000000349,
      "v": 92
    },
    {
      "midi": 52,
      "hit": false,
      "t": 96822.75312499994,
      "d": 59.20875000000524,
      "v": 114
    },
    {
      "midi": 61,
      "hit": false,
      "t": 96822.75312499994,
      "d": 59.20875000000524,
      "v": 94
    },
    {
      "midi": 61,
      "hit": false,
      "t": 97256.95062499995,
      "d": 59.20874999999069,
      "v": 94
    },
    {
      "midi": 52,
      "hit": false,
      "t": 97256.95062499995,
      "d": 78.94499999999243,
      "v": 87
    },
    {
      "midi": 57,
      "hit": false,
      "t": 97260.23999999995,
      "d": 55.91937499999767,
      "v": 104
    },
    {
      "midi": 73,
      "hit": false,
      "t": 97260.23999999998,
      "d": 947.3399999999965,
      "v": 99
    },
    {
      "midi": 52,
      "hit": false,
      "t": 97786.53999999995,
      "d": 213.8093749999971,
      "v": 127
    },
    {
      "midi": 61,
      "hit": false,
      "t": 97786.53999999995,
      "d": 381.5674999999901,
      "v": 121
    },
    {
      "midi": 57,
      "hit": false,
      "t": 97786.53999999995,
      "d": 404.59312499998487,
      "v": 127
    },
    {
      "midi": 52,
      "hit": false,
      "t": 98085.87312499994,
      "d": 246.703125,
      "v": 102
    },
    {
      "midi": 57,
      "hit": false,
      "t": 98204.29062499994,
      "d": 197.3625000000029,
      "v": 111
    },
    {
      "midi": 61,
      "hit": false,
      "t": 98204.29062499994,
      "d": 246.703125,
      "v": 108
    },
    {
      "midi": 69,
      "hit": false,
      "t": 98207.57999999997,
      "d": 473.66999999999825,
      "v": 94
    },
    {
      "midi": 56,
      "hit": false,
      "t": 98520.07062499993,
      "d": 223.67750000000524,
      "v": 103
    },
    {
      "midi": 61,
      "hit": false,
      "t": 98520.07062499993,
      "d": 223.67750000000524,
      "v": 107
    },
    {
      "midi": 59,
      "hit": false,
      "t": 98520.07062499993,
      "d": 236.8350000000064,
      "v": 109
    },
    {
      "midi": 53,
      "hit": false,
      "t": 98520.07062499993,
      "d": 256.57125000000815,
      "v": 104
    },
    {
      "midi": 68,
      "hit": false,
      "t": 98681.24999999997,
      "d": 1105.229999999996,
      "v": 98
    },
    {
      "midi": 59,
      "hit": false,
      "t": 98835.85062499995,
      "d": 26.31500000000233,
      "v": 109
    },
    {
      "midi": 61,
      "hit": false,
      "t": 98835.85062499995,
      "d": 26.31500000000233,
      "v": 118
    },
    {
      "midi": 53,
      "hit": false,
      "t": 98835.85062499995,
      "d": 49.34062499999709,
      "v": 97
    },
    {
      "midi": 56,
      "hit": false,
      "t": 98835.85062499995,
      "d": 49.34062499999709,
      "v": 120
    },
    {
      "midi": 61,
      "hit": false,
      "t": 99348.99312499995,
      "d": 46.05124999997497,
      "v": 108
    },
    {
      "midi": 53,
      "hit": false,
      "t": 99348.99312499995,
      "d": 55.91937499996857,
      "v": 111
    },
    {
      "midi": 56,
      "hit": false,
      "t": 99352.28249999994,
      "d": 9.868124999993597,
      "v": 87
    },
    {
      "midi": 59,
      "hit": false,
      "t": 99352.28249999994,
      "d": 19.736249999987194,
      "v": 109
    },
    {
      "midi": 56,
      "hit": false,
      "t": 99783.19062499992,
      "d": 740.109375,
      "v": 106
    },
    {
      "midi": 61,
      "hit": false,
      "t": 99783.19062499992,
      "d": 740.109375,
      "v": 120
    },
    {
      "midi": 53,
      "hit": false,
      "t": 99783.19062499992,
      "d": 763.1349999999948,
      "v": 100
    },
    {
      "midi": 59,
      "hit": false,
      "t": 99786.47999999991,
      "d": 749.9775000000081,
      "v": 115
    },
    {
      "midi": 53,
      "hit": false,
      "t": 100612.11312499992,
      "d": 266.43937500000175,
      "v": 119
    },
    {
      "midi": 61,
      "hit": false,
      "t": 100612.11312499992,
      "d": 296.0437499999971,
      "v": 110
    },
    {
      "midi": 56,
      "hit": false,
      "t": 100612.11312499992,
      "d": 365.1206249999959,
      "v": 111
    },
    {
      "midi": 59,
      "hit": false,
      "t": 100612.11312499992,
      "d": 394.72499999999127,
      "v": 108
    },
    {
      "midi": 54,
      "hit": false,
      "t": 101046.31062499991,
      "d": 694.0581249999959,
      "v": 127
    },
    {
      "midi": 57,
      "hit": false,
      "t": 101046.31062499991,
      "d": 700.6368749999965,
      "v": 122
    },
    {
      "midi": 61,
      "hit": false,
      "t": 101046.31062499991,
      "d": 733.5306249999994,
      "v": 123
    },
    {
      "midi": 66,
      "hit": false,
      "t": 101049.59999999996,
      "d": 1105.229999999996,
      "v": 117
    },
    {
      "midi": 57,
      "hit": false,
      "t": 101875.23312499991,
      "d": 29.604374999995343,
      "v": 116
    },
    {
      "midi": 54,
      "hit": false,
      "t": 101875.23312499991,
      "d": 46.05124999998952,
      "v": 121
    },
    {
      "midi": 61,
      "hit": false,
      "t": 101875.23312499991,
      "d": 55.91937499998312,
      "v": 120
    },
    {
      "midi": 69,
      "hit": false,
      "t": 102154.82999999996,
      "d": 315.77999999999884,
      "v": 114
    },
    {
      "midi": 54,
      "hit": false,
      "t": 102312.7199999999,
      "d": 49.34062499999709,
      "v": 103
    },
    {
      "midi": 61,
      "hit": false,
      "t": 102312.7199999999,
      "d": 59.20874999999069,
      "v": 118
    },
    {
      "midi": 66,
      "hit": false,
      "t": 102470.60999999996,
      "d": 1263.1199999999953,
      "v": 99
    },
    {
      "midi": 54,
      "hit": false,
      "t": 102822.5731249999,
      "d": 236.8350000000064,
      "v": 127
    },
    {
      "midi": 57,
      "hit": false,
      "t": 102822.5731249999,
      "d": 381.56750000000466,
      "v": 127
    },
    {
      "midi": 61,
      "hit": false,
      "t": 102822.5731249999,
      "d": 394.7250000000058,
      "v": 127
    },
    {
      "midi": 54,
      "hit": false,
      "t": 103141.6424999999,
      "d": 144.73249999999825,
      "v": 101
    },
    {
      "midi": 61,
      "hit": false,
      "t": 103256.7706249999,
      "d": 256.5712499999936,
      "v": 83
    },
    {
      "midi": 57,
      "hit": false,
      "t": 103260.0599999999,
      "d": 138.15374999999767,
      "v": 93
    },
    {
      "midi": 61,
      "hit": false,
      "t": 103572.5506249999,
      "d": 236.83499999999185,
      "v": 113
    },
    {
      "midi": 57,
      "hit": false,
      "t": 103575.8399999999,
      "d": 217.09875000000466,
      "v": 106
    },
    {
      "midi": 55,
      "hit": false,
      "t": 103575.8399999999,
      "d": 223.67750000000524,
      "v": 116
    },
    {
      "midi": 52,
      "hit": false,
      "t": 103575.8399999999,
      "d": 253.28187500000058,
      "v": 109
    },
    {
      "midi": 64,
      "hit": false,
      "t": 103733.72999999995,
      "d": 315.77999999999884,
      "v": 99
    },
    {
      "midi": 61,
      "hit": false,
      "t": 103888.3306249999,
      "d": 49.34062499999709,
      "v": 114
    },
    {
      "midi": 57,
      "hit": false,
      "t": 103891.6199999999,
      "d": 39.47250000000349,
      "v": 101
    },
    {
      "midi": 61,
      "hit": false,
      "t": 104401.4731249999,
      "d": 59.20874999999069,
      "v": 103
    },
    {
      "midi": 52,
      "hit": false,
      "t": 104404.7624999999,
      "d": 49.34062499999709,
      "v": 107
    },
    {
      "midi": 52,
      "hit": false,
      "t": 104720.5424999999,
      "d": 49.34062499999709,
      "v": 96
    },
    {
      "midi": 55,
      "hit": false,
      "t": 104835.6706249999,
      "d": 1177.5962500000023,
      "v": 127
    },
    {
      "midi": 52,
      "hit": false,
      "t": 104835.6706249999,
      "d": 1197.332500000004,
      "v": 109
    },
    {
      "midi": 57,
      "hit": false,
      "t": 104835.6706249999,
      "d": 1197.332500000004,
      "v": 116
    },
    {
      "midi": 61,
      "hit": false,
      "t": 104835.6706249999,
      "d": 1197.332500000004,
      "v": 127
    },
    {
      "midi": 62,
      "hit": false,
      "t": 106102.0799999999,
      "d": 684.1900000000023,
      "v": 123
    },
    {
      "midi": 54,
      "hit": false,
      "t": 106102.0799999999,
      "d": 690.7687500000029,
      "v": 123
    },
    {
      "midi": 57,
      "hit": false,
      "t": 106102.0799999999,
      "d": 730.2412500000064,
      "v": 109
    },
    {
      "midi": 57,
      "hit": false,
      "t": 106927.71312499991,
      "d": 55.91937499999767,
      "v": 116
    },
    {
      "midi": 54,
      "hit": false,
      "t": 106931.0024999999,
      "d": 26.31500000000233,
      "v": 120
    },
    {
      "midi": 62,
      "hit": false,
      "t": 106931.0024999999,
      "d": 55.91937499999767,
      "v": 120
    },
    {
      "midi": 54,
      "hit": false,
      "t": 107365.1999999999,
      "d": 55.91937499999767,
      "v": 110
    },
    {
      "midi": 62,
      "hit": false,
      "t": 107365.1999999999,
      "d": 55.91937499999767,
      "v": 109
    },
    {
      "midi": 56,
      "hit": false,
      "t": 107559.27312499989,
      "d": 105.25999999999476,
      "v": 127
    },
    {
      "midi": 60,
      "hit": false,
      "t": 107559.27312499989,
      "d": 368.40999999998894,
      "v": 127
    },
    {
      "midi": 57,
      "hit": false,
      "t": 107559.27312499989,
      "d": 381.5674999999901,
      "v": 127
    },
    {
      "midi": 56,
      "hit": false,
      "t": 107993.47062499989,
      "d": 46.05124999998952,
      "v": 77
    },
    {
      "midi": 60,
      "hit": false,
      "t": 107993.47062499989,
      "d": 246.70312499998545,
      "v": 106
    },
    {
      "midi": 57,
      "hit": false,
      "t": 107996.75999999988,
      "d": 236.83499999999185,
      "v": 101
    },
    {
      "midi": 60,
      "hit": false,
      "t": 108309.25062499987,
      "d": 207.2306249999965,
      "v": 106
    },
    {
      "midi": 57,
      "hit": false,
      "t": 108309.25062499987,
      "d": 848.6587499999878,
      "v": 101
    },
    {
      "midi": 52,
      "hit": false,
      "t": 108628.31999999986,
      "d": 503.2743749999936,
      "v": 98
    },
    {
      "midi": 61,
      "hit": false,
      "t": 108628.31999999986,
      "d": 503.2743749999936,
      "v": 97
    },
    {
      "midi": 52,
      "hit": false,
      "t": 109256.59062499985,
      "d": 167.75812499999302,
      "v": 122
    },
    {
      "midi": 57,
      "hit": false,
      "t": 109256.59062499985,
      "d": 226.96687499999825,
      "v": 127
    },
    {
      "midi": 61,
      "hit": false,
      "t": 109256.59062499985,
      "d": 552.6150000000052,
      "v": 127
    },
    {
      "midi": 54,
      "hit": false,
      "t": 109888.15062499986,
      "d": 710.5049999999901,
      "v": 127
    },
    {
      "midi": 61,
      "hit": false,
      "t": 109888.15062499986,
      "d": 740.1093749999854,
      "v": 113
    },
    {
      "midi": 57,
      "hit": false,
      "t": 109891.43999999986,
      "d": 720.3731249999983,
      "v": 116
    },
    {
      "midi": 57,
      "hit": false,
      "t": 110717.07312499985,
      "d": 26.31500000000233,
      "v": 127
    },
    {
      "midi": 61,
      "hit": false,
      "t": 110717.07312499985,
      "d": 26.31500000000233,
      "v": 127
    },
    {
      "midi": 54,
      "hit": false,
      "t": 110717.07312499985,
      "d": 49.34062499999709,
      "v": 127
    },
    {
      "midi": 57,
      "hit": false,
      "t": 111467.05062499984,
      "d": 39.47250000000349,
      "v": 120
    },
    {
      "midi": 59,
      "hit": false,
      "t": 111467.05062499984,
      "d": 39.47250000000349,
      "v": 116
    },
    {
      "midi": 54,
      "hit": false,
      "t": 111467.05062499984,
      "d": 55.91937499999767,
      "v": 120
    },
    {
      "midi": 63,
      "hit": false,
      "t": 111467.05062499984,
      "d": 95.39187500000116,
      "v": 121
    },
    {
      "midi": 54,
      "hit": false,
      "t": 111980.19312499985,
      "d": 263.1499999999942,
      "v": 102
    },
    {
      "midi": 57,
      "hit": false,
      "t": 111980.19312499985,
      "d": 276.30749999999534,
      "v": 100
    },
    {
      "midi": 63,
      "hit": false,
      "t": 111980.19312499985,
      "d": 302.6224999999977,
      "v": 114
    },
    {
      "midi": 59,
      "hit": false,
      "t": 111983.48249999984,
      "d": 49.34062499999709,
      "v": 90
    },
    {
      "midi": 56,
      "hit": false,
      "t": 112414.39062499984,
      "d": 421.0399999999936,
      "v": 111
    },
    {
      "midi": 52,
      "hit": false,
      "t": 112414.39062499984,
      "d": 434.19749999999476,
      "v": 121
    },
    {
      "midi": 59,
      "hit": false,
      "t": 112414.39062499984,
      "d": 434.19749999999476,
      "v": 102
    },
    {
      "midi": 62,
      "hit": false,
      "t": 112414.39062499984,
      "d": 434.19749999999476,
      "v": 115
    },
    {
      "midi": 59,
      "hit": false,
      "t": 112927.53312499984,
      "d": 651.2962499999994,
      "v": 111
    },
    {
      "midi": 62,
      "hit": false,
      "t": 112927.53312499984,
      "d": 651.2962499999994,
      "v": 114
    },
    {
      "midi": 56,
      "hit": false,
      "t": 112927.53312499984,
      "d": 671.0325000000012,
      "v": 115
    },
    {
      "midi": 52,
      "hit": false,
      "t": 112927.53312499984,
      "d": 789.4500000000116,
      "v": 119
    },
    {
      "midi": 61,
      "hit": false,
      "t": 113677.51062499985,
      "d": 2302.5625,
      "v": 127
    },
    {
      "midi": 61,
      "hit": false,
      "t": 116193.88249999985,
      "d": 78.94499999999243,
      "v": 127
    },
    {
      "midi": 62,
      "hit": false,
      "t": 116203.75062499984,
      "d": 2302.5625,
      "v": 127
    },
    {
      "midi": 63,
      "hit": false,
      "t": 118720.12249999984,
      "d": 69.07687499999884,
      "v": 127
    },
    {
      "midi": 64,
      "hit": false,
      "t": 118726.70124999984,
      "d": 2414.4012499999953,
      "v": 127
    },
    {
      "midi": 64,
      "hit": false,
      "t": 121259.51999999983,
      "d": 105.26000000000931,
      "v": 127
    },
    {
      "midi": 63,
      "hit": false,
      "t": 121312.14999999983,
      "d": 88.81312500000058,
      "v": 127
    },
    {
      "midi": 62,
      "hit": false,
      "t": 121364.77999999984,
      "d": 1917.7056250000023,
      "v": 127
    },
    {
      "midi": 61,
      "hit": false,
      "t": 124098.25062499984,
      "d": 444.06562499998836,
      "v": 103
    },
    {
      "midi": 64,
      "hit": false,
      "t": 124098.25062499984,
      "d": 463.8018749999901,
      "v": 106
    },
    {
      "midi": 57,
      "hit": false,
      "t": 124101.53999999983,
      "d": 552.6149999999907,
      "v": 90
    },
    {
      "midi": 69,
      "hit": false,
      "t": 124101.53999999995,
      "d": 947.3399999999965,
      "v": 100
    },
    {
      "midi": 61,
      "hit": false,
      "t": 124611.39312499983,
      "d": 39.47250000000349,
      "v": 102
    },
    {
      "midi": 64,
      "hit": false,
      "t": 124611.39312499983,
      "d": 49.34062499999709,
      "v": 116
    },
    {
      "midi": 57,
      "hit": false,
      "t": 125048.87999999983,
      "d": 26.31500000000233,
      "v": 77
    },
    {
      "midi": 61,
      "hit": false,
      "t": 125048.87999999983,
      "d": 26.31500000000233,
      "v": 73
    },
    {
      "midi": 73,
      "hit": false,
      "t": 125048.87999999995,
      "d": 947.3399999999965,
      "v": 104
    },
    {
      "midi": 64,
      "hit": false,
      "t": 125575.17999999983,
      "d": 651.2962499999994,
      "v": 106
    },
    {
      "midi": 57,
      "hit": false,
      "t": 125575.17999999983,
      "d": 680.9006249999948,
      "v": 101
    },
    {
      "midi": 61,
      "hit": false,
      "t": 125575.17999999983,
      "d": 749.977499999979,
      "v": 103
    },
    {
      "midi": 69,
      "hit": false,
      "t": 125996.21999999994,
      "d": 157.88999999999942,
      "v": 99
    },
    {
      "midi": 68,
      "hit": false,
      "t": 126154.10999999994,
      "d": 473.66999999999825,
      "v": 99
    },
    {
      "midi": 59,
      "hit": false,
      "t": 126311.99999999983,
      "d": 78.94499999997788,
      "v": 96
    },
    {
      "midi": 56,
      "hit": false,
      "t": 126315.28937499982,
      "d": 39.47249999998894,
      "v": 85
    },
    {
      "midi": 56,
      "hit": false,
      "t": 126624.4906249998,
      "d": 59.20875000000524,
      "v": 121
    },
    {
      "midi": 59,
      "hit": false,
      "t": 126624.4906249998,
      "d": 59.20875000000524,
      "v": 123
    },
    {
      "midi": 61,
      "hit": false,
      "t": 126624.4906249998,
      "d": 59.20875000000524,
      "v": 113
    },
    {
      "midi": 61,
      "hit": false,
      "t": 127137.6331249998,
      "d": 26.31500000000233,
      "v": 85
    },
    {
      "midi": 56,
      "hit": false,
      "t": 127137.6331249998,
      "d": 39.47250000000349,
      "v": 98
    },
    {
      "midi": 65,
      "hit": false,
      "t": 127137.6331249998,
      "d": 39.47250000000349,
      "v": 116
    },
    {
      "midi": 59,
      "hit": false,
      "t": 127137.6331249998,
      "d": 49.34062499999709,
      "v": 116
    },
    {
      "midi": 59,
      "hit": false,
      "t": 127575.1199999998,
      "d": 19.736250000001746,
      "v": 88
    },
    {
      "midi": 61,
      "hit": false,
      "t": 127575.1199999998,
      "d": 39.47250000000349,
      "v": 85
    },
    {
      "midi": 56,
      "hit": false,
      "t": 127575.1199999998,
      "d": 55.91937499999767,
      "v": 88
    },
    {
      "midi": 65,
      "hit": false,
      "t": 128084.9731249998,
      "d": 552.6150000000052,
      "v": 126
    },
    {
      "midi": 61,
      "hit": false,
      "t": 128084.9731249998,
      "d": 671.0325000000012,
      "v": 103
    },
    {
      "midi": 56,
      "hit": false,
      "t": 128084.9731249998,
      "d": 684.1900000000023,
      "v": 103
    },
    {
      "midi": 54,
      "hit": false,
      "t": 128834.95062499981,
      "d": 694.0581249999959,
      "v": 125
    },
    {
      "midi": 57,
      "hit": false,
      "t": 128834.95062499981,
      "d": 710.5049999999901,
      "v": 121
    },
    {
      "midi": 61,
      "hit": false,
      "t": 128834.95062499981,
      "d": 733.5306249999849,
      "v": 115
    },
    {
      "midi": 66,
      "hit": false,
      "t": 129154.01999999995,
      "d": 947.3399999999965,
      "v": 102
    },
    {
      "midi": 54,
      "hit": false,
      "t": 129663.8731249998,
      "d": 39.47250000000349,
      "v": 121
    },
    {
      "midi": 57,
      "hit": false,
      "t": 129663.8731249998,
      "d": 39.47250000000349,
      "v": 122
    },
    {
      "midi": 61,
      "hit": false,
      "t": 129663.8731249998,
      "d": 46.051250000004075,
      "v": 123
    },
    {
      "midi": 61,
      "hit": false,
      "t": 130098.0706249998,
      "d": 46.05124999998952,
      "v": 95
    },
    {
      "midi": 57,
      "hit": false,
      "t": 130101.3599999998,
      "d": 29.604374999995343,
      "v": 100
    },
    {
      "midi": 69,
      "hit": false,
      "t": 130101.35999999994,
      "d": 947.3399999999965,
      "v": 104
    },
    {
      "midi": 54,
      "hit": false,
      "t": 130611.21312499979,
      "d": 641.4281249999913,
      "v": 106
    },
    {
      "midi": 57,
      "hit": false,
      "t": 130611.21312499979,
      "d": 651.2962499999994,
      "v": 117
    },
    {
      "midi": 61,
      "hit": false,
      "t": 130611.21312499979,
      "d": 661.1643750000076,
      "v": 115
    },
    {
      "midi": 66,
      "hit": false,
      "t": 131048.69999999994,
      "d": 157.88999999999942,
      "v": 105
    },
    {
      "midi": 64,
      "hit": false,
      "t": 131206.58999999994,
      "d": 789.4500000000116,
      "v": 96
    },
    {
      "midi": 61,
      "hit": false,
      "t": 131673.6812499998,
      "d": 78.94500000000698,
      "v": 106
    },
    {
      "midi": 57,
      "hit": false,
      "t": 131676.97062499978,
      "d": 65.78750000000582,
      "v": 101
    },
    {
      "midi": 55,
      "hit": false,
      "t": 132190.1131249998,
      "d": 49.34062499998254,
      "v": 116
    },
    {
      "midi": 61,
      "hit": false,
      "t": 132190.1131249998,
      "d": 59.20874999999069,
      "v": 104
    },
    {
      "midi": 52,
      "hit": false,
      "t": 132193.4024999998,
      "d": 39.47250000000349,
      "v": 113
    },
    {
      "midi": 57,
      "hit": false,
      "t": 132193.4024999998,
      "d": 39.47250000000349,
      "v": 94
    },
    {
      "midi": 55,
      "hit": false,
      "t": 132627.5999999998,
      "d": 29.604374999995343,
      "v": 96
    },
    {
      "midi": 57,
      "hit": false,
      "t": 132627.5999999998,
      "d": 39.47250000000349,
      "v": 96
    },
    {
      "midi": 61,
      "hit": false,
      "t": 132627.5999999998,
      "d": 55.91937499999767,
      "v": 99
    },
    {
      "midi": 52,
      "hit": false,
      "t": 132627.5999999998,
      "d": 78.94500000000698,
      "v": 106
    },
    {
      "midi": 52,
      "hit": false,
      "t": 133137.4531249998,
      "d": 217.09875000000466,
      "v": 127
    },
    {
      "midi": 57,
      "hit": false,
      "t": 133137.4531249998,
      "d": 407.8824999999779,
      "v": 114
    },
    {
      "midi": 55,
      "hit": false,
      "t": 133137.4531249998,
      "d": 592.0874999999651,
      "v": 121
    },
    {
      "midi": 61,
      "hit": false,
      "t": 133137.4531249998,
      "d": 644.7174999999697,
      "v": 117
    },
    {
      "midi": 52,
      "hit": false,
      "t": 133456.5224999998,
      "d": 345.3843749999651,
      "v": 101
    },
    {
      "midi": 57,
      "hit": false,
      "t": 133574.93999999977,
      "d": 223.6774999999907,
      "v": 70
    },
    {
      "midi": 54,
      "hit": false,
      "t": 133887.43062499975,
      "d": 710.5050000000047,
      "v": 118
    },
    {
      "midi": 57,
      "hit": false,
      "t": 133887.43062499975,
      "d": 723.6625000000058,
      "v": 104
    },
    {
      "midi": 62,
      "hit": false,
      "t": 133887.43062499975,
      "d": 730.2412499999919,
      "v": 123
    },
    {
      "midi": 54,
      "hit": false,
      "t": 134716.35312499973,
      "d": 16.44687499999418,
      "v": 101
    },
    {
      "midi": 57,
      "hit": false,
      "t": 134716.35312499973,
      "d": 49.34062499998254,
      "v": 104
    },
    {
      "midi": 62,
      "hit": false,
      "t": 134716.35312499973,
      "d": 49.34062499998254,
      "v": 109
    },
    {
      "midi": 62,
      "hit": false,
      "t": 135153.8399999997,
      "d": 29.604374999995343,
      "v": 78
    },
    {
      "midi": 54,
      "hit": false,
      "t": 135153.8399999997,
      "d": 39.47250000000349,
      "v": 87
    },
    {
      "midi": 57,
      "hit": false,
      "t": 135153.8399999997,
      "d": 65.78750000000582,
      "v": 91
    },
    {
      "midi": 54,
      "hit": false,
      "t": 135663.6931249997,
      "d": 453.9337499999965,
      "v": 113
    },
    {
      "midi": 57,
      "hit": false,
      "t": 135663.6931249997,
      "d": 513.1424999999872,
      "v": 104
    },
    {
      "midi": 62,
      "hit": false,
      "t": 135663.6931249997,
      "d": 572.3512499999779,
      "v": 113
    },
    {
      "midi": 57,
      "hit": false,
      "t": 136295.25312499967,
      "d": 88.81312499998603,
      "v": 79
    },
    {
      "midi": 57,
      "hit": false,
      "t": 136413.67062499965,
      "d": 651.296250000014,
      "v": 95
    },
    {
      "midi": 61,
      "hit": false,
      "t": 136413.67062499965,
      "d": 680.9006250000093,
      "v": 114
    },
    {
      "midi": 64,
      "hit": false,
      "t": 136413.67062499965,
      "d": 694.0581250000105,
      "v": 123
    },
    {
      "midi": 57,
      "hit": false,
      "t": 137874.15312499966,
      "d": 29.604374999995343,
      "v": 119
    },
    {
      "midi": 54,
      "hit": false,
      "t": 137874.15312499966,
      "d": 39.47250000000349,
      "v": 118
    },
    {
      "midi": 61,
      "hit": false,
      "t": 137874.15312499966,
      "d": 39.47250000000349,
      "v": 118
    },
    {
      "midi": 54,
      "hit": false,
      "t": 138308.35062499967,
      "d": 473.6700000000128,
      "v": 104
    },
    {
      "midi": 57,
      "hit": false,
      "t": 138308.35062499967,
      "d": 473.6700000000128,
      "v": 113
    },
    {
      "midi": 61,
      "hit": false,
      "t": 138308.35062499967,
      "d": 513.1425000000163,
      "v": 123
    },
    {
      "midi": 54,
      "hit": false,
      "t": 138939.9106249997,
      "d": 671.0325000000012,
      "v": 102
    },
    {
      "midi": 63,
      "hit": false,
      "t": 138939.9106249997,
      "d": 680.9006250000093,
      "v": 114
    },
    {
      "midi": 59,
      "hit": false,
      "t": 138939.9106249997,
      "d": 690.7687500000175,
      "v": 112
    },
    {
      "midi": 57,
      "hit": false,
      "t": 138939.9106249997,
      "d": 697.3475000000035,
      "v": 109
    },
    {
      "midi": 54,
      "hit": false,
      "t": 139785.2799999997,
      "d": 39.47250000000349,
      "v": 114
    },
    {
      "midi": 59,
      "hit": false,
      "t": 139785.2799999997,
      "d": 39.47250000000349,
      "v": 110
    },
    {
      "midi": 63,
      "hit": false,
      "t": 139785.2799999997,
      "d": 49.34062500001164,
      "v": 108
    },
    {
      "midi": 54,
      "hit": false,
      "t": 141031.9531249997,
      "d": 276.30749999999534,
      "v": 127
    },
    {
      "midi": 63,
      "hit": false,
      "t": 141031.9531249997,
      "d": 286.1756250000035,
      "v": 127
    },
    {
      "midi": 57,
      "hit": false,
      "t": 141031.9531249997,
      "d": 302.6224999999977,
      "v": 127
    },
    {
      "midi": 59,
      "hit": false,
      "t": 141031.9531249997,
      "d": 421.04000000000815,
      "v": 127
    },
    {
      "midi": 59,
      "hit": false,
      "t": 141469.4399999997,
      "d": 167.75812499999302,
      "v": 68
    },
    {
      "midi": 52,
      "hit": false,
      "t": 141472.7293749997,
      "d": 95.39187500000116,
      "v": 96
    },
    {
      "midi": 52,
      "hit": false,
      "t": 141781.93062499972,
      "d": 223.6774999999907,
      "v": 127
    },
    {
      "midi": 56,
      "hit": false,
      "t": 141781.93062499972,
      "d": 276.30749999999534,
      "v": 118
    },
    {
      "midi": 59,
      "hit": false,
      "t": 141781.93062499972,
      "d": 292.7543749999895,
      "v": 127
    },
    {
      "midi": 57,
      "hit": false,
      "t": 142097.71062499972,
      "d": 256.57124999997905,
      "v": 127
    },
    {
      "midi": 61,
      "hit": false,
      "t": 142097.71062499972,
      "d": 256.57124999997905,
      "v": 123
    },
    {
      "midi": 54,
      "hit": false,
      "t": 142104.2893749997,
      "d": 85.52374999999302,
      "v": 115
    },
    {
      "midi": 54,
      "hit": false,
      "t": 142413.4906249997,
      "d": 197.36249999998836,
      "v": 118
    },
    {
      "midi": 57,
      "hit": false,
      "t": 142413.4906249997,
      "d": 226.9668749999837,
      "v": 107
    },
    {
      "midi": 61,
      "hit": false,
      "t": 142413.4906249997,
      "d": 296.04374999998254,
      "v": 101
    },
    {
      "midi": 55,
      "hit": false,
      "t": 142732.55999999968,
      "d": 473.6700000000128,
      "v": 111
    },
    {
      "midi": 61,
      "hit": false,
      "t": 142732.55999999968,
      "d": 572.351250000007,
      "v": 107
    },
    {
      "midi": 58,
      "hit": false,
      "t": 142732.55999999968,
      "d": 592.0874999999942,
      "v": 117
    },
    {
      "midi": 56,
      "hit": false,
      "t": 143360.83062499968,
      "d": 513.1424999999872,
      "v": 123
    },
    {
      "midi": 62,
      "hit": false,
      "t": 143360.83062499968,
      "d": 582.219374999986,
      "v": 127
    },
    {
      "midi": 59,
      "hit": false,
      "t": 143360.83062499968,
      "d": 601.9556249999732,
      "v": 127
    },
    {
      "midi": 61,
      "hit": false,
      "t": 143992.39062499965,
      "d": 256.57124999997905,
      "v": 92
    },
    {
      "midi": 57,
      "hit": false,
      "t": 143995.67999999964,
      "d": 236.83499999999185,
      "v": 73
    },
    {
      "midi": 61,
      "hit": false,
      "t": 144308.17062499962,
      "d": 26.31500000000233,
      "v": 96
    },
    {
      "midi": 64,
      "hit": false,
      "t": 144308.17062499962,
      "d": 59.20874999999069,
      "v": 109
    },
    {
      "midi": 69,
      "hit": false,
      "t": 144311.45999999996,
      "d": 947.3399999999965,
      "v": 105
    },
    {
      "midi": 57,
      "hit": false,
      "t": 144821.3131249996,
      "d": 49.34062500001164,
      "v": 97
    },
    {
      "midi": 61,
      "hit": false,
      "t": 144821.3131249996,
      "d": 49.34062500001164,
      "v": 97
    },
    {
      "midi": 64,
      "hit": false,
      "t": 144821.3131249996,
      "d": 65.78750000000582,
      "v": 111
    },
    {
      "midi": 57,
      "hit": false,
      "t": 145258.7999999996,
      "d": 414.461249999993,
      "v": 92
    },
    {
      "midi": 61,
      "hit": false,
      "t": 145258.7999999996,
      "d": 414.461249999993,
      "v": 87
    },
    {
      "midi": 73,
      "hit": false,
      "t": 145258.79999999996,
      "d": 947.3399999999965,
      "v": 109
    },
    {
      "midi": 64,
      "hit": false,
      "t": 145768.6531249996,
      "d": 542.7468750000116,
      "v": 104
    },
    {
      "midi": 57,
      "hit": false,
      "t": 145768.6531249996,
      "d": 582.2193750000151,
      "v": 93
    },
    {
      "midi": 61,
      "hit": false,
      "t": 145768.6531249996,
      "d": 828.9225000000151,
      "v": 100
    },
    {
      "midi": 69,
      "hit": false,
      "t": 146206.13999999996,
      "d": 157.89000000001397,
      "v": 100
    },
    {
      "midi": 68,
      "hit": false,
      "t": 146364.02999999997,
      "d": 315.77999999999884,
      "v": 102
    },
    {
      "midi": 59,
      "hit": false,
      "t": 146521.9199999996,
      "d": 39.47250000000349,
      "v": 103
    },
    {
      "midi": 56,
      "hit": false,
      "t": 146521.9199999996,
      "d": 157.89000000001397,
      "v": 90
    },
    {
      "midi": 56,
      "hit": false,
      "t": 146834.4106249996,
      "d": 39.47250000000349,
      "v": 68
    },
    {
      "midi": 59,
      "hit": false,
      "t": 146834.4106249996,
      "d": 39.47250000000349,
      "v": 108
    },
    {
      "midi": 65,
      "hit": false,
      "t": 146834.4106249996,
      "d": 39.47250000000349,
      "v": 106
    },
    {
      "midi": 61,
      "hit": false,
      "t": 146834.4106249996,
      "d": 49.34062500001164,
      "v": 95
    },
    {
      "midi": 56,
      "hit": false,
      "t": 147465.9706249996,
      "d": 29.60437499996624,
      "v": 81
    },
    {
      "midi": 65,
      "hit": false,
      "t": 147465.9706249996,
      "d": 29.60437499996624,
      "v": 103
    },
    {
      "midi": 61,
      "hit": false,
      "t": 147465.9706249996,
      "d": 39.47249999997439,
      "v": 81
    },
    {
      "midi": 59,
      "hit": false,
      "t": 147469.2599999996,
      "d": 19.736249999987194,
      "v": 92
    },
    {
      "midi": 56,
      "hit": false,
      "t": 147982.4024999996,
      "d": 26.31500000000233,
      "v": 102
    },
    {
      "midi": 65,
      "hit": false,
      "t": 147982.4024999996,
      "d": 26.31500000000233,
      "v": 121
    },
    {
      "midi": 59,
      "hit": false,
      "t": 147982.4024999996,
      "d": 39.47250000000349,
      "v": 121
    },
    {
      "midi": 61,
      "hit": false,
      "t": 147982.4024999996,
      "d": 39.47250000000349,
      "v": 103
    },
    {
      "midi": 56,
      "hit": false,
      "t": 148294.8931249996,
      "d": 572.3512499999779,
      "v": 94
    },
    {
      "midi": 61,
      "hit": false,
      "t": 148410.02124999958,
      "d": 226.9668750000128,
      "v": 98
    },
    {
      "midi": 65,
      "hit": false,
      "t": 148410.02124999958,
      "d": 532.8787500000035,
      "v": 122
    },
    {
      "midi": 61,
      "hit": false,
      "t": 148725.80124999958,
      "d": 276.30749999999534,
      "v": 88
    },
    {
      "midi": 59,
      "hit": false,
      "t": 148725.80124999958,
      "d": 302.6224999999977,
      "v": 109
    },
    {
      "midi": 57,
      "hit": false,
      "t": 149048.15999999957,
      "d": 236.83499999999185,
      "v": 102
    },
    {
      "midi": 61,
      "hit": false,
      "t": 149048.15999999957,
      "d": 246.703125,
      "v": 83
    },
    {
      "midi": 61,
      "hit": false,
      "t": 149360.65062499957,
      "d": 384.85687499996857,
      "v": 111
    },
    {
      "midi": 57,
      "hit": false,
      "t": 149363.93999999957,
      "d": 374.9887499999895,
      "v": 126
    },
    {
      "midi": 54,
      "hit": false,
      "t": 149363.93999999957,
      "d": 503.27437499997905,
      "v": 127
    },
    {
      "midi": 66,
      "hit": false,
      "t": 149363.93999999997,
      "d": 789.4500000000116,
      "v": 113
    },
    {
      "midi": 61,
      "hit": false,
      "t": 149873.79312499953,
      "d": 49.34062500001164,
      "v": 92
    },
    {
      "midi": 69,
      "hit": false,
      "t": 150153.38999999998,
      "d": 1105.2300000000105,
      "v": 100
    },
    {
      "midi": 57,
      "hit": false,
      "t": 150311.27999999953,
      "d": 49.34062500001164,
      "v": 119
    },
    {
      "midi": 54,
      "hit": false,
      "t": 150311.27999999953,
      "d": 65.78750000000582,
      "v": 103
    },
    {
      "midi": 61,
      "hit": false,
      "t": 150311.27999999953,
      "d": 78.94500000000698,
      "v": 113
    },
    {
      "midi": 54,
      "hit": false,
      "t": 150821.13312499953,
      "d": 203.9412500000035,
      "v": 106
    },
    {
      "midi": 61,
      "hit": false,
      "t": 150821.13312499953,
      "d": 315.77999999999884,
      "v": 110
    },
    {
      "midi": 57,
      "hit": false,
      "t": 150821.13312499953,
      "d": 342.09500000000116,
      "v": 122
    },
    {
      "midi": 54,
      "hit": false,
      "t": 151153.35999999952,
      "d": 118.41750000001048,
      "v": 78
    },
    {
      "midi": 61,
      "hit": false,
      "t": 151255.33062499954,
      "d": 217.09875000000466,
      "v": 62
    },
    {
      "midi": 57,
      "hit": false,
      "t": 151258.61999999953,
      "d": 246.703125,
      "v": 87
    },
    {
      "midi": 66,
      "hit": false,
      "t": 151258.62,
      "d": 157.89000000001397,
      "v": 105
    },
    {
      "midi": 64,
      "hit": false,
      "t": 151416.51,
      "d": 1105.2300000000105,
      "v": 105
    },
    {
      "midi": 55,
      "hit": false,
      "t": 151571.11062499954,
      "d": 217.09874999997555,
      "v": 112
    },
    {
      "midi": 57,
      "hit": false,
      "t": 151571.11062499954,
      "d": 223.67749999996158,
      "v": 105
    },
    {
      "midi": 52,
      "hit": false,
      "t": 151571.11062499954,
      "d": 236.83499999996275,
      "v": 78
    },
    {
      "midi": 61,
      "hit": false,
      "t": 151574.39999999953,
      "d": 197.36249999998836,
      "v": 108
    },
    {
      "midi": 61,
      "hit": false,
      "t": 151886.8906249995,
      "d": 59.20874999999069,
      "v": 103
    },
    {
      "midi": 52,
      "hit": false,
      "t": 151886.8906249995,
      "d": 69.07687499999884,
      "v": 100
    },
    {
      "midi": 55,
      "hit": false,
      "t": 151890.1799999995,
      "d": 39.47250000000349,
      "v": 102
    },
    {
      "midi": 57,
      "hit": false,
      "t": 151890.1799999995,
      "d": 39.47250000000349,
      "v": 106
    },
    {
      "midi": 57,
      "hit": false,
      "t": 152403.3224999995,
      "d": 29.604374999995343,
      "v": 100
    },
    {
      "midi": 52,
      "hit": false,
      "t": 152403.3224999995,
      "d": 55.91937499999767,
      "v": 127
    },
    {
      "midi": 61,
      "hit": false,
      "t": 152403.3224999995,
      "d": 55.91937499999767,
      "v": 110
    },
    {
      "midi": 55,
      "hit": false,
      "t": 152834.2306249995,
      "d": 414.461249999993,
      "v": 106
    },
    {
      "midi": 57,
      "hit": false,
      "t": 152834.2306249995,
      "d": 424.32937500000116,
      "v": 104
    },
    {
      "midi": 61,
      "hit": false,
      "t": 152834.2306249995,
      "d": 424.32937500000116,
      "v": 94
    },
    {
      "midi": 52,
      "hit": false,
      "t": 152834.2306249995,
      "d": 434.1975000000093,
      "v": 100
    },
    {
      "midi": 55,
      "hit": false,
      "t": 153347.37312499952,
      "d": 592.0874999999942,
      "v": 105
    },
    {
      "midi": 61,
      "hit": false,
      "t": 153347.37312499952,
      "d": 671.0325000000012,
      "v": 106
    },
    {
      "midi": 57,
      "hit": false,
      "t": 153347.37312499952,
      "d": 700.6368749999965,
      "v": 117
    },
    {
      "midi": 62,
      "hit": false,
      "t": 154097.35062499953,
      "d": 690.7687499999884,
      "v": 122
    },
    {
      "midi": 54,
      "hit": false,
      "t": 154097.35062499953,
      "d": 700.6368749999965,
      "v": 117
    },
    {
      "midi": 57,
      "hit": false,
      "t": 154097.35062499953,
      "d": 720.3731249999837,
      "v": 120
    },
    {
      "midi": 54,
      "hit": false,
      "t": 154942.7199999995,
      "d": 39.47250000000349,
      "v": 92
    },
    {
      "midi": 57,
      "hit": false,
      "t": 154942.7199999995,
      "d": 65.78750000000582,
      "v": 87
    },
    {
      "midi": 62,
      "hit": false,
      "t": 154942.7199999995,
      "d": 65.78750000000582,
      "v": 104
    },
    {
      "midi": 56,
      "hit": false,
      "t": 155557.8331249995,
      "d": 59.20874999999069,
      "v": 127
    },
    {
      "midi": 60,
      "hit": false,
      "t": 155557.8331249995,
      "d": 335.51624999998603,
      "v": 127
    },
    {
      "midi": 57,
      "hit": false,
      "t": 155557.8331249995,
      "d": 374.9887499999895,
      "v": 127
    },
    {
      "midi": 57,
      "hit": false,
      "t": 155992.0306249995,
      "d": 197.36249999998836,
      "v": 95
    },
    {
      "midi": 60,
      "hit": false,
      "t": 155992.0306249995,
      "d": 197.36249999998836,
      "v": 103
    },
    {
      "midi": 60,
      "hit": false,
      "t": 156304.52124999947,
      "d": 144.7324999999837,
      "v": 86
    },
    {
      "midi": 57,
      "hit": false,
      "t": 156307.81062499946,
      "d": 1085.4937499999942,
      "v": 92
    },
    {
      "midi": 61,
      "hit": false,
      "t": 156623.59062499946,
      "d": 523.0106249999953,
      "v": 102
    },
    {
      "midi": 57,
      "hit": false,
      "t": 157452.51312499944,
      "d": 49.34062500001164,
      "v": 112
    },
    {
      "midi": 61,
      "hit": false,
      "t": 157452.51312499944,
      "d": 49.34062500001164,
      "v": 103
    },
    {
      "midi": 52,
      "hit": false,
      "t": 157452.51312499944,
      "d": 59.20875000001979,
      "v": 123
    },
    {
      "midi": 57,
      "hit": false,
      "t": 157886.71062499945,
      "d": 394.7250000000058,
      "v": 109
    },
    {
      "midi": 54,
      "hit": false,
      "t": 157886.71062499945,
      "d": 404.59312500001397,
      "v": 101
    },
    {
      "midi": 61,
      "hit": false,
      "t": 157886.71062499945,
      "d": 414.4612500000221,
      "v": 106
    },
    {
      "midi": 54,
      "hit": false,
      "t": 158399.85312499947,
      "d": 276.30749999999534,
      "v": 102
    },
    {
      "midi": 57,
      "hit": false,
      "t": 158399.85312499947,
      "d": 641.4281250000058,
      "v": 109
    },
    {
      "midi": 61,
      "hit": false,
      "t": 158399.85312499947,
      "d": 661.164374999993,
      "v": 110
    },
    {
      "midi": 54,
      "hit": false,
      "t": 158715.63312499947,
      "d": 276.30749999999534,
      "v": 56
    },
    {
      "midi": 57,
      "hit": false,
      "t": 159149.83062499945,
      "d": 39.47250000000349,
      "v": 103
    },
    {
      "midi": 63,
      "hit": false,
      "t": 159149.83062499945,
      "d": 69.07687499999884,
      "v": 110
    },
    {
      "midi": 54,
      "hit": false,
      "t": 159153.11999999944,
      "d": 26.31500000000233,
      "v": 83
    },
    {
      "midi": 59,
      "hit": false,
      "t": 159153.11999999944,
      "d": 39.47250000000349,
      "v": 103
    },
    {
      "midi": 59,
      "hit": false,
      "t": 159679.41999999946,
      "d": 302.6224999999977,
      "v": 119
    },
    {
      "midi": 63,
      "hit": false,
      "t": 159679.41999999946,
      "d": 621.6918749999895,
      "v": 125
    },
    {
      "midi": 57,
      "hit": false,
      "t": 159679.41999999946,
      "d": 638.1387499999837,
      "v": 116
    },
    {
      "midi": 54,
      "hit": false,
      "t": 159978.75312499946,
      "d": 246.7031249999709,
      "v": 92
    },
    {
      "midi": 59,
      "hit": false,
      "t": 160097.17062499945,
      "d": 276.30749999999534,
      "v": 73
    },
    {
      "midi": 56,
      "hit": false,
      "t": 160412.95062499944,
      "d": 394.7249999999767,
      "v": 108
    },
    {
      "midi": 59,
      "hit": false,
      "t": 160412.95062499944,
      "d": 414.4612499999639,
      "v": 101
    },
    {
      "midi": 52,
      "hit": false,
      "t": 160416.23999999944,
      "d": 384.8568749999977,
      "v": 116
    },
    {
      "midi": 52,
      "hit": false,
      "t": 160926.0931249994,
      "d": 710.5050000000047,
      "v": 126
    },
    {
      "midi": 56,
      "hit": false,
      "t": 160926.0931249994,
      "d": 720.3731250000128,
      "v": 120
    },
    {
      "midi": 59,
      "hit": false,
      "t": 160926.0931249994,
      "d": 769.7137499999953,
      "v": 127
    },
    {
      "midi": 61,
      "hit": false,
      "t": 161676.0706249994,
      "d": 404.59312499998487,
      "v": 86
    },
    {
      "midi": 57,
      "hit": false,
      "t": 161679.3599999994,
      "d": 371.6993749999965,
      "v": 106
    },
    {
      "midi": 57,
      "hit": false,
      "t": 162189.2131249994,
      "d": 39.47250000000349,
      "v": 121
    },
    {
      "midi": 61,
      "hit": false,
      "t": 162189.2131249994,
      "d": 49.34062500001164,
      "v": 111
    },
    {
      "midi": 64,
      "hit": false,
      "t": 162189.2131249994,
      "d": 49.34062500001164,
      "v": 124
    },
    {
      "midi": 57,
      "hit": false,
      "t": 162626.6999999994,
      "d": 19.736249999987194,
      "v": 98
    },
    {
      "midi": 61,
      "hit": false,
      "t": 162626.6999999994,
      "d": 19.736249999987194,
      "v": 84
    },
    {
      "midi": 64,
      "hit": false,
      "t": 163136.5531249994,
      "d": 19.736249999987194,
      "v": 102
    },
    {
      "midi": 57,
      "hit": false,
      "t": 163136.5531249994,
      "d": 39.47249999997439,
      "v": 116
    },
    {
      "midi": 61,
      "hit": false,
      "t": 163136.5531249994,
      "d": 49.34062499998254,
      "v": 110
    },
    {
      "midi": 61,
      "hit": false,
      "t": 163570.75062499937,
      "d": 562.4831249999988,
      "v": 112
    },
    {
      "midi": 64,
      "hit": false,
      "t": 163574.03999999937,
      "d": 148.02187500000582,
      "v": 115
    },
    {
      "midi": 52,
      "hit": false,
      "t": 163886.53062499937,
      "d": 226.9668750000128,
      "v": 127
    },
    {
      "midi": 64,
      "hit": false,
      "t": 163886.53062499937,
      "d": 226.9668750000128,
      "v": 64
    },
    {
      "midi": 64,
      "hit": false,
      "t": 164202.31062499937,
      "d": 730.2412499999919,
      "v": 117
    },
    {
      "midi": 57,
      "hit": false,
      "t": 164202.31062499937,
      "d": 740.109375,
      "v": 119
    },
    {
      "midi": 61,
      "hit": false,
      "t": 164202.31062499937,
      "d": 740.109375,
      "v": 110
    },
    {
      "midi": 61,
      "hit": false,
      "t": 165031.23312499936,
      "d": 39.47250000000349,
      "v": 100
    },
    {
      "midi": 57,
      "hit": false,
      "t": 165031.23312499936,
      "d": 46.05124999998952,
      "v": 113
    },
    {
      "midi": 64,
      "hit": false,
      "t": 165031.23312499936,
      "d": 55.91937499999767,
      "v": 108
    },
    {
      "midi": 61,
      "hit": false,
      "t": 165468.71999999936,
      "d": 26.31500000000233,
      "v": 87
    },
    {
      "midi": 57,
      "hit": false,
      "t": 165468.71999999936,
      "d": 39.47250000000349,
      "v": 97
    },
    {
      "midi": 57,
      "hit": false,
      "t": 165975.28374999936,
      "d": 223.6774999999907,
      "v": 122
    },
    {
      "midi": 64,
      "hit": false,
      "t": 165978.57312499936,
      "d": 286.1756250000035,
      "v": 119
    },
    {
      "midi": 61,
      "hit": false,
      "t": 165978.57312499936,
      "d": 345.3843749999942,
      "v": 120
    },
    {
      "midi": 64,
      "hit": false,
      "t": 166409.48124999934,
      "d": 223.6774999999907,
      "v": 98
    },
    {
      "midi": 61,
      "hit": false,
      "t": 166409.48124999934,
      "d": 263.1499999999942,
      "v": 98
    },
    {
      "midi": 57,
      "hit": false,
      "t": 166416.05999999933,
      "d": 315.77999999999884,
      "v": 90
    },
    {
      "midi": 65,
      "hit": false,
      "t": 166728.55062499933,
      "d": 592.0874999999942,
      "v": 106
    },
    {
      "midi": 56,
      "hit": false,
      "t": 166728.55062499933,
      "d": 700.6368749999965,
      "v": 102
    },
    {
      "midi": 59,
      "hit": false,
      "t": 166728.55062499933,
      "d": 720.3731249999837,
      "v": 108
    },
    {
      "midi": 61,
      "hit": false,
      "t": 166728.55062499933,
      "d": 720.3731249999837,
      "v": 83
    },
    {
      "midi": 56,
      "hit": false,
      "t": 167573.9199999993,
      "d": 39.47250000000349,
      "v": 107
    },
    {
      "midi": 59,
      "hit": false,
      "t": 167573.9199999993,
      "d": 39.47250000000349,
      "v": 110
    },
    {
      "midi": 61,
      "hit": false,
      "t": 167573.9199999993,
      "d": 39.47250000000349,
      "v": 90
    },
    {
      "midi": 65,
      "hit": false,
      "t": 167573.9199999993,
      "d": 39.47250000000349,
      "v": 104
    },
    {
      "midi": 59,
      "hit": false,
      "t": 167991.67062499933,
      "d": 29.604374999995343,
      "v": 90
    },
    {
      "midi": 65,
      "hit": false,
      "t": 167991.67062499933,
      "d": 29.604374999995343,
      "v": 89
    },
    {
      "midi": 56,
      "hit": false,
      "t": 167991.67062499933,
      "d": 39.47250000000349,
      "v": 81
    },
    {
      "midi": 65,
      "hit": false,
      "t": 168504.81312499935,
      "d": 453.9337499999965,
      "v": 94
    },
    {
      "midi": 61,
      "hit": false,
      "t": 168504.81312499935,
      "d": 473.6699999999837,
      "v": 77
    },
    {
      "midi": 56,
      "hit": false,
      "t": 168504.81312499935,
      "d": 601.9556249999732,
      "v": 86
    },
    {
      "midi": 54,
      "hit": false,
      "t": 169254.79062499932,
      "d": 1342.0650000000023,
      "v": 94
    },
    {
      "midi": 61,
      "hit": false,
      "t": 169254.79062499932,
      "d": 1342.0650000000023,
      "v": 89
    },
    {
      "midi": 57,
      "hit": false,
      "t": 169258.07999999932,
      "d": 1355.2225000000035,
      "v": 89
    },
    {
      "midi": 61,
      "hit": false,
      "t": 170715.2731249993,
      "d": 39.47250000000349,
      "v": 89
    },
    {
      "midi": 54,
      "hit": false,
      "t": 170715.2731249993,
      "d": 46.05124999998952,
      "v": 79
    },
    {
      "midi": 57,
      "hit": false,
      "t": 170715.2731249993,
      "d": 46.05124999998952,
      "v": 90
    },
    {
      "midi": 57,
      "hit": false,
      "t": 171149.4706249993,
      "d": 39.47250000000349,
      "v": 79
    },
    {
      "midi": 54,
      "hit": false,
      "t": 171149.4706249993,
      "d": 65.78750000000582,
      "v": 79
    },
    {
      "midi": 61,
      "hit": false,
      "t": 171149.4706249993,
      "d": 65.78750000000582,
      "v": 83
    },
    {
      "midi": 57,
      "hit": false,
      "t": 171784.3199999993,
      "d": 710.5050000000047,
      "v": 76
    },
    {
      "midi": 52,
      "hit": false,
      "t": 171784.3199999993,
      "d": 720.3731250000128,
      "v": 78
    },
    {
      "midi": 55,
      "hit": false,
      "t": 171784.3199999993,
      "d": 720.3731250000128,
      "v": 78
    },
    {
      "midi": 61,
      "hit": false,
      "t": 171784.3199999993,
      "d": 730.241250000021,
      "v": 74
    },
    {
      "midi": 52,
      "hit": false,
      "t": 172613.24249999932,
      "d": 26.31500000000233,
      "v": 75
    },
    {
      "midi": 57,
      "hit": false,
      "t": 172613.24249999932,
      "d": 26.31500000000233,
      "v": 64
    },
    {
      "midi": 55,
      "hit": false,
      "t": 172613.24249999932,
      "d": 39.47250000000349,
      "v": 82
    },
    {
      "midi": 61,
      "hit": false,
      "t": 173047.43999999933,
      "d": 39.47250000000349,
      "v": 64
    },
    {
      "midi": 52,
      "hit": false,
      "t": 173047.43999999933,
      "d": 55.91937499999767,
      "v": 75
    },
    {
      "midi": 52,
      "hit": false,
      "t": 173554.00374999933,
      "d": 217.09874999997555,
      "v": 76
    },
    {
      "midi": 57,
      "hit": false,
      "t": 173554.00374999933,
      "d": 355.2524999999732,
      "v": 75
    },
    {
      "midi": 55,
      "hit": false,
      "t": 173557.29312499933,
      "d": 365.1206249999814,
      "v": 74
    },
    {
      "midi": 61,
      "hit": false,
      "t": 173560.58249999932,
      "d": 374.9887499999895,
      "v": 74
    },
    {
      "midi": 52,
      "hit": false,
      "t": 173876.36249999932,
      "d": 174.33687500000815,
      "v": 66
    },
    {
      "midi": 55,
      "hit": false,
      "t": 173988.2012499993,
      "d": 223.6775000000198,
      "v": 70
    },
    {
      "midi": 61,
      "hit": false,
      "t": 173988.2012499993,
      "d": 246.7031250000291,
      "v": 66
    },
    {
      "midi": 57,
      "hit": false,
      "t": 173988.2012499993,
      "d": 253.28187500001513,
      "v": 67
    },
    {
      "midi": 52,
      "hit": false,
      "t": 174113.19749999934,
      "d": 128.28562499998952,
      "v": 59
    },
    {
      "midi": 54,
      "hit": false,
      "t": 174307.27062499934,
      "d": 266.4393749999872,
      "v": 75
    },
    {
      "midi": 57,
      "hit": false,
      "t": 174307.27062499934,
      "d": 286.1756249999744,
      "v": 72
    },
    {
      "midi": 62,
      "hit": false,
      "t": 174307.27062499934,
      "d": 286.1756249999744,
      "v": 78
    },
    {
      "midi": 54,
      "hit": false,
      "t": 174626.3399999993,
      "d": 49.34062500001164,
      "v": 72
    },
    {
      "midi": 62,
      "hit": false,
      "t": 174626.3399999993,
      "d": 55.91937499999767,
      "v": 75
    },
    {
      "midi": 57,
      "hit": false,
      "t": 174626.3399999993,
      "d": 59.20874999999069,
      "v": 66
    },
    {
      "midi": 54,
      "hit": false,
      "t": 175136.1931249993,
      "d": 49.34062499998254,
      "v": 67
    },
    {
      "midi": 57,
      "hit": false,
      "t": 175139.48249999929,
      "d": 39.47250000000349,
      "v": 67
    },
    {
      "midi": 62,
      "hit": false,
      "t": 175139.48249999929,
      "d": 59.20874999999069,
      "v": 69
    },
    {
      "midi": 59,
      "hit": false,
      "t": 175767.7531249993,
      "d": 19.736249999987194,
      "v": 80
    },
    {
      "midi": 56,
      "hit": false,
      "t": 175767.7531249993,
      "d": 26.314999999973224,
      "v": 74
    },
    {
      "midi": 54,
      "hit": false,
      "t": 175767.7531249993,
      "d": 49.34062499998254,
      "v": 68
    },
    {
      "midi": 57,
      "hit": false,
      "t": 175767.7531249993,
      "d": 384.85687499996857,
      "v": 73
    },
    {
      "midi": 60,
      "hit": false,
      "t": 175767.7531249993,
      "d": 394.7249999999767,
      "v": 81
    },
    {
      "midi": 56,
      "hit": false,
      "t": 176201.95062499927,
      "d": 55.91937499999767,
      "v": 53
    },
    {
      "midi": 57,
      "hit": false,
      "t": 176201.95062499927,
      "d": 236.83499999999185,
      "v": 59
    },
    {
      "midi": 60,
      "hit": false,
      "t": 176201.95062499927,
      "d": 552.6149999999907,
      "v": 58
    },
    {
      "midi": 57,
      "hit": false,
      "t": 176517.73062499927,
      "d": 572.3512499999779,
      "v": 59
    },
    {
      "midi": 61,
      "hit": false,
      "t": 176836.79999999926,
      "d": 236.83499999999185,
      "v": 59
    },
    {
      "midi": 52,
      "hit": false,
      "t": 176836.79999999926,
      "d": 690.7687499999884,
      "v": 61
    },
    {
      "midi": 57,
      "hit": false,
      "t": 177152.57999999926,
      "d": 414.461249999993,
      "v": 62
    },
    {
      "midi": 61,
      "hit": false,
      "t": 177152.57999999926,
      "d": 414.461249999993,
      "v": 63
    },
    {
      "midi": 61,
      "hit": false,
      "t": 177662.43312499925,
      "d": 49.34062499998254,
      "v": 56
    },
    {
      "midi": 57,
      "hit": false,
      "t": 177665.72249999925,
      "d": 39.47250000000349,
      "v": 62
    },
    {
      "midi": 57,
      "hit": false,
      "t": 178099.91999999923,
      "d": 39.47250000000349,
      "v": 60
    },
    {
      "midi": 54,
      "hit": false,
      "t": 178099.91999999923,
      "d": 49.34062500001164,
      "v": 52
    },
    {
      "midi": 61,
      "hit": false,
      "t": 178099.91999999923,
      "d": 49.34062500001164,
      "v": 59
    },
    {
      "midi": 54,
      "hit": false,
      "t": 178626.21999999924,
      "d": 207.2306249999965,
      "v": 61
    },
    {
      "midi": 57,
      "hit": false,
      "t": 178626.21999999924,
      "d": 342.09500000000116,
      "v": 63
    },
    {
      "midi": 61,
      "hit": false,
      "t": 178626.21999999924,
      "d": 342.09500000000116,
      "v": 67
    },
    {
      "midi": 54,
      "hit": false,
      "t": 179040.68124999924,
      "d": 246.7031249999709,
      "v": 29
    },
    {
      "midi": 61,
      "hit": false,
      "t": 179040.68124999924,
      "d": 246.7031249999709,
      "v": 50
    },
    {
      "midi": 57,
      "hit": false,
      "t": 179043.97062499923,
      "d": 236.83499999999185,
      "v": 57
    },
    {
      "midi": 59,
      "hit": false,
      "t": 179359.7506249992,
      "d": 236.83499999999185,
      "v": 59
    },
    {
      "midi": 54,
      "hit": false,
      "t": 179359.7506249992,
      "d": 246.703125,
      "v": 51
    },
    {
      "midi": 57,
      "hit": false,
      "t": 179359.7506249992,
      "d": 246.703125,
      "v": 58
    },
    {
      "midi": 63,
      "hit": false,
      "t": 179359.7506249992,
      "d": 246.703125,
      "v": 60
    },
    {
      "midi": 54,
      "hit": false,
      "t": 179675.5306249992,
      "d": 39.47249999997439,
      "v": 43
    },
    {
      "midi": 59,
      "hit": false,
      "t": 179678.8199999992,
      "d": 19.736249999987194,
      "v": 49
    },
    {
      "midi": 57,
      "hit": false,
      "t": 179678.8199999992,
      "d": 26.314999999973224,
      "v": 51
    },
    {
      "midi": 63,
      "hit": false,
      "t": 179678.8199999992,
      "d": 39.47249999997439,
      "v": 50
    },
    {
      "midi": 57,
      "hit": false,
      "t": 180188.67312499916,
      "d": 26.31500000000233,
      "v": 52
    },
    {
      "midi": 59,
      "hit": false,
      "t": 180188.67312499916,
      "d": 26.31500000000233,
      "v": 48
    },
    {
      "midi": 54,
      "hit": false,
      "t": 180188.67312499916,
      "d": 39.47250000000349,
      "v": 49
    },
    {
      "midi": 63,
      "hit": false,
      "t": 180188.67312499916,
      "d": 49.34062500001164,
      "v": 53
    },
    {
      "midi": 54,
      "hit": false,
      "t": 181152.45999999918,
      "d": 167.75812499999302,
      "v": 50
    },
    {
      "midi": 59,
      "hit": false,
      "t": 181152.45999999918,
      "d": 315.77999999999884,
      "v": 50
    },
    {
      "midi": 63,
      "hit": false,
      "t": 181152.45999999918,
      "d": 332.226874999993,
      "v": 50
    },
    {
      "midi": 57,
      "hit": false,
      "t": 181152.45999999918,
      "d": 342.09500000000116,
      "v": 50
    },
    {
      "midi": 54,
      "hit": false,
      "t": 181566.92124999917,
      "d": 207.2306249999965,
      "v": 46
    },
    {
      "midi": 57,
      "hit": false,
      "t": 181566.92124999917,
      "d": 207.2306249999965,
      "v": 50
    },
    {
      "midi": 63,
      "hit": false,
      "t": 181566.92124999917,
      "d": 207.2306249999965,
      "v": 52
    },
    {
      "midi": 59,
      "hit": false,
      "t": 181570.21062499916,
      "d": 286.1756250000035,
      "v": 48
    },
    {
      "midi": 56,
      "hit": false,
      "t": 181885.99062499916,
      "d": 236.83499999999185,
      "v": 44
    },
    {
      "midi": 59,
      "hit": false,
      "t": 181885.99062499916,
      "d": 246.703125,
      "v": 44
    },
    {
      "midi": 52,
      "hit": false,
      "t": 181889.27999999915,
      "d": 226.9668750000128,
      "v": 53
    },
    {
      "midi": 52,
      "hit": false,
      "t": 182201.77062499916,
      "d": 184.2049999999872,
      "v": 53
    },
    {
      "midi": 56,
      "hit": false,
      "t": 182201.77062499916,
      "d": 256.57124999997905,
      "v": 50
    },
    {
      "midi": 59,
      "hit": false,
      "t": 182201.77062499916,
      "d": 256.57124999997905,
      "v": 53
    },
    {
      "midi": 57,
      "hit": false,
      "t": 182517.55062499913,
      "d": 226.9668749999837,
      "v": 43
    },
    {
      "midi": 54,
      "hit": false,
      "t": 182520.83999999912,
      "d": 207.2306249999965,
      "v": 38
    },
    {
      "midi": 61,
      "hit": false,
      "t": 182520.83999999912,
      "d": 213.80937499998254,
      "v": 35
    },
    {
      "midi": 57,
      "hit": false,
      "t": 182833.3306249991,
      "d": 197.36249999998836,
      "v": 48
    },
    {
      "midi": 54,
      "hit": false,
      "t": 182833.3306249991,
      "d": 207.2306249999965,
      "v": 48
    },
    {
      "midi": 61,
      "hit": false,
      "t": 182833.3306249991,
      "d": 246.703125,
      "v": 48
    },
    {
      "midi": 55,
      "hit": false,
      "t": 183149.1106249991,
      "d": 246.7031249999709,
      "v": 38
    },
    {
      "midi": 61,
      "hit": false,
      "t": 183149.1106249991,
      "d": 256.57124999997905,
      "v": 36
    },
    {
      "midi": 58,
      "hit": false,
      "t": 183152.3999999991,
      "d": 236.83499999999185,
      "v": 33
    },
    {
      "midi": 55,
      "hit": false,
      "t": 183468.1799999991,
      "d": 177.62625000000116,
      "v": 45
    },
    {
      "midi": 61,
      "hit": false,
      "t": 183468.1799999991,
      "d": 236.83499999999185,
      "v": 46
    },
    {
      "midi": 58,
      "hit": false,
      "t": 183468.1799999991,
      "d": 266.4393749999872,
      "v": 47
    },
    {
      "midi": 62,
      "hit": false,
      "t": 183783.9599999991,
      "d": 184.2049999999872,
      "v": 35
    },
    {
      "midi": 59,
      "hit": false,
      "t": 183783.9599999991,
      "d": 217.09874999997555,
      "v": 42
    },
    {
      "midi": 56,
      "hit": false,
      "t": 183783.9599999991,
      "d": 236.83499999996275,
      "v": 35
    },
    {
      "midi": 56,
      "hit": false,
      "t": 184096.45062499907,
      "d": 197.36249999998836,
      "v": 35
    },
    {
      "midi": 59,
      "hit": false,
      "t": 184096.45062499907,
      "d": 256.57124999997905,
      "v": 43
    },
    {
      "midi": 62,
      "hit": false,
      "t": 184096.45062499907,
      "d": 286.1756249999744,
      "v": 40
    },
    {
      "midi": 61,
      "hit": false,
      "t": 184415.51999999903,
      "d": 2526.2399999999907,
      "v": 46
    },
    {
      "midi": 62,
      "hit": false,
      "t": 186938.47062499903,
      "d": 2539.397499999992,
      "v": 32
    },
    {
      "midi": 64,
      "hit": false,
      "t": 189467.999999999,
      "d": 2486.7675000000163,
      "v": 24
    }
  ]
}