{
  "jsonPath": "Rock/Dance Rock/Pet Shop Boys/always-on-my-mind.json",
  "path": "Rock\\Dance Rock\\Pet Shop Boys\\Always On My Mind.mid",
  "name": "Always On My Mind",
  "difficulty": "Advanced",
  "bpm": 126.00039060121087,
  "notes": [
    {
      "midi": 31,
      "hit": false,
      "t": 5714.268,
      "d": 208.33268750000025,
      "v": 68
    },
    {
      "midi": 31,
      "hit": false,
      "t": 5714.268,
      "d": 173.61057291666657,
      "v": 76
    },
    {
      "midi": 74,
      "hit": false,
      "t": 5714.268,
      "d": 272.8166145833329,
      "v": 64
    },
    {
      "midi": 79,
      "hit": false,
      "t": 5714.268,
      "d": 272.8166145833329,
      "v": 72
    },
    {
      "midi": 83,
      "hit": false,
      "t": 5714.268,
      "d": 272.8166145833329,
      "v": 72
    },
    {
      "midi": 83,
      "hit": false,
      "t": 5714.268,
      "d": 2.4801510416664314,
      "v": 84
    },
    {
      "midi": 83,
      "hit": false,
      "t": 5714.268,
      "d": 2.4801510416664314,
      "v": 110
    },
    {
      "midi": 62,
      "hit": false,
      "t": 5714.268,
      "d": 1899.7956979166665,
      "v": 58
    },
    {
      "midi": 67,
      "hit": false,
      "t": 5714.268,
      "d": 1899.7956979166665,
      "v": 58
    },
    {
      "midi": 71,
      "hit": false,
      "t": 5714.268,
      "d": 1899.7956979166665,
      "v": 58
    },
    {
      "midi": 74,
      "hit": false,
      "t": 5714.268,
      "d": 272.8166145833329,
      "v": 90
    },
    {
      "midi": 79,
      "hit": false,
      "t": 5714.268,
      "d": 272.8166145833329,
      "v": 100
    },
    {
      "midi": 83,
      "hit": false,
      "t": 5714.268,
      "d": 272.8166145833329,
      "v": 100
    },
    {
      "midi": 62,
      "hit": false,
      "t": 5714.268,
      "d": 272.8166145833329,
      "v": 90
    },
    {
      "midi": 67,
      "hit": false,
      "t": 5714.268,
      "d": 272.8166145833329,
      "v": 100
    },
    {
      "midi": 71,
      "hit": false,
      "t": 5714.268,
      "d": 272.8166145833329,
      "v": 100
    },
    {
      "midi": 43,
      "hit": false,
      "t": 5714.268,
      "d": 114.08694791666676,
      "v": 78
    },
    {
      "midi": 83,
      "hit": false,
      "t": 5833.31525,
      "d": 2.4801510416664314,
      "v": 91
    },
    {
      "midi": 83,
      "hit": false,
      "t": 5833.31525,
      "d": 2.4801510416664314,
      "v": 110
    },
    {
      "midi": 43,
      "hit": false,
      "t": 5833.315250000001,
      "d": 114.08694791666676,
      "v": 78
    },
    {
      "midi": 83,
      "hit": false,
      "t": 5952.362499999999,
      "d": 2.4801510416664314,
      "v": 88
    },
    {
      "midi": 83,
      "hit": false,
      "t": 5952.362499999999,
      "d": 2.4801510416664314,
      "v": 110
    },
    {
      "midi": 31,
      "hit": false,
      "t": 5952.3625,
      "d": 208.33268750000025,
      "v": 68
    },
    {
      "midi": 43,
      "hit": false,
      "t": 5952.3625,
      "d": 173.61057291666657,
      "v": 82
    },
    {
      "midi": 67,
      "hit": false,
      "t": 5952.3625,
      "d": 9.920604166666635,
      "v": 103
    },
    {
      "midi": 71,
      "hit": false,
      "t": 5952.3625,
      "d": 9.920604166666635,
      "v": 103
    },
    {
      "midi": 55,
      "hit": false,
      "t": 5952.362500000001,
      "d": 114.08694791666676,
      "v": 78
    },
    {
      "midi": 83,
      "hit": false,
      "t": 6071.409749999999,
      "d": 2.4801510416664314,
      "v": 91
    },
    {
      "midi": 83,
      "hit": false,
      "t": 6071.409749999999,
      "d": 2.4801510416664314,
      "v": 110
    },
    {
      "midi": 67,
      "hit": false,
      "t": 6071.40975,
      "d": 9.920604166666635,
      "v": 103
    },
    {
      "midi": 71,
      "hit": false,
      "t": 6071.40975,
      "d": 9.920604166666635,
      "v": 103
    },
    {
      "midi": 55,
      "hit": false,
      "t": 6071.409750000002,
      "d": 114.08694791666676,
      "v": 78
    },
    {
      "midi": 83,
      "hit": false,
      "t": 6190.4569999999985,
      "d": 2.4801510416664314,
      "v": 87
    },
    {
      "midi": 83,
      "hit": false,
      "t": 6190.4569999999985,
      "d": 2.4801510416664314,
      "v": 110
    },
    {
      "midi": 31,
      "hit": false,
      "t": 6190.457,
      "d": 208.33268750000025,
      "v": 68
    },
    {
      "midi": 31,
      "hit": false,
      "t": 6190.457,
      "d": 173.61057291666657,
      "v": 62
    },
    {
      "midi": 43,
      "hit": false,
      "t": 6190.457000000002,
      "d": 114.08694791666676,
      "v": 78
    },
    {
      "midi": 83,
      "hit": false,
      "t": 6309.504249999998,
      "d": 2.4801510416664314,
      "v": 87
    },
    {
      "midi": 83,
      "hit": false,
      "t": 6309.504249999998,
      "d": 2.4801510416664314,
      "v": 110
    },
    {
      "midi": 43,
      "hit": false,
      "t": 6309.504250000003,
      "d": 114.08694791666676,
      "v": 78
    },
    {
      "midi": 83,
      "hit": false,
      "t": 6428.551499999998,
      "d": 2.4801510416664314,
      "v": 89
    },
    {
      "midi": 83,
      "hit": false,
      "t": 6428.551499999998,
      "d": 2.4801510416664314,
      "v": 110
    },
    {
      "midi": 67,
      "hit": false,
      "t": 6428.5515,
      "d": 9.920604166666635,
      "v": 103
    },
    {
      "midi": 71,
      "hit": false,
      "t": 6428.5515,
      "d": 9.920604166666635,
      "v": 103
    },
    {
      "midi": 31,
      "hit": false,
      "t": 6428.5515000000005,
      "d": 208.33268750000025,
      "v": 68
    },
    {
      "midi": 43,
      "hit": false,
      "t": 6428.5515000000005,
      "d": 173.61057291666657,
      "v": 78
    },
    {
      "midi": 55,
      "hit": false,
      "t": 6428.551500000003,
      "d": 114.08694791666676,
      "v": 78
    },
    {
      "midi": 83,
      "hit": false,
      "t": 6547.598749999997,
      "d": 2.4801510416664314,
      "v": 91
    },
    {
      "midi": 83,
      "hit": false,
      "t": 6547.598749999997,
      "d": 2.4801510416664314,
      "v": 110
    },
    {
      "midi": 67,
      "hit": false,
      "t": 6547.598749999999,
      "d": 9.920604166666635,
      "v": 103
    },
    {
      "midi": 71,
      "hit": false,
      "t": 6547.598749999999,
      "d": 9.920604166666635,
      "v": 103
    },
    {
      "midi": 55,
      "hit": false,
      "t": 6547.598750000004,
      "d": 114.08694791666676,
      "v": 78
    },
    {
      "midi": 83,
      "hit": false,
      "t": 6666.645999999997,
      "d": 2.4801510416664314,
      "v": 91
    },
    {
      "midi": 83,
      "hit": false,
      "t": 6666.645999999997,
      "d": 2.4801510416664314,
      "v": 110
    },
    {
      "midi": 31,
      "hit": false,
      "t": 6666.646000000001,
      "d": 208.33268750000025,
      "v": 68
    },
    {
      "midi": 31,
      "hit": false,
      "t": 6666.646000000001,
      "d": 173.61057291666657,
      "v": 67
    },
    {
      "midi": 43,
      "hit": false,
      "t": 6666.646000000004,
      "d": 114.08694791666676,
      "v": 78
    },
    {
      "midi": 83,
      "hit": false,
      "t": 6785.693249999997,
      "d": 2.4801510416664314,
      "v": 92
    },
    {
      "midi": 83,
      "hit": false,
      "t": 6785.693249999997,
      "d": 2.4801510416664314,
      "v": 110
    },
    {
      "midi": 43,
      "hit": false,
      "t": 6785.693250000005,
      "d": 114.08694791666676,
      "v": 78
    },
    {
      "midi": 83,
      "hit": false,
      "t": 6904.740499999996,
      "d": 2.4801510416664314,
      "v": 96
    },
    {
      "midi": 83,
      "hit": false,
      "t": 6904.740499999996,
      "d": 2.4801510416664314,
      "v": 110
    },
    {
      "midi": 67,
      "hit": false,
      "t": 6904.740499999999,
      "d": 9.920604166666635,
      "v": 103
    },
    {
      "midi": 71,
      "hit": false,
      "t": 6904.740499999999,
      "d": 9.920604166666635,
      "v": 103
    },
    {
      "midi": 31,
      "hit": false,
      "t": 6904.740500000001,
      "d": 208.33268750000025,
      "v": 68
    },
    {
      "midi": 43,
      "hit": false,
      "t": 6904.740500000001,
      "d": 173.61057291666657,
      "v": 70
    },
    {
      "midi": 55,
      "hit": false,
      "t": 6904.740500000005,
      "d": 114.08694791666676,
      "v": 78
    },
    {
      "midi": 83,
      "hit": false,
      "t": 7023.787749999996,
      "d": 2.4801510416664314,
      "v": 92
    },
    {
      "midi": 83,
      "hit": false,
      "t": 7023.787749999996,
      "d": 2.4801510416664314,
      "v": 110
    },
    {
      "midi": 67,
      "hit": false,
      "t": 7023.787749999999,
      "d": 9.920604166666635,
      "v": 103
    },
    {
      "midi": 71,
      "hit": false,
      "t": 7023.787749999999,
      "d": 9.920604166666635,
      "v": 103
    },
    {
      "midi": 55,
      "hit": false,
      "t": 7023.787750000006,
      "d": 114.08694791666676,
      "v": 78
    },
    {
      "midi": 83,
      "hit": false,
      "t": 7142.8349999999955,
      "d": 2.4801510416664314,
      "v": 96
    },
    {
      "midi": 83,
      "hit": false,
      "t": 7142.8349999999955,
      "d": 2.4801510416664314,
      "v": 110
    },
    {
      "midi": 31,
      "hit": false,
      "t": 7142.835000000001,
      "d": 208.33268750000025,
      "v": 68
    },
    {
      "midi": 31,
      "hit": false,
      "t": 7142.835000000001,
      "d": 173.61057291666657,
      "v": 56
    },
    {
      "midi": 43,
      "hit": false,
      "t": 7142.835000000006,
      "d": 114.08694791666676,
      "v": 78
    },
    {
      "midi": 83,
      "hit": false,
      "t": 7261.882249999995,
      "d": 2.4801510416664314,
      "v": 96
    },
    {
      "midi": 83,
      "hit": false,
      "t": 7261.882249999995,
      "d": 2.4801510416664314,
      "v": 110
    },
    {
      "midi": 43,
      "hit": false,
      "t": 7261.882250000007,
      "d": 114.08694791666676,
      "v": 78
    },
    {
      "midi": 83,
      "hit": false,
      "t": 7380.929499999995,
      "d": 2.4801510416664314,
      "v": 98
    },
    {
      "midi": 83,
      "hit": false,
      "t": 7380.929499999995,
      "d": 2.4801510416664314,
      "v": 110
    },
    {
      "midi": 67,
      "hit": false,
      "t": 7380.929499999998,
      "d": 9.920604166666635,
      "v": 103
    },
    {
      "midi": 71,
      "hit": false,
      "t": 7380.929499999998,
      "d": 9.920604166666635,
      "v": 103
    },
    {
      "midi": 31,
      "hit": false,
      "t": 7380.929500000001,
      "d": 208.33268750000025,
      "v": 68
    },
    {
      "midi": 43,
      "hit": false,
      "t": 7380.929500000001,
      "d": 173.61057291666657,
      "v": 70
    },
    {
      "midi": 55,
      "hit": false,
      "t": 7380.9295000000075,
      "d": 114.08694791666676,
      "v": 78
    },
    {
      "midi": 83,
      "hit": false,
      "t": 7499.976749999994,
      "d": 2.4801510416664314,
      "v": 101
    },
    {
      "midi": 83,
      "hit": false,
      "t": 7499.976749999994,
      "d": 2.4801510416664314,
      "v": 110
    },
    {
      "midi": 67,
      "hit": false,
      "t": 7499.976749999998,
      "d": 9.920604166666635,
      "v": 103
    },
    {
      "midi": 71,
      "hit": false,
      "t": 7499.976749999998,
      "d": 9.920604166666635,
      "v": 103
    },
    {
      "midi": 55,
      "hit": false,
      "t": 7499.976750000008,
      "d": 114.08694791666676,
      "v": 78
    },
    {
      "midi": 74,
      "hit": false,
      "t": 7619.023999999999,
      "d": 186.01132812499964,
      "v": 54
    },
    {
      "midi": 78,
      "hit": false,
      "t": 7619.023999999999,
      "d": 186.01132812499964,
      "v": 57
    },
    {
      "midi": 81,
      "hit": false,
      "t": 7619.023999999999,
      "d": 186.01132812499964,
      "v": 49
    },
    {
      "midi": 74,
      "hit": false,
      "t": 7619.023999999999,
      "d": 173.61057291666657,
      "v": 76
    },
    {
      "midi": 78,
      "hit": false,
      "t": 7619.023999999999,
      "d": 173.61057291666657,
      "v": 80
    },
    {
      "midi": 81,
      "hit": false,
      "t": 7619.023999999999,
      "d": 173.61057291666657,
      "v": 70
    },
    {
      "midi": 62,
      "hit": false,
      "t": 7619.023999999999,
      "d": 173.61057291666657,
      "v": 76
    },
    {
      "midi": 66,
      "hit": false,
      "t": 7619.023999999999,
      "d": 173.61057291666657,
      "v": 80
    },
    {
      "midi": 69,
      "hit": false,
      "t": 7619.023999999999,
      "d": 173.61057291666657,
      "v": 70
    },
    {
      "midi": 62,
      "hit": false,
      "t": 7619.024,
      "d": 1899.7956979166675,
      "v": 58
    },
    {
      "midi": 66,
      "hit": false,
      "t": 7619.024,
      "d": 1899.7956979166675,
      "v": 58
    },
    {
      "midi": 69,
      "hit": false,
      "t": 7619.024,
      "d": 1899.7956979166675,
      "v": 58
    },
    {
      "midi": 38,
      "hit": false,
      "t": 7619.024000000001,
      "d": 208.33268750000025,
      "v": 68
    },
    {
      "midi": 38,
      "hit": false,
      "t": 7619.024000000001,
      "d": 173.61057291666657,
      "v": 70
    },
    {
      "midi": 38,
      "hit": false,
      "t": 7619.0240000000085,
      "d": 114.08694791666676,
      "v": 78
    },
    {
      "midi": 38,
      "hit": false,
      "t": 7738.071250000009,
      "d": 114.08694791666676,
      "v": 78
    },
    {
      "midi": 62,
      "hit": false,
      "t": 7857.118499999998,
      "d": 9.920604166666635,
      "v": 103
    },
    {
      "midi": 66,
      "hit": false,
      "t": 7857.118499999998,
      "d": 9.920604166666635,
      "v": 103
    },
    {
      "midi": 74,
      "hit": false,
      "t": 7857.118499999999,
      "d": 186.01132812499964,
      "v": 65
    },
    {
      "midi": 78,
      "hit": false,
      "t": 7857.118499999999,
      "d": 186.01132812499964,
      "v": 68
    },
    {
      "midi": 81,
      "hit": false,
      "t": 7857.118499999999,
      "d": 186.01132812499964,
      "v": 64
    },
    {
      "midi": 74,
      "hit": false,
      "t": 7857.1185,
      "d": 173.61057291666657,
      "v": 91
    },
    {
      "midi": 78,
      "hit": false,
      "t": 7857.1185,
      "d": 173.61057291666657,
      "v": 95
    },
    {
      "midi": 81,
      "hit": false,
      "t": 7857.1185,
      "d": 173.61057291666657,
      "v": 90
    },
    {
      "midi": 62,
      "hit": false,
      "t": 7857.1185,
      "d": 173.61057291666657,
      "v": 91
    },
    {
      "midi": 66,
      "hit": false,
      "t": 7857.1185,
      "d": 173.61057291666657,
      "v": 95
    },
    {
      "midi": 69,
      "hit": false,
      "t": 7857.1185,
      "d": 173.61057291666657,
      "v": 90
    },
    {
      "midi": 38,
      "hit": false,
      "t": 7857.118500000001,
      "d": 208.33268750000025,
      "v": 68
    },
    {
      "midi": 50,
      "hit": false,
      "t": 7857.118500000001,
      "d": 173.61057291666657,
      "v": 62
    },
    {
      "midi": 50,
      "hit": false,
      "t": 7857.11850000001,
      "d": 114.08694791666676,
      "v": 78
    },
    {
      "midi": 62,
      "hit": false,
      "t": 7976.165749999997,
      "d": 9.920604166666635,
      "v": 103
    },
    {
      "midi": 66,
      "hit": false,
      "t": 7976.165749999997,
      "d": 9.920604166666635,
      "v": 103
    },
    {
      "midi": 50,
      "hit": false,
      "t": 7976.16575000001,
      "d": 114.08694791666676,
      "v": 78
    },
    {
      "midi": 74,
      "hit": false,
      "t": 8095.212999999998,
      "d": 186.01132812499964,
      "v": 71
    },
    {
      "midi": 78,
      "hit": false,
      "t": 8095.212999999998,
      "d": 186.01132812499964,
      "v": 72
    },
    {
      "midi": 81,
      "hit": false,
      "t": 8095.212999999998,
      "d": 186.01132812499964,
      "v": 72
    },
    {
      "midi": 74,
      "hit": false,
      "t": 8095.213,
      "d": 173.61057291666657,
      "v": 99
    },
    {
      "midi": 78,
      "hit": false,
      "t": 8095.213,
      "d": 173.61057291666657,
      "v": 101
    },
    {
      "midi": 81,
      "hit": false,
      "t": 8095.213,
      "d": 173.61057291666657,
      "v": 100
    },
    {
      "midi": 62,
      "hit": false,
      "t": 8095.213,
      "d": 173.61057291666657,
      "v": 99
    },
    {
      "midi": 66,
      "hit": false,
      "t": 8095.213,
      "d": 173.61057291666657,
      "v": 101
    },
    {
      "midi": 69,
      "hit": false,
      "t": 8095.213,
      "d": 173.61057291666657,
      "v": 100
    },
    {
      "midi": 38,
      "hit": false,
      "t": 8095.213000000002,
      "d": 208.33268750000025,
      "v": 68
    },
    {
      "midi": 38,
      "hit": false,
      "t": 8095.213000000002,
      "d": 173.61057291666657,
      "v": 66
    },
    {
      "midi": 38,
      "hit": false,
      "t": 8095.213000000011,
      "d": 114.08694791666676,
      "v": 78
    },
    {
      "midi": 38,
      "hit": false,
      "t": 8214.26025000001,
      "d": 114.08694791666676,
      "v": 78
    },
    {
      "midi": 74,
      "hit": false,
      "t": 8333.307499999997,
      "d": 186.01132812499964,
      "v": 70
    },
    {
      "midi": 78,
      "hit": false,
      "t": 8333.307499999997,
      "d": 186.01132812499964,
      "v": 74
    },
    {
      "midi": 81,
      "hit": false,
      "t": 8333.307499999997,
      "d": 186.01132812499964,
      "v": 69
    },
    {
      "midi": 62,
      "hit": false,
      "t": 8333.307499999997,
      "d": 9.920604166667545,
      "v": 103
    },
    {
      "midi": 66,
      "hit": false,
      "t": 8333.307499999997,
      "d": 9.920604166667545,
      "v": 103
    },
    {
      "midi": 74,
      "hit": false,
      "t": 8333.307499999999,
      "d": 173.61057291666657,
      "v": 98
    },
    {
      "midi": 78,
      "hit": false,
      "t": 8333.307499999999,
      "d": 173.61057291666657,
      "v": 103
    },
    {
      "midi": 81,
      "hit": false,
      "t": 8333.307499999999,
      "d": 173.61057291666657,
      "v": 96
    },
    {
      "midi": 62,
      "hit": false,
      "t": 8333.307499999999,
      "d": 173.61057291666657,
      "v": 98
    },
    {
      "midi": 66,
      "hit": false,
      "t": 8333.307499999999,
      "d": 173.61057291666657,
      "v": 103
    },
    {
      "midi": 69,
      "hit": false,
      "t": 8333.307499999999,
      "d": 173.61057291666657,
      "v": 96
    },
    {
      "midi": 50,
      "hit": false,
      "t": 8333.3075,
      "d": 173.61057291666657,
      "v": 67
    },
    {
      "midi": 38,
      "hit": false,
      "t": 8333.307500000003,
      "d": 208.33268750000025,
      "v": 68
    },
    {
      "midi": 50,
      "hit": false,
      "t": 8333.30750000001,
      "d": 114.08694791666676,
      "v": 78
    },
    {
      "midi": 62,
      "hit": false,
      "t": 8452.354749999999,
      "d": 9.920604166667545,
      "v": 103
    },
    {
      "midi": 66,
      "hit": false,
      "t": 8452.354749999999,
      "d": 9.920604166667545,
      "v": 103
    },
    {
      "midi": 50,
      "hit": false,
      "t": 8452.35475000001,
      "d": 114.08694791666676,
      "v": 78
    },
    {
      "midi": 38,
      "hit": false,
      "t": 8571.402,
      "d": 173.61057291666657,
      "v": 64
    },
    {
      "midi": 38,
      "hit": false,
      "t": 8571.402000000004,
      "d": 208.33268750000025,
      "v": 68
    },
    {
      "midi": 38,
      "hit": false,
      "t": 8571.40200000001,
      "d": 114.08694791666676,
      "v": 78
    },
    {
      "midi": 38,
      "hit": false,
      "t": 8690.449250000009,
      "d": 114.08694791666676,
      "v": 78
    },
    {
      "midi": 50,
      "hit": false,
      "t": 8809.4965,
      "d": 173.61057291666657,
      "v": 66
    },
    {
      "midi": 62,
      "hit": false,
      "t": 8809.4965,
      "d": 9.920604166667545,
      "v": 103
    },
    {
      "midi": 66,
      "hit": false,
      "t": 8809.4965,
      "d": 9.920604166667545,
      "v": 103
    },
    {
      "midi": 38,
      "hit": false,
      "t": 8809.496500000005,
      "d": 208.33268750000025,
      "v": 68
    },
    {
      "midi": 50,
      "hit": false,
      "t": 8809.496500000008,
      "d": 114.08694791666676,
      "v": 78
    },
    {
      "midi": 62,
      "hit": false,
      "t": 8928.54375,
      "d": 9.920604166667545,
      "v": 103
    },
    {
      "midi": 66,
      "hit": false,
      "t": 8928.54375,
      "d": 9.920604166667545,
      "v": 103
    },
    {
      "midi": 50,
      "hit": false,
      "t": 8928.543750000008,
      "d": 114.08694791666676,
      "v": 78
    },
    {
      "midi": 74,
      "hit": false,
      "t": 9047.590999999997,
      "d": 272.8166145833329,
      "v": 68
    },
    {
      "midi": 78,
      "hit": false,
      "t": 9047.590999999997,
      "d": 272.8166145833329,
      "v": 67
    },
    {
      "midi": 83,
      "hit": false,
      "t": 9047.590999999997,
      "d": 272.8166145833329,
      "v": 72
    },
    {
      "midi": 38,
      "hit": false,
      "t": 9047.590999999999,
      "d": 173.61057291666657,
      "v": 62
    },
    {
      "midi": 74,
      "hit": false,
      "t": 9047.590999999999,
      "d": 272.8166145833329,
      "v": 95
    },
    {
      "midi": 78,
      "hit": false,
      "t": 9047.590999999999,
      "d": 272.8166145833329,
      "v": 94
    },
    {
      "midi": 83,
      "hit": false,
      "t": 9047.590999999999,
      "d": 272.8166145833329,
      "v": 100
    },
    {
      "midi": 62,
      "hit": false,
      "t": 9047.590999999999,
      "d": 272.8166145833329,
      "v": 95
    },
    {
      "midi": 66,
      "hit": false,
      "t": 9047.590999999999,
      "d": 272.8166145833329,
      "v": 94
    },
    {
      "midi": 71,
      "hit": false,
      "t": 9047.590999999999,
      "d": 272.8166145833329,
      "v": 100
    },
    {
      "midi": 38,
      "hit": false,
      "t": 9047.591000000006,
      "d": 208.33268750000025,
      "v": 68
    },
    {
      "midi": 38,
      "hit": false,
      "t": 9047.591000000008,
      "d": 114.08694791666676,
      "v": 78
    },
    {
      "midi": 38,
      "hit": false,
      "t": 9166.638250000007,
      "d": 114.08694791666676,
      "v": 78
    },
    {
      "midi": 50,
      "hit": false,
      "t": 9285.685499999998,
      "d": 173.61057291666657,
      "v": 73
    },
    {
      "midi": 62,
      "hit": false,
      "t": 9285.685500000001,
      "d": 9.920604166667545,
      "v": 103
    },
    {
      "midi": 66,
      "hit": false,
      "t": 9285.685500000001,
      "d": 9.920604166667545,
      "v": 103
    },
    {
      "midi": 38,
      "hit": false,
      "t": 9285.685500000007,
      "d": 208.33268750000025,
      "v": 68
    },
    {
      "midi": 50,
      "hit": false,
      "t": 9285.685500000007,
      "d": 114.08694791666676,
      "v": 78
    },
    {
      "midi": 62,
      "hit": false,
      "t": 9404.732750000003,
      "d": 9.920604166667545,
      "v": 103
    },
    {
      "midi": 66,
      "hit": false,
      "t": 9404.732750000003,
      "d": 9.920604166667545,
      "v": 103
    },
    {
      "midi": 50,
      "hit": false,
      "t": 9404.732750000006,
      "d": 114.08694791666676,
      "v": 78
    },
    {
      "midi": 40,
      "hit": false,
      "t": 9523.779999999997,
      "d": 173.61057291666657,
      "v": 73
    },
    {
      "midi": 71,
      "hit": false,
      "t": 9523.779999999997,
      "d": 272.8166145833329,
      "v": 63
    },
    {
      "midi": 76,
      "hit": false,
      "t": 9523.779999999997,
      "d": 272.8166145833329,
      "v": 74
    },
    {
      "midi": 79,
      "hit": false,
      "t": 9523.779999999997,
      "d": 272.8166145833329,
      "v": 75
    },
    {
      "midi": 71,
      "hit": false,
      "t": 9523.779999999999,
      "d": 272.8166145833329,
      "v": 88
    },
    {
      "midi": 76,
      "hit": false,
      "t": 9523.779999999999,
      "d": 272.8166145833329,
      "v": 103
    },
    {
      "midi": 79,
      "hit": false,
      "t": 9523.779999999999,
      "d": 272.8166145833329,
      "v": 105
    },
    {
      "midi": 59,
      "hit": false,
      "t": 9523.779999999999,
      "d": 272.8166145833329,
      "v": 88
    },
    {
      "midi": 64,
      "hit": false,
      "t": 9523.779999999999,
      "d": 272.8166145833329,
      "v": 103
    },
    {
      "midi": 67,
      "hit": false,
      "t": 9523.779999999999,
      "d": 272.8166145833329,
      "v": 105
    },
    {
      "midi": 64,
      "hit": false,
      "t": 9523.78,
      "d": 947.4176979166659,
      "v": 58
    },
    {
      "midi": 67,
      "hit": false,
      "t": 9523.78,
      "d": 1899.7956979166647,
      "v": 58
    },
    {
      "midi": 71,
      "hit": false,
      "t": 9523.78,
      "d": 1899.7956979166647,
      "v": 58
    },
    {
      "midi": 40,
      "hit": false,
      "t": 9523.780000000006,
      "d": 114.08694791666676,
      "v": 78
    },
    {
      "midi": 40,
      "hit": false,
      "t": 9523.780000000008,
      "d": 208.33268750000025,
      "v": 68
    },
    {
      "midi": 40,
      "hit": false,
      "t": 9642.827250000006,
      "d": 114.08694791666676,
      "v": 78
    },
    {
      "midi": 52,
      "hit": false,
      "t": 9761.874499999996,
      "d": 173.61057291666657,
      "v": 64
    },
    {
      "midi": 64,
      "hit": false,
      "t": 9761.874500000004,
      "d": 9.920604166667545,
      "v": 103
    },
    {
      "midi": 67,
      "hit": false,
      "t": 9761.874500000004,
      "d": 9.920604166667545,
      "v": 103
    },
    {
      "midi": 52,
      "hit": false,
      "t": 9761.874500000005,
      "d": 114.08694791666676,
      "v": 78
    },
    {
      "midi": 40,
      "hit": false,
      "t": 9761.874500000009,
      "d": 208.33268750000025,
      "v": 68
    },
    {
      "midi": 64,
      "hit": false,
      "t": 9880.921750000005,
      "d": 9.920604166667545,
      "v": 103
    },
    {
      "midi": 67,
      "hit": false,
      "t": 9880.921750000005,
      "d": 9.920604166667545,
      "v": 103
    },
    {
      "midi": 52,
      "hit": false,
      "t": 9880.921750000005,
      "d": 114.08694791666676,
      "v": 78
    },
    {
      "midi": 40,
      "hit": false,
      "t": 9999.968999999996,
      "d": 173.61057291666657,
      "v": 62
    },
    {
      "midi": 40,
      "hit": false,
      "t": 9999.969000000005,
      "d": 114.08694791666676,
      "v": 78
    },
    {
      "midi": 40,
      "hit": false,
      "t": 9999.96900000001,
      "d": 208.33268750000025,
      "v": 68
    },
    {
      "midi": 40,
      "hit": false,
      "t": 10119.016250000004,
      "d": 114.08694791666676,
      "v": 78
    },
    {
      "midi": 52,
      "hit": false,
      "t": 10238.063499999995,
      "d": 173.61057291666657,
      "v": 80
    },
    {
      "midi": 52,
      "hit": false,
      "t": 10238.063500000004,
      "d": 114.08694791666676,
      "v": 78
    },
    {
      "midi": 64,
      "hit": false,
      "t": 10238.063500000006,
      "d": 9.920604166667545,
      "v": 103
    },
    {
      "midi": 67,
      "hit": false,
      "t": 10238.063500000006,
      "d": 9.920604166667545,
      "v": 103
    },
    {
      "midi": 40,
      "hit": false,
      "t": 10238.063500000011,
      "d": 208.33268750000025,
      "v": 68
    },
    {
      "midi": 52,
      "hit": false,
      "t": 10357.110750000003,
      "d": 114.08694791666676,
      "v": 78
    },
    {
      "midi": 64,
      "hit": false,
      "t": 10357.110750000007,
      "d": 9.920604166667545,
      "v": 103
    },
    {
      "midi": 67,
      "hit": false,
      "t": 10357.110750000007,
      "d": 9.920604166667545,
      "v": 103
    },
    {
      "midi": 38,
      "hit": false,
      "t": 10476.157999999994,
      "d": 173.61057291666657,
      "v": 58
    },
    {
      "midi": 62,
      "hit": false,
      "t": 10476.158,
      "d": 947.4176979166659,
      "v": 58
    },
    {
      "midi": 38,
      "hit": false,
      "t": 10476.158000000003,
      "d": 114.08694791666676,
      "v": 78
    },
    {
      "midi": 38,
      "hit": false,
      "t": 10476.158000000012,
      "d": 208.33268750000025,
      "v": 68
    },
    {
      "midi": 38,
      "hit": false,
      "t": 10595.205250000003,
      "d": 114.08694791666676,
      "v": 78
    },
    {
      "midi": 50,
      "hit": false,
      "t": 10714.252499999993,
      "d": 173.61057291666657,
      "v": 72
    },
    {
      "midi": 50,
      "hit": false,
      "t": 10714.252500000002,
      "d": 114.08694791666676,
      "v": 78
    },
    {
      "midi": 62,
      "hit": false,
      "t": 10714.252500000008,
      "d": 9.920604166667545,
      "v": 103
    },
    {
      "midi": 66,
      "hit": false,
      "t": 10714.252500000008,
      "d": 9.920604166667545,
      "v": 103
    },
    {
      "midi": 38,
      "hit": false,
      "t": 10714.252500000013,
      "d": 208.33268750000025,
      "v": 68
    },
    {
      "midi": 50,
      "hit": false,
      "t": 10833.299750000002,
      "d": 114.08694791666676,
      "v": 78
    },
    {
      "midi": 62,
      "hit": false,
      "t": 10833.29975000001,
      "d": 9.920604166667545,
      "v": 103
    },
    {
      "midi": 66,
      "hit": false,
      "t": 10833.29975000001,
      "d": 9.920604166667545,
      "v": 103
    },
    {
      "midi": 38,
      "hit": false,
      "t": 10952.346999999992,
      "d": 173.61057291666657,
      "v": 59
    },
    {
      "midi": 38,
      "hit": false,
      "t": 10952.347000000002,
      "d": 114.08694791666676,
      "v": 78
    },
    {
      "midi": 38,
      "hit": false,
      "t": 10952.347000000014,
      "d": 208.33268750000025,
      "v": 68
    },
    {
      "midi": 38,
      "hit": false,
      "t": 11071.394250000001,
      "d": 114.08694791666676,
      "v": 78
    },
    {
      "midi": 50,
      "hit": false,
      "t": 11190.441499999992,
      "d": 173.61057291666657,
      "v": 70
    },
    {
      "midi": 50,
      "hit": false,
      "t": 11190.4415,
      "d": 114.08694791666676,
      "v": 78
    },
    {
      "midi": 62,
      "hit": false,
      "t": 11190.44150000001,
      "d": 9.920604166667545,
      "v": 103
    },
    {
      "midi": 66,
      "hit": false,
      "t": 11190.44150000001,
      "d": 9.920604166667545,
      "v": 103
    },
    {
      "midi": 38,
      "hit": false,
      "t": 11190.441500000015,
      "d": 208.33268750000025,
      "v": 68
    },
    {
      "midi": 50,
      "hit": false,
      "t": 11309.48875,
      "d": 114.08694791666676,
      "v": 78
    },
    {
      "midi": 62,
      "hit": false,
      "t": 11309.488750000011,
      "d": 9.920604166667545,
      "v": 103
    },
    {
      "midi": 66,
      "hit": false,
      "t": 11309.488750000011,
      "d": 9.920604166667545,
      "v": 103
    },
    {
      "midi": 36,
      "hit": false,
      "t": 11428.535999999991,
      "d": 173.61057291666657,
      "v": 74
    },
    {
      "midi": 72,
      "hit": false,
      "t": 11428.535999999996,
      "d": 186.01132812499964,
      "v": 59
    },
    {
      "midi": 76,
      "hit": false,
      "t": 11428.535999999996,
      "d": 186.01132812499964,
      "v": 66
    },
    {
      "midi": 79,
      "hit": false,
      "t": 11428.535999999996,
      "d": 186.01132812499964,
      "v": 67
    },
    {
      "midi": 64,
      "hit": false,
      "t": 11428.535999999998,
      "d": 1423.6066979166662,
      "v": 58
    },
    {
      "midi": 67,
      "hit": false,
      "t": 11428.535999999998,
      "d": 1423.6066979166662,
      "v": 58
    },
    {
      "midi": 72,
      "hit": false,
      "t": 11428.535999999998,
      "d": 1423.6066979166662,
      "v": 58
    },
    {
      "midi": 72,
      "hit": false,
      "t": 11428.535999999998,
      "d": 173.61057291666657,
      "v": 83
    },
    {
      "midi": 76,
      "hit": false,
      "t": 11428.535999999998,
      "d": 173.61057291666657,
      "v": 93
    },
    {
      "midi": 79,
      "hit": false,
      "t": 11428.535999999998,
      "d": 173.61057291666657,
      "v": 94
    },
    {
      "midi": 60,
      "hit": false,
      "t": 11428.535999999998,
      "d": 173.61057291666657,
      "v": 83
    },
    {
      "midi": 64,
      "hit": false,
      "t": 11428.535999999998,
      "d": 173.61057291666657,
      "v": 93
    },
    {
      "midi": 67,
      "hit": false,
      "t": 11428.535999999998,
      "d": 173.61057291666657,
      "v": 94
    },
    {
      "midi": 36,
      "hit": false,
      "t": 11428.536,
      "d": 114.08694791666676,
      "v": 78
    },
    {
      "midi": 36,
      "hit": false,
      "t": 11428.536000000016,
      "d": 208.33268750000025,
      "v": 68
    },
    {
      "midi": 36,
      "hit": false,
      "t": 11547.58325,
      "d": 114.08694791666676,
      "v": 78
    },
    {
      "midi": 48,
      "hit": false,
      "t": 11666.63049999999,
      "d": 173.61057291666657,
      "v": 70
    },
    {
      "midi": 72,
      "hit": false,
      "t": 11666.630499999996,
      "d": 186.01132812499964,
      "v": 71
    },
    {
      "midi": 76,
      "hit": false,
      "t": 11666.630499999996,
      "d": 186.01132812499964,
      "v": 79
    },
    {
      "midi": 79,
      "hit": false,
      "t": 11666.630499999996,
      "d": 186.01132812499964,
      "v": 74
    },
    {
      "midi": 72,
      "hit": false,
      "t": 11666.630499999997,
      "d": 173.61057291666657,
      "v": 99
    },
    {
      "midi": 76,
      "hit": false,
      "t": 11666.630499999997,
      "d": 173.61057291666657,
      "v": 110
    },
    {
      "midi": 79,
      "hit": false,
      "t": 11666.630499999997,
      "d": 173.61057291666657,
      "v": 103
    },
    {
      "midi": 60,
      "hit": false,
      "t": 11666.630499999997,
      "d": 173.61057291666657,
      "v": 99
    },
    {
      "midi": 64,
      "hit": false,
      "t": 11666.630499999997,
      "d": 173.61057291666657,
      "v": 110
    },
    {
      "midi": 67,
      "hit": false,
      "t": 11666.630499999997,
      "d": 173.61057291666657,
      "v": 103
    },
    {
      "midi": 48,
      "hit": false,
      "t": 11666.6305,
      "d": 114.08694791666676,
      "v": 78
    },
    {
      "midi": 60,
      "hit": false,
      "t": 11666.630500000012,
      "d": 9.920604166667545,
      "v": 103
    },
    {
      "midi": 64,
      "hit": false,
      "t": 11666.630500000012,
      "d": 9.920604166667545,
      "v": 103
    },
    {
      "midi": 36,
      "hit": false,
      "t": 11666.630500000017,
      "d": 208.33268750000025,
      "v": 68
    },
    {
      "midi": 48,
      "hit": false,
      "t": 11785.677749999999,
      "d": 114.08694791666676,
      "v": 78
    },
    {
      "midi": 60,
      "hit": false,
      "t": 11785.677750000013,
      "d": 9.920604166667545,
      "v": 103
    },
    {
      "midi": 64,
      "hit": false,
      "t": 11785.677750000013,
      "d": 9.920604166667545,
      "v": 103
    },
    {
      "midi": 36,
      "hit": false,
      "t": 11904.72499999999,
      "d": 173.61057291666657,
      "v": 64
    },
    {
      "midi": 72,
      "hit": false,
      "t": 11904.724999999995,
      "d": 186.01132812499964,
      "v": 74
    },
    {
      "midi": 76,
      "hit": false,
      "t": 11904.724999999995,
      "d": 186.01132812499964,
      "v": 75
    },
    {
      "midi": 79,
      "hit": false,
      "t": 11904.724999999995,
      "d": 186.01132812499964,
      "v": 74
    },
    {
      "midi": 72,
      "hit": false,
      "t": 11904.724999999997,
      "d": 173.61057291666657,
      "v": 103
    },
    {
      "midi": 76,
      "hit": false,
      "t": 11904.724999999997,
      "d": 173.61057291666657,
      "v": 105
    },
    {
      "midi": 79,
      "hit": false,
      "t": 11904.724999999997,
      "d": 173.61057291666657,
      "v": 103
    },
    {
      "midi": 60,
      "hit": false,
      "t": 11904.724999999997,
      "d": 173.61057291666657,
      "v": 103
    },
    {
      "midi": 64,
      "hit": false,
      "t": 11904.724999999997,
      "d": 173.61057291666657,
      "v": 105
    },
    {
      "midi": 67,
      "hit": false,
      "t": 11904.724999999997,
      "d": 173.61057291666657,
      "v": 103
    },
    {
      "midi": 36,
      "hit": false,
      "t": 11904.724999999999,
      "d": 114.08694791666676,
      "v": 78
    },
    {
      "midi": 36,
      "hit": false,
      "t": 11904.725000000019,
      "d": 208.33268750000025,
      "v": 68
    },
    {
      "midi": 36,
      "hit": false,
      "t": 12023.772249999998,
      "d": 114.08694791666676,
      "v": 78
    },
    {
      "midi": 48,
      "hit": false,
      "t": 12142.819499999989,
      "d": 173.61057291666657,
      "v": 74
    },
    {
      "midi": 72,
      "hit": false,
      "t": 12142.819499999994,
      "d": 186.01132812499964,
      "v": 71
    },
    {
      "midi": 76,
      "hit": false,
      "t": 12142.819499999994,
      "d": 186.01132812499964,
      "v": 72
    },
    {
      "midi": 79,
      "hit": false,
      "t": 12142.819499999994,
      "d": 186.01132812499964,
      "v": 72
    },
    {
      "midi": 72,
      "hit": false,
      "t": 12142.819499999996,
      "d": 173.61057291666657,
      "v": 99
    },
    {
      "midi": 76,
      "hit": false,
      "t": 12142.819499999996,
      "d": 173.61057291666657,
      "v": 101
    },
    {
      "midi": 79,
      "hit": false,
      "t": 12142.819499999996,
      "d": 173.61057291666657,
      "v": 100
    },
    {
      "midi": 60,
      "hit": false,
      "t": 12142.819499999996,
      "d": 173.61057291666657,
      "v": 99
    },
    {
      "midi": 64,
      "hit": false,
      "t": 12142.819499999996,
      "d": 173.61057291666657,
      "v": 101
    },
    {
      "midi": 67,
      "hit": false,
      "t": 12142.819499999996,
      "d": 173.61057291666657,
      "v": 100
    },
    {
      "midi": 48,
      "hit": false,
      "t": 12142.819499999998,
      "d": 114.08694791666676,
      "v": 78
    },
    {
      "midi": 60,
      "hit": false,
      "t": 12142.819500000014,
      "d": 9.920604166667545,
      "v": 103
    },
    {
      "midi": 64,
      "hit": false,
      "t": 12142.819500000014,
      "d": 9.920604166667545,
      "v": 103
    },
    {
      "midi": 36,
      "hit": false,
      "t": 12142.81950000002,
      "d": 208.33268750000025,
      "v": 68
    },
    {
      "midi": 48,
      "hit": false,
      "t": 12261.866749999997,
      "d": 114.08694791666676,
      "v": 78
    },
    {
      "midi": 60,
      "hit": false,
      "t": 12261.866750000016,
      "d": 9.920604166667545,
      "v": 103
    },
    {
      "midi": 64,
      "hit": false,
      "t": 12261.866750000016,
      "d": 9.920604166667545,
      "v": 103
    },
    {
      "midi": 36,
      "hit": false,
      "t": 12380.913999999988,
      "d": 173.61057291666657,
      "v": 50
    },
    {
      "midi": 36,
      "hit": false,
      "t": 12380.913999999997,
      "d": 114.08694791666676,
      "v": 78
    },
    {
      "midi": 36,
      "hit": false,
      "t": 12380.91400000002,
      "d": 208.33268750000025,
      "v": 68
    },
    {
      "midi": 36,
      "hit": false,
      "t": 12499.961249999997,
      "d": 114.08694791666676,
      "v": 78
    },
    {
      "midi": 48,
      "hit": false,
      "t": 12619.008499999987,
      "d": 173.61057291666657,
      "v": 73
    },
    {
      "midi": 48,
      "hit": false,
      "t": 12619.008499999996,
      "d": 114.08694791666676,
      "v": 78
    },
    {
      "midi": 60,
      "hit": false,
      "t": 12619.008500000016,
      "d": 9.920604166667545,
      "v": 103
    },
    {
      "midi": 64,
      "hit": false,
      "t": 12619.008500000016,
      "d": 9.920604166667545,
      "v": 103
    },
    {
      "midi": 36,
      "hit": false,
      "t": 12619.008500000022,
      "d": 208.33268750000025,
      "v": 68
    },
    {
      "midi": 48,
      "hit": false,
      "t": 12738.055749999996,
      "d": 114.08694791666676,
      "v": 78
    },
    {
      "midi": 60,
      "hit": false,
      "t": 12738.055750000018,
      "d": 9.920604166667545,
      "v": 103
    },
    {
      "midi": 64,
      "hit": false,
      "t": 12738.055750000018,
      "d": 9.920604166667545,
      "v": 103
    },
    {
      "midi": 38,
      "hit": false,
      "t": 12857.102999999986,
      "d": 173.61057291666657,
      "v": 66
    },
    {
      "midi": 74,
      "hit": false,
      "t": 12857.102999999994,
      "d": 272.8166145833329,
      "v": 70
    },
    {
      "midi": 78,
      "hit": false,
      "t": 12857.102999999994,
      "d": 272.8166145833329,
      "v": 76
    },
    {
      "midi": 81,
      "hit": false,
      "t": 12857.102999999994,
      "d": 272.8166145833329,
      "v": 75
    },
    {
      "midi": 74,
      "hit": false,
      "t": 12857.102999999996,
      "d": 272.8166145833329,
      "v": 98
    },
    {
      "midi": 78,
      "hit": false,
      "t": 12857.102999999996,
      "d": 272.8166145833329,
      "v": 106
    },
    {
      "midi": 81,
      "hit": false,
      "t": 12857.102999999996,
      "d": 272.8166145833329,
      "v": 104
    },
    {
      "midi": 62,
      "hit": false,
      "t": 12857.102999999996,
      "d": 272.8166145833329,
      "v": 98
    },
    {
      "midi": 66,
      "hit": false,
      "t": 12857.102999999996,
      "d": 272.8166145833329,
      "v": 106
    },
    {
      "midi": 69,
      "hit": false,
      "t": 12857.102999999996,
      "d": 272.8166145833329,
      "v": 104
    },
    {
      "midi": 38,
      "hit": false,
      "t": 12857.102999999996,
      "d": 114.08694791666676,
      "v": 78
    },
    {
      "midi": 66,
      "hit": false,
      "t": 12857.102999999997,
      "d": 471.22869791666744,
      "v": 58
    },
    {
      "midi": 69,
      "hit": false,
      "t": 12857.102999999997,
      "d": 471.22869791666744,
      "v": 58
    },
    {
      "midi": 74,
      "hit": false,
      "t": 12857.102999999997,
      "d": 471.22869791666744,
      "v": 58
    },
    {
      "midi": 38,
      "hit": false,
      "t": 12857.103000000023,
      "d": 208.33268750000025,
      "v": 68
    },
    {
      "midi": 38,
      "hit": false,
      "t": 12976.150249999995,
      "d": 114.08694791666676,
      "v": 78
    },
    {
      "midi": 50,
      "hit": false,
      "t": 13095.197499999986,
      "d": 173.61057291666657,
      "v": 86
    },
    {
      "midi": 50,
      "hit": false,
      "t": 13095.197499999995,
      "d": 114.08694791666676,
      "v": 78
    },
    {
      "midi": 62,
      "hit": false,
      "t": 13095.197500000018,
      "d": 9.920604166667545,
      "v": 103
    },
    {
      "midi": 66,
      "hit": false,
      "t": 13095.197500000018,
      "d": 9.920604166667545,
      "v": 103
    },
    {
      "midi": 38,
      "hit": false,
      "t": 13095.197500000024,
      "d": 208.33268750000025,
      "v": 68
    },
    {
      "midi": 50,
      "hit": false,
      "t": 13214.244749999994,
      "d": 114.08694791666676,
      "v": 78
    },
    {
      "midi": 62,
      "hit": false,
      "t": 13214.24475000002,
      "d": 9.920604166667545,
      "v": 103
    },
    {
      "midi": 66,
      "hit": false,
      "t": 13214.24475000002,
      "d": 9.920604166667545,
      "v": 103
    },
    {
      "midi": 31,
      "hit": false,
      "t": 13333.291999999985,
      "d": 173.61057291666657,
      "v": 76
    },
    {
      "midi": 74,
      "hit": false,
      "t": 13333.291999999994,
      "d": 272.8166145833329,
      "v": 64
    },
    {
      "midi": 79,
      "hit": false,
      "t": 13333.291999999994,
      "d": 272.8166145833329,
      "v": 72
    },
    {
      "midi": 83,
      "hit": false,
      "t": 13333.291999999994,
      "d": 272.8166145833329,
      "v": 72
    },
    {
      "midi": 83,
      "hit": false,
      "t": 13333.291999999994,
      "d": 2.480151041667341,
      "v": 84
    },
    {
      "midi": 83,
      "hit": false,
      "t": 13333.291999999994,
      "d": 2.480151041667341,
      "v": 110
    },
    {
      "midi": 43,
      "hit": false,
      "t": 13333.291999999994,
      "d": 114.08694791666676,
      "v": 78
    },
    {
      "midi": 74,
      "hit": false,
      "t": 13333.291999999996,
      "d": 272.8166145833329,
      "v": 90
    },
    {
      "midi": 79,
      "hit": false,
      "t": 13333.291999999996,
      "d": 272.8166145833329,
      "v": 100
    },
    {
      "midi": 83,
      "hit": false,
      "t": 13333.291999999996,
      "d": 272.8166145833329,
      "v": 100
    },
    {
      "midi": 62,
      "hit": false,
      "t": 13333.291999999996,
      "d": 272.8166145833329,
      "v": 90
    },
    {
      "midi": 67,
      "hit": false,
      "t": 13333.291999999996,
      "d": 272.8166145833329,
      "v": 100
    },
    {
      "midi": 71,
      "hit": false,
      "t": 13333.291999999996,
      "d": 272.8166145833329,
      "v": 100
    },
    {
      "midi": 62,
      "hit": false,
      "t": 13333.291999999998,
      "d": 1899.7956979166665,
      "v": 58
    },
    {
      "midi": 67,
      "hit": false,
      "t": 13333.291999999998,
      "d": 1899.7956979166665,
      "v": 58
    },
    {
      "midi": 71,
      "hit": false,
      "t": 13333.291999999998,
      "d": 1899.7956979166665,
      "v": 58
    },
    {
      "midi": 31,
      "hit": false,
      "t": 13333.292000000025,
      "d": 208.33268750000025,
      "v": 68
    },
    {
      "midi": 43,
      "hit": false,
      "t": 13452.339249999994,
      "d": 114.08694791666676,
      "v": 78
    },
    {
      "midi": 83,
      "hit": false,
      "t": 13452.339249999995,
      "d": 2.480151041667341,
      "v": 91
    },
    {
      "midi": 83,
      "hit": false,
      "t": 13452.339249999995,
      "d": 2.480151041667341,
      "v": 110
    },
    {
      "midi": 43,
      "hit": false,
      "t": 13571.386499999984,
      "d": 173.61057291666657,
      "v": 82
    },
    {
      "midi": 55,
      "hit": false,
      "t": 13571.386499999993,
      "d": 114.08694791666676,
      "v": 78
    },
    {
      "midi": 83,
      "hit": false,
      "t": 13571.386499999997,
      "d": 2.480151041667341,
      "v": 88
    },
    {
      "midi": 83,
      "hit": false,
      "t": 13571.386499999997,
      "d": 2.480151041667341,
      "v": 110
    },
    {
      "midi": 67,
      "hit": false,
      "t": 13571.38650000002,
      "d": 9.920604166667545,
      "v": 103
    },
    {
      "midi": 71,
      "hit": false,
      "t": 13571.38650000002,
      "d": 9.920604166667545,
      "v": 103
    },
    {
      "midi": 31,
      "hit": false,
      "t": 13571.386500000026,
      "d": 208.33268750000025,
      "v": 68
    },
    {
      "midi": 55,
      "hit": false,
      "t": 13690.433749999993,
      "d": 114.08694791666676,
      "v": 78
    },
    {
      "midi": 83,
      "hit": false,
      "t": 13690.433749999998,
      "d": 2.480151041667341,
      "v": 91
    },
    {
      "midi": 83,
      "hit": false,
      "t": 13690.433749999998,
      "d": 2.480151041667341,
      "v": 110
    },
    {
      "midi": 67,
      "hit": false,
      "t": 13690.433750000022,
      "d": 9.920604166667545,
      "v": 103
    },
    {
      "midi": 71,
      "hit": false,
      "t": 13690.433750000022,
      "d": 9.920604166667545,
      "v": 103
    },
    {
      "midi": 31,
      "hit": false,
      "t": 13809.480999999983,
      "d": 173.61057291666657,
      "v": 62
    },
    {
      "midi": 43,
      "hit": false,
      "t": 13809.480999999992,
      "d": 114.08694791666676,
      "v": 78
    },
    {
      "midi": 83,
      "hit": false,
      "t": 13809.481,
      "d": 2.480151041667341,
      "v": 87
    },
    {
      "midi": 83,
      "hit": false,
      "t": 13809.481,
      "d": 2.480151041667341,
      "v": 110
    },
    {
      "midi": 31,
      "hit": false,
      "t": 13809.481000000027,
      "d": 208.33268750000025,
      "v": 68
    },
    {
      "midi": 43,
      "hit": false,
      "t": 13928.528249999992,
      "d": 114.08694791666676,
      "v": 78
    },
    {
      "midi": 83,
      "hit": false,
      "t": 13928.528250000001,
      "d": 2.480151041667341,
      "v": 87
    },
    {
      "midi": 83,
      "hit": false,
      "t": 13928.528250000001,
      "d": 2.480151041667341,
      "v": 110
    },
    {
      "midi": 43,
      "hit": false,
      "t": 14047.575499999983,
      "d": 173.61057291666657,
      "v": 78
    },
    {
      "midi": 55,
      "hit": false,
      "t": 14047.575499999992,
      "d": 114.08694791666676,
      "v": 78
    },
    {
      "midi": 83,
      "hit": false,
      "t": 14047.575500000003,
      "d": 2.480151041667341,
      "v": 89
    },
    {
      "midi": 83,
      "hit": false,
      "t": 14047.575500000003,
      "d": 2.480151041667341,
      "v": 110
    },
    {
      "midi": 67,
      "hit": false,
      "t": 14047.575500000023,
      "d": 9.920604166667545,
      "v": 103
    },
    {
      "midi": 71,
      "hit": false,
      "t": 14047.575500000023,
      "d": 9.920604166667545,
      "v": 103
    },
    {
      "midi": 31,
      "hit": false,
      "t": 14047.575500000028,
      "d": 208.33268750000025,
      "v": 68
    },
    {
      "midi": 55,
      "hit": false,
      "t": 14166.622749999991,
      "d": 114.08694791666676,
      "v": 78
    },
    {
      "midi": 83,
      "hit": false,
      "t": 14166.622750000004,
      "d": 2.480151041667341,
      "v": 91
    },
    {
      "midi": 83,
      "hit": false,
      "t": 14166.622750000004,
      "d": 2.480151041667341,
      "v": 110
    },
    {
      "midi": 67,
      "hit": false,
      "t": 14166.622750000024,
      "d": 9.920604166667545,
      "v": 103
    },
    {
      "midi": 71,
      "hit": false,
      "t": 14166.622750000024,
      "d": 9.920604166667545,
      "v": 103
    },
    {
      "midi": 31,
      "hit": false,
      "t": 14285.669999999982,
      "d": 173.61057291666657,
      "v": 67
    },
    {
      "midi": 43,
      "hit": false,
      "t": 14285.669999999991,
      "d": 114.08694791666676,
      "v": 78
    },
    {
      "midi": 83,
      "hit": false,
      "t": 14285.670000000006,
      "d": 2.480151041667341,
      "v": 91
    },
    {
      "midi": 83,
      "hit": false,
      "t": 14285.670000000006,
      "d": 2.480151041667341,
      "v": 110
    },
    {
      "midi": 31,
      "hit": false,
      "t": 14285.67000000003,
      "d": 208.33268750000025,
      "v": 68
    },
    {
      "midi": 43,
      "hit": false,
      "t": 14404.71724999999,
      "d": 114.08694791666676,
      "v": 78
    },
    {
      "midi": 83,
      "hit": false,
      "t": 14404.717250000007,
      "d": 2.480151041667341,
      "v": 92
    },
    {
      "midi": 83,
      "hit": false,
      "t": 14404.717250000007,
      "d": 2.480151041667341,
      "v": 110
    },
    {
      "midi": 43,
      "hit": false,
      "t": 14523.764499999981,
      "d": 173.61057291666657,
      "v": 70
    },
    {
      "midi": 55,
      "hit": false,
      "t": 14523.76449999999,
      "d": 114.08694791666676,
      "v": 78
    },
    {
      "midi": 83,
      "hit": false,
      "t": 14523.764500000008,
      "d": 2.480151041667341,
      "v": 96
    },
    {
      "midi": 83,
      "hit": false,
      "t": 14523.764500000008,
      "d": 2.480151041667341,
      "v": 110
    },
    {
      "midi": 67,
      "hit": false,
      "t": 14523.764500000025,
      "d": 9.920604166667545,
      "v": 103
    },
    {
      "midi": 71,
      "hit": false,
      "t": 14523.764500000025,
      "d": 9.920604166667545,
      "v": 103
    },
    {
      "midi": 31,
      "hit": false,
      "t": 14523.76450000003,
      "d": 208.33268750000025,
      "v": 68
    },
    {
      "midi": 55,
      "hit": false,
      "t": 14642.81174999999,
      "d": 114.08694791666676,
      "v": 78
    },
    {
      "midi": 83,
      "hit": false,
      "t": 14642.81175000001,
      "d": 2.480151041667341,
      "v": 92
    },
    {
      "midi": 83,
      "hit": false,
      "t": 14642.81175000001,
      "d": 2.480151041667341,
      "v": 110
    },
    {
      "midi": 67,
      "hit": false,
      "t": 14642.811750000026,
      "d": 9.920604166667545,
      "v": 103
    },
    {
      "midi": 71,
      "hit": false,
      "t": 14642.811750000026,
      "d": 9.920604166667545,
      "v": 103
    },
    {
      "midi": 31,
      "hit": false,
      "t": 14761.85899999998,
      "d": 173.61057291666657,
      "v": 56
    },
    {
      "midi": 43,
      "hit": false,
      "t": 14761.85899999999,
      "d": 114.08694791666676,
      "v": 78
    },
    {
      "midi": 83,
      "hit": false,
      "t": 14761.859000000011,
      "d": 2.480151041667341,
      "v": 96
    },
    {
      "midi": 83,
      "hit": false,
      "t": 14761.859000000011,
      "d": 2.480151041667341,
      "v": 110
    },
    {
      "midi": 31,
      "hit": false,
      "t": 14761.859000000031,
      "d": 208.33268750000025,
      "v": 68
    },
    {
      "midi": 43,
      "hit": false,
      "t": 14880.906249999989,
      "d": 114.08694791666676,
      "v": 78
    },
    {
      "midi": 83,
      "hit": false,
      "t": 14880.906250000013,
      "d": 2.480151041667341,
      "v": 96
    },
    {
      "midi": 83,
      "hit": false,
      "t": 14880.906250000013,
      "d": 2.480151041667341,
      "v": 110
    },
    {
      "midi": 43,
      "hit": false,
      "t": 14999.95349999998,
      "d": 173.61057291666657,
      "v": 70
    },
    {
      "midi": 55,
      "hit": false,
      "t": 14999.953499999989,
      "d": 114.08694791666676,
      "v": 78
    },
    {
      "midi": 83,
      "hit": false,
      "t": 14999.953500000014,
      "d": 2.480151041667341,
      "v": 98
    },
    {
      "midi": 83,
      "hit": false,
      "t": 14999.953500000014,
      "d": 2.480151041667341,
      "v": 110
    },
    {
      "midi": 67,
      "hit": false,
      "t": 14999.953500000027,
      "d": 9.920604166667545,
      "v": 103
    },
    {
      "midi": 71,
      "hit": false,
      "t": 14999.953500000027,
      "d": 9.920604166667545,
      "v": 103
    },
    {
      "midi": 31,
      "hit": false,
      "t": 14999.953500000032,
      "d": 208.33268750000025,
      "v": 68
    },
    {
      "midi": 55,
      "hit": false,
      "t": 15119.000749999988,
      "d": 114.08694791666676,
      "v": 78
    },
    {
      "midi": 83,
      "hit": false,
      "t": 15119.000750000016,
      "d": 2.480151041667341,
      "v": 101
    },
    {
      "midi": 83,
      "hit": false,
      "t": 15119.000750000016,
      "d": 2.480151041667341,
      "v": 110
    },
    {
      "midi": 67,
      "hit": false,
      "t": 15119.000750000028,
      "d": 9.920604166667545,
      "v": 103
    },
    {
      "midi": 71,
      "hit": false,
      "t": 15119.000750000028,
      "d": 9.920604166667545,
      "v": 103
    },
    {
      "midi": 38,
      "hit": false,
      "t": 15238.047999999979,
      "d": 173.61057291666657,
      "v": 70
    },
    {
      "midi": 38,
      "hit": false,
      "t": 15238.047999999988,
      "d": 114.08694791666676,
      "v": 78
    },
    {
      "midi": 74,
      "hit": false,
      "t": 15238.047999999993,
      "d": 186.01132812499964,
      "v": 54
    },
    {
      "midi": 78,
      "hit": false,
      "t": 15238.047999999993,
      "d": 186.01132812499964,
      "v": 57
    },
    {
      "midi": 81,
      "hit": false,
      "t": 15238.047999999993,
      "d": 186.01132812499964,
      "v": 49
    },
    {
      "midi": 74,
      "hit": false,
      "t": 15238.047999999995,
      "d": 173.61057291666657,
      "v": 76
    },
    {
      "midi": 78,
      "hit": false,
      "t": 15238.047999999995,
      "d": 173.61057291666657,
      "v": 80
    },
    {
      "midi": 81,
      "hit": false,
      "t": 15238.047999999995,
      "d": 173.61057291666657,
      "v": 70
    },
    {
      "midi": 62,
      "hit": false,
      "t": 15238.047999999995,
      "d": 173.61057291666657,
      "v": 76
    },
    {
      "midi": 66,
      "hit": false,
      "t": 15238.047999999995,
      "d": 173.61057291666657,
      "v": 80
    },
    {
      "midi": 69,
      "hit": false,
      "t": 15238.047999999995,
      "d": 173.61057291666657,
      "v": 70
    },
    {
      "midi": 62,
      "hit": false,
      "t": 15238.047999999997,
      "d": 1899.7956979166684,
      "v": 58
    },
    {
      "midi": 66,
      "hit": false,
      "t": 15238.047999999997,
      "d": 1899.7956979166684,
      "v": 58
    },
    {
      "midi": 69,
      "hit": false,
      "t": 15238.047999999997,
      "d": 1899.7956979166684,
      "v": 58
    },
    {
      "midi": 38,
      "hit": false,
      "t": 15238.048000000033,
      "d": 208.33268750000025,
      "v": 68
    },
    {
      "midi": 38,
      "hit": false,
      "t": 15357.095249999988,
      "d": 114.08694791666676,
      "v": 78
    },
    {
      "midi": 50,
      "hit": false,
      "t": 15476.142499999978,
      "d": 173.61057291666657,
      "v": 62
    },
    {
      "midi": 50,
      "hit": false,
      "t": 15476.142499999987,
      "d": 114.08694791666676,
      "v": 78
    },
    {
      "midi": 74,
      "hit": false,
      "t": 15476.142499999993,
      "d": 186.01132812499964,
      "v": 65
    },
    {
      "midi": 78,
      "hit": false,
      "t": 15476.142499999993,
      "d": 186.01132812499964,
      "v": 68
    },
    {
      "midi": 81,
      "hit": false,
      "t": 15476.142499999993,
      "d": 186.01132812499964,
      "v": 64
    },
    {
      "midi": 74,
      "hit": false,
      "t": 15476.142499999994,
      "d": 173.61057291666657,
      "v": 91
    },
    {
      "midi": 78,
      "hit": false,
      "t": 15476.142499999994,
      "d": 173.61057291666657,
      "v": 95
    },
    {
      "midi": 81,
      "hit": false,
      "t": 15476.142499999994,
      "d": 173.61057291666657,
      "v": 90
    },
    {
      "midi": 62,
      "hit": false,
      "t": 15476.142499999994,
      "d": 173.61057291666657,
      "v": 91
    },
    {
      "midi": 66,
      "hit": false,
      "t": 15476.142499999994,
      "d": 173.61057291666657,
      "v": 95
    },
    {
      "midi": 69,
      "hit": false,
      "t": 15476.142499999994,
      "d": 173.61057291666657,
      "v": 90
    },
    {
      "midi": 62,
      "hit": false,
      "t": 15476.142500000029,
      "d": 9.920604166667545,
      "v": 103
    },
    {
      "midi": 66,
      "hit": false,
      "t": 15476.142500000029,
      "d": 9.920604166667545,
      "v": 103
    },
    {
      "midi": 38,
      "hit": false,
      "t": 15476.142500000034,
      "d": 208.33268750000025,
      "v": 68
    },
    {
      "midi": 50,
      "hit": false,
      "t": 15595.189749999987,
      "d": 114.08694791666676,
      "v": 78
    },
    {
      "midi": 62,
      "hit": false,
      "t": 15595.18975000003,
      "d": 9.920604166667545,
      "v": 103
    },
    {
      "midi": 66,
      "hit": false,
      "t": 15595.18975000003,
      "d": 9.920604166667545,
      "v": 103
    },
    {
      "midi": 38,
      "hit": false,
      "t": 15714.236999999977,
      "d": 173.61057291666657,
      "v": 66
    },
    {
      "midi": 38,
      "hit": false,
      "t": 15714.236999999986,
      "d": 114.08694791666676,
      "v": 78
    },
    {
      "midi": 74,
      "hit": false,
      "t": 15714.236999999992,
      "d": 186.01132812499964,
      "v": 71
    },
    {
      "midi": 78,
      "hit": false,
      "t": 15714.236999999992,
      "d": 186.01132812499964,
      "v": 72
    },
    {
      "midi": 81,
      "hit": false,
      "t": 15714.236999999992,
      "d": 186.01132812499964,
      "v": 72
    },
    {
      "midi": 74,
      "hit": false,
      "t": 15714.236999999994,
      "d": 173.61057291666657,
      "v": 99
    },
    {
      "midi": 78,
      "hit": false,
      "t": 15714.236999999994,
      "d": 173.61057291666657,
      "v": 101
    },
    {
      "midi": 81,
      "hit": false,
      "t": 15714.236999999994,
      "d": 173.61057291666657,
      "v": 100
    },
    {
      "midi": 62,
      "hit": false,
      "t": 15714.236999999994,
      "d": 173.61057291666657,
      "v": 99
    },
    {
      "midi": 66,
      "hit": false,
      "t": 15714.236999999994,
      "d": 173.61057291666657,
      "v": 101
    },
    {
      "midi": 69,
      "hit": false,
      "t": 15714.236999999994,
      "d": 173.61057291666657,
      "v": 100
    },
    {
      "midi": 38,
      "hit": false,
      "t": 15714.237000000036,
      "d": 208.33268750000025,
      "v": 68
    },
    {
      "midi": 38,
      "hit": false,
      "t": 15833.284249999986,
      "d": 114.08694791666676,
      "v": 78
    },
    {
      "midi": 50,
      "hit": false,
      "t": 15952.331499999977,
      "d": 173.61057291666657,
      "v": 67
    },
    {
      "midi": 50,
      "hit": false,
      "t": 15952.331499999986,
      "d": 114.08694791666676,
      "v": 78
    },
    {
      "midi": 74,
      "hit": false,
      "t": 15952.331499999991,
      "d": 186.01132812499964,
      "v": 70
    },
    {
      "midi": 78,
      "hit": false,
      "t": 15952.331499999991,
      "d": 186.01132812499964,
      "v": 74
    },
    {
      "midi": 81,
      "hit": false,
      "t": 15952.331499999991,
      "d": 186.01132812499964,
      "v": 69
    },
    {
      "midi": 74,
      "hit": false,
      "t": 15952.331499999993,
      "d": 173.61057291666657,
      "v": 98
    },
    {
      "midi": 78,
      "hit": false,
      "t": 15952.331499999993,
      "d": 173.61057291666657,
      "v": 103
    },
    {
      "midi": 81,
      "hit": false,
      "t": 15952.331499999993,
      "d": 173.61057291666657,
      "v": 96
    },
    {
      "midi": 62,
      "hit": false,
      "t": 15952.331499999993,
      "d": 173.61057291666657,
      "v": 98
    },
    {
      "midi": 66,
      "hit": false,
      "t": 15952.331499999993,
      "d": 173.61057291666657,
      "v": 103
    },
    {
      "midi": 69,
      "hit": false,
      "t": 15952.331499999993,
      "d": 173.61057291666657,
      "v": 96
    },
    {
      "midi": 62,
      "hit": false,
      "t": 15952.331500000031,
      "d": 9.920604166667545,
      "v": 103
    },
    {
      "midi": 66,
      "hit": false,
      "t": 15952.331500000031,
      "d": 9.920604166667545,
      "v": 103
    },
    {
      "midi": 38,
      "hit": false,
      "t": 15952.331500000037,
      "d": 208.33268750000025,
      "v": 68
    },
    {
      "midi": 50,
      "hit": false,
      "t": 16071.378749999985,
      "d": 114.08694791666676,
      "v": 78
    },
    {
      "midi": 62,
      "hit": false,
      "t": 16071.378750000033,
      "d": 9.920604166667545,
      "v": 103
    },
    {
      "midi": 66,
      "hit": false,
      "t": 16071.378750000033,
      "d": 9.920604166667545,
      "v": 103
    },
    {
      "midi": 38,
      "hit": false,
      "t": 16190.425999999976,
      "d": 173.61057291666657,
      "v": 64
    },
    {
      "midi": 38,
      "hit": false,
      "t": 16190.425999999985,
      "d": 114.08694791666676,
      "v": 78
    },
    {
      "midi": 38,
      "hit": false,
      "t": 16190.426000000038,
      "d": 208.33268750000025,
      "v": 68
    },
    {
      "midi": 38,
      "hit": false,
      "t": 16309.473249999985,
      "d": 114.08694791666494,
      "v": 78
    },
    {
      "midi": 50,
      "hit": false,
      "t": 16428.520499999977,
      "d": 173.61057291666657,
      "v": 66
    },
    {
      "midi": 50,
      "hit": false,
      "t": 16428.520499999984,
      "d": 114.08694791666494,
      "v": 78
    },
    {
      "midi": 62,
      "hit": false,
      "t": 16428.520500000035,
      "d": 9.920604166665726,
      "v": 103
    },
    {
      "midi": 66,
      "hit": false,
      "t": 16428.520500000035,
      "d": 9.920604166665726,
      "v": 103
    },
    {
      "midi": 38,
      "hit": false,
      "t": 16428.52050000004,
      "d": 208.33268749999843,
      "v": 68
    },
    {
      "midi": 50,
      "hit": false,
      "t": 16547.567749999984,
      "d": 114.08694791666494,
      "v": 78
    },
    {
      "midi": 62,
      "hit": false,
      "t": 16547.567750000035,
      "d": 9.920604166665726,
      "v": 103
    },
    {
      "midi": 66,
      "hit": false,
      "t": 16547.567750000035,
      "d": 9.920604166665726,
      "v": 103
    },
    {
      "midi": 38,
      "hit": false,
      "t": 16666.614999999976,
      "d": 173.61057291666657,
      "v": 62
    },
    {
      "midi": 38,
      "hit": false,
      "t": 16666.614999999983,
      "d": 114.08694791666494,
      "v": 78
    },
    {
      "midi": 74,
      "hit": false,
      "t": 16666.61499999999,
      "d": 272.81661458333474,
      "v": 68
    },
    {
      "midi": 78,
      "hit": false,
      "t": 16666.61499999999,
      "d": 272.81661458333474,
      "v": 67
    },
    {
      "midi": 83,
      "hit": false,
      "t": 16666.61499999999,
      "d": 272.81661458333474,
      "v": 72
    },
    {
      "midi": 74,
      "hit": false,
      "t": 16666.614999999994,
      "d": 272.81661458333474,
      "v": 95
    },
    {
      "midi": 78,
      "hit": false,
      "t": 16666.614999999994,
      "d": 272.81661458333474,
      "v": 94
    },
    {
      "midi": 83,
      "hit": false,
      "t": 16666.614999999994,
      "d": 272.81661458333474,
      "v": 100
    },
    {
      "midi": 62,
      "hit": false,
      "t": 16666.614999999994,
      "d": 272.81661458333474,
      "v": 95
    },
    {
      "midi": 66,
      "hit": false,
      "t": 16666.614999999994,
      "d": 272.81661458333474,
      "v": 94
    },
    {
      "midi": 71,
      "hit": false,
      "t": 16666.614999999994,
      "d": 272.81661458333474,
      "v": 100
    },
    {
      "midi": 38,
      "hit": false,
      "t": 16666.615000000038,
      "d": 208.33268749999843,
      "v": 68
    },
    {
      "midi": 38,
      "hit": false,
      "t": 16785.662249999983,
      "d": 114.08694791666494,
      "v": 78
    },
    {
      "midi": 50,
      "hit": false,
      "t": 16904.709499999975,
      "d": 173.61057291666657,
      "v": 73
    },
    {
      "midi": 50,
      "hit": false,
      "t": 16904.709499999983,
      "d": 114.08694791666494,
      "v": 78
    },
    {
      "midi": 62,
      "hit": false,
      "t": 16904.709500000034,
      "d": 9.920604166665726,
      "v": 103
    },
    {
      "midi": 66,
      "hit": false,
      "t": 16904.709500000034,
      "d": 9.920604166665726,
      "v": 103
    },
    {
      "midi": 38,
      "hit": false,
      "t": 16904.709500000037,
      "d": 208.33268749999843,
      "v": 68
    },
    {
      "midi": 50,
      "hit": false,
      "t": 17023.756749999982,
      "d": 114.08694791666494,
      "v": 78
    },
    {
      "midi": 62,
      "hit": false,
      "t": 17023.756750000033,
      "d": 9.920604166665726,
      "v": 103
    },
    {
      "midi": 66,
      "hit": false,
      "t": 17023.756750000033,
      "d": 9.920604166665726,
      "v": 103
    },
    {
      "midi": 40,
      "hit": false,
      "t": 17142.803999999975,
      "d": 173.61057291666657,
      "v": 73
    },
    {
      "midi": 40,
      "hit": false,
      "t": 17142.803999999982,
      "d": 114.08694791666494,
      "v": 78
    },
    {
      "midi": 71,
      "hit": false,
      "t": 17142.803999999993,
      "d": 272.81661458333474,
      "v": 63
    },
    {
      "midi": 76,
      "hit": false,
      "t": 17142.803999999993,
      "d": 272.81661458333474,
      "v": 74
    },
    {
      "midi": 79,
      "hit": false,
      "t": 17142.803999999993,
      "d": 272.81661458333474,
      "v": 75
    },
    {
      "midi": 71,
      "hit": false,
      "t": 17142.803999999996,
      "d": 272.81661458333474,
      "v": 88
    },
    {
      "midi": 76,
      "hit": false,
      "t": 17142.803999999996,
      "d": 272.81661458333474,
      "v": 103
    },
    {
      "midi": 79,
      "hit": false,
      "t": 17142.803999999996,
      "d": 272.81661458333474,
      "v": 105
    },
    {
      "midi": 59,
      "hit": false,
      "t": 17142.803999999996,
      "d": 272.81661458333474,
      "v": 88
    },
    {
      "midi": 64,
      "hit": false,
      "t": 17142.803999999996,
      "d": 272.81661458333474,
      "v": 103
    },
    {
      "midi": 67,
      "hit": false,
      "t": 17142.803999999996,
      "d": 272.81661458333474,
      "v": 105
    },
    {
      "midi": 64,
      "hit": false,
      "t": 17142.804,
      "d": 947.4176979166659,
      "v": 58
    },
    {
      "midi": 67,
      "hit": false,
      "t": 17142.804,
      "d": 1899.7956979166665,
      "v": 58
    },
    {
      "midi": 71,
      "hit": false,
      "t": 17142.804,
      "d": 1899.7956979166665,
      "v": 58
    },
    {
      "midi": 40,
      "hit": false,
      "t": 17142.804000000036,
      "d": 208.33268749999843,
      "v": 68
    },
    {
      "midi": 40,
      "hit": false,
      "t": 17261.85124999998,
      "d": 114.08694791666494,
      "v": 78
    },
    {
      "midi": 52,
      "hit": false,
      "t": 17380.898499999974,
      "d": 173.61057291666657,
      "v": 64
    },
    {
      "midi": 52,
      "hit": false,
      "t": 17380.89849999998,
      "d": 114.08694791666494,
      "v": 78
    },
    {
      "midi": 64,
      "hit": false,
      "t": 17380.898500000032,
      "d": 9.920604166665726,
      "v": 103
    },
    {
      "midi": 67,
      "hit": false,
      "t": 17380.898500000032,
      "d": 9.920604166665726,
      "v": 103
    },
    {
      "midi": 40,
      "hit": false,
      "t": 17380.898500000036,
      "d": 208.33268749999843,
      "v": 68
    },
    {
      "midi": 52,
      "hit": false,
      "t": 17499.94574999998,
      "d": 114.08694791666494,
      "v": 78
    },
    {
      "midi": 64,
      "hit": false,
      "t": 17499.94575000003,
      "d": 9.920604166665726,
      "v": 103
    },
    {
      "midi": 67,
      "hit": false,
      "t": 17499.94575000003,
      "d": 9.920604166665726,
      "v": 103
    },
    {
      "midi": 40,
      "hit": false,
      "t": 17618.992999999973,
      "d": 173.61057291666657,
      "v": 62
    },
    {
      "midi": 40,
      "hit": false,
      "t": 17618.99299999998,
      "d": 114.08694791666494,
      "v": 78
    },
    {
      "midi": 40,
      "hit": false,
      "t": 17618.993000000035,
      "d": 208.33268749999843,
      "v": 68
    },
    {
      "midi": 40,
      "hit": false,
      "t": 17738.04024999998,
      "d": 114.08694791666494,
      "v": 78
    },
    {
      "midi": 52,
      "hit": false,
      "t": 17857.087499999972,
      "d": 173.61057291666657,
      "v": 80
    },
    {
      "midi": 52,
      "hit": false,
      "t": 17857.08749999998,
      "d": 114.08694791666494,
      "v": 78
    },
    {
      "midi": 64,
      "hit": false,
      "t": 17857.08750000003,
      "d": 9.920604166665726,
      "v": 103
    },
    {
      "midi": 67,
      "hit": false,
      "t": 17857.08750000003,
      "d": 9.920604166665726,
      "v": 103
    },
    {
      "midi": 40,
      "hit": false,
      "t": 17857.087500000034,
      "d": 208.33268749999843,
      "v": 68
    },
    {
      "midi": 52,
      "hit": false,
      "t": 17976.13474999998,
      "d": 114.08694791666494,
      "v": 78
    },
    {
      "midi": 64,
      "hit": false,
      "t": 17976.13475000003,
      "d": 9.920604166665726,
      "v": 103
    },
    {
      "midi": 67,
      "hit": false,
      "t": 17976.13475000003,
      "d": 9.920604166665726,
      "v": 103
    },
    {
      "midi": 38,
      "hit": false,
      "t": 18095.18199999997,
      "d": 173.61057291666657,
      "v": 58
    },
    {
      "midi": 38,
      "hit": false,
      "t": 18095.18199999998,
      "d": 114.08694791666494,
      "v": 78
    },
    {
      "midi": 62,
      "hit": false,
      "t": 18095.182,
      "d": 947.4176979166659,
      "v": 58
    },
    {
      "midi": 38,
      "hit": false,
      "t": 18095.182000000033,
      "d": 208.33268749999843,
      "v": 68
    },
    {
      "midi": 38,
      "hit": false,
      "t": 18214.22924999998,
      "d": 114.08694791666494,
      "v": 78
    },
    {
      "midi": 50,
      "hit": false,
      "t": 18333.27649999997,
      "d": 173.61057291666657,
      "v": 72
    },
    {
      "midi": 50,
      "hit": false,
      "t": 18333.276499999978,
      "d": 114.08694791666494,
      "v": 78
    },
    {
      "midi": 62,
      "hit": false,
      "t": 18333.27650000003,
      "d": 9.920604166665726,
      "v": 103
    },
    {
      "midi": 66,
      "hit": false,
      "t": 18333.27650000003,
      "d": 9.920604166665726,
      "v": 103
    },
    {
      "midi": 38,
      "hit": false,
      "t": 18333.276500000033,
      "d": 208.33268749999843,
      "v": 68
    },
    {
      "midi": 50,
      "hit": false,
      "t": 18452.323749999978,
      "d": 114.08694791666494,
      "v": 78
    },
    {
      "midi": 62,
      "hit": false,
      "t": 18452.32375000003,
      "d": 9.920604166665726,
      "v": 103
    },
    {
      "midi": 66,
      "hit": false,
      "t": 18452.32375000003,
      "d": 9.920604166665726,
      "v": 103
    },
    {
      "midi": 38,
      "hit": false,
      "t": 18571.37099999997,
      "d": 173.61057291666657,
      "v": 59
    },
    {
      "midi": 38,
      "hit": false,
      "t": 18571.370999999977,
      "d": 114.08694791666494,
      "v": 78
    },
    {
      "midi": 38,
      "hit": false,
      "t": 18571.371000000032,
      "d": 208.33268749999843,
      "v": 68
    },
    {
      "midi": 38,
      "hit": false,
      "t": 18690.418249999977,
      "d": 114.08694791666494,
      "v": 78
    },
    {
      "midi": 50,
      "hit": false,
      "t": 18809.46549999997,
      "d": 173.61057291666657,
      "v": 70
    },
    {
      "midi": 50,
      "hit": false,
      "t": 18809.465499999977,
      "d": 114.08694791666494,
      "v": 78
    },
    {
      "midi": 62,
      "hit": false,
      "t": 18809.465500000028,
      "d": 9.920604166665726,
      "v": 103
    },
    {
      "midi": 66,
      "hit": false,
      "t": 18809.465500000028,
      "d": 9.920604166665726,
      "v": 103
    },
    {
      "midi": 38,
      "hit": false,
      "t": 18809.46550000003,
      "d": 208.33268749999843,
      "v": 68
    },
    {
      "midi": 50,
      "hit": false,
      "t": 18928.512749999976,
      "d": 114.08694791666494,
      "v": 78
    },
    {
      "midi": 62,
      "hit": false,
      "t": 18928.512750000027,
      "d": 9.920604166665726,
      "v": 103
    },
    {
      "midi": 66,
      "hit": false,
      "t": 18928.512750000027,
      "d": 9.920604166665726,
      "v": 103
    },
    {
      "midi": 36,
      "hit": false,
      "t": 19047.55999999997,
      "d": 173.61057291666657,
      "v": 74
    },
    {
      "midi": 36,
      "hit": false,
      "t": 19047.559999999976,
      "d": 114.08694791666494,
      "v": 78
    },
    {
      "midi": 72,
      "hit": false,
      "t": 19047.559999999994,
      "d": 186.01132812500146,
      "v": 59
    },
    {
      "midi": 76,
      "hit": false,
      "t": 19047.559999999994,
      "d": 186.01132812500146,
      "v": 66
    },
    {
      "midi": 79,
      "hit": false,
      "t": 19047.559999999994,
      "d": 186.01132812500146,
      "v": 67
    },
    {
      "midi": 72,
      "hit": false,
      "t": 19047.559999999998,
      "d": 173.61057291666657,
      "v": 83
    },
    {
      "midi": 76,
      "hit": false,
      "t": 19047.559999999998,
      "d": 173.61057291666657,
      "v": 93
    },
    {
      "midi": 79,
      "hit": false,
      "t": 19047.559999999998,
      "d": 173.61057291666657,
      "v": 94
    },
    {
      "midi": 60,
      "hit": false,
      "t": 19047.559999999998,
      "d": 173.61057291666657,
      "v": 83
    },
    {
      "midi": 64,
      "hit": false,
      "t": 19047.559999999998,
      "d": 173.61057291666657,
      "v": 93
    },
    {
      "midi": 67,
      "hit": false,
      "t": 19047.559999999998,
      "d": 173.61057291666657,
      "v": 94
    },
    {
      "midi": 64,
      "hit": false,
      "t": 19047.56,
      "d": 1423.606697916668,
      "v": 58
    },
    {
      "midi": 67,
      "hit": false,
      "t": 19047.56,
      "d": 1423.606697916668,
      "v": 58
    },
    {
      "midi": 72,
      "hit": false,
      "t": 19047.56,
      "d": 1423.606697916668,
      "v": 58
    },
    {
      "midi": 36,
      "hit": false,
      "t": 19047.56000000003,
      "d": 208.33268749999843,
      "v": 68
    },
    {
      "midi": 36,
      "hit": false,
      "t": 19166.607249999975,
      "d": 114.08694791666494,
      "v": 78
    },
    {
      "midi": 48,
      "hit": false,
      "t": 19285.654499999968,
      "d": 173.61057291666657,
      "v": 70
    },
    {
      "midi": 48,
      "hit": false,
      "t": 19285.654499999975,
      "d": 114.08694791666494,
      "v": 78
    },
    {
      "midi": 72,
      "hit": false,
      "t": 19285.654499999997,
      "d": 186.01132812500146,
      "v": 71
    },
    {
      "midi": 76,
      "hit": false,
      "t": 19285.654499999997,
      "d": 186.01132812500146,
      "v": 79
    },
    {
      "midi": 79,
      "hit": false,
      "t": 19285.654499999997,
      "d": 186.01132812500146,
      "v": 74
    },
    {
      "midi": 72,
      "hit": false,
      "t": 19285.654499999997,
      "d": 173.61057291666657,
      "v": 99
    },
    {
      "midi": 76,
      "hit": false,
      "t": 19285.654499999997,
      "d": 173.61057291666657,
      "v": 110
    },
    {
      "midi": 79,
      "hit": false,
      "t": 19285.654499999997,
      "d": 173.61057291666657,
      "v": 103
    },
    {
      "midi": 60,
      "hit": false,
      "t": 19285.654499999997,
      "d": 173.61057291666657,
      "v": 99
    },
    {
      "midi": 64,
      "hit": false,
      "t": 19285.654499999997,
      "d": 173.61057291666657,
      "v": 110
    },
    {
      "midi": 67,
      "hit": false,
      "t": 19285.654499999997,
      "d": 173.61057291666657,
      "v": 103
    },
    {
      "midi": 60,
      "hit": false,
      "t": 19285.654500000026,
      "d": 9.920604166665726,
      "v": 103
    },
    {
      "midi": 64,
      "hit": false,
      "t": 19285.654500000026,
      "d": 9.920604166665726,
      "v": 103
    },
    {
      "midi": 36,
      "hit": false,
      "t": 19285.65450000003,
      "d": 208.33268749999843,
      "v": 68
    },
    {
      "midi": 48,
      "hit": false,
      "t": 19404.701749999975,
      "d": 114.08694791666494,
      "v": 78
    },
    {
      "midi": 60,
      "hit": false,
      "t": 19404.701750000026,
      "d": 9.920604166665726,
      "v": 103
    },
    {
      "midi": 64,
      "hit": false,
      "t": 19404.701750000026,
      "d": 9.920604166665726,
      "v": 103
    },
    {
      "midi": 36,
      "hit": false,
      "t": 19523.748999999967,
      "d": 173.61057291666657,
      "v": 64
    },
    {
      "midi": 36,
      "hit": false,
      "t": 19523.748999999974,
      "d": 114.08694791666494,
      "v": 78
    },
    {
      "midi": 72,
      "hit": false,
      "t": 19523.748999999996,
      "d": 173.61057291666657,
      "v": 103
    },
    {
      "midi": 76,
      "hit": false,
      "t": 19523.748999999996,
      "d": 173.61057291666657,
      "v": 105
    },
    {
      "midi": 79,
      "hit": false,
      "t": 19523.748999999996,
      "d": 173.61057291666657,
      "v": 103
    },
    {
      "midi": 60,
      "hit": false,
      "t": 19523.748999999996,
      "d": 173.61057291666657,
      "v": 103
    },
    {
      "midi": 64,
      "hit": false,
      "t": 19523.748999999996,
      "d": 173.61057291666657,
      "v": 105
    },
    {
      "midi": 67,
      "hit": false,
      "t": 19523.748999999996,
      "d": 173.61057291666657,
      "v": 103
    },
    {
      "midi": 72,
      "hit": false,
      "t": 19523.749,
      "d": 186.01132812500146,
      "v": 74
    },
    {
      "midi": 76,
      "hit": false,
      "t": 19523.749,
      "d": 186.01132812500146,
      "v": 75
    },
    {
      "midi": 79,
      "hit": false,
      "t": 19523.749,
      "d": 186.01132812500146,
      "v": 74
    },
    {
      "midi": 36,
      "hit": false,
      "t": 19523.74900000003,
      "d": 208.33268749999843,
      "v": 68
    },
    {
      "midi": 36,
      "hit": false,
      "t": 19642.796249999974,
      "d": 114.08694791666494,
      "v": 78
    },
    {
      "midi": 48,
      "hit": false,
      "t": 19761.843499999966,
      "d": 173.61057291666657,
      "v": 74
    },
    {
      "midi": 48,
      "hit": false,
      "t": 19761.843499999974,
      "d": 114.08694791666494,
      "v": 78
    },
    {
      "midi": 72,
      "hit": false,
      "t": 19761.843499999995,
      "d": 173.61057291666657,
      "v": 99
    },
    {
      "midi": 76,
      "hit": false,
      "t": 19761.843499999995,
      "d": 173.61057291666657,
      "v": 101
    },
    {
      "midi": 79,
      "hit": false,
      "t": 19761.843499999995,
      "d": 173.61057291666657,
      "v": 100
    },
    {
      "midi": 60,
      "hit": false,
      "t": 19761.843499999995,
      "d": 173.61057291666657,
      "v": 99
    },
    {
      "midi": 64,
      "hit": false,
      "t": 19761.843499999995,
      "d": 173.61057291666657,
      "v": 101
    },
    {
      "midi": 67,
      "hit": false,
      "t": 19761.843499999995,
      "d": 173.61057291666657,
      "v": 100
    },
    {
      "midi": 72,
      "hit": false,
      "t": 19761.843500000003,
      "d": 186.01132812500146,
      "v": 71
    },
    {
      "midi": 76,
      "hit": false,
      "t": 19761.843500000003,
      "d": 186.01132812500146,
      "v": 72
    },
    {
      "midi": 79,
      "hit": false,
      "t": 19761.843500000003,
      "d": 186.01132812500146,
      "v": 72
    },
    {
      "midi": 60,
      "hit": false,
      "t": 19761.843500000025,
      "d": 9.920604166665726,
      "v": 103
    },
    {
      "midi": 64,
      "hit": false,
      "t": 19761.843500000025,
      "d": 9.920604166665726,
      "v": 103
    },
    {
      "midi": 36,
      "hit": false,
      "t": 19761.843500000028,
      "d": 208.33268749999843,
      "v": 68
    },
    {
      "midi": 48,
      "hit": false,
      "t": 19880.890749999973,
      "d": 114.08694791666494,
      "v": 78
    },
    {
      "midi": 60,
      "hit": false,
      "t": 19880.890750000024,
      "d": 9.920604166665726,
      "v": 103
    },
    {
      "midi": 64,
      "hit": false,
      "t": 19880.890750000024,
      "d": 9.920604166665726,
      "v": 103
    },
    {
      "midi": 36,
      "hit": false,
      "t": 19999.937999999966,
      "d": 173.61057291666657,
      "v": 50
    },
    {
      "midi": 36,
      "hit": false,
      "t": 19999.937999999973,
      "d": 114.08694791666494,
      "v": 78
    },
    {
      "midi": 36,
      "hit": false,
      "t": 19999.938000000027,
      "d": 208.33268749999843,
      "v": 68
    },
    {
      "midi": 36,
      "hit": false,
      "t": 20118.985249999972,
      "d": 114.08694791666494,
      "v": 78
    },
    {
      "midi": 48,
      "hit": false,
      "t": 20238.032499999965,
      "d": 173.61057291666657,
      "v": 73
    },
    {
      "midi": 48,
      "hit": false,
      "t": 20238.032499999972,
      "d": 114.08694791666494,
      "v": 78
    },
    {
      "midi": 60,
      "hit": false,
      "t": 20238.032500000023,
      "d": 9.920604166665726,
      "v": 103
    },
    {
      "midi": 64,
      "hit": false,
      "t": 20238.032500000023,
      "d": 9.920604166665726,
      "v": 103
    },
    {
      "midi": 36,
      "hit": false,
      "t": 20238.032500000027,
      "d": 208.33268749999843,
      "v": 68
    },
    {
      "midi": 48,
      "hit": false,
      "t": 20357.07974999997,
      "d": 114.08694791666494,
      "v": 78
    },
    {
      "midi": 60,
      "hit": false,
      "t": 20357.079750000023,
      "d": 9.920604166665726,
      "v": 103
    },
    {
      "midi": 64,
      "hit": false,
      "t": 20357.079750000023,
      "d": 9.920604166665726,
      "v": 103
    },
    {
      "midi": 38,
      "hit": false,
      "t": 20476.126999999964,
      "d": 173.61057291666657,
      "v": 66
    },
    {
      "midi": 38,
      "hit": false,
      "t": 20476.12699999997,
      "d": 114.08694791666494,
      "v": 78
    },
    {
      "midi": 74,
      "hit": false,
      "t": 20476.126999999997,
      "d": 272.81661458333474,
      "v": 98
    },
    {
      "midi": 78,
      "hit": false,
      "t": 20476.126999999997,
      "d": 272.81661458333474,
      "v": 106
    },
    {
      "midi": 81,
      "hit": false,
      "t": 20476.126999999997,
      "d": 272.81661458333474,
      "v": 104
    },
    {
      "midi": 62,
      "hit": false,
      "t": 20476.126999999997,
      "d": 272.81661458333474,
      "v": 98
    },
    {
      "midi": 66,
      "hit": false,
      "t": 20476.126999999997,
      "d": 272.81661458333474,
      "v": 106
    },
    {
      "midi": 69,
      "hit": false,
      "t": 20476.126999999997,
      "d": 272.81661458333474,
      "v": 104
    },
    {
      "midi": 74,
      "hit": false,
      "t": 20476.127000000004,
      "d": 272.81661458333474,
      "v": 70
    },
    {
      "midi": 78,
      "hit": false,
      "t": 20476.127000000004,
      "d": 272.81661458333474,
      "v": 76
    },
    {
      "midi": 81,
      "hit": false,
      "t": 20476.127000000004,
      "d": 272.81661458333474,
      "v": 75
    },
    {
      "midi": 66,
      "hit": false,
      "t": 20476.127000000004,
      "d": 471.22869791666744,
      "v": 58
    },
    {
      "midi": 69,
      "hit": false,
      "t": 20476.127000000004,
      "d": 471.22869791666744,
      "v": 58
    },
    {
      "midi": 74,
      "hit": false,
      "t": 20476.127000000004,
      "d": 471.22869791666744,
      "v": 58
    },
    {
      "midi": 38,
      "hit": false,
      "t": 20476.127000000026,
      "d": 208.33268749999843,
      "v": 68
    },
    {
      "midi": 38,
      "hit": false,
      "t": 20595.17424999997,
      "d": 114.08694791666494,
      "v": 78
    },
    {
      "midi": 50,
      "hit": false,
      "t": 20714.221499999963,
      "d": 173.61057291666657,
      "v": 86
    },
    {
      "midi": 50,
      "hit": false,
      "t": 20714.22149999997,
      "d": 114.08694791666494,
      "v": 78
    },
    {
      "midi": 62,
      "hit": false,
      "t": 20714.22150000002,
      "d": 9.920604166665726,
      "v": 103
    },
    {
      "midi": 66,
      "hit": false,
      "t": 20714.22150000002,
      "d": 9.920604166665726,
      "v": 103
    },
    {
      "midi": 38,
      "hit": false,
      "t": 20714.221500000025,
      "d": 208.33268749999843,
      "v": 68
    },
    {
      "midi": 50,
      "hit": false,
      "t": 20833.26874999997,
      "d": 114.08694791666494,
      "v": 78
    },
    {
      "midi": 62,
      "hit": false,
      "t": 20833.26875000002,
      "d": 9.920604166665726,
      "v": 103
    },
    {
      "midi": 66,
      "hit": false,
      "t": 20833.26875000002,
      "d": 9.920604166665726,
      "v": 103
    },
    {
      "midi": 31,
      "hit": false,
      "t": 20952.315999999963,
      "d": 173.61057291666657,
      "v": 76
    },
    {
      "midi": 43,
      "hit": false,
      "t": 20952.31599999997,
      "d": 114.08694791666494,
      "v": 78
    },
    {
      "midi": 74,
      "hit": false,
      "t": 20952.316,
      "d": 272.81661458333474,
      "v": 90
    },
    {
      "midi": 79,
      "hit": false,
      "t": 20952.316,
      "d": 272.81661458333474,
      "v": 100
    },
    {
      "midi": 83,
      "hit": false,
      "t": 20952.316,
      "d": 272.81661458333474,
      "v": 100
    },
    {
      "midi": 62,
      "hit": false,
      "t": 20952.316,
      "d": 272.81661458333474,
      "v": 90
    },
    {
      "midi": 67,
      "hit": false,
      "t": 20952.316,
      "d": 272.81661458333474,
      "v": 100
    },
    {
      "midi": 71,
      "hit": false,
      "t": 20952.316,
      "d": 272.81661458333474,
      "v": 100
    },
    {
      "midi": 74,
      "hit": false,
      "t": 20952.316000000006,
      "d": 272.81661458333474,
      "v": 64
    },
    {
      "midi": 79,
      "hit": false,
      "t": 20952.316000000006,
      "d": 272.81661458333474,
      "v": 72
    },
    {
      "midi": 83,
      "hit": false,
      "t": 20952.316000000006,
      "d": 272.81661458333474,
      "v": 72
    },
    {
      "midi": 62,
      "hit": false,
      "t": 20952.316000000006,
      "d": 1899.7956979166665,
      "v": 58
    },
    {
      "midi": 67,
      "hit": false,
      "t": 20952.316000000006,
      "d": 1899.7956979166665,
      "v": 58
    },
    {
      "midi": 71,
      "hit": false,
      "t": 20952.316000000006,
      "d": 1899.7956979166665,
      "v": 58
    },
    {
      "midi": 83,
      "hit": false,
      "t": 20952.316000000017,
      "d": 2.480151041665522,
      "v": 84
    },
    {
      "midi": 83,
      "hit": false,
      "t": 20952.316000000017,
      "d": 2.480151041665522,
      "v": 110
    },
    {
      "midi": 31,
      "hit": false,
      "t": 20952.316000000024,
      "d": 208.33268749999843,
      "v": 68
    },
    {
      "midi": 43,
      "hit": false,
      "t": 21071.36324999997,
      "d": 114.08694791666494,
      "v": 78
    },
    {
      "midi": 83,
      "hit": false,
      "t": 21071.363250000017,
      "d": 2.480151041665522,
      "v": 91
    },
    {
      "midi": 83,
      "hit": false,
      "t": 21071.363250000017,
      "d": 2.480151041665522,
      "v": 110
    },
    {
      "midi": 43,
      "hit": false,
      "t": 21190.41049999996,
      "d": 173.61057291666657,
      "v": 82
    },
    {
      "midi": 55,
      "hit": false,
      "t": 21190.41049999997,
      "d": 114.08694791666494,
      "v": 78
    },
    {
      "midi": 83,
      "hit": false,
      "t": 21190.410500000016,
      "d": 2.480151041665522,
      "v": 88
    },
    {
      "midi": 83,
      "hit": false,
      "t": 21190.410500000016,
      "d": 2.480151041665522,
      "v": 110
    },
    {
      "midi": 67,
      "hit": false,
      "t": 21190.41050000002,
      "d": 9.920604166665726,
      "v": 103
    },
    {
      "midi": 71,
      "hit": false,
      "t": 21190.41050000002,
      "d": 9.920604166665726,
      "v": 103
    },
    {
      "midi": 31,
      "hit": false,
      "t": 21190.410500000024,
      "d": 208.33268749999843,
      "v": 68
    },
    {
      "midi": 55,
      "hit": false,
      "t": 21309.45774999997,
      "d": 114.08694791666494,
      "v": 78
    },
    {
      "midi": 83,
      "hit": false,
      "t": 21309.457750000016,
      "d": 2.480151041665522,
      "v": 91
    },
    {
      "midi": 83,
      "hit": false,
      "t": 21309.457750000016,
      "d": 2.480151041665522,
      "v": 110
    },
    {
      "midi": 67,
      "hit": false,
      "t": 21309.45775000002,
      "d": 9.920604166665726,
      "v": 103
    },
    {
      "midi": 71,
      "hit": false,
      "t": 21309.45775000002,
      "d": 9.920604166665726,
      "v": 103
    },
    {
      "midi": 31,
      "hit": false,
      "t": 21428.50499999996,
      "d": 173.61057291666657,
      "v": 62
    },
    {
      "midi": 43,
      "hit": false,
      "t": 21428.50499999997,
      "d": 114.08694791666494,
      "v": 78
    },
    {
      "midi": 83,
      "hit": false,
      "t": 21428.505000000016,
      "d": 2.480151041665522,
      "v": 87
    },
    {
      "midi": 83,
      "hit": false,
      "t": 21428.505000000016,
      "d": 2.480151041665522,
      "v": 110
    },
    {
      "midi": 31,
      "hit": false,
      "t": 21428.505000000023,
      "d": 208.33268749999843,
      "v": 68
    },
    {
      "midi": 43,
      "hit": false,
      "t": 21547.552249999968,
      "d": 114.08694791666494,
      "v": 78
    },
    {
      "midi": 83,
      "hit": false,
      "t": 21547.552250000015,
      "d": 2.480151041665522,
      "v": 87
    },
    {
      "midi": 83,
      "hit": false,
      "t": 21547.552250000015,
      "d": 2.480151041665522,
      "v": 110
    },
    {
      "midi": 43,
      "hit": false,
      "t": 21666.59949999996,
      "d": 173.61057291666657,
      "v": 78
    },
    {
      "midi": 55,
      "hit": false,
      "t": 21666.599499999968,
      "d": 114.08694791666494,
      "v": 78
    },
    {
      "midi": 83,
      "hit": false,
      "t": 21666.599500000015,
      "d": 2.480151041665522,
      "v": 89
    },
    {
      "midi": 83,
      "hit": false,
      "t": 21666.599500000015,
      "d": 2.480151041665522,
      "v": 110
    },
    {
      "midi": 67,
      "hit": false,
      "t": 21666.59950000002,
      "d": 9.920604166665726,
      "v": 103
    },
    {
      "midi": 71,
      "hit": false,
      "t": 21666.59950000002,
      "d": 9.920604166665726,
      "v": 103
    },
    {
      "midi": 31,
      "hit": false,
      "t": 21666.599500000022,
      "d": 208.33268749999843,
      "v": 68
    },
    {
      "midi": 55,
      "hit": false,
      "t": 21785.646749999967,
      "d": 114.08694791666494,
      "v": 78
    },
    {
      "midi": 83,
      "hit": false,
      "t": 21785.646750000014,
      "d": 2.480151041665522,
      "v": 91
    },
    {
      "midi": 83,
      "hit": false,
      "t": 21785.646750000014,
      "d": 2.480151041665522,
      "v": 110
    },
    {
      "midi": 67,
      "hit": false,
      "t": 21785.646750000018,
      "d": 9.920604166665726,
      "v": 103
    },
    {
      "midi": 71,
      "hit": false,
      "t": 21785.646750000018,
      "d": 9.920604166665726,
      "v": 103
    },
    {
      "midi": 31,
      "hit": false,
      "t": 21904.69399999996,
      "d": 173.61057291666657,
      "v": 67
    },
    {
      "midi": 43,
      "hit": false,
      "t": 21904.693999999967,
      "d": 114.08694791666494,
      "v": 78
    },
    {
      "midi": 83,
      "hit": false,
      "t": 21904.694000000014,
      "d": 2.480151041665522,
      "v": 91
    },
    {
      "midi": 83,
      "hit": false,
      "t": 21904.694000000014,
      "d": 2.480151041665522,
      "v": 110
    },
    {
      "midi": 31,
      "hit": false,
      "t": 21904.69400000002,
      "d": 208.33268749999843,
      "v": 68
    },
    {
      "midi": 43,
      "hit": false,
      "t": 22023.741249999966,
      "d": 114.08694791666494,
      "v": 78
    },
    {
      "midi": 83,
      "hit": false,
      "t": 22023.741250000014,
      "d": 2.480151041665522,
      "v": 92
    },
    {
      "midi": 83,
      "hit": false,
      "t": 22023.741250000014,
      "d": 2.480151041665522,
      "v": 110
    },
    {
      "midi": 43,
      "hit": false,
      "t": 22142.78849999996,
      "d": 173.61057291666657,
      "v": 70
    },
    {
      "midi": 55,
      "hit": false,
      "t": 22142.788499999966,
      "d": 114.08694791666494,
      "v": 78
    },
    {
      "midi": 83,
      "hit": false,
      "t": 22142.788500000013,
      "d": 2.480151041665522,
      "v": 96
    },
    {
      "midi": 83,
      "hit": false,
      "t": 22142.788500000013,
      "d": 2.480151041665522,
      "v": 110
    },
    {
      "midi": 67,
      "hit": false,
      "t": 22142.788500000017,
      "d": 9.920604166665726,
      "v": 103
    },
    {
      "midi": 71,
      "hit": false,
      "t": 22142.788500000017,
      "d": 9.920604166665726,
      "v": 103
    },
    {
      "midi": 31,
      "hit": false,
      "t": 22142.78850000002,
      "d": 208.33268749999843,
      "v": 68
    },
    {
      "midi": 55,
      "hit": false,
      "t": 22261.835749999966,
      "d": 114.08694791666494,
      "v": 78
    },
    {
      "midi": 83,
      "hit": false,
      "t": 22261.835750000013,
      "d": 2.480151041665522,
      "v": 92
    },
    {
      "midi": 83,
      "hit": false,
      "t": 22261.835750000013,
      "d": 2.480151041665522,
      "v": 110
    },
    {
      "midi": 67,
      "hit": false,
      "t": 22261.835750000017,
      "d": 9.920604166665726,
      "v": 103
    },
    {
      "midi": 71,
      "hit": false,
      "t": 22261.835750000017,
      "d": 9.920604166665726,
      "v": 103
    },
    {
      "midi": 31,
      "hit": false,
      "t": 22380.882999999958,
      "d": 173.61057291666657,
      "v": 56
    },
    {
      "midi": 43,
      "hit": false,
      "t": 22380.882999999965,
      "d": 114.08694791666494,
      "v": 78
    },
    {
      "midi": 83,
      "hit": false,
      "t": 22380.883000000013,
      "d": 2.480151041665522,
      "v": 96
    },
    {
      "midi": 83,
      "hit": false,
      "t": 22380.883000000013,
      "d": 2.480151041665522,
      "v": 110
    },
    {
      "midi": 31,
      "hit": false,
      "t": 22380.88300000002,
      "d": 208.33268749999843,
      "v": 68
    },
    {
      "midi": 43,
      "hit": false,
      "t": 22499.930249999965,
      "d": 114.08694791666494,
      "v": 78
    },
    {
      "midi": 83,
      "hit": false,
      "t": 22499.930250000012,
      "d": 2.480151041665522,
      "v": 96
    },
    {
      "midi": 83,
      "hit": false,
      "t": 22499.930250000012,
      "d": 2.480151041665522,
      "v": 110
    },
    {
      "midi": 43,
      "hit": false,
      "t": 22618.977499999957,
      "d": 173.61057291666657,
      "v": 70
    },
    {
      "midi": 55,
      "hit": false,
      "t": 22618.977499999964,
      "d": 114.08694791666494,
      "v": 78
    },
    {
      "midi": 83,
      "hit": false,
      "t": 22618.97750000001,
      "d": 2.480151041665522,
      "v": 98
    },
    {
      "midi": 83,
      "hit": false,
      "t": 22618.97750000001,
      "d": 2.480151041665522,
      "v": 110
    },
    {
      "midi": 67,
      "hit": false,
      "t": 22618.977500000015,
      "d": 9.920604166665726,
      "v": 103
    },
    {
      "midi": 71,
      "hit": false,
      "t": 22618.977500000015,
      "d": 9.920604166665726,
      "v": 103
    },
    {
      "midi": 31,
      "hit": false,
      "t": 22618.97750000002,
      "d": 208.33268749999843,
      "v": 68
    },
    {
      "midi": 55,
      "hit": false,
      "t": 22738.024749999964,
      "d": 114.08694791666494,
      "v": 78
    },
    {
      "midi": 83,
      "hit": false,
      "t": 22738.02475000001,
      "d": 2.480151041665522,
      "v": 101
    },
    {
      "midi": 83,
      "hit": false,
      "t": 22738.02475000001,
      "d": 2.480151041665522,
      "v": 110
    },
    {
      "midi": 67,
      "hit": false,
      "t": 22738.024750000015,
      "d": 9.920604166665726,
      "v": 103
    },
    {
      "midi": 71,
      "hit": false,
      "t": 22738.024750000015,
      "d": 9.920604166665726,
      "v": 103
    },
    {
      "midi": 38,
      "hit": false,
      "t": 22857.071999999956,
      "d": 173.61057291666657,
      "v": 70
    },
    {
      "midi": 38,
      "hit": false,
      "t": 22857.071999999964,
      "d": 114.08694791666494,
      "v": 78
    },
    {
      "midi": 74,
      "hit": false,
      "t": 22857.072,
      "d": 173.61057291666657,
      "v": 76
    },
    {
      "midi": 78,
      "hit": false,
      "t": 22857.072,
      "d": 173.61057291666657,
      "v": 80
    },
    {
      "midi": 81,
      "hit": false,
      "t": 22857.072,
      "d": 173.61057291666657,
      "v": 70
    },
    {
      "midi": 62,
      "hit": false,
      "t": 22857.072,
      "d": 173.61057291666657,
      "v": 76
    },
    {
      "midi": 66,
      "hit": false,
      "t": 22857.072,
      "d": 173.61057291666657,
      "v": 80
    },
    {
      "midi": 69,
      "hit": false,
      "t": 22857.072,
      "d": 173.61057291666657,
      "v": 70
    },
    {
      "midi": 74,
      "hit": false,
      "t": 22857.072000000007,
      "d": 186.01132812500146,
      "v": 54
    },
    {
      "midi": 78,
      "hit": false,
      "t": 22857.072000000007,
      "d": 186.01132812500146,
      "v": 57
    },
    {
      "midi": 81,
      "hit": false,
      "t": 22857.072000000007,
      "d": 186.01132812500146,
      "v": 49
    },
    {
      "midi": 62,
      "hit": false,
      "t": 22857.072000000007,
      "d": 1899.7956979166665,
      "v": 58
    },
    {
      "midi": 66,
      "hit": false,
      "t": 22857.072000000007,
      "d": 1899.7956979166665,
      "v": 58
    },
    {
      "midi": 69,
      "hit": false,
      "t": 22857.072000000007,
      "d": 1899.7956979166665,
      "v": 58
    },
    {
      "midi": 38,
      "hit": false,
      "t": 22857.07200000002,
      "d": 208.33268749999843,
      "v": 68
    },
    {
      "midi": 38,
      "hit": false,
      "t": 22976.119249999963,
      "d": 114.08694791666494,
      "v": 78
    },
    {
      "midi": 50,
      "hit": false,
      "t": 23095.166499999956,
      "d": 173.61057291666657,
      "v": 62
    },
    {
      "midi": 50,
      "hit": false,
      "t": 23095.166499999963,
      "d": 114.08694791666494,
      "v": 78
    },
    {
      "midi": 74,
      "hit": false,
      "t": 23095.1665,
      "d": 173.61057291666657,
      "v": 91
    },
    {
      "midi": 78,
      "hit": false,
      "t": 23095.1665,
      "d": 173.61057291666657,
      "v": 95
    },
    {
      "midi": 81,
      "hit": false,
      "t": 23095.1665,
      "d": 173.61057291666657,
      "v": 90
    },
    {
      "midi": 62,
      "hit": false,
      "t": 23095.1665,
      "d": 173.61057291666657,
      "v": 91
    },
    {
      "midi": 66,
      "hit": false,
      "t": 23095.1665,
      "d": 173.61057291666657,
      "v": 95
    },
    {
      "midi": 69,
      "hit": false,
      "t": 23095.1665,
      "d": 173.61057291666657,
      "v": 90
    },
    {
      "midi": 74,
      "hit": false,
      "t": 23095.16650000001,
      "d": 186.01132812500146,
      "v": 65
    },
    {
      "midi": 78,
      "hit": false,
      "t": 23095.16650000001,
      "d": 186.01132812500146,
      "v": 68
    },
    {
      "midi": 81,
      "hit": false,
      "t": 23095.16650000001,
      "d": 186.01132812500146,
      "v": 64
    },
    {
      "midi": 62,
      "hit": false,
      "t": 23095.166500000014,
      "d": 9.920604166665726,
      "v": 103
    },
    {
      "midi": 66,
      "hit": false,
      "t": 23095.166500000014,
      "d": 9.920604166665726,
      "v": 103
    },
    {
      "midi": 38,
      "hit": false,
      "t": 23095.166500000018,
      "d": 208.33268749999843,
      "v": 68
    },
    {
      "midi": 50,
      "hit": false,
      "t": 23214.213749999963,
      "d": 114.08694791666494,
      "v": 78
    },
    {
      "midi": 62,
      "hit": false,
      "t": 23214.213750000014,
      "d": 9.920604166665726,
      "v": 103
    },
    {
      "midi": 66,
      "hit": false,
      "t": 23214.213750000014,
      "d": 9.920604166665726,
      "v": 103
    },
    {
      "midi": 38,
      "hit": false,
      "t": 23333.260999999955,
      "d": 173.61057291666657,
      "v": 66
    },
    {
      "midi": 38,
      "hit": false,
      "t": 23333.260999999962,
      "d": 114.08694791666494,
      "v": 78
    },
    {
      "midi": 74,
      "hit": false,
      "t": 23333.261,
      "d": 173.61057291666657,
      "v": 99
    },
    {
      "midi": 78,
      "hit": false,
      "t": 23333.261,
      "d": 173.61057291666657,
      "v": 101
    },
    {
      "midi": 81,
      "hit": false,
      "t": 23333.261,
      "d": 173.61057291666657,
      "v": 100
    },
    {
      "midi": 62,
      "hit": false,
      "t": 23333.261,
      "d": 173.61057291666657,
      "v": 99
    },
    {
      "midi": 66,
      "hit": false,
      "t": 23333.261,
      "d": 173.61057291666657,
      "v": 101
    },
    {
      "midi": 69,
      "hit": false,
      "t": 23333.261,
      "d": 173.61057291666657,
      "v": 100
    },
    {
      "midi": 74,
      "hit": false,
      "t": 23333.261000000013,
      "d": 186.01132812500146,
      "v": 71
    },
    {
      "midi": 78,
      "hit": false,
      "t": 23333.261000000013,
      "d": 186.01132812500146,
      "v": 72
    },
    {
      "midi": 81,
      "hit": false,
      "t": 23333.261000000013,
      "d": 186.01132812500146,
      "v": 72
    },
    {
      "midi": 38,
      "hit": false,
      "t": 23333.261000000017,
      "d": 208.33268749999843,
      "v": 68
    },
    {
      "midi": 38,
      "hit": false,
      "t": 23452.308249999962,
      "d": 114.08694791666494,
      "v": 78
    },
    {
      "midi": 50,
      "hit": false,
      "t": 23571.355499999954,
      "d": 173.61057291666657,
      "v": 67
    },
    {
      "midi": 50,
      "hit": false,
      "t": 23571.35549999996,
      "d": 114.08694791666494,
      "v": 78
    },
    {
      "midi": 74,
      "hit": false,
      "t": 23571.355499999998,
      "d": 173.61057291666657,
      "v": 98
    },
    {
      "midi": 78,
      "hit": false,
      "t": 23571.355499999998,
      "d": 173.61057291666657,
      "v": 103
    },
    {
      "midi": 81,
      "hit": false,
      "t": 23571.355499999998,
      "d": 173.61057291666657,
      "v": 96
    },
    {
      "midi": 62,
      "hit": false,
      "t": 23571.355499999998,
      "d": 173.61057291666657,
      "v": 98
    },
    {
      "midi": 66,
      "hit": false,
      "t": 23571.355499999998,
      "d": 173.61057291666657,
      "v": 103
    },
    {
      "midi": 69,
      "hit": false,
      "t": 23571.355499999998,
      "d": 173.61057291666657,
      "v": 96
    },
    {
      "midi": 62,
      "hit": false,
      "t": 23571.355500000012,
      "d": 9.920604166665726,
      "v": 103
    },
    {
      "midi": 66,
      "hit": false,
      "t": 23571.355500000012,
      "d": 9.920604166665726,
      "v": 103
    },
    {
      "midi": 38,
      "hit": false,
      "t": 23571.355500000016,
      "d": 208.33268749999843,
      "v": 68
    },
    {
      "midi": 74,
      "hit": false,
      "t": 23571.355500000016,
      "d": 186.01132812500146,
      "v": 70
    },
    {
      "midi": 78,
      "hit": false,
      "t": 23571.355500000016,
      "d": 186.01132812500146,
      "v": 74
    },
    {
      "midi": 81,
      "hit": false,
      "t": 23571.355500000016,
      "d": 186.01132812500146,
      "v": 69
    },
    {
      "midi": 50,
      "hit": false,
      "t": 23690.40274999996,
      "d": 114.08694791666494,
      "v": 78
    },
    {
      "midi": 62,
      "hit": false,
      "t": 23690.402750000012,
      "d": 9.920604166665726,
      "v": 103
    },
    {
      "midi": 66,
      "hit": false,
      "t": 23690.402750000012,
      "d": 9.920604166665726,
      "v": 103
    },
    {
      "midi": 38,
      "hit": false,
      "t": 23809.449999999953,
      "d": 173.61057291666657,
      "v": 64
    },
    {
      "midi": 38,
      "hit": false,
      "t": 23809.44999999996,
      "d": 114.08694791666494,
      "v": 78
    },
    {
      "midi": 38,
      "hit": false,
      "t": 23809.450000000015,
      "d": 208.33268749999843,
      "v": 68
    },
    {
      "midi": 38,
      "hit": false,
      "t": 23928.49724999996,
      "d": 114.08694791666494,
      "v": 78
    },
    {
      "midi": 50,
      "hit": false,
      "t": 24047.544499999953,
      "d": 173.61057291666657,
      "v": 66
    },
    {
      "midi": 50,
      "hit": false,
      "t": 24047.54449999996,
      "d": 114.08694791666494,
      "v": 78
    },
    {
      "midi": 62,
      "hit": false,
      "t": 24047.54450000001,
      "d": 9.920604166665726,
      "v": 103
    },
    {
      "midi": 66,
      "hit": false,
      "t": 24047.54450000001,
      "d": 9.920604166665726,
      "v": 103
    },
    {
      "midi": 38,
      "hit": false,
      "t": 24047.544500000015,
      "d": 208.33268749999843,
      "v": 68
    },
    {
      "midi": 50,
      "hit": false,
      "t": 24166.59174999996,
      "d": 114.08694791666494,
      "v": 78
    },
    {
      "midi": 62,
      "hit": false,
      "t": 24166.59175000001,
      "d": 9.920604166665726,
      "v": 103
    },
    {
      "midi": 66,
      "hit": false,
      "t": 24166.59175000001,
      "d": 9.920604166665726,
      "v": 103
    },
    {
      "midi": 38,
      "hit": false,
      "t": 24285.638999999952,
      "d": 173.61057291666657,
      "v": 62
    },
    {
      "midi": 38,
      "hit": false,
      "t": 24285.63899999996,
      "d": 114.08694791666494,
      "v": 78
    },
    {
      "midi": 74,
      "hit": false,
      "t": 24285.639,
      "d": 272.81661458333474,
      "v": 95
    },
    {
      "midi": 78,
      "hit": false,
      "t": 24285.639,
      "d": 272.81661458333474,
      "v": 94
    },
    {
      "midi": 83,
      "hit": false,
      "t": 24285.639,
      "d": 272.81661458333474,
      "v": 100
    },
    {
      "midi": 62,
      "hit": false,
      "t": 24285.639,
      "d": 272.81661458333474,
      "v": 95
    },
    {
      "midi": 66,
      "hit": false,
      "t": 24285.639,
      "d": 272.81661458333474,
      "v": 94
    },
    {
      "midi": 71,
      "hit": false,
      "t": 24285.639,
      "d": 272.81661458333474,
      "v": 100
    },
    {
      "midi": 38,
      "hit": false,
      "t": 24285.639000000014,
      "d": 208.33268749999843,
      "v": 68
    },
    {
      "midi": 74,
      "hit": false,
      "t": 24285.639000000017,
      "d": 272.81661458333474,
      "v": 68
    },
    {
      "midi": 78,
      "hit": false,
      "t": 24285.639000000017,
      "d": 272.81661458333474,
      "v": 67
    },
    {
      "midi": 83,
      "hit": false,
      "t": 24285.639000000017,
      "d": 272.81661458333474,
      "v": 72
    },
    {
      "midi": 38,
      "hit": false,
      "t": 24404.68624999996,
      "d": 114.08694791666494,
      "v": 78
    },
    {
      "midi": 50,
      "hit": false,
      "t": 24523.73349999995,
      "d": 173.61057291666657,
      "v": 73
    },
    {
      "midi": 50,
      "hit": false,
      "t": 24523.73349999996,
      "d": 114.08694791666494,
      "v": 78
    },
    {
      "midi": 62,
      "hit": false,
      "t": 24523.73350000001,
      "d": 9.920604166665726,
      "v": 103
    },
    {
      "midi": 66,
      "hit": false,
      "t": 24523.73350000001,
      "d": 9.920604166665726,
      "v": 103
    },
    {
      "midi": 38,
      "hit": false,
      "t": 24523.733500000013,
      "d": 208.33268749999843,
      "v": 68
    },
    {
      "midi": 50,
      "hit": false,
      "t": 24642.780749999958,
      "d": 114.08694791666494,
      "v": 78
    },
    {
      "midi": 62,
      "hit": false,
      "t": 24642.78075000001,
      "d": 9.920604166665726,
      "v": 103
    },
    {
      "midi": 66,
      "hit": false,
      "t": 24642.78075000001,
      "d": 9.920604166665726,
      "v": 103
    },
    {
      "midi": 40,
      "hit": false,
      "t": 24761.82799999995,
      "d": 173.61057291666657,
      "v": 73
    },
    {
      "midi": 40,
      "hit": false,
      "t": 24761.827999999958,
      "d": 114.08694791666494,
      "v": 78
    },
    {
      "midi": 71,
      "hit": false,
      "t": 24761.828,
      "d": 272.81661458333474,
      "v": 88
    },
    {
      "midi": 76,
      "hit": false,
      "t": 24761.828,
      "d": 272.81661458333474,
      "v": 103
    },
    {
      "midi": 79,
      "hit": false,
      "t": 24761.828,
      "d": 272.81661458333474,
      "v": 105
    },
    {
      "midi": 59,
      "hit": false,
      "t": 24761.828,
      "d": 272.81661458333474,
      "v": 88
    },
    {
      "midi": 64,
      "hit": false,
      "t": 24761.828,
      "d": 272.81661458333474,
      "v": 103
    },
    {
      "midi": 67,
      "hit": false,
      "t": 24761.828,
      "d": 272.81661458333474,
      "v": 105
    },
    {
      "midi": 64,
      "hit": false,
      "t": 24761.82800000001,
      "d": 947.4176979166659,
      "v": 58
    },
    {
      "midi": 67,
      "hit": false,
      "t": 24761.82800000001,
      "d": 1899.7956979166665,
      "v": 58
    },
    {
      "midi": 71,
      "hit": false,
      "t": 24761.82800000001,
      "d": 1899.7956979166665,
      "v": 58
    },
    {
      "midi": 40,
      "hit": false,
      "t": 24761.828000000012,
      "d": 208.33268749999843,
      "v": 68
    },
    {
      "midi": 71,
      "hit": false,
      "t": 24761.82800000002,
      "d": 272.81661458333474,
      "v": 63
    },
    {
      "midi": 76,
      "hit": false,
      "t": 24761.82800000002,
      "d": 272.81661458333474,
      "v": 74
    },
    {
      "midi": 79,
      "hit": false,
      "t": 24761.82800000002,
      "d": 272.81661458333474,
      "v": 75
    },
    {
      "midi": 40,
      "hit": false,
      "t": 24880.875249999957,
      "d": 114.08694791666494,
      "v": 78
    },
    {
      "midi": 52,
      "hit": false,
      "t": 24999.92249999995,
      "d": 173.61057291666657,
      "v": 64
    },
    {
      "midi": 52,
      "hit": false,
      "t": 24999.922499999957,
      "d": 114.08694791666494,
      "v": 78
    },
    {
      "midi": 64,
      "hit": false,
      "t": 24999.922500000008,
      "d": 9.920604166665726,
      "v": 103
    },
    {
      "midi": 67,
      "hit": false,
      "t": 24999.922500000008,
      "d": 9.920604166665726,
      "v": 103
    },
    {
      "midi": 40,
      "hit": false,
      "t": 24999.92250000001,
      "d": 208.33268749999843,
      "v": 68
    },
    {
      "midi": 52,
      "hit": false,
      "t": 25118.969749999957,
      "d": 114.08694791666494,
      "v": 78
    },
    {
      "midi": 64,
      "hit": false,
      "t": 25118.969750000007,
      "d": 9.920604166665726,
      "v": 103
    },
    {
      "midi": 67,
      "hit": false,
      "t": 25118.969750000007,
      "d": 9.920604166665726,
      "v": 103
    },
    {
      "midi": 40,
      "hit": false,
      "t": 25238.01699999995,
      "d": 173.61057291666657,
      "v": 62
    },
    {
      "midi": 40,
      "hit": false,
      "t": 25238.016999999956,
      "d": 114.08694791666494,
      "v": 78
    },
    {
      "midi": 40,
      "hit": false,
      "t": 25238.01700000001,
      "d": 208.33268749999843,
      "v": 68
    },
    {
      "midi": 40,
      "hit": false,
      "t": 25357.064249999956,
      "d": 114.08694791666494,
      "v": 78
    },
    {
      "midi": 52,
      "hit": false,
      "t": 25476.111499999948,
      "d": 173.61057291666657,
      "v": 80
    },
    {
      "midi": 52,
      "hit": false,
      "t": 25476.111499999955,
      "d": 114.08694791666494,
      "v": 78
    },
    {
      "midi": 64,
      "hit": false,
      "t": 25476.111500000006,
      "d": 9.920604166665726,
      "v": 103
    },
    {
      "midi": 67,
      "hit": false,
      "t": 25476.111500000006,
      "d": 9.920604166665726,
      "v": 103
    },
    {
      "midi": 40,
      "hit": false,
      "t": 25476.11150000001,
      "d": 208.33268749999843,
      "v": 68
    },
    {
      "midi": 52,
      "hit": false,
      "t": 25595.158749999955,
      "d": 114.08694791666494,
      "v": 78
    },
    {
      "midi": 64,
      "hit": false,
      "t": 25595.158750000006,
      "d": 9.920604166665726,
      "v": 103
    },
    {
      "midi": 67,
      "hit": false,
      "t": 25595.158750000006,
      "d": 9.920604166665726,
      "v": 103
    },
    {
      "midi": 38,
      "hit": false,
      "t": 25714.205999999947,
      "d": 173.61057291666657,
      "v": 58
    },
    {
      "midi": 38,
      "hit": false,
      "t": 25714.205999999955,
      "d": 114.08694791666494,
      "v": 78
    },
    {
      "midi": 38,
      "hit": false,
      "t": 25714.20600000001,
      "d": 208.33268749999843,
      "v": 68
    },
    {
      "midi": 62,
      "hit": false,
      "t": 25714.20600000001,
      "d": 947.4176979166659,
      "v": 58
    },
    {
      "midi": 38,
      "hit": false,
      "t": 25833.253249999954,
      "d": 114.08694791666494,
      "v": 78
    },
    {
      "midi": 50,
      "hit": false,
      "t": 25952.300499999947,
      "d": 173.61057291666657,
      "v": 72
    },
    {
      "midi": 50,
      "hit": false,
      "t": 25952.300499999954,
      "d": 114.08694791666494,
      "v": 78
    },
    {
      "midi": 62,
      "hit": false,
      "t": 25952.300500000005,
      "d": 9.920604166665726,
      "v": 103
    },
    {
      "midi": 66,
      "hit": false,
      "t": 25952.300500000005,
      "d": 9.920604166665726,
      "v": 103
    },
    {
      "midi": 38,
      "hit": false,
      "t": 25952.30050000001,
      "d": 208.33268749999843,
      "v": 68
    },
    {
      "midi": 50,
      "hit": false,
      "t": 26071.347749999954,
      "d": 114.08694791666494,
      "v": 78
    },
    {
      "midi": 62,
      "hit": false,
      "t": 26071.347750000004,
      "d": 9.920604166665726,
      "v": 103
    },
    {
      "midi": 66,
      "hit": false,
      "t": 26071.347750000004,
      "d": 9.920604166665726,
      "v": 103
    },
    {
      "midi": 38,
      "hit": false,
      "t": 26190.394999999946,
      "d": 173.61057291666657,
      "v": 59
    },
    {
      "midi": 38,
      "hit": false,
      "t": 26190.394999999953,
      "d": 114.08694791666494,
      "v": 78
    },
    {
      "midi": 38,
      "hit": false,
      "t": 26190.395000000008,
      "d": 208.33268749999843,
      "v": 68
    },
    {
      "midi": 38,
      "hit": false,
      "t": 26309.442249999953,
      "d": 114.08694791666494,
      "v": 78
    },
    {
      "midi": 50,
      "hit": false,
      "t": 26428.489499999945,
      "d": 173.61057291666657,
      "v": 70
    },
    {
      "midi": 50,
      "hit": false,
      "t": 26428.489499999952,
      "d": 114.08694791666494,
      "v": 78
    },
    {
      "midi": 62,
      "hit": false,
      "t": 26428.489500000003,
      "d": 9.920604166665726,
      "v": 103
    },
    {
      "midi": 66,
      "hit": false,
      "t": 26428.489500000003,
      "d": 9.920604166665726,
      "v": 103
    },
    {
      "midi": 38,
      "hit": false,
      "t": 26428.489500000007,
      "d": 208.33268749999843,
      "v": 68
    },
    {
      "midi": 50,
      "hit": false,
      "t": 26547.536749999952,
      "d": 114.08694791666494,
      "v": 78
    },
    {
      "midi": 62,
      "hit": false,
      "t": 26547.536750000003,
      "d": 9.920604166665726,
      "v": 103
    },
    {
      "midi": 66,
      "hit": false,
      "t": 26547.536750000003,
      "d": 9.920604166665726,
      "v": 103
    },
    {
      "midi": 36,
      "hit": false,
      "t": 26666.583999999944,
      "d": 173.61057291666657,
      "v": 74
    },
    {
      "midi": 36,
      "hit": false,
      "t": 26666.58399999995,
      "d": 114.08694791666494,
      "v": 78
    },
    {
      "midi": 72,
      "hit": false,
      "t": 26666.584000000003,
      "d": 173.61057291666657,
      "v": 83
    },
    {
      "midi": 76,
      "hit": false,
      "t": 26666.584000000003,
      "d": 173.61057291666657,
      "v": 93
    },
    {
      "midi": 79,
      "hit": false,
      "t": 26666.584000000003,
      "d": 173.61057291666657,
      "v": 94
    },
    {
      "midi": 60,
      "hit": false,
      "t": 26666.584000000003,
      "d": 173.61057291666657,
      "v": 83
    },
    {
      "midi": 64,
      "hit": false,
      "t": 26666.584000000003,
      "d": 173.61057291666657,
      "v": 93
    },
    {
      "midi": 67,
      "hit": false,
      "t": 26666.584000000003,
      "d": 173.61057291666657,
      "v": 94
    },
    {
      "midi": 36,
      "hit": false,
      "t": 26666.584000000006,
      "d": 208.33268749999843,
      "v": 68
    },
    {
      "midi": 64,
      "hit": false,
      "t": 26666.58400000001,
      "d": 1423.606697916668,
      "v": 58
    },
    {
      "midi": 67,
      "hit": false,
      "t": 26666.58400000001,
      "d": 1423.606697916668,
      "v": 58
    },
    {
      "midi": 72,
      "hit": false,
      "t": 26666.58400000001,
      "d": 1423.606697916668,
      "v": 58
    },
    {
      "midi": 72,
      "hit": false,
      "t": 26666.58400000002,
      "d": 186.01132812500146,
      "v": 59
    },
    {
      "midi": 76,
      "hit": false,
      "t": 26666.58400000002,
      "d": 186.01132812500146,
      "v": 66
    },
    {
      "midi": 79,
      "hit": false,
      "t": 26666.58400000002,
      "d": 186.01132812500146,
      "v": 67
    },
    {
      "midi": 36,
      "hit": false,
      "t": 26785.63124999995,
      "d": 114.08694791666494,
      "v": 78
    },
    {
      "midi": 48,
      "hit": false,
      "t": 26904.678499999944,
      "d": 173.61057291666657,
      "v": 70
    },
    {
      "midi": 48,
      "hit": false,
      "t": 26904.67849999995,
      "d": 114.08694791666494,
      "v": 78
    },
    {
      "midi": 72,
      "hit": false,
      "t": 26904.6785,
      "d": 173.61057291666657,
      "v": 99
    },
    {
      "midi": 76,
      "hit": false,
      "t": 26904.6785,
      "d": 173.61057291666657,
      "v": 110
    },
    {
      "midi": 79,
      "hit": false,
      "t": 26904.6785,
      "d": 173.61057291666657,
      "v": 103
    },
    {
      "midi": 60,
      "hit": false,
      "t": 26904.6785,
      "d": 173.61057291666657,
      "v": 99
    },
    {
      "midi": 64,
      "hit": false,
      "t": 26904.6785,
      "d": 173.61057291666657,
      "v": 110
    },
    {
      "midi": 67,
      "hit": false,
      "t": 26904.6785,
      "d": 173.61057291666657,
      "v": 103
    },
    {
      "midi": 60,
      "hit": false,
      "t": 26904.6785,
      "d": 9.920604166665726,
      "v": 103
    },
    {
      "midi": 64,
      "hit": false,
      "t": 26904.6785,
      "d": 9.920604166665726,
      "v": 103
    },
    {
      "midi": 36,
      "hit": false,
      "t": 26904.678500000005,
      "d": 208.33268749999843,
      "v": 68
    },
    {
      "midi": 72,
      "hit": false,
      "t": 26904.678500000024,
      "d": 186.01132812500146,
      "v": 71
    },
    {
      "midi": 76,
      "hit": false,
      "t": 26904.678500000024,
      "d": 186.01132812500146,
      "v": 79
    },
    {
      "midi": 79,
      "hit": false,
      "t": 26904.678500000024,
      "d": 186.01132812500146,
      "v": 74
    },
    {
      "midi": 48,
      "hit": false,
      "t": 27023.72574999995,
      "d": 114.08694791666494,
      "v": 78
    },
    {
      "midi": 60,
      "hit": false,
      "t": 27023.72575,
      "d": 9.920604166665726,
      "v": 103
    },
    {
      "midi": 64,
      "hit": false,
      "t": 27023.72575,
      "d": 9.920604166665726,
      "v": 103
    },
    {
      "midi": 36,
      "hit": false,
      "t": 27142.772999999943,
      "d": 173.61057291666657,
      "v": 64
    },
    {
      "midi": 36,
      "hit": false,
      "t": 27142.77299999995,
      "d": 114.08694791666494,
      "v": 78
    },
    {
      "midi": 72,
      "hit": false,
      "t": 27142.773,
      "d": 173.61057291666657,
      "v": 103
    },
    {
      "midi": 76,
      "hit": false,
      "t": 27142.773,
      "d": 173.61057291666657,
      "v": 105
    },
    {
      "midi": 79,
      "hit": false,
      "t": 27142.773,
      "d": 173.61057291666657,
      "v": 103
    },
    {
      "midi": 60,
      "hit": false,
      "t": 27142.773,
      "d": 173.61057291666657,
      "v": 103
    },
    {
      "midi": 64,
      "hit": false,
      "t": 27142.773,
      "d": 173.61057291666657,
      "v": 105
    },
    {
      "midi": 67,
      "hit": false,
      "t": 27142.773,
      "d": 173.61057291666657,
      "v": 103
    },
    {
      "midi": 36,
      "hit": false,
      "t": 27142.773000000005,
      "d": 208.33268749999843,
      "v": 68
    },
    {
      "midi": 72,
      "hit": false,
      "t": 27142.773000000027,
      "d": 186.01132812500146,
      "v": 74
    },
    {
      "midi": 76,
      "hit": false,
      "t": 27142.773000000027,
      "d": 186.01132812500146,
      "v": 75
    },
    {
      "midi": 79,
      "hit": false,
      "t": 27142.773000000027,
      "d": 186.01132812500146,
      "v": 74
    },
    {
      "midi": 36,
      "hit": false,
      "t": 27261.82024999995,
      "d": 114.08694791666494,
      "v": 78
    },
    {
      "midi": 48,
      "hit": false,
      "t": 27380.867499999942,
      "d": 173.61057291666657,
      "v": 74
    },
    {
      "midi": 48,
      "hit": false,
      "t": 27380.86749999995,
      "d": 114.08694791666494,
      "v": 78
    },
    {
      "midi": 72,
      "hit": false,
      "t": 27380.8675,
      "d": 173.61057291666657,
      "v": 99
    },
    {
      "midi": 76,
      "hit": false,
      "t": 27380.8675,
      "d": 173.61057291666657,
      "v": 101
    },
    {
      "midi": 79,
      "hit": false,
      "t": 27380.8675,
      "d": 173.61057291666657,
      "v": 100
    },
    {
      "midi": 60,
      "hit": false,
      "t": 27380.8675,
      "d": 173.61057291666657,
      "v": 99
    },
    {
      "midi": 64,
      "hit": false,
      "t": 27380.8675,
      "d": 173.61057291666657,
      "v": 101
    },
    {
      "midi": 67,
      "hit": false,
      "t": 27380.8675,
      "d": 173.61057291666657,
      "v": 100
    },
    {
      "midi": 60,
      "hit": false,
      "t": 27380.8675,
      "d": 9.920604166665726,
      "v": 103
    },
    {
      "midi": 64,
      "hit": false,
      "t": 27380.8675,
      "d": 9.920604166665726,
      "v": 103
    },
    {
      "midi": 36,
      "hit": false,
      "t": 27380.867500000004,
      "d": 208.33268749999843,
      "v": 68
    },
    {
      "midi": 72,
      "hit": false,
      "t": 27380.86750000003,
      "d": 186.01132812500146,
      "v": 71
    },
    {
      "midi": 76,
      "hit": false,
      "t": 27380.86750000003,
      "d": 186.01132812500146,
      "v": 72
    },
    {
      "midi": 79,
      "hit": false,
      "t": 27380.86750000003,
      "d": 186.01132812500146,
      "v": 72
    },
    {
      "midi": 48,
      "hit": false,
      "t": 27499.91474999995,
      "d": 114.08694791666494,
      "v": 78
    },
    {
      "midi": 60,
      "hit": false,
      "t": 27499.91475,
      "d": 9.920604166665726,
      "v": 103
    },
    {
      "midi": 64,
      "hit": false,
      "t": 27499.91475,
      "d": 9.920604166665726,
      "v": 103
    },
    {
      "midi": 36,
      "hit": false,
      "t": 27618.96199999994,
      "d": 173.61057291666657,
      "v": 50
    },
    {
      "midi": 36,
      "hit": false,
      "t": 27618.96199999995,
      "d": 114.08694791666494,
      "v": 78
    },
    {
      "midi": 36,
      "hit": false,
      "t": 27618.962000000003,
      "d": 208.33268749999843,
      "v": 68
    },
    {
      "midi": 36,
      "hit": false,
      "t": 27738.00924999995,
      "d": 114.08694791666494,
      "v": 78
    },
    {
      "midi": 48,
      "hit": false,
      "t": 27857.05649999994,
      "d": 173.61057291666657,
      "v": 73
    },
    {
      "midi": 48,
      "hit": false,
      "t": 27857.056499999948,
      "d": 114.08694791666494,
      "v": 78
    },
    {
      "midi": 60,
      "hit": false,
      "t": 27857.0565,
      "d": 9.920604166665726,
      "v": 103
    },
    {
      "midi": 64,
      "hit": false,
      "t": 27857.0565,
      "d": 9.920604166665726,
      "v": 103
    },
    {
      "midi": 36,
      "hit": false,
      "t": 27857.056500000002,
      "d": 208.33268749999843,
      "v": 68
    },
    {
      "midi": 48,
      "hit": false,
      "t": 27976.103749999947,
      "d": 114.08694791666494,
      "v": 78
    },
    {
      "midi": 60,
      "hit": false,
      "t": 27976.10375,
      "d": 9.920604166665726,
      "v": 103
    },
    {
      "midi": 64,
      "hit": false,
      "t": 27976.10375,
      "d": 9.920604166665726,
      "v": 103
    },
    {
      "midi": 38,
      "hit": false,
      "t": 28095.15099999994,
      "d": 173.61057291666657,
      "v": 66
    },
    {
      "midi": 38,
      "hit": false,
      "t": 28095.150999999947,
      "d": 114.08694791666494,
      "v": 78
    },
    {
      "midi": 38,
      "hit": false,
      "t": 28095.151,
      "d": 208.33268749999843,
      "v": 68
    },
    {
      "midi": 74,
      "hit": false,
      "t": 28095.151,
      "d": 272.81661458333474,
      "v": 98
    },
    {
      "midi": 78,
      "hit": false,
      "t": 28095.151,
      "d": 272.81661458333474,
      "v": 106
    },
    {
      "midi": 81,
      "hit": false,
      "t": 28095.151,
      "d": 272.81661458333474,
      "v": 104
    },
    {
      "midi": 62,
      "hit": false,
      "t": 28095.151,
      "d": 272.81661458333474,
      "v": 98
    },
    {
      "midi": 66,
      "hit": false,
      "t": 28095.151,
      "d": 272.81661458333474,
      "v": 106
    },
    {
      "midi": 69,
      "hit": false,
      "t": 28095.151,
      "d": 272.81661458333474,
      "v": 104
    },
    {
      "midi": 66,
      "hit": false,
      "t": 28095.151000000013,
      "d": 471.22869791666744,
      "v": 58
    },
    {
      "midi": 69,
      "hit": false,
      "t": 28095.151000000013,
      "d": 471.22869791666744,
      "v": 58
    },
    {
      "midi": 74,
      "hit": false,
      "t": 28095.151000000013,
      "d": 471.22869791666744,
      "v": 58
    },
    {
      "midi": 74,
      "hit": false,
      "t": 28095.15100000003,
      "d": 272.81661458333474,
      "v": 70
    },
    {
      "midi": 78,
      "hit": false,
      "t": 28095.15100000003,
      "d": 272.81661458333474,
      "v": 76
    },
    {
      "midi": 81,
      "hit": false,
      "t": 28095.15100000003,
      "d": 272.81661458333474,
      "v": 75
    },
    {
      "midi": 38,
      "hit": false,
      "t": 28214.198249999947,
      "d": 114.08694791666494,
      "v": 78
    },
    {
      "midi": 50,
      "hit": false,
      "t": 28333.24549999994,
      "d": 173.61057291666657,
      "v": 86
    },
    {
      "midi": 50,
      "hit": false,
      "t": 28333.245499999946,
      "d": 114.08694791666494,
      "v": 78
    },
    {
      "midi": 62,
      "hit": false,
      "t": 28333.245499999997,
      "d": 9.920604166665726,
      "v": 103
    },
    {
      "midi": 66,
      "hit": false,
      "t": 28333.245499999997,
      "d": 9.920604166665726,
      "v": 103
    },
    {
      "midi": 38,
      "hit": false,
      "t": 28333.2455,
      "d": 208.33268749999843,
      "v": 68
    },
    {
      "midi": 50,
      "hit": false,
      "t": 28452.292749999946,
      "d": 114.08694791666494,
      "v": 78
    },
    {
      "midi": 62,
      "hit": false,
      "t": 28452.292749999997,
      "d": 9.920604166665726,
      "v": 103
    },
    {
      "midi": 66,
      "hit": false,
      "t": 28452.292749999997,
      "d": 9.920604166665726,
      "v": 103
    },
    {
      "midi": 36,
      "hit": false,
      "t": 28571.33999999994,
      "d": 173.61057291666657,
      "v": 74
    },
    {
      "midi": 36,
      "hit": false,
      "t": 28571.339999999946,
      "d": 114.08694791666494,
      "v": 78
    },
    {
      "midi": 36,
      "hit": false,
      "t": 28571.34,
      "d": 208.33268749999843,
      "v": 68
    },
    {
      "midi": 72,
      "hit": false,
      "t": 28571.340000000004,
      "d": 173.61057291666657,
      "v": 83
    },
    {
      "midi": 76,
      "hit": false,
      "t": 28571.340000000004,
      "d": 173.61057291666657,
      "v": 93
    },
    {
      "midi": 79,
      "hit": false,
      "t": 28571.340000000004,
      "d": 173.61057291666657,
      "v": 94
    },
    {
      "midi": 60,
      "hit": false,
      "t": 28571.340000000004,
      "d": 173.61057291666657,
      "v": 83
    },
    {
      "midi": 64,
      "hit": false,
      "t": 28571.340000000004,
      "d": 173.61057291666657,
      "v": 93
    },
    {
      "midi": 67,
      "hit": false,
      "t": 28571.340000000004,
      "d": 173.61057291666657,
      "v": 94
    },
    {
      "midi": 64,
      "hit": false,
      "t": 28571.340000000015,
      "d": 1423.606697916668,
      "v": 58
    },
    {
      "midi": 67,
      "hit": false,
      "t": 28571.340000000015,
      "d": 1423.606697916668,
      "v": 58
    },
    {
      "midi": 72,
      "hit": false,
      "t": 28571.340000000015,
      "d": 1423.606697916668,
      "v": 58
    },
    {
      "midi": 72,
      "hit": false,
      "t": 28571.340000000033,
      "d": 186.01132812500146,
      "v": 59
    },
    {
      "midi": 76,
      "hit": false,
      "t": 28571.340000000033,
      "d": 186.01132812500146,
      "v": 66
    },
    {
      "midi": 79,
      "hit": false,
      "t": 28571.340000000033,
      "d": 186.01132812500146,
      "v": 67
    },
    {
      "midi": 36,
      "hit": false,
      "t": 28690.387249999945,
      "d": 114.08694791666494,
      "v": 78
    },
    {
      "midi": 48,
      "hit": false,
      "t": 28809.434499999938,
      "d": 173.61057291666657,
      "v": 70
    },
    {
      "midi": 48,
      "hit": false,
      "t": 28809.434499999945,
      "d": 114.08694791666494,
      "v": 78
    },
    {
      "midi": 60,
      "hit": false,
      "t": 28809.434499999996,
      "d": 9.920604166665726,
      "v": 103
    },
    {
      "midi": 64,
      "hit": false,
      "t": 28809.434499999996,
      "d": 9.920604166665726,
      "v": 103
    },
    {
      "midi": 36,
      "hit": false,
      "t": 28809.4345,
      "d": 208.33268749999843,
      "v": 68
    },
    {
      "midi": 72,
      "hit": false,
      "t": 28809.434500000003,
      "d": 173.61057291666657,
      "v": 99
    },
    {
      "midi": 76,
      "hit": false,
      "t": 28809.434500000003,
      "d": 173.61057291666657,
      "v": 110
    },
    {
      "midi": 79,
      "hit": false,
      "t": 28809.434500000003,
      "d": 173.61057291666657,
      "v": 103
    },
    {
      "midi": 60,
      "hit": false,
      "t": 28809.434500000003,
      "d": 173.61057291666657,
      "v": 99
    },
    {
      "midi": 64,
      "hit": false,
      "t": 28809.434500000003,
      "d": 173.61057291666657,
      "v": 110
    },
    {
      "midi": 67,
      "hit": false,
      "t": 28809.434500000003,
      "d": 173.61057291666657,
      "v": 103
    },
    {
      "midi": 72,
      "hit": false,
      "t": 28809.434500000036,
      "d": 186.01132812500146,
      "v": 71
    },
    {
      "midi": 76,
      "hit": false,
      "t": 28809.434500000036,
      "d": 186.01132812500146,
      "v": 79
    },
    {
      "midi": 79,
      "hit": false,
      "t": 28809.434500000036,
      "d": 186.01132812500146,
      "v": 74
    },
    {
      "midi": 48,
      "hit": false,
      "t": 28928.481749999944,
      "d": 114.08694791666494,
      "v": 78
    },
    {
      "midi": 60,
      "hit": false,
      "t": 28928.481749999995,
      "d": 9.920604166665726,
      "v": 103
    },
    {
      "midi": 64,
      "hit": false,
      "t": 28928.481749999995,
      "d": 9.920604166665726,
      "v": 103
    },
    {
      "midi": 36,
      "hit": false,
      "t": 29047.528999999937,
      "d": 173.61057291666657,
      "v": 64
    },
    {
      "midi": 36,
      "hit": false,
      "t": 29047.528999999944,
      "d": 114.08694791666494,
      "v": 78
    },
    {
      "midi": 36,
      "hit": false,
      "t": 29047.529,
      "d": 208.33268749999843,
      "v": 68
    },
    {
      "midi": 72,
      "hit": false,
      "t": 29047.529000000002,
      "d": 173.61057291666657,
      "v": 103
    },
    {
      "midi": 76,
      "hit": false,
      "t": 29047.529000000002,
      "d": 173.61057291666657,
      "v": 105
    },
    {
      "midi": 79,
      "hit": false,
      "t": 29047.529000000002,
      "d": 173.61057291666657,
      "v": 103
    },
    {
      "midi": 60,
      "hit": false,
      "t": 29047.529000000002,
      "d": 173.61057291666657,
      "v": 103
    },
    {
      "midi": 64,
      "hit": false,
      "t": 29047.529000000002,
      "d": 173.61057291666657,
      "v": 105
    },
    {
      "midi": 67,
      "hit": false,
      "t": 29047.529000000002,
      "d": 173.61057291666657,
      "v": 103
    },
    {
      "midi": 72,
      "hit": false,
      "t": 29047.52900000004,
      "d": 186.01132812500146,
      "v": 74
    },
    {
      "midi": 76,
      "hit": false,
      "t": 29047.52900000004,
      "d": 186.01132812500146,
      "v": 75
    },
    {
      "midi": 79,
      "hit": false,
      "t": 29047.52900000004,
      "d": 186.01132812500146,
      "v": 74
    },
    {
      "midi": 36,
      "hit": false,
      "t": 29166.576249999944,
      "d": 114.08694791666494,
      "v": 78
    },
    {
      "midi": 48,
      "hit": false,
      "t": 29285.623499999936,
      "d": 173.61057291666657,
      "v": 74
    },
    {
      "midi": 48,
      "hit": false,
      "t": 29285.623499999943,
      "d": 114.08694791666494,
      "v": 78
    },
    {
      "midi": 60,
      "hit": false,
      "t": 29285.623499999994,
      "d": 9.920604166665726,
      "v": 103
    },
    {
      "midi": 64,
      "hit": false,
      "t": 29285.623499999994,
      "d": 9.920604166665726,
      "v": 103
    },
    {
      "midi": 36,
      "hit": false,
      "t": 29285.623499999998,
      "d": 208.33268749999843,
      "v": 68
    },
    {
      "midi": 72,
      "hit": false,
      "t": 29285.6235,
      "d": 173.61057291666657,
      "v": 99
    },
    {
      "midi": 76,
      "hit": false,
      "t": 29285.6235,
      "d": 173.61057291666657,
      "v": 101
    },
    {
      "midi": 79,
      "hit": false,
      "t": 29285.6235,
      "d": 173.61057291666657,
      "v": 100
    },
    {
      "midi": 60,
      "hit": false,
      "t": 29285.6235,
      "d": 173.61057291666657,
      "v": 99
    },
    {
      "midi": 64,
      "hit": false,
      "t": 29285.6235,
      "d": 173.61057291666657,
      "v": 101
    },
    {
      "midi": 67,
      "hit": false,
      "t": 29285.6235,
      "d": 173.61057291666657,
      "v": 100
    },
    {
      "midi": 72,
      "hit": false,
      "t": 29285.62350000004,
      "d": 186.01132812500146,
      "v": 71
    },
    {
      "midi": 76,
      "hit": false,
      "t": 29285.62350000004,
      "d": 186.01132812500146,
      "v": 72
    },
    {
      "midi": 79,
      "hit": false,
      "t": 29285.62350000004,
      "d": 186.01132812500146,
      "v": 72
    },
    {
      "midi": 48,
      "hit": false,
      "t": 29404.670749999943,
      "d": 114.08694791666494,
      "v": 78
    },
    {
      "midi": 60,
      "hit": false,
      "t": 29404.670749999994,
      "d": 9.920604166665726,
      "v": 103
    },
    {
      "midi": 64,
      "hit": false,
      "t": 29404.670749999994,
      "d": 9.920604166665726,
      "v": 103
    },
    {
      "midi": 36,
      "hit": false,
      "t": 29523.717999999935,
      "d": 173.61057291666657,
      "v": 50
    },
    {
      "midi": 36,
      "hit": false,
      "t": 29523.717999999943,
      "d": 114.08694791666494,
      "v": 78
    },
    {
      "midi": 36,
      "hit": false,
      "t": 29523.717999999997,
      "d": 208.33268749999843,
      "v": 68
    },
    {
      "midi": 36,
      "hit": false,
      "t": 29642.765249999942,
      "d": 114.08694791666494,
      "v": 78
    },
    {
      "midi": 48,
      "hit": false,
      "t": 29761.812499999935,
      "d": 173.61057291666657,
      "v": 73
    },
    {
      "midi": 48,
      "hit": false,
      "t": 29761.81249999994,
      "d": 114.08694791666494,
      "v": 78
    },
    {
      "midi": 60,
      "hit": false,
      "t": 29761.812499999993,
      "d": 9.920604166665726,
      "v": 103
    },
    {
      "midi": 64,
      "hit": false,
      "t": 29761.812499999993,
      "d": 9.920604166665726,
      "v": 103
    },
    {
      "midi": 36,
      "hit": false,
      "t": 29761.812499999996,
      "d": 208.33268749999843,
      "v": 68
    },
    {
      "midi": 48,
      "hit": false,
      "t": 29880.85974999994,
      "d": 114.08694791666494,
      "v": 78
    },
    {
      "midi": 60,
      "hit": false,
      "t": 29880.859749999992,
      "d": 9.920604166665726,
      "v": 103
    },
    {
      "midi": 64,
      "hit": false,
      "t": 29880.859749999992,
      "d": 9.920604166665726,
      "v": 103
    },
    {
      "midi": 38,
      "hit": false,
      "t": 29999.906999999934,
      "d": 173.61057291666657,
      "v": 66
    },
    {
      "midi": 38,
      "hit": false,
      "t": 29999.90699999994,
      "d": 114.08694791666494,
      "v": 78
    },
    {
      "midi": 38,
      "hit": false,
      "t": 29999.906999999996,
      "d": 208.33268749999843,
      "v": 68
    },
    {
      "midi": 74,
      "hit": false,
      "t": 29999.907000000003,
      "d": 272.81661458333474,
      "v": 98
    },
    {
      "midi": 78,
      "hit": false,
      "t": 29999.907000000003,
      "d": 272.81661458333474,
      "v": 106
    },
    {
      "midi": 81,
      "hit": false,
      "t": 29999.907000000003,
      "d": 272.81661458333474,
      "v": 104
    },
    {
      "midi": 62,
      "hit": false,
      "t": 29999.907000000003,
      "d": 272.81661458333474,
      "v": 98
    },
    {
      "midi": 66,
      "hit": false,
      "t": 29999.907000000003,
      "d": 272.81661458333474,
      "v": 106
    },
    {
      "midi": 69,
      "hit": false,
      "t": 29999.907000000003,
      "d": 272.81661458333474,
      "v": 104
    },
    {
      "midi": 66,
      "hit": false,
      "t": 29999.907000000017,
      "d": 471.22869791666744,
      "v": 58
    },
    {
      "midi": 69,
      "hit": false,
      "t": 29999.907000000017,
      "d": 471.22869791666744,
      "v": 58
    },
    {
      "midi": 74,
      "hit": false,
      "t": 29999.907000000017,
      "d": 471.22869791666744,
      "v": 58
    },
    {
      "midi": 74,
      "hit": false,
      "t": 29999.907000000043,
      "d": 272.81661458333474,
      "v": 70
    },
    {
      "midi": 78,
      "hit": false,
      "t": 29999.907000000043,
      "d": 272.81661458333474,
      "v": 76
    },
    {
      "midi": 81,
      "hit": false,
      "t": 29999.907000000043,
      "d": 272.81661458333474,
      "v": 75
    },
    {
      "midi": 38,
      "hit": false,
      "t": 30118.95424999994,
      "d": 114.08694791666494,
      "v": 78
    },
    {
      "midi": 50,
      "hit": false,
      "t": 30238.001499999933,
      "d": 173.61057291666657,
      "v": 86
    },
    {
      "midi": 50,
      "hit": false,
      "t": 30238.00149999994,
      "d": 114.08694791666494,
      "v": 78
    },
    {
      "midi": 62,
      "hit": false,
      "t": 30238.00149999999,
      "d": 9.920604166665726,
      "v": 103
    },
    {
      "midi": 66,
      "hit": false,
      "t": 30238.00149999999,
      "d": 9.920604166665726,
      "v": 103
    },
    {
      "midi": 38,
      "hit": false,
      "t": 30238.001499999995,
      "d": 208.33268749999843,
      "v": 68
    },
    {
      "midi": 50,
      "hit": false,
      "t": 30357.04874999994,
      "d": 114.08694791666494,
      "v": 78
    },
    {
      "midi": 62,
      "hit": false,
      "t": 30357.04874999999,
      "d": 9.920604166665726,
      "v": 103
    },
    {
      "midi": 66,
      "hit": false,
      "t": 30357.04874999999,
      "d": 9.920604166665726,
      "v": 103
    },
    {
      "midi": 36,
      "hit": false,
      "t": 30476.095999999932,
      "d": 173.61057291666657,
      "v": 74
    },
    {
      "midi": 36,
      "hit": false,
      "t": 30476.09599999994,
      "d": 114.08694791666494,
      "v": 78
    },
    {
      "midi": 36,
      "hit": false,
      "t": 30476.095999999994,
      "d": 208.33268749999843,
      "v": 68
    },
    {
      "midi": 72,
      "hit": false,
      "t": 30476.096000000005,
      "d": 173.61057291666657,
      "v": 83
    },
    {
      "midi": 76,
      "hit": false,
      "t": 30476.096000000005,
      "d": 173.61057291666657,
      "v": 93
    },
    {
      "midi": 79,
      "hit": false,
      "t": 30476.096000000005,
      "d": 173.61057291666657,
      "v": 94
    },
    {
      "midi": 60,
      "hit": false,
      "t": 30476.096000000005,
      "d": 173.61057291666657,
      "v": 83
    },
    {
      "midi": 64,
      "hit": false,
      "t": 30476.096000000005,
      "d": 173.61057291666657,
      "v": 93
    },
    {
      "midi": 67,
      "hit": false,
      "t": 30476.096000000005,
      "d": 173.61057291666657,
      "v": 94
    },
    {
      "midi": 64,
      "hit": false,
      "t": 30476.09600000002,
      "d": 1423.606697916668,
      "v": 58
    },
    {
      "midi": 67,
      "hit": false,
      "t": 30476.09600000002,
      "d": 1423.606697916668,
      "v": 58
    },
    {
      "midi": 72,
      "hit": false,
      "t": 30476.09600000002,
      "d": 1423.606697916668,
      "v": 58
    },
    {
      "midi": 72,
      "hit": false,
      "t": 30476.096000000045,
      "d": 186.01132812500146,
      "v": 59
    },
    {
      "midi": 76,
      "hit": false,
      "t": 30476.096000000045,
      "d": 186.01132812500146,
      "v": 66
    },
    {
      "midi": 79,
      "hit": false,
      "t": 30476.096000000045,
      "d": 186.01132812500146,
      "v": 67
    },
    {
      "midi": 36,
      "hit": false,
      "t": 30595.14324999994,
      "d": 114.08694791666494,
      "v": 78
    },
    {
      "midi": 48,
      "hit": false,
      "t": 30714.19049999993,
      "d": 173.61057291666657,
      "v": 70
    },
    {
      "midi": 48,
      "hit": false,
      "t": 30714.19049999994,
      "d": 114.08694791666494,
      "v": 78
    },
    {
      "midi": 60,
      "hit": false,
      "t": 30714.19049999999,
      "d": 9.920604166665726,
      "v": 103
    },
    {
      "midi": 64,
      "hit": false,
      "t": 30714.19049999999,
      "d": 9.920604166665726,
      "v": 103
    },
    {
      "midi": 36,
      "hit": false,
      "t": 30714.190499999993,
      "d": 208.33268749999843,
      "v": 68
    },
    {
      "midi": 72,
      "hit": false,
      "t": 30714.190500000004,
      "d": 173.61057291666657,
      "v": 99
    },
    {
      "midi": 76,
      "hit": false,
      "t": 30714.190500000004,
      "d": 173.61057291666657,
      "v": 110
    },
    {
      "midi": 79,
      "hit": false,
      "t": 30714.190500000004,
      "d": 173.61057291666657,
      "v": 103
    },
    {
      "midi": 60,
      "hit": false,
      "t": 30714.190500000004,
      "d": 173.61057291666657,
      "v": 99
    },
    {
      "midi": 64,
      "hit": false,
      "t": 30714.190500000004,
      "d": 173.61057291666657,
      "v": 110
    },
    {
      "midi": 67,
      "hit": false,
      "t": 30714.190500000004,
      "d": 173.61057291666657,
      "v": 103
    },
    {
      "midi": 72,
      "hit": false,
      "t": 30714.190500000048,
      "d": 186.01132812500146,
      "v": 71
    },
    {
      "midi": 76,
      "hit": false,
      "t": 30714.190500000048,
      "d": 186.01132812500146,
      "v": 79
    },
    {
      "midi": 79,
      "hit": false,
      "t": 30714.190500000048,
      "d": 186.01132812500146,
      "v": 74
    },
    {
      "midi": 48,
      "hit": false,
      "t": 30833.23774999994,
      "d": 114.08694791666494,
      "v": 78
    },
    {
      "midi": 60,
      "hit": false,
      "t": 30833.23774999999,
      "d": 9.920604166665726,
      "v": 103
    },
    {
      "midi": 64,
      "hit": false,
      "t": 30833.23774999999,
      "d": 9.920604166665726,
      "v": 103
    },
    {
      "midi": 36,
      "hit": false,
      "t": 30952.28499999993,
      "d": 173.61057291666657,
      "v": 64
    },
    {
      "midi": 36,
      "hit": false,
      "t": 30952.284999999938,
      "d": 114.08694791666494,
      "v": 78
    },
    {
      "midi": 36,
      "hit": false,
      "t": 30952.284999999993,
      "d": 208.33268749999843,
      "v": 68
    },
    {
      "midi": 72,
      "hit": false,
      "t": 30952.285000000003,
      "d": 173.61057291666657,
      "v": 103
    },
    {
      "midi": 76,
      "hit": false,
      "t": 30952.285000000003,
      "d": 173.61057291666657,
      "v": 105
    },
    {
      "midi": 79,
      "hit": false,
      "t": 30952.285000000003,
      "d": 173.61057291666657,
      "v": 103
    },
    {
      "midi": 60,
      "hit": false,
      "t": 30952.285000000003,
      "d": 173.61057291666657,
      "v": 103
    },
    {
      "midi": 64,
      "hit": false,
      "t": 30952.285000000003,
      "d": 173.61057291666657,
      "v": 105
    },
    {
      "midi": 67,
      "hit": false,
      "t": 30952.285000000003,
      "d": 173.61057291666657,
      "v": 103
    },
    {
      "midi": 72,
      "hit": false,
      "t": 30952.28500000005,
      "d": 186.01132812500146,
      "v": 74
    },
    {
      "midi": 76,
      "hit": false,
      "t": 30952.28500000005,
      "d": 186.01132812500146,
      "v": 75
    },
    {
      "midi": 79,
      "hit": false,
      "t": 30952.28500000005,
      "d": 186.01132812500146,
      "v": 74
    },
    {
      "midi": 36,
      "hit": false,
      "t": 31071.332249999938,
      "d": 114.08694791666494,
      "v": 78
    },
    {
      "midi": 48,
      "hit": false,
      "t": 31190.37949999993,
      "d": 173.61057291666657,
      "v": 74
    },
    {
      "midi": 48,
      "hit": false,
      "t": 31190.379499999937,
      "d": 114.08694791666494,
      "v": 78
    },
    {
      "midi": 60,
      "hit": false,
      "t": 31190.37949999999,
      "d": 9.920604166665726,
      "v": 103
    },
    {
      "midi": 64,
      "hit": false,
      "t": 31190.37949999999,
      "d": 9.920604166665726,
      "v": 103
    },
    {
      "midi": 36,
      "hit": false,
      "t": 31190.379499999992,
      "d": 208.33268749999843,
      "v": 68
    },
    {
      "midi": 72,
      "hit": false,
      "t": 31190.379500000003,
      "d": 173.61057291666657,
      "v": 99
    },
    {
      "midi": 76,
      "hit": false,
      "t": 31190.379500000003,
      "d": 173.61057291666657,
      "v": 101
    },
    {
      "midi": 79,
      "hit": false,
      "t": 31190.379500000003,
      "d": 173.61057291666657,
      "v": 100
    },
    {
      "midi": 60,
      "hit": false,
      "t": 31190.379500000003,
      "d": 173.61057291666657,
      "v": 99
    },
    {
      "midi": 64,
      "hit": false,
      "t": 31190.379500000003,
      "d": 173.61057291666657,
      "v": 101
    },
    {
      "midi": 67,
      "hit": false,
      "t": 31190.379500000003,
      "d": 173.61057291666657,
      "v": 100
    },
    {
      "midi": 72,
      "hit": false,
      "t": 31190.379500000054,
      "d": 186.01132812500146,
      "v": 71
    },
    {
      "midi": 76,
      "hit": false,
      "t": 31190.379500000054,
      "d": 186.01132812500146,
      "v": 72
    },
    {
      "midi": 79,
      "hit": false,
      "t": 31190.379500000054,
      "d": 186.01132812500146,
      "v": 72
    },
    {
      "midi": 48,
      "hit": false,
      "t": 31309.426749999937,
      "d": 114.08694791666494,
      "v": 78
    },
    {
      "midi": 60,
      "hit": false,
      "t": 31309.426749999988,
      "d": 9.920604166665726,
      "v": 103
    },
    {
      "midi": 64,
      "hit": false,
      "t": 31309.426749999988,
      "d": 9.920604166665726,
      "v": 103
    },
    {
      "midi": 36,
      "hit": false,
      "t": 31428.47399999993,
      "d": 173.61057291666657,
      "v": 50
    },
    {
      "midi": 36,
      "hit": false,
      "t": 31428.473999999936,
      "d": 114.08694791666494,
      "v": 78
    },
    {
      "midi": 36,
      "hit": false,
      "t": 31428.47399999999,
      "d": 208.33268749999843,
      "v": 68
    },
    {
      "midi": 36,
      "hit": false,
      "t": 31547.521249999936,
      "d": 114.08694791666494,
      "v": 78
    },
    {
      "midi": 48,
      "hit": false,
      "t": 31666.56849999993,
      "d": 173.61057291666657,
      "v": 73
    },
    {
      "midi": 48,
      "hit": false,
      "t": 31666.568499999936,
      "d": 114.08694791666494,
      "v": 78
    },
    {
      "midi": 60,
      "hit": false,
      "t": 31666.568499999987,
      "d": 9.920604166665726,
      "v": 103
    },
    {
      "midi": 64,
      "hit": false,
      "t": 31666.568499999987,
      "d": 9.920604166665726,
      "v": 103
    },
    {
      "midi": 36,
      "hit": false,
      "t": 31666.56849999999,
      "d": 208.33268749999843,
      "v": 68
    },
    {
      "midi": 48,
      "hit": false,
      "t": 31785.615749999935,
      "d": 114.08694791666494,
      "v": 78
    },
    {
      "midi": 60,
      "hit": false,
      "t": 31785.615749999986,
      "d": 9.920604166665726,
      "v": 103
    },
    {
      "midi": 64,
      "hit": false,
      "t": 31785.615749999986,
      "d": 9.920604166665726,
      "v": 103
    },
    {
      "midi": 38,
      "hit": false,
      "t": 31904.662999999928,
      "d": 173.61057291666657,
      "v": 66
    },
    {
      "midi": 38,
      "hit": false,
      "t": 31904.662999999935,
      "d": 114.08694791666494,
      "v": 78
    },
    {
      "midi": 38,
      "hit": false,
      "t": 31904.66299999999,
      "d": 208.33268749999843,
      "v": 68
    },
    {
      "midi": 74,
      "hit": false,
      "t": 31904.663000000004,
      "d": 272.81661458333474,
      "v": 98
    },
    {
      "midi": 78,
      "hit": false,
      "t": 31904.663000000004,
      "d": 272.81661458333474,
      "v": 106
    },
    {
      "midi": 81,
      "hit": false,
      "t": 31904.663000000004,
      "d": 272.81661458333474,
      "v": 104
    },
    {
      "midi": 62,
      "hit": false,
      "t": 31904.663000000004,
      "d": 272.81661458333474,
      "v": 98
    },
    {
      "midi": 66,
      "hit": false,
      "t": 31904.663000000004,
      "d": 272.81661458333474,
      "v": 106
    },
    {
      "midi": 69,
      "hit": false,
      "t": 31904.663000000004,
      "d": 272.81661458333474,
      "v": 104
    },
    {
      "midi": 66,
      "hit": false,
      "t": 31904.663000000022,
      "d": 471.22869791666744,
      "v": 58
    },
    {
      "midi": 69,
      "hit": false,
      "t": 31904.663000000022,
      "d": 471.22869791666744,
      "v": 58
    },
    {
      "midi": 74,
      "hit": false,
      "t": 31904.663000000022,
      "d": 471.22869791666744,
      "v": 58
    },
    {
      "midi": 74,
      "hit": false,
      "t": 31904.663000000055,
      "d": 272.81661458333474,
      "v": 70
    },
    {
      "midi": 78,
      "hit": false,
      "t": 31904.663000000055,
      "d": 272.81661458333474,
      "v": 76
    },
    {
      "midi": 81,
      "hit": false,
      "t": 31904.663000000055,
      "d": 272.81661458333474,
      "v": 75
    },
    {
      "midi": 38,
      "hit": false,
      "t": 32023.710249999935,
      "d": 114.08694791666494,
      "v": 78
    },
    {
      "midi": 50,
      "hit": false,
      "t": 32142.757499999927,
      "d": 173.61057291666657,
      "v": 86
    },
    {
      "midi": 50,
      "hit": false,
      "t": 32142.757499999934,
      "d": 114.08694791666494,
      "v": 78
    },
    {
      "midi": 62,
      "hit": false,
      "t": 32142.757499999985,
      "d": 9.920604166665726,
      "v": 103
    },
    {
      "midi": 66,
      "hit": false,
      "t": 32142.757499999985,
      "d": 9.920604166665726,
      "v": 103
    },
    {
      "midi": 38,
      "hit": false,
      "t": 32142.75749999999,
      "d": 208.33268749999843,
      "v": 68
    },
    {
      "midi": 50,
      "hit": false,
      "t": 32261.804749999934,
      "d": 114.08694791666494,
      "v": 78
    },
    {
      "midi": 62,
      "hit": false,
      "t": 32261.804749999985,
      "d": 9.920604166665726,
      "v": 103
    },
    {
      "midi": 66,
      "hit": false,
      "t": 32261.804749999985,
      "d": 9.920604166665726,
      "v": 103
    },
    {
      "midi": 31,
      "hit": false,
      "t": 32380.851999999926,
      "d": 173.61057291666657,
      "v": 76
    },
    {
      "midi": 43,
      "hit": false,
      "t": 32380.851999999933,
      "d": 114.08694791666494,
      "v": 78
    },
    {
      "midi": 31,
      "hit": false,
      "t": 32380.851999999988,
      "d": 208.33268749999843,
      "v": 68
    },
    {
      "midi": 83,
      "hit": false,
      "t": 32380.85200000001,
      "d": 2.480151041665522,
      "v": 84
    },
    {
      "midi": 83,
      "hit": false,
      "t": 32380.85200000001,
      "d": 2.480151041665522,
      "v": 110
    },
    {
      "midi": 62,
      "hit": false,
      "t": 32380.852000000024,
      "d": 1899.7956979166665,
      "v": 58
    },
    {
      "midi": 67,
      "hit": false,
      "t": 32380.852000000024,
      "d": 1899.7956979166665,
      "v": 58
    },
    {
      "midi": 71,
      "hit": false,
      "t": 32380.852000000024,
      "d": 1899.7956979166665,
      "v": 58
    },
    {
      "midi": 43,
      "hit": false,
      "t": 32499.899249999933,
      "d": 114.08694791666494,
      "v": 78
    },
    {
      "midi": 83,
      "hit": false,
      "t": 32499.89925000001,
      "d": 2.480151041665522,
      "v": 91
    },
    {
      "midi": 83,
      "hit": false,
      "t": 32499.89925000001,
      "d": 2.480151041665522,
      "v": 110
    },
    {
      "midi": 43,
      "hit": false,
      "t": 32618.946499999925,
      "d": 173.61057291666657,
      "v": 82
    },
    {
      "midi": 55,
      "hit": false,
      "t": 32618.946499999933,
      "d": 114.08694791666494,
      "v": 78
    },
    {
      "midi": 67,
      "hit": false,
      "t": 32618.946499999984,
      "d": 9.920604166665726,
      "v": 103
    },
    {
      "midi": 71,
      "hit": false,
      "t": 32618.946499999984,
      "d": 9.920604166665726,
      "v": 103
    },
    {
      "midi": 31,
      "hit": false,
      "t": 32618.946499999987,
      "d": 208.33268750000207,
      "v": 68
    },
    {
      "midi": 83,
      "hit": false,
      "t": 32618.94650000001,
      "d": 2.480151041665522,
      "v": 88
    },
    {
      "midi": 83,
      "hit": false,
      "t": 32618.94650000001,
      "d": 2.480151041665522,
      "v": 110
    },
    {
      "midi": 55,
      "hit": false,
      "t": 32737.993749999932,
      "d": 114.08694791666858,
      "v": 78
    },
    {
      "midi": 67,
      "hit": false,
      "t": 32737.993749999983,
      "d": 9.920604166665726,
      "v": 103
    },
    {
      "midi": 71,
      "hit": false,
      "t": 32737.993749999983,
      "d": 9.920604166665726,
      "v": 103
    },
    {
      "midi": 83,
      "hit": false,
      "t": 32737.99375000001,
      "d": 2.480151041665522,
      "v": 91
    },
    {
      "midi": 83,
      "hit": false,
      "t": 32737.99375000001,
      "d": 2.480151041665522,
      "v": 110
    },
    {
      "midi": 31,
      "hit": false,
      "t": 32857.040999999925,
      "d": 173.61057291666657,
      "v": 62
    },
    {
      "midi": 43,
      "hit": false,
      "t": 32857.04099999993,
      "d": 114.08694791666494,
      "v": 78
    },
    {
      "midi": 31,
      "hit": false,
      "t": 32857.04099999999,
      "d": 208.33268749999843,
      "v": 68
    },
    {
      "midi": 83,
      "hit": false,
      "t": 32857.041000000005,
      "d": 2.480151041665522,
      "v": 87
    },
    {
      "midi": 83,
      "hit": false,
      "t": 32857.041000000005,
      "d": 2.480151041665522,
      "v": 110
    },
    {
      "midi": 43,
      "hit": false,
      "t": 32976.08824999993,
      "d": 114.08694791666494,
      "v": 78
    },
    {
      "midi": 83,
      "hit": false,
      "t": 32976.08825,
      "d": 2.480151041665522,
      "v": 87
    },
    {
      "midi": 83,
      "hit": false,
      "t": 32976.08825,
      "d": 2.480151041665522,
      "v": 110
    },
    {
      "midi": 43,
      "hit": false,
      "t": 33095.135499999924,
      "d": 173.61057291666657,
      "v": 78
    },
    {
      "midi": 55,
      "hit": false,
      "t": 33095.135499999924,
      "d": 114.08694791666494,
      "v": 78
    },
    {
      "midi": 67,
      "hit": false,
      "t": 33095.13549999998,
      "d": 9.920604166669364,
      "v": 103
    },
    {
      "midi": 71,
      "hit": false,
      "t": 33095.13549999998,
      "d": 9.920604166669364,
      "v": 103
    },
    {
      "midi": 31,
      "hit": false,
      "t": 33095.13549999999,
      "d": 208.33268749999843,
      "v": 68
    },
    {
      "midi": 83,
      "hit": false,
      "t": 33095.1355,
      "d": 2.480151041665522,
      "v": 89
    },
    {
      "midi": 83,
      "hit": false,
      "t": 33095.1355,
      "d": 2.480151041665522,
      "v": 110
    },
    {
      "midi": 55,
      "hit": false,
      "t": 33214.18274999992,
      "d": 114.08694791666494,
      "v": 78
    },
    {
      "midi": 67,
      "hit": false,
      "t": 33214.182749999985,
      "d": 9.920604166669364,
      "v": 103
    },
    {
      "midi": 71,
      "hit": false,
      "t": 33214.182749999985,
      "d": 9.920604166669364,
      "v": 103
    },
    {
      "midi": 83,
      "hit": false,
      "t": 33214.18274999999,
      "d": 2.480151041665522,
      "v": 91
    },
    {
      "midi": 83,
      "hit": false,
      "t": 33214.18274999999,
      "d": 2.480151041665522,
      "v": 110
    },
    {
      "midi": 43,
      "hit": false,
      "t": 33333.229999999916,
      "d": 114.08694791666494,
      "v": 78
    },
    {
      "midi": 31,
      "hit": false,
      "t": 33333.22999999992,
      "d": 173.61057291666657,
      "v": 67
    },
    {
      "midi": 31,
      "hit": false,
      "t": 33333.22999999999,
      "d": 208.33268749999843,
      "v": 68
    },
    {
      "midi": 83,
      "hit": false,
      "t": 33333.22999999999,
      "d": 2.480151041665522,
      "v": 91
    },
    {
      "midi": 83,
      "hit": false,
      "t": 33333.22999999999,
      "d": 2.480151041665522,
      "v": 110
    },
    {
      "midi": 43,
      "hit": false,
      "t": 33452.27724999991,
      "d": 114.08694791666494,
      "v": 78
    },
    {
      "midi": 83,
      "hit": false,
      "t": 33452.277249999985,
      "d": 2.480151041665522,
      "v": 92
    },
    {
      "midi": 83,
      "hit": false,
      "t": 33452.277249999985,
      "d": 2.480151041665522,
      "v": 110
    },
    {
      "midi": 55,
      "hit": false,
      "t": 33571.32449999991,
      "d": 114.08694791666494,
      "v": 78
    },
    {
      "midi": 43,
      "hit": false,
      "t": 33571.32449999992,
      "d": 173.61057291666657,
      "v": 70
    },
    {
      "midi": 83,
      "hit": false,
      "t": 33571.32449999998,
      "d": 2.480151041665522,
      "v": 96
    },
    {
      "midi": 83,
      "hit": false,
      "t": 33571.32449999998,
      "d": 2.480151041665522,
      "v": 110
    },
    {
      "midi": 31,
      "hit": false,
      "t": 33571.32449999999,
      "d": 208.33268749999843,
      "v": 68
    },
    {
      "midi": 67,
      "hit": false,
      "t": 33571.32449999999,
      "d": 9.920604166669364,
      "v": 103
    },
    {
      "midi": 71,
      "hit": false,
      "t": 33571.32449999999,
      "d": 9.920604166669364,
      "v": 103
    },
    {
      "midi": 55,
      "hit": false,
      "t": 33690.371749999904,
      "d": 114.08694791666494,
      "v": 78
    },
    {
      "midi": 83,
      "hit": false,
      "t": 33690.37174999998,
      "d": 2.480151041665522,
      "v": 92
    },
    {
      "midi": 83,
      "hit": false,
      "t": 33690.37174999998,
      "d": 2.480151041665522,
      "v": 110
    },
    {
      "midi": 67,
      "hit": false,
      "t": 33690.37174999999,
      "d": 9.920604166669364,
      "v": 103
    },
    {
      "midi": 71,
      "hit": false,
      "t": 33690.37174999999,
      "d": 9.920604166669364,
      "v": 103
    },
    {
      "midi": 43,
      "hit": false,
      "t": 33809.4189999999,
      "d": 114.08694791666494,
      "v": 78
    },
    {
      "midi": 31,
      "hit": false,
      "t": 33809.41899999992,
      "d": 173.61057291666657,
      "v": 56
    },
    {
      "midi": 83,
      "hit": false,
      "t": 33809.41899999997,
      "d": 2.480151041665522,
      "v": 96
    },
    {
      "midi": 83,
      "hit": false,
      "t": 33809.41899999997,
      "d": 2.480151041665522,
      "v": 110
    },
    {
      "midi": 31,
      "hit": false,
      "t": 33809.41899999999,
      "d": 208.33268749999843,
      "v": 68
    },
    {
      "midi": 43,
      "hit": false,
      "t": 33928.466249999896,
      "d": 114.08694791666494,
      "v": 78
    },
    {
      "midi": 83,
      "hit": false,
      "t": 33928.46624999997,
      "d": 2.480151041665522,
      "v": 96
    },
    {
      "midi": 83,
      "hit": false,
      "t": 33928.46624999997,
      "d": 2.480151041665522,
      "v": 110
    },
    {
      "midi": 55,
      "hit": false,
      "t": 34047.51349999989,
      "d": 114.08694791666494,
      "v": 78
    },
    {
      "midi": 43,
      "hit": false,
      "t": 34047.51349999992,
      "d": 173.61057291666657,
      "v": 70
    },
    {
      "midi": 83,
      "hit": false,
      "t": 34047.513499999965,
      "d": 2.480151041665522,
      "v": 98
    },
    {
      "midi": 83,
      "hit": false,
      "t": 34047.513499999965,
      "d": 2.480151041665522,
      "v": 110
    },
    {
      "midi": 31,
      "hit": false,
      "t": 34047.51349999999,
      "d": 208.33268749999843,
      "v": 68
    },
    {
      "midi": 67,
      "hit": false,
      "t": 34047.513499999994,
      "d": 9.920604166669364,
      "v": 103
    },
    {
      "midi": 71,
      "hit": false,
      "t": 34047.513499999994,
      "d": 9.920604166669364,
      "v": 103
    },
    {
      "midi": 55,
      "hit": false,
      "t": 34166.56074999989,
      "d": 114.08694791666494,
      "v": 78
    },
    {
      "midi": 83,
      "hit": false,
      "t": 34166.56074999996,
      "d": 2.480151041665522,
      "v": 101
    },
    {
      "midi": 83,
      "hit": false,
      "t": 34166.56074999996,
      "d": 2.480151041665522,
      "v": 110
    },
    {
      "midi": 67,
      "hit": false,
      "t": 34166.56075,
      "d": 9.920604166669364,
      "v": 103
    },
    {
      "midi": 71,
      "hit": false,
      "t": 34166.56075,
      "d": 9.920604166669364,
      "v": 103
    },
    {
      "midi": 38,
      "hit": false,
      "t": 34285.607999999884,
      "d": 114.08694791666494,
      "v": 78
    },
    {
      "midi": 38,
      "hit": false,
      "t": 34285.60799999992,
      "d": 173.61057291666657,
      "v": 70
    },
    {
      "midi": 38,
      "hit": false,
      "t": 34285.607999999986,
      "d": 208.33268749999843,
      "v": 68
    },
    {
      "midi": 62,
      "hit": false,
      "t": 34285.60800000002,
      "d": 1899.7956979166702,
      "v": 58
    },
    {
      "midi": 66,
      "hit": false,
      "t": 34285.60800000002,
      "d": 1899.7956979166702,
      "v": 58
    },
    {
      "midi": 69,
      "hit": false,
      "t": 34285.60800000002,
      "d": 1899.7956979166702,
      "v": 58
    },
    {
      "midi": 38,
      "hit": false,
      "t": 34404.65524999988,
      "d": 114.08694791666494,
      "v": 78
    },
    {
      "midi": 50,
      "hit": false,
      "t": 34523.702499999876,
      "d": 114.08694791666494,
      "v": 78
    },
    {
      "midi": 50,
      "hit": false,
      "t": 34523.70249999992,
      "d": 173.61057291666657,
      "v": 62
    },
    {
      "midi": 38,
      "hit": false,
      "t": 34523.702499999985,
      "d": 208.33268749999843,
      "v": 68
    },
    {
      "midi": 62,
      "hit": false,
      "t": 34523.7025,
      "d": 9.920604166669364,
      "v": 103
    },
    {
      "midi": 66,
      "hit": false,
      "t": 34523.7025,
      "d": 9.920604166669364,
      "v": 103
    },
    {
      "midi": 50,
      "hit": false,
      "t": 34642.74974999987,
      "d": 114.08694791666494,
      "v": 78
    },
    {
      "midi": 62,
      "hit": false,
      "t": 34642.74975,
      "d": 9.920604166669364,
      "v": 103
    },
    {
      "midi": 66,
      "hit": false,
      "t": 34642.74975,
      "d": 9.920604166669364,
      "v": 103
    },
    {
      "midi": 38,
      "hit": false,
      "t": 34761.79699999987,
      "d": 114.08694791666494,
      "v": 78
    },
    {
      "midi": 38,
      "hit": false,
      "t": 34761.79699999992,
      "d": 173.61057291666657,
      "v": 66
    },
    {
      "midi": 38,
      "hit": false,
      "t": 34761.796999999984,
      "d": 208.33268749999843,
      "v": 68
    },
    {
      "midi": 38,
      "hit": false,
      "t": 34880.844249999864,
      "d": 114.08694791666494,
      "v": 78
    },
    {
      "midi": 50,
      "hit": false,
      "t": 34999.89149999986,
      "d": 114.08694791666494,
      "v": 78
    },
    {
      "midi": 50,
      "hit": false,
      "t": 34999.89149999992,
      "d": 173.61057291666657,
      "v": 67
    },
    {
      "midi": 38,
      "hit": false,
      "t": 34999.89149999998,
      "d": 208.33268749999843,
      "v": 68
    },
    {
      "midi": 62,
      "hit": false,
      "t": 34999.891500000005,
      "d": 9.920604166669364,
      "v": 103
    },
    {
      "midi": 66,
      "hit": false,
      "t": 34999.891500000005,
      "d": 9.920604166669364,
      "v": 103
    },
    {
      "midi": 50,
      "hit": false,
      "t": 35118.938749999856,
      "d": 114.08694791666494,
      "v": 78
    },
    {
      "midi": 62,
      "hit": false,
      "t": 35118.93875000001,
      "d": 9.920604166669364,
      "v": 103
    },
    {
      "midi": 66,
      "hit": false,
      "t": 35118.93875000001,
      "d": 9.920604166669364,
      "v": 103
    },
    {
      "midi": 38,
      "hit": false,
      "t": 35237.98599999985,
      "d": 114.08694791666494,
      "v": 78
    },
    {
      "midi": 38,
      "hit": false,
      "t": 35237.98599999992,
      "d": 173.61057291666657,
      "v": 64
    },
    {
      "midi": 38,
      "hit": false,
      "t": 35237.98599999998,
      "d": 208.33268749999843,
      "v": 68
    },
    {
      "midi": 38,
      "hit": false,
      "t": 35357.03324999985,
      "d": 114.08694791666494,
      "v": 78
    },
    {
      "midi": 50,
      "hit": false,
      "t": 35476.08049999984,
      "d": 114.08694791666494,
      "v": 78
    },
    {
      "midi": 50,
      "hit": false,
      "t": 35476.080499999916,
      "d": 173.61057291666657,
      "v": 66
    },
    {
      "midi": 38,
      "hit": false,
      "t": 35476.08049999998,
      "d": 208.33268749999843,
      "v": 68
    },
    {
      "midi": 62,
      "hit": false,
      "t": 35476.08050000001,
      "d": 9.920604166669364,
      "v": 103
    },
    {
      "midi": 66,
      "hit": false,
      "t": 35476.08050000001,
      "d": 9.920604166669364,
      "v": 103
    },
    {
      "midi": 50,
      "hit": false,
      "t": 35595.12774999984,
      "d": 114.08694791666494,
      "v": 78
    },
    {
      "midi": 62,
      "hit": false,
      "t": 35595.127750000014,
      "d": 9.920604166669364,
      "v": 103
    },
    {
      "midi": 66,
      "hit": false,
      "t": 35595.127750000014,
      "d": 9.920604166669364,
      "v": 103
    },
    {
      "midi": 38,
      "hit": false,
      "t": 35714.174999999836,
      "d": 114.08694791666494,
      "v": 78
    },
    {
      "midi": 38,
      "hit": false,
      "t": 35714.174999999916,
      "d": 173.61057291666657,
      "v": 62
    },
    {
      "midi": 38,
      "hit": false,
      "t": 35714.17499999998,
      "d": 208.33268749999843,
      "v": 68
    },
    {
      "midi": 38,
      "hit": false,
      "t": 35833.22224999983,
      "d": 114.08694791666494,
      "v": 78
    },
    {
      "midi": 50,
      "hit": false,
      "t": 35952.26949999983,
      "d": 114.08694791666494,
      "v": 78
    },
    {
      "midi": 50,
      "hit": false,
      "t": 35952.269499999915,
      "d": 173.61057291666657,
      "v": 73
    },
    {
      "midi": 38,
      "hit": false,
      "t": 35952.26949999998,
      "d": 208.33268749999843,
      "v": 68
    },
    {
      "midi": 62,
      "hit": false,
      "t": 35952.26950000002,
      "d": 9.920604166669364,
      "v": 103
    },
    {
      "midi": 66,
      "hit": false,
      "t": 35952.26950000002,
      "d": 9.920604166669364,
      "v": 103
    },
    {
      "midi": 50,
      "hit": false,
      "t": 36071.31674999982,
      "d": 114.08694791666494,
      "v": 78
    },
    {
      "midi": 62,
      "hit": false,
      "t": 36071.31675000002,
      "d": 9.920604166669364,
      "v": 103
    },
    {
      "midi": 66,
      "hit": false,
      "t": 36071.31675000002,
      "d": 9.920604166669364,
      "v": 103
    },
    {
      "midi": 40,
      "hit": false,
      "t": 36190.36399999982,
      "d": 114.08694791666494,
      "v": 78
    },
    {
      "midi": 40,
      "hit": false,
      "t": 36190.363999999914,
      "d": 173.61057291666657,
      "v": 73
    },
    {
      "midi": 40,
      "hit": false,
      "t": 36190.36399999998,
      "d": 208.33268749999843,
      "v": 68
    },
    {
      "midi": 64,
      "hit": false,
      "t": 36190.36400000002,
      "d": 947.4176979166659,
      "v": 58
    },
    {
      "midi": 67,
      "hit": false,
      "t": 36190.36400000002,
      "d": 1899.795697916663,
      "v": 58
    },
    {
      "midi": 71,
      "hit": false,
      "t": 36190.36400000002,
      "d": 1899.795697916663,
      "v": 58
    },
    {
      "midi": 40,
      "hit": false,
      "t": 36309.411249999815,
      "d": 114.08694791666494,
      "v": 78
    },
    {
      "midi": 52,
      "hit": false,
      "t": 36428.45849999981,
      "d": 114.08694791666494,
      "v": 78
    },
    {
      "midi": 52,
      "hit": false,
      "t": 36428.45849999991,
      "d": 173.61057291666657,
      "v": 64
    },
    {
      "midi": 40,
      "hit": false,
      "t": 36428.45849999998,
      "d": 208.33268749999843,
      "v": 68
    },
    {
      "midi": 64,
      "hit": false,
      "t": 36428.45850000002,
      "d": 9.920604166669364,
      "v": 103
    },
    {
      "midi": 67,
      "hit": false,
      "t": 36428.45850000002,
      "d": 9.920604166669364,
      "v": 103
    },
    {
      "midi": 52,
      "hit": false,
      "t": 36547.50574999981,
      "d": 114.08694791666494,
      "v": 78
    },
    {
      "midi": 64,
      "hit": false,
      "t": 36547.505750000026,
      "d": 9.920604166669364,
      "v": 103
    },
    {
      "midi": 67,
      "hit": false,
      "t": 36547.505750000026,
      "d": 9.920604166669364,
      "v": 103
    },
    {
      "midi": 40,
      "hit": false,
      "t": 36666.5529999998,
      "d": 114.08694791666494,
      "v": 78
    },
    {
      "midi": 40,
      "hit": false,
      "t": 36666.55299999991,
      "d": 173.61057291666657,
      "v": 62
    },
    {
      "midi": 40,
      "hit": false,
      "t": 36666.55299999998,
      "d": 208.33268749999843,
      "v": 68
    },
    {
      "midi": 40,
      "hit": false,
      "t": 36785.6002499998,
      "d": 114.08694791666494,
      "v": 78
    },
    {
      "midi": 52,
      "hit": false,
      "t": 36904.647499999795,
      "d": 114.08694791666494,
      "v": 78
    },
    {
      "midi": 52,
      "hit": false,
      "t": 36904.64749999991,
      "d": 173.61057291666657,
      "v": 80
    },
    {
      "midi": 40,
      "hit": false,
      "t": 36904.64749999998,
      "d": 208.33268749999843,
      "v": 68
    },
    {
      "midi": 64,
      "hit": false,
      "t": 36904.64750000003,
      "d": 9.920604166669364,
      "v": 103
    },
    {
      "midi": 67,
      "hit": false,
      "t": 36904.64750000003,
      "d": 9.920604166669364,
      "v": 103
    },
    {
      "midi": 52,
      "hit": false,
      "t": 37023.69474999979,
      "d": 114.08694791666494,
      "v": 78
    },
    {
      "midi": 64,
      "hit": false,
      "t": 37023.69475000003,
      "d": 9.920604166669364,
      "v": 103
    },
    {
      "midi": 67,
      "hit": false,
      "t": 37023.69475000003,
      "d": 9.920604166669364,
      "v": 103
    },
    {
      "midi": 38,
      "hit": false,
      "t": 37142.74199999979,
      "d": 114.08694791666494,
      "v": 78
    },
    {
      "midi": 38,
      "hit": false,
      "t": 37142.74199999991,
      "d": 173.61057291666657,
      "v": 58
    },
    {
      "midi": 38,
      "hit": false,
      "t": 37142.74199999998,
      "d": 208.33268749999843,
      "v": 68
    },
    {
      "midi": 62,
      "hit": false,
      "t": 37142.74200000002,
      "d": 947.4176979166659,
      "v": 58
    },
    {
      "midi": 38,
      "hit": false,
      "t": 37261.78924999978,
      "d": 114.08694791666494,
      "v": 78
    },
    {
      "midi": 50,
      "hit": false,
      "t": 37380.83649999978,
      "d": 114.08694791666494,
      "v": 78
    },
    {
      "midi": 50,
      "hit": false,
      "t": 37380.83649999991,
      "d": 173.61057291666657,
      "v": 72
    },
    {
      "midi": 38,
      "hit": false,
      "t": 37380.836499999976,
      "d": 208.33268749999843,
      "v": 68
    },
    {
      "midi": 62,
      "hit": false,
      "t": 37380.836500000034,
      "d": 9.920604166669364,
      "v": 103
    },
    {
      "midi": 66,
      "hit": false,
      "t": 37380.836500000034,
      "d": 9.920604166669364,
      "v": 103
    },
    {
      "midi": 50,
      "hit": false,
      "t": 37499.883749999775,
      "d": 114.08694791666494,
      "v": 78
    },
    {
      "midi": 62,
      "hit": false,
      "t": 37499.88375000004,
      "d": 9.920604166669364,
      "v": 103
    },
    {
      "midi": 66,
      "hit": false,
      "t": 37499.88375000004,
      "d": 9.920604166669364,
      "v": 103
    },
    {
      "midi": 38,
      "hit": false,
      "t": 37618.93099999977,
      "d": 114.08694791666494,
      "v": 78
    },
    {
      "midi": 38,
      "hit": false,
      "t": 37618.93099999991,
      "d": 173.61057291666657,
      "v": 59
    },
    {
      "midi": 38,
      "hit": false,
      "t": 37618.930999999975,
      "d": 208.33268749999843,
      "v": 68
    },
    {
      "midi": 38,
      "hit": false,
      "t": 37737.97824999977,
      "d": 114.08694791666494,
      "v": 78
    },
    {
      "midi": 50,
      "hit": false,
      "t": 37857.02549999976,
      "d": 114.08694791666494,
      "v": 78
    },
    {
      "midi": 50,
      "hit": false,
      "t": 37857.02549999991,
      "d": 173.61057291666657,
      "v": 70
    },
    {
      "midi": 38,
      "hit": false,
      "t": 37857.025499999974,
      "d": 208.33268749999843,
      "v": 68
    },
    {
      "midi": 62,
      "hit": false,
      "t": 37857.02550000004,
      "d": 9.920604166669364,
      "v": 103
    },
    {
      "midi": 66,
      "hit": false,
      "t": 37857.02550000004,
      "d": 9.920604166669364,
      "v": 103
    },
    {
      "midi": 50,
      "hit": false,
      "t": 37976.07274999976,
      "d": 114.08694791666494,
      "v": 78
    },
    {
      "midi": 62,
      "hit": false,
      "t": 37976.07275000004,
      "d": 9.920604166669364,
      "v": 103
    },
    {
      "midi": 66,
      "hit": false,
      "t": 37976.07275000004,
      "d": 9.920604166669364,
      "v": 103
    },
    {
      "midi": 36,
      "hit": false,
      "t": 38095.119999999755,
      "d": 114.08694791666494,
      "v": 78
    },
    {
      "midi": 36,
      "hit": false,
      "t": 38095.11999999991,
      "d": 173.61057291666657,
      "v": 74
    },
    {
      "midi": 36,
      "hit": false,
      "t": 38095.11999999997,
      "d": 208.33268749999843,
      "v": 68
    },
    {
      "midi": 64,
      "hit": false,
      "t": 38095.12000000002,
      "d": 1423.6066979166644,
      "v": 58
    },
    {
      "midi": 67,
      "hit": false,
      "t": 38095.12000000002,
      "d": 1423.6066979166644,
      "v": 58
    },
    {
      "midi": 72,
      "hit": false,
      "t": 38095.12000000002,
      "d": 1423.6066979166644,
      "v": 58
    },
    {
      "midi": 36,
      "hit": false,
      "t": 38214.16724999975,
      "d": 114.08694791666494,
      "v": 78
    },
    {
      "midi": 48,
      "hit": false,
      "t": 38333.21449999975,
      "d": 114.08694791666494,
      "v": 78
    },
    {
      "midi": 48,
      "hit": false,
      "t": 38333.21449999991,
      "d": 173.61057291666657,
      "v": 70
    },
    {
      "midi": 36,
      "hit": false,
      "t": 38333.21449999997,
      "d": 208.33268749999843,
      "v": 68
    },
    {
      "midi": 60,
      "hit": false,
      "t": 38333.214500000046,
      "d": 9.920604166669364,
      "v": 103
    },
    {
      "midi": 64,
      "hit": false,
      "t": 38333.214500000046,
      "d": 9.920604166669364,
      "v": 103
    },
    {
      "midi": 48,
      "hit": false,
      "t": 38452.26174999974,
      "d": 114.08694791666494,
      "v": 78
    },
    {
      "midi": 60,
      "hit": false,
      "t": 38452.26175000005,
      "d": 9.920604166669364,
      "v": 103
    },
    {
      "midi": 64,
      "hit": false,
      "t": 38452.26175000005,
      "d": 9.920604166669364,
      "v": 103
    },
    {
      "midi": 36,
      "hit": false,
      "t": 38571.30899999974,
      "d": 114.08694791666494,
      "v": 78
    },
    {
      "midi": 36,
      "hit": false,
      "t": 38571.30899999991,
      "d": 173.61057291666657,
      "v": 64
    },
    {
      "midi": 36,
      "hit": false,
      "t": 38571.30899999997,
      "d": 208.33268749999843,
      "v": 68
    },
    {
      "midi": 36,
      "hit": false,
      "t": 38690.356249999735,
      "d": 114.08694791666494,
      "v": 78
    },
    {
      "midi": 48,
      "hit": false,
      "t": 38809.40349999973,
      "d": 114.08694791666494,
      "v": 78
    },
    {
      "midi": 48,
      "hit": false,
      "t": 38809.403499999906,
      "d": 173.61057291666657,
      "v": 74
    },
    {
      "midi": 36,
      "hit": false,
      "t": 38809.40349999997,
      "d": 208.33268749999843,
      "v": 68
    },
    {
      "midi": 60,
      "hit": false,
      "t": 38809.40350000005,
      "d": 9.920604166669364,
      "v": 103
    },
    {
      "midi": 64,
      "hit": false,
      "t": 38809.40350000005,
      "d": 9.920604166669364,
      "v": 103
    },
    {
      "midi": 48,
      "hit": false,
      "t": 38928.45074999973,
      "d": 114.08694791666494,
      "v": 78
    },
    {
      "midi": 60,
      "hit": false,
      "t": 38928.450750000055,
      "d": 9.920604166669364,
      "v": 103
    },
    {
      "midi": 64,
      "hit": false,
      "t": 38928.450750000055,
      "d": 9.920604166669364,
      "v": 103
    },
    {
      "midi": 36,
      "hit": false,
      "t": 39047.49799999972,
      "d": 114.08694791666494,
      "v": 78
    },
    {
      "midi": 36,
      "hit": false,
      "t": 39047.497999999905,
      "d": 173.61057291666657,
      "v": 50
    },
    {
      "midi": 36,
      "hit": false,
      "t": 39047.49799999997,
      "d": 208.33268749999843,
      "v": 68
    },
    {
      "midi": 36,
      "hit": false,
      "t": 39166.54524999972,
      "d": 114.08694791666494,
      "v": 78
    },
    {
      "midi": 48,
      "hit": false,
      "t": 39285.592499999715,
      "d": 114.08694791666494,
      "v": 78
    },
    {
      "midi": 48,
      "hit": false,
      "t": 39285.592499999904,
      "d": 173.61057291666657,
      "v": 73
    },
    {
      "midi": 36,
      "hit": false,
      "t": 39285.59249999997,
      "d": 208.33268749999843,
      "v": 68
    },
    {
      "midi": 60,
      "hit": false,
      "t": 39285.59250000006,
      "d": 9.920604166669364,
      "v": 103
    },
    {
      "midi": 64,
      "hit": false,
      "t": 39285.59250000006,
      "d": 9.920604166669364,
      "v": 103
    },
    {
      "midi": 48,
      "hit": false,
      "t": 39404.63974999971,
      "d": 114.08694791666494,
      "v": 78
    },
    {
      "midi": 60,
      "hit": false,
      "t": 39404.63975000006,
      "d": 9.920604166669364,
      "v": 103
    },
    {
      "midi": 64,
      "hit": false,
      "t": 39404.63975000006,
      "d": 9.920604166669364,
      "v": 103
    },
    {
      "midi": 38,
      "hit": false,
      "t": 39523.68699999971,
      "d": 114.08694791666494,
      "v": 78
    },
    {
      "midi": 38,
      "hit": false,
      "t": 39523.6869999999,
      "d": 173.61057291666657,
      "v": 66
    },
    {
      "midi": 38,
      "hit": false,
      "t": 39523.68699999997,
      "d": 208.33268749999843,
      "v": 68
    },
    {
      "midi": 66,
      "hit": false,
      "t": 39523.68700000001,
      "d": 471.22869791666744,
      "v": 58
    },
    {
      "midi": 69,
      "hit": false,
      "t": 39523.68700000001,
      "d": 471.22869791666744,
      "v": 58
    },
    {
      "midi": 74,
      "hit": false,
      "t": 39523.68700000001,
      "d": 471.22869791666744,
      "v": 58
    },
    {
      "midi": 38,
      "hit": false,
      "t": 39642.7342499997,
      "d": 114.08694791666494,
      "v": 78
    },
    {
      "midi": 50,
      "hit": false,
      "t": 39761.7814999997,
      "d": 114.08694791666494,
      "v": 78
    },
    {
      "midi": 50,
      "hit": false,
      "t": 39761.7814999999,
      "d": 173.61057291666657,
      "v": 86
    },
    {
      "midi": 38,
      "hit": false,
      "t": 39761.78149999997,
      "d": 208.33268749999843,
      "v": 68
    },
    {
      "midi": 62,
      "hit": false,
      "t": 39761.78150000006,
      "d": 9.920604166669364,
      "v": 103
    },
    {
      "midi": 66,
      "hit": false,
      "t": 39761.78150000006,
      "d": 9.920604166669364,
      "v": 103
    },
    {
      "midi": 50,
      "hit": false,
      "t": 39880.828749999695,
      "d": 114.08694791666494,
      "v": 78
    },
    {
      "midi": 62,
      "hit": false,
      "t": 39880.828750000066,
      "d": 9.920604166669364,
      "v": 103
    },
    {
      "midi": 66,
      "hit": false,
      "t": 39880.828750000066,
      "d": 9.920604166669364,
      "v": 103
    },
    {
      "midi": 43,
      "hit": false,
      "t": 39999.87599999969,
      "d": 114.08694791666494,
      "v": 78
    },
    {
      "midi": 31,
      "hit": false,
      "t": 39999.8759999999,
      "d": 173.61057291666657,
      "v": 76
    },
    {
      "midi": 83,
      "hit": false,
      "t": 39999.87599999996,
      "d": 2.480151041665522,
      "v": 84
    },
    {
      "midi": 83,
      "hit": false,
      "t": 39999.87599999996,
      "d": 2.480151041665522,
      "v": 110
    },
    {
      "midi": 31,
      "hit": false,
      "t": 39999.87599999997,
      "d": 208.33268749999843,
      "v": 68
    },
    {
      "midi": 62,
      "hit": false,
      "t": 39999.87600000001,
      "d": 1899.7956979166702,
      "v": 58
    },
    {
      "midi": 67,
      "hit": false,
      "t": 39999.87600000001,
      "d": 1899.7956979166702,
      "v": 58
    },
    {
      "midi": 71,
      "hit": false,
      "t": 39999.87600000001,
      "d": 1899.7956979166702,
      "v": 58
    },
    {
      "midi": 43,
      "hit": false,
      "t": 40118.92324999969,
      "d": 114.08694791666494,
      "v": 78
    },
    {
      "midi": 83,
      "hit": false,
      "t": 40118.923249999956,
      "d": 2.480151041665522,
      "v": 91
    },
    {
      "midi": 83,
      "hit": false,
      "t": 40118.923249999956,
      "d": 2.480151041665522,
      "v": 110
    },
    {
      "midi": 55,
      "hit": false,
      "t": 40237.97049999968,
      "d": 114.08694791666494,
      "v": 78
    },
    {
      "midi": 43,
      "hit": false,
      "t": 40237.9704999999,
      "d": 173.61057291666657,
      "v": 82
    },
    {
      "midi": 83,
      "hit": false,
      "t": 40237.97049999995,
      "d": 2.480151041665522,
      "v": 88
    },
    {
      "midi": 83,
      "hit": false,
      "t": 40237.97049999995,
      "d": 2.480151041665522,
      "v": 110
    },
    {
      "midi": 31,
      "hit": false,
      "t": 40237.97049999997,
      "d": 208.33268749999843,
      "v": 68
    },
    {
      "midi": 67,
      "hit": false,
      "t": 40237.97050000007,
      "d": 9.920604166669364,
      "v": 103
    },
    {
      "midi": 71,
      "hit": false,
      "t": 40237.97050000007,
      "d": 9.920604166669364,
      "v": 103
    },
    {
      "midi": 55,
      "hit": false,
      "t": 40357.01774999968,
      "d": 114.08694791666494,
      "v": 78
    },
    {
      "midi": 83,
      "hit": false,
      "t": 40357.01774999995,
      "d": 2.480151041665522,
      "v": 91
    },
    {
      "midi": 83,
      "hit": false,
      "t": 40357.01774999995,
      "d": 2.480151041665522,
      "v": 110
    },
    {
      "midi": 67,
      "hit": false,
      "t": 40357.01775000007,
      "d": 9.920604166669364,
      "v": 103
    },
    {
      "midi": 71,
      "hit": false,
      "t": 40357.01775000007,
      "d": 9.920604166669364,
      "v": 103
    },
    {
      "midi": 43,
      "hit": false,
      "t": 40476.064999999675,
      "d": 114.08694791666494,
      "v": 78
    },
    {
      "midi": 31,
      "hit": false,
      "t": 40476.0649999999,
      "d": 173.61057291666657,
      "v": 62
    },
    {
      "midi": 83,
      "hit": false,
      "t": 40476.064999999944,
      "d": 2.480151041665522,
      "v": 87
    },
    {
      "midi": 83,
      "hit": false,
      "t": 40476.064999999944,
      "d": 2.480151041665522,
      "v": 110
    },
    {
      "midi": 31,
      "hit": false,
      "t": 40476.064999999966,
      "d": 208.33268749999843,
      "v": 68
    },
    {
      "midi": 43,
      "hit": false,
      "t": 40595.11224999967,
      "d": 114.08694791666494,
      "v": 78
    },
    {
      "midi": 83,
      "hit": false,
      "t": 40595.11224999994,
      "d": 2.480151041665522,
      "v": 87
    },
    {
      "midi": 83,
      "hit": false,
      "t": 40595.11224999994,
      "d": 2.480151041665522,
      "v": 110
    },
    {
      "midi": 55,
      "hit": false,
      "t": 40714.15949999967,
      "d": 114.08694791666494,
      "v": 78
    },
    {
      "midi": 43,
      "hit": false,
      "t": 40714.1594999999,
      "d": 173.61057291666657,
      "v": 78
    },
    {
      "midi": 83,
      "hit": false,
      "t": 40714.159499999936,
      "d": 2.480151041665522,
      "v": 89
    },
    {
      "midi": 83,
      "hit": false,
      "t": 40714.159499999936,
      "d": 2.480151041665522,
      "v": 110
    },
    {
      "midi": 31,
      "hit": false,
      "t": 40714.159499999965,
      "d": 208.33268749999843,
      "v": 68
    },
    {
      "midi": 67,
      "hit": false,
      "t": 40714.159500000074,
      "d": 9.920604166669364,
      "v": 103
    },
    {
      "midi": 71,
      "hit": false,
      "t": 40714.159500000074,
      "d": 9.920604166669364,
      "v": 103
    },
    {
      "midi": 55,
      "hit": false,
      "t": 40833.20674999966,
      "d": 114.08694791666494,
      "v": 78
    },
    {
      "midi": 83,
      "hit": false,
      "t": 40833.20674999993,
      "d": 2.480151041665522,
      "v": 91
    },
    {
      "midi": 83,
      "hit": false,
      "t": 40833.20674999993,
      "d": 2.480151041665522,
      "v": 110
    },
    {
      "midi": 67,
      "hit": false,
      "t": 40833.20675000008,
      "d": 9.920604166669364,
      "v": 103
    },
    {
      "midi": 71,
      "hit": false,
      "t": 40833.20675000008,
      "d": 9.920604166669364,
      "v": 103
    },
    {
      "midi": 43,
      "hit": false,
      "t": 40952.25399999966,
      "d": 114.08694791666494,
      "v": 78
    },
    {
      "midi": 31,
      "hit": false,
      "t": 40952.2539999999,
      "d": 173.61057291666657,
      "v": 67
    },
    {
      "midi": 83,
      "hit": false,
      "t": 40952.25399999993,
      "d": 2.480151041665522,
      "v": 91
    },
    {
      "midi": 83,
      "hit": false,
      "t": 40952.25399999993,
      "d": 2.480151041665522,
      "v": 110
    },
    {
      "midi": 31,
      "hit": false,
      "t": 40952.253999999964,
      "d": 208.33268749999843,
      "v": 68
    },
    {
      "midi": 43,
      "hit": false,
      "t": 41071.301249999655,
      "d": 114.08694791666494,
      "v": 78
    },
    {
      "midi": 83,
      "hit": false,
      "t": 41071.301249999924,
      "d": 2.480151041665522,
      "v": 92
    },
    {
      "midi": 83,
      "hit": false,
      "t": 41071.301249999924,
      "d": 2.480151041665522,
      "v": 110
    },
    {
      "midi": 55,
      "hit": false,
      "t": 41190.34849999965,
      "d": 114.08694791666494,
      "v": 78
    },
    {
      "midi": 43,
      "hit": false,
      "t": 41190.3484999999,
      "d": 173.61057291666657,
      "v": 70
    },
    {
      "midi": 83,
      "hit": false,
      "t": 41190.34849999992,
      "d": 2.480151041665522,
      "v": 96
    },
    {
      "midi": 83,
      "hit": false,
      "t": 41190.34849999992,
      "d": 2.480151041665522,
      "v": 110
    },
    {
      "midi": 31,
      "hit": false,
      "t": 41190.348499999964,
      "d": 208.33268749999843,
      "v": 68
    },
    {
      "midi": 67,
      "hit": false,
      "t": 41190.34850000008,
      "d": 9.920604166669364,
      "v": 103
    },
    {
      "midi": 71,
      "hit": false,
      "t": 41190.34850000008,
      "d": 9.920604166669364,
      "v": 103
    },
    {
      "midi": 55,
      "hit": false,
      "t": 41309.39574999965,
      "d": 114.08694791666494,
      "v": 78
    },
    {
      "midi": 83,
      "hit": false,
      "t": 41309.395749999916,
      "d": 2.480151041665522,
      "v": 92
    },
    {
      "midi": 83,
      "hit": false,
      "t": 41309.395749999916,
      "d": 2.480151041665522,
      "v": 110
    },
    {
      "midi": 67,
      "hit": false,
      "t": 41309.39575000008,
      "d": 9.920604166669364,
      "v": 103
    },
    {
      "midi": 71,
      "hit": false,
      "t": 41309.39575000008,
      "d": 9.920604166669364,
      "v": 103
    },
    {
      "midi": 43,
      "hit": false,
      "t": 41428.44299999964,
      "d": 114.08694791666494,
      "v": 78
    },
    {
      "midi": 31,
      "hit": false,
      "t": 41428.4429999999,
      "d": 173.61057291666657,
      "v": 56
    },
    {
      "midi": 83,
      "hit": false,
      "t": 41428.44299999991,
      "d": 2.480151041665522,
      "v": 96
    },
    {
      "midi": 83,
      "hit": false,
      "t": 41428.44299999991,
      "d": 2.480151041665522,
      "v": 110
    },
    {
      "midi": 31,
      "hit": false,
      "t": 41428.44299999996,
      "d": 208.33268749999843,
      "v": 68
    },
    {
      "midi": 43,
      "hit": false,
      "t": 41547.49024999964,
      "d": 114.08694791666494,
      "v": 78
    },
    {
      "midi": 83,
      "hit": false,
      "t": 41547.49024999991,
      "d": 2.480151041665522,
      "v": 96
    },
    {
      "midi": 83,
      "hit": false,
      "t": 41547.49024999991,
      "d": 2.480151041665522,
      "v": 110
    },
    {
      "midi": 55,
      "hit": false,
      "t": 41666.537499999635,
      "d": 114.08694791666494,
      "v": 78
    },
    {
      "midi": 43,
      "hit": false,
      "t": 41666.5374999999,
      "d": 173.61057291666657,
      "v": 70
    },
    {
      "midi": 83,
      "hit": false,
      "t": 41666.537499999904,
      "d": 2.480151041665522,
      "v": 98
    },
    {
      "midi": 83,
      "hit": false,
      "t": 41666.537499999904,
      "d": 2.480151041665522,
      "v": 110
    },
    {
      "midi": 31,
      "hit": false,
      "t": 41666.53749999996,
      "d": 208.33268749999843,
      "v": 68
    },
    {
      "midi": 67,
      "hit": false,
      "t": 41666.537500000086,
      "d": 9.920604166669364,
      "v": 103
    },
    {
      "midi": 71,
      "hit": false,
      "t": 41666.537500000086,
      "d": 9.920604166669364,
      "v": 103
    },
    {
      "midi": 55,
      "hit": false,
      "t": 41785.58474999963,
      "d": 114.08694791666494,
      "v": 78
    },
    {
      "midi": 83,
      "hit": false,
      "t": 41785.5847499999,
      "d": 2.480151041665522,
      "v": 101
    },
    {
      "midi": 83,
      "hit": false,
      "t": 41785.5847499999,
      "d": 2.480151041665522,
      "v": 110
    },
    {
      "midi": 67,
      "hit": false,
      "t": 41785.58475000009,
      "d": 9.920604166669364,
      "v": 103
    },
    {
      "midi": 71,
      "hit": false,
      "t": 41785.58475000009,
      "d": 9.920604166669364,
      "v": 103
    },
    {
      "midi": 38,
      "hit": false,
      "t": 41904.63199999963,
      "d": 114.08694791666494,
      "v": 78
    },
    {
      "midi": 38,
      "hit": false,
      "t": 41904.631999999896,
      "d": 173.61057291666657,
      "v": 70
    },
    {
      "midi": 38,
      "hit": false,
      "t": 41904.63199999996,
      "d": 208.33268749999843,
      "v": 68
    },
    {
      "midi": 62,
      "hit": false,
      "t": 41904.63200000001,
      "d": 1899.7956979166702,
      "v": 58
    },
    {
      "midi": 66,
      "hit": false,
      "t": 41904.63200000001,
      "d": 1899.7956979166702,
      "v": 58
    },
    {
      "midi": 69,
      "hit": false,
      "t": 41904.63200000001,
      "d": 1899.7956979166702,
      "v": 58
    },
    {
      "midi": 38,
      "hit": false,
      "t": 42023.67924999962,
      "d": 114.08694791666494,
      "v": 78
    },
    {
      "midi": 50,
      "hit": false,
      "t": 42142.72649999962,
      "d": 114.08694791666494,
      "v": 78
    },
    {
      "midi": 50,
      "hit": false,
      "t": 42142.726499999895,
      "d": 173.61057291666657,
      "v": 62
    },
    {
      "midi": 38,
      "hit": false,
      "t": 42142.72649999996,
      "d": 208.33268749999843,
      "v": 68
    },
    {
      "midi": 62,
      "hit": false,
      "t": 42142.72650000009,
      "d": 9.920604166669364,
      "v": 103
    },
    {
      "midi": 66,
      "hit": false,
      "t": 42142.72650000009,
      "d": 9.920604166669364,
      "v": 103
    },
    {
      "midi": 50,
      "hit": false,
      "t": 42261.773749999615,
      "d": 114.08694791666494,
      "v": 78
    },
    {
      "midi": 62,
      "hit": false,
      "t": 42261.773750000095,
      "d": 9.920604166669364,
      "v": 103
    },
    {
      "midi": 66,
      "hit": false,
      "t": 42261.773750000095,
      "d": 9.920604166669364,
      "v": 103
    },
    {
      "midi": 38,
      "hit": false,
      "t": 42380.82099999961,
      "d": 114.08694791666494,
      "v": 78
    },
    {
      "midi": 38,
      "hit": false,
      "t": 42380.820999999894,
      "d": 173.61057291666657,
      "v": 66
    },
    {
      "midi": 38,
      "hit": false,
      "t": 42380.82099999996,
      "d": 208.33268749999843,
      "v": 68
    },
    {
      "midi": 38,
      "hit": false,
      "t": 42499.86824999961,
      "d": 114.08694791666494,
      "v": 78
    },
    {
      "midi": 50,
      "hit": false,
      "t": 42618.9154999996,
      "d": 114.08694791666494,
      "v": 78
    },
    {
      "midi": 50,
      "hit": false,
      "t": 42618.915499999894,
      "d": 173.61057291666657,
      "v": 67
    },
    {
      "midi": 38,
      "hit": false,
      "t": 42618.91549999996,
      "d": 208.33268749999843,
      "v": 68
    },
    {
      "midi": 62,
      "hit": false,
      "t": 42618.9155000001,
      "d": 9.920604166669364,
      "v": 103
    },
    {
      "midi": 66,
      "hit": false,
      "t": 42618.9155000001,
      "d": 9.920604166669364,
      "v": 103
    },
    {
      "midi": 50,
      "hit": false,
      "t": 42737.9627499996,
      "d": 114.08694791666494,
      "v": 78
    },
    {
      "midi": 62,
      "hit": false,
      "t": 42737.9627500001,
      "d": 9.920604166669364,
      "v": 103
    },
    {
      "midi": 66,
      "hit": false,
      "t": 42737.9627500001,
      "d": 9.920604166669364,
      "v": 103
    },
    {
      "midi": 38,
      "hit": false,
      "t": 42857.009999999595,
      "d": 114.08694791666494,
      "v": 78
    },
    {
      "midi": 38,
      "hit": false,
      "t": 42857.00999999989,
      "d": 173.61057291666657,
      "v": 64
    },
    {
      "midi": 38,
      "hit": false,
      "t": 42857.00999999996,
      "d": 208.33268749999843,
      "v": 68
    },
    {
      "midi": 38,
      "hit": false,
      "t": 42976.05724999959,
      "d": 114.08694791666494,
      "v": 78
    },
    {
      "midi": 50,
      "hit": false,
      "t": 43095.10449999959,
      "d": 114.08694791666494,
      "v": 78
    },
    {
      "midi": 50,
      "hit": false,
      "t": 43095.10449999989,
      "d": 173.61057291666657,
      "v": 66
    },
    {
      "midi": 38,
      "hit": false,
      "t": 43095.10449999996,
      "d": 208.33268749999843,
      "v": 68
    },
    {
      "midi": 62,
      "hit": false,
      "t": 43095.1045000001,
      "d": 9.920604166669364,
      "v": 103
    },
    {
      "midi": 66,
      "hit": false,
      "t": 43095.1045000001,
      "d": 9.920604166669364,
      "v": 103
    },
    {
      "midi": 50,
      "hit": false,
      "t": 43214.15174999958,
      "d": 114.08694791666494,
      "v": 78
    },
    {
      "midi": 62,
      "hit": false,
      "t": 43214.15175000011,
      "d": 9.920604166669364,
      "v": 103
    },
    {
      "midi": 66,
      "hit": false,
      "t": 43214.15175000011,
      "d": 9.920604166669364,
      "v": 103
    },
    {
      "midi": 38,
      "hit": false,
      "t": 43333.19899999958,
      "d": 114.08694791666494,
      "v": 78
    },
    {
      "midi": 38,
      "hit": false,
      "t": 43333.19899999989,
      "d": 173.61057291666657,
      "v": 62
    },
    {
      "midi": 38,
      "hit": false,
      "t": 43333.19899999996,
      "d": 208.33268749999843,
      "v": 68
    },
    {
      "midi": 38,
      "hit": false,
      "t": 43452.246249999575,
      "d": 114.08694791666494,
      "v": 78
    },
    {
      "midi": 50,
      "hit": false,
      "t": 43571.29349999957,
      "d": 114.08694791666494,
      "v": 78
    },
    {
      "midi": 50,
      "hit": false,
      "t": 43571.29349999989,
      "d": 173.61057291666657,
      "v": 73
    },
    {
      "midi": 38,
      "hit": false,
      "t": 43571.293499999956,
      "d": 208.33268749999843,
      "v": 68
    },
    {
      "midi": 62,
      "hit": false,
      "t": 43571.29350000011,
      "d": 9.920604166669364,
      "v": 103
    },
    {
      "midi": 66,
      "hit": false,
      "t": 43571.29350000011,
      "d": 9.920604166669364,
      "v": 103
    },
    {
      "midi": 50,
      "hit": false,
      "t": 43690.34074999957,
      "d": 114.08694791666494,
      "v": 78
    },
    {
      "midi": 62,
      "hit": false,
      "t": 43690.34075000011,
      "d": 9.920604166669364,
      "v": 103
    },
    {
      "midi": 66,
      "hit": false,
      "t": 43690.34075000011,
      "d": 9.920604166669364,
      "v": 103
    },
    {
      "midi": 40,
      "hit": false,
      "t": 43809.38799999956,
      "d": 114.08694791666494,
      "v": 78
    },
    {
      "midi": 40,
      "hit": false,
      "t": 43809.38799999989,
      "d": 173.61057291666657,
      "v": 73
    },
    {
      "midi": 40,
      "hit": false,
      "t": 43809.387999999955,
      "d": 208.33268749999843,
      "v": 68
    },
    {
      "midi": 64,
      "hit": false,
      "t": 43809.38800000001,
      "d": 947.4176979166659,
      "v": 58
    },
    {
      "midi": 67,
      "hit": false,
      "t": 43809.38800000001,
      "d": 1899.795697916663,
      "v": 58
    },
    {
      "midi": 71,
      "hit": false,
      "t": 43809.38800000001,
      "d": 1899.795697916663,
      "v": 58
    },
    {
      "midi": 40,
      "hit": false,
      "t": 43928.43524999956,
      "d": 114.08694791666494,
      "v": 78
    },
    {
      "midi": 52,
      "hit": false,
      "t": 44047.482499999554,
      "d": 114.08694791666494,
      "v": 78
    },
    {
      "midi": 52,
      "hit": false,
      "t": 44047.48249999989,
      "d": 173.61057291666657,
      "v": 64
    },
    {
      "midi": 40,
      "hit": false,
      "t": 44047.482499999955,
      "d": 208.33268749999843,
      "v": 68
    },
    {
      "midi": 64,
      "hit": false,
      "t": 44047.482500000115,
      "d": 9.920604166669364,
      "v": 103
    },
    {
      "midi": 67,
      "hit": false,
      "t": 44047.482500000115,
      "d": 9.920604166669364,
      "v": 103
    },
    {
      "midi": 52,
      "hit": false,
      "t": 44166.52974999955,
      "d": 114.08694791666494,
      "v": 78
    },
    {
      "midi": 64,
      "hit": false,
      "t": 44166.52975000012,
      "d": 9.920604166669364,
      "v": 103
    },
    {
      "midi": 67,
      "hit": false,
      "t": 44166.52975000012,
      "d": 9.920604166669364,
      "v": 103
    },
    {
      "midi": 40,
      "hit": false,
      "t": 44285.57699999955,
      "d": 114.08694791666494,
      "v": 78
    },
    {
      "midi": 40,
      "hit": false,
      "t": 44285.57699999989,
      "d": 173.61057291666657,
      "v": 62
    },
    {
      "midi": 40,
      "hit": false,
      "t": 44285.576999999954,
      "d": 208.33268749999843,
      "v": 68
    },
    {
      "midi": 40,
      "hit": false,
      "t": 44404.62424999954,
      "d": 114.08694791666494,
      "v": 78
    },
    {
      "midi": 52,
      "hit": false,
      "t": 44523.67149999954,
      "d": 114.08694791666494,
      "v": 78
    },
    {
      "midi": 52,
      "hit": false,
      "t": 44523.67149999989,
      "d": 173.61057291666657,
      "v": 80
    },
    {
      "midi": 40,
      "hit": false,
      "t": 44523.67149999995,
      "d": 208.33268749999843,
      "v": 68
    },
    {
      "midi": 64,
      "hit": false,
      "t": 44523.67150000012,
      "d": 9.920604166669364,
      "v": 103
    },
    {
      "midi": 67,
      "hit": false,
      "t": 44523.67150000012,
      "d": 9.920604166669364,
      "v": 103
    },
    {
      "midi": 52,
      "hit": false,
      "t": 44642.718749999534,
      "d": 114.08694791666494,
      "v": 78
    },
    {
      "midi": 64,
      "hit": false,
      "t": 44642.718750000124,
      "d": 9.920604166669364,
      "v": 103
    },
    {
      "midi": 67,
      "hit": false,
      "t": 44642.718750000124,
      "d": 9.920604166669364,
      "v": 103
    },
    {
      "midi": 38,
      "hit": false,
      "t": 44761.76599999953,
      "d": 114.08694791666494,
      "v": 78
    },
    {
      "midi": 38,
      "hit": false,
      "t": 44761.76599999989,
      "d": 173.61057291666657,
      "v": 58
    },
    {
      "midi": 38,
      "hit": false,
      "t": 44761.76599999995,
      "d": 208.33268749999843,
      "v": 68
    },
    {
      "midi": 62,
      "hit": false,
      "t": 44761.76600000001,
      "d": 947.4176979166659,
      "v": 58
    },
    {
      "midi": 38,
      "hit": false,
      "t": 44880.813249999526,
      "d": 114.08694791666494,
      "v": 78
    },
    {
      "midi": 50,
      "hit": false,
      "t": 44999.86049999952,
      "d": 114.08694791666494,
      "v": 78
    },
    {
      "midi": 50,
      "hit": false,
      "t": 44999.860499999886,
      "d": 173.61057291666657,
      "v": 72
    },
    {
      "midi": 38,
      "hit": false,
      "t": 44999.86049999995,
      "d": 208.33268749999843,
      "v": 68
    },
    {
      "midi": 62,
      "hit": false,
      "t": 44999.860500000126,
      "d": 9.920604166669364,
      "v": 103
    },
    {
      "midi": 66,
      "hit": false,
      "t": 44999.860500000126,
      "d": 9.920604166669364,
      "v": 103
    },
    {
      "midi": 50,
      "hit": false,
      "t": 45118.90774999952,
      "d": 114.08694791666494,
      "v": 78
    },
    {
      "midi": 62,
      "hit": false,
      "t": 45118.90775000013,
      "d": 9.920604166669364,
      "v": 103
    },
    {
      "midi": 66,
      "hit": false,
      "t": 45118.90775000013,
      "d": 9.920604166669364,
      "v": 103
    },
    {
      "midi": 38,
      "hit": false,
      "t": 45237.954999999514,
      "d": 114.08694791666494,
      "v": 78
    },
    {
      "midi": 38,
      "hit": false,
      "t": 45237.954999999885,
      "d": 173.61057291666657,
      "v": 59
    },
    {
      "midi": 38,
      "hit": false,
      "t": 45237.95499999995,
      "d": 208.33268749999843,
      "v": 68
    },
    {
      "midi": 38,
      "hit": false,
      "t": 45357.00224999951,
      "d": 114.08694791666494,
      "v": 78
    },
    {
      "midi": 50,
      "hit": false,
      "t": 45476.049499999506,
      "d": 114.08694791666494,
      "v": 78
    },
    {
      "midi": 50,
      "hit": false,
      "t": 45476.049499999885,
      "d": 173.61057291666657,
      "v": 70
    },
    {
      "midi": 38,
      "hit": false,
      "t": 45476.04949999995,
      "d": 208.33268749999843,
      "v": 68
    },
    {
      "midi": 62,
      "hit": false,
      "t": 45476.04950000013,
      "d": 9.920604166669364,
      "v": 103
    },
    {
      "midi": 66,
      "hit": false,
      "t": 45476.04950000013,
      "d": 9.920604166669364,
      "v": 103
    },
    {
      "midi": 50,
      "hit": false,
      "t": 45595.0967499995,
      "d": 114.08694791666494,
      "v": 78
    },
    {
      "midi": 62,
      "hit": false,
      "t": 45595.096750000135,
      "d": 9.920604166669364,
      "v": 103
    },
    {
      "midi": 66,
      "hit": false,
      "t": 45595.096750000135,
      "d": 9.920604166669364,
      "v": 103
    },
    {
      "midi": 33,
      "hit": false,
      "t": 45714.1439999995,
      "d": 114.08694791666494,
      "v": 78
    },
    {
      "midi": 33,
      "hit": false,
      "t": 45714.143999999884,
      "d": 173.61057291666657,
      "v": 74
    },
    {
      "midi": 33,
      "hit": false,
      "t": 45714.14399999995,
      "d": 208.33268749999843,
      "v": 68
    },
    {
      "midi": 61,
      "hit": false,
      "t": 45714.14400000001,
      "d": 1423.6066979166644,
      "v": 58
    },
    {
      "midi": 64,
      "hit": false,
      "t": 45714.14400000001,
      "d": 1423.6066979166644,
      "v": 58
    },
    {
      "midi": 69,
      "hit": false,
      "t": 45714.14400000001,
      "d": 1423.6066979166644,
      "v": 58
    },
    {
      "midi": 33,
      "hit": false,
      "t": 45833.191249999494,
      "d": 114.08694791666494,
      "v": 78
    },
    {
      "midi": 45,
      "hit": false,
      "t": 45952.23849999949,
      "d": 114.08694791666494,
      "v": 78
    },
    {
      "midi": 45,
      "hit": false,
      "t": 45952.23849999988,
      "d": 173.61057291666657,
      "v": 70
    },
    {
      "midi": 33,
      "hit": false,
      "t": 45952.23849999995,
      "d": 208.33268749999843,
      "v": 68
    },
    {
      "midi": 57,
      "hit": false,
      "t": 45952.23850000014,
      "d": 9.920604166669364,
      "v": 103
    },
    {
      "midi": 61,
      "hit": false,
      "t": 45952.23850000014,
      "d": 9.920604166669364,
      "v": 103
    },
    {
      "midi": 45,
      "hit": false,
      "t": 46071.285749999486,
      "d": 114.08694791666494,
      "v": 78
    },
    {
      "midi": 57,
      "hit": false,
      "t": 46071.28575000014,
      "d": 9.920604166669364,
      "v": 103
    },
    {
      "midi": 61,
      "hit": false,
      "t": 46071.28575000014,
      "d": 9.920604166669364,
      "v": 103
    },
    {
      "midi": 33,
      "hit": false,
      "t": 46190.33299999948,
      "d": 114.08694791666494,
      "v": 78
    },
    {
      "midi": 33,
      "hit": false,
      "t": 46190.33299999988,
      "d": 173.61057291666657,
      "v": 64
    },
    {
      "midi": 33,
      "hit": false,
      "t": 46190.33299999995,
      "d": 208.33268749999843,
      "v": 68
    },
    {
      "midi": 33,
      "hit": false,
      "t": 46309.38024999948,
      "d": 114.08694791666494,
      "v": 78
    },
    {
      "midi": 45,
      "hit": false,
      "t": 46428.427499999474,
      "d": 114.08694791666494,
      "v": 78
    },
    {
      "midi": 45,
      "hit": false,
      "t": 46428.42749999988,
      "d": 173.61057291666657,
      "v": 74
    },
    {
      "midi": 33,
      "hit": false,
      "t": 46428.42749999995,
      "d": 208.33268749999843,
      "v": 68
    },
    {
      "midi": 57,
      "hit": false,
      "t": 46428.42750000014,
      "d": 9.920604166669364,
      "v": 103
    },
    {
      "midi": 61,
      "hit": false,
      "t": 46428.42750000014,
      "d": 9.920604166669364,
      "v": 103
    },
    {
      "midi": 45,
      "hit": false,
      "t": 46547.47474999947,
      "d": 114.08694791666494,
      "v": 78
    },
    {
      "midi": 57,
      "hit": false,
      "t": 46547.47475000015,
      "d": 9.920604166669364,
      "v": 103
    },
    {
      "midi": 61,
      "hit": false,
      "t": 46547.47475000015,
      "d": 9.920604166669364,
      "v": 103
    },
    {
      "midi": 33,
      "hit": false,
      "t": 46666.521999999466,
      "d": 114.08694791666494,
      "v": 78
    },
    {
      "midi": 33,
      "hit": false,
      "t": 46666.52199999988,
      "d": 173.61057291666657,
      "v": 50
    },
    {
      "midi": 33,
      "hit": false,
      "t": 46666.521999999946,
      "d": 208.33268749999843,
      "v": 68
    },
    {
      "midi": 33,
      "hit": false,
      "t": 46785.56924999946,
      "d": 114.08694791666494,
      "v": 78
    },
    {
      "midi": 45,
      "hit": false,
      "t": 46904.61649999946,
      "d": 114.08694791666494,
      "v": 78
    },
    {
      "midi": 45,
      "hit": false,
      "t": 46904.61649999988,
      "d": 173.61057291666657,
      "v": 73
    },
    {
      "midi": 33,
      "hit": false,
      "t": 46904.616499999946,
      "d": 208.33268749999843,
      "v": 68
    },
    {
      "midi": 57,
      "hit": false,
      "t": 46904.61650000015,
      "d": 9.920604166669364,
      "v": 103
    },
    {
      "midi": 61,
      "hit": false,
      "t": 46904.61650000015,
      "d": 9.920604166669364,
      "v": 103
    },
    {
      "midi": 45,
      "hit": false,
      "t": 47023.663749999454,
      "d": 114.08694791666494,
      "v": 78
    },
    {
      "midi": 57,
      "hit": false,
      "t": 47023.66375000015,
      "d": 9.920604166669364,
      "v": 103
    },
    {
      "midi": 61,
      "hit": false,
      "t": 47023.66375000015,
      "d": 9.920604166669364,
      "v": 103
    },
    {
      "midi": 33,
      "hit": false,
      "t": 47142.71099999945,
      "d": 114.08694791666494,
      "v": 78
    },
    {
      "midi": 33,
      "hit": false,
      "t": 47142.71099999988,
      "d": 173.61057291666657,
      "v": 66
    },
    {
      "midi": 33,
      "hit": false,
      "t": 47142.710999999945,
      "d": 208.33268749999843,
      "v": 68
    },
    {
      "midi": 61,
      "hit": false,
      "t": 47142.711,
      "d": 471.22869791666744,
      "v": 58
    },
    {
      "midi": 64,
      "hit": false,
      "t": 47142.711,
      "d": 471.22869791666744,
      "v": 58
    },
    {
      "midi": 69,
      "hit": false,
      "t": 47142.711,
      "d": 471.22869791666744,
      "v": 58
    },
    {
      "midi": 33,
      "hit": false,
      "t": 47261.758249999446,
      "d": 114.08694791666494,
      "v": 78
    },
    {
      "midi": 45,
      "hit": false,
      "t": 47380.80549999944,
      "d": 114.08694791666494,
      "v": 78
    },
    {
      "midi": 45,
      "hit": false,
      "t": 47380.80549999988,
      "d": 173.61057291666657,
      "v": 86
    },
    {
      "midi": 33,
      "hit": false,
      "t": 47380.805499999944,
      "d": 208.33268749999843,
      "v": 68
    },
    {
      "midi": 57,
      "hit": false,
      "t": 47380.805500000155,
      "d": 9.920604166669364,
      "v": 103
    },
    {
      "midi": 61,
      "hit": false,
      "t": 47380.805500000155,
      "d": 9.920604166669364,
      "v": 103
    },
    {
      "midi": 45,
      "hit": false,
      "t": 47499.85274999944,
      "d": 114.08694791666494,
      "v": 78
    },
    {
      "midi": 57,
      "hit": false,
      "t": 47499.85275000016,
      "d": 9.920604166669364,
      "v": 103
    },
    {
      "midi": 61,
      "hit": false,
      "t": 47499.85275000016,
      "d": 9.920604166669364,
      "v": 103
    },
    {
      "midi": 36,
      "hit": false,
      "t": 47618.899999999434,
      "d": 114.08694791666494,
      "v": 78
    },
    {
      "midi": 36,
      "hit": false,
      "t": 47618.89999999988,
      "d": 173.61057291666657,
      "v": 74
    },
    {
      "midi": 36,
      "hit": false,
      "t": 47618.89999999994,
      "d": 208.33268749999843,
      "v": 68
    },
    {
      "midi": 60,
      "hit": false,
      "t": 47618.9,
      "d": 1899.7956979166702,
      "v": 88
    },
    {
      "midi": 64,
      "hit": false,
      "t": 47618.9,
      "d": 1899.7956979166702,
      "v": 58
    },
    {
      "midi": 67,
      "hit": false,
      "t": 47618.9,
      "d": 1899.7956979166702,
      "v": 58
    },
    {
      "midi": 72,
      "hit": false,
      "t": 47618.9,
      "d": 1899.7956979166702,
      "v": 58
    },
    {
      "midi": 36,
      "hit": false,
      "t": 47737.94724999943,
      "d": 114.08694791666494,
      "v": 78
    },
    {
      "midi": 48,
      "hit": false,
      "t": 47856.994499999426,
      "d": 114.08694791666494,
      "v": 78
    },
    {
      "midi": 48,
      "hit": false,
      "t": 47856.99449999988,
      "d": 173.61057291666657,
      "v": 70
    },
    {
      "midi": 36,
      "hit": false,
      "t": 47856.99449999994,
      "d": 208.33268749999843,
      "v": 68
    },
    {
      "midi": 60,
      "hit": false,
      "t": 47856.99450000016,
      "d": 9.920604166669364,
      "v": 103
    },
    {
      "midi": 64,
      "hit": false,
      "t": 47856.99450000016,
      "d": 9.920604166669364,
      "v": 103
    },
    {
      "midi": 48,
      "hit": false,
      "t": 47976.04174999942,
      "d": 114.08694791666494,
      "v": 78
    },
    {
      "midi": 60,
      "hit": false,
      "t": 47976.041750000164,
      "d": 9.920604166669364,
      "v": 103
    },
    {
      "midi": 64,
      "hit": false,
      "t": 47976.041750000164,
      "d": 9.920604166669364,
      "v": 103
    },
    {
      "midi": 36,
      "hit": false,
      "t": 48095.08899999942,
      "d": 114.08694791666494,
      "v": 78
    },
    {
      "midi": 36,
      "hit": false,
      "t": 48095.088999999876,
      "d": 173.61057291666657,
      "v": 64
    },
    {
      "midi": 36,
      "hit": false,
      "t": 48095.08899999994,
      "d": 208.33268749999843,
      "v": 68
    },
    {
      "midi": 36,
      "hit": false,
      "t": 48214.136249999414,
      "d": 114.08694791666494,
      "v": 78
    },
    {
      "midi": 48,
      "hit": false,
      "t": 48333.18349999941,
      "d": 114.08694791666494,
      "v": 78
    },
    {
      "midi": 48,
      "hit": false,
      "t": 48333.183499999875,
      "d": 173.61057291666657,
      "v": 74
    },
    {
      "midi": 36,
      "hit": false,
      "t": 48333.18349999994,
      "d": 208.33268749999843,
      "v": 68
    },
    {
      "midi": 60,
      "hit": false,
      "t": 48333.18350000017,
      "d": 9.920604166669364,
      "v": 103
    },
    {
      "midi": 64,
      "hit": false,
      "t": 48333.18350000017,
      "d": 9.920604166669364,
      "v": 103
    },
    {
      "midi": 48,
      "hit": false,
      "t": 48452.230749999406,
      "d": 114.08694791666494,
      "v": 78
    },
    {
      "midi": 60,
      "hit": false,
      "t": 48452.23075000017,
      "d": 9.920604166669364,
      "v": 103
    },
    {
      "midi": 64,
      "hit": false,
      "t": 48452.23075000017,
      "d": 9.920604166669364,
      "v": 103
    },
    {
      "midi": 36,
      "hit": false,
      "t": 48571.2779999994,
      "d": 114.08694791666494,
      "v": 78
    },
    {
      "midi": 36,
      "hit": false,
      "t": 48571.277999999875,
      "d": 173.61057291666657,
      "v": 50
    },
    {
      "midi": 36,
      "hit": false,
      "t": 48571.27799999994,
      "d": 208.33268749999843,
      "v": 68
    },
    {
      "midi": 36,
      "hit": false,
      "t": 48690.3252499994,
      "d": 114.08694791666494,
      "v": 78
    },
    {
      "midi": 48,
      "hit": false,
      "t": 48809.372499999394,
      "d": 114.08694791666494,
      "v": 78
    },
    {
      "midi": 48,
      "hit": false,
      "t": 48809.372499999874,
      "d": 173.61057291666657,
      "v": 73
    },
    {
      "midi": 36,
      "hit": false,
      "t": 48809.37249999994,
      "d": 208.33268749999843,
      "v": 68
    },
    {
      "midi": 60,
      "hit": false,
      "t": 48809.37250000017,
      "d": 9.920604166669364,
      "v": 103
    },
    {
      "midi": 64,
      "hit": false,
      "t": 48809.37250000017,
      "d": 9.920604166669364,
      "v": 103
    },
    {
      "midi": 48,
      "hit": false,
      "t": 48928.41974999939,
      "d": 114.08694791666494,
      "v": 78
    },
    {
      "midi": 60,
      "hit": false,
      "t": 48928.419750000176,
      "d": 9.920604166669364,
      "v": 103
    },
    {
      "midi": 64,
      "hit": false,
      "t": 48928.419750000176,
      "d": 9.920604166669364,
      "v": 103
    },
    {
      "midi": 36,
      "hit": false,
      "t": 49047.466999999386,
      "d": 114.08694791666494,
      "v": 78
    },
    {
      "midi": 36,
      "hit": false,
      "t": 49047.46699999987,
      "d": 173.61057291666657,
      "v": 66
    },
    {
      "midi": 36,
      "hit": false,
      "t": 49047.46699999994,
      "d": 208.33268749999843,
      "v": 68
    },
    {
      "midi": 36,
      "hit": false,
      "t": 49166.51424999938,
      "d": 114.08694791666494,
      "v": 78
    },
    {
      "midi": 48,
      "hit": false,
      "t": 49285.56149999938,
      "d": 114.08694791666494,
      "v": 78
    },
    {
      "midi": 48,
      "hit": false,
      "t": 49285.56149999987,
      "d": 173.61057291666657,
      "v": 86
    },
    {
      "midi": 36,
      "hit": false,
      "t": 49285.56149999994,
      "d": 208.33268749999843,
      "v": 68
    },
    {
      "midi": 60,
      "hit": false,
      "t": 49285.56150000018,
      "d": 9.920604166669364,
      "v": 103
    },
    {
      "midi": 64,
      "hit": false,
      "t": 49285.56150000018,
      "d": 9.920604166669364,
      "v": 103
    },
    {
      "midi": 48,
      "hit": false,
      "t": 49404.608749999374,
      "d": 114.08694791666494,
      "v": 78
    },
    {
      "midi": 60,
      "hit": false,
      "t": 49404.60875000018,
      "d": 9.920604166669364,
      "v": 103
    },
    {
      "midi": 64,
      "hit": false,
      "t": 49404.60875000018,
      "d": 9.920604166669364,
      "v": 103
    },
    {
      "midi": 43,
      "hit": false,
      "t": 49523.65599999937,
      "d": 114.08694791666494,
      "v": 78
    },
    {
      "midi": 31,
      "hit": false,
      "t": 49523.65599999987,
      "d": 173.61057291666657,
      "v": 76
    },
    {
      "midi": 31,
      "hit": false,
      "t": 49523.65599999994,
      "d": 208.33268749999843,
      "v": 68
    },
    {
      "midi": 62,
      "hit": false,
      "t": 49523.656,
      "d": 1423.6066979166644,
      "v": 58
    },
    {
      "midi": 59,
      "hit": false,
      "t": 49523.656,
      "d": 1899.795697916663,
      "v": 88
    },
    {
      "midi": 67,
      "hit": false,
      "t": 49523.656,
      "d": 1899.795697916663,
      "v": 58
    },
    {
      "midi": 71,
      "hit": false,
      "t": 49523.656,
      "d": 1899.795697916663,
      "v": 58
    },
    {
      "midi": 43,
      "hit": false,
      "t": 49642.703249999366,
      "d": 114.08694791666494,
      "v": 78
    },
    {
      "midi": 55,
      "hit": false,
      "t": 49761.75049999936,
      "d": 114.08694791666494,
      "v": 78
    },
    {
      "midi": 43,
      "hit": false,
      "t": 49761.75049999987,
      "d": 173.61057291666657,
      "v": 82
    },
    {
      "midi": 31,
      "hit": false,
      "t": 49761.75049999994,
      "d": 208.33268749999843,
      "v": 68
    },
    {
      "midi": 67,
      "hit": false,
      "t": 49761.750500000184,
      "d": 9.920604166669364,
      "v": 103
    },
    {
      "midi": 71,
      "hit": false,
      "t": 49761.750500000184,
      "d": 9.920604166669364,
      "v": 103
    },
    {
      "midi": 55,
      "hit": false,
      "t": 49880.79774999936,
      "d": 114.08694791666494,
      "v": 78
    },
    {
      "midi": 67,
      "hit": false,
      "t": 49880.79775000019,
      "d": 9.920604166669364,
      "v": 103
    },
    {
      "midi": 71,
      "hit": false,
      "t": 49880.79775000019,
      "d": 9.920604166669364,
      "v": 103
    },
    {
      "midi": 43,
      "hit": false,
      "t": 49999.84499999935,
      "d": 114.08694791666494,
      "v": 78
    },
    {
      "midi": 31,
      "hit": false,
      "t": 49999.84499999987,
      "d": 173.61057291666657,
      "v": 62
    },
    {
      "midi": 31,
      "hit": false,
      "t": 49999.844999999936,
      "d": 208.33268749999843,
      "v": 68
    },
    {
      "midi": 43,
      "hit": false,
      "t": 50118.89224999935,
      "d": 114.08694791666494,
      "v": 78
    },
    {
      "midi": 55,
      "hit": false,
      "t": 50237.939499999346,
      "d": 114.08694791666494,
      "v": 78
    },
    {
      "midi": 43,
      "hit": false,
      "t": 50237.93949999987,
      "d": 173.61057291666657,
      "v": 78
    },
    {
      "midi": 31,
      "hit": false,
      "t": 50237.939499999935,
      "d": 208.33268749999843,
      "v": 68
    },
    {
      "midi": 67,
      "hit": false,
      "t": 50237.93950000019,
      "d": 9.920604166669364,
      "v": 103
    },
    {
      "midi": 71,
      "hit": false,
      "t": 50237.93950000019,
      "d": 9.920604166669364,
      "v": 103
    },
    {
      "midi": 55,
      "hit": false,
      "t": 50356.98674999934,
      "d": 114.08694791666494,
      "v": 78
    },
    {
      "midi": 67,
      "hit": false,
      "t": 50356.98675000019,
      "d": 9.920604166669364,
      "v": 103
    },
    {
      "midi": 71,
      "hit": false,
      "t": 50356.98675000019,
      "d": 9.920604166669364,
      "v": 103
    },
    {
      "midi": 43,
      "hit": false,
      "t": 50476.03399999934,
      "d": 114.08694791666494,
      "v": 78
    },
    {
      "midi": 31,
      "hit": false,
      "t": 50476.03399999987,
      "d": 173.61057291666657,
      "v": 67
    },
    {
      "midi": 31,
      "hit": false,
      "t": 50476.033999999934,
      "d": 208.33268749999843,
      "v": 68
    },
    {
      "midi": 43,
      "hit": false,
      "t": 50595.08124999933,
      "d": 114.08694791666494,
      "v": 78
    },
    {
      "midi": 55,
      "hit": false,
      "t": 50714.12849999933,
      "d": 114.08694791666494,
      "v": 78
    },
    {
      "midi": 43,
      "hit": false,
      "t": 50714.12849999987,
      "d": 173.61057291666657,
      "v": 70
    },
    {
      "midi": 31,
      "hit": false,
      "t": 50714.12849999993,
      "d": 208.33268749999843,
      "v": 68
    },
    {
      "midi": 67,
      "hit": false,
      "t": 50714.128500000195,
      "d": 9.920604166669364,
      "v": 103
    },
    {
      "midi": 71,
      "hit": false,
      "t": 50714.128500000195,
      "d": 9.920604166669364,
      "v": 103
    },
    {
      "midi": 55,
      "hit": false,
      "t": 50833.175749999325,
      "d": 114.08694791666494,
      "v": 78
    },
    {
      "midi": 67,
      "hit": false,
      "t": 50833.1757500002,
      "d": 9.920604166669364,
      "v": 103
    },
    {
      "midi": 71,
      "hit": false,
      "t": 50833.1757500002,
      "d": 9.920604166669364,
      "v": 103
    },
    {
      "midi": 43,
      "hit": false,
      "t": 50952.22299999932,
      "d": 114.08694791666494,
      "v": 78
    },
    {
      "midi": 31,
      "hit": false,
      "t": 50952.22299999987,
      "d": 173.61057291666657,
      "v": 56
    },
    {
      "midi": 31,
      "hit": false,
      "t": 50952.22299999993,
      "d": 208.33268749999843,
      "v": 68
    },
    {
      "midi": 43,
      "hit": false,
      "t": 51071.27024999932,
      "d": 114.08694791666494,
      "v": 78
    },
    {
      "midi": 55,
      "hit": false,
      "t": 51190.31749999931,
      "d": 114.08694791666494,
      "v": 78
    },
    {
      "midi": 43,
      "hit": false,
      "t": 51190.31749999987,
      "d": 173.61057291666657,
      "v": 70
    },
    {
      "midi": 31,
      "hit": false,
      "t": 51190.31749999993,
      "d": 208.33268749999843,
      "v": 68
    },
    {
      "midi": 67,
      "hit": false,
      "t": 51190.3175000002,
      "d": 9.920604166669364,
      "v": 103
    },
    {
      "midi": 71,
      "hit": false,
      "t": 51190.3175000002,
      "d": 9.920604166669364,
      "v": 103
    },
    {
      "midi": 55,
      "hit": false,
      "t": 51309.36474999931,
      "d": 114.08694791666494,
      "v": 78
    },
    {
      "midi": 67,
      "hit": false,
      "t": 51309.364750000204,
      "d": 9.920604166669364,
      "v": 103
    },
    {
      "midi": 71,
      "hit": false,
      "t": 51309.364750000204,
      "d": 9.920604166669364,
      "v": 103
    },
    {
      "midi": 36,
      "hit": false,
      "t": 51428.411999999305,
      "d": 114.08694791666494,
      "v": 78
    },
    {
      "midi": 36,
      "hit": false,
      "t": 51428.411999999866,
      "d": 173.61057291666657,
      "v": 74
    },
    {
      "midi": 36,
      "hit": false,
      "t": 51428.41199999993,
      "d": 208.33268749999843,
      "v": 68
    },
    {
      "midi": 60,
      "hit": false,
      "t": 51428.412,
      "d": 1423.6066979166644,
      "v": 88
    },
    {
      "midi": 64,
      "hit": false,
      "t": 51428.412,
      "d": 1423.6066979166644,
      "v": 58
    },
    {
      "midi": 67,
      "hit": false,
      "t": 51428.412,
      "d": 1423.6066979166644,
      "v": 58
    },
    {
      "midi": 72,
      "hit": false,
      "t": 51428.412,
      "d": 1423.6066979166644,
      "v": 58
    },
    {
      "midi": 36,
      "hit": false,
      "t": 51547.4592499993,
      "d": 114.08694791666494,
      "v": 78
    },
    {
      "midi": 48,
      "hit": false,
      "t": 51666.5064999993,
      "d": 114.08694791666494,
      "v": 78
    },
    {
      "midi": 48,
      "hit": false,
      "t": 51666.506499999865,
      "d": 173.61057291666657,
      "v": 70
    },
    {
      "midi": 36,
      "hit": false,
      "t": 51666.50649999993,
      "d": 208.33268749999843,
      "v": 68
    },
    {
      "midi": 60,
      "hit": false,
      "t": 51666.50650000021,
      "d": 9.920604166669364,
      "v": 103
    },
    {
      "midi": 64,
      "hit": false,
      "t": 51666.50650000021,
      "d": 9.920604166669364,
      "v": 103
    },
    {
      "midi": 48,
      "hit": false,
      "t": 51785.55374999929,
      "d": 114.08694791666494,
      "v": 78
    },
    {
      "midi": 60,
      "hit": false,
      "t": 51785.55375000021,
      "d": 9.920604166669364,
      "v": 103
    },
    {
      "midi": 64,
      "hit": false,
      "t": 51785.55375000021,
      "d": 9.920604166669364,
      "v": 103
    },
    {
      "midi": 36,
      "hit": false,
      "t": 51904.60099999929,
      "d": 114.08694791666494,
      "v": 78
    },
    {
      "midi": 36,
      "hit": false,
      "t": 51904.600999999864,
      "d": 173.61057291666657,
      "v": 64
    },
    {
      "midi": 36,
      "hit": false,
      "t": 51904.60099999993,
      "d": 208.33268749999843,
      "v": 68
    },
    {
      "midi": 36,
      "hit": false,
      "t": 52023.648249999285,
      "d": 114.08694791666494,
      "v": 78
    },
    {
      "midi": 48,
      "hit": false,
      "t": 52142.69549999928,
      "d": 114.08694791666494,
      "v": 78
    },
    {
      "midi": 48,
      "hit": false,
      "t": 52142.69549999986,
      "d": 173.61057291666657,
      "v": 74
    },
    {
      "midi": 36,
      "hit": false,
      "t": 52142.69549999993,
      "d": 208.33268749999843,
      "v": 68
    },
    {
      "midi": 60,
      "hit": false,
      "t": 52142.69550000021,
      "d": 9.920604166669364,
      "v": 103
    },
    {
      "midi": 64,
      "hit": false,
      "t": 52142.69550000021,
      "d": 9.920604166669364,
      "v": 103
    },
    {
      "midi": 48,
      "hit": false,
      "t": 52261.74274999928,
      "d": 114.08694791666494,
      "v": 78
    },
    {
      "midi": 60,
      "hit": false,
      "t": 52261.742750000216,
      "d": 9.920604166669364,
      "v": 103
    },
    {
      "midi": 64,
      "hit": false,
      "t": 52261.742750000216,
      "d": 9.920604166669364,
      "v": 103
    },
    {
      "midi": 36,
      "hit": false,
      "t": 52380.78999999927,
      "d": 114.08694791666494,
      "v": 78
    },
    {
      "midi": 36,
      "hit": false,
      "t": 52380.78999999986,
      "d": 173.61057291666657,
      "v": 50
    },
    {
      "midi": 36,
      "hit": false,
      "t": 52380.78999999993,
      "d": 208.33268749999843,
      "v": 68
    },
    {
      "midi": 36,
      "hit": false,
      "t": 52499.83724999927,
      "d": 114.08694791666494,
      "v": 78
    },
    {
      "midi": 48,
      "hit": false,
      "t": 52618.884499999265,
      "d": 114.08694791666494,
      "v": 78
    },
    {
      "midi": 48,
      "hit": false,
      "t": 52618.88449999986,
      "d": 173.61057291666657,
      "v": 73
    },
    {
      "midi": 36,
      "hit": false,
      "t": 52618.88449999993,
      "d": 208.33268749999843,
      "v": 68
    },
    {
      "midi": 60,
      "hit": false,
      "t": 52618.88450000022,
      "d": 9.920604166669364,
      "v": 103
    },
    {
      "midi": 64,
      "hit": false,
      "t": 52618.88450000022,
      "d": 9.920604166669364,
      "v": 103
    },
    {
      "midi": 48,
      "hit": false,
      "t": 52737.93174999926,
      "d": 114.08694791666494,
      "v": 78
    },
    {
      "midi": 60,
      "hit": false,
      "t": 52737.93175000022,
      "d": 9.920604166669364,
      "v": 103
    },
    {
      "midi": 64,
      "hit": false,
      "t": 52737.93175000022,
      "d": 9.920604166669364,
      "v": 103
    },
    {
      "midi": 35,
      "hit": false,
      "t": 52856.97899999926,
      "d": 114.08694791666494,
      "v": 78
    },
    {
      "midi": 35,
      "hit": false,
      "t": 52856.97899999986,
      "d": 173.61057291666657,
      "v": 66
    },
    {
      "midi": 35,
      "hit": false,
      "t": 52856.97899999993,
      "d": 208.33268749999843,
      "v": 68
    },
    {
      "midi": 59,
      "hit": false,
      "t": 52856.97899999999,
      "d": 471.22869791666744,
      "v": 88
    },
    {
      "midi": 62,
      "hit": false,
      "t": 52856.97899999999,
      "d": 471.22869791666744,
      "v": 58
    },
    {
      "midi": 67,
      "hit": false,
      "t": 52856.97899999999,
      "d": 471.22869791666744,
      "v": 58
    },
    {
      "midi": 71,
      "hit": false,
      "t": 52856.97899999999,
      "d": 471.22869791666744,
      "v": 58
    },
    {
      "midi": 35,
      "hit": false,
      "t": 52976.02624999925,
      "d": 114.08694791666494,
      "v": 78
    },
    {
      "midi": 47,
      "hit": false,
      "t": 53095.07349999925,
      "d": 114.08694791666494,
      "v": 78
    },
    {
      "midi": 47,
      "hit": false,
      "t": 53095.07349999986,
      "d": 173.61057291666657,
      "v": 86
    },
    {
      "midi": 35,
      "hit": false,
      "t": 53095.073499999926,
      "d": 208.33268749999843,
      "v": 68
    },
    {
      "midi": 59,
      "hit": false,
      "t": 53095.073500000224,
      "d": 9.920604166669364,
      "v": 103
    },
    {
      "midi": 62,
      "hit": false,
      "t": 53095.073500000224,
      "d": 9.920604166669364,
      "v": 103
    },
    {
      "midi": 47,
      "hit": false,
      "t": 53214.120749999245,
      "d": 114.08694791666494,
      "v": 78
    },
    {
      "midi": 59,
      "hit": false,
      "t": 53214.12075000023,
      "d": 9.920604166669364,
      "v": 103
    },
    {
      "midi": 62,
      "hit": false,
      "t": 53214.12075000023,
      "d": 9.920604166669364,
      "v": 103
    },
    {
      "midi": 33,
      "hit": false,
      "t": 53333.16799999924,
      "d": 114.08694791666494,
      "v": 78
    },
    {
      "midi": 33,
      "hit": false,
      "t": 53333.16799999986,
      "d": 173.61057291666657,
      "v": 74
    },
    {
      "midi": 33,
      "hit": false,
      "t": 53333.167999999925,
      "d": 208.33268749999843,
      "v": 68
    },
    {
      "midi": 57,
      "hit": false,
      "t": 53333.16799999999,
      "d": 947.4176979166659,
      "v": 88
    },
    {
      "midi": 64,
      "hit": false,
      "t": 53333.16799999999,
      "d": 947.4176979166659,
      "v": 58
    },
    {
      "midi": 69,
      "hit": false,
      "t": 53333.16799999999,
      "d": 947.4176979166659,
      "v": 58
    },
    {
      "midi": 72,
      "hit": false,
      "t": 53333.16799999999,
      "d": 947.4176979166659,
      "v": 58
    },
    {
      "midi": 33,
      "hit": false,
      "t": 53452.21524999924,
      "d": 114.08694791666494,
      "v": 78
    },
    {
      "midi": 45,
      "hit": false,
      "t": 53571.26249999923,
      "d": 114.08694791666494,
      "v": 78
    },
    {
      "midi": 45,
      "hit": false,
      "t": 53571.26249999986,
      "d": 173.61057291666657,
      "v": 70
    },
    {
      "midi": 33,
      "hit": false,
      "t": 53571.262499999924,
      "d": 208.33268749999843,
      "v": 68
    },
    {
      "midi": 57,
      "hit": false,
      "t": 53571.26250000023,
      "d": 9.920604166669364,
      "v": 75
    },
    {
      "midi": 60,
      "hit": false,
      "t": 53571.26250000023,
      "d": 9.920604166669364,
      "v": 67
    },
    {
      "midi": 45,
      "hit": false,
      "t": 53690.30974999923,
      "d": 114.08694791666494,
      "v": 78
    },
    {
      "midi": 57,
      "hit": false,
      "t": 53690.30975000023,
      "d": 9.920604166669364,
      "v": 86
    },
    {
      "midi": 60,
      "hit": false,
      "t": 53690.30975000023,
      "d": 9.920604166669364,
      "v": 77
    },
    {
      "midi": 33,
      "hit": false,
      "t": 53809.356999999225,
      "d": 114.08694791666494,
      "v": 78
    },
    {
      "midi": 33,
      "hit": false,
      "t": 53809.35699999986,
      "d": 173.61057291666657,
      "v": 64
    },
    {
      "midi": 33,
      "hit": false,
      "t": 53809.35699999992,
      "d": 208.33268749999843,
      "v": 68
    },
    {
      "midi": 33,
      "hit": false,
      "t": 53928.40424999922,
      "d": 114.08694791666494,
      "v": 78
    },
    {
      "midi": 45,
      "hit": false,
      "t": 54047.45149999922,
      "d": 114.08694791666494,
      "v": 78
    },
    {
      "midi": 45,
      "hit": false,
      "t": 54047.45149999986,
      "d": 173.61057291666657,
      "v": 74
    },
    {
      "midi": 33,
      "hit": false,
      "t": 54047.45149999992,
      "d": 208.33268749999843,
      "v": 68
    },
    {
      "midi": 57,
      "hit": false,
      "t": 54047.451500000236,
      "d": 9.920604166669364,
      "v": 86
    },
    {
      "midi": 60,
      "hit": false,
      "t": 54047.451500000236,
      "d": 9.920604166669364,
      "v": 71
    },
    {
      "midi": 45,
      "hit": false,
      "t": 54166.49874999921,
      "d": 114.08694791666494,
      "v": 78
    },
    {
      "midi": 57,
      "hit": false,
      "t": 54166.49875000024,
      "d": 9.920604166669364,
      "v": 88
    },
    {
      "midi": 60,
      "hit": false,
      "t": 54166.49875000024,
      "d": 9.920604166669364,
      "v": 75
    },
    {
      "midi": 43,
      "hit": false,
      "t": 54285.54599999921,
      "d": 114.08694791666494,
      "v": 78
    },
    {
      "midi": 43,
      "hit": false,
      "t": 54285.54599999986,
      "d": 173.61057291666657,
      "v": 50
    },
    {
      "midi": 43,
      "hit": false,
      "t": 54285.54599999992,
      "d": 208.33268749999843,
      "v": 68
    },
    {
      "midi": 55,
      "hit": false,
      "t": 54285.54599999999,
      "d": 471.22869791666744,
      "v": 88
    },
    {
      "midi": 64,
      "hit": false,
      "t": 54285.54599999999,
      "d": 947.4176979166659,
      "v": 58
    },
    {
      "midi": 67,
      "hit": false,
      "t": 54285.54599999999,
      "d": 947.4176979166659,
      "v": 58
    },
    {
      "midi": 71,
      "hit": false,
      "t": 54285.54599999999,
      "d": 947.4176979166659,
      "v": 58
    },
    {
      "midi": 43,
      "hit": false,
      "t": 54404.593249999205,
      "d": 114.08694791666494,
      "v": 78
    },
    {
      "midi": 55,
      "hit": false,
      "t": 54523.6404999992,
      "d": 114.08694791666494,
      "v": 78
    },
    {
      "midi": 55,
      "hit": false,
      "t": 54523.640499999856,
      "d": 173.61057291666657,
      "v": 73
    },
    {
      "midi": 43,
      "hit": false,
      "t": 54523.64049999992,
      "d": 208.33268749999843,
      "v": 68
    },
    {
      "midi": 67,
      "hit": false,
      "t": 54523.64050000024,
      "d": 9.920604166669364,
      "v": 86
    },
    {
      "midi": 71,
      "hit": false,
      "t": 54523.64050000024,
      "d": 9.920604166669364,
      "v": 74
    },
    {
      "midi": 55,
      "hit": false,
      "t": 54642.6877499992,
      "d": 114.08694791666494,
      "v": 78
    },
    {
      "midi": 67,
      "hit": false,
      "t": 54642.687750000245,
      "d": 9.920604166669364,
      "v": 85
    },
    {
      "midi": 71,
      "hit": false,
      "t": 54642.687750000245,
      "d": 9.920604166669364,
      "v": 78
    },
    {
      "midi": 40,
      "hit": false,
      "t": 54761.73499999919,
      "d": 114.08694791666494,
      "v": 78
    },
    {
      "midi": 40,
      "hit": false,
      "t": 54761.734999999855,
      "d": 173.61057291666657,
      "v": 66
    },
    {
      "midi": 40,
      "hit": false,
      "t": 54761.73499999992,
      "d": 208.33268749999843,
      "v": 68
    },
    {
      "midi": 52,
      "hit": false,
      "t": 54761.734999999986,
      "d": 471.22869791666744,
      "v": 88
    },
    {
      "midi": 40,
      "hit": false,
      "t": 54880.78224999919,
      "d": 114.08694791666494,
      "v": 78
    },
    {
      "midi": 52,
      "hit": false,
      "t": 54999.829499999185,
      "d": 114.08694791666494,
      "v": 78
    },
    {
      "midi": 52,
      "hit": false,
      "t": 54999.829499999854,
      "d": 173.61057291666657,
      "v": 86
    },
    {
      "midi": 40,
      "hit": false,
      "t": 54999.82949999992,
      "d": 208.33268749999843,
      "v": 68
    },
    {
      "midi": 67,
      "hit": false,
      "t": 54999.82950000025,
      "d": 9.920604166669364,
      "v": 92
    },
    {
      "midi": 71,
      "hit": false,
      "t": 54999.82950000025,
      "d": 9.920604166669364,
      "v": 77
    },
    {
      "midi": 52,
      "hit": false,
      "t": 55118.87674999918,
      "d": 114.08694791666494,
      "v": 78
    },
    {
      "midi": 67,
      "hit": false,
      "t": 55118.87675000025,
      "d": 9.920604166669364,
      "v": 90
    },
    {
      "midi": 71,
      "hit": false,
      "t": 55118.87675000025,
      "d": 9.920604166669364,
      "v": 82
    },
    {
      "midi": 38,
      "hit": false,
      "t": 55237.92399999918,
      "d": 114.08694791666494,
      "v": 78
    },
    {
      "midi": 38,
      "hit": false,
      "t": 55237.92399999985,
      "d": 173.61057291666657,
      "v": 70
    },
    {
      "midi": 38,
      "hit": false,
      "t": 55237.92399999992,
      "d": 208.33268749999843,
      "v": 68
    },
    {
      "midi": 50,
      "hit": false,
      "t": 55237.923999999985,
      "d": 1899.7956979166702,
      "v": 88
    },
    {
      "midi": 66,
      "hit": false,
      "t": 55237.923999999985,
      "d": 1899.7956979166702,
      "v": 58
    },
    {
      "midi": 69,
      "hit": false,
      "t": 55237.923999999985,
      "d": 1899.7956979166702,
      "v": 58
    },
    {
      "midi": 74,
      "hit": false,
      "t": 55237.923999999985,
      "d": 1899.7956979166702,
      "v": 58
    },
    {
      "midi": 38,
      "hit": false,
      "t": 55356.97124999917,
      "d": 114.08694791666494,
      "v": 78
    },
    {
      "midi": 50,
      "hit": false,
      "t": 55476.01849999917,
      "d": 114.08694791666494,
      "v": 78
    },
    {
      "midi": 50,
      "hit": false,
      "t": 55476.01849999985,
      "d": 173.61057291666657,
      "v": 62
    },
    {
      "midi": 38,
      "hit": false,
      "t": 55476.01849999992,
      "d": 208.33268749999843,
      "v": 68
    },
    {
      "midi": 62,
      "hit": false,
      "t": 55476.01850000025,
      "d": 9.920604166669364,
      "v": 103
    },
    {
      "midi": 66,
      "hit": false,
      "t": 55476.01850000025,
      "d": 9.920604166669364,
      "v": 103
    },
    {
      "midi": 50,
      "hit": false,
      "t": 55595.065749999165,
      "d": 114.08694791666494,
      "v": 78
    },
    {
      "midi": 62,
      "hit": false,
      "t": 55595.065750000256,
      "d": 9.920604166669364,
      "v": 103
    },
    {
      "midi": 66,
      "hit": false,
      "t": 55595.065750000256,
      "d": 9.920604166669364,
      "v": 103
    },
    {
      "midi": 38,
      "hit": false,
      "t": 55714.11299999916,
      "d": 114.08694791666494,
      "v": 78
    },
    {
      "midi": 38,
      "hit": false,
      "t": 55714.11299999985,
      "d": 173.61057291666657,
      "v": 66
    },
    {
      "midi": 38,
      "hit": false,
      "t": 55714.11299999992,
      "d": 208.33268749999843,
      "v": 68
    },
    {
      "midi": 38,
      "hit": false,
      "t": 55833.16024999916,
      "d": 114.08694791666494,
      "v": 78
    },
    {
      "midi": 50,
      "hit": false,
      "t": 55952.20749999915,
      "d": 114.08694791666494,
      "v": 78
    },
    {
      "midi": 50,
      "hit": false,
      "t": 55952.20749999985,
      "d": 173.61057291666657,
      "v": 67
    },
    {
      "midi": 38,
      "hit": false,
      "t": 55952.20749999992,
      "d": 208.33268749999843,
      "v": 68
    },
    {
      "midi": 62,
      "hit": false,
      "t": 55952.20750000026,
      "d": 9.920604166669364,
      "v": 103
    },
    {
      "midi": 66,
      "hit": false,
      "t": 55952.20750000026,
      "d": 9.920604166669364,
      "v": 103
    },
    {
      "midi": 50,
      "hit": false,
      "t": 56071.25474999915,
      "d": 114.08694791666494,
      "v": 78
    },
    {
      "midi": 62,
      "hit": false,
      "t": 56071.25475000026,
      "d": 9.920604166669364,
      "v": 103
    },
    {
      "midi": 66,
      "hit": false,
      "t": 56071.25475000026,
      "d": 9.920604166669364,
      "v": 103
    },
    {
      "midi": 38,
      "hit": false,
      "t": 56190.301999999145,
      "d": 114.08694791666494,
      "v": 78
    },
    {
      "midi": 38,
      "hit": false,
      "t": 56190.30199999985,
      "d": 173.61057291666657,
      "v": 64
    },
    {
      "midi": 38,
      "hit": false,
      "t": 56190.301999999916,
      "d": 208.33268749999843,
      "v": 68
    },
    {
      "midi": 38,
      "hit": false,
      "t": 56309.34924999914,
      "d": 114.08694791666494,
      "v": 78
    },
    {
      "midi": 50,
      "hit": false,
      "t": 56428.39649999914,
      "d": 114.08694791666494,
      "v": 78
    },
    {
      "midi": 50,
      "hit": false,
      "t": 56428.39649999985,
      "d": 173.61057291666657,
      "v": 66
    },
    {
      "midi": 38,
      "hit": false,
      "t": 56428.396499999915,
      "d": 208.33268749999843,
      "v": 68
    },
    {
      "midi": 62,
      "hit": false,
      "t": 56428.396500000264,
      "d": 9.920604166669364,
      "v": 103
    },
    {
      "midi": 66,
      "hit": false,
      "t": 56428.396500000264,
      "d": 9.920604166669364,
      "v": 103
    },
    {
      "midi": 50,
      "hit": false,
      "t": 56547.44374999913,
      "d": 114.08694791666494,
      "v": 78
    },
    {
      "midi": 62,
      "hit": false,
      "t": 56547.44375000027,
      "d": 9.920604166669364,
      "v": 103
    },
    {
      "midi": 66,
      "hit": false,
      "t": 56547.44375000027,
      "d": 9.920604166669364,
      "v": 103
    },
    {
      "midi": 38,
      "hit": false,
      "t": 56666.49099999913,
      "d": 114.08694791666494,
      "v": 78
    },
    {
      "midi": 38,
      "hit": false,
      "t": 56666.49099999985,
      "d": 173.61057291666657,
      "v": 62
    },
    {
      "midi": 38,
      "hit": false,
      "t": 56666.490999999914,
      "d": 208.33268749999843,
      "v": 68
    },
    {
      "midi": 38,
      "hit": false,
      "t": 56785.538249999125,
      "d": 114.08694791666494,
      "v": 78
    },
    {
      "midi": 50,
      "hit": false,
      "t": 56904.58549999912,
      "d": 114.08694791666494,
      "v": 78
    },
    {
      "midi": 50,
      "hit": false,
      "t": 56904.58549999985,
      "d": 173.61057291666657,
      "v": 73
    },
    {
      "midi": 38,
      "hit": false,
      "t": 56904.585499999914,
      "d": 208.33268749999843,
      "v": 68
    },
    {
      "midi": 62,
      "hit": false,
      "t": 56904.58550000027,
      "d": 9.920604166669364,
      "v": 103
    },
    {
      "midi": 66,
      "hit": false,
      "t": 56904.58550000027,
      "d": 9.920604166669364,
      "v": 103
    },
    {
      "midi": 50,
      "hit": false,
      "t": 57023.63274999912,
      "d": 114.08694791666494,
      "v": 78
    },
    {
      "midi": 62,
      "hit": false,
      "t": 57023.63275000027,
      "d": 9.920604166669364,
      "v": 103
    },
    {
      "midi": 66,
      "hit": false,
      "t": 57023.63275000027,
      "d": 9.920604166669364,
      "v": 103
    },
    {
      "midi": 43,
      "hit": false,
      "t": 57142.67999999911,
      "d": 114.08694791666494,
      "v": 78
    },
    {
      "midi": 31,
      "hit": false,
      "t": 57142.67999999985,
      "d": 173.61057291666657,
      "v": 76
    },
    {
      "midi": 31,
      "hit": false,
      "t": 57142.67999999991,
      "d": 208.33268749999843,
      "v": 68
    },
    {
      "midi": 62,
      "hit": false,
      "t": 57142.679999999986,
      "d": 1899.795697916663,
      "v": 58
    },
    {
      "midi": 67,
      "hit": false,
      "t": 57142.679999999986,
      "d": 1899.795697916663,
      "v": 58
    },
    {
      "midi": 71,
      "hit": false,
      "t": 57142.679999999986,
      "d": 1899.795697916663,
      "v": 58
    },
    {
      "midi": 43,
      "hit": false,
      "t": 57261.72724999911,
      "d": 114.08694791666494,
      "v": 78
    },
    {
      "midi": 55,
      "hit": false,
      "t": 57380.774499999105,
      "d": 114.08694791666494,
      "v": 78
    },
    {
      "midi": 43,
      "hit": false,
      "t": 57380.77449999985,
      "d": 173.61057291666657,
      "v": 82
    },
    {
      "midi": 31,
      "hit": false,
      "t": 57380.77449999991,
      "d": 208.33268749999843,
      "v": 68
    },
    {
      "midi": 67,
      "hit": false,
      "t": 57380.774500000276,
      "d": 9.920604166669364,
      "v": 103
    },
    {
      "midi": 71,
      "hit": false,
      "t": 57380.774500000276,
      "d": 9.920604166669364,
      "v": 103
    },
    {
      "midi": 55,
      "hit": false,
      "t": 57499.8217499991,
      "d": 114.08694791666494,
      "v": 78
    },
    {
      "midi": 67,
      "hit": false,
      "t": 57499.82175000028,
      "d": 9.920604166669364,
      "v": 103
    },
    {
      "midi": 71,
      "hit": false,
      "t": 57499.82175000028,
      "d": 9.920604166669364,
      "v": 103
    },
    {
      "midi": 43,
      "hit": false,
      "t": 57618.8689999991,
      "d": 114.08694791666494,
      "v": 78
    },
    {
      "midi": 31,
      "hit": false,
      "t": 57618.868999999846,
      "d": 173.61057291666657,
      "v": 62
    },
    {
      "midi": 31,
      "hit": false,
      "t": 57618.86899999991,
      "d": 208.33268749999843,
      "v": 68
    },
    {
      "midi": 55,
      "hit": false,
      "t": 57618.868999999984,
      "d": 208.33268749999843,
      "v": 109
    },
    {
      "midi": 43,
      "hit": false,
      "t": 57737.91624999909,
      "d": 114.08694791666494,
      "v": 78
    },
    {
      "midi": 55,
      "hit": false,
      "t": 57856.96349999909,
      "d": 114.08694791666494,
      "v": 78
    },
    {
      "midi": 43,
      "hit": false,
      "t": 57856.963499999845,
      "d": 173.61057291666657,
      "v": 78
    },
    {
      "midi": 31,
      "hit": false,
      "t": 57856.96349999991,
      "d": 208.33268749999843,
      "v": 68
    },
    {
      "midi": 55,
      "hit": false,
      "t": 57856.96349999998,
      "d": 208.33268749999843,
      "v": 113
    },
    {
      "midi": 67,
      "hit": false,
      "t": 57856.96350000028,
      "d": 9.920604166669364,
      "v": 103
    },
    {
      "midi": 71,
      "hit": false,
      "t": 57856.96350000028,
      "d": 9.920604166669364,
      "v": 103
    },
    {
      "midi": 55,
      "hit": false,
      "t": 57976.010749999085,
      "d": 114.08694791666494,
      "v": 78
    },
    {
      "midi": 67,
      "hit": false,
      "t": 57976.010750000285,
      "d": 9.920604166669364,
      "v": 103
    },
    {
      "midi": 71,
      "hit": false,
      "t": 57976.010750000285,
      "d": 9.920604166669364,
      "v": 103
    },
    {
      "midi": 43,
      "hit": false,
      "t": 58095.05799999908,
      "d": 114.08694791666494,
      "v": 78
    },
    {
      "midi": 31,
      "hit": false,
      "t": 58095.057999999844,
      "d": 173.61057291666657,
      "v": 67
    },
    {
      "midi": 31,
      "hit": false,
      "t": 58095.05799999991,
      "d": 208.33268749999843,
      "v": 68
    },
    {
      "midi": 57,
      "hit": false,
      "t": 58095.05799999998,
      "d": 208.33268749999843,
      "v": 106
    },
    {
      "midi": 43,
      "hit": false,
      "t": 58214.10524999908,
      "d": 114.08694791666494,
      "v": 78
    },
    {
      "midi": 55,
      "hit": false,
      "t": 58333.15249999907,
      "d": 114.08694791666494,
      "v": 78
    },
    {
      "midi": 43,
      "hit": false,
      "t": 58333.152499999844,
      "d": 173.61057291666657,
      "v": 70
    },
    {
      "midi": 31,
      "hit": false,
      "t": 58333.15249999991,
      "d": 208.33268749999843,
      "v": 68
    },
    {
      "midi": 57,
      "hit": false,
      "t": 58333.15249999998,
      "d": 208.33268749999843,
      "v": 115
    },
    {
      "midi": 67,
      "hit": false,
      "t": 58333.15250000029,
      "d": 9.920604166669364,
      "v": 103
    },
    {
      "midi": 71,
      "hit": false,
      "t": 58333.15250000029,
      "d": 9.920604166669364,
      "v": 103
    },
    {
      "midi": 55,
      "hit": false,
      "t": 58452.19974999907,
      "d": 114.08694791666494,
      "v": 78
    },
    {
      "midi": 67,
      "hit": false,
      "t": 58452.19975000029,
      "d": 9.920604166669364,
      "v": 103
    },
    {
      "midi": 71,
      "hit": false,
      "t": 58452.19975000029,
      "d": 9.920604166669364,
      "v": 103
    },
    {
      "midi": 43,
      "hit": false,
      "t": 58571.246999999064,
      "d": 114.08694791666494,
      "v": 78
    },
    {
      "midi": 31,
      "hit": false,
      "t": 58571.24699999984,
      "d": 173.61057291666657,
      "v": 56
    },
    {
      "midi": 31,
      "hit": false,
      "t": 58571.24699999991,
      "d": 208.33268749999843,
      "v": 68
    },
    {
      "midi": 59,
      "hit": false,
      "t": 58571.24699999998,
      "d": 208.33268749999843,
      "v": 113
    },
    {
      "midi": 43,
      "hit": false,
      "t": 58690.29424999906,
      "d": 114.08694791666494,
      "v": 78
    },
    {
      "midi": 55,
      "hit": false,
      "t": 58809.34149999906,
      "d": 114.08694791666494,
      "v": 78
    },
    {
      "midi": 43,
      "hit": false,
      "t": 58809.34149999984,
      "d": 173.61057291666657,
      "v": 70
    },
    {
      "midi": 31,
      "hit": false,
      "t": 58809.34149999991,
      "d": 208.33268749999843,
      "v": 68
    },
    {
      "midi": 59,
      "hit": false,
      "t": 58809.34149999998,
      "d": 208.33268749999843,
      "v": 113
    },
    {
      "midi": 67,
      "hit": false,
      "t": 58809.34150000029,
      "d": 9.920604166669364,
      "v": 103
    },
    {
      "midi": 71,
      "hit": false,
      "t": 58809.34150000029,
      "d": 9.920604166669364,
      "v": 103
    },
    {
      "midi": 55,
      "hit": false,
      "t": 58928.38874999905,
      "d": 114.08694791666494,
      "v": 78
    },
    {
      "midi": 67,
      "hit": false,
      "t": 58928.3887500003,
      "d": 9.920604166669364,
      "v": 103
    },
    {
      "midi": 71,
      "hit": false,
      "t": 58928.3887500003,
      "d": 9.920604166669364,
      "v": 103
    },
    {
      "midi": 36,
      "hit": false,
      "t": 59047.43599999905,
      "d": 114.08694791666494,
      "v": 78
    },
    {
      "midi": 36,
      "hit": false,
      "t": 59047.43599999984,
      "d": 173.61057291666657,
      "v": 74
    },
    {
      "midi": 36,
      "hit": false,
      "t": 59047.43599999991,
      "d": 208.33268749999843,
      "v": 68
    },
    {
      "midi": 64,
      "hit": false,
      "t": 59047.43599999998,
      "d": 1423.6066979166644,
      "v": 58
    },
    {
      "midi": 67,
      "hit": false,
      "t": 59047.43599999998,
      "d": 1423.6066979166644,
      "v": 58
    },
    {
      "midi": 72,
      "hit": false,
      "t": 59047.43599999998,
      "d": 1423.6066979166644,
      "v": 58
    },
    {
      "midi": 60,
      "hit": false,
      "t": 59047.43599999998,
      "d": 1899.795697916663,
      "v": 111
    },
    {
      "midi": 36,
      "hit": false,
      "t": 59166.483249999044,
      "d": 114.08694791666494,
      "v": 78
    },
    {
      "midi": 48,
      "hit": false,
      "t": 59285.53049999904,
      "d": 114.08694791666494,
      "v": 78
    },
    {
      "midi": 48,
      "hit": false,
      "t": 59285.53049999984,
      "d": 173.61057291666657,
      "v": 70
    },
    {
      "midi": 36,
      "hit": false,
      "t": 59285.530499999906,
      "d": 208.33268749999843,
      "v": 68
    },
    {
      "midi": 60,
      "hit": false,
      "t": 59285.5305000003,
      "d": 9.920604166669364,
      "v": 103
    },
    {
      "midi": 64,
      "hit": false,
      "t": 59285.5305000003,
      "d": 9.920604166669364,
      "v": 103
    },
    {
      "midi": 48,
      "hit": false,
      "t": 59404.577749999036,
      "d": 114.08694791666494,
      "v": 78
    },
    {
      "midi": 60,
      "hit": false,
      "t": 59404.5777500003,
      "d": 9.920604166669364,
      "v": 103
    },
    {
      "midi": 64,
      "hit": false,
      "t": 59404.5777500003,
      "d": 9.920604166669364,
      "v": 103
    },
    {
      "midi": 36,
      "hit": false,
      "t": 59523.62499999903,
      "d": 114.08694791666494,
      "v": 78
    },
    {
      "midi": 36,
      "hit": false,
      "t": 59523.62499999984,
      "d": 173.61057291666657,
      "v": 64
    },
    {
      "midi": 36,
      "hit": false,
      "t": 59523.624999999905,
      "d": 208.33268749999843,
      "v": 68
    },
    {
      "midi": 36,
      "hit": false,
      "t": 59642.67224999903,
      "d": 114.08694791666494,
      "v": 78
    },
    {
      "midi": 48,
      "hit": false,
      "t": 59761.719499999024,
      "d": 114.08694791666494,
      "v": 78
    },
    {
      "midi": 48,
      "hit": false,
      "t": 59761.71949999984,
      "d": 173.61057291666657,
      "v": 74
    },
    {
      "midi": 36,
      "hit": false,
      "t": 59761.719499999905,
      "d": 208.33268749999843,
      "v": 68
    },
    {
      "midi": 60,
      "hit": false,
      "t": 59761.719500000305,
      "d": 9.920604166669364,
      "v": 103
    },
    {
      "midi": 64,
      "hit": false,
      "t": 59761.719500000305,
      "d": 9.920604166669364,
      "v": 103
    },
    {
      "midi": 48,
      "hit": false,
      "t": 59880.76674999902,
      "d": 114.08694791666494,
      "v": 78
    },
    {
      "midi": 60,
      "hit": false,
      "t": 59880.76675000031,
      "d": 9.920604166669364,
      "v": 103
    },
    {
      "midi": 64,
      "hit": false,
      "t": 59880.76675000031,
      "d": 9.920604166669364,
      "v": 103
    },
    {
      "midi": 36,
      "hit": false,
      "t": 59999.813999999016,
      "d": 114.08694791666494,
      "v": 78
    },
    {
      "midi": 36,
      "hit": false,
      "t": 59999.81399999984,
      "d": 173.61057291666657,
      "v": 50
    },
    {
      "midi": 36,
      "hit": false,
      "t": 59999.813999999904,
      "d": 208.33268749999843,
      "v": 68
    },
    {
      "midi": 36,
      "hit": false,
      "t": 60118.86124999901,
      "d": 114.08694791666494,
      "v": 78
    },
    {
      "midi": 48,
      "hit": false,
      "t": 60237.90849999901,
      "d": 114.08694791666494,
      "v": 78
    },
    {
      "midi": 48,
      "hit": false,
      "t": 60237.90849999984,
      "d": 173.61057291666657,
      "v": 73
    },
    {
      "midi": 36,
      "hit": false,
      "t": 60237.9084999999,
      "d": 208.33268749999843,
      "v": 68
    },
    {
      "midi": 60,
      "hit": false,
      "t": 60237.90850000031,
      "d": 9.920604166669364,
      "v": 103
    },
    {
      "midi": 64,
      "hit": false,
      "t": 60237.90850000031,
      "d": 9.920604166669364,
      "v": 103
    },
    {
      "midi": 48,
      "hit": false,
      "t": 60356.955749999004,
      "d": 114.08694791666494,
      "v": 78
    },
    {
      "midi": 60,
      "hit": false,
      "t": 60356.955750000314,
      "d": 9.920604166669364,
      "v": 103
    },
    {
      "midi": 64,
      "hit": false,
      "t": 60356.955750000314,
      "d": 9.920604166669364,
      "v": 103
    },
    {
      "midi": 38,
      "hit": false,
      "t": 60476.002999999,
      "d": 114.08694791666494,
      "v": 78
    },
    {
      "midi": 38,
      "hit": false,
      "t": 60476.00299999984,
      "d": 173.61057291666657,
      "v": 66
    },
    {
      "midi": 38,
      "hit": false,
      "t": 60476.0029999999,
      "d": 208.33268749999843,
      "v": 68
    },
    {
      "midi": 66,
      "hit": false,
      "t": 60476.002999999975,
      "d": 471.22869791666744,
      "v": 58
    },
    {
      "midi": 69,
      "hit": false,
      "t": 60476.002999999975,
      "d": 471.22869791666744,
      "v": 58
    },
    {
      "midi": 74,
      "hit": false,
      "t": 60476.002999999975,
      "d": 471.22869791666744,
      "v": 58
    },
    {
      "midi": 38,
      "hit": false,
      "t": 60595.050249998996,
      "d": 114.08694791666494,
      "v": 78
    },
    {
      "midi": 50,
      "hit": false,
      "t": 60714.09749999899,
      "d": 114.08694791666494,
      "v": 78
    },
    {
      "midi": 50,
      "hit": false,
      "t": 60714.097499999836,
      "d": 173.61057291666657,
      "v": 86
    },
    {
      "midi": 38,
      "hit": false,
      "t": 60714.0974999999,
      "d": 208.33268749999843,
      "v": 68
    },
    {
      "midi": 62,
      "hit": false,
      "t": 60714.097500000316,
      "d": 9.920604166669364,
      "v": 103
    },
    {
      "midi": 66,
      "hit": false,
      "t": 60714.097500000316,
      "d": 9.920604166669364,
      "v": 103
    },
    {
      "midi": 50,
      "hit": false,
      "t": 60833.14474999899,
      "d": 114.08694791666494,
      "v": 78
    },
    {
      "midi": 62,
      "hit": false,
      "t": 60833.14475000032,
      "d": 9.920604166669364,
      "v": 103
    },
    {
      "midi": 66,
      "hit": false,
      "t": 60833.14475000032,
      "d": 9.920604166669364,
      "v": 103
    },
    {
      "midi": 34,
      "hit": false,
      "t": 60952.191999998984,
      "d": 114.08694791666494,
      "v": 78
    },
    {
      "midi": 34,
      "hit": false,
      "t": 60952.191999999835,
      "d": 173.61057291666657,
      "v": 74
    },
    {
      "midi": 34,
      "hit": false,
      "t": 60952.1919999999,
      "d": 208.33268749999843,
      "v": 68
    },
    {
      "midi": 58,
      "hit": false,
      "t": 60952.19199999997,
      "d": 947.4176979166659,
      "v": 103
    },
    {
      "midi": 62,
      "hit": false,
      "t": 60952.19199999997,
      "d": 947.4176979166659,
      "v": 58
    },
    {
      "midi": 65,
      "hit": false,
      "t": 60952.19199999997,
      "d": 947.4176979166659,
      "v": 58
    },
    {
      "midi": 70,
      "hit": false,
      "t": 60952.19199999997,
      "d": 947.4176979166659,
      "v": 58
    },
    {
      "midi": 34,
      "hit": false,
      "t": 61071.23924999898,
      "d": 114.08694791666494,
      "v": 78
    },
    {
      "midi": 46,
      "hit": false,
      "t": 61190.286499998976,
      "d": 114.08694791666494,
      "v": 78
    },
    {
      "midi": 46,
      "hit": false,
      "t": 61190.286499999835,
      "d": 173.61057291666657,
      "v": 70
    },
    {
      "midi": 34,
      "hit": false,
      "t": 61190.2864999999,
      "d": 208.33268749999843,
      "v": 68
    },
    {
      "midi": 58,
      "hit": false,
      "t": 61190.28650000032,
      "d": 9.920604166669364,
      "v": 103
    },
    {
      "midi": 62,
      "hit": false,
      "t": 61190.28650000032,
      "d": 9.920604166669364,
      "v": 103
    },
    {
      "midi": 46,
      "hit": false,
      "t": 61309.33374999897,
      "d": 114.08694791666494,
      "v": 78
    },
    {
      "midi": 58,
      "hit": false,
      "t": 61309.333750000325,
      "d": 9.920604166669364,
      "v": 103
    },
    {
      "midi": 62,
      "hit": false,
      "t": 61309.333750000325,
      "d": 9.920604166669364,
      "v": 103
    },
    {
      "midi": 34,
      "hit": false,
      "t": 61428.38099999897,
      "d": 114.08694791666494,
      "v": 78
    },
    {
      "midi": 34,
      "hit": false,
      "t": 61428.380999999834,
      "d": 173.61057291666657,
      "v": 64
    },
    {
      "midi": 34,
      "hit": false,
      "t": 61428.3809999999,
      "d": 208.33268749999843,
      "v": 68
    },
    {
      "midi": 34,
      "hit": false,
      "t": 61547.428249998964,
      "d": 114.08694791666494,
      "v": 78
    },
    {
      "midi": 46,
      "hit": false,
      "t": 61666.47549999896,
      "d": 114.08694791666494,
      "v": 78
    },
    {
      "midi": 46,
      "hit": false,
      "t": 61666.47549999983,
      "d": 173.61057291666657,
      "v": 74
    },
    {
      "midi": 34,
      "hit": false,
      "t": 61666.4754999999,
      "d": 208.33268749999843,
      "v": 68
    },
    {
      "midi": 58,
      "hit": false,
      "t": 61666.47550000033,
      "d": 9.920604166669364,
      "v": 103
    },
    {
      "midi": 62,
      "hit": false,
      "t": 61666.47550000033,
      "d": 9.920604166669364,
      "v": 103
    },
    {
      "midi": 46,
      "hit": false,
      "t": 61785.522749998956,
      "d": 114.08694791666494,
      "v": 78
    },
    {
      "midi": 58,
      "hit": false,
      "t": 61785.52275000033,
      "d": 9.920604166669364,
      "v": 103
    },
    {
      "midi": 62,
      "hit": false,
      "t": 61785.52275000033,
      "d": 9.920604166669364,
      "v": 103
    },
    {
      "midi": 36,
      "hit": false,
      "t": 61904.56999999895,
      "d": 114.08694791666494,
      "v": 78
    },
    {
      "midi": 36,
      "hit": false,
      "t": 61904.56999999983,
      "d": 173.61057291666657,
      "v": 50
    },
    {
      "midi": 36,
      "hit": false,
      "t": 61904.5699999999,
      "d": 208.33268749999843,
      "v": 68
    },
    {
      "midi": 60,
      "hit": false,
      "t": 61904.56999999997,
      "d": 947.4176979166659,
      "v": 106
    },
    {
      "midi": 64,
      "hit": false,
      "t": 61904.56999999997,
      "d": 947.4176979166659,
      "v": 58
    },
    {
      "midi": 67,
      "hit": false,
      "t": 61904.56999999997,
      "d": 947.4176979166659,
      "v": 58
    },
    {
      "midi": 72,
      "hit": false,
      "t": 61904.56999999997,
      "d": 947.4176979166659,
      "v": 58
    },
    {
      "midi": 36,
      "hit": false,
      "t": 62023.61724999895,
      "d": 114.08694791666494,
      "v": 78
    },
    {
      "midi": 48,
      "hit": false,
      "t": 62142.664499998944,
      "d": 114.08694791666494,
      "v": 78
    },
    {
      "midi": 48,
      "hit": false,
      "t": 62142.66449999983,
      "d": 173.61057291666657,
      "v": 73
    },
    {
      "midi": 36,
      "hit": false,
      "t": 62142.6644999999,
      "d": 208.33268749999843,
      "v": 68
    },
    {
      "midi": 60,
      "hit": false,
      "t": 62142.664500000334,
      "d": 9.920604166669364,
      "v": 103
    },
    {
      "midi": 64,
      "hit": false,
      "t": 62142.664500000334,
      "d": 9.920604166669364,
      "v": 103
    },
    {
      "midi": 46,
      "hit": false,
      "t": 62261.71174999894,
      "d": 114.08694791666494,
      "v": 78
    },
    {
      "midi": 58,
      "hit": false,
      "t": 62261.71175000034,
      "d": 9.920604166669364,
      "v": 103
    },
    {
      "midi": 62,
      "hit": false,
      "t": 62261.71175000034,
      "d": 9.920604166669364,
      "v": 103
    },
    {
      "midi": 36,
      "hit": false,
      "t": 62380.758999998936,
      "d": 114.08694791666494,
      "v": 78
    },
    {
      "midi": 36,
      "hit": false,
      "t": 62380.75899999983,
      "d": 173.61057291666657,
      "v": 66
    },
    {
      "midi": 36,
      "hit": false,
      "t": 62380.758999999896,
      "d": 208.33268749999843,
      "v": 68
    },
    {
      "midi": 36,
      "hit": false,
      "t": 62499.80624999893,
      "d": 114.08694791666494,
      "v": 78
    },
    {
      "midi": 48,
      "hit": false,
      "t": 62618.85349999893,
      "d": 114.08694791666494,
      "v": 78
    },
    {
      "midi": 48,
      "hit": false,
      "t": 62618.85349999983,
      "d": 173.61057291666657,
      "v": 86
    },
    {
      "midi": 36,
      "hit": false,
      "t": 62618.853499999896,
      "d": 208.33268749999843,
      "v": 68
    },
    {
      "midi": 60,
      "hit": false,
      "t": 62618.85350000034,
      "d": 9.920604166669364,
      "v": 103
    },
    {
      "midi": 64,
      "hit": false,
      "t": 62618.85350000034,
      "d": 9.920604166669364,
      "v": 103
    },
    {
      "midi": 48,
      "hit": false,
      "t": 62737.900749998924,
      "d": 114.08694791666494,
      "v": 78
    },
    {
      "midi": 60,
      "hit": false,
      "t": 62737.90075000034,
      "d": 9.920604166669364,
      "v": 103
    },
    {
      "midi": 64,
      "hit": false,
      "t": 62737.90075000034,
      "d": 9.920604166669364,
      "v": 103
    },
    {
      "midi": 43,
      "hit": false,
      "t": 62856.94799999892,
      "d": 114.08694791666494,
      "v": 78
    },
    {
      "midi": 31,
      "hit": false,
      "t": 62856.94799999983,
      "d": 173.61057291666657,
      "v": 76
    },
    {
      "midi": 31,
      "hit": false,
      "t": 62856.947999999895,
      "d": 208.33268749999843,
      "v": 68
    },
    {
      "midi": 83,
      "hit": false,
      "t": 62856.9479999999,
      "d": 2.480151041665522,
      "v": 84
    },
    {
      "midi": 83,
      "hit": false,
      "t": 62856.9479999999,
      "d": 2.480151041665522,
      "v": 110
    },
    {
      "midi": 62,
      "hit": false,
      "t": 62856.94799999997,
      "d": 1899.7956979166702,
      "v": 58
    },
    {
      "midi": 67,
      "hit": false,
      "t": 62856.94799999997,
      "d": 1899.7956979166702,
      "v": 58
    },
    {
      "midi": 71,
      "hit": false,
      "t": 62856.94799999997,
      "d": 1899.7956979166702,
      "v": 58
    },
    {
      "midi": 74,
      "hit": false,
      "t": 62856.948000000004,
      "d": 272.8166145833311,
      "v": 90
    },
    {
      "midi": 79,
      "hit": false,
      "t": 62856.948000000004,
      "d": 272.8166145833311,
      "v": 100
    },
    {
      "midi": 83,
      "hit": false,
      "t": 62856.948000000004,
      "d": 272.8166145833311,
      "v": 100
    },
    {
      "midi": 62,
      "hit": false,
      "t": 62856.948000000004,
      "d": 272.8166145833311,
      "v": 90
    },
    {
      "midi": 67,
      "hit": false,
      "t": 62856.948000000004,
      "d": 272.8166145833311,
      "v": 100
    },
    {
      "midi": 71,
      "hit": false,
      "t": 62856.948000000004,
      "d": 272.8166145833311,
      "v": 100
    },
    {
      "midi": 74,
      "hit": false,
      "t": 62856.94800000006,
      "d": 272.8166145833311,
      "v": 64
    },
    {
      "midi": 79,
      "hit": false,
      "t": 62856.94800000006,
      "d": 272.8166145833311,
      "v": 72
    },
    {
      "midi": 83,
      "hit": false,
      "t": 62856.94800000006,
      "d": 272.8166145833311,
      "v": 72
    },
    {
      "midi": 43,
      "hit": false,
      "t": 62975.995249998916,
      "d": 114.08694791666494,
      "v": 78
    },
    {
      "midi": 83,
      "hit": false,
      "t": 62975.9952499999,
      "d": 2.480151041665522,
      "v": 91
    },
    {
      "midi": 83,
      "hit": false,
      "t": 62975.9952499999,
      "d": 2.480151041665522,
      "v": 110
    },
    {
      "midi": 55,
      "hit": false,
      "t": 63095.04249999891,
      "d": 114.08694791666494,
      "v": 78
    },
    {
      "midi": 43,
      "hit": false,
      "t": 63095.04249999983,
      "d": 173.61057291666657,
      "v": 82
    },
    {
      "midi": 31,
      "hit": false,
      "t": 63095.042499999894,
      "d": 208.33268749999843,
      "v": 68
    },
    {
      "midi": 83,
      "hit": false,
      "t": 63095.042499999894,
      "d": 2.480151041665522,
      "v": 88
    },
    {
      "midi": 83,
      "hit": false,
      "t": 63095.042499999894,
      "d": 2.480151041665522,
      "v": 110
    },
    {
      "midi": 67,
      "hit": false,
      "t": 63095.042500000345,
      "d": 9.920604166669364,
      "v": 103
    },
    {
      "midi": 71,
      "hit": false,
      "t": 63095.042500000345,
      "d": 9.920604166669364,
      "v": 103
    },
    {
      "midi": 55,
      "hit": false,
      "t": 63214.08974999891,
      "d": 114.08694791666494,
      "v": 78
    },
    {
      "midi": 83,
      "hit": false,
      "t": 63214.08974999989,
      "d": 2.480151041665522,
      "v": 91
    },
    {
      "midi": 83,
      "hit": false,
      "t": 63214.08974999989,
      "d": 2.480151041665522,
      "v": 110
    },
    {
      "midi": 67,
      "hit": false,
      "t": 63214.08975000035,
      "d": 9.920604166669364,
      "v": 103
    },
    {
      "midi": 71,
      "hit": false,
      "t": 63214.08975000035,
      "d": 9.920604166669364,
      "v": 103
    },
    {
      "midi": 43,
      "hit": false,
      "t": 63333.136999998904,
      "d": 114.08694791666494,
      "v": 78
    },
    {
      "midi": 31,
      "hit": false,
      "t": 63333.13699999983,
      "d": 173.61057291666657,
      "v": 62
    },
    {
      "midi": 83,
      "hit": false,
      "t": 63333.136999999886,
      "d": 2.480151041665522,
      "v": 87
    },
    {
      "midi": 83,
      "hit": false,
      "t": 63333.136999999886,
      "d": 2.480151041665522,
      "v": 110
    },
    {
      "midi": 31,
      "hit": false,
      "t": 63333.13699999989,
      "d": 208.33268749999843,
      "v": 68
    },
    {
      "midi": 43,
      "hit": false,
      "t": 63452.1842499989,
      "d": 114.08694791666494,
      "v": 78
    },
    {
      "midi": 83,
      "hit": false,
      "t": 63452.18424999988,
      "d": 2.480151041665522,
      "v": 87
    },
    {
      "midi": 83,
      "hit": false,
      "t": 63452.18424999988,
      "d": 2.480151041665522,
      "v": 110
    },
    {
      "midi": 55,
      "hit": false,
      "t": 63571.231499998896,
      "d": 114.08694791666494,
      "v": 78
    },
    {
      "midi": 43,
      "hit": false,
      "t": 63571.23149999983,
      "d": 173.61057291666657,
      "v": 78
    },
    {
      "midi": 83,
      "hit": false,
      "t": 63571.23149999988,
      "d": 2.480151041665522,
      "v": 89
    },
    {
      "midi": 83,
      "hit": false,
      "t": 63571.23149999988,
      "d": 2.480151041665522,
      "v": 110
    },
    {
      "midi": 31,
      "hit": false,
      "t": 63571.23149999989,
      "d": 208.33268749999843,
      "v": 68
    },
    {
      "midi": 67,
      "hit": false,
      "t": 63571.23150000035,
      "d": 9.920604166669364,
      "v": 103
    },
    {
      "midi": 71,
      "hit": false,
      "t": 63571.23150000035,
      "d": 9.920604166669364,
      "v": 103
    },
    {
      "midi": 55,
      "hit": false,
      "t": 63690.27874999889,
      "d": 114.08694791666494,
      "v": 78
    },
    {
      "midi": 83,
      "hit": false,
      "t": 63690.278749999874,
      "d": 2.480151041665522,
      "v": 91
    },
    {
      "midi": 83,
      "hit": false,
      "t": 63690.278749999874,
      "d": 2.480151041665522,
      "v": 110
    },
    {
      "midi": 67,
      "hit": false,
      "t": 63690.278750000354,
      "d": 9.920604166669364,
      "v": 103
    },
    {
      "midi": 71,
      "hit": false,
      "t": 63690.278750000354,
      "d": 9.920604166669364,
      "v": 103
    },
    {
      "midi": 43,
      "hit": false,
      "t": 63809.32599999889,
      "d": 114.08694791666494,
      "v": 78
    },
    {
      "midi": 31,
      "hit": false,
      "t": 63809.325999999826,
      "d": 173.61057291666657,
      "v": 67
    },
    {
      "midi": 83,
      "hit": false,
      "t": 63809.32599999987,
      "d": 2.480151041665522,
      "v": 91
    },
    {
      "midi": 83,
      "hit": false,
      "t": 63809.32599999987,
      "d": 2.480151041665522,
      "v": 110
    },
    {
      "midi": 31,
      "hit": false,
      "t": 63809.32599999989,
      "d": 208.33268749999843,
      "v": 68
    },
    {
      "midi": 43,
      "hit": false,
      "t": 63928.373249998884,
      "d": 114.08694791666494,
      "v": 78
    },
    {
      "midi": 83,
      "hit": false,
      "t": 63928.373249999866,
      "d": 2.480151041665522,
      "v": 92
    },
    {
      "midi": 83,
      "hit": false,
      "t": 63928.373249999866,
      "d": 2.480151041665522,
      "v": 110
    },
    {
      "midi": 55,
      "hit": false,
      "t": 64047.42049999888,
      "d": 114.08694791666494,
      "v": 78
    },
    {
      "midi": 43,
      "hit": false,
      "t": 64047.420499999826,
      "d": 173.61057291666657,
      "v": 70
    },
    {
      "midi": 83,
      "hit": false,
      "t": 64047.42049999986,
      "d": 2.480151041665522,
      "v": 96
    },
    {
      "midi": 83,
      "hit": false,
      "t": 64047.42049999986,
      "d": 2.480151041665522,
      "v": 110
    },
    {
      "midi": 31,
      "hit": false,
      "t": 64047.42049999989,
      "d": 208.33268749999843,
      "v": 68
    },
    {
      "midi": 67,
      "hit": false,
      "t": 64047.42050000036,
      "d": 9.920604166669364,
      "v": 103
    },
    {
      "midi": 71,
      "hit": false,
      "t": 64047.42050000036,
      "d": 9.920604166669364,
      "v": 103
    },
    {
      "midi": 55,
      "hit": false,
      "t": 64166.467749998876,
      "d": 114.08694791666494,
      "v": 78
    },
    {
      "midi": 83,
      "hit": false,
      "t": 64166.46774999986,
      "d": 2.480151041665522,
      "v": 92
    },
    {
      "midi": 83,
      "hit": false,
      "t": 64166.46774999986,
      "d": 2.480151041665522,
      "v": 110
    },
    {
      "midi": 67,
      "hit": false,
      "t": 64166.46775000036,
      "d": 9.920604166669364,
      "v": 103
    },
    {
      "midi": 71,
      "hit": false,
      "t": 64166.46775000036,
      "d": 9.920604166669364,
      "v": 103
    },
    {
      "midi": 43,
      "hit": false,
      "t": 64285.51499999887,
      "d": 114.08694791666494,
      "v": 78
    },
    {
      "midi": 31,
      "hit": false,
      "t": 64285.514999999825,
      "d": 173.61057291666657,
      "v": 56
    },
    {
      "midi": 83,
      "hit": false,
      "t": 64285.514999999854,
      "d": 2.480151041665522,
      "v": 96
    },
    {
      "midi": 83,
      "hit": false,
      "t": 64285.514999999854,
      "d": 2.480151041665522,
      "v": 110
    },
    {
      "midi": 31,
      "hit": false,
      "t": 64285.51499999989,
      "d": 208.33268749999843,
      "v": 68
    },
    {
      "midi": 43,
      "hit": false,
      "t": 64404.56224999887,
      "d": 114.08694791666494,
      "v": 78
    },
    {
      "midi": 83,
      "hit": false,
      "t": 64404.56224999985,
      "d": 2.480151041665522,
      "v": 96
    },
    {
      "midi": 83,
      "hit": false,
      "t": 64404.56224999985,
      "d": 2.480151041665522,
      "v": 110
    },
    {
      "midi": 55,
      "hit": false,
      "t": 64523.60949999886,
      "d": 114.08694791666494,
      "v": 78
    },
    {
      "midi": 43,
      "hit": false,
      "t": 64523.609499999824,
      "d": 173.61057291666657,
      "v": 70
    },
    {
      "midi": 83,
      "hit": false,
      "t": 64523.609499999846,
      "d": 2.480151041665522,
      "v": 98
    },
    {
      "midi": 83,
      "hit": false,
      "t": 64523.609499999846,
      "d": 2.480151041665522,
      "v": 110
    },
    {
      "midi": 31,
      "hit": false,
      "t": 64523.60949999989,
      "d": 208.33268749999843,
      "v": 68
    },
    {
      "midi": 67,
      "hit": false,
      "t": 64523.60950000036,
      "d": 9.920604166669364,
      "v": 103
    },
    {
      "midi": 71,
      "hit": false,
      "t": 64523.60950000036,
      "d": 9.920604166669364,
      "v": 103
    },
    {
      "midi": 55,
      "hit": false,
      "t": 64642.65674999886,
      "d": 114.08694791666494,
      "v": 78
    },
    {
      "midi": 83,
      "hit": false,
      "t": 64642.65674999984,
      "d": 2.480151041665522,
      "v": 101
    },
    {
      "midi": 83,
      "hit": false,
      "t": 64642.65674999984,
      "d": 2.480151041665522,
      "v": 110
    },
    {
      "midi": 67,
      "hit": false,
      "t": 64642.656750000366,
      "d": 9.920604166669364,
      "v": 103
    },
    {
      "midi": 71,
      "hit": false,
      "t": 64642.656750000366,
      "d": 9.920604166669364,
      "v": 103
    },
    {
      "midi": 38,
      "hit": false,
      "t": 64761.703999998856,
      "d": 114.08694791666494,
      "v": 78
    },
    {
      "midi": 38,
      "hit": false,
      "t": 64761.70399999982,
      "d": 173.61057291666657,
      "v": 70
    },
    {
      "midi": 38,
      "hit": false,
      "t": 64761.70399999989,
      "d": 208.33268749999843,
      "v": 68
    },
    {
      "midi": 62,
      "hit": false,
      "t": 64761.70399999997,
      "d": 1899.795697916663,
      "v": 58
    },
    {
      "midi": 66,
      "hit": false,
      "t": 64761.70399999997,
      "d": 1899.795697916663,
      "v": 58
    },
    {
      "midi": 69,
      "hit": false,
      "t": 64761.70399999997,
      "d": 1899.795697916663,
      "v": 58
    },
    {
      "midi": 74,
      "hit": false,
      "t": 64761.704000000005,
      "d": 173.61057291666657,
      "v": 76
    },
    {
      "midi": 78,
      "hit": false,
      "t": 64761.704000000005,
      "d": 173.61057291666657,
      "v": 80
    },
    {
      "midi": 81,
      "hit": false,
      "t": 64761.704000000005,
      "d": 173.61057291666657,
      "v": 70
    },
    {
      "midi": 62,
      "hit": false,
      "t": 64761.704000000005,
      "d": 173.61057291666657,
      "v": 76
    },
    {
      "midi": 66,
      "hit": false,
      "t": 64761.704000000005,
      "d": 173.61057291666657,
      "v": 80
    },
    {
      "midi": 69,
      "hit": false,
      "t": 64761.704000000005,
      "d": 173.61057291666657,
      "v": 70
    },
    {
      "midi": 74,
      "hit": false,
      "t": 64761.70400000006,
      "d": 186.01132812500146,
      "v": 54
    },
    {
      "midi": 78,
      "hit": false,
      "t": 64761.70400000006,
      "d": 186.01132812500146,
      "v": 57
    },
    {
      "midi": 81,
      "hit": false,
      "t": 64761.70400000006,
      "d": 186.01132812500146,
      "v": 49
    },
    {
      "midi": 38,
      "hit": false,
      "t": 64880.75124999885,
      "d": 114.08694791666494,
      "v": 78
    },
    {
      "midi": 50,
      "hit": false,
      "t": 64999.79849999885,
      "d": 114.08694791666494,
      "v": 78
    },
    {
      "midi": 50,
      "hit": false,
      "t": 64999.79849999982,
      "d": 173.61057291666657,
      "v": 62
    },
    {
      "midi": 38,
      "hit": false,
      "t": 64999.79849999989,
      "d": 208.33268749999843,
      "v": 68
    },
    {
      "midi": 74,
      "hit": false,
      "t": 64999.798500000004,
      "d": 173.61057291666657,
      "v": 91
    },
    {
      "midi": 78,
      "hit": false,
      "t": 64999.798500000004,
      "d": 173.61057291666657,
      "v": 95
    },
    {
      "midi": 81,
      "hit": false,
      "t": 64999.798500000004,
      "d": 173.61057291666657,
      "v": 90
    },
    {
      "midi": 62,
      "hit": false,
      "t": 64999.798500000004,
      "d": 173.61057291666657,
      "v": 91
    },
    {
      "midi": 66,
      "hit": false,
      "t": 64999.798500000004,
      "d": 173.61057291666657,
      "v": 95
    },
    {
      "midi": 69,
      "hit": false,
      "t": 64999.798500000004,
      "d": 173.61057291666657,
      "v": 90
    },
    {
      "midi": 74,
      "hit": false,
      "t": 64999.79850000006,
      "d": 186.01132812500146,
      "v": 65
    },
    {
      "midi": 78,
      "hit": false,
      "t": 64999.79850000006,
      "d": 186.01132812500146,
      "v": 68
    },
    {
      "midi": 81,
      "hit": false,
      "t": 64999.79850000006,
      "d": 186.01132812500146,
      "v": 64
    },
    {
      "midi": 62,
      "hit": false,
      "t": 64999.79850000037,
      "d": 9.920604166669364,
      "v": 103
    },
    {
      "midi": 66,
      "hit": false,
      "t": 64999.79850000037,
      "d": 9.920604166669364,
      "v": 103
    },
    {
      "midi": 50,
      "hit": false,
      "t": 65118.84574999884,
      "d": 114.08694791666494,
      "v": 78
    },
    {
      "midi": 62,
      "hit": false,
      "t": 65118.84575000037,
      "d": 9.920604166669364,
      "v": 103
    },
    {
      "midi": 66,
      "hit": false,
      "t": 65118.84575000037,
      "d": 9.920604166669364,
      "v": 103
    },
    {
      "midi": 38,
      "hit": false,
      "t": 65237.89299999884,
      "d": 114.08694791666494,
      "v": 78
    },
    {
      "midi": 38,
      "hit": false,
      "t": 65237.89299999982,
      "d": 173.61057291666657,
      "v": 66
    },
    {
      "midi": 38,
      "hit": false,
      "t": 65237.89299999989,
      "d": 208.33268749999843,
      "v": 68
    },
    {
      "midi": 74,
      "hit": false,
      "t": 65237.893000000004,
      "d": 173.61057291666657,
      "v": 99
    },
    {
      "midi": 78,
      "hit": false,
      "t": 65237.893000000004,
      "d": 173.61057291666657,
      "v": 101
    },
    {
      "midi": 81,
      "hit": false,
      "t": 65237.893000000004,
      "d": 173.61057291666657,
      "v": 100
    },
    {
      "midi": 62,
      "hit": false,
      "t": 65237.893000000004,
      "d": 173.61057291666657,
      "v": 99
    },
    {
      "midi": 66,
      "hit": false,
      "t": 65237.893000000004,
      "d": 173.61057291666657,
      "v": 101
    },
    {
      "midi": 69,
      "hit": false,
      "t": 65237.893000000004,
      "d": 173.61057291666657,
      "v": 100
    },
    {
      "midi": 74,
      "hit": false,
      "t": 65237.89300000006,
      "d": 186.01132812500146,
      "v": 71
    },
    {
      "midi": 78,
      "hit": false,
      "t": 65237.89300000006,
      "d": 186.01132812500146,
      "v": 72
    },
    {
      "midi": 81,
      "hit": false,
      "t": 65237.89300000006,
      "d": 186.01132812500146,
      "v": 72
    },
    {
      "midi": 38,
      "hit": false,
      "t": 65356.940249998835,
      "d": 114.08694791666494,
      "v": 78
    },
    {
      "midi": 50,
      "hit": false,
      "t": 65475.98749999883,
      "d": 114.08694791666494,
      "v": 78
    },
    {
      "midi": 50,
      "hit": false,
      "t": 65475.98749999982,
      "d": 173.61057291666657,
      "v": 67
    },
    {
      "midi": 38,
      "hit": false,
      "t": 65475.98749999989,
      "d": 208.3326875000057,
      "v": 68
    },
    {
      "midi": 74,
      "hit": false,
      "t": 65475.9875,
      "d": 173.61057291667385,
      "v": 98
    },
    {
      "midi": 78,
      "hit": false,
      "t": 65475.9875,
      "d": 173.61057291667385,
      "v": 103
    },
    {
      "midi": 81,
      "hit": false,
      "t": 65475.9875,
      "d": 173.61057291667385,
      "v": 96
    },
    {
      "midi": 62,
      "hit": false,
      "t": 65475.9875,
      "d": 173.61057291667385,
      "v": 98
    },
    {
      "midi": 66,
      "hit": false,
      "t": 65475.9875,
      "d": 173.61057291667385,
      "v": 103
    },
    {
      "midi": 69,
      "hit": false,
      "t": 65475.9875,
      "d": 173.61057291667385,
      "v": 96
    },
    {
      "midi": 74,
      "hit": false,
      "t": 65475.98750000006,
      "d": 186.01132812499418,
      "v": 70
    },
    {
      "midi": 78,
      "hit": false,
      "t": 65475.98750000006,
      "d": 186.01132812499418,
      "v": 74
    },
    {
      "midi": 81,
      "hit": false,
      "t": 65475.98750000006,
      "d": 186.01132812499418,
      "v": 69
    },
    {
      "midi": 62,
      "hit": false,
      "t": 65475.987500000374,
      "d": 9.920604166669364,
      "v": 103
    },
    {
      "midi": 66,
      "hit": false,
      "t": 65475.987500000374,
      "d": 9.920604166669364,
      "v": 103
    },
    {
      "midi": 50,
      "hit": false,
      "t": 65595.03474999883,
      "d": 114.08694791667222,
      "v": 78
    },
    {
      "midi": 62,
      "hit": false,
      "t": 65595.03475000037,
      "d": 9.920604166662088,
      "v": 103
    },
    {
      "midi": 66,
      "hit": false,
      "t": 65595.03475000037,
      "d": 9.920604166662088,
      "v": 103
    },
    {
      "midi": 38,
      "hit": false,
      "t": 65714.08199999883,
      "d": 114.08694791667222,
      "v": 78
    },
    {
      "midi": 38,
      "hit": false,
      "t": 65714.08199999982,
      "d": 173.61057291667385,
      "v": 64
    },
    {
      "midi": 38,
      "hit": false,
      "t": 65714.0819999999,
      "d": 208.3326875000057,
      "v": 68
    },
    {
      "midi": 38,
      "hit": false,
      "t": 65833.12924999883,
      "d": 114.08694791667222,
      "v": 78
    },
    {
      "midi": 50,
      "hit": false,
      "t": 65952.17649999884,
      "d": 114.08694791667222,
      "v": 78
    },
    {
      "midi": 50,
      "hit": false,
      "t": 65952.17649999983,
      "d": 173.61057291667385,
      "v": 66
    },
    {
      "midi": 38,
      "hit": false,
      "t": 65952.1764999999,
      "d": 208.3326875000057,
      "v": 68
    },
    {
      "midi": 62,
      "hit": false,
      "t": 65952.17650000037,
      "d": 9.920604166662088,
      "v": 103
    },
    {
      "midi": 66,
      "hit": false,
      "t": 65952.17650000037,
      "d": 9.920604166662088,
      "v": 103
    },
    {
      "midi": 50,
      "hit": false,
      "t": 66071.22374999884,
      "d": 114.08694791667222,
      "v": 78
    },
    {
      "midi": 62,
      "hit": false,
      "t": 66071.22375000035,
      "d": 9.920604166662088,
      "v": 103
    },
    {
      "midi": 66,
      "hit": false,
      "t": 66071.22375000035,
      "d": 9.920604166662088,
      "v": 103
    },
    {
      "midi": 38,
      "hit": false,
      "t": 66190.27099999884,
      "d": 114.08694791667222,
      "v": 78
    },
    {
      "midi": 38,
      "hit": false,
      "t": 66190.27099999983,
      "d": 173.61057291667385,
      "v": 62
    },
    {
      "midi": 38,
      "hit": false,
      "t": 66190.2709999999,
      "d": 208.3326875000057,
      "v": 68
    },
    {
      "midi": 74,
      "hit": false,
      "t": 66190.27100000001,
      "d": 272.8166145833384,
      "v": 95
    },
    {
      "midi": 78,
      "hit": false,
      "t": 66190.27100000001,
      "d": 272.8166145833384,
      "v": 94
    },
    {
      "midi": 83,
      "hit": false,
      "t": 66190.27100000001,
      "d": 272.8166145833384,
      "v": 100
    },
    {
      "midi": 62,
      "hit": false,
      "t": 66190.27100000001,
      "d": 272.8166145833384,
      "v": 95
    },
    {
      "midi": 66,
      "hit": false,
      "t": 66190.27100000001,
      "d": 272.8166145833384,
      "v": 94
    },
    {
      "midi": 71,
      "hit": false,
      "t": 66190.27100000001,
      "d": 272.8166145833384,
      "v": 100
    },
    {
      "midi": 74,
      "hit": false,
      "t": 66190.27100000005,
      "d": 272.8166145833384,
      "v": 68
    },
    {
      "midi": 78,
      "hit": false,
      "t": 66190.27100000005,
      "d": 272.8166145833384,
      "v": 67
    },
    {
      "midi": 83,
      "hit": false,
      "t": 66190.27100000005,
      "d": 272.8166145833384,
      "v": 72
    },
    {
      "midi": 38,
      "hit": false,
      "t": 66309.31824999885,
      "d": 114.08694791667222,
      "v": 78
    },
    {
      "midi": 50,
      "hit": false,
      "t": 66428.36549999885,
      "d": 114.08694791667222,
      "v": 78
    },
    {
      "midi": 50,
      "hit": false,
      "t": 66428.36549999984,
      "d": 173.61057291667385,
      "v": 73
    },
    {
      "midi": 38,
      "hit": false,
      "t": 66428.36549999991,
      "d": 208.3326875000057,
      "v": 68
    },
    {
      "midi": 62,
      "hit": false,
      "t": 66428.36550000035,
      "d": 9.920604166662088,
      "v": 103
    },
    {
      "midi": 66,
      "hit": false,
      "t": 66428.36550000035,
      "d": 9.920604166662088,
      "v": 103
    },
    {
      "midi": 50,
      "hit": false,
      "t": 66547.41274999885,
      "d": 114.08694791667222,
      "v": 78
    },
    {
      "midi": 62,
      "hit": false,
      "t": 66547.41275000034,
      "d": 9.920604166662088,
      "v": 103
    },
    {
      "midi": 66,
      "hit": false,
      "t": 66547.41275000034,
      "d": 9.920604166662088,
      "v": 103
    },
    {
      "midi": 40,
      "hit": false,
      "t": 66666.45999999886,
      "d": 114.08694791667222,
      "v": 78
    },
    {
      "midi": 40,
      "hit": false,
      "t": 66666.45999999985,
      "d": 173.61057291667385,
      "v": 73
    },
    {
      "midi": 40,
      "hit": false,
      "t": 66666.45999999992,
      "d": 208.3326875000057,
      "v": 68
    },
    {
      "midi": 64,
      "hit": false,
      "t": 66666.45999999996,
      "d": 947.4176979166659,
      "v": 58
    },
    {
      "midi": 67,
      "hit": false,
      "t": 66666.45999999996,
      "d": 1899.795697916663,
      "v": 58
    },
    {
      "midi": 71,
      "hit": false,
      "t": 66666.45999999996,
      "d": 1899.795697916663,
      "v": 58
    },
    {
      "midi": 71,
      "hit": false,
      "t": 66666.46,
      "d": 272.8166145833384,
      "v": 88
    },
    {
      "midi": 76,
      "hit": false,
      "t": 66666.46,
      "d": 272.8166145833384,
      "v": 103
    },
    {
      "midi": 79,
      "hit": false,
      "t": 66666.46,
      "d": 272.8166145833384,
      "v": 105
    },
    {
      "midi": 59,
      "hit": false,
      "t": 66666.46,
      "d": 272.8166145833384,
      "v": 88
    },
    {
      "midi": 64,
      "hit": false,
      "t": 66666.46,
      "d": 272.8166145833384,
      "v": 103
    },
    {
      "midi": 67,
      "hit": false,
      "t": 66666.46,
      "d": 272.8166145833384,
      "v": 105
    },
    {
      "midi": 71,
      "hit": false,
      "t": 66666.46000000005,
      "d": 272.8166145833384,
      "v": 63
    },
    {
      "midi": 76,
      "hit": false,
      "t": 66666.46000000005,
      "d": 272.8166145833384,
      "v": 74
    },
    {
      "midi": 79,
      "hit": false,
      "t": 66666.46000000005,
      "d": 272.8166145833384,
      "v": 75
    },
    {
      "midi": 40,
      "hit": false,
      "t": 66785.50724999886,
      "d": 114.08694791667222,
      "v": 78
    },
    {
      "midi": 52,
      "hit": false,
      "t": 66904.55449999886,
      "d": 114.08694791667222,
      "v": 78
    },
    {
      "midi": 52,
      "hit": false,
      "t": 66904.55449999985,
      "d": 173.61057291667385,
      "v": 64
    },
    {
      "midi": 40,
      "hit": false,
      "t": 66904.55449999993,
      "d": 208.3326875000057,
      "v": 68
    },
    {
      "midi": 64,
      "hit": false,
      "t": 66904.55450000033,
      "d": 9.920604166662088,
      "v": 103
    },
    {
      "midi": 67,
      "hit": false,
      "t": 66904.55450000033,
      "d": 9.920604166662088,
      "v": 103
    },
    {
      "midi": 52,
      "hit": false,
      "t": 67023.60174999887,
      "d": 114.08694791667222,
      "v": 78
    },
    {
      "midi": 64,
      "hit": false,
      "t": 67023.60175000032,
      "d": 9.920604166662088,
      "v": 103
    },
    {
      "midi": 67,
      "hit": false,
      "t": 67023.60175000032,
      "d": 9.920604166662088,
      "v": 103
    },
    {
      "midi": 40,
      "hit": false,
      "t": 67142.64899999887,
      "d": 114.08694791667222,
      "v": 78
    },
    {
      "midi": 40,
      "hit": false,
      "t": 67142.64899999986,
      "d": 173.61057291667385,
      "v": 62
    },
    {
      "midi": 40,
      "hit": false,
      "t": 67142.64899999993,
      "d": 208.3326875000057,
      "v": 68
    },
    {
      "midi": 40,
      "hit": false,
      "t": 67261.69624999887,
      "d": 114.08694791667222,
      "v": 78
    },
    {
      "midi": 52,
      "hit": false,
      "t": 67380.74349999888,
      "d": 114.08694791667222,
      "v": 78
    },
    {
      "midi": 52,
      "hit": false,
      "t": 67380.74349999987,
      "d": 173.61057291667385,
      "v": 80
    },
    {
      "midi": 40,
      "hit": false,
      "t": 67380.74349999994,
      "d": 208.3326875000057,
      "v": 68
    },
    {
      "midi": 64,
      "hit": false,
      "t": 67380.74350000032,
      "d": 9.920604166662088,
      "v": 103
    },
    {
      "midi": 67,
      "hit": false,
      "t": 67380.74350000032,
      "d": 9.920604166662088,
      "v": 103
    },
    {
      "midi": 52,
      "hit": false,
      "t": 67499.79074999888,
      "d": 114.08694791667222,
      "v": 78
    },
    {
      "midi": 64,
      "hit": false,
      "t": 67499.7907500003,
      "d": 9.920604166662088,
      "v": 103
    },
    {
      "midi": 67,
      "hit": false,
      "t": 67499.7907500003,
      "d": 9.920604166662088,
      "v": 103
    },
    {
      "midi": 38,
      "hit": false,
      "t": 67618.83799999888,
      "d": 114.08694791667222,
      "v": 78
    },
    {
      "midi": 38,
      "hit": false,
      "t": 67618.83799999987,
      "d": 173.61057291667385,
      "v": 58
    },
    {
      "midi": 38,
      "hit": false,
      "t": 67618.83799999995,
      "d": 208.3326875000057,
      "v": 68
    },
    {
      "midi": 62,
      "hit": false,
      "t": 67618.83799999996,
      "d": 947.4176979166659,
      "v": 58
    },
    {
      "midi": 38,
      "hit": false,
      "t": 67737.88524999889,
      "d": 114.08694791667222,
      "v": 78
    },
    {
      "midi": 50,
      "hit": false,
      "t": 67856.93249999889,
      "d": 114.08694791667222,
      "v": 78
    },
    {
      "midi": 50,
      "hit": false,
      "t": 67856.93249999988,
      "d": 173.61057291667385,
      "v": 72
    },
    {
      "midi": 38,
      "hit": false,
      "t": 67856.93249999995,
      "d": 208.3326875000057,
      "v": 68
    },
    {
      "midi": 62,
      "hit": false,
      "t": 67856.9325000003,
      "d": 9.920604166662088,
      "v": 103
    },
    {
      "midi": 66,
      "hit": false,
      "t": 67856.9325000003,
      "d": 9.920604166662088,
      "v": 103
    },
    {
      "midi": 50,
      "hit": false,
      "t": 67975.97974999889,
      "d": 114.08694791667222,
      "v": 78
    },
    {
      "midi": 62,
      "hit": false,
      "t": 67975.97975000029,
      "d": 9.920604166662088,
      "v": 103
    },
    {
      "midi": 66,
      "hit": false,
      "t": 67975.97975000029,
      "d": 9.920604166662088,
      "v": 103
    },
    {
      "midi": 38,
      "hit": false,
      "t": 68095.0269999989,
      "d": 114.08694791667222,
      "v": 78
    },
    {
      "midi": 38,
      "hit": false,
      "t": 68095.02699999989,
      "d": 173.61057291667385,
      "v": 59
    },
    {
      "midi": 38,
      "hit": false,
      "t": 68095.02699999996,
      "d": 208.3326875000057,
      "v": 68
    },
    {
      "midi": 38,
      "hit": false,
      "t": 68214.0742499989,
      "d": 114.08694791667222,
      "v": 78
    },
    {
      "midi": 50,
      "hit": false,
      "t": 68333.1214999989,
      "d": 114.08694791667222,
      "v": 78
    },
    {
      "midi": 50,
      "hit": false,
      "t": 68333.12149999989,
      "d": 173.61057291667385,
      "v": 70
    },
    {
      "midi": 38,
      "hit": false,
      "t": 68333.12149999996,
      "d": 208.3326875000057,
      "v": 68
    },
    {
      "midi": 62,
      "hit": false,
      "t": 68333.12150000028,
      "d": 9.920604166662088,
      "v": 103
    },
    {
      "midi": 66,
      "hit": false,
      "t": 68333.12150000028,
      "d": 9.920604166662088,
      "v": 103
    },
    {
      "midi": 50,
      "hit": false,
      "t": 68452.1687499989,
      "d": 114.08694791667222,
      "v": 78
    },
    {
      "midi": 62,
      "hit": false,
      "t": 68452.16875000027,
      "d": 9.920604166662088,
      "v": 103
    },
    {
      "midi": 66,
      "hit": false,
      "t": 68452.16875000027,
      "d": 9.920604166662088,
      "v": 103
    },
    {
      "midi": 36,
      "hit": false,
      "t": 68571.21599999891,
      "d": 114.08694791667222,
      "v": 78
    },
    {
      "midi": 36,
      "hit": false,
      "t": 68571.2159999999,
      "d": 173.61057291667385,
      "v": 74
    },
    {
      "midi": 64,
      "hit": false,
      "t": 68571.21599999996,
      "d": 1423.6066979166644,
      "v": 58
    },
    {
      "midi": 67,
      "hit": false,
      "t": 68571.21599999996,
      "d": 1423.6066979166644,
      "v": 58
    },
    {
      "midi": 72,
      "hit": false,
      "t": 68571.21599999996,
      "d": 1423.6066979166644,
      "v": 58
    },
    {
      "midi": 36,
      "hit": false,
      "t": 68571.21599999997,
      "d": 208.3326875000057,
      "v": 68
    },
    {
      "midi": 72,
      "hit": false,
      "t": 68571.21600000001,
      "d": 173.61057291667385,
      "v": 83
    },
    {
      "midi": 76,
      "hit": false,
      "t": 68571.21600000001,
      "d": 173.61057291667385,
      "v": 93
    },
    {
      "midi": 79,
      "hit": false,
      "t": 68571.21600000001,
      "d": 173.61057291667385,
      "v": 94
    },
    {
      "midi": 60,
      "hit": false,
      "t": 68571.21600000001,
      "d": 173.61057291667385,
      "v": 83
    },
    {
      "midi": 64,
      "hit": false,
      "t": 68571.21600000001,
      "d": 173.61057291667385,
      "v": 93
    },
    {
      "midi": 67,
      "hit": false,
      "t": 68571.21600000001,
      "d": 173.61057291667385,
      "v": 94
    },
    {
      "midi": 72,
      "hit": false,
      "t": 68571.21600000006,
      "d": 186.01132812499418,
      "v": 59
    },
    {
      "midi": 76,
      "hit": false,
      "t": 68571.21600000006,
      "d": 186.01132812499418,
      "v": 66
    },
    {
      "midi": 79,
      "hit": false,
      "t": 68571.21600000006,
      "d": 186.01132812499418,
      "v": 67
    },
    {
      "midi": 36,
      "hit": false,
      "t": 68690.26324999891,
      "d": 114.08694791667222,
      "v": 78
    },
    {
      "midi": 48,
      "hit": false,
      "t": 68809.31049999892,
      "d": 114.08694791667222,
      "v": 78
    },
    {
      "midi": 48,
      "hit": false,
      "t": 68809.3104999999,
      "d": 173.61057291667385,
      "v": 70
    },
    {
      "midi": 36,
      "hit": false,
      "t": 68809.31049999998,
      "d": 208.3326875000057,
      "v": 68
    },
    {
      "midi": 72,
      "hit": false,
      "t": 68809.31050000002,
      "d": 173.61057291667385,
      "v": 99
    },
    {
      "midi": 76,
      "hit": false,
      "t": 68809.31050000002,
      "d": 173.61057291667385,
      "v": 110
    },
    {
      "midi": 79,
      "hit": false,
      "t": 68809.31050000002,
      "d": 173.61057291667385,
      "v": 103
    },
    {
      "midi": 60,
      "hit": false,
      "t": 68809.31050000002,
      "d": 173.61057291667385,
      "v": 99
    },
    {
      "midi": 64,
      "hit": false,
      "t": 68809.31050000002,
      "d": 173.61057291667385,
      "v": 110
    },
    {
      "midi": 67,
      "hit": false,
      "t": 68809.31050000002,
      "d": 173.61057291667385,
      "v": 103
    },
    {
      "midi": 72,
      "hit": false,
      "t": 68809.31050000005,
      "d": 186.01132812499418,
      "v": 71
    },
    {
      "midi": 76,
      "hit": false,
      "t": 68809.31050000005,
      "d": 186.01132812499418,
      "v": 79
    },
    {
      "midi": 79,
      "hit": false,
      "t": 68809.31050000005,
      "d": 186.01132812499418,
      "v": 74
    },
    {
      "midi": 60,
      "hit": false,
      "t": 68809.31050000027,
      "d": 9.920604166662088,
      "v": 103
    },
    {
      "midi": 64,
      "hit": false,
      "t": 68809.31050000027,
      "d": 9.920604166662088,
      "v": 103
    },
    {
      "midi": 48,
      "hit": false,
      "t": 68928.35774999892,
      "d": 114.08694791667222,
      "v": 78
    },
    {
      "midi": 60,
      "hit": false,
      "t": 68928.35775000026,
      "d": 9.920604166662088,
      "v": 103
    },
    {
      "midi": 64,
      "hit": false,
      "t": 68928.35775000026,
      "d": 9.920604166662088,
      "v": 103
    },
    {
      "midi": 36,
      "hit": false,
      "t": 69047.40499999892,
      "d": 114.08694791667222,
      "v": 78
    },
    {
      "midi": 36,
      "hit": false,
      "t": 69047.40499999991,
      "d": 173.61057291667385,
      "v": 64
    },
    {
      "midi": 36,
      "hit": false,
      "t": 69047.40499999998,
      "d": 208.3326875000057,
      "v": 68
    },
    {
      "midi": 72,
      "hit": false,
      "t": 69047.40500000003,
      "d": 173.61057291667385,
      "v": 103
    },
    {
      "midi": 76,
      "hit": false,
      "t": 69047.40500000003,
      "d": 173.61057291667385,
      "v": 105
    },
    {
      "midi": 79,
      "hit": false,
      "t": 69047.40500000003,
      "d": 173.61057291667385,
      "v": 103
    },
    {
      "midi": 60,
      "hit": false,
      "t": 69047.40500000003,
      "d": 173.61057291667385,
      "v": 103
    },
    {
      "midi": 64,
      "hit": false,
      "t": 69047.40500000003,
      "d": 173.61057291667385,
      "v": 105
    },
    {
      "midi": 67,
      "hit": false,
      "t": 69047.40500000003,
      "d": 173.61057291667385,
      "v": 103
    },
    {
      "midi": 72,
      "hit": false,
      "t": 69047.40500000004,
      "d": 186.01132812499418,
      "v": 74
    },
    {
      "midi": 76,
      "hit": false,
      "t": 69047.40500000004,
      "d": 186.01132812499418,
      "v": 75
    },
    {
      "midi": 79,
      "hit": false,
      "t": 69047.40500000004,
      "d": 186.01132812499418,
      "v": 74
    },
    {
      "midi": 36,
      "hit": false,
      "t": 69166.45224999893,
      "d": 114.08694791667222,
      "v": 78
    },
    {
      "midi": 48,
      "hit": false,
      "t": 69285.49949999893,
      "d": 114.08694791667222,
      "v": 78
    },
    {
      "midi": 48,
      "hit": false,
      "t": 69285.49949999992,
      "d": 173.61057291667385,
      "v": 74
    },
    {
      "midi": 36,
      "hit": false,
      "t": 69285.49949999999,
      "d": 208.3326875000057,
      "v": 68
    },
    {
      "midi": 72,
      "hit": false,
      "t": 69285.49950000003,
      "d": 186.01132812499418,
      "v": 71
    },
    {
      "midi": 76,
      "hit": false,
      "t": 69285.49950000003,
      "d": 186.01132812499418,
      "v": 72
    },
    {
      "midi": 79,
      "hit": false,
      "t": 69285.49950000003,
      "d": 186.01132812499418,
      "v": 72
    },
    {
      "midi": 72,
      "hit": false,
      "t": 69285.49950000003,
      "d": 173.61057291667385,
      "v": 99
    },
    {
      "midi": 76,
      "hit": false,
      "t": 69285.49950000003,
      "d": 173.61057291667385,
      "v": 101
    },
    {
      "midi": 79,
      "hit": false,
      "t": 69285.49950000003,
      "d": 173.61057291667385,
      "v": 100
    },
    {
      "midi": 60,
      "hit": false,
      "t": 69285.49950000003,
      "d": 173.61057291667385,
      "v": 99
    },
    {
      "midi": 64,
      "hit": false,
      "t": 69285.49950000003,
      "d": 173.61057291667385,
      "v": 101
    },
    {
      "midi": 67,
      "hit": false,
      "t": 69285.49950000003,
      "d": 173.61057291667385,
      "v": 100
    },
    {
      "midi": 60,
      "hit": false,
      "t": 69285.49950000025,
      "d": 9.920604166662088,
      "v": 103
    },
    {
      "midi": 64,
      "hit": false,
      "t": 69285.49950000025,
      "d": 9.920604166662088,
      "v": 103
    },
    {
      "midi": 48,
      "hit": false,
      "t": 69404.54674999893,
      "d": 114.08694791667222,
      "v": 78
    },
    {
      "midi": 60,
      "hit": false,
      "t": 69404.54675000024,
      "d": 9.920604166662088,
      "v": 103
    },
    {
      "midi": 64,
      "hit": false,
      "t": 69404.54675000024,
      "d": 9.920604166662088,
      "v": 103
    },
    {
      "midi": 36,
      "hit": false,
      "t": 69523.59399999894,
      "d": 114.08694791667222,
      "v": 78
    },
    {
      "midi": 36,
      "hit": false,
      "t": 69523.59399999992,
      "d": 173.61057291667385,
      "v": 50
    },
    {
      "midi": 36,
      "hit": false,
      "t": 69523.594,
      "d": 208.3326875000057,
      "v": 68
    },
    {
      "midi": 36,
      "hit": false,
      "t": 69642.64124999894,
      "d": 114.08694791667222,
      "v": 78
    },
    {
      "midi": 48,
      "hit": false,
      "t": 69761.68849999894,
      "d": 114.08694791667222,
      "v": 78
    },
    {
      "midi": 48,
      "hit": false,
      "t": 69761.68849999993,
      "d": 173.61057291667385,
      "v": 73
    },
    {
      "midi": 36,
      "hit": false,
      "t": 69761.6885,
      "d": 208.3326875000057,
      "v": 68
    },
    {
      "midi": 60,
      "hit": false,
      "t": 69761.68850000024,
      "d": 9.920604166662088,
      "v": 103
    },
    {
      "midi": 64,
      "hit": false,
      "t": 69761.68850000024,
      "d": 9.920604166662088,
      "v": 103
    },
    {
      "midi": 48,
      "hit": false,
      "t": 69880.73574999894,
      "d": 114.08694791667222,
      "v": 78
    },
    {
      "midi": 60,
      "hit": false,
      "t": 69880.73575000023,
      "d": 9.920604166662088,
      "v": 103
    },
    {
      "midi": 64,
      "hit": false,
      "t": 69880.73575000023,
      "d": 9.920604166662088,
      "v": 103
    },
    {
      "midi": 38,
      "hit": false,
      "t": 69999.78299999895,
      "d": 114.08694791667222,
      "v": 78
    },
    {
      "midi": 38,
      "hit": false,
      "t": 69999.78299999994,
      "d": 173.61057291667385,
      "v": 66
    },
    {
      "midi": 66,
      "hit": false,
      "t": 69999.78299999995,
      "d": 471.22869791666744,
      "v": 58
    },
    {
      "midi": 69,
      "hit": false,
      "t": 69999.78299999995,
      "d": 471.22869791666744,
      "v": 58
    },
    {
      "midi": 74,
      "hit": false,
      "t": 69999.78299999995,
      "d": 471.22869791666744,
      "v": 58
    },
    {
      "midi": 38,
      "hit": false,
      "t": 69999.78300000001,
      "d": 208.3326875000057,
      "v": 68
    },
    {
      "midi": 74,
      "hit": false,
      "t": 69999.78300000002,
      "d": 272.8166145833384,
      "v": 70
    },
    {
      "midi": 78,
      "hit": false,
      "t": 69999.78300000002,
      "d": 272.8166145833384,
      "v": 76
    },
    {
      "midi": 81,
      "hit": false,
      "t": 69999.78300000002,
      "d": 272.8166145833384,
      "v": 75
    },
    {
      "midi": 74,
      "hit": false,
      "t": 69999.78300000004,
      "d": 272.8166145833384,
      "v": 98
    },
    {
      "midi": 78,
      "hit": false,
      "t": 69999.78300000004,
      "d": 272.8166145833384,
      "v": 106
    },
    {
      "midi": 81,
      "hit": false,
      "t": 69999.78300000004,
      "d": 272.8166145833384,
      "v": 104
    },
    {
      "midi": 62,
      "hit": false,
      "t": 69999.78300000004,
      "d": 272.8166145833384,
      "v": 98
    },
    {
      "midi": 66,
      "hit": false,
      "t": 69999.78300000004,
      "d": 272.8166145833384,
      "v": 106
    },
    {
      "midi": 69,
      "hit": false,
      "t": 69999.78300000004,
      "d": 272.8166145833384,
      "v": 104
    },
    {
      "midi": 38,
      "hit": false,
      "t": 70118.83024999895,
      "d": 114.08694791667222,
      "v": 78
    },
    {
      "midi": 50,
      "hit": false,
      "t": 70237.87749999895,
      "d": 114.08694791667222,
      "v": 78
    },
    {
      "midi": 50,
      "hit": false,
      "t": 70237.87749999994,
      "d": 173.61057291667385,
      "v": 86
    },
    {
      "midi": 38,
      "hit": false,
      "t": 70237.87750000002,
      "d": 208.3326875000057,
      "v": 68
    },
    {
      "midi": 62,
      "hit": false,
      "t": 70237.87750000022,
      "d": 9.920604166662088,
      "v": 103
    },
    {
      "midi": 66,
      "hit": false,
      "t": 70237.87750000022,
      "d": 9.920604166662088,
      "v": 103
    },
    {
      "midi": 50,
      "hit": false,
      "t": 70356.92474999896,
      "d": 114.08694791667222,
      "v": 78
    },
    {
      "midi": 62,
      "hit": false,
      "t": 70356.92475000021,
      "d": 9.920604166662088,
      "v": 103
    },
    {
      "midi": 66,
      "hit": false,
      "t": 70356.92475000021,
      "d": 9.920604166662088,
      "v": 103
    },
    {
      "midi": 43,
      "hit": false,
      "t": 70475.97199999896,
      "d": 114.08694791667222,
      "v": 78
    },
    {
      "midi": 83,
      "hit": false,
      "t": 70475.97199999983,
      "d": 2.480151041672798,
      "v": 84
    },
    {
      "midi": 83,
      "hit": false,
      "t": 70475.97199999983,
      "d": 2.480151041672798,
      "v": 110
    },
    {
      "midi": 31,
      "hit": false,
      "t": 70475.97199999995,
      "d": 173.61057291667385,
      "v": 76
    },
    {
      "midi": 62,
      "hit": false,
      "t": 70475.97199999995,
      "d": 1899.795697916663,
      "v": 58
    },
    {
      "midi": 67,
      "hit": false,
      "t": 70475.97199999995,
      "d": 1899.795697916663,
      "v": 58
    },
    {
      "midi": 71,
      "hit": false,
      "t": 70475.97199999995,
      "d": 1899.795697916663,
      "v": 58
    },
    {
      "midi": 31,
      "hit": false,
      "t": 70475.97200000002,
      "d": 208.3326875000057,
      "v": 68
    },
    {
      "midi": 74,
      "hit": false,
      "t": 70475.97200000002,
      "d": 272.8166145833384,
      "v": 64
    },
    {
      "midi": 79,
      "hit": false,
      "t": 70475.97200000002,
      "d": 272.8166145833384,
      "v": 72
    },
    {
      "midi": 83,
      "hit": false,
      "t": 70475.97200000002,
      "d": 272.8166145833384,
      "v": 72
    },
    {
      "midi": 74,
      "hit": false,
      "t": 70475.97200000004,
      "d": 272.8166145833384,
      "v": 90
    },
    {
      "midi": 79,
      "hit": false,
      "t": 70475.97200000004,
      "d": 272.8166145833384,
      "v": 100
    },
    {
      "midi": 83,
      "hit": false,
      "t": 70475.97200000004,
      "d": 272.8166145833384,
      "v": 100
    },
    {
      "midi": 62,
      "hit": false,
      "t": 70475.97200000004,
      "d": 272.8166145833384,
      "v": 90
    },
    {
      "midi": 67,
      "hit": false,
      "t": 70475.97200000004,
      "d": 272.8166145833384,
      "v": 100
    },
    {
      "midi": 71,
      "hit": false,
      "t": 70475.97200000004,
      "d": 272.8166145833384,
      "v": 100
    },
    {
      "midi": 43,
      "hit": false,
      "t": 70595.01924999896,
      "d": 114.08694791667222,
      "v": 78
    },
    {
      "midi": 83,
      "hit": false,
      "t": 70595.01924999984,
      "d": 2.480151041672798,
      "v": 91
    },
    {
      "midi": 83,
      "hit": false,
      "t": 70595.01924999984,
      "d": 2.480151041672798,
      "v": 110
    },
    {
      "midi": 55,
      "hit": false,
      "t": 70714.06649999897,
      "d": 114.08694791667222,
      "v": 78
    },
    {
      "midi": 83,
      "hit": false,
      "t": 70714.06649999984,
      "d": 2.480151041672798,
      "v": 88
    },
    {
      "midi": 83,
      "hit": false,
      "t": 70714.06649999984,
      "d": 2.480151041672798,
      "v": 110
    },
    {
      "midi": 43,
      "hit": false,
      "t": 70714.06649999996,
      "d": 173.61057291667385,
      "v": 82
    },
    {
      "midi": 31,
      "hit": false,
      "t": 70714.06650000003,
      "d": 208.3326875000057,
      "v": 68
    },
    {
      "midi": 67,
      "hit": false,
      "t": 70714.0665000002,
      "d": 9.920604166662088,
      "v": 103
    },
    {
      "midi": 71,
      "hit": false,
      "t": 70714.0665000002,
      "d": 9.920604166662088,
      "v": 103
    },
    {
      "midi": 55,
      "hit": false,
      "t": 70833.11374999897,
      "d": 114.08694791667222,
      "v": 78
    },
    {
      "midi": 83,
      "hit": false,
      "t": 70833.11374999984,
      "d": 2.480151041672798,
      "v": 91
    },
    {
      "midi": 83,
      "hit": false,
      "t": 70833.11374999984,
      "d": 2.480151041672798,
      "v": 110
    },
    {
      "midi": 67,
      "hit": false,
      "t": 70833.1137500002,
      "d": 9.920604166662088,
      "v": 103
    },
    {
      "midi": 71,
      "hit": false,
      "t": 70833.1137500002,
      "d": 9.920604166662088,
      "v": 103
    },
    {
      "midi": 43,
      "hit": false,
      "t": 70952.16099999897,
      "d": 114.08694791667222,
      "v": 78
    },
    {
      "midi": 83,
      "hit": false,
      "t": 70952.16099999985,
      "d": 2.480151041672798,
      "v": 87
    },
    {
      "midi": 83,
      "hit": false,
      "t": 70952.16099999985,
      "d": 2.480151041672798,
      "v": 110
    },
    {
      "midi": 31,
      "hit": false,
      "t": 70952.16099999996,
      "d": 173.61057291667385,
      "v": 62
    },
    {
      "midi": 31,
      "hit": false,
      "t": 70952.16100000004,
      "d": 208.3326875000057,
      "v": 68
    },
    {
      "midi": 43,
      "hit": false,
      "t": 71071.20824999898,
      "d": 114.08694791667222,
      "v": 78
    },
    {
      "midi": 83,
      "hit": false,
      "t": 71071.20824999985,
      "d": 2.480151041672798,
      "v": 87
    },
    {
      "midi": 83,
      "hit": false,
      "t": 71071.20824999985,
      "d": 2.480151041672798,
      "v": 110
    },
    {
      "midi": 55,
      "hit": false,
      "t": 71190.25549999898,
      "d": 114.08694791667222,
      "v": 78
    },
    {
      "midi": 83,
      "hit": false,
      "t": 71190.25549999985,
      "d": 2.480151041672798,
      "v": 89
    },
    {
      "midi": 83,
      "hit": false,
      "t": 71190.25549999985,
      "d": 2.480151041672798,
      "v": 110
    },
    {
      "midi": 43,
      "hit": false,
      "t": 71190.25549999997,
      "d": 173.61057291667385,
      "v": 78
    },
    {
      "midi": 31,
      "hit": false,
      "t": 71190.25550000004,
      "d": 208.3326875000057,
      "v": 68
    },
    {
      "midi": 67,
      "hit": false,
      "t": 71190.25550000019,
      "d": 9.920604166662088,
      "v": 103
    },
    {
      "midi": 71,
      "hit": false,
      "t": 71190.25550000019,
      "d": 9.920604166662088,
      "v": 103
    },
    {
      "midi": 55,
      "hit": false,
      "t": 71309.30274999898,
      "d": 114.08694791667222,
      "v": 78
    },
    {
      "midi": 83,
      "hit": false,
      "t": 71309.30274999986,
      "d": 2.480151041672798,
      "v": 91
    },
    {
      "midi": 83,
      "hit": false,
      "t": 71309.30274999986,
      "d": 2.480151041672798,
      "v": 110
    },
    {
      "midi": 67,
      "hit": false,
      "t": 71309.30275000018,
      "d": 9.920604166662088,
      "v": 103
    },
    {
      "midi": 71,
      "hit": false,
      "t": 71309.30275000018,
      "d": 9.920604166662088,
      "v": 103
    },
    {
      "midi": 43,
      "hit": false,
      "t": 71428.34999999899,
      "d": 114.08694791667222,
      "v": 78
    },
    {
      "midi": 83,
      "hit": false,
      "t": 71428.34999999986,
      "d": 2.480151041672798,
      "v": 91
    },
    {
      "midi": 83,
      "hit": false,
      "t": 71428.34999999986,
      "d": 2.480151041672798,
      "v": 110
    },
    {
      "midi": 31,
      "hit": false,
      "t": 71428.34999999998,
      "d": 173.61057291667385,
      "v": 67
    },
    {
      "midi": 31,
      "hit": false,
      "t": 71428.35000000005,
      "d": 208.3326875000057,
      "v": 68
    },
    {
      "midi": 43,
      "hit": false,
      "t": 71547.39724999899,
      "d": 114.08694791667222,
      "v": 78
    },
    {
      "midi": 83,
      "hit": false,
      "t": 71547.39724999986,
      "d": 2.480151041672798,
      "v": 92
    },
    {
      "midi": 83,
      "hit": false,
      "t": 71547.39724999986,
      "d": 2.480151041672798,
      "v": 110
    },
    {
      "midi": 55,
      "hit": false,
      "t": 71666.444499999,
      "d": 114.08694791667222,
      "v": 78
    },
    {
      "midi": 83,
      "hit": false,
      "t": 71666.44449999987,
      "d": 2.480151041672798,
      "v": 96
    },
    {
      "midi": 83,
      "hit": false,
      "t": 71666.44449999987,
      "d": 2.480151041672798,
      "v": 110
    },
    {
      "midi": 43,
      "hit": false,
      "t": 71666.44449999998,
      "d": 173.61057291667385,
      "v": 70
    },
    {
      "midi": 31,
      "hit": false,
      "t": 71666.44450000006,
      "d": 208.3326875000057,
      "v": 68
    },
    {
      "midi": 67,
      "hit": false,
      "t": 71666.44450000017,
      "d": 9.920604166662088,
      "v": 103
    },
    {
      "midi": 71,
      "hit": false,
      "t": 71666.44450000017,
      "d": 9.920604166662088,
      "v": 103
    },
    {
      "midi": 55,
      "hit": false,
      "t": 71785.491749999,
      "d": 114.08694791667222,
      "v": 78
    },
    {
      "midi": 83,
      "hit": false,
      "t": 71785.49174999987,
      "d": 2.480151041672798,
      "v": 92
    },
    {
      "midi": 83,
      "hit": false,
      "t": 71785.49174999987,
      "d": 2.480151041672798,
      "v": 110
    },
    {
      "midi": 67,
      "hit": false,
      "t": 71785.49175000016,
      "d": 9.920604166662088,
      "v": 103
    },
    {
      "midi": 71,
      "hit": false,
      "t": 71785.49175000016,
      "d": 9.920604166662088,
      "v": 103
    },
    {
      "midi": 43,
      "hit": false,
      "t": 71904.538999999,
      "d": 114.08694791667222,
      "v": 78
    },
    {
      "midi": 83,
      "hit": false,
      "t": 71904.53899999987,
      "d": 2.480151041672798,
      "v": 96
    },
    {
      "midi": 83,
      "hit": false,
      "t": 71904.53899999987,
      "d": 2.480151041672798,
      "v": 110
    },
    {
      "midi": 31,
      "hit": false,
      "t": 71904.53899999999,
      "d": 173.61057291667385,
      "v": 56
    },
    {
      "midi": 31,
      "hit": false,
      "t": 71904.53900000006,
      "d": 208.3326875000057,
      "v": 68
    },
    {
      "midi": 43,
      "hit": false,
      "t": 72023.586249999,
      "d": 114.08694791667222,
      "v": 78
    },
    {
      "midi": 83,
      "hit": false,
      "t": 72023.58624999988,
      "d": 2.480151041672798,
      "v": 96
    },
    {
      "midi": 83,
      "hit": false,
      "t": 72023.58624999988,
      "d": 2.480151041672798,
      "v": 110
    },
    {
      "midi": 55,
      "hit": false,
      "t": 72142.633499999,
      "d": 114.08694791667222,
      "v": 78
    },
    {
      "midi": 83,
      "hit": false,
      "t": 72142.63349999988,
      "d": 2.480151041672798,
      "v": 98
    },
    {
      "midi": 83,
      "hit": false,
      "t": 72142.63349999988,
      "d": 2.480151041672798,
      "v": 110
    },
    {
      "midi": 43,
      "hit": false,
      "t": 72142.6335,
      "d": 173.61057291667385,
      "v": 70
    },
    {
      "midi": 31,
      "hit": false,
      "t": 72142.63350000007,
      "d": 208.3326875000057,
      "v": 68
    },
    {
      "midi": 67,
      "hit": false,
      "t": 72142.63350000016,
      "d": 9.920604166662088,
      "v": 103
    },
    {
      "midi": 71,
      "hit": false,
      "t": 72142.63350000016,
      "d": 9.920604166662088,
      "v": 103
    },
    {
      "midi": 55,
      "hit": false,
      "t": 72261.68074999901,
      "d": 114.08694791667222,
      "v": 78
    },
    {
      "midi": 83,
      "hit": false,
      "t": 72261.68074999988,
      "d": 2.480151041672798,
      "v": 101
    },
    {
      "midi": 83,
      "hit": false,
      "t": 72261.68074999988,
      "d": 2.480151041672798,
      "v": 110
    },
    {
      "midi": 67,
      "hit": false,
      "t": 72261.68075000015,
      "d": 9.920604166662088,
      "v": 103
    },
    {
      "midi": 71,
      "hit": false,
      "t": 72261.68075000015,
      "d": 9.920604166662088,
      "v": 103
    },
    {
      "midi": 38,
      "hit": false,
      "t": 72380.72799999901,
      "d": 114.08694791667222,
      "v": 78
    },
    {
      "midi": 62,
      "hit": false,
      "t": 72380.72799999994,
      "d": 1899.795697916663,
      "v": 58
    },
    {
      "midi": 66,
      "hit": false,
      "t": 72380.72799999994,
      "d": 1899.795697916663,
      "v": 58
    },
    {
      "midi": 69,
      "hit": false,
      "t": 72380.72799999994,
      "d": 1899.795697916663,
      "v": 58
    },
    {
      "midi": 38,
      "hit": false,
      "t": 72380.728,
      "d": 173.61057291667385,
      "v": 70
    },
    {
      "midi": 74,
      "hit": false,
      "t": 72380.72800000003,
      "d": 186.01132812499418,
      "v": 54
    },
    {
      "midi": 78,
      "hit": false,
      "t": 72380.72800000003,
      "d": 186.01132812499418,
      "v": 57
    },
    {
      "midi": 81,
      "hit": false,
      "t": 72380.72800000003,
      "d": 186.01132812499418,
      "v": 49
    },
    {
      "midi": 74,
      "hit": false,
      "t": 72380.72800000005,
      "d": 173.61057291667385,
      "v": 76
    },
    {
      "midi": 78,
      "hit": false,
      "t": 72380.72800000005,
      "d": 173.61057291667385,
      "v": 80
    },
    {
      "midi": 81,
      "hit": false,
      "t": 72380.72800000005,
      "d": 173.61057291667385,
      "v": 70
    },
    {
      "midi": 62,
      "hit": false,
      "t": 72380.72800000005,
      "d": 173.61057291667385,
      "v": 76
    },
    {
      "midi": 66,
      "hit": false,
      "t": 72380.72800000005,
      "d": 173.61057291667385,
      "v": 80
    },
    {
      "midi": 69,
      "hit": false,
      "t": 72380.72800000005,
      "d": 173.61057291667385,
      "v": 70
    },
    {
      "midi": 38,
      "hit": false,
      "t": 72380.72800000008,
      "d": 208.3326875000057,
      "v": 68
    },
    {
      "midi": 38,
      "hit": false,
      "t": 72499.77524999902,
      "d": 114.08694791667222,
      "v": 78
    },
    {
      "midi": 50,
      "hit": false,
      "t": 72618.82249999902,
      "d": 114.08694791667222,
      "v": 78
    },
    {
      "midi": 50,
      "hit": false,
      "t": 72618.82250000001,
      "d": 173.61057291667385,
      "v": 62
    },
    {
      "midi": 74,
      "hit": false,
      "t": 72618.82250000002,
      "d": 186.01132812499418,
      "v": 65
    },
    {
      "midi": 78,
      "hit": false,
      "t": 72618.82250000002,
      "d": 186.01132812499418,
      "v": 68
    },
    {
      "midi": 81,
      "hit": false,
      "t": 72618.82250000002,
      "d": 186.01132812499418,
      "v": 64
    },
    {
      "midi": 74,
      "hit": false,
      "t": 72618.82250000005,
      "d": 173.61057291667385,
      "v": 91
    },
    {
      "midi": 78,
      "hit": false,
      "t": 72618.82250000005,
      "d": 173.61057291667385,
      "v": 95
    },
    {
      "midi": 81,
      "hit": false,
      "t": 72618.82250000005,
      "d": 173.61057291667385,
      "v": 90
    },
    {
      "midi": 62,
      "hit": false,
      "t": 72618.82250000005,
      "d": 173.61057291667385,
      "v": 91
    },
    {
      "midi": 66,
      "hit": false,
      "t": 72618.82250000005,
      "d": 173.61057291667385,
      "v": 95
    },
    {
      "midi": 69,
      "hit": false,
      "t": 72618.82250000005,
      "d": 173.61057291667385,
      "v": 90
    },
    {
      "midi": 38,
      "hit": false,
      "t": 72618.82250000008,
      "d": 208.3326875000057,
      "v": 68
    },
    {
      "midi": 62,
      "hit": false,
      "t": 72618.82250000014,
      "d": 9.920604166662088,
      "v": 103
    },
    {
      "midi": 66,
      "hit": false,
      "t": 72618.82250000014,
      "d": 9.920604166662088,
      "v": 103
    },
    {
      "midi": 50,
      "hit": false,
      "t": 72737.86974999902,
      "d": 114.08694791667222,
      "v": 78
    },
    {
      "midi": 62,
      "hit": false,
      "t": 72737.86975000013,
      "d": 9.920604166662088,
      "v": 103
    },
    {
      "midi": 66,
      "hit": false,
      "t": 72737.86975000013,
      "d": 9.920604166662088,
      "v": 103
    },
    {
      "midi": 38,
      "hit": false,
      "t": 72856.91699999903,
      "d": 114.08694791667222,
      "v": 78
    },
    {
      "midi": 38,
      "hit": false,
      "t": 72856.91700000002,
      "d": 173.61057291667385,
      "v": 66
    },
    {
      "midi": 74,
      "hit": false,
      "t": 72856.91700000002,
      "d": 186.01132812499418,
      "v": 71
    },
    {
      "midi": 78,
      "hit": false,
      "t": 72856.91700000002,
      "d": 186.01132812499418,
      "v": 72
    },
    {
      "midi": 81,
      "hit": false,
      "t": 72856.91700000002,
      "d": 186.01132812499418,
      "v": 72
    },
    {
      "midi": 74,
      "hit": false,
      "t": 72856.91700000006,
      "d": 173.61057291667385,
      "v": 99
    },
    {
      "midi": 78,
      "hit": false,
      "t": 72856.91700000006,
      "d": 173.61057291667385,
      "v": 101
    },
    {
      "midi": 81,
      "hit": false,
      "t": 72856.91700000006,
      "d": 173.61057291667385,
      "v": 100
    },
    {
      "midi": 62,
      "hit": false,
      "t": 72856.91700000006,
      "d": 173.61057291667385,
      "v": 99
    },
    {
      "midi": 66,
      "hit": false,
      "t": 72856.91700000006,
      "d": 173.61057291667385,
      "v": 101
    },
    {
      "midi": 69,
      "hit": false,
      "t": 72856.91700000006,
      "d": 173.61057291667385,
      "v": 100
    },
    {
      "midi": 38,
      "hit": false,
      "t": 72856.91700000009,
      "d": 208.3326875000057,
      "v": 68
    },
    {
      "midi": 38,
      "hit": false,
      "t": 72975.96424999903,
      "d": 114.08694791667222,
      "v": 78
    },
    {
      "midi": 50,
      "hit": false,
      "t": 73095.01149999903,
      "d": 114.08694791667222,
      "v": 78
    },
    {
      "midi": 74,
      "hit": false,
      "t": 73095.01150000001,
      "d": 186.01132812499418,
      "v": 70
    },
    {
      "midi": 78,
      "hit": false,
      "t": 73095.01150000001,
      "d": 186.01132812499418,
      "v": 74
    },
    {
      "midi": 81,
      "hit": false,
      "t": 73095.01150000001,
      "d": 186.01132812499418,
      "v": 69
    },
    {
      "midi": 50,
      "hit": false,
      "t": 73095.01150000002,
      "d": 173.61057291667385,
      "v": 67
    },
    {
      "midi": 74,
      "hit": false,
      "t": 73095.01150000007,
      "d": 173.61057291667385,
      "v": 98
    },
    {
      "midi": 78,
      "hit": false,
      "t": 73095.01150000007,
      "d": 173.61057291667385,
      "v": 103
    },
    {
      "midi": 81,
      "hit": false,
      "t": 73095.01150000007,
      "d": 173.61057291667385,
      "v": 96
    },
    {
      "midi": 62,
      "hit": false,
      "t": 73095.01150000007,
      "d": 173.61057291667385,
      "v": 98
    },
    {
      "midi": 66,
      "hit": false,
      "t": 73095.01150000007,
      "d": 173.61057291667385,
      "v": 103
    },
    {
      "midi": 69,
      "hit": false,
      "t": 73095.01150000007,
      "d": 173.61057291667385,
      "v": 96
    },
    {
      "midi": 38,
      "hit": false,
      "t": 73095.0115000001,
      "d": 208.3326875000057,
      "v": 68
    },
    {
      "midi": 62,
      "hit": false,
      "t": 73095.01150000012,
      "d": 9.920604166662088,
      "v": 103
    },
    {
      "midi": 66,
      "hit": false,
      "t": 73095.01150000012,
      "d": 9.920604166662088,
      "v": 103
    },
    {
      "midi": 50,
      "hit": false,
      "t": 73214.05874999904,
      "d": 114.08694791667222,
      "v": 78
    },
    {
      "midi": 62,
      "hit": false,
      "t": 73214.05875000011,
      "d": 9.920604166662088,
      "v": 103
    },
    {
      "midi": 66,
      "hit": false,
      "t": 73214.05875000011,
      "d": 9.920604166662088,
      "v": 103
    },
    {
      "midi": 38,
      "hit": false,
      "t": 73333.10599999904,
      "d": 114.08694791667222,
      "v": 78
    },
    {
      "midi": 38,
      "hit": false,
      "t": 73333.10600000003,
      "d": 173.61057291667385,
      "v": 64
    },
    {
      "midi": 38,
      "hit": false,
      "t": 73333.1060000001,
      "d": 208.3326875000057,
      "v": 68
    },
    {
      "midi": 38,
      "hit": false,
      "t": 73452.15324999904,
      "d": 114.08694791667222,
      "v": 78
    },
    {
      "midi": 50,
      "hit": false,
      "t": 73571.20049999905,
      "d": 114.08694791667222,
      "v": 78
    },
    {
      "midi": 50,
      "hit": false,
      "t": 73571.20050000004,
      "d": 173.61057291667385,
      "v": 66
    },
    {
      "midi": 38,
      "hit": false,
      "t": 73571.20050000011,
      "d": 208.3326875000057,
      "v": 68
    },
    {
      "midi": 62,
      "hit": false,
      "t": 73571.20050000011,
      "d": 9.920604166662088,
      "v": 103
    },
    {
      "midi": 66,
      "hit": false,
      "t": 73571.20050000011,
      "d": 9.920604166662088,
      "v": 103
    },
    {
      "midi": 50,
      "hit": false,
      "t": 73690.24774999905,
      "d": 114.08694791667222,
      "v": 78
    },
    {
      "midi": 62,
      "hit": false,
      "t": 73690.2477500001,
      "d": 9.920604166662088,
      "v": 103
    },
    {
      "midi": 66,
      "hit": false,
      "t": 73690.2477500001,
      "d": 9.920604166662088,
      "v": 103
    },
    {
      "midi": 38,
      "hit": false,
      "t": 73809.29499999905,
      "d": 114.08694791667222,
      "v": 78
    },
    {
      "midi": 74,
      "hit": false,
      "t": 73809.295,
      "d": 272.8166145833384,
      "v": 68
    },
    {
      "midi": 78,
      "hit": false,
      "t": 73809.295,
      "d": 272.8166145833384,
      "v": 67
    },
    {
      "midi": 83,
      "hit": false,
      "t": 73809.295,
      "d": 272.8166145833384,
      "v": 72
    },
    {
      "midi": 38,
      "hit": false,
      "t": 73809.29500000004,
      "d": 173.61057291667385,
      "v": 62
    },
    {
      "midi": 74,
      "hit": false,
      "t": 73809.29500000007,
      "d": 272.8166145833384,
      "v": 95
    },
    {
      "midi": 78,
      "hit": false,
      "t": 73809.29500000007,
      "d": 272.8166145833384,
      "v": 94
    },
    {
      "midi": 83,
      "hit": false,
      "t": 73809.29500000007,
      "d": 272.8166145833384,
      "v": 100
    },
    {
      "midi": 62,
      "hit": false,
      "t": 73809.29500000007,
      "d": 272.8166145833384,
      "v": 95
    },
    {
      "midi": 66,
      "hit": false,
      "t": 73809.29500000007,
      "d": 272.8166145833384,
      "v": 94
    },
    {
      "midi": 71,
      "hit": false,
      "t": 73809.29500000007,
      "d": 272.8166145833384,
      "v": 100
    },
    {
      "midi": 38,
      "hit": false,
      "t": 73809.29500000011,
      "d": 208.3326875000057,
      "v": 68
    },
    {
      "midi": 38,
      "hit": false,
      "t": 73928.34224999906,
      "d": 114.08694791667222,
      "v": 78
    },
    {
      "midi": 50,
      "hit": false,
      "t": 74047.38949999906,
      "d": 114.08694791667222,
      "v": 78
    },
    {
      "midi": 50,
      "hit": false,
      "t": 74047.38950000005,
      "d": 173.61057291667385,
      "v": 73
    },
    {
      "midi": 62,
      "hit": false,
      "t": 74047.38950000009,
      "d": 9.920604166662088,
      "v": 103
    },
    {
      "midi": 66,
      "hit": false,
      "t": 74047.38950000009,
      "d": 9.920604166662088,
      "v": 103
    },
    {
      "midi": 38,
      "hit": false,
      "t": 74047.38950000012,
      "d": 208.3326875000057,
      "v": 68
    },
    {
      "midi": 50,
      "hit": false,
      "t": 74166.43674999906,
      "d": 114.08694791667222,
      "v": 78
    },
    {
      "midi": 62,
      "hit": false,
      "t": 74166.43675000008,
      "d": 9.920604166662088,
      "v": 103
    },
    {
      "midi": 66,
      "hit": false,
      "t": 74166.43675000008,
      "d": 9.920604166662088,
      "v": 103
    },
    {
      "midi": 40,
      "hit": false,
      "t": 74285.48399999907,
      "d": 114.08694791667222,
      "v": 78
    },
    {
      "midi": 64,
      "hit": false,
      "t": 74285.48399999994,
      "d": 947.4176979166659,
      "v": 58
    },
    {
      "midi": 67,
      "hit": false,
      "t": 74285.48399999994,
      "d": 1899.795697916663,
      "v": 58
    },
    {
      "midi": 71,
      "hit": false,
      "t": 74285.48399999994,
      "d": 1899.795697916663,
      "v": 58
    },
    {
      "midi": 71,
      "hit": false,
      "t": 74285.484,
      "d": 272.8166145833384,
      "v": 63
    },
    {
      "midi": 76,
      "hit": false,
      "t": 74285.484,
      "d": 272.8166145833384,
      "v": 74
    },
    {
      "midi": 79,
      "hit": false,
      "t": 74285.484,
      "d": 272.8166145833384,
      "v": 75
    },
    {
      "midi": 40,
      "hit": false,
      "t": 74285.48400000005,
      "d": 173.61057291667385,
      "v": 73
    },
    {
      "midi": 71,
      "hit": false,
      "t": 74285.48400000007,
      "d": 272.8166145833384,
      "v": 88
    },
    {
      "midi": 76,
      "hit": false,
      "t": 74285.48400000007,
      "d": 272.8166145833384,
      "v": 103
    },
    {
      "midi": 79,
      "hit": false,
      "t": 74285.48400000007,
      "d": 272.8166145833384,
      "v": 105
    },
    {
      "midi": 59,
      "hit": false,
      "t": 74285.48400000007,
      "d": 272.8166145833384,
      "v": 88
    },
    {
      "midi": 64,
      "hit": false,
      "t": 74285.48400000007,
      "d": 272.8166145833384,
      "v": 103
    },
    {
      "midi": 67,
      "hit": false,
      "t": 74285.48400000007,
      "d": 272.8166145833384,
      "v": 105
    },
    {
      "midi": 40,
      "hit": false,
      "t": 74285.48400000013,
      "d": 208.3326875000057,
      "v": 68
    },
    {
      "midi": 40,
      "hit": false,
      "t": 74404.53124999907,
      "d": 114.08694791667222,
      "v": 78
    },
    {
      "midi": 52,
      "hit": false,
      "t": 74523.57849999907,
      "d": 114.08694791667222,
      "v": 78
    },
    {
      "midi": 52,
      "hit": false,
      "t": 74523.57850000006,
      "d": 173.61057291667385,
      "v": 64
    },
    {
      "midi": 64,
      "hit": false,
      "t": 74523.57850000008,
      "d": 9.920604166662088,
      "v": 103
    },
    {
      "midi": 67,
      "hit": false,
      "t": 74523.57850000008,
      "d": 9.920604166662088,
      "v": 103
    },
    {
      "midi": 40,
      "hit": false,
      "t": 74523.57850000013,
      "d": 208.3326875000057,
      "v": 68
    },
    {
      "midi": 52,
      "hit": false,
      "t": 74642.62574999908,
      "d": 114.08694791667222,
      "v": 78
    },
    {
      "midi": 64,
      "hit": false,
      "t": 74642.62575000006,
      "d": 9.920604166662088,
      "v": 103
    },
    {
      "midi": 67,
      "hit": false,
      "t": 74642.62575000006,
      "d": 9.920604166662088,
      "v": 103
    },
    {
      "midi": 40,
      "hit": false,
      "t": 74761.67299999908,
      "d": 114.08694791667222,
      "v": 78
    },
    {
      "midi": 40,
      "hit": false,
      "t": 74761.67300000007,
      "d": 173.61057291667385,
      "v": 62
    },
    {
      "midi": 40,
      "hit": false,
      "t": 74761.67300000014,
      "d": 208.3326875000057,
      "v": 68
    },
    {
      "midi": 40,
      "hit": false,
      "t": 74880.72024999908,
      "d": 114.08694791667222,
      "v": 78
    },
    {
      "midi": 52,
      "hit": false,
      "t": 74999.76749999908,
      "d": 114.08694791667222,
      "v": 78
    },
    {
      "midi": 64,
      "hit": false,
      "t": 74999.76750000006,
      "d": 9.920604166662088,
      "v": 103
    },
    {
      "midi": 67,
      "hit": false,
      "t": 74999.76750000006,
      "d": 9.920604166662088,
      "v": 103
    },
    {
      "midi": 52,
      "hit": false,
      "t": 74999.76750000007,
      "d": 173.61057291667385,
      "v": 80
    },
    {
      "midi": 40,
      "hit": false,
      "t": 74999.76750000015,
      "d": 208.3326875000057,
      "v": 68
    },
    {
      "midi": 52,
      "hit": false,
      "t": 75118.81474999909,
      "d": 114.08694791667222,
      "v": 78
    },
    {
      "midi": 64,
      "hit": false,
      "t": 75118.81475000005,
      "d": 9.920604166662088,
      "v": 103
    },
    {
      "midi": 67,
      "hit": false,
      "t": 75118.81475000005,
      "d": 9.920604166662088,
      "v": 103
    },
    {
      "midi": 38,
      "hit": false,
      "t": 75237.86199999909,
      "d": 114.08694791667222,
      "v": 78
    },
    {
      "midi": 62,
      "hit": false,
      "t": 75237.86199999994,
      "d": 947.4176979166659,
      "v": 58
    },
    {
      "midi": 38,
      "hit": false,
      "t": 75237.86200000008,
      "d": 173.61057291667385,
      "v": 58
    },
    {
      "midi": 38,
      "hit": false,
      "t": 75237.86200000015,
      "d": 208.3326875000057,
      "v": 68
    },
    {
      "midi": 38,
      "hit": false,
      "t": 75356.9092499991,
      "d": 114.08694791667222,
      "v": 78
    },
    {
      "midi": 50,
      "hit": false,
      "t": 75475.9564999991,
      "d": 114.08694791667222,
      "v": 78
    },
    {
      "midi": 62,
      "hit": false,
      "t": 75475.95650000004,
      "d": 9.920604166662088,
      "v": 103
    },
    {
      "midi": 66,
      "hit": false,
      "t": 75475.95650000004,
      "d": 9.920604166662088,
      "v": 103
    },
    {
      "midi": 50,
      "hit": false,
      "t": 75475.95650000009,
      "d": 173.61057291667385,
      "v": 72
    },
    {
      "midi": 38,
      "hit": false,
      "t": 75475.95650000016,
      "d": 208.3326875000057,
      "v": 68
    },
    {
      "midi": 50,
      "hit": false,
      "t": 75595.0037499991,
      "d": 114.08694791667222,
      "v": 78
    },
    {
      "midi": 62,
      "hit": false,
      "t": 75595.00375000003,
      "d": 9.920604166662088,
      "v": 103
    },
    {
      "midi": 66,
      "hit": false,
      "t": 75595.00375000003,
      "d": 9.920604166662088,
      "v": 103
    },
    {
      "midi": 38,
      "hit": false,
      "t": 75714.0509999991,
      "d": 114.08694791667222,
      "v": 78
    },
    {
      "midi": 38,
      "hit": false,
      "t": 75714.0510000001,
      "d": 173.61057291667385,
      "v": 59
    },
    {
      "midi": 38,
      "hit": false,
      "t": 75714.05100000017,
      "d": 208.3326875000057,
      "v": 68
    },
    {
      "midi": 38,
      "hit": false,
      "t": 75833.09824999911,
      "d": 114.08694791667222,
      "v": 78
    },
    {
      "midi": 50,
      "hit": false,
      "t": 75952.14549999911,
      "d": 114.08694791667222,
      "v": 78
    },
    {
      "midi": 62,
      "hit": false,
      "t": 75952.14550000003,
      "d": 9.920604166662088,
      "v": 103
    },
    {
      "midi": 66,
      "hit": false,
      "t": 75952.14550000003,
      "d": 9.920604166662088,
      "v": 103
    },
    {
      "midi": 50,
      "hit": false,
      "t": 75952.1455000001,
      "d": 173.61057291667385,
      "v": 70
    },
    {
      "midi": 38,
      "hit": false,
      "t": 75952.14550000017,
      "d": 208.3326875000057,
      "v": 68
    },
    {
      "midi": 50,
      "hit": false,
      "t": 76071.19274999911,
      "d": 114.08694791667222,
      "v": 78
    },
    {
      "midi": 62,
      "hit": false,
      "t": 76071.19275000002,
      "d": 9.920604166662088,
      "v": 103
    },
    {
      "midi": 66,
      "hit": false,
      "t": 76071.19275000002,
      "d": 9.920604166662088,
      "v": 103
    },
    {
      "midi": 33,
      "hit": false,
      "t": 76190.23999999912,
      "d": 114.08694791667222,
      "v": 78
    },
    {
      "midi": 61,
      "hit": false,
      "t": 76190.23999999993,
      "d": 1423.6066979166644,
      "v": 58
    },
    {
      "midi": 64,
      "hit": false,
      "t": 76190.23999999993,
      "d": 1423.6066979166644,
      "v": 58
    },
    {
      "midi": 69,
      "hit": false,
      "t": 76190.23999999993,
      "d": 1423.6066979166644,
      "v": 58
    },
    {
      "midi": 73,
      "hit": false,
      "t": 76190.24,
      "d": 186.01132812499418,
      "v": 54
    },
    {
      "midi": 76,
      "hit": false,
      "t": 76190.24,
      "d": 186.01132812499418,
      "v": 57
    },
    {
      "midi": 81,
      "hit": false,
      "t": 76190.24,
      "d": 186.01132812499418,
      "v": 49
    },
    {
      "midi": 73,
      "hit": false,
      "t": 76190.24000000008,
      "d": 173.61057291667385,
      "v": 76
    },
    {
      "midi": 76,
      "hit": false,
      "t": 76190.24000000008,
      "d": 173.61057291667385,
      "v": 80
    },
    {
      "midi": 81,
      "hit": false,
      "t": 76190.24000000008,
      "d": 173.61057291667385,
      "v": 70
    },
    {
      "midi": 61,
      "hit": false,
      "t": 76190.24000000008,
      "d": 173.61057291667385,
      "v": 76
    },
    {
      "midi": 64,
      "hit": false,
      "t": 76190.24000000008,
      "d": 173.61057291667385,
      "v": 80
    },
    {
      "midi": 69,
      "hit": false,
      "t": 76190.24000000008,
      "d": 173.61057291667385,
      "v": 70
    },
    {
      "midi": 33,
      "hit": false,
      "t": 76190.2400000001,
      "d": 173.61057291667385,
      "v": 74
    },
    {
      "midi": 33,
      "hit": false,
      "t": 76190.24000000018,
      "d": 208.3326875000057,
      "v": 68
    },
    {
      "midi": 33,
      "hit": false,
      "t": 76309.28724999912,
      "d": 114.08694791667222,
      "v": 78
    },
    {
      "midi": 45,
      "hit": false,
      "t": 76428.33449999912,
      "d": 114.08694791667222,
      "v": 78
    },
    {
      "midi": 73,
      "hit": false,
      "t": 76428.3345,
      "d": 186.01132812499418,
      "v": 65
    },
    {
      "midi": 76,
      "hit": false,
      "t": 76428.3345,
      "d": 186.01132812499418,
      "v": 68
    },
    {
      "midi": 81,
      "hit": false,
      "t": 76428.3345,
      "d": 186.01132812499418,
      "v": 64
    },
    {
      "midi": 57,
      "hit": false,
      "t": 76428.33450000001,
      "d": 9.920604166662088,
      "v": 103
    },
    {
      "midi": 61,
      "hit": false,
      "t": 76428.33450000001,
      "d": 9.920604166662088,
      "v": 103
    },
    {
      "midi": 73,
      "hit": false,
      "t": 76428.33450000008,
      "d": 173.61057291667385,
      "v": 91
    },
    {
      "midi": 76,
      "hit": false,
      "t": 76428.33450000008,
      "d": 173.61057291667385,
      "v": 95
    },
    {
      "midi": 81,
      "hit": false,
      "t": 76428.33450000008,
      "d": 173.61057291667385,
      "v": 90
    },
    {
      "midi": 61,
      "hit": false,
      "t": 76428.33450000008,
      "d": 173.61057291667385,
      "v": 91
    },
    {
      "midi": 64,
      "hit": false,
      "t": 76428.33450000008,
      "d": 173.61057291667385,
      "v": 95
    },
    {
      "midi": 69,
      "hit": false,
      "t": 76428.33450000008,
      "d": 173.61057291667385,
      "v": 90
    },
    {
      "midi": 45,
      "hit": false,
      "t": 76428.33450000011,
      "d": 173.61057291667385,
      "v": 70
    },
    {
      "midi": 33,
      "hit": false,
      "t": 76428.33450000019,
      "d": 208.3326875000057,
      "v": 68
    },
    {
      "midi": 45,
      "hit": false,
      "t": 76547.38174999913,
      "d": 114.08694791667222,
      "v": 78
    },
    {
      "midi": 57,
      "hit": false,
      "t": 76547.38175,
      "d": 9.920604166662088,
      "v": 103
    },
    {
      "midi": 61,
      "hit": false,
      "t": 76547.38175,
      "d": 9.920604166662088,
      "v": 103
    },
    {
      "midi": 33,
      "hit": false,
      "t": 76666.42899999913,
      "d": 114.08694791667222,
      "v": 78
    },
    {
      "midi": 73,
      "hit": false,
      "t": 76666.42899999999,
      "d": 186.01132812499418,
      "v": 71
    },
    {
      "midi": 76,
      "hit": false,
      "t": 76666.42899999999,
      "d": 186.01132812499418,
      "v": 72
    },
    {
      "midi": 81,
      "hit": false,
      "t": 76666.42899999999,
      "d": 186.01132812499418,
      "v": 72
    },
    {
      "midi": 73,
      "hit": false,
      "t": 76666.42900000009,
      "d": 173.61057291667385,
      "v": 99
    },
    {
      "midi": 76,
      "hit": false,
      "t": 76666.42900000009,
      "d": 173.61057291667385,
      "v": 101
    },
    {
      "midi": 81,
      "hit": false,
      "t": 76666.42900000009,
      "d": 173.61057291667385,
      "v": 100
    },
    {
      "midi": 61,
      "hit": false,
      "t": 76666.42900000009,
      "d": 173.61057291667385,
      "v": 99
    },
    {
      "midi": 64,
      "hit": false,
      "t": 76666.42900000009,
      "d": 173.61057291667385,
      "v": 101
    },
    {
      "midi": 69,
      "hit": false,
      "t": 76666.42900000009,
      "d": 173.61057291667385,
      "v": 100
    },
    {
      "midi": 33,
      "hit": false,
      "t": 76666.42900000012,
      "d": 173.61057291667385,
      "v": 64
    },
    {
      "midi": 33,
      "hit": false,
      "t": 76666.4290000002,
      "d": 208.3326875000057,
      "v": 68
    },
    {
      "midi": 33,
      "hit": false,
      "t": 76785.47624999913,
      "d": 114.08694791667222,
      "v": 78
    },
    {
      "midi": 45,
      "hit": false,
      "t": 76904.52349999914,
      "d": 114.08694791667222,
      "v": 78
    },
    {
      "midi": 73,
      "hit": false,
      "t": 76904.52349999998,
      "d": 186.01132812499418,
      "v": 70
    },
    {
      "midi": 76,
      "hit": false,
      "t": 76904.52349999998,
      "d": 186.01132812499418,
      "v": 74
    },
    {
      "midi": 81,
      "hit": false,
      "t": 76904.52349999998,
      "d": 186.01132812499418,
      "v": 69
    },
    {
      "midi": 57,
      "hit": false,
      "t": 76904.5235,
      "d": 9.920604166662088,
      "v": 103
    },
    {
      "midi": 61,
      "hit": false,
      "t": 76904.5235,
      "d": 9.920604166662088,
      "v": 103
    },
    {
      "midi": 73,
      "hit": false,
      "t": 76904.5235000001,
      "d": 173.61057291667385,
      "v": 98
    },
    {
      "midi": 76,
      "hit": false,
      "t": 76904.5235000001,
      "d": 173.61057291667385,
      "v": 103
    },
    {
      "midi": 81,
      "hit": false,
      "t": 76904.5235000001,
      "d": 173.61057291667385,
      "v": 96
    },
    {
      "midi": 61,
      "hit": false,
      "t": 76904.5235000001,
      "d": 173.61057291667385,
      "v": 98
    },
    {
      "midi": 64,
      "hit": false,
      "t": 76904.5235000001,
      "d": 173.61057291667385,
      "v": 103
    },
    {
      "midi": 69,
      "hit": false,
      "t": 76904.5235000001,
      "d": 173.61057291667385,
      "v": 96
    },
    {
      "midi": 45,
      "hit": false,
      "t": 76904.52350000013,
      "d": 173.61057291667385,
      "v": 74
    },
    {
      "midi": 33,
      "hit": false,
      "t": 76904.5235000002,
      "d": 208.3326875000057,
      "v": 68
    },
    {
      "midi": 45,
      "hit": false,
      "t": 77023.57074999914,
      "d": 114.08694791667222,
      "v": 78
    },
    {
      "midi": 57,
      "hit": false,
      "t": 77023.57074999998,
      "d": 9.920604166662088,
      "v": 103
    },
    {
      "midi": 61,
      "hit": false,
      "t": 77023.57074999998,
      "d": 9.920604166662088,
      "v": 103
    },
    {
      "midi": 33,
      "hit": false,
      "t": 77142.61799999914,
      "d": 114.08694791667222,
      "v": 78
    },
    {
      "midi": 33,
      "hit": false,
      "t": 77142.61800000013,
      "d": 173.61057291667385,
      "v": 50
    },
    {
      "midi": 33,
      "hit": false,
      "t": 77142.6180000002,
      "d": 208.3326875000057,
      "v": 68
    },
    {
      "midi": 33,
      "hit": false,
      "t": 77261.66524999915,
      "d": 114.08694791667222,
      "v": 78
    },
    {
      "midi": 45,
      "hit": false,
      "t": 77380.71249999915,
      "d": 114.08694791667222,
      "v": 78
    },
    {
      "midi": 57,
      "hit": false,
      "t": 77380.71249999998,
      "d": 9.920604166662088,
      "v": 103
    },
    {
      "midi": 61,
      "hit": false,
      "t": 77380.71249999998,
      "d": 9.920604166662088,
      "v": 103
    },
    {
      "midi": 45,
      "hit": false,
      "t": 77380.71250000014,
      "d": 173.61057291667385,
      "v": 73
    },
    {
      "midi": 33,
      "hit": false,
      "t": 77380.71250000021,
      "d": 208.3326875000057,
      "v": 68
    },
    {
      "midi": 45,
      "hit": false,
      "t": 77499.75974999915,
      "d": 114.08694791667222,
      "v": 78
    },
    {
      "midi": 57,
      "hit": false,
      "t": 77499.75974999997,
      "d": 9.920604166662088,
      "v": 103
    },
    {
      "midi": 61,
      "hit": false,
      "t": 77499.75974999997,
      "d": 9.920604166662088,
      "v": 103
    },
    {
      "midi": 33,
      "hit": false,
      "t": 77618.80699999916,
      "d": 114.08694791667222,
      "v": 78
    },
    {
      "midi": 61,
      "hit": false,
      "t": 77618.80699999993,
      "d": 471.22869791666744,
      "v": 58
    },
    {
      "midi": 64,
      "hit": false,
      "t": 77618.80699999993,
      "d": 471.22869791666744,
      "v": 58
    },
    {
      "midi": 69,
      "hit": false,
      "t": 77618.80699999993,
      "d": 471.22869791666744,
      "v": 58
    },
    {
      "midi": 72,
      "hit": false,
      "t": 77618.80699999997,
      "d": 272.8166145833384,
      "v": 72
    },
    {
      "midi": 76,
      "hit": false,
      "t": 77618.80699999997,
      "d": 272.8166145833384,
      "v": 68
    },
    {
      "midi": 79,
      "hit": false,
      "t": 77618.80699999997,
      "d": 272.8166145833384,
      "v": 67
    },
    {
      "midi": 72,
      "hit": false,
      "t": 77618.8070000001,
      "d": 272.8166145833384,
      "v": 100
    },
    {
      "midi": 76,
      "hit": false,
      "t": 77618.8070000001,
      "d": 272.8166145833384,
      "v": 95
    },
    {
      "midi": 79,
      "hit": false,
      "t": 77618.8070000001,
      "d": 272.8166145833384,
      "v": 94
    },
    {
      "midi": 60,
      "hit": false,
      "t": 77618.8070000001,
      "d": 272.8166145833384,
      "v": 100
    },
    {
      "midi": 64,
      "hit": false,
      "t": 77618.8070000001,
      "d": 272.8166145833384,
      "v": 95
    },
    {
      "midi": 67,
      "hit": false,
      "t": 77618.8070000001,
      "d": 272.8166145833384,
      "v": 94
    },
    {
      "midi": 33,
      "hit": false,
      "t": 77618.80700000015,
      "d": 173.61057291667385,
      "v": 66
    },
    {
      "midi": 33,
      "hit": false,
      "t": 77618.80700000022,
      "d": 208.3326875000057,
      "v": 68
    },
    {
      "midi": 33,
      "hit": false,
      "t": 77737.85424999916,
      "d": 114.08694791667222,
      "v": 78
    },
    {
      "midi": 45,
      "hit": false,
      "t": 77856.90149999916,
      "d": 114.08694791667222,
      "v": 78
    },
    {
      "midi": 57,
      "hit": false,
      "t": 77856.90149999996,
      "d": 9.920604166662088,
      "v": 103
    },
    {
      "midi": 61,
      "hit": false,
      "t": 77856.90149999996,
      "d": 9.920604166662088,
      "v": 103
    },
    {
      "midi": 45,
      "hit": false,
      "t": 77856.90150000015,
      "d": 173.61057291667385,
      "v": 86
    },
    {
      "midi": 33,
      "hit": false,
      "t": 77856.90150000023,
      "d": 208.3326875000057,
      "v": 68
    },
    {
      "midi": 45,
      "hit": false,
      "t": 77975.94874999917,
      "d": 114.08694791667222,
      "v": 78
    },
    {
      "midi": 57,
      "hit": false,
      "t": 77975.94874999995,
      "d": 9.920604166662088,
      "v": 103
    },
    {
      "midi": 61,
      "hit": false,
      "t": 77975.94874999995,
      "d": 9.920604166662088,
      "v": 103
    },
    {
      "midi": 36,
      "hit": false,
      "t": 78094.99599999917,
      "d": 114.08694791667222,
      "v": 78
    },
    {
      "midi": 60,
      "hit": false,
      "t": 78094.99599999993,
      "d": 1899.795697916663,
      "v": 88
    },
    {
      "midi": 64,
      "hit": false,
      "t": 78094.99599999993,
      "d": 1899.795697916663,
      "v": 58
    },
    {
      "midi": 67,
      "hit": false,
      "t": 78094.99599999993,
      "d": 1899.795697916663,
      "v": 58
    },
    {
      "midi": 72,
      "hit": false,
      "t": 78094.99599999993,
      "d": 1899.795697916663,
      "v": 58
    },
    {
      "midi": 72,
      "hit": false,
      "t": 78094.996,
      "d": 1899.795697916663,
      "v": 88
    },
    {
      "midi": 76,
      "hit": false,
      "t": 78094.996,
      "d": 1899.795697916663,
      "v": 88
    },
    {
      "midi": 36,
      "hit": false,
      "t": 78094.99600000016,
      "d": 173.61057291667385,
      "v": 74
    },
    {
      "midi": 36,
      "hit": false,
      "t": 78094.99600000023,
      "d": 208.3326875000057,
      "v": 68
    },
    {
      "midi": 36,
      "hit": false,
      "t": 78214.04324999917,
      "d": 114.08694791667222,
      "v": 78
    },
    {
      "midi": 48,
      "hit": false,
      "t": 78333.09049999918,
      "d": 114.08694791667222,
      "v": 78
    },
    {
      "midi": 60,
      "hit": false,
      "t": 78333.09049999995,
      "d": 9.920604166662088,
      "v": 103
    },
    {
      "midi": 64,
      "hit": false,
      "t": 78333.09049999995,
      "d": 9.920604166662088,
      "v": 103
    },
    {
      "midi": 48,
      "hit": false,
      "t": 78333.09050000017,
      "d": 173.61057291667385,
      "v": 70
    },
    {
      "midi": 36,
      "hit": false,
      "t": 78333.09050000024,
      "d": 208.3326875000057,
      "v": 68
    },
    {
      "midi": 48,
      "hit": false,
      "t": 78452.13774999918,
      "d": 114.08694791667222,
      "v": 78
    },
    {
      "midi": 60,
      "hit": false,
      "t": 78452.13774999994,
      "d": 9.920604166662088,
      "v": 103
    },
    {
      "midi": 64,
      "hit": false,
      "t": 78452.13774999994,
      "d": 9.920604166662088,
      "v": 103
    },
    {
      "midi": 36,
      "hit": false,
      "t": 78571.18499999918,
      "d": 114.08694791667222,
      "v": 78
    },
    {
      "midi": 36,
      "hit": false,
      "t": 78571.18500000017,
      "d": 173.61057291667385,
      "v": 64
    },
    {
      "midi": 36,
      "hit": false,
      "t": 78571.18500000025,
      "d": 208.3326875000057,
      "v": 68
    },
    {
      "midi": 36,
      "hit": false,
      "t": 78690.23224999919,
      "d": 114.08694791667222,
      "v": 78
    },
    {
      "midi": 48,
      "hit": false,
      "t": 78809.27949999919,
      "d": 114.08694791667222,
      "v": 78
    },
    {
      "midi": 60,
      "hit": false,
      "t": 78809.27949999993,
      "d": 9.920604166662088,
      "v": 103
    },
    {
      "midi": 64,
      "hit": false,
      "t": 78809.27949999993,
      "d": 9.920604166662088,
      "v": 103
    },
    {
      "midi": 48,
      "hit": false,
      "t": 78809.27950000018,
      "d": 173.61057291667385,
      "v": 74
    },
    {
      "midi": 36,
      "hit": false,
      "t": 78809.27950000025,
      "d": 208.3326875000057,
      "v": 68
    },
    {
      "midi": 48,
      "hit": false,
      "t": 78928.32674999919,
      "d": 114.08694791667222,
      "v": 78
    },
    {
      "midi": 60,
      "hit": false,
      "t": 78928.32674999992,
      "d": 9.920604166662088,
      "v": 103
    },
    {
      "midi": 64,
      "hit": false,
      "t": 78928.32674999992,
      "d": 9.920604166662088,
      "v": 103
    },
    {
      "midi": 36,
      "hit": false,
      "t": 79047.3739999992,
      "d": 114.08694791667222,
      "v": 78
    },
    {
      "midi": 36,
      "hit": false,
      "t": 79047.37400000019,
      "d": 173.61057291667385,
      "v": 50
    },
    {
      "midi": 36,
      "hit": false,
      "t": 79047.37400000026,
      "d": 208.3326875000057,
      "v": 68
    },
    {
      "midi": 36,
      "hit": false,
      "t": 79166.4212499992,
      "d": 114.08694791667222,
      "v": 78
    },
    {
      "midi": 48,
      "hit": false,
      "t": 79285.4684999992,
      "d": 114.08694791667222,
      "v": 78
    },
    {
      "midi": 60,
      "hit": false,
      "t": 79285.46849999992,
      "d": 9.920604166662088,
      "v": 103
    },
    {
      "midi": 64,
      "hit": false,
      "t": 79285.46849999992,
      "d": 9.920604166662088,
      "v": 103
    },
    {
      "midi": 48,
      "hit": false,
      "t": 79285.46850000019,
      "d": 173.61057291667385,
      "v": 73
    },
    {
      "midi": 36,
      "hit": false,
      "t": 79285.46850000026,
      "d": 208.3326875000057,
      "v": 68
    },
    {
      "midi": 48,
      "hit": false,
      "t": 79404.5157499992,
      "d": 114.08694791667222,
      "v": 78
    },
    {
      "midi": 60,
      "hit": false,
      "t": 79404.5157499999,
      "d": 9.920604166662088,
      "v": 103
    },
    {
      "midi": 64,
      "hit": false,
      "t": 79404.5157499999,
      "d": 9.920604166662088,
      "v": 103
    },
    {
      "midi": 36,
      "hit": false,
      "t": 79523.56299999921,
      "d": 114.08694791667222,
      "v": 78
    },
    {
      "midi": 36,
      "hit": false,
      "t": 79523.5630000002,
      "d": 173.61057291667385,
      "v": 66
    },
    {
      "midi": 36,
      "hit": false,
      "t": 79523.56300000027,
      "d": 208.3326875000057,
      "v": 68
    },
    {
      "midi": 36,
      "hit": false,
      "t": 79642.61024999921,
      "d": 114.08694791667222,
      "v": 78
    },
    {
      "midi": 48,
      "hit": false,
      "t": 79761.65749999922,
      "d": 114.08694791667222,
      "v": 78
    },
    {
      "midi": 60,
      "hit": false,
      "t": 79761.6574999999,
      "d": 9.920604166662088,
      "v": 103
    },
    {
      "midi": 64,
      "hit": false,
      "t": 79761.6574999999,
      "d": 9.920604166662088,
      "v": 103
    },
    {
      "midi": 48,
      "hit": false,
      "t": 79761.6575000002,
      "d": 173.61057291667385,
      "v": 86
    },
    {
      "midi": 36,
      "hit": false,
      "t": 79761.65750000028,
      "d": 208.3326875000057,
      "v": 68
    },
    {
      "midi": 48,
      "hit": false,
      "t": 79880.70474999922,
      "d": 114.08694791667222,
      "v": 78
    },
    {
      "midi": 60,
      "hit": false,
      "t": 79880.70474999989,
      "d": 9.920604166662088,
      "v": 103
    },
    {
      "midi": 64,
      "hit": false,
      "t": 79880.70474999989,
      "d": 9.920604166662088,
      "v": 103
    },
    {
      "midi": 43,
      "hit": false,
      "t": 79999.75199999922,
      "d": 114.08694791667222,
      "v": 78
    },
    {
      "midi": 62,
      "hit": false,
      "t": 79999.75199999992,
      "d": 1423.6066979166644,
      "v": 58
    },
    {
      "midi": 59,
      "hit": false,
      "t": 79999.75199999992,
      "d": 1899.795697916663,
      "v": 88
    },
    {
      "midi": 67,
      "hit": false,
      "t": 79999.75199999992,
      "d": 1899.795697916663,
      "v": 58
    },
    {
      "midi": 71,
      "hit": false,
      "t": 79999.75199999992,
      "d": 1899.795697916663,
      "v": 58
    },
    {
      "midi": 71,
      "hit": false,
      "t": 79999.752,
      "d": 1899.795697916663,
      "v": 88
    },
    {
      "midi": 74,
      "hit": false,
      "t": 79999.752,
      "d": 1899.795697916663,
      "v": 88
    },
    {
      "midi": 31,
      "hit": false,
      "t": 79999.75200000021,
      "d": 173.61057291667385,
      "v": 76
    },
    {
      "midi": 31,
      "hit": false,
      "t": 79999.75200000028,
      "d": 208.3326875000057,
      "v": 68
    },
    {
      "midi": 43,
      "hit": false,
      "t": 80118.79924999923,
      "d": 114.08694791667222,
      "v": 78
    },
    {
      "midi": 55,
      "hit": false,
      "t": 80237.84649999923,
      "d": 114.08694791667222,
      "v": 78
    },
    {
      "midi": 67,
      "hit": false,
      "t": 80237.84649999988,
      "d": 9.920604166662088,
      "v": 103
    },
    {
      "midi": 71,
      "hit": false,
      "t": 80237.84649999988,
      "d": 9.920604166662088,
      "v": 103
    },
    {
      "midi": 43,
      "hit": false,
      "t": 80237.84650000022,
      "d": 173.61057291667385,
      "v": 82
    },
    {
      "midi": 31,
      "hit": false,
      "t": 80237.84650000029,
      "d": 208.3326875000057,
      "v": 68
    },
    {
      "midi": 55,
      "hit": false,
      "t": 80356.89374999923,
      "d": 114.08694791667222,
      "v": 78
    },
    {
      "midi": 67,
      "hit": false,
      "t": 80356.89374999987,
      "d": 9.920604166662088,
      "v": 103
    },
    {
      "midi": 71,
      "hit": false,
      "t": 80356.89374999987,
      "d": 9.920604166662088,
      "v": 103
    },
    {
      "midi": 43,
      "hit": false,
      "t": 80475.94099999923,
      "d": 114.08694791667222,
      "v": 78
    },
    {
      "midi": 31,
      "hit": false,
      "t": 80475.94100000022,
      "d": 173.61057291667385,
      "v": 62
    },
    {
      "midi": 31,
      "hit": false,
      "t": 80475.9410000003,
      "d": 208.3326875000057,
      "v": 68
    },
    {
      "midi": 43,
      "hit": false,
      "t": 80594.98824999924,
      "d": 114.08694791667222,
      "v": 78
    },
    {
      "midi": 55,
      "hit": false,
      "t": 80714.03549999924,
      "d": 114.08694791667222,
      "v": 78
    },
    {
      "midi": 67,
      "hit": false,
      "t": 80714.03549999987,
      "d": 9.920604166662088,
      "v": 103
    },
    {
      "midi": 71,
      "hit": false,
      "t": 80714.03549999987,
      "d": 9.920604166662088,
      "v": 103
    },
    {
      "midi": 43,
      "hit": false,
      "t": 80714.03550000023,
      "d": 173.61057291667385,
      "v": 78
    },
    {
      "midi": 31,
      "hit": false,
      "t": 80714.0355000003,
      "d": 208.3326875000057,
      "v": 68
    },
    {
      "midi": 55,
      "hit": false,
      "t": 80833.08274999924,
      "d": 114.08694791667222,
      "v": 78
    },
    {
      "midi": 67,
      "hit": false,
      "t": 80833.08274999986,
      "d": 9.920604166662088,
      "v": 103
    },
    {
      "midi": 71,
      "hit": false,
      "t": 80833.08274999986,
      "d": 9.920604166662088,
      "v": 103
    },
    {
      "midi": 43,
      "hit": false,
      "t": 80952.12999999925,
      "d": 114.08694791667222,
      "v": 78
    },
    {
      "midi": 31,
      "hit": false,
      "t": 80952.13000000024,
      "d": 173.61057291667385,
      "v": 67
    },
    {
      "midi": 31,
      "hit": false,
      "t": 80952.13000000031,
      "d": 208.3326875000057,
      "v": 68
    },
    {
      "midi": 43,
      "hit": false,
      "t": 81071.17724999925,
      "d": 114.08694791667222,
      "v": 78
    },
    {
      "midi": 55,
      "hit": false,
      "t": 81190.22449999925,
      "d": 114.08694791667222,
      "v": 78
    },
    {
      "midi": 67,
      "hit": false,
      "t": 81190.22449999985,
      "d": 9.920604166662088,
      "v": 103
    },
    {
      "midi": 71,
      "hit": false,
      "t": 81190.22449999985,
      "d": 9.920604166662088,
      "v": 103
    },
    {
      "midi": 43,
      "hit": false,
      "t": 81190.22450000024,
      "d": 173.61057291667385,
      "v": 70
    },
    {
      "midi": 31,
      "hit": false,
      "t": 81190.22450000032,
      "d": 208.3326875000057,
      "v": 68
    },
    {
      "midi": 55,
      "hit": false,
      "t": 81309.27174999926,
      "d": 114.08694791667222,
      "v": 78
    },
    {
      "midi": 67,
      "hit": false,
      "t": 81309.27174999984,
      "d": 9.920604166662088,
      "v": 103
    },
    {
      "midi": 71,
      "hit": false,
      "t": 81309.27174999984,
      "d": 9.920604166662088,
      "v": 103
    },
    {
      "midi": 43,
      "hit": false,
      "t": 81428.31899999926,
      "d": 114.08694791667222,
      "v": 78
    },
    {
      "midi": 31,
      "hit": false,
      "t": 81428.31900000025,
      "d": 173.61057291667385,
      "v": 56
    },
    {
      "midi": 31,
      "hit": false,
      "t": 81428.31900000032,
      "d": 208.3326875000057,
      "v": 68
    },
    {
      "midi": 43,
      "hit": false,
      "t": 81547.36624999926,
      "d": 114.08694791667222,
      "v": 78
    },
    {
      "midi": 55,
      "hit": false,
      "t": 81666.41349999927,
      "d": 114.08694791667222,
      "v": 78
    },
    {
      "midi": 67,
      "hit": false,
      "t": 81666.41349999984,
      "d": 9.920604166662088,
      "v": 103
    },
    {
      "midi": 71,
      "hit": false,
      "t": 81666.41349999984,
      "d": 9.920604166662088,
      "v": 103
    },
    {
      "midi": 43,
      "hit": false,
      "t": 81666.41350000026,
      "d": 173.61057291667385,
      "v": 70
    },
    {
      "midi": 31,
      "hit": false,
      "t": 81666.41350000033,
      "d": 208.3326875000057,
      "v": 68
    },
    {
      "midi": 55,
      "hit": false,
      "t": 81785.46074999927,
      "d": 114.08694791667222,
      "v": 78
    },
    {
      "midi": 67,
      "hit": false,
      "t": 81785.46074999982,
      "d": 9.920604166662088,
      "v": 103
    },
    {
      "midi": 71,
      "hit": false,
      "t": 81785.46074999982,
      "d": 9.920604166662088,
      "v": 103
    },
    {
      "midi": 36,
      "hit": false,
      "t": 81904.50799999927,
      "d": 114.08694791667222,
      "v": 78
    },
    {
      "midi": 60,
      "hit": false,
      "t": 81904.50799999991,
      "d": 1423.6066979166644,
      "v": 88
    },
    {
      "midi": 64,
      "hit": false,
      "t": 81904.50799999991,
      "d": 1423.6066979166644,
      "v": 58
    },
    {
      "midi": 67,
      "hit": false,
      "t": 81904.50799999991,
      "d": 1423.6066979166644,
      "v": 58
    },
    {
      "midi": 72,
      "hit": false,
      "t": 81904.50799999991,
      "d": 1423.6066979166644,
      "v": 58
    },
    {
      "midi": 72,
      "hit": false,
      "t": 81904.50799999999,
      "d": 1423.6066979166644,
      "v": 88
    },
    {
      "midi": 76,
      "hit": false,
      "t": 81904.50799999999,
      "d": 1423.6066979166644,
      "v": 88
    },
    {
      "midi": 36,
      "hit": false,
      "t": 81904.50800000026,
      "d": 173.61057291667385,
      "v": 74
    },
    {
      "midi": 36,
      "hit": false,
      "t": 81904.50800000034,
      "d": 208.3326875000057,
      "v": 68
    },
    {
      "midi": 36,
      "hit": false,
      "t": 82023.55524999928,
      "d": 114.08694791667222,
      "v": 78
    },
    {
      "midi": 48,
      "hit": false,
      "t": 82142.60249999928,
      "d": 114.08694791667222,
      "v": 78
    },
    {
      "midi": 60,
      "hit": false,
      "t": 82142.60249999982,
      "d": 9.920604166662088,
      "v": 103
    },
    {
      "midi": 64,
      "hit": false,
      "t": 82142.60249999982,
      "d": 9.920604166662088,
      "v": 103
    },
    {
      "midi": 48,
      "hit": false,
      "t": 82142.60250000027,
      "d": 173.61057291667385,
      "v": 70
    },
    {
      "midi": 36,
      "hit": false,
      "t": 82142.60250000034,
      "d": 208.3326875000057,
      "v": 68
    },
    {
      "midi": 48,
      "hit": false,
      "t": 82261.64974999928,
      "d": 114.08694791667222,
      "v": 78
    },
    {
      "midi": 60,
      "hit": false,
      "t": 82261.64974999981,
      "d": 9.920604166662088,
      "v": 103
    },
    {
      "midi": 64,
      "hit": false,
      "t": 82261.64974999981,
      "d": 9.920604166662088,
      "v": 103
    },
    {
      "midi": 36,
      "hit": false,
      "t": 82380.69699999929,
      "d": 114.08694791667222,
      "v": 78
    },
    {
      "midi": 36,
      "hit": false,
      "t": 82380.69700000028,
      "d": 173.61057291667385,
      "v": 64
    },
    {
      "midi": 36,
      "hit": false,
      "t": 82380.69700000035,
      "d": 208.3326875000057,
      "v": 68
    },
    {
      "midi": 36,
      "hit": false,
      "t": 82499.74424999929,
      "d": 114.08694791667222,
      "v": 78
    },
    {
      "midi": 48,
      "hit": false,
      "t": 82618.7914999993,
      "d": 114.08694791667222,
      "v": 78
    },
    {
      "midi": 60,
      "hit": false,
      "t": 82618.7914999998,
      "d": 9.920604166662088,
      "v": 103
    },
    {
      "midi": 64,
      "hit": false,
      "t": 82618.7914999998,
      "d": 9.920604166662088,
      "v": 103
    },
    {
      "midi": 48,
      "hit": false,
      "t": 82618.79150000028,
      "d": 173.61057291667385,
      "v": 74
    },
    {
      "midi": 36,
      "hit": false,
      "t": 82618.79150000036,
      "d": 208.3326875000057,
      "v": 68
    },
    {
      "midi": 48,
      "hit": false,
      "t": 82737.8387499993,
      "d": 114.08694791667222,
      "v": 78
    },
    {
      "midi": 60,
      "hit": false,
      "t": 82737.83874999979,
      "d": 9.920604166662088,
      "v": 103
    },
    {
      "midi": 64,
      "hit": false,
      "t": 82737.83874999979,
      "d": 9.920604166662088,
      "v": 103
    },
    {
      "midi": 36,
      "hit": false,
      "t": 82856.8859999993,
      "d": 114.08694791667222,
      "v": 78
    },
    {
      "midi": 36,
      "hit": false,
      "t": 82856.88600000029,
      "d": 173.61057291667385,
      "v": 50
    },
    {
      "midi": 36,
      "hit": false,
      "t": 82856.88600000036,
      "d": 208.3326875000057,
      "v": 68
    },
    {
      "midi": 36,
      "hit": false,
      "t": 82975.9332499993,
      "d": 114.08694791667222,
      "v": 78
    },
    {
      "midi": 48,
      "hit": false,
      "t": 83094.9804999993,
      "d": 114.08694791667222,
      "v": 78
    },
    {
      "midi": 60,
      "hit": false,
      "t": 83094.98049999979,
      "d": 9.920604166662088,
      "v": 103
    },
    {
      "midi": 64,
      "hit": false,
      "t": 83094.98049999979,
      "d": 9.920604166662088,
      "v": 103
    },
    {
      "midi": 48,
      "hit": false,
      "t": 83094.9805000003,
      "d": 173.61057291667385,
      "v": 73
    },
    {
      "midi": 36,
      "hit": false,
      "t": 83094.98050000037,
      "d": 208.3326875000057,
      "v": 68
    },
    {
      "midi": 48,
      "hit": false,
      "t": 83214.02774999931,
      "d": 114.08694791667222,
      "v": 78
    },
    {
      "midi": 60,
      "hit": false,
      "t": 83214.02774999978,
      "d": 9.920604166662088,
      "v": 103
    },
    {
      "midi": 64,
      "hit": false,
      "t": 83214.02774999978,
      "d": 9.920604166662088,
      "v": 103
    },
    {
      "midi": 35,
      "hit": false,
      "t": 83333.07499999931,
      "d": 114.08694791667222,
      "v": 78
    },
    {
      "midi": 59,
      "hit": false,
      "t": 83333.07499999991,
      "d": 471.22869791666744,
      "v": 88
    },
    {
      "midi": 62,
      "hit": false,
      "t": 83333.07499999991,
      "d": 471.22869791666744,
      "v": 58
    },
    {
      "midi": 67,
      "hit": false,
      "t": 83333.07499999991,
      "d": 471.22869791666744,
      "v": 58
    },
    {
      "midi": 71,
      "hit": false,
      "t": 83333.07499999991,
      "d": 471.22869791666744,
      "v": 58
    },
    {
      "midi": 71,
      "hit": false,
      "t": 83333.07499999998,
      "d": 471.22869791666744,
      "v": 88
    },
    {
      "midi": 74,
      "hit": false,
      "t": 83333.07499999998,
      "d": 471.22869791666744,
      "v": 88
    },
    {
      "midi": 35,
      "hit": false,
      "t": 83333.0750000003,
      "d": 173.61057291667385,
      "v": 66
    },
    {
      "midi": 35,
      "hit": false,
      "t": 83333.07500000038,
      "d": 208.3326875000057,
      "v": 68
    },
    {
      "midi": 35,
      "hit": false,
      "t": 83452.12224999932,
      "d": 114.08694791667222,
      "v": 78
    },
    {
      "midi": 47,
      "hit": false,
      "t": 83571.16949999932,
      "d": 114.08694791667222,
      "v": 78
    },
    {
      "midi": 59,
      "hit": false,
      "t": 83571.16949999977,
      "d": 9.920604166662088,
      "v": 103
    },
    {
      "midi": 62,
      "hit": false,
      "t": 83571.16949999977,
      "d": 9.920604166662088,
      "v": 103
    },
    {
      "midi": 47,
      "hit": false,
      "t": 83571.16950000031,
      "d": 173.61057291667385,
      "v": 86
    },
    {
      "midi": 35,
      "hit": false,
      "t": 83571.16950000038,
      "d": 208.3326875000057,
      "v": 68
    },
    {
      "midi": 47,
      "hit": false,
      "t": 83690.21674999932,
      "d": 114.08694791667222,
      "v": 78
    },
    {
      "midi": 59,
      "hit": false,
      "t": 83690.21674999976,
      "d": 9.920604166662088,
      "v": 103
    },
    {
      "midi": 62,
      "hit": false,
      "t": 83690.21674999976,
      "d": 9.920604166662088,
      "v": 103
    },
    {
      "midi": 33,
      "hit": false,
      "t": 83809.26399999933,
      "d": 114.08694791667222,
      "v": 78
    },
    {
      "midi": 57,
      "hit": false,
      "t": 83809.26399999991,
      "d": 947.4176979166659,
      "v": 88
    },
    {
      "midi": 64,
      "hit": false,
      "t": 83809.26399999991,
      "d": 947.4176979166659,
      "v": 58
    },
    {
      "midi": 69,
      "hit": false,
      "t": 83809.26399999991,
      "d": 947.4176979166659,
      "v": 58
    },
    {
      "midi": 72,
      "hit": false,
      "t": 83809.26399999991,
      "d": 947.4176979166659,
      "v": 58
    },
    {
      "midi": 69,
      "hit": false,
      "t": 83809.26399999998,
      "d": 947.4176979166659,
      "v": 88
    },
    {
      "midi": 72,
      "hit": false,
      "t": 83809.26399999998,
      "d": 947.4176979166659,
      "v": 88
    },
    {
      "midi": 33,
      "hit": false,
      "t": 83809.26400000032,
      "d": 173.61057291667385,
      "v": 74
    },
    {
      "midi": 33,
      "hit": false,
      "t": 83809.26400000039,
      "d": 208.3326875000057,
      "v": 68
    },
    {
      "midi": 33,
      "hit": false,
      "t": 83928.31124999933,
      "d": 114.08694791667222,
      "v": 78
    },
    {
      "midi": 45,
      "hit": false,
      "t": 84047.35849999933,
      "d": 114.08694791667222,
      "v": 78
    },
    {
      "midi": 57,
      "hit": false,
      "t": 84047.35849999975,
      "d": 9.920604166662088,
      "v": 75
    },
    {
      "midi": 60,
      "hit": false,
      "t": 84047.35849999975,
      "d": 9.920604166662088,
      "v": 67
    },
    {
      "midi": 45,
      "hit": false,
      "t": 84047.35850000032,
      "d": 173.61057291667385,
      "v": 70
    },
    {
      "midi": 33,
      "hit": false,
      "t": 84047.3585000004,
      "d": 208.3326875000057,
      "v": 68
    },
    {
      "midi": 45,
      "hit": false,
      "t": 84166.40574999934,
      "d": 114.08694791667222,
      "v": 78
    },
    {
      "midi": 57,
      "hit": false,
      "t": 84166.40574999974,
      "d": 9.920604166662088,
      "v": 86
    },
    {
      "midi": 60,
      "hit": false,
      "t": 84166.40574999974,
      "d": 9.920604166662088,
      "v": 77
    },
    {
      "midi": 33,
      "hit": false,
      "t": 84285.45299999934,
      "d": 114.08694791667222,
      "v": 78
    },
    {
      "midi": 33,
      "hit": false,
      "t": 84285.45300000033,
      "d": 173.61057291667385,
      "v": 64
    },
    {
      "midi": 33,
      "hit": false,
      "t": 84285.4530000004,
      "d": 208.3326875000057,
      "v": 68
    },
    {
      "midi": 33,
      "hit": false,
      "t": 84404.50024999934,
      "d": 114.08694791667222,
      "v": 78
    },
    {
      "midi": 45,
      "hit": false,
      "t": 84523.54749999935,
      "d": 114.08694791667222,
      "v": 78
    },
    {
      "midi": 57,
      "hit": false,
      "t": 84523.54749999974,
      "d": 9.920604166662088,
      "v": 86
    },
    {
      "midi": 60,
      "hit": false,
      "t": 84523.54749999974,
      "d": 9.920604166662088,
      "v": 71
    },
    {
      "midi": 45,
      "hit": false,
      "t": 84523.54750000034,
      "d": 173.61057291667385,
      "v": 74
    },
    {
      "midi": 33,
      "hit": false,
      "t": 84523.54750000041,
      "d": 208.3326875000057,
      "v": 68
    },
    {
      "midi": 45,
      "hit": false,
      "t": 84642.59474999935,
      "d": 114.08694791667222,
      "v": 78
    },
    {
      "midi": 57,
      "hit": false,
      "t": 84642.59474999973,
      "d": 9.920604166662088,
      "v": 88
    },
    {
      "midi": 60,
      "hit": false,
      "t": 84642.59474999973,
      "d": 9.920604166662088,
      "v": 75
    },
    {
      "midi": 43,
      "hit": false,
      "t": 84761.64199999935,
      "d": 114.08694791667222,
      "v": 78
    },
    {
      "midi": 55,
      "hit": false,
      "t": 84761.6419999999,
      "d": 471.22869791666744,
      "v": 88
    },
    {
      "midi": 64,
      "hit": false,
      "t": 84761.6419999999,
      "d": 947.4176979166659,
      "v": 58
    },
    {
      "midi": 67,
      "hit": false,
      "t": 84761.6419999999,
      "d": 947.4176979166659,
      "v": 58
    },
    {
      "midi": 71,
      "hit": false,
      "t": 84761.6419999999,
      "d": 947.4176979166659,
      "v": 58
    },
    {
      "midi": 67,
      "hit": false,
      "t": 84761.64199999998,
      "d": 947.4176979166659,
      "v": 88
    },
    {
      "midi": 72,
      "hit": false,
      "t": 84761.64199999998,
      "d": 947.4176979166659,
      "v": 88
    },
    {
      "midi": 43,
      "hit": false,
      "t": 84761.64200000034,
      "d": 173.61057291667385,
      "v": 50
    },
    {
      "midi": 43,
      "hit": false,
      "t": 84761.64200000041,
      "d": 208.3326875000057,
      "v": 68
    },
    {
      "midi": 43,
      "hit": false,
      "t": 84880.68924999936,
      "d": 114.08694791667222,
      "v": 78
    },
    {
      "midi": 55,
      "hit": false,
      "t": 84999.73649999936,
      "d": 114.08694791667222,
      "v": 78
    },
    {
      "midi": 67,
      "hit": false,
      "t": 84999.73649999972,
      "d": 9.920604166662088,
      "v": 86
    },
    {
      "midi": 71,
      "hit": false,
      "t": 84999.73649999972,
      "d": 9.920604166662088,
      "v": 74
    },
    {
      "midi": 55,
      "hit": false,
      "t": 84999.73650000035,
      "d": 173.61057291667385,
      "v": 73
    },
    {
      "midi": 43,
      "hit": false,
      "t": 84999.73650000042,
      "d": 208.3326875000057,
      "v": 68
    },
    {
      "midi": 55,
      "hit": false,
      "t": 85118.78374999936,
      "d": 114.08694791667222,
      "v": 78
    },
    {
      "midi": 67,
      "hit": false,
      "t": 85118.78374999971,
      "d": 9.920604166662088,
      "v": 85
    },
    {
      "midi": 71,
      "hit": false,
      "t": 85118.78374999971,
      "d": 9.920604166662088,
      "v": 78
    },
    {
      "midi": 40,
      "hit": false,
      "t": 85237.83099999937,
      "d": 114.08694791667222,
      "v": 78
    },
    {
      "midi": 52,
      "hit": false,
      "t": 85237.8309999999,
      "d": 471.22869791666744,
      "v": 88
    },
    {
      "midi": 40,
      "hit": false,
      "t": 85237.83100000035,
      "d": 173.61057291667385,
      "v": 66
    },
    {
      "midi": 40,
      "hit": false,
      "t": 85237.83100000043,
      "d": 208.3326875000057,
      "v": 68
    },
    {
      "midi": 40,
      "hit": false,
      "t": 85356.87824999937,
      "d": 114.08694791667222,
      "v": 78
    },
    {
      "midi": 52,
      "hit": false,
      "t": 85475.92549999937,
      "d": 114.08694791667222,
      "v": 78
    },
    {
      "midi": 67,
      "hit": false,
      "t": 85475.9254999997,
      "d": 9.920604166662088,
      "v": 92
    },
    {
      "midi": 71,
      "hit": false,
      "t": 85475.9254999997,
      "d": 9.920604166662088,
      "v": 77
    },
    {
      "midi": 52,
      "hit": false,
      "t": 85475.92550000036,
      "d": 173.61057291667385,
      "v": 86
    },
    {
      "midi": 40,
      "hit": false,
      "t": 85475.92550000043,
      "d": 208.3326875000057,
      "v": 68
    },
    {
      "midi": 52,
      "hit": false,
      "t": 85594.97274999938,
      "d": 114.08694791667222,
      "v": 78
    },
    {
      "midi": 67,
      "hit": false,
      "t": 85594.9727499997,
      "d": 9.920604166662088,
      "v": 90
    },
    {
      "midi": 71,
      "hit": false,
      "t": 85594.9727499997,
      "d": 9.920604166662088,
      "v": 82
    },
    {
      "midi": 38,
      "hit": false,
      "t": 85714.01999999938,
      "d": 114.08694791667222,
      "v": 78
    },
    {
      "midi": 50,
      "hit": false,
      "t": 85714.0199999999,
      "d": 1899.795697916663,
      "v": 88
    },
    {
      "midi": 66,
      "hit": false,
      "t": 85714.0199999999,
      "d": 1899.795697916663,
      "v": 58
    },
    {
      "midi": 69,
      "hit": false,
      "t": 85714.0199999999,
      "d": 1899.795697916663,
      "v": 58
    },
    {
      "midi": 74,
      "hit": false,
      "t": 85714.0199999999,
      "d": 1899.795697916663,
      "v": 58
    },
    {
      "midi": 66,
      "hit": false,
      "t": 85714.01999999997,
      "d": 1899.795697916663,
      "v": 88
    },
    {
      "midi": 74,
      "hit": false,
      "t": 85714.01999999997,
      "d": 1899.795697916663,
      "v": 88
    },
    {
      "midi": 38,
      "hit": false,
      "t": 85714.02000000037,
      "d": 173.61057291667385,
      "v": 70
    },
    {
      "midi": 38,
      "hit": false,
      "t": 85714.02000000044,
      "d": 208.3326875000057,
      "v": 68
    },
    {
      "midi": 38,
      "hit": false,
      "t": 85833.06724999938,
      "d": 114.08694791667222,
      "v": 78
    },
    {
      "midi": 50,
      "hit": false,
      "t": 85952.11449999938,
      "d": 114.08694791667222,
      "v": 78
    },
    {
      "midi": 62,
      "hit": false,
      "t": 85952.11449999969,
      "d": 9.920604166662088,
      "v": 103
    },
    {
      "midi": 66,
      "hit": false,
      "t": 85952.11449999969,
      "d": 9.920604166662088,
      "v": 103
    },
    {
      "midi": 50,
      "hit": false,
      "t": 85952.11450000037,
      "d": 173.61057291667385,
      "v": 62
    },
    {
      "midi": 38,
      "hit": false,
      "t": 85952.11450000045,
      "d": 208.3326875000057,
      "v": 68
    },
    {
      "midi": 50,
      "hit": false,
      "t": 86071.16174999939,
      "d": 114.08694791667222,
      "v": 78
    },
    {
      "midi": 62,
      "hit": false,
      "t": 86071.16174999968,
      "d": 9.920604166662088,
      "v": 103
    },
    {
      "midi": 66,
      "hit": false,
      "t": 86071.16174999968,
      "d": 9.920604166662088,
      "v": 103
    },
    {
      "midi": 38,
      "hit": false,
      "t": 86190.20899999939,
      "d": 114.08694791667222,
      "v": 78
    },
    {
      "midi": 38,
      "hit": false,
      "t": 86190.20900000038,
      "d": 173.61057291667385,
      "v": 66
    },
    {
      "midi": 38,
      "hit": false,
      "t": 86190.20900000045,
      "d": 208.3326875000057,
      "v": 68
    },
    {
      "midi": 38,
      "hit": false,
      "t": 86309.2562499994,
      "d": 114.08694791667222,
      "v": 78
    },
    {
      "midi": 50,
      "hit": false,
      "t": 86428.3034999994,
      "d": 114.08694791667222,
      "v": 78
    },
    {
      "midi": 62,
      "hit": false,
      "t": 86428.30349999967,
      "d": 9.920604166662088,
      "v": 103
    },
    {
      "midi": 66,
      "hit": false,
      "t": 86428.30349999967,
      "d": 9.920604166662088,
      "v": 103
    },
    {
      "midi": 50,
      "hit": false,
      "t": 86428.30350000039,
      "d": 173.61057291667385,
      "v": 67
    },
    {
      "midi": 38,
      "hit": false,
      "t": 86428.30350000046,
      "d": 208.3326875000057,
      "v": 68
    },
    {
      "midi": 50,
      "hit": false,
      "t": 86547.3507499994,
      "d": 114.08694791667222,
      "v": 78
    },
    {
      "midi": 62,
      "hit": false,
      "t": 86547.35074999966,
      "d": 9.920604166662088,
      "v": 103
    },
    {
      "midi": 66,
      "hit": false,
      "t": 86547.35074999966,
      "d": 9.920604166662088,
      "v": 103
    },
    {
      "midi": 38,
      "hit": false,
      "t": 86666.3979999994,
      "d": 114.08694791667222,
      "v": 78
    },
    {
      "midi": 38,
      "hit": false,
      "t": 86666.3980000004,
      "d": 173.61057291667385,
      "v": 64
    },
    {
      "midi": 38,
      "hit": false,
      "t": 86666.39800000047,
      "d": 208.3326875000057,
      "v": 68
    },
    {
      "midi": 38,
      "hit": false,
      "t": 86785.44524999941,
      "d": 114.08694791667222,
      "v": 78
    },
    {
      "midi": 50,
      "hit": false,
      "t": 86904.49249999941,
      "d": 114.08694791667222,
      "v": 78
    },
    {
      "midi": 62,
      "hit": false,
      "t": 86904.49249999966,
      "d": 9.920604166662088,
      "v": 103
    },
    {
      "midi": 66,
      "hit": false,
      "t": 86904.49249999966,
      "d": 9.920604166662088,
      "v": 103
    },
    {
      "midi": 50,
      "hit": false,
      "t": 86904.4925000004,
      "d": 173.61057291667385,
      "v": 66
    },
    {
      "midi": 38,
      "hit": false,
      "t": 86904.49250000047,
      "d": 208.3326875000057,
      "v": 68
    },
    {
      "midi": 50,
      "hit": false,
      "t": 87023.53974999941,
      "d": 114.08694791667222,
      "v": 78
    },
    {
      "midi": 62,
      "hit": false,
      "t": 87023.53974999965,
      "d": 9.920604166662088,
      "v": 103
    },
    {
      "midi": 66,
      "hit": false,
      "t": 87023.53974999965,
      "d": 9.920604166662088,
      "v": 103
    },
    {
      "midi": 38,
      "hit": false,
      "t": 87142.58699999942,
      "d": 114.08694791667222,
      "v": 78
    },
    {
      "midi": 38,
      "hit": false,
      "t": 87142.5870000004,
      "d": 173.61057291667385,
      "v": 62
    },
    {
      "midi": 38,
      "hit": false,
      "t": 87142.58700000048,
      "d": 208.3326875000057,
      "v": 68
    },
    {
      "midi": 38,
      "hit": false,
      "t": 87261.63424999942,
      "d": 114.08694791667222,
      "v": 78
    },
    {
      "midi": 50,
      "hit": false,
      "t": 87380.68149999942,
      "d": 114.08694791667222,
      "v": 78
    },
    {
      "midi": 62,
      "hit": false,
      "t": 87380.68149999964,
      "d": 9.920604166662088,
      "v": 103
    },
    {
      "midi": 66,
      "hit": false,
      "t": 87380.68149999964,
      "d": 9.920604166662088,
      "v": 103
    },
    {
      "midi": 50,
      "hit": false,
      "t": 87380.68150000041,
      "d": 173.61057291667385,
      "v": 73
    },
    {
      "midi": 38,
      "hit": false,
      "t": 87380.68150000049,
      "d": 208.3326875000057,
      "v": 68
    },
    {
      "midi": 50,
      "hit": false,
      "t": 87499.72874999943,
      "d": 114.08694791667222,
      "v": 78
    },
    {
      "midi": 62,
      "hit": false,
      "t": 87499.72874999963,
      "d": 9.920604166662088,
      "v": 103
    },
    {
      "midi": 66,
      "hit": false,
      "t": 87499.72874999963,
      "d": 9.920604166662088,
      "v": 103
    },
    {
      "midi": 43,
      "hit": false,
      "t": 87618.77599999943,
      "d": 114.08694791667222,
      "v": 78
    },
    {
      "midi": 62,
      "hit": false,
      "t": 87618.7759999999,
      "d": 1899.7956979167066,
      "v": 58
    },
    {
      "midi": 67,
      "hit": false,
      "t": 87618.7759999999,
      "d": 1899.7956979167066,
      "v": 58
    },
    {
      "midi": 71,
      "hit": false,
      "t": 87618.7759999999,
      "d": 1899.7956979167066,
      "v": 58
    },
    {
      "midi": 31,
      "hit": false,
      "t": 87618.77600000042,
      "d": 173.61057291667385,
      "v": 76
    },
    {
      "midi": 31,
      "hit": false,
      "t": 87618.7760000005,
      "d": 208.3326875000057,
      "v": 68
    },
    {
      "midi": 43,
      "hit": false,
      "t": 87737.82324999943,
      "d": 114.08694791667222,
      "v": 78
    },
    {
      "midi": 55,
      "hit": false,
      "t": 87856.87049999944,
      "d": 114.08694791667222,
      "v": 78
    },
    {
      "midi": 67,
      "hit": false,
      "t": 87856.87049999963,
      "d": 9.920604166662088,
      "v": 103
    },
    {
      "midi": 71,
      "hit": false,
      "t": 87856.87049999963,
      "d": 9.920604166662088,
      "v": 103
    },
    {
      "midi": 43,
      "hit": false,
      "t": 87856.87050000043,
      "d": 173.61057291667385,
      "v": 82
    },
    {
      "midi": 31,
      "hit": false,
      "t": 87856.8705000005,
      "d": 208.3326875000057,
      "v": 68
    },
    {
      "midi": 55,
      "hit": false,
      "t": 87975.91774999944,
      "d": 114.08694791667222,
      "v": 78
    },
    {
      "midi": 67,
      "hit": false,
      "t": 87975.91774999961,
      "d": 9.920604166662088,
      "v": 103
    },
    {
      "midi": 71,
      "hit": false,
      "t": 87975.91774999961,
      "d": 9.920604166662088,
      "v": 103
    },
    {
      "midi": 43,
      "hit": false,
      "t": 88094.96499999944,
      "d": 114.08694791667222,
      "v": 78
    },
    {
      "midi": 55,
      "hit": false,
      "t": 88094.9649999999,
      "d": 208.3326875000057,
      "v": 109
    },
    {
      "midi": 31,
      "hit": false,
      "t": 88094.96500000043,
      "d": 173.61057291667385,
      "v": 62
    },
    {
      "midi": 31,
      "hit": false,
      "t": 88094.9650000005,
      "d": 208.3326875000057,
      "v": 68
    },
    {
      "midi": 43,
      "hit": false,
      "t": 88214.01224999945,
      "d": 114.08694791667222,
      "v": 78
    },
    {
      "midi": 55,
      "hit": false,
      "t": 88333.05949999945,
      "d": 114.08694791667222,
      "v": 78
    },
    {
      "midi": 67,
      "hit": false,
      "t": 88333.05949999961,
      "d": 9.920604166662088,
      "v": 103
    },
    {
      "midi": 71,
      "hit": false,
      "t": 88333.05949999961,
      "d": 9.920604166662088,
      "v": 103
    },
    {
      "midi": 55,
      "hit": false,
      "t": 88333.0594999999,
      "d": 208.3326875000057,
      "v": 113
    },
    {
      "midi": 43,
      "hit": false,
      "t": 88333.05950000044,
      "d": 173.61057291667385,
      "v": 78
    },
    {
      "midi": 31,
      "hit": false,
      "t": 88333.05950000051,
      "d": 208.3326875000057,
      "v": 68
    },
    {
      "midi": 55,
      "hit": false,
      "t": 88452.10674999945,
      "d": 114.08694791667222,
      "v": 78
    },
    {
      "midi": 67,
      "hit": false,
      "t": 88452.1067499996,
      "d": 9.920604166662088,
      "v": 103
    },
    {
      "midi": 71,
      "hit": false,
      "t": 88452.1067499996,
      "d": 9.920604166662088,
      "v": 103
    },
    {
      "midi": 43,
      "hit": false,
      "t": 88571.15399999946,
      "d": 114.08694791667222,
      "v": 78
    },
    {
      "midi": 57,
      "hit": false,
      "t": 88571.15399999991,
      "d": 208.3326875000057,
      "v": 106
    },
    {
      "midi": 31,
      "hit": false,
      "t": 88571.15400000045,
      "d": 173.61057291667385,
      "v": 67
    },
    {
      "midi": 31,
      "hit": false,
      "t": 88571.15400000052,
      "d": 208.3326875000057,
      "v": 68
    },
    {
      "midi": 43,
      "hit": false,
      "t": 88690.20124999946,
      "d": 114.08694791667222,
      "v": 78
    },
    {
      "midi": 55,
      "hit": false,
      "t": 88809.24849999946,
      "d": 114.08694791667222,
      "v": 78
    },
    {
      "midi": 67,
      "hit": false,
      "t": 88809.2484999996,
      "d": 9.920604166662088,
      "v": 103
    },
    {
      "midi": 71,
      "hit": false,
      "t": 88809.2484999996,
      "d": 9.920604166662088,
      "v": 103
    },
    {
      "midi": 57,
      "hit": false,
      "t": 88809.24849999991,
      "d": 208.3326875000057,
      "v": 115
    },
    {
      "midi": 43,
      "hit": false,
      "t": 88809.24850000045,
      "d": 173.61057291667385,
      "v": 70
    },
    {
      "midi": 31,
      "hit": false,
      "t": 88809.24850000053,
      "d": 208.3326875000057,
      "v": 68
    },
    {
      "midi": 55,
      "hit": false,
      "t": 88928.29574999947,
      "d": 114.08694791667222,
      "v": 78
    },
    {
      "midi": 67,
      "hit": false,
      "t": 88928.29574999958,
      "d": 9.920604166662088,
      "v": 103
    },
    {
      "midi": 71,
      "hit": false,
      "t": 88928.29574999958,
      "d": 9.920604166662088,
      "v": 103
    },
    {
      "midi": 43,
      "hit": false,
      "t": 89047.34299999947,
      "d": 114.08694791667222,
      "v": 78
    },
    {
      "midi": 59,
      "hit": false,
      "t": 89047.34299999992,
      "d": 208.3326875000057,
      "v": 113
    },
    {
      "midi": 31,
      "hit": false,
      "t": 89047.34300000046,
      "d": 173.61057291667385,
      "v": 56
    },
    {
      "midi": 31,
      "hit": false,
      "t": 89047.34300000053,
      "d": 208.3326875000057,
      "v": 68
    },
    {
      "midi": 43,
      "hit": false,
      "t": 89166.39024999947,
      "d": 114.08694791667222,
      "v": 78
    },
    {
      "midi": 55,
      "hit": false,
      "t": 89285.43749999948,
      "d": 114.08694791667222,
      "v": 78
    },
    {
      "midi": 67,
      "hit": false,
      "t": 89285.43749999958,
      "d": 9.920604166662088,
      "v": 103
    },
    {
      "midi": 71,
      "hit": false,
      "t": 89285.43749999958,
      "d": 9.920604166662088,
      "v": 103
    },
    {
      "midi": 59,
      "hit": false,
      "t": 89285.43749999993,
      "d": 208.3326875000057,
      "v": 113
    },
    {
      "midi": 43,
      "hit": false,
      "t": 89285.43750000047,
      "d": 173.61057291667385,
      "v": 70
    },
    {
      "midi": 31,
      "hit": false,
      "t": 89285.43750000054,
      "d": 208.3326875000057,
      "v": 68
    },
    {
      "midi": 55,
      "hit": false,
      "t": 89404.48474999948,
      "d": 114.08694791667222,
      "v": 78
    },
    {
      "midi": 67,
      "hit": false,
      "t": 89404.48474999957,
      "d": 9.920604166662088,
      "v": 103
    },
    {
      "midi": 71,
      "hit": false,
      "t": 89404.48474999957,
      "d": 9.920604166662088,
      "v": 103
    },
    {
      "midi": 36,
      "hit": false,
      "t": 89523.53199999948,
      "d": 114.08694791667222,
      "v": 78
    },
    {
      "midi": 64,
      "hit": false,
      "t": 89523.53199999993,
      "d": 1423.6066979166644,
      "v": 58
    },
    {
      "midi": 67,
      "hit": false,
      "t": 89523.53199999993,
      "d": 1423.6066979166644,
      "v": 58
    },
    {
      "midi": 72,
      "hit": false,
      "t": 89523.53199999993,
      "d": 1423.6066979166644,
      "v": 58
    },
    {
      "midi": 60,
      "hit": false,
      "t": 89523.53199999993,
      "d": 1899.795697916663,
      "v": 111
    },
    {
      "midi": 36,
      "hit": false,
      "t": 89523.53200000047,
      "d": 173.61057291667385,
      "v": 74
    },
    {
      "midi": 36,
      "hit": false,
      "t": 89523.53200000054,
      "d": 208.3326875000057,
      "v": 68
    },
    {
      "midi": 36,
      "hit": false,
      "t": 89642.57924999949,
      "d": 114.08694791667222,
      "v": 78
    },
    {
      "midi": 48,
      "hit": false,
      "t": 89761.62649999949,
      "d": 114.08694791667222,
      "v": 78
    },
    {
      "midi": 60,
      "hit": false,
      "t": 89761.62649999956,
      "d": 9.920604166662088,
      "v": 103
    },
    {
      "midi": 64,
      "hit": false,
      "t": 89761.62649999956,
      "d": 9.920604166662088,
      "v": 103
    },
    {
      "midi": 48,
      "hit": false,
      "t": 89761.62650000048,
      "d": 173.61057291667385,
      "v": 70
    },
    {
      "midi": 36,
      "hit": false,
      "t": 89761.62650000055,
      "d": 208.3326875000057,
      "v": 68
    },
    {
      "midi": 48,
      "hit": false,
      "t": 89880.67374999949,
      "d": 114.08694791667222,
      "v": 78
    },
    {
      "midi": 60,
      "hit": false,
      "t": 89880.67374999955,
      "d": 9.920604166662088,
      "v": 103
    },
    {
      "midi": 64,
      "hit": false,
      "t": 89880.67374999955,
      "d": 9.920604166662088,
      "v": 103
    },
    {
      "midi": 36,
      "hit": false,
      "t": 89999.7209999995,
      "d": 114.08694791667222,
      "v": 78
    },
    {
      "midi": 36,
      "hit": false,
      "t": 89999.72100000049,
      "d": 173.61057291667385,
      "v": 64
    },
    {
      "midi": 36,
      "hit": false,
      "t": 89999.72100000056,
      "d": 208.3326875000057,
      "v": 68
    },
    {
      "midi": 36,
      "hit": false,
      "t": 90118.7682499995,
      "d": 114.08694791667222,
      "v": 78
    },
    {
      "midi": 48,
      "hit": false,
      "t": 90237.8154999995,
      "d": 114.08694791667222,
      "v": 78
    },
    {
      "midi": 60,
      "hit": false,
      "t": 90237.81549999955,
      "d": 9.920604166662088,
      "v": 103
    },
    {
      "midi": 64,
      "hit": false,
      "t": 90237.81549999955,
      "d": 9.920604166662088,
      "v": 103
    },
    {
      "midi": 48,
      "hit": false,
      "t": 90237.81550000049,
      "d": 173.61057291667385,
      "v": 74
    },
    {
      "midi": 36,
      "hit": false,
      "t": 90237.81550000056,
      "d": 208.3326875000057,
      "v": 68
    },
    {
      "midi": 48,
      "hit": false,
      "t": 90356.8627499995,
      "d": 114.08694791667222,
      "v": 78
    },
    {
      "midi": 60,
      "hit": false,
      "t": 90356.86274999953,
      "d": 9.920604166662088,
      "v": 103
    },
    {
      "midi": 64,
      "hit": false,
      "t": 90356.86274999953,
      "d": 9.920604166662088,
      "v": 103
    },
    {
      "midi": 36,
      "hit": false,
      "t": 90475.90999999951,
      "d": 114.08694791667222,
      "v": 78
    },
    {
      "midi": 36,
      "hit": false,
      "t": 90475.9100000005,
      "d": 173.61057291667385,
      "v": 50
    },
    {
      "midi": 36,
      "hit": false,
      "t": 90475.91000000057,
      "d": 208.3326875000057,
      "v": 68
    },
    {
      "midi": 36,
      "hit": false,
      "t": 90594.95724999951,
      "d": 114.08694791667222,
      "v": 78
    },
    {
      "midi": 48,
      "hit": false,
      "t": 90714.00449999952,
      "d": 114.08694791667222,
      "v": 78
    },
    {
      "midi": 60,
      "hit": false,
      "t": 90714.00449999953,
      "d": 9.920604166662088,
      "v": 103
    },
    {
      "midi": 64,
      "hit": false,
      "t": 90714.00449999953,
      "d": 9.920604166662088,
      "v": 103
    },
    {
      "midi": 48,
      "hit": false,
      "t": 90714.0045000005,
      "d": 173.61057291667385,
      "v": 73
    },
    {
      "midi": 36,
      "hit": false,
      "t": 90714.00450000058,
      "d": 208.3326875000057,
      "v": 68
    },
    {
      "midi": 60,
      "hit": false,
      "t": 90833.05174999952,
      "d": 9.920604166662088,
      "v": 103
    },
    {
      "midi": 64,
      "hit": false,
      "t": 90833.05174999952,
      "d": 9.920604166662088,
      "v": 103
    },
    {
      "midi": 48,
      "hit": false,
      "t": 90833.05174999952,
      "d": 114.08694791667222,
      "v": 78
    },
    {
      "midi": 38,
      "hit": false,
      "t": 90952.09899999952,
      "d": 114.08694791667222,
      "v": 78
    },
    {
      "midi": 66,
      "hit": false,
      "t": 90952.09899999993,
      "d": 471.22869791666744,
      "v": 58
    },
    {
      "midi": 69,
      "hit": false,
      "t": 90952.09899999993,
      "d": 471.22869791666744,
      "v": 58
    },
    {
      "midi": 74,
      "hit": false,
      "t": 90952.09899999993,
      "d": 471.22869791666744,
      "v": 58
    },
    {
      "midi": 38,
      "hit": false,
      "t": 90952.09900000051,
      "d": 173.61057291667385,
      "v": 66
    },
    {
      "midi": 38,
      "hit": false,
      "t": 90952.09900000058,
      "d": 208.3326875000057,
      "v": 68
    },
    {
      "midi": 38,
      "hit": false,
      "t": 91071.14624999953,
      "d": 114.08694791667222,
      "v": 78
    },
    {
      "midi": 62,
      "hit": false,
      "t": 91190.19349999951,
      "d": 9.920604166662088,
      "v": 103
    },
    {
      "midi": 66,
      "hit": false,
      "t": 91190.19349999951,
      "d": 9.920604166662088,
      "v": 103
    },
    {
      "midi": 50,
      "hit": false,
      "t": 91190.19349999953,
      "d": 114.08694791667222,
      "v": 78
    },
    {
      "midi": 50,
      "hit": false,
      "t": 91190.19350000052,
      "d": 173.61057291667385,
      "v": 86
    },
    {
      "midi": 38,
      "hit": false,
      "t": 91190.19350000059,
      "d": 208.3326875000057,
      "v": 68
    },
    {
      "midi": 62,
      "hit": false,
      "t": 91309.2407499995,
      "d": 9.920604166662088,
      "v": 103
    },
    {
      "midi": 66,
      "hit": false,
      "t": 91309.2407499995,
      "d": 9.920604166662088,
      "v": 103
    },
    {
      "midi": 50,
      "hit": false,
      "t": 91309.24074999953,
      "d": 114.08694791667222,
      "v": 78
    },
    {
      "midi": 34,
      "hit": false,
      "t": 91428.28799999953,
      "d": 114.08694791667222,
      "v": 78
    },
    {
      "midi": 58,
      "hit": false,
      "t": 91428.28799999993,
      "d": 947.4176979166659,
      "v": 103
    },
    {
      "midi": 62,
      "hit": false,
      "t": 91428.28799999993,
      "d": 947.4176979166659,
      "v": 58
    },
    {
      "midi": 65,
      "hit": false,
      "t": 91428.28799999993,
      "d": 947.4176979166659,
      "v": 58
    },
    {
      "midi": 70,
      "hit": false,
      "t": 91428.28799999993,
      "d": 947.4176979166659,
      "v": 58
    },
    {
      "midi": 34,
      "hit": false,
      "t": 91428.28800000052,
      "d": 173.61057291667385,
      "v": 74
    },
    {
      "midi": 34,
      "hit": false,
      "t": 91428.2880000006,
      "d": 208.3326875000057,
      "v": 68
    },
    {
      "midi": 34,
      "hit": false,
      "t": 91547.33524999954,
      "d": 114.08694791667222,
      "v": 78
    },
    {
      "midi": 58,
      "hit": false,
      "t": 91666.3824999995,
      "d": 9.920604166662088,
      "v": 103
    },
    {
      "midi": 62,
      "hit": false,
      "t": 91666.3824999995,
      "d": 9.920604166662088,
      "v": 103
    },
    {
      "midi": 46,
      "hit": false,
      "t": 91666.38249999954,
      "d": 114.08694791667222,
      "v": 78
    },
    {
      "midi": 46,
      "hit": false,
      "t": 91666.38250000053,
      "d": 173.61057291667385,
      "v": 70
    },
    {
      "midi": 34,
      "hit": false,
      "t": 91666.3825000006,
      "d": 208.3326875000057,
      "v": 68
    },
    {
      "midi": 58,
      "hit": false,
      "t": 91785.42974999949,
      "d": 9.920604166662088,
      "v": 103
    },
    {
      "midi": 62,
      "hit": false,
      "t": 91785.42974999949,
      "d": 9.920604166662088,
      "v": 103
    },
    {
      "midi": 46,
      "hit": false,
      "t": 91785.42974999954,
      "d": 114.08694791667222,
      "v": 78
    },
    {
      "midi": 34,
      "hit": false,
      "t": 91904.47699999955,
      "d": 114.08694791667222,
      "v": 78
    },
    {
      "midi": 34,
      "hit": false,
      "t": 91904.47700000054,
      "d": 173.61057291667385,
      "v": 64
    },
    {
      "midi": 34,
      "hit": false,
      "t": 91904.47700000061,
      "d": 208.3326875000057,
      "v": 68
    },
    {
      "midi": 34,
      "hit": false,
      "t": 92023.52424999955,
      "d": 114.08694791667222,
      "v": 78
    },
    {
      "midi": 58,
      "hit": false,
      "t": 92142.57149999948,
      "d": 9.920604166662088,
      "v": 103
    },
    {
      "midi": 62,
      "hit": false,
      "t": 92142.57149999948,
      "d": 9.920604166662088,
      "v": 103
    },
    {
      "midi": 46,
      "hit": false,
      "t": 92142.57149999955,
      "d": 114.08694791667222,
      "v": 78
    },
    {
      "midi": 46,
      "hit": false,
      "t": 92142.57150000054,
      "d": 173.61057291667385,
      "v": 74
    },
    {
      "midi": 34,
      "hit": false,
      "t": 92142.57150000062,
      "d": 208.3326875000057,
      "v": 68
    },
    {
      "midi": 58,
      "hit": false,
      "t": 92261.61874999947,
      "d": 9.920604166662088,
      "v": 103
    },
    {
      "midi": 62,
      "hit": false,
      "t": 92261.61874999947,
      "d": 9.920604166662088,
      "v": 103
    },
    {
      "midi": 46,
      "hit": false,
      "t": 92261.61874999956,
      "d": 114.08694791667222,
      "v": 78
    },
    {
      "midi": 36,
      "hit": false,
      "t": 92380.66599999956,
      "d": 114.08694791667222,
      "v": 78
    },
    {
      "midi": 60,
      "hit": false,
      "t": 92380.66599999992,
      "d": 947.4176979166659,
      "v": 106
    },
    {
      "midi": 64,
      "hit": false,
      "t": 92380.66599999992,
      "d": 947.4176979166659,
      "v": 58
    },
    {
      "midi": 67,
      "hit": false,
      "t": 92380.66599999992,
      "d": 947.4176979166659,
      "v": 58
    },
    {
      "midi": 72,
      "hit": false,
      "t": 92380.66599999992,
      "d": 947.4176979166659,
      "v": 58
    },
    {
      "midi": 36,
      "hit": false,
      "t": 92380.66600000055,
      "d": 173.61057291667385,
      "v": 50
    },
    {
      "midi": 36,
      "hit": false,
      "t": 92380.66600000062,
      "d": 208.3326875000057,
      "v": 68
    },
    {
      "midi": 36,
      "hit": false,
      "t": 92499.71324999956,
      "d": 114.08694791667222,
      "v": 78
    },
    {
      "midi": 60,
      "hit": false,
      "t": 92618.76049999947,
      "d": 9.920604166662088,
      "v": 103
    },
    {
      "midi": 64,
      "hit": false,
      "t": 92618.76049999947,
      "d": 9.920604166662088,
      "v": 103
    },
    {
      "midi": 48,
      "hit": false,
      "t": 92618.76049999957,
      "d": 114.08694791667222,
      "v": 78
    },
    {
      "midi": 48,
      "hit": false,
      "t": 92618.76050000056,
      "d": 173.61057291667385,
      "v": 73
    },
    {
      "midi": 36,
      "hit": false,
      "t": 92618.76050000063,
      "d": 208.3326875000057,
      "v": 68
    },
    {
      "midi": 58,
      "hit": false,
      "t": 92737.80774999945,
      "d": 9.920604166662088,
      "v": 103
    },
    {
      "midi": 62,
      "hit": false,
      "t": 92737.80774999945,
      "d": 9.920604166662088,
      "v": 103
    },
    {
      "midi": 46,
      "hit": false,
      "t": 92737.80774999957,
      "d": 114.08694791667222,
      "v": 78
    },
    {
      "midi": 36,
      "hit": false,
      "t": 92856.85499999957,
      "d": 114.08694791667222,
      "v": 78
    },
    {
      "midi": 36,
      "hit": false,
      "t": 92856.85500000056,
      "d": 173.61057291667385,
      "v": 66
    },
    {
      "midi": 36,
      "hit": false,
      "t": 92856.85500000064,
      "d": 208.3326875000057,
      "v": 68
    },
    {
      "midi": 36,
      "hit": false,
      "t": 92975.90224999958,
      "d": 114.08694791667222,
      "v": 78
    },
    {
      "midi": 60,
      "hit": false,
      "t": 93094.94949999945,
      "d": 9.920604166662088,
      "v": 103
    },
    {
      "midi": 64,
      "hit": false,
      "t": 93094.94949999945,
      "d": 9.920604166662088,
      "v": 103
    },
    {
      "midi": 48,
      "hit": false,
      "t": 93094.94949999958,
      "d": 114.08694791667222,
      "v": 78
    },
    {
      "midi": 48,
      "hit": false,
      "t": 93094.94950000057,
      "d": 173.61057291667385,
      "v": 86
    },
    {
      "midi": 36,
      "hit": false,
      "t": 93094.94950000064,
      "d": 208.3326875000057,
      "v": 68
    },
    {
      "midi": 60,
      "hit": false,
      "t": 93213.99674999944,
      "d": 9.920604166662088,
      "v": 103
    },
    {
      "midi": 64,
      "hit": false,
      "t": 93213.99674999944,
      "d": 9.920604166662088,
      "v": 103
    },
    {
      "midi": 48,
      "hit": false,
      "t": 93213.99674999958,
      "d": 114.08694791667222,
      "v": 78
    },
    {
      "midi": 43,
      "hit": false,
      "t": 93333.04399999959,
      "d": 114.08694791667222,
      "v": 78
    },
    {
      "midi": 55,
      "hit": false,
      "t": 93333.04399999992,
      "d": 947.4176979166659,
      "v": 88
    },
    {
      "midi": 74,
      "hit": false,
      "t": 93333.04400000011,
      "d": 947.4176979166659,
      "v": 61
    },
    {
      "midi": 79,
      "hit": false,
      "t": 93333.04400000011,
      "d": 947.4176979166659,
      "v": 66
    },
    {
      "midi": 83,
      "hit": false,
      "t": 93333.04400000011,
      "d": 947.4176979166659,
      "v": 63
    },
    {
      "midi": 62,
      "hit": false,
      "t": 93333.04400000011,
      "d": 947.4176979166659,
      "v": 82
    },
    {
      "midi": 67,
      "hit": false,
      "t": 93333.04400000011,
      "d": 947.4176979166659,
      "v": 89
    },
    {
      "midi": 71,
      "hit": false,
      "t": 93333.04400000011,
      "d": 947.4176979166659,
      "v": 85
    },
    {
      "midi": 31,
      "hit": false,
      "t": 93333.04400000058,
      "d": 173.61057291667385,
      "v": 76
    },
    {
      "midi": 31,
      "hit": false,
      "t": 93333.04400000065,
      "d": 208.3326875000057,
      "v": 68
    },
    {
      "midi": 43,
      "hit": false,
      "t": 93452.09124999959,
      "d": 114.08694791667222,
      "v": 78
    },
    {
      "midi": 67,
      "hit": false,
      "t": 93571.13849999943,
      "d": 9.920604166662088,
      "v": 103
    },
    {
      "midi": 71,
      "hit": false,
      "t": 93571.13849999943,
      "d": 9.920604166662088,
      "v": 103
    },
    {
      "midi": 55,
      "hit": false,
      "t": 93571.1384999996,
      "d": 114.08694791667222,
      "v": 78
    },
    {
      "midi": 43,
      "hit": false,
      "t": 93571.13850000058,
      "d": 173.61057291667385,
      "v": 82
    },
    {
      "midi": 31,
      "hit": false,
      "t": 93571.13850000066,
      "d": 208.3326875000057,
      "v": 68
    },
    {
      "midi": 67,
      "hit": false,
      "t": 93690.18574999942,
      "d": 9.920604166662088,
      "v": 103
    },
    {
      "midi": 71,
      "hit": false,
      "t": 93690.18574999942,
      "d": 9.920604166662088,
      "v": 103
    },
    {
      "midi": 55,
      "hit": false,
      "t": 93690.1857499996,
      "d": 114.08694791667222,
      "v": 78
    },
    {
      "midi": 43,
      "hit": false,
      "t": 93809.2329999996,
      "d": 114.08694791667222,
      "v": 78
    },
    {
      "midi": 31,
      "hit": false,
      "t": 93809.23300000059,
      "d": 173.61057291667385,
      "v": 62
    },
    {
      "midi": 31,
      "hit": false,
      "t": 93809.23300000066,
      "d": 208.3326875000057,
      "v": 68
    },
    {
      "midi": 43,
      "hit": false,
      "t": 93928.2802499996,
      "d": 114.08694791667222,
      "v": 78
    },
    {
      "midi": 67,
      "hit": false,
      "t": 94047.32749999942,
      "d": 9.920604166662088,
      "v": 103
    },
    {
      "midi": 71,
      "hit": false,
      "t": 94047.32749999942,
      "d": 9.920604166662088,
      "v": 103
    },
    {
      "midi": 55,
      "hit": false,
      "t": 94047.3274999996,
      "d": 114.08694791667222,
      "v": 78
    },
    {
      "midi": 43,
      "hit": false,
      "t": 94047.3275000006,
      "d": 173.61057291667385,
      "v": 78
    },
    {
      "midi": 31,
      "hit": false,
      "t": 94047.32750000067,
      "d": 208.3326875000057,
      "v": 68
    },
    {
      "midi": 67,
      "hit": false,
      "t": 94166.3747499994,
      "d": 9.920604166662088,
      "v": 103
    },
    {
      "midi": 71,
      "hit": false,
      "t": 94166.3747499994,
      "d": 9.920604166662088,
      "v": 103
    },
    {
      "midi": 55,
      "hit": false,
      "t": 94166.37474999961,
      "d": 114.08694791667222,
      "v": 78
    },
    {
      "midi": 42,
      "hit": false,
      "t": 94285.42199999961,
      "d": 114.08694791667222,
      "v": 78
    },
    {
      "midi": 54,
      "hit": false,
      "t": 94285.42199999992,
      "d": 947.4176979166659,
      "v": 88
    },
    {
      "midi": 74,
      "hit": false,
      "t": 94285.42200000011,
      "d": 947.4176979166659,
      "v": 63
    },
    {
      "midi": 78,
      "hit": false,
      "t": 94285.42200000011,
      "d": 947.4176979166659,
      "v": 66
    },
    {
      "midi": 81,
      "hit": false,
      "t": 94285.42200000011,
      "d": 947.4176979166659,
      "v": 66
    },
    {
      "midi": 62,
      "hit": false,
      "t": 94285.42200000011,
      "d": 947.4176979166659,
      "v": 85
    },
    {
      "midi": 66,
      "hit": false,
      "t": 94285.42200000011,
      "d": 947.4176979166659,
      "v": 89
    },
    {
      "midi": 69,
      "hit": false,
      "t": 94285.42200000011,
      "d": 947.4176979166659,
      "v": 89
    },
    {
      "midi": 30,
      "hit": false,
      "t": 94285.4220000006,
      "d": 173.61057291667385,
      "v": 67
    },
    {
      "midi": 30,
      "hit": false,
      "t": 94285.42200000068,
      "d": 208.3326875000057,
      "v": 68
    },
    {
      "midi": 42,
      "hit": false,
      "t": 94404.46924999962,
      "d": 114.08694791667222,
      "v": 78
    },
    {
      "midi": 66,
      "hit": false,
      "t": 94523.5164999994,
      "d": 9.920604166662088,
      "v": 103
    },
    {
      "midi": 70,
      "hit": false,
      "t": 94523.5164999994,
      "d": 9.920604166662088,
      "v": 103
    },
    {
      "midi": 54,
      "hit": false,
      "t": 94523.51649999962,
      "d": 114.08694791667222,
      "v": 78
    },
    {
      "midi": 42,
      "hit": false,
      "t": 94523.51650000061,
      "d": 173.61057291667385,
      "v": 70
    },
    {
      "midi": 30,
      "hit": false,
      "t": 94523.51650000068,
      "d": 208.3326875000057,
      "v": 68
    },
    {
      "midi": 66,
      "hit": false,
      "t": 94642.56374999939,
      "d": 9.920604166662088,
      "v": 103
    },
    {
      "midi": 70,
      "hit": false,
      "t": 94642.56374999939,
      "d": 9.920604166662088,
      "v": 103
    },
    {
      "midi": 54,
      "hit": false,
      "t": 94642.56374999962,
      "d": 114.08694791667222,
      "v": 78
    },
    {
      "midi": 42,
      "hit": false,
      "t": 94761.61099999963,
      "d": 114.08694791667222,
      "v": 78
    },
    {
      "midi": 30,
      "hit": false,
      "t": 94761.61100000062,
      "d": 173.61057291667385,
      "v": 56
    },
    {
      "midi": 30,
      "hit": false,
      "t": 94761.61100000069,
      "d": 208.3326875000057,
      "v": 68
    },
    {
      "midi": 42,
      "hit": false,
      "t": 94880.65824999963,
      "d": 114.08694791667222,
      "v": 78
    },
    {
      "midi": 66,
      "hit": false,
      "t": 94999.70549999939,
      "d": 9.920604166662088,
      "v": 103
    },
    {
      "midi": 70,
      "hit": false,
      "t": 94999.70549999939,
      "d": 9.920604166662088,
      "v": 103
    },
    {
      "midi": 54,
      "hit": false,
      "t": 94999.70549999963,
      "d": 114.08694791667222,
      "v": 78
    },
    {
      "midi": 42,
      "hit": false,
      "t": 94999.70550000062,
      "d": 173.61057291667385,
      "v": 70
    },
    {
      "midi": 30,
      "hit": false,
      "t": 94999.7055000007,
      "d": 208.3326875000057,
      "v": 68
    },
    {
      "midi": 66,
      "hit": false,
      "t": 95118.75274999937,
      "d": 9.920604166662088,
      "v": 103
    },
    {
      "midi": 70,
      "hit": false,
      "t": 95118.75274999937,
      "d": 9.920604166662088,
      "v": 103
    },
    {
      "midi": 54,
      "hit": false,
      "t": 95118.75274999964,
      "d": 114.08694791667222,
      "v": 78
    },
    {
      "midi": 40,
      "hit": false,
      "t": 95237.79999999964,
      "d": 114.08694791667222,
      "v": 78
    },
    {
      "midi": 52,
      "hit": false,
      "t": 95237.79999999992,
      "d": 947.4176979166659,
      "v": 88
    },
    {
      "midi": 71,
      "hit": false,
      "t": 95237.8000000001,
      "d": 947.4176979166659,
      "v": 60
    },
    {
      "midi": 76,
      "hit": false,
      "t": 95237.8000000001,
      "d": 947.4176979166659,
      "v": 63
    },
    {
      "midi": 79,
      "hit": false,
      "t": 95237.8000000001,
      "d": 947.4176979166659,
      "v": 62
    },
    {
      "midi": 59,
      "hit": false,
      "t": 95237.8000000001,
      "d": 947.4176979166659,
      "v": 81
    },
    {
      "midi": 64,
      "hit": false,
      "t": 95237.8000000001,
      "d": 947.4176979166659,
      "v": 85
    },
    {
      "midi": 67,
      "hit": false,
      "t": 95237.8000000001,
      "d": 947.4176979166659,
      "v": 84
    },
    {
      "midi": 28,
      "hit": false,
      "t": 95237.80000000063,
      "d": 173.61057291667385,
      "v": 76
    },
    {
      "midi": 28,
      "hit": false,
      "t": 95237.8000000007,
      "d": 208.3326875000057,
      "v": 68
    },
    {
      "midi": 40,
      "hit": false,
      "t": 95356.84724999964,
      "d": 114.08694791667222,
      "v": 78
    },
    {
      "midi": 64,
      "hit": false,
      "t": 95475.89449999937,
      "d": 9.920604166662088,
      "v": 103
    },
    {
      "midi": 68,
      "hit": false,
      "t": 95475.89449999937,
      "d": 9.920604166662088,
      "v": 103
    },
    {
      "midi": 52,
      "hit": false,
      "t": 95475.89449999965,
      "d": 114.08694791667222,
      "v": 78
    },
    {
      "midi": 40,
      "hit": false,
      "t": 95475.89450000064,
      "d": 173.61057291667385,
      "v": 82
    },
    {
      "midi": 28,
      "hit": false,
      "t": 95475.89450000071,
      "d": 208.3326875000057,
      "v": 68
    },
    {
      "midi": 64,
      "hit": false,
      "t": 95594.94174999936,
      "d": 9.920604166662088,
      "v": 103
    },
    {
      "midi": 68,
      "hit": false,
      "t": 95594.94174999936,
      "d": 9.920604166662088,
      "v": 103
    },
    {
      "midi": 52,
      "hit": false,
      "t": 95594.94174999965,
      "d": 114.08694791667222,
      "v": 78
    },
    {
      "midi": 40,
      "hit": false,
      "t": 95713.98899999965,
      "d": 114.08694791667222,
      "v": 78
    },
    {
      "midi": 28,
      "hit": false,
      "t": 95713.98900000064,
      "d": 173.61057291667385,
      "v": 62
    },
    {
      "midi": 28,
      "hit": false,
      "t": 95713.98900000071,
      "d": 208.3326875000057,
      "v": 68
    },
    {
      "midi": 40,
      "hit": false,
      "t": 95833.03624999966,
      "d": 114.08694791667222,
      "v": 78
    },
    {
      "midi": 64,
      "hit": false,
      "t": 95952.08349999935,
      "d": 9.920604166662088,
      "v": 103
    },
    {
      "midi": 68,
      "hit": false,
      "t": 95952.08349999935,
      "d": 9.920604166662088,
      "v": 103
    },
    {
      "midi": 52,
      "hit": false,
      "t": 95952.08349999966,
      "d": 114.08694791667222,
      "v": 78
    },
    {
      "midi": 40,
      "hit": false,
      "t": 95952.08350000065,
      "d": 173.61057291667385,
      "v": 78
    },
    {
      "midi": 28,
      "hit": false,
      "t": 95952.08350000072,
      "d": 208.3326875000057,
      "v": 68
    },
    {
      "midi": 64,
      "hit": false,
      "t": 96071.13074999934,
      "d": 9.920604166662088,
      "v": 103
    },
    {
      "midi": 68,
      "hit": false,
      "t": 96071.13074999934,
      "d": 9.920604166662088,
      "v": 103
    },
    {
      "midi": 52,
      "hit": false,
      "t": 96071.13074999966,
      "d": 114.08694791667222,
      "v": 78
    },
    {
      "midi": 50,
      "hit": false,
      "t": 96190.17799999967,
      "d": 114.08694791667222,
      "v": 78
    },
    {
      "midi": 50,
      "hit": false,
      "t": 96190.17799999991,
      "d": 947.4176979166659,
      "v": 88
    },
    {
      "midi": 71,
      "hit": false,
      "t": 96190.1780000001,
      "d": 947.4176979166659,
      "v": 61
    },
    {
      "midi": 74,
      "hit": false,
      "t": 96190.1780000001,
      "d": 947.4176979166659,
      "v": 64
    },
    {
      "midi": 79,
      "hit": false,
      "t": 96190.1780000001,
      "d": 947.4176979166659,
      "v": 58
    },
    {
      "midi": 59,
      "hit": false,
      "t": 96190.1780000001,
      "d": 947.4176979166659,
      "v": 82
    },
    {
      "midi": 62,
      "hit": false,
      "t": 96190.1780000001,
      "d": 947.4176979166659,
      "v": 86
    },
    {
      "midi": 67,
      "hit": false,
      "t": 96190.1780000001,
      "d": 947.4176979166659,
      "v": 79
    },
    {
      "midi": 38,
      "hit": false,
      "t": 96190.17800000065,
      "d": 173.61057291667385,
      "v": 67
    },
    {
      "midi": 38,
      "hit": false,
      "t": 96190.17800000073,
      "d": 208.3326875000057,
      "v": 68
    },
    {
      "midi": 50,
      "hit": false,
      "t": 96309.22524999967,
      "d": 114.08694791667222,
      "v": 78
    },
    {
      "midi": 74,
      "hit": false,
      "t": 96428.27249999934,
      "d": 9.920604166662088,
      "v": 103
    },
    {
      "midi": 78,
      "hit": false,
      "t": 96428.27249999934,
      "d": 9.920604166662088,
      "v": 103
    },
    {
      "midi": 62,
      "hit": false,
      "t": 96428.27249999967,
      "d": 114.08694791667222,
      "v": 78
    },
    {
      "midi": 50,
      "hit": false,
      "t": 96428.27250000066,
      "d": 173.61057291667385,
      "v": 70
    },
    {
      "midi": 38,
      "hit": false,
      "t": 96428.27250000073,
      "d": 208.3326875000057,
      "v": 68
    },
    {
      "midi": 74,
      "hit": false,
      "t": 96547.31974999933,
      "d": 9.920604166662088,
      "v": 103
    },
    {
      "midi": 78,
      "hit": false,
      "t": 96547.31974999933,
      "d": 9.920604166662088,
      "v": 103
    },
    {
      "midi": 62,
      "hit": false,
      "t": 96547.31974999967,
      "d": 114.08694791667222,
      "v": 78
    },
    {
      "midi": 50,
      "hit": false,
      "t": 96666.36699999968,
      "d": 114.08694791667222,
      "v": 78
    },
    {
      "midi": 38,
      "hit": false,
      "t": 96666.36700000067,
      "d": 173.61057291667385,
      "v": 56
    },
    {
      "midi": 38,
      "hit": false,
      "t": 96666.36700000074,
      "d": 208.3326875000057,
      "v": 68
    },
    {
      "midi": 50,
      "hit": false,
      "t": 96785.41424999968,
      "d": 114.08694791667222,
      "v": 78
    },
    {
      "midi": 74,
      "hit": false,
      "t": 96904.46149999932,
      "d": 9.920604166662088,
      "v": 103
    },
    {
      "midi": 78,
      "hit": false,
      "t": 96904.46149999932,
      "d": 9.920604166662088,
      "v": 103
    },
    {
      "midi": 62,
      "hit": false,
      "t": 96904.46149999968,
      "d": 114.08694791667222,
      "v": 78
    },
    {
      "midi": 50,
      "hit": false,
      "t": 96904.46150000067,
      "d": 173.61057291667385,
      "v": 70
    },
    {
      "midi": 38,
      "hit": false,
      "t": 96904.46150000075,
      "d": 208.3326875000057,
      "v": 68
    },
    {
      "midi": 74,
      "hit": false,
      "t": 97023.50874999931,
      "d": 9.920604166662088,
      "v": 103
    },
    {
      "midi": 78,
      "hit": false,
      "t": 97023.50874999931,
      "d": 9.920604166662088,
      "v": 103
    },
    {
      "midi": 62,
      "hit": false,
      "t": 97023.50874999969,
      "d": 114.08694791667222,
      "v": 78
    },
    {
      "midi": 48,
      "hit": false,
      "t": 97142.55599999969,
      "d": 114.08694791667222,
      "v": 78
    },
    {
      "midi": 60,
      "hit": false,
      "t": 97142.55599999991,
      "d": 947.4176979166659,
      "v": 88
    },
    {
      "midi": 67,
      "hit": false,
      "t": 97142.5560000001,
      "d": 947.4176979166659,
      "v": 55
    },
    {
      "midi": 72,
      "hit": false,
      "t": 97142.5560000001,
      "d": 947.4176979166659,
      "v": 60
    },
    {
      "midi": 76,
      "hit": false,
      "t": 97142.5560000001,
      "d": 947.4176979166659,
      "v": 62
    },
    {
      "midi": 55,
      "hit": false,
      "t": 97142.5560000001,
      "d": 947.4176979166659,
      "v": 75
    },
    {
      "midi": 60,
      "hit": false,
      "t": 97142.5560000001,
      "d": 947.4176979166659,
      "v": 81
    },
    {
      "midi": 64,
      "hit": false,
      "t": 97142.5560000001,
      "d": 947.4176979166659,
      "v": 84
    },
    {
      "midi": 36,
      "hit": false,
      "t": 97142.55600000068,
      "d": 173.61057291667385,
      "v": 76
    },
    {
      "midi": 36,
      "hit": false,
      "t": 97142.55600000075,
      "d": 208.3326875000057,
      "v": 68
    },
    {
      "midi": 48,
      "hit": false,
      "t": 97261.6032499997,
      "d": 114.08694791667222,
      "v": 78
    },
    {
      "midi": 72,
      "hit": false,
      "t": 97380.6504999993,
      "d": 9.920604166662088,
      "v": 103
    },
    {
      "midi": 76,
      "hit": false,
      "t": 97380.6504999993,
      "d": 9.920604166662088,
      "v": 103
    },
    {
      "midi": 60,
      "hit": false,
      "t": 97380.6504999997,
      "d": 114.08694791667222,
      "v": 78
    },
    {
      "midi": 48,
      "hit": false,
      "t": 97380.65050000069,
      "d": 173.61057291667385,
      "v": 82
    },
    {
      "midi": 36,
      "hit": false,
      "t": 97380.65050000076,
      "d": 208.3326875000057,
      "v": 68
    },
    {
      "midi": 72,
      "hit": false,
      "t": 97499.6977499993,
      "d": 9.920604166662088,
      "v": 103
    },
    {
      "midi": 76,
      "hit": false,
      "t": 97499.6977499993,
      "d": 9.920604166662088,
      "v": 103
    },
    {
      "midi": 60,
      "hit": false,
      "t": 97499.6977499997,
      "d": 114.08694791667222,
      "v": 78
    },
    {
      "midi": 48,
      "hit": false,
      "t": 97618.7449999997,
      "d": 114.08694791667222,
      "v": 78
    },
    {
      "midi": 36,
      "hit": false,
      "t": 97618.7450000007,
      "d": 173.61057291667385,
      "v": 62
    },
    {
      "midi": 36,
      "hit": false,
      "t": 97618.74500000077,
      "d": 208.3326875000057,
      "v": 68
    },
    {
      "midi": 48,
      "hit": false,
      "t": 97737.79224999971,
      "d": 114.08694791667222,
      "v": 78
    },
    {
      "midi": 72,
      "hit": false,
      "t": 97856.83949999929,
      "d": 9.920604166662088,
      "v": 103
    },
    {
      "midi": 76,
      "hit": false,
      "t": 97856.83949999929,
      "d": 9.920604166662088,
      "v": 103
    },
    {
      "midi": 60,
      "hit": false,
      "t": 97856.83949999971,
      "d": 114.08694791667222,
      "v": 78
    },
    {
      "midi": 48,
      "hit": false,
      "t": 97856.8395000007,
      "d": 173.61057291667385,
      "v": 78
    },
    {
      "midi": 36,
      "hit": false,
      "t": 97856.83950000077,
      "d": 208.3326875000057,
      "v": 68
    },
    {
      "midi": 72,
      "hit": false,
      "t": 97975.88674999928,
      "d": 9.920604166662088,
      "v": 103
    },
    {
      "midi": 76,
      "hit": false,
      "t": 97975.88674999928,
      "d": 9.920604166662088,
      "v": 103
    },
    {
      "midi": 60,
      "hit": false,
      "t": 97975.88674999971,
      "d": 114.08694791667222,
      "v": 78
    },
    {
      "midi": 47,
      "hit": false,
      "t": 98094.93399999972,
      "d": 114.08694791667222,
      "v": 78
    },
    {
      "midi": 59,
      "hit": false,
      "t": 98094.9339999999,
      "d": 947.4176979166659,
      "v": 88
    },
    {
      "midi": 71,
      "hit": false,
      "t": 98094.9340000001,
      "d": 947.4176979166659,
      "v": 52
    },
    {
      "midi": 74,
      "hit": false,
      "t": 98094.9340000001,
      "d": 947.4176979166659,
      "v": 65
    },
    {
      "midi": 79,
      "hit": false,
      "t": 98094.9340000001,
      "d": 947.4176979166659,
      "v": 55
    },
    {
      "midi": 59,
      "hit": false,
      "t": 98094.9340000001,
      "d": 947.4176979166659,
      "v": 71
    },
    {
      "midi": 62,
      "hit": false,
      "t": 98094.9340000001,
      "d": 947.4176979166659,
      "v": 88
    },
    {
      "midi": 67,
      "hit": false,
      "t": 98094.9340000001,
      "d": 947.4176979166659,
      "v": 75
    },
    {
      "midi": 35,
      "hit": false,
      "t": 98094.9340000007,
      "d": 173.61057291667385,
      "v": 67
    },
    {
      "midi": 35,
      "hit": false,
      "t": 98094.93400000078,
      "d": 208.3326875000057,
      "v": 68
    },
    {
      "midi": 47,
      "hit": false,
      "t": 98213.98124999972,
      "d": 114.08694791667222,
      "v": 78
    },
    {
      "midi": 71,
      "hit": false,
      "t": 98333.02849999927,
      "d": 9.920604166662088,
      "v": 103
    },
    {
      "midi": 75,
      "hit": false,
      "t": 98333.02849999927,
      "d": 9.920604166662088,
      "v": 103
    },
    {
      "midi": 59,
      "hit": false,
      "t": 98333.02849999972,
      "d": 114.08694791667222,
      "v": 78
    },
    {
      "midi": 47,
      "hit": false,
      "t": 98333.02850000071,
      "d": 173.61057291667385,
      "v": 70
    },
    {
      "midi": 35,
      "hit": false,
      "t": 98333.02850000079,
      "d": 208.3326875000057,
      "v": 68
    },
    {
      "midi": 71,
      "hit": false,
      "t": 98452.07574999926,
      "d": 9.920604166662088,
      "v": 103
    },
    {
      "midi": 75,
      "hit": false,
      "t": 98452.07574999926,
      "d": 9.920604166662088,
      "v": 103
    },
    {
      "midi": 59,
      "hit": false,
      "t": 98452.07574999973,
      "d": 114.08694791667222,
      "v": 78
    },
    {
      "midi": 47,
      "hit": false,
      "t": 98571.12299999973,
      "d": 114.08694791667222,
      "v": 78
    },
    {
      "midi": 35,
      "hit": false,
      "t": 98571.12300000072,
      "d": 173.61057291667385,
      "v": 56
    },
    {
      "midi": 35,
      "hit": false,
      "t": 98571.12300000079,
      "d": 208.3326875000057,
      "v": 68
    },
    {
      "midi": 47,
      "hit": false,
      "t": 98690.17024999973,
      "d": 114.08694791667222,
      "v": 78
    },
    {
      "midi": 71,
      "hit": false,
      "t": 98809.21749999926,
      "d": 9.920604166662088,
      "v": 103
    },
    {
      "midi": 75,
      "hit": false,
      "t": 98809.21749999926,
      "d": 9.920604166662088,
      "v": 103
    },
    {
      "midi": 59,
      "hit": false,
      "t": 98809.21749999974,
      "d": 114.08694791667222,
      "v": 78
    },
    {
      "midi": 47,
      "hit": false,
      "t": 98809.21750000073,
      "d": 173.61057291667385,
      "v": 70
    },
    {
      "midi": 35,
      "hit": false,
      "t": 98809.2175000008,
      "d": 208.3326875000057,
      "v": 68
    },
    {
      "midi": 71,
      "hit": false,
      "t": 98928.26474999925,
      "d": 9.920604166662088,
      "v": 103
    },
    {
      "midi": 75,
      "hit": false,
      "t": 98928.26474999925,
      "d": 9.920604166662088,
      "v": 103
    },
    {
      "midi": 59,
      "hit": false,
      "t": 98928.26474999974,
      "d": 114.08694791667222,
      "v": 78
    },
    {
      "midi": 45,
      "hit": false,
      "t": 99047.31199999974,
      "d": 114.08694791667222,
      "v": 78
    },
    {
      "midi": 57,
      "hit": false,
      "t": 99047.3119999999,
      "d": 1899.795697916663,
      "v": 88
    },
    {
      "midi": 72,
      "hit": false,
      "t": 99047.31200000009,
      "d": 947.4176979166659,
      "v": 62
    },
    {
      "midi": 76,
      "hit": false,
      "t": 99047.31200000009,
      "d": 947.4176979166659,
      "v": 62
    },
    {
      "midi": 81,
      "hit": false,
      "t": 99047.31200000009,
      "d": 947.4176979166659,
      "v": 64
    },
    {
      "midi": 60,
      "hit": false,
      "t": 99047.31200000009,
      "d": 947.4176979166659,
      "v": 84
    },
    {
      "midi": 64,
      "hit": false,
      "t": 99047.31200000009,
      "d": 947.4176979166659,
      "v": 84
    },
    {
      "midi": 69,
      "hit": false,
      "t": 99047.31200000009,
      "d": 947.4176979166659,
      "v": 86
    },
    {
      "midi": 33,
      "hit": false,
      "t": 99047.31200000073,
      "d": 173.61057291667385,
      "v": 76
    },
    {
      "midi": 33,
      "hit": false,
      "t": 99047.3120000008,
      "d": 208.3326875000057,
      "v": 68
    },
    {
      "midi": 45,
      "hit": false,
      "t": 99166.35924999975,
      "d": 114.08694791667222,
      "v": 78
    },
    {
      "midi": 69,
      "hit": false,
      "t": 99285.40649999924,
      "d": 9.920604166662088,
      "v": 103
    },
    {
      "midi": 73,
      "hit": false,
      "t": 99285.40649999924,
      "d": 9.920604166662088,
      "v": 103
    },
    {
      "midi": 57,
      "hit": false,
      "t": 99285.40649999975,
      "d": 114.08694791667222,
      "v": 78
    },
    {
      "midi": 45,
      "hit": false,
      "t": 99285.40650000074,
      "d": 173.61057291667385,
      "v": 82
    },
    {
      "midi": 33,
      "hit": false,
      "t": 99285.40650000081,
      "d": 208.3326875000057,
      "v": 68
    },
    {
      "midi": 69,
      "hit": false,
      "t": 99404.45374999923,
      "d": 9.920604166662088,
      "v": 103
    },
    {
      "midi": 73,
      "hit": false,
      "t": 99404.45374999923,
      "d": 9.920604166662088,
      "v": 103
    },
    {
      "midi": 57,
      "hit": false,
      "t": 99404.45374999975,
      "d": 114.08694791667222,
      "v": 78
    },
    {
      "midi": 45,
      "hit": false,
      "t": 99523.50099999976,
      "d": 114.08694791667222,
      "v": 78
    },
    {
      "midi": 33,
      "hit": false,
      "t": 99523.50100000075,
      "d": 173.61057291667385,
      "v": 62
    },
    {
      "midi": 33,
      "hit": false,
      "t": 99523.50100000082,
      "d": 208.3326875000057,
      "v": 68
    },
    {
      "midi": 45,
      "hit": false,
      "t": 99642.54824999976,
      "d": 114.08694791667222,
      "v": 78
    },
    {
      "midi": 69,
      "hit": false,
      "t": 99761.59549999922,
      "d": 9.920604166662088,
      "v": 103
    },
    {
      "midi": 73,
      "hit": false,
      "t": 99761.59549999922,
      "d": 9.920604166662088,
      "v": 103
    },
    {
      "midi": 57,
      "hit": false,
      "t": 99761.59549999976,
      "d": 114.08694791667222,
      "v": 78
    },
    {
      "midi": 45,
      "hit": false,
      "t": 99761.59550000075,
      "d": 173.61057291667385,
      "v": 78
    },
    {
      "midi": 33,
      "hit": false,
      "t": 99761.59550000083,
      "d": 208.3326875000057,
      "v": 68
    },
    {
      "midi": 69,
      "hit": false,
      "t": 99880.64274999921,
      "d": 9.920604166662088,
      "v": 103
    },
    {
      "midi": 73,
      "hit": false,
      "t": 99880.64274999921,
      "d": 9.920604166662088,
      "v": 103
    },
    {
      "midi": 57,
      "hit": false,
      "t": 99880.64274999977,
      "d": 114.08694791667222,
      "v": 78
    },
    {
      "midi": 50,
      "hit": false,
      "t": 99999.68999999977,
      "d": 114.08694791667222,
      "v": 78
    },
    {
      "midi": 74,
      "hit": false,
      "t": 99999.69000000009,
      "d": 947.4176979166659,
      "v": 64
    },
    {
      "midi": 78,
      "hit": false,
      "t": 99999.69000000009,
      "d": 947.4176979166659,
      "v": 54
    },
    {
      "midi": 81,
      "hit": false,
      "t": 99999.69000000009,
      "d": 947.4176979166659,
      "v": 62
    },
    {
      "midi": 62,
      "hit": false,
      "t": 99999.69000000009,
      "d": 947.4176979166659,
      "v": 86
    },
    {
      "midi": 66,
      "hit": false,
      "t": 99999.69000000009,
      "d": 947.4176979166659,
      "v": 73
    },
    {
      "midi": 69,
      "hit": false,
      "t": 99999.69000000009,
      "d": 947.4176979166659,
      "v": 84
    },
    {
      "midi": 38,
      "hit": false,
      "t": 99999.69000000076,
      "d": 173.61057291667385,
      "v": 67
    },
    {
      "midi": 38,
      "hit": false,
      "t": 99999.69000000083,
      "d": 208.3326875000057,
      "v": 68
    },
    {
      "midi": 50,
      "hit": false,
      "t": 100118.73724999977,
      "d": 114.08694791667222,
      "v": 78
    },
    {
      "midi": 74,
      "hit": false,
      "t": 100237.78449999921,
      "d": 9.920604166662088,
      "v": 103
    },
    {
      "midi": 78,
      "hit": false,
      "t": 100237.78449999921,
      "d": 9.920604166662088,
      "v": 103
    },
    {
      "midi": 62,
      "hit": false,
      "t": 100237.78449999978,
      "d": 114.08694791667222,
      "v": 78
    },
    {
      "midi": 50,
      "hit": false,
      "t": 100237.78450000077,
      "d": 173.61057291667385,
      "v": 70
    },
    {
      "midi": 38,
      "hit": false,
      "t": 100237.78450000084,
      "d": 208.3326875000057,
      "v": 68
    },
    {
      "midi": 74,
      "hit": false,
      "t": 100356.8317499992,
      "d": 9.920604166662088,
      "v": 103
    },
    {
      "midi": 78,
      "hit": false,
      "t": 100356.8317499992,
      "d": 9.920604166662088,
      "v": 103
    },
    {
      "midi": 62,
      "hit": false,
      "t": 100356.83174999978,
      "d": 114.08694791667222,
      "v": 78
    },
    {
      "midi": 50,
      "hit": false,
      "t": 100475.87899999978,
      "d": 114.08694791667222,
      "v": 78
    },
    {
      "midi": 38,
      "hit": false,
      "t": 100475.87900000077,
      "d": 173.61057291667385,
      "v": 56
    },
    {
      "midi": 38,
      "hit": false,
      "t": 100475.87900000084,
      "d": 208.3326875000057,
      "v": 68
    },
    {
      "midi": 50,
      "hit": false,
      "t": 100594.92624999979,
      "d": 114.08694791667222,
      "v": 78
    },
    {
      "midi": 74,
      "hit": false,
      "t": 100713.97349999919,
      "d": 9.920604166662088,
      "v": 103
    },
    {
      "midi": 78,
      "hit": false,
      "t": 100713.97349999919,
      "d": 9.920604166662088,
      "v": 103
    },
    {
      "midi": 62,
      "hit": false,
      "t": 100713.97349999979,
      "d": 114.08694791667222,
      "v": 78
    },
    {
      "midi": 50,
      "hit": false,
      "t": 100713.97350000078,
      "d": 173.61057291667385,
      "v": 70
    },
    {
      "midi": 38,
      "hit": false,
      "t": 100713.97350000085,
      "d": 208.3326875000057,
      "v": 68
    },
    {
      "midi": 74,
      "hit": false,
      "t": 100833.02074999918,
      "d": 9.920604166662088,
      "v": 103
    },
    {
      "midi": 78,
      "hit": false,
      "t": 100833.02074999918,
      "d": 9.920604166662088,
      "v": 103
    },
    {
      "midi": 62,
      "hit": false,
      "t": 100833.02074999979,
      "d": 114.08694791667222,
      "v": 78
    },
    {
      "midi": 43,
      "hit": false,
      "t": 100952.0679999998,
      "d": 114.08694791667222,
      "v": 78
    },
    {
      "midi": 55,
      "hit": false,
      "t": 100952.0679999999,
      "d": 947.4176979166659,
      "v": 88
    },
    {
      "midi": 74,
      "hit": false,
      "t": 100952.06799999997,
      "d": 1455.8486614583235,
      "v": 98
    },
    {
      "midi": 71,
      "hit": false,
      "t": 100952.06799999997,
      "d": 1845.2323749999923,
      "v": 68
    },
    {
      "midi": 67,
      "hit": false,
      "t": 100952.06799999997,
      "d": 1855.152979166669,
      "v": 68
    },
    {
      "midi": 74,
      "hit": false,
      "t": 100952.06800000009,
      "d": 947.4176979166659,
      "v": 61
    },
    {
      "midi": 79,
      "hit": false,
      "t": 100952.06800000009,
      "d": 947.4176979166659,
      "v": 66
    },
    {
      "midi": 83,
      "hit": false,
      "t": 100952.06800000009,
      "d": 947.4176979166659,
      "v": 63
    },
    {
      "midi": 62,
      "hit": false,
      "t": 100952.06800000009,
      "d": 947.4176979166659,
      "v": 82
    },
    {
      "midi": 67,
      "hit": false,
      "t": 100952.06800000009,
      "d": 947.4176979166659,
      "v": 89
    },
    {
      "midi": 71,
      "hit": false,
      "t": 100952.06800000009,
      "d": 947.4176979166659,
      "v": 85
    },
    {
      "midi": 31,
      "hit": false,
      "t": 100952.06800000079,
      "d": 173.61057291667385,
      "v": 76
    },
    {
      "midi": 31,
      "hit": false,
      "t": 100952.06800000086,
      "d": 208.3326875000057,
      "v": 68
    },
    {
      "midi": 43,
      "hit": false,
      "t": 101071.1152499998,
      "d": 114.08694791667222,
      "v": 78
    },
    {
      "midi": 67,
      "hit": false,
      "t": 101190.16249999918,
      "d": 9.920604166662088,
      "v": 103
    },
    {
      "midi": 71,
      "hit": false,
      "t": 101190.16249999918,
      "d": 9.920604166662088,
      "v": 103
    },
    {
      "midi": 55,
      "hit": false,
      "t": 101190.1624999998,
      "d": 114.08694791667222,
      "v": 78
    },
    {
      "midi": 43,
      "hit": false,
      "t": 101190.16250000079,
      "d": 173.61057291667385,
      "v": 82
    },
    {
      "midi": 31,
      "hit": false,
      "t": 101190.16250000086,
      "d": 208.3326875000057,
      "v": 68
    },
    {
      "midi": 67,
      "hit": false,
      "t": 101309.20974999917,
      "d": 9.920604166662088,
      "v": 103
    },
    {
      "midi": 71,
      "hit": false,
      "t": 101309.20974999917,
      "d": 9.920604166662088,
      "v": 103
    },
    {
      "midi": 55,
      "hit": false,
      "t": 101309.2097499998,
      "d": 114.08694791667222,
      "v": 78
    },
    {
      "midi": 43,
      "hit": false,
      "t": 101428.25699999981,
      "d": 114.08694791667222,
      "v": 78
    },
    {
      "midi": 31,
      "hit": false,
      "t": 101428.2570000008,
      "d": 173.61057291667385,
      "v": 62
    },
    {
      "midi": 31,
      "hit": false,
      "t": 101428.25700000087,
      "d": 208.3326875000057,
      "v": 68
    },
    {
      "midi": 43,
      "hit": false,
      "t": 101547.30424999981,
      "d": 114.08694791667222,
      "v": 78
    },
    {
      "midi": 67,
      "hit": false,
      "t": 101666.35149999916,
      "d": 9.920604166662088,
      "v": 103
    },
    {
      "midi": 71,
      "hit": false,
      "t": 101666.35149999916,
      "d": 9.920604166662088,
      "v": 103
    },
    {
      "midi": 55,
      "hit": false,
      "t": 101666.35149999982,
      "d": 114.08694791667222,
      "v": 78
    },
    {
      "midi": 43,
      "hit": false,
      "t": 101666.3515000008,
      "d": 173.61057291667385,
      "v": 78
    },
    {
      "midi": 31,
      "hit": false,
      "t": 101666.35150000088,
      "d": 208.3326875000057,
      "v": 68
    },
    {
      "midi": 67,
      "hit": false,
      "t": 101785.39874999915,
      "d": 9.920604166662088,
      "v": 103
    },
    {
      "midi": 71,
      "hit": false,
      "t": 101785.39874999915,
      "d": 9.920604166662088,
      "v": 103
    },
    {
      "midi": 55,
      "hit": false,
      "t": 101785.39874999982,
      "d": 114.08694791667222,
      "v": 78
    },
    {
      "midi": 42,
      "hit": false,
      "t": 101904.44599999982,
      "d": 114.08694791667222,
      "v": 78
    },
    {
      "midi": 54,
      "hit": false,
      "t": 101904.4459999999,
      "d": 947.4176979166659,
      "v": 88
    },
    {
      "midi": 74,
      "hit": false,
      "t": 101904.44600000008,
      "d": 947.4176979166659,
      "v": 63
    },
    {
      "midi": 78,
      "hit": false,
      "t": 101904.44600000008,
      "d": 947.4176979166659,
      "v": 66
    },
    {
      "midi": 81,
      "hit": false,
      "t": 101904.44600000008,
      "d": 947.4176979166659,
      "v": 66
    },
    {
      "midi": 62,
      "hit": false,
      "t": 101904.44600000008,
      "d": 947.4176979166659,
      "v": 85
    },
    {
      "midi": 66,
      "hit": false,
      "t": 101904.44600000008,
      "d": 947.4176979166659,
      "v": 89
    },
    {
      "midi": 69,
      "hit": false,
      "t": 101904.44600000008,
      "d": 947.4176979166659,
      "v": 89
    },
    {
      "midi": 30,
      "hit": false,
      "t": 101904.44600000081,
      "d": 173.61057291667385,
      "v": 67
    },
    {
      "midi": 30,
      "hit": false,
      "t": 101904.44600000088,
      "d": 208.3326875000057,
      "v": 68
    },
    {
      "midi": 42,
      "hit": false,
      "t": 102023.49324999982,
      "d": 114.08694791667222,
      "v": 78
    },
    {
      "midi": 66,
      "hit": false,
      "t": 102142.54049999914,
      "d": 9.920604166662088,
      "v": 103
    },
    {
      "midi": 70,
      "hit": false,
      "t": 102142.54049999914,
      "d": 9.920604166662088,
      "v": 103
    },
    {
      "midi": 54,
      "hit": false,
      "t": 102142.54049999983,
      "d": 114.08694791667222,
      "v": 78
    },
    {
      "midi": 42,
      "hit": false,
      "t": 102142.54050000082,
      "d": 173.61057291667385,
      "v": 70
    },
    {
      "midi": 30,
      "hit": false,
      "t": 102142.54050000089,
      "d": 208.3326875000057,
      "v": 68
    },
    {
      "midi": 66,
      "hit": false,
      "t": 102261.58774999913,
      "d": 9.920604166662088,
      "v": 103
    },
    {
      "midi": 70,
      "hit": false,
      "t": 102261.58774999913,
      "d": 9.920604166662088,
      "v": 103
    },
    {
      "midi": 54,
      "hit": false,
      "t": 102261.58774999983,
      "d": 114.08694791667222,
      "v": 78
    },
    {
      "midi": 42,
      "hit": false,
      "t": 102380.63499999983,
      "d": 114.08694791667222,
      "v": 78
    },
    {
      "midi": 76,
      "hit": false,
      "t": 102380.63499999997,
      "d": 419.14552604166965,
      "v": 98
    },
    {
      "midi": 30,
      "hit": false,
      "t": 102380.63500000082,
      "d": 173.61057291667385,
      "v": 56
    },
    {
      "midi": 30,
      "hit": false,
      "t": 102380.6350000009,
      "d": 208.3326875000057,
      "v": 68
    },
    {
      "midi": 42,
      "hit": false,
      "t": 102499.68224999984,
      "d": 114.08694791667222,
      "v": 78
    },
    {
      "midi": 66,
      "hit": false,
      "t": 102618.72949999913,
      "d": 9.920604166662088,
      "v": 103
    },
    {
      "midi": 70,
      "hit": false,
      "t": 102618.72949999913,
      "d": 9.920604166662088,
      "v": 103
    },
    {
      "midi": 54,
      "hit": false,
      "t": 102618.72949999984,
      "d": 114.08694791667222,
      "v": 78
    },
    {
      "midi": 42,
      "hit": false,
      "t": 102618.72950000083,
      "d": 173.61057291667385,
      "v": 70
    },
    {
      "midi": 30,
      "hit": false,
      "t": 102618.7295000009,
      "d": 208.3326875000057,
      "v": 68
    },
    {
      "midi": 66,
      "hit": false,
      "t": 102737.77674999912,
      "d": 9.920604166662088,
      "v": 103
    },
    {
      "midi": 70,
      "hit": false,
      "t": 102737.77674999912,
      "d": 9.920604166662088,
      "v": 103
    },
    {
      "midi": 54,
      "hit": false,
      "t": 102737.77674999984,
      "d": 114.08694791667222,
      "v": 78
    },
    {
      "midi": 40,
      "hit": false,
      "t": 102856.82399999985,
      "d": 114.08694791667222,
      "v": 78
    },
    {
      "midi": 52,
      "hit": false,
      "t": 102856.82399999989,
      "d": 947.4176979166659,
      "v": 88
    },
    {
      "midi": 64,
      "hit": false,
      "t": 102856.82399999998,
      "d": 1765.8675416666665,
      "v": 68
    },
    {
      "midi": 67,
      "hit": false,
      "t": 102856.82399999998,
      "d": 1768.3476927083393,
      "v": 98
    },
    {
      "midi": 71,
      "hit": false,
      "t": 102856.82400000008,
      "d": 947.4176979166659,
      "v": 60
    },
    {
      "midi": 76,
      "hit": false,
      "t": 102856.82400000008,
      "d": 947.4176979166659,
      "v": 63
    },
    {
      "midi": 79,
      "hit": false,
      "t": 102856.82400000008,
      "d": 947.4176979166659,
      "v": 62
    },
    {
      "midi": 59,
      "hit": false,
      "t": 102856.82400000008,
      "d": 947.4176979166659,
      "v": 81
    },
    {
      "midi": 64,
      "hit": false,
      "t": 102856.82400000008,
      "d": 947.4176979166659,
      "v": 85
    },
    {
      "midi": 67,
      "hit": false,
      "t": 102856.82400000008,
      "d": 947.4176979166659,
      "v": 84
    },
    {
      "midi": 28,
      "hit": false,
      "t": 102856.82400000084,
      "d": 173.61057291667385,
      "v": 76
    },
    {
      "midi": 28,
      "hit": false,
      "t": 102856.82400000091,
      "d": 208.3326875000057,
      "v": 68
    },
    {
      "midi": 40,
      "hit": false,
      "t": 102975.87124999985,
      "d": 114.08694791667222,
      "v": 78
    },
    {
      "midi": 64,
      "hit": false,
      "t": 103094.91849999911,
      "d": 9.920604166662088,
      "v": 103
    },
    {
      "midi": 68,
      "hit": false,
      "t": 103094.91849999911,
      "d": 9.920604166662088,
      "v": 103
    },
    {
      "midi": 52,
      "hit": false,
      "t": 103094.91849999985,
      "d": 114.08694791667222,
      "v": 78
    },
    {
      "midi": 40,
      "hit": false,
      "t": 103094.91850000084,
      "d": 173.61057291667385,
      "v": 82
    },
    {
      "midi": 28,
      "hit": false,
      "t": 103094.91850000092,
      "d": 208.3326875000057,
      "v": 68
    },
    {
      "midi": 64,
      "hit": false,
      "t": 103213.9657499991,
      "d": 9.920604166662088,
      "v": 103
    },
    {
      "midi": 68,
      "hit": false,
      "t": 103213.9657499991,
      "d": 9.920604166662088,
      "v": 103
    },
    {
      "midi": 52,
      "hit": false,
      "t": 103213.96574999986,
      "d": 114.08694791667222,
      "v": 78
    },
    {
      "midi": 40,
      "hit": false,
      "t": 103333.01299999986,
      "d": 114.08694791667222,
      "v": 78
    },
    {
      "midi": 28,
      "hit": false,
      "t": 103333.01300000085,
      "d": 173.61057291667385,
      "v": 62
    },
    {
      "midi": 28,
      "hit": false,
      "t": 103333.01300000092,
      "d": 208.3326875000057,
      "v": 68
    },
    {
      "midi": 40,
      "hit": false,
      "t": 103452.06024999986,
      "d": 114.08694791667222,
      "v": 78
    },
    {
      "midi": 64,
      "hit": false,
      "t": 103571.1074999991,
      "d": 9.920604166662088,
      "v": 103
    },
    {
      "midi": 68,
      "hit": false,
      "t": 103571.1074999991,
      "d": 9.920604166662088,
      "v": 103
    },
    {
      "midi": 52,
      "hit": false,
      "t": 103571.10749999987,
      "d": 114.08694791667222,
      "v": 78
    },
    {
      "midi": 40,
      "hit": false,
      "t": 103571.10750000086,
      "d": 173.61057291667385,
      "v": 78
    },
    {
      "midi": 28,
      "hit": false,
      "t": 103571.10750000093,
      "d": 208.3326875000057,
      "v": 68
    },
    {
      "midi": 64,
      "hit": false,
      "t": 103690.15474999908,
      "d": 9.920604166662088,
      "v": 103
    },
    {
      "midi": 68,
      "hit": false,
      "t": 103690.15474999908,
      "d": 9.920604166662088,
      "v": 103
    },
    {
      "midi": 52,
      "hit": false,
      "t": 103690.15474999987,
      "d": 114.08694791667222,
      "v": 78
    },
    {
      "midi": 50,
      "hit": false,
      "t": 103809.20199999987,
      "d": 114.08694791667222,
      "v": 78
    },
    {
      "midi": 50,
      "hit": false,
      "t": 103809.20199999989,
      "d": 947.4176979166659,
      "v": 88
    },
    {
      "midi": 71,
      "hit": false,
      "t": 103809.20200000008,
      "d": 947.4176979166659,
      "v": 61
    },
    {
      "midi": 74,
      "hit": false,
      "t": 103809.20200000008,
      "d": 947.4176979166659,
      "v": 64
    },
    {
      "midi": 79,
      "hit": false,
      "t": 103809.20200000008,
      "d": 947.4176979166659,
      "v": 58
    },
    {
      "midi": 59,
      "hit": false,
      "t": 103809.20200000008,
      "d": 947.4176979166659,
      "v": 82
    },
    {
      "midi": 62,
      "hit": false,
      "t": 103809.20200000008,
      "d": 947.4176979166659,
      "v": 86
    },
    {
      "midi": 67,
      "hit": false,
      "t": 103809.20200000008,
      "d": 947.4176979166659,
      "v": 79
    },
    {
      "midi": 38,
      "hit": false,
      "t": 103809.20200000086,
      "d": 173.61057291667385,
      "v": 67
    },
    {
      "midi": 38,
      "hit": false,
      "t": 103809.20200000094,
      "d": 208.3326875000057,
      "v": 68
    },
    {
      "midi": 50,
      "hit": false,
      "t": 103928.24924999988,
      "d": 114.08694791667222,
      "v": 78
    },
    {
      "midi": 74,
      "hit": false,
      "t": 104047.29649999908,
      "d": 9.920604166662088,
      "v": 103
    },
    {
      "midi": 78,
      "hit": false,
      "t": 104047.29649999908,
      "d": 9.920604166662088,
      "v": 103
    },
    {
      "midi": 62,
      "hit": false,
      "t": 104047.29649999988,
      "d": 114.08694791667222,
      "v": 78
    },
    {
      "midi": 50,
      "hit": false,
      "t": 104047.29650000087,
      "d": 173.61057291667385,
      "v": 70
    },
    {
      "midi": 38,
      "hit": false,
      "t": 104047.29650000094,
      "d": 208.3326875000057,
      "v": 68
    },
    {
      "midi": 74,
      "hit": false,
      "t": 104166.34374999907,
      "d": 9.920604166662088,
      "v": 103
    },
    {
      "midi": 78,
      "hit": false,
      "t": 104166.34374999907,
      "d": 9.920604166662088,
      "v": 103
    },
    {
      "midi": 62,
      "hit": false,
      "t": 104166.34374999988,
      "d": 114.08694791667222,
      "v": 78
    },
    {
      "midi": 50,
      "hit": false,
      "t": 104285.39099999989,
      "d": 114.08694791667222,
      "v": 78
    },
    {
      "midi": 38,
      "hit": false,
      "t": 104285.39100000088,
      "d": 173.61057291667385,
      "v": 56
    },
    {
      "midi": 38,
      "hit": false,
      "t": 104285.39100000095,
      "d": 208.3326875000057,
      "v": 68
    },
    {
      "midi": 50,
      "hit": false,
      "t": 104404.43824999989,
      "d": 114.08694791667222,
      "v": 78
    },
    {
      "midi": 74,
      "hit": false,
      "t": 104523.48549999906,
      "d": 9.920604166662088,
      "v": 103
    },
    {
      "midi": 78,
      "hit": false,
      "t": 104523.48549999906,
      "d": 9.920604166662088,
      "v": 103
    },
    {
      "midi": 62,
      "hit": false,
      "t": 104523.4854999999,
      "d": 114.08694791667222,
      "v": 78
    },
    {
      "midi": 50,
      "hit": false,
      "t": 104523.48550000088,
      "d": 173.61057291667385,
      "v": 70
    },
    {
      "midi": 38,
      "hit": false,
      "t": 104523.48550000096,
      "d": 208.3326875000057,
      "v": 68
    },
    {
      "midi": 74,
      "hit": false,
      "t": 104642.53274999905,
      "d": 9.920604166662088,
      "v": 103
    },
    {
      "midi": 78,
      "hit": false,
      "t": 104642.53274999905,
      "d": 9.920604166662088,
      "v": 103
    },
    {
      "midi": 62,
      "hit": false,
      "t": 104642.5327499999,
      "d": 114.08694791667222,
      "v": 78
    },
    {
      "midi": 60,
      "hit": false,
      "t": 104761.57999999989,
      "d": 947.4176979166659,
      "v": 88
    },
    {
      "midi": 48,
      "hit": false,
      "t": 104761.5799999999,
      "d": 114.08694791667222,
      "v": 78
    },
    {
      "midi": 72,
      "hit": false,
      "t": 104761.57999999999,
      "d": 379.4631093749922,
      "v": 98
    },
    {
      "midi": 67,
      "hit": false,
      "t": 104761.57999999999,
      "d": 498.51035937499546,
      "v": 68
    },
    {
      "midi": 64,
      "hit": false,
      "t": 104761.57999999999,
      "d": 873.0131666666712,
      "v": 68
    },
    {
      "midi": 67,
      "hit": false,
      "t": 104761.58000000007,
      "d": 947.4176979166659,
      "v": 55
    },
    {
      "midi": 72,
      "hit": false,
      "t": 104761.58000000007,
      "d": 947.4176979166659,
      "v": 60
    },
    {
      "midi": 76,
      "hit": false,
      "t": 104761.58000000007,
      "d": 947.4176979166659,
      "v": 62
    },
    {
      "midi": 55,
      "hit": false,
      "t": 104761.58000000007,
      "d": 947.4176979166659,
      "v": 75
    },
    {
      "midi": 60,
      "hit": false,
      "t": 104761.58000000007,
      "d": 947.4176979166659,
      "v": 81
    },
    {
      "midi": 64,
      "hit": false,
      "t": 104761.58000000007,
      "d": 947.4176979166659,
      "v": 84
    },
    {
      "midi": 36,
      "hit": false,
      "t": 104761.58000000089,
      "d": 173.61057291667385,
      "v": 76
    },
    {
      "midi": 36,
      "hit": false,
      "t": 104761.58000000096,
      "d": 208.3326875000057,
      "v": 68
    },
    {
      "midi": 48,
      "hit": false,
      "t": 104880.6272499999,
      "d": 114.08694791667222,
      "v": 78
    },
    {
      "midi": 72,
      "hit": false,
      "t": 104999.67449999905,
      "d": 9.920604166662088,
      "v": 103
    },
    {
      "midi": 76,
      "hit": false,
      "t": 104999.67449999905,
      "d": 9.920604166662088,
      "v": 103
    },
    {
      "midi": 60,
      "hit": false,
      "t": 104999.6744999999,
      "d": 114.08694791667222,
      "v": 78
    },
    {
      "midi": 48,
      "hit": false,
      "t": 104999.6745000009,
      "d": 173.61057291667385,
      "v": 82
    },
    {
      "midi": 36,
      "hit": false,
      "t": 104999.67450000097,
      "d": 208.3326875000057,
      "v": 68
    },
    {
      "midi": 72,
      "hit": false,
      "t": 105118.72174999904,
      "d": 9.920604166662088,
      "v": 103
    },
    {
      "midi": 76,
      "hit": false,
      "t": 105118.72174999904,
      "d": 9.920604166662088,
      "v": 103
    },
    {
      "midi": 60,
      "hit": false,
      "t": 105118.72174999991,
      "d": 114.08694791667222,
      "v": 78
    },
    {
      "midi": 71,
      "hit": false,
      "t": 105118.72174999998,
      "d": 166.17011979167,
      "v": 98
    },
    {
      "midi": 48,
      "hit": false,
      "t": 105237.76899999991,
      "d": 114.08694791667222,
      "v": 78
    },
    {
      "midi": 69,
      "hit": false,
      "t": 105237.76899999999,
      "d": 248.0151041666686,
      "v": 98
    },
    {
      "midi": 36,
      "hit": false,
      "t": 105237.7690000009,
      "d": 173.61057291667385,
      "v": 62
    },
    {
      "midi": 36,
      "hit": false,
      "t": 105237.76900000098,
      "d": 208.3326875000057,
      "v": 68
    },
    {
      "midi": 48,
      "hit": false,
      "t": 105356.81624999992,
      "d": 114.08694791667222,
      "v": 78
    },
    {
      "midi": 72,
      "hit": false,
      "t": 105475.86349999903,
      "d": 9.920604166662088,
      "v": 103
    },
    {
      "midi": 76,
      "hit": false,
      "t": 105475.86349999903,
      "d": 9.920604166662088,
      "v": 103
    },
    {
      "midi": 60,
      "hit": false,
      "t": 105475.86349999992,
      "d": 114.08694791667222,
      "v": 78
    },
    {
      "midi": 67,
      "hit": false,
      "t": 105475.86349999999,
      "d": 272.8166145833384,
      "v": 98
    },
    {
      "midi": 48,
      "hit": false,
      "t": 105475.86350000091,
      "d": 173.61057291667385,
      "v": 78
    },
    {
      "midi": 36,
      "hit": false,
      "t": 105475.86350000098,
      "d": 208.3326875000057,
      "v": 68
    },
    {
      "midi": 72,
      "hit": false,
      "t": 105594.91074999902,
      "d": 9.920604166662088,
      "v": 103
    },
    {
      "midi": 76,
      "hit": false,
      "t": 105594.91074999902,
      "d": 9.920604166662088,
      "v": 103
    },
    {
      "midi": 60,
      "hit": false,
      "t": 105594.91074999992,
      "d": 114.08694791667222,
      "v": 78
    },
    {
      "midi": 59,
      "hit": false,
      "t": 105713.95799999988,
      "d": 947.4176979166659,
      "v": 88
    },
    {
      "midi": 47,
      "hit": false,
      "t": 105713.95799999993,
      "d": 114.08694791667222,
      "v": 78
    },
    {
      "midi": 69,
      "hit": false,
      "t": 105713.958,
      "d": 379.4631093749922,
      "v": 68
    },
    {
      "midi": 72,
      "hit": false,
      "t": 105713.958,
      "d": 384.42341145832324,
      "v": 98
    },
    {
      "midi": 64,
      "hit": false,
      "t": 105713.958,
      "d": 927.5764895833127,
      "v": 68
    },
    {
      "midi": 71,
      "hit": false,
      "t": 105713.95800000007,
      "d": 947.4176979166659,
      "v": 52
    },
    {
      "midi": 74,
      "hit": false,
      "t": 105713.95800000007,
      "d": 947.4176979166659,
      "v": 65
    },
    {
      "midi": 79,
      "hit": false,
      "t": 105713.95800000007,
      "d": 947.4176979166659,
      "v": 55
    },
    {
      "midi": 59,
      "hit": false,
      "t": 105713.95800000007,
      "d": 947.4176979166659,
      "v": 71
    },
    {
      "midi": 62,
      "hit": false,
      "t": 105713.95800000007,
      "d": 947.4176979166659,
      "v": 88
    },
    {
      "midi": 67,
      "hit": false,
      "t": 105713.95800000007,
      "d": 947.4176979166659,
      "v": 75
    },
    {
      "midi": 35,
      "hit": false,
      "t": 105713.95800000092,
      "d": 173.61057291667385,
      "v": 67
    },
    {
      "midi": 35,
      "hit": false,
      "t": 105713.95800000099,
      "d": 208.3326875000057,
      "v": 68
    },
    {
      "midi": 47,
      "hit": false,
      "t": 105833.00524999993,
      "d": 114.08694791667222,
      "v": 78
    },
    {
      "midi": 71,
      "hit": false,
      "t": 105952.05249999902,
      "d": 9.920604166662088,
      "v": 103
    },
    {
      "midi": 75,
      "hit": false,
      "t": 105952.05249999902,
      "d": 9.920604166662088,
      "v": 103
    },
    {
      "midi": 59,
      "hit": false,
      "t": 105952.05249999993,
      "d": 114.08694791667222,
      "v": 78
    },
    {
      "midi": 47,
      "hit": false,
      "t": 105952.05250000092,
      "d": 173.61057291667385,
      "v": 70
    },
    {
      "midi": 35,
      "hit": false,
      "t": 105952.052500001,
      "d": 208.3326875000057,
      "v": 68
    },
    {
      "midi": 71,
      "hit": false,
      "t": 106071.099749999,
      "d": 9.920604166662088,
      "v": 103
    },
    {
      "midi": 75,
      "hit": false,
      "t": 106071.099749999,
      "d": 9.920604166662088,
      "v": 103
    },
    {
      "midi": 59,
      "hit": false,
      "t": 106071.09974999994,
      "d": 114.08694791667222,
      "v": 78
    },
    {
      "midi": 71,
      "hit": false,
      "t": 106071.09975,
      "d": 146.32891145831672,
      "v": 98
    },
    {
      "midi": 47,
      "hit": false,
      "t": 106190.14699999994,
      "d": 114.08694791667222,
      "v": 78
    },
    {
      "midi": 69,
      "hit": false,
      "t": 106190.14699999998,
      "d": 245.5349531249958,
      "v": 98
    },
    {
      "midi": 35,
      "hit": false,
      "t": 106190.14700000093,
      "d": 173.61057291667385,
      "v": 56
    },
    {
      "midi": 35,
      "hit": false,
      "t": 106190.147000001,
      "d": 208.3326875000057,
      "v": 68
    },
    {
      "midi": 47,
      "hit": false,
      "t": 106309.19424999994,
      "d": 114.08694791667222,
      "v": 78
    },
    {
      "midi": 71,
      "hit": false,
      "t": 106428.241499999,
      "d": 9.920604166662088,
      "v": 103
    },
    {
      "midi": 75,
      "hit": false,
      "t": 106428.241499999,
      "d": 9.920604166662088,
      "v": 103
    },
    {
      "midi": 59,
      "hit": false,
      "t": 106428.24149999995,
      "d": 114.08694791667222,
      "v": 78
    },
    {
      "midi": 67,
      "hit": false,
      "t": 106428.24149999997,
      "d": 200.89223437500186,
      "v": 98
    },
    {
      "midi": 47,
      "hit": false,
      "t": 106428.24150000094,
      "d": 173.61057291667385,
      "v": 70
    },
    {
      "midi": 35,
      "hit": false,
      "t": 106428.24150000101,
      "d": 208.3326875000057,
      "v": 68
    },
    {
      "midi": 71,
      "hit": false,
      "t": 106547.28874999899,
      "d": 9.920604166662088,
      "v": 103
    },
    {
      "midi": 75,
      "hit": false,
      "t": 106547.28874999899,
      "d": 9.920604166662088,
      "v": 103
    },
    {
      "midi": 59,
      "hit": false,
      "t": 106547.28874999995,
      "d": 114.08694791667222,
      "v": 78
    },
    {
      "midi": 57,
      "hit": false,
      "t": 106666.33599999988,
      "d": 947.4176979166659,
      "v": 88
    },
    {
      "midi": 45,
      "hit": false,
      "t": 106666.33599999995,
      "d": 114.08694791667222,
      "v": 78
    },
    {
      "midi": 64,
      "hit": false,
      "t": 106666.33599999998,
      "d": 947.4176979166659,
      "v": 68
    },
    {
      "midi": 69,
      "hit": false,
      "t": 106666.33599999998,
      "d": 1450.8883593749924,
      "v": 98
    },
    {
      "midi": 72,
      "hit": false,
      "t": 106666.33600000007,
      "d": 947.4176979166659,
      "v": 62
    },
    {
      "midi": 76,
      "hit": false,
      "t": 106666.33600000007,
      "d": 947.4176979166659,
      "v": 62
    },
    {
      "midi": 81,
      "hit": false,
      "t": 106666.33600000007,
      "d": 947.4176979166659,
      "v": 64
    },
    {
      "midi": 60,
      "hit": false,
      "t": 106666.33600000007,
      "d": 947.4176979166659,
      "v": 84
    },
    {
      "midi": 64,
      "hit": false,
      "t": 106666.33600000007,
      "d": 947.4176979166659,
      "v": 84
    },
    {
      "midi": 69,
      "hit": false,
      "t": 106666.33600000007,
      "d": 947.4176979166659,
      "v": 86
    },
    {
      "midi": 33,
      "hit": false,
      "t": 106666.33600000094,
      "d": 173.61057291667385,
      "v": 76
    },
    {
      "midi": 33,
      "hit": false,
      "t": 106666.33600000101,
      "d": 208.3326875000057,
      "v": 68
    },
    {
      "midi": 45,
      "hit": false,
      "t": 106785.38324999996,
      "d": 114.08694791667222,
      "v": 78
    },
    {
      "midi": 69,
      "hit": false,
      "t": 106904.43049999898,
      "d": 9.920604166662088,
      "v": 103
    },
    {
      "midi": 73,
      "hit": false,
      "t": 106904.43049999898,
      "d": 9.920604166662088,
      "v": 103
    },
    {
      "midi": 57,
      "hit": false,
      "t": 106904.43049999996,
      "d": 114.08694791667222,
      "v": 78
    },
    {
      "midi": 45,
      "hit": false,
      "t": 106904.43050000095,
      "d": 173.61057291667385,
      "v": 82
    },
    {
      "midi": 33,
      "hit": false,
      "t": 106904.43050000102,
      "d": 208.3326875000057,
      "v": 68
    },
    {
      "midi": 69,
      "hit": false,
      "t": 107023.47774999897,
      "d": 9.920604166662088,
      "v": 103
    },
    {
      "midi": 73,
      "hit": false,
      "t": 107023.47774999897,
      "d": 9.920604166662088,
      "v": 103
    },
    {
      "midi": 57,
      "hit": false,
      "t": 107023.47774999996,
      "d": 114.08694791667222,
      "v": 78
    },
    {
      "midi": 45,
      "hit": false,
      "t": 107142.52499999997,
      "d": 114.08694791667222,
      "v": 78
    },
    {
      "midi": 33,
      "hit": false,
      "t": 107142.52500000095,
      "d": 173.61057291667385,
      "v": 62
    },
    {
      "midi": 33,
      "hit": false,
      "t": 107142.52500000103,
      "d": 208.3326875000057,
      "v": 68
    },
    {
      "midi": 45,
      "hit": false,
      "t": 107261.57224999997,
      "d": 114.08694791667222,
      "v": 78
    },
    {
      "midi": 69,
      "hit": false,
      "t": 107380.61949999897,
      "d": 9.920604166662088,
      "v": 103
    },
    {
      "midi": 73,
      "hit": false,
      "t": 107380.61949999897,
      "d": 9.920604166662088,
      "v": 103
    },
    {
      "midi": 57,
      "hit": false,
      "t": 107380.61949999997,
      "d": 114.08694791667222,
      "v": 78
    },
    {
      "midi": 45,
      "hit": false,
      "t": 107380.61950000096,
      "d": 173.61057291667385,
      "v": 78
    },
    {
      "midi": 33,
      "hit": false,
      "t": 107380.61950000103,
      "d": 208.3326875000057,
      "v": 68
    },
    {
      "midi": 69,
      "hit": false,
      "t": 107499.66674999896,
      "d": 9.920604166662088,
      "v": 103
    },
    {
      "midi": 73,
      "hit": false,
      "t": 107499.66674999896,
      "d": 9.920604166662088,
      "v": 103
    },
    {
      "midi": 57,
      "hit": false,
      "t": 107499.66674999997,
      "d": 114.08694791667222,
      "v": 78
    },
    {
      "midi": 62,
      "hit": false,
      "t": 107618.71399999988,
      "d": 947.4176979166659,
      "v": 88
    },
    {
      "midi": 50,
      "hit": false,
      "t": 107618.71399999998,
      "d": 114.08694791667222,
      "v": 78
    },
    {
      "midi": 62,
      "hit": false,
      "t": 107618.71399999998,
      "d": 947.4176979166659,
      "v": 68
    },
    {
      "midi": 66,
      "hit": false,
      "t": 107618.71399999998,
      "d": 947.4176979166659,
      "v": 68
    },
    {
      "midi": 74,
      "hit": false,
      "t": 107618.71400000007,
      "d": 947.4176979166659,
      "v": 64
    },
    {
      "midi": 78,
      "hit": false,
      "t": 107618.71400000007,
      "d": 947.4176979166659,
      "v": 54
    },
    {
      "midi": 81,
      "hit": false,
      "t": 107618.71400000007,
      "d": 947.4176979166659,
      "v": 62
    },
    {
      "midi": 62,
      "hit": false,
      "t": 107618.71400000007,
      "d": 947.4176979166659,
      "v": 86
    },
    {
      "midi": 66,
      "hit": false,
      "t": 107618.71400000007,
      "d": 947.4176979166659,
      "v": 73
    },
    {
      "midi": 69,
      "hit": false,
      "t": 107618.71400000007,
      "d": 947.4176979166659,
      "v": 84
    },
    {
      "midi": 38,
      "hit": false,
      "t": 107618.71400000097,
      "d": 173.61057291667385,
      "v": 67
    },
    {
      "midi": 38,
      "hit": false,
      "t": 107618.71400000104,
      "d": 208.3326875000057,
      "v": 68
    },
    {
      "midi": 50,
      "hit": false,
      "t": 107737.76124999998,
      "d": 114.08694791667222,
      "v": 78
    },
    {
      "midi": 74,
      "hit": false,
      "t": 107856.80849999895,
      "d": 9.920604166662088,
      "v": 103
    },
    {
      "midi": 78,
      "hit": false,
      "t": 107856.80849999895,
      "d": 9.920604166662088,
      "v": 103
    },
    {
      "midi": 62,
      "hit": false,
      "t": 107856.80849999998,
      "d": 114.08694791667222,
      "v": 78
    },
    {
      "midi": 50,
      "hit": false,
      "t": 107856.80850000097,
      "d": 173.61057291667385,
      "v": 70
    },
    {
      "midi": 38,
      "hit": false,
      "t": 107856.80850000105,
      "d": 208.3326875000057,
      "v": 68
    },
    {
      "midi": 74,
      "hit": false,
      "t": 107975.85574999894,
      "d": 9.920604166662088,
      "v": 103
    },
    {
      "midi": 78,
      "hit": false,
      "t": 107975.85574999894,
      "d": 9.920604166662088,
      "v": 103
    },
    {
      "midi": 62,
      "hit": false,
      "t": 107975.85574999999,
      "d": 114.08694791667222,
      "v": 78
    },
    {
      "midi": 50,
      "hit": false,
      "t": 108094.90299999999,
      "d": 114.08694791667222,
      "v": 78
    },
    {
      "midi": 38,
      "hit": false,
      "t": 108094.90300000098,
      "d": 173.61057291667385,
      "v": 56
    },
    {
      "midi": 38,
      "hit": false,
      "t": 108094.90300000105,
      "d": 208.3326875000057,
      "v": 68
    },
    {
      "midi": 50,
      "hit": false,
      "t": 108213.95025,
      "d": 114.08694791667222,
      "v": 78
    },
    {
      "midi": 74,
      "hit": false,
      "t": 108332.99749999894,
      "d": 9.920604166662088,
      "v": 103
    },
    {
      "midi": 78,
      "hit": false,
      "t": 108332.99749999894,
      "d": 9.920604166662088,
      "v": 103
    },
    {
      "midi": 62,
      "hit": false,
      "t": 108332.9975,
      "d": 114.08694791667222,
      "v": 78
    },
    {
      "midi": 50,
      "hit": false,
      "t": 108332.99750000099,
      "d": 173.61057291667385,
      "v": 70
    },
    {
      "midi": 38,
      "hit": false,
      "t": 108332.99750000106,
      "d": 208.3326875000057,
      "v": 68
    },
    {
      "midi": 74,
      "hit": false,
      "t": 108452.04474999892,
      "d": 9.920604166662088,
      "v": 103
    },
    {
      "midi": 78,
      "hit": false,
      "t": 108452.04474999892,
      "d": 9.920604166662088,
      "v": 103
    },
    {
      "midi": 62,
      "hit": false,
      "t": 108452.04475,
      "d": 114.08694791667222,
      "v": 78
    },
    {
      "midi": 62,
      "hit": false,
      "t": 108571.09199999987,
      "d": 1899.795697916663,
      "v": 58
    },
    {
      "midi": 67,
      "hit": false,
      "t": 108571.09199999987,
      "d": 1899.795697916663,
      "v": 58
    },
    {
      "midi": 71,
      "hit": false,
      "t": 108571.09199999987,
      "d": 1899.795697916663,
      "v": 58
    },
    {
      "midi": 83,
      "hit": false,
      "t": 108571.09199999989,
      "d": 2.480151041672798,
      "v": 84
    },
    {
      "midi": 83,
      "hit": false,
      "t": 108571.09199999989,
      "d": 2.480151041672798,
      "v": 110
    },
    {
      "midi": 74,
      "hit": false,
      "t": 108571.09199999998,
      "d": 272.8166145833384,
      "v": 64
    },
    {
      "midi": 79,
      "hit": false,
      "t": 108571.09199999998,
      "d": 272.8166145833384,
      "v": 72
    },
    {
      "midi": 83,
      "hit": false,
      "t": 108571.09199999998,
      "d": 272.8166145833384,
      "v": 72
    },
    {
      "midi": 43,
      "hit": false,
      "t": 108571.092,
      "d": 114.08694791667222,
      "v": 78
    },
    {
      "midi": 74,
      "hit": false,
      "t": 108571.09200000006,
      "d": 272.8166145833384,
      "v": 90
    },
    {
      "midi": 79,
      "hit": false,
      "t": 108571.09200000006,
      "d": 272.8166145833384,
      "v": 100
    },
    {
      "midi": 83,
      "hit": false,
      "t": 108571.09200000006,
      "d": 272.8166145833384,
      "v": 100
    },
    {
      "midi": 62,
      "hit": false,
      "t": 108571.09200000006,
      "d": 272.8166145833384,
      "v": 90
    },
    {
      "midi": 67,
      "hit": false,
      "t": 108571.09200000006,
      "d": 272.8166145833384,
      "v": 100
    },
    {
      "midi": 71,
      "hit": false,
      "t": 108571.09200000006,
      "d": 272.8166145833384,
      "v": 100
    },
    {
      "midi": 31,
      "hit": false,
      "t": 108571.092000001,
      "d": 173.61057291667385,
      "v": 76
    },
    {
      "midi": 31,
      "hit": false,
      "t": 108571.09200000107,
      "d": 208.3326875000057,
      "v": 68
    },
    {
      "midi": 83,
      "hit": false,
      "t": 108690.13924999989,
      "d": 2.480151041672798,
      "v": 91
    },
    {
      "midi": 83,
      "hit": false,
      "t": 108690.13924999989,
      "d": 2.480151041672798,
      "v": 110
    },
    {
      "midi": 43,
      "hit": false,
      "t": 108690.13925000001,
      "d": 114.08694791667222,
      "v": 78
    },
    {
      "midi": 67,
      "hit": false,
      "t": 108809.18649999892,
      "d": 9.920604166662088,
      "v": 103
    },
    {
      "midi": 71,
      "hit": false,
      "t": 108809.18649999892,
      "d": 9.920604166662088,
      "v": 103
    },
    {
      "midi": 83,
      "hit": false,
      "t": 108809.1864999999,
      "d": 2.480151041672798,
      "v": 88
    },
    {
      "midi": 83,
      "hit": false,
      "t": 108809.1864999999,
      "d": 2.480151041672798,
      "v": 110
    },
    {
      "midi": 55,
      "hit": false,
      "t": 108809.18650000001,
      "d": 114.08694791667222,
      "v": 78
    },
    {
      "midi": 43,
      "hit": false,
      "t": 108809.186500001,
      "d": 173.61057291667385,
      "v": 82
    },
    {
      "midi": 31,
      "hit": false,
      "t": 108809.18650000107,
      "d": 208.3326875000057,
      "v": 68
    },
    {
      "midi": 67,
      "hit": false,
      "t": 108928.23374999891,
      "d": 9.920604166662088,
      "v": 103
    },
    {
      "midi": 71,
      "hit": false,
      "t": 108928.23374999891,
      "d": 9.920604166662088,
      "v": 103
    },
    {
      "midi": 83,
      "hit": false,
      "t": 108928.2337499999,
      "d": 2.480151041672798,
      "v": 91
    },
    {
      "midi": 83,
      "hit": false,
      "t": 108928.2337499999,
      "d": 2.480151041672798,
      "v": 110
    },
    {
      "midi": 55,
      "hit": false,
      "t": 108928.23375000001,
      "d": 114.08694791667222,
      "v": 78
    },
    {
      "midi": 83,
      "hit": false,
      "t": 109047.2809999999,
      "d": 2.480151041672798,
      "v": 87
    },
    {
      "midi": 83,
      "hit": false,
      "t": 109047.2809999999,
      "d": 2.480151041672798,
      "v": 110
    },
    {
      "midi": 43,
      "hit": false,
      "t": 109047.28100000002,
      "d": 114.08694791667222,
      "v": 78
    },
    {
      "midi": 31,
      "hit": false,
      "t": 109047.281000001,
      "d": 173.61057291667385,
      "v": 62
    },
    {
      "midi": 31,
      "hit": false,
      "t": 109047.28100000108,
      "d": 208.3326875000057,
      "v": 68
    },
    {
      "midi": 83,
      "hit": false,
      "t": 109166.3282499999,
      "d": 2.480151041672798,
      "v": 87
    },
    {
      "midi": 83,
      "hit": false,
      "t": 109166.3282499999,
      "d": 2.480151041672798,
      "v": 110
    },
    {
      "midi": 43,
      "hit": false,
      "t": 109166.32825000002,
      "d": 114.08694791667222,
      "v": 78
    },
    {
      "midi": 67,
      "hit": false,
      "t": 109285.3754999989,
      "d": 9.920604166662088,
      "v": 103
    },
    {
      "midi": 71,
      "hit": false,
      "t": 109285.3754999989,
      "d": 9.920604166662088,
      "v": 103
    },
    {
      "midi": 83,
      "hit": false,
      "t": 109285.37549999991,
      "d": 2.480151041672798,
      "v": 89
    },
    {
      "midi": 83,
      "hit": false,
      "t": 109285.37549999991,
      "d": 2.480151041672798,
      "v": 110
    },
    {
      "midi": 55,
      "hit": false,
      "t": 109285.37550000002,
      "d": 114.08694791667222,
      "v": 78
    },
    {
      "midi": 43,
      "hit": false,
      "t": 109285.37550000101,
      "d": 173.61057291667385,
      "v": 78
    },
    {
      "midi": 31,
      "hit": false,
      "t": 109285.37550000109,
      "d": 208.3326875000057,
      "v": 68
    },
    {
      "midi": 67,
      "hit": false,
      "t": 109404.42274999889,
      "d": 9.920604166662088,
      "v": 103
    },
    {
      "midi": 71,
      "hit": false,
      "t": 109404.42274999889,
      "d": 9.920604166662088,
      "v": 103
    },
    {
      "midi": 83,
      "hit": false,
      "t": 109404.42274999991,
      "d": 2.480151041672798,
      "v": 91
    },
    {
      "midi": 83,
      "hit": false,
      "t": 109404.42274999991,
      "d": 2.480151041672798,
      "v": 110
    },
    {
      "midi": 55,
      "hit": false,
      "t": 109404.42275000003,
      "d": 114.08694791667222,
      "v": 78
    },
    {
      "midi": 83,
      "hit": false,
      "t": 109523.46999999991,
      "d": 2.480151041672798,
      "v": 91
    },
    {
      "midi": 83,
      "hit": false,
      "t": 109523.46999999991,
      "d": 2.480151041672798,
      "v": 110
    },
    {
      "midi": 83,
      "hit": false,
      "t": 109523.47,
      "d": 12375.953697916673,
      "v": 98
    },
    {
      "midi": 83,
      "hit": false,
      "t": 109523.47,
      "d": 12375.953697916673,
      "v": 98
    },
    {
      "midi": 43,
      "hit": false,
      "t": 109523.47000000003,
      "d": 114.08694791667222,
      "v": 78
    },
    {
      "midi": 31,
      "hit": false,
      "t": 109523.47000000102,
      "d": 173.61057291667385,
      "v": 67
    },
    {
      "midi": 31,
      "hit": false,
      "t": 109523.47000000109,
      "d": 208.3326875000057,
      "v": 68
    },
    {
      "midi": 83,
      "hit": false,
      "t": 109642.51724999992,
      "d": 2.480151041672798,
      "v": 92
    },
    {
      "midi": 83,
      "hit": false,
      "t": 109642.51724999992,
      "d": 2.480151041672798,
      "v": 110
    },
    {
      "midi": 43,
      "hit": false,
      "t": 109642.51725000003,
      "d": 114.08694791667222,
      "v": 78
    },
    {
      "midi": 67,
      "hit": false,
      "t": 109761.56449999889,
      "d": 9.920604166662088,
      "v": 103
    },
    {
      "midi": 71,
      "hit": false,
      "t": 109761.56449999889,
      "d": 9.920604166662088,
      "v": 103
    },
    {
      "midi": 83,
      "hit": false,
      "t": 109761.56449999992,
      "d": 2.480151041672798,
      "v": 96
    },
    {
      "midi": 83,
      "hit": false,
      "t": 109761.56449999992,
      "d": 2.480151041672798,
      "v": 110
    },
    {
      "midi": 55,
      "hit": false,
      "t": 109761.56450000004,
      "d": 114.08694791667222,
      "v": 78
    },
    {
      "midi": 43,
      "hit": false,
      "t": 109761.56450000103,
      "d": 173.61057291667385,
      "v": 70
    },
    {
      "midi": 31,
      "hit": false,
      "t": 109761.5645000011,
      "d": 208.3326875000057,
      "v": 68
    },
    {
      "midi": 67,
      "hit": false,
      "t": 109880.61174999888,
      "d": 9.920604166662088,
      "v": 103
    },
    {
      "midi": 71,
      "hit": false,
      "t": 109880.61174999888,
      "d": 9.920604166662088,
      "v": 103
    },
    {
      "midi": 83,
      "hit": false,
      "t": 109880.61174999992,
      "d": 2.480151041672798,
      "v": 92
    },
    {
      "midi": 83,
      "hit": false,
      "t": 109880.61174999992,
      "d": 2.480151041672798,
      "v": 110
    },
    {
      "midi": 55,
      "hit": false,
      "t": 109880.61175000004,
      "d": 114.08694791667222,
      "v": 78
    },
    {
      "midi": 83,
      "hit": false,
      "t": 109999.65899999993,
      "d": 2.480151041672798,
      "v": 96
    },
    {
      "midi": 83,
      "hit": false,
      "t": 109999.65899999993,
      "d": 2.480151041672798,
      "v": 110
    },
    {
      "midi": 43,
      "hit": false,
      "t": 109999.65900000004,
      "d": 114.08694791667222,
      "v": 78
    },
    {
      "midi": 31,
      "hit": false,
      "t": 109999.65900000103,
      "d": 173.61057291667385,
      "v": 56
    },
    {
      "midi": 31,
      "hit": false,
      "t": 109999.6590000011,
      "d": 208.3326875000057,
      "v": 68
    },
    {
      "midi": 83,
      "hit": false,
      "t": 110118.70624999993,
      "d": 2.480151041672798,
      "v": 96
    },
    {
      "midi": 83,
      "hit": false,
      "t": 110118.70624999993,
      "d": 2.480151041672798,
      "v": 110
    },
    {
      "midi": 43,
      "hit": false,
      "t": 110118.70625000005,
      "d": 114.08694791667222,
      "v": 78
    },
    {
      "midi": 67,
      "hit": false,
      "t": 110237.75349999887,
      "d": 9.920604166662088,
      "v": 103
    },
    {
      "midi": 71,
      "hit": false,
      "t": 110237.75349999887,
      "d": 9.920604166662088,
      "v": 103
    },
    {
      "midi": 83,
      "hit": false,
      "t": 110237.75349999993,
      "d": 2.480151041672798,
      "v": 98
    },
    {
      "midi": 83,
      "hit": false,
      "t": 110237.75349999993,
      "d": 2.480151041672798,
      "v": 110
    },
    {
      "midi": 55,
      "hit": false,
      "t": 110237.75350000005,
      "d": 114.08694791667222,
      "v": 78
    },
    {
      "midi": 43,
      "hit": false,
      "t": 110237.75350000104,
      "d": 173.61057291667385,
      "v": 70
    },
    {
      "midi": 31,
      "hit": false,
      "t": 110237.75350000111,
      "d": 208.3326875000057,
      "v": 68
    },
    {
      "midi": 67,
      "hit": false,
      "t": 110356.80074999886,
      "d": 9.920604166662088,
      "v": 103
    },
    {
      "midi": 71,
      "hit": false,
      "t": 110356.80074999886,
      "d": 9.920604166662088,
      "v": 103
    },
    {
      "midi": 83,
      "hit": false,
      "t": 110356.80074999994,
      "d": 2.480151041672798,
      "v": 101
    },
    {
      "midi": 83,
      "hit": false,
      "t": 110356.80074999994,
      "d": 2.480151041672798,
      "v": 110
    },
    {
      "midi": 55,
      "hit": false,
      "t": 110356.80075000005,
      "d": 114.08694791667222,
      "v": 78
    },
    {
      "midi": 62,
      "hit": false,
      "t": 110475.84799999987,
      "d": 1899.795697916663,
      "v": 58
    },
    {
      "midi": 66,
      "hit": false,
      "t": 110475.84799999987,
      "d": 1899.795697916663,
      "v": 58
    },
    {
      "midi": 69,
      "hit": false,
      "t": 110475.84799999987,
      "d": 1899.795697916663,
      "v": 58
    },
    {
      "midi": 74,
      "hit": false,
      "t": 110475.84799999998,
      "d": 186.01132812499418,
      "v": 54
    },
    {
      "midi": 78,
      "hit": false,
      "t": 110475.84799999998,
      "d": 186.01132812499418,
      "v": 57
    },
    {
      "midi": 81,
      "hit": false,
      "t": 110475.84799999998,
      "d": 186.01132812499418,
      "v": 49
    },
    {
      "midi": 38,
      "hit": false,
      "t": 110475.84800000006,
      "d": 114.08694791667222,
      "v": 78
    },
    {
      "midi": 74,
      "hit": false,
      "t": 110475.84800000007,
      "d": 173.61057291667385,
      "v": 76
    },
    {
      "midi": 78,
      "hit": false,
      "t": 110475.84800000007,
      "d": 173.61057291667385,
      "v": 80
    },
    {
      "midi": 81,
      "hit": false,
      "t": 110475.84800000007,
      "d": 173.61057291667385,
      "v": 70
    },
    {
      "midi": 62,
      "hit": false,
      "t": 110475.84800000007,
      "d": 173.61057291667385,
      "v": 76
    },
    {
      "midi": 66,
      "hit": false,
      "t": 110475.84800000007,
      "d": 173.61057291667385,
      "v": 80
    },
    {
      "midi": 69,
      "hit": false,
      "t": 110475.84800000007,
      "d": 173.61057291667385,
      "v": 70
    },
    {
      "midi": 38,
      "hit": false,
      "t": 110475.84800000105,
      "d": 173.61057291667385,
      "v": 70
    },
    {
      "midi": 38,
      "hit": false,
      "t": 110475.84800000112,
      "d": 208.3326875000057,
      "v": 68
    },
    {
      "midi": 38,
      "hit": false,
      "t": 110594.89525000006,
      "d": 114.08694791667222,
      "v": 78
    },
    {
      "midi": 62,
      "hit": false,
      "t": 110713.94249999886,
      "d": 9.920604166662088,
      "v": 103
    },
    {
      "midi": 66,
      "hit": false,
      "t": 110713.94249999886,
      "d": 9.920604166662088,
      "v": 103
    },
    {
      "midi": 74,
      "hit": false,
      "t": 110713.94249999998,
      "d": 186.01132812499418,
      "v": 65
    },
    {
      "midi": 78,
      "hit": false,
      "t": 110713.94249999998,
      "d": 186.01132812499418,
      "v": 68
    },
    {
      "midi": 81,
      "hit": false,
      "t": 110713.94249999998,
      "d": 186.01132812499418,
      "v": 64
    },
    {
      "midi": 50,
      "hit": false,
      "t": 110713.94250000006,
      "d": 114.08694791667222,
      "v": 78
    },
    {
      "midi": 74,
      "hit": false,
      "t": 110713.94250000008,
      "d": 173.61057291667385,
      "v": 91
    },
    {
      "midi": 78,
      "hit": false,
      "t": 110713.94250000008,
      "d": 173.61057291667385,
      "v": 95
    },
    {
      "midi": 81,
      "hit": false,
      "t": 110713.94250000008,
      "d": 173.61057291667385,
      "v": 90
    },
    {
      "midi": 62,
      "hit": false,
      "t": 110713.94250000008,
      "d": 173.61057291667385,
      "v": 91
    },
    {
      "midi": 66,
      "hit": false,
      "t": 110713.94250000008,
      "d": 173.61057291667385,
      "v": 95
    },
    {
      "midi": 69,
      "hit": false,
      "t": 110713.94250000008,
      "d": 173.61057291667385,
      "v": 90
    },
    {
      "midi": 50,
      "hit": false,
      "t": 110713.94250000105,
      "d": 173.61057291667385,
      "v": 62
    },
    {
      "midi": 38,
      "hit": false,
      "t": 110713.94250000113,
      "d": 208.3326875000057,
      "v": 68
    },
    {
      "midi": 62,
      "hit": false,
      "t": 110832.98974999884,
      "d": 9.920604166662088,
      "v": 103
    },
    {
      "midi": 66,
      "hit": false,
      "t": 110832.98974999884,
      "d": 9.920604166662088,
      "v": 103
    },
    {
      "midi": 50,
      "hit": false,
      "t": 110832.98975000007,
      "d": 114.08694791667222,
      "v": 78
    },
    {
      "midi": 74,
      "hit": false,
      "t": 110952.03699999997,
      "d": 186.01132812499418,
      "v": 71
    },
    {
      "midi": 78,
      "hit": false,
      "t": 110952.03699999997,
      "d": 186.01132812499418,
      "v": 72
    },
    {
      "midi": 81,
      "hit": false,
      "t": 110952.03699999997,
      "d": 186.01132812499418,
      "v": 72
    },
    {
      "midi": 38,
      "hit": false,
      "t": 110952.03700000007,
      "d": 114.08694791667222,
      "v": 78
    },
    {
      "midi": 74,
      "hit": false,
      "t": 110952.03700000008,
      "d": 173.61057291667385,
      "v": 99
    },
    {
      "midi": 78,
      "hit": false,
      "t": 110952.03700000008,
      "d": 173.61057291667385,
      "v": 101
    },
    {
      "midi": 81,
      "hit": false,
      "t": 110952.03700000008,
      "d": 173.61057291667385,
      "v": 100
    },
    {
      "midi": 62,
      "hit": false,
      "t": 110952.03700000008,
      "d": 173.61057291667385,
      "v": 99
    },
    {
      "midi": 66,
      "hit": false,
      "t": 110952.03700000008,
      "d": 173.61057291667385,
      "v": 101
    },
    {
      "midi": 69,
      "hit": false,
      "t": 110952.03700000008,
      "d": 173.61057291667385,
      "v": 100
    },
    {
      "midi": 38,
      "hit": false,
      "t": 110952.03700000106,
      "d": 173.61057291667385,
      "v": 66
    },
    {
      "midi": 38,
      "hit": false,
      "t": 110952.03700000113,
      "d": 208.3326875000057,
      "v": 68
    },
    {
      "midi": 38,
      "hit": false,
      "t": 111071.08425000007,
      "d": 114.08694791667222,
      "v": 78
    },
    {
      "midi": 62,
      "hit": false,
      "t": 111190.13149999884,
      "d": 9.920604166662088,
      "v": 103
    },
    {
      "midi": 66,
      "hit": false,
      "t": 111190.13149999884,
      "d": 9.920604166662088,
      "v": 103
    },
    {
      "midi": 74,
      "hit": false,
      "t": 111190.13149999996,
      "d": 186.01132812499418,
      "v": 70
    },
    {
      "midi": 78,
      "hit": false,
      "t": 111190.13149999996,
      "d": 186.01132812499418,
      "v": 74
    },
    {
      "midi": 81,
      "hit": false,
      "t": 111190.13149999996,
      "d": 186.01132812499418,
      "v": 69
    },
    {
      "midi": 50,
      "hit": false,
      "t": 111190.13150000008,
      "d": 114.08694791667222,
      "v": 78
    },
    {
      "midi": 74,
      "hit": false,
      "t": 111190.13150000009,
      "d": 173.61057291667385,
      "v": 98
    },
    {
      "midi": 78,
      "hit": false,
      "t": 111190.13150000009,
      "d": 173.61057291667385,
      "v": 103
    },
    {
      "midi": 81,
      "hit": false,
      "t": 111190.13150000009,
      "d": 173.61057291667385,
      "v": 96
    },
    {
      "midi": 62,
      "hit": false,
      "t": 111190.13150000009,
      "d": 173.61057291667385,
      "v": 98
    },
    {
      "midi": 66,
      "hit": false,
      "t": 111190.13150000009,
      "d": 173.61057291667385,
      "v": 103
    },
    {
      "midi": 69,
      "hit": false,
      "t": 111190.13150000009,
      "d": 173.61057291667385,
      "v": 96
    },
    {
      "midi": 50,
      "hit": false,
      "t": 111190.13150000107,
      "d": 173.61057291667385,
      "v": 67
    },
    {
      "midi": 38,
      "hit": false,
      "t": 111190.13150000114,
      "d": 208.3326875000057,
      "v": 68
    },
    {
      "midi": 62,
      "hit": false,
      "t": 111309.17874999883,
      "d": 9.920604166662088,
      "v": 103
    },
    {
      "midi": 66,
      "hit": false,
      "t": 111309.17874999883,
      "d": 9.920604166662088,
      "v": 103
    },
    {
      "midi": 50,
      "hit": false,
      "t": 111309.17875000008,
      "d": 114.08694791667222,
      "v": 78
    },
    {
      "midi": 38,
      "hit": false,
      "t": 111428.22600000008,
      "d": 114.08694791667222,
      "v": 78
    },
    {
      "midi": 38,
      "hit": false,
      "t": 111428.22600000107,
      "d": 173.61057291667385,
      "v": 64
    },
    {
      "midi": 38,
      "hit": false,
      "t": 111428.22600000114,
      "d": 208.3326875000057,
      "v": 68
    },
    {
      "midi": 38,
      "hit": false,
      "t": 111547.27325000009,
      "d": 114.08694791667222,
      "v": 78
    },
    {
      "midi": 62,
      "hit": false,
      "t": 111666.32049999882,
      "d": 9.920604166662088,
      "v": 103
    },
    {
      "midi": 66,
      "hit": false,
      "t": 111666.32049999882,
      "d": 9.920604166662088,
      "v": 103
    },
    {
      "midi": 50,
      "hit": false,
      "t": 111666.32050000009,
      "d": 114.08694791667222,
      "v": 78
    },
    {
      "midi": 50,
      "hit": false,
      "t": 111666.32050000108,
      "d": 173.61057291667385,
      "v": 66
    },
    {
      "midi": 38,
      "hit": false,
      "t": 111666.32050000115,
      "d": 208.3326875000057,
      "v": 68
    },
    {
      "midi": 62,
      "hit": false,
      "t": 111785.36774999881,
      "d": 9.920604166662088,
      "v": 103
    },
    {
      "midi": 66,
      "hit": false,
      "t": 111785.36774999881,
      "d": 9.920604166662088,
      "v": 103
    },
    {
      "midi": 50,
      "hit": false,
      "t": 111785.36775000009,
      "d": 114.08694791667222,
      "v": 78
    },
    {
      "midi": 74,
      "hit": false,
      "t": 111904.41499999995,
      "d": 272.8166145833384,
      "v": 68
    },
    {
      "midi": 78,
      "hit": false,
      "t": 111904.41499999995,
      "d": 272.8166145833384,
      "v": 67
    },
    {
      "midi": 83,
      "hit": false,
      "t": 111904.41499999995,
      "d": 272.8166145833384,
      "v": 72
    },
    {
      "midi": 74,
      "hit": false,
      "t": 111904.4150000001,
      "d": 272.8166145833384,
      "v": 95
    },
    {
      "midi": 78,
      "hit": false,
      "t": 111904.4150000001,
      "d": 272.8166145833384,
      "v": 94
    },
    {
      "midi": 83,
      "hit": false,
      "t": 111904.4150000001,
      "d": 272.8166145833384,
      "v": 100
    },
    {
      "midi": 62,
      "hit": false,
      "t": 111904.4150000001,
      "d": 272.8166145833384,
      "v": 95
    },
    {
      "midi": 66,
      "hit": false,
      "t": 111904.4150000001,
      "d": 272.8166145833384,
      "v": 94
    },
    {
      "midi": 71,
      "hit": false,
      "t": 111904.4150000001,
      "d": 272.8166145833384,
      "v": 100
    },
    {
      "midi": 38,
      "hit": false,
      "t": 111904.4150000001,
      "d": 114.08694791667222,
      "v": 78
    },
    {
      "midi": 38,
      "hit": false,
      "t": 111904.41500000108,
      "d": 173.61057291667385,
      "v": 62
    },
    {
      "midi": 38,
      "hit": false,
      "t": 111904.41500000116,
      "d": 208.3326875000057,
      "v": 68
    },
    {
      "midi": 38,
      "hit": false,
      "t": 112023.4622500001,
      "d": 114.08694791667222,
      "v": 78
    },
    {
      "midi": 62,
      "hit": false,
      "t": 112142.5094999988,
      "d": 9.920604166662088,
      "v": 103
    },
    {
      "midi": 66,
      "hit": false,
      "t": 112142.5094999988,
      "d": 9.920604166662088,
      "v": 103
    },
    {
      "midi": 50,
      "hit": false,
      "t": 112142.5095000001,
      "d": 114.08694791667222,
      "v": 78
    },
    {
      "midi": 50,
      "hit": false,
      "t": 112142.50950000109,
      "d": 173.61057291667385,
      "v": 73
    },
    {
      "midi": 38,
      "hit": false,
      "t": 112142.50950000116,
      "d": 208.3326875000057,
      "v": 68
    },
    {
      "midi": 62,
      "hit": false,
      "t": 112261.5567499988,
      "d": 9.920604166662088,
      "v": 103
    },
    {
      "midi": 66,
      "hit": false,
      "t": 112261.5567499988,
      "d": 9.920604166662088,
      "v": 103
    },
    {
      "midi": 50,
      "hit": false,
      "t": 112261.5567500001,
      "d": 114.08694791667222,
      "v": 78
    },
    {
      "midi": 64,
      "hit": false,
      "t": 112380.60399999986,
      "d": 947.4176979166659,
      "v": 58
    },
    {
      "midi": 67,
      "hit": false,
      "t": 112380.60399999986,
      "d": 1899.795697916663,
      "v": 58
    },
    {
      "midi": 71,
      "hit": false,
      "t": 112380.60399999986,
      "d": 1899.795697916663,
      "v": 58
    },
    {
      "midi": 71,
      "hit": false,
      "t": 112380.60399999995,
      "d": 272.8166145833384,
      "v": 63
    },
    {
      "midi": 76,
      "hit": false,
      "t": 112380.60399999995,
      "d": 272.8166145833384,
      "v": 74
    },
    {
      "midi": 79,
      "hit": false,
      "t": 112380.60399999995,
      "d": 272.8166145833384,
      "v": 75
    },
    {
      "midi": 71,
      "hit": false,
      "t": 112380.6040000001,
      "d": 272.8166145833384,
      "v": 88
    },
    {
      "midi": 76,
      "hit": false,
      "t": 112380.6040000001,
      "d": 272.8166145833384,
      "v": 103
    },
    {
      "midi": 79,
      "hit": false,
      "t": 112380.6040000001,
      "d": 272.8166145833384,
      "v": 105
    },
    {
      "midi": 59,
      "hit": false,
      "t": 112380.6040000001,
      "d": 272.8166145833384,
      "v": 88
    },
    {
      "midi": 64,
      "hit": false,
      "t": 112380.6040000001,
      "d": 272.8166145833384,
      "v": 103
    },
    {
      "midi": 67,
      "hit": false,
      "t": 112380.6040000001,
      "d": 272.8166145833384,
      "v": 105
    },
    {
      "midi": 40,
      "hit": false,
      "t": 112380.60400000011,
      "d": 114.08694791667222,
      "v": 78
    },
    {
      "midi": 40,
      "hit": false,
      "t": 112380.6040000011,
      "d": 173.61057291667385,
      "v": 73
    },
    {
      "midi": 40,
      "hit": false,
      "t": 112380.60400000117,
      "d": 208.3326875000057,
      "v": 68
    },
    {
      "midi": 40,
      "hit": false,
      "t": 112499.65125000011,
      "d": 114.08694791667222,
      "v": 78
    },
    {
      "midi": 64,
      "hit": false,
      "t": 112618.69849999879,
      "d": 9.920604166662088,
      "v": 103
    },
    {
      "midi": 67,
      "hit": false,
      "t": 112618.69849999879,
      "d": 9.920604166662088,
      "v": 103
    },
    {
      "midi": 52,
      "hit": false,
      "t": 112618.69850000012,
      "d": 114.08694791667222,
      "v": 78
    },
    {
      "midi": 52,
      "hit": false,
      "t": 112618.6985000011,
      "d": 173.61057291667385,
      "v": 64
    },
    {
      "midi": 40,
      "hit": false,
      "t": 112618.69850000118,
      "d": 208.3326875000057,
      "v": 68
    },
    {
      "midi": 64,
      "hit": false,
      "t": 112737.74574999878,
      "d": 9.920604166662088,
      "v": 103
    },
    {
      "midi": 67,
      "hit": false,
      "t": 112737.74574999878,
      "d": 9.920604166662088,
      "v": 103
    },
    {
      "midi": 52,
      "hit": false,
      "t": 112737.74575000012,
      "d": 114.08694791667222,
      "v": 78
    },
    {
      "midi": 40,
      "hit": false,
      "t": 112856.79300000012,
      "d": 114.08694791667222,
      "v": 78
    },
    {
      "midi": 40,
      "hit": false,
      "t": 112856.79300000111,
      "d": 173.61057291667385,
      "v": 62
    },
    {
      "midi": 40,
      "hit": false,
      "t": 112856.79300000118,
      "d": 208.3326875000057,
      "v": 68
    },
    {
      "midi": 40,
      "hit": false,
      "t": 112975.84025000012,
      "d": 114.08694791667222,
      "v": 78
    },
    {
      "midi": 64,
      "hit": false,
      "t": 113094.88749999877,
      "d": 9.920604166662088,
      "v": 103
    },
    {
      "midi": 67,
      "hit": false,
      "t": 113094.88749999877,
      "d": 9.920604166662088,
      "v": 103
    },
    {
      "midi": 52,
      "hit": false,
      "t": 113094.88750000013,
      "d": 114.08694791667222,
      "v": 78
    },
    {
      "midi": 52,
      "hit": false,
      "t": 113094.88750000112,
      "d": 173.61057291667385,
      "v": 80
    },
    {
      "midi": 40,
      "hit": false,
      "t": 113094.88750000119,
      "d": 208.3326875000057,
      "v": 68
    },
    {
      "midi": 64,
      "hit": false,
      "t": 113213.93474999876,
      "d": 9.920604166662088,
      "v": 103
    },
    {
      "midi": 67,
      "hit": false,
      "t": 113213.93474999876,
      "d": 9.920604166662088,
      "v": 103
    },
    {
      "midi": 52,
      "hit": false,
      "t": 113213.93475000013,
      "d": 114.08694791667222,
      "v": 78
    },
    {
      "midi": 62,
      "hit": false,
      "t": 113332.98199999986,
      "d": 947.4176979166659,
      "v": 58
    },
    {
      "midi": 38,
      "hit": false,
      "t": 113332.98200000013,
      "d": 114.08694791667222,
      "v": 78
    },
    {
      "midi": 38,
      "hit": false,
      "t": 113332.98200000112,
      "d": 173.61057291667385,
      "v": 58
    },
    {
      "midi": 38,
      "hit": false,
      "t": 113332.9820000012,
      "d": 208.3326875000057,
      "v": 68
    },
    {
      "midi": 38,
      "hit": false,
      "t": 113452.02925000014,
      "d": 114.08694791667222,
      "v": 78
    },
    {
      "midi": 62,
      "hit": false,
      "t": 113571.07649999876,
      "d": 9.920604166662088,
      "v": 103
    },
    {
      "midi": 66,
      "hit": false,
      "t": 113571.07649999876,
      "d": 9.920604166662088,
      "v": 103
    },
    {
      "midi": 50,
      "hit": false,
      "t": 113571.07650000014,
      "d": 114.08694791667222,
      "v": 78
    },
    {
      "midi": 50,
      "hit": false,
      "t": 113571.07650000113,
      "d": 173.61057291667385,
      "v": 72
    },
    {
      "midi": 38,
      "hit": false,
      "t": 113571.0765000012,
      "d": 208.3326875000057,
      "v": 68
    },
    {
      "midi": 62,
      "hit": false,
      "t": 113690.12374999875,
      "d": 9.920604166662088,
      "v": 103
    },
    {
      "midi": 66,
      "hit": false,
      "t": 113690.12374999875,
      "d": 9.920604166662088,
      "v": 103
    },
    {
      "midi": 50,
      "hit": false,
      "t": 113690.12375000014,
      "d": 114.08694791667222,
      "v": 78
    },
    {
      "midi": 38,
      "hit": false,
      "t": 113809.17100000015,
      "d": 114.08694791667222,
      "v": 78
    },
    {
      "midi": 38,
      "hit": false,
      "t": 113809.17100000114,
      "d": 173.61057291667385,
      "v": 59
    },
    {
      "midi": 38,
      "hit": false,
      "t": 113809.17100000121,
      "d": 208.3326875000057,
      "v": 68
    },
    {
      "midi": 38,
      "hit": false,
      "t": 113928.21825000015,
      "d": 114.08694791667222,
      "v": 78
    },
    {
      "midi": 62,
      "hit": false,
      "t": 114047.26549999874,
      "d": 9.920604166662088,
      "v": 103
    },
    {
      "midi": 66,
      "hit": false,
      "t": 114047.26549999874,
      "d": 9.920604166662088,
      "v": 103
    },
    {
      "midi": 50,
      "hit": false,
      "t": 114047.26550000015,
      "d": 114.08694791667222,
      "v": 78
    },
    {
      "midi": 50,
      "hit": false,
      "t": 114047.26550000114,
      "d": 173.61057291667385,
      "v": 70
    },
    {
      "midi": 38,
      "hit": false,
      "t": 114047.26550000122,
      "d": 208.3326875000057,
      "v": 68
    },
    {
      "midi": 62,
      "hit": false,
      "t": 114166.31274999873,
      "d": 9.920604166662088,
      "v": 103
    },
    {
      "midi": 66,
      "hit": false,
      "t": 114166.31274999873,
      "d": 9.920604166662088,
      "v": 103
    },
    {
      "midi": 50,
      "hit": false,
      "t": 114166.31275000016,
      "d": 114.08694791667222,
      "v": 78
    },
    {
      "midi": 64,
      "hit": false,
      "t": 114285.35999999986,
      "d": 1423.6066979166644,
      "v": 58
    },
    {
      "midi": 67,
      "hit": false,
      "t": 114285.35999999986,
      "d": 1423.6066979166644,
      "v": 58
    },
    {
      "midi": 72,
      "hit": false,
      "t": 114285.35999999986,
      "d": 1423.6066979166644,
      "v": 58
    },
    {
      "midi": 72,
      "hit": false,
      "t": 114285.35999999996,
      "d": 186.01132812499418,
      "v": 59
    },
    {
      "midi": 76,
      "hit": false,
      "t": 114285.35999999996,
      "d": 186.01132812499418,
      "v": 66
    },
    {
      "midi": 79,
      "hit": false,
      "t": 114285.35999999996,
      "d": 186.01132812499418,
      "v": 67
    },
    {
      "midi": 72,
      "hit": false,
      "t": 114285.3600000001,
      "d": 173.61057291667385,
      "v": 83
    },
    {
      "midi": 76,
      "hit": false,
      "t": 114285.3600000001,
      "d": 173.61057291667385,
      "v": 93
    },
    {
      "midi": 79,
      "hit": false,
      "t": 114285.3600000001,
      "d": 173.61057291667385,
      "v": 94
    },
    {
      "midi": 60,
      "hit": false,
      "t": 114285.3600000001,
      "d": 173.61057291667385,
      "v": 83
    },
    {
      "midi": 64,
      "hit": false,
      "t": 114285.3600000001,
      "d": 173.61057291667385,
      "v": 93
    },
    {
      "midi": 67,
      "hit": false,
      "t": 114285.3600000001,
      "d": 173.61057291667385,
      "v": 94
    },
    {
      "midi": 36,
      "hit": false,
      "t": 114285.36000000016,
      "d": 114.08694791667222,
      "v": 78
    },
    {
      "midi": 36,
      "hit": false,
      "t": 114285.36000000115,
      "d": 173.61057291667385,
      "v": 74
    },
    {
      "midi": 36,
      "hit": false,
      "t": 114285.36000000122,
      "d": 208.3326875000057,
      "v": 68
    },
    {
      "midi": 36,
      "hit": false,
      "t": 114404.40725000016,
      "d": 114.08694791667222,
      "v": 78
    },
    {
      "midi": 60,
      "hit": false,
      "t": 114523.45449999873,
      "d": 9.920604166662088,
      "v": 103
    },
    {
      "midi": 64,
      "hit": false,
      "t": 114523.45449999873,
      "d": 9.920604166662088,
      "v": 103
    },
    {
      "midi": 72,
      "hit": false,
      "t": 114523.45449999995,
      "d": 186.01132812499418,
      "v": 71
    },
    {
      "midi": 76,
      "hit": false,
      "t": 114523.45449999995,
      "d": 186.01132812499418,
      "v": 79
    },
    {
      "midi": 79,
      "hit": false,
      "t": 114523.45449999995,
      "d": 186.01132812499418,
      "v": 74
    },
    {
      "midi": 72,
      "hit": false,
      "t": 114523.45450000011,
      "d": 173.61057291667385,
      "v": 99
    },
    {
      "midi": 76,
      "hit": false,
      "t": 114523.45450000011,
      "d": 173.61057291667385,
      "v": 110
    },
    {
      "midi": 79,
      "hit": false,
      "t": 114523.45450000011,
      "d": 173.61057291667385,
      "v": 103
    },
    {
      "midi": 60,
      "hit": false,
      "t": 114523.45450000011,
      "d": 173.61057291667385,
      "v": 99
    },
    {
      "midi": 64,
      "hit": false,
      "t": 114523.45450000011,
      "d": 173.61057291667385,
      "v": 110
    },
    {
      "midi": 67,
      "hit": false,
      "t": 114523.45450000011,
      "d": 173.61057291667385,
      "v": 103
    },
    {
      "midi": 48,
      "hit": false,
      "t": 114523.45450000017,
      "d": 114.08694791667222,
      "v": 78
    },
    {
      "midi": 48,
      "hit": false,
      "t": 114523.45450000116,
      "d": 173.61057291667385,
      "v": 70
    },
    {
      "midi": 36,
      "hit": false,
      "t": 114523.45450000123,
      "d": 208.3326875000057,
      "v": 68
    },
    {
      "midi": 60,
      "hit": false,
      "t": 114642.50174999872,
      "d": 9.920604166662088,
      "v": 103
    },
    {
      "midi": 64,
      "hit": false,
      "t": 114642.50174999872,
      "d": 9.920604166662088,
      "v": 103
    },
    {
      "midi": 48,
      "hit": false,
      "t": 114642.50175000017,
      "d": 114.08694791667222,
      "v": 78
    },
    {
      "midi": 72,
      "hit": false,
      "t": 114761.54899999994,
      "d": 186.01132812499418,
      "v": 74
    },
    {
      "midi": 76,
      "hit": false,
      "t": 114761.54899999994,
      "d": 186.01132812499418,
      "v": 75
    },
    {
      "midi": 79,
      "hit": false,
      "t": 114761.54899999994,
      "d": 186.01132812499418,
      "v": 74
    },
    {
      "midi": 72,
      "hit": false,
      "t": 114761.54900000012,
      "d": 173.61057291667385,
      "v": 103
    },
    {
      "midi": 76,
      "hit": false,
      "t": 114761.54900000012,
      "d": 173.61057291667385,
      "v": 105
    },
    {
      "midi": 79,
      "hit": false,
      "t": 114761.54900000012,
      "d": 173.61057291667385,
      "v": 103
    },
    {
      "midi": 60,
      "hit": false,
      "t": 114761.54900000012,
      "d": 173.61057291667385,
      "v": 103
    },
    {
      "midi": 64,
      "hit": false,
      "t": 114761.54900000012,
      "d": 173.61057291667385,
      "v": 105
    },
    {
      "midi": 67,
      "hit": false,
      "t": 114761.54900000012,
      "d": 173.61057291667385,
      "v": 103
    },
    {
      "midi": 36,
      "hit": false,
      "t": 114761.54900000017,
      "d": 114.08694791667222,
      "v": 78
    },
    {
      "midi": 36,
      "hit": false,
      "t": 114761.54900000116,
      "d": 173.61057291667385,
      "v": 64
    },
    {
      "midi": 36,
      "hit": false,
      "t": 114761.54900000124,
      "d": 208.3326875000057,
      "v": 68
    },
    {
      "midi": 36,
      "hit": false,
      "t": 114880.59625000018,
      "d": 114.08694791667222,
      "v": 78
    },
    {
      "midi": 60,
      "hit": false,
      "t": 114999.64349999871,
      "d": 9.920604166662088,
      "v": 103
    },
    {
      "midi": 64,
      "hit": false,
      "t": 114999.64349999871,
      "d": 9.920604166662088,
      "v": 103
    },
    {
      "midi": 72,
      "hit": false,
      "t": 114999.64349999993,
      "d": 186.01132812499418,
      "v": 71
    },
    {
      "midi": 76,
      "hit": false,
      "t": 114999.64349999993,
      "d": 186.01132812499418,
      "v": 72
    },
    {
      "midi": 79,
      "hit": false,
      "t": 114999.64349999993,
      "d": 186.01132812499418,
      "v": 72
    },
    {
      "midi": 72,
      "hit": false,
      "t": 114999.64350000012,
      "d": 173.61057291667385,
      "v": 99
    },
    {
      "midi": 76,
      "hit": false,
      "t": 114999.64350000012,
      "d": 173.61057291667385,
      "v": 101
    },
    {
      "midi": 79,
      "hit": false,
      "t": 114999.64350000012,
      "d": 173.61057291667385,
      "v": 100
    },
    {
      "midi": 60,
      "hit": false,
      "t": 114999.64350000012,
      "d": 173.61057291667385,
      "v": 99
    },
    {
      "midi": 64,
      "hit": false,
      "t": 114999.64350000012,
      "d": 173.61057291667385,
      "v": 101
    },
    {
      "midi": 67,
      "hit": false,
      "t": 114999.64350000012,
      "d": 173.61057291667385,
      "v": 100
    },
    {
      "midi": 48,
      "hit": false,
      "t": 114999.64350000018,
      "d": 114.08694791667222,
      "v": 78
    },
    {
      "midi": 48,
      "hit": false,
      "t": 114999.64350000117,
      "d": 173.61057291667385,
      "v": 74
    },
    {
      "midi": 36,
      "hit": false,
      "t": 114999.64350000124,
      "d": 208.3326875000057,
      "v": 68
    },
    {
      "midi": 60,
      "hit": false,
      "t": 115118.6907499987,
      "d": 9.920604166662088,
      "v": 103
    },
    {
      "midi": 64,
      "hit": false,
      "t": 115118.6907499987,
      "d": 9.920604166662088,
      "v": 103
    },
    {
      "midi": 48,
      "hit": false,
      "t": 115118.69075000018,
      "d": 114.08694791667222,
      "v": 78
    },
    {
      "midi": 36,
      "hit": false,
      "t": 115237.73800000019,
      "d": 114.08694791667222,
      "v": 78
    },
    {
      "midi": 36,
      "hit": false,
      "t": 115237.73800000118,
      "d": 173.61057291667385,
      "v": 50
    },
    {
      "midi": 36,
      "hit": false,
      "t": 115237.73800000125,
      "d": 208.3326875000057,
      "v": 68
    },
    {
      "midi": 36,
      "hit": false,
      "t": 115356.78525000019,
      "d": 114.08694791667222,
      "v": 78
    },
    {
      "midi": 60,
      "hit": false,
      "t": 115475.8324999987,
      "d": 9.920604166662088,
      "v": 103
    },
    {
      "midi": 64,
      "hit": false,
      "t": 115475.8324999987,
      "d": 9.920604166662088,
      "v": 103
    },
    {
      "midi": 48,
      "hit": false,
      "t": 115475.8325000002,
      "d": 114.08694791667222,
      "v": 78
    },
    {
      "midi": 48,
      "hit": false,
      "t": 115475.83250000118,
      "d": 173.61057291667385,
      "v": 73
    },
    {
      "midi": 36,
      "hit": false,
      "t": 115475.83250000126,
      "d": 208.3326875000057,
      "v": 68
    },
    {
      "midi": 60,
      "hit": false,
      "t": 115594.87974999868,
      "d": 9.920604166662088,
      "v": 103
    },
    {
      "midi": 64,
      "hit": false,
      "t": 115594.87974999868,
      "d": 9.920604166662088,
      "v": 103
    },
    {
      "midi": 48,
      "hit": false,
      "t": 115594.8797500002,
      "d": 114.08694791667222,
      "v": 78
    },
    {
      "midi": 66,
      "hit": false,
      "t": 115713.92699999985,
      "d": 471.22869791666744,
      "v": 58
    },
    {
      "midi": 69,
      "hit": false,
      "t": 115713.92699999985,
      "d": 471.22869791666744,
      "v": 58
    },
    {
      "midi": 74,
      "hit": false,
      "t": 115713.92699999985,
      "d": 471.22869791666744,
      "v": 58
    },
    {
      "midi": 74,
      "hit": false,
      "t": 115713.92699999992,
      "d": 272.8166145833384,
      "v": 70
    },
    {
      "midi": 78,
      "hit": false,
      "t": 115713.92699999992,
      "d": 272.8166145833384,
      "v": 76
    },
    {
      "midi": 81,
      "hit": false,
      "t": 115713.92699999992,
      "d": 272.8166145833384,
      "v": 75
    },
    {
      "midi": 74,
      "hit": false,
      "t": 115713.92700000013,
      "d": 272.8166145833384,
      "v": 98
    },
    {
      "midi": 78,
      "hit": false,
      "t": 115713.92700000013,
      "d": 272.8166145833384,
      "v": 106
    },
    {
      "midi": 81,
      "hit": false,
      "t": 115713.92700000013,
      "d": 272.8166145833384,
      "v": 104
    },
    {
      "midi": 62,
      "hit": false,
      "t": 115713.92700000013,
      "d": 272.8166145833384,
      "v": 98
    },
    {
      "midi": 66,
      "hit": false,
      "t": 115713.92700000013,
      "d": 272.8166145833384,
      "v": 106
    },
    {
      "midi": 69,
      "hit": false,
      "t": 115713.92700000013,
      "d": 272.8166145833384,
      "v": 104
    },
    {
      "midi": 38,
      "hit": false,
      "t": 115713.9270000002,
      "d": 114.08694791667222,
      "v": 78
    },
    {
      "midi": 38,
      "hit": false,
      "t": 115713.92700000119,
      "d": 173.61057291667385,
      "v": 66
    },
    {
      "midi": 38,
      "hit": false,
      "t": 115713.92700000126,
      "d": 208.3326875000057,
      "v": 68
    },
    {
      "midi": 38,
      "hit": false,
      "t": 115832.9742500002,
      "d": 114.08694791667222,
      "v": 78
    },
    {
      "midi": 62,
      "hit": false,
      "t": 115952.02149999868,
      "d": 9.920604166662088,
      "v": 103
    },
    {
      "midi": 66,
      "hit": false,
      "t": 115952.02149999868,
      "d": 9.920604166662088,
      "v": 103
    },
    {
      "midi": 50,
      "hit": false,
      "t": 115952.0215000002,
      "d": 114.08694791667222,
      "v": 78
    },
    {
      "midi": 50,
      "hit": false,
      "t": 115952.0215000012,
      "d": 173.61057291667385,
      "v": 86
    },
    {
      "midi": 38,
      "hit": false,
      "t": 115952.02150000127,
      "d": 208.3326875000057,
      "v": 68
    },
    {
      "midi": 62,
      "hit": false,
      "t": 116071.06874999867,
      "d": 9.920604166662088,
      "v": 103
    },
    {
      "midi": 66,
      "hit": false,
      "t": 116071.06874999867,
      "d": 9.920604166662088,
      "v": 103
    },
    {
      "midi": 50,
      "hit": false,
      "t": 116071.06875000021,
      "d": 114.08694791667222,
      "v": 78
    },
    {
      "midi": 62,
      "hit": false,
      "t": 116190.11599999985,
      "d": 1899.795697916663,
      "v": 58
    },
    {
      "midi": 67,
      "hit": false,
      "t": 116190.11599999985,
      "d": 1899.795697916663,
      "v": 58
    },
    {
      "midi": 71,
      "hit": false,
      "t": 116190.11599999985,
      "d": 1899.795697916663,
      "v": 58
    },
    {
      "midi": 74,
      "hit": false,
      "t": 116190.11599999992,
      "d": 272.8166145833384,
      "v": 64
    },
    {
      "midi": 79,
      "hit": false,
      "t": 116190.11599999992,
      "d": 272.8166145833384,
      "v": 72
    },
    {
      "midi": 83,
      "hit": false,
      "t": 116190.11599999992,
      "d": 272.8166145833384,
      "v": 72
    },
    {
      "midi": 83,
      "hit": false,
      "t": 116190.11599999994,
      "d": 2.480151041672798,
      "v": 84
    },
    {
      "midi": 83,
      "hit": false,
      "t": 116190.11599999994,
      "d": 2.480151041672798,
      "v": 110
    },
    {
      "midi": 74,
      "hit": false,
      "t": 116190.11600000013,
      "d": 272.8166145833384,
      "v": 90
    },
    {
      "midi": 79,
      "hit": false,
      "t": 116190.11600000013,
      "d": 272.8166145833384,
      "v": 100
    },
    {
      "midi": 83,
      "hit": false,
      "t": 116190.11600000013,
      "d": 272.8166145833384,
      "v": 100
    },
    {
      "midi": 62,
      "hit": false,
      "t": 116190.11600000013,
      "d": 272.8166145833384,
      "v": 90
    },
    {
      "midi": 67,
      "hit": false,
      "t": 116190.11600000013,
      "d": 272.8166145833384,
      "v": 100
    },
    {
      "midi": 71,
      "hit": false,
      "t": 116190.11600000013,
      "d": 272.8166145833384,
      "v": 100
    },
    {
      "midi": 43,
      "hit": false,
      "t": 116190.11600000021,
      "d": 114.08694791667222,
      "v": 78
    },
    {
      "midi": 31,
      "hit": false,
      "t": 116190.1160000012,
      "d": 173.61057291667385,
      "v": 76
    },
    {
      "midi": 31,
      "hit": false,
      "t": 116190.11600000128,
      "d": 208.3326875000057,
      "v": 68
    },
    {
      "midi": 83,
      "hit": false,
      "t": 116309.16324999994,
      "d": 2.480151041672798,
      "v": 91
    },
    {
      "midi": 83,
      "hit": false,
      "t": 116309.16324999994,
      "d": 2.480151041672798,
      "v": 110
    },
    {
      "midi": 43,
      "hit": false,
      "t": 116309.16325000022,
      "d": 114.08694791667222,
      "v": 78
    },
    {
      "midi": 67,
      "hit": false,
      "t": 116428.21049999866,
      "d": 9.920604166662088,
      "v": 103
    },
    {
      "midi": 71,
      "hit": false,
      "t": 116428.21049999866,
      "d": 9.920604166662088,
      "v": 103
    },
    {
      "midi": 83,
      "hit": false,
      "t": 116428.21049999994,
      "d": 2.480151041672798,
      "v": 88
    },
    {
      "midi": 83,
      "hit": false,
      "t": 116428.21049999994,
      "d": 2.480151041672798,
      "v": 110
    },
    {
      "midi": 55,
      "hit": false,
      "t": 116428.21050000022,
      "d": 114.08694791667222,
      "v": 78
    },
    {
      "midi": 43,
      "hit": false,
      "t": 116428.21050000121,
      "d": 173.61057291667385,
      "v": 82
    },
    {
      "midi": 31,
      "hit": false,
      "t": 116428.21050000128,
      "d": 208.3326875000057,
      "v": 68
    },
    {
      "midi": 67,
      "hit": false,
      "t": 116547.25774999865,
      "d": 9.920604166662088,
      "v": 103
    },
    {
      "midi": 71,
      "hit": false,
      "t": 116547.25774999865,
      "d": 9.920604166662088,
      "v": 103
    },
    {
      "midi": 83,
      "hit": false,
      "t": 116547.25774999995,
      "d": 2.480151041672798,
      "v": 91
    },
    {
      "midi": 83,
      "hit": false,
      "t": 116547.25774999995,
      "d": 2.480151041672798,
      "v": 110
    },
    {
      "midi": 55,
      "hit": false,
      "t": 116547.25775000022,
      "d": 114.08694791667222,
      "v": 78
    },
    {
      "midi": 83,
      "hit": false,
      "t": 116666.30499999995,
      "d": 2.480151041672798,
      "v": 87
    },
    {
      "midi": 83,
      "hit": false,
      "t": 116666.30499999995,
      "d": 2.480151041672798,
      "v": 110
    },
    {
      "midi": 43,
      "hit": false,
      "t": 116666.30500000023,
      "d": 114.08694791667222,
      "v": 78
    },
    {
      "midi": 31,
      "hit": false,
      "t": 116666.30500000122,
      "d": 173.61057291667385,
      "v": 62
    },
    {
      "midi": 31,
      "hit": false,
      "t": 116666.30500000129,
      "d": 208.3326875000057,
      "v": 68
    },
    {
      "midi": 83,
      "hit": false,
      "t": 116785.35224999995,
      "d": 2.480151041672798,
      "v": 87
    },
    {
      "midi": 83,
      "hit": false,
      "t": 116785.35224999995,
      "d": 2.480151041672798,
      "v": 110
    },
    {
      "midi": 43,
      "hit": false,
      "t": 116785.35225000023,
      "d": 114.08694791667222,
      "v": 78
    },
    {
      "midi": 67,
      "hit": false,
      "t": 116904.39949999865,
      "d": 9.920604166662088,
      "v": 103
    },
    {
      "midi": 71,
      "hit": false,
      "t": 116904.39949999865,
      "d": 9.920604166662088,
      "v": 103
    },
    {
      "midi": 83,
      "hit": false,
      "t": 116904.39949999996,
      "d": 2.480151041672798,
      "v": 89
    },
    {
      "midi": 83,
      "hit": false,
      "t": 116904.39949999996,
      "d": 2.480151041672798,
      "v": 110
    },
    {
      "midi": 55,
      "hit": false,
      "t": 116904.39950000023,
      "d": 114.08694791667222,
      "v": 78
    },
    {
      "midi": 43,
      "hit": false,
      "t": 116904.39950000122,
      "d": 173.61057291667385,
      "v": 78
    },
    {
      "midi": 31,
      "hit": false,
      "t": 116904.3995000013,
      "d": 208.3326875000057,
      "v": 68
    },
    {
      "midi": 67,
      "hit": false,
      "t": 117023.44674999863,
      "d": 9.920604166662088,
      "v": 103
    },
    {
      "midi": 71,
      "hit": false,
      "t": 117023.44674999863,
      "d": 9.920604166662088,
      "v": 103
    },
    {
      "midi": 83,
      "hit": false,
      "t": 117023.44674999996,
      "d": 2.480151041672798,
      "v": 91
    },
    {
      "midi": 83,
      "hit": false,
      "t": 117023.44674999996,
      "d": 2.480151041672798,
      "v": 110
    },
    {
      "midi": 55,
      "hit": false,
      "t": 117023.44675000024,
      "d": 114.08694791667222,
      "v": 78
    },
    {
      "midi": 83,
      "hit": false,
      "t": 117142.49399999996,
      "d": 2.480151041672798,
      "v": 91
    },
    {
      "midi": 83,
      "hit": false,
      "t": 117142.49399999996,
      "d": 2.480151041672798,
      "v": 110
    },
    {
      "midi": 43,
      "hit": false,
      "t": 117142.49400000024,
      "d": 114.08694791667222,
      "v": 78
    },
    {
      "midi": 31,
      "hit": false,
      "t": 117142.49400000123,
      "d": 173.61057291667385,
      "v": 67
    },
    {
      "midi": 31,
      "hit": false,
      "t": 117142.4940000013,
      "d": 208.3326875000057,
      "v": 68
    },
    {
      "midi": 83,
      "hit": false,
      "t": 117261.54124999997,
      "d": 2.480151041672798,
      "v": 92
    },
    {
      "midi": 83,
      "hit": false,
      "t": 117261.54124999997,
      "d": 2.480151041672798,
      "v": 110
    },
    {
      "midi": 43,
      "hit": false,
      "t": 117261.54125000024,
      "d": 114.08694791667222,
      "v": 78
    },
    {
      "midi": 67,
      "hit": false,
      "t": 117380.58849999863,
      "d": 9.920604166662088,
      "v": 103
    },
    {
      "midi": 71,
      "hit": false,
      "t": 117380.58849999863,
      "d": 9.920604166662088,
      "v": 103
    },
    {
      "midi": 83,
      "hit": false,
      "t": 117380.58849999997,
      "d": 2.480151041672798,
      "v": 96
    },
    {
      "midi": 83,
      "hit": false,
      "t": 117380.58849999997,
      "d": 2.480151041672798,
      "v": 110
    },
    {
      "midi": 55,
      "hit": false,
      "t": 117380.58850000025,
      "d": 114.08694791667222,
      "v": 78
    },
    {
      "midi": 43,
      "hit": false,
      "t": 117380.58850000123,
      "d": 173.61057291667385,
      "v": 70
    },
    {
      "midi": 31,
      "hit": false,
      "t": 117380.58850000131,
      "d": 208.3326875000057,
      "v": 68
    },
    {
      "midi": 67,
      "hit": false,
      "t": 117499.63574999862,
      "d": 9.920604166662088,
      "v": 103
    },
    {
      "midi": 71,
      "hit": false,
      "t": 117499.63574999862,
      "d": 9.920604166662088,
      "v": 103
    },
    {
      "midi": 83,
      "hit": false,
      "t": 117499.63574999997,
      "d": 2.480151041672798,
      "v": 92
    },
    {
      "midi": 83,
      "hit": false,
      "t": 117499.63574999997,
      "d": 2.480151041672798,
      "v": 110
    },
    {
      "midi": 55,
      "hit": false,
      "t": 117499.63575000025,
      "d": 114.08694791667222,
      "v": 78
    },
    {
      "midi": 83,
      "hit": false,
      "t": 117618.68299999998,
      "d": 2.480151041672798,
      "v": 96
    },
    {
      "midi": 83,
      "hit": false,
      "t": 117618.68299999998,
      "d": 2.480151041672798,
      "v": 110
    },
    {
      "midi": 43,
      "hit": false,
      "t": 117618.68300000025,
      "d": 114.08694791667222,
      "v": 78
    },
    {
      "midi": 31,
      "hit": false,
      "t": 117618.68300000124,
      "d": 173.61057291667385,
      "v": 56
    },
    {
      "midi": 31,
      "hit": false,
      "t": 117618.68300000131,
      "d": 208.3326875000057,
      "v": 68
    },
    {
      "midi": 83,
      "hit": false,
      "t": 117737.73024999998,
      "d": 2.480151041672798,
      "v": 96
    },
    {
      "midi": 83,
      "hit": false,
      "t": 117737.73024999998,
      "d": 2.480151041672798,
      "v": 110
    },
    {
      "midi": 43,
      "hit": false,
      "t": 117737.73025000026,
      "d": 114.08694791667222,
      "v": 78
    },
    {
      "midi": 67,
      "hit": false,
      "t": 117856.77749999861,
      "d": 9.920604166662088,
      "v": 103
    },
    {
      "midi": 71,
      "hit": false,
      "t": 117856.77749999861,
      "d": 9.920604166662088,
      "v": 103
    },
    {
      "midi": 83,
      "hit": false,
      "t": 117856.77749999998,
      "d": 2.480151041672798,
      "v": 98
    },
    {
      "midi": 83,
      "hit": false,
      "t": 117856.77749999998,
      "d": 2.480151041672798,
      "v": 110
    },
    {
      "midi": 55,
      "hit": false,
      "t": 117856.77750000026,
      "d": 114.08694791667222,
      "v": 78
    },
    {
      "midi": 43,
      "hit": false,
      "t": 117856.77750000125,
      "d": 173.61057291667385,
      "v": 70
    },
    {
      "midi": 31,
      "hit": false,
      "t": 117856.77750000132,
      "d": 208.3326875000057,
      "v": 68
    },
    {
      "midi": 67,
      "hit": false,
      "t": 117975.8247499986,
      "d": 9.920604166662088,
      "v": 103
    },
    {
      "midi": 71,
      "hit": false,
      "t": 117975.8247499986,
      "d": 9.920604166662088,
      "v": 103
    },
    {
      "midi": 83,
      "hit": false,
      "t": 117975.82474999999,
      "d": 2.480151041672798,
      "v": 101
    },
    {
      "midi": 83,
      "hit": false,
      "t": 117975.82474999999,
      "d": 2.480151041672798,
      "v": 110
    },
    {
      "midi": 55,
      "hit": false,
      "t": 117975.82475000026,
      "d": 114.08694791667222,
      "v": 78
    },
    {
      "midi": 62,
      "hit": false,
      "t": 118094.87199999984,
      "d": 1899.795697916663,
      "v": 58
    },
    {
      "midi": 66,
      "hit": false,
      "t": 118094.87199999984,
      "d": 1899.795697916663,
      "v": 58
    },
    {
      "midi": 69,
      "hit": false,
      "t": 118094.87199999984,
      "d": 1899.795697916663,
      "v": 58
    },
    {
      "midi": 74,
      "hit": false,
      "t": 118094.87199999993,
      "d": 186.01132812499418,
      "v": 54
    },
    {
      "midi": 78,
      "hit": false,
      "t": 118094.87199999993,
      "d": 186.01132812499418,
      "v": 57
    },
    {
      "midi": 81,
      "hit": false,
      "t": 118094.87199999993,
      "d": 186.01132812499418,
      "v": 49
    },
    {
      "midi": 74,
      "hit": false,
      "t": 118094.87200000013,
      "d": 173.61057291667385,
      "v": 76
    },
    {
      "midi": 78,
      "hit": false,
      "t": 118094.87200000013,
      "d": 173.61057291667385,
      "v": 80
    },
    {
      "midi": 81,
      "hit": false,
      "t": 118094.87200000013,
      "d": 173.61057291667385,
      "v": 70
    },
    {
      "midi": 62,
      "hit": false,
      "t": 118094.87200000013,
      "d": 173.61057291667385,
      "v": 76
    },
    {
      "midi": 66,
      "hit": false,
      "t": 118094.87200000013,
      "d": 173.61057291667385,
      "v": 80
    },
    {
      "midi": 69,
      "hit": false,
      "t": 118094.87200000013,
      "d": 173.61057291667385,
      "v": 70
    },
    {
      "midi": 38,
      "hit": false,
      "t": 118094.87200000026,
      "d": 114.08694791667222,
      "v": 78
    },
    {
      "midi": 38,
      "hit": false,
      "t": 118094.87200000125,
      "d": 173.61057291667385,
      "v": 70
    },
    {
      "midi": 38,
      "hit": false,
      "t": 118094.87200000133,
      "d": 208.3326875000057,
      "v": 68
    },
    {
      "midi": 38,
      "hit": false,
      "t": 118213.91925000027,
      "d": 114.08694791667222,
      "v": 78
    },
    {
      "midi": 62,
      "hit": false,
      "t": 118332.9664999986,
      "d": 9.920604166662088,
      "v": 103
    },
    {
      "midi": 66,
      "hit": false,
      "t": 118332.9664999986,
      "d": 9.920604166662088,
      "v": 103
    },
    {
      "midi": 74,
      "hit": false,
      "t": 118332.96649999992,
      "d": 186.01132812499418,
      "v": 65
    },
    {
      "midi": 78,
      "hit": false,
      "t": 118332.96649999992,
      "d": 186.01132812499418,
      "v": 68
    },
    {
      "midi": 81,
      "hit": false,
      "t": 118332.96649999992,
      "d": 186.01132812499418,
      "v": 64
    },
    {
      "midi": 74,
      "hit": false,
      "t": 118332.96650000014,
      "d": 173.61057291667385,
      "v": 91
    },
    {
      "midi": 78,
      "hit": false,
      "t": 118332.96650000014,
      "d": 173.61057291667385,
      "v": 95
    },
    {
      "midi": 81,
      "hit": false,
      "t": 118332.96650000014,
      "d": 173.61057291667385,
      "v": 90
    },
    {
      "midi": 62,
      "hit": false,
      "t": 118332.96650000014,
      "d": 173.61057291667385,
      "v": 91
    },
    {
      "midi": 66,
      "hit": false,
      "t": 118332.96650000014,
      "d": 173.61057291667385,
      "v": 95
    },
    {
      "midi": 69,
      "hit": false,
      "t": 118332.96650000014,
      "d": 173.61057291667385,
      "v": 90
    },
    {
      "midi": 50,
      "hit": false,
      "t": 118332.96650000027,
      "d": 114.08694791667222,
      "v": 78
    },
    {
      "midi": 50,
      "hit": false,
      "t": 118332.96650000126,
      "d": 173.61057291667385,
      "v": 62
    },
    {
      "midi": 38,
      "hit": false,
      "t": 118332.96650000133,
      "d": 208.3326875000057,
      "v": 68
    },
    {
      "midi": 62,
      "hit": false,
      "t": 118452.01374999859,
      "d": 9.920604166662088,
      "v": 103
    },
    {
      "midi": 66,
      "hit": false,
      "t": 118452.01374999859,
      "d": 9.920604166662088,
      "v": 103
    },
    {
      "midi": 50,
      "hit": false,
      "t": 118452.01375000027,
      "d": 114.08694791667222,
      "v": 78
    },
    {
      "midi": 74,
      "hit": false,
      "t": 118571.06099999991,
      "d": 186.01132812499418,
      "v": 71
    },
    {
      "midi": 78,
      "hit": false,
      "t": 118571.06099999991,
      "d": 186.01132812499418,
      "v": 72
    },
    {
      "midi": 81,
      "hit": false,
      "t": 118571.06099999991,
      "d": 186.01132812499418,
      "v": 72
    },
    {
      "midi": 74,
      "hit": false,
      "t": 118571.06100000015,
      "d": 173.61057291667385,
      "v": 99
    },
    {
      "midi": 78,
      "hit": false,
      "t": 118571.06100000015,
      "d": 173.61057291667385,
      "v": 101
    },
    {
      "midi": 81,
      "hit": false,
      "t": 118571.06100000015,
      "d": 173.61057291667385,
      "v": 100
    },
    {
      "midi": 62,
      "hit": false,
      "t": 118571.06100000015,
      "d": 173.61057291667385,
      "v": 99
    },
    {
      "midi": 66,
      "hit": false,
      "t": 118571.06100000015,
      "d": 173.61057291667385,
      "v": 101
    },
    {
      "midi": 69,
      "hit": false,
      "t": 118571.06100000015,
      "d": 173.61057291667385,
      "v": 100
    },
    {
      "midi": 38,
      "hit": false,
      "t": 118571.06100000028,
      "d": 114.08694791667222,
      "v": 78
    },
    {
      "midi": 38,
      "hit": false,
      "t": 118571.06100000127,
      "d": 173.61057291667385,
      "v": 66
    },
    {
      "midi": 38,
      "hit": false,
      "t": 118571.06100000134,
      "d": 208.3326875000057,
      "v": 68
    },
    {
      "midi": 38,
      "hit": false,
      "t": 118690.10825000028,
      "d": 114.08694791667222,
      "v": 78
    },
    {
      "midi": 62,
      "hit": false,
      "t": 118809.15549999858,
      "d": 9.920604166662088,
      "v": 103
    },
    {
      "midi": 66,
      "hit": false,
      "t": 118809.15549999858,
      "d": 9.920604166662088,
      "v": 103
    },
    {
      "midi": 74,
      "hit": false,
      "t": 118809.1554999999,
      "d": 186.01132812499418,
      "v": 70
    },
    {
      "midi": 78,
      "hit": false,
      "t": 118809.1554999999,
      "d": 186.01132812499418,
      "v": 74
    },
    {
      "midi": 81,
      "hit": false,
      "t": 118809.1554999999,
      "d": 186.01132812499418,
      "v": 69
    },
    {
      "midi": 74,
      "hit": false,
      "t": 118809.15550000015,
      "d": 173.61057291667385,
      "v": 98
    },
    {
      "midi": 78,
      "hit": false,
      "t": 118809.15550000015,
      "d": 173.61057291667385,
      "v": 103
    },
    {
      "midi": 81,
      "hit": false,
      "t": 118809.15550000015,
      "d": 173.61057291667385,
      "v": 96
    },
    {
      "midi": 62,
      "hit": false,
      "t": 118809.15550000015,
      "d": 173.61057291667385,
      "v": 98
    },
    {
      "midi": 66,
      "hit": false,
      "t": 118809.15550000015,
      "d": 173.61057291667385,
      "v": 103
    },
    {
      "midi": 69,
      "hit": false,
      "t": 118809.15550000015,
      "d": 173.61057291667385,
      "v": 96
    },
    {
      "midi": 50,
      "hit": false,
      "t": 118809.15550000028,
      "d": 114.08694791667222,
      "v": 78
    },
    {
      "midi": 50,
      "hit": false,
      "t": 118809.15550000127,
      "d": 173.61057291667385,
      "v": 67
    },
    {
      "midi": 38,
      "hit": false,
      "t": 118809.15550000135,
      "d": 208.3326875000057,
      "v": 68
    },
    {
      "midi": 62,
      "hit": false,
      "t": 118928.20274999857,
      "d": 9.920604166662088,
      "v": 103
    },
    {
      "midi": 66,
      "hit": false,
      "t": 118928.20274999857,
      "d": 9.920604166662088,
      "v": 103
    },
    {
      "midi": 50,
      "hit": false,
      "t": 118928.20275000029,
      "d": 114.08694791667222,
      "v": 78
    },
    {
      "midi": 38,
      "hit": false,
      "t": 119047.25000000029,
      "d": 114.08694791667222,
      "v": 78
    },
    {
      "midi": 38,
      "hit": false,
      "t": 119047.25000000128,
      "d": 173.61057291667385,
      "v": 64
    },
    {
      "midi": 38,
      "hit": false,
      "t": 119047.25000000135,
      "d": 208.3326875000057,
      "v": 68
    },
    {
      "midi": 38,
      "hit": false,
      "t": 119166.2972500003,
      "d": 114.08694791667222,
      "v": 78
    },
    {
      "midi": 62,
      "hit": false,
      "t": 119285.34449999857,
      "d": 9.920604166662088,
      "v": 103
    },
    {
      "midi": 66,
      "hit": false,
      "t": 119285.34449999857,
      "d": 9.920604166662088,
      "v": 103
    },
    {
      "midi": 50,
      "hit": false,
      "t": 119285.3445000003,
      "d": 114.08694791667222,
      "v": 78
    },
    {
      "midi": 50,
      "hit": false,
      "t": 119285.34450000129,
      "d": 173.61057291667385,
      "v": 66
    },
    {
      "midi": 38,
      "hit": false,
      "t": 119285.34450000136,
      "d": 208.3326875000057,
      "v": 68
    },
    {
      "midi": 62,
      "hit": false,
      "t": 119404.39174999855,
      "d": 9.920604166662088,
      "v": 103
    },
    {
      "midi": 66,
      "hit": false,
      "t": 119404.39174999855,
      "d": 9.920604166662088,
      "v": 103
    },
    {
      "midi": 50,
      "hit": false,
      "t": 119404.3917500003,
      "d": 114.08694791667222,
      "v": 78
    },
    {
      "midi": 74,
      "hit": false,
      "t": 119523.4389999999,
      "d": 272.8166145833384,
      "v": 68
    },
    {
      "midi": 78,
      "hit": false,
      "t": 119523.4389999999,
      "d": 272.8166145833384,
      "v": 67
    },
    {
      "midi": 83,
      "hit": false,
      "t": 119523.4389999999,
      "d": 272.8166145833384,
      "v": 72
    },
    {
      "midi": 74,
      "hit": false,
      "t": 119523.43900000016,
      "d": 272.8166145833384,
      "v": 95
    },
    {
      "midi": 78,
      "hit": false,
      "t": 119523.43900000016,
      "d": 272.8166145833384,
      "v": 94
    },
    {
      "midi": 83,
      "hit": false,
      "t": 119523.43900000016,
      "d": 272.8166145833384,
      "v": 100
    },
    {
      "midi": 62,
      "hit": false,
      "t": 119523.43900000016,
      "d": 272.8166145833384,
      "v": 95
    },
    {
      "midi": 66,
      "hit": false,
      "t": 119523.43900000016,
      "d": 272.8166145833384,
      "v": 94
    },
    {
      "midi": 71,
      "hit": false,
      "t": 119523.43900000016,
      "d": 272.8166145833384,
      "v": 100
    },
    {
      "midi": 38,
      "hit": false,
      "t": 119523.4390000003,
      "d": 114.08694791667222,
      "v": 78
    },
    {
      "midi": 38,
      "hit": false,
      "t": 119523.4390000013,
      "d": 173.61057291667385,
      "v": 62
    },
    {
      "midi": 38,
      "hit": false,
      "t": 119523.43900000137,
      "d": 208.3326875000057,
      "v": 68
    },
    {
      "midi": 38,
      "hit": false,
      "t": 119642.48625000031,
      "d": 114.08694791667222,
      "v": 78
    },
    {
      "midi": 62,
      "hit": false,
      "t": 119761.53349999855,
      "d": 9.920604166662088,
      "v": 103
    },
    {
      "midi": 66,
      "hit": false,
      "t": 119761.53349999855,
      "d": 9.920604166662088,
      "v": 103
    },
    {
      "midi": 50,
      "hit": false,
      "t": 119761.53350000031,
      "d": 114.08694791667222,
      "v": 78
    },
    {
      "midi": 50,
      "hit": false,
      "t": 119761.5335000013,
      "d": 173.61057291667385,
      "v": 73
    },
    {
      "midi": 38,
      "hit": false,
      "t": 119761.53350000137,
      "d": 208.3326875000057,
      "v": 68
    },
    {
      "midi": 62,
      "hit": false,
      "t": 119880.58074999854,
      "d": 9.920604166662088,
      "v": 103
    },
    {
      "midi": 66,
      "hit": false,
      "t": 119880.58074999854,
      "d": 9.920604166662088,
      "v": 103
    },
    {
      "midi": 50,
      "hit": false,
      "t": 119880.58075000031,
      "d": 114.08694791667222,
      "v": 78
    },
    {
      "midi": 64,
      "hit": false,
      "t": 119999.62799999984,
      "d": 947.4176979166659,
      "v": 58
    },
    {
      "midi": 67,
      "hit": false,
      "t": 119999.62799999984,
      "d": 1899.795697916663,
      "v": 58
    },
    {
      "midi": 71,
      "hit": false,
      "t": 119999.62799999984,
      "d": 1899.795697916663,
      "v": 58
    },
    {
      "midi": 71,
      "hit": false,
      "t": 119999.6279999999,
      "d": 272.8166145833384,
      "v": 63
    },
    {
      "midi": 76,
      "hit": false,
      "t": 119999.6279999999,
      "d": 272.8166145833384,
      "v": 74
    },
    {
      "midi": 79,
      "hit": false,
      "t": 119999.6279999999,
      "d": 272.8166145833384,
      "v": 75
    },
    {
      "midi": 71,
      "hit": false,
      "t": 119999.62800000016,
      "d": 272.8166145833384,
      "v": 88
    },
    {
      "midi": 76,
      "hit": false,
      "t": 119999.62800000016,
      "d": 272.8166145833384,
      "v": 103
    },
    {
      "midi": 79,
      "hit": false,
      "t": 119999.62800000016,
      "d": 272.8166145833384,
      "v": 105
    },
    {
      "midi": 59,
      "hit": false,
      "t": 119999.62800000016,
      "d": 272.8166145833384,
      "v": 88
    },
    {
      "midi": 64,
      "hit": false,
      "t": 119999.62800000016,
      "d": 272.8166145833384,
      "v": 103
    },
    {
      "midi": 67,
      "hit": false,
      "t": 119999.62800000016,
      "d": 272.8166145833384,
      "v": 105
    },
    {
      "midi": 40,
      "hit": false,
      "t": 119999.62800000032,
      "d": 114.08694791667222,
      "v": 78
    },
    {
      "midi": 40,
      "hit": false,
      "t": 119999.6280000013,
      "d": 173.61057291667385,
      "v": 73
    },
    {
      "midi": 40,
      "hit": false,
      "t": 119999.62800000138,
      "d": 208.3326875000057,
      "v": 68
    },
    {
      "midi": 40,
      "hit": false,
      "t": 120118.67525000032,
      "d": 114.08694791667222,
      "v": 78
    },
    {
      "midi": 64,
      "hit": false,
      "t": 120237.72249999853,
      "d": 9.920604166662088,
      "v": 103
    },
    {
      "midi": 67,
      "hit": false,
      "t": 120237.72249999853,
      "d": 9.920604166662088,
      "v": 103
    },
    {
      "midi": 52,
      "hit": false,
      "t": 120237.72250000032,
      "d": 114.08694791667222,
      "v": 78
    },
    {
      "midi": 52,
      "hit": false,
      "t": 120237.72250000131,
      "d": 173.61057291667385,
      "v": 64
    },
    {
      "midi": 40,
      "hit": false,
      "t": 120237.72250000139,
      "d": 208.3326875000057,
      "v": 68
    },
    {
      "midi": 64,
      "hit": false,
      "t": 120356.76974999852,
      "d": 9.920604166662088,
      "v": 103
    },
    {
      "midi": 67,
      "hit": false,
      "t": 120356.76974999852,
      "d": 9.920604166662088,
      "v": 103
    },
    {
      "midi": 52,
      "hit": false,
      "t": 120356.76975000033,
      "d": 114.08694791667222,
      "v": 78
    },
    {
      "midi": 40,
      "hit": false,
      "t": 120475.81700000033,
      "d": 114.08694791667222,
      "v": 78
    },
    {
      "midi": 40,
      "hit": false,
      "t": 120475.81700000132,
      "d": 173.61057291667385,
      "v": 62
    },
    {
      "midi": 40,
      "hit": false,
      "t": 120475.81700000139,
      "d": 208.3326875000057,
      "v": 68
    },
    {
      "midi": 40,
      "hit": false,
      "t": 120594.86425000033,
      "d": 114.08694791667222,
      "v": 78
    },
    {
      "midi": 64,
      "hit": false,
      "t": 120713.91149999852,
      "d": 9.920604166662088,
      "v": 103
    },
    {
      "midi": 67,
      "hit": false,
      "t": 120713.91149999852,
      "d": 9.920604166662088,
      "v": 103
    },
    {
      "midi": 52,
      "hit": false,
      "t": 120713.91150000034,
      "d": 114.08694791667222,
      "v": 78
    },
    {
      "midi": 52,
      "hit": false,
      "t": 120713.91150000133,
      "d": 173.61057291667385,
      "v": 80
    },
    {
      "midi": 40,
      "hit": false,
      "t": 120713.9115000014,
      "d": 208.3326875000057,
      "v": 68
    },
    {
      "midi": 64,
      "hit": false,
      "t": 120832.9587499985,
      "d": 9.920604166662088,
      "v": 103
    },
    {
      "midi": 67,
      "hit": false,
      "t": 120832.9587499985,
      "d": 9.920604166662088,
      "v": 103
    },
    {
      "midi": 52,
      "hit": false,
      "t": 120832.95875000034,
      "d": 114.08694791667222,
      "v": 78
    },
    {
      "midi": 62,
      "hit": false,
      "t": 120952.00599999983,
      "d": 947.4176979166659,
      "v": 58
    },
    {
      "midi": 38,
      "hit": false,
      "t": 120952.00600000034,
      "d": 114.08694791667222,
      "v": 78
    },
    {
      "midi": 38,
      "hit": false,
      "t": 120952.00600000133,
      "d": 173.61057291667385,
      "v": 58
    },
    {
      "midi": 38,
      "hit": false,
      "t": 120952.0060000014,
      "d": 208.3326875000057,
      "v": 68
    },
    {
      "midi": 38,
      "hit": false,
      "t": 121071.05325000035,
      "d": 114.08694791667222,
      "v": 78
    },
    {
      "midi": 62,
      "hit": false,
      "t": 121190.1004999985,
      "d": 9.920604166662088,
      "v": 103
    },
    {
      "midi": 66,
      "hit": false,
      "t": 121190.1004999985,
      "d": 9.920604166662088,
      "v": 103
    },
    {
      "midi": 50,
      "hit": false,
      "t": 121190.10050000035,
      "d": 114.08694791667222,
      "v": 78
    },
    {
      "midi": 50,
      "hit": false,
      "t": 121190.10050000134,
      "d": 173.61057291667385,
      "v": 72
    },
    {
      "midi": 38,
      "hit": false,
      "t": 121190.10050000141,
      "d": 208.3326875000057,
      "v": 68
    },
    {
      "midi": 62,
      "hit": false,
      "t": 121309.14774999849,
      "d": 9.920604166662088,
      "v": 103
    },
    {
      "midi": 66,
      "hit": false,
      "t": 121309.14774999849,
      "d": 9.920604166662088,
      "v": 103
    },
    {
      "midi": 50,
      "hit": false,
      "t": 121309.14775000035,
      "d": 114.08694791667222,
      "v": 78
    },
    {
      "midi": 38,
      "hit": false,
      "t": 121428.19500000036,
      "d": 114.08694791667222,
      "v": 78
    },
    {
      "midi": 38,
      "hit": false,
      "t": 121428.19500000135,
      "d": 173.61057291667385,
      "v": 59
    },
    {
      "midi": 38,
      "hit": false,
      "t": 121428.19500000142,
      "d": 208.3326875000057,
      "v": 68
    },
    {
      "midi": 38,
      "hit": false,
      "t": 121547.24225000036,
      "d": 114.08694791667222,
      "v": 78
    },
    {
      "midi": 62,
      "hit": false,
      "t": 121666.28949999849,
      "d": 9.920604166662088,
      "v": 103
    },
    {
      "midi": 66,
      "hit": false,
      "t": 121666.28949999849,
      "d": 9.920604166662088,
      "v": 103
    },
    {
      "midi": 50,
      "hit": false,
      "t": 121666.28950000036,
      "d": 114.08694791667222,
      "v": 78
    },
    {
      "midi": 50,
      "hit": false,
      "t": 121666.28950000135,
      "d": 173.61057291667385,
      "v": 70
    },
    {
      "midi": 38,
      "hit": false,
      "t": 121666.28950000143,
      "d": 208.3326875000057,
      "v": 68
    },
    {
      "midi": 62,
      "hit": false,
      "t": 121785.33674999847,
      "d": 9.920604166662088,
      "v": 103
    },
    {
      "midi": 66,
      "hit": false,
      "t": 121785.33674999847,
      "d": 9.920604166662088,
      "v": 103
    },
    {
      "midi": 50,
      "hit": false,
      "t": 121785.33675000037,
      "d": 114.08694791667222,
      "v": 78
    },
    {
      "midi": 61,
      "hit": false,
      "t": 121904.38399999983,
      "d": 1423.6066979166644,
      "v": 58
    },
    {
      "midi": 64,
      "hit": false,
      "t": 121904.38399999983,
      "d": 1423.6066979166644,
      "v": 58
    },
    {
      "midi": 69,
      "hit": false,
      "t": 121904.38399999983,
      "d": 1423.6066979166644,
      "v": 58
    },
    {
      "midi": 73,
      "hit": false,
      "t": 121904.3839999999,
      "d": 186.01132812499418,
      "v": 54
    },
    {
      "midi": 76,
      "hit": false,
      "t": 121904.3839999999,
      "d": 186.01132812499418,
      "v": 57
    },
    {
      "midi": 81,
      "hit": false,
      "t": 121904.3839999999,
      "d": 186.01132812499418,
      "v": 49
    },
    {
      "midi": 85,
      "hit": false,
      "t": 121904.384,
      "d": 1899.795697916663,
      "v": 98
    },
    {
      "midi": 73,
      "hit": false,
      "t": 121904.38400000017,
      "d": 173.61057291667385,
      "v": 76
    },
    {
      "midi": 76,
      "hit": false,
      "t": 121904.38400000017,
      "d": 173.61057291667385,
      "v": 80
    },
    {
      "midi": 81,
      "hit": false,
      "t": 121904.38400000017,
      "d": 173.61057291667385,
      "v": 70
    },
    {
      "midi": 61,
      "hit": false,
      "t": 121904.38400000017,
      "d": 173.61057291667385,
      "v": 76
    },
    {
      "midi": 64,
      "hit": false,
      "t": 121904.38400000017,
      "d": 173.61057291667385,
      "v": 80
    },
    {
      "midi": 69,
      "hit": false,
      "t": 121904.38400000017,
      "d": 173.61057291667385,
      "v": 70
    },
    {
      "midi": 33,
      "hit": false,
      "t": 121904.38400000037,
      "d": 114.08694791667222,
      "v": 78
    },
    {
      "midi": 33,
      "hit": false,
      "t": 121904.38400000136,
      "d": 173.61057291667385,
      "v": 74
    },
    {
      "midi": 33,
      "hit": false,
      "t": 121904.38400000143,
      "d": 208.3326875000057,
      "v": 68
    },
    {
      "midi": 33,
      "hit": false,
      "t": 122023.43125000037,
      "d": 114.08694791667222,
      "v": 78
    },
    {
      "midi": 57,
      "hit": false,
      "t": 122142.47849999847,
      "d": 9.920604166662088,
      "v": 103
    },
    {
      "midi": 61,
      "hit": false,
      "t": 122142.47849999847,
      "d": 9.920604166662088,
      "v": 103
    },
    {
      "midi": 73,
      "hit": false,
      "t": 122142.4784999999,
      "d": 186.01132812499418,
      "v": 65
    },
    {
      "midi": 76,
      "hit": false,
      "t": 122142.4784999999,
      "d": 186.01132812499418,
      "v": 68
    },
    {
      "midi": 81,
      "hit": false,
      "t": 122142.4784999999,
      "d": 186.01132812499418,
      "v": 64
    },
    {
      "midi": 73,
      "hit": false,
      "t": 122142.47850000017,
      "d": 173.61057291667385,
      "v": 91
    },
    {
      "midi": 76,
      "hit": false,
      "t": 122142.47850000017,
      "d": 173.61057291667385,
      "v": 95
    },
    {
      "midi": 81,
      "hit": false,
      "t": 122142.47850000017,
      "d": 173.61057291667385,
      "v": 90
    },
    {
      "midi": 61,
      "hit": false,
      "t": 122142.47850000017,
      "d": 173.61057291667385,
      "v": 91
    },
    {
      "midi": 64,
      "hit": false,
      "t": 122142.47850000017,
      "d": 173.61057291667385,
      "v": 95
    },
    {
      "midi": 69,
      "hit": false,
      "t": 122142.47850000017,
      "d": 173.61057291667385,
      "v": 90
    },
    {
      "midi": 45,
      "hit": false,
      "t": 122142.47850000038,
      "d": 114.08694791667222,
      "v": 78
    },
    {
      "midi": 45,
      "hit": false,
      "t": 122142.47850000137,
      "d": 173.61057291667385,
      "v": 70
    },
    {
      "midi": 33,
      "hit": false,
      "t": 122142.47850000144,
      "d": 208.3326875000057,
      "v": 68
    },
    {
      "midi": 57,
      "hit": false,
      "t": 122261.52574999846,
      "d": 9.920604166662088,
      "v": 103
    },
    {
      "midi": 61,
      "hit": false,
      "t": 122261.52574999846,
      "d": 9.920604166662088,
      "v": 103
    },
    {
      "midi": 45,
      "hit": false,
      "t": 122261.52575000038,
      "d": 114.08694791667222,
      "v": 78
    },
    {
      "midi": 73,
      "hit": false,
      "t": 122380.57299999989,
      "d": 186.01132812499418,
      "v": 71
    },
    {
      "midi": 76,
      "hit": false,
      "t": 122380.57299999989,
      "d": 186.01132812499418,
      "v": 72
    },
    {
      "midi": 81,
      "hit": false,
      "t": 122380.57299999989,
      "d": 186.01132812499418,
      "v": 72
    },
    {
      "midi": 73,
      "hit": false,
      "t": 122380.57300000018,
      "d": 173.61057291667385,
      "v": 99
    },
    {
      "midi": 76,
      "hit": false,
      "t": 122380.57300000018,
      "d": 173.61057291667385,
      "v": 101
    },
    {
      "midi": 81,
      "hit": false,
      "t": 122380.57300000018,
      "d": 173.61057291667385,
      "v": 100
    },
    {
      "midi": 61,
      "hit": false,
      "t": 122380.57300000018,
      "d": 173.61057291667385,
      "v": 99
    },
    {
      "midi": 64,
      "hit": false,
      "t": 122380.57300000018,
      "d": 173.61057291667385,
      "v": 101
    },
    {
      "midi": 69,
      "hit": false,
      "t": 122380.57300000018,
      "d": 173.61057291667385,
      "v": 100
    },
    {
      "midi": 33,
      "hit": false,
      "t": 122380.57300000038,
      "d": 114.08694791667222,
      "v": 78
    },
    {
      "midi": 33,
      "hit": false,
      "t": 122380.57300000137,
      "d": 173.61057291667385,
      "v": 64
    },
    {
      "midi": 33,
      "hit": false,
      "t": 122380.57300000144,
      "d": 208.3326875000057,
      "v": 68
    },
    {
      "midi": 33,
      "hit": false,
      "t": 122499.62025000039,
      "d": 114.08694791667222,
      "v": 78
    },
    {
      "midi": 57,
      "hit": false,
      "t": 122618.66749999845,
      "d": 9.920604166662088,
      "v": 103
    },
    {
      "midi": 61,
      "hit": false,
      "t": 122618.66749999845,
      "d": 9.920604166662088,
      "v": 103
    },
    {
      "midi": 73,
      "hit": false,
      "t": 122618.66749999988,
      "d": 186.01132812499418,
      "v": 70
    },
    {
      "midi": 76,
      "hit": false,
      "t": 122618.66749999988,
      "d": 186.01132812499418,
      "v": 74
    },
    {
      "midi": 81,
      "hit": false,
      "t": 122618.66749999988,
      "d": 186.01132812499418,
      "v": 69
    },
    {
      "midi": 73,
      "hit": false,
      "t": 122618.66750000019,
      "d": 173.61057291667385,
      "v": 98
    },
    {
      "midi": 76,
      "hit": false,
      "t": 122618.66750000019,
      "d": 173.61057291667385,
      "v": 103
    },
    {
      "midi": 81,
      "hit": false,
      "t": 122618.66750000019,
      "d": 173.61057291667385,
      "v": 96
    },
    {
      "midi": 61,
      "hit": false,
      "t": 122618.66750000019,
      "d": 173.61057291667385,
      "v": 98
    },
    {
      "midi": 64,
      "hit": false,
      "t": 122618.66750000019,
      "d": 173.61057291667385,
      "v": 103
    },
    {
      "midi": 69,
      "hit": false,
      "t": 122618.66750000019,
      "d": 173.61057291667385,
      "v": 96
    },
    {
      "midi": 45,
      "hit": false,
      "t": 122618.66750000039,
      "d": 114.08694791667222,
      "v": 78
    },
    {
      "midi": 45,
      "hit": false,
      "t": 122618.66750000138,
      "d": 173.61057291667385,
      "v": 74
    },
    {
      "midi": 33,
      "hit": false,
      "t": 122618.66750000145,
      "d": 208.3326875000057,
      "v": 68
    },
    {
      "midi": 57,
      "hit": false,
      "t": 122737.71474999844,
      "d": 9.920604166662088,
      "v": 103
    },
    {
      "midi": 61,
      "hit": false,
      "t": 122737.71474999844,
      "d": 9.920604166662088,
      "v": 103
    },
    {
      "midi": 45,
      "hit": false,
      "t": 122737.71475000039,
      "d": 114.08694791667222,
      "v": 78
    },
    {
      "midi": 33,
      "hit": false,
      "t": 122856.7620000004,
      "d": 114.08694791667222,
      "v": 78
    },
    {
      "midi": 33,
      "hit": false,
      "t": 122856.76200000138,
      "d": 173.61057291667385,
      "v": 50
    },
    {
      "midi": 33,
      "hit": false,
      "t": 122856.76200000146,
      "d": 208.3326875000057,
      "v": 68
    },
    {
      "midi": 33,
      "hit": false,
      "t": 122975.8092500004,
      "d": 114.08694791667222,
      "v": 78
    },
    {
      "midi": 57,
      "hit": false,
      "t": 123094.85649999844,
      "d": 9.920604166662088,
      "v": 103
    },
    {
      "midi": 61,
      "hit": false,
      "t": 123094.85649999844,
      "d": 9.920604166662088,
      "v": 103
    },
    {
      "midi": 45,
      "hit": false,
      "t": 123094.8565000004,
      "d": 114.08694791667222,
      "v": 78
    },
    {
      "midi": 45,
      "hit": false,
      "t": 123094.85650000139,
      "d": 173.61057291667385,
      "v": 73
    },
    {
      "midi": 33,
      "hit": false,
      "t": 123094.85650000146,
      "d": 208.3326875000057,
      "v": 68
    },
    {
      "midi": 57,
      "hit": false,
      "t": 123213.90374999843,
      "d": 9.920604166662088,
      "v": 103
    },
    {
      "midi": 61,
      "hit": false,
      "t": 123213.90374999843,
      "d": 9.920604166662088,
      "v": 103
    },
    {
      "midi": 45,
      "hit": false,
      "t": 123213.9037500004,
      "d": 114.08694791667222,
      "v": 78
    },
    {
      "midi": 61,
      "hit": false,
      "t": 123332.95099999983,
      "d": 471.22869791666744,
      "v": 58
    },
    {
      "midi": 64,
      "hit": false,
      "t": 123332.95099999983,
      "d": 471.22869791666744,
      "v": 58
    },
    {
      "midi": 69,
      "hit": false,
      "t": 123332.95099999983,
      "d": 471.22869791666744,
      "v": 58
    },
    {
      "midi": 72,
      "hit": false,
      "t": 123332.95099999987,
      "d": 272.8166145833384,
      "v": 72
    },
    {
      "midi": 76,
      "hit": false,
      "t": 123332.95099999987,
      "d": 272.8166145833384,
      "v": 68
    },
    {
      "midi": 79,
      "hit": false,
      "t": 123332.95099999987,
      "d": 272.8166145833384,
      "v": 67
    },
    {
      "midi": 72,
      "hit": false,
      "t": 123332.95100000019,
      "d": 272.8166145833384,
      "v": 100
    },
    {
      "midi": 76,
      "hit": false,
      "t": 123332.95100000019,
      "d": 272.8166145833384,
      "v": 95
    },
    {
      "midi": 79,
      "hit": false,
      "t": 123332.95100000019,
      "d": 272.8166145833384,
      "v": 94
    },
    {
      "midi": 60,
      "hit": false,
      "t": 123332.95100000019,
      "d": 272.8166145833384,
      "v": 100
    },
    {
      "midi": 64,
      "hit": false,
      "t": 123332.95100000019,
      "d": 272.8166145833384,
      "v": 95
    },
    {
      "midi": 67,
      "hit": false,
      "t": 123332.95100000019,
      "d": 272.8166145833384,
      "v": 94
    },
    {
      "midi": 33,
      "hit": false,
      "t": 123332.95100000041,
      "d": 114.08694791667222,
      "v": 78
    },
    {
      "midi": 33,
      "hit": false,
      "t": 123332.9510000014,
      "d": 173.61057291667385,
      "v": 66
    },
    {
      "midi": 33,
      "hit": false,
      "t": 123332.95100000147,
      "d": 208.3326875000057,
      "v": 68
    },
    {
      "midi": 33,
      "hit": false,
      "t": 123451.99825000041,
      "d": 114.08694791667222,
      "v": 78
    },
    {
      "midi": 57,
      "hit": false,
      "t": 123571.04549999842,
      "d": 9.920604166662088,
      "v": 103
    },
    {
      "midi": 61,
      "hit": false,
      "t": 123571.04549999842,
      "d": 9.920604166662088,
      "v": 103
    },
    {
      "midi": 45,
      "hit": false,
      "t": 123571.04550000041,
      "d": 114.08694791667222,
      "v": 78
    },
    {
      "midi": 45,
      "hit": false,
      "t": 123571.0455000014,
      "d": 173.61057291667385,
      "v": 86
    },
    {
      "midi": 33,
      "hit": false,
      "t": 123571.04550000148,
      "d": 208.3326875000057,
      "v": 68
    },
    {
      "midi": 57,
      "hit": false,
      "t": 123690.09274999841,
      "d": 9.920604166662088,
      "v": 103
    },
    {
      "midi": 61,
      "hit": false,
      "t": 123690.09274999841,
      "d": 9.920604166662088,
      "v": 103
    },
    {
      "midi": 45,
      "hit": false,
      "t": 123690.09275000042,
      "d": 114.08694791667222,
      "v": 78
    },
    {
      "midi": 60,
      "hit": false,
      "t": 123809.13999999982,
      "d": 1899.795697916663,
      "v": 88
    },
    {
      "midi": 64,
      "hit": false,
      "t": 123809.13999999982,
      "d": 1899.795697916663,
      "v": 58
    },
    {
      "midi": 67,
      "hit": false,
      "t": 123809.13999999982,
      "d": 1899.795697916663,
      "v": 58
    },
    {
      "midi": 72,
      "hit": false,
      "t": 123809.13999999982,
      "d": 1899.795697916663,
      "v": 58
    },
    {
      "midi": 72,
      "hit": false,
      "t": 123809.13999999998,
      "d": 1899.795697916663,
      "v": 88
    },
    {
      "midi": 76,
      "hit": false,
      "t": 123809.13999999998,
      "d": 1899.795697916663,
      "v": 88
    },
    {
      "midi": 36,
      "hit": false,
      "t": 123809.14000000042,
      "d": 114.08694791667222,
      "v": 78
    },
    {
      "midi": 36,
      "hit": false,
      "t": 123809.14000000141,
      "d": 173.61057291667385,
      "v": 74
    },
    {
      "midi": 36,
      "hit": false,
      "t": 123809.14000000148,
      "d": 208.3326875000057,
      "v": 68
    },
    {
      "midi": 36,
      "hit": false,
      "t": 123928.18725000042,
      "d": 114.08694791667222,
      "v": 78
    },
    {
      "midi": 60,
      "hit": false,
      "t": 124047.2344999984,
      "d": 9.920604166662088,
      "v": 103
    },
    {
      "midi": 64,
      "hit": false,
      "t": 124047.2344999984,
      "d": 9.920604166662088,
      "v": 103
    },
    {
      "midi": 48,
      "hit": false,
      "t": 124047.23450000043,
      "d": 114.08694791667222,
      "v": 78
    },
    {
      "midi": 48,
      "hit": false,
      "t": 124047.23450000142,
      "d": 173.61057291667385,
      "v": 70
    },
    {
      "midi": 36,
      "hit": false,
      "t": 124047.23450000149,
      "d": 208.3326875000057,
      "v": 68
    },
    {
      "midi": 60,
      "hit": false,
      "t": 124166.2817499984,
      "d": 9.920604166662088,
      "v": 103
    },
    {
      "midi": 64,
      "hit": false,
      "t": 124166.2817499984,
      "d": 9.920604166662088,
      "v": 103
    },
    {
      "midi": 48,
      "hit": false,
      "t": 124166.28175000043,
      "d": 114.08694791667222,
      "v": 78
    },
    {
      "midi": 36,
      "hit": false,
      "t": 124285.32900000043,
      "d": 114.08694791667222,
      "v": 78
    },
    {
      "midi": 36,
      "hit": false,
      "t": 124285.32900000142,
      "d": 173.61057291667385,
      "v": 64
    },
    {
      "midi": 36,
      "hit": false,
      "t": 124285.3290000015,
      "d": 208.3326875000057,
      "v": 68
    },
    {
      "midi": 36,
      "hit": false,
      "t": 124404.37625000044,
      "d": 114.08694791667222,
      "v": 78
    },
    {
      "midi": 60,
      "hit": false,
      "t": 124523.42349999839,
      "d": 9.920604166662088,
      "v": 103
    },
    {
      "midi": 64,
      "hit": false,
      "t": 124523.42349999839,
      "d": 9.920604166662088,
      "v": 103
    },
    {
      "midi": 48,
      "hit": false,
      "t": 124523.42350000044,
      "d": 114.08694791667222,
      "v": 78
    },
    {
      "midi": 48,
      "hit": false,
      "t": 124523.42350000143,
      "d": 173.61057291667385,
      "v": 74
    },
    {
      "midi": 36,
      "hit": false,
      "t": 124523.4235000015,
      "d": 208.3326875000057,
      "v": 68
    },
    {
      "midi": 60,
      "hit": false,
      "t": 124642.47074999838,
      "d": 9.920604166662088,
      "v": 103
    },
    {
      "midi": 64,
      "hit": false,
      "t": 124642.47074999838,
      "d": 9.920604166662088,
      "v": 103
    },
    {
      "midi": 48,
      "hit": false,
      "t": 124642.47075000044,
      "d": 114.08694791667222,
      "v": 78
    },
    {
      "midi": 36,
      "hit": false,
      "t": 124761.51800000045,
      "d": 114.08694791667222,
      "v": 78
    },
    {
      "midi": 36,
      "hit": false,
      "t": 124761.51800000144,
      "d": 173.61057291667385,
      "v": 50
    },
    {
      "midi": 36,
      "hit": false,
      "t": 124761.51800000151,
      "d": 208.3326875000057,
      "v": 68
    },
    {
      "midi": 36,
      "hit": false,
      "t": 124880.56525000045,
      "d": 114.08694791667222,
      "v": 78
    },
    {
      "midi": 60,
      "hit": false,
      "t": 124999.61249999837,
      "d": 9.920604166662088,
      "v": 103
    },
    {
      "midi": 64,
      "hit": false,
      "t": 124999.61249999837,
      "d": 9.920604166662088,
      "v": 103
    },
    {
      "midi": 48,
      "hit": false,
      "t": 124999.61250000045,
      "d": 114.08694791667222,
      "v": 78
    },
    {
      "midi": 48,
      "hit": false,
      "t": 124999.61250000144,
      "d": 173.61057291667385,
      "v": 73
    },
    {
      "midi": 36,
      "hit": false,
      "t": 124999.61250000152,
      "d": 208.3326875000057,
      "v": 68
    },
    {
      "midi": 60,
      "hit": false,
      "t": 125118.65974999836,
      "d": 9.920604166662088,
      "v": 103
    },
    {
      "midi": 64,
      "hit": false,
      "t": 125118.65974999836,
      "d": 9.920604166662088,
      "v": 103
    },
    {
      "midi": 48,
      "hit": false,
      "t": 125118.65975000046,
      "d": 114.08694791667222,
      "v": 78
    },
    {
      "midi": 36,
      "hit": false,
      "t": 125237.70700000046,
      "d": 114.08694791667222,
      "v": 78
    },
    {
      "midi": 36,
      "hit": false,
      "t": 125237.70700000145,
      "d": 173.61057291667385,
      "v": 66
    },
    {
      "midi": 36,
      "hit": false,
      "t": 125237.70700000152,
      "d": 208.3326875000057,
      "v": 68
    },
    {
      "midi": 36,
      "hit": false,
      "t": 125356.75425000046,
      "d": 114.08694791667222,
      "v": 78
    },
    {
      "midi": 60,
      "hit": false,
      "t": 125475.80149999836,
      "d": 9.920604166662088,
      "v": 103
    },
    {
      "midi": 64,
      "hit": false,
      "t": 125475.80149999836,
      "d": 9.920604166662088,
      "v": 103
    },
    {
      "midi": 48,
      "hit": false,
      "t": 125475.80150000047,
      "d": 114.08694791667222,
      "v": 78
    },
    {
      "midi": 48,
      "hit": false,
      "t": 125475.80150000146,
      "d": 173.61057291667385,
      "v": 86
    },
    {
      "midi": 36,
      "hit": false,
      "t": 125475.80150000153,
      "d": 208.3326875000057,
      "v": 68
    },
    {
      "midi": 60,
      "hit": false,
      "t": 125594.84874999835,
      "d": 9.920604166662088,
      "v": 103
    },
    {
      "midi": 64,
      "hit": false,
      "t": 125594.84874999835,
      "d": 9.920604166662088,
      "v": 103
    },
    {
      "midi": 48,
      "hit": false,
      "t": 125594.84875000047,
      "d": 114.08694791667222,
      "v": 78
    },
    {
      "midi": 62,
      "hit": false,
      "t": 125713.89599999982,
      "d": 1423.6066979166644,
      "v": 58
    },
    {
      "midi": 59,
      "hit": false,
      "t": 125713.89599999982,
      "d": 1899.795697916663,
      "v": 88
    },
    {
      "midi": 67,
      "hit": false,
      "t": 125713.89599999982,
      "d": 1899.795697916663,
      "v": 58
    },
    {
      "midi": 71,
      "hit": false,
      "t": 125713.89599999982,
      "d": 1899.795697916663,
      "v": 58
    },
    {
      "midi": 71,
      "hit": false,
      "t": 125713.89599999998,
      "d": 1899.795697916663,
      "v": 88
    },
    {
      "midi": 74,
      "hit": false,
      "t": 125713.89599999998,
      "d": 1899.795697916663,
      "v": 88
    },
    {
      "midi": 43,
      "hit": false,
      "t": 125713.89600000047,
      "d": 114.08694791667222,
      "v": 78
    },
    {
      "midi": 31,
      "hit": false,
      "t": 125713.89600000146,
      "d": 173.61057291667385,
      "v": 76
    },
    {
      "midi": 31,
      "hit": false,
      "t": 125713.89600000154,
      "d": 208.3326875000057,
      "v": 68
    },
    {
      "midi": 43,
      "hit": false,
      "t": 125832.94325000048,
      "d": 114.08694791667222,
      "v": 78
    },
    {
      "midi": 67,
      "hit": false,
      "t": 125951.99049999834,
      "d": 9.920604166662088,
      "v": 103
    },
    {
      "midi": 71,
      "hit": false,
      "t": 125951.99049999834,
      "d": 9.920604166662088,
      "v": 103
    },
    {
      "midi": 55,
      "hit": false,
      "t": 125951.99050000048,
      "d": 114.08694791667222,
      "v": 78
    },
    {
      "midi": 43,
      "hit": false,
      "t": 125951.99050000147,
      "d": 173.61057291667385,
      "v": 82
    },
    {
      "midi": 31,
      "hit": false,
      "t": 125951.99050000154,
      "d": 208.3326875000057,
      "v": 68
    },
    {
      "midi": 67,
      "hit": false,
      "t": 126071.03774999833,
      "d": 9.920604166662088,
      "v": 103
    },
    {
      "midi": 71,
      "hit": false,
      "t": 126071.03774999833,
      "d": 9.920604166662088,
      "v": 103
    },
    {
      "midi": 55,
      "hit": false,
      "t": 126071.03775000048,
      "d": 114.08694791667222,
      "v": 78
    },
    {
      "midi": 43,
      "hit": false,
      "t": 126190.08500000049,
      "d": 114.08694791667222,
      "v": 78
    },
    {
      "midi": 31,
      "hit": false,
      "t": 126190.08500000148,
      "d": 173.61057291667385,
      "v": 62
    },
    {
      "midi": 31,
      "hit": false,
      "t": 126190.08500000155,
      "d": 208.3326875000057,
      "v": 68
    },
    {
      "midi": 43,
      "hit": false,
      "t": 126309.13225000049,
      "d": 114.08694791667222,
      "v": 78
    },
    {
      "midi": 67,
      "hit": false,
      "t": 126428.17949999832,
      "d": 9.920604166662088,
      "v": 103
    },
    {
      "midi": 71,
      "hit": false,
      "t": 126428.17949999832,
      "d": 9.920604166662088,
      "v": 103
    },
    {
      "midi": 55,
      "hit": false,
      "t": 126428.1795000005,
      "d": 114.08694791667222,
      "v": 78
    },
    {
      "midi": 43,
      "hit": false,
      "t": 126428.17950000148,
      "d": 173.61057291667385,
      "v": 78
    },
    {
      "midi": 31,
      "hit": false,
      "t": 126428.17950000156,
      "d": 208.3326875000057,
      "v": 68
    },
    {
      "midi": 67,
      "hit": false,
      "t": 126547.22674999831,
      "d": 9.920604166662088,
      "v": 103
    },
    {
      "midi": 71,
      "hit": false,
      "t": 126547.22674999831,
      "d": 9.920604166662088,
      "v": 103
    },
    {
      "midi": 55,
      "hit": false,
      "t": 126547.2267500005,
      "d": 114.08694791667222,
      "v": 78
    },
    {
      "midi": 43,
      "hit": false,
      "t": 126666.2740000005,
      "d": 114.08694791667222,
      "v": 78
    },
    {
      "midi": 31,
      "hit": false,
      "t": 126666.27400000149,
      "d": 173.61057291667385,
      "v": 67
    },
    {
      "midi": 31,
      "hit": false,
      "t": 126666.27400000156,
      "d": 208.3326875000057,
      "v": 68
    },
    {
      "midi": 43,
      "hit": false,
      "t": 126785.3212500005,
      "d": 114.08694791667222,
      "v": 78
    },
    {
      "midi": 67,
      "hit": false,
      "t": 126904.36849999831,
      "d": 9.920604166662088,
      "v": 103
    },
    {
      "midi": 71,
      "hit": false,
      "t": 126904.36849999831,
      "d": 9.920604166662088,
      "v": 103
    },
    {
      "midi": 55,
      "hit": false,
      "t": 126904.3685000005,
      "d": 114.08694791667222,
      "v": 78
    },
    {
      "midi": 43,
      "hit": false,
      "t": 126904.3685000015,
      "d": 173.61057291667385,
      "v": 70
    },
    {
      "midi": 31,
      "hit": false,
      "t": 126904.36850000157,
      "d": 208.3326875000057,
      "v": 68
    },
    {
      "midi": 67,
      "hit": false,
      "t": 127023.4157499983,
      "d": 9.920604166662088,
      "v": 103
    },
    {
      "midi": 71,
      "hit": false,
      "t": 127023.4157499983,
      "d": 9.920604166662088,
      "v": 103
    },
    {
      "midi": 55,
      "hit": false,
      "t": 127023.41575000051,
      "d": 114.08694791667222,
      "v": 78
    },
    {
      "midi": 43,
      "hit": false,
      "t": 127142.46300000051,
      "d": 114.08694791667222,
      "v": 78
    },
    {
      "midi": 31,
      "hit": false,
      "t": 127142.4630000015,
      "d": 173.61057291667385,
      "v": 56
    },
    {
      "midi": 31,
      "hit": false,
      "t": 127142.46300000157,
      "d": 208.3326875000057,
      "v": 68
    },
    {
      "midi": 43,
      "hit": false,
      "t": 127261.51025000052,
      "d": 114.08694791667222,
      "v": 78
    },
    {
      "midi": 67,
      "hit": false,
      "t": 127380.5574999983,
      "d": 9.920604166662088,
      "v": 103
    },
    {
      "midi": 71,
      "hit": false,
      "t": 127380.5574999983,
      "d": 9.920604166662088,
      "v": 103
    },
    {
      "midi": 55,
      "hit": false,
      "t": 127380.55750000052,
      "d": 114.08694791667222,
      "v": 78
    },
    {
      "midi": 43,
      "hit": false,
      "t": 127380.55750000151,
      "d": 173.61057291667385,
      "v": 70
    },
    {
      "midi": 31,
      "hit": false,
      "t": 127380.55750000158,
      "d": 208.3326875000057,
      "v": 68
    },
    {
      "midi": 67,
      "hit": false,
      "t": 127499.60474999828,
      "d": 9.920604166662088,
      "v": 103
    },
    {
      "midi": 71,
      "hit": false,
      "t": 127499.60474999828,
      "d": 9.920604166662088,
      "v": 103
    },
    {
      "midi": 55,
      "hit": false,
      "t": 127499.60475000052,
      "d": 114.08694791667222,
      "v": 78
    },
    {
      "midi": 60,
      "hit": false,
      "t": 127618.65199999981,
      "d": 1423.6066979166644,
      "v": 88
    },
    {
      "midi": 64,
      "hit": false,
      "t": 127618.65199999981,
      "d": 1423.6066979166644,
      "v": 58
    },
    {
      "midi": 67,
      "hit": false,
      "t": 127618.65199999981,
      "d": 1423.6066979166644,
      "v": 58
    },
    {
      "midi": 72,
      "hit": false,
      "t": 127618.65199999981,
      "d": 1423.6066979166644,
      "v": 58
    },
    {
      "midi": 72,
      "hit": false,
      "t": 127618.65199999997,
      "d": 1423.6066979166644,
      "v": 88
    },
    {
      "midi": 76,
      "hit": false,
      "t": 127618.65199999997,
      "d": 1423.6066979166644,
      "v": 88
    },
    {
      "midi": 36,
      "hit": false,
      "t": 127618.65200000053,
      "d": 114.08694791667222,
      "v": 78
    },
    {
      "midi": 36,
      "hit": false,
      "t": 127618.65200000152,
      "d": 173.61057291667385,
      "v": 74
    },
    {
      "midi": 36,
      "hit": false,
      "t": 127618.65200000159,
      "d": 208.3326875000057,
      "v": 68
    },
    {
      "midi": 36,
      "hit": false,
      "t": 127737.69925000053,
      "d": 114.08694791667222,
      "v": 78
    },
    {
      "midi": 60,
      "hit": false,
      "t": 127856.74649999828,
      "d": 9.920604166662088,
      "v": 103
    },
    {
      "midi": 64,
      "hit": false,
      "t": 127856.74649999828,
      "d": 9.920604166662088,
      "v": 103
    },
    {
      "midi": 48,
      "hit": false,
      "t": 127856.74650000053,
      "d": 114.08694791667222,
      "v": 78
    },
    {
      "midi": 48,
      "hit": false,
      "t": 127856.74650000152,
      "d": 173.61057291667385,
      "v": 70
    },
    {
      "midi": 36,
      "hit": false,
      "t": 127856.7465000016,
      "d": 208.3326875000057,
      "v": 68
    },
    {
      "midi": 60,
      "hit": false,
      "t": 127975.79374999827,
      "d": 9.920604166662088,
      "v": 103
    },
    {
      "midi": 64,
      "hit": false,
      "t": 127975.79374999827,
      "d": 9.920604166662088,
      "v": 103
    },
    {
      "midi": 48,
      "hit": false,
      "t": 127975.79375000054,
      "d": 114.08694791667222,
      "v": 78
    },
    {
      "midi": 36,
      "hit": false,
      "t": 128094.84100000054,
      "d": 114.08694791667222,
      "v": 78
    },
    {
      "midi": 36,
      "hit": false,
      "t": 128094.84100000153,
      "d": 173.61057291667385,
      "v": 64
    },
    {
      "midi": 36,
      "hit": false,
      "t": 128094.8410000016,
      "d": 208.3326875000057,
      "v": 68
    },
    {
      "midi": 36,
      "hit": false,
      "t": 128213.88825000054,
      "d": 114.08694791667222,
      "v": 78
    },
    {
      "midi": 60,
      "hit": false,
      "t": 128332.93549999826,
      "d": 9.920604166662088,
      "v": 103
    },
    {
      "midi": 64,
      "hit": false,
      "t": 128332.93549999826,
      "d": 9.920604166662088,
      "v": 103
    },
    {
      "midi": 48,
      "hit": false,
      "t": 128332.93550000055,
      "d": 114.08694791667222,
      "v": 78
    },
    {
      "midi": 48,
      "hit": false,
      "t": 128332.93550000153,
      "d": 173.61057291667385,
      "v": 74
    },
    {
      "midi": 36,
      "hit": false,
      "t": 128332.93550000161,
      "d": 208.3326875000057,
      "v": 68
    },
    {
      "midi": 60,
      "hit": false,
      "t": 128451.98274999825,
      "d": 9.920604166662088,
      "v": 103
    },
    {
      "midi": 64,
      "hit": false,
      "t": 128451.98274999825,
      "d": 9.920604166662088,
      "v": 103
    },
    {
      "midi": 48,
      "hit": false,
      "t": 128451.98275000055,
      "d": 114.08694791667222,
      "v": 78
    },
    {
      "midi": 36,
      "hit": false,
      "t": 128571.03000000055,
      "d": 114.08694791667222,
      "v": 78
    },
    {
      "midi": 36,
      "hit": false,
      "t": 128571.03000000154,
      "d": 173.61057291667385,
      "v": 50
    },
    {
      "midi": 36,
      "hit": false,
      "t": 128571.03000000161,
      "d": 208.3326875000057,
      "v": 68
    },
    {
      "midi": 36,
      "hit": false,
      "t": 128690.07725000056,
      "d": 114.08694791667222,
      "v": 78
    },
    {
      "midi": 60,
      "hit": false,
      "t": 128809.12449999824,
      "d": 9.920604166662088,
      "v": 103
    },
    {
      "midi": 64,
      "hit": false,
      "t": 128809.12449999824,
      "d": 9.920604166662088,
      "v": 103
    },
    {
      "midi": 48,
      "hit": false,
      "t": 128809.12450000056,
      "d": 114.08694791667222,
      "v": 78
    },
    {
      "midi": 48,
      "hit": false,
      "t": 128809.12450000155,
      "d": 173.61057291667385,
      "v": 73
    },
    {
      "midi": 36,
      "hit": false,
      "t": 128809.12450000162,
      "d": 208.3326875000057,
      "v": 68
    },
    {
      "midi": 60,
      "hit": false,
      "t": 128928.17174999823,
      "d": 9.920604166662088,
      "v": 103
    },
    {
      "midi": 64,
      "hit": false,
      "t": 128928.17174999823,
      "d": 9.920604166662088,
      "v": 103
    },
    {
      "midi": 48,
      "hit": false,
      "t": 128928.17175000056,
      "d": 114.08694791667222,
      "v": 78
    },
    {
      "midi": 59,
      "hit": false,
      "t": 129047.21899999981,
      "d": 471.22869791666744,
      "v": 88
    },
    {
      "midi": 62,
      "hit": false,
      "t": 129047.21899999981,
      "d": 471.22869791666744,
      "v": 58
    },
    {
      "midi": 67,
      "hit": false,
      "t": 129047.21899999981,
      "d": 471.22869791666744,
      "v": 58
    },
    {
      "midi": 71,
      "hit": false,
      "t": 129047.21899999981,
      "d": 471.22869791666744,
      "v": 58
    },
    {
      "midi": 71,
      "hit": false,
      "t": 129047.21899999997,
      "d": 471.22869791666744,
      "v": 88
    },
    {
      "midi": 74,
      "hit": false,
      "t": 129047.21899999997,
      "d": 471.22869791666744,
      "v": 88
    },
    {
      "midi": 35,
      "hit": false,
      "t": 129047.21900000056,
      "d": 114.08694791667222,
      "v": 78
    },
    {
      "midi": 35,
      "hit": false,
      "t": 129047.21900000155,
      "d": 173.61057291667385,
      "v": 66
    },
    {
      "midi": 35,
      "hit": false,
      "t": 129047.21900000163,
      "d": 208.3326875000057,
      "v": 68
    },
    {
      "midi": 35,
      "hit": false,
      "t": 129166.26625000057,
      "d": 114.08694791667222,
      "v": 78
    },
    {
      "midi": 59,
      "hit": false,
      "t": 129285.31349999823,
      "d": 9.920604166662088,
      "v": 103
    },
    {
      "midi": 62,
      "hit": false,
      "t": 129285.31349999823,
      "d": 9.920604166662088,
      "v": 103
    },
    {
      "midi": 47,
      "hit": false,
      "t": 129285.31350000057,
      "d": 114.08694791667222,
      "v": 78
    },
    {
      "midi": 47,
      "hit": false,
      "t": 129285.31350000156,
      "d": 173.61057291667385,
      "v": 86
    },
    {
      "midi": 35,
      "hit": false,
      "t": 129285.31350000163,
      "d": 208.3326875000057,
      "v": 68
    },
    {
      "midi": 59,
      "hit": false,
      "t": 129404.36074999822,
      "d": 9.920604166662088,
      "v": 103
    },
    {
      "midi": 62,
      "hit": false,
      "t": 129404.36074999822,
      "d": 9.920604166662088,
      "v": 103
    },
    {
      "midi": 47,
      "hit": false,
      "t": 129404.36075000057,
      "d": 114.08694791667222,
      "v": 78
    },
    {
      "midi": 57,
      "hit": false,
      "t": 129523.4079999998,
      "d": 947.4176979166659,
      "v": 88
    },
    {
      "midi": 64,
      "hit": false,
      "t": 129523.4079999998,
      "d": 947.4176979166659,
      "v": 58
    },
    {
      "midi": 69,
      "hit": false,
      "t": 129523.4079999998,
      "d": 947.4176979166659,
      "v": 58
    },
    {
      "midi": 72,
      "hit": false,
      "t": 129523.4079999998,
      "d": 947.4176979166659,
      "v": 58
    },
    {
      "midi": 69,
      "hit": false,
      "t": 129523.40799999997,
      "d": 947.4176979166659,
      "v": 88
    },
    {
      "midi": 72,
      "hit": false,
      "t": 129523.40799999997,
      "d": 947.4176979166659,
      "v": 88
    },
    {
      "midi": 33,
      "hit": false,
      "t": 129523.40800000058,
      "d": 114.08694791667222,
      "v": 78
    },
    {
      "midi": 33,
      "hit": false,
      "t": 129523.40800000157,
      "d": 173.61057291667385,
      "v": 74
    },
    {
      "midi": 33,
      "hit": false,
      "t": 129523.40800000164,
      "d": 208.3326875000057,
      "v": 68
    },
    {
      "midi": 33,
      "hit": false,
      "t": 129642.45525000058,
      "d": 114.08694791667222,
      "v": 78
    },
    {
      "midi": 57,
      "hit": false,
      "t": 129761.50249999821,
      "d": 9.920604166662088,
      "v": 75
    },
    {
      "midi": 60,
      "hit": false,
      "t": 129761.50249999821,
      "d": 9.920604166662088,
      "v": 67
    },
    {
      "midi": 45,
      "hit": false,
      "t": 129761.50250000058,
      "d": 114.08694791667222,
      "v": 78
    },
    {
      "midi": 45,
      "hit": false,
      "t": 129761.50250000157,
      "d": 173.61057291667385,
      "v": 70
    },
    {
      "midi": 33,
      "hit": false,
      "t": 129761.50250000165,
      "d": 208.3326875000057,
      "v": 68
    },
    {
      "midi": 57,
      "hit": false,
      "t": 129880.5497499982,
      "d": 9.920604166662088,
      "v": 86
    },
    {
      "midi": 60,
      "hit": false,
      "t": 129880.5497499982,
      "d": 9.920604166662088,
      "v": 77
    },
    {
      "midi": 45,
      "hit": false,
      "t": 129880.54975000059,
      "d": 114.08694791667222,
      "v": 78
    },
    {
      "midi": 33,
      "hit": false,
      "t": 129999.59700000059,
      "d": 114.08694791667222,
      "v": 78
    },
    {
      "midi": 33,
      "hit": false,
      "t": 129999.59700000158,
      "d": 173.61057291667385,
      "v": 64
    },
    {
      "midi": 33,
      "hit": false,
      "t": 129999.59700000165,
      "d": 208.3326875000057,
      "v": 68
    },
    {
      "midi": 33,
      "hit": false,
      "t": 130118.6442500006,
      "d": 114.08694791667222,
      "v": 78
    },
    {
      "midi": 57,
      "hit": false,
      "t": 130237.6914999982,
      "d": 9.920604166662088,
      "v": 86
    },
    {
      "midi": 60,
      "hit": false,
      "t": 130237.6914999982,
      "d": 9.920604166662088,
      "v": 71
    },
    {
      "midi": 45,
      "hit": false,
      "t": 130237.6915000006,
      "d": 114.08694791667222,
      "v": 78
    },
    {
      "midi": 45,
      "hit": false,
      "t": 130237.69150000159,
      "d": 173.61057291667385,
      "v": 74
    },
    {
      "midi": 33,
      "hit": false,
      "t": 130237.69150000166,
      "d": 208.3326875000057,
      "v": 68
    },
    {
      "midi": 57,
      "hit": false,
      "t": 130356.73874999819,
      "d": 9.920604166662088,
      "v": 88
    },
    {
      "midi": 60,
      "hit": false,
      "t": 130356.73874999819,
      "d": 9.920604166662088,
      "v": 75
    },
    {
      "midi": 45,
      "hit": false,
      "t": 130356.7387500006,
      "d": 114.08694791667222,
      "v": 78
    },
    {
      "midi": 55,
      "hit": false,
      "t": 130475.7859999998,
      "d": 471.22869791666744,
      "v": 88
    },
    {
      "midi": 64,
      "hit": false,
      "t": 130475.7859999998,
      "d": 947.4176979166659,
      "v": 58
    },
    {
      "midi": 67,
      "hit": false,
      "t": 130475.7859999998,
      "d": 947.4176979166659,
      "v": 58
    },
    {
      "midi": 71,
      "hit": false,
      "t": 130475.7859999998,
      "d": 947.4176979166659,
      "v": 58
    },
    {
      "midi": 67,
      "hit": false,
      "t": 130475.78599999996,
      "d": 947.4176979166805,
      "v": 88
    },
    {
      "midi": 72,
      "hit": false,
      "t": 130475.78599999996,
      "d": 947.4176979166805,
      "v": 88
    },
    {
      "midi": 43,
      "hit": false,
      "t": 130475.7860000006,
      "d": 114.08694791667222,
      "v": 78
    },
    {
      "midi": 43,
      "hit": false,
      "t": 130475.7860000016,
      "d": 173.61057291667385,
      "v": 50
    },
    {
      "midi": 43,
      "hit": false,
      "t": 130475.78600000167,
      "d": 208.3326875000057,
      "v": 68
    },
    {
      "midi": 43,
      "hit": false,
      "t": 130594.8332500006,
      "d": 114.08694791667222,
      "v": 78
    },
    {
      "midi": 67,
      "hit": false,
      "t": 130713.88049999818,
      "d": 9.920604166662088,
      "v": 86
    },
    {
      "midi": 71,
      "hit": false,
      "t": 130713.88049999818,
      "d": 9.920604166662088,
      "v": 74
    },
    {
      "midi": 55,
      "hit": false,
      "t": 130713.88050000061,
      "d": 114.08694791667222,
      "v": 78
    },
    {
      "midi": 55,
      "hit": false,
      "t": 130713.8805000016,
      "d": 173.61057291667385,
      "v": 73
    },
    {
      "midi": 43,
      "hit": false,
      "t": 130713.88050000167,
      "d": 208.3326875000057,
      "v": 68
    },
    {
      "midi": 67,
      "hit": false,
      "t": 130832.92774999817,
      "d": 9.920604166662088,
      "v": 85
    },
    {
      "midi": 71,
      "hit": false,
      "t": 130832.92774999817,
      "d": 9.920604166662088,
      "v": 78
    },
    {
      "midi": 55,
      "hit": false,
      "t": 130832.92775000061,
      "d": 114.08694791667222,
      "v": 78
    },
    {
      "midi": 52,
      "hit": false,
      "t": 130951.9749999998,
      "d": 471.22869791666744,
      "v": 88
    },
    {
      "midi": 40,
      "hit": false,
      "t": 130951.97500000062,
      "d": 114.08694791667222,
      "v": 78
    },
    {
      "midi": 40,
      "hit": false,
      "t": 130951.9750000016,
      "d": 173.6105729166593,
      "v": 66
    },
    {
      "midi": 40,
      "hit": false,
      "t": 130951.97500000168,
      "d": 208.3326875000057,
      "v": 68
    },
    {
      "midi": 40,
      "hit": false,
      "t": 131071.02225000062,
      "d": 114.08694791665766,
      "v": 78
    },
    {
      "midi": 67,
      "hit": false,
      "t": 131190.06949999818,
      "d": 9.920604166662088,
      "v": 92
    },
    {
      "midi": 71,
      "hit": false,
      "t": 131190.06949999818,
      "d": 9.920604166662088,
      "v": 77
    },
    {
      "midi": 52,
      "hit": false,
      "t": 131190.06950000062,
      "d": 114.08694791665766,
      "v": 78
    },
    {
      "midi": 52,
      "hit": false,
      "t": 131190.0695000016,
      "d": 173.6105729166593,
      "v": 86
    },
    {
      "midi": 40,
      "hit": false,
      "t": 131190.06950000167,
      "d": 208.33268749999115,
      "v": 68
    },
    {
      "midi": 67,
      "hit": false,
      "t": 131309.11674999818,
      "d": 9.920604166662088,
      "v": 90
    },
    {
      "midi": 71,
      "hit": false,
      "t": 131309.11674999818,
      "d": 9.920604166662088,
      "v": 82
    },
    {
      "midi": 52,
      "hit": false,
      "t": 131309.11675000063,
      "d": 114.08694791665766,
      "v": 78
    },
    {
      "midi": 50,
      "hit": false,
      "t": 131428.16399999982,
      "d": 1899.7956979166775,
      "v": 88
    },
    {
      "midi": 66,
      "hit": false,
      "t": 131428.16399999982,
      "d": 1899.7956979166775,
      "v": 58
    },
    {
      "midi": 69,
      "hit": false,
      "t": 131428.16399999982,
      "d": 1899.7956979166775,
      "v": 58
    },
    {
      "midi": 74,
      "hit": false,
      "t": 131428.16399999982,
      "d": 1899.7956979166775,
      "v": 58
    },
    {
      "midi": 66,
      "hit": false,
      "t": 131428.164,
      "d": 1899.7956979166775,
      "v": 88
    },
    {
      "midi": 74,
      "hit": false,
      "t": 131428.164,
      "d": 1899.7956979166775,
      "v": 88
    },
    {
      "midi": 38,
      "hit": false,
      "t": 131428.16400000063,
      "d": 114.08694791665766,
      "v": 78
    },
    {
      "midi": 38,
      "hit": false,
      "t": 131428.16400000162,
      "d": 173.6105729166593,
      "v": 70
    },
    {
      "midi": 38,
      "hit": false,
      "t": 131428.16400000165,
      "d": 208.33268749999115,
      "v": 68
    },
    {
      "midi": 38,
      "hit": false,
      "t": 131547.21125000063,
      "d": 114.08694791665766,
      "v": 78
    },
    {
      "midi": 62,
      "hit": false,
      "t": 131666.2584999982,
      "d": 9.920604166662088,
      "v": 103
    },
    {
      "midi": 66,
      "hit": false,
      "t": 131666.2584999982,
      "d": 9.920604166662088,
      "v": 103
    },
    {
      "midi": 50,
      "hit": false,
      "t": 131666.25850000064,
      "d": 114.08694791665766,
      "v": 78
    },
    {
      "midi": 38,
      "hit": false,
      "t": 131666.25850000163,
      "d": 208.33268749999115,
      "v": 68
    },
    {
      "midi": 50,
      "hit": false,
      "t": 131666.25850000163,
      "d": 173.6105729166593,
      "v": 62
    },
    {
      "midi": 62,
      "hit": false,
      "t": 131785.3057499982,
      "d": 9.920604166662088,
      "v": 103
    },
    {
      "midi": 66,
      "hit": false,
      "t": 131785.3057499982,
      "d": 9.920604166662088,
      "v": 103
    },
    {
      "midi": 50,
      "hit": false,
      "t": 131785.30575000064,
      "d": 114.08694791665766,
      "v": 78
    },
    {
      "midi": 38,
      "hit": false,
      "t": 131904.35300000064,
      "d": 114.08694791665766,
      "v": 78
    },
    {
      "midi": 38,
      "hit": false,
      "t": 131904.3530000016,
      "d": 208.33268749999115,
      "v": 68
    },
    {
      "midi": 38,
      "hit": false,
      "t": 131904.35300000163,
      "d": 173.6105729166593,
      "v": 66
    },
    {
      "midi": 38,
      "hit": false,
      "t": 132023.40025000065,
      "d": 114.08694791665766,
      "v": 78
    },
    {
      "midi": 62,
      "hit": false,
      "t": 132142.4474999982,
      "d": 9.920604166662088,
      "v": 103
    },
    {
      "midi": 66,
      "hit": false,
      "t": 132142.4474999982,
      "d": 9.920604166662088,
      "v": 103
    },
    {
      "midi": 50,
      "hit": false,
      "t": 132142.44750000065,
      "d": 114.08694791665766,
      "v": 78
    },
    {
      "midi": 38,
      "hit": false,
      "t": 132142.44750000158,
      "d": 208.33268749999115,
      "v": 68
    },
    {
      "midi": 50,
      "hit": false,
      "t": 132142.44750000164,
      "d": 173.6105729166593,
      "v": 67
    },
    {
      "midi": 62,
      "hit": false,
      "t": 132261.4947499982,
      "d": 9.920604166662088,
      "v": 103
    },
    {
      "midi": 66,
      "hit": false,
      "t": 132261.4947499982,
      "d": 9.920604166662088,
      "v": 103
    },
    {
      "midi": 50,
      "hit": false,
      "t": 132261.49475000065,
      "d": 114.08694791665766,
      "v": 78
    },
    {
      "midi": 38,
      "hit": false,
      "t": 132380.54200000066,
      "d": 114.08694791665766,
      "v": 78
    },
    {
      "midi": 38,
      "hit": false,
      "t": 132380.54200000156,
      "d": 208.33268749999115,
      "v": 68
    },
    {
      "midi": 38,
      "hit": false,
      "t": 132380.54200000165,
      "d": 173.6105729166593,
      "v": 64
    },
    {
      "midi": 38,
      "hit": false,
      "t": 132499.58925000066,
      "d": 114.08694791665766,
      "v": 78
    },
    {
      "midi": 62,
      "hit": false,
      "t": 132618.63649999822,
      "d": 9.920604166662088,
      "v": 103
    },
    {
      "midi": 66,
      "hit": false,
      "t": 132618.63649999822,
      "d": 9.920604166662088,
      "v": 103
    },
    {
      "midi": 50,
      "hit": false,
      "t": 132618.63650000066,
      "d": 114.08694791665766,
      "v": 78
    },
    {
      "midi": 38,
      "hit": false,
      "t": 132618.63650000154,
      "d": 208.33268749999115,
      "v": 68
    },
    {
      "midi": 50,
      "hit": false,
      "t": 132618.63650000165,
      "d": 173.6105729166593,
      "v": 66
    },
    {
      "midi": 62,
      "hit": false,
      "t": 132737.68374999822,
      "d": 9.920604166662088,
      "v": 103
    },
    {
      "midi": 66,
      "hit": false,
      "t": 132737.68374999822,
      "d": 9.920604166662088,
      "v": 103
    },
    {
      "midi": 50,
      "hit": false,
      "t": 132737.68375000067,
      "d": 114.08694791665766,
      "v": 78
    },
    {
      "midi": 38,
      "hit": false,
      "t": 132856.73100000067,
      "d": 114.08694791665766,
      "v": 78
    },
    {
      "midi": 38,
      "hit": false,
      "t": 132856.7310000015,
      "d": 208.33268749999115,
      "v": 68
    },
    {
      "midi": 38,
      "hit": false,
      "t": 132856.73100000166,
      "d": 173.6105729166593,
      "v": 62
    },
    {
      "midi": 38,
      "hit": false,
      "t": 132975.77825000067,
      "d": 114.08694791665766,
      "v": 78
    },
    {
      "midi": 62,
      "hit": false,
      "t": 133094.82549999823,
      "d": 9.920604166662088,
      "v": 103
    },
    {
      "midi": 66,
      "hit": false,
      "t": 133094.82549999823,
      "d": 9.920604166662088,
      "v": 103
    },
    {
      "midi": 50,
      "hit": false,
      "t": 133094.82550000068,
      "d": 114.08694791665766,
      "v": 78
    },
    {
      "midi": 38,
      "hit": false,
      "t": 133094.8255000015,
      "d": 208.33268749999115,
      "v": 68
    },
    {
      "midi": 50,
      "hit": false,
      "t": 133094.82550000167,
      "d": 173.6105729166593,
      "v": 73
    },
    {
      "midi": 62,
      "hit": false,
      "t": 133213.87274999823,
      "d": 9.920604166662088,
      "v": 103
    },
    {
      "midi": 66,
      "hit": false,
      "t": 133213.87274999823,
      "d": 9.920604166662088,
      "v": 103
    },
    {
      "midi": 50,
      "hit": false,
      "t": 133213.87275000068,
      "d": 114.08694791665766,
      "v": 78
    },
    {
      "midi": 62,
      "hit": false,
      "t": 133332.91999999984,
      "d": 1899.795697916561,
      "v": 58
    },
    {
      "midi": 67,
      "hit": false,
      "t": 133332.91999999984,
      "d": 1899.795697916561,
      "v": 58
    },
    {
      "midi": 71,
      "hit": false,
      "t": 133332.91999999984,
      "d": 1899.795697916561,
      "v": 58
    },
    {
      "midi": 43,
      "hit": false,
      "t": 133332.92000000068,
      "d": 114.08694791665766,
      "v": 78
    },
    {
      "midi": 31,
      "hit": false,
      "t": 133332.92000000147,
      "d": 208.33268749999115,
      "v": 68
    },
    {
      "midi": 31,
      "hit": false,
      "t": 133332.92000000167,
      "d": 173.6105729166593,
      "v": 76
    },
    {
      "midi": 43,
      "hit": false,
      "t": 133451.9672500007,
      "d": 114.08694791665766,
      "v": 78
    },
    {
      "midi": 67,
      "hit": false,
      "t": 133571.01449999824,
      "d": 9.920604166662088,
      "v": 103
    },
    {
      "midi": 71,
      "hit": false,
      "t": 133571.01449999824,
      "d": 9.920604166662088,
      "v": 103
    },
    {
      "midi": 55,
      "hit": false,
      "t": 133571.0145000007,
      "d": 114.08694791665766,
      "v": 78
    },
    {
      "midi": 31,
      "hit": false,
      "t": 133571.01450000145,
      "d": 208.33268749999115,
      "v": 68
    },
    {
      "midi": 43,
      "hit": false,
      "t": 133571.01450000168,
      "d": 173.6105729166593,
      "v": 82
    },
    {
      "midi": 67,
      "hit": false,
      "t": 133690.06174999825,
      "d": 9.920604166662088,
      "v": 103
    },
    {
      "midi": 71,
      "hit": false,
      "t": 133690.06174999825,
      "d": 9.920604166662088,
      "v": 103
    },
    {
      "midi": 55,
      "hit": false,
      "t": 133690.0617500007,
      "d": 114.08694791665766,
      "v": 78
    },
    {
      "midi": 55,
      "hit": false,
      "t": 133809.10899999985,
      "d": 208.33268749999115,
      "v": 109
    },
    {
      "midi": 43,
      "hit": false,
      "t": 133809.1090000007,
      "d": 114.08694791665766,
      "v": 78
    },
    {
      "midi": 31,
      "hit": false,
      "t": 133809.10900000142,
      "d": 208.33268749999115,
      "v": 68
    },
    {
      "midi": 31,
      "hit": false,
      "t": 133809.10900000168,
      "d": 173.6105729166593,
      "v": 62
    },
    {
      "midi": 43,
      "hit": false,
      "t": 133928.1562500007,
      "d": 114.08694791665766,
      "v": 78
    },
    {
      "midi": 67,
      "hit": false,
      "t": 134047.20349999826,
      "d": 9.920604166662088,
      "v": 103
    },
    {
      "midi": 71,
      "hit": false,
      "t": 134047.20349999826,
      "d": 9.920604166662088,
      "v": 103
    },
    {
      "midi": 55,
      "hit": false,
      "t": 134047.20349999983,
      "d": 208.33268749999115,
      "v": 113
    },
    {
      "midi": 55,
      "hit": false,
      "t": 134047.2035000007,
      "d": 114.08694791665766,
      "v": 78
    },
    {
      "midi": 31,
      "hit": false,
      "t": 134047.2035000014,
      "d": 208.33268749999115,
      "v": 68
    },
    {
      "midi": 43,
      "hit": false,
      "t": 134047.2035000017,
      "d": 173.6105729166593,
      "v": 78
    },
    {
      "midi": 67,
      "hit": false,
      "t": 134166.25074999826,
      "d": 9.920604166662088,
      "v": 103
    },
    {
      "midi": 71,
      "hit": false,
      "t": 134166.25074999826,
      "d": 9.920604166662088,
      "v": 103
    },
    {
      "midi": 55,
      "hit": false,
      "t": 134166.2507500007,
      "d": 114.08694791665766,
      "v": 78
    },
    {
      "midi": 57,
      "hit": false,
      "t": 134285.2979999998,
      "d": 208.33268749999115,
      "v": 106
    },
    {
      "midi": 43,
      "hit": false,
      "t": 134285.2980000007,
      "d": 114.08694791665766,
      "v": 78
    },
    {
      "midi": 31,
      "hit": false,
      "t": 134285.29800000138,
      "d": 208.33268749999115,
      "v": 68
    },
    {
      "midi": 31,
      "hit": false,
      "t": 134285.2980000017,
      "d": 173.6105729166593,
      "v": 67
    },
    {
      "midi": 43,
      "hit": false,
      "t": 134404.3452500007,
      "d": 114.08694791665766,
      "v": 78
    },
    {
      "midi": 67,
      "hit": false,
      "t": 134523.39249999827,
      "d": 9.920604166662088,
      "v": 103
    },
    {
      "midi": 71,
      "hit": false,
      "t": 134523.39249999827,
      "d": 9.920604166662088,
      "v": 103
    },
    {
      "midi": 57,
      "hit": false,
      "t": 134523.39249999978,
      "d": 208.33268749999115,
      "v": 115
    },
    {
      "midi": 55,
      "hit": false,
      "t": 134523.39250000071,
      "d": 114.08694791665766,
      "v": 78
    },
    {
      "midi": 31,
      "hit": false,
      "t": 134523.39250000136,
      "d": 208.33268749999115,
      "v": 68
    },
    {
      "midi": 43,
      "hit": false,
      "t": 134523.3925000017,
      "d": 173.6105729166593,
      "v": 70
    },
    {
      "midi": 67,
      "hit": false,
      "t": 134642.43974999827,
      "d": 9.920604166662088,
      "v": 103
    },
    {
      "midi": 71,
      "hit": false,
      "t": 134642.43974999827,
      "d": 9.920604166662088,
      "v": 103
    },
    {
      "midi": 55,
      "hit": false,
      "t": 134642.43975000072,
      "d": 114.08694791665766,
      "v": 78
    },
    {
      "midi": 59,
      "hit": false,
      "t": 134761.48699999976,
      "d": 208.33268749999115,
      "v": 113
    },
    {
      "midi": 43,
      "hit": false,
      "t": 134761.48700000072,
      "d": 114.08694791665766,
      "v": 78
    },
    {
      "midi": 31,
      "hit": false,
      "t": 134761.48700000133,
      "d": 208.33268749999115,
      "v": 68
    },
    {
      "midi": 31,
      "hit": false,
      "t": 134761.4870000017,
      "d": 173.6105729166593,
      "v": 56
    },
    {
      "midi": 43,
      "hit": false,
      "t": 134880.53425000072,
      "d": 114.08694791665766,
      "v": 78
    },
    {
      "midi": 67,
      "hit": false,
      "t": 134999.58149999828,
      "d": 9.920604166662088,
      "v": 103
    },
    {
      "midi": 71,
      "hit": false,
      "t": 134999.58149999828,
      "d": 9.920604166662088,
      "v": 103
    },
    {
      "midi": 59,
      "hit": false,
      "t": 134999.58149999974,
      "d": 208.33268749999115,
      "v": 113
    },
    {
      "midi": 55,
      "hit": false,
      "t": 134999.58150000073,
      "d": 114.08694791665766,
      "v": 78
    },
    {
      "midi": 31,
      "hit": false,
      "t": 134999.5815000013,
      "d": 208.33268749999115,
      "v": 68
    },
    {
      "midi": 43,
      "hit": false,
      "t": 134999.58150000172,
      "d": 173.6105729166593,
      "v": 70
    },
    {
      "midi": 67,
      "hit": false,
      "t": 135118.6287499983,
      "d": 9.920604166662088,
      "v": 103
    },
    {
      "midi": 71,
      "hit": false,
      "t": 135118.6287499983,
      "d": 9.920604166662088,
      "v": 103
    },
    {
      "midi": 55,
      "hit": false,
      "t": 135118.62875000073,
      "d": 114.08694791665766,
      "v": 78
    },
    {
      "midi": 64,
      "hit": false,
      "t": 135237.67599999974,
      "d": 1423.6066979166644,
      "v": 58
    },
    {
      "midi": 67,
      "hit": false,
      "t": 135237.67599999974,
      "d": 1423.6066979166644,
      "v": 58
    },
    {
      "midi": 72,
      "hit": false,
      "t": 135237.67599999974,
      "d": 1423.6066979166644,
      "v": 58
    },
    {
      "midi": 60,
      "hit": false,
      "t": 135237.67599999974,
      "d": 1899.7956979166775,
      "v": 111
    },
    {
      "midi": 36,
      "hit": false,
      "t": 135237.67600000073,
      "d": 114.08694791665766,
      "v": 78
    },
    {
      "midi": 36,
      "hit": false,
      "t": 135237.6760000013,
      "d": 208.33268749999115,
      "v": 68
    },
    {
      "midi": 36,
      "hit": false,
      "t": 135237.67600000172,
      "d": 173.6105729166593,
      "v": 74
    },
    {
      "midi": 36,
      "hit": false,
      "t": 135356.72325000074,
      "d": 114.08694791665766,
      "v": 78
    },
    {
      "midi": 60,
      "hit": false,
      "t": 135475.7704999983,
      "d": 9.920604166662088,
      "v": 103
    },
    {
      "midi": 64,
      "hit": false,
      "t": 135475.7704999983,
      "d": 9.920604166662088,
      "v": 103
    },
    {
      "midi": 48,
      "hit": false,
      "t": 135475.77050000074,
      "d": 114.08694791665766,
      "v": 78
    },
    {
      "midi": 36,
      "hit": false,
      "t": 135475.77050000126,
      "d": 208.33268749999115,
      "v": 68
    },
    {
      "midi": 48,
      "hit": false,
      "t": 135475.77050000173,
      "d": 173.6105729166593,
      "v": 70
    },
    {
      "midi": 60,
      "hit": false,
      "t": 135594.8177499983,
      "d": 9.920604166662088,
      "v": 103
    },
    {
      "midi": 64,
      "hit": false,
      "t": 135594.8177499983,
      "d": 9.920604166662088,
      "v": 103
    },
    {
      "midi": 48,
      "hit": false,
      "t": 135594.81775000074,
      "d": 114.08694791665766,
      "v": 78
    },
    {
      "midi": 36,
      "hit": false,
      "t": 135713.86500000075,
      "d": 114.08694791665766,
      "v": 78
    },
    {
      "midi": 36,
      "hit": false,
      "t": 135713.86500000124,
      "d": 208.33268749999115,
      "v": 68
    },
    {
      "midi": 36,
      "hit": false,
      "t": 135713.86500000174,
      "d": 173.6105729166593,
      "v": 64
    },
    {
      "midi": 36,
      "hit": false,
      "t": 135832.91225000075,
      "d": 114.08694791665766,
      "v": 78
    },
    {
      "midi": 60,
      "hit": false,
      "t": 135951.9594999983,
      "d": 9.920604166662088,
      "v": 103
    },
    {
      "midi": 64,
      "hit": false,
      "t": 135951.9594999983,
      "d": 9.920604166662088,
      "v": 103
    },
    {
      "midi": 48,
      "hit": false,
      "t": 135951.95950000075,
      "d": 114.08694791665766,
      "v": 78
    },
    {
      "midi": 36,
      "hit": false,
      "t": 135951.95950000122,
      "d": 208.33268749999115,
      "v": 68
    },
    {
      "midi": 48,
      "hit": false,
      "t": 135951.95950000174,
      "d": 173.6105729166593,
      "v": 74
    },
    {
      "midi": 60,
      "hit": false,
      "t": 136071.0067499983,
      "d": 9.920604166662088,
      "v": 103
    },
    {
      "midi": 64,
      "hit": false,
      "t": 136071.0067499983,
      "d": 9.920604166662088,
      "v": 103
    },
    {
      "midi": 48,
      "hit": false,
      "t": 136071.00675000076,
      "d": 114.08694791665766,
      "v": 78
    },
    {
      "midi": 36,
      "hit": false,
      "t": 136190.05400000076,
      "d": 114.08694791665766,
      "v": 78
    },
    {
      "midi": 36,
      "hit": false,
      "t": 136190.0540000012,
      "d": 208.33268749999115,
      "v": 68
    },
    {
      "midi": 36,
      "hit": false,
      "t": 136190.05400000175,
      "d": 173.6105729166593,
      "v": 50
    },
    {
      "midi": 36,
      "hit": false,
      "t": 136309.10125000076,
      "d": 114.08694791665766,
      "v": 78
    },
    {
      "midi": 60,
      "hit": false,
      "t": 136428.14849999832,
      "d": 9.920604166662088,
      "v": 103
    },
    {
      "midi": 64,
      "hit": false,
      "t": 136428.14849999832,
      "d": 9.920604166662088,
      "v": 103
    },
    {
      "midi": 48,
      "hit": false,
      "t": 136428.14850000077,
      "d": 114.08694791665766,
      "v": 78
    },
    {
      "midi": 36,
      "hit": false,
      "t": 136428.14850000117,
      "d": 208.33268749999115,
      "v": 68
    },
    {
      "midi": 48,
      "hit": false,
      "t": 136428.14850000176,
      "d": 173.6105729166593,
      "v": 73
    },
    {
      "midi": 60,
      "hit": false,
      "t": 136547.19574999833,
      "d": 9.920604166662088,
      "v": 103
    },
    {
      "midi": 64,
      "hit": false,
      "t": 136547.19574999833,
      "d": 9.920604166662088,
      "v": 103
    },
    {
      "midi": 48,
      "hit": false,
      "t": 136547.19575000077,
      "d": 114.08694791665766,
      "v": 78
    },
    {
      "midi": 66,
      "hit": false,
      "t": 136666.24299999975,
      "d": 471.22869791666744,
      "v": 58
    },
    {
      "midi": 69,
      "hit": false,
      "t": 136666.24299999975,
      "d": 471.22869791666744,
      "v": 58
    },
    {
      "midi": 74,
      "hit": false,
      "t": 136666.24299999975,
      "d": 471.22869791666744,
      "v": 58
    },
    {
      "midi": 38,
      "hit": false,
      "t": 136666.24300000077,
      "d": 114.08694791665766,
      "v": 78
    },
    {
      "midi": 38,
      "hit": false,
      "t": 136666.24300000115,
      "d": 208.33268749999115,
      "v": 68
    },
    {
      "midi": 38,
      "hit": false,
      "t": 136666.24300000176,
      "d": 173.6105729166593,
      "v": 66
    },
    {
      "midi": 38,
      "hit": false,
      "t": 136785.29025000078,
      "d": 114.08694791665766,
      "v": 78
    },
    {
      "midi": 62,
      "hit": false,
      "t": 136904.33749999834,
      "d": 9.920604166662088,
      "v": 103
    },
    {
      "midi": 66,
      "hit": false,
      "t": 136904.33749999834,
      "d": 9.920604166662088,
      "v": 103
    },
    {
      "midi": 50,
      "hit": false,
      "t": 136904.33750000078,
      "d": 114.08694791665766,
      "v": 78
    },
    {
      "midi": 38,
      "hit": false,
      "t": 136904.33750000113,
      "d": 208.33268749999115,
      "v": 68
    },
    {
      "midi": 50,
      "hit": false,
      "t": 136904.33750000177,
      "d": 173.6105729166593,
      "v": 86
    },
    {
      "midi": 62,
      "hit": false,
      "t": 137023.38474999834,
      "d": 9.920604166662088,
      "v": 103
    },
    {
      "midi": 66,
      "hit": false,
      "t": 137023.38474999834,
      "d": 9.920604166662088,
      "v": 103
    },
    {
      "midi": 50,
      "hit": false,
      "t": 137023.38475000078,
      "d": 114.08694791665766,
      "v": 78
    },
    {
      "midi": 58,
      "hit": false,
      "t": 137142.43199999977,
      "d": 947.4176979166805,
      "v": 103
    },
    {
      "midi": 62,
      "hit": false,
      "t": 137142.43199999977,
      "d": 947.4176979166805,
      "v": 58
    },
    {
      "midi": 65,
      "hit": false,
      "t": 137142.43199999977,
      "d": 947.4176979166805,
      "v": 58
    },
    {
      "midi": 70,
      "hit": false,
      "t": 137142.43199999977,
      "d": 947.4176979166805,
      "v": 58
    },
    {
      "midi": 34,
      "hit": false,
      "t": 137142.4320000008,
      "d": 114.08694791665766,
      "v": 78
    },
    {
      "midi": 34,
      "hit": false,
      "t": 137142.4320000011,
      "d": 208.33268749999115,
      "v": 68
    },
    {
      "midi": 34,
      "hit": false,
      "t": 137142.43200000178,
      "d": 173.6105729166593,
      "v": 74
    },
    {
      "midi": 34,
      "hit": false,
      "t": 137261.4792500008,
      "d": 114.08694791665766,
      "v": 78
    },
    {
      "midi": 58,
      "hit": false,
      "t": 137380.52649999835,
      "d": 9.920604166662088,
      "v": 103
    },
    {
      "midi": 62,
      "hit": false,
      "t": 137380.52649999835,
      "d": 9.920604166662088,
      "v": 103
    },
    {
      "midi": 46,
      "hit": false,
      "t": 137380.5265000008,
      "d": 114.08694791665766,
      "v": 78
    },
    {
      "midi": 34,
      "hit": false,
      "t": 137380.52650000108,
      "d": 208.33268749999115,
      "v": 68
    },
    {
      "midi": 46,
      "hit": false,
      "t": 137380.52650000178,
      "d": 173.6105729166593,
      "v": 70
    },
    {
      "midi": 58,
      "hit": false,
      "t": 137499.57374999835,
      "d": 9.920604166662088,
      "v": 103
    },
    {
      "midi": 62,
      "hit": false,
      "t": 137499.57374999835,
      "d": 9.920604166662088,
      "v": 103
    },
    {
      "midi": 46,
      "hit": false,
      "t": 137499.5737500008,
      "d": 114.08694791665766,
      "v": 78
    },
    {
      "midi": 34,
      "hit": false,
      "t": 137618.6210000008,
      "d": 114.08694791665766,
      "v": 78
    },
    {
      "midi": 34,
      "hit": false,
      "t": 137618.62100000106,
      "d": 208.33268749999115,
      "v": 68
    },
    {
      "midi": 34,
      "hit": false,
      "t": 137618.6210000018,
      "d": 173.6105729166593,
      "v": 64
    },
    {
      "midi": 34,
      "hit": false,
      "t": 137737.6682500008,
      "d": 114.08694791665766,
      "v": 78
    },
    {
      "midi": 58,
      "hit": false,
      "t": 137856.71549999836,
      "d": 9.920604166662088,
      "v": 103
    },
    {
      "midi": 62,
      "hit": false,
      "t": 137856.71549999836,
      "d": 9.920604166662088,
      "v": 103
    },
    {
      "midi": 46,
      "hit": false,
      "t": 137856.7155000008,
      "d": 114.08694791665766,
      "v": 78
    },
    {
      "midi": 34,
      "hit": false,
      "t": 137856.71550000104,
      "d": 208.33268749999115,
      "v": 68
    },
    {
      "midi": 46,
      "hit": false,
      "t": 137856.7155000018,
      "d": 173.6105729166593,
      "v": 74
    },
    {
      "midi": 58,
      "hit": false,
      "t": 137975.76274999836,
      "d": 9.920604166662088,
      "v": 103
    },
    {
      "midi": 62,
      "hit": false,
      "t": 137975.76274999836,
      "d": 9.920604166662088,
      "v": 103
    },
    {
      "midi": 46,
      "hit": false,
      "t": 137975.7627500008,
      "d": 114.08694791665766,
      "v": 78
    },
    {
      "midi": 60,
      "hit": false,
      "t": 138094.8099999998,
      "d": 947.4176979166805,
      "v": 106
    },
    {
      "midi": 64,
      "hit": false,
      "t": 138094.8099999998,
      "d": 947.4176979166805,
      "v": 58
    },
    {
      "midi": 67,
      "hit": false,
      "t": 138094.8099999998,
      "d": 947.4176979166805,
      "v": 58
    },
    {
      "midi": 72,
      "hit": false,
      "t": 138094.8099999998,
      "d": 947.4176979166805,
      "v": 58
    },
    {
      "midi": 36,
      "hit": false,
      "t": 138094.8100000008,
      "d": 114.08694791665766,
      "v": 78
    },
    {
      "midi": 36,
      "hit": false,
      "t": 138094.81000000102,
      "d": 208.33268749999115,
      "v": 68
    },
    {
      "midi": 36,
      "hit": false,
      "t": 138094.8100000018,
      "d": 173.6105729166593,
      "v": 50
    },
    {
      "midi": 36,
      "hit": false,
      "t": 138213.85725000082,
      "d": 114.08694791665766,
      "v": 78
    },
    {
      "midi": 60,
      "hit": false,
      "t": 138332.90449999837,
      "d": 9.920604166662088,
      "v": 103
    },
    {
      "midi": 64,
      "hit": false,
      "t": 138332.90449999837,
      "d": 9.920604166662088,
      "v": 103
    },
    {
      "midi": 48,
      "hit": false,
      "t": 138332.90450000082,
      "d": 114.08694791665766,
      "v": 78
    },
    {
      "midi": 36,
      "hit": false,
      "t": 138332.904500001,
      "d": 208.33268749999115,
      "v": 68
    },
    {
      "midi": 48,
      "hit": false,
      "t": 138332.9045000018,
      "d": 173.6105729166593,
      "v": 73
    },
    {
      "midi": 58,
      "hit": false,
      "t": 138451.95174999838,
      "d": 9.920604166662088,
      "v": 103
    },
    {
      "midi": 62,
      "hit": false,
      "t": 138451.95174999838,
      "d": 9.920604166662088,
      "v": 103
    },
    {
      "midi": 46,
      "hit": false,
      "t": 138451.95175000082,
      "d": 114.08694791665766,
      "v": 78
    },
    {
      "midi": 36,
      "hit": false,
      "t": 138570.99900000083,
      "d": 114.08694791665766,
      "v": 78
    },
    {
      "midi": 36,
      "hit": false,
      "t": 138570.99900000097,
      "d": 208.33268749999115,
      "v": 68
    },
    {
      "midi": 36,
      "hit": false,
      "t": 138570.99900000182,
      "d": 173.6105729166593,
      "v": 66
    },
    {
      "midi": 36,
      "hit": false,
      "t": 138690.04625000083,
      "d": 114.08694791665766,
      "v": 78
    },
    {
      "midi": 60,
      "hit": false,
      "t": 138809.0934999984,
      "d": 9.920604166662088,
      "v": 103
    },
    {
      "midi": 64,
      "hit": false,
      "t": 138809.0934999984,
      "d": 9.920604166662088,
      "v": 103
    },
    {
      "midi": 48,
      "hit": false,
      "t": 138809.09350000083,
      "d": 114.08694791665766,
      "v": 78
    },
    {
      "midi": 36,
      "hit": false,
      "t": 138809.09350000095,
      "d": 208.33268749999115,
      "v": 68
    },
    {
      "midi": 48,
      "hit": false,
      "t": 138809.09350000182,
      "d": 173.6105729166593,
      "v": 86
    },
    {
      "midi": 60,
      "hit": false,
      "t": 138928.1407499984,
      "d": 9.920604166662088,
      "v": 103
    },
    {
      "midi": 64,
      "hit": false,
      "t": 138928.1407499984,
      "d": 9.920604166662088,
      "v": 103
    },
    {
      "midi": 48,
      "hit": false,
      "t": 138928.14075000084,
      "d": 114.08694791665766,
      "v": 78
    },
    {
      "midi": 55,
      "hit": false,
      "t": 139047.18799999982,
      "d": 947.4176979166805,
      "v": 88
    },
    {
      "midi": 74,
      "hit": false,
      "t": 139047.1880000002,
      "d": 947.4176979166805,
      "v": 61
    },
    {
      "midi": 79,
      "hit": false,
      "t": 139047.1880000002,
      "d": 947.4176979166805,
      "v": 66
    },
    {
      "midi": 83,
      "hit": false,
      "t": 139047.1880000002,
      "d": 947.4176979166805,
      "v": 63
    },
    {
      "midi": 62,
      "hit": false,
      "t": 139047.1880000002,
      "d": 947.4176979166805,
      "v": 82
    },
    {
      "midi": 67,
      "hit": false,
      "t": 139047.1880000002,
      "d": 947.4176979166805,
      "v": 89
    },
    {
      "midi": 71,
      "hit": false,
      "t": 139047.1880000002,
      "d": 947.4176979166805,
      "v": 85
    },
    {
      "midi": 54,
      "hit": false,
      "t": 139999.56599999985,
      "d": 947.4176979166805,
      "v": 88
    },
    {
      "midi": 74,
      "hit": false,
      "t": 139999.56600000022,
      "d": 947.4176979166805,
      "v": 63
    },
    {
      "midi": 78,
      "hit": false,
      "t": 139999.56600000022,
      "d": 947.4176979166805,
      "v": 66
    },
    {
      "midi": 81,
      "hit": false,
      "t": 139999.56600000022,
      "d": 947.4176979166805,
      "v": 66
    },
    {
      "midi": 62,
      "hit": false,
      "t": 139999.56600000022,
      "d": 947.4176979166805,
      "v": 85
    },
    {
      "midi": 66,
      "hit": false,
      "t": 139999.56600000022,
      "d": 947.4176979166805,
      "v": 89
    },
    {
      "midi": 69,
      "hit": false,
      "t": 139999.56600000022,
      "d": 947.4176979166805,
      "v": 89
    },
    {
      "midi": 52,
      "hit": false,
      "t": 140951.94399999987,
      "d": 947.4176979166805,
      "v": 88
    },
    {
      "midi": 71,
      "hit": false,
      "t": 140951.94400000025,
      "d": 947.4176979166805,
      "v": 60
    },
    {
      "midi": 76,
      "hit": false,
      "t": 140951.94400000025,
      "d": 947.4176979166805,
      "v": 63
    },
    {
      "midi": 79,
      "hit": false,
      "t": 140951.94400000025,
      "d": 947.4176979166805,
      "v": 62
    },
    {
      "midi": 59,
      "hit": false,
      "t": 140951.94400000025,
      "d": 947.4176979166805,
      "v": 81
    },
    {
      "midi": 64,
      "hit": false,
      "t": 140951.94400000025,
      "d": 947.4176979166805,
      "v": 85
    },
    {
      "midi": 67,
      "hit": false,
      "t": 140951.94400000025,
      "d": 947.4176979166805,
      "v": 84
    },
    {
      "midi": 50,
      "hit": false,
      "t": 141904.3219999999,
      "d": 947.4176979166805,
      "v": 88
    },
    {
      "midi": 71,
      "hit": false,
      "t": 141904.32200000028,
      "d": 947.4176979166805,
      "v": 61
    },
    {
      "midi": 74,
      "hit": false,
      "t": 141904.32200000028,
      "d": 947.4176979166805,
      "v": 64
    },
    {
      "midi": 79,
      "hit": false,
      "t": 141904.32200000028,
      "d": 947.4176979166805,
      "v": 58
    },
    {
      "midi": 59,
      "hit": false,
      "t": 141904.32200000028,
      "d": 947.4176979166805,
      "v": 82
    },
    {
      "midi": 62,
      "hit": false,
      "t": 141904.32200000028,
      "d": 947.4176979166805,
      "v": 86
    },
    {
      "midi": 67,
      "hit": false,
      "t": 141904.32200000028,
      "d": 947.4176979166805,
      "v": 79
    },
    {
      "midi": 60,
      "hit": false,
      "t": 142856.69999999992,
      "d": 947.4176979166805,
      "v": 88
    },
    {
      "midi": 67,
      "hit": false,
      "t": 142856.7000000003,
      "d": 947.4176979166805,
      "v": 55
    },
    {
      "midi": 72,
      "hit": false,
      "t": 142856.7000000003,
      "d": 947.4176979166805,
      "v": 60
    },
    {
      "midi": 76,
      "hit": false,
      "t": 142856.7000000003,
      "d": 947.4176979166805,
      "v": 62
    },
    {
      "midi": 55,
      "hit": false,
      "t": 142856.7000000003,
      "d": 947.4176979166805,
      "v": 75
    },
    {
      "midi": 60,
      "hit": false,
      "t": 142856.7000000003,
      "d": 947.4176979166805,
      "v": 81
    },
    {
      "midi": 64,
      "hit": false,
      "t": 142856.7000000003,
      "d": 947.4176979166805,
      "v": 84
    },
    {
      "midi": 59,
      "hit": false,
      "t": 143809.07799999995,
      "d": 947.4176979166805,
      "v": 88
    },
    {
      "midi": 71,
      "hit": false,
      "t": 143809.07800000033,
      "d": 947.4176979166805,
      "v": 52
    },
    {
      "midi": 74,
      "hit": false,
      "t": 143809.07800000033,
      "d": 947.4176979166805,
      "v": 65
    },
    {
      "midi": 79,
      "hit": false,
      "t": 143809.07800000033,
      "d": 947.4176979166805,
      "v": 55
    },
    {
      "midi": 59,
      "hit": false,
      "t": 143809.07800000033,
      "d": 947.4176979166805,
      "v": 71
    },
    {
      "midi": 62,
      "hit": false,
      "t": 143809.07800000033,
      "d": 947.4176979166805,
      "v": 88
    },
    {
      "midi": 67,
      "hit": false,
      "t": 143809.07800000033,
      "d": 947.4176979166805,
      "v": 75
    },
    {
      "midi": 57,
      "hit": false,
      "t": 144761.45599999998,
      "d": 1899.7956979166775,
      "v": 88
    },
    {
      "midi": 72,
      "hit": false,
      "t": 144761.45600000035,
      "d": 947.4176979166805,
      "v": 62
    },
    {
      "midi": 76,
      "hit": false,
      "t": 144761.45600000035,
      "d": 947.4176979166805,
      "v": 62
    },
    {
      "midi": 81,
      "hit": false,
      "t": 144761.45600000035,
      "d": 947.4176979166805,
      "v": 64
    },
    {
      "midi": 60,
      "hit": false,
      "t": 144761.45600000035,
      "d": 947.4176979166805,
      "v": 84
    },
    {
      "midi": 64,
      "hit": false,
      "t": 144761.45600000035,
      "d": 947.4176979166805,
      "v": 84
    },
    {
      "midi": 69,
      "hit": false,
      "t": 144761.45600000035,
      "d": 947.4176979166805,
      "v": 86
    },
    {
      "midi": 74,
      "hit": false,
      "t": 145713.83400000038,
      "d": 947.4176979166805,
      "v": 64
    },
    {
      "midi": 78,
      "hit": false,
      "t": 145713.83400000038,
      "d": 947.4176979166805,
      "v": 54
    },
    {
      "midi": 81,
      "hit": false,
      "t": 145713.83400000038,
      "d": 947.4176979166805,
      "v": 62
    },
    {
      "midi": 62,
      "hit": false,
      "t": 145713.83400000038,
      "d": 947.4176979166805,
      "v": 86
    },
    {
      "midi": 66,
      "hit": false,
      "t": 145713.83400000038,
      "d": 947.4176979166805,
      "v": 73
    },
    {
      "midi": 69,
      "hit": false,
      "t": 145713.83400000038,
      "d": 947.4176979166805,
      "v": 84
    },
    {
      "midi": 55,
      "hit": false,
      "t": 146666.212,
      "d": 947.4176979166805,
      "v": 88
    },
    {
      "midi": 74,
      "hit": false,
      "t": 146666.212,
      "d": 1455.8486614583526,
      "v": 98
    },
    {
      "midi": 71,
      "hit": false,
      "t": 146666.212,
      "d": 1845.2323750000214,
      "v": 68
    },
    {
      "midi": 67,
      "hit": false,
      "t": 146666.212,
      "d": 1855.1529791666835,
      "v": 68
    },
    {
      "midi": 74,
      "hit": false,
      "t": 146666.2120000004,
      "d": 947.4176979166805,
      "v": 61
    },
    {
      "midi": 79,
      "hit": false,
      "t": 146666.2120000004,
      "d": 947.4176979166805,
      "v": 66
    },
    {
      "midi": 83,
      "hit": false,
      "t": 146666.2120000004,
      "d": 947.4176979166805,
      "v": 63
    },
    {
      "midi": 62,
      "hit": false,
      "t": 146666.2120000004,
      "d": 947.4176979166805,
      "v": 82
    },
    {
      "midi": 67,
      "hit": false,
      "t": 146666.2120000004,
      "d": 947.4176979166805,
      "v": 89
    },
    {
      "midi": 71,
      "hit": false,
      "t": 146666.2120000004,
      "d": 947.4176979166805,
      "v": 85
    },
    {
      "midi": 43,
      "hit": false,
      "t": 146666.2120000008,
      "d": 114.08694791665766,
      "v": 78
    },
    {
      "midi": 31,
      "hit": false,
      "t": 146666.21200000093,
      "d": 208.33268749999115,
      "v": 68
    },
    {
      "midi": 31,
      "hit": false,
      "t": 146666.2120000018,
      "d": 173.6105729166593,
      "v": 76
    },
    {
      "midi": 43,
      "hit": false,
      "t": 146785.25925000082,
      "d": 114.08694791665766,
      "v": 78
    },
    {
      "midi": 67,
      "hit": false,
      "t": 146904.30649999838,
      "d": 9.920604166662088,
      "v": 103
    },
    {
      "midi": 71,
      "hit": false,
      "t": 146904.30649999838,
      "d": 9.920604166662088,
      "v": 103
    },
    {
      "midi": 55,
      "hit": false,
      "t": 146904.30650000082,
      "d": 114.08694791665766,
      "v": 78
    },
    {
      "midi": 31,
      "hit": false,
      "t": 146904.3065000009,
      "d": 208.33268749999115,
      "v": 68
    },
    {
      "midi": 43,
      "hit": false,
      "t": 146904.3065000018,
      "d": 173.6105729166593,
      "v": 82
    },
    {
      "midi": 67,
      "hit": false,
      "t": 147023.35374999838,
      "d": 9.920604166662088,
      "v": 103
    },
    {
      "midi": 71,
      "hit": false,
      "t": 147023.35374999838,
      "d": 9.920604166662088,
      "v": 103
    },
    {
      "midi": 55,
      "hit": false,
      "t": 147023.35375000082,
      "d": 114.08694791665766,
      "v": 78
    },
    {
      "midi": 43,
      "hit": false,
      "t": 147142.40100000083,
      "d": 114.08694791665766,
      "v": 78
    },
    {
      "midi": 31,
      "hit": false,
      "t": 147142.4010000009,
      "d": 208.33268749999115,
      "v": 68
    },
    {
      "midi": 31,
      "hit": false,
      "t": 147142.40100000182,
      "d": 173.6105729166593,
      "v": 62
    },
    {
      "midi": 43,
      "hit": false,
      "t": 147261.44825000083,
      "d": 114.08694791665766,
      "v": 78
    },
    {
      "midi": 67,
      "hit": false,
      "t": 147380.4954999984,
      "d": 9.920604166662088,
      "v": 103
    },
    {
      "midi": 71,
      "hit": false,
      "t": 147380.4954999984,
      "d": 9.920604166662088,
      "v": 103
    },
    {
      "midi": 55,
      "hit": false,
      "t": 147380.49550000083,
      "d": 114.08694791665766,
      "v": 78
    },
    {
      "midi": 31,
      "hit": false,
      "t": 147380.49550000086,
      "d": 208.33268749999115,
      "v": 68
    },
    {
      "midi": 43,
      "hit": false,
      "t": 147380.49550000182,
      "d": 173.6105729166593,
      "v": 78
    },
    {
      "midi": 67,
      "hit": false,
      "t": 147499.5427499984,
      "d": 9.920604166662088,
      "v": 103
    },
    {
      "midi": 71,
      "hit": false,
      "t": 147499.5427499984,
      "d": 9.920604166662088,
      "v": 103
    },
    {
      "midi": 55,
      "hit": false,
      "t": 147499.54275000084,
      "d": 114.08694791665766,
      "v": 78
    },
    {
      "midi": 54,
      "hit": false,
      "t": 147618.59000000003,
      "d": 947.4176979166805,
      "v": 88
    },
    {
      "midi": 74,
      "hit": false,
      "t": 147618.59000000043,
      "d": 947.4176979166805,
      "v": 63
    },
    {
      "midi": 78,
      "hit": false,
      "t": 147618.59000000043,
      "d": 947.4176979166805,
      "v": 66
    },
    {
      "midi": 81,
      "hit": false,
      "t": 147618.59000000043,
      "d": 947.4176979166805,
      "v": 66
    },
    {
      "midi": 62,
      "hit": false,
      "t": 147618.59000000043,
      "d": 947.4176979166805,
      "v": 85
    },
    {
      "midi": 66,
      "hit": false,
      "t": 147618.59000000043,
      "d": 947.4176979166805,
      "v": 89
    },
    {
      "midi": 69,
      "hit": false,
      "t": 147618.59000000043,
      "d": 947.4176979166805,
      "v": 89
    },
    {
      "midi": 30,
      "hit": false,
      "t": 147618.59000000084,
      "d": 208.33268749999115,
      "v": 68
    },
    {
      "midi": 42,
      "hit": false,
      "t": 147618.59000000084,
      "d": 114.08694791665766,
      "v": 78
    },
    {
      "midi": 30,
      "hit": false,
      "t": 147618.59000000183,
      "d": 173.6105729166593,
      "v": 67
    },
    {
      "midi": 42,
      "hit": false,
      "t": 147737.63725000084,
      "d": 114.08694791665766,
      "v": 78
    },
    {
      "midi": 66,
      "hit": false,
      "t": 147856.6844999984,
      "d": 9.920604166662088,
      "v": 103
    },
    {
      "midi": 70,
      "hit": false,
      "t": 147856.6844999984,
      "d": 9.920604166662088,
      "v": 103
    },
    {
      "midi": 30,
      "hit": false,
      "t": 147856.68450000082,
      "d": 208.33268749999115,
      "v": 68
    },
    {
      "midi": 54,
      "hit": false,
      "t": 147856.68450000085,
      "d": 114.08694791665766,
      "v": 78
    },
    {
      "midi": 42,
      "hit": false,
      "t": 147856.68450000184,
      "d": 173.6105729166593,
      "v": 70
    },
    {
      "midi": 66,
      "hit": false,
      "t": 147975.7317499984,
      "d": 9.920604166662088,
      "v": 103
    },
    {
      "midi": 70,
      "hit": false,
      "t": 147975.7317499984,
      "d": 9.920604166662088,
      "v": 103
    },
    {
      "midi": 54,
      "hit": false,
      "t": 147975.73175000085,
      "d": 114.08694791665766,
      "v": 78
    },
    {
      "midi": 76,
      "hit": false,
      "t": 148094.779,
      "d": 419.1455260416842,
      "v": 98
    },
    {
      "midi": 30,
      "hit": false,
      "t": 148094.7790000008,
      "d": 208.33268749999115,
      "v": 68
    },
    {
      "midi": 42,
      "hit": false,
      "t": 148094.77900000085,
      "d": 114.08694791665766,
      "v": 78
    },
    {
      "midi": 30,
      "hit": false,
      "t": 148094.77900000184,
      "d": 173.6105729166593,
      "v": 56
    },
    {
      "midi": 42,
      "hit": false,
      "t": 148213.82625000086,
      "d": 114.08694791665766,
      "v": 78
    },
    {
      "midi": 66,
      "hit": false,
      "t": 148332.87349999842,
      "d": 9.920604166662088,
      "v": 103
    },
    {
      "midi": 70,
      "hit": false,
      "t": 148332.87349999842,
      "d": 9.920604166662088,
      "v": 103
    },
    {
      "midi": 30,
      "hit": false,
      "t": 148332.87350000077,
      "d": 208.33268749999115,
      "v": 68
    },
    {
      "midi": 54,
      "hit": false,
      "t": 148332.87350000086,
      "d": 114.08694791665766,
      "v": 78
    },
    {
      "midi": 42,
      "hit": false,
      "t": 148332.87350000185,
      "d": 173.6105729166593,
      "v": 70
    },
    {
      "midi": 66,
      "hit": false,
      "t": 148451.92074999842,
      "d": 9.920604166662088,
      "v": 103
    },
    {
      "midi": 70,
      "hit": false,
      "t": 148451.92074999842,
      "d": 9.920604166662088,
      "v": 103
    },
    {
      "midi": 54,
      "hit": false,
      "t": 148451.92075000086,
      "d": 114.08694791665766,
      "v": 78
    },
    {
      "midi": 64,
      "hit": false,
      "t": 148570.96800000002,
      "d": 1765.8675416666665,
      "v": 68
    },
    {
      "midi": 67,
      "hit": false,
      "t": 148570.96800000002,
      "d": 1768.3476927083393,
      "v": 98
    },
    {
      "midi": 52,
      "hit": false,
      "t": 148570.96800000005,
      "d": 947.4176979166805,
      "v": 88
    },
    {
      "midi": 71,
      "hit": false,
      "t": 148570.96800000046,
      "d": 947.4176979166805,
      "v": 60
    },
    {
      "midi": 76,
      "hit": false,
      "t": 148570.96800000046,
      "d": 947.4176979166805,
      "v": 63
    },
    {
      "midi": 79,
      "hit": false,
      "t": 148570.96800000046,
      "d": 947.4176979166805,
      "v": 62
    },
    {
      "midi": 59,
      "hit": false,
      "t": 148570.96800000046,
      "d": 947.4176979166805,
      "v": 81
    },
    {
      "midi": 64,
      "hit": false,
      "t": 148570.96800000046,
      "d": 947.4176979166805,
      "v": 85
    },
    {
      "midi": 67,
      "hit": false,
      "t": 148570.96800000046,
      "d": 947.4176979166805,
      "v": 84
    },
    {
      "midi": 28,
      "hit": false,
      "t": 148570.96800000075,
      "d": 208.33268749999115,
      "v": 68
    },
    {
      "midi": 40,
      "hit": false,
      "t": 148570.96800000087,
      "d": 114.08694791665766,
      "v": 78
    },
    {
      "midi": 28,
      "hit": false,
      "t": 148570.96800000186,
      "d": 173.6105729166593,
      "v": 76
    },
    {
      "midi": 40,
      "hit": false,
      "t": 148690.01525000087,
      "d": 114.08694791665766,
      "v": 78
    },
    {
      "midi": 64,
      "hit": false,
      "t": 148809.06249999843,
      "d": 9.920604166662088,
      "v": 103
    },
    {
      "midi": 68,
      "hit": false,
      "t": 148809.06249999843,
      "d": 9.920604166662088,
      "v": 103
    },
    {
      "midi": 28,
      "hit": false,
      "t": 148809.06250000073,
      "d": 208.33268749999115,
      "v": 68
    },
    {
      "midi": 52,
      "hit": false,
      "t": 148809.06250000087,
      "d": 114.08694791665766,
      "v": 78
    },
    {
      "midi": 40,
      "hit": false,
      "t": 148809.06250000186,
      "d": 173.6105729166593,
      "v": 82
    },
    {
      "midi": 64,
      "hit": false,
      "t": 148928.10974999843,
      "d": 9.920604166662088,
      "v": 103
    },
    {
      "midi": 68,
      "hit": false,
      "t": 148928.10974999843,
      "d": 9.920604166662088,
      "v": 103
    },
    {
      "midi": 52,
      "hit": false,
      "t": 148928.10975000088,
      "d": 114.08694791665766,
      "v": 78
    },
    {
      "midi": 28,
      "hit": false,
      "t": 149047.1570000007,
      "d": 208.33268749999115,
      "v": 68
    },
    {
      "midi": 40,
      "hit": false,
      "t": 149047.15700000088,
      "d": 114.08694791665766,
      "v": 78
    },
    {
      "midi": 28,
      "hit": false,
      "t": 149047.15700000187,
      "d": 173.6105729166593,
      "v": 62
    },
    {
      "midi": 40,
      "hit": false,
      "t": 149166.20425000088,
      "d": 114.08694791665766,
      "v": 78
    },
    {
      "midi": 64,
      "hit": false,
      "t": 149285.25149999844,
      "d": 9.920604166662088,
      "v": 103
    },
    {
      "midi": 68,
      "hit": false,
      "t": 149285.25149999844,
      "d": 9.920604166662088,
      "v": 103
    },
    {
      "midi": 28,
      "hit": false,
      "t": 149285.25150000068,
      "d": 208.33268749999115,
      "v": 68
    },
    {
      "midi": 52,
      "hit": false,
      "t": 149285.2515000009,
      "d": 114.08694791665766,
      "v": 78
    },
    {
      "midi": 40,
      "hit": false,
      "t": 149285.25150000188,
      "d": 173.6105729166593,
      "v": 78
    },
    {
      "midi": 64,
      "hit": false,
      "t": 149404.29874999844,
      "d": 9.920604166662088,
      "v": 103
    },
    {
      "midi": 68,
      "hit": false,
      "t": 149404.29874999844,
      "d": 9.920604166662088,
      "v": 103
    },
    {
      "midi": 52,
      "hit": false,
      "t": 149404.2987500009,
      "d": 114.08694791665766,
      "v": 78
    },
    {
      "midi": 50,
      "hit": false,
      "t": 149523.34600000008,
      "d": 947.4176979166805,
      "v": 88
    },
    {
      "midi": 71,
      "hit": false,
      "t": 149523.34600000049,
      "d": 947.4176979166805,
      "v": 61
    },
    {
      "midi": 74,
      "hit": false,
      "t": 149523.34600000049,
      "d": 947.4176979166805,
      "v": 64
    },
    {
      "midi": 79,
      "hit": false,
      "t": 149523.34600000049,
      "d": 947.4176979166805,
      "v": 58
    },
    {
      "midi": 59,
      "hit": false,
      "t": 149523.34600000049,
      "d": 947.4176979166805,
      "v": 82
    },
    {
      "midi": 62,
      "hit": false,
      "t": 149523.34600000049,
      "d": 947.4176979166805,
      "v": 86
    },
    {
      "midi": 67,
      "hit": false,
      "t": 149523.34600000049,
      "d": 947.4176979166805,
      "v": 79
    },
    {
      "midi": 38,
      "hit": false,
      "t": 149523.34600000066,
      "d": 208.33268749999115,
      "v": 68
    },
    {
      "midi": 50,
      "hit": false,
      "t": 149523.3460000009,
      "d": 114.08694791665766,
      "v": 78
    },
    {
      "midi": 38,
      "hit": false,
      "t": 149523.34600000188,
      "d": 173.6105729166593,
      "v": 67
    },
    {
      "midi": 50,
      "hit": false,
      "t": 149642.3932500009,
      "d": 114.08694791665766,
      "v": 78
    },
    {
      "midi": 74,
      "hit": false,
      "t": 149761.44049999845,
      "d": 9.920604166662088,
      "v": 103
    },
    {
      "midi": 78,
      "hit": false,
      "t": 149761.44049999845,
      "d": 9.920604166662088,
      "v": 103
    },
    {
      "midi": 38,
      "hit": false,
      "t": 149761.44050000064,
      "d": 208.33268749999115,
      "v": 68
    },
    {
      "midi": 62,
      "hit": false,
      "t": 149761.4405000009,
      "d": 114.08694791665766,
      "v": 78
    },
    {
      "midi": 50,
      "hit": false,
      "t": 149761.4405000019,
      "d": 173.6105729166593,
      "v": 70
    },
    {
      "midi": 74,
      "hit": false,
      "t": 149880.48774999846,
      "d": 9.920604166662088,
      "v": 103
    },
    {
      "midi": 78,
      "hit": false,
      "t": 149880.48774999846,
      "d": 9.920604166662088,
      "v": 103
    },
    {
      "midi": 62,
      "hit": false,
      "t": 149880.4877500009,
      "d": 114.08694791665766,
      "v": 78
    },
    {
      "midi": 38,
      "hit": false,
      "t": 149999.53500000061,
      "d": 208.33268749999115,
      "v": 68
    },
    {
      "midi": 50,
      "hit": false,
      "t": 149999.5350000009,
      "d": 114.08694791665766,
      "v": 78
    },
    {
      "midi": 38,
      "hit": false,
      "t": 149999.5350000019,
      "d": 173.6105729166593,
      "v": 56
    },
    {
      "midi": 50,
      "hit": false,
      "t": 150118.5822500009,
      "d": 114.08694791665766,
      "v": 78
    },
    {
      "midi": 74,
      "hit": false,
      "t": 150237.62949999847,
      "d": 9.920604166662088,
      "v": 103
    },
    {
      "midi": 78,
      "hit": false,
      "t": 150237.62949999847,
      "d": 9.920604166662088,
      "v": 103
    },
    {
      "midi": 38,
      "hit": false,
      "t": 150237.6295000006,
      "d": 208.33268749999115,
      "v": 68
    },
    {
      "midi": 62,
      "hit": false,
      "t": 150237.6295000009,
      "d": 114.08694791665766,
      "v": 78
    },
    {
      "midi": 50,
      "hit": false,
      "t": 150237.6295000019,
      "d": 173.6105729166593,
      "v": 70
    },
    {
      "midi": 74,
      "hit": false,
      "t": 150356.67674999847,
      "d": 9.920604166662088,
      "v": 103
    },
    {
      "midi": 78,
      "hit": false,
      "t": 150356.67674999847,
      "d": 9.920604166662088,
      "v": 103
    },
    {
      "midi": 62,
      "hit": false,
      "t": 150356.67675000092,
      "d": 114.08694791665766,
      "v": 78
    },
    {
      "midi": 72,
      "hit": false,
      "t": 150475.72400000002,
      "d": 379.46310937500675,
      "v": 98
    },
    {
      "midi": 67,
      "hit": false,
      "t": 150475.72400000002,
      "d": 498.51035937501,
      "v": 68
    },
    {
      "midi": 64,
      "hit": false,
      "t": 150475.72400000002,
      "d": 873.0131666666712,
      "v": 68
    },
    {
      "midi": 60,
      "hit": false,
      "t": 150475.7240000001,
      "d": 947.4176979166805,
      "v": 88
    },
    {
      "midi": 67,
      "hit": false,
      "t": 150475.7240000005,
      "d": 947.4176979166805,
      "v": 55
    },
    {
      "midi": 72,
      "hit": false,
      "t": 150475.7240000005,
      "d": 947.4176979166805,
      "v": 60
    },
    {
      "midi": 76,
      "hit": false,
      "t": 150475.7240000005,
      "d": 947.4176979166805,
      "v": 62
    },
    {
      "midi": 55,
      "hit": false,
      "t": 150475.7240000005,
      "d": 947.4176979166805,
      "v": 75
    },
    {
      "midi": 60,
      "hit": false,
      "t": 150475.7240000005,
      "d": 947.4176979166805,
      "v": 81
    },
    {
      "midi": 64,
      "hit": false,
      "t": 150475.7240000005,
      "d": 947.4176979166805,
      "v": 84
    },
    {
      "midi": 36,
      "hit": false,
      "t": 150475.72400000057,
      "d": 208.33268749999115,
      "v": 68
    },
    {
      "midi": 48,
      "hit": false,
      "t": 150475.72400000092,
      "d": 114.08694791665766,
      "v": 78
    },
    {
      "midi": 36,
      "hit": false,
      "t": 150475.7240000019,
      "d": 173.6105729166593,
      "v": 76
    },
    {
      "midi": 48,
      "hit": false,
      "t": 150594.77125000092,
      "d": 114.08694791665766,
      "v": 78
    },
    {
      "midi": 72,
      "hit": false,
      "t": 150713.81849999848,
      "d": 9.920604166662088,
      "v": 103
    },
    {
      "midi": 76,
      "hit": false,
      "t": 150713.81849999848,
      "d": 9.920604166662088,
      "v": 103
    },
    {
      "midi": 36,
      "hit": false,
      "t": 150713.81850000055,
      "d": 208.33268749999115,
      "v": 68
    },
    {
      "midi": 60,
      "hit": false,
      "t": 150713.81850000093,
      "d": 114.08694791665766,
      "v": 78
    },
    {
      "midi": 48,
      "hit": false,
      "t": 150713.81850000191,
      "d": 173.6105729166593,
      "v": 82
    },
    {
      "midi": 72,
      "hit": false,
      "t": 150832.86574999848,
      "d": 9.920604166662088,
      "v": 103
    },
    {
      "midi": 76,
      "hit": false,
      "t": 150832.86574999848,
      "d": 9.920604166662088,
      "v": 103
    },
    {
      "midi": 71,
      "hit": false,
      "t": 150832.86575000003,
      "d": 166.17011979167,
      "v": 98
    },
    {
      "midi": 60,
      "hit": false,
      "t": 150832.86575000093,
      "d": 114.08694791665766,
      "v": 78
    },
    {
      "midi": 69,
      "hit": false,
      "t": 150951.91300000003,
      "d": 248.0151041666686,
      "v": 98
    },
    {
      "midi": 36,
      "hit": false,
      "t": 150951.91300000052,
      "d": 208.33268749999115,
      "v": 68
    },
    {
      "midi": 48,
      "hit": false,
      "t": 150951.91300000093,
      "d": 114.08694791665766,
      "v": 78
    },
    {
      "midi": 36,
      "hit": false,
      "t": 150951.91300000192,
      "d": 173.6105729166593,
      "v": 62
    },
    {
      "midi": 48,
      "hit": false,
      "t": 151070.96025000094,
      "d": 114.08694791665766,
      "v": 78
    },
    {
      "midi": 72,
      "hit": false,
      "t": 151190.0074999985,
      "d": 9.920604166662088,
      "v": 103
    },
    {
      "midi": 76,
      "hit": false,
      "t": 151190.0074999985,
      "d": 9.920604166662088,
      "v": 103
    },
    {
      "midi": 67,
      "hit": false,
      "t": 151190.00750000004,
      "d": 272.8166145833093,
      "v": 98
    },
    {
      "midi": 36,
      "hit": false,
      "t": 151190.0075000005,
      "d": 208.33268749999115,
      "v": 68
    },
    {
      "midi": 60,
      "hit": false,
      "t": 151190.00750000094,
      "d": 114.08694791665766,
      "v": 78
    },
    {
      "midi": 48,
      "hit": false,
      "t": 151190.00750000193,
      "d": 173.6105729166593,
      "v": 78
    },
    {
      "midi": 72,
      "hit": false,
      "t": 151309.0547499985,
      "d": 9.920604166662088,
      "v": 103
    },
    {
      "midi": 76,
      "hit": false,
      "t": 151309.0547499985,
      "d": 9.920604166662088,
      "v": 103
    },
    {
      "midi": 60,
      "hit": false,
      "t": 151309.05475000094,
      "d": 114.08694791665766,
      "v": 78
    },
    {
      "midi": 69,
      "hit": false,
      "t": 151428.102,
      "d": 379.46310937500675,
      "v": 68
    },
    {
      "midi": 72,
      "hit": false,
      "t": 151428.102,
      "d": 384.42341145835235,
      "v": 98
    },
    {
      "midi": 64,
      "hit": false,
      "t": 151428.102,
      "d": 927.5764895833563,
      "v": 68
    },
    {
      "midi": 59,
      "hit": false,
      "t": 151428.10200000013,
      "d": 947.4176979166805,
      "v": 88
    },
    {
      "midi": 35,
      "hit": false,
      "t": 151428.10200000048,
      "d": 208.33268749999115,
      "v": 68
    },
    {
      "midi": 71,
      "hit": false,
      "t": 151428.10200000054,
      "d": 947.4176979166805,
      "v": 52
    },
    {
      "midi": 74,
      "hit": false,
      "t": 151428.10200000054,
      "d": 947.4176979166805,
      "v": 65
    },
    {
      "midi": 79,
      "hit": false,
      "t": 151428.10200000054,
      "d": 947.4176979166805,
      "v": 55
    },
    {
      "midi": 59,
      "hit": false,
      "t": 151428.10200000054,
      "d": 947.4176979166805,
      "v": 71
    },
    {
      "midi": 62,
      "hit": false,
      "t": 151428.10200000054,
      "d": 947.4176979166805,
      "v": 88
    },
    {
      "midi": 67,
      "hit": false,
      "t": 151428.10200000054,
      "d": 947.4176979166805,
      "v": 75
    },
    {
      "midi": 47,
      "hit": false,
      "t": 151428.10200000094,
      "d": 114.08694791665766,
      "v": 78
    },
    {
      "midi": 35,
      "hit": false,
      "t": 151428.10200000193,
      "d": 173.6105729166593,
      "v": 67
    },
    {
      "midi": 47,
      "hit": false,
      "t": 151547.14925000095,
      "d": 114.08694791665766,
      "v": 78
    },
    {
      "midi": 71,
      "hit": false,
      "t": 151666.1964999985,
      "d": 9.920604166662088,
      "v": 103
    },
    {
      "midi": 75,
      "hit": false,
      "t": 151666.1964999985,
      "d": 9.920604166662088,
      "v": 103
    },
    {
      "midi": 35,
      "hit": false,
      "t": 151666.19650000046,
      "d": 208.33268749999115,
      "v": 68
    },
    {
      "midi": 59,
      "hit": false,
      "t": 151666.19650000095,
      "d": 114.08694791665766,
      "v": 78
    },
    {
      "midi": 47,
      "hit": false,
      "t": 151666.19650000194,
      "d": 173.6105729166593,
      "v": 70
    },
    {
      "midi": 71,
      "hit": false,
      "t": 151785.2437499985,
      "d": 9.920604166662088,
      "v": 103
    },
    {
      "midi": 75,
      "hit": false,
      "t": 151785.2437499985,
      "d": 9.920604166662088,
      "v": 103
    },
    {
      "midi": 71,
      "hit": false,
      "t": 151785.24375000002,
      "d": 146.32891145834583,
      "v": 98
    },
    {
      "midi": 59,
      "hit": false,
      "t": 151785.24375000095,
      "d": 114.08694791665766,
      "v": 78
    },
    {
      "midi": 69,
      "hit": false,
      "t": 151904.29100000003,
      "d": 245.5349531249958,
      "v": 98
    },
    {
      "midi": 35,
      "hit": false,
      "t": 151904.29100000043,
      "d": 208.33268749999115,
      "v": 68
    },
    {
      "midi": 47,
      "hit": false,
      "t": 151904.29100000096,
      "d": 114.08694791665766,
      "v": 78
    },
    {
      "midi": 35,
      "hit": false,
      "t": 151904.29100000195,
      "d": 173.6105729166593,
      "v": 56
    },
    {
      "midi": 47,
      "hit": false,
      "t": 152023.33825000096,
      "d": 114.08694791665766,
      "v": 78
    },
    {
      "midi": 71,
      "hit": false,
      "t": 152142.38549999852,
      "d": 9.920604166662088,
      "v": 103
    },
    {
      "midi": 75,
      "hit": false,
      "t": 152142.38549999852,
      "d": 9.920604166662088,
      "v": 103
    },
    {
      "midi": 67,
      "hit": false,
      "t": 152142.38550000003,
      "d": 200.89223437500186,
      "v": 98
    },
    {
      "midi": 35,
      "hit": false,
      "t": 152142.3855000004,
      "d": 208.33268749999115,
      "v": 68
    },
    {
      "midi": 59,
      "hit": false,
      "t": 152142.38550000096,
      "d": 114.08694791665766,
      "v": 78
    },
    {
      "midi": 47,
      "hit": false,
      "t": 152142.38550000195,
      "d": 173.6105729166593,
      "v": 70
    },
    {
      "midi": 71,
      "hit": false,
      "t": 152261.43274999852,
      "d": 9.920604166662088,
      "v": 103
    },
    {
      "midi": 75,
      "hit": false,
      "t": 152261.43274999852,
      "d": 9.920604166662088,
      "v": 103
    },
    {
      "midi": 59,
      "hit": false,
      "t": 152261.43275000097,
      "d": 114.08694791665766,
      "v": 78
    },
    {
      "midi": 64,
      "hit": false,
      "t": 152380.48000000004,
      "d": 947.4176979166805,
      "v": 68
    },
    {
      "midi": 69,
      "hit": false,
      "t": 152380.48000000004,
      "d": 952.3780000000261,
      "v": 98
    },
    {
      "midi": 57,
      "hit": false,
      "t": 152380.48000000016,
      "d": 947.4176979166805,
      "v": 88
    },
    {
      "midi": 33,
      "hit": false,
      "t": 152380.4800000004,
      "d": 208.33268749999115,
      "v": 68
    },
    {
      "midi": 72,
      "hit": false,
      "t": 152380.48000000056,
      "d": 947.4176979166805,
      "v": 62
    },
    {
      "midi": 76,
      "hit": false,
      "t": 152380.48000000056,
      "d": 947.4176979166805,
      "v": 62
    },
    {
      "midi": 81,
      "hit": false,
      "t": 152380.48000000056,
      "d": 947.4176979166805,
      "v": 64
    },
    {
      "midi": 60,
      "hit": false,
      "t": 152380.48000000056,
      "d": 947.4176979166805,
      "v": 84
    },
    {
      "midi": 64,
      "hit": false,
      "t": 152380.48000000056,
      "d": 947.4176979166805,
      "v": 84
    },
    {
      "midi": 69,
      "hit": false,
      "t": 152380.48000000056,
      "d": 947.4176979166805,
      "v": 86
    },
    {
      "midi": 45,
      "hit": false,
      "t": 152380.48000000097,
      "d": 114.08694791665766,
      "v": 78
    },
    {
      "midi": 33,
      "hit": false,
      "t": 152380.48000000196,
      "d": 173.6105729166593,
      "v": 76
    },
    {
      "midi": 45,
      "hit": false,
      "t": 152499.52725000097,
      "d": 114.08694791665766,
      "v": 78
    },
    {
      "midi": 69,
      "hit": false,
      "t": 152618.57449999853,
      "d": 9.920604166662088,
      "v": 103
    },
    {
      "midi": 73,
      "hit": false,
      "t": 152618.57449999853,
      "d": 9.920604166662088,
      "v": 103
    },
    {
      "midi": 33,
      "hit": false,
      "t": 152618.57450000037,
      "d": 208.33268749999115,
      "v": 68
    },
    {
      "midi": 57,
      "hit": false,
      "t": 152618.57450000098,
      "d": 114.08694791665766,
      "v": 78
    },
    {
      "midi": 45,
      "hit": false,
      "t": 152618.57450000197,
      "d": 173.6105729166593,
      "v": 82
    },
    {
      "midi": 69,
      "hit": false,
      "t": 152737.62174999854,
      "d": 9.920604166662088,
      "v": 103
    },
    {
      "midi": 73,
      "hit": false,
      "t": 152737.62174999854,
      "d": 9.920604166662088,
      "v": 103
    },
    {
      "midi": 57,
      "hit": false,
      "t": 152737.62175000098,
      "d": 114.08694791665766,
      "v": 78
    },
    {
      "midi": 33,
      "hit": false,
      "t": 152856.66900000034,
      "d": 208.33268749999115,
      "v": 68
    },
    {
      "midi": 45,
      "hit": false,
      "t": 152856.66900000098,
      "d": 114.08694791665766,
      "v": 78
    },
    {
      "midi": 33,
      "hit": false,
      "t": 152856.66900000197,
      "d": 173.6105729166593,
      "v": 62
    },
    {
      "midi": 45,
      "hit": false,
      "t": 152975.716250001,
      "d": 114.08694791665766,
      "v": 78
    },
    {
      "midi": 69,
      "hit": false,
      "t": 153094.76349999855,
      "d": 9.920604166662088,
      "v": 103
    },
    {
      "midi": 73,
      "hit": false,
      "t": 153094.76349999855,
      "d": 9.920604166662088,
      "v": 103
    },
    {
      "midi": 33,
      "hit": false,
      "t": 153094.76350000032,
      "d": 208.33268749999115,
      "v": 68
    },
    {
      "midi": 57,
      "hit": false,
      "t": 153094.763500001,
      "d": 114.08694791665766,
      "v": 78
    },
    {
      "midi": 45,
      "hit": false,
      "t": 153094.76350000198,
      "d": 173.6105729166593,
      "v": 78
    },
    {
      "midi": 69,
      "hit": false,
      "t": 153213.81074999855,
      "d": 9.920604166662088,
      "v": 103
    },
    {
      "midi": 73,
      "hit": false,
      "t": 153213.81074999855,
      "d": 9.920604166662088,
      "v": 103
    },
    {
      "midi": 57,
      "hit": false,
      "t": 153213.810750001,
      "d": 114.08694791665766,
      "v": 78
    },
    {
      "midi": 64,
      "hit": false,
      "t": 153332.85800000007,
      "d": 947.4176979166805,
      "v": 68
    },
    {
      "midi": 69,
      "hit": false,
      "t": 153332.85800000007,
      "d": 1450.888359375036,
      "v": 98
    },
    {
      "midi": 57,
      "hit": false,
      "t": 153332.85800000018,
      "d": 947.4176979166805,
      "v": 88
    },
    {
      "midi": 33,
      "hit": false,
      "t": 153332.8580000003,
      "d": 208.33268749999115,
      "v": 68
    },
    {
      "midi": 72,
      "hit": false,
      "t": 153332.8580000006,
      "d": 947.4176979166805,
      "v": 62
    },
    {
      "midi": 76,
      "hit": false,
      "t": 153332.8580000006,
      "d": 947.4176979166805,
      "v": 62
    },
    {
      "midi": 81,
      "hit": false,
      "t": 153332.8580000006,
      "d": 947.4176979166805,
      "v": 64
    },
    {
      "midi": 60,
      "hit": false,
      "t": 153332.8580000006,
      "d": 947.4176979166805,
      "v": 84
    },
    {
      "midi": 64,
      "hit": false,
      "t": 153332.8580000006,
      "d": 947.4176979166805,
      "v": 84
    },
    {
      "midi": 69,
      "hit": false,
      "t": 153332.8580000006,
      "d": 947.4176979166805,
      "v": 86
    },
    {
      "midi": 45,
      "hit": false,
      "t": 153332.858000001,
      "d": 114.08694791665766,
      "v": 78
    },
    {
      "midi": 33,
      "hit": false,
      "t": 153332.858000002,
      "d": 173.6105729166593,
      "v": 76
    },
    {
      "midi": 45,
      "hit": false,
      "t": 153451.905250001,
      "d": 114.08694791665766,
      "v": 78
    },
    {
      "midi": 69,
      "hit": false,
      "t": 153570.95249999856,
      "d": 9.920604166662088,
      "v": 103
    },
    {
      "midi": 73,
      "hit": false,
      "t": 153570.95249999856,
      "d": 9.920604166662088,
      "v": 103
    },
    {
      "midi": 33,
      "hit": false,
      "t": 153570.95250000028,
      "d": 208.33268749999115,
      "v": 68
    },
    {
      "midi": 57,
      "hit": false,
      "t": 153570.952500001,
      "d": 114.08694791665766,
      "v": 78
    },
    {
      "midi": 45,
      "hit": false,
      "t": 153570.952500002,
      "d": 173.6105729166593,
      "v": 82
    },
    {
      "midi": 69,
      "hit": false,
      "t": 153689.99974999856,
      "d": 9.920604166662088,
      "v": 103
    },
    {
      "midi": 73,
      "hit": false,
      "t": 153689.99974999856,
      "d": 9.920604166662088,
      "v": 103
    },
    {
      "midi": 57,
      "hit": false,
      "t": 153689.999750001,
      "d": 114.08694791665766,
      "v": 78
    },
    {
      "midi": 33,
      "hit": false,
      "t": 153809.04700000025,
      "d": 208.33268749999115,
      "v": 68
    },
    {
      "midi": 45,
      "hit": false,
      "t": 153809.047000001,
      "d": 114.08694791665766,
      "v": 78
    },
    {
      "midi": 33,
      "hit": false,
      "t": 153809.047000002,
      "d": 173.6105729166593,
      "v": 62
    },
    {
      "midi": 45,
      "hit": false,
      "t": 153928.094250001,
      "d": 114.08694791665766,
      "v": 78
    },
    {
      "midi": 69,
      "hit": false,
      "t": 154047.14149999857,
      "d": 9.920604166662088,
      "v": 103
    },
    {
      "midi": 73,
      "hit": false,
      "t": 154047.14149999857,
      "d": 9.920604166662088,
      "v": 103
    },
    {
      "midi": 33,
      "hit": false,
      "t": 154047.14150000023,
      "d": 208.33268749999115,
      "v": 68
    },
    {
      "midi": 57,
      "hit": false,
      "t": 154047.14150000102,
      "d": 114.08694791665766,
      "v": 78
    },
    {
      "midi": 45,
      "hit": false,
      "t": 154047.141500002,
      "d": 173.6105729166593,
      "v": 78
    },
    {
      "midi": 69,
      "hit": false,
      "t": 154166.18874999858,
      "d": 9.920604166662088,
      "v": 103
    },
    {
      "midi": 73,
      "hit": false,
      "t": 154166.18874999858,
      "d": 9.920604166662088,
      "v": 103
    },
    {
      "midi": 57,
      "hit": false,
      "t": 154166.18875000102,
      "d": 114.08694791665766,
      "v": 78
    },
    {
      "midi": 66,
      "hit": false,
      "t": 154285.2360000001,
      "d": 1899.7956979166775,
      "v": 88
    },
    {
      "midi": 74,
      "hit": false,
      "t": 154285.2360000001,
      "d": 1899.7956979166775,
      "v": 88
    },
    {
      "midi": 38,
      "hit": false,
      "t": 154285.2360000002,
      "d": 208.33268749999115,
      "v": 68
    },
    {
      "midi": 50,
      "hit": false,
      "t": 154285.2360000002,
      "d": 1899.7956979166775,
      "v": 88
    },
    {
      "midi": 66,
      "hit": false,
      "t": 154285.2360000002,
      "d": 1899.7956979166775,
      "v": 58
    },
    {
      "midi": 69,
      "hit": false,
      "t": 154285.2360000002,
      "d": 1899.7956979166775,
      "v": 58
    },
    {
      "midi": 74,
      "hit": false,
      "t": 154285.2360000002,
      "d": 1899.7956979166775,
      "v": 58
    },
    {
      "midi": 38,
      "hit": false,
      "t": 154285.23600000102,
      "d": 114.08694791665766,
      "v": 78
    },
    {
      "midi": 38,
      "hit": false,
      "t": 154285.236000002,
      "d": 173.6105729166593,
      "v": 70
    },
    {
      "midi": 38,
      "hit": false,
      "t": 154404.28325000103,
      "d": 114.08694791665766,
      "v": 78
    },
    {
      "midi": 62,
      "hit": false,
      "t": 154523.33049999858,
      "d": 9.920604166662088,
      "v": 103
    },
    {
      "midi": 66,
      "hit": false,
      "t": 154523.33049999858,
      "d": 9.920604166662088,
      "v": 103
    },
    {
      "midi": 38,
      "hit": false,
      "t": 154523.3305000002,
      "d": 208.33268749999115,
      "v": 68
    },
    {
      "midi": 50,
      "hit": false,
      "t": 154523.33050000103,
      "d": 114.08694791665766,
      "v": 78
    },
    {
      "midi": 50,
      "hit": false,
      "t": 154523.33050000202,
      "d": 173.6105729166593,
      "v": 62
    },
    {
      "midi": 62,
      "hit": false,
      "t": 154642.3777499986,
      "d": 9.920604166662088,
      "v": 103
    },
    {
      "midi": 66,
      "hit": false,
      "t": 154642.3777499986,
      "d": 9.920604166662088,
      "v": 103
    },
    {
      "midi": 50,
      "hit": false,
      "t": 154642.37775000103,
      "d": 114.08694791665766,
      "v": 78
    },
    {
      "midi": 38,
      "hit": false,
      "t": 154761.42500000016,
      "d": 208.33268749999115,
      "v": 68
    },
    {
      "midi": 38,
      "hit": false,
      "t": 154761.42500000104,
      "d": 114.08694791665766,
      "v": 78
    },
    {
      "midi": 38,
      "hit": false,
      "t": 154761.42500000203,
      "d": 173.6105729166593,
      "v": 66
    },
    {
      "midi": 38,
      "hit": false,
      "t": 154880.47225000104,
      "d": 114.08694791665766,
      "v": 78
    },
    {
      "midi": 62,
      "hit": false,
      "t": 154999.5194999986,
      "d": 9.920604166662088,
      "v": 103
    },
    {
      "midi": 66,
      "hit": false,
      "t": 154999.5194999986,
      "d": 9.920604166662088,
      "v": 103
    },
    {
      "midi": 38,
      "hit": false,
      "t": 154999.51950000014,
      "d": 208.33268749999115,
      "v": 68
    },
    {
      "midi": 50,
      "hit": false,
      "t": 154999.51950000104,
      "d": 114.08694791665766,
      "v": 78
    },
    {
      "midi": 50,
      "hit": false,
      "t": 154999.51950000203,
      "d": 173.6105729166593,
      "v": 67
    },
    {
      "midi": 62,
      "hit": false,
      "t": 155118.5667499986,
      "d": 9.920604166662088,
      "v": 103
    },
    {
      "midi": 66,
      "hit": false,
      "t": 155118.5667499986,
      "d": 9.920604166662088,
      "v": 103
    },
    {
      "midi": 50,
      "hit": false,
      "t": 155118.56675000105,
      "d": 114.08694791665766,
      "v": 78
    },
    {
      "midi": 38,
      "hit": false,
      "t": 155237.61400000012,
      "d": 208.33268749999115,
      "v": 68
    },
    {
      "midi": 38,
      "hit": false,
      "t": 155237.61400000105,
      "d": 114.08694791665766,
      "v": 78
    },
    {
      "midi": 38,
      "hit": false,
      "t": 155237.61400000204,
      "d": 173.6105729166593,
      "v": 64
    },
    {
      "midi": 38,
      "hit": false,
      "t": 155356.66125000105,
      "d": 114.08694791665766,
      "v": 78
    },
    {
      "midi": 62,
      "hit": false,
      "t": 155475.7084999986,
      "d": 9.920604166662088,
      "v": 103
    },
    {
      "midi": 66,
      "hit": false,
      "t": 155475.7084999986,
      "d": 9.920604166662088,
      "v": 103
    },
    {
      "midi": 38,
      "hit": false,
      "t": 155475.7085000001,
      "d": 208.33268749999115,
      "v": 68
    },
    {
      "midi": 50,
      "hit": false,
      "t": 155475.70850000106,
      "d": 114.08694791665766,
      "v": 78
    },
    {
      "midi": 50,
      "hit": false,
      "t": 155475.70850000205,
      "d": 173.6105729166593,
      "v": 66
    },
    {
      "midi": 62,
      "hit": false,
      "t": 155594.7557499986,
      "d": 9.920604166662088,
      "v": 103
    },
    {
      "midi": 66,
      "hit": false,
      "t": 155594.7557499986,
      "d": 9.920604166662088,
      "v": 103
    },
    {
      "midi": 50,
      "hit": false,
      "t": 155594.75575000106,
      "d": 114.08694791665766,
      "v": 78
    },
    {
      "midi": 38,
      "hit": false,
      "t": 155713.80300000007,
      "d": 208.33268749999115,
      "v": 68
    },
    {
      "midi": 38,
      "hit": false,
      "t": 155713.80300000106,
      "d": 114.08694791665766,
      "v": 78
    },
    {
      "midi": 38,
      "hit": false,
      "t": 155713.80300000205,
      "d": 173.6105729166593,
      "v": 62
    },
    {
      "midi": 38,
      "hit": false,
      "t": 155832.85025000107,
      "d": 114.08694791665766,
      "v": 78
    },
    {
      "midi": 62,
      "hit": false,
      "t": 155951.89749999862,
      "d": 9.920604166662088,
      "v": 103
    },
    {
      "midi": 66,
      "hit": false,
      "t": 155951.89749999862,
      "d": 9.920604166662088,
      "v": 103
    },
    {
      "midi": 38,
      "hit": false,
      "t": 155951.89750000005,
      "d": 208.33268749999115,
      "v": 68
    },
    {
      "midi": 50,
      "hit": false,
      "t": 155951.89750000107,
      "d": 114.08694791665766,
      "v": 78
    },
    {
      "midi": 50,
      "hit": false,
      "t": 155951.89750000206,
      "d": 173.6105729166593,
      "v": 73
    },
    {
      "midi": 62,
      "hit": false,
      "t": 156070.94474999863,
      "d": 9.920604166662088,
      "v": 103
    },
    {
      "midi": 66,
      "hit": false,
      "t": 156070.94474999863,
      "d": 9.920604166662088,
      "v": 103
    },
    {
      "midi": 50,
      "hit": false,
      "t": 156070.94475000107,
      "d": 114.08694791665766,
      "v": 78
    },
    {
      "midi": 31,
      "hit": false,
      "t": 156189.99200000003,
      "d": 208.33268749999115,
      "v": 68
    },
    {
      "midi": 62,
      "hit": false,
      "t": 156189.99200000023,
      "d": 1899.795697916561,
      "v": 58
    },
    {
      "midi": 67,
      "hit": false,
      "t": 156189.99200000023,
      "d": 1899.795697916561,
      "v": 58
    },
    {
      "midi": 71,
      "hit": false,
      "t": 156189.99200000023,
      "d": 1899.795697916561,
      "v": 58
    },
    {
      "midi": 43,
      "hit": false,
      "t": 156189.99200000108,
      "d": 114.08694791665766,
      "v": 78
    },
    {
      "midi": 31,
      "hit": false,
      "t": 156189.99200000206,
      "d": 173.6105729166593,
      "v": 76
    },
    {
      "midi": 43,
      "hit": false,
      "t": 156309.03925000108,
      "d": 114.08694791665766,
      "v": 78
    },
    {
      "midi": 67,
      "hit": false,
      "t": 156428.08649999864,
      "d": 9.920604166662088,
      "v": 103
    },
    {
      "midi": 71,
      "hit": false,
      "t": 156428.08649999864,
      "d": 9.920604166662088,
      "v": 103
    },
    {
      "midi": 31,
      "hit": false,
      "t": 156428.0865,
      "d": 208.33268749999115,
      "v": 68
    },
    {
      "midi": 55,
      "hit": false,
      "t": 156428.08650000108,
      "d": 114.08694791665766,
      "v": 78
    },
    {
      "midi": 43,
      "hit": false,
      "t": 156428.08650000207,
      "d": 173.6105729166593,
      "v": 82
    },
    {
      "midi": 67,
      "hit": false,
      "t": 156547.13374999864,
      "d": 9.920604166662088,
      "v": 103
    },
    {
      "midi": 71,
      "hit": false,
      "t": 156547.13374999864,
      "d": 9.920604166662088,
      "v": 103
    },
    {
      "midi": 55,
      "hit": false,
      "t": 156547.13375000108,
      "d": 114.08694791665766,
      "v": 78
    },
    {
      "midi": 31,
      "hit": false,
      "t": 156666.18099999998,
      "d": 208.33268749999115,
      "v": 68
    },
    {
      "midi": 55,
      "hit": false,
      "t": 156666.18100000024,
      "d": 208.33268749999115,
      "v": 109
    },
    {
      "midi": 43,
      "hit": false,
      "t": 156666.1810000011,
      "d": 114.08694791665766,
      "v": 78
    },
    {
      "midi": 31,
      "hit": false,
      "t": 156666.18100000208,
      "d": 173.6105729166593,
      "v": 62
    },
    {
      "midi": 43,
      "hit": false,
      "t": 156785.2282500011,
      "d": 114.08694791665766,
      "v": 78
    },
    {
      "midi": 67,
      "hit": false,
      "t": 156904.27549999865,
      "d": 9.920604166662088,
      "v": 103
    },
    {
      "midi": 71,
      "hit": false,
      "t": 156904.27549999865,
      "d": 9.920604166662088,
      "v": 103
    },
    {
      "midi": 31,
      "hit": false,
      "t": 156904.27549999996,
      "d": 208.33268749999115,
      "v": 68
    },
    {
      "midi": 55,
      "hit": false,
      "t": 156904.27550000022,
      "d": 208.33268749999115,
      "v": 113
    },
    {
      "midi": 55,
      "hit": false,
      "t": 156904.2755000011,
      "d": 114.08694791665766,
      "v": 78
    },
    {
      "midi": 43,
      "hit": false,
      "t": 156904.27550000208,
      "d": 173.6105729166593,
      "v": 78
    },
    {
      "midi": 67,
      "hit": false,
      "t": 157023.32274999865,
      "d": 9.920604166662088,
      "v": 103
    },
    {
      "midi": 71,
      "hit": false,
      "t": 157023.32274999865,
      "d": 9.920604166662088,
      "v": 103
    },
    {
      "midi": 55,
      "hit": false,
      "t": 157023.3227500011,
      "d": 114.08694791665766,
      "v": 78
    },
    {
      "midi": 31,
      "hit": false,
      "t": 157142.36999999994,
      "d": 208.33268749999115,
      "v": 68
    },
    {
      "midi": 57,
      "hit": false,
      "t": 157142.3700000002,
      "d": 208.33268749999115,
      "v": 106
    },
    {
      "midi": 43,
      "hit": false,
      "t": 157142.3700000011,
      "d": 114.08694791665766,
      "v": 78
    },
    {
      "midi": 31,
      "hit": false,
      "t": 157142.3700000021,
      "d": 173.6105729166593,
      "v": 67
    },
    {
      "midi": 43,
      "hit": false,
      "t": 157261.4172500011,
      "d": 114.08694791665766,
      "v": 78
    },
    {
      "midi": 67,
      "hit": false,
      "t": 157380.46449999866,
      "d": 9.920604166662088,
      "v": 103
    },
    {
      "midi": 71,
      "hit": false,
      "t": 157380.46449999866,
      "d": 9.920604166662088,
      "v": 103
    },
    {
      "midi": 31,
      "hit": false,
      "t": 157380.4644999999,
      "d": 208.33268749999115,
      "v": 68
    },
    {
      "midi": 57,
      "hit": false,
      "t": 157380.46450000018,
      "d": 208.33268749999115,
      "v": 115
    },
    {
      "midi": 55,
      "hit": false,
      "t": 157380.4645000011,
      "d": 114.08694791665766,
      "v": 78
    },
    {
      "midi": 43,
      "hit": false,
      "t": 157380.4645000021,
      "d": 173.6105729166593,
      "v": 70
    },
    {
      "midi": 67,
      "hit": false,
      "t": 157499.51174999867,
      "d": 9.920604166662088,
      "v": 103
    },
    {
      "midi": 71,
      "hit": false,
      "t": 157499.51174999867,
      "d": 9.920604166662088,
      "v": 103
    },
    {
      "midi": 55,
      "hit": false,
      "t": 157499.5117500011,
      "d": 114.08694791665766,
      "v": 78
    },
    {
      "midi": 31,
      "hit": false,
      "t": 157618.5589999999,
      "d": 208.33268749999115,
      "v": 68
    },
    {
      "midi": 59,
      "hit": false,
      "t": 157618.55900000015,
      "d": 208.33268749999115,
      "v": 113
    },
    {
      "midi": 43,
      "hit": false,
      "t": 157618.5590000011,
      "d": 114.08694791665766,
      "v": 78
    },
    {
      "midi": 31,
      "hit": false,
      "t": 157618.5590000021,
      "d": 173.6105729166593,
      "v": 56
    },
    {
      "midi": 43,
      "hit": false,
      "t": 157737.60625000112,
      "d": 114.08694791665766,
      "v": 78
    },
    {
      "midi": 67,
      "hit": false,
      "t": 157856.65349999868,
      "d": 9.920604166662088,
      "v": 103
    },
    {
      "midi": 71,
      "hit": false,
      "t": 157856.65349999868,
      "d": 9.920604166662088,
      "v": 103
    },
    {
      "midi": 31,
      "hit": false,
      "t": 157856.65349999987,
      "d": 208.33268749999115,
      "v": 68
    },
    {
      "midi": 59,
      "hit": false,
      "t": 157856.65350000013,
      "d": 208.33268749999115,
      "v": 113
    },
    {
      "midi": 55,
      "hit": false,
      "t": 157856.65350000112,
      "d": 114.08694791665766,
      "v": 78
    },
    {
      "midi": 43,
      "hit": false,
      "t": 157856.6535000021,
      "d": 173.6105729166593,
      "v": 70
    },
    {
      "midi": 67,
      "hit": false,
      "t": 157975.70074999868,
      "d": 9.920604166662088,
      "v": 103
    },
    {
      "midi": 71,
      "hit": false,
      "t": 157975.70074999868,
      "d": 9.920604166662088,
      "v": 103
    },
    {
      "midi": 55,
      "hit": false,
      "t": 157975.70075000112,
      "d": 114.08694791665766,
      "v": 78
    },
    {
      "midi": 36,
      "hit": false,
      "t": 158094.74799999985,
      "d": 208.33268749999115,
      "v": 68
    },
    {
      "midi": 64,
      "hit": false,
      "t": 158094.74800000014,
      "d": 1423.6066979166644,
      "v": 58
    },
    {
      "midi": 67,
      "hit": false,
      "t": 158094.74800000014,
      "d": 1423.6066979166644,
      "v": 58
    },
    {
      "midi": 72,
      "hit": false,
      "t": 158094.74800000014,
      "d": 1423.6066979166644,
      "v": 58
    },
    {
      "midi": 60,
      "hit": false,
      "t": 158094.74800000014,
      "d": 1899.7956979166775,
      "v": 111
    },
    {
      "midi": 36,
      "hit": false,
      "t": 158094.74800000113,
      "d": 114.08694791665766,
      "v": 78
    },
    {
      "midi": 36,
      "hit": false,
      "t": 158094.74800000212,
      "d": 173.6105729166593,
      "v": 74
    },
    {
      "midi": 36,
      "hit": false,
      "t": 158213.79525000113,
      "d": 114.08694791665766,
      "v": 78
    },
    {
      "midi": 60,
      "hit": false,
      "t": 158332.8424999987,
      "d": 9.920604166662088,
      "v": 103
    },
    {
      "midi": 64,
      "hit": false,
      "t": 158332.8424999987,
      "d": 9.920604166662088,
      "v": 103
    },
    {
      "midi": 36,
      "hit": false,
      "t": 158332.84249999982,
      "d": 208.33268749999115,
      "v": 68
    },
    {
      "midi": 48,
      "hit": false,
      "t": 158332.84250000113,
      "d": 114.08694791665766,
      "v": 78
    },
    {
      "midi": 48,
      "hit": false,
      "t": 158332.84250000212,
      "d": 173.6105729166593,
      "v": 70
    },
    {
      "midi": 60,
      "hit": false,
      "t": 158451.8897499987,
      "d": 9.920604166662088,
      "v": 103
    },
    {
      "midi": 64,
      "hit": false,
      "t": 158451.8897499987,
      "d": 9.920604166662088,
      "v": 103
    },
    {
      "midi": 48,
      "hit": false,
      "t": 158451.88975000114,
      "d": 114.08694791665766,
      "v": 78
    },
    {
      "midi": 36,
      "hit": false,
      "t": 158570.9369999998,
      "d": 208.33268749999115,
      "v": 68
    },
    {
      "midi": 36,
      "hit": false,
      "t": 158570.93700000114,
      "d": 114.08694791665766,
      "v": 78
    },
    {
      "midi": 36,
      "hit": false,
      "t": 158570.93700000213,
      "d": 173.6105729166593,
      "v": 64
    },
    {
      "midi": 36,
      "hit": false,
      "t": 158689.98425000114,
      "d": 114.08694791665766,
      "v": 78
    },
    {
      "midi": 60,
      "hit": false,
      "t": 158809.0314999987,
      "d": 9.920604166662088,
      "v": 103
    },
    {
      "midi": 64,
      "hit": false,
      "t": 158809.0314999987,
      "d": 9.920604166662088,
      "v": 103
    },
    {
      "midi": 36,
      "hit": false,
      "t": 158809.03149999978,
      "d": 208.33268749999115,
      "v": 68
    },
    {
      "midi": 48,
      "hit": false,
      "t": 158809.03150000115,
      "d": 114.08694791665766,
      "v": 78
    },
    {
      "midi": 48,
      "hit": false,
      "t": 158809.03150000214,
      "d": 173.6105729166593,
      "v": 74
    },
    {
      "midi": 60,
      "hit": false,
      "t": 158928.0787499987,
      "d": 9.920604166662088,
      "v": 103
    },
    {
      "midi": 64,
      "hit": false,
      "t": 158928.0787499987,
      "d": 9.920604166662088,
      "v": 103
    },
    {
      "midi": 48,
      "hit": false,
      "t": 158928.07875000115,
      "d": 114.08694791665766,
      "v": 78
    },
    {
      "midi": 36,
      "hit": false,
      "t": 159047.12599999976,
      "d": 208.33268749999115,
      "v": 68
    },
    {
      "midi": 36,
      "hit": false,
      "t": 159047.12600000115,
      "d": 114.08694791665766,
      "v": 78
    },
    {
      "midi": 36,
      "hit": false,
      "t": 159047.12600000214,
      "d": 173.6105729166593,
      "v": 50
    },
    {
      "midi": 36,
      "hit": false,
      "t": 159166.17325000116,
      "d": 114.08694791665766,
      "v": 78
    },
    {
      "midi": 60,
      "hit": false,
      "t": 159285.22049999872,
      "d": 9.920604166662088,
      "v": 103
    },
    {
      "midi": 64,
      "hit": false,
      "t": 159285.22049999872,
      "d": 9.920604166662088,
      "v": 103
    },
    {
      "midi": 36,
      "hit": false,
      "t": 159285.22049999973,
      "d": 208.33268749999115,
      "v": 68
    },
    {
      "midi": 48,
      "hit": false,
      "t": 159285.22050000116,
      "d": 114.08694791665766,
      "v": 78
    },
    {
      "midi": 48,
      "hit": false,
      "t": 159285.22050000215,
      "d": 173.6105729166593,
      "v": 73
    },
    {
      "midi": 60,
      "hit": false,
      "t": 159404.26774999872,
      "d": 9.920604166662088,
      "v": 103
    },
    {
      "midi": 64,
      "hit": false,
      "t": 159404.26774999872,
      "d": 9.920604166662088,
      "v": 103
    },
    {
      "midi": 48,
      "hit": false,
      "t": 159404.26775000116,
      "d": 114.08694791665766,
      "v": 78
    },
    {
      "midi": 38,
      "hit": false,
      "t": 159523.3149999997,
      "d": 208.33268749999115,
      "v": 68
    },
    {
      "midi": 66,
      "hit": false,
      "t": 159523.31500000015,
      "d": 471.22869791666744,
      "v": 58
    },
    {
      "midi": 69,
      "hit": false,
      "t": 159523.31500000015,
      "d": 471.22869791666744,
      "v": 58
    },
    {
      "midi": 74,
      "hit": false,
      "t": 159523.31500000015,
      "d": 471.22869791666744,
      "v": 58
    },
    {
      "midi": 38,
      "hit": false,
      "t": 159523.31500000117,
      "d": 114.08694791665766,
      "v": 78
    },
    {
      "midi": 38,
      "hit": false,
      "t": 159523.31500000216,
      "d": 173.6105729166593,
      "v": 66
    },
    {
      "midi": 38,
      "hit": false,
      "t": 159642.36225000117,
      "d": 114.08694791665766,
      "v": 78
    },
    {
      "midi": 62,
      "hit": false,
      "t": 159761.40949999873,
      "d": 9.920604166662088,
      "v": 103
    },
    {
      "midi": 66,
      "hit": false,
      "t": 159761.40949999873,
      "d": 9.920604166662088,
      "v": 103
    },
    {
      "midi": 38,
      "hit": false,
      "t": 159761.4094999997,
      "d": 208.33268749999115,
      "v": 68
    },
    {
      "midi": 50,
      "hit": false,
      "t": 159761.40950000117,
      "d": 114.08694791665766,
      "v": 78
    },
    {
      "midi": 50,
      "hit": false,
      "t": 159761.40950000216,
      "d": 173.6105729166593,
      "v": 86
    },
    {
      "midi": 62,
      "hit": false,
      "t": 159880.45674999873,
      "d": 9.920604166662088,
      "v": 103
    },
    {
      "midi": 66,
      "hit": false,
      "t": 159880.45674999873,
      "d": 9.920604166662088,
      "v": 103
    },
    {
      "midi": 50,
      "hit": false,
      "t": 159880.45675000118,
      "d": 114.08694791665766,
      "v": 78
    },
    {
      "midi": 31,
      "hit": false,
      "t": 159999.50399999967,
      "d": 208.33268749999115,
      "v": 68
    },
    {
      "midi": 55,
      "hit": false,
      "t": 159999.50400000016,
      "d": 1899.7956979166775,
      "v": 106
    },
    {
      "midi": 62,
      "hit": false,
      "t": 159999.50400000016,
      "d": 1899.7956979166775,
      "v": 58
    },
    {
      "midi": 67,
      "hit": false,
      "t": 159999.50400000016,
      "d": 1899.7956979166775,
      "v": 58
    },
    {
      "midi": 71,
      "hit": false,
      "t": 159999.50400000016,
      "d": 1899.7956979166775,
      "v": 58
    },
    {
      "midi": 43,
      "hit": false,
      "t": 159999.50400000118,
      "d": 114.08694791665766,
      "v": 78
    },
    {
      "midi": 31,
      "hit": false,
      "t": 159999.50400000217,
      "d": 173.6105729166593,
      "v": 76
    },
    {
      "midi": 43,
      "hit": false,
      "t": 160118.55125000118,
      "d": 114.08694791665766,
      "v": 78
    },
    {
      "midi": 67,
      "hit": false,
      "t": 160237.59849999874,
      "d": 9.920604166662088,
      "v": 103
    },
    {
      "midi": 71,
      "hit": false,
      "t": 160237.59849999874,
      "d": 9.920604166662088,
      "v": 103
    },
    {
      "midi": 31,
      "hit": false,
      "t": 160237.59849999964,
      "d": 208.33268749999115,
      "v": 68
    },
    {
      "midi": 55,
      "hit": false,
      "t": 160237.5985000012,
      "d": 114.08694791665766,
      "v": 78
    },
    {
      "midi": 43,
      "hit": false,
      "t": 160237.59850000218,
      "d": 173.6105729166593,
      "v": 82
    },
    {
      "midi": 67,
      "hit": false,
      "t": 160356.64574999874,
      "d": 9.920604166662088,
      "v": 103
    },
    {
      "midi": 71,
      "hit": false,
      "t": 160356.64574999874,
      "d": 9.920604166662088,
      "v": 103
    },
    {
      "midi": 55,
      "hit": false,
      "t": 160356.6457500012,
      "d": 114.08694791665766,
      "v": 78
    },
    {
      "midi": 31,
      "hit": false,
      "t": 160475.69299999962,
      "d": 208.33268749999115,
      "v": 68
    },
    {
      "midi": 43,
      "hit": false,
      "t": 160475.6930000012,
      "d": 114.08694791665766,
      "v": 78
    },
    {
      "midi": 31,
      "hit": false,
      "t": 160475.69300000218,
      "d": 173.6105729166593,
      "v": 62
    },
    {
      "midi": 43,
      "hit": false,
      "t": 160594.7402500012,
      "d": 114.08694791665766,
      "v": 78
    },
    {
      "midi": 67,
      "hit": false,
      "t": 160713.78749999875,
      "d": 9.920604166662088,
      "v": 103
    },
    {
      "midi": 71,
      "hit": false,
      "t": 160713.78749999875,
      "d": 9.920604166662088,
      "v": 103
    },
    {
      "midi": 31,
      "hit": false,
      "t": 160713.7874999996,
      "d": 208.33268749999115,
      "v": 68
    },
    {
      "midi": 55,
      "hit": false,
      "t": 160713.7875000012,
      "d": 114.08694791665766,
      "v": 78
    },
    {
      "midi": 43,
      "hit": false,
      "t": 160713.7875000022,
      "d": 173.6105729166593,
      "v": 78
    },
    {
      "midi": 67,
      "hit": false,
      "t": 160832.83474999876,
      "d": 9.920604166662088,
      "v": 103
    },
    {
      "midi": 71,
      "hit": false,
      "t": 160832.83474999876,
      "d": 9.920604166662088,
      "v": 103
    },
    {
      "midi": 55,
      "hit": false,
      "t": 160832.8347500012,
      "d": 114.08694791665766,
      "v": 78
    },
    {
      "midi": 31,
      "hit": false,
      "t": 160951.88199999958,
      "d": 208.33268749999115,
      "v": 68
    },
    {
      "midi": 43,
      "hit": false,
      "t": 160951.8820000012,
      "d": 114.08694791665766,
      "v": 78
    },
    {
      "midi": 31,
      "hit": false,
      "t": 160951.8820000022,
      "d": 173.6105729166593,
      "v": 67
    },
    {
      "midi": 43,
      "hit": false,
      "t": 161070.9292500012,
      "d": 114.08694791665766,
      "v": 78
    },
    {
      "midi": 67,
      "hit": false,
      "t": 161189.97649999877,
      "d": 9.920604166662088,
      "v": 103
    },
    {
      "midi": 71,
      "hit": false,
      "t": 161189.97649999877,
      "d": 9.920604166662088,
      "v": 103
    },
    {
      "midi": 31,
      "hit": false,
      "t": 161189.97649999955,
      "d": 208.33268749999115,
      "v": 68
    },
    {
      "midi": 55,
      "hit": false,
      "t": 161189.9765000012,
      "d": 114.08694791665766,
      "v": 78
    },
    {
      "midi": 43,
      "hit": false,
      "t": 161189.9765000022,
      "d": 173.6105729166593,
      "v": 70
    },
    {
      "midi": 67,
      "hit": false,
      "t": 161309.02374999877,
      "d": 9.920604166662088,
      "v": 103
    },
    {
      "midi": 71,
      "hit": false,
      "t": 161309.02374999877,
      "d": 9.920604166662088,
      "v": 103
    },
    {
      "midi": 55,
      "hit": false,
      "t": 161309.02375000122,
      "d": 114.08694791665766,
      "v": 78
    },
    {
      "midi": 31,
      "hit": false,
      "t": 161428.07099999953,
      "d": 208.33268749999115,
      "v": 68
    },
    {
      "midi": 43,
      "hit": false,
      "t": 161428.07100000122,
      "d": 114.08694791665766,
      "v": 78
    },
    {
      "midi": 31,
      "hit": false,
      "t": 161428.0710000022,
      "d": 173.6105729166593,
      "v": 56
    },
    {
      "midi": 43,
      "hit": false,
      "t": 161547.11825000122,
      "d": 114.08694791665766,
      "v": 78
    },
    {
      "midi": 67,
      "hit": false,
      "t": 161666.16549999878,
      "d": 9.920604166662088,
      "v": 103
    },
    {
      "midi": 71,
      "hit": false,
      "t": 161666.16549999878,
      "d": 9.920604166662088,
      "v": 103
    },
    {
      "midi": 31,
      "hit": false,
      "t": 161666.1654999995,
      "d": 208.33268749999115,
      "v": 68
    },
    {
      "midi": 55,
      "hit": false,
      "t": 161666.16550000123,
      "d": 114.08694791665766,
      "v": 78
    },
    {
      "midi": 43,
      "hit": false,
      "t": 161666.16550000221,
      "d": 173.6105729166593,
      "v": 70
    },
    {
      "midi": 67,
      "hit": false,
      "t": 161785.21274999878,
      "d": 9.920604166662088,
      "v": 103
    },
    {
      "midi": 71,
      "hit": false,
      "t": 161785.21274999878,
      "d": 9.920604166662088,
      "v": 103
    },
    {
      "midi": 55,
      "hit": false,
      "t": 161785.21275000123,
      "d": 114.08694791665766,
      "v": 78
    },
    {
      "midi": 38,
      "hit": false,
      "t": 161904.25999999949,
      "d": 208.33268749999115,
      "v": 68
    },
    {
      "midi": 66,
      "hit": false,
      "t": 161904.2600000001,
      "d": 1899.7956979166775,
      "v": 88
    },
    {
      "midi": 74,
      "hit": false,
      "t": 161904.2600000001,
      "d": 1899.7956979166775,
      "v": 88
    },
    {
      "midi": 50,
      "hit": false,
      "t": 161904.26000000018,
      "d": 1899.7956979166775,
      "v": 88
    },
    {
      "midi": 66,
      "hit": false,
      "t": 161904.26000000018,
      "d": 1899.7956979166775,
      "v": 58
    },
    {
      "midi": 69,
      "hit": false,
      "t": 161904.26000000018,
      "d": 1899.7956979166775,
      "v": 58
    },
    {
      "midi": 74,
      "hit": false,
      "t": 161904.26000000018,
      "d": 1899.7956979166775,
      "v": 58
    },
    {
      "midi": 38,
      "hit": false,
      "t": 161904.26000000123,
      "d": 114.08694791665766,
      "v": 78
    },
    {
      "midi": 38,
      "hit": false,
      "t": 161904.26000000222,
      "d": 173.6105729166593,
      "v": 70
    },
    {
      "midi": 38,
      "hit": false,
      "t": 162023.30725000123,
      "d": 114.08694791665766,
      "v": 78
    },
    {
      "midi": 62,
      "hit": false,
      "t": 162142.3544999988,
      "d": 9.920604166662088,
      "v": 103
    },
    {
      "midi": 66,
      "hit": false,
      "t": 162142.3544999988,
      "d": 9.920604166662088,
      "v": 103
    },
    {
      "midi": 38,
      "hit": false,
      "t": 162142.35449999946,
      "d": 208.33268749999115,
      "v": 68
    },
    {
      "midi": 50,
      "hit": false,
      "t": 162142.35450000124,
      "d": 114.08694791665766,
      "v": 78
    },
    {
      "midi": 50,
      "hit": false,
      "t": 162142.35450000223,
      "d": 173.6105729166593,
      "v": 62
    },
    {
      "midi": 62,
      "hit": false,
      "t": 162261.4017499988,
      "d": 9.920604166662088,
      "v": 103
    },
    {
      "midi": 66,
      "hit": false,
      "t": 162261.4017499988,
      "d": 9.920604166662088,
      "v": 103
    },
    {
      "midi": 50,
      "hit": false,
      "t": 162261.40175000124,
      "d": 114.08694791665766,
      "v": 78
    },
    {
      "midi": 38,
      "hit": false,
      "t": 162380.44899999944,
      "d": 208.33268749999115,
      "v": 68
    },
    {
      "midi": 38,
      "hit": false,
      "t": 162380.44900000124,
      "d": 114.08694791665766,
      "v": 78
    },
    {
      "midi": 38,
      "hit": false,
      "t": 162380.44900000223,
      "d": 173.6105729166593,
      "v": 66
    },
    {
      "midi": 38,
      "hit": false,
      "t": 162499.49625000125,
      "d": 114.08694791665766,
      "v": 78
    },
    {
      "midi": 62,
      "hit": false,
      "t": 162618.5434999988,
      "d": 9.920604166662088,
      "v": 103
    },
    {
      "midi": 66,
      "hit": false,
      "t": 162618.5434999988,
      "d": 9.920604166662088,
      "v": 103
    },
    {
      "midi": 38,
      "hit": false,
      "t": 162618.54349999942,
      "d": 208.33268749999115,
      "v": 68
    },
    {
      "midi": 50,
      "hit": false,
      "t": 162618.54350000125,
      "d": 114.08694791665766,
      "v": 78
    },
    {
      "midi": 50,
      "hit": false,
      "t": 162618.54350000224,
      "d": 173.6105729166593,
      "v": 67
    },
    {
      "midi": 62,
      "hit": false,
      "t": 162737.5907499988,
      "d": 9.920604166662088,
      "v": 103
    },
    {
      "midi": 66,
      "hit": false,
      "t": 162737.5907499988,
      "d": 9.920604166662088,
      "v": 103
    },
    {
      "midi": 50,
      "hit": false,
      "t": 162737.59075000125,
      "d": 114.08694791665766,
      "v": 78
    },
    {
      "midi": 38,
      "hit": false,
      "t": 162856.6379999994,
      "d": 208.33268749999115,
      "v": 68
    },
    {
      "midi": 38,
      "hit": false,
      "t": 162856.63800000126,
      "d": 114.08694791665766,
      "v": 78
    },
    {
      "midi": 38,
      "hit": false,
      "t": 162856.63800000225,
      "d": 173.6105729166593,
      "v": 64
    },
    {
      "midi": 38,
      "hit": false,
      "t": 162975.68525000126,
      "d": 114.08694791665766,
      "v": 78
    },
    {
      "midi": 62,
      "hit": false,
      "t": 163094.73249999882,
      "d": 9.920604166662088,
      "v": 103
    },
    {
      "midi": 66,
      "hit": false,
      "t": 163094.73249999882,
      "d": 9.920604166662088,
      "v": 103
    },
    {
      "midi": 38,
      "hit": false,
      "t": 163094.73249999937,
      "d": 208.33268749999115,
      "v": 68
    },
    {
      "midi": 50,
      "hit": false,
      "t": 163094.73250000126,
      "d": 114.08694791665766,
      "v": 78
    },
    {
      "midi": 50,
      "hit": false,
      "t": 163094.73250000225,
      "d": 173.6105729166593,
      "v": 66
    },
    {
      "midi": 62,
      "hit": false,
      "t": 163213.77974999882,
      "d": 9.920604166662088,
      "v": 103
    },
    {
      "midi": 66,
      "hit": false,
      "t": 163213.77974999882,
      "d": 9.920604166662088,
      "v": 103
    },
    {
      "midi": 50,
      "hit": false,
      "t": 163213.77975000127,
      "d": 114.08694791665766,
      "v": 78
    },
    {
      "midi": 38,
      "hit": false,
      "t": 163332.82699999935,
      "d": 208.33268749999115,
      "v": 68
    },
    {
      "midi": 38,
      "hit": false,
      "t": 163332.82700000127,
      "d": 114.08694791665766,
      "v": 78
    },
    {
      "midi": 38,
      "hit": false,
      "t": 163332.82700000226,
      "d": 173.6105729166593,
      "v": 62
    },
    {
      "midi": 38,
      "hit": false,
      "t": 163451.87425000127,
      "d": 114.08694791665766,
      "v": 78
    },
    {
      "midi": 62,
      "hit": false,
      "t": 163570.92149999883,
      "d": 9.920604166662088,
      "v": 103
    },
    {
      "midi": 66,
      "hit": false,
      "t": 163570.92149999883,
      "d": 9.920604166662088,
      "v": 103
    },
    {
      "midi": 38,
      "hit": false,
      "t": 163570.92149999933,
      "d": 208.33268749999115,
      "v": 68
    },
    {
      "midi": 50,
      "hit": false,
      "t": 163570.92150000128,
      "d": 114.08694791665766,
      "v": 78
    },
    {
      "midi": 50,
      "hit": false,
      "t": 163570.92150000227,
      "d": 173.6105729166593,
      "v": 73
    },
    {
      "midi": 62,
      "hit": false,
      "t": 163689.96874999884,
      "d": 9.920604166662088,
      "v": 103
    },
    {
      "midi": 66,
      "hit": false,
      "t": 163689.96874999884,
      "d": 9.920604166662088,
      "v": 103
    },
    {
      "midi": 50,
      "hit": false,
      "t": 163689.96875000128,
      "d": 114.08694791665766,
      "v": 78
    },
    {
      "midi": 31,
      "hit": false,
      "t": 163809.0159999993,
      "d": 208.33268749999115,
      "v": 68
    },
    {
      "midi": 62,
      "hit": false,
      "t": 163809.0160000002,
      "d": 1899.795697916561,
      "v": 58
    },
    {
      "midi": 67,
      "hit": false,
      "t": 163809.0160000002,
      "d": 1899.795697916561,
      "v": 58
    },
    {
      "midi": 71,
      "hit": false,
      "t": 163809.0160000002,
      "d": 1899.795697916561,
      "v": 58
    },
    {
      "midi": 43,
      "hit": false,
      "t": 163809.01600000128,
      "d": 114.08694791665766,
      "v": 78
    },
    {
      "midi": 31,
      "hit": false,
      "t": 163809.01600000227,
      "d": 173.6105729166593,
      "v": 76
    },
    {
      "midi": 43,
      "hit": false,
      "t": 163928.0632500013,
      "d": 114.08694791665766,
      "v": 78
    },
    {
      "midi": 67,
      "hit": false,
      "t": 164047.11049999885,
      "d": 9.920604166662088,
      "v": 103
    },
    {
      "midi": 71,
      "hit": false,
      "t": 164047.11049999885,
      "d": 9.920604166662088,
      "v": 103
    },
    {
      "midi": 31,
      "hit": false,
      "t": 164047.11049999928,
      "d": 208.33268749999115,
      "v": 68
    },
    {
      "midi": 55,
      "hit": false,
      "t": 164047.1105000013,
      "d": 114.08694791665766,
      "v": 78
    },
    {
      "midi": 43,
      "hit": false,
      "t": 164047.11050000228,
      "d": 173.6105729166593,
      "v": 82
    },
    {
      "midi": 67,
      "hit": false,
      "t": 164166.15774999885,
      "d": 9.920604166662088,
      "v": 103
    },
    {
      "midi": 71,
      "hit": false,
      "t": 164166.15774999885,
      "d": 9.920604166662088,
      "v": 103
    },
    {
      "midi": 55,
      "hit": false,
      "t": 164166.1577500013,
      "d": 114.08694791665766,
      "v": 78
    },
    {
      "midi": 31,
      "hit": false,
      "t": 164285.20499999926,
      "d": 208.33268749999115,
      "v": 68
    },
    {
      "midi": 55,
      "hit": false,
      "t": 164285.20500000022,
      "d": 208.33268749999115,
      "v": 109
    },
    {
      "midi": 43,
      "hit": false,
      "t": 164285.2050000013,
      "d": 114.08694791665766,
      "v": 78
    },
    {
      "midi": 31,
      "hit": false,
      "t": 164285.2050000023,
      "d": 173.6105729166593,
      "v": 62
    },
    {
      "midi": 43,
      "hit": false,
      "t": 164404.2522500013,
      "d": 114.08694791665766,
      "v": 78
    },
    {
      "midi": 67,
      "hit": false,
      "t": 164523.29949999886,
      "d": 9.920604166662088,
      "v": 103
    },
    {
      "midi": 71,
      "hit": false,
      "t": 164523.29949999886,
      "d": 9.920604166662088,
      "v": 103
    },
    {
      "midi": 31,
      "hit": false,
      "t": 164523.29949999924,
      "d": 208.33268749999115,
      "v": 68
    },
    {
      "midi": 55,
      "hit": false,
      "t": 164523.2995000002,
      "d": 208.33268749999115,
      "v": 113
    },
    {
      "midi": 55,
      "hit": false,
      "t": 164523.2995000013,
      "d": 114.08694791665766,
      "v": 78
    },
    {
      "midi": 43,
      "hit": false,
      "t": 164523.2995000023,
      "d": 173.6105729166593,
      "v": 78
    },
    {
      "midi": 67,
      "hit": false,
      "t": 164642.34674999886,
      "d": 9.920604166662088,
      "v": 103
    },
    {
      "midi": 71,
      "hit": false,
      "t": 164642.34674999886,
      "d": 9.920604166662088,
      "v": 103
    },
    {
      "midi": 55,
      "hit": false,
      "t": 164642.3467500013,
      "d": 114.08694791665766,
      "v": 78
    },
    {
      "midi": 31,
      "hit": false,
      "t": 164761.3939999992,
      "d": 208.33268749999115,
      "v": 68
    },
    {
      "midi": 57,
      "hit": false,
      "t": 164761.39400000017,
      "d": 208.33268749999115,
      "v": 106
    },
    {
      "midi": 43,
      "hit": false,
      "t": 164761.3940000013,
      "d": 114.08694791665766,
      "v": 78
    },
    {
      "midi": 31,
      "hit": false,
      "t": 164761.3940000023,
      "d": 173.6105729166593,
      "v": 67
    },
    {
      "midi": 43,
      "hit": false,
      "t": 164880.4412500013,
      "d": 114.08694791665766,
      "v": 78
    },
    {
      "midi": 67,
      "hit": false,
      "t": 164999.48849999887,
      "d": 9.920604166662088,
      "v": 103
    },
    {
      "midi": 71,
      "hit": false,
      "t": 164999.48849999887,
      "d": 9.920604166662088,
      "v": 103
    },
    {
      "midi": 31,
      "hit": false,
      "t": 164999.4884999992,
      "d": 208.33268749999115,
      "v": 68
    },
    {
      "midi": 57,
      "hit": false,
      "t": 164999.48850000015,
      "d": 208.33268749999115,
      "v": 115
    },
    {
      "midi": 55,
      "hit": false,
      "t": 164999.48850000132,
      "d": 114.08694791665766,
      "v": 78
    },
    {
      "midi": 43,
      "hit": false,
      "t": 164999.4885000023,
      "d": 173.6105729166593,
      "v": 70
    },
    {
      "midi": 67,
      "hit": false,
      "t": 165118.53574999887,
      "d": 9.920604166662088,
      "v": 103
    },
    {
      "midi": 71,
      "hit": false,
      "t": 165118.53574999887,
      "d": 9.920604166662088,
      "v": 103
    },
    {
      "midi": 55,
      "hit": false,
      "t": 165118.53575000132,
      "d": 114.08694791665766,
      "v": 78
    },
    {
      "midi": 31,
      "hit": false,
      "t": 165237.58299999917,
      "d": 208.33268749999115,
      "v": 68
    },
    {
      "midi": 59,
      "hit": false,
      "t": 165237.58300000013,
      "d": 208.33268749999115,
      "v": 113
    },
    {
      "midi": 43,
      "hit": false,
      "t": 165237.58300000132,
      "d": 114.08694791665766,
      "v": 78
    },
    {
      "midi": 31,
      "hit": false,
      "t": 165237.5830000023,
      "d": 173.6105729166593,
      "v": 56
    },
    {
      "midi": 43,
      "hit": false,
      "t": 165356.63025000133,
      "d": 114.08694791665766,
      "v": 78
    },
    {
      "midi": 67,
      "hit": false,
      "t": 165475.67749999888,
      "d": 9.920604166662088,
      "v": 103
    },
    {
      "midi": 71,
      "hit": false,
      "t": 165475.67749999888,
      "d": 9.920604166662088,
      "v": 103
    },
    {
      "midi": 31,
      "hit": false,
      "t": 165475.67749999915,
      "d": 208.33268749999115,
      "v": 68
    },
    {
      "midi": 59,
      "hit": false,
      "t": 165475.6775000001,
      "d": 208.33268749999115,
      "v": 113
    },
    {
      "midi": 55,
      "hit": false,
      "t": 165475.67750000133,
      "d": 114.08694791665766,
      "v": 78
    },
    {
      "midi": 43,
      "hit": false,
      "t": 165475.67750000232,
      "d": 173.6105729166593,
      "v": 70
    },
    {
      "midi": 67,
      "hit": false,
      "t": 165594.7247499989,
      "d": 9.920604166662088,
      "v": 103
    },
    {
      "midi": 71,
      "hit": false,
      "t": 165594.7247499989,
      "d": 9.920604166662088,
      "v": 103
    },
    {
      "midi": 55,
      "hit": false,
      "t": 165594.72475000133,
      "d": 114.08694791665766,
      "v": 78
    },
    {
      "midi": 36,
      "hit": false,
      "t": 165713.77199999912,
      "d": 208.33268749999115,
      "v": 68
    },
    {
      "midi": 64,
      "hit": false,
      "t": 165713.7720000001,
      "d": 1423.6066979166644,
      "v": 58
    },
    {
      "midi": 67,
      "hit": false,
      "t": 165713.7720000001,
      "d": 1423.6066979166644,
      "v": 58
    },
    {
      "midi": 72,
      "hit": false,
      "t": 165713.7720000001,
      "d": 1423.6066979166644,
      "v": 58
    },
    {
      "midi": 60,
      "hit": false,
      "t": 165713.7720000001,
      "d": 1899.7956979166775,
      "v": 111
    },
    {
      "midi": 36,
      "hit": false,
      "t": 165713.77200000134,
      "d": 114.08694791665766,
      "v": 78
    },
    {
      "midi": 36,
      "hit": false,
      "t": 165713.77200000233,
      "d": 173.6105729166593,
      "v": 74
    },
    {
      "midi": 36,
      "hit": false,
      "t": 165832.81925000134,
      "d": 114.08694791665766,
      "v": 78
    },
    {
      "midi": 60,
      "hit": false,
      "t": 165951.8664999989,
      "d": 9.920604166662088,
      "v": 103
    },
    {
      "midi": 64,
      "hit": false,
      "t": 165951.8664999989,
      "d": 9.920604166662088,
      "v": 103
    },
    {
      "midi": 36,
      "hit": false,
      "t": 165951.8664999991,
      "d": 208.33268749999115,
      "v": 68
    },
    {
      "midi": 48,
      "hit": false,
      "t": 165951.86650000134,
      "d": 114.08694791665766,
      "v": 78
    },
    {
      "midi": 48,
      "hit": false,
      "t": 165951.86650000233,
      "d": 173.6105729166593,
      "v": 70
    },
    {
      "midi": 60,
      "hit": false,
      "t": 166070.9137499989,
      "d": 9.920604166662088,
      "v": 103
    },
    {
      "midi": 64,
      "hit": false,
      "t": 166070.9137499989,
      "d": 9.920604166662088,
      "v": 103
    },
    {
      "midi": 48,
      "hit": false,
      "t": 166070.91375000135,
      "d": 114.08694791665766,
      "v": 78
    },
    {
      "midi": 36,
      "hit": false,
      "t": 166189.96099999908,
      "d": 208.33268749999115,
      "v": 68
    },
    {
      "midi": 36,
      "hit": false,
      "t": 166189.96100000135,
      "d": 114.08694791665766,
      "v": 78
    },
    {
      "midi": 36,
      "hit": false,
      "t": 166189.96100000234,
      "d": 173.6105729166593,
      "v": 64
    },
    {
      "midi": 36,
      "hit": false,
      "t": 166309.00825000135,
      "d": 114.08694791665766,
      "v": 78
    },
    {
      "midi": 60,
      "hit": false,
      "t": 166428.0554999989,
      "d": 9.920604166662088,
      "v": 103
    },
    {
      "midi": 64,
      "hit": false,
      "t": 166428.0554999989,
      "d": 9.920604166662088,
      "v": 103
    },
    {
      "midi": 36,
      "hit": false,
      "t": 166428.05549999906,
      "d": 208.33268749999115,
      "v": 68
    },
    {
      "midi": 48,
      "hit": false,
      "t": 166428.05550000136,
      "d": 114.08694791665766,
      "v": 78
    },
    {
      "midi": 48,
      "hit": false,
      "t": 166428.05550000235,
      "d": 173.6105729166593,
      "v": 74
    },
    {
      "midi": 60,
      "hit": false,
      "t": 166547.1027499989,
      "d": 9.920604166662088,
      "v": 103
    },
    {
      "midi": 64,
      "hit": false,
      "t": 166547.1027499989,
      "d": 9.920604166662088,
      "v": 103
    },
    {
      "midi": 48,
      "hit": false,
      "t": 166547.10275000136,
      "d": 114.08694791665766,
      "v": 78
    },
    {
      "midi": 36,
      "hit": false,
      "t": 166666.14999999903,
      "d": 208.33268749999115,
      "v": 68
    },
    {
      "midi": 36,
      "hit": false,
      "t": 166666.15000000136,
      "d": 114.08694791665766,
      "v": 78
    },
    {
      "midi": 36,
      "hit": false,
      "t": 166666.15000000235,
      "d": 173.6105729166593,
      "v": 50
    },
    {
      "midi": 36,
      "hit": false,
      "t": 166785.19725000137,
      "d": 114.08694791665766,
      "v": 78
    },
    {
      "midi": 60,
      "hit": false,
      "t": 166904.24449999892,
      "d": 9.920604166662088,
      "v": 103
    },
    {
      "midi": 64,
      "hit": false,
      "t": 166904.24449999892,
      "d": 9.920604166662088,
      "v": 103
    },
    {
      "midi": 36,
      "hit": false,
      "t": 166904.244499999,
      "d": 208.33268749999115,
      "v": 68
    },
    {
      "midi": 48,
      "hit": false,
      "t": 166904.24450000137,
      "d": 114.08694791665766,
      "v": 78
    },
    {
      "midi": 48,
      "hit": false,
      "t": 166904.24450000236,
      "d": 173.6105729166593,
      "v": 73
    },
    {
      "midi": 60,
      "hit": false,
      "t": 167023.29174999893,
      "d": 9.920604166662088,
      "v": 103
    },
    {
      "midi": 64,
      "hit": false,
      "t": 167023.29174999893,
      "d": 9.920604166662088,
      "v": 103
    },
    {
      "midi": 48,
      "hit": false,
      "t": 167023.29175000137,
      "d": 114.08694791665766,
      "v": 78
    },
    {
      "midi": 38,
      "hit": false,
      "t": 167142.338999999,
      "d": 208.33268749999115,
      "v": 68
    },
    {
      "midi": 66,
      "hit": false,
      "t": 167142.33900000012,
      "d": 471.22869791666744,
      "v": 58
    },
    {
      "midi": 69,
      "hit": false,
      "t": 167142.33900000012,
      "d": 471.22869791666744,
      "v": 58
    },
    {
      "midi": 74,
      "hit": false,
      "t": 167142.33900000012,
      "d": 471.22869791666744,
      "v": 58
    },
    {
      "midi": 38,
      "hit": false,
      "t": 167142.33900000138,
      "d": 114.08694791665766,
      "v": 78
    },
    {
      "midi": 38,
      "hit": false,
      "t": 167142.33900000236,
      "d": 173.6105729166593,
      "v": 66
    },
    {
      "midi": 38,
      "hit": false,
      "t": 167261.38625000138,
      "d": 114.08694791665766,
      "v": 78
    },
    {
      "midi": 62,
      "hit": false,
      "t": 167380.43349999894,
      "d": 9.920604166662088,
      "v": 103
    },
    {
      "midi": 66,
      "hit": false,
      "t": 167380.43349999894,
      "d": 9.920604166662088,
      "v": 103
    },
    {
      "midi": 38,
      "hit": false,
      "t": 167380.43349999897,
      "d": 208.33268749999115,
      "v": 68
    },
    {
      "midi": 50,
      "hit": false,
      "t": 167380.43350000138,
      "d": 114.08694791665766,
      "v": 78
    },
    {
      "midi": 50,
      "hit": false,
      "t": 167380.43350000237,
      "d": 173.6105729166593,
      "v": 86
    },
    {
      "midi": 62,
      "hit": false,
      "t": 167499.48074999894,
      "d": 9.920604166662088,
      "v": 103
    },
    {
      "midi": 66,
      "hit": false,
      "t": 167499.48074999894,
      "d": 9.920604166662088,
      "v": 103
    },
    {
      "midi": 50,
      "hit": false,
      "t": 167499.48075000138,
      "d": 114.08694791665766,
      "v": 78
    },
    {
      "midi": 31,
      "hit": false,
      "t": 167618.52799999894,
      "d": 208.33268749999115,
      "v": 68
    },
    {
      "midi": 55,
      "hit": false,
      "t": 167618.52800000014,
      "d": 1899.7956979166775,
      "v": 106
    },
    {
      "midi": 62,
      "hit": false,
      "t": 167618.52800000014,
      "d": 1899.7956979166775,
      "v": 58
    },
    {
      "midi": 67,
      "hit": false,
      "t": 167618.52800000014,
      "d": 1899.7956979166775,
      "v": 58
    },
    {
      "midi": 71,
      "hit": false,
      "t": 167618.52800000014,
      "d": 1899.7956979166775,
      "v": 58
    },
    {
      "midi": 43,
      "hit": false,
      "t": 167618.5280000014,
      "d": 114.08694791665766,
      "v": 78
    },
    {
      "midi": 31,
      "hit": false,
      "t": 167618.52800000238,
      "d": 173.6105729166593,
      "v": 76
    },
    {
      "midi": 43,
      "hit": false,
      "t": 167737.5752500014,
      "d": 114.08694791665766,
      "v": 78
    },
    {
      "midi": 31,
      "hit": false,
      "t": 167856.62249999892,
      "d": 208.33268749999115,
      "v": 68
    },
    {
      "midi": 67,
      "hit": false,
      "t": 167856.62249999895,
      "d": 9.920604166662088,
      "v": 103
    },
    {
      "midi": 71,
      "hit": false,
      "t": 167856.62249999895,
      "d": 9.920604166662088,
      "v": 103
    },
    {
      "midi": 55,
      "hit": false,
      "t": 167856.6225000014,
      "d": 114.08694791665766,
      "v": 78
    },
    {
      "midi": 43,
      "hit": false,
      "t": 167856.62250000238,
      "d": 173.6105729166593,
      "v": 82
    },
    {
      "midi": 67,
      "hit": false,
      "t": 167975.66974999895,
      "d": 9.920604166662088,
      "v": 103
    },
    {
      "midi": 71,
      "hit": false,
      "t": 167975.66974999895,
      "d": 9.920604166662088,
      "v": 103
    },
    {
      "midi": 55,
      "hit": false,
      "t": 167975.6697500014,
      "d": 114.08694791665766,
      "v": 78
    },
    {
      "midi": 31,
      "hit": false,
      "t": 168094.7169999989,
      "d": 208.33268749999115,
      "v": 68
    },
    {
      "midi": 43,
      "hit": false,
      "t": 168094.7170000014,
      "d": 114.08694791665766,
      "v": 78
    },
    {
      "midi": 31,
      "hit": false,
      "t": 168094.7170000024,
      "d": 173.6105729166593,
      "v": 62
    },
    {
      "midi": 43,
      "hit": false,
      "t": 168213.7642500014,
      "d": 114.08694791665766,
      "v": 78
    },
    {
      "midi": 31,
      "hit": false,
      "t": 168332.81149999888,
      "d": 208.33268749999115,
      "v": 68
    },
    {
      "midi": 67,
      "hit": false,
      "t": 168332.81149999896,
      "d": 9.920604166662088,
      "v": 103
    },
    {
      "midi": 71,
      "hit": false,
      "t": 168332.81149999896,
      "d": 9.920604166662088,
      "v": 103
    },
    {
      "midi": 55,
      "hit": false,
      "t": 168332.8115000014,
      "d": 114.08694791665766,
      "v": 78
    },
    {
      "midi": 43,
      "hit": false,
      "t": 168332.8115000024,
      "d": 173.6105729166593,
      "v": 78
    },
    {
      "midi": 67,
      "hit": false,
      "t": 168451.85874999897,
      "d": 9.920604166662088,
      "v": 103
    },
    {
      "midi": 71,
      "hit": false,
      "t": 168451.85874999897,
      "d": 9.920604166662088,
      "v": 103
    },
    {
      "midi": 55,
      "hit": false,
      "t": 168451.8587500014,
      "d": 114.08694791665766,
      "v": 78
    },
    {
      "midi": 31,
      "hit": false,
      "t": 168570.90599999885,
      "d": 208.33268749999115,
      "v": 68
    },
    {
      "midi": 43,
      "hit": false,
      "t": 168570.9060000014,
      "d": 114.08694791665766,
      "v": 78
    },
    {
      "midi": 31,
      "hit": false,
      "t": 168570.9060000024,
      "d": 173.6105729166593,
      "v": 67
    },
    {
      "midi": 43,
      "hit": false,
      "t": 168689.95325000142,
      "d": 114.08694791665766,
      "v": 78
    },
    {
      "midi": 31,
      "hit": false,
      "t": 168809.00049999883,
      "d": 208.33268749999115,
      "v": 68
    },
    {
      "midi": 67,
      "hit": false,
      "t": 168809.00049999898,
      "d": 9.920604166662088,
      "v": 103
    },
    {
      "midi": 71,
      "hit": false,
      "t": 168809.00049999898,
      "d": 9.920604166662088,
      "v": 103
    },
    {
      "midi": 55,
      "hit": false,
      "t": 168809.00050000142,
      "d": 114.08694791665766,
      "v": 78
    },
    {
      "midi": 43,
      "hit": false,
      "t": 168809.0005000024,
      "d": 173.6105729166593,
      "v": 70
    },
    {
      "midi": 67,
      "hit": false,
      "t": 168928.04774999898,
      "d": 9.920604166662088,
      "v": 103
    },
    {
      "midi": 71,
      "hit": false,
      "t": 168928.04774999898,
      "d": 9.920604166662088,
      "v": 103
    },
    {
      "midi": 55,
      "hit": false,
      "t": 168928.04775000142,
      "d": 114.08694791665766,
      "v": 78
    },
    {
      "midi": 31,
      "hit": false,
      "t": 169047.0949999988,
      "d": 208.33268749999115,
      "v": 68
    },
    {
      "midi": 43,
      "hit": false,
      "t": 169047.09500000143,
      "d": 114.08694791665766,
      "v": 78
    },
    {
      "midi": 31,
      "hit": false,
      "t": 169047.09500000242,
      "d": 173.6105729166593,
      "v": 56
    },
    {
      "midi": 43,
      "hit": false,
      "t": 169166.14225000143,
      "d": 114.08694791665766,
      "v": 78
    },
    {
      "midi": 31,
      "hit": false,
      "t": 169285.18949999879,
      "d": 208.33268749999115,
      "v": 68
    },
    {
      "midi": 67,
      "hit": false,
      "t": 169285.189499999,
      "d": 9.920604166662088,
      "v": 103
    },
    {
      "midi": 71,
      "hit": false,
      "t": 169285.189499999,
      "d": 9.920604166662088,
      "v": 103
    },
    {
      "midi": 55,
      "hit": false,
      "t": 169285.18950000143,
      "d": 114.08694791665766,
      "v": 78
    },
    {
      "midi": 43,
      "hit": false,
      "t": 169285.18950000242,
      "d": 173.6105729166593,
      "v": 70
    },
    {
      "midi": 67,
      "hit": false,
      "t": 169404.236749999,
      "d": 9.920604166662088,
      "v": 103
    },
    {
      "midi": 71,
      "hit": false,
      "t": 169404.236749999,
      "d": 9.920604166662088,
      "v": 103
    },
    {
      "midi": 55,
      "hit": false,
      "t": 169404.23675000144,
      "d": 114.08694791665766,
      "v": 78
    },
    {
      "midi": 38,
      "hit": false,
      "t": 169523.28399999876,
      "d": 208.33268749999115,
      "v": 68
    },
    {
      "midi": 66,
      "hit": false,
      "t": 169523.2840000001,
      "d": 1899.7956979166775,
      "v": 88
    },
    {
      "midi": 74,
      "hit": false,
      "t": 169523.2840000001,
      "d": 1899.7956979166775,
      "v": 88
    },
    {
      "midi": 50,
      "hit": false,
      "t": 169523.28400000016,
      "d": 1899.7956979166775,
      "v": 88
    },
    {
      "midi": 66,
      "hit": false,
      "t": 169523.28400000016,
      "d": 1899.7956979166775,
      "v": 58
    },
    {
      "midi": 69,
      "hit": false,
      "t": 169523.28400000016,
      "d": 1899.7956979166775,
      "v": 58
    },
    {
      "midi": 74,
      "hit": false,
      "t": 169523.28400000016,
      "d": 1899.7956979166775,
      "v": 58
    },
    {
      "midi": 38,
      "hit": false,
      "t": 169523.28400000144,
      "d": 114.08694791665766,
      "v": 78
    },
    {
      "midi": 38,
      "hit": false,
      "t": 169523.28400000243,
      "d": 173.6105729166593,
      "v": 70
    },
    {
      "midi": 38,
      "hit": false,
      "t": 169642.33125000144,
      "d": 114.08694791665766,
      "v": 78
    },
    {
      "midi": 38,
      "hit": false,
      "t": 169761.37849999874,
      "d": 208.33268749999115,
      "v": 68
    },
    {
      "midi": 62,
      "hit": false,
      "t": 169761.378499999,
      "d": 9.920604166662088,
      "v": 103
    },
    {
      "midi": 66,
      "hit": false,
      "t": 169761.378499999,
      "d": 9.920604166662088,
      "v": 103
    },
    {
      "midi": 50,
      "hit": false,
      "t": 169761.37850000145,
      "d": 114.08694791665766,
      "v": 78
    },
    {
      "midi": 50,
      "hit": false,
      "t": 169761.37850000244,
      "d": 173.6105729166593,
      "v": 62
    },
    {
      "midi": 62,
      "hit": false,
      "t": 169880.425749999,
      "d": 9.920604166662088,
      "v": 103
    },
    {
      "midi": 66,
      "hit": false,
      "t": 169880.425749999,
      "d": 9.920604166662088,
      "v": 103
    },
    {
      "midi": 50,
      "hit": false,
      "t": 169880.42575000145,
      "d": 114.08694791665766,
      "v": 78
    },
    {
      "midi": 38,
      "hit": false,
      "t": 169999.47299999872,
      "d": 208.33268749999115,
      "v": 68
    },
    {
      "midi": 38,
      "hit": false,
      "t": 169999.47300000145,
      "d": 114.08694791665766,
      "v": 78
    },
    {
      "midi": 38,
      "hit": false,
      "t": 169999.47300000244,
      "d": 173.6105729166593,
      "v": 66
    },
    {
      "midi": 38,
      "hit": false,
      "t": 170118.52025000146,
      "d": 114.08694791665766,
      "v": 78
    },
    {
      "midi": 38,
      "hit": false,
      "t": 170237.5674999987,
      "d": 208.33268749999115,
      "v": 68
    },
    {
      "midi": 62,
      "hit": false,
      "t": 170237.56749999902,
      "d": 9.920604166662088,
      "v": 103
    },
    {
      "midi": 66,
      "hit": false,
      "t": 170237.56749999902,
      "d": 9.920604166662088,
      "v": 103
    },
    {
      "midi": 50,
      "hit": false,
      "t": 170237.56750000146,
      "d": 114.08694791665766,
      "v": 78
    },
    {
      "midi": 50,
      "hit": false,
      "t": 170237.56750000245,
      "d": 173.6105729166593,
      "v": 67
    },
    {
      "midi": 62,
      "hit": false,
      "t": 170356.61474999902,
      "d": 9.920604166662088,
      "v": 103
    },
    {
      "midi": 66,
      "hit": false,
      "t": 170356.61474999902,
      "d": 9.920604166662088,
      "v": 103
    },
    {
      "midi": 50,
      "hit": false,
      "t": 170356.61475000146,
      "d": 114.08694791665766,
      "v": 78
    },
    {
      "midi": 38,
      "hit": false,
      "t": 170475.66199999867,
      "d": 208.33268749999115,
      "v": 68
    },
    {
      "midi": 38,
      "hit": false,
      "t": 170475.66200000147,
      "d": 114.08694791665766,
      "v": 78
    },
    {
      "midi": 38,
      "hit": false,
      "t": 170475.66200000246,
      "d": 173.6105729166593,
      "v": 64
    },
    {
      "midi": 38,
      "hit": false,
      "t": 170594.70925000147,
      "d": 114.08694791665766,
      "v": 78
    },
    {
      "midi": 38,
      "hit": false,
      "t": 170713.75649999865,
      "d": 208.33268749999115,
      "v": 68
    },
    {
      "midi": 62,
      "hit": false,
      "t": 170713.75649999903,
      "d": 9.920604166662088,
      "v": 103
    },
    {
      "midi": 66,
      "hit": false,
      "t": 170713.75649999903,
      "d": 9.920604166662088,
      "v": 103
    },
    {
      "midi": 50,
      "hit": false,
      "t": 170713.75650000147,
      "d": 114.08694791665766,
      "v": 78
    },
    {
      "midi": 50,
      "hit": false,
      "t": 170713.75650000246,
      "d": 173.6105729166593,
      "v": 66
    },
    {
      "midi": 62,
      "hit": false,
      "t": 170832.80374999903,
      "d": 9.920604166662088,
      "v": 103
    },
    {
      "midi": 66,
      "hit": false,
      "t": 170832.80374999903,
      "d": 9.920604166662088,
      "v": 103
    },
    {
      "midi": 50,
      "hit": false,
      "t": 170832.80375000148,
      "d": 114.08694791665766,
      "v": 78
    },
    {
      "midi": 38,
      "hit": false,
      "t": 170951.85099999863,
      "d": 208.33268749999115,
      "v": 68
    },
    {
      "midi": 38,
      "hit": false,
      "t": 170951.85100000148,
      "d": 114.08694791665766,
      "v": 78
    },
    {
      "midi": 38,
      "hit": false,
      "t": 170951.85100000247,
      "d": 173.6105729166593,
      "v": 62
    },
    {
      "midi": 38,
      "hit": false,
      "t": 171070.89825000148,
      "d": 114.08694791665766,
      "v": 78
    },
    {
      "midi": 38,
      "hit": false,
      "t": 171189.9454999986,
      "d": 208.33268749999115,
      "v": 68
    },
    {
      "midi": 62,
      "hit": false,
      "t": 171189.94549999904,
      "d": 9.920604166662088,
      "v": 103
    },
    {
      "midi": 66,
      "hit": false,
      "t": 171189.94549999904,
      "d": 9.920604166662088,
      "v": 103
    },
    {
      "midi": 50,
      "hit": false,
      "t": 171189.9455000015,
      "d": 114.08694791665766,
      "v": 78
    },
    {
      "midi": 50,
      "hit": false,
      "t": 171189.94550000248,
      "d": 173.6105729166593,
      "v": 73
    },
    {
      "midi": 62,
      "hit": false,
      "t": 171308.99274999904,
      "d": 9.920604166662088,
      "v": 103
    },
    {
      "midi": 66,
      "hit": false,
      "t": 171308.99274999904,
      "d": 9.920604166662088,
      "v": 103
    },
    {
      "midi": 50,
      "hit": false,
      "t": 171308.9927500015,
      "d": 114.08694791665766,
      "v": 78
    },
    {
      "midi": 31,
      "hit": false,
      "t": 171428.03999999858,
      "d": 208.33268749999115,
      "v": 68
    },
    {
      "midi": 62,
      "hit": false,
      "t": 171428.04000000018,
      "d": 1899.795697916561,
      "v": 58
    },
    {
      "midi": 67,
      "hit": false,
      "t": 171428.04000000018,
      "d": 1899.795697916561,
      "v": 58
    },
    {
      "midi": 71,
      "hit": false,
      "t": 171428.04000000018,
      "d": 1899.795697916561,
      "v": 58
    },
    {
      "midi": 43,
      "hit": false,
      "t": 171428.0400000015,
      "d": 114.08694791665766,
      "v": 78
    },
    {
      "midi": 31,
      "hit": false,
      "t": 171428.04000000248,
      "d": 173.6105729166593,
      "v": 76
    },
    {
      "midi": 43,
      "hit": false,
      "t": 171547.0872500015,
      "d": 114.08694791665766,
      "v": 78
    },
    {
      "midi": 31,
      "hit": false,
      "t": 171666.13449999856,
      "d": 208.33268749999115,
      "v": 68
    },
    {
      "midi": 67,
      "hit": false,
      "t": 171666.13449999905,
      "d": 9.920604166662088,
      "v": 103
    },
    {
      "midi": 71,
      "hit": false,
      "t": 171666.13449999905,
      "d": 9.920604166662088,
      "v": 103
    },
    {
      "midi": 55,
      "hit": false,
      "t": 171666.1345000015,
      "d": 114.08694791665766,
      "v": 78
    },
    {
      "midi": 43,
      "hit": false,
      "t": 171666.1345000025,
      "d": 173.6105729166593,
      "v": 82
    },
    {
      "midi": 67,
      "hit": false,
      "t": 171785.18174999906,
      "d": 9.920604166662088,
      "v": 103
    },
    {
      "midi": 71,
      "hit": false,
      "t": 171785.18174999906,
      "d": 9.920604166662088,
      "v": 103
    },
    {
      "midi": 55,
      "hit": false,
      "t": 171785.1817500015,
      "d": 114.08694791665766,
      "v": 78
    },
    {
      "midi": 31,
      "hit": false,
      "t": 171904.22899999854,
      "d": 208.33268749999115,
      "v": 68
    },
    {
      "midi": 55,
      "hit": false,
      "t": 171904.2290000002,
      "d": 208.33268749999115,
      "v": 109
    },
    {
      "midi": 43,
      "hit": false,
      "t": 171904.2290000015,
      "d": 114.08694791665766,
      "v": 78
    },
    {
      "midi": 31,
      "hit": false,
      "t": 171904.2290000025,
      "d": 173.6105729166593,
      "v": 62
    },
    {
      "midi": 43,
      "hit": false,
      "t": 172023.2762500015,
      "d": 114.08694791665766,
      "v": 78
    },
    {
      "midi": 31,
      "hit": false,
      "t": 172142.3234999985,
      "d": 208.33268749999115,
      "v": 68
    },
    {
      "midi": 67,
      "hit": false,
      "t": 172142.32349999907,
      "d": 9.920604166662088,
      "v": 103
    },
    {
      "midi": 71,
      "hit": false,
      "t": 172142.32349999907,
      "d": 9.920604166662088,
      "v": 103
    },
    {
      "midi": 55,
      "hit": false,
      "t": 172142.32350000017,
      "d": 208.33268749999115,
      "v": 113
    },
    {
      "midi": 55,
      "hit": false,
      "t": 172142.3235000015,
      "d": 114.08694791665766,
      "v": 78
    },
    {
      "midi": 43,
      "hit": false,
      "t": 172142.3235000025,
      "d": 173.6105729166593,
      "v": 78
    },
    {
      "midi": 67,
      "hit": false,
      "t": 172261.37074999907,
      "d": 9.920604166662088,
      "v": 103
    },
    {
      "midi": 71,
      "hit": false,
      "t": 172261.37074999907,
      "d": 9.920604166662088,
      "v": 103
    },
    {
      "midi": 55,
      "hit": false,
      "t": 172261.37075000152,
      "d": 114.08694791665766,
      "v": 78
    },
    {
      "midi": 31,
      "hit": false,
      "t": 172380.4179999985,
      "d": 208.33268749999115,
      "v": 68
    },
    {
      "midi": 57,
      "hit": false,
      "t": 172380.41800000015,
      "d": 208.33268749999115,
      "v": 106
    },
    {
      "midi": 43,
      "hit": false,
      "t": 172380.41800000152,
      "d": 114.08694791665766,
      "v": 78
    },
    {
      "midi": 31,
      "hit": false,
      "t": 172380.4180000025,
      "d": 173.6105729166593,
      "v": 67
    },
    {
      "midi": 43,
      "hit": false,
      "t": 172499.46525000152,
      "d": 114.08694791665766,
      "v": 78
    },
    {
      "midi": 31,
      "hit": false,
      "t": 172618.51249999847,
      "d": 208.33268749999115,
      "v": 68
    },
    {
      "midi": 67,
      "hit": false,
      "t": 172618.51249999908,
      "d": 9.920604166662088,
      "v": 103
    },
    {
      "midi": 71,
      "hit": false,
      "t": 172618.51249999908,
      "d": 9.920604166662088,
      "v": 103
    },
    {
      "midi": 57,
      "hit": false,
      "t": 172618.51250000013,
      "d": 208.33268749999115,
      "v": 115
    },
    {
      "midi": 55,
      "hit": false,
      "t": 172618.51250000153,
      "d": 114.08694791665766,
      "v": 78
    },
    {
      "midi": 43,
      "hit": false,
      "t": 172618.51250000251,
      "d": 173.6105729166593,
      "v": 70
    },
    {
      "midi": 67,
      "hit": false,
      "t": 172737.55974999908,
      "d": 9.920604166662088,
      "v": 103
    },
    {
      "midi": 71,
      "hit": false,
      "t": 172737.55974999908,
      "d": 9.920604166662088,
      "v": 103
    },
    {
      "midi": 55,
      "hit": false,
      "t": 172737.55975000153,
      "d": 114.08694791665766,
      "v": 78
    },
    {
      "midi": 31,
      "hit": false,
      "t": 172856.60699999845,
      "d": 208.33268749999115,
      "v": 68
    },
    {
      "midi": 59,
      "hit": false,
      "t": 172856.6070000001,
      "d": 208.33268749999115,
      "v": 113
    },
    {
      "midi": 43,
      "hit": false,
      "t": 172856.60700000153,
      "d": 114.08694791665766,
      "v": 78
    },
    {
      "midi": 31,
      "hit": false,
      "t": 172856.60700000252,
      "d": 173.6105729166593,
      "v": 56
    },
    {
      "midi": 43,
      "hit": false,
      "t": 172975.65425000153,
      "d": 114.08694791665766,
      "v": 78
    },
    {
      "midi": 31,
      "hit": false,
      "t": 173094.70149999842,
      "d": 208.33268749999115,
      "v": 68
    },
    {
      "midi": 67,
      "hit": false,
      "t": 173094.7014999991,
      "d": 9.920604166662088,
      "v": 103
    },
    {
      "midi": 71,
      "hit": false,
      "t": 173094.7014999991,
      "d": 9.920604166662088,
      "v": 103
    },
    {
      "midi": 59,
      "hit": false,
      "t": 173094.70150000008,
      "d": 208.33268749999115,
      "v": 113
    },
    {
      "midi": 55,
      "hit": false,
      "t": 173094.70150000154,
      "d": 114.08694791665766,
      "v": 78
    },
    {
      "midi": 43,
      "hit": false,
      "t": 173094.70150000253,
      "d": 173.6105729166593,
      "v": 70
    },
    {
      "midi": 67,
      "hit": false,
      "t": 173213.7487499991,
      "d": 9.920604166662088,
      "v": 103
    },
    {
      "midi": 71,
      "hit": false,
      "t": 173213.7487499991,
      "d": 9.920604166662088,
      "v": 103
    },
    {
      "midi": 55,
      "hit": false,
      "t": 173213.74875000154,
      "d": 114.08694791665766,
      "v": 78
    },
    {
      "midi": 36,
      "hit": false,
      "t": 173332.7959999984,
      "d": 208.33268749999115,
      "v": 68
    },
    {
      "midi": 64,
      "hit": false,
      "t": 173332.7960000001,
      "d": 1423.6066979166644,
      "v": 58
    },
    {
      "midi": 67,
      "hit": false,
      "t": 173332.7960000001,
      "d": 1423.6066979166644,
      "v": 58
    },
    {
      "midi": 72,
      "hit": false,
      "t": 173332.7960000001,
      "d": 1423.6066979166644,
      "v": 58
    },
    {
      "midi": 60,
      "hit": false,
      "t": 173332.7960000001,
      "d": 1899.7956979166775,
      "v": 111
    },
    {
      "midi": 36,
      "hit": false,
      "t": 173332.79600000154,
      "d": 114.08694791665766,
      "v": 78
    },
    {
      "midi": 36,
      "hit": false,
      "t": 173332.79600000253,
      "d": 173.6105729166593,
      "v": 74
    },
    {
      "midi": 36,
      "hit": false,
      "t": 173451.84325000155,
      "d": 114.08694791665766,
      "v": 78
    },
    {
      "midi": 36,
      "hit": false,
      "t": 173570.89049999838,
      "d": 208.33268749999115,
      "v": 68
    },
    {
      "midi": 60,
      "hit": false,
      "t": 173570.8904999991,
      "d": 9.920604166662088,
      "v": 103
    },
    {
      "midi": 64,
      "hit": false,
      "t": 173570.8904999991,
      "d": 9.920604166662088,
      "v": 103
    },
    {
      "midi": 48,
      "hit": false,
      "t": 173570.89050000155,
      "d": 114.08694791665766,
      "v": 78
    },
    {
      "midi": 48,
      "hit": false,
      "t": 173570.89050000254,
      "d": 173.6105729166593,
      "v": 70
    },
    {
      "midi": 60,
      "hit": false,
      "t": 173689.9377499991,
      "d": 9.920604166662088,
      "v": 103
    },
    {
      "midi": 64,
      "hit": false,
      "t": 173689.9377499991,
      "d": 9.920604166662088,
      "v": 103
    },
    {
      "midi": 48,
      "hit": false,
      "t": 173689.93775000155,
      "d": 114.08694791665766,
      "v": 78
    },
    {
      "midi": 36,
      "hit": false,
      "t": 173808.98499999836,
      "d": 208.33268749999115,
      "v": 68
    },
    {
      "midi": 36,
      "hit": false,
      "t": 173808.98500000156,
      "d": 114.08694791665766,
      "v": 78
    },
    {
      "midi": 36,
      "hit": false,
      "t": 173808.98500000255,
      "d": 173.6105729166593,
      "v": 64
    },
    {
      "midi": 36,
      "hit": false,
      "t": 173928.03225000156,
      "d": 114.08694791665766,
      "v": 78
    },
    {
      "midi": 36,
      "hit": false,
      "t": 174047.07949999833,
      "d": 208.33268749999115,
      "v": 68
    },
    {
      "midi": 60,
      "hit": false,
      "t": 174047.07949999912,
      "d": 9.920604166662088,
      "v": 103
    },
    {
      "midi": 64,
      "hit": false,
      "t": 174047.07949999912,
      "d": 9.920604166662088,
      "v": 103
    },
    {
      "midi": 48,
      "hit": false,
      "t": 174047.07950000156,
      "d": 114.08694791665766,
      "v": 78
    },
    {
      "midi": 48,
      "hit": false,
      "t": 174047.07950000255,
      "d": 173.6105729166593,
      "v": 74
    },
    {
      "midi": 60,
      "hit": false,
      "t": 174166.12674999912,
      "d": 9.920604166662088,
      "v": 103
    },
    {
      "midi": 64,
      "hit": false,
      "t": 174166.12674999912,
      "d": 9.920604166662088,
      "v": 103
    },
    {
      "midi": 48,
      "hit": false,
      "t": 174166.12675000157,
      "d": 114.08694791665766,
      "v": 78
    },
    {
      "midi": 36,
      "hit": false,
      "t": 174285.1739999983,
      "d": 208.33268749999115,
      "v": 68
    },
    {
      "midi": 36,
      "hit": false,
      "t": 174285.17400000157,
      "d": 114.08694791665766,
      "v": 78
    },
    {
      "midi": 36,
      "hit": false,
      "t": 174285.17400000256,
      "d": 173.6105729166593,
      "v": 50
    },
    {
      "midi": 36,
      "hit": false,
      "t": 174404.22125000157,
      "d": 114.08694791665766,
      "v": 78
    },
    {
      "midi": 36,
      "hit": false,
      "t": 174523.2684999983,
      "d": 208.33268749999115,
      "v": 68
    },
    {
      "midi": 60,
      "hit": false,
      "t": 174523.26849999913,
      "d": 9.920604166662088,
      "v": 103
    },
    {
      "midi": 64,
      "hit": false,
      "t": 174523.26849999913,
      "d": 9.920604166662088,
      "v": 103
    },
    {
      "midi": 48,
      "hit": false,
      "t": 174523.26850000158,
      "d": 114.08694791665766,
      "v": 78
    },
    {
      "midi": 48,
      "hit": false,
      "t": 174523.26850000257,
      "d": 173.6105729166593,
      "v": 73
    },
    {
      "midi": 60,
      "hit": false,
      "t": 174642.31574999914,
      "d": 9.920604166662088,
      "v": 103
    },
    {
      "midi": 64,
      "hit": false,
      "t": 174642.31574999914,
      "d": 9.920604166662088,
      "v": 103
    },
    {
      "midi": 48,
      "hit": false,
      "t": 174642.31575000158,
      "d": 114.08694791665766,
      "v": 78
    },
    {
      "midi": 38,
      "hit": false,
      "t": 174761.36299999827,
      "d": 208.33268749999115,
      "v": 68
    },
    {
      "midi": 66,
      "hit": false,
      "t": 174761.3630000001,
      "d": 471.22869791666744,
      "v": 58
    },
    {
      "midi": 69,
      "hit": false,
      "t": 174761.3630000001,
      "d": 471.22869791666744,
      "v": 58
    },
    {
      "midi": 74,
      "hit": false,
      "t": 174761.3630000001,
      "d": 471.22869791666744,
      "v": 58
    },
    {
      "midi": 38,
      "hit": false,
      "t": 174761.36300000158,
      "d": 114.08694791665766,
      "v": 78
    },
    {
      "midi": 38,
      "hit": false,
      "t": 174761.36300000257,
      "d": 173.6105729166593,
      "v": 66
    },
    {
      "midi": 38,
      "hit": false,
      "t": 174880.4102500016,
      "d": 114.08694791665766,
      "v": 78
    },
    {
      "midi": 38,
      "hit": false,
      "t": 174999.45749999824,
      "d": 208.33268749999115,
      "v": 68
    },
    {
      "midi": 62,
      "hit": false,
      "t": 174999.45749999915,
      "d": 9.920604166662088,
      "v": 103
    },
    {
      "midi": 66,
      "hit": false,
      "t": 174999.45749999915,
      "d": 9.920604166662088,
      "v": 103
    },
    {
      "midi": 50,
      "hit": false,
      "t": 174999.4575000016,
      "d": 114.08694791665766,
      "v": 78
    },
    {
      "midi": 50,
      "hit": false,
      "t": 174999.45750000258,
      "d": 173.6105729166593,
      "v": 86
    },
    {
      "midi": 62,
      "hit": false,
      "t": 175118.50474999915,
      "d": 9.920604166662088,
      "v": 103
    },
    {
      "midi": 66,
      "hit": false,
      "t": 175118.50474999915,
      "d": 9.920604166662088,
      "v": 103
    },
    {
      "midi": 50,
      "hit": false,
      "t": 175118.5047500016,
      "d": 114.08694791665766,
      "v": 78
    },
    {
      "midi": 34,
      "hit": false,
      "t": 175237.55199999822,
      "d": 208.33268749999115,
      "v": 68
    },
    {
      "midi": 58,
      "hit": false,
      "t": 175237.5520000001,
      "d": 947.4176979166805,
      "v": 103
    },
    {
      "midi": 62,
      "hit": false,
      "t": 175237.5520000001,
      "d": 947.4176979166805,
      "v": 58
    },
    {
      "midi": 65,
      "hit": false,
      "t": 175237.5520000001,
      "d": 947.4176979166805,
      "v": 58
    },
    {
      "midi": 70,
      "hit": false,
      "t": 175237.5520000001,
      "d": 947.4176979166805,
      "v": 58
    },
    {
      "midi": 34,
      "hit": false,
      "t": 175237.5520000016,
      "d": 114.08694791665766,
      "v": 78
    },
    {
      "midi": 34,
      "hit": false,
      "t": 175237.5520000026,
      "d": 173.6105729166593,
      "v": 74
    },
    {
      "midi": 34,
      "hit": false,
      "t": 175356.5992500016,
      "d": 114.08694791665766,
      "v": 78
    },
    {
      "midi": 34,
      "hit": false,
      "t": 175475.6464999982,
      "d": 208.33268749999115,
      "v": 68
    },
    {
      "midi": 58,
      "hit": false,
      "t": 175475.64649999916,
      "d": 9.920604166662088,
      "v": 103
    },
    {
      "midi": 62,
      "hit": false,
      "t": 175475.64649999916,
      "d": 9.920604166662088,
      "v": 103
    },
    {
      "midi": 46,
      "hit": false,
      "t": 175475.6465000016,
      "d": 114.08694791665766,
      "v": 78
    },
    {
      "midi": 46,
      "hit": false,
      "t": 175475.6465000026,
      "d": 173.6105729166593,
      "v": 70
    },
    {
      "midi": 58,
      "hit": false,
      "t": 175594.69374999916,
      "d": 9.920604166662088,
      "v": 103
    },
    {
      "midi": 62,
      "hit": false,
      "t": 175594.69374999916,
      "d": 9.920604166662088,
      "v": 103
    },
    {
      "midi": 46,
      "hit": false,
      "t": 175594.6937500016,
      "d": 114.08694791665766,
      "v": 78
    },
    {
      "midi": 34,
      "hit": false,
      "t": 175713.74099999818,
      "d": 208.33268749999115,
      "v": 68
    },
    {
      "midi": 34,
      "hit": false,
      "t": 175713.7410000016,
      "d": 114.08694791665766,
      "v": 78
    },
    {
      "midi": 34,
      "hit": false,
      "t": 175713.7410000026,
      "d": 173.6105729166593,
      "v": 64
    },
    {
      "midi": 34,
      "hit": false,
      "t": 175832.7882500016,
      "d": 114.08694791665766,
      "v": 78
    },
    {
      "midi": 34,
      "hit": false,
      "t": 175951.83549999815,
      "d": 208.33268749999115,
      "v": 68
    },
    {
      "midi": 58,
      "hit": false,
      "t": 175951.83549999917,
      "d": 9.920604166662088,
      "v": 103
    },
    {
      "midi": 62,
      "hit": false,
      "t": 175951.83549999917,
      "d": 9.920604166662088,
      "v": 103
    },
    {
      "midi": 46,
      "hit": false,
      "t": 175951.83550000162,
      "d": 114.08694791665766,
      "v": 78
    },
    {
      "midi": 46,
      "hit": false,
      "t": 175951.8355000026,
      "d": 173.6105729166593,
      "v": 74
    },
    {
      "midi": 58,
      "hit": false,
      "t": 176070.88274999917,
      "d": 9.920604166662088,
      "v": 103
    },
    {
      "midi": 62,
      "hit": false,
      "t": 176070.88274999917,
      "d": 9.920604166662088,
      "v": 103
    },
    {
      "midi": 46,
      "hit": false,
      "t": 176070.88275000162,
      "d": 114.08694791665766,
      "v": 78
    },
    {
      "midi": 36,
      "hit": false,
      "t": 176189.92999999813,
      "d": 208.33268749999115,
      "v": 68
    },
    {
      "midi": 60,
      "hit": false,
      "t": 176189.93000000014,
      "d": 947.4176979166805,
      "v": 106
    },
    {
      "midi": 64,
      "hit": false,
      "t": 176189.93000000014,
      "d": 947.4176979166805,
      "v": 58
    },
    {
      "midi": 67,
      "hit": false,
      "t": 176189.93000000014,
      "d": 947.4176979166805,
      "v": 58
    },
    {
      "midi": 72,
      "hit": false,
      "t": 176189.93000000014,
      "d": 947.4176979166805,
      "v": 58
    },
    {
      "midi": 36,
      "hit": false,
      "t": 176189.93000000162,
      "d": 114.08694791665766,
      "v": 78
    },
    {
      "midi": 36,
      "hit": false,
      "t": 176189.9300000026,
      "d": 173.6105729166593,
      "v": 50
    },
    {
      "midi": 36,
      "hit": false,
      "t": 176308.97725000163,
      "d": 114.08694791665766,
      "v": 78
    },
    {
      "midi": 36,
      "hit": false,
      "t": 176428.0244999981,
      "d": 208.33268749999115,
      "v": 68
    },
    {
      "midi": 60,
      "hit": false,
      "t": 176428.02449999918,
      "d": 9.920604166662088,
      "v": 103
    },
    {
      "midi": 64,
      "hit": false,
      "t": 176428.02449999918,
      "d": 9.920604166662088,
      "v": 103
    },
    {
      "midi": 48,
      "hit": false,
      "t": 176428.02450000163,
      "d": 114.08694791665766,
      "v": 78
    },
    {
      "midi": 48,
      "hit": false,
      "t": 176428.02450000262,
      "d": 173.6105729166593,
      "v": 73
    },
    {
      "midi": 58,
      "hit": false,
      "t": 176547.0717499992,
      "d": 9.920604166662088,
      "v": 103
    },
    {
      "midi": 62,
      "hit": false,
      "t": 176547.0717499992,
      "d": 9.920604166662088,
      "v": 103
    },
    {
      "midi": 46,
      "hit": false,
      "t": 176547.07175000163,
      "d": 114.08694791665766,
      "v": 78
    },
    {
      "midi": 36,
      "hit": false,
      "t": 176666.11899999809,
      "d": 208.33268749999115,
      "v": 68
    },
    {
      "midi": 36,
      "hit": false,
      "t": 176666.11900000164,
      "d": 114.08694791665766,
      "v": 78
    },
    {
      "midi": 36,
      "hit": false,
      "t": 176666.11900000263,
      "d": 173.6105729166593,
      "v": 66
    },
    {
      "midi": 36,
      "hit": false,
      "t": 176785.16625000164,
      "d": 114.08694791665766,
      "v": 78
    },
    {
      "midi": 36,
      "hit": false,
      "t": 176904.21349999806,
      "d": 208.33268749999115,
      "v": 68
    },
    {
      "midi": 60,
      "hit": false,
      "t": 176904.2134999992,
      "d": 9.920604166662088,
      "v": 103
    },
    {
      "midi": 64,
      "hit": false,
      "t": 176904.2134999992,
      "d": 9.920604166662088,
      "v": 103
    },
    {
      "midi": 48,
      "hit": false,
      "t": 176904.21350000164,
      "d": 114.08694791665766,
      "v": 78
    },
    {
      "midi": 48,
      "hit": false,
      "t": 176904.21350000263,
      "d": 173.6105729166593,
      "v": 86
    },
    {
      "midi": 60,
      "hit": false,
      "t": 177023.2607499992,
      "d": 9.920604166662088,
      "v": 103
    },
    {
      "midi": 64,
      "hit": false,
      "t": 177023.2607499992,
      "d": 9.920604166662088,
      "v": 103
    },
    {
      "midi": 48,
      "hit": false,
      "t": 177023.26075000165,
      "d": 114.08694791665766,
      "v": 78
    },
    {
      "midi": 31,
      "hit": false,
      "t": 177142.30799999804,
      "d": 208.33268749999115,
      "v": 68
    },
    {
      "midi": 74,
      "hit": false,
      "t": 177142.30799999987,
      "d": 272.8166145833384,
      "v": 64
    },
    {
      "midi": 79,
      "hit": false,
      "t": 177142.30799999987,
      "d": 272.8166145833384,
      "v": 72
    },
    {
      "midi": 83,
      "hit": false,
      "t": 177142.30799999987,
      "d": 272.8166145833384,
      "v": 72
    },
    {
      "midi": 83,
      "hit": false,
      "t": 177142.308,
      "d": 2.480151041672798,
      "v": 84
    },
    {
      "midi": 83,
      "hit": false,
      "t": 177142.308,
      "d": 2.480151041672798,
      "v": 110
    },
    {
      "midi": 62,
      "hit": false,
      "t": 177142.30800000016,
      "d": 1899.7956979166775,
      "v": 58
    },
    {
      "midi": 67,
      "hit": false,
      "t": 177142.30800000016,
      "d": 1899.7956979166775,
      "v": 58
    },
    {
      "midi": 71,
      "hit": false,
      "t": 177142.30800000016,
      "d": 1899.7956979166775,
      "v": 58
    },
    {
      "midi": 74,
      "hit": false,
      "t": 177142.3080000006,
      "d": 272.8166145833384,
      "v": 90
    },
    {
      "midi": 79,
      "hit": false,
      "t": 177142.3080000006,
      "d": 272.8166145833384,
      "v": 100
    },
    {
      "midi": 83,
      "hit": false,
      "t": 177142.3080000006,
      "d": 272.8166145833384,
      "v": 100
    },
    {
      "midi": 62,
      "hit": false,
      "t": 177142.3080000006,
      "d": 272.8166145833384,
      "v": 90
    },
    {
      "midi": 67,
      "hit": false,
      "t": 177142.3080000006,
      "d": 272.8166145833384,
      "v": 100
    },
    {
      "midi": 71,
      "hit": false,
      "t": 177142.3080000006,
      "d": 272.8166145833384,
      "v": 100
    },
    {
      "midi": 43,
      "hit": false,
      "t": 177142.30800000165,
      "d": 114.08694791665766,
      "v": 78
    },
    {
      "midi": 31,
      "hit": false,
      "t": 177142.30800000264,
      "d": 173.6105729166593,
      "v": 76
    },
    {
      "midi": 83,
      "hit": false,
      "t": 177261.35525,
      "d": 2.480151041672798,
      "v": 91
    },
    {
      "midi": 83,
      "hit": false,
      "t": 177261.35525,
      "d": 2.480151041672798,
      "v": 110
    },
    {
      "midi": 43,
      "hit": false,
      "t": 177261.35525000165,
      "d": 114.08694791665766,
      "v": 78
    },
    {
      "midi": 31,
      "hit": false,
      "t": 177380.40249999802,
      "d": 208.33268749999115,
      "v": 68
    },
    {
      "midi": 67,
      "hit": false,
      "t": 177380.4024999992,
      "d": 9.920604166662088,
      "v": 103
    },
    {
      "midi": 71,
      "hit": false,
      "t": 177380.4024999992,
      "d": 9.920604166662088,
      "v": 103
    },
    {
      "midi": 83,
      "hit": false,
      "t": 177380.4025,
      "d": 2.480151041672798,
      "v": 88
    },
    {
      "midi": 83,
      "hit": false,
      "t": 177380.4025,
      "d": 2.480151041672798,
      "v": 110
    },
    {
      "midi": 55,
      "hit": false,
      "t": 177380.40250000166,
      "d": 114.08694791665766,
      "v": 78
    },
    {
      "midi": 43,
      "hit": false,
      "t": 177380.40250000264,
      "d": 173.6105729166593,
      "v": 82
    },
    {
      "midi": 67,
      "hit": false,
      "t": 177499.4497499992,
      "d": 9.920604166662088,
      "v": 103
    },
    {
      "midi": 71,
      "hit": false,
      "t": 177499.4497499992,
      "d": 9.920604166662088,
      "v": 103
    },
    {
      "midi": 83,
      "hit": false,
      "t": 177499.44975,
      "d": 2.480151041672798,
      "v": 91
    },
    {
      "midi": 83,
      "hit": false,
      "t": 177499.44975,
      "d": 2.480151041672798,
      "v": 110
    },
    {
      "midi": 55,
      "hit": false,
      "t": 177499.44975000166,
      "d": 114.08694791665766,
      "v": 78
    },
    {
      "midi": 31,
      "hit": false,
      "t": 177618.496999998,
      "d": 208.33268749999115,
      "v": 68
    },
    {
      "midi": 83,
      "hit": false,
      "t": 177618.497,
      "d": 2.480151041672798,
      "v": 87
    },
    {
      "midi": 83,
      "hit": false,
      "t": 177618.497,
      "d": 2.480151041672798,
      "v": 110
    },
    {
      "midi": 43,
      "hit": false,
      "t": 177618.49700000166,
      "d": 114.08694791665766,
      "v": 78
    },
    {
      "midi": 31,
      "hit": false,
      "t": 177618.49700000265,
      "d": 173.6105729166593,
      "v": 62
    },
    {
      "midi": 83,
      "hit": false,
      "t": 177737.54425,
      "d": 2.480151041672798,
      "v": 87
    },
    {
      "midi": 83,
      "hit": false,
      "t": 177737.54425,
      "d": 2.480151041672798,
      "v": 110
    },
    {
      "midi": 43,
      "hit": false,
      "t": 177737.54425000167,
      "d": 114.08694791665766,
      "v": 78
    },
    {
      "midi": 31,
      "hit": false,
      "t": 177856.59149999797,
      "d": 208.33268749999115,
      "v": 68
    },
    {
      "midi": 67,
      "hit": false,
      "t": 177856.59149999922,
      "d": 9.920604166662088,
      "v": 103
    },
    {
      "midi": 71,
      "hit": false,
      "t": 177856.59149999922,
      "d": 9.920604166662088,
      "v": 103
    },
    {
      "midi": 83,
      "hit": false,
      "t": 177856.5915,
      "d": 2.480151041672798,
      "v": 89
    },
    {
      "midi": 83,
      "hit": false,
      "t": 177856.5915,
      "d": 2.480151041672798,
      "v": 110
    },
    {
      "midi": 55,
      "hit": false,
      "t": 177856.59150000167,
      "d": 114.08694791665766,
      "v": 78
    },
    {
      "midi": 43,
      "hit": false,
      "t": 177856.59150000266,
      "d": 173.6105729166593,
      "v": 78
    },
    {
      "midi": 67,
      "hit": false,
      "t": 177975.63874999923,
      "d": 9.920604166662088,
      "v": 103
    },
    {
      "midi": 71,
      "hit": false,
      "t": 177975.63874999923,
      "d": 9.920604166662088,
      "v": 103
    },
    {
      "midi": 83,
      "hit": false,
      "t": 177975.63875,
      "d": 2.480151041672798,
      "v": 91
    },
    {
      "midi": 83,
      "hit": false,
      "t": 177975.63875,
      "d": 2.480151041672798,
      "v": 110
    },
    {
      "midi": 55,
      "hit": false,
      "t": 177975.63875000167,
      "d": 114.08694791665766,
      "v": 78
    },
    {
      "midi": 31,
      "hit": false,
      "t": 178094.68599999795,
      "d": 208.33268749999115,
      "v": 68
    },
    {
      "midi": 83,
      "hit": false,
      "t": 178094.68600000002,
      "d": 2.480151041672798,
      "v": 91
    },
    {
      "midi": 83,
      "hit": false,
      "t": 178094.68600000002,
      "d": 2.480151041672798,
      "v": 110
    },
    {
      "midi": 43,
      "hit": false,
      "t": 178094.68600000167,
      "d": 114.08694791665766,
      "v": 78
    },
    {
      "midi": 31,
      "hit": false,
      "t": 178094.68600000266,
      "d": 173.6105729166593,
      "v": 67
    },
    {
      "midi": 83,
      "hit": false,
      "t": 178213.73325000002,
      "d": 2.480151041672798,
      "v": 92
    },
    {
      "midi": 83,
      "hit": false,
      "t": 178213.73325000002,
      "d": 2.480151041672798,
      "v": 110
    },
    {
      "midi": 43,
      "hit": false,
      "t": 178213.73325000168,
      "d": 114.08694791665766,
      "v": 78
    },
    {
      "midi": 31,
      "hit": false,
      "t": 178332.78049999793,
      "d": 208.33268749999115,
      "v": 68
    },
    {
      "midi": 67,
      "hit": false,
      "t": 178332.78049999924,
      "d": 9.920604166662088,
      "v": 103
    },
    {
      "midi": 71,
      "hit": false,
      "t": 178332.78049999924,
      "d": 9.920604166662088,
      "v": 103
    },
    {
      "midi": 83,
      "hit": false,
      "t": 178332.78050000002,
      "d": 2.480151041672798,
      "v": 96
    },
    {
      "midi": 83,
      "hit": false,
      "t": 178332.78050000002,
      "d": 2.480151041672798,
      "v": 110
    },
    {
      "midi": 55,
      "hit": false,
      "t": 178332.78050000168,
      "d": 114.08694791665766,
      "v": 78
    },
    {
      "midi": 43,
      "hit": false,
      "t": 178332.78050000267,
      "d": 173.6105729166593,
      "v": 70
    },
    {
      "midi": 67,
      "hit": false,
      "t": 178451.82774999924,
      "d": 9.920604166662088,
      "v": 103
    },
    {
      "midi": 71,
      "hit": false,
      "t": 178451.82774999924,
      "d": 9.920604166662088,
      "v": 103
    },
    {
      "midi": 83,
      "hit": false,
      "t": 178451.82775000003,
      "d": 2.480151041672798,
      "v": 92
    },
    {
      "midi": 83,
      "hit": false,
      "t": 178451.82775000003,
      "d": 2.480151041672798,
      "v": 110
    },
    {
      "midi": 55,
      "hit": false,
      "t": 178451.82775000168,
      "d": 114.08694791665766,
      "v": 78
    },
    {
      "midi": 31,
      "hit": false,
      "t": 178570.8749999979,
      "d": 208.33268749999115,
      "v": 68
    },
    {
      "midi": 83,
      "hit": false,
      "t": 178570.87500000003,
      "d": 2.480151041672798,
      "v": 96
    },
    {
      "midi": 83,
      "hit": false,
      "t": 178570.87500000003,
      "d": 2.480151041672798,
      "v": 110
    },
    {
      "midi": 43,
      "hit": false,
      "t": 178570.8750000017,
      "d": 114.08694791665766,
      "v": 78
    },
    {
      "midi": 31,
      "hit": false,
      "t": 178570.87500000268,
      "d": 173.6105729166593,
      "v": 56
    },
    {
      "midi": 83,
      "hit": false,
      "t": 178689.92225000003,
      "d": 2.480151041672798,
      "v": 96
    },
    {
      "midi": 83,
      "hit": false,
      "t": 178689.92225000003,
      "d": 2.480151041672798,
      "v": 110
    },
    {
      "midi": 43,
      "hit": false,
      "t": 178689.9222500017,
      "d": 114.08694791665766,
      "v": 78
    },
    {
      "midi": 31,
      "hit": false,
      "t": 178808.96949999788,
      "d": 208.33268749999115,
      "v": 68
    },
    {
      "midi": 67,
      "hit": false,
      "t": 178808.96949999925,
      "d": 9.920604166662088,
      "v": 103
    },
    {
      "midi": 71,
      "hit": false,
      "t": 178808.96949999925,
      "d": 9.920604166662088,
      "v": 103
    },
    {
      "midi": 83,
      "hit": false,
      "t": 178808.96950000004,
      "d": 2.480151041672798,
      "v": 98
    },
    {
      "midi": 83,
      "hit": false,
      "t": 178808.96950000004,
      "d": 2.480151041672798,
      "v": 110
    },
    {
      "midi": 55,
      "hit": false,
      "t": 178808.9695000017,
      "d": 114.08694791665766,
      "v": 78
    },
    {
      "midi": 43,
      "hit": false,
      "t": 178808.96950000268,
      "d": 173.6105729166593,
      "v": 70
    },
    {
      "midi": 67,
      "hit": false,
      "t": 178928.01674999925,
      "d": 9.920604166662088,
      "v": 103
    },
    {
      "midi": 71,
      "hit": false,
      "t": 178928.01674999925,
      "d": 9.920604166662088,
      "v": 103
    },
    {
      "midi": 83,
      "hit": false,
      "t": 178928.01675000004,
      "d": 2.480151041672798,
      "v": 101
    },
    {
      "midi": 83,
      "hit": false,
      "t": 178928.01675000004,
      "d": 2.480151041672798,
      "v": 110
    },
    {
      "midi": 55,
      "hit": false,
      "t": 178928.0167500017,
      "d": 114.08694791665766,
      "v": 78
    },
    {
      "midi": 38,
      "hit": false,
      "t": 179047.06399999786,
      "d": 208.33268749999115,
      "v": 68
    },
    {
      "midi": 74,
      "hit": false,
      "t": 179047.06399999987,
      "d": 186.01132812499418,
      "v": 54
    },
    {
      "midi": 78,
      "hit": false,
      "t": 179047.06399999987,
      "d": 186.01132812499418,
      "v": 57
    },
    {
      "midi": 81,
      "hit": false,
      "t": 179047.06399999987,
      "d": 186.01132812499418,
      "v": 49
    },
    {
      "midi": 62,
      "hit": false,
      "t": 179047.0640000002,
      "d": 1899.7956979166775,
      "v": 58
    },
    {
      "midi": 66,
      "hit": false,
      "t": 179047.0640000002,
      "d": 1899.7956979166775,
      "v": 58
    },
    {
      "midi": 69,
      "hit": false,
      "t": 179047.0640000002,
      "d": 1899.7956979166775,
      "v": 58
    },
    {
      "midi": 74,
      "hit": false,
      "t": 179047.0640000006,
      "d": 173.6105729166593,
      "v": 76
    },
    {
      "midi": 78,
      "hit": false,
      "t": 179047.0640000006,
      "d": 173.6105729166593,
      "v": 80
    },
    {
      "midi": 81,
      "hit": false,
      "t": 179047.0640000006,
      "d": 173.6105729166593,
      "v": 70
    },
    {
      "midi": 62,
      "hit": false,
      "t": 179047.0640000006,
      "d": 173.6105729166593,
      "v": 76
    },
    {
      "midi": 66,
      "hit": false,
      "t": 179047.0640000006,
      "d": 173.6105729166593,
      "v": 80
    },
    {
      "midi": 69,
      "hit": false,
      "t": 179047.0640000006,
      "d": 173.6105729166593,
      "v": 70
    },
    {
      "midi": 38,
      "hit": false,
      "t": 179047.0640000017,
      "d": 114.08694791665766,
      "v": 78
    },
    {
      "midi": 38,
      "hit": false,
      "t": 179047.0640000027,
      "d": 173.6105729166593,
      "v": 70
    },
    {
      "midi": 38,
      "hit": false,
      "t": 179166.1112500017,
      "d": 114.08694791665766,
      "v": 78
    },
    {
      "midi": 38,
      "hit": false,
      "t": 179285.15849999784,
      "d": 208.33268749999115,
      "v": 68
    },
    {
      "midi": 62,
      "hit": false,
      "t": 179285.15849999926,
      "d": 9.920604166662088,
      "v": 103
    },
    {
      "midi": 66,
      "hit": false,
      "t": 179285.15849999926,
      "d": 9.920604166662088,
      "v": 103
    },
    {
      "midi": 74,
      "hit": false,
      "t": 179285.15849999987,
      "d": 186.01132812499418,
      "v": 65
    },
    {
      "midi": 78,
      "hit": false,
      "t": 179285.15849999987,
      "d": 186.01132812499418,
      "v": 68
    },
    {
      "midi": 81,
      "hit": false,
      "t": 179285.15849999987,
      "d": 186.01132812499418,
      "v": 64
    },
    {
      "midi": 74,
      "hit": false,
      "t": 179285.1585000006,
      "d": 173.6105729166593,
      "v": 91
    },
    {
      "midi": 78,
      "hit": false,
      "t": 179285.1585000006,
      "d": 173.6105729166593,
      "v": 95
    },
    {
      "midi": 81,
      "hit": false,
      "t": 179285.1585000006,
      "d": 173.6105729166593,
      "v": 90
    },
    {
      "midi": 62,
      "hit": false,
      "t": 179285.1585000006,
      "d": 173.6105729166593,
      "v": 91
    },
    {
      "midi": 66,
      "hit": false,
      "t": 179285.1585000006,
      "d": 173.6105729166593,
      "v": 95
    },
    {
      "midi": 69,
      "hit": false,
      "t": 179285.1585000006,
      "d": 173.6105729166593,
      "v": 90
    },
    {
      "midi": 50,
      "hit": false,
      "t": 179285.1585000017,
      "d": 114.08694791665766,
      "v": 78
    },
    {
      "midi": 50,
      "hit": false,
      "t": 179285.1585000027,
      "d": 173.6105729166593,
      "v": 62
    },
    {
      "midi": 62,
      "hit": false,
      "t": 179404.20574999927,
      "d": 9.920604166662088,
      "v": 103
    },
    {
      "midi": 66,
      "hit": false,
      "t": 179404.20574999927,
      "d": 9.920604166662088,
      "v": 103
    },
    {
      "midi": 50,
      "hit": false,
      "t": 179404.2057500017,
      "d": 114.08694791665766,
      "v": 78
    },
    {
      "midi": 38,
      "hit": false,
      "t": 179523.2529999978,
      "d": 208.33268749999115,
      "v": 68
    },
    {
      "midi": 74,
      "hit": false,
      "t": 179523.25299999988,
      "d": 186.01132812499418,
      "v": 71
    },
    {
      "midi": 78,
      "hit": false,
      "t": 179523.25299999988,
      "d": 186.01132812499418,
      "v": 72
    },
    {
      "midi": 81,
      "hit": false,
      "t": 179523.25299999988,
      "d": 186.01132812499418,
      "v": 72
    },
    {
      "midi": 74,
      "hit": false,
      "t": 179523.2530000006,
      "d": 173.6105729166593,
      "v": 99
    },
    {
      "midi": 78,
      "hit": false,
      "t": 179523.2530000006,
      "d": 173.6105729166593,
      "v": 101
    },
    {
      "midi": 81,
      "hit": false,
      "t": 179523.2530000006,
      "d": 173.6105729166593,
      "v": 100
    },
    {
      "midi": 62,
      "hit": false,
      "t": 179523.2530000006,
      "d": 173.6105729166593,
      "v": 99
    },
    {
      "midi": 66,
      "hit": false,
      "t": 179523.2530000006,
      "d": 173.6105729166593,
      "v": 101
    },
    {
      "midi": 69,
      "hit": false,
      "t": 179523.2530000006,
      "d": 173.6105729166593,
      "v": 100
    },
    {
      "midi": 38,
      "hit": false,
      "t": 179523.2530000017,
      "d": 114.08694791665766,
      "v": 78
    },
    {
      "midi": 38,
      "hit": false,
      "t": 179523.2530000027,
      "d": 173.6105729166593,
      "v": 66
    },
    {
      "midi": 38,
      "hit": false,
      "t": 179642.30025000172,
      "d": 114.08694791665766,
      "v": 78
    },
    {
      "midi": 38,
      "hit": false,
      "t": 179761.3474999978,
      "d": 208.33268749999115,
      "v": 68
    },
    {
      "midi": 62,
      "hit": false,
      "t": 179761.34749999928,
      "d": 9.920604166662088,
      "v": 103
    },
    {
      "midi": 66,
      "hit": false,
      "t": 179761.34749999928,
      "d": 9.920604166662088,
      "v": 103
    },
    {
      "midi": 74,
      "hit": false,
      "t": 179761.3474999999,
      "d": 186.01132812499418,
      "v": 70
    },
    {
      "midi": 78,
      "hit": false,
      "t": 179761.3474999999,
      "d": 186.01132812499418,
      "v": 74
    },
    {
      "midi": 81,
      "hit": false,
      "t": 179761.3474999999,
      "d": 186.01132812499418,
      "v": 69
    },
    {
      "midi": 74,
      "hit": false,
      "t": 179761.34750000061,
      "d": 173.6105729166593,
      "v": 98
    },
    {
      "midi": 78,
      "hit": false,
      "t": 179761.34750000061,
      "d": 173.6105729166593,
      "v": 103
    },
    {
      "midi": 81,
      "hit": false,
      "t": 179761.34750000061,
      "d": 173.6105729166593,
      "v": 96
    },
    {
      "midi": 62,
      "hit": false,
      "t": 179761.34750000061,
      "d": 173.6105729166593,
      "v": 98
    },
    {
      "midi": 66,
      "hit": false,
      "t": 179761.34750000061,
      "d": 173.6105729166593,
      "v": 103
    },
    {
      "midi": 69,
      "hit": false,
      "t": 179761.34750000061,
      "d": 173.6105729166593,
      "v": 96
    },
    {
      "midi": 50,
      "hit": false,
      "t": 179761.34750000172,
      "d": 114.08694791665766,
      "v": 78
    },
    {
      "midi": 50,
      "hit": false,
      "t": 179761.3475000027,
      "d": 173.6105729166593,
      "v": 67
    },
    {
      "midi": 62,
      "hit": false,
      "t": 179880.39474999928,
      "d": 9.920604166662088,
      "v": 103
    },
    {
      "midi": 66,
      "hit": false,
      "t": 179880.39474999928,
      "d": 9.920604166662088,
      "v": 103
    },
    {
      "midi": 50,
      "hit": false,
      "t": 179880.39475000172,
      "d": 114.08694791665766,
      "v": 78
    },
    {
      "midi": 38,
      "hit": false,
      "t": 179999.44199999777,
      "d": 208.33268749999115,
      "v": 68
    },
    {
      "midi": 38,
      "hit": false,
      "t": 179999.44200000173,
      "d": 114.08694791665766,
      "v": 78
    },
    {
      "midi": 38,
      "hit": false,
      "t": 179999.44200000272,
      "d": 173.6105729166593,
      "v": 64
    },
    {
      "midi": 38,
      "hit": false,
      "t": 180118.48925000173,
      "d": 114.08694791665766,
      "v": 78
    },
    {
      "midi": 38,
      "hit": false,
      "t": 180237.53649999775,
      "d": 208.33268749999115,
      "v": 68
    },
    {
      "midi": 62,
      "hit": false,
      "t": 180237.5364999993,
      "d": 9.920604166662088,
      "v": 103
    },
    {
      "midi": 66,
      "hit": false,
      "t": 180237.5364999993,
      "d": 9.920604166662088,
      "v": 103
    },
    {
      "midi": 50,
      "hit": false,
      "t": 180237.53650000173,
      "d": 114.08694791665766,
      "v": 78
    },
    {
      "midi": 50,
      "hit": false,
      "t": 180237.53650000272,
      "d": 173.6105729166593,
      "v": 66
    },
    {
      "midi": 62,
      "hit": false,
      "t": 180356.5837499993,
      "d": 9.920604166662088,
      "v": 103
    },
    {
      "midi": 66,
      "hit": false,
      "t": 180356.5837499993,
      "d": 9.920604166662088,
      "v": 103
    },
    {
      "midi": 50,
      "hit": false,
      "t": 180356.58375000174,
      "d": 114.08694791665766,
      "v": 78
    },
    {
      "midi": 38,
      "hit": false,
      "t": 180475.63099999772,
      "d": 208.33268749999115,
      "v": 68
    },
    {
      "midi": 74,
      "hit": false,
      "t": 180475.63099999988,
      "d": 272.8166145833384,
      "v": 68
    },
    {
      "midi": 78,
      "hit": false,
      "t": 180475.63099999988,
      "d": 272.8166145833384,
      "v": 67
    },
    {
      "midi": 83,
      "hit": false,
      "t": 180475.63099999988,
      "d": 272.8166145833384,
      "v": 72
    },
    {
      "midi": 74,
      "hit": false,
      "t": 180475.6310000006,
      "d": 272.8166145833384,
      "v": 95
    },
    {
      "midi": 78,
      "hit": false,
      "t": 180475.6310000006,
      "d": 272.8166145833384,
      "v": 94
    },
    {
      "midi": 83,
      "hit": false,
      "t": 180475.6310000006,
      "d": 272.8166145833384,
      "v": 100
    },
    {
      "midi": 62,
      "hit": false,
      "t": 180475.6310000006,
      "d": 272.8166145833384,
      "v": 95
    },
    {
      "midi": 66,
      "hit": false,
      "t": 180475.6310000006,
      "d": 272.8166145833384,
      "v": 94
    },
    {
      "midi": 71,
      "hit": false,
      "t": 180475.6310000006,
      "d": 272.8166145833384,
      "v": 100
    },
    {
      "midi": 38,
      "hit": false,
      "t": 180475.63100000174,
      "d": 114.08694791665766,
      "v": 78
    },
    {
      "midi": 38,
      "hit": false,
      "t": 180475.63100000273,
      "d": 173.6105729166593,
      "v": 62
    },
    {
      "midi": 38,
      "hit": false,
      "t": 180594.67825000174,
      "d": 114.08694791665766,
      "v": 78
    },
    {
      "midi": 38,
      "hit": false,
      "t": 180713.7254999977,
      "d": 208.33268749999115,
      "v": 68
    },
    {
      "midi": 62,
      "hit": false,
      "t": 180713.7254999993,
      "d": 9.920604166662088,
      "v": 103
    },
    {
      "midi": 66,
      "hit": false,
      "t": 180713.7254999993,
      "d": 9.920604166662088,
      "v": 103
    },
    {
      "midi": 50,
      "hit": false,
      "t": 180713.72550000175,
      "d": 114.08694791665766,
      "v": 78
    },
    {
      "midi": 50,
      "hit": false,
      "t": 180713.72550000274,
      "d": 173.6105729166593,
      "v": 73
    },
    {
      "midi": 62,
      "hit": false,
      "t": 180832.7727499993,
      "d": 9.920604166662088,
      "v": 103
    },
    {
      "midi": 66,
      "hit": false,
      "t": 180832.7727499993,
      "d": 9.920604166662088,
      "v": 103
    },
    {
      "midi": 50,
      "hit": false,
      "t": 180832.77275000175,
      "d": 114.08694791665766,
      "v": 78
    },
    {
      "midi": 40,
      "hit": false,
      "t": 180951.81999999768,
      "d": 208.33268749999115,
      "v": 68
    },
    {
      "midi": 71,
      "hit": false,
      "t": 180951.8199999999,
      "d": 272.8166145833384,
      "v": 63
    },
    {
      "midi": 76,
      "hit": false,
      "t": 180951.8199999999,
      "d": 272.8166145833384,
      "v": 74
    },
    {
      "midi": 79,
      "hit": false,
      "t": 180951.8199999999,
      "d": 272.8166145833384,
      "v": 75
    },
    {
      "midi": 64,
      "hit": false,
      "t": 180951.8200000002,
      "d": 947.4176979166805,
      "v": 58
    },
    {
      "midi": 67,
      "hit": false,
      "t": 180951.8200000002,
      "d": 1899.7956979167066,
      "v": 58
    },
    {
      "midi": 71,
      "hit": false,
      "t": 180951.8200000002,
      "d": 1899.7956979167066,
      "v": 58
    },
    {
      "midi": 71,
      "hit": false,
      "t": 180951.82000000062,
      "d": 272.8166145833384,
      "v": 88
    },
    {
      "midi": 76,
      "hit": false,
      "t": 180951.82000000062,
      "d": 272.8166145833384,
      "v": 103
    },
    {
      "midi": 79,
      "hit": false,
      "t": 180951.82000000062,
      "d": 272.8166145833384,
      "v": 105
    },
    {
      "midi": 59,
      "hit": false,
      "t": 180951.82000000062,
      "d": 272.8166145833384,
      "v": 88
    },
    {
      "midi": 64,
      "hit": false,
      "t": 180951.82000000062,
      "d": 272.8166145833384,
      "v": 103
    },
    {
      "midi": 67,
      "hit": false,
      "t": 180951.82000000062,
      "d": 272.8166145833384,
      "v": 105
    },
    {
      "midi": 40,
      "hit": false,
      "t": 180951.82000000175,
      "d": 114.08694791665766,
      "v": 78
    },
    {
      "midi": 40,
      "hit": false,
      "t": 180951.82000000274,
      "d": 173.6105729166593,
      "v": 73
    },
    {
      "midi": 40,
      "hit": false,
      "t": 181070.86725000176,
      "d": 114.08694791665766,
      "v": 78
    },
    {
      "midi": 40,
      "hit": false,
      "t": 181189.91449999766,
      "d": 208.33268749999115,
      "v": 68
    },
    {
      "midi": 64,
      "hit": false,
      "t": 181189.91449999932,
      "d": 9.920604166662088,
      "v": 103
    },
    {
      "midi": 67,
      "hit": false,
      "t": 181189.91449999932,
      "d": 9.920604166662088,
      "v": 103
    },
    {
      "midi": 52,
      "hit": false,
      "t": 181189.91450000176,
      "d": 114.08694791665766,
      "v": 78
    },
    {
      "midi": 52,
      "hit": false,
      "t": 181189.91450000275,
      "d": 173.6105729166593,
      "v": 64
    },
    {
      "midi": 64,
      "hit": false,
      "t": 181308.96174999932,
      "d": 9.920604166662088,
      "v": 103
    },
    {
      "midi": 67,
      "hit": false,
      "t": 181308.96174999932,
      "d": 9.920604166662088,
      "v": 103
    },
    {
      "midi": 52,
      "hit": false,
      "t": 181308.96175000176,
      "d": 114.08694791665766,
      "v": 78
    },
    {
      "midi": 40,
      "hit": false,
      "t": 181428.00899999763,
      "d": 208.33268749999115,
      "v": 68
    },
    {
      "midi": 40,
      "hit": false,
      "t": 181428.00900000177,
      "d": 114.08694791665766,
      "v": 78
    },
    {
      "midi": 40,
      "hit": false,
      "t": 181428.00900000276,
      "d": 173.6105729166593,
      "v": 62
    },
    {
      "midi": 40,
      "hit": false,
      "t": 181547.05625000177,
      "d": 114.08694791665766,
      "v": 78
    },
    {
      "midi": 40,
      "hit": false,
      "t": 181666.1034999976,
      "d": 208.33268749999115,
      "v": 68
    },
    {
      "midi": 64,
      "hit": false,
      "t": 181666.10349999933,
      "d": 9.920604166662088,
      "v": 103
    },
    {
      "midi": 67,
      "hit": false,
      "t": 181666.10349999933,
      "d": 9.920604166662088,
      "v": 103
    },
    {
      "midi": 52,
      "hit": false,
      "t": 181666.10350000177,
      "d": 114.08694791665766,
      "v": 78
    },
    {
      "midi": 52,
      "hit": false,
      "t": 181666.10350000276,
      "d": 173.6105729166593,
      "v": 80
    },
    {
      "midi": 64,
      "hit": false,
      "t": 181785.15074999933,
      "d": 9.920604166662088,
      "v": 103
    },
    {
      "midi": 67,
      "hit": false,
      "t": 181785.15074999933,
      "d": 9.920604166662088,
      "v": 103
    },
    {
      "midi": 52,
      "hit": false,
      "t": 181785.15075000178,
      "d": 114.08694791665766,
      "v": 78
    },
    {
      "midi": 38,
      "hit": false,
      "t": 181904.1979999976,
      "d": 208.33268749999115,
      "v": 68
    },
    {
      "midi": 62,
      "hit": false,
      "t": 181904.19800000024,
      "d": 947.4176979166805,
      "v": 58
    },
    {
      "midi": 38,
      "hit": false,
      "t": 181904.19800000178,
      "d": 114.08694791665766,
      "v": 78
    },
    {
      "midi": 38,
      "hit": false,
      "t": 181904.19800000277,
      "d": 173.6105729166593,
      "v": 58
    },
    {
      "midi": 38,
      "hit": false,
      "t": 182023.24525000178,
      "d": 114.08694791665766,
      "v": 78
    },
    {
      "midi": 38,
      "hit": false,
      "t": 182142.29249999757,
      "d": 208.33268749999115,
      "v": 68
    },
    {
      "midi": 62,
      "hit": false,
      "t": 182142.29249999934,
      "d": 9.920604166662088,
      "v": 103
    },
    {
      "midi": 66,
      "hit": false,
      "t": 182142.29249999934,
      "d": 9.920604166662088,
      "v": 103
    },
    {
      "midi": 50,
      "hit": false,
      "t": 182142.2925000018,
      "d": 114.08694791665766,
      "v": 78
    },
    {
      "midi": 50,
      "hit": false,
      "t": 182142.29250000278,
      "d": 173.6105729166593,
      "v": 72
    },
    {
      "midi": 62,
      "hit": false,
      "t": 182261.33974999934,
      "d": 9.920604166662088,
      "v": 103
    },
    {
      "midi": 66,
      "hit": false,
      "t": 182261.33974999934,
      "d": 9.920604166662088,
      "v": 103
    },
    {
      "midi": 50,
      "hit": false,
      "t": 182261.3397500018,
      "d": 114.08694791665766,
      "v": 78
    },
    {
      "midi": 38,
      "hit": false,
      "t": 182380.38699999754,
      "d": 208.33268749999115,
      "v": 68
    },
    {
      "midi": 38,
      "hit": false,
      "t": 182380.3870000018,
      "d": 114.08694791665766,
      "v": 78
    },
    {
      "midi": 38,
      "hit": false,
      "t": 182380.38700000278,
      "d": 173.6105729166593,
      "v": 59
    },
    {
      "midi": 38,
      "hit": false,
      "t": 182499.4342500018,
      "d": 114.08694791665766,
      "v": 78
    },
    {
      "midi": 38,
      "hit": false,
      "t": 182618.48149999752,
      "d": 208.33268749999115,
      "v": 68
    },
    {
      "midi": 62,
      "hit": false,
      "t": 182618.48149999935,
      "d": 9.920604166662088,
      "v": 103
    },
    {
      "midi": 66,
      "hit": false,
      "t": 182618.48149999935,
      "d": 9.920604166662088,
      "v": 103
    },
    {
      "midi": 50,
      "hit": false,
      "t": 182618.4815000018,
      "d": 114.08694791665766,
      "v": 78
    },
    {
      "midi": 50,
      "hit": false,
      "t": 182618.4815000028,
      "d": 173.6105729166593,
      "v": 70
    },
    {
      "midi": 62,
      "hit": false,
      "t": 182737.52874999936,
      "d": 9.920604166662088,
      "v": 103
    },
    {
      "midi": 66,
      "hit": false,
      "t": 182737.52874999936,
      "d": 9.920604166662088,
      "v": 103
    },
    {
      "midi": 50,
      "hit": false,
      "t": 182737.5287500018,
      "d": 114.08694791665766,
      "v": 78
    },
    {
      "midi": 36,
      "hit": false,
      "t": 182856.5759999975,
      "d": 208.33268749999115,
      "v": 68
    },
    {
      "midi": 72,
      "hit": false,
      "t": 182856.57599999988,
      "d": 186.01132812499418,
      "v": 59
    },
    {
      "midi": 76,
      "hit": false,
      "t": 182856.57599999988,
      "d": 186.01132812499418,
      "v": 66
    },
    {
      "midi": 79,
      "hit": false,
      "t": 182856.57599999988,
      "d": 186.01132812499418,
      "v": 67
    },
    {
      "midi": 64,
      "hit": false,
      "t": 182856.57600000026,
      "d": 1423.6066979166644,
      "v": 58
    },
    {
      "midi": 67,
      "hit": false,
      "t": 182856.57600000026,
      "d": 1423.6066979166644,
      "v": 58
    },
    {
      "midi": 72,
      "hit": false,
      "t": 182856.57600000026,
      "d": 1423.6066979166644,
      "v": 58
    },
    {
      "midi": 72,
      "hit": false,
      "t": 182856.5760000006,
      "d": 173.6105729166593,
      "v": 83
    },
    {
      "midi": 76,
      "hit": false,
      "t": 182856.5760000006,
      "d": 173.6105729166593,
      "v": 93
    },
    {
      "midi": 79,
      "hit": false,
      "t": 182856.5760000006,
      "d": 173.6105729166593,
      "v": 94
    },
    {
      "midi": 60,
      "hit": false,
      "t": 182856.5760000006,
      "d": 173.6105729166593,
      "v": 83
    },
    {
      "midi": 64,
      "hit": false,
      "t": 182856.5760000006,
      "d": 173.6105729166593,
      "v": 93
    },
    {
      "midi": 67,
      "hit": false,
      "t": 182856.5760000006,
      "d": 173.6105729166593,
      "v": 94
    },
    {
      "midi": 36,
      "hit": false,
      "t": 182856.5760000018,
      "d": 114.08694791665766,
      "v": 78
    },
    {
      "midi": 36,
      "hit": false,
      "t": 182856.5760000028,
      "d": 173.6105729166593,
      "v": 74
    },
    {
      "midi": 36,
      "hit": false,
      "t": 182975.6232500018,
      "d": 114.08694791665766,
      "v": 78
    },
    {
      "midi": 36,
      "hit": false,
      "t": 183094.67049999748,
      "d": 208.33268749999115,
      "v": 68
    },
    {
      "midi": 60,
      "hit": false,
      "t": 183094.67049999937,
      "d": 9.920604166662088,
      "v": 103
    },
    {
      "midi": 64,
      "hit": false,
      "t": 183094.67049999937,
      "d": 9.920604166662088,
      "v": 103
    },
    {
      "midi": 72,
      "hit": false,
      "t": 183094.6704999999,
      "d": 186.01132812499418,
      "v": 71
    },
    {
      "midi": 76,
      "hit": false,
      "t": 183094.6704999999,
      "d": 186.01132812499418,
      "v": 79
    },
    {
      "midi": 79,
      "hit": false,
      "t": 183094.6704999999,
      "d": 186.01132812499418,
      "v": 74
    },
    {
      "midi": 72,
      "hit": false,
      "t": 183094.67050000062,
      "d": 173.6105729166593,
      "v": 99
    },
    {
      "midi": 76,
      "hit": false,
      "t": 183094.67050000062,
      "d": 173.6105729166593,
      "v": 110
    },
    {
      "midi": 79,
      "hit": false,
      "t": 183094.67050000062,
      "d": 173.6105729166593,
      "v": 103
    },
    {
      "midi": 60,
      "hit": false,
      "t": 183094.67050000062,
      "d": 173.6105729166593,
      "v": 99
    },
    {
      "midi": 64,
      "hit": false,
      "t": 183094.67050000062,
      "d": 173.6105729166593,
      "v": 110
    },
    {
      "midi": 67,
      "hit": false,
      "t": 183094.67050000062,
      "d": 173.6105729166593,
      "v": 103
    },
    {
      "midi": 48,
      "hit": false,
      "t": 183094.6705000018,
      "d": 114.08694791665766,
      "v": 78
    },
    {
      "midi": 48,
      "hit": false,
      "t": 183094.6705000028,
      "d": 173.6105729166593,
      "v": 70
    },
    {
      "midi": 60,
      "hit": false,
      "t": 183213.71774999937,
      "d": 9.920604166662088,
      "v": 103
    },
    {
      "midi": 64,
      "hit": false,
      "t": 183213.71774999937,
      "d": 9.920604166662088,
      "v": 103
    },
    {
      "midi": 48,
      "hit": false,
      "t": 183213.71775000182,
      "d": 114.08694791665766,
      "v": 78
    },
    {
      "midi": 36,
      "hit": false,
      "t": 183332.76499999745,
      "d": 208.33268749999115,
      "v": 68
    },
    {
      "midi": 72,
      "hit": false,
      "t": 183332.7649999999,
      "d": 186.01132812499418,
      "v": 74
    },
    {
      "midi": 76,
      "hit": false,
      "t": 183332.7649999999,
      "d": 186.01132812499418,
      "v": 75
    },
    {
      "midi": 79,
      "hit": false,
      "t": 183332.7649999999,
      "d": 186.01132812499418,
      "v": 74
    },
    {
      "midi": 72,
      "hit": false,
      "t": 183332.76500000063,
      "d": 173.6105729166593,
      "v": 103
    },
    {
      "midi": 76,
      "hit": false,
      "t": 183332.76500000063,
      "d": 173.6105729166593,
      "v": 105
    },
    {
      "midi": 79,
      "hit": false,
      "t": 183332.76500000063,
      "d": 173.6105729166593,
      "v": 103
    },
    {
      "midi": 60,
      "hit": false,
      "t": 183332.76500000063,
      "d": 173.6105729166593,
      "v": 103
    },
    {
      "midi": 64,
      "hit": false,
      "t": 183332.76500000063,
      "d": 173.6105729166593,
      "v": 105
    },
    {
      "midi": 67,
      "hit": false,
      "t": 183332.76500000063,
      "d": 173.6105729166593,
      "v": 103
    },
    {
      "midi": 36,
      "hit": false,
      "t": 183332.76500000182,
      "d": 114.08694791665766,
      "v": 78
    },
    {
      "midi": 36,
      "hit": false,
      "t": 183332.7650000028,
      "d": 173.6105729166593,
      "v": 64
    },
    {
      "midi": 36,
      "hit": false,
      "t": 183451.81225000182,
      "d": 114.08694791665766,
      "v": 78
    },
    {
      "midi": 36,
      "hit": false,
      "t": 183570.85949999743,
      "d": 208.33268749999115,
      "v": 68
    },
    {
      "midi": 60,
      "hit": false,
      "t": 183570.85949999938,
      "d": 9.920604166662088,
      "v": 103
    },
    {
      "midi": 64,
      "hit": false,
      "t": 183570.85949999938,
      "d": 9.920604166662088,
      "v": 103
    },
    {
      "midi": 72,
      "hit": false,
      "t": 183570.8594999999,
      "d": 186.01132812499418,
      "v": 71
    },
    {
      "midi": 76,
      "hit": false,
      "t": 183570.8594999999,
      "d": 186.01132812499418,
      "v": 72
    },
    {
      "midi": 79,
      "hit": false,
      "t": 183570.8594999999,
      "d": 186.01132812499418,
      "v": 72
    },
    {
      "midi": 72,
      "hit": false,
      "t": 183570.85950000063,
      "d": 173.6105729166593,
      "v": 99
    },
    {
      "midi": 76,
      "hit": false,
      "t": 183570.85950000063,
      "d": 173.6105729166593,
      "v": 101
    },
    {
      "midi": 79,
      "hit": false,
      "t": 183570.85950000063,
      "d": 173.6105729166593,
      "v": 100
    },
    {
      "midi": 60,
      "hit": false,
      "t": 183570.85950000063,
      "d": 173.6105729166593,
      "v": 99
    },
    {
      "midi": 64,
      "hit": false,
      "t": 183570.85950000063,
      "d": 173.6105729166593,
      "v": 101
    },
    {
      "midi": 67,
      "hit": false,
      "t": 183570.85950000063,
      "d": 173.6105729166593,
      "v": 100
    },
    {
      "midi": 48,
      "hit": false,
      "t": 183570.85950000182,
      "d": 114.08694791665766,
      "v": 78
    },
    {
      "midi": 48,
      "hit": false,
      "t": 183570.8595000028,
      "d": 173.6105729166593,
      "v": 74
    },
    {
      "midi": 60,
      "hit": false,
      "t": 183689.90674999938,
      "d": 9.920604166662088,
      "v": 103
    },
    {
      "midi": 64,
      "hit": false,
      "t": 183689.90674999938,
      "d": 9.920604166662088,
      "v": 103
    },
    {
      "midi": 48,
      "hit": false,
      "t": 183689.90675000183,
      "d": 114.08694791665766,
      "v": 78
    },
    {
      "midi": 36,
      "hit": false,
      "t": 183808.9539999974,
      "d": 208.33268749999115,
      "v": 68
    },
    {
      "midi": 36,
      "hit": false,
      "t": 183808.95400000183,
      "d": 114.08694791665766,
      "v": 78
    },
    {
      "midi": 36,
      "hit": false,
      "t": 183808.95400000282,
      "d": 173.6105729166593,
      "v": 50
    },
    {
      "midi": 36,
      "hit": false,
      "t": 183928.00125000183,
      "d": 114.08694791665766,
      "v": 78
    },
    {
      "midi": 36,
      "hit": false,
      "t": 184047.04849999739,
      "d": 208.33268749999115,
      "v": 68
    },
    {
      "midi": 60,
      "hit": false,
      "t": 184047.0484999994,
      "d": 9.920604166662088,
      "v": 103
    },
    {
      "midi": 64,
      "hit": false,
      "t": 184047.0484999994,
      "d": 9.920604166662088,
      "v": 103
    },
    {
      "midi": 48,
      "hit": false,
      "t": 184047.04850000184,
      "d": 114.08694791665766,
      "v": 78
    },
    {
      "midi": 48,
      "hit": false,
      "t": 184047.04850000283,
      "d": 173.6105729166593,
      "v": 73
    },
    {
      "midi": 60,
      "hit": false,
      "t": 184166.0957499994,
      "d": 9.920604166662088,
      "v": 103
    },
    {
      "midi": 64,
      "hit": false,
      "t": 184166.0957499994,
      "d": 9.920604166662088,
      "v": 103
    },
    {
      "midi": 48,
      "hit": false,
      "t": 184166.09575000184,
      "d": 114.08694791665766,
      "v": 78
    },
    {
      "midi": 38,
      "hit": false,
      "t": 184285.14299999736,
      "d": 208.33268749999115,
      "v": 68
    },
    {
      "midi": 74,
      "hit": false,
      "t": 184285.1429999999,
      "d": 272.8166145833384,
      "v": 70
    },
    {
      "midi": 78,
      "hit": false,
      "t": 184285.1429999999,
      "d": 272.8166145833384,
      "v": 76
    },
    {
      "midi": 81,
      "hit": false,
      "t": 184285.1429999999,
      "d": 272.8166145833384,
      "v": 75
    },
    {
      "midi": 66,
      "hit": false,
      "t": 184285.14300000027,
      "d": 471.22869791666744,
      "v": 58
    },
    {
      "midi": 69,
      "hit": false,
      "t": 184285.14300000027,
      "d": 471.22869791666744,
      "v": 58
    },
    {
      "midi": 74,
      "hit": false,
      "t": 184285.14300000027,
      "d": 471.22869791666744,
      "v": 58
    },
    {
      "midi": 74,
      "hit": false,
      "t": 184285.14300000062,
      "d": 272.8166145833384,
      "v": 98
    },
    {
      "midi": 78,
      "hit": false,
      "t": 184285.14300000062,
      "d": 272.8166145833384,
      "v": 106
    },
    {
      "midi": 81,
      "hit": false,
      "t": 184285.14300000062,
      "d": 272.8166145833384,
      "v": 104
    },
    {
      "midi": 62,
      "hit": false,
      "t": 184285.14300000062,
      "d": 272.8166145833384,
      "v": 98
    },
    {
      "midi": 66,
      "hit": false,
      "t": 184285.14300000062,
      "d": 272.8166145833384,
      "v": 106
    },
    {
      "midi": 69,
      "hit": false,
      "t": 184285.14300000062,
      "d": 272.8166145833384,
      "v": 104
    },
    {
      "midi": 38,
      "hit": false,
      "t": 184285.14300000184,
      "d": 114.08694791665766,
      "v": 78
    },
    {
      "midi": 38,
      "hit": false,
      "t": 184285.14300000283,
      "d": 173.6105729166593,
      "v": 66
    },
    {
      "midi": 38,
      "hit": false,
      "t": 184404.19025000185,
      "d": 114.08694791665766,
      "v": 78
    },
    {
      "midi": 38,
      "hit": false,
      "t": 184523.23749999734,
      "d": 208.33268749999115,
      "v": 68
    },
    {
      "midi": 62,
      "hit": false,
      "t": 184523.2374999994,
      "d": 9.920604166662088,
      "v": 103
    },
    {
      "midi": 66,
      "hit": false,
      "t": 184523.2374999994,
      "d": 9.920604166662088,
      "v": 103
    },
    {
      "midi": 50,
      "hit": false,
      "t": 184523.23750000185,
      "d": 114.08694791665766,
      "v": 78
    },
    {
      "midi": 50,
      "hit": false,
      "t": 184523.23750000284,
      "d": 173.6105729166593,
      "v": 86
    },
    {
      "midi": 62,
      "hit": false,
      "t": 184642.2847499994,
      "d": 9.920604166662088,
      "v": 103
    },
    {
      "midi": 66,
      "hit": false,
      "t": 184642.2847499994,
      "d": 9.920604166662088,
      "v": 103
    },
    {
      "midi": 50,
      "hit": false,
      "t": 184642.28475000185,
      "d": 114.08694791665766,
      "v": 78
    },
    {
      "midi": 31,
      "hit": false,
      "t": 184761.33199999732,
      "d": 208.33268749999115,
      "v": 68
    },
    {
      "midi": 74,
      "hit": false,
      "t": 184761.3319999999,
      "d": 272.8166145833384,
      "v": 64
    },
    {
      "midi": 79,
      "hit": false,
      "t": 184761.3319999999,
      "d": 272.8166145833384,
      "v": 72
    },
    {
      "midi": 83,
      "hit": false,
      "t": 184761.3319999999,
      "d": 272.8166145833384,
      "v": 72
    },
    {
      "midi": 83,
      "hit": false,
      "t": 184761.33200000005,
      "d": 2.480151041672798,
      "v": 84
    },
    {
      "midi": 83,
      "hit": false,
      "t": 184761.33200000005,
      "d": 2.480151041672798,
      "v": 110
    },
    {
      "midi": 62,
      "hit": false,
      "t": 184761.3320000003,
      "d": 1899.7956979166775,
      "v": 58
    },
    {
      "midi": 67,
      "hit": false,
      "t": 184761.3320000003,
      "d": 1899.7956979166775,
      "v": 58
    },
    {
      "midi": 71,
      "hit": false,
      "t": 184761.3320000003,
      "d": 1899.7956979166775,
      "v": 58
    },
    {
      "midi": 74,
      "hit": false,
      "t": 184761.33200000064,
      "d": 272.8166145833384,
      "v": 90
    },
    {
      "midi": 79,
      "hit": false,
      "t": 184761.33200000064,
      "d": 272.8166145833384,
      "v": 100
    },
    {
      "midi": 83,
      "hit": false,
      "t": 184761.33200000064,
      "d": 272.8166145833384,
      "v": 100
    },
    {
      "midi": 62,
      "hit": false,
      "t": 184761.33200000064,
      "d": 272.8166145833384,
      "v": 90
    },
    {
      "midi": 67,
      "hit": false,
      "t": 184761.33200000064,
      "d": 272.8166145833384,
      "v": 100
    },
    {
      "midi": 71,
      "hit": false,
      "t": 184761.33200000064,
      "d": 272.8166145833384,
      "v": 100
    },
    {
      "midi": 43,
      "hit": false,
      "t": 184761.33200000186,
      "d": 114.08694791665766,
      "v": 78
    },
    {
      "midi": 31,
      "hit": false,
      "t": 184761.33200000285,
      "d": 173.6105729166593,
      "v": 76
    },
    {
      "midi": 83,
      "hit": false,
      "t": 184880.37925000006,
      "d": 2.480151041672798,
      "v": 91
    },
    {
      "midi": 83,
      "hit": false,
      "t": 184880.37925000006,
      "d": 2.480151041672798,
      "v": 110
    },
    {
      "midi": 43,
      "hit": false,
      "t": 184880.37925000186,
      "d": 114.08694791665766,
      "v": 78
    },
    {
      "midi": 31,
      "hit": false,
      "t": 184999.4264999973,
      "d": 208.33268749999115,
      "v": 68
    },
    {
      "midi": 67,
      "hit": false,
      "t": 184999.42649999942,
      "d": 9.920604166662088,
      "v": 103
    },
    {
      "midi": 71,
      "hit": false,
      "t": 184999.42649999942,
      "d": 9.920604166662088,
      "v": 103
    },
    {
      "midi": 83,
      "hit": false,
      "t": 184999.42650000006,
      "d": 2.480151041672798,
      "v": 88
    },
    {
      "midi": 83,
      "hit": false,
      "t": 184999.42650000006,
      "d": 2.480151041672798,
      "v": 110
    },
    {
      "midi": 55,
      "hit": false,
      "t": 184999.42650000186,
      "d": 114.08694791665766,
      "v": 78
    },
    {
      "midi": 43,
      "hit": false,
      "t": 184999.42650000285,
      "d": 173.6105729166593,
      "v": 82
    },
    {
      "midi": 67,
      "hit": false,
      "t": 185118.47374999942,
      "d": 9.920604166662088,
      "v": 103
    },
    {
      "midi": 71,
      "hit": false,
      "t": 185118.47374999942,
      "d": 9.920604166662088,
      "v": 103
    },
    {
      "midi": 83,
      "hit": false,
      "t": 185118.47375000006,
      "d": 2.480151041672798,
      "v": 91
    },
    {
      "midi": 83,
      "hit": false,
      "t": 185118.47375000006,
      "d": 2.480151041672798,
      "v": 110
    },
    {
      "midi": 55,
      "hit": false,
      "t": 185118.47375000187,
      "d": 114.08694791665766,
      "v": 78
    },
    {
      "midi": 31,
      "hit": false,
      "t": 185237.52099999727,
      "d": 208.33268749999115,
      "v": 68
    },
    {
      "midi": 83,
      "hit": false,
      "t": 185237.52100000007,
      "d": 2.480151041672798,
      "v": 87
    },
    {
      "midi": 83,
      "hit": false,
      "t": 185237.52100000007,
      "d": 2.480151041672798,
      "v": 110
    },
    {
      "midi": 43,
      "hit": false,
      "t": 185237.52100000187,
      "d": 114.08694791665766,
      "v": 78
    },
    {
      "midi": 31,
      "hit": false,
      "t": 185237.52100000286,
      "d": 173.6105729166593,
      "v": 62
    },
    {
      "midi": 83,
      "hit": false,
      "t": 185356.56825000007,
      "d": 2.480151041672798,
      "v": 87
    },
    {
      "midi": 83,
      "hit": false,
      "t": 185356.56825000007,
      "d": 2.480151041672798,
      "v": 110
    },
    {
      "midi": 43,
      "hit": false,
      "t": 185356.56825000187,
      "d": 114.08694791665766,
      "v": 78
    },
    {
      "midi": 31,
      "hit": false,
      "t": 185475.61549999725,
      "d": 208.33268749999115,
      "v": 68
    },
    {
      "midi": 67,
      "hit": false,
      "t": 185475.61549999943,
      "d": 9.920604166662088,
      "v": 103
    },
    {
      "midi": 71,
      "hit": false,
      "t": 185475.61549999943,
      "d": 9.920604166662088,
      "v": 103
    },
    {
      "midi": 83,
      "hit": false,
      "t": 185475.61550000007,
      "d": 2.480151041672798,
      "v": 89
    },
    {
      "midi": 83,
      "hit": false,
      "t": 185475.61550000007,
      "d": 2.480151041672798,
      "v": 110
    },
    {
      "midi": 55,
      "hit": false,
      "t": 185475.61550000188,
      "d": 114.08694791665766,
      "v": 78
    },
    {
      "midi": 43,
      "hit": false,
      "t": 185475.61550000287,
      "d": 173.6105729166593,
      "v": 78
    },
    {
      "midi": 67,
      "hit": false,
      "t": 185594.66274999944,
      "d": 9.920604166662088,
      "v": 103
    },
    {
      "midi": 71,
      "hit": false,
      "t": 185594.66274999944,
      "d": 9.920604166662088,
      "v": 103
    },
    {
      "midi": 83,
      "hit": false,
      "t": 185594.66275000008,
      "d": 2.480151041672798,
      "v": 91
    },
    {
      "midi": 83,
      "hit": false,
      "t": 185594.66275000008,
      "d": 2.480151041672798,
      "v": 110
    },
    {
      "midi": 55,
      "hit": false,
      "t": 185594.66275000188,
      "d": 114.08694791665766,
      "v": 78
    },
    {
      "midi": 31,
      "hit": false,
      "t": 185713.70999999723,
      "d": 208.33268749999115,
      "v": 68
    },
    {
      "midi": 83,
      "hit": false,
      "t": 185713.71000000008,
      "d": 2.480151041672798,
      "v": 91
    },
    {
      "midi": 83,
      "hit": false,
      "t": 185713.71000000008,
      "d": 2.480151041672798,
      "v": 110
    },
    {
      "midi": 43,
      "hit": false,
      "t": 185713.71000000188,
      "d": 114.08694791665766,
      "v": 78
    },
    {
      "midi": 31,
      "hit": false,
      "t": 185713.71000000287,
      "d": 173.6105729166593,
      "v": 67
    },
    {
      "midi": 83,
      "hit": false,
      "t": 185832.75725000008,
      "d": 2.480151041672798,
      "v": 92
    },
    {
      "midi": 83,
      "hit": false,
      "t": 185832.75725000008,
      "d": 2.480151041672798,
      "v": 110
    },
    {
      "midi": 43,
      "hit": false,
      "t": 185832.7572500019,
      "d": 114.08694791665766,
      "v": 78
    },
    {
      "midi": 31,
      "hit": false,
      "t": 185951.8044999972,
      "d": 208.33268749999115,
      "v": 68
    },
    {
      "midi": 67,
      "hit": false,
      "t": 185951.80449999945,
      "d": 9.920604166662088,
      "v": 103
    },
    {
      "midi": 71,
      "hit": false,
      "t": 185951.80449999945,
      "d": 9.920604166662088,
      "v": 103
    },
    {
      "midi": 83,
      "hit": false,
      "t": 185951.8045000001,
      "d": 2.480151041672798,
      "v": 96
    },
    {
      "midi": 83,
      "hit": false,
      "t": 185951.8045000001,
      "d": 2.480151041672798,
      "v": 110
    },
    {
      "midi": 55,
      "hit": false,
      "t": 185951.8045000019,
      "d": 114.08694791665766,
      "v": 78
    },
    {
      "midi": 43,
      "hit": false,
      "t": 185951.80450000288,
      "d": 173.6105729166593,
      "v": 70
    },
    {
      "midi": 67,
      "hit": false,
      "t": 186070.85174999945,
      "d": 9.920604166662088,
      "v": 103
    },
    {
      "midi": 71,
      "hit": false,
      "t": 186070.85174999945,
      "d": 9.920604166662088,
      "v": 103
    },
    {
      "midi": 83,
      "hit": false,
      "t": 186070.8517500001,
      "d": 2.480151041672798,
      "v": 92
    },
    {
      "midi": 83,
      "hit": false,
      "t": 186070.8517500001,
      "d": 2.480151041672798,
      "v": 110
    },
    {
      "midi": 55,
      "hit": false,
      "t": 186070.8517500019,
      "d": 114.08694791665766,
      "v": 78
    },
    {
      "midi": 31,
      "hit": false,
      "t": 186189.89899999718,
      "d": 208.33268749999115,
      "v": 68
    },
    {
      "midi": 83,
      "hit": false,
      "t": 186189.8990000001,
      "d": 2.480151041672798,
      "v": 96
    },
    {
      "midi": 83,
      "hit": false,
      "t": 186189.8990000001,
      "d": 2.480151041672798,
      "v": 110
    },
    {
      "midi": 43,
      "hit": false,
      "t": 186189.8990000019,
      "d": 114.08694791665766,
      "v": 78
    },
    {
      "midi": 31,
      "hit": false,
      "t": 186189.8990000029,
      "d": 173.6105729166593,
      "v": 56
    },
    {
      "midi": 83,
      "hit": false,
      "t": 186308.9462500001,
      "d": 2.480151041672798,
      "v": 96
    },
    {
      "midi": 83,
      "hit": false,
      "t": 186308.9462500001,
      "d": 2.480151041672798,
      "v": 110
    },
    {
      "midi": 43,
      "hit": false,
      "t": 186308.9462500019,
      "d": 114.08694791665766,
      "v": 78
    },
    {
      "midi": 31,
      "hit": false,
      "t": 186427.99349999716,
      "d": 208.33268749999115,
      "v": 68
    },
    {
      "midi": 67,
      "hit": false,
      "t": 186427.99349999946,
      "d": 9.920604166662088,
      "v": 103
    },
    {
      "midi": 71,
      "hit": false,
      "t": 186427.99349999946,
      "d": 9.920604166662088,
      "v": 103
    },
    {
      "midi": 83,
      "hit": false,
      "t": 186427.9935000001,
      "d": 2.480151041672798,
      "v": 98
    },
    {
      "midi": 83,
      "hit": false,
      "t": 186427.9935000001,
      "d": 2.480151041672798,
      "v": 110
    },
    {
      "midi": 55,
      "hit": false,
      "t": 186427.9935000019,
      "d": 114.08694791665766,
      "v": 78
    },
    {
      "midi": 43,
      "hit": false,
      "t": 186427.9935000029,
      "d": 173.6105729166593,
      "v": 70
    },
    {
      "midi": 67,
      "hit": false,
      "t": 186547.04074999946,
      "d": 9.920604166662088,
      "v": 103
    },
    {
      "midi": 71,
      "hit": false,
      "t": 186547.04074999946,
      "d": 9.920604166662088,
      "v": 103
    },
    {
      "midi": 83,
      "hit": false,
      "t": 186547.0407500001,
      "d": 2.480151041672798,
      "v": 101
    },
    {
      "midi": 83,
      "hit": false,
      "t": 186547.0407500001,
      "d": 2.480151041672798,
      "v": 110
    },
    {
      "midi": 55,
      "hit": false,
      "t": 186547.0407500019,
      "d": 114.08694791665766,
      "v": 78
    },
    {
      "midi": 38,
      "hit": false,
      "t": 186666.08799999714,
      "d": 208.33268749999115,
      "v": 68
    },
    {
      "midi": 74,
      "hit": false,
      "t": 186666.0879999999,
      "d": 186.01132812499418,
      "v": 54
    },
    {
      "midi": 78,
      "hit": false,
      "t": 186666.0879999999,
      "d": 186.01132812499418,
      "v": 57
    },
    {
      "midi": 81,
      "hit": false,
      "t": 186666.0879999999,
      "d": 186.01132812499418,
      "v": 49
    },
    {
      "midi": 62,
      "hit": false,
      "t": 186666.0880000003,
      "d": 1899.7956979166775,
      "v": 58
    },
    {
      "midi": 66,
      "hit": false,
      "t": 186666.0880000003,
      "d": 1899.7956979166775,
      "v": 58
    },
    {
      "midi": 69,
      "hit": false,
      "t": 186666.0880000003,
      "d": 1899.7956979166775,
      "v": 58
    },
    {
      "midi": 74,
      "hit": false,
      "t": 186666.08800000063,
      "d": 173.6105729166593,
      "v": 76
    },
    {
      "midi": 78,
      "hit": false,
      "t": 186666.08800000063,
      "d": 173.6105729166593,
      "v": 80
    },
    {
      "midi": 81,
      "hit": false,
      "t": 186666.08800000063,
      "d": 173.6105729166593,
      "v": 70
    },
    {
      "midi": 62,
      "hit": false,
      "t": 186666.08800000063,
      "d": 173.6105729166593,
      "v": 76
    },
    {
      "midi": 66,
      "hit": false,
      "t": 186666.08800000063,
      "d": 173.6105729166593,
      "v": 80
    },
    {
      "midi": 69,
      "hit": false,
      "t": 186666.08800000063,
      "d": 173.6105729166593,
      "v": 70
    },
    {
      "midi": 38,
      "hit": false,
      "t": 186666.0880000019,
      "d": 114.08694791665766,
      "v": 78
    },
    {
      "midi": 38,
      "hit": false,
      "t": 186666.0880000029,
      "d": 173.6105729166593,
      "v": 70
    },
    {
      "midi": 38,
      "hit": false,
      "t": 186785.1352500019,
      "d": 114.08694791665766,
      "v": 78
    },
    {
      "midi": 38,
      "hit": false,
      "t": 186904.1824999971,
      "d": 208.33268749999115,
      "v": 68
    },
    {
      "midi": 62,
      "hit": false,
      "t": 186904.18249999947,
      "d": 9.920604166662088,
      "v": 103
    },
    {
      "midi": 66,
      "hit": false,
      "t": 186904.18249999947,
      "d": 9.920604166662088,
      "v": 103
    },
    {
      "midi": 74,
      "hit": false,
      "t": 186904.1824999999,
      "d": 186.01132812499418,
      "v": 65
    },
    {
      "midi": 78,
      "hit": false,
      "t": 186904.1824999999,
      "d": 186.01132812499418,
      "v": 68
    },
    {
      "midi": 81,
      "hit": false,
      "t": 186904.1824999999,
      "d": 186.01132812499418,
      "v": 64
    },
    {
      "midi": 74,
      "hit": false,
      "t": 186904.18250000064,
      "d": 173.6105729166593,
      "v": 91
    },
    {
      "midi": 78,
      "hit": false,
      "t": 186904.18250000064,
      "d": 173.6105729166593,
      "v": 95
    },
    {
      "midi": 81,
      "hit": false,
      "t": 186904.18250000064,
      "d": 173.6105729166593,
      "v": 90
    },
    {
      "midi": 62,
      "hit": false,
      "t": 186904.18250000064,
      "d": 173.6105729166593,
      "v": 91
    },
    {
      "midi": 66,
      "hit": false,
      "t": 186904.18250000064,
      "d": 173.6105729166593,
      "v": 95
    },
    {
      "midi": 69,
      "hit": false,
      "t": 186904.18250000064,
      "d": 173.6105729166593,
      "v": 90
    },
    {
      "midi": 50,
      "hit": false,
      "t": 186904.18250000192,
      "d": 114.08694791665766,
      "v": 78
    },
    {
      "midi": 50,
      "hit": false,
      "t": 186904.1825000029,
      "d": 173.6105729166593,
      "v": 62
    },
    {
      "midi": 62,
      "hit": false,
      "t": 187023.22974999947,
      "d": 9.920604166662088,
      "v": 103
    },
    {
      "midi": 66,
      "hit": false,
      "t": 187023.22974999947,
      "d": 9.920604166662088,
      "v": 103
    },
    {
      "midi": 50,
      "hit": false,
      "t": 187023.22975000192,
      "d": 114.08694791665766,
      "v": 78
    },
    {
      "midi": 38,
      "hit": false,
      "t": 187142.2769999971,
      "d": 208.33268749999115,
      "v": 68
    },
    {
      "midi": 74,
      "hit": false,
      "t": 187142.2769999999,
      "d": 186.01132812499418,
      "v": 71
    },
    {
      "midi": 78,
      "hit": false,
      "t": 187142.2769999999,
      "d": 186.01132812499418,
      "v": 72
    },
    {
      "midi": 81,
      "hit": false,
      "t": 187142.2769999999,
      "d": 186.01132812499418,
      "v": 72
    },
    {
      "midi": 74,
      "hit": false,
      "t": 187142.27700000064,
      "d": 173.6105729166593,
      "v": 99
    },
    {
      "midi": 78,
      "hit": false,
      "t": 187142.27700000064,
      "d": 173.6105729166593,
      "v": 101
    },
    {
      "midi": 81,
      "hit": false,
      "t": 187142.27700000064,
      "d": 173.6105729166593,
      "v": 100
    },
    {
      "midi": 62,
      "hit": false,
      "t": 187142.27700000064,
      "d": 173.6105729166593,
      "v": 99
    },
    {
      "midi": 66,
      "hit": false,
      "t": 187142.27700000064,
      "d": 173.6105729166593,
      "v": 101
    },
    {
      "midi": 69,
      "hit": false,
      "t": 187142.27700000064,
      "d": 173.6105729166593,
      "v": 100
    },
    {
      "midi": 38,
      "hit": false,
      "t": 187142.27700000192,
      "d": 114.08694791665766,
      "v": 78
    },
    {
      "midi": 38,
      "hit": false,
      "t": 187142.2770000029,
      "d": 173.6105729166593,
      "v": 66
    },
    {
      "midi": 38,
      "hit": false,
      "t": 187261.32425000193,
      "d": 114.08694791665766,
      "v": 78
    },
    {
      "midi": 38,
      "hit": false,
      "t": 187380.37149999707,
      "d": 208.33268749999115,
      "v": 68
    },
    {
      "midi": 62,
      "hit": false,
      "t": 187380.37149999948,
      "d": 9.920604166662088,
      "v": 103
    },
    {
      "midi": 66,
      "hit": false,
      "t": 187380.37149999948,
      "d": 9.920604166662088,
      "v": 103
    },
    {
      "midi": 74,
      "hit": false,
      "t": 187380.37149999992,
      "d": 186.01132812499418,
      "v": 70
    },
    {
      "midi": 78,
      "hit": false,
      "t": 187380.37149999992,
      "d": 186.01132812499418,
      "v": 74
    },
    {
      "midi": 81,
      "hit": false,
      "t": 187380.37149999992,
      "d": 186.01132812499418,
      "v": 69
    },
    {
      "midi": 74,
      "hit": false,
      "t": 187380.37150000065,
      "d": 173.6105729166593,
      "v": 98
    },
    {
      "midi": 78,
      "hit": false,
      "t": 187380.37150000065,
      "d": 173.6105729166593,
      "v": 103
    },
    {
      "midi": 81,
      "hit": false,
      "t": 187380.37150000065,
      "d": 173.6105729166593,
      "v": 96
    },
    {
      "midi": 62,
      "hit": false,
      "t": 187380.37150000065,
      "d": 173.6105729166593,
      "v": 98
    },
    {
      "midi": 66,
      "hit": false,
      "t": 187380.37150000065,
      "d": 173.6105729166593,
      "v": 103
    },
    {
      "midi": 69,
      "hit": false,
      "t": 187380.37150000065,
      "d": 173.6105729166593,
      "v": 96
    },
    {
      "midi": 50,
      "hit": false,
      "t": 187380.37150000193,
      "d": 114.08694791665766,
      "v": 78
    },
    {
      "midi": 50,
      "hit": false,
      "t": 187380.37150000292,
      "d": 173.6105729166593,
      "v": 67
    },
    {
      "midi": 62,
      "hit": false,
      "t": 187499.4187499995,
      "d": 9.920604166662088,
      "v": 103
    },
    {
      "midi": 66,
      "hit": false,
      "t": 187499.4187499995,
      "d": 9.920604166662088,
      "v": 103
    },
    {
      "midi": 50,
      "hit": false,
      "t": 187499.41875000193,
      "d": 114.08694791665766,
      "v": 78
    },
    {
      "midi": 38,
      "hit": false,
      "t": 187618.46599999705,
      "d": 208.33268749999115,
      "v": 68
    },
    {
      "midi": 38,
      "hit": false,
      "t": 187618.46600000194,
      "d": 114.08694791665766,
      "v": 78
    },
    {
      "midi": 38,
      "hit": false,
      "t": 187618.46600000293,
      "d": 173.6105729166593,
      "v": 64
    },
    {
      "midi": 38,
      "hit": false,
      "t": 187737.51325000194,
      "d": 114.08694791665766,
      "v": 78
    },
    {
      "midi": 38,
      "hit": false,
      "t": 187856.56049999702,
      "d": 208.33268749999115,
      "v": 68
    },
    {
      "midi": 62,
      "hit": false,
      "t": 187856.5604999995,
      "d": 9.920604166662088,
      "v": 103
    },
    {
      "midi": 66,
      "hit": false,
      "t": 187856.5604999995,
      "d": 9.920604166662088,
      "v": 103
    },
    {
      "midi": 50,
      "hit": false,
      "t": 187856.56050000194,
      "d": 114.08694791665766,
      "v": 78
    },
    {
      "midi": 50,
      "hit": false,
      "t": 187856.56050000293,
      "d": 173.6105729166593,
      "v": 66
    },
    {
      "midi": 62,
      "hit": false,
      "t": 187975.6077499995,
      "d": 9.920604166662088,
      "v": 103
    },
    {
      "midi": 66,
      "hit": false,
      "t": 187975.6077499995,
      "d": 9.920604166662088,
      "v": 103
    },
    {
      "midi": 50,
      "hit": false,
      "t": 187975.60775000195,
      "d": 114.08694791665766,
      "v": 78
    },
    {
      "midi": 38,
      "hit": false,
      "t": 188094.654999997,
      "d": 208.33268749999115,
      "v": 68
    },
    {
      "midi": 74,
      "hit": false,
      "t": 188094.6549999999,
      "d": 272.8166145833384,
      "v": 68
    },
    {
      "midi": 78,
      "hit": false,
      "t": 188094.6549999999,
      "d": 272.8166145833384,
      "v": 67
    },
    {
      "midi": 83,
      "hit": false,
      "t": 188094.6549999999,
      "d": 272.8166145833384,
      "v": 72
    },
    {
      "midi": 74,
      "hit": false,
      "t": 188094.65500000064,
      "d": 272.8166145833384,
      "v": 95
    },
    {
      "midi": 78,
      "hit": false,
      "t": 188094.65500000064,
      "d": 272.8166145833384,
      "v": 94
    },
    {
      "midi": 83,
      "hit": false,
      "t": 188094.65500000064,
      "d": 272.8166145833384,
      "v": 100
    },
    {
      "midi": 62,
      "hit": false,
      "t": 188094.65500000064,
      "d": 272.8166145833384,
      "v": 95
    },
    {
      "midi": 66,
      "hit": false,
      "t": 188094.65500000064,
      "d": 272.8166145833384,
      "v": 94
    },
    {
      "midi": 71,
      "hit": false,
      "t": 188094.65500000064,
      "d": 272.8166145833384,
      "v": 100
    },
    {
      "midi": 38,
      "hit": false,
      "t": 188094.65500000195,
      "d": 114.08694791665766,
      "v": 78
    },
    {
      "midi": 38,
      "hit": false,
      "t": 188094.65500000294,
      "d": 173.6105729166593,
      "v": 62
    },
    {
      "midi": 38,
      "hit": false,
      "t": 188213.70225000195,
      "d": 114.08694791665766,
      "v": 78
    },
    {
      "midi": 38,
      "hit": false,
      "t": 188332.74949999698,
      "d": 208.33268749999115,
      "v": 68
    },
    {
      "midi": 62,
      "hit": false,
      "t": 188332.7494999995,
      "d": 9.920604166662088,
      "v": 103
    },
    {
      "midi": 66,
      "hit": false,
      "t": 188332.7494999995,
      "d": 9.920604166662088,
      "v": 103
    },
    {
      "midi": 50,
      "hit": false,
      "t": 188332.74950000196,
      "d": 114.08694791665766,
      "v": 78
    },
    {
      "midi": 50,
      "hit": false,
      "t": 188332.74950000294,
      "d": 173.6105729166593,
      "v": 73
    },
    {
      "midi": 62,
      "hit": false,
      "t": 188451.7967499995,
      "d": 9.920604166662088,
      "v": 103
    },
    {
      "midi": 66,
      "hit": false,
      "t": 188451.7967499995,
      "d": 9.920604166662088,
      "v": 103
    },
    {
      "midi": 50,
      "hit": false,
      "t": 188451.79675000196,
      "d": 114.08694791665766,
      "v": 78
    },
    {
      "midi": 40,
      "hit": false,
      "t": 188570.84399999696,
      "d": 208.33268749999115,
      "v": 68
    },
    {
      "midi": 71,
      "hit": false,
      "t": 188570.84399999992,
      "d": 272.8166145833384,
      "v": 63
    },
    {
      "midi": 76,
      "hit": false,
      "t": 188570.84399999992,
      "d": 272.8166145833384,
      "v": 74
    },
    {
      "midi": 79,
      "hit": false,
      "t": 188570.84399999992,
      "d": 272.8166145833384,
      "v": 75
    },
    {
      "midi": 64,
      "hit": false,
      "t": 188570.84400000033,
      "d": 947.4176979166805,
      "v": 58
    },
    {
      "midi": 67,
      "hit": false,
      "t": 188570.84400000033,
      "d": 1899.7956979167066,
      "v": 58
    },
    {
      "midi": 71,
      "hit": false,
      "t": 188570.84400000033,
      "d": 1899.7956979167066,
      "v": 58
    },
    {
      "midi": 71,
      "hit": false,
      "t": 188570.84400000065,
      "d": 272.8166145833384,
      "v": 88
    },
    {
      "midi": 76,
      "hit": false,
      "t": 188570.84400000065,
      "d": 272.8166145833384,
      "v": 103
    },
    {
      "midi": 79,
      "hit": false,
      "t": 188570.84400000065,
      "d": 272.8166145833384,
      "v": 105
    },
    {
      "midi": 59,
      "hit": false,
      "t": 188570.84400000065,
      "d": 272.8166145833384,
      "v": 88
    },
    {
      "midi": 64,
      "hit": false,
      "t": 188570.84400000065,
      "d": 272.8166145833384,
      "v": 103
    },
    {
      "midi": 67,
      "hit": false,
      "t": 188570.84400000065,
      "d": 272.8166145833384,
      "v": 105
    },
    {
      "midi": 40,
      "hit": false,
      "t": 188570.84400000196,
      "d": 114.08694791665766,
      "v": 78
    },
    {
      "midi": 40,
      "hit": false,
      "t": 188570.84400000295,
      "d": 173.6105729166593,
      "v": 73
    },
    {
      "midi": 40,
      "hit": false,
      "t": 188689.89125000197,
      "d": 114.08694791665766,
      "v": 78
    },
    {
      "midi": 40,
      "hit": false,
      "t": 188808.93849999693,
      "d": 208.33268749999115,
      "v": 68
    },
    {
      "midi": 64,
      "hit": false,
      "t": 188808.93849999952,
      "d": 9.920604166662088,
      "v": 103
    },
    {
      "midi": 67,
      "hit": false,
      "t": 188808.93849999952,
      "d": 9.920604166662088,
      "v": 103
    },
    {
      "midi": 52,
      "hit": false,
      "t": 188808.93850000197,
      "d": 114.08694791665766,
      "v": 78
    },
    {
      "midi": 52,
      "hit": false,
      "t": 188808.93850000296,
      "d": 173.6105729166593,
      "v": 64
    },
    {
      "midi": 64,
      "hit": false,
      "t": 188927.98574999953,
      "d": 9.920604166662088,
      "v": 103
    },
    {
      "midi": 67,
      "hit": false,
      "t": 188927.98574999953,
      "d": 9.920604166662088,
      "v": 103
    },
    {
      "midi": 52,
      "hit": false,
      "t": 188927.98575000197,
      "d": 114.08694791665766,
      "v": 78
    },
    {
      "midi": 40,
      "hit": false,
      "t": 189047.0329999969,
      "d": 208.33268749999115,
      "v": 68
    },
    {
      "midi": 40,
      "hit": false,
      "t": 189047.03300000197,
      "d": 114.08694791665766,
      "v": 78
    },
    {
      "midi": 40,
      "hit": false,
      "t": 189047.03300000296,
      "d": 173.6105729166593,
      "v": 62
    },
    {
      "midi": 40,
      "hit": false,
      "t": 189166.08025000198,
      "d": 114.08694791665766,
      "v": 78
    },
    {
      "midi": 40,
      "hit": false,
      "t": 189285.1274999969,
      "d": 208.33268749999115,
      "v": 68
    },
    {
      "midi": 64,
      "hit": false,
      "t": 189285.12749999954,
      "d": 9.920604166662088,
      "v": 103
    },
    {
      "midi": 67,
      "hit": false,
      "t": 189285.12749999954,
      "d": 9.920604166662088,
      "v": 103
    },
    {
      "midi": 52,
      "hit": false,
      "t": 189285.12750000198,
      "d": 114.08694791665766,
      "v": 78
    },
    {
      "midi": 52,
      "hit": false,
      "t": 189285.12750000297,
      "d": 173.6105729166593,
      "v": 80
    },
    {
      "midi": 64,
      "hit": false,
      "t": 189404.17474999954,
      "d": 9.920604166662088,
      "v": 103
    },
    {
      "midi": 67,
      "hit": false,
      "t": 189404.17474999954,
      "d": 9.920604166662088,
      "v": 103
    },
    {
      "midi": 52,
      "hit": false,
      "t": 189404.17475000198,
      "d": 114.08694791665766,
      "v": 78
    },
    {
      "midi": 38,
      "hit": false,
      "t": 189523.22199999687,
      "d": 208.33268749999115,
      "v": 68
    },
    {
      "midi": 62,
      "hit": false,
      "t": 189523.22200000036,
      "d": 947.4176979166805,
      "v": 58
    },
    {
      "midi": 38,
      "hit": false,
      "t": 189523.222000002,
      "d": 114.08694791665766,
      "v": 78
    },
    {
      "midi": 38,
      "hit": false,
      "t": 189523.22200000298,
      "d": 173.6105729166593,
      "v": 58
    },
    {
      "midi": 38,
      "hit": false,
      "t": 189642.269250002,
      "d": 114.08694791665766,
      "v": 78
    },
    {
      "midi": 38,
      "hit": false,
      "t": 189761.31649999684,
      "d": 208.33268749999115,
      "v": 68
    },
    {
      "midi": 62,
      "hit": false,
      "t": 189761.31649999955,
      "d": 9.920604166662088,
      "v": 103
    },
    {
      "midi": 66,
      "hit": false,
      "t": 189761.31649999955,
      "d": 9.920604166662088,
      "v": 103
    },
    {
      "midi": 50,
      "hit": false,
      "t": 189761.316500002,
      "d": 114.08694791665766,
      "v": 78
    },
    {
      "midi": 50,
      "hit": false,
      "t": 189761.31650000298,
      "d": 173.6105729166593,
      "v": 72
    },
    {
      "midi": 62,
      "hit": false,
      "t": 189880.36374999955,
      "d": 9.920604166662088,
      "v": 103
    },
    {
      "midi": 66,
      "hit": false,
      "t": 189880.36374999955,
      "d": 9.920604166662088,
      "v": 103
    },
    {
      "midi": 50,
      "hit": false,
      "t": 189880.363750002,
      "d": 114.08694791665766,
      "v": 78
    },
    {
      "midi": 38,
      "hit": false,
      "t": 189999.41099999682,
      "d": 208.33268749999115,
      "v": 68
    },
    {
      "midi": 38,
      "hit": false,
      "t": 189999.411000002,
      "d": 114.08694791665766,
      "v": 78
    },
    {
      "midi": 38,
      "hit": false,
      "t": 189999.411000003,
      "d": 173.6105729166593,
      "v": 59
    },
    {
      "midi": 38,
      "hit": false,
      "t": 190118.458250002,
      "d": 114.08694791665766,
      "v": 78
    },
    {
      "midi": 38,
      "hit": false,
      "t": 190237.5054999968,
      "d": 208.33268749999115,
      "v": 68
    },
    {
      "midi": 62,
      "hit": false,
      "t": 190237.50549999956,
      "d": 9.920604166662088,
      "v": 103
    },
    {
      "midi": 66,
      "hit": false,
      "t": 190237.50549999956,
      "d": 9.920604166662088,
      "v": 103
    },
    {
      "midi": 50,
      "hit": false,
      "t": 190237.505500002,
      "d": 114.08694791665766,
      "v": 78
    },
    {
      "midi": 50,
      "hit": false,
      "t": 190237.505500003,
      "d": 173.6105729166593,
      "v": 70
    },
    {
      "midi": 62,
      "hit": false,
      "t": 190356.55274999957,
      "d": 9.920604166662088,
      "v": 103
    },
    {
      "midi": 66,
      "hit": false,
      "t": 190356.55274999957,
      "d": 9.920604166662088,
      "v": 103
    },
    {
      "midi": 50,
      "hit": false,
      "t": 190356.552750002,
      "d": 114.08694791665766,
      "v": 78
    },
    {
      "midi": 36,
      "hit": false,
      "t": 190475.59999999678,
      "d": 208.33268749999115,
      "v": 68
    },
    {
      "midi": 72,
      "hit": false,
      "t": 190475.59999999992,
      "d": 186.01132812499418,
      "v": 59
    },
    {
      "midi": 76,
      "hit": false,
      "t": 190475.59999999992,
      "d": 186.01132812499418,
      "v": 66
    },
    {
      "midi": 79,
      "hit": false,
      "t": 190475.59999999992,
      "d": 186.01132812499418,
      "v": 67
    },
    {
      "midi": 64,
      "hit": false,
      "t": 190475.60000000038,
      "d": 1423.6066979166644,
      "v": 58
    },
    {
      "midi": 67,
      "hit": false,
      "t": 190475.60000000038,
      "d": 1423.6066979166644,
      "v": 58
    },
    {
      "midi": 72,
      "hit": false,
      "t": 190475.60000000038,
      "d": 1423.6066979166644,
      "v": 58
    },
    {
      "midi": 72,
      "hit": false,
      "t": 190475.60000000065,
      "d": 173.6105729166593,
      "v": 83
    },
    {
      "midi": 76,
      "hit": false,
      "t": 190475.60000000065,
      "d": 173.6105729166593,
      "v": 93
    },
    {
      "midi": 79,
      "hit": false,
      "t": 190475.60000000065,
      "d": 173.6105729166593,
      "v": 94
    },
    {
      "midi": 60,
      "hit": false,
      "t": 190475.60000000065,
      "d": 173.6105729166593,
      "v": 83
    },
    {
      "midi": 64,
      "hit": false,
      "t": 190475.60000000065,
      "d": 173.6105729166593,
      "v": 93
    },
    {
      "midi": 67,
      "hit": false,
      "t": 190475.60000000065,
      "d": 173.6105729166593,
      "v": 94
    },
    {
      "midi": 36,
      "hit": false,
      "t": 190475.600000002,
      "d": 114.08694791665766,
      "v": 78
    },
    {
      "midi": 36,
      "hit": false,
      "t": 190475.600000003,
      "d": 173.6105729166593,
      "v": 74
    },
    {
      "midi": 36,
      "hit": false,
      "t": 190594.64725000202,
      "d": 114.08694791665766,
      "v": 78
    },
    {
      "midi": 36,
      "hit": false,
      "t": 190713.69449999675,
      "d": 208.33268749999115,
      "v": 68
    },
    {
      "midi": 60,
      "hit": false,
      "t": 190713.69449999958,
      "d": 9.920604166662088,
      "v": 103
    },
    {
      "midi": 64,
      "hit": false,
      "t": 190713.69449999958,
      "d": 9.920604166662088,
      "v": 103
    },
    {
      "midi": 72,
      "hit": false,
      "t": 190713.69449999993,
      "d": 186.01132812499418,
      "v": 71
    },
    {
      "midi": 76,
      "hit": false,
      "t": 190713.69449999993,
      "d": 186.01132812499418,
      "v": 79
    },
    {
      "midi": 79,
      "hit": false,
      "t": 190713.69449999993,
      "d": 186.01132812499418,
      "v": 74
    },
    {
      "midi": 72,
      "hit": false,
      "t": 190713.69450000065,
      "d": 173.6105729166593,
      "v": 99
    },
    {
      "midi": 76,
      "hit": false,
      "t": 190713.69450000065,
      "d": 173.6105729166593,
      "v": 110
    },
    {
      "midi": 79,
      "hit": false,
      "t": 190713.69450000065,
      "d": 173.6105729166593,
      "v": 103
    },
    {
      "midi": 60,
      "hit": false,
      "t": 190713.69450000065,
      "d": 173.6105729166593,
      "v": 99
    },
    {
      "midi": 64,
      "hit": false,
      "t": 190713.69450000065,
      "d": 173.6105729166593,
      "v": 110
    },
    {
      "midi": 67,
      "hit": false,
      "t": 190713.69450000065,
      "d": 173.6105729166593,
      "v": 103
    },
    {
      "midi": 48,
      "hit": false,
      "t": 190713.69450000202,
      "d": 114.08694791665766,
      "v": 78
    },
    {
      "midi": 48,
      "hit": false,
      "t": 190713.694500003,
      "d": 173.6105729166593,
      "v": 70
    },
    {
      "midi": 60,
      "hit": false,
      "t": 190832.74174999958,
      "d": 9.920604166662088,
      "v": 103
    },
    {
      "midi": 64,
      "hit": false,
      "t": 190832.74174999958,
      "d": 9.920604166662088,
      "v": 103
    },
    {
      "midi": 48,
      "hit": false,
      "t": 190832.74175000202,
      "d": 114.08694791665766,
      "v": 78
    },
    {
      "midi": 36,
      "hit": false,
      "t": 190951.78899999673,
      "d": 208.33268749999115,
      "v": 68
    },
    {
      "midi": 72,
      "hit": false,
      "t": 190951.78899999993,
      "d": 186.01132812499418,
      "v": 74
    },
    {
      "midi": 76,
      "hit": false,
      "t": 190951.78899999993,
      "d": 186.01132812499418,
      "v": 75
    },
    {
      "midi": 79,
      "hit": false,
      "t": 190951.78899999993,
      "d": 186.01132812499418,
      "v": 74
    },
    {
      "midi": 72,
      "hit": false,
      "t": 190951.78900000066,
      "d": 173.6105729166593,
      "v": 103
    },
    {
      "midi": 76,
      "hit": false,
      "t": 190951.78900000066,
      "d": 173.6105729166593,
      "v": 105
    },
    {
      "midi": 79,
      "hit": false,
      "t": 190951.78900000066,
      "d": 173.6105729166593,
      "v": 103
    },
    {
      "midi": 60,
      "hit": false,
      "t": 190951.78900000066,
      "d": 173.6105729166593,
      "v": 103
    },
    {
      "midi": 64,
      "hit": false,
      "t": 190951.78900000066,
      "d": 173.6105729166593,
      "v": 105
    },
    {
      "midi": 67,
      "hit": false,
      "t": 190951.78900000066,
      "d": 173.6105729166593,
      "v": 103
    },
    {
      "midi": 36,
      "hit": false,
      "t": 190951.78900000203,
      "d": 114.08694791665766,
      "v": 78
    },
    {
      "midi": 36,
      "hit": false,
      "t": 190951.78900000302,
      "d": 173.6105729166593,
      "v": 64
    },
    {
      "midi": 36,
      "hit": false,
      "t": 191070.83625000203,
      "d": 114.08694791665766,
      "v": 78
    },
    {
      "midi": 36,
      "hit": false,
      "t": 191189.8834999967,
      "d": 208.33268749999115,
      "v": 68
    },
    {
      "midi": 60,
      "hit": false,
      "t": 191189.8834999996,
      "d": 9.920604166662088,
      "v": 103
    },
    {
      "midi": 64,
      "hit": false,
      "t": 191189.8834999996,
      "d": 9.920604166662088,
      "v": 103
    },
    {
      "midi": 72,
      "hit": false,
      "t": 191189.88349999994,
      "d": 186.01132812499418,
      "v": 71
    },
    {
      "midi": 76,
      "hit": false,
      "t": 191189.88349999994,
      "d": 186.01132812499418,
      "v": 72
    },
    {
      "midi": 79,
      "hit": false,
      "t": 191189.88349999994,
      "d": 186.01132812499418,
      "v": 72
    },
    {
      "midi": 72,
      "hit": false,
      "t": 191189.88350000067,
      "d": 173.6105729166593,
      "v": 99
    },
    {
      "midi": 76,
      "hit": false,
      "t": 191189.88350000067,
      "d": 173.6105729166593,
      "v": 101
    },
    {
      "midi": 79,
      "hit": false,
      "t": 191189.88350000067,
      "d": 173.6105729166593,
      "v": 100
    },
    {
      "midi": 60,
      "hit": false,
      "t": 191189.88350000067,
      "d": 173.6105729166593,
      "v": 99
    },
    {
      "midi": 64,
      "hit": false,
      "t": 191189.88350000067,
      "d": 173.6105729166593,
      "v": 101
    },
    {
      "midi": 67,
      "hit": false,
      "t": 191189.88350000067,
      "d": 173.6105729166593,
      "v": 100
    },
    {
      "midi": 48,
      "hit": false,
      "t": 191189.88350000203,
      "d": 114.08694791665766,
      "v": 78
    },
    {
      "midi": 48,
      "hit": false,
      "t": 191189.88350000302,
      "d": 173.6105729166593,
      "v": 74
    },
    {
      "midi": 60,
      "hit": false,
      "t": 191308.9307499996,
      "d": 9.920604166662088,
      "v": 103
    },
    {
      "midi": 64,
      "hit": false,
      "t": 191308.9307499996,
      "d": 9.920604166662088,
      "v": 103
    },
    {
      "midi": 48,
      "hit": false,
      "t": 191308.93075000204,
      "d": 114.08694791665766,
      "v": 78
    },
    {
      "midi": 36,
      "hit": false,
      "t": 191427.97799999668,
      "d": 208.33268749999115,
      "v": 68
    },
    {
      "midi": 36,
      "hit": false,
      "t": 191427.97800000204,
      "d": 114.08694791665766,
      "v": 78
    },
    {
      "midi": 36,
      "hit": false,
      "t": 191427.97800000303,
      "d": 173.6105729166593,
      "v": 50
    },
    {
      "midi": 36,
      "hit": false,
      "t": 191547.02525000204,
      "d": 114.08694791665766,
      "v": 78
    },
    {
      "midi": 36,
      "hit": false,
      "t": 191666.07249999666,
      "d": 208.33268749999115,
      "v": 68
    },
    {
      "midi": 60,
      "hit": false,
      "t": 191666.0724999996,
      "d": 9.920604166662088,
      "v": 103
    },
    {
      "midi": 64,
      "hit": false,
      "t": 191666.0724999996,
      "d": 9.920604166662088,
      "v": 103
    },
    {
      "midi": 48,
      "hit": false,
      "t": 191666.07250000205,
      "d": 114.08694791665766,
      "v": 78
    },
    {
      "midi": 48,
      "hit": false,
      "t": 191666.07250000304,
      "d": 173.6105729166593,
      "v": 73
    },
    {
      "midi": 60,
      "hit": false,
      "t": 191785.1197499996,
      "d": 9.920604166662088,
      "v": 103
    },
    {
      "midi": 64,
      "hit": false,
      "t": 191785.1197499996,
      "d": 9.920604166662088,
      "v": 103
    },
    {
      "midi": 48,
      "hit": false,
      "t": 191785.11975000205,
      "d": 114.08694791665766,
      "v": 78
    },
    {
      "midi": 38,
      "hit": false,
      "t": 191904.16699999664,
      "d": 208.33268749999115,
      "v": 68
    },
    {
      "midi": 74,
      "hit": false,
      "t": 191904.16699999993,
      "d": 272.8166145833384,
      "v": 70
    },
    {
      "midi": 78,
      "hit": false,
      "t": 191904.16699999993,
      "d": 272.8166145833384,
      "v": 76
    },
    {
      "midi": 81,
      "hit": false,
      "t": 191904.16699999993,
      "d": 272.8166145833384,
      "v": 75
    },
    {
      "midi": 66,
      "hit": false,
      "t": 191904.1670000004,
      "d": 471.22869791666744,
      "v": 58
    },
    {
      "midi": 69,
      "hit": false,
      "t": 191904.1670000004,
      "d": 471.22869791666744,
      "v": 58
    },
    {
      "midi": 74,
      "hit": false,
      "t": 191904.1670000004,
      "d": 471.22869791666744,
      "v": 58
    },
    {
      "midi": 74,
      "hit": false,
      "t": 191904.16700000066,
      "d": 272.8166145833384,
      "v": 98
    },
    {
      "midi": 78,
      "hit": false,
      "t": 191904.16700000066,
      "d": 272.8166145833384,
      "v": 106
    },
    {
      "midi": 81,
      "hit": false,
      "t": 191904.16700000066,
      "d": 272.8166145833384,
      "v": 104
    },
    {
      "midi": 62,
      "hit": false,
      "t": 191904.16700000066,
      "d": 272.8166145833384,
      "v": 98
    },
    {
      "midi": 66,
      "hit": false,
      "t": 191904.16700000066,
      "d": 272.8166145833384,
      "v": 106
    },
    {
      "midi": 69,
      "hit": false,
      "t": 191904.16700000066,
      "d": 272.8166145833384,
      "v": 104
    },
    {
      "midi": 38,
      "hit": false,
      "t": 191904.16700000205,
      "d": 114.08694791665766,
      "v": 78
    },
    {
      "midi": 38,
      "hit": false,
      "t": 191904.16700000304,
      "d": 173.6105729166593,
      "v": 66
    },
    {
      "midi": 38,
      "hit": false,
      "t": 192023.21425000206,
      "d": 114.08694791665766,
      "v": 78
    },
    {
      "midi": 38,
      "hit": false,
      "t": 192142.26149999662,
      "d": 208.33268749999115,
      "v": 68
    },
    {
      "midi": 62,
      "hit": false,
      "t": 192142.26149999961,
      "d": 9.920604166662088,
      "v": 103
    },
    {
      "midi": 66,
      "hit": false,
      "t": 192142.26149999961,
      "d": 9.920604166662088,
      "v": 103
    },
    {
      "midi": 50,
      "hit": false,
      "t": 192142.26150000206,
      "d": 114.08694791665766,
      "v": 78
    },
    {
      "midi": 50,
      "hit": false,
      "t": 192142.26150000305,
      "d": 173.6105729166593,
      "v": 86
    },
    {
      "midi": 62,
      "hit": false,
      "t": 192261.30874999962,
      "d": 9.920604166662088,
      "v": 103
    },
    {
      "midi": 66,
      "hit": false,
      "t": 192261.30874999962,
      "d": 9.920604166662088,
      "v": 103
    },
    {
      "midi": 50,
      "hit": false,
      "t": 192261.30875000206,
      "d": 114.08694791665766,
      "v": 78
    },
    {
      "midi": 31,
      "hit": false,
      "t": 192380.3559999966,
      "d": 208.33268749999115,
      "v": 68
    },
    {
      "midi": 74,
      "hit": false,
      "t": 192380.35599999994,
      "d": 272.8166145833384,
      "v": 64
    },
    {
      "midi": 79,
      "hit": false,
      "t": 192380.35599999994,
      "d": 272.8166145833384,
      "v": 72
    },
    {
      "midi": 83,
      "hit": false,
      "t": 192380.35599999994,
      "d": 272.8166145833384,
      "v": 72
    },
    {
      "midi": 83,
      "hit": false,
      "t": 192380.35600000012,
      "d": 2.480151041672798,
      "v": 84
    },
    {
      "midi": 83,
      "hit": false,
      "t": 192380.35600000012,
      "d": 2.480151041672798,
      "v": 110
    },
    {
      "midi": 62,
      "hit": false,
      "t": 192380.3560000004,
      "d": 1899.7956979166775,
      "v": 58
    },
    {
      "midi": 67,
      "hit": false,
      "t": 192380.3560000004,
      "d": 1899.7956979166775,
      "v": 58
    },
    {
      "midi": 71,
      "hit": false,
      "t": 192380.3560000004,
      "d": 1899.7956979166775,
      "v": 58
    },
    {
      "midi": 74,
      "hit": false,
      "t": 192380.35600000067,
      "d": 272.8166145833384,
      "v": 90
    },
    {
      "midi": 79,
      "hit": false,
      "t": 192380.35600000067,
      "d": 272.8166145833384,
      "v": 100
    },
    {
      "midi": 83,
      "hit": false,
      "t": 192380.35600000067,
      "d": 272.8166145833384,
      "v": 100
    },
    {
      "midi": 62,
      "hit": false,
      "t": 192380.35600000067,
      "d": 272.8166145833384,
      "v": 90
    },
    {
      "midi": 67,
      "hit": false,
      "t": 192380.35600000067,
      "d": 272.8166145833384,
      "v": 100
    },
    {
      "midi": 71,
      "hit": false,
      "t": 192380.35600000067,
      "d": 272.8166145833384,
      "v": 100
    },
    {
      "midi": 43,
      "hit": false,
      "t": 192380.35600000207,
      "d": 114.08694791665766,
      "v": 78
    },
    {
      "midi": 31,
      "hit": false,
      "t": 192380.35600000306,
      "d": 173.6105729166593,
      "v": 76
    },
    {
      "midi": 83,
      "hit": false,
      "t": 192499.40325000012,
      "d": 2.480151041672798,
      "v": 91
    },
    {
      "midi": 83,
      "hit": false,
      "t": 192499.40325000012,
      "d": 2.480151041672798,
      "v": 110
    },
    {
      "midi": 43,
      "hit": false,
      "t": 192499.40325000207,
      "d": 114.08694791665766,
      "v": 78
    },
    {
      "midi": 31,
      "hit": false,
      "t": 192618.45049999657,
      "d": 208.33268749999115,
      "v": 68
    },
    {
      "midi": 67,
      "hit": false,
      "t": 192618.45049999963,
      "d": 9.920604166662088,
      "v": 103
    },
    {
      "midi": 71,
      "hit": false,
      "t": 192618.45049999963,
      "d": 9.920604166662088,
      "v": 103
    },
    {
      "midi": 83,
      "hit": false,
      "t": 192618.45050000012,
      "d": 2.480151041672798,
      "v": 88
    },
    {
      "midi": 83,
      "hit": false,
      "t": 192618.45050000012,
      "d": 2.480151041672798,
      "v": 110
    },
    {
      "midi": 55,
      "hit": false,
      "t": 192618.45050000207,
      "d": 114.08694791665766,
      "v": 78
    },
    {
      "midi": 43,
      "hit": false,
      "t": 192618.45050000306,
      "d": 173.6105729166593,
      "v": 82
    },
    {
      "midi": 67,
      "hit": false,
      "t": 192737.49774999963,
      "d": 9.920604166662088,
      "v": 103
    },
    {
      "midi": 71,
      "hit": false,
      "t": 192737.49774999963,
      "d": 9.920604166662088,
      "v": 103
    },
    {
      "midi": 83,
      "hit": false,
      "t": 192737.49775000013,
      "d": 2.480151041672798,
      "v": 91
    },
    {
      "midi": 83,
      "hit": false,
      "t": 192737.49775000013,
      "d": 2.480151041672798,
      "v": 110
    },
    {
      "midi": 55,
      "hit": false,
      "t": 192737.49775000208,
      "d": 114.08694791665766,
      "v": 78
    },
    {
      "midi": 31,
      "hit": false,
      "t": 192856.54499999655,
      "d": 208.33268749999115,
      "v": 68
    },
    {
      "midi": 83,
      "hit": false,
      "t": 192856.54500000013,
      "d": 2.480151041672798,
      "v": 87
    },
    {
      "midi": 83,
      "hit": false,
      "t": 192856.54500000013,
      "d": 2.480151041672798,
      "v": 110
    },
    {
      "midi": 43,
      "hit": false,
      "t": 192856.54500000208,
      "d": 114.08694791665766,
      "v": 78
    },
    {
      "midi": 31,
      "hit": false,
      "t": 192856.54500000307,
      "d": 173.6105729166593,
      "v": 62
    },
    {
      "midi": 83,
      "hit": false,
      "t": 192975.59225000013,
      "d": 2.480151041672798,
      "v": 87
    },
    {
      "midi": 83,
      "hit": false,
      "t": 192975.59225000013,
      "d": 2.480151041672798,
      "v": 110
    },
    {
      "midi": 43,
      "hit": false,
      "t": 192975.59225000208,
      "d": 114.08694791665766,
      "v": 78
    },
    {
      "midi": 31,
      "hit": false,
      "t": 193094.63949999653,
      "d": 208.33268749999115,
      "v": 68
    },
    {
      "midi": 67,
      "hit": false,
      "t": 193094.63949999964,
      "d": 9.920604166662088,
      "v": 103
    },
    {
      "midi": 71,
      "hit": false,
      "t": 193094.63949999964,
      "d": 9.920604166662088,
      "v": 103
    },
    {
      "midi": 83,
      "hit": false,
      "t": 193094.63950000014,
      "d": 2.480151041672798,
      "v": 89
    },
    {
      "midi": 83,
      "hit": false,
      "t": 193094.63950000014,
      "d": 2.480151041672798,
      "v": 110
    },
    {
      "midi": 55,
      "hit": false,
      "t": 193094.6395000021,
      "d": 114.08694791665766,
      "v": 78
    },
    {
      "midi": 43,
      "hit": false,
      "t": 193094.63950000308,
      "d": 173.6105729166593,
      "v": 78
    },
    {
      "midi": 67,
      "hit": false,
      "t": 193213.68674999964,
      "d": 9.920604166662088,
      "v": 103
    },
    {
      "midi": 71,
      "hit": false,
      "t": 193213.68674999964,
      "d": 9.920604166662088,
      "v": 103
    },
    {
      "midi": 83,
      "hit": false,
      "t": 193213.68675000014,
      "d": 2.480151041672798,
      "v": 91
    },
    {
      "midi": 83,
      "hit": false,
      "t": 193213.68675000014,
      "d": 2.480151041672798,
      "v": 110
    },
    {
      "midi": 55,
      "hit": false,
      "t": 193213.6867500021,
      "d": 114.08694791665766,
      "v": 78
    },
    {
      "midi": 31,
      "hit": false,
      "t": 193332.7339999965,
      "d": 208.33268749999115,
      "v": 68
    },
    {
      "midi": 83,
      "hit": false,
      "t": 193332.73400000014,
      "d": 2.480151041672798,
      "v": 91
    },
    {
      "midi": 83,
      "hit": false,
      "t": 193332.73400000014,
      "d": 2.480151041672798,
      "v": 110
    },
    {
      "midi": 43,
      "hit": false,
      "t": 193332.7340000021,
      "d": 114.08694791665766,
      "v": 78
    },
    {
      "midi": 31,
      "hit": false,
      "t": 193332.73400000308,
      "d": 173.6105729166593,
      "v": 67
    },
    {
      "midi": 83,
      "hit": false,
      "t": 193451.78125000015,
      "d": 2.480151041672798,
      "v": 92
    },
    {
      "midi": 83,
      "hit": false,
      "t": 193451.78125000015,
      "d": 2.480151041672798,
      "v": 110
    },
    {
      "midi": 43,
      "hit": false,
      "t": 193451.7812500021,
      "d": 114.08694791665766,
      "v": 78
    },
    {
      "midi": 31,
      "hit": false,
      "t": 193570.82849999648,
      "d": 208.33268749999115,
      "v": 68
    },
    {
      "midi": 67,
      "hit": false,
      "t": 193570.82849999965,
      "d": 9.920604166662088,
      "v": 103
    },
    {
      "midi": 71,
      "hit": false,
      "t": 193570.82849999965,
      "d": 9.920604166662088,
      "v": 103
    },
    {
      "midi": 83,
      "hit": false,
      "t": 193570.82850000015,
      "d": 2.480151041672798,
      "v": 96
    },
    {
      "midi": 83,
      "hit": false,
      "t": 193570.82850000015,
      "d": 2.480151041672798,
      "v": 110
    },
    {
      "midi": 55,
      "hit": false,
      "t": 193570.8285000021,
      "d": 114.08694791665766,
      "v": 78
    },
    {
      "midi": 43,
      "hit": false,
      "t": 193570.8285000031,
      "d": 173.6105729166593,
      "v": 70
    },
    {
      "midi": 67,
      "hit": false,
      "t": 193689.87574999966,
      "d": 9.920604166662088,
      "v": 103
    },
    {
      "midi": 71,
      "hit": false,
      "t": 193689.87574999966,
      "d": 9.920604166662088,
      "v": 103
    },
    {
      "midi": 83,
      "hit": false,
      "t": 193689.87575000015,
      "d": 2.480151041672798,
      "v": 92
    },
    {
      "midi": 83,
      "hit": false,
      "t": 193689.87575000015,
      "d": 2.480151041672798,
      "v": 110
    },
    {
      "midi": 55,
      "hit": false,
      "t": 193689.8757500021,
      "d": 114.08694791665766,
      "v": 78
    },
    {
      "midi": 31,
      "hit": false,
      "t": 193808.92299999646,
      "d": 208.33268749999115,
      "v": 68
    },
    {
      "midi": 83,
      "hit": false,
      "t": 193808.92300000016,
      "d": 2.480151041672798,
      "v": 96
    },
    {
      "midi": 83,
      "hit": false,
      "t": 193808.92300000016,
      "d": 2.480151041672798,
      "v": 110
    },
    {
      "midi": 43,
      "hit": false,
      "t": 193808.9230000021,
      "d": 114.08694791665766,
      "v": 78
    },
    {
      "midi": 31,
      "hit": false,
      "t": 193808.9230000031,
      "d": 173.6105729166593,
      "v": 56
    },
    {
      "midi": 83,
      "hit": false,
      "t": 193927.97025000016,
      "d": 2.480151041672798,
      "v": 96
    },
    {
      "midi": 83,
      "hit": false,
      "t": 193927.97025000016,
      "d": 2.480151041672798,
      "v": 110
    },
    {
      "midi": 43,
      "hit": false,
      "t": 193927.9702500021,
      "d": 114.08694791665766,
      "v": 78
    },
    {
      "midi": 31,
      "hit": false,
      "t": 194047.01749999644,
      "d": 208.33268749999115,
      "v": 68
    },
    {
      "midi": 67,
      "hit": false,
      "t": 194047.01749999967,
      "d": 9.920604166662088,
      "v": 103
    },
    {
      "midi": 71,
      "hit": false,
      "t": 194047.01749999967,
      "d": 9.920604166662088,
      "v": 103
    },
    {
      "midi": 83,
      "hit": false,
      "t": 194047.01750000016,
      "d": 2.480151041672798,
      "v": 98
    },
    {
      "midi": 83,
      "hit": false,
      "t": 194047.01750000016,
      "d": 2.480151041672798,
      "v": 110
    },
    {
      "midi": 55,
      "hit": false,
      "t": 194047.0175000021,
      "d": 114.08694791665766,
      "v": 78
    },
    {
      "midi": 43,
      "hit": false,
      "t": 194047.0175000031,
      "d": 173.6105729166593,
      "v": 70
    },
    {
      "midi": 67,
      "hit": false,
      "t": 194166.06474999967,
      "d": 9.920604166662088,
      "v": 103
    },
    {
      "midi": 71,
      "hit": false,
      "t": 194166.06474999967,
      "d": 9.920604166662088,
      "v": 103
    },
    {
      "midi": 83,
      "hit": false,
      "t": 194166.06475000017,
      "d": 2.480151041672798,
      "v": 101
    },
    {
      "midi": 83,
      "hit": false,
      "t": 194166.06475000017,
      "d": 2.480151041672798,
      "v": 110
    },
    {
      "midi": 55,
      "hit": false,
      "t": 194166.06475000212,
      "d": 114.08694791665766,
      "v": 78
    },
    {
      "midi": 38,
      "hit": false,
      "t": 194285.1119999964,
      "d": 208.33268749999115,
      "v": 68
    },
    {
      "midi": 74,
      "hit": false,
      "t": 194285.11199999994,
      "d": 186.01132812499418,
      "v": 54
    },
    {
      "midi": 78,
      "hit": false,
      "t": 194285.11199999994,
      "d": 186.01132812499418,
      "v": 57
    },
    {
      "midi": 81,
      "hit": false,
      "t": 194285.11199999994,
      "d": 186.01132812499418,
      "v": 49
    },
    {
      "midi": 62,
      "hit": false,
      "t": 194285.11200000043,
      "d": 1899.7956979166775,
      "v": 58
    },
    {
      "midi": 66,
      "hit": false,
      "t": 194285.11200000043,
      "d": 1899.7956979166775,
      "v": 58
    },
    {
      "midi": 69,
      "hit": false,
      "t": 194285.11200000043,
      "d": 1899.7956979166775,
      "v": 58
    },
    {
      "midi": 74,
      "hit": false,
      "t": 194285.11200000066,
      "d": 173.6105729166593,
      "v": 76
    },
    {
      "midi": 78,
      "hit": false,
      "t": 194285.11200000066,
      "d": 173.6105729166593,
      "v": 80
    },
    {
      "midi": 81,
      "hit": false,
      "t": 194285.11200000066,
      "d": 173.6105729166593,
      "v": 70
    },
    {
      "midi": 62,
      "hit": false,
      "t": 194285.11200000066,
      "d": 173.6105729166593,
      "v": 76
    },
    {
      "midi": 66,
      "hit": false,
      "t": 194285.11200000066,
      "d": 173.6105729166593,
      "v": 80
    },
    {
      "midi": 69,
      "hit": false,
      "t": 194285.11200000066,
      "d": 173.6105729166593,
      "v": 70
    },
    {
      "midi": 38,
      "hit": false,
      "t": 194285.11200000212,
      "d": 114.08694791665766,
      "v": 78
    },
    {
      "midi": 38,
      "hit": false,
      "t": 194285.1120000031,
      "d": 173.6105729166593,
      "v": 70
    },
    {
      "midi": 38,
      "hit": false,
      "t": 194404.15925000212,
      "d": 114.08694791665766,
      "v": 78
    },
    {
      "midi": 38,
      "hit": false,
      "t": 194523.2064999964,
      "d": 208.33268749999115,
      "v": 68
    },
    {
      "midi": 62,
      "hit": false,
      "t": 194523.20649999968,
      "d": 9.920604166662088,
      "v": 103
    },
    {
      "midi": 66,
      "hit": false,
      "t": 194523.20649999968,
      "d": 9.920604166662088,
      "v": 103
    },
    {
      "midi": 74,
      "hit": false,
      "t": 194523.20649999994,
      "d": 186.01132812499418,
      "v": 65
    },
    {
      "midi": 78,
      "hit": false,
      "t": 194523.20649999994,
      "d": 186.01132812499418,
      "v": 68
    },
    {
      "midi": 81,
      "hit": false,
      "t": 194523.20649999994,
      "d": 186.01132812499418,
      "v": 64
    },
    {
      "midi": 74,
      "hit": false,
      "t": 194523.20650000067,
      "d": 173.6105729166593,
      "v": 91
    },
    {
      "midi": 78,
      "hit": false,
      "t": 194523.20650000067,
      "d": 173.6105729166593,
      "v": 95
    },
    {
      "midi": 81,
      "hit": false,
      "t": 194523.20650000067,
      "d": 173.6105729166593,
      "v": 90
    },
    {
      "midi": 62,
      "hit": false,
      "t": 194523.20650000067,
      "d": 173.6105729166593,
      "v": 91
    },
    {
      "midi": 66,
      "hit": false,
      "t": 194523.20650000067,
      "d": 173.6105729166593,
      "v": 95
    },
    {
      "midi": 69,
      "hit": false,
      "t": 194523.20650000067,
      "d": 173.6105729166593,
      "v": 90
    },
    {
      "midi": 50,
      "hit": false,
      "t": 194523.20650000212,
      "d": 114.08694791665766,
      "v": 78
    },
    {
      "midi": 50,
      "hit": false,
      "t": 194523.2065000031,
      "d": 173.6105729166593,
      "v": 62
    },
    {
      "midi": 62,
      "hit": false,
      "t": 194642.25374999968,
      "d": 9.920604166662088,
      "v": 103
    },
    {
      "midi": 66,
      "hit": false,
      "t": 194642.25374999968,
      "d": 9.920604166662088,
      "v": 103
    },
    {
      "midi": 50,
      "hit": false,
      "t": 194642.25375000213,
      "d": 114.08694791665766,
      "v": 78
    },
    {
      "midi": 38,
      "hit": false,
      "t": 194761.30099999637,
      "d": 208.33268749999115,
      "v": 68
    },
    {
      "midi": 74,
      "hit": false,
      "t": 194761.30099999995,
      "d": 186.01132812499418,
      "v": 71
    },
    {
      "midi": 78,
      "hit": false,
      "t": 194761.30099999995,
      "d": 186.01132812499418,
      "v": 72
    },
    {
      "midi": 81,
      "hit": false,
      "t": 194761.30099999995,
      "d": 186.01132812499418,
      "v": 72
    },
    {
      "midi": 74,
      "hit": false,
      "t": 194761.30100000068,
      "d": 173.6105729166593,
      "v": 99
    },
    {
      "midi": 78,
      "hit": false,
      "t": 194761.30100000068,
      "d": 173.6105729166593,
      "v": 101
    },
    {
      "midi": 81,
      "hit": false,
      "t": 194761.30100000068,
      "d": 173.6105729166593,
      "v": 100
    },
    {
      "midi": 62,
      "hit": false,
      "t": 194761.30100000068,
      "d": 173.6105729166593,
      "v": 99
    },
    {
      "midi": 66,
      "hit": false,
      "t": 194761.30100000068,
      "d": 173.6105729166593,
      "v": 101
    },
    {
      "midi": 69,
      "hit": false,
      "t": 194761.30100000068,
      "d": 173.6105729166593,
      "v": 100
    },
    {
      "midi": 38,
      "hit": false,
      "t": 194761.30100000213,
      "d": 114.08694791665766,
      "v": 78
    },
    {
      "midi": 38,
      "hit": false,
      "t": 194761.30100000312,
      "d": 173.6105729166593,
      "v": 66
    },
    {
      "midi": 38,
      "hit": false,
      "t": 194880.34825000213,
      "d": 114.08694791665766,
      "v": 78
    },
    {
      "midi": 38,
      "hit": false,
      "t": 194999.39549999635,
      "d": 208.33268749999115,
      "v": 68
    },
    {
      "midi": 62,
      "hit": false,
      "t": 194999.3954999997,
      "d": 9.920604166662088,
      "v": 103
    },
    {
      "midi": 66,
      "hit": false,
      "t": 194999.3954999997,
      "d": 9.920604166662088,
      "v": 103
    },
    {
      "midi": 74,
      "hit": false,
      "t": 194999.39549999996,
      "d": 186.01132812499418,
      "v": 70
    },
    {
      "midi": 78,
      "hit": false,
      "t": 194999.39549999996,
      "d": 186.01132812499418,
      "v": 74
    },
    {
      "midi": 81,
      "hit": false,
      "t": 194999.39549999996,
      "d": 186.01132812499418,
      "v": 69
    },
    {
      "midi": 74,
      "hit": false,
      "t": 194999.39550000068,
      "d": 173.6105729166593,
      "v": 98
    },
    {
      "midi": 78,
      "hit": false,
      "t": 194999.39550000068,
      "d": 173.6105729166593,
      "v": 103
    },
    {
      "midi": 81,
      "hit": false,
      "t": 194999.39550000068,
      "d": 173.6105729166593,
      "v": 96
    },
    {
      "midi": 62,
      "hit": false,
      "t": 194999.39550000068,
      "d": 173.6105729166593,
      "v": 98
    },
    {
      "midi": 66,
      "hit": false,
      "t": 194999.39550000068,
      "d": 173.6105729166593,
      "v": 103
    },
    {
      "midi": 69,
      "hit": false,
      "t": 194999.39550000068,
      "d": 173.6105729166593,
      "v": 96
    },
    {
      "midi": 50,
      "hit": false,
      "t": 194999.39550000214,
      "d": 114.08694791665766,
      "v": 78
    },
    {
      "midi": 50,
      "hit": false,
      "t": 194999.39550000313,
      "d": 173.6105729166593,
      "v": 67
    },
    {
      "midi": 62,
      "hit": false,
      "t": 195118.4427499997,
      "d": 9.920604166662088,
      "v": 103
    },
    {
      "midi": 66,
      "hit": false,
      "t": 195118.4427499997,
      "d": 9.920604166662088,
      "v": 103
    },
    {
      "midi": 50,
      "hit": false,
      "t": 195118.44275000214,
      "d": 114.08694791665766,
      "v": 78
    },
    {
      "midi": 38,
      "hit": false,
      "t": 195237.48999999632,
      "d": 208.33268749999115,
      "v": 68
    },
    {
      "midi": 38,
      "hit": false,
      "t": 195237.49000000214,
      "d": 114.08694791665766,
      "v": 78
    },
    {
      "midi": 38,
      "hit": false,
      "t": 195237.49000000313,
      "d": 173.6105729166593,
      "v": 64
    },
    {
      "midi": 38,
      "hit": false,
      "t": 195356.53725000215,
      "d": 114.08694791665766,
      "v": 78
    },
    {
      "midi": 38,
      "hit": false,
      "t": 195475.5844999963,
      "d": 208.33268749999115,
      "v": 68
    },
    {
      "midi": 62,
      "hit": false,
      "t": 195475.5844999997,
      "d": 9.920604166662088,
      "v": 103
    },
    {
      "midi": 66,
      "hit": false,
      "t": 195475.5844999997,
      "d": 9.920604166662088,
      "v": 103
    },
    {
      "midi": 50,
      "hit": false,
      "t": 195475.58450000215,
      "d": 114.08694791665766,
      "v": 78
    },
    {
      "midi": 50,
      "hit": false,
      "t": 195475.58450000314,
      "d": 173.6105729166593,
      "v": 66
    },
    {
      "midi": 62,
      "hit": false,
      "t": 195594.6317499997,
      "d": 9.920604166662088,
      "v": 103
    },
    {
      "midi": 66,
      "hit": false,
      "t": 195594.6317499997,
      "d": 9.920604166662088,
      "v": 103
    },
    {
      "midi": 50,
      "hit": false,
      "t": 195594.63175000215,
      "d": 114.08694791665766,
      "v": 78
    },
    {
      "midi": 38,
      "hit": false,
      "t": 195713.67899999628,
      "d": 208.33268749999115,
      "v": 68
    },
    {
      "midi": 74,
      "hit": false,
      "t": 195713.67899999995,
      "d": 272.8166145833384,
      "v": 68
    },
    {
      "midi": 78,
      "hit": false,
      "t": 195713.67899999995,
      "d": 272.8166145833384,
      "v": 67
    },
    {
      "midi": 83,
      "hit": false,
      "t": 195713.67899999995,
      "d": 272.8166145833384,
      "v": 72
    },
    {
      "midi": 74,
      "hit": false,
      "t": 195713.67900000067,
      "d": 272.8166145833384,
      "v": 95
    },
    {
      "midi": 78,
      "hit": false,
      "t": 195713.67900000067,
      "d": 272.8166145833384,
      "v": 94
    },
    {
      "midi": 83,
      "hit": false,
      "t": 195713.67900000067,
      "d": 272.8166145833384,
      "v": 100
    },
    {
      "midi": 62,
      "hit": false,
      "t": 195713.67900000067,
      "d": 272.8166145833384,
      "v": 95
    },
    {
      "midi": 66,
      "hit": false,
      "t": 195713.67900000067,
      "d": 272.8166145833384,
      "v": 94
    },
    {
      "midi": 71,
      "hit": false,
      "t": 195713.67900000067,
      "d": 272.8166145833384,
      "v": 100
    },
    {
      "midi": 38,
      "hit": false,
      "t": 195713.67900000216,
      "d": 114.08694791665766,
      "v": 78
    },
    {
      "midi": 38,
      "hit": false,
      "t": 195713.67900000315,
      "d": 173.6105729166593,
      "v": 62
    },
    {
      "midi": 38,
      "hit": false,
      "t": 195832.72625000216,
      "d": 114.08694791665766,
      "v": 78
    },
    {
      "midi": 38,
      "hit": false,
      "t": 195951.77349999626,
      "d": 208.33268749999115,
      "v": 68
    },
    {
      "midi": 62,
      "hit": false,
      "t": 195951.77349999972,
      "d": 9.920604166662088,
      "v": 103
    },
    {
      "midi": 66,
      "hit": false,
      "t": 195951.77349999972,
      "d": 9.920604166662088,
      "v": 103
    },
    {
      "midi": 50,
      "hit": false,
      "t": 195951.77350000216,
      "d": 114.08694791665766,
      "v": 78
    },
    {
      "midi": 50,
      "hit": false,
      "t": 195951.77350000315,
      "d": 173.6105729166593,
      "v": 73
    },
    {
      "midi": 62,
      "hit": false,
      "t": 196070.82074999972,
      "d": 9.920604166662088,
      "v": 103
    },
    {
      "midi": 66,
      "hit": false,
      "t": 196070.82074999972,
      "d": 9.920604166662088,
      "v": 103
    },
    {
      "midi": 50,
      "hit": false,
      "t": 196070.82075000217,
      "d": 114.08694791665766,
      "v": 78
    },
    {
      "midi": 40,
      "hit": false,
      "t": 196189.86799999623,
      "d": 208.33268749999115,
      "v": 68
    },
    {
      "midi": 71,
      "hit": false,
      "t": 196189.86799999996,
      "d": 272.8166145833384,
      "v": 63
    },
    {
      "midi": 76,
      "hit": false,
      "t": 196189.86799999996,
      "d": 272.8166145833384,
      "v": 74
    },
    {
      "midi": 79,
      "hit": false,
      "t": 196189.86799999996,
      "d": 272.8166145833384,
      "v": 75
    },
    {
      "midi": 64,
      "hit": false,
      "t": 196189.86800000045,
      "d": 947.4176979166805,
      "v": 58
    },
    {
      "midi": 67,
      "hit": false,
      "t": 196189.86800000045,
      "d": 1899.7956979167066,
      "v": 58
    },
    {
      "midi": 71,
      "hit": false,
      "t": 196189.86800000045,
      "d": 1899.7956979167066,
      "v": 58
    },
    {
      "midi": 71,
      "hit": false,
      "t": 196189.8680000007,
      "d": 272.8166145833384,
      "v": 88
    },
    {
      "midi": 76,
      "hit": false,
      "t": 196189.8680000007,
      "d": 272.8166145833384,
      "v": 103
    },
    {
      "midi": 79,
      "hit": false,
      "t": 196189.8680000007,
      "d": 272.8166145833384,
      "v": 105
    },
    {
      "midi": 59,
      "hit": false,
      "t": 196189.8680000007,
      "d": 272.8166145833384,
      "v": 88
    },
    {
      "midi": 64,
      "hit": false,
      "t": 196189.8680000007,
      "d": 272.8166145833384,
      "v": 103
    },
    {
      "midi": 67,
      "hit": false,
      "t": 196189.8680000007,
      "d": 272.8166145833384,
      "v": 105
    },
    {
      "midi": 40,
      "hit": false,
      "t": 196189.86800000217,
      "d": 114.08694791665766,
      "v": 78
    },
    {
      "midi": 40,
      "hit": false,
      "t": 196189.86800000316,
      "d": 173.6105729166593,
      "v": 73
    },
    {
      "midi": 40,
      "hit": false,
      "t": 196308.91525000217,
      "d": 114.08694791665766,
      "v": 78
    },
    {
      "midi": 40,
      "hit": false,
      "t": 196427.9624999962,
      "d": 208.33268749999115,
      "v": 68
    },
    {
      "midi": 64,
      "hit": false,
      "t": 196427.96249999973,
      "d": 9.920604166662088,
      "v": 103
    },
    {
      "midi": 67,
      "hit": false,
      "t": 196427.96249999973,
      "d": 9.920604166662088,
      "v": 103
    },
    {
      "midi": 52,
      "hit": false,
      "t": 196427.96250000218,
      "d": 114.08694791665766,
      "v": 78
    },
    {
      "midi": 52,
      "hit": false,
      "t": 196427.96250000317,
      "d": 173.6105729166593,
      "v": 64
    },
    {
      "midi": 64,
      "hit": false,
      "t": 196547.00974999974,
      "d": 9.920604166662088,
      "v": 103
    },
    {
      "midi": 67,
      "hit": false,
      "t": 196547.00974999974,
      "d": 9.920604166662088,
      "v": 103
    },
    {
      "midi": 52,
      "hit": false,
      "t": 196547.00975000218,
      "d": 114.08694791665766,
      "v": 78
    },
    {
      "midi": 40,
      "hit": false,
      "t": 196666.0569999962,
      "d": 208.33268749999115,
      "v": 68
    },
    {
      "midi": 40,
      "hit": false,
      "t": 196666.05700000218,
      "d": 114.08694791665766,
      "v": 78
    },
    {
      "midi": 40,
      "hit": false,
      "t": 196666.05700000317,
      "d": 173.6105729166593,
      "v": 62
    },
    {
      "midi": 40,
      "hit": false,
      "t": 196785.1042500022,
      "d": 114.08694791665766,
      "v": 78
    },
    {
      "midi": 40,
      "hit": false,
      "t": 196904.15149999617,
      "d": 208.33268749999115,
      "v": 68
    },
    {
      "midi": 64,
      "hit": false,
      "t": 196904.15149999975,
      "d": 9.920604166662088,
      "v": 103
    },
    {
      "midi": 67,
      "hit": false,
      "t": 196904.15149999975,
      "d": 9.920604166662088,
      "v": 103
    },
    {
      "midi": 52,
      "hit": false,
      "t": 196904.1515000022,
      "d": 114.08694791665766,
      "v": 78
    },
    {
      "midi": 52,
      "hit": false,
      "t": 196904.15150000318,
      "d": 173.6105729166593,
      "v": 80
    },
    {
      "midi": 64,
      "hit": false,
      "t": 197023.19874999975,
      "d": 9.920604166662088,
      "v": 103
    },
    {
      "midi": 67,
      "hit": false,
      "t": 197023.19874999975,
      "d": 9.920604166662088,
      "v": 103
    },
    {
      "midi": 52,
      "hit": false,
      "t": 197023.1987500022,
      "d": 114.08694791665766,
      "v": 78
    },
    {
      "midi": 38,
      "hit": false,
      "t": 197142.24599999614,
      "d": 208.33268749999115,
      "v": 68
    },
    {
      "midi": 62,
      "hit": false,
      "t": 197142.24600000048,
      "d": 947.4176979166805,
      "v": 58
    },
    {
      "midi": 38,
      "hit": false,
      "t": 197142.2460000022,
      "d": 114.08694791665766,
      "v": 78
    },
    {
      "midi": 38,
      "hit": false,
      "t": 197142.2460000032,
      "d": 173.6105729166593,
      "v": 58
    },
    {
      "midi": 38,
      "hit": false,
      "t": 197261.2932500022,
      "d": 114.08694791665766,
      "v": 78
    },
    {
      "midi": 38,
      "hit": false,
      "t": 197380.34049999612,
      "d": 208.33268749999115,
      "v": 68
    },
    {
      "midi": 62,
      "hit": false,
      "t": 197380.34049999976,
      "d": 9.920604166662088,
      "v": 103
    },
    {
      "midi": 66,
      "hit": false,
      "t": 197380.34049999976,
      "d": 9.920604166662088,
      "v": 103
    },
    {
      "midi": 50,
      "hit": false,
      "t": 197380.3405000022,
      "d": 114.08694791665766,
      "v": 78
    },
    {
      "midi": 50,
      "hit": false,
      "t": 197380.3405000032,
      "d": 173.6105729166593,
      "v": 72
    },
    {
      "midi": 62,
      "hit": false,
      "t": 197499.38774999976,
      "d": 9.920604166662088,
      "v": 103
    },
    {
      "midi": 66,
      "hit": false,
      "t": 197499.38774999976,
      "d": 9.920604166662088,
      "v": 103
    },
    {
      "midi": 50,
      "hit": false,
      "t": 197499.3877500022,
      "d": 114.08694791665766,
      "v": 78
    },
    {
      "midi": 38,
      "hit": false,
      "t": 197618.4349999961,
      "d": 208.33268749999115,
      "v": 68
    },
    {
      "midi": 38,
      "hit": false,
      "t": 197618.4350000022,
      "d": 114.08694791665766,
      "v": 78
    },
    {
      "midi": 38,
      "hit": false,
      "t": 197618.4350000032,
      "d": 173.6105729166593,
      "v": 59
    },
    {
      "midi": 38,
      "hit": false,
      "t": 197737.4822500022,
      "d": 114.08694791665766,
      "v": 78
    },
    {
      "midi": 38,
      "hit": false,
      "t": 197856.52949999608,
      "d": 208.33268749999115,
      "v": 68
    },
    {
      "midi": 62,
      "hit": false,
      "t": 197856.52949999977,
      "d": 9.920604166662088,
      "v": 103
    },
    {
      "midi": 66,
      "hit": false,
      "t": 197856.52949999977,
      "d": 9.920604166662088,
      "v": 103
    },
    {
      "midi": 50,
      "hit": false,
      "t": 197856.52950000222,
      "d": 114.08694791665766,
      "v": 78
    },
    {
      "midi": 50,
      "hit": false,
      "t": 197856.5295000032,
      "d": 173.6105729166593,
      "v": 70
    },
    {
      "midi": 62,
      "hit": false,
      "t": 197975.57674999977,
      "d": 9.920604166662088,
      "v": 103
    },
    {
      "midi": 66,
      "hit": false,
      "t": 197975.57674999977,
      "d": 9.920604166662088,
      "v": 103
    },
    {
      "midi": 50,
      "hit": false,
      "t": 197975.57675000222,
      "d": 114.08694791665766,
      "v": 78
    },
    {
      "midi": 36,
      "hit": false,
      "t": 198094.62399999605,
      "d": 208.33268749999115,
      "v": 68
    },
    {
      "midi": 72,
      "hit": false,
      "t": 198094.62399999995,
      "d": 186.01132812499418,
      "v": 59
    },
    {
      "midi": 76,
      "hit": false,
      "t": 198094.62399999995,
      "d": 186.01132812499418,
      "v": 66
    },
    {
      "midi": 79,
      "hit": false,
      "t": 198094.62399999995,
      "d": 186.01132812499418,
      "v": 67
    },
    {
      "midi": 64,
      "hit": false,
      "t": 198094.6240000005,
      "d": 1423.6066979166644,
      "v": 58
    },
    {
      "midi": 67,
      "hit": false,
      "t": 198094.6240000005,
      "d": 1423.6066979166644,
      "v": 58
    },
    {
      "midi": 72,
      "hit": false,
      "t": 198094.6240000005,
      "d": 1423.6066979166644,
      "v": 58
    },
    {
      "midi": 72,
      "hit": false,
      "t": 198094.62400000068,
      "d": 173.6105729166593,
      "v": 83
    },
    {
      "midi": 76,
      "hit": false,
      "t": 198094.62400000068,
      "d": 173.6105729166593,
      "v": 93
    },
    {
      "midi": 79,
      "hit": false,
      "t": 198094.62400000068,
      "d": 173.6105729166593,
      "v": 94
    },
    {
      "midi": 60,
      "hit": false,
      "t": 198094.62400000068,
      "d": 173.6105729166593,
      "v": 83
    },
    {
      "midi": 64,
      "hit": false,
      "t": 198094.62400000068,
      "d": 173.6105729166593,
      "v": 93
    },
    {
      "midi": 67,
      "hit": false,
      "t": 198094.62400000068,
      "d": 173.6105729166593,
      "v": 94
    },
    {
      "midi": 36,
      "hit": false,
      "t": 198094.62400000222,
      "d": 114.08694791665766,
      "v": 78
    },
    {
      "midi": 36,
      "hit": false,
      "t": 198094.6240000032,
      "d": 173.6105729166593,
      "v": 74
    },
    {
      "midi": 36,
      "hit": false,
      "t": 198213.67125000223,
      "d": 114.08694791665766,
      "v": 78
    },
    {
      "midi": 36,
      "hit": false,
      "t": 198332.71849999603,
      "d": 208.33268749999115,
      "v": 68
    },
    {
      "midi": 60,
      "hit": false,
      "t": 198332.71849999978,
      "d": 9.920604166662088,
      "v": 103
    },
    {
      "midi": 64,
      "hit": false,
      "t": 198332.71849999978,
      "d": 9.920604166662088,
      "v": 103
    },
    {
      "midi": 72,
      "hit": false,
      "t": 198332.71849999996,
      "d": 186.01132812499418,
      "v": 71
    },
    {
      "midi": 76,
      "hit": false,
      "t": 198332.71849999996,
      "d": 186.01132812499418,
      "v": 79
    },
    {
      "midi": 79,
      "hit": false,
      "t": 198332.71849999996,
      "d": 186.01132812499418,
      "v": 74
    },
    {
      "midi": 72,
      "hit": false,
      "t": 198332.7185000007,
      "d": 173.6105729166593,
      "v": 99
    },
    {
      "midi": 76,
      "hit": false,
      "t": 198332.7185000007,
      "d": 173.6105729166593,
      "v": 110
    },
    {
      "midi": 79,
      "hit": false,
      "t": 198332.7185000007,
      "d": 173.6105729166593,
      "v": 103
    },
    {
      "midi": 60,
      "hit": false,
      "t": 198332.7185000007,
      "d": 173.6105729166593,
      "v": 99
    },
    {
      "midi": 64,
      "hit": false,
      "t": 198332.7185000007,
      "d": 173.6105729166593,
      "v": 110
    },
    {
      "midi": 67,
      "hit": false,
      "t": 198332.7185000007,
      "d": 173.6105729166593,
      "v": 103
    },
    {
      "midi": 48,
      "hit": false,
      "t": 198332.71850000223,
      "d": 114.08694791665766,
      "v": 78
    },
    {
      "midi": 48,
      "hit": false,
      "t": 198332.71850000322,
      "d": 173.6105729166593,
      "v": 70
    },
    {
      "midi": 60,
      "hit": false,
      "t": 198451.7657499998,
      "d": 9.920604166662088,
      "v": 103
    },
    {
      "midi": 64,
      "hit": false,
      "t": 198451.7657499998,
      "d": 9.920604166662088,
      "v": 103
    },
    {
      "midi": 48,
      "hit": false,
      "t": 198451.76575000223,
      "d": 114.08694791665766,
      "v": 78
    },
    {
      "midi": 36,
      "hit": false,
      "t": 198570.812999996,
      "d": 208.33268749999115,
      "v": 68
    },
    {
      "midi": 72,
      "hit": false,
      "t": 198570.81299999997,
      "d": 186.01132812499418,
      "v": 74
    },
    {
      "midi": 76,
      "hit": false,
      "t": 198570.81299999997,
      "d": 186.01132812499418,
      "v": 75
    },
    {
      "midi": 79,
      "hit": false,
      "t": 198570.81299999997,
      "d": 186.01132812499418,
      "v": 74
    },
    {
      "midi": 72,
      "hit": false,
      "t": 198570.8130000007,
      "d": 173.6105729166593,
      "v": 103
    },
    {
      "midi": 76,
      "hit": false,
      "t": 198570.8130000007,
      "d": 173.6105729166593,
      "v": 105
    },
    {
      "midi": 79,
      "hit": false,
      "t": 198570.8130000007,
      "d": 173.6105729166593,
      "v": 103
    },
    {
      "midi": 60,
      "hit": false,
      "t": 198570.8130000007,
      "d": 173.6105729166593,
      "v": 103
    },
    {
      "midi": 64,
      "hit": false,
      "t": 198570.8130000007,
      "d": 173.6105729166593,
      "v": 105
    },
    {
      "midi": 67,
      "hit": false,
      "t": 198570.8130000007,
      "d": 173.6105729166593,
      "v": 103
    },
    {
      "midi": 36,
      "hit": false,
      "t": 198570.81300000224,
      "d": 114.08694791665766,
      "v": 78
    },
    {
      "midi": 36,
      "hit": false,
      "t": 198570.81300000323,
      "d": 173.6105729166593,
      "v": 64
    },
    {
      "midi": 36,
      "hit": false,
      "t": 198689.86025000224,
      "d": 114.08694791665766,
      "v": 78
    },
    {
      "midi": 36,
      "hit": false,
      "t": 198808.90749999598,
      "d": 208.33268749999115,
      "v": 68
    },
    {
      "midi": 60,
      "hit": false,
      "t": 198808.9074999998,
      "d": 9.920604166662088,
      "v": 103
    },
    {
      "midi": 64,
      "hit": false,
      "t": 198808.9074999998,
      "d": 9.920604166662088,
      "v": 103
    },
    {
      "midi": 72,
      "hit": false,
      "t": 198808.90749999997,
      "d": 186.01132812499418,
      "v": 71
    },
    {
      "midi": 76,
      "hit": false,
      "t": 198808.90749999997,
      "d": 186.01132812499418,
      "v": 72
    },
    {
      "midi": 79,
      "hit": false,
      "t": 198808.90749999997,
      "d": 186.01132812499418,
      "v": 72
    },
    {
      "midi": 72,
      "hit": false,
      "t": 198808.9075000007,
      "d": 173.6105729166593,
      "v": 99
    },
    {
      "midi": 76,
      "hit": false,
      "t": 198808.9075000007,
      "d": 173.6105729166593,
      "v": 101
    },
    {
      "midi": 79,
      "hit": false,
      "t": 198808.9075000007,
      "d": 173.6105729166593,
      "v": 100
    },
    {
      "midi": 60,
      "hit": false,
      "t": 198808.9075000007,
      "d": 173.6105729166593,
      "v": 99
    },
    {
      "midi": 64,
      "hit": false,
      "t": 198808.9075000007,
      "d": 173.6105729166593,
      "v": 101
    },
    {
      "midi": 67,
      "hit": false,
      "t": 198808.9075000007,
      "d": 173.6105729166593,
      "v": 100
    },
    {
      "midi": 48,
      "hit": false,
      "t": 198808.90750000224,
      "d": 114.08694791665766,
      "v": 78
    },
    {
      "midi": 48,
      "hit": false,
      "t": 198808.90750000323,
      "d": 173.6105729166593,
      "v": 74
    },
    {
      "midi": 60,
      "hit": false,
      "t": 198927.9547499998,
      "d": 9.920604166662088,
      "v": 103
    },
    {
      "midi": 64,
      "hit": false,
      "t": 198927.9547499998,
      "d": 9.920604166662088,
      "v": 103
    },
    {
      "midi": 48,
      "hit": false,
      "t": 198927.95475000225,
      "d": 114.08694791665766,
      "v": 78
    },
    {
      "midi": 36,
      "hit": false,
      "t": 199047.00199999596,
      "d": 208.33268749999115,
      "v": 68
    },
    {
      "midi": 36,
      "hit": false,
      "t": 199047.00200000225,
      "d": 114.08694791665766,
      "v": 78
    },
    {
      "midi": 36,
      "hit": false,
      "t": 199047.00200000324,
      "d": 173.6105729166593,
      "v": 50
    },
    {
      "midi": 36,
      "hit": false,
      "t": 199166.04925000225,
      "d": 114.08694791665766,
      "v": 78
    },
    {
      "midi": 36,
      "hit": false,
      "t": 199285.09649999594,
      "d": 208.33268749999115,
      "v": 68
    },
    {
      "midi": 60,
      "hit": false,
      "t": 199285.0964999998,
      "d": 9.920604166662088,
      "v": 103
    },
    {
      "midi": 64,
      "hit": false,
      "t": 199285.0964999998,
      "d": 9.920604166662088,
      "v": 103
    },
    {
      "midi": 48,
      "hit": false,
      "t": 199285.09650000226,
      "d": 114.08694791665766,
      "v": 78
    },
    {
      "midi": 48,
      "hit": false,
      "t": 199285.09650000324,
      "d": 173.6105729166593,
      "v": 73
    },
    {
      "midi": 60,
      "hit": false,
      "t": 199404.1437499998,
      "d": 9.920604166662088,
      "v": 103
    },
    {
      "midi": 64,
      "hit": false,
      "t": 199404.1437499998,
      "d": 9.920604166662088,
      "v": 103
    },
    {
      "midi": 48,
      "hit": false,
      "t": 199404.14375000226,
      "d": 114.08694791665766,
      "v": 78
    },
    {
      "midi": 38,
      "hit": false,
      "t": 199523.19099999592,
      "d": 208.33268749999115,
      "v": 68
    },
    {
      "midi": 74,
      "hit": false,
      "t": 199523.19099999996,
      "d": 272.8166145833384,
      "v": 70
    },
    {
      "midi": 78,
      "hit": false,
      "t": 199523.19099999996,
      "d": 272.8166145833384,
      "v": 76
    },
    {
      "midi": 81,
      "hit": false,
      "t": 199523.19099999996,
      "d": 272.8166145833384,
      "v": 75
    },
    {
      "midi": 66,
      "hit": false,
      "t": 199523.19100000052,
      "d": 471.22869791666744,
      "v": 58
    },
    {
      "midi": 69,
      "hit": false,
      "t": 199523.19100000052,
      "d": 471.22869791666744,
      "v": 58
    },
    {
      "midi": 74,
      "hit": false,
      "t": 199523.19100000052,
      "d": 471.22869791666744,
      "v": 58
    },
    {
      "midi": 74,
      "hit": false,
      "t": 199523.1910000007,
      "d": 272.8166145833384,
      "v": 98
    },
    {
      "midi": 78,
      "hit": false,
      "t": 199523.1910000007,
      "d": 272.8166145833384,
      "v": 106
    },
    {
      "midi": 81,
      "hit": false,
      "t": 199523.1910000007,
      "d": 272.8166145833384,
      "v": 104
    },
    {
      "midi": 62,
      "hit": false,
      "t": 199523.1910000007,
      "d": 272.8166145833384,
      "v": 98
    },
    {
      "midi": 66,
      "hit": false,
      "t": 199523.1910000007,
      "d": 272.8166145833384,
      "v": 106
    },
    {
      "midi": 69,
      "hit": false,
      "t": 199523.1910000007,
      "d": 272.8166145833384,
      "v": 104
    },
    {
      "midi": 38,
      "hit": false,
      "t": 199523.19100000226,
      "d": 114.08694791665766,
      "v": 78
    },
    {
      "midi": 38,
      "hit": false,
      "t": 199523.19100000325,
      "d": 173.6105729166593,
      "v": 66
    },
    {
      "midi": 38,
      "hit": false,
      "t": 199642.23825000226,
      "d": 114.08694791665766,
      "v": 78
    },
    {
      "midi": 38,
      "hit": false,
      "t": 199761.2854999959,
      "d": 208.33268749999115,
      "v": 68
    },
    {
      "midi": 62,
      "hit": false,
      "t": 199761.28549999982,
      "d": 9.920604166662088,
      "v": 103
    },
    {
      "midi": 66,
      "hit": false,
      "t": 199761.28549999982,
      "d": 9.920604166662088,
      "v": 103
    },
    {
      "midi": 50,
      "hit": false,
      "t": 199761.28550000227,
      "d": 114.08694791665766,
      "v": 78
    },
    {
      "midi": 50,
      "hit": false,
      "t": 199761.28550000326,
      "d": 173.6105729166593,
      "v": 86
    },
    {
      "midi": 62,
      "hit": false,
      "t": 199880.33274999983,
      "d": 9.920604166662088,
      "v": 103
    },
    {
      "midi": 66,
      "hit": false,
      "t": 199880.33274999983,
      "d": 9.920604166662088,
      "v": 103
    },
    {
      "midi": 50,
      "hit": false,
      "t": 199880.33275000227,
      "d": 114.08694791665766,
      "v": 78
    },
    {
      "midi": 31,
      "hit": false,
      "t": 199999.37999999587,
      "d": 208.33268749999115,
      "v": 68
    },
    {
      "midi": 74,
      "hit": false,
      "t": 199999.37999999998,
      "d": 272.8166145833384,
      "v": 64
    },
    {
      "midi": 79,
      "hit": false,
      "t": 199999.37999999998,
      "d": 272.8166145833384,
      "v": 72
    },
    {
      "midi": 83,
      "hit": false,
      "t": 199999.37999999998,
      "d": 272.8166145833384,
      "v": 72
    },
    {
      "midi": 83,
      "hit": false,
      "t": 199999.38000000018,
      "d": 2.480151041672798,
      "v": 84
    },
    {
      "midi": 83,
      "hit": false,
      "t": 199999.38000000018,
      "d": 2.480151041672798,
      "v": 110
    },
    {
      "midi": 62,
      "hit": false,
      "t": 199999.38000000053,
      "d": 1899.7956979166775,
      "v": 58
    },
    {
      "midi": 67,
      "hit": false,
      "t": 199999.38000000053,
      "d": 1899.7956979166775,
      "v": 58
    },
    {
      "midi": 71,
      "hit": false,
      "t": 199999.38000000053,
      "d": 1899.7956979166775,
      "v": 58
    },
    {
      "midi": 74,
      "hit": false,
      "t": 199999.3800000007,
      "d": 272.8166145833384,
      "v": 90
    },
    {
      "midi": 79,
      "hit": false,
      "t": 199999.3800000007,
      "d": 272.8166145833384,
      "v": 100
    },
    {
      "midi": 83,
      "hit": false,
      "t": 199999.3800000007,
      "d": 272.8166145833384,
      "v": 100
    },
    {
      "midi": 62,
      "hit": false,
      "t": 199999.3800000007,
      "d": 272.8166145833384,
      "v": 90
    },
    {
      "midi": 67,
      "hit": false,
      "t": 199999.3800000007,
      "d": 272.8166145833384,
      "v": 100
    },
    {
      "midi": 71,
      "hit": false,
      "t": 199999.3800000007,
      "d": 272.8166145833384,
      "v": 100
    },
    {
      "midi": 43,
      "hit": false,
      "t": 199999.38000000227,
      "d": 114.08694791665766,
      "v": 78
    },
    {
      "midi": 31,
      "hit": false,
      "t": 199999.38000000326,
      "d": 173.6105729166593,
      "v": 76
    },
    {
      "midi": 83,
      "hit": false,
      "t": 200118.42725000018,
      "d": 2.480151041672798,
      "v": 91
    },
    {
      "midi": 83,
      "hit": false,
      "t": 200118.42725000018,
      "d": 2.480151041672798,
      "v": 110
    },
    {
      "midi": 43,
      "hit": false,
      "t": 200118.42725000228,
      "d": 114.08694791665766,
      "v": 78
    },
    {
      "midi": 31,
      "hit": false,
      "t": 200237.47449999585,
      "d": 208.33268749999115,
      "v": 68
    },
    {
      "midi": 67,
      "hit": false,
      "t": 200237.47449999984,
      "d": 9.920604166662088,
      "v": 103
    },
    {
      "midi": 71,
      "hit": false,
      "t": 200237.47449999984,
      "d": 9.920604166662088,
      "v": 103
    },
    {
      "midi": 83,
      "hit": false,
      "t": 200237.4745000002,
      "d": 2.480151041672798,
      "v": 88
    },
    {
      "midi": 83,
      "hit": false,
      "t": 200237.4745000002,
      "d": 2.480151041672798,
      "v": 110
    },
    {
      "midi": 55,
      "hit": false,
      "t": 200237.47450000228,
      "d": 114.08694791665766,
      "v": 78
    },
    {
      "midi": 43,
      "hit": false,
      "t": 200237.47450000327,
      "d": 173.6105729166593,
      "v": 82
    },
    {
      "midi": 67,
      "hit": false,
      "t": 200356.52174999984,
      "d": 9.920604166662088,
      "v": 103
    },
    {
      "midi": 71,
      "hit": false,
      "t": 200356.52174999984,
      "d": 9.920604166662088,
      "v": 103
    },
    {
      "midi": 83,
      "hit": false,
      "t": 200356.5217500002,
      "d": 2.480151041672798,
      "v": 91
    },
    {
      "midi": 83,
      "hit": false,
      "t": 200356.5217500002,
      "d": 2.480151041672798,
      "v": 110
    },
    {
      "midi": 55,
      "hit": false,
      "t": 200356.52175000228,
      "d": 114.08694791665766,
      "v": 78
    },
    {
      "midi": 31,
      "hit": false,
      "t": 200475.56899999583,
      "d": 208.33268749999115,
      "v": 68
    },
    {
      "midi": 83,
      "hit": false,
      "t": 200475.5690000002,
      "d": 2.480151041672798,
      "v": 87
    },
    {
      "midi": 83,
      "hit": false,
      "t": 200475.5690000002,
      "d": 2.480151041672798,
      "v": 110
    },
    {
      "midi": 43,
      "hit": false,
      "t": 200475.5690000023,
      "d": 114.08694791665766,
      "v": 78
    },
    {
      "midi": 31,
      "hit": false,
      "t": 200475.56900000328,
      "d": 173.6105729166593,
      "v": 62
    },
    {
      "midi": 83,
      "hit": false,
      "t": 200594.6162500002,
      "d": 2.480151041672798,
      "v": 87
    },
    {
      "midi": 83,
      "hit": false,
      "t": 200594.6162500002,
      "d": 2.480151041672798,
      "v": 110
    },
    {
      "midi": 43,
      "hit": false,
      "t": 200594.6162500023,
      "d": 114.08694791665766,
      "v": 78
    },
    {
      "midi": 31,
      "hit": false,
      "t": 200713.6634999958,
      "d": 208.33268749999115,
      "v": 68
    },
    {
      "midi": 67,
      "hit": false,
      "t": 200713.66349999985,
      "d": 9.920604166662088,
      "v": 103
    },
    {
      "midi": 71,
      "hit": false,
      "t": 200713.66349999985,
      "d": 9.920604166662088,
      "v": 103
    },
    {
      "midi": 83,
      "hit": false,
      "t": 200713.6635000002,
      "d": 2.480151041672798,
      "v": 89
    },
    {
      "midi": 83,
      "hit": false,
      "t": 200713.6635000002,
      "d": 2.480151041672798,
      "v": 110
    },
    {
      "midi": 55,
      "hit": false,
      "t": 200713.6635000023,
      "d": 114.08694791665766,
      "v": 78
    },
    {
      "midi": 43,
      "hit": false,
      "t": 200713.66350000328,
      "d": 173.6105729166593,
      "v": 78
    },
    {
      "midi": 67,
      "hit": false,
      "t": 200832.71074999985,
      "d": 9.920604166662088,
      "v": 103
    },
    {
      "midi": 71,
      "hit": false,
      "t": 200832.71074999985,
      "d": 9.920604166662088,
      "v": 103
    },
    {
      "midi": 83,
      "hit": false,
      "t": 200832.7107500002,
      "d": 2.480151041672798,
      "v": 91
    },
    {
      "midi": 83,
      "hit": false,
      "t": 200832.7107500002,
      "d": 2.480151041672798,
      "v": 110
    },
    {
      "midi": 55,
      "hit": false,
      "t": 200832.7107500023,
      "d": 114.08694791665766,
      "v": 78
    },
    {
      "midi": 31,
      "hit": false,
      "t": 200951.75799999578,
      "d": 208.33268749999115,
      "v": 68
    },
    {
      "midi": 83,
      "hit": false,
      "t": 200951.7580000002,
      "d": 2.480151041672798,
      "v": 91
    },
    {
      "midi": 83,
      "hit": false,
      "t": 200951.7580000002,
      "d": 2.480151041672798,
      "v": 110
    },
    {
      "midi": 43,
      "hit": false,
      "t": 200951.7580000023,
      "d": 114.08694791665766,
      "v": 78
    },
    {
      "midi": 31,
      "hit": false,
      "t": 200951.7580000033,
      "d": 173.6105729166593,
      "v": 67
    },
    {
      "midi": 83,
      "hit": false,
      "t": 201070.8052500002,
      "d": 2.480151041672798,
      "v": 92
    },
    {
      "midi": 83,
      "hit": false,
      "t": 201070.8052500002,
      "d": 2.480151041672798,
      "v": 110
    },
    {
      "midi": 43,
      "hit": false,
      "t": 201070.8052500023,
      "d": 114.08694791665766,
      "v": 78
    },
    {
      "midi": 31,
      "hit": false,
      "t": 201189.85249999576,
      "d": 208.33268749999115,
      "v": 68
    },
    {
      "midi": 67,
      "hit": false,
      "t": 201189.85249999986,
      "d": 9.920604166662088,
      "v": 103
    },
    {
      "midi": 71,
      "hit": false,
      "t": 201189.85249999986,
      "d": 9.920604166662088,
      "v": 103
    },
    {
      "midi": 83,
      "hit": false,
      "t": 201189.8525000002,
      "d": 2.480151041672798,
      "v": 96
    },
    {
      "midi": 83,
      "hit": false,
      "t": 201189.8525000002,
      "d": 2.480151041672798,
      "v": 110
    },
    {
      "midi": 55,
      "hit": false,
      "t": 201189.8525000023,
      "d": 114.08694791665766,
      "v": 78
    },
    {
      "midi": 43,
      "hit": false,
      "t": 201189.8525000033,
      "d": 173.6105729166593,
      "v": 70
    },
    {
      "midi": 67,
      "hit": false,
      "t": 201308.89974999987,
      "d": 9.920604166662088,
      "v": 103
    },
    {
      "midi": 71,
      "hit": false,
      "t": 201308.89974999987,
      "d": 9.920604166662088,
      "v": 103
    },
    {
      "midi": 83,
      "hit": false,
      "t": 201308.89975000022,
      "d": 2.480151041672798,
      "v": 92
    },
    {
      "midi": 83,
      "hit": false,
      "t": 201308.89975000022,
      "d": 2.480151041672798,
      "v": 110
    },
    {
      "midi": 55,
      "hit": false,
      "t": 201308.8997500023,
      "d": 114.08694791665766,
      "v": 78
    },
    {
      "midi": 31,
      "hit": false,
      "t": 201427.94699999574,
      "d": 208.33268749999115,
      "v": 68
    },
    {
      "midi": 83,
      "hit": false,
      "t": 201427.94700000022,
      "d": 2.480151041672798,
      "v": 96
    },
    {
      "midi": 83,
      "hit": false,
      "t": 201427.94700000022,
      "d": 2.480151041672798,
      "v": 110
    },
    {
      "midi": 43,
      "hit": false,
      "t": 201427.9470000023,
      "d": 114.08694791665766,
      "v": 78
    },
    {
      "midi": 31,
      "hit": false,
      "t": 201427.9470000033,
      "d": 173.6105729166593,
      "v": 56
    },
    {
      "midi": 83,
      "hit": false,
      "t": 201546.99425000022,
      "d": 2.480151041672798,
      "v": 96
    },
    {
      "midi": 83,
      "hit": false,
      "t": 201546.99425000022,
      "d": 2.480151041672798,
      "v": 110
    },
    {
      "midi": 43,
      "hit": false,
      "t": 201546.99425000232,
      "d": 114.08694791665766,
      "v": 78
    },
    {
      "midi": 31,
      "hit": false,
      "t": 201666.0414999957,
      "d": 208.33268749999115,
      "v": 68
    },
    {
      "midi": 67,
      "hit": false,
      "t": 201666.04149999988,
      "d": 9.920604166662088,
      "v": 103
    },
    {
      "midi": 71,
      "hit": false,
      "t": 201666.04149999988,
      "d": 9.920604166662088,
      "v": 103
    },
    {
      "midi": 83,
      "hit": false,
      "t": 201666.04150000022,
      "d": 2.480151041672798,
      "v": 98
    },
    {
      "midi": 83,
      "hit": false,
      "t": 201666.04150000022,
      "d": 2.480151041672798,
      "v": 110
    },
    {
      "midi": 55,
      "hit": false,
      "t": 201666.04150000232,
      "d": 114.08694791665766,
      "v": 78
    },
    {
      "midi": 43,
      "hit": false,
      "t": 201666.0415000033,
      "d": 173.6105729166593,
      "v": 70
    },
    {
      "midi": 67,
      "hit": false,
      "t": 201785.08874999988,
      "d": 9.920604166662088,
      "v": 103
    },
    {
      "midi": 71,
      "hit": false,
      "t": 201785.08874999988,
      "d": 9.920604166662088,
      "v": 103
    },
    {
      "midi": 83,
      "hit": false,
      "t": 201785.08875000023,
      "d": 2.480151041672798,
      "v": 101
    },
    {
      "midi": 83,
      "hit": false,
      "t": 201785.08875000023,
      "d": 2.480151041672798,
      "v": 110
    },
    {
      "midi": 55,
      "hit": false,
      "t": 201785.08875000232,
      "d": 114.08694791665766,
      "v": 78
    },
    {
      "midi": 38,
      "hit": false,
      "t": 201904.1359999957,
      "d": 208.33268749999115,
      "v": 68
    },
    {
      "midi": 74,
      "hit": false,
      "t": 201904.13599999997,
      "d": 186.01132812499418,
      "v": 54
    },
    {
      "midi": 78,
      "hit": false,
      "t": 201904.13599999997,
      "d": 186.01132812499418,
      "v": 57
    },
    {
      "midi": 81,
      "hit": false,
      "t": 201904.13599999997,
      "d": 186.01132812499418,
      "v": 49
    },
    {
      "midi": 62,
      "hit": false,
      "t": 201904.13600000055,
      "d": 1899.7956979166775,
      "v": 58
    },
    {
      "midi": 66,
      "hit": false,
      "t": 201904.13600000055,
      "d": 1899.7956979166775,
      "v": 58
    },
    {
      "midi": 69,
      "hit": false,
      "t": 201904.13600000055,
      "d": 1899.7956979166775,
      "v": 58
    },
    {
      "midi": 74,
      "hit": false,
      "t": 201904.1360000007,
      "d": 173.6105729166593,
      "v": 76
    },
    {
      "midi": 78,
      "hit": false,
      "t": 201904.1360000007,
      "d": 173.6105729166593,
      "v": 80
    },
    {
      "midi": 81,
      "hit": false,
      "t": 201904.1360000007,
      "d": 173.6105729166593,
      "v": 70
    },
    {
      "midi": 62,
      "hit": false,
      "t": 201904.1360000007,
      "d": 173.6105729166593,
      "v": 76
    },
    {
      "midi": 66,
      "hit": false,
      "t": 201904.1360000007,
      "d": 173.6105729166593,
      "v": 80
    },
    {
      "midi": 69,
      "hit": false,
      "t": 201904.1360000007,
      "d": 173.6105729166593,
      "v": 70
    },
    {
      "midi": 38,
      "hit": false,
      "t": 201904.13600000233,
      "d": 114.08694791665766,
      "v": 78
    },
    {
      "midi": 38,
      "hit": false,
      "t": 201904.13600000332,
      "d": 173.6105729166593,
      "v": 70
    },
    {
      "midi": 38,
      "hit": false,
      "t": 202023.18325000233,
      "d": 114.08694791665766,
      "v": 78
    },
    {
      "midi": 38,
      "hit": false,
      "t": 202142.23049999567,
      "d": 208.33268749999115,
      "v": 68
    },
    {
      "midi": 62,
      "hit": false,
      "t": 202142.2304999999,
      "d": 9.920604166662088,
      "v": 103
    },
    {
      "midi": 66,
      "hit": false,
      "t": 202142.2304999999,
      "d": 9.920604166662088,
      "v": 103
    },
    {
      "midi": 74,
      "hit": false,
      "t": 202142.23049999998,
      "d": 186.01132812499418,
      "v": 65
    },
    {
      "midi": 78,
      "hit": false,
      "t": 202142.23049999998,
      "d": 186.01132812499418,
      "v": 68
    },
    {
      "midi": 81,
      "hit": false,
      "t": 202142.23049999998,
      "d": 186.01132812499418,
      "v": 64
    },
    {
      "midi": 74,
      "hit": false,
      "t": 202142.2305000007,
      "d": 173.6105729166593,
      "v": 91
    },
    {
      "midi": 78,
      "hit": false,
      "t": 202142.2305000007,
      "d": 173.6105729166593,
      "v": 95
    },
    {
      "midi": 81,
      "hit": false,
      "t": 202142.2305000007,
      "d": 173.6105729166593,
      "v": 90
    },
    {
      "midi": 62,
      "hit": false,
      "t": 202142.2305000007,
      "d": 173.6105729166593,
      "v": 91
    },
    {
      "midi": 66,
      "hit": false,
      "t": 202142.2305000007,
      "d": 173.6105729166593,
      "v": 95
    },
    {
      "midi": 69,
      "hit": false,
      "t": 202142.2305000007,
      "d": 173.6105729166593,
      "v": 90
    },
    {
      "midi": 50,
      "hit": false,
      "t": 202142.23050000233,
      "d": 114.08694791665766,
      "v": 78
    },
    {
      "midi": 50,
      "hit": false,
      "t": 202142.23050000332,
      "d": 173.6105729166593,
      "v": 62
    },
    {
      "midi": 62,
      "hit": false,
      "t": 202261.2777499999,
      "d": 9.920604166662088,
      "v": 103
    },
    {
      "midi": 66,
      "hit": false,
      "t": 202261.2777499999,
      "d": 9.920604166662088,
      "v": 103
    },
    {
      "midi": 50,
      "hit": false,
      "t": 202261.27775000234,
      "d": 114.08694791665766,
      "v": 78
    },
    {
      "midi": 38,
      "hit": false,
      "t": 202380.32499999565,
      "d": 208.33268749999115,
      "v": 68
    },
    {
      "midi": 74,
      "hit": false,
      "t": 202380.32499999998,
      "d": 186.01132812499418,
      "v": 71
    },
    {
      "midi": 78,
      "hit": false,
      "t": 202380.32499999998,
      "d": 186.01132812499418,
      "v": 72
    },
    {
      "midi": 81,
      "hit": false,
      "t": 202380.32499999998,
      "d": 186.01132812499418,
      "v": 72
    },
    {
      "midi": 74,
      "hit": false,
      "t": 202380.3250000007,
      "d": 173.6105729166593,
      "v": 99
    },
    {
      "midi": 78,
      "hit": false,
      "t": 202380.3250000007,
      "d": 173.6105729166593,
      "v": 101
    },
    {
      "midi": 81,
      "hit": false,
      "t": 202380.3250000007,
      "d": 173.6105729166593,
      "v": 100
    },
    {
      "midi": 62,
      "hit": false,
      "t": 202380.3250000007,
      "d": 173.6105729166593,
      "v": 99
    },
    {
      "midi": 66,
      "hit": false,
      "t": 202380.3250000007,
      "d": 173.6105729166593,
      "v": 101
    },
    {
      "midi": 69,
      "hit": false,
      "t": 202380.3250000007,
      "d": 173.6105729166593,
      "v": 100
    },
    {
      "midi": 38,
      "hit": false,
      "t": 202380.32500000234,
      "d": 114.08694791665766,
      "v": 78
    },
    {
      "midi": 38,
      "hit": false,
      "t": 202380.32500000333,
      "d": 173.6105729166593,
      "v": 66
    },
    {
      "midi": 38,
      "hit": false,
      "t": 202499.37225000234,
      "d": 114.08694791665766,
      "v": 78
    },
    {
      "midi": 38,
      "hit": false,
      "t": 202618.41949999562,
      "d": 208.33268749999115,
      "v": 68
    },
    {
      "midi": 62,
      "hit": false,
      "t": 202618.4194999999,
      "d": 9.920604166662088,
      "v": 103
    },
    {
      "midi": 66,
      "hit": false,
      "t": 202618.4194999999,
      "d": 9.920604166662088,
      "v": 103
    },
    {
      "midi": 74,
      "hit": false,
      "t": 202618.4195,
      "d": 186.01132812499418,
      "v": 70
    },
    {
      "midi": 78,
      "hit": false,
      "t": 202618.4195,
      "d": 186.01132812499418,
      "v": 74
    },
    {
      "midi": 81,
      "hit": false,
      "t": 202618.4195,
      "d": 186.01132812499418,
      "v": 69
    },
    {
      "midi": 74,
      "hit": false,
      "t": 202618.41950000072,
      "d": 173.6105729166593,
      "v": 98
    },
    {
      "midi": 78,
      "hit": false,
      "t": 202618.41950000072,
      "d": 173.6105729166593,
      "v": 103
    },
    {
      "midi": 81,
      "hit": false,
      "t": 202618.41950000072,
      "d": 173.6105729166593,
      "v": 96
    },
    {
      "midi": 62,
      "hit": false,
      "t": 202618.41950000072,
      "d": 173.6105729166593,
      "v": 98
    },
    {
      "midi": 66,
      "hit": false,
      "t": 202618.41950000072,
      "d": 173.6105729166593,
      "v": 103
    },
    {
      "midi": 69,
      "hit": false,
      "t": 202618.41950000072,
      "d": 173.6105729166593,
      "v": 96
    },
    {
      "midi": 50,
      "hit": false,
      "t": 202618.41950000235,
      "d": 114.08694791665766,
      "v": 78
    },
    {
      "midi": 50,
      "hit": false,
      "t": 202618.41950000334,
      "d": 173.6105729166593,
      "v": 67
    },
    {
      "midi": 62,
      "hit": false,
      "t": 202737.4667499999,
      "d": 9.920604166662088,
      "v": 103
    },
    {
      "midi": 66,
      "hit": false,
      "t": 202737.4667499999,
      "d": 9.920604166662088,
      "v": 103
    },
    {
      "midi": 50,
      "hit": false,
      "t": 202737.46675000235,
      "d": 114.08694791665766,
      "v": 78
    },
    {
      "midi": 38,
      "hit": false,
      "t": 202856.5139999956,
      "d": 208.33268749999115,
      "v": 68
    },
    {
      "midi": 38,
      "hit": false,
      "t": 202856.51400000235,
      "d": 114.08694791665766,
      "v": 78
    },
    {
      "midi": 38,
      "hit": false,
      "t": 202856.51400000334,
      "d": 173.6105729166593,
      "v": 64
    },
    {
      "midi": 38,
      "hit": false,
      "t": 202975.56125000236,
      "d": 114.08694791665766,
      "v": 78
    },
    {
      "midi": 38,
      "hit": false,
      "t": 203094.60849999558,
      "d": 208.33268749999115,
      "v": 68
    },
    {
      "midi": 62,
      "hit": false,
      "t": 203094.60849999991,
      "d": 9.920604166662088,
      "v": 103
    },
    {
      "midi": 66,
      "hit": false,
      "t": 203094.60849999991,
      "d": 9.920604166662088,
      "v": 103
    },
    {
      "midi": 50,
      "hit": false,
      "t": 203094.60850000236,
      "d": 114.08694791665766,
      "v": 78
    },
    {
      "midi": 50,
      "hit": false,
      "t": 203094.60850000335,
      "d": 173.6105729166593,
      "v": 66
    },
    {
      "midi": 62,
      "hit": false,
      "t": 203213.65574999992,
      "d": 9.920604166662088,
      "v": 103
    },
    {
      "midi": 66,
      "hit": false,
      "t": 203213.65574999992,
      "d": 9.920604166662088,
      "v": 103
    },
    {
      "midi": 50,
      "hit": false,
      "t": 203213.65575000236,
      "d": 114.08694791665766,
      "v": 78
    },
    {
      "midi": 38,
      "hit": false,
      "t": 203332.70299999556,
      "d": 208.33268749999115,
      "v": 68
    },
    {
      "midi": 74,
      "hit": false,
      "t": 203332.70299999998,
      "d": 272.8166145833384,
      "v": 68
    },
    {
      "midi": 78,
      "hit": false,
      "t": 203332.70299999998,
      "d": 272.8166145833384,
      "v": 67
    },
    {
      "midi": 83,
      "hit": false,
      "t": 203332.70299999998,
      "d": 272.8166145833384,
      "v": 72
    },
    {
      "midi": 74,
      "hit": false,
      "t": 203332.7030000007,
      "d": 272.8166145833384,
      "v": 95
    },
    {
      "midi": 78,
      "hit": false,
      "t": 203332.7030000007,
      "d": 272.8166145833384,
      "v": 94
    },
    {
      "midi": 83,
      "hit": false,
      "t": 203332.7030000007,
      "d": 272.8166145833384,
      "v": 100
    },
    {
      "midi": 62,
      "hit": false,
      "t": 203332.7030000007,
      "d": 272.8166145833384,
      "v": 95
    },
    {
      "midi": 66,
      "hit": false,
      "t": 203332.7030000007,
      "d": 272.8166145833384,
      "v": 94
    },
    {
      "midi": 71,
      "hit": false,
      "t": 203332.7030000007,
      "d": 272.8166145833384,
      "v": 100
    },
    {
      "midi": 38,
      "hit": false,
      "t": 203332.70300000237,
      "d": 114.08694791665766,
      "v": 78
    },
    {
      "midi": 38,
      "hit": false,
      "t": 203332.70300000336,
      "d": 173.6105729166593,
      "v": 62
    },
    {
      "midi": 38,
      "hit": false,
      "t": 203451.75025000237,
      "d": 114.08694791665766,
      "v": 78
    },
    {
      "midi": 38,
      "hit": false,
      "t": 203570.79749999553,
      "d": 208.33268749999115,
      "v": 68
    },
    {
      "midi": 62,
      "hit": false,
      "t": 203570.79749999993,
      "d": 9.920604166662088,
      "v": 103
    },
    {
      "midi": 66,
      "hit": false,
      "t": 203570.79749999993,
      "d": 9.920604166662088,
      "v": 103
    },
    {
      "midi": 50,
      "hit": false,
      "t": 203570.79750000237,
      "d": 114.08694791665766,
      "v": 78
    },
    {
      "midi": 50,
      "hit": false,
      "t": 203570.79750000336,
      "d": 173.6105729166593,
      "v": 73
    },
    {
      "midi": 62,
      "hit": false,
      "t": 203689.84474999993,
      "d": 9.920604166662088,
      "v": 103
    },
    {
      "midi": 66,
      "hit": false,
      "t": 203689.84474999993,
      "d": 9.920604166662088,
      "v": 103
    },
    {
      "midi": 50,
      "hit": false,
      "t": 203689.84475000238,
      "d": 114.08694791665766,
      "v": 78
    },
    {
      "midi": 40,
      "hit": false,
      "t": 203808.8919999955,
      "d": 208.33268749999115,
      "v": 68
    },
    {
      "midi": 71,
      "hit": false,
      "t": 203808.892,
      "d": 272.8166145833384,
      "v": 63
    },
    {
      "midi": 76,
      "hit": false,
      "t": 203808.892,
      "d": 272.8166145833384,
      "v": 74
    },
    {
      "midi": 79,
      "hit": false,
      "t": 203808.892,
      "d": 272.8166145833384,
      "v": 75
    },
    {
      "midi": 64,
      "hit": false,
      "t": 203808.89200000057,
      "d": 947.4176979166805,
      "v": 58
    },
    {
      "midi": 67,
      "hit": false,
      "t": 203808.89200000057,
      "d": 1899.7956979167066,
      "v": 58
    },
    {
      "midi": 71,
      "hit": false,
      "t": 203808.89200000057,
      "d": 1899.7956979167066,
      "v": 58
    },
    {
      "midi": 71,
      "hit": false,
      "t": 203808.89200000072,
      "d": 272.8166145833384,
      "v": 88
    },
    {
      "midi": 76,
      "hit": false,
      "t": 203808.89200000072,
      "d": 272.8166145833384,
      "v": 103
    },
    {
      "midi": 79,
      "hit": false,
      "t": 203808.89200000072,
      "d": 272.8166145833384,
      "v": 105
    },
    {
      "midi": 59,
      "hit": false,
      "t": 203808.89200000072,
      "d": 272.8166145833384,
      "v": 88
    },
    {
      "midi": 64,
      "hit": false,
      "t": 203808.89200000072,
      "d": 272.8166145833384,
      "v": 103
    },
    {
      "midi": 67,
      "hit": false,
      "t": 203808.89200000072,
      "d": 272.8166145833384,
      "v": 105
    },
    {
      "midi": 40,
      "hit": false,
      "t": 203808.89200000238,
      "d": 114.08694791665766,
      "v": 78
    },
    {
      "midi": 40,
      "hit": false,
      "t": 203808.89200000337,
      "d": 173.6105729166593,
      "v": 73
    },
    {
      "midi": 40,
      "hit": false,
      "t": 203927.93925000238,
      "d": 114.08694791665766,
      "v": 78
    },
    {
      "midi": 40,
      "hit": false,
      "t": 204046.9864999955,
      "d": 208.33268749999115,
      "v": 68
    },
    {
      "midi": 64,
      "hit": false,
      "t": 204046.98649999994,
      "d": 9.920604166662088,
      "v": 103
    },
    {
      "midi": 67,
      "hit": false,
      "t": 204046.98649999994,
      "d": 9.920604166662088,
      "v": 103
    },
    {
      "midi": 52,
      "hit": false,
      "t": 204046.9865000024,
      "d": 114.08694791665766,
      "v": 78
    },
    {
      "midi": 52,
      "hit": false,
      "t": 204046.98650000338,
      "d": 173.6105729166593,
      "v": 64
    },
    {
      "midi": 64,
      "hit": false,
      "t": 204166.03374999994,
      "d": 9.920604166662088,
      "v": 103
    },
    {
      "midi": 67,
      "hit": false,
      "t": 204166.03374999994,
      "d": 9.920604166662088,
      "v": 103
    },
    {
      "midi": 52,
      "hit": false,
      "t": 204166.0337500024,
      "d": 114.08694791665766,
      "v": 78
    },
    {
      "midi": 40,
      "hit": false,
      "t": 204285.08099999547,
      "d": 208.33268749999115,
      "v": 68
    },
    {
      "midi": 40,
      "hit": false,
      "t": 204285.0810000024,
      "d": 114.08694791665766,
      "v": 78
    },
    {
      "midi": 40,
      "hit": false,
      "t": 204285.08100000338,
      "d": 173.6105729166593,
      "v": 62
    },
    {
      "midi": 40,
      "hit": false,
      "t": 204404.1282500024,
      "d": 114.08694791665766,
      "v": 78
    },
    {
      "midi": 40,
      "hit": false,
      "t": 204523.17549999544,
      "d": 208.33268749999115,
      "v": 68
    },
    {
      "midi": 64,
      "hit": false,
      "t": 204523.17549999995,
      "d": 9.920604166662088,
      "v": 103
    },
    {
      "midi": 67,
      "hit": false,
      "t": 204523.17549999995,
      "d": 9.920604166662088,
      "v": 103
    },
    {
      "midi": 52,
      "hit": false,
      "t": 204523.1755000024,
      "d": 114.08694791665766,
      "v": 78
    },
    {
      "midi": 52,
      "hit": false,
      "t": 204523.1755000034,
      "d": 173.6105729166593,
      "v": 80
    },
    {
      "midi": 64,
      "hit": false,
      "t": 204642.22274999996,
      "d": 9.920604166662088,
      "v": 103
    },
    {
      "midi": 67,
      "hit": false,
      "t": 204642.22274999996,
      "d": 9.920604166662088,
      "v": 103
    },
    {
      "midi": 52,
      "hit": false,
      "t": 204642.2227500024,
      "d": 114.08694791665766,
      "v": 78
    },
    {
      "midi": 38,
      "hit": false,
      "t": 204761.26999999542,
      "d": 208.33268749999115,
      "v": 68
    },
    {
      "midi": 62,
      "hit": false,
      "t": 204761.2700000006,
      "d": 947.4176979166805,
      "v": 58
    },
    {
      "midi": 38,
      "hit": false,
      "t": 204761.2700000024,
      "d": 114.08694791665766,
      "v": 78
    },
    {
      "midi": 38,
      "hit": false,
      "t": 204761.2700000034,
      "d": 173.6105729166593,
      "v": 58
    },
    {
      "midi": 38,
      "hit": false,
      "t": 204880.3172500024,
      "d": 114.08694791665766,
      "v": 78
    },
    {
      "midi": 38,
      "hit": false,
      "t": 204999.3644999954,
      "d": 208.33268749999115,
      "v": 68
    },
    {
      "midi": 62,
      "hit": false,
      "t": 204999.36449999997,
      "d": 9.920604166662088,
      "v": 103
    },
    {
      "midi": 66,
      "hit": false,
      "t": 204999.36449999997,
      "d": 9.920604166662088,
      "v": 103
    },
    {
      "midi": 50,
      "hit": false,
      "t": 204999.3645000024,
      "d": 114.08694791665766,
      "v": 78
    },
    {
      "midi": 50,
      "hit": false,
      "t": 204999.3645000034,
      "d": 173.6105729166593,
      "v": 72
    },
    {
      "midi": 62,
      "hit": false,
      "t": 205118.41174999997,
      "d": 9.920604166662088,
      "v": 103
    },
    {
      "midi": 66,
      "hit": false,
      "t": 205118.41174999997,
      "d": 9.920604166662088,
      "v": 103
    },
    {
      "midi": 50,
      "hit": false,
      "t": 205118.41175000241,
      "d": 114.08694791665766,
      "v": 78
    },
    {
      "midi": 38,
      "hit": false,
      "t": 205237.45899999538,
      "d": 208.33268749999115,
      "v": 68
    },
    {
      "midi": 38,
      "hit": false,
      "t": 205237.45900000242,
      "d": 114.08694791665766,
      "v": 78
    },
    {
      "midi": 38,
      "hit": false,
      "t": 205237.4590000034,
      "d": 173.6105729166593,
      "v": 59
    },
    {
      "midi": 38,
      "hit": false,
      "t": 205356.50625000242,
      "d": 114.08694791665766,
      "v": 78
    },
    {
      "midi": 38,
      "hit": false,
      "t": 205475.55349999535,
      "d": 208.33268749999115,
      "v": 68
    },
    {
      "midi": 62,
      "hit": false,
      "t": 205475.55349999998,
      "d": 9.920604166662088,
      "v": 103
    },
    {
      "midi": 66,
      "hit": false,
      "t": 205475.55349999998,
      "d": 9.920604166662088,
      "v": 103
    },
    {
      "midi": 50,
      "hit": false,
      "t": 205475.55350000242,
      "d": 114.08694791665766,
      "v": 78
    },
    {
      "midi": 50,
      "hit": false,
      "t": 205475.5535000034,
      "d": 173.6105729166593,
      "v": 70
    },
    {
      "midi": 62,
      "hit": false,
      "t": 205594.60074999998,
      "d": 9.920604166662088,
      "v": 103
    },
    {
      "midi": 66,
      "hit": false,
      "t": 205594.60074999998,
      "d": 9.920604166662088,
      "v": 103
    },
    {
      "midi": 50,
      "hit": false,
      "t": 205594.60075000243,
      "d": 114.08694791665766,
      "v": 78
    },
    {
      "midi": 36,
      "hit": false,
      "t": 205713.64799999533,
      "d": 208.33268749999115,
      "v": 68
    },
    {
      "midi": 72,
      "hit": false,
      "t": 205713.648,
      "d": 186.01132812499418,
      "v": 59
    },
    {
      "midi": 76,
      "hit": false,
      "t": 205713.648,
      "d": 186.01132812499418,
      "v": 66
    },
    {
      "midi": 79,
      "hit": false,
      "t": 205713.648,
      "d": 186.01132812499418,
      "v": 67
    },
    {
      "midi": 64,
      "hit": false,
      "t": 205713.64800000063,
      "d": 1423.6066979166644,
      "v": 58
    },
    {
      "midi": 67,
      "hit": false,
      "t": 205713.64800000063,
      "d": 1423.6066979166644,
      "v": 58
    },
    {
      "midi": 72,
      "hit": false,
      "t": 205713.64800000063,
      "d": 1423.6066979166644,
      "v": 58
    },
    {
      "midi": 72,
      "hit": false,
      "t": 205713.6480000007,
      "d": 173.6105729166593,
      "v": 83
    },
    {
      "midi": 76,
      "hit": false,
      "t": 205713.6480000007,
      "d": 173.6105729166593,
      "v": 93
    },
    {
      "midi": 79,
      "hit": false,
      "t": 205713.6480000007,
      "d": 173.6105729166593,
      "v": 94
    },
    {
      "midi": 60,
      "hit": false,
      "t": 205713.6480000007,
      "d": 173.6105729166593,
      "v": 83
    },
    {
      "midi": 64,
      "hit": false,
      "t": 205713.6480000007,
      "d": 173.6105729166593,
      "v": 93
    },
    {
      "midi": 67,
      "hit": false,
      "t": 205713.6480000007,
      "d": 173.6105729166593,
      "v": 94
    },
    {
      "midi": 36,
      "hit": false,
      "t": 205713.64800000243,
      "d": 114.08694791665766,
      "v": 78
    },
    {
      "midi": 36,
      "hit": false,
      "t": 205713.64800000342,
      "d": 173.6105729166593,
      "v": 74
    },
    {
      "midi": 36,
      "hit": false,
      "t": 205832.69525000243,
      "d": 114.08694791665766,
      "v": 78
    },
    {
      "midi": 36,
      "hit": false,
      "t": 205951.7424999953,
      "d": 208.33268749999115,
      "v": 68
    },
    {
      "midi": 72,
      "hit": false,
      "t": 205951.7425,
      "d": 186.01132812499418,
      "v": 71
    },
    {
      "midi": 76,
      "hit": false,
      "t": 205951.7425,
      "d": 186.01132812499418,
      "v": 79
    },
    {
      "midi": 79,
      "hit": false,
      "t": 205951.7425,
      "d": 186.01132812499418,
      "v": 74
    },
    {
      "midi": 60,
      "hit": false,
      "t": 205951.7425,
      "d": 9.920604166662088,
      "v": 103
    },
    {
      "midi": 64,
      "hit": false,
      "t": 205951.7425,
      "d": 9.920604166662088,
      "v": 103
    },
    {
      "midi": 72,
      "hit": false,
      "t": 205951.74250000072,
      "d": 173.6105729166593,
      "v": 99
    },
    {
      "midi": 76,
      "hit": false,
      "t": 205951.74250000072,
      "d": 173.6105729166593,
      "v": 110
    },
    {
      "midi": 79,
      "hit": false,
      "t": 205951.74250000072,
      "d": 173.6105729166593,
      "v": 103
    },
    {
      "midi": 60,
      "hit": false,
      "t": 205951.74250000072,
      "d": 173.6105729166593,
      "v": 99
    },
    {
      "midi": 64,
      "hit": false,
      "t": 205951.74250000072,
      "d": 173.6105729166593,
      "v": 110
    },
    {
      "midi": 67,
      "hit": false,
      "t": 205951.74250000072,
      "d": 173.6105729166593,
      "v": 103
    },
    {
      "midi": 48,
      "hit": false,
      "t": 205951.74250000244,
      "d": 114.08694791665766,
      "v": 78
    },
    {
      "midi": 48,
      "hit": false,
      "t": 205951.74250000343,
      "d": 173.6105729166593,
      "v": 70
    },
    {
      "midi": 60,
      "hit": false,
      "t": 206070.78975,
      "d": 9.920604166662088,
      "v": 103
    },
    {
      "midi": 64,
      "hit": false,
      "t": 206070.78975,
      "d": 9.920604166662088,
      "v": 103
    },
    {
      "midi": 48,
      "hit": false,
      "t": 206070.78975000244,
      "d": 114.08694791665766,
      "v": 78
    },
    {
      "midi": 36,
      "hit": false,
      "t": 206189.83699999528,
      "d": 208.33268749999115,
      "v": 68
    },
    {
      "midi": 72,
      "hit": false,
      "t": 206189.837,
      "d": 186.01132812499418,
      "v": 74
    },
    {
      "midi": 76,
      "hit": false,
      "t": 206189.837,
      "d": 186.01132812499418,
      "v": 75
    },
    {
      "midi": 79,
      "hit": false,
      "t": 206189.837,
      "d": 186.01132812499418,
      "v": 74
    },
    {
      "midi": 72,
      "hit": false,
      "t": 206189.83700000073,
      "d": 173.6105729166593,
      "v": 103
    },
    {
      "midi": 76,
      "hit": false,
      "t": 206189.83700000073,
      "d": 173.6105729166593,
      "v": 105
    },
    {
      "midi": 79,
      "hit": false,
      "t": 206189.83700000073,
      "d": 173.6105729166593,
      "v": 103
    },
    {
      "midi": 60,
      "hit": false,
      "t": 206189.83700000073,
      "d": 173.6105729166593,
      "v": 103
    },
    {
      "midi": 64,
      "hit": false,
      "t": 206189.83700000073,
      "d": 173.6105729166593,
      "v": 105
    },
    {
      "midi": 67,
      "hit": false,
      "t": 206189.83700000073,
      "d": 173.6105729166593,
      "v": 103
    },
    {
      "midi": 36,
      "hit": false,
      "t": 206189.83700000244,
      "d": 114.08694791665766,
      "v": 78
    },
    {
      "midi": 36,
      "hit": false,
      "t": 206189.83700000343,
      "d": 173.6105729166593,
      "v": 64
    },
    {
      "midi": 36,
      "hit": false,
      "t": 206308.88425000245,
      "d": 114.08694791665766,
      "v": 78
    },
    {
      "midi": 36,
      "hit": false,
      "t": 206427.93149999526,
      "d": 208.33268749999115,
      "v": 68
    },
    {
      "midi": 72,
      "hit": false,
      "t": 206427.9315,
      "d": 186.01132812499418,
      "v": 71
    },
    {
      "midi": 76,
      "hit": false,
      "t": 206427.9315,
      "d": 186.01132812499418,
      "v": 72
    },
    {
      "midi": 79,
      "hit": false,
      "t": 206427.9315,
      "d": 186.01132812499418,
      "v": 72
    },
    {
      "midi": 60,
      "hit": false,
      "t": 206427.9315,
      "d": 9.920604166662088,
      "v": 103
    },
    {
      "midi": 64,
      "hit": false,
      "t": 206427.9315,
      "d": 9.920604166662088,
      "v": 103
    },
    {
      "midi": 72,
      "hit": false,
      "t": 206427.93150000073,
      "d": 173.6105729166593,
      "v": 99
    },
    {
      "midi": 76,
      "hit": false,
      "t": 206427.93150000073,
      "d": 173.6105729166593,
      "v": 101
    },
    {
      "midi": 79,
      "hit": false,
      "t": 206427.93150000073,
      "d": 173.6105729166593,
      "v": 100
    },
    {
      "midi": 60,
      "hit": false,
      "t": 206427.93150000073,
      "d": 173.6105729166593,
      "v": 99
    },
    {
      "midi": 64,
      "hit": false,
      "t": 206427.93150000073,
      "d": 173.6105729166593,
      "v": 101
    },
    {
      "midi": 67,
      "hit": false,
      "t": 206427.93150000073,
      "d": 173.6105729166593,
      "v": 100
    },
    {
      "midi": 48,
      "hit": false,
      "t": 206427.93150000245,
      "d": 114.08694791665766,
      "v": 78
    },
    {
      "midi": 48,
      "hit": false,
      "t": 206427.93150000344,
      "d": 173.6105729166593,
      "v": 74
    },
    {
      "midi": 60,
      "hit": false,
      "t": 206546.97875,
      "d": 9.920604166662088,
      "v": 103
    },
    {
      "midi": 64,
      "hit": false,
      "t": 206546.97875,
      "d": 9.920604166662088,
      "v": 103
    },
    {
      "midi": 48,
      "hit": false,
      "t": 206546.97875000245,
      "d": 114.08694791665766,
      "v": 78
    },
    {
      "midi": 36,
      "hit": false,
      "t": 206666.02599999524,
      "d": 208.33268749999115,
      "v": 68
    },
    {
      "midi": 36,
      "hit": false,
      "t": 206666.02600000246,
      "d": 114.08694791665766,
      "v": 78
    },
    {
      "midi": 36,
      "hit": false,
      "t": 206666.02600000345,
      "d": 173.6105729166593,
      "v": 50
    },
    {
      "midi": 36,
      "hit": false,
      "t": 206785.07325000246,
      "d": 114.08694791665766,
      "v": 78
    },
    {
      "midi": 36,
      "hit": false,
      "t": 206904.12049999522,
      "d": 208.33268749999115,
      "v": 68
    },
    {
      "midi": 60,
      "hit": false,
      "t": 206904.12050000002,
      "d": 9.920604166662088,
      "v": 103
    },
    {
      "midi": 64,
      "hit": false,
      "t": 206904.12050000002,
      "d": 9.920604166662088,
      "v": 103
    },
    {
      "midi": 48,
      "hit": false,
      "t": 206904.12050000246,
      "d": 114.08694791665766,
      "v": 78
    },
    {
      "midi": 48,
      "hit": false,
      "t": 206904.12050000345,
      "d": 173.6105729166593,
      "v": 73
    },
    {
      "midi": 60,
      "hit": false,
      "t": 207023.16775000002,
      "d": 9.920604166662088,
      "v": 103
    },
    {
      "midi": 64,
      "hit": false,
      "t": 207023.16775000002,
      "d": 9.920604166662088,
      "v": 103
    },
    {
      "midi": 48,
      "hit": false,
      "t": 207023.16775000247,
      "d": 114.08694791665766,
      "v": 78
    },
    {
      "midi": 38,
      "hit": false,
      "t": 207142.2149999952,
      "d": 208.33268749999115,
      "v": 68
    },
    {
      "midi": 74,
      "hit": false,
      "t": 207142.215,
      "d": 272.8166145833384,
      "v": 70
    },
    {
      "midi": 78,
      "hit": false,
      "t": 207142.215,
      "d": 272.8166145833384,
      "v": 76
    },
    {
      "midi": 81,
      "hit": false,
      "t": 207142.215,
      "d": 272.8166145833384,
      "v": 75
    },
    {
      "midi": 66,
      "hit": false,
      "t": 207142.21500000064,
      "d": 471.22869791666744,
      "v": 58
    },
    {
      "midi": 69,
      "hit": false,
      "t": 207142.21500000064,
      "d": 471.22869791666744,
      "v": 58
    },
    {
      "midi": 74,
      "hit": false,
      "t": 207142.21500000064,
      "d": 471.22869791666744,
      "v": 58
    },
    {
      "midi": 74,
      "hit": false,
      "t": 207142.21500000072,
      "d": 272.8166145833384,
      "v": 98
    },
    {
      "midi": 78,
      "hit": false,
      "t": 207142.21500000072,
      "d": 272.8166145833384,
      "v": 106
    },
    {
      "midi": 81,
      "hit": false,
      "t": 207142.21500000072,
      "d": 272.8166145833384,
      "v": 104
    },
    {
      "midi": 62,
      "hit": false,
      "t": 207142.21500000072,
      "d": 272.8166145833384,
      "v": 98
    },
    {
      "midi": 66,
      "hit": false,
      "t": 207142.21500000072,
      "d": 272.8166145833384,
      "v": 106
    },
    {
      "midi": 69,
      "hit": false,
      "t": 207142.21500000072,
      "d": 272.8166145833384,
      "v": 104
    },
    {
      "midi": 38,
      "hit": false,
      "t": 207142.21500000247,
      "d": 114.08694791665766,
      "v": 78
    },
    {
      "midi": 38,
      "hit": false,
      "t": 207142.21500000346,
      "d": 173.6105729166593,
      "v": 66
    },
    {
      "midi": 38,
      "hit": false,
      "t": 207261.26225000247,
      "d": 114.08694791665766,
      "v": 78
    },
    {
      "midi": 38,
      "hit": false,
      "t": 207380.30949999517,
      "d": 208.33268749999115,
      "v": 68
    },
    {
      "midi": 62,
      "hit": false,
      "t": 207380.30950000003,
      "d": 9.920604166662088,
      "v": 103
    },
    {
      "midi": 66,
      "hit": false,
      "t": 207380.30950000003,
      "d": 9.920604166662088,
      "v": 103
    },
    {
      "midi": 50,
      "hit": false,
      "t": 207380.30950000248,
      "d": 114.08694791665766,
      "v": 78
    },
    {
      "midi": 50,
      "hit": false,
      "t": 207380.30950000347,
      "d": 173.6105729166593,
      "v": 86
    },
    {
      "midi": 62,
      "hit": false,
      "t": 207499.35675000004,
      "d": 9.920604166662088,
      "v": 103
    },
    {
      "midi": 66,
      "hit": false,
      "t": 207499.35675000004,
      "d": 9.920604166662088,
      "v": 103
    },
    {
      "midi": 50,
      "hit": false,
      "t": 207499.35675000248,
      "d": 114.08694791665766,
      "v": 78
    },
    {
      "midi": 38,
      "hit": false,
      "t": 207618.40399999515,
      "d": 208.33268749999115,
      "v": 68
    },
    {
      "midi": 66,
      "hit": false,
      "t": 207618.4040000001,
      "d": 1899.7956979166775,
      "v": 88
    },
    {
      "midi": 74,
      "hit": false,
      "t": 207618.4040000001,
      "d": 1899.7956979166775,
      "v": 88
    },
    {
      "midi": 50,
      "hit": false,
      "t": 207618.40400000065,
      "d": 1899.7956979166775,
      "v": 88
    },
    {
      "midi": 66,
      "hit": false,
      "t": 207618.40400000065,
      "d": 1899.7956979166775,
      "v": 58
    },
    {
      "midi": 69,
      "hit": false,
      "t": 207618.40400000065,
      "d": 1899.7956979166775,
      "v": 58
    },
    {
      "midi": 74,
      "hit": false,
      "t": 207618.40400000065,
      "d": 1899.7956979166775,
      "v": 58
    },
    {
      "midi": 38,
      "hit": false,
      "t": 207618.40400000248,
      "d": 114.08694791665766,
      "v": 78
    },
    {
      "midi": 38,
      "hit": false,
      "t": 207618.40400000347,
      "d": 173.6105729166593,
      "v": 70
    },
    {
      "midi": 38,
      "hit": false,
      "t": 207737.4512500025,
      "d": 114.08694791665766,
      "v": 78
    },
    {
      "midi": 38,
      "hit": false,
      "t": 207856.49849999513,
      "d": 208.33268749999115,
      "v": 68
    },
    {
      "midi": 62,
      "hit": false,
      "t": 207856.49850000005,
      "d": 9.920604166662088,
      "v": 103
    },
    {
      "midi": 66,
      "hit": false,
      "t": 207856.49850000005,
      "d": 9.920604166662088,
      "v": 103
    },
    {
      "midi": 50,
      "hit": false,
      "t": 207856.4985000025,
      "d": 114.08694791665766,
      "v": 78
    },
    {
      "midi": 50,
      "hit": false,
      "t": 207856.49850000348,
      "d": 173.6105729166593,
      "v": 62
    },
    {
      "midi": 62,
      "hit": false,
      "t": 207975.54575000005,
      "d": 9.920604166662088,
      "v": 103
    },
    {
      "midi": 66,
      "hit": false,
      "t": 207975.54575000005,
      "d": 9.920604166662088,
      "v": 103
    },
    {
      "midi": 50,
      "hit": false,
      "t": 207975.5457500025,
      "d": 114.08694791665766,
      "v": 78
    },
    {
      "midi": 38,
      "hit": false,
      "t": 208094.5929999951,
      "d": 208.33268749999115,
      "v": 68
    },
    {
      "midi": 38,
      "hit": false,
      "t": 208094.5930000025,
      "d": 114.08694791665766,
      "v": 78
    },
    {
      "midi": 38,
      "hit": false,
      "t": 208094.5930000035,
      "d": 173.6105729166593,
      "v": 66
    },
    {
      "midi": 38,
      "hit": false,
      "t": 208213.6402500025,
      "d": 114.08694791665766,
      "v": 78
    },
    {
      "midi": 38,
      "hit": false,
      "t": 208332.68749999508,
      "d": 208.33268749999115,
      "v": 68
    },
    {
      "midi": 62,
      "hit": false,
      "t": 208332.68750000006,
      "d": 9.920604166662088,
      "v": 103
    },
    {
      "midi": 66,
      "hit": false,
      "t": 208332.68750000006,
      "d": 9.920604166662088,
      "v": 103
    },
    {
      "midi": 50,
      "hit": false,
      "t": 208332.6875000025,
      "d": 114.08694791665766,
      "v": 78
    },
    {
      "midi": 50,
      "hit": false,
      "t": 208332.6875000035,
      "d": 173.6105729166593,
      "v": 67
    },
    {
      "midi": 62,
      "hit": false,
      "t": 208451.73475000006,
      "d": 9.920604166662088,
      "v": 103
    },
    {
      "midi": 66,
      "hit": false,
      "t": 208451.73475000006,
      "d": 9.920604166662088,
      "v": 103
    },
    {
      "midi": 50,
      "hit": false,
      "t": 208451.7347500025,
      "d": 114.08694791665766,
      "v": 78
    },
    {
      "midi": 38,
      "hit": false,
      "t": 208570.78199999506,
      "d": 208.33268749999115,
      "v": 68
    },
    {
      "midi": 38,
      "hit": false,
      "t": 208570.7820000025,
      "d": 114.08694791665766,
      "v": 78
    },
    {
      "midi": 38,
      "hit": false,
      "t": 208570.7820000035,
      "d": 173.6105729166593,
      "v": 64
    },
    {
      "midi": 38,
      "hit": false,
      "t": 208689.8292500025,
      "d": 114.08694791665766,
      "v": 78
    },
    {
      "midi": 38,
      "hit": false,
      "t": 208808.87649999504,
      "d": 208.33268749999115,
      "v": 68
    },
    {
      "midi": 62,
      "hit": false,
      "t": 208808.87650000007,
      "d": 9.920604166662088,
      "v": 103
    },
    {
      "midi": 66,
      "hit": false,
      "t": 208808.87650000007,
      "d": 9.920604166662088,
      "v": 103
    },
    {
      "midi": 50,
      "hit": false,
      "t": 208808.87650000252,
      "d": 114.08694791665766,
      "v": 78
    },
    {
      "midi": 50,
      "hit": false,
      "t": 208808.8765000035,
      "d": 173.6105729166593,
      "v": 66
    },
    {
      "midi": 62,
      "hit": false,
      "t": 208927.92375000007,
      "d": 9.920604166662088,
      "v": 103
    },
    {
      "midi": 66,
      "hit": false,
      "t": 208927.92375000007,
      "d": 9.920604166662088,
      "v": 103
    },
    {
      "midi": 50,
      "hit": false,
      "t": 208927.92375000252,
      "d": 114.08694791665766,
      "v": 78
    },
    {
      "midi": 38,
      "hit": false,
      "t": 209046.970999995,
      "d": 208.33268749999115,
      "v": 68
    },
    {
      "midi": 38,
      "hit": false,
      "t": 209046.97100000252,
      "d": 114.08694791665766,
      "v": 78
    },
    {
      "midi": 38,
      "hit": false,
      "t": 209046.9710000035,
      "d": 173.6105729166593,
      "v": 62
    },
    {
      "midi": 38,
      "hit": false,
      "t": 209166.01825000253,
      "d": 114.08694791665766,
      "v": 78
    },
    {
      "midi": 38,
      "hit": false,
      "t": 209285.065499995,
      "d": 208.33268749999115,
      "v": 68
    },
    {
      "midi": 62,
      "hit": false,
      "t": 209285.06550000008,
      "d": 9.920604166662088,
      "v": 103
    },
    {
      "midi": 66,
      "hit": false,
      "t": 209285.06550000008,
      "d": 9.920604166662088,
      "v": 103
    },
    {
      "midi": 50,
      "hit": false,
      "t": 209285.06550000253,
      "d": 114.08694791665766,
      "v": 78
    },
    {
      "midi": 50,
      "hit": false,
      "t": 209285.06550000352,
      "d": 173.6105729166593,
      "v": 73
    },
    {
      "midi": 62,
      "hit": false,
      "t": 209404.1127500001,
      "d": 9.920604166662088,
      "v": 103
    },
    {
      "midi": 66,
      "hit": false,
      "t": 209404.1127500001,
      "d": 9.920604166662088,
      "v": 103
    },
    {
      "midi": 50,
      "hit": false,
      "t": 209404.11275000253,
      "d": 114.08694791665766,
      "v": 78
    },
    {
      "midi": 31,
      "hit": false,
      "t": 209523.15999999497,
      "d": 208.33268749999115,
      "v": 68
    },
    {
      "midi": 62,
      "hit": false,
      "t": 209523.16000000067,
      "d": 1899.795697916561,
      "v": 58
    },
    {
      "midi": 67,
      "hit": false,
      "t": 209523.16000000067,
      "d": 1899.795697916561,
      "v": 58
    },
    {
      "midi": 71,
      "hit": false,
      "t": 209523.16000000067,
      "d": 1899.795697916561,
      "v": 58
    },
    {
      "midi": 43,
      "hit": false,
      "t": 209523.16000000254,
      "d": 114.08694791665766,
      "v": 78
    },
    {
      "midi": 31,
      "hit": false,
      "t": 209523.16000000353,
      "d": 173.6105729166593,
      "v": 76
    },
    {
      "midi": 43,
      "hit": false,
      "t": 209642.20725000254,
      "d": 114.08694791665766,
      "v": 78
    },
    {
      "midi": 31,
      "hit": false,
      "t": 209761.25449999495,
      "d": 208.33268749999115,
      "v": 68
    },
    {
      "midi": 67,
      "hit": false,
      "t": 209761.2545000001,
      "d": 9.920604166662088,
      "v": 103
    },
    {
      "midi": 71,
      "hit": false,
      "t": 209761.2545000001,
      "d": 9.920604166662088,
      "v": 103
    },
    {
      "midi": 55,
      "hit": false,
      "t": 209761.25450000254,
      "d": 114.08694791665766,
      "v": 78
    },
    {
      "midi": 43,
      "hit": false,
      "t": 209761.25450000353,
      "d": 173.6105729166593,
      "v": 82
    },
    {
      "midi": 67,
      "hit": false,
      "t": 209880.3017500001,
      "d": 9.920604166662088,
      "v": 103
    },
    {
      "midi": 71,
      "hit": false,
      "t": 209880.3017500001,
      "d": 9.920604166662088,
      "v": 103
    },
    {
      "midi": 55,
      "hit": false,
      "t": 209880.30175000255,
      "d": 114.08694791665766,
      "v": 78
    },
    {
      "midi": 31,
      "hit": false,
      "t": 209999.34899999492,
      "d": 208.33268749999115,
      "v": 68
    },
    {
      "midi": 55,
      "hit": false,
      "t": 209999.3490000007,
      "d": 208.33268749999115,
      "v": 109
    },
    {
      "midi": 43,
      "hit": false,
      "t": 209999.34900000255,
      "d": 114.08694791665766,
      "v": 78
    },
    {
      "midi": 31,
      "hit": false,
      "t": 209999.34900000354,
      "d": 173.6105729166593,
      "v": 62
    },
    {
      "midi": 43,
      "hit": false,
      "t": 210118.39625000255,
      "d": 114.08694791665766,
      "v": 78
    },
    {
      "midi": 31,
      "hit": false,
      "t": 210237.4434999949,
      "d": 208.33268749999115,
      "v": 68
    },
    {
      "midi": 67,
      "hit": false,
      "t": 210237.4435000001,
      "d": 9.920604166662088,
      "v": 103
    },
    {
      "midi": 71,
      "hit": false,
      "t": 210237.4435000001,
      "d": 9.920604166662088,
      "v": 103
    },
    {
      "midi": 55,
      "hit": false,
      "t": 210237.44350000066,
      "d": 208.33268749999115,
      "v": 113
    },
    {
      "midi": 55,
      "hit": false,
      "t": 210237.44350000256,
      "d": 114.08694791665766,
      "v": 78
    },
    {
      "midi": 43,
      "hit": false,
      "t": 210237.44350000354,
      "d": 173.6105729166593,
      "v": 78
    },
    {
      "midi": 67,
      "hit": false,
      "t": 210356.4907500001,
      "d": 9.920604166662088,
      "v": 103
    },
    {
      "midi": 71,
      "hit": false,
      "t": 210356.4907500001,
      "d": 9.920604166662088,
      "v": 103
    },
    {
      "midi": 55,
      "hit": false,
      "t": 210356.49075000256,
      "d": 114.08694791665766,
      "v": 78
    },
    {
      "midi": 31,
      "hit": false,
      "t": 210475.53799999488,
      "d": 208.33268749999115,
      "v": 68
    },
    {
      "midi": 57,
      "hit": false,
      "t": 210475.53800000064,
      "d": 208.33268749999115,
      "v": 106
    },
    {
      "midi": 43,
      "hit": false,
      "t": 210475.53800000256,
      "d": 114.08694791665766,
      "v": 78
    },
    {
      "midi": 31,
      "hit": false,
      "t": 210475.53800000355,
      "d": 173.6105729166593,
      "v": 67
    },
    {
      "midi": 43,
      "hit": false,
      "t": 210594.58525000256,
      "d": 114.08694791665766,
      "v": 78
    },
    {
      "midi": 31,
      "hit": false,
      "t": 210713.63249999486,
      "d": 208.33268749999115,
      "v": 68
    },
    {
      "midi": 67,
      "hit": false,
      "t": 210713.63250000012,
      "d": 9.920604166662088,
      "v": 103
    },
    {
      "midi": 71,
      "hit": false,
      "t": 210713.63250000012,
      "d": 9.920604166662088,
      "v": 103
    },
    {
      "midi": 57,
      "hit": false,
      "t": 210713.63250000062,
      "d": 208.33268749999115,
      "v": 115
    },
    {
      "midi": 55,
      "hit": false,
      "t": 210713.63250000257,
      "d": 114.08694791665766,
      "v": 78
    },
    {
      "midi": 43,
      "hit": false,
      "t": 210713.63250000356,
      "d": 173.6105729166593,
      "v": 70
    },
    {
      "midi": 67,
      "hit": false,
      "t": 210832.67975000013,
      "d": 9.920604166662088,
      "v": 103
    },
    {
      "midi": 71,
      "hit": false,
      "t": 210832.67975000013,
      "d": 9.920604166662088,
      "v": 103
    },
    {
      "midi": 55,
      "hit": false,
      "t": 210832.67975000257,
      "d": 114.08694791665766,
      "v": 78
    },
    {
      "midi": 31,
      "hit": false,
      "t": 210951.72699999483,
      "d": 208.33268749999115,
      "v": 68
    },
    {
      "midi": 59,
      "hit": false,
      "t": 210951.7270000006,
      "d": 208.33268749999115,
      "v": 113
    },
    {
      "midi": 43,
      "hit": false,
      "t": 210951.72700000257,
      "d": 114.08694791665766,
      "v": 78
    },
    {
      "midi": 31,
      "hit": false,
      "t": 210951.72700000356,
      "d": 173.6105729166593,
      "v": 56
    },
    {
      "midi": 43,
      "hit": false,
      "t": 211070.77425000258,
      "d": 114.08694791665766,
      "v": 78
    },
    {
      "midi": 31,
      "hit": false,
      "t": 211189.8214999948,
      "d": 208.33268749999115,
      "v": 68
    },
    {
      "midi": 67,
      "hit": false,
      "t": 211189.82150000014,
      "d": 9.920604166662088,
      "v": 103
    },
    {
      "midi": 71,
      "hit": false,
      "t": 211189.82150000014,
      "d": 9.920604166662088,
      "v": 103
    },
    {
      "midi": 59,
      "hit": false,
      "t": 211189.82150000057,
      "d": 208.33268749999115,
      "v": 113
    },
    {
      "midi": 55,
      "hit": false,
      "t": 211189.82150000258,
      "d": 114.08694791665766,
      "v": 78
    },
    {
      "midi": 43,
      "hit": false,
      "t": 211189.82150000357,
      "d": 173.6105729166593,
      "v": 70
    },
    {
      "midi": 67,
      "hit": false,
      "t": 211308.86875000014,
      "d": 9.920604166662088,
      "v": 103
    },
    {
      "midi": 71,
      "hit": false,
      "t": 211308.86875000014,
      "d": 9.920604166662088,
      "v": 103
    },
    {
      "midi": 55,
      "hit": false,
      "t": 211308.86875000258,
      "d": 114.08694791665766,
      "v": 78
    },
    {
      "midi": 36,
      "hit": false,
      "t": 211427.9159999948,
      "d": 208.33268749999115,
      "v": 68
    },
    {
      "midi": 64,
      "hit": false,
      "t": 211427.91600000058,
      "d": 1423.6066979166644,
      "v": 58
    },
    {
      "midi": 67,
      "hit": false,
      "t": 211427.91600000058,
      "d": 1423.6066979166644,
      "v": 58
    },
    {
      "midi": 72,
      "hit": false,
      "t": 211427.91600000058,
      "d": 1423.6066979166644,
      "v": 58
    },
    {
      "midi": 60,
      "hit": false,
      "t": 211427.91600000058,
      "d": 1899.7956979166775,
      "v": 111
    },
    {
      "midi": 36,
      "hit": false,
      "t": 211427.9160000026,
      "d": 114.08694791665766,
      "v": 78
    },
    {
      "midi": 36,
      "hit": false,
      "t": 211427.91600000358,
      "d": 173.6105729166593,
      "v": 74
    },
    {
      "midi": 36,
      "hit": false,
      "t": 211546.9632500026,
      "d": 114.08694791665766,
      "v": 78
    },
    {
      "midi": 36,
      "hit": false,
      "t": 211666.01049999477,
      "d": 208.33268749999115,
      "v": 68
    },
    {
      "midi": 60,
      "hit": false,
      "t": 211666.01050000015,
      "d": 9.920604166662088,
      "v": 103
    },
    {
      "midi": 64,
      "hit": false,
      "t": 211666.01050000015,
      "d": 9.920604166662088,
      "v": 103
    },
    {
      "midi": 48,
      "hit": false,
      "t": 211666.0105000026,
      "d": 114.08694791665766,
      "v": 78
    },
    {
      "midi": 48,
      "hit": false,
      "t": 211666.01050000358,
      "d": 173.6105729166593,
      "v": 70
    },
    {
      "midi": 60,
      "hit": false,
      "t": 211785.05775000015,
      "d": 9.920604166662088,
      "v": 103
    },
    {
      "midi": 64,
      "hit": false,
      "t": 211785.05775000015,
      "d": 9.920604166662088,
      "v": 103
    },
    {
      "midi": 48,
      "hit": false,
      "t": 211785.0577500026,
      "d": 114.08694791665766,
      "v": 78
    },
    {
      "midi": 36,
      "hit": false,
      "t": 211904.10499999474,
      "d": 208.33268749999115,
      "v": 68
    },
    {
      "midi": 36,
      "hit": false,
      "t": 211904.1050000026,
      "d": 114.08694791665766,
      "v": 78
    },
    {
      "midi": 36,
      "hit": false,
      "t": 211904.1050000036,
      "d": 173.6105729166593,
      "v": 64
    },
    {
      "midi": 36,
      "hit": false,
      "t": 212023.1522500026,
      "d": 114.08694791665766,
      "v": 78
    },
    {
      "midi": 36,
      "hit": false,
      "t": 212142.19949999472,
      "d": 208.33268749999115,
      "v": 68
    },
    {
      "midi": 60,
      "hit": false,
      "t": 212142.19950000016,
      "d": 9.920604166662088,
      "v": 103
    },
    {
      "midi": 64,
      "hit": false,
      "t": 212142.19950000016,
      "d": 9.920604166662088,
      "v": 103
    },
    {
      "midi": 48,
      "hit": false,
      "t": 212142.1995000026,
      "d": 114.08694791665766,
      "v": 78
    },
    {
      "midi": 48,
      "hit": false,
      "t": 212142.1995000036,
      "d": 173.6105729166593,
      "v": 74
    },
    {
      "midi": 60,
      "hit": false,
      "t": 212261.24675000017,
      "d": 9.920604166662088,
      "v": 103
    },
    {
      "midi": 64,
      "hit": false,
      "t": 212261.24675000017,
      "d": 9.920604166662088,
      "v": 103
    },
    {
      "midi": 48,
      "hit": false,
      "t": 212261.2467500026,
      "d": 114.08694791665766,
      "v": 78
    },
    {
      "midi": 36,
      "hit": false,
      "t": 212380.2939999947,
      "d": 208.33268749999115,
      "v": 68
    },
    {
      "midi": 36,
      "hit": false,
      "t": 212380.2940000026,
      "d": 114.08694791665766,
      "v": 78
    },
    {
      "midi": 36,
      "hit": false,
      "t": 212380.2940000036,
      "d": 173.6105729166593,
      "v": 50
    },
    {
      "midi": 36,
      "hit": false,
      "t": 212499.34125000262,
      "d": 114.08694791665766,
      "v": 78
    },
    {
      "midi": 36,
      "hit": false,
      "t": 212618.38849999467,
      "d": 208.33268749999115,
      "v": 68
    },
    {
      "midi": 60,
      "hit": false,
      "t": 212618.38850000018,
      "d": 9.920604166662088,
      "v": 103
    },
    {
      "midi": 64,
      "hit": false,
      "t": 212618.38850000018,
      "d": 9.920604166662088,
      "v": 103
    },
    {
      "midi": 48,
      "hit": false,
      "t": 212618.38850000262,
      "d": 114.08694791665766,
      "v": 78
    },
    {
      "midi": 48,
      "hit": false,
      "t": 212618.3885000036,
      "d": 173.6105729166593,
      "v": 73
    },
    {
      "midi": 60,
      "hit": false,
      "t": 212737.43575000018,
      "d": 9.920604166662088,
      "v": 103
    },
    {
      "midi": 64,
      "hit": false,
      "t": 212737.43575000018,
      "d": 9.920604166662088,
      "v": 103
    },
    {
      "midi": 48,
      "hit": false,
      "t": 212737.43575000262,
      "d": 114.08694791665766,
      "v": 78
    },
    {
      "midi": 38,
      "hit": false,
      "t": 212856.48299999465,
      "d": 208.33268749999115,
      "v": 68
    },
    {
      "midi": 66,
      "hit": false,
      "t": 212856.4830000006,
      "d": 471.22869791666744,
      "v": 58
    },
    {
      "midi": 69,
      "hit": false,
      "t": 212856.4830000006,
      "d": 471.22869791666744,
      "v": 58
    },
    {
      "midi": 74,
      "hit": false,
      "t": 212856.4830000006,
      "d": 471.22869791666744,
      "v": 58
    },
    {
      "midi": 38,
      "hit": false,
      "t": 212856.48300000263,
      "d": 114.08694791665766,
      "v": 78
    },
    {
      "midi": 38,
      "hit": false,
      "t": 212856.48300000362,
      "d": 173.6105729166593,
      "v": 66
    },
    {
      "midi": 38,
      "hit": false,
      "t": 212975.53025000263,
      "d": 114.08694791665766,
      "v": 78
    },
    {
      "midi": 38,
      "hit": false,
      "t": 213094.57749999463,
      "d": 208.33268749999115,
      "v": 68
    },
    {
      "midi": 62,
      "hit": false,
      "t": 213094.5775000002,
      "d": 9.920604166662088,
      "v": 103
    },
    {
      "midi": 66,
      "hit": false,
      "t": 213094.5775000002,
      "d": 9.920604166662088,
      "v": 103
    },
    {
      "midi": 50,
      "hit": false,
      "t": 213094.57750000263,
      "d": 114.08694791665766,
      "v": 78
    },
    {
      "midi": 50,
      "hit": false,
      "t": 213094.57750000362,
      "d": 173.6105729166593,
      "v": 86
    },
    {
      "midi": 62,
      "hit": false,
      "t": 213213.6247500002,
      "d": 9.920604166662088,
      "v": 103
    },
    {
      "midi": 66,
      "hit": false,
      "t": 213213.6247500002,
      "d": 9.920604166662088,
      "v": 103
    },
    {
      "midi": 50,
      "hit": false,
      "t": 213213.62475000264,
      "d": 114.08694791665766,
      "v": 78
    },
    {
      "midi": 31,
      "hit": false,
      "t": 213332.6719999946,
      "d": 208.33268749999115,
      "v": 68
    },
    {
      "midi": 55,
      "hit": false,
      "t": 213332.6720000006,
      "d": 1899.7956979166775,
      "v": 106
    },
    {
      "midi": 62,
      "hit": false,
      "t": 213332.6720000006,
      "d": 1899.7956979166775,
      "v": 58
    },
    {
      "midi": 67,
      "hit": false,
      "t": 213332.6720000006,
      "d": 1899.7956979166775,
      "v": 58
    },
    {
      "midi": 71,
      "hit": false,
      "t": 213332.6720000006,
      "d": 1899.7956979166775,
      "v": 58
    },
    {
      "midi": 43,
      "hit": false,
      "t": 213332.67200000264,
      "d": 114.08694791665766,
      "v": 78
    },
    {
      "midi": 31,
      "hit": false,
      "t": 213332.67200000363,
      "d": 173.6105729166593,
      "v": 76
    },
    {
      "midi": 43,
      "hit": false,
      "t": 213451.71925000264,
      "d": 114.08694791665766,
      "v": 78
    },
    {
      "midi": 31,
      "hit": false,
      "t": 213570.76649999458,
      "d": 208.33268749999115,
      "v": 68
    },
    {
      "midi": 67,
      "hit": false,
      "t": 213570.7665000002,
      "d": 9.920604166662088,
      "v": 103
    },
    {
      "midi": 71,
      "hit": false,
      "t": 213570.7665000002,
      "d": 9.920604166662088,
      "v": 103
    },
    {
      "midi": 55,
      "hit": false,
      "t": 213570.76650000265,
      "d": 114.08694791665766,
      "v": 78
    },
    {
      "midi": 43,
      "hit": false,
      "t": 213570.76650000364,
      "d": 173.6105729166593,
      "v": 82
    },
    {
      "midi": 67,
      "hit": false,
      "t": 213689.8137500002,
      "d": 9.920604166662088,
      "v": 103
    },
    {
      "midi": 71,
      "hit": false,
      "t": 213689.8137500002,
      "d": 9.920604166662088,
      "v": 103
    },
    {
      "midi": 55,
      "hit": false,
      "t": 213689.81375000265,
      "d": 114.08694791665766,
      "v": 78
    },
    {
      "midi": 31,
      "hit": false,
      "t": 213808.86099999456,
      "d": 208.33268749999115,
      "v": 68
    },
    {
      "midi": 43,
      "hit": false,
      "t": 213808.86100000265,
      "d": 114.08694791665766,
      "v": 78
    },
    {
      "midi": 31,
      "hit": false,
      "t": 213808.86100000364,
      "d": 173.6105729166593,
      "v": 62
    },
    {
      "midi": 43,
      "hit": false,
      "t": 213927.90825000266,
      "d": 114.08694791665766,
      "v": 78
    },
    {
      "midi": 31,
      "hit": false,
      "t": 214046.95549999454,
      "d": 208.33268749999115,
      "v": 68
    },
    {
      "midi": 67,
      "hit": false,
      "t": 214046.95550000021,
      "d": 9.920604166662088,
      "v": 103
    },
    {
      "midi": 71,
      "hit": false,
      "t": 214046.95550000021,
      "d": 9.920604166662088,
      "v": 103
    },
    {
      "midi": 55,
      "hit": false,
      "t": 214046.95550000266,
      "d": 114.08694791665766,
      "v": 78
    },
    {
      "midi": 43,
      "hit": false,
      "t": 214046.95550000365,
      "d": 173.6105729166593,
      "v": 78
    },
    {
      "midi": 67,
      "hit": false,
      "t": 214166.00275000022,
      "d": 9.920604166662088,
      "v": 103
    },
    {
      "midi": 71,
      "hit": false,
      "t": 214166.00275000022,
      "d": 9.920604166662088,
      "v": 103
    },
    {
      "midi": 55,
      "hit": false,
      "t": 214166.00275000266,
      "d": 114.08694791665766,
      "v": 78
    },
    {
      "midi": 31,
      "hit": false,
      "t": 214285.04999999452,
      "d": 208.33268749999115,
      "v": 68
    },
    {
      "midi": 43,
      "hit": false,
      "t": 214285.05000000267,
      "d": 114.08694791665766,
      "v": 78
    },
    {
      "midi": 31,
      "hit": false,
      "t": 214285.05000000366,
      "d": 173.6105729166593,
      "v": 67
    },
    {
      "midi": 43,
      "hit": false,
      "t": 214404.09725000267,
      "d": 114.08694791665766,
      "v": 78
    },
    {
      "midi": 31,
      "hit": false,
      "t": 214523.1444999945,
      "d": 208.33268749999115,
      "v": 68
    },
    {
      "midi": 67,
      "hit": false,
      "t": 214523.14450000023,
      "d": 9.920604166662088,
      "v": 103
    },
    {
      "midi": 71,
      "hit": false,
      "t": 214523.14450000023,
      "d": 9.920604166662088,
      "v": 103
    },
    {
      "midi": 55,
      "hit": false,
      "t": 214523.14450000267,
      "d": 114.08694791665766,
      "v": 78
    },
    {
      "midi": 43,
      "hit": false,
      "t": 214523.14450000366,
      "d": 173.6105729166593,
      "v": 70
    },
    {
      "midi": 67,
      "hit": false,
      "t": 214642.19175000023,
      "d": 9.920604166662088,
      "v": 103
    },
    {
      "midi": 71,
      "hit": false,
      "t": 214642.19175000023,
      "d": 9.920604166662088,
      "v": 103
    },
    {
      "midi": 55,
      "hit": false,
      "t": 214642.19175000268,
      "d": 114.08694791665766,
      "v": 78
    },
    {
      "midi": 31,
      "hit": false,
      "t": 214761.23899999447,
      "d": 208.33268749999115,
      "v": 68
    },
    {
      "midi": 43,
      "hit": false,
      "t": 214761.23900000268,
      "d": 114.08694791665766,
      "v": 78
    },
    {
      "midi": 31,
      "hit": false,
      "t": 214761.23900000367,
      "d": 173.6105729166593,
      "v": 56
    },
    {
      "midi": 43,
      "hit": false,
      "t": 214880.28625000268,
      "d": 114.08694791665766,
      "v": 78
    },
    {
      "midi": 31,
      "hit": false,
      "t": 214999.33349999445,
      "d": 208.33268749999115,
      "v": 68
    },
    {
      "midi": 67,
      "hit": false,
      "t": 214999.33350000024,
      "d": 9.920604166662088,
      "v": 103
    },
    {
      "midi": 71,
      "hit": false,
      "t": 214999.33350000024,
      "d": 9.920604166662088,
      "v": 103
    },
    {
      "midi": 55,
      "hit": false,
      "t": 214999.3335000027,
      "d": 114.08694791665766,
      "v": 78
    },
    {
      "midi": 43,
      "hit": false,
      "t": 214999.33350000367,
      "d": 173.6105729166593,
      "v": 70
    },
    {
      "midi": 67,
      "hit": false,
      "t": 215118.38075000024,
      "d": 9.920604166662088,
      "v": 103
    },
    {
      "midi": 71,
      "hit": false,
      "t": 215118.38075000024,
      "d": 9.920604166662088,
      "v": 103
    },
    {
      "midi": 55,
      "hit": false,
      "t": 215118.3807500027,
      "d": 114.08694791665766,
      "v": 78
    },
    {
      "midi": 38,
      "hit": false,
      "t": 215237.42799999443,
      "d": 208.33268749999115,
      "v": 68
    },
    {
      "midi": 66,
      "hit": false,
      "t": 215237.4280000001,
      "d": 1899.7956979166775,
      "v": 88
    },
    {
      "midi": 74,
      "hit": false,
      "t": 215237.4280000001,
      "d": 1899.7956979166775,
      "v": 88
    },
    {
      "midi": 50,
      "hit": false,
      "t": 215237.42800000063,
      "d": 1899.7956979166775,
      "v": 88
    },
    {
      "midi": 66,
      "hit": false,
      "t": 215237.42800000063,
      "d": 1899.7956979166775,
      "v": 58
    },
    {
      "midi": 69,
      "hit": false,
      "t": 215237.42800000063,
      "d": 1899.7956979166775,
      "v": 58
    },
    {
      "midi": 74,
      "hit": false,
      "t": 215237.42800000063,
      "d": 1899.7956979166775,
      "v": 58
    },
    {
      "midi": 38,
      "hit": false,
      "t": 215237.4280000027,
      "d": 114.08694791665766,
      "v": 78
    },
    {
      "midi": 38,
      "hit": false,
      "t": 215237.42800000368,
      "d": 173.6105729166593,
      "v": 70
    },
    {
      "midi": 38,
      "hit": false,
      "t": 215356.4752500027,
      "d": 114.08694791665766,
      "v": 78
    },
    {
      "midi": 38,
      "hit": false,
      "t": 215475.5224999944,
      "d": 208.33268749999115,
      "v": 68
    },
    {
      "midi": 62,
      "hit": false,
      "t": 215475.52250000025,
      "d": 9.920604166662088,
      "v": 103
    },
    {
      "midi": 66,
      "hit": false,
      "t": 215475.52250000025,
      "d": 9.920604166662088,
      "v": 103
    },
    {
      "midi": 50,
      "hit": false,
      "t": 215475.5225000027,
      "d": 114.08694791665766,
      "v": 78
    },
    {
      "midi": 50,
      "hit": false,
      "t": 215475.5225000037,
      "d": 173.6105729166593,
      "v": 62
    },
    {
      "midi": 62,
      "hit": false,
      "t": 215594.56975000026,
      "d": 9.920604166662088,
      "v": 103
    },
    {
      "midi": 66,
      "hit": false,
      "t": 215594.56975000026,
      "d": 9.920604166662088,
      "v": 103
    },
    {
      "midi": 50,
      "hit": false,
      "t": 215594.5697500027,
      "d": 114.08694791665766,
      "v": 78
    },
    {
      "midi": 38,
      "hit": false,
      "t": 215713.61699999438,
      "d": 208.33268749999115,
      "v": 68
    },
    {
      "midi": 38,
      "hit": false,
      "t": 215713.6170000027,
      "d": 114.08694791665766,
      "v": 78
    },
    {
      "midi": 38,
      "hit": false,
      "t": 215713.6170000037,
      "d": 173.6105729166593,
      "v": 66
    },
    {
      "midi": 38,
      "hit": false,
      "t": 215832.6642500027,
      "d": 114.08694791665766,
      "v": 78
    },
    {
      "midi": 38,
      "hit": false,
      "t": 215951.71149999436,
      "d": 208.33268749999115,
      "v": 68
    },
    {
      "midi": 62,
      "hit": false,
      "t": 215951.71150000027,
      "d": 9.920604166662088,
      "v": 103
    },
    {
      "midi": 66,
      "hit": false,
      "t": 215951.71150000027,
      "d": 9.920604166662088,
      "v": 103
    },
    {
      "midi": 50,
      "hit": false,
      "t": 215951.7115000027,
      "d": 114.08694791665766,
      "v": 78
    },
    {
      "midi": 50,
      "hit": false,
      "t": 215951.7115000037,
      "d": 173.6105729166593,
      "v": 67
    },
    {
      "midi": 62,
      "hit": false,
      "t": 216070.75875000027,
      "d": 9.920604166662088,
      "v": 103
    },
    {
      "midi": 66,
      "hit": false,
      "t": 216070.75875000027,
      "d": 9.920604166662088,
      "v": 103
    },
    {
      "midi": 50,
      "hit": false,
      "t": 216070.75875000271,
      "d": 114.08694791665766,
      "v": 78
    },
    {
      "midi": 38,
      "hit": false,
      "t": 216189.80599999434,
      "d": 208.33268749999115,
      "v": 68
    },
    {
      "midi": 38,
      "hit": false,
      "t": 216189.80600000272,
      "d": 114.08694791665766,
      "v": 78
    },
    {
      "midi": 38,
      "hit": false,
      "t": 216189.8060000037,
      "d": 173.6105729166593,
      "v": 64
    },
    {
      "midi": 38,
      "hit": false,
      "t": 216308.85325000272,
      "d": 114.08694791665766,
      "v": 78
    },
    {
      "midi": 38,
      "hit": false,
      "t": 216427.9004999943,
      "d": 208.33268749999115,
      "v": 68
    },
    {
      "midi": 62,
      "hit": false,
      "t": 216427.90050000028,
      "d": 9.920604166662088,
      "v": 103
    },
    {
      "midi": 66,
      "hit": false,
      "t": 216427.90050000028,
      "d": 9.920604166662088,
      "v": 103
    },
    {
      "midi": 50,
      "hit": false,
      "t": 216427.90050000272,
      "d": 114.08694791665766,
      "v": 78
    },
    {
      "midi": 50,
      "hit": false,
      "t": 216427.9005000037,
      "d": 173.6105729166593,
      "v": 66
    },
    {
      "midi": 62,
      "hit": false,
      "t": 216546.94775000028,
      "d": 9.920604166662088,
      "v": 103
    },
    {
      "midi": 66,
      "hit": false,
      "t": 216546.94775000028,
      "d": 9.920604166662088,
      "v": 103
    },
    {
      "midi": 50,
      "hit": false,
      "t": 216546.94775000273,
      "d": 114.08694791665766,
      "v": 78
    },
    {
      "midi": 38,
      "hit": false,
      "t": 216665.9949999943,
      "d": 208.33268749999115,
      "v": 68
    },
    {
      "midi": 38,
      "hit": false,
      "t": 216665.99500000273,
      "d": 114.08694791665766,
      "v": 78
    },
    {
      "midi": 38,
      "hit": false,
      "t": 216665.99500000372,
      "d": 173.6105729166593,
      "v": 62
    },
    {
      "midi": 38,
      "hit": false,
      "t": 216785.04225000273,
      "d": 114.08694791665766,
      "v": 78
    },
    {
      "midi": 38,
      "hit": false,
      "t": 216904.08949999427,
      "d": 208.33268749999115,
      "v": 68
    },
    {
      "midi": 62,
      "hit": false,
      "t": 216904.0895000003,
      "d": 9.920604166662088,
      "v": 103
    },
    {
      "midi": 66,
      "hit": false,
      "t": 216904.0895000003,
      "d": 9.920604166662088,
      "v": 103
    },
    {
      "midi": 50,
      "hit": false,
      "t": 216904.08950000274,
      "d": 114.08694791665766,
      "v": 78
    },
    {
      "midi": 50,
      "hit": false,
      "t": 216904.08950000373,
      "d": 173.6105729166593,
      "v": 73
    },
    {
      "midi": 62,
      "hit": false,
      "t": 217023.1367500003,
      "d": 9.920604166662088,
      "v": 103
    },
    {
      "midi": 66,
      "hit": false,
      "t": 217023.1367500003,
      "d": 9.920604166662088,
      "v": 103
    },
    {
      "midi": 50,
      "hit": false,
      "t": 217023.13675000274,
      "d": 114.08694791665766,
      "v": 78
    },
    {
      "midi": 31,
      "hit": false,
      "t": 217142.18399999425,
      "d": 208.33268749999115,
      "v": 68
    },
    {
      "midi": 62,
      "hit": false,
      "t": 217142.18400000065,
      "d": 1899.795697916561,
      "v": 58
    },
    {
      "midi": 67,
      "hit": false,
      "t": 217142.18400000065,
      "d": 1899.795697916561,
      "v": 58
    },
    {
      "midi": 71,
      "hit": false,
      "t": 217142.18400000065,
      "d": 1899.795697916561,
      "v": 58
    },
    {
      "midi": 43,
      "hit": false,
      "t": 217142.18400000274,
      "d": 114.08694791665766,
      "v": 78
    },
    {
      "midi": 31,
      "hit": false,
      "t": 217142.18400000373,
      "d": 173.6105729166593,
      "v": 76
    },
    {
      "midi": 43,
      "hit": false,
      "t": 217261.23125000275,
      "d": 114.08694791665766,
      "v": 78
    },
    {
      "midi": 31,
      "hit": false,
      "t": 217380.27849999422,
      "d": 208.33268749999115,
      "v": 68
    },
    {
      "midi": 67,
      "hit": false,
      "t": 217380.2785000003,
      "d": 9.920604166662088,
      "v": 103
    },
    {
      "midi": 71,
      "hit": false,
      "t": 217380.2785000003,
      "d": 9.920604166662088,
      "v": 103
    },
    {
      "midi": 55,
      "hit": false,
      "t": 217380.27850000275,
      "d": 114.08694791665766,
      "v": 78
    },
    {
      "midi": 43,
      "hit": false,
      "t": 217380.27850000374,
      "d": 173.6105729166593,
      "v": 82
    },
    {
      "midi": 67,
      "hit": false,
      "t": 217499.3257500003,
      "d": 9.920604166662088,
      "v": 103
    },
    {
      "midi": 71,
      "hit": false,
      "t": 217499.3257500003,
      "d": 9.920604166662088,
      "v": 103
    },
    {
      "midi": 55,
      "hit": false,
      "t": 217499.32575000275,
      "d": 114.08694791665766,
      "v": 78
    },
    {
      "midi": 31,
      "hit": false,
      "t": 217618.3729999942,
      "d": 208.33268749999115,
      "v": 68
    },
    {
      "midi": 55,
      "hit": false,
      "t": 217618.37300000066,
      "d": 208.33268749999115,
      "v": 109
    },
    {
      "midi": 43,
      "hit": false,
      "t": 217618.37300000276,
      "d": 114.08694791665766,
      "v": 78
    },
    {
      "midi": 31,
      "hit": false,
      "t": 217618.37300000375,
      "d": 173.6105729166593,
      "v": 62
    },
    {
      "midi": 43,
      "hit": false,
      "t": 217737.42025000276,
      "d": 114.08694791665766,
      "v": 78
    },
    {
      "midi": 31,
      "hit": false,
      "t": 217856.46749999418,
      "d": 208.33268749999115,
      "v": 68
    },
    {
      "midi": 67,
      "hit": false,
      "t": 217856.46750000032,
      "d": 9.920604166662088,
      "v": 103
    },
    {
      "midi": 71,
      "hit": false,
      "t": 217856.46750000032,
      "d": 9.920604166662088,
      "v": 103
    },
    {
      "midi": 55,
      "hit": false,
      "t": 217856.46750000064,
      "d": 208.33268749999115,
      "v": 113
    },
    {
      "midi": 55,
      "hit": false,
      "t": 217856.46750000276,
      "d": 114.08694791665766,
      "v": 78
    },
    {
      "midi": 43,
      "hit": false,
      "t": 217856.46750000375,
      "d": 173.6105729166593,
      "v": 78
    },
    {
      "midi": 67,
      "hit": false,
      "t": 217975.51475000032,
      "d": 9.920604166662088,
      "v": 103
    },
    {
      "midi": 71,
      "hit": false,
      "t": 217975.51475000032,
      "d": 9.920604166662088,
      "v": 103
    },
    {
      "midi": 55,
      "hit": false,
      "t": 217975.51475000277,
      "d": 114.08694791665766,
      "v": 78
    },
    {
      "midi": 31,
      "hit": false,
      "t": 218094.56199999416,
      "d": 208.33268749999115,
      "v": 68
    },
    {
      "midi": 57,
      "hit": false,
      "t": 218094.56200000062,
      "d": 208.33268749999115,
      "v": 106
    },
    {
      "midi": 43,
      "hit": false,
      "t": 218094.56200000277,
      "d": 114.08694791665766,
      "v": 78
    },
    {
      "midi": 31,
      "hit": false,
      "t": 218094.56200000376,
      "d": 173.6105729166593,
      "v": 67
    },
    {
      "midi": 43,
      "hit": false,
      "t": 218213.60925000277,
      "d": 114.08694791665766,
      "v": 78
    },
    {
      "midi": 31,
      "hit": false,
      "t": 218332.65649999413,
      "d": 208.33268749999115,
      "v": 68
    },
    {
      "midi": 67,
      "hit": false,
      "t": 218332.65650000033,
      "d": 9.920604166662088,
      "v": 103
    },
    {
      "midi": 71,
      "hit": false,
      "t": 218332.65650000033,
      "d": 9.920604166662088,
      "v": 103
    },
    {
      "midi": 57,
      "hit": false,
      "t": 218332.6565000006,
      "d": 208.33268749999115,
      "v": 115
    },
    {
      "midi": 55,
      "hit": false,
      "t": 218332.65650000278,
      "d": 114.08694791665766,
      "v": 78
    },
    {
      "midi": 43,
      "hit": false,
      "t": 218332.65650000377,
      "d": 173.6105729166593,
      "v": 70
    },
    {
      "midi": 67,
      "hit": false,
      "t": 218451.70375000034,
      "d": 9.920604166662088,
      "v": 103
    },
    {
      "midi": 71,
      "hit": false,
      "t": 218451.70375000034,
      "d": 9.920604166662088,
      "v": 103
    },
    {
      "midi": 55,
      "hit": false,
      "t": 218451.70375000278,
      "d": 114.08694791665766,
      "v": 78
    },
    {
      "midi": 31,
      "hit": false,
      "t": 218570.7509999941,
      "d": 208.33268749999115,
      "v": 68
    },
    {
      "midi": 59,
      "hit": false,
      "t": 218570.75100000057,
      "d": 208.33268749999115,
      "v": 113
    },
    {
      "midi": 43,
      "hit": false,
      "t": 218570.75100000278,
      "d": 114.08694791665766,
      "v": 78
    },
    {
      "midi": 31,
      "hit": false,
      "t": 218570.75100000377,
      "d": 173.6105729166593,
      "v": 56
    },
    {
      "midi": 43,
      "hit": false,
      "t": 218689.7982500028,
      "d": 114.08694791665766,
      "v": 78
    },
    {
      "midi": 31,
      "hit": false,
      "t": 218808.8454999941,
      "d": 208.33268749999115,
      "v": 68
    },
    {
      "midi": 67,
      "hit": false,
      "t": 218808.84550000035,
      "d": 9.920604166662088,
      "v": 103
    },
    {
      "midi": 71,
      "hit": false,
      "t": 218808.84550000035,
      "d": 9.920604166662088,
      "v": 103
    },
    {
      "midi": 59,
      "hit": false,
      "t": 218808.84550000055,
      "d": 208.33268749999115,
      "v": 113
    },
    {
      "midi": 55,
      "hit": false,
      "t": 218808.8455000028,
      "d": 114.08694791665766,
      "v": 78
    },
    {
      "midi": 43,
      "hit": false,
      "t": 218808.84550000378,
      "d": 173.6105729166593,
      "v": 70
    },
    {
      "midi": 67,
      "hit": false,
      "t": 218927.89275000035,
      "d": 9.920604166662088,
      "v": 103
    },
    {
      "midi": 71,
      "hit": false,
      "t": 218927.89275000035,
      "d": 9.920604166662088,
      "v": 103
    },
    {
      "midi": 55,
      "hit": false,
      "t": 218927.8927500028,
      "d": 114.08694791665766,
      "v": 78
    },
    {
      "midi": 36,
      "hit": false,
      "t": 219046.93999999407,
      "d": 208.33268749999115,
      "v": 68
    },
    {
      "midi": 64,
      "hit": false,
      "t": 219046.94000000056,
      "d": 1423.6066979166644,
      "v": 58
    },
    {
      "midi": 67,
      "hit": false,
      "t": 219046.94000000056,
      "d": 1423.6066979166644,
      "v": 58
    },
    {
      "midi": 72,
      "hit": false,
      "t": 219046.94000000056,
      "d": 1423.6066979166644,
      "v": 58
    },
    {
      "midi": 60,
      "hit": false,
      "t": 219046.94000000056,
      "d": 1899.7956979166775,
      "v": 111
    },
    {
      "midi": 36,
      "hit": false,
      "t": 219046.9400000028,
      "d": 114.08694791665766,
      "v": 78
    },
    {
      "midi": 36,
      "hit": false,
      "t": 219046.9400000038,
      "d": 173.6105729166593,
      "v": 74
    },
    {
      "midi": 36,
      "hit": false,
      "t": 219165.9872500028,
      "d": 114.08694791665766,
      "v": 78
    },
    {
      "midi": 36,
      "hit": false,
      "t": 219285.03449999404,
      "d": 208.33268749999115,
      "v": 68
    },
    {
      "midi": 60,
      "hit": false,
      "t": 219285.03450000036,
      "d": 9.920604166662088,
      "v": 103
    },
    {
      "midi": 64,
      "hit": false,
      "t": 219285.03450000036,
      "d": 9.920604166662088,
      "v": 103
    },
    {
      "midi": 48,
      "hit": false,
      "t": 219285.0345000028,
      "d": 114.08694791665766,
      "v": 78
    },
    {
      "midi": 48,
      "hit": false,
      "t": 219285.0345000038,
      "d": 173.6105729166593,
      "v": 70
    },
    {
      "midi": 60,
      "hit": false,
      "t": 219404.08175000036,
      "d": 9.920604166662088,
      "v": 103
    },
    {
      "midi": 64,
      "hit": false,
      "t": 219404.08175000036,
      "d": 9.920604166662088,
      "v": 103
    },
    {
      "midi": 48,
      "hit": false,
      "t": 219404.0817500028,
      "d": 114.08694791665766,
      "v": 78
    },
    {
      "midi": 36,
      "hit": false,
      "t": 219523.12899999402,
      "d": 208.33268749999115,
      "v": 68
    },
    {
      "midi": 36,
      "hit": false,
      "t": 219523.1290000028,
      "d": 114.08694791665766,
      "v": 78
    },
    {
      "midi": 36,
      "hit": false,
      "t": 219523.1290000038,
      "d": 173.6105729166593,
      "v": 64
    },
    {
      "midi": 36,
      "hit": false,
      "t": 219642.1762500028,
      "d": 114.08694791665766,
      "v": 78
    },
    {
      "midi": 36,
      "hit": false,
      "t": 219761.223499994,
      "d": 208.33268749999115,
      "v": 68
    },
    {
      "midi": 60,
      "hit": false,
      "t": 219761.22350000037,
      "d": 9.920604166662088,
      "v": 103
    },
    {
      "midi": 64,
      "hit": false,
      "t": 219761.22350000037,
      "d": 9.920604166662088,
      "v": 103
    },
    {
      "midi": 48,
      "hit": false,
      "t": 219761.22350000282,
      "d": 114.08694791665766,
      "v": 78
    },
    {
      "midi": 48,
      "hit": false,
      "t": 219761.2235000038,
      "d": 173.6105729166593,
      "v": 74
    },
    {
      "midi": 60,
      "hit": false,
      "t": 219880.27075000037,
      "d": 9.920604166662088,
      "v": 103
    },
    {
      "midi": 64,
      "hit": false,
      "t": 219880.27075000037,
      "d": 9.920604166662088,
      "v": 103
    },
    {
      "midi": 48,
      "hit": false,
      "t": 219880.27075000282,
      "d": 114.08694791665766,
      "v": 78
    },
    {
      "midi": 36,
      "hit": false,
      "t": 219999.31799999397,
      "d": 208.33268749999115,
      "v": 68
    },
    {
      "midi": 36,
      "hit": false,
      "t": 219999.31800000282,
      "d": 114.08694791665766,
      "v": 78
    },
    {
      "midi": 36,
      "hit": false,
      "t": 219999.3180000038,
      "d": 173.6105729166593,
      "v": 50
    },
    {
      "midi": 36,
      "hit": false,
      "t": 220118.36525000283,
      "d": 114.08694791665766,
      "v": 78
    },
    {
      "midi": 36,
      "hit": false,
      "t": 220237.41249999395,
      "d": 208.33268749999115,
      "v": 68
    },
    {
      "midi": 60,
      "hit": false,
      "t": 220237.41250000038,
      "d": 9.920604166662088,
      "v": 103
    },
    {
      "midi": 64,
      "hit": false,
      "t": 220237.41250000038,
      "d": 9.920604166662088,
      "v": 103
    },
    {
      "midi": 48,
      "hit": false,
      "t": 220237.41250000283,
      "d": 114.08694791665766,
      "v": 78
    },
    {
      "midi": 48,
      "hit": false,
      "t": 220237.41250000382,
      "d": 173.6105729166593,
      "v": 73
    },
    {
      "midi": 60,
      "hit": false,
      "t": 220356.4597500004,
      "d": 9.920604166662088,
      "v": 103
    },
    {
      "midi": 64,
      "hit": false,
      "t": 220356.4597500004,
      "d": 9.920604166662088,
      "v": 103
    },
    {
      "midi": 48,
      "hit": false,
      "t": 220356.45975000283,
      "d": 114.08694791665766,
      "v": 78
    },
    {
      "midi": 38,
      "hit": false,
      "t": 220475.50699999393,
      "d": 208.33268749999115,
      "v": 68
    },
    {
      "midi": 66,
      "hit": false,
      "t": 220475.50700000057,
      "d": 471.22869791666744,
      "v": 58
    },
    {
      "midi": 69,
      "hit": false,
      "t": 220475.50700000057,
      "d": 471.22869791666744,
      "v": 58
    },
    {
      "midi": 74,
      "hit": false,
      "t": 220475.50700000057,
      "d": 471.22869791666744,
      "v": 58
    },
    {
      "midi": 38,
      "hit": false,
      "t": 220475.50700000284,
      "d": 114.08694791665766,
      "v": 78
    },
    {
      "midi": 38,
      "hit": false,
      "t": 220475.50700000382,
      "d": 173.6105729166593,
      "v": 66
    },
    {
      "midi": 38,
      "hit": false,
      "t": 220594.55425000284,
      "d": 114.08694791665766,
      "v": 78
    },
    {
      "midi": 38,
      "hit": false,
      "t": 220713.6014999939,
      "d": 208.33268749999115,
      "v": 68
    },
    {
      "midi": 62,
      "hit": false,
      "t": 220713.6015000004,
      "d": 9.920604166662088,
      "v": 103
    },
    {
      "midi": 66,
      "hit": false,
      "t": 220713.6015000004,
      "d": 9.920604166662088,
      "v": 103
    },
    {
      "midi": 50,
      "hit": false,
      "t": 220713.60150000284,
      "d": 114.08694791665766,
      "v": 78
    },
    {
      "midi": 50,
      "hit": false,
      "t": 220713.60150000383,
      "d": 173.6105729166593,
      "v": 86
    },
    {
      "midi": 62,
      "hit": false,
      "t": 220832.6487500004,
      "d": 9.920604166662088,
      "v": 103
    },
    {
      "midi": 66,
      "hit": false,
      "t": 220832.6487500004,
      "d": 9.920604166662088,
      "v": 103
    },
    {
      "midi": 50,
      "hit": false,
      "t": 220832.64875000285,
      "d": 114.08694791665766,
      "v": 78
    },
    {
      "midi": 34,
      "hit": false,
      "t": 220951.69599999388,
      "d": 208.33268749999115,
      "v": 68
    },
    {
      "midi": 58,
      "hit": false,
      "t": 220951.69600000058,
      "d": 947.4176979166805,
      "v": 103
    },
    {
      "midi": 62,
      "hit": false,
      "t": 220951.69600000058,
      "d": 947.4176979166805,
      "v": 58
    },
    {
      "midi": 65,
      "hit": false,
      "t": 220951.69600000058,
      "d": 947.4176979166805,
      "v": 58
    },
    {
      "midi": 70,
      "hit": false,
      "t": 220951.69600000058,
      "d": 947.4176979166805,
      "v": 58
    },
    {
      "midi": 34,
      "hit": false,
      "t": 220951.69600000285,
      "d": 114.08694791665766,
      "v": 78
    },
    {
      "midi": 34,
      "hit": false,
      "t": 220951.69600000384,
      "d": 173.6105729166593,
      "v": 74
    },
    {
      "midi": 34,
      "hit": false,
      "t": 221070.74325000285,
      "d": 114.08694791665766,
      "v": 78
    },
    {
      "midi": 34,
      "hit": false,
      "t": 221189.79049999386,
      "d": 208.33268749999115,
      "v": 68
    },
    {
      "midi": 58,
      "hit": false,
      "t": 221189.7905000004,
      "d": 9.920604166662088,
      "v": 103
    },
    {
      "midi": 62,
      "hit": false,
      "t": 221189.7905000004,
      "d": 9.920604166662088,
      "v": 103
    },
    {
      "midi": 46,
      "hit": false,
      "t": 221189.79050000285,
      "d": 114.08694791665766,
      "v": 78
    },
    {
      "midi": 46,
      "hit": false,
      "t": 221189.79050000384,
      "d": 173.6105729166593,
      "v": 70
    },
    {
      "midi": 58,
      "hit": false,
      "t": 221308.8377500004,
      "d": 9.920604166662088,
      "v": 103
    },
    {
      "midi": 62,
      "hit": false,
      "t": 221308.8377500004,
      "d": 9.920604166662088,
      "v": 103
    },
    {
      "midi": 46,
      "hit": false,
      "t": 221308.83775000286,
      "d": 114.08694791665766,
      "v": 78
    },
    {
      "midi": 34,
      "hit": false,
      "t": 221427.88499999384,
      "d": 208.33268749999115,
      "v": 68
    },
    {
      "midi": 34,
      "hit": false,
      "t": 221427.88500000286,
      "d": 114.08694791665766,
      "v": 78
    },
    {
      "midi": 34,
      "hit": false,
      "t": 221427.88500000385,
      "d": 173.6105729166593,
      "v": 64
    },
    {
      "midi": 34,
      "hit": false,
      "t": 221546.93225000286,
      "d": 114.08694791665766,
      "v": 78
    },
    {
      "midi": 34,
      "hit": false,
      "t": 221665.97949999382,
      "d": 208.33268749999115,
      "v": 68
    },
    {
      "midi": 58,
      "hit": false,
      "t": 221665.97950000042,
      "d": 9.920604166662088,
      "v": 103
    },
    {
      "midi": 62,
      "hit": false,
      "t": 221665.97950000042,
      "d": 9.920604166662088,
      "v": 103
    },
    {
      "midi": 46,
      "hit": false,
      "t": 221665.97950000287,
      "d": 114.08694791665766,
      "v": 78
    },
    {
      "midi": 46,
      "hit": false,
      "t": 221665.97950000386,
      "d": 173.6105729166593,
      "v": 74
    },
    {
      "midi": 58,
      "hit": false,
      "t": 221785.02675000043,
      "d": 9.920604166662088,
      "v": 103
    },
    {
      "midi": 62,
      "hit": false,
      "t": 221785.02675000043,
      "d": 9.920604166662088,
      "v": 103
    },
    {
      "midi": 46,
      "hit": false,
      "t": 221785.02675000287,
      "d": 114.08694791665766,
      "v": 78
    },
    {
      "midi": 36,
      "hit": false,
      "t": 221904.0739999938,
      "d": 208.33268749999115,
      "v": 68
    },
    {
      "midi": 60,
      "hit": false,
      "t": 221904.0740000006,
      "d": 947.4176979166805,
      "v": 106
    },
    {
      "midi": 64,
      "hit": false,
      "t": 221904.0740000006,
      "d": 947.4176979166805,
      "v": 58
    },
    {
      "midi": 67,
      "hit": false,
      "t": 221904.0740000006,
      "d": 947.4176979166805,
      "v": 58
    },
    {
      "midi": 72,
      "hit": false,
      "t": 221904.0740000006,
      "d": 947.4176979166805,
      "v": 58
    },
    {
      "midi": 36,
      "hit": false,
      "t": 221904.07400000287,
      "d": 114.08694791665766,
      "v": 78
    },
    {
      "midi": 36,
      "hit": false,
      "t": 221904.07400000386,
      "d": 173.6105729166593,
      "v": 50
    },
    {
      "midi": 36,
      "hit": false,
      "t": 222023.12125000288,
      "d": 114.08694791665766,
      "v": 78
    },
    {
      "midi": 36,
      "hit": false,
      "t": 222142.16849999377,
      "d": 208.33268749999115,
      "v": 68
    },
    {
      "midi": 60,
      "hit": false,
      "t": 222142.16850000044,
      "d": 9.920604166662088,
      "v": 103
    },
    {
      "midi": 64,
      "hit": false,
      "t": 222142.16850000044,
      "d": 9.920604166662088,
      "v": 103
    },
    {
      "midi": 48,
      "hit": false,
      "t": 222142.16850000288,
      "d": 114.08694791665766,
      "v": 78
    },
    {
      "midi": 48,
      "hit": false,
      "t": 222142.16850000387,
      "d": 173.6105729166593,
      "v": 73
    },
    {
      "midi": 58,
      "hit": false,
      "t": 222261.21575000044,
      "d": 9.920604166662088,
      "v": 103
    },
    {
      "midi": 62,
      "hit": false,
      "t": 222261.21575000044,
      "d": 9.920604166662088,
      "v": 103
    },
    {
      "midi": 46,
      "hit": false,
      "t": 222261.21575000288,
      "d": 114.08694791665766,
      "v": 78
    },
    {
      "midi": 36,
      "hit": false,
      "t": 222380.26299999375,
      "d": 208.33268749999115,
      "v": 68
    },
    {
      "midi": 36,
      "hit": false,
      "t": 222380.2630000029,
      "d": 114.08694791665766,
      "v": 78
    },
    {
      "midi": 36,
      "hit": false,
      "t": 222380.26300000388,
      "d": 173.6105729166593,
      "v": 66
    },
    {
      "midi": 36,
      "hit": false,
      "t": 222499.3102500029,
      "d": 114.08694791665766,
      "v": 78
    },
    {
      "midi": 36,
      "hit": false,
      "t": 222618.35749999373,
      "d": 208.33268749999115,
      "v": 68
    },
    {
      "midi": 60,
      "hit": false,
      "t": 222618.35750000045,
      "d": 9.920604166662088,
      "v": 103
    },
    {
      "midi": 64,
      "hit": false,
      "t": 222618.35750000045,
      "d": 9.920604166662088,
      "v": 103
    },
    {
      "midi": 48,
      "hit": false,
      "t": 222618.3575000029,
      "d": 114.08694791665766,
      "v": 78
    },
    {
      "midi": 48,
      "hit": false,
      "t": 222618.35750000388,
      "d": 173.6105729166593,
      "v": 86
    },
    {
      "midi": 60,
      "hit": false,
      "t": 222737.40475000045,
      "d": 9.920604166662088,
      "v": 103
    },
    {
      "midi": 64,
      "hit": false,
      "t": 222737.40475000045,
      "d": 9.920604166662088,
      "v": 103
    },
    {
      "midi": 48,
      "hit": false,
      "t": 222737.4047500029,
      "d": 114.08694791665766,
      "v": 78
    },
    {
      "midi": 31,
      "hit": false,
      "t": 222856.4519999937,
      "d": 208.33268749999115,
      "v": 68
    },
    {
      "midi": 74,
      "hit": false,
      "t": 222856.452,
      "d": 272.8166145833384,
      "v": 64
    },
    {
      "midi": 79,
      "hit": false,
      "t": 222856.452,
      "d": 272.8166145833384,
      "v": 72
    },
    {
      "midi": 83,
      "hit": false,
      "t": 222856.452,
      "d": 272.8166145833384,
      "v": 72
    },
    {
      "midi": 83,
      "hit": false,
      "t": 222856.45200000022,
      "d": 2.480151041672798,
      "v": 84
    },
    {
      "midi": 83,
      "hit": false,
      "t": 222856.45200000022,
      "d": 2.480151041672798,
      "v": 110
    },
    {
      "midi": 62,
      "hit": false,
      "t": 222856.45200000063,
      "d": 1899.7956979166775,
      "v": 58
    },
    {
      "midi": 67,
      "hit": false,
      "t": 222856.45200000063,
      "d": 1899.7956979166775,
      "v": 58
    },
    {
      "midi": 71,
      "hit": false,
      "t": 222856.45200000063,
      "d": 1899.7956979166775,
      "v": 58
    },
    {
      "midi": 74,
      "hit": false,
      "t": 222856.45200000072,
      "d": 272.8166145833384,
      "v": 90
    },
    {
      "midi": 79,
      "hit": false,
      "t": 222856.45200000072,
      "d": 272.8166145833384,
      "v": 100
    },
    {
      "midi": 83,
      "hit": false,
      "t": 222856.45200000072,
      "d": 272.8166145833384,
      "v": 100
    },
    {
      "midi": 62,
      "hit": false,
      "t": 222856.45200000072,
      "d": 272.8166145833384,
      "v": 90
    },
    {
      "midi": 67,
      "hit": false,
      "t": 222856.45200000072,
      "d": 272.8166145833384,
      "v": 100
    },
    {
      "midi": 71,
      "hit": false,
      "t": 222856.45200000072,
      "d": 272.8166145833384,
      "v": 100
    },
    {
      "midi": 43,
      "hit": false,
      "t": 222856.4520000029,
      "d": 114.08694791665766,
      "v": 78
    },
    {
      "midi": 31,
      "hit": false,
      "t": 222856.4520000039,
      "d": 173.6105729166593,
      "v": 76
    },
    {
      "midi": 83,
      "hit": false,
      "t": 222975.49925000023,
      "d": 2.480151041672798,
      "v": 91
    },
    {
      "midi": 83,
      "hit": false,
      "t": 222975.49925000023,
      "d": 2.480151041672798,
      "v": 110
    },
    {
      "midi": 43,
      "hit": false,
      "t": 222975.4992500029,
      "d": 114.08694791665766,
      "v": 78
    },
    {
      "midi": 31,
      "hit": false,
      "t": 223094.54649999368,
      "d": 208.33268749999115,
      "v": 68
    },
    {
      "midi": 83,
      "hit": false,
      "t": 223094.54650000023,
      "d": 2.480151041672798,
      "v": 88
    },
    {
      "midi": 83,
      "hit": false,
      "t": 223094.54650000023,
      "d": 2.480151041672798,
      "v": 110
    },
    {
      "midi": 67,
      "hit": false,
      "t": 223094.54650000046,
      "d": 9.920604166662088,
      "v": 103
    },
    {
      "midi": 71,
      "hit": false,
      "t": 223094.54650000046,
      "d": 9.920604166662088,
      "v": 103
    },
    {
      "midi": 55,
      "hit": false,
      "t": 223094.5465000029,
      "d": 114.08694791665766,
      "v": 78
    },
    {
      "midi": 43,
      "hit": false,
      "t": 223094.5465000039,
      "d": 173.6105729166593,
      "v": 82
    },
    {
      "midi": 83,
      "hit": false,
      "t": 223213.59375000023,
      "d": 2.480151041672798,
      "v": 91
    },
    {
      "midi": 83,
      "hit": false,
      "t": 223213.59375000023,
      "d": 2.480151041672798,
      "v": 110
    },
    {
      "midi": 67,
      "hit": false,
      "t": 223213.59375000047,
      "d": 9.920604166662088,
      "v": 103
    },
    {
      "midi": 71,
      "hit": false,
      "t": 223213.59375000047,
      "d": 9.920604166662088,
      "v": 103
    },
    {
      "midi": 55,
      "hit": false,
      "t": 223213.5937500029,
      "d": 114.08694791665766,
      "v": 78
    },
    {
      "midi": 31,
      "hit": false,
      "t": 223332.64099999366,
      "d": 208.33268749999115,
      "v": 68
    },
    {
      "midi": 83,
      "hit": false,
      "t": 223332.64100000024,
      "d": 2.480151041672798,
      "v": 87
    },
    {
      "midi": 83,
      "hit": false,
      "t": 223332.64100000024,
      "d": 2.480151041672798,
      "v": 110
    },
    {
      "midi": 43,
      "hit": false,
      "t": 223332.6410000029,
      "d": 114.08694791665766,
      "v": 78
    },
    {
      "midi": 31,
      "hit": false,
      "t": 223332.6410000039,
      "d": 173.6105729166593,
      "v": 62
    },
    {
      "midi": 83,
      "hit": false,
      "t": 223451.68825000024,
      "d": 2.480151041672798,
      "v": 87
    },
    {
      "midi": 83,
      "hit": false,
      "t": 223451.68825000024,
      "d": 2.480151041672798,
      "v": 110
    },
    {
      "midi": 43,
      "hit": false,
      "t": 223451.68825000292,
      "d": 114.08694791665766,
      "v": 78
    },
    {
      "midi": 31,
      "hit": false,
      "t": 223570.73549999364,
      "d": 208.33268749999115,
      "v": 68
    },
    {
      "midi": 83,
      "hit": false,
      "t": 223570.73550000024,
      "d": 2.480151041672798,
      "v": 89
    },
    {
      "midi": 83,
      "hit": false,
      "t": 223570.73550000024,
      "d": 2.480151041672798,
      "v": 110
    },
    {
      "midi": 67,
      "hit": false,
      "t": 223570.73550000048,
      "d": 9.920604166662088,
      "v": 103
    },
    {
      "midi": 71,
      "hit": false,
      "t": 223570.73550000048,
      "d": 9.920604166662088,
      "v": 103
    },
    {
      "midi": 55,
      "hit": false,
      "t": 223570.73550000292,
      "d": 114.08694791665766,
      "v": 78
    },
    {
      "midi": 43,
      "hit": false,
      "t": 223570.7355000039,
      "d": 173.6105729166593,
      "v": 78
    },
    {
      "midi": 83,
      "hit": false,
      "t": 223689.78275000025,
      "d": 2.480151041672798,
      "v": 91
    },
    {
      "midi": 83,
      "hit": false,
      "t": 223689.78275000025,
      "d": 2.480151041672798,
      "v": 110
    },
    {
      "midi": 67,
      "hit": false,
      "t": 223689.78275000048,
      "d": 9.920604166662088,
      "v": 103
    },
    {
      "midi": 71,
      "hit": false,
      "t": 223689.78275000048,
      "d": 9.920604166662088,
      "v": 103
    },
    {
      "midi": 55,
      "hit": false,
      "t": 223689.78275000292,
      "d": 114.08694791665766,
      "v": 78
    },
    {
      "midi": 31,
      "hit": false,
      "t": 223808.8299999936,
      "d": 208.33268749999115,
      "v": 68
    },
    {
      "midi": 83,
      "hit": false,
      "t": 223808.83000000025,
      "d": 2.480151041672798,
      "v": 91
    },
    {
      "midi": 83,
      "hit": false,
      "t": 223808.83000000025,
      "d": 2.480151041672798,
      "v": 110
    },
    {
      "midi": 43,
      "hit": false,
      "t": 223808.83000000293,
      "d": 114.08694791665766,
      "v": 78
    },
    {
      "midi": 31,
      "hit": false,
      "t": 223808.83000000392,
      "d": 173.6105729166593,
      "v": 67
    },
    {
      "midi": 83,
      "hit": false,
      "t": 223927.87725000025,
      "d": 2.480151041672798,
      "v": 92
    },
    {
      "midi": 83,
      "hit": false,
      "t": 223927.87725000025,
      "d": 2.480151041672798,
      "v": 110
    },
    {
      "midi": 43,
      "hit": false,
      "t": 223927.87725000293,
      "d": 114.08694791665766,
      "v": 78
    },
    {
      "midi": 31,
      "hit": false,
      "t": 224046.9244999936,
      "d": 208.33268749999115,
      "v": 68
    },
    {
      "midi": 83,
      "hit": false,
      "t": 224046.92450000026,
      "d": 2.480151041672798,
      "v": 96
    },
    {
      "midi": 83,
      "hit": false,
      "t": 224046.92450000026,
      "d": 2.480151041672798,
      "v": 110
    },
    {
      "midi": 67,
      "hit": false,
      "t": 224046.9245000005,
      "d": 9.920604166662088,
      "v": 103
    },
    {
      "midi": 71,
      "hit": false,
      "t": 224046.9245000005,
      "d": 9.920604166662088,
      "v": 103
    },
    {
      "midi": 55,
      "hit": false,
      "t": 224046.92450000293,
      "d": 114.08694791665766,
      "v": 78
    },
    {
      "midi": 43,
      "hit": false,
      "t": 224046.92450000392,
      "d": 173.6105729166593,
      "v": 70
    },
    {
      "midi": 83,
      "hit": false,
      "t": 224165.97175000026,
      "d": 2.480151041672798,
      "v": 92
    },
    {
      "midi": 83,
      "hit": false,
      "t": 224165.97175000026,
      "d": 2.480151041672798,
      "v": 110
    },
    {
      "midi": 67,
      "hit": false,
      "t": 224165.9717500005,
      "d": 9.920604166662088,
      "v": 103
    },
    {
      "midi": 71,
      "hit": false,
      "t": 224165.9717500005,
      "d": 9.920604166662088,
      "v": 103
    },
    {
      "midi": 55,
      "hit": false,
      "t": 224165.97175000294,
      "d": 114.08694791665766,
      "v": 78
    },
    {
      "midi": 31,
      "hit": false,
      "t": 224285.01899999357,
      "d": 208.33268749999115,
      "v": 68
    },
    {
      "midi": 83,
      "hit": false,
      "t": 224285.01900000026,
      "d": 2.480151041672798,
      "v": 96
    },
    {
      "midi": 83,
      "hit": false,
      "t": 224285.01900000026,
      "d": 2.480151041672798,
      "v": 110
    },
    {
      "midi": 43,
      "hit": false,
      "t": 224285.01900000294,
      "d": 114.08694791665766,
      "v": 78
    },
    {
      "midi": 31,
      "hit": false,
      "t": 224285.01900000393,
      "d": 173.6105729166593,
      "v": 56
    },
    {
      "midi": 83,
      "hit": false,
      "t": 224404.06625000027,
      "d": 2.480151041672798,
      "v": 96
    },
    {
      "midi": 83,
      "hit": false,
      "t": 224404.06625000027,
      "d": 2.480151041672798,
      "v": 110
    },
    {
      "midi": 43,
      "hit": false,
      "t": 224404.06625000294,
      "d": 114.08694791665766,
      "v": 78
    },
    {
      "midi": 31,
      "hit": false,
      "t": 224523.11349999355,
      "d": 208.33268749999115,
      "v": 68
    },
    {
      "midi": 83,
      "hit": false,
      "t": 224523.11350000027,
      "d": 2.480151041672798,
      "v": 98
    },
    {
      "midi": 83,
      "hit": false,
      "t": 224523.11350000027,
      "d": 2.480151041672798,
      "v": 110
    },
    {
      "midi": 67,
      "hit": false,
      "t": 224523.1135000005,
      "d": 9.920604166662088,
      "v": 103
    },
    {
      "midi": 71,
      "hit": false,
      "t": 224523.1135000005,
      "d": 9.920604166662088,
      "v": 103
    },
    {
      "midi": 55,
      "hit": false,
      "t": 224523.11350000295,
      "d": 114.08694791665766,
      "v": 78
    },
    {
      "midi": 43,
      "hit": false,
      "t": 224523.11350000394,
      "d": 173.6105729166593,
      "v": 70
    },
    {
      "midi": 83,
      "hit": false,
      "t": 224642.16075000027,
      "d": 2.480151041672798,
      "v": 101
    },
    {
      "midi": 83,
      "hit": false,
      "t": 224642.16075000027,
      "d": 2.480151041672798,
      "v": 110
    },
    {
      "midi": 67,
      "hit": false,
      "t": 224642.1607500005,
      "d": 9.920604166662088,
      "v": 103
    },
    {
      "midi": 71,
      "hit": false,
      "t": 224642.1607500005,
      "d": 9.920604166662088,
      "v": 103
    },
    {
      "midi": 55,
      "hit": false,
      "t": 224642.16075000295,
      "d": 114.08694791665766,
      "v": 78
    },
    {
      "midi": 38,
      "hit": false,
      "t": 224761.20799999352,
      "d": 208.33268749999115,
      "v": 68
    },
    {
      "midi": 74,
      "hit": false,
      "t": 224761.20799999998,
      "d": 186.01132812499418,
      "v": 54
    },
    {
      "midi": 78,
      "hit": false,
      "t": 224761.20799999998,
      "d": 186.01132812499418,
      "v": 57
    },
    {
      "midi": 81,
      "hit": false,
      "t": 224761.20799999998,
      "d": 186.01132812499418,
      "v": 49
    },
    {
      "midi": 62,
      "hit": false,
      "t": 224761.20800000065,
      "d": 1899.7956979166775,
      "v": 58
    },
    {
      "midi": 66,
      "hit": false,
      "t": 224761.20800000065,
      "d": 1899.7956979166775,
      "v": 58
    },
    {
      "midi": 69,
      "hit": false,
      "t": 224761.20800000065,
      "d": 1899.7956979166775,
      "v": 58
    },
    {
      "midi": 74,
      "hit": false,
      "t": 224761.2080000007,
      "d": 173.6105729166593,
      "v": 76
    },
    {
      "midi": 78,
      "hit": false,
      "t": 224761.2080000007,
      "d": 173.6105729166593,
      "v": 80
    },
    {
      "midi": 81,
      "hit": false,
      "t": 224761.2080000007,
      "d": 173.6105729166593,
      "v": 70
    },
    {
      "midi": 62,
      "hit": false,
      "t": 224761.2080000007,
      "d": 173.6105729166593,
      "v": 76
    },
    {
      "midi": 66,
      "hit": false,
      "t": 224761.2080000007,
      "d": 173.6105729166593,
      "v": 80
    },
    {
      "midi": 69,
      "hit": false,
      "t": 224761.2080000007,
      "d": 173.6105729166593,
      "v": 70
    },
    {
      "midi": 38,
      "hit": false,
      "t": 224761.20800000295,
      "d": 114.08694791665766,
      "v": 78
    },
    {
      "midi": 38,
      "hit": false,
      "t": 224761.20800000394,
      "d": 173.6105729166593,
      "v": 70
    },
    {
      "midi": 38,
      "hit": false,
      "t": 224880.25525000296,
      "d": 114.08694791665766,
      "v": 78
    },
    {
      "midi": 38,
      "hit": false,
      "t": 224999.3024999935,
      "d": 208.33268749999115,
      "v": 68
    },
    {
      "midi": 74,
      "hit": false,
      "t": 224999.3025,
      "d": 186.01132812499418,
      "v": 65
    },
    {
      "midi": 78,
      "hit": false,
      "t": 224999.3025,
      "d": 186.01132812499418,
      "v": 68
    },
    {
      "midi": 81,
      "hit": false,
      "t": 224999.3025,
      "d": 186.01132812499418,
      "v": 64
    },
    {
      "midi": 62,
      "hit": false,
      "t": 224999.30250000051,
      "d": 9.920604166662088,
      "v": 103
    },
    {
      "midi": 66,
      "hit": false,
      "t": 224999.30250000051,
      "d": 9.920604166662088,
      "v": 103
    },
    {
      "midi": 74,
      "hit": false,
      "t": 224999.30250000072,
      "d": 173.6105729166593,
      "v": 91
    },
    {
      "midi": 78,
      "hit": false,
      "t": 224999.30250000072,
      "d": 173.6105729166593,
      "v": 95
    },
    {
      "midi": 81,
      "hit": false,
      "t": 224999.30250000072,
      "d": 173.6105729166593,
      "v": 90
    },
    {
      "midi": 62,
      "hit": false,
      "t": 224999.30250000072,
      "d": 173.6105729166593,
      "v": 91
    },
    {
      "midi": 66,
      "hit": false,
      "t": 224999.30250000072,
      "d": 173.6105729166593,
      "v": 95
    },
    {
      "midi": 69,
      "hit": false,
      "t": 224999.30250000072,
      "d": 173.6105729166593,
      "v": 90
    },
    {
      "midi": 50,
      "hit": false,
      "t": 224999.30250000296,
      "d": 114.08694791665766,
      "v": 78
    },
    {
      "midi": 50,
      "hit": false,
      "t": 224999.30250000395,
      "d": 173.6105729166593,
      "v": 62
    },
    {
      "midi": 62,
      "hit": false,
      "t": 225118.34975000052,
      "d": 9.920604166662088,
      "v": 103
    },
    {
      "midi": 66,
      "hit": false,
      "t": 225118.34975000052,
      "d": 9.920604166662088,
      "v": 103
    },
    {
      "midi": 50,
      "hit": false,
      "t": 225118.34975000296,
      "d": 114.08694791665766,
      "v": 78
    },
    {
      "midi": 38,
      "hit": false,
      "t": 225237.39699999348,
      "d": 208.33268749999115,
      "v": 68
    },
    {
      "midi": 74,
      "hit": false,
      "t": 225237.397,
      "d": 186.01132812499418,
      "v": 71
    },
    {
      "midi": 78,
      "hit": false,
      "t": 225237.397,
      "d": 186.01132812499418,
      "v": 72
    },
    {
      "midi": 81,
      "hit": false,
      "t": 225237.397,
      "d": 186.01132812499418,
      "v": 72
    },
    {
      "midi": 74,
      "hit": false,
      "t": 225237.39700000072,
      "d": 173.6105729166593,
      "v": 99
    },
    {
      "midi": 78,
      "hit": false,
      "t": 225237.39700000072,
      "d": 173.6105729166593,
      "v": 101
    },
    {
      "midi": 81,
      "hit": false,
      "t": 225237.39700000072,
      "d": 173.6105729166593,
      "v": 100
    },
    {
      "midi": 62,
      "hit": false,
      "t": 225237.39700000072,
      "d": 173.6105729166593,
      "v": 99
    },
    {
      "midi": 66,
      "hit": false,
      "t": 225237.39700000072,
      "d": 173.6105729166593,
      "v": 101
    },
    {
      "midi": 69,
      "hit": false,
      "t": 225237.39700000072,
      "d": 173.6105729166593,
      "v": 100
    },
    {
      "midi": 38,
      "hit": false,
      "t": 225237.39700000297,
      "d": 114.08694791665766,
      "v": 78
    },
    {
      "midi": 38,
      "hit": false,
      "t": 225237.39700000396,
      "d": 173.6105729166593,
      "v": 66
    },
    {
      "midi": 38,
      "hit": false,
      "t": 225356.44425000297,
      "d": 114.08694791665766,
      "v": 78
    },
    {
      "midi": 38,
      "hit": false,
      "t": 225475.49149999346,
      "d": 208.33268749999115,
      "v": 68
    },
    {
      "midi": 74,
      "hit": false,
      "t": 225475.4915,
      "d": 186.01132812499418,
      "v": 70
    },
    {
      "midi": 78,
      "hit": false,
      "t": 225475.4915,
      "d": 186.01132812499418,
      "v": 74
    },
    {
      "midi": 81,
      "hit": false,
      "t": 225475.4915,
      "d": 186.01132812499418,
      "v": 69
    },
    {
      "midi": 62,
      "hit": false,
      "t": 225475.49150000053,
      "d": 9.920604166662088,
      "v": 103
    },
    {
      "midi": 66,
      "hit": false,
      "t": 225475.49150000053,
      "d": 9.920604166662088,
      "v": 103
    },
    {
      "midi": 74,
      "hit": false,
      "t": 225475.49150000073,
      "d": 173.6105729166593,
      "v": 98
    },
    {
      "midi": 78,
      "hit": false,
      "t": 225475.49150000073,
      "d": 173.6105729166593,
      "v": 103
    },
    {
      "midi": 81,
      "hit": false,
      "t": 225475.49150000073,
      "d": 173.6105729166593,
      "v": 96
    },
    {
      "midi": 62,
      "hit": false,
      "t": 225475.49150000073,
      "d": 173.6105729166593,
      "v": 98
    },
    {
      "midi": 66,
      "hit": false,
      "t": 225475.49150000073,
      "d": 173.6105729166593,
      "v": 103
    },
    {
      "midi": 69,
      "hit": false,
      "t": 225475.49150000073,
      "d": 173.6105729166593,
      "v": 96
    },
    {
      "midi": 50,
      "hit": false,
      "t": 225475.49150000297,
      "d": 114.08694791665766,
      "v": 78
    },
    {
      "midi": 50,
      "hit": false,
      "t": 225475.49150000396,
      "d": 173.6105729166593,
      "v": 67
    },
    {
      "midi": 62,
      "hit": false,
      "t": 225594.53875000053,
      "d": 9.920604166662088,
      "v": 103
    },
    {
      "midi": 66,
      "hit": false,
      "t": 225594.53875000053,
      "d": 9.920604166662088,
      "v": 103
    },
    {
      "midi": 50,
      "hit": false,
      "t": 225594.53875000298,
      "d": 114.08694791665766,
      "v": 78
    },
    {
      "midi": 38,
      "hit": false,
      "t": 225713.58599999343,
      "d": 208.33268749999115,
      "v": 68
    },
    {
      "midi": 38,
      "hit": false,
      "t": 225713.58600000298,
      "d": 114.08694791665766,
      "v": 78
    },
    {
      "midi": 38,
      "hit": false,
      "t": 225713.58600000397,
      "d": 173.6105729166593,
      "v": 64
    },
    {
      "midi": 38,
      "hit": false,
      "t": 225832.63325000298,
      "d": 114.08694791665766,
      "v": 78
    },
    {
      "midi": 38,
      "hit": false,
      "t": 225951.6804999934,
      "d": 208.33268749999115,
      "v": 68
    },
    {
      "midi": 62,
      "hit": false,
      "t": 225951.68050000054,
      "d": 9.920604166662088,
      "v": 103
    },
    {
      "midi": 66,
      "hit": false,
      "t": 225951.68050000054,
      "d": 9.920604166662088,
      "v": 103
    },
    {
      "midi": 50,
      "hit": false,
      "t": 225951.68050000299,
      "d": 114.08694791665766,
      "v": 78
    },
    {
      "midi": 50,
      "hit": false,
      "t": 225951.68050000397,
      "d": 173.6105729166593,
      "v": 66
    },
    {
      "midi": 62,
      "hit": false,
      "t": 226070.72775000054,
      "d": 9.920604166662088,
      "v": 103
    },
    {
      "midi": 66,
      "hit": false,
      "t": 226070.72775000054,
      "d": 9.920604166662088,
      "v": 103
    },
    {
      "midi": 50,
      "hit": false,
      "t": 226070.727750003,
      "d": 114.08694791665766,
      "v": 78
    },
    {
      "midi": 38,
      "hit": false,
      "t": 226189.7749999934,
      "d": 208.33268749999115,
      "v": 68
    },
    {
      "midi": 74,
      "hit": false,
      "t": 226189.775,
      "d": 272.8166145833384,
      "v": 68
    },
    {
      "midi": 78,
      "hit": false,
      "t": 226189.775,
      "d": 272.8166145833384,
      "v": 67
    },
    {
      "midi": 83,
      "hit": false,
      "t": 226189.775,
      "d": 272.8166145833384,
      "v": 72
    },
    {
      "midi": 74,
      "hit": false,
      "t": 226189.77500000072,
      "d": 272.8166145833384,
      "v": 95
    },
    {
      "midi": 78,
      "hit": false,
      "t": 226189.77500000072,
      "d": 272.8166145833384,
      "v": 94
    },
    {
      "midi": 83,
      "hit": false,
      "t": 226189.77500000072,
      "d": 272.8166145833384,
      "v": 100
    },
    {
      "midi": 62,
      "hit": false,
      "t": 226189.77500000072,
      "d": 272.8166145833384,
      "v": 95
    },
    {
      "midi": 66,
      "hit": false,
      "t": 226189.77500000072,
      "d": 272.8166145833384,
      "v": 94
    },
    {
      "midi": 71,
      "hit": false,
      "t": 226189.77500000072,
      "d": 272.8166145833384,
      "v": 100
    },
    {
      "midi": 38,
      "hit": false,
      "t": 226189.775000003,
      "d": 114.08694791665766,
      "v": 78
    },
    {
      "midi": 38,
      "hit": false,
      "t": 226189.77500000398,
      "d": 173.6105729166593,
      "v": 62
    },
    {
      "midi": 38,
      "hit": false,
      "t": 226308.822250003,
      "d": 114.08694791665766,
      "v": 78
    },
    {
      "midi": 38,
      "hit": false,
      "t": 226427.86949999337,
      "d": 208.33268749999115,
      "v": 68
    },
    {
      "midi": 62,
      "hit": false,
      "t": 226427.86950000055,
      "d": 9.920604166662088,
      "v": 103
    },
    {
      "midi": 66,
      "hit": false,
      "t": 226427.86950000055,
      "d": 9.920604166662088,
      "v": 103
    },
    {
      "midi": 50,
      "hit": false,
      "t": 226427.869500003,
      "d": 114.08694791665766,
      "v": 78
    },
    {
      "midi": 50,
      "hit": false,
      "t": 226427.869500004,
      "d": 173.6105729166593,
      "v": 73
    },
    {
      "midi": 62,
      "hit": false,
      "t": 226546.91675000056,
      "d": 9.920604166662088,
      "v": 103
    },
    {
      "midi": 66,
      "hit": false,
      "t": 226546.91675000056,
      "d": 9.920604166662088,
      "v": 103
    },
    {
      "midi": 50,
      "hit": false,
      "t": 226546.916750003,
      "d": 114.08694791665766,
      "v": 78
    },
    {
      "midi": 40,
      "hit": false,
      "t": 226665.96399999334,
      "d": 208.33268749999115,
      "v": 68
    },
    {
      "midi": 71,
      "hit": false,
      "t": 226665.964,
      "d": 272.8166145833384,
      "v": 63
    },
    {
      "midi": 76,
      "hit": false,
      "t": 226665.964,
      "d": 272.8166145833384,
      "v": 74
    },
    {
      "midi": 79,
      "hit": false,
      "t": 226665.964,
      "d": 272.8166145833384,
      "v": 75
    },
    {
      "midi": 64,
      "hit": false,
      "t": 226665.96400000068,
      "d": 947.4176979166805,
      "v": 58
    },
    {
      "midi": 67,
      "hit": false,
      "t": 226665.96400000068,
      "d": 1899.7956979167066,
      "v": 58
    },
    {
      "midi": 71,
      "hit": false,
      "t": 226665.96400000068,
      "d": 1899.7956979167066,
      "v": 58
    },
    {
      "midi": 71,
      "hit": false,
      "t": 226665.96400000073,
      "d": 272.8166145833384,
      "v": 88
    },
    {
      "midi": 76,
      "hit": false,
      "t": 226665.96400000073,
      "d": 272.8166145833384,
      "v": 103
    },
    {
      "midi": 79,
      "hit": false,
      "t": 226665.96400000073,
      "d": 272.8166145833384,
      "v": 105
    },
    {
      "midi": 59,
      "hit": false,
      "t": 226665.96400000073,
      "d": 272.8166145833384,
      "v": 88
    },
    {
      "midi": 64,
      "hit": false,
      "t": 226665.96400000073,
      "d": 272.8166145833384,
      "v": 103
    },
    {
      "midi": 67,
      "hit": false,
      "t": 226665.96400000073,
      "d": 272.8166145833384,
      "v": 105
    },
    {
      "midi": 40,
      "hit": false,
      "t": 226665.964000003,
      "d": 114.08694791665766,
      "v": 78
    },
    {
      "midi": 40,
      "hit": false,
      "t": 226665.964000004,
      "d": 173.6105729166593,
      "v": 73
    },
    {
      "midi": 40,
      "hit": false,
      "t": 226785.011250003,
      "d": 114.08694791665766,
      "v": 78
    },
    {
      "midi": 40,
      "hit": false,
      "t": 226904.05849999332,
      "d": 208.33268749999115,
      "v": 68
    },
    {
      "midi": 64,
      "hit": false,
      "t": 226904.05850000057,
      "d": 9.920604166662088,
      "v": 103
    },
    {
      "midi": 67,
      "hit": false,
      "t": 226904.05850000057,
      "d": 9.920604166662088,
      "v": 103
    },
    {
      "midi": 52,
      "hit": false,
      "t": 226904.058500003,
      "d": 114.08694791665766,
      "v": 78
    },
    {
      "midi": 52,
      "hit": false,
      "t": 226904.058500004,
      "d": 173.6105729166593,
      "v": 64
    },
    {
      "midi": 64,
      "hit": false,
      "t": 227023.10575000057,
      "d": 9.920604166662088,
      "v": 103
    },
    {
      "midi": 67,
      "hit": false,
      "t": 227023.10575000057,
      "d": 9.920604166662088,
      "v": 103
    },
    {
      "midi": 52,
      "hit": false,
      "t": 227023.10575000301,
      "d": 114.08694791665766,
      "v": 78
    },
    {
      "midi": 40,
      "hit": false,
      "t": 227142.1529999933,
      "d": 208.33268749999115,
      "v": 68
    },
    {
      "midi": 40,
      "hit": false,
      "t": 227142.15300000302,
      "d": 114.08694791665766,
      "v": 78
    },
    {
      "midi": 40,
      "hit": false,
      "t": 227142.153000004,
      "d": 173.6105729166593,
      "v": 62
    },
    {
      "midi": 40,
      "hit": false,
      "t": 227261.20025000302,
      "d": 114.08694791665766,
      "v": 78
    },
    {
      "midi": 40,
      "hit": false,
      "t": 227380.24749999327,
      "d": 208.33268749999115,
      "v": 68
    },
    {
      "midi": 64,
      "hit": false,
      "t": 227380.24750000058,
      "d": 9.920604166662088,
      "v": 103
    },
    {
      "midi": 67,
      "hit": false,
      "t": 227380.24750000058,
      "d": 9.920604166662088,
      "v": 103
    },
    {
      "midi": 52,
      "hit": false,
      "t": 227380.24750000302,
      "d": 114.08694791665766,
      "v": 78
    },
    {
      "midi": 52,
      "hit": false,
      "t": 227380.247500004,
      "d": 173.6105729166593,
      "v": 80
    },
    {
      "midi": 64,
      "hit": false,
      "t": 227499.29475000058,
      "d": 9.920604166662088,
      "v": 103
    },
    {
      "midi": 67,
      "hit": false,
      "t": 227499.29475000058,
      "d": 9.920604166662088,
      "v": 103
    },
    {
      "midi": 52,
      "hit": false,
      "t": 227499.29475000303,
      "d": 114.08694791665766,
      "v": 78
    },
    {
      "midi": 38,
      "hit": false,
      "t": 227618.34199999325,
      "d": 208.33268749999115,
      "v": 68
    },
    {
      "midi": 62,
      "hit": false,
      "t": 227618.3420000007,
      "d": 947.4176979166805,
      "v": 58
    },
    {
      "midi": 38,
      "hit": false,
      "t": 227618.34200000303,
      "d": 114.08694791665766,
      "v": 78
    },
    {
      "midi": 38,
      "hit": false,
      "t": 227618.34200000402,
      "d": 173.6105729166593,
      "v": 58
    },
    {
      "midi": 38,
      "hit": false,
      "t": 227737.38925000303,
      "d": 114.08694791665766,
      "v": 78
    },
    {
      "midi": 38,
      "hit": false,
      "t": 227856.43649999323,
      "d": 208.33268749999115,
      "v": 68
    },
    {
      "midi": 62,
      "hit": false,
      "t": 227856.4365000006,
      "d": 9.920604166662088,
      "v": 103
    },
    {
      "midi": 66,
      "hit": false,
      "t": 227856.4365000006,
      "d": 9.920604166662088,
      "v": 103
    },
    {
      "midi": 50,
      "hit": false,
      "t": 227856.43650000304,
      "d": 114.08694791665766,
      "v": 78
    },
    {
      "midi": 50,
      "hit": false,
      "t": 227856.43650000403,
      "d": 173.6105729166593,
      "v": 72
    },
    {
      "midi": 62,
      "hit": false,
      "t": 227975.4837500006,
      "d": 9.920604166662088,
      "v": 103
    },
    {
      "midi": 66,
      "hit": false,
      "t": 227975.4837500006,
      "d": 9.920604166662088,
      "v": 103
    },
    {
      "midi": 50,
      "hit": false,
      "t": 227975.48375000304,
      "d": 114.08694791665766,
      "v": 78
    },
    {
      "midi": 38,
      "hit": false,
      "t": 228094.5309999932,
      "d": 208.33268749999115,
      "v": 68
    },
    {
      "midi": 38,
      "hit": false,
      "t": 228094.53100000304,
      "d": 114.08694791665766,
      "v": 78
    },
    {
      "midi": 38,
      "hit": false,
      "t": 228094.53100000403,
      "d": 173.6105729166593,
      "v": 59
    },
    {
      "midi": 38,
      "hit": false,
      "t": 228213.57825000305,
      "d": 114.08694791665766,
      "v": 78
    },
    {
      "midi": 38,
      "hit": false,
      "t": 228332.62549999318,
      "d": 208.33268749999115,
      "v": 68
    },
    {
      "midi": 62,
      "hit": false,
      "t": 228332.6255000006,
      "d": 9.920604166662088,
      "v": 103
    },
    {
      "midi": 66,
      "hit": false,
      "t": 228332.6255000006,
      "d": 9.920604166662088,
      "v": 103
    },
    {
      "midi": 50,
      "hit": false,
      "t": 228332.62550000305,
      "d": 114.08694791665766,
      "v": 78
    },
    {
      "midi": 50,
      "hit": false,
      "t": 228332.62550000404,
      "d": 173.6105729166593,
      "v": 70
    },
    {
      "midi": 62,
      "hit": false,
      "t": 228451.6727500006,
      "d": 9.920604166662088,
      "v": 103
    },
    {
      "midi": 66,
      "hit": false,
      "t": 228451.6727500006,
      "d": 9.920604166662088,
      "v": 103
    },
    {
      "midi": 50,
      "hit": false,
      "t": 228451.67275000305,
      "d": 114.08694791665766,
      "v": 78
    },
    {
      "midi": 36,
      "hit": false,
      "t": 228570.71999999316,
      "d": 208.33268749999115,
      "v": 68
    },
    {
      "midi": 72,
      "hit": false,
      "t": 228570.72,
      "d": 186.01132812499418,
      "v": 59
    },
    {
      "midi": 76,
      "hit": false,
      "t": 228570.72,
      "d": 186.01132812499418,
      "v": 66
    },
    {
      "midi": 79,
      "hit": false,
      "t": 228570.72,
      "d": 186.01132812499418,
      "v": 67
    },
    {
      "midi": 64,
      "hit": false,
      "t": 228570.72000000073,
      "d": 1423.6066979166644,
      "v": 58
    },
    {
      "midi": 67,
      "hit": false,
      "t": 228570.72000000073,
      "d": 1423.6066979166644,
      "v": 58
    },
    {
      "midi": 72,
      "hit": false,
      "t": 228570.72000000073,
      "d": 1423.6066979166644,
      "v": 58
    },
    {
      "midi": 72,
      "hit": false,
      "t": 228570.72000000073,
      "d": 173.6105729166593,
      "v": 83
    },
    {
      "midi": 76,
      "hit": false,
      "t": 228570.72000000073,
      "d": 173.6105729166593,
      "v": 93
    },
    {
      "midi": 79,
      "hit": false,
      "t": 228570.72000000073,
      "d": 173.6105729166593,
      "v": 94
    },
    {
      "midi": 60,
      "hit": false,
      "t": 228570.72000000073,
      "d": 173.6105729166593,
      "v": 83
    },
    {
      "midi": 64,
      "hit": false,
      "t": 228570.72000000073,
      "d": 173.6105729166593,
      "v": 93
    },
    {
      "midi": 67,
      "hit": false,
      "t": 228570.72000000073,
      "d": 173.6105729166593,
      "v": 94
    },
    {
      "midi": 36,
      "hit": false,
      "t": 228570.72000000306,
      "d": 114.08694791665766,
      "v": 78
    },
    {
      "midi": 36,
      "hit": false,
      "t": 228570.72000000405,
      "d": 173.6105729166593,
      "v": 74
    },
    {
      "midi": 36,
      "hit": false,
      "t": 228689.76725000306,
      "d": 114.08694791665766,
      "v": 78
    },
    {
      "midi": 36,
      "hit": false,
      "t": 228808.81449999314,
      "d": 208.33268749999115,
      "v": 68
    },
    {
      "midi": 72,
      "hit": false,
      "t": 228808.8145,
      "d": 186.01132812499418,
      "v": 71
    },
    {
      "midi": 76,
      "hit": false,
      "t": 228808.8145,
      "d": 186.01132812499418,
      "v": 79
    },
    {
      "midi": 79,
      "hit": false,
      "t": 228808.8145,
      "d": 186.01132812499418,
      "v": 74
    },
    {
      "midi": 60,
      "hit": false,
      "t": 228808.81450000062,
      "d": 9.920604166662088,
      "v": 103
    },
    {
      "midi": 64,
      "hit": false,
      "t": 228808.81450000062,
      "d": 9.920604166662088,
      "v": 103
    },
    {
      "midi": 72,
      "hit": false,
      "t": 228808.81450000074,
      "d": 173.6105729166593,
      "v": 99
    },
    {
      "midi": 76,
      "hit": false,
      "t": 228808.81450000074,
      "d": 173.6105729166593,
      "v": 110
    },
    {
      "midi": 79,
      "hit": false,
      "t": 228808.81450000074,
      "d": 173.6105729166593,
      "v": 103
    },
    {
      "midi": 60,
      "hit": false,
      "t": 228808.81450000074,
      "d": 173.6105729166593,
      "v": 99
    },
    {
      "midi": 64,
      "hit": false,
      "t": 228808.81450000074,
      "d": 173.6105729166593,
      "v": 110
    },
    {
      "midi": 67,
      "hit": false,
      "t": 228808.81450000074,
      "d": 173.6105729166593,
      "v": 103
    },
    {
      "midi": 48,
      "hit": false,
      "t": 228808.81450000306,
      "d": 114.08694791665766,
      "v": 78
    },
    {
      "midi": 48,
      "hit": false,
      "t": 228808.81450000405,
      "d": 173.6105729166593,
      "v": 70
    },
    {
      "midi": 60,
      "hit": false,
      "t": 228927.86175000062,
      "d": 9.920604166662088,
      "v": 103
    },
    {
      "midi": 64,
      "hit": false,
      "t": 228927.86175000062,
      "d": 9.920604166662088,
      "v": 103
    },
    {
      "midi": 48,
      "hit": false,
      "t": 228927.86175000307,
      "d": 114.08694791665766,
      "v": 78
    },
    {
      "midi": 36,
      "hit": false,
      "t": 229046.90899999312,
      "d": 208.33268749999115,
      "v": 68
    },
    {
      "midi": 72,
      "hit": false,
      "t": 229046.909,
      "d": 186.01132812499418,
      "v": 74
    },
    {
      "midi": 76,
      "hit": false,
      "t": 229046.909,
      "d": 186.01132812499418,
      "v": 75
    },
    {
      "midi": 79,
      "hit": false,
      "t": 229046.909,
      "d": 186.01132812499418,
      "v": 74
    },
    {
      "midi": 72,
      "hit": false,
      "t": 229046.90900000074,
      "d": 173.6105729166593,
      "v": 103
    },
    {
      "midi": 76,
      "hit": false,
      "t": 229046.90900000074,
      "d": 173.6105729166593,
      "v": 105
    },
    {
      "midi": 79,
      "hit": false,
      "t": 229046.90900000074,
      "d": 173.6105729166593,
      "v": 103
    },
    {
      "midi": 60,
      "hit": false,
      "t": 229046.90900000074,
      "d": 173.6105729166593,
      "v": 103
    },
    {
      "midi": 64,
      "hit": false,
      "t": 229046.90900000074,
      "d": 173.6105729166593,
      "v": 105
    },
    {
      "midi": 67,
      "hit": false,
      "t": 229046.90900000074,
      "d": 173.6105729166593,
      "v": 103
    },
    {
      "midi": 36,
      "hit": false,
      "t": 229046.90900000307,
      "d": 114.08694791665766,
      "v": 78
    },
    {
      "midi": 36,
      "hit": false,
      "t": 229046.90900000406,
      "d": 173.6105729166593,
      "v": 64
    },
    {
      "midi": 36,
      "hit": false,
      "t": 229165.95625000307,
      "d": 114.08694791665766,
      "v": 78
    },
    {
      "midi": 36,
      "hit": false,
      "t": 229285.0034999931,
      "d": 208.33268749999115,
      "v": 68
    },
    {
      "midi": 72,
      "hit": false,
      "t": 229285.00350000002,
      "d": 186.01132812499418,
      "v": 71
    },
    {
      "midi": 76,
      "hit": false,
      "t": 229285.00350000002,
      "d": 186.01132812499418,
      "v": 72
    },
    {
      "midi": 79,
      "hit": false,
      "t": 229285.00350000002,
      "d": 186.01132812499418,
      "v": 72
    },
    {
      "midi": 60,
      "hit": false,
      "t": 229285.00350000063,
      "d": 9.920604166662088,
      "v": 103
    },
    {
      "midi": 64,
      "hit": false,
      "t": 229285.00350000063,
      "d": 9.920604166662088,
      "v": 103
    },
    {
      "midi": 72,
      "hit": false,
      "t": 229285.00350000075,
      "d": 173.6105729166593,
      "v": 99
    },
    {
      "midi": 76,
      "hit": false,
      "t": 229285.00350000075,
      "d": 173.6105729166593,
      "v": 101
    },
    {
      "midi": 79,
      "hit": false,
      "t": 229285.00350000075,
      "d": 173.6105729166593,
      "v": 100
    },
    {
      "midi": 60,
      "hit": false,
      "t": 229285.00350000075,
      "d": 173.6105729166593,
      "v": 99
    },
    {
      "midi": 64,
      "hit": false,
      "t": 229285.00350000075,
      "d": 173.6105729166593,
      "v": 101
    },
    {
      "midi": 67,
      "hit": false,
      "t": 229285.00350000075,
      "d": 173.6105729166593,
      "v": 100
    },
    {
      "midi": 48,
      "hit": false,
      "t": 229285.00350000308,
      "d": 114.08694791665766,
      "v": 78
    },
    {
      "midi": 48,
      "hit": false,
      "t": 229285.00350000407,
      "d": 173.6105729166593,
      "v": 74
    },
    {
      "midi": 60,
      "hit": false,
      "t": 229404.05075000064,
      "d": 9.920604166662088,
      "v": 103
    },
    {
      "midi": 64,
      "hit": false,
      "t": 229404.05075000064,
      "d": 9.920604166662088,
      "v": 103
    },
    {
      "midi": 48,
      "hit": false,
      "t": 229404.05075000308,
      "d": 114.08694791665766,
      "v": 78
    },
    {
      "midi": 36,
      "hit": false,
      "t": 229523.09799999307,
      "d": 208.33268749999115,
      "v": 68
    },
    {
      "midi": 36,
      "hit": false,
      "t": 229523.09800000308,
      "d": 114.08694791665766,
      "v": 78
    },
    {
      "midi": 36,
      "hit": false,
      "t": 229523.09800000407,
      "d": 173.6105729166593,
      "v": 50
    },
    {
      "midi": 36,
      "hit": false,
      "t": 229642.1452500031,
      "d": 114.08694791665766,
      "v": 78
    },
    {
      "midi": 36,
      "hit": false,
      "t": 229761.19249999305,
      "d": 208.33268749999115,
      "v": 68
    },
    {
      "midi": 60,
      "hit": false,
      "t": 229761.19250000064,
      "d": 9.920604166662088,
      "v": 103
    },
    {
      "midi": 64,
      "hit": false,
      "t": 229761.19250000064,
      "d": 9.920604166662088,
      "v": 103
    },
    {
      "midi": 48,
      "hit": false,
      "t": 229761.1925000031,
      "d": 114.08694791665766,
      "v": 78
    },
    {
      "midi": 48,
      "hit": false,
      "t": 229761.19250000408,
      "d": 173.6105729166593,
      "v": 73
    },
    {
      "midi": 60,
      "hit": false,
      "t": 229880.23975000065,
      "d": 9.920604166662088,
      "v": 103
    },
    {
      "midi": 64,
      "hit": false,
      "t": 229880.23975000065,
      "d": 9.920604166662088,
      "v": 103
    },
    {
      "midi": 48,
      "hit": false,
      "t": 229880.2397500031,
      "d": 114.08694791665766,
      "v": 78
    },
    {
      "midi": 38,
      "hit": false,
      "t": 229999.28699999303,
      "d": 208.33268749999115,
      "v": 68
    },
    {
      "midi": 74,
      "hit": false,
      "t": 229999.287,
      "d": 272.8166145833384,
      "v": 70
    },
    {
      "midi": 78,
      "hit": false,
      "t": 229999.287,
      "d": 272.8166145833384,
      "v": 76
    },
    {
      "midi": 81,
      "hit": false,
      "t": 229999.287,
      "d": 272.8166145833384,
      "v": 75
    },
    {
      "midi": 66,
      "hit": false,
      "t": 229999.28700000074,
      "d": 471.22869791666744,
      "v": 58
    },
    {
      "midi": 69,
      "hit": false,
      "t": 229999.28700000074,
      "d": 471.22869791666744,
      "v": 58
    },
    {
      "midi": 74,
      "hit": false,
      "t": 229999.28700000074,
      "d": 471.22869791666744,
      "v": 58
    },
    {
      "midi": 74,
      "hit": false,
      "t": 229999.28700000074,
      "d": 272.8166145833384,
      "v": 98
    },
    {
      "midi": 78,
      "hit": false,
      "t": 229999.28700000074,
      "d": 272.8166145833384,
      "v": 106
    },
    {
      "midi": 81,
      "hit": false,
      "t": 229999.28700000074,
      "d": 272.8166145833384,
      "v": 104
    },
    {
      "midi": 62,
      "hit": false,
      "t": 229999.28700000074,
      "d": 272.8166145833384,
      "v": 98
    },
    {
      "midi": 66,
      "hit": false,
      "t": 229999.28700000074,
      "d": 272.8166145833384,
      "v": 106
    },
    {
      "midi": 69,
      "hit": false,
      "t": 229999.28700000074,
      "d": 272.8166145833384,
      "v": 104
    },
    {
      "midi": 38,
      "hit": false,
      "t": 229999.2870000031,
      "d": 114.08694791665766,
      "v": 78
    },
    {
      "midi": 38,
      "hit": false,
      "t": 229999.2870000041,
      "d": 173.6105729166593,
      "v": 66
    },
    {
      "midi": 38,
      "hit": false,
      "t": 230118.3342500031,
      "d": 114.08694791665766,
      "v": 78
    },
    {
      "midi": 38,
      "hit": false,
      "t": 230237.381499993,
      "d": 208.33268749999115,
      "v": 68
    },
    {
      "midi": 62,
      "hit": false,
      "t": 230237.38150000066,
      "d": 9.920604166662088,
      "v": 103
    },
    {
      "midi": 66,
      "hit": false,
      "t": 230237.38150000066,
      "d": 9.920604166662088,
      "v": 103
    },
    {
      "midi": 50,
      "hit": false,
      "t": 230237.3815000031,
      "d": 114.08694791665766,
      "v": 78
    },
    {
      "midi": 50,
      "hit": false,
      "t": 230237.3815000041,
      "d": 173.6105729166593,
      "v": 86
    },
    {
      "midi": 62,
      "hit": false,
      "t": 230356.42875000066,
      "d": 9.920604166662088,
      "v": 103
    },
    {
      "midi": 66,
      "hit": false,
      "t": 230356.42875000066,
      "d": 9.920604166662088,
      "v": 103
    },
    {
      "midi": 50,
      "hit": false,
      "t": 230356.4287500031,
      "d": 114.08694791665766,
      "v": 78
    },
    {
      "midi": 31,
      "hit": false,
      "t": 230475.47599999298,
      "d": 208.33268749999115,
      "v": 68
    },
    {
      "midi": 74,
      "hit": false,
      "t": 230475.47600000002,
      "d": 272.8166145833384,
      "v": 64
    },
    {
      "midi": 79,
      "hit": false,
      "t": 230475.47600000002,
      "d": 272.8166145833384,
      "v": 72
    },
    {
      "midi": 83,
      "hit": false,
      "t": 230475.47600000002,
      "d": 272.8166145833384,
      "v": 72
    },
    {
      "midi": 83,
      "hit": false,
      "t": 230475.4760000003,
      "d": 2.480151041672798,
      "v": 84
    },
    {
      "midi": 83,
      "hit": false,
      "t": 230475.4760000003,
      "d": 2.480151041672798,
      "v": 110
    },
    {
      "midi": 62,
      "hit": false,
      "t": 230475.47600000075,
      "d": 1899.7956979166775,
      "v": 58
    },
    {
      "midi": 67,
      "hit": false,
      "t": 230475.47600000075,
      "d": 1899.7956979166775,
      "v": 58
    },
    {
      "midi": 71,
      "hit": false,
      "t": 230475.47600000075,
      "d": 1899.7956979166775,
      "v": 58
    },
    {
      "midi": 74,
      "hit": false,
      "t": 230475.47600000075,
      "d": 272.8166145833384,
      "v": 90
    },
    {
      "midi": 79,
      "hit": false,
      "t": 230475.47600000075,
      "d": 272.8166145833384,
      "v": 100
    },
    {
      "midi": 83,
      "hit": false,
      "t": 230475.47600000075,
      "d": 272.8166145833384,
      "v": 100
    },
    {
      "midi": 62,
      "hit": false,
      "t": 230475.47600000075,
      "d": 272.8166145833384,
      "v": 90
    },
    {
      "midi": 67,
      "hit": false,
      "t": 230475.47600000075,
      "d": 272.8166145833384,
      "v": 100
    },
    {
      "midi": 71,
      "hit": false,
      "t": 230475.47600000075,
      "d": 272.8166145833384,
      "v": 100
    },
    {
      "midi": 43,
      "hit": false,
      "t": 230475.4760000031,
      "d": 114.08694791665766,
      "v": 78
    },
    {
      "midi": 31,
      "hit": false,
      "t": 230475.4760000041,
      "d": 173.6105729166593,
      "v": 76
    },
    {
      "midi": 83,
      "hit": false,
      "t": 230594.5232500003,
      "d": 2.480151041672798,
      "v": 91
    },
    {
      "midi": 83,
      "hit": false,
      "t": 230594.5232500003,
      "d": 2.480151041672798,
      "v": 110
    },
    {
      "midi": 43,
      "hit": false,
      "t": 230594.5232500031,
      "d": 114.08694791665766,
      "v": 78
    },
    {
      "midi": 31,
      "hit": false,
      "t": 230713.57049999296,
      "d": 208.33268749999115,
      "v": 68
    },
    {
      "midi": 83,
      "hit": false,
      "t": 230713.5705000003,
      "d": 2.480151041672798,
      "v": 88
    },
    {
      "midi": 83,
      "hit": false,
      "t": 230713.5705000003,
      "d": 2.480151041672798,
      "v": 110
    },
    {
      "midi": 67,
      "hit": false,
      "t": 230713.57050000067,
      "d": 9.920604166662088,
      "v": 103
    },
    {
      "midi": 71,
      "hit": false,
      "t": 230713.57050000067,
      "d": 9.920604166662088,
      "v": 103
    },
    {
      "midi": 55,
      "hit": false,
      "t": 230713.57050000312,
      "d": 114.08694791665766,
      "v": 78
    },
    {
      "midi": 43,
      "hit": false,
      "t": 230713.5705000041,
      "d": 173.6105729166593,
      "v": 82
    },
    {
      "midi": 83,
      "hit": false,
      "t": 230832.6177500003,
      "d": 2.480151041672798,
      "v": 91
    },
    {
      "midi": 83,
      "hit": false,
      "t": 230832.6177500003,
      "d": 2.480151041672798,
      "v": 110
    },
    {
      "midi": 67,
      "hit": false,
      "t": 230832.61775000067,
      "d": 9.920604166662088,
      "v": 103
    },
    {
      "midi": 71,
      "hit": false,
      "t": 230832.61775000067,
      "d": 9.920604166662088,
      "v": 103
    },
    {
      "midi": 55,
      "hit": false,
      "t": 230832.61775000312,
      "d": 114.08694791665766,
      "v": 78
    },
    {
      "midi": 31,
      "hit": false,
      "t": 230951.66499999294,
      "d": 208.33268749999115,
      "v": 68
    },
    {
      "midi": 83,
      "hit": false,
      "t": 230951.6650000003,
      "d": 2.480151041672798,
      "v": 87
    },
    {
      "midi": 83,
      "hit": false,
      "t": 230951.6650000003,
      "d": 2.480151041672798,
      "v": 110
    },
    {
      "midi": 43,
      "hit": false,
      "t": 230951.66500000312,
      "d": 114.08694791665766,
      "v": 78
    },
    {
      "midi": 31,
      "hit": false,
      "t": 230951.6650000041,
      "d": 173.6105729166593,
      "v": 62
    },
    {
      "midi": 83,
      "hit": false,
      "t": 231070.7122500003,
      "d": 2.480151041672798,
      "v": 87
    },
    {
      "midi": 83,
      "hit": false,
      "t": 231070.7122500003,
      "d": 2.480151041672798,
      "v": 110
    },
    {
      "midi": 43,
      "hit": false,
      "t": 231070.71225000313,
      "d": 114.08694791665766,
      "v": 78
    },
    {
      "midi": 31,
      "hit": false,
      "t": 231189.7594999929,
      "d": 208.33268749999115,
      "v": 68
    },
    {
      "midi": 83,
      "hit": false,
      "t": 231189.7595000003,
      "d": 2.480151041672798,
      "v": 89
    },
    {
      "midi": 83,
      "hit": false,
      "t": 231189.7595000003,
      "d": 2.480151041672798,
      "v": 110
    },
    {
      "midi": 67,
      "hit": false,
      "t": 231189.75950000068,
      "d": 9.920604166662088,
      "v": 103
    },
    {
      "midi": 71,
      "hit": false,
      "t": 231189.75950000068,
      "d": 9.920604166662088,
      "v": 103
    },
    {
      "midi": 55,
      "hit": false,
      "t": 231189.75950000313,
      "d": 114.08694791665766,
      "v": 78
    },
    {
      "midi": 43,
      "hit": false,
      "t": 231189.75950000412,
      "d": 173.6105729166593,
      "v": 78
    },
    {
      "midi": 83,
      "hit": false,
      "t": 231308.8067500003,
      "d": 2.480151041672798,
      "v": 91
    },
    {
      "midi": 83,
      "hit": false,
      "t": 231308.8067500003,
      "d": 2.480151041672798,
      "v": 110
    },
    {
      "midi": 67,
      "hit": false,
      "t": 231308.8067500007,
      "d": 9.920604166662088,
      "v": 103
    },
    {
      "midi": 71,
      "hit": false,
      "t": 231308.8067500007,
      "d": 9.920604166662088,
      "v": 103
    },
    {
      "midi": 55,
      "hit": false,
      "t": 231308.80675000313,
      "d": 114.08694791665766,
      "v": 78
    },
    {
      "midi": 31,
      "hit": false,
      "t": 231427.8539999929,
      "d": 208.33268749999115,
      "v": 68
    },
    {
      "midi": 83,
      "hit": false,
      "t": 231427.8540000003,
      "d": 2.480151041672798,
      "v": 91
    },
    {
      "midi": 83,
      "hit": false,
      "t": 231427.8540000003,
      "d": 2.480151041672798,
      "v": 110
    },
    {
      "midi": 43,
      "hit": false,
      "t": 231427.85400000314,
      "d": 114.08694791665766,
      "v": 78
    },
    {
      "midi": 31,
      "hit": false,
      "t": 231427.85400000412,
      "d": 173.6105729166593,
      "v": 67
    },
    {
      "midi": 83,
      "hit": false,
      "t": 231546.90125000032,
      "d": 2.480151041672798,
      "v": 92
    },
    {
      "midi": 83,
      "hit": false,
      "t": 231546.90125000032,
      "d": 2.480151041672798,
      "v": 110
    },
    {
      "midi": 43,
      "hit": false,
      "t": 231546.90125000314,
      "d": 114.08694791665766,
      "v": 78
    },
    {
      "midi": 31,
      "hit": false,
      "t": 231665.94849999287,
      "d": 208.33268749999115,
      "v": 68
    },
    {
      "midi": 83,
      "hit": false,
      "t": 231665.94850000032,
      "d": 2.480151041672798,
      "v": 96
    },
    {
      "midi": 83,
      "hit": false,
      "t": 231665.94850000032,
      "d": 2.480151041672798,
      "v": 110
    },
    {
      "midi": 67,
      "hit": false,
      "t": 231665.9485000007,
      "d": 9.920604166662088,
      "v": 103
    },
    {
      "midi": 71,
      "hit": false,
      "t": 231665.9485000007,
      "d": 9.920604166662088,
      "v": 103
    },
    {
      "midi": 55,
      "hit": false,
      "t": 231665.94850000314,
      "d": 114.08694791665766,
      "v": 78
    },
    {
      "midi": 43,
      "hit": false,
      "t": 231665.94850000413,
      "d": 173.6105729166593,
      "v": 70
    },
    {
      "midi": 83,
      "hit": false,
      "t": 231784.99575000032,
      "d": 2.480151041672798,
      "v": 92
    },
    {
      "midi": 83,
      "hit": false,
      "t": 231784.99575000032,
      "d": 2.480151041672798,
      "v": 110
    },
    {
      "midi": 67,
      "hit": false,
      "t": 231784.9957500007,
      "d": 9.920604166662088,
      "v": 103
    },
    {
      "midi": 71,
      "hit": false,
      "t": 231784.9957500007,
      "d": 9.920604166662088,
      "v": 103
    },
    {
      "midi": 55,
      "hit": false,
      "t": 231784.99575000315,
      "d": 114.08694791665766,
      "v": 78
    },
    {
      "midi": 31,
      "hit": false,
      "t": 231904.04299999285,
      "d": 208.33268749999115,
      "v": 68
    },
    {
      "midi": 83,
      "hit": false,
      "t": 231904.04300000033,
      "d": 2.480151041672798,
      "v": 96
    },
    {
      "midi": 83,
      "hit": false,
      "t": 231904.04300000033,
      "d": 2.480151041672798,
      "v": 110
    },
    {
      "midi": 43,
      "hit": false,
      "t": 231904.04300000315,
      "d": 114.08694791665766,
      "v": 78
    },
    {
      "midi": 31,
      "hit": false,
      "t": 231904.04300000414,
      "d": 173.6105729166593,
      "v": 56
    },
    {
      "midi": 83,
      "hit": false,
      "t": 232023.09025000033,
      "d": 2.480151041672798,
      "v": 96
    },
    {
      "midi": 83,
      "hit": false,
      "t": 232023.09025000033,
      "d": 2.480151041672798,
      "v": 110
    },
    {
      "midi": 43,
      "hit": false,
      "t": 232023.09025000315,
      "d": 114.08694791665766,
      "v": 78
    },
    {
      "midi": 31,
      "hit": false,
      "t": 232142.13749999282,
      "d": 208.33268749999115,
      "v": 68
    },
    {
      "midi": 83,
      "hit": false,
      "t": 232142.13750000033,
      "d": 2.480151041672798,
      "v": 98
    },
    {
      "midi": 83,
      "hit": false,
      "t": 232142.13750000033,
      "d": 2.480151041672798,
      "v": 110
    },
    {
      "midi": 67,
      "hit": false,
      "t": 232142.1375000007,
      "d": 9.920604166662088,
      "v": 103
    },
    {
      "midi": 71,
      "hit": false,
      "t": 232142.1375000007,
      "d": 9.920604166662088,
      "v": 103
    },
    {
      "midi": 55,
      "hit": false,
      "t": 232142.13750000315,
      "d": 114.08694791665766,
      "v": 78
    },
    {
      "midi": 43,
      "hit": false,
      "t": 232142.13750000414,
      "d": 173.6105729166593,
      "v": 70
    },
    {
      "midi": 83,
      "hit": false,
      "t": 232261.18475000034,
      "d": 2.480151041672798,
      "v": 101
    },
    {
      "midi": 83,
      "hit": false,
      "t": 232261.18475000034,
      "d": 2.480151041672798,
      "v": 110
    },
    {
      "midi": 67,
      "hit": false,
      "t": 232261.1847500007,
      "d": 9.920604166662088,
      "v": 103
    },
    {
      "midi": 71,
      "hit": false,
      "t": 232261.1847500007,
      "d": 9.920604166662088,
      "v": 103
    },
    {
      "midi": 55,
      "hit": false,
      "t": 232261.18475000316,
      "d": 114.08694791665766,
      "v": 78
    },
    {
      "midi": 38,
      "hit": false,
      "t": 232380.2319999928,
      "d": 208.33268749999115,
      "v": 68
    },
    {
      "midi": 74,
      "hit": false,
      "t": 232380.23200000002,
      "d": 186.01132812499418,
      "v": 54
    },
    {
      "midi": 78,
      "hit": false,
      "t": 232380.23200000002,
      "d": 186.01132812499418,
      "v": 57
    },
    {
      "midi": 81,
      "hit": false,
      "t": 232380.23200000002,
      "d": 186.01132812499418,
      "v": 49
    },
    {
      "midi": 74,
      "hit": false,
      "t": 232380.23200000075,
      "d": 173.6105729166593,
      "v": 76
    },
    {
      "midi": 78,
      "hit": false,
      "t": 232380.23200000075,
      "d": 173.6105729166593,
      "v": 80
    },
    {
      "midi": 81,
      "hit": false,
      "t": 232380.23200000075,
      "d": 173.6105729166593,
      "v": 70
    },
    {
      "midi": 62,
      "hit": false,
      "t": 232380.23200000075,
      "d": 173.6105729166593,
      "v": 76
    },
    {
      "midi": 66,
      "hit": false,
      "t": 232380.23200000075,
      "d": 173.6105729166593,
      "v": 80
    },
    {
      "midi": 69,
      "hit": false,
      "t": 232380.23200000075,
      "d": 173.6105729166593,
      "v": 70
    },
    {
      "midi": 62,
      "hit": false,
      "t": 232380.23200000077,
      "d": 1899.7956979166775,
      "v": 58
    },
    {
      "midi": 66,
      "hit": false,
      "t": 232380.23200000077,
      "d": 1899.7956979166775,
      "v": 58
    },
    {
      "midi": 69,
      "hit": false,
      "t": 232380.23200000077,
      "d": 1899.7956979166775,
      "v": 58
    },
    {
      "midi": 38,
      "hit": false,
      "t": 232380.23200000316,
      "d": 114.08694791665766,
      "v": 78
    },
    {
      "midi": 38,
      "hit": false,
      "t": 232380.23200000415,
      "d": 173.6105729166593,
      "v": 70
    },
    {
      "midi": 38,
      "hit": false,
      "t": 232499.27925000316,
      "d": 114.08694791665766,
      "v": 78
    },
    {
      "midi": 38,
      "hit": false,
      "t": 232618.32649999278,
      "d": 208.33268749999115,
      "v": 68
    },
    {
      "midi": 74,
      "hit": false,
      "t": 232618.32650000002,
      "d": 186.01132812499418,
      "v": 65
    },
    {
      "midi": 78,
      "hit": false,
      "t": 232618.32650000002,
      "d": 186.01132812499418,
      "v": 68
    },
    {
      "midi": 81,
      "hit": false,
      "t": 232618.32650000002,
      "d": 186.01132812499418,
      "v": 64
    },
    {
      "midi": 62,
      "hit": false,
      "t": 232618.32650000072,
      "d": 9.920604166662088,
      "v": 103
    },
    {
      "midi": 66,
      "hit": false,
      "t": 232618.32650000072,
      "d": 9.920604166662088,
      "v": 103
    },
    {
      "midi": 74,
      "hit": false,
      "t": 232618.32650000075,
      "d": 173.6105729166593,
      "v": 91
    },
    {
      "midi": 78,
      "hit": false,
      "t": 232618.32650000075,
      "d": 173.6105729166593,
      "v": 95
    },
    {
      "midi": 81,
      "hit": false,
      "t": 232618.32650000075,
      "d": 173.6105729166593,
      "v": 90
    },
    {
      "midi": 62,
      "hit": false,
      "t": 232618.32650000075,
      "d": 173.6105729166593,
      "v": 91
    },
    {
      "midi": 66,
      "hit": false,
      "t": 232618.32650000075,
      "d": 173.6105729166593,
      "v": 95
    },
    {
      "midi": 69,
      "hit": false,
      "t": 232618.32650000075,
      "d": 173.6105729166593,
      "v": 90
    },
    {
      "midi": 50,
      "hit": false,
      "t": 232618.32650000317,
      "d": 114.08694791665766,
      "v": 78
    },
    {
      "midi": 50,
      "hit": false,
      "t": 232618.32650000416,
      "d": 173.6105729166593,
      "v": 62
    },
    {
      "midi": 62,
      "hit": false,
      "t": 232737.37375000073,
      "d": 9.920604166662088,
      "v": 103
    },
    {
      "midi": 66,
      "hit": false,
      "t": 232737.37375000073,
      "d": 9.920604166662088,
      "v": 103
    },
    {
      "midi": 50,
      "hit": false,
      "t": 232737.37375000317,
      "d": 114.08694791665766,
      "v": 78
    },
    {
      "midi": 38,
      "hit": false,
      "t": 232856.42099999276,
      "d": 208.33268749999115,
      "v": 68
    },
    {
      "midi": 74,
      "hit": false,
      "t": 232856.42100000003,
      "d": 186.01132812499418,
      "v": 71
    },
    {
      "midi": 78,
      "hit": false,
      "t": 232856.42100000003,
      "d": 186.01132812499418,
      "v": 72
    },
    {
      "midi": 81,
      "hit": false,
      "t": 232856.42100000003,
      "d": 186.01132812499418,
      "v": 72
    },
    {
      "midi": 74,
      "hit": false,
      "t": 232856.42100000076,
      "d": 173.6105729166593,
      "v": 99
    },
    {
      "midi": 78,
      "hit": false,
      "t": 232856.42100000076,
      "d": 173.6105729166593,
      "v": 101
    },
    {
      "midi": 81,
      "hit": false,
      "t": 232856.42100000076,
      "d": 173.6105729166593,
      "v": 100
    },
    {
      "midi": 62,
      "hit": false,
      "t": 232856.42100000076,
      "d": 173.6105729166593,
      "v": 99
    },
    {
      "midi": 66,
      "hit": false,
      "t": 232856.42100000076,
      "d": 173.6105729166593,
      "v": 101
    },
    {
      "midi": 69,
      "hit": false,
      "t": 232856.42100000076,
      "d": 173.6105729166593,
      "v": 100
    },
    {
      "midi": 38,
      "hit": false,
      "t": 232856.42100000317,
      "d": 114.08694791665766,
      "v": 78
    },
    {
      "midi": 38,
      "hit": false,
      "t": 232856.42100000416,
      "d": 173.6105729166593,
      "v": 66
    },
    {
      "midi": 38,
      "hit": false,
      "t": 232975.46825000318,
      "d": 114.08694791665766,
      "v": 78
    },
    {
      "midi": 38,
      "hit": false,
      "t": 233094.51549999273,
      "d": 208.33268749999115,
      "v": 68
    },
    {
      "midi": 74,
      "hit": false,
      "t": 233094.51550000004,
      "d": 186.01132812499418,
      "v": 70
    },
    {
      "midi": 78,
      "hit": false,
      "t": 233094.51550000004,
      "d": 186.01132812499418,
      "v": 74
    },
    {
      "midi": 81,
      "hit": false,
      "t": 233094.51550000004,
      "d": 186.01132812499418,
      "v": 69
    },
    {
      "midi": 62,
      "hit": false,
      "t": 233094.51550000074,
      "d": 9.920604166662088,
      "v": 103
    },
    {
      "midi": 66,
      "hit": false,
      "t": 233094.51550000074,
      "d": 9.920604166662088,
      "v": 103
    },
    {
      "midi": 74,
      "hit": false,
      "t": 233094.51550000077,
      "d": 173.6105729166593,
      "v": 98
    },
    {
      "midi": 78,
      "hit": false,
      "t": 233094.51550000077,
      "d": 173.6105729166593,
      "v": 103
    },
    {
      "midi": 81,
      "hit": false,
      "t": 233094.51550000077,
      "d": 173.6105729166593,
      "v": 96
    },
    {
      "midi": 62,
      "hit": false,
      "t": 233094.51550000077,
      "d": 173.6105729166593,
      "v": 98
    },
    {
      "midi": 66,
      "hit": false,
      "t": 233094.51550000077,
      "d": 173.6105729166593,
      "v": 103
    },
    {
      "midi": 69,
      "hit": false,
      "t": 233094.51550000077,
      "d": 173.6105729166593,
      "v": 96
    },
    {
      "midi": 50,
      "hit": false,
      "t": 233094.51550000318,
      "d": 114.08694791665766,
      "v": 78
    },
    {
      "midi": 50,
      "hit": false,
      "t": 233094.51550000417,
      "d": 173.6105729166593,
      "v": 67
    },
    {
      "midi": 62,
      "hit": false,
      "t": 233213.56275000074,
      "d": 9.920604166662088,
      "v": 103
    },
    {
      "midi": 66,
      "hit": false,
      "t": 233213.56275000074,
      "d": 9.920604166662088,
      "v": 103
    },
    {
      "midi": 50,
      "hit": false,
      "t": 233213.56275000318,
      "d": 114.08694791665766,
      "v": 78
    },
    {
      "midi": 38,
      "hit": false,
      "t": 233332.6099999927,
      "d": 208.33268749999115,
      "v": 68
    },
    {
      "midi": 38,
      "hit": false,
      "t": 233332.6100000032,
      "d": 114.08694791665766,
      "v": 78
    },
    {
      "midi": 38,
      "hit": false,
      "t": 233332.61000000418,
      "d": 173.6105729166593,
      "v": 64
    },
    {
      "midi": 38,
      "hit": false,
      "t": 233451.6572500032,
      "d": 114.08694791665766,
      "v": 78
    },
    {
      "midi": 38,
      "hit": false,
      "t": 233570.7044999927,
      "d": 208.33268749999115,
      "v": 68
    },
    {
      "midi": 62,
      "hit": false,
      "t": 233570.70450000075,
      "d": 9.920604166662088,
      "v": 103
    },
    {
      "midi": 66,
      "hit": false,
      "t": 233570.70450000075,
      "d": 9.920604166662088,
      "v": 103
    },
    {
      "midi": 50,
      "hit": false,
      "t": 233570.7045000032,
      "d": 114.08694791665766,
      "v": 78
    },
    {
      "midi": 50,
      "hit": false,
      "t": 233570.70450000418,
      "d": 173.6105729166593,
      "v": 66
    },
    {
      "midi": 62,
      "hit": false,
      "t": 233689.75175000075,
      "d": 9.920604166662088,
      "v": 103
    },
    {
      "midi": 66,
      "hit": false,
      "t": 233689.75175000075,
      "d": 9.920604166662088,
      "v": 103
    },
    {
      "midi": 50,
      "hit": false,
      "t": 233689.7517500032,
      "d": 114.08694791665766,
      "v": 78
    },
    {
      "midi": 38,
      "hit": false,
      "t": 233808.79899999266,
      "d": 208.33268749999115,
      "v": 68
    },
    {
      "midi": 74,
      "hit": false,
      "t": 233808.79900000003,
      "d": 272.8166145833384,
      "v": 68
    },
    {
      "midi": 78,
      "hit": false,
      "t": 233808.79900000003,
      "d": 272.8166145833384,
      "v": 67
    },
    {
      "midi": 83,
      "hit": false,
      "t": 233808.79900000003,
      "d": 272.8166145833384,
      "v": 72
    },
    {
      "midi": 74,
      "hit": false,
      "t": 233808.79900000076,
      "d": 272.8166145833384,
      "v": 95
    },
    {
      "midi": 78,
      "hit": false,
      "t": 233808.79900000076,
      "d": 272.8166145833384,
      "v": 94
    },
    {
      "midi": 83,
      "hit": false,
      "t": 233808.79900000076,
      "d": 272.8166145833384,
      "v": 100
    },
    {
      "midi": 62,
      "hit": false,
      "t": 233808.79900000076,
      "d": 272.8166145833384,
      "v": 95
    },
    {
      "midi": 66,
      "hit": false,
      "t": 233808.79900000076,
      "d": 272.8166145833384,
      "v": 94
    },
    {
      "midi": 71,
      "hit": false,
      "t": 233808.79900000076,
      "d": 272.8166145833384,
      "v": 100
    },
    {
      "midi": 38,
      "hit": false,
      "t": 233808.7990000032,
      "d": 114.08694791665766,
      "v": 78
    },
    {
      "midi": 38,
      "hit": false,
      "t": 233808.7990000042,
      "d": 173.6105729166593,
      "v": 62
    },
    {
      "midi": 38,
      "hit": false,
      "t": 233927.8462500032,
      "d": 114.08694791665766,
      "v": 78
    },
    {
      "midi": 38,
      "hit": false,
      "t": 234046.89349999264,
      "d": 208.33268749999115,
      "v": 68
    },
    {
      "midi": 62,
      "hit": false,
      "t": 234046.89350000076,
      "d": 9.920604166662088,
      "v": 103
    },
    {
      "midi": 66,
      "hit": false,
      "t": 234046.89350000076,
      "d": 9.920604166662088,
      "v": 103
    },
    {
      "midi": 50,
      "hit": false,
      "t": 234046.8935000032,
      "d": 114.08694791665766,
      "v": 78
    },
    {
      "midi": 50,
      "hit": false,
      "t": 234046.8935000042,
      "d": 173.6105729166593,
      "v": 73
    },
    {
      "midi": 62,
      "hit": false,
      "t": 234165.94075000077,
      "d": 9.920604166662088,
      "v": 103
    },
    {
      "midi": 66,
      "hit": false,
      "t": 234165.94075000077,
      "d": 9.920604166662088,
      "v": 103
    },
    {
      "midi": 50,
      "hit": false,
      "t": 234165.9407500032,
      "d": 114.08694791665766,
      "v": 78
    },
    {
      "midi": 40,
      "hit": false,
      "t": 234284.98799999262,
      "d": 208.33268749999115,
      "v": 68
    },
    {
      "midi": 71,
      "hit": false,
      "t": 234284.98800000004,
      "d": 272.8166145833384,
      "v": 63
    },
    {
      "midi": 76,
      "hit": false,
      "t": 234284.98800000004,
      "d": 272.8166145833384,
      "v": 74
    },
    {
      "midi": 79,
      "hit": false,
      "t": 234284.98800000004,
      "d": 272.8166145833384,
      "v": 75
    },
    {
      "midi": 71,
      "hit": false,
      "t": 234284.98800000077,
      "d": 272.8166145833384,
      "v": 88
    },
    {
      "midi": 76,
      "hit": false,
      "t": 234284.98800000077,
      "d": 272.8166145833384,
      "v": 103
    },
    {
      "midi": 79,
      "hit": false,
      "t": 234284.98800000077,
      "d": 272.8166145833384,
      "v": 105
    },
    {
      "midi": 59,
      "hit": false,
      "t": 234284.98800000077,
      "d": 272.8166145833384,
      "v": 88
    },
    {
      "midi": 64,
      "hit": false,
      "t": 234284.98800000077,
      "d": 272.8166145833384,
      "v": 103
    },
    {
      "midi": 67,
      "hit": false,
      "t": 234284.98800000077,
      "d": 272.8166145833384,
      "v": 105
    },
    {
      "midi": 64,
      "hit": false,
      "t": 234284.9880000008,
      "d": 947.4176979166805,
      "v": 58
    },
    {
      "midi": 67,
      "hit": false,
      "t": 234284.9880000008,
      "d": 1899.7956979167066,
      "v": 58
    },
    {
      "midi": 71,
      "hit": false,
      "t": 234284.9880000008,
      "d": 1899.7956979167066,
      "v": 58
    },
    {
      "midi": 40,
      "hit": false,
      "t": 234284.9880000032,
      "d": 114.08694791665766,
      "v": 78
    },
    {
      "midi": 40,
      "hit": false,
      "t": 234284.9880000042,
      "d": 173.6105729166593,
      "v": 73
    },
    {
      "midi": 40,
      "hit": false,
      "t": 234404.03525000322,
      "d": 114.08694791665766,
      "v": 78
    },
    {
      "midi": 40,
      "hit": false,
      "t": 234523.0824999926,
      "d": 208.33268749999115,
      "v": 68
    },
    {
      "midi": 64,
      "hit": false,
      "t": 234523.08250000078,
      "d": 9.920604166662088,
      "v": 103
    },
    {
      "midi": 67,
      "hit": false,
      "t": 234523.08250000078,
      "d": 9.920604166662088,
      "v": 103
    },
    {
      "midi": 52,
      "hit": false,
      "t": 234523.08250000322,
      "d": 114.08694791665766,
      "v": 78
    },
    {
      "midi": 52,
      "hit": false,
      "t": 234523.0825000042,
      "d": 173.6105729166593,
      "v": 64
    },
    {
      "midi": 64,
      "hit": false,
      "t": 234642.12975000078,
      "d": 9.920604166662088,
      "v": 103
    },
    {
      "midi": 67,
      "hit": false,
      "t": 234642.12975000078,
      "d": 9.920604166662088,
      "v": 103
    },
    {
      "midi": 52,
      "hit": false,
      "t": 234642.12975000322,
      "d": 114.08694791665766,
      "v": 78
    },
    {
      "midi": 40,
      "hit": false,
      "t": 234761.17699999257,
      "d": 208.33268749999115,
      "v": 68
    },
    {
      "midi": 40,
      "hit": false,
      "t": 234761.17700000323,
      "d": 114.08694791665766,
      "v": 78
    },
    {
      "midi": 40,
      "hit": false,
      "t": 234761.17700000422,
      "d": 173.6105729166593,
      "v": 62
    },
    {
      "midi": 40,
      "hit": false,
      "t": 234880.22425000323,
      "d": 114.08694791665766,
      "v": 78
    },
    {
      "midi": 40,
      "hit": false,
      "t": 234999.27149999255,
      "d": 208.33268749999115,
      "v": 68
    },
    {
      "midi": 64,
      "hit": false,
      "t": 234999.2715000008,
      "d": 9.920604166662088,
      "v": 103
    },
    {
      "midi": 67,
      "hit": false,
      "t": 234999.2715000008,
      "d": 9.920604166662088,
      "v": 103
    },
    {
      "midi": 52,
      "hit": false,
      "t": 234999.27150000323,
      "d": 114.08694791665766,
      "v": 78
    },
    {
      "midi": 52,
      "hit": false,
      "t": 234999.27150000422,
      "d": 173.6105729166593,
      "v": 80
    },
    {
      "midi": 64,
      "hit": false,
      "t": 235118.3187500008,
      "d": 9.920604166662088,
      "v": 103
    },
    {
      "midi": 67,
      "hit": false,
      "t": 235118.3187500008,
      "d": 9.920604166662088,
      "v": 103
    },
    {
      "midi": 52,
      "hit": false,
      "t": 235118.31875000324,
      "d": 114.08694791665766,
      "v": 78
    },
    {
      "midi": 38,
      "hit": false,
      "t": 235237.36599999253,
      "d": 208.33268749999115,
      "v": 68
    },
    {
      "midi": 62,
      "hit": false,
      "t": 235237.36600000082,
      "d": 947.4176979166805,
      "v": 58
    },
    {
      "midi": 38,
      "hit": false,
      "t": 235237.36600000324,
      "d": 114.08694791665766,
      "v": 78
    },
    {
      "midi": 38,
      "hit": false,
      "t": 235237.36600000423,
      "d": 173.6105729166593,
      "v": 58
    },
    {
      "midi": 38,
      "hit": false,
      "t": 235356.41325000324,
      "d": 114.08694791665766,
      "v": 78
    },
    {
      "midi": 38,
      "hit": false,
      "t": 235475.4604999925,
      "d": 208.33268749999115,
      "v": 68
    },
    {
      "midi": 62,
      "hit": false,
      "t": 235475.4605000008,
      "d": 9.920604166662088,
      "v": 103
    },
    {
      "midi": 66,
      "hit": false,
      "t": 235475.4605000008,
      "d": 9.920604166662088,
      "v": 103
    },
    {
      "midi": 50,
      "hit": false,
      "t": 235475.46050000325,
      "d": 114.08694791665766,
      "v": 78
    },
    {
      "midi": 50,
      "hit": false,
      "t": 235475.46050000424,
      "d": 173.6105729166593,
      "v": 72
    },
    {
      "midi": 62,
      "hit": false,
      "t": 235594.5077500008,
      "d": 9.920604166662088,
      "v": 103
    },
    {
      "midi": 66,
      "hit": false,
      "t": 235594.5077500008,
      "d": 9.920604166662088,
      "v": 103
    },
    {
      "midi": 50,
      "hit": false,
      "t": 235594.50775000325,
      "d": 114.08694791665766,
      "v": 78
    },
    {
      "midi": 38,
      "hit": false,
      "t": 235713.55499999248,
      "d": 208.33268749999115,
      "v": 68
    },
    {
      "midi": 38,
      "hit": false,
      "t": 235713.55500000325,
      "d": 114.08694791665766,
      "v": 78
    },
    {
      "midi": 38,
      "hit": false,
      "t": 235713.55500000424,
      "d": 173.6105729166593,
      "v": 59
    },
    {
      "midi": 38,
      "hit": false,
      "t": 235832.60225000326,
      "d": 114.08694791665766,
      "v": 78
    },
    {
      "midi": 38,
      "hit": false,
      "t": 235951.64949999246,
      "d": 208.33268749999115,
      "v": 68
    },
    {
      "midi": 62,
      "hit": false,
      "t": 235951.6495000008,
      "d": 9.920604166662088,
      "v": 103
    },
    {
      "midi": 66,
      "hit": false,
      "t": 235951.6495000008,
      "d": 9.920604166662088,
      "v": 103
    },
    {
      "midi": 50,
      "hit": false,
      "t": 235951.64950000326,
      "d": 114.08694791665766,
      "v": 78
    },
    {
      "midi": 50,
      "hit": false,
      "t": 235951.64950000425,
      "d": 173.6105729166593,
      "v": 70
    },
    {
      "midi": 62,
      "hit": false,
      "t": 236070.69675000082,
      "d": 9.920604166662088,
      "v": 103
    },
    {
      "midi": 66,
      "hit": false,
      "t": 236070.69675000082,
      "d": 9.920604166662088,
      "v": 103
    },
    {
      "midi": 50,
      "hit": false,
      "t": 236070.69675000326,
      "d": 114.08694791665766,
      "v": 78
    },
    {
      "midi": 36,
      "hit": false,
      "t": 236189.74399999244,
      "d": 208.33268749999115,
      "v": 68
    },
    {
      "midi": 72,
      "hit": false,
      "t": 236189.74400000004,
      "d": 186.01132812499418,
      "v": 59
    },
    {
      "midi": 76,
      "hit": false,
      "t": 236189.74400000004,
      "d": 186.01132812499418,
      "v": 66
    },
    {
      "midi": 79,
      "hit": false,
      "t": 236189.74400000004,
      "d": 186.01132812499418,
      "v": 67
    },
    {
      "midi": 72,
      "hit": false,
      "t": 236189.74400000076,
      "d": 173.6105729166593,
      "v": 83
    },
    {
      "midi": 76,
      "hit": false,
      "t": 236189.74400000076,
      "d": 173.6105729166593,
      "v": 93
    },
    {
      "midi": 79,
      "hit": false,
      "t": 236189.74400000076,
      "d": 173.6105729166593,
      "v": 94
    },
    {
      "midi": 60,
      "hit": false,
      "t": 236189.74400000076,
      "d": 173.6105729166593,
      "v": 83
    },
    {
      "midi": 64,
      "hit": false,
      "t": 236189.74400000076,
      "d": 173.6105729166593,
      "v": 93
    },
    {
      "midi": 67,
      "hit": false,
      "t": 236189.74400000076,
      "d": 173.6105729166593,
      "v": 94
    },
    {
      "midi": 64,
      "hit": false,
      "t": 236189.74400000085,
      "d": 1423.6066979166644,
      "v": 58
    },
    {
      "midi": 67,
      "hit": false,
      "t": 236189.74400000085,
      "d": 1423.6066979166644,
      "v": 58
    },
    {
      "midi": 72,
      "hit": false,
      "t": 236189.74400000085,
      "d": 1423.6066979166644,
      "v": 58
    },
    {
      "midi": 36,
      "hit": false,
      "t": 236189.74400000327,
      "d": 114.08694791665766,
      "v": 78
    },
    {
      "midi": 36,
      "hit": false,
      "t": 236189.74400000426,
      "d": 173.6105729166593,
      "v": 74
    },
    {
      "midi": 36,
      "hit": false,
      "t": 236308.79125000327,
      "d": 114.08694791665766,
      "v": 78
    },
    {
      "midi": 36,
      "hit": false,
      "t": 236427.83849999242,
      "d": 208.33268749999115,
      "v": 68
    },
    {
      "midi": 72,
      "hit": false,
      "t": 236427.83850000004,
      "d": 186.01132812499418,
      "v": 71
    },
    {
      "midi": 76,
      "hit": false,
      "t": 236427.83850000004,
      "d": 186.01132812499418,
      "v": 79
    },
    {
      "midi": 79,
      "hit": false,
      "t": 236427.83850000004,
      "d": 186.01132812499418,
      "v": 74
    },
    {
      "midi": 72,
      "hit": false,
      "t": 236427.83850000077,
      "d": 173.6105729166593,
      "v": 99
    },
    {
      "midi": 76,
      "hit": false,
      "t": 236427.83850000077,
      "d": 173.6105729166593,
      "v": 110
    },
    {
      "midi": 79,
      "hit": false,
      "t": 236427.83850000077,
      "d": 173.6105729166593,
      "v": 103
    },
    {
      "midi": 60,
      "hit": false,
      "t": 236427.83850000077,
      "d": 173.6105729166593,
      "v": 99
    },
    {
      "midi": 64,
      "hit": false,
      "t": 236427.83850000077,
      "d": 173.6105729166593,
      "v": 110
    },
    {
      "midi": 67,
      "hit": false,
      "t": 236427.83850000077,
      "d": 173.6105729166593,
      "v": 103
    },
    {
      "midi": 60,
      "hit": false,
      "t": 236427.83850000083,
      "d": 9.920604166662088,
      "v": 103
    },
    {
      "midi": 64,
      "hit": false,
      "t": 236427.83850000083,
      "d": 9.920604166662088,
      "v": 103
    },
    {
      "midi": 48,
      "hit": false,
      "t": 236427.83850000327,
      "d": 114.08694791665766,
      "v": 78
    },
    {
      "midi": 48,
      "hit": false,
      "t": 236427.83850000426,
      "d": 173.6105729166593,
      "v": 70
    },
    {
      "midi": 60,
      "hit": false,
      "t": 236546.88575000083,
      "d": 9.920604166662088,
      "v": 103
    },
    {
      "midi": 64,
      "hit": false,
      "t": 236546.88575000083,
      "d": 9.920604166662088,
      "v": 103
    },
    {
      "midi": 48,
      "hit": false,
      "t": 236546.88575000328,
      "d": 114.08694791665766,
      "v": 78
    },
    {
      "midi": 36,
      "hit": false,
      "t": 236665.9329999924,
      "d": 208.33268749999115,
      "v": 68
    },
    {
      "midi": 72,
      "hit": false,
      "t": 236665.93300000005,
      "d": 186.01132812499418,
      "v": 74
    },
    {
      "midi": 76,
      "hit": false,
      "t": 236665.93300000005,
      "d": 186.01132812499418,
      "v": 75
    },
    {
      "midi": 79,
      "hit": false,
      "t": 236665.93300000005,
      "d": 186.01132812499418,
      "v": 74
    },
    {
      "midi": 72,
      "hit": false,
      "t": 236665.93300000078,
      "d": 173.6105729166593,
      "v": 103
    },
    {
      "midi": 76,
      "hit": false,
      "t": 236665.93300000078,
      "d": 173.6105729166593,
      "v": 105
    },
    {
      "midi": 79,
      "hit": false,
      "t": 236665.93300000078,
      "d": 173.6105729166593,
      "v": 103
    },
    {
      "midi": 60,
      "hit": false,
      "t": 236665.93300000078,
      "d": 173.6105729166593,
      "v": 103
    },
    {
      "midi": 64,
      "hit": false,
      "t": 236665.93300000078,
      "d": 173.6105729166593,
      "v": 105
    },
    {
      "midi": 67,
      "hit": false,
      "t": 236665.93300000078,
      "d": 173.6105729166593,
      "v": 103
    },
    {
      "midi": 36,
      "hit": false,
      "t": 236665.93300000328,
      "d": 114.08694791665766,
      "v": 78
    },
    {
      "midi": 36,
      "hit": false,
      "t": 236665.93300000427,
      "d": 173.6105729166593,
      "v": 64
    },
    {
      "midi": 36,
      "hit": false,
      "t": 236784.98025000328,
      "d": 114.08694791665766,
      "v": 78
    },
    {
      "midi": 36,
      "hit": false,
      "t": 236904.02749999237,
      "d": 208.33268749999115,
      "v": 68
    },
    {
      "midi": 72,
      "hit": false,
      "t": 236904.02750000005,
      "d": 186.01132812499418,
      "v": 71
    },
    {
      "midi": 76,
      "hit": false,
      "t": 236904.02750000005,
      "d": 186.01132812499418,
      "v": 72
    },
    {
      "midi": 79,
      "hit": false,
      "t": 236904.02750000005,
      "d": 186.01132812499418,
      "v": 72
    },
    {
      "midi": 72,
      "hit": false,
      "t": 236904.02750000078,
      "d": 173.6105729166593,
      "v": 99
    },
    {
      "midi": 76,
      "hit": false,
      "t": 236904.02750000078,
      "d": 173.6105729166593,
      "v": 101
    },
    {
      "midi": 79,
      "hit": false,
      "t": 236904.02750000078,
      "d": 173.6105729166593,
      "v": 100
    },
    {
      "midi": 60,
      "hit": false,
      "t": 236904.02750000078,
      "d": 173.6105729166593,
      "v": 99
    },
    {
      "midi": 64,
      "hit": false,
      "t": 236904.02750000078,
      "d": 173.6105729166593,
      "v": 101
    },
    {
      "midi": 67,
      "hit": false,
      "t": 236904.02750000078,
      "d": 173.6105729166593,
      "v": 100
    },
    {
      "midi": 60,
      "hit": false,
      "t": 236904.02750000084,
      "d": 9.920604166662088,
      "v": 103
    },
    {
      "midi": 64,
      "hit": false,
      "t": 236904.02750000084,
      "d": 9.920604166662088,
      "v": 103
    },
    {
      "midi": 48,
      "hit": false,
      "t": 236904.02750000329,
      "d": 114.08694791665766,
      "v": 78
    },
    {
      "midi": 48,
      "hit": false,
      "t": 236904.02750000427,
      "d": 173.6105729166593,
      "v": 74
    },
    {
      "midi": 60,
      "hit": false,
      "t": 237023.07475000084,
      "d": 9.920604166662088,
      "v": 103
    },
    {
      "midi": 64,
      "hit": false,
      "t": 237023.07475000084,
      "d": 9.920604166662088,
      "v": 103
    },
    {
      "midi": 48,
      "hit": false,
      "t": 237023.0747500033,
      "d": 114.08694791665766,
      "v": 78
    },
    {
      "midi": 36,
      "hit": false,
      "t": 237142.12199999235,
      "d": 208.33268749999115,
      "v": 68
    },
    {
      "midi": 36,
      "hit": false,
      "t": 237142.1220000033,
      "d": 114.08694791665766,
      "v": 78
    },
    {
      "midi": 36,
      "hit": false,
      "t": 237142.12200000428,
      "d": 173.6105729166593,
      "v": 50
    },
    {
      "midi": 36,
      "hit": false,
      "t": 237261.1692500033,
      "d": 114.08694791665766,
      "v": 78
    },
    {
      "midi": 36,
      "hit": false,
      "t": 237380.21649999233,
      "d": 208.33268749999115,
      "v": 68
    },
    {
      "midi": 60,
      "hit": false,
      "t": 237380.21650000085,
      "d": 9.920604166662088,
      "v": 103
    },
    {
      "midi": 64,
      "hit": false,
      "t": 237380.21650000085,
      "d": 9.920604166662088,
      "v": 103
    },
    {
      "midi": 48,
      "hit": false,
      "t": 237380.2165000033,
      "d": 114.08694791665766,
      "v": 78
    },
    {
      "midi": 48,
      "hit": false,
      "t": 237380.2165000043,
      "d": 173.6105729166593,
      "v": 73
    },
    {
      "midi": 60,
      "hit": false,
      "t": 237499.26375000086,
      "d": 9.920604166662088,
      "v": 103
    },
    {
      "midi": 64,
      "hit": false,
      "t": 237499.26375000086,
      "d": 9.920604166662088,
      "v": 103
    },
    {
      "midi": 48,
      "hit": false,
      "t": 237499.2637500033,
      "d": 114.08694791665766,
      "v": 78
    },
    {
      "midi": 38,
      "hit": false,
      "t": 237618.3109999923,
      "d": 208.33268749999115,
      "v": 68
    },
    {
      "midi": 74,
      "hit": false,
      "t": 237618.31100000005,
      "d": 272.8166145833384,
      "v": 70
    },
    {
      "midi": 78,
      "hit": false,
      "t": 237618.31100000005,
      "d": 272.8166145833384,
      "v": 76
    },
    {
      "midi": 81,
      "hit": false,
      "t": 237618.31100000005,
      "d": 272.8166145833384,
      "v": 75
    },
    {
      "midi": 74,
      "hit": false,
      "t": 237618.31100000077,
      "d": 272.8166145833384,
      "v": 98
    },
    {
      "midi": 78,
      "hit": false,
      "t": 237618.31100000077,
      "d": 272.8166145833384,
      "v": 106
    },
    {
      "midi": 81,
      "hit": false,
      "t": 237618.31100000077,
      "d": 272.8166145833384,
      "v": 104
    },
    {
      "midi": 62,
      "hit": false,
      "t": 237618.31100000077,
      "d": 272.8166145833384,
      "v": 98
    },
    {
      "midi": 66,
      "hit": false,
      "t": 237618.31100000077,
      "d": 272.8166145833384,
      "v": 106
    },
    {
      "midi": 69,
      "hit": false,
      "t": 237618.31100000077,
      "d": 272.8166145833384,
      "v": 104
    },
    {
      "midi": 66,
      "hit": false,
      "t": 237618.31100000086,
      "d": 471.22869791666744,
      "v": 58
    },
    {
      "midi": 69,
      "hit": false,
      "t": 237618.31100000086,
      "d": 471.22869791666744,
      "v": 58
    },
    {
      "midi": 74,
      "hit": false,
      "t": 237618.31100000086,
      "d": 471.22869791666744,
      "v": 58
    },
    {
      "midi": 38,
      "hit": false,
      "t": 237618.3110000033,
      "d": 114.08694791665766,
      "v": 78
    },
    {
      "midi": 38,
      "hit": false,
      "t": 237618.3110000043,
      "d": 173.6105729166593,
      "v": 66
    },
    {
      "midi": 38,
      "hit": false,
      "t": 237737.3582500033,
      "d": 114.08694791665766,
      "v": 78
    },
    {
      "midi": 38,
      "hit": false,
      "t": 237856.40549999228,
      "d": 208.33268749999115,
      "v": 68
    },
    {
      "midi": 62,
      "hit": false,
      "t": 237856.40550000087,
      "d": 9.920604166662088,
      "v": 103
    },
    {
      "midi": 66,
      "hit": false,
      "t": 237856.40550000087,
      "d": 9.920604166662088,
      "v": 103
    },
    {
      "midi": 50,
      "hit": false,
      "t": 237856.4055000033,
      "d": 114.08694791665766,
      "v": 78
    },
    {
      "midi": 50,
      "hit": false,
      "t": 237856.4055000043,
      "d": 173.6105729166593,
      "v": 86
    },
    {
      "midi": 62,
      "hit": false,
      "t": 237975.45275000087,
      "d": 9.920604166662088,
      "v": 103
    },
    {
      "midi": 66,
      "hit": false,
      "t": 237975.45275000087,
      "d": 9.920604166662088,
      "v": 103
    },
    {
      "midi": 50,
      "hit": false,
      "t": 237975.45275000331,
      "d": 114.08694791665766,
      "v": 78
    },
    {
      "midi": 36,
      "hit": false,
      "t": 238094.49999999226,
      "d": 208.33268749999115,
      "v": 68
    },
    {
      "midi": 72,
      "hit": false,
      "t": 238094.50000000006,
      "d": 186.01132812499418,
      "v": 59
    },
    {
      "midi": 76,
      "hit": false,
      "t": 238094.50000000006,
      "d": 186.01132812499418,
      "v": 66
    },
    {
      "midi": 79,
      "hit": false,
      "t": 238094.50000000006,
      "d": 186.01132812499418,
      "v": 67
    },
    {
      "midi": 72,
      "hit": false,
      "t": 238094.5000000008,
      "d": 173.6105729166593,
      "v": 83
    },
    {
      "midi": 76,
      "hit": false,
      "t": 238094.5000000008,
      "d": 173.6105729166593,
      "v": 93
    },
    {
      "midi": 79,
      "hit": false,
      "t": 238094.5000000008,
      "d": 173.6105729166593,
      "v": 94
    },
    {
      "midi": 60,
      "hit": false,
      "t": 238094.5000000008,
      "d": 173.6105729166593,
      "v": 83
    },
    {
      "midi": 64,
      "hit": false,
      "t": 238094.5000000008,
      "d": 173.6105729166593,
      "v": 93
    },
    {
      "midi": 67,
      "hit": false,
      "t": 238094.5000000008,
      "d": 173.6105729166593,
      "v": 94
    },
    {
      "midi": 64,
      "hit": false,
      "t": 238094.50000000087,
      "d": 1423.6066979166644,
      "v": 58
    },
    {
      "midi": 67,
      "hit": false,
      "t": 238094.50000000087,
      "d": 1423.6066979166644,
      "v": 58
    },
    {
      "midi": 72,
      "hit": false,
      "t": 238094.50000000087,
      "d": 1423.6066979166644,
      "v": 58
    },
    {
      "midi": 36,
      "hit": false,
      "t": 238094.50000000332,
      "d": 114.08694791665766,
      "v": 78
    },
    {
      "midi": 36,
      "hit": false,
      "t": 238094.5000000043,
      "d": 173.6105729166593,
      "v": 74
    },
    {
      "midi": 36,
      "hit": false,
      "t": 238213.54725000332,
      "d": 114.08694791665766,
      "v": 78
    },
    {
      "midi": 36,
      "hit": false,
      "t": 238332.59449999224,
      "d": 208.33268749999115,
      "v": 68
    },
    {
      "midi": 72,
      "hit": false,
      "t": 238332.59450000006,
      "d": 186.01132812499418,
      "v": 71
    },
    {
      "midi": 76,
      "hit": false,
      "t": 238332.59450000006,
      "d": 186.01132812499418,
      "v": 79
    },
    {
      "midi": 79,
      "hit": false,
      "t": 238332.59450000006,
      "d": 186.01132812499418,
      "v": 74
    },
    {
      "midi": 72,
      "hit": false,
      "t": 238332.5945000008,
      "d": 173.6105729166593,
      "v": 99
    },
    {
      "midi": 76,
      "hit": false,
      "t": 238332.5945000008,
      "d": 173.6105729166593,
      "v": 110
    },
    {
      "midi": 79,
      "hit": false,
      "t": 238332.5945000008,
      "d": 173.6105729166593,
      "v": 103
    },
    {
      "midi": 60,
      "hit": false,
      "t": 238332.5945000008,
      "d": 173.6105729166593,
      "v": 99
    },
    {
      "midi": 64,
      "hit": false,
      "t": 238332.5945000008,
      "d": 173.6105729166593,
      "v": 110
    },
    {
      "midi": 67,
      "hit": false,
      "t": 238332.5945000008,
      "d": 173.6105729166593,
      "v": 103
    },
    {
      "midi": 60,
      "hit": false,
      "t": 238332.59450000088,
      "d": 9.920604166662088,
      "v": 103
    },
    {
      "midi": 64,
      "hit": false,
      "t": 238332.59450000088,
      "d": 9.920604166662088,
      "v": 103
    },
    {
      "midi": 48,
      "hit": false,
      "t": 238332.59450000332,
      "d": 114.08694791665766,
      "v": 78
    },
    {
      "midi": 48,
      "hit": false,
      "t": 238332.5945000043,
      "d": 173.6105729166593,
      "v": 70
    },
    {
      "midi": 60,
      "hit": false,
      "t": 238451.64175000088,
      "d": 9.920604166662088,
      "v": 103
    },
    {
      "midi": 64,
      "hit": false,
      "t": 238451.64175000088,
      "d": 9.920604166662088,
      "v": 103
    },
    {
      "midi": 48,
      "hit": false,
      "t": 238451.64175000333,
      "d": 114.08694791665766,
      "v": 78
    },
    {
      "midi": 36,
      "hit": false,
      "t": 238570.6889999922,
      "d": 208.33268749999115,
      "v": 68
    },
    {
      "midi": 72,
      "hit": false,
      "t": 238570.68900000007,
      "d": 186.01132812499418,
      "v": 74
    },
    {
      "midi": 76,
      "hit": false,
      "t": 238570.68900000007,
      "d": 186.01132812499418,
      "v": 75
    },
    {
      "midi": 79,
      "hit": false,
      "t": 238570.68900000007,
      "d": 186.01132812499418,
      "v": 74
    },
    {
      "midi": 72,
      "hit": false,
      "t": 238570.6890000008,
      "d": 173.6105729166593,
      "v": 103
    },
    {
      "midi": 76,
      "hit": false,
      "t": 238570.6890000008,
      "d": 173.6105729166593,
      "v": 105
    },
    {
      "midi": 79,
      "hit": false,
      "t": 238570.6890000008,
      "d": 173.6105729166593,
      "v": 103
    },
    {
      "midi": 60,
      "hit": false,
      "t": 238570.6890000008,
      "d": 173.6105729166593,
      "v": 103
    },
    {
      "midi": 64,
      "hit": false,
      "t": 238570.6890000008,
      "d": 173.6105729166593,
      "v": 105
    },
    {
      "midi": 67,
      "hit": false,
      "t": 238570.6890000008,
      "d": 173.6105729166593,
      "v": 103
    },
    {
      "midi": 36,
      "hit": false,
      "t": 238570.68900000333,
      "d": 114.08694791665766,
      "v": 78
    },
    {
      "midi": 36,
      "hit": false,
      "t": 238570.68900000432,
      "d": 173.6105729166593,
      "v": 64
    },
    {
      "midi": 36,
      "hit": false,
      "t": 238689.73625000333,
      "d": 114.08694791665766,
      "v": 78
    },
    {
      "midi": 36,
      "hit": false,
      "t": 238808.7834999922,
      "d": 208.33268749999115,
      "v": 68
    },
    {
      "midi": 72,
      "hit": false,
      "t": 238808.78350000008,
      "d": 186.01132812499418,
      "v": 71
    },
    {
      "midi": 76,
      "hit": false,
      "t": 238808.78350000008,
      "d": 186.01132812499418,
      "v": 72
    },
    {
      "midi": 79,
      "hit": false,
      "t": 238808.78350000008,
      "d": 186.01132812499418,
      "v": 72
    },
    {
      "midi": 72,
      "hit": false,
      "t": 238808.7835000008,
      "d": 173.6105729166593,
      "v": 99
    },
    {
      "midi": 76,
      "hit": false,
      "t": 238808.7835000008,
      "d": 173.6105729166593,
      "v": 101
    },
    {
      "midi": 79,
      "hit": false,
      "t": 238808.7835000008,
      "d": 173.6105729166593,
      "v": 100
    },
    {
      "midi": 60,
      "hit": false,
      "t": 238808.7835000008,
      "d": 173.6105729166593,
      "v": 99
    },
    {
      "midi": 64,
      "hit": false,
      "t": 238808.7835000008,
      "d": 173.6105729166593,
      "v": 101
    },
    {
      "midi": 67,
      "hit": false,
      "t": 238808.7835000008,
      "d": 173.6105729166593,
      "v": 100
    },
    {
      "midi": 60,
      "hit": false,
      "t": 238808.7835000009,
      "d": 9.920604166662088,
      "v": 103
    },
    {
      "midi": 64,
      "hit": false,
      "t": 238808.7835000009,
      "d": 9.920604166662088,
      "v": 103
    },
    {
      "midi": 48,
      "hit": false,
      "t": 238808.78350000334,
      "d": 114.08694791665766,
      "v": 78
    },
    {
      "midi": 48,
      "hit": false,
      "t": 238808.78350000433,
      "d": 173.6105729166593,
      "v": 74
    },
    {
      "midi": 60,
      "hit": false,
      "t": 238927.8307500009,
      "d": 9.920604166662088,
      "v": 103
    },
    {
      "midi": 64,
      "hit": false,
      "t": 238927.8307500009,
      "d": 9.920604166662088,
      "v": 103
    },
    {
      "midi": 48,
      "hit": false,
      "t": 238927.83075000334,
      "d": 114.08694791665766,
      "v": 78
    },
    {
      "midi": 36,
      "hit": false,
      "t": 239046.87799999217,
      "d": 208.33268749999115,
      "v": 68
    },
    {
      "midi": 36,
      "hit": false,
      "t": 239046.87800000334,
      "d": 114.08694791665766,
      "v": 78
    },
    {
      "midi": 36,
      "hit": false,
      "t": 239046.87800000433,
      "d": 173.6105729166593,
      "v": 50
    },
    {
      "midi": 36,
      "hit": false,
      "t": 239165.92525000335,
      "d": 114.08694791665766,
      "v": 78
    },
    {
      "midi": 36,
      "hit": false,
      "t": 239284.97249999215,
      "d": 208.33268749999115,
      "v": 68
    },
    {
      "midi": 60,
      "hit": false,
      "t": 239284.9725000009,
      "d": 9.920604166662088,
      "v": 103
    },
    {
      "midi": 64,
      "hit": false,
      "t": 239284.9725000009,
      "d": 9.920604166662088,
      "v": 103
    },
    {
      "midi": 48,
      "hit": false,
      "t": 239284.97250000335,
      "d": 114.08694791665766,
      "v": 78
    },
    {
      "midi": 48,
      "hit": false,
      "t": 239284.97250000434,
      "d": 173.6105729166593,
      "v": 73
    },
    {
      "midi": 60,
      "hit": false,
      "t": 239404.0197500009,
      "d": 9.920604166662088,
      "v": 103
    },
    {
      "midi": 64,
      "hit": false,
      "t": 239404.0197500009,
      "d": 9.920604166662088,
      "v": 103
    },
    {
      "midi": 48,
      "hit": false,
      "t": 239404.01975000335,
      "d": 114.08694791665766,
      "v": 78
    },
    {
      "midi": 38,
      "hit": false,
      "t": 239523.06699999212,
      "d": 208.33268749999115,
      "v": 68
    },
    {
      "midi": 74,
      "hit": false,
      "t": 239523.06700000007,
      "d": 272.8166145833384,
      "v": 70
    },
    {
      "midi": 78,
      "hit": false,
      "t": 239523.06700000007,
      "d": 272.8166145833384,
      "v": 76
    },
    {
      "midi": 81,
      "hit": false,
      "t": 239523.06700000007,
      "d": 272.8166145833384,
      "v": 75
    },
    {
      "midi": 74,
      "hit": false,
      "t": 239523.0670000008,
      "d": 272.8166145833384,
      "v": 98
    },
    {
      "midi": 78,
      "hit": false,
      "t": 239523.0670000008,
      "d": 272.8166145833384,
      "v": 106
    },
    {
      "midi": 81,
      "hit": false,
      "t": 239523.0670000008,
      "d": 272.8166145833384,
      "v": 104
    },
    {
      "midi": 62,
      "hit": false,
      "t": 239523.0670000008,
      "d": 272.8166145833384,
      "v": 98
    },
    {
      "midi": 66,
      "hit": false,
      "t": 239523.0670000008,
      "d": 272.8166145833384,
      "v": 106
    },
    {
      "midi": 69,
      "hit": false,
      "t": 239523.0670000008,
      "d": 272.8166145833384,
      "v": 104
    },
    {
      "midi": 66,
      "hit": false,
      "t": 239523.06700000088,
      "d": 471.22869791666744,
      "v": 58
    },
    {
      "midi": 69,
      "hit": false,
      "t": 239523.06700000088,
      "d": 471.22869791666744,
      "v": 58
    },
    {
      "midi": 74,
      "hit": false,
      "t": 239523.06700000088,
      "d": 471.22869791666744,
      "v": 58
    },
    {
      "midi": 38,
      "hit": false,
      "t": 239523.06700000336,
      "d": 114.08694791665766,
      "v": 78
    },
    {
      "midi": 38,
      "hit": false,
      "t": 239523.06700000435,
      "d": 173.6105729166593,
      "v": 66
    },
    {
      "midi": 38,
      "hit": false,
      "t": 239642.11425000336,
      "d": 114.08694791665766,
      "v": 78
    },
    {
      "midi": 38,
      "hit": false,
      "t": 239761.1614999921,
      "d": 208.33268749999115,
      "v": 68
    },
    {
      "midi": 62,
      "hit": false,
      "t": 239761.16150000092,
      "d": 9.920604166662088,
      "v": 103
    },
    {
      "midi": 66,
      "hit": false,
      "t": 239761.16150000092,
      "d": 9.920604166662088,
      "v": 103
    },
    {
      "midi": 50,
      "hit": false,
      "t": 239761.16150000336,
      "d": 114.08694791665766,
      "v": 78
    },
    {
      "midi": 50,
      "hit": false,
      "t": 239761.16150000435,
      "d": 173.6105729166593,
      "v": 86
    },
    {
      "midi": 62,
      "hit": false,
      "t": 239880.20875000092,
      "d": 9.920604166662088,
      "v": 103
    },
    {
      "midi": 66,
      "hit": false,
      "t": 239880.20875000092,
      "d": 9.920604166662088,
      "v": 103
    },
    {
      "midi": 50,
      "hit": false,
      "t": 239880.20875000337,
      "d": 114.08694791665766,
      "v": 78
    },
    {
      "midi": 36,
      "hit": false,
      "t": 239999.25599999208,
      "d": 208.33268749999115,
      "v": 68
    },
    {
      "midi": 72,
      "hit": false,
      "t": 239999.25600000008,
      "d": 186.01132812499418,
      "v": 59
    },
    {
      "midi": 76,
      "hit": false,
      "t": 239999.25600000008,
      "d": 186.01132812499418,
      "v": 66
    },
    {
      "midi": 79,
      "hit": false,
      "t": 239999.25600000008,
      "d": 186.01132812499418,
      "v": 67
    },
    {
      "midi": 72,
      "hit": false,
      "t": 239999.2560000008,
      "d": 173.6105729166593,
      "v": 83
    },
    {
      "midi": 76,
      "hit": false,
      "t": 239999.2560000008,
      "d": 173.6105729166593,
      "v": 93
    },
    {
      "midi": 79,
      "hit": false,
      "t": 239999.2560000008,
      "d": 173.6105729166593,
      "v": 94
    },
    {
      "midi": 60,
      "hit": false,
      "t": 239999.2560000008,
      "d": 173.6105729166593,
      "v": 83
    },
    {
      "midi": 64,
      "hit": false,
      "t": 239999.2560000008,
      "d": 173.6105729166593,
      "v": 93
    },
    {
      "midi": 67,
      "hit": false,
      "t": 239999.2560000008,
      "d": 173.6105729166593,
      "v": 94
    },
    {
      "midi": 64,
      "hit": false,
      "t": 239999.2560000009,
      "d": 1423.6066979166644,
      "v": 58
    },
    {
      "midi": 67,
      "hit": false,
      "t": 239999.2560000009,
      "d": 1423.6066979166644,
      "v": 58
    },
    {
      "midi": 72,
      "hit": false,
      "t": 239999.2560000009,
      "d": 1423.6066979166644,
      "v": 58
    },
    {
      "midi": 36,
      "hit": false,
      "t": 239999.25600000337,
      "d": 114.08694791665766,
      "v": 78
    },
    {
      "midi": 36,
      "hit": false,
      "t": 239999.25600000436,
      "d": 173.6105729166593,
      "v": 74
    },
    {
      "midi": 36,
      "hit": false,
      "t": 240118.30325000337,
      "d": 114.08694791665766,
      "v": 78
    },
    {
      "midi": 36,
      "hit": false,
      "t": 240237.35049999206,
      "d": 208.33268749999115,
      "v": 68
    },
    {
      "midi": 72,
      "hit": false,
      "t": 240237.3505000001,
      "d": 186.01132812499418,
      "v": 71
    },
    {
      "midi": 76,
      "hit": false,
      "t": 240237.3505000001,
      "d": 186.01132812499418,
      "v": 79
    },
    {
      "midi": 79,
      "hit": false,
      "t": 240237.3505000001,
      "d": 186.01132812499418,
      "v": 74
    },
    {
      "midi": 72,
      "hit": false,
      "t": 240237.35050000082,
      "d": 173.6105729166593,
      "v": 99
    },
    {
      "midi": 76,
      "hit": false,
      "t": 240237.35050000082,
      "d": 173.6105729166593,
      "v": 110
    },
    {
      "midi": 79,
      "hit": false,
      "t": 240237.35050000082,
      "d": 173.6105729166593,
      "v": 103
    },
    {
      "midi": 60,
      "hit": false,
      "t": 240237.35050000082,
      "d": 173.6105729166593,
      "v": 99
    },
    {
      "midi": 64,
      "hit": false,
      "t": 240237.35050000082,
      "d": 173.6105729166593,
      "v": 110
    },
    {
      "midi": 67,
      "hit": false,
      "t": 240237.35050000082,
      "d": 173.6105729166593,
      "v": 103
    },
    {
      "midi": 60,
      "hit": false,
      "t": 240237.35050000093,
      "d": 9.920604166662088,
      "v": 103
    },
    {
      "midi": 64,
      "hit": false,
      "t": 240237.35050000093,
      "d": 9.920604166662088,
      "v": 103
    },
    {
      "midi": 48,
      "hit": false,
      "t": 240237.35050000338,
      "d": 114.08694791665766,
      "v": 78
    },
    {
      "midi": 48,
      "hit": false,
      "t": 240237.35050000437,
      "d": 173.6105729166593,
      "v": 70
    },
    {
      "midi": 60,
      "hit": false,
      "t": 240356.39775000094,
      "d": 9.920604166662088,
      "v": 103
    },
    {
      "midi": 64,
      "hit": false,
      "t": 240356.39775000094,
      "d": 9.920604166662088,
      "v": 103
    },
    {
      "midi": 48,
      "hit": false,
      "t": 240356.39775000338,
      "d": 114.08694791665766,
      "v": 78
    },
    {
      "midi": 36,
      "hit": false,
      "t": 240475.44499999203,
      "d": 208.33268749999115,
      "v": 68
    },
    {
      "midi": 72,
      "hit": false,
      "t": 240475.4450000001,
      "d": 186.01132812499418,
      "v": 74
    },
    {
      "midi": 76,
      "hit": false,
      "t": 240475.4450000001,
      "d": 186.01132812499418,
      "v": 75
    },
    {
      "midi": 79,
      "hit": false,
      "t": 240475.4450000001,
      "d": 186.01132812499418,
      "v": 74
    },
    {
      "midi": 72,
      "hit": false,
      "t": 240475.44500000082,
      "d": 173.6105729166593,
      "v": 103
    },
    {
      "midi": 76,
      "hit": false,
      "t": 240475.44500000082,
      "d": 173.6105729166593,
      "v": 105
    },
    {
      "midi": 79,
      "hit": false,
      "t": 240475.44500000082,
      "d": 173.6105729166593,
      "v": 103
    },
    {
      "midi": 60,
      "hit": false,
      "t": 240475.44500000082,
      "d": 173.6105729166593,
      "v": 103
    },
    {
      "midi": 64,
      "hit": false,
      "t": 240475.44500000082,
      "d": 173.6105729166593,
      "v": 105
    },
    {
      "midi": 67,
      "hit": false,
      "t": 240475.44500000082,
      "d": 173.6105729166593,
      "v": 103
    },
    {
      "midi": 36,
      "hit": false,
      "t": 240475.44500000338,
      "d": 114.08694791665766,
      "v": 78
    },
    {
      "midi": 36,
      "hit": false,
      "t": 240475.44500000437,
      "d": 173.6105729166593,
      "v": 64
    },
    {
      "midi": 36,
      "hit": false,
      "t": 240594.4922500034,
      "d": 114.08694791665766,
      "v": 78
    },
    {
      "midi": 36,
      "hit": false,
      "t": 240713.539499992,
      "d": 208.33268749999115,
      "v": 68
    },
    {
      "midi": 72,
      "hit": false,
      "t": 240713.5395000001,
      "d": 186.01132812499418,
      "v": 71
    },
    {
      "midi": 76,
      "hit": false,
      "t": 240713.5395000001,
      "d": 186.01132812499418,
      "v": 72
    },
    {
      "midi": 79,
      "hit": false,
      "t": 240713.5395000001,
      "d": 186.01132812499418,
      "v": 72
    },
    {
      "midi": 72,
      "hit": false,
      "t": 240713.53950000083,
      "d": 173.6105729166593,
      "v": 99
    },
    {
      "midi": 76,
      "hit": false,
      "t": 240713.53950000083,
      "d": 173.6105729166593,
      "v": 101
    },
    {
      "midi": 79,
      "hit": false,
      "t": 240713.53950000083,
      "d": 173.6105729166593,
      "v": 100
    },
    {
      "midi": 60,
      "hit": false,
      "t": 240713.53950000083,
      "d": 173.6105729166593,
      "v": 99
    },
    {
      "midi": 64,
      "hit": false,
      "t": 240713.53950000083,
      "d": 173.6105729166593,
      "v": 101
    },
    {
      "midi": 67,
      "hit": false,
      "t": 240713.53950000083,
      "d": 173.6105729166593,
      "v": 100
    },
    {
      "midi": 60,
      "hit": false,
      "t": 240713.53950000094,
      "d": 9.920604166662088,
      "v": 103
    },
    {
      "midi": 64,
      "hit": false,
      "t": 240713.53950000094,
      "d": 9.920604166662088,
      "v": 103
    },
    {
      "midi": 48,
      "hit": false,
      "t": 240713.5395000034,
      "d": 114.08694791665766,
      "v": 78
    },
    {
      "midi": 48,
      "hit": false,
      "t": 240713.53950000438,
      "d": 173.6105729166593,
      "v": 74
    },
    {
      "midi": 60,
      "hit": false,
      "t": 240832.58675000095,
      "d": 9.920604166662088,
      "v": 103
    },
    {
      "midi": 64,
      "hit": false,
      "t": 240832.58675000095,
      "d": 9.920604166662088,
      "v": 103
    },
    {
      "midi": 48,
      "hit": false,
      "t": 240832.5867500034,
      "d": 114.08694791665766,
      "v": 78
    },
    {
      "midi": 36,
      "hit": false,
      "t": 240951.633999992,
      "d": 208.33268749999115,
      "v": 68
    },
    {
      "midi": 36,
      "hit": false,
      "t": 240951.6340000034,
      "d": 114.08694791665766,
      "v": 78
    },
    {
      "midi": 36,
      "hit": false,
      "t": 240951.6340000044,
      "d": 173.6105729166593,
      "v": 50
    },
    {
      "midi": 36,
      "hit": false,
      "t": 241070.6812500034,
      "d": 114.08694791665766,
      "v": 78
    },
    {
      "midi": 36,
      "hit": false,
      "t": 241189.72849999196,
      "d": 208.33268749999115,
      "v": 68
    },
    {
      "midi": 60,
      "hit": false,
      "t": 241189.72850000096,
      "d": 9.920604166662088,
      "v": 103
    },
    {
      "midi": 64,
      "hit": false,
      "t": 241189.72850000096,
      "d": 9.920604166662088,
      "v": 103
    },
    {
      "midi": 48,
      "hit": false,
      "t": 241189.7285000034,
      "d": 114.08694791665766,
      "v": 78
    },
    {
      "midi": 48,
      "hit": false,
      "t": 241189.7285000044,
      "d": 173.6105729166593,
      "v": 73
    },
    {
      "midi": 60,
      "hit": false,
      "t": 241308.77575000096,
      "d": 9.920604166662088,
      "v": 103
    },
    {
      "midi": 64,
      "hit": false,
      "t": 241308.77575000096,
      "d": 9.920604166662088,
      "v": 103
    },
    {
      "midi": 48,
      "hit": false,
      "t": 241308.7757500034,
      "d": 114.08694791665766,
      "v": 78
    },
    {
      "midi": 38,
      "hit": false,
      "t": 241427.82299999194,
      "d": 208.33268749999115,
      "v": 68
    },
    {
      "midi": 74,
      "hit": false,
      "t": 241427.8230000001,
      "d": 272.8166145833384,
      "v": 70
    },
    {
      "midi": 78,
      "hit": false,
      "t": 241427.8230000001,
      "d": 272.8166145833384,
      "v": 76
    },
    {
      "midi": 81,
      "hit": false,
      "t": 241427.8230000001,
      "d": 272.8166145833384,
      "v": 75
    },
    {
      "midi": 74,
      "hit": false,
      "t": 241427.82300000082,
      "d": 272.8166145833384,
      "v": 98
    },
    {
      "midi": 78,
      "hit": false,
      "t": 241427.82300000082,
      "d": 272.8166145833384,
      "v": 106
    },
    {
      "midi": 81,
      "hit": false,
      "t": 241427.82300000082,
      "d": 272.8166145833384,
      "v": 104
    },
    {
      "midi": 62,
      "hit": false,
      "t": 241427.82300000082,
      "d": 272.8166145833384,
      "v": 98
    },
    {
      "midi": 66,
      "hit": false,
      "t": 241427.82300000082,
      "d": 272.8166145833384,
      "v": 106
    },
    {
      "midi": 69,
      "hit": false,
      "t": 241427.82300000082,
      "d": 272.8166145833384,
      "v": 104
    },
    {
      "midi": 66,
      "hit": false,
      "t": 241427.8230000009,
      "d": 471.22869791666744,
      "v": 58
    },
    {
      "midi": 69,
      "hit": false,
      "t": 241427.8230000009,
      "d": 471.22869791666744,
      "v": 58
    },
    {
      "midi": 74,
      "hit": false,
      "t": 241427.8230000009,
      "d": 471.22869791666744,
      "v": 58
    },
    {
      "midi": 38,
      "hit": false,
      "t": 241427.8230000034,
      "d": 114.08694791665766,
      "v": 78
    },
    {
      "midi": 38,
      "hit": false,
      "t": 241427.8230000044,
      "d": 173.6105729166593,
      "v": 66
    },
    {
      "midi": 38,
      "hit": false,
      "t": 241546.8702500034,
      "d": 114.08694791665766,
      "v": 78
    },
    {
      "midi": 38,
      "hit": false,
      "t": 241665.91749999192,
      "d": 208.33268749999115,
      "v": 68
    },
    {
      "midi": 62,
      "hit": false,
      "t": 241665.91750000097,
      "d": 9.920604166662088,
      "v": 103
    },
    {
      "midi": 66,
      "hit": false,
      "t": 241665.91750000097,
      "d": 9.920604166662088,
      "v": 103
    },
    {
      "midi": 50,
      "hit": false,
      "t": 241665.91750000342,
      "d": 114.08694791665766,
      "v": 78
    },
    {
      "midi": 50,
      "hit": false,
      "t": 241665.9175000044,
      "d": 173.6105729166593,
      "v": 86
    },
    {
      "midi": 62,
      "hit": false,
      "t": 241784.96475000097,
      "d": 9.920604166662088,
      "v": 103
    },
    {
      "midi": 66,
      "hit": false,
      "t": 241784.96475000097,
      "d": 9.920604166662088,
      "v": 103
    },
    {
      "midi": 50,
      "hit": false,
      "t": 241784.96475000342,
      "d": 114.08694791665766,
      "v": 78
    },
    {
      "midi": 31,
      "hit": false,
      "t": 241904.0119999919,
      "d": 942.4573958333349,
      "v": 68
    },
    {
      "midi": 74,
      "hit": false,
      "t": 241904.0120000001,
      "d": 942.4573958333349,
      "v": 64
    },
    {
      "midi": 79,
      "hit": false,
      "t": 241904.0120000001,
      "d": 942.4573958333349,
      "v": 72
    },
    {
      "midi": 83,
      "hit": false,
      "t": 241904.0120000001,
      "d": 942.4573958333349,
      "v": 72
    },
    {
      "midi": 83,
      "hit": false,
      "t": 241904.01200000034,
      "d": 2.480151041672798,
      "v": 84
    },
    {
      "midi": 83,
      "hit": false,
      "t": 241904.01200000034,
      "d": 2.480151041672798,
      "v": 110
    },
    {
      "midi": 74,
      "hit": false,
      "t": 241904.01200000083,
      "d": 942.4573958333349,
      "v": 90
    },
    {
      "midi": 79,
      "hit": false,
      "t": 241904.01200000083,
      "d": 942.4573958333349,
      "v": 100
    },
    {
      "midi": 83,
      "hit": false,
      "t": 241904.01200000083,
      "d": 942.4573958333349,
      "v": 100
    },
    {
      "midi": 62,
      "hit": false,
      "t": 241904.01200000083,
      "d": 942.4573958333349,
      "v": 90
    },
    {
      "midi": 67,
      "hit": false,
      "t": 241904.01200000083,
      "d": 942.4573958333349,
      "v": 100
    },
    {
      "midi": 71,
      "hit": false,
      "t": 241904.01200000083,
      "d": 942.4573958333349,
      "v": 100
    },
    {
      "midi": 62,
      "hit": false,
      "t": 241904.01200000092,
      "d": 942.4573958333349,
      "v": 58
    },
    {
      "midi": 67,
      "hit": false,
      "t": 241904.01200000092,
      "d": 942.4573958333349,
      "v": 58
    },
    {
      "midi": 71,
      "hit": false,
      "t": 241904.01200000092,
      "d": 942.4573958333349,
      "v": 58
    },
    {
      "midi": 43,
      "hit": false,
      "t": 241904.01200000342,
      "d": 942.4573958333349,
      "v": 78
    },
    {
      "midi": 31,
      "hit": false,
      "t": 241904.0120000044,
      "d": 942.4573958333349,
      "v": 76
    },
    {
      "midi": 83,
      "hit": false,
      "t": 242023.05925000034,
      "d": 2.480151041672798,
      "v": 91
    },
    {
      "midi": 83,
      "hit": false,
      "t": 242023.05925000034,
      "d": 2.480151041672798,
      "v": 110
    }
  ]
}