{
  "jsonPath": "Rock/Dance Rock/Pet Shop Boys/generic-jingle-2001-digital-remaster.json",
  "path": "Rock\\Dance Rock\\Pet Shop Boys\\Generic Jingle (2001 Digital Remaster).mid",
  "name": "Generic Jingle (2001 Digital Remaster)",
  "difficulty": "Advanced",
  "bpm": 65.99999340000066,
  "notes": [
    {
      "midi": 69,
      "hit": false,
      "t": 7303.031033333333,
      "d": 431.818225,
      "v": 60
    },
    {
      "midi": 64,
      "hit": false,
      "t": 7303.031033333333,
      "d": 446.9697416666668,
      "v": 60
    },
    {
      "midi": 67,
      "hit": false,
      "t": 7303.031033333333,
      "d": 446.9697416666668,
      "v": 60
    },
    {
      "midi": 48,
      "hit": false,
      "t": 7318.1825499999995,
      "d": 3507.5761083333346,
      "v": 60
    },
    {
      "midi": 60,
      "hit": false,
      "t": 7727.273499999999,
      "d": 204.5454749999999,
      "v": 60
    },
    {
      "midi": 67,
      "hit": false,
      "t": 8181.8189999999995,
      "d": 446.96974166666587,
      "v": 60
    },
    {
      "midi": 69,
      "hit": false,
      "t": 8181.8189999999995,
      "d": 492.42429166666443,
      "v": 60
    },
    {
      "midi": 64,
      "hit": false,
      "t": 8181.8189999999995,
      "d": 545.4545999999973,
      "v": 60
    },
    {
      "midi": 60,
      "hit": false,
      "t": 8636.364499999998,
      "d": 196.9697166666665,
      "v": 60
    },
    {
      "midi": 69,
      "hit": false,
      "t": 9090.909999999998,
      "d": 363.6363999999994,
      "v": 60
    },
    {
      "midi": 67,
      "hit": false,
      "t": 9090.909999999998,
      "d": 393.939433333333,
      "v": 60
    },
    {
      "midi": 64,
      "hit": false,
      "t": 9090.909999999998,
      "d": 515.1515666666673,
      "v": 60
    },
    {
      "midi": 60,
      "hit": false,
      "t": 9545.455499999998,
      "d": 151.51516666666794,
      "v": 60
    },
    {
      "midi": 67,
      "hit": false,
      "t": 10000.001,
      "d": 378.7879166666662,
      "v": 60
    },
    {
      "midi": 69,
      "hit": false,
      "t": 10000.001,
      "d": 409.0909499999998,
      "v": 60
    },
    {
      "midi": 64,
      "hit": false,
      "t": 10000.001,
      "d": 469.69701666666697,
      "v": 60
    },
    {
      "midi": 60,
      "hit": false,
      "t": 10454.5465,
      "d": 113.63637500000004,
      "v": 60
    },
    {
      "midi": 45,
      "hit": false,
      "t": 10909.092,
      "d": 3469.697316666663,
      "v": 60
    },
    {
      "midi": 66,
      "hit": false,
      "t": 10916.667758333333,
      "d": 507.57580833333304,
      "v": 60
    },
    {
      "midi": 69,
      "hit": false,
      "t": 10916.667758333333,
      "d": 515.1515666666655,
      "v": 60
    },
    {
      "midi": 64,
      "hit": false,
      "t": 10916.667758333333,
      "d": 545.4545999999991,
      "v": 60
    },
    {
      "midi": 60,
      "hit": false,
      "t": 11393.940533333332,
      "d": 151.51516666666612,
      "v": 60
    },
    {
      "midi": 66,
      "hit": false,
      "t": 11818.182999999999,
      "d": 545.4545999999991,
      "v": 60
    },
    {
      "midi": 64,
      "hit": false,
      "t": 11818.182999999999,
      "d": 583.3333916666652,
      "v": 60
    },
    {
      "midi": 69,
      "hit": false,
      "t": 11833.334516666666,
      "d": 507.57580833333304,
      "v": 60
    },
    {
      "midi": 60,
      "hit": false,
      "t": 12280.304258333332,
      "d": 181.8181999999997,
      "v": 60
    },
    {
      "midi": 66,
      "hit": false,
      "t": 12719.698241666665,
      "d": 530.3030833333323,
      "v": 60
    },
    {
      "midi": 64,
      "hit": false,
      "t": 12727.273999999998,
      "d": 575.7576333333327,
      "v": 60
    },
    {
      "midi": 69,
      "hit": false,
      "t": 12734.84975833333,
      "d": 530.3030833333341,
      "v": 60
    },
    {
      "midi": 60,
      "hit": false,
      "t": 13159.092224999997,
      "d": 181.8181999999997,
      "v": 60
    },
    {
      "midi": 69,
      "hit": false,
      "t": 13628.789241666664,
      "d": 431.8182250000009,
      "v": 60
    },
    {
      "midi": 66,
      "hit": false,
      "t": 13628.789241666664,
      "d": 484.84853333333376,
      "v": 60
    },
    {
      "midi": 64,
      "hit": false,
      "t": 13628.789241666664,
      "d": 507.57580833333304,
      "v": 60
    },
    {
      "midi": 60,
      "hit": false,
      "t": 14090.910499999998,
      "d": 181.8181999999979,
      "v": 60
    },
    {
      "midi": 66,
      "hit": false,
      "t": 14537.880241666664,
      "d": 515.1515666666655,
      "v": 60
    },
    {
      "midi": 62,
      "hit": false,
      "t": 14545.455999999996,
      "d": 515.1515666666655,
      "v": 60
    },
    {
      "midi": 69,
      "hit": false,
      "t": 14553.031758333329,
      "d": 469.69701666666697,
      "v": 60
    },
    {
      "midi": 43,
      "hit": false,
      "t": 14553.031758333329,
      "d": 3386.3639749999984,
      "v": 60
    },
    {
      "midi": 59,
      "hit": false,
      "t": 15007.57725833333,
      "d": 166.6666833333329,
      "v": 60
    },
    {
      "midi": 66,
      "hit": false,
      "t": 15462.12275833333,
      "d": 492.42429166666625,
      "v": 60
    },
    {
      "midi": 62,
      "hit": false,
      "t": 15462.12275833333,
      "d": 522.7273249999998,
      "v": 60
    },
    {
      "midi": 69,
      "hit": false,
      "t": 15477.274274999996,
      "d": 462.12125833333266,
      "v": 60
    },
    {
      "midi": 59,
      "hit": false,
      "t": 15924.244016666662,
      "d": 143.93940833333363,
      "v": 60
    },
    {
      "midi": 66,
      "hit": false,
      "t": 16356.062241666663,
      "d": 530.303083333336,
      "v": 60
    },
    {
      "midi": 62,
      "hit": false,
      "t": 16356.062241666663,
      "d": 583.3333916666707,
      "v": 60
    },
    {
      "midi": 69,
      "hit": false,
      "t": 16371.21375833333,
      "d": 492.42429166666807,
      "v": 60
    },
    {
      "midi": 59,
      "hit": false,
      "t": 16840.910774999997,
      "d": 181.81820000000516,
      "v": 60
    },
    {
      "midi": 66,
      "hit": false,
      "t": 17265.153241666667,
      "d": 522.7273249999962,
      "v": 60
    },
    {
      "midi": 62,
      "hit": false,
      "t": 17272.729,
      "d": 515.1515666666637,
      "v": 60
    },
    {
      "midi": 69,
      "hit": false,
      "t": 17280.304758333332,
      "d": 462.12125833333266,
      "v": 60
    },
    {
      "midi": 59,
      "hit": false,
      "t": 17734.850258333332,
      "d": 166.66668333332927,
      "v": 60
    },
    {
      "midi": 71,
      "hit": false,
      "t": 18189.39575833333,
      "d": 484.8485333333301,
      "v": 60
    },
    {
      "midi": 66,
      "hit": false,
      "t": 18196.97151666666,
      "d": 530.3030833333323,
      "v": 60
    },
    {
      "midi": 64,
      "hit": false,
      "t": 18196.97151666666,
      "d": 575.7576333333309,
      "v": 60
    },
    {
      "midi": 52,
      "hit": false,
      "t": 18204.547274999994,
      "d": 3454.5457999999926,
      "v": 60
    },
    {
      "midi": 59,
      "hit": false,
      "t": 18643.941258333325,
      "d": 227.2727500000001,
      "v": 60
    },
    {
      "midi": 66,
      "hit": false,
      "t": 19098.486758333325,
      "d": 545.4545999999973,
      "v": 60
    },
    {
      "midi": 64,
      "hit": false,
      "t": 19098.486758333325,
      "d": 560.6061166666623,
      "v": 60
    },
    {
      "midi": 71,
      "hit": false,
      "t": 19113.63827499999,
      "d": 515.1515666666673,
      "v": 60
    },
    {
      "midi": 59,
      "hit": false,
      "t": 19545.45649999999,
      "d": 174.2424416666654,
      "v": 60
    },
    {
      "midi": 66,
      "hit": false,
      "t": 20000.00199999999,
      "d": 553.0303583333298,
      "v": 60
    },
    {
      "midi": 64,
      "hit": false,
      "t": 20007.577758333322,
      "d": 545.4545999999973,
      "v": 60
    },
    {
      "midi": 71,
      "hit": false,
      "t": 20015.153516666654,
      "d": 530.3030833333323,
      "v": 60
    },
    {
      "midi": 59,
      "hit": false,
      "t": 20439.39598333332,
      "d": 174.2424416666654,
      "v": 60
    },
    {
      "midi": 66,
      "hit": false,
      "t": 20901.517241666654,
      "d": 515.1515666666637,
      "v": 60
    },
    {
      "midi": 64,
      "hit": false,
      "t": 20909.092999999986,
      "d": 530.3030833333323,
      "v": 60
    },
    {
      "midi": 71,
      "hit": false,
      "t": 20916.66875833332,
      "d": 431.8182249999991,
      "v": 60
    },
    {
      "midi": 59,
      "hit": false,
      "t": 21378.79001666665,
      "d": 121.21213333333435,
      "v": 60
    },
    {
      "midi": 48,
      "hit": false,
      "t": 21810.608241666654,
      "d": 2560.606316666657,
      "v": 60
    },
    {
      "midi": 67,
      "hit": false,
      "t": 21818.183999999987,
      "d": 537.8788416666648,
      "v": 60
    },
    {
      "midi": 69,
      "hit": false,
      "t": 21825.75975833332,
      "d": 431.8182249999991,
      "v": 60
    },
    {
      "midi": 64,
      "hit": false,
      "t": 21825.75975833332,
      "d": 530.3030833333323,
      "v": 60
    },
    {
      "midi": 60,
      "hit": false,
      "t": 22272.729499999983,
      "d": 159.09092500000042,
      "v": 60
    },
    {
      "midi": 64,
      "hit": false,
      "t": 22704.547724999982,
      "d": 545.4545999999973,
      "v": 60
    },
    {
      "midi": 69,
      "hit": false,
      "t": 22704.547724999982,
      "d": 553.0303583333298,
      "v": 60
    },
    {
      "midi": 67,
      "hit": false,
      "t": 22712.123483333315,
      "d": 469.69701666666515,
      "v": 60
    },
    {
      "midi": 60,
      "hit": false,
      "t": 23189.396258333312,
      "d": 136.36364999999932,
      "v": 60
    },
    {
      "midi": 67,
      "hit": false,
      "t": 23598.48720833331,
      "d": 424.2424666666666,
      "v": 60
    },
    {
      "midi": 64,
      "hit": false,
      "t": 23598.48720833331,
      "d": 522.7273249999998,
      "v": 60
    },
    {
      "midi": 69,
      "hit": false,
      "t": 23606.062966666643,
      "d": 446.9697416666677,
      "v": 60
    },
    {
      "midi": 60,
      "hit": false,
      "t": 24045.456949999978,
      "d": 196.9697166666665,
      "v": 60
    },
    {
      "midi": 52,
      "hit": false,
      "t": 24484.85093333331,
      "d": 901.5152416666642,
      "v": 60
    },
    {
      "midi": 64,
      "hit": false,
      "t": 24492.426691666642,
      "d": 477.27277499999764,
      "v": 60
    },
    {
      "midi": 69,
      "hit": false,
      "t": 24492.426691666642,
      "d": 484.8485333333301,
      "v": 60
    },
    {
      "midi": 67,
      "hit": false,
      "t": 24500.002449999974,
      "d": 439.39398333333156,
      "v": 60
    },
    {
      "midi": 60,
      "hit": false,
      "t": 24946.97219166664,
      "d": 181.81820000000153,
      "v": 60
    },
    {
      "midi": 51,
      "hit": false,
      "t": 25409.093449999975,
      "d": 3454.5457999999853,
      "v": 60
    },
    {
      "midi": 63,
      "hit": false,
      "t": 25416.669208333307,
      "d": 522.7273249999962,
      "v": 60
    },
    {
      "midi": 66,
      "hit": false,
      "t": 25424.24496666664,
      "d": 477.27277499999764,
      "v": 60
    },
    {
      "midi": 69,
      "hit": false,
      "t": 25431.820724999972,
      "d": 477.27277499999764,
      "v": 60
    },
    {
      "midi": 59,
      "hit": false,
      "t": 25886.366224999972,
      "d": 174.2424416666654,
      "v": 60
    },
    {
      "midi": 66,
      "hit": false,
      "t": 26310.60869166664,
      "d": 507.5758083333276,
      "v": 60
    },
    {
      "midi": 63,
      "hit": false,
      "t": 26318.18444999997,
      "d": 545.4545999999937,
      "v": 60
    },
    {
      "midi": 69,
      "hit": false,
      "t": 26325.760208333304,
      "d": 477.27277499999764,
      "v": 60
    },
    {
      "midi": 59,
      "hit": false,
      "t": 26787.881466666637,
      "d": 166.66668333332927,
      "v": 60
    },
    {
      "midi": 66,
      "hit": false,
      "t": 27227.275449999965,
      "d": 522.7273249999962,
      "v": 60
    },
    {
      "midi": 63,
      "hit": false,
      "t": 27227.275449999965,
      "d": 560.6061166666623,
      "v": 60
    },
    {
      "midi": 69,
      "hit": false,
      "t": 27234.851208333297,
      "d": 500.00004999999874,
      "v": 60
    },
    {
      "midi": 59,
      "hit": false,
      "t": 27704.548224999962,
      "d": 196.96971666666286,
      "v": 60
    },
    {
      "midi": 66,
      "hit": false,
      "t": 28159.09372499996,
      "d": 454.5455000000002,
      "v": 60
    },
    {
      "midi": 63,
      "hit": false,
      "t": 28159.09372499996,
      "d": 462.12125833333266,
      "v": 60
    },
    {
      "midi": 69,
      "hit": false,
      "t": 28166.66948333329,
      "d": 416.6667083333341,
      "v": 60
    },
    {
      "midi": 59,
      "hit": false,
      "t": 28613.63922499996,
      "d": 159.09092500000042,
      "v": 60
    },
    {
      "midi": 43,
      "hit": false,
      "t": 29053.033208333294,
      "d": 3325.757908333322,
      "v": 60
    },
    {
      "midi": 69,
      "hit": false,
      "t": 29060.608966666627,
      "d": 515.1515666666637,
      "v": 60
    },
    {
      "midi": 66,
      "hit": false,
      "t": 29068.18472499996,
      "d": 515.1515666666637,
      "v": 60
    },
    {
      "midi": 62,
      "hit": false,
      "t": 29068.18472499996,
      "d": 583.3333916666634,
      "v": 60
    },
    {
      "midi": 59,
      "hit": false,
      "t": 29545.457499999957,
      "d": 242.42426666666506,
      "v": 60
    },
    {
      "midi": 66,
      "hit": false,
      "t": 30007.57875833329,
      "d": 469.6970166666615,
      "v": 60
    },
    {
      "midi": 62,
      "hit": false,
      "t": 30015.154516666622,
      "d": 522.7273249999962,
      "v": 60
    },
    {
      "midi": 69,
      "hit": false,
      "t": 30022.730274999954,
      "d": 537.8788416666648,
      "v": 60
    },
    {
      "midi": 59,
      "hit": false,
      "t": 30462.124258333286,
      "d": 181.81820000000153,
      "v": 60
    },
    {
      "midi": 69,
      "hit": false,
      "t": 30878.79096666662,
      "d": 530.3030833333323,
      "v": 60
    },
    {
      "midi": 66,
      "hit": false,
      "t": 30886.366724999953,
      "d": 500.00004999999874,
      "v": 60
    },
    {
      "midi": 62,
      "hit": false,
      "t": 30886.366724999953,
      "d": 553.0303583333334,
      "v": 60
    },
    {
      "midi": 59,
      "hit": false,
      "t": 31340.912224999953,
      "d": 174.2424416666654,
      "v": 60
    },
    {
      "midi": 66,
      "hit": false,
      "t": 31772.73044999995,
      "d": 462.12125833333266,
      "v": 60
    },
    {
      "midi": 69,
      "hit": false,
      "t": 31772.73044999995,
      "d": 469.69701666666515,
      "v": 60
    },
    {
      "midi": 62,
      "hit": false,
      "t": 31780.306208333284,
      "d": 492.42429166666625,
      "v": 60
    },
    {
      "midi": 59,
      "hit": false,
      "t": 32250.00322499995,
      "d": 143.9394083333318,
      "v": 60
    },
    {
      "midi": 43,
      "hit": false,
      "t": 32712.124483333282,
      "d": 3636.3639999999796,
      "v": 60
    },
    {
      "midi": 62,
      "hit": false,
      "t": 32719.700241666615,
      "d": 462.1212583333254,
      "v": 60
    },
    {
      "midi": 59,
      "hit": false,
      "t": 32719.700241666615,
      "d": 515.1515666666601,
      "v": 60
    },
    {
      "midi": 65,
      "hit": false,
      "t": 32719.700241666615,
      "d": 515.1515666666601,
      "v": 60
    },
    {
      "midi": 55,
      "hit": false,
      "t": 33151.51846666661,
      "d": 204.545474999999,
      "v": 60
    },
    {
      "midi": 62,
      "hit": false,
      "t": 33613.63972499994,
      "d": 484.8485333333301,
      "v": 60
    },
    {
      "midi": 59,
      "hit": false,
      "t": 33613.63972499994,
      "d": 537.8788416666575,
      "v": 60
    },
    {
      "midi": 65,
      "hit": false,
      "t": 33621.215483333275,
      "d": 507.5758083333276,
      "v": 60
    },
    {
      "midi": 55,
      "hit": false,
      "t": 34068.18522499994,
      "d": 181.81819999999425,
      "v": 60
    },
    {
      "midi": 62,
      "hit": false,
      "t": 34522.730724999936,
      "d": 500.0000500000024,
      "v": 60
    },
    {
      "midi": 59,
      "hit": false,
      "t": 34522.730724999936,
      "d": 530.3030833333323,
      "v": 60
    },
    {
      "midi": 65,
      "hit": false,
      "t": 34530.30648333327,
      "d": 515.1515666666673,
      "v": 60
    },
    {
      "midi": 55,
      "hit": false,
      "t": 34977.276224999936,
      "d": 174.24244166666904,
      "v": 60
    },
    {
      "midi": 59,
      "hit": false,
      "t": 35431.821724999936,
      "d": 530.303083333325,
      "v": 60
    },
    {
      "midi": 62,
      "hit": false,
      "t": 35439.39748333327,
      "d": 492.4242916666626,
      "v": 60
    },
    {
      "midi": 65,
      "hit": false,
      "t": 35446.9732416666,
      "d": 507.5758083333276,
      "v": 60
    },
    {
      "midi": 55,
      "hit": false,
      "t": 35909.094499999934,
      "d": 90.90909999999712,
      "v": 60
    },
    {
      "midi": 67,
      "hit": false,
      "t": 36386.36727499993,
      "d": 500.0000500000024,
      "v": 60
    },
    {
      "midi": 64,
      "hit": false,
      "t": 36386.36727499993,
      "d": 507.57580833333486,
      "v": 60
    },
    {
      "midi": 48,
      "hit": false,
      "t": 36393.943033333264,
      "d": 3386.363974999993,
      "v": 60
    },
    {
      "midi": 69,
      "hit": false,
      "t": 36401.5187916666,
      "d": 500.0000500000024,
      "v": 60
    },
    {
      "midi": 60,
      "hit": false,
      "t": 36787.8824666666,
      "d": 234.8485083333362,
      "v": 60
    },
    {
      "midi": 64,
      "hit": false,
      "t": 37250.00372499993,
      "d": 553.0303583333298,
      "v": 60
    },
    {
      "midi": 69,
      "hit": false,
      "t": 37257.57948333326,
      "d": 492.4242916666626,
      "v": 60
    },
    {
      "midi": 67,
      "hit": false,
      "t": 37265.155241666595,
      "d": 462.12125833333266,
      "v": 60
    },
    {
      "midi": 60,
      "hit": false,
      "t": 37712.12498333326,
      "d": 212.12123333333147,
      "v": 60
    },
    {
      "midi": 67,
      "hit": false,
      "t": 38181.82199999993,
      "d": 477.2727750000049,
      "v": 60
    },
    {
      "midi": 64,
      "hit": false,
      "t": 38181.82199999993,
      "d": 553.0303583333371,
      "v": 60
    },
    {
      "midi": 69,
      "hit": false,
      "t": 38189.39775833326,
      "d": 560.6061166666695,
      "v": 60
    },
    {
      "midi": 60,
      "hit": false,
      "t": 38613.64022499993,
      "d": 181.81820000000153,
      "v": 60
    },
    {
      "midi": 67,
      "hit": false,
      "t": 39075.76148333326,
      "d": 416.66670833333046,
      "v": 60
    },
    {
      "midi": 69,
      "hit": false,
      "t": 39075.76148333326,
      "d": 477.27277499999036,
      "v": 60
    },
    {
      "midi": 64,
      "hit": false,
      "t": 39083.337241666595,
      "d": 416.66670833333046,
      "v": 60
    },
    {
      "midi": 60,
      "hit": false,
      "t": 39530.306983333256,
      "d": 143.9394083333318,
      "v": 60
    },
    {
      "midi": 69,
      "hit": false,
      "t": 39992.42824166659,
      "d": 522.7273249999998,
      "v": 60
    },
    {
      "midi": 66,
      "hit": false,
      "t": 40000.00399999992,
      "d": 477.27277499999764,
      "v": 60
    },
    {
      "midi": 62,
      "hit": false,
      "t": 40000.00399999992,
      "d": 553.0303583333371,
      "v": 60
    },
    {
      "midi": 50,
      "hit": false,
      "t": 40022.73127499992,
      "d": 3628.7882416666907,
      "v": 55
    },
    {
      "midi": 57,
      "hit": false,
      "t": 40477.27677499992,
      "d": 204.54547500000626,
      "v": 50
    },
    {
      "midi": 66,
      "hit": false,
      "t": 40916.67075833326,
      "d": 484.8485333333374,
      "v": 45
    },
    {
      "midi": 62,
      "hit": false,
      "t": 40916.67075833326,
      "d": 522.7273250000071,
      "v": 45
    },
    {
      "midi": 57,
      "hit": false,
      "t": 41348.48898333326,
      "d": 212.12123333333875,
      "v": 40
    },
    {
      "midi": 66,
      "hit": false,
      "t": 41803.03448333327,
      "d": 507.5758083333276,
      "v": 40
    },
    {
      "midi": 62,
      "hit": false,
      "t": 41810.6102416666,
      "d": 522.7273249999926,
      "v": 35
    },
    {
      "midi": 57,
      "hit": false,
      "t": 42219.7011916666,
      "d": 212.12123333333147,
      "v": 35
    },
    {
      "midi": 62,
      "hit": false,
      "t": 42674.2466916666,
      "d": 553.0303583333371,
      "v": 35
    },
    {
      "midi": 66,
      "hit": false,
      "t": 42681.822449999934,
      "d": 545.4546000000046,
      "v": 10
    },
    {
      "midi": 57,
      "hit": false,
      "t": 43113.64067499994,
      "d": 227.27275000000373,
      "v": 10
    },
    {
      "midi": 27,
      "hit": false,
      "t": 43636.367999999944,
      "d": 1810.606241666661,
      "v": 127
    },
    {
      "midi": 39,
      "hit": false,
      "t": 43636.367999999944,
      "d": 1810.606241666661,
      "v": 127
    },
    {
      "midi": 55,
      "hit": false,
      "t": 43636.367999999944,
      "d": 1810.606241666661,
      "v": 127
    },
    {
      "midi": 60,
      "hit": false,
      "t": 43636.367999999944,
      "d": 1810.606241666661,
      "v": 127
    },
    {
      "midi": 65,
      "hit": false,
      "t": 43636.367999999944,
      "d": 1810.606241666661,
      "v": 127
    },
    {
      "midi": 29,
      "hit": false,
      "t": 45454.54999999994,
      "d": 6356.06124166667,
      "v": 127
    },
    {
      "midi": 41,
      "hit": false,
      "t": 45454.54999999994,
      "d": 6356.06124166667,
      "v": 127
    },
    {
      "midi": 53,
      "hit": false,
      "t": 45454.54999999994,
      "d": 6356.06124166667,
      "v": 127
    },
    {
      "midi": 55,
      "hit": false,
      "t": 45454.54999999994,
      "d": 6356.06124166667,
      "v": 127
    },
    {
      "midi": 60,
      "hit": false,
      "t": 45454.54999999994,
      "d": 6356.06124166667,
      "v": 127
    },
    {
      "midi": 27,
      "hit": false,
      "t": 51818.18699999994,
      "d": 1810.606241666661,
      "v": 127
    },
    {
      "midi": 39,
      "hit": false,
      "t": 51818.18699999994,
      "d": 1810.606241666661,
      "v": 127
    },
    {
      "midi": 55,
      "hit": false,
      "t": 51818.18699999994,
      "d": 1810.606241666661,
      "v": 127
    },
    {
      "midi": 60,
      "hit": false,
      "t": 51818.18699999994,
      "d": 1810.606241666661,
      "v": 127
    },
    {
      "midi": 65,
      "hit": false,
      "t": 51818.18699999994,
      "d": 1810.606241666661,
      "v": 127
    },
    {
      "midi": 29,
      "hit": false,
      "t": 53636.36899999993,
      "d": 6356.06124166667,
      "v": 127
    },
    {
      "midi": 41,
      "hit": false,
      "t": 53636.36899999993,
      "d": 6356.06124166667,
      "v": 127
    },
    {
      "midi": 53,
      "hit": false,
      "t": 53636.36899999993,
      "d": 6356.06124166667,
      "v": 127
    },
    {
      "midi": 55,
      "hit": false,
      "t": 53636.36899999993,
      "d": 6356.06124166667,
      "v": 127
    },
    {
      "midi": 60,
      "hit": false,
      "t": 53636.36899999993,
      "d": 6356.06124166667,
      "v": 127
    },
    {
      "midi": 27,
      "hit": false,
      "t": 60000.005999999936,
      "d": 1810.606241666661,
      "v": 127
    },
    {
      "midi": 39,
      "hit": false,
      "t": 60000.005999999936,
      "d": 1810.606241666661,
      "v": 127
    },
    {
      "midi": 55,
      "hit": false,
      "t": 60000.005999999936,
      "d": 1810.606241666661,
      "v": 127
    },
    {
      "midi": 60,
      "hit": false,
      "t": 60000.005999999936,
      "d": 1810.606241666661,
      "v": 127
    },
    {
      "midi": 65,
      "hit": false,
      "t": 60000.005999999936,
      "d": 1810.606241666661,
      "v": 127
    },
    {
      "midi": 59,
      "hit": false,
      "t": 61818.18799999993,
      "d": 477.27277499999764,
      "v": 60
    },
    {
      "midi": 64,
      "hit": false,
      "t": 61818.18799999993,
      "d": 484.8485333333301,
      "v": 60
    },
    {
      "midi": 48,
      "hit": false,
      "t": 61818.18799999993,
      "d": 1075.757683333337,
      "v": 60
    },
    {
      "midi": 36,
      "hit": false,
      "t": 61818.18799999993,
      "d": 3045.4548499999946,
      "v": 60
    },
    {
      "midi": 55,
      "hit": false,
      "t": 62272.73349999993,
      "d": 128.78789166666684,
      "v": 60
    },
    {
      "midi": 59,
      "hit": false,
      "t": 62727.27899999993,
      "d": 598.484908333332,
      "v": 60
    },
    {
      "midi": 64,
      "hit": false,
      "t": 62727.27899999993,
      "d": 621.2121833333294,
      "v": 60
    },
    {
      "midi": 48,
      "hit": false,
      "t": 63181.82449999993,
      "d": 257.5757833333264,
      "v": 60
    },
    {
      "midi": 59,
      "hit": false,
      "t": 63636.36999999992,
      "d": 507.57580833333486,
      "v": 60
    },
    {
      "midi": 64,
      "hit": false,
      "t": 63636.36999999992,
      "d": 515.1515666666673,
      "v": 60
    },
    {
      "midi": 55,
      "hit": false,
      "t": 64090.91549999992,
      "d": 143.9394083333318,
      "v": 60
    },
    {
      "midi": 59,
      "hit": false,
      "t": 64545.46099999992,
      "d": 477.27277499999764,
      "v": 60
    },
    {
      "midi": 64,
      "hit": false,
      "t": 64545.46099999992,
      "d": 484.8485333333301,
      "v": 60
    },
    {
      "midi": 55,
      "hit": false,
      "t": 65000.00649999992,
      "d": 106.0606166666621,
      "v": 60
    },
    {
      "midi": 66,
      "hit": false,
      "t": 65454.551999999916,
      "d": 454.5455000000002,
      "v": 60
    },
    {
      "midi": 62,
      "hit": false,
      "t": 65454.551999999916,
      "d": 537.8788416666721,
      "v": 60
    },
    {
      "midi": 52,
      "hit": false,
      "t": 65454.551999999916,
      "d": 977.2728250000146,
      "v": 60
    },
    {
      "midi": 40,
      "hit": false,
      "t": 65454.551999999916,
      "d": 3075.757883333332,
      "v": 60
    },
    {
      "midi": 57,
      "hit": false,
      "t": 65909.09749999992,
      "d": 189.3939583333413,
      "v": 60
    },
    {
      "midi": 66,
      "hit": false,
      "t": 66363.64299999992,
      "d": 492.4242916666699,
      "v": 60
    },
    {
      "midi": 62,
      "hit": false,
      "t": 66363.64299999992,
      "d": 500.0000500000024,
      "v": 60
    },
    {
      "midi": 52,
      "hit": false,
      "t": 66818.18849999993,
      "d": 234.84850833332166,
      "v": 60
    },
    {
      "midi": 66,
      "hit": false,
      "t": 67272.73399999992,
      "d": 416.66670833333046,
      "v": 60
    },
    {
      "midi": 62,
      "hit": false,
      "t": 67272.73399999992,
      "d": 477.27277499999036,
      "v": 60
    },
    {
      "midi": 57,
      "hit": false,
      "t": 67727.27949999992,
      "d": 136.36364999999932,
      "v": 60
    },
    {
      "midi": 66,
      "hit": false,
      "t": 68181.82499999991,
      "d": 462.12125833333994,
      "v": 60
    },
    {
      "midi": 62,
      "hit": false,
      "t": 68181.82499999991,
      "d": 477.2727750000049,
      "v": 60
    },
    {
      "midi": 62,
      "hit": false,
      "t": 69090.91599999991,
      "d": 454.5454999999929,
      "v": 60
    },
    {
      "midi": 66,
      "hit": false,
      "t": 69090.91599999991,
      "d": 484.84853333332285,
      "v": 60
    },
    {
      "midi": 50,
      "hit": false,
      "t": 69090.91599999991,
      "d": 2962.1215083332936,
      "v": 60
    },
    {
      "midi": 38,
      "hit": false,
      "t": 69090.91599999991,
      "d": 2984.848783333291,
      "v": 60
    },
    {
      "midi": 57,
      "hit": false,
      "t": 69545.4614999999,
      "d": 189.39395833332674,
      "v": 60
    },
    {
      "midi": 62,
      "hit": false,
      "t": 70000.0069999999,
      "d": 507.5758083333203,
      "v": 60
    },
    {
      "midi": 66,
      "hit": false,
      "t": 70000.0069999999,
      "d": 522.7273249999853,
      "v": 60
    },
    {
      "midi": 57,
      "hit": false,
      "t": 70454.55249999989,
      "d": 151.5151666666643,
      "v": 60
    },
    {
      "midi": 66,
      "hit": false,
      "t": 70909.09799999988,
      "d": 507.5758083333203,
      "v": 60
    },
    {
      "midi": 62,
      "hit": false,
      "t": 70909.09799999988,
      "d": 560.6061166666477,
      "v": 60
    },
    {
      "midi": 57,
      "hit": false,
      "t": 71363.64349999987,
      "d": 189.39395833332674,
      "v": 60
    },
    {
      "midi": 66,
      "hit": false,
      "t": 71818.18899999987,
      "d": 462.12125833333994,
      "v": 60
    },
    {
      "midi": 62,
      "hit": false,
      "t": 71818.18899999987,
      "d": 515.1515666666673,
      "v": 60
    },
    {
      "midi": 57,
      "hit": false,
      "t": 72272.73449999987,
      "d": 121.2121333333198,
      "v": 60
    },
    {
      "midi": 64,
      "hit": false,
      "t": 72727.27999999987,
      "d": 500.0000499999878,
      "v": 60
    },
    {
      "midi": 59,
      "hit": false,
      "t": 72727.27999999987,
      "d": 522.7273249999853,
      "v": 60
    },
    {
      "midi": 48,
      "hit": false,
      "t": 72727.27999999987,
      "d": 1075.757683333315,
      "v": 60
    },
    {
      "midi": 36,
      "hit": false,
      "t": 72727.27999999987,
      "d": 3469.6973166666285,
      "v": 60
    },
    {
      "midi": 55,
      "hit": false,
      "t": 73181.82549999986,
      "d": 121.2121333333198,
      "v": 60
    },
    {
      "midi": 64,
      "hit": false,
      "t": 73636.37099999985,
      "d": 598.4849083333247,
      "v": 60
    },
    {
      "midi": 59,
      "hit": false,
      "t": 73636.37099999985,
      "d": 613.6364249999897,
      "v": 60
    },
    {
      "midi": 48,
      "hit": false,
      "t": 74090.91649999985,
      "d": 219.6969916666567,
      "v": 60
    },
    {
      "midi": 59,
      "hit": false,
      "t": 74545.46199999984,
      "d": 484.84853333332285,
      "v": 60
    },
    {
      "midi": 64,
      "hit": false,
      "t": 74545.46199999984,
      "d": 568.1818749999948,
      "v": 60
    },
    {
      "midi": 55,
      "hit": false,
      "t": 75000.00749999983,
      "d": 151.5151666666643,
      "v": 60
    },
    {
      "midi": 59,
      "hit": false,
      "t": 75454.55299999983,
      "d": 719.6970416666736,
      "v": 60
    },
    {
      "midi": 64,
      "hit": false,
      "t": 75454.55299999983,
      "d": 734.8485583333386,
      "v": 60
    },
    {
      "midi": 59,
      "hit": false,
      "t": 76363.64399999983,
      "d": 477.27277499999036,
      "v": 60
    },
    {
      "midi": 64,
      "hit": false,
      "t": 76363.64399999983,
      "d": 477.27277499999036,
      "v": 60
    },
    {
      "midi": 48,
      "hit": false,
      "t": 76363.64399999983,
      "d": 2856.0608916666533,
      "v": 60
    },
    {
      "midi": 55,
      "hit": false,
      "t": 76818.18949999982,
      "d": 159.0909249999968,
      "v": 60
    },
    {
      "midi": 59,
      "hit": false,
      "t": 77272.73499999981,
      "d": 477.27277499999036,
      "v": 60
    },
    {
      "midi": 64,
      "hit": false,
      "t": 77272.73499999981,
      "d": 553.0303583333298,
      "v": 60
    },
    {
      "midi": 55,
      "hit": false,
      "t": 77727.2804999998,
      "d": 189.3939583333413,
      "v": 60
    },
    {
      "midi": 59,
      "hit": false,
      "t": 78181.82599999981,
      "d": 522.7273249999998,
      "v": 60
    },
    {
      "midi": 64,
      "hit": false,
      "t": 78181.82599999981,
      "d": 553.0303583333298,
      "v": 60
    },
    {
      "midi": 55,
      "hit": false,
      "t": 78636.3714999998,
      "d": 196.96971666667378,
      "v": 60
    },
    {
      "midi": 59,
      "hit": false,
      "t": 79090.91699999981,
      "d": 257.5757833333337,
      "v": 60
    },
    {
      "midi": 64,
      "hit": false,
      "t": 79090.91699999981,
      "d": 303.0303333333286,
      "v": 60
    },
    {
      "midi": 47,
      "hit": false,
      "t": 79545.4624999998,
      "d": 227.27275000000373,
      "v": 60
    },
    {
      "midi": 66,
      "hit": false,
      "t": 80000.00799999981,
      "d": 477.27277499999036,
      "v": 60
    },
    {
      "midi": 63,
      "hit": false,
      "t": 80000.00799999981,
      "d": 522.7273249999853,
      "v": 60
    },
    {
      "midi": 51,
      "hit": false,
      "t": 80000.00799999981,
      "d": 3522.7276249999704,
      "v": 60
    },
    {
      "midi": 59,
      "hit": false,
      "t": 80454.5534999998,
      "d": 234.84850833332166,
      "v": 60
    },
    {
      "midi": 66,
      "hit": false,
      "t": 80909.0989999998,
      "d": 401.5151916666655,
      "v": 60
    },
    {
      "midi": 63,
      "hit": false,
      "t": 80909.0989999998,
      "d": 431.81822499999544,
      "v": 60
    },
    {
      "midi": 59,
      "hit": false,
      "t": 81363.64449999979,
      "d": 151.5151666666643,
      "v": 60
    },
    {
      "midi": 63,
      "hit": false,
      "t": 81818.18999999978,
      "d": 1696.9698666666663,
      "v": 60
    },
    {
      "midi": 66,
      "hit": false,
      "t": 81818.18999999978,
      "d": 1696.9698666666663,
      "v": 60
    },
    {
      "midi": 64,
      "hit": false,
      "t": 83636.37199999978,
      "d": 492.42429166665534,
      "v": 90
    },
    {
      "midi": 60,
      "hit": false,
      "t": 83636.37199999978,
      "d": 500.0000499999878,
      "v": 94
    },
    {
      "midi": 45,
      "hit": false,
      "t": 83636.37199999978,
      "d": 1560.6062166666525,
      "v": 99
    },
    {
      "midi": 57,
      "hit": false,
      "t": 84090.91749999978,
      "d": 151.5151666666643,
      "v": 81
    },
    {
      "midi": 60,
      "hit": false,
      "t": 84530.3114833331,
      "d": 522.7273249999853,
      "v": 90
    },
    {
      "midi": 64,
      "hit": false,
      "t": 84537.88724166644,
      "d": 477.27277499999036,
      "v": 84
    },
    {
      "midi": 57,
      "hit": false,
      "t": 84977.28122499977,
      "d": 143.9394083333318,
      "v": 82
    },
    {
      "midi": 59,
      "hit": false,
      "t": 85431.82672499977,
      "d": 553.0303583333443,
      "v": 94
    },
    {
      "midi": 47,
      "hit": false,
      "t": 85439.4024833331,
      "d": 1674.242591666669,
      "v": 84
    },
    {
      "midi": 62,
      "hit": false,
      "t": 85446.97824166644,
      "d": 469.6970166666724,
      "v": 91
    },
    {
      "midi": 55,
      "hit": false,
      "t": 85893.94798333311,
      "d": 174.2424416666763,
      "v": 77
    },
    {
      "midi": 59,
      "hit": false,
      "t": 86356.06924166645,
      "d": 507.5758083333203,
      "v": 91
    },
    {
      "midi": 62,
      "hit": false,
      "t": 86363.64499999979,
      "d": 424.24246666666295,
      "v": 90
    },
    {
      "midi": 55,
      "hit": false,
      "t": 86803.03898333311,
      "d": 113.63637499998731,
      "v": 81
    },
    {
      "midi": 60,
      "hit": false,
      "t": 87280.3117583331,
      "d": 530.3030833333323,
      "v": 94
    },
    {
      "midi": 48,
      "hit": false,
      "t": 87280.3117583331,
      "d": 1606.060766666662,
      "v": 90
    },
    {
      "midi": 64,
      "hit": false,
      "t": 87287.88751666644,
      "d": 507.57580833333486,
      "v": 88
    },
    {
      "midi": 57,
      "hit": false,
      "t": 87734.85725833311,
      "d": 113.63637499998731,
      "v": 78
    },
    {
      "midi": 64,
      "hit": false,
      "t": 88189.4027583331,
      "d": 454.5454999999929,
      "v": 90
    },
    {
      "midi": 60,
      "hit": false,
      "t": 88189.4027583331,
      "d": 530.3030833333323,
      "v": 92
    },
    {
      "midi": 57,
      "hit": false,
      "t": 88651.52401666643,
      "d": 121.21213333333435,
      "v": 84
    },
    {
      "midi": 64,
      "hit": false,
      "t": 89068.19072499976,
      "d": 484.84853333332285,
      "v": 94
    },
    {
      "midi": 62,
      "hit": false,
      "t": 89068.19072499976,
      "d": 507.5758083333203,
      "v": 99
    },
    {
      "midi": 50,
      "hit": false,
      "t": 89075.7664833331,
      "d": 1265.1516416666418,
      "v": 88
    },
    {
      "midi": 57,
      "hit": false,
      "t": 89522.73622499975,
      "d": 159.0909249999968,
      "v": 81
    },
    {
      "midi": 64,
      "hit": false,
      "t": 89992.43324166641,
      "d": 310.6060916666611,
      "v": 91
    },
    {
      "midi": 62,
      "hit": false,
      "t": 89992.43324166641,
      "d": 318.1818499999936,
      "v": 98
    },
    {
      "midi": 50,
      "hit": false,
      "t": 90439.40298333307,
      "d": 196.96971666667378,
      "v": 88
    },
    {
      "midi": 45,
      "hit": false,
      "t": 90886.37272499975,
      "d": 1636.3638000000064,
      "v": 92
    },
    {
      "midi": 64,
      "hit": false,
      "t": 90893.94848333308,
      "d": 424.24246666666295,
      "v": 94
    },
    {
      "midi": 60,
      "hit": false,
      "t": 90893.94848333308,
      "d": 507.57580833333486,
      "v": 100
    },
    {
      "midi": 57,
      "hit": false,
      "t": 91333.3424666664,
      "d": 136.36365000001388,
      "v": 79
    },
    {
      "midi": 60,
      "hit": false,
      "t": 91803.0394833331,
      "d": 500.0000499999878,
      "v": 94
    },
    {
      "midi": 64,
      "hit": false,
      "t": 91810.61524166643,
      "d": 416.66670833333046,
      "v": 84
    },
    {
      "midi": 57,
      "hit": false,
      "t": 92242.43346666642,
      "d": 143.9394083333318,
      "v": 81
    },
    {
      "midi": 47,
      "hit": false,
      "t": 92689.40320833308,
      "d": 1196.969816666664,
      "v": 90
    },
    {
      "midi": 62,
      "hit": false,
      "t": 92712.13048333308,
      "d": 416.66670833333046,
      "v": 91
    },
    {
      "midi": 59,
      "hit": false,
      "t": 92712.13048333308,
      "d": 492.4242916666699,
      "v": 91
    },
    {
      "midi": 55,
      "hit": false,
      "t": 93121.22143333308,
      "d": 159.09092500001134,
      "v": 82
    },
    {
      "midi": 62,
      "hit": false,
      "t": 93598.49420833308,
      "d": 416.66670833333046,
      "v": 92
    },
    {
      "midi": 59,
      "hit": false,
      "t": 93598.49420833308,
      "d": 492.42429166665534,
      "v": 90
    },
    {
      "midi": 55,
      "hit": false,
      "t": 94030.31243333308,
      "d": 227.27274999998917,
      "v": 79
    },
    {
      "midi": 47,
      "hit": false,
      "t": 94037.88819166641,
      "d": 318.1818499999936,
      "v": 86
    },
    {
      "midi": 60,
      "hit": false,
      "t": 94515.1609666664,
      "d": 507.5758083333203,
      "v": 90
    },
    {
      "midi": 48,
      "hit": false,
      "t": 94515.1609666664,
      "d": 1674.2425916666398,
      "v": 90
    },
    {
      "midi": 64,
      "hit": false,
      "t": 94522.73672499973,
      "d": 409.0909499999834,
      "v": 86
    },
    {
      "midi": 57,
      "hit": false,
      "t": 94946.97919166638,
      "d": 174.2424416666763,
      "v": 73
    },
    {
      "midi": 64,
      "hit": false,
      "t": 95409.10044999972,
      "d": 454.5454999999929,
      "v": 86
    },
    {
      "midi": 60,
      "hit": false,
      "t": 95409.10044999972,
      "d": 515.1515666666528,
      "v": 91
    },
    {
      "midi": 57,
      "hit": false,
      "t": 95871.22170833305,
      "d": 128.78789166666684,
      "v": 81
    },
    {
      "midi": 62,
      "hit": false,
      "t": 96340.9187249997,
      "d": 439.3939833333279,
      "v": 96
    },
    {
      "midi": 64,
      "hit": false,
      "t": 96348.49448333304,
      "d": 416.66670833333046,
      "v": 88
    },
    {
      "midi": 50,
      "hit": false,
      "t": 96348.49448333304,
      "d": 1196.9698166666494,
      "v": 90
    },
    {
      "midi": 57,
      "hit": false,
      "t": 96765.16119166637,
      "d": 159.0909249999968,
      "v": 82
    },
    {
      "midi": 64,
      "hit": false,
      "t": 97250.00972499969,
      "d": 507.57580833333486,
      "v": 90
    },
    {
      "midi": 62,
      "hit": false,
      "t": 97250.00972499969,
      "d": 515.1515666666673,
      "v": 97
    },
    {
      "midi": 50,
      "hit": false,
      "t": 97689.40370833302,
      "d": 159.09092500001134,
      "v": 88
    },
    {
      "midi": 45,
      "hit": false,
      "t": 98136.3734499997,
      "d": 1659.0910749999894,
      "v": 90
    },
    {
      "midi": 64,
      "hit": false,
      "t": 98143.94920833303,
      "d": 477.2727750000049,
      "v": 91
    },
    {
      "midi": 60,
      "hit": false,
      "t": 98143.94920833303,
      "d": 537.8788416666648,
      "v": 98
    },
    {
      "midi": 57,
      "hit": false,
      "t": 98606.07046666637,
      "d": 181.81819999999425,
      "v": 78
    },
    {
      "midi": 60,
      "hit": false,
      "t": 99060.61596666636,
      "d": 500.0000499999878,
      "v": 88
    },
    {
      "midi": 64,
      "hit": false,
      "t": 99068.19172499969,
      "d": 431.81822499999544,
      "v": 81
    },
    {
      "midi": 57,
      "hit": false,
      "t": 99515.16146666635,
      "d": 136.36364999999932,
      "v": 71
    },
    {
      "midi": 47,
      "hit": false,
      "t": 99954.55544999968,
      "d": 1659.0910749999748,
      "v": 82
    },
    {
      "midi": 59,
      "hit": false,
      "t": 99962.13120833301,
      "d": 484.84853333332285,
      "v": 84
    },
    {
      "midi": 62,
      "hit": false,
      "t": 99969.70696666634,
      "d": 424.24246666666295,
      "v": 86
    },
    {
      "midi": 55,
      "hit": false,
      "t": 100416.676708333,
      "d": 143.9394083333318,
      "v": 55
    },
    {
      "midi": 59,
      "hit": false,
      "t": 100886.37372499966,
      "d": 507.5758083333203,
      "v": 83
    },
    {
      "midi": 62,
      "hit": false,
      "t": 100893.949483333,
      "d": 446.9697416666604,
      "v": 79
    },
    {
      "midi": 55,
      "hit": false,
      "t": 101340.91922499966,
      "d": 136.36364999999932,
      "v": 62
    },
    {
      "midi": 48,
      "hit": false,
      "t": 101803.04048333298,
      "d": 1727.2728999999817,
      "v": 85
    },
    {
      "midi": 60,
      "hit": false,
      "t": 101810.61624166631,
      "d": 515.1515666666673,
      "v": 90
    },
    {
      "midi": 64,
      "hit": false,
      "t": 101825.76775833298,
      "d": 507.57580833333486,
      "v": 93
    },
    {
      "midi": 57,
      "hit": false,
      "t": 102287.88901666632,
      "d": 151.5151666666643,
      "v": 65
    },
    {
      "midi": 64,
      "hit": false,
      "t": 102734.85875833298,
      "d": 439.3939833333279,
      "v": 91
    },
    {
      "midi": 60,
      "hit": false,
      "t": 102734.85875833298,
      "d": 515.1515666666528,
      "v": 89
    },
    {
      "midi": 57,
      "hit": false,
      "t": 103196.9800166663,
      "d": 234.84850833332166,
      "v": 76
    },
    {
      "midi": 38,
      "hit": false,
      "t": 103674.2527916663,
      "d": 12750.001274999973,
      "v": 92
    },
    {
      "midi": 50,
      "hit": false,
      "t": 103689.40430833296,
      "d": 12750.001274999973,
      "v": 92
    },
    {
      "midi": 62,
      "hit": false,
      "t": 104174.25284166628,
      "d": 272.72729999999865,
      "v": 52
    },
    {
      "midi": 69,
      "hit": false,
      "t": 104651.52561666629,
      "d": 257.5757833333337,
      "v": 33
    },
    {
      "midi": 62,
      "hit": false,
      "t": 105090.91959999962,
      "d": 265.15154166666616,
      "v": 46
    },
    {
      "midi": 62,
      "hit": false,
      "t": 105946.98029166629,
      "d": 280.30305833333114,
      "v": 51
    },
    {
      "midi": 69,
      "hit": false,
      "t": 106416.67730833295,
      "d": 212.12123333333875,
      "v": 76
    },
    {
      "midi": 62,
      "hit": false,
      "t": 106863.64704999962,
      "d": 189.39395833332674,
      "v": 49
    },
    {
      "midi": 62,
      "hit": false,
      "t": 107765.16229166627,
      "d": 257.5757833333337,
      "v": 47
    },
    {
      "midi": 69,
      "hit": false,
      "t": 108227.28354999961,
      "d": 234.8485083333362,
      "v": 55
    },
    {
      "midi": 62,
      "hit": false,
      "t": 108681.82904999962,
      "d": 196.96971666667378,
      "v": 79
    },
    {
      "midi": 62,
      "hit": false,
      "t": 109696.98066666629,
      "d": 159.0909249999968,
      "v": 16
    },
    {
      "midi": 69,
      "hit": false,
      "t": 110053.04130833296,
      "d": 181.81819999999425,
      "v": 69
    },
    {
      "midi": 62,
      "hit": false,
      "t": 110477.28377499963,
      "d": 318.1818499999936,
      "v": 43
    },
    {
      "midi": 62,
      "hit": false,
      "t": 111363.64749999961,
      "d": 325.7576083333406,
      "v": 33
    },
    {
      "midi": 69,
      "hit": false,
      "t": 111977.28392499962,
      "d": 287.8788166666636,
      "v": 22
    },
    {
      "midi": 69,
      "hit": false,
      "t": 116363.64799999961,
      "d": 409.090949999998,
      "v": 60
    },
    {
      "midi": 67,
      "hit": false,
      "t": 116363.64799999961,
      "d": 424.24246666666295,
      "v": 60
    },
    {
      "midi": 64,
      "hit": false,
      "t": 116363.64799999961,
      "d": 477.27277499999036,
      "v": 60
    },
    {
      "midi": 48,
      "hit": false,
      "t": 116363.64799999961,
      "d": 3424.2427666666335,
      "v": 60
    },
    {
      "midi": 60,
      "hit": false,
      "t": 116818.1934999996,
      "d": 174.24244166666176,
      "v": 60
    },
    {
      "midi": 69,
      "hit": false,
      "t": 117272.7389999996,
      "d": 424.24246666666295,
      "v": 60
    },
    {
      "midi": 67,
      "hit": false,
      "t": 117272.7389999996,
      "d": 454.5454999999929,
      "v": 60
    },
    {
      "midi": 64,
      "hit": false,
      "t": 117272.7389999996,
      "d": 484.84853333332285,
      "v": 60
    },
    {
      "midi": 60,
      "hit": false,
      "t": 117727.28449999959,
      "d": 143.9394083333318,
      "v": 60
    },
    {
      "midi": 69,
      "hit": false,
      "t": 118181.82999999958,
      "d": 446.9697416666604,
      "v": 60
    },
    {
      "midi": 64,
      "hit": false,
      "t": 118181.82999999958,
      "d": 522.7273249999998,
      "v": 60
    },
    {
      "midi": 67,
      "hit": false,
      "t": 118181.82999999958,
      "d": 530.3030833333323,
      "v": 60
    },
    {
      "midi": 60,
      "hit": false,
      "t": 118636.37549999957,
      "d": 219.69699166667124,
      "v": 60
    },
    {
      "midi": 67,
      "hit": false,
      "t": 119090.92099999958,
      "d": 431.81822499999544,
      "v": 60
    },
    {
      "midi": 64,
      "hit": false,
      "t": 119090.92099999958,
      "d": 515.1515666666528,
      "v": 60
    },
    {
      "midi": 69,
      "hit": false,
      "t": 119090.92099999958,
      "d": 522.7273249999853,
      "v": 60
    },
    {
      "midi": 60,
      "hit": false,
      "t": 119545.46649999957,
      "d": 159.0909249999968,
      "v": 60
    },
    {
      "midi": 69,
      "hit": false,
      "t": 120000.01199999958,
      "d": 454.5454999999929,
      "v": 60
    },
    {
      "midi": 66,
      "hit": false,
      "t": 120000.01199999958,
      "d": 462.1212583333254,
      "v": 60
    },
    {
      "midi": 64,
      "hit": false,
      "t": 120000.01199999958,
      "d": 492.42429166665534,
      "v": 60
    },
    {
      "midi": 45,
      "hit": false,
      "t": 120000.01199999958,
      "d": 3424.2427666666335,
      "v": 60
    },
    {
      "midi": 60,
      "hit": false,
      "t": 120454.55749999957,
      "d": 143.9394083333318,
      "v": 60
    },
    {
      "midi": 64,
      "hit": false,
      "t": 120909.10299999957,
      "d": 409.090949999998,
      "v": 60
    },
    {
      "midi": 69,
      "hit": false,
      "t": 120909.10299999957,
      "d": 409.090949999998,
      "v": 60
    },
    {
      "midi": 66,
      "hit": false,
      "t": 120909.10299999957,
      "d": 424.24246666666295,
      "v": 60
    },
    {
      "midi": 57,
      "hit": false,
      "t": 121363.64849999956,
      "d": 242.4242666666687,
      "v": 60
    },
    {
      "midi": 66,
      "hit": false,
      "t": 121818.19399999957,
      "d": 454.5454999999929,
      "v": 60
    },
    {
      "midi": 64,
      "hit": false,
      "t": 121818.19399999957,
      "d": 484.84853333332285,
      "v": 60
    },
    {
      "midi": 69,
      "hit": false,
      "t": 121818.19399999957,
      "d": 507.5758083333203,
      "v": 60
    },
    {
      "midi": 60,
      "hit": false,
      "t": 122272.73949999956,
      "d": 174.24244166666176,
      "v": 60
    },
    {
      "midi": 66,
      "hit": false,
      "t": 122727.28499999955,
      "d": 409.090949999998,
      "v": 60
    },
    {
      "midi": 69,
      "hit": false,
      "t": 122727.28499999955,
      "d": 424.24246666666295,
      "v": 60
    },
    {
      "midi": 64,
      "hit": false,
      "t": 122727.28499999955,
      "d": 439.3939833333279,
      "v": 60
    },
    {
      "midi": 57,
      "hit": false,
      "t": 123181.83049999955,
      "d": 219.69699166667124,
      "v": 60
    },
    {
      "midi": 66,
      "hit": false,
      "t": 123636.37599999955,
      "d": 386.3636750000005,
      "v": 60
    },
    {
      "midi": 69,
      "hit": false,
      "t": 123636.37599999955,
      "d": 393.939433333333,
      "v": 60
    },
    {
      "midi": 62,
      "hit": false,
      "t": 123636.37599999955,
      "d": 446.9697416666604,
      "v": 60
    },
    {
      "midi": 43,
      "hit": false,
      "t": 123636.37599999955,
      "d": 3250.0003249999572,
      "v": 60
    },
    {
      "midi": 59,
      "hit": false,
      "t": 124090.92149999955,
      "d": 174.24244166666176,
      "v": 60
    },
    {
      "midi": 66,
      "hit": false,
      "t": 124545.46699999954,
      "d": 484.84853333332285,
      "v": 60
    },
    {
      "midi": 62,
      "hit": false,
      "t": 124545.46699999954,
      "d": 530.3030833333178,
      "v": 60
    },
    {
      "midi": 69,
      "hit": false,
      "t": 124545.46699999954,
      "d": 553.0303583333152,
      "v": 60
    },
    {
      "midi": 59,
      "hit": false,
      "t": 125000.01249999953,
      "d": 166.66668333332927,
      "v": 60
    },
    {
      "midi": 66,
      "hit": false,
      "t": 125454.55799999952,
      "d": 560.6061166666623,
      "v": 60
    },
    {
      "midi": 62,
      "hit": false,
      "t": 125454.55799999952,
      "d": 598.4849083333247,
      "v": 60
    },
    {
      "midi": 69,
      "hit": false,
      "t": 125454.55799999952,
      "d": 659.0909749999846,
      "v": 60
    },
    {
      "midi": 59,
      "hit": false,
      "t": 125909.10349999952,
      "d": 189.39395833332674,
      "v": 60
    },
    {
      "midi": 66,
      "hit": false,
      "t": 126363.64899999951,
      "d": 553.0303583333298,
      "v": 60
    },
    {
      "midi": 69,
      "hit": false,
      "t": 126363.64899999951,
      "d": 568.1818749999948,
      "v": 60
    },
    {
      "midi": 62,
      "hit": false,
      "t": 126363.64899999951,
      "d": 575.7576333333272,
      "v": 60
    },
    {
      "midi": 59,
      "hit": false,
      "t": 126818.1944999995,
      "d": 242.4242666666687,
      "v": 60
    },
    {
      "midi": 66,
      "hit": false,
      "t": 127272.73999999951,
      "d": 545.4545999999973,
      "v": 60
    },
    {
      "midi": 64,
      "hit": false,
      "t": 127272.73999999951,
      "d": 553.0303583333298,
      "v": 60
    },
    {
      "midi": 71,
      "hit": false,
      "t": 127272.73999999951,
      "d": 568.1818749999948,
      "v": 60
    },
    {
      "midi": 40,
      "hit": false,
      "t": 127272.73999999951,
      "d": 3386.363974999971,
      "v": 60
    },
    {
      "midi": 52,
      "hit": false,
      "t": 127272.73999999951,
      "d": 3393.9397333333036,
      "v": 60
    },
    {
      "midi": 59,
      "hit": false,
      "t": 127727.2854999995,
      "d": 196.96971666667378,
      "v": 60
    },
    {
      "midi": 66,
      "hit": false,
      "t": 128181.83099999951,
      "d": 492.42429166665534,
      "v": 60
    },
    {
      "midi": 71,
      "hit": false,
      "t": 128181.83099999951,
      "d": 515.1515666666528,
      "v": 60
    },
    {
      "midi": 64,
      "hit": false,
      "t": 128181.83099999951,
      "d": 522.7273249999853,
      "v": 60
    },
    {
      "midi": 59,
      "hit": false,
      "t": 128636.3764999995,
      "d": 204.5454749999917,
      "v": 60
    },
    {
      "midi": 64,
      "hit": false,
      "t": 129090.9219999995,
      "d": 560.6061166666623,
      "v": 60
    },
    {
      "midi": 66,
      "hit": false,
      "t": 129090.9219999995,
      "d": 590.9091499999922,
      "v": 60
    },
    {
      "midi": 71,
      "hit": false,
      "t": 129090.9219999995,
      "d": 598.4849083333247,
      "v": 60
    },
    {
      "midi": 59,
      "hit": false,
      "t": 129545.46749999949,
      "d": 204.5454749999917,
      "v": 60
    },
    {
      "midi": 66,
      "hit": false,
      "t": 130000.01299999948,
      "d": 530.3030833333323,
      "v": 60
    },
    {
      "midi": 64,
      "hit": false,
      "t": 130000.01299999948,
      "d": 553.0303583333298,
      "v": 60
    },
    {
      "midi": 71,
      "hit": false,
      "t": 130000.01299999948,
      "d": 575.7576333333272,
      "v": 60
    },
    {
      "midi": 59,
      "hit": false,
      "t": 130454.55849999948,
      "d": 196.96971666667378,
      "v": 60
    },
    {
      "midi": 67,
      "hit": false,
      "t": 130909.10399999948,
      "d": 454.5454999999929,
      "v": 60
    },
    {
      "midi": 69,
      "hit": false,
      "t": 130909.10399999948,
      "d": 462.12125833333994,
      "v": 60
    },
    {
      "midi": 64,
      "hit": false,
      "t": 130909.10399999948,
      "d": 469.697016666687,
      "v": 60
    },
    {
      "midi": 48,
      "hit": false,
      "t": 130909.10399999948,
      "d": 2712.1214833334234,
      "v": 60
    },
    {
      "midi": 60,
      "hit": false,
      "t": 131363.64949999948,
      "d": 181.8182000000379,
      "v": 60
    },
    {
      "midi": 64,
      "hit": false,
      "t": 131818.1949999995,
      "d": 492.42429166668444,
      "v": 60
    },
    {
      "midi": 67,
      "hit": false,
      "t": 131818.1949999995,
      "d": 500.0000500000315,
      "v": 60
    },
    {
      "midi": 69,
      "hit": false,
      "t": 131818.1949999995,
      "d": 537.8788416667085,
      "v": 60
    },
    {
      "midi": 60,
      "hit": false,
      "t": 132272.74049999952,
      "d": 234.84850833337987,
      "v": 60
    },
    {
      "midi": 67,
      "hit": false,
      "t": 132727.28599999956,
      "d": 462.1212583333545,
      "v": 60
    },
    {
      "midi": 69,
      "hit": false,
      "t": 132727.28599999956,
      "d": 507.5758083333494,
      "v": 60
    },
    {
      "midi": 64,
      "hit": false,
      "t": 132727.28599999956,
      "d": 522.7273250000144,
      "v": 60
    },
    {
      "midi": 60,
      "hit": false,
      "t": 133181.83149999956,
      "d": 151.51516666667885,
      "v": 60
    },
    {
      "midi": 67,
      "hit": false,
      "t": 133636.37699999957,
      "d": 454.54550000000745,
      "v": 60
    },
    {
      "midi": 64,
      "hit": false,
      "t": 133636.37699999957,
      "d": 469.6970166666724,
      "v": 60
    },
    {
      "midi": 69,
      "hit": false,
      "t": 133636.37699999957,
      "d": 500.0000500000024,
      "v": 60
    },
    {
      "midi": 52,
      "hit": false,
      "t": 133636.37699999957,
      "d": 780.3031083333481,
      "v": 60
    },
    {
      "midi": 60,
      "hit": false,
      "t": 134090.92249999958,
      "d": 143.9394083333318,
      "v": 60
    },
    {
      "midi": 66,
      "hit": false,
      "t": 134545.4679999996,
      "d": 484.8485333333083,
      "v": 60
    },
    {
      "midi": 69,
      "hit": false,
      "t": 134545.4679999996,
      "d": 500.00004999997327,
      "v": 60
    },
    {
      "midi": 63,
      "hit": false,
      "t": 134545.4679999996,
      "d": 537.8788416666503,
      "v": 60
    },
    {
      "midi": 51,
      "hit": false,
      "t": 134545.4679999996,
      "d": 2681.8184499999916,
      "v": 60
    },
    {
      "midi": 59,
      "hit": false,
      "t": 135000.01349999956,
      "d": 181.8182000000088,
      "v": 60
    },
    {
      "midi": 66,
      "hit": false,
      "t": 135454.55899999957,
      "d": 469.6970166666724,
      "v": 60
    },
    {
      "midi": 63,
      "hit": false,
      "t": 135454.55899999957,
      "d": 530.3030833333323,
      "v": 60
    },
    {
      "midi": 69,
      "hit": false,
      "t": 135454.55899999957,
      "d": 530.3030833333323,
      "v": 60
    },
    {
      "midi": 59,
      "hit": false,
      "t": 135909.10449999958,
      "d": 189.39395833332674,
      "v": 60
    },
    {
      "midi": 66,
      "hit": false,
      "t": 136363.6499999996,
      "d": 416.66670833333046,
      "v": 60
    },
    {
      "midi": 63,
      "hit": false,
      "t": 136363.6499999996,
      "d": 522.7273250000144,
      "v": 60
    },
    {
      "midi": 69,
      "hit": false,
      "t": 136363.6499999996,
      "d": 553.0303583333443,
      "v": 60
    },
    {
      "midi": 59,
      "hit": false,
      "t": 136818.1954999996,
      "d": 189.39395833332674,
      "v": 60
    },
    {
      "midi": 69,
      "hit": false,
      "t": 137272.74099999957,
      "d": 424.2424666666775,
      "v": 60
    },
    {
      "midi": 66,
      "hit": false,
      "t": 137272.74099999957,
      "d": 454.54550000000745,
      "v": 60
    },
    {
      "midi": 63,
      "hit": false,
      "t": 137272.74099999957,
      "d": 492.42429166668444,
      "v": 60
    },
    {
      "midi": 59,
      "hit": false,
      "t": 137727.28649999958,
      "d": 174.24244166669087,
      "v": 60
    },
    {
      "midi": 66,
      "hit": false,
      "t": 138181.83199999962,
      "d": 469.6970166666724,
      "v": 60
    },
    {
      "midi": 69,
      "hit": false,
      "t": 138181.83199999962,
      "d": 469.6970166666724,
      "v": 60
    },
    {
      "midi": 62,
      "hit": false,
      "t": 138181.83199999962,
      "d": 545.4545999999973,
      "v": 60
    },
    {
      "midi": 43,
      "hit": false,
      "t": 138181.83199999962,
      "d": 3598.4852083334117,
      "v": 60
    },
    {
      "midi": 59,
      "hit": false,
      "t": 138636.37749999962,
      "d": 174.24244166666176,
      "v": 60
    },
    {
      "midi": 66,
      "hit": false,
      "t": 139090.92299999963,
      "d": 439.3939833333425,
      "v": 60
    },
    {
      "midi": 69,
      "hit": false,
      "t": 139090.92299999963,
      "d": 522.7273250000144,
      "v": 60
    },
    {
      "midi": 62,
      "hit": false,
      "t": 139090.92299999963,
      "d": 560.6061166666914,
      "v": 60
    },
    {
      "midi": 59,
      "hit": false,
      "t": 139545.46849999964,
      "d": 166.66668333334383,
      "v": 60
    },
    {
      "midi": 66,
      "hit": false,
      "t": 140000.01399999965,
      "d": 446.9697416666604,
      "v": 60
    },
    {
      "midi": 69,
      "hit": false,
      "t": 140000.01399999965,
      "d": 469.6970166666724,
      "v": 60
    },
    {
      "midi": 62,
      "hit": false,
      "t": 140000.01399999965,
      "d": 522.7273250000144,
      "v": 60
    },
    {
      "midi": 59,
      "hit": false,
      "t": 140454.55949999965,
      "d": 174.24244166666176,
      "v": 60
    },
    {
      "midi": 66,
      "hit": false,
      "t": 140909.10499999966,
      "d": 469.6970166666724,
      "v": 60
    },
    {
      "midi": 69,
      "hit": false,
      "t": 140909.10499999966,
      "d": 477.27277500001946,
      "v": 60
    },
    {
      "midi": 62,
      "hit": false,
      "t": 140909.10499999966,
      "d": 492.42429166668444,
      "v": 60
    },
    {
      "midi": 59,
      "hit": false,
      "t": 141363.65049999967,
      "d": 75.75758333335398,
      "v": 60
    },
    {
      "midi": 57,
      "hit": false,
      "t": 141818.1959999997,
      "d": 424.2424666666775,
      "v": 60
    },
    {
      "midi": 62,
      "hit": false,
      "t": 141818.1959999997,
      "d": 431.81822500002454,
      "v": 60
    },
    {
      "midi": 42,
      "hit": false,
      "t": 141818.1959999997,
      "d": 3378.788216666697,
      "v": 60
    },
    {
      "midi": 54,
      "hit": false,
      "t": 142272.74149999974,
      "d": 128.78789166666684,
      "v": 60
    },
    {
      "midi": 57,
      "hit": false,
      "t": 142727.28699999975,
      "d": 446.9697416666604,
      "v": 50
    },
    {
      "midi": 62,
      "hit": false,
      "t": 142727.28699999975,
      "d": 477.27277500001946,
      "v": 50
    },
    {
      "midi": 54,
      "hit": false,
      "t": 143181.83249999976,
      "d": 143.9394083333318,
      "v": 45
    },
    {
      "midi": 57,
      "hit": false,
      "t": 143636.37799999976,
      "d": 500.0000500000024,
      "v": 35
    },
    {
      "midi": 62,
      "hit": false,
      "t": 143636.37799999976,
      "d": 560.6061166666623,
      "v": 35
    },
    {
      "midi": 54,
      "hit": false,
      "t": 144090.92349999977,
      "d": 75.75758333332487,
      "v": 35
    },
    {
      "midi": 57,
      "hit": false,
      "t": 144545.46899999975,
      "d": 454.54550000000745,
      "v": 60
    },
    {
      "midi": 62,
      "hit": false,
      "t": 144545.46899999975,
      "d": 545.4545999999973,
      "v": 60
    },
    {
      "midi": 54,
      "hit": false,
      "t": 145000.01449999976,
      "d": 227.27274999997462,
      "v": 60
    },
    {
      "midi": 57,
      "hit": false,
      "t": 145454.55999999974,
      "d": 666.6667333333462,
      "v": 60
    },
    {
      "midi": 59,
      "hit": false,
      "t": 145454.55999999974,
      "d": 696.9697666666762,
      "v": 57
    },
    {
      "midi": 52,
      "hit": false,
      "t": 145454.55999999974,
      "d": 704.5455250000232,
      "v": 54
    },
    {
      "midi": 48,
      "hit": false,
      "t": 145454.55999999974,
      "d": 1166.6667833333486,
      "v": 58
    },
    {
      "midi": 57,
      "hit": false,
      "t": 146363.65099999975,
      "d": 583.3333916666743,
      "v": 56
    },
    {
      "midi": 52,
      "hit": false,
      "t": 146363.65099999975,
      "d": 628.7879416666692,
      "v": 53
    },
    {
      "midi": 59,
      "hit": false,
      "t": 146363.65099999975,
      "d": 643.9394583333342,
      "v": 54
    },
    {
      "midi": 48,
      "hit": false,
      "t": 146818.19649999976,
      "d": 727.2728000000061,
      "v": 53
    },
    {
      "midi": 48,
      "hit": false,
      "t": 147727.28749999977,
      "d": 204.5454749999917,
      "v": 54
    },
    {
      "midi": 57,
      "hit": false,
      "t": 148181.83299999975,
      "d": 250.00002500001574,
      "v": 53
    },
    {
      "midi": 59,
      "hit": false,
      "t": 148181.83299999975,
      "d": 272.72730000002775,
      "v": 54
    },
    {
      "midi": 52,
      "hit": false,
      "t": 148409.10574999976,
      "d": 242.4242666666978,
      "v": 61
    },
    {
      "midi": 48,
      "hit": false,
      "t": 148636.3784999998,
      "d": 378.7879166666535,
      "v": 57
    },
    {
      "midi": 54,
      "hit": false,
      "t": 149090.92399999977,
      "d": 310.60609166667564,
      "v": 43
    },
    {
      "midi": 57,
      "hit": false,
      "t": 149090.92399999977,
      "d": 477.27277500001946,
      "v": 61
    },
    {
      "midi": 62,
      "hit": false,
      "t": 149090.92399999977,
      "d": 492.42429166668444,
      "v": 41
    },
    {
      "midi": 42,
      "hit": false,
      "t": 149090.92399999977,
      "d": 3560.606416666764,
      "v": 48
    },
    {
      "midi": 54,
      "hit": false,
      "t": 149545.46949999977,
      "d": 219.6969916666858,
      "v": 41
    },
    {
      "midi": 57,
      "hit": false,
      "t": 150000.01499999978,
      "d": 439.3939833333425,
      "v": 58
    },
    {
      "midi": 62,
      "hit": false,
      "t": 150000.01499999978,
      "d": 613.6364250000042,
      "v": 43
    },
    {
      "midi": 54,
      "hit": false,
      "t": 150454.5604999998,
      "d": 219.6969916666567,
      "v": 28
    },
    {
      "midi": 57,
      "hit": false,
      "t": 150909.10599999977,
      "d": 454.54550000000745,
      "v": 46
    },
    {
      "midi": 62,
      "hit": false,
      "t": 150909.10599999977,
      "d": 606.0606666666863,
      "v": 48
    },
    {
      "midi": 54,
      "hit": false,
      "t": 151363.65149999977,
      "d": 174.24244166669087,
      "v": 42
    },
    {
      "midi": 57,
      "hit": false,
      "t": 151818.1969999998,
      "d": 250.00002500001574,
      "v": 58
    },
    {
      "midi": 62,
      "hit": false,
      "t": 151818.1969999998,
      "d": 287.8788166666927,
      "v": 47
    },
    {
      "midi": 54,
      "hit": false,
      "t": 152045.46974999981,
      "d": 295.45457500003977,
      "v": 52
    },
    {
      "midi": 57,
      "hit": false,
      "t": 152272.74249999985,
      "d": 242.4242666666687,
      "v": 63
    },
    {
      "midi": 62,
      "hit": false,
      "t": 152500.01524999985,
      "d": 128.78789166666684,
      "v": 52
    },
    {
      "midi": 52,
      "hit": false,
      "t": 152727.28799999985,
      "d": 340.9091250000056,
      "v": 55
    },
    {
      "midi": 57,
      "hit": false,
      "t": 152727.28799999985,
      "d": 409.0909500000125,
      "v": 58
    },
    {
      "midi": 59,
      "hit": false,
      "t": 152727.28799999985,
      "d": 446.9697416666895,
      "v": 57
    },
    {
      "midi": 48,
      "hit": false,
      "t": 152727.28799999985,
      "d": 2007.5759583333565,
      "v": 55
    },
    {
      "midi": 52,
      "hit": false,
      "t": 153181.8334999999,
      "d": 204.5454749999917,
      "v": 52
    },
    {
      "midi": 57,
      "hit": false,
      "t": 153636.37899999987,
      "d": 280.3030583333457,
      "v": 54
    },
    {
      "midi": 52,
      "hit": false,
      "t": 153636.37899999987,
      "d": 310.60609166667564,
      "v": 54
    },
    {
      "midi": 59,
      "hit": false,
      "t": 153636.37899999987,
      "d": 333.33336666668765,
      "v": 53
    },
    {
      "midi": 57,
      "hit": false,
      "t": 154090.92449999988,
      "d": 712.1212833333411,
      "v": 52
    },
    {
      "midi": 52,
      "hit": false,
      "t": 154090.92449999988,
      "d": 833.3334166666609,
      "v": 48
    },
    {
      "midi": 59,
      "hit": false,
      "t": 154090.92449999988,
      "d": 863.6364499999909,
      "v": 49
    },
    {
      "midi": 48,
      "hit": false,
      "t": 155000.01549999986,
      "d": 628.7879416666692,
      "v": 57
    },
    {
      "midi": 57,
      "hit": false,
      "t": 155454.56099999987,
      "d": 242.4242666666687,
      "v": 55
    },
    {
      "midi": 59,
      "hit": false,
      "t": 155454.56099999987,
      "d": 242.4242666666687,
      "v": 56
    },
    {
      "midi": 52,
      "hit": false,
      "t": 155681.83374999987,
      "d": 287.8788166666636,
      "v": 57
    },
    {
      "midi": 48,
      "hit": false,
      "t": 155909.10649999988,
      "d": 401.5151916666655,
      "v": 58
    },
    {
      "midi": 57,
      "hit": false,
      "t": 156363.65199999989,
      "d": 318.1818500000227,
      "v": 66
    },
    {
      "midi": 62,
      "hit": false,
      "t": 156363.65199999989,
      "d": 469.69701666670153,
      "v": 54
    },
    {
      "midi": 42,
      "hit": false,
      "t": 156363.65199999989,
      "d": 3484.8488333333808,
      "v": 48
    },
    {
      "midi": 54,
      "hit": false,
      "t": 156818.19749999992,
      "d": 204.5454749999917,
      "v": 50
    },
    {
      "midi": 62,
      "hit": false,
      "t": 157272.7429999999,
      "d": 500.0000500000024,
      "v": 50
    },
    {
      "midi": 57,
      "hit": false,
      "t": 157500.0157499999,
      "d": 166.66668333334383,
      "v": 60
    },
    {
      "midi": 54,
      "hit": false,
      "t": 157727.2884999999,
      "d": 212.12123333333875,
      "v": 60
    },
    {
      "midi": 57,
      "hit": false,
      "t": 158181.83399999992,
      "d": 393.93943333334755,
      "v": 65
    },
    {
      "midi": 62,
      "hit": false,
      "t": 158181.83399999992,
      "d": 439.3939833333425,
      "v": 50
    },
    {
      "midi": 54,
      "hit": false,
      "t": 158636.37949999992,
      "d": 166.66668333334383,
      "v": 57
    },
    {
      "midi": 62,
      "hit": false,
      "t": 159090.92499999993,
      "d": 712.1212833333411,
      "v": 69
    },
    {
      "midi": 57,
      "hit": false,
      "t": 159772.74324999994,
      "d": 83.33334166667191,
      "v": 74
    },
    {
      "midi": 48,
      "hit": false,
      "t": 160000.01599999995,
      "d": 287.8788166666927,
      "v": 52
    },
    {
      "midi": 52,
      "hit": false,
      "t": 160000.01599999995,
      "d": 568.1818750000384,
      "v": 54
    },
    {
      "midi": 57,
      "hit": false,
      "t": 160000.01599999995,
      "d": 575.7576333333855,
      "v": 57
    },
    {
      "midi": 59,
      "hit": false,
      "t": 160000.01599999995,
      "d": 575.7576333333855,
      "v": 55
    },
    {
      "midi": 48,
      "hit": false,
      "t": 160454.56149999998,
      "d": 659.0909749999992,
      "v": 42
    },
    {
      "midi": 57,
      "hit": false,
      "t": 160909.107,
      "d": 439.3939833333134,
      "v": 55
    },
    {
      "midi": 59,
      "hit": false,
      "t": 160909.107,
      "d": 462.1212583333254,
      "v": 54
    },
    {
      "midi": 52,
      "hit": false,
      "t": 160909.107,
      "d": 469.6970166666724,
      "v": 49
    },
    {
      "midi": 48,
      "hit": false,
      "t": 161363.65249999997,
      "d": 742.4243166667002,
      "v": 55
    },
    {
      "midi": 48,
      "hit": false,
      "t": 162272.7435,
      "d": 431.81822499999544,
      "v": 57
    },
    {
      "midi": 57,
      "hit": false,
      "t": 162727.28900000002,
      "d": 303.0303333333286,
      "v": 58
    },
    {
      "midi": 59,
      "hit": false,
      "t": 162727.28900000002,
      "d": 303.0303333333286,
      "v": 54
    },
    {
      "midi": 52,
      "hit": false,
      "t": 162954.56175000002,
      "d": 189.39395833332674,
      "v": 57
    },
    {
      "midi": 48,
      "hit": false,
      "t": 163181.83450000003,
      "d": 303.0303333333286,
      "v": 60
    },
    {
      "midi": 54,
      "hit": false,
      "t": 163636.38000000003,
      "d": 30.303033333359053,
      "v": 40
    },
    {
      "midi": 57,
      "hit": false,
      "t": 163636.38000000003,
      "d": 378.7879166666826,
      "v": 64
    },
    {
      "midi": 62,
      "hit": false,
      "t": 163636.38000000003,
      "d": 515.1515666666673,
      "v": 57
    },
    {
      "midi": 42,
      "hit": false,
      "t": 163636.38000000003,
      "d": 3424.2427666666626,
      "v": 46
    },
    {
      "midi": 54,
      "hit": false,
      "t": 164090.92550000004,
      "d": 204.5454749999917,
      "v": 33
    },
    {
      "midi": 57,
      "hit": false,
      "t": 164545.47100000002,
      "d": 393.93943333334755,
      "v": 58
    },
    {
      "midi": 62,
      "hit": false,
      "t": 164545.47100000002,
      "d": 1037.8788916666817,
      "v": 39
    },
    {
      "midi": 54,
      "hit": false,
      "t": 165000.01650000003,
      "d": 704.5455249999941,
      "v": 42
    },
    {
      "midi": 54,
      "hit": false,
      "t": 165909.1075,
      "d": 371.21215833333554,
      "v": 48
    },
    {
      "midi": 57,
      "hit": false,
      "t": 166363.65300000002,
      "d": 386.3636750000005,
      "v": 58
    },
    {
      "midi": 62,
      "hit": false,
      "t": 166363.65300000002,
      "d": 446.9697416666604,
      "v": 46
    },
    {
      "midi": 54,
      "hit": false,
      "t": 166818.19850000003,
      "d": 227.27275000000373,
      "v": 39
    },
    {
      "midi": 64,
      "hit": false,
      "t": 167272.74400000004,
      "d": 492.42429166668444,
      "v": 56
    },
    {
      "midi": 60,
      "hit": false,
      "t": 167272.74400000004,
      "d": 537.8788416666794,
      "v": 57
    },
    {
      "midi": 45,
      "hit": false,
      "t": 167272.74400000004,
      "d": 1772.7274500000058,
      "v": 63
    },
    {
      "midi": 57,
      "hit": false,
      "t": 167727.28950000004,
      "d": 151.51516666667885,
      "v": 56
    },
    {
      "midi": 64,
      "hit": false,
      "t": 168181.83500000005,
      "d": 515.1515666666673,
      "v": 54
    },
    {
      "midi": 60,
      "hit": false,
      "t": 168181.83500000005,
      "d": 553.0303583333443,
      "v": 55
    },
    {
      "midi": 57,
      "hit": false,
      "t": 168636.38050000006,
      "d": 204.5454749999917,
      "v": 55
    },
    {
      "midi": 59,
      "hit": false,
      "t": 169090.92600000004,
      "d": 522.7273250000144,
      "v": 61
    },
    {
      "midi": 62,
      "hit": false,
      "t": 169090.92600000004,
      "d": 522.7273250000144,
      "v": 61
    },
    {
      "midi": 47,
      "hit": false,
      "t": 169090.92600000004,
      "d": 1750.000175000052,
      "v": 63
    },
    {
      "midi": 55,
      "hit": false,
      "t": 169545.47150000004,
      "d": 159.0909249999968,
      "v": 45
    },
    {
      "midi": 62,
      "hit": false,
      "t": 170000.01700000005,
      "d": 507.5758083333494,
      "v": 54
    },
    {
      "midi": 59,
      "hit": false,
      "t": 170000.01700000005,
      "d": 530.3030833333614,
      "v": 56
    },
    {
      "midi": 55,
      "hit": false,
      "t": 170454.56250000006,
      "d": 121.2121333333489,
      "v": 51
    },
    {
      "midi": 64,
      "hit": false,
      "t": 170909.1080000001,
      "d": 484.8485333333083,
      "v": 56
    },
    {
      "midi": 60,
      "hit": false,
      "t": 170909.1080000001,
      "d": 522.7273249999853,
      "v": 58
    },
    {
      "midi": 48,
      "hit": false,
      "t": 170909.1080000001,
      "d": 1689.3941083333339,
      "v": 58
    },
    {
      "midi": 57,
      "hit": false,
      "t": 171363.65350000007,
      "d": 143.9394083333318,
      "v": 55
    },
    {
      "midi": 64,
      "hit": false,
      "t": 171818.19900000008,
      "d": 439.3939833333425,
      "v": 57
    },
    {
      "midi": 60,
      "hit": false,
      "t": 171818.19900000008,
      "d": 500.0000500000024,
      "v": 58
    },
    {
      "midi": 57,
      "hit": false,
      "t": 172272.7445000001,
      "d": 143.9394083333318,
      "v": 57
    },
    {
      "midi": 64,
      "hit": false,
      "t": 172727.2900000001,
      "d": 507.5758083333494,
      "v": 60
    },
    {
      "midi": 62,
      "hit": false,
      "t": 172727.2900000001,
      "d": 530.3030833333614,
      "v": 63
    },
    {
      "midi": 50,
      "hit": false,
      "t": 172727.2900000001,
      "d": 1189.3940583333897,
      "v": 60
    },
    {
      "midi": 57,
      "hit": false,
      "t": 173181.8355000001,
      "d": 174.24244166669087,
      "v": 58
    },
    {
      "midi": 62,
      "hit": false,
      "t": 173636.38100000014,
      "d": 583.3333916666743,
      "v": 62
    },
    {
      "midi": 64,
      "hit": false,
      "t": 173636.38100000014,
      "d": 583.3333916666743,
      "v": 57
    },
    {
      "midi": 50,
      "hit": false,
      "t": 174090.92650000015,
      "d": 325.7576083333406,
      "v": 60
    },
    {
      "midi": 64,
      "hit": false,
      "t": 174545.47200000015,
      "d": 477.27277500001946,
      "v": 61
    },
    {
      "midi": 60,
      "hit": false,
      "t": 174545.47200000015,
      "d": 530.3030833333614,
      "v": 63
    },
    {
      "midi": 45,
      "hit": false,
      "t": 174545.47200000015,
      "d": 1803.030483333394,
      "v": 66
    },
    {
      "midi": 57,
      "hit": false,
      "t": 175000.01750000016,
      "d": 113.63637500003097,
      "v": 56
    },
    {
      "midi": 64,
      "hit": false,
      "t": 175454.5630000002,
      "d": 439.3939833333425,
      "v": 56
    },
    {
      "midi": 60,
      "hit": false,
      "t": 175454.5630000002,
      "d": 530.3030833333323,
      "v": 60
    },
    {
      "midi": 57,
      "hit": false,
      "t": 175909.1085000002,
      "d": 128.78789166666684,
      "v": 54
    },
    {
      "midi": 62,
      "hit": false,
      "t": 176363.6540000002,
      "d": 469.6970166666433,
      "v": 61
    },
    {
      "midi": 59,
      "hit": false,
      "t": 176363.6540000002,
      "d": 500.00004999997327,
      "v": 63
    },
    {
      "midi": 47,
      "hit": false,
      "t": 176363.6540000002,
      "d": 1765.1516916666587,
      "v": 66
    },
    {
      "midi": 55,
      "hit": false,
      "t": 176818.1995000002,
      "d": 159.0909249999968,
      "v": 57
    },
    {
      "midi": 62,
      "hit": false,
      "t": 177272.7450000002,
      "d": 454.54550000000745,
      "v": 58
    },
    {
      "midi": 59,
      "hit": false,
      "t": 177272.7450000002,
      "d": 515.1515666666673,
      "v": 61
    },
    {
      "midi": 55,
      "hit": false,
      "t": 177727.2905000002,
      "d": 196.96971666667378,
      "v": 49
    },
    {
      "midi": 64,
      "hit": false,
      "t": 178181.8360000002,
      "d": 454.54550000000745,
      "v": 60
    },
    {
      "midi": 60,
      "hit": false,
      "t": 178181.8360000002,
      "d": 522.7273250000144,
      "v": 61
    },
    {
      "midi": 48,
      "hit": false,
      "t": 178181.8360000002,
      "d": 1765.1516916666878,
      "v": 63
    },
    {
      "midi": 57,
      "hit": false,
      "t": 178636.38150000022,
      "d": 151.51516666667885,
      "v": 54
    },
    {
      "midi": 60,
      "hit": false,
      "t": 179090.92700000023,
      "d": 500.0000500000024,
      "v": 60
    },
    {
      "midi": 64,
      "hit": false,
      "t": 179090.92700000023,
      "d": 507.5758083333494,
      "v": 57
    },
    {
      "midi": 57,
      "hit": false,
      "t": 179545.47250000024,
      "d": 166.66668333334383,
      "v": 58
    },
    {
      "midi": 64,
      "hit": false,
      "t": 180000.01800000024,
      "d": 477.27277500001946,
      "v": 61
    },
    {
      "midi": 62,
      "hit": false,
      "t": 180000.01800000024,
      "d": 515.1515666666965,
      "v": 64
    },
    {
      "midi": 50,
      "hit": false,
      "t": 180000.01800000024,
      "d": 1780.3032083333528,
      "v": 67
    },
    {
      "midi": 57,
      "hit": false,
      "t": 180454.56350000025,
      "d": 166.66668333334383,
      "v": 58
    },
    {
      "midi": 64,
      "hit": false,
      "t": 180909.10900000026,
      "d": 439.3939833333425,
      "v": 64
    },
    {
      "midi": 62,
      "hit": false,
      "t": 180909.10900000026,
      "d": 469.6970166666724,
      "v": 69
    },
    {
      "midi": 57,
      "hit": false,
      "t": 181363.65450000027,
      "d": 166.66668333334383,
      "v": 61
    },
    {
      "midi": 64,
      "hit": false,
      "t": 181818.20000000027,
      "d": 462.1212583333254,
      "v": 60
    },
    {
      "midi": 60,
      "hit": false,
      "t": 181818.20000000027,
      "d": 553.0303583333152,
      "v": 63
    },
    {
      "midi": 45,
      "hit": false,
      "t": 181818.20000000027,
      "d": 1803.0304833333357,
      "v": 63
    },
    {
      "midi": 57,
      "hit": false,
      "t": 182272.74550000025,
      "d": 151.51516666667885,
      "v": 60
    },
    {
      "midi": 64,
      "hit": false,
      "t": 182727.29100000026,
      "d": 446.9697416666604,
      "v": 58
    },
    {
      "midi": 60,
      "hit": false,
      "t": 182727.29100000026,
      "d": 537.8788416666794,
      "v": 61
    },
    {
      "midi": 57,
      "hit": false,
      "t": 183181.83650000027,
      "d": 166.66668333334383,
      "v": 52
    },
    {
      "midi": 62,
      "hit": false,
      "t": 183636.38200000027,
      "d": 515.1515666666673,
      "v": 61
    },
    {
      "midi": 59,
      "hit": false,
      "t": 183636.38200000027,
      "d": 522.7273250000144,
      "v": 61
    },
    {
      "midi": 47,
      "hit": false,
      "t": 183636.38200000027,
      "d": 1863.6365500000538,
      "v": 62
    },
    {
      "midi": 55,
      "hit": false,
      "t": 184090.92750000028,
      "d": 166.66668333334383,
      "v": 57
    },
    {
      "midi": 62,
      "hit": false,
      "t": 184545.4730000003,
      "d": 522.7273250000144,
      "v": 61
    },
    {
      "midi": 59,
      "hit": false,
      "t": 184545.4730000003,
      "d": 560.6061166666914,
      "v": 61
    },
    {
      "midi": 55,
      "hit": false,
      "t": 185000.0185000003,
      "d": 143.93940833336092,
      "v": 55
    },
    {
      "midi": 60,
      "hit": false,
      "t": 185454.56400000033,
      "d": 477.27277500001946,
      "v": 63
    },
    {
      "midi": 64,
      "hit": false,
      "t": 185454.56400000033,
      "d": 484.8485333333665,
      "v": 61
    },
    {
      "midi": 48,
      "hit": false,
      "t": 185454.56400000033,
      "d": 1734.848658333358,
      "v": 67
    },
    {
      "midi": 57,
      "hit": false,
      "t": 185909.10950000034,
      "d": 196.96971666670288,
      "v": 57
    },
    {
      "midi": 64,
      "hit": false,
      "t": 186363.65500000038,
      "d": 424.2424666666775,
      "v": 59
    },
    {
      "midi": 60,
      "hit": false,
      "t": 186363.65500000038,
      "d": 515.1515666666673,
      "v": 61
    },
    {
      "midi": 57,
      "hit": false,
      "t": 186818.20050000038,
      "d": 166.66668333331472,
      "v": 58
    },
    {
      "midi": 64,
      "hit": false,
      "t": 187272.74600000036,
      "d": 530.3030833333323,
      "v": 60
    },
    {
      "midi": 62,
      "hit": false,
      "t": 187272.74600000036,
      "d": 560.6061166666623,
      "v": 66
    },
    {
      "midi": 50,
      "hit": false,
      "t": 187272.74600000036,
      "d": 1143.9395083333075,
      "v": 65
    },
    {
      "midi": 57,
      "hit": false,
      "t": 187727.29150000037,
      "d": 151.51516666664975,
      "v": 60
    },
    {
      "midi": 64,
      "hit": false,
      "t": 188181.83700000035,
      "d": 606.0606666666572,
      "v": 64
    },
    {
      "midi": 62,
      "hit": false,
      "t": 188181.83700000035,
      "d": 613.6364250000042,
      "v": 65
    },
    {
      "midi": 50,
      "hit": false,
      "t": 188636.38250000033,
      "d": 378.7879166666826,
      "v": 61
    },
    {
      "midi": 60,
      "hit": false,
      "t": 189090.92800000033,
      "d": 522.7273250000144,
      "v": 63
    },
    {
      "midi": 64,
      "hit": false,
      "t": 189090.92800000033,
      "d": 537.8788416666794,
      "v": 61
    },
    {
      "midi": 45,
      "hit": false,
      "t": 189090.92800000033,
      "d": 1803.0304833333648,
      "v": 64
    },
    {
      "midi": 57,
      "hit": false,
      "t": 189545.47350000034,
      "d": 159.0909249999968,
      "v": 57
    },
    {
      "midi": 64,
      "hit": false,
      "t": 190000.01900000035,
      "d": 469.6970166666724,
      "v": 63
    },
    {
      "midi": 60,
      "hit": false,
      "t": 190000.01900000035,
      "d": 515.1515666666673,
      "v": 61
    },
    {
      "midi": 57,
      "hit": false,
      "t": 190454.56450000036,
      "d": 159.0909249999968,
      "v": 58
    },
    {
      "midi": 62,
      "hit": false,
      "t": 190909.11000000036,
      "d": 500.0000500000024,
      "v": 63
    },
    {
      "midi": 59,
      "hit": false,
      "t": 190909.11000000036,
      "d": 522.7273250000144,
      "v": 63
    },
    {
      "midi": 47,
      "hit": false,
      "t": 190909.11000000036,
      "d": 1795.4547250000178,
      "v": 63
    },
    {
      "midi": 55,
      "hit": false,
      "t": 191363.65550000037,
      "d": 174.24244166666176,
      "v": 54
    },
    {
      "midi": 62,
      "hit": false,
      "t": 191818.20100000038,
      "d": 484.8485333333374,
      "v": 60
    },
    {
      "midi": 59,
      "hit": false,
      "t": 191818.20100000038,
      "d": 522.7273250000144,
      "v": 60
    },
    {
      "midi": 55,
      "hit": false,
      "t": 192272.7465000004,
      "d": 303.0303333333286,
      "v": 51
    },
    {
      "midi": 64,
      "hit": false,
      "t": 192727.2920000004,
      "d": 492.42429166668444,
      "v": 55
    },
    {
      "midi": 60,
      "hit": false,
      "t": 192727.2920000004,
      "d": 537.8788416666794,
      "v": 55
    },
    {
      "midi": 48,
      "hit": false,
      "t": 192727.2920000004,
      "d": 1787.8789666666999,
      "v": 63
    },
    {
      "midi": 57,
      "hit": false,
      "t": 193181.8375000004,
      "d": 159.0909249999968,
      "v": 51
    },
    {
      "midi": 64,
      "hit": false,
      "t": 193636.3830000004,
      "d": 507.5758083333494,
      "v": 54
    },
    {
      "midi": 60,
      "hit": false,
      "t": 193636.3830000004,
      "d": 537.8788416666794,
      "v": 55
    },
    {
      "midi": 57,
      "hit": false,
      "t": 194090.92850000042,
      "d": 159.0909249999968,
      "v": 55
    },
    {
      "midi": 64,
      "hit": false,
      "t": 194545.47400000042,
      "d": 507.5758083333494,
      "v": 61
    },
    {
      "midi": 62,
      "hit": false,
      "t": 194545.47400000042,
      "d": 560.6061166666914,
      "v": 64
    },
    {
      "midi": 50,
      "hit": false,
      "t": 194545.47400000042,
      "d": 1234.8486083333846,
      "v": 58
    },
    {
      "midi": 57,
      "hit": false,
      "t": 195000.01950000043,
      "d": 159.0909250000259,
      "v": 58
    },
    {
      "midi": 64,
      "hit": false,
      "t": 195454.56500000047,
      "d": 734.8485583333531,
      "v": 63
    },
    {
      "midi": 62,
      "hit": false,
      "t": 195454.56500000047,
      "d": 742.4243166667002,
      "v": 66
    },
    {
      "midi": 50,
      "hit": false,
      "t": 195909.11050000048,
      "d": 386.3636750000296,
      "v": 60
    },
    {
      "midi": 60,
      "hit": false,
      "t": 196363.6560000005,
      "d": 522.7273250000144,
      "v": 63
    },
    {
      "midi": 64,
      "hit": false,
      "t": 196363.6560000005,
      "d": 537.8788416666794,
      "v": 61
    },
    {
      "midi": 45,
      "hit": false,
      "t": 196363.6560000005,
      "d": 1803.0304833333648,
      "v": 64
    },
    {
      "midi": 57,
      "hit": false,
      "t": 196818.20150000052,
      "d": 159.0909249999968,
      "v": 57
    },
    {
      "midi": 64,
      "hit": false,
      "t": 197272.74700000053,
      "d": 469.6970166666724,
      "v": 63
    },
    {
      "midi": 60,
      "hit": false,
      "t": 197272.74700000053,
      "d": 515.1515666666673,
      "v": 61
    },
    {
      "midi": 57,
      "hit": false,
      "t": 197727.29250000053,
      "d": 159.0909249999968,
      "v": 58
    },
    {
      "midi": 62,
      "hit": false,
      "t": 198181.83800000054,
      "d": 500.0000500000024,
      "v": 63
    },
    {
      "midi": 59,
      "hit": false,
      "t": 198181.83800000054,
      "d": 522.7273250000144,
      "v": 63
    },
    {
      "midi": 47,
      "hit": false,
      "t": 198181.83800000054,
      "d": 1795.4547250000178,
      "v": 63
    },
    {
      "midi": 55,
      "hit": false,
      "t": 198636.38350000055,
      "d": 174.24244166666176,
      "v": 54
    },
    {
      "midi": 62,
      "hit": false,
      "t": 199090.92900000056,
      "d": 484.8485333333374,
      "v": 60
    },
    {
      "midi": 59,
      "hit": false,
      "t": 199090.92900000056,
      "d": 522.7273250000144,
      "v": 60
    },
    {
      "midi": 55,
      "hit": false,
      "t": 199545.47450000056,
      "d": 303.0303333333286,
      "v": 51
    },
    {
      "midi": 64,
      "hit": false,
      "t": 200000.02000000057,
      "d": 492.42429166668444,
      "v": 55
    },
    {
      "midi": 60,
      "hit": false,
      "t": 200000.02000000057,
      "d": 537.8788416666794,
      "v": 55
    },
    {
      "midi": 48,
      "hit": false,
      "t": 200000.02000000057,
      "d": 1787.8789666666999,
      "v": 63
    },
    {
      "midi": 57,
      "hit": false,
      "t": 200454.56550000058,
      "d": 159.0909249999968,
      "v": 51
    },
    {
      "midi": 64,
      "hit": false,
      "t": 200909.1110000006,
      "d": 507.5758083333494,
      "v": 54
    },
    {
      "midi": 60,
      "hit": false,
      "t": 200909.1110000006,
      "d": 537.8788416666794,
      "v": 55
    },
    {
      "midi": 57,
      "hit": false,
      "t": 201363.6565000006,
      "d": 159.0909249999968,
      "v": 55
    },
    {
      "midi": 64,
      "hit": false,
      "t": 201818.2020000006,
      "d": 507.5758083333494,
      "v": 61
    },
    {
      "midi": 62,
      "hit": false,
      "t": 201818.2020000006,
      "d": 560.6061166666914,
      "v": 64
    },
    {
      "midi": 50,
      "hit": false,
      "t": 201818.2020000006,
      "d": 1234.8486083333846,
      "v": 58
    },
    {
      "midi": 57,
      "hit": false,
      "t": 202272.7475000006,
      "d": 159.0909250000259,
      "v": 58
    },
    {
      "midi": 64,
      "hit": false,
      "t": 202727.29300000065,
      "d": 734.8485583333531,
      "v": 63
    },
    {
      "midi": 62,
      "hit": false,
      "t": 202727.29300000065,
      "d": 742.4243166667002,
      "v": 66
    },
    {
      "midi": 50,
      "hit": false,
      "t": 203181.83850000065,
      "d": 386.3636750000296,
      "v": 60
    },
    {
      "midi": 64,
      "hit": false,
      "t": 203636.3840000007,
      "d": 439.3939833333425,
      "v": 64
    },
    {
      "midi": 60,
      "hit": false,
      "t": 203636.3840000007,
      "d": 568.1818750000093,
      "v": 64
    },
    {
      "midi": 45,
      "hit": false,
      "t": 203636.3840000007,
      "d": 1848.4850333333306,
      "v": 66
    },
    {
      "midi": 57,
      "hit": false,
      "t": 204090.9295000007,
      "d": 143.9394083333318,
      "v": 56
    },
    {
      "midi": 64,
      "hit": false,
      "t": 204545.4750000007,
      "d": 446.9697416666604,
      "v": 51
    },
    {
      "midi": 60,
      "hit": false,
      "t": 204545.4750000007,
      "d": 530.3030833333323,
      "v": 57
    },
    {
      "midi": 57,
      "hit": false,
      "t": 205000.0205000007,
      "d": 136.36364999998477,
      "v": 52
    },
    {
      "midi": 62,
      "hit": false,
      "t": 205454.5660000007,
      "d": 492.42429166665534,
      "v": 60
    },
    {
      "midi": 59,
      "hit": false,
      "t": 205454.5660000007,
      "d": 500.0000500000024,
      "v": 61
    },
    {
      "midi": 47,
      "hit": false,
      "t": 205454.5660000007,
      "d": 1795.4547249999887,
      "v": 61
    },
    {
      "midi": 55,
      "hit": false,
      "t": 205909.11150000067,
      "d": 151.51516666667885,
      "v": 46
    },
    {
      "midi": 62,
      "hit": false,
      "t": 206363.65700000068,
      "d": 530.3030833333323,
      "v": 54
    },
    {
      "midi": 59,
      "hit": false,
      "t": 206363.65700000068,
      "d": 560.6061166666623,
      "v": 57
    },
    {
      "midi": 55,
      "hit": false,
      "t": 206818.20250000068,
      "d": 174.24244166666176,
      "v": 48
    },
    {
      "midi": 64,
      "hit": false,
      "t": 207272.7480000007,
      "d": 431.81822499999544,
      "v": 56
    },
    {
      "midi": 60,
      "hit": false,
      "t": 207272.7480000007,
      "d": 507.5758083333494,
      "v": 58
    },
    {
      "midi": 48,
      "hit": false,
      "t": 207272.7480000007,
      "d": 1810.6062416667119,
      "v": 57
    },
    {
      "midi": 57,
      "hit": false,
      "t": 207727.2935000007,
      "d": 143.9394083333318,
      "v": 52
    },
    {
      "midi": 64,
      "hit": false,
      "t": 208181.8390000007,
      "d": 484.8485333333374,
      "v": 54
    },
    {
      "midi": 60,
      "hit": false,
      "t": 208181.8390000007,
      "d": 568.1818750000093,
      "v": 58
    },
    {
      "midi": 57,
      "hit": false,
      "t": 208636.3845000007,
      "d": 439.3939833333425,
      "v": 57
    },
    {
      "midi": 50,
      "hit": false,
      "t": 209090.93000000075,
      "d": 7227.273449999979,
      "v": 58
    },
    {
      "midi": 62,
      "hit": false,
      "t": 209545.47550000076,
      "d": 318.1818499999936,
      "v": 40
    },
    {
      "midi": 69,
      "hit": false,
      "t": 210000.02100000076,
      "d": 363.6363999999885,
      "v": 47
    },
    {
      "midi": 62,
      "hit": false,
      "t": 210454.56650000074,
      "d": 212.12123333333875,
      "v": 36
    },
    {
      "midi": 62,
      "hit": false,
      "t": 211363.65750000076,
      "d": 250.00002499998664,
      "v": 22
    },
    {
      "midi": 69,
      "hit": false,
      "t": 211818.20300000074,
      "d": 295.45457500001066,
      "v": 30
    },
    {
      "midi": 62,
      "hit": false,
      "t": 212272.74850000074,
      "d": 348.4848833333235,
      "v": 27
    },
    {
      "midi": 62,
      "hit": false,
      "t": 213181.83950000073,
      "d": 325.7576083333406,
      "v": 42
    },
    {
      "midi": 69,
      "hit": false,
      "t": 213636.38500000074,
      "d": 234.84850833332166,
      "v": 49
    },
    {
      "midi": 62,
      "hit": false,
      "t": 214090.93050000072,
      "d": 333.33336666665855,
      "v": 40
    },
    {
      "midi": 62,
      "hit": false,
      "t": 215000.0215000007,
      "d": 340.9091250000056,
      "v": 34
    },
    {
      "midi": 69,
      "hit": false,
      "t": 215454.5670000007,
      "d": 371.21215833333554,
      "v": 49
    },
    {
      "midi": 62,
      "hit": false,
      "t": 215909.11250000072,
      "d": 401.5151916666655,
      "v": 30
    },
    {
      "midi": 48,
      "hit": false,
      "t": 216363.65800000072,
      "d": 3636.3640000000596,
      "v": 60
    },
    {
      "midi": 64,
      "hit": false,
      "t": 216818.20350000073,
      "d": 386.3636750000005,
      "v": 43
    },
    {
      "midi": 71,
      "hit": false,
      "t": 217272.74900000074,
      "d": 386.3636750000005,
      "v": 49
    },
    {
      "midi": 64,
      "hit": false,
      "t": 217727.29450000075,
      "d": 537.8788416666794,
      "v": 34
    },
    {
      "midi": 64,
      "hit": false,
      "t": 218636.38550000076,
      "d": 492.42429166668444,
      "v": 38
    },
    {
      "midi": 71,
      "hit": false,
      "t": 219090.93100000077,
      "d": 409.0909500000125,
      "v": 38
    },
    {
      "midi": 64,
      "hit": false,
      "t": 219545.47650000078,
      "d": 151.51516666667885,
      "v": 40
    },
    {
      "midi": 50,
      "hit": false,
      "t": 220000.02200000078,
      "d": 3674.2427916667075,
      "v": 63
    },
    {
      "midi": 62,
      "hit": false,
      "t": 220454.5675000008,
      "d": 477.27277500001946,
      "v": 43
    },
    {
      "midi": 69,
      "hit": false,
      "t": 220909.1130000008,
      "d": 409.0909500000125,
      "v": 44
    },
    {
      "midi": 62,
      "hit": false,
      "t": 221363.6585000008,
      "d": 727.2728000000061,
      "v": 28
    },
    {
      "midi": 62,
      "hit": false,
      "t": 222272.74950000082,
      "d": 530.3030833333323,
      "v": 49
    },
    {
      "midi": 69,
      "hit": false,
      "t": 222727.29500000083,
      "d": 348.4848833333235,
      "v": 51
    },
    {
      "midi": 62,
      "hit": false,
      "t": 223181.8405000008,
      "d": 287.8788166666636,
      "v": 42
    },
    {
      "midi": 48,
      "hit": false,
      "t": 223636.3860000008,
      "d": 3636.3640000000305,
      "v": 60
    },
    {
      "midi": 64,
      "hit": false,
      "t": 224090.93150000082,
      "d": 446.9697416666604,
      "v": 37
    },
    {
      "midi": 71,
      "hit": false,
      "t": 224545.47700000083,
      "d": 378.7879166666535,
      "v": 45
    },
    {
      "midi": 64,
      "hit": false,
      "t": 225000.0225000008,
      "d": 795.454625000013,
      "v": 33
    },
    {
      "midi": 64,
      "hit": false,
      "t": 225909.11350000082,
      "d": 454.54550000000745,
      "v": 42
    },
    {
      "midi": 71,
      "hit": false,
      "t": 226363.65900000083,
      "d": 431.81822499999544,
      "v": 46
    },
    {
      "midi": 64,
      "hit": false,
      "t": 226818.20450000084,
      "d": 287.8788166666636,
      "v": 40
    },
    {
      "midi": 50,
      "hit": false,
      "t": 227272.75000000084,
      "d": 3696.9700666667486,
      "v": 61
    },
    {
      "midi": 62,
      "hit": false,
      "t": 227727.29550000085,
      "d": 484.8485333333374,
      "v": 46
    },
    {
      "midi": 69,
      "hit": false,
      "t": 228181.84100000086,
      "d": 446.9697416666604,
      "v": 51
    },
    {
      "midi": 62,
      "hit": false,
      "t": 228636.38650000087,
      "d": 772.727350000001,
      "v": 39
    },
    {
      "midi": 62,
      "hit": false,
      "t": 229545.47750000088,
      "d": 469.6970166666724,
      "v": 42
    },
    {
      "midi": 69,
      "hit": false,
      "t": 230000.0230000009,
      "d": 409.0909500000125,
      "v": 31
    },
    {
      "midi": 62,
      "hit": false,
      "t": 230454.5685000009,
      "d": 446.9697416666604,
      "v": 43
    },
    {
      "midi": 48,
      "hit": false,
      "t": 230909.1140000009,
      "d": 3340.909425000049,
      "v": 54
    },
    {
      "midi": 63,
      "hit": false,
      "t": 231363.65950000094,
      "d": 356.06064166667056,
      "v": 40
    },
    {
      "midi": 69,
      "hit": false,
      "t": 231818.20500000095,
      "d": 325.7576083333406,
      "v": 54
    },
    {
      "midi": 63,
      "hit": false,
      "t": 232272.75050000096,
      "d": 636.3636999999871,
      "v": 24
    },
    {
      "midi": 63,
      "hit": false,
      "t": 233181.84150000094,
      "d": 446.9697416666604,
      "v": 43
    },
    {
      "midi": 69,
      "hit": false,
      "t": 233636.38700000095,
      "d": 492.42429166668444,
      "v": 55
    },
    {
      "midi": 63,
      "hit": false,
      "t": 234090.93250000096,
      "d": 128.78789166666684,
      "v": 48
    },
    {
      "midi": 55,
      "hit": false,
      "t": 234545.47800000096,
      "d": 477.27277500001946,
      "v": 52
    },
    {
      "midi": 43,
      "hit": false,
      "t": 234545.47800000096,
      "d": 7143.940108333452,
      "v": 57
    },
    {
      "midi": 62,
      "hit": false,
      "t": 235000.02350000097,
      "d": 477.27277500001946,
      "v": 32
    },
    {
      "midi": 65,
      "hit": false,
      "t": 235454.56900000098,
      "d": 484.8485333333374,
      "v": 55
    },
    {
      "midi": 62,
      "hit": false,
      "t": 235909.114500001,
      "d": 492.42429166668444,
      "v": 49
    },
    {
      "midi": 55,
      "hit": false,
      "t": 236363.660000001,
      "d": 515.1515666666673,
      "v": 57
    },
    {
      "midi": 61,
      "hit": false,
      "t": 236818.205500001,
      "d": 507.5758083333494,
      "v": 46
    },
    {
      "midi": 64,
      "hit": false,
      "t": 237272.751000001,
      "d": 507.5758083333494,
      "v": 55
    },
    {
      "midi": 61,
      "hit": false,
      "t": 237727.29650000102,
      "d": 484.8485333333374,
      "v": 46
    },
    {
      "midi": 55,
      "hit": false,
      "t": 238181.84200000102,
      "d": 522.7273250000144,
      "v": 54
    },
    {
      "midi": 60,
      "hit": false,
      "t": 238636.38750000103,
      "d": 515.1515666666673,
      "v": 54
    },
    {
      "midi": 63,
      "hit": false,
      "t": 239090.93300000104,
      "d": 522.7273250000144,
      "v": 49
    },
    {
      "midi": 60,
      "hit": false,
      "t": 239545.47850000105,
      "d": 469.6970166666724,
      "v": 56
    },
    {
      "midi": 55,
      "hit": false,
      "t": 240000.02400000105,
      "d": 530.3030833333323,
      "v": 52
    },
    {
      "midi": 61,
      "hit": false,
      "t": 240454.56950000106,
      "d": 401.5151916666655,
      "v": 45
    },
    {
      "midi": 64,
      "hit": false,
      "t": 240909.11500000107,
      "d": 522.7273250000144,
      "v": 52
    },
    {
      "midi": 61,
      "hit": false,
      "t": 241363.66050000107,
      "d": 333.33336666668765,
      "v": 47
    },
    {
      "midi": 55,
      "hit": false,
      "t": 241818.20600000108,
      "d": 909.0910000000149,
      "v": 60
    },
    {
      "midi": 31,
      "hit": false,
      "t": 241818.20600000108,
      "d": 3590.9094500000065,
      "v": 60
    },
    {
      "midi": 43,
      "hit": false,
      "t": 241818.20600000108,
      "d": 3590.9094500000065,
      "v": 60
    }
  ]
}