{
  "jsonPath": "Rock/Dance Rock/Pet Shop Boys/heart-2001-digital-remaster.json",
  "path": "Rock\\Dance Rock\\Pet Shop Boys\\Heart (2001 Digital Remaster).mid",
  "name": "Heart (2001 Digital Remaster)",
  "difficulty": "Advanced",
  "bpm": 120,
  "notes": [
    {
      "midi": 60,
      "hit": false,
      "t": 2000,
      "d": 2059.8958333333335,
      "v": 76
    },
    {
      "midi": 57,
      "hit": false,
      "t": 2000,
      "d": 1979.166666666667,
      "v": 66
    },
    {
      "midi": 50,
      "hit": false,
      "t": 2000,
      "d": 1986.979166666667,
      "v": 68
    },
    {
      "midi": 50,
      "hit": false,
      "t": 2000,
      "d": 1976.5624999999995,
      "v": 95
    },
    {
      "midi": 52,
      "hit": false,
      "t": 3950.520833333333,
      "d": 2018.229166666667,
      "v": 84
    },
    {
      "midi": 62,
      "hit": false,
      "t": 3971.354166666667,
      "d": 1986.979166666667,
      "v": 69
    },
    {
      "midi": 55,
      "hit": false,
      "t": 4000.0000000000005,
      "d": 1937.4999999999995,
      "v": 62
    },
    {
      "midi": 59,
      "hit": false,
      "t": 4000.0000000000005,
      "d": 1955.7291666666665,
      "v": 72
    },
    {
      "midi": 50,
      "hit": false,
      "t": 5976.5625,
      "d": 2002.604166666667,
      "v": 86
    },
    {
      "midi": 60,
      "hit": false,
      "t": 5994.791666666667,
      "d": 2020.833333333333,
      "v": 79
    },
    {
      "midi": 57,
      "hit": false,
      "t": 6000,
      "d": 2023.4375,
      "v": 64
    },
    {
      "midi": 50,
      "hit": false,
      "t": 6000,
      "d": 2049.479166666667,
      "v": 76
    },
    {
      "midi": 43,
      "hit": false,
      "t": 7968.75,
      "d": 1854.1666666666679,
      "v": 90
    },
    {
      "midi": 62,
      "hit": false,
      "t": 7986.979166666667,
      "d": 1015.6249999999991,
      "v": 70
    },
    {
      "midi": 60,
      "hit": false,
      "t": 8000,
      "d": 958.3333333333339,
      "v": 76
    },
    {
      "midi": 55,
      "hit": false,
      "t": 8000,
      "d": 1895.833333333334,
      "v": 60
    },
    {
      "midi": 43,
      "hit": false,
      "t": 8000,
      "d": 1906.25,
      "v": 64
    },
    {
      "midi": 59,
      "hit": false,
      "t": 8992.1875,
      "d": 919.2708333333321,
      "v": 77
    },
    {
      "midi": 59,
      "hit": false,
      "t": 9000,
      "d": 895.8333333333339,
      "v": 64
    },
    {
      "midi": 48,
      "hit": false,
      "t": 9999.999999999998,
      "d": 1929.6875,
      "v": 47
    },
    {
      "midi": 45,
      "hit": false,
      "t": 9999.999999999998,
      "d": 2020.8333333333321,
      "v": 44
    },
    {
      "midi": 57,
      "hit": false,
      "t": 10000,
      "d": 1973.958333333334,
      "v": 88
    },
    {
      "midi": 69,
      "hit": false,
      "t": 10000,
      "d": 414.0625,
      "v": 103
    },
    {
      "midi": 60,
      "hit": false,
      "t": 10010.416666666668,
      "d": 28.64583333333394,
      "v": 49
    },
    {
      "midi": 72,
      "hit": false,
      "t": 10500,
      "d": 335.9375,
      "v": 106
    },
    {
      "midi": 64,
      "hit": false,
      "t": 10875,
      "d": 263.02083333333394,
      "v": 100
    },
    {
      "midi": 64,
      "hit": false,
      "t": 11250,
      "d": 278.64583333333394,
      "v": 103
    },
    {
      "midi": 67,
      "hit": false,
      "t": 11500,
      "d": 447.9166666666679,
      "v": 100
    },
    {
      "midi": 50,
      "hit": false,
      "t": 11942.708333333336,
      "d": 1039.0624999999982,
      "v": 53
    },
    {
      "midi": 62,
      "hit": false,
      "t": 11945.3125,
      "d": 1015.625,
      "v": 81
    },
    {
      "midi": 62,
      "hit": false,
      "t": 11945.312500000002,
      "d": 976.5625,
      "v": 75
    },
    {
      "midi": 50,
      "hit": false,
      "t": 11947.916666666664,
      "d": 1059.8958333333321,
      "v": 58
    },
    {
      "midi": 69,
      "hit": false,
      "t": 12000.000000000002,
      "d": 463.54166666666606,
      "v": 106
    },
    {
      "midi": 72,
      "hit": false,
      "t": 12500.000000000002,
      "d": 351.5625,
      "v": 90
    },
    {
      "midi": 64,
      "hit": false,
      "t": 12750.000000000002,
      "d": 268.22916666666606,
      "v": 100
    },
    {
      "midi": 64,
      "hit": false,
      "t": 12940.104166666668,
      "d": 1013.0208333333321,
      "v": 70
    },
    {
      "midi": 59,
      "hit": false,
      "t": 12960.9375,
      "d": 968.75,
      "v": 81
    },
    {
      "midi": 52,
      "hit": false,
      "t": 12997.39583333333,
      "d": 789.0625,
      "v": 53
    },
    {
      "midi": 64,
      "hit": false,
      "t": 13125.000000000002,
      "d": 286.45833333333394,
      "v": 103
    },
    {
      "midi": 67,
      "hit": false,
      "t": 13500.000000000002,
      "d": 429.6875,
      "v": 100
    },
    {
      "midi": 57,
      "hit": false,
      "t": 13940.104166666666,
      "d": 2028.6458333333321,
      "v": 75
    },
    {
      "midi": 60,
      "hit": false,
      "t": 13942.708333333334,
      "d": 2031.2499999999982,
      "v": 77
    },
    {
      "midi": 45,
      "hit": false,
      "t": 13973.95833333333,
      "d": 2028.6458333333321,
      "v": 56
    },
    {
      "midi": 69,
      "hit": false,
      "t": 14000.000000000002,
      "d": 414.0625,
      "v": 103
    },
    {
      "midi": 72,
      "hit": false,
      "t": 14500.000000000002,
      "d": 335.9375,
      "v": 106
    },
    {
      "midi": 64,
      "hit": false,
      "t": 14875.000000000002,
      "d": 263.02083333333394,
      "v": 100
    },
    {
      "midi": 64,
      "hit": false,
      "t": 15250.000000000002,
      "d": 278.64583333333394,
      "v": 103
    },
    {
      "midi": 67,
      "hit": false,
      "t": 15500.000000000002,
      "d": 447.9166666666679,
      "v": 100
    },
    {
      "midi": 50,
      "hit": false,
      "t": 15929.687499999996,
      "d": 1062.5,
      "v": 57
    },
    {
      "midi": 62,
      "hit": false,
      "t": 15937.5,
      "d": 1010.4166666666642,
      "v": 77
    },
    {
      "midi": 62,
      "hit": false,
      "t": 15958.333333333332,
      "d": 1023.4375,
      "v": 73
    },
    {
      "midi": 50,
      "hit": false,
      "t": 15963.541666666666,
      "d": 953.1249999999982,
      "v": 58
    },
    {
      "midi": 69,
      "hit": false,
      "t": 16000.000000000004,
      "d": 463.5416666666679,
      "v": 106
    },
    {
      "midi": 72,
      "hit": false,
      "t": 16500.000000000004,
      "d": 351.5625,
      "v": 90
    },
    {
      "midi": 64,
      "hit": false,
      "t": 16750.000000000004,
      "d": 268.2291666666679,
      "v": 100
    },
    {
      "midi": 64,
      "hit": false,
      "t": 16958.333333333332,
      "d": 1002.6041666666679,
      "v": 75
    },
    {
      "midi": 59,
      "hit": false,
      "t": 16971.354166666664,
      "d": 971.3541666666679,
      "v": 79
    },
    {
      "midi": 52,
      "hit": false,
      "t": 16981.77083333333,
      "d": 934.8958333333358,
      "v": 61
    },
    {
      "midi": 64,
      "hit": false,
      "t": 17125.000000000004,
      "d": 286.4583333333321,
      "v": 103
    },
    {
      "midi": 64,
      "hit": false,
      "t": 17250,
      "d": 273.4375,
      "v": 109
    },
    {
      "midi": 71,
      "hit": false,
      "t": 17500,
      "d": 294.2708333333321,
      "v": 103
    },
    {
      "midi": 67,
      "hit": false,
      "t": 17500.000000000004,
      "d": 429.6875,
      "v": 100
    },
    {
      "midi": 76,
      "hit": false,
      "t": 17750,
      "d": 143.22916666666424,
      "v": 100
    },
    {
      "midi": 88,
      "hit": false,
      "t": 17750,
      "d": 143.22916666666424,
      "v": 100
    },
    {
      "midi": 76,
      "hit": false,
      "t": 17750,
      "d": 197.91666666666788,
      "v": 103
    },
    {
      "midi": 88,
      "hit": false,
      "t": 17750,
      "d": 226.5625,
      "v": 92
    },
    {
      "midi": 48,
      "hit": false,
      "t": 17999.999999999996,
      "d": 1929.6875,
      "v": 47
    },
    {
      "midi": 45,
      "hit": false,
      "t": 17999.999999999996,
      "d": 2020.8333333333358,
      "v": 44
    },
    {
      "midi": 33,
      "hit": false,
      "t": 18000,
      "d": 114.58333333333212,
      "v": 127
    },
    {
      "midi": 33,
      "hit": false,
      "t": 18000,
      "d": 109.375,
      "v": 127
    },
    {
      "midi": 57,
      "hit": false,
      "t": 18000,
      "d": 1973.9583333333321,
      "v": 88
    },
    {
      "midi": 69,
      "hit": false,
      "t": 18001.302083333336,
      "d": 375,
      "v": 113
    },
    {
      "midi": 60,
      "hit": false,
      "t": 18010.416666666668,
      "d": 28.64583333333212,
      "v": 49
    },
    {
      "midi": 33,
      "hit": false,
      "t": 18125,
      "d": 109.375,
      "v": 90
    },
    {
      "midi": 33,
      "hit": false,
      "t": 18250,
      "d": 91.14583333333212,
      "v": 127
    },
    {
      "midi": 33,
      "hit": false,
      "t": 18250,
      "d": 101.5625,
      "v": 101
    },
    {
      "midi": 33,
      "hit": false,
      "t": 18375,
      "d": 101.5625,
      "v": 64
    },
    {
      "midi": 31,
      "hit": false,
      "t": 18500,
      "d": 28.64583333333212,
      "v": 127
    },
    {
      "midi": 33,
      "hit": false,
      "t": 18500,
      "d": 67.70833333333212,
      "v": 127
    },
    {
      "midi": 72,
      "hit": false,
      "t": 18500.000000000004,
      "d": 335.9375,
      "v": 106
    },
    {
      "midi": 33,
      "hit": false,
      "t": 18625,
      "d": 10.41666666666788,
      "v": 90
    },
    {
      "midi": 33,
      "hit": false,
      "t": 18750,
      "d": 117.1875,
      "v": 127
    },
    {
      "midi": 33,
      "hit": false,
      "t": 18750,
      "d": 10.41666666666788,
      "v": 111
    },
    {
      "midi": 33,
      "hit": false,
      "t": 18875,
      "d": 101.5625,
      "v": 74
    },
    {
      "midi": 64,
      "hit": false,
      "t": 18875.000000000004,
      "d": 263.0208333333321,
      "v": 100
    },
    {
      "midi": 33,
      "hit": false,
      "t": 19000,
      "d": 98.95833333333212,
      "v": 127
    },
    {
      "midi": 33,
      "hit": false,
      "t": 19000,
      "d": 125,
      "v": 127
    },
    {
      "midi": 33,
      "hit": false,
      "t": 19125,
      "d": 125,
      "v": 90
    },
    {
      "midi": 33,
      "hit": false,
      "t": 19250,
      "d": 101.5625,
      "v": 127
    },
    {
      "midi": 33,
      "hit": false,
      "t": 19250,
      "d": 104.16666666666788,
      "v": 116
    },
    {
      "midi": 64,
      "hit": false,
      "t": 19250.000000000004,
      "d": 278.6458333333321,
      "v": 103
    },
    {
      "midi": 33,
      "hit": false,
      "t": 19375,
      "d": 104.16666666666788,
      "v": 79
    },
    {
      "midi": 33,
      "hit": false,
      "t": 19500,
      "d": 216.14583333333212,
      "v": 127
    },
    {
      "midi": 67,
      "hit": false,
      "t": 19500.000000000004,
      "d": 447.91666666666424,
      "v": 100
    },
    {
      "midi": 33,
      "hit": false,
      "t": 19625,
      "d": 109.375,
      "v": 90
    },
    {
      "midi": 31,
      "hit": false,
      "t": 19750,
      "d": 265.625,
      "v": 127
    },
    {
      "midi": 31,
      "hit": false,
      "t": 19875,
      "d": 106.77083333333212,
      "v": 81
    },
    {
      "midi": 50,
      "hit": false,
      "t": 19942.708333333332,
      "d": 1039.0625000000036,
      "v": 53
    },
    {
      "midi": 62,
      "hit": false,
      "t": 19945.3125,
      "d": 1015.625,
      "v": 81
    },
    {
      "midi": 62,
      "hit": false,
      "t": 19945.3125,
      "d": 976.5625,
      "v": 75
    },
    {
      "midi": 50,
      "hit": false,
      "t": 19947.916666666664,
      "d": 1059.8958333333358,
      "v": 58
    },
    {
      "midi": 38,
      "hit": false,
      "t": 20000,
      "d": 132.8125,
      "v": 127
    },
    {
      "midi": 38,
      "hit": false,
      "t": 20000,
      "d": 117.1875,
      "v": 118
    },
    {
      "midi": 69,
      "hit": false,
      "t": 20000,
      "d": 463.5416666666679,
      "v": 106
    },
    {
      "midi": 38,
      "hit": false,
      "t": 20125,
      "d": 117.1875,
      "v": 81
    },
    {
      "midi": 38,
      "hit": false,
      "t": 20250,
      "d": 109.375,
      "v": 127
    },
    {
      "midi": 38,
      "hit": false,
      "t": 20250,
      "d": 114.58333333333212,
      "v": 118
    },
    {
      "midi": 38,
      "hit": false,
      "t": 20375,
      "d": 114.58333333333212,
      "v": 81
    },
    {
      "midi": 38,
      "hit": false,
      "t": 20500,
      "d": 111.97916666666788,
      "v": 127
    },
    {
      "midi": 38,
      "hit": false,
      "t": 20500,
      "d": 117.1875,
      "v": 118
    },
    {
      "midi": 72,
      "hit": false,
      "t": 20500,
      "d": 351.5625,
      "v": 90
    },
    {
      "midi": 38,
      "hit": false,
      "t": 20625,
      "d": 117.1875,
      "v": 81
    },
    {
      "midi": 38,
      "hit": false,
      "t": 20750,
      "d": 192.70833333333212,
      "v": 127
    },
    {
      "midi": 64,
      "hit": false,
      "t": 20750,
      "d": 268.2291666666679,
      "v": 100
    },
    {
      "midi": 38,
      "hit": false,
      "t": 20875,
      "d": 117.1875,
      "v": 87
    },
    {
      "midi": 64,
      "hit": false,
      "t": 20940.104166666668,
      "d": 1013.0208333333358,
      "v": 70
    },
    {
      "midi": 59,
      "hit": false,
      "t": 20960.9375,
      "d": 968.75,
      "v": 81
    },
    {
      "midi": 52,
      "hit": false,
      "t": 20997.395833333332,
      "d": 789.0625,
      "v": 53
    },
    {
      "midi": 28,
      "hit": false,
      "t": 21000,
      "d": 156.25,
      "v": 127
    },
    {
      "midi": 28,
      "hit": false,
      "t": 21125,
      "d": 18.22916666666788,
      "v": 87
    },
    {
      "midi": 64,
      "hit": false,
      "t": 21125,
      "d": 286.4583333333321,
      "v": 103
    },
    {
      "midi": 28,
      "hit": false,
      "t": 21250,
      "d": 122.39583333333212,
      "v": 127
    },
    {
      "midi": 28,
      "hit": false,
      "t": 21250,
      "d": 18.22916666666788,
      "v": 113
    },
    {
      "midi": 28,
      "hit": false,
      "t": 21375,
      "d": 101.5625,
      "v": 76
    },
    {
      "midi": 28,
      "hit": false,
      "t": 21500,
      "d": 119.79166666666788,
      "v": 127
    },
    {
      "midi": 67,
      "hit": false,
      "t": 21500,
      "d": 429.6875,
      "v": 100
    },
    {
      "midi": 28,
      "hit": false,
      "t": 21625,
      "d": 2.6041666666678793,
      "v": 90
    },
    {
      "midi": 28,
      "hit": false,
      "t": 21750,
      "d": 257.8125,
      "v": 127
    },
    {
      "midi": 28,
      "hit": false,
      "t": 21750,
      "d": 2.6041666666678793,
      "v": 124
    },
    {
      "midi": 28,
      "hit": false,
      "t": 21875,
      "d": 138.02083333333212,
      "v": 87
    },
    {
      "midi": 57,
      "hit": false,
      "t": 21940.104166666668,
      "d": 2028.6458333333358,
      "v": 75
    },
    {
      "midi": 60,
      "hit": false,
      "t": 21942.708333333336,
      "d": 2031.2500000000036,
      "v": 77
    },
    {
      "midi": 45,
      "hit": false,
      "t": 21973.958333333332,
      "d": 2028.6458333333358,
      "v": 56
    },
    {
      "midi": 33,
      "hit": false,
      "t": 22000,
      "d": 127.60416666666788,
      "v": 127
    },
    {
      "midi": 69,
      "hit": false,
      "t": 22000,
      "d": 414.0625,
      "v": 103
    },
    {
      "midi": 33,
      "hit": false,
      "t": 22125,
      "d": 7.8125,
      "v": 90
    },
    {
      "midi": 33,
      "hit": false,
      "t": 22250,
      "d": 114.58333333333212,
      "v": 127
    },
    {
      "midi": 33,
      "hit": false,
      "t": 22250,
      "d": 7.8125,
      "v": 111
    },
    {
      "midi": 33,
      "hit": false,
      "t": 22375,
      "d": 98.95833333333212,
      "v": 74
    },
    {
      "midi": 33,
      "hit": false,
      "t": 22500,
      "d": 119.79166666666788,
      "v": 127
    },
    {
      "midi": 33,
      "hit": false,
      "t": 22500,
      "d": 119.79166666666788,
      "v": 127
    },
    {
      "midi": 72,
      "hit": false,
      "t": 22500,
      "d": 335.9375,
      "v": 106
    },
    {
      "midi": 33,
      "hit": false,
      "t": 22625,
      "d": 119.79166666666788,
      "v": 90
    },
    {
      "midi": 33,
      "hit": false,
      "t": 22750,
      "d": 98.95833333333212,
      "v": 127
    },
    {
      "midi": 33,
      "hit": false,
      "t": 22750,
      "d": 91.14583333333212,
      "v": 113
    },
    {
      "midi": 33,
      "hit": false,
      "t": 22875,
      "d": 91.14583333333212,
      "v": 76
    },
    {
      "midi": 64,
      "hit": false,
      "t": 22875,
      "d": 263.0208333333321,
      "v": 100
    },
    {
      "midi": 33,
      "hit": false,
      "t": 23000,
      "d": 125,
      "v": 127
    },
    {
      "midi": 33,
      "hit": false,
      "t": 23000,
      "d": 114.58333333333212,
      "v": 127
    },
    {
      "midi": 33,
      "hit": false,
      "t": 23125,
      "d": 114.58333333333212,
      "v": 90
    },
    {
      "midi": 33,
      "hit": false,
      "t": 23250,
      "d": 101.5625,
      "v": 127
    },
    {
      "midi": 33,
      "hit": false,
      "t": 23250,
      "d": 98.95833333333212,
      "v": 127
    },
    {
      "midi": 64,
      "hit": false,
      "t": 23250,
      "d": 278.6458333333321,
      "v": 103
    },
    {
      "midi": 33,
      "hit": false,
      "t": 23375,
      "d": 98.95833333333212,
      "v": 90
    },
    {
      "midi": 33,
      "hit": false,
      "t": 23500,
      "d": 216.14583333333212,
      "v": 127
    },
    {
      "midi": 67,
      "hit": false,
      "t": 23500,
      "d": 447.91666666666424,
      "v": 100
    },
    {
      "midi": 33,
      "hit": false,
      "t": 23625,
      "d": 106.77083333333212,
      "v": 90
    },
    {
      "midi": 31,
      "hit": false,
      "t": 23750,
      "d": 231.77083333333212,
      "v": 127
    },
    {
      "midi": 31,
      "hit": false,
      "t": 23875,
      "d": 111.97916666666788,
      "v": 76
    },
    {
      "midi": 50,
      "hit": false,
      "t": 23929.6875,
      "d": 1062.5000000000036,
      "v": 57
    },
    {
      "midi": 62,
      "hit": false,
      "t": 23937.500000000004,
      "d": 1010.4166666666679,
      "v": 77
    },
    {
      "midi": 62,
      "hit": false,
      "t": 23958.333333333336,
      "d": 1023.4375000000036,
      "v": 73
    },
    {
      "midi": 50,
      "hit": false,
      "t": 23963.54166666667,
      "d": 953.125,
      "v": 58
    },
    {
      "midi": 69,
      "hit": false,
      "t": 23999.999999999996,
      "d": 463.5416666666679,
      "v": 106
    },
    {
      "midi": 38,
      "hit": false,
      "t": 24000,
      "d": 119.79166666666788,
      "v": 127
    },
    {
      "midi": 38,
      "hit": false,
      "t": 24125,
      "d": 2.6041666666678793,
      "v": 84
    },
    {
      "midi": 38,
      "hit": false,
      "t": 24250,
      "d": 106.77083333333212,
      "v": 127
    },
    {
      "midi": 38,
      "hit": false,
      "t": 24250,
      "d": 2.6041666666678793,
      "v": 124
    },
    {
      "midi": 38,
      "hit": false,
      "t": 24375,
      "d": 98.95833333333212,
      "v": 87
    },
    {
      "midi": 72,
      "hit": false,
      "t": 24499.999999999996,
      "d": 351.5625,
      "v": 90
    },
    {
      "midi": 38,
      "hit": false,
      "t": 24500,
      "d": 117.1875,
      "v": 127
    },
    {
      "midi": 38,
      "hit": false,
      "t": 24625,
      "d": 2.6041666666678793,
      "v": 90
    },
    {
      "midi": 64,
      "hit": false,
      "t": 24749.999999999996,
      "d": 268.2291666666679,
      "v": 100
    },
    {
      "midi": 38,
      "hit": false,
      "t": 24750,
      "d": 226.5625,
      "v": 127
    },
    {
      "midi": 38,
      "hit": false,
      "t": 24750,
      "d": 2.6041666666678793,
      "v": 127
    },
    {
      "midi": 38,
      "hit": false,
      "t": 24875,
      "d": 125,
      "v": 90
    },
    {
      "midi": 64,
      "hit": false,
      "t": 24958.33333333334,
      "d": 1002.6041666666679,
      "v": 75
    },
    {
      "midi": 59,
      "hit": false,
      "t": 24971.35416666667,
      "d": 971.3541666666679,
      "v": 79
    },
    {
      "midi": 52,
      "hit": false,
      "t": 24981.770833333336,
      "d": 934.8958333333358,
      "v": 61
    },
    {
      "midi": 28,
      "hit": false,
      "t": 25000,
      "d": 140.625,
      "v": 127
    },
    {
      "midi": 64,
      "hit": false,
      "t": 25124.999999999996,
      "d": 286.4583333333321,
      "v": 103
    },
    {
      "midi": 28,
      "hit": false,
      "t": 25125,
      "d": 15.625,
      "v": 90
    },
    {
      "midi": 28,
      "hit": false,
      "t": 25250,
      "d": 106.77083333333212,
      "v": 127
    },
    {
      "midi": 28,
      "hit": false,
      "t": 25250,
      "d": 15.625,
      "v": 118
    },
    {
      "midi": 28,
      "hit": false,
      "t": 25375,
      "d": 98.95833333333212,
      "v": 81
    },
    {
      "midi": 67,
      "hit": false,
      "t": 25499.999999999996,
      "d": 429.6875,
      "v": 100
    },
    {
      "midi": 28,
      "hit": false,
      "t": 25500,
      "d": 117.1875,
      "v": 127
    },
    {
      "midi": 28,
      "hit": false,
      "t": 25500,
      "d": 117.1875,
      "v": 127
    },
    {
      "midi": 28,
      "hit": false,
      "t": 25625,
      "d": 117.1875,
      "v": 90
    },
    {
      "midi": 28,
      "hit": false,
      "t": 25750,
      "d": 164.0625,
      "v": 127
    },
    {
      "midi": 28,
      "hit": false,
      "t": 25875,
      "d": 70.3125,
      "v": 90
    },
    {
      "midi": 33,
      "hit": false,
      "t": 26000,
      "d": 80.72916666666788,
      "v": 127
    },
    {
      "midi": 33,
      "hit": false,
      "t": 26000,
      "d": 117.1875,
      "v": 127
    },
    {
      "midi": 64,
      "hit": false,
      "t": 26000.000000000007,
      "d": 3757.8125,
      "v": 73
    },
    {
      "midi": 60,
      "hit": false,
      "t": 26000.000000000007,
      "d": 3802.083333333332,
      "v": 86
    },
    {
      "midi": 57,
      "hit": false,
      "t": 26000.000000000007,
      "d": 3804.6875,
      "v": 76
    },
    {
      "midi": 33,
      "hit": false,
      "t": 26125,
      "d": 117.1875,
      "v": 59
    },
    {
      "midi": 33,
      "hit": false,
      "t": 26250,
      "d": 98.95833333333212,
      "v": 127
    },
    {
      "midi": 33,
      "hit": false,
      "t": 26250,
      "d": 91.14583333333212,
      "v": 115
    },
    {
      "midi": 33,
      "hit": false,
      "t": 26375,
      "d": 91.14583333333212,
      "v": 30
    },
    {
      "midi": 33,
      "hit": false,
      "t": 26500,
      "d": 106.77083333333212,
      "v": 127
    },
    {
      "midi": 33,
      "hit": false,
      "t": 26500,
      "d": 114.58333333333212,
      "v": 127
    },
    {
      "midi": 33,
      "hit": false,
      "t": 26625,
      "d": 114.58333333333212,
      "v": 56
    },
    {
      "midi": 33,
      "hit": false,
      "t": 26750,
      "d": 91.14583333333212,
      "v": 127
    },
    {
      "midi": 33,
      "hit": false,
      "t": 26750,
      "d": 98.95833333333212,
      "v": 121
    },
    {
      "midi": 33,
      "hit": false,
      "t": 26875,
      "d": 98.95833333333212,
      "v": 36
    },
    {
      "midi": 33,
      "hit": false,
      "t": 27000,
      "d": 106.77083333333212,
      "v": 127
    },
    {
      "midi": 33,
      "hit": false,
      "t": 27000,
      "d": 106.77083333333212,
      "v": 127
    },
    {
      "midi": 33,
      "hit": false,
      "t": 27125,
      "d": 106.77083333333212,
      "v": 59
    },
    {
      "midi": 33,
      "hit": false,
      "t": 27250,
      "d": 91.14583333333212,
      "v": 127
    },
    {
      "midi": 33,
      "hit": false,
      "t": 27250,
      "d": 106.77083333333212,
      "v": 125
    },
    {
      "midi": 33,
      "hit": false,
      "t": 27375,
      "d": 106.77083333333212,
      "v": 40
    },
    {
      "midi": 33,
      "hit": false,
      "t": 27500,
      "d": 114.58333333333212,
      "v": 127
    },
    {
      "midi": 33,
      "hit": false,
      "t": 27500,
      "d": 125,
      "v": 127
    },
    {
      "midi": 33,
      "hit": false,
      "t": 27625,
      "d": 125,
      "v": 62
    },
    {
      "midi": 33,
      "hit": false,
      "t": 27750,
      "d": 98.95833333333212,
      "v": 127
    },
    {
      "midi": 33,
      "hit": false,
      "t": 27750,
      "d": 106.77083333333212,
      "v": 127
    },
    {
      "midi": 33,
      "hit": false,
      "t": 27875,
      "d": 106.77083333333212,
      "v": 42
    },
    {
      "midi": 33,
      "hit": false,
      "t": 28000,
      "d": 98.95833333333212,
      "v": 127
    },
    {
      "midi": 33,
      "hit": false,
      "t": 28000,
      "d": 122.39583333333212,
      "v": 127
    },
    {
      "midi": 33,
      "hit": false,
      "t": 28125,
      "d": 122.39583333333212,
      "v": 56
    },
    {
      "midi": 33,
      "hit": false,
      "t": 28250,
      "d": 98.95833333333212,
      "v": 127
    },
    {
      "midi": 33,
      "hit": false,
      "t": 28250,
      "d": 111.97916666666788,
      "v": 127
    },
    {
      "midi": 33,
      "hit": false,
      "t": 28375,
      "d": 111.97916666666788,
      "v": 53
    },
    {
      "midi": 33,
      "hit": false,
      "t": 28500,
      "d": 109.375,
      "v": 127
    },
    {
      "midi": 33,
      "hit": false,
      "t": 28500,
      "d": 117.1875,
      "v": 127
    },
    {
      "midi": 33,
      "hit": false,
      "t": 28625,
      "d": 117.1875,
      "v": 62
    },
    {
      "midi": 33,
      "hit": false,
      "t": 28750,
      "d": 106.77083333333212,
      "v": 127
    },
    {
      "midi": 33,
      "hit": false,
      "t": 28750,
      "d": 122.39583333333212,
      "v": 127
    },
    {
      "midi": 33,
      "hit": false,
      "t": 28875,
      "d": 122.39583333333212,
      "v": 62
    },
    {
      "midi": 33,
      "hit": false,
      "t": 29000,
      "d": 114.58333333333212,
      "v": 127
    },
    {
      "midi": 33,
      "hit": false,
      "t": 29000,
      "d": 96.35416666666788,
      "v": 127
    },
    {
      "midi": 33,
      "hit": false,
      "t": 29125,
      "d": 96.35416666666788,
      "v": 56
    },
    {
      "midi": 33,
      "hit": false,
      "t": 29250,
      "d": 98.95833333333212,
      "v": 127
    },
    {
      "midi": 33,
      "hit": false,
      "t": 29250,
      "d": 88.54166666666788,
      "v": 127
    },
    {
      "midi": 33,
      "hit": false,
      "t": 29375,
      "d": 88.54166666666788,
      "v": 62
    },
    {
      "midi": 33,
      "hit": false,
      "t": 29500,
      "d": 255.20833333333212,
      "v": 127
    },
    {
      "midi": 33,
      "hit": false,
      "t": 29625,
      "d": 138.02083333333212,
      "v": 59
    },
    {
      "midi": 36,
      "hit": false,
      "t": 29750,
      "d": 255.20833333333212,
      "v": 127
    },
    {
      "midi": 36,
      "hit": false,
      "t": 29875,
      "d": 169.27083333333212,
      "v": 53
    },
    {
      "midi": 26,
      "hit": false,
      "t": 30000,
      "d": 143.22916666666424,
      "v": 127
    },
    {
      "midi": 57,
      "hit": false,
      "t": 30000.000000000007,
      "d": 1796.875,
      "v": 71
    },
    {
      "midi": 62,
      "hit": false,
      "t": 30000.000000000007,
      "d": 1869.7916666666679,
      "v": 80
    },
    {
      "midi": 50,
      "hit": false,
      "t": 30000.000000000007,
      "d": 1872.3958333333358,
      "v": 82
    },
    {
      "midi": 26,
      "hit": false,
      "t": 30125,
      "d": 7.8125,
      "v": 78
    },
    {
      "midi": 26,
      "hit": false,
      "t": 30249.999999999996,
      "d": 114.58333333333212,
      "v": 127
    },
    {
      "midi": 26,
      "hit": false,
      "t": 30250,
      "d": 7.8125,
      "v": 127
    },
    {
      "midi": 26,
      "hit": false,
      "t": 30375,
      "d": 91.14583333333212,
      "v": 51
    },
    {
      "midi": 26,
      "hit": false,
      "t": 30499.999999999996,
      "d": 117.1875,
      "v": 127
    },
    {
      "midi": 26,
      "hit": false,
      "t": 30500,
      "d": 98.95833333333212,
      "v": 127
    },
    {
      "midi": 26,
      "hit": false,
      "t": 30625,
      "d": 98.95833333333212,
      "v": 46
    },
    {
      "midi": 26,
      "hit": false,
      "t": 30749.999999999996,
      "d": 106.77083333333212,
      "v": 127
    },
    {
      "midi": 26,
      "hit": false,
      "t": 30750,
      "d": 117.1875,
      "v": 127
    },
    {
      "midi": 26,
      "hit": false,
      "t": 30875,
      "d": 117.1875,
      "v": 53
    },
    {
      "midi": 26,
      "hit": false,
      "t": 30999.999999999996,
      "d": 114.58333333333212,
      "v": 127
    },
    {
      "midi": 26,
      "hit": false,
      "t": 31000,
      "d": 122.39583333333212,
      "v": 127
    },
    {
      "midi": 26,
      "hit": false,
      "t": 31125,
      "d": 122.39583333333212,
      "v": 62
    },
    {
      "midi": 26,
      "hit": false,
      "t": 31249.999999999996,
      "d": 106.77083333333212,
      "v": 127
    },
    {
      "midi": 26,
      "hit": false,
      "t": 31250,
      "d": 125,
      "v": 127
    },
    {
      "midi": 26,
      "hit": false,
      "t": 31375,
      "d": 125,
      "v": 56
    },
    {
      "midi": 26,
      "hit": false,
      "t": 31499.999999999996,
      "d": 106.77083333333212,
      "v": 127
    },
    {
      "midi": 26,
      "hit": false,
      "t": 31500,
      "d": 125,
      "v": 127
    },
    {
      "midi": 26,
      "hit": false,
      "t": 31625,
      "d": 125,
      "v": 62
    },
    {
      "midi": 26,
      "hit": false,
      "t": 31749.999999999996,
      "d": 260.4166666666679,
      "v": 127
    },
    {
      "midi": 26,
      "hit": false,
      "t": 31875,
      "d": 20.83333333333212,
      "v": 56
    },
    {
      "midi": 28,
      "hit": false,
      "t": 31999.999999999996,
      "d": 132.8125,
      "v": 127
    },
    {
      "midi": 52,
      "hit": false,
      "t": 32000.00000000001,
      "d": 1911.4583333333321,
      "v": 95
    },
    {
      "midi": 64,
      "hit": false,
      "t": 32000.00000000001,
      "d": 1942.7083333333321,
      "v": 69
    },
    {
      "midi": 59,
      "hit": false,
      "t": 32000.00000000001,
      "d": 1950.5208333333321,
      "v": 69
    },
    {
      "midi": 28,
      "hit": false,
      "t": 32125,
      "d": 13.02083333333212,
      "v": 53
    },
    {
      "midi": 28,
      "hit": false,
      "t": 32249.999999999996,
      "d": 122.39583333333212,
      "v": 127
    },
    {
      "midi": 28,
      "hit": false,
      "t": 32250,
      "d": 13.02083333333212,
      "v": 125
    },
    {
      "midi": 28,
      "hit": false,
      "t": 32375,
      "d": 119.79166666666788,
      "v": 40
    },
    {
      "midi": 28,
      "hit": false,
      "t": 32499.999999999996,
      "d": 125,
      "v": 127
    },
    {
      "midi": 28,
      "hit": false,
      "t": 32625,
      "d": 5.208333333332121,
      "v": 56
    },
    {
      "midi": 28,
      "hit": false,
      "t": 32749.999999999996,
      "d": 111.97916666666788,
      "v": 127
    },
    {
      "midi": 28,
      "hit": false,
      "t": 32750,
      "d": 5.208333333332121,
      "v": 127
    },
    {
      "midi": 28,
      "hit": false,
      "t": 32875,
      "d": 5.208333333335759,
      "v": 46
    },
    {
      "midi": 28,
      "hit": false,
      "t": 33000,
      "d": 114.58333333333576,
      "v": 127
    },
    {
      "midi": 28,
      "hit": false,
      "t": 33000,
      "d": 5.208333333335759,
      "v": 127
    },
    {
      "midi": 28,
      "hit": false,
      "t": 33125,
      "d": 5.208333333335759,
      "v": 59
    },
    {
      "midi": 28,
      "hit": false,
      "t": 33250,
      "d": 106.77083333333576,
      "v": 127
    },
    {
      "midi": 28,
      "hit": false,
      "t": 33250,
      "d": 5.208333333335759,
      "v": 127
    },
    {
      "midi": 28,
      "hit": false,
      "t": 33375,
      "d": 98.95833333333576,
      "v": 48
    },
    {
      "midi": 28,
      "hit": false,
      "t": 33500,
      "d": 213.54166666666424,
      "v": 127
    },
    {
      "midi": 28,
      "hit": false,
      "t": 33625,
      "d": 78.125,
      "v": 69
    },
    {
      "midi": 31,
      "hit": false,
      "t": 33750,
      "d": 252.60416666666424,
      "v": 127
    },
    {
      "midi": 31,
      "hit": false,
      "t": 33875,
      "d": 101.5625,
      "v": 65
    },
    {
      "midi": 33,
      "hit": false,
      "t": 34000,
      "d": 80.72916666666424,
      "v": 127
    },
    {
      "midi": 33,
      "hit": false,
      "t": 34000,
      "d": 117.1875,
      "v": 127
    },
    {
      "midi": 64,
      "hit": false,
      "t": 34000.00000000001,
      "d": 3757.8125,
      "v": 73
    },
    {
      "midi": 60,
      "hit": false,
      "t": 34000.00000000001,
      "d": 3802.0833333333358,
      "v": 86
    },
    {
      "midi": 57,
      "hit": false,
      "t": 34000.00000000001,
      "d": 3804.6875,
      "v": 76
    },
    {
      "midi": 33,
      "hit": false,
      "t": 34125,
      "d": 117.1875,
      "v": 59
    },
    {
      "midi": 33,
      "hit": false,
      "t": 34250,
      "d": 98.95833333333576,
      "v": 127
    },
    {
      "midi": 33,
      "hit": false,
      "t": 34250,
      "d": 91.14583333333576,
      "v": 115
    },
    {
      "midi": 33,
      "hit": false,
      "t": 34375,
      "d": 91.14583333333576,
      "v": 30
    },
    {
      "midi": 33,
      "hit": false,
      "t": 34500,
      "d": 106.77083333333576,
      "v": 127
    },
    {
      "midi": 33,
      "hit": false,
      "t": 34500,
      "d": 114.58333333333576,
      "v": 127
    },
    {
      "midi": 33,
      "hit": false,
      "t": 34625,
      "d": 114.58333333333576,
      "v": 56
    },
    {
      "midi": 33,
      "hit": false,
      "t": 34750,
      "d": 91.14583333333576,
      "v": 127
    },
    {
      "midi": 33,
      "hit": false,
      "t": 34750,
      "d": 98.95833333333576,
      "v": 121
    },
    {
      "midi": 33,
      "hit": false,
      "t": 34875,
      "d": 98.95833333333576,
      "v": 36
    },
    {
      "midi": 33,
      "hit": false,
      "t": 35000,
      "d": 106.77083333333576,
      "v": 127
    },
    {
      "midi": 33,
      "hit": false,
      "t": 35000,
      "d": 106.77083333333576,
      "v": 127
    },
    {
      "midi": 33,
      "hit": false,
      "t": 35125,
      "d": 106.77083333333576,
      "v": 59
    },
    {
      "midi": 33,
      "hit": false,
      "t": 35250,
      "d": 91.14583333333576,
      "v": 127
    },
    {
      "midi": 33,
      "hit": false,
      "t": 35250,
      "d": 106.77083333333576,
      "v": 125
    },
    {
      "midi": 33,
      "hit": false,
      "t": 35375,
      "d": 106.77083333333576,
      "v": 40
    },
    {
      "midi": 33,
      "hit": false,
      "t": 35500,
      "d": 114.58333333333576,
      "v": 127
    },
    {
      "midi": 33,
      "hit": false,
      "t": 35500,
      "d": 125,
      "v": 127
    },
    {
      "midi": 33,
      "hit": false,
      "t": 35625,
      "d": 125,
      "v": 62
    },
    {
      "midi": 33,
      "hit": false,
      "t": 35750,
      "d": 98.95833333333576,
      "v": 127
    },
    {
      "midi": 33,
      "hit": false,
      "t": 35750,
      "d": 106.77083333333576,
      "v": 127
    },
    {
      "midi": 33,
      "hit": false,
      "t": 35875,
      "d": 106.77083333333576,
      "v": 42
    },
    {
      "midi": 33,
      "hit": false,
      "t": 36000,
      "d": 98.95833333333576,
      "v": 127
    },
    {
      "midi": 33,
      "hit": false,
      "t": 36000,
      "d": 122.39583333333576,
      "v": 127
    },
    {
      "midi": 33,
      "hit": false,
      "t": 36125,
      "d": 122.39583333333576,
      "v": 56
    },
    {
      "midi": 33,
      "hit": false,
      "t": 36250,
      "d": 98.95833333333576,
      "v": 127
    },
    {
      "midi": 33,
      "hit": false,
      "t": 36250,
      "d": 111.97916666666424,
      "v": 127
    },
    {
      "midi": 33,
      "hit": false,
      "t": 36375,
      "d": 111.97916666666424,
      "v": 53
    },
    {
      "midi": 33,
      "hit": false,
      "t": 36500,
      "d": 109.375,
      "v": 127
    },
    {
      "midi": 33,
      "hit": false,
      "t": 36500,
      "d": 117.1875,
      "v": 127
    },
    {
      "midi": 33,
      "hit": false,
      "t": 36625,
      "d": 117.1875,
      "v": 62
    },
    {
      "midi": 33,
      "hit": false,
      "t": 36750,
      "d": 106.77083333333576,
      "v": 127
    },
    {
      "midi": 33,
      "hit": false,
      "t": 36750,
      "d": 122.39583333333576,
      "v": 127
    },
    {
      "midi": 33,
      "hit": false,
      "t": 36875,
      "d": 122.39583333333576,
      "v": 62
    },
    {
      "midi": 33,
      "hit": false,
      "t": 37000,
      "d": 114.58333333333576,
      "v": 127
    },
    {
      "midi": 33,
      "hit": false,
      "t": 37000,
      "d": 96.35416666666424,
      "v": 127
    },
    {
      "midi": 33,
      "hit": false,
      "t": 37125,
      "d": 96.35416666666424,
      "v": 56
    },
    {
      "midi": 33,
      "hit": false,
      "t": 37250,
      "d": 98.95833333333576,
      "v": 127
    },
    {
      "midi": 33,
      "hit": false,
      "t": 37250,
      "d": 88.54166666666424,
      "v": 127
    },
    {
      "midi": 33,
      "hit": false,
      "t": 37375,
      "d": 88.54166666666424,
      "v": 62
    },
    {
      "midi": 33,
      "hit": false,
      "t": 37500,
      "d": 255.20833333333576,
      "v": 127
    },
    {
      "midi": 33,
      "hit": false,
      "t": 37625,
      "d": 138.02083333333576,
      "v": 59
    },
    {
      "midi": 36,
      "hit": false,
      "t": 37750,
      "d": 255.20833333333576,
      "v": 127
    },
    {
      "midi": 36,
      "hit": false,
      "t": 37875,
      "d": 169.27083333333576,
      "v": 53
    },
    {
      "midi": 26,
      "hit": false,
      "t": 38000,
      "d": 143.22916666667152,
      "v": 127
    },
    {
      "midi": 57,
      "hit": false,
      "t": 38000.00000000001,
      "d": 1796.875,
      "v": 71
    },
    {
      "midi": 62,
      "hit": false,
      "t": 38000.00000000001,
      "d": 1869.7916666666642,
      "v": 80
    },
    {
      "midi": 50,
      "hit": false,
      "t": 38000.00000000001,
      "d": 1872.3958333333285,
      "v": 82
    },
    {
      "midi": 26,
      "hit": false,
      "t": 38125,
      "d": 7.8125,
      "v": 78
    },
    {
      "midi": 26,
      "hit": false,
      "t": 38250,
      "d": 7.8125,
      "v": 127
    },
    {
      "midi": 26,
      "hit": false,
      "t": 38250.00000000001,
      "d": 114.58333333333576,
      "v": 127
    },
    {
      "midi": 26,
      "hit": false,
      "t": 38375,
      "d": 91.14583333333576,
      "v": 51
    },
    {
      "midi": 26,
      "hit": false,
      "t": 38500,
      "d": 98.95833333333576,
      "v": 127
    },
    {
      "midi": 26,
      "hit": false,
      "t": 38500.00000000001,
      "d": 117.1875,
      "v": 127
    },
    {
      "midi": 26,
      "hit": false,
      "t": 38625,
      "d": 98.95833333333576,
      "v": 46
    },
    {
      "midi": 26,
      "hit": false,
      "t": 38750,
      "d": 117.1875,
      "v": 127
    },
    {
      "midi": 26,
      "hit": false,
      "t": 38750.00000000001,
      "d": 106.77083333333576,
      "v": 127
    },
    {
      "midi": 26,
      "hit": false,
      "t": 38875,
      "d": 117.1875,
      "v": 53
    },
    {
      "midi": 26,
      "hit": false,
      "t": 39000,
      "d": 122.39583333333576,
      "v": 127
    },
    {
      "midi": 26,
      "hit": false,
      "t": 39000.00000000001,
      "d": 114.58333333333576,
      "v": 127
    },
    {
      "midi": 26,
      "hit": false,
      "t": 39125,
      "d": 122.39583333333576,
      "v": 62
    },
    {
      "midi": 26,
      "hit": false,
      "t": 39250,
      "d": 125,
      "v": 127
    },
    {
      "midi": 26,
      "hit": false,
      "t": 39250.00000000001,
      "d": 106.77083333333576,
      "v": 127
    },
    {
      "midi": 26,
      "hit": false,
      "t": 39375,
      "d": 125,
      "v": 56
    },
    {
      "midi": 26,
      "hit": false,
      "t": 39500,
      "d": 125,
      "v": 127
    },
    {
      "midi": 26,
      "hit": false,
      "t": 39500.00000000001,
      "d": 106.77083333333576,
      "v": 127
    },
    {
      "midi": 26,
      "hit": false,
      "t": 39625,
      "d": 125,
      "v": 62
    },
    {
      "midi": 26,
      "hit": false,
      "t": 39750.00000000001,
      "d": 260.41666666666424,
      "v": 127
    },
    {
      "midi": 26,
      "hit": false,
      "t": 39875,
      "d": 20.83333333333576,
      "v": 56
    },
    {
      "midi": 52,
      "hit": false,
      "t": 40000,
      "d": 1911.4583333333358,
      "v": 95
    },
    {
      "midi": 64,
      "hit": false,
      "t": 40000,
      "d": 1942.7083333333358,
      "v": 69
    },
    {
      "midi": 59,
      "hit": false,
      "t": 40000,
      "d": 1950.5208333333358,
      "v": 69
    },
    {
      "midi": 28,
      "hit": false,
      "t": 40000.00000000001,
      "d": 132.8125,
      "v": 127
    },
    {
      "midi": 28,
      "hit": false,
      "t": 40125,
      "d": 13.020833333335759,
      "v": 53
    },
    {
      "midi": 28,
      "hit": false,
      "t": 40250,
      "d": 13.020833333335759,
      "v": 125
    },
    {
      "midi": 28,
      "hit": false,
      "t": 40250.00000000001,
      "d": 122.39583333333576,
      "v": 127
    },
    {
      "midi": 28,
      "hit": false,
      "t": 40375,
      "d": 119.79166666666424,
      "v": 40
    },
    {
      "midi": 28,
      "hit": false,
      "t": 40500.00000000001,
      "d": 125,
      "v": 127
    },
    {
      "midi": 28,
      "hit": false,
      "t": 40625,
      "d": 5.208333333335759,
      "v": 56
    },
    {
      "midi": 28,
      "hit": false,
      "t": 40750,
      "d": 5.208333333335759,
      "v": 127
    },
    {
      "midi": 28,
      "hit": false,
      "t": 40750.00000000001,
      "d": 111.97916666666424,
      "v": 127
    },
    {
      "midi": 28,
      "hit": false,
      "t": 40875,
      "d": 5.208333333335759,
      "v": 46
    },
    {
      "midi": 28,
      "hit": false,
      "t": 41000,
      "d": 5.208333333335759,
      "v": 127
    },
    {
      "midi": 28,
      "hit": false,
      "t": 41000.00000000001,
      "d": 114.58333333333576,
      "v": 127
    },
    {
      "midi": 28,
      "hit": false,
      "t": 41125,
      "d": 5.208333333335759,
      "v": 59
    },
    {
      "midi": 28,
      "hit": false,
      "t": 41250,
      "d": 5.208333333335759,
      "v": 127
    },
    {
      "midi": 28,
      "hit": false,
      "t": 41250.00000000001,
      "d": 106.77083333333576,
      "v": 127
    },
    {
      "midi": 28,
      "hit": false,
      "t": 41375,
      "d": 98.95833333333576,
      "v": 48
    },
    {
      "midi": 28,
      "hit": false,
      "t": 41500.00000000001,
      "d": 213.54166666666424,
      "v": 127
    },
    {
      "midi": 28,
      "hit": false,
      "t": 41625,
      "d": 78.125,
      "v": 69
    },
    {
      "midi": 31,
      "hit": false,
      "t": 41750.00000000001,
      "d": 252.60416666666424,
      "v": 127
    },
    {
      "midi": 31,
      "hit": false,
      "t": 41875,
      "d": 101.5625,
      "v": 65
    },
    {
      "midi": 26,
      "hit": false,
      "t": 42000,
      "d": 83.33333333333576,
      "v": 122
    },
    {
      "midi": 62,
      "hit": false,
      "t": 42000,
      "d": 1919.2708333333358,
      "v": 74
    },
    {
      "midi": 57,
      "hit": false,
      "t": 42000,
      "d": 1968.75,
      "v": 73
    },
    {
      "midi": 14,
      "hit": false,
      "t": 42000.00000000001,
      "d": 83.33333333332848,
      "v": 127
    },
    {
      "midi": 57,
      "hit": false,
      "t": 42000.00000000001,
      "d": 1882.8125,
      "v": 97
    },
    {
      "midi": 14,
      "hit": false,
      "t": 42125,
      "d": 83.33333333333576,
      "v": 127
    },
    {
      "midi": 26,
      "hit": false,
      "t": 42125,
      "d": 83.33333333333576,
      "v": 71
    },
    {
      "midi": 14,
      "hit": false,
      "t": 42250,
      "d": 96.35416666666424,
      "v": 127
    },
    {
      "midi": 26,
      "hit": false,
      "t": 42250,
      "d": 96.35416666666424,
      "v": 109
    },
    {
      "midi": 14,
      "hit": false,
      "t": 42375,
      "d": 96.35416666666424,
      "v": 127
    },
    {
      "midi": 26,
      "hit": false,
      "t": 42375,
      "d": 96.35416666666424,
      "v": 58
    },
    {
      "midi": 14,
      "hit": false,
      "t": 42500,
      "d": 114.58333333333576,
      "v": 127
    },
    {
      "midi": 26,
      "hit": false,
      "t": 42500,
      "d": 114.58333333333576,
      "v": 117
    },
    {
      "midi": 69,
      "hit": false,
      "t": 42500,
      "d": 96.35416666666424,
      "v": 103
    },
    {
      "midi": 14,
      "hit": false,
      "t": 42625,
      "d": 114.58333333333576,
      "v": 127
    },
    {
      "midi": 26,
      "hit": false,
      "t": 42625,
      "d": 114.58333333333576,
      "v": 66
    },
    {
      "midi": 14,
      "hit": false,
      "t": 42750,
      "d": 98.95833333333576,
      "v": 127
    },
    {
      "midi": 26,
      "hit": false,
      "t": 42750,
      "d": 98.95833333333576,
      "v": 109
    },
    {
      "midi": 14,
      "hit": false,
      "t": 42875,
      "d": 98.95833333333576,
      "v": 127
    },
    {
      "midi": 26,
      "hit": false,
      "t": 42875,
      "d": 98.95833333333576,
      "v": 58
    },
    {
      "midi": 14,
      "hit": false,
      "t": 43000,
      "d": 106.77083333333576,
      "v": 127
    },
    {
      "midi": 26,
      "hit": false,
      "t": 43000,
      "d": 106.77083333333576,
      "v": 109
    },
    {
      "midi": 14,
      "hit": false,
      "t": 43125,
      "d": 106.77083333333576,
      "v": 127
    },
    {
      "midi": 26,
      "hit": false,
      "t": 43125,
      "d": 106.77083333333576,
      "v": 58
    },
    {
      "midi": 14,
      "hit": false,
      "t": 43250,
      "d": 106.77083333333576,
      "v": 127
    },
    {
      "midi": 26,
      "hit": false,
      "t": 43250,
      "d": 106.77083333333576,
      "v": 106
    },
    {
      "midi": 14,
      "hit": false,
      "t": 43375,
      "d": 106.77083333333576,
      "v": 127
    },
    {
      "midi": 26,
      "hit": false,
      "t": 43375,
      "d": 106.77083333333576,
      "v": 55
    },
    {
      "midi": 14,
      "hit": false,
      "t": 43500,
      "d": 106.77083333333576,
      "v": 127
    },
    {
      "midi": 26,
      "hit": false,
      "t": 43500,
      "d": 106.77083333333576,
      "v": 113
    },
    {
      "midi": 69,
      "hit": false,
      "t": 43500,
      "d": 114.58333333333576,
      "v": 109
    },
    {
      "midi": 14,
      "hit": false,
      "t": 43625,
      "d": 106.77083333333576,
      "v": 127
    },
    {
      "midi": 26,
      "hit": false,
      "t": 43625,
      "d": 106.77083333333576,
      "v": 62
    },
    {
      "midi": 14,
      "hit": false,
      "t": 43875,
      "d": 101.5625,
      "v": 127
    },
    {
      "midi": 26,
      "hit": false,
      "t": 43875,
      "d": 101.5625,
      "v": 71
    },
    {
      "midi": 59,
      "hit": false,
      "t": 44000,
      "d": 2023.4375,
      "v": 71
    },
    {
      "midi": 64,
      "hit": false,
      "t": 44000,
      "d": 2067.7083333333358,
      "v": 72
    },
    {
      "midi": 52,
      "hit": false,
      "t": 44000.00000000001,
      "d": 1898.4375,
      "v": 97
    },
    {
      "midi": 16,
      "hit": false,
      "t": 44125,
      "d": 15.625,
      "v": 127
    },
    {
      "midi": 28,
      "hit": false,
      "t": 44125,
      "d": 15.625,
      "v": 55
    },
    {
      "midi": 16,
      "hit": false,
      "t": 44250,
      "d": 15.625,
      "v": 127
    },
    {
      "midi": 28,
      "hit": false,
      "t": 44250,
      "d": 15.625,
      "v": 100
    },
    {
      "midi": 16,
      "hit": false,
      "t": 44375,
      "d": 98.95833333333576,
      "v": 127
    },
    {
      "midi": 28,
      "hit": false,
      "t": 44375,
      "d": 98.95833333333576,
      "v": 49
    },
    {
      "midi": 16,
      "hit": false,
      "t": 44500,
      "d": 117.1875,
      "v": 127
    },
    {
      "midi": 28,
      "hit": false,
      "t": 44500,
      "d": 117.1875,
      "v": 103
    },
    {
      "midi": 69,
      "hit": false,
      "t": 44500,
      "d": 179.6875,
      "v": 106
    },
    {
      "midi": 16,
      "hit": false,
      "t": 44625,
      "d": 117.1875,
      "v": 127
    },
    {
      "midi": 28,
      "hit": false,
      "t": 44625,
      "d": 117.1875,
      "v": 52
    },
    {
      "midi": 16,
      "hit": false,
      "t": 44750,
      "d": 114.58333333333576,
      "v": 127
    },
    {
      "midi": 28,
      "hit": false,
      "t": 44750,
      "d": 114.58333333333576,
      "v": 92
    },
    {
      "midi": 16,
      "hit": false,
      "t": 44875,
      "d": 114.58333333333576,
      "v": 127
    },
    {
      "midi": 28,
      "hit": false,
      "t": 44875,
      "d": 114.58333333333576,
      "v": 41
    },
    {
      "midi": 16,
      "hit": false,
      "t": 45000,
      "d": 114.58333333333576,
      "v": 127
    },
    {
      "midi": 28,
      "hit": false,
      "t": 45000,
      "d": 114.58333333333576,
      "v": 100
    },
    {
      "midi": 16,
      "hit": false,
      "t": 45125,
      "d": 114.58333333333576,
      "v": 127
    },
    {
      "midi": 28,
      "hit": false,
      "t": 45125,
      "d": 114.58333333333576,
      "v": 49
    },
    {
      "midi": 16,
      "hit": false,
      "t": 45250,
      "d": 98.95833333333576,
      "v": 127
    },
    {
      "midi": 28,
      "hit": false,
      "t": 45250,
      "d": 98.95833333333576,
      "v": 103
    },
    {
      "midi": 16,
      "hit": false,
      "t": 45375,
      "d": 98.95833333333576,
      "v": 127
    },
    {
      "midi": 28,
      "hit": false,
      "t": 45375,
      "d": 98.95833333333576,
      "v": 52
    },
    {
      "midi": 16,
      "hit": false,
      "t": 45500,
      "d": 98.95833333333576,
      "v": 127
    },
    {
      "midi": 28,
      "hit": false,
      "t": 45500,
      "d": 98.95833333333576,
      "v": 103
    },
    {
      "midi": 69,
      "hit": false,
      "t": 45500,
      "d": 156.25,
      "v": 113
    },
    {
      "midi": 16,
      "hit": false,
      "t": 45625,
      "d": 98.95833333333576,
      "v": 127
    },
    {
      "midi": 28,
      "hit": false,
      "t": 45625,
      "d": 98.95833333333576,
      "v": 52
    },
    {
      "midi": 53,
      "hit": false,
      "t": 45750.00000000001,
      "d": 2067.7083333333358,
      "v": 103
    },
    {
      "midi": 16,
      "hit": false,
      "t": 45875,
      "d": 125,
      "v": 127
    },
    {
      "midi": 28,
      "hit": false,
      "t": 45875,
      "d": 125,
      "v": 71
    },
    {
      "midi": 60,
      "hit": false,
      "t": 46000,
      "d": 1955.7291666666715,
      "v": 80
    },
    {
      "midi": 65,
      "hit": false,
      "t": 46000,
      "d": 1986.9791666666715,
      "v": 71
    },
    {
      "midi": 17,
      "hit": false,
      "t": 46125,
      "d": 5.208333333335759,
      "v": 127
    },
    {
      "midi": 29,
      "hit": false,
      "t": 46125,
      "d": 5.208333333335759,
      "v": 49
    },
    {
      "midi": 17,
      "hit": false,
      "t": 46250,
      "d": 5.208333333335759,
      "v": 127
    },
    {
      "midi": 29,
      "hit": false,
      "t": 46250,
      "d": 5.208333333335759,
      "v": 103
    },
    {
      "midi": 17,
      "hit": false,
      "t": 46375,
      "d": 98.95833333333576,
      "v": 127
    },
    {
      "midi": 29,
      "hit": false,
      "t": 46375,
      "d": 98.95833333333576,
      "v": 52
    },
    {
      "midi": 17,
      "hit": false,
      "t": 46500,
      "d": 114.58333333333576,
      "v": 127
    },
    {
      "midi": 29,
      "hit": false,
      "t": 46500,
      "d": 114.58333333333576,
      "v": 106
    },
    {
      "midi": 69,
      "hit": false,
      "t": 46500,
      "d": 122.39583333333576,
      "v": 117
    },
    {
      "midi": 17,
      "hit": false,
      "t": 46625,
      "d": 114.58333333333576,
      "v": 127
    },
    {
      "midi": 29,
      "hit": false,
      "t": 46625,
      "d": 114.58333333333576,
      "v": 55
    },
    {
      "midi": 17,
      "hit": false,
      "t": 46750,
      "d": 114.58333333333576,
      "v": 127
    },
    {
      "midi": 29,
      "hit": false,
      "t": 46750,
      "d": 114.58333333333576,
      "v": 106
    },
    {
      "midi": 17,
      "hit": false,
      "t": 46875,
      "d": 114.58333333333576,
      "v": 127
    },
    {
      "midi": 29,
      "hit": false,
      "t": 46875,
      "d": 114.58333333333576,
      "v": 55
    },
    {
      "midi": 17,
      "hit": false,
      "t": 47000,
      "d": 114.58333333333576,
      "v": 127
    },
    {
      "midi": 29,
      "hit": false,
      "t": 47000,
      "d": 114.58333333333576,
      "v": 117
    },
    {
      "midi": 17,
      "hit": false,
      "t": 47125,
      "d": 114.58333333333576,
      "v": 127
    },
    {
      "midi": 29,
      "hit": false,
      "t": 47125,
      "d": 114.58333333333576,
      "v": 66
    },
    {
      "midi": 17,
      "hit": false,
      "t": 47250,
      "d": 96.35416666666424,
      "v": 127
    },
    {
      "midi": 29,
      "hit": false,
      "t": 47250,
      "d": 96.35416666666424,
      "v": 106
    },
    {
      "midi": 17,
      "hit": false,
      "t": 47375,
      "d": 96.35416666666424,
      "v": 127
    },
    {
      "midi": 29,
      "hit": false,
      "t": 47375,
      "d": 96.35416666666424,
      "v": 55
    },
    {
      "midi": 17,
      "hit": false,
      "t": 47500,
      "d": 106.77083333333576,
      "v": 127
    },
    {
      "midi": 29,
      "hit": false,
      "t": 47500,
      "d": 106.77083333333576,
      "v": 113
    },
    {
      "midi": 69,
      "hit": false,
      "t": 47500,
      "d": 106.77083333333576,
      "v": 117
    },
    {
      "midi": 17,
      "hit": false,
      "t": 47625,
      "d": 106.77083333333576,
      "v": 127
    },
    {
      "midi": 29,
      "hit": false,
      "t": 47625,
      "d": 106.77083333333576,
      "v": 62
    },
    {
      "midi": 17,
      "hit": false,
      "t": 47875,
      "d": 85.9375,
      "v": 127
    },
    {
      "midi": 29,
      "hit": false,
      "t": 47875,
      "d": 85.9375,
      "v": 55
    },
    {
      "midi": 62,
      "hit": false,
      "t": 48000.00000000001,
      "d": 1992.1875,
      "v": 76
    },
    {
      "midi": 67,
      "hit": false,
      "t": 48000.00000000001,
      "d": 2002.6041666666642,
      "v": 73
    },
    {
      "midi": 50,
      "hit": false,
      "t": 48000.00000000001,
      "d": 1835.9375,
      "v": 100
    },
    {
      "midi": 19,
      "hit": false,
      "t": 48125,
      "d": 2.6041666666642413,
      "v": 127
    },
    {
      "midi": 31,
      "hit": false,
      "t": 48125,
      "d": 2.6041666666642413,
      "v": 29
    },
    {
      "midi": 19,
      "hit": false,
      "t": 48250,
      "d": 2.6041666666642413,
      "v": 127
    },
    {
      "midi": 31,
      "hit": false,
      "t": 48250,
      "d": 2.6041666666642413,
      "v": 109
    },
    {
      "midi": 19,
      "hit": false,
      "t": 48375,
      "d": 83.33333333333576,
      "v": 127
    },
    {
      "midi": 31,
      "hit": false,
      "t": 48375,
      "d": 83.33333333333576,
      "v": 58
    },
    {
      "midi": 19,
      "hit": false,
      "t": 48500,
      "d": 98.95833333333576,
      "v": 127
    },
    {
      "midi": 31,
      "hit": false,
      "t": 48500,
      "d": 98.95833333333576,
      "v": 106
    },
    {
      "midi": 69,
      "hit": false,
      "t": 48500,
      "d": 104.16666666666424,
      "v": 117
    },
    {
      "midi": 19,
      "hit": false,
      "t": 48625,
      "d": 98.95833333333576,
      "v": 127
    },
    {
      "midi": 31,
      "hit": false,
      "t": 48625,
      "d": 98.95833333333576,
      "v": 55
    },
    {
      "midi": 19,
      "hit": false,
      "t": 48750,
      "d": 88.54166666666424,
      "v": 127
    },
    {
      "midi": 31,
      "hit": false,
      "t": 48750,
      "d": 88.54166666666424,
      "v": 113
    },
    {
      "midi": 19,
      "hit": false,
      "t": 48875,
      "d": 88.54166666666424,
      "v": 127
    },
    {
      "midi": 31,
      "hit": false,
      "t": 48875,
      "d": 88.54166666666424,
      "v": 62
    },
    {
      "midi": 19,
      "hit": false,
      "t": 49000,
      "d": 91.14583333333576,
      "v": 127
    },
    {
      "midi": 31,
      "hit": false,
      "t": 49000,
      "d": 91.14583333333576,
      "v": 113
    },
    {
      "midi": 19,
      "hit": false,
      "t": 49125,
      "d": 91.14583333333576,
      "v": 127
    },
    {
      "midi": 31,
      "hit": false,
      "t": 49125,
      "d": 91.14583333333576,
      "v": 62
    },
    {
      "midi": 19,
      "hit": false,
      "t": 49250,
      "d": 91.14583333333576,
      "v": 127
    },
    {
      "midi": 31,
      "hit": false,
      "t": 49250,
      "d": 91.14583333333576,
      "v": 109
    },
    {
      "midi": 64,
      "hit": false,
      "t": 49250,
      "d": 273.4375,
      "v": 109
    },
    {
      "midi": 19,
      "hit": false,
      "t": 49375,
      "d": 91.14583333333576,
      "v": 127
    },
    {
      "midi": 31,
      "hit": false,
      "t": 49375,
      "d": 91.14583333333576,
      "v": 58
    },
    {
      "midi": 19,
      "hit": false,
      "t": 49500,
      "d": 83.33333333333576,
      "v": 127
    },
    {
      "midi": 31,
      "hit": false,
      "t": 49500,
      "d": 83.33333333333576,
      "v": 106
    },
    {
      "midi": 71,
      "hit": false,
      "t": 49500,
      "d": 294.27083333333576,
      "v": 103
    },
    {
      "midi": 69,
      "hit": false,
      "t": 49500,
      "d": 88.54166666666424,
      "v": 113
    },
    {
      "midi": 19,
      "hit": false,
      "t": 49625,
      "d": 83.33333333333576,
      "v": 127
    },
    {
      "midi": 31,
      "hit": false,
      "t": 49625,
      "d": 83.33333333333576,
      "v": 55
    },
    {
      "midi": 76,
      "hit": false,
      "t": 49750,
      "d": 143.22916666667152,
      "v": 100
    },
    {
      "midi": 88,
      "hit": false,
      "t": 49750,
      "d": 143.22916666667152,
      "v": 100
    },
    {
      "midi": 76,
      "hit": false,
      "t": 49750,
      "d": 197.91666666666424,
      "v": 103
    },
    {
      "midi": 88,
      "hit": false,
      "t": 49750,
      "d": 226.5625,
      "v": 92
    },
    {
      "midi": 19,
      "hit": false,
      "t": 49875,
      "d": 39.0625,
      "v": 127
    },
    {
      "midi": 31,
      "hit": false,
      "t": 49875,
      "d": 39.0625,
      "v": 66
    },
    {
      "midi": 33,
      "hit": false,
      "t": 50000,
      "d": 114.58333333333576,
      "v": 127
    },
    {
      "midi": 33,
      "hit": false,
      "t": 50000,
      "d": 109.375,
      "v": 127
    },
    {
      "midi": 48,
      "hit": false,
      "t": 50000,
      "d": 1929.6875,
      "v": 47
    },
    {
      "midi": 45,
      "hit": false,
      "t": 50000,
      "d": 2020.8333333333285,
      "v": 44
    },
    {
      "midi": 69,
      "hit": false,
      "t": 50000,
      "d": 414.0625,
      "v": 103
    },
    {
      "midi": 57,
      "hit": false,
      "t": 50000.00000000001,
      "d": 1973.9583333333358,
      "v": 88
    },
    {
      "midi": 60,
      "hit": false,
      "t": 50010.41666666667,
      "d": 28.64583333333576,
      "v": 49
    },
    {
      "midi": 33,
      "hit": false,
      "t": 50125,
      "d": 109.375,
      "v": 90
    },
    {
      "midi": 33,
      "hit": false,
      "t": 50250,
      "d": 91.14583333333576,
      "v": 127
    },
    {
      "midi": 33,
      "hit": false,
      "t": 50250,
      "d": 101.5625,
      "v": 101
    },
    {
      "midi": 33,
      "hit": false,
      "t": 50375,
      "d": 101.5625,
      "v": 64
    },
    {
      "midi": 31,
      "hit": false,
      "t": 50500,
      "d": 28.64583333333576,
      "v": 127
    },
    {
      "midi": 33,
      "hit": false,
      "t": 50500,
      "d": 67.70833333333576,
      "v": 127
    },
    {
      "midi": 72,
      "hit": false,
      "t": 50500,
      "d": 335.9375,
      "v": 106
    },
    {
      "midi": 33,
      "hit": false,
      "t": 50625,
      "d": 10.416666666664241,
      "v": 90
    },
    {
      "midi": 33,
      "hit": false,
      "t": 50750,
      "d": 117.1875,
      "v": 127
    },
    {
      "midi": 33,
      "hit": false,
      "t": 50750,
      "d": 10.416666666664241,
      "v": 111
    },
    {
      "midi": 33,
      "hit": false,
      "t": 50875,
      "d": 101.5625,
      "v": 74
    },
    {
      "midi": 64,
      "hit": false,
      "t": 50875,
      "d": 263.02083333333576,
      "v": 100
    },
    {
      "midi": 33,
      "hit": false,
      "t": 51000,
      "d": 98.95833333333576,
      "v": 127
    },
    {
      "midi": 33,
      "hit": false,
      "t": 51000,
      "d": 125,
      "v": 127
    },
    {
      "midi": 33,
      "hit": false,
      "t": 51125,
      "d": 125,
      "v": 90
    },
    {
      "midi": 33,
      "hit": false,
      "t": 51250,
      "d": 101.5625,
      "v": 127
    },
    {
      "midi": 33,
      "hit": false,
      "t": 51250,
      "d": 104.16666666666424,
      "v": 116
    },
    {
      "midi": 64,
      "hit": false,
      "t": 51250,
      "d": 278.64583333333576,
      "v": 103
    },
    {
      "midi": 33,
      "hit": false,
      "t": 51375,
      "d": 104.16666666666424,
      "v": 79
    },
    {
      "midi": 33,
      "hit": false,
      "t": 51500,
      "d": 216.14583333333576,
      "v": 127
    },
    {
      "midi": 67,
      "hit": false,
      "t": 51500,
      "d": 447.9166666666715,
      "v": 100
    },
    {
      "midi": 33,
      "hit": false,
      "t": 51625,
      "d": 109.375,
      "v": 90
    },
    {
      "midi": 31,
      "hit": false,
      "t": 51750,
      "d": 265.625,
      "v": 127
    },
    {
      "midi": 31,
      "hit": false,
      "t": 51875,
      "d": 106.77083333333576,
      "v": 81
    },
    {
      "midi": 50,
      "hit": false,
      "t": 51942.70833333334,
      "d": 1039.0624999999927,
      "v": 53
    },
    {
      "midi": 62,
      "hit": false,
      "t": 51945.31250000001,
      "d": 1015.625,
      "v": 81
    },
    {
      "midi": 62,
      "hit": false,
      "t": 51945.31250000001,
      "d": 976.5625,
      "v": 75
    },
    {
      "midi": 50,
      "hit": false,
      "t": 51947.916666666664,
      "d": 1059.8958333333285,
      "v": 58
    },
    {
      "midi": 38,
      "hit": false,
      "t": 52000,
      "d": 132.8125,
      "v": 127
    },
    {
      "midi": 38,
      "hit": false,
      "t": 52000,
      "d": 117.1875,
      "v": 118
    },
    {
      "midi": 69,
      "hit": false,
      "t": 52000.00000000001,
      "d": 463.54166666666424,
      "v": 106
    },
    {
      "midi": 38,
      "hit": false,
      "t": 52125,
      "d": 117.1875,
      "v": 81
    },
    {
      "midi": 38,
      "hit": false,
      "t": 52250,
      "d": 109.375,
      "v": 127
    },
    {
      "midi": 38,
      "hit": false,
      "t": 52250,
      "d": 114.58333333333576,
      "v": 118
    },
    {
      "midi": 38,
      "hit": false,
      "t": 52375,
      "d": 114.58333333333576,
      "v": 81
    },
    {
      "midi": 38,
      "hit": false,
      "t": 52500,
      "d": 111.97916666666424,
      "v": 127
    },
    {
      "midi": 38,
      "hit": false,
      "t": 52500,
      "d": 117.1875,
      "v": 118
    },
    {
      "midi": 72,
      "hit": false,
      "t": 52500.00000000001,
      "d": 351.5625,
      "v": 90
    },
    {
      "midi": 38,
      "hit": false,
      "t": 52625,
      "d": 117.1875,
      "v": 81
    },
    {
      "midi": 38,
      "hit": false,
      "t": 52750,
      "d": 192.70833333333576,
      "v": 127
    },
    {
      "midi": 64,
      "hit": false,
      "t": 52750.00000000001,
      "d": 268.22916666666424,
      "v": 100
    },
    {
      "midi": 38,
      "hit": false,
      "t": 52875,
      "d": 117.1875,
      "v": 87
    },
    {
      "midi": 64,
      "hit": false,
      "t": 52940.10416666667,
      "d": 1013.0208333333285,
      "v": 70
    },
    {
      "midi": 59,
      "hit": false,
      "t": 52960.93750000001,
      "d": 968.75,
      "v": 81
    },
    {
      "midi": 52,
      "hit": false,
      "t": 52997.39583333333,
      "d": 789.0625,
      "v": 53
    },
    {
      "midi": 28,
      "hit": false,
      "t": 53000,
      "d": 156.25,
      "v": 127
    },
    {
      "midi": 28,
      "hit": false,
      "t": 53125,
      "d": 18.22916666666424,
      "v": 87
    },
    {
      "midi": 64,
      "hit": false,
      "t": 53125.00000000001,
      "d": 286.45833333333576,
      "v": 103
    },
    {
      "midi": 28,
      "hit": false,
      "t": 53250,
      "d": 122.39583333333576,
      "v": 127
    },
    {
      "midi": 28,
      "hit": false,
      "t": 53250,
      "d": 18.22916666666424,
      "v": 113
    },
    {
      "midi": 28,
      "hit": false,
      "t": 53375,
      "d": 101.5625,
      "v": 76
    },
    {
      "midi": 28,
      "hit": false,
      "t": 53500,
      "d": 119.79166666666424,
      "v": 127
    },
    {
      "midi": 67,
      "hit": false,
      "t": 53500.00000000001,
      "d": 429.6875,
      "v": 100
    },
    {
      "midi": 28,
      "hit": false,
      "t": 53625,
      "d": 2.6041666666642413,
      "v": 90
    },
    {
      "midi": 28,
      "hit": false,
      "t": 53750,
      "d": 257.8125,
      "v": 127
    },
    {
      "midi": 28,
      "hit": false,
      "t": 53750,
      "d": 2.6041666666642413,
      "v": 124
    },
    {
      "midi": 28,
      "hit": false,
      "t": 53875,
      "d": 138.02083333333576,
      "v": 87
    },
    {
      "midi": 57,
      "hit": false,
      "t": 53940.10416666667,
      "d": 2028.6458333333285,
      "v": 75
    },
    {
      "midi": 60,
      "hit": false,
      "t": 53942.708333333336,
      "d": 2031.2499999999927,
      "v": 77
    },
    {
      "midi": 45,
      "hit": false,
      "t": 53973.95833333333,
      "d": 2028.6458333333285,
      "v": 56
    },
    {
      "midi": 33,
      "hit": false,
      "t": 54000,
      "d": 127.60416666666424,
      "v": 127
    },
    {
      "midi": 69,
      "hit": false,
      "t": 54000.00000000001,
      "d": 414.0625,
      "v": 103
    },
    {
      "midi": 33,
      "hit": false,
      "t": 54125,
      "d": 7.8125,
      "v": 90
    },
    {
      "midi": 33,
      "hit": false,
      "t": 54250,
      "d": 114.58333333333576,
      "v": 127
    },
    {
      "midi": 33,
      "hit": false,
      "t": 54250,
      "d": 7.8125,
      "v": 111
    },
    {
      "midi": 33,
      "hit": false,
      "t": 54375,
      "d": 98.95833333333576,
      "v": 74
    },
    {
      "midi": 33,
      "hit": false,
      "t": 54500,
      "d": 119.79166666666424,
      "v": 127
    },
    {
      "midi": 33,
      "hit": false,
      "t": 54500,
      "d": 119.79166666666424,
      "v": 127
    },
    {
      "midi": 72,
      "hit": false,
      "t": 54500.00000000001,
      "d": 335.9375,
      "v": 106
    },
    {
      "midi": 33,
      "hit": false,
      "t": 54625,
      "d": 119.79166666666424,
      "v": 90
    },
    {
      "midi": 33,
      "hit": false,
      "t": 54750,
      "d": 98.95833333333576,
      "v": 127
    },
    {
      "midi": 33,
      "hit": false,
      "t": 54750,
      "d": 91.14583333333576,
      "v": 113
    },
    {
      "midi": 33,
      "hit": false,
      "t": 54875,
      "d": 91.14583333333576,
      "v": 76
    },
    {
      "midi": 64,
      "hit": false,
      "t": 54875.00000000001,
      "d": 263.02083333333576,
      "v": 100
    },
    {
      "midi": 33,
      "hit": false,
      "t": 55000,
      "d": 125,
      "v": 127
    },
    {
      "midi": 33,
      "hit": false,
      "t": 55000,
      "d": 114.58333333333576,
      "v": 127
    },
    {
      "midi": 33,
      "hit": false,
      "t": 55125,
      "d": 114.58333333333576,
      "v": 90
    },
    {
      "midi": 33,
      "hit": false,
      "t": 55250,
      "d": 101.5625,
      "v": 127
    },
    {
      "midi": 33,
      "hit": false,
      "t": 55250,
      "d": 98.95833333333576,
      "v": 127
    },
    {
      "midi": 64,
      "hit": false,
      "t": 55250.00000000001,
      "d": 278.64583333333576,
      "v": 103
    },
    {
      "midi": 33,
      "hit": false,
      "t": 55375,
      "d": 98.95833333333576,
      "v": 90
    },
    {
      "midi": 33,
      "hit": false,
      "t": 55500,
      "d": 216.14583333333576,
      "v": 127
    },
    {
      "midi": 67,
      "hit": false,
      "t": 55500.00000000001,
      "d": 447.9166666666715,
      "v": 100
    },
    {
      "midi": 33,
      "hit": false,
      "t": 55625,
      "d": 106.77083333333576,
      "v": 90
    },
    {
      "midi": 31,
      "hit": false,
      "t": 55750,
      "d": 231.77083333333576,
      "v": 127
    },
    {
      "midi": 31,
      "hit": false,
      "t": 55875,
      "d": 111.97916666666424,
      "v": 76
    },
    {
      "midi": 50,
      "hit": false,
      "t": 55929.68749999999,
      "d": 1062.4999999999927,
      "v": 57
    },
    {
      "midi": 62,
      "hit": false,
      "t": 55937.5,
      "d": 1010.4166666666642,
      "v": 77
    },
    {
      "midi": 62,
      "hit": false,
      "t": 55958.333333333336,
      "d": 1023.4374999999927,
      "v": 73
    },
    {
      "midi": 50,
      "hit": false,
      "t": 55963.541666666664,
      "d": 953.125,
      "v": 58
    },
    {
      "midi": 38,
      "hit": false,
      "t": 56000,
      "d": 119.79166666666424,
      "v": 127
    },
    {
      "midi": 69,
      "hit": false,
      "t": 56000.000000000015,
      "d": 463.54166666666424,
      "v": 106
    },
    {
      "midi": 38,
      "hit": false,
      "t": 56125,
      "d": 2.6041666666642413,
      "v": 84
    },
    {
      "midi": 38,
      "hit": false,
      "t": 56250,
      "d": 106.77083333333576,
      "v": 127
    },
    {
      "midi": 38,
      "hit": false,
      "t": 56250,
      "d": 2.6041666666642413,
      "v": 124
    },
    {
      "midi": 38,
      "hit": false,
      "t": 56375,
      "d": 98.95833333333576,
      "v": 87
    },
    {
      "midi": 38,
      "hit": false,
      "t": 56500,
      "d": 117.1875,
      "v": 127
    },
    {
      "midi": 72,
      "hit": false,
      "t": 56500.000000000015,
      "d": 351.5625,
      "v": 90
    },
    {
      "midi": 38,
      "hit": false,
      "t": 56625,
      "d": 2.6041666666642413,
      "v": 90
    },
    {
      "midi": 38,
      "hit": false,
      "t": 56750,
      "d": 226.5625,
      "v": 127
    },
    {
      "midi": 38,
      "hit": false,
      "t": 56750,
      "d": 2.6041666666642413,
      "v": 127
    },
    {
      "midi": 64,
      "hit": false,
      "t": 56750.000000000015,
      "d": 268.22916666666424,
      "v": 100
    },
    {
      "midi": 38,
      "hit": false,
      "t": 56875,
      "d": 125,
      "v": 90
    },
    {
      "midi": 64,
      "hit": false,
      "t": 56958.33333333333,
      "d": 1002.6041666666642,
      "v": 75
    },
    {
      "midi": 59,
      "hit": false,
      "t": 56971.354166666664,
      "d": 971.3541666666642,
      "v": 79
    },
    {
      "midi": 52,
      "hit": false,
      "t": 56981.77083333332,
      "d": 934.8958333333285,
      "v": 61
    },
    {
      "midi": 28,
      "hit": false,
      "t": 57000,
      "d": 140.625,
      "v": 127
    },
    {
      "midi": 28,
      "hit": false,
      "t": 57125,
      "d": 15.625,
      "v": 90
    },
    {
      "midi": 64,
      "hit": false,
      "t": 57125.000000000015,
      "d": 286.45833333333576,
      "v": 103
    },
    {
      "midi": 28,
      "hit": false,
      "t": 57250,
      "d": 106.77083333333576,
      "v": 127
    },
    {
      "midi": 28,
      "hit": false,
      "t": 57250,
      "d": 15.625,
      "v": 118
    },
    {
      "midi": 28,
      "hit": false,
      "t": 57375,
      "d": 98.95833333333576,
      "v": 81
    },
    {
      "midi": 28,
      "hit": false,
      "t": 57500,
      "d": 117.1875,
      "v": 127
    },
    {
      "midi": 28,
      "hit": false,
      "t": 57500,
      "d": 117.1875,
      "v": 127
    },
    {
      "midi": 67,
      "hit": false,
      "t": 57500.000000000015,
      "d": 429.6875,
      "v": 100
    },
    {
      "midi": 28,
      "hit": false,
      "t": 57625,
      "d": 117.1875,
      "v": 90
    },
    {
      "midi": 28,
      "hit": false,
      "t": 57750,
      "d": 164.0625,
      "v": 127
    },
    {
      "midi": 28,
      "hit": false,
      "t": 57875,
      "d": 70.3125,
      "v": 90
    },
    {
      "midi": 64,
      "hit": false,
      "t": 57999.99999999999,
      "d": 3757.8125,
      "v": 73
    },
    {
      "midi": 60,
      "hit": false,
      "t": 57999.99999999999,
      "d": 3802.0833333333358,
      "v": 86
    },
    {
      "midi": 57,
      "hit": false,
      "t": 57999.99999999999,
      "d": 3804.6875,
      "v": 76
    },
    {
      "midi": 33,
      "hit": false,
      "t": 58000,
      "d": 80.72916666666424,
      "v": 127
    },
    {
      "midi": 33,
      "hit": false,
      "t": 58000,
      "d": 117.1875,
      "v": 127
    },
    {
      "midi": 33,
      "hit": false,
      "t": 58125,
      "d": 117.1875,
      "v": 59
    },
    {
      "midi": 33,
      "hit": false,
      "t": 58250,
      "d": 98.95833333333576,
      "v": 127
    },
    {
      "midi": 33,
      "hit": false,
      "t": 58250,
      "d": 91.14583333333576,
      "v": 115
    },
    {
      "midi": 33,
      "hit": false,
      "t": 58375,
      "d": 91.14583333333576,
      "v": 30
    },
    {
      "midi": 33,
      "hit": false,
      "t": 58500,
      "d": 106.77083333333576,
      "v": 127
    },
    {
      "midi": 33,
      "hit": false,
      "t": 58500,
      "d": 114.58333333333576,
      "v": 127
    },
    {
      "midi": 33,
      "hit": false,
      "t": 58625,
      "d": 114.58333333333576,
      "v": 56
    },
    {
      "midi": 33,
      "hit": false,
      "t": 58750,
      "d": 91.14583333333576,
      "v": 127
    },
    {
      "midi": 33,
      "hit": false,
      "t": 58750,
      "d": 98.95833333333576,
      "v": 121
    },
    {
      "midi": 33,
      "hit": false,
      "t": 58875,
      "d": 98.95833333333576,
      "v": 36
    },
    {
      "midi": 33,
      "hit": false,
      "t": 59000,
      "d": 106.77083333333576,
      "v": 127
    },
    {
      "midi": 33,
      "hit": false,
      "t": 59000,
      "d": 106.77083333333576,
      "v": 127
    },
    {
      "midi": 33,
      "hit": false,
      "t": 59125,
      "d": 106.77083333333576,
      "v": 59
    },
    {
      "midi": 33,
      "hit": false,
      "t": 59250,
      "d": 91.14583333333576,
      "v": 127
    },
    {
      "midi": 33,
      "hit": false,
      "t": 59250,
      "d": 106.77083333333576,
      "v": 125
    },
    {
      "midi": 33,
      "hit": false,
      "t": 59375,
      "d": 106.77083333333576,
      "v": 40
    },
    {
      "midi": 33,
      "hit": false,
      "t": 59500,
      "d": 114.58333333333576,
      "v": 127
    },
    {
      "midi": 33,
      "hit": false,
      "t": 59500,
      "d": 125,
      "v": 127
    },
    {
      "midi": 33,
      "hit": false,
      "t": 59625,
      "d": 125,
      "v": 62
    },
    {
      "midi": 33,
      "hit": false,
      "t": 59750,
      "d": 98.95833333333576,
      "v": 127
    },
    {
      "midi": 33,
      "hit": false,
      "t": 59750,
      "d": 106.77083333333576,
      "v": 127
    },
    {
      "midi": 33,
      "hit": false,
      "t": 59875,
      "d": 106.77083333333576,
      "v": 42
    },
    {
      "midi": 33,
      "hit": false,
      "t": 60000,
      "d": 98.95833333333576,
      "v": 127
    },
    {
      "midi": 33,
      "hit": false,
      "t": 60000,
      "d": 122.39583333333576,
      "v": 127
    },
    {
      "midi": 33,
      "hit": false,
      "t": 60125,
      "d": 122.39583333333576,
      "v": 56
    },
    {
      "midi": 33,
      "hit": false,
      "t": 60250,
      "d": 98.95833333333576,
      "v": 127
    },
    {
      "midi": 33,
      "hit": false,
      "t": 60250,
      "d": 111.97916666666424,
      "v": 127
    },
    {
      "midi": 33,
      "hit": false,
      "t": 60375,
      "d": 111.97916666666424,
      "v": 53
    },
    {
      "midi": 33,
      "hit": false,
      "t": 60500,
      "d": 109.375,
      "v": 127
    },
    {
      "midi": 33,
      "hit": false,
      "t": 60500,
      "d": 117.1875,
      "v": 127
    },
    {
      "midi": 33,
      "hit": false,
      "t": 60625,
      "d": 117.1875,
      "v": 62
    },
    {
      "midi": 33,
      "hit": false,
      "t": 60750,
      "d": 106.77083333333576,
      "v": 127
    },
    {
      "midi": 33,
      "hit": false,
      "t": 60750,
      "d": 122.39583333333576,
      "v": 127
    },
    {
      "midi": 33,
      "hit": false,
      "t": 60875,
      "d": 122.39583333333576,
      "v": 62
    },
    {
      "midi": 33,
      "hit": false,
      "t": 61000,
      "d": 114.58333333333576,
      "v": 127
    },
    {
      "midi": 33,
      "hit": false,
      "t": 61000,
      "d": 96.35416666666424,
      "v": 127
    },
    {
      "midi": 33,
      "hit": false,
      "t": 61125,
      "d": 96.35416666666424,
      "v": 56
    },
    {
      "midi": 33,
      "hit": false,
      "t": 61250,
      "d": 98.95833333333576,
      "v": 127
    },
    {
      "midi": 33,
      "hit": false,
      "t": 61250,
      "d": 88.54166666666424,
      "v": 127
    },
    {
      "midi": 33,
      "hit": false,
      "t": 61375,
      "d": 88.54166666666424,
      "v": 62
    },
    {
      "midi": 33,
      "hit": false,
      "t": 61500,
      "d": 255.20833333333576,
      "v": 127
    },
    {
      "midi": 33,
      "hit": false,
      "t": 61625,
      "d": 138.02083333333576,
      "v": 59
    },
    {
      "midi": 36,
      "hit": false,
      "t": 61750,
      "d": 255.20833333333576,
      "v": 127
    },
    {
      "midi": 36,
      "hit": false,
      "t": 61875,
      "d": 169.27083333333576,
      "v": 53
    },
    {
      "midi": 57,
      "hit": false,
      "t": 61999.99999999999,
      "d": 1796.875,
      "v": 71
    },
    {
      "midi": 62,
      "hit": false,
      "t": 61999.99999999999,
      "d": 1869.7916666666642,
      "v": 80
    },
    {
      "midi": 50,
      "hit": false,
      "t": 61999.99999999999,
      "d": 1872.3958333333285,
      "v": 82
    },
    {
      "midi": 26,
      "hit": false,
      "t": 62000,
      "d": 143.22916666667152,
      "v": 127
    },
    {
      "midi": 26,
      "hit": false,
      "t": 62125,
      "d": 7.8125,
      "v": 78
    },
    {
      "midi": 26,
      "hit": false,
      "t": 62250,
      "d": 7.8125,
      "v": 127
    },
    {
      "midi": 26,
      "hit": false,
      "t": 62250.00000000001,
      "d": 114.58333333333576,
      "v": 127
    },
    {
      "midi": 26,
      "hit": false,
      "t": 62375,
      "d": 91.14583333333576,
      "v": 51
    },
    {
      "midi": 26,
      "hit": false,
      "t": 62500,
      "d": 98.95833333333576,
      "v": 127
    },
    {
      "midi": 26,
      "hit": false,
      "t": 62500.00000000001,
      "d": 117.1875,
      "v": 127
    },
    {
      "midi": 26,
      "hit": false,
      "t": 62625,
      "d": 98.95833333333576,
      "v": 46
    },
    {
      "midi": 26,
      "hit": false,
      "t": 62750,
      "d": 117.1875,
      "v": 127
    },
    {
      "midi": 26,
      "hit": false,
      "t": 62750.00000000001,
      "d": 106.77083333333576,
      "v": 127
    },
    {
      "midi": 26,
      "hit": false,
      "t": 62875,
      "d": 117.1875,
      "v": 53
    },
    {
      "midi": 26,
      "hit": false,
      "t": 63000,
      "d": 122.39583333333576,
      "v": 127
    },
    {
      "midi": 26,
      "hit": false,
      "t": 63000.00000000001,
      "d": 114.58333333333576,
      "v": 127
    },
    {
      "midi": 26,
      "hit": false,
      "t": 63125,
      "d": 122.39583333333576,
      "v": 62
    },
    {
      "midi": 26,
      "hit": false,
      "t": 63250,
      "d": 125,
      "v": 127
    },
    {
      "midi": 26,
      "hit": false,
      "t": 63250.00000000001,
      "d": 106.77083333333576,
      "v": 127
    },
    {
      "midi": 26,
      "hit": false,
      "t": 63375,
      "d": 125,
      "v": 56
    },
    {
      "midi": 26,
      "hit": false,
      "t": 63500,
      "d": 125,
      "v": 127
    },
    {
      "midi": 26,
      "hit": false,
      "t": 63500.00000000001,
      "d": 106.77083333333576,
      "v": 127
    },
    {
      "midi": 26,
      "hit": false,
      "t": 63625,
      "d": 125,
      "v": 62
    },
    {
      "midi": 26,
      "hit": false,
      "t": 63750.00000000001,
      "d": 260.41666666666424,
      "v": 127
    },
    {
      "midi": 26,
      "hit": false,
      "t": 63875,
      "d": 20.83333333333576,
      "v": 56
    },
    {
      "midi": 52,
      "hit": false,
      "t": 63999.999999999985,
      "d": 1911.4583333333285,
      "v": 95
    },
    {
      "midi": 64,
      "hit": false,
      "t": 63999.999999999985,
      "d": 1942.7083333333285,
      "v": 69
    },
    {
      "midi": 59,
      "hit": false,
      "t": 63999.999999999985,
      "d": 1950.5208333333285,
      "v": 69
    },
    {
      "midi": 28,
      "hit": false,
      "t": 64000.00000000001,
      "d": 132.8125,
      "v": 127
    },
    {
      "midi": 28,
      "hit": false,
      "t": 64125,
      "d": 13.020833333335759,
      "v": 53
    },
    {
      "midi": 28,
      "hit": false,
      "t": 64250,
      "d": 13.020833333335759,
      "v": 125
    },
    {
      "midi": 28,
      "hit": false,
      "t": 64250.00000000001,
      "d": 122.39583333333576,
      "v": 127
    },
    {
      "midi": 28,
      "hit": false,
      "t": 64375,
      "d": 119.79166666666424,
      "v": 40
    },
    {
      "midi": 28,
      "hit": false,
      "t": 64500.00000000001,
      "d": 125,
      "v": 127
    },
    {
      "midi": 28,
      "hit": false,
      "t": 64625,
      "d": 5.208333333335759,
      "v": 56
    },
    {
      "midi": 28,
      "hit": false,
      "t": 64750,
      "d": 5.208333333335759,
      "v": 127
    },
    {
      "midi": 81,
      "hit": false,
      "t": 64750,
      "d": 763.0208333333358,
      "v": 80
    },
    {
      "midi": 28,
      "hit": false,
      "t": 64750.00000000001,
      "d": 111.97916666666424,
      "v": 127
    },
    {
      "midi": 81,
      "hit": false,
      "t": 64750.00000000001,
      "d": 763.0208333333358,
      "v": 80
    },
    {
      "midi": 28,
      "hit": false,
      "t": 64875,
      "d": 5.208333333335759,
      "v": 46
    },
    {
      "midi": 28,
      "hit": false,
      "t": 65000,
      "d": 5.208333333335759,
      "v": 127
    },
    {
      "midi": 28,
      "hit": false,
      "t": 65000.00000000001,
      "d": 114.58333333333576,
      "v": 127
    },
    {
      "midi": 28,
      "hit": false,
      "t": 65125,
      "d": 5.208333333335759,
      "v": 59
    },
    {
      "midi": 28,
      "hit": false,
      "t": 65250,
      "d": 5.208333333335759,
      "v": 127
    },
    {
      "midi": 28,
      "hit": false,
      "t": 65250.00000000001,
      "d": 106.77083333333576,
      "v": 127
    },
    {
      "midi": 28,
      "hit": false,
      "t": 65375,
      "d": 98.95833333333576,
      "v": 48
    },
    {
      "midi": 79,
      "hit": false,
      "t": 65500,
      "d": 486.9791666666715,
      "v": 77
    },
    {
      "midi": 28,
      "hit": false,
      "t": 65500.00000000001,
      "d": 213.54166666666424,
      "v": 127
    },
    {
      "midi": 79,
      "hit": false,
      "t": 65500.00000000001,
      "d": 486.97916666666424,
      "v": 77
    },
    {
      "midi": 28,
      "hit": false,
      "t": 65625,
      "d": 78.125,
      "v": 69
    },
    {
      "midi": 31,
      "hit": false,
      "t": 65750,
      "d": 252.60416666667152,
      "v": 127
    },
    {
      "midi": 31,
      "hit": false,
      "t": 65875,
      "d": 101.5625,
      "v": 65
    },
    {
      "midi": 64,
      "hit": false,
      "t": 65999.99999999999,
      "d": 3757.8125,
      "v": 73
    },
    {
      "midi": 60,
      "hit": false,
      "t": 65999.99999999999,
      "d": 3802.0833333333285,
      "v": 86
    },
    {
      "midi": 57,
      "hit": false,
      "t": 65999.99999999999,
      "d": 3804.6875,
      "v": 76
    },
    {
      "midi": 33,
      "hit": false,
      "t": 66000,
      "d": 80.72916666667152,
      "v": 127
    },
    {
      "midi": 33,
      "hit": false,
      "t": 66000,
      "d": 117.1875,
      "v": 127
    },
    {
      "midi": 76,
      "hit": false,
      "t": 66000,
      "d": 2010.4166666666715,
      "v": 79
    },
    {
      "midi": 76,
      "hit": false,
      "t": 66000,
      "d": 2010.4166666666715,
      "v": 79
    },
    {
      "midi": 33,
      "hit": false,
      "t": 66125,
      "d": 117.1875,
      "v": 59
    },
    {
      "midi": 33,
      "hit": false,
      "t": 66250,
      "d": 98.95833333332848,
      "v": 127
    },
    {
      "midi": 33,
      "hit": false,
      "t": 66250,
      "d": 91.14583333332848,
      "v": 115
    },
    {
      "midi": 33,
      "hit": false,
      "t": 66375,
      "d": 91.14583333332848,
      "v": 30
    },
    {
      "midi": 33,
      "hit": false,
      "t": 66500,
      "d": 106.77083333332848,
      "v": 127
    },
    {
      "midi": 33,
      "hit": false,
      "t": 66500,
      "d": 114.58333333332848,
      "v": 127
    },
    {
      "midi": 33,
      "hit": false,
      "t": 66625,
      "d": 114.58333333332848,
      "v": 56
    },
    {
      "midi": 33,
      "hit": false,
      "t": 66750,
      "d": 91.14583333332848,
      "v": 127
    },
    {
      "midi": 33,
      "hit": false,
      "t": 66750,
      "d": 98.95833333332848,
      "v": 121
    },
    {
      "midi": 33,
      "hit": false,
      "t": 66875,
      "d": 98.95833333332848,
      "v": 36
    },
    {
      "midi": 33,
      "hit": false,
      "t": 67000,
      "d": 106.77083333332848,
      "v": 127
    },
    {
      "midi": 33,
      "hit": false,
      "t": 67000,
      "d": 106.77083333332848,
      "v": 127
    },
    {
      "midi": 33,
      "hit": false,
      "t": 67125,
      "d": 106.77083333332848,
      "v": 59
    },
    {
      "midi": 33,
      "hit": false,
      "t": 67250,
      "d": 91.14583333332848,
      "v": 127
    },
    {
      "midi": 33,
      "hit": false,
      "t": 67250,
      "d": 106.77083333332848,
      "v": 125
    },
    {
      "midi": 33,
      "hit": false,
      "t": 67375,
      "d": 106.77083333332848,
      "v": 40
    },
    {
      "midi": 33,
      "hit": false,
      "t": 67500,
      "d": 114.58333333332848,
      "v": 127
    },
    {
      "midi": 33,
      "hit": false,
      "t": 67500,
      "d": 125,
      "v": 127
    },
    {
      "midi": 33,
      "hit": false,
      "t": 67625,
      "d": 125,
      "v": 62
    },
    {
      "midi": 33,
      "hit": false,
      "t": 67750,
      "d": 98.95833333332848,
      "v": 127
    },
    {
      "midi": 33,
      "hit": false,
      "t": 67750,
      "d": 106.77083333332848,
      "v": 127
    },
    {
      "midi": 33,
      "hit": false,
      "t": 67875,
      "d": 106.77083333332848,
      "v": 42
    },
    {
      "midi": 33,
      "hit": false,
      "t": 68000,
      "d": 98.95833333332848,
      "v": 127
    },
    {
      "midi": 33,
      "hit": false,
      "t": 68000,
      "d": 122.39583333332848,
      "v": 127
    },
    {
      "midi": 33,
      "hit": false,
      "t": 68125,
      "d": 122.39583333332848,
      "v": 56
    },
    {
      "midi": 33,
      "hit": false,
      "t": 68250,
      "d": 98.95833333332848,
      "v": 127
    },
    {
      "midi": 33,
      "hit": false,
      "t": 68250,
      "d": 111.97916666667152,
      "v": 127
    },
    {
      "midi": 33,
      "hit": false,
      "t": 68375,
      "d": 111.97916666667152,
      "v": 53
    },
    {
      "midi": 33,
      "hit": false,
      "t": 68500,
      "d": 109.375,
      "v": 127
    },
    {
      "midi": 33,
      "hit": false,
      "t": 68500,
      "d": 117.1875,
      "v": 127
    },
    {
      "midi": 33,
      "hit": false,
      "t": 68625,
      "d": 117.1875,
      "v": 62
    },
    {
      "midi": 33,
      "hit": false,
      "t": 68750,
      "d": 106.77083333332848,
      "v": 127
    },
    {
      "midi": 33,
      "hit": false,
      "t": 68750,
      "d": 122.39583333332848,
      "v": 127
    },
    {
      "midi": 33,
      "hit": false,
      "t": 68875,
      "d": 122.39583333332848,
      "v": 62
    },
    {
      "midi": 33,
      "hit": false,
      "t": 69000,
      "d": 114.58333333332848,
      "v": 127
    },
    {
      "midi": 33,
      "hit": false,
      "t": 69000,
      "d": 96.35416666667152,
      "v": 127
    },
    {
      "midi": 33,
      "hit": false,
      "t": 69125,
      "d": 96.35416666667152,
      "v": 56
    },
    {
      "midi": 33,
      "hit": false,
      "t": 69250,
      "d": 98.95833333332848,
      "v": 127
    },
    {
      "midi": 33,
      "hit": false,
      "t": 69250,
      "d": 88.54166666667152,
      "v": 127
    },
    {
      "midi": 33,
      "hit": false,
      "t": 69375,
      "d": 88.54166666667152,
      "v": 62
    },
    {
      "midi": 33,
      "hit": false,
      "t": 69500,
      "d": 255.20833333332848,
      "v": 127
    },
    {
      "midi": 33,
      "hit": false,
      "t": 69625,
      "d": 138.02083333332848,
      "v": 59
    },
    {
      "midi": 36,
      "hit": false,
      "t": 69750,
      "d": 255.20833333332848,
      "v": 127
    },
    {
      "midi": 36,
      "hit": false,
      "t": 69875,
      "d": 169.27083333332848,
      "v": 53
    },
    {
      "midi": 57,
      "hit": false,
      "t": 69999.99999999999,
      "d": 1796.875,
      "v": 71
    },
    {
      "midi": 62,
      "hit": false,
      "t": 69999.99999999999,
      "d": 1869.7916666666715,
      "v": 80
    },
    {
      "midi": 50,
      "hit": false,
      "t": 69999.99999999999,
      "d": 1872.395833333343,
      "v": 82
    },
    {
      "midi": 26,
      "hit": false,
      "t": 70000,
      "d": 143.22916666665697,
      "v": 127
    },
    {
      "midi": 26,
      "hit": false,
      "t": 70125,
      "d": 7.8125,
      "v": 78
    },
    {
      "midi": 26,
      "hit": false,
      "t": 70249.99999999999,
      "d": 114.58333333332848,
      "v": 127
    },
    {
      "midi": 26,
      "hit": false,
      "t": 70250,
      "d": 7.8125,
      "v": 127
    },
    {
      "midi": 26,
      "hit": false,
      "t": 70375,
      "d": 91.14583333332848,
      "v": 51
    },
    {
      "midi": 26,
      "hit": false,
      "t": 70499.99999999999,
      "d": 117.1875,
      "v": 127
    },
    {
      "midi": 26,
      "hit": false,
      "t": 70500,
      "d": 98.95833333332848,
      "v": 127
    },
    {
      "midi": 26,
      "hit": false,
      "t": 70625,
      "d": 98.95833333332848,
      "v": 46
    },
    {
      "midi": 26,
      "hit": false,
      "t": 70749.99999999999,
      "d": 106.77083333332848,
      "v": 127
    },
    {
      "midi": 26,
      "hit": false,
      "t": 70750,
      "d": 117.1875,
      "v": 127
    },
    {
      "midi": 26,
      "hit": false,
      "t": 70875,
      "d": 117.1875,
      "v": 53
    },
    {
      "midi": 26,
      "hit": false,
      "t": 70999.99999999999,
      "d": 114.58333333332848,
      "v": 127
    },
    {
      "midi": 26,
      "hit": false,
      "t": 71000,
      "d": 122.39583333332848,
      "v": 127
    },
    {
      "midi": 26,
      "hit": false,
      "t": 71125,
      "d": 122.39583333332848,
      "v": 62
    },
    {
      "midi": 26,
      "hit": false,
      "t": 71249.99999999999,
      "d": 106.77083333332848,
      "v": 127
    },
    {
      "midi": 26,
      "hit": false,
      "t": 71250,
      "d": 125,
      "v": 127
    },
    {
      "midi": 26,
      "hit": false,
      "t": 71375,
      "d": 125,
      "v": 56
    },
    {
      "midi": 26,
      "hit": false,
      "t": 71499.99999999999,
      "d": 106.77083333332848,
      "v": 127
    },
    {
      "midi": 26,
      "hit": false,
      "t": 71500,
      "d": 125,
      "v": 127
    },
    {
      "midi": 26,
      "hit": false,
      "t": 71625,
      "d": 125,
      "v": 62
    },
    {
      "midi": 26,
      "hit": false,
      "t": 71749.99999999999,
      "d": 260.4166666666715,
      "v": 127
    },
    {
      "midi": 26,
      "hit": false,
      "t": 71875,
      "d": 20.833333333328483,
      "v": 56
    },
    {
      "midi": 28,
      "hit": false,
      "t": 71999.99999999999,
      "d": 132.8125,
      "v": 127
    },
    {
      "midi": 52,
      "hit": false,
      "t": 72000,
      "d": 1911.4583333333285,
      "v": 95
    },
    {
      "midi": 64,
      "hit": false,
      "t": 72000,
      "d": 1942.7083333333285,
      "v": 69
    },
    {
      "midi": 59,
      "hit": false,
      "t": 72000,
      "d": 1950.5208333333285,
      "v": 69
    },
    {
      "midi": 28,
      "hit": false,
      "t": 72125,
      "d": 13.020833333328483,
      "v": 53
    },
    {
      "midi": 28,
      "hit": false,
      "t": 72249.99999999999,
      "d": 122.39583333332848,
      "v": 127
    },
    {
      "midi": 28,
      "hit": false,
      "t": 72250,
      "d": 13.020833333328483,
      "v": 125
    },
    {
      "midi": 28,
      "hit": false,
      "t": 72375,
      "d": 119.79166666667152,
      "v": 40
    },
    {
      "midi": 28,
      "hit": false,
      "t": 72499.99999999999,
      "d": 125,
      "v": 127
    },
    {
      "midi": 28,
      "hit": false,
      "t": 72625,
      "d": 5.208333333328483,
      "v": 56
    },
    {
      "midi": 28,
      "hit": false,
      "t": 72749.99999999999,
      "d": 111.97916666667152,
      "v": 127
    },
    {
      "midi": 28,
      "hit": false,
      "t": 72750,
      "d": 5.208333333328483,
      "v": 127
    },
    {
      "midi": 81,
      "hit": false,
      "t": 72750,
      "d": 736.9791666666715,
      "v": 82
    },
    {
      "midi": 81,
      "hit": false,
      "t": 72750,
      "d": 736.9791666666715,
      "v": 82
    },
    {
      "midi": 28,
      "hit": false,
      "t": 72875,
      "d": 5.208333333328483,
      "v": 46
    },
    {
      "midi": 28,
      "hit": false,
      "t": 72999.99999999999,
      "d": 114.58333333332848,
      "v": 127
    },
    {
      "midi": 28,
      "hit": false,
      "t": 73000,
      "d": 5.208333333328483,
      "v": 127
    },
    {
      "midi": 28,
      "hit": false,
      "t": 73125,
      "d": 5.208333333328483,
      "v": 59
    },
    {
      "midi": 28,
      "hit": false,
      "t": 73249.99999999999,
      "d": 106.77083333332848,
      "v": 127
    },
    {
      "midi": 28,
      "hit": false,
      "t": 73250,
      "d": 5.208333333328483,
      "v": 127
    },
    {
      "midi": 28,
      "hit": false,
      "t": 73375,
      "d": 98.95833333332848,
      "v": 48
    },
    {
      "midi": 28,
      "hit": false,
      "t": 73499.99999999999,
      "d": 213.54166666667152,
      "v": 127
    },
    {
      "midi": 79,
      "hit": false,
      "t": 73500,
      "d": 447.9166666666715,
      "v": 77
    },
    {
      "midi": 79,
      "hit": false,
      "t": 73500,
      "d": 447.9166666666715,
      "v": 77
    },
    {
      "midi": 28,
      "hit": false,
      "t": 73625,
      "d": 78.125,
      "v": 69
    },
    {
      "midi": 31,
      "hit": false,
      "t": 73749.99999999999,
      "d": 252.60416666667152,
      "v": 127
    },
    {
      "midi": 31,
      "hit": false,
      "t": 73875,
      "d": 101.5625,
      "v": 65
    },
    {
      "midi": 14,
      "hit": false,
      "t": 73999.99999999999,
      "d": 83.33333333334303,
      "v": 127
    },
    {
      "midi": 26,
      "hit": false,
      "t": 74000,
      "d": 83.33333333332848,
      "v": 122
    },
    {
      "midi": 62,
      "hit": false,
      "t": 74000,
      "d": 1919.2708333333285,
      "v": 74
    },
    {
      "midi": 57,
      "hit": false,
      "t": 74000,
      "d": 1968.75,
      "v": 73
    },
    {
      "midi": 57,
      "hit": false,
      "t": 74000,
      "d": 1882.8125,
      "v": 97
    },
    {
      "midi": 14,
      "hit": false,
      "t": 74125,
      "d": 83.33333333332848,
      "v": 127
    },
    {
      "midi": 26,
      "hit": false,
      "t": 74125,
      "d": 83.33333333332848,
      "v": 71
    },
    {
      "midi": 14,
      "hit": false,
      "t": 74250,
      "d": 96.35416666667152,
      "v": 127
    },
    {
      "midi": 26,
      "hit": false,
      "t": 74250,
      "d": 96.35416666667152,
      "v": 109
    },
    {
      "midi": 14,
      "hit": false,
      "t": 74375,
      "d": 96.35416666667152,
      "v": 127
    },
    {
      "midi": 26,
      "hit": false,
      "t": 74375,
      "d": 96.35416666667152,
      "v": 58
    },
    {
      "midi": 14,
      "hit": false,
      "t": 74500,
      "d": 114.58333333332848,
      "v": 127
    },
    {
      "midi": 26,
      "hit": false,
      "t": 74500,
      "d": 114.58333333332848,
      "v": 117
    },
    {
      "midi": 69,
      "hit": false,
      "t": 74500.00000000001,
      "d": 96.35416666667152,
      "v": 103
    },
    {
      "midi": 14,
      "hit": false,
      "t": 74625,
      "d": 114.58333333332848,
      "v": 127
    },
    {
      "midi": 26,
      "hit": false,
      "t": 74625,
      "d": 114.58333333332848,
      "v": 66
    },
    {
      "midi": 14,
      "hit": false,
      "t": 74750,
      "d": 98.95833333332848,
      "v": 127
    },
    {
      "midi": 26,
      "hit": false,
      "t": 74750,
      "d": 98.95833333332848,
      "v": 109
    },
    {
      "midi": 14,
      "hit": false,
      "t": 74875,
      "d": 98.95833333332848,
      "v": 127
    },
    {
      "midi": 26,
      "hit": false,
      "t": 74875,
      "d": 98.95833333332848,
      "v": 58
    },
    {
      "midi": 14,
      "hit": false,
      "t": 75000,
      "d": 106.77083333332848,
      "v": 127
    },
    {
      "midi": 26,
      "hit": false,
      "t": 75000,
      "d": 106.77083333332848,
      "v": 109
    },
    {
      "midi": 14,
      "hit": false,
      "t": 75125,
      "d": 106.77083333332848,
      "v": 127
    },
    {
      "midi": 26,
      "hit": false,
      "t": 75125,
      "d": 106.77083333332848,
      "v": 58
    },
    {
      "midi": 14,
      "hit": false,
      "t": 75250,
      "d": 106.77083333332848,
      "v": 127
    },
    {
      "midi": 26,
      "hit": false,
      "t": 75250,
      "d": 106.77083333332848,
      "v": 106
    },
    {
      "midi": 14,
      "hit": false,
      "t": 75375,
      "d": 106.77083333332848,
      "v": 127
    },
    {
      "midi": 26,
      "hit": false,
      "t": 75375,
      "d": 106.77083333332848,
      "v": 55
    },
    {
      "midi": 14,
      "hit": false,
      "t": 75500,
      "d": 106.77083333332848,
      "v": 127
    },
    {
      "midi": 26,
      "hit": false,
      "t": 75500,
      "d": 106.77083333332848,
      "v": 113
    },
    {
      "midi": 69,
      "hit": false,
      "t": 75500.00000000001,
      "d": 114.58333333332848,
      "v": 109
    },
    {
      "midi": 14,
      "hit": false,
      "t": 75625,
      "d": 106.77083333332848,
      "v": 127
    },
    {
      "midi": 26,
      "hit": false,
      "t": 75625,
      "d": 106.77083333332848,
      "v": 62
    },
    {
      "midi": 14,
      "hit": false,
      "t": 75875,
      "d": 101.5625,
      "v": 127
    },
    {
      "midi": 26,
      "hit": false,
      "t": 75875,
      "d": 101.5625,
      "v": 71
    },
    {
      "midi": 59,
      "hit": false,
      "t": 76000,
      "d": 2023.4375,
      "v": 71
    },
    {
      "midi": 64,
      "hit": false,
      "t": 76000,
      "d": 2067.7083333333285,
      "v": 72
    },
    {
      "midi": 52,
      "hit": false,
      "t": 76000,
      "d": 1898.4375,
      "v": 97
    },
    {
      "midi": 16,
      "hit": false,
      "t": 76125,
      "d": 15.625,
      "v": 127
    },
    {
      "midi": 28,
      "hit": false,
      "t": 76125,
      "d": 15.625,
      "v": 55
    },
    {
      "midi": 16,
      "hit": false,
      "t": 76250,
      "d": 15.625,
      "v": 127
    },
    {
      "midi": 28,
      "hit": false,
      "t": 76250,
      "d": 15.625,
      "v": 100
    },
    {
      "midi": 16,
      "hit": false,
      "t": 76375,
      "d": 98.95833333332848,
      "v": 127
    },
    {
      "midi": 28,
      "hit": false,
      "t": 76375,
      "d": 98.95833333332848,
      "v": 49
    },
    {
      "midi": 16,
      "hit": false,
      "t": 76500,
      "d": 117.1875,
      "v": 127
    },
    {
      "midi": 28,
      "hit": false,
      "t": 76500,
      "d": 117.1875,
      "v": 103
    },
    {
      "midi": 69,
      "hit": false,
      "t": 76500.00000000001,
      "d": 179.6875,
      "v": 106
    },
    {
      "midi": 16,
      "hit": false,
      "t": 76625,
      "d": 117.1875,
      "v": 127
    },
    {
      "midi": 28,
      "hit": false,
      "t": 76625,
      "d": 117.1875,
      "v": 52
    },
    {
      "midi": 16,
      "hit": false,
      "t": 76750,
      "d": 114.58333333332848,
      "v": 127
    },
    {
      "midi": 28,
      "hit": false,
      "t": 76750,
      "d": 114.58333333332848,
      "v": 92
    },
    {
      "midi": 81,
      "hit": false,
      "t": 76750,
      "d": 309.8958333333285,
      "v": 90
    },
    {
      "midi": 81,
      "hit": false,
      "t": 76750,
      "d": 309.8958333333285,
      "v": 90
    },
    {
      "midi": 16,
      "hit": false,
      "t": 76875,
      "d": 114.58333333332848,
      "v": 127
    },
    {
      "midi": 28,
      "hit": false,
      "t": 76875,
      "d": 114.58333333332848,
      "v": 41
    },
    {
      "midi": 16,
      "hit": false,
      "t": 77000,
      "d": 114.58333333332848,
      "v": 127
    },
    {
      "midi": 28,
      "hit": false,
      "t": 77000,
      "d": 114.58333333332848,
      "v": 100
    },
    {
      "midi": 16,
      "hit": false,
      "t": 77125,
      "d": 114.58333333332848,
      "v": 127
    },
    {
      "midi": 28,
      "hit": false,
      "t": 77125,
      "d": 114.58333333332848,
      "v": 49
    },
    {
      "midi": 16,
      "hit": false,
      "t": 77250,
      "d": 98.95833333332848,
      "v": 127
    },
    {
      "midi": 28,
      "hit": false,
      "t": 77250,
      "d": 98.95833333332848,
      "v": 103
    },
    {
      "midi": 16,
      "hit": false,
      "t": 77375,
      "d": 98.95833333332848,
      "v": 127
    },
    {
      "midi": 28,
      "hit": false,
      "t": 77375,
      "d": 98.95833333332848,
      "v": 52
    },
    {
      "midi": 16,
      "hit": false,
      "t": 77500,
      "d": 98.95833333332848,
      "v": 127
    },
    {
      "midi": 28,
      "hit": false,
      "t": 77500,
      "d": 98.95833333332848,
      "v": 103
    },
    {
      "midi": 79,
      "hit": false,
      "t": 77500,
      "d": 442.7083333333285,
      "v": 76
    },
    {
      "midi": 79,
      "hit": false,
      "t": 77500,
      "d": 442.7083333333285,
      "v": 76
    },
    {
      "midi": 69,
      "hit": false,
      "t": 77500.00000000001,
      "d": 156.25,
      "v": 113
    },
    {
      "midi": 16,
      "hit": false,
      "t": 77625,
      "d": 98.95833333332848,
      "v": 127
    },
    {
      "midi": 28,
      "hit": false,
      "t": 77625,
      "d": 98.95833333332848,
      "v": 52
    },
    {
      "midi": 53,
      "hit": false,
      "t": 77750,
      "d": 2067.7083333333285,
      "v": 103
    },
    {
      "midi": 16,
      "hit": false,
      "t": 77875,
      "d": 125,
      "v": 127
    },
    {
      "midi": 28,
      "hit": false,
      "t": 77875,
      "d": 125,
      "v": 71
    },
    {
      "midi": 81,
      "hit": false,
      "t": 78000,
      "d": 1997.3958333333285,
      "v": 72
    },
    {
      "midi": 60,
      "hit": false,
      "t": 78000,
      "d": 1955.729166666657,
      "v": 80
    },
    {
      "midi": 65,
      "hit": false,
      "t": 78000,
      "d": 1986.979166666657,
      "v": 71
    },
    {
      "midi": 81,
      "hit": false,
      "t": 78000,
      "d": 1997.3958333333285,
      "v": 72
    },
    {
      "midi": 17,
      "hit": false,
      "t": 78125,
      "d": 5.208333333328483,
      "v": 127
    },
    {
      "midi": 29,
      "hit": false,
      "t": 78125,
      "d": 5.208333333328483,
      "v": 49
    },
    {
      "midi": 17,
      "hit": false,
      "t": 78250,
      "d": 5.208333333328483,
      "v": 127
    },
    {
      "midi": 29,
      "hit": false,
      "t": 78250,
      "d": 5.208333333328483,
      "v": 103
    },
    {
      "midi": 17,
      "hit": false,
      "t": 78375,
      "d": 98.95833333332848,
      "v": 127
    },
    {
      "midi": 29,
      "hit": false,
      "t": 78375,
      "d": 98.95833333332848,
      "v": 52
    },
    {
      "midi": 17,
      "hit": false,
      "t": 78500,
      "d": 114.58333333332848,
      "v": 127
    },
    {
      "midi": 29,
      "hit": false,
      "t": 78500,
      "d": 114.58333333332848,
      "v": 106
    },
    {
      "midi": 69,
      "hit": false,
      "t": 78500.00000000001,
      "d": 122.39583333332848,
      "v": 117
    },
    {
      "midi": 17,
      "hit": false,
      "t": 78625,
      "d": 114.58333333332848,
      "v": 127
    },
    {
      "midi": 29,
      "hit": false,
      "t": 78625,
      "d": 114.58333333332848,
      "v": 55
    },
    {
      "midi": 17,
      "hit": false,
      "t": 78750,
      "d": 114.58333333332848,
      "v": 127
    },
    {
      "midi": 29,
      "hit": false,
      "t": 78750,
      "d": 114.58333333332848,
      "v": 106
    },
    {
      "midi": 17,
      "hit": false,
      "t": 78875,
      "d": 114.58333333332848,
      "v": 127
    },
    {
      "midi": 29,
      "hit": false,
      "t": 78875,
      "d": 114.58333333332848,
      "v": 55
    },
    {
      "midi": 17,
      "hit": false,
      "t": 79000,
      "d": 114.58333333332848,
      "v": 127
    },
    {
      "midi": 29,
      "hit": false,
      "t": 79000,
      "d": 114.58333333332848,
      "v": 117
    },
    {
      "midi": 17,
      "hit": false,
      "t": 79125,
      "d": 114.58333333332848,
      "v": 127
    },
    {
      "midi": 29,
      "hit": false,
      "t": 79125,
      "d": 114.58333333332848,
      "v": 66
    },
    {
      "midi": 17,
      "hit": false,
      "t": 79250,
      "d": 96.35416666667152,
      "v": 127
    },
    {
      "midi": 29,
      "hit": false,
      "t": 79250,
      "d": 96.35416666667152,
      "v": 106
    },
    {
      "midi": 17,
      "hit": false,
      "t": 79375,
      "d": 96.35416666667152,
      "v": 127
    },
    {
      "midi": 29,
      "hit": false,
      "t": 79375,
      "d": 96.35416666667152,
      "v": 55
    },
    {
      "midi": 17,
      "hit": false,
      "t": 79500,
      "d": 106.77083333332848,
      "v": 127
    },
    {
      "midi": 29,
      "hit": false,
      "t": 79500,
      "d": 106.77083333332848,
      "v": 113
    },
    {
      "midi": 69,
      "hit": false,
      "t": 79500.00000000001,
      "d": 106.77083333332848,
      "v": 117
    },
    {
      "midi": 17,
      "hit": false,
      "t": 79625,
      "d": 106.77083333332848,
      "v": 127
    },
    {
      "midi": 29,
      "hit": false,
      "t": 79625,
      "d": 106.77083333332848,
      "v": 62
    },
    {
      "midi": 17,
      "hit": false,
      "t": 79875,
      "d": 85.9375,
      "v": 127
    },
    {
      "midi": 29,
      "hit": false,
      "t": 79875,
      "d": 85.9375,
      "v": 55
    },
    {
      "midi": 62,
      "hit": false,
      "t": 79999.99999999999,
      "d": 1992.1875,
      "v": 76
    },
    {
      "midi": 67,
      "hit": false,
      "t": 79999.99999999999,
      "d": 2002.6041666666715,
      "v": 73
    },
    {
      "midi": 50,
      "hit": false,
      "t": 80000,
      "d": 1835.9375,
      "v": 100
    },
    {
      "midi": 19,
      "hit": false,
      "t": 80125,
      "d": 2.6041666666715173,
      "v": 127
    },
    {
      "midi": 31,
      "hit": false,
      "t": 80125,
      "d": 2.6041666666715173,
      "v": 29
    },
    {
      "midi": 19,
      "hit": false,
      "t": 80250,
      "d": 2.6041666666715173,
      "v": 127
    },
    {
      "midi": 31,
      "hit": false,
      "t": 80250,
      "d": 2.6041666666715173,
      "v": 109
    },
    {
      "midi": 19,
      "hit": false,
      "t": 80375,
      "d": 83.33333333332848,
      "v": 127
    },
    {
      "midi": 31,
      "hit": false,
      "t": 80375,
      "d": 83.33333333332848,
      "v": 58
    },
    {
      "midi": 19,
      "hit": false,
      "t": 80500,
      "d": 98.95833333332848,
      "v": 127
    },
    {
      "midi": 31,
      "hit": false,
      "t": 80500,
      "d": 98.95833333332848,
      "v": 106
    },
    {
      "midi": 69,
      "hit": false,
      "t": 80500.00000000001,
      "d": 104.16666666667152,
      "v": 117
    },
    {
      "midi": 19,
      "hit": false,
      "t": 80625,
      "d": 98.95833333332848,
      "v": 127
    },
    {
      "midi": 31,
      "hit": false,
      "t": 80625,
      "d": 98.95833333332848,
      "v": 55
    },
    {
      "midi": 19,
      "hit": false,
      "t": 80750,
      "d": 88.54166666667152,
      "v": 127
    },
    {
      "midi": 31,
      "hit": false,
      "t": 80750,
      "d": 88.54166666667152,
      "v": 113
    },
    {
      "midi": 19,
      "hit": false,
      "t": 80875,
      "d": 88.54166666667152,
      "v": 127
    },
    {
      "midi": 31,
      "hit": false,
      "t": 80875,
      "d": 88.54166666667152,
      "v": 62
    },
    {
      "midi": 19,
      "hit": false,
      "t": 81000,
      "d": 91.14583333332848,
      "v": 127
    },
    {
      "midi": 31,
      "hit": false,
      "t": 81000,
      "d": 91.14583333332848,
      "v": 113
    },
    {
      "midi": 19,
      "hit": false,
      "t": 81125,
      "d": 91.14583333332848,
      "v": 127
    },
    {
      "midi": 31,
      "hit": false,
      "t": 81125,
      "d": 91.14583333332848,
      "v": 62
    },
    {
      "midi": 19,
      "hit": false,
      "t": 81250,
      "d": 91.14583333332848,
      "v": 127
    },
    {
      "midi": 31,
      "hit": false,
      "t": 81250,
      "d": 91.14583333332848,
      "v": 109
    },
    {
      "midi": 64,
      "hit": false,
      "t": 81250,
      "d": 273.4375,
      "v": 109
    },
    {
      "midi": 19,
      "hit": false,
      "t": 81375,
      "d": 91.14583333332848,
      "v": 127
    },
    {
      "midi": 31,
      "hit": false,
      "t": 81375,
      "d": 91.14583333332848,
      "v": 58
    },
    {
      "midi": 19,
      "hit": false,
      "t": 81500,
      "d": 83.33333333332848,
      "v": 127
    },
    {
      "midi": 31,
      "hit": false,
      "t": 81500,
      "d": 83.33333333332848,
      "v": 106
    },
    {
      "midi": 71,
      "hit": false,
      "t": 81500,
      "d": 294.2708333333285,
      "v": 103
    },
    {
      "midi": 69,
      "hit": false,
      "t": 81500.00000000001,
      "d": 88.54166666667152,
      "v": 113
    },
    {
      "midi": 19,
      "hit": false,
      "t": 81625,
      "d": 83.33333333332848,
      "v": 127
    },
    {
      "midi": 31,
      "hit": false,
      "t": 81625,
      "d": 83.33333333332848,
      "v": 55
    },
    {
      "midi": 76,
      "hit": false,
      "t": 81750,
      "d": 143.22916666665697,
      "v": 100
    },
    {
      "midi": 88,
      "hit": false,
      "t": 81750,
      "d": 143.22916666665697,
      "v": 100
    },
    {
      "midi": 76,
      "hit": false,
      "t": 81750,
      "d": 197.91666666667152,
      "v": 103
    },
    {
      "midi": 88,
      "hit": false,
      "t": 81750,
      "d": 226.5625,
      "v": 92
    },
    {
      "midi": 19,
      "hit": false,
      "t": 81875,
      "d": 39.0625,
      "v": 127
    },
    {
      "midi": 31,
      "hit": false,
      "t": 81875,
      "d": 39.0625,
      "v": 66
    },
    {
      "midi": 48,
      "hit": false,
      "t": 81999.99999999999,
      "d": 1929.6875,
      "v": 47
    },
    {
      "midi": 45,
      "hit": false,
      "t": 81999.99999999999,
      "d": 2020.833333333343,
      "v": 44
    },
    {
      "midi": 57,
      "hit": false,
      "t": 81999.99999999999,
      "d": 1973.9583333333285,
      "v": 88
    },
    {
      "midi": 33,
      "hit": false,
      "t": 82000,
      "d": 114.58333333332848,
      "v": 127
    },
    {
      "midi": 33,
      "hit": false,
      "t": 82000,
      "d": 109.375,
      "v": 127
    },
    {
      "midi": 69,
      "hit": false,
      "t": 82000.00000000001,
      "d": 414.0625,
      "v": 103
    },
    {
      "midi": 60,
      "hit": false,
      "t": 82010.41666666667,
      "d": 28.645833333328483,
      "v": 49
    },
    {
      "midi": 33,
      "hit": false,
      "t": 82125,
      "d": 109.375,
      "v": 90
    },
    {
      "midi": 33,
      "hit": false,
      "t": 82250,
      "d": 91.14583333332848,
      "v": 127
    },
    {
      "midi": 33,
      "hit": false,
      "t": 82250,
      "d": 101.5625,
      "v": 101
    },
    {
      "midi": 33,
      "hit": false,
      "t": 82375,
      "d": 101.5625,
      "v": 64
    },
    {
      "midi": 31,
      "hit": false,
      "t": 82500,
      "d": 28.645833333328483,
      "v": 127
    },
    {
      "midi": 33,
      "hit": false,
      "t": 82500,
      "d": 67.70833333332848,
      "v": 127
    },
    {
      "midi": 72,
      "hit": false,
      "t": 82500.00000000001,
      "d": 335.9375,
      "v": 106
    },
    {
      "midi": 33,
      "hit": false,
      "t": 82625,
      "d": 10.416666666671517,
      "v": 90
    },
    {
      "midi": 33,
      "hit": false,
      "t": 82750,
      "d": 117.1875,
      "v": 127
    },
    {
      "midi": 33,
      "hit": false,
      "t": 82750,
      "d": 10.416666666671517,
      "v": 111
    },
    {
      "midi": 33,
      "hit": false,
      "t": 82875,
      "d": 101.5625,
      "v": 74
    },
    {
      "midi": 64,
      "hit": false,
      "t": 82875.00000000001,
      "d": 263.0208333333285,
      "v": 100
    },
    {
      "midi": 33,
      "hit": false,
      "t": 83000,
      "d": 98.95833333332848,
      "v": 127
    },
    {
      "midi": 33,
      "hit": false,
      "t": 83000,
      "d": 125,
      "v": 127
    },
    {
      "midi": 33,
      "hit": false,
      "t": 83125,
      "d": 125,
      "v": 90
    },
    {
      "midi": 33,
      "hit": false,
      "t": 83250,
      "d": 101.5625,
      "v": 127
    },
    {
      "midi": 33,
      "hit": false,
      "t": 83250,
      "d": 104.16666666667152,
      "v": 116
    },
    {
      "midi": 64,
      "hit": false,
      "t": 83250.00000000001,
      "d": 278.6458333333285,
      "v": 103
    },
    {
      "midi": 33,
      "hit": false,
      "t": 83375,
      "d": 104.16666666667152,
      "v": 79
    },
    {
      "midi": 33,
      "hit": false,
      "t": 83500,
      "d": 216.14583333332848,
      "v": 127
    },
    {
      "midi": 67,
      "hit": false,
      "t": 83500.00000000001,
      "d": 447.91666666665697,
      "v": 100
    },
    {
      "midi": 33,
      "hit": false,
      "t": 83625,
      "d": 109.375,
      "v": 90
    },
    {
      "midi": 31,
      "hit": false,
      "t": 83750,
      "d": 265.625,
      "v": 127
    },
    {
      "midi": 31,
      "hit": false,
      "t": 83875,
      "d": 106.77083333332848,
      "v": 81
    },
    {
      "midi": 50,
      "hit": false,
      "t": 83942.70833333333,
      "d": 1039.0625000000146,
      "v": 53
    },
    {
      "midi": 62,
      "hit": false,
      "t": 83945.31249999999,
      "d": 1015.625,
      "v": 81
    },
    {
      "midi": 62,
      "hit": false,
      "t": 83945.3125,
      "d": 976.5625,
      "v": 75
    },
    {
      "midi": 50,
      "hit": false,
      "t": 83947.91666666666,
      "d": 1059.895833333343,
      "v": 58
    },
    {
      "midi": 38,
      "hit": false,
      "t": 84000,
      "d": 132.8125,
      "v": 127
    },
    {
      "midi": 38,
      "hit": false,
      "t": 84000,
      "d": 117.1875,
      "v": 118
    },
    {
      "midi": 69,
      "hit": false,
      "t": 84000,
      "d": 463.5416666666715,
      "v": 106
    },
    {
      "midi": 38,
      "hit": false,
      "t": 84125,
      "d": 117.1875,
      "v": 81
    },
    {
      "midi": 38,
      "hit": false,
      "t": 84250,
      "d": 109.375,
      "v": 127
    },
    {
      "midi": 38,
      "hit": false,
      "t": 84250,
      "d": 114.58333333332848,
      "v": 118
    },
    {
      "midi": 38,
      "hit": false,
      "t": 84375,
      "d": 114.58333333332848,
      "v": 81
    },
    {
      "midi": 38,
      "hit": false,
      "t": 84500,
      "d": 111.97916666667152,
      "v": 127
    },
    {
      "midi": 38,
      "hit": false,
      "t": 84500,
      "d": 117.1875,
      "v": 118
    },
    {
      "midi": 72,
      "hit": false,
      "t": 84500,
      "d": 351.5625,
      "v": 90
    },
    {
      "midi": 38,
      "hit": false,
      "t": 84625,
      "d": 117.1875,
      "v": 81
    },
    {
      "midi": 38,
      "hit": false,
      "t": 84750,
      "d": 192.70833333332848,
      "v": 127
    },
    {
      "midi": 64,
      "hit": false,
      "t": 84750,
      "d": 268.2291666666715,
      "v": 100
    },
    {
      "midi": 38,
      "hit": false,
      "t": 84875,
      "d": 117.1875,
      "v": 87
    },
    {
      "midi": 64,
      "hit": false,
      "t": 84940.10416666667,
      "d": 1013.020833333343,
      "v": 70
    },
    {
      "midi": 59,
      "hit": false,
      "t": 84960.93749999999,
      "d": 968.75,
      "v": 81
    },
    {
      "midi": 52,
      "hit": false,
      "t": 84997.39583333333,
      "d": 789.0625,
      "v": 53
    },
    {
      "midi": 28,
      "hit": false,
      "t": 85000,
      "d": 156.25,
      "v": 127
    },
    {
      "midi": 28,
      "hit": false,
      "t": 85125,
      "d": 18.229166666671517,
      "v": 87
    },
    {
      "midi": 64,
      "hit": false,
      "t": 85125,
      "d": 286.4583333333285,
      "v": 103
    },
    {
      "midi": 28,
      "hit": false,
      "t": 85250,
      "d": 122.39583333332848,
      "v": 127
    },
    {
      "midi": 28,
      "hit": false,
      "t": 85250,
      "d": 18.229166666671517,
      "v": 113
    },
    {
      "midi": 28,
      "hit": false,
      "t": 85375,
      "d": 101.5625,
      "v": 76
    },
    {
      "midi": 28,
      "hit": false,
      "t": 85500,
      "d": 119.79166666667152,
      "v": 127
    },
    {
      "midi": 67,
      "hit": false,
      "t": 85500,
      "d": 429.6875,
      "v": 100
    },
    {
      "midi": 28,
      "hit": false,
      "t": 85625,
      "d": 2.6041666666715173,
      "v": 90
    },
    {
      "midi": 28,
      "hit": false,
      "t": 85750,
      "d": 257.8125,
      "v": 127
    },
    {
      "midi": 28,
      "hit": false,
      "t": 85750,
      "d": 2.6041666666715173,
      "v": 124
    },
    {
      "midi": 28,
      "hit": false,
      "t": 85875,
      "d": 138.02083333332848,
      "v": 87
    },
    {
      "midi": 57,
      "hit": false,
      "t": 85940.10416666666,
      "d": 2028.645833333343,
      "v": 75
    },
    {
      "midi": 60,
      "hit": false,
      "t": 85942.70833333334,
      "d": 2031.2500000000146,
      "v": 77
    },
    {
      "midi": 45,
      "hit": false,
      "t": 85973.95833333333,
      "d": 2028.645833333343,
      "v": 56
    },
    {
      "midi": 33,
      "hit": false,
      "t": 86000,
      "d": 127.60416666667152,
      "v": 127
    },
    {
      "midi": 69,
      "hit": false,
      "t": 86000,
      "d": 414.0625,
      "v": 103
    },
    {
      "midi": 33,
      "hit": false,
      "t": 86125,
      "d": 7.8125,
      "v": 90
    },
    {
      "midi": 33,
      "hit": false,
      "t": 86250,
      "d": 114.58333333332848,
      "v": 127
    },
    {
      "midi": 33,
      "hit": false,
      "t": 86250,
      "d": 7.8125,
      "v": 111
    },
    {
      "midi": 33,
      "hit": false,
      "t": 86375,
      "d": 98.95833333332848,
      "v": 74
    },
    {
      "midi": 33,
      "hit": false,
      "t": 86500,
      "d": 119.79166666667152,
      "v": 127
    },
    {
      "midi": 33,
      "hit": false,
      "t": 86500,
      "d": 119.79166666667152,
      "v": 127
    },
    {
      "midi": 72,
      "hit": false,
      "t": 86500,
      "d": 335.9375,
      "v": 106
    },
    {
      "midi": 33,
      "hit": false,
      "t": 86625,
      "d": 119.79166666667152,
      "v": 90
    },
    {
      "midi": 33,
      "hit": false,
      "t": 86750,
      "d": 98.95833333332848,
      "v": 127
    },
    {
      "midi": 33,
      "hit": false,
      "t": 86750,
      "d": 91.14583333332848,
      "v": 113
    },
    {
      "midi": 33,
      "hit": false,
      "t": 86875,
      "d": 91.14583333332848,
      "v": 76
    },
    {
      "midi": 64,
      "hit": false,
      "t": 86875,
      "d": 263.0208333333285,
      "v": 100
    },
    {
      "midi": 33,
      "hit": false,
      "t": 87000,
      "d": 125,
      "v": 127
    },
    {
      "midi": 33,
      "hit": false,
      "t": 87000,
      "d": 114.58333333332848,
      "v": 127
    },
    {
      "midi": 33,
      "hit": false,
      "t": 87125,
      "d": 114.58333333332848,
      "v": 90
    },
    {
      "midi": 33,
      "hit": false,
      "t": 87250,
      "d": 101.5625,
      "v": 127
    },
    {
      "midi": 33,
      "hit": false,
      "t": 87250,
      "d": 98.95833333332848,
      "v": 127
    },
    {
      "midi": 64,
      "hit": false,
      "t": 87250,
      "d": 278.6458333333285,
      "v": 103
    },
    {
      "midi": 33,
      "hit": false,
      "t": 87375,
      "d": 98.95833333332848,
      "v": 90
    },
    {
      "midi": 33,
      "hit": false,
      "t": 87500,
      "d": 216.14583333332848,
      "v": 127
    },
    {
      "midi": 67,
      "hit": false,
      "t": 87500,
      "d": 447.91666666665697,
      "v": 100
    },
    {
      "midi": 33,
      "hit": false,
      "t": 87625,
      "d": 106.77083333332848,
      "v": 90
    },
    {
      "midi": 31,
      "hit": false,
      "t": 87750,
      "d": 231.77083333332848,
      "v": 127
    },
    {
      "midi": 31,
      "hit": false,
      "t": 87875,
      "d": 111.97916666667152,
      "v": 76
    },
    {
      "midi": 50,
      "hit": false,
      "t": 87929.6875,
      "d": 1062.5000000000146,
      "v": 57
    },
    {
      "midi": 62,
      "hit": false,
      "t": 87937.50000000001,
      "d": 1010.4166666666715,
      "v": 77
    },
    {
      "midi": 62,
      "hit": false,
      "t": 87958.33333333333,
      "d": 1023.4375000000146,
      "v": 73
    },
    {
      "midi": 50,
      "hit": false,
      "t": 87963.54166666669,
      "d": 953.125,
      "v": 58
    },
    {
      "midi": 69,
      "hit": false,
      "t": 87999.99999999999,
      "d": 463.5416666666715,
      "v": 106
    },
    {
      "midi": 38,
      "hit": false,
      "t": 88000,
      "d": 119.79166666667152,
      "v": 127
    },
    {
      "midi": 38,
      "hit": false,
      "t": 88125,
      "d": 2.6041666666715173,
      "v": 84
    },
    {
      "midi": 38,
      "hit": false,
      "t": 88250,
      "d": 106.77083333332848,
      "v": 127
    },
    {
      "midi": 38,
      "hit": false,
      "t": 88250,
      "d": 2.6041666666715173,
      "v": 124
    },
    {
      "midi": 38,
      "hit": false,
      "t": 88375,
      "d": 98.95833333332848,
      "v": 87
    },
    {
      "midi": 72,
      "hit": false,
      "t": 88499.99999999999,
      "d": 351.5625,
      "v": 90
    },
    {
      "midi": 38,
      "hit": false,
      "t": 88500,
      "d": 117.1875,
      "v": 127
    },
    {
      "midi": 38,
      "hit": false,
      "t": 88625,
      "d": 2.6041666666715173,
      "v": 90
    },
    {
      "midi": 64,
      "hit": false,
      "t": 88749.99999999999,
      "d": 268.2291666666715,
      "v": 100
    },
    {
      "midi": 38,
      "hit": false,
      "t": 88750,
      "d": 226.5625,
      "v": 127
    },
    {
      "midi": 38,
      "hit": false,
      "t": 88750,
      "d": 2.6041666666715173,
      "v": 127
    },
    {
      "midi": 38,
      "hit": false,
      "t": 88875,
      "d": 125,
      "v": 90
    },
    {
      "midi": 64,
      "hit": false,
      "t": 88958.33333333336,
      "d": 1002.6041666666715,
      "v": 75
    },
    {
      "midi": 59,
      "hit": false,
      "t": 88971.35416666667,
      "d": 971.3541666666715,
      "v": 79
    },
    {
      "midi": 52,
      "hit": false,
      "t": 88981.77083333334,
      "d": 934.895833333343,
      "v": 61
    },
    {
      "midi": 28,
      "hit": false,
      "t": 89000,
      "d": 140.625,
      "v": 127
    },
    {
      "midi": 64,
      "hit": false,
      "t": 89124.99999999999,
      "d": 286.4583333333285,
      "v": 103
    },
    {
      "midi": 28,
      "hit": false,
      "t": 89125,
      "d": 15.625,
      "v": 90
    },
    {
      "midi": 28,
      "hit": false,
      "t": 89250,
      "d": 106.77083333332848,
      "v": 127
    },
    {
      "midi": 28,
      "hit": false,
      "t": 89250,
      "d": 15.625,
      "v": 118
    },
    {
      "midi": 28,
      "hit": false,
      "t": 89375,
      "d": 98.95833333332848,
      "v": 81
    },
    {
      "midi": 67,
      "hit": false,
      "t": 89499.99999999999,
      "d": 429.6875,
      "v": 100
    },
    {
      "midi": 28,
      "hit": false,
      "t": 89500,
      "d": 117.1875,
      "v": 127
    },
    {
      "midi": 28,
      "hit": false,
      "t": 89500,
      "d": 117.1875,
      "v": 127
    },
    {
      "midi": 28,
      "hit": false,
      "t": 89625,
      "d": 117.1875,
      "v": 90
    },
    {
      "midi": 28,
      "hit": false,
      "t": 89750,
      "d": 164.0625,
      "v": 127
    },
    {
      "midi": 28,
      "hit": false,
      "t": 89875,
      "d": 70.3125,
      "v": 90
    },
    {
      "midi": 69,
      "hit": false,
      "t": 89999.99999999999,
      "d": 414.0625,
      "v": 103
    },
    {
      "midi": 33,
      "hit": false,
      "t": 90000,
      "d": 114.58333333332848,
      "v": 127
    },
    {
      "midi": 33,
      "hit": false,
      "t": 90000,
      "d": 109.375,
      "v": 127
    },
    {
      "midi": 48,
      "hit": false,
      "t": 90000.00000000001,
      "d": 1929.6875,
      "v": 47
    },
    {
      "midi": 45,
      "hit": false,
      "t": 90000.00000000001,
      "d": 2020.833333333343,
      "v": 44
    },
    {
      "midi": 57,
      "hit": false,
      "t": 90000.00000000001,
      "d": 1973.9583333333285,
      "v": 88
    },
    {
      "midi": 60,
      "hit": false,
      "t": 90010.4166666667,
      "d": 28.645833333328483,
      "v": 49
    },
    {
      "midi": 33,
      "hit": false,
      "t": 90125,
      "d": 109.375,
      "v": 90
    },
    {
      "midi": 33,
      "hit": false,
      "t": 90250,
      "d": 91.14583333332848,
      "v": 127
    },
    {
      "midi": 33,
      "hit": false,
      "t": 90250,
      "d": 101.5625,
      "v": 101
    },
    {
      "midi": 33,
      "hit": false,
      "t": 90375,
      "d": 101.5625,
      "v": 64
    },
    {
      "midi": 72,
      "hit": false,
      "t": 90499.99999999999,
      "d": 335.9375,
      "v": 106
    },
    {
      "midi": 31,
      "hit": false,
      "t": 90500,
      "d": 28.645833333328483,
      "v": 127
    },
    {
      "midi": 33,
      "hit": false,
      "t": 90500,
      "d": 67.70833333332848,
      "v": 127
    },
    {
      "midi": 33,
      "hit": false,
      "t": 90625,
      "d": 10.416666666671517,
      "v": 90
    },
    {
      "midi": 33,
      "hit": false,
      "t": 90750,
      "d": 117.1875,
      "v": 127
    },
    {
      "midi": 33,
      "hit": false,
      "t": 90750,
      "d": 10.416666666671517,
      "v": 111
    },
    {
      "midi": 64,
      "hit": false,
      "t": 90874.99999999999,
      "d": 263.0208333333285,
      "v": 100
    },
    {
      "midi": 33,
      "hit": false,
      "t": 90875,
      "d": 101.5625,
      "v": 74
    },
    {
      "midi": 33,
      "hit": false,
      "t": 91000,
      "d": 98.95833333332848,
      "v": 127
    },
    {
      "midi": 33,
      "hit": false,
      "t": 91000,
      "d": 125,
      "v": 127
    },
    {
      "midi": 33,
      "hit": false,
      "t": 91125,
      "d": 125,
      "v": 90
    },
    {
      "midi": 64,
      "hit": false,
      "t": 91249.99999999999,
      "d": 278.6458333333285,
      "v": 103
    },
    {
      "midi": 33,
      "hit": false,
      "t": 91250,
      "d": 101.5625,
      "v": 127
    },
    {
      "midi": 33,
      "hit": false,
      "t": 91250,
      "d": 104.16666666667152,
      "v": 116
    },
    {
      "midi": 33,
      "hit": false,
      "t": 91375,
      "d": 104.16666666667152,
      "v": 79
    },
    {
      "midi": 67,
      "hit": false,
      "t": 91499.99999999999,
      "d": 447.91666666665697,
      "v": 100
    },
    {
      "midi": 33,
      "hit": false,
      "t": 91500,
      "d": 216.14583333332848,
      "v": 127
    },
    {
      "midi": 33,
      "hit": false,
      "t": 91625,
      "d": 109.375,
      "v": 90
    },
    {
      "midi": 31,
      "hit": false,
      "t": 91750,
      "d": 265.625,
      "v": 127
    },
    {
      "midi": 31,
      "hit": false,
      "t": 91875,
      "d": 106.77083333332848,
      "v": 81
    },
    {
      "midi": 50,
      "hit": false,
      "t": 91942.70833333336,
      "d": 1039.0625000000146,
      "v": 53
    },
    {
      "midi": 62,
      "hit": false,
      "t": 91945.31250000001,
      "d": 1015.625,
      "v": 81
    },
    {
      "midi": 62,
      "hit": false,
      "t": 91945.31250000003,
      "d": 976.5625,
      "v": 75
    },
    {
      "midi": 50,
      "hit": false,
      "t": 91947.91666666669,
      "d": 1059.895833333343,
      "v": 58
    },
    {
      "midi": 69,
      "hit": false,
      "t": 91999.99999999997,
      "d": 463.5416666666715,
      "v": 106
    },
    {
      "midi": 38,
      "hit": false,
      "t": 92000,
      "d": 132.8125,
      "v": 127
    },
    {
      "midi": 38,
      "hit": false,
      "t": 92000,
      "d": 117.1875,
      "v": 118
    },
    {
      "midi": 38,
      "hit": false,
      "t": 92125,
      "d": 117.1875,
      "v": 81
    },
    {
      "midi": 38,
      "hit": false,
      "t": 92250,
      "d": 109.375,
      "v": 127
    },
    {
      "midi": 38,
      "hit": false,
      "t": 92250,
      "d": 114.58333333332848,
      "v": 118
    },
    {
      "midi": 38,
      "hit": false,
      "t": 92375,
      "d": 114.58333333332848,
      "v": 81
    },
    {
      "midi": 72,
      "hit": false,
      "t": 92499.99999999997,
      "d": 351.5625,
      "v": 90
    },
    {
      "midi": 38,
      "hit": false,
      "t": 92500,
      "d": 111.97916666667152,
      "v": 127
    },
    {
      "midi": 38,
      "hit": false,
      "t": 92500,
      "d": 117.1875,
      "v": 118
    },
    {
      "midi": 38,
      "hit": false,
      "t": 92625,
      "d": 117.1875,
      "v": 81
    },
    {
      "midi": 64,
      "hit": false,
      "t": 92749.99999999997,
      "d": 268.2291666666715,
      "v": 100
    },
    {
      "midi": 38,
      "hit": false,
      "t": 92750,
      "d": 192.70833333332848,
      "v": 127
    },
    {
      "midi": 38,
      "hit": false,
      "t": 92875,
      "d": 117.1875,
      "v": 87
    },
    {
      "midi": 64,
      "hit": false,
      "t": 92940.1041666667,
      "d": 1013.020833333343,
      "v": 70
    },
    {
      "midi": 59,
      "hit": false,
      "t": 92960.93750000001,
      "d": 968.75,
      "v": 81
    },
    {
      "midi": 52,
      "hit": false,
      "t": 92997.39583333336,
      "d": 789.0625,
      "v": 53
    },
    {
      "midi": 28,
      "hit": false,
      "t": 93000,
      "d": 156.25,
      "v": 127
    },
    {
      "midi": 64,
      "hit": false,
      "t": 93124.99999999997,
      "d": 286.4583333333285,
      "v": 103
    },
    {
      "midi": 28,
      "hit": false,
      "t": 93125,
      "d": 18.229166666671517,
      "v": 87
    },
    {
      "midi": 28,
      "hit": false,
      "t": 93250,
      "d": 122.39583333332848,
      "v": 127
    },
    {
      "midi": 28,
      "hit": false,
      "t": 93250,
      "d": 18.229166666671517,
      "v": 113
    },
    {
      "midi": 28,
      "hit": false,
      "t": 93375,
      "d": 101.5625,
      "v": 76
    },
    {
      "midi": 67,
      "hit": false,
      "t": 93499.99999999997,
      "d": 429.6875,
      "v": 100
    },
    {
      "midi": 28,
      "hit": false,
      "t": 93500,
      "d": 119.79166666667152,
      "v": 127
    },
    {
      "midi": 28,
      "hit": false,
      "t": 93625,
      "d": 2.6041666666715173,
      "v": 90
    },
    {
      "midi": 28,
      "hit": false,
      "t": 93750,
      "d": 257.8125,
      "v": 127
    },
    {
      "midi": 28,
      "hit": false,
      "t": 93750,
      "d": 2.6041666666715173,
      "v": 124
    },
    {
      "midi": 28,
      "hit": false,
      "t": 93875,
      "d": 138.02083333332848,
      "v": 87
    },
    {
      "midi": 57,
      "hit": false,
      "t": 93940.10416666669,
      "d": 2028.645833333343,
      "v": 75
    },
    {
      "midi": 60,
      "hit": false,
      "t": 93942.70833333337,
      "d": 2031.2500000000146,
      "v": 77
    },
    {
      "midi": 45,
      "hit": false,
      "t": 93973.95833333336,
      "d": 2028.645833333343,
      "v": 56
    },
    {
      "midi": 69,
      "hit": false,
      "t": 93999.99999999997,
      "d": 414.0625,
      "v": 103
    },
    {
      "midi": 33,
      "hit": false,
      "t": 94000,
      "d": 127.60416666667152,
      "v": 127
    },
    {
      "midi": 33,
      "hit": false,
      "t": 94125,
      "d": 7.8125,
      "v": 90
    },
    {
      "midi": 33,
      "hit": false,
      "t": 94250,
      "d": 114.58333333332848,
      "v": 127
    },
    {
      "midi": 33,
      "hit": false,
      "t": 94250,
      "d": 7.8125,
      "v": 111
    },
    {
      "midi": 33,
      "hit": false,
      "t": 94375,
      "d": 98.95833333332848,
      "v": 74
    },
    {
      "midi": 72,
      "hit": false,
      "t": 94499.99999999997,
      "d": 335.9375,
      "v": 106
    },
    {
      "midi": 33,
      "hit": false,
      "t": 94500,
      "d": 119.79166666667152,
      "v": 127
    },
    {
      "midi": 33,
      "hit": false,
      "t": 94500,
      "d": 119.79166666667152,
      "v": 127
    },
    {
      "midi": 33,
      "hit": false,
      "t": 94625,
      "d": 119.79166666667152,
      "v": 90
    },
    {
      "midi": 33,
      "hit": false,
      "t": 94750,
      "d": 98.95833333332848,
      "v": 127
    },
    {
      "midi": 33,
      "hit": false,
      "t": 94750,
      "d": 91.14583333332848,
      "v": 113
    },
    {
      "midi": 64,
      "hit": false,
      "t": 94874.99999999997,
      "d": 263.0208333333285,
      "v": 100
    },
    {
      "midi": 33,
      "hit": false,
      "t": 94875,
      "d": 91.14583333332848,
      "v": 76
    },
    {
      "midi": 33,
      "hit": false,
      "t": 95000,
      "d": 125,
      "v": 127
    },
    {
      "midi": 33,
      "hit": false,
      "t": 95000,
      "d": 114.58333333332848,
      "v": 127
    },
    {
      "midi": 33,
      "hit": false,
      "t": 95125,
      "d": 114.58333333332848,
      "v": 90
    },
    {
      "midi": 64,
      "hit": false,
      "t": 95249.99999999997,
      "d": 278.6458333333285,
      "v": 103
    },
    {
      "midi": 33,
      "hit": false,
      "t": 95250,
      "d": 101.5625,
      "v": 127
    },
    {
      "midi": 33,
      "hit": false,
      "t": 95250,
      "d": 98.95833333332848,
      "v": 127
    },
    {
      "midi": 33,
      "hit": false,
      "t": 95375,
      "d": 98.95833333332848,
      "v": 90
    },
    {
      "midi": 67,
      "hit": false,
      "t": 95499.99999999997,
      "d": 447.91666666665697,
      "v": 100
    },
    {
      "midi": 33,
      "hit": false,
      "t": 95500,
      "d": 216.14583333332848,
      "v": 127
    },
    {
      "midi": 33,
      "hit": false,
      "t": 95625,
      "d": 106.77083333332848,
      "v": 90
    },
    {
      "midi": 31,
      "hit": false,
      "t": 95750,
      "d": 231.77083333332848,
      "v": 127
    },
    {
      "midi": 31,
      "hit": false,
      "t": 95875,
      "d": 111.97916666667152,
      "v": 76
    },
    {
      "midi": 50,
      "hit": false,
      "t": 95929.68750000003,
      "d": 1062.5000000000146,
      "v": 57
    },
    {
      "midi": 62,
      "hit": false,
      "t": 95937.50000000004,
      "d": 1010.4166666666715,
      "v": 77
    },
    {
      "midi": 62,
      "hit": false,
      "t": 95958.33333333336,
      "d": 1023.4375000000146,
      "v": 73
    },
    {
      "midi": 50,
      "hit": false,
      "t": 95963.54166666672,
      "d": 953.125,
      "v": 58
    },
    {
      "midi": 69,
      "hit": false,
      "t": 95999.99999999996,
      "d": 463.5416666666715,
      "v": 106
    },
    {
      "midi": 38,
      "hit": false,
      "t": 96000,
      "d": 119.79166666667152,
      "v": 127
    },
    {
      "midi": 38,
      "hit": false,
      "t": 96125,
      "d": 2.6041666666715173,
      "v": 84
    },
    {
      "midi": 38,
      "hit": false,
      "t": 96250,
      "d": 106.77083333332848,
      "v": 127
    },
    {
      "midi": 38,
      "hit": false,
      "t": 96250,
      "d": 2.6041666666715173,
      "v": 124
    },
    {
      "midi": 38,
      "hit": false,
      "t": 96375,
      "d": 98.95833333332848,
      "v": 87
    },
    {
      "midi": 72,
      "hit": false,
      "t": 96499.99999999996,
      "d": 351.5625,
      "v": 90
    },
    {
      "midi": 38,
      "hit": false,
      "t": 96500,
      "d": 117.1875,
      "v": 127
    },
    {
      "midi": 38,
      "hit": false,
      "t": 96625,
      "d": 2.6041666666715173,
      "v": 90
    },
    {
      "midi": 64,
      "hit": false,
      "t": 96749.99999999996,
      "d": 268.2291666666715,
      "v": 100
    },
    {
      "midi": 38,
      "hit": false,
      "t": 96750,
      "d": 226.5625,
      "v": 127
    },
    {
      "midi": 38,
      "hit": false,
      "t": 96750,
      "d": 2.6041666666715173,
      "v": 127
    },
    {
      "midi": 38,
      "hit": false,
      "t": 96875,
      "d": 125,
      "v": 90
    },
    {
      "midi": 64,
      "hit": false,
      "t": 96958.33333333339,
      "d": 1002.6041666666715,
      "v": 75
    },
    {
      "midi": 59,
      "hit": false,
      "t": 96971.3541666667,
      "d": 971.3541666666715,
      "v": 79
    },
    {
      "midi": 52,
      "hit": false,
      "t": 96981.77083333337,
      "d": 934.895833333343,
      "v": 61
    },
    {
      "midi": 28,
      "hit": false,
      "t": 97000,
      "d": 140.625,
      "v": 127
    },
    {
      "midi": 64,
      "hit": false,
      "t": 97124.99999999996,
      "d": 286.4583333333285,
      "v": 103
    },
    {
      "midi": 28,
      "hit": false,
      "t": 97125,
      "d": 15.625,
      "v": 90
    },
    {
      "midi": 28,
      "hit": false,
      "t": 97250,
      "d": 106.77083333332848,
      "v": 127
    },
    {
      "midi": 28,
      "hit": false,
      "t": 97250,
      "d": 15.625,
      "v": 118
    },
    {
      "midi": 28,
      "hit": false,
      "t": 97375,
      "d": 98.95833333332848,
      "v": 81
    },
    {
      "midi": 67,
      "hit": false,
      "t": 97499.99999999996,
      "d": 429.6875,
      "v": 100
    },
    {
      "midi": 28,
      "hit": false,
      "t": 97500,
      "d": 117.1875,
      "v": 127
    },
    {
      "midi": 28,
      "hit": false,
      "t": 97500,
      "d": 117.1875,
      "v": 127
    },
    {
      "midi": 28,
      "hit": false,
      "t": 97625,
      "d": 117.1875,
      "v": 90
    },
    {
      "midi": 28,
      "hit": false,
      "t": 97750,
      "d": 164.0625,
      "v": 127
    },
    {
      "midi": 28,
      "hit": false,
      "t": 97875,
      "d": 70.3125,
      "v": 90
    },
    {
      "midi": 69,
      "hit": false,
      "t": 97999.99999999999,
      "d": 1971.3541666666715,
      "v": 76
    },
    {
      "midi": 29,
      "hit": false,
      "t": 98000,
      "d": 1851.5625,
      "v": 127
    },
    {
      "midi": 69,
      "hit": false,
      "t": 98000,
      "d": 1885.4166666666715,
      "v": 59
    },
    {
      "midi": 72,
      "hit": false,
      "t": 98000,
      "d": 1890.625,
      "v": 65
    },
    {
      "midi": 60,
      "hit": false,
      "t": 98000.00000000004,
      "d": 1981.7708333333285,
      "v": 86
    },
    {
      "midi": 69,
      "hit": false,
      "t": 98000.00000000006,
      "d": 1942.7083333333285,
      "v": 81
    },
    {
      "midi": 71,
      "hit": false,
      "t": 99999.99999999999,
      "d": 2000,
      "v": 76
    },
    {
      "midi": 28,
      "hit": false,
      "t": 100000,
      "d": 1825.5208333333285,
      "v": 127
    },
    {
      "midi": 69,
      "hit": false,
      "t": 100000,
      "d": 1895.8333333333285,
      "v": 48
    },
    {
      "midi": 74,
      "hit": false,
      "t": 100000,
      "d": 1906.25,
      "v": 61
    },
    {
      "midi": 59,
      "hit": false,
      "t": 100000.00000000004,
      "d": 2049.4791666666715,
      "v": 68
    },
    {
      "midi": 67,
      "hit": false,
      "t": 100000.00000000006,
      "d": 1971.3541666666715,
      "v": 70
    },
    {
      "midi": 74,
      "hit": false,
      "t": 101999.99999999999,
      "d": 2049.4791666666715,
      "v": 68
    },
    {
      "midi": 30,
      "hit": false,
      "t": 102000,
      "d": 1161.4583333333285,
      "v": 127
    },
    {
      "midi": 76,
      "hit": false,
      "t": 102000,
      "d": 1906.25,
      "v": 69
    },
    {
      "midi": 69,
      "hit": false,
      "t": 102000,
      "d": 1916.6666666666715,
      "v": 65
    },
    {
      "midi": 57,
      "hit": false,
      "t": 102000.00000000004,
      "d": 3986.9791666666715,
      "v": 68
    },
    {
      "midi": 64,
      "hit": false,
      "t": 102000.00000000006,
      "d": 2026.0416666666715,
      "v": 72
    },
    {
      "midi": 30,
      "hit": false,
      "t": 103250,
      "d": 265.625,
      "v": 127
    },
    {
      "midi": 42,
      "hit": false,
      "t": 103500,
      "d": 411.4583333333285,
      "v": 127
    },
    {
      "midi": 30,
      "hit": false,
      "t": 103750,
      "d": 265.625,
      "v": 127
    },
    {
      "midi": 72,
      "hit": false,
      "t": 103999.99999999999,
      "d": 1953.125,
      "v": 56
    },
    {
      "midi": 29,
      "hit": false,
      "t": 104000,
      "d": 1575.5208333333285,
      "v": 127
    },
    {
      "midi": 69,
      "hit": false,
      "t": 104000,
      "d": 1809.8958333333285,
      "v": 51
    },
    {
      "midi": 74,
      "hit": false,
      "t": 104000,
      "d": 1828.125,
      "v": 57
    },
    {
      "midi": 62,
      "hit": false,
      "t": 104000.00000000006,
      "d": 2041.6666666666715,
      "v": 74
    },
    {
      "midi": 69,
      "hit": false,
      "t": 105999.99999999999,
      "d": 3885.416666666657,
      "v": 78
    },
    {
      "midi": 33,
      "hit": false,
      "t": 106000,
      "d": 1627.6041666666715,
      "v": 127
    },
    {
      "midi": 69,
      "hit": false,
      "t": 106000,
      "d": 1888.0208333333285,
      "v": 69
    },
    {
      "midi": 72,
      "hit": false,
      "t": 106000,
      "d": 1898.4375,
      "v": 74
    },
    {
      "midi": 60,
      "hit": false,
      "t": 106000.00000000004,
      "d": 1971.3541666666715,
      "v": 89
    },
    {
      "midi": 69,
      "hit": false,
      "t": 106000.00000000006,
      "d": 2044.2708333333285,
      "v": 66
    },
    {
      "midi": 33,
      "hit": false,
      "t": 107750,
      "d": 312.5,
      "v": 127
    },
    {
      "midi": 74,
      "hit": false,
      "t": 107999.99999999999,
      "d": 1067.7083333333285,
      "v": 74
    },
    {
      "midi": 38,
      "hit": false,
      "t": 108000,
      "d": 950.5208333333285,
      "v": 127
    },
    {
      "midi": 74,
      "hit": false,
      "t": 108000,
      "d": 815.1041666666715,
      "v": 74
    },
    {
      "midi": 69,
      "hit": false,
      "t": 108000,
      "d": 835.9375,
      "v": 59
    },
    {
      "midi": 62,
      "hit": false,
      "t": 108000.00000000004,
      "d": 989.5833333333285,
      "v": 72
    },
    {
      "midi": 62,
      "hit": false,
      "t": 108000.00000000006,
      "d": 1041.6666666666715,
      "v": 72
    },
    {
      "midi": 76,
      "hit": false,
      "t": 108999.99999999999,
      "d": 994.791666666657,
      "v": 62
    },
    {
      "midi": 40,
      "hit": false,
      "t": 109000,
      "d": 1026.0416666666715,
      "v": 127
    },
    {
      "midi": 69,
      "hit": false,
      "t": 109000,
      "d": 875,
      "v": 50
    },
    {
      "midi": 76,
      "hit": false,
      "t": 109000,
      "d": 885.4166666666715,
      "v": 69
    },
    {
      "midi": 64,
      "hit": false,
      "t": 109000.00000000004,
      "d": 934.8958333333285,
      "v": 72
    },
    {
      "midi": 64,
      "hit": false,
      "t": 109000.00000000006,
      "d": 1033.8541666666715,
      "v": 72
    },
    {
      "midi": 69,
      "hit": false,
      "t": 109999.99999999997,
      "d": 6020.8333333333285,
      "v": 81
    },
    {
      "midi": 33,
      "hit": false,
      "t": 110000,
      "d": 1596.3541666666715,
      "v": 127
    },
    {
      "midi": 72,
      "hit": false,
      "t": 110000,
      "d": 1776.0416666666715,
      "v": 72
    },
    {
      "midi": 69,
      "hit": false,
      "t": 110000,
      "d": 1786.458333333343,
      "v": 61
    },
    {
      "midi": 60,
      "hit": false,
      "t": 110000.00000000004,
      "d": 1997.3958333333285,
      "v": 76
    },
    {
      "midi": 69,
      "hit": false,
      "t": 110000.00000000006,
      "d": 2018.2291666666715,
      "v": 78
    },
    {
      "midi": 33,
      "hit": false,
      "t": 111750,
      "d": 263.0208333333285,
      "v": 127
    },
    {
      "midi": 74,
      "hit": false,
      "t": 111999.99999999997,
      "d": 2062.5,
      "v": 66
    },
    {
      "midi": 38,
      "hit": false,
      "t": 112000,
      "d": 1877.604166666657,
      "v": 127
    },
    {
      "midi": 74,
      "hit": false,
      "t": 112000.00000000001,
      "d": 1854.1666666666715,
      "v": 77
    },
    {
      "midi": 69,
      "hit": false,
      "t": 112000.00000000001,
      "d": 1872.395833333343,
      "v": 74
    },
    {
      "midi": 62,
      "hit": false,
      "t": 112000.00000000004,
      "d": 1919.2708333333285,
      "v": 65
    },
    {
      "midi": 57,
      "hit": false,
      "t": 112000.00000000004,
      "d": 1953.125,
      "v": 68
    },
    {
      "midi": 62,
      "hit": false,
      "t": 112000.00000000006,
      "d": 2023.4375,
      "v": 76
    },
    {
      "midi": 76,
      "hit": false,
      "t": 113999.99999999997,
      "d": 2015.625,
      "v": 60
    },
    {
      "midi": 40,
      "hit": false,
      "t": 113999.99999999999,
      "d": 1820.3125,
      "v": 127
    },
    {
      "midi": 76,
      "hit": false,
      "t": 114000.00000000003,
      "d": 1973.9583333333285,
      "v": 69
    },
    {
      "midi": 69,
      "hit": false,
      "t": 114000.00000000003,
      "d": 1984.375,
      "v": 65
    },
    {
      "midi": 59,
      "hit": false,
      "t": 114000.00000000004,
      "d": 2013.0208333333285,
      "v": 66
    },
    {
      "midi": 64,
      "hit": false,
      "t": 114000.00000000004,
      "d": 2033.854166666657,
      "v": 59
    },
    {
      "midi": 64,
      "hit": false,
      "t": 114000.00000000006,
      "d": 1890.625,
      "v": 72
    },
    {
      "midi": 76,
      "hit": false,
      "t": 114236.97916666667,
      "d": 91.14583333332848,
      "v": 95
    },
    {
      "midi": 88,
      "hit": false,
      "t": 114236.97916666672,
      "d": 91.14583333332848,
      "v": 95
    },
    {
      "midi": 74,
      "hit": false,
      "t": 114760.41666666667,
      "d": 83.33333333332848,
      "v": 122
    },
    {
      "midi": 86,
      "hit": false,
      "t": 114760.41666666672,
      "d": 83.33333333332848,
      "v": 122
    },
    {
      "midi": 76,
      "hit": false,
      "t": 115247.39583333333,
      "d": 80.72916666667152,
      "v": 117
    },
    {
      "midi": 88,
      "hit": false,
      "t": 115247.39583333337,
      "d": 80.72916666667152,
      "v": 117
    },
    {
      "midi": 79,
      "hit": false,
      "t": 115744.79166666667,
      "d": 93.75,
      "v": 122
    },
    {
      "midi": 91,
      "hit": false,
      "t": 115744.79166666672,
      "d": 93.75,
      "v": 122
    },
    {
      "midi": 33,
      "hit": false,
      "t": 115999.99999999999,
      "d": 33.85416666667152,
      "v": 127
    },
    {
      "midi": 33,
      "hit": false,
      "t": 116000,
      "d": 88.54166666667152,
      "v": 117
    },
    {
      "midi": 81,
      "hit": false,
      "t": 116000,
      "d": 122.39583333332848,
      "v": 122
    },
    {
      "midi": 93,
      "hit": false,
      "t": 116000.00000000004,
      "d": 122.39583333332848,
      "v": 122
    },
    {
      "midi": 33,
      "hit": false,
      "t": 116124.99999999999,
      "d": 67.70833333332848,
      "v": 127
    },
    {
      "midi": 33,
      "hit": false,
      "t": 116125,
      "d": 229.16666666667152,
      "v": 104
    },
    {
      "midi": 33,
      "hit": false,
      "t": 116249.99999999999,
      "d": 114.58333333332848,
      "v": 127
    },
    {
      "midi": 33,
      "hit": false,
      "t": 116499.99999999999,
      "d": 195.3125,
      "v": 127
    },
    {
      "midi": 33,
      "hit": false,
      "t": 116500,
      "d": 130.20833333332848,
      "v": 127
    },
    {
      "midi": 33,
      "hit": false,
      "t": 116749.99999999999,
      "d": 72.91666666667152,
      "v": 127
    },
    {
      "midi": 33,
      "hit": false,
      "t": 116750,
      "d": 59.89583333332848,
      "v": 104
    },
    {
      "midi": 33,
      "hit": false,
      "t": 116874.99999999999,
      "d": 130.20833333332848,
      "v": 127
    },
    {
      "midi": 33,
      "hit": false,
      "t": 116875,
      "d": 98.95833333332848,
      "v": 109
    },
    {
      "midi": 33,
      "hit": false,
      "t": 117124.99999999999,
      "d": 96.35416666667152,
      "v": 127
    },
    {
      "midi": 33,
      "hit": false,
      "t": 117125,
      "d": 49.47916666667152,
      "v": 91
    },
    {
      "midi": 33,
      "hit": false,
      "t": 117374.99999999999,
      "d": 31.25,
      "v": 127
    },
    {
      "midi": 33,
      "hit": false,
      "t": 117375,
      "d": 59.89583333332848,
      "v": 111
    },
    {
      "midi": 33,
      "hit": false,
      "t": 117499.99999999999,
      "d": 236.97916666667152,
      "v": 127
    },
    {
      "midi": 33,
      "hit": false,
      "t": 117500,
      "d": 125,
      "v": 120
    },
    {
      "midi": 45,
      "hit": false,
      "t": 117749.99999999999,
      "d": 260.4166666666715,
      "v": 127
    },
    {
      "midi": 45,
      "hit": false,
      "t": 117750,
      "d": 244.79166666667152,
      "v": 127
    },
    {
      "midi": 79,
      "hit": false,
      "t": 117750,
      "d": 75.52083333332848,
      "v": 122
    },
    {
      "midi": 91,
      "hit": false,
      "t": 117750.00000000004,
      "d": 75.52083333332848,
      "v": 122
    },
    {
      "midi": 33,
      "hit": false,
      "t": 117999.99999999999,
      "d": 65.10416666667152,
      "v": 127
    },
    {
      "midi": 33,
      "hit": false,
      "t": 118000,
      "d": 75.52083333332848,
      "v": 106
    },
    {
      "midi": 81,
      "hit": false,
      "t": 118000,
      "d": 91.14583333332848,
      "v": 122
    },
    {
      "midi": 93,
      "hit": false,
      "t": 118000.00000000004,
      "d": 91.14583333332848,
      "v": 122
    },
    {
      "midi": 33,
      "hit": false,
      "t": 118124.99999999999,
      "d": 229.16666666667152,
      "v": 127
    },
    {
      "midi": 33,
      "hit": false,
      "t": 118125,
      "d": 88.54166666667152,
      "v": 114
    },
    {
      "midi": 33,
      "hit": false,
      "t": 118250,
      "d": 91.14583333332848,
      "v": 77
    },
    {
      "midi": 33,
      "hit": false,
      "t": 118499.99999999999,
      "d": 132.8125,
      "v": 127
    },
    {
      "midi": 33,
      "hit": false,
      "t": 118500,
      "d": 65.10416666667152,
      "v": 117
    },
    {
      "midi": 33,
      "hit": false,
      "t": 118749.99999999999,
      "d": 59.89583333332848,
      "v": 127
    },
    {
      "midi": 33,
      "hit": false,
      "t": 118750,
      "d": 33.85416666667152,
      "v": 85
    },
    {
      "midi": 33,
      "hit": false,
      "t": 118874.99999999999,
      "d": 98.95833333332848,
      "v": 127
    },
    {
      "midi": 33,
      "hit": false,
      "t": 118875,
      "d": 98.95833333332848,
      "v": 109
    },
    {
      "midi": 33,
      "hit": false,
      "t": 119124.99999999999,
      "d": 80.72916666667152,
      "v": 127
    },
    {
      "midi": 33,
      "hit": false,
      "t": 119125,
      "d": 98.95833333332848,
      "v": 111
    },
    {
      "midi": 33,
      "hit": false,
      "t": 119374.99999999999,
      "d": 49.47916666667152,
      "v": 127
    },
    {
      "midi": 33,
      "hit": false,
      "t": 119375,
      "d": 33.85416666667152,
      "v": 81
    },
    {
      "midi": 33,
      "hit": false,
      "t": 119499.99999999999,
      "d": 210.9375,
      "v": 127
    },
    {
      "midi": 33,
      "hit": false,
      "t": 119500,
      "d": 221.35416666667152,
      "v": 117
    },
    {
      "midi": 45,
      "hit": false,
      "t": 119749.99999999999,
      "d": 268.2291666666715,
      "v": 127
    },
    {
      "midi": 45,
      "hit": false,
      "t": 119750,
      "d": 234.375,
      "v": 123
    },
    {
      "midi": 79,
      "hit": false,
      "t": 119750,
      "d": 83.33333333332848,
      "v": 122
    },
    {
      "midi": 91,
      "hit": false,
      "t": 119750.00000000004,
      "d": 83.33333333332848,
      "v": 122
    },
    {
      "midi": 33,
      "hit": false,
      "t": 119999.99999999999,
      "d": 59.895833333343035,
      "v": 127
    },
    {
      "midi": 33,
      "hit": false,
      "t": 120000,
      "d": 33.85416666667152,
      "v": 98
    },
    {
      "midi": 81,
      "hit": false,
      "t": 120000,
      "d": 98.95833333332848,
      "v": 122
    },
    {
      "midi": 93,
      "hit": false,
      "t": 120000.00000000004,
      "d": 98.95833333332848,
      "v": 122
    },
    {
      "midi": 33,
      "hit": false,
      "t": 120125,
      "d": 226.5625,
      "v": 127
    },
    {
      "midi": 33,
      "hit": false,
      "t": 120125,
      "d": 65.10416666667152,
      "v": 106
    },
    {
      "midi": 33,
      "hit": false,
      "t": 120250,
      "d": 98.95833333332848,
      "v": 120
    },
    {
      "midi": 33,
      "hit": false,
      "t": 120500,
      "d": 132.8125,
      "v": 127
    },
    {
      "midi": 33,
      "hit": false,
      "t": 120500,
      "d": 156.25,
      "v": 127
    },
    {
      "midi": 33,
      "hit": false,
      "t": 120750,
      "d": 59.89583333332848,
      "v": 127
    },
    {
      "midi": 33,
      "hit": false,
      "t": 120750,
      "d": 57.29166666667152,
      "v": 104
    },
    {
      "midi": 33,
      "hit": false,
      "t": 120875,
      "d": 114.58333333332848,
      "v": 127
    },
    {
      "midi": 33,
      "hit": false,
      "t": 120875,
      "d": 91.14583333332848,
      "v": 106
    },
    {
      "midi": 33,
      "hit": false,
      "t": 121125,
      "d": 91.14583333332848,
      "v": 127
    },
    {
      "midi": 33,
      "hit": false,
      "t": 121125,
      "d": 83.33333333332848,
      "v": 120
    },
    {
      "midi": 33,
      "hit": false,
      "t": 121375,
      "d": 49.47916666667152,
      "v": 127
    },
    {
      "midi": 33,
      "hit": false,
      "t": 121375,
      "d": 41.66666666667152,
      "v": 93
    },
    {
      "midi": 33,
      "hit": false,
      "t": 121500,
      "d": 195.3125,
      "v": 127
    },
    {
      "midi": 33,
      "hit": false,
      "t": 121500,
      "d": 229.16666666667152,
      "v": 120
    },
    {
      "midi": 45,
      "hit": false,
      "t": 121750,
      "d": 260.4166666666715,
      "v": 127
    },
    {
      "midi": 45,
      "hit": false,
      "t": 121750,
      "d": 234.375,
      "v": 123
    },
    {
      "midi": 79,
      "hit": false,
      "t": 121750,
      "d": 83.33333333332848,
      "v": 109
    },
    {
      "midi": 91,
      "hit": false,
      "t": 121750.00000000004,
      "d": 83.33333333332848,
      "v": 109
    },
    {
      "midi": 33,
      "hit": false,
      "t": 122000,
      "d": 75.52083333334303,
      "v": 127
    },
    {
      "midi": 33,
      "hit": false,
      "t": 122000,
      "d": 59.89583333332848,
      "v": 106
    },
    {
      "midi": 81,
      "hit": false,
      "t": 122000,
      "d": 83.33333333332848,
      "v": 122
    },
    {
      "midi": 93,
      "hit": false,
      "t": 122000.00000000004,
      "d": 83.33333333332848,
      "v": 122
    },
    {
      "midi": 33,
      "hit": false,
      "t": 122125,
      "d": 57.29166666667152,
      "v": 104
    },
    {
      "midi": 33,
      "hit": false,
      "t": 122125.00000000001,
      "d": 200.52083333332848,
      "v": 127
    },
    {
      "midi": 33,
      "hit": false,
      "t": 122250,
      "d": 88.54166666667152,
      "v": 106
    },
    {
      "midi": 33,
      "hit": false,
      "t": 122500,
      "d": 156.25,
      "v": 114
    },
    {
      "midi": 33,
      "hit": false,
      "t": 122500.00000000001,
      "d": 130.20833333332848,
      "v": 127
    },
    {
      "midi": 33,
      "hit": false,
      "t": 122750,
      "d": 67.70833333332848,
      "v": 106
    },
    {
      "midi": 33,
      "hit": false,
      "t": 122750.00000000001,
      "d": 65.10416666667152,
      "v": 127
    },
    {
      "midi": 33,
      "hit": false,
      "t": 122875,
      "d": 91.14583333332848,
      "v": 96
    },
    {
      "midi": 33,
      "hit": false,
      "t": 122875.00000000001,
      "d": 98.95833333332848,
      "v": 127
    },
    {
      "midi": 33,
      "hit": false,
      "t": 123125,
      "d": 91.14583333332848,
      "v": 117
    },
    {
      "midi": 33,
      "hit": false,
      "t": 123125.00000000001,
      "d": 83.33333333332848,
      "v": 127
    },
    {
      "midi": 33,
      "hit": false,
      "t": 123375,
      "d": 59.89583333332848,
      "v": 104
    },
    {
      "midi": 33,
      "hit": false,
      "t": 123375.00000000001,
      "d": 49.47916666667152,
      "v": 127
    },
    {
      "midi": 33,
      "hit": false,
      "t": 123500,
      "d": 187.5,
      "v": 117
    },
    {
      "midi": 33,
      "hit": false,
      "t": 123500.00000000001,
      "d": 205.72916666667152,
      "v": 127
    },
    {
      "midi": 45,
      "hit": false,
      "t": 123750,
      "d": 195.3125,
      "v": 127
    },
    {
      "midi": 45,
      "hit": false,
      "t": 123750.00000000001,
      "d": 197.91666666667152,
      "v": 127
    },
    {
      "midi": 69,
      "hit": false,
      "t": 123999.99999999996,
      "d": 463.5416666666715,
      "v": 106
    },
    {
      "midi": 33,
      "hit": false,
      "t": 124000,
      "d": 109.375,
      "v": 127
    },
    {
      "midi": 33,
      "hit": false,
      "t": 124000.00000000001,
      "d": 114.58333333332848,
      "v": 127
    },
    {
      "midi": 33,
      "hit": false,
      "t": 124125,
      "d": 109.375,
      "v": 90
    },
    {
      "midi": 33,
      "hit": false,
      "t": 124250,
      "d": 101.5625,
      "v": 101
    },
    {
      "midi": 33,
      "hit": false,
      "t": 124250.00000000001,
      "d": 91.14583333332848,
      "v": 127
    },
    {
      "midi": 33,
      "hit": false,
      "t": 124375,
      "d": 101.5625,
      "v": 64
    },
    {
      "midi": 72,
      "hit": false,
      "t": 124499.99999999996,
      "d": 351.5625,
      "v": 90
    },
    {
      "midi": 31,
      "hit": false,
      "t": 124500.00000000001,
      "d": 28.645833333328483,
      "v": 127
    },
    {
      "midi": 33,
      "hit": false,
      "t": 124500.00000000001,
      "d": 67.70833333332848,
      "v": 127
    },
    {
      "midi": 33,
      "hit": false,
      "t": 124625,
      "d": 10.416666666671517,
      "v": 90
    },
    {
      "midi": 64,
      "hit": false,
      "t": 124749.99999999996,
      "d": 268.2291666666715,
      "v": 100
    },
    {
      "midi": 33,
      "hit": false,
      "t": 124750,
      "d": 10.416666666671517,
      "v": 111
    },
    {
      "midi": 33,
      "hit": false,
      "t": 124750.00000000001,
      "d": 117.1875,
      "v": 127
    },
    {
      "midi": 33,
      "hit": false,
      "t": 124875,
      "d": 101.5625,
      "v": 74
    },
    {
      "midi": 33,
      "hit": false,
      "t": 125000,
      "d": 125,
      "v": 127
    },
    {
      "midi": 33,
      "hit": false,
      "t": 125000.00000000001,
      "d": 98.95833333332848,
      "v": 127
    },
    {
      "midi": 64,
      "hit": false,
      "t": 125124.99999999996,
      "d": 286.4583333333285,
      "v": 103
    },
    {
      "midi": 33,
      "hit": false,
      "t": 125125,
      "d": 125,
      "v": 90
    },
    {
      "midi": 33,
      "hit": false,
      "t": 125250,
      "d": 104.16666666667152,
      "v": 116
    },
    {
      "midi": 33,
      "hit": false,
      "t": 125250.00000000001,
      "d": 101.5625,
      "v": 127
    },
    {
      "midi": 33,
      "hit": false,
      "t": 125375,
      "d": 104.16666666667152,
      "v": 79
    },
    {
      "midi": 67,
      "hit": false,
      "t": 125499.99999999996,
      "d": 429.6875,
      "v": 100
    },
    {
      "midi": 33,
      "hit": false,
      "t": 125500.00000000001,
      "d": 216.14583333332848,
      "v": 127
    },
    {
      "midi": 33,
      "hit": false,
      "t": 125625,
      "d": 109.375,
      "v": 90
    },
    {
      "midi": 31,
      "hit": false,
      "t": 125750.00000000001,
      "d": 265.625,
      "v": 127
    },
    {
      "midi": 31,
      "hit": false,
      "t": 125875,
      "d": 106.77083333332848,
      "v": 81
    },
    {
      "midi": 69,
      "hit": false,
      "t": 125999.99999999996,
      "d": 463.5416666666715,
      "v": 106
    },
    {
      "midi": 38,
      "hit": false,
      "t": 126000,
      "d": 117.1875,
      "v": 118
    },
    {
      "midi": 38,
      "hit": false,
      "t": 126000.00000000001,
      "d": 132.8125,
      "v": 127
    },
    {
      "midi": 38,
      "hit": false,
      "t": 126125,
      "d": 117.1875,
      "v": 81
    },
    {
      "midi": 38,
      "hit": false,
      "t": 126250,
      "d": 114.58333333332848,
      "v": 118
    },
    {
      "midi": 38,
      "hit": false,
      "t": 126250.00000000001,
      "d": 109.375,
      "v": 127
    },
    {
      "midi": 38,
      "hit": false,
      "t": 126375,
      "d": 114.58333333332848,
      "v": 81
    },
    {
      "midi": 72,
      "hit": false,
      "t": 126499.99999999996,
      "d": 351.5625,
      "v": 90
    },
    {
      "midi": 38,
      "hit": false,
      "t": 126500,
      "d": 117.1875,
      "v": 118
    },
    {
      "midi": 38,
      "hit": false,
      "t": 126500.00000000001,
      "d": 111.97916666667152,
      "v": 127
    },
    {
      "midi": 38,
      "hit": false,
      "t": 126625,
      "d": 117.1875,
      "v": 81
    },
    {
      "midi": 64,
      "hit": false,
      "t": 126749.99999999996,
      "d": 268.2291666666715,
      "v": 100
    },
    {
      "midi": 38,
      "hit": false,
      "t": 126750.00000000001,
      "d": 192.70833333332848,
      "v": 127
    },
    {
      "midi": 38,
      "hit": false,
      "t": 126875,
      "d": 117.1875,
      "v": 87
    },
    {
      "midi": 28,
      "hit": false,
      "t": 127000.00000000001,
      "d": 156.25,
      "v": 127
    },
    {
      "midi": 64,
      "hit": false,
      "t": 127124.99999999996,
      "d": 286.4583333333285,
      "v": 103
    },
    {
      "midi": 28,
      "hit": false,
      "t": 127125,
      "d": 18.229166666671517,
      "v": 87
    },
    {
      "midi": 28,
      "hit": false,
      "t": 127250,
      "d": 18.229166666671517,
      "v": 113
    },
    {
      "midi": 28,
      "hit": false,
      "t": 127250.00000000001,
      "d": 122.39583333332848,
      "v": 127
    },
    {
      "midi": 28,
      "hit": false,
      "t": 127375,
      "d": 101.5625,
      "v": 76
    },
    {
      "midi": 67,
      "hit": false,
      "t": 127499.99999999996,
      "d": 429.6875,
      "v": 100
    },
    {
      "midi": 28,
      "hit": false,
      "t": 127500.00000000001,
      "d": 119.79166666667152,
      "v": 127
    },
    {
      "midi": 28,
      "hit": false,
      "t": 127625,
      "d": 2.6041666666715173,
      "v": 90
    },
    {
      "midi": 28,
      "hit": false,
      "t": 127750,
      "d": 2.6041666666715173,
      "v": 124
    },
    {
      "midi": 28,
      "hit": false,
      "t": 127750.00000000001,
      "d": 257.8125,
      "v": 127
    },
    {
      "midi": 28,
      "hit": false,
      "t": 127875,
      "d": 138.02083333332848,
      "v": 87
    },
    {
      "midi": 69,
      "hit": false,
      "t": 127999.99999999996,
      "d": 463.5416666666715,
      "v": 106
    },
    {
      "midi": 33,
      "hit": false,
      "t": 128000.00000000001,
      "d": 127.60416666667152,
      "v": 127
    },
    {
      "midi": 33,
      "hit": false,
      "t": 128125,
      "d": 7.8125,
      "v": 90
    },
    {
      "midi": 33,
      "hit": false,
      "t": 128250,
      "d": 7.8125,
      "v": 111
    },
    {
      "midi": 33,
      "hit": false,
      "t": 128250.00000000001,
      "d": 114.58333333332848,
      "v": 127
    },
    {
      "midi": 33,
      "hit": false,
      "t": 128375,
      "d": 98.95833333332848,
      "v": 74
    },
    {
      "midi": 72,
      "hit": false,
      "t": 128499.99999999996,
      "d": 351.5625,
      "v": 90
    },
    {
      "midi": 33,
      "hit": false,
      "t": 128500,
      "d": 119.79166666667152,
      "v": 127
    },
    {
      "midi": 33,
      "hit": false,
      "t": 128500.00000000001,
      "d": 119.79166666667152,
      "v": 127
    },
    {
      "midi": 33,
      "hit": false,
      "t": 128625,
      "d": 119.79166666667152,
      "v": 90
    },
    {
      "midi": 64,
      "hit": false,
      "t": 128749.99999999996,
      "d": 268.2291666666715,
      "v": 100
    },
    {
      "midi": 33,
      "hit": false,
      "t": 128750,
      "d": 91.14583333332848,
      "v": 113
    },
    {
      "midi": 33,
      "hit": false,
      "t": 128750.00000000001,
      "d": 98.95833333332848,
      "v": 127
    },
    {
      "midi": 33,
      "hit": false,
      "t": 128875,
      "d": 91.14583333332848,
      "v": 76
    },
    {
      "midi": 33,
      "hit": false,
      "t": 129000,
      "d": 114.58333333332848,
      "v": 127
    },
    {
      "midi": 33,
      "hit": false,
      "t": 129000.00000000001,
      "d": 125,
      "v": 127
    },
    {
      "midi": 64,
      "hit": false,
      "t": 129124.99999999996,
      "d": 286.4583333333285,
      "v": 103
    },
    {
      "midi": 33,
      "hit": false,
      "t": 129125,
      "d": 114.58333333332848,
      "v": 90
    },
    {
      "midi": 33,
      "hit": false,
      "t": 129250,
      "d": 98.95833333332848,
      "v": 127
    },
    {
      "midi": 33,
      "hit": false,
      "t": 129250.00000000001,
      "d": 101.5625,
      "v": 127
    },
    {
      "midi": 33,
      "hit": false,
      "t": 129375,
      "d": 98.95833333332848,
      "v": 90
    },
    {
      "midi": 67,
      "hit": false,
      "t": 129499.99999999996,
      "d": 429.6875,
      "v": 100
    },
    {
      "midi": 33,
      "hit": false,
      "t": 129500.00000000001,
      "d": 216.14583333332848,
      "v": 127
    },
    {
      "midi": 33,
      "hit": false,
      "t": 129625,
      "d": 106.77083333332848,
      "v": 90
    },
    {
      "midi": 31,
      "hit": false,
      "t": 129750.00000000001,
      "d": 231.77083333332848,
      "v": 127
    },
    {
      "midi": 31,
      "hit": false,
      "t": 129875,
      "d": 111.97916666667152,
      "v": 76
    },
    {
      "midi": 69,
      "hit": false,
      "t": 129999.99999999996,
      "d": 463.5416666666715,
      "v": 106
    },
    {
      "midi": 38,
      "hit": false,
      "t": 130000.00000000001,
      "d": 119.79166666667152,
      "v": 127
    },
    {
      "midi": 38,
      "hit": false,
      "t": 130125,
      "d": 2.6041666666715173,
      "v": 84
    },
    {
      "midi": 38,
      "hit": false,
      "t": 130250,
      "d": 2.6041666666715173,
      "v": 124
    },
    {
      "midi": 38,
      "hit": false,
      "t": 130250.00000000001,
      "d": 106.77083333332848,
      "v": 127
    },
    {
      "midi": 38,
      "hit": false,
      "t": 130375,
      "d": 98.95833333332848,
      "v": 87
    },
    {
      "midi": 72,
      "hit": false,
      "t": 130499.99999999996,
      "d": 351.5625,
      "v": 90
    },
    {
      "midi": 38,
      "hit": false,
      "t": 130500.00000000001,
      "d": 117.1875,
      "v": 127
    },
    {
      "midi": 38,
      "hit": false,
      "t": 130625,
      "d": 2.6041666666715173,
      "v": 90
    },
    {
      "midi": 64,
      "hit": false,
      "t": 130749.99999999996,
      "d": 268.2291666666715,
      "v": 100
    },
    {
      "midi": 38,
      "hit": false,
      "t": 130750,
      "d": 2.6041666666715173,
      "v": 127
    },
    {
      "midi": 38,
      "hit": false,
      "t": 130750.00000000001,
      "d": 226.5625,
      "v": 127
    },
    {
      "midi": 38,
      "hit": false,
      "t": 130875,
      "d": 125,
      "v": 90
    },
    {
      "midi": 28,
      "hit": false,
      "t": 131000.00000000001,
      "d": 140.62499999998545,
      "v": 127
    },
    {
      "midi": 64,
      "hit": false,
      "t": 131124.99999999997,
      "d": 286.45833333334303,
      "v": 103
    },
    {
      "midi": 28,
      "hit": false,
      "t": 131125,
      "d": 15.625,
      "v": 90
    },
    {
      "midi": 76,
      "hit": false,
      "t": 131249.99999999997,
      "d": 273.4375,
      "v": 109
    },
    {
      "midi": 28,
      "hit": false,
      "t": 131250,
      "d": 106.77083333334303,
      "v": 127
    },
    {
      "midi": 28,
      "hit": false,
      "t": 131250,
      "d": 15.625,
      "v": 118
    },
    {
      "midi": 28,
      "hit": false,
      "t": 131375,
      "d": 98.95833333334303,
      "v": 81
    },
    {
      "midi": 83,
      "hit": false,
      "t": 131499.99999999997,
      "d": 294.27083333334303,
      "v": 103
    },
    {
      "midi": 67,
      "hit": false,
      "t": 131499.99999999997,
      "d": 429.6875,
      "v": 100
    },
    {
      "midi": 28,
      "hit": false,
      "t": 131500,
      "d": 117.1875,
      "v": 127
    },
    {
      "midi": 28,
      "hit": false,
      "t": 131500,
      "d": 117.1875,
      "v": 127
    },
    {
      "midi": 28,
      "hit": false,
      "t": 131625,
      "d": 117.1875,
      "v": 90
    },
    {
      "midi": 88,
      "hit": false,
      "t": 131749.99999999997,
      "d": 143.22916666668607,
      "v": 100
    },
    {
      "midi": 100,
      "hit": false,
      "t": 131749.99999999997,
      "d": 143.22916666668607,
      "v": 100
    },
    {
      "midi": 28,
      "hit": false,
      "t": 131750,
      "d": 164.0625,
      "v": 127
    },
    {
      "midi": 76,
      "hit": false,
      "t": 131750,
      "d": 197.91666666665697,
      "v": 103
    },
    {
      "midi": 88,
      "hit": false,
      "t": 131750,
      "d": 226.5625,
      "v": 92
    },
    {
      "midi": 28,
      "hit": false,
      "t": 131875,
      "d": 70.3125,
      "v": 90
    },
    {
      "midi": 69,
      "hit": false,
      "t": 131999.99999999997,
      "d": 463.54166666665697,
      "v": 106
    },
    {
      "midi": 33,
      "hit": false,
      "t": 132000,
      "d": 114.58333333334303,
      "v": 127
    },
    {
      "midi": 33,
      "hit": false,
      "t": 132000,
      "d": 109.375,
      "v": 127
    },
    {
      "midi": 57,
      "hit": false,
      "t": 132000.00000000003,
      "d": 1973.958333333343,
      "v": 88
    },
    {
      "midi": 48,
      "hit": false,
      "t": 132000.00000000006,
      "d": 1929.6875,
      "v": 47
    },
    {
      "midi": 45,
      "hit": false,
      "t": 132000.00000000006,
      "d": 2020.833333333314,
      "v": 44
    },
    {
      "midi": 60,
      "hit": false,
      "t": 132010.41666666672,
      "d": 28.645833333343035,
      "v": 49
    },
    {
      "midi": 33,
      "hit": false,
      "t": 132125,
      "d": 109.375,
      "v": 90
    },
    {
      "midi": 33,
      "hit": false,
      "t": 132250,
      "d": 91.14583333334303,
      "v": 127
    },
    {
      "midi": 33,
      "hit": false,
      "t": 132250,
      "d": 101.5625,
      "v": 101
    },
    {
      "midi": 33,
      "hit": false,
      "t": 132375,
      "d": 101.5625,
      "v": 64
    },
    {
      "midi": 72,
      "hit": false,
      "t": 132499.99999999997,
      "d": 351.5625,
      "v": 90
    },
    {
      "midi": 31,
      "hit": false,
      "t": 132500,
      "d": 28.645833333343035,
      "v": 127
    },
    {
      "midi": 33,
      "hit": false,
      "t": 132500,
      "d": 67.70833333334303,
      "v": 127
    },
    {
      "midi": 33,
      "hit": false,
      "t": 132625,
      "d": 10.416666666656965,
      "v": 90
    },
    {
      "midi": 64,
      "hit": false,
      "t": 132749.99999999997,
      "d": 268.22916666665697,
      "v": 100
    },
    {
      "midi": 33,
      "hit": false,
      "t": 132750,
      "d": 117.1875,
      "v": 127
    },
    {
      "midi": 33,
      "hit": false,
      "t": 132750,
      "d": 10.416666666656965,
      "v": 111
    },
    {
      "midi": 33,
      "hit": false,
      "t": 132875,
      "d": 101.5625,
      "v": 74
    },
    {
      "midi": 33,
      "hit": false,
      "t": 133000,
      "d": 98.95833333334303,
      "v": 127
    },
    {
      "midi": 33,
      "hit": false,
      "t": 133000,
      "d": 125,
      "v": 127
    },
    {
      "midi": 64,
      "hit": false,
      "t": 133124.99999999997,
      "d": 286.45833333334303,
      "v": 103
    },
    {
      "midi": 33,
      "hit": false,
      "t": 133125,
      "d": 125,
      "v": 90
    },
    {
      "midi": 33,
      "hit": false,
      "t": 133250,
      "d": 101.5625,
      "v": 127
    },
    {
      "midi": 33,
      "hit": false,
      "t": 133250,
      "d": 104.16666666665697,
      "v": 116
    },
    {
      "midi": 33,
      "hit": false,
      "t": 133375,
      "d": 104.16666666665697,
      "v": 79
    },
    {
      "midi": 67,
      "hit": false,
      "t": 133499.99999999997,
      "d": 429.6875,
      "v": 100
    },
    {
      "midi": 33,
      "hit": false,
      "t": 133500,
      "d": 216.14583333334303,
      "v": 127
    },
    {
      "midi": 33,
      "hit": false,
      "t": 133625,
      "d": 109.375,
      "v": 90
    },
    {
      "midi": 31,
      "hit": false,
      "t": 133750,
      "d": 265.625,
      "v": 127
    },
    {
      "midi": 31,
      "hit": false,
      "t": 133875,
      "d": 106.77083333334303,
      "v": 81
    },
    {
      "midi": 50,
      "hit": false,
      "t": 133942.7083333334,
      "d": 1039.062499999971,
      "v": 53
    },
    {
      "midi": 62,
      "hit": false,
      "t": 133945.31250000003,
      "d": 1015.625,
      "v": 81
    },
    {
      "midi": 62,
      "hit": false,
      "t": 133945.31250000006,
      "d": 976.5625,
      "v": 75
    },
    {
      "midi": 50,
      "hit": false,
      "t": 133947.91666666672,
      "d": 1059.895833333314,
      "v": 58
    },
    {
      "midi": 69,
      "hit": false,
      "t": 133999.99999999997,
      "d": 463.54166666665697,
      "v": 106
    },
    {
      "midi": 38,
      "hit": false,
      "t": 134000,
      "d": 132.8125,
      "v": 127
    },
    {
      "midi": 38,
      "hit": false,
      "t": 134000,
      "d": 117.1875,
      "v": 118
    },
    {
      "midi": 38,
      "hit": false,
      "t": 134125,
      "d": 117.1875,
      "v": 81
    },
    {
      "midi": 38,
      "hit": false,
      "t": 134250,
      "d": 109.375,
      "v": 127
    },
    {
      "midi": 38,
      "hit": false,
      "t": 134250,
      "d": 114.58333333334303,
      "v": 118
    },
    {
      "midi": 38,
      "hit": false,
      "t": 134375,
      "d": 114.58333333334303,
      "v": 81
    },
    {
      "midi": 72,
      "hit": false,
      "t": 134499.99999999997,
      "d": 351.5625,
      "v": 90
    },
    {
      "midi": 38,
      "hit": false,
      "t": 134500,
      "d": 111.97916666665697,
      "v": 127
    },
    {
      "midi": 38,
      "hit": false,
      "t": 134500,
      "d": 117.1875,
      "v": 118
    },
    {
      "midi": 38,
      "hit": false,
      "t": 134625,
      "d": 117.1875,
      "v": 81
    },
    {
      "midi": 64,
      "hit": false,
      "t": 134749.99999999997,
      "d": 268.22916666665697,
      "v": 100
    },
    {
      "midi": 38,
      "hit": false,
      "t": 134750,
      "d": 192.70833333334303,
      "v": 127
    },
    {
      "midi": 38,
      "hit": false,
      "t": 134875,
      "d": 117.1875,
      "v": 87
    },
    {
      "midi": 64,
      "hit": false,
      "t": 134940.10416666672,
      "d": 1013.0208333333139,
      "v": 70
    },
    {
      "midi": 59,
      "hit": false,
      "t": 134960.93750000003,
      "d": 968.75,
      "v": 81
    },
    {
      "midi": 52,
      "hit": false,
      "t": 134997.39583333337,
      "d": 789.0625,
      "v": 53
    },
    {
      "midi": 28,
      "hit": false,
      "t": 135000,
      "d": 156.25,
      "v": 127
    },
    {
      "midi": 64,
      "hit": false,
      "t": 135124.99999999997,
      "d": 286.45833333334303,
      "v": 103
    },
    {
      "midi": 28,
      "hit": false,
      "t": 135125,
      "d": 18.229166666656965,
      "v": 87
    },
    {
      "midi": 28,
      "hit": false,
      "t": 135250,
      "d": 122.39583333334303,
      "v": 127
    },
    {
      "midi": 28,
      "hit": false,
      "t": 135250,
      "d": 18.229166666656965,
      "v": 113
    },
    {
      "midi": 28,
      "hit": false,
      "t": 135375,
      "d": 101.5625,
      "v": 76
    },
    {
      "midi": 67,
      "hit": false,
      "t": 135499.99999999997,
      "d": 429.6875,
      "v": 100
    },
    {
      "midi": 28,
      "hit": false,
      "t": 135500,
      "d": 119.79166666665697,
      "v": 127
    },
    {
      "midi": 28,
      "hit": false,
      "t": 135625,
      "d": 2.6041666666569654,
      "v": 90
    },
    {
      "midi": 28,
      "hit": false,
      "t": 135750,
      "d": 257.8125,
      "v": 127
    },
    {
      "midi": 28,
      "hit": false,
      "t": 135750,
      "d": 2.6041666666569654,
      "v": 124
    },
    {
      "midi": 28,
      "hit": false,
      "t": 135875,
      "d": 138.02083333334303,
      "v": 87
    },
    {
      "midi": 57,
      "hit": false,
      "t": 135940.1041666667,
      "d": 2028.645833333314,
      "v": 75
    },
    {
      "midi": 60,
      "hit": false,
      "t": 135942.70833333337,
      "d": 2031.249999999971,
      "v": 77
    },
    {
      "midi": 45,
      "hit": false,
      "t": 135973.95833333337,
      "d": 2028.645833333314,
      "v": 56
    },
    {
      "midi": 69,
      "hit": false,
      "t": 135999.99999999997,
      "d": 463.54166666665697,
      "v": 106
    },
    {
      "midi": 33,
      "hit": false,
      "t": 136000,
      "d": 127.60416666665697,
      "v": 127
    },
    {
      "midi": 33,
      "hit": false,
      "t": 136125,
      "d": 7.8125,
      "v": 90
    },
    {
      "midi": 33,
      "hit": false,
      "t": 136250,
      "d": 114.58333333334303,
      "v": 127
    },
    {
      "midi": 33,
      "hit": false,
      "t": 136250,
      "d": 7.8125,
      "v": 111
    },
    {
      "midi": 33,
      "hit": false,
      "t": 136375,
      "d": 98.95833333334303,
      "v": 74
    },
    {
      "midi": 72,
      "hit": false,
      "t": 136499.99999999997,
      "d": 351.5625,
      "v": 90
    },
    {
      "midi": 33,
      "hit": false,
      "t": 136500,
      "d": 119.79166666665697,
      "v": 127
    },
    {
      "midi": 33,
      "hit": false,
      "t": 136500,
      "d": 119.79166666665697,
      "v": 127
    },
    {
      "midi": 33,
      "hit": false,
      "t": 136625,
      "d": 119.79166666665697,
      "v": 90
    },
    {
      "midi": 64,
      "hit": false,
      "t": 136749.99999999997,
      "d": 268.22916666665697,
      "v": 100
    },
    {
      "midi": 33,
      "hit": false,
      "t": 136750,
      "d": 98.95833333334303,
      "v": 127
    },
    {
      "midi": 33,
      "hit": false,
      "t": 136750,
      "d": 91.14583333334303,
      "v": 113
    },
    {
      "midi": 33,
      "hit": false,
      "t": 136875,
      "d": 91.14583333334303,
      "v": 76
    },
    {
      "midi": 33,
      "hit": false,
      "t": 137000,
      "d": 125,
      "v": 127
    },
    {
      "midi": 33,
      "hit": false,
      "t": 137000,
      "d": 114.58333333334303,
      "v": 127
    },
    {
      "midi": 64,
      "hit": false,
      "t": 137124.99999999997,
      "d": 286.45833333334303,
      "v": 103
    },
    {
      "midi": 33,
      "hit": false,
      "t": 137125,
      "d": 114.58333333334303,
      "v": 90
    },
    {
      "midi": 33,
      "hit": false,
      "t": 137250,
      "d": 101.5625,
      "v": 127
    },
    {
      "midi": 33,
      "hit": false,
      "t": 137250,
      "d": 98.95833333334303,
      "v": 127
    },
    {
      "midi": 33,
      "hit": false,
      "t": 137375,
      "d": 98.95833333334303,
      "v": 90
    },
    {
      "midi": 67,
      "hit": false,
      "t": 137499.99999999997,
      "d": 429.6875,
      "v": 100
    },
    {
      "midi": 33,
      "hit": false,
      "t": 137500,
      "d": 216.14583333334303,
      "v": 127
    },
    {
      "midi": 33,
      "hit": false,
      "t": 137625,
      "d": 106.77083333334303,
      "v": 90
    },
    {
      "midi": 31,
      "hit": false,
      "t": 137750,
      "d": 231.77083333334303,
      "v": 127
    },
    {
      "midi": 31,
      "hit": false,
      "t": 137875,
      "d": 111.97916666665697,
      "v": 76
    },
    {
      "midi": 50,
      "hit": false,
      "t": 137929.68750000003,
      "d": 1062.499999999971,
      "v": 57
    },
    {
      "midi": 62,
      "hit": false,
      "t": 137937.50000000003,
      "d": 1010.416666666657,
      "v": 77
    },
    {
      "midi": 62,
      "hit": false,
      "t": 137958.33333333334,
      "d": 1023.4374999999709,
      "v": 73
    },
    {
      "midi": 50,
      "hit": false,
      "t": 137963.5416666667,
      "d": 953.125,
      "v": 58
    },
    {
      "midi": 69,
      "hit": false,
      "t": 137999.99999999997,
      "d": 463.54166666665697,
      "v": 106
    },
    {
      "midi": 38,
      "hit": false,
      "t": 138000,
      "d": 119.79166666665697,
      "v": 127
    },
    {
      "midi": 38,
      "hit": false,
      "t": 138125,
      "d": 2.6041666666569654,
      "v": 84
    },
    {
      "midi": 38,
      "hit": false,
      "t": 138250,
      "d": 106.77083333334303,
      "v": 127
    },
    {
      "midi": 38,
      "hit": false,
      "t": 138250,
      "d": 2.6041666666569654,
      "v": 124
    },
    {
      "midi": 38,
      "hit": false,
      "t": 138375,
      "d": 98.95833333334303,
      "v": 87
    },
    {
      "midi": 72,
      "hit": false,
      "t": 138499.99999999997,
      "d": 351.5625,
      "v": 90
    },
    {
      "midi": 38,
      "hit": false,
      "t": 138500,
      "d": 117.1875,
      "v": 127
    },
    {
      "midi": 38,
      "hit": false,
      "t": 138625,
      "d": 2.6041666666569654,
      "v": 90
    },
    {
      "midi": 64,
      "hit": false,
      "t": 138749.99999999997,
      "d": 268.22916666665697,
      "v": 100
    },
    {
      "midi": 38,
      "hit": false,
      "t": 138750,
      "d": 226.5625,
      "v": 127
    },
    {
      "midi": 38,
      "hit": false,
      "t": 138750,
      "d": 2.6041666666569654,
      "v": 127
    },
    {
      "midi": 38,
      "hit": false,
      "t": 138875,
      "d": 125,
      "v": 90
    },
    {
      "midi": 64,
      "hit": false,
      "t": 138958.33333333334,
      "d": 1002.604166666657,
      "v": 75
    },
    {
      "midi": 59,
      "hit": false,
      "t": 138971.35416666666,
      "d": 971.354166666657,
      "v": 79
    },
    {
      "midi": 52,
      "hit": false,
      "t": 138981.77083333334,
      "d": 934.8958333333139,
      "v": 61
    },
    {
      "midi": 28,
      "hit": false,
      "t": 139000,
      "d": 140.625,
      "v": 127
    },
    {
      "midi": 64,
      "hit": false,
      "t": 139124.99999999997,
      "d": 286.45833333334303,
      "v": 103
    },
    {
      "midi": 28,
      "hit": false,
      "t": 139125,
      "d": 15.625,
      "v": 90
    },
    {
      "midi": 28,
      "hit": false,
      "t": 139250,
      "d": 106.77083333334303,
      "v": 127
    },
    {
      "midi": 28,
      "hit": false,
      "t": 139250,
      "d": 15.625,
      "v": 118
    },
    {
      "midi": 76,
      "hit": false,
      "t": 139250,
      "d": 273.4375,
      "v": 109
    },
    {
      "midi": 28,
      "hit": false,
      "t": 139375,
      "d": 98.95833333334303,
      "v": 81
    },
    {
      "midi": 67,
      "hit": false,
      "t": 139499.99999999997,
      "d": 429.6875,
      "v": 100
    },
    {
      "midi": 28,
      "hit": false,
      "t": 139500,
      "d": 117.1875,
      "v": 127
    },
    {
      "midi": 28,
      "hit": false,
      "t": 139500,
      "d": 117.1875,
      "v": 127
    },
    {
      "midi": 83,
      "hit": false,
      "t": 139500,
      "d": 294.27083333334303,
      "v": 103
    },
    {
      "midi": 28,
      "hit": false,
      "t": 139625,
      "d": 117.1875,
      "v": 90
    },
    {
      "midi": 28,
      "hit": false,
      "t": 139750,
      "d": 164.0625,
      "v": 127
    },
    {
      "midi": 88,
      "hit": false,
      "t": 139750,
      "d": 143.22916666668607,
      "v": 100
    },
    {
      "midi": 76,
      "hit": false,
      "t": 139750,
      "d": 197.91666666665697,
      "v": 103
    },
    {
      "midi": 88,
      "hit": false,
      "t": 139750,
      "d": 226.5625,
      "v": 92
    },
    {
      "midi": 28,
      "hit": false,
      "t": 139875,
      "d": 70.3125,
      "v": 90
    },
    {
      "midi": 26,
      "hit": false,
      "t": 140000,
      "d": 114.58333333334303,
      "v": 127
    },
    {
      "midi": 26,
      "hit": false,
      "t": 140250,
      "d": 91.14583333334303,
      "v": 121
    },
    {
      "midi": 26,
      "hit": false,
      "t": 140500,
      "d": 106.77083333334303,
      "v": 127
    },
    {
      "midi": 26,
      "hit": false,
      "t": 140750,
      "d": 125,
      "v": 127
    },
    {
      "midi": 28,
      "hit": false,
      "t": 140875,
      "d": 270.83333333334303,
      "v": 124
    },
    {
      "midi": 28,
      "hit": false,
      "t": 141250,
      "d": 164.0625,
      "v": 127
    },
    {
      "midi": 76,
      "hit": false,
      "t": 141250.00000000003,
      "d": 273.4375,
      "v": 109
    },
    {
      "midi": 83,
      "hit": false,
      "t": 141500.00000000003,
      "d": 294.27083333334303,
      "v": 103
    },
    {
      "midi": 28,
      "hit": false,
      "t": 141625,
      "d": 114.58333333334303,
      "v": 121
    },
    {
      "midi": 28,
      "hit": false,
      "t": 141750,
      "d": 177.08333333334303,
      "v": 110
    },
    {
      "midi": 88,
      "hit": false,
      "t": 141750.00000000003,
      "d": 143.22916666668607,
      "v": 100
    },
    {
      "midi": 26,
      "hit": false,
      "t": 142000,
      "d": 125,
      "v": 124
    },
    {
      "midi": 26,
      "hit": false,
      "t": 142250,
      "d": 98.95833333334303,
      "v": 127
    },
    {
      "midi": 26,
      "hit": false,
      "t": 142500,
      "d": 80.72916666665697,
      "v": 127
    },
    {
      "midi": 26,
      "hit": false,
      "t": 142750,
      "d": 96.35416666665697,
      "v": 127
    },
    {
      "midi": 28,
      "hit": false,
      "t": 142875,
      "d": 257.8125,
      "v": 121
    },
    {
      "midi": 28,
      "hit": false,
      "t": 143250,
      "d": 148.4375,
      "v": 121
    },
    {
      "midi": 76,
      "hit": false,
      "t": 143250.00000000006,
      "d": 273.4375,
      "v": 109
    },
    {
      "midi": 28,
      "hit": false,
      "t": 143500,
      "d": 114.58333333334303,
      "v": 115
    },
    {
      "midi": 83,
      "hit": false,
      "t": 143500.00000000006,
      "d": 294.27083333334303,
      "v": 103
    },
    {
      "midi": 28,
      "hit": false,
      "t": 143750,
      "d": 213.54166666665697,
      "v": 124
    },
    {
      "midi": 88,
      "hit": false,
      "t": 143750.00000000006,
      "d": 143.22916666668607,
      "v": 100
    },
    {
      "midi": 26,
      "hit": false,
      "t": 144000,
      "d": 98.95833333334303,
      "v": 124
    },
    {
      "midi": 26,
      "hit": false,
      "t": 144250,
      "d": 96.35416666665697,
      "v": 127
    },
    {
      "midi": 26,
      "hit": false,
      "t": 144500,
      "d": 83.33333333334303,
      "v": 127
    },
    {
      "midi": 26,
      "hit": false,
      "t": 144750,
      "d": 114.58333333334303,
      "v": 127
    },
    {
      "midi": 28,
      "hit": false,
      "t": 144875,
      "d": 244.79166666665697,
      "v": 127
    },
    {
      "midi": 28,
      "hit": false,
      "t": 145250,
      "d": 138.02083333334303,
      "v": 124
    },
    {
      "midi": 76,
      "hit": false,
      "t": 145250.0000000001,
      "d": 273.4375,
      "v": 109
    },
    {
      "midi": 28,
      "hit": false,
      "t": 145500,
      "d": 125,
      "v": 121
    },
    {
      "midi": 83,
      "hit": false,
      "t": 145500.0000000001,
      "d": 294.27083333334303,
      "v": 103
    },
    {
      "midi": 28,
      "hit": false,
      "t": 145750,
      "d": 153.64583333334303,
      "v": 121
    },
    {
      "midi": 88,
      "hit": false,
      "t": 145750.0000000001,
      "d": 143.22916666668607,
      "v": 100
    },
    {
      "midi": 26,
      "hit": false,
      "t": 146000,
      "d": 109.375,
      "v": 127
    },
    {
      "midi": 26,
      "hit": false,
      "t": 146250,
      "d": 91.14583333334303,
      "v": 107
    },
    {
      "midi": 26,
      "hit": false,
      "t": 146500,
      "d": 88.54166666665697,
      "v": 127
    },
    {
      "midi": 26,
      "hit": false,
      "t": 146750,
      "d": 98.95833333334303,
      "v": 124
    },
    {
      "midi": 28,
      "hit": false,
      "t": 146875,
      "d": 171.875,
      "v": 127
    },
    {
      "midi": 28,
      "hit": false,
      "t": 147250,
      "d": 145.83333333334303,
      "v": 127
    },
    {
      "midi": 76,
      "hit": false,
      "t": 147250.00000000012,
      "d": 273.4375,
      "v": 109
    },
    {
      "midi": 28,
      "hit": false,
      "t": 147500,
      "d": 114.58333333334303,
      "v": 115
    },
    {
      "midi": 83,
      "hit": false,
      "t": 147500.00000000012,
      "d": 294.27083333334303,
      "v": 103
    },
    {
      "midi": 28,
      "hit": false,
      "t": 147750,
      "d": 91.14583333334303,
      "v": 127
    },
    {
      "midi": 76,
      "hit": false,
      "t": 147750,
      "d": 197.91666666665697,
      "v": 103
    },
    {
      "midi": 88,
      "hit": false,
      "t": 147750,
      "d": 226.5625,
      "v": 92
    },
    {
      "midi": 88,
      "hit": false,
      "t": 147750.00000000012,
      "d": 143.22916666668607,
      "v": 100
    },
    {
      "midi": 64,
      "hit": false,
      "t": 147999.99999999997,
      "d": 3757.8125,
      "v": 73
    },
    {
      "midi": 60,
      "hit": false,
      "t": 147999.99999999997,
      "d": 3802.083333333343,
      "v": 86
    },
    {
      "midi": 57,
      "hit": false,
      "t": 147999.99999999997,
      "d": 3804.6875,
      "v": 76
    },
    {
      "midi": 33,
      "hit": false,
      "t": 148000,
      "d": 80.72916666665697,
      "v": 127
    },
    {
      "midi": 33,
      "hit": false,
      "t": 148000,
      "d": 117.1875,
      "v": 127
    },
    {
      "midi": 33,
      "hit": false,
      "t": 148125,
      "d": 117.1875,
      "v": 59
    },
    {
      "midi": 33,
      "hit": false,
      "t": 148250,
      "d": 98.95833333334303,
      "v": 127
    },
    {
      "midi": 33,
      "hit": false,
      "t": 148250,
      "d": 91.14583333334303,
      "v": 115
    },
    {
      "midi": 33,
      "hit": false,
      "t": 148375,
      "d": 91.14583333334303,
      "v": 30
    },
    {
      "midi": 33,
      "hit": false,
      "t": 148500,
      "d": 106.77083333334303,
      "v": 127
    },
    {
      "midi": 33,
      "hit": false,
      "t": 148500,
      "d": 114.58333333334303,
      "v": 127
    },
    {
      "midi": 33,
      "hit": false,
      "t": 148625,
      "d": 114.58333333334303,
      "v": 56
    },
    {
      "midi": 33,
      "hit": false,
      "t": 148750,
      "d": 91.14583333334303,
      "v": 127
    },
    {
      "midi": 33,
      "hit": false,
      "t": 148750,
      "d": 98.95833333334303,
      "v": 121
    },
    {
      "midi": 33,
      "hit": false,
      "t": 148875,
      "d": 98.95833333334303,
      "v": 36
    },
    {
      "midi": 33,
      "hit": false,
      "t": 149000,
      "d": 106.77083333334303,
      "v": 127
    },
    {
      "midi": 33,
      "hit": false,
      "t": 149000,
      "d": 106.77083333334303,
      "v": 127
    },
    {
      "midi": 33,
      "hit": false,
      "t": 149125,
      "d": 106.77083333334303,
      "v": 59
    },
    {
      "midi": 33,
      "hit": false,
      "t": 149250,
      "d": 91.14583333334303,
      "v": 127
    },
    {
      "midi": 33,
      "hit": false,
      "t": 149250,
      "d": 106.77083333334303,
      "v": 125
    },
    {
      "midi": 33,
      "hit": false,
      "t": 149375,
      "d": 106.77083333334303,
      "v": 40
    },
    {
      "midi": 33,
      "hit": false,
      "t": 149500,
      "d": 114.58333333334303,
      "v": 127
    },
    {
      "midi": 33,
      "hit": false,
      "t": 149500,
      "d": 125,
      "v": 127
    },
    {
      "midi": 33,
      "hit": false,
      "t": 149625,
      "d": 125,
      "v": 62
    },
    {
      "midi": 33,
      "hit": false,
      "t": 149750,
      "d": 98.95833333334303,
      "v": 127
    },
    {
      "midi": 33,
      "hit": false,
      "t": 149750,
      "d": 106.77083333334303,
      "v": 127
    },
    {
      "midi": 33,
      "hit": false,
      "t": 149875,
      "d": 106.77083333334303,
      "v": 42
    },
    {
      "midi": 33,
      "hit": false,
      "t": 150000,
      "d": 98.95833333334303,
      "v": 127
    },
    {
      "midi": 33,
      "hit": false,
      "t": 150000,
      "d": 122.39583333334303,
      "v": 127
    },
    {
      "midi": 33,
      "hit": false,
      "t": 150125,
      "d": 122.39583333334303,
      "v": 56
    },
    {
      "midi": 33,
      "hit": false,
      "t": 150250,
      "d": 98.95833333334303,
      "v": 127
    },
    {
      "midi": 33,
      "hit": false,
      "t": 150250,
      "d": 111.97916666665697,
      "v": 127
    },
    {
      "midi": 33,
      "hit": false,
      "t": 150375,
      "d": 111.97916666665697,
      "v": 53
    },
    {
      "midi": 33,
      "hit": false,
      "t": 150500,
      "d": 109.375,
      "v": 127
    },
    {
      "midi": 33,
      "hit": false,
      "t": 150500,
      "d": 117.1875,
      "v": 127
    },
    {
      "midi": 33,
      "hit": false,
      "t": 150625,
      "d": 117.1875,
      "v": 62
    },
    {
      "midi": 33,
      "hit": false,
      "t": 150750,
      "d": 106.77083333334303,
      "v": 127
    },
    {
      "midi": 33,
      "hit": false,
      "t": 150750,
      "d": 122.39583333334303,
      "v": 127
    },
    {
      "midi": 33,
      "hit": false,
      "t": 150875,
      "d": 122.39583333334303,
      "v": 62
    },
    {
      "midi": 33,
      "hit": false,
      "t": 151000,
      "d": 114.58333333334303,
      "v": 127
    },
    {
      "midi": 33,
      "hit": false,
      "t": 151000,
      "d": 96.35416666665697,
      "v": 127
    },
    {
      "midi": 33,
      "hit": false,
      "t": 151125,
      "d": 96.35416666665697,
      "v": 56
    },
    {
      "midi": 33,
      "hit": false,
      "t": 151250,
      "d": 98.95833333334303,
      "v": 127
    },
    {
      "midi": 33,
      "hit": false,
      "t": 151250,
      "d": 88.54166666665697,
      "v": 127
    },
    {
      "midi": 33,
      "hit": false,
      "t": 151375,
      "d": 88.54166666665697,
      "v": 62
    },
    {
      "midi": 33,
      "hit": false,
      "t": 151500,
      "d": 255.20833333334303,
      "v": 127
    },
    {
      "midi": 33,
      "hit": false,
      "t": 151625,
      "d": 138.02083333334303,
      "v": 59
    },
    {
      "midi": 36,
      "hit": false,
      "t": 151750,
      "d": 255.20833333334303,
      "v": 127
    },
    {
      "midi": 36,
      "hit": false,
      "t": 151875,
      "d": 169.27083333334303,
      "v": 53
    },
    {
      "midi": 57,
      "hit": false,
      "t": 151999.99999999997,
      "d": 1796.875,
      "v": 71
    },
    {
      "midi": 62,
      "hit": false,
      "t": 151999.99999999997,
      "d": 1869.791666666657,
      "v": 80
    },
    {
      "midi": 50,
      "hit": false,
      "t": 151999.99999999997,
      "d": 1872.395833333314,
      "v": 82
    },
    {
      "midi": 26,
      "hit": false,
      "t": 152000,
      "d": 143.22916666668607,
      "v": 127
    },
    {
      "midi": 26,
      "hit": false,
      "t": 152125,
      "d": 7.8125,
      "v": 78
    },
    {
      "midi": 26,
      "hit": false,
      "t": 152250,
      "d": 7.8125,
      "v": 127
    },
    {
      "midi": 26,
      "hit": false,
      "t": 152250.00000000003,
      "d": 114.58333333334303,
      "v": 127
    },
    {
      "midi": 26,
      "hit": false,
      "t": 152375,
      "d": 91.14583333334303,
      "v": 51
    },
    {
      "midi": 26,
      "hit": false,
      "t": 152500,
      "d": 98.95833333334303,
      "v": 127
    },
    {
      "midi": 26,
      "hit": false,
      "t": 152500.00000000003,
      "d": 117.1875,
      "v": 127
    },
    {
      "midi": 26,
      "hit": false,
      "t": 152625,
      "d": 98.95833333334303,
      "v": 46
    },
    {
      "midi": 26,
      "hit": false,
      "t": 152750,
      "d": 117.1875,
      "v": 127
    },
    {
      "midi": 26,
      "hit": false,
      "t": 152750.00000000003,
      "d": 106.77083333334303,
      "v": 127
    },
    {
      "midi": 26,
      "hit": false,
      "t": 152875,
      "d": 117.1875,
      "v": 53
    },
    {
      "midi": 26,
      "hit": false,
      "t": 153000,
      "d": 122.39583333334303,
      "v": 127
    },
    {
      "midi": 26,
      "hit": false,
      "t": 153000.00000000003,
      "d": 114.58333333334303,
      "v": 127
    },
    {
      "midi": 26,
      "hit": false,
      "t": 153125,
      "d": 122.39583333334303,
      "v": 62
    },
    {
      "midi": 26,
      "hit": false,
      "t": 153250,
      "d": 125,
      "v": 127
    },
    {
      "midi": 26,
      "hit": false,
      "t": 153250.00000000003,
      "d": 106.77083333334303,
      "v": 127
    },
    {
      "midi": 26,
      "hit": false,
      "t": 153375,
      "d": 125,
      "v": 56
    },
    {
      "midi": 26,
      "hit": false,
      "t": 153500,
      "d": 125,
      "v": 127
    },
    {
      "midi": 26,
      "hit": false,
      "t": 153500.00000000003,
      "d": 106.77083333334303,
      "v": 127
    },
    {
      "midi": 26,
      "hit": false,
      "t": 153625,
      "d": 125,
      "v": 62
    },
    {
      "midi": 26,
      "hit": false,
      "t": 153750.00000000003,
      "d": 260.41666666665697,
      "v": 127
    },
    {
      "midi": 26,
      "hit": false,
      "t": 153875,
      "d": 20.833333333343035,
      "v": 56
    },
    {
      "midi": 52,
      "hit": false,
      "t": 153999.99999999994,
      "d": 1911.458333333343,
      "v": 95
    },
    {
      "midi": 64,
      "hit": false,
      "t": 153999.99999999994,
      "d": 1942.708333333343,
      "v": 69
    },
    {
      "midi": 59,
      "hit": false,
      "t": 153999.99999999994,
      "d": 1950.520833333343,
      "v": 69
    },
    {
      "midi": 28,
      "hit": false,
      "t": 154000.00000000003,
      "d": 132.8125,
      "v": 127
    },
    {
      "midi": 28,
      "hit": false,
      "t": 154125,
      "d": 13.020833333343035,
      "v": 53
    },
    {
      "midi": 28,
      "hit": false,
      "t": 154250,
      "d": 13.020833333343035,
      "v": 125
    },
    {
      "midi": 28,
      "hit": false,
      "t": 154250.00000000003,
      "d": 122.39583333334303,
      "v": 127
    },
    {
      "midi": 28,
      "hit": false,
      "t": 154375,
      "d": 119.79166666665697,
      "v": 40
    },
    {
      "midi": 28,
      "hit": false,
      "t": 154500.00000000003,
      "d": 125,
      "v": 127
    },
    {
      "midi": 28,
      "hit": false,
      "t": 154625,
      "d": 5.208333333343035,
      "v": 56
    },
    {
      "midi": 28,
      "hit": false,
      "t": 154750,
      "d": 5.208333333343035,
      "v": 127
    },
    {
      "midi": 81,
      "hit": false,
      "t": 154750,
      "d": 763.020833333343,
      "v": 80
    },
    {
      "midi": 28,
      "hit": false,
      "t": 154750.00000000003,
      "d": 111.97916666665697,
      "v": 127
    },
    {
      "midi": 81,
      "hit": false,
      "t": 154750.00000000015,
      "d": 763.020833333343,
      "v": 80
    },
    {
      "midi": 28,
      "hit": false,
      "t": 154875,
      "d": 5.208333333343035,
      "v": 46
    },
    {
      "midi": 28,
      "hit": false,
      "t": 155000,
      "d": 5.208333333343035,
      "v": 127
    },
    {
      "midi": 28,
      "hit": false,
      "t": 155000.00000000003,
      "d": 114.58333333334303,
      "v": 127
    },
    {
      "midi": 28,
      "hit": false,
      "t": 155125,
      "d": 5.208333333343035,
      "v": 59
    },
    {
      "midi": 28,
      "hit": false,
      "t": 155250,
      "d": 5.208333333343035,
      "v": 127
    },
    {
      "midi": 28,
      "hit": false,
      "t": 155250.00000000003,
      "d": 106.77083333334303,
      "v": 127
    },
    {
      "midi": 28,
      "hit": false,
      "t": 155375,
      "d": 98.95833333334303,
      "v": 48
    },
    {
      "midi": 79,
      "hit": false,
      "t": 155500,
      "d": 486.97916666668607,
      "v": 77
    },
    {
      "midi": 28,
      "hit": false,
      "t": 155500.00000000003,
      "d": 213.54166666665697,
      "v": 127
    },
    {
      "midi": 79,
      "hit": false,
      "t": 155500.00000000015,
      "d": 486.97916666668607,
      "v": 77
    },
    {
      "midi": 28,
      "hit": false,
      "t": 155625,
      "d": 78.125,
      "v": 69
    },
    {
      "midi": 31,
      "hit": false,
      "t": 155750.00000000003,
      "d": 252.60416666665697,
      "v": 127
    },
    {
      "midi": 31,
      "hit": false,
      "t": 155875,
      "d": 101.5625,
      "v": 65
    },
    {
      "midi": 64,
      "hit": false,
      "t": 155999.99999999994,
      "d": 3757.8125,
      "v": 73
    },
    {
      "midi": 60,
      "hit": false,
      "t": 155999.99999999994,
      "d": 3802.083333333343,
      "v": 86
    },
    {
      "midi": 57,
      "hit": false,
      "t": 155999.99999999994,
      "d": 3804.6875,
      "v": 76
    },
    {
      "midi": 33,
      "hit": false,
      "t": 156000,
      "d": 117.1875,
      "v": 127
    },
    {
      "midi": 33,
      "hit": false,
      "t": 156000.00000000003,
      "d": 80.72916666665697,
      "v": 127
    },
    {
      "midi": 76,
      "hit": false,
      "t": 156000.00000000003,
      "d": 2010.416666666657,
      "v": 79
    },
    {
      "midi": 76,
      "hit": false,
      "t": 156000.00000000017,
      "d": 2010.416666666657,
      "v": 79
    },
    {
      "midi": 33,
      "hit": false,
      "t": 156125,
      "d": 117.1875,
      "v": 59
    },
    {
      "midi": 33,
      "hit": false,
      "t": 156250,
      "d": 91.14583333334303,
      "v": 115
    },
    {
      "midi": 33,
      "hit": false,
      "t": 156250.00000000003,
      "d": 98.95833333334303,
      "v": 127
    },
    {
      "midi": 33,
      "hit": false,
      "t": 156375,
      "d": 91.14583333334303,
      "v": 30
    },
    {
      "midi": 33,
      "hit": false,
      "t": 156500,
      "d": 114.58333333334303,
      "v": 127
    },
    {
      "midi": 33,
      "hit": false,
      "t": 156500.00000000003,
      "d": 106.77083333334303,
      "v": 127
    },
    {
      "midi": 33,
      "hit": false,
      "t": 156625,
      "d": 114.58333333334303,
      "v": 56
    },
    {
      "midi": 33,
      "hit": false,
      "t": 156750,
      "d": 98.95833333334303,
      "v": 121
    },
    {
      "midi": 33,
      "hit": false,
      "t": 156750.00000000003,
      "d": 91.14583333334303,
      "v": 127
    },
    {
      "midi": 33,
      "hit": false,
      "t": 156875,
      "d": 98.95833333334303,
      "v": 36
    },
    {
      "midi": 33,
      "hit": false,
      "t": 157000,
      "d": 106.77083333334303,
      "v": 127
    },
    {
      "midi": 33,
      "hit": false,
      "t": 157000.00000000003,
      "d": 106.77083333334303,
      "v": 127
    },
    {
      "midi": 33,
      "hit": false,
      "t": 157125,
      "d": 106.77083333334303,
      "v": 59
    },
    {
      "midi": 33,
      "hit": false,
      "t": 157250,
      "d": 106.77083333334303,
      "v": 125
    },
    {
      "midi": 33,
      "hit": false,
      "t": 157250.00000000003,
      "d": 91.14583333334303,
      "v": 127
    },
    {
      "midi": 33,
      "hit": false,
      "t": 157375,
      "d": 106.77083333334303,
      "v": 40
    },
    {
      "midi": 33,
      "hit": false,
      "t": 157500,
      "d": 125,
      "v": 127
    },
    {
      "midi": 33,
      "hit": false,
      "t": 157500.00000000003,
      "d": 114.58333333334303,
      "v": 127
    },
    {
      "midi": 33,
      "hit": false,
      "t": 157625,
      "d": 125,
      "v": 62
    },
    {
      "midi": 33,
      "hit": false,
      "t": 157750,
      "d": 106.77083333334303,
      "v": 127
    },
    {
      "midi": 33,
      "hit": false,
      "t": 157750.00000000003,
      "d": 98.95833333334303,
      "v": 127
    },
    {
      "midi": 33,
      "hit": false,
      "t": 157875,
      "d": 106.77083333334303,
      "v": 42
    },
    {
      "midi": 33,
      "hit": false,
      "t": 158000,
      "d": 122.39583333334303,
      "v": 127
    },
    {
      "midi": 33,
      "hit": false,
      "t": 158000.00000000003,
      "d": 98.95833333334303,
      "v": 127
    },
    {
      "midi": 33,
      "hit": false,
      "t": 158125,
      "d": 122.39583333334303,
      "v": 56
    },
    {
      "midi": 33,
      "hit": false,
      "t": 158250,
      "d": 111.97916666665697,
      "v": 127
    },
    {
      "midi": 33,
      "hit": false,
      "t": 158250.00000000003,
      "d": 98.95833333334303,
      "v": 127
    },
    {
      "midi": 33,
      "hit": false,
      "t": 158375,
      "d": 111.97916666665697,
      "v": 53
    },
    {
      "midi": 33,
      "hit": false,
      "t": 158500,
      "d": 117.1875,
      "v": 127
    },
    {
      "midi": 33,
      "hit": false,
      "t": 158500.00000000003,
      "d": 109.375,
      "v": 127
    },
    {
      "midi": 33,
      "hit": false,
      "t": 158625,
      "d": 117.1875,
      "v": 62
    },
    {
      "midi": 33,
      "hit": false,
      "t": 158750,
      "d": 122.39583333334303,
      "v": 127
    },
    {
      "midi": 33,
      "hit": false,
      "t": 158750.00000000003,
      "d": 106.77083333334303,
      "v": 127
    },
    {
      "midi": 33,
      "hit": false,
      "t": 158875,
      "d": 122.39583333334303,
      "v": 62
    },
    {
      "midi": 33,
      "hit": false,
      "t": 159000,
      "d": 96.35416666665697,
      "v": 127
    },
    {
      "midi": 33,
      "hit": false,
      "t": 159000.00000000003,
      "d": 114.58333333334303,
      "v": 127
    },
    {
      "midi": 33,
      "hit": false,
      "t": 159125,
      "d": 96.35416666665697,
      "v": 56
    },
    {
      "midi": 33,
      "hit": false,
      "t": 159250,
      "d": 88.54166666665697,
      "v": 127
    },
    {
      "midi": 33,
      "hit": false,
      "t": 159250.00000000003,
      "d": 98.95833333334303,
      "v": 127
    },
    {
      "midi": 33,
      "hit": false,
      "t": 159375,
      "d": 88.54166666665697,
      "v": 62
    },
    {
      "midi": 33,
      "hit": false,
      "t": 159500.00000000003,
      "d": 255.20833333334303,
      "v": 127
    },
    {
      "midi": 33,
      "hit": false,
      "t": 159625,
      "d": 138.02083333334303,
      "v": 59
    },
    {
      "midi": 36,
      "hit": false,
      "t": 159750.00000000003,
      "d": 255.20833333334303,
      "v": 127
    },
    {
      "midi": 36,
      "hit": false,
      "t": 159875,
      "d": 169.27083333334303,
      "v": 53
    },
    {
      "midi": 57,
      "hit": false,
      "t": 159999.99999999994,
      "d": 1796.875,
      "v": 71
    },
    {
      "midi": 62,
      "hit": false,
      "t": 159999.99999999994,
      "d": 1869.791666666657,
      "v": 80
    },
    {
      "midi": 50,
      "hit": false,
      "t": 159999.99999999994,
      "d": 1872.395833333314,
      "v": 82
    },
    {
      "midi": 26,
      "hit": false,
      "t": 160000.00000000003,
      "d": 143.22916666668607,
      "v": 127
    },
    {
      "midi": 26,
      "hit": false,
      "t": 160125,
      "d": 7.8125,
      "v": 78
    },
    {
      "midi": 26,
      "hit": false,
      "t": 160250,
      "d": 7.8125,
      "v": 127
    },
    {
      "midi": 26,
      "hit": false,
      "t": 160250.00000000006,
      "d": 114.58333333334303,
      "v": 127
    },
    {
      "midi": 26,
      "hit": false,
      "t": 160375,
      "d": 91.14583333334303,
      "v": 51
    },
    {
      "midi": 26,
      "hit": false,
      "t": 160500,
      "d": 98.95833333334303,
      "v": 127
    },
    {
      "midi": 26,
      "hit": false,
      "t": 160500.00000000006,
      "d": 117.1875,
      "v": 127
    },
    {
      "midi": 26,
      "hit": false,
      "t": 160625,
      "d": 98.95833333334303,
      "v": 46
    },
    {
      "midi": 26,
      "hit": false,
      "t": 160750,
      "d": 117.1875,
      "v": 127
    },
    {
      "midi": 26,
      "hit": false,
      "t": 160750.00000000006,
      "d": 106.77083333334303,
      "v": 127
    },
    {
      "midi": 26,
      "hit": false,
      "t": 160875,
      "d": 117.1875,
      "v": 53
    },
    {
      "midi": 26,
      "hit": false,
      "t": 161000,
      "d": 122.39583333334303,
      "v": 127
    },
    {
      "midi": 26,
      "hit": false,
      "t": 161000.00000000006,
      "d": 114.58333333334303,
      "v": 127
    },
    {
      "midi": 26,
      "hit": false,
      "t": 161125,
      "d": 122.39583333334303,
      "v": 62
    },
    {
      "midi": 26,
      "hit": false,
      "t": 161250,
      "d": 125,
      "v": 127
    },
    {
      "midi": 26,
      "hit": false,
      "t": 161250.00000000006,
      "d": 106.77083333334303,
      "v": 127
    },
    {
      "midi": 26,
      "hit": false,
      "t": 161375,
      "d": 125,
      "v": 56
    },
    {
      "midi": 26,
      "hit": false,
      "t": 161500,
      "d": 125,
      "v": 127
    },
    {
      "midi": 26,
      "hit": false,
      "t": 161500.00000000006,
      "d": 106.77083333334303,
      "v": 127
    },
    {
      "midi": 26,
      "hit": false,
      "t": 161625,
      "d": 125,
      "v": 62
    },
    {
      "midi": 26,
      "hit": false,
      "t": 161750.00000000006,
      "d": 260.41666666665697,
      "v": 127
    },
    {
      "midi": 26,
      "hit": false,
      "t": 161875,
      "d": 20.833333333343035,
      "v": 56
    },
    {
      "midi": 52,
      "hit": false,
      "t": 161999.9999999999,
      "d": 1911.458333333343,
      "v": 95
    },
    {
      "midi": 64,
      "hit": false,
      "t": 161999.9999999999,
      "d": 1942.708333333343,
      "v": 69
    },
    {
      "midi": 59,
      "hit": false,
      "t": 161999.9999999999,
      "d": 1950.520833333343,
      "v": 69
    },
    {
      "midi": 28,
      "hit": false,
      "t": 162000.00000000006,
      "d": 132.8125,
      "v": 127
    },
    {
      "midi": 28,
      "hit": false,
      "t": 162125,
      "d": 13.020833333343035,
      "v": 53
    },
    {
      "midi": 28,
      "hit": false,
      "t": 162250,
      "d": 13.020833333343035,
      "v": 125
    },
    {
      "midi": 28,
      "hit": false,
      "t": 162250.00000000006,
      "d": 122.39583333334303,
      "v": 127
    },
    {
      "midi": 28,
      "hit": false,
      "t": 162375,
      "d": 119.79166666665697,
      "v": 40
    },
    {
      "midi": 28,
      "hit": false,
      "t": 162500.00000000006,
      "d": 125,
      "v": 127
    },
    {
      "midi": 28,
      "hit": false,
      "t": 162625,
      "d": 5.208333333343035,
      "v": 56
    },
    {
      "midi": 28,
      "hit": false,
      "t": 162750,
      "d": 5.208333333343035,
      "v": 127
    },
    {
      "midi": 81,
      "hit": false,
      "t": 162750.00000000003,
      "d": 736.979166666657,
      "v": 82
    },
    {
      "midi": 28,
      "hit": false,
      "t": 162750.00000000006,
      "d": 111.97916666665697,
      "v": 127
    },
    {
      "midi": 81,
      "hit": false,
      "t": 162750.00000000017,
      "d": 736.979166666657,
      "v": 82
    },
    {
      "midi": 28,
      "hit": false,
      "t": 162875,
      "d": 5.208333333343035,
      "v": 46
    },
    {
      "midi": 28,
      "hit": false,
      "t": 163000,
      "d": 5.208333333343035,
      "v": 127
    },
    {
      "midi": 28,
      "hit": false,
      "t": 163000.00000000006,
      "d": 114.58333333334303,
      "v": 127
    },
    {
      "midi": 28,
      "hit": false,
      "t": 163125,
      "d": 5.208333333343035,
      "v": 59
    },
    {
      "midi": 28,
      "hit": false,
      "t": 163250,
      "d": 5.208333333343035,
      "v": 127
    },
    {
      "midi": 28,
      "hit": false,
      "t": 163250.00000000006,
      "d": 106.77083333334303,
      "v": 127
    },
    {
      "midi": 28,
      "hit": false,
      "t": 163375,
      "d": 98.95833333334303,
      "v": 48
    },
    {
      "midi": 79,
      "hit": false,
      "t": 163500.00000000003,
      "d": 447.91666666665697,
      "v": 77
    },
    {
      "midi": 28,
      "hit": false,
      "t": 163500.00000000006,
      "d": 213.54166666665697,
      "v": 127
    },
    {
      "midi": 79,
      "hit": false,
      "t": 163500.00000000017,
      "d": 447.91666666665697,
      "v": 77
    },
    {
      "midi": 28,
      "hit": false,
      "t": 163625,
      "d": 78.125,
      "v": 69
    },
    {
      "midi": 31,
      "hit": false,
      "t": 163750.00000000006,
      "d": 252.60416666665697,
      "v": 127
    },
    {
      "midi": 31,
      "hit": false,
      "t": 163875,
      "d": 101.5625,
      "v": 65
    },
    {
      "midi": 62,
      "hit": false,
      "t": 163999.9999999999,
      "d": 1919.270833333343,
      "v": 74
    },
    {
      "midi": 57,
      "hit": false,
      "t": 163999.9999999999,
      "d": 1968.75,
      "v": 73
    },
    {
      "midi": 26,
      "hit": false,
      "t": 164000,
      "d": 83.33333333334303,
      "v": 122
    },
    {
      "midi": 57,
      "hit": false,
      "t": 164000,
      "d": 1882.8125,
      "v": 97
    },
    {
      "midi": 14,
      "hit": false,
      "t": 164000.00000000006,
      "d": 83.33333333331393,
      "v": 127
    },
    {
      "midi": 26,
      "hit": false,
      "t": 164125,
      "d": 83.33333333334303,
      "v": 71
    },
    {
      "midi": 14,
      "hit": false,
      "t": 164125.00000000003,
      "d": 83.33333333334303,
      "v": 127
    },
    {
      "midi": 26,
      "hit": false,
      "t": 164250,
      "d": 96.35416666665697,
      "v": 109
    },
    {
      "midi": 14,
      "hit": false,
      "t": 164250.00000000003,
      "d": 96.35416666665697,
      "v": 127
    },
    {
      "midi": 26,
      "hit": false,
      "t": 164375,
      "d": 96.35416666665697,
      "v": 58
    },
    {
      "midi": 14,
      "hit": false,
      "t": 164375.00000000003,
      "d": 96.35416666665697,
      "v": 127
    },
    {
      "midi": 69,
      "hit": false,
      "t": 164499.99999999997,
      "d": 96.35416666665697,
      "v": 103
    },
    {
      "midi": 26,
      "hit": false,
      "t": 164500,
      "d": 114.58333333334303,
      "v": 117
    },
    {
      "midi": 14,
      "hit": false,
      "t": 164500.00000000003,
      "d": 114.58333333334303,
      "v": 127
    },
    {
      "midi": 26,
      "hit": false,
      "t": 164625,
      "d": 114.58333333334303,
      "v": 66
    },
    {
      "midi": 14,
      "hit": false,
      "t": 164625.00000000003,
      "d": 114.58333333334303,
      "v": 127
    },
    {
      "midi": 26,
      "hit": false,
      "t": 164750,
      "d": 98.95833333334303,
      "v": 109
    },
    {
      "midi": 14,
      "hit": false,
      "t": 164750.00000000003,
      "d": 98.95833333334303,
      "v": 127
    },
    {
      "midi": 26,
      "hit": false,
      "t": 164875,
      "d": 98.95833333334303,
      "v": 58
    },
    {
      "midi": 14,
      "hit": false,
      "t": 164875.00000000003,
      "d": 98.95833333334303,
      "v": 127
    },
    {
      "midi": 26,
      "hit": false,
      "t": 165000,
      "d": 106.77083333334303,
      "v": 109
    },
    {
      "midi": 14,
      "hit": false,
      "t": 165000.00000000003,
      "d": 106.77083333334303,
      "v": 127
    },
    {
      "midi": 26,
      "hit": false,
      "t": 165125,
      "d": 106.77083333334303,
      "v": 58
    },
    {
      "midi": 14,
      "hit": false,
      "t": 165125.00000000003,
      "d": 106.77083333334303,
      "v": 127
    },
    {
      "midi": 26,
      "hit": false,
      "t": 165250,
      "d": 106.77083333334303,
      "v": 106
    },
    {
      "midi": 14,
      "hit": false,
      "t": 165250.00000000003,
      "d": 106.77083333334303,
      "v": 127
    },
    {
      "midi": 26,
      "hit": false,
      "t": 165375,
      "d": 106.77083333334303,
      "v": 55
    },
    {
      "midi": 14,
      "hit": false,
      "t": 165375.00000000003,
      "d": 106.77083333334303,
      "v": 127
    },
    {
      "midi": 69,
      "hit": false,
      "t": 165499.99999999997,
      "d": 114.58333333334303,
      "v": 109
    },
    {
      "midi": 26,
      "hit": false,
      "t": 165500,
      "d": 106.77083333334303,
      "v": 113
    },
    {
      "midi": 14,
      "hit": false,
      "t": 165500.00000000003,
      "d": 106.77083333334303,
      "v": 127
    },
    {
      "midi": 26,
      "hit": false,
      "t": 165625,
      "d": 106.77083333334303,
      "v": 62
    },
    {
      "midi": 14,
      "hit": false,
      "t": 165625.00000000003,
      "d": 106.77083333334303,
      "v": 127
    },
    {
      "midi": 26,
      "hit": false,
      "t": 165875,
      "d": 101.5625,
      "v": 71
    },
    {
      "midi": 14,
      "hit": false,
      "t": 165875.00000000003,
      "d": 101.5625,
      "v": 127
    },
    {
      "midi": 59,
      "hit": false,
      "t": 165999.9999999999,
      "d": 2023.4375,
      "v": 71
    },
    {
      "midi": 64,
      "hit": false,
      "t": 165999.9999999999,
      "d": 2067.708333333343,
      "v": 72
    },
    {
      "midi": 52,
      "hit": false,
      "t": 166000,
      "d": 1898.4375,
      "v": 97
    },
    {
      "midi": 28,
      "hit": false,
      "t": 166125,
      "d": 15.625,
      "v": 55
    },
    {
      "midi": 16,
      "hit": false,
      "t": 166125.00000000003,
      "d": 15.625,
      "v": 127
    },
    {
      "midi": 28,
      "hit": false,
      "t": 166250,
      "d": 15.625,
      "v": 100
    },
    {
      "midi": 16,
      "hit": false,
      "t": 166250.00000000003,
      "d": 15.625,
      "v": 127
    },
    {
      "midi": 28,
      "hit": false,
      "t": 166375,
      "d": 98.95833333334303,
      "v": 49
    },
    {
      "midi": 16,
      "hit": false,
      "t": 166375.00000000003,
      "d": 98.95833333334303,
      "v": 127
    },
    {
      "midi": 69,
      "hit": false,
      "t": 166499.99999999997,
      "d": 179.6875,
      "v": 106
    },
    {
      "midi": 28,
      "hit": false,
      "t": 166500,
      "d": 117.1875,
      "v": 103
    },
    {
      "midi": 16,
      "hit": false,
      "t": 166500.00000000003,
      "d": 117.1875,
      "v": 127
    },
    {
      "midi": 28,
      "hit": false,
      "t": 166625,
      "d": 117.1875,
      "v": 52
    },
    {
      "midi": 16,
      "hit": false,
      "t": 166625.00000000003,
      "d": 117.1875,
      "v": 127
    },
    {
      "midi": 28,
      "hit": false,
      "t": 166750,
      "d": 114.58333333334303,
      "v": 92
    },
    {
      "midi": 16,
      "hit": false,
      "t": 166750.00000000003,
      "d": 114.58333333334303,
      "v": 127
    },
    {
      "midi": 81,
      "hit": false,
      "t": 166750.00000000003,
      "d": 309.89583333334303,
      "v": 90
    },
    {
      "midi": 81,
      "hit": false,
      "t": 166750.00000000017,
      "d": 309.89583333334303,
      "v": 90
    },
    {
      "midi": 28,
      "hit": false,
      "t": 166875,
      "d": 114.58333333334303,
      "v": 41
    },
    {
      "midi": 16,
      "hit": false,
      "t": 166875.00000000003,
      "d": 114.58333333334303,
      "v": 127
    },
    {
      "midi": 28,
      "hit": false,
      "t": 167000,
      "d": 114.58333333334303,
      "v": 100
    },
    {
      "midi": 16,
      "hit": false,
      "t": 167000.00000000003,
      "d": 114.58333333334303,
      "v": 127
    },
    {
      "midi": 28,
      "hit": false,
      "t": 167125,
      "d": 114.58333333334303,
      "v": 49
    },
    {
      "midi": 16,
      "hit": false,
      "t": 167125.00000000003,
      "d": 114.58333333334303,
      "v": 127
    },
    {
      "midi": 28,
      "hit": false,
      "t": 167250,
      "d": 98.95833333334303,
      "v": 103
    },
    {
      "midi": 16,
      "hit": false,
      "t": 167250.00000000003,
      "d": 98.95833333334303,
      "v": 127
    },
    {
      "midi": 28,
      "hit": false,
      "t": 167375,
      "d": 98.95833333334303,
      "v": 52
    },
    {
      "midi": 16,
      "hit": false,
      "t": 167375.00000000003,
      "d": 98.95833333334303,
      "v": 127
    },
    {
      "midi": 69,
      "hit": false,
      "t": 167499.99999999997,
      "d": 156.25,
      "v": 113
    },
    {
      "midi": 28,
      "hit": false,
      "t": 167500,
      "d": 98.95833333334303,
      "v": 103
    },
    {
      "midi": 16,
      "hit": false,
      "t": 167500.00000000003,
      "d": 98.95833333334303,
      "v": 127
    },
    {
      "midi": 79,
      "hit": false,
      "t": 167500.00000000003,
      "d": 442.70833333334303,
      "v": 76
    },
    {
      "midi": 79,
      "hit": false,
      "t": 167500.00000000017,
      "d": 442.70833333334303,
      "v": 76
    },
    {
      "midi": 28,
      "hit": false,
      "t": 167625,
      "d": 98.95833333334303,
      "v": 52
    },
    {
      "midi": 16,
      "hit": false,
      "t": 167625.00000000003,
      "d": 98.95833333334303,
      "v": 127
    },
    {
      "midi": 53,
      "hit": false,
      "t": 167750,
      "d": 2067.708333333343,
      "v": 103
    },
    {
      "midi": 28,
      "hit": false,
      "t": 167875,
      "d": 125,
      "v": 71
    },
    {
      "midi": 16,
      "hit": false,
      "t": 167875.00000000003,
      "d": 125,
      "v": 127
    },
    {
      "midi": 60,
      "hit": false,
      "t": 167999.9999999999,
      "d": 1955.729166666686,
      "v": 80
    },
    {
      "midi": 65,
      "hit": false,
      "t": 167999.9999999999,
      "d": 1986.979166666686,
      "v": 71
    },
    {
      "midi": 81,
      "hit": false,
      "t": 168000.00000000003,
      "d": 1997.395833333343,
      "v": 72
    },
    {
      "midi": 81,
      "hit": false,
      "t": 168000.00000000017,
      "d": 1997.395833333343,
      "v": 72
    },
    {
      "midi": 29,
      "hit": false,
      "t": 168125,
      "d": 5.208333333343035,
      "v": 49
    },
    {
      "midi": 17,
      "hit": false,
      "t": 168125.00000000003,
      "d": 5.208333333343035,
      "v": 127
    },
    {
      "midi": 29,
      "hit": false,
      "t": 168250,
      "d": 5.208333333343035,
      "v": 103
    },
    {
      "midi": 17,
      "hit": false,
      "t": 168250.00000000003,
      "d": 5.208333333343035,
      "v": 127
    },
    {
      "midi": 29,
      "hit": false,
      "t": 168375,
      "d": 98.95833333334303,
      "v": 52
    },
    {
      "midi": 17,
      "hit": false,
      "t": 168375.00000000003,
      "d": 98.95833333334303,
      "v": 127
    },
    {
      "midi": 69,
      "hit": false,
      "t": 168499.99999999997,
      "d": 122.39583333334303,
      "v": 117
    },
    {
      "midi": 29,
      "hit": false,
      "t": 168500,
      "d": 114.58333333334303,
      "v": 106
    },
    {
      "midi": 17,
      "hit": false,
      "t": 168500.00000000003,
      "d": 114.58333333334303,
      "v": 127
    },
    {
      "midi": 29,
      "hit": false,
      "t": 168625,
      "d": 114.58333333334303,
      "v": 55
    },
    {
      "midi": 17,
      "hit": false,
      "t": 168625.00000000003,
      "d": 114.58333333334303,
      "v": 127
    },
    {
      "midi": 29,
      "hit": false,
      "t": 168750,
      "d": 114.58333333334303,
      "v": 106
    },
    {
      "midi": 17,
      "hit": false,
      "t": 168750.00000000003,
      "d": 114.58333333334303,
      "v": 127
    },
    {
      "midi": 29,
      "hit": false,
      "t": 168875,
      "d": 114.58333333334303,
      "v": 55
    },
    {
      "midi": 17,
      "hit": false,
      "t": 168875.00000000003,
      "d": 114.58333333334303,
      "v": 127
    },
    {
      "midi": 29,
      "hit": false,
      "t": 169000,
      "d": 114.58333333334303,
      "v": 117
    },
    {
      "midi": 17,
      "hit": false,
      "t": 169000.00000000003,
      "d": 114.58333333334303,
      "v": 127
    },
    {
      "midi": 29,
      "hit": false,
      "t": 169125,
      "d": 114.58333333334303,
      "v": 66
    },
    {
      "midi": 17,
      "hit": false,
      "t": 169125.00000000003,
      "d": 114.58333333334303,
      "v": 127
    },
    {
      "midi": 29,
      "hit": false,
      "t": 169250,
      "d": 96.35416666665697,
      "v": 106
    },
    {
      "midi": 17,
      "hit": false,
      "t": 169250.00000000003,
      "d": 96.35416666665697,
      "v": 127
    },
    {
      "midi": 29,
      "hit": false,
      "t": 169375,
      "d": 96.35416666665697,
      "v": 55
    },
    {
      "midi": 17,
      "hit": false,
      "t": 169375.00000000003,
      "d": 96.35416666665697,
      "v": 127
    },
    {
      "midi": 69,
      "hit": false,
      "t": 169499.99999999997,
      "d": 106.77083333334303,
      "v": 117
    },
    {
      "midi": 29,
      "hit": false,
      "t": 169500,
      "d": 106.77083333334303,
      "v": 113
    },
    {
      "midi": 17,
      "hit": false,
      "t": 169500.00000000003,
      "d": 106.77083333334303,
      "v": 127
    },
    {
      "midi": 29,
      "hit": false,
      "t": 169625,
      "d": 106.77083333334303,
      "v": 62
    },
    {
      "midi": 17,
      "hit": false,
      "t": 169625.00000000003,
      "d": 106.77083333334303,
      "v": 127
    },
    {
      "midi": 29,
      "hit": false,
      "t": 169875,
      "d": 85.9375,
      "v": 55
    },
    {
      "midi": 17,
      "hit": false,
      "t": 169875.00000000003,
      "d": 85.9375,
      "v": 127
    },
    {
      "midi": 62,
      "hit": false,
      "t": 169999.99999999994,
      "d": 1992.1875,
      "v": 76
    },
    {
      "midi": 67,
      "hit": false,
      "t": 169999.99999999994,
      "d": 2002.604166666657,
      "v": 73
    },
    {
      "midi": 50,
      "hit": false,
      "t": 170000,
      "d": 1835.9375,
      "v": 100
    },
    {
      "midi": 31,
      "hit": false,
      "t": 170125,
      "d": 2.6041666666569654,
      "v": 29
    },
    {
      "midi": 19,
      "hit": false,
      "t": 170125.00000000003,
      "d": 2.6041666666569654,
      "v": 127
    },
    {
      "midi": 31,
      "hit": false,
      "t": 170250,
      "d": 2.6041666666569654,
      "v": 109
    },
    {
      "midi": 19,
      "hit": false,
      "t": 170250.00000000003,
      "d": 2.6041666666569654,
      "v": 127
    },
    {
      "midi": 31,
      "hit": false,
      "t": 170375,
      "d": 83.33333333334303,
      "v": 58
    },
    {
      "midi": 19,
      "hit": false,
      "t": 170375.00000000003,
      "d": 83.33333333334303,
      "v": 127
    },
    {
      "midi": 69,
      "hit": false,
      "t": 170499.99999999997,
      "d": 104.16666666665697,
      "v": 117
    },
    {
      "midi": 31,
      "hit": false,
      "t": 170500,
      "d": 98.95833333334303,
      "v": 106
    },
    {
      "midi": 19,
      "hit": false,
      "t": 170500.00000000003,
      "d": 98.95833333334303,
      "v": 127
    },
    {
      "midi": 31,
      "hit": false,
      "t": 170625,
      "d": 98.95833333334303,
      "v": 55
    },
    {
      "midi": 19,
      "hit": false,
      "t": 170625.00000000003,
      "d": 98.95833333334303,
      "v": 127
    },
    {
      "midi": 31,
      "hit": false,
      "t": 170750,
      "d": 88.54166666665697,
      "v": 113
    },
    {
      "midi": 19,
      "hit": false,
      "t": 170750.00000000003,
      "d": 88.54166666665697,
      "v": 127
    },
    {
      "midi": 31,
      "hit": false,
      "t": 170875,
      "d": 88.54166666665697,
      "v": 62
    },
    {
      "midi": 19,
      "hit": false,
      "t": 170875.00000000003,
      "d": 88.54166666665697,
      "v": 127
    },
    {
      "midi": 31,
      "hit": false,
      "t": 171000,
      "d": 91.14583333334303,
      "v": 113
    },
    {
      "midi": 19,
      "hit": false,
      "t": 171000.00000000003,
      "d": 91.14583333334303,
      "v": 127
    },
    {
      "midi": 31,
      "hit": false,
      "t": 171125,
      "d": 91.14583333334303,
      "v": 62
    },
    {
      "midi": 19,
      "hit": false,
      "t": 171125.00000000003,
      "d": 91.14583333334303,
      "v": 127
    },
    {
      "midi": 31,
      "hit": false,
      "t": 171250,
      "d": 91.14583333334303,
      "v": 109
    },
    {
      "midi": 19,
      "hit": false,
      "t": 171250.00000000003,
      "d": 91.14583333334303,
      "v": 127
    },
    {
      "midi": 64,
      "hit": false,
      "t": 171250.00000000017,
      "d": 273.4375,
      "v": 109
    },
    {
      "midi": 31,
      "hit": false,
      "t": 171375,
      "d": 91.14583333334303,
      "v": 58
    },
    {
      "midi": 19,
      "hit": false,
      "t": 171375.00000000003,
      "d": 91.14583333334303,
      "v": 127
    },
    {
      "midi": 69,
      "hit": false,
      "t": 171499.99999999997,
      "d": 88.54166666665697,
      "v": 113
    },
    {
      "midi": 31,
      "hit": false,
      "t": 171500,
      "d": 83.33333333334303,
      "v": 106
    },
    {
      "midi": 19,
      "hit": false,
      "t": 171500.00000000003,
      "d": 83.33333333334303,
      "v": 127
    },
    {
      "midi": 71,
      "hit": false,
      "t": 171500.00000000017,
      "d": 294.27083333334303,
      "v": 103
    },
    {
      "midi": 31,
      "hit": false,
      "t": 171625,
      "d": 83.33333333334303,
      "v": 55
    },
    {
      "midi": 19,
      "hit": false,
      "t": 171625.00000000003,
      "d": 83.33333333334303,
      "v": 127
    },
    {
      "midi": 76,
      "hit": false,
      "t": 171750,
      "d": 197.91666666665697,
      "v": 103
    },
    {
      "midi": 88,
      "hit": false,
      "t": 171750,
      "d": 226.5625,
      "v": 92
    },
    {
      "midi": 76,
      "hit": false,
      "t": 171750.00000000017,
      "d": 143.22916666668607,
      "v": 100
    },
    {
      "midi": 88,
      "hit": false,
      "t": 171750.00000000017,
      "d": 143.22916666668607,
      "v": 100
    },
    {
      "midi": 31,
      "hit": false,
      "t": 171875,
      "d": 39.0625,
      "v": 66
    },
    {
      "midi": 19,
      "hit": false,
      "t": 171875.00000000003,
      "d": 39.0625,
      "v": 127
    },
    {
      "midi": 57,
      "hit": false,
      "t": 171999.99999999994,
      "d": 1973.958333333343,
      "v": 88
    },
    {
      "midi": 69,
      "hit": false,
      "t": 171999.99999999997,
      "d": 414.0625,
      "v": 103
    },
    {
      "midi": 33,
      "hit": false,
      "t": 172000,
      "d": 109.375,
      "v": 127
    },
    {
      "midi": 48,
      "hit": false,
      "t": 172000,
      "d": 1929.6875,
      "v": 47
    },
    {
      "midi": 45,
      "hit": false,
      "t": 172000,
      "d": 2020.833333333314,
      "v": 44
    },
    {
      "midi": 33,
      "hit": false,
      "t": 172000.00000000003,
      "d": 114.58333333334303,
      "v": 127
    },
    {
      "midi": 60,
      "hit": false,
      "t": 172010.41666666666,
      "d": 28.645833333343035,
      "v": 49
    },
    {
      "midi": 33,
      "hit": false,
      "t": 172125,
      "d": 109.375,
      "v": 90
    },
    {
      "midi": 33,
      "hit": false,
      "t": 172250,
      "d": 101.5625,
      "v": 101
    },
    {
      "midi": 33,
      "hit": false,
      "t": 172250.00000000003,
      "d": 91.14583333334303,
      "v": 127
    },
    {
      "midi": 33,
      "hit": false,
      "t": 172375,
      "d": 101.5625,
      "v": 64
    },
    {
      "midi": 72,
      "hit": false,
      "t": 172499.99999999997,
      "d": 335.9375,
      "v": 106
    },
    {
      "midi": 31,
      "hit": false,
      "t": 172500.00000000003,
      "d": 28.645833333343035,
      "v": 127
    },
    {
      "midi": 33,
      "hit": false,
      "t": 172500.00000000003,
      "d": 67.70833333334303,
      "v": 127
    },
    {
      "midi": 33,
      "hit": false,
      "t": 172625,
      "d": 10.416666666656965,
      "v": 90
    },
    {
      "midi": 33,
      "hit": false,
      "t": 172750,
      "d": 10.416666666656965,
      "v": 111
    },
    {
      "midi": 33,
      "hit": false,
      "t": 172750.00000000003,
      "d": 117.1875,
      "v": 127
    },
    {
      "midi": 64,
      "hit": false,
      "t": 172874.99999999997,
      "d": 263.02083333334303,
      "v": 100
    },
    {
      "midi": 33,
      "hit": false,
      "t": 172875,
      "d": 101.5625,
      "v": 74
    },
    {
      "midi": 33,
      "hit": false,
      "t": 173000,
      "d": 125,
      "v": 127
    },
    {
      "midi": 33,
      "hit": false,
      "t": 173000.00000000003,
      "d": 98.95833333334303,
      "v": 127
    },
    {
      "midi": 33,
      "hit": false,
      "t": 173125,
      "d": 125,
      "v": 90
    },
    {
      "midi": 64,
      "hit": false,
      "t": 173249.99999999997,
      "d": 278.64583333334303,
      "v": 103
    },
    {
      "midi": 33,
      "hit": false,
      "t": 173250,
      "d": 104.16666666665697,
      "v": 116
    },
    {
      "midi": 33,
      "hit": false,
      "t": 173250.00000000003,
      "d": 101.5625,
      "v": 127
    },
    {
      "midi": 33,
      "hit": false,
      "t": 173375,
      "d": 104.16666666665697,
      "v": 79
    },
    {
      "midi": 67,
      "hit": false,
      "t": 173499.99999999997,
      "d": 447.91666666668607,
      "v": 100
    },
    {
      "midi": 33,
      "hit": false,
      "t": 173500.00000000003,
      "d": 216.14583333334303,
      "v": 127
    },
    {
      "midi": 33,
      "hit": false,
      "t": 173625,
      "d": 109.375,
      "v": 90
    },
    {
      "midi": 31,
      "hit": false,
      "t": 173750.00000000003,
      "d": 265.625,
      "v": 127
    },
    {
      "midi": 31,
      "hit": false,
      "t": 173875,
      "d": 106.77083333334303,
      "v": 81
    },
    {
      "midi": 50,
      "hit": false,
      "t": 173942.70833333334,
      "d": 1039.062499999971,
      "v": 53
    },
    {
      "midi": 62,
      "hit": false,
      "t": 173945.31249999994,
      "d": 1015.625,
      "v": 81
    },
    {
      "midi": 62,
      "hit": false,
      "t": 173945.3125,
      "d": 976.5625,
      "v": 75
    },
    {
      "midi": 50,
      "hit": false,
      "t": 173947.91666666666,
      "d": 1059.895833333314,
      "v": 58
    },
    {
      "midi": 38,
      "hit": false,
      "t": 174000,
      "d": 117.1875,
      "v": 118
    },
    {
      "midi": 69,
      "hit": false,
      "t": 174000,
      "d": 463.54166666665697,
      "v": 106
    },
    {
      "midi": 38,
      "hit": false,
      "t": 174000.00000000003,
      "d": 132.8125,
      "v": 127
    },
    {
      "midi": 38,
      "hit": false,
      "t": 174125,
      "d": 117.1875,
      "v": 81
    },
    {
      "midi": 38,
      "hit": false,
      "t": 174250,
      "d": 114.58333333334303,
      "v": 118
    },
    {
      "midi": 38,
      "hit": false,
      "t": 174250.00000000003,
      "d": 109.375,
      "v": 127
    },
    {
      "midi": 38,
      "hit": false,
      "t": 174375,
      "d": 114.58333333334303,
      "v": 81
    },
    {
      "midi": 38,
      "hit": false,
      "t": 174500,
      "d": 117.1875,
      "v": 118
    },
    {
      "midi": 72,
      "hit": false,
      "t": 174500,
      "d": 351.5625,
      "v": 90
    },
    {
      "midi": 38,
      "hit": false,
      "t": 174500.00000000003,
      "d": 111.97916666665697,
      "v": 127
    },
    {
      "midi": 38,
      "hit": false,
      "t": 174625,
      "d": 117.1875,
      "v": 81
    },
    {
      "midi": 64,
      "hit": false,
      "t": 174750,
      "d": 268.22916666665697,
      "v": 100
    },
    {
      "midi": 38,
      "hit": false,
      "t": 174750.00000000003,
      "d": 192.70833333334303,
      "v": 127
    },
    {
      "midi": 38,
      "hit": false,
      "t": 174875,
      "d": 117.1875,
      "v": 87
    },
    {
      "midi": 64,
      "hit": false,
      "t": 174940.10416666666,
      "d": 1013.0208333333139,
      "v": 70
    },
    {
      "midi": 59,
      "hit": false,
      "t": 174960.93749999994,
      "d": 968.75,
      "v": 81
    },
    {
      "midi": 52,
      "hit": false,
      "t": 174997.3958333333,
      "d": 789.0625,
      "v": 53
    },
    {
      "midi": 28,
      "hit": false,
      "t": 175000.00000000003,
      "d": 156.25,
      "v": 127
    },
    {
      "midi": 28,
      "hit": false,
      "t": 175125,
      "d": 18.229166666656965,
      "v": 87
    },
    {
      "midi": 64,
      "hit": false,
      "t": 175125,
      "d": 286.45833333334303,
      "v": 103
    },
    {
      "midi": 28,
      "hit": false,
      "t": 175250,
      "d": 18.229166666656965,
      "v": 113
    },
    {
      "midi": 28,
      "hit": false,
      "t": 175250.00000000003,
      "d": 122.39583333334303,
      "v": 127
    },
    {
      "midi": 28,
      "hit": false,
      "t": 175375,
      "d": 101.5625,
      "v": 76
    },
    {
      "midi": 67,
      "hit": false,
      "t": 175500,
      "d": 429.6875,
      "v": 100
    },
    {
      "midi": 28,
      "hit": false,
      "t": 175500.00000000003,
      "d": 119.79166666665697,
      "v": 127
    },
    {
      "midi": 28,
      "hit": false,
      "t": 175625,
      "d": 2.6041666666569654,
      "v": 90
    },
    {
      "midi": 28,
      "hit": false,
      "t": 175750,
      "d": 2.6041666666569654,
      "v": 124
    },
    {
      "midi": 28,
      "hit": false,
      "t": 175750.00000000003,
      "d": 257.8125,
      "v": 127
    },
    {
      "midi": 28,
      "hit": false,
      "t": 175875,
      "d": 138.02083333334303,
      "v": 87
    },
    {
      "midi": 57,
      "hit": false,
      "t": 175940.1041666666,
      "d": 2028.645833333314,
      "v": 75
    },
    {
      "midi": 60,
      "hit": false,
      "t": 175942.7083333333,
      "d": 2031.249999999971,
      "v": 77
    },
    {
      "midi": 45,
      "hit": false,
      "t": 175973.9583333333,
      "d": 2028.645833333314,
      "v": 56
    },
    {
      "midi": 69,
      "hit": false,
      "t": 176000,
      "d": 414.0625,
      "v": 103
    },
    {
      "midi": 33,
      "hit": false,
      "t": 176000.00000000003,
      "d": 127.60416666665697,
      "v": 127
    },
    {
      "midi": 33,
      "hit": false,
      "t": 176125,
      "d": 7.8125,
      "v": 90
    },
    {
      "midi": 33,
      "hit": false,
      "t": 176250,
      "d": 7.8125,
      "v": 111
    },
    {
      "midi": 33,
      "hit": false,
      "t": 176250.00000000003,
      "d": 114.58333333334303,
      "v": 127
    },
    {
      "midi": 33,
      "hit": false,
      "t": 176375,
      "d": 98.95833333334303,
      "v": 74
    },
    {
      "midi": 33,
      "hit": false,
      "t": 176500,
      "d": 119.79166666665697,
      "v": 127
    },
    {
      "midi": 72,
      "hit": false,
      "t": 176500,
      "d": 335.9375,
      "v": 106
    },
    {
      "midi": 33,
      "hit": false,
      "t": 176500.00000000003,
      "d": 119.79166666665697,
      "v": 127
    },
    {
      "midi": 33,
      "hit": false,
      "t": 176625,
      "d": 119.79166666665697,
      "v": 90
    },
    {
      "midi": 33,
      "hit": false,
      "t": 176750,
      "d": 91.14583333334303,
      "v": 113
    },
    {
      "midi": 33,
      "hit": false,
      "t": 176750.00000000003,
      "d": 98.95833333334303,
      "v": 127
    },
    {
      "midi": 33,
      "hit": false,
      "t": 176875,
      "d": 91.14583333334303,
      "v": 76
    },
    {
      "midi": 64,
      "hit": false,
      "t": 176875,
      "d": 263.02083333334303,
      "v": 100
    },
    {
      "midi": 33,
      "hit": false,
      "t": 177000,
      "d": 114.58333333334303,
      "v": 127
    },
    {
      "midi": 33,
      "hit": false,
      "t": 177000.00000000003,
      "d": 125,
      "v": 127
    },
    {
      "midi": 33,
      "hit": false,
      "t": 177125,
      "d": 114.58333333334303,
      "v": 90
    },
    {
      "midi": 33,
      "hit": false,
      "t": 177250,
      "d": 98.95833333334303,
      "v": 127
    },
    {
      "midi": 64,
      "hit": false,
      "t": 177250,
      "d": 278.64583333334303,
      "v": 103
    },
    {
      "midi": 33,
      "hit": false,
      "t": 177250.00000000003,
      "d": 101.5625,
      "v": 127
    },
    {
      "midi": 33,
      "hit": false,
      "t": 177375,
      "d": 98.95833333334303,
      "v": 90
    },
    {
      "midi": 67,
      "hit": false,
      "t": 177500,
      "d": 447.91666666668607,
      "v": 100
    },
    {
      "midi": 33,
      "hit": false,
      "t": 177500.00000000003,
      "d": 216.14583333334303,
      "v": 127
    },
    {
      "midi": 33,
      "hit": false,
      "t": 177625,
      "d": 106.77083333334303,
      "v": 90
    },
    {
      "midi": 31,
      "hit": false,
      "t": 177750.00000000003,
      "d": 231.77083333334303,
      "v": 127
    },
    {
      "midi": 31,
      "hit": false,
      "t": 177875,
      "d": 111.97916666665697,
      "v": 76
    },
    {
      "midi": 50,
      "hit": false,
      "t": 177929.68749999997,
      "d": 1062.499999999971,
      "v": 57
    },
    {
      "midi": 62,
      "hit": false,
      "t": 177937.49999999997,
      "d": 1010.416666666657,
      "v": 77
    },
    {
      "midi": 62,
      "hit": false,
      "t": 177958.33333333326,
      "d": 1023.4374999999709,
      "v": 73
    },
    {
      "midi": 50,
      "hit": false,
      "t": 177963.54166666663,
      "d": 953.125,
      "v": 58
    },
    {
      "midi": 38,
      "hit": false,
      "t": 178000.00000000003,
      "d": 119.79166666665697,
      "v": 127
    },
    {
      "midi": 69,
      "hit": false,
      "t": 178000.00000000003,
      "d": 463.54166666665697,
      "v": 106
    },
    {
      "midi": 38,
      "hit": false,
      "t": 178125,
      "d": 2.6041666666569654,
      "v": 84
    },
    {
      "midi": 38,
      "hit": false,
      "t": 178250,
      "d": 2.6041666666569654,
      "v": 124
    },
    {
      "midi": 38,
      "hit": false,
      "t": 178250.00000000003,
      "d": 106.77083333334303,
      "v": 127
    },
    {
      "midi": 38,
      "hit": false,
      "t": 178375,
      "d": 98.95833333334303,
      "v": 87
    },
    {
      "midi": 38,
      "hit": false,
      "t": 178500.00000000003,
      "d": 117.1875,
      "v": 127
    },
    {
      "midi": 72,
      "hit": false,
      "t": 178500.00000000003,
      "d": 351.5625,
      "v": 90
    },
    {
      "midi": 38,
      "hit": false,
      "t": 178625,
      "d": 2.6041666666569654,
      "v": 90
    },
    {
      "midi": 38,
      "hit": false,
      "t": 178750,
      "d": 2.6041666666569654,
      "v": 127
    },
    {
      "midi": 38,
      "hit": false,
      "t": 178750.00000000003,
      "d": 226.5625,
      "v": 127
    },
    {
      "midi": 64,
      "hit": false,
      "t": 178750.00000000003,
      "d": 268.22916666665697,
      "v": 100
    },
    {
      "midi": 38,
      "hit": false,
      "t": 178875,
      "d": 125,
      "v": 90
    },
    {
      "midi": 64,
      "hit": false,
      "t": 178958.33333333328,
      "d": 1002.604166666657,
      "v": 75
    },
    {
      "midi": 59,
      "hit": false,
      "t": 178971.35416666657,
      "d": 971.354166666657,
      "v": 79
    },
    {
      "midi": 52,
      "hit": false,
      "t": 178981.77083333328,
      "d": 934.8958333333139,
      "v": 61
    },
    {
      "midi": 28,
      "hit": false,
      "t": 179000.00000000003,
      "d": 140.625,
      "v": 127
    },
    {
      "midi": 28,
      "hit": false,
      "t": 179125,
      "d": 15.625,
      "v": 90
    },
    {
      "midi": 64,
      "hit": false,
      "t": 179125.00000000003,
      "d": 286.45833333334303,
      "v": 103
    },
    {
      "midi": 28,
      "hit": false,
      "t": 179250,
      "d": 15.625,
      "v": 118
    },
    {
      "midi": 28,
      "hit": false,
      "t": 179250.00000000003,
      "d": 106.77083333334303,
      "v": 127
    },
    {
      "midi": 28,
      "hit": false,
      "t": 179375,
      "d": 98.95833333334303,
      "v": 81
    },
    {
      "midi": 28,
      "hit": false,
      "t": 179500,
      "d": 117.1875,
      "v": 127
    },
    {
      "midi": 28,
      "hit": false,
      "t": 179500.00000000003,
      "d": 117.1875,
      "v": 127
    },
    {
      "midi": 67,
      "hit": false,
      "t": 179500.00000000003,
      "d": 429.6875,
      "v": 100
    },
    {
      "midi": 28,
      "hit": false,
      "t": 179625,
      "d": 117.1875,
      "v": 90
    },
    {
      "midi": 28,
      "hit": false,
      "t": 179750.00000000003,
      "d": 164.0625,
      "v": 127
    },
    {
      "midi": 28,
      "hit": false,
      "t": 179875,
      "d": 70.3125,
      "v": 90
    },
    {
      "midi": 60,
      "hit": false,
      "t": 179999.99999999988,
      "d": 1981.770833333343,
      "v": 86
    },
    {
      "midi": 69,
      "hit": false,
      "t": 179999.99999999994,
      "d": 1942.708333333343,
      "v": 81
    },
    {
      "midi": 29,
      "hit": false,
      "t": 180000.00000000003,
      "d": 1851.5625,
      "v": 127
    },
    {
      "midi": 69,
      "hit": false,
      "t": 180000.00000000003,
      "d": 1885.416666666657,
      "v": 59
    },
    {
      "midi": 72,
      "hit": false,
      "t": 180000.00000000003,
      "d": 1890.625,
      "v": 65
    },
    {
      "midi": 69,
      "hit": false,
      "t": 180000.0000000002,
      "d": 1971.354166666657,
      "v": 76
    },
    {
      "midi": 69,
      "hit": false,
      "t": 180500.00000000003,
      "d": 731.770833333343,
      "v": 100
    },
    {
      "midi": 69,
      "hit": false,
      "t": 181500.00000000003,
      "d": 833.333333333343,
      "v": 113
    },
    {
      "midi": 59,
      "hit": false,
      "t": 181999.99999999988,
      "d": 2049.479166666657,
      "v": 68
    },
    {
      "midi": 67,
      "hit": false,
      "t": 181999.99999999994,
      "d": 1971.354166666657,
      "v": 70
    },
    {
      "midi": 28,
      "hit": false,
      "t": 182000.00000000003,
      "d": 1825.520833333343,
      "v": 127
    },
    {
      "midi": 69,
      "hit": false,
      "t": 182000.00000000003,
      "d": 1895.833333333343,
      "v": 48
    },
    {
      "midi": 74,
      "hit": false,
      "t": 182000.00000000003,
      "d": 1906.25,
      "v": 61
    },
    {
      "midi": 71,
      "hit": false,
      "t": 182000.0000000002,
      "d": 2000,
      "v": 76
    },
    {
      "midi": 69,
      "hit": false,
      "t": 182500.00000000003,
      "d": 789.0625,
      "v": 113
    },
    {
      "midi": 69,
      "hit": false,
      "t": 183500.00000000003,
      "d": 783.854166666657,
      "v": 113
    },
    {
      "midi": 57,
      "hit": false,
      "t": 183999.99999999988,
      "d": 3986.979166666657,
      "v": 68
    },
    {
      "midi": 64,
      "hit": false,
      "t": 183999.99999999994,
      "d": 2026.041666666657,
      "v": 72
    },
    {
      "midi": 30,
      "hit": false,
      "t": 184000.00000000003,
      "d": 1161.458333333343,
      "v": 127
    },
    {
      "midi": 76,
      "hit": false,
      "t": 184000.00000000003,
      "d": 1906.25,
      "v": 69
    },
    {
      "midi": 69,
      "hit": false,
      "t": 184000.00000000003,
      "d": 1916.666666666657,
      "v": 65
    },
    {
      "midi": 74,
      "hit": false,
      "t": 184000.0000000002,
      "d": 2049.479166666657,
      "v": 68
    },
    {
      "midi": 69,
      "hit": false,
      "t": 184500.00000000003,
      "d": 671.875,
      "v": 109
    },
    {
      "midi": 30,
      "hit": false,
      "t": 185250.00000000003,
      "d": 265.625,
      "v": 127
    },
    {
      "midi": 42,
      "hit": false,
      "t": 185500.00000000003,
      "d": 411.45833333334303,
      "v": 127
    },
    {
      "midi": 69,
      "hit": false,
      "t": 185500.00000000003,
      "d": 825.520833333343,
      "v": 113
    },
    {
      "midi": 30,
      "hit": false,
      "t": 185750.00000000003,
      "d": 265.625,
      "v": 127
    },
    {
      "midi": 62,
      "hit": false,
      "t": 185999.99999999994,
      "d": 2041.666666666657,
      "v": 74
    },
    {
      "midi": 29,
      "hit": false,
      "t": 186000.00000000003,
      "d": 1575.520833333343,
      "v": 127
    },
    {
      "midi": 69,
      "hit": false,
      "t": 186000.00000000003,
      "d": 1809.895833333343,
      "v": 51
    },
    {
      "midi": 74,
      "hit": false,
      "t": 186000.00000000003,
      "d": 1828.125,
      "v": 57
    },
    {
      "midi": 72,
      "hit": false,
      "t": 186000.0000000002,
      "d": 1953.125,
      "v": 56
    },
    {
      "midi": 69,
      "hit": false,
      "t": 186500.00000000003,
      "d": 763.020833333343,
      "v": 113
    },
    {
      "midi": 69,
      "hit": false,
      "t": 187500.00000000003,
      "d": 799.479166666657,
      "v": 109
    },
    {
      "midi": 60,
      "hit": false,
      "t": 187999.99999999988,
      "d": 1971.354166666657,
      "v": 89
    },
    {
      "midi": 69,
      "hit": false,
      "t": 187999.99999999994,
      "d": 2044.270833333343,
      "v": 66
    },
    {
      "midi": 33,
      "hit": false,
      "t": 188000.00000000003,
      "d": 1627.604166666657,
      "v": 127
    },
    {
      "midi": 69,
      "hit": false,
      "t": 188000.00000000003,
      "d": 1888.020833333343,
      "v": 69
    },
    {
      "midi": 72,
      "hit": false,
      "t": 188000.00000000003,
      "d": 1898.4375,
      "v": 74
    },
    {
      "midi": 69,
      "hit": false,
      "t": 188000.0000000002,
      "d": 3885.416666666686,
      "v": 78
    },
    {
      "midi": 69,
      "hit": false,
      "t": 188500.00000000003,
      "d": 770.833333333343,
      "v": 109
    },
    {
      "midi": 69,
      "hit": false,
      "t": 189500.00000000003,
      "d": 757.8125,
      "v": 109
    },
    {
      "midi": 33,
      "hit": false,
      "t": 189750.00000000003,
      "d": 312.5,
      "v": 127
    },
    {
      "midi": 62,
      "hit": false,
      "t": 189999.99999999988,
      "d": 989.583333333343,
      "v": 72
    },
    {
      "midi": 62,
      "hit": false,
      "t": 189999.99999999994,
      "d": 1041.666666666657,
      "v": 72
    },
    {
      "midi": 38,
      "hit": false,
      "t": 190000.00000000003,
      "d": 950.520833333343,
      "v": 127
    },
    {
      "midi": 74,
      "hit": false,
      "t": 190000.00000000003,
      "d": 815.104166666657,
      "v": 74
    },
    {
      "midi": 69,
      "hit": false,
      "t": 190000.00000000003,
      "d": 835.9375,
      "v": 59
    },
    {
      "midi": 74,
      "hit": false,
      "t": 190000.0000000002,
      "d": 1067.708333333343,
      "v": 74
    },
    {
      "midi": 69,
      "hit": false,
      "t": 190500.00000000003,
      "d": 750,
      "v": 117
    },
    {
      "midi": 64,
      "hit": false,
      "t": 190999.99999999988,
      "d": 934.895833333343,
      "v": 72
    },
    {
      "midi": 64,
      "hit": false,
      "t": 190999.99999999994,
      "d": 1033.854166666657,
      "v": 72
    },
    {
      "midi": 40,
      "hit": false,
      "t": 191000.00000000003,
      "d": 1026.041666666657,
      "v": 127
    },
    {
      "midi": 69,
      "hit": false,
      "t": 191000.00000000003,
      "d": 875,
      "v": 50
    },
    {
      "midi": 76,
      "hit": false,
      "t": 191000.00000000003,
      "d": 885.416666666657,
      "v": 69
    },
    {
      "midi": 76,
      "hit": false,
      "t": 191000.0000000002,
      "d": 994.7916666666861,
      "v": 62
    },
    {
      "midi": 69,
      "hit": false,
      "t": 191500.00000000003,
      "d": 750,
      "v": 113
    },
    {
      "midi": 60,
      "hit": false,
      "t": 191999.99999999988,
      "d": 1997.395833333343,
      "v": 76
    },
    {
      "midi": 69,
      "hit": false,
      "t": 191999.99999999994,
      "d": 2018.229166666657,
      "v": 78
    },
    {
      "midi": 33,
      "hit": false,
      "t": 192000.00000000003,
      "d": 1596.354166666657,
      "v": 127
    },
    {
      "midi": 72,
      "hit": false,
      "t": 192000.00000000003,
      "d": 1776.041666666657,
      "v": 72
    },
    {
      "midi": 69,
      "hit": false,
      "t": 192000.00000000003,
      "d": 1786.458333333314,
      "v": 61
    },
    {
      "midi": 69,
      "hit": false,
      "t": 192000.00000000023,
      "d": 6020.833333333343,
      "v": 81
    },
    {
      "midi": 69,
      "hit": false,
      "t": 192500.00000000003,
      "d": 770.833333333343,
      "v": 117
    },
    {
      "midi": 69,
      "hit": false,
      "t": 193500.00000000003,
      "d": 783.854166666657,
      "v": 113
    },
    {
      "midi": 33,
      "hit": false,
      "t": 193750.00000000003,
      "d": 263.02083333334303,
      "v": 127
    },
    {
      "midi": 62,
      "hit": false,
      "t": 193999.99999999988,
      "d": 1919.270833333343,
      "v": 65
    },
    {
      "midi": 57,
      "hit": false,
      "t": 193999.99999999988,
      "d": 1953.125,
      "v": 68
    },
    {
      "midi": 62,
      "hit": false,
      "t": 193999.99999999994,
      "d": 2023.4375,
      "v": 76
    },
    {
      "midi": 74,
      "hit": false,
      "t": 194000,
      "d": 1854.166666666657,
      "v": 77
    },
    {
      "midi": 69,
      "hit": false,
      "t": 194000,
      "d": 1872.395833333314,
      "v": 74
    },
    {
      "midi": 38,
      "hit": false,
      "t": 194000.00000000003,
      "d": 1877.604166666686,
      "v": 127
    },
    {
      "midi": 74,
      "hit": false,
      "t": 194000.00000000023,
      "d": 2062.5,
      "v": 66
    },
    {
      "midi": 69,
      "hit": false,
      "t": 194500.00000000003,
      "d": 705.729166666657,
      "v": 113
    },
    {
      "midi": 69,
      "hit": false,
      "t": 195500.00000000003,
      "d": 773.4375,
      "v": 109
    },
    {
      "midi": 59,
      "hit": false,
      "t": 195999.99999999988,
      "d": 2013.020833333343,
      "v": 66
    },
    {
      "midi": 64,
      "hit": false,
      "t": 195999.99999999988,
      "d": 2033.854166666686,
      "v": 59
    },
    {
      "midi": 64,
      "hit": false,
      "t": 195999.99999999994,
      "d": 1890.625,
      "v": 72
    },
    {
      "midi": 76,
      "hit": false,
      "t": 195999.99999999997,
      "d": 1973.958333333343,
      "v": 69
    },
    {
      "midi": 69,
      "hit": false,
      "t": 195999.99999999997,
      "d": 1984.375,
      "v": 65
    },
    {
      "midi": 40,
      "hit": false,
      "t": 196000.00000000006,
      "d": 1820.3125,
      "v": 127
    },
    {
      "midi": 76,
      "hit": false,
      "t": 196000.00000000023,
      "d": 2015.625,
      "v": 60
    },
    {
      "midi": 69,
      "hit": false,
      "t": 196500.00000000003,
      "d": 697.916666666657,
      "v": 113
    },
    {
      "midi": 69,
      "hit": false,
      "t": 197500.00000000003,
      "d": 479.16666666665697,
      "v": 106
    },
    {
      "midi": 57,
      "hit": false,
      "t": 197999.99999999988,
      "d": 1973.9583333333721,
      "v": 88
    },
    {
      "midi": 48,
      "hit": false,
      "t": 197999.99999999994,
      "d": 1929.6875,
      "v": 47
    },
    {
      "midi": 45,
      "hit": false,
      "t": 197999.99999999994,
      "d": 2020.833333333314,
      "v": 44
    },
    {
      "midi": 33,
      "hit": false,
      "t": 198000,
      "d": 109.375,
      "v": 127
    },
    {
      "midi": 69,
      "hit": false,
      "t": 198000.00000000003,
      "d": 463.54166666665697,
      "v": 106
    },
    {
      "midi": 33,
      "hit": false,
      "t": 198000.00000000006,
      "d": 114.58333333334303,
      "v": 127
    },
    {
      "midi": 60,
      "hit": false,
      "t": 198010.4166666666,
      "d": 28.645833333343035,
      "v": 49
    },
    {
      "midi": 33,
      "hit": false,
      "t": 198125,
      "d": 109.375,
      "v": 90
    },
    {
      "midi": 33,
      "hit": false,
      "t": 198250,
      "d": 101.5625,
      "v": 101
    },
    {
      "midi": 33,
      "hit": false,
      "t": 198250.00000000006,
      "d": 91.14583333334303,
      "v": 127
    },
    {
      "midi": 33,
      "hit": false,
      "t": 198375,
      "d": 101.5625,
      "v": 64
    },
    {
      "midi": 72,
      "hit": false,
      "t": 198500.00000000003,
      "d": 351.5625,
      "v": 90
    },
    {
      "midi": 31,
      "hit": false,
      "t": 198500.00000000006,
      "d": 28.645833333343035,
      "v": 127
    },
    {
      "midi": 33,
      "hit": false,
      "t": 198500.00000000006,
      "d": 67.70833333334303,
      "v": 127
    },
    {
      "midi": 33,
      "hit": false,
      "t": 198625,
      "d": 10.416666666656965,
      "v": 90
    },
    {
      "midi": 33,
      "hit": false,
      "t": 198750,
      "d": 10.416666666656965,
      "v": 111
    },
    {
      "midi": 64,
      "hit": false,
      "t": 198750.00000000003,
      "d": 268.22916666665697,
      "v": 100
    },
    {
      "midi": 33,
      "hit": false,
      "t": 198750.00000000006,
      "d": 117.1875,
      "v": 127
    },
    {
      "midi": 33,
      "hit": false,
      "t": 198875,
      "d": 101.5625,
      "v": 74
    },
    {
      "midi": 33,
      "hit": false,
      "t": 199000,
      "d": 125,
      "v": 127
    },
    {
      "midi": 33,
      "hit": false,
      "t": 199000.00000000006,
      "d": 98.95833333334303,
      "v": 127
    },
    {
      "midi": 33,
      "hit": false,
      "t": 199125,
      "d": 125,
      "v": 90
    },
    {
      "midi": 64,
      "hit": false,
      "t": 199125.00000000003,
      "d": 286.45833333334303,
      "v": 103
    },
    {
      "midi": 33,
      "hit": false,
      "t": 199250,
      "d": 104.16666666665697,
      "v": 116
    },
    {
      "midi": 33,
      "hit": false,
      "t": 199250.00000000006,
      "d": 101.5625,
      "v": 127
    },
    {
      "midi": 33,
      "hit": false,
      "t": 199375,
      "d": 104.16666666665697,
      "v": 79
    },
    {
      "midi": 67,
      "hit": false,
      "t": 199500.00000000003,
      "d": 429.6875,
      "v": 100
    },
    {
      "midi": 33,
      "hit": false,
      "t": 199500.00000000006,
      "d": 216.14583333334303,
      "v": 127
    },
    {
      "midi": 33,
      "hit": false,
      "t": 199625,
      "d": 109.375,
      "v": 90
    },
    {
      "midi": 31,
      "hit": false,
      "t": 199750.00000000006,
      "d": 265.625,
      "v": 127
    },
    {
      "midi": 31,
      "hit": false,
      "t": 199875,
      "d": 106.77083333334303,
      "v": 81
    },
    {
      "midi": 50,
      "hit": false,
      "t": 199942.70833333328,
      "d": 1039.062499999971,
      "v": 53
    },
    {
      "midi": 62,
      "hit": false,
      "t": 199945.3124999999,
      "d": 1015.625,
      "v": 81
    },
    {
      "midi": 62,
      "hit": false,
      "t": 199945.31249999994,
      "d": 976.5625,
      "v": 75
    },
    {
      "midi": 50,
      "hit": false,
      "t": 199947.9166666666,
      "d": 1059.895833333314,
      "v": 58
    },
    {
      "midi": 38,
      "hit": false,
      "t": 200000,
      "d": 117.1875,
      "v": 118
    },
    {
      "midi": 69,
      "hit": false,
      "t": 200000.00000000003,
      "d": 463.54166666665697,
      "v": 106
    },
    {
      "midi": 38,
      "hit": false,
      "t": 200000.00000000006,
      "d": 132.8125,
      "v": 127
    },
    {
      "midi": 38,
      "hit": false,
      "t": 200125,
      "d": 117.1875,
      "v": 81
    },
    {
      "midi": 38,
      "hit": false,
      "t": 200250,
      "d": 114.58333333334303,
      "v": 118
    },
    {
      "midi": 38,
      "hit": false,
      "t": 200250.00000000006,
      "d": 109.375,
      "v": 127
    },
    {
      "midi": 38,
      "hit": false,
      "t": 200375,
      "d": 114.58333333334303,
      "v": 81
    },
    {
      "midi": 38,
      "hit": false,
      "t": 200500,
      "d": 117.1875,
      "v": 118
    },
    {
      "midi": 72,
      "hit": false,
      "t": 200500.00000000003,
      "d": 351.5625,
      "v": 90
    },
    {
      "midi": 38,
      "hit": false,
      "t": 200500.00000000006,
      "d": 111.97916666665697,
      "v": 127
    },
    {
      "midi": 38,
      "hit": false,
      "t": 200625,
      "d": 117.1875,
      "v": 81
    },
    {
      "midi": 64,
      "hit": false,
      "t": 200750.00000000003,
      "d": 268.22916666665697,
      "v": 100
    },
    {
      "midi": 38,
      "hit": false,
      "t": 200750.00000000006,
      "d": 192.70833333334303,
      "v": 127
    },
    {
      "midi": 38,
      "hit": false,
      "t": 200875,
      "d": 117.1875,
      "v": 87
    },
    {
      "midi": 64,
      "hit": false,
      "t": 200940.1041666666,
      "d": 1013.0208333333139,
      "v": 70
    },
    {
      "midi": 59,
      "hit": false,
      "t": 200960.9374999999,
      "d": 968.75,
      "v": 81
    },
    {
      "midi": 52,
      "hit": false,
      "t": 200997.39583333326,
      "d": 789.0625,
      "v": 53
    },
    {
      "midi": 28,
      "hit": false,
      "t": 201000.00000000006,
      "d": 156.25,
      "v": 127
    },
    {
      "midi": 28,
      "hit": false,
      "t": 201125,
      "d": 18.229166666656965,
      "v": 87
    },
    {
      "midi": 64,
      "hit": false,
      "t": 201125.00000000003,
      "d": 286.45833333334303,
      "v": 103
    },
    {
      "midi": 28,
      "hit": false,
      "t": 201250,
      "d": 18.229166666656965,
      "v": 113
    },
    {
      "midi": 28,
      "hit": false,
      "t": 201250.00000000006,
      "d": 122.39583333334303,
      "v": 127
    },
    {
      "midi": 28,
      "hit": false,
      "t": 201375,
      "d": 101.5625,
      "v": 76
    },
    {
      "midi": 67,
      "hit": false,
      "t": 201500.00000000003,
      "d": 429.6875,
      "v": 100
    },
    {
      "midi": 28,
      "hit": false,
      "t": 201500.00000000006,
      "d": 119.79166666665697,
      "v": 127
    },
    {
      "midi": 28,
      "hit": false,
      "t": 201625,
      "d": 2.6041666666569654,
      "v": 90
    },
    {
      "midi": 28,
      "hit": false,
      "t": 201750,
      "d": 2.6041666666569654,
      "v": 124
    },
    {
      "midi": 28,
      "hit": false,
      "t": 201750.00000000006,
      "d": 257.8125,
      "v": 127
    },
    {
      "midi": 28,
      "hit": false,
      "t": 201875,
      "d": 138.02083333334303,
      "v": 87
    },
    {
      "midi": 57,
      "hit": false,
      "t": 201940.10416666657,
      "d": 2028.645833333314,
      "v": 75
    },
    {
      "midi": 60,
      "hit": false,
      "t": 201942.70833333326,
      "d": 2031.249999999971,
      "v": 77
    },
    {
      "midi": 45,
      "hit": false,
      "t": 201973.95833333326,
      "d": 2028.645833333314,
      "v": 56
    },
    {
      "midi": 69,
      "hit": false,
      "t": 202000.00000000003,
      "d": 463.54166666665697,
      "v": 106
    },
    {
      "midi": 33,
      "hit": false,
      "t": 202000.00000000006,
      "d": 127.60416666665697,
      "v": 127
    },
    {
      "midi": 33,
      "hit": false,
      "t": 202125,
      "d": 7.8125,
      "v": 90
    },
    {
      "midi": 33,
      "hit": false,
      "t": 202250,
      "d": 7.8125,
      "v": 111
    },
    {
      "midi": 33,
      "hit": false,
      "t": 202250.00000000006,
      "d": 114.58333333334303,
      "v": 127
    },
    {
      "midi": 33,
      "hit": false,
      "t": 202375,
      "d": 98.95833333334303,
      "v": 74
    },
    {
      "midi": 33,
      "hit": false,
      "t": 202500,
      "d": 119.79166666665697,
      "v": 127
    },
    {
      "midi": 72,
      "hit": false,
      "t": 202500.00000000003,
      "d": 351.5625,
      "v": 90
    },
    {
      "midi": 33,
      "hit": false,
      "t": 202500.00000000006,
      "d": 119.79166666665697,
      "v": 127
    },
    {
      "midi": 33,
      "hit": false,
      "t": 202625,
      "d": 119.79166666665697,
      "v": 90
    },
    {
      "midi": 33,
      "hit": false,
      "t": 202750,
      "d": 91.14583333334303,
      "v": 113
    },
    {
      "midi": 64,
      "hit": false,
      "t": 202750.00000000003,
      "d": 268.22916666665697,
      "v": 100
    },
    {
      "midi": 33,
      "hit": false,
      "t": 202750.00000000006,
      "d": 98.95833333334303,
      "v": 127
    },
    {
      "midi": 33,
      "hit": false,
      "t": 202875,
      "d": 91.14583333334303,
      "v": 76
    },
    {
      "midi": 33,
      "hit": false,
      "t": 203000,
      "d": 114.58333333334303,
      "v": 127
    },
    {
      "midi": 33,
      "hit": false,
      "t": 203000.00000000006,
      "d": 125,
      "v": 127
    },
    {
      "midi": 33,
      "hit": false,
      "t": 203125,
      "d": 114.58333333334303,
      "v": 90
    },
    {
      "midi": 64,
      "hit": false,
      "t": 203125.00000000003,
      "d": 286.45833333334303,
      "v": 103
    },
    {
      "midi": 33,
      "hit": false,
      "t": 203250,
      "d": 98.95833333334303,
      "v": 127
    },
    {
      "midi": 33,
      "hit": false,
      "t": 203250.00000000006,
      "d": 101.5625,
      "v": 127
    },
    {
      "midi": 33,
      "hit": false,
      "t": 203375,
      "d": 98.95833333334303,
      "v": 90
    },
    {
      "midi": 67,
      "hit": false,
      "t": 203500.00000000003,
      "d": 429.6875,
      "v": 100
    },
    {
      "midi": 33,
      "hit": false,
      "t": 203500.00000000006,
      "d": 216.14583333334303,
      "v": 127
    },
    {
      "midi": 33,
      "hit": false,
      "t": 203625,
      "d": 106.77083333334303,
      "v": 90
    },
    {
      "midi": 31,
      "hit": false,
      "t": 203750.00000000006,
      "d": 231.77083333334303,
      "v": 127
    },
    {
      "midi": 31,
      "hit": false,
      "t": 203875,
      "d": 111.97916666665697,
      "v": 76
    },
    {
      "midi": 50,
      "hit": false,
      "t": 203929.6874999999,
      "d": 1062.499999999971,
      "v": 57
    },
    {
      "midi": 62,
      "hit": false,
      "t": 203937.4999999999,
      "d": 1010.416666666657,
      "v": 77
    },
    {
      "midi": 62,
      "hit": false,
      "t": 203958.33333333323,
      "d": 1023.4374999999709,
      "v": 73
    },
    {
      "midi": 50,
      "hit": false,
      "t": 203963.54166666657,
      "d": 953.125,
      "v": 58
    },
    {
      "midi": 69,
      "hit": false,
      "t": 204000.00000000003,
      "d": 463.54166666665697,
      "v": 106
    },
    {
      "midi": 38,
      "hit": false,
      "t": 204000.00000000006,
      "d": 119.79166666665697,
      "v": 127
    },
    {
      "midi": 38,
      "hit": false,
      "t": 204125,
      "d": 2.6041666666569654,
      "v": 84
    },
    {
      "midi": 38,
      "hit": false,
      "t": 204250,
      "d": 2.6041666666569654,
      "v": 124
    },
    {
      "midi": 38,
      "hit": false,
      "t": 204250.00000000006,
      "d": 106.77083333334303,
      "v": 127
    },
    {
      "midi": 38,
      "hit": false,
      "t": 204375,
      "d": 98.95833333334303,
      "v": 87
    },
    {
      "midi": 72,
      "hit": false,
      "t": 204500.00000000003,
      "d": 351.5625,
      "v": 90
    },
    {
      "midi": 38,
      "hit": false,
      "t": 204500.00000000006,
      "d": 117.1875,
      "v": 127
    },
    {
      "midi": 38,
      "hit": false,
      "t": 204625,
      "d": 2.6041666666569654,
      "v": 90
    },
    {
      "midi": 38,
      "hit": false,
      "t": 204750,
      "d": 2.6041666666569654,
      "v": 127
    },
    {
      "midi": 64,
      "hit": false,
      "t": 204750.00000000003,
      "d": 268.22916666665697,
      "v": 100
    },
    {
      "midi": 38,
      "hit": false,
      "t": 204750.00000000006,
      "d": 226.5625,
      "v": 127
    },
    {
      "midi": 38,
      "hit": false,
      "t": 204875,
      "d": 125,
      "v": 90
    },
    {
      "midi": 64,
      "hit": false,
      "t": 204958.33333333323,
      "d": 1002.604166666657,
      "v": 75
    },
    {
      "midi": 59,
      "hit": false,
      "t": 204971.35416666654,
      "d": 971.354166666657,
      "v": 79
    },
    {
      "midi": 52,
      "hit": false,
      "t": 204981.77083333323,
      "d": 934.8958333333139,
      "v": 61
    },
    {
      "midi": 28,
      "hit": false,
      "t": 205000.00000000006,
      "d": 140.625,
      "v": 127
    },
    {
      "midi": 28,
      "hit": false,
      "t": 205125,
      "d": 15.625,
      "v": 90
    },
    {
      "midi": 64,
      "hit": false,
      "t": 205125.00000000003,
      "d": 286.45833333334303,
      "v": 103
    },
    {
      "midi": 28,
      "hit": false,
      "t": 205250,
      "d": 15.625,
      "v": 118
    },
    {
      "midi": 28,
      "hit": false,
      "t": 205250.00000000006,
      "d": 106.77083333334303,
      "v": 127
    },
    {
      "midi": 76,
      "hit": false,
      "t": 205250.00000000023,
      "d": 273.4375,
      "v": 109
    },
    {
      "midi": 28,
      "hit": false,
      "t": 205375,
      "d": 98.95833333334303,
      "v": 81
    },
    {
      "midi": 28,
      "hit": false,
      "t": 205500,
      "d": 117.1875,
      "v": 127
    },
    {
      "midi": 67,
      "hit": false,
      "t": 205500.00000000003,
      "d": 429.6875,
      "v": 100
    },
    {
      "midi": 28,
      "hit": false,
      "t": 205500.00000000006,
      "d": 117.1875,
      "v": 127
    },
    {
      "midi": 83,
      "hit": false,
      "t": 205500.00000000023,
      "d": 294.27083333334303,
      "v": 103
    },
    {
      "midi": 28,
      "hit": false,
      "t": 205625,
      "d": 117.1875,
      "v": 90
    },
    {
      "midi": 76,
      "hit": false,
      "t": 205750,
      "d": 197.91666666665697,
      "v": 103
    },
    {
      "midi": 88,
      "hit": false,
      "t": 205750,
      "d": 226.5625,
      "v": 92
    },
    {
      "midi": 28,
      "hit": false,
      "t": 205750.00000000006,
      "d": 164.0625,
      "v": 127
    },
    {
      "midi": 88,
      "hit": false,
      "t": 205750.00000000023,
      "d": 143.22916666668607,
      "v": 100
    },
    {
      "midi": 100,
      "hit": false,
      "t": 205750.00000000023,
      "d": 143.22916666668607,
      "v": 100
    },
    {
      "midi": 28,
      "hit": false,
      "t": 205875,
      "d": 70.3125,
      "v": 90
    },
    {
      "midi": 57,
      "hit": false,
      "t": 205999.99999999985,
      "d": 1973.958333333343,
      "v": 88
    },
    {
      "midi": 48,
      "hit": false,
      "t": 205999.99999999988,
      "d": 1929.6875,
      "v": 47
    },
    {
      "midi": 45,
      "hit": false,
      "t": 205999.99999999988,
      "d": 2020.833333333314,
      "v": 44
    },
    {
      "midi": 33,
      "hit": false,
      "t": 206000,
      "d": 109.375,
      "v": 127
    },
    {
      "midi": 69,
      "hit": false,
      "t": 206000.00000000003,
      "d": 463.54166666665697,
      "v": 106
    },
    {
      "midi": 33,
      "hit": false,
      "t": 206000.00000000006,
      "d": 114.58333333334303,
      "v": 127
    },
    {
      "midi": 60,
      "hit": false,
      "t": 206010.41666666654,
      "d": 28.645833333343035,
      "v": 49
    },
    {
      "midi": 33,
      "hit": false,
      "t": 206125,
      "d": 109.375,
      "v": 90
    },
    {
      "midi": 33,
      "hit": false,
      "t": 206250,
      "d": 101.5625,
      "v": 101
    },
    {
      "midi": 33,
      "hit": false,
      "t": 206250.00000000006,
      "d": 91.14583333334303,
      "v": 127
    },
    {
      "midi": 33,
      "hit": false,
      "t": 206375,
      "d": 101.5625,
      "v": 64
    },
    {
      "midi": 72,
      "hit": false,
      "t": 206500.00000000003,
      "d": 351.5625,
      "v": 90
    },
    {
      "midi": 31,
      "hit": false,
      "t": 206500.00000000006,
      "d": 28.645833333343035,
      "v": 127
    },
    {
      "midi": 33,
      "hit": false,
      "t": 206500.00000000006,
      "d": 67.70833333334303,
      "v": 127
    },
    {
      "midi": 33,
      "hit": false,
      "t": 206625,
      "d": 10.416666666656965,
      "v": 90
    },
    {
      "midi": 33,
      "hit": false,
      "t": 206750,
      "d": 10.416666666656965,
      "v": 111
    },
    {
      "midi": 64,
      "hit": false,
      "t": 206750.00000000003,
      "d": 268.22916666665697,
      "v": 100
    },
    {
      "midi": 33,
      "hit": false,
      "t": 206750.00000000006,
      "d": 117.1875,
      "v": 127
    },
    {
      "midi": 33,
      "hit": false,
      "t": 206875,
      "d": 101.5625,
      "v": 74
    },
    {
      "midi": 33,
      "hit": false,
      "t": 207000,
      "d": 125,
      "v": 127
    },
    {
      "midi": 33,
      "hit": false,
      "t": 207000.00000000006,
      "d": 98.95833333334303,
      "v": 127
    },
    {
      "midi": 33,
      "hit": false,
      "t": 207125,
      "d": 125,
      "v": 90
    },
    {
      "midi": 64,
      "hit": false,
      "t": 207125.00000000003,
      "d": 286.45833333334303,
      "v": 103
    },
    {
      "midi": 33,
      "hit": false,
      "t": 207250,
      "d": 104.16666666665697,
      "v": 116
    },
    {
      "midi": 33,
      "hit": false,
      "t": 207250.00000000006,
      "d": 101.5625,
      "v": 127
    },
    {
      "midi": 33,
      "hit": false,
      "t": 207375,
      "d": 104.16666666665697,
      "v": 79
    },
    {
      "midi": 67,
      "hit": false,
      "t": 207500.00000000003,
      "d": 429.6875,
      "v": 100
    },
    {
      "midi": 33,
      "hit": false,
      "t": 207500.00000000006,
      "d": 216.14583333334303,
      "v": 127
    },
    {
      "midi": 33,
      "hit": false,
      "t": 207625,
      "d": 109.375,
      "v": 90
    },
    {
      "midi": 31,
      "hit": false,
      "t": 207750.00000000006,
      "d": 265.625,
      "v": 127
    },
    {
      "midi": 31,
      "hit": false,
      "t": 207875,
      "d": 106.77083333334303,
      "v": 81
    },
    {
      "midi": 50,
      "hit": false,
      "t": 207942.70833333323,
      "d": 1039.062499999971,
      "v": 53
    },
    {
      "midi": 62,
      "hit": false,
      "t": 207945.31249999985,
      "d": 1015.625,
      "v": 81
    },
    {
      "midi": 62,
      "hit": false,
      "t": 207945.31249999988,
      "d": 976.5625,
      "v": 75
    },
    {
      "midi": 50,
      "hit": false,
      "t": 207947.91666666654,
      "d": 1059.895833333314,
      "v": 58
    },
    {
      "midi": 38,
      "hit": false,
      "t": 208000,
      "d": 117.1875,
      "v": 118
    },
    {
      "midi": 69,
      "hit": false,
      "t": 208000.00000000003,
      "d": 463.54166666665697,
      "v": 106
    },
    {
      "midi": 38,
      "hit": false,
      "t": 208000.00000000006,
      "d": 132.8125,
      "v": 127
    },
    {
      "midi": 38,
      "hit": false,
      "t": 208125,
      "d": 117.1875,
      "v": 81
    },
    {
      "midi": 38,
      "hit": false,
      "t": 208250,
      "d": 114.58333333334303,
      "v": 118
    },
    {
      "midi": 38,
      "hit": false,
      "t": 208250.00000000006,
      "d": 109.375,
      "v": 127
    },
    {
      "midi": 38,
      "hit": false,
      "t": 208375,
      "d": 114.58333333334303,
      "v": 81
    },
    {
      "midi": 38,
      "hit": false,
      "t": 208500,
      "d": 117.1875,
      "v": 118
    },
    {
      "midi": 72,
      "hit": false,
      "t": 208500.00000000003,
      "d": 351.5625,
      "v": 90
    },
    {
      "midi": 38,
      "hit": false,
      "t": 208500.00000000006,
      "d": 111.97916666665697,
      "v": 127
    },
    {
      "midi": 38,
      "hit": false,
      "t": 208625,
      "d": 117.1875,
      "v": 81
    },
    {
      "midi": 64,
      "hit": false,
      "t": 208750.00000000003,
      "d": 268.22916666665697,
      "v": 100
    },
    {
      "midi": 38,
      "hit": false,
      "t": 208750.00000000006,
      "d": 192.70833333334303,
      "v": 127
    },
    {
      "midi": 38,
      "hit": false,
      "t": 208875,
      "d": 117.1875,
      "v": 87
    },
    {
      "midi": 64,
      "hit": false,
      "t": 208940.10416666654,
      "d": 1013.0208333333139,
      "v": 70
    },
    {
      "midi": 59,
      "hit": false,
      "t": 208960.93749999985,
      "d": 968.75,
      "v": 81
    },
    {
      "midi": 52,
      "hit": false,
      "t": 208997.3958333332,
      "d": 789.0625,
      "v": 53
    },
    {
      "midi": 28,
      "hit": false,
      "t": 209000.00000000006,
      "d": 156.25,
      "v": 127
    },
    {
      "midi": 28,
      "hit": false,
      "t": 209125,
      "d": 18.229166666656965,
      "v": 87
    },
    {
      "midi": 64,
      "hit": false,
      "t": 209125.00000000003,
      "d": 286.45833333334303,
      "v": 103
    },
    {
      "midi": 28,
      "hit": false,
      "t": 209250,
      "d": 18.229166666656965,
      "v": 113
    },
    {
      "midi": 28,
      "hit": false,
      "t": 209250.00000000006,
      "d": 122.39583333334303,
      "v": 127
    },
    {
      "midi": 28,
      "hit": false,
      "t": 209375,
      "d": 101.5625,
      "v": 76
    },
    {
      "midi": 67,
      "hit": false,
      "t": 209500.00000000003,
      "d": 429.6875,
      "v": 100
    },
    {
      "midi": 28,
      "hit": false,
      "t": 209500.00000000006,
      "d": 119.79166666665697,
      "v": 127
    },
    {
      "midi": 28,
      "hit": false,
      "t": 209625,
      "d": 2.6041666666569654,
      "v": 90
    },
    {
      "midi": 28,
      "hit": false,
      "t": 209750,
      "d": 2.6041666666569654,
      "v": 124
    },
    {
      "midi": 28,
      "hit": false,
      "t": 209750.00000000006,
      "d": 257.8125,
      "v": 127
    },
    {
      "midi": 28,
      "hit": false,
      "t": 209875,
      "d": 138.02083333334303,
      "v": 87
    },
    {
      "midi": 57,
      "hit": false,
      "t": 209940.1041666665,
      "d": 2028.645833333314,
      "v": 75
    },
    {
      "midi": 60,
      "hit": false,
      "t": 209942.7083333332,
      "d": 2031.249999999971,
      "v": 77
    },
    {
      "midi": 45,
      "hit": false,
      "t": 209973.9583333332,
      "d": 2028.645833333314,
      "v": 56
    },
    {
      "midi": 69,
      "hit": false,
      "t": 210000.00000000003,
      "d": 463.54166666665697,
      "v": 106
    },
    {
      "midi": 33,
      "hit": false,
      "t": 210000.00000000006,
      "d": 127.60416666665697,
      "v": 127
    },
    {
      "midi": 33,
      "hit": false,
      "t": 210125,
      "d": 7.8125,
      "v": 90
    },
    {
      "midi": 33,
      "hit": false,
      "t": 210250,
      "d": 7.8125,
      "v": 111
    },
    {
      "midi": 33,
      "hit": false,
      "t": 210250.00000000006,
      "d": 114.58333333334303,
      "v": 127
    },
    {
      "midi": 33,
      "hit": false,
      "t": 210375,
      "d": 98.95833333334303,
      "v": 74
    },
    {
      "midi": 33,
      "hit": false,
      "t": 210500,
      "d": 119.79166666665697,
      "v": 127
    },
    {
      "midi": 72,
      "hit": false,
      "t": 210500.00000000003,
      "d": 351.5625,
      "v": 90
    },
    {
      "midi": 33,
      "hit": false,
      "t": 210500.00000000006,
      "d": 119.79166666665697,
      "v": 127
    },
    {
      "midi": 33,
      "hit": false,
      "t": 210625,
      "d": 119.79166666665697,
      "v": 90
    },
    {
      "midi": 33,
      "hit": false,
      "t": 210750,
      "d": 91.14583333334303,
      "v": 113
    },
    {
      "midi": 64,
      "hit": false,
      "t": 210750.00000000003,
      "d": 268.22916666665697,
      "v": 100
    },
    {
      "midi": 33,
      "hit": false,
      "t": 210750.00000000006,
      "d": 98.95833333334303,
      "v": 127
    },
    {
      "midi": 33,
      "hit": false,
      "t": 210875,
      "d": 91.14583333334303,
      "v": 76
    },
    {
      "midi": 33,
      "hit": false,
      "t": 211000,
      "d": 114.58333333334303,
      "v": 127
    },
    {
      "midi": 33,
      "hit": false,
      "t": 211000.00000000006,
      "d": 125,
      "v": 127
    },
    {
      "midi": 33,
      "hit": false,
      "t": 211125,
      "d": 114.58333333334303,
      "v": 90
    },
    {
      "midi": 64,
      "hit": false,
      "t": 211125.00000000003,
      "d": 286.45833333334303,
      "v": 103
    },
    {
      "midi": 33,
      "hit": false,
      "t": 211250,
      "d": 98.95833333334303,
      "v": 127
    },
    {
      "midi": 33,
      "hit": false,
      "t": 211250.00000000006,
      "d": 101.5625,
      "v": 127
    },
    {
      "midi": 33,
      "hit": false,
      "t": 211375,
      "d": 98.95833333334303,
      "v": 90
    },
    {
      "midi": 67,
      "hit": false,
      "t": 211500.00000000003,
      "d": 429.6875,
      "v": 100
    },
    {
      "midi": 33,
      "hit": false,
      "t": 211500.00000000006,
      "d": 216.14583333334303,
      "v": 127
    },
    {
      "midi": 33,
      "hit": false,
      "t": 211625,
      "d": 106.77083333334303,
      "v": 90
    },
    {
      "midi": 31,
      "hit": false,
      "t": 211750.00000000006,
      "d": 231.77083333334303,
      "v": 127
    },
    {
      "midi": 31,
      "hit": false,
      "t": 211875,
      "d": 111.97916666665697,
      "v": 76
    },
    {
      "midi": 50,
      "hit": false,
      "t": 211929.68749999985,
      "d": 1062.499999999971,
      "v": 57
    },
    {
      "midi": 62,
      "hit": false,
      "t": 211937.49999999985,
      "d": 1010.416666666657,
      "v": 77
    },
    {
      "midi": 62,
      "hit": false,
      "t": 211958.33333333317,
      "d": 1023.4374999999709,
      "v": 73
    },
    {
      "midi": 50,
      "hit": false,
      "t": 211963.5416666665,
      "d": 953.125,
      "v": 58
    },
    {
      "midi": 69,
      "hit": false,
      "t": 212000.00000000003,
      "d": 463.54166666665697,
      "v": 106
    },
    {
      "midi": 38,
      "hit": false,
      "t": 212000.00000000006,
      "d": 119.79166666665697,
      "v": 127
    },
    {
      "midi": 38,
      "hit": false,
      "t": 212125,
      "d": 2.6041666666569654,
      "v": 84
    },
    {
      "midi": 38,
      "hit": false,
      "t": 212250,
      "d": 2.6041666666569654,
      "v": 124
    },
    {
      "midi": 38,
      "hit": false,
      "t": 212250.00000000006,
      "d": 106.77083333334303,
      "v": 127
    },
    {
      "midi": 38,
      "hit": false,
      "t": 212375,
      "d": 98.95833333334303,
      "v": 87
    },
    {
      "midi": 72,
      "hit": false,
      "t": 212500.00000000003,
      "d": 351.5625,
      "v": 90
    },
    {
      "midi": 38,
      "hit": false,
      "t": 212500.00000000006,
      "d": 117.1875,
      "v": 127
    },
    {
      "midi": 38,
      "hit": false,
      "t": 212625,
      "d": 2.6041666666569654,
      "v": 90
    },
    {
      "midi": 38,
      "hit": false,
      "t": 212750,
      "d": 2.6041666666569654,
      "v": 127
    },
    {
      "midi": 64,
      "hit": false,
      "t": 212750.00000000003,
      "d": 268.22916666665697,
      "v": 100
    },
    {
      "midi": 38,
      "hit": false,
      "t": 212750.00000000006,
      "d": 226.5625,
      "v": 127
    },
    {
      "midi": 38,
      "hit": false,
      "t": 212875,
      "d": 125,
      "v": 90
    },
    {
      "midi": 64,
      "hit": false,
      "t": 212958.33333333317,
      "d": 1002.604166666657,
      "v": 75
    },
    {
      "midi": 59,
      "hit": false,
      "t": 212971.35416666648,
      "d": 971.354166666657,
      "v": 79
    },
    {
      "midi": 52,
      "hit": false,
      "t": 212981.77083333317,
      "d": 934.8958333333139,
      "v": 61
    },
    {
      "midi": 28,
      "hit": false,
      "t": 213000.00000000006,
      "d": 140.625,
      "v": 127
    },
    {
      "midi": 28,
      "hit": false,
      "t": 213125,
      "d": 15.625,
      "v": 90
    },
    {
      "midi": 64,
      "hit": false,
      "t": 213125.00000000003,
      "d": 286.45833333334303,
      "v": 103
    },
    {
      "midi": 28,
      "hit": false,
      "t": 213250,
      "d": 15.625,
      "v": 118
    },
    {
      "midi": 28,
      "hit": false,
      "t": 213250.00000000006,
      "d": 106.77083333334303,
      "v": 127
    },
    {
      "midi": 76,
      "hit": false,
      "t": 213250.00000000026,
      "d": 273.4375,
      "v": 109
    },
    {
      "midi": 28,
      "hit": false,
      "t": 213375,
      "d": 98.95833333334303,
      "v": 81
    },
    {
      "midi": 28,
      "hit": false,
      "t": 213500,
      "d": 117.1875,
      "v": 127
    },
    {
      "midi": 67,
      "hit": false,
      "t": 213500.00000000003,
      "d": 429.6875,
      "v": 100
    },
    {
      "midi": 28,
      "hit": false,
      "t": 213500.00000000006,
      "d": 117.1875,
      "v": 127
    },
    {
      "midi": 83,
      "hit": false,
      "t": 213500.00000000026,
      "d": 294.27083333334303,
      "v": 103
    },
    {
      "midi": 28,
      "hit": false,
      "t": 213625,
      "d": 117.1875,
      "v": 90
    },
    {
      "midi": 76,
      "hit": false,
      "t": 213750,
      "d": 197.91666666665697,
      "v": 103
    },
    {
      "midi": 88,
      "hit": false,
      "t": 213750,
      "d": 226.5625,
      "v": 92
    },
    {
      "midi": 28,
      "hit": false,
      "t": 213750.00000000006,
      "d": 164.0625,
      "v": 127
    },
    {
      "midi": 88,
      "hit": false,
      "t": 213750.00000000026,
      "d": 143.22916666668607,
      "v": 100
    },
    {
      "midi": 100,
      "hit": false,
      "t": 213750.00000000026,
      "d": 143.22916666668607,
      "v": 100
    },
    {
      "midi": 28,
      "hit": false,
      "t": 213875,
      "d": 70.3125,
      "v": 90
    },
    {
      "midi": 69,
      "hit": false,
      "t": 214000.00000000003,
      "d": 463.54166666665697,
      "v": 106
    },
    {
      "midi": 38,
      "hit": false,
      "t": 214000.00000000006,
      "d": 119.79166666665697,
      "v": 127
    },
    {
      "midi": 38,
      "hit": false,
      "t": 214125,
      "d": 2.6041666666569654,
      "v": 84
    },
    {
      "midi": 38,
      "hit": false,
      "t": 214250,
      "d": 2.6041666666569654,
      "v": 124
    },
    {
      "midi": 38,
      "hit": false,
      "t": 214250.00000000006,
      "d": 106.77083333334303,
      "v": 127
    },
    {
      "midi": 38,
      "hit": false,
      "t": 214375,
      "d": 98.95833333334303,
      "v": 87
    },
    {
      "midi": 72,
      "hit": false,
      "t": 214500.00000000003,
      "d": 351.5625,
      "v": 90
    },
    {
      "midi": 38,
      "hit": false,
      "t": 214500.00000000006,
      "d": 117.1875,
      "v": 127
    },
    {
      "midi": 38,
      "hit": false,
      "t": 214625,
      "d": 2.6041666666569654,
      "v": 90
    },
    {
      "midi": 38,
      "hit": false,
      "t": 214750,
      "d": 2.6041666666569654,
      "v": 127
    },
    {
      "midi": 64,
      "hit": false,
      "t": 214750.00000000003,
      "d": 268.22916666665697,
      "v": 100
    },
    {
      "midi": 38,
      "hit": false,
      "t": 214750.00000000006,
      "d": 226.5625,
      "v": 127
    },
    {
      "midi": 38,
      "hit": false,
      "t": 214875,
      "d": 125,
      "v": 90
    },
    {
      "midi": 64,
      "hit": false,
      "t": 214958.33333333317,
      "d": 1002.604166666657,
      "v": 75
    },
    {
      "midi": 59,
      "hit": false,
      "t": 214971.35416666648,
      "d": 971.354166666657,
      "v": 79
    },
    {
      "midi": 52,
      "hit": false,
      "t": 214981.77083333314,
      "d": 934.895833333343,
      "v": 61
    },
    {
      "midi": 28,
      "hit": false,
      "t": 215000.00000000006,
      "d": 140.625,
      "v": 127
    },
    {
      "midi": 28,
      "hit": false,
      "t": 215125,
      "d": 15.625,
      "v": 90
    },
    {
      "midi": 64,
      "hit": false,
      "t": 215125.00000000003,
      "d": 286.45833333334303,
      "v": 103
    },
    {
      "midi": 28,
      "hit": false,
      "t": 215250,
      "d": 15.625,
      "v": 118
    },
    {
      "midi": 28,
      "hit": false,
      "t": 215250.00000000006,
      "d": 106.77083333334303,
      "v": 127
    },
    {
      "midi": 76,
      "hit": false,
      "t": 215250.0000000003,
      "d": 273.4375,
      "v": 109
    },
    {
      "midi": 28,
      "hit": false,
      "t": 215375,
      "d": 98.95833333334303,
      "v": 81
    },
    {
      "midi": 28,
      "hit": false,
      "t": 215500,
      "d": 117.1875,
      "v": 127
    },
    {
      "midi": 67,
      "hit": false,
      "t": 215500.00000000003,
      "d": 429.6875,
      "v": 100
    },
    {
      "midi": 28,
      "hit": false,
      "t": 215500.00000000006,
      "d": 117.1875,
      "v": 127
    },
    {
      "midi": 83,
      "hit": false,
      "t": 215500.0000000003,
      "d": 294.27083333334303,
      "v": 103
    },
    {
      "midi": 28,
      "hit": false,
      "t": 215625,
      "d": 117.1875,
      "v": 90
    },
    {
      "midi": 76,
      "hit": false,
      "t": 215750,
      "d": 197.91666666665697,
      "v": 103
    },
    {
      "midi": 88,
      "hit": false,
      "t": 215750,
      "d": 226.5625,
      "v": 92
    },
    {
      "midi": 28,
      "hit": false,
      "t": 215750.00000000006,
      "d": 164.0625,
      "v": 127
    },
    {
      "midi": 88,
      "hit": false,
      "t": 215750.0000000003,
      "d": 143.22916666668607,
      "v": 100
    },
    {
      "midi": 100,
      "hit": false,
      "t": 215750.0000000003,
      "d": 143.22916666668607,
      "v": 100
    },
    {
      "midi": 28,
      "hit": false,
      "t": 215875,
      "d": 70.3125,
      "v": 90
    },
    {
      "midi": 57,
      "hit": false,
      "t": 215999.9999999998,
      "d": 1973.958333333343,
      "v": 88
    },
    {
      "midi": 48,
      "hit": false,
      "t": 215999.99999999983,
      "d": 1929.6875,
      "v": 47
    },
    {
      "midi": 45,
      "hit": false,
      "t": 215999.99999999983,
      "d": 2020.833333333314,
      "v": 44
    },
    {
      "midi": 33,
      "hit": false,
      "t": 216000,
      "d": 109.375,
      "v": 127
    },
    {
      "midi": 69,
      "hit": false,
      "t": 216000.00000000003,
      "d": 463.54166666665697,
      "v": 106
    },
    {
      "midi": 33,
      "hit": false,
      "t": 216000.00000000006,
      "d": 114.58333333334303,
      "v": 127
    },
    {
      "midi": 60,
      "hit": false,
      "t": 216010.41666666648,
      "d": 28.645833333343035,
      "v": 49
    },
    {
      "midi": 33,
      "hit": false,
      "t": 216125,
      "d": 109.375,
      "v": 90
    },
    {
      "midi": 33,
      "hit": false,
      "t": 216250,
      "d": 101.5625,
      "v": 101
    },
    {
      "midi": 33,
      "hit": false,
      "t": 216250.00000000006,
      "d": 91.14583333334303,
      "v": 127
    },
    {
      "midi": 33,
      "hit": false,
      "t": 216375,
      "d": 101.5625,
      "v": 64
    },
    {
      "midi": 72,
      "hit": false,
      "t": 216500.00000000003,
      "d": 351.5625,
      "v": 90
    },
    {
      "midi": 31,
      "hit": false,
      "t": 216500.00000000006,
      "d": 28.645833333343035,
      "v": 127
    },
    {
      "midi": 33,
      "hit": false,
      "t": 216500.00000000006,
      "d": 67.70833333334303,
      "v": 127
    },
    {
      "midi": 33,
      "hit": false,
      "t": 216625,
      "d": 10.416666666656965,
      "v": 90
    },
    {
      "midi": 33,
      "hit": false,
      "t": 216750,
      "d": 10.416666666656965,
      "v": 111
    },
    {
      "midi": 64,
      "hit": false,
      "t": 216750.00000000003,
      "d": 268.22916666665697,
      "v": 100
    },
    {
      "midi": 33,
      "hit": false,
      "t": 216750.00000000006,
      "d": 117.1875,
      "v": 127
    },
    {
      "midi": 33,
      "hit": false,
      "t": 216875,
      "d": 101.5625,
      "v": 74
    },
    {
      "midi": 33,
      "hit": false,
      "t": 217000,
      "d": 125,
      "v": 127
    },
    {
      "midi": 33,
      "hit": false,
      "t": 217000.00000000006,
      "d": 98.95833333334303,
      "v": 127
    },
    {
      "midi": 33,
      "hit": false,
      "t": 217125,
      "d": 125,
      "v": 90
    },
    {
      "midi": 64,
      "hit": false,
      "t": 217125.00000000003,
      "d": 286.45833333334303,
      "v": 103
    },
    {
      "midi": 33,
      "hit": false,
      "t": 217250,
      "d": 104.16666666665697,
      "v": 116
    },
    {
      "midi": 33,
      "hit": false,
      "t": 217250.00000000006,
      "d": 101.5625,
      "v": 127
    },
    {
      "midi": 33,
      "hit": false,
      "t": 217375,
      "d": 104.16666666665697,
      "v": 79
    },
    {
      "midi": 67,
      "hit": false,
      "t": 217500.00000000003,
      "d": 429.6875,
      "v": 100
    },
    {
      "midi": 33,
      "hit": false,
      "t": 217500.00000000006,
      "d": 216.14583333334303,
      "v": 127
    },
    {
      "midi": 33,
      "hit": false,
      "t": 217625,
      "d": 109.375,
      "v": 90
    },
    {
      "midi": 31,
      "hit": false,
      "t": 217750.00000000006,
      "d": 265.625,
      "v": 127
    },
    {
      "midi": 31,
      "hit": false,
      "t": 217875,
      "d": 106.77083333334303,
      "v": 81
    },
    {
      "midi": 50,
      "hit": false,
      "t": 217942.70833333317,
      "d": 1039.062499999971,
      "v": 53
    },
    {
      "midi": 62,
      "hit": false,
      "t": 217945.3124999998,
      "d": 1015.625,
      "v": 81
    },
    {
      "midi": 62,
      "hit": false,
      "t": 217945.31249999983,
      "d": 976.5625,
      "v": 75
    },
    {
      "midi": 50,
      "hit": false,
      "t": 217947.91666666648,
      "d": 1059.895833333314,
      "v": 58
    },
    {
      "midi": 38,
      "hit": false,
      "t": 218000,
      "d": 117.1875,
      "v": 118
    },
    {
      "midi": 69,
      "hit": false,
      "t": 218000.00000000003,
      "d": 463.54166666665697,
      "v": 106
    },
    {
      "midi": 38,
      "hit": false,
      "t": 218000.00000000006,
      "d": 132.8125,
      "v": 127
    },
    {
      "midi": 38,
      "hit": false,
      "t": 218125,
      "d": 117.1875,
      "v": 81
    },
    {
      "midi": 38,
      "hit": false,
      "t": 218250,
      "d": 114.58333333334303,
      "v": 118
    },
    {
      "midi": 38,
      "hit": false,
      "t": 218250.00000000006,
      "d": 109.375,
      "v": 127
    },
    {
      "midi": 38,
      "hit": false,
      "t": 218375,
      "d": 114.58333333334303,
      "v": 81
    },
    {
      "midi": 38,
      "hit": false,
      "t": 218500,
      "d": 117.1875,
      "v": 118
    },
    {
      "midi": 72,
      "hit": false,
      "t": 218500.00000000003,
      "d": 351.5625,
      "v": 90
    },
    {
      "midi": 38,
      "hit": false,
      "t": 218500.00000000006,
      "d": 111.97916666665697,
      "v": 127
    },
    {
      "midi": 38,
      "hit": false,
      "t": 218625,
      "d": 117.1875,
      "v": 81
    },
    {
      "midi": 64,
      "hit": false,
      "t": 218750.00000000003,
      "d": 268.22916666665697,
      "v": 100
    },
    {
      "midi": 38,
      "hit": false,
      "t": 218750.00000000006,
      "d": 192.70833333334303,
      "v": 127
    },
    {
      "midi": 38,
      "hit": false,
      "t": 218875,
      "d": 117.1875,
      "v": 87
    },
    {
      "midi": 64,
      "hit": false,
      "t": 218940.10416666648,
      "d": 1013.0208333333139,
      "v": 70
    },
    {
      "midi": 59,
      "hit": false,
      "t": 218960.9374999998,
      "d": 968.75,
      "v": 81
    },
    {
      "midi": 52,
      "hit": false,
      "t": 218997.39583333314,
      "d": 789.0625,
      "v": 53
    },
    {
      "midi": 28,
      "hit": false,
      "t": 219000.00000000006,
      "d": 156.25,
      "v": 127
    },
    {
      "midi": 28,
      "hit": false,
      "t": 219125,
      "d": 18.229166666656965,
      "v": 87
    },
    {
      "midi": 64,
      "hit": false,
      "t": 219125.00000000003,
      "d": 286.45833333334303,
      "v": 103
    },
    {
      "midi": 28,
      "hit": false,
      "t": 219250,
      "d": 18.229166666656965,
      "v": 113
    },
    {
      "midi": 28,
      "hit": false,
      "t": 219250.00000000006,
      "d": 122.39583333334303,
      "v": 127
    },
    {
      "midi": 76,
      "hit": false,
      "t": 219250.00000000032,
      "d": 273.4375,
      "v": 109
    },
    {
      "midi": 28,
      "hit": false,
      "t": 219375,
      "d": 101.5625,
      "v": 76
    },
    {
      "midi": 67,
      "hit": false,
      "t": 219500.00000000003,
      "d": 429.6875,
      "v": 100
    },
    {
      "midi": 28,
      "hit": false,
      "t": 219500.00000000006,
      "d": 119.79166666665697,
      "v": 127
    },
    {
      "midi": 83,
      "hit": false,
      "t": 219500.00000000032,
      "d": 294.27083333334303,
      "v": 103
    },
    {
      "midi": 28,
      "hit": false,
      "t": 219625,
      "d": 2.6041666666569654,
      "v": 90
    },
    {
      "midi": 28,
      "hit": false,
      "t": 219750,
      "d": 2.6041666666569654,
      "v": 124
    },
    {
      "midi": 76,
      "hit": false,
      "t": 219750,
      "d": 197.91666666665697,
      "v": 103
    },
    {
      "midi": 88,
      "hit": false,
      "t": 219750,
      "d": 226.5625,
      "v": 92
    },
    {
      "midi": 28,
      "hit": false,
      "t": 219750.00000000006,
      "d": 257.8125,
      "v": 127
    },
    {
      "midi": 88,
      "hit": false,
      "t": 219750.00000000032,
      "d": 143.22916666668607,
      "v": 100
    },
    {
      "midi": 100,
      "hit": false,
      "t": 219750.00000000032,
      "d": 143.22916666668607,
      "v": 100
    },
    {
      "midi": 28,
      "hit": false,
      "t": 219875,
      "d": 138.02083333334303,
      "v": 87
    },
    {
      "midi": 48,
      "hit": false,
      "t": 219999.9999999998,
      "d": 1929.6875,
      "v": 47
    },
    {
      "midi": 45,
      "hit": false,
      "t": 219999.9999999998,
      "d": 2002.604166666657,
      "v": 44
    },
    {
      "midi": 57,
      "hit": false,
      "t": 219999.9999999998,
      "d": 1968.75,
      "v": 88
    },
    {
      "midi": 33,
      "hit": false,
      "t": 220000,
      "d": 109.375,
      "v": 127
    },
    {
      "midi": 69,
      "hit": false,
      "t": 220000.00000000003,
      "d": 463.54166666665697,
      "v": 106
    },
    {
      "midi": 33,
      "hit": false,
      "t": 220000.00000000006,
      "d": 114.58333333334303,
      "v": 127
    },
    {
      "midi": 60,
      "hit": false,
      "t": 220010.41666666645,
      "d": 28.645833333343035,
      "v": 49
    },
    {
      "midi": 33,
      "hit": false,
      "t": 220125,
      "d": 109.375,
      "v": 90
    },
    {
      "midi": 33,
      "hit": false,
      "t": 220250,
      "d": 101.5625,
      "v": 101
    },
    {
      "midi": 33,
      "hit": false,
      "t": 220250.00000000006,
      "d": 91.14583333334303,
      "v": 127
    },
    {
      "midi": 33,
      "hit": false,
      "t": 220375,
      "d": 101.5625,
      "v": 64
    },
    {
      "midi": 72,
      "hit": false,
      "t": 220500.00000000003,
      "d": 351.5625,
      "v": 90
    },
    {
      "midi": 31,
      "hit": false,
      "t": 220500.00000000006,
      "d": 28.645833333343035,
      "v": 127
    },
    {
      "midi": 33,
      "hit": false,
      "t": 220500.00000000006,
      "d": 67.70833333334303,
      "v": 127
    },
    {
      "midi": 33,
      "hit": false,
      "t": 220625,
      "d": 10.416666666656965,
      "v": 90
    },
    {
      "midi": 33,
      "hit": false,
      "t": 220750,
      "d": 10.416666666656965,
      "v": 111
    },
    {
      "midi": 64,
      "hit": false,
      "t": 220750.00000000003,
      "d": 268.22916666665697,
      "v": 100
    },
    {
      "midi": 33,
      "hit": false,
      "t": 220750.00000000006,
      "d": 117.1875,
      "v": 127
    },
    {
      "midi": 33,
      "hit": false,
      "t": 220875,
      "d": 101.5625,
      "v": 74
    },
    {
      "midi": 33,
      "hit": false,
      "t": 221000,
      "d": 125,
      "v": 127
    },
    {
      "midi": 33,
      "hit": false,
      "t": 221000.00000000006,
      "d": 98.95833333334303,
      "v": 127
    },
    {
      "midi": 33,
      "hit": false,
      "t": 221125,
      "d": 125,
      "v": 90
    },
    {
      "midi": 64,
      "hit": false,
      "t": 221125.00000000003,
      "d": 286.45833333334303,
      "v": 103
    },
    {
      "midi": 33,
      "hit": false,
      "t": 221250,
      "d": 104.16666666665697,
      "v": 116
    },
    {
      "midi": 33,
      "hit": false,
      "t": 221250.00000000006,
      "d": 101.5625,
      "v": 127
    },
    {
      "midi": 33,
      "hit": false,
      "t": 221375,
      "d": 104.16666666665697,
      "v": 79
    },
    {
      "midi": 67,
      "hit": false,
      "t": 221500.00000000003,
      "d": 429.6875,
      "v": 100
    },
    {
      "midi": 33,
      "hit": false,
      "t": 221500.00000000006,
      "d": 216.14583333334303,
      "v": 127
    },
    {
      "midi": 33,
      "hit": false,
      "t": 221625,
      "d": 109.375,
      "v": 90
    },
    {
      "midi": 31,
      "hit": false,
      "t": 221750.00000000006,
      "d": 265.625,
      "v": 127
    },
    {
      "midi": 31,
      "hit": false,
      "t": 221875,
      "d": 106.77083333334303,
      "v": 81
    },
    {
      "midi": 50,
      "hit": false,
      "t": 221942.70833333314,
      "d": 1039.062499999971,
      "v": 53
    },
    {
      "midi": 62,
      "hit": false,
      "t": 221945.3124999998,
      "d": 1015.625,
      "v": 81
    },
    {
      "midi": 62,
      "hit": false,
      "t": 221945.3124999998,
      "d": 976.5625,
      "v": 75
    },
    {
      "midi": 50,
      "hit": false,
      "t": 221947.91666666645,
      "d": 1059.895833333314,
      "v": 58
    },
    {
      "midi": 38,
      "hit": false,
      "t": 222000,
      "d": 117.1875,
      "v": 118
    },
    {
      "midi": 69,
      "hit": false,
      "t": 222000.00000000003,
      "d": 463.54166666665697,
      "v": 106
    },
    {
      "midi": 38,
      "hit": false,
      "t": 222000.00000000006,
      "d": 132.8125,
      "v": 127
    },
    {
      "midi": 38,
      "hit": false,
      "t": 222125,
      "d": 117.1875,
      "v": 81
    },
    {
      "midi": 38,
      "hit": false,
      "t": 222250,
      "d": 114.58333333334303,
      "v": 118
    },
    {
      "midi": 38,
      "hit": false,
      "t": 222250.00000000006,
      "d": 109.375,
      "v": 127
    },
    {
      "midi": 38,
      "hit": false,
      "t": 222375,
      "d": 114.58333333334303,
      "v": 81
    },
    {
      "midi": 38,
      "hit": false,
      "t": 222500,
      "d": 117.1875,
      "v": 118
    },
    {
      "midi": 72,
      "hit": false,
      "t": 222500.00000000003,
      "d": 351.5625,
      "v": 90
    },
    {
      "midi": 38,
      "hit": false,
      "t": 222500.00000000006,
      "d": 111.97916666665697,
      "v": 127
    },
    {
      "midi": 38,
      "hit": false,
      "t": 222625,
      "d": 117.1875,
      "v": 81
    },
    {
      "midi": 64,
      "hit": false,
      "t": 222750.00000000003,
      "d": 268.22916666665697,
      "v": 100
    },
    {
      "midi": 38,
      "hit": false,
      "t": 222750.00000000006,
      "d": 192.70833333334303,
      "v": 127
    },
    {
      "midi": 38,
      "hit": false,
      "t": 222875,
      "d": 117.1875,
      "v": 87
    },
    {
      "midi": 64,
      "hit": false,
      "t": 222940.10416666645,
      "d": 1013.0208333333139,
      "v": 70
    },
    {
      "midi": 59,
      "hit": false,
      "t": 222960.9374999998,
      "d": 968.75,
      "v": 81
    },
    {
      "midi": 52,
      "hit": false,
      "t": 222997.3958333331,
      "d": 789.0625,
      "v": 53
    },
    {
      "midi": 28,
      "hit": false,
      "t": 223000.00000000006,
      "d": 156.25,
      "v": 127
    },
    {
      "midi": 28,
      "hit": false,
      "t": 223125,
      "d": 18.229166666656965,
      "v": 87
    },
    {
      "midi": 64,
      "hit": false,
      "t": 223125.00000000003,
      "d": 286.45833333334303,
      "v": 103
    },
    {
      "midi": 28,
      "hit": false,
      "t": 223250,
      "d": 18.229166666656965,
      "v": 113
    },
    {
      "midi": 28,
      "hit": false,
      "t": 223250.00000000006,
      "d": 122.39583333334303,
      "v": 127
    },
    {
      "midi": 76,
      "hit": false,
      "t": 223250.00000000035,
      "d": 273.4375,
      "v": 109
    },
    {
      "midi": 28,
      "hit": false,
      "t": 223375,
      "d": 101.5625,
      "v": 76
    },
    {
      "midi": 67,
      "hit": false,
      "t": 223500.00000000003,
      "d": 429.6875,
      "v": 100
    },
    {
      "midi": 28,
      "hit": false,
      "t": 223500.00000000006,
      "d": 119.79166666665697,
      "v": 127
    },
    {
      "midi": 83,
      "hit": false,
      "t": 223500.00000000035,
      "d": 294.27083333334303,
      "v": 103
    },
    {
      "midi": 28,
      "hit": false,
      "t": 223625,
      "d": 2.6041666666569654,
      "v": 90
    },
    {
      "midi": 28,
      "hit": false,
      "t": 223750,
      "d": 2.6041666666569654,
      "v": 124
    },
    {
      "midi": 76,
      "hit": false,
      "t": 223750,
      "d": 197.91666666665697,
      "v": 103
    },
    {
      "midi": 88,
      "hit": false,
      "t": 223750,
      "d": 226.5625,
      "v": 92
    },
    {
      "midi": 28,
      "hit": false,
      "t": 223750.00000000006,
      "d": 257.8125,
      "v": 127
    },
    {
      "midi": 88,
      "hit": false,
      "t": 223750.00000000035,
      "d": 143.22916666668607,
      "v": 100
    },
    {
      "midi": 100,
      "hit": false,
      "t": 223750.00000000035,
      "d": 143.22916666668607,
      "v": 100
    },
    {
      "midi": 28,
      "hit": false,
      "t": 223875,
      "d": 138.02083333334303,
      "v": 87
    },
    {
      "midi": 57,
      "hit": false,
      "t": 223940.10416666645,
      "d": 2028.645833333343,
      "v": 75
    },
    {
      "midi": 60,
      "hit": false,
      "t": 223942.7083333331,
      "d": 2031.25,
      "v": 77
    },
    {
      "midi": 45,
      "hit": false,
      "t": 223973.9583333331,
      "d": 2028.645833333343,
      "v": 56
    },
    {
      "midi": 38,
      "hit": false,
      "t": 224000,
      "d": 117.1875,
      "v": 118
    },
    {
      "midi": 69,
      "hit": false,
      "t": 224000.00000000003,
      "d": 463.54166666665697,
      "v": 106
    },
    {
      "midi": 38,
      "hit": false,
      "t": 224000.00000000006,
      "d": 132.8125,
      "v": 127
    },
    {
      "midi": 38,
      "hit": false,
      "t": 224125,
      "d": 117.1875,
      "v": 81
    },
    {
      "midi": 38,
      "hit": false,
      "t": 224250,
      "d": 114.58333333334303,
      "v": 118
    },
    {
      "midi": 38,
      "hit": false,
      "t": 224250.00000000006,
      "d": 109.375,
      "v": 127
    },
    {
      "midi": 38,
      "hit": false,
      "t": 224375,
      "d": 114.58333333334303,
      "v": 81
    },
    {
      "midi": 38,
      "hit": false,
      "t": 224500,
      "d": 117.1875,
      "v": 118
    },
    {
      "midi": 72,
      "hit": false,
      "t": 224500.00000000003,
      "d": 351.5625,
      "v": 90
    },
    {
      "midi": 38,
      "hit": false,
      "t": 224500.00000000006,
      "d": 111.97916666665697,
      "v": 127
    },
    {
      "midi": 38,
      "hit": false,
      "t": 224625,
      "d": 117.1875,
      "v": 81
    },
    {
      "midi": 64,
      "hit": false,
      "t": 224750.00000000003,
      "d": 268.22916666665697,
      "v": 100
    },
    {
      "midi": 38,
      "hit": false,
      "t": 224750.00000000006,
      "d": 192.70833333334303,
      "v": 127
    },
    {
      "midi": 38,
      "hit": false,
      "t": 224875,
      "d": 117.1875,
      "v": 87
    },
    {
      "midi": 52,
      "hit": false,
      "t": 224997.3958333331,
      "d": 789.0625,
      "v": 53
    },
    {
      "midi": 28,
      "hit": false,
      "t": 225000.00000000006,
      "d": 156.25,
      "v": 127
    },
    {
      "midi": 28,
      "hit": false,
      "t": 225125,
      "d": 18.229166666656965,
      "v": 87
    },
    {
      "midi": 64,
      "hit": false,
      "t": 225125.00000000003,
      "d": 286.45833333334303,
      "v": 103
    },
    {
      "midi": 28,
      "hit": false,
      "t": 225250,
      "d": 18.229166666656965,
      "v": 113
    },
    {
      "midi": 28,
      "hit": false,
      "t": 225250.00000000006,
      "d": 122.39583333334303,
      "v": 127
    },
    {
      "midi": 76,
      "hit": false,
      "t": 225250.00000000038,
      "d": 273.4375,
      "v": 109
    },
    {
      "midi": 28,
      "hit": false,
      "t": 225375,
      "d": 101.5625,
      "v": 76
    },
    {
      "midi": 67,
      "hit": false,
      "t": 225500.00000000003,
      "d": 429.6875,
      "v": 100
    },
    {
      "midi": 28,
      "hit": false,
      "t": 225500.00000000006,
      "d": 119.79166666665697,
      "v": 127
    },
    {
      "midi": 83,
      "hit": false,
      "t": 225500.00000000038,
      "d": 294.27083333334303,
      "v": 103
    },
    {
      "midi": 28,
      "hit": false,
      "t": 225625,
      "d": 2.6041666666569654,
      "v": 90
    },
    {
      "midi": 28,
      "hit": false,
      "t": 225750,
      "d": 2.6041666666569654,
      "v": 124
    },
    {
      "midi": 76,
      "hit": false,
      "t": 225750,
      "d": 197.91666666665697,
      "v": 103
    },
    {
      "midi": 88,
      "hit": false,
      "t": 225750,
      "d": 226.5625,
      "v": 92
    },
    {
      "midi": 28,
      "hit": false,
      "t": 225750.00000000006,
      "d": 257.8125,
      "v": 127
    },
    {
      "midi": 88,
      "hit": false,
      "t": 225750.00000000038,
      "d": 143.22916666668607,
      "v": 100
    },
    {
      "midi": 100,
      "hit": false,
      "t": 225750.00000000038,
      "d": 143.22916666668607,
      "v": 100
    },
    {
      "midi": 28,
      "hit": false,
      "t": 225875,
      "d": 138.02083333334303,
      "v": 87
    }
  ]
}