{
  "jsonPath": "Rock/Dance Rock/Pet Shop Boys/opportunities-lets-make-lots-of-money.json",
  "path": "Rock\\Dance Rock\\Pet Shop Boys\\Opportunities (Lets Make Lots Of Money).mid",
  "name": "Opportunities (Lets Make Lots Of Money)",
  "difficulty": "Advanced",
  "bpm": 120.99994353335968,
  "notes": [
    {
      "midi": 55,
      "hit": false,
      "t": 11900.832,
      "d": 371.90099999999984,
      "v": 100
    },
    {
      "midi": 62,
      "hit": false,
      "t": 11900.832,
      "d": 371.90099999999984,
      "v": 100
    },
    {
      "midi": 55,
      "hit": false,
      "t": 12272.733,
      "d": 371.90099999999984,
      "v": 100
    },
    {
      "midi": 60,
      "hit": false,
      "t": 12272.733,
      "d": 371.90099999999984,
      "v": 100
    },
    {
      "midi": 55,
      "hit": false,
      "t": 12644.634,
      "d": 247.9339999999993,
      "v": 100
    },
    {
      "midi": 60,
      "hit": false,
      "t": 12644.634,
      "d": 247.9339999999993,
      "v": 100
    },
    {
      "midi": 55,
      "hit": false,
      "t": 12892.568,
      "d": 371.90099999999984,
      "v": 100
    },
    {
      "midi": 62,
      "hit": false,
      "t": 12892.568,
      "d": 371.90099999999984,
      "v": 100
    },
    {
      "midi": 55,
      "hit": false,
      "t": 13264.469,
      "d": 371.90099999999984,
      "v": 100
    },
    {
      "midi": 60,
      "hit": false,
      "t": 13264.469,
      "d": 371.90099999999984,
      "v": 100
    },
    {
      "midi": 55,
      "hit": false,
      "t": 13636.369999999999,
      "d": 247.9339999999993,
      "v": 100
    },
    {
      "midi": 60,
      "hit": false,
      "t": 13636.369999999999,
      "d": 247.9339999999993,
      "v": 100
    },
    {
      "midi": 51,
      "hit": false,
      "t": 13884.303999999998,
      "d": 1983.4719999999998,
      "v": 100
    },
    {
      "midi": 56,
      "hit": false,
      "t": 13884.303999999998,
      "d": 1983.4719999999998,
      "v": 100
    },
    {
      "midi": 60,
      "hit": false,
      "t": 13884.303999999998,
      "d": 1983.4719999999998,
      "v": 100
    },
    {
      "midi": 63,
      "hit": false,
      "t": 15867.775999999998,
      "d": 991.7360000000008,
      "v": 100
    },
    {
      "midi": 63,
      "hit": false,
      "t": 16859.512,
      "d": 247.9340000000011,
      "v": 100
    },
    {
      "midi": 60,
      "hit": false,
      "t": 17107.446,
      "d": 247.9340000000011,
      "v": 100
    },
    {
      "midi": 63,
      "hit": false,
      "t": 17355.38,
      "d": 247.9340000000011,
      "v": 100
    },
    {
      "midi": 67,
      "hit": false,
      "t": 17603.314000000002,
      "d": 495.8679999999986,
      "v": 100
    },
    {
      "midi": 65,
      "hit": false,
      "t": 18099.182,
      "d": 495.8679999999986,
      "v": 100
    },
    {
      "midi": 65,
      "hit": false,
      "t": 18595.05,
      "d": 247.9340000000011,
      "v": 100
    },
    {
      "midi": 67,
      "hit": false,
      "t": 18842.984,
      "d": 495.8679999999986,
      "v": 100
    },
    {
      "midi": 65,
      "hit": false,
      "t": 19338.852,
      "d": 495.8679999999986,
      "v": 100
    },
    {
      "midi": 63,
      "hit": false,
      "t": 19834.719999999998,
      "d": 991.7360000000008,
      "v": 100
    },
    {
      "midi": 63,
      "hit": false,
      "t": 20826.456,
      "d": 247.9340000000011,
      "v": 100
    },
    {
      "midi": 60,
      "hit": false,
      "t": 21074.39,
      "d": 247.9340000000011,
      "v": 100
    },
    {
      "midi": 63,
      "hit": false,
      "t": 21322.324,
      "d": 247.9340000000011,
      "v": 100
    },
    {
      "midi": 67,
      "hit": false,
      "t": 21570.258,
      "d": 495.8679999999986,
      "v": 100
    },
    {
      "midi": 65,
      "hit": false,
      "t": 22066.126,
      "d": 495.8679999999986,
      "v": 100
    },
    {
      "midi": 65,
      "hit": false,
      "t": 22561.994,
      "d": 247.9340000000011,
      "v": 100
    },
    {
      "midi": 67,
      "hit": false,
      "t": 22809.928,
      "d": 495.8679999999986,
      "v": 100
    },
    {
      "midi": 65,
      "hit": false,
      "t": 23305.796,
      "d": 495.8679999999986,
      "v": 100
    },
    {
      "midi": 63,
      "hit": false,
      "t": 23801.663999999997,
      "d": 495.8679999999986,
      "v": 100
    },
    {
      "midi": 62,
      "hit": false,
      "t": 24297.531999999996,
      "d": 247.9340000000011,
      "v": 100
    },
    {
      "midi": 60,
      "hit": false,
      "t": 24545.465999999997,
      "d": 495.8679999999986,
      "v": 100
    },
    {
      "midi": 63,
      "hit": false,
      "t": 25785.135999999995,
      "d": 495.8679999999986,
      "v": 100
    },
    {
      "midi": 62,
      "hit": false,
      "t": 26281.003999999994,
      "d": 247.9340000000011,
      "v": 100
    },
    {
      "midi": 60,
      "hit": false,
      "t": 26528.937999999995,
      "d": 495.8679999999986,
      "v": 100
    },
    {
      "midi": 58,
      "hit": false,
      "t": 27768.607999999993,
      "d": 991.7360000000008,
      "v": 100
    },
    {
      "midi": 58,
      "hit": false,
      "t": 28760.343999999994,
      "d": 247.9340000000011,
      "v": 100
    },
    {
      "midi": 55,
      "hit": false,
      "t": 29008.277999999995,
      "d": 247.9340000000011,
      "v": 100
    },
    {
      "midi": 62,
      "hit": false,
      "t": 29256.211999999996,
      "d": 247.9340000000011,
      "v": 100
    },
    {
      "midi": 60,
      "hit": false,
      "t": 29504.145999999997,
      "d": 495.8679999999986,
      "v": 100
    },
    {
      "midi": 51,
      "hit": false,
      "t": 45619.856,
      "d": 123.96699999999691,
      "v": 100
    },
    {
      "midi": 55,
      "hit": false,
      "t": 45619.856,
      "d": 123.96699999999691,
      "v": 100
    },
    {
      "midi": 60,
      "hit": false,
      "t": 45619.856,
      "d": 123.96699999999691,
      "v": 100
    },
    {
      "midi": 51,
      "hit": false,
      "t": 45867.78999999999,
      "d": 123.96699999999691,
      "v": 100
    },
    {
      "midi": 55,
      "hit": false,
      "t": 45867.78999999999,
      "d": 123.96699999999691,
      "v": 100
    },
    {
      "midi": 60,
      "hit": false,
      "t": 45867.78999999999,
      "d": 123.96699999999691,
      "v": 100
    },
    {
      "midi": 51,
      "hit": false,
      "t": 46115.72399999999,
      "d": 123.96699999999691,
      "v": 100
    },
    {
      "midi": 55,
      "hit": false,
      "t": 46115.72399999999,
      "d": 123.96699999999691,
      "v": 100
    },
    {
      "midi": 60,
      "hit": false,
      "t": 46115.72399999999,
      "d": 123.96699999999691,
      "v": 100
    },
    {
      "midi": 51,
      "hit": false,
      "t": 46363.65799999998,
      "d": 123.96699999999691,
      "v": 100
    },
    {
      "midi": 55,
      "hit": false,
      "t": 46363.65799999998,
      "d": 123.96699999999691,
      "v": 100
    },
    {
      "midi": 60,
      "hit": false,
      "t": 46363.65799999998,
      "d": 123.96699999999691,
      "v": 100
    },
    {
      "midi": 51,
      "hit": false,
      "t": 46487.62499999998,
      "d": 123.96699999999691,
      "v": 100
    },
    {
      "midi": 55,
      "hit": false,
      "t": 46487.62499999998,
      "d": 123.96699999999691,
      "v": 100
    },
    {
      "midi": 60,
      "hit": false,
      "t": 46487.62499999998,
      "d": 123.96699999999691,
      "v": 100
    },
    {
      "midi": 60,
      "hit": false,
      "t": 46487.625,
      "d": 123.96699999999691,
      "v": 100
    },
    {
      "midi": 51,
      "hit": false,
      "t": 46735.55899999997,
      "d": 123.96699999999691,
      "v": 100
    },
    {
      "midi": 55,
      "hit": false,
      "t": 46735.55899999997,
      "d": 123.96699999999691,
      "v": 100
    },
    {
      "midi": 60,
      "hit": false,
      "t": 46735.55899999997,
      "d": 123.96699999999691,
      "v": 100
    },
    {
      "midi": 60,
      "hit": false,
      "t": 46735.558999999994,
      "d": 123.96699999999691,
      "v": 100
    },
    {
      "midi": 51,
      "hit": false,
      "t": 46859.52599999997,
      "d": 123.96699999999691,
      "v": 100
    },
    {
      "midi": 55,
      "hit": false,
      "t": 46859.52599999997,
      "d": 123.96699999999691,
      "v": 100
    },
    {
      "midi": 60,
      "hit": false,
      "t": 46859.52599999997,
      "d": 123.96699999999691,
      "v": 100
    },
    {
      "midi": 58,
      "hit": false,
      "t": 46859.52599999999,
      "d": 123.96699999999691,
      "v": 100
    },
    {
      "midi": 51,
      "hit": false,
      "t": 47107.45999999996,
      "d": 123.96699999999691,
      "v": 100
    },
    {
      "midi": 55,
      "hit": false,
      "t": 47107.45999999996,
      "d": 123.96699999999691,
      "v": 100
    },
    {
      "midi": 60,
      "hit": false,
      "t": 47107.45999999996,
      "d": 123.96699999999691,
      "v": 100
    },
    {
      "midi": 60,
      "hit": false,
      "t": 47107.459999999985,
      "d": 123.96699999999691,
      "v": 100
    },
    {
      "midi": 51,
      "hit": false,
      "t": 47355.39399999996,
      "d": 123.96699999999691,
      "v": 100
    },
    {
      "midi": 55,
      "hit": false,
      "t": 47355.39399999996,
      "d": 123.96699999999691,
      "v": 100
    },
    {
      "midi": 60,
      "hit": false,
      "t": 47355.39399999996,
      "d": 123.96699999999691,
      "v": 100
    },
    {
      "midi": 55,
      "hit": false,
      "t": 47603.32799999995,
      "d": 123.96699999999691,
      "v": 100
    },
    {
      "midi": 58,
      "hit": false,
      "t": 47603.32799999995,
      "d": 123.96699999999691,
      "v": 100
    },
    {
      "midi": 63,
      "hit": false,
      "t": 47603.32799999995,
      "d": 123.96699999999691,
      "v": 100
    },
    {
      "midi": 55,
      "hit": false,
      "t": 47851.261999999944,
      "d": 123.96699999999691,
      "v": 100
    },
    {
      "midi": 58,
      "hit": false,
      "t": 47851.261999999944,
      "d": 123.96699999999691,
      "v": 100
    },
    {
      "midi": 63,
      "hit": false,
      "t": 47851.261999999944,
      "d": 123.96699999999691,
      "v": 100
    },
    {
      "midi": 55,
      "hit": false,
      "t": 48099.19599999994,
      "d": 123.96699999999691,
      "v": 100
    },
    {
      "midi": 58,
      "hit": false,
      "t": 48099.19599999994,
      "d": 123.96699999999691,
      "v": 100
    },
    {
      "midi": 63,
      "hit": false,
      "t": 48099.19599999994,
      "d": 123.96699999999691,
      "v": 100
    },
    {
      "midi": 55,
      "hit": false,
      "t": 48347.12999999993,
      "d": 123.96699999999691,
      "v": 100
    },
    {
      "midi": 58,
      "hit": false,
      "t": 48347.12999999993,
      "d": 123.96699999999691,
      "v": 100
    },
    {
      "midi": 63,
      "hit": false,
      "t": 48347.12999999993,
      "d": 123.96699999999691,
      "v": 100
    },
    {
      "midi": 55,
      "hit": false,
      "t": 48471.09699999993,
      "d": 123.96699999999691,
      "v": 100
    },
    {
      "midi": 58,
      "hit": false,
      "t": 48471.09699999993,
      "d": 123.96699999999691,
      "v": 100
    },
    {
      "midi": 63,
      "hit": false,
      "t": 48471.09699999993,
      "d": 123.96699999999691,
      "v": 100
    },
    {
      "midi": 55,
      "hit": false,
      "t": 48719.03099999992,
      "d": 123.96699999999691,
      "v": 100
    },
    {
      "midi": 58,
      "hit": false,
      "t": 48719.03099999992,
      "d": 123.96699999999691,
      "v": 100
    },
    {
      "midi": 63,
      "hit": false,
      "t": 48719.03099999992,
      "d": 123.96699999999691,
      "v": 100
    },
    {
      "midi": 55,
      "hit": false,
      "t": 48842.99799999992,
      "d": 123.96699999999691,
      "v": 100
    },
    {
      "midi": 58,
      "hit": false,
      "t": 48842.99799999992,
      "d": 123.96699999999691,
      "v": 100
    },
    {
      "midi": 63,
      "hit": false,
      "t": 48842.99799999992,
      "d": 123.96699999999691,
      "v": 100
    },
    {
      "midi": 55,
      "hit": false,
      "t": 49090.93199999991,
      "d": 123.96699999999691,
      "v": 100
    },
    {
      "midi": 58,
      "hit": false,
      "t": 49090.93199999991,
      "d": 123.96699999999691,
      "v": 100
    },
    {
      "midi": 63,
      "hit": false,
      "t": 49090.93199999991,
      "d": 123.96699999999691,
      "v": 100
    },
    {
      "midi": 55,
      "hit": false,
      "t": 49338.86599999991,
      "d": 123.96699999999691,
      "v": 100
    },
    {
      "midi": 58,
      "hit": false,
      "t": 49338.86599999991,
      "d": 123.96699999999691,
      "v": 100
    },
    {
      "midi": 63,
      "hit": false,
      "t": 49338.86599999991,
      "d": 123.96699999999691,
      "v": 100
    },
    {
      "midi": 53,
      "hit": false,
      "t": 49586.7999999999,
      "d": 123.96699999999691,
      "v": 100
    },
    {
      "midi": 58,
      "hit": false,
      "t": 49586.7999999999,
      "d": 123.96699999999691,
      "v": 100
    },
    {
      "midi": 62,
      "hit": false,
      "t": 49586.7999999999,
      "d": 123.96699999999691,
      "v": 100
    },
    {
      "midi": 53,
      "hit": false,
      "t": 49834.733999999895,
      "d": 123.96699999999691,
      "v": 100
    },
    {
      "midi": 58,
      "hit": false,
      "t": 49834.733999999895,
      "d": 123.96699999999691,
      "v": 100
    },
    {
      "midi": 62,
      "hit": false,
      "t": 49834.733999999895,
      "d": 123.96699999999691,
      "v": 100
    },
    {
      "midi": 53,
      "hit": false,
      "t": 50082.66799999989,
      "d": 123.96699999999691,
      "v": 100
    },
    {
      "midi": 58,
      "hit": false,
      "t": 50082.66799999989,
      "d": 123.96699999999691,
      "v": 100
    },
    {
      "midi": 62,
      "hit": false,
      "t": 50082.66799999989,
      "d": 123.96699999999691,
      "v": 100
    },
    {
      "midi": 53,
      "hit": false,
      "t": 50330.60199999988,
      "d": 123.96699999999691,
      "v": 100
    },
    {
      "midi": 58,
      "hit": false,
      "t": 50330.60199999988,
      "d": 123.96699999999691,
      "v": 100
    },
    {
      "midi": 62,
      "hit": false,
      "t": 50330.60199999988,
      "d": 123.96699999999691,
      "v": 100
    },
    {
      "midi": 53,
      "hit": false,
      "t": 50454.56899999988,
      "d": 123.96699999999691,
      "v": 100
    },
    {
      "midi": 58,
      "hit": false,
      "t": 50454.56899999988,
      "d": 123.96699999999691,
      "v": 100
    },
    {
      "midi": 62,
      "hit": false,
      "t": 50454.56899999988,
      "d": 123.96699999999691,
      "v": 100
    },
    {
      "midi": 60,
      "hit": false,
      "t": 50454.56899999998,
      "d": 123.96699999999691,
      "v": 100
    },
    {
      "midi": 53,
      "hit": false,
      "t": 50702.50299999987,
      "d": 123.96699999999691,
      "v": 100
    },
    {
      "midi": 58,
      "hit": false,
      "t": 50702.50299999987,
      "d": 123.96699999999691,
      "v": 100
    },
    {
      "midi": 62,
      "hit": false,
      "t": 50702.50299999987,
      "d": 123.96699999999691,
      "v": 100
    },
    {
      "midi": 60,
      "hit": false,
      "t": 50702.502999999975,
      "d": 123.96699999999691,
      "v": 100
    },
    {
      "midi": 53,
      "hit": false,
      "t": 50826.46999999987,
      "d": 123.96699999999691,
      "v": 100
    },
    {
      "midi": 58,
      "hit": false,
      "t": 50826.46999999987,
      "d": 123.96699999999691,
      "v": 100
    },
    {
      "midi": 62,
      "hit": false,
      "t": 50826.46999999987,
      "d": 123.96699999999691,
      "v": 100
    },
    {
      "midi": 58,
      "hit": false,
      "t": 50826.46999999997,
      "d": 123.96699999999691,
      "v": 100
    },
    {
      "midi": 53,
      "hit": false,
      "t": 51074.403999999864,
      "d": 123.96699999999691,
      "v": 100
    },
    {
      "midi": 58,
      "hit": false,
      "t": 51074.403999999864,
      "d": 123.96699999999691,
      "v": 100
    },
    {
      "midi": 62,
      "hit": false,
      "t": 51074.403999999864,
      "d": 123.96699999999691,
      "v": 100
    },
    {
      "midi": 60,
      "hit": false,
      "t": 51074.403999999966,
      "d": 123.96699999999691,
      "v": 100
    },
    {
      "midi": 53,
      "hit": false,
      "t": 51322.33799999986,
      "d": 123.96699999999691,
      "v": 100
    },
    {
      "midi": 58,
      "hit": false,
      "t": 51322.33799999986,
      "d": 123.96699999999691,
      "v": 100
    },
    {
      "midi": 62,
      "hit": false,
      "t": 51322.33799999986,
      "d": 123.96699999999691,
      "v": 100
    },
    {
      "midi": 51,
      "hit": false,
      "t": 51570.27199999985,
      "d": 123.96699999999691,
      "v": 100
    },
    {
      "midi": 55,
      "hit": false,
      "t": 51570.27199999985,
      "d": 123.96699999999691,
      "v": 100
    },
    {
      "midi": 60,
      "hit": false,
      "t": 51570.27199999985,
      "d": 123.96699999999691,
      "v": 100
    },
    {
      "midi": 51,
      "hit": false,
      "t": 51818.205999999846,
      "d": 123.96699999999691,
      "v": 100
    },
    {
      "midi": 55,
      "hit": false,
      "t": 51818.205999999846,
      "d": 123.96699999999691,
      "v": 100
    },
    {
      "midi": 60,
      "hit": false,
      "t": 51818.205999999846,
      "d": 123.96699999999691,
      "v": 100
    },
    {
      "midi": 51,
      "hit": false,
      "t": 52066.13999999984,
      "d": 123.96699999999691,
      "v": 100
    },
    {
      "midi": 55,
      "hit": false,
      "t": 52066.13999999984,
      "d": 123.96699999999691,
      "v": 100
    },
    {
      "midi": 60,
      "hit": false,
      "t": 52066.13999999984,
      "d": 123.96699999999691,
      "v": 100
    },
    {
      "midi": 51,
      "hit": false,
      "t": 52314.07399999983,
      "d": 123.96699999999691,
      "v": 100
    },
    {
      "midi": 55,
      "hit": false,
      "t": 52314.07399999983,
      "d": 123.96699999999691,
      "v": 100
    },
    {
      "midi": 60,
      "hit": false,
      "t": 52314.07399999983,
      "d": 123.96699999999691,
      "v": 100
    },
    {
      "midi": 51,
      "hit": false,
      "t": 52438.04099999983,
      "d": 123.96699999999691,
      "v": 100
    },
    {
      "midi": 55,
      "hit": false,
      "t": 52438.04099999983,
      "d": 123.96699999999691,
      "v": 100
    },
    {
      "midi": 60,
      "hit": false,
      "t": 52438.04099999983,
      "d": 123.96699999999691,
      "v": 100
    },
    {
      "midi": 51,
      "hit": false,
      "t": 52685.974999999824,
      "d": 123.96699999999691,
      "v": 100
    },
    {
      "midi": 55,
      "hit": false,
      "t": 52685.974999999824,
      "d": 123.96699999999691,
      "v": 100
    },
    {
      "midi": 60,
      "hit": false,
      "t": 52685.974999999824,
      "d": 123.96699999999691,
      "v": 100
    },
    {
      "midi": 51,
      "hit": false,
      "t": 52809.94199999982,
      "d": 123.96699999999691,
      "v": 100
    },
    {
      "midi": 55,
      "hit": false,
      "t": 52809.94199999982,
      "d": 123.96699999999691,
      "v": 100
    },
    {
      "midi": 60,
      "hit": false,
      "t": 52809.94199999982,
      "d": 123.96699999999691,
      "v": 100
    },
    {
      "midi": 51,
      "hit": false,
      "t": 53057.875999999815,
      "d": 123.96699999999691,
      "v": 100
    },
    {
      "midi": 55,
      "hit": false,
      "t": 53057.875999999815,
      "d": 123.96699999999691,
      "v": 100
    },
    {
      "midi": 60,
      "hit": false,
      "t": 53057.875999999815,
      "d": 123.96699999999691,
      "v": 100
    },
    {
      "midi": 51,
      "hit": false,
      "t": 53305.80999999981,
      "d": 123.96699999999691,
      "v": 100
    },
    {
      "midi": 55,
      "hit": false,
      "t": 53305.80999999981,
      "d": 123.96699999999691,
      "v": 100
    },
    {
      "midi": 60,
      "hit": false,
      "t": 53305.80999999981,
      "d": 123.96699999999691,
      "v": 100
    },
    {
      "midi": 51,
      "hit": false,
      "t": 53553.7439999998,
      "d": 123.96699999999691,
      "v": 100
    },
    {
      "midi": 55,
      "hit": false,
      "t": 53553.7439999998,
      "d": 123.96699999999691,
      "v": 100
    },
    {
      "midi": 60,
      "hit": false,
      "t": 53553.7439999998,
      "d": 123.96699999999691,
      "v": 100
    },
    {
      "midi": 51,
      "hit": false,
      "t": 53801.677999999796,
      "d": 123.96699999999691,
      "v": 100
    },
    {
      "midi": 55,
      "hit": false,
      "t": 53801.677999999796,
      "d": 123.96699999999691,
      "v": 100
    },
    {
      "midi": 60,
      "hit": false,
      "t": 53801.677999999796,
      "d": 123.96699999999691,
      "v": 100
    },
    {
      "midi": 51,
      "hit": false,
      "t": 54049.61199999979,
      "d": 123.96699999999691,
      "v": 100
    },
    {
      "midi": 55,
      "hit": false,
      "t": 54049.61199999979,
      "d": 123.96699999999691,
      "v": 100
    },
    {
      "midi": 60,
      "hit": false,
      "t": 54049.61199999979,
      "d": 123.96699999999691,
      "v": 100
    },
    {
      "midi": 51,
      "hit": false,
      "t": 54297.545999999784,
      "d": 123.96699999999691,
      "v": 100
    },
    {
      "midi": 55,
      "hit": false,
      "t": 54297.545999999784,
      "d": 123.96699999999691,
      "v": 100
    },
    {
      "midi": 60,
      "hit": false,
      "t": 54297.545999999784,
      "d": 123.96699999999691,
      "v": 100
    },
    {
      "midi": 51,
      "hit": false,
      "t": 54421.51299999978,
      "d": 123.96699999999691,
      "v": 100
    },
    {
      "midi": 55,
      "hit": false,
      "t": 54421.51299999978,
      "d": 123.96699999999691,
      "v": 100
    },
    {
      "midi": 60,
      "hit": false,
      "t": 54421.51299999978,
      "d": 123.96699999999691,
      "v": 100
    },
    {
      "midi": 60,
      "hit": false,
      "t": 54421.51299999996,
      "d": 123.96699999999691,
      "v": 100
    },
    {
      "midi": 51,
      "hit": false,
      "t": 54669.446999999775,
      "d": 123.96699999999691,
      "v": 100
    },
    {
      "midi": 55,
      "hit": false,
      "t": 54669.446999999775,
      "d": 123.96699999999691,
      "v": 100
    },
    {
      "midi": 60,
      "hit": false,
      "t": 54669.446999999775,
      "d": 123.96699999999691,
      "v": 100
    },
    {
      "midi": 60,
      "hit": false,
      "t": 54669.44699999996,
      "d": 123.96699999999691,
      "v": 100
    },
    {
      "midi": 51,
      "hit": false,
      "t": 54793.41399999977,
      "d": 123.96699999999691,
      "v": 100
    },
    {
      "midi": 55,
      "hit": false,
      "t": 54793.41399999977,
      "d": 123.96699999999691,
      "v": 100
    },
    {
      "midi": 60,
      "hit": false,
      "t": 54793.41399999977,
      "d": 123.96699999999691,
      "v": 100
    },
    {
      "midi": 58,
      "hit": false,
      "t": 54793.41399999995,
      "d": 123.96699999999691,
      "v": 100
    },
    {
      "midi": 51,
      "hit": false,
      "t": 55041.347999999765,
      "d": 123.96699999999691,
      "v": 100
    },
    {
      "midi": 55,
      "hit": false,
      "t": 55041.347999999765,
      "d": 123.96699999999691,
      "v": 100
    },
    {
      "midi": 60,
      "hit": false,
      "t": 55041.347999999765,
      "d": 123.96699999999691,
      "v": 100
    },
    {
      "midi": 60,
      "hit": false,
      "t": 55041.34799999995,
      "d": 123.96699999999691,
      "v": 100
    },
    {
      "midi": 51,
      "hit": false,
      "t": 55289.28199999976,
      "d": 123.96699999999691,
      "v": 100
    },
    {
      "midi": 55,
      "hit": false,
      "t": 55289.28199999976,
      "d": 123.96699999999691,
      "v": 100
    },
    {
      "midi": 60,
      "hit": false,
      "t": 55289.28199999976,
      "d": 123.96699999999691,
      "v": 100
    },
    {
      "midi": 55,
      "hit": false,
      "t": 55537.21599999975,
      "d": 123.96699999999691,
      "v": 100
    },
    {
      "midi": 58,
      "hit": false,
      "t": 55537.21599999975,
      "d": 123.96699999999691,
      "v": 100
    },
    {
      "midi": 63,
      "hit": false,
      "t": 55537.21599999975,
      "d": 123.96699999999691,
      "v": 100
    },
    {
      "midi": 55,
      "hit": false,
      "t": 55785.14999999975,
      "d": 123.96699999999691,
      "v": 100
    },
    {
      "midi": 58,
      "hit": false,
      "t": 55785.14999999975,
      "d": 123.96699999999691,
      "v": 100
    },
    {
      "midi": 63,
      "hit": false,
      "t": 55785.14999999975,
      "d": 123.96699999999691,
      "v": 100
    },
    {
      "midi": 55,
      "hit": false,
      "t": 56033.08399999974,
      "d": 123.96699999999691,
      "v": 100
    },
    {
      "midi": 58,
      "hit": false,
      "t": 56033.08399999974,
      "d": 123.96699999999691,
      "v": 100
    },
    {
      "midi": 63,
      "hit": false,
      "t": 56033.08399999974,
      "d": 123.96699999999691,
      "v": 100
    },
    {
      "midi": 55,
      "hit": false,
      "t": 56281.017999999734,
      "d": 123.96699999999691,
      "v": 100
    },
    {
      "midi": 58,
      "hit": false,
      "t": 56281.017999999734,
      "d": 123.96699999999691,
      "v": 100
    },
    {
      "midi": 63,
      "hit": false,
      "t": 56281.017999999734,
      "d": 123.96699999999691,
      "v": 100
    },
    {
      "midi": 55,
      "hit": false,
      "t": 56404.98499999973,
      "d": 123.96699999999691,
      "v": 100
    },
    {
      "midi": 58,
      "hit": false,
      "t": 56404.98499999973,
      "d": 123.96699999999691,
      "v": 100
    },
    {
      "midi": 63,
      "hit": false,
      "t": 56404.98499999973,
      "d": 123.96699999999691,
      "v": 100
    },
    {
      "midi": 55,
      "hit": false,
      "t": 56652.918999999725,
      "d": 123.96699999999691,
      "v": 100
    },
    {
      "midi": 58,
      "hit": false,
      "t": 56652.918999999725,
      "d": 123.96699999999691,
      "v": 100
    },
    {
      "midi": 63,
      "hit": false,
      "t": 56652.918999999725,
      "d": 123.96699999999691,
      "v": 100
    },
    {
      "midi": 55,
      "hit": false,
      "t": 56776.88599999972,
      "d": 123.96699999999691,
      "v": 100
    },
    {
      "midi": 58,
      "hit": false,
      "t": 56776.88599999972,
      "d": 123.96699999999691,
      "v": 100
    },
    {
      "midi": 63,
      "hit": false,
      "t": 56776.88599999972,
      "d": 123.96699999999691,
      "v": 100
    },
    {
      "midi": 55,
      "hit": false,
      "t": 57024.819999999716,
      "d": 123.96699999999691,
      "v": 100
    },
    {
      "midi": 58,
      "hit": false,
      "t": 57024.819999999716,
      "d": 123.96699999999691,
      "v": 100
    },
    {
      "midi": 63,
      "hit": false,
      "t": 57024.819999999716,
      "d": 123.96699999999691,
      "v": 100
    },
    {
      "midi": 55,
      "hit": false,
      "t": 57272.75399999971,
      "d": 123.96699999999691,
      "v": 100
    },
    {
      "midi": 58,
      "hit": false,
      "t": 57272.75399999971,
      "d": 123.96699999999691,
      "v": 100
    },
    {
      "midi": 63,
      "hit": false,
      "t": 57272.75399999971,
      "d": 123.96699999999691,
      "v": 100
    },
    {
      "midi": 53,
      "hit": false,
      "t": 57520.6879999997,
      "d": 123.96699999999691,
      "v": 100
    },
    {
      "midi": 58,
      "hit": false,
      "t": 57520.6879999997,
      "d": 123.96699999999691,
      "v": 100
    },
    {
      "midi": 62,
      "hit": false,
      "t": 57520.6879999997,
      "d": 123.96699999999691,
      "v": 100
    },
    {
      "midi": 53,
      "hit": false,
      "t": 57768.6219999997,
      "d": 123.96699999999691,
      "v": 100
    },
    {
      "midi": 58,
      "hit": false,
      "t": 57768.6219999997,
      "d": 123.96699999999691,
      "v": 100
    },
    {
      "midi": 62,
      "hit": false,
      "t": 57768.6219999997,
      "d": 123.96699999999691,
      "v": 100
    },
    {
      "midi": 53,
      "hit": false,
      "t": 58016.55599999969,
      "d": 123.96699999999691,
      "v": 100
    },
    {
      "midi": 58,
      "hit": false,
      "t": 58016.55599999969,
      "d": 123.96699999999691,
      "v": 100
    },
    {
      "midi": 62,
      "hit": false,
      "t": 58016.55599999969,
      "d": 123.96699999999691,
      "v": 100
    },
    {
      "midi": 53,
      "hit": false,
      "t": 58264.489999999685,
      "d": 123.96699999999691,
      "v": 100
    },
    {
      "midi": 58,
      "hit": false,
      "t": 58264.489999999685,
      "d": 123.96699999999691,
      "v": 100
    },
    {
      "midi": 62,
      "hit": false,
      "t": 58264.489999999685,
      "d": 123.96699999999691,
      "v": 100
    },
    {
      "midi": 53,
      "hit": false,
      "t": 58388.45699999968,
      "d": 123.96699999999691,
      "v": 100
    },
    {
      "midi": 58,
      "hit": false,
      "t": 58388.45699999968,
      "d": 123.96699999999691,
      "v": 100
    },
    {
      "midi": 62,
      "hit": false,
      "t": 58388.45699999968,
      "d": 123.96699999999691,
      "v": 100
    },
    {
      "midi": 60,
      "hit": false,
      "t": 58388.456999999944,
      "d": 123.96699999999691,
      "v": 100
    },
    {
      "midi": 53,
      "hit": false,
      "t": 58636.390999999676,
      "d": 123.96699999999691,
      "v": 100
    },
    {
      "midi": 58,
      "hit": false,
      "t": 58636.390999999676,
      "d": 123.96699999999691,
      "v": 100
    },
    {
      "midi": 62,
      "hit": false,
      "t": 58636.390999999676,
      "d": 123.96699999999691,
      "v": 100
    },
    {
      "midi": 60,
      "hit": false,
      "t": 58636.39099999994,
      "d": 123.96699999999691,
      "v": 100
    },
    {
      "midi": 53,
      "hit": false,
      "t": 58760.35799999967,
      "d": 123.96699999999691,
      "v": 100
    },
    {
      "midi": 58,
      "hit": false,
      "t": 58760.35799999967,
      "d": 123.96699999999691,
      "v": 100
    },
    {
      "midi": 62,
      "hit": false,
      "t": 58760.35799999967,
      "d": 123.96699999999691,
      "v": 100
    },
    {
      "midi": 58,
      "hit": false,
      "t": 58760.357999999935,
      "d": 123.96699999999691,
      "v": 100
    },
    {
      "midi": 53,
      "hit": false,
      "t": 59008.29199999967,
      "d": 123.96699999999691,
      "v": 100
    },
    {
      "midi": 58,
      "hit": false,
      "t": 59008.29199999967,
      "d": 123.96699999999691,
      "v": 100
    },
    {
      "midi": 62,
      "hit": false,
      "t": 59008.29199999967,
      "d": 123.96699999999691,
      "v": 100
    },
    {
      "midi": 60,
      "hit": false,
      "t": 59008.29199999993,
      "d": 123.96699999999691,
      "v": 100
    },
    {
      "midi": 53,
      "hit": false,
      "t": 59256.22599999966,
      "d": 123.96699999999691,
      "v": 100
    },
    {
      "midi": 58,
      "hit": false,
      "t": 59256.22599999966,
      "d": 123.96699999999691,
      "v": 100
    },
    {
      "midi": 62,
      "hit": false,
      "t": 59256.22599999966,
      "d": 123.96699999999691,
      "v": 100
    },
    {
      "midi": 51,
      "hit": false,
      "t": 78347.14399999965,
      "d": 123.96700000000419,
      "v": 100
    },
    {
      "midi": 55,
      "hit": false,
      "t": 78347.14399999965,
      "d": 123.96700000000419,
      "v": 100
    },
    {
      "midi": 60,
      "hit": false,
      "t": 78347.14399999965,
      "d": 123.96700000000419,
      "v": 100
    },
    {
      "midi": 51,
      "hit": false,
      "t": 78595.07799999966,
      "d": 123.96700000000419,
      "v": 100
    },
    {
      "midi": 55,
      "hit": false,
      "t": 78595.07799999966,
      "d": 123.96700000000419,
      "v": 100
    },
    {
      "midi": 60,
      "hit": false,
      "t": 78595.07799999966,
      "d": 123.96700000000419,
      "v": 100
    },
    {
      "midi": 51,
      "hit": false,
      "t": 78843.01199999967,
      "d": 123.96700000000419,
      "v": 100
    },
    {
      "midi": 55,
      "hit": false,
      "t": 78843.01199999967,
      "d": 123.96700000000419,
      "v": 100
    },
    {
      "midi": 60,
      "hit": false,
      "t": 78843.01199999967,
      "d": 123.96700000000419,
      "v": 100
    },
    {
      "midi": 51,
      "hit": false,
      "t": 79090.94599999968,
      "d": 123.96700000000419,
      "v": 100
    },
    {
      "midi": 55,
      "hit": false,
      "t": 79090.94599999968,
      "d": 123.96700000000419,
      "v": 100
    },
    {
      "midi": 60,
      "hit": false,
      "t": 79090.94599999968,
      "d": 123.96700000000419,
      "v": 100
    },
    {
      "midi": 51,
      "hit": false,
      "t": 79214.91299999968,
      "d": 123.96700000000419,
      "v": 100
    },
    {
      "midi": 55,
      "hit": false,
      "t": 79214.91299999968,
      "d": 123.96700000000419,
      "v": 100
    },
    {
      "midi": 60,
      "hit": false,
      "t": 79214.91299999968,
      "d": 123.96700000000419,
      "v": 100
    },
    {
      "midi": 60,
      "hit": false,
      "t": 79214.91299999993,
      "d": 123.96700000000419,
      "v": 100
    },
    {
      "midi": 51,
      "hit": false,
      "t": 79462.84699999969,
      "d": 123.96700000000419,
      "v": 100
    },
    {
      "midi": 55,
      "hit": false,
      "t": 79462.84699999969,
      "d": 123.96700000000419,
      "v": 100
    },
    {
      "midi": 60,
      "hit": false,
      "t": 79462.84699999969,
      "d": 123.96700000000419,
      "v": 100
    },
    {
      "midi": 60,
      "hit": false,
      "t": 79462.84699999994,
      "d": 123.96700000000419,
      "v": 100
    },
    {
      "midi": 51,
      "hit": false,
      "t": 79586.8139999997,
      "d": 123.96700000000419,
      "v": 100
    },
    {
      "midi": 55,
      "hit": false,
      "t": 79586.8139999997,
      "d": 123.96700000000419,
      "v": 100
    },
    {
      "midi": 60,
      "hit": false,
      "t": 79586.8139999997,
      "d": 123.96700000000419,
      "v": 100
    },
    {
      "midi": 58,
      "hit": false,
      "t": 79586.81399999994,
      "d": 123.96700000000419,
      "v": 100
    },
    {
      "midi": 51,
      "hit": false,
      "t": 79834.7479999997,
      "d": 123.96700000000419,
      "v": 100
    },
    {
      "midi": 55,
      "hit": false,
      "t": 79834.7479999997,
      "d": 123.96700000000419,
      "v": 100
    },
    {
      "midi": 60,
      "hit": false,
      "t": 79834.7479999997,
      "d": 123.96700000000419,
      "v": 100
    },
    {
      "midi": 60,
      "hit": false,
      "t": 79834.74799999995,
      "d": 123.96700000000419,
      "v": 100
    },
    {
      "midi": 51,
      "hit": false,
      "t": 80082.68199999971,
      "d": 123.96700000000419,
      "v": 100
    },
    {
      "midi": 55,
      "hit": false,
      "t": 80082.68199999971,
      "d": 123.96700000000419,
      "v": 100
    },
    {
      "midi": 60,
      "hit": false,
      "t": 80082.68199999971,
      "d": 123.96700000000419,
      "v": 100
    },
    {
      "midi": 55,
      "hit": false,
      "t": 80330.61599999972,
      "d": 123.96700000000419,
      "v": 100
    },
    {
      "midi": 58,
      "hit": false,
      "t": 80330.61599999972,
      "d": 123.96700000000419,
      "v": 100
    },
    {
      "midi": 63,
      "hit": false,
      "t": 80330.61599999972,
      "d": 123.96700000000419,
      "v": 100
    },
    {
      "midi": 55,
      "hit": false,
      "t": 80578.54999999973,
      "d": 123.96700000000419,
      "v": 100
    },
    {
      "midi": 58,
      "hit": false,
      "t": 80578.54999999973,
      "d": 123.96700000000419,
      "v": 100
    },
    {
      "midi": 63,
      "hit": false,
      "t": 80578.54999999973,
      "d": 123.96700000000419,
      "v": 100
    },
    {
      "midi": 55,
      "hit": false,
      "t": 80826.48399999973,
      "d": 123.96700000000419,
      "v": 100
    },
    {
      "midi": 58,
      "hit": false,
      "t": 80826.48399999973,
      "d": 123.96700000000419,
      "v": 100
    },
    {
      "midi": 63,
      "hit": false,
      "t": 80826.48399999973,
      "d": 123.96700000000419,
      "v": 100
    },
    {
      "midi": 55,
      "hit": false,
      "t": 81074.41799999974,
      "d": 123.96700000000419,
      "v": 100
    },
    {
      "midi": 58,
      "hit": false,
      "t": 81074.41799999974,
      "d": 123.96700000000419,
      "v": 100
    },
    {
      "midi": 63,
      "hit": false,
      "t": 81074.41799999974,
      "d": 123.96700000000419,
      "v": 100
    },
    {
      "midi": 55,
      "hit": false,
      "t": 81198.38499999975,
      "d": 123.96700000000419,
      "v": 100
    },
    {
      "midi": 58,
      "hit": false,
      "t": 81198.38499999975,
      "d": 123.96700000000419,
      "v": 100
    },
    {
      "midi": 63,
      "hit": false,
      "t": 81198.38499999975,
      "d": 123.96700000000419,
      "v": 100
    },
    {
      "midi": 55,
      "hit": false,
      "t": 81446.31899999976,
      "d": 123.96700000000419,
      "v": 100
    },
    {
      "midi": 58,
      "hit": false,
      "t": 81446.31899999976,
      "d": 123.96700000000419,
      "v": 100
    },
    {
      "midi": 63,
      "hit": false,
      "t": 81446.31899999976,
      "d": 123.96700000000419,
      "v": 100
    },
    {
      "midi": 55,
      "hit": false,
      "t": 81570.28599999976,
      "d": 123.96700000000419,
      "v": 100
    },
    {
      "midi": 58,
      "hit": false,
      "t": 81570.28599999976,
      "d": 123.96700000000419,
      "v": 100
    },
    {
      "midi": 63,
      "hit": false,
      "t": 81570.28599999976,
      "d": 123.96700000000419,
      "v": 100
    },
    {
      "midi": 55,
      "hit": false,
      "t": 81818.21999999977,
      "d": 123.96700000000419,
      "v": 100
    },
    {
      "midi": 58,
      "hit": false,
      "t": 81818.21999999977,
      "d": 123.96700000000419,
      "v": 100
    },
    {
      "midi": 63,
      "hit": false,
      "t": 81818.21999999977,
      "d": 123.96700000000419,
      "v": 100
    },
    {
      "midi": 55,
      "hit": false,
      "t": 82066.15399999978,
      "d": 123.96700000000419,
      "v": 100
    },
    {
      "midi": 58,
      "hit": false,
      "t": 82066.15399999978,
      "d": 123.96700000000419,
      "v": 100
    },
    {
      "midi": 63,
      "hit": false,
      "t": 82066.15399999978,
      "d": 123.96700000000419,
      "v": 100
    },
    {
      "midi": 53,
      "hit": false,
      "t": 82314.08799999979,
      "d": 123.96700000000419,
      "v": 100
    },
    {
      "midi": 58,
      "hit": false,
      "t": 82314.08799999979,
      "d": 123.96700000000419,
      "v": 100
    },
    {
      "midi": 62,
      "hit": false,
      "t": 82314.08799999979,
      "d": 123.96700000000419,
      "v": 100
    },
    {
      "midi": 53,
      "hit": false,
      "t": 82562.0219999998,
      "d": 123.96700000000419,
      "v": 100
    },
    {
      "midi": 58,
      "hit": false,
      "t": 82562.0219999998,
      "d": 123.96700000000419,
      "v": 100
    },
    {
      "midi": 62,
      "hit": false,
      "t": 82562.0219999998,
      "d": 123.96700000000419,
      "v": 100
    },
    {
      "midi": 53,
      "hit": false,
      "t": 82809.9559999998,
      "d": 123.96700000000419,
      "v": 100
    },
    {
      "midi": 58,
      "hit": false,
      "t": 82809.9559999998,
      "d": 123.96700000000419,
      "v": 100
    },
    {
      "midi": 62,
      "hit": false,
      "t": 82809.9559999998,
      "d": 123.96700000000419,
      "v": 100
    },
    {
      "midi": 53,
      "hit": false,
      "t": 83057.88999999981,
      "d": 123.96700000000419,
      "v": 100
    },
    {
      "midi": 58,
      "hit": false,
      "t": 83057.88999999981,
      "d": 123.96700000000419,
      "v": 100
    },
    {
      "midi": 62,
      "hit": false,
      "t": 83057.88999999981,
      "d": 123.96700000000419,
      "v": 100
    },
    {
      "midi": 53,
      "hit": false,
      "t": 83181.85699999981,
      "d": 123.96700000000419,
      "v": 100
    },
    {
      "midi": 58,
      "hit": false,
      "t": 83181.85699999981,
      "d": 123.96700000000419,
      "v": 100
    },
    {
      "midi": 62,
      "hit": false,
      "t": 83181.85699999981,
      "d": 123.96700000000419,
      "v": 100
    },
    {
      "midi": 60,
      "hit": false,
      "t": 83181.85699999996,
      "d": 123.96700000000419,
      "v": 100
    },
    {
      "midi": 53,
      "hit": false,
      "t": 83429.79099999982,
      "d": 123.96700000000419,
      "v": 100
    },
    {
      "midi": 58,
      "hit": false,
      "t": 83429.79099999982,
      "d": 123.96700000000419,
      "v": 100
    },
    {
      "midi": 62,
      "hit": false,
      "t": 83429.79099999982,
      "d": 123.96700000000419,
      "v": 100
    },
    {
      "midi": 60,
      "hit": false,
      "t": 83429.79099999997,
      "d": 123.96700000000419,
      "v": 100
    },
    {
      "midi": 53,
      "hit": false,
      "t": 83553.75799999983,
      "d": 123.96700000000419,
      "v": 100
    },
    {
      "midi": 58,
      "hit": false,
      "t": 83553.75799999983,
      "d": 123.96700000000419,
      "v": 100
    },
    {
      "midi": 62,
      "hit": false,
      "t": 83553.75799999983,
      "d": 123.96700000000419,
      "v": 100
    },
    {
      "midi": 58,
      "hit": false,
      "t": 83553.75799999997,
      "d": 123.96700000000419,
      "v": 100
    },
    {
      "midi": 53,
      "hit": false,
      "t": 83801.69199999984,
      "d": 123.96700000000419,
      "v": 100
    },
    {
      "midi": 58,
      "hit": false,
      "t": 83801.69199999984,
      "d": 123.96700000000419,
      "v": 100
    },
    {
      "midi": 62,
      "hit": false,
      "t": 83801.69199999984,
      "d": 123.96700000000419,
      "v": 100
    },
    {
      "midi": 60,
      "hit": false,
      "t": 83801.69199999998,
      "d": 123.96700000000419,
      "v": 100
    },
    {
      "midi": 53,
      "hit": false,
      "t": 84049.62599999984,
      "d": 123.96700000000419,
      "v": 100
    },
    {
      "midi": 58,
      "hit": false,
      "t": 84049.62599999984,
      "d": 123.96700000000419,
      "v": 100
    },
    {
      "midi": 62,
      "hit": false,
      "t": 84049.62599999984,
      "d": 123.96700000000419,
      "v": 100
    },
    {
      "midi": 51,
      "hit": false,
      "t": 84297.55999999985,
      "d": 123.96700000000419,
      "v": 100
    },
    {
      "midi": 55,
      "hit": false,
      "t": 84297.55999999985,
      "d": 123.96700000000419,
      "v": 100
    },
    {
      "midi": 60,
      "hit": false,
      "t": 84297.55999999985,
      "d": 123.96700000000419,
      "v": 100
    },
    {
      "midi": 51,
      "hit": false,
      "t": 84545.49399999986,
      "d": 123.96700000000419,
      "v": 100
    },
    {
      "midi": 55,
      "hit": false,
      "t": 84545.49399999986,
      "d": 123.96700000000419,
      "v": 100
    },
    {
      "midi": 60,
      "hit": false,
      "t": 84545.49399999986,
      "d": 123.96700000000419,
      "v": 100
    },
    {
      "midi": 51,
      "hit": false,
      "t": 84793.42799999987,
      "d": 123.96700000000419,
      "v": 100
    },
    {
      "midi": 55,
      "hit": false,
      "t": 84793.42799999987,
      "d": 123.96700000000419,
      "v": 100
    },
    {
      "midi": 60,
      "hit": false,
      "t": 84793.42799999987,
      "d": 123.96700000000419,
      "v": 100
    },
    {
      "midi": 51,
      "hit": false,
      "t": 85041.36199999988,
      "d": 123.96700000000419,
      "v": 100
    },
    {
      "midi": 55,
      "hit": false,
      "t": 85041.36199999988,
      "d": 123.96700000000419,
      "v": 100
    },
    {
      "midi": 60,
      "hit": false,
      "t": 85041.36199999988,
      "d": 123.96700000000419,
      "v": 100
    },
    {
      "midi": 51,
      "hit": false,
      "t": 85165.32899999988,
      "d": 123.96700000000419,
      "v": 100
    },
    {
      "midi": 55,
      "hit": false,
      "t": 85165.32899999988,
      "d": 123.96700000000419,
      "v": 100
    },
    {
      "midi": 60,
      "hit": false,
      "t": 85165.32899999988,
      "d": 123.96700000000419,
      "v": 100
    },
    {
      "midi": 51,
      "hit": false,
      "t": 85413.26299999989,
      "d": 123.96700000000419,
      "v": 100
    },
    {
      "midi": 55,
      "hit": false,
      "t": 85413.26299999989,
      "d": 123.96700000000419,
      "v": 100
    },
    {
      "midi": 60,
      "hit": false,
      "t": 85413.26299999989,
      "d": 123.96700000000419,
      "v": 100
    },
    {
      "midi": 51,
      "hit": false,
      "t": 85537.2299999999,
      "d": 123.96700000000419,
      "v": 100
    },
    {
      "midi": 55,
      "hit": false,
      "t": 85537.2299999999,
      "d": 123.96700000000419,
      "v": 100
    },
    {
      "midi": 60,
      "hit": false,
      "t": 85537.2299999999,
      "d": 123.96700000000419,
      "v": 100
    },
    {
      "midi": 51,
      "hit": false,
      "t": 85785.1639999999,
      "d": 123.96700000000419,
      "v": 100
    },
    {
      "midi": 55,
      "hit": false,
      "t": 85785.1639999999,
      "d": 123.96700000000419,
      "v": 100
    },
    {
      "midi": 60,
      "hit": false,
      "t": 85785.1639999999,
      "d": 123.96700000000419,
      "v": 100
    },
    {
      "midi": 51,
      "hit": false,
      "t": 86033.09799999991,
      "d": 123.96700000000419,
      "v": 100
    },
    {
      "midi": 55,
      "hit": false,
      "t": 86033.09799999991,
      "d": 123.96700000000419,
      "v": 100
    },
    {
      "midi": 60,
      "hit": false,
      "t": 86033.09799999991,
      "d": 123.96700000000419,
      "v": 100
    },
    {
      "midi": 51,
      "hit": false,
      "t": 86281.03199999992,
      "d": 123.96700000000419,
      "v": 100
    },
    {
      "midi": 55,
      "hit": false,
      "t": 86281.03199999992,
      "d": 123.96700000000419,
      "v": 100
    },
    {
      "midi": 60,
      "hit": false,
      "t": 86281.03199999992,
      "d": 123.96700000000419,
      "v": 100
    },
    {
      "midi": 51,
      "hit": false,
      "t": 86528.96599999993,
      "d": 123.96700000000419,
      "v": 100
    },
    {
      "midi": 55,
      "hit": false,
      "t": 86528.96599999993,
      "d": 123.96700000000419,
      "v": 100
    },
    {
      "midi": 60,
      "hit": false,
      "t": 86528.96599999993,
      "d": 123.96700000000419,
      "v": 100
    },
    {
      "midi": 51,
      "hit": false,
      "t": 86776.89999999994,
      "d": 123.96700000000419,
      "v": 100
    },
    {
      "midi": 55,
      "hit": false,
      "t": 86776.89999999994,
      "d": 123.96700000000419,
      "v": 100
    },
    {
      "midi": 60,
      "hit": false,
      "t": 86776.89999999994,
      "d": 123.96700000000419,
      "v": 100
    },
    {
      "midi": 51,
      "hit": false,
      "t": 87024.83399999994,
      "d": 123.96700000000419,
      "v": 100
    },
    {
      "midi": 55,
      "hit": false,
      "t": 87024.83399999994,
      "d": 123.96700000000419,
      "v": 100
    },
    {
      "midi": 60,
      "hit": false,
      "t": 87024.83399999994,
      "d": 123.96700000000419,
      "v": 100
    },
    {
      "midi": 51,
      "hit": false,
      "t": 87148.80099999995,
      "d": 123.96700000000419,
      "v": 100
    },
    {
      "midi": 55,
      "hit": false,
      "t": 87148.80099999995,
      "d": 123.96700000000419,
      "v": 100
    },
    {
      "midi": 60,
      "hit": false,
      "t": 87148.80099999995,
      "d": 123.96700000000419,
      "v": 100
    },
    {
      "midi": 60,
      "hit": false,
      "t": 87148.80099999999,
      "d": 123.96700000000419,
      "v": 100
    },
    {
      "midi": 51,
      "hit": false,
      "t": 87396.73499999996,
      "d": 123.96700000000419,
      "v": 100
    },
    {
      "midi": 55,
      "hit": false,
      "t": 87396.73499999996,
      "d": 123.96700000000419,
      "v": 100
    },
    {
      "midi": 60,
      "hit": false,
      "t": 87396.73499999996,
      "d": 123.96700000000419,
      "v": 100
    },
    {
      "midi": 60,
      "hit": false,
      "t": 87396.735,
      "d": 123.96700000000419,
      "v": 100
    },
    {
      "midi": 51,
      "hit": false,
      "t": 87520.70199999996,
      "d": 123.96700000000419,
      "v": 100
    },
    {
      "midi": 55,
      "hit": false,
      "t": 87520.70199999996,
      "d": 123.96700000000419,
      "v": 100
    },
    {
      "midi": 60,
      "hit": false,
      "t": 87520.70199999996,
      "d": 123.96700000000419,
      "v": 100
    },
    {
      "midi": 58,
      "hit": false,
      "t": 87520.702,
      "d": 123.96700000000419,
      "v": 100
    },
    {
      "midi": 51,
      "hit": false,
      "t": 87768.63599999997,
      "d": 123.96700000000419,
      "v": 100
    },
    {
      "midi": 55,
      "hit": false,
      "t": 87768.63599999997,
      "d": 123.96700000000419,
      "v": 100
    },
    {
      "midi": 60,
      "hit": false,
      "t": 87768.63599999997,
      "d": 123.96700000000419,
      "v": 100
    },
    {
      "midi": 60,
      "hit": false,
      "t": 87768.63600000001,
      "d": 123.96700000000419,
      "v": 100
    },
    {
      "midi": 51,
      "hit": false,
      "t": 88016.56999999998,
      "d": 123.96700000000419,
      "v": 100
    },
    {
      "midi": 55,
      "hit": false,
      "t": 88016.56999999998,
      "d": 123.96700000000419,
      "v": 100
    },
    {
      "midi": 60,
      "hit": false,
      "t": 88016.56999999998,
      "d": 123.96700000000419,
      "v": 100
    },
    {
      "midi": 55,
      "hit": false,
      "t": 88264.50399999999,
      "d": 123.96700000000419,
      "v": 100
    },
    {
      "midi": 58,
      "hit": false,
      "t": 88264.50399999999,
      "d": 123.96700000000419,
      "v": 100
    },
    {
      "midi": 63,
      "hit": false,
      "t": 88264.50399999999,
      "d": 123.96700000000419,
      "v": 100
    },
    {
      "midi": 55,
      "hit": false,
      "t": 88512.438,
      "d": 123.96700000000419,
      "v": 100
    },
    {
      "midi": 58,
      "hit": false,
      "t": 88512.438,
      "d": 123.96700000000419,
      "v": 100
    },
    {
      "midi": 63,
      "hit": false,
      "t": 88512.438,
      "d": 123.96700000000419,
      "v": 100
    },
    {
      "midi": 55,
      "hit": false,
      "t": 88760.372,
      "d": 123.96700000000419,
      "v": 100
    },
    {
      "midi": 58,
      "hit": false,
      "t": 88760.372,
      "d": 123.96700000000419,
      "v": 100
    },
    {
      "midi": 63,
      "hit": false,
      "t": 88760.372,
      "d": 123.96700000000419,
      "v": 100
    },
    {
      "midi": 55,
      "hit": false,
      "t": 89008.30600000001,
      "d": 123.96700000000419,
      "v": 100
    },
    {
      "midi": 58,
      "hit": false,
      "t": 89008.30600000001,
      "d": 123.96700000000419,
      "v": 100
    },
    {
      "midi": 63,
      "hit": false,
      "t": 89008.30600000001,
      "d": 123.96700000000419,
      "v": 100
    },
    {
      "midi": 55,
      "hit": false,
      "t": 89132.27300000002,
      "d": 123.96700000000419,
      "v": 100
    },
    {
      "midi": 58,
      "hit": false,
      "t": 89132.27300000002,
      "d": 123.96700000000419,
      "v": 100
    },
    {
      "midi": 63,
      "hit": false,
      "t": 89132.27300000002,
      "d": 123.96700000000419,
      "v": 100
    },
    {
      "midi": 55,
      "hit": false,
      "t": 89380.20700000002,
      "d": 123.96700000000419,
      "v": 100
    },
    {
      "midi": 58,
      "hit": false,
      "t": 89380.20700000002,
      "d": 123.96700000000419,
      "v": 100
    },
    {
      "midi": 63,
      "hit": false,
      "t": 89380.20700000002,
      "d": 123.96700000000419,
      "v": 100
    },
    {
      "midi": 55,
      "hit": false,
      "t": 89504.17400000003,
      "d": 123.96700000000419,
      "v": 100
    },
    {
      "midi": 58,
      "hit": false,
      "t": 89504.17400000003,
      "d": 123.96700000000419,
      "v": 100
    },
    {
      "midi": 63,
      "hit": false,
      "t": 89504.17400000003,
      "d": 123.96700000000419,
      "v": 100
    },
    {
      "midi": 55,
      "hit": false,
      "t": 89752.10800000004,
      "d": 123.96700000000419,
      "v": 100
    },
    {
      "midi": 58,
      "hit": false,
      "t": 89752.10800000004,
      "d": 123.96700000000419,
      "v": 100
    },
    {
      "midi": 63,
      "hit": false,
      "t": 89752.10800000004,
      "d": 123.96700000000419,
      "v": 100
    },
    {
      "midi": 55,
      "hit": false,
      "t": 90000.04200000004,
      "d": 123.96700000000419,
      "v": 100
    },
    {
      "midi": 58,
      "hit": false,
      "t": 90000.04200000004,
      "d": 123.96700000000419,
      "v": 100
    },
    {
      "midi": 63,
      "hit": false,
      "t": 90000.04200000004,
      "d": 123.96700000000419,
      "v": 100
    },
    {
      "midi": 53,
      "hit": false,
      "t": 90247.97600000005,
      "d": 123.96700000000419,
      "v": 100
    },
    {
      "midi": 58,
      "hit": false,
      "t": 90247.97600000005,
      "d": 123.96700000000419,
      "v": 100
    },
    {
      "midi": 62,
      "hit": false,
      "t": 90247.97600000005,
      "d": 123.96700000000419,
      "v": 100
    },
    {
      "midi": 53,
      "hit": false,
      "t": 90495.91000000006,
      "d": 123.96700000000419,
      "v": 100
    },
    {
      "midi": 58,
      "hit": false,
      "t": 90495.91000000006,
      "d": 123.96700000000419,
      "v": 100
    },
    {
      "midi": 62,
      "hit": false,
      "t": 90495.91000000006,
      "d": 123.96700000000419,
      "v": 100
    },
    {
      "midi": 53,
      "hit": false,
      "t": 90743.84400000007,
      "d": 123.96700000000419,
      "v": 100
    },
    {
      "midi": 58,
      "hit": false,
      "t": 90743.84400000007,
      "d": 123.96700000000419,
      "v": 100
    },
    {
      "midi": 62,
      "hit": false,
      "t": 90743.84400000007,
      "d": 123.96700000000419,
      "v": 100
    },
    {
      "midi": 53,
      "hit": false,
      "t": 90991.77800000008,
      "d": 123.96700000000419,
      "v": 100
    },
    {
      "midi": 58,
      "hit": false,
      "t": 90991.77800000008,
      "d": 123.96700000000419,
      "v": 100
    },
    {
      "midi": 62,
      "hit": false,
      "t": 90991.77800000008,
      "d": 123.96700000000419,
      "v": 100
    },
    {
      "midi": 60,
      "hit": false,
      "t": 91115.74500000002,
      "d": 123.96700000000419,
      "v": 100
    },
    {
      "midi": 53,
      "hit": false,
      "t": 91115.74500000008,
      "d": 123.96700000000419,
      "v": 100
    },
    {
      "midi": 58,
      "hit": false,
      "t": 91115.74500000008,
      "d": 123.96700000000419,
      "v": 100
    },
    {
      "midi": 62,
      "hit": false,
      "t": 91115.74500000008,
      "d": 123.96700000000419,
      "v": 100
    },
    {
      "midi": 60,
      "hit": false,
      "t": 91363.67900000003,
      "d": 123.96700000000419,
      "v": 100
    },
    {
      "midi": 53,
      "hit": false,
      "t": 91363.67900000009,
      "d": 123.96700000000419,
      "v": 100
    },
    {
      "midi": 58,
      "hit": false,
      "t": 91363.67900000009,
      "d": 123.96700000000419,
      "v": 100
    },
    {
      "midi": 62,
      "hit": false,
      "t": 91363.67900000009,
      "d": 123.96700000000419,
      "v": 100
    },
    {
      "midi": 58,
      "hit": false,
      "t": 91487.64600000004,
      "d": 123.96700000000419,
      "v": 100
    },
    {
      "midi": 53,
      "hit": false,
      "t": 91487.6460000001,
      "d": 123.96700000000419,
      "v": 100
    },
    {
      "midi": 58,
      "hit": false,
      "t": 91487.6460000001,
      "d": 123.96700000000419,
      "v": 100
    },
    {
      "midi": 62,
      "hit": false,
      "t": 91487.6460000001,
      "d": 123.96700000000419,
      "v": 100
    },
    {
      "midi": 60,
      "hit": false,
      "t": 91735.58000000005,
      "d": 123.96700000000419,
      "v": 100
    },
    {
      "midi": 53,
      "hit": false,
      "t": 91735.5800000001,
      "d": 123.96700000000419,
      "v": 100
    },
    {
      "midi": 58,
      "hit": false,
      "t": 91735.5800000001,
      "d": 123.96700000000419,
      "v": 100
    },
    {
      "midi": 62,
      "hit": false,
      "t": 91735.5800000001,
      "d": 123.96700000000419,
      "v": 100
    },
    {
      "midi": 53,
      "hit": false,
      "t": 91983.51400000011,
      "d": 123.96700000000419,
      "v": 100
    },
    {
      "midi": 58,
      "hit": false,
      "t": 91983.51400000011,
      "d": 123.96700000000419,
      "v": 100
    },
    {
      "midi": 62,
      "hit": false,
      "t": 91983.51400000011,
      "d": 123.96700000000419,
      "v": 100
    },
    {
      "midi": 51,
      "hit": false,
      "t": 92231.44800000012,
      "d": 123.96700000000419,
      "v": 100
    },
    {
      "midi": 55,
      "hit": false,
      "t": 92231.44800000012,
      "d": 123.96700000000419,
      "v": 100
    },
    {
      "midi": 60,
      "hit": false,
      "t": 92231.44800000012,
      "d": 123.96700000000419,
      "v": 100
    },
    {
      "midi": 51,
      "hit": false,
      "t": 92479.38200000013,
      "d": 123.96700000000419,
      "v": 100
    },
    {
      "midi": 55,
      "hit": false,
      "t": 92479.38200000013,
      "d": 123.96700000000419,
      "v": 100
    },
    {
      "midi": 60,
      "hit": false,
      "t": 92479.38200000013,
      "d": 123.96700000000419,
      "v": 100
    },
    {
      "midi": 51,
      "hit": false,
      "t": 92727.31600000014,
      "d": 123.96700000000419,
      "v": 100
    },
    {
      "midi": 55,
      "hit": false,
      "t": 92727.31600000014,
      "d": 123.96700000000419,
      "v": 100
    },
    {
      "midi": 60,
      "hit": false,
      "t": 92727.31600000014,
      "d": 123.96700000000419,
      "v": 100
    },
    {
      "midi": 51,
      "hit": false,
      "t": 92975.25000000015,
      "d": 123.96700000000419,
      "v": 100
    },
    {
      "midi": 55,
      "hit": false,
      "t": 92975.25000000015,
      "d": 123.96700000000419,
      "v": 100
    },
    {
      "midi": 60,
      "hit": false,
      "t": 92975.25000000015,
      "d": 123.96700000000419,
      "v": 100
    },
    {
      "midi": 51,
      "hit": false,
      "t": 93099.21700000015,
      "d": 123.96700000000419,
      "v": 100
    },
    {
      "midi": 55,
      "hit": false,
      "t": 93099.21700000015,
      "d": 123.96700000000419,
      "v": 100
    },
    {
      "midi": 60,
      "hit": false,
      "t": 93099.21700000015,
      "d": 123.96700000000419,
      "v": 100
    },
    {
      "midi": 51,
      "hit": false,
      "t": 93347.15100000016,
      "d": 123.96700000000419,
      "v": 100
    },
    {
      "midi": 55,
      "hit": false,
      "t": 93347.15100000016,
      "d": 123.96700000000419,
      "v": 100
    },
    {
      "midi": 60,
      "hit": false,
      "t": 93347.15100000016,
      "d": 123.96700000000419,
      "v": 100
    },
    {
      "midi": 51,
      "hit": false,
      "t": 93471.11800000016,
      "d": 123.96700000000419,
      "v": 100
    },
    {
      "midi": 55,
      "hit": false,
      "t": 93471.11800000016,
      "d": 123.96700000000419,
      "v": 100
    },
    {
      "midi": 60,
      "hit": false,
      "t": 93471.11800000016,
      "d": 123.96700000000419,
      "v": 100
    },
    {
      "midi": 51,
      "hit": false,
      "t": 93719.05200000017,
      "d": 123.96700000000419,
      "v": 100
    },
    {
      "midi": 55,
      "hit": false,
      "t": 93719.05200000017,
      "d": 123.96700000000419,
      "v": 100
    },
    {
      "midi": 60,
      "hit": false,
      "t": 93719.05200000017,
      "d": 123.96700000000419,
      "v": 100
    },
    {
      "midi": 51,
      "hit": false,
      "t": 93966.98600000018,
      "d": 123.96700000000419,
      "v": 100
    },
    {
      "midi": 55,
      "hit": false,
      "t": 93966.98600000018,
      "d": 123.96700000000419,
      "v": 100
    },
    {
      "midi": 60,
      "hit": false,
      "t": 93966.98600000018,
      "d": 123.96700000000419,
      "v": 100
    },
    {
      "midi": 60,
      "hit": false,
      "t": 95082.68900000006,
      "d": 123.96700000000419,
      "v": 100
    },
    {
      "midi": 60,
      "hit": false,
      "t": 95330.62300000007,
      "d": 123.96700000000419,
      "v": 100
    },
    {
      "midi": 58,
      "hit": false,
      "t": 95454.59000000007,
      "d": 123.96700000000419,
      "v": 100
    },
    {
      "midi": 60,
      "hit": false,
      "t": 95702.52400000008,
      "d": 123.96700000000419,
      "v": 100
    },
    {
      "midi": 60,
      "hit": false,
      "t": 99049.63300000009,
      "d": 123.96700000000419,
      "v": 100
    },
    {
      "midi": 60,
      "hit": false,
      "t": 99297.5670000001,
      "d": 123.96700000000419,
      "v": 100
    },
    {
      "midi": 58,
      "hit": false,
      "t": 99421.5340000001,
      "d": 123.96700000000419,
      "v": 100
    },
    {
      "midi": 60,
      "hit": false,
      "t": 99669.46800000011,
      "d": 123.96700000000419,
      "v": 100
    },
    {
      "midi": 60,
      "hit": false,
      "t": 103016.57700000012,
      "d": 123.96700000000419,
      "v": 100
    },
    {
      "midi": 60,
      "hit": false,
      "t": 103264.51100000013,
      "d": 123.96700000000419,
      "v": 100
    },
    {
      "midi": 58,
      "hit": false,
      "t": 103388.47800000013,
      "d": 123.96700000000419,
      "v": 100
    },
    {
      "midi": 60,
      "hit": false,
      "t": 103636.41200000014,
      "d": 123.96700000000419,
      "v": 100
    },
    {
      "midi": 60,
      "hit": false,
      "t": 106983.52100000015,
      "d": 123.96700000000419,
      "v": 100
    },
    {
      "midi": 60,
      "hit": false,
      "t": 107231.45500000016,
      "d": 123.96700000000419,
      "v": 100
    },
    {
      "midi": 58,
      "hit": false,
      "t": 107355.42200000017,
      "d": 123.96700000000419,
      "v": 100
    },
    {
      "midi": 60,
      "hit": false,
      "t": 107603.35600000017,
      "d": 123.96700000000419,
      "v": 100
    },
    {
      "midi": 74,
      "hit": false,
      "t": 112066.16800000018,
      "d": 247.93399999999383,
      "v": 100
    },
    {
      "midi": 75,
      "hit": false,
      "t": 112314.10200000017,
      "d": 247.93399999999383,
      "v": 100
    },
    {
      "midi": 74,
      "hit": false,
      "t": 112562.03600000017,
      "d": 247.93399999999383,
      "v": 100
    },
    {
      "midi": 75,
      "hit": false,
      "t": 112809.97000000016,
      "d": 247.93399999999383,
      "v": 100
    },
    {
      "midi": 74,
      "hit": false,
      "t": 113057.90400000016,
      "d": 247.93399999999383,
      "v": 100
    },
    {
      "midi": 72,
      "hit": false,
      "t": 113305.83800000015,
      "d": 247.93399999999383,
      "v": 100
    },
    {
      "midi": 67,
      "hit": false,
      "t": 113553.77200000014,
      "d": 247.93399999999383,
      "v": 100
    },
    {
      "midi": 63,
      "hit": false,
      "t": 113801.70600000014,
      "d": 247.93399999999383,
      "v": 100
    },
    {
      "midi": 70,
      "hit": false,
      "t": 114049.64000000013,
      "d": 743.801999999996,
      "v": 100
    },
    {
      "midi": 74,
      "hit": false,
      "t": 114793.44200000013,
      "d": 495.8680000000022,
      "v": 100
    },
    {
      "midi": 67,
      "hit": false,
      "t": 116033.11200000012,
      "d": 247.93399999999383,
      "v": 100
    },
    {
      "midi": 68,
      "hit": false,
      "t": 116297.57493333345,
      "d": 247.93400000000838,
      "v": 100
    },
    {
      "midi": 67,
      "hit": false,
      "t": 116528.98000000013,
      "d": 247.93400000000838,
      "v": 100
    },
    {
      "midi": 68,
      "hit": false,
      "t": 116776.91400000014,
      "d": 247.93399999999383,
      "v": 100
    },
    {
      "midi": 67,
      "hit": false,
      "t": 117024.84800000013,
      "d": 247.93399999999383,
      "v": 100
    },
    {
      "midi": 63,
      "hit": false,
      "t": 117272.78200000012,
      "d": 247.93399999999383,
      "v": 100
    },
    {
      "midi": 60,
      "hit": false,
      "t": 117520.71600000012,
      "d": 247.93399999999383,
      "v": 100
    },
    {
      "midi": 56,
      "hit": false,
      "t": 117768.65000000011,
      "d": 247.93399999999383,
      "v": 100
    },
    {
      "midi": 55,
      "hit": false,
      "t": 118016.5840000001,
      "d": 1983.4719999999943,
      "v": 100
    },
    {
      "midi": 74,
      "hit": false,
      "t": 120000.0560000001,
      "d": 247.93399999999383,
      "v": 100
    },
    {
      "midi": 75,
      "hit": false,
      "t": 120247.99000000009,
      "d": 247.93399999999383,
      "v": 100
    },
    {
      "midi": 74,
      "hit": false,
      "t": 120495.92400000009,
      "d": 247.93399999999383,
      "v": 100
    },
    {
      "midi": 75,
      "hit": false,
      "t": 120743.85800000008,
      "d": 247.93399999999383,
      "v": 100
    },
    {
      "midi": 74,
      "hit": false,
      "t": 120991.79200000007,
      "d": 247.93399999999383,
      "v": 100
    },
    {
      "midi": 72,
      "hit": false,
      "t": 121239.72600000007,
      "d": 247.93399999999383,
      "v": 100
    },
    {
      "midi": 67,
      "hit": false,
      "t": 121487.66000000006,
      "d": 247.93399999999383,
      "v": 100
    },
    {
      "midi": 63,
      "hit": false,
      "t": 121735.59400000006,
      "d": 247.93399999999383,
      "v": 100
    },
    {
      "midi": 70,
      "hit": false,
      "t": 121983.52800000005,
      "d": 743.801999999996,
      "v": 100
    },
    {
      "midi": 74,
      "hit": false,
      "t": 122727.33000000005,
      "d": 495.8680000000022,
      "v": 100
    },
    {
      "midi": 70,
      "hit": false,
      "t": 123471.13200000004,
      "d": 495.8680000000022,
      "v": 100
    },
    {
      "midi": 67,
      "hit": false,
      "t": 124462.86800000005,
      "d": 247.93399999999383,
      "v": 100
    },
    {
      "midi": 68,
      "hit": false,
      "t": 124710.80200000004,
      "d": 247.93399999999383,
      "v": 100
    },
    {
      "midi": 67,
      "hit": false,
      "t": 124958.73600000003,
      "d": 247.93399999999383,
      "v": 100
    },
    {
      "midi": 63,
      "hit": false,
      "t": 125206.67000000003,
      "d": 247.93399999999383,
      "v": 100
    },
    {
      "midi": 60,
      "hit": false,
      "t": 125454.60400000002,
      "d": 247.93399999999383,
      "v": 100
    },
    {
      "midi": 56,
      "hit": false,
      "t": 125702.53800000002,
      "d": 247.93399999999383,
      "v": 100
    },
    {
      "midi": 55,
      "hit": false,
      "t": 125950.47200000001,
      "d": 247.93399999999383,
      "v": 100
    },
    {
      "midi": 55,
      "hit": false,
      "t": 126198.406,
      "d": 247.93399999999383,
      "v": 100
    },
    {
      "midi": 55,
      "hit": false,
      "t": 126446.34,
      "d": 247.93399999999383,
      "v": 100
    },
    {
      "midi": 55,
      "hit": false,
      "t": 126694.27399999999,
      "d": 247.93399999999383,
      "v": 100
    },
    {
      "midi": 43,
      "hit": false,
      "t": 126942.20799999998,
      "d": 247.93399999999383,
      "v": 100
    },
    {
      "midi": 55,
      "hit": false,
      "t": 126942.20799999998,
      "d": 247.93399999999383,
      "v": 100
    },
    {
      "midi": 43,
      "hit": false,
      "t": 127190.14199999998,
      "d": 247.93399999999383,
      "v": 100
    },
    {
      "midi": 55,
      "hit": false,
      "t": 127190.14199999998,
      "d": 247.93399999999383,
      "v": 100
    },
    {
      "midi": 43,
      "hit": false,
      "t": 127438.07599999997,
      "d": 247.93399999999383,
      "v": 100
    },
    {
      "midi": 55,
      "hit": false,
      "t": 127438.07599999997,
      "d": 247.93399999999383,
      "v": 100
    },
    {
      "midi": 43,
      "hit": false,
      "t": 127686.00999999997,
      "d": 247.93399999999383,
      "v": 100
    },
    {
      "midi": 55,
      "hit": false,
      "t": 127686.00999999997,
      "d": 247.93399999999383,
      "v": 100
    },
    {
      "midi": 43,
      "hit": false,
      "t": 127933.94399999996,
      "d": 247.93399999999383,
      "v": 100
    },
    {
      "midi": 55,
      "hit": false,
      "t": 127933.94399999996,
      "d": 247.93399999999383,
      "v": 100
    },
    {
      "midi": 67,
      "hit": false,
      "t": 127933.94399999996,
      "d": 247.93399999999383,
      "v": 100
    },
    {
      "midi": 43,
      "hit": false,
      "t": 128181.87799999995,
      "d": 247.93399999999383,
      "v": 100
    },
    {
      "midi": 55,
      "hit": false,
      "t": 128181.87799999995,
      "d": 247.93399999999383,
      "v": 100
    },
    {
      "midi": 67,
      "hit": false,
      "t": 128181.87799999995,
      "d": 247.93399999999383,
      "v": 100
    },
    {
      "midi": 43,
      "hit": false,
      "t": 128429.81199999995,
      "d": 247.93399999999383,
      "v": 100
    },
    {
      "midi": 55,
      "hit": false,
      "t": 128429.81199999995,
      "d": 247.93399999999383,
      "v": 100
    },
    {
      "midi": 67,
      "hit": false,
      "t": 128429.81199999995,
      "d": 247.93399999999383,
      "v": 100
    },
    {
      "midi": 43,
      "hit": false,
      "t": 128677.74599999994,
      "d": 247.93399999999383,
      "v": 100
    },
    {
      "midi": 55,
      "hit": false,
      "t": 128677.74599999994,
      "d": 247.93399999999383,
      "v": 100
    },
    {
      "midi": 67,
      "hit": false,
      "t": 128677.74599999994,
      "d": 247.93399999999383,
      "v": 100
    },
    {
      "midi": 43,
      "hit": false,
      "t": 128925.67999999993,
      "d": 247.93399999999383,
      "v": 100
    },
    {
      "midi": 55,
      "hit": false,
      "t": 128925.67999999993,
      "d": 247.93399999999383,
      "v": 100
    },
    {
      "midi": 67,
      "hit": false,
      "t": 128925.67999999993,
      "d": 247.93399999999383,
      "v": 100
    },
    {
      "midi": 43,
      "hit": false,
      "t": 129173.61399999993,
      "d": 247.93399999999383,
      "v": 100
    },
    {
      "midi": 55,
      "hit": false,
      "t": 129173.61399999993,
      "d": 247.93399999999383,
      "v": 100
    },
    {
      "midi": 67,
      "hit": false,
      "t": 129173.61399999993,
      "d": 247.93399999999383,
      "v": 100
    },
    {
      "midi": 43,
      "hit": false,
      "t": 129421.54799999992,
      "d": 247.93399999999383,
      "v": 100
    },
    {
      "midi": 55,
      "hit": false,
      "t": 129421.54799999992,
      "d": 247.93399999999383,
      "v": 100
    },
    {
      "midi": 67,
      "hit": false,
      "t": 129421.54799999992,
      "d": 247.93399999999383,
      "v": 100
    },
    {
      "midi": 43,
      "hit": false,
      "t": 129669.48199999992,
      "d": 247.93399999999383,
      "v": 100
    },
    {
      "midi": 55,
      "hit": false,
      "t": 129669.48199999992,
      "d": 247.93399999999383,
      "v": 100
    },
    {
      "midi": 67,
      "hit": false,
      "t": 129669.48199999992,
      "d": 247.93399999999383,
      "v": 100
    },
    {
      "midi": 51,
      "hit": false,
      "t": 129917.41600000019,
      "d": 123.96700000000419,
      "v": 100
    },
    {
      "midi": 55,
      "hit": false,
      "t": 129917.41600000019,
      "d": 123.96700000000419,
      "v": 100
    },
    {
      "midi": 60,
      "hit": false,
      "t": 129917.41600000019,
      "d": 123.96700000000419,
      "v": 100
    },
    {
      "midi": 51,
      "hit": false,
      "t": 130165.3500000002,
      "d": 123.96700000000419,
      "v": 100
    },
    {
      "midi": 55,
      "hit": false,
      "t": 130165.3500000002,
      "d": 123.96700000000419,
      "v": 100
    },
    {
      "midi": 60,
      "hit": false,
      "t": 130165.3500000002,
      "d": 123.96700000000419,
      "v": 100
    },
    {
      "midi": 51,
      "hit": false,
      "t": 130413.2840000002,
      "d": 123.96700000000419,
      "v": 100
    },
    {
      "midi": 55,
      "hit": false,
      "t": 130413.2840000002,
      "d": 123.96700000000419,
      "v": 100
    },
    {
      "midi": 60,
      "hit": false,
      "t": 130413.2840000002,
      "d": 123.96700000000419,
      "v": 100
    },
    {
      "midi": 51,
      "hit": false,
      "t": 130661.21800000021,
      "d": 123.96700000000419,
      "v": 100
    },
    {
      "midi": 55,
      "hit": false,
      "t": 130661.21800000021,
      "d": 123.96700000000419,
      "v": 100
    },
    {
      "midi": 60,
      "hit": false,
      "t": 130661.21800000021,
      "d": 123.96700000000419,
      "v": 100
    },
    {
      "midi": 60,
      "hit": false,
      "t": 130785.18499999991,
      "d": 123.96700000000419,
      "v": 100
    },
    {
      "midi": 51,
      "hit": false,
      "t": 130785.18500000022,
      "d": 123.96700000000419,
      "v": 100
    },
    {
      "midi": 55,
      "hit": false,
      "t": 130785.18500000022,
      "d": 123.96700000000419,
      "v": 100
    },
    {
      "midi": 60,
      "hit": false,
      "t": 130785.18500000022,
      "d": 123.96700000000419,
      "v": 100
    },
    {
      "midi": 60,
      "hit": false,
      "t": 131033.11899999992,
      "d": 123.96700000000419,
      "v": 100
    },
    {
      "midi": 51,
      "hit": false,
      "t": 131033.11900000022,
      "d": 123.96699999998964,
      "v": 100
    },
    {
      "midi": 55,
      "hit": false,
      "t": 131033.11900000022,
      "d": 123.96699999998964,
      "v": 100
    },
    {
      "midi": 60,
      "hit": false,
      "t": 131033.11900000022,
      "d": 123.96699999998964,
      "v": 100
    },
    {
      "midi": 58,
      "hit": false,
      "t": 131157.08599999992,
      "d": 123.96700000000419,
      "v": 100
    },
    {
      "midi": 51,
      "hit": false,
      "t": 131157.0860000002,
      "d": 123.96700000000419,
      "v": 100
    },
    {
      "midi": 55,
      "hit": false,
      "t": 131157.0860000002,
      "d": 123.96700000000419,
      "v": 100
    },
    {
      "midi": 60,
      "hit": false,
      "t": 131157.0860000002,
      "d": 123.96700000000419,
      "v": 100
    },
    {
      "midi": 60,
      "hit": false,
      "t": 131405.01999999993,
      "d": 123.96700000000419,
      "v": 100
    },
    {
      "midi": 51,
      "hit": false,
      "t": 131405.02000000022,
      "d": 123.96700000000419,
      "v": 100
    },
    {
      "midi": 55,
      "hit": false,
      "t": 131405.02000000022,
      "d": 123.96700000000419,
      "v": 100
    },
    {
      "midi": 60,
      "hit": false,
      "t": 131405.02000000022,
      "d": 123.96700000000419,
      "v": 100
    },
    {
      "midi": 51,
      "hit": false,
      "t": 131652.95400000023,
      "d": 123.96700000000419,
      "v": 100
    },
    {
      "midi": 55,
      "hit": false,
      "t": 131652.95400000023,
      "d": 123.96700000000419,
      "v": 100
    },
    {
      "midi": 60,
      "hit": false,
      "t": 131652.95400000023,
      "d": 123.96700000000419,
      "v": 100
    },
    {
      "midi": 55,
      "hit": false,
      "t": 131900.88800000024,
      "d": 123.96700000000419,
      "v": 100
    },
    {
      "midi": 58,
      "hit": false,
      "t": 131900.88800000024,
      "d": 123.96700000000419,
      "v": 100
    },
    {
      "midi": 63,
      "hit": false,
      "t": 131900.88800000024,
      "d": 123.96700000000419,
      "v": 100
    },
    {
      "midi": 55,
      "hit": false,
      "t": 132148.82200000025,
      "d": 123.96700000000419,
      "v": 100
    },
    {
      "midi": 58,
      "hit": false,
      "t": 132148.82200000025,
      "d": 123.96700000000419,
      "v": 100
    },
    {
      "midi": 63,
      "hit": false,
      "t": 132148.82200000025,
      "d": 123.96700000000419,
      "v": 100
    },
    {
      "midi": 55,
      "hit": false,
      "t": 132396.75600000026,
      "d": 123.96700000000419,
      "v": 100
    },
    {
      "midi": 58,
      "hit": false,
      "t": 132396.75600000026,
      "d": 123.96700000000419,
      "v": 100
    },
    {
      "midi": 63,
      "hit": false,
      "t": 132396.75600000026,
      "d": 123.96700000000419,
      "v": 100
    },
    {
      "midi": 55,
      "hit": false,
      "t": 132644.69000000026,
      "d": 123.96700000000419,
      "v": 100
    },
    {
      "midi": 58,
      "hit": false,
      "t": 132644.69000000026,
      "d": 123.96700000000419,
      "v": 100
    },
    {
      "midi": 63,
      "hit": false,
      "t": 132644.69000000026,
      "d": 123.96700000000419,
      "v": 100
    },
    {
      "midi": 55,
      "hit": false,
      "t": 132768.65700000027,
      "d": 123.96700000000419,
      "v": 100
    },
    {
      "midi": 58,
      "hit": false,
      "t": 132768.65700000027,
      "d": 123.96700000000419,
      "v": 100
    },
    {
      "midi": 63,
      "hit": false,
      "t": 132768.65700000027,
      "d": 123.96700000000419,
      "v": 100
    },
    {
      "midi": 55,
      "hit": false,
      "t": 133016.59100000028,
      "d": 123.96700000000419,
      "v": 100
    },
    {
      "midi": 58,
      "hit": false,
      "t": 133016.59100000028,
      "d": 123.96700000000419,
      "v": 100
    },
    {
      "midi": 63,
      "hit": false,
      "t": 133016.59100000028,
      "d": 123.96700000000419,
      "v": 100
    },
    {
      "midi": 55,
      "hit": false,
      "t": 133140.55800000028,
      "d": 123.96700000000419,
      "v": 100
    },
    {
      "midi": 58,
      "hit": false,
      "t": 133140.55800000028,
      "d": 123.96700000000419,
      "v": 100
    },
    {
      "midi": 63,
      "hit": false,
      "t": 133140.55800000028,
      "d": 123.96700000000419,
      "v": 100
    },
    {
      "midi": 55,
      "hit": false,
      "t": 133388.4920000003,
      "d": 123.96700000000419,
      "v": 100
    },
    {
      "midi": 58,
      "hit": false,
      "t": 133388.4920000003,
      "d": 123.96700000000419,
      "v": 100
    },
    {
      "midi": 63,
      "hit": false,
      "t": 133388.4920000003,
      "d": 123.96700000000419,
      "v": 100
    },
    {
      "midi": 55,
      "hit": false,
      "t": 133636.4260000003,
      "d": 123.96700000000419,
      "v": 100
    },
    {
      "midi": 58,
      "hit": false,
      "t": 133636.4260000003,
      "d": 123.96700000000419,
      "v": 100
    },
    {
      "midi": 63,
      "hit": false,
      "t": 133636.4260000003,
      "d": 123.96700000000419,
      "v": 100
    },
    {
      "midi": 53,
      "hit": false,
      "t": 133884.3600000003,
      "d": 123.96700000000419,
      "v": 100
    },
    {
      "midi": 58,
      "hit": false,
      "t": 133884.3600000003,
      "d": 123.96700000000419,
      "v": 100
    },
    {
      "midi": 62,
      "hit": false,
      "t": 133884.3600000003,
      "d": 123.96700000000419,
      "v": 100
    },
    {
      "midi": 53,
      "hit": false,
      "t": 134132.29400000031,
      "d": 123.96700000000419,
      "v": 100
    },
    {
      "midi": 58,
      "hit": false,
      "t": 134132.29400000031,
      "d": 123.96700000000419,
      "v": 100
    },
    {
      "midi": 62,
      "hit": false,
      "t": 134132.29400000031,
      "d": 123.96700000000419,
      "v": 100
    },
    {
      "midi": 53,
      "hit": false,
      "t": 134380.22800000032,
      "d": 123.96700000000419,
      "v": 100
    },
    {
      "midi": 58,
      "hit": false,
      "t": 134380.22800000032,
      "d": 123.96700000000419,
      "v": 100
    },
    {
      "midi": 62,
      "hit": false,
      "t": 134380.22800000032,
      "d": 123.96700000000419,
      "v": 100
    },
    {
      "midi": 53,
      "hit": false,
      "t": 134628.16200000033,
      "d": 123.96700000000419,
      "v": 100
    },
    {
      "midi": 58,
      "hit": false,
      "t": 134628.16200000033,
      "d": 123.96700000000419,
      "v": 100
    },
    {
      "midi": 62,
      "hit": false,
      "t": 134628.16200000033,
      "d": 123.96700000000419,
      "v": 100
    },
    {
      "midi": 60,
      "hit": false,
      "t": 134752.12899999993,
      "d": 123.96700000000419,
      "v": 100
    },
    {
      "midi": 53,
      "hit": false,
      "t": 134752.12900000034,
      "d": 123.96700000000419,
      "v": 100
    },
    {
      "midi": 58,
      "hit": false,
      "t": 134752.12900000034,
      "d": 123.96700000000419,
      "v": 100
    },
    {
      "midi": 62,
      "hit": false,
      "t": 134752.12900000034,
      "d": 123.96700000000419,
      "v": 100
    },
    {
      "midi": 60,
      "hit": false,
      "t": 135000.06299999994,
      "d": 123.96700000000419,
      "v": 100
    },
    {
      "midi": 53,
      "hit": false,
      "t": 135000.06300000034,
      "d": 123.96700000000419,
      "v": 100
    },
    {
      "midi": 58,
      "hit": false,
      "t": 135000.06300000034,
      "d": 123.96700000000419,
      "v": 100
    },
    {
      "midi": 62,
      "hit": false,
      "t": 135000.06300000034,
      "d": 123.96700000000419,
      "v": 100
    },
    {
      "midi": 58,
      "hit": false,
      "t": 135124.02999999994,
      "d": 123.96700000000419,
      "v": 100
    },
    {
      "midi": 53,
      "hit": false,
      "t": 135124.03000000035,
      "d": 123.96700000000419,
      "v": 100
    },
    {
      "midi": 58,
      "hit": false,
      "t": 135124.03000000035,
      "d": 123.96700000000419,
      "v": 100
    },
    {
      "midi": 62,
      "hit": false,
      "t": 135124.03000000035,
      "d": 123.96700000000419,
      "v": 100
    },
    {
      "midi": 60,
      "hit": false,
      "t": 135371.96399999995,
      "d": 123.96700000000419,
      "v": 100
    },
    {
      "midi": 53,
      "hit": false,
      "t": 135371.96400000036,
      "d": 123.96700000000419,
      "v": 100
    },
    {
      "midi": 58,
      "hit": false,
      "t": 135371.96400000036,
      "d": 123.96700000000419,
      "v": 100
    },
    {
      "midi": 62,
      "hit": false,
      "t": 135371.96400000036,
      "d": 123.96700000000419,
      "v": 100
    },
    {
      "midi": 53,
      "hit": false,
      "t": 135619.89800000036,
      "d": 123.96700000000419,
      "v": 100
    },
    {
      "midi": 58,
      "hit": false,
      "t": 135619.89800000036,
      "d": 123.96700000000419,
      "v": 100
    },
    {
      "midi": 62,
      "hit": false,
      "t": 135619.89800000036,
      "d": 123.96700000000419,
      "v": 100
    },
    {
      "midi": 51,
      "hit": false,
      "t": 135867.83200000037,
      "d": 123.96700000000419,
      "v": 100
    },
    {
      "midi": 55,
      "hit": false,
      "t": 135867.83200000037,
      "d": 123.96700000000419,
      "v": 100
    },
    {
      "midi": 60,
      "hit": false,
      "t": 135867.83200000037,
      "d": 123.96700000000419,
      "v": 100
    },
    {
      "midi": 51,
      "hit": false,
      "t": 136115.76600000038,
      "d": 123.96700000000419,
      "v": 100
    },
    {
      "midi": 55,
      "hit": false,
      "t": 136115.76600000038,
      "d": 123.96700000000419,
      "v": 100
    },
    {
      "midi": 60,
      "hit": false,
      "t": 136115.76600000038,
      "d": 123.96700000000419,
      "v": 100
    },
    {
      "midi": 51,
      "hit": false,
      "t": 136363.7000000004,
      "d": 123.96700000000419,
      "v": 100
    },
    {
      "midi": 55,
      "hit": false,
      "t": 136363.7000000004,
      "d": 123.96700000000419,
      "v": 100
    },
    {
      "midi": 60,
      "hit": false,
      "t": 136363.7000000004,
      "d": 123.96700000000419,
      "v": 100
    },
    {
      "midi": 51,
      "hit": false,
      "t": 136611.6340000004,
      "d": 123.96700000000419,
      "v": 100
    },
    {
      "midi": 55,
      "hit": false,
      "t": 136611.6340000004,
      "d": 123.96700000000419,
      "v": 100
    },
    {
      "midi": 60,
      "hit": false,
      "t": 136611.6340000004,
      "d": 123.96700000000419,
      "v": 100
    },
    {
      "midi": 51,
      "hit": false,
      "t": 136735.6010000004,
      "d": 123.96700000000419,
      "v": 100
    },
    {
      "midi": 55,
      "hit": false,
      "t": 136735.6010000004,
      "d": 123.96700000000419,
      "v": 100
    },
    {
      "midi": 60,
      "hit": false,
      "t": 136735.6010000004,
      "d": 123.96700000000419,
      "v": 100
    },
    {
      "midi": 51,
      "hit": false,
      "t": 136983.5350000004,
      "d": 123.96700000000419,
      "v": 100
    },
    {
      "midi": 55,
      "hit": false,
      "t": 136983.5350000004,
      "d": 123.96700000000419,
      "v": 100
    },
    {
      "midi": 60,
      "hit": false,
      "t": 136983.5350000004,
      "d": 123.96700000000419,
      "v": 100
    },
    {
      "midi": 51,
      "hit": false,
      "t": 137107.50200000042,
      "d": 123.96700000000419,
      "v": 100
    },
    {
      "midi": 55,
      "hit": false,
      "t": 137107.50200000042,
      "d": 123.96700000000419,
      "v": 100
    },
    {
      "midi": 60,
      "hit": false,
      "t": 137107.50200000042,
      "d": 123.96700000000419,
      "v": 100
    },
    {
      "midi": 51,
      "hit": false,
      "t": 137355.43600000042,
      "d": 123.96700000000419,
      "v": 100
    },
    {
      "midi": 55,
      "hit": false,
      "t": 137355.43600000042,
      "d": 123.96700000000419,
      "v": 100
    },
    {
      "midi": 60,
      "hit": false,
      "t": 137355.43600000042,
      "d": 123.96700000000419,
      "v": 100
    },
    {
      "midi": 51,
      "hit": false,
      "t": 137603.37000000043,
      "d": 123.96700000000419,
      "v": 100
    },
    {
      "midi": 55,
      "hit": false,
      "t": 137603.37000000043,
      "d": 123.96700000000419,
      "v": 100
    },
    {
      "midi": 60,
      "hit": false,
      "t": 137603.37000000043,
      "d": 123.96700000000419,
      "v": 100
    },
    {
      "midi": 55,
      "hit": false,
      "t": 137851.30400000044,
      "d": 123.96700000000419,
      "v": 100
    },
    {
      "midi": 58,
      "hit": false,
      "t": 137851.30400000044,
      "d": 123.96700000000419,
      "v": 100
    },
    {
      "midi": 63,
      "hit": false,
      "t": 137851.30400000044,
      "d": 123.96700000000419,
      "v": 100
    },
    {
      "midi": 55,
      "hit": false,
      "t": 138099.23800000045,
      "d": 123.96700000000419,
      "v": 100
    },
    {
      "midi": 58,
      "hit": false,
      "t": 138099.23800000045,
      "d": 123.96700000000419,
      "v": 100
    },
    {
      "midi": 63,
      "hit": false,
      "t": 138099.23800000045,
      "d": 123.96700000000419,
      "v": 100
    },
    {
      "midi": 55,
      "hit": false,
      "t": 138347.17200000046,
      "d": 123.96700000000419,
      "v": 100
    },
    {
      "midi": 58,
      "hit": false,
      "t": 138347.17200000046,
      "d": 123.96700000000419,
      "v": 100
    },
    {
      "midi": 63,
      "hit": false,
      "t": 138347.17200000046,
      "d": 123.96700000000419,
      "v": 100
    },
    {
      "midi": 55,
      "hit": false,
      "t": 138595.10600000047,
      "d": 123.96700000000419,
      "v": 100
    },
    {
      "midi": 58,
      "hit": false,
      "t": 138595.10600000047,
      "d": 123.96700000000419,
      "v": 100
    },
    {
      "midi": 63,
      "hit": false,
      "t": 138595.10600000047,
      "d": 123.96700000000419,
      "v": 100
    },
    {
      "midi": 55,
      "hit": false,
      "t": 138719.07300000047,
      "d": 123.96700000000419,
      "v": 100
    },
    {
      "midi": 58,
      "hit": false,
      "t": 138719.07300000047,
      "d": 123.96700000000419,
      "v": 100
    },
    {
      "midi": 63,
      "hit": false,
      "t": 138719.07300000047,
      "d": 123.96700000000419,
      "v": 100
    },
    {
      "midi": 55,
      "hit": false,
      "t": 138967.00700000048,
      "d": 123.96700000000419,
      "v": 100
    },
    {
      "midi": 58,
      "hit": false,
      "t": 138967.00700000048,
      "d": 123.96700000000419,
      "v": 100
    },
    {
      "midi": 63,
      "hit": false,
      "t": 138967.00700000048,
      "d": 123.96700000000419,
      "v": 100
    },
    {
      "midi": 55,
      "hit": false,
      "t": 139090.97400000048,
      "d": 123.96700000000419,
      "v": 100
    },
    {
      "midi": 58,
      "hit": false,
      "t": 139090.97400000048,
      "d": 123.96700000000419,
      "v": 100
    },
    {
      "midi": 63,
      "hit": false,
      "t": 139090.97400000048,
      "d": 123.96700000000419,
      "v": 100
    },
    {
      "midi": 55,
      "hit": false,
      "t": 139338.9080000005,
      "d": 123.96700000000419,
      "v": 100
    },
    {
      "midi": 58,
      "hit": false,
      "t": 139338.9080000005,
      "d": 123.96700000000419,
      "v": 100
    },
    {
      "midi": 63,
      "hit": false,
      "t": 139338.9080000005,
      "d": 123.96700000000419,
      "v": 100
    },
    {
      "midi": 55,
      "hit": false,
      "t": 139586.8420000005,
      "d": 123.96700000000419,
      "v": 100
    },
    {
      "midi": 58,
      "hit": false,
      "t": 139586.8420000005,
      "d": 123.96700000000419,
      "v": 100
    },
    {
      "midi": 63,
      "hit": false,
      "t": 139586.8420000005,
      "d": 123.96700000000419,
      "v": 100
    },
    {
      "midi": 53,
      "hit": false,
      "t": 139834.7760000005,
      "d": 123.96700000000419,
      "v": 100
    },
    {
      "midi": 58,
      "hit": false,
      "t": 139834.7760000005,
      "d": 123.96700000000419,
      "v": 100
    },
    {
      "midi": 62,
      "hit": false,
      "t": 139834.7760000005,
      "d": 123.96700000000419,
      "v": 100
    },
    {
      "midi": 53,
      "hit": false,
      "t": 140082.71000000052,
      "d": 123.96700000000419,
      "v": 100
    },
    {
      "midi": 58,
      "hit": false,
      "t": 140082.71000000052,
      "d": 123.96700000000419,
      "v": 100
    },
    {
      "midi": 62,
      "hit": false,
      "t": 140082.71000000052,
      "d": 123.96700000000419,
      "v": 100
    },
    {
      "midi": 53,
      "hit": false,
      "t": 140330.64400000052,
      "d": 123.96700000000419,
      "v": 100
    },
    {
      "midi": 58,
      "hit": false,
      "t": 140330.64400000052,
      "d": 123.96700000000419,
      "v": 100
    },
    {
      "midi": 62,
      "hit": false,
      "t": 140330.64400000052,
      "d": 123.96700000000419,
      "v": 100
    },
    {
      "midi": 53,
      "hit": false,
      "t": 140578.57800000053,
      "d": 123.96700000000419,
      "v": 100
    },
    {
      "midi": 58,
      "hit": false,
      "t": 140578.57800000053,
      "d": 123.96700000000419,
      "v": 100
    },
    {
      "midi": 62,
      "hit": false,
      "t": 140578.57800000053,
      "d": 123.96700000000419,
      "v": 100
    },
    {
      "midi": 60,
      "hit": false,
      "t": 140702.54499999995,
      "d": 123.96700000000419,
      "v": 100
    },
    {
      "midi": 53,
      "hit": false,
      "t": 140702.54500000054,
      "d": 123.96700000000419,
      "v": 100
    },
    {
      "midi": 58,
      "hit": false,
      "t": 140702.54500000054,
      "d": 123.96700000000419,
      "v": 100
    },
    {
      "midi": 62,
      "hit": false,
      "t": 140702.54500000054,
      "d": 123.96700000000419,
      "v": 100
    },
    {
      "midi": 60,
      "hit": false,
      "t": 140950.47899999996,
      "d": 123.96700000000419,
      "v": 100
    },
    {
      "midi": 53,
      "hit": false,
      "t": 140950.47900000055,
      "d": 123.96700000000419,
      "v": 100
    },
    {
      "midi": 58,
      "hit": false,
      "t": 140950.47900000055,
      "d": 123.96700000000419,
      "v": 100
    },
    {
      "midi": 62,
      "hit": false,
      "t": 140950.47900000055,
      "d": 123.96700000000419,
      "v": 100
    },
    {
      "midi": 58,
      "hit": false,
      "t": 141074.44599999997,
      "d": 123.96700000000419,
      "v": 100
    },
    {
      "midi": 53,
      "hit": false,
      "t": 141074.44600000055,
      "d": 123.96700000000419,
      "v": 100
    },
    {
      "midi": 58,
      "hit": false,
      "t": 141074.44600000055,
      "d": 123.96700000000419,
      "v": 100
    },
    {
      "midi": 62,
      "hit": false,
      "t": 141074.44600000055,
      "d": 123.96700000000419,
      "v": 100
    },
    {
      "midi": 60,
      "hit": false,
      "t": 141322.37999999998,
      "d": 123.96700000000419,
      "v": 100
    },
    {
      "midi": 53,
      "hit": false,
      "t": 141322.38000000056,
      "d": 123.96700000000419,
      "v": 100
    },
    {
      "midi": 58,
      "hit": false,
      "t": 141322.38000000056,
      "d": 123.96700000000419,
      "v": 100
    },
    {
      "midi": 62,
      "hit": false,
      "t": 141322.38000000056,
      "d": 123.96700000000419,
      "v": 100
    },
    {
      "midi": 53,
      "hit": false,
      "t": 141570.31400000057,
      "d": 123.96700000000419,
      "v": 100
    },
    {
      "midi": 58,
      "hit": false,
      "t": 141570.31400000057,
      "d": 123.96700000000419,
      "v": 100
    },
    {
      "midi": 62,
      "hit": false,
      "t": 141570.31400000057,
      "d": 123.96700000000419,
      "v": 100
    },
    {
      "midi": 51,
      "hit": false,
      "t": 143801.72000000058,
      "d": 123.96700000000419,
      "v": 100
    },
    {
      "midi": 55,
      "hit": false,
      "t": 143801.72000000058,
      "d": 123.96700000000419,
      "v": 100
    },
    {
      "midi": 60,
      "hit": false,
      "t": 143801.72000000058,
      "d": 123.96700000000419,
      "v": 100
    },
    {
      "midi": 51,
      "hit": false,
      "t": 144049.6540000006,
      "d": 123.96700000000419,
      "v": 100
    },
    {
      "midi": 55,
      "hit": false,
      "t": 144049.6540000006,
      "d": 123.96700000000419,
      "v": 100
    },
    {
      "midi": 60,
      "hit": false,
      "t": 144049.6540000006,
      "d": 123.96700000000419,
      "v": 100
    },
    {
      "midi": 51,
      "hit": false,
      "t": 144297.5880000006,
      "d": 123.96700000000419,
      "v": 100
    },
    {
      "midi": 55,
      "hit": false,
      "t": 144297.5880000006,
      "d": 123.96700000000419,
      "v": 100
    },
    {
      "midi": 60,
      "hit": false,
      "t": 144297.5880000006,
      "d": 123.96700000000419,
      "v": 100
    },
    {
      "midi": 51,
      "hit": false,
      "t": 144545.5220000006,
      "d": 123.96700000000419,
      "v": 100
    },
    {
      "midi": 55,
      "hit": false,
      "t": 144545.5220000006,
      "d": 123.96700000000419,
      "v": 100
    },
    {
      "midi": 60,
      "hit": false,
      "t": 144545.5220000006,
      "d": 123.96700000000419,
      "v": 100
    },
    {
      "midi": 60,
      "hit": false,
      "t": 144669.48899999997,
      "d": 123.96700000000419,
      "v": 100
    },
    {
      "midi": 51,
      "hit": false,
      "t": 144669.4890000006,
      "d": 123.96700000000419,
      "v": 100
    },
    {
      "midi": 55,
      "hit": false,
      "t": 144669.4890000006,
      "d": 123.96700000000419,
      "v": 100
    },
    {
      "midi": 60,
      "hit": false,
      "t": 144669.4890000006,
      "d": 123.96700000000419,
      "v": 100
    },
    {
      "midi": 60,
      "hit": false,
      "t": 144917.42299999998,
      "d": 123.96700000000419,
      "v": 100
    },
    {
      "midi": 51,
      "hit": false,
      "t": 144917.42300000062,
      "d": 123.96700000000419,
      "v": 100
    },
    {
      "midi": 55,
      "hit": false,
      "t": 144917.42300000062,
      "d": 123.96700000000419,
      "v": 100
    },
    {
      "midi": 60,
      "hit": false,
      "t": 144917.42300000062,
      "d": 123.96700000000419,
      "v": 100
    },
    {
      "midi": 58,
      "hit": false,
      "t": 145041.38999999998,
      "d": 123.96700000000419,
      "v": 100
    },
    {
      "midi": 51,
      "hit": false,
      "t": 145041.39000000063,
      "d": 123.96700000000419,
      "v": 100
    },
    {
      "midi": 55,
      "hit": false,
      "t": 145041.39000000063,
      "d": 123.96700000000419,
      "v": 100
    },
    {
      "midi": 60,
      "hit": false,
      "t": 145041.39000000063,
      "d": 123.96700000000419,
      "v": 100
    },
    {
      "midi": 60,
      "hit": false,
      "t": 145289.324,
      "d": 123.96700000000419,
      "v": 100
    },
    {
      "midi": 51,
      "hit": false,
      "t": 145289.32400000063,
      "d": 123.96700000000419,
      "v": 100
    },
    {
      "midi": 55,
      "hit": false,
      "t": 145289.32400000063,
      "d": 123.96700000000419,
      "v": 100
    },
    {
      "midi": 60,
      "hit": false,
      "t": 145289.32400000063,
      "d": 123.96700000000419,
      "v": 100
    },
    {
      "midi": 51,
      "hit": false,
      "t": 145537.25800000064,
      "d": 123.96700000000419,
      "v": 100
    },
    {
      "midi": 55,
      "hit": false,
      "t": 145537.25800000064,
      "d": 123.96700000000419,
      "v": 100
    },
    {
      "midi": 60,
      "hit": false,
      "t": 145537.25800000064,
      "d": 123.96700000000419,
      "v": 100
    },
    {
      "midi": 55,
      "hit": false,
      "t": 145785.19200000065,
      "d": 123.96700000000419,
      "v": 100
    },
    {
      "midi": 58,
      "hit": false,
      "t": 145785.19200000065,
      "d": 123.96700000000419,
      "v": 100
    },
    {
      "midi": 63,
      "hit": false,
      "t": 145785.19200000065,
      "d": 123.96700000000419,
      "v": 100
    },
    {
      "midi": 55,
      "hit": false,
      "t": 146033.12600000066,
      "d": 123.96700000000419,
      "v": 100
    },
    {
      "midi": 58,
      "hit": false,
      "t": 146033.12600000066,
      "d": 123.96700000000419,
      "v": 100
    },
    {
      "midi": 63,
      "hit": false,
      "t": 146033.12600000066,
      "d": 123.96700000000419,
      "v": 100
    },
    {
      "midi": 55,
      "hit": false,
      "t": 146281.06000000067,
      "d": 123.96700000000419,
      "v": 100
    },
    {
      "midi": 58,
      "hit": false,
      "t": 146281.06000000067,
      "d": 123.96700000000419,
      "v": 100
    },
    {
      "midi": 63,
      "hit": false,
      "t": 146281.06000000067,
      "d": 123.96700000000419,
      "v": 100
    },
    {
      "midi": 55,
      "hit": false,
      "t": 146528.99400000068,
      "d": 123.96700000000419,
      "v": 100
    },
    {
      "midi": 58,
      "hit": false,
      "t": 146528.99400000068,
      "d": 123.96700000000419,
      "v": 100
    },
    {
      "midi": 63,
      "hit": false,
      "t": 146528.99400000068,
      "d": 123.96700000000419,
      "v": 100
    },
    {
      "midi": 55,
      "hit": false,
      "t": 146652.96100000068,
      "d": 123.96700000000419,
      "v": 100
    },
    {
      "midi": 58,
      "hit": false,
      "t": 146652.96100000068,
      "d": 123.96700000000419,
      "v": 100
    },
    {
      "midi": 63,
      "hit": false,
      "t": 146652.96100000068,
      "d": 123.96700000000419,
      "v": 100
    },
    {
      "midi": 55,
      "hit": false,
      "t": 146900.8950000007,
      "d": 123.96700000000419,
      "v": 100
    },
    {
      "midi": 58,
      "hit": false,
      "t": 146900.8950000007,
      "d": 123.96700000000419,
      "v": 100
    },
    {
      "midi": 63,
      "hit": false,
      "t": 146900.8950000007,
      "d": 123.96700000000419,
      "v": 100
    },
    {
      "midi": 55,
      "hit": false,
      "t": 147024.8620000007,
      "d": 123.96700000000419,
      "v": 100
    },
    {
      "midi": 58,
      "hit": false,
      "t": 147024.8620000007,
      "d": 123.96700000000419,
      "v": 100
    },
    {
      "midi": 63,
      "hit": false,
      "t": 147024.8620000007,
      "d": 123.96700000000419,
      "v": 100
    },
    {
      "midi": 55,
      "hit": false,
      "t": 147272.7960000007,
      "d": 123.96700000000419,
      "v": 100
    },
    {
      "midi": 58,
      "hit": false,
      "t": 147272.7960000007,
      "d": 123.96700000000419,
      "v": 100
    },
    {
      "midi": 63,
      "hit": false,
      "t": 147272.7960000007,
      "d": 123.96700000000419,
      "v": 100
    },
    {
      "midi": 55,
      "hit": false,
      "t": 147520.7300000007,
      "d": 123.96700000000419,
      "v": 100
    },
    {
      "midi": 58,
      "hit": false,
      "t": 147520.7300000007,
      "d": 123.96700000000419,
      "v": 100
    },
    {
      "midi": 63,
      "hit": false,
      "t": 147520.7300000007,
      "d": 123.96700000000419,
      "v": 100
    },
    {
      "midi": 53,
      "hit": false,
      "t": 147768.66400000072,
      "d": 123.96700000000419,
      "v": 100
    },
    {
      "midi": 58,
      "hit": false,
      "t": 147768.66400000072,
      "d": 123.96700000000419,
      "v": 100
    },
    {
      "midi": 62,
      "hit": false,
      "t": 147768.66400000072,
      "d": 123.96700000000419,
      "v": 100
    },
    {
      "midi": 53,
      "hit": false,
      "t": 148016.59800000073,
      "d": 123.96700000000419,
      "v": 100
    },
    {
      "midi": 58,
      "hit": false,
      "t": 148016.59800000073,
      "d": 123.96700000000419,
      "v": 100
    },
    {
      "midi": 62,
      "hit": false,
      "t": 148016.59800000073,
      "d": 123.96700000000419,
      "v": 100
    },
    {
      "midi": 53,
      "hit": false,
      "t": 148264.53200000073,
      "d": 123.96700000000419,
      "v": 100
    },
    {
      "midi": 58,
      "hit": false,
      "t": 148264.53200000073,
      "d": 123.96700000000419,
      "v": 100
    },
    {
      "midi": 62,
      "hit": false,
      "t": 148264.53200000073,
      "d": 123.96700000000419,
      "v": 100
    },
    {
      "midi": 53,
      "hit": false,
      "t": 148512.46600000074,
      "d": 123.96700000000419,
      "v": 100
    },
    {
      "midi": 58,
      "hit": false,
      "t": 148512.46600000074,
      "d": 123.96700000000419,
      "v": 100
    },
    {
      "midi": 62,
      "hit": false,
      "t": 148512.46600000074,
      "d": 123.96700000000419,
      "v": 100
    },
    {
      "midi": 60,
      "hit": false,
      "t": 148636.433,
      "d": 123.96700000000419,
      "v": 100
    },
    {
      "midi": 53,
      "hit": false,
      "t": 148636.43300000075,
      "d": 123.96700000000419,
      "v": 100
    },
    {
      "midi": 58,
      "hit": false,
      "t": 148636.43300000075,
      "d": 123.96700000000419,
      "v": 100
    },
    {
      "midi": 62,
      "hit": false,
      "t": 148636.43300000075,
      "d": 123.96700000000419,
      "v": 100
    },
    {
      "midi": 60,
      "hit": false,
      "t": 148884.367,
      "d": 123.96700000000419,
      "v": 100
    },
    {
      "midi": 53,
      "hit": false,
      "t": 148884.36700000076,
      "d": 123.96700000000419,
      "v": 100
    },
    {
      "midi": 58,
      "hit": false,
      "t": 148884.36700000076,
      "d": 123.96700000000419,
      "v": 100
    },
    {
      "midi": 62,
      "hit": false,
      "t": 148884.36700000076,
      "d": 123.96700000000419,
      "v": 100
    },
    {
      "midi": 58,
      "hit": false,
      "t": 149008.334,
      "d": 123.96700000000419,
      "v": 100
    },
    {
      "midi": 53,
      "hit": false,
      "t": 149008.33400000076,
      "d": 123.96700000000419,
      "v": 100
    },
    {
      "midi": 58,
      "hit": false,
      "t": 149008.33400000076,
      "d": 123.96700000000419,
      "v": 100
    },
    {
      "midi": 62,
      "hit": false,
      "t": 149008.33400000076,
      "d": 123.96700000000419,
      "v": 100
    },
    {
      "midi": 60,
      "hit": false,
      "t": 149256.268,
      "d": 123.96700000000419,
      "v": 100
    },
    {
      "midi": 53,
      "hit": false,
      "t": 149256.26800000077,
      "d": 123.96700000000419,
      "v": 100
    },
    {
      "midi": 58,
      "hit": false,
      "t": 149256.26800000077,
      "d": 123.96700000000419,
      "v": 100
    },
    {
      "midi": 62,
      "hit": false,
      "t": 149256.26800000077,
      "d": 123.96700000000419,
      "v": 100
    },
    {
      "midi": 53,
      "hit": false,
      "t": 149504.20200000078,
      "d": 123.96700000000419,
      "v": 100
    },
    {
      "midi": 58,
      "hit": false,
      "t": 149504.20200000078,
      "d": 123.96700000000419,
      "v": 100
    },
    {
      "midi": 62,
      "hit": false,
      "t": 149504.20200000078,
      "d": 123.96700000000419,
      "v": 100
    },
    {
      "midi": 51,
      "hit": false,
      "t": 149752.13600000078,
      "d": 123.96700000000419,
      "v": 100
    },
    {
      "midi": 55,
      "hit": false,
      "t": 149752.13600000078,
      "d": 123.96700000000419,
      "v": 100
    },
    {
      "midi": 60,
      "hit": false,
      "t": 149752.13600000078,
      "d": 123.96700000000419,
      "v": 100
    },
    {
      "midi": 51,
      "hit": false,
      "t": 150000.0700000008,
      "d": 123.96700000000419,
      "v": 100
    },
    {
      "midi": 55,
      "hit": false,
      "t": 150000.0700000008,
      "d": 123.96700000000419,
      "v": 100
    },
    {
      "midi": 60,
      "hit": false,
      "t": 150000.0700000008,
      "d": 123.96700000000419,
      "v": 100
    },
    {
      "midi": 51,
      "hit": false,
      "t": 150248.0040000008,
      "d": 123.96700000000419,
      "v": 100
    },
    {
      "midi": 55,
      "hit": false,
      "t": 150248.0040000008,
      "d": 123.96700000000419,
      "v": 100
    },
    {
      "midi": 60,
      "hit": false,
      "t": 150248.0040000008,
      "d": 123.96700000000419,
      "v": 100
    },
    {
      "midi": 51,
      "hit": false,
      "t": 150495.9380000008,
      "d": 123.96700000000419,
      "v": 100
    },
    {
      "midi": 55,
      "hit": false,
      "t": 150495.9380000008,
      "d": 123.96700000000419,
      "v": 100
    },
    {
      "midi": 60,
      "hit": false,
      "t": 150495.9380000008,
      "d": 123.96700000000419,
      "v": 100
    },
    {
      "midi": 51,
      "hit": false,
      "t": 150619.9050000008,
      "d": 123.96700000000419,
      "v": 100
    },
    {
      "midi": 55,
      "hit": false,
      "t": 150619.9050000008,
      "d": 123.96700000000419,
      "v": 100
    },
    {
      "midi": 60,
      "hit": false,
      "t": 150619.9050000008,
      "d": 123.96700000000419,
      "v": 100
    },
    {
      "midi": 51,
      "hit": false,
      "t": 150867.83900000082,
      "d": 123.96700000000419,
      "v": 100
    },
    {
      "midi": 55,
      "hit": false,
      "t": 150867.83900000082,
      "d": 123.96700000000419,
      "v": 100
    },
    {
      "midi": 60,
      "hit": false,
      "t": 150867.83900000082,
      "d": 123.96700000000419,
      "v": 100
    },
    {
      "midi": 51,
      "hit": false,
      "t": 150991.80600000083,
      "d": 123.96700000000419,
      "v": 100
    },
    {
      "midi": 55,
      "hit": false,
      "t": 150991.80600000083,
      "d": 123.96700000000419,
      "v": 100
    },
    {
      "midi": 60,
      "hit": false,
      "t": 150991.80600000083,
      "d": 123.96700000000419,
      "v": 100
    },
    {
      "midi": 51,
      "hit": false,
      "t": 151239.74000000083,
      "d": 123.96700000000419,
      "v": 100
    },
    {
      "midi": 55,
      "hit": false,
      "t": 151239.74000000083,
      "d": 123.96700000000419,
      "v": 100
    },
    {
      "midi": 60,
      "hit": false,
      "t": 151239.74000000083,
      "d": 123.96700000000419,
      "v": 100
    },
    {
      "midi": 51,
      "hit": false,
      "t": 151487.67400000084,
      "d": 123.96700000000419,
      "v": 100
    },
    {
      "midi": 55,
      "hit": false,
      "t": 151487.67400000084,
      "d": 123.96700000000419,
      "v": 100
    },
    {
      "midi": 60,
      "hit": false,
      "t": 151487.67400000084,
      "d": 123.96700000000419,
      "v": 100
    },
    {
      "midi": 51,
      "hit": false,
      "t": 151735.60800000085,
      "d": 123.96700000000419,
      "v": 100
    },
    {
      "midi": 55,
      "hit": false,
      "t": 151735.60800000085,
      "d": 123.96700000000419,
      "v": 100
    },
    {
      "midi": 60,
      "hit": false,
      "t": 151735.60800000085,
      "d": 123.96700000000419,
      "v": 100
    },
    {
      "midi": 51,
      "hit": false,
      "t": 151983.54200000086,
      "d": 123.96700000000419,
      "v": 100
    },
    {
      "midi": 55,
      "hit": false,
      "t": 151983.54200000086,
      "d": 123.96700000000419,
      "v": 100
    },
    {
      "midi": 60,
      "hit": false,
      "t": 151983.54200000086,
      "d": 123.96700000000419,
      "v": 100
    },
    {
      "midi": 51,
      "hit": false,
      "t": 152231.47600000087,
      "d": 123.96700000000419,
      "v": 100
    },
    {
      "midi": 55,
      "hit": false,
      "t": 152231.47600000087,
      "d": 123.96700000000419,
      "v": 100
    },
    {
      "midi": 60,
      "hit": false,
      "t": 152231.47600000087,
      "d": 123.96700000000419,
      "v": 100
    },
    {
      "midi": 51,
      "hit": false,
      "t": 152479.41000000088,
      "d": 123.96700000000419,
      "v": 100
    },
    {
      "midi": 55,
      "hit": false,
      "t": 152479.41000000088,
      "d": 123.96700000000419,
      "v": 100
    },
    {
      "midi": 60,
      "hit": false,
      "t": 152479.41000000088,
      "d": 123.96700000000419,
      "v": 100
    },
    {
      "midi": 60,
      "hit": false,
      "t": 152603.377,
      "d": 123.96700000000419,
      "v": 100
    },
    {
      "midi": 51,
      "hit": false,
      "t": 152603.37700000088,
      "d": 123.96700000000419,
      "v": 100
    },
    {
      "midi": 55,
      "hit": false,
      "t": 152603.37700000088,
      "d": 123.96700000000419,
      "v": 100
    },
    {
      "midi": 60,
      "hit": false,
      "t": 152603.37700000088,
      "d": 123.96700000000419,
      "v": 100
    },
    {
      "midi": 60,
      "hit": false,
      "t": 152851.31100000002,
      "d": 123.96700000000419,
      "v": 100
    },
    {
      "midi": 51,
      "hit": false,
      "t": 152851.3110000009,
      "d": 123.96700000000419,
      "v": 100
    },
    {
      "midi": 55,
      "hit": false,
      "t": 152851.3110000009,
      "d": 123.96700000000419,
      "v": 100
    },
    {
      "midi": 60,
      "hit": false,
      "t": 152851.3110000009,
      "d": 123.96700000000419,
      "v": 100
    },
    {
      "midi": 58,
      "hit": false,
      "t": 152975.27800000002,
      "d": 123.96700000000419,
      "v": 100
    },
    {
      "midi": 51,
      "hit": false,
      "t": 152975.2780000009,
      "d": 123.96700000000419,
      "v": 100
    },
    {
      "midi": 55,
      "hit": false,
      "t": 152975.2780000009,
      "d": 123.96700000000419,
      "v": 100
    },
    {
      "midi": 60,
      "hit": false,
      "t": 152975.2780000009,
      "d": 123.96700000000419,
      "v": 100
    },
    {
      "midi": 60,
      "hit": false,
      "t": 153223.21200000003,
      "d": 123.96700000000419,
      "v": 100
    },
    {
      "midi": 51,
      "hit": false,
      "t": 153223.2120000009,
      "d": 123.96700000000419,
      "v": 100
    },
    {
      "midi": 55,
      "hit": false,
      "t": 153223.2120000009,
      "d": 123.96700000000419,
      "v": 100
    },
    {
      "midi": 60,
      "hit": false,
      "t": 153223.2120000009,
      "d": 123.96700000000419,
      "v": 100
    },
    {
      "midi": 51,
      "hit": false,
      "t": 153471.1460000009,
      "d": 123.96700000000419,
      "v": 100
    },
    {
      "midi": 55,
      "hit": false,
      "t": 153471.1460000009,
      "d": 123.96700000000419,
      "v": 100
    },
    {
      "midi": 60,
      "hit": false,
      "t": 153471.1460000009,
      "d": 123.96700000000419,
      "v": 100
    },
    {
      "midi": 55,
      "hit": false,
      "t": 153719.08000000092,
      "d": 123.96700000000419,
      "v": 100
    },
    {
      "midi": 58,
      "hit": false,
      "t": 153719.08000000092,
      "d": 123.96700000000419,
      "v": 100
    },
    {
      "midi": 63,
      "hit": false,
      "t": 153719.08000000092,
      "d": 123.96700000000419,
      "v": 100
    },
    {
      "midi": 55,
      "hit": false,
      "t": 153967.01400000093,
      "d": 123.96700000000419,
      "v": 100
    },
    {
      "midi": 58,
      "hit": false,
      "t": 153967.01400000093,
      "d": 123.96700000000419,
      "v": 100
    },
    {
      "midi": 63,
      "hit": false,
      "t": 153967.01400000093,
      "d": 123.96700000000419,
      "v": 100
    },
    {
      "midi": 55,
      "hit": false,
      "t": 154214.94800000094,
      "d": 123.96700000000419,
      "v": 100
    },
    {
      "midi": 58,
      "hit": false,
      "t": 154214.94800000094,
      "d": 123.96700000000419,
      "v": 100
    },
    {
      "midi": 63,
      "hit": false,
      "t": 154214.94800000094,
      "d": 123.96700000000419,
      "v": 100
    },
    {
      "midi": 55,
      "hit": false,
      "t": 154462.88200000094,
      "d": 123.96700000000419,
      "v": 100
    },
    {
      "midi": 58,
      "hit": false,
      "t": 154462.88200000094,
      "d": 123.96700000000419,
      "v": 100
    },
    {
      "midi": 63,
      "hit": false,
      "t": 154462.88200000094,
      "d": 123.96700000000419,
      "v": 100
    },
    {
      "midi": 55,
      "hit": false,
      "t": 154586.84900000095,
      "d": 123.96700000000419,
      "v": 100
    },
    {
      "midi": 58,
      "hit": false,
      "t": 154586.84900000095,
      "d": 123.96700000000419,
      "v": 100
    },
    {
      "midi": 63,
      "hit": false,
      "t": 154586.84900000095,
      "d": 123.96700000000419,
      "v": 100
    },
    {
      "midi": 55,
      "hit": false,
      "t": 154834.78300000096,
      "d": 123.96700000000419,
      "v": 100
    },
    {
      "midi": 58,
      "hit": false,
      "t": 154834.78300000096,
      "d": 123.96700000000419,
      "v": 100
    },
    {
      "midi": 63,
      "hit": false,
      "t": 154834.78300000096,
      "d": 123.96700000000419,
      "v": 100
    },
    {
      "midi": 55,
      "hit": false,
      "t": 154958.75000000096,
      "d": 123.96700000000419,
      "v": 100
    },
    {
      "midi": 58,
      "hit": false,
      "t": 154958.75000000096,
      "d": 123.96700000000419,
      "v": 100
    },
    {
      "midi": 63,
      "hit": false,
      "t": 154958.75000000096,
      "d": 123.96700000000419,
      "v": 100
    },
    {
      "midi": 55,
      "hit": false,
      "t": 155206.68400000097,
      "d": 123.96700000000419,
      "v": 100
    },
    {
      "midi": 58,
      "hit": false,
      "t": 155206.68400000097,
      "d": 123.96700000000419,
      "v": 100
    },
    {
      "midi": 63,
      "hit": false,
      "t": 155206.68400000097,
      "d": 123.96700000000419,
      "v": 100
    },
    {
      "midi": 55,
      "hit": false,
      "t": 155454.61800000098,
      "d": 123.96700000000419,
      "v": 100
    },
    {
      "midi": 58,
      "hit": false,
      "t": 155454.61800000098,
      "d": 123.96700000000419,
      "v": 100
    },
    {
      "midi": 63,
      "hit": false,
      "t": 155454.61800000098,
      "d": 123.96700000000419,
      "v": 100
    },
    {
      "midi": 53,
      "hit": false,
      "t": 155702.552000001,
      "d": 123.96700000000419,
      "v": 100
    },
    {
      "midi": 58,
      "hit": false,
      "t": 155702.552000001,
      "d": 123.96700000000419,
      "v": 100
    },
    {
      "midi": 62,
      "hit": false,
      "t": 155702.552000001,
      "d": 123.96700000000419,
      "v": 100
    },
    {
      "midi": 53,
      "hit": false,
      "t": 155950.486000001,
      "d": 123.96700000000419,
      "v": 100
    },
    {
      "midi": 58,
      "hit": false,
      "t": 155950.486000001,
      "d": 123.96700000000419,
      "v": 100
    },
    {
      "midi": 62,
      "hit": false,
      "t": 155950.486000001,
      "d": 123.96700000000419,
      "v": 100
    },
    {
      "midi": 53,
      "hit": false,
      "t": 156198.420000001,
      "d": 123.96700000000419,
      "v": 100
    },
    {
      "midi": 58,
      "hit": false,
      "t": 156198.420000001,
      "d": 123.96700000000419,
      "v": 100
    },
    {
      "midi": 62,
      "hit": false,
      "t": 156198.420000001,
      "d": 123.96700000000419,
      "v": 100
    },
    {
      "midi": 53,
      "hit": false,
      "t": 156446.354000001,
      "d": 123.96700000000419,
      "v": 100
    },
    {
      "midi": 58,
      "hit": false,
      "t": 156446.354000001,
      "d": 123.96700000000419,
      "v": 100
    },
    {
      "midi": 62,
      "hit": false,
      "t": 156446.354000001,
      "d": 123.96700000000419,
      "v": 100
    },
    {
      "midi": 60,
      "hit": false,
      "t": 156570.32100000003,
      "d": 123.96700000000419,
      "v": 100
    },
    {
      "midi": 53,
      "hit": false,
      "t": 156570.32100000101,
      "d": 123.96700000000419,
      "v": 100
    },
    {
      "midi": 58,
      "hit": false,
      "t": 156570.32100000101,
      "d": 123.96700000000419,
      "v": 100
    },
    {
      "midi": 62,
      "hit": false,
      "t": 156570.32100000101,
      "d": 123.96700000000419,
      "v": 100
    },
    {
      "midi": 60,
      "hit": false,
      "t": 156818.25500000003,
      "d": 123.96700000000419,
      "v": 100
    },
    {
      "midi": 53,
      "hit": false,
      "t": 156818.25500000102,
      "d": 123.96700000000419,
      "v": 100
    },
    {
      "midi": 58,
      "hit": false,
      "t": 156818.25500000102,
      "d": 123.96700000000419,
      "v": 100
    },
    {
      "midi": 62,
      "hit": false,
      "t": 156818.25500000102,
      "d": 123.96700000000419,
      "v": 100
    },
    {
      "midi": 58,
      "hit": false,
      "t": 156942.22200000004,
      "d": 123.96700000000419,
      "v": 100
    },
    {
      "midi": 53,
      "hit": false,
      "t": 156942.22200000103,
      "d": 123.96700000000419,
      "v": 100
    },
    {
      "midi": 58,
      "hit": false,
      "t": 156942.22200000103,
      "d": 123.96700000000419,
      "v": 100
    },
    {
      "midi": 62,
      "hit": false,
      "t": 156942.22200000103,
      "d": 123.96700000000419,
      "v": 100
    },
    {
      "midi": 60,
      "hit": false,
      "t": 157190.15600000005,
      "d": 123.96700000000419,
      "v": 100
    },
    {
      "midi": 53,
      "hit": false,
      "t": 157190.15600000104,
      "d": 123.96700000000419,
      "v": 100
    },
    {
      "midi": 58,
      "hit": false,
      "t": 157190.15600000104,
      "d": 123.96700000000419,
      "v": 100
    },
    {
      "midi": 62,
      "hit": false,
      "t": 157190.15600000104,
      "d": 123.96700000000419,
      "v": 100
    },
    {
      "midi": 53,
      "hit": false,
      "t": 157438.09000000104,
      "d": 123.96700000000419,
      "v": 100
    },
    {
      "midi": 58,
      "hit": false,
      "t": 157438.09000000104,
      "d": 123.96700000000419,
      "v": 100
    },
    {
      "midi": 62,
      "hit": false,
      "t": 157438.09000000104,
      "d": 123.96700000000419,
      "v": 100
    },
    {
      "midi": 51,
      "hit": false,
      "t": 157686.02400000105,
      "d": 123.96700000000419,
      "v": 100
    },
    {
      "midi": 55,
      "hit": false,
      "t": 157686.02400000105,
      "d": 123.96700000000419,
      "v": 100
    },
    {
      "midi": 60,
      "hit": false,
      "t": 157686.02400000105,
      "d": 123.96700000000419,
      "v": 100
    },
    {
      "midi": 51,
      "hit": false,
      "t": 157933.95800000106,
      "d": 123.96700000000419,
      "v": 100
    },
    {
      "midi": 55,
      "hit": false,
      "t": 157933.95800000106,
      "d": 123.96700000000419,
      "v": 100
    },
    {
      "midi": 60,
      "hit": false,
      "t": 157933.95800000106,
      "d": 123.96700000000419,
      "v": 100
    },
    {
      "midi": 51,
      "hit": false,
      "t": 158181.89200000107,
      "d": 123.96700000000419,
      "v": 100
    },
    {
      "midi": 55,
      "hit": false,
      "t": 158181.89200000107,
      "d": 123.96700000000419,
      "v": 100
    },
    {
      "midi": 60,
      "hit": false,
      "t": 158181.89200000107,
      "d": 123.96700000000419,
      "v": 100
    },
    {
      "midi": 51,
      "hit": false,
      "t": 158429.82600000108,
      "d": 123.96700000000419,
      "v": 100
    },
    {
      "midi": 55,
      "hit": false,
      "t": 158429.82600000108,
      "d": 123.96700000000419,
      "v": 100
    },
    {
      "midi": 60,
      "hit": false,
      "t": 158429.82600000108,
      "d": 123.96700000000419,
      "v": 100
    },
    {
      "midi": 51,
      "hit": false,
      "t": 158553.79300000108,
      "d": 123.96700000000419,
      "v": 100
    },
    {
      "midi": 55,
      "hit": false,
      "t": 158553.79300000108,
      "d": 123.96700000000419,
      "v": 100
    },
    {
      "midi": 60,
      "hit": false,
      "t": 158553.79300000108,
      "d": 123.96700000000419,
      "v": 100
    },
    {
      "midi": 51,
      "hit": false,
      "t": 158801.7270000011,
      "d": 123.96700000000419,
      "v": 100
    },
    {
      "midi": 55,
      "hit": false,
      "t": 158801.7270000011,
      "d": 123.96700000000419,
      "v": 100
    },
    {
      "midi": 60,
      "hit": false,
      "t": 158801.7270000011,
      "d": 123.96700000000419,
      "v": 100
    },
    {
      "midi": 51,
      "hit": false,
      "t": 158925.6940000011,
      "d": 123.96700000000419,
      "v": 100
    },
    {
      "midi": 55,
      "hit": false,
      "t": 158925.6940000011,
      "d": 123.96700000000419,
      "v": 100
    },
    {
      "midi": 60,
      "hit": false,
      "t": 158925.6940000011,
      "d": 123.96700000000419,
      "v": 100
    },
    {
      "midi": 51,
      "hit": false,
      "t": 159173.6280000011,
      "d": 123.96700000000419,
      "v": 100
    },
    {
      "midi": 55,
      "hit": false,
      "t": 159173.6280000011,
      "d": 123.96700000000419,
      "v": 100
    },
    {
      "midi": 60,
      "hit": false,
      "t": 159173.6280000011,
      "d": 123.96700000000419,
      "v": 100
    },
    {
      "midi": 51,
      "hit": false,
      "t": 159421.5620000011,
      "d": 123.96700000000419,
      "v": 100
    },
    {
      "midi": 55,
      "hit": false,
      "t": 159421.5620000011,
      "d": 123.96700000000419,
      "v": 100
    },
    {
      "midi": 60,
      "hit": false,
      "t": 159421.5620000011,
      "d": 123.96700000000419,
      "v": 100
    },
    {
      "midi": 51,
      "hit": false,
      "t": 159669.49600000112,
      "d": 123.96700000000419,
      "v": 100
    },
    {
      "midi": 55,
      "hit": false,
      "t": 159669.49600000112,
      "d": 123.96700000000419,
      "v": 100
    },
    {
      "midi": 60,
      "hit": false,
      "t": 159669.49600000112,
      "d": 123.96700000000419,
      "v": 100
    },
    {
      "midi": 51,
      "hit": false,
      "t": 159917.43000000113,
      "d": 123.96700000000419,
      "v": 100
    },
    {
      "midi": 55,
      "hit": false,
      "t": 159917.43000000113,
      "d": 123.96700000000419,
      "v": 100
    },
    {
      "midi": 60,
      "hit": false,
      "t": 159917.43000000113,
      "d": 123.96700000000419,
      "v": 100
    },
    {
      "midi": 51,
      "hit": false,
      "t": 160165.36400000114,
      "d": 123.96700000000419,
      "v": 100
    },
    {
      "midi": 55,
      "hit": false,
      "t": 160165.36400000114,
      "d": 123.96700000000419,
      "v": 100
    },
    {
      "midi": 60,
      "hit": false,
      "t": 160165.36400000114,
      "d": 123.96700000000419,
      "v": 100
    },
    {
      "midi": 51,
      "hit": false,
      "t": 160413.29800000114,
      "d": 123.96700000000419,
      "v": 100
    },
    {
      "midi": 55,
      "hit": false,
      "t": 160413.29800000114,
      "d": 123.96700000000419,
      "v": 100
    },
    {
      "midi": 60,
      "hit": false,
      "t": 160413.29800000114,
      "d": 123.96700000000419,
      "v": 100
    },
    {
      "midi": 60,
      "hit": false,
      "t": 160537.26500000004,
      "d": 123.96700000000419,
      "v": 100
    },
    {
      "midi": 51,
      "hit": false,
      "t": 160537.26500000115,
      "d": 123.96700000000419,
      "v": 100
    },
    {
      "midi": 55,
      "hit": false,
      "t": 160537.26500000115,
      "d": 123.96700000000419,
      "v": 100
    },
    {
      "midi": 60,
      "hit": false,
      "t": 160537.26500000115,
      "d": 123.96700000000419,
      "v": 100
    },
    {
      "midi": 60,
      "hit": false,
      "t": 160785.19900000005,
      "d": 123.96700000000419,
      "v": 100
    },
    {
      "midi": 51,
      "hit": false,
      "t": 160785.19900000116,
      "d": 123.96700000000419,
      "v": 100
    },
    {
      "midi": 55,
      "hit": false,
      "t": 160785.19900000116,
      "d": 123.96700000000419,
      "v": 100
    },
    {
      "midi": 60,
      "hit": false,
      "t": 160785.19900000116,
      "d": 123.96700000000419,
      "v": 100
    },
    {
      "midi": 58,
      "hit": false,
      "t": 160909.16600000006,
      "d": 123.96700000000419,
      "v": 100
    },
    {
      "midi": 51,
      "hit": false,
      "t": 160909.16600000116,
      "d": 123.96700000000419,
      "v": 100
    },
    {
      "midi": 55,
      "hit": false,
      "t": 160909.16600000116,
      "d": 123.96700000000419,
      "v": 100
    },
    {
      "midi": 60,
      "hit": false,
      "t": 160909.16600000116,
      "d": 123.96700000000419,
      "v": 100
    },
    {
      "midi": 60,
      "hit": false,
      "t": 161157.10000000006,
      "d": 123.96700000000419,
      "v": 100
    },
    {
      "midi": 51,
      "hit": false,
      "t": 161157.10000000117,
      "d": 123.96700000000419,
      "v": 100
    },
    {
      "midi": 55,
      "hit": false,
      "t": 161157.10000000117,
      "d": 123.96700000000419,
      "v": 100
    },
    {
      "midi": 60,
      "hit": false,
      "t": 161157.10000000117,
      "d": 123.96700000000419,
      "v": 100
    },
    {
      "midi": 51,
      "hit": false,
      "t": 161405.03400000118,
      "d": 123.96700000000419,
      "v": 100
    },
    {
      "midi": 55,
      "hit": false,
      "t": 161405.03400000118,
      "d": 123.96700000000419,
      "v": 100
    },
    {
      "midi": 60,
      "hit": false,
      "t": 161405.03400000118,
      "d": 123.96700000000419,
      "v": 100
    },
    {
      "midi": 55,
      "hit": false,
      "t": 161652.9680000012,
      "d": 123.96700000000419,
      "v": 100
    },
    {
      "midi": 58,
      "hit": false,
      "t": 161652.9680000012,
      "d": 123.96700000000419,
      "v": 100
    },
    {
      "midi": 63,
      "hit": false,
      "t": 161652.9680000012,
      "d": 123.96700000000419,
      "v": 100
    },
    {
      "midi": 55,
      "hit": false,
      "t": 161900.9020000012,
      "d": 123.96700000000419,
      "v": 100
    },
    {
      "midi": 58,
      "hit": false,
      "t": 161900.9020000012,
      "d": 123.96700000000419,
      "v": 100
    },
    {
      "midi": 63,
      "hit": false,
      "t": 161900.9020000012,
      "d": 123.96700000000419,
      "v": 100
    },
    {
      "midi": 55,
      "hit": false,
      "t": 162148.8360000012,
      "d": 123.96700000000419,
      "v": 100
    },
    {
      "midi": 58,
      "hit": false,
      "t": 162148.8360000012,
      "d": 123.96700000000419,
      "v": 100
    },
    {
      "midi": 63,
      "hit": false,
      "t": 162148.8360000012,
      "d": 123.96700000000419,
      "v": 100
    },
    {
      "midi": 55,
      "hit": false,
      "t": 162396.7700000012,
      "d": 123.96700000000419,
      "v": 100
    },
    {
      "midi": 58,
      "hit": false,
      "t": 162396.7700000012,
      "d": 123.96700000000419,
      "v": 100
    },
    {
      "midi": 63,
      "hit": false,
      "t": 162396.7700000012,
      "d": 123.96700000000419,
      "v": 100
    },
    {
      "midi": 55,
      "hit": false,
      "t": 162520.73700000122,
      "d": 123.96700000000419,
      "v": 100
    },
    {
      "midi": 58,
      "hit": false,
      "t": 162520.73700000122,
      "d": 123.96700000000419,
      "v": 100
    },
    {
      "midi": 63,
      "hit": false,
      "t": 162520.73700000122,
      "d": 123.96700000000419,
      "v": 100
    },
    {
      "midi": 55,
      "hit": false,
      "t": 162768.67100000122,
      "d": 123.96700000000419,
      "v": 100
    },
    {
      "midi": 58,
      "hit": false,
      "t": 162768.67100000122,
      "d": 123.96700000000419,
      "v": 100
    },
    {
      "midi": 63,
      "hit": false,
      "t": 162768.67100000122,
      "d": 123.96700000000419,
      "v": 100
    },
    {
      "midi": 55,
      "hit": false,
      "t": 162892.63800000123,
      "d": 123.96700000000419,
      "v": 100
    },
    {
      "midi": 58,
      "hit": false,
      "t": 162892.63800000123,
      "d": 123.96700000000419,
      "v": 100
    },
    {
      "midi": 63,
      "hit": false,
      "t": 162892.63800000123,
      "d": 123.96700000000419,
      "v": 100
    },
    {
      "midi": 55,
      "hit": false,
      "t": 163140.57200000124,
      "d": 123.96700000000419,
      "v": 100
    },
    {
      "midi": 58,
      "hit": false,
      "t": 163140.57200000124,
      "d": 123.96700000000419,
      "v": 100
    },
    {
      "midi": 63,
      "hit": false,
      "t": 163140.57200000124,
      "d": 123.96700000000419,
      "v": 100
    },
    {
      "midi": 55,
      "hit": false,
      "t": 163388.50600000125,
      "d": 123.96700000000419,
      "v": 100
    },
    {
      "midi": 58,
      "hit": false,
      "t": 163388.50600000125,
      "d": 123.96700000000419,
      "v": 100
    },
    {
      "midi": 63,
      "hit": false,
      "t": 163388.50600000125,
      "d": 123.96700000000419,
      "v": 100
    },
    {
      "midi": 53,
      "hit": false,
      "t": 163636.44000000125,
      "d": 123.96700000000419,
      "v": 100
    },
    {
      "midi": 58,
      "hit": false,
      "t": 163636.44000000125,
      "d": 123.96700000000419,
      "v": 100
    },
    {
      "midi": 62,
      "hit": false,
      "t": 163636.44000000125,
      "d": 123.96700000000419,
      "v": 100
    },
    {
      "midi": 53,
      "hit": false,
      "t": 163884.37400000126,
      "d": 123.96700000000419,
      "v": 100
    },
    {
      "midi": 58,
      "hit": false,
      "t": 163884.37400000126,
      "d": 123.96700000000419,
      "v": 100
    },
    {
      "midi": 62,
      "hit": false,
      "t": 163884.37400000126,
      "d": 123.96700000000419,
      "v": 100
    },
    {
      "midi": 53,
      "hit": false,
      "t": 164132.30800000127,
      "d": 123.96700000000419,
      "v": 100
    },
    {
      "midi": 58,
      "hit": false,
      "t": 164132.30800000127,
      "d": 123.96700000000419,
      "v": 100
    },
    {
      "midi": 62,
      "hit": false,
      "t": 164132.30800000127,
      "d": 123.96700000000419,
      "v": 100
    },
    {
      "midi": 53,
      "hit": false,
      "t": 164380.24200000128,
      "d": 123.96700000000419,
      "v": 100
    },
    {
      "midi": 58,
      "hit": false,
      "t": 164380.24200000128,
      "d": 123.96700000000419,
      "v": 100
    },
    {
      "midi": 62,
      "hit": false,
      "t": 164380.24200000128,
      "d": 123.96700000000419,
      "v": 100
    },
    {
      "midi": 60,
      "hit": false,
      "t": 164504.20900000006,
      "d": 123.96700000000419,
      "v": 100
    },
    {
      "midi": 53,
      "hit": false,
      "t": 164504.20900000128,
      "d": 123.96700000000419,
      "v": 100
    },
    {
      "midi": 58,
      "hit": false,
      "t": 164504.20900000128,
      "d": 123.96700000000419,
      "v": 100
    },
    {
      "midi": 62,
      "hit": false,
      "t": 164504.20900000128,
      "d": 123.96700000000419,
      "v": 100
    },
    {
      "midi": 60,
      "hit": false,
      "t": 164752.14300000007,
      "d": 123.96700000000419,
      "v": 100
    },
    {
      "midi": 53,
      "hit": false,
      "t": 164752.1430000013,
      "d": 123.96700000000419,
      "v": 100
    },
    {
      "midi": 58,
      "hit": false,
      "t": 164752.1430000013,
      "d": 123.96700000000419,
      "v": 100
    },
    {
      "midi": 62,
      "hit": false,
      "t": 164752.1430000013,
      "d": 123.96700000000419,
      "v": 100
    },
    {
      "midi": 58,
      "hit": false,
      "t": 164876.11000000007,
      "d": 123.96700000000419,
      "v": 100
    },
    {
      "midi": 53,
      "hit": false,
      "t": 164876.1100000013,
      "d": 123.96700000000419,
      "v": 100
    },
    {
      "midi": 58,
      "hit": false,
      "t": 164876.1100000013,
      "d": 123.96700000000419,
      "v": 100
    },
    {
      "midi": 62,
      "hit": false,
      "t": 164876.1100000013,
      "d": 123.96700000000419,
      "v": 100
    },
    {
      "midi": 60,
      "hit": false,
      "t": 165124.04400000008,
      "d": 123.96700000000419,
      "v": 100
    },
    {
      "midi": 53,
      "hit": false,
      "t": 165124.0440000013,
      "d": 123.96700000000419,
      "v": 100
    },
    {
      "midi": 58,
      "hit": false,
      "t": 165124.0440000013,
      "d": 123.96700000000419,
      "v": 100
    },
    {
      "midi": 62,
      "hit": false,
      "t": 165124.0440000013,
      "d": 123.96700000000419,
      "v": 100
    },
    {
      "midi": 53,
      "hit": false,
      "t": 165371.9780000013,
      "d": 123.96700000000419,
      "v": 100
    },
    {
      "midi": 58,
      "hit": false,
      "t": 165371.9780000013,
      "d": 123.96700000000419,
      "v": 100
    },
    {
      "midi": 62,
      "hit": false,
      "t": 165371.9780000013,
      "d": 123.96700000000419,
      "v": 100
    },
    {
      "midi": 51,
      "hit": false,
      "t": 165619.91200000132,
      "d": 123.96700000000419,
      "v": 100
    },
    {
      "midi": 55,
      "hit": false,
      "t": 165619.91200000132,
      "d": 123.96700000000419,
      "v": 100
    },
    {
      "midi": 60,
      "hit": false,
      "t": 165619.91200000132,
      "d": 123.96700000000419,
      "v": 100
    },
    {
      "midi": 51,
      "hit": false,
      "t": 165867.84600000133,
      "d": 123.96700000000419,
      "v": 100
    },
    {
      "midi": 55,
      "hit": false,
      "t": 165867.84600000133,
      "d": 123.96700000000419,
      "v": 100
    },
    {
      "midi": 60,
      "hit": false,
      "t": 165867.84600000133,
      "d": 123.96700000000419,
      "v": 100
    },
    {
      "midi": 51,
      "hit": false,
      "t": 166115.78000000134,
      "d": 123.96700000000419,
      "v": 100
    },
    {
      "midi": 55,
      "hit": false,
      "t": 166115.78000000134,
      "d": 123.96700000000419,
      "v": 100
    },
    {
      "midi": 60,
      "hit": false,
      "t": 166115.78000000134,
      "d": 123.96700000000419,
      "v": 100
    },
    {
      "midi": 51,
      "hit": false,
      "t": 166363.71400000135,
      "d": 123.96700000000419,
      "v": 100
    },
    {
      "midi": 55,
      "hit": false,
      "t": 166363.71400000135,
      "d": 123.96700000000419,
      "v": 100
    },
    {
      "midi": 60,
      "hit": false,
      "t": 166363.71400000135,
      "d": 123.96700000000419,
      "v": 100
    },
    {
      "midi": 51,
      "hit": false,
      "t": 166487.68100000135,
      "d": 123.96700000000419,
      "v": 100
    },
    {
      "midi": 55,
      "hit": false,
      "t": 166487.68100000135,
      "d": 123.96700000000419,
      "v": 100
    },
    {
      "midi": 60,
      "hit": false,
      "t": 166487.68100000135,
      "d": 123.96700000000419,
      "v": 100
    },
    {
      "midi": 51,
      "hit": false,
      "t": 166735.61500000136,
      "d": 123.96700000000419,
      "v": 100
    },
    {
      "midi": 55,
      "hit": false,
      "t": 166735.61500000136,
      "d": 123.96700000000419,
      "v": 100
    },
    {
      "midi": 60,
      "hit": false,
      "t": 166735.61500000136,
      "d": 123.96700000000419,
      "v": 100
    },
    {
      "midi": 51,
      "hit": false,
      "t": 166859.58200000136,
      "d": 123.96700000000419,
      "v": 100
    },
    {
      "midi": 55,
      "hit": false,
      "t": 166859.58200000136,
      "d": 123.96700000000419,
      "v": 100
    },
    {
      "midi": 60,
      "hit": false,
      "t": 166859.58200000136,
      "d": 123.96700000000419,
      "v": 100
    },
    {
      "midi": 51,
      "hit": false,
      "t": 167107.51600000137,
      "d": 123.96700000000419,
      "v": 100
    },
    {
      "midi": 55,
      "hit": false,
      "t": 167107.51600000137,
      "d": 123.96700000000419,
      "v": 100
    },
    {
      "midi": 60,
      "hit": false,
      "t": 167107.51600000137,
      "d": 123.96700000000419,
      "v": 100
    },
    {
      "midi": 51,
      "hit": false,
      "t": 167355.45000000138,
      "d": 123.96700000000419,
      "v": 100
    },
    {
      "midi": 55,
      "hit": false,
      "t": 167355.45000000138,
      "d": 123.96700000000419,
      "v": 100
    },
    {
      "midi": 60,
      "hit": false,
      "t": 167355.45000000138,
      "d": 123.96700000000419,
      "v": 100
    },
    {
      "midi": 52,
      "hit": false,
      "t": 185454.63200000138,
      "d": 123.96700000000419,
      "v": 100
    },
    {
      "midi": 56,
      "hit": false,
      "t": 185454.63200000138,
      "d": 123.96700000000419,
      "v": 100
    },
    {
      "midi": 61,
      "hit": false,
      "t": 185454.63200000138,
      "d": 123.96700000000419,
      "v": 100
    },
    {
      "midi": 52,
      "hit": false,
      "t": 185702.5660000014,
      "d": 123.96700000000419,
      "v": 100
    },
    {
      "midi": 56,
      "hit": false,
      "t": 185702.5660000014,
      "d": 123.96700000000419,
      "v": 100
    },
    {
      "midi": 61,
      "hit": false,
      "t": 185702.5660000014,
      "d": 123.96700000000419,
      "v": 100
    },
    {
      "midi": 52,
      "hit": false,
      "t": 185950.5000000014,
      "d": 123.96700000000419,
      "v": 100
    },
    {
      "midi": 56,
      "hit": false,
      "t": 185950.5000000014,
      "d": 123.96700000000419,
      "v": 100
    },
    {
      "midi": 61,
      "hit": false,
      "t": 185950.5000000014,
      "d": 123.96700000000419,
      "v": 100
    },
    {
      "midi": 52,
      "hit": false,
      "t": 186198.4340000014,
      "d": 123.96700000000419,
      "v": 100
    },
    {
      "midi": 56,
      "hit": false,
      "t": 186198.4340000014,
      "d": 123.96700000000419,
      "v": 100
    },
    {
      "midi": 61,
      "hit": false,
      "t": 186198.4340000014,
      "d": 123.96700000000419,
      "v": 100
    },
    {
      "midi": 61,
      "hit": false,
      "t": 186322.4010000001,
      "d": 123.96700000000419,
      "v": 100
    },
    {
      "midi": 52,
      "hit": false,
      "t": 186322.4010000014,
      "d": 123.96700000000419,
      "v": 100
    },
    {
      "midi": 56,
      "hit": false,
      "t": 186322.4010000014,
      "d": 123.96700000000419,
      "v": 100
    },
    {
      "midi": 61,
      "hit": false,
      "t": 186322.4010000014,
      "d": 123.96700000000419,
      "v": 100
    },
    {
      "midi": 61,
      "hit": false,
      "t": 186570.3350000001,
      "d": 123.96700000000419,
      "v": 100
    },
    {
      "midi": 52,
      "hit": false,
      "t": 186570.33500000142,
      "d": 123.96700000000419,
      "v": 100
    },
    {
      "midi": 56,
      "hit": false,
      "t": 186570.33500000142,
      "d": 123.96700000000419,
      "v": 100
    },
    {
      "midi": 61,
      "hit": false,
      "t": 186570.33500000142,
      "d": 123.96700000000419,
      "v": 100
    },
    {
      "midi": 59,
      "hit": false,
      "t": 186694.3020000001,
      "d": 123.96700000000419,
      "v": 100
    },
    {
      "midi": 52,
      "hit": false,
      "t": 186694.30200000142,
      "d": 123.96700000000419,
      "v": 100
    },
    {
      "midi": 56,
      "hit": false,
      "t": 186694.30200000142,
      "d": 123.96700000000419,
      "v": 100
    },
    {
      "midi": 61,
      "hit": false,
      "t": 186694.30200000142,
      "d": 123.96700000000419,
      "v": 100
    },
    {
      "midi": 61,
      "hit": false,
      "t": 186942.23600000012,
      "d": 123.96700000000419,
      "v": 100
    },
    {
      "midi": 52,
      "hit": false,
      "t": 186942.23600000143,
      "d": 123.96700000000419,
      "v": 100
    },
    {
      "midi": 56,
      "hit": false,
      "t": 186942.23600000143,
      "d": 123.96700000000419,
      "v": 100
    },
    {
      "midi": 61,
      "hit": false,
      "t": 186942.23600000143,
      "d": 123.96700000000419,
      "v": 100
    },
    {
      "midi": 52,
      "hit": false,
      "t": 187190.17000000144,
      "d": 123.96700000000419,
      "v": 100
    },
    {
      "midi": 56,
      "hit": false,
      "t": 187190.17000000144,
      "d": 123.96700000000419,
      "v": 100
    },
    {
      "midi": 61,
      "hit": false,
      "t": 187190.17000000144,
      "d": 123.96700000000419,
      "v": 100
    },
    {
      "midi": 56,
      "hit": false,
      "t": 187438.10400000145,
      "d": 123.96700000000419,
      "v": 100
    },
    {
      "midi": 59,
      "hit": false,
      "t": 187438.10400000145,
      "d": 123.96700000000419,
      "v": 100
    },
    {
      "midi": 64,
      "hit": false,
      "t": 187438.10400000145,
      "d": 123.96700000000419,
      "v": 100
    },
    {
      "midi": 56,
      "hit": false,
      "t": 187686.03800000146,
      "d": 123.96700000000419,
      "v": 100
    },
    {
      "midi": 59,
      "hit": false,
      "t": 187686.03800000146,
      "d": 123.96700000000419,
      "v": 100
    },
    {
      "midi": 64,
      "hit": false,
      "t": 187686.03800000146,
      "d": 123.96700000000419,
      "v": 100
    },
    {
      "midi": 56,
      "hit": false,
      "t": 187933.97200000146,
      "d": 123.96700000000419,
      "v": 100
    },
    {
      "midi": 59,
      "hit": false,
      "t": 187933.97200000146,
      "d": 123.96700000000419,
      "v": 100
    },
    {
      "midi": 64,
      "hit": false,
      "t": 187933.97200000146,
      "d": 123.96700000000419,
      "v": 100
    },
    {
      "midi": 56,
      "hit": false,
      "t": 188181.90600000147,
      "d": 123.96700000000419,
      "v": 100
    },
    {
      "midi": 59,
      "hit": false,
      "t": 188181.90600000147,
      "d": 123.96700000000419,
      "v": 100
    },
    {
      "midi": 64,
      "hit": false,
      "t": 188181.90600000147,
      "d": 123.96700000000419,
      "v": 100
    },
    {
      "midi": 56,
      "hit": false,
      "t": 188305.87300000148,
      "d": 123.96700000000419,
      "v": 100
    },
    {
      "midi": 59,
      "hit": false,
      "t": 188305.87300000148,
      "d": 123.96700000000419,
      "v": 100
    },
    {
      "midi": 64,
      "hit": false,
      "t": 188305.87300000148,
      "d": 123.96700000000419,
      "v": 100
    },
    {
      "midi": 56,
      "hit": false,
      "t": 188553.80700000148,
      "d": 123.96700000000419,
      "v": 100
    },
    {
      "midi": 59,
      "hit": false,
      "t": 188553.80700000148,
      "d": 123.96700000000419,
      "v": 100
    },
    {
      "midi": 64,
      "hit": false,
      "t": 188553.80700000148,
      "d": 123.96700000000419,
      "v": 100
    },
    {
      "midi": 56,
      "hit": false,
      "t": 188677.7740000015,
      "d": 123.96700000000419,
      "v": 100
    },
    {
      "midi": 59,
      "hit": false,
      "t": 188677.7740000015,
      "d": 123.96700000000419,
      "v": 100
    },
    {
      "midi": 64,
      "hit": false,
      "t": 188677.7740000015,
      "d": 123.96700000000419,
      "v": 100
    },
    {
      "midi": 56,
      "hit": false,
      "t": 188925.7080000015,
      "d": 123.96700000000419,
      "v": 100
    },
    {
      "midi": 59,
      "hit": false,
      "t": 188925.7080000015,
      "d": 123.96700000000419,
      "v": 100
    },
    {
      "midi": 64,
      "hit": false,
      "t": 188925.7080000015,
      "d": 123.96700000000419,
      "v": 100
    },
    {
      "midi": 56,
      "hit": false,
      "t": 189173.6420000015,
      "d": 123.96700000000419,
      "v": 100
    },
    {
      "midi": 59,
      "hit": false,
      "t": 189173.6420000015,
      "d": 123.96700000000419,
      "v": 100
    },
    {
      "midi": 64,
      "hit": false,
      "t": 189173.6420000015,
      "d": 123.96700000000419,
      "v": 100
    },
    {
      "midi": 54,
      "hit": false,
      "t": 189421.5760000015,
      "d": 123.96700000000419,
      "v": 100
    },
    {
      "midi": 59,
      "hit": false,
      "t": 189421.5760000015,
      "d": 123.96700000000419,
      "v": 100
    },
    {
      "midi": 63,
      "hit": false,
      "t": 189421.5760000015,
      "d": 123.96700000000419,
      "v": 100
    },
    {
      "midi": 54,
      "hit": false,
      "t": 189669.51000000152,
      "d": 123.96700000000419,
      "v": 100
    },
    {
      "midi": 59,
      "hit": false,
      "t": 189669.51000000152,
      "d": 123.96700000000419,
      "v": 100
    },
    {
      "midi": 63,
      "hit": false,
      "t": 189669.51000000152,
      "d": 123.96700000000419,
      "v": 100
    },
    {
      "midi": 54,
      "hit": false,
      "t": 189917.44400000153,
      "d": 123.96700000000419,
      "v": 100
    },
    {
      "midi": 59,
      "hit": false,
      "t": 189917.44400000153,
      "d": 123.96700000000419,
      "v": 100
    },
    {
      "midi": 63,
      "hit": false,
      "t": 189917.44400000153,
      "d": 123.96700000000419,
      "v": 100
    },
    {
      "midi": 54,
      "hit": false,
      "t": 190165.37800000154,
      "d": 123.96700000000419,
      "v": 100
    },
    {
      "midi": 59,
      "hit": false,
      "t": 190165.37800000154,
      "d": 123.96700000000419,
      "v": 100
    },
    {
      "midi": 63,
      "hit": false,
      "t": 190165.37800000154,
      "d": 123.96700000000419,
      "v": 100
    },
    {
      "midi": 61,
      "hit": false,
      "t": 190289.34500000012,
      "d": 123.96700000000419,
      "v": 100
    },
    {
      "midi": 54,
      "hit": false,
      "t": 190289.34500000154,
      "d": 123.96700000000419,
      "v": 100
    },
    {
      "midi": 59,
      "hit": false,
      "t": 190289.34500000154,
      "d": 123.96700000000419,
      "v": 100
    },
    {
      "midi": 63,
      "hit": false,
      "t": 190289.34500000154,
      "d": 123.96700000000419,
      "v": 100
    },
    {
      "midi": 61,
      "hit": false,
      "t": 190537.27900000013,
      "d": 123.96700000000419,
      "v": 100
    },
    {
      "midi": 54,
      "hit": false,
      "t": 190537.27900000155,
      "d": 123.96700000000419,
      "v": 100
    },
    {
      "midi": 59,
      "hit": false,
      "t": 190537.27900000155,
      "d": 123.96700000000419,
      "v": 100
    },
    {
      "midi": 63,
      "hit": false,
      "t": 190537.27900000155,
      "d": 123.96700000000419,
      "v": 100
    },
    {
      "midi": 59,
      "hit": false,
      "t": 190661.24600000013,
      "d": 123.96700000000419,
      "v": 100
    },
    {
      "midi": 54,
      "hit": false,
      "t": 190661.24600000156,
      "d": 123.96700000000419,
      "v": 100
    },
    {
      "midi": 59,
      "hit": false,
      "t": 190661.24600000156,
      "d": 123.96700000000419,
      "v": 100
    },
    {
      "midi": 63,
      "hit": false,
      "t": 190661.24600000156,
      "d": 123.96700000000419,
      "v": 100
    },
    {
      "midi": 61,
      "hit": false,
      "t": 190909.18000000014,
      "d": 123.96700000000419,
      "v": 100
    },
    {
      "midi": 54,
      "hit": false,
      "t": 190909.18000000156,
      "d": 123.96700000000419,
      "v": 100
    },
    {
      "midi": 59,
      "hit": false,
      "t": 190909.18000000156,
      "d": 123.96700000000419,
      "v": 100
    },
    {
      "midi": 63,
      "hit": false,
      "t": 190909.18000000156,
      "d": 123.96700000000419,
      "v": 100
    },
    {
      "midi": 54,
      "hit": false,
      "t": 191157.11400000157,
      "d": 123.96700000000419,
      "v": 100
    },
    {
      "midi": 59,
      "hit": false,
      "t": 191157.11400000157,
      "d": 123.96700000000419,
      "v": 100
    },
    {
      "midi": 63,
      "hit": false,
      "t": 191157.11400000157,
      "d": 123.96700000000419,
      "v": 100
    },
    {
      "midi": 52,
      "hit": false,
      "t": 191405.04800000158,
      "d": 123.96700000000419,
      "v": 100
    },
    {
      "midi": 56,
      "hit": false,
      "t": 191405.04800000158,
      "d": 123.96700000000419,
      "v": 100
    },
    {
      "midi": 61,
      "hit": false,
      "t": 191405.04800000158,
      "d": 123.96700000000419,
      "v": 100
    },
    {
      "midi": 52,
      "hit": false,
      "t": 191652.9820000016,
      "d": 123.96700000000419,
      "v": 100
    },
    {
      "midi": 56,
      "hit": false,
      "t": 191652.9820000016,
      "d": 123.96700000000419,
      "v": 100
    },
    {
      "midi": 61,
      "hit": false,
      "t": 191652.9820000016,
      "d": 123.96700000000419,
      "v": 100
    },
    {
      "midi": 52,
      "hit": false,
      "t": 191900.9160000016,
      "d": 123.96700000000419,
      "v": 100
    },
    {
      "midi": 56,
      "hit": false,
      "t": 191900.9160000016,
      "d": 123.96700000000419,
      "v": 100
    },
    {
      "midi": 61,
      "hit": false,
      "t": 191900.9160000016,
      "d": 123.96700000000419,
      "v": 100
    },
    {
      "midi": 52,
      "hit": false,
      "t": 192148.8500000016,
      "d": 123.96700000000419,
      "v": 100
    },
    {
      "midi": 56,
      "hit": false,
      "t": 192148.8500000016,
      "d": 123.96700000000419,
      "v": 100
    },
    {
      "midi": 61,
      "hit": false,
      "t": 192148.8500000016,
      "d": 123.96700000000419,
      "v": 100
    },
    {
      "midi": 52,
      "hit": false,
      "t": 192272.8170000016,
      "d": 123.96700000000419,
      "v": 100
    },
    {
      "midi": 56,
      "hit": false,
      "t": 192272.8170000016,
      "d": 123.96700000000419,
      "v": 100
    },
    {
      "midi": 61,
      "hit": false,
      "t": 192272.8170000016,
      "d": 123.96700000000419,
      "v": 100
    },
    {
      "midi": 52,
      "hit": false,
      "t": 192520.75100000162,
      "d": 123.96700000000419,
      "v": 100
    },
    {
      "midi": 56,
      "hit": false,
      "t": 192520.75100000162,
      "d": 123.96700000000419,
      "v": 100
    },
    {
      "midi": 61,
      "hit": false,
      "t": 192520.75100000162,
      "d": 123.96700000000419,
      "v": 100
    },
    {
      "midi": 52,
      "hit": false,
      "t": 192644.71800000162,
      "d": 123.96700000000419,
      "v": 100
    },
    {
      "midi": 56,
      "hit": false,
      "t": 192644.71800000162,
      "d": 123.96700000000419,
      "v": 100
    },
    {
      "midi": 61,
      "hit": false,
      "t": 192644.71800000162,
      "d": 123.96700000000419,
      "v": 100
    },
    {
      "midi": 52,
      "hit": false,
      "t": 192892.65200000163,
      "d": 123.96700000000419,
      "v": 100
    },
    {
      "midi": 56,
      "hit": false,
      "t": 192892.65200000163,
      "d": 123.96700000000419,
      "v": 100
    },
    {
      "midi": 61,
      "hit": false,
      "t": 192892.65200000163,
      "d": 123.96700000000419,
      "v": 100
    },
    {
      "midi": 52,
      "hit": false,
      "t": 193140.58600000164,
      "d": 123.96700000000419,
      "v": 100
    },
    {
      "midi": 56,
      "hit": false,
      "t": 193140.58600000164,
      "d": 123.96700000000419,
      "v": 100
    },
    {
      "midi": 61,
      "hit": false,
      "t": 193140.58600000164,
      "d": 123.96700000000419,
      "v": 100
    },
    {
      "midi": 52,
      "hit": false,
      "t": 193388.52000000165,
      "d": 123.96700000000419,
      "v": 100
    },
    {
      "midi": 56,
      "hit": false,
      "t": 193388.52000000165,
      "d": 123.96700000000419,
      "v": 100
    },
    {
      "midi": 61,
      "hit": false,
      "t": 193388.52000000165,
      "d": 123.96700000000419,
      "v": 100
    },
    {
      "midi": 52,
      "hit": false,
      "t": 193636.45400000166,
      "d": 123.96700000000419,
      "v": 100
    },
    {
      "midi": 56,
      "hit": false,
      "t": 193636.45400000166,
      "d": 123.96700000000419,
      "v": 100
    },
    {
      "midi": 61,
      "hit": false,
      "t": 193636.45400000166,
      "d": 123.96700000000419,
      "v": 100
    },
    {
      "midi": 52,
      "hit": false,
      "t": 193884.38800000167,
      "d": 123.96700000000419,
      "v": 100
    },
    {
      "midi": 56,
      "hit": false,
      "t": 193884.38800000167,
      "d": 123.96700000000419,
      "v": 100
    },
    {
      "midi": 61,
      "hit": false,
      "t": 193884.38800000167,
      "d": 123.96700000000419,
      "v": 100
    },
    {
      "midi": 52,
      "hit": false,
      "t": 194132.32200000167,
      "d": 123.96700000000419,
      "v": 100
    },
    {
      "midi": 56,
      "hit": false,
      "t": 194132.32200000167,
      "d": 123.96700000000419,
      "v": 100
    },
    {
      "midi": 61,
      "hit": false,
      "t": 194132.32200000167,
      "d": 123.96700000000419,
      "v": 100
    },
    {
      "midi": 61,
      "hit": false,
      "t": 194256.28900000014,
      "d": 123.96700000000419,
      "v": 100
    },
    {
      "midi": 52,
      "hit": false,
      "t": 194256.28900000168,
      "d": 123.96700000000419,
      "v": 100
    },
    {
      "midi": 56,
      "hit": false,
      "t": 194256.28900000168,
      "d": 123.96700000000419,
      "v": 100
    },
    {
      "midi": 61,
      "hit": false,
      "t": 194256.28900000168,
      "d": 123.96700000000419,
      "v": 100
    },
    {
      "midi": 61,
      "hit": false,
      "t": 194504.22300000014,
      "d": 123.96700000000419,
      "v": 100
    },
    {
      "midi": 52,
      "hit": false,
      "t": 194504.2230000017,
      "d": 123.96700000000419,
      "v": 100
    },
    {
      "midi": 56,
      "hit": false,
      "t": 194504.2230000017,
      "d": 123.96700000000419,
      "v": 100
    },
    {
      "midi": 61,
      "hit": false,
      "t": 194504.2230000017,
      "d": 123.96700000000419,
      "v": 100
    },
    {
      "midi": 59,
      "hit": false,
      "t": 194628.19000000015,
      "d": 123.96700000000419,
      "v": 100
    },
    {
      "midi": 52,
      "hit": false,
      "t": 194628.1900000017,
      "d": 123.96700000000419,
      "v": 100
    },
    {
      "midi": 56,
      "hit": false,
      "t": 194628.1900000017,
      "d": 123.96700000000419,
      "v": 100
    },
    {
      "midi": 61,
      "hit": false,
      "t": 194628.1900000017,
      "d": 123.96700000000419,
      "v": 100
    },
    {
      "midi": 61,
      "hit": false,
      "t": 194876.12400000016,
      "d": 123.96700000000419,
      "v": 100
    },
    {
      "midi": 52,
      "hit": false,
      "t": 194876.1240000017,
      "d": 123.96700000000419,
      "v": 100
    },
    {
      "midi": 56,
      "hit": false,
      "t": 194876.1240000017,
      "d": 123.96700000000419,
      "v": 100
    },
    {
      "midi": 61,
      "hit": false,
      "t": 194876.1240000017,
      "d": 123.96700000000419,
      "v": 100
    },
    {
      "midi": 52,
      "hit": false,
      "t": 195124.0580000017,
      "d": 123.96700000000419,
      "v": 100
    },
    {
      "midi": 56,
      "hit": false,
      "t": 195124.0580000017,
      "d": 123.96700000000419,
      "v": 100
    },
    {
      "midi": 61,
      "hit": false,
      "t": 195124.0580000017,
      "d": 123.96700000000419,
      "v": 100
    },
    {
      "midi": 56,
      "hit": false,
      "t": 195371.99200000172,
      "d": 123.96700000000419,
      "v": 100
    },
    {
      "midi": 59,
      "hit": false,
      "t": 195371.99200000172,
      "d": 123.96700000000419,
      "v": 100
    },
    {
      "midi": 64,
      "hit": false,
      "t": 195371.99200000172,
      "d": 123.96700000000419,
      "v": 100
    },
    {
      "midi": 56,
      "hit": false,
      "t": 195619.92600000172,
      "d": 123.96700000000419,
      "v": 100
    },
    {
      "midi": 59,
      "hit": false,
      "t": 195619.92600000172,
      "d": 123.96700000000419,
      "v": 100
    },
    {
      "midi": 64,
      "hit": false,
      "t": 195619.92600000172,
      "d": 123.96700000000419,
      "v": 100
    },
    {
      "midi": 56,
      "hit": false,
      "t": 195867.86000000173,
      "d": 123.96700000000419,
      "v": 100
    },
    {
      "midi": 59,
      "hit": false,
      "t": 195867.86000000173,
      "d": 123.96700000000419,
      "v": 100
    },
    {
      "midi": 64,
      "hit": false,
      "t": 195867.86000000173,
      "d": 123.96700000000419,
      "v": 100
    },
    {
      "midi": 56,
      "hit": false,
      "t": 196115.79400000174,
      "d": 123.96700000000419,
      "v": 100
    },
    {
      "midi": 59,
      "hit": false,
      "t": 196115.79400000174,
      "d": 123.96700000000419,
      "v": 100
    },
    {
      "midi": 64,
      "hit": false,
      "t": 196115.79400000174,
      "d": 123.96700000000419,
      "v": 100
    },
    {
      "midi": 56,
      "hit": false,
      "t": 196239.76100000174,
      "d": 123.96700000000419,
      "v": 100
    },
    {
      "midi": 59,
      "hit": false,
      "t": 196239.76100000174,
      "d": 123.96700000000419,
      "v": 100
    },
    {
      "midi": 64,
      "hit": false,
      "t": 196239.76100000174,
      "d": 123.96700000000419,
      "v": 100
    },
    {
      "midi": 56,
      "hit": false,
      "t": 196487.69500000175,
      "d": 123.96700000000419,
      "v": 100
    },
    {
      "midi": 59,
      "hit": false,
      "t": 196487.69500000175,
      "d": 123.96700000000419,
      "v": 100
    },
    {
      "midi": 64,
      "hit": false,
      "t": 196487.69500000175,
      "d": 123.96700000000419,
      "v": 100
    },
    {
      "midi": 56,
      "hit": false,
      "t": 196611.66200000176,
      "d": 123.96700000000419,
      "v": 100
    },
    {
      "midi": 59,
      "hit": false,
      "t": 196611.66200000176,
      "d": 123.96700000000419,
      "v": 100
    },
    {
      "midi": 64,
      "hit": false,
      "t": 196611.66200000176,
      "d": 123.96700000000419,
      "v": 100
    },
    {
      "midi": 56,
      "hit": false,
      "t": 196859.59600000177,
      "d": 123.96700000000419,
      "v": 100
    },
    {
      "midi": 59,
      "hit": false,
      "t": 196859.59600000177,
      "d": 123.96700000000419,
      "v": 100
    },
    {
      "midi": 64,
      "hit": false,
      "t": 196859.59600000177,
      "d": 123.96700000000419,
      "v": 100
    },
    {
      "midi": 56,
      "hit": false,
      "t": 197107.53000000177,
      "d": 123.96700000000419,
      "v": 100
    },
    {
      "midi": 59,
      "hit": false,
      "t": 197107.53000000177,
      "d": 123.96700000000419,
      "v": 100
    },
    {
      "midi": 64,
      "hit": false,
      "t": 197107.53000000177,
      "d": 123.96700000000419,
      "v": 100
    },
    {
      "midi": 54,
      "hit": false,
      "t": 197355.46400000178,
      "d": 123.96700000000419,
      "v": 100
    },
    {
      "midi": 59,
      "hit": false,
      "t": 197355.46400000178,
      "d": 123.96700000000419,
      "v": 100
    },
    {
      "midi": 63,
      "hit": false,
      "t": 197355.46400000178,
      "d": 123.96700000000419,
      "v": 100
    },
    {
      "midi": 54,
      "hit": false,
      "t": 197603.3980000018,
      "d": 123.96700000000419,
      "v": 100
    },
    {
      "midi": 59,
      "hit": false,
      "t": 197603.3980000018,
      "d": 123.96700000000419,
      "v": 100
    },
    {
      "midi": 63,
      "hit": false,
      "t": 197603.3980000018,
      "d": 123.96700000000419,
      "v": 100
    },
    {
      "midi": 54,
      "hit": false,
      "t": 197851.3320000018,
      "d": 123.96700000000419,
      "v": 100
    },
    {
      "midi": 59,
      "hit": false,
      "t": 197851.3320000018,
      "d": 123.96700000000419,
      "v": 100
    },
    {
      "midi": 63,
      "hit": false,
      "t": 197851.3320000018,
      "d": 123.96700000000419,
      "v": 100
    },
    {
      "midi": 54,
      "hit": false,
      "t": 198099.2660000018,
      "d": 123.96700000000419,
      "v": 100
    },
    {
      "midi": 59,
      "hit": false,
      "t": 198099.2660000018,
      "d": 123.96700000000419,
      "v": 100
    },
    {
      "midi": 63,
      "hit": false,
      "t": 198099.2660000018,
      "d": 123.96700000000419,
      "v": 100
    },
    {
      "midi": 61,
      "hit": false,
      "t": 198223.23300000015,
      "d": 123.96700000000419,
      "v": 100
    },
    {
      "midi": 54,
      "hit": false,
      "t": 198223.2330000018,
      "d": 123.96700000000419,
      "v": 100
    },
    {
      "midi": 59,
      "hit": false,
      "t": 198223.2330000018,
      "d": 123.96700000000419,
      "v": 100
    },
    {
      "midi": 63,
      "hit": false,
      "t": 198223.2330000018,
      "d": 123.96700000000419,
      "v": 100
    },
    {
      "midi": 61,
      "hit": false,
      "t": 198471.16700000016,
      "d": 123.96700000000419,
      "v": 100
    },
    {
      "midi": 54,
      "hit": false,
      "t": 198471.16700000182,
      "d": 123.96700000000419,
      "v": 100
    },
    {
      "midi": 59,
      "hit": false,
      "t": 198471.16700000182,
      "d": 123.96700000000419,
      "v": 100
    },
    {
      "midi": 63,
      "hit": false,
      "t": 198471.16700000182,
      "d": 123.96700000000419,
      "v": 100
    },
    {
      "midi": 59,
      "hit": false,
      "t": 198595.13400000017,
      "d": 123.96700000000419,
      "v": 100
    },
    {
      "midi": 54,
      "hit": false,
      "t": 198595.13400000182,
      "d": 123.96700000000419,
      "v": 100
    },
    {
      "midi": 59,
      "hit": false,
      "t": 198595.13400000182,
      "d": 123.96700000000419,
      "v": 100
    },
    {
      "midi": 63,
      "hit": false,
      "t": 198595.13400000182,
      "d": 123.96700000000419,
      "v": 100
    },
    {
      "midi": 61,
      "hit": false,
      "t": 198843.06800000017,
      "d": 123.96700000000419,
      "v": 100
    },
    {
      "midi": 54,
      "hit": false,
      "t": 198843.06800000183,
      "d": 123.96700000000419,
      "v": 100
    },
    {
      "midi": 59,
      "hit": false,
      "t": 198843.06800000183,
      "d": 123.96700000000419,
      "v": 100
    },
    {
      "midi": 63,
      "hit": false,
      "t": 198843.06800000183,
      "d": 123.96700000000419,
      "v": 100
    },
    {
      "midi": 54,
      "hit": false,
      "t": 199091.00200000184,
      "d": 123.96700000000419,
      "v": 100
    },
    {
      "midi": 59,
      "hit": false,
      "t": 199091.00200000184,
      "d": 123.96700000000419,
      "v": 100
    },
    {
      "midi": 63,
      "hit": false,
      "t": 199091.00200000184,
      "d": 123.96700000000419,
      "v": 100
    },
    {
      "midi": 52,
      "hit": false,
      "t": 199338.93600000185,
      "d": 123.96700000000419,
      "v": 100
    },
    {
      "midi": 56,
      "hit": false,
      "t": 199338.93600000185,
      "d": 123.96700000000419,
      "v": 100
    },
    {
      "midi": 61,
      "hit": false,
      "t": 199338.93600000185,
      "d": 123.96700000000419,
      "v": 100
    },
    {
      "midi": 52,
      "hit": false,
      "t": 199586.87000000186,
      "d": 123.96700000000419,
      "v": 100
    },
    {
      "midi": 56,
      "hit": false,
      "t": 199586.87000000186,
      "d": 123.96700000000419,
      "v": 100
    },
    {
      "midi": 61,
      "hit": false,
      "t": 199586.87000000186,
      "d": 123.96700000000419,
      "v": 100
    },
    {
      "midi": 52,
      "hit": false,
      "t": 199834.80400000187,
      "d": 123.96700000000419,
      "v": 100
    },
    {
      "midi": 56,
      "hit": false,
      "t": 199834.80400000187,
      "d": 123.96700000000419,
      "v": 100
    },
    {
      "midi": 61,
      "hit": false,
      "t": 199834.80400000187,
      "d": 123.96700000000419,
      "v": 100
    },
    {
      "midi": 52,
      "hit": false,
      "t": 200082.73800000187,
      "d": 123.96700000000419,
      "v": 100
    },
    {
      "midi": 56,
      "hit": false,
      "t": 200082.73800000187,
      "d": 123.96700000000419,
      "v": 100
    },
    {
      "midi": 61,
      "hit": false,
      "t": 200082.73800000187,
      "d": 123.96700000000419,
      "v": 100
    },
    {
      "midi": 52,
      "hit": false,
      "t": 200206.70500000188,
      "d": 123.96700000000419,
      "v": 100
    },
    {
      "midi": 56,
      "hit": false,
      "t": 200206.70500000188,
      "d": 123.96700000000419,
      "v": 100
    },
    {
      "midi": 61,
      "hit": false,
      "t": 200206.70500000188,
      "d": 123.96700000000419,
      "v": 100
    },
    {
      "midi": 52,
      "hit": false,
      "t": 200454.6390000019,
      "d": 123.96700000000419,
      "v": 100
    },
    {
      "midi": 56,
      "hit": false,
      "t": 200454.6390000019,
      "d": 123.96700000000419,
      "v": 100
    },
    {
      "midi": 61,
      "hit": false,
      "t": 200454.6390000019,
      "d": 123.96700000000419,
      "v": 100
    },
    {
      "midi": 52,
      "hit": false,
      "t": 200578.6060000019,
      "d": 123.96700000000419,
      "v": 100
    },
    {
      "midi": 56,
      "hit": false,
      "t": 200578.6060000019,
      "d": 123.96700000000419,
      "v": 100
    },
    {
      "midi": 61,
      "hit": false,
      "t": 200578.6060000019,
      "d": 123.96700000000419,
      "v": 100
    },
    {
      "midi": 52,
      "hit": false,
      "t": 200826.5400000019,
      "d": 123.96700000000419,
      "v": 100
    },
    {
      "midi": 56,
      "hit": false,
      "t": 200826.5400000019,
      "d": 123.96700000000419,
      "v": 100
    },
    {
      "midi": 61,
      "hit": false,
      "t": 200826.5400000019,
      "d": 123.96700000000419,
      "v": 100
    },
    {
      "midi": 52,
      "hit": false,
      "t": 201074.4740000019,
      "d": 123.96700000000419,
      "v": 100
    },
    {
      "midi": 56,
      "hit": false,
      "t": 201074.4740000019,
      "d": 123.96700000000419,
      "v": 100
    },
    {
      "midi": 61,
      "hit": false,
      "t": 201074.4740000019,
      "d": 123.96700000000419,
      "v": 100
    },
    {
      "midi": 52,
      "hit": false,
      "t": 201322.40800000192,
      "d": 123.96700000000419,
      "v": 100
    },
    {
      "midi": 56,
      "hit": false,
      "t": 201322.40800000192,
      "d": 123.96700000000419,
      "v": 100
    },
    {
      "midi": 61,
      "hit": false,
      "t": 201322.40800000192,
      "d": 123.96700000000419,
      "v": 100
    },
    {
      "midi": 52,
      "hit": false,
      "t": 201570.34200000193,
      "d": 123.96700000000419,
      "v": 100
    },
    {
      "midi": 56,
      "hit": false,
      "t": 201570.34200000193,
      "d": 123.96700000000419,
      "v": 100
    },
    {
      "midi": 61,
      "hit": false,
      "t": 201570.34200000193,
      "d": 123.96700000000419,
      "v": 100
    },
    {
      "midi": 52,
      "hit": false,
      "t": 201818.27600000193,
      "d": 123.96700000000419,
      "v": 100
    },
    {
      "midi": 56,
      "hit": false,
      "t": 201818.27600000193,
      "d": 123.96700000000419,
      "v": 100
    },
    {
      "midi": 61,
      "hit": false,
      "t": 201818.27600000193,
      "d": 123.96700000000419,
      "v": 100
    },
    {
      "midi": 52,
      "hit": false,
      "t": 202066.21000000194,
      "d": 123.96700000000419,
      "v": 100
    },
    {
      "midi": 56,
      "hit": false,
      "t": 202066.21000000194,
      "d": 123.96700000000419,
      "v": 100
    },
    {
      "midi": 61,
      "hit": false,
      "t": 202066.21000000194,
      "d": 123.96700000000419,
      "v": 100
    },
    {
      "midi": 61,
      "hit": false,
      "t": 202190.17700000017,
      "d": 123.96700000000419,
      "v": 100
    },
    {
      "midi": 52,
      "hit": false,
      "t": 202190.17700000195,
      "d": 123.96700000000419,
      "v": 100
    },
    {
      "midi": 56,
      "hit": false,
      "t": 202190.17700000195,
      "d": 123.96700000000419,
      "v": 100
    },
    {
      "midi": 61,
      "hit": false,
      "t": 202190.17700000195,
      "d": 123.96700000000419,
      "v": 100
    },
    {
      "midi": 61,
      "hit": false,
      "t": 202438.11100000018,
      "d": 123.96700000000419,
      "v": 100
    },
    {
      "midi": 52,
      "hit": false,
      "t": 202438.11100000195,
      "d": 123.96700000000419,
      "v": 100
    },
    {
      "midi": 56,
      "hit": false,
      "t": 202438.11100000195,
      "d": 123.96700000000419,
      "v": 100
    },
    {
      "midi": 61,
      "hit": false,
      "t": 202438.11100000195,
      "d": 123.96700000000419,
      "v": 100
    },
    {
      "midi": 59,
      "hit": false,
      "t": 202562.07800000018,
      "d": 123.96700000000419,
      "v": 100
    },
    {
      "midi": 52,
      "hit": false,
      "t": 202562.07800000196,
      "d": 123.96700000000419,
      "v": 100
    },
    {
      "midi": 56,
      "hit": false,
      "t": 202562.07800000196,
      "d": 123.96700000000419,
      "v": 100
    },
    {
      "midi": 61,
      "hit": false,
      "t": 202562.07800000196,
      "d": 123.96700000000419,
      "v": 100
    },
    {
      "midi": 61,
      "hit": false,
      "t": 202810.0120000002,
      "d": 123.96700000000419,
      "v": 100
    },
    {
      "midi": 52,
      "hit": false,
      "t": 202810.01200000197,
      "d": 123.96700000000419,
      "v": 100
    },
    {
      "midi": 56,
      "hit": false,
      "t": 202810.01200000197,
      "d": 123.96700000000419,
      "v": 100
    },
    {
      "midi": 61,
      "hit": false,
      "t": 202810.01200000197,
      "d": 123.96700000000419,
      "v": 100
    },
    {
      "midi": 52,
      "hit": false,
      "t": 203057.94600000198,
      "d": 123.96700000000419,
      "v": 100
    },
    {
      "midi": 56,
      "hit": false,
      "t": 203057.94600000198,
      "d": 123.96700000000419,
      "v": 100
    },
    {
      "midi": 61,
      "hit": false,
      "t": 203057.94600000198,
      "d": 123.96700000000419,
      "v": 100
    },
    {
      "midi": 56,
      "hit": false,
      "t": 203305.88000000198,
      "d": 123.96700000000419,
      "v": 100
    },
    {
      "midi": 59,
      "hit": false,
      "t": 203305.88000000198,
      "d": 123.96700000000419,
      "v": 100
    },
    {
      "midi": 64,
      "hit": false,
      "t": 203305.88000000198,
      "d": 123.96700000000419,
      "v": 100
    },
    {
      "midi": 56,
      "hit": false,
      "t": 203553.814000002,
      "d": 123.96700000000419,
      "v": 100
    },
    {
      "midi": 59,
      "hit": false,
      "t": 203553.814000002,
      "d": 123.96700000000419,
      "v": 100
    },
    {
      "midi": 64,
      "hit": false,
      "t": 203553.814000002,
      "d": 123.96700000000419,
      "v": 100
    },
    {
      "midi": 56,
      "hit": false,
      "t": 203801.748000002,
      "d": 123.96700000000419,
      "v": 100
    },
    {
      "midi": 59,
      "hit": false,
      "t": 203801.748000002,
      "d": 123.96700000000419,
      "v": 100
    },
    {
      "midi": 64,
      "hit": false,
      "t": 203801.748000002,
      "d": 123.96700000000419,
      "v": 100
    },
    {
      "midi": 56,
      "hit": false,
      "t": 204049.682000002,
      "d": 123.96700000000419,
      "v": 100
    },
    {
      "midi": 59,
      "hit": false,
      "t": 204049.682000002,
      "d": 123.96700000000419,
      "v": 100
    },
    {
      "midi": 64,
      "hit": false,
      "t": 204049.682000002,
      "d": 123.96700000000419,
      "v": 100
    },
    {
      "midi": 56,
      "hit": false,
      "t": 204173.649000002,
      "d": 123.96700000000419,
      "v": 100
    },
    {
      "midi": 59,
      "hit": false,
      "t": 204173.649000002,
      "d": 123.96700000000419,
      "v": 100
    },
    {
      "midi": 64,
      "hit": false,
      "t": 204173.649000002,
      "d": 123.96700000000419,
      "v": 100
    },
    {
      "midi": 56,
      "hit": false,
      "t": 204421.58300000202,
      "d": 123.96700000000419,
      "v": 100
    },
    {
      "midi": 59,
      "hit": false,
      "t": 204421.58300000202,
      "d": 123.96700000000419,
      "v": 100
    },
    {
      "midi": 64,
      "hit": false,
      "t": 204421.58300000202,
      "d": 123.96700000000419,
      "v": 100
    },
    {
      "midi": 56,
      "hit": false,
      "t": 204545.55000000203,
      "d": 123.96700000000419,
      "v": 100
    },
    {
      "midi": 59,
      "hit": false,
      "t": 204545.55000000203,
      "d": 123.96700000000419,
      "v": 100
    },
    {
      "midi": 64,
      "hit": false,
      "t": 204545.55000000203,
      "d": 123.96700000000419,
      "v": 100
    },
    {
      "midi": 56,
      "hit": false,
      "t": 204793.48400000203,
      "d": 123.96700000000419,
      "v": 100
    },
    {
      "midi": 59,
      "hit": false,
      "t": 204793.48400000203,
      "d": 123.96700000000419,
      "v": 100
    },
    {
      "midi": 64,
      "hit": false,
      "t": 204793.48400000203,
      "d": 123.96700000000419,
      "v": 100
    },
    {
      "midi": 56,
      "hit": false,
      "t": 205041.41800000204,
      "d": 123.96700000000419,
      "v": 100
    },
    {
      "midi": 59,
      "hit": false,
      "t": 205041.41800000204,
      "d": 123.96700000000419,
      "v": 100
    },
    {
      "midi": 64,
      "hit": false,
      "t": 205041.41800000204,
      "d": 123.96700000000419,
      "v": 100
    },
    {
      "midi": 54,
      "hit": false,
      "t": 205289.35200000205,
      "d": 123.96700000000419,
      "v": 100
    },
    {
      "midi": 59,
      "hit": false,
      "t": 205289.35200000205,
      "d": 123.96700000000419,
      "v": 100
    },
    {
      "midi": 63,
      "hit": false,
      "t": 205289.35200000205,
      "d": 123.96700000000419,
      "v": 100
    },
    {
      "midi": 54,
      "hit": false,
      "t": 205537.28600000206,
      "d": 123.96700000000419,
      "v": 100
    },
    {
      "midi": 59,
      "hit": false,
      "t": 205537.28600000206,
      "d": 123.96700000000419,
      "v": 100
    },
    {
      "midi": 63,
      "hit": false,
      "t": 205537.28600000206,
      "d": 123.96700000000419,
      "v": 100
    },
    {
      "midi": 54,
      "hit": false,
      "t": 205785.22000000207,
      "d": 123.96700000000419,
      "v": 100
    },
    {
      "midi": 59,
      "hit": false,
      "t": 205785.22000000207,
      "d": 123.96700000000419,
      "v": 100
    },
    {
      "midi": 63,
      "hit": false,
      "t": 205785.22000000207,
      "d": 123.96700000000419,
      "v": 100
    },
    {
      "midi": 54,
      "hit": false,
      "t": 206033.15400000208,
      "d": 123.96700000000419,
      "v": 100
    },
    {
      "midi": 59,
      "hit": false,
      "t": 206033.15400000208,
      "d": 123.96700000000419,
      "v": 100
    },
    {
      "midi": 63,
      "hit": false,
      "t": 206033.15400000208,
      "d": 123.96700000000419,
      "v": 100
    },
    {
      "midi": 61,
      "hit": false,
      "t": 206157.1210000002,
      "d": 123.96700000000419,
      "v": 100
    },
    {
      "midi": 54,
      "hit": false,
      "t": 206157.12100000208,
      "d": 123.96700000000419,
      "v": 100
    },
    {
      "midi": 59,
      "hit": false,
      "t": 206157.12100000208,
      "d": 123.96700000000419,
      "v": 100
    },
    {
      "midi": 63,
      "hit": false,
      "t": 206157.12100000208,
      "d": 123.96700000000419,
      "v": 100
    },
    {
      "midi": 61,
      "hit": false,
      "t": 206405.0550000002,
      "d": 123.96700000000419,
      "v": 100
    },
    {
      "midi": 54,
      "hit": false,
      "t": 206405.0550000021,
      "d": 123.96700000000419,
      "v": 100
    },
    {
      "midi": 59,
      "hit": false,
      "t": 206405.0550000021,
      "d": 123.96700000000419,
      "v": 100
    },
    {
      "midi": 63,
      "hit": false,
      "t": 206405.0550000021,
      "d": 123.96700000000419,
      "v": 100
    },
    {
      "midi": 59,
      "hit": false,
      "t": 206529.0220000002,
      "d": 123.96700000000419,
      "v": 100
    },
    {
      "midi": 54,
      "hit": false,
      "t": 206529.0220000021,
      "d": 123.96700000000419,
      "v": 100
    },
    {
      "midi": 59,
      "hit": false,
      "t": 206529.0220000021,
      "d": 123.96700000000419,
      "v": 100
    },
    {
      "midi": 63,
      "hit": false,
      "t": 206529.0220000021,
      "d": 123.96700000000419,
      "v": 100
    },
    {
      "midi": 61,
      "hit": false,
      "t": 206776.9560000002,
      "d": 123.96700000000419,
      "v": 100
    },
    {
      "midi": 54,
      "hit": false,
      "t": 206776.9560000021,
      "d": 123.96700000000419,
      "v": 100
    },
    {
      "midi": 59,
      "hit": false,
      "t": 206776.9560000021,
      "d": 123.96700000000419,
      "v": 100
    },
    {
      "midi": 63,
      "hit": false,
      "t": 206776.9560000021,
      "d": 123.96700000000419,
      "v": 100
    },
    {
      "midi": 54,
      "hit": false,
      "t": 207024.8900000021,
      "d": 123.96700000000419,
      "v": 100
    },
    {
      "midi": 59,
      "hit": false,
      "t": 207024.8900000021,
      "d": 123.96700000000419,
      "v": 100
    },
    {
      "midi": 63,
      "hit": false,
      "t": 207024.8900000021,
      "d": 123.96700000000419,
      "v": 100
    },
    {
      "midi": 52,
      "hit": false,
      "t": 207272.82400000212,
      "d": 123.96700000000419,
      "v": 100
    },
    {
      "midi": 56,
      "hit": false,
      "t": 207272.82400000212,
      "d": 123.96700000000419,
      "v": 100
    },
    {
      "midi": 61,
      "hit": false,
      "t": 207272.82400000212,
      "d": 123.96700000000419,
      "v": 100
    },
    {
      "midi": 52,
      "hit": false,
      "t": 207520.75800000213,
      "d": 123.96700000000419,
      "v": 100
    },
    {
      "midi": 56,
      "hit": false,
      "t": 207520.75800000213,
      "d": 123.96700000000419,
      "v": 100
    },
    {
      "midi": 61,
      "hit": false,
      "t": 207520.75800000213,
      "d": 123.96700000000419,
      "v": 100
    },
    {
      "midi": 52,
      "hit": false,
      "t": 207768.69200000213,
      "d": 123.96700000000419,
      "v": 100
    },
    {
      "midi": 56,
      "hit": false,
      "t": 207768.69200000213,
      "d": 123.96700000000419,
      "v": 100
    },
    {
      "midi": 61,
      "hit": false,
      "t": 207768.69200000213,
      "d": 123.96700000000419,
      "v": 100
    },
    {
      "midi": 52,
      "hit": false,
      "t": 208016.62600000214,
      "d": 123.96700000000419,
      "v": 100
    },
    {
      "midi": 56,
      "hit": false,
      "t": 208016.62600000214,
      "d": 123.96700000000419,
      "v": 100
    },
    {
      "midi": 61,
      "hit": false,
      "t": 208016.62600000214,
      "d": 123.96700000000419,
      "v": 100
    },
    {
      "midi": 52,
      "hit": false,
      "t": 208140.59300000215,
      "d": 123.96700000000419,
      "v": 100
    },
    {
      "midi": 56,
      "hit": false,
      "t": 208140.59300000215,
      "d": 123.96700000000419,
      "v": 100
    },
    {
      "midi": 61,
      "hit": false,
      "t": 208140.59300000215,
      "d": 123.96700000000419,
      "v": 100
    },
    {
      "midi": 52,
      "hit": false,
      "t": 208388.52700000216,
      "d": 123.96700000000419,
      "v": 100
    },
    {
      "midi": 56,
      "hit": false,
      "t": 208388.52700000216,
      "d": 123.96700000000419,
      "v": 100
    },
    {
      "midi": 61,
      "hit": false,
      "t": 208388.52700000216,
      "d": 123.96700000000419,
      "v": 100
    },
    {
      "midi": 52,
      "hit": false,
      "t": 208512.49400000216,
      "d": 123.96700000000419,
      "v": 100
    },
    {
      "midi": 56,
      "hit": false,
      "t": 208512.49400000216,
      "d": 123.96700000000419,
      "v": 100
    },
    {
      "midi": 61,
      "hit": false,
      "t": 208512.49400000216,
      "d": 123.96700000000419,
      "v": 100
    },
    {
      "midi": 52,
      "hit": false,
      "t": 208760.42800000217,
      "d": 123.96700000000419,
      "v": 100
    },
    {
      "midi": 56,
      "hit": false,
      "t": 208760.42800000217,
      "d": 123.96700000000419,
      "v": 100
    },
    {
      "midi": 61,
      "hit": false,
      "t": 208760.42800000217,
      "d": 123.96700000000419,
      "v": 100
    },
    {
      "midi": 52,
      "hit": false,
      "t": 209008.36200000218,
      "d": 123.96700000000419,
      "v": 100
    },
    {
      "midi": 56,
      "hit": false,
      "t": 209008.36200000218,
      "d": 123.96700000000419,
      "v": 100
    },
    {
      "midi": 61,
      "hit": false,
      "t": 209008.36200000218,
      "d": 123.96700000000419,
      "v": 100
    },
    {
      "midi": 56,
      "hit": false,
      "t": 209256.29600000218,
      "d": 123.96700000000419,
      "v": 100
    },
    {
      "midi": 59,
      "hit": false,
      "t": 209256.29600000218,
      "d": 123.96700000000419,
      "v": 100
    },
    {
      "midi": 64,
      "hit": false,
      "t": 209256.29600000218,
      "d": 123.96700000000419,
      "v": 100
    },
    {
      "midi": 56,
      "hit": false,
      "t": 209495.96553333552,
      "d": 123.96700000000419,
      "v": 100
    },
    {
      "midi": 59,
      "hit": false,
      "t": 209495.96553333552,
      "d": 123.96700000000419,
      "v": 100
    },
    {
      "midi": 64,
      "hit": false,
      "t": 209495.96553333552,
      "d": 123.96700000000419,
      "v": 100
    },
    {
      "midi": 56,
      "hit": false,
      "t": 209743.89953333553,
      "d": 123.96700000000419,
      "v": 100
    },
    {
      "midi": 59,
      "hit": false,
      "t": 209743.89953333553,
      "d": 123.96700000000419,
      "v": 100
    },
    {
      "midi": 64,
      "hit": false,
      "t": 209743.89953333553,
      "d": 123.96700000000419,
      "v": 100
    },
    {
      "midi": 56,
      "hit": false,
      "t": 209991.83353333554,
      "d": 123.96700000000419,
      "v": 100
    },
    {
      "midi": 59,
      "hit": false,
      "t": 209991.83353333554,
      "d": 123.96700000000419,
      "v": 100
    },
    {
      "midi": 64,
      "hit": false,
      "t": 209991.83353333554,
      "d": 123.96700000000419,
      "v": 100
    },
    {
      "midi": 56,
      "hit": false,
      "t": 210115.80053333554,
      "d": 123.96700000000419,
      "v": 100
    },
    {
      "midi": 59,
      "hit": false,
      "t": 210115.80053333554,
      "d": 123.96700000000419,
      "v": 100
    },
    {
      "midi": 64,
      "hit": false,
      "t": 210115.80053333554,
      "d": 123.96700000000419,
      "v": 100
    },
    {
      "midi": 56,
      "hit": false,
      "t": 210363.73453333555,
      "d": 123.96700000000419,
      "v": 100
    },
    {
      "midi": 59,
      "hit": false,
      "t": 210363.73453333555,
      "d": 123.96700000000419,
      "v": 100
    },
    {
      "midi": 64,
      "hit": false,
      "t": 210363.73453333555,
      "d": 123.96700000000419,
      "v": 100
    },
    {
      "midi": 56,
      "hit": false,
      "t": 210487.70153333555,
      "d": 123.96700000000419,
      "v": 100
    },
    {
      "midi": 59,
      "hit": false,
      "t": 210487.70153333555,
      "d": 123.96700000000419,
      "v": 100
    },
    {
      "midi": 64,
      "hit": false,
      "t": 210487.70153333555,
      "d": 123.96700000000419,
      "v": 100
    },
    {
      "midi": 56,
      "hit": false,
      "t": 210735.63553333556,
      "d": 123.96700000000419,
      "v": 100
    },
    {
      "midi": 59,
      "hit": false,
      "t": 210735.63553333556,
      "d": 123.96700000000419,
      "v": 100
    },
    {
      "midi": 64,
      "hit": false,
      "t": 210735.63553333556,
      "d": 123.96700000000419,
      "v": 100
    },
    {
      "midi": 56,
      "hit": false,
      "t": 210983.56953333557,
      "d": 123.96700000000419,
      "v": 100
    },
    {
      "midi": 59,
      "hit": false,
      "t": 210983.56953333557,
      "d": 123.96700000000419,
      "v": 100
    },
    {
      "midi": 64,
      "hit": false,
      "t": 210983.56953333557,
      "d": 123.96700000000419,
      "v": 100
    },
    {
      "midi": 54,
      "hit": false,
      "t": 211231.50353333558,
      "d": 123.96700000000419,
      "v": 100
    },
    {
      "midi": 59,
      "hit": false,
      "t": 211231.50353333558,
      "d": 123.96700000000419,
      "v": 100
    },
    {
      "midi": 63,
      "hit": false,
      "t": 211231.50353333558,
      "d": 123.96700000000419,
      "v": 100
    },
    {
      "midi": 54,
      "hit": false,
      "t": 211479.4375333356,
      "d": 123.96700000000419,
      "v": 100
    },
    {
      "midi": 59,
      "hit": false,
      "t": 211479.4375333356,
      "d": 123.96700000000419,
      "v": 100
    },
    {
      "midi": 63,
      "hit": false,
      "t": 211479.4375333356,
      "d": 123.96700000000419,
      "v": 100
    },
    {
      "midi": 54,
      "hit": false,
      "t": 211727.3715333356,
      "d": 123.96700000000419,
      "v": 100
    },
    {
      "midi": 59,
      "hit": false,
      "t": 211727.3715333356,
      "d": 123.96700000000419,
      "v": 100
    },
    {
      "midi": 63,
      "hit": false,
      "t": 211727.3715333356,
      "d": 123.96700000000419,
      "v": 100
    },
    {
      "midi": 54,
      "hit": false,
      "t": 211975.3055333356,
      "d": 123.96700000000419,
      "v": 100
    },
    {
      "midi": 59,
      "hit": false,
      "t": 211975.3055333356,
      "d": 123.96700000000419,
      "v": 100
    },
    {
      "midi": 63,
      "hit": false,
      "t": 211975.3055333356,
      "d": 123.96700000000419,
      "v": 100
    },
    {
      "midi": 61,
      "hit": false,
      "t": 212099.27253333354,
      "d": 123.96700000000419,
      "v": 100
    },
    {
      "midi": 54,
      "hit": false,
      "t": 212099.2725333356,
      "d": 123.96700000000419,
      "v": 100
    },
    {
      "midi": 59,
      "hit": false,
      "t": 212099.2725333356,
      "d": 123.96700000000419,
      "v": 100
    },
    {
      "midi": 63,
      "hit": false,
      "t": 212099.2725333356,
      "d": 123.96700000000419,
      "v": 100
    },
    {
      "midi": 61,
      "hit": false,
      "t": 212347.20653333355,
      "d": 123.96700000000419,
      "v": 100
    },
    {
      "midi": 54,
      "hit": false,
      "t": 212347.20653333561,
      "d": 123.96700000000419,
      "v": 100
    },
    {
      "midi": 59,
      "hit": false,
      "t": 212347.20653333561,
      "d": 123.96700000000419,
      "v": 100
    },
    {
      "midi": 63,
      "hit": false,
      "t": 212347.20653333561,
      "d": 123.96700000000419,
      "v": 100
    },
    {
      "midi": 59,
      "hit": false,
      "t": 212471.17353333355,
      "d": 123.96700000000419,
      "v": 100
    },
    {
      "midi": 54,
      "hit": false,
      "t": 212471.17353333562,
      "d": 123.96700000000419,
      "v": 100
    },
    {
      "midi": 59,
      "hit": false,
      "t": 212471.17353333562,
      "d": 123.96700000000419,
      "v": 100
    },
    {
      "midi": 63,
      "hit": false,
      "t": 212471.17353333562,
      "d": 123.96700000000419,
      "v": 100
    },
    {
      "midi": 61,
      "hit": false,
      "t": 212719.10753333356,
      "d": 123.96700000000419,
      "v": 100
    },
    {
      "midi": 54,
      "hit": false,
      "t": 212719.10753333563,
      "d": 123.96700000000419,
      "v": 100
    },
    {
      "midi": 59,
      "hit": false,
      "t": 212719.10753333563,
      "d": 123.96700000000419,
      "v": 100
    },
    {
      "midi": 63,
      "hit": false,
      "t": 212719.10753333563,
      "d": 123.96700000000419,
      "v": 100
    },
    {
      "midi": 54,
      "hit": false,
      "t": 212967.04153333564,
      "d": 123.96700000000419,
      "v": 100
    },
    {
      "midi": 59,
      "hit": false,
      "t": 212967.04153333564,
      "d": 123.96700000000419,
      "v": 100
    },
    {
      "midi": 63,
      "hit": false,
      "t": 212967.04153333564,
      "d": 123.96700000000419,
      "v": 100
    },
    {
      "midi": 49,
      "hit": false,
      "t": 213223.24000000232,
      "d": 123.96700000000419,
      "v": 100
    },
    {
      "midi": 52,
      "hit": false,
      "t": 213223.24000000232,
      "d": 123.96700000000419,
      "v": 100
    },
    {
      "midi": 56,
      "hit": false,
      "t": 213223.24000000232,
      "d": 123.96700000000419,
      "v": 100
    },
    {
      "midi": 61,
      "hit": false,
      "t": 213223.24000000232,
      "d": 123.96700000000419,
      "v": 100
    },
    {
      "midi": 49,
      "hit": false,
      "t": 213347.20700000232,
      "d": 123.96700000000419,
      "v": 100
    },
    {
      "midi": 52,
      "hit": false,
      "t": 213347.20700000232,
      "d": 123.96700000000419,
      "v": 100
    },
    {
      "midi": 56,
      "hit": false,
      "t": 213347.20700000232,
      "d": 123.96700000000419,
      "v": 100
    },
    {
      "midi": 61,
      "hit": false,
      "t": 213347.20700000232,
      "d": 123.96700000000419,
      "v": 100
    },
    {
      "midi": 49,
      "hit": false,
      "t": 213719.10800000234,
      "d": 123.96700000000419,
      "v": 100
    },
    {
      "midi": 52,
      "hit": false,
      "t": 213719.10800000234,
      "d": 123.96700000000419,
      "v": 100
    },
    {
      "midi": 56,
      "hit": false,
      "t": 213719.10800000234,
      "d": 123.96700000000419,
      "v": 100
    },
    {
      "midi": 61,
      "hit": false,
      "t": 213719.10800000234,
      "d": 123.96700000000419,
      "v": 100
    },
    {
      "midi": 49,
      "hit": false,
      "t": 213843.07500000234,
      "d": 123.96700000000419,
      "v": 100
    },
    {
      "midi": 52,
      "hit": false,
      "t": 213843.07500000234,
      "d": 123.96700000000419,
      "v": 100
    },
    {
      "midi": 56,
      "hit": false,
      "t": 213843.07500000234,
      "d": 123.96700000000419,
      "v": 100
    },
    {
      "midi": 61,
      "hit": false,
      "t": 213843.07500000234,
      "d": 123.96700000000419,
      "v": 100
    },
    {
      "midi": 49,
      "hit": false,
      "t": 214214.97600000235,
      "d": 123.96700000000419,
      "v": 100
    },
    {
      "midi": 52,
      "hit": false,
      "t": 214214.97600000235,
      "d": 123.96700000000419,
      "v": 100
    },
    {
      "midi": 56,
      "hit": false,
      "t": 214214.97600000235,
      "d": 123.96700000000419,
      "v": 100
    },
    {
      "midi": 61,
      "hit": false,
      "t": 214214.97600000235,
      "d": 123.96700000000419,
      "v": 100
    },
    {
      "midi": 49,
      "hit": false,
      "t": 214338.94300000236,
      "d": 123.96700000000419,
      "v": 100
    },
    {
      "midi": 52,
      "hit": false,
      "t": 214338.94300000236,
      "d": 123.96700000000419,
      "v": 100
    },
    {
      "midi": 56,
      "hit": false,
      "t": 214338.94300000236,
      "d": 123.96700000000419,
      "v": 100
    },
    {
      "midi": 61,
      "hit": false,
      "t": 214338.94300000236,
      "d": 123.96700000000419,
      "v": 100
    },
    {
      "midi": 49,
      "hit": false,
      "t": 214710.84400000237,
      "d": 123.96700000000419,
      "v": 100
    },
    {
      "midi": 52,
      "hit": false,
      "t": 214710.84400000237,
      "d": 123.96700000000419,
      "v": 100
    },
    {
      "midi": 56,
      "hit": false,
      "t": 214710.84400000237,
      "d": 123.96700000000419,
      "v": 100
    },
    {
      "midi": 61,
      "hit": false,
      "t": 214710.84400000237,
      "d": 123.96700000000419,
      "v": 100
    },
    {
      "midi": 49,
      "hit": false,
      "t": 214834.81100000237,
      "d": 123.96700000000419,
      "v": 100
    },
    {
      "midi": 52,
      "hit": false,
      "t": 214834.81100000237,
      "d": 123.96700000000419,
      "v": 100
    },
    {
      "midi": 56,
      "hit": false,
      "t": 214834.81100000237,
      "d": 123.96700000000419,
      "v": 100
    },
    {
      "midi": 61,
      "hit": false,
      "t": 214834.81100000237,
      "d": 123.96700000000419,
      "v": 100
    },
    {
      "midi": 49,
      "hit": false,
      "t": 215206.7120000024,
      "d": 123.96700000000419,
      "v": 100
    },
    {
      "midi": 52,
      "hit": false,
      "t": 215206.7120000024,
      "d": 123.96700000000419,
      "v": 100
    },
    {
      "midi": 56,
      "hit": false,
      "t": 215206.7120000024,
      "d": 123.96700000000419,
      "v": 100
    },
    {
      "midi": 61,
      "hit": false,
      "t": 215206.7120000024,
      "d": 123.96700000000419,
      "v": 100
    },
    {
      "midi": 49,
      "hit": false,
      "t": 215330.6790000024,
      "d": 123.96700000000419,
      "v": 100
    },
    {
      "midi": 52,
      "hit": false,
      "t": 215330.6790000024,
      "d": 123.96700000000419,
      "v": 100
    },
    {
      "midi": 56,
      "hit": false,
      "t": 215330.6790000024,
      "d": 123.96700000000419,
      "v": 100
    },
    {
      "midi": 61,
      "hit": false,
      "t": 215330.6790000024,
      "d": 123.96700000000419,
      "v": 100
    },
    {
      "midi": 49,
      "hit": false,
      "t": 215702.5800000024,
      "d": 123.96700000000419,
      "v": 100
    },
    {
      "midi": 52,
      "hit": false,
      "t": 215702.5800000024,
      "d": 123.96700000000419,
      "v": 100
    },
    {
      "midi": 56,
      "hit": false,
      "t": 215702.5800000024,
      "d": 123.96700000000419,
      "v": 100
    },
    {
      "midi": 61,
      "hit": false,
      "t": 215702.5800000024,
      "d": 123.96700000000419,
      "v": 100
    },
    {
      "midi": 49,
      "hit": false,
      "t": 215826.5470000024,
      "d": 123.96700000000419,
      "v": 100
    },
    {
      "midi": 52,
      "hit": false,
      "t": 215826.5470000024,
      "d": 123.96700000000419,
      "v": 100
    },
    {
      "midi": 56,
      "hit": false,
      "t": 215826.5470000024,
      "d": 123.96700000000419,
      "v": 100
    },
    {
      "midi": 61,
      "hit": false,
      "t": 215826.5470000024,
      "d": 123.96700000000419,
      "v": 100
    },
    {
      "midi": 49,
      "hit": false,
      "t": 216198.44800000242,
      "d": 123.96700000000419,
      "v": 100
    },
    {
      "midi": 52,
      "hit": false,
      "t": 216198.44800000242,
      "d": 123.96700000000419,
      "v": 100
    },
    {
      "midi": 56,
      "hit": false,
      "t": 216198.44800000242,
      "d": 123.96700000000419,
      "v": 100
    },
    {
      "midi": 61,
      "hit": false,
      "t": 216198.44800000242,
      "d": 123.96700000000419,
      "v": 100
    },
    {
      "midi": 49,
      "hit": false,
      "t": 216322.41500000242,
      "d": 123.96700000000419,
      "v": 100
    },
    {
      "midi": 52,
      "hit": false,
      "t": 216322.41500000242,
      "d": 123.96700000000419,
      "v": 100
    },
    {
      "midi": 56,
      "hit": false,
      "t": 216322.41500000242,
      "d": 123.96700000000419,
      "v": 100
    },
    {
      "midi": 61,
      "hit": false,
      "t": 216322.41500000242,
      "d": 123.96700000000419,
      "v": 100
    }
  ]
}