{
  "jsonPath": "Animes/Grave Of The Fireflies MIDI Collection/home-sweet-home-1.json",
  "path": "Animes\\Grave Of The Fireflies MIDI Collection\\Home Sweet Home 1.mid",
  "name": "Home Sweet Home 1",
  "difficulty": "Advanced",
  "bpm": 63.000063000063,
  "notes": [
    {
      "midi": 60,
      "hit": false,
      "t": 0,
      "d": 942.4593749999999,
      "v": 100
    },
    {
      "midi": 48,
      "hit": false,
      "t": 0,
      "d": 942.4593749999999,
      "v": 100
    },
    {
      "midi": 60,
      "hit": false,
      "t": 0,
      "d": 942.4593749999999,
      "v": 100
    },
    {
      "midi": 53,
      "hit": false,
      "t": 0,
      "d": 1418.649375,
      "v": 100
    },
    {
      "midi": 65,
      "hit": false,
      "t": 238.095,
      "d": 228.17437499999997,
      "v": 100
    },
    {
      "midi": 57,
      "hit": false,
      "t": 238.095,
      "d": 228.17437499999997,
      "v": 100
    },
    {
      "midi": 69,
      "hit": false,
      "t": 476.18999999999994,
      "d": 466.26937499999997,
      "v": 100
    },
    {
      "midi": 53,
      "hit": false,
      "t": 476.18999999999994,
      "d": 466.26937499999997,
      "v": 100
    },
    {
      "midi": 72,
      "hit": false,
      "t": 714.285,
      "d": 466.26937499999997,
      "v": 100
    },
    {
      "midi": 57,
      "hit": false,
      "t": 714.285,
      "d": 942.459375,
      "v": 100
    },
    {
      "midi": 48,
      "hit": false,
      "t": 952.3799999999999,
      "d": 942.4593750000001,
      "v": 100
    },
    {
      "midi": 69,
      "hit": false,
      "t": 1190.475,
      "d": 228.17437500000005,
      "v": 100
    },
    {
      "midi": 60,
      "hit": false,
      "t": 1190.475,
      "d": 228.17437500000005,
      "v": 100
    },
    {
      "midi": 65,
      "hit": false,
      "t": 1428.57,
      "d": 466.2693750000001,
      "v": 100
    },
    {
      "midi": 53,
      "hit": false,
      "t": 1428.57,
      "d": 228.17437500000005,
      "v": 100
    },
    {
      "midi": 53,
      "hit": false,
      "t": 1428.57,
      "d": 466.2693750000001,
      "v": 100
    },
    {
      "midi": 60,
      "hit": false,
      "t": 1666.665,
      "d": 228.17437500000005,
      "v": 100
    },
    {
      "midi": 60,
      "hit": false,
      "t": 1904.76,
      "d": 942.4593750000006,
      "v": 100
    },
    {
      "midi": 60,
      "hit": false,
      "t": 1904.76,
      "d": 942.4593750000001,
      "v": 100
    },
    {
      "midi": 48,
      "hit": false,
      "t": 1904.76,
      "d": 942.4593750000001,
      "v": 100
    },
    {
      "midi": 60,
      "hit": false,
      "t": 1904.76,
      "d": 1418.6493750000002,
      "v": 100
    },
    {
      "midi": 64,
      "hit": false,
      "t": 2142.855,
      "d": 228.17437500000005,
      "v": 100
    },
    {
      "midi": 58,
      "hit": false,
      "t": 2142.855,
      "d": 228.17437500000005,
      "v": 100
    },
    {
      "midi": 70,
      "hit": false,
      "t": 2380.9500000000003,
      "d": 228.17437500000005,
      "v": 100
    },
    {
      "midi": 52,
      "hit": false,
      "t": 2380.9500000000003,
      "d": 466.26937499999985,
      "v": 100
    },
    {
      "midi": 58,
      "hit": false,
      "t": 2619.045,
      "d": 942.4593750000004,
      "v": 100
    },
    {
      "midi": 72,
      "hit": false,
      "t": 2619.0450000000005,
      "d": 466.26937499999985,
      "v": 100
    },
    {
      "midi": 48,
      "hit": false,
      "t": 2857.1400000000003,
      "d": 942.4593750000004,
      "v": 100
    },
    {
      "midi": 60,
      "hit": false,
      "t": 3095.235,
      "d": 228.17437500000005,
      "v": 100
    },
    {
      "midi": 70,
      "hit": false,
      "t": 3095.2350000000006,
      "d": 228.17437500000005,
      "v": 100
    },
    {
      "midi": 52,
      "hit": false,
      "t": 3333.3300000000004,
      "d": 228.17437500000005,
      "v": 100
    },
    {
      "midi": 48,
      "hit": false,
      "t": 3333.3300000000004,
      "d": 466.26937499999985,
      "v": 100
    },
    {
      "midi": 64,
      "hit": false,
      "t": 3333.330000000001,
      "d": 466.26937499999985,
      "v": 100
    },
    {
      "midi": 60,
      "hit": false,
      "t": 3571.4250000000006,
      "d": 228.17437500000005,
      "v": 100
    },
    {
      "midi": 53,
      "hit": false,
      "t": 3809.5200000000004,
      "d": 1418.649375,
      "v": 100
    },
    {
      "midi": 60,
      "hit": false,
      "t": 3809.520000000001,
      "d": 942.459374999999,
      "v": 100
    },
    {
      "midi": 48,
      "hit": false,
      "t": 3809.520000000001,
      "d": 942.459374999999,
      "v": 100
    },
    {
      "midi": 60,
      "hit": false,
      "t": 3809.520000000001,
      "d": 942.459374999999,
      "v": 100
    },
    {
      "midi": 65,
      "hit": false,
      "t": 4047.6150000000007,
      "d": 228.1743749999996,
      "v": 100
    },
    {
      "midi": 57,
      "hit": false,
      "t": 4047.6150000000007,
      "d": 228.1743749999996,
      "v": 100
    },
    {
      "midi": 69,
      "hit": false,
      "t": 4285.71,
      "d": 466.26937499999985,
      "v": 100
    },
    {
      "midi": 53,
      "hit": false,
      "t": 4285.71,
      "d": 466.26937499999985,
      "v": 100
    },
    {
      "midi": 72,
      "hit": false,
      "t": 4523.805,
      "d": 466.26937499999985,
      "v": 100
    },
    {
      "midi": 57,
      "hit": false,
      "t": 4523.805,
      "d": 942.4593749999985,
      "v": 100
    },
    {
      "midi": 48,
      "hit": false,
      "t": 4761.9,
      "d": 942.4593749999985,
      "v": 100
    },
    {
      "midi": 69,
      "hit": false,
      "t": 4999.995,
      "d": 228.1743749999996,
      "v": 100
    },
    {
      "midi": 60,
      "hit": false,
      "t": 4999.995,
      "d": 228.1743749999996,
      "v": 100
    },
    {
      "midi": 65,
      "hit": false,
      "t": 5238.089999999999,
      "d": 466.26937499999985,
      "v": 100
    },
    {
      "midi": 53,
      "hit": false,
      "t": 5238.089999999999,
      "d": 228.1743749999996,
      "v": 100
    },
    {
      "midi": 53,
      "hit": false,
      "t": 5238.09,
      "d": 466.26937499999985,
      "v": 100
    },
    {
      "midi": 60,
      "hit": false,
      "t": 5476.184999999999,
      "d": 228.1743749999996,
      "v": 100
    },
    {
      "midi": 48,
      "hit": false,
      "t": 5714.279999999998,
      "d": 942.4593749999995,
      "v": 100
    },
    {
      "midi": 60,
      "hit": false,
      "t": 5714.279999999998,
      "d": 942.4593749999995,
      "v": 100
    },
    {
      "midi": 60,
      "hit": false,
      "t": 5714.279999999999,
      "d": 942.4593749999985,
      "v": 100
    },
    {
      "midi": 60,
      "hit": false,
      "t": 5714.28,
      "d": 1418.649375,
      "v": 100
    },
    {
      "midi": 58,
      "hit": false,
      "t": 5952.374999999998,
      "d": 228.1743749999996,
      "v": 100
    },
    {
      "midi": 64,
      "hit": false,
      "t": 5952.374999999999,
      "d": 228.1743749999996,
      "v": 100
    },
    {
      "midi": 52,
      "hit": false,
      "t": 6190.4699999999975,
      "d": 466.26937499999985,
      "v": 100
    },
    {
      "midi": 70,
      "hit": false,
      "t": 6190.469999999998,
      "d": 228.1743749999996,
      "v": 100
    },
    {
      "midi": 72,
      "hit": false,
      "t": 6428.564999999998,
      "d": 466.26937499999985,
      "v": 100
    },
    {
      "midi": 58,
      "hit": false,
      "t": 6428.564999999998,
      "d": 942.4593749999985,
      "v": 100
    },
    {
      "midi": 48,
      "hit": false,
      "t": 6666.659999999997,
      "d": 942.4593749999985,
      "v": 100
    },
    {
      "midi": 70,
      "hit": false,
      "t": 6904.754999999997,
      "d": 228.1743749999996,
      "v": 100
    },
    {
      "midi": 60,
      "hit": false,
      "t": 6904.754999999997,
      "d": 228.1743749999996,
      "v": 100
    },
    {
      "midi": 65,
      "hit": false,
      "t": 7142.849999999997,
      "d": 466.26937499999985,
      "v": 100
    },
    {
      "midi": 57,
      "hit": false,
      "t": 7142.849999999997,
      "d": 466.26937499999894,
      "v": 100
    },
    {
      "midi": 65,
      "hit": false,
      "t": 7142.849999999999,
      "d": 466.26937499999985,
      "v": 100
    },
    {
      "midi": 48,
      "hit": false,
      "t": 7142.849999999999,
      "d": 466.26937499999985,
      "v": 100
    },
    {
      "midi": 60,
      "hit": false,
      "t": 7380.944999999996,
      "d": 228.1743749999996,
      "v": 100
    },
    {
      "midi": 48,
      "hit": false,
      "t": 7619.039999999995,
      "d": 942.4593750000004,
      "v": 100
    },
    {
      "midi": 60,
      "hit": false,
      "t": 7619.039999999995,
      "d": 942.4593750000004,
      "v": 100
    },
    {
      "midi": 60,
      "hit": false,
      "t": 7619.039999999996,
      "d": 942.4593749999995,
      "v": 100
    },
    {
      "midi": 69,
      "hit": false,
      "t": 7619.039999999999,
      "d": 704.3643749999992,
      "v": 100
    },
    {
      "midi": 53,
      "hit": false,
      "t": 7619.039999999999,
      "d": 942.4593750000004,
      "v": 100
    },
    {
      "midi": 57,
      "hit": false,
      "t": 7857.134999999996,
      "d": 228.1743749999996,
      "v": 100
    },
    {
      "midi": 65,
      "hit": false,
      "t": 7857.134999999997,
      "d": 228.1743749999996,
      "v": 100
    },
    {
      "midi": 53,
      "hit": false,
      "t": 8095.229999999995,
      "d": 466.26937500000076,
      "v": 100
    },
    {
      "midi": 69,
      "hit": false,
      "t": 8095.229999999996,
      "d": 466.26937499999985,
      "v": 100
    },
    {
      "midi": 70,
      "hit": false,
      "t": 8333.324999999995,
      "d": 466.26937499999985,
      "v": 100
    },
    {
      "midi": 58,
      "hit": false,
      "t": 8333.324999999995,
      "d": 942.4593750000022,
      "v": 100
    },
    {
      "midi": 70,
      "hit": false,
      "t": 8333.324999999999,
      "d": 228.1743750000005,
      "v": 100
    },
    {
      "midi": 48,
      "hit": false,
      "t": 8571.419999999996,
      "d": 942.4593750000022,
      "v": 100
    },
    {
      "midi": 70,
      "hit": false,
      "t": 8571.42,
      "d": 704.3643749999992,
      "v": 100
    },
    {
      "midi": 55,
      "hit": false,
      "t": 8571.42,
      "d": 942.4593750000004,
      "v": 100
    },
    {
      "midi": 67,
      "hit": false,
      "t": 8809.514999999996,
      "d": 228.1743750000005,
      "v": 100
    },
    {
      "midi": 60,
      "hit": false,
      "t": 8809.514999999996,
      "d": 228.1743750000005,
      "v": 100
    },
    {
      "midi": 64,
      "hit": false,
      "t": 9047.609999999997,
      "d": 466.26937499999985,
      "v": 100
    },
    {
      "midi": 55,
      "hit": false,
      "t": 9047.609999999997,
      "d": 228.1743750000005,
      "v": 100
    },
    {
      "midi": 58,
      "hit": false,
      "t": 9285.704999999998,
      "d": 228.1743750000005,
      "v": 100
    },
    {
      "midi": 74,
      "hit": false,
      "t": 9285.705,
      "d": 228.1743750000005,
      "v": 100
    },
    {
      "midi": 60,
      "hit": false,
      "t": 9523.799999999997,
      "d": 942.4593750000004,
      "v": 100
    },
    {
      "midi": 48,
      "hit": false,
      "t": 9523.8,
      "d": 942.4593750000004,
      "v": 100
    },
    {
      "midi": 60,
      "hit": false,
      "t": 9523.8,
      "d": 942.4593750000004,
      "v": 100
    },
    {
      "midi": 72,
      "hit": false,
      "t": 9523.800000000001,
      "d": 704.3643749999992,
      "v": 100
    },
    {
      "midi": 57,
      "hit": false,
      "t": 9523.800000000001,
      "d": 942.4593750000004,
      "v": 100
    },
    {
      "midi": 65,
      "hit": false,
      "t": 9761.894999999997,
      "d": 228.1743750000005,
      "v": 100
    },
    {
      "midi": 57,
      "hit": false,
      "t": 9761.894999999999,
      "d": 228.1743750000005,
      "v": 100
    },
    {
      "midi": 69,
      "hit": false,
      "t": 9999.989999999998,
      "d": 466.26937499999985,
      "v": 100
    },
    {
      "midi": 53,
      "hit": false,
      "t": 9999.99,
      "d": 466.26937499999985,
      "v": 100
    },
    {
      "midi": 72,
      "hit": false,
      "t": 10238.084999999997,
      "d": 466.26937499999985,
      "v": 100
    },
    {
      "midi": 57,
      "hit": false,
      "t": 10238.085,
      "d": 942.4593750000022,
      "v": 100
    },
    {
      "midi": 69,
      "hit": false,
      "t": 10238.085000000001,
      "d": 228.1743750000005,
      "v": 100
    },
    {
      "midi": 48,
      "hit": false,
      "t": 10476.18,
      "d": 942.4593750000022,
      "v": 100
    },
    {
      "midi": 69,
      "hit": false,
      "t": 10476.180000000002,
      "d": 942.4593750000004,
      "v": 100
    },
    {
      "midi": 60,
      "hit": false,
      "t": 10476.180000000002,
      "d": 942.4593750000004,
      "v": 100
    },
    {
      "midi": 69,
      "hit": false,
      "t": 10714.274999999998,
      "d": 228.1743750000005,
      "v": 100
    },
    {
      "midi": 60,
      "hit": false,
      "t": 10714.275,
      "d": 228.1743750000005,
      "v": 100
    },
    {
      "midi": 65,
      "hit": false,
      "t": 10952.369999999999,
      "d": 466.26937499999985,
      "v": 100
    },
    {
      "midi": 53,
      "hit": false,
      "t": 10952.37,
      "d": 228.1743750000005,
      "v": 100
    },
    {
      "midi": 60,
      "hit": false,
      "t": 11190.465000000002,
      "d": 228.1743750000005,
      "v": 100
    },
    {
      "midi": 60,
      "hit": false,
      "t": 11428.56,
      "d": 942.4593750000022,
      "v": 100
    },
    {
      "midi": 70,
      "hit": false,
      "t": 11428.560000000003,
      "d": 704.3643749999992,
      "v": 100
    },
    {
      "midi": 48,
      "hit": false,
      "t": 11428.560000000003,
      "d": 942.4593750000004,
      "v": 100
    },
    {
      "midi": 60,
      "hit": false,
      "t": 11428.560000000003,
      "d": 942.4593750000004,
      "v": 100
    },
    {
      "midi": 48,
      "hit": false,
      "t": 11428.560000000003,
      "d": 942.4593750000004,
      "v": 100
    },
    {
      "midi": 64,
      "hit": false,
      "t": 11666.654999999999,
      "d": 228.1743750000005,
      "v": 100
    },
    {
      "midi": 58,
      "hit": false,
      "t": 11666.655000000002,
      "d": 228.1743750000005,
      "v": 100
    },
    {
      "midi": 70,
      "hit": false,
      "t": 11904.75,
      "d": 228.1743750000005,
      "v": 100
    },
    {
      "midi": 52,
      "hit": false,
      "t": 11904.750000000004,
      "d": 466.26937499999985,
      "v": 100
    },
    {
      "midi": 72,
      "hit": false,
      "t": 12142.845000000001,
      "d": 466.26937499999985,
      "v": 100
    },
    {
      "midi": 69,
      "hit": false,
      "t": 12142.845000000003,
      "d": 228.1743750000005,
      "v": 100
    },
    {
      "midi": 58,
      "hit": false,
      "t": 12142.845000000003,
      "d": 942.4593750000022,
      "v": 100
    },
    {
      "midi": 70,
      "hit": false,
      "t": 12380.940000000004,
      "d": 466.26937499999985,
      "v": 100
    },
    {
      "midi": 48,
      "hit": false,
      "t": 12380.940000000004,
      "d": 942.4593750000022,
      "v": 100
    },
    {
      "midi": 48,
      "hit": false,
      "t": 12380.940000000004,
      "d": 942.4593750000004,
      "v": 100
    },
    {
      "midi": 70,
      "hit": false,
      "t": 12619.035000000002,
      "d": 228.1743750000005,
      "v": 100
    },
    {
      "midi": 60,
      "hit": false,
      "t": 12619.035000000003,
      "d": 228.1743750000005,
      "v": 100
    },
    {
      "midi": 64,
      "hit": false,
      "t": 12857.130000000003,
      "d": 466.26937499999985,
      "v": 100
    },
    {
      "midi": 67,
      "hit": false,
      "t": 12857.130000000005,
      "d": 466.26937499999985,
      "v": 100
    },
    {
      "midi": 52,
      "hit": false,
      "t": 12857.130000000005,
      "d": 228.1743750000005,
      "v": 100
    },
    {
      "midi": 60,
      "hit": false,
      "t": 13095.225000000006,
      "d": 228.1743750000005,
      "v": 100
    },
    {
      "midi": 60,
      "hit": false,
      "t": 13333.320000000003,
      "d": 942.4593750000004,
      "v": 100
    },
    {
      "midi": 69,
      "hit": false,
      "t": 13333.320000000005,
      "d": 1418.649374999999,
      "v": 100
    },
    {
      "midi": 53,
      "hit": false,
      "t": 13333.320000000005,
      "d": 466.26937499999985,
      "v": 100
    },
    {
      "midi": 60,
      "hit": false,
      "t": 13333.320000000007,
      "d": 942.4593750000004,
      "v": 100
    },
    {
      "midi": 48,
      "hit": false,
      "t": 13333.320000000007,
      "d": 942.4593750000004,
      "v": 100
    },
    {
      "midi": 65,
      "hit": false,
      "t": 13571.415000000003,
      "d": 228.1743750000005,
      "v": 100
    },
    {
      "midi": 57,
      "hit": false,
      "t": 13571.415000000006,
      "d": 228.1743750000005,
      "v": 100
    },
    {
      "midi": 69,
      "hit": false,
      "t": 13809.510000000004,
      "d": 466.26937499999985,
      "v": 100
    },
    {
      "midi": 48,
      "hit": false,
      "t": 13809.510000000006,
      "d": 466.26937499999985,
      "v": 100
    },
    {
      "midi": 53,
      "hit": false,
      "t": 13809.510000000007,
      "d": 466.26937499999985,
      "v": 100
    },
    {
      "midi": 72,
      "hit": false,
      "t": 14047.605000000003,
      "d": 466.26937499999985,
      "v": 100
    },
    {
      "midi": 57,
      "hit": false,
      "t": 14047.605000000007,
      "d": 942.4593750000022,
      "v": 100
    },
    {
      "midi": 41,
      "hit": false,
      "t": 14285.700000000006,
      "d": 942.4593750000004,
      "v": 100
    },
    {
      "midi": 48,
      "hit": false,
      "t": 14285.700000000008,
      "d": 942.4593750000022,
      "v": 100
    },
    {
      "midi": 69,
      "hit": false,
      "t": 14523.795000000004,
      "d": 228.1743750000005,
      "v": 100
    },
    {
      "midi": 60,
      "hit": false,
      "t": 14523.795000000007,
      "d": 228.1743750000005,
      "v": 100
    },
    {
      "midi": 65,
      "hit": false,
      "t": 14761.890000000005,
      "d": 228.1743750000005,
      "v": 100
    },
    {
      "midi": 65,
      "hit": false,
      "t": 14761.890000000005,
      "d": 466.26937499999985,
      "v": 100
    },
    {
      "midi": 53,
      "hit": false,
      "t": 14761.890000000009,
      "d": 228.1743750000005,
      "v": 100
    },
    {
      "midi": 65,
      "hit": false,
      "t": 14999.985000000006,
      "d": 228.1743750000005,
      "v": 100
    },
    {
      "midi": 60,
      "hit": false,
      "t": 14999.98500000001,
      "d": 228.1743750000005,
      "v": 100
    },
    {
      "midi": 60,
      "hit": false,
      "t": 15238.080000000005,
      "d": 942.4593750000004,
      "v": 100
    },
    {
      "midi": 69,
      "hit": false,
      "t": 15238.080000000007,
      "d": 704.3643749999992,
      "v": 100
    },
    {
      "midi": 53,
      "hit": false,
      "t": 15238.080000000007,
      "d": 942.4593750000004,
      "v": 100
    },
    {
      "midi": 60,
      "hit": false,
      "t": 15238.08000000001,
      "d": 942.4593750000004,
      "v": 100
    },
    {
      "midi": 48,
      "hit": false,
      "t": 15238.08000000001,
      "d": 942.4593750000004,
      "v": 100
    },
    {
      "midi": 65,
      "hit": false,
      "t": 15476.175000000005,
      "d": 228.1743750000005,
      "v": 100
    },
    {
      "midi": 57,
      "hit": false,
      "t": 15476.17500000001,
      "d": 228.1743750000005,
      "v": 100
    },
    {
      "midi": 69,
      "hit": false,
      "t": 15714.270000000006,
      "d": 466.26937499999985,
      "v": 100
    },
    {
      "midi": 53,
      "hit": false,
      "t": 15714.270000000011,
      "d": 466.26937499999985,
      "v": 100
    },
    {
      "midi": 70,
      "hit": false,
      "t": 15952.365000000005,
      "d": 466.26937499999985,
      "v": 100
    },
    {
      "midi": 70,
      "hit": false,
      "t": 15952.365000000007,
      "d": 228.1743750000005,
      "v": 100
    },
    {
      "midi": 58,
      "hit": false,
      "t": 15952.36500000001,
      "d": 942.4593749999967,
      "v": 100
    },
    {
      "midi": 70,
      "hit": false,
      "t": 16190.460000000008,
      "d": 704.3643749999992,
      "v": 100
    },
    {
      "midi": 55,
      "hit": false,
      "t": 16190.460000000008,
      "d": 942.4593750000004,
      "v": 100
    },
    {
      "midi": 48,
      "hit": false,
      "t": 16190.460000000012,
      "d": 942.4593749999931,
      "v": 100
    },
    {
      "midi": 67,
      "hit": false,
      "t": 16428.555000000004,
      "d": 228.1743749999987,
      "v": 100
    },
    {
      "midi": 60,
      "hit": false,
      "t": 16428.55500000001,
      "d": 228.1743749999987,
      "v": 100
    },
    {
      "midi": 64,
      "hit": false,
      "t": 16666.65,
      "d": 466.26937499999985,
      "v": 100
    },
    {
      "midi": 55,
      "hit": false,
      "t": 16666.65000000001,
      "d": 228.1743749999987,
      "v": 100
    },
    {
      "midi": 74,
      "hit": false,
      "t": 16904.745000000006,
      "d": 228.1743749999987,
      "v": 100
    },
    {
      "midi": 58,
      "hit": false,
      "t": 16904.745000000006,
      "d": 228.1743749999987,
      "v": 100
    },
    {
      "midi": 60,
      "hit": false,
      "t": 17142.84,
      "d": 942.4593749999985,
      "v": 100
    },
    {
      "midi": 72,
      "hit": false,
      "t": 17142.840000000004,
      "d": 942.4593749999985,
      "v": 100
    },
    {
      "midi": 60,
      "hit": false,
      "t": 17142.840000000004,
      "d": 942.4593749999985,
      "v": 100
    },
    {
      "midi": 48,
      "hit": false,
      "t": 17142.840000000004,
      "d": 942.4593749999985,
      "v": 100
    },
    {
      "midi": 57,
      "hit": false,
      "t": 17142.840000000007,
      "d": 942.4593749999985,
      "v": 100
    },
    {
      "midi": 65,
      "hit": false,
      "t": 17380.935,
      "d": 228.1743749999987,
      "v": 100
    },
    {
      "midi": 57,
      "hit": false,
      "t": 17380.935000000005,
      "d": 228.1743749999987,
      "v": 100
    },
    {
      "midi": 69,
      "hit": false,
      "t": 17619.03,
      "d": 466.26937499999985,
      "v": 100
    },
    {
      "midi": 53,
      "hit": false,
      "t": 17619.030000000002,
      "d": 466.26937499999985,
      "v": 100
    },
    {
      "midi": 72,
      "hit": false,
      "t": 17857.125,
      "d": 466.26937499999985,
      "v": 100
    },
    {
      "midi": 57,
      "hit": false,
      "t": 17857.125000000004,
      "d": 942.4593749999949,
      "v": 100
    },
    {
      "midi": 69,
      "hit": false,
      "t": 18095.22,
      "d": 466.26937499999985,
      "v": 100
    },
    {
      "midi": 48,
      "hit": false,
      "t": 18095.22,
      "d": 942.4593749999949,
      "v": 100
    },
    {
      "midi": 60,
      "hit": false,
      "t": 18095.220000000005,
      "d": 942.4593749999985,
      "v": 100
    },
    {
      "midi": 69,
      "hit": false,
      "t": 18333.315,
      "d": 228.1743749999987,
      "v": 100
    },
    {
      "midi": 60,
      "hit": false,
      "t": 18333.315000000002,
      "d": 228.1743749999987,
      "v": 100
    },
    {
      "midi": 65,
      "hit": false,
      "t": 18571.409999999996,
      "d": 466.26937499999985,
      "v": 100
    },
    {
      "midi": 72,
      "hit": false,
      "t": 18571.41,
      "d": 466.26937499999985,
      "v": 100
    },
    {
      "midi": 53,
      "hit": false,
      "t": 18571.41,
      "d": 228.1743749999987,
      "v": 100
    },
    {
      "midi": 60,
      "hit": false,
      "t": 18809.504999999997,
      "d": 228.1743749999987,
      "v": 100
    },
    {
      "midi": 60,
      "hit": false,
      "t": 19047.599999999995,
      "d": 942.4593749999949,
      "v": 100
    },
    {
      "midi": 48,
      "hit": false,
      "t": 19047.599999999995,
      "d": 942.4593749999985,
      "v": 100
    },
    {
      "midi": 60,
      "hit": false,
      "t": 19047.599999999995,
      "d": 942.4593749999985,
      "v": 100
    },
    {
      "midi": 70,
      "hit": false,
      "t": 19047.6,
      "d": 704.364375000001,
      "v": 100
    },
    {
      "midi": 48,
      "hit": false,
      "t": 19047.600000000002,
      "d": 942.4593749999985,
      "v": 100
    },
    {
      "midi": 64,
      "hit": false,
      "t": 19285.694999999996,
      "d": 228.1743749999987,
      "v": 100
    },
    {
      "midi": 58,
      "hit": false,
      "t": 19285.694999999996,
      "d": 228.1743749999987,
      "v": 100
    },
    {
      "midi": 70,
      "hit": false,
      "t": 19523.789999999994,
      "d": 228.1743749999987,
      "v": 100
    },
    {
      "midi": 52,
      "hit": false,
      "t": 19523.789999999994,
      "d": 466.26937499999985,
      "v": 100
    },
    {
      "midi": 72,
      "hit": false,
      "t": 19761.88499999999,
      "d": 466.26937499999985,
      "v": 100
    },
    {
      "midi": 58,
      "hit": false,
      "t": 19761.884999999995,
      "d": 942.4593749999949,
      "v": 100
    },
    {
      "midi": 69,
      "hit": false,
      "t": 19761.885,
      "d": 228.1743749999987,
      "v": 100
    },
    {
      "midi": 48,
      "hit": false,
      "t": 19999.979999999992,
      "d": 942.4593749999949,
      "v": 100
    },
    {
      "midi": 70,
      "hit": false,
      "t": 19999.979999999996,
      "d": 466.26937499999985,
      "v": 100
    },
    {
      "midi": 48,
      "hit": false,
      "t": 19999.98,
      "d": 942.4593749999985,
      "v": 100
    },
    {
      "midi": 70,
      "hit": false,
      "t": 20238.07499999999,
      "d": 228.1743749999987,
      "v": 100
    },
    {
      "midi": 60,
      "hit": false,
      "t": 20238.074999999993,
      "d": 228.1743749999987,
      "v": 100
    },
    {
      "midi": 64,
      "hit": false,
      "t": 20476.169999999987,
      "d": 466.26937499999985,
      "v": 100
    },
    {
      "midi": 52,
      "hit": false,
      "t": 20476.16999999999,
      "d": 228.1743749999987,
      "v": 100
    },
    {
      "midi": 67,
      "hit": false,
      "t": 20476.169999999995,
      "d": 466.26937499999985,
      "v": 100
    },
    {
      "midi": 60,
      "hit": false,
      "t": 20714.26499999999,
      "d": 228.1743749999987,
      "v": 100
    },
    {
      "midi": 60,
      "hit": false,
      "t": 20952.359999999986,
      "d": 942.4593749999985,
      "v": 100
    },
    {
      "midi": 60,
      "hit": false,
      "t": 20952.359999999986,
      "d": 942.4593749999985,
      "v": 100
    },
    {
      "midi": 48,
      "hit": false,
      "t": 20952.359999999986,
      "d": 942.4593749999985,
      "v": 100
    },
    {
      "midi": 65,
      "hit": false,
      "t": 20952.359999999993,
      "d": 1418.6493750000009,
      "v": 100
    },
    {
      "midi": 53,
      "hit": false,
      "t": 20952.359999999997,
      "d": 466.26937499999985,
      "v": 100
    },
    {
      "midi": 65,
      "hit": false,
      "t": 21190.454999999987,
      "d": 228.1743749999987,
      "v": 100
    },
    {
      "midi": 57,
      "hit": false,
      "t": 21190.454999999987,
      "d": 228.1743749999987,
      "v": 100
    },
    {
      "midi": 69,
      "hit": false,
      "t": 21428.549999999985,
      "d": 466.26937499999985,
      "v": 100
    },
    {
      "midi": 53,
      "hit": false,
      "t": 21428.549999999985,
      "d": 466.26937499999985,
      "v": 100
    },
    {
      "midi": 48,
      "hit": false,
      "t": 21428.549999999996,
      "d": 466.26937499999985,
      "v": 100
    },
    {
      "midi": 72,
      "hit": false,
      "t": 21666.644999999986,
      "d": 466.26937499999985,
      "v": 100
    },
    {
      "midi": 57,
      "hit": false,
      "t": 21666.644999999986,
      "d": 942.4593749999949,
      "v": 100
    },
    {
      "midi": 48,
      "hit": false,
      "t": 21904.739999999983,
      "d": 942.4593749999949,
      "v": 100
    },
    {
      "midi": 41,
      "hit": false,
      "t": 21904.739999999994,
      "d": 942.4593749999985,
      "v": 100
    },
    {
      "midi": 69,
      "hit": false,
      "t": 22142.834999999985,
      "d": 228.1743749999987,
      "v": 100
    },
    {
      "midi": 60,
      "hit": false,
      "t": 22142.834999999985,
      "d": 228.1743749999987,
      "v": 100
    },
    {
      "midi": 65,
      "hit": false,
      "t": 22380.929999999982,
      "d": 466.26937499999985,
      "v": 100
    },
    {
      "midi": 53,
      "hit": false,
      "t": 22380.929999999982,
      "d": 228.1743749999987,
      "v": 100
    },
    {
      "midi": 72,
      "hit": false,
      "t": 22380.929999999993,
      "d": 466.26937499999985,
      "v": 100
    },
    {
      "midi": 60,
      "hit": false,
      "t": 22619.02499999998,
      "d": 228.1743749999987,
      "v": 100
    },
    {
      "midi": 46,
      "hit": false,
      "t": 22857.119999999977,
      "d": 942.4593749999985,
      "v": 100
    },
    {
      "midi": 62,
      "hit": false,
      "t": 22857.119999999977,
      "d": 942.4593749999985,
      "v": 100
    },
    {
      "midi": 58,
      "hit": false,
      "t": 22857.11999999998,
      "d": 942.4593749999949,
      "v": 100
    },
    {
      "midi": 77,
      "hit": false,
      "t": 22857.11999999999,
      "d": 704.364375000001,
      "v": 100
    },
    {
      "midi": 58,
      "hit": false,
      "t": 22857.11999999999,
      "d": 942.4593749999985,
      "v": 100
    },
    {
      "midi": 58,
      "hit": false,
      "t": 23095.21499999998,
      "d": 228.1743749999987,
      "v": 100
    },
    {
      "midi": 65,
      "hit": false,
      "t": 23095.214999999982,
      "d": 228.1743749999987,
      "v": 100
    },
    {
      "midi": 53,
      "hit": false,
      "t": 23333.309999999976,
      "d": 466.26937499999985,
      "v": 100
    },
    {
      "midi": 70,
      "hit": false,
      "t": 23333.30999999998,
      "d": 228.1743749999987,
      "v": 100
    },
    {
      "midi": 74,
      "hit": false,
      "t": 23571.404999999977,
      "d": 942.4593749999949,
      "v": 100
    },
    {
      "midi": 58,
      "hit": false,
      "t": 23571.404999999977,
      "d": 714.2849999999962,
      "v": 100
    },
    {
      "midi": 76,
      "hit": false,
      "t": 23571.40499999999,
      "d": 228.1743749999987,
      "v": 100
    },
    {
      "midi": 46,
      "hit": false,
      "t": 23809.499999999975,
      "d": 942.4593749999949,
      "v": 100
    },
    {
      "midi": 74,
      "hit": false,
      "t": 23809.49999999999,
      "d": 704.364375000001,
      "v": 100
    },
    {
      "midi": 58,
      "hit": false,
      "t": 23809.49999999999,
      "d": 942.4593749999985,
      "v": 100
    },
    {
      "midi": 70,
      "hit": false,
      "t": 24047.594999999976,
      "d": 228.1743749999987,
      "v": 100
    },
    {
      "midi": 62,
      "hit": false,
      "t": 24047.594999999976,
      "d": 228.1743749999987,
      "v": 100
    },
    {
      "midi": 65,
      "hit": false,
      "t": 24285.689999999973,
      "d": 466.26937499999985,
      "v": 100
    },
    {
      "midi": 58,
      "hit": false,
      "t": 24285.689999999973,
      "d": 228.1743749999987,
      "v": 100
    },
    {
      "midi": 62,
      "hit": false,
      "t": 24523.78499999997,
      "d": 228.1743749999987,
      "v": 100
    },
    {
      "midi": 72,
      "hit": false,
      "t": 24523.78499999999,
      "d": 228.1743749999987,
      "v": 100
    },
    {
      "midi": 48,
      "hit": false,
      "t": 24761.87999999997,
      "d": 942.4593749999985,
      "v": 100
    },
    {
      "midi": 60,
      "hit": false,
      "t": 24761.87999999997,
      "d": 942.4593749999985,
      "v": 100
    },
    {
      "midi": 60,
      "hit": false,
      "t": 24761.879999999972,
      "d": 942.4593749999985,
      "v": 100
    },
    {
      "midi": 72,
      "hit": false,
      "t": 24761.879999999986,
      "d": 942.4593749999985,
      "v": 100
    },
    {
      "midi": 57,
      "hit": false,
      "t": 24761.879999999986,
      "d": 942.4593749999985,
      "v": 100
    },
    {
      "midi": 57,
      "hit": false,
      "t": 24999.97499999997,
      "d": 228.1743749999987,
      "v": 100
    },
    {
      "midi": 65,
      "hit": false,
      "t": 24999.974999999973,
      "d": 228.1743749999987,
      "v": 100
    },
    {
      "midi": 53,
      "hit": false,
      "t": 25238.069999999967,
      "d": 466.26937499999985,
      "v": 100
    },
    {
      "midi": 69,
      "hit": false,
      "t": 25238.06999999997,
      "d": 466.26937499999985,
      "v": 100
    },
    {
      "midi": 57,
      "hit": false,
      "t": 25476.164999999968,
      "d": 942.4593749999949,
      "v": 100
    },
    {
      "midi": 72,
      "hit": false,
      "t": 25476.16499999997,
      "d": 466.26937499999985,
      "v": 100
    },
    {
      "midi": 48,
      "hit": false,
      "t": 25714.259999999966,
      "d": 942.4593749999949,
      "v": 100
    },
    {
      "midi": 69,
      "hit": false,
      "t": 25714.259999999984,
      "d": 466.26937499999985,
      "v": 100
    },
    {
      "midi": 53,
      "hit": false,
      "t": 25714.259999999984,
      "d": 942.4593749999985,
      "v": 100
    },
    {
      "midi": 60,
      "hit": false,
      "t": 25952.354999999967,
      "d": 228.1743749999987,
      "v": 100
    },
    {
      "midi": 69,
      "hit": false,
      "t": 25952.35499999997,
      "d": 228.1743749999987,
      "v": 100
    },
    {
      "midi": 53,
      "hit": false,
      "t": 26190.449999999964,
      "d": 228.1743749999987,
      "v": 100
    },
    {
      "midi": 65,
      "hit": false,
      "t": 26190.449999999968,
      "d": 466.26937499999985,
      "v": 100
    },
    {
      "midi": 72,
      "hit": false,
      "t": 26190.449999999983,
      "d": 466.26937499999985,
      "v": 100
    },
    {
      "midi": 60,
      "hit": false,
      "t": 26428.544999999962,
      "d": 228.1743749999987,
      "v": 100
    },
    {
      "midi": 60,
      "hit": false,
      "t": 26666.63999999996,
      "d": 942.4593749999985,
      "v": 100
    },
    {
      "midi": 48,
      "hit": false,
      "t": 26666.63999999996,
      "d": 942.4593749999985,
      "v": 100
    },
    {
      "midi": 60,
      "hit": false,
      "t": 26666.639999999967,
      "d": 942.4593749999949,
      "v": 100
    },
    {
      "midi": 70,
      "hit": false,
      "t": 26666.63999999998,
      "d": 704.364375000001,
      "v": 100
    },
    {
      "midi": 48,
      "hit": false,
      "t": 26666.63999999998,
      "d": 942.4593749999985,
      "v": 100
    },
    {
      "midi": 58,
      "hit": false,
      "t": 26904.73499999996,
      "d": 228.1743749999987,
      "v": 100
    },
    {
      "midi": 64,
      "hit": false,
      "t": 26904.734999999968,
      "d": 228.1743749999987,
      "v": 100
    },
    {
      "midi": 52,
      "hit": false,
      "t": 27142.829999999958,
      "d": 466.26937499999985,
      "v": 100
    },
    {
      "midi": 70,
      "hit": false,
      "t": 27142.829999999965,
      "d": 228.1743749999987,
      "v": 100
    },
    {
      "midi": 58,
      "hit": false,
      "t": 27380.92499999996,
      "d": 942.4593749999949,
      "v": 100
    },
    {
      "midi": 72,
      "hit": false,
      "t": 27380.924999999963,
      "d": 466.26937499999985,
      "v": 100
    },
    {
      "midi": 69,
      "hit": false,
      "t": 27380.92499999998,
      "d": 228.1743749999987,
      "v": 100
    },
    {
      "midi": 48,
      "hit": false,
      "t": 27619.019999999957,
      "d": 942.4593749999949,
      "v": 100
    },
    {
      "midi": 70,
      "hit": false,
      "t": 27619.01999999998,
      "d": 466.26937499999985,
      "v": 100
    },
    {
      "midi": 48,
      "hit": false,
      "t": 27619.01999999998,
      "d": 942.4593749999985,
      "v": 100
    },
    {
      "midi": 60,
      "hit": false,
      "t": 27857.114999999958,
      "d": 228.1743749999987,
      "v": 100
    },
    {
      "midi": 70,
      "hit": false,
      "t": 27857.11499999996,
      "d": 228.1743749999987,
      "v": 100
    },
    {
      "midi": 52,
      "hit": false,
      "t": 28095.209999999955,
      "d": 228.1743749999987,
      "v": 100
    },
    {
      "midi": 64,
      "hit": false,
      "t": 28095.20999999996,
      "d": 466.26937499999985,
      "v": 100
    },
    {
      "midi": 67,
      "hit": false,
      "t": 28095.209999999977,
      "d": 466.26937499999985,
      "v": 100
    },
    {
      "midi": 60,
      "hit": false,
      "t": 28333.304999999953,
      "d": 228.1743749999987,
      "v": 100
    },
    {
      "midi": 48,
      "hit": false,
      "t": 28571.39999999995,
      "d": 942.4593749999985,
      "v": 100
    },
    {
      "midi": 60,
      "hit": false,
      "t": 28571.39999999995,
      "d": 942.4593749999985,
      "v": 100
    },
    {
      "midi": 60,
      "hit": false,
      "t": 28571.399999999958,
      "d": 942.4593749999985,
      "v": 100
    },
    {
      "midi": 69,
      "hit": false,
      "t": 28571.399999999976,
      "d": 1418.6493750000009,
      "v": 100
    },
    {
      "midi": 53,
      "hit": false,
      "t": 28571.399999999976,
      "d": 466.26937499999985,
      "v": 100
    },
    {
      "midi": 57,
      "hit": false,
      "t": 28809.49499999995,
      "d": 228.1743749999987,
      "v": 100
    },
    {
      "midi": 65,
      "hit": false,
      "t": 28809.49499999996,
      "d": 228.1743749999987,
      "v": 100
    },
    {
      "midi": 53,
      "hit": false,
      "t": 29047.58999999995,
      "d": 466.26937499999985,
      "v": 100
    },
    {
      "midi": 69,
      "hit": false,
      "t": 29047.589999999956,
      "d": 466.26937499999985,
      "v": 100
    },
    {
      "midi": 48,
      "hit": false,
      "t": 29047.589999999975,
      "d": 466.26937499999985,
      "v": 100
    },
    {
      "midi": 57,
      "hit": false,
      "t": 29285.68499999995,
      "d": 942.4593749999949,
      "v": 100
    },
    {
      "midi": 72,
      "hit": false,
      "t": 29285.684999999958,
      "d": 466.26937499999985,
      "v": 100
    },
    {
      "midi": 48,
      "hit": false,
      "t": 29523.779999999948,
      "d": 942.4593749999949,
      "v": 100
    },
    {
      "midi": 41,
      "hit": false,
      "t": 29523.779999999973,
      "d": 942.4593749999985,
      "v": 100
    },
    {
      "midi": 60,
      "hit": false,
      "t": 29761.87499999995,
      "d": 228.1743749999987,
      "v": 100
    },
    {
      "midi": 69,
      "hit": false,
      "t": 29761.874999999956,
      "d": 228.1743749999987,
      "v": 100
    },
    {
      "midi": 53,
      "hit": false,
      "t": 29999.969999999947,
      "d": 228.1743749999987,
      "v": 100
    },
    {
      "midi": 65,
      "hit": false,
      "t": 29999.969999999954,
      "d": 466.26937499999985,
      "v": 100
    },
    {
      "midi": 72,
      "hit": false,
      "t": 29999.969999999976,
      "d": 466.26937499999985,
      "v": 100
    },
    {
      "midi": 60,
      "hit": false,
      "t": 30238.064999999944,
      "d": 228.1743749999987,
      "v": 100
    },
    {
      "midi": 46,
      "hit": false,
      "t": 30476.15999999994,
      "d": 942.4593749999985,
      "v": 100
    },
    {
      "midi": 62,
      "hit": false,
      "t": 30476.15999999994,
      "d": 942.4593749999985,
      "v": 100
    },
    {
      "midi": 58,
      "hit": false,
      "t": 30476.159999999953,
      "d": 942.4593749999949,
      "v": 100
    },
    {
      "midi": 58,
      "hit": false,
      "t": 30476.15999999997,
      "d": 942.4593749999985,
      "v": 100
    },
    {
      "midi": 77,
      "hit": false,
      "t": 30476.159999999974,
      "d": 704.364375000001,
      "v": 100
    },
    {
      "midi": 58,
      "hit": false,
      "t": 30714.254999999943,
      "d": 228.1743749999987,
      "v": 100
    },
    {
      "midi": 65,
      "hit": false,
      "t": 30714.254999999954,
      "d": 228.1743749999987,
      "v": 100
    },
    {
      "midi": 53,
      "hit": false,
      "t": 30952.34999999994,
      "d": 466.26937499999985,
      "v": 100
    },
    {
      "midi": 70,
      "hit": false,
      "t": 30952.34999999995,
      "d": 228.1743749999987,
      "v": 100
    },
    {
      "midi": 58,
      "hit": false,
      "t": 31190.44499999994,
      "d": 714.2849999999962,
      "v": 100
    },
    {
      "midi": 74,
      "hit": false,
      "t": 31190.44499999995,
      "d": 942.4593749999949,
      "v": 100
    },
    {
      "midi": 76,
      "hit": false,
      "t": 31190.444999999974,
      "d": 228.1743749999987,
      "v": 100
    },
    {
      "midi": 46,
      "hit": false,
      "t": 31428.53999999994,
      "d": 942.4593749999949,
      "v": 100
    },
    {
      "midi": 58,
      "hit": false,
      "t": 31428.539999999968,
      "d": 942.4593749999985,
      "v": 100
    },
    {
      "midi": 74,
      "hit": false,
      "t": 31428.53999999997,
      "d": 704.364375000001,
      "v": 100
    },
    {
      "midi": 62,
      "hit": false,
      "t": 31666.63499999994,
      "d": 228.1743749999987,
      "v": 100
    },
    {
      "midi": 70,
      "hit": false,
      "t": 31666.634999999947,
      "d": 228.1743749999987,
      "v": 100
    },
    {
      "midi": 58,
      "hit": false,
      "t": 31904.729999999938,
      "d": 228.1743749999987,
      "v": 100
    },
    {
      "midi": 65,
      "hit": false,
      "t": 31904.729999999945,
      "d": 466.26937499999985,
      "v": 100
    },
    {
      "midi": 62,
      "hit": false,
      "t": 32142.824999999935,
      "d": 228.1743749999987,
      "v": 100
    },
    {
      "midi": 72,
      "hit": false,
      "t": 32142.82499999997,
      "d": 228.1743749999987,
      "v": 100
    },
    {
      "midi": 60,
      "hit": false,
      "t": 32380.919999999933,
      "d": 942.4593750000058,
      "v": 100
    },
    {
      "midi": 48,
      "hit": false,
      "t": 32380.919999999933,
      "d": 942.4593750000058,
      "v": 100
    },
    {
      "midi": 60,
      "hit": false,
      "t": 32380.919999999944,
      "d": 942.4593750000022,
      "v": 100
    },
    {
      "midi": 57,
      "hit": false,
      "t": 32380.919999999966,
      "d": 942.4593750000022,
      "v": 100
    },
    {
      "midi": 72,
      "hit": false,
      "t": 32380.91999999997,
      "d": 942.4593749999985,
      "v": 100
    },
    {
      "midi": 57,
      "hit": false,
      "t": 32619.014999999934,
      "d": 228.17437500000233,
      "v": 100
    },
    {
      "midi": 65,
      "hit": false,
      "t": 32619.014999999945,
      "d": 228.1743749999987,
      "v": 100
    },
    {
      "midi": 53,
      "hit": false,
      "t": 32857.109999999935,
      "d": 466.2693750000035,
      "v": 100
    },
    {
      "midi": 69,
      "hit": false,
      "t": 32857.10999999994,
      "d": 466.2693750000035,
      "v": 100
    },
    {
      "midi": 57,
      "hit": false,
      "t": 33095.204999999936,
      "d": 942.4593750000058,
      "v": 100
    },
    {
      "midi": 72,
      "hit": false,
      "t": 33095.20499999994,
      "d": 466.2693750000035,
      "v": 100
    },
    {
      "midi": 48,
      "hit": false,
      "t": 33333.29999999994,
      "d": 942.4593750000058,
      "v": 100
    },
    {
      "midi": 69,
      "hit": false,
      "t": 33333.29999999997,
      "d": 466.2693750000035,
      "v": 100
    },
    {
      "midi": 53,
      "hit": false,
      "t": 33333.29999999997,
      "d": 942.4593749999985,
      "v": 100
    },
    {
      "midi": 60,
      "hit": false,
      "t": 33571.39499999994,
      "d": 228.17437500000233,
      "v": 100
    },
    {
      "midi": 69,
      "hit": false,
      "t": 33571.394999999946,
      "d": 228.17437500000233,
      "v": 100
    },
    {
      "midi": 53,
      "hit": false,
      "t": 33809.48999999994,
      "d": 228.17437500000233,
      "v": 100
    },
    {
      "midi": 65,
      "hit": false,
      "t": 33809.48999999995,
      "d": 466.2693750000035,
      "v": 100
    },
    {
      "midi": 72,
      "hit": false,
      "t": 33809.48999999997,
      "d": 466.2693750000035,
      "v": 100
    },
    {
      "midi": 60,
      "hit": false,
      "t": 34047.58499999994,
      "d": 228.17437500000233,
      "v": 100
    },
    {
      "midi": 48,
      "hit": false,
      "t": 34285.67999999994,
      "d": 942.4593750000058,
      "v": 100
    },
    {
      "midi": 60,
      "hit": false,
      "t": 34285.67999999994,
      "d": 942.4593750000058,
      "v": 100
    },
    {
      "midi": 60,
      "hit": false,
      "t": 34285.67999999995,
      "d": 942.4593750000058,
      "v": 100
    },
    {
      "midi": 48,
      "hit": false,
      "t": 34285.679999999964,
      "d": 942.4593749999985,
      "v": 100
    },
    {
      "midi": 70,
      "hit": false,
      "t": 34285.67999999997,
      "d": 704.3643749999974,
      "v": 100
    },
    {
      "midi": 58,
      "hit": false,
      "t": 34523.77499999994,
      "d": 228.17437500000233,
      "v": 100
    },
    {
      "midi": 64,
      "hit": false,
      "t": 34523.77499999995,
      "d": 228.17437500000233,
      "v": 100
    },
    {
      "midi": 52,
      "hit": false,
      "t": 34761.869999999944,
      "d": 466.2693750000035,
      "v": 100
    },
    {
      "midi": 70,
      "hit": false,
      "t": 34761.86999999995,
      "d": 228.17437500000233,
      "v": 100
    },
    {
      "midi": 58,
      "hit": false,
      "t": 34999.964999999946,
      "d": 942.4593750000058,
      "v": 100
    },
    {
      "midi": 72,
      "hit": false,
      "t": 34999.96499999995,
      "d": 466.2693750000035,
      "v": 100
    },
    {
      "midi": 69,
      "hit": false,
      "t": 34999.96499999997,
      "d": 228.17437500000233,
      "v": 100
    },
    {
      "midi": 48,
      "hit": false,
      "t": 35238.05999999995,
      "d": 942.4593750000058,
      "v": 100
    },
    {
      "midi": 48,
      "hit": false,
      "t": 35238.05999999996,
      "d": 942.4593749999985,
      "v": 100
    },
    {
      "midi": 70,
      "hit": false,
      "t": 35238.05999999997,
      "d": 466.2693750000035,
      "v": 100
    },
    {
      "midi": 60,
      "hit": false,
      "t": 35476.15499999995,
      "d": 228.17437500000233,
      "v": 100
    },
    {
      "midi": 70,
      "hit": false,
      "t": 35476.154999999955,
      "d": 228.17437500000233,
      "v": 100
    },
    {
      "midi": 52,
      "hit": false,
      "t": 35714.24999999995,
      "d": 228.17437500000233,
      "v": 100
    },
    {
      "midi": 64,
      "hit": false,
      "t": 35714.249999999956,
      "d": 466.2693750000035,
      "v": 100
    },
    {
      "midi": 67,
      "hit": false,
      "t": 35714.24999999997,
      "d": 466.2693750000035,
      "v": 100
    },
    {
      "midi": 60,
      "hit": false,
      "t": 35952.34499999995,
      "d": 228.17437500000233,
      "v": 100
    },
    {
      "midi": 48,
      "hit": false,
      "t": 36190.43999999995,
      "d": 942.4593750000058,
      "v": 100
    },
    {
      "midi": 60,
      "hit": false,
      "t": 36190.43999999995,
      "d": 942.4593750000058,
      "v": 100
    },
    {
      "midi": 60,
      "hit": false,
      "t": 36190.43999999996,
      "d": 942.4593750000058,
      "v": 100
    },
    {
      "midi": 53,
      "hit": false,
      "t": 36190.43999999996,
      "d": 466.2693750000035,
      "v": 100
    },
    {
      "midi": 65,
      "hit": false,
      "t": 36190.43999999997,
      "d": 1894.8393750000032,
      "v": 100
    },
    {
      "midi": 57,
      "hit": false,
      "t": 36428.53499999995,
      "d": 228.17437500000233,
      "v": 100
    },
    {
      "midi": 65,
      "hit": false,
      "t": 36428.53499999996,
      "d": 228.17437500000233,
      "v": 100
    },
    {
      "midi": 53,
      "hit": false,
      "t": 36666.629999999954,
      "d": 466.2693750000035,
      "v": 100
    },
    {
      "midi": 69,
      "hit": false,
      "t": 36666.62999999996,
      "d": 466.2693750000035,
      "v": 100
    },
    {
      "midi": 48,
      "hit": false,
      "t": 36666.62999999996,
      "d": 466.2693750000035,
      "v": 100
    },
    {
      "midi": 57,
      "hit": false,
      "t": 36904.724999999955,
      "d": 942.4593750000058,
      "v": 100
    },
    {
      "midi": 72,
      "hit": false,
      "t": 36904.72499999996,
      "d": 466.2693750000035,
      "v": 100
    },
    {
      "midi": 48,
      "hit": false,
      "t": 37142.819999999956,
      "d": 942.4593750000058,
      "v": 100
    },
    {
      "midi": 41,
      "hit": false,
      "t": 37142.81999999996,
      "d": 942.4593749999985,
      "v": 100
    },
    {
      "midi": 60,
      "hit": false,
      "t": 37380.91499999996,
      "d": 228.17437500000233,
      "v": 100
    },
    {
      "midi": 69,
      "hit": false,
      "t": 37380.914999999964,
      "d": 228.17437500000233,
      "v": 100
    },
    {
      "midi": 53,
      "hit": false,
      "t": 37619.00999999996,
      "d": 228.17437500000233,
      "v": 100
    },
    {
      "midi": 65,
      "hit": false,
      "t": 37619.009999999966,
      "d": 466.2693750000035,
      "v": 100
    },
    {
      "midi": 60,
      "hit": false,
      "t": 37857.10499999996,
      "d": 228.17437500000233,
      "v": 100
    },
    {
      "midi": 48,
      "hit": false,
      "t": 38095.19999999996,
      "d": 942.4593750000058,
      "v": 100
    },
    {
      "midi": 60,
      "hit": false,
      "t": 38095.19999999996,
      "d": 942.4593750000058,
      "v": 100
    },
    {
      "midi": 48,
      "hit": false,
      "t": 38095.19999999996,
      "d": 942.4593749999985,
      "v": 100
    },
    {
      "midi": 58,
      "hit": false,
      "t": 38095.19999999997,
      "d": 942.4593750000058,
      "v": 100
    },
    {
      "midi": 72,
      "hit": false,
      "t": 38095.199999999975,
      "d": 1894.8393750000032,
      "v": 100
    },
    {
      "midi": 58,
      "hit": false,
      "t": 38333.29499999996,
      "d": 228.17437500000233,
      "v": 100
    },
    {
      "midi": 64,
      "hit": false,
      "t": 38333.29499999997,
      "d": 228.17437500000233,
      "v": 100
    },
    {
      "midi": 52,
      "hit": false,
      "t": 38571.38999999996,
      "d": 466.2693750000035,
      "v": 100
    },
    {
      "midi": 67,
      "hit": false,
      "t": 38571.38999999997,
      "d": 228.17437500000233,
      "v": 100
    },
    {
      "midi": 58,
      "hit": false,
      "t": 38809.484999999964,
      "d": 942.4593750000058,
      "v": 100
    },
    {
      "midi": 70,
      "hit": false,
      "t": 38809.48499999997,
      "d": 466.2693750000035,
      "v": 100
    },
    {
      "midi": 48,
      "hit": false,
      "t": 39047.57999999996,
      "d": 942.4593749999985,
      "v": 100
    },
    {
      "midi": 48,
      "hit": false,
      "t": 39047.579999999965,
      "d": 942.4593750000058,
      "v": 100
    },
    {
      "midi": 60,
      "hit": false,
      "t": 39285.67499999997,
      "d": 228.17437500000233,
      "v": 100
    },
    {
      "midi": 67,
      "hit": false,
      "t": 39285.674999999974,
      "d": 228.17437500000233,
      "v": 100
    },
    {
      "midi": 52,
      "hit": false,
      "t": 39523.76999999997,
      "d": 228.17437500000233,
      "v": 100
    },
    {
      "midi": 64,
      "hit": false,
      "t": 39523.769999999975,
      "d": 466.2693750000035,
      "v": 100
    },
    {
      "midi": 60,
      "hit": false,
      "t": 39761.86499999997,
      "d": 228.17437500000233,
      "v": 100
    },
    {
      "midi": 48,
      "hit": false,
      "t": 39999.959999999955,
      "d": 942.4593749999985,
      "v": 100
    },
    {
      "midi": 48,
      "hit": false,
      "t": 39999.95999999997,
      "d": 942.4593750000058,
      "v": 100
    },
    {
      "midi": 60,
      "hit": false,
      "t": 39999.95999999997,
      "d": 942.4593750000058,
      "v": 100
    },
    {
      "midi": 70,
      "hit": false,
      "t": 39999.95999999998,
      "d": 942.4593749999985,
      "v": 100
    },
    {
      "midi": 60,
      "hit": false,
      "t": 39999.95999999998,
      "d": 942.4593750000058,
      "v": 100
    },
    {
      "midi": 58,
      "hit": false,
      "t": 40238.05499999997,
      "d": 228.17437500000233,
      "v": 100
    },
    {
      "midi": 64,
      "hit": false,
      "t": 40238.05499999998,
      "d": 228.17437500000233,
      "v": 100
    },
    {
      "midi": 52,
      "hit": false,
      "t": 40476.14999999997,
      "d": 466.2693750000035,
      "v": 100
    },
    {
      "midi": 70,
      "hit": false,
      "t": 40476.14999999998,
      "d": 228.17437500000233,
      "v": 100
    },
    {
      "midi": 58,
      "hit": false,
      "t": 40714.24499999997,
      "d": 942.4593750000058,
      "v": 100
    },
    {
      "midi": 72,
      "hit": false,
      "t": 40714.24499999998,
      "d": 466.2693750000035,
      "v": 100
    },
    {
      "midi": 48,
      "hit": false,
      "t": 40952.33999999995,
      "d": 942.4593749999985,
      "v": 100
    },
    {
      "midi": 67,
      "hit": false,
      "t": 40952.339999999975,
      "d": 942.4593749999985,
      "v": 100
    },
    {
      "midi": 48,
      "hit": false,
      "t": 40952.339999999975,
      "d": 942.4593750000058,
      "v": 100
    },
    {
      "midi": 60,
      "hit": false,
      "t": 41190.434999999976,
      "d": 228.17437500000233,
      "v": 100
    },
    {
      "midi": 70,
      "hit": false,
      "t": 41190.43499999998,
      "d": 228.17437500000233,
      "v": 100
    },
    {
      "midi": 52,
      "hit": false,
      "t": 41428.52999999998,
      "d": 228.17437500000233,
      "v": 100
    },
    {
      "midi": 64,
      "hit": false,
      "t": 41428.529999999984,
      "d": 466.2693750000035,
      "v": 100
    },
    {
      "midi": 60,
      "hit": false,
      "t": 41666.62499999998,
      "d": 228.17437500000233,
      "v": 100
    },
    {
      "midi": 53,
      "hit": false,
      "t": 41904.71999999995,
      "d": 942.4593749999985,
      "v": 100
    },
    {
      "midi": 65,
      "hit": false,
      "t": 41904.71999999997,
      "d": 942.4593749999985,
      "v": 100
    },
    {
      "midi": 60,
      "hit": false,
      "t": 41904.71999999998,
      "d": 942.4593750000058,
      "v": 100
    },
    {
      "midi": 48,
      "hit": false,
      "t": 41904.71999999998,
      "d": 942.4593750000058,
      "v": 100
    },
    {
      "midi": 60,
      "hit": false,
      "t": 41904.71999999999,
      "d": 942.4593750000058,
      "v": 100
    },
    {
      "midi": 57,
      "hit": false,
      "t": 42142.81499999998,
      "d": 228.17437500000233,
      "v": 100
    },
    {
      "midi": 65,
      "hit": false,
      "t": 42142.81499999999,
      "d": 228.17437500000233,
      "v": 100
    },
    {
      "midi": 53,
      "hit": false,
      "t": 42380.90999999998,
      "d": 466.2693750000035,
      "v": 100
    },
    {
      "midi": 69,
      "hit": false,
      "t": 42380.90999999999,
      "d": 466.2693750000035,
      "v": 100
    },
    {
      "midi": 57,
      "hit": false,
      "t": 42619.00499999998,
      "d": 942.4593750000058,
      "v": 100
    },
    {
      "midi": 72,
      "hit": false,
      "t": 42619.00499999999,
      "d": 466.2693750000035,
      "v": 100
    },
    {
      "midi": 52,
      "hit": false,
      "t": 42857.09999999995,
      "d": 942.4593749999985,
      "v": 100
    },
    {
      "midi": 67,
      "hit": false,
      "t": 42857.09999999997,
      "d": 942.4593749999985,
      "v": 100
    },
    {
      "midi": 48,
      "hit": false,
      "t": 42857.099999999984,
      "d": 942.4593750000058,
      "v": 100
    },
    {
      "midi": 60,
      "hit": false,
      "t": 43095.194999999985,
      "d": 228.17437500000233,
      "v": 100
    },
    {
      "midi": 70,
      "hit": false,
      "t": 43095.19499999999,
      "d": 228.17437500000233,
      "v": 100
    },
    {
      "midi": 52,
      "hit": false,
      "t": 43333.289999999986,
      "d": 228.17437500000233,
      "v": 100
    },
    {
      "midi": 67,
      "hit": false,
      "t": 43333.28999999999,
      "d": 466.2693750000035,
      "v": 100
    },
    {
      "midi": 60,
      "hit": false,
      "t": 43571.38499999999,
      "d": 228.17437500000233,
      "v": 100
    },
    {
      "midi": 50,
      "hit": false,
      "t": 43809.479999999945,
      "d": 1894.8393750000032,
      "v": 100
    },
    {
      "midi": 69,
      "hit": false,
      "t": 43809.47999999997,
      "d": 1418.6493750000009,
      "v": 100
    },
    {
      "midi": 62,
      "hit": false,
      "t": 43809.47999999999,
      "d": 942.4593750000058,
      "v": 100
    },
    {
      "midi": 45,
      "hit": false,
      "t": 43809.47999999999,
      "d": 942.4593750000058,
      "v": 100
    },
    {
      "midi": 57,
      "hit": false,
      "t": 43809.479999999996,
      "d": 942.4593750000058,
      "v": 100
    },
    {
      "midi": 57,
      "hit": false,
      "t": 44047.57499999999,
      "d": 228.17437500000233,
      "v": 100
    },
    {
      "midi": 62,
      "hit": false,
      "t": 44047.575,
      "d": 228.17437500000233,
      "v": 100
    },
    {
      "midi": 50,
      "hit": false,
      "t": 44285.66999999999,
      "d": 228.17437500000233,
      "v": 100
    },
    {
      "midi": 69,
      "hit": false,
      "t": 44285.67,
      "d": 228.17437500000233,
      "v": 100
    },
    {
      "midi": 57,
      "hit": false,
      "t": 44523.76499999999,
      "d": 714.2850000000035,
      "v": 100
    },
    {
      "midi": 74,
      "hit": false,
      "t": 44523.765,
      "d": 942.4593750000058,
      "v": 100
    },
    {
      "midi": 50,
      "hit": false,
      "t": 44761.85999999999,
      "d": 942.4593750000058,
      "v": 100
    },
    {
      "midi": 62,
      "hit": false,
      "t": 44999.954999999994,
      "d": 228.17437500000233,
      "v": 100
    },
    {
      "midi": 69,
      "hit": false,
      "t": 44999.955,
      "d": 228.17437500000233,
      "v": 100
    },
    {
      "midi": 72,
      "hit": false,
      "t": 45238.04999999997,
      "d": 466.2693750000035,
      "v": 100
    },
    {
      "midi": 57,
      "hit": false,
      "t": 45238.049999999996,
      "d": 228.17437500000233,
      "v": 100
    },
    {
      "midi": 65,
      "hit": false,
      "t": 45238.05,
      "d": 466.2693750000035,
      "v": 100
    },
    {
      "midi": 62,
      "hit": false,
      "t": 45476.145,
      "d": 228.17437500000233,
      "v": 100
    },
    {
      "midi": 58,
      "hit": false,
      "t": 45714.23999999995,
      "d": 942.4593749999985,
      "v": 100
    },
    {
      "midi": 77,
      "hit": false,
      "t": 45714.23999999997,
      "d": 704.3643749999974,
      "v": 100
    },
    {
      "midi": 62,
      "hit": false,
      "t": 45714.24,
      "d": 942.4593750000058,
      "v": 100
    },
    {
      "midi": 46,
      "hit": false,
      "t": 45714.24,
      "d": 942.4593750000058,
      "v": 100
    },
    {
      "midi": 58,
      "hit": false,
      "t": 45714.240000000005,
      "d": 942.4593750000058,
      "v": 100
    },
    {
      "midi": 58,
      "hit": false,
      "t": 45952.335,
      "d": 228.17437500000233,
      "v": 100
    },
    {
      "midi": 65,
      "hit": false,
      "t": 45952.33500000001,
      "d": 228.17437500000233,
      "v": 100
    },
    {
      "midi": 53,
      "hit": false,
      "t": 46190.43,
      "d": 466.2693750000035,
      "v": 100
    },
    {
      "midi": 70,
      "hit": false,
      "t": 46190.43000000001,
      "d": 228.17437500000233,
      "v": 100
    },
    {
      "midi": 76,
      "hit": false,
      "t": 46428.524999999965,
      "d": 228.17437500000233,
      "v": 100
    },
    {
      "midi": 58,
      "hit": false,
      "t": 46428.525,
      "d": 714.2850000000035,
      "v": 100
    },
    {
      "midi": 74,
      "hit": false,
      "t": 46428.52500000001,
      "d": 942.4593750000058,
      "v": 100
    },
    {
      "midi": 58,
      "hit": false,
      "t": 46666.619999999944,
      "d": 942.4593749999985,
      "v": 100
    },
    {
      "midi": 74,
      "hit": false,
      "t": 46666.619999999966,
      "d": 704.3643749999974,
      "v": 100
    },
    {
      "midi": 46,
      "hit": false,
      "t": 46666.62,
      "d": 942.4593750000058,
      "v": 100
    },
    {
      "midi": 62,
      "hit": false,
      "t": 46904.715000000004,
      "d": 228.17437500000233,
      "v": 100
    },
    {
      "midi": 70,
      "hit": false,
      "t": 46904.71500000001,
      "d": 228.17437500000233,
      "v": 100
    },
    {
      "midi": 58,
      "hit": false,
      "t": 47142.810000000005,
      "d": 228.17437500000233,
      "v": 100
    },
    {
      "midi": 65,
      "hit": false,
      "t": 47142.81000000001,
      "d": 466.2693750000035,
      "v": 100
    },
    {
      "midi": 72,
      "hit": false,
      "t": 47380.90499999996,
      "d": 228.17437500000233,
      "v": 100
    },
    {
      "midi": 62,
      "hit": false,
      "t": 47380.905000000006,
      "d": 228.17437500000233,
      "v": 100
    },
    {
      "midi": 57,
      "hit": false,
      "t": 47618.99999999994,
      "d": 942.4593749999985,
      "v": 100
    },
    {
      "midi": 72,
      "hit": false,
      "t": 47618.99999999996,
      "d": 942.4593749999985,
      "v": 100
    },
    {
      "midi": 48,
      "hit": false,
      "t": 47619.00000000001,
      "d": 942.4593750000058,
      "v": 100
    },
    {
      "midi": 60,
      "hit": false,
      "t": 47619.00000000001,
      "d": 942.4593750000058,
      "v": 100
    },
    {
      "midi": 60,
      "hit": false,
      "t": 47619.000000000015,
      "d": 942.4593750000058,
      "v": 100
    },
    {
      "midi": 57,
      "hit": false,
      "t": 47857.09500000001,
      "d": 228.17437500000233,
      "v": 100
    },
    {
      "midi": 65,
      "hit": false,
      "t": 47857.095000000016,
      "d": 228.17437500000233,
      "v": 100
    },
    {
      "midi": 53,
      "hit": false,
      "t": 48095.19000000001,
      "d": 466.2693750000035,
      "v": 100
    },
    {
      "midi": 69,
      "hit": false,
      "t": 48095.19000000002,
      "d": 466.2693750000035,
      "v": 100
    },
    {
      "midi": 57,
      "hit": false,
      "t": 48333.28500000001,
      "d": 942.4593750000058,
      "v": 100
    },
    {
      "midi": 72,
      "hit": false,
      "t": 48333.28500000002,
      "d": 466.2693750000035,
      "v": 100
    },
    {
      "midi": 53,
      "hit": false,
      "t": 48571.37999999994,
      "d": 942.4593749999985,
      "v": 100
    },
    {
      "midi": 69,
      "hit": false,
      "t": 48571.37999999996,
      "d": 466.2693750000035,
      "v": 100
    },
    {
      "midi": 48,
      "hit": false,
      "t": 48571.38000000001,
      "d": 942.4593750000058,
      "v": 100
    },
    {
      "midi": 60,
      "hit": false,
      "t": 48809.47500000001,
      "d": 228.17437500000233,
      "v": 100
    },
    {
      "midi": 69,
      "hit": false,
      "t": 48809.47500000002,
      "d": 228.17437500000233,
      "v": 100
    },
    {
      "midi": 72,
      "hit": false,
      "t": 49047.56999999996,
      "d": 466.2693750000035,
      "v": 100
    },
    {
      "midi": 53,
      "hit": false,
      "t": 49047.570000000014,
      "d": 228.17437500000233,
      "v": 100
    },
    {
      "midi": 65,
      "hit": false,
      "t": 49047.57000000002,
      "d": 466.2693750000035,
      "v": 100
    },
    {
      "midi": 60,
      "hit": false,
      "t": 49285.665000000015,
      "d": 228.17437500000233,
      "v": 100
    },
    {
      "midi": 48,
      "hit": false,
      "t": 49523.75999999994,
      "d": 942.4593749999985,
      "v": 100
    },
    {
      "midi": 72,
      "hit": false,
      "t": 49523.759999999966,
      "d": 466.2693750000035,
      "v": 100
    },
    {
      "midi": 48,
      "hit": false,
      "t": 49523.76000000002,
      "d": 942.4593750000058,
      "v": 100
    },
    {
      "midi": 60,
      "hit": false,
      "t": 49523.76000000002,
      "d": 942.4593750000058,
      "v": 100
    },
    {
      "midi": 60,
      "hit": false,
      "t": 49523.760000000024,
      "d": 942.4593750000058,
      "v": 100
    },
    {
      "midi": 58,
      "hit": false,
      "t": 49761.85500000002,
      "d": 228.17437500000233,
      "v": 100
    },
    {
      "midi": 64,
      "hit": false,
      "t": 49761.855000000025,
      "d": 228.17437500000233,
      "v": 100
    },
    {
      "midi": 74,
      "hit": false,
      "t": 49999.94999999997,
      "d": 466.2693750000035,
      "v": 100
    },
    {
      "midi": 52,
      "hit": false,
      "t": 49999.95000000002,
      "d": 466.2693750000035,
      "v": 100
    },
    {
      "midi": 70,
      "hit": false,
      "t": 49999.950000000026,
      "d": 228.17437500000233,
      "v": 100
    },
    {
      "midi": 58,
      "hit": false,
      "t": 50238.04500000002,
      "d": 942.4593750000058,
      "v": 100
    },
    {
      "midi": 72,
      "hit": false,
      "t": 50238.04500000003,
      "d": 466.2693750000035,
      "v": 100
    },
    {
      "midi": 48,
      "hit": false,
      "t": 50476.139999999934,
      "d": 942.4593749999985,
      "v": 100
    },
    {
      "midi": 70,
      "hit": false,
      "t": 50476.13999999997,
      "d": 466.2693750000035,
      "v": 100
    },
    {
      "midi": 48,
      "hit": false,
      "t": 50476.14000000002,
      "d": 942.4593750000058,
      "v": 100
    },
    {
      "midi": 60,
      "hit": false,
      "t": 50714.23500000002,
      "d": 228.17437500000233,
      "v": 100
    },
    {
      "midi": 70,
      "hit": false,
      "t": 50714.23500000003,
      "d": 228.17437500000233,
      "v": 100
    },
    {
      "midi": 67,
      "hit": false,
      "t": 50952.32999999997,
      "d": 466.2693750000035,
      "v": 100
    },
    {
      "midi": 52,
      "hit": false,
      "t": 50952.33000000002,
      "d": 228.17437500000233,
      "v": 100
    },
    {
      "midi": 64,
      "hit": false,
      "t": 50952.33000000003,
      "d": 466.2693750000035,
      "v": 100
    },
    {
      "midi": 60,
      "hit": false,
      "t": 51190.425000000025,
      "d": 228.17437500000233,
      "v": 100
    },
    {
      "midi": 53,
      "hit": false,
      "t": 51428.51999999993,
      "d": 1418.6493750000009,
      "v": 100
    },
    {
      "midi": 65,
      "hit": false,
      "t": 51428.519999999975,
      "d": 1894.8393750000032,
      "v": 100
    },
    {
      "midi": 60,
      "hit": false,
      "t": 51428.520000000026,
      "d": 942.4593750000058,
      "v": 100
    },
    {
      "midi": 48,
      "hit": false,
      "t": 51428.520000000026,
      "d": 942.4593750000058,
      "v": 100
    },
    {
      "midi": 60,
      "hit": false,
      "t": 51428.52000000003,
      "d": 942.4593750000058,
      "v": 100
    },
    {
      "midi": 57,
      "hit": false,
      "t": 51666.61500000003,
      "d": 228.17437500000233,
      "v": 100
    },
    {
      "midi": 65,
      "hit": false,
      "t": 51666.615000000034,
      "d": 228.17437500000233,
      "v": 100
    },
    {
      "midi": 53,
      "hit": false,
      "t": 51904.71000000003,
      "d": 466.2693750000035,
      "v": 100
    },
    {
      "midi": 69,
      "hit": false,
      "t": 51904.710000000036,
      "d": 466.2693750000035,
      "v": 100
    },
    {
      "midi": 57,
      "hit": false,
      "t": 52142.80500000003,
      "d": 942.4593750000058,
      "v": 100
    },
    {
      "midi": 72,
      "hit": false,
      "t": 52142.80500000004,
      "d": 466.2693750000035,
      "v": 100
    },
    {
      "midi": 48,
      "hit": false,
      "t": 52380.90000000003,
      "d": 942.4593750000058,
      "v": 100
    },
    {
      "midi": 60,
      "hit": false,
      "t": 52618.99500000003,
      "d": 228.17437500000233,
      "v": 100
    },
    {
      "midi": 69,
      "hit": false,
      "t": 52618.99500000004,
      "d": 228.17437500000233,
      "v": 100
    },
    {
      "midi": 53,
      "hit": false,
      "t": 52857.08999999993,
      "d": 466.2693750000035,
      "v": 100
    },
    {
      "midi": 53,
      "hit": false,
      "t": 52857.09000000003,
      "d": 228.17437500000233,
      "v": 100
    },
    {
      "midi": 65,
      "hit": false,
      "t": 52857.09000000004,
      "d": 466.2693750000035,
      "v": 100
    },
    {
      "midi": 60,
      "hit": false,
      "t": 53095.185000000034,
      "d": 228.17437500000233,
      "v": 100
    },
    {
      "midi": 60,
      "hit": false,
      "t": 53333.27999999993,
      "d": 1418.6493750000009,
      "v": 100
    },
    {
      "midi": 48,
      "hit": false,
      "t": 53333.280000000035,
      "d": 942.4593750000058,
      "v": 100
    },
    {
      "midi": 60,
      "hit": false,
      "t": 53333.280000000035,
      "d": 942.4593750000058,
      "v": 100
    },
    {
      "midi": 60,
      "hit": false,
      "t": 53333.28000000004,
      "d": 942.4593750000058,
      "v": 100
    },
    {
      "midi": 58,
      "hit": false,
      "t": 53571.37500000004,
      "d": 228.17437500000233,
      "v": 100
    },
    {
      "midi": 64,
      "hit": false,
      "t": 53571.375000000044,
      "d": 228.17437500000233,
      "v": 100
    },
    {
      "midi": 52,
      "hit": false,
      "t": 53809.47000000004,
      "d": 466.2693750000035,
      "v": 100
    },
    {
      "midi": 70,
      "hit": false,
      "t": 53809.470000000045,
      "d": 228.17437500000233,
      "v": 100
    },
    {
      "midi": 58,
      "hit": false,
      "t": 54047.56500000004,
      "d": 942.4593750000058,
      "v": 100
    },
    {
      "midi": 72,
      "hit": false,
      "t": 54047.565000000046,
      "d": 466.2693750000035,
      "v": 100
    },
    {
      "midi": 48,
      "hit": false,
      "t": 54285.66000000004,
      "d": 942.4593750000058,
      "v": 100
    },
    {
      "midi": 60,
      "hit": false,
      "t": 54523.75500000004,
      "d": 228.17437500000233,
      "v": 100
    },
    {
      "midi": 70,
      "hit": false,
      "t": 54523.75500000005,
      "d": 228.17437500000233,
      "v": 100
    },
    {
      "midi": 48,
      "hit": false,
      "t": 54761.84999999993,
      "d": 466.2693750000035,
      "v": 100
    },
    {
      "midi": 52,
      "hit": false,
      "t": 54761.85000000004,
      "d": 228.17437500000233,
      "v": 100
    },
    {
      "midi": 64,
      "hit": false,
      "t": 54761.85000000005,
      "d": 466.2693750000035,
      "v": 100
    },
    {
      "midi": 60,
      "hit": false,
      "t": 54999.94500000004,
      "d": 228.17437500000233,
      "v": 100
    },
    {
      "midi": 53,
      "hit": false,
      "t": 55238.039999999935,
      "d": 1418.6493750000009,
      "v": 100
    },
    {
      "midi": 48,
      "hit": false,
      "t": 55238.040000000045,
      "d": 942.4593750000058,
      "v": 100
    },
    {
      "midi": 60,
      "hit": false,
      "t": 55238.040000000045,
      "d": 942.4593750000058,
      "v": 100
    },
    {
      "midi": 60,
      "hit": false,
      "t": 55238.04000000005,
      "d": 942.4593750000058,
      "v": 100
    },
    {
      "midi": 57,
      "hit": false,
      "t": 55476.135000000046,
      "d": 228.17437500000233,
      "v": 100
    },
    {
      "midi": 65,
      "hit": false,
      "t": 55476.13500000005,
      "d": 228.17437500000233,
      "v": 100
    },
    {
      "midi": 53,
      "hit": false,
      "t": 55714.23000000005,
      "d": 466.2693750000035,
      "v": 100
    },
    {
      "midi": 69,
      "hit": false,
      "t": 55714.230000000054,
      "d": 466.2693750000035,
      "v": 100
    },
    {
      "midi": 57,
      "hit": false,
      "t": 55952.32500000005,
      "d": 942.4593750000058,
      "v": 100
    },
    {
      "midi": 72,
      "hit": false,
      "t": 55952.325000000055,
      "d": 466.2693750000035,
      "v": 100
    },
    {
      "midi": 48,
      "hit": false,
      "t": 56190.42000000005,
      "d": 942.4593750000058,
      "v": 100
    },
    {
      "midi": 60,
      "hit": false,
      "t": 56428.51500000005,
      "d": 228.17437500000233,
      "v": 100
    },
    {
      "midi": 69,
      "hit": false,
      "t": 56428.51500000006,
      "d": 228.17437500000233,
      "v": 100
    },
    {
      "midi": 53,
      "hit": false,
      "t": 56666.609999999935,
      "d": 466.2693750000035,
      "v": 100
    },
    {
      "midi": 53,
      "hit": false,
      "t": 56666.61000000005,
      "d": 228.17437500000233,
      "v": 100
    },
    {
      "midi": 65,
      "hit": false,
      "t": 56666.61000000006,
      "d": 466.2693750000035,
      "v": 100
    },
    {
      "midi": 60,
      "hit": false,
      "t": 56904.70500000005,
      "d": 228.17437500000233,
      "v": 100
    },
    {
      "midi": 60,
      "hit": false,
      "t": 57142.79999999994,
      "d": 1418.6493750000009,
      "v": 100
    },
    {
      "midi": 48,
      "hit": false,
      "t": 57142.800000000054,
      "d": 942.4593750000058,
      "v": 100
    },
    {
      "midi": 60,
      "hit": false,
      "t": 57142.800000000054,
      "d": 942.4593750000058,
      "v": 100
    },
    {
      "midi": 60,
      "hit": false,
      "t": 57142.80000000006,
      "d": 942.4593750000058,
      "v": 100
    },
    {
      "midi": 58,
      "hit": false,
      "t": 57380.895000000055,
      "d": 228.17437500000233,
      "v": 100
    },
    {
      "midi": 64,
      "hit": false,
      "t": 57380.89500000006,
      "d": 228.17437500000233,
      "v": 100
    },
    {
      "midi": 52,
      "hit": false,
      "t": 57618.990000000056,
      "d": 466.2693750000035,
      "v": 100
    },
    {
      "midi": 70,
      "hit": false,
      "t": 57618.99000000006,
      "d": 228.17437500000233,
      "v": 100
    },
    {
      "midi": 58,
      "hit": false,
      "t": 57857.08500000006,
      "d": 942.4593750000058,
      "v": 100
    },
    {
      "midi": 72,
      "hit": false,
      "t": 57857.085000000065,
      "d": 466.2693750000035,
      "v": 100
    },
    {
      "midi": 48,
      "hit": false,
      "t": 58095.18000000006,
      "d": 942.4593750000058,
      "v": 100
    },
    {
      "midi": 60,
      "hit": false,
      "t": 58333.27500000006,
      "d": 228.17437500000233,
      "v": 100
    },
    {
      "midi": 70,
      "hit": false,
      "t": 58333.27500000007,
      "d": 228.17437500000233,
      "v": 100
    },
    {
      "midi": 48,
      "hit": false,
      "t": 58571.36999999994,
      "d": 466.2693750000035,
      "v": 100
    },
    {
      "midi": 65,
      "hit": false,
      "t": 58571.36999999998,
      "d": 466.2693750000035,
      "v": 100
    },
    {
      "midi": 60,
      "hit": false,
      "t": 58571.369999999995,
      "d": 466.2693750000035,
      "v": 100
    },
    {
      "midi": 53,
      "hit": false,
      "t": 58571.37000000006,
      "d": 228.17437500000233,
      "v": 100
    },
    {
      "midi": 65,
      "hit": false,
      "t": 58571.37000000007,
      "d": 466.2693750000035,
      "v": 100
    },
    {
      "midi": 60,
      "hit": false,
      "t": 58809.46500000006,
      "d": 228.17437500000233,
      "v": 100
    },
    {
      "midi": 53,
      "hit": false,
      "t": 59047.55999999994,
      "d": 942.4593749999985,
      "v": 100
    },
    {
      "midi": 69,
      "hit": false,
      "t": 59047.55999999998,
      "d": 704.3643749999974,
      "v": 100
    },
    {
      "midi": 65,
      "hit": false,
      "t": 59047.56,
      "d": 704.3643749999974,
      "v": 100
    },
    {
      "midi": 60,
      "hit": false,
      "t": 59047.56000000006,
      "d": 942.4593750000058,
      "v": 100
    },
    {
      "midi": 48,
      "hit": false,
      "t": 59047.56000000006,
      "d": 942.4593750000058,
      "v": 100
    },
    {
      "midi": 60,
      "hit": false,
      "t": 59047.56000000007,
      "d": 942.4593750000058,
      "v": 100
    },
    {
      "midi": 57,
      "hit": false,
      "t": 59285.655000000064,
      "d": 228.17437500000233,
      "v": 100
    },
    {
      "midi": 65,
      "hit": false,
      "t": 59285.65500000007,
      "d": 228.17437500000233,
      "v": 100
    },
    {
      "midi": 53,
      "hit": false,
      "t": 59523.750000000065,
      "d": 466.2693750000035,
      "v": 100
    },
    {
      "midi": 69,
      "hit": false,
      "t": 59523.75000000007,
      "d": 466.2693750000035,
      "v": 100
    },
    {
      "midi": 70,
      "hit": false,
      "t": 59761.84499999998,
      "d": 228.17437500000233,
      "v": 100
    },
    {
      "midi": 67,
      "hit": false,
      "t": 59761.844999999994,
      "d": 228.17437500000233,
      "v": 100
    },
    {
      "midi": 58,
      "hit": false,
      "t": 59761.84500000007,
      "d": 942.4593750000058,
      "v": 100
    },
    {
      "midi": 70,
      "hit": false,
      "t": 59761.845000000074,
      "d": 466.2693750000035,
      "v": 100
    },
    {
      "midi": 55,
      "hit": false,
      "t": 59999.93999999994,
      "d": 942.4593749999985,
      "v": 100
    },
    {
      "midi": 70,
      "hit": false,
      "t": 59999.93999999998,
      "d": 704.3643749999974,
      "v": 100
    },
    {
      "midi": 67,
      "hit": false,
      "t": 59999.939999999995,
      "d": 704.3643749999974,
      "v": 100
    },
    {
      "midi": 48,
      "hit": false,
      "t": 59999.94000000007,
      "d": 942.4593750000058,
      "v": 100
    },
    {
      "midi": 60,
      "hit": false,
      "t": 60238.03500000007,
      "d": 228.17437500000233,
      "v": 100
    },
    {
      "midi": 67,
      "hit": false,
      "t": 60238.035000000076,
      "d": 228.17437500000233,
      "v": 100
    },
    {
      "midi": 55,
      "hit": false,
      "t": 60476.13000000007,
      "d": 228.17437500000233,
      "v": 100
    },
    {
      "midi": 64,
      "hit": false,
      "t": 60476.13000000008,
      "d": 466.2693750000035,
      "v": 100
    },
    {
      "midi": 74,
      "hit": false,
      "t": 60714.22499999998,
      "d": 228.17437500000233,
      "v": 100
    },
    {
      "midi": 70,
      "hit": false,
      "t": 60714.22499999999,
      "d": 228.17437500000233,
      "v": 100
    },
    {
      "midi": 58,
      "hit": false,
      "t": 60714.22500000007,
      "d": 228.17437500000233,
      "v": 100
    },
    {
      "midi": 57,
      "hit": false,
      "t": 60952.319999999934,
      "d": 942.4593749999985,
      "v": 100
    },
    {
      "midi": 72,
      "hit": false,
      "t": 60952.31999999998,
      "d": 942.4593749999985,
      "v": 100
    },
    {
      "midi": 69,
      "hit": false,
      "t": 60952.31999999999,
      "d": 942.4593749999985,
      "v": 100
    },
    {
      "midi": 60,
      "hit": false,
      "t": 60952.32000000007,
      "d": 942.4593750000058,
      "v": 100
    },
    {
      "midi": 48,
      "hit": false,
      "t": 60952.32000000007,
      "d": 942.4593750000058,
      "v": 100
    },
    {
      "midi": 60,
      "hit": false,
      "t": 60952.32000000008,
      "d": 942.4593750000058,
      "v": 100
    },
    {
      "midi": 57,
      "hit": false,
      "t": 61190.41500000007,
      "d": 228.17437500000233,
      "v": 100
    },
    {
      "midi": 65,
      "hit": false,
      "t": 61190.41500000008,
      "d": 228.17437500000233,
      "v": 100
    },
    {
      "midi": 53,
      "hit": false,
      "t": 61428.510000000075,
      "d": 466.2693750000035,
      "v": 100
    },
    {
      "midi": 69,
      "hit": false,
      "t": 61428.51000000008,
      "d": 466.2693750000035,
      "v": 100
    },
    {
      "midi": 57,
      "hit": false,
      "t": 61666.605000000076,
      "d": 942.4593750000058,
      "v": 100
    },
    {
      "midi": 72,
      "hit": false,
      "t": 61666.60500000008,
      "d": 466.2693750000035,
      "v": 100
    },
    {
      "midi": 60,
      "hit": false,
      "t": 61904.69999999993,
      "d": 942.4593749999985,
      "v": 100
    },
    {
      "midi": 69,
      "hit": false,
      "t": 61904.699999999975,
      "d": 466.2693750000035,
      "v": 100
    },
    {
      "midi": 65,
      "hit": false,
      "t": 61904.69999999999,
      "d": 466.2693750000035,
      "v": 100
    },
    {
      "midi": 48,
      "hit": false,
      "t": 61904.70000000008,
      "d": 942.4593750000058,
      "v": 100
    },
    {
      "midi": 60,
      "hit": false,
      "t": 62142.79500000008,
      "d": 228.17437500000233,
      "v": 100
    },
    {
      "midi": 69,
      "hit": false,
      "t": 62142.795000000086,
      "d": 228.17437500000233,
      "v": 100
    },
    {
      "midi": 72,
      "hit": false,
      "t": 62380.88999999998,
      "d": 466.2693750000035,
      "v": 100
    },
    {
      "midi": 69,
      "hit": false,
      "t": 62380.88999999999,
      "d": 466.2693750000035,
      "v": 100
    },
    {
      "midi": 53,
      "hit": false,
      "t": 62380.89000000008,
      "d": 228.17437500000233,
      "v": 100
    },
    {
      "midi": 65,
      "hit": false,
      "t": 62380.89000000009,
      "d": 466.2693750000035,
      "v": 100
    },
    {
      "midi": 60,
      "hit": false,
      "t": 62618.98500000008,
      "d": 228.17437500000233,
      "v": 100
    },
    {
      "midi": 48,
      "hit": false,
      "t": 62857.07999999993,
      "d": 942.4593749999985,
      "v": 100
    },
    {
      "midi": 70,
      "hit": false,
      "t": 62857.07999999998,
      "d": 704.3643749999974,
      "v": 100
    },
    {
      "midi": 67,
      "hit": false,
      "t": 62857.079999999994,
      "d": 704.3643749999974,
      "v": 100
    },
    {
      "midi": 48,
      "hit": false,
      "t": 62857.08000000008,
      "d": 942.4593750000058,
      "v": 100
    },
    {
      "midi": 60,
      "hit": false,
      "t": 62857.08000000008,
      "d": 942.4593750000058,
      "v": 100
    },
    {
      "midi": 60,
      "hit": false,
      "t": 62857.08000000009,
      "d": 942.4593750000058,
      "v": 100
    },
    {
      "midi": 58,
      "hit": false,
      "t": 63095.17500000008,
      "d": 228.17437500000233,
      "v": 100
    },
    {
      "midi": 64,
      "hit": false,
      "t": 63095.17500000009,
      "d": 228.17437500000233,
      "v": 100
    },
    {
      "midi": 52,
      "hit": false,
      "t": 63333.270000000084,
      "d": 466.2693750000035,
      "v": 100
    },
    {
      "midi": 70,
      "hit": false,
      "t": 63333.27000000009,
      "d": 228.17437500000233,
      "v": 100
    },
    {
      "midi": 69,
      "hit": false,
      "t": 63571.364999999976,
      "d": 228.17437500000233,
      "v": 100
    },
    {
      "midi": 66,
      "hit": false,
      "t": 63571.36499999999,
      "d": 228.17437500000233,
      "v": 100
    },
    {
      "midi": 58,
      "hit": false,
      "t": 63571.365000000085,
      "d": 942.4593750000058,
      "v": 100
    },
    {
      "midi": 72,
      "hit": false,
      "t": 63571.36500000009,
      "d": 466.2693750000035,
      "v": 100
    },
    {
      "midi": 48,
      "hit": false,
      "t": 63809.45999999993,
      "d": 942.4593749999985,
      "v": 100
    },
    {
      "midi": 70,
      "hit": false,
      "t": 63809.45999999998,
      "d": 466.2693750000035,
      "v": 100
    },
    {
      "midi": 67,
      "hit": false,
      "t": 63809.45999999999,
      "d": 466.2693750000035,
      "v": 100
    },
    {
      "midi": 48,
      "hit": false,
      "t": 63809.46000000009,
      "d": 942.4593750000058,
      "v": 100
    },
    {
      "midi": 60,
      "hit": false,
      "t": 64047.55500000009,
      "d": 228.17437500000233,
      "v": 100
    },
    {
      "midi": 70,
      "hit": false,
      "t": 64047.555000000095,
      "d": 228.17437500000233,
      "v": 100
    },
    {
      "midi": 67,
      "hit": false,
      "t": 64285.64999999998,
      "d": 466.2693750000035,
      "v": 100
    },
    {
      "midi": 64,
      "hit": false,
      "t": 64285.649999999994,
      "d": 466.2693750000035,
      "v": 100
    },
    {
      "midi": 52,
      "hit": false,
      "t": 64285.65000000009,
      "d": 228.17437500000233,
      "v": 100
    },
    {
      "midi": 64,
      "hit": false,
      "t": 64285.650000000096,
      "d": 466.2693750000035,
      "v": 100
    },
    {
      "midi": 60,
      "hit": false,
      "t": 64523.74500000009,
      "d": 228.17437500000233,
      "v": 100
    },
    {
      "midi": 53,
      "hit": false,
      "t": 64761.839999999924,
      "d": 466.2693750000035,
      "v": 100
    },
    {
      "midi": 69,
      "hit": false,
      "t": 64761.83999999998,
      "d": 1418.6493749999936,
      "v": 100
    },
    {
      "midi": 65,
      "hit": false,
      "t": 64761.84,
      "d": 1418.6493749999936,
      "v": 100
    },
    {
      "midi": 48,
      "hit": false,
      "t": 64761.84000000009,
      "d": 942.4593749999985,
      "v": 100
    },
    {
      "midi": 60,
      "hit": false,
      "t": 64761.84000000009,
      "d": 942.4593749999985,
      "v": 100
    },
    {
      "midi": 60,
      "hit": false,
      "t": 64761.8400000001,
      "d": 942.4593750000058,
      "v": 100
    },
    {
      "midi": 57,
      "hit": false,
      "t": 64999.93500000009,
      "d": 228.17437500000233,
      "v": 100
    },
    {
      "midi": 65,
      "hit": false,
      "t": 64999.9350000001,
      "d": 228.17437500000233,
      "v": 100
    },
    {
      "midi": 48,
      "hit": false,
      "t": 65238.029999999926,
      "d": 466.2693750000035,
      "v": 100
    },
    {
      "midi": 53,
      "hit": false,
      "t": 65238.03000000009,
      "d": 466.2693749999962,
      "v": 100
    },
    {
      "midi": 69,
      "hit": false,
      "t": 65238.0300000001,
      "d": 466.2693750000035,
      "v": 100
    },
    {
      "midi": 57,
      "hit": false,
      "t": 65476.125000000095,
      "d": 942.4593749999985,
      "v": 100
    },
    {
      "midi": 72,
      "hit": false,
      "t": 65476.1250000001,
      "d": 466.2693750000035,
      "v": 100
    },
    {
      "midi": 41,
      "hit": false,
      "t": 65714.21999999993,
      "d": 942.4593750000058,
      "v": 100
    },
    {
      "midi": 48,
      "hit": false,
      "t": 65714.22000000009,
      "d": 942.4593750000058,
      "v": 100
    },
    {
      "midi": 60,
      "hit": false,
      "t": 65952.31500000009,
      "d": 228.17437500000233,
      "v": 100
    },
    {
      "midi": 69,
      "hit": false,
      "t": 65952.3150000001,
      "d": 228.17437500000233,
      "v": 100
    },
    {
      "midi": 65,
      "hit": false,
      "t": 66190.40999999997,
      "d": 466.2693750000035,
      "v": 100
    },
    {
      "midi": 60,
      "hit": false,
      "t": 66190.40999999999,
      "d": 466.2693750000035,
      "v": 100
    },
    {
      "midi": 53,
      "hit": false,
      "t": 66190.41000000009,
      "d": 228.17437500000233,
      "v": 100
    },
    {
      "midi": 65,
      "hit": false,
      "t": 66190.4100000001,
      "d": 466.2693750000035,
      "v": 100
    },
    {
      "midi": 60,
      "hit": false,
      "t": 66428.50500000009,
      "d": 228.17437500000233,
      "v": 100
    },
    {
      "midi": 53,
      "hit": false,
      "t": 66666.59999999993,
      "d": 942.4593750000058,
      "v": 100
    },
    {
      "midi": 69,
      "hit": false,
      "t": 66666.59999999998,
      "d": 704.3643750000047,
      "v": 100
    },
    {
      "midi": 65,
      "hit": false,
      "t": 66666.59999999999,
      "d": 704.3643750000047,
      "v": 100
    },
    {
      "midi": 48,
      "hit": false,
      "t": 66666.6000000001,
      "d": 942.4593750000058,
      "v": 100
    },
    {
      "midi": 60,
      "hit": false,
      "t": 66666.6000000001,
      "d": 942.4593750000058,
      "v": 100
    },
    {
      "midi": 60,
      "hit": false,
      "t": 66666.60000000011,
      "d": 942.4593750000058,
      "v": 100
    },
    {
      "midi": 57,
      "hit": false,
      "t": 66904.6950000001,
      "d": 228.17437500000233,
      "v": 100
    },
    {
      "midi": 65,
      "hit": false,
      "t": 66904.69500000011,
      "d": 228.17437500000233,
      "v": 100
    },
    {
      "midi": 53,
      "hit": false,
      "t": 67142.7900000001,
      "d": 466.2693750000035,
      "v": 100
    },
    {
      "midi": 69,
      "hit": false,
      "t": 67142.79000000011,
      "d": 466.2693750000035,
      "v": 100
    },
    {
      "midi": 70,
      "hit": false,
      "t": 67380.88499999998,
      "d": 228.17437500000233,
      "v": 100
    },
    {
      "midi": 67,
      "hit": false,
      "t": 67380.885,
      "d": 228.17437500000233,
      "v": 100
    },
    {
      "midi": 58,
      "hit": false,
      "t": 67380.8850000001,
      "d": 942.4593750000058,
      "v": 100
    },
    {
      "midi": 70,
      "hit": false,
      "t": 67380.88500000011,
      "d": 466.2693750000035,
      "v": 100
    },
    {
      "midi": 55,
      "hit": false,
      "t": 67618.97999999994,
      "d": 942.4593750000058,
      "v": 100
    },
    {
      "midi": 70,
      "hit": false,
      "t": 67618.97999999998,
      "d": 704.3643750000047,
      "v": 100
    },
    {
      "midi": 67,
      "hit": false,
      "t": 67618.98,
      "d": 704.3643750000047,
      "v": 100
    },
    {
      "midi": 48,
      "hit": false,
      "t": 67618.9800000001,
      "d": 942.4593750000058,
      "v": 100
    },
    {
      "midi": 60,
      "hit": false,
      "t": 67857.0750000001,
      "d": 228.17437500000233,
      "v": 100
    },
    {
      "midi": 67,
      "hit": false,
      "t": 67857.07500000011,
      "d": 228.17437500000233,
      "v": 100
    },
    {
      "midi": 55,
      "hit": false,
      "t": 68095.1700000001,
      "d": 228.17437500000233,
      "v": 100
    },
    {
      "midi": 64,
      "hit": false,
      "t": 68095.17000000011,
      "d": 466.2693750000035,
      "v": 100
    },
    {
      "midi": 72,
      "hit": false,
      "t": 68333.26499999998,
      "d": 228.17437500000233,
      "v": 100
    },
    {
      "midi": 69,
      "hit": false,
      "t": 68333.265,
      "d": 228.17437500000233,
      "v": 100
    },
    {
      "midi": 58,
      "hit": false,
      "t": 68333.2650000001,
      "d": 228.17437500000233,
      "v": 100
    },
    {
      "midi": 57,
      "hit": false,
      "t": 68571.35999999994,
      "d": 942.4593750000058,
      "v": 100
    },
    {
      "midi": 72,
      "hit": false,
      "t": 68571.35999999999,
      "d": 704.3643750000047,
      "v": 100
    },
    {
      "midi": 69,
      "hit": false,
      "t": 68571.36,
      "d": 704.3643750000047,
      "v": 100
    },
    {
      "midi": 48,
      "hit": false,
      "t": 68571.3600000001,
      "d": 942.4593750000058,
      "v": 100
    },
    {
      "midi": 60,
      "hit": false,
      "t": 68571.3600000001,
      "d": 942.4593750000058,
      "v": 100
    },
    {
      "midi": 60,
      "hit": false,
      "t": 68571.36000000012,
      "d": 942.4593750000058,
      "v": 100
    },
    {
      "midi": 57,
      "hit": false,
      "t": 68809.4550000001,
      "d": 228.17437500000233,
      "v": 100
    },
    {
      "midi": 65,
      "hit": false,
      "t": 68809.45500000012,
      "d": 228.17437500000233,
      "v": 100
    },
    {
      "midi": 53,
      "hit": false,
      "t": 69047.5500000001,
      "d": 466.2693750000035,
      "v": 100
    },
    {
      "midi": 69,
      "hit": false,
      "t": 69047.55000000012,
      "d": 466.2693750000035,
      "v": 100
    },
    {
      "midi": 69,
      "hit": false,
      "t": 69285.64499999999,
      "d": 228.17437500000233,
      "v": 100
    },
    {
      "midi": 65,
      "hit": false,
      "t": 69285.645,
      "d": 228.17437500000233,
      "v": 100
    },
    {
      "midi": 57,
      "hit": false,
      "t": 69285.6450000001,
      "d": 942.4593750000058,
      "v": 100
    },
    {
      "midi": 72,
      "hit": false,
      "t": 69285.64500000012,
      "d": 466.2693750000035,
      "v": 100
    },
    {
      "midi": 60,
      "hit": false,
      "t": 69523.73999999995,
      "d": 942.4593750000058,
      "v": 100
    },
    {
      "midi": 69,
      "hit": false,
      "t": 69523.73999999999,
      "d": 466.2693750000035,
      "v": 100
    },
    {
      "midi": 65,
      "hit": false,
      "t": 69523.74,
      "d": 466.2693750000035,
      "v": 100
    },
    {
      "midi": 48,
      "hit": false,
      "t": 69523.7400000001,
      "d": 942.4593750000058,
      "v": 100
    },
    {
      "midi": 60,
      "hit": false,
      "t": 69761.83500000011,
      "d": 228.17437500000233,
      "v": 100
    },
    {
      "midi": 69,
      "hit": false,
      "t": 69761.83500000012,
      "d": 228.17437500000233,
      "v": 100
    },
    {
      "midi": 72,
      "hit": false,
      "t": 69999.93,
      "d": 466.2693750000035,
      "v": 100
    },
    {
      "midi": 69,
      "hit": false,
      "t": 69999.93000000001,
      "d": 466.2693750000035,
      "v": 100
    },
    {
      "midi": 53,
      "hit": false,
      "t": 69999.93000000011,
      "d": 228.17437500000233,
      "v": 100
    },
    {
      "midi": 65,
      "hit": false,
      "t": 69999.93000000012,
      "d": 466.2693750000035,
      "v": 100
    },
    {
      "midi": 60,
      "hit": false,
      "t": 70238.02500000011,
      "d": 228.17437500000233,
      "v": 100
    },
    {
      "midi": 48,
      "hit": false,
      "t": 70476.11999999995,
      "d": 942.4593750000058,
      "v": 100
    },
    {
      "midi": 72,
      "hit": false,
      "t": 70476.12,
      "d": 228.17437500000233,
      "v": 100
    },
    {
      "midi": 69,
      "hit": false,
      "t": 70476.12000000001,
      "d": 228.17437500000233,
      "v": 100
    },
    {
      "midi": 60,
      "hit": false,
      "t": 70476.12000000011,
      "d": 942.4593750000058,
      "v": 100
    },
    {
      "midi": 48,
      "hit": false,
      "t": 70476.12000000011,
      "d": 942.4593750000058,
      "v": 100
    },
    {
      "midi": 60,
      "hit": false,
      "t": 70476.12000000013,
      "d": 942.4593750000058,
      "v": 100
    },
    {
      "midi": 70,
      "hit": false,
      "t": 70714.215,
      "d": 704.3643750000047,
      "v": 100
    },
    {
      "midi": 67,
      "hit": false,
      "t": 70714.21500000001,
      "d": 704.3643750000047,
      "v": 100
    },
    {
      "midi": 58,
      "hit": false,
      "t": 70714.21500000011,
      "d": 228.17437500000233,
      "v": 100
    },
    {
      "midi": 64,
      "hit": false,
      "t": 70714.21500000013,
      "d": 228.17437500000233,
      "v": 100
    },
    {
      "midi": 52,
      "hit": false,
      "t": 70952.31000000011,
      "d": 466.2693750000035,
      "v": 100
    },
    {
      "midi": 70,
      "hit": false,
      "t": 70952.31000000013,
      "d": 228.17437500000233,
      "v": 100
    },
    {
      "midi": 58,
      "hit": false,
      "t": 71190.40500000012,
      "d": 942.4593750000058,
      "v": 100
    },
    {
      "midi": 72,
      "hit": false,
      "t": 71190.40500000013,
      "d": 466.2693750000035,
      "v": 100
    },
    {
      "midi": 48,
      "hit": false,
      "t": 71428.49999999996,
      "d": 942.4593750000058,
      "v": 100
    },
    {
      "midi": 67,
      "hit": false,
      "t": 71428.5,
      "d": 704.3643750000047,
      "v": 100
    },
    {
      "midi": 64,
      "hit": false,
      "t": 71428.50000000001,
      "d": 704.3643750000047,
      "v": 100
    },
    {
      "midi": 48,
      "hit": false,
      "t": 71428.50000000012,
      "d": 942.4593750000058,
      "v": 100
    },
    {
      "midi": 60,
      "hit": false,
      "t": 71666.59500000012,
      "d": 228.17437500000233,
      "v": 100
    },
    {
      "midi": 70,
      "hit": false,
      "t": 71666.59500000013,
      "d": 228.17437500000233,
      "v": 100
    },
    {
      "midi": 52,
      "hit": false,
      "t": 71904.69000000012,
      "d": 228.17437500000233,
      "v": 100
    },
    {
      "midi": 64,
      "hit": false,
      "t": 71904.69000000013,
      "d": 466.2693750000035,
      "v": 100
    },
    {
      "midi": 65,
      "hit": false,
      "t": 72142.785,
      "d": 228.17437500000233,
      "v": 100
    },
    {
      "midi": 58,
      "hit": false,
      "t": 72142.78500000002,
      "d": 228.17437500000233,
      "v": 100
    },
    {
      "midi": 60,
      "hit": false,
      "t": 72142.78500000012,
      "d": 228.17437500000233,
      "v": 100
    },
    {
      "midi": 53,
      "hit": false,
      "t": 72380.87999999996,
      "d": 466.2693750000035,
      "v": 100
    },
    {
      "midi": 65,
      "hit": false,
      "t": 72380.88,
      "d": 1418.6493749999936,
      "v": 100
    },
    {
      "midi": 57,
      "hit": false,
      "t": 72380.88000000002,
      "d": 1418.6493749999936,
      "v": 100
    },
    {
      "midi": 48,
      "hit": false,
      "t": 72380.88000000012,
      "d": 942.4593750000058,
      "v": 100
    },
    {
      "midi": 60,
      "hit": false,
      "t": 72380.88000000012,
      "d": 942.4593750000058,
      "v": 100
    },
    {
      "midi": 60,
      "hit": false,
      "t": 72380.88000000014,
      "d": 942.4593750000058,
      "v": 100
    },
    {
      "midi": 57,
      "hit": false,
      "t": 72618.97500000012,
      "d": 228.17437500000233,
      "v": 100
    },
    {
      "midi": 65,
      "hit": false,
      "t": 72618.97500000014,
      "d": 228.17437500000233,
      "v": 100
    },
    {
      "midi": 48,
      "hit": false,
      "t": 72857.06999999996,
      "d": 466.2693750000035,
      "v": 100
    },
    {
      "midi": 53,
      "hit": false,
      "t": 72857.07000000012,
      "d": 466.2693750000035,
      "v": 100
    },
    {
      "midi": 69,
      "hit": false,
      "t": 72857.07000000014,
      "d": 466.2693750000035,
      "v": 100
    },
    {
      "midi": 57,
      "hit": false,
      "t": 73095.16500000012,
      "d": 942.4593750000058,
      "v": 100
    },
    {
      "midi": 72,
      "hit": false,
      "t": 73095.16500000014,
      "d": 466.2693750000035,
      "v": 100
    },
    {
      "midi": 41,
      "hit": false,
      "t": 73333.25999999997,
      "d": 942.4593750000058,
      "v": 100
    },
    {
      "midi": 48,
      "hit": false,
      "t": 73333.26000000013,
      "d": 942.4593750000058,
      "v": 100
    },
    {
      "midi": 60,
      "hit": false,
      "t": 73571.35500000013,
      "d": 228.17437500000233,
      "v": 100
    },
    {
      "midi": 69,
      "hit": false,
      "t": 73571.35500000014,
      "d": 228.17437500000233,
      "v": 100
    },
    {
      "midi": 72,
      "hit": false,
      "t": 73809.45,
      "d": 466.2693750000035,
      "v": 100
    },
    {
      "midi": 65,
      "hit": false,
      "t": 73809.45000000001,
      "d": 466.2693750000035,
      "v": 100
    },
    {
      "midi": 53,
      "hit": false,
      "t": 73809.45000000013,
      "d": 228.17437500000233,
      "v": 100
    },
    {
      "midi": 65,
      "hit": false,
      "t": 73809.45000000014,
      "d": 466.2693750000035,
      "v": 100
    },
    {
      "midi": 60,
      "hit": false,
      "t": 74047.54500000013,
      "d": 228.17437500000233,
      "v": 100
    },
    {
      "midi": 58,
      "hit": false,
      "t": 74285.63999999997,
      "d": 942.4593750000058,
      "v": 100
    },
    {
      "midi": 77,
      "hit": false,
      "t": 74285.64,
      "d": 704.3643750000047,
      "v": 100
    },
    {
      "midi": 74,
      "hit": false,
      "t": 74285.64000000001,
      "d": 704.3643750000047,
      "v": 100
    },
    {
      "midi": 62,
      "hit": false,
      "t": 74285.64000000013,
      "d": 942.4593750000058,
      "v": 100
    },
    {
      "midi": 46,
      "hit": false,
      "t": 74285.64000000013,
      "d": 942.4593750000058,
      "v": 100
    },
    {
      "midi": 58,
      "hit": false,
      "t": 74285.64000000014,
      "d": 942.4593750000058,
      "v": 100
    },
    {
      "midi": 58,
      "hit": false,
      "t": 74523.73500000013,
      "d": 228.17437500000233,
      "v": 100
    },
    {
      "midi": 65,
      "hit": false,
      "t": 74523.73500000015,
      "d": 228.17437500000233,
      "v": 100
    },
    {
      "midi": 53,
      "hit": false,
      "t": 74761.83000000013,
      "d": 466.2693750000035,
      "v": 100
    },
    {
      "midi": 70,
      "hit": false,
      "t": 74761.83000000015,
      "d": 228.17437500000233,
      "v": 100
    },
    {
      "midi": 76,
      "hit": false,
      "t": 74999.925,
      "d": 228.17437500000233,
      "v": 100
    },
    {
      "midi": 72,
      "hit": false,
      "t": 74999.92500000002,
      "d": 228.17437500000233,
      "v": 100
    },
    {
      "midi": 58,
      "hit": false,
      "t": 74999.92500000013,
      "d": 714.2850000000035,
      "v": 100
    },
    {
      "midi": 74,
      "hit": false,
      "t": 74999.92500000015,
      "d": 942.4593750000058,
      "v": 100
    },
    {
      "midi": 58,
      "hit": false,
      "t": 75238.01999999997,
      "d": 942.4593750000058,
      "v": 100
    },
    {
      "midi": 74,
      "hit": false,
      "t": 75238.02,
      "d": 704.3643750000047,
      "v": 100
    },
    {
      "midi": 70,
      "hit": false,
      "t": 75238.02000000002,
      "d": 704.3643750000047,
      "v": 100
    },
    {
      "midi": 46,
      "hit": false,
      "t": 75238.02000000014,
      "d": 942.4593750000058,
      "v": 100
    },
    {
      "midi": 62,
      "hit": false,
      "t": 75476.11500000014,
      "d": 228.17437500000233,
      "v": 100
    },
    {
      "midi": 70,
      "hit": false,
      "t": 75476.11500000015,
      "d": 228.17437500000233,
      "v": 100
    },
    {
      "midi": 58,
      "hit": false,
      "t": 75714.21000000014,
      "d": 228.17437500000233,
      "v": 100
    },
    {
      "midi": 65,
      "hit": false,
      "t": 75714.21000000015,
      "d": 466.2693750000035,
      "v": 100
    },
    {
      "midi": 72,
      "hit": false,
      "t": 75952.30500000001,
      "d": 228.17437500000233,
      "v": 100
    },
    {
      "midi": 69,
      "hit": false,
      "t": 75952.30500000002,
      "d": 228.17437500000233,
      "v": 100
    },
    {
      "midi": 62,
      "hit": false,
      "t": 75952.30500000014,
      "d": 228.17437500000233,
      "v": 100
    },
    {
      "midi": 57,
      "hit": false,
      "t": 76190.39999999998,
      "d": 942.4593750000058,
      "v": 100
    },
    {
      "midi": 72,
      "hit": false,
      "t": 76190.40000000001,
      "d": 466.2693750000035,
      "v": 100
    },
    {
      "midi": 69,
      "hit": false,
      "t": 76190.40000000002,
      "d": 466.2693750000035,
      "v": 100
    },
    {
      "midi": 60,
      "hit": false,
      "t": 76190.40000000014,
      "d": 942.4593750000058,
      "v": 100
    },
    {
      "midi": 48,
      "hit": false,
      "t": 76190.40000000014,
      "d": 942.4593750000058,
      "v": 100
    },
    {
      "midi": 60,
      "hit": false,
      "t": 76190.40000000015,
      "d": 942.4593750000058,
      "v": 100
    },
    {
      "midi": 57,
      "hit": false,
      "t": 76428.49500000014,
      "d": 228.17437500000233,
      "v": 100
    },
    {
      "midi": 65,
      "hit": false,
      "t": 76428.49500000016,
      "d": 228.17437500000233,
      "v": 100
    },
    {
      "midi": 69,
      "hit": false,
      "t": 76666.59000000001,
      "d": 942.4593750000058,
      "v": 100
    },
    {
      "midi": 65,
      "hit": false,
      "t": 76666.59000000003,
      "d": 942.4593750000058,
      "v": 100
    },
    {
      "midi": 53,
      "hit": false,
      "t": 76666.59000000014,
      "d": 466.2693750000035,
      "v": 100
    },
    {
      "midi": 69,
      "hit": false,
      "t": 76666.59000000016,
      "d": 466.2693750000035,
      "v": 100
    },
    {
      "midi": 57,
      "hit": false,
      "t": 76904.68500000014,
      "d": 942.4593750000058,
      "v": 100
    },
    {
      "midi": 72,
      "hit": false,
      "t": 76904.68500000016,
      "d": 466.2693750000035,
      "v": 100
    },
    {
      "midi": 53,
      "hit": false,
      "t": 77142.77999999998,
      "d": 942.4593750000058,
      "v": 100
    },
    {
      "midi": 48,
      "hit": false,
      "t": 77142.78000000014,
      "d": 942.4593750000058,
      "v": 100
    },
    {
      "midi": 60,
      "hit": false,
      "t": 77380.87500000015,
      "d": 228.17437500000233,
      "v": 100
    },
    {
      "midi": 69,
      "hit": false,
      "t": 77380.87500000016,
      "d": 228.17437500000233,
      "v": 100
    },
    {
      "midi": 72,
      "hit": false,
      "t": 77618.97000000002,
      "d": 466.2693750000035,
      "v": 100
    },
    {
      "midi": 69,
      "hit": false,
      "t": 77618.97000000003,
      "d": 466.2693750000035,
      "v": 100
    },
    {
      "midi": 53,
      "hit": false,
      "t": 77618.97000000015,
      "d": 228.17437500000233,
      "v": 100
    },
    {
      "midi": 65,
      "hit": false,
      "t": 77618.97000000016,
      "d": 466.2693750000035,
      "v": 100
    },
    {
      "midi": 60,
      "hit": false,
      "t": 77857.06500000015,
      "d": 228.17437500000233,
      "v": 100
    },
    {
      "midi": 48,
      "hit": false,
      "t": 78095.15999999999,
      "d": 942.4593750000058,
      "v": 100
    },
    {
      "midi": 70,
      "hit": false,
      "t": 78095.16000000002,
      "d": 704.3643750000047,
      "v": 100
    },
    {
      "midi": 67,
      "hit": false,
      "t": 78095.16000000003,
      "d": 704.3643750000047,
      "v": 100
    },
    {
      "midi": 60,
      "hit": false,
      "t": 78095.16000000015,
      "d": 942.4593750000058,
      "v": 100
    },
    {
      "midi": 48,
      "hit": false,
      "t": 78095.16000000015,
      "d": 942.4593750000058,
      "v": 100
    },
    {
      "midi": 60,
      "hit": false,
      "t": 78095.16000000016,
      "d": 942.4593750000058,
      "v": 100
    },
    {
      "midi": 58,
      "hit": false,
      "t": 78333.25500000015,
      "d": 228.17437500000233,
      "v": 100
    },
    {
      "midi": 64,
      "hit": false,
      "t": 78333.25500000016,
      "d": 228.17437500000233,
      "v": 100
    },
    {
      "midi": 52,
      "hit": false,
      "t": 78571.35000000015,
      "d": 466.2693750000035,
      "v": 100
    },
    {
      "midi": 70,
      "hit": false,
      "t": 78571.35000000017,
      "d": 228.17437500000233,
      "v": 100
    },
    {
      "midi": 69,
      "hit": false,
      "t": 78809.44500000002,
      "d": 228.17437500000233,
      "v": 100
    },
    {
      "midi": 66,
      "hit": false,
      "t": 78809.44500000004,
      "d": 228.17437500000233,
      "v": 100
    },
    {
      "midi": 58,
      "hit": false,
      "t": 78809.44500000015,
      "d": 942.4593750000058,
      "v": 100
    },
    {
      "midi": 72,
      "hit": false,
      "t": 78809.44500000017,
      "d": 466.2693750000035,
      "v": 100
    },
    {
      "midi": 48,
      "hit": false,
      "t": 79047.54,
      "d": 942.4593750000058,
      "v": 100
    },
    {
      "midi": 70,
      "hit": false,
      "t": 79047.54000000002,
      "d": 466.2693750000035,
      "v": 100
    },
    {
      "midi": 67,
      "hit": false,
      "t": 79047.54000000004,
      "d": 466.2693750000035,
      "v": 100
    },
    {
      "midi": 48,
      "hit": false,
      "t": 79047.54000000015,
      "d": 942.4593750000058,
      "v": 100
    },
    {
      "midi": 60,
      "hit": false,
      "t": 79285.63500000015,
      "d": 228.17437500000233,
      "v": 100
    },
    {
      "midi": 70,
      "hit": false,
      "t": 79285.63500000017,
      "d": 228.17437500000233,
      "v": 100
    },
    {
      "midi": 67,
      "hit": false,
      "t": 79523.73000000003,
      "d": 466.2693750000035,
      "v": 100
    },
    {
      "midi": 64,
      "hit": false,
      "t": 79523.73000000004,
      "d": 466.2693750000035,
      "v": 100
    },
    {
      "midi": 52,
      "hit": false,
      "t": 79523.73000000016,
      "d": 228.17437500000233,
      "v": 100
    },
    {
      "midi": 64,
      "hit": false,
      "t": 79523.73000000017,
      "d": 466.2693750000035,
      "v": 100
    },
    {
      "midi": 60,
      "hit": false,
      "t": 79761.82500000016,
      "d": 228.17437500000233,
      "v": 100
    },
    {
      "midi": 53,
      "hit": false,
      "t": 79999.92,
      "d": 466.2693750000035,
      "v": 100
    },
    {
      "midi": 69,
      "hit": false,
      "t": 79999.92000000003,
      "d": 1418.6493749999936,
      "v": 100
    },
    {
      "midi": 65,
      "hit": false,
      "t": 79999.92000000004,
      "d": 1418.6493749999936,
      "v": 100
    },
    {
      "midi": 48,
      "hit": false,
      "t": 79999.92000000016,
      "d": 942.4593750000058,
      "v": 100
    },
    {
      "midi": 60,
      "hit": false,
      "t": 79999.92000000016,
      "d": 942.4593750000058,
      "v": 100
    },
    {
      "midi": 60,
      "hit": false,
      "t": 79999.92000000017,
      "d": 942.4593750000058,
      "v": 100
    },
    {
      "midi": 57,
      "hit": false,
      "t": 80238.01500000016,
      "d": 228.17437500000233,
      "v": 100
    },
    {
      "midi": 65,
      "hit": false,
      "t": 80238.01500000017,
      "d": 228.17437500000233,
      "v": 100
    },
    {
      "midi": 48,
      "hit": false,
      "t": 80476.11,
      "d": 466.2693750000035,
      "v": 100
    },
    {
      "midi": 53,
      "hit": false,
      "t": 80476.11000000016,
      "d": 466.2693750000035,
      "v": 100
    },
    {
      "midi": 69,
      "hit": false,
      "t": 80476.11000000018,
      "d": 466.2693750000035,
      "v": 100
    },
    {
      "midi": 57,
      "hit": false,
      "t": 80714.20500000016,
      "d": 942.4593750000058,
      "v": 100
    },
    {
      "midi": 72,
      "hit": false,
      "t": 80714.20500000018,
      "d": 466.2693750000035,
      "v": 100
    },
    {
      "midi": 41,
      "hit": false,
      "t": 80952.3,
      "d": 942.4593750000058,
      "v": 100
    },
    {
      "midi": 48,
      "hit": false,
      "t": 80952.30000000016,
      "d": 942.4593750000058,
      "v": 100
    },
    {
      "midi": 60,
      "hit": false,
      "t": 81190.39500000016,
      "d": 228.17437500000233,
      "v": 100
    },
    {
      "midi": 69,
      "hit": false,
      "t": 81190.39500000018,
      "d": 228.17437500000233,
      "v": 100
    },
    {
      "midi": 72,
      "hit": false,
      "t": 81428.49000000002,
      "d": 347.2218750000029,
      "v": 100
    },
    {
      "midi": 69,
      "hit": false,
      "t": 81428.49000000003,
      "d": 228.17437500000233,
      "v": 100
    },
    {
      "midi": 53,
      "hit": false,
      "t": 81428.49000000017,
      "d": 228.17437500000233,
      "v": 100
    },
    {
      "midi": 65,
      "hit": false,
      "t": 81428.49000000018,
      "d": 466.2693750000035,
      "v": 100
    },
    {
      "midi": 69,
      "hit": false,
      "t": 81666.58500000004,
      "d": 228.17437500000233,
      "v": 100
    },
    {
      "midi": 60,
      "hit": false,
      "t": 81666.58500000017,
      "d": 228.17437500000233,
      "v": 100
    },
    {
      "midi": 72,
      "hit": false,
      "t": 81785.63250000002,
      "d": 109.12687500000175,
      "v": 100
    },
    {
      "midi": 58,
      "hit": false,
      "t": 81904.68000000001,
      "d": 942.4593750000058,
      "v": 100
    },
    {
      "midi": 77,
      "hit": false,
      "t": 81904.68000000002,
      "d": 704.3643750000047,
      "v": 100
    },
    {
      "midi": 74,
      "hit": false,
      "t": 81904.68000000004,
      "d": 704.3643750000047,
      "v": 100
    },
    {
      "midi": 62,
      "hit": false,
      "t": 81904.68000000017,
      "d": 942.4593750000058,
      "v": 100
    },
    {
      "midi": 46,
      "hit": false,
      "t": 81904.68000000017,
      "d": 942.4593750000058,
      "v": 100
    },
    {
      "midi": 58,
      "hit": false,
      "t": 81904.68000000018,
      "d": 942.4593750000058,
      "v": 100
    },
    {
      "midi": 58,
      "hit": false,
      "t": 82142.77500000017,
      "d": 228.17437500000233,
      "v": 100
    },
    {
      "midi": 65,
      "hit": false,
      "t": 82142.77500000018,
      "d": 228.17437500000233,
      "v": 100
    },
    {
      "midi": 53,
      "hit": false,
      "t": 82380.87000000017,
      "d": 466.2693750000035,
      "v": 100
    },
    {
      "midi": 70,
      "hit": false,
      "t": 82380.87000000018,
      "d": 228.17437500000233,
      "v": 100
    },
    {
      "midi": 76,
      "hit": false,
      "t": 82618.96500000003,
      "d": 228.17437500000233,
      "v": 100
    },
    {
      "midi": 72,
      "hit": false,
      "t": 82618.96500000004,
      "d": 228.17437500000233,
      "v": 100
    },
    {
      "midi": 58,
      "hit": false,
      "t": 82618.96500000017,
      "d": 714.2850000000035,
      "v": 100
    },
    {
      "midi": 74,
      "hit": false,
      "t": 82618.96500000019,
      "d": 942.4593750000058,
      "v": 100
    },
    {
      "midi": 58,
      "hit": false,
      "t": 82857.06000000001,
      "d": 942.4593750000058,
      "v": 100
    },
    {
      "midi": 74,
      "hit": false,
      "t": 82857.06000000003,
      "d": 704.3643750000047,
      "v": 100
    },
    {
      "midi": 70,
      "hit": false,
      "t": 82857.06000000004,
      "d": 704.3643750000047,
      "v": 100
    },
    {
      "midi": 46,
      "hit": false,
      "t": 82857.06000000017,
      "d": 942.4593750000058,
      "v": 100
    },
    {
      "midi": 62,
      "hit": false,
      "t": 83095.15500000017,
      "d": 228.17437500000233,
      "v": 100
    },
    {
      "midi": 70,
      "hit": false,
      "t": 83095.15500000019,
      "d": 228.17437500000233,
      "v": 100
    },
    {
      "midi": 58,
      "hit": false,
      "t": 83333.25000000017,
      "d": 228.17437500000233,
      "v": 100
    },
    {
      "midi": 65,
      "hit": false,
      "t": 83333.25000000019,
      "d": 466.2693750000035,
      "v": 100
    },
    {
      "midi": 72,
      "hit": false,
      "t": 83571.34500000003,
      "d": 228.17437500000233,
      "v": 100
    },
    {
      "midi": 69,
      "hit": false,
      "t": 83571.34500000004,
      "d": 228.17437500000233,
      "v": 100
    },
    {
      "midi": 62,
      "hit": false,
      "t": 83571.34500000018,
      "d": 228.17437500000233,
      "v": 100
    },
    {
      "midi": 57,
      "hit": false,
      "t": 83809.44000000002,
      "d": 942.4593750000058,
      "v": 100
    },
    {
      "midi": 72,
      "hit": false,
      "t": 83809.44000000003,
      "d": 704.3643750000047,
      "v": 100
    },
    {
      "midi": 69,
      "hit": false,
      "t": 83809.44000000005,
      "d": 704.3643750000047,
      "v": 100
    },
    {
      "midi": 60,
      "hit": false,
      "t": 83809.44000000018,
      "d": 942.4593750000058,
      "v": 100
    },
    {
      "midi": 48,
      "hit": false,
      "t": 83809.44000000018,
      "d": 942.4593750000058,
      "v": 100
    },
    {
      "midi": 60,
      "hit": false,
      "t": 83809.44000000019,
      "d": 942.4593750000058,
      "v": 100
    },
    {
      "midi": 57,
      "hit": false,
      "t": 84047.53500000018,
      "d": 228.17437500000233,
      "v": 100
    },
    {
      "midi": 65,
      "hit": false,
      "t": 84047.53500000019,
      "d": 228.17437500000233,
      "v": 100
    },
    {
      "midi": 53,
      "hit": false,
      "t": 84285.63000000018,
      "d": 466.2693750000035,
      "v": 100
    },
    {
      "midi": 69,
      "hit": false,
      "t": 84285.6300000002,
      "d": 466.2693750000035,
      "v": 100
    },
    {
      "midi": 69,
      "hit": false,
      "t": 84523.72500000003,
      "d": 228.17437500000233,
      "v": 100
    },
    {
      "midi": 65,
      "hit": false,
      "t": 84523.72500000005,
      "d": 228.17437500000233,
      "v": 100
    },
    {
      "midi": 57,
      "hit": false,
      "t": 84523.72500000018,
      "d": 942.4593750000058,
      "v": 100
    },
    {
      "midi": 72,
      "hit": false,
      "t": 84523.7250000002,
      "d": 466.2693750000035,
      "v": 100
    },
    {
      "midi": 53,
      "hit": false,
      "t": 84761.82000000002,
      "d": 942.4593750000058,
      "v": 100
    },
    {
      "midi": 69,
      "hit": false,
      "t": 84761.82000000004,
      "d": 466.2693750000035,
      "v": 100
    },
    {
      "midi": 65,
      "hit": false,
      "t": 84761.82000000005,
      "d": 466.2693750000035,
      "v": 100
    },
    {
      "midi": 48,
      "hit": false,
      "t": 84761.82000000018,
      "d": 942.4593750000058,
      "v": 100
    },
    {
      "midi": 60,
      "hit": false,
      "t": 84999.91500000018,
      "d": 228.17437500000233,
      "v": 100
    },
    {
      "midi": 69,
      "hit": false,
      "t": 84999.9150000002,
      "d": 228.17437500000233,
      "v": 100
    },
    {
      "midi": 72,
      "hit": false,
      "t": 85238.01000000004,
      "d": 466.2693750000035,
      "v": 100
    },
    {
      "midi": 69,
      "hit": false,
      "t": 85238.01000000005,
      "d": 466.2693750000035,
      "v": 100
    },
    {
      "midi": 53,
      "hit": false,
      "t": 85238.01000000018,
      "d": 228.17437500000233,
      "v": 100
    },
    {
      "midi": 65,
      "hit": false,
      "t": 85238.0100000002,
      "d": 466.2693750000035,
      "v": 100
    },
    {
      "midi": 60,
      "hit": false,
      "t": 85476.10500000019,
      "d": 228.17437500000233,
      "v": 100
    },
    {
      "midi": 48,
      "hit": false,
      "t": 85714.20000000003,
      "d": 942.4593750000058,
      "v": 100
    },
    {
      "midi": 72,
      "hit": false,
      "t": 85714.20000000004,
      "d": 228.17437500000233,
      "v": 100
    },
    {
      "midi": 67,
      "hit": false,
      "t": 85714.20000000006,
      "d": 228.17437500000233,
      "v": 100
    },
    {
      "midi": 48,
      "hit": false,
      "t": 85714.20000000019,
      "d": 942.4593750000058,
      "v": 100
    },
    {
      "midi": 60,
      "hit": false,
      "t": 85714.20000000019,
      "d": 942.4593750000058,
      "v": 100
    },
    {
      "midi": 60,
      "hit": false,
      "t": 85714.2000000002,
      "d": 942.4593750000058,
      "v": 100
    },
    {
      "midi": 70,
      "hit": false,
      "t": 85952.29500000004,
      "d": 1170.6337499999936,
      "v": 100
    },
    {
      "midi": 64,
      "hit": false,
      "t": 85952.29500000006,
      "d": 1170.6337499999936,
      "v": 100
    },
    {
      "midi": 58,
      "hit": false,
      "t": 85952.29500000019,
      "d": 228.17437500000233,
      "v": 100
    },
    {
      "midi": 64,
      "hit": false,
      "t": 85952.2950000002,
      "d": 228.17437500000233,
      "v": 100
    },
    {
      "midi": 52,
      "hit": false,
      "t": 86190.39000000019,
      "d": 466.2693750000035,
      "v": 100
    },
    {
      "midi": 70,
      "hit": false,
      "t": 86190.3900000002,
      "d": 228.17437500000233,
      "v": 100
    },
    {
      "midi": 58,
      "hit": false,
      "t": 86428.48500000019,
      "d": 942.4593750000058,
      "v": 100
    },
    {
      "midi": 72,
      "hit": false,
      "t": 86428.4850000002,
      "d": 466.2693750000035,
      "v": 100
    },
    {
      "midi": 48,
      "hit": false,
      "t": 86666.58000000003,
      "d": 942.4593750000058,
      "v": 100
    },
    {
      "midi": 48,
      "hit": false,
      "t": 86666.58000000019,
      "d": 942.4593750000058,
      "v": 100
    },
    {
      "midi": 60,
      "hit": false,
      "t": 86904.67500000019,
      "d": 228.17437500000233,
      "v": 100
    },
    {
      "midi": 70,
      "hit": false,
      "t": 86904.6750000002,
      "d": 228.17437500000233,
      "v": 100
    },
    {
      "midi": 67,
      "hit": false,
      "t": 87142.77000000003,
      "d": 466.2693750000035,
      "v": 100
    },
    {
      "midi": 58,
      "hit": false,
      "t": 87142.77000000005,
      "d": 466.2693750000035,
      "v": 100
    },
    {
      "midi": 52,
      "hit": false,
      "t": 87142.7700000002,
      "d": 228.17437500000233,
      "v": 100
    },
    {
      "midi": 64,
      "hit": false,
      "t": 87142.77000000021,
      "d": 466.2693750000035,
      "v": 100
    },
    {
      "midi": 60,
      "hit": false,
      "t": 87380.8650000002,
      "d": 228.17437500000233,
      "v": 100
    },
    {
      "midi": 65,
      "hit": false,
      "t": 87618.96000000004,
      "d": 1894.839374999996,
      "v": 100
    },
    {
      "midi": 53,
      "hit": false,
      "t": 87618.96000000004,
      "d": 466.2693750000035,
      "v": 100
    },
    {
      "midi": 57,
      "hit": false,
      "t": 87618.96000000005,
      "d": 1894.839374999996,
      "v": 100
    },
    {
      "midi": 60,
      "hit": false,
      "t": 87618.9600000002,
      "d": 942.4593750000058,
      "v": 100
    },
    {
      "midi": 48,
      "hit": false,
      "t": 87618.9600000002,
      "d": 942.4593750000058,
      "v": 100
    },
    {
      "midi": 60,
      "hit": false,
      "t": 87618.96000000021,
      "d": 942.4593750000058,
      "v": 100
    },
    {
      "midi": 57,
      "hit": false,
      "t": 87857.0550000002,
      "d": 228.17437500000233,
      "v": 100
    },
    {
      "midi": 65,
      "hit": false,
      "t": 87857.05500000021,
      "d": 228.17437500000233,
      "v": 100
    },
    {
      "midi": 48,
      "hit": false,
      "t": 88095.15000000004,
      "d": 466.2693750000035,
      "v": 100
    },
    {
      "midi": 53,
      "hit": false,
      "t": 88095.1500000002,
      "d": 466.2693750000035,
      "v": 100
    },
    {
      "midi": 69,
      "hit": false,
      "t": 88095.15000000021,
      "d": 466.2693750000035,
      "v": 100
    },
    {
      "midi": 57,
      "hit": false,
      "t": 88333.2450000002,
      "d": 942.4593750000058,
      "v": 100
    },
    {
      "midi": 72,
      "hit": false,
      "t": 88333.24500000021,
      "d": 466.2693750000035,
      "v": 100
    },
    {
      "midi": 41,
      "hit": false,
      "t": 88571.34000000004,
      "d": 942.4593750000058,
      "v": 100
    },
    {
      "midi": 48,
      "hit": false,
      "t": 88571.3400000002,
      "d": 942.4593750000058,
      "v": 100
    },
    {
      "midi": 60,
      "hit": false,
      "t": 88809.4350000002,
      "d": 228.17437500000233,
      "v": 100
    },
    {
      "midi": 69,
      "hit": false,
      "t": 88809.43500000022,
      "d": 228.17437500000233,
      "v": 100
    },
    {
      "midi": 53,
      "hit": false,
      "t": 89047.5300000002,
      "d": 228.17437500000233,
      "v": 100
    },
    {
      "midi": 65,
      "hit": false,
      "t": 89047.53000000022,
      "d": 466.2693750000035,
      "v": 100
    },
    {
      "midi": 60,
      "hit": false,
      "t": 89285.6250000002,
      "d": 228.17437500000233,
      "v": 100
    },
    {
      "midi": 72,
      "hit": false,
      "t": 89523.72000000003,
      "d": 1894.839374999996,
      "v": 100
    },
    {
      "midi": 64,
      "hit": false,
      "t": 89523.72000000004,
      "d": 1894.839374999996,
      "v": 100
    },
    {
      "midi": 48,
      "hit": false,
      "t": 89523.72000000004,
      "d": 942.4593750000058,
      "v": 100
    },
    {
      "midi": 48,
      "hit": false,
      "t": 89523.7200000002,
      "d": 942.4593750000058,
      "v": 100
    },
    {
      "midi": 60,
      "hit": false,
      "t": 89523.7200000002,
      "d": 942.4593750000058,
      "v": 100
    },
    {
      "midi": 58,
      "hit": false,
      "t": 89523.72000000022,
      "d": 942.4593750000058,
      "v": 100
    },
    {
      "midi": 58,
      "hit": false,
      "t": 89761.8150000002,
      "d": 228.17437500000233,
      "v": 100
    },
    {
      "midi": 64,
      "hit": false,
      "t": 89761.81500000022,
      "d": 228.17437500000233,
      "v": 100
    },
    {
      "midi": 52,
      "hit": false,
      "t": 89999.9100000002,
      "d": 466.2693750000035,
      "v": 100
    },
    {
      "midi": 67,
      "hit": false,
      "t": 89999.91000000022,
      "d": 228.17437500000233,
      "v": 100
    },
    {
      "midi": 58,
      "hit": false,
      "t": 90238.00500000021,
      "d": 942.4593750000058,
      "v": 100
    },
    {
      "midi": 70,
      "hit": false,
      "t": 90238.00500000022,
      "d": 466.2693750000035,
      "v": 100
    },
    {
      "midi": 48,
      "hit": false,
      "t": 90476.10000000005,
      "d": 942.4593750000058,
      "v": 100
    },
    {
      "midi": 48,
      "hit": false,
      "t": 90476.10000000021,
      "d": 942.4593750000058,
      "v": 100
    },
    {
      "midi": 60,
      "hit": false,
      "t": 90714.19500000021,
      "d": 228.17437500000233,
      "v": 100
    },
    {
      "midi": 67,
      "hit": false,
      "t": 90714.19500000023,
      "d": 228.17437500000233,
      "v": 100
    },
    {
      "midi": 52,
      "hit": false,
      "t": 90952.29000000021,
      "d": 228.17437500000233,
      "v": 100
    },
    {
      "midi": 64,
      "hit": false,
      "t": 90952.29000000023,
      "d": 466.2693750000035,
      "v": 100
    },
    {
      "midi": 60,
      "hit": false,
      "t": 91190.38500000021,
      "d": 228.17437500000233,
      "v": 100
    },
    {
      "midi": 70,
      "hit": false,
      "t": 91428.48000000003,
      "d": 942.4593750000058,
      "v": 100
    },
    {
      "midi": 67,
      "hit": false,
      "t": 91428.48000000004,
      "d": 942.4593750000058,
      "v": 100
    },
    {
      "midi": 48,
      "hit": false,
      "t": 91428.48000000005,
      "d": 942.4593750000058,
      "v": 100
    },
    {
      "midi": 48,
      "hit": false,
      "t": 91428.48000000021,
      "d": 942.4593750000058,
      "v": 100
    },
    {
      "midi": 60,
      "hit": false,
      "t": 91428.48000000021,
      "d": 942.4593750000058,
      "v": 100
    },
    {
      "midi": 60,
      "hit": false,
      "t": 91428.48000000023,
      "d": 942.4593750000058,
      "v": 100
    },
    {
      "midi": 58,
      "hit": false,
      "t": 91666.57500000022,
      "d": 228.17437500000233,
      "v": 100
    },
    {
      "midi": 64,
      "hit": false,
      "t": 91666.57500000023,
      "d": 228.17437500000233,
      "v": 100
    },
    {
      "midi": 52,
      "hit": false,
      "t": 91904.67000000022,
      "d": 466.2693750000035,
      "v": 100
    },
    {
      "midi": 70,
      "hit": false,
      "t": 91904.67000000023,
      "d": 228.17437500000233,
      "v": 100
    },
    {
      "midi": 58,
      "hit": false,
      "t": 92142.76500000022,
      "d": 942.4593750000058,
      "v": 100
    },
    {
      "midi": 72,
      "hit": false,
      "t": 92142.76500000023,
      "d": 466.2693750000035,
      "v": 100
    },
    {
      "midi": 67,
      "hit": false,
      "t": 92380.86000000003,
      "d": 942.4593750000058,
      "v": 100
    },
    {
      "midi": 60,
      "hit": false,
      "t": 92380.86000000004,
      "d": 942.4593750000058,
      "v": 100
    },
    {
      "midi": 48,
      "hit": false,
      "t": 92380.86000000006,
      "d": 942.4593750000058,
      "v": 100
    },
    {
      "midi": 48,
      "hit": false,
      "t": 92380.86000000022,
      "d": 942.4593750000058,
      "v": 100
    },
    {
      "midi": 60,
      "hit": false,
      "t": 92618.95500000022,
      "d": 228.17437500000233,
      "v": 100
    },
    {
      "midi": 70,
      "hit": false,
      "t": 92618.95500000023,
      "d": 228.17437500000233,
      "v": 100
    },
    {
      "midi": 52,
      "hit": false,
      "t": 92857.05000000022,
      "d": 228.17437500000233,
      "v": 100
    },
    {
      "midi": 64,
      "hit": false,
      "t": 92857.05000000024,
      "d": 466.2693750000035,
      "v": 100
    },
    {
      "midi": 60,
      "hit": false,
      "t": 93095.14500000022,
      "d": 228.17437500000233,
      "v": 100
    },
    {
      "midi": 65,
      "hit": false,
      "t": 93333.24000000003,
      "d": 942.4593750000058,
      "v": 100
    },
    {
      "midi": 57,
      "hit": false,
      "t": 93333.24000000005,
      "d": 942.4593750000058,
      "v": 100
    },
    {
      "midi": 53,
      "hit": false,
      "t": 93333.24000000006,
      "d": 942.4593750000058,
      "v": 100
    },
    {
      "midi": 60,
      "hit": false,
      "t": 93333.24000000022,
      "d": 942.4593750000058,
      "v": 100
    },
    {
      "midi": 48,
      "hit": false,
      "t": 93333.24000000022,
      "d": 942.4593750000058,
      "v": 100
    },
    {
      "midi": 60,
      "hit": false,
      "t": 93333.24000000024,
      "d": 942.4593750000058,
      "v": 100
    },
    {
      "midi": 57,
      "hit": false,
      "t": 93571.33500000022,
      "d": 228.17437500000233,
      "v": 100
    },
    {
      "midi": 65,
      "hit": false,
      "t": 93571.33500000024,
      "d": 228.17437500000233,
      "v": 100
    },
    {
      "midi": 53,
      "hit": false,
      "t": 93809.43000000023,
      "d": 466.2693750000035,
      "v": 100
    },
    {
      "midi": 69,
      "hit": false,
      "t": 93809.43000000024,
      "d": 466.2693750000035,
      "v": 100
    },
    {
      "midi": 57,
      "hit": false,
      "t": 94047.52500000023,
      "d": 942.4593750000058,
      "v": 100
    },
    {
      "midi": 72,
      "hit": false,
      "t": 94047.52500000024,
      "d": 466.2693750000035,
      "v": 100
    },
    {
      "midi": 67,
      "hit": false,
      "t": 94285.62000000004,
      "d": 942.4593750000058,
      "v": 100
    },
    {
      "midi": 60,
      "hit": false,
      "t": 94285.62000000005,
      "d": 942.4593750000058,
      "v": 100
    },
    {
      "midi": 52,
      "hit": false,
      "t": 94285.62000000007,
      "d": 942.4593750000058,
      "v": 100
    },
    {
      "midi": 48,
      "hit": false,
      "t": 94285.62000000023,
      "d": 942.4593750000058,
      "v": 100
    },
    {
      "midi": 60,
      "hit": false,
      "t": 94523.71500000023,
      "d": 228.17437500000233,
      "v": 100
    },
    {
      "midi": 70,
      "hit": false,
      "t": 94523.71500000024,
      "d": 228.17437500000233,
      "v": 100
    },
    {
      "midi": 52,
      "hit": false,
      "t": 94761.81000000023,
      "d": 228.17437500000233,
      "v": 100
    },
    {
      "midi": 67,
      "hit": false,
      "t": 94761.81000000025,
      "d": 466.2693750000035,
      "v": 100
    },
    {
      "midi": 60,
      "hit": false,
      "t": 94999.90500000023,
      "d": 228.17437500000233,
      "v": 100
    },
    {
      "midi": 69,
      "hit": false,
      "t": 95238.00000000004,
      "d": 1418.6493749999936,
      "v": 100
    },
    {
      "midi": 65,
      "hit": false,
      "t": 95238.00000000006,
      "d": 1418.6493749999936,
      "v": 100
    },
    {
      "midi": 50,
      "hit": false,
      "t": 95238.00000000007,
      "d": 1894.839374999996,
      "v": 100
    },
    {
      "midi": 45,
      "hit": false,
      "t": 95238.00000000023,
      "d": 942.4593750000058,
      "v": 100
    },
    {
      "midi": 62,
      "hit": false,
      "t": 95238.00000000023,
      "d": 942.4593750000058,
      "v": 100
    },
    {
      "midi": 57,
      "hit": false,
      "t": 95238.00000000025,
      "d": 942.4593750000058,
      "v": 100
    },
    {
      "midi": 57,
      "hit": false,
      "t": 95476.09500000023,
      "d": 228.17437500000233,
      "v": 100
    },
    {
      "midi": 62,
      "hit": false,
      "t": 95476.09500000025,
      "d": 228.17437500000233,
      "v": 100
    },
    {
      "midi": 50,
      "hit": false,
      "t": 95714.19000000024,
      "d": 228.17437500000233,
      "v": 100
    },
    {
      "midi": 69,
      "hit": false,
      "t": 95714.19000000025,
      "d": 228.17437500000233,
      "v": 100
    },
    {
      "midi": 57,
      "hit": false,
      "t": 95952.28500000024,
      "d": 714.2850000000035,
      "v": 100
    },
    {
      "midi": 74,
      "hit": false,
      "t": 95952.28500000025,
      "d": 942.4593750000058,
      "v": 100
    },
    {
      "midi": 50,
      "hit": false,
      "t": 96190.38000000024,
      "d": 942.4593750000058,
      "v": 100
    },
    {
      "midi": 62,
      "hit": false,
      "t": 96428.47500000024,
      "d": 228.17437500000233,
      "v": 100
    },
    {
      "midi": 69,
      "hit": false,
      "t": 96428.47500000025,
      "d": 228.17437500000233,
      "v": 100
    },
    {
      "midi": 72,
      "hit": false,
      "t": 96666.57000000004,
      "d": 466.2693750000035,
      "v": 100
    },
    {
      "midi": 69,
      "hit": false,
      "t": 96666.57000000005,
      "d": 466.2693750000035,
      "v": 100
    },
    {
      "midi": 57,
      "hit": false,
      "t": 96666.57000000024,
      "d": 228.17437500000233,
      "v": 100
    },
    {
      "midi": 65,
      "hit": false,
      "t": 96666.57000000025,
      "d": 466.2693750000035,
      "v": 100
    },
    {
      "midi": 62,
      "hit": false,
      "t": 96904.66500000024,
      "d": 228.17437500000233,
      "v": 100
    },
    {
      "midi": 77,
      "hit": false,
      "t": 97142.76000000004,
      "d": 704.3643750000047,
      "v": 100
    },
    {
      "midi": 74,
      "hit": false,
      "t": 97142.76000000005,
      "d": 704.3643750000047,
      "v": 100
    },
    {
      "midi": 58,
      "hit": false,
      "t": 97142.76000000007,
      "d": 942.4593750000058,
      "v": 100
    },
    {
      "midi": 62,
      "hit": false,
      "t": 97142.76000000024,
      "d": 942.4593750000058,
      "v": 100
    },
    {
      "midi": 46,
      "hit": false,
      "t": 97142.76000000024,
      "d": 942.4593750000058,
      "v": 100
    },
    {
      "midi": 58,
      "hit": false,
      "t": 97142.76000000026,
      "d": 942.4593750000058,
      "v": 100
    },
    {
      "midi": 58,
      "hit": false,
      "t": 97380.85500000024,
      "d": 228.17437500000233,
      "v": 100
    },
    {
      "midi": 65,
      "hit": false,
      "t": 97380.85500000026,
      "d": 228.17437500000233,
      "v": 100
    },
    {
      "midi": 53,
      "hit": false,
      "t": 97618.95000000024,
      "d": 466.2693750000035,
      "v": 100
    },
    {
      "midi": 70,
      "hit": false,
      "t": 97618.95000000026,
      "d": 228.17437500000233,
      "v": 100
    },
    {
      "midi": 76,
      "hit": false,
      "t": 97857.04500000004,
      "d": 228.17437500000233,
      "v": 100
    },
    {
      "midi": 72,
      "hit": false,
      "t": 97857.04500000006,
      "d": 228.17437500000233,
      "v": 100
    },
    {
      "midi": 58,
      "hit": false,
      "t": 97857.04500000025,
      "d": 714.2850000000035,
      "v": 100
    },
    {
      "midi": 74,
      "hit": false,
      "t": 97857.04500000026,
      "d": 942.4593750000058,
      "v": 100
    },
    {
      "midi": 74,
      "hit": false,
      "t": 98095.14000000004,
      "d": 704.3643750000047,
      "v": 100
    },
    {
      "midi": 70,
      "hit": false,
      "t": 98095.14000000006,
      "d": 704.3643750000047,
      "v": 100
    },
    {
      "midi": 58,
      "hit": false,
      "t": 98095.14000000007,
      "d": 942.4593750000058,
      "v": 100
    },
    {
      "midi": 46,
      "hit": false,
      "t": 98095.14000000025,
      "d": 942.4593750000058,
      "v": 100
    },
    {
      "midi": 62,
      "hit": false,
      "t": 98333.23500000025,
      "d": 228.17437500000233,
      "v": 100
    },
    {
      "midi": 70,
      "hit": false,
      "t": 98333.23500000026,
      "d": 228.17437500000233,
      "v": 100
    },
    {
      "midi": 58,
      "hit": false,
      "t": 98571.33000000025,
      "d": 228.17437500000233,
      "v": 100
    },
    {
      "midi": 65,
      "hit": false,
      "t": 98571.33000000026,
      "d": 466.2693750000035,
      "v": 100
    },
    {
      "midi": 72,
      "hit": false,
      "t": 98809.42500000005,
      "d": 228.17437500000233,
      "v": 100
    },
    {
      "midi": 69,
      "hit": false,
      "t": 98809.42500000006,
      "d": 228.17437500000233,
      "v": 100
    },
    {
      "midi": 62,
      "hit": false,
      "t": 98809.42500000025,
      "d": 228.17437500000233,
      "v": 100
    },
    {
      "midi": 72,
      "hit": false,
      "t": 99047.52000000005,
      "d": 942.4593750000058,
      "v": 100
    },
    {
      "midi": 69,
      "hit": false,
      "t": 99047.52000000006,
      "d": 942.4593750000058,
      "v": 100
    },
    {
      "midi": 57,
      "hit": false,
      "t": 99047.52000000008,
      "d": 942.4593750000058,
      "v": 100
    },
    {
      "midi": 60,
      "hit": false,
      "t": 99047.52000000025,
      "d": 942.4593750000058,
      "v": 100
    },
    {
      "midi": 48,
      "hit": false,
      "t": 99047.52000000025,
      "d": 942.4593750000058,
      "v": 100
    },
    {
      "midi": 60,
      "hit": false,
      "t": 99047.52000000027,
      "d": 942.4593750000058,
      "v": 100
    },
    {
      "midi": 57,
      "hit": false,
      "t": 99285.61500000025,
      "d": 228.17437500000233,
      "v": 100
    },
    {
      "midi": 65,
      "hit": false,
      "t": 99285.61500000027,
      "d": 228.17437500000233,
      "v": 100
    },
    {
      "midi": 53,
      "hit": false,
      "t": 99523.71000000025,
      "d": 466.2693750000035,
      "v": 100
    },
    {
      "midi": 69,
      "hit": false,
      "t": 99523.71000000027,
      "d": 466.2693750000035,
      "v": 100
    },
    {
      "midi": 57,
      "hit": false,
      "t": 99761.80500000025,
      "d": 942.4593750000058,
      "v": 100
    },
    {
      "midi": 72,
      "hit": false,
      "t": 99761.80500000027,
      "d": 466.2693750000035,
      "v": 100
    },
    {
      "midi": 69,
      "hit": false,
      "t": 99999.90000000005,
      "d": 466.2693750000035,
      "v": 100
    },
    {
      "midi": 65,
      "hit": false,
      "t": 99999.90000000007,
      "d": 466.2693750000035,
      "v": 100
    },
    {
      "midi": 53,
      "hit": false,
      "t": 99999.90000000008,
      "d": 942.4593750000058,
      "v": 100
    },
    {
      "midi": 48,
      "hit": false,
      "t": 99999.90000000026,
      "d": 942.4593750000058,
      "v": 100
    },
    {
      "midi": 60,
      "hit": false,
      "t": 100237.99500000026,
      "d": 228.17437500000233,
      "v": 100
    },
    {
      "midi": 69,
      "hit": false,
      "t": 100237.99500000027,
      "d": 228.17437500000233,
      "v": 100
    },
    {
      "midi": 72,
      "hit": false,
      "t": 100476.09000000005,
      "d": 466.2693750000035,
      "v": 100
    },
    {
      "midi": 69,
      "hit": false,
      "t": 100476.09000000007,
      "d": 466.2693750000035,
      "v": 100
    },
    {
      "midi": 53,
      "hit": false,
      "t": 100476.09000000026,
      "d": 228.17437500000233,
      "v": 100
    },
    {
      "midi": 65,
      "hit": false,
      "t": 100476.09000000027,
      "d": 466.2693750000035,
      "v": 100
    },
    {
      "midi": 60,
      "hit": false,
      "t": 100714.18500000026,
      "d": 228.17437500000233,
      "v": 100
    },
    {
      "midi": 72,
      "hit": false,
      "t": 100952.28000000006,
      "d": 466.2693750000035,
      "v": 100
    },
    {
      "midi": 69,
      "hit": false,
      "t": 100952.28000000007,
      "d": 466.2693750000035,
      "v": 100
    },
    {
      "midi": 48,
      "hit": false,
      "t": 100952.28000000009,
      "d": 942.4593750000058,
      "v": 100
    },
    {
      "midi": 60,
      "hit": false,
      "t": 100952.28000000026,
      "d": 942.4593750000058,
      "v": 100
    },
    {
      "midi": 48,
      "hit": false,
      "t": 100952.28000000026,
      "d": 942.4593750000058,
      "v": 100
    },
    {
      "midi": 60,
      "hit": false,
      "t": 100952.28000000028,
      "d": 942.4593750000058,
      "v": 100
    },
    {
      "midi": 58,
      "hit": false,
      "t": 101190.37500000026,
      "d": 228.17437500000233,
      "v": 100
    },
    {
      "midi": 64,
      "hit": false,
      "t": 101190.37500000028,
      "d": 228.17437500000233,
      "v": 100
    },
    {
      "midi": 74,
      "hit": false,
      "t": 101428.47000000006,
      "d": 466.2693750000035,
      "v": 100
    },
    {
      "midi": 70,
      "hit": false,
      "t": 101428.47000000007,
      "d": 466.2693750000035,
      "v": 100
    },
    {
      "midi": 52,
      "hit": false,
      "t": 101428.47000000026,
      "d": 466.2693750000035,
      "v": 100
    },
    {
      "midi": 70,
      "hit": false,
      "t": 101428.47000000028,
      "d": 228.17437500000233,
      "v": 100
    },
    {
      "midi": 58,
      "hit": false,
      "t": 101666.56500000026,
      "d": 942.4593750000058,
      "v": 100
    },
    {
      "midi": 72,
      "hit": false,
      "t": 101666.56500000028,
      "d": 466.2693750000035,
      "v": 100
    },
    {
      "midi": 70,
      "hit": false,
      "t": 101904.66000000006,
      "d": 466.2693750000035,
      "v": 100
    },
    {
      "midi": 67,
      "hit": false,
      "t": 101904.66000000008,
      "d": 466.2693750000035,
      "v": 100
    },
    {
      "midi": 48,
      "hit": false,
      "t": 101904.66000000009,
      "d": 942.4593750000058,
      "v": 100
    },
    {
      "midi": 48,
      "hit": false,
      "t": 101904.66000000027,
      "d": 942.4593750000058,
      "v": 100
    },
    {
      "midi": 60,
      "hit": false,
      "t": 102142.75500000027,
      "d": 228.17437500000233,
      "v": 100
    },
    {
      "midi": 70,
      "hit": false,
      "t": 102142.75500000028,
      "d": 228.17437500000233,
      "v": 100
    },
    {
      "midi": 67,
      "hit": false,
      "t": 102380.85000000006,
      "d": 466.2693750000035,
      "v": 100
    },
    {
      "midi": 60,
      "hit": false,
      "t": 102380.85000000008,
      "d": 466.2693750000035,
      "v": 100
    },
    {
      "midi": 52,
      "hit": false,
      "t": 102380.85000000027,
      "d": 228.17437500000233,
      "v": 100
    },
    {
      "midi": 64,
      "hit": false,
      "t": 102380.85000000028,
      "d": 466.2693750000035,
      "v": 100
    },
    {
      "midi": 60,
      "hit": false,
      "t": 102618.94500000027,
      "d": 228.17437500000233,
      "v": 100
    },
    {
      "midi": 65,
      "hit": false,
      "t": 102857.04000000007,
      "d": 1894.839374999996,
      "v": 100
    },
    {
      "midi": 57,
      "hit": false,
      "t": 102857.04000000008,
      "d": 1894.839374999996,
      "v": 100
    },
    {
      "midi": 53,
      "hit": false,
      "t": 102857.0400000001,
      "d": 1418.6493749999936,
      "v": 100
    },
    {
      "midi": 60,
      "hit": false,
      "t": 102857.04000000027,
      "d": 942.4593750000058,
      "v": 100
    },
    {
      "midi": 48,
      "hit": false,
      "t": 102857.04000000027,
      "d": 942.4593750000058,
      "v": 100
    },
    {
      "midi": 60,
      "hit": false,
      "t": 102857.04000000028,
      "d": 942.4593750000058,
      "v": 100
    },
    {
      "midi": 57,
      "hit": false,
      "t": 103095.13500000027,
      "d": 228.17437500000233,
      "v": 100
    },
    {
      "midi": 65,
      "hit": false,
      "t": 103095.13500000029,
      "d": 228.17437500000233,
      "v": 100
    },
    {
      "midi": 53,
      "hit": false,
      "t": 103333.23000000027,
      "d": 466.2693750000035,
      "v": 100
    },
    {
      "midi": 69,
      "hit": false,
      "t": 103333.23000000029,
      "d": 466.2693750000035,
      "v": 100
    },
    {
      "midi": 57,
      "hit": false,
      "t": 103571.32500000027,
      "d": 942.4593750000058,
      "v": 100
    },
    {
      "midi": 72,
      "hit": false,
      "t": 103571.32500000029,
      "d": 466.2693750000035,
      "v": 100
    },
    {
      "midi": 48,
      "hit": false,
      "t": 103809.42000000027,
      "d": 942.4593750000058,
      "v": 100
    },
    {
      "midi": 60,
      "hit": false,
      "t": 104047.51500000028,
      "d": 228.17437500000233,
      "v": 100
    },
    {
      "midi": 69,
      "hit": false,
      "t": 104047.51500000029,
      "d": 228.17437500000233,
      "v": 100
    },
    {
      "midi": 53,
      "hit": false,
      "t": 104285.61000000009,
      "d": 466.2693750000035,
      "v": 100
    },
    {
      "midi": 53,
      "hit": false,
      "t": 104285.61000000028,
      "d": 228.17437500000233,
      "v": 100
    },
    {
      "midi": 65,
      "hit": false,
      "t": 104285.61000000029,
      "d": 466.2693750000035,
      "v": 100
    },
    {
      "midi": 60,
      "hit": false,
      "t": 104523.70500000028,
      "d": 228.17437500000233,
      "v": 100
    },
    {
      "midi": 60,
      "hit": false,
      "t": 104761.80000000009,
      "d": 1894.839374999996,
      "v": 100
    },
    {
      "midi": 60,
      "hit": false,
      "t": 104761.80000000028,
      "d": 942.4593750000058,
      "v": 100
    },
    {
      "midi": 48,
      "hit": false,
      "t": 104761.80000000028,
      "d": 942.4593750000058,
      "v": 100
    },
    {
      "midi": 60,
      "hit": false,
      "t": 104761.8000000003,
      "d": 942.4593750000058,
      "v": 100
    },
    {
      "midi": 58,
      "hit": false,
      "t": 104999.89500000028,
      "d": 228.17437500000233,
      "v": 100
    },
    {
      "midi": 64,
      "hit": false,
      "t": 104999.8950000003,
      "d": 228.17437500000233,
      "v": 100
    },
    {
      "midi": 52,
      "hit": false,
      "t": 105237.99000000028,
      "d": 466.2693750000035,
      "v": 100
    },
    {
      "midi": 70,
      "hit": false,
      "t": 105237.9900000003,
      "d": 228.17437500000233,
      "v": 100
    },
    {
      "midi": 58,
      "hit": false,
      "t": 105476.08500000028,
      "d": 942.4593750000058,
      "v": 100
    },
    {
      "midi": 72,
      "hit": false,
      "t": 105476.0850000003,
      "d": 466.2693750000035,
      "v": 100
    },
    {
      "midi": 48,
      "hit": false,
      "t": 105714.18000000028,
      "d": 942.4593750000058,
      "v": 100
    },
    {
      "midi": 60,
      "hit": false,
      "t": 105952.27500000029,
      "d": 228.17437500000233,
      "v": 100
    },
    {
      "midi": 70,
      "hit": false,
      "t": 105952.2750000003,
      "d": 228.17437500000233,
      "v": 100
    },
    {
      "midi": 52,
      "hit": false,
      "t": 106190.37000000029,
      "d": 228.17437500000233,
      "v": 100
    },
    {
      "midi": 64,
      "hit": false,
      "t": 106190.3700000003,
      "d": 466.2693750000035,
      "v": 100
    },
    {
      "midi": 60,
      "hit": false,
      "t": 106428.46500000029,
      "d": 228.17437500000233,
      "v": 100
    },
    {
      "midi": 54,
      "hit": false,
      "t": 106666.56000000008,
      "d": 1418.6493749999936,
      "v": 100
    },
    {
      "midi": 61,
      "hit": false,
      "t": 106666.56000000029,
      "d": 942.4593750000058,
      "v": 100
    },
    {
      "midi": 49,
      "hit": false,
      "t": 106666.56000000029,
      "d": 942.4593750000058,
      "v": 100
    },
    {
      "midi": 61,
      "hit": false,
      "t": 106666.5600000003,
      "d": 942.4593750000058,
      "v": 100
    },
    {
      "midi": 58,
      "hit": false,
      "t": 106904.65500000029,
      "d": 228.17437500000233,
      "v": 100
    },
    {
      "midi": 66,
      "hit": false,
      "t": 106904.6550000003,
      "d": 228.17437500000233,
      "v": 100
    },
    {
      "midi": 54,
      "hit": false,
      "t": 107142.75000000029,
      "d": 466.2693750000035,
      "v": 100
    },
    {
      "midi": 70,
      "hit": false,
      "t": 107142.7500000003,
      "d": 466.2693750000035,
      "v": 100
    },
    {
      "midi": 58,
      "hit": false,
      "t": 107380.84500000029,
      "d": 942.4593750000058,
      "v": 100
    },
    {
      "midi": 73,
      "hit": false,
      "t": 107380.8450000003,
      "d": 466.2693750000035,
      "v": 100
    },
    {
      "midi": 49,
      "hit": false,
      "t": 107618.9400000003,
      "d": 942.4593750000058,
      "v": 100
    },
    {
      "midi": 61,
      "hit": false,
      "t": 107857.0350000003,
      "d": 228.17437500000233,
      "v": 100
    },
    {
      "midi": 70,
      "hit": false,
      "t": 107857.03500000031,
      "d": 228.17437500000233,
      "v": 100
    },
    {
      "midi": 54,
      "hit": false,
      "t": 108095.13000000008,
      "d": 466.2693750000035,
      "v": 100
    },
    {
      "midi": 54,
      "hit": false,
      "t": 108095.1300000003,
      "d": 228.17437500000233,
      "v": 100
    },
    {
      "midi": 66,
      "hit": false,
      "t": 108095.13000000031,
      "d": 466.2693750000035,
      "v": 100
    },
    {
      "midi": 61,
      "hit": false,
      "t": 108333.2250000003,
      "d": 228.17437500000233,
      "v": 100
    },
    {
      "midi": 61,
      "hit": false,
      "t": 108571.32000000008,
      "d": 1418.6493749999936,
      "v": 100
    },
    {
      "midi": 61,
      "hit": false,
      "t": 108571.3200000003,
      "d": 942.4593750000058,
      "v": 100
    },
    {
      "midi": 49,
      "hit": false,
      "t": 108571.3200000003,
      "d": 942.4593750000058,
      "v": 100
    },
    {
      "midi": 61,
      "hit": false,
      "t": 108571.32000000031,
      "d": 942.4593750000058,
      "v": 100
    },
    {
      "midi": 59,
      "hit": false,
      "t": 108809.4150000003,
      "d": 228.17437500000233,
      "v": 100
    },
    {
      "midi": 65,
      "hit": false,
      "t": 108809.41500000031,
      "d": 228.17437500000233,
      "v": 100
    },
    {
      "midi": 53,
      "hit": false,
      "t": 109047.5100000003,
      "d": 466.2693750000035,
      "v": 100
    },
    {
      "midi": 71,
      "hit": false,
      "t": 109047.51000000031,
      "d": 228.17437500000233,
      "v": 100
    },
    {
      "midi": 59,
      "hit": false,
      "t": 109285.6050000003,
      "d": 942.4593750000058,
      "v": 100
    },
    {
      "midi": 73,
      "hit": false,
      "t": 109285.60500000032,
      "d": 466.2693750000035,
      "v": 100
    },
    {
      "midi": 49,
      "hit": false,
      "t": 109523.7000000003,
      "d": 942.4593750000058,
      "v": 100
    },
    {
      "midi": 61,
      "hit": false,
      "t": 109761.7950000003,
      "d": 228.17437500000233,
      "v": 100
    },
    {
      "midi": 71,
      "hit": false,
      "t": 109761.79500000032,
      "d": 228.17437500000233,
      "v": 100
    },
    {
      "midi": 66,
      "hit": false,
      "t": 109999.89,
      "d": 466.2693750000035,
      "v": 100
    },
    {
      "midi": 66,
      "hit": false,
      "t": 109999.89000000006,
      "d": 466.2693750000035,
      "v": 100
    },
    {
      "midi": 61,
      "hit": false,
      "t": 109999.89000000007,
      "d": 466.2693750000035,
      "v": 100
    },
    {
      "midi": 49,
      "hit": false,
      "t": 109999.89000000007,
      "d": 466.2693750000035,
      "v": 100
    },
    {
      "midi": 58,
      "hit": false,
      "t": 109999.8900000003,
      "d": 466.2693750000035,
      "v": 100
    },
    {
      "midi": 66,
      "hit": false,
      "t": 109999.89000000032,
      "d": 466.2693750000035,
      "v": 100
    },
    {
      "midi": 61,
      "hit": false,
      "t": 110237.9850000003,
      "d": 228.17437500000233,
      "v": 100
    },
    {
      "midi": 70,
      "hit": false,
      "t": 110476.08,
      "d": 704.3643750000047,
      "v": 100
    },
    {
      "midi": 70,
      "hit": false,
      "t": 110476.08000000006,
      "d": 704.3643750000047,
      "v": 100
    },
    {
      "midi": 66,
      "hit": false,
      "t": 110476.08000000007,
      "d": 704.3643750000047,
      "v": 100
    },
    {
      "midi": 54,
      "hit": false,
      "t": 110476.08000000007,
      "d": 942.4593750000058,
      "v": 100
    },
    {
      "midi": 49,
      "hit": false,
      "t": 110476.08000000031,
      "d": 942.4593750000058,
      "v": 100
    },
    {
      "midi": 61,
      "hit": false,
      "t": 110476.08000000031,
      "d": 942.4593750000058,
      "v": 100
    },
    {
      "midi": 61,
      "hit": false,
      "t": 110476.08000000032,
      "d": 942.4593750000058,
      "v": 100
    },
    {
      "midi": 58,
      "hit": false,
      "t": 110714.17500000031,
      "d": 228.17437500000233,
      "v": 100
    },
    {
      "midi": 66,
      "hit": false,
      "t": 110714.17500000032,
      "d": 228.17437500000233,
      "v": 100
    },
    {
      "midi": 54,
      "hit": false,
      "t": 110952.27000000031,
      "d": 466.2693750000035,
      "v": 100
    },
    {
      "midi": 70,
      "hit": false,
      "t": 110952.27000000032,
      "d": 466.2693750000035,
      "v": 100
    },
    {
      "midi": 71,
      "hit": false,
      "t": 111190.365,
      "d": 228.17437500000233,
      "v": 100
    },
    {
      "midi": 71,
      "hit": false,
      "t": 111190.36500000006,
      "d": 228.17437500000233,
      "v": 100
    },
    {
      "midi": 68,
      "hit": false,
      "t": 111190.36500000008,
      "d": 228.17437500000233,
      "v": 100
    },
    {
      "midi": 59,
      "hit": false,
      "t": 111190.36500000031,
      "d": 942.4593750000058,
      "v": 100
    },
    {
      "midi": 71,
      "hit": false,
      "t": 111190.36500000033,
      "d": 466.2693750000035,
      "v": 100
    },
    {
      "midi": 71,
      "hit": false,
      "t": 111428.46,
      "d": 704.3643750000047,
      "v": 100
    },
    {
      "midi": 71,
      "hit": false,
      "t": 111428.46000000006,
      "d": 704.3643750000047,
      "v": 100
    },
    {
      "midi": 68,
      "hit": false,
      "t": 111428.46000000008,
      "d": 704.3643750000047,
      "v": 100
    },
    {
      "midi": 56,
      "hit": false,
      "t": 111428.46000000008,
      "d": 942.4593750000058,
      "v": 100
    },
    {
      "midi": 49,
      "hit": false,
      "t": 111428.46000000031,
      "d": 942.4593750000058,
      "v": 100
    },
    {
      "midi": 61,
      "hit": false,
      "t": 111666.55500000031,
      "d": 228.17437500000233,
      "v": 100
    },
    {
      "midi": 68,
      "hit": false,
      "t": 111666.55500000033,
      "d": 228.17437500000233,
      "v": 100
    },
    {
      "midi": 56,
      "hit": false,
      "t": 111904.65000000031,
      "d": 228.17437500000233,
      "v": 100
    },
    {
      "midi": 65,
      "hit": false,
      "t": 111904.65000000033,
      "d": 466.2693750000035,
      "v": 100
    },
    {
      "midi": 75,
      "hit": false,
      "t": 112142.74500000001,
      "d": 228.17437500000233,
      "v": 100
    },
    {
      "midi": 75,
      "hit": false,
      "t": 112142.74500000007,
      "d": 228.17437500000233,
      "v": 100
    },
    {
      "midi": 71,
      "hit": false,
      "t": 112142.74500000008,
      "d": 228.17437500000233,
      "v": 100
    },
    {
      "midi": 59,
      "hit": false,
      "t": 112142.74500000032,
      "d": 228.17437500000233,
      "v": 100
    },
    {
      "midi": 73,
      "hit": false,
      "t": 112380.84000000001,
      "d": 704.3643750000047,
      "v": 100
    },
    {
      "midi": 73,
      "hit": false,
      "t": 112380.84000000007,
      "d": 704.3643750000047,
      "v": 100
    },
    {
      "midi": 70,
      "hit": false,
      "t": 112380.84000000008,
      "d": 704.3643750000047,
      "v": 100
    },
    {
      "midi": 58,
      "hit": false,
      "t": 112380.84000000008,
      "d": 942.4593750000058,
      "v": 100
    },
    {
      "midi": 49,
      "hit": false,
      "t": 112380.84000000032,
      "d": 942.4593750000058,
      "v": 100
    },
    {
      "midi": 61,
      "hit": false,
      "t": 112380.84000000032,
      "d": 942.4593750000058,
      "v": 100
    },
    {
      "midi": 61,
      "hit": false,
      "t": 112380.84000000033,
      "d": 942.4593750000058,
      "v": 100
    },
    {
      "midi": 58,
      "hit": false,
      "t": 112618.93500000032,
      "d": 228.17437500000233,
      "v": 100
    },
    {
      "midi": 66,
      "hit": false,
      "t": 112618.93500000033,
      "d": 228.17437500000233,
      "v": 100
    },
    {
      "midi": 54,
      "hit": false,
      "t": 112857.03000000032,
      "d": 466.2693750000035,
      "v": 100
    },
    {
      "midi": 70,
      "hit": false,
      "t": 112857.03000000033,
      "d": 466.2693750000035,
      "v": 100
    },
    {
      "midi": 70,
      "hit": false,
      "t": 113095.12500000001,
      "d": 228.17437500000233,
      "v": 100
    },
    {
      "midi": 70,
      "hit": false,
      "t": 113095.12500000007,
      "d": 228.17437500000233,
      "v": 100
    },
    {
      "midi": 66,
      "hit": false,
      "t": 113095.12500000009,
      "d": 228.17437500000233,
      "v": 100
    },
    {
      "midi": 58,
      "hit": false,
      "t": 113095.12500000032,
      "d": 942.4593750000058,
      "v": 100
    },
    {
      "midi": 73,
      "hit": false,
      "t": 113095.12500000033,
      "d": 466.2693750000035,
      "v": 100
    },
    {
      "midi": 70,
      "hit": false,
      "t": 113333.22000000002,
      "d": 942.4593750000058,
      "v": 100
    },
    {
      "midi": 70,
      "hit": false,
      "t": 113333.22000000007,
      "d": 942.4593750000058,
      "v": 100
    },
    {
      "midi": 66,
      "hit": false,
      "t": 113333.22000000009,
      "d": 942.4593750000058,
      "v": 100
    },
    {
      "midi": 61,
      "hit": false,
      "t": 113333.22000000009,
      "d": 942.4593750000058,
      "v": 100
    },
    {
      "midi": 49,
      "hit": false,
      "t": 113333.22000000032,
      "d": 942.4593750000058,
      "v": 100
    },
    {
      "midi": 61,
      "hit": false,
      "t": 113571.31500000032,
      "d": 228.17437500000233,
      "v": 100
    },
    {
      "midi": 70,
      "hit": false,
      "t": 113571.31500000034,
      "d": 228.17437500000233,
      "v": 100
    },
    {
      "midi": 54,
      "hit": false,
      "t": 113809.41000000032,
      "d": 228.17437500000233,
      "v": 100
    },
    {
      "midi": 66,
      "hit": false,
      "t": 113809.41000000034,
      "d": 466.2693750000035,
      "v": 100
    },
    {
      "midi": 61,
      "hit": false,
      "t": 114047.50500000032,
      "d": 228.17437500000233,
      "v": 100
    },
    {
      "midi": 71,
      "hit": false,
      "t": 114285.60000000002,
      "d": 704.3643750000047,
      "v": 100
    },
    {
      "midi": 71,
      "hit": false,
      "t": 114285.60000000008,
      "d": 704.3643750000047,
      "v": 100
    },
    {
      "midi": 68,
      "hit": false,
      "t": 114285.6000000001,
      "d": 704.3643750000047,
      "v": 100
    },
    {
      "midi": 49,
      "hit": false,
      "t": 114285.6000000001,
      "d": 942.4593750000058,
      "v": 100
    },
    {
      "midi": 49,
      "hit": false,
      "t": 114285.60000000033,
      "d": 942.4593750000058,
      "v": 100
    },
    {
      "midi": 61,
      "hit": false,
      "t": 114285.60000000033,
      "d": 942.4593750000058,
      "v": 100
    },
    {
      "midi": 61,
      "hit": false,
      "t": 114285.60000000034,
      "d": 942.4593750000058,
      "v": 100
    },
    {
      "midi": 59,
      "hit": false,
      "t": 114523.69500000033,
      "d": 228.17437500000233,
      "v": 100
    },
    {
      "midi": 65,
      "hit": false,
      "t": 114523.69500000034,
      "d": 228.17437500000233,
      "v": 100
    },
    {
      "midi": 53,
      "hit": false,
      "t": 114761.79000000033,
      "d": 466.2693750000035,
      "v": 100
    },
    {
      "midi": 71,
      "hit": false,
      "t": 114761.79000000034,
      "d": 228.17437500000233,
      "v": 100
    },
    {
      "midi": 70,
      "hit": false,
      "t": 114999.88500000002,
      "d": 228.17437500000233,
      "v": 100
    },
    {
      "midi": 70,
      "hit": false,
      "t": 114999.88500000008,
      "d": 228.17437500000233,
      "v": 100
    },
    {
      "midi": 67,
      "hit": false,
      "t": 114999.8850000001,
      "d": 228.17437500000233,
      "v": 100
    },
    {
      "midi": 59,
      "hit": false,
      "t": 114999.88500000033,
      "d": 942.4593750000058,
      "v": 100
    },
    {
      "midi": 73,
      "hit": false,
      "t": 114999.88500000034,
      "d": 466.2693750000035,
      "v": 100
    },
    {
      "midi": 71,
      "hit": false,
      "t": 115237.98000000003,
      "d": 466.2693750000035,
      "v": 100
    },
    {
      "midi": 71,
      "hit": false,
      "t": 115237.98000000008,
      "d": 466.2693750000035,
      "v": 100
    },
    {
      "midi": 68,
      "hit": false,
      "t": 115237.9800000001,
      "d": 466.2693750000035,
      "v": 100
    },
    {
      "midi": 49,
      "hit": false,
      "t": 115237.9800000001,
      "d": 942.4593750000058,
      "v": 100
    },
    {
      "midi": 49,
      "hit": false,
      "t": 115237.98000000033,
      "d": 942.4593750000058,
      "v": 100
    },
    {
      "midi": 61,
      "hit": false,
      "t": 115476.07500000033,
      "d": 228.17437500000233,
      "v": 100
    },
    {
      "midi": 71,
      "hit": false,
      "t": 115476.07500000035,
      "d": 228.17437500000233,
      "v": 100
    },
    {
      "midi": 68,
      "hit": false,
      "t": 115714.17000000003,
      "d": 466.2693750000035,
      "v": 100
    },
    {
      "midi": 68,
      "hit": false,
      "t": 115714.17000000009,
      "d": 466.2693750000035,
      "v": 100
    },
    {
      "midi": 65,
      "hit": false,
      "t": 115714.1700000001,
      "d": 466.2693750000035,
      "v": 100
    },
    {
      "midi": 53,
      "hit": false,
      "t": 115714.17000000033,
      "d": 228.17437500000233,
      "v": 100
    },
    {
      "midi": 65,
      "hit": false,
      "t": 115714.17000000035,
      "d": 466.2693750000035,
      "v": 100
    },
    {
      "midi": 61,
      "hit": false,
      "t": 115952.26500000033,
      "d": 228.17437500000233,
      "v": 100
    },
    {
      "midi": 70,
      "hit": false,
      "t": 116190.36000000003,
      "d": 1418.6493749999936,
      "v": 100
    },
    {
      "midi": 70,
      "hit": false,
      "t": 116190.36000000009,
      "d": 1418.6493749999936,
      "v": 100
    },
    {
      "midi": 66,
      "hit": false,
      "t": 116190.3600000001,
      "d": 1418.6493749999936,
      "v": 100
    },
    {
      "midi": 54,
      "hit": false,
      "t": 116190.3600000001,
      "d": 466.2693750000035,
      "v": 100
    },
    {
      "midi": 49,
      "hit": false,
      "t": 116190.36000000034,
      "d": 942.4593750000058,
      "v": 100
    },
    {
      "midi": 61,
      "hit": false,
      "t": 116190.36000000034,
      "d": 942.4593750000058,
      "v": 100
    },
    {
      "midi": 61,
      "hit": false,
      "t": 116190.36000000035,
      "d": 942.4593750000058,
      "v": 100
    },
    {
      "midi": 58,
      "hit": false,
      "t": 116428.45500000034,
      "d": 228.17437500000233,
      "v": 100
    },
    {
      "midi": 66,
      "hit": false,
      "t": 116428.45500000035,
      "d": 228.17437500000233,
      "v": 100
    },
    {
      "midi": 49,
      "hit": false,
      "t": 116666.5500000001,
      "d": 466.2693750000035,
      "v": 100
    },
    {
      "midi": 54,
      "hit": false,
      "t": 116666.55000000034,
      "d": 466.2693750000035,
      "v": 100
    },
    {
      "midi": 70,
      "hit": false,
      "t": 116666.55000000035,
      "d": 466.2693750000035,
      "v": 100
    },
    {
      "midi": 58,
      "hit": false,
      "t": 116904.64500000034,
      "d": 942.4593750000058,
      "v": 100
    },
    {
      "midi": 73,
      "hit": false,
      "t": 116904.64500000035,
      "d": 466.2693750000035,
      "v": 100
    },
    {
      "midi": 42,
      "hit": false,
      "t": 117142.7400000001,
      "d": 942.4593750000058,
      "v": 100
    },
    {
      "midi": 49,
      "hit": false,
      "t": 117142.74000000034,
      "d": 942.4593750000058,
      "v": 100
    },
    {
      "midi": 61,
      "hit": false,
      "t": 117380.83500000034,
      "d": 228.17437500000233,
      "v": 100
    },
    {
      "midi": 70,
      "hit": false,
      "t": 117380.83500000036,
      "d": 228.17437500000233,
      "v": 100
    },
    {
      "midi": 66,
      "hit": false,
      "t": 117618.93000000002,
      "d": 228.17437500000233,
      "v": 100
    },
    {
      "midi": 66,
      "hit": false,
      "t": 117618.93000000008,
      "d": 228.17437500000233,
      "v": 100
    },
    {
      "midi": 61,
      "hit": false,
      "t": 117618.9300000001,
      "d": 228.17437500000233,
      "v": 100
    },
    {
      "midi": 54,
      "hit": false,
      "t": 117618.93000000034,
      "d": 228.17437500000233,
      "v": 100
    },
    {
      "midi": 66,
      "hit": false,
      "t": 117618.93000000036,
      "d": 466.2693750000035,
      "v": 100
    },
    {
      "midi": 66,
      "hit": false,
      "t": 117857.02500000002,
      "d": 228.17437500000233,
      "v": 100
    },
    {
      "midi": 66,
      "hit": false,
      "t": 117857.02500000008,
      "d": 228.17437500000233,
      "v": 100
    },
    {
      "midi": 61,
      "hit": false,
      "t": 117857.0250000001,
      "d": 228.17437500000233,
      "v": 100
    },
    {
      "midi": 61,
      "hit": false,
      "t": 117857.02500000034,
      "d": 228.17437500000233,
      "v": 100
    },
    {
      "midi": 70,
      "hit": false,
      "t": 118095.12000000002,
      "d": 704.3643750000047,
      "v": 100
    },
    {
      "midi": 70,
      "hit": false,
      "t": 118095.12000000008,
      "d": 704.3643750000047,
      "v": 100
    },
    {
      "midi": 66,
      "hit": false,
      "t": 118095.1200000001,
      "d": 704.3643750000047,
      "v": 100
    },
    {
      "midi": 54,
      "hit": false,
      "t": 118095.12000000011,
      "d": 942.4593750000058,
      "v": 100
    },
    {
      "midi": 49,
      "hit": false,
      "t": 118095.12000000034,
      "d": 942.4593750000058,
      "v": 100
    },
    {
      "midi": 61,
      "hit": false,
      "t": 118095.12000000034,
      "d": 942.4593750000058,
      "v": 100
    },
    {
      "midi": 61,
      "hit": false,
      "t": 118095.12000000036,
      "d": 942.4593750000058,
      "v": 100
    },
    {
      "midi": 58,
      "hit": false,
      "t": 118333.21500000035,
      "d": 228.17437500000233,
      "v": 100
    },
    {
      "midi": 66,
      "hit": false,
      "t": 118333.21500000036,
      "d": 228.17437500000233,
      "v": 100
    },
    {
      "midi": 54,
      "hit": false,
      "t": 118571.31000000035,
      "d": 466.2693750000035,
      "v": 100
    },
    {
      "midi": 70,
      "hit": false,
      "t": 118571.31000000036,
      "d": 466.2693750000035,
      "v": 100
    },
    {
      "midi": 71,
      "hit": false,
      "t": 118809.40500000003,
      "d": 228.17437500000233,
      "v": 100
    },
    {
      "midi": 71,
      "hit": false,
      "t": 118809.40500000009,
      "d": 228.17437500000233,
      "v": 100
    },
    {
      "midi": 68,
      "hit": false,
      "t": 118809.4050000001,
      "d": 228.17437500000233,
      "v": 100
    },
    {
      "midi": 59,
      "hit": false,
      "t": 118809.40500000035,
      "d": 942.4593750000058,
      "v": 100
    },
    {
      "midi": 71,
      "hit": false,
      "t": 118809.40500000036,
      "d": 466.2693750000035,
      "v": 100
    },
    {
      "midi": 71,
      "hit": false,
      "t": 119047.50000000003,
      "d": 704.3643750000047,
      "v": 100
    },
    {
      "midi": 71,
      "hit": false,
      "t": 119047.50000000009,
      "d": 704.3643750000047,
      "v": 100
    },
    {
      "midi": 68,
      "hit": false,
      "t": 119047.5000000001,
      "d": 704.3643750000047,
      "v": 100
    },
    {
      "midi": 56,
      "hit": false,
      "t": 119047.50000000012,
      "d": 942.4593750000058,
      "v": 100
    },
    {
      "midi": 49,
      "hit": false,
      "t": 119047.50000000035,
      "d": 942.4593750000058,
      "v": 100
    },
    {
      "midi": 61,
      "hit": false,
      "t": 119285.59500000035,
      "d": 228.17437500000233,
      "v": 100
    },
    {
      "midi": 68,
      "hit": false,
      "t": 119285.59500000036,
      "d": 228.17437500000233,
      "v": 100
    },
    {
      "midi": 56,
      "hit": false,
      "t": 119523.69000000035,
      "d": 228.17437500000233,
      "v": 100
    },
    {
      "midi": 65,
      "hit": false,
      "t": 119523.69000000037,
      "d": 466.2693750000035,
      "v": 100
    },
    {
      "midi": 75,
      "hit": false,
      "t": 119761.78500000003,
      "d": 228.17437500000233,
      "v": 100
    },
    {
      "midi": 75,
      "hit": false,
      "t": 119761.78500000009,
      "d": 228.17437500000233,
      "v": 100
    },
    {
      "midi": 71,
      "hit": false,
      "t": 119761.7850000001,
      "d": 228.17437500000233,
      "v": 100
    },
    {
      "midi": 59,
      "hit": false,
      "t": 119761.78500000035,
      "d": 228.17437500000233,
      "v": 100
    },
    {
      "midi": 73,
      "hit": false,
      "t": 119999.88000000003,
      "d": 942.4593750000058,
      "v": 100
    },
    {
      "midi": 73,
      "hit": false,
      "t": 119999.88000000009,
      "d": 942.4593750000058,
      "v": 100
    },
    {
      "midi": 70,
      "hit": false,
      "t": 119999.8800000001,
      "d": 942.4593750000058,
      "v": 100
    },
    {
      "midi": 58,
      "hit": false,
      "t": 119999.88000000012,
      "d": 942.4593750000058,
      "v": 100
    },
    {
      "midi": 61,
      "hit": false,
      "t": 119999.88000000035,
      "d": 942.4593750000058,
      "v": 100
    },
    {
      "midi": 49,
      "hit": false,
      "t": 119999.88000000035,
      "d": 942.4593750000058,
      "v": 100
    },
    {
      "midi": 61,
      "hit": false,
      "t": 119999.88000000037,
      "d": 942.4593750000058,
      "v": 100
    },
    {
      "midi": 58,
      "hit": false,
      "t": 120237.97500000036,
      "d": 228.17437500000233,
      "v": 100
    },
    {
      "midi": 66,
      "hit": false,
      "t": 120237.97500000037,
      "d": 228.17437500000233,
      "v": 100
    },
    {
      "midi": 54,
      "hit": false,
      "t": 120476.07000000036,
      "d": 466.2693750000035,
      "v": 100
    },
    {
      "midi": 70,
      "hit": false,
      "t": 120476.07000000037,
      "d": 466.2693750000035,
      "v": 100
    },
    {
      "midi": 58,
      "hit": false,
      "t": 120714.16500000036,
      "d": 942.4593750000058,
      "v": 100
    },
    {
      "midi": 73,
      "hit": false,
      "t": 120714.16500000037,
      "d": 466.2693750000035,
      "v": 100
    },
    {
      "midi": 70,
      "hit": false,
      "t": 120952.26000000004,
      "d": 466.2693750000035,
      "v": 100
    },
    {
      "midi": 70,
      "hit": false,
      "t": 120952.2600000001,
      "d": 466.2693750000035,
      "v": 100
    },
    {
      "midi": 66,
      "hit": false,
      "t": 120952.26000000011,
      "d": 466.2693750000035,
      "v": 100
    },
    {
      "midi": 61,
      "hit": false,
      "t": 120952.26000000013,
      "d": 942.4593750000058,
      "v": 100
    },
    {
      "midi": 49,
      "hit": false,
      "t": 120952.26000000036,
      "d": 942.4593750000058,
      "v": 100
    },
    {
      "midi": 61,
      "hit": false,
      "t": 121190.35500000036,
      "d": 228.17437500000233,
      "v": 100
    },
    {
      "midi": 70,
      "hit": false,
      "t": 121190.35500000037,
      "d": 228.17437500000233,
      "v": 100
    },
    {
      "midi": 73,
      "hit": false,
      "t": 121428.45000000004,
      "d": 466.2693750000035,
      "v": 100
    },
    {
      "midi": 73,
      "hit": false,
      "t": 121428.4500000001,
      "d": 466.2693750000035,
      "v": 100
    },
    {
      "midi": 70,
      "hit": false,
      "t": 121428.45000000011,
      "d": 466.2693750000035,
      "v": 100
    },
    {
      "midi": 54,
      "hit": false,
      "t": 121428.45000000036,
      "d": 228.17437500000233,
      "v": 100
    },
    {
      "midi": 66,
      "hit": false,
      "t": 121428.45000000038,
      "d": 466.2693750000035,
      "v": 100
    },
    {
      "midi": 61,
      "hit": false,
      "t": 121666.54500000036,
      "d": 228.17437500000233,
      "v": 100
    },
    {
      "midi": 71,
      "hit": false,
      "t": 121904.64000000004,
      "d": 704.3643750000047,
      "v": 100
    },
    {
      "midi": 71,
      "hit": false,
      "t": 121904.6400000001,
      "d": 704.3643750000047,
      "v": 100
    },
    {
      "midi": 68,
      "hit": false,
      "t": 121904.64000000012,
      "d": 704.3643750000047,
      "v": 100
    },
    {
      "midi": 49,
      "hit": false,
      "t": 121904.64000000013,
      "d": 942.4593750000058,
      "v": 100
    },
    {
      "midi": 61,
      "hit": false,
      "t": 121904.64000000036,
      "d": 942.4593750000058,
      "v": 100
    },
    {
      "midi": 49,
      "hit": false,
      "t": 121904.64000000036,
      "d": 942.4593750000058,
      "v": 100
    },
    {
      "midi": 61,
      "hit": false,
      "t": 121904.64000000038,
      "d": 942.4593750000058,
      "v": 100
    },
    {
      "midi": 59,
      "hit": false,
      "t": 122142.73500000036,
      "d": 228.17437500000233,
      "v": 100
    },
    {
      "midi": 65,
      "hit": false,
      "t": 122142.73500000038,
      "d": 228.17437500000233,
      "v": 100
    },
    {
      "midi": 53,
      "hit": false,
      "t": 122380.83000000037,
      "d": 466.2693750000035,
      "v": 100
    },
    {
      "midi": 71,
      "hit": false,
      "t": 122380.83000000038,
      "d": 228.17437500000233,
      "v": 100
    },
    {
      "midi": 70,
      "hit": false,
      "t": 122618.92500000005,
      "d": 228.17437500000233,
      "v": 100
    },
    {
      "midi": 70,
      "hit": false,
      "t": 122618.9250000001,
      "d": 228.17437500000233,
      "v": 100
    },
    {
      "midi": 67,
      "hit": false,
      "t": 122618.92500000012,
      "d": 228.17437500000233,
      "v": 100
    },
    {
      "midi": 59,
      "hit": false,
      "t": 122618.92500000037,
      "d": 942.4593750000058,
      "v": 100
    },
    {
      "midi": 73,
      "hit": false,
      "t": 122618.92500000038,
      "d": 466.2693750000035,
      "v": 100
    },
    {
      "midi": 71,
      "hit": false,
      "t": 122857.02000000005,
      "d": 466.2693750000035,
      "v": 100
    },
    {
      "midi": 71,
      "hit": false,
      "t": 122857.0200000001,
      "d": 466.2693750000035,
      "v": 100
    },
    {
      "midi": 68,
      "hit": false,
      "t": 122857.02000000012,
      "d": 466.2693750000035,
      "v": 100
    },
    {
      "midi": 49,
      "hit": false,
      "t": 122857.02000000014,
      "d": 942.4593750000058,
      "v": 100
    },
    {
      "midi": 49,
      "hit": false,
      "t": 122857.02000000037,
      "d": 942.4593750000058,
      "v": 100
    },
    {
      "midi": 61,
      "hit": false,
      "t": 123095.11500000037,
      "d": 228.17437500000233,
      "v": 100
    },
    {
      "midi": 71,
      "hit": false,
      "t": 123095.11500000038,
      "d": 228.17437500000233,
      "v": 100
    },
    {
      "midi": 68,
      "hit": false,
      "t": 123333.21000000005,
      "d": 466.2693750000035,
      "v": 100
    },
    {
      "midi": 68,
      "hit": false,
      "t": 123333.21000000011,
      "d": 466.2693750000035,
      "v": 100
    },
    {
      "midi": 61,
      "hit": false,
      "t": 123333.21000000012,
      "d": 466.2693750000035,
      "v": 100
    },
    {
      "midi": 53,
      "hit": false,
      "t": 123333.21000000037,
      "d": 228.17437500000233,
      "v": 100
    },
    {
      "midi": 65,
      "hit": false,
      "t": 123333.21000000038,
      "d": 466.2693750000035,
      "v": 100
    },
    {
      "midi": 61,
      "hit": false,
      "t": 123571.30500000037,
      "d": 228.17437500000233,
      "v": 100
    },
    {
      "midi": 66,
      "hit": false,
      "t": 123809.40000000005,
      "d": 1418.6493749999936,
      "v": 100
    },
    {
      "midi": 66,
      "hit": false,
      "t": 123809.40000000011,
      "d": 1418.6493749999936,
      "v": 100
    },
    {
      "midi": 58,
      "hit": false,
      "t": 123809.40000000013,
      "d": 1418.6493749999936,
      "v": 100
    },
    {
      "midi": 54,
      "hit": false,
      "t": 123809.40000000014,
      "d": 466.2693750000035,
      "v": 100
    },
    {
      "midi": 61,
      "hit": false,
      "t": 123809.40000000037,
      "d": 942.4593750000058,
      "v": 100
    },
    {
      "midi": 49,
      "hit": false,
      "t": 123809.40000000037,
      "d": 942.4593750000058,
      "v": 100
    },
    {
      "midi": 61,
      "hit": false,
      "t": 123809.40000000039,
      "d": 942.4593750000058,
      "v": 100
    },
    {
      "midi": 58,
      "hit": false,
      "t": 124047.49500000037,
      "d": 228.17437500000233,
      "v": 100
    },
    {
      "midi": 66,
      "hit": false,
      "t": 124047.49500000039,
      "d": 228.17437500000233,
      "v": 100
    },
    {
      "midi": 49,
      "hit": false,
      "t": 124285.59000000014,
      "d": 466.2693750000035,
      "v": 100
    },
    {
      "midi": 54,
      "hit": false,
      "t": 124285.59000000037,
      "d": 466.2693750000035,
      "v": 100
    },
    {
      "midi": 70,
      "hit": false,
      "t": 124285.59000000039,
      "d": 466.2693750000035,
      "v": 100
    },
    {
      "midi": 58,
      "hit": false,
      "t": 124523.68500000038,
      "d": 942.4593750000058,
      "v": 100
    },
    {
      "midi": 73,
      "hit": false,
      "t": 124523.68500000039,
      "d": 466.2693750000035,
      "v": 100
    },
    {
      "midi": 42,
      "hit": false,
      "t": 124761.78000000014,
      "d": 942.4593750000058,
      "v": 100
    },
    {
      "midi": 49,
      "hit": false,
      "t": 124761.78000000038,
      "d": 942.4593750000058,
      "v": 100
    },
    {
      "midi": 61,
      "hit": false,
      "t": 124999.87500000038,
      "d": 228.17437500000233,
      "v": 100
    },
    {
      "midi": 70,
      "hit": false,
      "t": 124999.8750000004,
      "d": 228.17437500000233,
      "v": 100
    },
    {
      "midi": 73,
      "hit": false,
      "t": 125237.97000000004,
      "d": 466.2693750000035,
      "v": 100
    },
    {
      "midi": 73,
      "hit": false,
      "t": 125237.9700000001,
      "d": 466.2693750000035,
      "v": 100
    },
    {
      "midi": 66,
      "hit": false,
      "t": 125237.97000000012,
      "d": 466.2693750000035,
      "v": 100
    },
    {
      "midi": 54,
      "hit": false,
      "t": 125237.97000000038,
      "d": 228.17437500000233,
      "v": 100
    },
    {
      "midi": 66,
      "hit": false,
      "t": 125237.9700000004,
      "d": 466.2693750000035,
      "v": 100
    },
    {
      "midi": 61,
      "hit": false,
      "t": 125476.06500000038,
      "d": 228.17437500000233,
      "v": 100
    },
    {
      "midi": 78,
      "hit": false,
      "t": 125714.16000000005,
      "d": 704.3643750000047,
      "v": 100
    },
    {
      "midi": 78,
      "hit": false,
      "t": 125714.1600000001,
      "d": 704.3643750000047,
      "v": 100
    },
    {
      "midi": 75,
      "hit": false,
      "t": 125714.16000000012,
      "d": 704.3643750000047,
      "v": 100
    },
    {
      "midi": 59,
      "hit": false,
      "t": 125714.16000000015,
      "d": 942.4593750000058,
      "v": 100
    },
    {
      "midi": 63,
      "hit": false,
      "t": 125714.16000000038,
      "d": 942.4593750000058,
      "v": 100
    },
    {
      "midi": 47,
      "hit": false,
      "t": 125714.16000000038,
      "d": 942.4593750000058,
      "v": 100
    },
    {
      "midi": 59,
      "hit": false,
      "t": 125714.1600000004,
      "d": 942.4593750000058,
      "v": 100
    },
    {
      "midi": 59,
      "hit": false,
      "t": 125952.25500000038,
      "d": 228.17437500000233,
      "v": 100
    },
    {
      "midi": 66,
      "hit": false,
      "t": 125952.2550000004,
      "d": 228.17437500000233,
      "v": 100
    },
    {
      "midi": 54,
      "hit": false,
      "t": 126190.35000000038,
      "d": 466.2693750000035,
      "v": 100
    },
    {
      "midi": 71,
      "hit": false,
      "t": 126190.3500000004,
      "d": 228.17437500000233,
      "v": 100
    },
    {
      "midi": 77,
      "hit": false,
      "t": 126428.44500000005,
      "d": 228.17437500000233,
      "v": 100
    },
    {
      "midi": 77,
      "hit": false,
      "t": 126428.44500000011,
      "d": 228.17437500000233,
      "v": 100
    },
    {
      "midi": 73,
      "hit": false,
      "t": 126428.44500000012,
      "d": 228.17437500000233,
      "v": 100
    },
    {
      "midi": 59,
      "hit": false,
      "t": 126428.44500000039,
      "d": 714.2850000000035,
      "v": 100
    },
    {
      "midi": 75,
      "hit": false,
      "t": 126428.4450000004,
      "d": 942.4593750000058,
      "v": 100
    },
    {
      "midi": 75,
      "hit": false,
      "t": 126666.54000000005,
      "d": 704.3643750000047,
      "v": 100
    },
    {
      "midi": 75,
      "hit": false,
      "t": 126666.54000000011,
      "d": 704.3643750000047,
      "v": 100
    },
    {
      "midi": 71,
      "hit": false,
      "t": 126666.54000000012,
      "d": 704.3643750000047,
      "v": 100
    },
    {
      "midi": 59,
      "hit": false,
      "t": 126666.54000000015,
      "d": 942.4593750000058,
      "v": 100
    },
    {
      "midi": 47,
      "hit": false,
      "t": 126666.54000000039,
      "d": 942.4593750000058,
      "v": 100
    },
    {
      "midi": 63,
      "hit": false,
      "t": 126904.63500000039,
      "d": 228.17437500000233,
      "v": 100
    },
    {
      "midi": 71,
      "hit": false,
      "t": 126904.6350000004,
      "d": 228.17437500000233,
      "v": 100
    },
    {
      "midi": 59,
      "hit": false,
      "t": 127142.73000000039,
      "d": 228.17437500000233,
      "v": 100
    },
    {
      "midi": 66,
      "hit": false,
      "t": 127142.7300000004,
      "d": 466.2693750000035,
      "v": 100
    },
    {
      "midi": 73,
      "hit": false,
      "t": 127380.82500000006,
      "d": 228.17437500000233,
      "v": 100
    },
    {
      "midi": 73,
      "hit": false,
      "t": 127380.82500000011,
      "d": 228.17437500000233,
      "v": 100
    },
    {
      "midi": 70,
      "hit": false,
      "t": 127380.82500000013,
      "d": 228.17437500000233,
      "v": 100
    },
    {
      "midi": 63,
      "hit": false,
      "t": 127380.82500000039,
      "d": 228.17437500000233,
      "v": 100
    },
    {
      "midi": 73,
      "hit": false,
      "t": 127618.92000000006,
      "d": 942.4593750000058,
      "v": 100
    },
    {
      "midi": 73,
      "hit": false,
      "t": 127618.92000000011,
      "d": 942.4593750000058,
      "v": 100
    },
    {
      "midi": 70,
      "hit": false,
      "t": 127618.92000000013,
      "d": 942.4593750000058,
      "v": 100
    },
    {
      "midi": 58,
      "hit": false,
      "t": 127618.92000000016,
      "d": 942.4593750000058,
      "v": 100
    },
    {
      "midi": 49,
      "hit": false,
      "t": 127618.92000000039,
      "d": 942.4593750000058,
      "v": 100
    },
    {
      "midi": 61,
      "hit": false,
      "t": 127618.92000000039,
      "d": 942.4593750000058,
      "v": 100
    },
    {
      "midi": 61,
      "hit": false,
      "t": 127618.9200000004,
      "d": 942.4593750000058,
      "v": 100
    },
    {
      "midi": 58,
      "hit": false,
      "t": 127857.01500000039,
      "d": 228.17437500000233,
      "v": 100
    },
    {
      "midi": 66,
      "hit": false,
      "t": 127857.0150000004,
      "d": 228.17437500000233,
      "v": 100
    },
    {
      "midi": 54,
      "hit": false,
      "t": 128095.1100000004,
      "d": 466.2693750000035,
      "v": 100
    },
    {
      "midi": 70,
      "hit": false,
      "t": 128095.11000000041,
      "d": 466.2693750000035,
      "v": 100
    },
    {
      "midi": 58,
      "hit": false,
      "t": 128333.2050000004,
      "d": 942.4593750000058,
      "v": 100
    },
    {
      "midi": 73,
      "hit": false,
      "t": 128333.20500000041,
      "d": 466.2693750000035,
      "v": 100
    },
    {
      "midi": 70,
      "hit": false,
      "t": 128571.30000000006,
      "d": 466.2693750000035,
      "v": 100
    },
    {
      "midi": 70,
      "hit": false,
      "t": 128571.30000000012,
      "d": 466.2693750000035,
      "v": 100
    },
    {
      "midi": 66,
      "hit": false,
      "t": 128571.30000000013,
      "d": 466.2693750000035,
      "v": 100
    },
    {
      "midi": 54,
      "hit": false,
      "t": 128571.30000000016,
      "d": 942.4593750000058,
      "v": 100
    },
    {
      "midi": 49,
      "hit": false,
      "t": 128571.3000000004,
      "d": 942.4593750000058,
      "v": 100
    },
    {
      "midi": 61,
      "hit": false,
      "t": 128809.3950000004,
      "d": 228.17437500000233,
      "v": 100
    },
    {
      "midi": 70,
      "hit": false,
      "t": 128809.39500000041,
      "d": 228.17437500000233,
      "v": 100
    },
    {
      "midi": 73,
      "hit": false,
      "t": 129047.49000000006,
      "d": 466.2693750000035,
      "v": 100
    },
    {
      "midi": 73,
      "hit": false,
      "t": 129047.49000000012,
      "d": 466.2693750000035,
      "v": 100
    },
    {
      "midi": 70,
      "hit": false,
      "t": 129047.49000000014,
      "d": 466.2693750000035,
      "v": 100
    },
    {
      "midi": 54,
      "hit": false,
      "t": 129047.4900000004,
      "d": 228.17437500000233,
      "v": 100
    },
    {
      "midi": 66,
      "hit": false,
      "t": 129047.49000000041,
      "d": 466.2693750000035,
      "v": 100
    },
    {
      "midi": 61,
      "hit": false,
      "t": 129285.5850000004,
      "d": 228.17437500000233,
      "v": 100
    },
    {
      "midi": 71,
      "hit": false,
      "t": 129523.68000000007,
      "d": 704.3643750000047,
      "v": 100
    },
    {
      "midi": 71,
      "hit": false,
      "t": 129523.68000000012,
      "d": 704.3643750000047,
      "v": 100
    },
    {
      "midi": 68,
      "hit": false,
      "t": 129523.68000000014,
      "d": 704.3643750000047,
      "v": 100
    },
    {
      "midi": 49,
      "hit": false,
      "t": 129523.68000000017,
      "d": 942.4593750000058,
      "v": 100
    },
    {
      "midi": 61,
      "hit": false,
      "t": 129523.6800000004,
      "d": 942.4593750000058,
      "v": 100
    },
    {
      "midi": 49,
      "hit": false,
      "t": 129523.6800000004,
      "d": 942.4593750000058,
      "v": 100
    },
    {
      "midi": 61,
      "hit": false,
      "t": 129523.68000000042,
      "d": 942.4593750000058,
      "v": 100
    },
    {
      "midi": 59,
      "hit": false,
      "t": 129761.7750000004,
      "d": 228.17437500000233,
      "v": 100
    },
    {
      "midi": 65,
      "hit": false,
      "t": 129761.77500000042,
      "d": 228.17437500000233,
      "v": 100
    },
    {
      "midi": 53,
      "hit": false,
      "t": 129999.8700000004,
      "d": 466.2693750000035,
      "v": 100
    },
    {
      "midi": 71,
      "hit": false,
      "t": 129999.87000000042,
      "d": 228.17437500000233,
      "v": 100
    },
    {
      "midi": 70,
      "hit": false,
      "t": 130237.96500000007,
      "d": 228.17437500000233,
      "v": 100
    },
    {
      "midi": 70,
      "hit": false,
      "t": 130237.96500000013,
      "d": 228.17437500000233,
      "v": 100
    },
    {
      "midi": 67,
      "hit": false,
      "t": 130237.96500000014,
      "d": 228.17437500000233,
      "v": 100
    },
    {
      "midi": 59,
      "hit": false,
      "t": 130237.9650000004,
      "d": 942.4593750000058,
      "v": 100
    },
    {
      "midi": 73,
      "hit": false,
      "t": 130237.96500000042,
      "d": 466.2693750000035,
      "v": 100
    },
    {
      "midi": 71,
      "hit": false,
      "t": 130476.06000000007,
      "d": 466.2693750000035,
      "v": 100
    },
    {
      "midi": 71,
      "hit": false,
      "t": 130476.06000000013,
      "d": 466.2693750000035,
      "v": 100
    },
    {
      "midi": 68,
      "hit": false,
      "t": 130476.06000000014,
      "d": 466.2693750000035,
      "v": 100
    },
    {
      "midi": 49,
      "hit": false,
      "t": 130476.06000000017,
      "d": 942.4593750000058,
      "v": 100
    },
    {
      "midi": 49,
      "hit": false,
      "t": 130476.0600000004,
      "d": 942.4593750000058,
      "v": 100
    },
    {
      "midi": 61,
      "hit": false,
      "t": 130714.1550000004,
      "d": 228.17437500000233,
      "v": 100
    },
    {
      "midi": 71,
      "hit": false,
      "t": 130714.15500000042,
      "d": 228.17437500000233,
      "v": 100
    },
    {
      "midi": 68,
      "hit": false,
      "t": 130952.25000000007,
      "d": 466.26937499998894,
      "v": 100
    },
    {
      "midi": 68,
      "hit": false,
      "t": 130952.25000000013,
      "d": 466.26937499998894,
      "v": 100
    },
    {
      "midi": 65,
      "hit": false,
      "t": 130952.25000000015,
      "d": 466.2693750000035,
      "v": 100
    },
    {
      "midi": 53,
      "hit": false,
      "t": 130952.25000000041,
      "d": 228.17437500000233,
      "v": 100
    },
    {
      "midi": 65,
      "hit": false,
      "t": 130952.25000000042,
      "d": 466.26937499998894,
      "v": 100
    },
    {
      "midi": 61,
      "hit": false,
      "t": 131190.3450000004,
      "d": 228.17437500000233,
      "v": 100
    },
    {
      "midi": 70,
      "hit": false,
      "t": 131428.44000000006,
      "d": 1418.6493750000081,
      "v": 100
    },
    {
      "midi": 70,
      "hit": false,
      "t": 131428.44000000012,
      "d": 1418.6493750000081,
      "v": 100
    },
    {
      "midi": 66,
      "hit": false,
      "t": 131428.44000000015,
      "d": 1418.6493750000081,
      "v": 100
    },
    {
      "midi": 54,
      "hit": false,
      "t": 131428.44000000018,
      "d": 466.2693750000035,
      "v": 100
    },
    {
      "midi": 61,
      "hit": false,
      "t": 131428.4400000004,
      "d": 942.4593750000058,
      "v": 100
    },
    {
      "midi": 49,
      "hit": false,
      "t": 131428.4400000004,
      "d": 942.4593750000058,
      "v": 100
    },
    {
      "midi": 61,
      "hit": false,
      "t": 131428.4400000004,
      "d": 942.4593750000058,
      "v": 100
    },
    {
      "midi": 66,
      "hit": false,
      "t": 131666.5350000004,
      "d": 228.17437500000233,
      "v": 100
    },
    {
      "midi": 58,
      "hit": false,
      "t": 131666.5350000004,
      "d": 228.17437500000233,
      "v": 100
    },
    {
      "midi": 49,
      "hit": false,
      "t": 131904.63000000018,
      "d": 466.2693750000035,
      "v": 100
    },
    {
      "midi": 70,
      "hit": false,
      "t": 131904.6300000004,
      "d": 466.2693750000035,
      "v": 100
    },
    {
      "midi": 54,
      "hit": false,
      "t": 131904.6300000004,
      "d": 466.2693750000035,
      "v": 100
    },
    {
      "midi": 73,
      "hit": false,
      "t": 132142.7250000004,
      "d": 466.2693750000035,
      "v": 100
    },
    {
      "midi": 58,
      "hit": false,
      "t": 132142.7250000004,
      "d": 942.4593750000058,
      "v": 100
    },
    {
      "midi": 42,
      "hit": false,
      "t": 132380.82000000018,
      "d": 942.4593750000058,
      "v": 100
    },
    {
      "midi": 49,
      "hit": false,
      "t": 132380.8200000004,
      "d": 942.4593750000058,
      "v": 100
    },
    {
      "midi": 70,
      "hit": false,
      "t": 132618.91500000042,
      "d": 228.17437500000233,
      "v": 100
    },
    {
      "midi": 61,
      "hit": false,
      "t": 132618.91500000042,
      "d": 228.17437500000233,
      "v": 100
    },
    {
      "midi": 73,
      "hit": false,
      "t": 132857.01000000007,
      "d": 466.2693750000035,
      "v": 100
    },
    {
      "midi": 73,
      "hit": false,
      "t": 132857.01000000013,
      "d": 466.2693750000035,
      "v": 100
    },
    {
      "midi": 70,
      "hit": false,
      "t": 132857.01000000015,
      "d": 466.2693750000035,
      "v": 100
    },
    {
      "midi": 66,
      "hit": false,
      "t": 132857.01000000042,
      "d": 466.2693750000035,
      "v": 100
    },
    {
      "midi": 54,
      "hit": false,
      "t": 132857.01000000042,
      "d": 228.17437500000233,
      "v": 100
    },
    {
      "midi": 61,
      "hit": false,
      "t": 133095.10500000042,
      "d": 228.17437500000233,
      "v": 100
    },
    {
      "midi": 78,
      "hit": false,
      "t": 133333.20000000007,
      "d": 704.3643750000047,
      "v": 100
    },
    {
      "midi": 78,
      "hit": false,
      "t": 133333.20000000013,
      "d": 704.3643750000047,
      "v": 100
    },
    {
      "midi": 75,
      "hit": false,
      "t": 133333.20000000016,
      "d": 704.3643750000047,
      "v": 100
    },
    {
      "midi": 59,
      "hit": false,
      "t": 133333.2000000002,
      "d": 942.4593750000058,
      "v": 100
    },
    {
      "midi": 59,
      "hit": false,
      "t": 133333.20000000042,
      "d": 942.4593750000058,
      "v": 100
    },
    {
      "midi": 63,
      "hit": false,
      "t": 133333.20000000042,
      "d": 942.4593750000058,
      "v": 100
    },
    {
      "midi": 47,
      "hit": false,
      "t": 133333.20000000042,
      "d": 942.4593750000058,
      "v": 100
    },
    {
      "midi": 66,
      "hit": false,
      "t": 133571.29500000042,
      "d": 228.17437500000233,
      "v": 100
    },
    {
      "midi": 59,
      "hit": false,
      "t": 133571.29500000042,
      "d": 228.17437500000233,
      "v": 100
    },
    {
      "midi": 71,
      "hit": false,
      "t": 133809.39000000042,
      "d": 228.17437500000233,
      "v": 100
    },
    {
      "midi": 54,
      "hit": false,
      "t": 133809.39000000042,
      "d": 466.2693750000035,
      "v": 100
    },
    {
      "midi": 77,
      "hit": false,
      "t": 134047.48500000007,
      "d": 228.17437500000233,
      "v": 100
    },
    {
      "midi": 77,
      "hit": false,
      "t": 134047.48500000013,
      "d": 228.17437500000233,
      "v": 100
    },
    {
      "midi": 73,
      "hit": false,
      "t": 134047.48500000016,
      "d": 228.17437500000233,
      "v": 100
    },
    {
      "midi": 75,
      "hit": false,
      "t": 134047.48500000042,
      "d": 942.4593750000058,
      "v": 100
    },
    {
      "midi": 59,
      "hit": false,
      "t": 134047.48500000042,
      "d": 714.2850000000035,
      "v": 100
    },
    {
      "midi": 75,
      "hit": false,
      "t": 134285.58000000007,
      "d": 704.3643750000047,
      "v": 100
    },
    {
      "midi": 75,
      "hit": false,
      "t": 134285.58000000013,
      "d": 704.3643750000047,
      "v": 100
    },
    {
      "midi": 71,
      "hit": false,
      "t": 134285.58000000016,
      "d": 704.3643750000047,
      "v": 100
    },
    {
      "midi": 59,
      "hit": false,
      "t": 134285.5800000002,
      "d": 942.4593750000058,
      "v": 100
    },
    {
      "midi": 47,
      "hit": false,
      "t": 134285.58000000042,
      "d": 942.4593750000058,
      "v": 100
    },
    {
      "midi": 71,
      "hit": false,
      "t": 134523.67500000042,
      "d": 228.17437500000233,
      "v": 100
    },
    {
      "midi": 63,
      "hit": false,
      "t": 134523.67500000042,
      "d": 228.17437500000233,
      "v": 100
    },
    {
      "midi": 66,
      "hit": false,
      "t": 134761.77000000043,
      "d": 466.2693750000035,
      "v": 100
    },
    {
      "midi": 59,
      "hit": false,
      "t": 134761.77000000043,
      "d": 228.17437500000233,
      "v": 100
    },
    {
      "midi": 73,
      "hit": false,
      "t": 134999.86500000008,
      "d": 228.17437500000233,
      "v": 100
    },
    {
      "midi": 73,
      "hit": false,
      "t": 134999.86500000014,
      "d": 228.17437500000233,
      "v": 100
    },
    {
      "midi": 70,
      "hit": false,
      "t": 134999.86500000017,
      "d": 228.17437500000233,
      "v": 100
    },
    {
      "midi": 63,
      "hit": false,
      "t": 134999.86500000043,
      "d": 228.17437500000233,
      "v": 100
    },
    {
      "midi": 73,
      "hit": false,
      "t": 135237.96000000008,
      "d": 942.4593750000058,
      "v": 100
    },
    {
      "midi": 73,
      "hit": false,
      "t": 135237.96000000014,
      "d": 942.4593750000058,
      "v": 100
    },
    {
      "midi": 70,
      "hit": false,
      "t": 135237.96000000017,
      "d": 942.4593750000058,
      "v": 100
    },
    {
      "midi": 58,
      "hit": false,
      "t": 135237.9600000002,
      "d": 942.4593750000058,
      "v": 100
    },
    {
      "midi": 61,
      "hit": false,
      "t": 135237.96000000043,
      "d": 942.4593750000058,
      "v": 100
    },
    {
      "midi": 49,
      "hit": false,
      "t": 135237.96000000043,
      "d": 942.4593750000058,
      "v": 100
    },
    {
      "midi": 61,
      "hit": false,
      "t": 135237.96000000043,
      "d": 942.4593750000058,
      "v": 100
    },
    {
      "midi": 66,
      "hit": false,
      "t": 135476.05500000043,
      "d": 228.17437500000233,
      "v": 100
    },
    {
      "midi": 58,
      "hit": false,
      "t": 135476.05500000043,
      "d": 228.17437500000233,
      "v": 100
    },
    {
      "midi": 70,
      "hit": false,
      "t": 135714.15000000043,
      "d": 466.2693750000035,
      "v": 100
    },
    {
      "midi": 54,
      "hit": false,
      "t": 135714.15000000043,
      "d": 466.2693750000035,
      "v": 100
    },
    {
      "midi": 73,
      "hit": false,
      "t": 135952.24500000043,
      "d": 466.2693750000035,
      "v": 100
    },
    {
      "midi": 58,
      "hit": false,
      "t": 135952.24500000043,
      "d": 942.4593750000058,
      "v": 100
    },
    {
      "midi": 70,
      "hit": false,
      "t": 136190.34000000008,
      "d": 466.2693750000035,
      "v": 100
    },
    {
      "midi": 70,
      "hit": false,
      "t": 136190.34000000014,
      "d": 466.2693750000035,
      "v": 100
    },
    {
      "midi": 66,
      "hit": false,
      "t": 136190.34000000017,
      "d": 466.2693750000035,
      "v": 100
    },
    {
      "midi": 54,
      "hit": false,
      "t": 136190.3400000002,
      "d": 942.4593750000058,
      "v": 100
    },
    {
      "midi": 49,
      "hit": false,
      "t": 136190.34000000043,
      "d": 942.4593750000058,
      "v": 100
    },
    {
      "midi": 70,
      "hit": false,
      "t": 136428.43500000043,
      "d": 228.17437500000233,
      "v": 100
    },
    {
      "midi": 61,
      "hit": false,
      "t": 136428.43500000043,
      "d": 228.17437500000233,
      "v": 100
    },
    {
      "midi": 73,
      "hit": false,
      "t": 136666.5300000001,
      "d": 466.2693750000035,
      "v": 100
    },
    {
      "midi": 73,
      "hit": false,
      "t": 136666.53000000014,
      "d": 466.2693750000035,
      "v": 100
    },
    {
      "midi": 70,
      "hit": false,
      "t": 136666.53000000017,
      "d": 466.2693750000035,
      "v": 100
    },
    {
      "midi": 66,
      "hit": false,
      "t": 136666.53000000044,
      "d": 466.2693750000035,
      "v": 100
    },
    {
      "midi": 54,
      "hit": false,
      "t": 136666.53000000044,
      "d": 228.17437500000233,
      "v": 100
    },
    {
      "midi": 61,
      "hit": false,
      "t": 136904.62500000044,
      "d": 228.17437500000233,
      "v": 100
    },
    {
      "midi": 71,
      "hit": false,
      "t": 137142.7200000001,
      "d": 704.3643750000047,
      "v": 100
    },
    {
      "midi": 71,
      "hit": false,
      "t": 137142.72000000015,
      "d": 704.3643750000047,
      "v": 100
    },
    {
      "midi": 68,
      "hit": false,
      "t": 137142.72000000018,
      "d": 704.3643750000047,
      "v": 100
    },
    {
      "midi": 49,
      "hit": false,
      "t": 137142.7200000002,
      "d": 942.4593750000058,
      "v": 100
    },
    {
      "midi": 61,
      "hit": false,
      "t": 137142.72000000044,
      "d": 942.4593750000058,
      "v": 100
    },
    {
      "midi": 49,
      "hit": false,
      "t": 137142.72000000044,
      "d": 942.4593750000058,
      "v": 100
    },
    {
      "midi": 61,
      "hit": false,
      "t": 137142.72000000044,
      "d": 942.4593750000058,
      "v": 100
    },
    {
      "midi": 65,
      "hit": false,
      "t": 137380.81500000044,
      "d": 228.17437500000233,
      "v": 100
    },
    {
      "midi": 59,
      "hit": false,
      "t": 137380.81500000044,
      "d": 228.17437500000233,
      "v": 100
    },
    {
      "midi": 71,
      "hit": false,
      "t": 137618.91000000044,
      "d": 228.17437500000233,
      "v": 100
    },
    {
      "midi": 53,
      "hit": false,
      "t": 137618.91000000044,
      "d": 466.2693750000035,
      "v": 100
    },
    {
      "midi": 70,
      "hit": false,
      "t": 137857.0050000001,
      "d": 228.17437500000233,
      "v": 100
    },
    {
      "midi": 70,
      "hit": false,
      "t": 137857.00500000015,
      "d": 228.17437500000233,
      "v": 100
    },
    {
      "midi": 67,
      "hit": false,
      "t": 137857.00500000018,
      "d": 228.17437500000233,
      "v": 100
    },
    {
      "midi": 73,
      "hit": false,
      "t": 137857.00500000044,
      "d": 466.2693750000035,
      "v": 100
    },
    {
      "midi": 59,
      "hit": false,
      "t": 137857.00500000044,
      "d": 942.4593750000058,
      "v": 100
    },
    {
      "midi": 71,
      "hit": false,
      "t": 138095.1000000001,
      "d": 466.2693750000035,
      "v": 100
    },
    {
      "midi": 71,
      "hit": false,
      "t": 138095.10000000015,
      "d": 466.2693750000035,
      "v": 100
    },
    {
      "midi": 68,
      "hit": false,
      "t": 138095.10000000018,
      "d": 466.2693750000035,
      "v": 100
    },
    {
      "midi": 49,
      "hit": false,
      "t": 138095.1000000002,
      "d": 942.4593750000058,
      "v": 100
    },
    {
      "midi": 49,
      "hit": false,
      "t": 138095.10000000044,
      "d": 942.4593750000058,
      "v": 100
    },
    {
      "midi": 71,
      "hit": false,
      "t": 138333.19500000044,
      "d": 228.17437500000233,
      "v": 100
    },
    {
      "midi": 61,
      "hit": false,
      "t": 138333.19500000044,
      "d": 228.17437500000233,
      "v": 100
    },
    {
      "midi": 68,
      "hit": false,
      "t": 138571.2900000001,
      "d": 466.2693750000035,
      "v": 100
    },
    {
      "midi": 68,
      "hit": false,
      "t": 138571.29000000015,
      "d": 466.2693750000035,
      "v": 100
    },
    {
      "midi": 61,
      "hit": false,
      "t": 138571.29000000018,
      "d": 466.2693750000035,
      "v": 100
    },
    {
      "midi": 65,
      "hit": false,
      "t": 138571.29000000044,
      "d": 466.2693750000035,
      "v": 100
    },
    {
      "midi": 53,
      "hit": false,
      "t": 138571.29000000044,
      "d": 228.17437500000233,
      "v": 100
    },
    {
      "midi": 61,
      "hit": false,
      "t": 138809.38500000045,
      "d": 228.17437500000233,
      "v": 100
    },
    {
      "midi": 66,
      "hit": false,
      "t": 139047.4800000001,
      "d": 1894.8393750000105,
      "v": 100
    },
    {
      "midi": 66,
      "hit": false,
      "t": 139047.48000000016,
      "d": 1894.8393750000105,
      "v": 100
    },
    {
      "midi": 58,
      "hit": false,
      "t": 139047.48000000019,
      "d": 1894.8393750000105,
      "v": 100
    },
    {
      "midi": 54,
      "hit": false,
      "t": 139047.4800000002,
      "d": 466.2693750000035,
      "v": 100
    },
    {
      "midi": 61,
      "hit": false,
      "t": 139047.48000000045,
      "d": 942.4593750000058,
      "v": 100
    },
    {
      "midi": 49,
      "hit": false,
      "t": 139047.48000000045,
      "d": 942.4593750000058,
      "v": 100
    },
    {
      "midi": 61,
      "hit": false,
      "t": 139047.48000000045,
      "d": 942.4593750000058,
      "v": 100
    },
    {
      "midi": 66,
      "hit": false,
      "t": 139285.57500000045,
      "d": 228.17437500000233,
      "v": 100
    },
    {
      "midi": 58,
      "hit": false,
      "t": 139285.57500000045,
      "d": 228.17437500000233,
      "v": 100
    },
    {
      "midi": 49,
      "hit": false,
      "t": 139523.67000000022,
      "d": 466.2693750000035,
      "v": 100
    },
    {
      "midi": 70,
      "hit": false,
      "t": 139523.67000000045,
      "d": 466.2693750000035,
      "v": 100
    },
    {
      "midi": 54,
      "hit": false,
      "t": 139523.67000000045,
      "d": 466.2693750000035,
      "v": 100
    },
    {
      "midi": 73,
      "hit": false,
      "t": 139761.76500000045,
      "d": 466.2693750000035,
      "v": 100
    },
    {
      "midi": 58,
      "hit": false,
      "t": 139761.76500000045,
      "d": 942.4593750000058,
      "v": 100
    },
    {
      "midi": 42,
      "hit": false,
      "t": 139999.86000000022,
      "d": 942.4593750000058,
      "v": 100
    },
    {
      "midi": 49,
      "hit": false,
      "t": 139999.86000000045,
      "d": 942.4593750000058,
      "v": 100
    },
    {
      "midi": 70,
      "hit": false,
      "t": 140237.95500000045,
      "d": 228.17437500000233,
      "v": 100
    },
    {
      "midi": 61,
      "hit": false,
      "t": 140237.95500000045,
      "d": 228.17437500000233,
      "v": 100
    },
    {
      "midi": 66,
      "hit": false,
      "t": 140476.05000000045,
      "d": 466.2693750000035,
      "v": 100
    },
    {
      "midi": 54,
      "hit": false,
      "t": 140476.05000000045,
      "d": 228.17437500000233,
      "v": 100
    },
    {
      "midi": 61,
      "hit": false,
      "t": 140714.14500000046,
      "d": 228.17437500000233,
      "v": 100
    },
    {
      "midi": 73,
      "hit": false,
      "t": 140952.2400000001,
      "d": 1894.8393750000105,
      "v": 100
    },
    {
      "midi": 73,
      "hit": false,
      "t": 140952.24000000017,
      "d": 1894.8393750000105,
      "v": 100
    },
    {
      "midi": 65,
      "hit": false,
      "t": 140952.2400000002,
      "d": 1894.8393750000105,
      "v": 100
    },
    {
      "midi": 49,
      "hit": false,
      "t": 140952.24000000022,
      "d": 942.4593750000058,
      "v": 100
    },
    {
      "midi": 59,
      "hit": false,
      "t": 140952.24000000046,
      "d": 942.4593750000058,
      "v": 100
    },
    {
      "midi": 49,
      "hit": false,
      "t": 140952.24000000046,
      "d": 942.4593750000058,
      "v": 100
    },
    {
      "midi": 61,
      "hit": false,
      "t": 140952.24000000046,
      "d": 942.4593750000058,
      "v": 100
    },
    {
      "midi": 65,
      "hit": false,
      "t": 141190.33500000046,
      "d": 228.17437500000233,
      "v": 100
    },
    {
      "midi": 59,
      "hit": false,
      "t": 141190.33500000046,
      "d": 228.17437500000233,
      "v": 100
    },
    {
      "midi": 68,
      "hit": false,
      "t": 141428.43000000046,
      "d": 228.17437500000233,
      "v": 100
    },
    {
      "midi": 53,
      "hit": false,
      "t": 141428.43000000046,
      "d": 466.2693750000035,
      "v": 100
    },
    {
      "midi": 71,
      "hit": false,
      "t": 141666.52500000046,
      "d": 466.2693750000035,
      "v": 100
    },
    {
      "midi": 59,
      "hit": false,
      "t": 141666.52500000046,
      "d": 942.4593750000058,
      "v": 100
    },
    {
      "midi": 49,
      "hit": false,
      "t": 141904.62000000023,
      "d": 942.4593750000058,
      "v": 100
    },
    {
      "midi": 49,
      "hit": false,
      "t": 141904.62000000046,
      "d": 942.4593750000058,
      "v": 100
    },
    {
      "midi": 68,
      "hit": false,
      "t": 142142.71500000046,
      "d": 228.17437500000233,
      "v": 100
    },
    {
      "midi": 61,
      "hit": false,
      "t": 142142.71500000046,
      "d": 228.17437500000233,
      "v": 100
    },
    {
      "midi": 65,
      "hit": false,
      "t": 142380.81000000046,
      "d": 466.2693750000035,
      "v": 100
    },
    {
      "midi": 53,
      "hit": false,
      "t": 142380.81000000046,
      "d": 228.17437500000233,
      "v": 100
    },
    {
      "midi": 61,
      "hit": false,
      "t": 142618.90500000046,
      "d": 228.17437500000233,
      "v": 100
    },
    {
      "midi": 71,
      "hit": false,
      "t": 142857.00000000012,
      "d": 942.4593750000058,
      "v": 100
    },
    {
      "midi": 71,
      "hit": false,
      "t": 142857.00000000017,
      "d": 942.4593750000058,
      "v": 100
    },
    {
      "midi": 68,
      "hit": false,
      "t": 142857.0000000002,
      "d": 942.4593750000058,
      "v": 100
    },
    {
      "midi": 49,
      "hit": false,
      "t": 142857.00000000023,
      "d": 942.4593750000058,
      "v": 100
    },
    {
      "midi": 61,
      "hit": false,
      "t": 142857.00000000047,
      "d": 942.4593750000058,
      "v": 100
    },
    {
      "midi": 61,
      "hit": false,
      "t": 142857.00000000047,
      "d": 942.4593750000058,
      "v": 100
    },
    {
      "midi": 49,
      "hit": false,
      "t": 142857.00000000047,
      "d": 942.4593750000058,
      "v": 100
    },
    {
      "midi": 65,
      "hit": false,
      "t": 143095.09500000047,
      "d": 228.17437500000233,
      "v": 100
    },
    {
      "midi": 59,
      "hit": false,
      "t": 143095.09500000047,
      "d": 228.17437500000233,
      "v": 100
    },
    {
      "midi": 71,
      "hit": false,
      "t": 143333.19000000047,
      "d": 228.17437500000233,
      "v": 100
    },
    {
      "midi": 53,
      "hit": false,
      "t": 143333.19000000047,
      "d": 466.2693750000035,
      "v": 100
    },
    {
      "midi": 73,
      "hit": false,
      "t": 143571.28500000047,
      "d": 466.2693750000035,
      "v": 100
    },
    {
      "midi": 59,
      "hit": false,
      "t": 143571.28500000047,
      "d": 942.4593750000058,
      "v": 100
    },
    {
      "midi": 68,
      "hit": false,
      "t": 143809.38000000012,
      "d": 942.4593750000058,
      "v": 100
    },
    {
      "midi": 68,
      "hit": false,
      "t": 143809.38000000018,
      "d": 942.4593750000058,
      "v": 100
    },
    {
      "midi": 61,
      "hit": false,
      "t": 143809.3800000002,
      "d": 942.4593750000058,
      "v": 100
    },
    {
      "midi": 49,
      "hit": false,
      "t": 143809.38000000024,
      "d": 942.4593750000058,
      "v": 100
    },
    {
      "midi": 49,
      "hit": false,
      "t": 143809.38000000047,
      "d": 942.4593750000058,
      "v": 100
    },
    {
      "midi": 71,
      "hit": false,
      "t": 144047.47500000047,
      "d": 228.17437500000233,
      "v": 100
    },
    {
      "midi": 61,
      "hit": false,
      "t": 144047.47500000047,
      "d": 228.17437500000233,
      "v": 100
    },
    {
      "midi": 65,
      "hit": false,
      "t": 144285.57000000047,
      "d": 466.2693750000035,
      "v": 100
    },
    {
      "midi": 53,
      "hit": false,
      "t": 144285.57000000047,
      "d": 228.17437500000233,
      "v": 100
    },
    {
      "midi": 61,
      "hit": false,
      "t": 144523.66500000047,
      "d": 228.17437500000233,
      "v": 100
    },
    {
      "midi": 66,
      "hit": false,
      "t": 144761.76000000013,
      "d": 942.4593750000058,
      "v": 100
    },
    {
      "midi": 66,
      "hit": false,
      "t": 144761.76000000018,
      "d": 942.4593750000058,
      "v": 100
    },
    {
      "midi": 58,
      "hit": false,
      "t": 144761.7600000002,
      "d": 942.4593750000058,
      "v": 100
    },
    {
      "midi": 54,
      "hit": false,
      "t": 144761.76000000024,
      "d": 942.4593750000058,
      "v": 100
    },
    {
      "midi": 61,
      "hit": false,
      "t": 144761.76000000047,
      "d": 942.4593750000058,
      "v": 100
    },
    {
      "midi": 49,
      "hit": false,
      "t": 144761.76000000047,
      "d": 942.4593750000058,
      "v": 100
    },
    {
      "midi": 61,
      "hit": false,
      "t": 144761.76000000047,
      "d": 942.4593750000058,
      "v": 100
    },
    {
      "midi": 66,
      "hit": false,
      "t": 144999.85500000048,
      "d": 228.17437500000233,
      "v": 100
    },
    {
      "midi": 58,
      "hit": false,
      "t": 144999.85500000048,
      "d": 228.17437500000233,
      "v": 100
    },
    {
      "midi": 70,
      "hit": false,
      "t": 145237.95000000048,
      "d": 466.2693750000035,
      "v": 100
    },
    {
      "midi": 54,
      "hit": false,
      "t": 145237.95000000048,
      "d": 466.2693750000035,
      "v": 100
    },
    {
      "midi": 73,
      "hit": false,
      "t": 145476.04500000048,
      "d": 466.2693750000035,
      "v": 100
    },
    {
      "midi": 58,
      "hit": false,
      "t": 145476.04500000048,
      "d": 942.4593750000058,
      "v": 100
    },
    {
      "midi": 68,
      "hit": false,
      "t": 145714.14000000013,
      "d": 942.4593750000058,
      "v": 100
    },
    {
      "midi": 68,
      "hit": false,
      "t": 145714.1400000002,
      "d": 942.4593750000058,
      "v": 100
    },
    {
      "midi": 61,
      "hit": false,
      "t": 145714.14000000022,
      "d": 942.4593750000058,
      "v": 100
    },
    {
      "midi": 53,
      "hit": false,
      "t": 145714.14000000025,
      "d": 942.4593750000058,
      "v": 100
    },
    {
      "midi": 49,
      "hit": false,
      "t": 145714.14000000048,
      "d": 942.4593750000058,
      "v": 100
    },
    {
      "midi": 71,
      "hit": false,
      "t": 145952.23500000048,
      "d": 228.17437500000233,
      "v": 100
    },
    {
      "midi": 61,
      "hit": false,
      "t": 145952.23500000048,
      "d": 228.17437500000233,
      "v": 100
    },
    {
      "midi": 68,
      "hit": false,
      "t": 146190.33000000048,
      "d": 466.2693750000035,
      "v": 100
    },
    {
      "midi": 53,
      "hit": false,
      "t": 146190.33000000048,
      "d": 228.17437500000233,
      "v": 100
    },
    {
      "midi": 61,
      "hit": false,
      "t": 146428.42500000048,
      "d": 228.17437500000233,
      "v": 100
    },
    {
      "midi": 70,
      "hit": false,
      "t": 146666.52000000014,
      "d": 1418.6493750000081,
      "v": 100
    },
    {
      "midi": 70,
      "hit": false,
      "t": 146666.5200000002,
      "d": 1418.6493750000081,
      "v": 100
    },
    {
      "midi": 66,
      "hit": false,
      "t": 146666.52000000022,
      "d": 1418.6493750000081,
      "v": 100
    },
    {
      "midi": 51,
      "hit": false,
      "t": 146666.52000000025,
      "d": 1894.8393750000105,
      "v": 100
    },
    {
      "midi": 58,
      "hit": false,
      "t": 146666.52000000048,
      "d": 942.4593750000058,
      "v": 100
    },
    {
      "midi": 63,
      "hit": false,
      "t": 146666.52000000048,
      "d": 942.4593750000058,
      "v": 100
    },
    {
      "midi": 46,
      "hit": false,
      "t": 146666.52000000048,
      "d": 942.4593750000058,
      "v": 100
    },
    {
      "midi": 63,
      "hit": false,
      "t": 146904.6150000005,
      "d": 228.17437500000233,
      "v": 100
    },
    {
      "midi": 58,
      "hit": false,
      "t": 146904.6150000005,
      "d": 228.17437500000233,
      "v": 100
    },
    {
      "midi": 70,
      "hit": false,
      "t": 147142.7100000005,
      "d": 228.17437500000233,
      "v": 100
    },
    {
      "midi": 51,
      "hit": false,
      "t": 147142.7100000005,
      "d": 228.17437500000233,
      "v": 100
    },
    {
      "midi": 75,
      "hit": false,
      "t": 147380.8050000005,
      "d": 942.4593750000058,
      "v": 100
    },
    {
      "midi": 58,
      "hit": false,
      "t": 147380.8050000005,
      "d": 714.2850000000035,
      "v": 100
    },
    {
      "midi": 51,
      "hit": false,
      "t": 147618.9000000005,
      "d": 942.4593750000058,
      "v": 100
    },
    {
      "midi": 70,
      "hit": false,
      "t": 147856.9950000005,
      "d": 228.17437500000233,
      "v": 100
    },
    {
      "midi": 63,
      "hit": false,
      "t": 147856.9950000005,
      "d": 228.17437500000233,
      "v": 100
    },
    {
      "midi": 73,
      "hit": false,
      "t": 148095.09000000014,
      "d": 466.2693750000035,
      "v": 100
    },
    {
      "midi": 73,
      "hit": false,
      "t": 148095.0900000002,
      "d": 466.2693750000035,
      "v": 100
    },
    {
      "midi": 70,
      "hit": false,
      "t": 148095.09000000023,
      "d": 466.2693750000035,
      "v": 100
    },
    {
      "midi": 66,
      "hit": false,
      "t": 148095.0900000005,
      "d": 466.2693750000035,
      "v": 100
    },
    {
      "midi": 58,
      "hit": false,
      "t": 148095.0900000005,
      "d": 228.17437500000233,
      "v": 100
    },
    {
      "midi": 63,
      "hit": false,
      "t": 148333.1850000005,
      "d": 228.17437500000233,
      "v": 100
    },
    {
      "midi": 78,
      "hit": false,
      "t": 148571.28000000014,
      "d": 704.3643750000047,
      "v": 100
    },
    {
      "midi": 78,
      "hit": false,
      "t": 148571.2800000002,
      "d": 704.3643750000047,
      "v": 100
    },
    {
      "midi": 75,
      "hit": false,
      "t": 148571.28000000023,
      "d": 704.3643750000047,
      "v": 100
    },
    {
      "midi": 59,
      "hit": false,
      "t": 148571.28000000026,
      "d": 942.4593750000058,
      "v": 100
    },
    {
      "midi": 59,
      "hit": false,
      "t": 148571.2800000005,
      "d": 942.4593750000058,
      "v": 100
    },
    {
      "midi": 63,
      "hit": false,
      "t": 148571.2800000005,
      "d": 942.4593750000058,
      "v": 100
    },
    {
      "midi": 47,
      "hit": false,
      "t": 148571.2800000005,
      "d": 942.4593750000058,
      "v": 100
    },
    {
      "midi": 66,
      "hit": false,
      "t": 148809.3750000005,
      "d": 228.17437500000233,
      "v": 100
    },
    {
      "midi": 59,
      "hit": false,
      "t": 148809.3750000005,
      "d": 228.17437500000233,
      "v": 100
    },
    {
      "midi": 71,
      "hit": false,
      "t": 149047.4700000005,
      "d": 228.17437500000233,
      "v": 100
    },
    {
      "midi": 54,
      "hit": false,
      "t": 149047.4700000005,
      "d": 466.2693750000035,
      "v": 100
    },
    {
      "midi": 77,
      "hit": false,
      "t": 149285.56500000015,
      "d": 228.17437500000233,
      "v": 100
    },
    {
      "midi": 77,
      "hit": false,
      "t": 149285.5650000002,
      "d": 228.17437500000233,
      "v": 100
    },
    {
      "midi": 73,
      "hit": false,
      "t": 149285.56500000024,
      "d": 228.17437500000233,
      "v": 100
    },
    {
      "midi": 75,
      "hit": false,
      "t": 149285.5650000005,
      "d": 942.4593750000058,
      "v": 100
    },
    {
      "midi": 59,
      "hit": false,
      "t": 149285.5650000005,
      "d": 714.2850000000035,
      "v": 100
    },
    {
      "midi": 75,
      "hit": false,
      "t": 149523.66000000015,
      "d": 704.3643750000047,
      "v": 100
    },
    {
      "midi": 75,
      "hit": false,
      "t": 149523.6600000002,
      "d": 704.3643750000047,
      "v": 100
    },
    {
      "midi": 71,
      "hit": false,
      "t": 149523.66000000024,
      "d": 704.3643750000047,
      "v": 100
    },
    {
      "midi": 59,
      "hit": false,
      "t": 149523.66000000027,
      "d": 942.4593750000058,
      "v": 100
    },
    {
      "midi": 47,
      "hit": false,
      "t": 149523.6600000005,
      "d": 942.4593750000058,
      "v": 100
    },
    {
      "midi": 71,
      "hit": false,
      "t": 149761.7550000005,
      "d": 228.17437500000233,
      "v": 100
    },
    {
      "midi": 63,
      "hit": false,
      "t": 149761.7550000005,
      "d": 228.17437500000233,
      "v": 100
    },
    {
      "midi": 66,
      "hit": false,
      "t": 149999.8500000005,
      "d": 466.2693750000035,
      "v": 100
    },
    {
      "midi": 59,
      "hit": false,
      "t": 149999.8500000005,
      "d": 228.17437500000233,
      "v": 100
    },
    {
      "midi": 73,
      "hit": false,
      "t": 150237.94500000015,
      "d": 228.17437500000233,
      "v": 100
    },
    {
      "midi": 73,
      "hit": false,
      "t": 150237.9450000002,
      "d": 228.17437500000233,
      "v": 100
    },
    {
      "midi": 70,
      "hit": false,
      "t": 150237.94500000024,
      "d": 228.17437500000233,
      "v": 100
    },
    {
      "midi": 63,
      "hit": false,
      "t": 150237.9450000005,
      "d": 228.17437500000233,
      "v": 100
    },
    {
      "midi": 73,
      "hit": false,
      "t": 150476.04000000015,
      "d": 942.4593750000058,
      "v": 100
    },
    {
      "midi": 73,
      "hit": false,
      "t": 150476.0400000002,
      "d": 942.4593750000058,
      "v": 100
    },
    {
      "midi": 70,
      "hit": false,
      "t": 150476.04000000024,
      "d": 942.4593750000058,
      "v": 100
    },
    {
      "midi": 58,
      "hit": false,
      "t": 150476.04000000027,
      "d": 942.4593750000058,
      "v": 100
    },
    {
      "midi": 61,
      "hit": false,
      "t": 150476.0400000005,
      "d": 942.4593750000058,
      "v": 100
    },
    {
      "midi": 61,
      "hit": false,
      "t": 150476.0400000005,
      "d": 942.4593750000058,
      "v": 100
    },
    {
      "midi": 49,
      "hit": false,
      "t": 150476.0400000005,
      "d": 942.4593750000058,
      "v": 100
    },
    {
      "midi": 66,
      "hit": false,
      "t": 150714.1350000005,
      "d": 228.17437500000233,
      "v": 100
    },
    {
      "midi": 58,
      "hit": false,
      "t": 150714.1350000005,
      "d": 228.17437500000233,
      "v": 100
    },
    {
      "midi": 70,
      "hit": false,
      "t": 150952.2300000005,
      "d": 466.2693750000035,
      "v": 100
    },
    {
      "midi": 54,
      "hit": false,
      "t": 150952.2300000005,
      "d": 466.2693750000035,
      "v": 100
    },
    {
      "midi": 73,
      "hit": false,
      "t": 151190.3250000005,
      "d": 466.2693750000035,
      "v": 100
    },
    {
      "midi": 58,
      "hit": false,
      "t": 151190.3250000005,
      "d": 942.4593750000058,
      "v": 100
    },
    {
      "midi": 70,
      "hit": false,
      "t": 151428.42000000016,
      "d": 466.2693750000035,
      "v": 100
    },
    {
      "midi": 70,
      "hit": false,
      "t": 151428.42000000022,
      "d": 466.2693750000035,
      "v": 100
    },
    {
      "midi": 66,
      "hit": false,
      "t": 151428.42000000025,
      "d": 466.2693750000035,
      "v": 100
    },
    {
      "midi": 54,
      "hit": false,
      "t": 151428.42000000027,
      "d": 942.4593750000058,
      "v": 100
    },
    {
      "midi": 49,
      "hit": false,
      "t": 151428.4200000005,
      "d": 942.4593750000058,
      "v": 100
    },
    {
      "midi": 70,
      "hit": false,
      "t": 151666.5150000005,
      "d": 228.17437500000233,
      "v": 100
    },
    {
      "midi": 61,
      "hit": false,
      "t": 151666.5150000005,
      "d": 228.17437500000233,
      "v": 100
    },
    {
      "midi": 73,
      "hit": false,
      "t": 151904.61000000016,
      "d": 466.2693750000035,
      "v": 100
    },
    {
      "midi": 73,
      "hit": false,
      "t": 151904.61000000022,
      "d": 466.2693750000035,
      "v": 100
    },
    {
      "midi": 70,
      "hit": false,
      "t": 151904.61000000025,
      "d": 466.2693750000035,
      "v": 100
    },
    {
      "midi": 66,
      "hit": false,
      "t": 151904.6100000005,
      "d": 466.2693750000035,
      "v": 100
    },
    {
      "midi": 54,
      "hit": false,
      "t": 151904.6100000005,
      "d": 228.17437500000233,
      "v": 100
    },
    {
      "midi": 61,
      "hit": false,
      "t": 152142.7050000005,
      "d": 228.17437500000233,
      "v": 100
    },
    {
      "midi": 73,
      "hit": false,
      "t": 152380.80000000016,
      "d": 466.2693750000035,
      "v": 100
    },
    {
      "midi": 73,
      "hit": false,
      "t": 152380.80000000022,
      "d": 466.2693750000035,
      "v": 100
    },
    {
      "midi": 70,
      "hit": false,
      "t": 152380.80000000025,
      "d": 466.2693750000035,
      "v": 100
    },
    {
      "midi": 49,
      "hit": false,
      "t": 152380.80000000028,
      "d": 942.4593750000058,
      "v": 100
    },
    {
      "midi": 61,
      "hit": false,
      "t": 152380.8000000005,
      "d": 942.4593750000058,
      "v": 100
    },
    {
      "midi": 61,
      "hit": false,
      "t": 152380.8000000005,
      "d": 942.4593750000058,
      "v": 100
    },
    {
      "midi": 49,
      "hit": false,
      "t": 152380.8000000005,
      "d": 942.4593750000058,
      "v": 100
    },
    {
      "midi": 65,
      "hit": false,
      "t": 152618.8950000005,
      "d": 228.17437500000233,
      "v": 100
    },
    {
      "midi": 59,
      "hit": false,
      "t": 152618.8950000005,
      "d": 228.17437500000233,
      "v": 100
    },
    {
      "midi": 75,
      "hit": false,
      "t": 152856.99000000017,
      "d": 466.2693750000035,
      "v": 100
    },
    {
      "midi": 75,
      "hit": false,
      "t": 152856.99000000022,
      "d": 466.2693750000035,
      "v": 100
    },
    {
      "midi": 71,
      "hit": false,
      "t": 152856.99000000025,
      "d": 466.2693750000035,
      "v": 100
    },
    {
      "midi": 71,
      "hit": false,
      "t": 152856.99000000051,
      "d": 228.17437500000233,
      "v": 100
    },
    {
      "midi": 53,
      "hit": false,
      "t": 152856.99000000051,
      "d": 466.2693750000035,
      "v": 100
    },
    {
      "midi": 73,
      "hit": false,
      "t": 153095.08500000052,
      "d": 466.2693750000035,
      "v": 100
    },
    {
      "midi": 59,
      "hit": false,
      "t": 153095.08500000052,
      "d": 942.4593750000058,
      "v": 100
    },
    {
      "midi": 71,
      "hit": false,
      "t": 153333.18000000017,
      "d": 466.2693750000035,
      "v": 100
    },
    {
      "midi": 71,
      "hit": false,
      "t": 153333.18000000023,
      "d": 466.2693750000035,
      "v": 100
    },
    {
      "midi": 68,
      "hit": false,
      "t": 153333.18000000025,
      "d": 466.2693750000035,
      "v": 100
    },
    {
      "midi": 49,
      "hit": false,
      "t": 153333.18000000028,
      "d": 942.4593750000058,
      "v": 100
    },
    {
      "midi": 49,
      "hit": false,
      "t": 153333.18000000052,
      "d": 942.4593750000058,
      "v": 100
    },
    {
      "midi": 71,
      "hit": false,
      "t": 153571.27500000052,
      "d": 228.17437500000233,
      "v": 100
    },
    {
      "midi": 61,
      "hit": false,
      "t": 153571.27500000052,
      "d": 228.17437500000233,
      "v": 100
    },
    {
      "midi": 68,
      "hit": false,
      "t": 153809.37000000017,
      "d": 466.2693750000035,
      "v": 100
    },
    {
      "midi": 68,
      "hit": false,
      "t": 153809.37000000023,
      "d": 466.2693750000035,
      "v": 100
    },
    {
      "midi": 61,
      "hit": false,
      "t": 153809.37000000026,
      "d": 466.2693750000035,
      "v": 100
    },
    {
      "midi": 65,
      "hit": false,
      "t": 153809.37000000052,
      "d": 466.2693750000035,
      "v": 100
    },
    {
      "midi": 53,
      "hit": false,
      "t": 153809.37000000052,
      "d": 228.17437500000233,
      "v": 100
    },
    {
      "midi": 61,
      "hit": false,
      "t": 154047.46500000052,
      "d": 228.17437500000233,
      "v": 100
    },
    {
      "midi": 66,
      "hit": false,
      "t": 154285.56000000017,
      "d": 1418.6493750000081,
      "v": 100
    },
    {
      "midi": 66,
      "hit": false,
      "t": 154285.56000000023,
      "d": 1894.8393750000105,
      "v": 100
    },
    {
      "midi": 58,
      "hit": false,
      "t": 154285.56000000026,
      "d": 1894.8393750000105,
      "v": 100
    },
    {
      "midi": 54,
      "hit": false,
      "t": 154285.5600000003,
      "d": 1418.6493750000081,
      "v": 100
    },
    {
      "midi": 61,
      "hit": false,
      "t": 154285.56000000052,
      "d": 942.4593750000058,
      "v": 100
    },
    {
      "midi": 49,
      "hit": false,
      "t": 154285.56000000052,
      "d": 942.4593750000058,
      "v": 100
    },
    {
      "midi": 61,
      "hit": false,
      "t": 154285.56000000052,
      "d": 942.4593750000058,
      "v": 100
    },
    {
      "midi": 66,
      "hit": false,
      "t": 154523.65500000052,
      "d": 228.17437500000233,
      "v": 100
    },
    {
      "midi": 58,
      "hit": false,
      "t": 154523.65500000052,
      "d": 228.17437500000233,
      "v": 100
    },
    {
      "midi": 70,
      "hit": false,
      "t": 154761.75000000052,
      "d": 466.2693750000035,
      "v": 100
    },
    {
      "midi": 54,
      "hit": false,
      "t": 154761.75000000052,
      "d": 466.2693750000035,
      "v": 100
    },
    {
      "midi": 73,
      "hit": false,
      "t": 154999.84500000053,
      "d": 466.2693750000035,
      "v": 100
    },
    {
      "midi": 58,
      "hit": false,
      "t": 154999.84500000053,
      "d": 942.4593750000058,
      "v": 100
    },
    {
      "midi": 49,
      "hit": false,
      "t": 155237.94000000053,
      "d": 942.4593750000058,
      "v": 100
    },
    {
      "midi": 70,
      "hit": false,
      "t": 155476.03500000053,
      "d": 228.17437500000233,
      "v": 100
    },
    {
      "midi": 61,
      "hit": false,
      "t": 155476.03500000053,
      "d": 228.17437500000233,
      "v": 100
    },
    {
      "midi": 54,
      "hit": false,
      "t": 155714.1300000003,
      "d": 466.2693750000035,
      "v": 100
    },
    {
      "midi": 66,
      "hit": false,
      "t": 155714.13000000053,
      "d": 466.2693750000035,
      "v": 100
    },
    {
      "midi": 54,
      "hit": false,
      "t": 155714.13000000053,
      "d": 228.17437500000233,
      "v": 100
    },
    {
      "midi": 61,
      "hit": false,
      "t": 155952.22500000053,
      "d": 228.17437500000233,
      "v": 100
    },
    {
      "midi": 61,
      "hit": false,
      "t": 156190.3200000003,
      "d": 1418.6493750000081,
      "v": 100
    },
    {
      "midi": 61,
      "hit": false,
      "t": 156190.32000000053,
      "d": 942.4593750000058,
      "v": 100
    },
    {
      "midi": 49,
      "hit": false,
      "t": 156190.32000000053,
      "d": 942.4593750000058,
      "v": 100
    },
    {
      "midi": 61,
      "hit": false,
      "t": 156190.32000000053,
      "d": 942.4593750000058,
      "v": 100
    },
    {
      "midi": 65,
      "hit": false,
      "t": 156428.41500000053,
      "d": 228.17437500000233,
      "v": 100
    },
    {
      "midi": 59,
      "hit": false,
      "t": 156428.41500000053,
      "d": 228.17437500000233,
      "v": 100
    },
    {
      "midi": 71,
      "hit": false,
      "t": 156666.51000000053,
      "d": 228.17437500000233,
      "v": 100
    },
    {
      "midi": 53,
      "hit": false,
      "t": 156666.51000000053,
      "d": 466.2693750000035,
      "v": 100
    },
    {
      "midi": 73,
      "hit": false,
      "t": 156904.60500000053,
      "d": 466.2693750000035,
      "v": 100
    },
    {
      "midi": 59,
      "hit": false,
      "t": 156904.60500000053,
      "d": 942.4593750000058,
      "v": 100
    },
    {
      "midi": 49,
      "hit": false,
      "t": 157142.70000000054,
      "d": 942.4593750000058,
      "v": 100
    },
    {
      "midi": 71,
      "hit": false,
      "t": 157380.79500000054,
      "d": 228.17437500000233,
      "v": 100
    },
    {
      "midi": 61,
      "hit": false,
      "t": 157380.79500000054,
      "d": 228.17437500000233,
      "v": 100
    },
    {
      "midi": 49,
      "hit": false,
      "t": 157618.8900000003,
      "d": 466.2693750000035,
      "v": 100
    },
    {
      "midi": 65,
      "hit": false,
      "t": 157618.89000000054,
      "d": 466.2693750000035,
      "v": 100
    },
    {
      "midi": 53,
      "hit": false,
      "t": 157618.89000000054,
      "d": 228.17437500000233,
      "v": 100
    },
    {
      "midi": 61,
      "hit": false,
      "t": 157856.98500000054,
      "d": 228.17437500000233,
      "v": 100
    },
    {
      "midi": 54,
      "hit": false,
      "t": 158095.0800000003,
      "d": 1418.6493750000081,
      "v": 100
    },
    {
      "midi": 61,
      "hit": false,
      "t": 158095.08000000054,
      "d": 942.4593750000058,
      "v": 100
    },
    {
      "midi": 61,
      "hit": false,
      "t": 158095.08000000054,
      "d": 942.4593750000058,
      "v": 100
    },
    {
      "midi": 49,
      "hit": false,
      "t": 158095.08000000054,
      "d": 942.4593750000058,
      "v": 100
    },
    {
      "midi": 66,
      "hit": false,
      "t": 158333.17500000054,
      "d": 228.17437500000233,
      "v": 100
    },
    {
      "midi": 58,
      "hit": false,
      "t": 158333.17500000054,
      "d": 228.17437500000233,
      "v": 100
    },
    {
      "midi": 70,
      "hit": false,
      "t": 158571.27000000054,
      "d": 466.2693750000035,
      "v": 100
    },
    {
      "midi": 54,
      "hit": false,
      "t": 158571.27000000054,
      "d": 466.2693750000035,
      "v": 100
    },
    {
      "midi": 73,
      "hit": false,
      "t": 158809.36500000054,
      "d": 466.2693750000035,
      "v": 100
    },
    {
      "midi": 58,
      "hit": false,
      "t": 158809.36500000054,
      "d": 942.4593750000058,
      "v": 100
    },
    {
      "midi": 49,
      "hit": false,
      "t": 159047.46000000054,
      "d": 942.4593750000058,
      "v": 100
    },
    {
      "midi": 70,
      "hit": false,
      "t": 159285.55500000055,
      "d": 228.17437500000233,
      "v": 100
    },
    {
      "midi": 61,
      "hit": false,
      "t": 159285.55500000055,
      "d": 228.17437500000233,
      "v": 100
    },
    {
      "midi": 54,
      "hit": false,
      "t": 159523.6500000003,
      "d": 466.2693750000035,
      "v": 100
    },
    {
      "midi": 66,
      "hit": false,
      "t": 159523.65000000055,
      "d": 466.2693750000035,
      "v": 100
    },
    {
      "midi": 54,
      "hit": false,
      "t": 159523.65000000055,
      "d": 228.17437500000233,
      "v": 100
    },
    {
      "midi": 61,
      "hit": false,
      "t": 159761.74500000055,
      "d": 228.17437500000233,
      "v": 100
    },
    {
      "midi": 61,
      "hit": false,
      "t": 159999.84000000032,
      "d": 1894.8393750000105,
      "v": 100
    },
    {
      "midi": 61,
      "hit": false,
      "t": 159999.84000000055,
      "d": 942.4593750000058,
      "v": 100
    },
    {
      "midi": 61,
      "hit": false,
      "t": 159999.84000000055,
      "d": 942.4593750000058,
      "v": 100
    },
    {
      "midi": 49,
      "hit": false,
      "t": 159999.84000000055,
      "d": 942.4593750000058,
      "v": 100
    },
    {
      "midi": 65,
      "hit": false,
      "t": 160237.93500000055,
      "d": 228.17437500000233,
      "v": 100
    },
    {
      "midi": 59,
      "hit": false,
      "t": 160237.93500000055,
      "d": 228.17437500000233,
      "v": 100
    },
    {
      "midi": 71,
      "hit": false,
      "t": 160476.03000000055,
      "d": 228.17437500000233,
      "v": 100
    },
    {
      "midi": 53,
      "hit": false,
      "t": 160476.03000000055,
      "d": 466.2693750000035,
      "v": 100
    },
    {
      "midi": 73,
      "hit": false,
      "t": 160714.12500000055,
      "d": 466.2693750000035,
      "v": 100
    },
    {
      "midi": 59,
      "hit": false,
      "t": 160714.12500000055,
      "d": 942.4593750000058,
      "v": 100
    },
    {
      "midi": 49,
      "hit": false,
      "t": 160952.22000000055,
      "d": 942.4593749999767,
      "v": 100
    },
    {
      "midi": 71,
      "hit": false,
      "t": 161190.31500000056,
      "d": 228.17437500000233,
      "v": 100
    },
    {
      "midi": 61,
      "hit": false,
      "t": 161190.31500000056,
      "d": 228.17437500000233,
      "v": 100
    },
    {
      "midi": 65,
      "hit": false,
      "t": 161428.41000000056,
      "d": 466.2693749999744,
      "v": 100
    },
    {
      "midi": 53,
      "hit": false,
      "t": 161428.41000000056,
      "d": 466.2693749999744,
      "v": 100
    },
    {
      "midi": 61,
      "hit": false,
      "t": 161666.50500000056,
      "d": 178.57124999997905,
      "v": 100
    },
    {
      "midi": 66,
      "hit": false,
      "t": 161726.02875000055,
      "d": 49.60312499999418,
      "v": 100
    },
    {
      "midi": 54,
      "hit": false,
      "t": 161726.02875000055,
      "d": 49.60312499999418,
      "v": 100
    },
    {
      "midi": 70,
      "hit": false,
      "t": 161785.55250000054,
      "d": 49.60312499999418,
      "v": 100
    },
    {
      "midi": 58,
      "hit": false,
      "t": 161785.55250000054,
      "d": 49.60312499999418,
      "v": 100
    },
    {
      "midi": 73,
      "hit": false,
      "t": 161845.07625000054,
      "d": 49.60312499999418,
      "v": 100
    },
    {
      "midi": 61,
      "hit": false,
      "t": 161845.07625000054,
      "d": 49.60312499999418,
      "v": 100
    },
    {
      "midi": 61,
      "hit": false,
      "t": 161904.60000000033,
      "d": 2847.219374999986,
      "v": 90
    },
    {
      "midi": 78,
      "hit": false,
      "t": 161904.60000000053,
      "d": 3799.5993749999907,
      "v": 100
    },
    {
      "midi": 66,
      "hit": false,
      "t": 161904.60000000053,
      "d": 3799.5993749999907,
      "v": 100
    },
    {
      "midi": 54,
      "hit": false,
      "t": 161904.60000000053,
      "d": 3799.5993749999907,
      "v": 100
    },
    {
      "midi": 61,
      "hit": false,
      "t": 161904.60000000053,
      "d": 3799.5993749999907,
      "v": 100
    },
    {
      "midi": 58,
      "hit": false,
      "t": 161904.60000000053,
      "d": 3799.5993749999907,
      "v": 100
    }
  ]
}