{
  "jsonPath": "Soul/Neo Soul/Remy Shand/take-a-message.json",
  "path": "Soul\\Neo Soul\\Remy Shand\\Take A Message.mid",
  "name": "Take A Message",
  "difficulty": "Advanced",
  "bpm": 80,
  "notes": [
    {
      "midi": 57,
      "hit": false,
      "t": 6000,
      "d": 2953.125,
      "v": 113
    },
    {
      "midi": 62,
      "hit": false,
      "t": 6000,
      "d": 2953.125,
      "v": 118
    },
    {
      "midi": 65,
      "hit": false,
      "t": 6000,
      "d": 2953.125,
      "v": 119
    },
    {
      "midi": 50,
      "hit": false,
      "t": 6003.125,
      "d": 2920.3125,
      "v": 123
    },
    {
      "midi": 65,
      "hit": false,
      "t": 8998.4375,
      "d": 2965.625,
      "v": 118
    },
    {
      "midi": 57,
      "hit": false,
      "t": 9000,
      "d": 2964.0625,
      "v": 119
    },
    {
      "midi": 60,
      "hit": false,
      "t": 9000,
      "d": 2964.0625,
      "v": 118
    },
    {
      "midi": 48,
      "hit": false,
      "t": 9001.5625,
      "d": 2950,
      "v": 118
    },
    {
      "midi": 46,
      "hit": false,
      "t": 12000,
      "d": 2959.375,
      "v": 127
    },
    {
      "midi": 57,
      "hit": false,
      "t": 12000,
      "d": 2964.0625,
      "v": 107
    },
    {
      "midi": 62,
      "hit": false,
      "t": 12000,
      "d": 2964.0625,
      "v": 96
    },
    {
      "midi": 65,
      "hit": false,
      "t": 12000,
      "d": 2964.0625,
      "v": 112
    },
    {
      "midi": 45,
      "hit": false,
      "t": 15000,
      "d": 1454.6875,
      "v": 123
    },
    {
      "midi": 55,
      "hit": false,
      "t": 15000,
      "d": 1464.0625,
      "v": 107
    },
    {
      "midi": 60,
      "hit": false,
      "t": 15000,
      "d": 1464.0625,
      "v": 112
    },
    {
      "midi": 64,
      "hit": false,
      "t": 15000,
      "d": 1464.0625,
      "v": 112
    },
    {
      "midi": 58,
      "hit": false,
      "t": 16500,
      "d": 1475,
      "v": 112
    },
    {
      "midi": 55,
      "hit": false,
      "t": 16500,
      "d": 1476.5625,
      "v": 97
    },
    {
      "midi": 61,
      "hit": false,
      "t": 16500,
      "d": 1476.5625,
      "v": 113
    },
    {
      "midi": 64,
      "hit": false,
      "t": 16500,
      "d": 1476.5625,
      "v": 113
    },
    {
      "midi": 45,
      "hit": false,
      "t": 16503.125,
      "d": 1445.3125,
      "v": 118
    },
    {
      "midi": 57,
      "hit": false,
      "t": 18000,
      "d": 2953.125,
      "v": 107
    },
    {
      "midi": 62,
      "hit": false,
      "t": 18000,
      "d": 2953.125,
      "v": 106
    },
    {
      "midi": 65,
      "hit": false,
      "t": 18000,
      "d": 2953.125,
      "v": 106
    },
    {
      "midi": 50,
      "hit": false,
      "t": 18003.125,
      "d": 2917.1875,
      "v": 127
    },
    {
      "midi": 57,
      "hit": false,
      "t": 20998.4375,
      "d": 2954.6875,
      "v": 107
    },
    {
      "midi": 60,
      "hit": false,
      "t": 20998.4375,
      "d": 2954.6875,
      "v": 112
    },
    {
      "midi": 65,
      "hit": false,
      "t": 20998.4375,
      "d": 2954.6875,
      "v": 102
    },
    {
      "midi": 48,
      "hit": false,
      "t": 21001.5625,
      "d": 2931.25,
      "v": 127
    },
    {
      "midi": 57,
      "hit": false,
      "t": 23998.4375,
      "d": 2965.625,
      "v": 102
    },
    {
      "midi": 62,
      "hit": false,
      "t": 23998.4375,
      "d": 2965.625,
      "v": 112
    },
    {
      "midi": 65,
      "hit": false,
      "t": 23998.4375,
      "d": 2965.625,
      "v": 119
    },
    {
      "midi": 46,
      "hit": false,
      "t": 23998.4375,
      "d": 2968.75,
      "v": 121
    },
    {
      "midi": 55,
      "hit": false,
      "t": 26998.4375,
      "d": 1465.625,
      "v": 106
    },
    {
      "midi": 60,
      "hit": false,
      "t": 26998.4375,
      "d": 1465.625,
      "v": 119
    },
    {
      "midi": 64,
      "hit": false,
      "t": 27000,
      "d": 1464.0625,
      "v": 112
    },
    {
      "midi": 45,
      "hit": false,
      "t": 27000,
      "d": 2985.9375,
      "v": 119
    },
    {
      "midi": 55,
      "hit": false,
      "t": 28500,
      "d": 1464.0625,
      "v": 97
    },
    {
      "midi": 58,
      "hit": false,
      "t": 28500,
      "d": 1464.0625,
      "v": 106
    },
    {
      "midi": 61,
      "hit": false,
      "t": 28500,
      "d": 1464.0625,
      "v": 106
    },
    {
      "midi": 64,
      "hit": false,
      "t": 28500,
      "d": 1464.0625,
      "v": 113
    },
    {
      "midi": 64,
      "hit": false,
      "t": 29998.4375,
      "d": 2200,
      "v": 87
    },
    {
      "midi": 60,
      "hit": false,
      "t": 29998.4375,
      "d": 2201.5625,
      "v": 98
    },
    {
      "midi": 57,
      "hit": false,
      "t": 29998.4375,
      "d": 2203.125,
      "v": 99
    },
    {
      "midi": 64,
      "hit": false,
      "t": 30000,
      "d": 2140.625,
      "v": 85
    },
    {
      "midi": 53,
      "hit": false,
      "t": 30000,
      "d": 2146.875,
      "v": 103
    },
    {
      "midi": 60,
      "hit": false,
      "t": 30000,
      "d": 2150,
      "v": 118
    },
    {
      "midi": 57,
      "hit": false,
      "t": 30000,
      "d": 2154.6875,
      "v": 112
    },
    {
      "midi": 53,
      "hit": false,
      "t": 32250,
      "d": 689.0625,
      "v": 107
    },
    {
      "midi": 64,
      "hit": false,
      "t": 32250,
      "d": 689.0625,
      "v": 107
    },
    {
      "midi": 60,
      "hit": false,
      "t": 32250,
      "d": 692.1875,
      "v": 118
    },
    {
      "midi": 57,
      "hit": false,
      "t": 32250,
      "d": 698.4375,
      "v": 112
    },
    {
      "midi": 57,
      "hit": false,
      "t": 32250,
      "d": 675,
      "v": 103
    },
    {
      "midi": 64,
      "hit": false,
      "t": 32250,
      "d": 679.6875,
      "v": 93
    },
    {
      "midi": 60,
      "hit": false,
      "t": 32250,
      "d": 692.1875,
      "v": 92
    },
    {
      "midi": 55,
      "hit": false,
      "t": 32998.4375,
      "d": 2179.6875,
      "v": 78
    },
    {
      "midi": 60,
      "hit": false,
      "t": 32998.4375,
      "d": 2200,
      "v": 92
    },
    {
      "midi": 64,
      "hit": false,
      "t": 33000,
      "d": 2121.875,
      "v": 103
    },
    {
      "midi": 60,
      "hit": false,
      "t": 33000,
      "d": 2128.125,
      "v": 119
    },
    {
      "midi": 55,
      "hit": false,
      "t": 33000,
      "d": 2134.375,
      "v": 112
    },
    {
      "midi": 64,
      "hit": false,
      "t": 33000,
      "d": 2189.0625,
      "v": 93
    },
    {
      "midi": 64,
      "hit": false,
      "t": 35250,
      "d": 643.75,
      "v": 102
    },
    {
      "midi": 55,
      "hit": false,
      "t": 35250,
      "d": 653.125,
      "v": 102
    },
    {
      "midi": 60,
      "hit": false,
      "t": 35250,
      "d": 659.375,
      "v": 119
    },
    {
      "midi": 64,
      "hit": false,
      "t": 35250,
      "d": 670.3125,
      "v": 86
    },
    {
      "midi": 55,
      "hit": false,
      "t": 35250,
      "d": 682.8125,
      "v": 87
    },
    {
      "midi": 60,
      "hit": false,
      "t": 35250,
      "d": 682.8125,
      "v": 92
    },
    {
      "midi": 53,
      "hit": false,
      "t": 36000,
      "d": 2159.375,
      "v": 102
    },
    {
      "midi": 64,
      "hit": false,
      "t": 36000,
      "d": 2167.1875,
      "v": 92
    },
    {
      "midi": 60,
      "hit": false,
      "t": 36000,
      "d": 2178.125,
      "v": 113
    },
    {
      "midi": 57,
      "hit": false,
      "t": 36000,
      "d": 2181.25,
      "v": 107
    },
    {
      "midi": 64,
      "hit": false,
      "t": 36000,
      "d": 2164.0625,
      "v": 98
    },
    {
      "midi": 60,
      "hit": false,
      "t": 36000,
      "d": 2189.0625,
      "v": 87
    },
    {
      "midi": 57,
      "hit": false,
      "t": 36000,
      "d": 2190.625,
      "v": 99
    },
    {
      "midi": 64,
      "hit": false,
      "t": 38250,
      "d": 645.3125,
      "v": 102
    },
    {
      "midi": 60,
      "hit": false,
      "t": 38250,
      "d": 654.6875,
      "v": 113
    },
    {
      "midi": 53,
      "hit": false,
      "t": 38250,
      "d": 659.375,
      "v": 102
    },
    {
      "midi": 57,
      "hit": false,
      "t": 38250,
      "d": 660.9375,
      "v": 113
    },
    {
      "midi": 57,
      "hit": false,
      "t": 38250,
      "d": 684.375,
      "v": 102
    },
    {
      "midi": 64,
      "hit": false,
      "t": 38250,
      "d": 690.625,
      "v": 92
    },
    {
      "midi": 60,
      "hit": false,
      "t": 38250,
      "d": 698.4375,
      "v": 93
    },
    {
      "midi": 64,
      "hit": false,
      "t": 39000,
      "d": 1370.3125,
      "v": 84
    },
    {
      "midi": 60,
      "hit": false,
      "t": 39000,
      "d": 1375,
      "v": 107
    },
    {
      "midi": 55,
      "hit": false,
      "t": 39000,
      "d": 1384.375,
      "v": 106
    },
    {
      "midi": 60,
      "hit": false,
      "t": 39000,
      "d": 1409.375,
      "v": 87
    },
    {
      "midi": 55,
      "hit": false,
      "t": 39000,
      "d": 1421.875,
      "v": 87
    },
    {
      "midi": 64,
      "hit": false,
      "t": 39000,
      "d": 1428.125,
      "v": 92
    },
    {
      "midi": 55,
      "hit": false,
      "t": 40498.4375,
      "d": 1446.875,
      "v": 113
    },
    {
      "midi": 61,
      "hit": false,
      "t": 40498.4375,
      "d": 1450,
      "v": 120
    },
    {
      "midi": 58,
      "hit": false,
      "t": 40498.4375,
      "d": 1457.8125,
      "v": 113
    },
    {
      "midi": 55,
      "hit": false,
      "t": 40498.4375,
      "d": 1439.0625,
      "v": 79
    },
    {
      "midi": 64,
      "hit": false,
      "t": 40498.4375,
      "d": 1440.625,
      "v": 82
    },
    {
      "midi": 64,
      "hit": false,
      "t": 40500,
      "d": 1450,
      "v": 103
    },
    {
      "midi": 61,
      "hit": false,
      "t": 40500,
      "d": 1432.8125,
      "v": 99
    },
    {
      "midi": 58,
      "hit": false,
      "t": 40500,
      "d": 1439.0625,
      "v": 104
    },
    {
      "midi": 64,
      "hit": false,
      "t": 42000,
      "d": 2131.25,
      "v": 92
    },
    {
      "midi": 57,
      "hit": false,
      "t": 42000,
      "d": 2139.0625,
      "v": 99
    },
    {
      "midi": 60,
      "hit": false,
      "t": 42000,
      "d": 2148.4375,
      "v": 82
    },
    {
      "midi": 60,
      "hit": false,
      "t": 42001.5625,
      "d": 2125,
      "v": 119
    },
    {
      "midi": 53,
      "hit": false,
      "t": 42001.5625,
      "d": 2126.5625,
      "v": 112
    },
    {
      "midi": 64,
      "hit": false,
      "t": 42001.5625,
      "d": 2128.125,
      "v": 107
    },
    {
      "midi": 57,
      "hit": false,
      "t": 42001.5625,
      "d": 2129.6875,
      "v": 118
    },
    {
      "midi": 53,
      "hit": false,
      "t": 44250,
      "d": 668.75,
      "v": 106
    },
    {
      "midi": 64,
      "hit": false,
      "t": 44250,
      "d": 668.75,
      "v": 103
    },
    {
      "midi": 60,
      "hit": false,
      "t": 44250,
      "d": 676.5625,
      "v": 119
    },
    {
      "midi": 57,
      "hit": false,
      "t": 44250,
      "d": 679.6875,
      "v": 118
    },
    {
      "midi": 57,
      "hit": false,
      "t": 44250,
      "d": 698.4375,
      "v": 103
    },
    {
      "midi": 64,
      "hit": false,
      "t": 44250,
      "d": 701.5625,
      "v": 92
    },
    {
      "midi": 60,
      "hit": false,
      "t": 44250,
      "d": 707.8125,
      "v": 99
    },
    {
      "midi": 64,
      "hit": false,
      "t": 45000,
      "d": 2146.875,
      "v": 103
    },
    {
      "midi": 60,
      "hit": false,
      "t": 45000,
      "d": 2170.3125,
      "v": 112
    },
    {
      "midi": 55,
      "hit": false,
      "t": 45000,
      "d": 2171.875,
      "v": 106
    },
    {
      "midi": 55,
      "hit": false,
      "t": 45000,
      "d": 2143.75,
      "v": 82
    },
    {
      "midi": 64,
      "hit": false,
      "t": 45000,
      "d": 2143.75,
      "v": 92
    },
    {
      "midi": 60,
      "hit": false,
      "t": 45000,
      "d": 2160.9375,
      "v": 93
    },
    {
      "midi": 64,
      "hit": false,
      "t": 47250,
      "d": 673.4375,
      "v": 93
    },
    {
      "midi": 55,
      "hit": false,
      "t": 47250,
      "d": 681.25,
      "v": 106
    },
    {
      "midi": 60,
      "hit": false,
      "t": 47250,
      "d": 681.25,
      "v": 107
    },
    {
      "midi": 64,
      "hit": false,
      "t": 47250,
      "d": 698.4375,
      "v": 102
    },
    {
      "midi": 60,
      "hit": false,
      "t": 47250,
      "d": 710.9375,
      "v": 109
    },
    {
      "midi": 55,
      "hit": false,
      "t": 47250,
      "d": 717.1875,
      "v": 87
    },
    {
      "midi": 64,
      "hit": false,
      "t": 48000,
      "d": 2142.1875,
      "v": 96
    },
    {
      "midi": 60,
      "hit": false,
      "t": 48000,
      "d": 2150,
      "v": 112
    },
    {
      "midi": 57,
      "hit": false,
      "t": 48000,
      "d": 2157.8125,
      "v": 107
    },
    {
      "midi": 53,
      "hit": false,
      "t": 48000,
      "d": 2162.5,
      "v": 92
    },
    {
      "midi": 64,
      "hit": false,
      "t": 48000,
      "d": 2154.6875,
      "v": 98
    },
    {
      "midi": 57,
      "hit": false,
      "t": 48000,
      "d": 2160.9375,
      "v": 99
    },
    {
      "midi": 60,
      "hit": false,
      "t": 48000,
      "d": 2168.75,
      "v": 82
    },
    {
      "midi": 53,
      "hit": false,
      "t": 50250,
      "d": 668.75,
      "v": 113
    },
    {
      "midi": 64,
      "hit": false,
      "t": 50250,
      "d": 671.875,
      "v": 96
    },
    {
      "midi": 60,
      "hit": false,
      "t": 50250,
      "d": 676.5625,
      "v": 118
    },
    {
      "midi": 57,
      "hit": false,
      "t": 50250,
      "d": 679.6875,
      "v": 119
    },
    {
      "midi": 57,
      "hit": false,
      "t": 50250,
      "d": 689.0625,
      "v": 103
    },
    {
      "midi": 64,
      "hit": false,
      "t": 50250,
      "d": 692.1875,
      "v": 92
    },
    {
      "midi": 60,
      "hit": false,
      "t": 50250,
      "d": 704.6875,
      "v": 93
    },
    {
      "midi": 60,
      "hit": false,
      "t": 51000,
      "d": 1389.0625,
      "v": 113
    },
    {
      "midi": 64,
      "hit": false,
      "t": 51000,
      "d": 1396.875,
      "v": 96
    },
    {
      "midi": 55,
      "hit": false,
      "t": 51000,
      "d": 1401.5625,
      "v": 107
    },
    {
      "midi": 55,
      "hit": false,
      "t": 51000,
      "d": 1401.5625,
      "v": 86
    },
    {
      "midi": 60,
      "hit": false,
      "t": 51000,
      "d": 1403.125,
      "v": 93
    },
    {
      "midi": 64,
      "hit": false,
      "t": 51000,
      "d": 1409.375,
      "v": 99
    },
    {
      "midi": 58,
      "hit": false,
      "t": 52500,
      "d": 1475,
      "v": 113
    },
    {
      "midi": 61,
      "hit": false,
      "t": 52500,
      "d": 1475,
      "v": 120
    },
    {
      "midi": 64,
      "hit": false,
      "t": 52500,
      "d": 1476.5625,
      "v": 103
    },
    {
      "midi": 55,
      "hit": false,
      "t": 52500,
      "d": 1478.125,
      "v": 106
    },
    {
      "midi": 61,
      "hit": false,
      "t": 52500,
      "d": 1460.9375,
      "v": 99
    },
    {
      "midi": 58,
      "hit": false,
      "t": 52500,
      "d": 1462.5,
      "v": 98
    },
    {
      "midi": 64,
      "hit": false,
      "t": 52500,
      "d": 1468.75,
      "v": 86
    },
    {
      "midi": 55,
      "hit": false,
      "t": 52500,
      "d": 1473.4375,
      "v": 68
    },
    {
      "midi": 65,
      "hit": false,
      "t": 54000,
      "d": 2145.3125,
      "v": 119
    },
    {
      "midi": 57,
      "hit": false,
      "t": 54000,
      "d": 2154.6875,
      "v": 107
    },
    {
      "midi": 62,
      "hit": false,
      "t": 54000,
      "d": 2159.375,
      "v": 106
    },
    {
      "midi": 57,
      "hit": false,
      "t": 54000,
      "d": 2150,
      "v": 107
    },
    {
      "midi": 65,
      "hit": false,
      "t": 54000,
      "d": 2151.5625,
      "v": 118
    },
    {
      "midi": 62,
      "hit": false,
      "t": 54000,
      "d": 2159.375,
      "v": 113
    },
    {
      "midi": 57,
      "hit": false,
      "t": 56248.4375,
      "d": 642.1875,
      "v": 106
    },
    {
      "midi": 65,
      "hit": false,
      "t": 56248.4375,
      "d": 645.3125,
      "v": 107
    },
    {
      "midi": 62,
      "hit": false,
      "t": 56248.4375,
      "d": 685.9375,
      "v": 102
    },
    {
      "midi": 62,
      "hit": false,
      "t": 56250,
      "d": 682.8125,
      "v": 106
    },
    {
      "midi": 65,
      "hit": false,
      "t": 56250,
      "d": 685.9375,
      "v": 106
    },
    {
      "midi": 57,
      "hit": false,
      "t": 56250,
      "d": 687.5,
      "v": 107
    },
    {
      "midi": 62,
      "hit": false,
      "t": 56998.4375,
      "d": 2203.125,
      "v": 119
    },
    {
      "midi": 55,
      "hit": false,
      "t": 57000,
      "d": 2179.6875,
      "v": 102
    },
    {
      "midi": 65,
      "hit": false,
      "t": 57000,
      "d": 2185.9375,
      "v": 113
    },
    {
      "midi": 58,
      "hit": false,
      "t": 57000,
      "d": 2200,
      "v": 120
    },
    {
      "midi": 65,
      "hit": false,
      "t": 57000,
      "d": 2112.5,
      "v": 102
    },
    {
      "midi": 62,
      "hit": false,
      "t": 57000,
      "d": 2117.1875,
      "v": 103
    },
    {
      "midi": 58,
      "hit": false,
      "t": 57000,
      "d": 2134.375,
      "v": 121
    },
    {
      "midi": 65,
      "hit": false,
      "t": 59250,
      "d": 665.625,
      "v": 103
    },
    {
      "midi": 55,
      "hit": false,
      "t": 59250,
      "d": 668.75,
      "v": 103
    },
    {
      "midi": 58,
      "hit": false,
      "t": 59250,
      "d": 679.6875,
      "v": 112
    },
    {
      "midi": 62,
      "hit": false,
      "t": 59250,
      "d": 681.25,
      "v": 112
    },
    {
      "midi": 58,
      "hit": false,
      "t": 59250,
      "d": 687.5,
      "v": 112
    },
    {
      "midi": 65,
      "hit": false,
      "t": 59250,
      "d": 700,
      "v": 107
    },
    {
      "midi": 62,
      "hit": false,
      "t": 59250,
      "d": 710.9375,
      "v": 113
    },
    {
      "midi": 62,
      "hit": false,
      "t": 59998.4375,
      "d": 2185.9375,
      "v": 92
    },
    {
      "midi": 65,
      "hit": false,
      "t": 60000,
      "d": 2173.4375,
      "v": 107
    },
    {
      "midi": 57,
      "hit": false,
      "t": 60000,
      "d": 2182.8125,
      "v": 123
    },
    {
      "midi": 65,
      "hit": false,
      "t": 60000,
      "d": 2145.3125,
      "v": 97
    },
    {
      "midi": 57,
      "hit": false,
      "t": 60000,
      "d": 2146.875,
      "v": 106
    },
    {
      "midi": 62,
      "hit": false,
      "t": 60000,
      "d": 2154.6875,
      "v": 102
    },
    {
      "midi": 65,
      "hit": false,
      "t": 62250,
      "d": 651.5625,
      "v": 106
    },
    {
      "midi": 57,
      "hit": false,
      "t": 62250,
      "d": 654.6875,
      "v": 112
    },
    {
      "midi": 62,
      "hit": false,
      "t": 62250,
      "d": 682.8125,
      "v": 107
    },
    {
      "midi": 57,
      "hit": false,
      "t": 62250,
      "d": 673.4375,
      "v": 106
    },
    {
      "midi": 62,
      "hit": false,
      "t": 62250,
      "d": 681.25,
      "v": 107
    },
    {
      "midi": 65,
      "hit": false,
      "t": 62250,
      "d": 685.9375,
      "v": 113
    },
    {
      "midi": 55,
      "hit": false,
      "t": 63000,
      "d": 2157.8125,
      "v": 96
    },
    {
      "midi": 65,
      "hit": false,
      "t": 63000,
      "d": 2173.4375,
      "v": 102
    },
    {
      "midi": 58,
      "hit": false,
      "t": 63000,
      "d": 2193.75,
      "v": 107
    },
    {
      "midi": 62,
      "hit": false,
      "t": 63000,
      "d": 2195.3125,
      "v": 107
    },
    {
      "midi": 65,
      "hit": false,
      "t": 63000,
      "d": 2135.9375,
      "v": 92
    },
    {
      "midi": 62,
      "hit": false,
      "t": 63000,
      "d": 2143.75,
      "v": 103
    },
    {
      "midi": 58,
      "hit": false,
      "t": 63000,
      "d": 2153.125,
      "v": 112
    },
    {
      "midi": 65,
      "hit": false,
      "t": 65248.4375,
      "d": 657.8125,
      "v": 97
    },
    {
      "midi": 62,
      "hit": false,
      "t": 65248.4375,
      "d": 662.5,
      "v": 106
    },
    {
      "midi": 65,
      "hit": false,
      "t": 65250,
      "d": 664.0625,
      "v": 112
    },
    {
      "midi": 58,
      "hit": false,
      "t": 65250,
      "d": 685.9375,
      "v": 107
    },
    {
      "midi": 55,
      "hit": false,
      "t": 65250,
      "d": 689.0625,
      "v": 102
    },
    {
      "midi": 62,
      "hit": false,
      "t": 65250,
      "d": 689.0625,
      "v": 113
    },
    {
      "midi": 58,
      "hit": false,
      "t": 65250,
      "d": 643.75,
      "v": 113
    },
    {
      "midi": 57,
      "hit": false,
      "t": 65998.4375,
      "d": 2175,
      "v": 106
    },
    {
      "midi": 62,
      "hit": false,
      "t": 65998.4375,
      "d": 2200,
      "v": 106
    },
    {
      "midi": 65,
      "hit": false,
      "t": 65998.4375,
      "d": 2200,
      "v": 103
    },
    {
      "midi": 65,
      "hit": false,
      "t": 66000,
      "d": 2156.25,
      "v": 106
    },
    {
      "midi": 57,
      "hit": false,
      "t": 66000,
      "d": 2175,
      "v": 112
    },
    {
      "midi": 62,
      "hit": false,
      "t": 66000,
      "d": 2178.125,
      "v": 103
    },
    {
      "midi": 65,
      "hit": false,
      "t": 68250,
      "d": 675,
      "v": 118
    },
    {
      "midi": 57,
      "hit": false,
      "t": 68250,
      "d": 690.625,
      "v": 113
    },
    {
      "midi": 62,
      "hit": false,
      "t": 68250,
      "d": 707.8125,
      "v": 107
    },
    {
      "midi": 57,
      "hit": false,
      "t": 68250,
      "d": 648.4375,
      "v": 107
    },
    {
      "midi": 62,
      "hit": false,
      "t": 68250,
      "d": 659.375,
      "v": 118
    },
    {
      "midi": 65,
      "hit": false,
      "t": 68250,
      "d": 664.0625,
      "v": 102
    },
    {
      "midi": 65,
      "hit": false,
      "t": 69000,
      "d": 2146.875,
      "v": 103
    },
    {
      "midi": 55,
      "hit": false,
      "t": 69000,
      "d": 2157.8125,
      "v": 89
    },
    {
      "midi": 58,
      "hit": false,
      "t": 69000,
      "d": 2168.75,
      "v": 106
    },
    {
      "midi": 62,
      "hit": false,
      "t": 69000,
      "d": 2173.4375,
      "v": 96
    },
    {
      "midi": 65,
      "hit": false,
      "t": 69000,
      "d": 2121.875,
      "v": 89
    },
    {
      "midi": 62,
      "hit": false,
      "t": 69000,
      "d": 2142.1875,
      "v": 96
    },
    {
      "midi": 58,
      "hit": false,
      "t": 69000,
      "d": 2171.875,
      "v": 113
    },
    {
      "midi": 65,
      "hit": false,
      "t": 71250,
      "d": 667.1875,
      "v": 113
    },
    {
      "midi": 55,
      "hit": false,
      "t": 71250,
      "d": 676.5625,
      "v": 97
    },
    {
      "midi": 58,
      "hit": false,
      "t": 71250,
      "d": 684.375,
      "v": 112
    },
    {
      "midi": 62,
      "hit": false,
      "t": 71250,
      "d": 689.0625,
      "v": 112
    },
    {
      "midi": 65,
      "hit": false,
      "t": 71250,
      "d": 635.9375,
      "v": 119
    },
    {
      "midi": 58,
      "hit": false,
      "t": 71250,
      "d": 639.0625,
      "v": 113
    },
    {
      "midi": 62,
      "hit": false,
      "t": 71250,
      "d": 656.25,
      "v": 106
    },
    {
      "midi": 57,
      "hit": false,
      "t": 71998.4375,
      "d": 2228.125,
      "v": 106
    },
    {
      "midi": 62,
      "hit": false,
      "t": 71998.4375,
      "d": 2228.125,
      "v": 106
    },
    {
      "midi": 65,
      "hit": false,
      "t": 71998.4375,
      "d": 2228.125,
      "v": 107
    },
    {
      "midi": 65,
      "hit": false,
      "t": 72000,
      "d": 2189.0625,
      "v": 106
    },
    {
      "midi": 57,
      "hit": false,
      "t": 72000,
      "d": 2198.4375,
      "v": 107
    },
    {
      "midi": 62,
      "hit": false,
      "t": 72000,
      "d": 2206.25,
      "v": 96
    },
    {
      "midi": 62,
      "hit": false,
      "t": 74250,
      "d": 651.5625,
      "v": 102
    },
    {
      "midi": 57,
      "hit": false,
      "t": 74250,
      "d": 659.375,
      "v": 123
    },
    {
      "midi": 65,
      "hit": false,
      "t": 74250,
      "d": 659.375,
      "v": 113
    },
    {
      "midi": 62,
      "hit": false,
      "t": 74250,
      "d": 648.4375,
      "v": 96
    },
    {
      "midi": 65,
      "hit": false,
      "t": 74250,
      "d": 670.3125,
      "v": 88
    },
    {
      "midi": 57,
      "hit": false,
      "t": 74250,
      "d": 718.75,
      "v": 97
    },
    {
      "midi": 58,
      "hit": false,
      "t": 75000,
      "d": 2960.9375,
      "v": 120
    },
    {
      "midi": 61,
      "hit": false,
      "t": 75000,
      "d": 2964.0625,
      "v": 121
    },
    {
      "midi": 64,
      "hit": false,
      "t": 75000,
      "d": 2964.0625,
      "v": 118
    },
    {
      "midi": 55,
      "hit": false,
      "t": 75000,
      "d": 2975,
      "v": 107
    },
    {
      "midi": 61,
      "hit": false,
      "t": 75000,
      "d": 784.375,
      "v": 101
    },
    {
      "midi": 64,
      "hit": false,
      "t": 75000,
      "d": 784.375,
      "v": 84
    },
    {
      "midi": 58,
      "hit": false,
      "t": 75000,
      "d": 789.0625,
      "v": 107
    },
    {
      "midi": 67,
      "hit": false,
      "t": 75937.5,
      "d": 2062.5,
      "v": 88
    },
    {
      "midi": 70,
      "hit": false,
      "t": 76123.4375,
      "d": 1876.5625,
      "v": 79
    },
    {
      "midi": 73,
      "hit": false,
      "t": 76312.5,
      "d": 1687.5,
      "v": 88
    },
    {
      "midi": 76,
      "hit": false,
      "t": 76685.9375,
      "d": 1314.0625,
      "v": 71
    },
    {
      "midi": 65,
      "hit": false,
      "t": 78000,
      "d": 2167.1875,
      "v": 89
    },
    {
      "midi": 57,
      "hit": false,
      "t": 78000,
      "d": 2192.1875,
      "v": 92
    },
    {
      "midi": 62,
      "hit": false,
      "t": 78000,
      "d": 2200,
      "v": 93
    },
    {
      "midi": 65,
      "hit": false,
      "t": 78000,
      "d": 2165.625,
      "v": 103
    },
    {
      "midi": 57,
      "hit": false,
      "t": 78000,
      "d": 2190.625,
      "v": 97
    },
    {
      "midi": 62,
      "hit": false,
      "t": 78000,
      "d": 2198.4375,
      "v": 106
    },
    {
      "midi": 38,
      "hit": false,
      "t": 78012.5,
      "d": 2162.5,
      "v": 88
    },
    {
      "midi": 38,
      "hit": false,
      "t": 80246.875,
      "d": 723.4375,
      "v": 112
    },
    {
      "midi": 57,
      "hit": false,
      "t": 80250,
      "d": 675,
      "v": 92
    },
    {
      "midi": 65,
      "hit": false,
      "t": 80250,
      "d": 682.8125,
      "v": 85
    },
    {
      "midi": 62,
      "hit": false,
      "t": 80250,
      "d": 712.5,
      "v": 84
    },
    {
      "midi": 57,
      "hit": false,
      "t": 80250,
      "d": 640.625,
      "v": 89
    },
    {
      "midi": 65,
      "hit": false,
      "t": 80250,
      "d": 643.75,
      "v": 92
    },
    {
      "midi": 62,
      "hit": false,
      "t": 80250,
      "d": 665.625,
      "v": 89
    },
    {
      "midi": 36,
      "hit": false,
      "t": 80985.9375,
      "d": 2220.3125,
      "v": 88
    },
    {
      "midi": 65,
      "hit": false,
      "t": 81000,
      "d": 2151.5625,
      "v": 92
    },
    {
      "midi": 60,
      "hit": false,
      "t": 81000,
      "d": 2164.0625,
      "v": 96
    },
    {
      "midi": 57,
      "hit": false,
      "t": 81000,
      "d": 2176.5625,
      "v": 93
    },
    {
      "midi": 60,
      "hit": false,
      "t": 81000,
      "d": 2198.4375,
      "v": 97
    },
    {
      "midi": 57,
      "hit": false,
      "t": 81000,
      "d": 2200,
      "v": 93
    },
    {
      "midi": 65,
      "hit": false,
      "t": 81000,
      "d": 2206.25,
      "v": 92
    },
    {
      "midi": 57,
      "hit": false,
      "t": 83250,
      "d": 665.625,
      "v": 97
    },
    {
      "midi": 60,
      "hit": false,
      "t": 83250,
      "d": 682.8125,
      "v": 96
    },
    {
      "midi": 65,
      "hit": false,
      "t": 83250,
      "d": 703.125,
      "v": 97
    },
    {
      "midi": 60,
      "hit": false,
      "t": 83250,
      "d": 614.0625,
      "v": 103
    },
    {
      "midi": 65,
      "hit": false,
      "t": 83250,
      "d": 629.6875,
      "v": 96
    },
    {
      "midi": 57,
      "hit": false,
      "t": 83250,
      "d": 637.5,
      "v": 102
    },
    {
      "midi": 36,
      "hit": false,
      "t": 83275,
      "d": 710.9375,
      "v": 123
    },
    {
      "midi": 65,
      "hit": false,
      "t": 84000,
      "d": 2151.5625,
      "v": 77
    },
    {
      "midi": 62,
      "hit": false,
      "t": 84000,
      "d": 2167.1875,
      "v": 88
    },
    {
      "midi": 57,
      "hit": false,
      "t": 84000,
      "d": 2170.3125,
      "v": 93
    },
    {
      "midi": 65,
      "hit": false,
      "t": 84000,
      "d": 2171.875,
      "v": 97
    },
    {
      "midi": 57,
      "hit": false,
      "t": 84000,
      "d": 2182.8125,
      "v": 97
    },
    {
      "midi": 62,
      "hit": false,
      "t": 84000,
      "d": 2185.9375,
      "v": 96
    },
    {
      "midi": 34,
      "hit": false,
      "t": 84017.1875,
      "d": 2168.75,
      "v": 84
    },
    {
      "midi": 65,
      "hit": false,
      "t": 86250,
      "d": 685.9375,
      "v": 81
    },
    {
      "midi": 57,
      "hit": false,
      "t": 86250,
      "d": 689.0625,
      "v": 92
    },
    {
      "midi": 62,
      "hit": false,
      "t": 86250,
      "d": 706.25,
      "v": 84
    },
    {
      "midi": 65,
      "hit": false,
      "t": 86250,
      "d": 670.3125,
      "v": 103
    },
    {
      "midi": 57,
      "hit": false,
      "t": 86250,
      "d": 673.4375,
      "v": 106
    },
    {
      "midi": 62,
      "hit": false,
      "t": 86250,
      "d": 678.125,
      "v": 93
    },
    {
      "midi": 34,
      "hit": false,
      "t": 86271.875,
      "d": 725,
      "v": 126
    },
    {
      "midi": 60,
      "hit": false,
      "t": 87000,
      "d": 1378.125,
      "v": 96
    },
    {
      "midi": 55,
      "hit": false,
      "t": 87000,
      "d": 1382.8125,
      "v": 81
    },
    {
      "midi": 64,
      "hit": false,
      "t": 87000,
      "d": 1387.5,
      "v": 88
    },
    {
      "midi": 60,
      "hit": false,
      "t": 87000,
      "d": 1385.9375,
      "v": 103
    },
    {
      "midi": 55,
      "hit": false,
      "t": 87000,
      "d": 1400,
      "v": 84
    },
    {
      "midi": 64,
      "hit": false,
      "t": 87000,
      "d": 1412.5,
      "v": 103
    },
    {
      "midi": 33,
      "hit": false,
      "t": 87014.0625,
      "d": 1426.5625,
      "v": 92
    },
    {
      "midi": 55,
      "hit": false,
      "t": 88498.4375,
      "d": 1446.875,
      "v": 71
    },
    {
      "midi": 58,
      "hit": false,
      "t": 88498.4375,
      "d": 1450,
      "v": 95
    },
    {
      "midi": 61,
      "hit": false,
      "t": 88500,
      "d": 1440.625,
      "v": 94
    },
    {
      "midi": 64,
      "hit": false,
      "t": 88500,
      "d": 1440.625,
      "v": 76
    },
    {
      "midi": 55,
      "hit": false,
      "t": 88500,
      "d": 1376.5625,
      "v": 84
    },
    {
      "midi": 58,
      "hit": false,
      "t": 88500,
      "d": 1389.0625,
      "v": 113
    },
    {
      "midi": 61,
      "hit": false,
      "t": 88500,
      "d": 1396.875,
      "v": 106
    },
    {
      "midi": 64,
      "hit": false,
      "t": 88500,
      "d": 1396.875,
      "v": 97
    },
    {
      "midi": 33,
      "hit": false,
      "t": 88510.9375,
      "d": 1451.5625,
      "v": 93
    },
    {
      "midi": 65,
      "hit": false,
      "t": 90000,
      "d": 2179.6875,
      "v": 81
    },
    {
      "midi": 57,
      "hit": false,
      "t": 90000,
      "d": 2182.8125,
      "v": 85
    },
    {
      "midi": 62,
      "hit": false,
      "t": 90000,
      "d": 2187.5,
      "v": 84
    },
    {
      "midi": 57,
      "hit": false,
      "t": 90000,
      "d": 2145.3125,
      "v": 102
    },
    {
      "midi": 65,
      "hit": false,
      "t": 90000,
      "d": 2145.3125,
      "v": 106
    },
    {
      "midi": 62,
      "hit": false,
      "t": 90000,
      "d": 2160.9375,
      "v": 107
    },
    {
      "midi": 38,
      "hit": false,
      "t": 90006.25,
      "d": 2168.75,
      "v": 122
    },
    {
      "midi": 65,
      "hit": false,
      "t": 92250,
      "d": 643.75,
      "v": 93
    },
    {
      "midi": 57,
      "hit": false,
      "t": 92250,
      "d": 648.4375,
      "v": 89
    },
    {
      "midi": 62,
      "hit": false,
      "t": 92250,
      "d": 650,
      "v": 92
    },
    {
      "midi": 57,
      "hit": false,
      "t": 92250,
      "d": 631.25,
      "v": 103
    },
    {
      "midi": 65,
      "hit": false,
      "t": 92250,
      "d": 656.25,
      "v": 96
    },
    {
      "midi": 62,
      "hit": false,
      "t": 92250,
      "d": 660.9375,
      "v": 103
    },
    {
      "midi": 38,
      "hit": false,
      "t": 92268.75,
      "d": 709.375,
      "v": 118
    },
    {
      "midi": 36,
      "hit": false,
      "t": 92990.625,
      "d": 2154.6875,
      "v": 89
    },
    {
      "midi": 65,
      "hit": false,
      "t": 93000,
      "d": 2167.1875,
      "v": 77
    },
    {
      "midi": 57,
      "hit": false,
      "t": 93000,
      "d": 2187.5,
      "v": 88
    },
    {
      "midi": 60,
      "hit": false,
      "t": 93000,
      "d": 2187.5,
      "v": 88
    },
    {
      "midi": 65,
      "hit": false,
      "t": 93000,
      "d": 2156.25,
      "v": 96
    },
    {
      "midi": 60,
      "hit": false,
      "t": 93000,
      "d": 2185.9375,
      "v": 102
    },
    {
      "midi": 57,
      "hit": false,
      "t": 93000,
      "d": 2201.5625,
      "v": 89
    },
    {
      "midi": 57,
      "hit": false,
      "t": 95250,
      "d": 664.0625,
      "v": 103
    },
    {
      "midi": 60,
      "hit": false,
      "t": 95250,
      "d": 668.75,
      "v": 96
    },
    {
      "midi": 65,
      "hit": false,
      "t": 95250,
      "d": 682.8125,
      "v": 96
    },
    {
      "midi": 60,
      "hit": false,
      "t": 95250,
      "d": 643.75,
      "v": 102
    },
    {
      "midi": 57,
      "hit": false,
      "t": 95250,
      "d": 660.9375,
      "v": 103
    },
    {
      "midi": 65,
      "hit": false,
      "t": 95250,
      "d": 671.875,
      "v": 97
    },
    {
      "midi": 36,
      "hit": false,
      "t": 95254.6875,
      "d": 754.6875,
      "v": 127
    },
    {
      "midi": 65,
      "hit": false,
      "t": 96000,
      "d": 2148.4375,
      "v": 80
    },
    {
      "midi": 57,
      "hit": false,
      "t": 96000,
      "d": 2154.6875,
      "v": 81
    },
    {
      "midi": 62,
      "hit": false,
      "t": 96000,
      "d": 2167.1875,
      "v": 89
    },
    {
      "midi": 65,
      "hit": false,
      "t": 96000,
      "d": 2143.75,
      "v": 106
    },
    {
      "midi": 62,
      "hit": false,
      "t": 96000,
      "d": 2170.3125,
      "v": 103
    },
    {
      "midi": 57,
      "hit": false,
      "t": 96000,
      "d": 2171.875,
      "v": 102
    },
    {
      "midi": 34,
      "hit": false,
      "t": 96006.25,
      "d": 2178.125,
      "v": 78
    },
    {
      "midi": 65,
      "hit": false,
      "t": 98250,
      "d": 667.1875,
      "v": 96
    },
    {
      "midi": 57,
      "hit": false,
      "t": 98250,
      "d": 685.9375,
      "v": 102
    },
    {
      "midi": 62,
      "hit": false,
      "t": 98250,
      "d": 695.3125,
      "v": 89
    },
    {
      "midi": 65,
      "hit": false,
      "t": 98250,
      "d": 660.9375,
      "v": 80
    },
    {
      "midi": 62,
      "hit": false,
      "t": 98250,
      "d": 678.125,
      "v": 81
    },
    {
      "midi": 57,
      "hit": false,
      "t": 98250,
      "d": 685.9375,
      "v": 97
    },
    {
      "midi": 34,
      "hit": false,
      "t": 98271.875,
      "d": 703.125,
      "v": 120
    },
    {
      "midi": 60,
      "hit": false,
      "t": 99000,
      "d": 1362.5,
      "v": 103
    },
    {
      "midi": 64,
      "hit": false,
      "t": 99000,
      "d": 1392.1875,
      "v": 92
    },
    {
      "midi": 55,
      "hit": false,
      "t": 99000,
      "d": 1400,
      "v": 65
    },
    {
      "midi": 60,
      "hit": false,
      "t": 99000,
      "d": 1404.6875,
      "v": 103
    },
    {
      "midi": 55,
      "hit": false,
      "t": 99000,
      "d": 1418.75,
      "v": 77
    },
    {
      "midi": 64,
      "hit": false,
      "t": 99000,
      "d": 1431.25,
      "v": 102
    },
    {
      "midi": 33,
      "hit": false,
      "t": 99004.6875,
      "d": 1407.8125,
      "v": 88
    },
    {
      "midi": 33,
      "hit": false,
      "t": 100495.3125,
      "d": 1360.9375,
      "v": 97
    },
    {
      "midi": 58,
      "hit": false,
      "t": 100498.4375,
      "d": 1498.4375,
      "v": 100
    },
    {
      "midi": 61,
      "hit": false,
      "t": 100498.4375,
      "d": 1498.4375,
      "v": 100
    },
    {
      "midi": 55,
      "hit": false,
      "t": 100498.4375,
      "d": 1509.375,
      "v": 71
    },
    {
      "midi": 58,
      "hit": false,
      "t": 100500,
      "d": 1470.3125,
      "v": 113
    },
    {
      "midi": 64,
      "hit": false,
      "t": 100500,
      "d": 1470.3125,
      "v": 102
    },
    {
      "midi": 61,
      "hit": false,
      "t": 100500,
      "d": 1471.875,
      "v": 107
    },
    {
      "midi": 55,
      "hit": false,
      "t": 100500,
      "d": 1485.9375,
      "v": 84
    },
    {
      "midi": 38,
      "hit": false,
      "t": 101103.125,
      "d": 181.25,
      "v": 119
    },
    {
      "midi": 50,
      "hit": false,
      "t": 101293.75,
      "d": 210.9375,
      "v": 122
    },
    {
      "midi": 48,
      "hit": false,
      "t": 101468.75,
      "d": 156.25,
      "v": 123
    },
    {
      "midi": 45,
      "hit": false,
      "t": 101632.8125,
      "d": 181.25,
      "v": 113
    },
    {
      "midi": 38,
      "hit": false,
      "t": 101826.5625,
      "d": 195.3125,
      "v": 112
    },
    {
      "midi": 64,
      "hit": false,
      "t": 102000,
      "d": 1.5625,
      "v": 85
    },
    {
      "midi": 53,
      "hit": false,
      "t": 102000,
      "d": 2146.875,
      "v": 103
    },
    {
      "midi": 60,
      "hit": false,
      "t": 102000,
      "d": 2150,
      "v": 118
    },
    {
      "midi": 57,
      "hit": false,
      "t": 102000,
      "d": 2154.6875,
      "v": 112
    },
    {
      "midi": 57,
      "hit": false,
      "t": 102000,
      "d": 2179.6875,
      "v": 103
    },
    {
      "midi": 60,
      "hit": false,
      "t": 102000,
      "d": 2179.6875,
      "v": 102
    },
    {
      "midi": 64,
      "hit": false,
      "t": 102000,
      "d": 2179.6875,
      "v": 102
    },
    {
      "midi": 53,
      "hit": false,
      "t": 104250,
      "d": 689.0625,
      "v": 107
    },
    {
      "midi": 64,
      "hit": false,
      "t": 104250,
      "d": 689.0625,
      "v": 107
    },
    {
      "midi": 60,
      "hit": false,
      "t": 104250,
      "d": 692.1875,
      "v": 118
    },
    {
      "midi": 57,
      "hit": false,
      "t": 104250,
      "d": 698.4375,
      "v": 112
    },
    {
      "midi": 57,
      "hit": false,
      "t": 104250,
      "d": 675,
      "v": 103
    },
    {
      "midi": 64,
      "hit": false,
      "t": 104250,
      "d": 679.6875,
      "v": 92
    },
    {
      "midi": 60,
      "hit": false,
      "t": 104250,
      "d": 692.1875,
      "v": 93
    },
    {
      "midi": 55,
      "hit": false,
      "t": 104998.4375,
      "d": 2179.6875,
      "v": 78
    },
    {
      "midi": 60,
      "hit": false,
      "t": 104998.4375,
      "d": 2200,
      "v": 93
    },
    {
      "midi": 64,
      "hit": false,
      "t": 105000,
      "d": 2121.875,
      "v": 103
    },
    {
      "midi": 60,
      "hit": false,
      "t": 105000,
      "d": 2128.125,
      "v": 119
    },
    {
      "midi": 55,
      "hit": false,
      "t": 105000,
      "d": 2134.375,
      "v": 112
    },
    {
      "midi": 64,
      "hit": false,
      "t": 105000,
      "d": 2189.0625,
      "v": 93
    },
    {
      "midi": 64,
      "hit": false,
      "t": 107250,
      "d": 643.75,
      "v": 102
    },
    {
      "midi": 55,
      "hit": false,
      "t": 107250,
      "d": 653.125,
      "v": 102
    },
    {
      "midi": 60,
      "hit": false,
      "t": 107250,
      "d": 659.375,
      "v": 119
    },
    {
      "midi": 64,
      "hit": false,
      "t": 107250,
      "d": 670.3125,
      "v": 87
    },
    {
      "midi": 55,
      "hit": false,
      "t": 107250,
      "d": 682.8125,
      "v": 86
    },
    {
      "midi": 60,
      "hit": false,
      "t": 107250,
      "d": 682.8125,
      "v": 92
    },
    {
      "midi": 53,
      "hit": false,
      "t": 108000,
      "d": 2159.375,
      "v": 102
    },
    {
      "midi": 64,
      "hit": false,
      "t": 108000,
      "d": 2167.1875,
      "v": 92
    },
    {
      "midi": 60,
      "hit": false,
      "t": 108000,
      "d": 2178.125,
      "v": 113
    },
    {
      "midi": 57,
      "hit": false,
      "t": 108000,
      "d": 2181.25,
      "v": 107
    },
    {
      "midi": 64,
      "hit": false,
      "t": 108000,
      "d": 2164.0625,
      "v": 99
    },
    {
      "midi": 60,
      "hit": false,
      "t": 108000,
      "d": 2189.0625,
      "v": 87
    },
    {
      "midi": 57,
      "hit": false,
      "t": 108000,
      "d": 2190.625,
      "v": 98
    },
    {
      "midi": 64,
      "hit": false,
      "t": 110250,
      "d": 645.3125,
      "v": 102
    },
    {
      "midi": 60,
      "hit": false,
      "t": 110250,
      "d": 654.6875,
      "v": 113
    },
    {
      "midi": 53,
      "hit": false,
      "t": 110250,
      "d": 659.375,
      "v": 102
    },
    {
      "midi": 57,
      "hit": false,
      "t": 110250,
      "d": 660.9375,
      "v": 113
    },
    {
      "midi": 57,
      "hit": false,
      "t": 110250,
      "d": 684.375,
      "v": 102
    },
    {
      "midi": 64,
      "hit": false,
      "t": 110250,
      "d": 690.625,
      "v": 92
    },
    {
      "midi": 60,
      "hit": false,
      "t": 110250,
      "d": 698.4375,
      "v": 93
    },
    {
      "midi": 64,
      "hit": false,
      "t": 111000,
      "d": 1370.3125,
      "v": 84
    },
    {
      "midi": 60,
      "hit": false,
      "t": 111000,
      "d": 1375,
      "v": 107
    },
    {
      "midi": 55,
      "hit": false,
      "t": 111000,
      "d": 1384.375,
      "v": 106
    },
    {
      "midi": 60,
      "hit": false,
      "t": 111000,
      "d": 1409.375,
      "v": 87
    },
    {
      "midi": 55,
      "hit": false,
      "t": 111000,
      "d": 1421.875,
      "v": 86
    },
    {
      "midi": 64,
      "hit": false,
      "t": 111000,
      "d": 1428.125,
      "v": 93
    },
    {
      "midi": 55,
      "hit": false,
      "t": 112498.4375,
      "d": 1446.875,
      "v": 113
    },
    {
      "midi": 61,
      "hit": false,
      "t": 112498.4375,
      "d": 1450,
      "v": 120
    },
    {
      "midi": 58,
      "hit": false,
      "t": 112498.4375,
      "d": 1457.8125,
      "v": 113
    },
    {
      "midi": 55,
      "hit": false,
      "t": 112498.4375,
      "d": 1439.0625,
      "v": 78
    },
    {
      "midi": 64,
      "hit": false,
      "t": 112498.4375,
      "d": 1440.625,
      "v": 82
    },
    {
      "midi": 64,
      "hit": false,
      "t": 112500,
      "d": 1450,
      "v": 103
    },
    {
      "midi": 61,
      "hit": false,
      "t": 112500,
      "d": 1432.8125,
      "v": 99
    },
    {
      "midi": 58,
      "hit": false,
      "t": 112500,
      "d": 1439.0625,
      "v": 105
    },
    {
      "midi": 64,
      "hit": false,
      "t": 114000,
      "d": 2131.25,
      "v": 93
    },
    {
      "midi": 57,
      "hit": false,
      "t": 114000,
      "d": 2139.0625,
      "v": 98
    },
    {
      "midi": 60,
      "hit": false,
      "t": 114000,
      "d": 2148.4375,
      "v": 82
    },
    {
      "midi": 60,
      "hit": false,
      "t": 114001.5625,
      "d": 2125,
      "v": 119
    },
    {
      "midi": 53,
      "hit": false,
      "t": 114001.5625,
      "d": 2126.5625,
      "v": 112
    },
    {
      "midi": 64,
      "hit": false,
      "t": 114001.5625,
      "d": 2128.125,
      "v": 107
    },
    {
      "midi": 57,
      "hit": false,
      "t": 114001.5625,
      "d": 2129.6875,
      "v": 118
    },
    {
      "midi": 53,
      "hit": false,
      "t": 116250,
      "d": 668.75,
      "v": 106
    },
    {
      "midi": 64,
      "hit": false,
      "t": 116250,
      "d": 668.75,
      "v": 103
    },
    {
      "midi": 60,
      "hit": false,
      "t": 116250,
      "d": 676.5625,
      "v": 119
    },
    {
      "midi": 57,
      "hit": false,
      "t": 116250,
      "d": 679.6875,
      "v": 118
    },
    {
      "midi": 57,
      "hit": false,
      "t": 116250,
      "d": 698.4375,
      "v": 102
    },
    {
      "midi": 64,
      "hit": false,
      "t": 116250,
      "d": 701.5625,
      "v": 93
    },
    {
      "midi": 60,
      "hit": false,
      "t": 116250,
      "d": 707.8125,
      "v": 99
    },
    {
      "midi": 64,
      "hit": false,
      "t": 117000,
      "d": 2146.875,
      "v": 103
    },
    {
      "midi": 60,
      "hit": false,
      "t": 117000,
      "d": 2170.3125,
      "v": 112
    },
    {
      "midi": 55,
      "hit": false,
      "t": 117000,
      "d": 2171.875,
      "v": 106
    },
    {
      "midi": 55,
      "hit": false,
      "t": 117000,
      "d": 2143.75,
      "v": 82
    },
    {
      "midi": 64,
      "hit": false,
      "t": 117000,
      "d": 2143.75,
      "v": 92
    },
    {
      "midi": 60,
      "hit": false,
      "t": 117000,
      "d": 2160.9375,
      "v": 93
    },
    {
      "midi": 64,
      "hit": false,
      "t": 119250,
      "d": 673.4375,
      "v": 93
    },
    {
      "midi": 55,
      "hit": false,
      "t": 119250,
      "d": 681.25,
      "v": 106
    },
    {
      "midi": 60,
      "hit": false,
      "t": 119250,
      "d": 681.25,
      "v": 107
    },
    {
      "midi": 64,
      "hit": false,
      "t": 119250,
      "d": 698.4375,
      "v": 103
    },
    {
      "midi": 60,
      "hit": false,
      "t": 119250,
      "d": 710.9375,
      "v": 109
    },
    {
      "midi": 55,
      "hit": false,
      "t": 119250,
      "d": 717.1875,
      "v": 86
    },
    {
      "midi": 64,
      "hit": false,
      "t": 120000,
      "d": 2142.1875,
      "v": 96
    },
    {
      "midi": 60,
      "hit": false,
      "t": 120000,
      "d": 2150,
      "v": 112
    },
    {
      "midi": 57,
      "hit": false,
      "t": 120000,
      "d": 2157.8125,
      "v": 107
    },
    {
      "midi": 53,
      "hit": false,
      "t": 120000,
      "d": 2162.5,
      "v": 92
    },
    {
      "midi": 64,
      "hit": false,
      "t": 120000,
      "d": 2154.6875,
      "v": 99
    },
    {
      "midi": 57,
      "hit": false,
      "t": 120000,
      "d": 2160.9375,
      "v": 98
    },
    {
      "midi": 60,
      "hit": false,
      "t": 120000,
      "d": 2168.75,
      "v": 82
    },
    {
      "midi": 53,
      "hit": false,
      "t": 122250,
      "d": 668.75,
      "v": 113
    },
    {
      "midi": 64,
      "hit": false,
      "t": 122250,
      "d": 671.875,
      "v": 96
    },
    {
      "midi": 60,
      "hit": false,
      "t": 122250,
      "d": 676.5625,
      "v": 118
    },
    {
      "midi": 57,
      "hit": false,
      "t": 122250,
      "d": 679.6875,
      "v": 119
    },
    {
      "midi": 57,
      "hit": false,
      "t": 122250,
      "d": 689.0625,
      "v": 103
    },
    {
      "midi": 64,
      "hit": false,
      "t": 122250,
      "d": 692.1875,
      "v": 92
    },
    {
      "midi": 60,
      "hit": false,
      "t": 122250,
      "d": 704.6875,
      "v": 92
    },
    {
      "midi": 60,
      "hit": false,
      "t": 123000,
      "d": 1389.0625,
      "v": 113
    },
    {
      "midi": 64,
      "hit": false,
      "t": 123000,
      "d": 1396.875,
      "v": 96
    },
    {
      "midi": 55,
      "hit": false,
      "t": 123000,
      "d": 1401.5625,
      "v": 107
    },
    {
      "midi": 55,
      "hit": false,
      "t": 123000,
      "d": 1401.5625,
      "v": 87
    },
    {
      "midi": 60,
      "hit": false,
      "t": 123000,
      "d": 1403.125,
      "v": 92
    },
    {
      "midi": 64,
      "hit": false,
      "t": 123000,
      "d": 1409.375,
      "v": 99
    },
    {
      "midi": 58,
      "hit": false,
      "t": 124500,
      "d": 1475,
      "v": 113
    },
    {
      "midi": 61,
      "hit": false,
      "t": 124500,
      "d": 1475,
      "v": 120
    },
    {
      "midi": 64,
      "hit": false,
      "t": 124500,
      "d": 1476.5625,
      "v": 103
    },
    {
      "midi": 55,
      "hit": false,
      "t": 124500,
      "d": 1478.125,
      "v": 106
    },
    {
      "midi": 61,
      "hit": false,
      "t": 124500,
      "d": 1460.9375,
      "v": 99
    },
    {
      "midi": 58,
      "hit": false,
      "t": 124500,
      "d": 1462.5,
      "v": 98
    },
    {
      "midi": 64,
      "hit": false,
      "t": 124500,
      "d": 1468.75,
      "v": 86
    },
    {
      "midi": 55,
      "hit": false,
      "t": 124500,
      "d": 1473.4375,
      "v": 69
    },
    {
      "midi": 65,
      "hit": false,
      "t": 126000,
      "d": 2145.3125,
      "v": 119
    },
    {
      "midi": 57,
      "hit": false,
      "t": 126000,
      "d": 2154.6875,
      "v": 107
    },
    {
      "midi": 62,
      "hit": false,
      "t": 126000,
      "d": 2159.375,
      "v": 106
    },
    {
      "midi": 57,
      "hit": false,
      "t": 126000,
      "d": 2150,
      "v": 106
    },
    {
      "midi": 65,
      "hit": false,
      "t": 126000,
      "d": 2151.5625,
      "v": 119
    },
    {
      "midi": 62,
      "hit": false,
      "t": 126000,
      "d": 2159.375,
      "v": 113
    },
    {
      "midi": 57,
      "hit": false,
      "t": 128248.4375,
      "d": 642.1875,
      "v": 106
    },
    {
      "midi": 65,
      "hit": false,
      "t": 128248.4375,
      "d": 645.3125,
      "v": 107
    },
    {
      "midi": 62,
      "hit": false,
      "t": 128248.4375,
      "d": 685.9375,
      "v": 102
    },
    {
      "midi": 62,
      "hit": false,
      "t": 128250,
      "d": 682.8125,
      "v": 106
    },
    {
      "midi": 65,
      "hit": false,
      "t": 128250,
      "d": 685.9375,
      "v": 107
    },
    {
      "midi": 57,
      "hit": false,
      "t": 128250,
      "d": 687.5,
      "v": 106
    },
    {
      "midi": 62,
      "hit": false,
      "t": 128998.4375,
      "d": 2203.125,
      "v": 119
    },
    {
      "midi": 55,
      "hit": false,
      "t": 129000,
      "d": 2179.6875,
      "v": 102
    },
    {
      "midi": 65,
      "hit": false,
      "t": 129000,
      "d": 2185.9375,
      "v": 113
    },
    {
      "midi": 58,
      "hit": false,
      "t": 129000,
      "d": 2200,
      "v": 120
    },
    {
      "midi": 65,
      "hit": false,
      "t": 129000,
      "d": 2112.5,
      "v": 102
    },
    {
      "midi": 62,
      "hit": false,
      "t": 129000,
      "d": 2117.1875,
      "v": 102
    },
    {
      "midi": 58,
      "hit": false,
      "t": 129000,
      "d": 2134.375,
      "v": 121
    },
    {
      "midi": 65,
      "hit": false,
      "t": 131250,
      "d": 665.625,
      "v": 103
    },
    {
      "midi": 55,
      "hit": false,
      "t": 131250,
      "d": 668.75,
      "v": 103
    },
    {
      "midi": 58,
      "hit": false,
      "t": 131250,
      "d": 679.6875,
      "v": 112
    },
    {
      "midi": 62,
      "hit": false,
      "t": 131250,
      "d": 681.25,
      "v": 112
    },
    {
      "midi": 58,
      "hit": false,
      "t": 131250,
      "d": 687.5,
      "v": 113
    },
    {
      "midi": 65,
      "hit": false,
      "t": 131250,
      "d": 700,
      "v": 107
    },
    {
      "midi": 62,
      "hit": false,
      "t": 131250,
      "d": 710.9375,
      "v": 112
    },
    {
      "midi": 62,
      "hit": false,
      "t": 131998.4375,
      "d": 2185.9375,
      "v": 92
    },
    {
      "midi": 65,
      "hit": false,
      "t": 132000,
      "d": 2173.4375,
      "v": 107
    },
    {
      "midi": 57,
      "hit": false,
      "t": 132000,
      "d": 2182.8125,
      "v": 123
    },
    {
      "midi": 65,
      "hit": false,
      "t": 132000,
      "d": 2145.3125,
      "v": 97
    },
    {
      "midi": 57,
      "hit": false,
      "t": 132000,
      "d": 2146.875,
      "v": 107
    },
    {
      "midi": 62,
      "hit": false,
      "t": 132000,
      "d": 2154.6875,
      "v": 102
    },
    {
      "midi": 65,
      "hit": false,
      "t": 134250,
      "d": 651.5625,
      "v": 106
    },
    {
      "midi": 57,
      "hit": false,
      "t": 134250,
      "d": 654.6875,
      "v": 112
    },
    {
      "midi": 62,
      "hit": false,
      "t": 134250,
      "d": 682.8125,
      "v": 107
    },
    {
      "midi": 57,
      "hit": false,
      "t": 134250,
      "d": 673.4375,
      "v": 106
    },
    {
      "midi": 62,
      "hit": false,
      "t": 134250,
      "d": 681.25,
      "v": 106
    },
    {
      "midi": 65,
      "hit": false,
      "t": 134250,
      "d": 685.9375,
      "v": 113
    },
    {
      "midi": 55,
      "hit": false,
      "t": 135000,
      "d": 2157.8125,
      "v": 96
    },
    {
      "midi": 65,
      "hit": false,
      "t": 135000,
      "d": 2173.4375,
      "v": 102
    },
    {
      "midi": 58,
      "hit": false,
      "t": 135000,
      "d": 2193.75,
      "v": 107
    },
    {
      "midi": 62,
      "hit": false,
      "t": 135000,
      "d": 2195.3125,
      "v": 107
    },
    {
      "midi": 65,
      "hit": false,
      "t": 135000,
      "d": 2135.9375,
      "v": 92
    },
    {
      "midi": 62,
      "hit": false,
      "t": 135000,
      "d": 2143.75,
      "v": 102
    },
    {
      "midi": 58,
      "hit": false,
      "t": 135000,
      "d": 2153.125,
      "v": 113
    },
    {
      "midi": 65,
      "hit": false,
      "t": 137248.4375,
      "d": 657.8125,
      "v": 97
    },
    {
      "midi": 62,
      "hit": false,
      "t": 137248.4375,
      "d": 662.5,
      "v": 107
    },
    {
      "midi": 65,
      "hit": false,
      "t": 137250,
      "d": 664.0625,
      "v": 112
    },
    {
      "midi": 58,
      "hit": false,
      "t": 137250,
      "d": 685.9375,
      "v": 107
    },
    {
      "midi": 55,
      "hit": false,
      "t": 137250,
      "d": 689.0625,
      "v": 102
    },
    {
      "midi": 62,
      "hit": false,
      "t": 137250,
      "d": 689.0625,
      "v": 113
    },
    {
      "midi": 58,
      "hit": false,
      "t": 137250,
      "d": 643.75,
      "v": 112
    },
    {
      "midi": 57,
      "hit": false,
      "t": 137998.4375,
      "d": 2175,
      "v": 106
    },
    {
      "midi": 62,
      "hit": false,
      "t": 137998.4375,
      "d": 2200,
      "v": 107
    },
    {
      "midi": 65,
      "hit": false,
      "t": 137998.4375,
      "d": 2200,
      "v": 102
    },
    {
      "midi": 65,
      "hit": false,
      "t": 138000,
      "d": 2156.25,
      "v": 106
    },
    {
      "midi": 57,
      "hit": false,
      "t": 138000,
      "d": 2175,
      "v": 112
    },
    {
      "midi": 62,
      "hit": false,
      "t": 138000,
      "d": 2178.125,
      "v": 103
    },
    {
      "midi": 65,
      "hit": false,
      "t": 140250,
      "d": 675,
      "v": 118
    },
    {
      "midi": 57,
      "hit": false,
      "t": 140250,
      "d": 690.625,
      "v": 113
    },
    {
      "midi": 62,
      "hit": false,
      "t": 140250,
      "d": 707.8125,
      "v": 107
    },
    {
      "midi": 57,
      "hit": false,
      "t": 140250,
      "d": 648.4375,
      "v": 107
    },
    {
      "midi": 62,
      "hit": false,
      "t": 140250,
      "d": 659.375,
      "v": 119
    },
    {
      "midi": 65,
      "hit": false,
      "t": 140250,
      "d": 664.0625,
      "v": 102
    },
    {
      "midi": 65,
      "hit": false,
      "t": 141000,
      "d": 2146.875,
      "v": 103
    },
    {
      "midi": 55,
      "hit": false,
      "t": 141000,
      "d": 2157.8125,
      "v": 89
    },
    {
      "midi": 58,
      "hit": false,
      "t": 141000,
      "d": 2168.75,
      "v": 106
    },
    {
      "midi": 62,
      "hit": false,
      "t": 141000,
      "d": 2173.4375,
      "v": 96
    },
    {
      "midi": 65,
      "hit": false,
      "t": 141000,
      "d": 2121.875,
      "v": 88
    },
    {
      "midi": 62,
      "hit": false,
      "t": 141000,
      "d": 2142.1875,
      "v": 96
    },
    {
      "midi": 58,
      "hit": false,
      "t": 141000,
      "d": 2171.875,
      "v": 113
    },
    {
      "midi": 65,
      "hit": false,
      "t": 143250,
      "d": 667.1875,
      "v": 113
    },
    {
      "midi": 55,
      "hit": false,
      "t": 143250,
      "d": 676.5625,
      "v": 97
    },
    {
      "midi": 58,
      "hit": false,
      "t": 143250,
      "d": 684.375,
      "v": 112
    },
    {
      "midi": 62,
      "hit": false,
      "t": 143250,
      "d": 689.0625,
      "v": 112
    },
    {
      "midi": 65,
      "hit": false,
      "t": 143250,
      "d": 635.9375,
      "v": 118
    },
    {
      "midi": 58,
      "hit": false,
      "t": 143250,
      "d": 639.0625,
      "v": 113
    },
    {
      "midi": 62,
      "hit": false,
      "t": 143250,
      "d": 656.25,
      "v": 107
    },
    {
      "midi": 57,
      "hit": false,
      "t": 143998.4375,
      "d": 2228.125,
      "v": 106
    },
    {
      "midi": 62,
      "hit": false,
      "t": 143998.4375,
      "d": 2228.125,
      "v": 107
    },
    {
      "midi": 65,
      "hit": false,
      "t": 143998.4375,
      "d": 2228.125,
      "v": 107
    },
    {
      "midi": 65,
      "hit": false,
      "t": 144000,
      "d": 2189.0625,
      "v": 106
    },
    {
      "midi": 57,
      "hit": false,
      "t": 144000,
      "d": 2198.4375,
      "v": 107
    },
    {
      "midi": 62,
      "hit": false,
      "t": 144000,
      "d": 2206.25,
      "v": 96
    },
    {
      "midi": 62,
      "hit": false,
      "t": 146250,
      "d": 651.5625,
      "v": 102
    },
    {
      "midi": 57,
      "hit": false,
      "t": 146250,
      "d": 659.375,
      "v": 123
    },
    {
      "midi": 65,
      "hit": false,
      "t": 146250,
      "d": 659.375,
      "v": 113
    },
    {
      "midi": 62,
      "hit": false,
      "t": 146250,
      "d": 648.4375,
      "v": 96
    },
    {
      "midi": 65,
      "hit": false,
      "t": 146250,
      "d": 670.3125,
      "v": 89
    },
    {
      "midi": 57,
      "hit": false,
      "t": 146250,
      "d": 718.75,
      "v": 96
    },
    {
      "midi": 58,
      "hit": false,
      "t": 147000,
      "d": 2960.9375,
      "v": 120
    },
    {
      "midi": 61,
      "hit": false,
      "t": 147000,
      "d": 2964.0625,
      "v": 121
    },
    {
      "midi": 64,
      "hit": false,
      "t": 147000,
      "d": 2964.0625,
      "v": 118
    },
    {
      "midi": 55,
      "hit": false,
      "t": 147000,
      "d": 2975,
      "v": 107
    },
    {
      "midi": 61,
      "hit": false,
      "t": 147000,
      "d": 784.375,
      "v": 101
    },
    {
      "midi": 64,
      "hit": false,
      "t": 147000,
      "d": 784.375,
      "v": 85
    },
    {
      "midi": 58,
      "hit": false,
      "t": 147000,
      "d": 789.0625,
      "v": 106
    },
    {
      "midi": 65,
      "hit": false,
      "t": 150000,
      "d": 2167.1875,
      "v": 89
    },
    {
      "midi": 57,
      "hit": false,
      "t": 150000,
      "d": 2192.1875,
      "v": 92
    },
    {
      "midi": 62,
      "hit": false,
      "t": 150000,
      "d": 2200,
      "v": 93
    },
    {
      "midi": 38,
      "hit": false,
      "t": 150001.5625,
      "d": 193.75,
      "v": 123
    },
    {
      "midi": 38,
      "hit": false,
      "t": 150375,
      "d": 171.875,
      "v": 118
    },
    {
      "midi": 50,
      "hit": false,
      "t": 150562.5,
      "d": 159.375,
      "v": 112
    },
    {
      "midi": 38,
      "hit": false,
      "t": 150937.5,
      "d": 140.625,
      "v": 113
    },
    {
      "midi": 38,
      "hit": false,
      "t": 151312.5,
      "d": 187.5,
      "v": 119
    },
    {
      "midi": 50,
      "hit": false,
      "t": 151685.9375,
      "d": 157.8125,
      "v": 106
    },
    {
      "midi": 38,
      "hit": false,
      "t": 151875,
      "d": 93.75,
      "v": 102
    },
    {
      "midi": 38,
      "hit": false,
      "t": 152062.5,
      "d": 121.875,
      "v": 85
    },
    {
      "midi": 57,
      "hit": false,
      "t": 152250,
      "d": 675,
      "v": 92
    },
    {
      "midi": 65,
      "hit": false,
      "t": 152250,
      "d": 682.8125,
      "v": 85
    },
    {
      "midi": 62,
      "hit": false,
      "t": 152250,
      "d": 712.5,
      "v": 84
    },
    {
      "midi": 50,
      "hit": false,
      "t": 152250,
      "d": 109.375,
      "v": 113
    },
    {
      "midi": 50,
      "hit": false,
      "t": 152437.5,
      "d": 140.625,
      "v": 106
    },
    {
      "midi": 38,
      "hit": false,
      "t": 152814.0625,
      "d": 156.25,
      "v": 106
    },
    {
      "midi": 65,
      "hit": false,
      "t": 153000,
      "d": 2151.5625,
      "v": 92
    },
    {
      "midi": 60,
      "hit": false,
      "t": 153000,
      "d": 2164.0625,
      "v": 96
    },
    {
      "midi": 57,
      "hit": false,
      "t": 153000,
      "d": 2176.5625,
      "v": 93
    },
    {
      "midi": 36,
      "hit": false,
      "t": 153001.5625,
      "d": 131.25,
      "v": 113
    },
    {
      "midi": 36,
      "hit": false,
      "t": 153375,
      "d": 184.375,
      "v": 106
    },
    {
      "midi": 48,
      "hit": false,
      "t": 153562.5,
      "d": 126.5625,
      "v": 119
    },
    {
      "midi": 36,
      "hit": false,
      "t": 153937.5,
      "d": 162.5,
      "v": 119
    },
    {
      "midi": 36,
      "hit": false,
      "t": 154312.5,
      "d": 189.0625,
      "v": 118
    },
    {
      "midi": 48,
      "hit": false,
      "t": 154687.5,
      "d": 129.6875,
      "v": 113
    },
    {
      "midi": 36,
      "hit": false,
      "t": 154876.5625,
      "d": 98.4375,
      "v": 96
    },
    {
      "midi": 36,
      "hit": false,
      "t": 155064.0625,
      "d": 131.25,
      "v": 96
    },
    {
      "midi": 57,
      "hit": false,
      "t": 155250,
      "d": 665.625,
      "v": 97
    },
    {
      "midi": 60,
      "hit": false,
      "t": 155250,
      "d": 682.8125,
      "v": 96
    },
    {
      "midi": 65,
      "hit": false,
      "t": 155250,
      "d": 703.125,
      "v": 97
    },
    {
      "midi": 48,
      "hit": false,
      "t": 155251.5625,
      "d": 109.375,
      "v": 113
    },
    {
      "midi": 48,
      "hit": false,
      "t": 155439.0625,
      "d": 135.9375,
      "v": 119
    },
    {
      "midi": 36,
      "hit": false,
      "t": 155814.0625,
      "d": 164.0625,
      "v": 118
    },
    {
      "midi": 65,
      "hit": false,
      "t": 156000,
      "d": 2151.5625,
      "v": 77
    },
    {
      "midi": 62,
      "hit": false,
      "t": 156000,
      "d": 2167.1875,
      "v": 88
    },
    {
      "midi": 57,
      "hit": false,
      "t": 156000,
      "d": 2170.3125,
      "v": 93
    },
    {
      "midi": 34,
      "hit": false,
      "t": 156001.5625,
      "d": 134.375,
      "v": 122
    },
    {
      "midi": 34,
      "hit": false,
      "t": 156376.5625,
      "d": 20.3125,
      "v": 107
    },
    {
      "midi": 35,
      "hit": false,
      "t": 156376.5625,
      "d": 100,
      "v": 119
    },
    {
      "midi": 46,
      "hit": false,
      "t": 156564.0625,
      "d": 110.9375,
      "v": 100
    },
    {
      "midi": 34,
      "hit": false,
      "t": 156937.5,
      "d": 132.8125,
      "v": 122
    },
    {
      "midi": 34,
      "hit": false,
      "t": 157314.0625,
      "d": 173.4375,
      "v": 123
    },
    {
      "midi": 46,
      "hit": false,
      "t": 157687.5,
      "d": 120.3125,
      "v": 106
    },
    {
      "midi": 34,
      "hit": false,
      "t": 157875,
      "d": 104.6875,
      "v": 107
    },
    {
      "midi": 34,
      "hit": false,
      "t": 158062.5,
      "d": 125,
      "v": 107
    },
    {
      "midi": 65,
      "hit": false,
      "t": 158250,
      "d": 685.9375,
      "v": 81
    },
    {
      "midi": 57,
      "hit": false,
      "t": 158250,
      "d": 689.0625,
      "v": 92
    },
    {
      "midi": 62,
      "hit": false,
      "t": 158250,
      "d": 706.25,
      "v": 84
    },
    {
      "midi": 46,
      "hit": false,
      "t": 158250,
      "d": 114.0625,
      "v": 106
    },
    {
      "midi": 46,
      "hit": false,
      "t": 158437.5,
      "d": 115.625,
      "v": 95
    },
    {
      "midi": 34,
      "hit": false,
      "t": 158812.5,
      "d": 157.8125,
      "v": 122
    },
    {
      "midi": 60,
      "hit": false,
      "t": 159000,
      "d": 1378.125,
      "v": 96
    },
    {
      "midi": 55,
      "hit": false,
      "t": 159000,
      "d": 1382.8125,
      "v": 81
    },
    {
      "midi": 64,
      "hit": false,
      "t": 159000,
      "d": 1387.5,
      "v": 88
    },
    {
      "midi": 33,
      "hit": false,
      "t": 159000,
      "d": 154.6875,
      "v": 118
    },
    {
      "midi": 33,
      "hit": false,
      "t": 159375,
      "d": 137.5,
      "v": 113
    },
    {
      "midi": 45,
      "hit": false,
      "t": 159562.5,
      "d": 114.0625,
      "v": 113
    },
    {
      "midi": 33,
      "hit": false,
      "t": 159937.5,
      "d": 135.9375,
      "v": 118
    },
    {
      "midi": 33,
      "hit": false,
      "t": 160314.0625,
      "d": 131.25,
      "v": 118
    },
    {
      "midi": 55,
      "hit": false,
      "t": 160498.4375,
      "d": 1446.875,
      "v": 71
    },
    {
      "midi": 58,
      "hit": false,
      "t": 160498.4375,
      "d": 1450,
      "v": 95
    },
    {
      "midi": 61,
      "hit": false,
      "t": 160500,
      "d": 1440.625,
      "v": 94
    },
    {
      "midi": 64,
      "hit": false,
      "t": 160500,
      "d": 1440.625,
      "v": 76
    },
    {
      "midi": 45,
      "hit": false,
      "t": 160687.5,
      "d": 117.1875,
      "v": 103
    },
    {
      "midi": 33,
      "hit": false,
      "t": 160876.5625,
      "d": 103.125,
      "v": 119
    },
    {
      "midi": 33,
      "hit": false,
      "t": 161064.0625,
      "d": 76.5625,
      "v": 106
    },
    {
      "midi": 50,
      "hit": false,
      "t": 161250,
      "d": 150,
      "v": 122
    },
    {
      "midi": 48,
      "hit": false,
      "t": 161437.5,
      "d": 115.625,
      "v": 113
    },
    {
      "midi": 43,
      "hit": false,
      "t": 161625,
      "d": 187.5,
      "v": 92
    },
    {
      "midi": 38,
      "hit": false,
      "t": 161812.5,
      "d": 114.0625,
      "v": 113
    },
    {
      "midi": 65,
      "hit": false,
      "t": 162000,
      "d": 2179.6875,
      "v": 81
    },
    {
      "midi": 57,
      "hit": false,
      "t": 162000,
      "d": 2182.8125,
      "v": 85
    },
    {
      "midi": 62,
      "hit": false,
      "t": 162000,
      "d": 2187.5,
      "v": 84
    },
    {
      "midi": 38,
      "hit": false,
      "t": 162001.5625,
      "d": 193.75,
      "v": 123
    },
    {
      "midi": 38,
      "hit": false,
      "t": 162375,
      "d": 171.875,
      "v": 118
    },
    {
      "midi": 50,
      "hit": false,
      "t": 162562.5,
      "d": 159.375,
      "v": 113
    },
    {
      "midi": 38,
      "hit": false,
      "t": 162937.5,
      "d": 140.625,
      "v": 112
    },
    {
      "midi": 38,
      "hit": false,
      "t": 163312.5,
      "d": 187.5,
      "v": 118
    },
    {
      "midi": 50,
      "hit": false,
      "t": 163685.9375,
      "d": 157.8125,
      "v": 107
    },
    {
      "midi": 38,
      "hit": false,
      "t": 163875,
      "d": 93.75,
      "v": 103
    },
    {
      "midi": 38,
      "hit": false,
      "t": 164062.5,
      "d": 121.875,
      "v": 84
    },
    {
      "midi": 65,
      "hit": false,
      "t": 164250,
      "d": 643.75,
      "v": 93
    },
    {
      "midi": 57,
      "hit": false,
      "t": 164250,
      "d": 648.4375,
      "v": 89
    },
    {
      "midi": 62,
      "hit": false,
      "t": 164250,
      "d": 650,
      "v": 92
    },
    {
      "midi": 50,
      "hit": false,
      "t": 164250,
      "d": 109.375,
      "v": 112
    },
    {
      "midi": 50,
      "hit": false,
      "t": 164437.5,
      "d": 140.625,
      "v": 107
    },
    {
      "midi": 38,
      "hit": false,
      "t": 164814.0625,
      "d": 156.25,
      "v": 107
    },
    {
      "midi": 65,
      "hit": false,
      "t": 165000,
      "d": 2167.1875,
      "v": 77
    },
    {
      "midi": 57,
      "hit": false,
      "t": 165000,
      "d": 2187.5,
      "v": 88
    },
    {
      "midi": 60,
      "hit": false,
      "t": 165000,
      "d": 2187.5,
      "v": 88
    },
    {
      "midi": 36,
      "hit": false,
      "t": 165001.5625,
      "d": 131.25,
      "v": 112
    },
    {
      "midi": 36,
      "hit": false,
      "t": 165375,
      "d": 184.375,
      "v": 106
    },
    {
      "midi": 48,
      "hit": false,
      "t": 165562.5,
      "d": 126.5625,
      "v": 119
    },
    {
      "midi": 36,
      "hit": false,
      "t": 165937.5,
      "d": 162.5,
      "v": 118
    },
    {
      "midi": 36,
      "hit": false,
      "t": 166312.5,
      "d": 189.0625,
      "v": 119
    },
    {
      "midi": 48,
      "hit": false,
      "t": 166687.5,
      "d": 129.6875,
      "v": 113
    },
    {
      "midi": 36,
      "hit": false,
      "t": 166876.5625,
      "d": 98.4375,
      "v": 96
    },
    {
      "midi": 36,
      "hit": false,
      "t": 167064.0625,
      "d": 131.25,
      "v": 97
    },
    {
      "midi": 57,
      "hit": false,
      "t": 167250,
      "d": 664.0625,
      "v": 103
    },
    {
      "midi": 60,
      "hit": false,
      "t": 167250,
      "d": 668.75,
      "v": 96
    },
    {
      "midi": 65,
      "hit": false,
      "t": 167250,
      "d": 682.8125,
      "v": 96
    },
    {
      "midi": 48,
      "hit": false,
      "t": 167251.5625,
      "d": 109.375,
      "v": 112
    },
    {
      "midi": 48,
      "hit": false,
      "t": 167439.0625,
      "d": 135.9375,
      "v": 118
    },
    {
      "midi": 36,
      "hit": false,
      "t": 167814.0625,
      "d": 164.0625,
      "v": 119
    },
    {
      "midi": 65,
      "hit": false,
      "t": 168000,
      "d": 2148.4375,
      "v": 80
    },
    {
      "midi": 57,
      "hit": false,
      "t": 168000,
      "d": 2154.6875,
      "v": 81
    },
    {
      "midi": 62,
      "hit": false,
      "t": 168000,
      "d": 2167.1875,
      "v": 89
    },
    {
      "midi": 34,
      "hit": false,
      "t": 168001.5625,
      "d": 134.375,
      "v": 123
    },
    {
      "midi": 34,
      "hit": false,
      "t": 168376.5625,
      "d": 20.3125,
      "v": 106
    },
    {
      "midi": 35,
      "hit": false,
      "t": 168376.5625,
      "d": 100,
      "v": 118
    },
    {
      "midi": 46,
      "hit": false,
      "t": 168564.0625,
      "d": 110.9375,
      "v": 101
    },
    {
      "midi": 34,
      "hit": false,
      "t": 168937.5,
      "d": 132.8125,
      "v": 123
    },
    {
      "midi": 34,
      "hit": false,
      "t": 169314.0625,
      "d": 173.4375,
      "v": 122
    },
    {
      "midi": 46,
      "hit": false,
      "t": 169687.5,
      "d": 120.3125,
      "v": 106
    },
    {
      "midi": 34,
      "hit": false,
      "t": 169875,
      "d": 104.6875,
      "v": 107
    },
    {
      "midi": 34,
      "hit": false,
      "t": 170062.5,
      "d": 125,
      "v": 106
    },
    {
      "midi": 65,
      "hit": false,
      "t": 170250,
      "d": 667.1875,
      "v": 96
    },
    {
      "midi": 57,
      "hit": false,
      "t": 170250,
      "d": 685.9375,
      "v": 102
    },
    {
      "midi": 62,
      "hit": false,
      "t": 170250,
      "d": 695.3125,
      "v": 89
    },
    {
      "midi": 46,
      "hit": false,
      "t": 170250,
      "d": 114.0625,
      "v": 107
    },
    {
      "midi": 46,
      "hit": false,
      "t": 170437.5,
      "d": 115.625,
      "v": 95
    },
    {
      "midi": 34,
      "hit": false,
      "t": 170812.5,
      "d": 157.8125,
      "v": 122
    },
    {
      "midi": 60,
      "hit": false,
      "t": 171000,
      "d": 1362.5,
      "v": 103
    },
    {
      "midi": 64,
      "hit": false,
      "t": 171000,
      "d": 1392.1875,
      "v": 92
    },
    {
      "midi": 55,
      "hit": false,
      "t": 171000,
      "d": 1400,
      "v": 65
    },
    {
      "midi": 33,
      "hit": false,
      "t": 171000,
      "d": 154.6875,
      "v": 119
    },
    {
      "midi": 33,
      "hit": false,
      "t": 171375,
      "d": 137.5,
      "v": 112
    },
    {
      "midi": 45,
      "hit": false,
      "t": 171562.5,
      "d": 114.0625,
      "v": 112
    },
    {
      "midi": 33,
      "hit": false,
      "t": 171937.5,
      "d": 135.9375,
      "v": 119
    },
    {
      "midi": 33,
      "hit": false,
      "t": 172314.0625,
      "d": 131.25,
      "v": 119
    },
    {
      "midi": 58,
      "hit": false,
      "t": 172498.4375,
      "d": 1498.4375,
      "v": 100
    },
    {
      "midi": 61,
      "hit": false,
      "t": 172498.4375,
      "d": 1498.4375,
      "v": 100
    },
    {
      "midi": 55,
      "hit": false,
      "t": 172498.4375,
      "d": 1509.375,
      "v": 71
    },
    {
      "midi": 45,
      "hit": false,
      "t": 172687.5,
      "d": 117.1875,
      "v": 102
    },
    {
      "midi": 33,
      "hit": false,
      "t": 172876.5625,
      "d": 103.125,
      "v": 118
    },
    {
      "midi": 33,
      "hit": false,
      "t": 173064.0625,
      "d": 76.5625,
      "v": 107
    },
    {
      "midi": 50,
      "hit": false,
      "t": 173250,
      "d": 150,
      "v": 123
    },
    {
      "midi": 48,
      "hit": false,
      "t": 173437.5,
      "d": 115.625,
      "v": 112
    },
    {
      "midi": 43,
      "hit": false,
      "t": 173625,
      "d": 187.5,
      "v": 92
    },
    {
      "midi": 38,
      "hit": false,
      "t": 173812.5,
      "d": 114.0625,
      "v": 113
    },
    {
      "midi": 64,
      "hit": false,
      "t": 174000,
      "d": 1.5625,
      "v": 85
    },
    {
      "midi": 53,
      "hit": false,
      "t": 174000,
      "d": 2146.875,
      "v": 103
    },
    {
      "midi": 60,
      "hit": false,
      "t": 174000,
      "d": 2150,
      "v": 118
    },
    {
      "midi": 57,
      "hit": false,
      "t": 174000,
      "d": 2154.6875,
      "v": 112
    },
    {
      "midi": 53,
      "hit": false,
      "t": 176250,
      "d": 689.0625,
      "v": 107
    },
    {
      "midi": 64,
      "hit": false,
      "t": 176250,
      "d": 689.0625,
      "v": 107
    },
    {
      "midi": 60,
      "hit": false,
      "t": 176250,
      "d": 692.1875,
      "v": 118
    },
    {
      "midi": 57,
      "hit": false,
      "t": 176250,
      "d": 698.4375,
      "v": 112
    },
    {
      "midi": 57,
      "hit": false,
      "t": 176250,
      "d": 675,
      "v": 102
    },
    {
      "midi": 64,
      "hit": false,
      "t": 176250,
      "d": 679.6875,
      "v": 92
    },
    {
      "midi": 60,
      "hit": false,
      "t": 176250,
      "d": 692.1875,
      "v": 93
    },
    {
      "midi": 55,
      "hit": false,
      "t": 176998.4375,
      "d": 2179.6875,
      "v": 78
    },
    {
      "midi": 60,
      "hit": false,
      "t": 176998.4375,
      "d": 2200,
      "v": 93
    },
    {
      "midi": 64,
      "hit": false,
      "t": 177000,
      "d": 2121.875,
      "v": 103
    },
    {
      "midi": 60,
      "hit": false,
      "t": 177000,
      "d": 2128.125,
      "v": 119
    },
    {
      "midi": 55,
      "hit": false,
      "t": 177000,
      "d": 2134.375,
      "v": 112
    },
    {
      "midi": 64,
      "hit": false,
      "t": 177000,
      "d": 2189.0625,
      "v": 93
    },
    {
      "midi": 64,
      "hit": false,
      "t": 179250,
      "d": 643.75,
      "v": 102
    },
    {
      "midi": 55,
      "hit": false,
      "t": 179250,
      "d": 653.125,
      "v": 102
    },
    {
      "midi": 60,
      "hit": false,
      "t": 179250,
      "d": 659.375,
      "v": 119
    },
    {
      "midi": 64,
      "hit": false,
      "t": 179250,
      "d": 670.3125,
      "v": 87
    },
    {
      "midi": 55,
      "hit": false,
      "t": 179250,
      "d": 682.8125,
      "v": 86
    },
    {
      "midi": 60,
      "hit": false,
      "t": 179250,
      "d": 682.8125,
      "v": 92
    },
    {
      "midi": 53,
      "hit": false,
      "t": 180000,
      "d": 2159.375,
      "v": 102
    },
    {
      "midi": 64,
      "hit": false,
      "t": 180000,
      "d": 2167.1875,
      "v": 92
    },
    {
      "midi": 60,
      "hit": false,
      "t": 180000,
      "d": 2178.125,
      "v": 113
    },
    {
      "midi": 57,
      "hit": false,
      "t": 180000,
      "d": 2181.25,
      "v": 107
    },
    {
      "midi": 64,
      "hit": false,
      "t": 180000,
      "d": 2164.0625,
      "v": 98
    },
    {
      "midi": 60,
      "hit": false,
      "t": 180000,
      "d": 2189.0625,
      "v": 86
    },
    {
      "midi": 57,
      "hit": false,
      "t": 180000,
      "d": 2190.625,
      "v": 99
    },
    {
      "midi": 64,
      "hit": false,
      "t": 182250,
      "d": 645.3125,
      "v": 102
    },
    {
      "midi": 60,
      "hit": false,
      "t": 182250,
      "d": 654.6875,
      "v": 113
    },
    {
      "midi": 53,
      "hit": false,
      "t": 182250,
      "d": 659.375,
      "v": 102
    },
    {
      "midi": 57,
      "hit": false,
      "t": 182250,
      "d": 660.9375,
      "v": 113
    },
    {
      "midi": 57,
      "hit": false,
      "t": 182250,
      "d": 684.375,
      "v": 103
    },
    {
      "midi": 64,
      "hit": false,
      "t": 182250,
      "d": 690.625,
      "v": 93
    },
    {
      "midi": 60,
      "hit": false,
      "t": 182250,
      "d": 698.4375,
      "v": 92
    },
    {
      "midi": 64,
      "hit": false,
      "t": 183000,
      "d": 1370.3125,
      "v": 84
    },
    {
      "midi": 60,
      "hit": false,
      "t": 183000,
      "d": 1375,
      "v": 107
    },
    {
      "midi": 55,
      "hit": false,
      "t": 183000,
      "d": 1384.375,
      "v": 106
    },
    {
      "midi": 60,
      "hit": false,
      "t": 183000,
      "d": 1409.375,
      "v": 86
    },
    {
      "midi": 55,
      "hit": false,
      "t": 183000,
      "d": 1421.875,
      "v": 87
    },
    {
      "midi": 64,
      "hit": false,
      "t": 183000,
      "d": 1428.125,
      "v": 93
    },
    {
      "midi": 55,
      "hit": false,
      "t": 184498.4375,
      "d": 1446.875,
      "v": 113
    },
    {
      "midi": 61,
      "hit": false,
      "t": 184498.4375,
      "d": 1450,
      "v": 120
    },
    {
      "midi": 58,
      "hit": false,
      "t": 184498.4375,
      "d": 1457.8125,
      "v": 113
    },
    {
      "midi": 55,
      "hit": false,
      "t": 184498.4375,
      "d": 1439.0625,
      "v": 78
    },
    {
      "midi": 64,
      "hit": false,
      "t": 184498.4375,
      "d": 1440.625,
      "v": 82
    },
    {
      "midi": 64,
      "hit": false,
      "t": 184500,
      "d": 1450,
      "v": 103
    },
    {
      "midi": 61,
      "hit": false,
      "t": 184500,
      "d": 1432.8125,
      "v": 99
    },
    {
      "midi": 58,
      "hit": false,
      "t": 184500,
      "d": 1439.0625,
      "v": 105
    },
    {
      "midi": 64,
      "hit": false,
      "t": 186000,
      "d": 2131.25,
      "v": 93
    },
    {
      "midi": 57,
      "hit": false,
      "t": 186000,
      "d": 2139.0625,
      "v": 98
    },
    {
      "midi": 60,
      "hit": false,
      "t": 186000,
      "d": 2148.4375,
      "v": 82
    },
    {
      "midi": 60,
      "hit": false,
      "t": 186001.5625,
      "d": 2125,
      "v": 119
    },
    {
      "midi": 53,
      "hit": false,
      "t": 186001.5625,
      "d": 2126.5625,
      "v": 112
    },
    {
      "midi": 64,
      "hit": false,
      "t": 186001.5625,
      "d": 2128.125,
      "v": 107
    },
    {
      "midi": 57,
      "hit": false,
      "t": 186001.5625,
      "d": 2129.6875,
      "v": 118
    },
    {
      "midi": 53,
      "hit": false,
      "t": 188250,
      "d": 668.75,
      "v": 106
    },
    {
      "midi": 64,
      "hit": false,
      "t": 188250,
      "d": 668.75,
      "v": 103
    },
    {
      "midi": 60,
      "hit": false,
      "t": 188250,
      "d": 676.5625,
      "v": 119
    },
    {
      "midi": 57,
      "hit": false,
      "t": 188250,
      "d": 679.6875,
      "v": 118
    },
    {
      "midi": 57,
      "hit": false,
      "t": 188250,
      "d": 698.4375,
      "v": 103
    },
    {
      "midi": 64,
      "hit": false,
      "t": 188250,
      "d": 701.5625,
      "v": 92
    },
    {
      "midi": 60,
      "hit": false,
      "t": 188250,
      "d": 707.8125,
      "v": 98
    },
    {
      "midi": 64,
      "hit": false,
      "t": 189000,
      "d": 2146.875,
      "v": 103
    },
    {
      "midi": 60,
      "hit": false,
      "t": 189000,
      "d": 2170.3125,
      "v": 112
    },
    {
      "midi": 55,
      "hit": false,
      "t": 189000,
      "d": 2171.875,
      "v": 106
    },
    {
      "midi": 55,
      "hit": false,
      "t": 189000,
      "d": 2143.75,
      "v": 83
    },
    {
      "midi": 64,
      "hit": false,
      "t": 189000,
      "d": 2143.75,
      "v": 93
    },
    {
      "midi": 60,
      "hit": false,
      "t": 189000,
      "d": 2160.9375,
      "v": 92
    },
    {
      "midi": 64,
      "hit": false,
      "t": 191250,
      "d": 673.4375,
      "v": 93
    },
    {
      "midi": 55,
      "hit": false,
      "t": 191250,
      "d": 681.25,
      "v": 106
    },
    {
      "midi": 60,
      "hit": false,
      "t": 191250,
      "d": 681.25,
      "v": 107
    },
    {
      "midi": 64,
      "hit": false,
      "t": 191250,
      "d": 698.4375,
      "v": 103
    },
    {
      "midi": 60,
      "hit": false,
      "t": 191250,
      "d": 710.9375,
      "v": 108
    },
    {
      "midi": 55,
      "hit": false,
      "t": 191250,
      "d": 717.1875,
      "v": 87
    },
    {
      "midi": 64,
      "hit": false,
      "t": 192000,
      "d": 2142.1875,
      "v": 96
    },
    {
      "midi": 60,
      "hit": false,
      "t": 192000,
      "d": 2150,
      "v": 112
    },
    {
      "midi": 57,
      "hit": false,
      "t": 192000,
      "d": 2157.8125,
      "v": 107
    },
    {
      "midi": 53,
      "hit": false,
      "t": 192000,
      "d": 2162.5,
      "v": 92
    },
    {
      "midi": 64,
      "hit": false,
      "t": 192000,
      "d": 2154.6875,
      "v": 99
    },
    {
      "midi": 57,
      "hit": false,
      "t": 192000,
      "d": 2160.9375,
      "v": 98
    },
    {
      "midi": 60,
      "hit": false,
      "t": 192000,
      "d": 2168.75,
      "v": 82
    },
    {
      "midi": 53,
      "hit": false,
      "t": 194250,
      "d": 668.75,
      "v": 113
    },
    {
      "midi": 64,
      "hit": false,
      "t": 194250,
      "d": 671.875,
      "v": 96
    },
    {
      "midi": 60,
      "hit": false,
      "t": 194250,
      "d": 676.5625,
      "v": 118
    },
    {
      "midi": 57,
      "hit": false,
      "t": 194250,
      "d": 679.6875,
      "v": 119
    },
    {
      "midi": 57,
      "hit": false,
      "t": 194250,
      "d": 689.0625,
      "v": 103
    },
    {
      "midi": 64,
      "hit": false,
      "t": 194250,
      "d": 692.1875,
      "v": 92
    },
    {
      "midi": 60,
      "hit": false,
      "t": 194250,
      "d": 704.6875,
      "v": 92
    },
    {
      "midi": 60,
      "hit": false,
      "t": 195000,
      "d": 1389.0625,
      "v": 113
    },
    {
      "midi": 64,
      "hit": false,
      "t": 195000,
      "d": 1396.875,
      "v": 96
    },
    {
      "midi": 55,
      "hit": false,
      "t": 195000,
      "d": 1401.5625,
      "v": 107
    },
    {
      "midi": 55,
      "hit": false,
      "t": 195000,
      "d": 1401.5625,
      "v": 87
    },
    {
      "midi": 60,
      "hit": false,
      "t": 195000,
      "d": 1403.125,
      "v": 93
    },
    {
      "midi": 64,
      "hit": false,
      "t": 195000,
      "d": 1409.375,
      "v": 98
    },
    {
      "midi": 58,
      "hit": false,
      "t": 196500,
      "d": 1475,
      "v": 113
    },
    {
      "midi": 61,
      "hit": false,
      "t": 196500,
      "d": 1475,
      "v": 120
    },
    {
      "midi": 64,
      "hit": false,
      "t": 196500,
      "d": 1476.5625,
      "v": 103
    },
    {
      "midi": 55,
      "hit": false,
      "t": 196500,
      "d": 1478.125,
      "v": 106
    },
    {
      "midi": 61,
      "hit": false,
      "t": 196500,
      "d": 1460.9375,
      "v": 98
    },
    {
      "midi": 58,
      "hit": false,
      "t": 196500,
      "d": 1462.5,
      "v": 99
    },
    {
      "midi": 64,
      "hit": false,
      "t": 196500,
      "d": 1468.75,
      "v": 87
    },
    {
      "midi": 55,
      "hit": false,
      "t": 196500,
      "d": 1473.4375,
      "v": 68
    },
    {
      "midi": 65,
      "hit": false,
      "t": 198000,
      "d": 2145.3125,
      "v": 119
    },
    {
      "midi": 57,
      "hit": false,
      "t": 198000,
      "d": 2154.6875,
      "v": 107
    },
    {
      "midi": 62,
      "hit": false,
      "t": 198000,
      "d": 2159.375,
      "v": 106
    },
    {
      "midi": 57,
      "hit": false,
      "t": 198000,
      "d": 2150,
      "v": 107
    },
    {
      "midi": 65,
      "hit": false,
      "t": 198000,
      "d": 2151.5625,
      "v": 119
    },
    {
      "midi": 62,
      "hit": false,
      "t": 198000,
      "d": 2159.375,
      "v": 112
    },
    {
      "midi": 57,
      "hit": false,
      "t": 200248.4375,
      "d": 642.1875,
      "v": 106
    },
    {
      "midi": 65,
      "hit": false,
      "t": 200248.4375,
      "d": 645.3125,
      "v": 107
    },
    {
      "midi": 62,
      "hit": false,
      "t": 200248.4375,
      "d": 685.9375,
      "v": 102
    },
    {
      "midi": 62,
      "hit": false,
      "t": 200250,
      "d": 682.8125,
      "v": 106
    },
    {
      "midi": 65,
      "hit": false,
      "t": 200250,
      "d": 685.9375,
      "v": 107
    },
    {
      "midi": 57,
      "hit": false,
      "t": 200250,
      "d": 687.5,
      "v": 106
    },
    {
      "midi": 62,
      "hit": false,
      "t": 200998.4375,
      "d": 2203.125,
      "v": 119
    },
    {
      "midi": 55,
      "hit": false,
      "t": 201000,
      "d": 2179.6875,
      "v": 102
    },
    {
      "midi": 65,
      "hit": false,
      "t": 201000,
      "d": 2185.9375,
      "v": 113
    },
    {
      "midi": 58,
      "hit": false,
      "t": 201000,
      "d": 2200,
      "v": 120
    },
    {
      "midi": 65,
      "hit": false,
      "t": 201000,
      "d": 2112.5,
      "v": 102
    },
    {
      "midi": 62,
      "hit": false,
      "t": 201000,
      "d": 2117.1875,
      "v": 102
    },
    {
      "midi": 58,
      "hit": false,
      "t": 201000,
      "d": 2134.375,
      "v": 121
    },
    {
      "midi": 65,
      "hit": false,
      "t": 203250,
      "d": 665.625,
      "v": 103
    },
    {
      "midi": 55,
      "hit": false,
      "t": 203250,
      "d": 668.75,
      "v": 103
    },
    {
      "midi": 58,
      "hit": false,
      "t": 203250,
      "d": 679.6875,
      "v": 112
    },
    {
      "midi": 62,
      "hit": false,
      "t": 203250,
      "d": 681.25,
      "v": 112
    },
    {
      "midi": 58,
      "hit": false,
      "t": 203250,
      "d": 687.5,
      "v": 113
    },
    {
      "midi": 65,
      "hit": false,
      "t": 203250,
      "d": 700,
      "v": 106
    },
    {
      "midi": 62,
      "hit": false,
      "t": 203250,
      "d": 710.9375,
      "v": 113
    },
    {
      "midi": 62,
      "hit": false,
      "t": 203998.4375,
      "d": 2185.9375,
      "v": 92
    },
    {
      "midi": 65,
      "hit": false,
      "t": 204000,
      "d": 2173.4375,
      "v": 107
    },
    {
      "midi": 57,
      "hit": false,
      "t": 204000,
      "d": 2182.8125,
      "v": 123
    },
    {
      "midi": 65,
      "hit": false,
      "t": 204000,
      "d": 2145.3125,
      "v": 96
    },
    {
      "midi": 57,
      "hit": false,
      "t": 204000,
      "d": 2146.875,
      "v": 106
    },
    {
      "midi": 62,
      "hit": false,
      "t": 204000,
      "d": 2154.6875,
      "v": 103
    },
    {
      "midi": 65,
      "hit": false,
      "t": 206250,
      "d": 651.5625,
      "v": 106
    },
    {
      "midi": 57,
      "hit": false,
      "t": 206250,
      "d": 654.6875,
      "v": 112
    },
    {
      "midi": 62,
      "hit": false,
      "t": 206250,
      "d": 682.8125,
      "v": 107
    },
    {
      "midi": 57,
      "hit": false,
      "t": 206250,
      "d": 673.4375,
      "v": 107
    },
    {
      "midi": 62,
      "hit": false,
      "t": 206250,
      "d": 681.25,
      "v": 107
    },
    {
      "midi": 65,
      "hit": false,
      "t": 206250,
      "d": 685.9375,
      "v": 112
    },
    {
      "midi": 55,
      "hit": false,
      "t": 207000,
      "d": 2157.8125,
      "v": 96
    },
    {
      "midi": 65,
      "hit": false,
      "t": 207000,
      "d": 2173.4375,
      "v": 102
    },
    {
      "midi": 58,
      "hit": false,
      "t": 207000,
      "d": 2193.75,
      "v": 107
    },
    {
      "midi": 62,
      "hit": false,
      "t": 207000,
      "d": 2195.3125,
      "v": 107
    },
    {
      "midi": 65,
      "hit": false,
      "t": 207000,
      "d": 2135.9375,
      "v": 92
    },
    {
      "midi": 62,
      "hit": false,
      "t": 207000,
      "d": 2143.75,
      "v": 102
    },
    {
      "midi": 58,
      "hit": false,
      "t": 207000,
      "d": 2153.125,
      "v": 113
    },
    {
      "midi": 65,
      "hit": false,
      "t": 209248.4375,
      "d": 657.8125,
      "v": 97
    },
    {
      "midi": 62,
      "hit": false,
      "t": 209248.4375,
      "d": 662.5,
      "v": 107
    },
    {
      "midi": 65,
      "hit": false,
      "t": 209250,
      "d": 664.0625,
      "v": 112
    },
    {
      "midi": 58,
      "hit": false,
      "t": 209250,
      "d": 685.9375,
      "v": 107
    },
    {
      "midi": 55,
      "hit": false,
      "t": 209250,
      "d": 689.0625,
      "v": 102
    },
    {
      "midi": 62,
      "hit": false,
      "t": 209250,
      "d": 689.0625,
      "v": 113
    },
    {
      "midi": 58,
      "hit": false,
      "t": 209250,
      "d": 643.75,
      "v": 112
    },
    {
      "midi": 57,
      "hit": false,
      "t": 209998.4375,
      "d": 2175,
      "v": 106
    },
    {
      "midi": 62,
      "hit": false,
      "t": 209998.4375,
      "d": 2200,
      "v": 107
    },
    {
      "midi": 65,
      "hit": false,
      "t": 209998.4375,
      "d": 2200,
      "v": 103
    },
    {
      "midi": 65,
      "hit": false,
      "t": 210000,
      "d": 2156.25,
      "v": 106
    },
    {
      "midi": 57,
      "hit": false,
      "t": 210000,
      "d": 2175,
      "v": 112
    },
    {
      "midi": 62,
      "hit": false,
      "t": 210000,
      "d": 2178.125,
      "v": 103
    },
    {
      "midi": 65,
      "hit": false,
      "t": 212250,
      "d": 675,
      "v": 118
    },
    {
      "midi": 57,
      "hit": false,
      "t": 212250,
      "d": 690.625,
      "v": 113
    },
    {
      "midi": 62,
      "hit": false,
      "t": 212250,
      "d": 707.8125,
      "v": 107
    },
    {
      "midi": 57,
      "hit": false,
      "t": 212250,
      "d": 648.4375,
      "v": 106
    },
    {
      "midi": 62,
      "hit": false,
      "t": 212250,
      "d": 659.375,
      "v": 118
    },
    {
      "midi": 65,
      "hit": false,
      "t": 212250,
      "d": 664.0625,
      "v": 103
    },
    {
      "midi": 65,
      "hit": false,
      "t": 213000,
      "d": 2146.875,
      "v": 103
    },
    {
      "midi": 55,
      "hit": false,
      "t": 213000,
      "d": 2157.8125,
      "v": 89
    },
    {
      "midi": 58,
      "hit": false,
      "t": 213000,
      "d": 2168.75,
      "v": 106
    },
    {
      "midi": 62,
      "hit": false,
      "t": 213000,
      "d": 2173.4375,
      "v": 96
    },
    {
      "midi": 65,
      "hit": false,
      "t": 213000,
      "d": 2121.875,
      "v": 89
    },
    {
      "midi": 62,
      "hit": false,
      "t": 213000,
      "d": 2142.1875,
      "v": 97
    },
    {
      "midi": 58,
      "hit": false,
      "t": 213000,
      "d": 2171.875,
      "v": 112
    },
    {
      "midi": 65,
      "hit": false,
      "t": 215250,
      "d": 667.1875,
      "v": 113
    },
    {
      "midi": 55,
      "hit": false,
      "t": 215250,
      "d": 676.5625,
      "v": 97
    },
    {
      "midi": 58,
      "hit": false,
      "t": 215250,
      "d": 684.375,
      "v": 112
    },
    {
      "midi": 62,
      "hit": false,
      "t": 215250,
      "d": 689.0625,
      "v": 112
    },
    {
      "midi": 65,
      "hit": false,
      "t": 215250,
      "d": 635.9375,
      "v": 118
    },
    {
      "midi": 58,
      "hit": false,
      "t": 215250,
      "d": 639.0625,
      "v": 112
    },
    {
      "midi": 62,
      "hit": false,
      "t": 215250,
      "d": 656.25,
      "v": 107
    },
    {
      "midi": 57,
      "hit": false,
      "t": 215998.4375,
      "d": 2228.125,
      "v": 106
    },
    {
      "midi": 62,
      "hit": false,
      "t": 215998.4375,
      "d": 2228.125,
      "v": 107
    },
    {
      "midi": 65,
      "hit": false,
      "t": 215998.4375,
      "d": 2228.125,
      "v": 107
    },
    {
      "midi": 65,
      "hit": false,
      "t": 216000,
      "d": 2189.0625,
      "v": 106
    },
    {
      "midi": 57,
      "hit": false,
      "t": 216000,
      "d": 2198.4375,
      "v": 107
    },
    {
      "midi": 62,
      "hit": false,
      "t": 216000,
      "d": 2206.25,
      "v": 96
    },
    {
      "midi": 62,
      "hit": false,
      "t": 218250,
      "d": 651.5625,
      "v": 102
    },
    {
      "midi": 57,
      "hit": false,
      "t": 218250,
      "d": 659.375,
      "v": 123
    },
    {
      "midi": 65,
      "hit": false,
      "t": 218250,
      "d": 659.375,
      "v": 113
    },
    {
      "midi": 62,
      "hit": false,
      "t": 218250,
      "d": 648.4375,
      "v": 96
    },
    {
      "midi": 65,
      "hit": false,
      "t": 218250,
      "d": 670.3125,
      "v": 89
    },
    {
      "midi": 57,
      "hit": false,
      "t": 218250,
      "d": 718.75,
      "v": 96
    },
    {
      "midi": 58,
      "hit": false,
      "t": 219000,
      "d": 2960.9375,
      "v": 120
    },
    {
      "midi": 61,
      "hit": false,
      "t": 219000,
      "d": 2964.0625,
      "v": 121
    },
    {
      "midi": 64,
      "hit": false,
      "t": 219000,
      "d": 2964.0625,
      "v": 118
    },
    {
      "midi": 55,
      "hit": false,
      "t": 219000,
      "d": 2975,
      "v": 107
    },
    {
      "midi": 61,
      "hit": false,
      "t": 219000,
      "d": 784.375,
      "v": 100
    },
    {
      "midi": 64,
      "hit": false,
      "t": 219000,
      "d": 784.375,
      "v": 84
    },
    {
      "midi": 58,
      "hit": false,
      "t": 219000,
      "d": 789.0625,
      "v": 107
    },
    {
      "midi": 67,
      "hit": false,
      "t": 219937.5,
      "d": 2062.5,
      "v": 89
    },
    {
      "midi": 70,
      "hit": false,
      "t": 220123.4375,
      "d": 1876.5625,
      "v": 78
    },
    {
      "midi": 73,
      "hit": false,
      "t": 220312.5,
      "d": 1687.5,
      "v": 89
    },
    {
      "midi": 76,
      "hit": false,
      "t": 220685.9375,
      "d": 1314.0625,
      "v": 71
    },
    {
      "midi": 65,
      "hit": false,
      "t": 222000,
      "d": 2145.3125,
      "v": 119
    },
    {
      "midi": 57,
      "hit": false,
      "t": 222000,
      "d": 2154.6875,
      "v": 106
    },
    {
      "midi": 62,
      "hit": false,
      "t": 222000,
      "d": 2159.375,
      "v": 107
    },
    {
      "midi": 57,
      "hit": false,
      "t": 222000,
      "d": 2150,
      "v": 106
    },
    {
      "midi": 65,
      "hit": false,
      "t": 222000,
      "d": 2151.5625,
      "v": 118
    },
    {
      "midi": 62,
      "hit": false,
      "t": 222000,
      "d": 2159.375,
      "v": 113
    },
    {
      "midi": 57,
      "hit": false,
      "t": 224248.4375,
      "d": 642.1875,
      "v": 106
    },
    {
      "midi": 65,
      "hit": false,
      "t": 224248.4375,
      "d": 645.3125,
      "v": 107
    },
    {
      "midi": 62,
      "hit": false,
      "t": 224248.4375,
      "d": 685.9375,
      "v": 102
    },
    {
      "midi": 62,
      "hit": false,
      "t": 224250,
      "d": 682.8125,
      "v": 107
    },
    {
      "midi": 65,
      "hit": false,
      "t": 224250,
      "d": 685.9375,
      "v": 107
    },
    {
      "midi": 57,
      "hit": false,
      "t": 224250,
      "d": 687.5,
      "v": 106
    },
    {
      "midi": 62,
      "hit": false,
      "t": 224998.4375,
      "d": 2203.125,
      "v": 119
    },
    {
      "midi": 55,
      "hit": false,
      "t": 225000,
      "d": 2179.6875,
      "v": 102
    },
    {
      "midi": 65,
      "hit": false,
      "t": 225000,
      "d": 2185.9375,
      "v": 113
    },
    {
      "midi": 58,
      "hit": false,
      "t": 225000,
      "d": 2200,
      "v": 120
    },
    {
      "midi": 65,
      "hit": false,
      "t": 225000,
      "d": 2112.5,
      "v": 103
    },
    {
      "midi": 62,
      "hit": false,
      "t": 225000,
      "d": 2117.1875,
      "v": 102
    },
    {
      "midi": 58,
      "hit": false,
      "t": 225000,
      "d": 2134.375,
      "v": 120
    },
    {
      "midi": 65,
      "hit": false,
      "t": 227250,
      "d": 665.625,
      "v": 102
    },
    {
      "midi": 55,
      "hit": false,
      "t": 227250,
      "d": 668.75,
      "v": 102
    },
    {
      "midi": 58,
      "hit": false,
      "t": 227250,
      "d": 679.6875,
      "v": 113
    },
    {
      "midi": 62,
      "hit": false,
      "t": 227250,
      "d": 681.25,
      "v": 113
    },
    {
      "midi": 58,
      "hit": false,
      "t": 227250,
      "d": 687.5,
      "v": 113
    },
    {
      "midi": 65,
      "hit": false,
      "t": 227250,
      "d": 700,
      "v": 106
    },
    {
      "midi": 62,
      "hit": false,
      "t": 227250,
      "d": 710.9375,
      "v": 112
    },
    {
      "midi": 62,
      "hit": false,
      "t": 227998.4375,
      "d": 2185.9375,
      "v": 93
    },
    {
      "midi": 65,
      "hit": false,
      "t": 228000,
      "d": 2173.4375,
      "v": 106
    },
    {
      "midi": 57,
      "hit": false,
      "t": 228000,
      "d": 2182.8125,
      "v": 122
    },
    {
      "midi": 65,
      "hit": false,
      "t": 228000,
      "d": 2145.3125,
      "v": 97
    },
    {
      "midi": 57,
      "hit": false,
      "t": 228000,
      "d": 2146.875,
      "v": 107
    },
    {
      "midi": 62,
      "hit": false,
      "t": 228000,
      "d": 2154.6875,
      "v": 102
    },
    {
      "midi": 65,
      "hit": false,
      "t": 230250,
      "d": 651.5625,
      "v": 106
    },
    {
      "midi": 57,
      "hit": false,
      "t": 230250,
      "d": 654.6875,
      "v": 113
    },
    {
      "midi": 62,
      "hit": false,
      "t": 230250,
      "d": 682.8125,
      "v": 107
    },
    {
      "midi": 57,
      "hit": false,
      "t": 230250,
      "d": 673.4375,
      "v": 107
    },
    {
      "midi": 62,
      "hit": false,
      "t": 230250,
      "d": 681.25,
      "v": 106
    },
    {
      "midi": 65,
      "hit": false,
      "t": 230250,
      "d": 685.9375,
      "v": 113
    },
    {
      "midi": 55,
      "hit": false,
      "t": 231000,
      "d": 2157.8125,
      "v": 96
    },
    {
      "midi": 65,
      "hit": false,
      "t": 231000,
      "d": 2173.4375,
      "v": 102
    },
    {
      "midi": 58,
      "hit": false,
      "t": 231000,
      "d": 2193.75,
      "v": 107
    },
    {
      "midi": 62,
      "hit": false,
      "t": 231000,
      "d": 2195.3125,
      "v": 107
    },
    {
      "midi": 65,
      "hit": false,
      "t": 231000,
      "d": 2135.9375,
      "v": 93
    },
    {
      "midi": 62,
      "hit": false,
      "t": 231000,
      "d": 2143.75,
      "v": 102
    },
    {
      "midi": 58,
      "hit": false,
      "t": 231000,
      "d": 2153.125,
      "v": 112
    },
    {
      "midi": 65,
      "hit": false,
      "t": 233248.4375,
      "d": 657.8125,
      "v": 96
    },
    {
      "midi": 62,
      "hit": false,
      "t": 233248.4375,
      "d": 662.5,
      "v": 107
    },
    {
      "midi": 65,
      "hit": false,
      "t": 233250,
      "d": 664.0625,
      "v": 113
    },
    {
      "midi": 58,
      "hit": false,
      "t": 233250,
      "d": 685.9375,
      "v": 107
    },
    {
      "midi": 55,
      "hit": false,
      "t": 233250,
      "d": 689.0625,
      "v": 102
    },
    {
      "midi": 62,
      "hit": false,
      "t": 233250,
      "d": 689.0625,
      "v": 112
    },
    {
      "midi": 58,
      "hit": false,
      "t": 233250,
      "d": 643.75,
      "v": 112
    },
    {
      "midi": 57,
      "hit": false,
      "t": 233998.4375,
      "d": 2175,
      "v": 107
    },
    {
      "midi": 62,
      "hit": false,
      "t": 233998.4375,
      "d": 2200,
      "v": 107
    },
    {
      "midi": 65,
      "hit": false,
      "t": 233998.4375,
      "d": 2200,
      "v": 102
    },
    {
      "midi": 65,
      "hit": false,
      "t": 234000,
      "d": 2156.25,
      "v": 107
    },
    {
      "midi": 57,
      "hit": false,
      "t": 234000,
      "d": 2175,
      "v": 113
    },
    {
      "midi": 62,
      "hit": false,
      "t": 234000,
      "d": 2178.125,
      "v": 102
    },
    {
      "midi": 65,
      "hit": false,
      "t": 236250,
      "d": 675,
      "v": 119
    },
    {
      "midi": 57,
      "hit": false,
      "t": 236250,
      "d": 690.625,
      "v": 112
    },
    {
      "midi": 62,
      "hit": false,
      "t": 236250,
      "d": 707.8125,
      "v": 106
    },
    {
      "midi": 57,
      "hit": false,
      "t": 236250,
      "d": 648.4375,
      "v": 106
    },
    {
      "midi": 62,
      "hit": false,
      "t": 236250,
      "d": 659.375,
      "v": 119
    },
    {
      "midi": 65,
      "hit": false,
      "t": 236250,
      "d": 664.0625,
      "v": 102
    },
    {
      "midi": 65,
      "hit": false,
      "t": 237000,
      "d": 2146.875,
      "v": 103
    },
    {
      "midi": 55,
      "hit": false,
      "t": 237000,
      "d": 2157.8125,
      "v": 89
    },
    {
      "midi": 58,
      "hit": false,
      "t": 237000,
      "d": 2168.75,
      "v": 106
    },
    {
      "midi": 62,
      "hit": false,
      "t": 237000,
      "d": 2173.4375,
      "v": 96
    },
    {
      "midi": 65,
      "hit": false,
      "t": 237000,
      "d": 2121.875,
      "v": 88
    },
    {
      "midi": 62,
      "hit": false,
      "t": 237000,
      "d": 2142.1875,
      "v": 97
    },
    {
      "midi": 58,
      "hit": false,
      "t": 237000,
      "d": 2171.875,
      "v": 113
    },
    {
      "midi": 65,
      "hit": false,
      "t": 239250,
      "d": 667.1875,
      "v": 113
    },
    {
      "midi": 55,
      "hit": false,
      "t": 239250,
      "d": 676.5625,
      "v": 97
    },
    {
      "midi": 58,
      "hit": false,
      "t": 239250,
      "d": 684.375,
      "v": 112
    },
    {
      "midi": 62,
      "hit": false,
      "t": 239250,
      "d": 689.0625,
      "v": 112
    },
    {
      "midi": 65,
      "hit": false,
      "t": 239250,
      "d": 635.9375,
      "v": 118
    },
    {
      "midi": 58,
      "hit": false,
      "t": 239250,
      "d": 639.0625,
      "v": 113
    },
    {
      "midi": 62,
      "hit": false,
      "t": 239250,
      "d": 656.25,
      "v": 106
    },
    {
      "midi": 57,
      "hit": false,
      "t": 239998.4375,
      "d": 2228.125,
      "v": 107
    },
    {
      "midi": 62,
      "hit": false,
      "t": 239998.4375,
      "d": 2228.125,
      "v": 107
    },
    {
      "midi": 65,
      "hit": false,
      "t": 239998.4375,
      "d": 2228.125,
      "v": 106
    },
    {
      "midi": 65,
      "hit": false,
      "t": 240000,
      "d": 2189.0625,
      "v": 107
    },
    {
      "midi": 57,
      "hit": false,
      "t": 240000,
      "d": 2198.4375,
      "v": 106
    },
    {
      "midi": 62,
      "hit": false,
      "t": 240000,
      "d": 2206.25,
      "v": 97
    },
    {
      "midi": 62,
      "hit": false,
      "t": 242250,
      "d": 651.5625,
      "v": 103
    },
    {
      "midi": 57,
      "hit": false,
      "t": 242250,
      "d": 659.375,
      "v": 122
    },
    {
      "midi": 65,
      "hit": false,
      "t": 242250,
      "d": 659.375,
      "v": 112
    },
    {
      "midi": 62,
      "hit": false,
      "t": 242250,
      "d": 648.4375,
      "v": 97
    },
    {
      "midi": 65,
      "hit": false,
      "t": 242250,
      "d": 670.3125,
      "v": 89
    },
    {
      "midi": 57,
      "hit": false,
      "t": 242250,
      "d": 718.75,
      "v": 96
    },
    {
      "midi": 55,
      "hit": false,
      "t": 243000,
      "d": 2812.5,
      "v": 106
    },
    {
      "midi": 58,
      "hit": false,
      "t": 243000,
      "d": 2812.5,
      "v": 121
    },
    {
      "midi": 61,
      "hit": false,
      "t": 243000,
      "d": 2812.5,
      "v": 121
    },
    {
      "midi": 64,
      "hit": false,
      "t": 243000,
      "d": 2812.5,
      "v": 118
    },
    {
      "midi": 61,
      "hit": false,
      "t": 243000,
      "d": 784.375,
      "v": 100
    },
    {
      "midi": 64,
      "hit": false,
      "t": 243000,
      "d": 784.375,
      "v": 85
    },
    {
      "midi": 58,
      "hit": false,
      "t": 243000,
      "d": 789.0625,
      "v": 106
    },
    {
      "midi": 67,
      "hit": false,
      "t": 243937.5,
      "d": 1875,
      "v": 88
    },
    {
      "midi": 70,
      "hit": false,
      "t": 244123.4375,
      "d": 1689.0625,
      "v": 79
    },
    {
      "midi": 73,
      "hit": false,
      "t": 244312.5,
      "d": 1500,
      "v": 89
    },
    {
      "midi": 76,
      "hit": false,
      "t": 244685.9375,
      "d": 1126.5625,
      "v": 70
    },
    {
      "midi": 57,
      "hit": false,
      "t": 246000,
      "d": 5968.75,
      "v": 119
    },
    {
      "midi": 53,
      "hit": false,
      "t": 246003.125,
      "d": 5965.625,
      "v": 106
    },
    {
      "midi": 60,
      "hit": false,
      "t": 246003.125,
      "d": 5965.625,
      "v": 118
    },
    {
      "midi": 64,
      "hit": false,
      "t": 246006.25,
      "d": 5962.5,
      "v": 113
    },
    {
      "midi": 64,
      "hit": false,
      "t": 246009.375,
      "d": 6234.375,
      "v": 88
    },
    {
      "midi": 60,
      "hit": false,
      "t": 246012.5,
      "d": 6239.0625,
      "v": 93
    },
    {
      "midi": 67,
      "hit": false,
      "t": 246018.75,
      "d": 6225,
      "v": 77
    },
    {
      "midi": 69,
      "hit": false,
      "t": 246921.875,
      "d": 5054.6875,
      "v": 39
    },
    {
      "midi": 72,
      "hit": false,
      "t": 247320.3125,
      "d": 4656.25,
      "v": 66
    },
    {
      "midi": 74,
      "hit": false,
      "t": 247679.6875,
      "d": 4296.875,
      "v": 60
    },
    {
      "midi": 79,
      "hit": false,
      "t": 248250,
      "d": 3726.5625,
      "v": 35
    },
    {
      "midi": 83,
      "hit": false,
      "t": 248812.5,
      "d": 3164.0625,
      "v": 65
    }
  ]
}