{
  "jsonPath": "Rock/Danspunk/Christina Lindberg/ej-forsta.json",
  "path": "Rock\\Danspunk\\Christina Lindberg\\Ej förstå.mid",
  "name": "Ej förstå",
  "difficulty": "Advanced",
  "bpm": 109.00172586065946,
  "notes": [
    {
      "midi": 71,
      "hit": false,
      "t": 8256.75,
      "d": 538.9822916666672,
      "v": 95
    },
    {
      "midi": 62,
      "hit": false,
      "t": 8256.75,
      "d": 544.7161458333339,
      "v": 66
    },
    {
      "midi": 50,
      "hit": false,
      "t": 8807.2,
      "d": 1095.1661458333347,
      "v": 47
    },
    {
      "midi": 69,
      "hit": false,
      "t": 8807.2,
      "d": 1616.9468750000015,
      "v": 102
    },
    {
      "midi": 60,
      "hit": false,
      "t": 8807.2,
      "d": 1622.6807291666682,
      "v": 63
    },
    {
      "midi": 54,
      "hit": false,
      "t": 9357.650000000001,
      "d": 544.7161458333339,
      "v": 34
    },
    {
      "midi": 57,
      "hit": false,
      "t": 9357.650000000001,
      "d": 544.7161458333339,
      "v": 47
    },
    {
      "midi": 45,
      "hit": false,
      "t": 9908.100000000002,
      "d": 1095.1661458333347,
      "v": 53
    },
    {
      "midi": 54,
      "hit": false,
      "t": 10458.550000000003,
      "d": 544.7161458333339,
      "v": 29
    },
    {
      "midi": 57,
      "hit": false,
      "t": 10458.550000000003,
      "d": 544.7161458333339,
      "v": 51
    },
    {
      "midi": 71,
      "hit": false,
      "t": 10458.550000000003,
      "d": 544.7161458333339,
      "v": 103
    },
    {
      "midi": 62,
      "hit": false,
      "t": 10458.550000000003,
      "d": 550.4500000000007,
      "v": 66
    },
    {
      "midi": 64,
      "hit": false,
      "t": 11009.000000000004,
      "d": 470.1760416666675,
      "v": 65
    },
    {
      "midi": 72,
      "hit": false,
      "t": 11009.000000000004,
      "d": 544.7161458333339,
      "v": 108
    },
    {
      "midi": 50,
      "hit": false,
      "t": 11009.000000000004,
      "d": 1095.1661458333347,
      "v": 52
    },
    {
      "midi": 54,
      "hit": false,
      "t": 11559.450000000004,
      "d": 544.7161458333339,
      "v": 32
    },
    {
      "midi": 57,
      "hit": false,
      "t": 11559.450000000004,
      "d": 544.7161458333339,
      "v": 56
    },
    {
      "midi": 64,
      "hit": false,
      "t": 11559.450000000004,
      "d": 544.7161458333339,
      "v": 68
    },
    {
      "midi": 66,
      "hit": false,
      "t": 11559.450000000004,
      "d": 544.7161458333339,
      "v": 92
    },
    {
      "midi": 62,
      "hit": false,
      "t": 12109.900000000005,
      "d": 544.7161458333339,
      "v": 62
    },
    {
      "midi": 71,
      "hit": false,
      "t": 12109.900000000005,
      "d": 544.7161458333339,
      "v": 98
    },
    {
      "midi": 42,
      "hit": false,
      "t": 12109.900000000005,
      "d": 1095.1661458333347,
      "v": 47
    },
    {
      "midi": 48,
      "hit": false,
      "t": 12660.350000000006,
      "d": 544.7161458333339,
      "v": 50
    },
    {
      "midi": 50,
      "hit": false,
      "t": 12660.350000000006,
      "d": 544.7161458333339,
      "v": 58
    },
    {
      "midi": 60,
      "hit": false,
      "t": 12660.350000000006,
      "d": 544.7161458333339,
      "v": 64
    },
    {
      "midi": 69,
      "hit": false,
      "t": 12660.350000000006,
      "d": 544.7161458333339,
      "v": 90
    },
    {
      "midi": 43,
      "hit": false,
      "t": 13210.800000000007,
      "d": 1095.1661458333347,
      "v": 49
    },
    {
      "midi": 59,
      "hit": false,
      "t": 13210.800000000007,
      "d": 2196.066145833336,
      "v": 63
    },
    {
      "midi": 67,
      "hit": false,
      "t": 13210.800000000007,
      "d": 2196.066145833336,
      "v": 98
    },
    {
      "midi": 47,
      "hit": false,
      "t": 13761.250000000007,
      "d": 544.7161458333339,
      "v": 40
    },
    {
      "midi": 50,
      "hit": false,
      "t": 13761.250000000007,
      "d": 544.7161458333339,
      "v": 50
    },
    {
      "midi": 42,
      "hit": false,
      "t": 14311.700000000008,
      "d": 544.7161458333339,
      "v": 40
    },
    {
      "midi": 40,
      "hit": false,
      "t": 14862.150000000009,
      "d": 544.7161458333339,
      "v": 44
    },
    {
      "midi": 60,
      "hit": false,
      "t": 15412.60000000001,
      "d": 544.7161458333339,
      "v": 36
    },
    {
      "midi": 62,
      "hit": false,
      "t": 15412.60000000001,
      "d": 544.7161458333339,
      "v": 37
    },
    {
      "midi": 66,
      "hit": false,
      "t": 15412.60000000001,
      "d": 544.7161458333339,
      "v": 39
    },
    {
      "midi": 38,
      "hit": false,
      "t": 15412.60000000001,
      "d": 2196.066145833327,
      "v": 46
    },
    {
      "midi": 50,
      "hit": false,
      "t": 15412.60000000001,
      "d": 2196.066145833327,
      "v": 54
    },
    {
      "midi": 62,
      "hit": false,
      "t": 15963.05000000001,
      "d": 544.7161458333321,
      "v": 105
    },
    {
      "midi": 59,
      "hit": false,
      "t": 16513.500000000007,
      "d": 544.7161458333321,
      "v": 57
    },
    {
      "midi": 67,
      "hit": false,
      "t": 16513.500000000007,
      "d": 544.7161458333321,
      "v": 97
    },
    {
      "midi": 62,
      "hit": false,
      "t": 17063.950000000004,
      "d": 544.7161458333321,
      "v": 60
    },
    {
      "midi": 69,
      "hit": false,
      "t": 17063.950000000004,
      "d": 544.7161458333321,
      "v": 98
    },
    {
      "midi": 43,
      "hit": false,
      "t": 17614.4,
      "d": 1095.1661458333328,
      "v": 68
    },
    {
      "midi": 62,
      "hit": false,
      "t": 17614.4,
      "d": 1611.2130208333328,
      "v": 72
    },
    {
      "midi": 71,
      "hit": false,
      "t": 17614.4,
      "d": 1611.2130208333328,
      "v": 100
    },
    {
      "midi": 47,
      "hit": false,
      "t": 18164.850000000002,
      "d": 544.7161458333321,
      "v": 67
    },
    {
      "midi": 50,
      "hit": false,
      "t": 18164.850000000002,
      "d": 544.7161458333321,
      "v": 75
    },
    {
      "midi": 38,
      "hit": false,
      "t": 18715.3,
      "d": 1095.1661458333328,
      "v": 63
    },
    {
      "midi": 47,
      "hit": false,
      "t": 19265.75,
      "d": 544.7161458333321,
      "v": 60
    },
    {
      "midi": 50,
      "hit": false,
      "t": 19265.75,
      "d": 544.7161458333321,
      "v": 60
    },
    {
      "midi": 67,
      "hit": false,
      "t": 19265.75,
      "d": 544.7161458333321,
      "v": 100
    },
    {
      "midi": 62,
      "hit": false,
      "t": 19265.75,
      "d": 888.7473958333321,
      "v": 81
    },
    {
      "midi": 66,
      "hit": false,
      "t": 19816.199999999997,
      "d": 338.29739583333503,
      "v": 100
    },
    {
      "midi": 45,
      "hit": false,
      "t": 19816.199999999997,
      "d": 1095.1661458333328,
      "v": 66
    },
    {
      "midi": 62,
      "hit": false,
      "t": 20160.231249999997,
      "d": 991.9567708333307,
      "v": 100
    },
    {
      "midi": 48,
      "hit": false,
      "t": 20366.649999999998,
      "d": 544.7161458333321,
      "v": 59
    },
    {
      "midi": 50,
      "hit": false,
      "t": 20366.649999999998,
      "d": 544.7161458333321,
      "v": 59
    },
    {
      "midi": 38,
      "hit": false,
      "t": 20917.099999999995,
      "d": 1095.1661458333292,
      "v": 68
    },
    {
      "midi": 60,
      "hit": false,
      "t": 21192.324999999993,
      "d": 407.10364583333285,
      "v": 66
    },
    {
      "midi": 66,
      "hit": false,
      "t": 21192.324999999993,
      "d": 407.10364583333285,
      "v": 100
    },
    {
      "midi": 48,
      "hit": false,
      "t": 21467.549999999992,
      "d": 544.7161458333321,
      "v": 66
    },
    {
      "midi": 50,
      "hit": false,
      "t": 21467.549999999992,
      "d": 544.7161458333321,
      "v": 66
    },
    {
      "midi": 60,
      "hit": false,
      "t": 21605.16249999999,
      "d": 372.7005208333321,
      "v": 84
    },
    {
      "midi": 69,
      "hit": false,
      "t": 21605.16249999999,
      "d": 372.7005208333321,
      "v": 100
    },
    {
      "midi": 43,
      "hit": false,
      "t": 22017.99999999999,
      "d": 1095.1661458333328,
      "v": 62
    },
    {
      "midi": 59,
      "hit": false,
      "t": 22017.99999999999,
      "d": 2660.5083333333278,
      "v": 71
    },
    {
      "midi": 67,
      "hit": false,
      "t": 22017.99999999999,
      "d": 2660.5083333333278,
      "v": 100
    },
    {
      "midi": 47,
      "hit": false,
      "t": 22568.44999999999,
      "d": 544.7161458333321,
      "v": 59
    },
    {
      "midi": 50,
      "hit": false,
      "t": 22568.44999999999,
      "d": 544.7161458333321,
      "v": 59
    },
    {
      "midi": 38,
      "hit": false,
      "t": 23118.899999999987,
      "d": 1095.1661458333328,
      "v": 66
    },
    {
      "midi": 47,
      "hit": false,
      "t": 23669.349999999988,
      "d": 544.7161458333321,
      "v": 60
    },
    {
      "midi": 50,
      "hit": false,
      "t": 23669.349999999988,
      "d": 544.7161458333321,
      "v": 60
    },
    {
      "midi": 43,
      "hit": false,
      "t": 24219.799999999985,
      "d": 1095.1661458333292,
      "v": 72
    },
    {
      "midi": 47,
      "hit": false,
      "t": 24770.24999999998,
      "d": 544.7161458333321,
      "v": 59
    },
    {
      "midi": 50,
      "hit": false,
      "t": 24770.24999999998,
      "d": 544.7161458333321,
      "v": 57
    },
    {
      "midi": 71,
      "hit": false,
      "t": 25320.69999999998,
      "d": 487.3776041666679,
      "v": 97
    },
    {
      "midi": 74,
      "hit": false,
      "t": 25320.69999999998,
      "d": 487.3776041666679,
      "v": 100
    },
    {
      "midi": 38,
      "hit": false,
      "t": 25320.69999999998,
      "d": 1095.1661458333365,
      "v": 68
    },
    {
      "midi": 71,
      "hit": false,
      "t": 25871.14999999998,
      "d": 475.9098958333343,
      "v": 102
    },
    {
      "midi": 74,
      "hit": false,
      "t": 25871.14999999998,
      "d": 475.9098958333343,
      "v": 100
    },
    {
      "midi": 47,
      "hit": false,
      "t": 25871.14999999998,
      "d": 544.7161458333358,
      "v": 65
    },
    {
      "midi": 50,
      "hit": false,
      "t": 25871.14999999998,
      "d": 544.7161458333358,
      "v": 63
    },
    {
      "midi": 48,
      "hit": false,
      "t": 26421.59999999998,
      "d": 1095.1661458333328,
      "v": 70
    },
    {
      "midi": 67,
      "hit": false,
      "t": 26421.59999999998,
      "d": 1628.4145833333314,
      "v": 88
    },
    {
      "midi": 76,
      "hit": false,
      "t": 26421.59999999998,
      "d": 1628.4145833333314,
      "v": 100
    },
    {
      "midi": 52,
      "hit": false,
      "t": 26972.04999999998,
      "d": 544.7161458333321,
      "v": 61
    },
    {
      "midi": 55,
      "hit": false,
      "t": 26972.04999999998,
      "d": 544.7161458333321,
      "v": 66
    },
    {
      "midi": 43,
      "hit": false,
      "t": 27522.499999999978,
      "d": 1095.1661458333328,
      "v": 69
    },
    {
      "midi": 67,
      "hit": false,
      "t": 28072.94999999998,
      "d": 527.5145833333336,
      "v": 84
    },
    {
      "midi": 72,
      "hit": false,
      "t": 28072.94999999998,
      "d": 527.5145833333336,
      "v": 100
    },
    {
      "midi": 52,
      "hit": false,
      "t": 28072.94999999998,
      "d": 544.7161458333321,
      "v": 56
    },
    {
      "midi": 55,
      "hit": false,
      "t": 28072.94999999998,
      "d": 544.7161458333321,
      "v": 55
    },
    {
      "midi": 67,
      "hit": false,
      "t": 28623.399999999976,
      "d": 338.29739583333503,
      "v": 100
    },
    {
      "midi": 48,
      "hit": false,
      "t": 28623.399999999976,
      "d": 1095.1661458333328,
      "v": 69
    },
    {
      "midi": 64,
      "hit": false,
      "t": 28967.431249999976,
      "d": 997.6906249999993,
      "v": 100
    },
    {
      "midi": 52,
      "hit": false,
      "t": 29173.849999999977,
      "d": 544.7161458333321,
      "v": 59
    },
    {
      "midi": 55,
      "hit": false,
      "t": 29173.849999999977,
      "d": 544.7161458333321,
      "v": 61
    },
    {
      "midi": 43,
      "hit": false,
      "t": 29724.299999999974,
      "d": 1095.1661458333328,
      "v": 66
    },
    {
      "midi": 64,
      "hit": false,
      "t": 29999.524999999976,
      "d": 389.90208333333067,
      "v": 83
    },
    {
      "midi": 67,
      "hit": false,
      "t": 29999.524999999976,
      "d": 389.90208333333067,
      "v": 100
    },
    {
      "midi": 52,
      "hit": false,
      "t": 30274.749999999975,
      "d": 544.7161458333321,
      "v": 61
    },
    {
      "midi": 55,
      "hit": false,
      "t": 30274.749999999975,
      "d": 544.7161458333321,
      "v": 65
    },
    {
      "midi": 67,
      "hit": false,
      "t": 30412.362499999974,
      "d": 378.4343750000007,
      "v": 83
    },
    {
      "midi": 76,
      "hit": false,
      "t": 30412.362499999974,
      "d": 378.4343750000007,
      "v": 100
    },
    {
      "midi": 43,
      "hit": false,
      "t": 30825.19999999997,
      "d": 1095.1661458333328,
      "v": 63
    },
    {
      "midi": 71,
      "hit": false,
      "t": 30825.19999999997,
      "d": 2511.428125000002,
      "v": 77
    },
    {
      "midi": 74,
      "hit": false,
      "t": 30825.19999999997,
      "d": 2511.428125000002,
      "v": 100
    },
    {
      "midi": 47,
      "hit": false,
      "t": 31375.649999999972,
      "d": 544.7161458333321,
      "v": 54
    },
    {
      "midi": 50,
      "hit": false,
      "t": 31375.649999999972,
      "d": 544.7161458333321,
      "v": 56
    },
    {
      "midi": 38,
      "hit": false,
      "t": 31926.09999999997,
      "d": 1095.1661458333328,
      "v": 59
    },
    {
      "midi": 47,
      "hit": false,
      "t": 32476.54999999997,
      "d": 544.7161458333321,
      "v": 59
    },
    {
      "midi": 50,
      "hit": false,
      "t": 32476.54999999997,
      "d": 544.7161458333321,
      "v": 57
    },
    {
      "midi": 43,
      "hit": false,
      "t": 33026.99999999997,
      "d": 1095.1661458333401,
      "v": 65
    },
    {
      "midi": 47,
      "hit": false,
      "t": 33577.449999999975,
      "d": 544.7161458333358,
      "v": 62
    },
    {
      "midi": 50,
      "hit": false,
      "t": 33577.449999999975,
      "d": 544.7161458333358,
      "v": 57
    },
    {
      "midi": 38,
      "hit": false,
      "t": 34127.89999999998,
      "d": 1095.1661458333401,
      "v": 68
    },
    {
      "midi": 67,
      "hit": false,
      "t": 34494.86666666665,
      "d": 338.2973958333314,
      "v": 86
    },
    {
      "midi": 71,
      "hit": false,
      "t": 34494.86666666665,
      "d": 338.2973958333314,
      "v": 100
    },
    {
      "midi": 47,
      "hit": false,
      "t": 34678.34999999998,
      "d": 544.716145833343,
      "v": 62
    },
    {
      "midi": 50,
      "hit": false,
      "t": 34678.34999999998,
      "d": 544.716145833343,
      "v": 63
    },
    {
      "midi": 67,
      "hit": false,
      "t": 34861.833333333314,
      "d": 309.6281250000029,
      "v": 85
    },
    {
      "midi": 71,
      "hit": false,
      "t": 34861.833333333314,
      "d": 309.6281250000029,
      "v": 100
    },
    {
      "midi": 38,
      "hit": false,
      "t": 35228.79999999999,
      "d": 1095.1661458333328,
      "v": 67
    },
    {
      "midi": 66,
      "hit": false,
      "t": 35228.79999999999,
      "d": 1588.2776041666657,
      "v": 58
    },
    {
      "midi": 69,
      "hit": false,
      "t": 35228.79999999999,
      "d": 1588.2776041666657,
      "v": 100
    },
    {
      "midi": 48,
      "hit": false,
      "t": 35779.249999999985,
      "d": 544.7161458333358,
      "v": 54
    },
    {
      "midi": 50,
      "hit": false,
      "t": 35779.249999999985,
      "d": 544.7161458333358,
      "v": 57
    },
    {
      "midi": 45,
      "hit": false,
      "t": 36329.69999999999,
      "d": 1095.1661458333328,
      "v": 72
    },
    {
      "midi": 48,
      "hit": false,
      "t": 36880.14999999999,
      "d": 544.7161458333358,
      "v": 58
    },
    {
      "midi": 50,
      "hit": false,
      "t": 36880.14999999999,
      "d": 544.7161458333358,
      "v": 58
    },
    {
      "midi": 67,
      "hit": false,
      "t": 36880.14999999999,
      "d": 544.7161458333358,
      "v": 78
    },
    {
      "midi": 71,
      "hit": false,
      "t": 36880.14999999999,
      "d": 544.7161458333358,
      "v": 100
    },
    {
      "midi": 69,
      "hit": false,
      "t": 37430.59999999999,
      "d": 332.56354166667006,
      "v": 74
    },
    {
      "midi": 72,
      "hit": false,
      "t": 37430.59999999999,
      "d": 332.56354166667006,
      "v": 100
    },
    {
      "midi": 45,
      "hit": false,
      "t": 37430.59999999999,
      "d": 1095.1661458333256,
      "v": 62
    },
    {
      "midi": 64,
      "hit": false,
      "t": 37774.63124999999,
      "d": 739.6671874999956,
      "v": 58
    },
    {
      "midi": 69,
      "hit": false,
      "t": 37774.63124999999,
      "d": 739.6671874999956,
      "v": 100
    },
    {
      "midi": 48,
      "hit": false,
      "t": 37981.04999999999,
      "d": 544.7161458333285,
      "v": 60
    },
    {
      "midi": 52,
      "hit": false,
      "t": 37981.04999999999,
      "d": 544.7161458333285,
      "v": 60
    },
    {
      "midi": 62,
      "hit": false,
      "t": 38531.499999999985,
      "d": 533.2484374999985,
      "v": 54
    },
    {
      "midi": 66,
      "hit": false,
      "t": 38531.499999999985,
      "d": 533.2484374999985,
      "v": 100
    },
    {
      "midi": 38,
      "hit": false,
      "t": 38531.499999999985,
      "d": 1095.1661458333328,
      "v": 52
    },
    {
      "midi": 48,
      "hit": false,
      "t": 39081.94999999998,
      "d": 544.7161458333358,
      "v": 55
    },
    {
      "midi": 50,
      "hit": false,
      "t": 39081.94999999998,
      "d": 544.7161458333358,
      "v": 54
    },
    {
      "midi": 62,
      "hit": false,
      "t": 39081.94999999998,
      "d": 544.7161458333358,
      "v": 100
    },
    {
      "midi": 43,
      "hit": false,
      "t": 39632.39999999999,
      "d": 1095.1661458333328,
      "v": 60
    },
    {
      "midi": 62,
      "hit": false,
      "t": 39632.39999999999,
      "d": 2178.8645833333285,
      "v": 66
    },
    {
      "midi": 71,
      "hit": false,
      "t": 39632.39999999999,
      "d": 2178.8645833333285,
      "v": 100
    },
    {
      "midi": 47,
      "hit": false,
      "t": 40182.849999999984,
      "d": 544.7161458333358,
      "v": 54
    },
    {
      "midi": 50,
      "hit": false,
      "t": 40182.849999999984,
      "d": 544.7161458333358,
      "v": 51
    },
    {
      "midi": 38,
      "hit": false,
      "t": 40733.29999999999,
      "d": 1095.1661458333256,
      "v": 61
    },
    {
      "midi": 47,
      "hit": false,
      "t": 41283.749999999985,
      "d": 544.7161458333285,
      "v": 56
    },
    {
      "midi": 50,
      "hit": false,
      "t": 41283.749999999985,
      "d": 544.7161458333285,
      "v": 56
    },
    {
      "midi": 43,
      "hit": false,
      "t": 41834.19999999998,
      "d": 1095.1661458333328,
      "v": 63
    },
    {
      "midi": 47,
      "hit": false,
      "t": 42384.64999999998,
      "d": 544.7161458333358,
      "v": 60
    },
    {
      "midi": 50,
      "hit": false,
      "t": 42384.64999999998,
      "d": 544.7161458333358,
      "v": 57
    },
    {
      "midi": 38,
      "hit": false,
      "t": 42935.099999999984,
      "d": 1095.1661458333401,
      "v": 66
    },
    {
      "midi": 59,
      "hit": false,
      "t": 43302.06666666665,
      "d": 361.23281249999854,
      "v": 79
    },
    {
      "midi": 67,
      "hit": false,
      "t": 43302.06666666665,
      "d": 361.23281249999854,
      "v": 100
    },
    {
      "midi": 47,
      "hit": false,
      "t": 43485.54999999998,
      "d": 544.716145833343,
      "v": 63
    },
    {
      "midi": 50,
      "hit": false,
      "t": 43485.54999999998,
      "d": 544.716145833343,
      "v": 62
    },
    {
      "midi": 59,
      "hit": false,
      "t": 43669.03333333332,
      "d": 286.69270833333576,
      "v": 83
    },
    {
      "midi": 67,
      "hit": false,
      "t": 43669.03333333332,
      "d": 286.69270833333576,
      "v": 100
    },
    {
      "midi": 38,
      "hit": false,
      "t": 44035.99999999999,
      "d": 1095.1661458333328,
      "v": 66
    },
    {
      "midi": 60,
      "hit": false,
      "t": 44035.99999999999,
      "d": 1886.4380208333314,
      "v": 63
    },
    {
      "midi": 66,
      "hit": false,
      "t": 44035.99999999999,
      "d": 1886.4380208333314,
      "v": 100
    },
    {
      "midi": 48,
      "hit": false,
      "t": 44586.44999999999,
      "d": 544.7161458333358,
      "v": 56
    },
    {
      "midi": 50,
      "hit": false,
      "t": 44586.44999999999,
      "d": 544.7161458333358,
      "v": 56
    },
    {
      "midi": 45,
      "hit": false,
      "t": 45136.899999999994,
      "d": 1095.1661458333328,
      "v": 70
    },
    {
      "midi": 48,
      "hit": false,
      "t": 45687.34999999999,
      "d": 544.7161458333358,
      "v": 60
    },
    {
      "midi": 50,
      "hit": false,
      "t": 45687.34999999999,
      "d": 544.7161458333358,
      "v": 63
    },
    {
      "midi": 67,
      "hit": false,
      "t": 46031.38124999999,
      "d": 172.015625,
      "v": 100
    },
    {
      "midi": 60,
      "hit": false,
      "t": 46237.799999999996,
      "d": 493.11145833333285,
      "v": 82
    },
    {
      "midi": 69,
      "hit": false,
      "t": 46237.799999999996,
      "d": 493.11145833333285,
      "v": 100
    },
    {
      "midi": 45,
      "hit": false,
      "t": 46237.799999999996,
      "d": 1095.1661458333328,
      "v": 69
    },
    {
      "midi": 60,
      "hit": false,
      "t": 46788.24999999999,
      "d": 481.6437500000029,
      "v": 81
    },
    {
      "midi": 69,
      "hit": false,
      "t": 46788.24999999999,
      "d": 481.6437500000029,
      "v": 100
    },
    {
      "midi": 48,
      "hit": false,
      "t": 46788.24999999999,
      "d": 544.7161458333358,
      "v": 63
    },
    {
      "midi": 52,
      "hit": false,
      "t": 46788.24999999999,
      "d": 544.7161458333358,
      "v": 62
    },
    {
      "midi": 60,
      "hit": false,
      "t": 47338.7,
      "d": 733.933333333327,
      "v": 70
    },
    {
      "midi": 67,
      "hit": false,
      "t": 47338.7,
      "d": 733.933333333327,
      "v": 100
    },
    {
      "midi": 38,
      "hit": false,
      "t": 47338.7,
      "d": 1095.1661458333256,
      "v": 52
    },
    {
      "midi": 48,
      "hit": false,
      "t": 47889.149999999994,
      "d": 544.7161458333285,
      "v": 59
    },
    {
      "midi": 50,
      "hit": false,
      "t": 47889.149999999994,
      "d": 544.7161458333285,
      "v": 59
    },
    {
      "midi": 60,
      "hit": false,
      "t": 48164.37499999999,
      "d": 315.36197916666424,
      "v": 61
    },
    {
      "midi": 66,
      "hit": false,
      "t": 48164.37499999999,
      "d": 315.36197916666424,
      "v": 100
    },
    {
      "midi": 43,
      "hit": false,
      "t": 48439.59999999999,
      "d": 1095.1661458333328,
      "v": 60
    },
    {
      "midi": 59,
      "hit": false,
      "t": 48479.73697916666,
      "d": 3159.353645833333,
      "v": 60
    },
    {
      "midi": 67,
      "hit": false,
      "t": 48479.73697916666,
      "d": 3159.353645833333,
      "v": 100
    },
    {
      "midi": 47,
      "hit": false,
      "t": 48990.04999999999,
      "d": 544.7161458333358,
      "v": 58
    },
    {
      "midi": 50,
      "hit": false,
      "t": 48990.04999999999,
      "d": 544.7161458333358,
      "v": 54
    },
    {
      "midi": 38,
      "hit": false,
      "t": 49540.49999999999,
      "d": 1095.1661458333328,
      "v": 57
    },
    {
      "midi": 47,
      "hit": false,
      "t": 50090.94999999999,
      "d": 544.7161458333358,
      "v": 51
    },
    {
      "midi": 50,
      "hit": false,
      "t": 50090.94999999999,
      "d": 544.7161458333358,
      "v": 49
    },
    {
      "midi": 43,
      "hit": false,
      "t": 50641.399999999994,
      "d": 1095.1661458333256,
      "v": 59
    },
    {
      "midi": 47,
      "hit": false,
      "t": 51191.84999999999,
      "d": 544.7161458333285,
      "v": 59
    },
    {
      "midi": 50,
      "hit": false,
      "t": 51191.84999999999,
      "d": 544.7161458333285,
      "v": 59
    },
    {
      "midi": 71,
      "hit": false,
      "t": 51742.29999999999,
      "d": 321.09583333333285,
      "v": 87
    },
    {
      "midi": 74,
      "hit": false,
      "t": 51742.29999999999,
      "d": 321.09583333333285,
      "v": 100
    },
    {
      "midi": 45,
      "hit": false,
      "t": 51742.29999999999,
      "d": 544.7161458333358,
      "v": 74
    },
    {
      "midi": 71,
      "hit": false,
      "t": 52109.266666666656,
      "d": 321.0958333333401,
      "v": 84
    },
    {
      "midi": 74,
      "hit": false,
      "t": 52109.266666666656,
      "d": 338.29739583333867,
      "v": 100
    },
    {
      "midi": 47,
      "hit": false,
      "t": 52292.74999999999,
      "d": 544.7161458333358,
      "v": 90
    },
    {
      "midi": 71,
      "hit": false,
      "t": 52476.23333333333,
      "d": 240.82187500000146,
      "v": 84
    },
    {
      "midi": 74,
      "hit": false,
      "t": 52476.23333333333,
      "d": 240.82187500000146,
      "v": 100
    },
    {
      "midi": 48,
      "hit": false,
      "t": 52843.2,
      "d": 544.7161458333358,
      "v": 89
    },
    {
      "midi": 72,
      "hit": false,
      "t": 52843.2,
      "d": 1324.5203125000116,
      "v": 106
    },
    {
      "midi": 76,
      "hit": false,
      "t": 52843.2,
      "d": 1324.5203125000116,
      "v": 100
    },
    {
      "midi": 52,
      "hit": false,
      "t": 53393.65,
      "d": 544.7161458333358,
      "v": 65
    },
    {
      "midi": 55,
      "hit": false,
      "t": 53393.65,
      "d": 544.7161458333358,
      "v": 70
    },
    {
      "midi": 43,
      "hit": false,
      "t": 53944.100000000006,
      "d": 544.7161458333358,
      "v": 67
    },
    {
      "midi": 72,
      "hit": false,
      "t": 54219.32500000001,
      "d": 389.9020833333343,
      "v": 97
    },
    {
      "midi": 76,
      "hit": false,
      "t": 54219.32500000001,
      "d": 389.9020833333343,
      "v": 100
    },
    {
      "midi": 52,
      "hit": false,
      "t": 54494.55000000001,
      "d": 544.7161458333285,
      "v": 66
    },
    {
      "midi": 55,
      "hit": false,
      "t": 54494.55000000001,
      "d": 544.7161458333285,
      "v": 70
    },
    {
      "midi": 72,
      "hit": false,
      "t": 54632.16250000001,
      "d": 166.2817708333314,
      "v": 100
    },
    {
      "midi": 72,
      "hit": false,
      "t": 54838.58125000001,
      "d": 183.48333333332994,
      "v": 86
    },
    {
      "midi": 76,
      "hit": false,
      "t": 54838.58125000001,
      "d": 183.48333333332994,
      "v": 100
    },
    {
      "midi": 48,
      "hit": false,
      "t": 55045.00000000001,
      "d": 544.7161458333358,
      "v": 81
    },
    {
      "midi": 76,
      "hit": false,
      "t": 55045.00000000001,
      "d": 819.9411458333343,
      "v": 106
    },
    {
      "midi": 79,
      "hit": false,
      "t": 55045.00000000001,
      "d": 819.9411458333343,
      "v": 100
    },
    {
      "midi": 52,
      "hit": false,
      "t": 55595.45000000001,
      "d": 544.7161458333358,
      "v": 70
    },
    {
      "midi": 55,
      "hit": false,
      "t": 55595.45000000001,
      "d": 544.7161458333358,
      "v": 74
    },
    {
      "midi": 76,
      "hit": false,
      "t": 55939.48125000001,
      "d": 200.68489583333576,
      "v": 87
    },
    {
      "midi": 79,
      "hit": false,
      "t": 55939.48125000001,
      "d": 200.68489583333576,
      "v": 100
    },
    {
      "midi": 72,
      "hit": false,
      "t": 56145.900000000016,
      "d": 458.70833333333576,
      "v": 67
    },
    {
      "midi": 78,
      "hit": false,
      "t": 56145.900000000016,
      "d": 458.70833333333576,
      "v": 100
    },
    {
      "midi": 48,
      "hit": false,
      "t": 56145.900000000016,
      "d": 544.7161458333358,
      "v": 90
    },
    {
      "midi": 72,
      "hit": false,
      "t": 56696.35000000002,
      "d": 538.9822916666672,
      "v": 87
    },
    {
      "midi": 76,
      "hit": false,
      "t": 56696.35000000002,
      "d": 538.9822916666672,
      "v": 100
    },
    {
      "midi": 52,
      "hit": false,
      "t": 56696.35000000002,
      "d": 544.7161458333358,
      "v": 71
    },
    {
      "midi": 55,
      "hit": false,
      "t": 56696.35000000002,
      "d": 544.7161458333358,
      "v": 77
    },
    {
      "midi": 72,
      "hit": false,
      "t": 57246.800000000025,
      "d": 269.49114583332994,
      "v": 87
    },
    {
      "midi": 76,
      "hit": false,
      "t": 57246.800000000025,
      "d": 269.49114583332994,
      "v": 100
    },
    {
      "midi": 43,
      "hit": false,
      "t": 57246.800000000025,
      "d": 544.7161458333358,
      "v": 73
    },
    {
      "midi": 71,
      "hit": false,
      "t": 57590.831250000025,
      "d": 986.222916666673,
      "v": 71
    },
    {
      "midi": 74,
      "hit": false,
      "t": 57590.831250000025,
      "d": 986.222916666673,
      "v": 100
    },
    {
      "midi": 47,
      "hit": false,
      "t": 57797.25000000003,
      "d": 544.7161458333358,
      "v": 63
    },
    {
      "midi": 50,
      "hit": false,
      "t": 57797.25000000003,
      "d": 544.7161458333358,
      "v": 63
    },
    {
      "midi": 38,
      "hit": false,
      "t": 58347.70000000003,
      "d": 544.7161458333285,
      "v": 66
    },
    {
      "midi": 71,
      "hit": false,
      "t": 58622.92500000003,
      "d": 401.36979166666424,
      "v": 79
    },
    {
      "midi": 74,
      "hit": false,
      "t": 58622.92500000003,
      "d": 401.36979166666424,
      "v": 100
    },
    {
      "midi": 47,
      "hit": false,
      "t": 58898.15000000003,
      "d": 544.7161458333285,
      "v": 69
    },
    {
      "midi": 50,
      "hit": false,
      "t": 58898.15000000003,
      "d": 544.7161458333285,
      "v": 70
    },
    {
      "midi": 70,
      "hit": false,
      "t": 59035.762500000026,
      "d": 407.10364583333285,
      "v": 81
    },
    {
      "midi": 73,
      "hit": false,
      "t": 59035.762500000026,
      "d": 407.10364583333285,
      "v": 100
    },
    {
      "midi": 43,
      "hit": false,
      "t": 59448.60000000003,
      "d": 544.7161458333358,
      "v": 75
    },
    {
      "midi": 71,
      "hit": false,
      "t": 59448.60000000003,
      "d": 1433.4635416666788,
      "v": 82
    },
    {
      "midi": 74,
      "hit": false,
      "t": 59448.60000000003,
      "d": 1433.4635416666788,
      "v": 100
    },
    {
      "midi": 47,
      "hit": false,
      "t": 59999.05000000003,
      "d": 544.7161458333358,
      "v": 69
    },
    {
      "midi": 50,
      "hit": false,
      "t": 59999.05000000003,
      "d": 544.7161458333358,
      "v": 69
    },
    {
      "midi": 43,
      "hit": false,
      "t": 60549.50000000004,
      "d": 544.7161458333358,
      "v": 64
    },
    {
      "midi": 67,
      "hit": false,
      "t": 60916.4666666667,
      "d": 332.56354166667006,
      "v": 94
    },
    {
      "midi": 74,
      "hit": false,
      "t": 60916.4666666667,
      "d": 332.56354166667006,
      "v": 100
    },
    {
      "midi": 47,
      "hit": false,
      "t": 61099.95000000004,
      "d": 544.7161458333285,
      "v": 69
    },
    {
      "midi": 50,
      "hit": false,
      "t": 61099.95000000004,
      "d": 544.7161458333285,
      "v": 67
    },
    {
      "midi": 67,
      "hit": false,
      "t": 61283.43333333337,
      "d": 252.2895833333314,
      "v": 97
    },
    {
      "midi": 74,
      "hit": false,
      "t": 61283.43333333337,
      "d": 252.2895833333314,
      "v": 100
    },
    {
      "midi": 66,
      "hit": false,
      "t": 61650.40000000004,
      "d": 309.6281250000029,
      "v": 104
    },
    {
      "midi": 74,
      "hit": false,
      "t": 61650.40000000004,
      "d": 309.6281250000029,
      "v": 100
    },
    {
      "midi": 38,
      "hit": false,
      "t": 61650.40000000004,
      "d": 544.7161458333358,
      "v": 81
    },
    {
      "midi": 66,
      "hit": false,
      "t": 61994.43125000004,
      "d": 991.9567708333416,
      "v": 81
    },
    {
      "midi": 72,
      "hit": false,
      "t": 61994.43125000004,
      "d": 991.9567708333416,
      "v": 100
    },
    {
      "midi": 48,
      "hit": false,
      "t": 62200.85000000004,
      "d": 544.7161458333358,
      "v": 70
    },
    {
      "midi": 50,
      "hit": false,
      "t": 62200.85000000004,
      "d": 544.7161458333358,
      "v": 72
    },
    {
      "midi": 45,
      "hit": false,
      "t": 62751.30000000005,
      "d": 544.7161458333358,
      "v": 70
    },
    {
      "midi": 66,
      "hit": false,
      "t": 63118.266666666714,
      "d": 355.4989583333372,
      "v": 96
    },
    {
      "midi": 72,
      "hit": false,
      "t": 63118.266666666714,
      "d": 355.4989583333372,
      "v": 100
    },
    {
      "midi": 48,
      "hit": false,
      "t": 63301.75000000005,
      "d": 544.7161458333285,
      "v": 66
    },
    {
      "midi": 50,
      "hit": false,
      "t": 63301.75000000005,
      "d": 544.7161458333285,
      "v": 65
    },
    {
      "midi": 66,
      "hit": false,
      "t": 63485.23333333338,
      "d": 280.95885416666715,
      "v": 82
    },
    {
      "midi": 71,
      "hit": false,
      "t": 63485.23333333338,
      "d": 280.95885416666715,
      "v": 100
    },
    {
      "midi": 38,
      "hit": false,
      "t": 63852.20000000005,
      "d": 544.7161458333358,
      "v": 72
    },
    {
      "midi": 66,
      "hit": false,
      "t": 63852.20000000005,
      "d": 1066.4968750000044,
      "v": 66
    },
    {
      "midi": 72,
      "hit": false,
      "t": 63852.20000000005,
      "d": 1066.4968750000044,
      "v": 100
    },
    {
      "midi": 48,
      "hit": false,
      "t": 64402.65000000005,
      "d": 544.7161458333358,
      "v": 74
    },
    {
      "midi": 50,
      "hit": false,
      "t": 64402.65000000005,
      "d": 544.7161458333358,
      "v": 75
    },
    {
      "midi": 45,
      "hit": false,
      "t": 64953.10000000006,
      "d": 544.7161458333358,
      "v": 71
    },
    {
      "midi": 66,
      "hit": false,
      "t": 64953.10000000006,
      "d": 837.1427083333328,
      "v": 90
    },
    {
      "midi": 72,
      "hit": false,
      "t": 64953.10000000006,
      "d": 837.1427083333328,
      "v": 100
    },
    {
      "midi": 48,
      "hit": false,
      "t": 65503.55000000006,
      "d": 544.716145833343,
      "v": 70
    },
    {
      "midi": 50,
      "hit": false,
      "t": 65503.55000000006,
      "d": 544.716145833343,
      "v": 70
    },
    {
      "midi": 66,
      "hit": false,
      "t": 65847.58125000006,
      "d": 189.21718750000582,
      "v": 70
    },
    {
      "midi": 74,
      "hit": false,
      "t": 65847.58125000006,
      "d": 189.21718750000582,
      "v": 100
    },
    {
      "midi": 67,
      "hit": false,
      "t": 66054.00000000007,
      "d": 521.7807291666686,
      "v": 68
    },
    {
      "midi": 72,
      "hit": false,
      "t": 66054.00000000007,
      "d": 521.7807291666686,
      "v": 100
    },
    {
      "midi": 43,
      "hit": false,
      "t": 66054.00000000007,
      "d": 544.7161458333285,
      "v": 77
    },
    {
      "midi": 47,
      "hit": false,
      "t": 66604.45000000007,
      "d": 544.7161458333285,
      "v": 66
    },
    {
      "midi": 50,
      "hit": false,
      "t": 66604.45000000007,
      "d": 544.7161458333285,
      "v": 65
    },
    {
      "midi": 67,
      "hit": false,
      "t": 66604.45000000007,
      "d": 1685.7531249999884,
      "v": 66
    },
    {
      "midi": 71,
      "hit": false,
      "t": 66604.45000000007,
      "d": 1685.7531249999884,
      "v": 100
    },
    {
      "midi": 38,
      "hit": false,
      "t": 67154.90000000007,
      "d": 544.7161458333285,
      "v": 81
    },
    {
      "midi": 47,
      "hit": false,
      "t": 67705.35000000006,
      "d": 544.7161458333285,
      "v": 70
    },
    {
      "midi": 50,
      "hit": false,
      "t": 67705.35000000006,
      "d": 544.7161458333285,
      "v": 70
    },
    {
      "midi": 43,
      "hit": false,
      "t": 68255.80000000006,
      "d": 544.7161458333285,
      "v": 87
    },
    {
      "midi": 47,
      "hit": false,
      "t": 68806.25000000006,
      "d": 544.7161458333285,
      "v": 78
    },
    {
      "midi": 50,
      "hit": false,
      "t": 68806.25000000006,
      "d": 544.7161458333285,
      "v": 78
    },
    {
      "midi": 67,
      "hit": false,
      "t": 69356.70000000006,
      "d": 349.7651041666686,
      "v": 81
    },
    {
      "midi": 71,
      "hit": false,
      "t": 69356.70000000006,
      "d": 349.7651041666686,
      "v": 100
    },
    {
      "midi": 45,
      "hit": false,
      "t": 69356.70000000006,
      "d": 544.716145833343,
      "v": 87
    },
    {
      "midi": 69,
      "hit": false,
      "t": 69723.66666666673,
      "d": 355.4989583333372,
      "v": 87
    },
    {
      "midi": 72,
      "hit": false,
      "t": 69723.66666666673,
      "d": 355.4989583333372,
      "v": 100
    },
    {
      "midi": 47,
      "hit": false,
      "t": 69907.15000000007,
      "d": 544.716145833343,
      "v": 87
    },
    {
      "midi": 71,
      "hit": false,
      "t": 70090.6333333334,
      "d": 298.1604166666657,
      "v": 96
    },
    {
      "midi": 74,
      "hit": false,
      "t": 70090.6333333334,
      "d": 298.1604166666657,
      "v": 100
    },
    {
      "midi": 48,
      "hit": false,
      "t": 70457.60000000008,
      "d": 544.7161458333285,
      "v": 84
    },
    {
      "midi": 72,
      "hit": false,
      "t": 70457.60000000008,
      "d": 1095.1661458333256,
      "v": 82
    },
    {
      "midi": 76,
      "hit": false,
      "t": 70457.60000000008,
      "d": 1095.1661458333256,
      "v": 100
    },
    {
      "midi": 52,
      "hit": false,
      "t": 71008.05000000008,
      "d": 544.7161458333285,
      "v": 70
    },
    {
      "midi": 55,
      "hit": false,
      "t": 71008.05000000008,
      "d": 544.7161458333285,
      "v": 74
    },
    {
      "midi": 67,
      "hit": false,
      "t": 71558.50000000007,
      "d": 510.3130208333314,
      "v": 94
    },
    {
      "midi": 72,
      "hit": false,
      "t": 71558.50000000007,
      "d": 510.3130208333314,
      "v": 100
    },
    {
      "midi": 43,
      "hit": false,
      "t": 71558.50000000007,
      "d": 544.7161458333285,
      "v": 81
    },
    {
      "midi": 72,
      "hit": false,
      "t": 72108.95000000007,
      "d": 504.5791666666628,
      "v": 81
    },
    {
      "midi": 76,
      "hit": false,
      "t": 72108.95000000007,
      "d": 504.5791666666628,
      "v": 100
    },
    {
      "midi": 52,
      "hit": false,
      "t": 72108.95000000007,
      "d": 544.7161458333285,
      "v": 67
    },
    {
      "midi": 55,
      "hit": false,
      "t": 72108.95000000007,
      "d": 544.7161458333285,
      "v": 68
    },
    {
      "midi": 48,
      "hit": false,
      "t": 72659.40000000007,
      "d": 544.7161458333285,
      "v": 87
    },
    {
      "midi": 76,
      "hit": false,
      "t": 72659.40000000007,
      "d": 814.2072916666657,
      "v": 94
    },
    {
      "midi": 79,
      "hit": false,
      "t": 72659.40000000007,
      "d": 814.2072916666657,
      "v": 100
    },
    {
      "midi": 52,
      "hit": false,
      "t": 73209.85000000006,
      "d": 544.716145833343,
      "v": 70
    },
    {
      "midi": 55,
      "hit": false,
      "t": 73209.85000000006,
      "d": 544.716145833343,
      "v": 71
    },
    {
      "midi": 76,
      "hit": false,
      "t": 73485.07500000007,
      "d": 258.0234375,
      "v": 92
    },
    {
      "midi": 79,
      "hit": false,
      "t": 73485.07500000007,
      "d": 258.0234375,
      "v": 100
    },
    {
      "midi": 48,
      "hit": false,
      "t": 73760.30000000008,
      "d": 544.7161458333285,
      "v": 92
    },
    {
      "midi": 74,
      "hit": false,
      "t": 73760.30000000008,
      "d": 544.7161458333285,
      "v": 84
    },
    {
      "midi": 78,
      "hit": false,
      "t": 73760.30000000008,
      "d": 544.7161458333285,
      "v": 100
    },
    {
      "midi": 72,
      "hit": false,
      "t": 74310.75000000007,
      "d": 481.6437500000029,
      "v": 70
    },
    {
      "midi": 76,
      "hit": false,
      "t": 74310.75000000007,
      "d": 481.6437500000029,
      "v": 100
    },
    {
      "midi": 52,
      "hit": false,
      "t": 74310.75000000007,
      "d": 544.716145833343,
      "v": 71
    },
    {
      "midi": 55,
      "hit": false,
      "t": 74310.75000000007,
      "d": 544.716145833343,
      "v": 73
    },
    {
      "midi": 72,
      "hit": false,
      "t": 74861.20000000008,
      "d": 303.8942708333343,
      "v": 83
    },
    {
      "midi": 76,
      "hit": false,
      "t": 74861.20000000008,
      "d": 303.8942708333343,
      "v": 100
    },
    {
      "midi": 43,
      "hit": false,
      "t": 74861.20000000008,
      "d": 544.7161458333285,
      "v": 70
    },
    {
      "midi": 71,
      "hit": false,
      "t": 75205.23125000008,
      "d": 871.5458333333227,
      "v": 62
    },
    {
      "midi": 74,
      "hit": false,
      "t": 75205.23125000008,
      "d": 871.5458333333227,
      "v": 100
    },
    {
      "midi": 47,
      "hit": false,
      "t": 75411.65000000008,
      "d": 544.7161458333285,
      "v": 65
    },
    {
      "midi": 50,
      "hit": false,
      "t": 75411.65000000008,
      "d": 544.7161458333285,
      "v": 66
    },
    {
      "midi": 38,
      "hit": false,
      "t": 75962.10000000008,
      "d": 544.7161458333285,
      "v": 75
    },
    {
      "midi": 71,
      "hit": false,
      "t": 76237.32500000007,
      "d": 407.1036458333401,
      "v": 82
    },
    {
      "midi": 74,
      "hit": false,
      "t": 76237.32500000007,
      "d": 407.1036458333401,
      "v": 100
    },
    {
      "midi": 47,
      "hit": false,
      "t": 76512.55000000008,
      "d": 544.716145833343,
      "v": 70
    },
    {
      "midi": 50,
      "hit": false,
      "t": 76512.55000000008,
      "d": 544.716145833343,
      "v": 71
    },
    {
      "midi": 70,
      "hit": false,
      "t": 76650.16250000008,
      "d": 355.4989583333372,
      "v": 61
    },
    {
      "midi": 73,
      "hit": false,
      "t": 76650.16250000008,
      "d": 355.4989583333372,
      "v": 100
    },
    {
      "midi": 43,
      "hit": false,
      "t": 77063.00000000009,
      "d": 544.7161458333285,
      "v": 79
    },
    {
      "midi": 71,
      "hit": false,
      "t": 77063.00000000009,
      "d": 1186.9078124999942,
      "v": 68
    },
    {
      "midi": 74,
      "hit": false,
      "t": 77063.00000000009,
      "d": 1186.9078124999942,
      "v": 100
    },
    {
      "midi": 47,
      "hit": false,
      "t": 77613.45000000008,
      "d": 544.7161458333285,
      "v": 69
    },
    {
      "midi": 50,
      "hit": false,
      "t": 77613.45000000008,
      "d": 544.7161458333285,
      "v": 70
    },
    {
      "midi": 43,
      "hit": false,
      "t": 78163.90000000008,
      "d": 544.7161458333285,
      "v": 83
    },
    {
      "midi": 67,
      "hit": false,
      "t": 78714.35000000008,
      "d": 516.046875,
      "v": 100
    },
    {
      "midi": 47,
      "hit": false,
      "t": 78714.35000000008,
      "d": 544.7161458333285,
      "v": 73
    },
    {
      "midi": 50,
      "hit": false,
      "t": 78714.35000000008,
      "d": 544.7161458333285,
      "v": 73
    },
    {
      "midi": 45,
      "hit": false,
      "t": 79264.80000000008,
      "d": 544.7161458333285,
      "v": 77
    },
    {
      "midi": 67,
      "hit": false,
      "t": 79264.80000000008,
      "d": 768.3364583333314,
      "v": 73
    },
    {
      "midi": 71,
      "hit": false,
      "t": 79264.80000000008,
      "d": 768.3364583333314,
      "v": 100
    },
    {
      "midi": 49,
      "hit": false,
      "t": 79815.25000000007,
      "d": 544.716145833343,
      "v": 63
    },
    {
      "midi": 52,
      "hit": false,
      "t": 79815.25000000007,
      "d": 544.716145833343,
      "v": 70
    },
    {
      "midi": 67,
      "hit": false,
      "t": 80090.47500000008,
      "d": 217.8864583333343,
      "v": 78
    },
    {
      "midi": 71,
      "hit": false,
      "t": 80090.47500000008,
      "d": 217.8864583333343,
      "v": 100
    },
    {
      "midi": 67,
      "hit": false,
      "t": 80365.70000000008,
      "d": 481.6437500000029,
      "v": 86
    },
    {
      "midi": 71,
      "hit": false,
      "t": 80365.70000000008,
      "d": 481.6437500000029,
      "v": 100
    },
    {
      "midi": 40,
      "hit": false,
      "t": 80365.70000000008,
      "d": 544.716145833343,
      "v": 77
    },
    {
      "midi": 67,
      "hit": false,
      "t": 80916.1500000001,
      "d": 487.3776041666715,
      "v": 76
    },
    {
      "midi": 71,
      "hit": false,
      "t": 80916.1500000001,
      "d": 487.3776041666715,
      "v": 100
    },
    {
      "midi": 49,
      "hit": false,
      "t": 80916.1500000001,
      "d": 544.716145833343,
      "v": 69
    },
    {
      "midi": 52,
      "hit": false,
      "t": 80916.1500000001,
      "d": 544.716145833343,
      "v": 76
    },
    {
      "midi": 45,
      "hit": false,
      "t": 81466.60000000011,
      "d": 544.7161458333285,
      "v": 83
    },
    {
      "midi": 67,
      "hit": false,
      "t": 81466.60000000011,
      "d": 774.0703125,
      "v": 64
    },
    {
      "midi": 71,
      "hit": false,
      "t": 81466.60000000011,
      "d": 774.0703125,
      "v": 100
    },
    {
      "midi": 49,
      "hit": false,
      "t": 82017.0500000001,
      "d": 544.716145833343,
      "v": 72
    },
    {
      "midi": 52,
      "hit": false,
      "t": 82017.0500000001,
      "d": 544.716145833343,
      "v": 76
    },
    {
      "midi": 67,
      "hit": false,
      "t": 82292.27500000011,
      "d": 252.2895833333314,
      "v": 92
    },
    {
      "midi": 71,
      "hit": false,
      "t": 82292.27500000011,
      "d": 252.2895833333314,
      "v": 100
    },
    {
      "midi": 66,
      "hit": false,
      "t": 82567.50000000012,
      "d": 487.3776041666715,
      "v": 70
    },
    {
      "midi": 69,
      "hit": false,
      "t": 82567.50000000012,
      "d": 487.3776041666715,
      "v": 100
    },
    {
      "midi": 45,
      "hit": false,
      "t": 82567.50000000012,
      "d": 544.716145833343,
      "v": 84
    },
    {
      "midi": 37,
      "hit": false,
      "t": 83117.95000000013,
      "d": 544.7161458333285,
      "v": 117
    },
    {
      "midi": 64,
      "hit": false,
      "t": 83117.95000000013,
      "d": 544.7161458333285,
      "v": 68
    },
    {
      "midi": 67,
      "hit": false,
      "t": 83117.95000000013,
      "d": 544.7161458333285,
      "v": 121
    },
    {
      "midi": 38,
      "hit": false,
      "t": 83668.40000000013,
      "d": 544.7161458333285,
      "v": 114
    },
    {
      "midi": 66,
      "hit": false,
      "t": 83668.40000000013,
      "d": 2098.590624999997,
      "v": 65
    },
    {
      "midi": 69,
      "hit": false,
      "t": 83668.40000000013,
      "d": 2098.590624999997,
      "v": 100
    },
    {
      "midi": 50,
      "hit": false,
      "t": 84218.85000000012,
      "d": 544.7161458333285,
      "v": 87
    },
    {
      "midi": 45,
      "hit": false,
      "t": 84769.30000000012,
      "d": 544.7161458333285,
      "v": 90
    },
    {
      "midi": 42,
      "hit": false,
      "t": 85319.75000000012,
      "d": 544.716145833343,
      "v": 87
    },
    {
      "midi": 38,
      "hit": false,
      "t": 85870.20000000013,
      "d": 544.7161458333285,
      "v": 114
    },
    {
      "midi": 42,
      "hit": false,
      "t": 86420.65000000013,
      "d": 544.7161458333285,
      "v": 87
    },
    {
      "midi": 40,
      "hit": false,
      "t": 86971.10000000012,
      "d": 544.7161458333285,
      "v": 90
    },
    {
      "midi": 39,
      "hit": false,
      "t": 87521.55000000012,
      "d": 544.7161458333285,
      "v": 87
    },
    {
      "midi": 66,
      "hit": false,
      "t": 88072.00000000012,
      "d": 1909.3734375000058,
      "v": 74
    },
    {
      "midi": 74,
      "hit": false,
      "t": 88072.00000000012,
      "d": 1972.445833333346,
      "v": 97
    },
    {
      "midi": 38,
      "hit": false,
      "t": 88072.00000000012,
      "d": 2041.2520833333401,
      "v": 99
    },
    {
      "midi": 45,
      "hit": false,
      "t": 88072.00000000012,
      "d": 2058.453645833346,
      "v": 83
    },
    {
      "midi": 50,
      "hit": false,
      "t": 90273.80000000013,
      "d": 2069.9213541666686,
      "v": 86
    },
    {
      "midi": 42,
      "hit": false,
      "t": 90273.80000000013,
      "d": 2075.655208333337,
      "v": 107
    },
    {
      "midi": 72,
      "hit": false,
      "t": 90273.80000000013,
      "d": 2121.5260416666715,
      "v": 81
    },
    {
      "midi": 69,
      "hit": false,
      "t": 90273.80000000013,
      "d": 2144.4614583333314,
      "v": 81
    },
    {
      "midi": 67,
      "hit": false,
      "t": 92475.60000000014,
      "d": 1370.3911458333314,
      "v": 81
    },
    {
      "midi": 71,
      "hit": false,
      "t": 92475.60000000014,
      "d": 1370.3911458333314,
      "v": 94
    },
    {
      "midi": 43,
      "hit": false,
      "t": 92475.60000000014,
      "d": 2196.0661458333198,
      "v": 96
    },
    {
      "midi": 50,
      "hit": false,
      "t": 92475.60000000014,
      "d": 2213.2677083333256,
      "v": 99
    },
    {
      "midi": 69,
      "hit": false,
      "t": 94126.95000000013,
      "d": 223.6203125000029,
      "v": 99
    },
    {
      "midi": 74,
      "hit": false,
      "t": 94126.95000000013,
      "d": 418.57135416667734,
      "v": 82
    },
    {
      "midi": 71,
      "hit": false,
      "t": 94310.43333333347,
      "d": 258.0234375,
      "v": 76
    },
    {
      "midi": 67,
      "hit": false,
      "t": 94493.9166666668,
      "d": 108.94322916665988,
      "v": 102
    },
    {
      "midi": 74,
      "hit": false,
      "t": 94677.40000000013,
      "d": 527.5145833333372,
      "v": 78
    },
    {
      "midi": 66,
      "hit": false,
      "t": 94677.40000000013,
      "d": 1049.2953125000058,
      "v": 99
    },
    {
      "midi": 72,
      "hit": false,
      "t": 95778.30000000013,
      "d": 389.9020833333343,
      "v": 94
    },
    {
      "midi": 64,
      "hit": false,
      "t": 95778.30000000013,
      "d": 395.6359375000029,
      "v": 92
    },
    {
      "midi": 71,
      "hit": false,
      "t": 96328.75000000013,
      "d": 538.9822916666599,
      "v": 104
    },
    {
      "midi": 62,
      "hit": false,
      "t": 96328.75000000013,
      "d": 544.7161458333285,
      "v": 66
    },
    {
      "midi": 50,
      "hit": false,
      "t": 96879.20000000013,
      "d": 1095.1661458333256,
      "v": 47
    },
    {
      "midi": 69,
      "hit": false,
      "t": 96879.20000000013,
      "d": 1616.9468749999942,
      "v": 96
    },
    {
      "midi": 60,
      "hit": false,
      "t": 96879.20000000013,
      "d": 1622.6807291666628,
      "v": 63
    },
    {
      "midi": 54,
      "hit": false,
      "t": 97429.65000000013,
      "d": 544.7161458333285,
      "v": 34
    },
    {
      "midi": 57,
      "hit": false,
      "t": 97429.65000000013,
      "d": 544.7161458333285,
      "v": 47
    },
    {
      "midi": 45,
      "hit": false,
      "t": 97980.10000000012,
      "d": 1095.1661458333256,
      "v": 53
    },
    {
      "midi": 54,
      "hit": false,
      "t": 98530.55000000012,
      "d": 544.7161458333285,
      "v": 29
    },
    {
      "midi": 57,
      "hit": false,
      "t": 98530.55000000012,
      "d": 544.7161458333285,
      "v": 51
    },
    {
      "midi": 71,
      "hit": false,
      "t": 98530.55000000012,
      "d": 544.7161458333285,
      "v": 99
    },
    {
      "midi": 62,
      "hit": false,
      "t": 98530.55000000012,
      "d": 550.4499999999971,
      "v": 66
    },
    {
      "midi": 64,
      "hit": false,
      "t": 99081.00000000012,
      "d": 470.1760416666657,
      "v": 65
    },
    {
      "midi": 72,
      "hit": false,
      "t": 99081.00000000012,
      "d": 544.7161458333285,
      "v": 102
    },
    {
      "midi": 50,
      "hit": false,
      "t": 99081.00000000012,
      "d": 1095.1661458333256,
      "v": 52
    },
    {
      "midi": 54,
      "hit": false,
      "t": 99631.45000000011,
      "d": 544.7161458333285,
      "v": 32
    },
    {
      "midi": 57,
      "hit": false,
      "t": 99631.45000000011,
      "d": 544.7161458333285,
      "v": 56
    },
    {
      "midi": 64,
      "hit": false,
      "t": 99631.45000000011,
      "d": 544.7161458333285,
      "v": 68
    },
    {
      "midi": 66,
      "hit": false,
      "t": 99631.45000000011,
      "d": 544.7161458333285,
      "v": 90
    },
    {
      "midi": 62,
      "hit": false,
      "t": 100181.90000000011,
      "d": 544.7161458333285,
      "v": 62
    },
    {
      "midi": 71,
      "hit": false,
      "t": 100181.90000000011,
      "d": 544.7161458333285,
      "v": 99
    },
    {
      "midi": 42,
      "hit": false,
      "t": 100181.90000000011,
      "d": 1095.1661458333256,
      "v": 47
    },
    {
      "midi": 48,
      "hit": false,
      "t": 100732.35000000011,
      "d": 544.7161458333285,
      "v": 50
    },
    {
      "midi": 50,
      "hit": false,
      "t": 100732.35000000011,
      "d": 544.7161458333285,
      "v": 58
    },
    {
      "midi": 60,
      "hit": false,
      "t": 100732.35000000011,
      "d": 544.7161458333285,
      "v": 64
    },
    {
      "midi": 69,
      "hit": false,
      "t": 100732.35000000011,
      "d": 544.7161458333285,
      "v": 83
    },
    {
      "midi": 43,
      "hit": false,
      "t": 101282.8000000001,
      "d": 1095.1661458333256,
      "v": 49
    },
    {
      "midi": 59,
      "hit": false,
      "t": 101282.8000000001,
      "d": 2196.0661458333343,
      "v": 63
    },
    {
      "midi": 67,
      "hit": false,
      "t": 101282.8000000001,
      "d": 2196.0661458333343,
      "v": 102
    },
    {
      "midi": 47,
      "hit": false,
      "t": 101833.2500000001,
      "d": 1508.0036458333343,
      "v": 40
    },
    {
      "midi": 50,
      "hit": false,
      "t": 101833.2500000001,
      "d": 1508.0036458333343,
      "v": 50
    },
    {
      "midi": 42,
      "hit": false,
      "t": 102383.7000000001,
      "d": 544.7161458333285,
      "v": 40
    },
    {
      "midi": 40,
      "hit": false,
      "t": 102934.1500000001,
      "d": 544.716145833343,
      "v": 44
    },
    {
      "midi": 60,
      "hit": false,
      "t": 103484.60000000011,
      "d": 544.7161458333285,
      "v": 34
    },
    {
      "midi": 62,
      "hit": false,
      "t": 103484.60000000011,
      "d": 544.7161458333285,
      "v": 37
    },
    {
      "midi": 66,
      "hit": false,
      "t": 103484.60000000011,
      "d": 544.7161458333285,
      "v": 39
    },
    {
      "midi": 38,
      "hit": false,
      "t": 103484.60000000011,
      "d": 2196.0661458333198,
      "v": 46
    },
    {
      "midi": 50,
      "hit": false,
      "t": 103484.60000000011,
      "d": 2196.0661458333198,
      "v": 54
    },
    {
      "midi": 62,
      "hit": false,
      "t": 104035.0500000001,
      "d": 544.7161458333285,
      "v": 104
    },
    {
      "midi": 59,
      "hit": false,
      "t": 104585.5000000001,
      "d": 544.7161458333285,
      "v": 55
    },
    {
      "midi": 67,
      "hit": false,
      "t": 104585.5000000001,
      "d": 544.7161458333285,
      "v": 100
    },
    {
      "midi": 62,
      "hit": false,
      "t": 105135.9500000001,
      "d": 544.7161458333285,
      "v": 56
    },
    {
      "midi": 69,
      "hit": false,
      "t": 105135.9500000001,
      "d": 544.7161458333285,
      "v": 100
    },
    {
      "midi": 43,
      "hit": false,
      "t": 105686.4000000001,
      "d": 1095.1661458333256,
      "v": 68
    },
    {
      "midi": 62,
      "hit": false,
      "t": 105686.4000000001,
      "d": 1611.2130208333256,
      "v": 72
    },
    {
      "midi": 71,
      "hit": false,
      "t": 105686.4000000001,
      "d": 1611.2130208333256,
      "v": 100
    },
    {
      "midi": 47,
      "hit": false,
      "t": 106236.8500000001,
      "d": 544.7161458333285,
      "v": 67
    },
    {
      "midi": 50,
      "hit": false,
      "t": 106236.8500000001,
      "d": 544.7161458333285,
      "v": 75
    },
    {
      "midi": 38,
      "hit": false,
      "t": 106787.30000000009,
      "d": 1095.1661458333256,
      "v": 63
    },
    {
      "midi": 47,
      "hit": false,
      "t": 107337.75000000009,
      "d": 544.7161458333285,
      "v": 60
    },
    {
      "midi": 50,
      "hit": false,
      "t": 107337.75000000009,
      "d": 544.7161458333285,
      "v": 60
    },
    {
      "midi": 67,
      "hit": false,
      "t": 107337.75000000009,
      "d": 544.7161458333285,
      "v": 100
    },
    {
      "midi": 62,
      "hit": false,
      "t": 107337.75000000009,
      "d": 888.7473958333285,
      "v": 81
    },
    {
      "midi": 66,
      "hit": false,
      "t": 107888.20000000008,
      "d": 338.2973958333314,
      "v": 100
    },
    {
      "midi": 45,
      "hit": false,
      "t": 107888.20000000008,
      "d": 1095.1661458333256,
      "v": 66
    },
    {
      "midi": 62,
      "hit": false,
      "t": 108232.23125000008,
      "d": 991.9567708333343,
      "v": 100
    },
    {
      "midi": 48,
      "hit": false,
      "t": 108438.65000000008,
      "d": 544.7161458333285,
      "v": 59
    },
    {
      "midi": 50,
      "hit": false,
      "t": 108438.65000000008,
      "d": 544.7161458333285,
      "v": 59
    },
    {
      "midi": 38,
      "hit": false,
      "t": 108989.10000000008,
      "d": 1095.1661458333401,
      "v": 68
    },
    {
      "midi": 60,
      "hit": false,
      "t": 109264.32500000008,
      "d": 407.1036458333401,
      "v": 66
    },
    {
      "midi": 66,
      "hit": false,
      "t": 109264.32500000008,
      "d": 407.1036458333401,
      "v": 100
    },
    {
      "midi": 48,
      "hit": false,
      "t": 109539.55000000009,
      "d": 544.7161458333285,
      "v": 66
    },
    {
      "midi": 50,
      "hit": false,
      "t": 109539.55000000009,
      "d": 544.7161458333285,
      "v": 66
    },
    {
      "midi": 60,
      "hit": false,
      "t": 109677.1625000001,
      "d": 372.7005208333285,
      "v": 84
    },
    {
      "midi": 69,
      "hit": false,
      "t": 109677.1625000001,
      "d": 372.7005208333285,
      "v": 100
    },
    {
      "midi": 43,
      "hit": false,
      "t": 110090.00000000009,
      "d": 1095.1661458333256,
      "v": 62
    },
    {
      "midi": 59,
      "hit": false,
      "t": 110090.00000000009,
      "d": 2660.508333333317,
      "v": 71
    },
    {
      "midi": 67,
      "hit": false,
      "t": 110090.00000000009,
      "d": 2660.508333333317,
      "v": 100
    },
    {
      "midi": 47,
      "hit": false,
      "t": 110640.45000000008,
      "d": 544.7161458333285,
      "v": 59
    },
    {
      "midi": 50,
      "hit": false,
      "t": 110640.45000000008,
      "d": 544.7161458333285,
      "v": 59
    },
    {
      "midi": 38,
      "hit": false,
      "t": 111190.90000000008,
      "d": 1095.1661458333256,
      "v": 66
    },
    {
      "midi": 47,
      "hit": false,
      "t": 111741.35000000008,
      "d": 544.7161458333285,
      "v": 60
    },
    {
      "midi": 50,
      "hit": false,
      "t": 111741.35000000008,
      "d": 544.7161458333285,
      "v": 60
    },
    {
      "midi": 43,
      "hit": false,
      "t": 112291.80000000008,
      "d": 1095.1661458333256,
      "v": 72
    },
    {
      "midi": 47,
      "hit": false,
      "t": 112842.25000000007,
      "d": 544.7161458333285,
      "v": 59
    },
    {
      "midi": 50,
      "hit": false,
      "t": 112842.25000000007,
      "d": 544.7161458333285,
      "v": 57
    },
    {
      "midi": 71,
      "hit": false,
      "t": 113392.70000000007,
      "d": 487.3776041666715,
      "v": 97
    },
    {
      "midi": 74,
      "hit": false,
      "t": 113392.70000000007,
      "d": 487.3776041666715,
      "v": 100
    },
    {
      "midi": 38,
      "hit": false,
      "t": 113392.70000000007,
      "d": 1095.1661458333401,
      "v": 68
    },
    {
      "midi": 71,
      "hit": false,
      "t": 113943.15000000008,
      "d": 475.9098958333343,
      "v": 102
    },
    {
      "midi": 74,
      "hit": false,
      "t": 113943.15000000008,
      "d": 475.9098958333343,
      "v": 100
    },
    {
      "midi": 47,
      "hit": false,
      "t": 113943.15000000008,
      "d": 544.7161458333285,
      "v": 65
    },
    {
      "midi": 50,
      "hit": false,
      "t": 113943.15000000008,
      "d": 544.7161458333285,
      "v": 63
    },
    {
      "midi": 48,
      "hit": false,
      "t": 114493.60000000008,
      "d": 1095.1661458333256,
      "v": 70
    },
    {
      "midi": 67,
      "hit": false,
      "t": 114493.60000000008,
      "d": 1628.4145833333314,
      "v": 88
    },
    {
      "midi": 76,
      "hit": false,
      "t": 114493.60000000008,
      "d": 1628.4145833333314,
      "v": 100
    },
    {
      "midi": 52,
      "hit": false,
      "t": 115044.05000000008,
      "d": 544.7161458333285,
      "v": 61
    },
    {
      "midi": 55,
      "hit": false,
      "t": 115044.05000000008,
      "d": 544.7161458333285,
      "v": 66
    },
    {
      "midi": 43,
      "hit": false,
      "t": 115594.50000000007,
      "d": 1095.1661458333401,
      "v": 69
    },
    {
      "midi": 67,
      "hit": false,
      "t": 116144.95000000007,
      "d": 527.5145833333372,
      "v": 84
    },
    {
      "midi": 72,
      "hit": false,
      "t": 116144.95000000007,
      "d": 527.5145833333372,
      "v": 100
    },
    {
      "midi": 52,
      "hit": false,
      "t": 116144.95000000007,
      "d": 544.716145833343,
      "v": 56
    },
    {
      "midi": 55,
      "hit": false,
      "t": 116144.95000000007,
      "d": 544.716145833343,
      "v": 55
    },
    {
      "midi": 67,
      "hit": false,
      "t": 116695.40000000008,
      "d": 338.2973958333314,
      "v": 100
    },
    {
      "midi": 48,
      "hit": false,
      "t": 116695.40000000008,
      "d": 1095.1661458333256,
      "v": 69
    },
    {
      "midi": 64,
      "hit": false,
      "t": 117039.43125000008,
      "d": 997.6906249999884,
      "v": 100
    },
    {
      "midi": 52,
      "hit": false,
      "t": 117245.85000000008,
      "d": 544.7161458333285,
      "v": 59
    },
    {
      "midi": 55,
      "hit": false,
      "t": 117245.85000000008,
      "d": 544.7161458333285,
      "v": 61
    },
    {
      "midi": 43,
      "hit": false,
      "t": 117796.30000000008,
      "d": 1095.166145833311,
      "v": 66
    },
    {
      "midi": 64,
      "hit": false,
      "t": 118071.52500000007,
      "d": 389.9020833333343,
      "v": 83
    },
    {
      "midi": 67,
      "hit": false,
      "t": 118071.52500000007,
      "d": 389.9020833333343,
      "v": 100
    },
    {
      "midi": 52,
      "hit": false,
      "t": 118346.75000000007,
      "d": 544.7161458333139,
      "v": 61
    },
    {
      "midi": 55,
      "hit": false,
      "t": 118346.75000000007,
      "d": 544.7161458333139,
      "v": 65
    },
    {
      "midi": 67,
      "hit": false,
      "t": 118484.36250000006,
      "d": 378.4343749999971,
      "v": 83
    },
    {
      "midi": 76,
      "hit": false,
      "t": 118484.36250000006,
      "d": 378.4343749999971,
      "v": 100
    },
    {
      "midi": 43,
      "hit": false,
      "t": 118897.20000000006,
      "d": 1095.1661458333256,
      "v": 63
    },
    {
      "midi": 71,
      "hit": false,
      "t": 118897.20000000006,
      "d": 2511.4281249999913,
      "v": 77
    },
    {
      "midi": 74,
      "hit": false,
      "t": 118897.20000000006,
      "d": 2511.4281249999913,
      "v": 100
    },
    {
      "midi": 47,
      "hit": false,
      "t": 119447.65000000005,
      "d": 544.7161458333285,
      "v": 54
    },
    {
      "midi": 50,
      "hit": false,
      "t": 119447.65000000005,
      "d": 544.7161458333285,
      "v": 56
    },
    {
      "midi": 38,
      "hit": false,
      "t": 119998.10000000005,
      "d": 1095.1661458333256,
      "v": 59
    },
    {
      "midi": 47,
      "hit": false,
      "t": 120548.55000000005,
      "d": 544.7161458333285,
      "v": 59
    },
    {
      "midi": 50,
      "hit": false,
      "t": 120548.55000000005,
      "d": 544.7161458333285,
      "v": 57
    },
    {
      "midi": 43,
      "hit": false,
      "t": 121099.00000000004,
      "d": 1095.1661458333256,
      "v": 65
    },
    {
      "midi": 47,
      "hit": false,
      "t": 121649.45000000004,
      "d": 544.7161458333285,
      "v": 62
    },
    {
      "midi": 50,
      "hit": false,
      "t": 121649.45000000004,
      "d": 544.7161458333285,
      "v": 57
    },
    {
      "midi": 38,
      "hit": false,
      "t": 122199.90000000004,
      "d": 1095.1661458333256,
      "v": 68
    },
    {
      "midi": 67,
      "hit": false,
      "t": 122566.8666666667,
      "d": 338.2973958333314,
      "v": 86
    },
    {
      "midi": 71,
      "hit": false,
      "t": 122566.8666666667,
      "d": 338.2973958333314,
      "v": 100
    },
    {
      "midi": 47,
      "hit": false,
      "t": 122750.35000000003,
      "d": 544.7161458333285,
      "v": 62
    },
    {
      "midi": 50,
      "hit": false,
      "t": 122750.35000000003,
      "d": 544.7161458333285,
      "v": 63
    },
    {
      "midi": 67,
      "hit": false,
      "t": 122933.83333333336,
      "d": 309.6281250000029,
      "v": 85
    },
    {
      "midi": 71,
      "hit": false,
      "t": 122933.83333333336,
      "d": 309.6281250000029,
      "v": 100
    },
    {
      "midi": 38,
      "hit": false,
      "t": 123300.80000000003,
      "d": 1095.1661458333256,
      "v": 67
    },
    {
      "midi": 66,
      "hit": false,
      "t": 123300.80000000003,
      "d": 1588.2776041666657,
      "v": 58
    },
    {
      "midi": 69,
      "hit": false,
      "t": 123300.80000000003,
      "d": 1588.2776041666657,
      "v": 100
    },
    {
      "midi": 48,
      "hit": false,
      "t": 123851.25000000003,
      "d": 544.7161458333285,
      "v": 54
    },
    {
      "midi": 50,
      "hit": false,
      "t": 123851.25000000003,
      "d": 544.7161458333285,
      "v": 57
    },
    {
      "midi": 45,
      "hit": false,
      "t": 124401.70000000003,
      "d": 1095.1661458333401,
      "v": 72
    },
    {
      "midi": 48,
      "hit": false,
      "t": 124952.15000000004,
      "d": 544.7161458333285,
      "v": 58
    },
    {
      "midi": 50,
      "hit": false,
      "t": 124952.15000000004,
      "d": 544.7161458333285,
      "v": 58
    },
    {
      "midi": 67,
      "hit": false,
      "t": 124952.15000000004,
      "d": 544.7161458333285,
      "v": 78
    },
    {
      "midi": 71,
      "hit": false,
      "t": 124952.15000000004,
      "d": 544.7161458333285,
      "v": 100
    },
    {
      "midi": 69,
      "hit": false,
      "t": 125502.60000000003,
      "d": 332.5635416666628,
      "v": 74
    },
    {
      "midi": 72,
      "hit": false,
      "t": 125502.60000000003,
      "d": 332.5635416666628,
      "v": 100
    },
    {
      "midi": 45,
      "hit": false,
      "t": 125502.60000000003,
      "d": 1095.1661458333401,
      "v": 62
    },
    {
      "midi": 64,
      "hit": false,
      "t": 125846.63125000003,
      "d": 739.6671875000029,
      "v": 58
    },
    {
      "midi": 69,
      "hit": false,
      "t": 125846.63125000003,
      "d": 739.6671875000029,
      "v": 100
    },
    {
      "midi": 48,
      "hit": false,
      "t": 126053.05000000003,
      "d": 544.716145833343,
      "v": 60
    },
    {
      "midi": 52,
      "hit": false,
      "t": 126053.05000000003,
      "d": 544.716145833343,
      "v": 60
    },
    {
      "midi": 62,
      "hit": false,
      "t": 126603.50000000004,
      "d": 533.2484375000058,
      "v": 54
    },
    {
      "midi": 66,
      "hit": false,
      "t": 126603.50000000004,
      "d": 533.2484375000058,
      "v": 100
    },
    {
      "midi": 38,
      "hit": false,
      "t": 126603.50000000004,
      "d": 1095.1661458333401,
      "v": 52
    },
    {
      "midi": 48,
      "hit": false,
      "t": 127153.95000000006,
      "d": 544.7161458333285,
      "v": 55
    },
    {
      "midi": 50,
      "hit": false,
      "t": 127153.95000000006,
      "d": 544.7161458333285,
      "v": 54
    },
    {
      "midi": 62,
      "hit": false,
      "t": 127153.95000000006,
      "d": 544.7161458333285,
      "v": 100
    },
    {
      "midi": 43,
      "hit": false,
      "t": 127704.40000000005,
      "d": 1095.1661458333256,
      "v": 60
    },
    {
      "midi": 62,
      "hit": false,
      "t": 127704.40000000005,
      "d": 2178.8645833333285,
      "v": 66
    },
    {
      "midi": 71,
      "hit": false,
      "t": 127704.40000000005,
      "d": 2178.8645833333285,
      "v": 100
    },
    {
      "midi": 47,
      "hit": false,
      "t": 128254.85000000005,
      "d": 544.7161458333285,
      "v": 54
    },
    {
      "midi": 50,
      "hit": false,
      "t": 128254.85000000005,
      "d": 544.7161458333285,
      "v": 51
    },
    {
      "midi": 38,
      "hit": false,
      "t": 128805.30000000005,
      "d": 1095.1661458333401,
      "v": 61
    },
    {
      "midi": 47,
      "hit": false,
      "t": 129355.75000000004,
      "d": 544.716145833343,
      "v": 56
    },
    {
      "midi": 50,
      "hit": false,
      "t": 129355.75000000004,
      "d": 544.716145833343,
      "v": 56
    },
    {
      "midi": 43,
      "hit": false,
      "t": 129906.20000000006,
      "d": 1095.1661458333256,
      "v": 63
    },
    {
      "midi": 47,
      "hit": false,
      "t": 130456.65000000005,
      "d": 544.7161458333285,
      "v": 60
    },
    {
      "midi": 50,
      "hit": false,
      "t": 130456.65000000005,
      "d": 544.7161458333285,
      "v": 57
    },
    {
      "midi": 38,
      "hit": false,
      "t": 131007.10000000005,
      "d": 1095.1661458333401,
      "v": 66
    },
    {
      "midi": 59,
      "hit": false,
      "t": 131374.0666666667,
      "d": 361.2328125000058,
      "v": 79
    },
    {
      "midi": 67,
      "hit": false,
      "t": 131374.0666666667,
      "d": 361.2328125000058,
      "v": 100
    },
    {
      "midi": 47,
      "hit": false,
      "t": 131557.55000000005,
      "d": 544.716145833343,
      "v": 63
    },
    {
      "midi": 50,
      "hit": false,
      "t": 131557.55000000005,
      "d": 544.716145833343,
      "v": 62
    },
    {
      "midi": 59,
      "hit": false,
      "t": 131741.03333333338,
      "d": 286.69270833334303,
      "v": 83
    },
    {
      "midi": 67,
      "hit": false,
      "t": 131741.03333333338,
      "d": 286.69270833334303,
      "v": 100
    },
    {
      "midi": 38,
      "hit": false,
      "t": 132108.00000000006,
      "d": 1095.1661458333547,
      "v": 66
    },
    {
      "midi": 60,
      "hit": false,
      "t": 132108.00000000006,
      "d": 1886.4380208333605,
      "v": 63
    },
    {
      "midi": 66,
      "hit": false,
      "t": 132108.00000000006,
      "d": 1886.4380208333605,
      "v": 100
    },
    {
      "midi": 48,
      "hit": false,
      "t": 132658.45000000007,
      "d": 544.716145833343,
      "v": 56
    },
    {
      "midi": 50,
      "hit": false,
      "t": 132658.45000000007,
      "d": 544.716145833343,
      "v": 56
    },
    {
      "midi": 45,
      "hit": false,
      "t": 133208.90000000008,
      "d": 1095.1661458333547,
      "v": 70
    },
    {
      "midi": 48,
      "hit": false,
      "t": 133759.3500000001,
      "d": 544.716145833343,
      "v": 60
    },
    {
      "midi": 50,
      "hit": false,
      "t": 133759.3500000001,
      "d": 544.716145833343,
      "v": 63
    },
    {
      "midi": 67,
      "hit": false,
      "t": 134103.3812500001,
      "d": 172.015625,
      "v": 100
    },
    {
      "midi": 60,
      "hit": false,
      "t": 134309.8000000001,
      "d": 493.1114583333256,
      "v": 82
    },
    {
      "midi": 69,
      "hit": false,
      "t": 134309.8000000001,
      "d": 493.1114583333256,
      "v": 100
    },
    {
      "midi": 45,
      "hit": false,
      "t": 134309.8000000001,
      "d": 1095.1661458332965,
      "v": 69
    },
    {
      "midi": 60,
      "hit": false,
      "t": 134860.2500000001,
      "d": 481.64374999998836,
      "v": 81
    },
    {
      "midi": 69,
      "hit": false,
      "t": 134860.2500000001,
      "d": 481.64374999998836,
      "v": 100
    },
    {
      "midi": 48,
      "hit": false,
      "t": 134860.2500000001,
      "d": 544.7161458333139,
      "v": 63
    },
    {
      "midi": 52,
      "hit": false,
      "t": 134860.2500000001,
      "d": 544.7161458333139,
      "v": 62
    },
    {
      "midi": 60,
      "hit": false,
      "t": 135410.70000000007,
      "d": 733.9333333333489,
      "v": 70
    },
    {
      "midi": 67,
      "hit": false,
      "t": 135410.70000000007,
      "d": 733.9333333333489,
      "v": 100
    },
    {
      "midi": 38,
      "hit": false,
      "t": 135410.70000000007,
      "d": 1095.1661458333547,
      "v": 52
    },
    {
      "midi": 48,
      "hit": false,
      "t": 135961.15000000008,
      "d": 544.716145833343,
      "v": 59
    },
    {
      "midi": 50,
      "hit": false,
      "t": 135961.15000000008,
      "d": 544.716145833343,
      "v": 59
    },
    {
      "midi": 60,
      "hit": false,
      "t": 136236.3750000001,
      "d": 315.36197916668607,
      "v": 61
    },
    {
      "midi": 66,
      "hit": false,
      "t": 136236.3750000001,
      "d": 315.36197916668607,
      "v": 100
    },
    {
      "midi": 43,
      "hit": false,
      "t": 136511.6000000001,
      "d": 1095.1661458333547,
      "v": 60
    },
    {
      "midi": 59,
      "hit": false,
      "t": 136551.73697916677,
      "d": 3159.353645833384,
      "v": 60
    },
    {
      "midi": 67,
      "hit": false,
      "t": 136551.73697916677,
      "d": 3159.353645833384,
      "v": 100
    },
    {
      "midi": 47,
      "hit": false,
      "t": 137062.0500000001,
      "d": 544.716145833343,
      "v": 58
    },
    {
      "midi": 50,
      "hit": false,
      "t": 137062.0500000001,
      "d": 544.716145833343,
      "v": 54
    },
    {
      "midi": 38,
      "hit": false,
      "t": 137612.50000000012,
      "d": 1095.1661458333547,
      "v": 57
    },
    {
      "midi": 47,
      "hit": false,
      "t": 138162.95000000013,
      "d": 544.716145833343,
      "v": 51
    },
    {
      "midi": 50,
      "hit": false,
      "t": 138162.95000000013,
      "d": 544.716145833343,
      "v": 49
    },
    {
      "midi": 43,
      "hit": false,
      "t": 138713.40000000014,
      "d": 1095.1661458333547,
      "v": 59
    },
    {
      "midi": 47,
      "hit": false,
      "t": 139263.85000000015,
      "d": 544.716145833343,
      "v": 59
    },
    {
      "midi": 50,
      "hit": false,
      "t": 139263.85000000015,
      "d": 544.716145833343,
      "v": 59
    },
    {
      "midi": 71,
      "hit": false,
      "t": 139814.30000000016,
      "d": 321.0958333333256,
      "v": 87
    },
    {
      "midi": 74,
      "hit": false,
      "t": 139814.30000000016,
      "d": 321.0958333333256,
      "v": 100
    },
    {
      "midi": 45,
      "hit": false,
      "t": 139814.30000000016,
      "d": 544.7161458333139,
      "v": 74
    },
    {
      "midi": 71,
      "hit": false,
      "t": 140181.2666666668,
      "d": 321.0958333333256,
      "v": 84
    },
    {
      "midi": 74,
      "hit": false,
      "t": 140181.2666666668,
      "d": 338.2973958333314,
      "v": 100
    },
    {
      "midi": 47,
      "hit": false,
      "t": 140364.75000000015,
      "d": 544.716145833343,
      "v": 90
    },
    {
      "midi": 71,
      "hit": false,
      "t": 140548.23333333348,
      "d": 240.82187499999418,
      "v": 84
    },
    {
      "midi": 74,
      "hit": false,
      "t": 140548.23333333348,
      "d": 240.82187499999418,
      "v": 100
    },
    {
      "midi": 48,
      "hit": false,
      "t": 140915.20000000016,
      "d": 544.716145833343,
      "v": 89
    },
    {
      "midi": 72,
      "hit": false,
      "t": 140915.20000000016,
      "d": 1324.5203125000116,
      "v": 106
    },
    {
      "midi": 76,
      "hit": false,
      "t": 140915.20000000016,
      "d": 1324.5203125000116,
      "v": 100
    },
    {
      "midi": 52,
      "hit": false,
      "t": 141465.65000000017,
      "d": 544.716145833343,
      "v": 65
    },
    {
      "midi": 55,
      "hit": false,
      "t": 141465.65000000017,
      "d": 544.716145833343,
      "v": 70
    },
    {
      "midi": 43,
      "hit": false,
      "t": 142016.10000000018,
      "d": 544.7161458333139,
      "v": 67
    },
    {
      "midi": 72,
      "hit": false,
      "t": 142291.32500000016,
      "d": 389.90208333334886,
      "v": 97
    },
    {
      "midi": 76,
      "hit": false,
      "t": 142291.32500000016,
      "d": 389.90208333334886,
      "v": 100
    },
    {
      "midi": 52,
      "hit": false,
      "t": 142566.55000000016,
      "d": 544.7161458333721,
      "v": 66
    },
    {
      "midi": 55,
      "hit": false,
      "t": 142566.55000000016,
      "d": 544.7161458333721,
      "v": 70
    },
    {
      "midi": 72,
      "hit": false,
      "t": 142704.16250000018,
      "d": 166.2817708333314,
      "v": 100
    },
    {
      "midi": 72,
      "hit": false,
      "t": 142910.5812500002,
      "d": 183.4833333333372,
      "v": 86
    },
    {
      "midi": 76,
      "hit": false,
      "t": 142910.5812500002,
      "d": 183.4833333333372,
      "v": 100
    },
    {
      "midi": 48,
      "hit": false,
      "t": 143117.0000000002,
      "d": 544.716145833343,
      "v": 81
    },
    {
      "midi": 76,
      "hit": false,
      "t": 143117.0000000002,
      "d": 819.9411458333489,
      "v": 106
    },
    {
      "midi": 79,
      "hit": false,
      "t": 143117.0000000002,
      "d": 819.9411458333489,
      "v": 100
    },
    {
      "midi": 52,
      "hit": false,
      "t": 143667.45000000022,
      "d": 544.716145833343,
      "v": 70
    },
    {
      "midi": 55,
      "hit": false,
      "t": 143667.45000000022,
      "d": 544.716145833343,
      "v": 74
    },
    {
      "midi": 76,
      "hit": false,
      "t": 144011.48125000022,
      "d": 200.68489583334303,
      "v": 87
    },
    {
      "midi": 79,
      "hit": false,
      "t": 144011.48125000022,
      "d": 200.68489583334303,
      "v": 100
    },
    {
      "midi": 72,
      "hit": false,
      "t": 144217.90000000023,
      "d": 458.70833333334303,
      "v": 67
    },
    {
      "midi": 78,
      "hit": false,
      "t": 144217.90000000023,
      "d": 458.70833333334303,
      "v": 100
    },
    {
      "midi": 48,
      "hit": false,
      "t": 144217.90000000023,
      "d": 544.716145833343,
      "v": 90
    },
    {
      "midi": 72,
      "hit": false,
      "t": 144768.35000000024,
      "d": 538.9822916666744,
      "v": 87
    },
    {
      "midi": 76,
      "hit": false,
      "t": 144768.35000000024,
      "d": 538.9822916666744,
      "v": 100
    },
    {
      "midi": 52,
      "hit": false,
      "t": 144768.35000000024,
      "d": 544.716145833343,
      "v": 71
    },
    {
      "midi": 55,
      "hit": false,
      "t": 144768.35000000024,
      "d": 544.716145833343,
      "v": 77
    },
    {
      "midi": 72,
      "hit": false,
      "t": 145318.80000000025,
      "d": 269.4911458333372,
      "v": 87
    },
    {
      "midi": 76,
      "hit": false,
      "t": 145318.80000000025,
      "d": 269.4911458333372,
      "v": 100
    },
    {
      "midi": 43,
      "hit": false,
      "t": 145318.80000000025,
      "d": 544.716145833343,
      "v": 73
    },
    {
      "midi": 71,
      "hit": false,
      "t": 145662.83125000025,
      "d": 986.2229166666802,
      "v": 71
    },
    {
      "midi": 74,
      "hit": false,
      "t": 145662.83125000025,
      "d": 986.2229166666802,
      "v": 100
    },
    {
      "midi": 47,
      "hit": false,
      "t": 145869.25000000026,
      "d": 544.716145833343,
      "v": 63
    },
    {
      "midi": 50,
      "hit": false,
      "t": 145869.25000000026,
      "d": 544.716145833343,
      "v": 63
    },
    {
      "midi": 38,
      "hit": false,
      "t": 146419.70000000027,
      "d": 544.7161458333139,
      "v": 66
    },
    {
      "midi": 71,
      "hit": false,
      "t": 146694.92500000025,
      "d": 401.36979166668607,
      "v": 79
    },
    {
      "midi": 74,
      "hit": false,
      "t": 146694.92500000025,
      "d": 401.36979166668607,
      "v": 100
    },
    {
      "midi": 47,
      "hit": false,
      "t": 146970.15000000026,
      "d": 544.716145833343,
      "v": 69
    },
    {
      "midi": 50,
      "hit": false,
      "t": 146970.15000000026,
      "d": 544.716145833343,
      "v": 70
    },
    {
      "midi": 70,
      "hit": false,
      "t": 147107.76250000027,
      "d": 407.1036458333256,
      "v": 81
    },
    {
      "midi": 73,
      "hit": false,
      "t": 147107.76250000027,
      "d": 407.1036458333256,
      "v": 100
    },
    {
      "midi": 43,
      "hit": false,
      "t": 147520.60000000027,
      "d": 544.716145833343,
      "v": 75
    },
    {
      "midi": 71,
      "hit": false,
      "t": 147520.60000000027,
      "d": 1433.463541666686,
      "v": 82
    },
    {
      "midi": 74,
      "hit": false,
      "t": 147520.60000000027,
      "d": 1433.463541666686,
      "v": 100
    },
    {
      "midi": 47,
      "hit": false,
      "t": 148071.05000000028,
      "d": 544.716145833343,
      "v": 69
    },
    {
      "midi": 50,
      "hit": false,
      "t": 148071.05000000028,
      "d": 544.716145833343,
      "v": 69
    },
    {
      "midi": 43,
      "hit": false,
      "t": 148621.5000000003,
      "d": 544.716145833343,
      "v": 64
    },
    {
      "midi": 67,
      "hit": false,
      "t": 148988.46666666697,
      "d": 332.5635416666628,
      "v": 94
    },
    {
      "midi": 74,
      "hit": false,
      "t": 148988.46666666697,
      "d": 332.5635416666628,
      "v": 100
    },
    {
      "midi": 47,
      "hit": false,
      "t": 149171.9500000003,
      "d": 544.716145833343,
      "v": 69
    },
    {
      "midi": 50,
      "hit": false,
      "t": 149171.9500000003,
      "d": 544.716145833343,
      "v": 67
    },
    {
      "midi": 67,
      "hit": false,
      "t": 149355.43333333364,
      "d": 252.2895833333314,
      "v": 97
    },
    {
      "midi": 74,
      "hit": false,
      "t": 149355.43333333364,
      "d": 252.2895833333314,
      "v": 100
    },
    {
      "midi": 66,
      "hit": false,
      "t": 149722.4000000003,
      "d": 309.62812499998836,
      "v": 104
    },
    {
      "midi": 74,
      "hit": false,
      "t": 149722.4000000003,
      "d": 309.62812499998836,
      "v": 100
    },
    {
      "midi": 38,
      "hit": false,
      "t": 149722.4000000003,
      "d": 544.716145833343,
      "v": 81
    },
    {
      "midi": 66,
      "hit": false,
      "t": 150066.4312500003,
      "d": 991.9567708333489,
      "v": 81
    },
    {
      "midi": 72,
      "hit": false,
      "t": 150066.4312500003,
      "d": 991.9567708333489,
      "v": 100
    },
    {
      "midi": 48,
      "hit": false,
      "t": 150272.85000000033,
      "d": 544.716145833343,
      "v": 70
    },
    {
      "midi": 50,
      "hit": false,
      "t": 150272.85000000033,
      "d": 544.716145833343,
      "v": 72
    },
    {
      "midi": 45,
      "hit": false,
      "t": 150823.30000000034,
      "d": 544.7161458333139,
      "v": 70
    },
    {
      "midi": 66,
      "hit": false,
      "t": 151190.26666666698,
      "d": 355.4989583333372,
      "v": 96
    },
    {
      "midi": 72,
      "hit": false,
      "t": 151190.26666666698,
      "d": 355.4989583333372,
      "v": 100
    },
    {
      "midi": 48,
      "hit": false,
      "t": 151373.75000000032,
      "d": 544.716145833343,
      "v": 66
    },
    {
      "midi": 50,
      "hit": false,
      "t": 151373.75000000032,
      "d": 544.716145833343,
      "v": 65
    },
    {
      "midi": 66,
      "hit": false,
      "t": 151557.23333333366,
      "d": 280.9588541666744,
      "v": 82
    },
    {
      "midi": 71,
      "hit": false,
      "t": 151557.23333333366,
      "d": 280.9588541666744,
      "v": 100
    },
    {
      "midi": 38,
      "hit": false,
      "t": 151924.20000000033,
      "d": 544.716145833343,
      "v": 72
    },
    {
      "midi": 66,
      "hit": false,
      "t": 151924.20000000033,
      "d": 1066.4968750000116,
      "v": 66
    },
    {
      "midi": 72,
      "hit": false,
      "t": 151924.20000000033,
      "d": 1066.4968750000116,
      "v": 100
    },
    {
      "midi": 48,
      "hit": false,
      "t": 152474.65000000034,
      "d": 544.716145833343,
      "v": 74
    },
    {
      "midi": 50,
      "hit": false,
      "t": 152474.65000000034,
      "d": 544.716145833343,
      "v": 75
    },
    {
      "midi": 45,
      "hit": false,
      "t": 153025.10000000036,
      "d": 544.716145833343,
      "v": 71
    },
    {
      "midi": 66,
      "hit": false,
      "t": 153025.10000000036,
      "d": 837.1427083333547,
      "v": 90
    },
    {
      "midi": 72,
      "hit": false,
      "t": 153025.10000000036,
      "d": 837.1427083333547,
      "v": 100
    },
    {
      "midi": 48,
      "hit": false,
      "t": 153575.55000000037,
      "d": 544.716145833343,
      "v": 70
    },
    {
      "midi": 50,
      "hit": false,
      "t": 153575.55000000037,
      "d": 544.716145833343,
      "v": 70
    },
    {
      "midi": 66,
      "hit": false,
      "t": 153919.58125000037,
      "d": 189.21718750000582,
      "v": 70
    },
    {
      "midi": 74,
      "hit": false,
      "t": 153919.58125000037,
      "d": 189.21718750000582,
      "v": 100
    },
    {
      "midi": 67,
      "hit": false,
      "t": 154126.00000000038,
      "d": 521.7807291666686,
      "v": 68
    },
    {
      "midi": 72,
      "hit": false,
      "t": 154126.00000000038,
      "d": 521.7807291666686,
      "v": 100
    },
    {
      "midi": 43,
      "hit": false,
      "t": 154126.00000000038,
      "d": 544.716145833343,
      "v": 77
    },
    {
      "midi": 47,
      "hit": false,
      "t": 154676.4500000004,
      "d": 544.716145833343,
      "v": 66
    },
    {
      "midi": 50,
      "hit": false,
      "t": 154676.4500000004,
      "d": 544.716145833343,
      "v": 65
    },
    {
      "midi": 67,
      "hit": false,
      "t": 154676.4500000004,
      "d": 1685.7531250000466,
      "v": 66
    },
    {
      "midi": 71,
      "hit": false,
      "t": 154676.4500000004,
      "d": 1685.7531250000466,
      "v": 100
    },
    {
      "midi": 38,
      "hit": false,
      "t": 155226.9000000004,
      "d": 544.716145833343,
      "v": 81
    },
    {
      "midi": 47,
      "hit": false,
      "t": 155777.3500000004,
      "d": 544.716145833343,
      "v": 70
    },
    {
      "midi": 50,
      "hit": false,
      "t": 155777.3500000004,
      "d": 544.716145833343,
      "v": 70
    },
    {
      "midi": 43,
      "hit": false,
      "t": 156327.80000000042,
      "d": 544.716145833343,
      "v": 87
    },
    {
      "midi": 47,
      "hit": false,
      "t": 156878.25000000044,
      "d": 544.716145833343,
      "v": 78
    },
    {
      "midi": 50,
      "hit": false,
      "t": 156878.25000000044,
      "d": 544.716145833343,
      "v": 78
    },
    {
      "midi": 67,
      "hit": false,
      "t": 157428.70000000045,
      "d": 349.7651041666686,
      "v": 81
    },
    {
      "midi": 71,
      "hit": false,
      "t": 157428.70000000045,
      "d": 349.7651041666686,
      "v": 100
    },
    {
      "midi": 45,
      "hit": false,
      "t": 157428.70000000045,
      "d": 544.716145833343,
      "v": 87
    },
    {
      "midi": 69,
      "hit": false,
      "t": 157795.66666666712,
      "d": 355.4989583333372,
      "v": 87
    },
    {
      "midi": 72,
      "hit": false,
      "t": 157795.66666666712,
      "d": 355.4989583333372,
      "v": 100
    },
    {
      "midi": 47,
      "hit": false,
      "t": 157979.15000000046,
      "d": 544.716145833343,
      "v": 87
    },
    {
      "midi": 71,
      "hit": false,
      "t": 158162.6333333338,
      "d": 298.16041666668025,
      "v": 96
    },
    {
      "midi": 74,
      "hit": false,
      "t": 158162.6333333338,
      "d": 298.16041666668025,
      "v": 100
    },
    {
      "midi": 48,
      "hit": false,
      "t": 158529.60000000047,
      "d": 544.716145833343,
      "v": 84
    },
    {
      "midi": 72,
      "hit": false,
      "t": 158529.60000000047,
      "d": 1095.1661458333547,
      "v": 82
    },
    {
      "midi": 76,
      "hit": false,
      "t": 158529.60000000047,
      "d": 1095.1661458333547,
      "v": 100
    },
    {
      "midi": 52,
      "hit": false,
      "t": 159080.05000000048,
      "d": 544.716145833343,
      "v": 70
    },
    {
      "midi": 55,
      "hit": false,
      "t": 159080.05000000048,
      "d": 544.716145833343,
      "v": 74
    },
    {
      "midi": 67,
      "hit": false,
      "t": 159630.5000000005,
      "d": 510.3130208333314,
      "v": 94
    },
    {
      "midi": 72,
      "hit": false,
      "t": 159630.5000000005,
      "d": 510.3130208333314,
      "v": 100
    },
    {
      "midi": 43,
      "hit": false,
      "t": 159630.5000000005,
      "d": 544.716145833343,
      "v": 81
    },
    {
      "midi": 72,
      "hit": false,
      "t": 160180.9500000005,
      "d": 504.5791666666628,
      "v": 81
    },
    {
      "midi": 76,
      "hit": false,
      "t": 160180.9500000005,
      "d": 504.5791666666628,
      "v": 100
    },
    {
      "midi": 52,
      "hit": false,
      "t": 160180.9500000005,
      "d": 544.716145833343,
      "v": 67
    },
    {
      "midi": 55,
      "hit": false,
      "t": 160180.9500000005,
      "d": 544.716145833343,
      "v": 68
    },
    {
      "midi": 48,
      "hit": false,
      "t": 160731.40000000052,
      "d": 544.716145833343,
      "v": 87
    },
    {
      "midi": 76,
      "hit": false,
      "t": 160731.40000000052,
      "d": 814.2072916666802,
      "v": 94
    },
    {
      "midi": 79,
      "hit": false,
      "t": 160731.40000000052,
      "d": 814.2072916666802,
      "v": 100
    },
    {
      "midi": 52,
      "hit": false,
      "t": 161281.85000000053,
      "d": 544.716145833343,
      "v": 70
    },
    {
      "midi": 55,
      "hit": false,
      "t": 161281.85000000053,
      "d": 544.716145833343,
      "v": 71
    },
    {
      "midi": 76,
      "hit": false,
      "t": 161557.07500000054,
      "d": 258.0234375,
      "v": 92
    },
    {
      "midi": 79,
      "hit": false,
      "t": 161557.07500000054,
      "d": 258.0234375,
      "v": 100
    },
    {
      "midi": 48,
      "hit": false,
      "t": 161832.30000000054,
      "d": 544.716145833343,
      "v": 92
    },
    {
      "midi": 74,
      "hit": false,
      "t": 161832.30000000054,
      "d": 544.716145833343,
      "v": 84
    },
    {
      "midi": 78,
      "hit": false,
      "t": 161832.30000000054,
      "d": 544.716145833343,
      "v": 100
    },
    {
      "midi": 72,
      "hit": false,
      "t": 162382.75000000055,
      "d": 481.64374999998836,
      "v": 70
    },
    {
      "midi": 76,
      "hit": false,
      "t": 162382.75000000055,
      "d": 481.64374999998836,
      "v": 100
    },
    {
      "midi": 52,
      "hit": false,
      "t": 162382.75000000055,
      "d": 544.7161458333139,
      "v": 71
    },
    {
      "midi": 55,
      "hit": false,
      "t": 162382.75000000055,
      "d": 544.7161458333139,
      "v": 73
    },
    {
      "midi": 72,
      "hit": false,
      "t": 162933.20000000054,
      "d": 303.89427083331975,
      "v": 83
    },
    {
      "midi": 76,
      "hit": false,
      "t": 162933.20000000054,
      "d": 303.89427083331975,
      "v": 100
    },
    {
      "midi": 43,
      "hit": false,
      "t": 162933.20000000054,
      "d": 544.716145833343,
      "v": 70
    },
    {
      "midi": 71,
      "hit": false,
      "t": 163277.23125000054,
      "d": 871.5458333333663,
      "v": 62
    },
    {
      "midi": 74,
      "hit": false,
      "t": 163277.23125000054,
      "d": 871.5458333333663,
      "v": 100
    },
    {
      "midi": 47,
      "hit": false,
      "t": 163483.65000000055,
      "d": 544.716145833343,
      "v": 65
    },
    {
      "midi": 50,
      "hit": false,
      "t": 163483.65000000055,
      "d": 544.716145833343,
      "v": 66
    },
    {
      "midi": 38,
      "hit": false,
      "t": 164034.10000000056,
      "d": 544.716145833343,
      "v": 75
    },
    {
      "midi": 71,
      "hit": false,
      "t": 164309.32500000056,
      "d": 407.1036458333256,
      "v": 82
    },
    {
      "midi": 74,
      "hit": false,
      "t": 164309.32500000056,
      "d": 407.1036458333256,
      "v": 100
    },
    {
      "midi": 47,
      "hit": false,
      "t": 164584.55000000057,
      "d": 544.7161458333139,
      "v": 70
    },
    {
      "midi": 50,
      "hit": false,
      "t": 164584.55000000057,
      "d": 544.7161458333139,
      "v": 71
    },
    {
      "midi": 70,
      "hit": false,
      "t": 164722.16250000056,
      "d": 355.4989583333372,
      "v": 61
    },
    {
      "midi": 73,
      "hit": false,
      "t": 164722.16250000056,
      "d": 355.4989583333372,
      "v": 100
    },
    {
      "midi": 43,
      "hit": false,
      "t": 165135.00000000055,
      "d": 544.716145833343,
      "v": 79
    },
    {
      "midi": 71,
      "hit": false,
      "t": 165135.00000000055,
      "d": 1186.9078125000233,
      "v": 68
    },
    {
      "midi": 74,
      "hit": false,
      "t": 165135.00000000055,
      "d": 1186.9078125000233,
      "v": 100
    },
    {
      "midi": 47,
      "hit": false,
      "t": 165685.45000000056,
      "d": 544.716145833343,
      "v": 69
    },
    {
      "midi": 50,
      "hit": false,
      "t": 165685.45000000056,
      "d": 544.716145833343,
      "v": 70
    },
    {
      "midi": 43,
      "hit": false,
      "t": 166235.90000000058,
      "d": 544.716145833343,
      "v": 83
    },
    {
      "midi": 67,
      "hit": false,
      "t": 166786.3500000006,
      "d": 516.046875,
      "v": 100
    },
    {
      "midi": 47,
      "hit": false,
      "t": 166786.3500000006,
      "d": 544.716145833343,
      "v": 73
    },
    {
      "midi": 50,
      "hit": false,
      "t": 166786.3500000006,
      "d": 544.716145833343,
      "v": 73
    },
    {
      "midi": 45,
      "hit": false,
      "t": 167336.8000000006,
      "d": 544.716145833343,
      "v": 77
    },
    {
      "midi": 67,
      "hit": false,
      "t": 167336.8000000006,
      "d": 768.3364583333314,
      "v": 73
    },
    {
      "midi": 71,
      "hit": false,
      "t": 167336.8000000006,
      "d": 768.3364583333314,
      "v": 100
    },
    {
      "midi": 49,
      "hit": false,
      "t": 167887.2500000006,
      "d": 544.7161458332848,
      "v": 63
    },
    {
      "midi": 52,
      "hit": false,
      "t": 167887.2500000006,
      "d": 544.7161458332848,
      "v": 70
    },
    {
      "midi": 67,
      "hit": false,
      "t": 168162.4750000006,
      "d": 217.88645833331975,
      "v": 78
    },
    {
      "midi": 71,
      "hit": false,
      "t": 168162.4750000006,
      "d": 217.88645833331975,
      "v": 100
    },
    {
      "midi": 67,
      "hit": false,
      "t": 168437.70000000056,
      "d": 481.64374999998836,
      "v": 86
    },
    {
      "midi": 71,
      "hit": false,
      "t": 168437.70000000056,
      "d": 481.64374999998836,
      "v": 100
    },
    {
      "midi": 40,
      "hit": false,
      "t": 168437.70000000056,
      "d": 544.7161458333139,
      "v": 77
    },
    {
      "midi": 67,
      "hit": false,
      "t": 168988.15000000055,
      "d": 487.37760416665697,
      "v": 76
    },
    {
      "midi": 71,
      "hit": false,
      "t": 168988.15000000055,
      "d": 487.37760416665697,
      "v": 100
    },
    {
      "midi": 49,
      "hit": false,
      "t": 168988.15000000055,
      "d": 544.7161458333139,
      "v": 69
    },
    {
      "midi": 52,
      "hit": false,
      "t": 168988.15000000055,
      "d": 544.7161458333139,
      "v": 76
    },
    {
      "midi": 45,
      "hit": false,
      "t": 169538.60000000053,
      "d": 544.716145833343,
      "v": 83
    },
    {
      "midi": 67,
      "hit": false,
      "t": 169538.60000000053,
      "d": 774.0703125,
      "v": 64
    },
    {
      "midi": 71,
      "hit": false,
      "t": 169538.60000000053,
      "d": 774.0703125,
      "v": 100
    },
    {
      "midi": 49,
      "hit": false,
      "t": 170089.05000000054,
      "d": 544.7161458333139,
      "v": 72
    },
    {
      "midi": 52,
      "hit": false,
      "t": 170089.05000000054,
      "d": 544.7161458333139,
      "v": 76
    },
    {
      "midi": 67,
      "hit": false,
      "t": 170364.27500000052,
      "d": 252.2895833333314,
      "v": 92
    },
    {
      "midi": 71,
      "hit": false,
      "t": 170364.27500000052,
      "d": 252.2895833333314,
      "v": 100
    },
    {
      "midi": 66,
      "hit": false,
      "t": 170639.50000000052,
      "d": 487.37760416665697,
      "v": 70
    },
    {
      "midi": 69,
      "hit": false,
      "t": 170639.50000000052,
      "d": 487.37760416665697,
      "v": 100
    },
    {
      "midi": 45,
      "hit": false,
      "t": 170639.50000000052,
      "d": 544.7161458333139,
      "v": 84
    },
    {
      "midi": 37,
      "hit": false,
      "t": 171189.9500000005,
      "d": 544.716145833343,
      "v": 117
    },
    {
      "midi": 64,
      "hit": false,
      "t": 171189.9500000005,
      "d": 544.716145833343,
      "v": 68
    },
    {
      "midi": 67,
      "hit": false,
      "t": 171189.9500000005,
      "d": 544.716145833343,
      "v": 121
    },
    {
      "midi": 38,
      "hit": false,
      "t": 171740.40000000052,
      "d": 544.716145833343,
      "v": 114
    },
    {
      "midi": 66,
      "hit": false,
      "t": 171740.40000000052,
      "d": 2098.5906250000407,
      "v": 65
    },
    {
      "midi": 69,
      "hit": false,
      "t": 171740.40000000052,
      "d": 2098.5906250000407,
      "v": 100
    },
    {
      "midi": 50,
      "hit": false,
      "t": 172290.85000000053,
      "d": 544.716145833343,
      "v": 87
    },
    {
      "midi": 45,
      "hit": false,
      "t": 172841.30000000054,
      "d": 544.716145833343,
      "v": 90
    },
    {
      "midi": 42,
      "hit": false,
      "t": 173391.75000000055,
      "d": 544.716145833343,
      "v": 87
    },
    {
      "midi": 43,
      "hit": false,
      "t": 173942.20000000056,
      "d": 544.716145833343,
      "v": 75
    },
    {
      "midi": 47,
      "hit": false,
      "t": 174492.65000000058,
      "d": 544.716145833343,
      "v": 70
    },
    {
      "midi": 50,
      "hit": false,
      "t": 174492.65000000058,
      "d": 544.716145833343,
      "v": 74
    },
    {
      "midi": 42,
      "hit": false,
      "t": 175043.1000000006,
      "d": 544.716145833343,
      "v": 84
    },
    {
      "midi": 67,
      "hit": false,
      "t": 175593.5500000006,
      "d": 458.70833333334303,
      "v": 92
    },
    {
      "midi": 71,
      "hit": false,
      "t": 175593.5500000006,
      "d": 458.70833333334303,
      "v": 100
    },
    {
      "midi": 40,
      "hit": false,
      "t": 175593.5500000006,
      "d": 544.716145833343,
      "v": 87
    },
    {
      "midi": 38,
      "hit": false,
      "t": 176144.0000000006,
      "d": 544.716145833343,
      "v": 78
    },
    {
      "midi": 66,
      "hit": false,
      "t": 176144.0000000006,
      "d": 1599.7453125000175,
      "v": 89
    },
    {
      "midi": 69,
      "hit": false,
      "t": 176144.0000000006,
      "d": 1599.7453125000175,
      "v": 100
    },
    {
      "midi": 48,
      "hit": false,
      "t": 176694.45000000062,
      "d": 544.716145833343,
      "v": 71
    },
    {
      "midi": 50,
      "hit": false,
      "t": 176694.45000000062,
      "d": 544.716145833343,
      "v": 72
    },
    {
      "midi": 45,
      "hit": false,
      "t": 177244.90000000063,
      "d": 544.7161458333139,
      "v": 75
    },
    {
      "midi": 66,
      "hit": false,
      "t": 177795.35000000062,
      "d": 538.9822916666744,
      "v": 92
    },
    {
      "midi": 71,
      "hit": false,
      "t": 177795.35000000062,
      "d": 538.9822916666744,
      "v": 100
    },
    {
      "midi": 48,
      "hit": false,
      "t": 177795.35000000062,
      "d": 544.716145833343,
      "v": 66
    },
    {
      "midi": 50,
      "hit": false,
      "t": 177795.35000000062,
      "d": 544.716145833343,
      "v": 65
    },
    {
      "midi": 66,
      "hit": false,
      "t": 178345.80000000063,
      "d": 510.3130208333314,
      "v": 73
    },
    {
      "midi": 72,
      "hit": false,
      "t": 178345.80000000063,
      "d": 510.3130208333314,
      "v": 100
    },
    {
      "midi": 45,
      "hit": false,
      "t": 178345.80000000063,
      "d": 544.716145833343,
      "v": 72
    },
    {
      "midi": 48,
      "hit": false,
      "t": 178896.25000000064,
      "d": 544.716145833343,
      "v": 70
    },
    {
      "midi": 52,
      "hit": false,
      "t": 178896.25000000064,
      "d": 544.716145833343,
      "v": 70
    },
    {
      "midi": 66,
      "hit": false,
      "t": 178896.25000000064,
      "d": 544.716145833343,
      "v": 64
    },
    {
      "midi": 69,
      "hit": false,
      "t": 178896.25000000064,
      "d": 544.716145833343,
      "v": 100
    },
    {
      "midi": 38,
      "hit": false,
      "t": 179446.70000000065,
      "d": 544.716145833343,
      "v": 78
    },
    {
      "midi": 60,
      "hit": false,
      "t": 179446.70000000065,
      "d": 819.9411458333489,
      "v": 49
    },
    {
      "midi": 66,
      "hit": false,
      "t": 179446.70000000065,
      "d": 819.9411458333489,
      "v": 100
    },
    {
      "midi": 48,
      "hit": false,
      "t": 179997.15000000066,
      "d": 544.716145833343,
      "v": 70
    },
    {
      "midi": 50,
      "hit": false,
      "t": 179997.15000000066,
      "d": 544.716145833343,
      "v": 66
    },
    {
      "midi": 60,
      "hit": false,
      "t": 180272.37500000067,
      "d": 269.4911458333372,
      "v": 96
    },
    {
      "midi": 62,
      "hit": false,
      "t": 180272.37500000067,
      "d": 269.4911458333372,
      "v": 100
    },
    {
      "midi": 43,
      "hit": false,
      "t": 180547.60000000068,
      "d": 544.716145833343,
      "v": 70
    },
    {
      "midi": 62,
      "hit": false,
      "t": 180547.60000000068,
      "d": 2052.719791666692,
      "v": 66
    },
    {
      "midi": 71,
      "hit": false,
      "t": 180547.60000000068,
      "d": 2052.719791666692,
      "v": 100
    },
    {
      "midi": 47,
      "hit": false,
      "t": 181098.0500000007,
      "d": 544.716145833343,
      "v": 62
    },
    {
      "midi": 50,
      "hit": false,
      "t": 181098.0500000007,
      "d": 544.716145833343,
      "v": 63
    },
    {
      "midi": 38,
      "hit": false,
      "t": 181648.5000000007,
      "d": 544.716145833343,
      "v": 68
    },
    {
      "midi": 47,
      "hit": false,
      "t": 182198.9500000007,
      "d": 544.7161458333139,
      "v": 67
    },
    {
      "midi": 50,
      "hit": false,
      "t": 182198.9500000007,
      "d": 544.7161458333139,
      "v": 66
    },
    {
      "midi": 43,
      "hit": false,
      "t": 182749.4000000007,
      "d": 544.716145833343,
      "v": 86
    },
    {
      "midi": 47,
      "hit": false,
      "t": 183299.8500000007,
      "d": 544.716145833343,
      "v": 67
    },
    {
      "midi": 50,
      "hit": false,
      "t": 183299.8500000007,
      "d": 544.716145833343,
      "v": 66
    },
    {
      "midi": 59,
      "hit": false,
      "t": 183850.30000000072,
      "d": 452.9744791666744,
      "v": 74
    },
    {
      "midi": 67,
      "hit": false,
      "t": 183850.30000000072,
      "d": 452.9744791666744,
      "v": 100
    },
    {
      "midi": 42,
      "hit": false,
      "t": 183850.30000000072,
      "d": 544.716145833343,
      "v": 87
    },
    {
      "midi": 59,
      "hit": false,
      "t": 184400.75000000073,
      "d": 498.8453124999942,
      "v": 87
    },
    {
      "midi": 67,
      "hit": false,
      "t": 184400.75000000073,
      "d": 498.8453124999942,
      "v": 100
    },
    {
      "midi": 40,
      "hit": false,
      "t": 184400.75000000073,
      "d": 544.7161458333139,
      "v": 82
    },
    {
      "midi": 38,
      "hit": false,
      "t": 184951.2000000007,
      "d": 544.716145833343,
      "v": 74
    },
    {
      "midi": 62,
      "hit": false,
      "t": 184951.2000000007,
      "d": 1639.8822916666977,
      "v": 80
    },
    {
      "midi": 66,
      "hit": false,
      "t": 184951.2000000007,
      "d": 1639.8822916666977,
      "v": 100
    },
    {
      "midi": 48,
      "hit": false,
      "t": 185501.65000000072,
      "d": 544.716145833343,
      "v": 63
    },
    {
      "midi": 50,
      "hit": false,
      "t": 185501.65000000072,
      "d": 544.716145833343,
      "v": 63
    },
    {
      "midi": 45,
      "hit": false,
      "t": 186052.10000000073,
      "d": 544.716145833343,
      "v": 76
    },
    {
      "midi": 62,
      "hit": false,
      "t": 186602.55000000075,
      "d": 527.5145833333372,
      "v": 90
    },
    {
      "midi": 67,
      "hit": false,
      "t": 186602.55000000075,
      "d": 527.5145833333372,
      "v": 100
    },
    {
      "midi": 48,
      "hit": false,
      "t": 186602.55000000075,
      "d": 544.716145833343,
      "v": 66
    },
    {
      "midi": 50,
      "hit": false,
      "t": 186602.55000000075,
      "d": 544.716145833343,
      "v": 62
    },
    {
      "midi": 45,
      "hit": false,
      "t": 187153.00000000076,
      "d": 544.716145833343,
      "v": 71
    },
    {
      "midi": 60,
      "hit": false,
      "t": 187153.00000000076,
      "d": 791.2718750000058,
      "v": 94
    },
    {
      "midi": 69,
      "hit": false,
      "t": 187153.00000000076,
      "d": 791.2718750000058,
      "v": 100
    },
    {
      "midi": 48,
      "hit": false,
      "t": 187703.45000000077,
      "d": 544.716145833343,
      "v": 70
    },
    {
      "midi": 52,
      "hit": false,
      "t": 187703.45000000077,
      "d": 544.716145833343,
      "v": 70
    },
    {
      "midi": 60,
      "hit": false,
      "t": 188047.48125000077,
      "d": 200.68489583334303,
      "v": 87
    },
    {
      "midi": 69,
      "hit": false,
      "t": 188047.48125000077,
      "d": 200.68489583334303,
      "v": 100
    },
    {
      "midi": 60,
      "hit": false,
      "t": 188253.90000000078,
      "d": 510.3130208333314,
      "v": 68
    },
    {
      "midi": 67,
      "hit": false,
      "t": 188253.90000000078,
      "d": 510.3130208333314,
      "v": 100
    },
    {
      "midi": 38,
      "hit": false,
      "t": 188253.90000000078,
      "d": 544.716145833343,
      "v": 79
    },
    {
      "midi": 60,
      "hit": false,
      "t": 188804.3500000008,
      "d": 516.046875,
      "v": 58
    },
    {
      "midi": 66,
      "hit": false,
      "t": 188804.3500000008,
      "d": 516.046875,
      "v": 100
    },
    {
      "midi": 48,
      "hit": false,
      "t": 188804.3500000008,
      "d": 544.716145833343,
      "v": 68
    },
    {
      "midi": 50,
      "hit": false,
      "t": 188804.3500000008,
      "d": 544.716145833343,
      "v": 70
    },
    {
      "midi": 43,
      "hit": false,
      "t": 189354.8000000008,
      "d": 544.716145833343,
      "v": 76
    },
    {
      "midi": 59,
      "hit": false,
      "t": 189354.8000000008,
      "d": 2264.872395833372,
      "v": 78
    },
    {
      "midi": 67,
      "hit": false,
      "t": 189354.8000000008,
      "d": 2264.872395833372,
      "v": 100
    },
    {
      "midi": 47,
      "hit": false,
      "t": 189905.25000000081,
      "d": 544.716145833343,
      "v": 69
    },
    {
      "midi": 50,
      "hit": false,
      "t": 189905.25000000081,
      "d": 544.716145833343,
      "v": 70
    },
    {
      "midi": 38,
      "hit": false,
      "t": 190455.70000000083,
      "d": 544.716145833343,
      "v": 64
    },
    {
      "midi": 47,
      "hit": false,
      "t": 191006.15000000084,
      "d": 544.716145833343,
      "v": 62
    },
    {
      "midi": 50,
      "hit": false,
      "t": 191006.15000000084,
      "d": 544.716145833343,
      "v": 61
    },
    {
      "midi": 43,
      "hit": false,
      "t": 191556.60000000085,
      "d": 544.7161458333139,
      "v": 72
    },
    {
      "midi": 47,
      "hit": false,
      "t": 192107.05000000083,
      "d": 544.716145833343,
      "v": 67
    },
    {
      "midi": 50,
      "hit": false,
      "t": 192107.05000000083,
      "d": 544.716145833343,
      "v": 66
    },
    {
      "midi": 62,
      "hit": false,
      "t": 192657.50000000084,
      "d": 510.3130208333314,
      "v": 82
    },
    {
      "midi": 69,
      "hit": false,
      "t": 192657.50000000084,
      "d": 510.3130208333314,
      "v": 82
    },
    {
      "midi": 42,
      "hit": false,
      "t": 192657.50000000084,
      "d": 544.716145833343,
      "v": 72
    },
    {
      "midi": 62,
      "hit": false,
      "t": 193207.95000000086,
      "d": 493.1114583333256,
      "v": 74
    },
    {
      "midi": 67,
      "hit": false,
      "t": 193207.95000000086,
      "d": 493.1114583333256,
      "v": 74
    },
    {
      "midi": 40,
      "hit": false,
      "t": 193207.95000000086,
      "d": 544.7161458333139,
      "v": 74
    },
    {
      "midi": 62,
      "hit": false,
      "t": 193758.40000000084,
      "d": 1645.6161458333372,
      "v": 72
    },
    {
      "midi": 66,
      "hit": false,
      "t": 193758.40000000084,
      "d": 1645.6161458333372,
      "v": 72
    },
    {
      "midi": 38,
      "hit": false,
      "t": 193758.40000000084,
      "d": 2196.066145833349,
      "v": 70
    },
    {
      "midi": 45,
      "hit": false,
      "t": 193758.40000000084,
      "d": 2196.066145833349,
      "v": 71
    },
    {
      "midi": 62,
      "hit": false,
      "t": 195409.75000000084,
      "d": 544.716145833343,
      "v": 79
    },
    {
      "midi": 67,
      "hit": false,
      "t": 195409.75000000084,
      "d": 544.716145833343,
      "v": 79
    },
    {
      "midi": 60,
      "hit": false,
      "t": 195960.20000000086,
      "d": 779.8041666666686,
      "v": 78
    },
    {
      "midi": 69,
      "hit": false,
      "t": 195960.20000000086,
      "d": 779.8041666666686,
      "v": 78
    },
    {
      "midi": 38,
      "hit": false,
      "t": 195960.20000000086,
      "d": 2196.0661458332906,
      "v": 63
    },
    {
      "midi": 45,
      "hit": false,
      "t": 195960.20000000086,
      "d": 2196.0661458332906,
      "v": 62
    },
    {
      "midi": 60,
      "hit": false,
      "t": 196785.87500000084,
      "d": 229.35416666665697,
      "v": 89
    },
    {
      "midi": 69,
      "hit": false,
      "t": 196785.87500000084,
      "d": 229.35416666665697,
      "v": 89
    },
    {
      "midi": 60,
      "hit": false,
      "t": 197061.10000000082,
      "d": 504.5791666666628,
      "v": 69
    },
    {
      "midi": 67,
      "hit": false,
      "t": 197061.10000000082,
      "d": 504.5791666666628,
      "v": 69
    },
    {
      "midi": 60,
      "hit": false,
      "t": 197611.5500000008,
      "d": 544.716145833343,
      "v": 58
    },
    {
      "midi": 66,
      "hit": false,
      "t": 197611.5500000008,
      "d": 544.716145833343,
      "v": 58
    },
    {
      "midi": 43,
      "hit": false,
      "t": 198162.00000000081,
      "d": 4403.600000000006,
      "v": 62
    },
    {
      "midi": 50,
      "hit": false,
      "t": 198162.00000000081,
      "d": 4403.600000000006,
      "v": 68
    },
    {
      "midi": 59,
      "hit": false,
      "t": 198162.00000000081,
      "d": 4403.600000000006,
      "v": 76
    },
    {
      "midi": 67,
      "hit": false,
      "t": 198162.00000000081,
      "d": 4403.600000000006,
      "v": 76
    }
  ]
}