{
  "jsonPath": "Soul/Neurofunk/Lemon D/going-gets-tuff.json",
  "path": "Soul\\Neurofunk\\Lemon D\\Going Gets Tuff.mid",
  "name": "Going Gets Tuff",
  "difficulty": "Advanced",
  "bpm": 82.00014760026568,
  "notes": [
    {
      "midi": 48,
      "hit": false,
      "t": 8780.472000000002,
      "d": 5853.648000000001,
      "v": 73
    },
    {
      "midi": 48,
      "hit": false,
      "t": 8780.472000000002,
      "d": 182.92649999999958,
      "v": 56
    },
    {
      "midi": 60,
      "hit": false,
      "t": 8780.472000000002,
      "d": 2926.8240000000005,
      "v": 54
    },
    {
      "midi": 72,
      "hit": false,
      "t": 8780.472000000002,
      "d": 2926.8240000000005,
      "v": 54
    },
    {
      "midi": 64,
      "hit": false,
      "t": 8780.472000000002,
      "d": 11707.296000000002,
      "v": 54
    },
    {
      "midi": 67,
      "hit": false,
      "t": 8780.472000000002,
      "d": 11707.296000000002,
      "v": 54
    },
    {
      "midi": 55,
      "hit": false,
      "t": 8963.398500000001,
      "d": 182.92649999999958,
      "v": 56
    },
    {
      "midi": 48,
      "hit": false,
      "t": 9146.325,
      "d": 182.92649999999958,
      "v": 56
    },
    {
      "midi": 55,
      "hit": false,
      "t": 9329.2515,
      "d": 182.92649999999958,
      "v": 56
    },
    {
      "midi": 55,
      "hit": false,
      "t": 9878.030999999999,
      "d": 182.92649999999958,
      "v": 55
    },
    {
      "midi": 48,
      "hit": false,
      "t": 10243.883999999998,
      "d": 182.92649999999958,
      "v": 55
    },
    {
      "midi": 55,
      "hit": false,
      "t": 10426.810499999998,
      "d": 182.92649999999958,
      "v": 55
    },
    {
      "midi": 48,
      "hit": false,
      "t": 10792.663499999997,
      "d": 182.92649999999958,
      "v": 55
    },
    {
      "midi": 55,
      "hit": false,
      "t": 10975.589999999997,
      "d": 182.92649999999958,
      "v": 55
    },
    {
      "midi": 55,
      "hit": false,
      "t": 11341.442999999996,
      "d": 182.92649999999958,
      "v": 54
    },
    {
      "midi": 55,
      "hit": false,
      "t": 11524.369499999995,
      "d": 182.92649999999958,
      "v": 54
    },
    {
      "midi": 48,
      "hit": false,
      "t": 11707.295999999995,
      "d": 182.92649999999958,
      "v": 56
    },
    {
      "midi": 55,
      "hit": false,
      "t": 11707.296000000002,
      "d": 3658.5300000000007,
      "v": 73
    },
    {
      "midi": 59,
      "hit": false,
      "t": 11707.296000000002,
      "d": 2926.8240000000005,
      "v": 55
    },
    {
      "midi": 71,
      "hit": false,
      "t": 11707.296000000002,
      "d": 2926.8240000000005,
      "v": 55
    },
    {
      "midi": 55,
      "hit": false,
      "t": 11890.222499999994,
      "d": 182.92649999999958,
      "v": 56
    },
    {
      "midi": 48,
      "hit": false,
      "t": 12073.148999999994,
      "d": 182.92649999999958,
      "v": 56
    },
    {
      "midi": 55,
      "hit": false,
      "t": 12256.075499999994,
      "d": 182.92649999999958,
      "v": 56
    },
    {
      "midi": 48,
      "hit": false,
      "t": 12439.001999999993,
      "d": 182.92649999999958,
      "v": 56
    },
    {
      "midi": 55,
      "hit": false,
      "t": 12804.854999999992,
      "d": 182.92649999999958,
      "v": 55
    },
    {
      "midi": 55,
      "hit": false,
      "t": 12987.781499999992,
      "d": 182.92649999999958,
      "v": 55
    },
    {
      "midi": 48,
      "hit": false,
      "t": 13170.707999999991,
      "d": 182.92649999999958,
      "v": 55
    },
    {
      "midi": 55,
      "hit": false,
      "t": 13353.634499999991,
      "d": 182.92649999999958,
      "v": 55
    },
    {
      "midi": 48,
      "hit": false,
      "t": 13719.48749999999,
      "d": 182.92649999999958,
      "v": 55
    },
    {
      "midi": 55,
      "hit": false,
      "t": 13902.41399999999,
      "d": 182.92649999999958,
      "v": 55
    },
    {
      "midi": 48,
      "hit": false,
      "t": 14085.34049999999,
      "d": 182.92649999999958,
      "v": 55
    },
    {
      "midi": 55,
      "hit": false,
      "t": 14268.266999999989,
      "d": 182.92649999999958,
      "v": 54
    },
    {
      "midi": 48,
      "hit": false,
      "t": 14634.119999999988,
      "d": 182.92649999999958,
      "v": 56
    },
    {
      "midi": 48,
      "hit": false,
      "t": 14634.120000000003,
      "d": 5853.648000000001,
      "v": 72
    },
    {
      "midi": 60,
      "hit": false,
      "t": 14634.120000000003,
      "d": 2926.8240000000005,
      "v": 53
    },
    {
      "midi": 72,
      "hit": false,
      "t": 14634.120000000003,
      "d": 2926.8240000000005,
      "v": 53
    },
    {
      "midi": 55,
      "hit": false,
      "t": 14817.046499999988,
      "d": 182.92649999999958,
      "v": 56
    },
    {
      "midi": 48,
      "hit": false,
      "t": 14999.972999999987,
      "d": 182.92649999999958,
      "v": 56
    },
    {
      "midi": 55,
      "hit": false,
      "t": 14999.972999999987,
      "d": 182.92649999999958,
      "v": 56
    },
    {
      "midi": 55,
      "hit": false,
      "t": 15182.899499999987,
      "d": 182.92649999999958,
      "v": 56
    },
    {
      "midi": 48,
      "hit": false,
      "t": 15548.752499999986,
      "d": 182.92649999999958,
      "v": 56
    },
    {
      "midi": 55,
      "hit": false,
      "t": 15731.678999999986,
      "d": 182.92649999999958,
      "v": 55
    },
    {
      "midi": 48,
      "hit": false,
      "t": 16097.531999999985,
      "d": 182.92649999999958,
      "v": 55
    },
    {
      "midi": 55,
      "hit": false,
      "t": 16280.458499999984,
      "d": 182.92649999999958,
      "v": 55
    },
    {
      "midi": 48,
      "hit": false,
      "t": 16646.311499999985,
      "d": 182.9265000000014,
      "v": 55
    },
    {
      "midi": 55,
      "hit": false,
      "t": 16829.237999999987,
      "d": 182.9265000000014,
      "v": 55
    },
    {
      "midi": 55,
      "hit": false,
      "t": 17195.09099999999,
      "d": 182.9265000000014,
      "v": 54
    },
    {
      "midi": 55,
      "hit": false,
      "t": 17378.01749999999,
      "d": 182.9265000000014,
      "v": 54
    },
    {
      "midi": 48,
      "hit": false,
      "t": 17560.943999999992,
      "d": 182.9265000000014,
      "v": 56
    },
    {
      "midi": 55,
      "hit": false,
      "t": 17560.944000000003,
      "d": 2926.8240000000005,
      "v": 71
    },
    {
      "midi": 59,
      "hit": false,
      "t": 17560.944000000003,
      "d": 2926.8240000000005,
      "v": 53
    },
    {
      "midi": 71,
      "hit": false,
      "t": 17560.944000000003,
      "d": 2926.8240000000005,
      "v": 53
    },
    {
      "midi": 55,
      "hit": false,
      "t": 17743.870499999994,
      "d": 182.9265000000014,
      "v": 56
    },
    {
      "midi": 48,
      "hit": false,
      "t": 17926.796999999995,
      "d": 182.9265000000014,
      "v": 56
    },
    {
      "midi": 55,
      "hit": false,
      "t": 18109.723499999996,
      "d": 182.9265000000014,
      "v": 56
    },
    {
      "midi": 55,
      "hit": false,
      "t": 18658.502999999997,
      "d": 182.9265000000014,
      "v": 55
    },
    {
      "midi": 48,
      "hit": false,
      "t": 19024.356,
      "d": 182.9265000000014,
      "v": 55
    },
    {
      "midi": 55,
      "hit": false,
      "t": 19207.2825,
      "d": 182.9265000000014,
      "v": 55
    },
    {
      "midi": 41,
      "hit": false,
      "t": 19207.2825,
      "d": 182.9265000000014,
      "v": 99
    },
    {
      "midi": 43,
      "hit": false,
      "t": 19390.209000000003,
      "d": 376.5237124999985,
      "v": 99
    },
    {
      "midi": 48,
      "hit": false,
      "t": 19573.135500000004,
      "d": 182.9265000000014,
      "v": 55
    },
    {
      "midi": 48,
      "hit": false,
      "t": 19756.062,
      "d": 731.7060000000056,
      "v": 99
    },
    {
      "midi": 55,
      "hit": false,
      "t": 19756.062000000005,
      "d": 182.9265000000014,
      "v": 55
    },
    {
      "midi": 55,
      "hit": false,
      "t": 20121.915000000008,
      "d": 182.9265000000014,
      "v": 54
    },
    {
      "midi": 43,
      "hit": false,
      "t": 20487.768000000004,
      "d": 2926.8240000000005,
      "v": 76
    },
    {
      "midi": 48,
      "hit": false,
      "t": 20487.768000000004,
      "d": 2926.8240000000005,
      "v": 78
    },
    {
      "midi": 55,
      "hit": false,
      "t": 20487.768000000004,
      "d": 5853.648000000001,
      "v": 78
    },
    {
      "midi": 36,
      "hit": false,
      "t": 20487.768000000007,
      "d": 182.9265000000014,
      "v": 99
    },
    {
      "midi": 48,
      "hit": false,
      "t": 20487.76800000001,
      "d": 365.8530000000028,
      "v": 56
    },
    {
      "midi": 31,
      "hit": false,
      "t": 20670.69450000001,
      "d": 182.9265000000014,
      "v": 99
    },
    {
      "midi": 55,
      "hit": false,
      "t": 20670.694500000012,
      "d": 365.8530000000028,
      "v": 56
    },
    {
      "midi": 33,
      "hit": false,
      "t": 20853.62100000001,
      "d": 182.9265000000014,
      "v": 99
    },
    {
      "midi": 48,
      "hit": false,
      "t": 20853.621000000014,
      "d": 365.8530000000028,
      "v": 56
    },
    {
      "midi": 36,
      "hit": false,
      "t": 21036.54750000001,
      "d": 182.9265000000014,
      "v": 99
    },
    {
      "midi": 55,
      "hit": false,
      "t": 21036.547500000015,
      "d": 365.8530000000028,
      "v": 56
    },
    {
      "midi": 38,
      "hit": false,
      "t": 21585.327000000012,
      "d": 365.85299999999916,
      "v": 99
    },
    {
      "midi": 55,
      "hit": false,
      "t": 21585.32700000002,
      "d": 365.85299999999916,
      "v": 56
    },
    {
      "midi": 36,
      "hit": false,
      "t": 21951.18000000001,
      "d": 731.706000000002,
      "v": 99
    },
    {
      "midi": 48,
      "hit": false,
      "t": 21951.18000000002,
      "d": 365.8530000000028,
      "v": 56
    },
    {
      "midi": 55,
      "hit": false,
      "t": 22134.10650000002,
      "d": 365.8530000000028,
      "v": 56
    },
    {
      "midi": 48,
      "hit": false,
      "t": 22499.959500000023,
      "d": 365.8530000000028,
      "v": 56
    },
    {
      "midi": 55,
      "hit": false,
      "t": 22682.886000000024,
      "d": 365.8530000000028,
      "v": 56
    },
    {
      "midi": 55,
      "hit": false,
      "t": 23048.739000000027,
      "d": 365.85299999999916,
      "v": 56
    },
    {
      "midi": 45,
      "hit": false,
      "t": 23414.592000000004,
      "d": 2926.8240000000005,
      "v": 80
    },
    {
      "midi": 52,
      "hit": false,
      "t": 23414.592000000004,
      "d": 2926.8240000000005,
      "v": 64
    },
    {
      "midi": 33,
      "hit": false,
      "t": 23414.59200000001,
      "d": 731.7059999999983,
      "v": 99
    },
    {
      "midi": 45,
      "hit": false,
      "t": 23414.592000000026,
      "d": 365.8530000000028,
      "v": 56
    },
    {
      "midi": 55,
      "hit": false,
      "t": 23597.518500000027,
      "d": 365.8530000000028,
      "v": 56
    },
    {
      "midi": 45,
      "hit": false,
      "t": 23780.44500000003,
      "d": 365.8530000000028,
      "v": 56
    },
    {
      "midi": 55,
      "hit": false,
      "t": 23963.37150000003,
      "d": 365.8530000000028,
      "v": 56
    },
    {
      "midi": 40,
      "hit": false,
      "t": 24329.22450000001,
      "d": 121.95100000000093,
      "v": 99
    },
    {
      "midi": 45,
      "hit": false,
      "t": 24512.151000000013,
      "d": 1532.0094374999971,
      "v": 99
    },
    {
      "midi": 55,
      "hit": false,
      "t": 24512.151000000034,
      "d": 365.85299999999916,
      "v": 56
    },
    {
      "midi": 45,
      "hit": false,
      "t": 24878.004000000034,
      "d": 365.8530000000028,
      "v": 56
    },
    {
      "midi": 55,
      "hit": false,
      "t": 25060.930500000035,
      "d": 365.8530000000028,
      "v": 56
    },
    {
      "midi": 45,
      "hit": false,
      "t": 25426.783500000038,
      "d": 365.85299999999916,
      "v": 56
    },
    {
      "midi": 55,
      "hit": false,
      "t": 25426.783500000038,
      "d": 365.85299999999916,
      "v": 56
    },
    {
      "midi": 55,
      "hit": false,
      "t": 25975.56300000004,
      "d": 365.85299999999916,
      "v": 56
    },
    {
      "midi": 43,
      "hit": false,
      "t": 26341.416000000005,
      "d": 2926.8240000000005,
      "v": 98
    },
    {
      "midi": 48,
      "hit": false,
      "t": 26341.416000000005,
      "d": 2926.8240000000005,
      "v": 80
    },
    {
      "midi": 53,
      "hit": false,
      "t": 26341.416000000005,
      "d": 2926.8240000000005,
      "v": 72
    },
    {
      "midi": 41,
      "hit": false,
      "t": 26341.41600000001,
      "d": 914.6324999999997,
      "v": 99
    },
    {
      "midi": 41,
      "hit": false,
      "t": 26341.416000000037,
      "d": 365.8530000000028,
      "v": 56
    },
    {
      "midi": 55,
      "hit": false,
      "t": 26524.34250000004,
      "d": 365.8530000000028,
      "v": 56
    },
    {
      "midi": 41,
      "hit": false,
      "t": 26707.26900000004,
      "d": 365.8530000000028,
      "v": 56
    },
    {
      "midi": 55,
      "hit": false,
      "t": 26890.19550000004,
      "d": 365.8530000000028,
      "v": 56
    },
    {
      "midi": 41,
      "hit": false,
      "t": 27438.97500000001,
      "d": 182.9265000000014,
      "v": 99
    },
    {
      "midi": 55,
      "hit": false,
      "t": 27438.975000000046,
      "d": 365.85299999999916,
      "v": 56
    },
    {
      "midi": 41,
      "hit": false,
      "t": 27804.828000000012,
      "d": 914.6324999999997,
      "v": 99
    },
    {
      "midi": 41,
      "hit": false,
      "t": 27804.828000000045,
      "d": 365.8530000000028,
      "v": 56
    },
    {
      "midi": 55,
      "hit": false,
      "t": 27987.754500000046,
      "d": 365.8530000000028,
      "v": 56
    },
    {
      "midi": 41,
      "hit": false,
      "t": 28353.60750000005,
      "d": 365.8530000000028,
      "v": 56
    },
    {
      "midi": 55,
      "hit": false,
      "t": 28536.53400000005,
      "d": 365.8530000000028,
      "v": 56
    },
    {
      "midi": 41,
      "hit": false,
      "t": 28902.387000000013,
      "d": 182.9265000000014,
      "v": 99
    },
    {
      "midi": 41,
      "hit": false,
      "t": 28902.387000000053,
      "d": 365.85299999999916,
      "v": 56
    },
    {
      "midi": 44,
      "hit": false,
      "t": 29268.240000000005,
      "d": 2926.8240000000005,
      "v": 70
    },
    {
      "midi": 47,
      "hit": false,
      "t": 29268.240000000005,
      "d": 2926.8240000000005,
      "v": 76
    },
    {
      "midi": 52,
      "hit": false,
      "t": 29268.240000000005,
      "d": 2926.8240000000005,
      "v": 58
    },
    {
      "midi": 40,
      "hit": false,
      "t": 29268.240000000016,
      "d": 914.6324999999997,
      "v": 99
    },
    {
      "midi": 40,
      "hit": false,
      "t": 29268.240000000053,
      "d": 365.8530000000028,
      "v": 56
    },
    {
      "midi": 57,
      "hit": false,
      "t": 29451.166500000054,
      "d": 365.8530000000028,
      "v": 56
    },
    {
      "midi": 40,
      "hit": false,
      "t": 29817.019500000057,
      "d": 365.8530000000028,
      "v": 56
    },
    {
      "midi": 56,
      "hit": false,
      "t": 29999.946000000058,
      "d": 365.8530000000028,
      "v": 56
    },
    {
      "midi": 40,
      "hit": false,
      "t": 30365.799000000017,
      "d": 182.9265000000014,
      "v": 99
    },
    {
      "midi": 40,
      "hit": false,
      "t": 30365.79900000006,
      "d": 365.85299999999916,
      "v": 56
    },
    {
      "midi": 40,
      "hit": false,
      "t": 30731.65200000002,
      "d": 1097.559000000001,
      "v": 99
    },
    {
      "midi": 40,
      "hit": false,
      "t": 30731.65200000006,
      "d": 365.8530000000028,
      "v": 56
    },
    {
      "midi": 56,
      "hit": false,
      "t": 30914.57850000006,
      "d": 365.8530000000028,
      "v": 56
    },
    {
      "midi": 52,
      "hit": false,
      "t": 31097.505000000005,
      "d": 182.9265000000014,
      "v": 84
    },
    {
      "midi": 48,
      "hit": false,
      "t": 31280.431500000006,
      "d": 182.9265000000014,
      "v": 86
    },
    {
      "midi": 40,
      "hit": false,
      "t": 31280.431500000064,
      "d": 365.8530000000028,
      "v": 56
    },
    {
      "midi": 50,
      "hit": false,
      "t": 31463.358000000007,
      "d": 182.9265000000014,
      "v": 87
    },
    {
      "midi": 56,
      "hit": false,
      "t": 31463.358000000066,
      "d": 365.8530000000028,
      "v": 56
    },
    {
      "midi": 45,
      "hit": false,
      "t": 31646.28450000001,
      "d": 182.9265000000014,
      "v": 88
    },
    {
      "midi": 48,
      "hit": false,
      "t": 31829.21100000001,
      "d": 388.71881249999933,
      "v": 89
    },
    {
      "midi": 31,
      "hit": false,
      "t": 31829.21100000002,
      "d": 140.24365000000034,
      "v": 99
    },
    {
      "midi": 56,
      "hit": false,
      "t": 31829.21100000007,
      "d": 365.85299999999916,
      "v": 56
    },
    {
      "midi": 33,
      "hit": false,
      "t": 32012.137500000023,
      "d": 147.8655875000004,
      "v": 99
    },
    {
      "midi": 48,
      "hit": false,
      "t": 32195.064000000006,
      "d": 2926.8240000000005,
      "v": 58
    },
    {
      "midi": 55,
      "hit": false,
      "t": 32195.064000000006,
      "d": 5853.648000000001,
      "v": 68
    },
    {
      "midi": 60,
      "hit": false,
      "t": 32195.064000000006,
      "d": 8780.472000000002,
      "v": 43
    },
    {
      "midi": 36,
      "hit": false,
      "t": 32195.064000000024,
      "d": 182.9265000000014,
      "v": 99
    },
    {
      "midi": 48,
      "hit": false,
      "t": 32195.064000000068,
      "d": 365.8530000000028,
      "v": 56
    },
    {
      "midi": 31,
      "hit": false,
      "t": 32377.990500000025,
      "d": 182.9265000000014,
      "v": 99
    },
    {
      "midi": 55,
      "hit": false,
      "t": 32377.99050000007,
      "d": 365.8530000000028,
      "v": 56
    },
    {
      "midi": 33,
      "hit": false,
      "t": 32560.917000000027,
      "d": 182.9265000000014,
      "v": 99
    },
    {
      "midi": 48,
      "hit": false,
      "t": 32560.91700000007,
      "d": 365.85299999999916,
      "v": 56
    },
    {
      "midi": 36,
      "hit": false,
      "t": 32743.843500000028,
      "d": 182.92649999999776,
      "v": 99
    },
    {
      "midi": 55,
      "hit": false,
      "t": 32743.84350000007,
      "d": 365.85299999999916,
      "v": 56
    },
    {
      "midi": 38,
      "hit": false,
      "t": 33292.62300000003,
      "d": 365.8530000000028,
      "v": 99
    },
    {
      "midi": 55,
      "hit": false,
      "t": 33292.62300000007,
      "d": 365.8530000000028,
      "v": 56
    },
    {
      "midi": 36,
      "hit": false,
      "t": 33658.47600000003,
      "d": 731.7059999999983,
      "v": 99
    },
    {
      "midi": 48,
      "hit": false,
      "t": 33658.476000000075,
      "d": 365.8530000000028,
      "v": 56
    },
    {
      "midi": 55,
      "hit": false,
      "t": 33841.40250000008,
      "d": 365.8530000000028,
      "v": 56
    },
    {
      "midi": 48,
      "hit": false,
      "t": 34207.25550000008,
      "d": 365.8530000000028,
      "v": 56
    },
    {
      "midi": 55,
      "hit": false,
      "t": 34390.18200000008,
      "d": 365.8530000000028,
      "v": 56
    },
    {
      "midi": 36,
      "hit": false,
      "t": 34756.03500000003,
      "d": 182.9265000000014,
      "v": 99
    },
    {
      "midi": 55,
      "hit": false,
      "t": 34756.03500000008,
      "d": 365.8530000000028,
      "v": 56
    },
    {
      "midi": 35,
      "hit": false,
      "t": 34938.961500000034,
      "d": 152.43875000000116,
      "v": 99
    },
    {
      "midi": 52,
      "hit": false,
      "t": 35121.888000000006,
      "d": 2926.8240000000005,
      "v": 48
    },
    {
      "midi": 57,
      "hit": false,
      "t": 35121.888000000006,
      "d": 2926.8240000000005,
      "v": 64
    },
    {
      "midi": 33,
      "hit": false,
      "t": 35121.888000000035,
      "d": 777.4376249999987,
      "v": 99
    },
    {
      "midi": 45,
      "hit": false,
      "t": 35121.888000000086,
      "d": 365.8530000000028,
      "v": 56
    },
    {
      "midi": 55,
      "hit": false,
      "t": 35304.81450000009,
      "d": 365.8530000000028,
      "v": 56
    },
    {
      "midi": 45,
      "hit": false,
      "t": 35487.74100000009,
      "d": 365.8530000000028,
      "v": 56
    },
    {
      "midi": 55,
      "hit": false,
      "t": 35670.66750000009,
      "d": 365.8530000000028,
      "v": 56
    },
    {
      "midi": 40,
      "hit": false,
      "t": 36036.520500000035,
      "d": 144.8168125000011,
      "v": 99
    },
    {
      "midi": 45,
      "hit": false,
      "t": 36219.44700000004,
      "d": 1097.5590000000084,
      "v": 99
    },
    {
      "midi": 55,
      "hit": false,
      "t": 36219.447000000095,
      "d": 365.8530000000028,
      "v": 56
    },
    {
      "midi": 45,
      "hit": false,
      "t": 36585.3000000001,
      "d": 365.8530000000028,
      "v": 56
    },
    {
      "midi": 55,
      "hit": false,
      "t": 36768.2265000001,
      "d": 365.8530000000028,
      "v": 56
    },
    {
      "midi": 45,
      "hit": false,
      "t": 37134.0795000001,
      "d": 365.8530000000028,
      "v": 56
    },
    {
      "midi": 55,
      "hit": false,
      "t": 37134.0795000001,
      "d": 365.8530000000028,
      "v": 56
    },
    {
      "midi": 33,
      "hit": false,
      "t": 37499.932500000046,
      "d": 182.9265000000014,
      "v": 99
    },
    {
      "midi": 31,
      "hit": false,
      "t": 37682.85900000005,
      "d": 182.9265000000014,
      "v": 99
    },
    {
      "midi": 55,
      "hit": false,
      "t": 37682.859000000106,
      "d": 365.8530000000028,
      "v": 56
    },
    {
      "midi": 48,
      "hit": false,
      "t": 38048.71200000001,
      "d": 2926.8240000000005,
      "v": 58
    },
    {
      "midi": 53,
      "hit": false,
      "t": 38048.71200000001,
      "d": 2926.8240000000005,
      "v": 58
    },
    {
      "midi": 55,
      "hit": false,
      "t": 38048.71200000001,
      "d": 2926.8240000000005,
      "v": 74
    },
    {
      "midi": 29,
      "hit": false,
      "t": 38048.71200000005,
      "d": 914.6324999999997,
      "v": 99
    },
    {
      "midi": 41,
      "hit": false,
      "t": 38048.71200000011,
      "d": 365.8530000000028,
      "v": 56
    },
    {
      "midi": 55,
      "hit": false,
      "t": 38231.63850000011,
      "d": 365.8530000000028,
      "v": 56
    },
    {
      "midi": 41,
      "hit": false,
      "t": 38414.56500000011,
      "d": 365.8530000000028,
      "v": 56
    },
    {
      "midi": 55,
      "hit": false,
      "t": 38597.49150000011,
      "d": 365.8530000000028,
      "v": 56
    },
    {
      "midi": 29,
      "hit": false,
      "t": 39146.27100000005,
      "d": 182.9265000000014,
      "v": 99
    },
    {
      "midi": 55,
      "hit": false,
      "t": 39146.27100000012,
      "d": 365.8530000000028,
      "v": 56
    },
    {
      "midi": 29,
      "hit": false,
      "t": 39512.124000000054,
      "d": 914.6324999999997,
      "v": 99
    },
    {
      "midi": 41,
      "hit": false,
      "t": 39512.12400000012,
      "d": 365.8530000000028,
      "v": 56
    },
    {
      "midi": 55,
      "hit": false,
      "t": 39695.05050000012,
      "d": 365.8530000000028,
      "v": 56
    },
    {
      "midi": 41,
      "hit": false,
      "t": 40060.903500000124,
      "d": 365.8530000000028,
      "v": 56
    },
    {
      "midi": 55,
      "hit": false,
      "t": 40243.830000000125,
      "d": 365.8530000000028,
      "v": 56
    },
    {
      "midi": 29,
      "hit": false,
      "t": 40609.683000000055,
      "d": 182.9265000000014,
      "v": 99
    },
    {
      "midi": 41,
      "hit": false,
      "t": 40609.68300000013,
      "d": 365.8530000000028,
      "v": 56
    },
    {
      "midi": 50,
      "hit": false,
      "t": 40975.53600000001,
      "d": 1455.7900625000038,
      "v": 65
    },
    {
      "midi": 56,
      "hit": false,
      "t": 40975.53600000001,
      "d": 2926.824000000008,
      "v": 54
    },
    {
      "midi": 59,
      "hit": false,
      "t": 40975.53600000001,
      "d": 2926.824000000008,
      "v": 80
    },
    {
      "midi": 62,
      "hit": false,
      "t": 40975.536000000015,
      "d": 5853.648000000016,
      "v": 86
    },
    {
      "midi": 59,
      "hit": false,
      "t": 40975.536000000015,
      "d": 5876.513812500016,
      "v": 80
    },
    {
      "midi": 64,
      "hit": false,
      "t": 40975.536000000015,
      "d": 5876.513812500016,
      "v": 80
    },
    {
      "midi": 28,
      "hit": false,
      "t": 40975.53600000006,
      "d": 914.6324999999997,
      "v": 99
    },
    {
      "midi": 40,
      "hit": false,
      "t": 40975.53600000013,
      "d": 365.8530000000028,
      "v": 56
    },
    {
      "midi": 57,
      "hit": false,
      "t": 41158.46250000013,
      "d": 365.8530000000028,
      "v": 56
    },
    {
      "midi": 40,
      "hit": false,
      "t": 41524.315500000135,
      "d": 365.8530000000028,
      "v": 56
    },
    {
      "midi": 56,
      "hit": false,
      "t": 41707.24200000014,
      "d": 365.8530000000028,
      "v": 56
    },
    {
      "midi": 28,
      "hit": false,
      "t": 42073.09500000006,
      "d": 182.9265000000014,
      "v": 99
    },
    {
      "midi": 40,
      "hit": false,
      "t": 42073.09500000014,
      "d": 365.8530000000028,
      "v": 56
    },
    {
      "midi": 28,
      "hit": false,
      "t": 42438.94800000006,
      "d": 914.6324999999997,
      "v": 99
    },
    {
      "midi": 40,
      "hit": false,
      "t": 42438.94800000014,
      "d": 365.8530000000028,
      "v": 56
    },
    {
      "midi": 52,
      "hit": false,
      "t": 42461.81381250001,
      "d": 1440.5461875000037,
      "v": 52
    },
    {
      "midi": 56,
      "hit": false,
      "t": 42621.87450000014,
      "d": 365.8530000000028,
      "v": 56
    },
    {
      "midi": 40,
      "hit": false,
      "t": 42987.72750000015,
      "d": 365.8530000000028,
      "v": 56
    },
    {
      "midi": 56,
      "hit": false,
      "t": 43170.65400000015,
      "d": 365.8530000000028,
      "v": 56
    },
    {
      "midi": 28,
      "hit": false,
      "t": 43353.58050000006,
      "d": 182.9265000000014,
      "v": 99
    },
    {
      "midi": 31,
      "hit": false,
      "t": 43536.50700000006,
      "d": 182.9265000000014,
      "v": 99
    },
    {
      "midi": 56,
      "hit": false,
      "t": 43536.50700000015,
      "d": 365.8530000000028,
      "v": 56
    },
    {
      "midi": 30,
      "hit": false,
      "t": 43719.433500000065,
      "d": 182.9265000000014,
      "v": 99
    },
    {
      "midi": 48,
      "hit": false,
      "t": 43902.36000000001,
      "d": 1463.412000000004,
      "v": 59
    },
    {
      "midi": 53,
      "hit": false,
      "t": 43902.36000000001,
      "d": 1463.412000000004,
      "v": 59
    },
    {
      "midi": 57,
      "hit": false,
      "t": 43902.36000000001,
      "d": 1463.412000000004,
      "v": 59
    },
    {
      "midi": 29,
      "hit": false,
      "t": 43902.360000000066,
      "d": 914.6324999999997,
      "v": 99
    },
    {
      "midi": 29,
      "hit": false,
      "t": 44999.91900000007,
      "d": 365.8530000000028,
      "v": 99
    },
    {
      "midi": 50,
      "hit": false,
      "t": 45365.77200000001,
      "d": 1463.4119999999966,
      "v": 59
    },
    {
      "midi": 59,
      "hit": false,
      "t": 45365.77200000001,
      "d": 1463.4119999999966,
      "v": 59
    },
    {
      "midi": 55,
      "hit": false,
      "t": 45365.77200000001,
      "d": 2926.8239999999932,
      "v": 59
    },
    {
      "midi": 31,
      "hit": false,
      "t": 45365.77200000007,
      "d": 914.6324999999997,
      "v": 99
    },
    {
      "midi": 31,
      "hit": false,
      "t": 46463.33100000007,
      "d": 182.9265000000014,
      "v": 99
    },
    {
      "midi": 33,
      "hit": false,
      "t": 46646.25750000007,
      "d": 182.9265000000014,
      "v": 99
    },
    {
      "midi": 52,
      "hit": false,
      "t": 46829.18400000001,
      "d": 2926.8239999999932,
      "v": 59
    },
    {
      "midi": 60,
      "hit": false,
      "t": 46829.18400000001,
      "d": 2926.8239999999932,
      "v": 59
    },
    {
      "midi": 36,
      "hit": false,
      "t": 46829.184000000074,
      "d": 914.6324999999997,
      "v": 99
    },
    {
      "midi": 64,
      "hit": false,
      "t": 46897.78143750001,
      "d": 114.32906250000087,
      "v": 53
    },
    {
      "midi": 62,
      "hit": false,
      "t": 47263.63443750001,
      "d": 114.32906250000087,
      "v": 53
    },
    {
      "midi": 67,
      "hit": false,
      "t": 47629.487437500014,
      "d": 114.32906250000087,
      "v": 53
    },
    {
      "midi": 36,
      "hit": false,
      "t": 47926.743000000075,
      "d": 365.8530000000028,
      "v": 99
    },
    {
      "midi": 57,
      "hit": false,
      "t": 48292.596000000005,
      "d": 1463.4119999999966,
      "v": 58
    },
    {
      "midi": 69,
      "hit": false,
      "t": 48292.59600000001,
      "d": 731.7059999999983,
      "v": 53
    },
    {
      "midi": 33,
      "hit": false,
      "t": 48292.59600000008,
      "d": 914.6324999999997,
      "v": 99
    },
    {
      "midi": 33,
      "hit": false,
      "t": 49390.15500000008,
      "d": 182.9265000000014,
      "v": 99
    },
    {
      "midi": 31,
      "hit": false,
      "t": 49573.08150000008,
      "d": 182.9265000000014,
      "v": 99
    },
    {
      "midi": 48,
      "hit": false,
      "t": 49756.008,
      "d": 1463.4119999999966,
      "v": 58
    },
    {
      "midi": 53,
      "hit": false,
      "t": 49756.008,
      "d": 1463.4119999999966,
      "v": 58
    },
    {
      "midi": 57,
      "hit": false,
      "t": 49756.008,
      "d": 1463.4119999999966,
      "v": 58
    },
    {
      "midi": 69,
      "hit": false,
      "t": 49756.00800000001,
      "d": 731.7059999999983,
      "v": 53
    },
    {
      "midi": 29,
      "hit": false,
      "t": 49756.00800000008,
      "d": 914.6324999999997,
      "v": 99
    },
    {
      "midi": 29,
      "hit": false,
      "t": 50853.56700000008,
      "d": 365.8530000000028,
      "v": 99
    },
    {
      "midi": 50,
      "hit": false,
      "t": 51219.42,
      "d": 1463.4119999999966,
      "v": 58
    },
    {
      "midi": 59,
      "hit": false,
      "t": 51219.42,
      "d": 1463.4119999999966,
      "v": 58
    },
    {
      "midi": 55,
      "hit": false,
      "t": 51219.42,
      "d": 2926.8239999999932,
      "v": 58
    },
    {
      "midi": 67,
      "hit": false,
      "t": 51219.420000000006,
      "d": 731.7059999999983,
      "v": 53
    },
    {
      "midi": 31,
      "hit": false,
      "t": 51219.420000000086,
      "d": 914.6324999999997,
      "v": 99
    },
    {
      "midi": 31,
      "hit": false,
      "t": 52316.97900000009,
      "d": 182.9265000000014,
      "v": 99
    },
    {
      "midi": 33,
      "hit": false,
      "t": 52499.90550000009,
      "d": 182.9265000000014,
      "v": 99
    },
    {
      "midi": 52,
      "hit": false,
      "t": 52682.831999999995,
      "d": 2926.8239999999932,
      "v": 57
    },
    {
      "midi": 60,
      "hit": false,
      "t": 52682.831999999995,
      "d": 2926.8239999999932,
      "v": 57
    },
    {
      "midi": 67,
      "hit": false,
      "t": 52682.832,
      "d": 731.7059999999983,
      "v": 53
    },
    {
      "midi": 36,
      "hit": false,
      "t": 52682.83200000009,
      "d": 1097.559000000001,
      "v": 99
    },
    {
      "midi": 31,
      "hit": false,
      "t": 53780.39100000009,
      "d": 182.9265000000014,
      "v": 99
    },
    {
      "midi": 36,
      "hit": false,
      "t": 53963.31750000009,
      "d": 182.9265000000014,
      "v": 99
    },
    {
      "midi": 57,
      "hit": false,
      "t": 54146.24399999999,
      "d": 1463.4119999999966,
      "v": 57
    },
    {
      "midi": 69,
      "hit": false,
      "t": 54146.244,
      "d": 731.7059999999983,
      "v": 53
    },
    {
      "midi": 33,
      "hit": false,
      "t": 54146.24400000009,
      "d": 731.7059999999983,
      "v": 99
    },
    {
      "midi": 52,
      "hit": false,
      "t": 54877.95,
      "d": 365.8530000000028,
      "v": 53
    },
    {
      "midi": 64,
      "hit": false,
      "t": 54877.950000000004,
      "d": 388.71881250000297,
      "v": 89
    },
    {
      "midi": 31,
      "hit": false,
      "t": 54877.95000000009,
      "d": 731.7059999999983,
      "v": 99
    },
    {
      "midi": 50,
      "hit": false,
      "t": 55243.803,
      "d": 182.9265000000014,
      "v": 53
    },
    {
      "midi": 62,
      "hit": false,
      "t": 55243.80300000001,
      "d": 365.8530000000028,
      "v": 87
    },
    {
      "midi": 48,
      "hit": false,
      "t": 55609.65599999999,
      "d": 1463.4119999999966,
      "v": 62
    },
    {
      "midi": 53,
      "hit": false,
      "t": 55609.65599999999,
      "d": 1463.4119999999966,
      "v": 62
    },
    {
      "midi": 57,
      "hit": false,
      "t": 55609.65599999999,
      "d": 1463.4119999999966,
      "v": 62
    },
    {
      "midi": 60,
      "hit": false,
      "t": 55609.65600000001,
      "d": 708.8401874999981,
      "v": 85
    },
    {
      "midi": 29,
      "hit": false,
      "t": 55609.65600000009,
      "d": 983.2299375000002,
      "v": 99
    },
    {
      "midi": 28,
      "hit": false,
      "t": 56707.21500000009,
      "d": 106.70712500000081,
      "v": 99
    },
    {
      "midi": 29,
      "hit": false,
      "t": 56890.14150000009,
      "d": 224.08496250000462,
      "v": 99
    },
    {
      "midi": 50,
      "hit": false,
      "t": 57073.067999999985,
      "d": 1463.4119999999966,
      "v": 62
    },
    {
      "midi": 59,
      "hit": false,
      "t": 57073.067999999985,
      "d": 1463.4119999999966,
      "v": 62
    },
    {
      "midi": 55,
      "hit": false,
      "t": 57073.067999999985,
      "d": 2926.8239999999932,
      "v": 62
    },
    {
      "midi": 31,
      "hit": false,
      "t": 57073.068000000094,
      "d": 876.5228125000067,
      "v": 99
    },
    {
      "midi": 55,
      "hit": false,
      "t": 58147.761187500015,
      "d": 76.21937500000058,
      "v": 73
    },
    {
      "midi": 53,
      "hit": false,
      "t": 58170.627000000015,
      "d": 304.8775000000023,
      "v": 66
    },
    {
      "midi": 57,
      "hit": false,
      "t": 58170.627000000015,
      "d": 376.5237125000058,
      "v": 66
    },
    {
      "midi": 60,
      "hit": false,
      "t": 58170.627000000015,
      "d": 7705.778812500001,
      "v": 77
    },
    {
      "midi": 31,
      "hit": false,
      "t": 58170.6270000001,
      "d": 91.4632500000007,
      "v": 99
    },
    {
      "midi": 33,
      "hit": false,
      "t": 58353.553500000104,
      "d": 185.97527500000433,
      "v": 99
    },
    {
      "midi": 52,
      "hit": false,
      "t": 58536.47999999998,
      "d": 2926.8239999999932,
      "v": 61
    },
    {
      "midi": 60,
      "hit": false,
      "t": 58536.47999999998,
      "d": 2926.8239999999932,
      "v": 61
    },
    {
      "midi": 55,
      "hit": false,
      "t": 58536.48000000002,
      "d": 1486.277812500004,
      "v": 66
    },
    {
      "midi": 52,
      "hit": false,
      "t": 58536.48000000002,
      "d": 2926.8240000000005,
      "v": 66
    },
    {
      "midi": 36,
      "hit": false,
      "t": 58536.480000000105,
      "d": 1100.607775000004,
      "v": 99
    },
    {
      "midi": 35,
      "hit": false,
      "t": 59634.039000000106,
      "d": 213.41425000000163,
      "v": 99
    },
    {
      "midi": 36,
      "hit": false,
      "t": 59816.96550000011,
      "d": 167.68262500000128,
      "v": 99
    },
    {
      "midi": 57,
      "hit": false,
      "t": 59999.89199999998,
      "d": 1463.4119999999966,
      "v": 61
    },
    {
      "midi": 33,
      "hit": false,
      "t": 59999.89200000011,
      "d": 1440.5461875000037,
      "v": 99
    },
    {
      "midi": 53,
      "hit": false,
      "t": 61463.303999999975,
      "d": 2560.9709999999977,
      "v": 61
    },
    {
      "midi": 57,
      "hit": false,
      "t": 61463.303999999975,
      "d": 2560.9709999999977,
      "v": 61
    },
    {
      "midi": 60,
      "hit": false,
      "t": 61463.303999999975,
      "d": 2560.9709999999977,
      "v": 61
    },
    {
      "midi": 57,
      "hit": false,
      "t": 61463.30400000001,
      "d": 1463.412000000004,
      "v": 95
    },
    {
      "midi": 60,
      "hit": false,
      "t": 61463.30400000001,
      "d": 1463.412000000004,
      "v": 95
    },
    {
      "midi": 53,
      "hit": false,
      "t": 61463.30400000001,
      "d": 1486.277812500004,
      "v": 95
    },
    {
      "midi": 57,
      "hit": false,
      "t": 61463.30400000002,
      "d": 22.865812500000175,
      "v": 65
    },
    {
      "midi": 53,
      "hit": false,
      "t": 61463.30400000002,
      "d": 4390.236000000004,
      "v": 65
    },
    {
      "midi": 29,
      "hit": false,
      "t": 61463.30400000011,
      "d": 902.4374000000025,
      "v": 99
    },
    {
      "midi": 29,
      "hit": false,
      "t": 62560.863000000114,
      "d": 140.2436499999967,
      "v": 99
    },
    {
      "midi": 29,
      "hit": false,
      "t": 62926.71600000011,
      "d": 1253.046524999998,
      "v": 99
    },
    {
      "midi": 53,
      "hit": false,
      "t": 64024.27499999997,
      "d": 365.8530000000028,
      "v": 60
    },
    {
      "midi": 57,
      "hit": false,
      "t": 64024.27499999997,
      "d": 365.8530000000028,
      "v": 60
    },
    {
      "midi": 60,
      "hit": false,
      "t": 64024.27499999997,
      "d": 365.8530000000028,
      "v": 60
    },
    {
      "midi": 53,
      "hit": false,
      "t": 64390.127999999975,
      "d": 1463.412000000004,
      "v": 60
    },
    {
      "midi": 57,
      "hit": false,
      "t": 64390.127999999975,
      "d": 1463.412000000004,
      "v": 60
    },
    {
      "midi": 60,
      "hit": false,
      "t": 64390.127999999975,
      "d": 1463.412000000004,
      "v": 60
    },
    {
      "midi": 53,
      "hit": false,
      "t": 64390.12800000001,
      "d": 1440.5461875000037,
      "v": 100
    },
    {
      "midi": 60,
      "hit": false,
      "t": 64390.12800000001,
      "d": 1463.4119999999966,
      "v": 100
    },
    {
      "midi": 57,
      "hit": false,
      "t": 64390.12800000001,
      "d": 1486.2778124999895,
      "v": 100
    },
    {
      "midi": 29,
      "hit": false,
      "t": 64390.128000000106,
      "d": 917.6812750000026,
      "v": 99
    },
    {
      "midi": 29,
      "hit": false,
      "t": 65487.68700000011,
      "d": 300.3043374999979,
      "v": 99
    },
    {
      "midi": 55,
      "hit": false,
      "t": 65853.53999999998,
      "d": 1463.4119999999966,
      "v": 60
    },
    {
      "midi": 59,
      "hit": false,
      "t": 65853.53999999998,
      "d": 1463.4119999999966,
      "v": 60
    },
    {
      "midi": 62,
      "hit": false,
      "t": 65853.53999999998,
      "d": 1463.4119999999966,
      "v": 60
    },
    {
      "midi": 55,
      "hit": false,
      "t": 65853.54000000001,
      "d": 731.705999999991,
      "v": 95
    },
    {
      "midi": 59,
      "hit": false,
      "t": 65853.54000000001,
      "d": 731.705999999991,
      "v": 95
    },
    {
      "midi": 62,
      "hit": false,
      "t": 65853.54000000001,
      "d": 731.705999999991,
      "v": 95
    },
    {
      "midi": 55,
      "hit": false,
      "t": 65853.54000000002,
      "d": 1463.4119999999966,
      "v": 63
    },
    {
      "midi": 59,
      "hit": false,
      "t": 65853.54000000002,
      "d": 1463.4119999999966,
      "v": 63
    },
    {
      "midi": 31,
      "hit": false,
      "t": 65853.54000000011,
      "d": 937.4983124999999,
      "v": 99
    },
    {
      "midi": 62,
      "hit": false,
      "t": 65876.40581250002,
      "d": 1440.5461875000037,
      "v": 63
    },
    {
      "midi": 55,
      "hit": false,
      "t": 66951.099,
      "d": 2583.836812499998,
      "v": 117
    },
    {
      "midi": 31,
      "hit": false,
      "t": 66951.0990000001,
      "d": 137.19487500000105,
      "v": 99
    },
    {
      "midi": 33,
      "hit": false,
      "t": 67134.0255000001,
      "d": 160.06068749999395,
      "v": 99
    },
    {
      "midi": 67,
      "hit": false,
      "t": 67316.952,
      "d": 2217.983812499995,
      "v": 114
    },
    {
      "midi": 60,
      "hit": false,
      "t": 67316.952,
      "d": 2240.849624999988,
      "v": 114
    },
    {
      "midi": 50,
      "hit": false,
      "t": 67316.95200000002,
      "d": 2926.8239999999932,
      "v": 54
    },
    {
      "midi": 48,
      "hit": false,
      "t": 67316.95200000002,
      "d": 8780.47199999998,
      "v": 54
    },
    {
      "midi": 36,
      "hit": false,
      "t": 67316.95200000009,
      "d": 182.9265000000014,
      "v": 99
    },
    {
      "midi": 48,
      "hit": false,
      "t": 67316.95200000016,
      "d": 182.9265000000014,
      "v": 56
    },
    {
      "midi": 31,
      "hit": false,
      "t": 67499.8785000001,
      "d": 182.9265000000014,
      "v": 99
    },
    {
      "midi": 55,
      "hit": false,
      "t": 67499.87850000017,
      "d": 182.9265000000014,
      "v": 56
    },
    {
      "midi": 33,
      "hit": false,
      "t": 67682.8050000001,
      "d": 182.9265000000014,
      "v": 99
    },
    {
      "midi": 48,
      "hit": false,
      "t": 67682.80500000017,
      "d": 182.9265000000014,
      "v": 56
    },
    {
      "midi": 36,
      "hit": false,
      "t": 67865.7315000001,
      "d": 182.9265000000014,
      "v": 99
    },
    {
      "midi": 55,
      "hit": false,
      "t": 67865.73150000017,
      "d": 182.9265000000014,
      "v": 56
    },
    {
      "midi": 48,
      "hit": false,
      "t": 68048.65800000017,
      "d": 182.9265000000014,
      "v": 56
    },
    {
      "midi": 74,
      "hit": false,
      "t": 68414.511,
      "d": 693.596312499998,
      "v": 89
    },
    {
      "midi": 38,
      "hit": false,
      "t": 68414.5110000001,
      "d": 365.8530000000028,
      "v": 99
    },
    {
      "midi": 55,
      "hit": false,
      "t": 68414.51100000017,
      "d": 182.9265000000014,
      "v": 56
    },
    {
      "midi": 79,
      "hit": false,
      "t": 68780.364,
      "d": 1120.4248124999867,
      "v": 84
    },
    {
      "midi": 36,
      "hit": false,
      "t": 68780.3640000001,
      "d": 731.7060000000056,
      "v": 99
    },
    {
      "midi": 48,
      "hit": false,
      "t": 68780.36400000018,
      "d": 182.9265000000014,
      "v": 56
    },
    {
      "midi": 55,
      "hit": false,
      "t": 68963.29050000018,
      "d": 182.9265000000014,
      "v": 56
    },
    {
      "midi": 48,
      "hit": false,
      "t": 69329.14350000018,
      "d": 182.9265000000014,
      "v": 56
    },
    {
      "midi": 55,
      "hit": false,
      "t": 69512.07000000018,
      "d": 182.9265000000014,
      "v": 56
    },
    {
      "midi": 55,
      "hit": false,
      "t": 69877.92300000018,
      "d": 182.9265000000014,
      "v": 56
    },
    {
      "midi": 52,
      "hit": false,
      "t": 70243.77600000001,
      "d": 2926.8239999999932,
      "v": 53
    },
    {
      "midi": 33,
      "hit": false,
      "t": 70243.77600000011,
      "d": 777.4376250000059,
      "v": 99
    },
    {
      "midi": 45,
      "hit": false,
      "t": 70243.77600000019,
      "d": 182.9265000000014,
      "v": 56
    },
    {
      "midi": 55,
      "hit": false,
      "t": 70426.70250000019,
      "d": 182.9265000000014,
      "v": 56
    },
    {
      "midi": 45,
      "hit": false,
      "t": 70609.62900000019,
      "d": 182.9265000000014,
      "v": 56
    },
    {
      "midi": 55,
      "hit": false,
      "t": 70792.55550000019,
      "d": 182.9265000000014,
      "v": 56
    },
    {
      "midi": 45,
      "hit": false,
      "t": 70975.4820000002,
      "d": 182.9265000000014,
      "v": 56
    },
    {
      "midi": 40,
      "hit": false,
      "t": 71158.40850000012,
      "d": 144.81681249999383,
      "v": 99
    },
    {
      "midi": 45,
      "hit": false,
      "t": 71341.33500000011,
      "d": 1532.0094374999899,
      "v": 99
    },
    {
      "midi": 55,
      "hit": false,
      "t": 71341.3350000002,
      "d": 182.9265000000014,
      "v": 56
    },
    {
      "midi": 45,
      "hit": false,
      "t": 71707.1880000002,
      "d": 182.9265000000014,
      "v": 56
    },
    {
      "midi": 55,
      "hit": false,
      "t": 71890.1145000002,
      "d": 182.9265000000014,
      "v": 56
    },
    {
      "midi": 45,
      "hit": false,
      "t": 72073.0410000002,
      "d": 182.9265000000014,
      "v": 56
    },
    {
      "midi": 55,
      "hit": false,
      "t": 72255.9675000002,
      "d": 182.9265000000014,
      "v": 56
    },
    {
      "midi": 55,
      "hit": false,
      "t": 72804.7470000002,
      "d": 182.9265000000014,
      "v": 56
    },
    {
      "midi": 53,
      "hit": false,
      "t": 73170.6,
      "d": 2926.8239999999932,
      "v": 53
    },
    {
      "midi": 41,
      "hit": false,
      "t": 73170.6000000001,
      "d": 914.632500000007,
      "v": 99
    },
    {
      "midi": 41,
      "hit": false,
      "t": 73170.60000000021,
      "d": 182.9265000000014,
      "v": 56
    },
    {
      "midi": 55,
      "hit": false,
      "t": 73353.52650000021,
      "d": 182.9265000000014,
      "v": 56
    },
    {
      "midi": 41,
      "hit": false,
      "t": 73536.45300000021,
      "d": 182.9265000000014,
      "v": 56
    },
    {
      "midi": 55,
      "hit": false,
      "t": 73719.37950000021,
      "d": 182.9265000000014,
      "v": 56
    },
    {
      "midi": 41,
      "hit": false,
      "t": 74268.1590000001,
      "d": 182.9265000000014,
      "v": 99
    },
    {
      "midi": 55,
      "hit": false,
      "t": 74268.15900000022,
      "d": 182.9265000000014,
      "v": 56
    },
    {
      "midi": 41,
      "hit": false,
      "t": 74634.0120000001,
      "d": 914.632500000007,
      "v": 99
    },
    {
      "midi": 41,
      "hit": false,
      "t": 74634.01200000022,
      "d": 182.9265000000014,
      "v": 56
    },
    {
      "midi": 55,
      "hit": false,
      "t": 74816.93850000022,
      "d": 182.9265000000014,
      "v": 56
    },
    {
      "midi": 41,
      "hit": false,
      "t": 75182.79150000022,
      "d": 182.9265000000014,
      "v": 56
    },
    {
      "midi": 55,
      "hit": false,
      "t": 75365.71800000023,
      "d": 182.9265000000014,
      "v": 56
    },
    {
      "midi": 41,
      "hit": false,
      "t": 75731.57100000011,
      "d": 182.9265000000014,
      "v": 99
    },
    {
      "midi": 41,
      "hit": false,
      "t": 75731.57100000023,
      "d": 182.9265000000014,
      "v": 56
    },
    {
      "midi": 47,
      "hit": false,
      "t": 76097.424,
      "d": 2926.8239999999932,
      "v": 52
    },
    {
      "midi": 52,
      "hit": false,
      "t": 76097.424,
      "d": 2926.8239999999932,
      "v": 52
    },
    {
      "midi": 40,
      "hit": false,
      "t": 76097.42400000012,
      "d": 914.632500000007,
      "v": 99
    },
    {
      "midi": 40,
      "hit": false,
      "t": 76097.42400000023,
      "d": 182.9265000000014,
      "v": 56
    },
    {
      "midi": 57,
      "hit": false,
      "t": 76280.35050000023,
      "d": 182.9265000000014,
      "v": 56
    },
    {
      "midi": 40,
      "hit": false,
      "t": 76646.20350000024,
      "d": 182.9265000000014,
      "v": 56
    },
    {
      "midi": 56,
      "hit": false,
      "t": 76829.13000000024,
      "d": 182.9265000000014,
      "v": 56
    },
    {
      "midi": 40,
      "hit": false,
      "t": 77194.98300000012,
      "d": 182.9265000000014,
      "v": 99
    },
    {
      "midi": 40,
      "hit": false,
      "t": 77194.98300000024,
      "d": 182.9265000000014,
      "v": 56
    },
    {
      "midi": 40,
      "hit": false,
      "t": 77560.83600000013,
      "d": 1097.5589999999938,
      "v": 99
    },
    {
      "midi": 40,
      "hit": false,
      "t": 77560.83600000024,
      "d": 182.9265000000014,
      "v": 56
    },
    {
      "midi": 60,
      "hit": false,
      "t": 77743.76250000001,
      "d": 45.73162500000035,
      "v": 46
    },
    {
      "midi": 56,
      "hit": false,
      "t": 77743.76250000024,
      "d": 182.9265000000014,
      "v": 56
    },
    {
      "midi": 62,
      "hit": false,
      "t": 77789.49412500001,
      "d": 114.3290624999936,
      "v": 46
    },
    {
      "midi": 64,
      "hit": false,
      "t": 77835.22575000001,
      "d": 274.38974999998754,
      "v": 51
    },
    {
      "midi": 40,
      "hit": false,
      "t": 78109.61550000025,
      "d": 182.9265000000014,
      "v": 56
    },
    {
      "midi": 62,
      "hit": false,
      "t": 78269.6761875,
      "d": 30.487750000000233,
      "v": 46
    },
    {
      "midi": 56,
      "hit": false,
      "t": 78292.54200000025,
      "d": 182.9265000000014,
      "v": 56
    },
    {
      "midi": 57,
      "hit": false,
      "t": 78475.46849999999,
      "d": 228.65812500000175,
      "v": 47
    },
    {
      "midi": 60,
      "hit": false,
      "t": 78658.39499999999,
      "d": 365.8530000000028,
      "v": 48
    },
    {
      "midi": 31,
      "hit": false,
      "t": 78658.39500000012,
      "d": 140.24365000000398,
      "v": 99
    },
    {
      "midi": 56,
      "hit": false,
      "t": 78658.39500000025,
      "d": 182.9265000000014,
      "v": 56
    },
    {
      "midi": 33,
      "hit": false,
      "t": 78841.32150000012,
      "d": 147.86558749999676,
      "v": 99
    },
    {
      "midi": 48,
      "hit": false,
      "t": 79024.24799999999,
      "d": 2926.8239999999932,
      "v": 58
    },
    {
      "midi": 55,
      "hit": false,
      "t": 79024.24799999999,
      "d": 5853.6479999999865,
      "v": 68
    },
    {
      "midi": 60,
      "hit": false,
      "t": 79024.24799999999,
      "d": 8780.47199999998,
      "v": 43
    },
    {
      "midi": 36,
      "hit": false,
      "t": 79024.24800000012,
      "d": 182.9265000000014,
      "v": 99
    },
    {
      "midi": 48,
      "hit": false,
      "t": 79024.24800000025,
      "d": 182.9265000000014,
      "v": 56
    },
    {
      "midi": 31,
      "hit": false,
      "t": 79207.17450000012,
      "d": 182.9265000000014,
      "v": 99
    },
    {
      "midi": 55,
      "hit": false,
      "t": 79207.17450000026,
      "d": 182.9265000000014,
      "v": 56
    },
    {
      "midi": 33,
      "hit": false,
      "t": 79390.10100000013,
      "d": 182.9265000000014,
      "v": 99
    },
    {
      "midi": 48,
      "hit": false,
      "t": 79390.10100000026,
      "d": 182.9265000000014,
      "v": 56
    },
    {
      "midi": 36,
      "hit": false,
      "t": 79573.02750000013,
      "d": 182.9265000000014,
      "v": 99
    },
    {
      "midi": 55,
      "hit": false,
      "t": 79573.02750000026,
      "d": 182.9265000000014,
      "v": 56
    },
    {
      "midi": 38,
      "hit": false,
      "t": 80121.80700000013,
      "d": 365.8530000000028,
      "v": 99
    },
    {
      "midi": 55,
      "hit": false,
      "t": 80121.80700000026,
      "d": 182.9265000000014,
      "v": 56
    },
    {
      "midi": 60,
      "hit": false,
      "t": 80304.73349999999,
      "d": 224.08496249999735,
      "v": 51
    },
    {
      "midi": 64,
      "hit": false,
      "t": 80487.65999999999,
      "d": 216.46302500000456,
      "v": 52
    },
    {
      "midi": 36,
      "hit": false,
      "t": 80487.66000000013,
      "d": 731.7060000000056,
      "v": 99
    },
    {
      "midi": 48,
      "hit": false,
      "t": 80487.66000000027,
      "d": 182.9265000000014,
      "v": 56
    },
    {
      "midi": 67,
      "hit": false,
      "t": 80670.58649999999,
      "d": 2160.0570874999976,
      "v": 49
    },
    {
      "midi": 55,
      "hit": false,
      "t": 80670.58650000027,
      "d": 182.9265000000014,
      "v": 56
    },
    {
      "midi": 48,
      "hit": false,
      "t": 81036.43950000027,
      "d": 182.9265000000014,
      "v": 56
    },
    {
      "midi": 31,
      "hit": false,
      "t": 81219.36600000014,
      "d": 548.7795000000042,
      "v": 99
    },
    {
      "midi": 55,
      "hit": false,
      "t": 81219.36600000027,
      "d": 182.9265000000014,
      "v": 56
    },
    {
      "midi": 55,
      "hit": false,
      "t": 81585.21900000027,
      "d": 182.9265000000014,
      "v": 56
    },
    {
      "midi": 35,
      "hit": false,
      "t": 81768.14550000014,
      "d": 152.43875000000116,
      "v": 99
    },
    {
      "midi": 52,
      "hit": false,
      "t": 81951.07199999999,
      "d": 2926.8239999999932,
      "v": 48
    },
    {
      "midi": 57,
      "hit": false,
      "t": 81951.07199999999,
      "d": 2926.8239999999932,
      "v": 64
    },
    {
      "midi": 33,
      "hit": false,
      "t": 81951.07200000015,
      "d": 777.4376250000059,
      "v": 99
    },
    {
      "midi": 45,
      "hit": false,
      "t": 81951.07200000028,
      "d": 182.9265000000014,
      "v": 56
    },
    {
      "midi": 55,
      "hit": false,
      "t": 82133.99850000028,
      "d": 182.9265000000014,
      "v": 56
    },
    {
      "midi": 45,
      "hit": false,
      "t": 82316.92500000028,
      "d": 182.9265000000014,
      "v": 56
    },
    {
      "midi": 55,
      "hit": false,
      "t": 82499.85150000028,
      "d": 182.9265000000014,
      "v": 56
    },
    {
      "midi": 62,
      "hit": false,
      "t": 82842.83868749999,
      "d": 68.59743749999325,
      "v": 64
    },
    {
      "midi": 64,
      "hit": false,
      "t": 82865.70449999998,
      "d": 2035.0573124999937,
      "v": 51
    },
    {
      "midi": 40,
      "hit": false,
      "t": 82865.70450000015,
      "d": 144.81681249999383,
      "v": 99
    },
    {
      "midi": 45,
      "hit": false,
      "t": 83048.63100000014,
      "d": 1097.5589999999793,
      "v": 99
    },
    {
      "midi": 55,
      "hit": false,
      "t": 83048.63100000028,
      "d": 182.9265000000014,
      "v": 56
    },
    {
      "midi": 45,
      "hit": false,
      "t": 83414.48400000029,
      "d": 182.9265000000014,
      "v": 56
    },
    {
      "midi": 55,
      "hit": false,
      "t": 83597.41050000029,
      "d": 182.9265000000014,
      "v": 56
    },
    {
      "midi": 45,
      "hit": false,
      "t": 83963.26350000029,
      "d": 182.9265000000014,
      "v": 56
    },
    {
      "midi": 55,
      "hit": false,
      "t": 83963.26350000029,
      "d": 182.9265000000014,
      "v": 56
    },
    {
      "midi": 33,
      "hit": false,
      "t": 84329.11650000012,
      "d": 182.9265000000014,
      "v": 99
    },
    {
      "midi": 31,
      "hit": false,
      "t": 84512.04300000012,
      "d": 182.9265000000014,
      "v": 99
    },
    {
      "midi": 55,
      "hit": false,
      "t": 84512.0430000003,
      "d": 182.9265000000014,
      "v": 56
    },
    {
      "midi": 48,
      "hit": false,
      "t": 84877.89599999998,
      "d": 2926.8239999999932,
      "v": 58
    },
    {
      "midi": 53,
      "hit": false,
      "t": 84877.89599999998,
      "d": 2926.8239999999932,
      "v": 58
    },
    {
      "midi": 55,
      "hit": false,
      "t": 84877.89599999998,
      "d": 2926.8239999999932,
      "v": 74
    },
    {
      "midi": 60,
      "hit": false,
      "t": 84877.89599999998,
      "d": 2035.0573124999937,
      "v": 43
    },
    {
      "midi": 29,
      "hit": false,
      "t": 84877.89600000012,
      "d": 914.632500000007,
      "v": 99
    },
    {
      "midi": 41,
      "hit": false,
      "t": 84877.8960000003,
      "d": 182.9265000000014,
      "v": 56
    },
    {
      "midi": 55,
      "hit": false,
      "t": 85060.8225000003,
      "d": 182.9265000000014,
      "v": 56
    },
    {
      "midi": 41,
      "hit": false,
      "t": 85243.7490000003,
      "d": 182.9265000000014,
      "v": 56
    },
    {
      "midi": 55,
      "hit": false,
      "t": 85426.6755000003,
      "d": 182.9265000000014,
      "v": 56
    },
    {
      "midi": 29,
      "hit": false,
      "t": 85975.45500000013,
      "d": 182.9265000000014,
      "v": 99
    },
    {
      "midi": 55,
      "hit": false,
      "t": 85975.45500000031,
      "d": 182.9265000000014,
      "v": 56
    },
    {
      "midi": 29,
      "hit": false,
      "t": 86341.30800000014,
      "d": 914.632500000007,
      "v": 99
    },
    {
      "midi": 41,
      "hit": false,
      "t": 86341.30800000031,
      "d": 182.9265000000014,
      "v": 56
    },
    {
      "midi": 55,
      "hit": false,
      "t": 86524.23450000031,
      "d": 182.9265000000014,
      "v": 56
    },
    {
      "midi": 41,
      "hit": false,
      "t": 86890.08750000031,
      "d": 182.9265000000014,
      "v": 56
    },
    {
      "midi": 55,
      "hit": false,
      "t": 87073.01400000032,
      "d": 182.9265000000014,
      "v": 56
    },
    {
      "midi": 29,
      "hit": false,
      "t": 87438.86700000014,
      "d": 182.9265000000014,
      "v": 99
    },
    {
      "midi": 41,
      "hit": false,
      "t": 87438.86700000032,
      "d": 182.9265000000014,
      "v": 56
    },
    {
      "midi": 50,
      "hit": false,
      "t": 87804.71999999997,
      "d": 1455.7900625000038,
      "v": 65
    },
    {
      "midi": 56,
      "hit": false,
      "t": 87804.71999999997,
      "d": 2926.824000000008,
      "v": 54
    },
    {
      "midi": 59,
      "hit": false,
      "t": 87804.71999999997,
      "d": 2926.824000000008,
      "v": 80
    },
    {
      "midi": 47,
      "hit": false,
      "t": 87804.71999999997,
      "d": 2926.8239999999932,
      "v": 64
    },
    {
      "midi": 52,
      "hit": false,
      "t": 87804.71999999997,
      "d": 2926.8239999999932,
      "v": 64
    },
    {
      "midi": 64,
      "hit": false,
      "t": 87804.72,
      "d": 365.8530000000028,
      "v": 68
    },
    {
      "midi": 62,
      "hit": false,
      "t": 87804.72000000003,
      "d": 5853.648000000016,
      "v": 86
    },
    {
      "midi": 59,
      "hit": false,
      "t": 87804.72000000003,
      "d": 5876.5138125000085,
      "v": 80
    },
    {
      "midi": 64,
      "hit": false,
      "t": 87804.72000000003,
      "d": 5876.5138125000085,
      "v": 80
    },
    {
      "midi": 28,
      "hit": false,
      "t": 87804.72000000015,
      "d": 914.632500000007,
      "v": 99
    },
    {
      "midi": 40,
      "hit": false,
      "t": 87804.72000000032,
      "d": 182.9265000000014,
      "v": 56
    },
    {
      "midi": 57,
      "hit": false,
      "t": 87987.64650000032,
      "d": 182.9265000000014,
      "v": 56
    },
    {
      "midi": 68,
      "hit": false,
      "t": 88170.573,
      "d": 365.8530000000028,
      "v": 67
    },
    {
      "midi": 40,
      "hit": false,
      "t": 88353.49950000033,
      "d": 182.9265000000014,
      "v": 56
    },
    {
      "midi": 69,
      "hit": false,
      "t": 88536.426,
      "d": 365.8530000000028,
      "v": 67
    },
    {
      "midi": 56,
      "hit": false,
      "t": 88536.42600000033,
      "d": 182.9265000000014,
      "v": 56
    },
    {
      "midi": 71,
      "hit": false,
      "t": 88902.27900000001,
      "d": 365.8530000000028,
      "v": 67
    },
    {
      "midi": 28,
      "hit": false,
      "t": 88902.27900000016,
      "d": 182.9265000000014,
      "v": 99
    },
    {
      "midi": 40,
      "hit": false,
      "t": 88902.27900000033,
      "d": 182.9265000000014,
      "v": 56
    },
    {
      "midi": 68,
      "hit": false,
      "t": 89268.13200000001,
      "d": 365.8530000000028,
      "v": 66
    },
    {
      "midi": 28,
      "hit": false,
      "t": 89268.13200000016,
      "d": 914.632500000007,
      "v": 99
    },
    {
      "midi": 40,
      "hit": false,
      "t": 89268.13200000033,
      "d": 182.9265000000014,
      "v": 56
    },
    {
      "midi": 52,
      "hit": false,
      "t": 89290.99781249998,
      "d": 1440.5461875000037,
      "v": 52
    },
    {
      "midi": 56,
      "hit": false,
      "t": 89451.05850000033,
      "d": 182.9265000000014,
      "v": 56
    },
    {
      "midi": 69,
      "hit": false,
      "t": 89633.98500000002,
      "d": 365.8530000000028,
      "v": 66
    },
    {
      "midi": 40,
      "hit": false,
      "t": 89816.91150000034,
      "d": 182.9265000000014,
      "v": 56
    },
    {
      "midi": 71,
      "hit": false,
      "t": 89999.83800000002,
      "d": 365.8530000000028,
      "v": 66
    },
    {
      "midi": 56,
      "hit": false,
      "t": 89999.83800000034,
      "d": 182.9265000000014,
      "v": 56
    },
    {
      "midi": 28,
      "hit": false,
      "t": 90182.76450000016,
      "d": 182.9265000000014,
      "v": 99
    },
    {
      "midi": 72,
      "hit": false,
      "t": 90365.69100000002,
      "d": 182.9265000000014,
      "v": 65
    },
    {
      "midi": 31,
      "hit": false,
      "t": 90365.69100000017,
      "d": 182.9265000000014,
      "v": 99
    },
    {
      "midi": 56,
      "hit": false,
      "t": 90365.69100000034,
      "d": 182.9265000000014,
      "v": 56
    },
    {
      "midi": 74,
      "hit": false,
      "t": 90548.61750000002,
      "d": 182.9265000000014,
      "v": 65
    },
    {
      "midi": 30,
      "hit": false,
      "t": 90548.61750000017,
      "d": 182.9265000000014,
      "v": 99
    },
    {
      "midi": 48,
      "hit": false,
      "t": 90731.54399999997,
      "d": 1463.4119999999966,
      "v": 59
    },
    {
      "midi": 53,
      "hit": false,
      "t": 90731.54399999997,
      "d": 1463.4119999999966,
      "v": 59
    },
    {
      "midi": 57,
      "hit": false,
      "t": 90731.54399999997,
      "d": 1463.4119999999966,
      "v": 59
    },
    {
      "midi": 57,
      "hit": false,
      "t": 90731.54400000001,
      "d": 91.4632500000007,
      "v": 53
    },
    {
      "midi": 72,
      "hit": false,
      "t": 90731.54400000002,
      "d": 2195.118000000002,
      "v": 65
    },
    {
      "midi": 29,
      "hit": false,
      "t": 90731.54400000017,
      "d": 914.632500000007,
      "v": 99
    },
    {
      "midi": 29,
      "hit": false,
      "t": 91829.10300000018,
      "d": 365.8530000000028,
      "v": 99
    },
    {
      "midi": 50,
      "hit": false,
      "t": 92194.95599999996,
      "d": 1463.4119999999966,
      "v": 59
    },
    {
      "midi": 59,
      "hit": false,
      "t": 92194.95599999996,
      "d": 1463.4119999999966,
      "v": 59
    },
    {
      "midi": 55,
      "hit": false,
      "t": 92194.95599999996,
      "d": 2926.8239999999932,
      "v": 59
    },
    {
      "midi": 59,
      "hit": false,
      "t": 92194.956,
      "d": 91.4632500000007,
      "v": 53
    },
    {
      "midi": 31,
      "hit": false,
      "t": 92194.95600000018,
      "d": 914.632500000007,
      "v": 99
    },
    {
      "midi": 31,
      "hit": false,
      "t": 93292.51500000019,
      "d": 182.9265000000014,
      "v": 99
    },
    {
      "midi": 33,
      "hit": false,
      "t": 93475.44150000019,
      "d": 182.9265000000014,
      "v": 99
    },
    {
      "midi": 52,
      "hit": false,
      "t": 93658.36799999996,
      "d": 2926.8239999999932,
      "v": 59
    },
    {
      "midi": 60,
      "hit": false,
      "t": 93658.36799999996,
      "d": 2926.8239999999932,
      "v": 59
    },
    {
      "midi": 64,
      "hit": false,
      "t": 93658.368,
      "d": 91.4632500000007,
      "v": 53
    },
    {
      "midi": 36,
      "hit": false,
      "t": 93658.36800000019,
      "d": 914.632500000007,
      "v": 99
    },
    {
      "midi": 60,
      "hit": false,
      "t": 94390.07400000001,
      "d": 91.4632500000007,
      "v": 53
    },
    {
      "midi": 67,
      "hit": false,
      "t": 94390.07400000001,
      "d": 91.4632500000007,
      "v": 53
    },
    {
      "midi": 36,
      "hit": false,
      "t": 94755.9270000002,
      "d": 365.85299999998824,
      "v": 99
    },
    {
      "midi": 57,
      "hit": false,
      "t": 95121.77999999996,
      "d": 1463.4119999999966,
      "v": 58
    },
    {
      "midi": 60,
      "hit": false,
      "t": 95121.78000000001,
      "d": 91.4632500000007,
      "v": 53
    },
    {
      "midi": 69,
      "hit": false,
      "t": 95121.78000000001,
      "d": 91.4632500000007,
      "v": 53
    },
    {
      "midi": 33,
      "hit": false,
      "t": 95121.78000000019,
      "d": 914.632500000007,
      "v": 99
    },
    {
      "midi": 60,
      "hit": false,
      "t": 95853.48600000002,
      "d": 91.4632500000007,
      "v": 53
    },
    {
      "midi": 67,
      "hit": false,
      "t": 95853.48600000002,
      "d": 91.4632500000007,
      "v": 53
    },
    {
      "midi": 33,
      "hit": false,
      "t": 96219.3390000002,
      "d": 182.9265000000014,
      "v": 99
    },
    {
      "midi": 31,
      "hit": false,
      "t": 96402.2655000002,
      "d": 182.9265000000014,
      "v": 99
    },
    {
      "midi": 48,
      "hit": false,
      "t": 96585.19199999995,
      "d": 1463.4119999999966,
      "v": 58
    },
    {
      "midi": 53,
      "hit": false,
      "t": 96585.19199999995,
      "d": 1463.4119999999966,
      "v": 58
    },
    {
      "midi": 57,
      "hit": false,
      "t": 96585.19199999995,
      "d": 1463.4119999999966,
      "v": 58
    },
    {
      "midi": 57,
      "hit": false,
      "t": 96585.19200000002,
      "d": 91.4632500000007,
      "v": 53
    },
    {
      "midi": 29,
      "hit": false,
      "t": 96585.1920000002,
      "d": 914.632500000007,
      "v": 99
    },
    {
      "midi": 29,
      "hit": false,
      "t": 97682.75100000021,
      "d": 365.8530000000028,
      "v": 99
    },
    {
      "midi": 50,
      "hit": false,
      "t": 98048.60399999995,
      "d": 1463.4119999999966,
      "v": 58
    },
    {
      "midi": 59,
      "hit": false,
      "t": 98048.60399999995,
      "d": 1463.4119999999966,
      "v": 58
    },
    {
      "midi": 55,
      "hit": false,
      "t": 98048.60399999995,
      "d": 2926.8239999999932,
      "v": 58
    },
    {
      "midi": 59,
      "hit": false,
      "t": 98048.60400000002,
      "d": 91.4632500000007,
      "v": 53
    },
    {
      "midi": 31,
      "hit": false,
      "t": 98048.60400000021,
      "d": 914.632500000007,
      "v": 99
    },
    {
      "midi": 31,
      "hit": false,
      "t": 99146.16300000022,
      "d": 182.9265000000014,
      "v": 99
    },
    {
      "midi": 33,
      "hit": false,
      "t": 99329.08950000022,
      "d": 182.9265000000014,
      "v": 99
    },
    {
      "midi": 52,
      "hit": false,
      "t": 99512.01599999995,
      "d": 2926.8239999999932,
      "v": 57
    },
    {
      "midi": 60,
      "hit": false,
      "t": 99512.01599999995,
      "d": 2926.8239999999932,
      "v": 57
    },
    {
      "midi": 60,
      "hit": false,
      "t": 99512.01600000002,
      "d": 91.4632500000007,
      "v": 53
    },
    {
      "midi": 64,
      "hit": false,
      "t": 99512.01600000002,
      "d": 91.4632500000007,
      "v": 53
    },
    {
      "midi": 36,
      "hit": false,
      "t": 99512.01600000022,
      "d": 1097.5589999999938,
      "v": 99
    },
    {
      "midi": 60,
      "hit": false,
      "t": 100243.72200000002,
      "d": 91.4632500000007,
      "v": 53
    },
    {
      "midi": 67,
      "hit": false,
      "t": 100243.72200000002,
      "d": 91.4632500000007,
      "v": 53
    },
    {
      "midi": 31,
      "hit": false,
      "t": 100609.57500000022,
      "d": 182.9265000000014,
      "v": 99
    },
    {
      "midi": 36,
      "hit": false,
      "t": 100792.50150000022,
      "d": 182.9265000000014,
      "v": 99
    },
    {
      "midi": 57,
      "hit": false,
      "t": 100975.42799999994,
      "d": 1463.4119999999966,
      "v": 57
    },
    {
      "midi": 60,
      "hit": false,
      "t": 100975.42800000003,
      "d": 91.4632500000007,
      "v": 53
    },
    {
      "midi": 69,
      "hit": false,
      "t": 100975.42800000003,
      "d": 91.4632500000007,
      "v": 53
    },
    {
      "midi": 33,
      "hit": false,
      "t": 100975.42800000022,
      "d": 731.7060000000056,
      "v": 99
    },
    {
      "midi": 64,
      "hit": false,
      "t": 101707.13400000003,
      "d": 182.9265000000014,
      "v": 53
    },
    {
      "midi": 31,
      "hit": false,
      "t": 101707.13400000022,
      "d": 731.7060000000056,
      "v": 99
    },
    {
      "midi": 62,
      "hit": false,
      "t": 102072.98700000004,
      "d": 182.9265000000014,
      "v": 53
    },
    {
      "midi": 48,
      "hit": false,
      "t": 102438.83999999994,
      "d": 1463.4119999999966,
      "v": 62
    },
    {
      "midi": 53,
      "hit": false,
      "t": 102438.83999999994,
      "d": 1463.4119999999966,
      "v": 62
    },
    {
      "midi": 57,
      "hit": false,
      "t": 102438.83999999994,
      "d": 1463.4119999999966,
      "v": 62
    },
    {
      "midi": 60,
      "hit": false,
      "t": 102438.84000000004,
      "d": 182.9265000000014,
      "v": 53
    },
    {
      "midi": 29,
      "hit": false,
      "t": 102438.84000000023,
      "d": 983.2299375000002,
      "v": 99
    },
    {
      "midi": 28,
      "hit": false,
      "t": 103536.39900000022,
      "d": 182.9265000000014,
      "v": 99
    },
    {
      "midi": 29,
      "hit": false,
      "t": 103719.32550000022,
      "d": 224.08496249999735,
      "v": 99
    },
    {
      "midi": 50,
      "hit": false,
      "t": 103902.25199999993,
      "d": 1463.4119999999966,
      "v": 62
    },
    {
      "midi": 59,
      "hit": false,
      "t": 103902.25199999993,
      "d": 1463.4119999999966,
      "v": 62
    },
    {
      "midi": 55,
      "hit": false,
      "t": 103902.25199999993,
      "d": 2926.8239999999932,
      "v": 62
    },
    {
      "midi": 59,
      "hit": false,
      "t": 103902.25200000004,
      "d": 91.4632500000007,
      "v": 53
    },
    {
      "midi": 31,
      "hit": false,
      "t": 103902.25200000023,
      "d": 876.5228124999994,
      "v": 99
    },
    {
      "midi": 55,
      "hit": false,
      "t": 104976.94518749998,
      "d": 76.21937499998603,
      "v": 73
    },
    {
      "midi": 53,
      "hit": false,
      "t": 104999.81099999997,
      "d": 304.8774999999878,
      "v": 66
    },
    {
      "midi": 57,
      "hit": false,
      "t": 104999.81099999997,
      "d": 376.52371249998396,
      "v": 66
    },
    {
      "midi": 60,
      "hit": false,
      "t": 104999.81099999997,
      "d": 7682.912999999971,
      "v": 77
    },
    {
      "midi": 31,
      "hit": false,
      "t": 104999.81100000022,
      "d": 205.7923124999943,
      "v": 99
    },
    {
      "midi": 33,
      "hit": false,
      "t": 105182.73750000022,
      "d": 185.97527499998978,
      "v": 99
    },
    {
      "midi": 52,
      "hit": false,
      "t": 105365.66399999993,
      "d": 2926.8239999999932,
      "v": 61
    },
    {
      "midi": 60,
      "hit": false,
      "t": 105365.66399999993,
      "d": 2926.8239999999932,
      "v": 61
    },
    {
      "midi": 55,
      "hit": false,
      "t": 105365.66399999996,
      "d": 1486.2778124999895,
      "v": 66
    },
    {
      "midi": 52,
      "hit": false,
      "t": 105365.66399999996,
      "d": 2926.8239999999932,
      "v": 66
    },
    {
      "midi": 64,
      "hit": false,
      "t": 105365.66400000003,
      "d": 91.4632500000007,
      "v": 53
    },
    {
      "midi": 36,
      "hit": false,
      "t": 105365.66400000021,
      "d": 1100.6077750000113,
      "v": 99
    },
    {
      "midi": 60,
      "hit": false,
      "t": 106097.37000000004,
      "d": 91.4632500000007,
      "v": 53
    },
    {
      "midi": 67,
      "hit": false,
      "t": 106097.37000000004,
      "d": 91.4632500000007,
      "v": 53
    },
    {
      "midi": 35,
      "hit": false,
      "t": 106463.22300000022,
      "d": 213.41425000000163,
      "v": 99
    },
    {
      "midi": 36,
      "hit": false,
      "t": 106646.14950000022,
      "d": 167.68262500000128,
      "v": 99
    },
    {
      "midi": 57,
      "hit": false,
      "t": 106829.07599999993,
      "d": 1463.4119999999966,
      "v": 61
    },
    {
      "midi": 60,
      "hit": false,
      "t": 106829.07600000004,
      "d": 91.4632500000007,
      "v": 53
    },
    {
      "midi": 69,
      "hit": false,
      "t": 106829.07600000004,
      "d": 91.4632500000007,
      "v": 53
    },
    {
      "midi": 33,
      "hit": false,
      "t": 106829.07600000022,
      "d": 1374.9975249999698,
      "v": 99
    },
    {
      "midi": 60,
      "hit": false,
      "t": 107560.78200000005,
      "d": 91.4632500000007,
      "v": 53
    },
    {
      "midi": 67,
      "hit": false,
      "t": 107560.78200000005,
      "d": 91.4632500000007,
      "v": 53
    },
    {
      "midi": 62,
      "hit": false,
      "t": 107926.635,
      "d": 304.8775000000023,
      "v": 84
    },
    {
      "midi": 59,
      "hit": false,
      "t": 107926.635,
      "d": 330.79208749999816,
      "v": 84
    },
    {
      "midi": 53,
      "hit": false,
      "t": 108292.48799999992,
      "d": 2560.971000000005,
      "v": 61
    },
    {
      "midi": 57,
      "hit": false,
      "t": 108292.48799999992,
      "d": 2560.971000000005,
      "v": 61
    },
    {
      "midi": 60,
      "hit": false,
      "t": 108292.48799999992,
      "d": 2560.971000000005,
      "v": 61
    },
    {
      "midi": 57,
      "hit": false,
      "t": 108292.48799999995,
      "d": 22.8658124999929,
      "v": 65
    },
    {
      "midi": 53,
      "hit": false,
      "t": 108292.48799999995,
      "d": 4390.23599999999,
      "v": 65
    },
    {
      "midi": 53,
      "hit": false,
      "t": 108292.488,
      "d": 731.7060000000056,
      "v": 84
    },
    {
      "midi": 57,
      "hit": false,
      "t": 108292.488,
      "d": 731.7060000000056,
      "v": 84
    },
    {
      "midi": 60,
      "hit": false,
      "t": 108292.488,
      "d": 731.7060000000056,
      "v": 84
    },
    {
      "midi": 57,
      "hit": false,
      "t": 108292.48800000006,
      "d": 91.4632500000007,
      "v": 53
    },
    {
      "midi": 29,
      "hit": false,
      "t": 108292.48800000019,
      "d": 902.4373999999953,
      "v": 99
    },
    {
      "midi": 29,
      "hit": false,
      "t": 109390.04700000018,
      "d": 140.24365000000398,
      "v": 99
    },
    {
      "midi": 29,
      "hit": false,
      "t": 109755.90000000018,
      "d": 1253.046524999998,
      "v": 99
    },
    {
      "midi": 53,
      "hit": false,
      "t": 110853.45899999993,
      "d": 365.8530000000028,
      "v": 60
    },
    {
      "midi": 57,
      "hit": false,
      "t": 110853.45899999993,
      "d": 365.8530000000028,
      "v": 60
    },
    {
      "midi": 60,
      "hit": false,
      "t": 110853.45899999993,
      "d": 365.8530000000028,
      "v": 60
    },
    {
      "midi": 53,
      "hit": false,
      "t": 111219.31199999993,
      "d": 1463.4119999999966,
      "v": 60
    },
    {
      "midi": 57,
      "hit": false,
      "t": 111219.31199999993,
      "d": 1463.4119999999966,
      "v": 60
    },
    {
      "midi": 60,
      "hit": false,
      "t": 111219.31199999993,
      "d": 1463.4119999999966,
      "v": 60
    },
    {
      "midi": 60,
      "hit": false,
      "t": 111219.312,
      "d": 708.8401874999981,
      "v": 86
    },
    {
      "midi": 57,
      "hit": false,
      "t": 111219.312,
      "d": 731.705999999991,
      "v": 86
    },
    {
      "midi": 53,
      "hit": false,
      "t": 111219.312,
      "d": 754.5718124999839,
      "v": 86
    },
    {
      "midi": 29,
      "hit": false,
      "t": 111219.31200000018,
      "d": 917.6812749999954,
      "v": 99
    },
    {
      "midi": 29,
      "hit": false,
      "t": 112316.87100000017,
      "d": 300.3043374999979,
      "v": 99
    },
    {
      "midi": 60,
      "hit": false,
      "t": 112533.33402500002,
      "d": 3807.919974999997,
      "v": 73
    },
    {
      "midi": 62,
      "hit": false,
      "t": 112553.15106250002,
      "d": 106.70712500000081,
      "v": 73
    },
    {
      "midi": 64,
      "hit": false,
      "t": 112614.12656250002,
      "d": 1542.6801500000001,
      "v": 73
    },
    {
      "midi": 55,
      "hit": false,
      "t": 112682.72399999994,
      "d": 2926.824000000008,
      "v": 64
    },
    {
      "midi": 52,
      "hit": false,
      "t": 112682.72399999994,
      "d": 5853.648000000001,
      "v": 64
    },
    {
      "midi": 48,
      "hit": false,
      "t": 112682.72399999994,
      "d": 8780.471999999994,
      "v": 64
    },
    {
      "midi": 36,
      "hit": false,
      "t": 112682.72400000018,
      "d": 1097.5589999999938,
      "v": 99
    },
    {
      "midi": 48,
      "hit": false,
      "t": 112682.72400000034,
      "d": 182.9265000000014,
      "v": 56
    },
    {
      "midi": 55,
      "hit": false,
      "t": 112865.65050000034,
      "d": 182.9265000000014,
      "v": 56
    },
    {
      "midi": 48,
      "hit": false,
      "t": 113048.57700000034,
      "d": 182.9265000000014,
      "v": 56
    },
    {
      "midi": 55,
      "hit": false,
      "t": 113231.50350000034,
      "d": 182.9265000000014,
      "v": 56
    },
    {
      "midi": 48,
      "hit": false,
      "t": 113414.43000000034,
      "d": 182.9265000000014,
      "v": 56
    },
    {
      "midi": 48,
      "hit": false,
      "t": 113780.28300000017,
      "d": 1097.5589999999938,
      "v": 99
    },
    {
      "midi": 55,
      "hit": false,
      "t": 113780.28300000035,
      "d": 182.9265000000014,
      "v": 56
    },
    {
      "midi": 62,
      "hit": false,
      "t": 114146.13600000003,
      "d": 716.4621249999909,
      "v": 72
    },
    {
      "midi": 48,
      "hit": false,
      "t": 114146.13600000035,
      "d": 182.9265000000014,
      "v": 56
    },
    {
      "midi": 55,
      "hit": false,
      "t": 114329.06250000035,
      "d": 182.9265000000014,
      "v": 56
    },
    {
      "midi": 48,
      "hit": false,
      "t": 114694.91550000035,
      "d": 182.9265000000014,
      "v": 56
    },
    {
      "midi": 67,
      "hit": false,
      "t": 114877.84200000002,
      "d": 3658.5299999999843,
      "v": 72
    },
    {
      "midi": 36,
      "hit": false,
      "t": 114877.84200000016,
      "d": 182.9265000000014,
      "v": 99
    },
    {
      "midi": 55,
      "hit": false,
      "t": 114877.84200000035,
      "d": 182.9265000000014,
      "v": 56
    },
    {
      "midi": 31,
      "hit": false,
      "t": 115060.76850000017,
      "d": 182.9265000000014,
      "v": 99
    },
    {
      "midi": 31,
      "hit": false,
      "t": 115243.69500000017,
      "d": 365.8530000000028,
      "v": 99
    },
    {
      "midi": 55,
      "hit": false,
      "t": 115243.69500000036,
      "d": 182.9265000000014,
      "v": 56
    },
    {
      "midi": 57,
      "hit": false,
      "t": 115609.54799999995,
      "d": 5853.6479999999865,
      "v": 64
    },
    {
      "midi": 33,
      "hit": false,
      "t": 115609.54800000017,
      "d": 914.632500000007,
      "v": 99
    },
    {
      "midi": 45,
      "hit": false,
      "t": 115609.54800000036,
      "d": 182.9265000000014,
      "v": 56
    },
    {
      "midi": 55,
      "hit": false,
      "t": 115792.47450000036,
      "d": 182.9265000000014,
      "v": 56
    },
    {
      "midi": 45,
      "hit": false,
      "t": 115975.40100000036,
      "d": 182.9265000000014,
      "v": 56
    },
    {
      "midi": 55,
      "hit": false,
      "t": 116158.32750000036,
      "d": 182.9265000000014,
      "v": 56
    },
    {
      "midi": 45,
      "hit": false,
      "t": 116341.25400000036,
      "d": 182.9265000000014,
      "v": 56
    },
    {
      "midi": 59,
      "hit": false,
      "t": 116364.11981250001,
      "d": 708.8401874999981,
      "v": 71
    },
    {
      "midi": 33,
      "hit": false,
      "t": 116707.10700000018,
      "d": 182.9265000000014,
      "v": 99
    },
    {
      "midi": 55,
      "hit": false,
      "t": 116707.10700000037,
      "d": 182.9265000000014,
      "v": 56
    },
    {
      "midi": 57,
      "hit": false,
      "t": 117072.96,
      "d": 1509.143624999997,
      "v": 71
    },
    {
      "midi": 64,
      "hit": false,
      "t": 117072.96,
      "d": 1509.143624999997,
      "v": 71
    },
    {
      "midi": 33,
      "hit": false,
      "t": 117072.96000000018,
      "d": 914.632500000007,
      "v": 99
    },
    {
      "midi": 45,
      "hit": false,
      "t": 117072.96000000037,
      "d": 182.9265000000014,
      "v": 56
    },
    {
      "midi": 55,
      "hit": false,
      "t": 117255.88650000037,
      "d": 182.9265000000014,
      "v": 56
    },
    {
      "midi": 45,
      "hit": false,
      "t": 117438.81300000037,
      "d": 182.9265000000014,
      "v": 56
    },
    {
      "midi": 55,
      "hit": false,
      "t": 117621.73950000037,
      "d": 182.9265000000014,
      "v": 56
    },
    {
      "midi": 33,
      "hit": false,
      "t": 117987.59250000019,
      "d": 182.9265000000014,
      "v": 99
    },
    {
      "midi": 43,
      "hit": false,
      "t": 118170.519,
      "d": 391.7675874999986,
      "v": 93
    },
    {
      "midi": 31,
      "hit": false,
      "t": 118170.51900000019,
      "d": 365.8530000000028,
      "v": 99
    },
    {
      "midi": 55,
      "hit": false,
      "t": 118170.51900000038,
      "d": 182.9265000000014,
      "v": 56
    },
    {
      "midi": 53,
      "hit": false,
      "t": 118536.37199999994,
      "d": 2926.8239999999932,
      "v": 63
    },
    {
      "midi": 45,
      "hit": false,
      "t": 118536.372,
      "d": 1120.4248124999867,
      "v": 114
    },
    {
      "midi": 29,
      "hit": false,
      "t": 118536.37200000019,
      "d": 914.632500000007,
      "v": 99
    },
    {
      "midi": 41,
      "hit": false,
      "t": 118536.37200000038,
      "d": 182.9265000000014,
      "v": 56
    },
    {
      "midi": 57,
      "hit": false,
      "t": 118719.29850000038,
      "d": 182.9265000000014,
      "v": 56
    },
    {
      "midi": 41,
      "hit": false,
      "t": 118902.22500000038,
      "d": 182.92649999998685,
      "v": 56
    },
    {
      "midi": 57,
      "hit": false,
      "t": 119062.28568750038,
      "d": 182.92649999998685,
      "v": 56
    },
    {
      "midi": 41,
      "hit": false,
      "t": 119268.07800000036,
      "d": 182.9265000000014,
      "v": 56
    },
    {
      "midi": 47,
      "hit": false,
      "t": 119633.931,
      "d": 388.71881249998114,
      "v": 113
    },
    {
      "midi": 29,
      "hit": false,
      "t": 119633.9310000002,
      "d": 182.9265000000014,
      "v": 99
    },
    {
      "midi": 57,
      "hit": false,
      "t": 119633.93100000036,
      "d": 182.9265000000014,
      "v": 56
    },
    {
      "midi": 48,
      "hit": false,
      "t": 119999.78399999999,
      "d": 780.4863999999943,
      "v": 112
    },
    {
      "midi": 29,
      "hit": false,
      "t": 119999.7840000002,
      "d": 914.632500000007,
      "v": 99
    },
    {
      "midi": 41,
      "hit": false,
      "t": 119999.78400000036,
      "d": 182.9265000000014,
      "v": 56
    },
    {
      "midi": 57,
      "hit": false,
      "t": 120182.71050000036,
      "d": 182.9265000000014,
      "v": 56
    },
    {
      "midi": 41,
      "hit": false,
      "t": 120548.56350000037,
      "d": 182.9265000000014,
      "v": 56
    },
    {
      "midi": 50,
      "hit": false,
      "t": 120731.48999999998,
      "d": 754.5718124999985,
      "v": 112
    },
    {
      "midi": 57,
      "hit": false,
      "t": 120731.49000000037,
      "d": 182.9265000000014,
      "v": 56
    },
    {
      "midi": 29,
      "hit": false,
      "t": 121097.34300000021,
      "d": 182.9265000000014,
      "v": 99
    },
    {
      "midi": 41,
      "hit": false,
      "t": 121097.34300000037,
      "d": 182.9265000000014,
      "v": 56
    },
    {
      "midi": 47,
      "hit": false,
      "t": 121463.19599999994,
      "d": 2926.824000000008,
      "v": 63
    },
    {
      "midi": 52,
      "hit": false,
      "t": 121463.19599999994,
      "d": 2926.824000000008,
      "v": 63
    },
    {
      "midi": 47,
      "hit": false,
      "t": 121463.19599999998,
      "d": 1120.4248124999867,
      "v": 111
    },
    {
      "midi": 28,
      "hit": false,
      "t": 121463.19600000021,
      "d": 914.632500000007,
      "v": 99
    },
    {
      "midi": 40,
      "hit": false,
      "t": 121463.19600000037,
      "d": 182.9265000000014,
      "v": 56
    },
    {
      "midi": 57,
      "hit": false,
      "t": 121646.12250000038,
      "d": 182.9265000000014,
      "v": 56
    },
    {
      "midi": 40,
      "hit": false,
      "t": 122011.97550000038,
      "d": 182.9265000000014,
      "v": 56
    },
    {
      "midi": 56,
      "hit": false,
      "t": 122194.90199999994,
      "d": 2195.118000000002,
      "v": 63
    },
    {
      "midi": 56,
      "hit": false,
      "t": 122194.90200000038,
      "d": 182.9265000000014,
      "v": 56
    },
    {
      "midi": 28,
      "hit": false,
      "t": 122560.75500000022,
      "d": 182.9265000000014,
      "v": 99
    },
    {
      "midi": 40,
      "hit": false,
      "t": 122560.75500000038,
      "d": 182.9265000000014,
      "v": 56
    },
    {
      "midi": 45,
      "hit": false,
      "t": 122583.62081249997,
      "d": 121.95100000000093,
      "v": 110
    },
    {
      "midi": 47,
      "hit": false,
      "t": 122690.32793749997,
      "d": 76.21937500000058,
      "v": 108
    },
    {
      "midi": 28,
      "hit": false,
      "t": 122743.68150000022,
      "d": 182.9265000000014,
      "v": 99
    },
    {
      "midi": 45,
      "hit": false,
      "t": 122751.30343749997,
      "d": 198.1703750000015,
      "v": 107
    },
    {
      "midi": 44,
      "hit": false,
      "t": 122922.03483749997,
      "d": 1490.850974999994,
      "v": 104
    },
    {
      "midi": 59,
      "hit": false,
      "t": 122926.60799999995,
      "d": 1463.4119999999966,
      "v": 63
    },
    {
      "midi": 28,
      "hit": false,
      "t": 122926.60800000023,
      "d": 1280.4854999999952,
      "v": 99
    },
    {
      "midi": 40,
      "hit": false,
      "t": 122926.60800000039,
      "d": 182.9265000000014,
      "v": 56
    },
    {
      "midi": 56,
      "hit": false,
      "t": 123109.53450000039,
      "d": 182.9265000000014,
      "v": 56
    },
    {
      "midi": 40,
      "hit": false,
      "t": 123475.38750000039,
      "d": 182.9265000000014,
      "v": 56
    },
    {
      "midi": 56,
      "hit": false,
      "t": 123658.31400000039,
      "d": 182.9265000000014,
      "v": 56
    },
    {
      "midi": 56,
      "hit": false,
      "t": 124024.1670000004,
      "d": 182.9265000000014,
      "v": 56
    },
    {
      "midi": 43,
      "hit": false,
      "t": 124390.01999999995,
      "d": 2926.824000000008,
      "v": 91
    },
    {
      "midi": 52,
      "hit": false,
      "t": 124390.01999999995,
      "d": 2926.824000000008,
      "v": 91
    },
    {
      "midi": 48,
      "hit": false,
      "t": 124390.01999999995,
      "d": 4390.236000000004,
      "v": 91
    },
    {
      "midi": 48,
      "hit": false,
      "t": 124390.01999999997,
      "d": 1463.4119999999966,
      "v": 70
    },
    {
      "midi": 52,
      "hit": false,
      "t": 124390.01999999997,
      "d": 1463.4119999999966,
      "v": 70
    },
    {
      "midi": 36,
      "hit": false,
      "t": 124390.02000000022,
      "d": 182.9265000000014,
      "v": 99
    },
    {
      "midi": 48,
      "hit": false,
      "t": 124390.0200000004,
      "d": 182.9265000000014,
      "v": 56
    },
    {
      "midi": 31,
      "hit": false,
      "t": 124572.94650000022,
      "d": 182.9265000000014,
      "v": 99
    },
    {
      "midi": 55,
      "hit": false,
      "t": 124572.9465000004,
      "d": 182.9265000000014,
      "v": 56
    },
    {
      "midi": 33,
      "hit": false,
      "t": 124755.87300000023,
      "d": 182.9265000000014,
      "v": 99
    },
    {
      "midi": 48,
      "hit": false,
      "t": 124755.8730000004,
      "d": 182.9265000000014,
      "v": 56
    },
    {
      "midi": 36,
      "hit": false,
      "t": 124938.79950000023,
      "d": 182.9265000000014,
      "v": 99
    },
    {
      "midi": 55,
      "hit": false,
      "t": 124938.7995000004,
      "d": 182.9265000000014,
      "v": 56
    },
    {
      "midi": 48,
      "hit": false,
      "t": 125121.7260000004,
      "d": 182.9265000000014,
      "v": 56
    },
    {
      "midi": 38,
      "hit": false,
      "t": 125487.57900000023,
      "d": 365.8530000000028,
      "v": 99
    },
    {
      "midi": 55,
      "hit": false,
      "t": 125487.5790000004,
      "d": 182.9265000000014,
      "v": 56
    },
    {
      "midi": 50,
      "hit": false,
      "t": 125853.43199999997,
      "d": 731.7060000000056,
      "v": 70
    },
    {
      "midi": 48,
      "hit": false,
      "t": 125853.43199999997,
      "d": 4390.236000000004,
      "v": 70
    },
    {
      "midi": 36,
      "hit": false,
      "t": 125853.43200000023,
      "d": 731.7060000000056,
      "v": 99
    },
    {
      "midi": 48,
      "hit": false,
      "t": 125853.43200000041,
      "d": 182.9265000000014,
      "v": 56
    },
    {
      "midi": 55,
      "hit": false,
      "t": 126036.35850000041,
      "d": 182.9265000000014,
      "v": 56
    },
    {
      "midi": 48,
      "hit": false,
      "t": 126402.21150000041,
      "d": 182.9265000000014,
      "v": 56
    },
    {
      "midi": 55,
      "hit": false,
      "t": 126585.13799999998,
      "d": 2217.983812499995,
      "v": 69
    },
    {
      "midi": 55,
      "hit": false,
      "t": 126585.13800000041,
      "d": 182.9265000000014,
      "v": 56
    },
    {
      "midi": 36,
      "hit": false,
      "t": 126950.99100000024,
      "d": 182.9265000000014,
      "v": 99
    },
    {
      "midi": 55,
      "hit": false,
      "t": 126950.99100000042,
      "d": 182.9265000000014,
      "v": 56
    },
    {
      "midi": 35,
      "hit": false,
      "t": 127133.91750000024,
      "d": 152.43875000000116,
      "v": 99
    },
    {
      "midi": 52,
      "hit": false,
      "t": 127316.84399999995,
      "d": 754.5718124999985,
      "v": 91
    },
    {
      "midi": 45,
      "hit": false,
      "t": 127316.84399999995,
      "d": 5853.648000000016,
      "v": 91
    },
    {
      "midi": 52,
      "hit": false,
      "t": 127316.84399999998,
      "d": 2949.689812499986,
      "v": 69
    },
    {
      "midi": 33,
      "hit": false,
      "t": 127316.84400000024,
      "d": 777.4376250000059,
      "v": 99
    },
    {
      "midi": 45,
      "hit": false,
      "t": 127316.84400000042,
      "d": 182.9265000000014,
      "v": 56
    },
    {
      "midi": 55,
      "hit": false,
      "t": 127499.77050000042,
      "d": 182.9265000000014,
      "v": 56
    },
    {
      "midi": 45,
      "hit": false,
      "t": 127682.69700000042,
      "d": 182.9265000000014,
      "v": 56
    },
    {
      "midi": 55,
      "hit": false,
      "t": 127865.62350000042,
      "d": 182.9265000000014,
      "v": 56
    },
    {
      "midi": 50,
      "hit": false,
      "t": 128048.54999999996,
      "d": 731.705999999991,
      "v": 90
    },
    {
      "midi": 45,
      "hit": false,
      "t": 128048.55000000042,
      "d": 182.9265000000014,
      "v": 56
    },
    {
      "midi": 40,
      "hit": false,
      "t": 128231.47650000025,
      "d": 144.81681249999383,
      "v": 99
    },
    {
      "midi": 45,
      "hit": false,
      "t": 128414.40300000024,
      "d": 1097.5590000000084,
      "v": 99
    },
    {
      "midi": 55,
      "hit": false,
      "t": 128414.40300000043,
      "d": 182.9265000000014,
      "v": 56
    },
    {
      "midi": 48,
      "hit": false,
      "t": 128780.25599999995,
      "d": 731.7060000000056,
      "v": 90
    },
    {
      "midi": 57,
      "hit": false,
      "t": 128780.25599999998,
      "d": 731.705999999991,
      "v": 68
    },
    {
      "midi": 45,
      "hit": false,
      "t": 128780.25600000043,
      "d": 182.9265000000014,
      "v": 56
    },
    {
      "midi": 55,
      "hit": false,
      "t": 128963.18250000043,
      "d": 182.9265000000014,
      "v": 56
    },
    {
      "midi": 45,
      "hit": false,
      "t": 129146.10900000043,
      "d": 182.9265000000014,
      "v": 56
    },
    {
      "midi": 55,
      "hit": false,
      "t": 129329.03550000043,
      "d": 182.9265000000014,
      "v": 56
    },
    {
      "midi": 47,
      "hit": false,
      "t": 129511.96199999996,
      "d": 731.7060000000056,
      "v": 90
    },
    {
      "midi": 59,
      "hit": false,
      "t": 129511.96199999997,
      "d": 731.7060000000056,
      "v": 68
    },
    {
      "midi": 33,
      "hit": false,
      "t": 129694.88850000025,
      "d": 182.9265000000014,
      "v": 99
    },
    {
      "midi": 31,
      "hit": false,
      "t": 129877.81500000025,
      "d": 182.9265000000014,
      "v": 99
    },
    {
      "midi": 55,
      "hit": false,
      "t": 129877.81500000044,
      "d": 182.9265000000014,
      "v": 56
    },
    {
      "midi": 48,
      "hit": false,
      "t": 130243.66799999996,
      "d": 2926.824000000008,
      "v": 90
    },
    {
      "midi": 53,
      "hit": false,
      "t": 130243.66799999996,
      "d": 2926.824000000008,
      "v": 90
    },
    {
      "midi": 60,
      "hit": false,
      "t": 130243.66799999998,
      "d": 2926.8239999999932,
      "v": 68
    },
    {
      "midi": 29,
      "hit": false,
      "t": 130243.66800000025,
      "d": 914.6324999999924,
      "v": 99
    },
    {
      "midi": 41,
      "hit": false,
      "t": 130243.66800000044,
      "d": 182.9265000000014,
      "v": 56
    },
    {
      "midi": 57,
      "hit": false,
      "t": 130426.59450000044,
      "d": 182.9265000000014,
      "v": 56
    },
    {
      "midi": 59,
      "hit": false,
      "t": 130609.52099999996,
      "d": 365.8530000000028,
      "v": 79
    },
    {
      "midi": 41,
      "hit": false,
      "t": 130609.52100000044,
      "d": 182.92649999998685,
      "v": 56
    },
    {
      "midi": 57,
      "hit": false,
      "t": 130769.58168750044,
      "d": 182.92649999998685,
      "v": 56
    },
    {
      "midi": 57,
      "hit": false,
      "t": 130975.37399999997,
      "d": 365.85299999998824,
      "v": 79
    },
    {
      "midi": 41,
      "hit": false,
      "t": 130975.37400000042,
      "d": 182.9265000000014,
      "v": 56
    },
    {
      "midi": 55,
      "hit": false,
      "t": 131341.22699999996,
      "d": 365.8530000000028,
      "v": 79
    },
    {
      "midi": 29,
      "hit": false,
      "t": 131341.22700000025,
      "d": 182.9265000000014,
      "v": 99
    },
    {
      "midi": 57,
      "hit": false,
      "t": 131341.22700000042,
      "d": 182.9265000000014,
      "v": 56
    },
    {
      "midi": 53,
      "hit": false,
      "t": 131707.07999999996,
      "d": 365.8530000000028,
      "v": 79
    },
    {
      "midi": 29,
      "hit": false,
      "t": 131707.08000000025,
      "d": 914.632500000007,
      "v": 99
    },
    {
      "midi": 41,
      "hit": false,
      "t": 131707.08000000042,
      "d": 182.9265000000014,
      "v": 56
    },
    {
      "midi": 57,
      "hit": false,
      "t": 131890.00650000043,
      "d": 182.9265000000014,
      "v": 56
    },
    {
      "midi": 52,
      "hit": false,
      "t": 132072.93299999996,
      "d": 365.8530000000028,
      "v": 79
    },
    {
      "midi": 41,
      "hit": false,
      "t": 132255.85950000043,
      "d": 182.9265000000014,
      "v": 56
    },
    {
      "midi": 50,
      "hit": false,
      "t": 132438.78599999996,
      "d": 365.8530000000028,
      "v": 79
    },
    {
      "midi": 57,
      "hit": false,
      "t": 132438.78600000043,
      "d": 182.9265000000014,
      "v": 56
    },
    {
      "midi": 48,
      "hit": false,
      "t": 132804.63899999997,
      "d": 365.8530000000028,
      "v": 79
    },
    {
      "midi": 29,
      "hit": false,
      "t": 132804.63900000026,
      "d": 182.9265000000014,
      "v": 99
    },
    {
      "midi": 41,
      "hit": false,
      "t": 132804.63900000043,
      "d": 182.9265000000014,
      "v": 56
    },
    {
      "midi": 47,
      "hit": false,
      "t": 133170.49199999997,
      "d": 2926.8240000000224,
      "v": 89
    },
    {
      "midi": 52,
      "hit": false,
      "t": 133170.49199999997,
      "d": 2926.8240000000224,
      "v": 89
    },
    {
      "midi": 59,
      "hit": false,
      "t": 133170.49199999997,
      "d": 2926.8240000000224,
      "v": 98
    },
    {
      "midi": 28,
      "hit": false,
      "t": 133170.49200000026,
      "d": 914.632500000007,
      "v": 99
    },
    {
      "midi": 40,
      "hit": false,
      "t": 133170.49200000043,
      "d": 182.9265000000014,
      "v": 56
    },
    {
      "midi": 56,
      "hit": false,
      "t": 133376.28431250044,
      "d": 182.9265000000014,
      "v": 56
    },
    {
      "midi": 57,
      "hit": false,
      "t": 133536.34499999997,
      "d": 365.8530000000028,
      "v": 79
    },
    {
      "midi": 40,
      "hit": false,
      "t": 133719.27150000044,
      "d": 182.9265000000014,
      "v": 56
    },
    {
      "midi": 56,
      "hit": false,
      "t": 133902.19799999997,
      "d": 365.8530000000028,
      "v": 79
    },
    {
      "midi": 56,
      "hit": false,
      "t": 133902.19800000044,
      "d": 182.9265000000014,
      "v": 56
    },
    {
      "midi": 53,
      "hit": false,
      "t": 134268.05099999998,
      "d": 365.8530000000028,
      "v": 79
    },
    {
      "midi": 28,
      "hit": false,
      "t": 134268.05100000027,
      "d": 182.9265000000014,
      "v": 99
    },
    {
      "midi": 40,
      "hit": false,
      "t": 134268.05100000044,
      "d": 182.9265000000014,
      "v": 56
    },
    {
      "midi": 44,
      "hit": false,
      "t": 134633.90399999998,
      "d": 1463.4120000000112,
      "v": 89
    },
    {
      "midi": 52,
      "hit": false,
      "t": 134633.90399999998,
      "d": 1463.4120000000112,
      "v": 79
    },
    {
      "midi": 28,
      "hit": false,
      "t": 134633.90400000027,
      "d": 731.7060000000056,
      "v": 99
    },
    {
      "midi": 40,
      "hit": false,
      "t": 134633.90400000045,
      "d": 182.9265000000014,
      "v": 56
    },
    {
      "midi": 56,
      "hit": false,
      "t": 134816.83050000045,
      "d": 182.9265000000014,
      "v": 56
    },
    {
      "midi": 40,
      "hit": false,
      "t": 135182.68350000045,
      "d": 182.9265000000014,
      "v": 56
    },
    {
      "midi": 40,
      "hit": false,
      "t": 135365.61000000028,
      "d": 731.7060000000056,
      "v": 99
    },
    {
      "midi": 56,
      "hit": false,
      "t": 135365.61000000045,
      "d": 182.9265000000014,
      "v": 56
    },
    {
      "midi": 56,
      "hit": false,
      "t": 135731.46300000045,
      "d": 182.9265000000014,
      "v": 56
    },
    {
      "midi": 53,
      "hit": false,
      "t": 136097.316,
      "d": 1463.4120000000112,
      "v": 70
    },
    {
      "midi": 57,
      "hit": false,
      "t": 136097.316,
      "d": 1463.4120000000112,
      "v": 80
    },
    {
      "midi": 60,
      "hit": false,
      "t": 136097.316,
      "d": 8780.472000000067,
      "v": 74
    },
    {
      "midi": 65,
      "hit": false,
      "t": 136097.31600000002,
      "d": 1463.4120000000112,
      "v": 79
    },
    {
      "midi": 69,
      "hit": false,
      "t": 136097.31600000002,
      "d": 1463.4120000000112,
      "v": 79
    },
    {
      "midi": 72,
      "hit": false,
      "t": 136097.31600000002,
      "d": 8780.472000000067,
      "v": 83
    },
    {
      "midi": 41,
      "hit": false,
      "t": 136097.31600000028,
      "d": 1006.0957500000077,
      "v": 99
    },
    {
      "midi": 48,
      "hit": false,
      "t": 136097.31600000046,
      "d": 182.9265000000014,
      "v": 56
    },
    {
      "midi": 53,
      "hit": false,
      "t": 136280.24250000046,
      "d": 457.3162500000035,
      "v": 56
    },
    {
      "midi": 48,
      "hit": false,
      "t": 136646.09550000046,
      "d": 182.9265000000014,
      "v": 56
    },
    {
      "midi": 53,
      "hit": false,
      "t": 136829.02200000046,
      "d": 365.8530000000028,
      "v": 56
    },
    {
      "midi": 41,
      "hit": false,
      "t": 137194.8750000003,
      "d": 182.9265000000014,
      "v": 99
    },
    {
      "midi": 48,
      "hit": false,
      "t": 137194.87500000047,
      "d": 182.9265000000014,
      "v": 56
    },
    {
      "midi": 53,
      "hit": false,
      "t": 137377.80150000047,
      "d": 182.9265000000014,
      "v": 56
    },
    {
      "midi": 52,
      "hit": false,
      "t": 137560.728,
      "d": 1463.4120000000112,
      "v": 60
    },
    {
      "midi": 55,
      "hit": false,
      "t": 137560.728,
      "d": 1463.4120000000112,
      "v": 86
    },
    {
      "midi": 64,
      "hit": false,
      "t": 137560.72800000003,
      "d": 1463.4120000000112,
      "v": 79
    },
    {
      "midi": 67,
      "hit": false,
      "t": 137560.72800000003,
      "d": 1463.4120000000112,
      "v": 79
    },
    {
      "midi": 36,
      "hit": false,
      "t": 137560.7280000003,
      "d": 182.9265000000014,
      "v": 99
    },
    {
      "midi": 48,
      "hit": false,
      "t": 137560.72800000047,
      "d": 182.9265000000014,
      "v": 56
    },
    {
      "midi": 55,
      "hit": false,
      "t": 137743.65450000047,
      "d": 365.8530000000028,
      "v": 56
    },
    {
      "midi": 36,
      "hit": false,
      "t": 137926.5810000003,
      "d": 365.8530000000028,
      "v": 99
    },
    {
      "midi": 48,
      "hit": false,
      "t": 138109.50750000047,
      "d": 182.9265000000014,
      "v": 56
    },
    {
      "midi": 55,
      "hit": false,
      "t": 138292.43400000047,
      "d": 457.3162500000035,
      "v": 56
    },
    {
      "midi": 36,
      "hit": false,
      "t": 138475.3605000003,
      "d": 91.4632500000007,
      "v": 99
    },
    {
      "midi": 31,
      "hit": false,
      "t": 138658.2870000003,
      "d": 274.3897500000021,
      "v": 99
    },
    {
      "midi": 48,
      "hit": false,
      "t": 138658.28700000048,
      "d": 182.9265000000014,
      "v": 56
    },
    {
      "midi": 55,
      "hit": false,
      "t": 138841.21350000048,
      "d": 182.9265000000014,
      "v": 56
    },
    {
      "midi": 53,
      "hit": false,
      "t": 139024.14,
      "d": 1463.4120000000112,
      "v": 56
    },
    {
      "midi": 57,
      "hit": false,
      "t": 139024.14,
      "d": 1463.4120000000112,
      "v": 98
    },
    {
      "midi": 65,
      "hit": false,
      "t": 139024.14000000004,
      "d": 1463.4120000000112,
      "v": 78
    },
    {
      "midi": 69,
      "hit": false,
      "t": 139024.14000000004,
      "d": 1463.4120000000112,
      "v": 78
    },
    {
      "midi": 29,
      "hit": false,
      "t": 139024.1400000003,
      "d": 914.632500000007,
      "v": 99
    },
    {
      "midi": 48,
      "hit": false,
      "t": 139024.14000000048,
      "d": 274.3897500000021,
      "v": 56
    },
    {
      "midi": 53,
      "hit": false,
      "t": 139207.06650000048,
      "d": 457.3162500000035,
      "v": 56
    },
    {
      "midi": 48,
      "hit": false,
      "t": 139572.91950000048,
      "d": 182.9265000000014,
      "v": 56
    },
    {
      "midi": 53,
      "hit": false,
      "t": 139755.84600000049,
      "d": 365.8530000000028,
      "v": 56
    },
    {
      "midi": 29,
      "hit": false,
      "t": 140121.6990000003,
      "d": 182.9265000000014,
      "v": 99
    },
    {
      "midi": 48,
      "hit": false,
      "t": 140121.6990000005,
      "d": 182.9265000000014,
      "v": 56
    },
    {
      "midi": 33,
      "hit": false,
      "t": 140304.62550000031,
      "d": 182.9265000000014,
      "v": 99
    },
    {
      "midi": 53,
      "hit": false,
      "t": 140304.6255000005,
      "d": 182.9265000000014,
      "v": 56
    },
    {
      "midi": 52,
      "hit": false,
      "t": 140487.55200000003,
      "d": 1463.4120000000112,
      "v": 48
    },
    {
      "midi": 55,
      "hit": false,
      "t": 140487.55200000003,
      "d": 1463.4120000000112,
      "v": 70
    },
    {
      "midi": 64,
      "hit": false,
      "t": 140487.55200000005,
      "d": 1463.4120000000112,
      "v": 78
    },
    {
      "midi": 67,
      "hit": false,
      "t": 140487.55200000005,
      "d": 1463.4120000000112,
      "v": 78
    },
    {
      "midi": 36,
      "hit": false,
      "t": 140487.55200000032,
      "d": 754.571812500013,
      "v": 99
    },
    {
      "midi": 48,
      "hit": false,
      "t": 140487.5520000005,
      "d": 182.9265000000014,
      "v": 56
    },
    {
      "midi": 55,
      "hit": false,
      "t": 140670.4785000005,
      "d": 365.8530000000028,
      "v": 56
    },
    {
      "midi": 48,
      "hit": false,
      "t": 141036.3315000005,
      "d": 182.9265000000014,
      "v": 56
    },
    {
      "midi": 28,
      "hit": false,
      "t": 141219.25800000032,
      "d": 731.7060000000056,
      "v": 99
    },
    {
      "midi": 55,
      "hit": false,
      "t": 141219.2580000005,
      "d": 457.3162500000035,
      "v": 56
    },
    {
      "midi": 48,
      "hit": false,
      "t": 141585.1110000005,
      "d": 182.9265000000014,
      "v": 56
    },
    {
      "midi": 55,
      "hit": false,
      "t": 141768.0375000005,
      "d": 182.9265000000014,
      "v": 56
    },
    {
      "midi": 53,
      "hit": false,
      "t": 141950.96400000004,
      "d": 1463.4120000000112,
      "v": 64
    },
    {
      "midi": 57,
      "hit": false,
      "t": 141950.96400000004,
      "d": 1463.4120000000112,
      "v": 92
    },
    {
      "midi": 65,
      "hit": false,
      "t": 141950.96400000007,
      "d": 1463.4120000000112,
      "v": 78
    },
    {
      "midi": 69,
      "hit": false,
      "t": 141950.96400000007,
      "d": 1463.4120000000112,
      "v": 78
    },
    {
      "midi": 29,
      "hit": false,
      "t": 141950.96400000033,
      "d": 1006.0957500000077,
      "v": 99
    },
    {
      "midi": 48,
      "hit": false,
      "t": 141950.9640000005,
      "d": 274.3897500000021,
      "v": 56
    },
    {
      "midi": 53,
      "hit": false,
      "t": 142133.8905000005,
      "d": 365.8530000000028,
      "v": 56
    },
    {
      "midi": 48,
      "hit": false,
      "t": 142499.7435000005,
      "d": 182.9265000000014,
      "v": 56
    },
    {
      "midi": 53,
      "hit": false,
      "t": 142682.6700000005,
      "d": 365.8530000000028,
      "v": 56
    },
    {
      "midi": 29,
      "hit": false,
      "t": 143048.52300000034,
      "d": 182.9265000000014,
      "v": 99
    },
    {
      "midi": 48,
      "hit": false,
      "t": 143048.5230000005,
      "d": 182.9265000000014,
      "v": 56
    },
    {
      "midi": 29,
      "hit": false,
      "t": 143231.44950000034,
      "d": 182.9265000000014,
      "v": 99
    },
    {
      "midi": 53,
      "hit": false,
      "t": 143231.4495000005,
      "d": 182.9265000000014,
      "v": 56
    },
    {
      "midi": 52,
      "hit": false,
      "t": 143414.37600000005,
      "d": 1463.4120000000112,
      "v": 66
    },
    {
      "midi": 55,
      "hit": false,
      "t": 143414.37600000005,
      "d": 1463.4120000000112,
      "v": 80
    },
    {
      "midi": 64,
      "hit": false,
      "t": 143414.37600000008,
      "d": 1463.4120000000112,
      "v": 78
    },
    {
      "midi": 67,
      "hit": false,
      "t": 143414.37600000008,
      "d": 1463.4120000000112,
      "v": 78
    },
    {
      "midi": 36,
      "hit": false,
      "t": 143414.37600000034,
      "d": 274.3897500000021,
      "v": 99
    },
    {
      "midi": 48,
      "hit": false,
      "t": 143414.3760000005,
      "d": 274.3897500000021,
      "v": 56
    },
    {
      "midi": 55,
      "hit": false,
      "t": 143597.30250000051,
      "d": 365.8530000000028,
      "v": 56
    },
    {
      "midi": 36,
      "hit": false,
      "t": 143780.22900000034,
      "d": 457.3162500000035,
      "v": 99
    },
    {
      "midi": 48,
      "hit": false,
      "t": 143963.15550000052,
      "d": 182.9265000000014,
      "v": 56
    },
    {
      "midi": 55,
      "hit": false,
      "t": 144146.08200000052,
      "d": 457.3162500000035,
      "v": 56
    },
    {
      "midi": 36,
      "hit": false,
      "t": 144329.00850000035,
      "d": 182.9265000000014,
      "v": 99
    },
    {
      "midi": 38,
      "hit": false,
      "t": 144511.93500000035,
      "d": 365.8530000000028,
      "v": 99
    },
    {
      "midi": 48,
      "hit": false,
      "t": 144511.93500000052,
      "d": 182.9265000000014,
      "v": 56
    },
    {
      "midi": 55,
      "hit": false,
      "t": 144694.86150000052,
      "d": 274.3897500000021,
      "v": 56
    },
    {
      "midi": 53,
      "hit": false,
      "t": 144877.78800000006,
      "d": 5853.6479999999865,
      "v": 78
    },
    {
      "midi": 58,
      "hit": false,
      "t": 144877.78800000006,
      "d": 5853.6479999999865,
      "v": 68
    },
    {
      "midi": 62,
      "hit": false,
      "t": 144877.78800000006,
      "d": 5853.6479999999865,
      "v": 80
    },
    {
      "midi": 58,
      "hit": false,
      "t": 144877.7880000001,
      "d": 5853.648000000016,
      "v": 100
    },
    {
      "midi": 62,
      "hit": false,
      "t": 144877.7880000001,
      "d": 5853.648000000016,
      "v": 100
    },
    {
      "midi": 65,
      "hit": false,
      "t": 144877.7880000001,
      "d": 5853.648000000016,
      "v": 100
    },
    {
      "midi": 70,
      "hit": false,
      "t": 144877.7880000001,
      "d": 5853.648000000016,
      "v": 100
    },
    {
      "midi": 34,
      "hit": false,
      "t": 144877.78800000035,
      "d": 914.632500000007,
      "v": 99
    },
    {
      "midi": 46,
      "hit": false,
      "t": 144877.78800000052,
      "d": 274.3897500000021,
      "v": 56
    },
    {
      "midi": 53,
      "hit": false,
      "t": 145060.71450000053,
      "d": 457.3162500000035,
      "v": 56
    },
    {
      "midi": 46,
      "hit": false,
      "t": 145426.56750000053,
      "d": 274.3897500000021,
      "v": 56
    },
    {
      "midi": 53,
      "hit": false,
      "t": 145609.49400000053,
      "d": 365.8530000000028,
      "v": 56
    },
    {
      "midi": 34,
      "hit": false,
      "t": 145975.34700000036,
      "d": 182.9265000000014,
      "v": 99
    },
    {
      "midi": 46,
      "hit": false,
      "t": 145975.34700000053,
      "d": 182.9265000000014,
      "v": 56
    },
    {
      "midi": 53,
      "hit": false,
      "t": 146158.27350000053,
      "d": 182.9265000000014,
      "v": 56
    },
    {
      "midi": 34,
      "hit": false,
      "t": 146341.20000000036,
      "d": 823.1692500000063,
      "v": 99
    },
    {
      "midi": 46,
      "hit": false,
      "t": 146341.20000000054,
      "d": 274.3897500000021,
      "v": 56
    },
    {
      "midi": 53,
      "hit": false,
      "t": 146524.12650000054,
      "d": 457.3162500000035,
      "v": 56
    },
    {
      "midi": 46,
      "hit": false,
      "t": 146889.97950000054,
      "d": 274.3897500000021,
      "v": 56
    },
    {
      "midi": 53,
      "hit": false,
      "t": 147072.90600000054,
      "d": 365.8530000000028,
      "v": 56
    },
    {
      "midi": 34,
      "hit": false,
      "t": 147255.83250000037,
      "d": 91.4632500000007,
      "v": 99
    },
    {
      "midi": 34,
      "hit": false,
      "t": 147438.75900000037,
      "d": 182.9265000000014,
      "v": 99
    },
    {
      "midi": 50,
      "hit": false,
      "t": 147438.75900000054,
      "d": 182.9265000000014,
      "v": 56
    },
    {
      "midi": 53,
      "hit": false,
      "t": 147621.68550000055,
      "d": 182.9265000000014,
      "v": 56
    },
    {
      "midi": 34,
      "hit": false,
      "t": 147804.61200000037,
      "d": 1006.0957500000077,
      "v": 99
    },
    {
      "midi": 46,
      "hit": false,
      "t": 147804.61200000055,
      "d": 182.9265000000014,
      "v": 56
    },
    {
      "midi": 53,
      "hit": false,
      "t": 147987.53850000055,
      "d": 457.3162500000035,
      "v": 56
    },
    {
      "midi": 46,
      "hit": false,
      "t": 148353.39150000055,
      "d": 182.9265000000014,
      "v": 56
    },
    {
      "midi": 53,
      "hit": false,
      "t": 148536.31800000055,
      "d": 457.3162500000035,
      "v": 56
    },
    {
      "midi": 34,
      "hit": false,
      "t": 148902.17100000038,
      "d": 160.06068749999395,
      "v": 99
    },
    {
      "midi": 46,
      "hit": false,
      "t": 148902.17100000056,
      "d": 365.8530000000028,
      "v": 56
    },
    {
      "midi": 34,
      "hit": false,
      "t": 149085.09750000038,
      "d": 137.1948749999865,
      "v": 99
    },
    {
      "midi": 34,
      "hit": false,
      "t": 149268.02400000035,
      "d": 1097.5590000000084,
      "v": 99
    },
    {
      "midi": 46,
      "hit": false,
      "t": 149450.95050000056,
      "d": 91.4632500000007,
      "v": 56
    },
    {
      "midi": 53,
      "hit": false,
      "t": 149450.95050000056,
      "d": 457.3162500000035,
      "v": 56
    },
    {
      "midi": 46,
      "hit": false,
      "t": 149816.80350000056,
      "d": 182.9265000000014,
      "v": 56
    },
    {
      "midi": 53,
      "hit": false,
      "t": 149999.73000000056,
      "d": 457.3162500000035,
      "v": 56
    },
    {
      "midi": 46,
      "hit": false,
      "t": 150365.58300000057,
      "d": 182.9265000000014,
      "v": 56
    },
    {
      "midi": 50,
      "hit": false,
      "t": 150731.43600000005,
      "d": 2926.8239999999932,
      "v": 54
    },
    {
      "midi": 48,
      "hit": false,
      "t": 150731.43600000005,
      "d": 8780.47199999998,
      "v": 54
    },
    {
      "midi": 36,
      "hit": false,
      "t": 150731.43600000037,
      "d": 182.9265000000014,
      "v": 99
    },
    {
      "midi": 48,
      "hit": false,
      "t": 150731.43600000057,
      "d": 182.9265000000014,
      "v": 56
    },
    {
      "midi": 31,
      "hit": false,
      "t": 150914.36250000037,
      "d": 182.9265000000014,
      "v": 99
    },
    {
      "midi": 55,
      "hit": false,
      "t": 150914.36250000057,
      "d": 182.9265000000014,
      "v": 56
    },
    {
      "midi": 33,
      "hit": false,
      "t": 151097.28900000037,
      "d": 182.9265000000014,
      "v": 99
    },
    {
      "midi": 48,
      "hit": false,
      "t": 151097.28900000057,
      "d": 182.9265000000014,
      "v": 56
    },
    {
      "midi": 36,
      "hit": false,
      "t": 151280.21550000037,
      "d": 182.9265000000014,
      "v": 99
    },
    {
      "midi": 55,
      "hit": false,
      "t": 151280.21550000057,
      "d": 182.9265000000014,
      "v": 56
    },
    {
      "midi": 48,
      "hit": false,
      "t": 151463.14200000057,
      "d": 182.9265000000014,
      "v": 56
    },
    {
      "midi": 38,
      "hit": false,
      "t": 151828.99500000037,
      "d": 365.8530000000028,
      "v": 99
    },
    {
      "midi": 55,
      "hit": false,
      "t": 151828.99500000058,
      "d": 182.9265000000014,
      "v": 56
    },
    {
      "midi": 36,
      "hit": false,
      "t": 152194.84800000038,
      "d": 731.7060000000056,
      "v": 99
    },
    {
      "midi": 48,
      "hit": false,
      "t": 152194.84800000058,
      "d": 182.9265000000014,
      "v": 56
    },
    {
      "midi": 55,
      "hit": false,
      "t": 152377.77450000058,
      "d": 182.9265000000014,
      "v": 56
    },
    {
      "midi": 48,
      "hit": false,
      "t": 152743.62750000058,
      "d": 182.9265000000014,
      "v": 56
    },
    {
      "midi": 55,
      "hit": false,
      "t": 152926.5540000006,
      "d": 182.9265000000014,
      "v": 56
    },
    {
      "midi": 55,
      "hit": false,
      "t": 153292.4070000006,
      "d": 182.9265000000014,
      "v": 56
    },
    {
      "midi": 52,
      "hit": false,
      "t": 153658.26000000004,
      "d": 2926.8239999999932,
      "v": 53
    },
    {
      "midi": 33,
      "hit": false,
      "t": 153658.2600000004,
      "d": 777.4376249999914,
      "v": 99
    },
    {
      "midi": 45,
      "hit": false,
      "t": 153658.2600000006,
      "d": 182.9265000000014,
      "v": 56
    },
    {
      "midi": 55,
      "hit": false,
      "t": 153841.1865000006,
      "d": 182.9265000000014,
      "v": 56
    },
    {
      "midi": 45,
      "hit": false,
      "t": 154024.1130000006,
      "d": 182.9265000000014,
      "v": 56
    },
    {
      "midi": 55,
      "hit": false,
      "t": 154207.0395000006,
      "d": 182.9265000000014,
      "v": 56
    },
    {
      "midi": 45,
      "hit": false,
      "t": 154389.9660000006,
      "d": 182.9265000000014,
      "v": 56
    },
    {
      "midi": 40,
      "hit": false,
      "t": 154572.89250000037,
      "d": 144.81681250000838,
      "v": 99
    },
    {
      "midi": 45,
      "hit": false,
      "t": 154755.81900000037,
      "d": 1532.0094375000044,
      "v": 99
    },
    {
      "midi": 55,
      "hit": false,
      "t": 154755.8190000006,
      "d": 182.9265000000014,
      "v": 56
    },
    {
      "midi": 45,
      "hit": false,
      "t": 155121.6720000006,
      "d": 182.9265000000014,
      "v": 56
    },
    {
      "midi": 55,
      "hit": false,
      "t": 155304.5985000006,
      "d": 182.9265000000014,
      "v": 56
    },
    {
      "midi": 45,
      "hit": false,
      "t": 155487.5250000006,
      "d": 182.9265000000014,
      "v": 56
    },
    {
      "midi": 55,
      "hit": false,
      "t": 155670.4515000006,
      "d": 182.9265000000014,
      "v": 56
    },
    {
      "midi": 55,
      "hit": false,
      "t": 156219.2310000006,
      "d": 182.9265000000014,
      "v": 56
    },
    {
      "midi": 53,
      "hit": false,
      "t": 156585.08400000003,
      "d": 2926.8239999999932,
      "v": 53
    },
    {
      "midi": 41,
      "hit": false,
      "t": 156585.08400000038,
      "d": 914.632500000007,
      "v": 99
    },
    {
      "midi": 41,
      "hit": false,
      "t": 156585.0840000006,
      "d": 182.9265000000014,
      "v": 56
    },
    {
      "midi": 55,
      "hit": false,
      "t": 156768.01050000062,
      "d": 182.9265000000014,
      "v": 56
    },
    {
      "midi": 41,
      "hit": false,
      "t": 156950.93700000062,
      "d": 182.9265000000014,
      "v": 56
    },
    {
      "midi": 55,
      "hit": false,
      "t": 157133.86350000062,
      "d": 182.9265000000014,
      "v": 56
    },
    {
      "midi": 41,
      "hit": false,
      "t": 157682.6430000004,
      "d": 182.9265000000014,
      "v": 99
    },
    {
      "midi": 55,
      "hit": false,
      "t": 157682.64300000062,
      "d": 182.9265000000014,
      "v": 56
    },
    {
      "midi": 41,
      "hit": false,
      "t": 158048.4960000004,
      "d": 914.632500000007,
      "v": 99
    },
    {
      "midi": 41,
      "hit": false,
      "t": 158048.49600000062,
      "d": 182.9265000000014,
      "v": 56
    },
    {
      "midi": 55,
      "hit": false,
      "t": 158231.42250000063,
      "d": 182.9265000000014,
      "v": 56
    },
    {
      "midi": 41,
      "hit": false,
      "t": 158597.27550000063,
      "d": 182.9265000000014,
      "v": 56
    },
    {
      "midi": 55,
      "hit": false,
      "t": 158780.20200000063,
      "d": 182.9265000000014,
      "v": 56
    },
    {
      "midi": 41,
      "hit": false,
      "t": 159146.0550000004,
      "d": 182.9265000000014,
      "v": 99
    },
    {
      "midi": 41,
      "hit": false,
      "t": 159146.05500000063,
      "d": 182.9265000000014,
      "v": 56
    },
    {
      "midi": 47,
      "hit": false,
      "t": 159511.90800000002,
      "d": 2926.8239999999932,
      "v": 52
    },
    {
      "midi": 52,
      "hit": false,
      "t": 159511.90800000002,
      "d": 2926.8239999999932,
      "v": 52
    },
    {
      "midi": 40,
      "hit": false,
      "t": 159511.9080000004,
      "d": 914.632500000007,
      "v": 99
    },
    {
      "midi": 40,
      "hit": false,
      "t": 159511.90800000064,
      "d": 182.9265000000014,
      "v": 56
    },
    {
      "midi": 57,
      "hit": false,
      "t": 159694.83450000064,
      "d": 182.9265000000014,
      "v": 56
    },
    {
      "midi": 40,
      "hit": false,
      "t": 160060.68750000064,
      "d": 182.9265000000014,
      "v": 56
    },
    {
      "midi": 56,
      "hit": false,
      "t": 160243.61400000064,
      "d": 182.9265000000014,
      "v": 56
    },
    {
      "midi": 40,
      "hit": false,
      "t": 160609.4670000004,
      "d": 182.9265000000014,
      "v": 99
    },
    {
      "midi": 40,
      "hit": false,
      "t": 160609.46700000064,
      "d": 182.9265000000014,
      "v": 56
    },
    {
      "midi": 40,
      "hit": false,
      "t": 160975.3200000004,
      "d": 1097.5590000000084,
      "v": 99
    },
    {
      "midi": 40,
      "hit": false,
      "t": 160975.32000000065,
      "d": 182.9265000000014,
      "v": 56
    },
    {
      "midi": 60,
      "hit": false,
      "t": 161158.24649999998,
      "d": 45.7316249999858,
      "v": 46
    },
    {
      "midi": 56,
      "hit": false,
      "t": 161158.24650000065,
      "d": 182.9265000000014,
      "v": 56
    },
    {
      "midi": 62,
      "hit": false,
      "t": 161203.97812499997,
      "d": 45.7316249999858,
      "v": 46
    },
    {
      "midi": 64,
      "hit": false,
      "t": 161249.70974999995,
      "d": 282.0116874999949,
      "v": 51
    },
    {
      "midi": 40,
      "hit": false,
      "t": 161524.09950000065,
      "d": 182.9265000000014,
      "v": 56
    },
    {
      "midi": 62,
      "hit": false,
      "t": 161684.16018749995,
      "d": 30.487750000000233,
      "v": 46
    },
    {
      "midi": 56,
      "hit": false,
      "t": 161707.02600000065,
      "d": 182.9265000000014,
      "v": 56
    },
    {
      "midi": 57,
      "hit": false,
      "t": 161889.95249999996,
      "d": 228.6581249999872,
      "v": 47
    },
    {
      "midi": 60,
      "hit": false,
      "t": 162072.87899999996,
      "d": 365.8529999999737,
      "v": 48
    },
    {
      "midi": 31,
      "hit": false,
      "t": 162072.87900000042,
      "d": 140.24364999998943,
      "v": 99
    },
    {
      "midi": 56,
      "hit": false,
      "t": 162072.87900000066,
      "d": 182.9265000000014,
      "v": 56
    },
    {
      "midi": 33,
      "hit": false,
      "t": 162255.80550000042,
      "d": 147.86558750001132,
      "v": 99
    },
    {
      "midi": 48,
      "hit": false,
      "t": 162438.73200000002,
      "d": 2926.8239999999932,
      "v": 58
    },
    {
      "midi": 55,
      "hit": false,
      "t": 162438.73200000002,
      "d": 5853.6479999999865,
      "v": 68
    },
    {
      "midi": 60,
      "hit": false,
      "t": 162438.73200000002,
      "d": 8780.47199999998,
      "v": 43
    },
    {
      "midi": 36,
      "hit": false,
      "t": 162438.73200000043,
      "d": 182.9265000000014,
      "v": 99
    },
    {
      "midi": 48,
      "hit": false,
      "t": 162438.73200000066,
      "d": 182.9265000000014,
      "v": 56
    },
    {
      "midi": 31,
      "hit": false,
      "t": 162621.65850000043,
      "d": 182.9265000000014,
      "v": 99
    },
    {
      "midi": 55,
      "hit": false,
      "t": 162621.65850000066,
      "d": 182.9265000000014,
      "v": 56
    },
    {
      "midi": 33,
      "hit": false,
      "t": 162804.58500000043,
      "d": 182.9265000000014,
      "v": 99
    },
    {
      "midi": 48,
      "hit": false,
      "t": 162804.58500000066,
      "d": 182.9265000000014,
      "v": 56
    },
    {
      "midi": 36,
      "hit": false,
      "t": 162987.51150000043,
      "d": 182.9265000000014,
      "v": 99
    },
    {
      "midi": 55,
      "hit": false,
      "t": 162987.51150000066,
      "d": 182.9265000000014,
      "v": 56
    },
    {
      "midi": 38,
      "hit": false,
      "t": 163536.29100000043,
      "d": 365.8530000000028,
      "v": 99
    },
    {
      "midi": 55,
      "hit": false,
      "t": 163536.29100000067,
      "d": 182.9265000000014,
      "v": 56
    },
    {
      "midi": 60,
      "hit": false,
      "t": 163719.21749999994,
      "d": 224.08496249999735,
      "v": 51
    },
    {
      "midi": 64,
      "hit": false,
      "t": 163902.14399999994,
      "d": 216.46302500000456,
      "v": 52
    },
    {
      "midi": 36,
      "hit": false,
      "t": 163902.14400000044,
      "d": 731.7060000000056,
      "v": 99
    },
    {
      "midi": 48,
      "hit": false,
      "t": 163902.14400000067,
      "d": 182.9265000000014,
      "v": 56
    },
    {
      "midi": 67,
      "hit": false,
      "t": 164085.07049999994,
      "d": 2160.0570874999976,
      "v": 49
    },
    {
      "midi": 55,
      "hit": false,
      "t": 164085.07050000067,
      "d": 182.9265000000014,
      "v": 56
    },
    {
      "midi": 48,
      "hit": false,
      "t": 164450.92350000067,
      "d": 182.9265000000014,
      "v": 56
    },
    {
      "midi": 31,
      "hit": false,
      "t": 164633.85000000044,
      "d": 548.7795000000042,
      "v": 99
    },
    {
      "midi": 55,
      "hit": false,
      "t": 164633.85000000068,
      "d": 182.9265000000014,
      "v": 56
    },
    {
      "midi": 55,
      "hit": false,
      "t": 164999.70300000068,
      "d": 182.9265000000014,
      "v": 56
    },
    {
      "midi": 35,
      "hit": false,
      "t": 165182.62950000045,
      "d": 152.43875000000116,
      "v": 99
    },
    {
      "midi": 52,
      "hit": false,
      "t": 165365.556,
      "d": 2926.8239999999932,
      "v": 48
    },
    {
      "midi": 57,
      "hit": false,
      "t": 165365.556,
      "d": 2926.8239999999932,
      "v": 64
    },
    {
      "midi": 33,
      "hit": false,
      "t": 165365.55600000045,
      "d": 777.4376249999914,
      "v": 99
    },
    {
      "midi": 45,
      "hit": false,
      "t": 165365.55600000068,
      "d": 182.9265000000014,
      "v": 56
    },
    {
      "midi": 55,
      "hit": false,
      "t": 165548.48250000068,
      "d": 182.9265000000014,
      "v": 56
    },
    {
      "midi": 45,
      "hit": false,
      "t": 165731.40900000068,
      "d": 182.9265000000014,
      "v": 56
    },
    {
      "midi": 55,
      "hit": false,
      "t": 165914.33550000068,
      "d": 182.9265000000014,
      "v": 56
    },
    {
      "midi": 62,
      "hit": false,
      "t": 166257.32268749995,
      "d": 76.21937500001513,
      "v": 64
    },
    {
      "midi": 64,
      "hit": false,
      "t": 166280.18849999996,
      "d": 2035.0573124999937,
      "v": 51
    },
    {
      "midi": 40,
      "hit": false,
      "t": 166280.18850000043,
      "d": 144.81681250000838,
      "v": 99
    },
    {
      "midi": 45,
      "hit": false,
      "t": 166463.11500000043,
      "d": 1097.5590000000084,
      "v": 99
    },
    {
      "midi": 55,
      "hit": false,
      "t": 166463.1150000007,
      "d": 182.9265000000014,
      "v": 56
    },
    {
      "midi": 45,
      "hit": false,
      "t": 166828.9680000007,
      "d": 182.9265000000014,
      "v": 56
    },
    {
      "midi": 55,
      "hit": false,
      "t": 167011.8945000007,
      "d": 182.9265000000014,
      "v": 56
    },
    {
      "midi": 45,
      "hit": false,
      "t": 167377.7475000007,
      "d": 182.9265000000014,
      "v": 56
    },
    {
      "midi": 55,
      "hit": false,
      "t": 167377.7475000007,
      "d": 182.9265000000014,
      "v": 56
    },
    {
      "midi": 33,
      "hit": false,
      "t": 167743.60050000044,
      "d": 182.9265000000014,
      "v": 99
    },
    {
      "midi": 31,
      "hit": false,
      "t": 167926.52700000044,
      "d": 182.9265000000014,
      "v": 99
    },
    {
      "midi": 55,
      "hit": false,
      "t": 167926.5270000007,
      "d": 182.9265000000014,
      "v": 56
    },
    {
      "midi": 48,
      "hit": false,
      "t": 168292.38,
      "d": 2926.8239999999932,
      "v": 58
    },
    {
      "midi": 53,
      "hit": false,
      "t": 168292.38,
      "d": 2926.8239999999932,
      "v": 58
    },
    {
      "midi": 55,
      "hit": false,
      "t": 168292.38,
      "d": 2926.8239999999932,
      "v": 74
    },
    {
      "midi": 29,
      "hit": false,
      "t": 168292.38000000044,
      "d": 914.632500000007,
      "v": 99
    },
    {
      "midi": 41,
      "hit": false,
      "t": 168292.3800000007,
      "d": 182.9265000000014,
      "v": 56
    },
    {
      "midi": 55,
      "hit": false,
      "t": 168475.3065000007,
      "d": 182.9265000000014,
      "v": 56
    },
    {
      "midi": 41,
      "hit": false,
      "t": 168658.2330000007,
      "d": 182.9265000000014,
      "v": 56
    },
    {
      "midi": 55,
      "hit": false,
      "t": 168841.1595000007,
      "d": 182.9265000000014,
      "v": 56
    },
    {
      "midi": 29,
      "hit": false,
      "t": 169389.93900000045,
      "d": 182.9265000000014,
      "v": 99
    },
    {
      "midi": 55,
      "hit": false,
      "t": 169389.9390000007,
      "d": 182.9265000000014,
      "v": 56
    },
    {
      "midi": 29,
      "hit": false,
      "t": 169755.79200000045,
      "d": 914.632500000007,
      "v": 99
    },
    {
      "midi": 41,
      "hit": false,
      "t": 169755.7920000007,
      "d": 182.9265000000014,
      "v": 56
    },
    {
      "midi": 55,
      "hit": false,
      "t": 169938.71850000072,
      "d": 182.9265000000014,
      "v": 56
    },
    {
      "midi": 41,
      "hit": false,
      "t": 170304.57150000072,
      "d": 182.9265000000014,
      "v": 56
    },
    {
      "midi": 55,
      "hit": false,
      "t": 170487.49800000072,
      "d": 182.9265000000014,
      "v": 56
    },
    {
      "midi": 29,
      "hit": false,
      "t": 170853.35100000046,
      "d": 182.9265000000014,
      "v": 99
    },
    {
      "midi": 41,
      "hit": false,
      "t": 170853.35100000072,
      "d": 182.9265000000014,
      "v": 56
    },
    {
      "midi": 50,
      "hit": false,
      "t": 171219.204,
      "d": 1455.7900624999893,
      "v": 65
    },
    {
      "midi": 56,
      "hit": false,
      "t": 171219.204,
      "d": 2926.8239999999932,
      "v": 54
    },
    {
      "midi": 59,
      "hit": false,
      "t": 171219.204,
      "d": 2926.8239999999932,
      "v": 80
    },
    {
      "midi": 64,
      "hit": false,
      "t": 171219.204,
      "d": 365.8530000000028,
      "v": 68
    },
    {
      "midi": 59,
      "hit": false,
      "t": 171219.20400000006,
      "d": 2926.8239999999932,
      "v": 80
    },
    {
      "midi": 62,
      "hit": false,
      "t": 171219.20400000006,
      "d": 2926.8239999999932,
      "v": 86
    },
    {
      "midi": 64,
      "hit": false,
      "t": 171219.20400000006,
      "d": 2926.8239999999932,
      "v": 80
    },
    {
      "midi": 64,
      "hit": false,
      "t": 171219.2040000001,
      "d": 1463.4120000000112,
      "v": 90
    },
    {
      "midi": 59,
      "hit": false,
      "t": 171219.2040000001,
      "d": 2560.9710000000196,
      "v": 90
    },
    {
      "midi": 68,
      "hit": false,
      "t": 171219.2040000001,
      "d": 2560.9710000000196,
      "v": 90
    },
    {
      "midi": 71,
      "hit": false,
      "t": 171219.2040000001,
      "d": 2560.9710000000196,
      "v": 90
    },
    {
      "midi": 28,
      "hit": false,
      "t": 171219.20400000046,
      "d": 914.632500000007,
      "v": 99
    },
    {
      "midi": 40,
      "hit": false,
      "t": 171219.20400000073,
      "d": 182.9265000000014,
      "v": 56
    },
    {
      "midi": 57,
      "hit": false,
      "t": 171402.13050000073,
      "d": 182.9265000000014,
      "v": 56
    },
    {
      "midi": 68,
      "hit": false,
      "t": 171585.057,
      "d": 365.8530000000028,
      "v": 67
    },
    {
      "midi": 40,
      "hit": false,
      "t": 171767.98350000073,
      "d": 182.9265000000014,
      "v": 56
    },
    {
      "midi": 69,
      "hit": false,
      "t": 171950.91,
      "d": 365.8530000000028,
      "v": 67
    },
    {
      "midi": 56,
      "hit": false,
      "t": 171950.91000000073,
      "d": 182.9265000000014,
      "v": 56
    },
    {
      "midi": 71,
      "hit": false,
      "t": 172316.763,
      "d": 365.8530000000028,
      "v": 67
    },
    {
      "midi": 28,
      "hit": false,
      "t": 172316.76300000047,
      "d": 182.9265000000014,
      "v": 99
    },
    {
      "midi": 40,
      "hit": false,
      "t": 172316.76300000073,
      "d": 182.9265000000014,
      "v": 56
    },
    {
      "midi": 64,
      "hit": false,
      "t": 172682.616,
      "d": 1097.5590000000084,
      "v": 81
    },
    {
      "midi": 64,
      "hit": false,
      "t": 172682.61600000013,
      "d": 1097.5590000000084,
      "v": 95
    },
    {
      "midi": 28,
      "hit": false,
      "t": 172682.61600000047,
      "d": 914.632500000007,
      "v": 99
    },
    {
      "midi": 40,
      "hit": false,
      "t": 172682.61600000074,
      "d": 182.9265000000014,
      "v": 56
    },
    {
      "midi": 52,
      "hit": false,
      "t": 172705.4818125,
      "d": 1440.5461875000037,
      "v": 52
    },
    {
      "midi": 56,
      "hit": false,
      "t": 172865.54250000074,
      "d": 182.9265000000014,
      "v": 56
    },
    {
      "midi": 40,
      "hit": false,
      "t": 173231.39550000074,
      "d": 182.9265000000014,
      "v": 56
    },
    {
      "midi": 56,
      "hit": false,
      "t": 173414.32200000074,
      "d": 182.9265000000014,
      "v": 56
    },
    {
      "midi": 28,
      "hit": false,
      "t": 173597.24850000048,
      "d": 182.9265000000014,
      "v": 99
    },
    {
      "midi": 62,
      "hit": false,
      "t": 173780.17500000002,
      "d": 182.9265000000014,
      "v": 81
    },
    {
      "midi": 62,
      "hit": false,
      "t": 173780.17500000013,
      "d": 182.9265000000014,
      "v": 103
    },
    {
      "midi": 31,
      "hit": false,
      "t": 173780.17500000048,
      "d": 182.9265000000014,
      "v": 99
    },
    {
      "midi": 56,
      "hit": false,
      "t": 173780.17500000075,
      "d": 182.9265000000014,
      "v": 56
    },
    {
      "midi": 60,
      "hit": false,
      "t": 173963.10150000002,
      "d": 182.9265000000014,
      "v": 81
    },
    {
      "midi": 60,
      "hit": false,
      "t": 173963.10150000014,
      "d": 182.9265000000014,
      "v": 89
    },
    {
      "midi": 30,
      "hit": false,
      "t": 173963.10150000048,
      "d": 182.9265000000014,
      "v": 99
    },
    {
      "midi": 50,
      "hit": false,
      "t": 174146.02799999993,
      "d": 1463.4120000000112,
      "v": 61
    },
    {
      "midi": 53,
      "hit": false,
      "t": 174146.02799999993,
      "d": 1463.4120000000112,
      "v": 61
    },
    {
      "midi": 57,
      "hit": false,
      "t": 174146.02799999993,
      "d": 1463.4120000000112,
      "v": 61
    },
    {
      "midi": 62,
      "hit": false,
      "t": 174146.02799999993,
      "d": 1463.4120000000112,
      "v": 61
    },
    {
      "midi": 69,
      "hit": false,
      "t": 174146.02799999993,
      "d": 2926.8240000000224,
      "v": 61
    },
    {
      "midi": 57,
      "hit": false,
      "t": 174146.02800000002,
      "d": 731.7060000000056,
      "v": 81
    },
    {
      "midi": 57,
      "hit": false,
      "t": 174146.02800000002,
      "d": 1463.4120000000112,
      "v": 64
    },
    {
      "midi": 65,
      "hit": false,
      "t": 174146.02800000002,
      "d": 1463.4120000000112,
      "v": 64
    },
    {
      "midi": 62,
      "hit": false,
      "t": 174146.02800000002,
      "d": 2926.8240000000224,
      "v": 64
    },
    {
      "midi": 57,
      "hit": false,
      "t": 174146.02800000005,
      "d": 91.4632500000007,
      "v": 53
    },
    {
      "midi": 57,
      "hit": false,
      "t": 174146.02800000014,
      "d": 731.7060000000056,
      "v": 95
    },
    {
      "midi": 38,
      "hit": false,
      "t": 174146.0280000005,
      "d": 914.632500000007,
      "v": 99
    },
    {
      "midi": 50,
      "hit": false,
      "t": 174146.02800000075,
      "d": 182.9265000000014,
      "v": 56
    },
    {
      "midi": 53,
      "hit": false,
      "t": 174328.95450000075,
      "d": 182.9265000000014,
      "v": 56
    },
    {
      "midi": 53,
      "hit": false,
      "t": 174511.88100000075,
      "d": 182.9265000000014,
      "v": 56
    },
    {
      "midi": 53,
      "hit": false,
      "t": 174694.80750000075,
      "d": 182.9265000000014,
      "v": 56
    },
    {
      "midi": 53,
      "hit": false,
      "t": 174877.73400000075,
      "d": 182.9265000000014,
      "v": 56
    },
    {
      "midi": 38,
      "hit": false,
      "t": 175243.5870000005,
      "d": 365.8530000000028,
      "v": 99
    },
    {
      "midi": 53,
      "hit": false,
      "t": 175243.58700000076,
      "d": 182.9265000000014,
      "v": 56
    },
    {
      "midi": 53,
      "hit": false,
      "t": 175426.51350000076,
      "d": 182.9265000000014,
      "v": 56
    },
    {
      "midi": 50,
      "hit": false,
      "t": 175609.43999999994,
      "d": 1463.4120000000112,
      "v": 64
    },
    {
      "midi": 59,
      "hit": false,
      "t": 175609.43999999994,
      "d": 1463.4120000000112,
      "v": 64
    },
    {
      "midi": 55,
      "hit": false,
      "t": 175609.43999999994,
      "d": 2926.8240000000224,
      "v": 64
    },
    {
      "midi": 59,
      "hit": false,
      "t": 175609.44000000003,
      "d": 1463.4120000000112,
      "v": 64
    },
    {
      "midi": 67,
      "hit": false,
      "t": 175609.44000000003,
      "d": 2926.8240000000224,
      "v": 64
    },
    {
      "midi": 59,
      "hit": false,
      "t": 175609.44000000006,
      "d": 91.4632500000007,
      "v": 53
    },
    {
      "midi": 40,
      "hit": false,
      "t": 175609.4400000005,
      "d": 914.632500000007,
      "v": 99
    },
    {
      "midi": 52,
      "hit": false,
      "t": 175609.44000000076,
      "d": 182.9265000000014,
      "v": 56
    },
    {
      "midi": 55,
      "hit": false,
      "t": 175792.36650000076,
      "d": 182.9265000000014,
      "v": 56
    },
    {
      "midi": 55,
      "hit": false,
      "t": 175975.29300000076,
      "d": 182.9265000000014,
      "v": 56
    },
    {
      "midi": 55,
      "hit": false,
      "t": 176158.21950000076,
      "d": 182.9265000000014,
      "v": 56
    },
    {
      "midi": 55,
      "hit": false,
      "t": 176341.14600000076,
      "d": 182.9265000000014,
      "v": 56
    },
    {
      "midi": 31,
      "hit": false,
      "t": 176706.9990000005,
      "d": 182.9265000000014,
      "v": 99
    },
    {
      "midi": 55,
      "hit": false,
      "t": 176706.99900000077,
      "d": 182.9265000000014,
      "v": 56
    },
    {
      "midi": 33,
      "hit": false,
      "t": 176889.9255000005,
      "d": 182.9265000000014,
      "v": 99
    },
    {
      "midi": 55,
      "hit": false,
      "t": 176889.92550000077,
      "d": 182.9265000000014,
      "v": 56
    },
    {
      "midi": 67,
      "hit": false,
      "t": 177072.85199999996,
      "d": 1463.4120000000112,
      "v": 54
    },
    {
      "midi": 52,
      "hit": false,
      "t": 177072.85199999996,
      "d": 2926.8240000000224,
      "v": 64
    },
    {
      "midi": 60,
      "hit": false,
      "t": 177072.85199999996,
      "d": 2926.8240000000224,
      "v": 64
    },
    {
      "midi": 64,
      "hit": false,
      "t": 177072.85200000004,
      "d": 2926.8240000000224,
      "v": 63
    },
    {
      "midi": 60,
      "hit": false,
      "t": 177072.85200000004,
      "d": 4390.2360000000335,
      "v": 63
    },
    {
      "midi": 64,
      "hit": false,
      "t": 177072.85200000007,
      "d": 91.4632500000007,
      "v": 53
    },
    {
      "midi": 36,
      "hit": false,
      "t": 177072.8520000005,
      "d": 914.632500000007,
      "v": 99
    },
    {
      "midi": 48,
      "hit": false,
      "t": 177072.85200000077,
      "d": 182.9265000000014,
      "v": 56
    },
    {
      "midi": 55,
      "hit": false,
      "t": 177255.77850000077,
      "d": 182.9265000000014,
      "v": 56
    },
    {
      "midi": 55,
      "hit": false,
      "t": 177438.70500000077,
      "d": 182.9265000000014,
      "v": 56
    },
    {
      "midi": 55,
      "hit": false,
      "t": 177621.63150000077,
      "d": 182.9265000000014,
      "v": 56
    },
    {
      "midi": 60,
      "hit": false,
      "t": 177804.55800000008,
      "d": 91.4632500000007,
      "v": 53
    },
    {
      "midi": 67,
      "hit": false,
      "t": 177804.55800000008,
      "d": 91.4632500000007,
      "v": 53
    },
    {
      "midi": 55,
      "hit": false,
      "t": 177804.55800000078,
      "d": 182.9265000000014,
      "v": 56
    },
    {
      "midi": 36,
      "hit": false,
      "t": 178170.41100000052,
      "d": 365.8530000000319,
      "v": 99
    },
    {
      "midi": 55,
      "hit": false,
      "t": 178170.41100000078,
      "d": 182.9265000000014,
      "v": 56
    },
    {
      "midi": 55,
      "hit": false,
      "t": 178353.33750000078,
      "d": 182.9265000000014,
      "v": 56
    },
    {
      "midi": 57,
      "hit": false,
      "t": 178536.26399999997,
      "d": 1463.4120000000112,
      "v": 63
    },
    {
      "midi": 64,
      "hit": false,
      "t": 178536.26399999997,
      "d": 1463.4120000000112,
      "v": 54
    },
    {
      "midi": 69,
      "hit": false,
      "t": 178536.26400000005,
      "d": 2926.8240000000224,
      "v": 63
    },
    {
      "midi": 60,
      "hit": false,
      "t": 178536.26400000008,
      "d": 91.4632500000007,
      "v": 53
    },
    {
      "midi": 69,
      "hit": false,
      "t": 178536.26400000008,
      "d": 91.4632500000007,
      "v": 53
    },
    {
      "midi": 33,
      "hit": false,
      "t": 178536.26400000055,
      "d": 914.632500000007,
      "v": 99
    },
    {
      "midi": 52,
      "hit": false,
      "t": 178536.26400000078,
      "d": 182.9265000000014,
      "v": 56
    },
    {
      "midi": 57,
      "hit": false,
      "t": 178719.19050000078,
      "d": 182.9265000000014,
      "v": 56
    },
    {
      "midi": 57,
      "hit": false,
      "t": 178902.11700000078,
      "d": 182.9265000000014,
      "v": 56
    },
    {
      "midi": 55,
      "hit": false,
      "t": 179085.0435000008,
      "d": 182.9265000000014,
      "v": 56
    },
    {
      "midi": 60,
      "hit": false,
      "t": 179267.9700000001,
      "d": 91.4632500000007,
      "v": 53
    },
    {
      "midi": 67,
      "hit": false,
      "t": 179267.9700000001,
      "d": 91.4632500000007,
      "v": 53
    },
    {
      "midi": 55,
      "hit": false,
      "t": 179267.9700000008,
      "d": 182.9265000000014,
      "v": 56
    },
    {
      "midi": 67,
      "hit": false,
      "t": 179633.8230000001,
      "d": 91.4632500000007,
      "v": 53
    },
    {
      "midi": 33,
      "hit": false,
      "t": 179633.82300000056,
      "d": 182.9265000000014,
      "v": 99
    },
    {
      "midi": 55,
      "hit": false,
      "t": 179633.8230000008,
      "d": 182.9265000000014,
      "v": 56
    },
    {
      "midi": 31,
      "hit": false,
      "t": 179816.74950000056,
      "d": 182.9265000000014,
      "v": 99
    },
    {
      "midi": 55,
      "hit": false,
      "t": 179816.7495000008,
      "d": 182.9265000000014,
      "v": 56
    },
    {
      "midi": 48,
      "hit": false,
      "t": 179999.67599999998,
      "d": 1463.4120000000112,
      "v": 63
    },
    {
      "midi": 53,
      "hit": false,
      "t": 179999.67599999998,
      "d": 1463.4120000000112,
      "v": 63
    },
    {
      "midi": 57,
      "hit": false,
      "t": 179999.67599999998,
      "d": 1463.4120000000112,
      "v": 63
    },
    {
      "midi": 65,
      "hit": false,
      "t": 179999.67599999998,
      "d": 2926.8240000000224,
      "v": 54
    },
    {
      "midi": 65,
      "hit": false,
      "t": 179999.67600000006,
      "d": 1463.4120000000112,
      "v": 63
    },
    {
      "midi": 57,
      "hit": false,
      "t": 179999.6760000001,
      "d": 91.4632500000007,
      "v": 53
    },
    {
      "midi": 65,
      "hit": false,
      "t": 179999.6760000001,
      "d": 91.4632500000007,
      "v": 53
    },
    {
      "midi": 29,
      "hit": false,
      "t": 179999.67600000056,
      "d": 914.632500000007,
      "v": 99
    },
    {
      "midi": 53,
      "hit": false,
      "t": 179999.6760000008,
      "d": 182.9265000000014,
      "v": 56
    },
    {
      "midi": 55,
      "hit": false,
      "t": 180182.6025000008,
      "d": 182.9265000000014,
      "v": 56
    },
    {
      "midi": 55,
      "hit": false,
      "t": 180365.5290000008,
      "d": 182.9265000000014,
      "v": 56
    },
    {
      "midi": 55,
      "hit": false,
      "t": 180548.4555000008,
      "d": 182.9265000000014,
      "v": 56
    },
    {
      "midi": 55,
      "hit": false,
      "t": 180731.3820000008,
      "d": 182.9265000000014,
      "v": 56
    },
    {
      "midi": 29,
      "hit": false,
      "t": 181097.23500000057,
      "d": 365.8530000000028,
      "v": 99
    },
    {
      "midi": 55,
      "hit": false,
      "t": 181097.2350000008,
      "d": 182.9265000000014,
      "v": 56
    },
    {
      "midi": 55,
      "hit": false,
      "t": 181280.1615000008,
      "d": 182.9265000000014,
      "v": 56
    },
    {
      "midi": 50,
      "hit": false,
      "t": 181463.088,
      "d": 1463.4120000000112,
      "v": 63
    },
    {
      "midi": 59,
      "hit": false,
      "t": 181463.088,
      "d": 1463.4120000000112,
      "v": 63
    },
    {
      "midi": 55,
      "hit": false,
      "t": 181463.088,
      "d": 2926.8240000000224,
      "v": 63
    },
    {
      "midi": 62,
      "hit": false,
      "t": 181463.08800000008,
      "d": 1463.4120000000112,
      "v": 63
    },
    {
      "midi": 67,
      "hit": false,
      "t": 181463.08800000008,
      "d": 1463.4120000000112,
      "v": 63
    },
    {
      "midi": 71,
      "hit": false,
      "t": 181463.08800000008,
      "d": 1463.4120000000112,
      "v": 63
    },
    {
      "midi": 59,
      "hit": false,
      "t": 181463.0880000001,
      "d": 91.4632500000007,
      "v": 53
    },
    {
      "midi": 31,
      "hit": false,
      "t": 181463.08800000057,
      "d": 914.632500000007,
      "v": 99
    },
    {
      "midi": 50,
      "hit": false,
      "t": 181463.0880000008,
      "d": 182.9265000000014,
      "v": 56
    },
    {
      "midi": 55,
      "hit": false,
      "t": 181646.0145000008,
      "d": 182.9265000000014,
      "v": 56
    },
    {
      "midi": 55,
      "hit": false,
      "t": 181828.9410000008,
      "d": 182.9265000000014,
      "v": 56
    },
    {
      "midi": 55,
      "hit": false,
      "t": 182011.8675000008,
      "d": 182.9265000000014,
      "v": 56
    },
    {
      "midi": 55,
      "hit": false,
      "t": 182194.7940000008,
      "d": 182.9265000000014,
      "v": 56
    },
    {
      "midi": 31,
      "hit": false,
      "t": 182560.64700000058,
      "d": 182.9265000000014,
      "v": 99
    },
    {
      "midi": 55,
      "hit": false,
      "t": 182560.6470000008,
      "d": 182.9265000000014,
      "v": 56
    },
    {
      "midi": 33,
      "hit": false,
      "t": 182743.57350000058,
      "d": 182.9265000000014,
      "v": 99
    },
    {
      "midi": 55,
      "hit": false,
      "t": 182743.5735000008,
      "d": 182.9265000000014,
      "v": 56
    },
    {
      "midi": 52,
      "hit": false,
      "t": 182926.5,
      "d": 2926.8240000000224,
      "v": 62
    },
    {
      "midi": 60,
      "hit": false,
      "t": 182926.5,
      "d": 2926.8240000000224,
      "v": 62
    },
    {
      "midi": 64,
      "hit": false,
      "t": 182926.5,
      "d": 2926.8240000000224,
      "v": 63
    },
    {
      "midi": 67,
      "hit": false,
      "t": 182926.5000000001,
      "d": 1463.4120000000112,
      "v": 63
    },
    {
      "midi": 64,
      "hit": false,
      "t": 182926.5000000001,
      "d": 2926.8240000000224,
      "v": 63
    },
    {
      "midi": 60,
      "hit": false,
      "t": 182926.5000000001,
      "d": 4390.2360000000335,
      "v": 63
    },
    {
      "midi": 60,
      "hit": false,
      "t": 182926.50000000012,
      "d": 91.4632500000007,
      "v": 53
    },
    {
      "midi": 64,
      "hit": false,
      "t": 182926.50000000012,
      "d": 91.4632500000007,
      "v": 53
    },
    {
      "midi": 36,
      "hit": false,
      "t": 182926.50000000058,
      "d": 731.7060000000056,
      "v": 99
    },
    {
      "midi": 48,
      "hit": false,
      "t": 182926.50000000081,
      "d": 182.9265000000014,
      "v": 56
    },
    {
      "midi": 55,
      "hit": false,
      "t": 183109.42650000082,
      "d": 182.9265000000014,
      "v": 56
    },
    {
      "midi": 55,
      "hit": false,
      "t": 183292.35300000082,
      "d": 182.9265000000014,
      "v": 56
    },
    {
      "midi": 55,
      "hit": false,
      "t": 183475.27950000082,
      "d": 182.9265000000014,
      "v": 56
    },
    {
      "midi": 60,
      "hit": false,
      "t": 183658.20600000012,
      "d": 91.4632500000007,
      "v": 53
    },
    {
      "midi": 67,
      "hit": false,
      "t": 183658.20600000012,
      "d": 91.4632500000007,
      "v": 53
    },
    {
      "midi": 36,
      "hit": false,
      "t": 183658.2060000006,
      "d": 182.9265000000014,
      "v": 99
    },
    {
      "midi": 55,
      "hit": false,
      "t": 183658.20600000082,
      "d": 182.9265000000014,
      "v": 56
    },
    {
      "midi": 40,
      "hit": false,
      "t": 183841.1325000006,
      "d": 182.9265000000014,
      "v": 99
    },
    {
      "midi": 43,
      "hit": false,
      "t": 184024.0590000006,
      "d": 182.9265000000014,
      "v": 99
    },
    {
      "midi": 55,
      "hit": false,
      "t": 184024.05900000082,
      "d": 182.9265000000014,
      "v": 56
    },
    {
      "midi": 40,
      "hit": false,
      "t": 184206.9855000006,
      "d": 182.9265000000014,
      "v": 99
    },
    {
      "midi": 55,
      "hit": false,
      "t": 184206.98550000082,
      "d": 182.9265000000014,
      "v": 56
    },
    {
      "midi": 57,
      "hit": false,
      "t": 184389.912,
      "d": 1463.4120000000112,
      "v": 62
    },
    {
      "midi": 69,
      "hit": false,
      "t": 184389.9120000001,
      "d": 2926.8240000000224,
      "v": 63
    },
    {
      "midi": 60,
      "hit": false,
      "t": 184389.91200000013,
      "d": 91.4632500000007,
      "v": 53
    },
    {
      "midi": 69,
      "hit": false,
      "t": 184389.91200000013,
      "d": 91.4632500000007,
      "v": 53
    },
    {
      "midi": 45,
      "hit": false,
      "t": 184389.9120000006,
      "d": 731.7060000000056,
      "v": 99
    },
    {
      "midi": 48,
      "hit": false,
      "t": 184389.91200000083,
      "d": 182.9265000000014,
      "v": 56
    },
    {
      "midi": 57,
      "hit": false,
      "t": 184572.83850000083,
      "d": 182.9265000000014,
      "v": 56
    },
    {
      "midi": 57,
      "hit": false,
      "t": 184755.76500000083,
      "d": 182.9265000000014,
      "v": 56
    },
    {
      "midi": 69,
      "hit": false,
      "t": 184938.69150000013,
      "d": 91.4632500000007,
      "v": 53
    },
    {
      "midi": 57,
      "hit": false,
      "t": 184938.69150000083,
      "d": 182.9265000000014,
      "v": 56
    },
    {
      "midi": 64,
      "hit": false,
      "t": 185121.61800000013,
      "d": 182.9265000000014,
      "v": 53
    },
    {
      "midi": 57,
      "hit": false,
      "t": 185121.61800000083,
      "d": 182.9265000000014,
      "v": 56
    },
    {
      "midi": 67,
      "hit": false,
      "t": 185304.54450000013,
      "d": 91.4632500000007,
      "v": 53
    },
    {
      "midi": 62,
      "hit": false,
      "t": 185487.47100000014,
      "d": 182.9265000000014,
      "v": 53
    },
    {
      "midi": 38,
      "hit": false,
      "t": 185487.4710000006,
      "d": 182.9265000000014,
      "v": 99
    },
    {
      "midi": 57,
      "hit": false,
      "t": 185487.47100000083,
      "d": 182.9265000000014,
      "v": 56
    },
    {
      "midi": 40,
      "hit": false,
      "t": 185670.3975000006,
      "d": 182.9265000000014,
      "v": 99
    },
    {
      "midi": 57,
      "hit": false,
      "t": 185670.39750000084,
      "d": 182.9265000000014,
      "v": 56
    },
    {
      "midi": 48,
      "hit": false,
      "t": 185853.32400000002,
      "d": 1463.4120000000112,
      "v": 67
    },
    {
      "midi": 53,
      "hit": false,
      "t": 185853.32400000002,
      "d": 1463.4120000000112,
      "v": 67
    },
    {
      "midi": 57,
      "hit": false,
      "t": 185853.32400000002,
      "d": 1463.4120000000112,
      "v": 67
    },
    {
      "midi": 65,
      "hit": false,
      "t": 185853.3240000001,
      "d": 1463.4120000000112,
      "v": 62
    },
    {
      "midi": 60,
      "hit": false,
      "t": 185853.32400000014,
      "d": 182.9265000000014,
      "v": 53
    },
    {
      "midi": 41,
      "hit": false,
      "t": 185853.3240000006,
      "d": 548.7795000000042,
      "v": 99
    },
    {
      "midi": 48,
      "hit": false,
      "t": 185853.32400000084,
      "d": 182.9265000000014,
      "v": 56
    },
    {
      "midi": 55,
      "hit": false,
      "t": 186036.25050000084,
      "d": 182.9265000000014,
      "v": 56
    },
    {
      "midi": 55,
      "hit": false,
      "t": 186219.17700000084,
      "d": 182.9265000000014,
      "v": 56
    },
    {
      "midi": 40,
      "hit": false,
      "t": 186402.1035000006,
      "d": 182.9265000000014,
      "v": 99
    },
    {
      "midi": 55,
      "hit": false,
      "t": 186402.10350000084,
      "d": 182.9265000000014,
      "v": 56
    },
    {
      "midi": 45,
      "hit": false,
      "t": 186585.0300000006,
      "d": 224.08496249999735,
      "v": 99
    },
    {
      "midi": 55,
      "hit": false,
      "t": 186585.03000000084,
      "d": 182.9265000000014,
      "v": 56
    },
    {
      "midi": 43,
      "hit": false,
      "t": 186767.9565000006,
      "d": 224.08496249999735,
      "v": 99
    },
    {
      "midi": 41,
      "hit": false,
      "t": 186950.8830000006,
      "d": 224.08496249999735,
      "v": 99
    },
    {
      "midi": 55,
      "hit": false,
      "t": 186950.88300000085,
      "d": 182.9265000000014,
      "v": 56
    },
    {
      "midi": 36,
      "hit": false,
      "t": 187133.8095000006,
      "d": 224.08496249999735,
      "v": 99
    },
    {
      "midi": 55,
      "hit": false,
      "t": 187133.80950000085,
      "d": 182.9265000000014,
      "v": 56
    },
    {
      "midi": 50,
      "hit": false,
      "t": 187316.73600000003,
      "d": 1463.4120000000112,
      "v": 67
    },
    {
      "midi": 59,
      "hit": false,
      "t": 187316.73600000003,
      "d": 1463.4120000000112,
      "v": 67
    },
    {
      "midi": 55,
      "hit": false,
      "t": 187316.73600000003,
      "d": 2926.8240000000224,
      "v": 67
    },
    {
      "midi": 62,
      "hit": false,
      "t": 187316.73600000012,
      "d": 1463.4120000000112,
      "v": 62
    },
    {
      "midi": 67,
      "hit": false,
      "t": 187316.73600000012,
      "d": 1463.4120000000112,
      "v": 62
    },
    {
      "midi": 71,
      "hit": false,
      "t": 187316.73600000012,
      "d": 1463.4120000000112,
      "v": 62
    },
    {
      "midi": 59,
      "hit": false,
      "t": 187316.73600000015,
      "d": 91.4632500000007,
      "v": 53
    },
    {
      "midi": 31,
      "hit": false,
      "t": 187316.73600000062,
      "d": 876.5228124999849,
      "v": 99
    },
    {
      "midi": 48,
      "hit": false,
      "t": 187316.73600000085,
      "d": 182.9265000000014,
      "v": 56
    },
    {
      "midi": 55,
      "hit": false,
      "t": 187499.66250000085,
      "d": 182.9265000000014,
      "v": 56
    },
    {
      "midi": 55,
      "hit": false,
      "t": 187682.58900000085,
      "d": 182.9265000000014,
      "v": 56
    },
    {
      "midi": 55,
      "hit": false,
      "t": 187865.51550000085,
      "d": 182.9265000000014,
      "v": 56
    },
    {
      "midi": 55,
      "hit": false,
      "t": 188048.44200000085,
      "d": 182.9265000000014,
      "v": 56
    },
    {
      "midi": 55,
      "hit": false,
      "t": 188391.4291875,
      "d": 76.21937500001513,
      "v": 85
    },
    {
      "midi": 53,
      "hit": false,
      "t": 188414.295,
      "d": 304.8775000000023,
      "v": 78
    },
    {
      "midi": 57,
      "hit": false,
      "t": 188414.295,
      "d": 376.5237124999985,
      "v": 78
    },
    {
      "midi": 60,
      "hit": false,
      "t": 188414.295,
      "d": 7682.9130000000005,
      "v": 89
    },
    {
      "midi": 31,
      "hit": false,
      "t": 188414.2950000006,
      "d": 205.79231250000885,
      "v": 99
    },
    {
      "midi": 55,
      "hit": false,
      "t": 188414.29500000086,
      "d": 182.9265000000014,
      "v": 56
    },
    {
      "midi": 33,
      "hit": false,
      "t": 188597.2215000006,
      "d": 185.97527500000433,
      "v": 99
    },
    {
      "midi": 55,
      "hit": false,
      "t": 188597.22150000086,
      "d": 182.9265000000014,
      "v": 56
    },
    {
      "midi": 55,
      "hit": false,
      "t": 188780.14800000002,
      "d": 1486.2778124999895,
      "v": 78
    },
    {
      "midi": 52,
      "hit": false,
      "t": 188780.14800000002,
      "d": 2926.8239999999932,
      "v": 78
    },
    {
      "midi": 52,
      "hit": false,
      "t": 188780.14800000004,
      "d": 2926.8240000000224,
      "v": 66
    },
    {
      "midi": 60,
      "hit": false,
      "t": 188780.14800000004,
      "d": 2926.8240000000224,
      "v": 66
    },
    {
      "midi": 67,
      "hit": false,
      "t": 188780.14800000013,
      "d": 1463.4120000000112,
      "v": 62
    },
    {
      "midi": 64,
      "hit": false,
      "t": 188780.14800000013,
      "d": 2926.8240000000224,
      "v": 62
    },
    {
      "midi": 60,
      "hit": false,
      "t": 188780.14800000013,
      "d": 7317.060000000027,
      "v": 62
    },
    {
      "midi": 64,
      "hit": false,
      "t": 188780.14800000016,
      "d": 91.4632500000007,
      "v": 53
    },
    {
      "midi": 36,
      "hit": false,
      "t": 188780.1480000006,
      "d": 1100.6077750000113,
      "v": 99
    },
    {
      "midi": 48,
      "hit": false,
      "t": 188780.14800000086,
      "d": 182.9265000000014,
      "v": 56
    },
    {
      "midi": 55,
      "hit": false,
      "t": 188963.07450000086,
      "d": 182.9265000000014,
      "v": 56
    },
    {
      "midi": 55,
      "hit": false,
      "t": 189146.00100000086,
      "d": 182.9265000000014,
      "v": 56
    },
    {
      "midi": 55,
      "hit": false,
      "t": 189328.92750000086,
      "d": 182.9265000000014,
      "v": 56
    },
    {
      "midi": 60,
      "hit": false,
      "t": 189511.85400000017,
      "d": 91.4632500000007,
      "v": 53
    },
    {
      "midi": 67,
      "hit": false,
      "t": 189511.85400000017,
      "d": 91.4632500000007,
      "v": 53
    },
    {
      "midi": 55,
      "hit": false,
      "t": 189511.85400000087,
      "d": 182.9265000000014,
      "v": 56
    },
    {
      "midi": 35,
      "hit": false,
      "t": 189877.7070000006,
      "d": 213.41425000000163,
      "v": 99
    },
    {
      "midi": 55,
      "hit": false,
      "t": 189877.70700000087,
      "d": 182.9265000000014,
      "v": 56
    },
    {
      "midi": 36,
      "hit": false,
      "t": 190060.6335000006,
      "d": 167.68262499998673,
      "v": 99
    },
    {
      "midi": 55,
      "hit": false,
      "t": 190060.63350000087,
      "d": 182.9265000000014,
      "v": 56
    },
    {
      "midi": 57,
      "hit": false,
      "t": 190243.56000000006,
      "d": 1463.4120000000112,
      "v": 66
    },
    {
      "midi": 69,
      "hit": false,
      "t": 190243.56000000014,
      "d": 5853.648000000016,
      "v": 62
    },
    {
      "midi": 60,
      "hit": false,
      "t": 190243.56000000017,
      "d": 91.4632500000007,
      "v": 53
    },
    {
      "midi": 69,
      "hit": false,
      "t": 190243.56000000017,
      "d": 91.4632500000007,
      "v": 53
    },
    {
      "midi": 33,
      "hit": false,
      "t": 190243.56000000058,
      "d": 1374.9975250000425,
      "v": 99
    },
    {
      "midi": 48,
      "hit": false,
      "t": 190243.56000000087,
      "d": 182.9265000000014,
      "v": 56
    },
    {
      "midi": 57,
      "hit": false,
      "t": 190426.48650000087,
      "d": 182.9265000000014,
      "v": 56
    },
    {
      "midi": 57,
      "hit": false,
      "t": 190609.41300000087,
      "d": 182.9265000000014,
      "v": 56
    },
    {
      "midi": 57,
      "hit": false,
      "t": 190792.33950000087,
      "d": 182.9265000000014,
      "v": 56
    },
    {
      "midi": 60,
      "hit": false,
      "t": 190975.26600000018,
      "d": 91.4632500000007,
      "v": 53
    },
    {
      "midi": 67,
      "hit": false,
      "t": 190975.26600000018,
      "d": 91.4632500000007,
      "v": 53
    },
    {
      "midi": 57,
      "hit": false,
      "t": 190975.26600000088,
      "d": 182.9265000000014,
      "v": 56
    },
    {
      "midi": 62,
      "hit": false,
      "t": 191341.11900000004,
      "d": 304.8775000000023,
      "v": 116
    },
    {
      "midi": 59,
      "hit": false,
      "t": 191341.11900000004,
      "d": 330.7920875000127,
      "v": 116
    },
    {
      "midi": 57,
      "hit": false,
      "t": 191341.11900000088,
      "d": 182.9265000000014,
      "v": 56
    },
    {
      "midi": 57,
      "hit": false,
      "t": 191524.04550000088,
      "d": 182.9265000000014,
      "v": 56
    },
    {
      "midi": 57,
      "hit": false,
      "t": 191706.972,
      "d": 22.86581250000745,
      "v": 77
    },
    {
      "midi": 53,
      "hit": false,
      "t": 191706.972,
      "d": 4390.236000000004,
      "v": 77
    },
    {
      "midi": 53,
      "hit": false,
      "t": 191706.97200000004,
      "d": 1280.4855000000098,
      "v": 113
    },
    {
      "midi": 57,
      "hit": false,
      "t": 191706.97200000004,
      "d": 1280.4855000000098,
      "v": 113
    },
    {
      "midi": 60,
      "hit": false,
      "t": 191706.97200000004,
      "d": 1280.4855000000098,
      "v": 113
    },
    {
      "midi": 53,
      "hit": false,
      "t": 191706.97200000007,
      "d": 2560.9709999999905,
      "v": 66
    },
    {
      "midi": 57,
      "hit": false,
      "t": 191706.97200000007,
      "d": 2560.9709999999905,
      "v": 66
    },
    {
      "midi": 60,
      "hit": false,
      "t": 191706.97200000007,
      "d": 2560.9709999999905,
      "v": 66
    },
    {
      "midi": 65,
      "hit": false,
      "t": 191706.97200000015,
      "d": 4390.236000000004,
      "v": 62
    },
    {
      "midi": 57,
      "hit": false,
      "t": 191706.97200000018,
      "d": 91.4632500000007,
      "v": 53
    },
    {
      "midi": 29,
      "hit": false,
      "t": 191706.97200000065,
      "d": 902.4373999999953,
      "v": 99
    },
    {
      "midi": 48,
      "hit": false,
      "t": 191706.97200000088,
      "d": 182.9265000000014,
      "v": 56
    },
    {
      "midi": 55,
      "hit": false,
      "t": 191889.89850000088,
      "d": 182.9265000000014,
      "v": 56
    },
    {
      "midi": 55,
      "hit": false,
      "t": 192072.82500000088,
      "d": 182.9265000000014,
      "v": 56
    },
    {
      "midi": 55,
      "hit": false,
      "t": 192255.7515000009,
      "d": 182.9265000000014,
      "v": 56
    },
    {
      "midi": 55,
      "hit": false,
      "t": 192438.6780000009,
      "d": 182.9265000000014,
      "v": 56
    },
    {
      "midi": 29,
      "hit": false,
      "t": 192804.53100000066,
      "d": 140.24364999998943,
      "v": 99
    },
    {
      "midi": 55,
      "hit": false,
      "t": 192804.5310000009,
      "d": 182.9265000000014,
      "v": 56
    },
    {
      "midi": 55,
      "hit": false,
      "t": 192987.4575000009,
      "d": 182.9265000000014,
      "v": 56
    },
    {
      "midi": 67,
      "hit": false,
      "t": 193170.3840000002,
      "d": 91.4632500000007,
      "v": 53
    },
    {
      "midi": 29,
      "hit": false,
      "t": 193170.38400000066,
      "d": 1253.0465250000125,
      "v": 99
    },
    {
      "midi": 48,
      "hit": false,
      "t": 193170.3840000009,
      "d": 182.9265000000014,
      "v": 56
    },
    {
      "midi": 67,
      "hit": false,
      "t": 193353.3105000002,
      "d": 91.4632500000007,
      "v": 53
    },
    {
      "midi": 55,
      "hit": false,
      "t": 193353.3105000009,
      "d": 182.9265000000014,
      "v": 56
    },
    {
      "midi": 67,
      "hit": false,
      "t": 193536.2370000002,
      "d": 91.4632500000007,
      "v": 53
    },
    {
      "midi": 55,
      "hit": false,
      "t": 193536.2370000009,
      "d": 182.9265000000014,
      "v": 56
    },
    {
      "midi": 67,
      "hit": false,
      "t": 193719.1635000002,
      "d": 91.4632500000007,
      "v": 53
    },
    {
      "midi": 55,
      "hit": false,
      "t": 193719.1635000009,
      "d": 182.9265000000014,
      "v": 56
    },
    {
      "midi": 55,
      "hit": false,
      "t": 193902.0900000009,
      "d": 182.9265000000014,
      "v": 56
    },
    {
      "midi": 53,
      "hit": false,
      "t": 194267.94300000006,
      "d": 365.8530000000028,
      "v": 65
    },
    {
      "midi": 57,
      "hit": false,
      "t": 194267.94300000006,
      "d": 365.8530000000028,
      "v": 65
    },
    {
      "midi": 60,
      "hit": false,
      "t": 194267.94300000006,
      "d": 365.8530000000028,
      "v": 65
    },
    {
      "midi": 55,
      "hit": false,
      "t": 194267.9430000009,
      "d": 182.9265000000014,
      "v": 56
    },
    {
      "midi": 55,
      "hit": false,
      "t": 194450.8695000009,
      "d": 182.9265000000014,
      "v": 56
    },
    {
      "midi": 53,
      "hit": false,
      "t": 194633.79600000006,
      "d": 1463.4120000000112,
      "v": 65
    },
    {
      "midi": 57,
      "hit": false,
      "t": 194633.79600000006,
      "d": 1463.4120000000112,
      "v": 65
    },
    {
      "midi": 60,
      "hit": false,
      "t": 194633.79600000006,
      "d": 1463.4120000000112,
      "v": 65
    },
    {
      "midi": 53,
      "hit": false,
      "t": 194633.79600000006,
      "d": 1280.4855000000098,
      "v": 113
    },
    {
      "midi": 57,
      "hit": false,
      "t": 194633.79600000006,
      "d": 1280.4855000000098,
      "v": 113
    },
    {
      "midi": 60,
      "hit": false,
      "t": 194633.79600000006,
      "d": 1280.4855000000098,
      "v": 113
    },
    {
      "midi": 67,
      "hit": false,
      "t": 194633.7960000002,
      "d": 91.4632500000007,
      "v": 53
    },
    {
      "midi": 29,
      "hit": false,
      "t": 194633.79600000067,
      "d": 917.6812750000099,
      "v": 99
    },
    {
      "midi": 48,
      "hit": false,
      "t": 194633.7960000009,
      "d": 182.9265000000014,
      "v": 56
    },
    {
      "midi": 55,
      "hit": false,
      "t": 194816.7225000009,
      "d": 182.9265000000014,
      "v": 56
    },
    {
      "midi": 67,
      "hit": false,
      "t": 194999.6490000002,
      "d": 91.4632500000007,
      "v": 53
    },
    {
      "midi": 55,
      "hit": false,
      "t": 194999.6490000009,
      "d": 182.9265000000014,
      "v": 56
    },
    {
      "midi": 55,
      "hit": false,
      "t": 195182.5755000009,
      "d": 182.9265000000014,
      "v": 56
    },
    {
      "midi": 67,
      "hit": false,
      "t": 195365.5020000002,
      "d": 91.4632500000007,
      "v": 53
    },
    {
      "midi": 55,
      "hit": false,
      "t": 195365.5020000009,
      "d": 182.9265000000014,
      "v": 56
    },
    {
      "midi": 67,
      "hit": false,
      "t": 195548.42850000007,
      "d": 182.9265000000014,
      "v": 95
    },
    {
      "midi": 29,
      "hit": false,
      "t": 195731.35500000068,
      "d": 300.3043375000125,
      "v": 99
    },
    {
      "midi": 55,
      "hit": false,
      "t": 195731.3550000009,
      "d": 182.9265000000014,
      "v": 56
    },
    {
      "midi": 67,
      "hit": false,
      "t": 195914.28150000007,
      "d": 182.9265000000014,
      "v": 95
    },
    {
      "midi": 55,
      "hit": false,
      "t": 195914.2815000009,
      "d": 182.9265000000014,
      "v": 56
    },
    {
      "midi": 55,
      "hit": false,
      "t": 196097.208,
      "d": 1463.4120000000112,
      "v": 77
    },
    {
      "midi": 59,
      "hit": false,
      "t": 196097.208,
      "d": 1463.4120000000112,
      "v": 76
    },
    {
      "midi": 62,
      "hit": false,
      "t": 196097.208,
      "d": 1463.4120000000112,
      "v": 76
    },
    {
      "midi": 67,
      "hit": false,
      "t": 196097.20800000007,
      "d": 2926.8239999999932,
      "v": 87
    },
    {
      "midi": 55,
      "hit": false,
      "t": 196097.20800000007,
      "d": 1463.4120000000112,
      "v": 65
    },
    {
      "midi": 59,
      "hit": false,
      "t": 196097.20800000007,
      "d": 1463.4120000000112,
      "v": 65
    },
    {
      "midi": 62,
      "hit": false,
      "t": 196097.20800000007,
      "d": 1463.4120000000112,
      "v": 65
    },
    {
      "midi": 55,
      "hit": false,
      "t": 196097.20800000007,
      "d": 1463.4120000000112,
      "v": 107
    },
    {
      "midi": 59,
      "hit": false,
      "t": 196097.20800000007,
      "d": 1463.4120000000112,
      "v": 107
    },
    {
      "midi": 62,
      "hit": false,
      "t": 196097.20800000007,
      "d": 1463.4120000000112,
      "v": 107
    },
    {
      "midi": 62,
      "hit": false,
      "t": 196097.20800000016,
      "d": 1463.4120000000112,
      "v": 61
    },
    {
      "midi": 67,
      "hit": false,
      "t": 196097.20800000016,
      "d": 1463.4120000000112,
      "v": 61
    },
    {
      "midi": 71,
      "hit": false,
      "t": 196097.20800000016,
      "d": 1463.4120000000112,
      "v": 61
    },
    {
      "midi": 67,
      "hit": false,
      "t": 196097.20800000022,
      "d": 91.4632500000007,
      "v": 53
    },
    {
      "midi": 31,
      "hit": false,
      "t": 196097.20800000068,
      "d": 917.6812750000099,
      "v": 99
    },
    {
      "midi": 48,
      "hit": false,
      "t": 196097.20800000092,
      "d": 182.9265000000014,
      "v": 56
    },
    {
      "midi": 67,
      "hit": false,
      "t": 196280.13450000007,
      "d": 182.9265000000014,
      "v": 99
    },
    {
      "midi": 67,
      "hit": false,
      "t": 196280.13450000022,
      "d": 91.4632500000007,
      "v": 53
    },
    {
      "midi": 55,
      "hit": false,
      "t": 196280.13450000092,
      "d": 182.9265000000014,
      "v": 56
    },
    {
      "midi": 55,
      "hit": false,
      "t": 196463.06100000092,
      "d": 182.9265000000014,
      "v": 56
    },
    {
      "midi": 67,
      "hit": false,
      "t": 196645.98750000008,
      "d": 182.9265000000014,
      "v": 102
    },
    {
      "midi": 55,
      "hit": false,
      "t": 196645.98750000092,
      "d": 182.9265000000014,
      "v": 56
    },
    {
      "midi": 67,
      "hit": false,
      "t": 196828.91400000008,
      "d": 182.9265000000014,
      "v": 106
    },
    {
      "midi": 55,
      "hit": false,
      "t": 196828.91400000092,
      "d": 365.8530000000028,
      "v": 56
    },
    {
      "midi": 31,
      "hit": false,
      "t": 197194.7670000007,
      "d": 300.3043375000125,
      "v": 99
    },
    {
      "midi": 48,
      "hit": false,
      "t": 197194.76700000092,
      "d": 182.9265000000014,
      "v": 56
    },
    {
      "midi": 55,
      "hit": false,
      "t": 197377.69350000093,
      "d": 182.9265000000014,
      "v": 56
    },
    {
      "midi": 48,
      "hit": false,
      "t": 197560.62000000008,
      "d": 1463.4120000000112,
      "v": 69
    },
    {
      "midi": 53,
      "hit": false,
      "t": 197560.62000000008,
      "d": 1463.4120000000112,
      "v": 69
    },
    {
      "midi": 57,
      "hit": false,
      "t": 197560.62000000008,
      "d": 1463.4120000000112,
      "v": 69
    },
    {
      "midi": 60,
      "hit": false,
      "t": 197560.62000000008,
      "d": 1463.4120000000112,
      "v": 69
    },
    {
      "midi": 65,
      "hit": false,
      "t": 197560.62000000008,
      "d": 1463.4120000000112,
      "v": 69
    },
    {
      "midi": 57,
      "hit": false,
      "t": 197560.62000000017,
      "d": 1463.4120000000112,
      "v": 64
    },
    {
      "midi": 65,
      "hit": false,
      "t": 197560.62000000017,
      "d": 1463.4120000000112,
      "v": 64
    },
    {
      "midi": 62,
      "hit": false,
      "t": 197560.62000000017,
      "d": 2926.8240000000224,
      "v": 64
    },
    {
      "midi": 57,
      "hit": false,
      "t": 197560.62000000023,
      "d": 91.4632500000007,
      "v": 53
    },
    {
      "midi": 29,
      "hit": false,
      "t": 197560.6200000007,
      "d": 914.632500000007,
      "v": 99
    },
    {
      "midi": 50,
      "hit": false,
      "t": 197560.62000000093,
      "d": 182.9265000000014,
      "v": 56
    },
    {
      "midi": 53,
      "hit": false,
      "t": 197743.54650000093,
      "d": 182.9265000000014,
      "v": 56
    },
    {
      "midi": 53,
      "hit": false,
      "t": 197926.47300000093,
      "d": 182.9265000000014,
      "v": 56
    },
    {
      "midi": 53,
      "hit": false,
      "t": 198109.39950000093,
      "d": 182.9265000000014,
      "v": 56
    },
    {
      "midi": 53,
      "hit": false,
      "t": 198292.32600000093,
      "d": 182.9265000000014,
      "v": 56
    },
    {
      "midi": 29,
      "hit": false,
      "t": 198658.1790000007,
      "d": 274.3897500000021,
      "v": 99
    },
    {
      "midi": 53,
      "hit": false,
      "t": 198658.17900000094,
      "d": 182.9265000000014,
      "v": 56
    },
    {
      "midi": 53,
      "hit": false,
      "t": 198841.10550000094,
      "d": 182.9265000000014,
      "v": 56
    },
    {
      "midi": 50,
      "hit": false,
      "t": 199024.0320000001,
      "d": 1463.4120000000112,
      "v": 64
    },
    {
      "midi": 59,
      "hit": false,
      "t": 199024.0320000001,
      "d": 1463.4120000000112,
      "v": 64
    },
    {
      "midi": 55,
      "hit": false,
      "t": 199024.0320000001,
      "d": 2926.8240000000224,
      "v": 64
    },
    {
      "midi": 67,
      "hit": false,
      "t": 199024.0320000001,
      "d": 2926.8240000000224,
      "v": 69
    },
    {
      "midi": 59,
      "hit": false,
      "t": 199024.03200000018,
      "d": 1463.4120000000112,
      "v": 64
    },
    {
      "midi": 67,
      "hit": false,
      "t": 199024.03200000018,
      "d": 2926.8240000000224,
      "v": 64
    },
    {
      "midi": 59,
      "hit": false,
      "t": 199024.03200000024,
      "d": 91.4632500000007,
      "v": 53
    },
    {
      "midi": 31,
      "hit": false,
      "t": 199024.0320000007,
      "d": 548.7795000000042,
      "v": 99
    },
    {
      "midi": 52,
      "hit": false,
      "t": 199024.03200000094,
      "d": 182.9265000000014,
      "v": 56
    },
    {
      "midi": 55,
      "hit": false,
      "t": 199206.95850000094,
      "d": 182.9265000000014,
      "v": 56
    },
    {
      "midi": 55,
      "hit": false,
      "t": 199389.88500000094,
      "d": 182.9265000000014,
      "v": 56
    },
    {
      "midi": 31,
      "hit": false,
      "t": 199572.8115000007,
      "d": 182.9265000000014,
      "v": 99
    },
    {
      "midi": 55,
      "hit": false,
      "t": 199572.81150000094,
      "d": 182.9265000000014,
      "v": 56
    },
    {
      "midi": 36,
      "hit": false,
      "t": 199755.7380000007,
      "d": 182.9265000000014,
      "v": 99
    },
    {
      "midi": 55,
      "hit": false,
      "t": 199755.73800000094,
      "d": 182.9265000000014,
      "v": 56
    },
    {
      "midi": 31,
      "hit": false,
      "t": 199938.6645000007,
      "d": 182.9265000000014,
      "v": 99
    },
    {
      "midi": 33,
      "hit": false,
      "t": 200121.5910000007,
      "d": 182.9265000000014,
      "v": 99
    },
    {
      "midi": 55,
      "hit": false,
      "t": 200121.59100000095,
      "d": 182.9265000000014,
      "v": 56
    },
    {
      "midi": 35,
      "hit": false,
      "t": 200304.51750000071,
      "d": 182.9265000000014,
      "v": 99
    },
    {
      "midi": 55,
      "hit": false,
      "t": 200304.51750000095,
      "d": 182.9265000000014,
      "v": 56
    },
    {
      "midi": 52,
      "hit": false,
      "t": 200487.4440000001,
      "d": 2926.8240000000224,
      "v": 64
    },
    {
      "midi": 60,
      "hit": false,
      "t": 200487.4440000001,
      "d": 2926.8240000000224,
      "v": 64
    },
    {
      "midi": 64,
      "hit": false,
      "t": 200487.4440000002,
      "d": 2926.8240000000224,
      "v": 63
    },
    {
      "midi": 60,
      "hit": false,
      "t": 200487.4440000002,
      "d": 4390.2360000000335,
      "v": 63
    },
    {
      "midi": 64,
      "hit": false,
      "t": 200487.44400000025,
      "d": 91.4632500000007,
      "v": 53
    },
    {
      "midi": 36,
      "hit": false,
      "t": 200487.44400000072,
      "d": 914.632500000007,
      "v": 99
    },
    {
      "midi": 48,
      "hit": false,
      "t": 200487.44400000095,
      "d": 182.9265000000014,
      "v": 56
    },
    {
      "midi": 55,
      "hit": false,
      "t": 200670.37050000095,
      "d": 182.9265000000014,
      "v": 56
    },
    {
      "midi": 55,
      "hit": false,
      "t": 200853.29700000095,
      "d": 182.9265000000014,
      "v": 56
    },
    {
      "midi": 55,
      "hit": false,
      "t": 201036.22350000095,
      "d": 182.9265000000014,
      "v": 56
    },
    {
      "midi": 60,
      "hit": false,
      "t": 201219.15000000026,
      "d": 91.4632500000007,
      "v": 53
    },
    {
      "midi": 67,
      "hit": false,
      "t": 201219.15000000026,
      "d": 91.4632500000007,
      "v": 53
    },
    {
      "midi": 55,
      "hit": false,
      "t": 201219.15000000095,
      "d": 182.9265000000014,
      "v": 56
    },
    {
      "midi": 36,
      "hit": false,
      "t": 201585.00300000072,
      "d": 365.8530000000319,
      "v": 99
    },
    {
      "midi": 55,
      "hit": false,
      "t": 201585.00300000096,
      "d": 182.9265000000014,
      "v": 56
    },
    {
      "midi": 55,
      "hit": false,
      "t": 201767.92950000096,
      "d": 182.9265000000014,
      "v": 56
    },
    {
      "midi": 57,
      "hit": false,
      "t": 201950.85600000012,
      "d": 1463.4120000000112,
      "v": 63
    },
    {
      "midi": 64,
      "hit": false,
      "t": 201950.85600000012,
      "d": 1463.4120000000112,
      "v": 54
    },
    {
      "midi": 69,
      "hit": false,
      "t": 201950.8560000002,
      "d": 2926.8240000000224,
      "v": 63
    },
    {
      "midi": 60,
      "hit": false,
      "t": 201950.85600000026,
      "d": 91.4632500000007,
      "v": 53
    },
    {
      "midi": 69,
      "hit": false,
      "t": 201950.85600000026,
      "d": 91.4632500000007,
      "v": 53
    },
    {
      "midi": 33,
      "hit": false,
      "t": 201950.85600000076,
      "d": 914.632500000007,
      "v": 99
    },
    {
      "midi": 52,
      "hit": false,
      "t": 201950.85600000096,
      "d": 182.9265000000014,
      "v": 56
    },
    {
      "midi": 55,
      "hit": false,
      "t": 202133.78250000096,
      "d": 182.9265000000014,
      "v": 56
    },
    {
      "midi": 55,
      "hit": false,
      "t": 202316.70900000096,
      "d": 182.9265000000014,
      "v": 56
    },
    {
      "midi": 55,
      "hit": false,
      "t": 202499.63550000096,
      "d": 182.9265000000014,
      "v": 56
    },
    {
      "midi": 60,
      "hit": false,
      "t": 202682.56200000027,
      "d": 91.4632500000007,
      "v": 53
    },
    {
      "midi": 67,
      "hit": false,
      "t": 202682.56200000027,
      "d": 91.4632500000007,
      "v": 53
    },
    {
      "midi": 55,
      "hit": false,
      "t": 202682.56200000097,
      "d": 182.9265000000014,
      "v": 56
    },
    {
      "midi": 33,
      "hit": false,
      "t": 202865.48850000076,
      "d": 182.9265000000014,
      "v": 99
    },
    {
      "midi": 67,
      "hit": false,
      "t": 203048.41500000027,
      "d": 91.4632500000007,
      "v": 53
    },
    {
      "midi": 31,
      "hit": false,
      "t": 203048.41500000076,
      "d": 365.8530000000028,
      "v": 99
    },
    {
      "midi": 55,
      "hit": false,
      "t": 203048.41500000097,
      "d": 182.9265000000014,
      "v": 56
    },
    {
      "midi": 55,
      "hit": false,
      "t": 203231.34150000097,
      "d": 182.9265000000014,
      "v": 56
    },
    {
      "midi": 48,
      "hit": false,
      "t": 203414.26800000013,
      "d": 1463.4120000000112,
      "v": 63
    },
    {
      "midi": 53,
      "hit": false,
      "t": 203414.26800000013,
      "d": 1463.4120000000112,
      "v": 63
    },
    {
      "midi": 57,
      "hit": false,
      "t": 203414.26800000013,
      "d": 1463.4120000000112,
      "v": 63
    },
    {
      "midi": 65,
      "hit": false,
      "t": 203414.26800000013,
      "d": 2926.8240000000224,
      "v": 54
    },
    {
      "midi": 65,
      "hit": false,
      "t": 203414.26800000021,
      "d": 1463.4120000000112,
      "v": 63
    },
    {
      "midi": 57,
      "hit": false,
      "t": 203414.26800000027,
      "d": 91.4632500000007,
      "v": 53
    },
    {
      "midi": 65,
      "hit": false,
      "t": 203414.26800000027,
      "d": 91.4632500000007,
      "v": 53
    },
    {
      "midi": 29,
      "hit": false,
      "t": 203414.26800000077,
      "d": 914.632500000007,
      "v": 99
    },
    {
      "midi": 53,
      "hit": false,
      "t": 203414.26800000097,
      "d": 182.9265000000014,
      "v": 56
    },
    {
      "midi": 55,
      "hit": false,
      "t": 203597.19450000097,
      "d": 182.9265000000014,
      "v": 56
    },
    {
      "midi": 55,
      "hit": false,
      "t": 203780.12100000097,
      "d": 182.9265000000014,
      "v": 56
    },
    {
      "midi": 55,
      "hit": false,
      "t": 203963.04750000098,
      "d": 182.9265000000014,
      "v": 56
    },
    {
      "midi": 55,
      "hit": false,
      "t": 204145.97400000098,
      "d": 182.9265000000014,
      "v": 56
    },
    {
      "midi": 29,
      "hit": false,
      "t": 204511.82700000078,
      "d": 365.8530000000028,
      "v": 99
    },
    {
      "midi": 55,
      "hit": false,
      "t": 204511.82700000098,
      "d": 182.9265000000014,
      "v": 56
    },
    {
      "midi": 55,
      "hit": false,
      "t": 204694.75350000098,
      "d": 182.9265000000014,
      "v": 56
    },
    {
      "midi": 50,
      "hit": false,
      "t": 204877.68000000014,
      "d": 1463.4120000000112,
      "v": 63
    },
    {
      "midi": 59,
      "hit": false,
      "t": 204877.68000000014,
      "d": 1463.4120000000112,
      "v": 63
    },
    {
      "midi": 55,
      "hit": false,
      "t": 204877.68000000014,
      "d": 2926.8240000000224,
      "v": 63
    },
    {
      "midi": 62,
      "hit": false,
      "t": 204877.68000000023,
      "d": 1463.4120000000112,
      "v": 63
    },
    {
      "midi": 67,
      "hit": false,
      "t": 204877.68000000023,
      "d": 1463.4120000000112,
      "v": 63
    },
    {
      "midi": 71,
      "hit": false,
      "t": 204877.68000000023,
      "d": 1463.4120000000112,
      "v": 63
    },
    {
      "midi": 59,
      "hit": false,
      "t": 204877.68000000028,
      "d": 91.4632500000007,
      "v": 53
    },
    {
      "midi": 31,
      "hit": false,
      "t": 204877.68000000078,
      "d": 914.632500000007,
      "v": 99
    },
    {
      "midi": 50,
      "hit": false,
      "t": 204877.68000000098,
      "d": 182.9265000000014,
      "v": 56
    },
    {
      "midi": 55,
      "hit": false,
      "t": 205060.60650000098,
      "d": 182.9265000000014,
      "v": 56
    },
    {
      "midi": 55,
      "hit": false,
      "t": 205243.53300000099,
      "d": 182.9265000000014,
      "v": 56
    },
    {
      "midi": 55,
      "hit": false,
      "t": 205426.459500001,
      "d": 182.9265000000014,
      "v": 56
    },
    {
      "midi": 55,
      "hit": false,
      "t": 205609.386000001,
      "d": 182.9265000000014,
      "v": 56
    },
    {
      "midi": 31,
      "hit": false,
      "t": 205975.2390000008,
      "d": 182.9265000000014,
      "v": 99
    },
    {
      "midi": 55,
      "hit": false,
      "t": 205975.239000001,
      "d": 182.9265000000014,
      "v": 56
    },
    {
      "midi": 33,
      "hit": false,
      "t": 206158.1655000008,
      "d": 182.9265000000014,
      "v": 99
    },
    {
      "midi": 55,
      "hit": false,
      "t": 206158.165500001,
      "d": 182.9265000000014,
      "v": 56
    },
    {
      "midi": 52,
      "hit": false,
      "t": 206341.09200000015,
      "d": 2926.8240000000224,
      "v": 62
    },
    {
      "midi": 60,
      "hit": false,
      "t": 206341.09200000015,
      "d": 2926.8240000000224,
      "v": 62
    },
    {
      "midi": 64,
      "hit": false,
      "t": 206341.09200000015,
      "d": 2926.8240000000224,
      "v": 63
    },
    {
      "midi": 67,
      "hit": false,
      "t": 206341.09200000024,
      "d": 1463.4120000000112,
      "v": 63
    },
    {
      "midi": 64,
      "hit": false,
      "t": 206341.09200000024,
      "d": 2926.8240000000224,
      "v": 63
    },
    {
      "midi": 60,
      "hit": false,
      "t": 206341.09200000024,
      "d": 4390.2360000000335,
      "v": 63
    },
    {
      "midi": 60,
      "hit": false,
      "t": 206341.0920000003,
      "d": 91.4632500000007,
      "v": 53
    },
    {
      "midi": 64,
      "hit": false,
      "t": 206341.0920000003,
      "d": 91.4632500000007,
      "v": 53
    },
    {
      "midi": 36,
      "hit": false,
      "t": 206341.0920000008,
      "d": 731.7060000000056,
      "v": 99
    },
    {
      "midi": 48,
      "hit": false,
      "t": 206341.092000001,
      "d": 182.9265000000014,
      "v": 56
    },
    {
      "midi": 55,
      "hit": false,
      "t": 206524.018500001,
      "d": 182.9265000000014,
      "v": 56
    },
    {
      "midi": 55,
      "hit": false,
      "t": 206706.945000001,
      "d": 182.9265000000014,
      "v": 56
    },
    {
      "midi": 55,
      "hit": false,
      "t": 206889.871500001,
      "d": 182.9265000000014,
      "v": 56
    },
    {
      "midi": 60,
      "hit": false,
      "t": 207072.7980000003,
      "d": 91.4632500000007,
      "v": 53
    },
    {
      "midi": 67,
      "hit": false,
      "t": 207072.7980000003,
      "d": 91.4632500000007,
      "v": 53
    },
    {
      "midi": 55,
      "hit": false,
      "t": 207072.798000001,
      "d": 182.9265000000014,
      "v": 56
    },
    {
      "midi": 36,
      "hit": false,
      "t": 207255.7245000008,
      "d": 182.9265000000014,
      "v": 99
    },
    {
      "midi": 30,
      "hit": false,
      "t": 207438.6510000008,
      "d": 182.9265000000014,
      "v": 99
    },
    {
      "midi": 55,
      "hit": false,
      "t": 207438.651000001,
      "d": 182.9265000000014,
      "v": 56
    },
    {
      "midi": 31,
      "hit": false,
      "t": 207621.5775000008,
      "d": 182.9265000000014,
      "v": 99
    },
    {
      "midi": 55,
      "hit": false,
      "t": 207621.577500001,
      "d": 182.9265000000014,
      "v": 56
    },
    {
      "midi": 57,
      "hit": false,
      "t": 207804.50400000016,
      "d": 1463.4120000000112,
      "v": 62
    },
    {
      "midi": 69,
      "hit": false,
      "t": 207804.50400000025,
      "d": 2926.8240000000224,
      "v": 63
    },
    {
      "midi": 60,
      "hit": false,
      "t": 207804.5040000003,
      "d": 91.4632500000007,
      "v": 53
    },
    {
      "midi": 69,
      "hit": false,
      "t": 207804.5040000003,
      "d": 91.4632500000007,
      "v": 53
    },
    {
      "midi": 33,
      "hit": false,
      "t": 207804.5040000008,
      "d": 731.7060000000056,
      "v": 99
    },
    {
      "midi": 48,
      "hit": false,
      "t": 207804.504000001,
      "d": 182.9265000000014,
      "v": 56
    },
    {
      "midi": 57,
      "hit": false,
      "t": 207987.430500001,
      "d": 182.9265000000014,
      "v": 56
    },
    {
      "midi": 57,
      "hit": false,
      "t": 208170.357000001,
      "d": 182.9265000000014,
      "v": 56
    },
    {
      "midi": 69,
      "hit": false,
      "t": 208353.2835000003,
      "d": 91.4632500000007,
      "v": 53
    },
    {
      "midi": 57,
      "hit": false,
      "t": 208353.283500001,
      "d": 182.9265000000014,
      "v": 56
    },
    {
      "midi": 64,
      "hit": false,
      "t": 208536.2100000003,
      "d": 182.9265000000014,
      "v": 53
    },
    {
      "midi": 31,
      "hit": false,
      "t": 208536.2100000008,
      "d": 731.7060000000056,
      "v": 99
    },
    {
      "midi": 57,
      "hit": false,
      "t": 208536.210000001,
      "d": 182.9265000000014,
      "v": 56
    },
    {
      "midi": 62,
      "hit": false,
      "t": 208902.06300000031,
      "d": 182.9265000000014,
      "v": 53
    },
    {
      "midi": 57,
      "hit": false,
      "t": 208902.063000001,
      "d": 182.9265000000014,
      "v": 56
    },
    {
      "midi": 57,
      "hit": false,
      "t": 209084.98950000101,
      "d": 182.9265000000014,
      "v": 56
    },
    {
      "midi": 48,
      "hit": false,
      "t": 209267.91600000017,
      "d": 1463.4120000000112,
      "v": 67
    },
    {
      "midi": 53,
      "hit": false,
      "t": 209267.91600000017,
      "d": 1463.4120000000112,
      "v": 67
    },
    {
      "midi": 57,
      "hit": false,
      "t": 209267.91600000017,
      "d": 1463.4120000000112,
      "v": 67
    },
    {
      "midi": 65,
      "hit": false,
      "t": 209267.91600000026,
      "d": 1463.4120000000112,
      "v": 62
    },
    {
      "midi": 60,
      "hit": false,
      "t": 209267.91600000032,
      "d": 182.9265000000014,
      "v": 53
    },
    {
      "midi": 29,
      "hit": false,
      "t": 209267.9160000008,
      "d": 914.632500000007,
      "v": 99
    },
    {
      "midi": 48,
      "hit": false,
      "t": 209267.91600000102,
      "d": 182.9265000000014,
      "v": 56
    },
    {
      "midi": 55,
      "hit": false,
      "t": 209450.84250000102,
      "d": 182.9265000000014,
      "v": 56
    },
    {
      "midi": 55,
      "hit": false,
      "t": 209633.76900000102,
      "d": 182.9265000000014,
      "v": 56
    },
    {
      "midi": 55,
      "hit": false,
      "t": 209816.69550000102,
      "d": 182.9265000000014,
      "v": 56
    },
    {
      "midi": 55,
      "hit": false,
      "t": 209999.62200000102,
      "d": 182.9265000000014,
      "v": 56
    },
    {
      "midi": 29,
      "hit": false,
      "t": 210365.47500000082,
      "d": 365.8530000000028,
      "v": 99
    },
    {
      "midi": 55,
      "hit": false,
      "t": 210365.47500000102,
      "d": 182.9265000000014,
      "v": 56
    },
    {
      "midi": 55,
      "hit": false,
      "t": 210548.40150000103,
      "d": 182.9265000000014,
      "v": 56
    },
    {
      "midi": 50,
      "hit": false,
      "t": 210731.32800000018,
      "d": 1463.4120000000112,
      "v": 67
    },
    {
      "midi": 59,
      "hit": false,
      "t": 210731.32800000018,
      "d": 1463.4120000000112,
      "v": 67
    },
    {
      "midi": 55,
      "hit": false,
      "t": 210731.32800000018,
      "d": 2926.8240000000224,
      "v": 67
    },
    {
      "midi": 62,
      "hit": false,
      "t": 210731.32800000027,
      "d": 1463.4120000000112,
      "v": 62
    },
    {
      "midi": 67,
      "hit": false,
      "t": 210731.32800000027,
      "d": 1463.4120000000112,
      "v": 62
    },
    {
      "midi": 71,
      "hit": false,
      "t": 210731.32800000027,
      "d": 1463.4120000000112,
      "v": 62
    },
    {
      "midi": 59,
      "hit": false,
      "t": 210731.32800000033,
      "d": 91.4632500000007,
      "v": 53
    },
    {
      "midi": 31,
      "hit": false,
      "t": 210731.32800000082,
      "d": 876.522812500014,
      "v": 99
    },
    {
      "midi": 48,
      "hit": false,
      "t": 210731.32800000103,
      "d": 182.9265000000014,
      "v": 56
    },
    {
      "midi": 55,
      "hit": false,
      "t": 210914.25450000103,
      "d": 182.9265000000014,
      "v": 56
    },
    {
      "midi": 55,
      "hit": false,
      "t": 211097.18100000103,
      "d": 182.9265000000014,
      "v": 56
    },
    {
      "midi": 55,
      "hit": false,
      "t": 211280.10750000103,
      "d": 182.9265000000014,
      "v": 56
    },
    {
      "midi": 55,
      "hit": false,
      "t": 211463.03400000103,
      "d": 182.9265000000014,
      "v": 56
    },
    {
      "midi": 55,
      "hit": false,
      "t": 211806.02118750004,
      "d": 76.21937500001513,
      "v": 85
    },
    {
      "midi": 53,
      "hit": false,
      "t": 211828.88700000005,
      "d": 304.8775000000023,
      "v": 78
    },
    {
      "midi": 57,
      "hit": false,
      "t": 211828.88700000005,
      "d": 376.5237124999985,
      "v": 78
    },
    {
      "midi": 60,
      "hit": false,
      "t": 211828.88700000005,
      "d": 7682.9130000000005,
      "v": 89
    },
    {
      "midi": 31,
      "hit": false,
      "t": 211828.88700000083,
      "d": 365.8530000000028,
      "v": 99
    },
    {
      "midi": 55,
      "hit": false,
      "t": 211828.88700000104,
      "d": 182.9265000000014,
      "v": 56
    },
    {
      "midi": 55,
      "hit": false,
      "t": 212011.81350000104,
      "d": 182.9265000000014,
      "v": 56
    },
    {
      "midi": 55,
      "hit": false,
      "t": 212194.74000000005,
      "d": 1486.2778124999895,
      "v": 78
    },
    {
      "midi": 52,
      "hit": false,
      "t": 212194.74000000005,
      "d": 2926.8239999999932,
      "v": 78
    },
    {
      "midi": 52,
      "hit": false,
      "t": 212194.7400000002,
      "d": 2926.8240000000224,
      "v": 66
    },
    {
      "midi": 60,
      "hit": false,
      "t": 212194.7400000002,
      "d": 2926.8240000000224,
      "v": 66
    },
    {
      "midi": 67,
      "hit": false,
      "t": 212194.74000000028,
      "d": 1463.4120000000112,
      "v": 62
    },
    {
      "midi": 64,
      "hit": false,
      "t": 212194.74000000028,
      "d": 2926.8240000000224,
      "v": 62
    },
    {
      "midi": 60,
      "hit": false,
      "t": 212194.74000000028,
      "d": 7317.060000000027,
      "v": 62
    },
    {
      "midi": 64,
      "hit": false,
      "t": 212194.74000000034,
      "d": 91.4632500000007,
      "v": 53
    },
    {
      "midi": 36,
      "hit": false,
      "t": 212194.74000000083,
      "d": 914.632500000007,
      "v": 99
    },
    {
      "midi": 48,
      "hit": false,
      "t": 212194.74000000104,
      "d": 182.9265000000014,
      "v": 56
    },
    {
      "midi": 55,
      "hit": false,
      "t": 212377.66650000104,
      "d": 182.9265000000014,
      "v": 56
    },
    {
      "midi": 55,
      "hit": false,
      "t": 212560.59300000104,
      "d": 182.9265000000014,
      "v": 56
    },
    {
      "midi": 55,
      "hit": false,
      "t": 212743.51950000104,
      "d": 182.9265000000014,
      "v": 56
    },
    {
      "midi": 60,
      "hit": false,
      "t": 212926.44600000035,
      "d": 91.4632500000007,
      "v": 53
    },
    {
      "midi": 67,
      "hit": false,
      "t": 212926.44600000035,
      "d": 91.4632500000007,
      "v": 53
    },
    {
      "midi": 55,
      "hit": false,
      "t": 212926.44600000104,
      "d": 182.9265000000014,
      "v": 56
    },
    {
      "midi": 36,
      "hit": false,
      "t": 213109.37250000084,
      "d": 182.9265000000014,
      "v": 99
    },
    {
      "midi": 40,
      "hit": false,
      "t": 213292.29900000084,
      "d": 365.8530000000028,
      "v": 99
    },
    {
      "midi": 55,
      "hit": false,
      "t": 213292.29900000105,
      "d": 182.9265000000014,
      "v": 56
    },
    {
      "midi": 55,
      "hit": false,
      "t": 213475.22550000105,
      "d": 182.9265000000014,
      "v": 56
    },
    {
      "midi": 57,
      "hit": false,
      "t": 213658.1520000002,
      "d": 1463.4120000000112,
      "v": 66
    },
    {
      "midi": 69,
      "hit": false,
      "t": 213658.1520000003,
      "d": 5853.648000000016,
      "v": 62
    },
    {
      "midi": 60,
      "hit": false,
      "t": 213658.15200000035,
      "d": 91.4632500000007,
      "v": 53
    },
    {
      "midi": 69,
      "hit": false,
      "t": 213658.15200000035,
      "d": 91.4632500000007,
      "v": 53
    },
    {
      "midi": 33,
      "hit": false,
      "t": 213658.15200000085,
      "d": 1374.9975250000425,
      "v": 99
    },
    {
      "midi": 48,
      "hit": false,
      "t": 213658.15200000105,
      "d": 182.9265000000014,
      "v": 56
    },
    {
      "midi": 57,
      "hit": false,
      "t": 213841.07850000105,
      "d": 182.9265000000014,
      "v": 56
    },
    {
      "midi": 57,
      "hit": false,
      "t": 214024.00500000105,
      "d": 182.9265000000014,
      "v": 56
    },
    {
      "midi": 57,
      "hit": false,
      "t": 214206.93150000105,
      "d": 182.9265000000014,
      "v": 56
    },
    {
      "midi": 60,
      "hit": false,
      "t": 214389.85800000036,
      "d": 91.4632500000007,
      "v": 53
    },
    {
      "midi": 67,
      "hit": false,
      "t": 214389.85800000036,
      "d": 91.4632500000007,
      "v": 53
    },
    {
      "midi": 57,
      "hit": false,
      "t": 214389.85800000106,
      "d": 182.9265000000014,
      "v": 56
    },
    {
      "midi": 62,
      "hit": false,
      "t": 214755.7110000001,
      "d": 304.8775000000023,
      "v": 116
    },
    {
      "midi": 55,
      "hit": false,
      "t": 214755.7110000001,
      "d": 330.7920875000127,
      "v": 116
    },
    {
      "midi": 59,
      "hit": false,
      "t": 214755.7110000001,
      "d": 330.7920875000127,
      "v": 116
    },
    {
      "midi": 57,
      "hit": false,
      "t": 214755.71100000106,
      "d": 182.9265000000014,
      "v": 56
    },
    {
      "midi": 57,
      "hit": false,
      "t": 214938.63750000106,
      "d": 182.9265000000014,
      "v": 56
    },
    {
      "midi": 57,
      "hit": false,
      "t": 215121.56400000004,
      "d": 22.86581250000745,
      "v": 77
    },
    {
      "midi": 53,
      "hit": false,
      "t": 215121.56400000004,
      "d": 4390.236000000004,
      "v": 77
    },
    {
      "midi": 53,
      "hit": false,
      "t": 215121.5640000001,
      "d": 1280.4855000000098,
      "v": 113
    },
    {
      "midi": 57,
      "hit": false,
      "t": 215121.5640000001,
      "d": 1280.4855000000098,
      "v": 113
    },
    {
      "midi": 60,
      "hit": false,
      "t": 215121.5640000001,
      "d": 1280.4855000000098,
      "v": 113
    },
    {
      "midi": 53,
      "hit": false,
      "t": 215121.56400000022,
      "d": 2560.9709999999905,
      "v": 66
    },
    {
      "midi": 57,
      "hit": false,
      "t": 215121.56400000022,
      "d": 2560.9709999999905,
      "v": 66
    },
    {
      "midi": 60,
      "hit": false,
      "t": 215121.56400000022,
      "d": 2560.9709999999905,
      "v": 66
    },
    {
      "midi": 65,
      "hit": false,
      "t": 215121.5640000003,
      "d": 4390.236000000004,
      "v": 62
    },
    {
      "midi": 57,
      "hit": false,
      "t": 215121.56400000036,
      "d": 91.4632500000007,
      "v": 53
    },
    {
      "midi": 29,
      "hit": false,
      "t": 215121.56400000092,
      "d": 902.4373999999953,
      "v": 99
    },
    {
      "midi": 48,
      "hit": false,
      "t": 215121.56400000106,
      "d": 182.9265000000014,
      "v": 56
    },
    {
      "midi": 55,
      "hit": false,
      "t": 215304.49050000106,
      "d": 182.9265000000014,
      "v": 56
    },
    {
      "midi": 55,
      "hit": false,
      "t": 215487.41700000106,
      "d": 182.9265000000014,
      "v": 56
    },
    {
      "midi": 55,
      "hit": false,
      "t": 215670.34350000106,
      "d": 182.9265000000014,
      "v": 56
    },
    {
      "midi": 55,
      "hit": false,
      "t": 215853.27000000107,
      "d": 182.9265000000014,
      "v": 56
    },
    {
      "midi": 29,
      "hit": false,
      "t": 216219.12300000092,
      "d": 140.24364999998943,
      "v": 99
    },
    {
      "midi": 55,
      "hit": false,
      "t": 216219.12300000107,
      "d": 182.9265000000014,
      "v": 56
    },
    {
      "midi": 55,
      "hit": false,
      "t": 216402.04950000107,
      "d": 182.9265000000014,
      "v": 56
    },
    {
      "midi": 67,
      "hit": false,
      "t": 216584.97600000037,
      "d": 91.4632500000007,
      "v": 53
    },
    {
      "midi": 29,
      "hit": false,
      "t": 216584.97600000093,
      "d": 1253.0465250000125,
      "v": 99
    },
    {
      "midi": 48,
      "hit": false,
      "t": 216584.97600000107,
      "d": 182.9265000000014,
      "v": 56
    },
    {
      "midi": 67,
      "hit": false,
      "t": 216767.90250000037,
      "d": 91.4632500000007,
      "v": 53
    },
    {
      "midi": 55,
      "hit": false,
      "t": 216767.90250000107,
      "d": 182.9265000000014,
      "v": 56
    },
    {
      "midi": 67,
      "hit": false,
      "t": 216950.82900000038,
      "d": 91.4632500000007,
      "v": 53
    },
    {
      "midi": 55,
      "hit": false,
      "t": 216950.82900000107,
      "d": 182.9265000000014,
      "v": 56
    },
    {
      "midi": 67,
      "hit": false,
      "t": 217133.75550000038,
      "d": 91.4632500000007,
      "v": 53
    },
    {
      "midi": 55,
      "hit": false,
      "t": 217133.75550000108,
      "d": 182.9265000000014,
      "v": 56
    },
    {
      "midi": 55,
      "hit": false,
      "t": 217316.68200000108,
      "d": 182.9265000000014,
      "v": 56
    },
    {
      "midi": 53,
      "hit": false,
      "t": 217682.5350000002,
      "d": 365.8530000000028,
      "v": 65
    },
    {
      "midi": 57,
      "hit": false,
      "t": 217682.5350000002,
      "d": 365.8530000000028,
      "v": 65
    },
    {
      "midi": 60,
      "hit": false,
      "t": 217682.5350000002,
      "d": 365.8530000000028,
      "v": 65
    },
    {
      "midi": 55,
      "hit": false,
      "t": 217682.53500000108,
      "d": 182.9265000000014,
      "v": 56
    },
    {
      "midi": 55,
      "hit": false,
      "t": 217865.46150000108,
      "d": 182.9265000000014,
      "v": 56
    },
    {
      "midi": 67,
      "hit": false,
      "t": 218048.38800000006,
      "d": 2926.8239999999932,
      "v": 87
    },
    {
      "midi": 79,
      "hit": false,
      "t": 218048.38800000012,
      "d": 274.3897500000021,
      "v": 97
    },
    {
      "midi": 53,
      "hit": false,
      "t": 218048.38800000012,
      "d": 1280.4855000000098,
      "v": 113
    },
    {
      "midi": 57,
      "hit": false,
      "t": 218048.38800000012,
      "d": 1280.4855000000098,
      "v": 113
    },
    {
      "midi": 60,
      "hit": false,
      "t": 218048.38800000012,
      "d": 1280.4855000000098,
      "v": 113
    },
    {
      "midi": 53,
      "hit": false,
      "t": 218048.3880000002,
      "d": 1463.4120000000112,
      "v": 65
    },
    {
      "midi": 57,
      "hit": false,
      "t": 218048.3880000002,
      "d": 1463.4120000000112,
      "v": 65
    },
    {
      "midi": 60,
      "hit": false,
      "t": 218048.3880000002,
      "d": 1463.4120000000112,
      "v": 65
    },
    {
      "midi": 67,
      "hit": false,
      "t": 218048.38800000038,
      "d": 91.4632500000007,
      "v": 53
    },
    {
      "midi": 29,
      "hit": false,
      "t": 218048.38800000094,
      "d": 917.6812750000099,
      "v": 99
    },
    {
      "midi": 48,
      "hit": false,
      "t": 218048.38800000108,
      "d": 182.9265000000014,
      "v": 56
    },
    {
      "midi": 67,
      "hit": false,
      "t": 218231.31450000012,
      "d": 182.9265000000014,
      "v": 103
    },
    {
      "midi": 55,
      "hit": false,
      "t": 218231.31450000108,
      "d": 182.9265000000014,
      "v": 56
    },
    {
      "midi": 67,
      "hit": false,
      "t": 218414.2410000004,
      "d": 91.4632500000007,
      "v": 53
    },
    {
      "midi": 55,
      "hit": false,
      "t": 218414.2410000011,
      "d": 182.9265000000014,
      "v": 56
    },
    {
      "midi": 67,
      "hit": false,
      "t": 218597.16750000013,
      "d": 182.9265000000014,
      "v": 105
    },
    {
      "midi": 55,
      "hit": false,
      "t": 218597.1675000011,
      "d": 182.9265000000014,
      "v": 56
    },
    {
      "midi": 67,
      "hit": false,
      "t": 218780.0940000004,
      "d": 91.4632500000007,
      "v": 53
    },
    {
      "midi": 55,
      "hit": false,
      "t": 218780.0940000011,
      "d": 182.9265000000014,
      "v": 56
    },
    {
      "midi": 67,
      "hit": false,
      "t": 218963.02050000013,
      "d": 182.9265000000014,
      "v": 103
    },
    {
      "midi": 29,
      "hit": false,
      "t": 219145.94700000095,
      "d": 300.3043375000125,
      "v": 99
    },
    {
      "midi": 55,
      "hit": false,
      "t": 219145.9470000011,
      "d": 182.9265000000014,
      "v": 56
    },
    {
      "midi": 67,
      "hit": false,
      "t": 219328.87350000013,
      "d": 182.9265000000014,
      "v": 105
    },
    {
      "midi": 55,
      "hit": false,
      "t": 219328.8735000011,
      "d": 182.9265000000014,
      "v": 56
    },
    {
      "midi": 57,
      "hit": false,
      "t": 219511.8,
      "d": 365.8530000000028,
      "v": 69
    },
    {
      "midi": 69,
      "hit": false,
      "t": 219511.8,
      "d": 365.8530000000028,
      "v": 69
    },
    {
      "midi": 48,
      "hit": false,
      "t": 219511.80000000022,
      "d": 1463.4120000000112,
      "v": 69
    },
    {
      "midi": 53,
      "hit": false,
      "t": 219511.80000000022,
      "d": 1463.4120000000112,
      "v": 69
    },
    {
      "midi": 57,
      "hit": false,
      "t": 219511.80000000022,
      "d": 1463.4120000000112,
      "v": 69
    },
    {
      "midi": 60,
      "hit": false,
      "t": 219511.80000000022,
      "d": 1463.4120000000112,
      "v": 69
    },
    {
      "midi": 65,
      "hit": false,
      "t": 219511.80000000022,
      "d": 1463.4120000000112,
      "v": 69
    },
    {
      "midi": 65,
      "hit": false,
      "t": 219511.8000000003,
      "d": 2926.8239999999932,
      "v": 64
    },
    {
      "midi": 69,
      "hit": false,
      "t": 219511.8000000003,
      "d": 2926.8239999999932,
      "v": 64
    },
    {
      "midi": 60,
      "hit": false,
      "t": 219511.8000000003,
      "d": 21951.179999999964,
      "v": 64
    },
    {
      "midi": 57,
      "hit": false,
      "t": 219511.8000000004,
      "d": 91.4632500000007,
      "v": 53
    },
    {
      "midi": 29,
      "hit": false,
      "t": 219511.80000000095,
      "d": 914.632500000007,
      "v": 99
    },
    {
      "midi": 50,
      "hit": false,
      "t": 219511.8000000011,
      "d": 182.9265000000014,
      "v": 56
    },
    {
      "midi": 53,
      "hit": false,
      "t": 219694.7265000011,
      "d": 182.9265000000014,
      "v": 56
    },
    {
      "midi": 55,
      "hit": false,
      "t": 219877.653,
      "d": 365.8530000000028,
      "v": 69
    },
    {
      "midi": 67,
      "hit": false,
      "t": 219877.653,
      "d": 365.8530000000028,
      "v": 69
    },
    {
      "midi": 53,
      "hit": false,
      "t": 219877.6530000011,
      "d": 182.9265000000014,
      "v": 56
    },
    {
      "midi": 53,
      "hit": false,
      "t": 220060.5795000011,
      "d": 182.9265000000014,
      "v": 56
    },
    {
      "midi": 53,
      "hit": false,
      "t": 220243.506,
      "d": 365.8530000000028,
      "v": 69
    },
    {
      "midi": 65,
      "hit": false,
      "t": 220243.506,
      "d": 365.8530000000028,
      "v": 69
    },
    {
      "midi": 53,
      "hit": false,
      "t": 220243.5060000011,
      "d": 182.9265000000014,
      "v": 56
    },
    {
      "midi": 52,
      "hit": false,
      "t": 220609.359,
      "d": 365.8530000000028,
      "v": 68
    },
    {
      "midi": 64,
      "hit": false,
      "t": 220609.359,
      "d": 365.8530000000028,
      "v": 68
    },
    {
      "midi": 29,
      "hit": false,
      "t": 220609.35900000096,
      "d": 274.3897500000021,
      "v": 99
    },
    {
      "midi": 53,
      "hit": false,
      "t": 220609.3590000011,
      "d": 182.9265000000014,
      "v": 56
    },
    {
      "midi": 53,
      "hit": false,
      "t": 220792.2855000011,
      "d": 182.9265000000014,
      "v": 56
    },
    {
      "midi": 50,
      "hit": false,
      "t": 220975.212,
      "d": 1463.4120000000112,
      "v": 68
    },
    {
      "midi": 62,
      "hit": false,
      "t": 220975.212,
      "d": 1463.4120000000112,
      "v": 68
    },
    {
      "midi": 50,
      "hit": false,
      "t": 220975.21200000023,
      "d": 1463.4120000000112,
      "v": 64
    },
    {
      "midi": 59,
      "hit": false,
      "t": 220975.21200000023,
      "d": 1463.4120000000112,
      "v": 64
    },
    {
      "midi": 55,
      "hit": false,
      "t": 220975.21200000023,
      "d": 2926.8240000000224,
      "v": 64
    },
    {
      "midi": 67,
      "hit": false,
      "t": 220975.21200000023,
      "d": 2926.8240000000224,
      "v": 69
    },
    {
      "midi": 59,
      "hit": false,
      "t": 220975.2120000004,
      "d": 91.4632500000007,
      "v": 53
    },
    {
      "midi": 31,
      "hit": false,
      "t": 220975.21200000096,
      "d": 548.7795000000042,
      "v": 99
    },
    {
      "midi": 52,
      "hit": false,
      "t": 220975.2120000011,
      "d": 182.9265000000014,
      "v": 56
    },
    {
      "midi": 55,
      "hit": false,
      "t": 221158.1385000011,
      "d": 182.9265000000014,
      "v": 56
    },
    {
      "midi": 55,
      "hit": false,
      "t": 221341.0650000011,
      "d": 182.9265000000014,
      "v": 56
    },
    {
      "midi": 31,
      "hit": false,
      "t": 221523.99150000096,
      "d": 182.9265000000014,
      "v": 99
    },
    {
      "midi": 55,
      "hit": false,
      "t": 221523.9915000011,
      "d": 182.9265000000014,
      "v": 56
    },
    {
      "midi": 36,
      "hit": false,
      "t": 221706.91800000097,
      "d": 182.9265000000014,
      "v": 99
    },
    {
      "midi": 55,
      "hit": false,
      "t": 221706.9180000011,
      "d": 182.9265000000014,
      "v": 56
    },
    {
      "midi": 31,
      "hit": false,
      "t": 221889.84450000097,
      "d": 182.9265000000014,
      "v": 99
    },
    {
      "midi": 33,
      "hit": false,
      "t": 222072.77100000097,
      "d": 182.9265000000014,
      "v": 99
    },
    {
      "midi": 55,
      "hit": false,
      "t": 222072.7710000011,
      "d": 182.9265000000014,
      "v": 56
    },
    {
      "midi": 35,
      "hit": false,
      "t": 222255.69750000097,
      "d": 182.9265000000014,
      "v": 99
    },
    {
      "midi": 55,
      "hit": false,
      "t": 222255.69750000112,
      "d": 182.9265000000014,
      "v": 56
    },
    {
      "midi": 55,
      "hit": false,
      "t": 222438.624,
      "d": 365.8530000000028,
      "v": 67
    },
    {
      "midi": 67,
      "hit": false,
      "t": 222438.624,
      "d": 365.8530000000028,
      "v": 67
    },
    {
      "midi": 52,
      "hit": false,
      "t": 222438.62400000024,
      "d": 2926.8240000000224,
      "v": 64
    },
    {
      "midi": 60,
      "hit": false,
      "t": 222438.62400000024,
      "d": 2926.8240000000224,
      "v": 64
    },
    {
      "midi": 64,
      "hit": false,
      "t": 222438.6240000003,
      "d": 2926.8239999999932,
      "v": 64
    },
    {
      "midi": 67,
      "hit": false,
      "t": 222438.6240000003,
      "d": 2926.8239999999932,
      "v": 64
    },
    {
      "midi": 64,
      "hit": false,
      "t": 222438.62400000042,
      "d": 91.4632500000007,
      "v": 53
    },
    {
      "midi": 36,
      "hit": false,
      "t": 222438.62400000097,
      "d": 914.632500000007,
      "v": 99
    },
    {
      "midi": 48,
      "hit": false,
      "t": 222438.62400000112,
      "d": 182.9265000000014,
      "v": 56
    },
    {
      "midi": 55,
      "hit": false,
      "t": 222621.55050000112,
      "d": 182.9265000000014,
      "v": 56
    },
    {
      "midi": 53,
      "hit": false,
      "t": 222804.477,
      "d": 365.8530000000028,
      "v": 67
    },
    {
      "midi": 65,
      "hit": false,
      "t": 222804.477,
      "d": 365.8530000000028,
      "v": 67
    },
    {
      "midi": 55,
      "hit": false,
      "t": 222804.47700000112,
      "d": 182.9265000000014,
      "v": 56
    },
    {
      "midi": 55,
      "hit": false,
      "t": 222987.40350000112,
      "d": 182.9265000000014,
      "v": 56
    },
    {
      "midi": 52,
      "hit": false,
      "t": 223170.33000000002,
      "d": 365.8530000000028,
      "v": 67
    },
    {
      "midi": 64,
      "hit": false,
      "t": 223170.33000000002,
      "d": 365.8530000000028,
      "v": 67
    },
    {
      "midi": 60,
      "hit": false,
      "t": 223170.33000000042,
      "d": 91.4632500000007,
      "v": 53
    },
    {
      "midi": 67,
      "hit": false,
      "t": 223170.33000000042,
      "d": 91.4632500000007,
      "v": 53
    },
    {
      "midi": 55,
      "hit": false,
      "t": 223170.33000000112,
      "d": 182.9265000000014,
      "v": 56
    },
    {
      "midi": 50,
      "hit": false,
      "t": 223536.18300000002,
      "d": 365.8530000000028,
      "v": 66
    },
    {
      "midi": 62,
      "hit": false,
      "t": 223536.18300000002,
      "d": 365.8530000000028,
      "v": 66
    },
    {
      "midi": 36,
      "hit": false,
      "t": 223536.18300000098,
      "d": 365.8530000000319,
      "v": 99
    },
    {
      "midi": 55,
      "hit": false,
      "t": 223536.18300000113,
      "d": 182.9265000000014,
      "v": 56
    },
    {
      "midi": 55,
      "hit": false,
      "t": 223719.10950000113,
      "d": 182.9265000000014,
      "v": 56
    },
    {
      "midi": 48,
      "hit": false,
      "t": 223902.03600000002,
      "d": 1463.4120000000112,
      "v": 66
    },
    {
      "midi": 60,
      "hit": false,
      "t": 223902.03600000002,
      "d": 1463.4120000000112,
      "v": 66
    },
    {
      "midi": 57,
      "hit": false,
      "t": 223902.03600000025,
      "d": 1463.4120000000112,
      "v": 63
    },
    {
      "midi": 64,
      "hit": false,
      "t": 223902.03600000025,
      "d": 1463.4120000000112,
      "v": 54
    },
    {
      "midi": 60,
      "hit": false,
      "t": 223902.03600000043,
      "d": 91.4632500000007,
      "v": 53
    },
    {
      "midi": 69,
      "hit": false,
      "t": 223902.03600000043,
      "d": 91.4632500000007,
      "v": 53
    },
    {
      "midi": 33,
      "hit": false,
      "t": 223902.036000001,
      "d": 914.632500000007,
      "v": 99
    },
    {
      "midi": 52,
      "hit": false,
      "t": 223902.03600000113,
      "d": 182.9265000000014,
      "v": 56
    },
    {
      "midi": 55,
      "hit": false,
      "t": 224084.96250000113,
      "d": 182.9265000000014,
      "v": 56
    },
    {
      "midi": 55,
      "hit": false,
      "t": 224267.88900000113,
      "d": 182.9265000000014,
      "v": 56
    },
    {
      "midi": 55,
      "hit": false,
      "t": 224450.81550000113,
      "d": 182.9265000000014,
      "v": 56
    },
    {
      "midi": 60,
      "hit": false,
      "t": 224633.74200000043,
      "d": 91.4632500000007,
      "v": 53
    },
    {
      "midi": 67,
      "hit": false,
      "t": 224633.74200000043,
      "d": 91.4632500000007,
      "v": 53
    },
    {
      "midi": 55,
      "hit": false,
      "t": 224633.74200000113,
      "d": 182.9265000000014,
      "v": 56
    },
    {
      "midi": 33,
      "hit": false,
      "t": 224816.66850000102,
      "d": 182.9265000000014,
      "v": 99
    },
    {
      "midi": 67,
      "hit": false,
      "t": 224999.59500000044,
      "d": 91.4632500000007,
      "v": 53
    },
    {
      "midi": 31,
      "hit": false,
      "t": 224999.59500000102,
      "d": 365.8530000000028,
      "v": 99
    },
    {
      "midi": 55,
      "hit": false,
      "t": 224999.59500000114,
      "d": 182.9265000000014,
      "v": 56
    },
    {
      "midi": 55,
      "hit": false,
      "t": 225182.52150000114,
      "d": 182.9265000000014,
      "v": 56
    },
    {
      "midi": 57,
      "hit": false,
      "t": 225365.44800000003,
      "d": 365.8530000000028,
      "v": 65
    },
    {
      "midi": 69,
      "hit": false,
      "t": 225365.44800000003,
      "d": 365.8530000000028,
      "v": 65
    },
    {
      "midi": 48,
      "hit": false,
      "t": 225365.44800000027,
      "d": 1463.4120000000112,
      "v": 63
    },
    {
      "midi": 53,
      "hit": false,
      "t": 225365.44800000027,
      "d": 1463.4120000000112,
      "v": 63
    },
    {
      "midi": 57,
      "hit": false,
      "t": 225365.44800000027,
      "d": 1463.4120000000112,
      "v": 63
    },
    {
      "midi": 65,
      "hit": false,
      "t": 225365.44800000027,
      "d": 2926.8240000000224,
      "v": 54
    },
    {
      "midi": 65,
      "hit": false,
      "t": 225365.4480000003,
      "d": 2926.8239999999932,
      "v": 63
    },
    {
      "midi": 69,
      "hit": false,
      "t": 225365.4480000003,
      "d": 2926.8239999999932,
      "v": 63
    },
    {
      "midi": 57,
      "hit": false,
      "t": 225365.44800000044,
      "d": 91.4632500000007,
      "v": 53
    },
    {
      "midi": 65,
      "hit": false,
      "t": 225365.44800000044,
      "d": 91.4632500000007,
      "v": 53
    },
    {
      "midi": 29,
      "hit": false,
      "t": 225365.44800000102,
      "d": 914.632500000007,
      "v": 99
    },
    {
      "midi": 53,
      "hit": false,
      "t": 225365.44800000114,
      "d": 182.9265000000014,
      "v": 56
    },
    {
      "midi": 55,
      "hit": false,
      "t": 225548.37450000114,
      "d": 182.9265000000014,
      "v": 56
    },
    {
      "midi": 55,
      "hit": false,
      "t": 225731.30100000004,
      "d": 365.8530000000028,
      "v": 65
    },
    {
      "midi": 67,
      "hit": false,
      "t": 225731.30100000004,
      "d": 365.8530000000028,
      "v": 65
    },
    {
      "midi": 55,
      "hit": false,
      "t": 225731.30100000114,
      "d": 182.9265000000014,
      "v": 56
    },
    {
      "midi": 55,
      "hit": false,
      "t": 225914.22750000114,
      "d": 182.9265000000014,
      "v": 56
    },
    {
      "midi": 53,
      "hit": false,
      "t": 226097.15400000004,
      "d": 365.8530000000028,
      "v": 65
    },
    {
      "midi": 65,
      "hit": false,
      "t": 226097.15400000004,
      "d": 365.8530000000028,
      "v": 65
    },
    {
      "midi": 55,
      "hit": false,
      "t": 226097.15400000114,
      "d": 182.9265000000014,
      "v": 56
    },
    {
      "midi": 52,
      "hit": false,
      "t": 226463.00700000004,
      "d": 365.8530000000028,
      "v": 65
    },
    {
      "midi": 64,
      "hit": false,
      "t": 226463.00700000004,
      "d": 365.8530000000028,
      "v": 65
    },
    {
      "midi": 29,
      "hit": false,
      "t": 226463.00700000103,
      "d": 365.8530000000028,
      "v": 99
    },
    {
      "midi": 55,
      "hit": false,
      "t": 226463.00700000115,
      "d": 182.9265000000014,
      "v": 56
    },
    {
      "midi": 55,
      "hit": false,
      "t": 226645.93350000115,
      "d": 182.9265000000014,
      "v": 56
    },
    {
      "midi": 50,
      "hit": false,
      "t": 226828.86000000004,
      "d": 1463.4120000000112,
      "v": 64
    },
    {
      "midi": 62,
      "hit": false,
      "t": 226828.86000000004,
      "d": 1463.4120000000112,
      "v": 64
    },
    {
      "midi": 50,
      "hit": false,
      "t": 226828.86000000028,
      "d": 1463.4120000000112,
      "v": 63
    },
    {
      "midi": 59,
      "hit": false,
      "t": 226828.86000000028,
      "d": 1463.4120000000112,
      "v": 63
    },
    {
      "midi": 55,
      "hit": false,
      "t": 226828.86000000028,
      "d": 2926.8240000000224,
      "v": 63
    },
    {
      "midi": 59,
      "hit": false,
      "t": 226828.86000000045,
      "d": 91.4632500000007,
      "v": 53
    },
    {
      "midi": 31,
      "hit": false,
      "t": 226828.86000000103,
      "d": 914.632500000007,
      "v": 99
    },
    {
      "midi": 50,
      "hit": false,
      "t": 226828.86000000115,
      "d": 182.9265000000014,
      "v": 56
    },
    {
      "midi": 55,
      "hit": false,
      "t": 227011.78650000115,
      "d": 182.9265000000014,
      "v": 56
    },
    {
      "midi": 55,
      "hit": false,
      "t": 227194.71300000115,
      "d": 182.9265000000014,
      "v": 56
    },
    {
      "midi": 55,
      "hit": false,
      "t": 227377.63950000115,
      "d": 182.9265000000014,
      "v": 56
    },
    {
      "midi": 55,
      "hit": false,
      "t": 227560.56600000116,
      "d": 182.9265000000014,
      "v": 56
    },
    {
      "midi": 31,
      "hit": false,
      "t": 227926.41900000104,
      "d": 182.9265000000014,
      "v": 99
    },
    {
      "midi": 55,
      "hit": false,
      "t": 227926.41900000116,
      "d": 182.9265000000014,
      "v": 56
    },
    {
      "midi": 33,
      "hit": false,
      "t": 228109.34550000104,
      "d": 182.9265000000014,
      "v": 99
    },
    {
      "midi": 55,
      "hit": false,
      "t": 228109.34550000116,
      "d": 182.9265000000014,
      "v": 56
    },
    {
      "midi": 55,
      "hit": false,
      "t": 228292.27200000006,
      "d": 365.8530000000028,
      "v": 64
    },
    {
      "midi": 67,
      "hit": false,
      "t": 228292.27200000006,
      "d": 365.8530000000028,
      "v": 64
    },
    {
      "midi": 52,
      "hit": false,
      "t": 228292.2720000003,
      "d": 2926.8240000000224,
      "v": 62
    },
    {
      "midi": 60,
      "hit": false,
      "t": 228292.2720000003,
      "d": 2926.8240000000224,
      "v": 62
    },
    {
      "midi": 64,
      "hit": false,
      "t": 228292.2720000003,
      "d": 2926.8240000000224,
      "v": 63
    },
    {
      "midi": 64,
      "hit": false,
      "t": 228292.2720000003,
      "d": 2926.8239999999932,
      "v": 63
    },
    {
      "midi": 67,
      "hit": false,
      "t": 228292.2720000003,
      "d": 2926.8239999999932,
      "v": 63
    },
    {
      "midi": 60,
      "hit": false,
      "t": 228292.27200000046,
      "d": 91.4632500000007,
      "v": 53
    },
    {
      "midi": 64,
      "hit": false,
      "t": 228292.27200000046,
      "d": 91.4632500000007,
      "v": 53
    },
    {
      "midi": 36,
      "hit": false,
      "t": 228292.27200000104,
      "d": 548.7795000000042,
      "v": 99
    },
    {
      "midi": 48,
      "hit": false,
      "t": 228292.27200000116,
      "d": 182.9265000000014,
      "v": 56
    },
    {
      "midi": 55,
      "hit": false,
      "t": 228475.19850000116,
      "d": 182.9265000000014,
      "v": 56
    },
    {
      "midi": 53,
      "hit": false,
      "t": 228658.12500000006,
      "d": 365.8530000000028,
      "v": 63
    },
    {
      "midi": 65,
      "hit": false,
      "t": 228658.12500000006,
      "d": 365.8530000000028,
      "v": 63
    },
    {
      "midi": 55,
      "hit": false,
      "t": 228658.12500000116,
      "d": 182.9265000000014,
      "v": 56
    },
    {
      "midi": 36,
      "hit": false,
      "t": 228841.05150000105,
      "d": 182.9265000000014,
      "v": 99
    },
    {
      "midi": 55,
      "hit": false,
      "t": 228841.05150000117,
      "d": 182.9265000000014,
      "v": 56
    },
    {
      "midi": 52,
      "hit": false,
      "t": 229023.97800000006,
      "d": 365.8530000000028,
      "v": 63
    },
    {
      "midi": 64,
      "hit": false,
      "t": 229023.97800000006,
      "d": 365.8530000000028,
      "v": 63
    },
    {
      "midi": 60,
      "hit": false,
      "t": 229023.97800000047,
      "d": 91.4632500000007,
      "v": 53
    },
    {
      "midi": 67,
      "hit": false,
      "t": 229023.97800000047,
      "d": 91.4632500000007,
      "v": 53
    },
    {
      "midi": 40,
      "hit": false,
      "t": 229023.97800000105,
      "d": 365.8530000000028,
      "v": 99
    },
    {
      "midi": 55,
      "hit": false,
      "t": 229023.97800000117,
      "d": 182.9265000000014,
      "v": 56
    },
    {
      "midi": 50,
      "hit": false,
      "t": 229389.83100000006,
      "d": 365.8530000000028,
      "v": 63
    },
    {
      "midi": 62,
      "hit": false,
      "t": 229389.83100000006,
      "d": 365.8530000000028,
      "v": 63
    },
    {
      "midi": 43,
      "hit": false,
      "t": 229389.83100000105,
      "d": 182.9265000000014,
      "v": 99
    },
    {
      "midi": 55,
      "hit": false,
      "t": 229389.83100000117,
      "d": 182.9265000000014,
      "v": 56
    },
    {
      "midi": 33,
      "hit": false,
      "t": 229572.75750000105,
      "d": 182.9265000000014,
      "v": 99
    },
    {
      "midi": 55,
      "hit": false,
      "t": 229572.75750000117,
      "d": 182.9265000000014,
      "v": 56
    },
    {
      "midi": 48,
      "hit": false,
      "t": 229755.68400000007,
      "d": 1463.4120000000112,
      "v": 63
    },
    {
      "midi": 60,
      "hit": false,
      "t": 229755.68400000007,
      "d": 1463.4120000000112,
      "v": 63
    },
    {
      "midi": 57,
      "hit": false,
      "t": 229755.6840000003,
      "d": 1463.4120000000112,
      "v": 62
    },
    {
      "midi": 60,
      "hit": false,
      "t": 229755.68400000047,
      "d": 91.4632500000007,
      "v": 53
    },
    {
      "midi": 69,
      "hit": false,
      "t": 229755.68400000047,
      "d": 91.4632500000007,
      "v": 53
    },
    {
      "midi": 45,
      "hit": false,
      "t": 229755.68400000106,
      "d": 182.9265000000014,
      "v": 99
    },
    {
      "midi": 48,
      "hit": false,
      "t": 229755.68400000117,
      "d": 182.9265000000014,
      "v": 56
    },
    {
      "midi": 40,
      "hit": false,
      "t": 229938.61050000106,
      "d": 182.9265000000014,
      "v": 99
    },
    {
      "midi": 57,
      "hit": false,
      "t": 229938.61050000117,
      "d": 182.9265000000014,
      "v": 56
    },
    {
      "midi": 38,
      "hit": false,
      "t": 230121.53700000106,
      "d": 182.9265000000014,
      "v": 99
    },
    {
      "midi": 57,
      "hit": false,
      "t": 230121.53700000118,
      "d": 182.9265000000014,
      "v": 56
    },
    {
      "midi": 33,
      "hit": false,
      "t": 230304.46350000106,
      "d": 182.9265000000014,
      "v": 99
    },
    {
      "midi": 57,
      "hit": false,
      "t": 230304.46350000118,
      "d": 182.9265000000014,
      "v": 56
    },
    {
      "midi": 67,
      "hit": false,
      "t": 230487.39000000048,
      "d": 91.4632500000007,
      "v": 53
    },
    {
      "midi": 64,
      "hit": false,
      "t": 230487.39000000048,
      "d": 182.9265000000014,
      "v": 53
    },
    {
      "midi": 57,
      "hit": false,
      "t": 230487.39000000118,
      "d": 182.9265000000014,
      "v": 56
    },
    {
      "midi": 62,
      "hit": false,
      "t": 230853.24300000048,
      "d": 182.9265000000014,
      "v": 53
    },
    {
      "midi": 31,
      "hit": false,
      "t": 230853.24300000106,
      "d": 365.8530000000028,
      "v": 99
    },
    {
      "midi": 57,
      "hit": false,
      "t": 230853.24300000118,
      "d": 182.9265000000014,
      "v": 56
    },
    {
      "midi": 57,
      "hit": false,
      "t": 231036.16950000118,
      "d": 182.9265000000014,
      "v": 56
    },
    {
      "midi": 57,
      "hit": false,
      "t": 231219.09600000008,
      "d": 365.8530000000028,
      "v": 62
    },
    {
      "midi": 69,
      "hit": false,
      "t": 231219.09600000008,
      "d": 365.8530000000028,
      "v": 62
    },
    {
      "midi": 65,
      "hit": false,
      "t": 231219.09600000028,
      "d": 2926.8239999999932,
      "v": 63
    },
    {
      "midi": 69,
      "hit": false,
      "t": 231219.09600000028,
      "d": 2926.8239999999932,
      "v": 63
    },
    {
      "midi": 48,
      "hit": false,
      "t": 231219.0960000003,
      "d": 1463.4120000000112,
      "v": 67
    },
    {
      "midi": 53,
      "hit": false,
      "t": 231219.0960000003,
      "d": 1463.4120000000112,
      "v": 67
    },
    {
      "midi": 57,
      "hit": false,
      "t": 231219.0960000003,
      "d": 1463.4120000000112,
      "v": 67
    },
    {
      "midi": 60,
      "hit": false,
      "t": 231219.09600000049,
      "d": 182.9265000000014,
      "v": 53
    },
    {
      "midi": 29,
      "hit": false,
      "t": 231219.09600000107,
      "d": 914.632500000007,
      "v": 99
    },
    {
      "midi": 48,
      "hit": false,
      "t": 231219.09600000118,
      "d": 182.9265000000014,
      "v": 56
    },
    {
      "midi": 55,
      "hit": false,
      "t": 231402.02250000119,
      "d": 182.9265000000014,
      "v": 56
    },
    {
      "midi": 55,
      "hit": false,
      "t": 231584.94900000008,
      "d": 365.8530000000028,
      "v": 62
    },
    {
      "midi": 67,
      "hit": false,
      "t": 231584.94900000008,
      "d": 365.8530000000028,
      "v": 62
    },
    {
      "midi": 55,
      "hit": false,
      "t": 231584.9490000012,
      "d": 182.9265000000014,
      "v": 56
    },
    {
      "midi": 55,
      "hit": false,
      "t": 231767.8755000012,
      "d": 182.9265000000014,
      "v": 56
    },
    {
      "midi": 53,
      "hit": false,
      "t": 231950.80200000008,
      "d": 365.8530000000028,
      "v": 61
    },
    {
      "midi": 65,
      "hit": false,
      "t": 231950.80200000008,
      "d": 365.8530000000028,
      "v": 61
    },
    {
      "midi": 55,
      "hit": false,
      "t": 231950.8020000012,
      "d": 182.9265000000014,
      "v": 56
    },
    {
      "midi": 52,
      "hit": false,
      "t": 232316.6550000001,
      "d": 365.8530000000028,
      "v": 61
    },
    {
      "midi": 64,
      "hit": false,
      "t": 232316.6550000001,
      "d": 365.8530000000028,
      "v": 61
    },
    {
      "midi": 29,
      "hit": false,
      "t": 232316.65500000108,
      "d": 365.8530000000028,
      "v": 99
    },
    {
      "midi": 55,
      "hit": false,
      "t": 232316.6550000012,
      "d": 182.9265000000014,
      "v": 56
    },
    {
      "midi": 55,
      "hit": false,
      "t": 232499.5815000012,
      "d": 182.9265000000014,
      "v": 56
    },
    {
      "midi": 50,
      "hit": false,
      "t": 232682.5080000001,
      "d": 1463.4120000000112,
      "v": 61
    },
    {
      "midi": 62,
      "hit": false,
      "t": 232682.5080000001,
      "d": 1463.4120000000112,
      "v": 61
    },
    {
      "midi": 50,
      "hit": false,
      "t": 232682.50800000032,
      "d": 1463.4120000000112,
      "v": 67
    },
    {
      "midi": 59,
      "hit": false,
      "t": 232682.50800000032,
      "d": 1463.4120000000112,
      "v": 67
    },
    {
      "midi": 55,
      "hit": false,
      "t": 232682.50800000032,
      "d": 2926.8240000000224,
      "v": 67
    },
    {
      "midi": 59,
      "hit": false,
      "t": 232682.5080000005,
      "d": 91.4632500000007,
      "v": 53
    },
    {
      "midi": 31,
      "hit": false,
      "t": 232682.50800000108,
      "d": 876.522812500014,
      "v": 99
    },
    {
      "midi": 48,
      "hit": false,
      "t": 232682.5080000012,
      "d": 182.9265000000014,
      "v": 56
    },
    {
      "midi": 55,
      "hit": false,
      "t": 232865.4345000012,
      "d": 182.9265000000014,
      "v": 56
    },
    {
      "midi": 55,
      "hit": false,
      "t": 233048.3610000012,
      "d": 182.9265000000014,
      "v": 56
    },
    {
      "midi": 55,
      "hit": false,
      "t": 233231.2875000012,
      "d": 182.9265000000014,
      "v": 56
    },
    {
      "midi": 55,
      "hit": false,
      "t": 233414.2140000012,
      "d": 182.9265000000014,
      "v": 56
    },
    {
      "midi": 55,
      "hit": false,
      "t": 233757.20118750006,
      "d": 76.21937500001513,
      "v": 85
    },
    {
      "midi": 53,
      "hit": false,
      "t": 233780.06700000007,
      "d": 304.8775000000023,
      "v": 78
    },
    {
      "midi": 57,
      "hit": false,
      "t": 233780.06700000007,
      "d": 376.5237124999985,
      "v": 78
    },
    {
      "midi": 60,
      "hit": false,
      "t": 233780.06700000007,
      "d": 7682.9130000000005,
      "v": 89
    },
    {
      "midi": 31,
      "hit": false,
      "t": 233780.0670000011,
      "d": 365.8530000000028,
      "v": 99
    },
    {
      "midi": 55,
      "hit": false,
      "t": 233780.0670000012,
      "d": 182.9265000000014,
      "v": 56
    },
    {
      "midi": 55,
      "hit": false,
      "t": 233962.9935000012,
      "d": 182.9265000000014,
      "v": 56
    },
    {
      "midi": 55,
      "hit": false,
      "t": 234145.92000000007,
      "d": 1486.2778124999895,
      "v": 78
    },
    {
      "midi": 52,
      "hit": false,
      "t": 234145.92000000007,
      "d": 2926.8239999999932,
      "v": 78
    },
    {
      "midi": 55,
      "hit": false,
      "t": 234145.9200000001,
      "d": 365.8530000000028,
      "v": 60
    },
    {
      "midi": 67,
      "hit": false,
      "t": 234145.9200000001,
      "d": 365.8530000000028,
      "v": 60
    },
    {
      "midi": 64,
      "hit": false,
      "t": 234145.92000000027,
      "d": 2926.8239999999932,
      "v": 62
    },
    {
      "midi": 67,
      "hit": false,
      "t": 234145.92000000027,
      "d": 2926.8239999999932,
      "v": 62
    },
    {
      "midi": 52,
      "hit": false,
      "t": 234145.92000000033,
      "d": 2926.8240000000224,
      "v": 66
    },
    {
      "midi": 60,
      "hit": false,
      "t": 234145.92000000033,
      "d": 2926.8240000000224,
      "v": 66
    },
    {
      "midi": 64,
      "hit": false,
      "t": 234145.9200000005,
      "d": 91.4632500000007,
      "v": 53
    },
    {
      "midi": 36,
      "hit": false,
      "t": 234145.9200000011,
      "d": 914.632500000007,
      "v": 99
    },
    {
      "midi": 48,
      "hit": false,
      "t": 234145.9200000012,
      "d": 182.9265000000014,
      "v": 56
    },
    {
      "midi": 55,
      "hit": false,
      "t": 234328.8465000012,
      "d": 182.9265000000014,
      "v": 56
    },
    {
      "midi": 53,
      "hit": false,
      "t": 234511.7730000001,
      "d": 365.8530000000028,
      "v": 60
    },
    {
      "midi": 65,
      "hit": false,
      "t": 234511.7730000001,
      "d": 365.8530000000028,
      "v": 60
    },
    {
      "midi": 55,
      "hit": false,
      "t": 234511.7730000012,
      "d": 182.9265000000014,
      "v": 56
    },
    {
      "midi": 55,
      "hit": false,
      "t": 234694.6995000012,
      "d": 182.9265000000014,
      "v": 56
    },
    {
      "midi": 52,
      "hit": false,
      "t": 234877.6260000001,
      "d": 365.8530000000028,
      "v": 60
    },
    {
      "midi": 64,
      "hit": false,
      "t": 234877.6260000001,
      "d": 365.8530000000028,
      "v": 60
    },
    {
      "midi": 60,
      "hit": false,
      "t": 234877.6260000005,
      "d": 91.4632500000007,
      "v": 53
    },
    {
      "midi": 67,
      "hit": false,
      "t": 234877.6260000005,
      "d": 91.4632500000007,
      "v": 53
    },
    {
      "midi": 55,
      "hit": false,
      "t": 234877.6260000012,
      "d": 182.9265000000014,
      "v": 56
    },
    {
      "midi": 36,
      "hit": false,
      "t": 235060.5525000011,
      "d": 182.9265000000014,
      "v": 99
    },
    {
      "midi": 50,
      "hit": false,
      "t": 235243.4790000001,
      "d": 365.8530000000028,
      "v": 59
    },
    {
      "midi": 62,
      "hit": false,
      "t": 235243.4790000001,
      "d": 365.8530000000028,
      "v": 59
    },
    {
      "midi": 40,
      "hit": false,
      "t": 235243.4790000011,
      "d": 365.8530000000028,
      "v": 99
    },
    {
      "midi": 55,
      "hit": false,
      "t": 235243.4790000012,
      "d": 182.9265000000014,
      "v": 56
    },
    {
      "midi": 55,
      "hit": false,
      "t": 235426.40550000122,
      "d": 182.9265000000014,
      "v": 56
    },
    {
      "midi": 48,
      "hit": false,
      "t": 235609.3320000001,
      "d": 1463.4120000000112,
      "v": 59
    },
    {
      "midi": 60,
      "hit": false,
      "t": 235609.3320000001,
      "d": 1463.4120000000112,
      "v": 59
    },
    {
      "midi": 57,
      "hit": false,
      "t": 235609.33200000034,
      "d": 1463.4120000000112,
      "v": 66
    },
    {
      "midi": 60,
      "hit": false,
      "t": 235609.33200000052,
      "d": 91.4632500000007,
      "v": 53
    },
    {
      "midi": 69,
      "hit": false,
      "t": 235609.33200000052,
      "d": 91.4632500000007,
      "v": 53
    },
    {
      "midi": 33,
      "hit": false,
      "t": 235609.3320000011,
      "d": 1374.9975250000425,
      "v": 99
    },
    {
      "midi": 48,
      "hit": false,
      "t": 235609.33200000122,
      "d": 182.9265000000014,
      "v": 56
    },
    {
      "midi": 57,
      "hit": false,
      "t": 235792.25850000122,
      "d": 182.9265000000014,
      "v": 56
    },
    {
      "midi": 57,
      "hit": false,
      "t": 235975.18500000122,
      "d": 182.9265000000014,
      "v": 56
    },
    {
      "midi": 57,
      "hit": false,
      "t": 236158.11150000122,
      "d": 182.9265000000014,
      "v": 56
    },
    {
      "midi": 60,
      "hit": false,
      "t": 236341.03800000052,
      "d": 91.4632500000007,
      "v": 53
    },
    {
      "midi": 67,
      "hit": false,
      "t": 236341.03800000052,
      "d": 91.4632500000007,
      "v": 53
    },
    {
      "midi": 57,
      "hit": false,
      "t": 236341.03800000122,
      "d": 182.9265000000014,
      "v": 56
    },
    {
      "midi": 62,
      "hit": false,
      "t": 236706.89100000015,
      "d": 304.8775000000023,
      "v": 116
    },
    {
      "midi": 55,
      "hit": false,
      "t": 236706.89100000015,
      "d": 330.7920875000127,
      "v": 116
    },
    {
      "midi": 59,
      "hit": false,
      "t": 236706.89100000015,
      "d": 330.7920875000127,
      "v": 116
    },
    {
      "midi": 57,
      "hit": false,
      "t": 236706.89100000123,
      "d": 182.9265000000014,
      "v": 56
    },
    {
      "midi": 57,
      "hit": false,
      "t": 236889.81750000123,
      "d": 182.9265000000014,
      "v": 56
    },
    {
      "midi": 57,
      "hit": false,
      "t": 237072.74400000006,
      "d": 22.86581250000745,
      "v": 77
    },
    {
      "midi": 53,
      "hit": false,
      "t": 237072.74400000006,
      "d": 4390.236000000004,
      "v": 77
    },
    {
      "midi": 53,
      "hit": false,
      "t": 237072.74400000015,
      "d": 1280.4855000000098,
      "v": 113
    },
    {
      "midi": 57,
      "hit": false,
      "t": 237072.74400000015,
      "d": 1280.4855000000098,
      "v": 113
    },
    {
      "midi": 60,
      "hit": false,
      "t": 237072.74400000015,
      "d": 1280.4855000000098,
      "v": 113
    },
    {
      "midi": 65,
      "hit": false,
      "t": 237072.74400000027,
      "d": 4446.638337500015,
      "v": 62
    },
    {
      "midi": 53,
      "hit": false,
      "t": 237072.74400000036,
      "d": 2560.9709999999905,
      "v": 66
    },
    {
      "midi": 57,
      "hit": false,
      "t": 237072.74400000036,
      "d": 2560.9709999999905,
      "v": 66
    },
    {
      "midi": 60,
      "hit": false,
      "t": 237072.74400000036,
      "d": 2560.9709999999905,
      "v": 66
    },
    {
      "midi": 57,
      "hit": false,
      "t": 237072.74400000053,
      "d": 91.4632500000007,
      "v": 53
    },
    {
      "midi": 29,
      "hit": false,
      "t": 237072.74400000117,
      "d": 902.4373999999953,
      "v": 99
    },
    {
      "midi": 48,
      "hit": false,
      "t": 237072.74400000123,
      "d": 182.9265000000014,
      "v": 56
    },
    {
      "midi": 55,
      "hit": false,
      "t": 237255.67050000123,
      "d": 182.9265000000014,
      "v": 56
    },
    {
      "midi": 55,
      "hit": false,
      "t": 237438.59700000123,
      "d": 182.9265000000014,
      "v": 56
    },
    {
      "midi": 55,
      "hit": false,
      "t": 237621.52350000123,
      "d": 182.9265000000014,
      "v": 56
    },
    {
      "midi": 55,
      "hit": false,
      "t": 237804.45000000123,
      "d": 182.9265000000014,
      "v": 56
    },
    {
      "midi": 29,
      "hit": false,
      "t": 238170.30300000118,
      "d": 140.24364999998943,
      "v": 99
    },
    {
      "midi": 55,
      "hit": false,
      "t": 238170.30300000124,
      "d": 182.9265000000014,
      "v": 56
    },
    {
      "midi": 55,
      "hit": false,
      "t": 238353.22950000124,
      "d": 182.9265000000014,
      "v": 56
    },
    {
      "midi": 67,
      "hit": false,
      "t": 238536.15600000054,
      "d": 91.4632500000007,
      "v": 53
    },
    {
      "midi": 29,
      "hit": false,
      "t": 238536.15600000118,
      "d": 1253.0465250000125,
      "v": 99
    },
    {
      "midi": 48,
      "hit": false,
      "t": 238536.15600000124,
      "d": 182.9265000000014,
      "v": 56
    },
    {
      "midi": 67,
      "hit": false,
      "t": 238719.08250000054,
      "d": 91.4632500000007,
      "v": 53
    },
    {
      "midi": 55,
      "hit": false,
      "t": 238719.08250000124,
      "d": 182.9265000000014,
      "v": 56
    },
    {
      "midi": 67,
      "hit": false,
      "t": 238902.00900000054,
      "d": 91.4632500000007,
      "v": 53
    },
    {
      "midi": 55,
      "hit": false,
      "t": 238902.00900000124,
      "d": 182.9265000000014,
      "v": 56
    },
    {
      "midi": 67,
      "hit": false,
      "t": 239084.93550000055,
      "d": 91.4632500000007,
      "v": 53
    },
    {
      "midi": 55,
      "hit": false,
      "t": 239084.93550000124,
      "d": 182.9265000000014,
      "v": 56
    },
    {
      "midi": 55,
      "hit": false,
      "t": 239267.86200000125,
      "d": 182.9265000000014,
      "v": 56
    },
    {
      "midi": 53,
      "hit": false,
      "t": 239633.71500000035,
      "d": 365.8530000000028,
      "v": 65
    },
    {
      "midi": 57,
      "hit": false,
      "t": 239633.71500000035,
      "d": 365.8530000000028,
      "v": 65
    },
    {
      "midi": 60,
      "hit": false,
      "t": 239633.71500000035,
      "d": 365.8530000000028,
      "v": 65
    },
    {
      "midi": 55,
      "hit": false,
      "t": 239633.71500000125,
      "d": 182.9265000000014,
      "v": 56
    },
    {
      "midi": 55,
      "hit": false,
      "t": 239816.64150000125,
      "d": 182.9265000000014,
      "v": 56
    },
    {
      "midi": 53,
      "hit": false,
      "t": 239999.56800000017,
      "d": 1280.4855000000098,
      "v": 113
    },
    {
      "midi": 57,
      "hit": false,
      "t": 239999.56800000017,
      "d": 1280.4855000000098,
      "v": 113
    },
    {
      "midi": 60,
      "hit": false,
      "t": 239999.56800000017,
      "d": 1280.4855000000098,
      "v": 113
    },
    {
      "midi": 53,
      "hit": false,
      "t": 239999.56800000035,
      "d": 1463.4120000000112,
      "v": 65
    },
    {
      "midi": 57,
      "hit": false,
      "t": 239999.56800000035,
      "d": 1463.4120000000112,
      "v": 65
    },
    {
      "midi": 60,
      "hit": false,
      "t": 239999.56800000035,
      "d": 1463.4120000000112,
      "v": 65
    },
    {
      "midi": 67,
      "hit": false,
      "t": 239999.56800000055,
      "d": 91.4632500000007,
      "v": 53
    },
    {
      "midi": 29,
      "hit": false,
      "t": 239999.5680000012,
      "d": 917.6812750000099,
      "v": 99
    },
    {
      "midi": 48,
      "hit": false,
      "t": 239999.56800000125,
      "d": 182.9265000000014,
      "v": 56
    },
    {
      "midi": 55,
      "hit": false,
      "t": 240182.49450000125,
      "d": 182.9265000000014,
      "v": 56
    },
    {
      "midi": 67,
      "hit": false,
      "t": 240365.42100000056,
      "d": 91.4632500000007,
      "v": 53
    },
    {
      "midi": 55,
      "hit": false,
      "t": 240365.42100000125,
      "d": 182.9265000000014,
      "v": 56
    },
    {
      "midi": 55,
      "hit": false,
      "t": 240548.34750000125,
      "d": 182.9265000000014,
      "v": 56
    },
    {
      "midi": 67,
      "hit": false,
      "t": 240731.27400000056,
      "d": 91.4632500000007,
      "v": 53
    },
    {
      "midi": 55,
      "hit": false,
      "t": 240731.27400000126,
      "d": 182.9265000000014,
      "v": 56
    },
    {
      "midi": 67,
      "hit": false,
      "t": 240914.20050000018,
      "d": 182.9265000000014,
      "v": 95
    },
    {
      "midi": 29,
      "hit": false,
      "t": 241097.1270000012,
      "d": 300.3043375000125,
      "v": 99
    },
    {
      "midi": 55,
      "hit": false,
      "t": 241097.12700000126,
      "d": 182.9265000000014,
      "v": 56
    },
    {
      "midi": 67,
      "hit": false,
      "t": 241280.05350000018,
      "d": 182.9265000000014,
      "v": 95
    },
    {
      "midi": 55,
      "hit": false,
      "t": 241280.05350000126,
      "d": 182.9265000000014,
      "v": 56
    },
    {
      "midi": 67,
      "hit": false,
      "t": 241462.98000000007,
      "d": 2743.897499999992,
      "v": 87
    },
    {
      "midi": 55,
      "hit": false,
      "t": 241462.98000000007,
      "d": 1463.4120000000112,
      "v": 77
    },
    {
      "midi": 59,
      "hit": false,
      "t": 241462.98000000007,
      "d": 1463.4120000000112,
      "v": 76
    },
    {
      "midi": 62,
      "hit": false,
      "t": 241462.98000000007,
      "d": 1463.4120000000112,
      "v": 76
    },
    {
      "midi": 55,
      "hit": false,
      "t": 241462.98000000019,
      "d": 1463.4120000000112,
      "v": 113
    },
    {
      "midi": 59,
      "hit": false,
      "t": 241462.98000000019,
      "d": 1463.4120000000112,
      "v": 113
    },
    {
      "midi": 62,
      "hit": false,
      "t": 241462.98000000019,
      "d": 1463.4120000000112,
      "v": 113
    },
    {
      "midi": 62,
      "hit": false,
      "t": 241462.98000000027,
      "d": 1463.4120000000112,
      "v": 61
    },
    {
      "midi": 67,
      "hit": false,
      "t": 241462.98000000027,
      "d": 1463.4120000000112,
      "v": 61
    },
    {
      "midi": 71,
      "hit": false,
      "t": 241462.98000000027,
      "d": 1463.4120000000112,
      "v": 61
    },
    {
      "midi": 55,
      "hit": false,
      "t": 241462.98000000036,
      "d": 1463.4120000000112,
      "v": 81
    },
    {
      "midi": 59,
      "hit": false,
      "t": 241462.98000000036,
      "d": 1463.4120000000112,
      "v": 81
    },
    {
      "midi": 62,
      "hit": false,
      "t": 241462.98000000036,
      "d": 1463.4120000000112,
      "v": 81
    },
    {
      "midi": 67,
      "hit": false,
      "t": 241462.98000000056,
      "d": 91.4632500000007,
      "v": 53
    },
    {
      "midi": 31,
      "hit": false,
      "t": 241462.9800000012,
      "d": 917.6812750000099,
      "v": 99
    },
    {
      "midi": 48,
      "hit": false,
      "t": 241462.98000000126,
      "d": 182.9265000000014,
      "v": 56
    },
    {
      "midi": 67,
      "hit": false,
      "t": 241645.9065000002,
      "d": 182.9265000000014,
      "v": 95
    },
    {
      "midi": 67,
      "hit": false,
      "t": 241645.90650000056,
      "d": 91.4632500000007,
      "v": 53
    },
    {
      "midi": 55,
      "hit": false,
      "t": 241645.90650000126,
      "d": 182.9265000000014,
      "v": 56
    },
    {
      "midi": 55,
      "hit": false,
      "t": 241828.83300000126,
      "d": 182.9265000000014,
      "v": 56
    },
    {
      "midi": 67,
      "hit": false,
      "t": 242011.7595000002,
      "d": 182.9265000000014,
      "v": 95
    },
    {
      "midi": 67,
      "hit": false,
      "t": 242011.75950000057,
      "d": 91.4632500000007,
      "v": 53
    },
    {
      "midi": 55,
      "hit": false,
      "t": 242011.75950000127,
      "d": 182.9265000000014,
      "v": 56
    },
    {
      "midi": 67,
      "hit": false,
      "t": 242194.6860000002,
      "d": 182.9265000000014,
      "v": 95
    },
    {
      "midi": 67,
      "hit": false,
      "t": 242194.68600000057,
      "d": 91.4632500000007,
      "v": 53
    },
    {
      "midi": 55,
      "hit": false,
      "t": 242194.68600000127,
      "d": 182.9265000000014,
      "v": 56
    },
    {
      "midi": 31,
      "hit": false,
      "t": 242560.5390000012,
      "d": 300.3043375000125,
      "v": 99
    },
    {
      "midi": 48,
      "hit": false,
      "t": 242560.53900000127,
      "d": 182.9265000000014,
      "v": 56
    },
    {
      "midi": 55,
      "hit": false,
      "t": 242743.46550000127,
      "d": 182.9265000000014,
      "v": 56
    },
    {
      "midi": 36,
      "hit": false,
      "t": 242918.77006250122,
      "d": 1471.033937500004,
      "v": 99
    },
    {
      "midi": 60,
      "hit": false,
      "t": 242926.39200000017,
      "d": 1646.3385000000126,
      "v": 54
    },
    {
      "midi": 64,
      "hit": false,
      "t": 242926.39200000017,
      "d": 1646.3385000000126,
      "v": 54
    },
    {
      "midi": 67,
      "hit": false,
      "t": 242926.39200000017,
      "d": 1646.3385000000126,
      "v": 54
    },
    {
      "midi": 72,
      "hit": false,
      "t": 242926.39200000017,
      "d": 1646.3385000000126,
      "v": 54
    },
    {
      "midi": 36,
      "hit": false,
      "t": 242926.3920000002,
      "d": 1463.4120000000112,
      "v": 93
    },
    {
      "midi": 48,
      "hit": false,
      "t": 242926.3920000002,
      "d": 1463.4120000000112,
      "v": 93
    },
    {
      "midi": 52,
      "hit": false,
      "t": 242926.3920000002,
      "d": 1463.4120000000112,
      "v": 93
    },
    {
      "midi": 55,
      "hit": false,
      "t": 242926.3920000002,
      "d": 1463.4120000000112,
      "v": 93
    },
    {
      "midi": 64,
      "hit": false,
      "t": 242926.39200000028,
      "d": 1463.4120000000112,
      "v": 61
    },
    {
      "midi": 67,
      "hit": false,
      "t": 242926.39200000028,
      "d": 1463.4120000000112,
      "v": 61
    },
    {
      "midi": 72,
      "hit": false,
      "t": 242926.39200000028,
      "d": 1463.4120000000112,
      "v": 61
    },
    {
      "midi": 60,
      "hit": false,
      "t": 242926.39200000037,
      "d": 1501.5216875000042,
      "v": 75
    },
    {
      "midi": 64,
      "hit": false,
      "t": 242926.39200000037,
      "d": 1501.5216875000042,
      "v": 75
    },
    {
      "midi": 60,
      "hit": false,
      "t": 242926.39200000057,
      "d": 91.4632500000007,
      "v": 53
    },
    {
      "midi": 55,
      "hit": false,
      "t": 242926.39200000127,
      "d": 182.9265000000014,
      "v": 56
    }
  ]
}