{
  "jsonPath": "Rock/Indie Folk/Heart/misty-mountain-hop.json",
  "path": "Rock\\Indie Folk\\Heart\\Misty Mountain Hop.mid",
  "name": "Misty Mountain Hop",
  "difficulty": "Advanced",
  "bpm": 140.00014000014,
  "notes": [
    {
      "midi": 45,
      "hit": false,
      "t": 3214.2825000000003,
      "d": 610.713675,
      "v": 100
    },
    {
      "midi": 57,
      "hit": false,
      "t": 3214.2825000000003,
      "d": 610.713675,
      "v": 100
    },
    {
      "midi": 64,
      "hit": false,
      "t": 3214.2825000000003,
      "d": 610.713675,
      "v": 100
    },
    {
      "midi": 43,
      "hit": false,
      "t": 3857.139,
      "d": 407.1424500000003,
      "v": 100
    },
    {
      "midi": 55,
      "hit": false,
      "t": 3857.139,
      "d": 407.1424500000003,
      "v": 100
    },
    {
      "midi": 64,
      "hit": false,
      "t": 3857.139,
      "d": 407.1424500000003,
      "v": 100
    },
    {
      "midi": 52,
      "hit": false,
      "t": 4285.71,
      "d": 203.57122499999969,
      "v": 100
    },
    {
      "midi": 40,
      "hit": false,
      "t": 4285.71,
      "d": 407.1424500000003,
      "v": 100
    },
    {
      "midi": 64,
      "hit": false,
      "t": 4499.9955,
      "d": 203.5712250000006,
      "v": 100
    },
    {
      "midi": 40,
      "hit": false,
      "t": 4714.281000000001,
      "d": 203.57122499999969,
      "v": 100
    },
    {
      "midi": 52,
      "hit": false,
      "t": 4714.281000000001,
      "d": 203.57122499999969,
      "v": 100
    },
    {
      "midi": 45,
      "hit": false,
      "t": 4928.566500000001,
      "d": 610.713675,
      "v": 100
    },
    {
      "midi": 64,
      "hit": false,
      "t": 4928.566500000001,
      "d": 610.713675,
      "v": 100
    },
    {
      "midi": 43,
      "hit": false,
      "t": 5571.423000000001,
      "d": 407.1424500000003,
      "v": 100
    },
    {
      "midi": 55,
      "hit": false,
      "t": 5571.423000000001,
      "d": 407.1424500000003,
      "v": 100
    },
    {
      "midi": 64,
      "hit": false,
      "t": 5571.423000000001,
      "d": 407.1424500000003,
      "v": 100
    },
    {
      "midi": 52,
      "hit": false,
      "t": 5999.994000000001,
      "d": 203.57122499999969,
      "v": 100
    },
    {
      "midi": 40,
      "hit": false,
      "t": 5999.994000000001,
      "d": 407.1424500000003,
      "v": 100
    },
    {
      "midi": 64,
      "hit": false,
      "t": 6214.279500000001,
      "d": 203.5712250000006,
      "v": 100
    },
    {
      "midi": 40,
      "hit": false,
      "t": 6428.565000000001,
      "d": 203.57122499999969,
      "v": 100
    },
    {
      "midi": 52,
      "hit": false,
      "t": 6428.565000000001,
      "d": 203.57122499999969,
      "v": 100
    },
    {
      "midi": 45,
      "hit": false,
      "t": 6642.850500000001,
      "d": 610.713675,
      "v": 100
    },
    {
      "midi": 64,
      "hit": false,
      "t": 6642.850500000001,
      "d": 610.713675,
      "v": 100
    },
    {
      "midi": 43,
      "hit": false,
      "t": 7285.707000000001,
      "d": 407.1424500000003,
      "v": 100
    },
    {
      "midi": 55,
      "hit": false,
      "t": 7285.707000000001,
      "d": 407.1424500000003,
      "v": 100
    },
    {
      "midi": 64,
      "hit": false,
      "t": 7285.707000000001,
      "d": 407.1424500000003,
      "v": 100
    },
    {
      "midi": 52,
      "hit": false,
      "t": 7714.278000000001,
      "d": 203.57122499999969,
      "v": 100
    },
    {
      "midi": 40,
      "hit": false,
      "t": 7714.278000000001,
      "d": 407.1424500000003,
      "v": 100
    },
    {
      "midi": 64,
      "hit": false,
      "t": 7928.563500000001,
      "d": 203.5712250000006,
      "v": 100
    },
    {
      "midi": 40,
      "hit": false,
      "t": 8142.849000000002,
      "d": 203.57122499999969,
      "v": 100
    },
    {
      "midi": 52,
      "hit": false,
      "t": 8142.849000000002,
      "d": 203.57122499999969,
      "v": 100
    },
    {
      "midi": 45,
      "hit": false,
      "t": 8357.134500000002,
      "d": 610.7136750000009,
      "v": 100
    },
    {
      "midi": 64,
      "hit": false,
      "t": 8357.134500000002,
      "d": 610.7136750000009,
      "v": 100
    },
    {
      "midi": 43,
      "hit": false,
      "t": 8999.991000000004,
      "d": 407.14244999999937,
      "v": 100
    },
    {
      "midi": 55,
      "hit": false,
      "t": 8999.991000000004,
      "d": 407.14244999999937,
      "v": 100
    },
    {
      "midi": 64,
      "hit": false,
      "t": 8999.991000000004,
      "d": 407.14244999999937,
      "v": 100
    },
    {
      "midi": 52,
      "hit": false,
      "t": 9428.562000000004,
      "d": 203.57122499999969,
      "v": 100
    },
    {
      "midi": 40,
      "hit": false,
      "t": 9428.562000000004,
      "d": 407.14244999999937,
      "v": 100
    },
    {
      "midi": 64,
      "hit": false,
      "t": 9642.847500000003,
      "d": 203.57122499999969,
      "v": 100
    },
    {
      "midi": 40,
      "hit": false,
      "t": 9857.133000000003,
      "d": 203.57122499999969,
      "v": 100
    },
    {
      "midi": 52,
      "hit": false,
      "t": 9857.133000000003,
      "d": 203.57122499999969,
      "v": 100
    },
    {
      "midi": 45,
      "hit": false,
      "t": 10071.418500000003,
      "d": 610.7136750000009,
      "v": 100
    },
    {
      "midi": 64,
      "hit": false,
      "t": 10071.418500000003,
      "d": 610.7136750000009,
      "v": 100
    },
    {
      "midi": 43,
      "hit": false,
      "t": 10714.275000000005,
      "d": 407.14244999999937,
      "v": 100
    },
    {
      "midi": 55,
      "hit": false,
      "t": 10714.275000000005,
      "d": 407.14244999999937,
      "v": 100
    },
    {
      "midi": 64,
      "hit": false,
      "t": 10714.275000000005,
      "d": 407.14244999999937,
      "v": 100
    },
    {
      "midi": 52,
      "hit": false,
      "t": 11142.846000000005,
      "d": 203.57122499999969,
      "v": 100
    },
    {
      "midi": 40,
      "hit": false,
      "t": 11142.846000000005,
      "d": 407.14244999999937,
      "v": 100
    },
    {
      "midi": 64,
      "hit": false,
      "t": 11357.131500000005,
      "d": 203.57122499999969,
      "v": 100
    },
    {
      "midi": 40,
      "hit": false,
      "t": 11571.417000000005,
      "d": 203.57122499999969,
      "v": 100
    },
    {
      "midi": 52,
      "hit": false,
      "t": 11571.417000000005,
      "d": 203.57122499999969,
      "v": 100
    },
    {
      "midi": 45,
      "hit": false,
      "t": 11785.702500000005,
      "d": 610.7136750000009,
      "v": 100
    },
    {
      "midi": 64,
      "hit": false,
      "t": 11785.702500000005,
      "d": 610.7136750000009,
      "v": 100
    },
    {
      "midi": 43,
      "hit": false,
      "t": 12428.559000000007,
      "d": 407.14244999999937,
      "v": 100
    },
    {
      "midi": 55,
      "hit": false,
      "t": 12428.559000000007,
      "d": 407.14244999999937,
      "v": 100
    },
    {
      "midi": 64,
      "hit": false,
      "t": 12428.559000000007,
      "d": 407.14244999999937,
      "v": 100
    },
    {
      "midi": 52,
      "hit": false,
      "t": 12857.130000000006,
      "d": 203.57122499999969,
      "v": 100
    },
    {
      "midi": 40,
      "hit": false,
      "t": 12857.130000000006,
      "d": 407.14244999999937,
      "v": 100
    },
    {
      "midi": 64,
      "hit": false,
      "t": 13071.415500000006,
      "d": 203.57122499999969,
      "v": 100
    },
    {
      "midi": 40,
      "hit": false,
      "t": 13285.701000000006,
      "d": 203.57122499999969,
      "v": 100
    },
    {
      "midi": 52,
      "hit": false,
      "t": 13285.701000000006,
      "d": 203.57122499999969,
      "v": 100
    },
    {
      "midi": 45,
      "hit": false,
      "t": 13499.986500000006,
      "d": 610.7136750000009,
      "v": 100
    },
    {
      "midi": 64,
      "hit": false,
      "t": 13499.986500000006,
      "d": 610.7136750000009,
      "v": 100
    },
    {
      "midi": 43,
      "hit": false,
      "t": 14142.843000000008,
      "d": 407.14244999999937,
      "v": 100
    },
    {
      "midi": 55,
      "hit": false,
      "t": 14142.843000000008,
      "d": 407.14244999999937,
      "v": 100
    },
    {
      "midi": 64,
      "hit": false,
      "t": 14142.843000000008,
      "d": 407.14244999999937,
      "v": 100
    },
    {
      "midi": 52,
      "hit": false,
      "t": 14571.414000000008,
      "d": 203.57122499999969,
      "v": 100
    },
    {
      "midi": 40,
      "hit": false,
      "t": 14571.414000000008,
      "d": 407.14244999999937,
      "v": 100
    },
    {
      "midi": 64,
      "hit": false,
      "t": 14785.699500000008,
      "d": 203.57122499999969,
      "v": 100
    },
    {
      "midi": 40,
      "hit": false,
      "t": 14999.985000000008,
      "d": 203.57122499999969,
      "v": 100
    },
    {
      "midi": 52,
      "hit": false,
      "t": 14999.985000000008,
      "d": 203.57122499999969,
      "v": 100
    },
    {
      "midi": 45,
      "hit": false,
      "t": 15214.270500000008,
      "d": 610.7136750000009,
      "v": 100
    },
    {
      "midi": 64,
      "hit": false,
      "t": 15214.270500000008,
      "d": 610.7136750000009,
      "v": 100
    },
    {
      "midi": 43,
      "hit": false,
      "t": 15857.12700000001,
      "d": 407.14244999999937,
      "v": 100
    },
    {
      "midi": 55,
      "hit": false,
      "t": 15857.12700000001,
      "d": 407.14244999999937,
      "v": 100
    },
    {
      "midi": 64,
      "hit": false,
      "t": 15857.12700000001,
      "d": 407.14244999999937,
      "v": 100
    },
    {
      "midi": 52,
      "hit": false,
      "t": 16285.69800000001,
      "d": 203.5712250000015,
      "v": 100
    },
    {
      "midi": 40,
      "hit": false,
      "t": 16285.69800000001,
      "d": 407.1424500000012,
      "v": 100
    },
    {
      "midi": 64,
      "hit": false,
      "t": 16499.98350000001,
      "d": 203.57122499999969,
      "v": 100
    },
    {
      "midi": 40,
      "hit": false,
      "t": 16714.269000000008,
      "d": 203.57122499999969,
      "v": 100
    },
    {
      "midi": 52,
      "hit": false,
      "t": 16714.269000000008,
      "d": 203.57122499999969,
      "v": 100
    },
    {
      "midi": 45,
      "hit": false,
      "t": 16928.554500000006,
      "d": 610.7136749999991,
      "v": 100
    },
    {
      "midi": 64,
      "hit": false,
      "t": 16928.554500000006,
      "d": 610.7136749999991,
      "v": 100
    },
    {
      "midi": 46,
      "hit": false,
      "t": 17571.411000000004,
      "d": 407.14244999999937,
      "v": 100
    },
    {
      "midi": 56,
      "hit": false,
      "t": 17571.411000000004,
      "d": 407.14244999999937,
      "v": 100
    },
    {
      "midi": 57,
      "hit": false,
      "t": 17571.411000000004,
      "d": 407.14244999999937,
      "v": 100
    },
    {
      "midi": 62,
      "hit": false,
      "t": 17571.411000000004,
      "d": 407.14244999999937,
      "v": 100
    },
    {
      "midi": 44,
      "hit": false,
      "t": 17999.982000000004,
      "d": 407.14244999999937,
      "v": 100
    },
    {
      "midi": 54,
      "hit": false,
      "t": 17999.982000000004,
      "d": 407.14244999999937,
      "v": 100
    },
    {
      "midi": 60,
      "hit": false,
      "t": 17999.982000000004,
      "d": 407.14244999999937,
      "v": 100
    },
    {
      "midi": 45,
      "hit": false,
      "t": 18428.553000000004,
      "d": 407.14244999999937,
      "v": 100
    },
    {
      "midi": 55,
      "hit": false,
      "t": 18428.553000000004,
      "d": 407.14244999999937,
      "v": 100
    },
    {
      "midi": 61,
      "hit": false,
      "t": 18428.553000000004,
      "d": 407.14244999999937,
      "v": 100
    },
    {
      "midi": 46,
      "hit": false,
      "t": 18857.124000000003,
      "d": 407.14244999999937,
      "v": 100
    },
    {
      "midi": 56,
      "hit": false,
      "t": 18857.124000000003,
      "d": 407.14244999999937,
      "v": 100
    },
    {
      "midi": 57,
      "hit": false,
      "t": 18857.124000000003,
      "d": 407.14244999999937,
      "v": 100
    },
    {
      "midi": 62,
      "hit": false,
      "t": 18857.124000000003,
      "d": 407.14244999999937,
      "v": 100
    },
    {
      "midi": 44,
      "hit": false,
      "t": 19285.695000000003,
      "d": 407.14244999999937,
      "v": 100
    },
    {
      "midi": 54,
      "hit": false,
      "t": 19285.695000000003,
      "d": 407.14244999999937,
      "v": 100
    },
    {
      "midi": 60,
      "hit": false,
      "t": 19285.695000000003,
      "d": 407.14244999999937,
      "v": 100
    },
    {
      "midi": 45,
      "hit": false,
      "t": 19714.266000000003,
      "d": 407.14244999999937,
      "v": 100
    },
    {
      "midi": 55,
      "hit": false,
      "t": 19714.266000000003,
      "d": 407.14244999999937,
      "v": 100
    },
    {
      "midi": 61,
      "hit": false,
      "t": 19714.266000000003,
      "d": 407.14244999999937,
      "v": 100
    },
    {
      "midi": 46,
      "hit": false,
      "t": 20142.837000000003,
      "d": 407.14244999999937,
      "v": 100
    },
    {
      "midi": 56,
      "hit": false,
      "t": 20142.837000000003,
      "d": 407.14244999999937,
      "v": 100
    },
    {
      "midi": 57,
      "hit": false,
      "t": 20142.837000000003,
      "d": 407.14244999999937,
      "v": 100
    },
    {
      "midi": 62,
      "hit": false,
      "t": 20142.837000000003,
      "d": 407.14244999999937,
      "v": 100
    },
    {
      "midi": 44,
      "hit": false,
      "t": 20571.408000000003,
      "d": 407.14244999999937,
      "v": 100
    },
    {
      "midi": 54,
      "hit": false,
      "t": 20571.408000000003,
      "d": 407.14244999999937,
      "v": 100
    },
    {
      "midi": 60,
      "hit": false,
      "t": 20571.408000000003,
      "d": 407.14244999999937,
      "v": 100
    },
    {
      "midi": 45,
      "hit": false,
      "t": 20999.979000000003,
      "d": 407.14244999999937,
      "v": 100
    },
    {
      "midi": 55,
      "hit": false,
      "t": 20999.979000000003,
      "d": 407.14244999999937,
      "v": 100
    },
    {
      "midi": 61,
      "hit": false,
      "t": 20999.979000000003,
      "d": 407.14244999999937,
      "v": 100
    },
    {
      "midi": 46,
      "hit": false,
      "t": 21428.550000000003,
      "d": 407.14244999999937,
      "v": 100
    },
    {
      "midi": 56,
      "hit": false,
      "t": 21428.550000000003,
      "d": 407.14244999999937,
      "v": 100
    },
    {
      "midi": 57,
      "hit": false,
      "t": 21428.550000000003,
      "d": 407.14244999999937,
      "v": 100
    },
    {
      "midi": 62,
      "hit": false,
      "t": 21428.550000000003,
      "d": 407.14244999999937,
      "v": 100
    },
    {
      "midi": 44,
      "hit": false,
      "t": 21857.121000000003,
      "d": 407.14244999999937,
      "v": 100
    },
    {
      "midi": 54,
      "hit": false,
      "t": 21857.121000000003,
      "d": 407.14244999999937,
      "v": 100
    },
    {
      "midi": 60,
      "hit": false,
      "t": 21857.121000000003,
      "d": 407.14244999999937,
      "v": 100
    },
    {
      "midi": 45,
      "hit": false,
      "t": 22285.692000000003,
      "d": 407.14244999999937,
      "v": 100
    },
    {
      "midi": 55,
      "hit": false,
      "t": 22285.692000000003,
      "d": 407.14244999999937,
      "v": 100
    },
    {
      "midi": 61,
      "hit": false,
      "t": 22285.692000000003,
      "d": 407.14244999999937,
      "v": 100
    },
    {
      "midi": 46,
      "hit": false,
      "t": 22714.263000000003,
      "d": 407.14244999999937,
      "v": 100
    },
    {
      "midi": 56,
      "hit": false,
      "t": 22714.263000000003,
      "d": 407.14244999999937,
      "v": 100
    },
    {
      "midi": 57,
      "hit": false,
      "t": 22714.263000000003,
      "d": 407.14244999999937,
      "v": 100
    },
    {
      "midi": 62,
      "hit": false,
      "t": 22714.263000000003,
      "d": 407.14244999999937,
      "v": 100
    },
    {
      "midi": 44,
      "hit": false,
      "t": 23142.834000000003,
      "d": 407.14244999999937,
      "v": 100
    },
    {
      "midi": 54,
      "hit": false,
      "t": 23142.834000000003,
      "d": 407.14244999999937,
      "v": 100
    },
    {
      "midi": 60,
      "hit": false,
      "t": 23142.834000000003,
      "d": 407.14244999999937,
      "v": 100
    },
    {
      "midi": 44,
      "hit": false,
      "t": 23571.405000000002,
      "d": 203.57122499999969,
      "v": 100
    },
    {
      "midi": 55,
      "hit": false,
      "t": 23571.405000000002,
      "d": 203.57122499999969,
      "v": 100
    },
    {
      "midi": 61,
      "hit": false,
      "t": 23571.405000000002,
      "d": 203.57122499999969,
      "v": 100
    },
    {
      "midi": 45,
      "hit": false,
      "t": 23785.6905,
      "d": 610.7136749999991,
      "v": 100
    },
    {
      "midi": 57,
      "hit": false,
      "t": 23785.6905,
      "d": 610.7136749999991,
      "v": 100
    },
    {
      "midi": 64,
      "hit": false,
      "t": 23785.6905,
      "d": 610.7136749999991,
      "v": 100
    },
    {
      "midi": 43,
      "hit": false,
      "t": 24428.547,
      "d": 407.14244999999937,
      "v": 100
    },
    {
      "midi": 55,
      "hit": false,
      "t": 24428.547,
      "d": 407.14244999999937,
      "v": 100
    },
    {
      "midi": 64,
      "hit": false,
      "t": 24428.547,
      "d": 407.14244999999937,
      "v": 100
    },
    {
      "midi": 52,
      "hit": false,
      "t": 24857.118,
      "d": 203.57122499999969,
      "v": 100
    },
    {
      "midi": 40,
      "hit": false,
      "t": 24857.118,
      "d": 407.14244999999937,
      "v": 100
    },
    {
      "midi": 64,
      "hit": false,
      "t": 25071.403499999997,
      "d": 203.57122499999969,
      "v": 100
    },
    {
      "midi": 40,
      "hit": false,
      "t": 25285.688999999995,
      "d": 203.57122499999969,
      "v": 100
    },
    {
      "midi": 52,
      "hit": false,
      "t": 25285.688999999995,
      "d": 203.57122499999969,
      "v": 100
    },
    {
      "midi": 45,
      "hit": false,
      "t": 25499.974499999993,
      "d": 610.7136749999991,
      "v": 100
    },
    {
      "midi": 64,
      "hit": false,
      "t": 25499.974499999993,
      "d": 610.7136749999991,
      "v": 100
    },
    {
      "midi": 43,
      "hit": false,
      "t": 26142.83099999999,
      "d": 407.14244999999937,
      "v": 100
    },
    {
      "midi": 55,
      "hit": false,
      "t": 26142.83099999999,
      "d": 407.14244999999937,
      "v": 100
    },
    {
      "midi": 64,
      "hit": false,
      "t": 26142.83099999999,
      "d": 407.14244999999937,
      "v": 100
    },
    {
      "midi": 52,
      "hit": false,
      "t": 26571.40199999999,
      "d": 203.57122499999969,
      "v": 100
    },
    {
      "midi": 40,
      "hit": false,
      "t": 26571.40199999999,
      "d": 407.14244999999937,
      "v": 100
    },
    {
      "midi": 64,
      "hit": false,
      "t": 26785.68749999999,
      "d": 203.57122499999969,
      "v": 100
    },
    {
      "midi": 40,
      "hit": false,
      "t": 26999.972999999987,
      "d": 203.57122499999969,
      "v": 100
    },
    {
      "midi": 52,
      "hit": false,
      "t": 26999.972999999987,
      "d": 203.57122499999969,
      "v": 100
    },
    {
      "midi": 45,
      "hit": false,
      "t": 27214.258499999985,
      "d": 610.7136749999991,
      "v": 100
    },
    {
      "midi": 64,
      "hit": false,
      "t": 27214.258499999985,
      "d": 610.7136749999991,
      "v": 100
    },
    {
      "midi": 43,
      "hit": false,
      "t": 27857.114999999983,
      "d": 407.14244999999937,
      "v": 100
    },
    {
      "midi": 55,
      "hit": false,
      "t": 27857.114999999983,
      "d": 407.14244999999937,
      "v": 100
    },
    {
      "midi": 64,
      "hit": false,
      "t": 27857.114999999983,
      "d": 407.14244999999937,
      "v": 100
    },
    {
      "midi": 52,
      "hit": false,
      "t": 28285.685999999983,
      "d": 203.57122499999969,
      "v": 100
    },
    {
      "midi": 40,
      "hit": false,
      "t": 28285.685999999983,
      "d": 407.14244999999937,
      "v": 100
    },
    {
      "midi": 64,
      "hit": false,
      "t": 28499.97149999998,
      "d": 203.57122499999969,
      "v": 100
    },
    {
      "midi": 40,
      "hit": false,
      "t": 28714.25699999998,
      "d": 203.57122499999969,
      "v": 100
    },
    {
      "midi": 52,
      "hit": false,
      "t": 28714.25699999998,
      "d": 203.57122499999969,
      "v": 100
    },
    {
      "midi": 45,
      "hit": false,
      "t": 28928.542499999978,
      "d": 610.7136749999991,
      "v": 100
    },
    {
      "midi": 64,
      "hit": false,
      "t": 28928.542499999978,
      "d": 610.7136749999991,
      "v": 100
    },
    {
      "midi": 43,
      "hit": false,
      "t": 29571.398999999976,
      "d": 407.14244999999937,
      "v": 100
    },
    {
      "midi": 55,
      "hit": false,
      "t": 29571.398999999976,
      "d": 407.14244999999937,
      "v": 100
    },
    {
      "midi": 64,
      "hit": false,
      "t": 29571.398999999976,
      "d": 407.14244999999937,
      "v": 100
    },
    {
      "midi": 52,
      "hit": false,
      "t": 29999.969999999976,
      "d": 203.57122499999969,
      "v": 100
    },
    {
      "midi": 40,
      "hit": false,
      "t": 29999.969999999976,
      "d": 407.14244999999937,
      "v": 100
    },
    {
      "midi": 64,
      "hit": false,
      "t": 30214.255499999974,
      "d": 203.57122499999969,
      "v": 100
    },
    {
      "midi": 40,
      "hit": false,
      "t": 30428.540999999972,
      "d": 203.57122499999969,
      "v": 100
    },
    {
      "midi": 52,
      "hit": false,
      "t": 30428.540999999972,
      "d": 203.57122499999969,
      "v": 100
    },
    {
      "midi": 45,
      "hit": false,
      "t": 30642.82649999997,
      "d": 610.7136749999991,
      "v": 100
    },
    {
      "midi": 64,
      "hit": false,
      "t": 30642.82649999997,
      "d": 610.7136749999991,
      "v": 100
    },
    {
      "midi": 46,
      "hit": false,
      "t": 31285.682999999968,
      "d": 407.14244999999937,
      "v": 100
    },
    {
      "midi": 56,
      "hit": false,
      "t": 31285.682999999968,
      "d": 407.14244999999937,
      "v": 100
    },
    {
      "midi": 57,
      "hit": false,
      "t": 31285.682999999968,
      "d": 407.14244999999937,
      "v": 100
    },
    {
      "midi": 62,
      "hit": false,
      "t": 31285.682999999968,
      "d": 407.14244999999937,
      "v": 100
    },
    {
      "midi": 44,
      "hit": false,
      "t": 31714.253999999968,
      "d": 407.14244999999937,
      "v": 100
    },
    {
      "midi": 54,
      "hit": false,
      "t": 31714.253999999968,
      "d": 407.14244999999937,
      "v": 100
    },
    {
      "midi": 60,
      "hit": false,
      "t": 31714.253999999968,
      "d": 407.14244999999937,
      "v": 100
    },
    {
      "midi": 45,
      "hit": false,
      "t": 32142.824999999968,
      "d": 407.14244999999937,
      "v": 100
    },
    {
      "midi": 55,
      "hit": false,
      "t": 32142.824999999968,
      "d": 407.14244999999937,
      "v": 100
    },
    {
      "midi": 61,
      "hit": false,
      "t": 32142.824999999968,
      "d": 407.14244999999937,
      "v": 100
    },
    {
      "midi": 46,
      "hit": false,
      "t": 32571.395999999968,
      "d": 407.142450000003,
      "v": 100
    },
    {
      "midi": 56,
      "hit": false,
      "t": 32571.395999999968,
      "d": 407.142450000003,
      "v": 100
    },
    {
      "midi": 57,
      "hit": false,
      "t": 32571.395999999968,
      "d": 407.142450000003,
      "v": 100
    },
    {
      "midi": 62,
      "hit": false,
      "t": 32571.395999999968,
      "d": 407.142450000003,
      "v": 100
    },
    {
      "midi": 44,
      "hit": false,
      "t": 32999.96699999997,
      "d": 407.14244999999937,
      "v": 100
    },
    {
      "midi": 54,
      "hit": false,
      "t": 32999.96699999997,
      "d": 407.14244999999937,
      "v": 100
    },
    {
      "midi": 60,
      "hit": false,
      "t": 32999.96699999997,
      "d": 407.14244999999937,
      "v": 100
    },
    {
      "midi": 45,
      "hit": false,
      "t": 33428.537999999964,
      "d": 407.14244999999937,
      "v": 100
    },
    {
      "midi": 55,
      "hit": false,
      "t": 33428.537999999964,
      "d": 407.14244999999937,
      "v": 100
    },
    {
      "midi": 61,
      "hit": false,
      "t": 33428.537999999964,
      "d": 407.14244999999937,
      "v": 100
    },
    {
      "midi": 46,
      "hit": false,
      "t": 33857.10899999996,
      "d": 407.14244999999937,
      "v": 100
    },
    {
      "midi": 56,
      "hit": false,
      "t": 33857.10899999996,
      "d": 407.14244999999937,
      "v": 100
    },
    {
      "midi": 57,
      "hit": false,
      "t": 33857.10899999996,
      "d": 407.14244999999937,
      "v": 100
    },
    {
      "midi": 62,
      "hit": false,
      "t": 33857.10899999996,
      "d": 407.14244999999937,
      "v": 100
    },
    {
      "midi": 44,
      "hit": false,
      "t": 34285.67999999996,
      "d": 407.14244999999937,
      "v": 100
    },
    {
      "midi": 54,
      "hit": false,
      "t": 34285.67999999996,
      "d": 407.14244999999937,
      "v": 100
    },
    {
      "midi": 60,
      "hit": false,
      "t": 34285.67999999996,
      "d": 407.14244999999937,
      "v": 100
    },
    {
      "midi": 45,
      "hit": false,
      "t": 34714.25099999995,
      "d": 407.14244999999937,
      "v": 100
    },
    {
      "midi": 55,
      "hit": false,
      "t": 34714.25099999995,
      "d": 407.14244999999937,
      "v": 100
    },
    {
      "midi": 61,
      "hit": false,
      "t": 34714.25099999995,
      "d": 407.14244999999937,
      "v": 100
    },
    {
      "midi": 46,
      "hit": false,
      "t": 35142.82199999995,
      "d": 407.14244999999937,
      "v": 100
    },
    {
      "midi": 56,
      "hit": false,
      "t": 35142.82199999995,
      "d": 407.14244999999937,
      "v": 100
    },
    {
      "midi": 57,
      "hit": false,
      "t": 35142.82199999995,
      "d": 407.14244999999937,
      "v": 100
    },
    {
      "midi": 62,
      "hit": false,
      "t": 35142.82199999995,
      "d": 407.14244999999937,
      "v": 100
    },
    {
      "midi": 44,
      "hit": false,
      "t": 35571.392999999945,
      "d": 407.14244999999937,
      "v": 100
    },
    {
      "midi": 54,
      "hit": false,
      "t": 35571.392999999945,
      "d": 407.14244999999937,
      "v": 100
    },
    {
      "midi": 60,
      "hit": false,
      "t": 35571.392999999945,
      "d": 407.14244999999937,
      "v": 100
    },
    {
      "midi": 45,
      "hit": false,
      "t": 35999.96399999994,
      "d": 407.14244999999937,
      "v": 100
    },
    {
      "midi": 55,
      "hit": false,
      "t": 35999.96399999994,
      "d": 407.14244999999937,
      "v": 100
    },
    {
      "midi": 61,
      "hit": false,
      "t": 35999.96399999994,
      "d": 407.14244999999937,
      "v": 100
    },
    {
      "midi": 46,
      "hit": false,
      "t": 36428.53499999994,
      "d": 407.14244999999937,
      "v": 100
    },
    {
      "midi": 56,
      "hit": false,
      "t": 36428.53499999994,
      "d": 407.14244999999937,
      "v": 100
    },
    {
      "midi": 57,
      "hit": false,
      "t": 36428.53499999994,
      "d": 407.14244999999937,
      "v": 100
    },
    {
      "midi": 62,
      "hit": false,
      "t": 36428.53499999994,
      "d": 407.14244999999937,
      "v": 100
    },
    {
      "midi": 44,
      "hit": false,
      "t": 36857.105999999934,
      "d": 407.14244999999937,
      "v": 100
    },
    {
      "midi": 54,
      "hit": false,
      "t": 36857.105999999934,
      "d": 407.14244999999937,
      "v": 100
    },
    {
      "midi": 60,
      "hit": false,
      "t": 36857.105999999934,
      "d": 407.14244999999937,
      "v": 100
    },
    {
      "midi": 44,
      "hit": false,
      "t": 37285.67699999993,
      "d": 203.57122499999969,
      "v": 100
    },
    {
      "midi": 55,
      "hit": false,
      "t": 37285.67699999993,
      "d": 203.57122499999969,
      "v": 100
    },
    {
      "midi": 61,
      "hit": false,
      "t": 37285.67699999993,
      "d": 203.57122499999969,
      "v": 100
    },
    {
      "midi": 45,
      "hit": false,
      "t": 37499.96249999993,
      "d": 610.7136749999991,
      "v": 100
    },
    {
      "midi": 57,
      "hit": false,
      "t": 37499.96249999993,
      "d": 610.7136749999991,
      "v": 100
    },
    {
      "midi": 64,
      "hit": false,
      "t": 37499.96249999993,
      "d": 610.7136749999991,
      "v": 100
    },
    {
      "midi": 43,
      "hit": false,
      "t": 38142.81899999993,
      "d": 407.14244999999937,
      "v": 100
    },
    {
      "midi": 55,
      "hit": false,
      "t": 38142.81899999993,
      "d": 407.14244999999937,
      "v": 100
    },
    {
      "midi": 64,
      "hit": false,
      "t": 38142.81899999993,
      "d": 407.14244999999937,
      "v": 100
    },
    {
      "midi": 52,
      "hit": false,
      "t": 38571.38999999993,
      "d": 203.57122499999969,
      "v": 100
    },
    {
      "midi": 40,
      "hit": false,
      "t": 38571.38999999993,
      "d": 407.14244999999937,
      "v": 100
    },
    {
      "midi": 64,
      "hit": false,
      "t": 38785.675499999925,
      "d": 203.57122499999969,
      "v": 100
    },
    {
      "midi": 40,
      "hit": false,
      "t": 38999.96099999992,
      "d": 203.57122499999969,
      "v": 100
    },
    {
      "midi": 52,
      "hit": false,
      "t": 38999.96099999992,
      "d": 203.57122499999969,
      "v": 100
    },
    {
      "midi": 45,
      "hit": false,
      "t": 39214.24649999992,
      "d": 610.7136749999991,
      "v": 100
    },
    {
      "midi": 64,
      "hit": false,
      "t": 39214.24649999992,
      "d": 610.7136749999991,
      "v": 100
    },
    {
      "midi": 43,
      "hit": false,
      "t": 39857.10299999992,
      "d": 407.14244999999937,
      "v": 100
    },
    {
      "midi": 55,
      "hit": false,
      "t": 39857.10299999992,
      "d": 407.14244999999937,
      "v": 100
    },
    {
      "midi": 64,
      "hit": false,
      "t": 39857.10299999992,
      "d": 407.14244999999937,
      "v": 100
    },
    {
      "midi": 52,
      "hit": false,
      "t": 40285.67399999992,
      "d": 203.57122499999969,
      "v": 100
    },
    {
      "midi": 40,
      "hit": false,
      "t": 40285.67399999992,
      "d": 407.14244999999937,
      "v": 100
    },
    {
      "midi": 64,
      "hit": false,
      "t": 40499.95949999992,
      "d": 203.57122499999969,
      "v": 100
    },
    {
      "midi": 40,
      "hit": false,
      "t": 40714.244999999915,
      "d": 203.57122499999969,
      "v": 100
    },
    {
      "midi": 52,
      "hit": false,
      "t": 40714.244999999915,
      "d": 203.57122499999969,
      "v": 100
    },
    {
      "midi": 45,
      "hit": false,
      "t": 40928.53049999991,
      "d": 610.7136749999991,
      "v": 100
    },
    {
      "midi": 64,
      "hit": false,
      "t": 40928.53049999991,
      "d": 610.7136749999991,
      "v": 100
    },
    {
      "midi": 43,
      "hit": false,
      "t": 41571.386999999915,
      "d": 407.14244999999937,
      "v": 100
    },
    {
      "midi": 55,
      "hit": false,
      "t": 41571.386999999915,
      "d": 407.14244999999937,
      "v": 100
    },
    {
      "midi": 64,
      "hit": false,
      "t": 41571.386999999915,
      "d": 407.14244999999937,
      "v": 100
    },
    {
      "midi": 52,
      "hit": false,
      "t": 41999.95799999991,
      "d": 203.57122499999969,
      "v": 100
    },
    {
      "midi": 40,
      "hit": false,
      "t": 41999.95799999991,
      "d": 407.14244999999937,
      "v": 100
    },
    {
      "midi": 64,
      "hit": false,
      "t": 42214.24349999991,
      "d": 203.57122499999969,
      "v": 100
    },
    {
      "midi": 40,
      "hit": false,
      "t": 42428.52899999991,
      "d": 203.57122499999969,
      "v": 100
    },
    {
      "midi": 52,
      "hit": false,
      "t": 42428.52899999991,
      "d": 203.57122499999969,
      "v": 100
    },
    {
      "midi": 45,
      "hit": false,
      "t": 42642.814499999906,
      "d": 610.7136749999991,
      "v": 100
    },
    {
      "midi": 64,
      "hit": false,
      "t": 42642.814499999906,
      "d": 610.7136749999991,
      "v": 100
    },
    {
      "midi": 43,
      "hit": false,
      "t": 43285.67099999991,
      "d": 407.14244999999937,
      "v": 100
    },
    {
      "midi": 55,
      "hit": false,
      "t": 43285.67099999991,
      "d": 407.14244999999937,
      "v": 100
    },
    {
      "midi": 64,
      "hit": false,
      "t": 43285.67099999991,
      "d": 407.14244999999937,
      "v": 100
    },
    {
      "midi": 52,
      "hit": false,
      "t": 43714.241999999904,
      "d": 203.57122499999969,
      "v": 100
    },
    {
      "midi": 40,
      "hit": false,
      "t": 43714.241999999904,
      "d": 407.14244999999937,
      "v": 100
    },
    {
      "midi": 64,
      "hit": false,
      "t": 43928.5274999999,
      "d": 203.57122499999969,
      "v": 100
    },
    {
      "midi": 52,
      "hit": false,
      "t": 44142.8129999999,
      "d": 203.57122499999969,
      "v": 100
    },
    {
      "midi": 61,
      "hit": false,
      "t": 44357.0984999999,
      "d": 203.57122499999969,
      "v": 100
    },
    {
      "midi": 50,
      "hit": false,
      "t": 44571.383999999896,
      "d": 203.57122499999969,
      "v": 100
    },
    {
      "midi": 57,
      "hit": false,
      "t": 44571.383999999896,
      "d": 203.57122499999969,
      "v": 100
    },
    {
      "midi": 62,
      "hit": false,
      "t": 44571.383999999896,
      "d": 203.57122499999969,
      "v": 100
    },
    {
      "midi": 66,
      "hit": false,
      "t": 44571.383999999896,
      "d": 203.57122499999969,
      "v": 100
    },
    {
      "midi": 50,
      "hit": false,
      "t": 44785.669499999894,
      "d": 407.14244999999937,
      "v": 100
    },
    {
      "midi": 57,
      "hit": false,
      "t": 44785.669499999894,
      "d": 407.14244999999937,
      "v": 100
    },
    {
      "midi": 62,
      "hit": false,
      "t": 44785.669499999894,
      "d": 407.14244999999937,
      "v": 100
    },
    {
      "midi": 66,
      "hit": false,
      "t": 44785.669499999894,
      "d": 407.14244999999937,
      "v": 100
    },
    {
      "midi": 45,
      "hit": false,
      "t": 45214.24049999989,
      "d": 203.57122499999969,
      "v": 100
    },
    {
      "midi": 57,
      "hit": false,
      "t": 45214.24049999989,
      "d": 203.57122499999969,
      "v": 100
    },
    {
      "midi": 50,
      "hit": false,
      "t": 45428.52599999989,
      "d": 610.7136749999991,
      "v": 100
    },
    {
      "midi": 57,
      "hit": false,
      "t": 45428.52599999989,
      "d": 610.7136749999991,
      "v": 100
    },
    {
      "midi": 62,
      "hit": false,
      "t": 45428.52599999989,
      "d": 610.7136749999991,
      "v": 100
    },
    {
      "midi": 66,
      "hit": false,
      "t": 45428.52599999989,
      "d": 610.7136749999991,
      "v": 100
    },
    {
      "midi": 54,
      "hit": false,
      "t": 46071.38249999989,
      "d": 203.57122499999969,
      "v": 100
    },
    {
      "midi": 58,
      "hit": false,
      "t": 46071.38249999989,
      "d": 203.57122499999969,
      "v": 100
    },
    {
      "midi": 43,
      "hit": false,
      "t": 46285.66799999989,
      "d": 203.57122499999969,
      "v": 100
    },
    {
      "midi": 59,
      "hit": false,
      "t": 46285.66799999989,
      "d": 203.57122499999969,
      "v": 100
    },
    {
      "midi": 55,
      "hit": false,
      "t": 46296.38227499989,
      "d": 203.57122499999969,
      "v": 100
    },
    {
      "midi": 43,
      "hit": false,
      "t": 46489.23922499989,
      "d": 407.14244999999937,
      "v": 100
    },
    {
      "midi": 67,
      "hit": false,
      "t": 46524.953474999886,
      "d": 203.57122499999969,
      "v": 100
    },
    {
      "midi": 54,
      "hit": false,
      "t": 46714.238999999885,
      "d": 203.57122499999969,
      "v": 100
    },
    {
      "midi": 58,
      "hit": false,
      "t": 46714.238999999885,
      "d": 203.57122499999969,
      "v": 100
    },
    {
      "midi": 44,
      "hit": false,
      "t": 46928.52449999988,
      "d": 203.57122499999969,
      "v": 100
    },
    {
      "midi": 56,
      "hit": false,
      "t": 46928.52449999988,
      "d": 203.57122499999969,
      "v": 100
    },
    {
      "midi": 59,
      "hit": false,
      "t": 46928.52449999988,
      "d": 203.57122499999969,
      "v": 100
    },
    {
      "midi": 43,
      "hit": false,
      "t": 47142.80999999988,
      "d": 407.14244999999937,
      "v": 100
    },
    {
      "midi": 59,
      "hit": false,
      "t": 47142.80999999988,
      "d": 407.14244999999937,
      "v": 100
    },
    {
      "midi": 62,
      "hit": false,
      "t": 47142.80999999988,
      "d": 407.14244999999937,
      "v": 100
    },
    {
      "midi": 67,
      "hit": false,
      "t": 47142.80999999988,
      "d": 407.14244999999937,
      "v": 100
    },
    {
      "midi": 45,
      "hit": false,
      "t": 47785.66649999988,
      "d": 610.7136749999991,
      "v": 100
    },
    {
      "midi": 57,
      "hit": false,
      "t": 47785.66649999988,
      "d": 610.7136749999991,
      "v": 100
    },
    {
      "midi": 64,
      "hit": false,
      "t": 47785.66649999988,
      "d": 610.7136749999991,
      "v": 100
    },
    {
      "midi": 43,
      "hit": false,
      "t": 48428.522999999885,
      "d": 407.14244999999937,
      "v": 100
    },
    {
      "midi": 55,
      "hit": false,
      "t": 48428.522999999885,
      "d": 407.14244999999937,
      "v": 100
    },
    {
      "midi": 64,
      "hit": false,
      "t": 48428.522999999885,
      "d": 407.14244999999937,
      "v": 100
    },
    {
      "midi": 52,
      "hit": false,
      "t": 48857.09399999988,
      "d": 203.57122499999969,
      "v": 100
    },
    {
      "midi": 40,
      "hit": false,
      "t": 48857.09399999988,
      "d": 407.14244999999937,
      "v": 100
    },
    {
      "midi": 64,
      "hit": false,
      "t": 49071.37949999988,
      "d": 203.57122499999969,
      "v": 100
    },
    {
      "midi": 40,
      "hit": false,
      "t": 49285.66499999988,
      "d": 203.57122499999969,
      "v": 100
    },
    {
      "midi": 52,
      "hit": false,
      "t": 49285.66499999988,
      "d": 203.57122499999969,
      "v": 100
    },
    {
      "midi": 45,
      "hit": false,
      "t": 49499.950499999875,
      "d": 610.7136749999991,
      "v": 100
    },
    {
      "midi": 57,
      "hit": false,
      "t": 49499.950499999875,
      "d": 610.7136749999991,
      "v": 100
    },
    {
      "midi": 64,
      "hit": false,
      "t": 49499.950499999875,
      "d": 610.7136749999991,
      "v": 100
    },
    {
      "midi": 43,
      "hit": false,
      "t": 50142.80699999988,
      "d": 407.14244999999937,
      "v": 100
    },
    {
      "midi": 55,
      "hit": false,
      "t": 50142.80699999988,
      "d": 407.14244999999937,
      "v": 100
    },
    {
      "midi": 64,
      "hit": false,
      "t": 50142.80699999988,
      "d": 407.14244999999937,
      "v": 100
    },
    {
      "midi": 52,
      "hit": false,
      "t": 50571.37799999987,
      "d": 203.57122499999969,
      "v": 100
    },
    {
      "midi": 40,
      "hit": false,
      "t": 50571.37799999987,
      "d": 407.14244999999937,
      "v": 100
    },
    {
      "midi": 64,
      "hit": false,
      "t": 50785.66349999987,
      "d": 203.57122499999969,
      "v": 100
    },
    {
      "midi": 52,
      "hit": false,
      "t": 50999.94899999987,
      "d": 203.57122499999969,
      "v": 100
    },
    {
      "midi": 49,
      "hit": false,
      "t": 51214.23449999987,
      "d": 203.57122499999969,
      "v": 100
    },
    {
      "midi": 61,
      "hit": false,
      "t": 51214.23449999987,
      "d": 203.57122499999969,
      "v": 100
    },
    {
      "midi": 50,
      "hit": false,
      "t": 51428.519999999866,
      "d": 203.57122499999969,
      "v": 100
    },
    {
      "midi": 57,
      "hit": false,
      "t": 51428.519999999866,
      "d": 203.57122499999969,
      "v": 100
    },
    {
      "midi": 62,
      "hit": false,
      "t": 51428.519999999866,
      "d": 203.57122499999969,
      "v": 100
    },
    {
      "midi": 66,
      "hit": false,
      "t": 51428.519999999866,
      "d": 203.57122499999969,
      "v": 100
    },
    {
      "midi": 50,
      "hit": false,
      "t": 51642.805499999864,
      "d": 407.14244999999937,
      "v": 100
    },
    {
      "midi": 57,
      "hit": false,
      "t": 51642.805499999864,
      "d": 407.14244999999937,
      "v": 100
    },
    {
      "midi": 62,
      "hit": false,
      "t": 51642.805499999864,
      "d": 407.14244999999937,
      "v": 100
    },
    {
      "midi": 66,
      "hit": false,
      "t": 51642.805499999864,
      "d": 407.14244999999937,
      "v": 100
    },
    {
      "midi": 45,
      "hit": false,
      "t": 52071.37649999986,
      "d": 203.57122499999969,
      "v": 100
    },
    {
      "midi": 57,
      "hit": false,
      "t": 52071.37649999986,
      "d": 203.57122499999969,
      "v": 100
    },
    {
      "midi": 50,
      "hit": false,
      "t": 52285.66199999986,
      "d": 610.7136749999991,
      "v": 100
    },
    {
      "midi": 57,
      "hit": false,
      "t": 52285.66199999986,
      "d": 610.7136749999991,
      "v": 100
    },
    {
      "midi": 62,
      "hit": false,
      "t": 52285.66199999986,
      "d": 610.7136749999991,
      "v": 100
    },
    {
      "midi": 66,
      "hit": false,
      "t": 52285.66199999986,
      "d": 610.7136749999991,
      "v": 100
    },
    {
      "midi": 54,
      "hit": false,
      "t": 52928.51849999986,
      "d": 203.57122499999969,
      "v": 100
    },
    {
      "midi": 58,
      "hit": false,
      "t": 52928.51849999986,
      "d": 203.57122499999969,
      "v": 100
    },
    {
      "midi": 43,
      "hit": false,
      "t": 53142.80399999986,
      "d": 203.57122499999969,
      "v": 100
    },
    {
      "midi": 59,
      "hit": false,
      "t": 53142.80399999986,
      "d": 203.57122499999969,
      "v": 100
    },
    {
      "midi": 55,
      "hit": false,
      "t": 53153.51827499986,
      "d": 203.57122499999969,
      "v": 100
    },
    {
      "midi": 43,
      "hit": false,
      "t": 53346.37522499986,
      "d": 407.14244999999937,
      "v": 100
    },
    {
      "midi": 67,
      "hit": false,
      "t": 53382.089474999855,
      "d": 203.57122499999969,
      "v": 100
    },
    {
      "midi": 54,
      "hit": false,
      "t": 53571.374999999854,
      "d": 203.57122499999969,
      "v": 100
    },
    {
      "midi": 58,
      "hit": false,
      "t": 53571.374999999854,
      "d": 203.57122499999969,
      "v": 100
    },
    {
      "midi": 44,
      "hit": false,
      "t": 53785.66049999985,
      "d": 203.57122499999969,
      "v": 100
    },
    {
      "midi": 56,
      "hit": false,
      "t": 53785.66049999985,
      "d": 203.57122499999969,
      "v": 100
    },
    {
      "midi": 59,
      "hit": false,
      "t": 53785.66049999985,
      "d": 203.57122499999969,
      "v": 100
    },
    {
      "midi": 43,
      "hit": false,
      "t": 53999.94599999985,
      "d": 407.14244999999937,
      "v": 100
    },
    {
      "midi": 59,
      "hit": false,
      "t": 53999.94599999985,
      "d": 407.14244999999937,
      "v": 100
    },
    {
      "midi": 62,
      "hit": false,
      "t": 53999.94599999985,
      "d": 407.14244999999937,
      "v": 100
    },
    {
      "midi": 67,
      "hit": false,
      "t": 53999.94599999985,
      "d": 407.14244999999937,
      "v": 100
    },
    {
      "midi": 45,
      "hit": false,
      "t": 54642.80249999985,
      "d": 610.7136749999991,
      "v": 100
    },
    {
      "midi": 57,
      "hit": false,
      "t": 54642.80249999985,
      "d": 610.7136749999991,
      "v": 100
    },
    {
      "midi": 64,
      "hit": false,
      "t": 54642.80249999985,
      "d": 610.7136749999991,
      "v": 100
    },
    {
      "midi": 43,
      "hit": false,
      "t": 55285.658999999854,
      "d": 407.14244999999937,
      "v": 100
    },
    {
      "midi": 55,
      "hit": false,
      "t": 55285.658999999854,
      "d": 407.14244999999937,
      "v": 100
    },
    {
      "midi": 64,
      "hit": false,
      "t": 55285.658999999854,
      "d": 407.14244999999937,
      "v": 100
    },
    {
      "midi": 52,
      "hit": false,
      "t": 55714.22999999985,
      "d": 203.57122499999969,
      "v": 100
    },
    {
      "midi": 40,
      "hit": false,
      "t": 55714.22999999985,
      "d": 407.14244999999937,
      "v": 100
    },
    {
      "midi": 64,
      "hit": false,
      "t": 55928.51549999985,
      "d": 203.57122499999969,
      "v": 100
    },
    {
      "midi": 40,
      "hit": false,
      "t": 56142.80099999985,
      "d": 203.57122499999969,
      "v": 100
    },
    {
      "midi": 52,
      "hit": false,
      "t": 56142.80099999985,
      "d": 203.57122499999969,
      "v": 100
    },
    {
      "midi": 45,
      "hit": false,
      "t": 56357.086499999845,
      "d": 610.7136749999991,
      "v": 100
    },
    {
      "midi": 57,
      "hit": false,
      "t": 56357.086499999845,
      "d": 610.7136749999991,
      "v": 100
    },
    {
      "midi": 64,
      "hit": false,
      "t": 56357.086499999845,
      "d": 610.7136749999991,
      "v": 100
    },
    {
      "midi": 43,
      "hit": false,
      "t": 56999.94299999985,
      "d": 407.14244999999937,
      "v": 100
    },
    {
      "midi": 55,
      "hit": false,
      "t": 56999.94299999985,
      "d": 407.14244999999937,
      "v": 100
    },
    {
      "midi": 64,
      "hit": false,
      "t": 56999.94299999985,
      "d": 407.14244999999937,
      "v": 100
    },
    {
      "midi": 52,
      "hit": false,
      "t": 57428.51399999984,
      "d": 203.57122499999969,
      "v": 100
    },
    {
      "midi": 40,
      "hit": false,
      "t": 57428.51399999984,
      "d": 407.14244999999937,
      "v": 100
    },
    {
      "midi": 64,
      "hit": false,
      "t": 57642.79949999984,
      "d": 203.57122499999969,
      "v": 100
    },
    {
      "midi": 40,
      "hit": false,
      "t": 57857.08499999984,
      "d": 203.57122499999969,
      "v": 100
    },
    {
      "midi": 52,
      "hit": false,
      "t": 57857.08499999984,
      "d": 203.57122499999969,
      "v": 100
    },
    {
      "midi": 45,
      "hit": false,
      "t": 58071.37049999984,
      "d": 610.7136749999991,
      "v": 100
    },
    {
      "midi": 52,
      "hit": false,
      "t": 58071.37049999984,
      "d": 610.7136749999991,
      "v": 100
    },
    {
      "midi": 64,
      "hit": false,
      "t": 58071.37049999984,
      "d": 610.7136749999991,
      "v": 100
    },
    {
      "midi": 43,
      "hit": false,
      "t": 58714.22699999984,
      "d": 407.14244999999937,
      "v": 100
    },
    {
      "midi": 55,
      "hit": false,
      "t": 58714.22699999984,
      "d": 407.14244999999937,
      "v": 100
    },
    {
      "midi": 64,
      "hit": false,
      "t": 58714.22699999984,
      "d": 407.14244999999937,
      "v": 100
    },
    {
      "midi": 52,
      "hit": false,
      "t": 59142.797999999835,
      "d": 203.57122499999969,
      "v": 100
    },
    {
      "midi": 40,
      "hit": false,
      "t": 59142.797999999835,
      "d": 407.14244999999937,
      "v": 100
    },
    {
      "midi": 64,
      "hit": false,
      "t": 59357.08349999983,
      "d": 203.57122499999969,
      "v": 100
    },
    {
      "midi": 40,
      "hit": false,
      "t": 59571.36899999983,
      "d": 203.57122499999969,
      "v": 100
    },
    {
      "midi": 52,
      "hit": false,
      "t": 59571.36899999983,
      "d": 203.57122499999969,
      "v": 100
    },
    {
      "midi": 45,
      "hit": false,
      "t": 59785.65449999983,
      "d": 610.7136749999991,
      "v": 100
    },
    {
      "midi": 52,
      "hit": false,
      "t": 59785.65449999983,
      "d": 610.7136749999991,
      "v": 100
    },
    {
      "midi": 64,
      "hit": false,
      "t": 59785.65449999983,
      "d": 610.7136749999991,
      "v": 100
    },
    {
      "midi": 43,
      "hit": false,
      "t": 60428.51099999983,
      "d": 407.14244999999937,
      "v": 100
    },
    {
      "midi": 55,
      "hit": false,
      "t": 60428.51099999983,
      "d": 407.14244999999937,
      "v": 100
    },
    {
      "midi": 64,
      "hit": false,
      "t": 60428.51099999983,
      "d": 407.14244999999937,
      "v": 100
    },
    {
      "midi": 52,
      "hit": false,
      "t": 60857.08199999983,
      "d": 203.57122499999969,
      "v": 100
    },
    {
      "midi": 40,
      "hit": false,
      "t": 60857.08199999983,
      "d": 407.14244999999937,
      "v": 100
    },
    {
      "midi": 64,
      "hit": false,
      "t": 61071.367499999826,
      "d": 203.57122499999969,
      "v": 100
    },
    {
      "midi": 40,
      "hit": false,
      "t": 61285.652999999824,
      "d": 203.57122499999969,
      "v": 100
    },
    {
      "midi": 52,
      "hit": false,
      "t": 61285.652999999824,
      "d": 203.57122499999969,
      "v": 100
    },
    {
      "midi": 45,
      "hit": false,
      "t": 61499.93849999982,
      "d": 610.7136749999991,
      "v": 100
    },
    {
      "midi": 52,
      "hit": false,
      "t": 61499.93849999982,
      "d": 610.7136749999991,
      "v": 100
    },
    {
      "midi": 64,
      "hit": false,
      "t": 61499.93849999982,
      "d": 610.7136749999991,
      "v": 100
    },
    {
      "midi": 43,
      "hit": false,
      "t": 62142.79499999982,
      "d": 407.14244999999937,
      "v": 100
    },
    {
      "midi": 55,
      "hit": false,
      "t": 62142.79499999982,
      "d": 407.14244999999937,
      "v": 100
    },
    {
      "midi": 64,
      "hit": false,
      "t": 62142.79499999982,
      "d": 407.14244999999937,
      "v": 100
    },
    {
      "midi": 52,
      "hit": false,
      "t": 62571.36599999982,
      "d": 203.57122499999969,
      "v": 100
    },
    {
      "midi": 40,
      "hit": false,
      "t": 62571.36599999982,
      "d": 407.14244999999937,
      "v": 100
    },
    {
      "midi": 64,
      "hit": false,
      "t": 62785.65149999982,
      "d": 203.57122499999969,
      "v": 100
    },
    {
      "midi": 40,
      "hit": false,
      "t": 62999.936999999816,
      "d": 203.57122499999969,
      "v": 100
    },
    {
      "midi": 52,
      "hit": false,
      "t": 62999.936999999816,
      "d": 203.57122499999969,
      "v": 100
    },
    {
      "midi": 45,
      "hit": false,
      "t": 63214.222499999814,
      "d": 610.7136749999991,
      "v": 100
    },
    {
      "midi": 52,
      "hit": false,
      "t": 63214.222499999814,
      "d": 610.7136749999991,
      "v": 100
    },
    {
      "midi": 64,
      "hit": false,
      "t": 63214.222499999814,
      "d": 610.7136749999991,
      "v": 100
    },
    {
      "midi": 43,
      "hit": false,
      "t": 63857.078999999816,
      "d": 407.14244999999937,
      "v": 100
    },
    {
      "midi": 55,
      "hit": false,
      "t": 63857.078999999816,
      "d": 407.14244999999937,
      "v": 100
    },
    {
      "midi": 64,
      "hit": false,
      "t": 63857.078999999816,
      "d": 407.14244999999937,
      "v": 100
    },
    {
      "midi": 52,
      "hit": false,
      "t": 64285.64999999981,
      "d": 203.57122499999969,
      "v": 100
    },
    {
      "midi": 40,
      "hit": false,
      "t": 64285.64999999981,
      "d": 407.14244999999937,
      "v": 100
    },
    {
      "midi": 64,
      "hit": false,
      "t": 64499.93549999981,
      "d": 203.57122499999969,
      "v": 100
    },
    {
      "midi": 40,
      "hit": false,
      "t": 64714.22099999981,
      "d": 203.57122499999969,
      "v": 100
    },
    {
      "midi": 52,
      "hit": false,
      "t": 64714.22099999981,
      "d": 203.57122499999969,
      "v": 100
    },
    {
      "midi": 45,
      "hit": false,
      "t": 64928.50649999981,
      "d": 610.7136749999991,
      "v": 100
    },
    {
      "midi": 52,
      "hit": false,
      "t": 64928.50649999981,
      "d": 610.7136749999991,
      "v": 100
    },
    {
      "midi": 64,
      "hit": false,
      "t": 64928.50649999981,
      "d": 610.7136749999991,
      "v": 100
    },
    {
      "midi": 46,
      "hit": false,
      "t": 65571.36299999981,
      "d": 407.14244999999937,
      "v": 100
    },
    {
      "midi": 56,
      "hit": false,
      "t": 65571.36299999981,
      "d": 407.14244999999937,
      "v": 100
    },
    {
      "midi": 57,
      "hit": false,
      "t": 65571.36299999981,
      "d": 407.14244999999937,
      "v": 100
    },
    {
      "midi": 62,
      "hit": false,
      "t": 65571.36299999981,
      "d": 407.14244999999937,
      "v": 100
    },
    {
      "midi": 44,
      "hit": false,
      "t": 65999.9339999998,
      "d": 407.14244999999937,
      "v": 100
    },
    {
      "midi": 54,
      "hit": false,
      "t": 65999.9339999998,
      "d": 407.14244999999937,
      "v": 100
    },
    {
      "midi": 60,
      "hit": false,
      "t": 65999.9339999998,
      "d": 407.14244999999937,
      "v": 100
    },
    {
      "midi": 45,
      "hit": false,
      "t": 66428.5049999998,
      "d": 407.14244999999937,
      "v": 100
    },
    {
      "midi": 55,
      "hit": false,
      "t": 66428.5049999998,
      "d": 407.14244999999937,
      "v": 100
    },
    {
      "midi": 61,
      "hit": false,
      "t": 66428.5049999998,
      "d": 407.14244999999937,
      "v": 100
    },
    {
      "midi": 46,
      "hit": false,
      "t": 66857.0759999998,
      "d": 407.14244999999937,
      "v": 100
    },
    {
      "midi": 56,
      "hit": false,
      "t": 66857.0759999998,
      "d": 407.14244999999937,
      "v": 100
    },
    {
      "midi": 57,
      "hit": false,
      "t": 66857.0759999998,
      "d": 407.14244999999937,
      "v": 100
    },
    {
      "midi": 62,
      "hit": false,
      "t": 66857.0759999998,
      "d": 407.14244999999937,
      "v": 100
    },
    {
      "midi": 44,
      "hit": false,
      "t": 67285.6469999998,
      "d": 407.14244999999937,
      "v": 100
    },
    {
      "midi": 54,
      "hit": false,
      "t": 67285.6469999998,
      "d": 407.14244999999937,
      "v": 100
    },
    {
      "midi": 60,
      "hit": false,
      "t": 67285.6469999998,
      "d": 407.14244999999937,
      "v": 100
    },
    {
      "midi": 45,
      "hit": false,
      "t": 67714.21799999979,
      "d": 407.14244999999937,
      "v": 100
    },
    {
      "midi": 55,
      "hit": false,
      "t": 67714.21799999979,
      "d": 407.14244999999937,
      "v": 100
    },
    {
      "midi": 61,
      "hit": false,
      "t": 67714.21799999979,
      "d": 407.14244999999937,
      "v": 100
    },
    {
      "midi": 46,
      "hit": false,
      "t": 68142.78899999979,
      "d": 407.14244999999937,
      "v": 100
    },
    {
      "midi": 56,
      "hit": false,
      "t": 68142.78899999979,
      "d": 407.14244999999937,
      "v": 100
    },
    {
      "midi": 57,
      "hit": false,
      "t": 68142.78899999979,
      "d": 407.14244999999937,
      "v": 100
    },
    {
      "midi": 62,
      "hit": false,
      "t": 68142.78899999979,
      "d": 407.14244999999937,
      "v": 100
    },
    {
      "midi": 44,
      "hit": false,
      "t": 68571.35999999978,
      "d": 407.14244999999937,
      "v": 100
    },
    {
      "midi": 54,
      "hit": false,
      "t": 68571.35999999978,
      "d": 407.14244999999937,
      "v": 100
    },
    {
      "midi": 60,
      "hit": false,
      "t": 68571.35999999978,
      "d": 407.14244999999937,
      "v": 100
    },
    {
      "midi": 45,
      "hit": false,
      "t": 68999.93099999978,
      "d": 407.14244999999937,
      "v": 100
    },
    {
      "midi": 55,
      "hit": false,
      "t": 68999.93099999978,
      "d": 407.14244999999937,
      "v": 100
    },
    {
      "midi": 61,
      "hit": false,
      "t": 68999.93099999978,
      "d": 407.14244999999937,
      "v": 100
    },
    {
      "midi": 46,
      "hit": false,
      "t": 69428.50199999977,
      "d": 407.14244999999937,
      "v": 100
    },
    {
      "midi": 56,
      "hit": false,
      "t": 69428.50199999977,
      "d": 407.14244999999937,
      "v": 100
    },
    {
      "midi": 57,
      "hit": false,
      "t": 69428.50199999977,
      "d": 407.14244999999937,
      "v": 100
    },
    {
      "midi": 62,
      "hit": false,
      "t": 69428.50199999977,
      "d": 407.14244999999937,
      "v": 100
    },
    {
      "midi": 44,
      "hit": false,
      "t": 69857.07299999977,
      "d": 407.14244999999937,
      "v": 100
    },
    {
      "midi": 54,
      "hit": false,
      "t": 69857.07299999977,
      "d": 407.14244999999937,
      "v": 100
    },
    {
      "midi": 60,
      "hit": false,
      "t": 69857.07299999977,
      "d": 407.14244999999937,
      "v": 100
    },
    {
      "midi": 45,
      "hit": false,
      "t": 70285.64399999977,
      "d": 407.14244999999937,
      "v": 100
    },
    {
      "midi": 55,
      "hit": false,
      "t": 70285.64399999977,
      "d": 407.14244999999937,
      "v": 100
    },
    {
      "midi": 61,
      "hit": false,
      "t": 70285.64399999977,
      "d": 407.14244999999937,
      "v": 100
    },
    {
      "midi": 46,
      "hit": false,
      "t": 70714.21499999976,
      "d": 407.14244999999937,
      "v": 100
    },
    {
      "midi": 56,
      "hit": false,
      "t": 70714.21499999976,
      "d": 407.14244999999937,
      "v": 100
    },
    {
      "midi": 57,
      "hit": false,
      "t": 70714.21499999976,
      "d": 407.14244999999937,
      "v": 100
    },
    {
      "midi": 62,
      "hit": false,
      "t": 70714.21499999976,
      "d": 407.14244999999937,
      "v": 100
    },
    {
      "midi": 44,
      "hit": false,
      "t": 71142.78599999976,
      "d": 407.14244999999937,
      "v": 100
    },
    {
      "midi": 54,
      "hit": false,
      "t": 71142.78599999976,
      "d": 407.14244999999937,
      "v": 100
    },
    {
      "midi": 60,
      "hit": false,
      "t": 71142.78599999976,
      "d": 407.14244999999937,
      "v": 100
    },
    {
      "midi": 44,
      "hit": false,
      "t": 71571.35699999976,
      "d": 203.57122500000696,
      "v": 100
    },
    {
      "midi": 55,
      "hit": false,
      "t": 71571.35699999976,
      "d": 203.57122500000696,
      "v": 100
    },
    {
      "midi": 61,
      "hit": false,
      "t": 71571.35699999976,
      "d": 203.57122500000696,
      "v": 100
    },
    {
      "midi": 45,
      "hit": false,
      "t": 71785.64249999977,
      "d": 610.7136750000063,
      "v": 100
    },
    {
      "midi": 57,
      "hit": false,
      "t": 71785.64249999977,
      "d": 610.7136750000063,
      "v": 100
    },
    {
      "midi": 64,
      "hit": false,
      "t": 71785.64249999977,
      "d": 610.7136750000063,
      "v": 100
    },
    {
      "midi": 43,
      "hit": false,
      "t": 72428.49899999978,
      "d": 407.14244999999937,
      "v": 100
    },
    {
      "midi": 55,
      "hit": false,
      "t": 72428.49899999978,
      "d": 407.14244999999937,
      "v": 100
    },
    {
      "midi": 64,
      "hit": false,
      "t": 72428.49899999978,
      "d": 407.14244999999937,
      "v": 100
    },
    {
      "midi": 52,
      "hit": false,
      "t": 72857.06999999977,
      "d": 203.57122500000696,
      "v": 100
    },
    {
      "midi": 40,
      "hit": false,
      "t": 72857.06999999977,
      "d": 407.1424500000139,
      "v": 100
    },
    {
      "midi": 64,
      "hit": false,
      "t": 73071.35549999979,
      "d": 203.57122500000696,
      "v": 100
    },
    {
      "midi": 40,
      "hit": false,
      "t": 73285.6409999998,
      "d": 203.57122500000696,
      "v": 100
    },
    {
      "midi": 52,
      "hit": false,
      "t": 73285.6409999998,
      "d": 203.57122500000696,
      "v": 100
    },
    {
      "midi": 45,
      "hit": false,
      "t": 73499.92649999981,
      "d": 610.7136750000063,
      "v": 100
    },
    {
      "midi": 64,
      "hit": false,
      "t": 73499.92649999981,
      "d": 610.7136750000063,
      "v": 100
    },
    {
      "midi": 43,
      "hit": false,
      "t": 74142.78299999982,
      "d": 407.14244999999937,
      "v": 100
    },
    {
      "midi": 55,
      "hit": false,
      "t": 74142.78299999982,
      "d": 407.14244999999937,
      "v": 100
    },
    {
      "midi": 64,
      "hit": false,
      "t": 74142.78299999982,
      "d": 407.14244999999937,
      "v": 100
    },
    {
      "midi": 52,
      "hit": false,
      "t": 74571.35399999982,
      "d": 203.57122500000696,
      "v": 100
    },
    {
      "midi": 40,
      "hit": false,
      "t": 74571.35399999982,
      "d": 407.1424500000139,
      "v": 100
    },
    {
      "midi": 64,
      "hit": false,
      "t": 74785.63949999983,
      "d": 203.57122500000696,
      "v": 100
    },
    {
      "midi": 40,
      "hit": false,
      "t": 74999.92499999984,
      "d": 203.57122500000696,
      "v": 100
    },
    {
      "midi": 52,
      "hit": false,
      "t": 74999.92499999984,
      "d": 203.57122500000696,
      "v": 100
    },
    {
      "midi": 45,
      "hit": false,
      "t": 75214.21049999986,
      "d": 610.7136750000063,
      "v": 100
    },
    {
      "midi": 64,
      "hit": false,
      "t": 75214.21049999986,
      "d": 610.7136750000063,
      "v": 100
    },
    {
      "midi": 43,
      "hit": false,
      "t": 75857.06699999986,
      "d": 407.14244999999937,
      "v": 100
    },
    {
      "midi": 55,
      "hit": false,
      "t": 75857.06699999986,
      "d": 407.14244999999937,
      "v": 100
    },
    {
      "midi": 64,
      "hit": false,
      "t": 75857.06699999986,
      "d": 407.14244999999937,
      "v": 100
    },
    {
      "midi": 52,
      "hit": false,
      "t": 76285.63799999986,
      "d": 203.57122500000696,
      "v": 100
    },
    {
      "midi": 40,
      "hit": false,
      "t": 76285.63799999986,
      "d": 407.1424500000139,
      "v": 100
    },
    {
      "midi": 64,
      "hit": false,
      "t": 76499.92349999987,
      "d": 203.57122500000696,
      "v": 100
    },
    {
      "midi": 40,
      "hit": false,
      "t": 76714.20899999989,
      "d": 203.57122500000696,
      "v": 100
    },
    {
      "midi": 52,
      "hit": false,
      "t": 76714.20899999989,
      "d": 203.57122500000696,
      "v": 100
    },
    {
      "midi": 45,
      "hit": false,
      "t": 76928.4944999999,
      "d": 610.7136750000063,
      "v": 100
    },
    {
      "midi": 64,
      "hit": false,
      "t": 76928.4944999999,
      "d": 610.7136750000063,
      "v": 100
    },
    {
      "midi": 43,
      "hit": false,
      "t": 77571.35099999991,
      "d": 407.14244999999937,
      "v": 100
    },
    {
      "midi": 55,
      "hit": false,
      "t": 77571.35099999991,
      "d": 407.14244999999937,
      "v": 100
    },
    {
      "midi": 64,
      "hit": false,
      "t": 77571.35099999991,
      "d": 407.14244999999937,
      "v": 100
    },
    {
      "midi": 52,
      "hit": false,
      "t": 77999.9219999999,
      "d": 203.57122500000696,
      "v": 100
    },
    {
      "midi": 40,
      "hit": false,
      "t": 77999.9219999999,
      "d": 407.1424500000139,
      "v": 100
    },
    {
      "midi": 64,
      "hit": false,
      "t": 78214.20749999992,
      "d": 203.57122500000696,
      "v": 100
    },
    {
      "midi": 40,
      "hit": false,
      "t": 78428.49299999993,
      "d": 203.57122500000696,
      "v": 100
    },
    {
      "midi": 52,
      "hit": false,
      "t": 78428.49299999993,
      "d": 203.57122500000696,
      "v": 100
    },
    {
      "midi": 45,
      "hit": false,
      "t": 78642.77849999994,
      "d": 610.7136750000063,
      "v": 100
    },
    {
      "midi": 64,
      "hit": false,
      "t": 78642.77849999994,
      "d": 610.7136750000063,
      "v": 100
    },
    {
      "midi": 46,
      "hit": false,
      "t": 79285.63499999995,
      "d": 407.14244999999937,
      "v": 100
    },
    {
      "midi": 56,
      "hit": false,
      "t": 79285.63499999995,
      "d": 407.14244999999937,
      "v": 100
    },
    {
      "midi": 57,
      "hit": false,
      "t": 79285.63499999995,
      "d": 407.14244999999937,
      "v": 100
    },
    {
      "midi": 62,
      "hit": false,
      "t": 79285.63499999995,
      "d": 407.14244999999937,
      "v": 100
    },
    {
      "midi": 44,
      "hit": false,
      "t": 79714.20599999995,
      "d": 407.14244999999937,
      "v": 100
    },
    {
      "midi": 54,
      "hit": false,
      "t": 79714.20599999995,
      "d": 407.14244999999937,
      "v": 100
    },
    {
      "midi": 60,
      "hit": false,
      "t": 79714.20599999995,
      "d": 407.14244999999937,
      "v": 100
    },
    {
      "midi": 45,
      "hit": false,
      "t": 80142.77699999994,
      "d": 407.14244999999937,
      "v": 100
    },
    {
      "midi": 55,
      "hit": false,
      "t": 80142.77699999994,
      "d": 407.14244999999937,
      "v": 100
    },
    {
      "midi": 61,
      "hit": false,
      "t": 80142.77699999994,
      "d": 407.14244999999937,
      "v": 100
    },
    {
      "midi": 46,
      "hit": false,
      "t": 80571.34799999994,
      "d": 407.14244999999937,
      "v": 100
    },
    {
      "midi": 56,
      "hit": false,
      "t": 80571.34799999994,
      "d": 407.14244999999937,
      "v": 100
    },
    {
      "midi": 57,
      "hit": false,
      "t": 80571.34799999994,
      "d": 407.14244999999937,
      "v": 100
    },
    {
      "midi": 62,
      "hit": false,
      "t": 80571.34799999994,
      "d": 407.14244999999937,
      "v": 100
    },
    {
      "midi": 44,
      "hit": false,
      "t": 80999.91899999994,
      "d": 407.14244999999937,
      "v": 100
    },
    {
      "midi": 54,
      "hit": false,
      "t": 80999.91899999994,
      "d": 407.14244999999937,
      "v": 100
    },
    {
      "midi": 60,
      "hit": false,
      "t": 80999.91899999994,
      "d": 407.14244999999937,
      "v": 100
    },
    {
      "midi": 45,
      "hit": false,
      "t": 81428.48999999993,
      "d": 407.14244999999937,
      "v": 100
    },
    {
      "midi": 55,
      "hit": false,
      "t": 81428.48999999993,
      "d": 407.14244999999937,
      "v": 100
    },
    {
      "midi": 61,
      "hit": false,
      "t": 81428.48999999993,
      "d": 407.14244999999937,
      "v": 100
    },
    {
      "midi": 46,
      "hit": false,
      "t": 81857.06099999993,
      "d": 407.14244999999937,
      "v": 100
    },
    {
      "midi": 56,
      "hit": false,
      "t": 81857.06099999993,
      "d": 407.14244999999937,
      "v": 100
    },
    {
      "midi": 57,
      "hit": false,
      "t": 81857.06099999993,
      "d": 407.14244999999937,
      "v": 100
    },
    {
      "midi": 62,
      "hit": false,
      "t": 81857.06099999993,
      "d": 407.14244999999937,
      "v": 100
    },
    {
      "midi": 44,
      "hit": false,
      "t": 82285.63199999993,
      "d": 407.14244999999937,
      "v": 100
    },
    {
      "midi": 54,
      "hit": false,
      "t": 82285.63199999993,
      "d": 407.14244999999937,
      "v": 100
    },
    {
      "midi": 60,
      "hit": false,
      "t": 82285.63199999993,
      "d": 407.14244999999937,
      "v": 100
    },
    {
      "midi": 45,
      "hit": false,
      "t": 82714.20299999992,
      "d": 407.14244999999937,
      "v": 100
    },
    {
      "midi": 55,
      "hit": false,
      "t": 82714.20299999992,
      "d": 407.14244999999937,
      "v": 100
    },
    {
      "midi": 61,
      "hit": false,
      "t": 82714.20299999992,
      "d": 407.14244999999937,
      "v": 100
    },
    {
      "midi": 46,
      "hit": false,
      "t": 83142.77399999992,
      "d": 407.14244999999937,
      "v": 100
    },
    {
      "midi": 56,
      "hit": false,
      "t": 83142.77399999992,
      "d": 407.14244999999937,
      "v": 100
    },
    {
      "midi": 57,
      "hit": false,
      "t": 83142.77399999992,
      "d": 407.14244999999937,
      "v": 100
    },
    {
      "midi": 62,
      "hit": false,
      "t": 83142.77399999992,
      "d": 407.14244999999937,
      "v": 100
    },
    {
      "midi": 44,
      "hit": false,
      "t": 83571.34499999991,
      "d": 407.14244999999937,
      "v": 100
    },
    {
      "midi": 54,
      "hit": false,
      "t": 83571.34499999991,
      "d": 407.14244999999937,
      "v": 100
    },
    {
      "midi": 60,
      "hit": false,
      "t": 83571.34499999991,
      "d": 407.14244999999937,
      "v": 100
    },
    {
      "midi": 45,
      "hit": false,
      "t": 83999.91599999991,
      "d": 407.14244999999937,
      "v": 100
    },
    {
      "midi": 55,
      "hit": false,
      "t": 83999.91599999991,
      "d": 407.14244999999937,
      "v": 100
    },
    {
      "midi": 61,
      "hit": false,
      "t": 83999.91599999991,
      "d": 407.14244999999937,
      "v": 100
    },
    {
      "midi": 46,
      "hit": false,
      "t": 84428.4869999999,
      "d": 407.14244999999937,
      "v": 100
    },
    {
      "midi": 56,
      "hit": false,
      "t": 84428.4869999999,
      "d": 407.14244999999937,
      "v": 100
    },
    {
      "midi": 57,
      "hit": false,
      "t": 84428.4869999999,
      "d": 407.14244999999937,
      "v": 100
    },
    {
      "midi": 62,
      "hit": false,
      "t": 84428.4869999999,
      "d": 407.14244999999937,
      "v": 100
    },
    {
      "midi": 44,
      "hit": false,
      "t": 84857.0579999999,
      "d": 407.14244999999937,
      "v": 100
    },
    {
      "midi": 54,
      "hit": false,
      "t": 84857.0579999999,
      "d": 407.14244999999937,
      "v": 100
    },
    {
      "midi": 60,
      "hit": false,
      "t": 84857.0579999999,
      "d": 407.14244999999937,
      "v": 100
    },
    {
      "midi": 44,
      "hit": false,
      "t": 85285.6289999999,
      "d": 203.57122500000696,
      "v": 100
    },
    {
      "midi": 55,
      "hit": false,
      "t": 85285.6289999999,
      "d": 203.57122500000696,
      "v": 100
    },
    {
      "midi": 61,
      "hit": false,
      "t": 85285.6289999999,
      "d": 203.57122500000696,
      "v": 100
    },
    {
      "midi": 45,
      "hit": false,
      "t": 85499.91449999991,
      "d": 610.7136750000063,
      "v": 100
    },
    {
      "midi": 57,
      "hit": false,
      "t": 85499.91449999991,
      "d": 610.7136750000063,
      "v": 100
    },
    {
      "midi": 64,
      "hit": false,
      "t": 85499.91449999991,
      "d": 610.7136750000063,
      "v": 100
    },
    {
      "midi": 43,
      "hit": false,
      "t": 86142.77099999992,
      "d": 407.14244999999937,
      "v": 100
    },
    {
      "midi": 55,
      "hit": false,
      "t": 86142.77099999992,
      "d": 407.14244999999937,
      "v": 100
    },
    {
      "midi": 64,
      "hit": false,
      "t": 86142.77099999992,
      "d": 407.14244999999937,
      "v": 100
    },
    {
      "midi": 52,
      "hit": false,
      "t": 86571.34199999992,
      "d": 203.57122500000696,
      "v": 100
    },
    {
      "midi": 40,
      "hit": false,
      "t": 86571.34199999992,
      "d": 407.1424500000139,
      "v": 100
    },
    {
      "midi": 64,
      "hit": false,
      "t": 86785.62749999993,
      "d": 203.57122500000696,
      "v": 100
    },
    {
      "midi": 40,
      "hit": false,
      "t": 86999.91299999994,
      "d": 203.57122500000696,
      "v": 100
    },
    {
      "midi": 52,
      "hit": false,
      "t": 86999.91299999994,
      "d": 203.57122500000696,
      "v": 100
    },
    {
      "midi": 45,
      "hit": false,
      "t": 87214.19849999995,
      "d": 610.7136750000063,
      "v": 100
    },
    {
      "midi": 64,
      "hit": false,
      "t": 87214.19849999995,
      "d": 610.7136750000063,
      "v": 100
    },
    {
      "midi": 43,
      "hit": false,
      "t": 87857.05499999996,
      "d": 407.14244999999937,
      "v": 100
    },
    {
      "midi": 55,
      "hit": false,
      "t": 87857.05499999996,
      "d": 407.14244999999937,
      "v": 100
    },
    {
      "midi": 64,
      "hit": false,
      "t": 87857.05499999996,
      "d": 407.14244999999937,
      "v": 100
    },
    {
      "midi": 52,
      "hit": false,
      "t": 88285.62599999996,
      "d": 203.57122500000696,
      "v": 100
    },
    {
      "midi": 40,
      "hit": false,
      "t": 88285.62599999996,
      "d": 407.1424500000139,
      "v": 100
    },
    {
      "midi": 64,
      "hit": false,
      "t": 88499.91149999997,
      "d": 203.57122500000696,
      "v": 100
    },
    {
      "midi": 40,
      "hit": false,
      "t": 88714.19699999999,
      "d": 203.57122500000696,
      "v": 100
    },
    {
      "midi": 52,
      "hit": false,
      "t": 88714.19699999999,
      "d": 203.57122500000696,
      "v": 100
    },
    {
      "midi": 45,
      "hit": false,
      "t": 88928.4825,
      "d": 610.7136750000063,
      "v": 100
    },
    {
      "midi": 64,
      "hit": false,
      "t": 88928.4825,
      "d": 610.7136750000063,
      "v": 100
    },
    {
      "midi": 43,
      "hit": false,
      "t": 89571.339,
      "d": 407.14244999999937,
      "v": 100
    },
    {
      "midi": 55,
      "hit": false,
      "t": 89571.339,
      "d": 407.14244999999937,
      "v": 100
    },
    {
      "midi": 64,
      "hit": false,
      "t": 89571.339,
      "d": 407.14244999999937,
      "v": 100
    },
    {
      "midi": 52,
      "hit": false,
      "t": 89999.91,
      "d": 203.57122500000696,
      "v": 100
    },
    {
      "midi": 40,
      "hit": false,
      "t": 89999.91,
      "d": 407.1424500000139,
      "v": 100
    },
    {
      "midi": 64,
      "hit": false,
      "t": 90214.19550000002,
      "d": 203.57122500000696,
      "v": 100
    },
    {
      "midi": 40,
      "hit": false,
      "t": 90428.48100000003,
      "d": 203.57122500000696,
      "v": 100
    },
    {
      "midi": 52,
      "hit": false,
      "t": 90428.48100000003,
      "d": 203.57122500000696,
      "v": 100
    },
    {
      "midi": 45,
      "hit": false,
      "t": 90642.76650000004,
      "d": 610.7136750000063,
      "v": 100
    },
    {
      "midi": 64,
      "hit": false,
      "t": 90642.76650000004,
      "d": 610.7136750000063,
      "v": 100
    },
    {
      "midi": 43,
      "hit": false,
      "t": 91285.62300000005,
      "d": 407.14244999999937,
      "v": 100
    },
    {
      "midi": 55,
      "hit": false,
      "t": 91285.62300000005,
      "d": 407.14244999999937,
      "v": 100
    },
    {
      "midi": 64,
      "hit": false,
      "t": 91285.62300000005,
      "d": 407.14244999999937,
      "v": 100
    },
    {
      "midi": 52,
      "hit": false,
      "t": 91714.19400000005,
      "d": 203.57122500000696,
      "v": 100
    },
    {
      "midi": 40,
      "hit": false,
      "t": 91714.19400000005,
      "d": 407.1424500000139,
      "v": 100
    },
    {
      "midi": 64,
      "hit": false,
      "t": 91928.47950000006,
      "d": 203.57122500000696,
      "v": 100
    },
    {
      "midi": 52,
      "hit": false,
      "t": 92142.76500000007,
      "d": 203.57122500000696,
      "v": 100
    },
    {
      "midi": 61,
      "hit": false,
      "t": 92357.05050000008,
      "d": 203.57122500000696,
      "v": 100
    },
    {
      "midi": 50,
      "hit": false,
      "t": 92571.3360000001,
      "d": 203.57122500000696,
      "v": 100
    },
    {
      "midi": 57,
      "hit": false,
      "t": 92571.3360000001,
      "d": 203.57122500000696,
      "v": 100
    },
    {
      "midi": 62,
      "hit": false,
      "t": 92571.3360000001,
      "d": 203.57122500000696,
      "v": 100
    },
    {
      "midi": 66,
      "hit": false,
      "t": 92571.3360000001,
      "d": 203.57122500000696,
      "v": 100
    },
    {
      "midi": 50,
      "hit": false,
      "t": 92785.62150000011,
      "d": 407.14244999999937,
      "v": 100
    },
    {
      "midi": 57,
      "hit": false,
      "t": 92785.62150000011,
      "d": 407.14244999999937,
      "v": 100
    },
    {
      "midi": 62,
      "hit": false,
      "t": 92785.62150000011,
      "d": 407.14244999999937,
      "v": 100
    },
    {
      "midi": 66,
      "hit": false,
      "t": 92785.62150000011,
      "d": 407.14244999999937,
      "v": 100
    },
    {
      "midi": 45,
      "hit": false,
      "t": 93214.1925000001,
      "d": 203.57122500000696,
      "v": 100
    },
    {
      "midi": 57,
      "hit": false,
      "t": 93214.1925000001,
      "d": 203.57122500000696,
      "v": 100
    },
    {
      "midi": 50,
      "hit": false,
      "t": 93428.47800000012,
      "d": 610.7136750000063,
      "v": 100
    },
    {
      "midi": 57,
      "hit": false,
      "t": 93428.47800000012,
      "d": 610.7136750000063,
      "v": 100
    },
    {
      "midi": 62,
      "hit": false,
      "t": 93428.47800000012,
      "d": 610.7136750000063,
      "v": 100
    },
    {
      "midi": 66,
      "hit": false,
      "t": 93428.47800000012,
      "d": 610.7136750000063,
      "v": 100
    },
    {
      "midi": 54,
      "hit": false,
      "t": 94071.33450000013,
      "d": 203.57122500000696,
      "v": 100
    },
    {
      "midi": 58,
      "hit": false,
      "t": 94071.33450000013,
      "d": 203.57122500000696,
      "v": 100
    },
    {
      "midi": 43,
      "hit": false,
      "t": 94285.62000000014,
      "d": 203.57122500000696,
      "v": 100
    },
    {
      "midi": 59,
      "hit": false,
      "t": 94285.62000000014,
      "d": 203.57122500000696,
      "v": 100
    },
    {
      "midi": 55,
      "hit": false,
      "t": 94296.33427500015,
      "d": 203.57122500000696,
      "v": 100
    },
    {
      "midi": 43,
      "hit": false,
      "t": 94489.19122500015,
      "d": 407.14244999999937,
      "v": 100
    },
    {
      "midi": 67,
      "hit": false,
      "t": 94524.90547500015,
      "d": 203.5712249999924,
      "v": 100
    },
    {
      "midi": 54,
      "hit": false,
      "t": 94714.19100000015,
      "d": 203.5712249999924,
      "v": 100
    },
    {
      "midi": 58,
      "hit": false,
      "t": 94714.19100000015,
      "d": 203.5712249999924,
      "v": 100
    },
    {
      "midi": 44,
      "hit": false,
      "t": 94928.47650000015,
      "d": 203.57122500000696,
      "v": 100
    },
    {
      "midi": 56,
      "hit": false,
      "t": 94928.47650000015,
      "d": 203.57122500000696,
      "v": 100
    },
    {
      "midi": 59,
      "hit": false,
      "t": 94928.47650000015,
      "d": 203.57122500000696,
      "v": 100
    },
    {
      "midi": 43,
      "hit": false,
      "t": 95142.76200000016,
      "d": 407.14244999999937,
      "v": 100
    },
    {
      "midi": 59,
      "hit": false,
      "t": 95142.76200000016,
      "d": 407.14244999999937,
      "v": 100
    },
    {
      "midi": 62,
      "hit": false,
      "t": 95142.76200000016,
      "d": 407.14244999999937,
      "v": 100
    },
    {
      "midi": 67,
      "hit": false,
      "t": 95142.76200000016,
      "d": 407.14244999999937,
      "v": 100
    },
    {
      "midi": 45,
      "hit": false,
      "t": 95785.61850000016,
      "d": 610.7136750000063,
      "v": 100
    },
    {
      "midi": 57,
      "hit": false,
      "t": 95785.61850000016,
      "d": 610.7136750000063,
      "v": 100
    },
    {
      "midi": 64,
      "hit": false,
      "t": 95785.61850000016,
      "d": 610.7136750000063,
      "v": 100
    },
    {
      "midi": 43,
      "hit": false,
      "t": 96428.47500000017,
      "d": 407.14244999999937,
      "v": 100
    },
    {
      "midi": 55,
      "hit": false,
      "t": 96428.47500000017,
      "d": 407.14244999999937,
      "v": 100
    },
    {
      "midi": 64,
      "hit": false,
      "t": 96428.47500000017,
      "d": 407.14244999999937,
      "v": 100
    },
    {
      "midi": 52,
      "hit": false,
      "t": 96857.04600000016,
      "d": 203.57122500000696,
      "v": 100
    },
    {
      "midi": 40,
      "hit": false,
      "t": 96857.04600000016,
      "d": 407.1424500000139,
      "v": 100
    },
    {
      "midi": 64,
      "hit": false,
      "t": 97071.33150000017,
      "d": 203.57122500000696,
      "v": 100
    },
    {
      "midi": 40,
      "hit": false,
      "t": 97285.61700000019,
      "d": 203.57122500000696,
      "v": 100
    },
    {
      "midi": 52,
      "hit": false,
      "t": 97285.61700000019,
      "d": 203.57122500000696,
      "v": 100
    },
    {
      "midi": 45,
      "hit": false,
      "t": 97499.9025000002,
      "d": 610.7136750000063,
      "v": 100
    },
    {
      "midi": 57,
      "hit": false,
      "t": 97499.9025000002,
      "d": 610.7136750000063,
      "v": 100
    },
    {
      "midi": 64,
      "hit": false,
      "t": 97499.9025000002,
      "d": 610.7136750000063,
      "v": 100
    },
    {
      "midi": 43,
      "hit": false,
      "t": 98142.75900000021,
      "d": 407.14244999999937,
      "v": 100
    },
    {
      "midi": 55,
      "hit": false,
      "t": 98142.75900000021,
      "d": 407.14244999999937,
      "v": 100
    },
    {
      "midi": 64,
      "hit": false,
      "t": 98142.75900000021,
      "d": 407.14244999999937,
      "v": 100
    },
    {
      "midi": 52,
      "hit": false,
      "t": 98571.3300000002,
      "d": 203.57122500000696,
      "v": 100
    },
    {
      "midi": 40,
      "hit": false,
      "t": 98571.3300000002,
      "d": 407.1424500000139,
      "v": 100
    },
    {
      "midi": 64,
      "hit": false,
      "t": 98785.61550000022,
      "d": 203.57122500000696,
      "v": 100
    },
    {
      "midi": 52,
      "hit": false,
      "t": 98999.90100000023,
      "d": 203.57122500000696,
      "v": 100
    },
    {
      "midi": 49,
      "hit": false,
      "t": 99214.18650000024,
      "d": 203.57122500000696,
      "v": 100
    },
    {
      "midi": 61,
      "hit": false,
      "t": 99214.18650000024,
      "d": 203.57122500000696,
      "v": 100
    },
    {
      "midi": 50,
      "hit": false,
      "t": 99428.47200000026,
      "d": 203.57122500000696,
      "v": 100
    },
    {
      "midi": 57,
      "hit": false,
      "t": 99428.47200000026,
      "d": 203.57122500000696,
      "v": 100
    },
    {
      "midi": 62,
      "hit": false,
      "t": 99428.47200000026,
      "d": 203.57122500000696,
      "v": 100
    },
    {
      "midi": 66,
      "hit": false,
      "t": 99428.47200000026,
      "d": 203.57122500000696,
      "v": 100
    },
    {
      "midi": 50,
      "hit": false,
      "t": 99642.75750000027,
      "d": 407.14244999999937,
      "v": 100
    },
    {
      "midi": 57,
      "hit": false,
      "t": 99642.75750000027,
      "d": 407.14244999999937,
      "v": 100
    },
    {
      "midi": 62,
      "hit": false,
      "t": 99642.75750000027,
      "d": 407.14244999999937,
      "v": 100
    },
    {
      "midi": 66,
      "hit": false,
      "t": 99642.75750000027,
      "d": 407.14244999999937,
      "v": 100
    },
    {
      "midi": 45,
      "hit": false,
      "t": 100071.32850000027,
      "d": 203.57122500000696,
      "v": 100
    },
    {
      "midi": 57,
      "hit": false,
      "t": 100071.32850000027,
      "d": 203.57122500000696,
      "v": 100
    },
    {
      "midi": 50,
      "hit": false,
      "t": 100285.61400000028,
      "d": 610.7136750000063,
      "v": 100
    },
    {
      "midi": 57,
      "hit": false,
      "t": 100285.61400000028,
      "d": 610.7136750000063,
      "v": 100
    },
    {
      "midi": 62,
      "hit": false,
      "t": 100285.61400000028,
      "d": 610.7136750000063,
      "v": 100
    },
    {
      "midi": 66,
      "hit": false,
      "t": 100285.61400000028,
      "d": 610.7136750000063,
      "v": 100
    },
    {
      "midi": 54,
      "hit": false,
      "t": 100928.47050000029,
      "d": 203.57122500000696,
      "v": 100
    },
    {
      "midi": 58,
      "hit": false,
      "t": 100928.47050000029,
      "d": 203.57122500000696,
      "v": 100
    },
    {
      "midi": 43,
      "hit": false,
      "t": 101142.7560000003,
      "d": 203.57122500000696,
      "v": 100
    },
    {
      "midi": 59,
      "hit": false,
      "t": 101142.7560000003,
      "d": 203.57122500000696,
      "v": 100
    },
    {
      "midi": 55,
      "hit": false,
      "t": 101153.4702750003,
      "d": 203.57122500000696,
      "v": 100
    },
    {
      "midi": 43,
      "hit": false,
      "t": 101346.3272250003,
      "d": 407.14244999999937,
      "v": 100
    },
    {
      "midi": 67,
      "hit": false,
      "t": 101382.04147500031,
      "d": 203.5712249999924,
      "v": 100
    },
    {
      "midi": 54,
      "hit": false,
      "t": 101571.32700000031,
      "d": 203.5712249999924,
      "v": 100
    },
    {
      "midi": 58,
      "hit": false,
      "t": 101571.32700000031,
      "d": 203.5712249999924,
      "v": 100
    },
    {
      "midi": 44,
      "hit": false,
      "t": 101785.61250000031,
      "d": 203.57122500000696,
      "v": 100
    },
    {
      "midi": 56,
      "hit": false,
      "t": 101785.61250000031,
      "d": 203.57122500000696,
      "v": 100
    },
    {
      "midi": 59,
      "hit": false,
      "t": 101785.61250000031,
      "d": 203.57122500000696,
      "v": 100
    },
    {
      "midi": 43,
      "hit": false,
      "t": 101999.89800000032,
      "d": 407.14244999999937,
      "v": 100
    },
    {
      "midi": 59,
      "hit": false,
      "t": 101999.89800000032,
      "d": 407.14244999999937,
      "v": 100
    },
    {
      "midi": 62,
      "hit": false,
      "t": 101999.89800000032,
      "d": 407.14244999999937,
      "v": 100
    },
    {
      "midi": 67,
      "hit": false,
      "t": 101999.89800000032,
      "d": 407.14244999999937,
      "v": 100
    },
    {
      "midi": 45,
      "hit": false,
      "t": 102642.75450000032,
      "d": 610.7136750000063,
      "v": 100
    },
    {
      "midi": 57,
      "hit": false,
      "t": 102642.75450000032,
      "d": 610.7136750000063,
      "v": 100
    },
    {
      "midi": 64,
      "hit": false,
      "t": 102642.75450000032,
      "d": 610.7136750000063,
      "v": 100
    },
    {
      "midi": 43,
      "hit": false,
      "t": 103285.61100000032,
      "d": 407.14244999999937,
      "v": 100
    },
    {
      "midi": 55,
      "hit": false,
      "t": 103285.61100000032,
      "d": 407.14244999999937,
      "v": 100
    },
    {
      "midi": 64,
      "hit": false,
      "t": 103285.61100000032,
      "d": 407.14244999999937,
      "v": 100
    },
    {
      "midi": 52,
      "hit": false,
      "t": 103714.18200000032,
      "d": 203.57122500000696,
      "v": 100
    },
    {
      "midi": 40,
      "hit": false,
      "t": 103714.18200000032,
      "d": 407.1424500000139,
      "v": 100
    },
    {
      "midi": 64,
      "hit": false,
      "t": 103928.46750000033,
      "d": 203.57122500000696,
      "v": 100
    },
    {
      "midi": 40,
      "hit": false,
      "t": 104142.75300000035,
      "d": 203.57122500000696,
      "v": 100
    },
    {
      "midi": 52,
      "hit": false,
      "t": 104142.75300000035,
      "d": 203.57122500000696,
      "v": 100
    },
    {
      "midi": 45,
      "hit": false,
      "t": 104357.03850000036,
      "d": 610.7136750000063,
      "v": 100
    },
    {
      "midi": 57,
      "hit": false,
      "t": 104357.03850000036,
      "d": 610.7136750000063,
      "v": 100
    },
    {
      "midi": 64,
      "hit": false,
      "t": 104357.03850000036,
      "d": 610.7136750000063,
      "v": 100
    },
    {
      "midi": 43,
      "hit": false,
      "t": 104999.89500000037,
      "d": 407.14244999999937,
      "v": 100
    },
    {
      "midi": 55,
      "hit": false,
      "t": 104999.89500000037,
      "d": 407.14244999999937,
      "v": 100
    },
    {
      "midi": 64,
      "hit": false,
      "t": 104999.89500000037,
      "d": 407.14244999999937,
      "v": 100
    },
    {
      "midi": 52,
      "hit": false,
      "t": 105428.46600000036,
      "d": 203.57122500000696,
      "v": 100
    },
    {
      "midi": 40,
      "hit": false,
      "t": 105428.46600000036,
      "d": 407.1424500000139,
      "v": 100
    },
    {
      "midi": 64,
      "hit": false,
      "t": 105642.75150000038,
      "d": 203.57122500000696,
      "v": 100
    },
    {
      "midi": 40,
      "hit": false,
      "t": 105857.03700000039,
      "d": 203.57122500000696,
      "v": 100
    },
    {
      "midi": 52,
      "hit": false,
      "t": 105857.03700000039,
      "d": 203.57122500000696,
      "v": 100
    },
    {
      "midi": 45,
      "hit": false,
      "t": 106071.3225000004,
      "d": 610.7136750000063,
      "v": 100
    },
    {
      "midi": 52,
      "hit": false,
      "t": 106071.3225000004,
      "d": 610.7136750000063,
      "v": 100
    },
    {
      "midi": 64,
      "hit": false,
      "t": 106071.3225000004,
      "d": 610.7136750000063,
      "v": 100
    },
    {
      "midi": 43,
      "hit": false,
      "t": 106714.17900000041,
      "d": 407.14244999999937,
      "v": 100
    },
    {
      "midi": 55,
      "hit": false,
      "t": 106714.17900000041,
      "d": 407.14244999999937,
      "v": 100
    },
    {
      "midi": 64,
      "hit": false,
      "t": 106714.17900000041,
      "d": 407.14244999999937,
      "v": 100
    },
    {
      "midi": 52,
      "hit": false,
      "t": 107142.75000000041,
      "d": 203.57122500000696,
      "v": 100
    },
    {
      "midi": 40,
      "hit": false,
      "t": 107142.75000000041,
      "d": 407.1424500000139,
      "v": 100
    },
    {
      "midi": 64,
      "hit": false,
      "t": 107357.03550000042,
      "d": 203.57122500000696,
      "v": 100
    },
    {
      "midi": 40,
      "hit": false,
      "t": 107571.32100000043,
      "d": 203.57122500000696,
      "v": 100
    },
    {
      "midi": 52,
      "hit": false,
      "t": 107571.32100000043,
      "d": 203.57122500000696,
      "v": 100
    },
    {
      "midi": 45,
      "hit": false,
      "t": 107785.60650000045,
      "d": 610.7136750000063,
      "v": 100
    },
    {
      "midi": 52,
      "hit": false,
      "t": 107785.60650000045,
      "d": 610.7136750000063,
      "v": 100
    },
    {
      "midi": 64,
      "hit": false,
      "t": 107785.60650000045,
      "d": 610.7136750000063,
      "v": 100
    },
    {
      "midi": 43,
      "hit": false,
      "t": 108428.46300000045,
      "d": 407.14244999999937,
      "v": 100
    },
    {
      "midi": 55,
      "hit": false,
      "t": 108428.46300000045,
      "d": 407.14244999999937,
      "v": 100
    },
    {
      "midi": 64,
      "hit": false,
      "t": 108428.46300000045,
      "d": 407.14244999999937,
      "v": 100
    },
    {
      "midi": 52,
      "hit": false,
      "t": 108857.03400000045,
      "d": 203.57122500000696,
      "v": 100
    },
    {
      "midi": 40,
      "hit": false,
      "t": 108857.03400000045,
      "d": 407.1424500000139,
      "v": 100
    },
    {
      "midi": 64,
      "hit": false,
      "t": 109071.31950000046,
      "d": 203.57122500000696,
      "v": 100
    },
    {
      "midi": 40,
      "hit": false,
      "t": 109285.60500000048,
      "d": 203.57122500000696,
      "v": 100
    },
    {
      "midi": 52,
      "hit": false,
      "t": 109285.60500000048,
      "d": 203.57122500000696,
      "v": 100
    },
    {
      "midi": 45,
      "hit": false,
      "t": 109499.89050000049,
      "d": 610.7136750000063,
      "v": 100
    },
    {
      "midi": 52,
      "hit": false,
      "t": 109499.89050000049,
      "d": 610.7136750000063,
      "v": 100
    },
    {
      "midi": 64,
      "hit": false,
      "t": 109499.89050000049,
      "d": 610.7136750000063,
      "v": 100
    },
    {
      "midi": 43,
      "hit": false,
      "t": 110142.7470000005,
      "d": 407.14244999999937,
      "v": 100
    },
    {
      "midi": 55,
      "hit": false,
      "t": 110142.7470000005,
      "d": 407.14244999999937,
      "v": 100
    },
    {
      "midi": 64,
      "hit": false,
      "t": 110142.7470000005,
      "d": 407.14244999999937,
      "v": 100
    },
    {
      "midi": 52,
      "hit": false,
      "t": 110571.3180000005,
      "d": 203.57122500000696,
      "v": 100
    },
    {
      "midi": 40,
      "hit": false,
      "t": 110571.3180000005,
      "d": 407.1424500000139,
      "v": 100
    },
    {
      "midi": 64,
      "hit": false,
      "t": 110785.6035000005,
      "d": 203.57122500000696,
      "v": 100
    },
    {
      "midi": 40,
      "hit": false,
      "t": 110999.88900000052,
      "d": 203.57122500000696,
      "v": 100
    },
    {
      "midi": 52,
      "hit": false,
      "t": 110999.88900000052,
      "d": 203.57122500000696,
      "v": 100
    },
    {
      "midi": 45,
      "hit": false,
      "t": 111214.17450000053,
      "d": 610.7136750000063,
      "v": 100
    },
    {
      "midi": 52,
      "hit": false,
      "t": 111214.17450000053,
      "d": 610.7136750000063,
      "v": 100
    },
    {
      "midi": 64,
      "hit": false,
      "t": 111214.17450000053,
      "d": 610.7136750000063,
      "v": 100
    },
    {
      "midi": 43,
      "hit": false,
      "t": 111857.03100000054,
      "d": 407.14244999999937,
      "v": 100
    },
    {
      "midi": 55,
      "hit": false,
      "t": 111857.03100000054,
      "d": 407.14244999999937,
      "v": 100
    },
    {
      "midi": 64,
      "hit": false,
      "t": 111857.03100000054,
      "d": 407.14244999999937,
      "v": 100
    },
    {
      "midi": 52,
      "hit": false,
      "t": 112285.60200000054,
      "d": 203.57122500000696,
      "v": 100
    },
    {
      "midi": 40,
      "hit": false,
      "t": 112285.60200000054,
      "d": 407.1424500000139,
      "v": 100
    },
    {
      "midi": 64,
      "hit": false,
      "t": 112499.88750000055,
      "d": 203.57122500000696,
      "v": 100
    },
    {
      "midi": 40,
      "hit": false,
      "t": 112714.17300000056,
      "d": 203.57122500000696,
      "v": 100
    },
    {
      "midi": 52,
      "hit": false,
      "t": 112714.17300000056,
      "d": 203.57122500000696,
      "v": 100
    },
    {
      "midi": 45,
      "hit": false,
      "t": 112928.45850000058,
      "d": 610.7136750000063,
      "v": 100
    },
    {
      "midi": 52,
      "hit": false,
      "t": 112928.45850000058,
      "d": 610.7136750000063,
      "v": 100
    },
    {
      "midi": 64,
      "hit": false,
      "t": 112928.45850000058,
      "d": 610.7136750000063,
      "v": 100
    },
    {
      "midi": 46,
      "hit": false,
      "t": 113571.31500000058,
      "d": 407.14244999999937,
      "v": 100
    },
    {
      "midi": 56,
      "hit": false,
      "t": 113571.31500000058,
      "d": 407.14244999999937,
      "v": 100
    },
    {
      "midi": 57,
      "hit": false,
      "t": 113571.31500000058,
      "d": 407.14244999999937,
      "v": 100
    },
    {
      "midi": 62,
      "hit": false,
      "t": 113571.31500000058,
      "d": 407.14244999999937,
      "v": 100
    },
    {
      "midi": 44,
      "hit": false,
      "t": 113999.88600000058,
      "d": 407.14244999999937,
      "v": 100
    },
    {
      "midi": 54,
      "hit": false,
      "t": 113999.88600000058,
      "d": 407.14244999999937,
      "v": 100
    },
    {
      "midi": 60,
      "hit": false,
      "t": 113999.88600000058,
      "d": 407.14244999999937,
      "v": 100
    },
    {
      "midi": 45,
      "hit": false,
      "t": 114428.45700000058,
      "d": 407.14244999999937,
      "v": 100
    },
    {
      "midi": 55,
      "hit": false,
      "t": 114428.45700000058,
      "d": 407.14244999999937,
      "v": 100
    },
    {
      "midi": 61,
      "hit": false,
      "t": 114428.45700000058,
      "d": 407.14244999999937,
      "v": 100
    },
    {
      "midi": 46,
      "hit": false,
      "t": 114857.02800000057,
      "d": 407.14244999999937,
      "v": 100
    },
    {
      "midi": 56,
      "hit": false,
      "t": 114857.02800000057,
      "d": 407.14244999999937,
      "v": 100
    },
    {
      "midi": 57,
      "hit": false,
      "t": 114857.02800000057,
      "d": 407.14244999999937,
      "v": 100
    },
    {
      "midi": 62,
      "hit": false,
      "t": 114857.02800000057,
      "d": 407.14244999999937,
      "v": 100
    },
    {
      "midi": 44,
      "hit": false,
      "t": 115285.59900000057,
      "d": 407.14244999999937,
      "v": 100
    },
    {
      "midi": 54,
      "hit": false,
      "t": 115285.59900000057,
      "d": 407.14244999999937,
      "v": 100
    },
    {
      "midi": 60,
      "hit": false,
      "t": 115285.59900000057,
      "d": 407.14244999999937,
      "v": 100
    },
    {
      "midi": 45,
      "hit": false,
      "t": 115714.17000000057,
      "d": 407.14244999999937,
      "v": 100
    },
    {
      "midi": 55,
      "hit": false,
      "t": 115714.17000000057,
      "d": 407.14244999999937,
      "v": 100
    },
    {
      "midi": 61,
      "hit": false,
      "t": 115714.17000000057,
      "d": 407.14244999999937,
      "v": 100
    },
    {
      "midi": 46,
      "hit": false,
      "t": 116142.74100000056,
      "d": 407.14244999999937,
      "v": 100
    },
    {
      "midi": 56,
      "hit": false,
      "t": 116142.74100000056,
      "d": 407.14244999999937,
      "v": 100
    },
    {
      "midi": 57,
      "hit": false,
      "t": 116142.74100000056,
      "d": 407.14244999999937,
      "v": 100
    },
    {
      "midi": 62,
      "hit": false,
      "t": 116142.74100000056,
      "d": 407.14244999999937,
      "v": 100
    },
    {
      "midi": 44,
      "hit": false,
      "t": 116571.31200000056,
      "d": 407.14244999999937,
      "v": 100
    },
    {
      "midi": 54,
      "hit": false,
      "t": 116571.31200000056,
      "d": 407.14244999999937,
      "v": 100
    },
    {
      "midi": 60,
      "hit": false,
      "t": 116571.31200000056,
      "d": 407.14244999999937,
      "v": 100
    },
    {
      "midi": 45,
      "hit": false,
      "t": 116999.88300000055,
      "d": 407.14244999999937,
      "v": 100
    },
    {
      "midi": 55,
      "hit": false,
      "t": 116999.88300000055,
      "d": 407.14244999999937,
      "v": 100
    },
    {
      "midi": 61,
      "hit": false,
      "t": 116999.88300000055,
      "d": 407.14244999999937,
      "v": 100
    },
    {
      "midi": 46,
      "hit": false,
      "t": 117428.45400000055,
      "d": 407.14244999999937,
      "v": 100
    },
    {
      "midi": 56,
      "hit": false,
      "t": 117428.45400000055,
      "d": 407.14244999999937,
      "v": 100
    },
    {
      "midi": 57,
      "hit": false,
      "t": 117428.45400000055,
      "d": 407.14244999999937,
      "v": 100
    },
    {
      "midi": 62,
      "hit": false,
      "t": 117428.45400000055,
      "d": 407.14244999999937,
      "v": 100
    },
    {
      "midi": 44,
      "hit": false,
      "t": 117857.02500000055,
      "d": 407.14244999999937,
      "v": 100
    },
    {
      "midi": 54,
      "hit": false,
      "t": 117857.02500000055,
      "d": 407.14244999999937,
      "v": 100
    },
    {
      "midi": 60,
      "hit": false,
      "t": 117857.02500000055,
      "d": 407.14244999999937,
      "v": 100
    },
    {
      "midi": 45,
      "hit": false,
      "t": 118285.59600000054,
      "d": 407.14244999999937,
      "v": 100
    },
    {
      "midi": 55,
      "hit": false,
      "t": 118285.59600000054,
      "d": 407.14244999999937,
      "v": 100
    },
    {
      "midi": 61,
      "hit": false,
      "t": 118285.59600000054,
      "d": 407.14244999999937,
      "v": 100
    },
    {
      "midi": 46,
      "hit": false,
      "t": 118714.16700000054,
      "d": 407.14244999999937,
      "v": 100
    },
    {
      "midi": 56,
      "hit": false,
      "t": 118714.16700000054,
      "d": 407.14244999999937,
      "v": 100
    },
    {
      "midi": 57,
      "hit": false,
      "t": 118714.16700000054,
      "d": 407.14244999999937,
      "v": 100
    },
    {
      "midi": 62,
      "hit": false,
      "t": 118714.16700000054,
      "d": 407.14244999999937,
      "v": 100
    },
    {
      "midi": 44,
      "hit": false,
      "t": 119142.73800000054,
      "d": 407.14244999999937,
      "v": 100
    },
    {
      "midi": 54,
      "hit": false,
      "t": 119142.73800000054,
      "d": 407.14244999999937,
      "v": 100
    },
    {
      "midi": 60,
      "hit": false,
      "t": 119142.73800000054,
      "d": 407.14244999999937,
      "v": 100
    },
    {
      "midi": 44,
      "hit": false,
      "t": 119571.30900000053,
      "d": 203.57122500000696,
      "v": 100
    },
    {
      "midi": 55,
      "hit": false,
      "t": 119571.30900000053,
      "d": 203.57122500000696,
      "v": 100
    },
    {
      "midi": 61,
      "hit": false,
      "t": 119571.30900000053,
      "d": 203.57122500000696,
      "v": 100
    },
    {
      "midi": 45,
      "hit": false,
      "t": 119785.59450000054,
      "d": 610.7136750000063,
      "v": 100
    },
    {
      "midi": 57,
      "hit": false,
      "t": 119785.59450000054,
      "d": 610.7136750000063,
      "v": 100
    },
    {
      "midi": 64,
      "hit": false,
      "t": 119785.59450000054,
      "d": 610.7136750000063,
      "v": 100
    },
    {
      "midi": 43,
      "hit": false,
      "t": 120428.45100000055,
      "d": 407.14244999999937,
      "v": 100
    },
    {
      "midi": 55,
      "hit": false,
      "t": 120428.45100000055,
      "d": 407.14244999999937,
      "v": 100
    },
    {
      "midi": 64,
      "hit": false,
      "t": 120428.45100000055,
      "d": 407.14244999999937,
      "v": 100
    },
    {
      "midi": 52,
      "hit": false,
      "t": 120857.02200000055,
      "d": 203.57122500000696,
      "v": 100
    },
    {
      "midi": 40,
      "hit": false,
      "t": 120857.02200000055,
      "d": 407.1424500000139,
      "v": 100
    },
    {
      "midi": 64,
      "hit": false,
      "t": 121071.30750000056,
      "d": 203.57122500000696,
      "v": 100
    },
    {
      "midi": 40,
      "hit": false,
      "t": 121285.59300000058,
      "d": 203.57122500000696,
      "v": 100
    },
    {
      "midi": 52,
      "hit": false,
      "t": 121285.59300000058,
      "d": 203.57122500000696,
      "v": 100
    },
    {
      "midi": 45,
      "hit": false,
      "t": 121499.87850000059,
      "d": 610.7136750000063,
      "v": 100
    },
    {
      "midi": 64,
      "hit": false,
      "t": 121499.87850000059,
      "d": 610.7136750000063,
      "v": 100
    },
    {
      "midi": 43,
      "hit": false,
      "t": 122142.7350000006,
      "d": 407.14244999999937,
      "v": 100
    },
    {
      "midi": 55,
      "hit": false,
      "t": 122142.7350000006,
      "d": 407.14244999999937,
      "v": 100
    },
    {
      "midi": 64,
      "hit": false,
      "t": 122142.7350000006,
      "d": 407.14244999999937,
      "v": 100
    },
    {
      "midi": 52,
      "hit": false,
      "t": 122571.3060000006,
      "d": 203.57122500000696,
      "v": 100
    },
    {
      "midi": 40,
      "hit": false,
      "t": 122571.3060000006,
      "d": 407.1424500000139,
      "v": 100
    },
    {
      "midi": 64,
      "hit": false,
      "t": 122785.5915000006,
      "d": 203.57122500000696,
      "v": 100
    },
    {
      "midi": 40,
      "hit": false,
      "t": 122999.87700000062,
      "d": 203.57122500000696,
      "v": 100
    },
    {
      "midi": 52,
      "hit": false,
      "t": 122999.87700000062,
      "d": 203.57122500000696,
      "v": 100
    },
    {
      "midi": 45,
      "hit": false,
      "t": 123214.16250000063,
      "d": 610.7136750000063,
      "v": 100
    },
    {
      "midi": 64,
      "hit": false,
      "t": 123214.16250000063,
      "d": 610.7136750000063,
      "v": 100
    },
    {
      "midi": 43,
      "hit": false,
      "t": 123857.01900000064,
      "d": 407.14244999999937,
      "v": 100
    },
    {
      "midi": 55,
      "hit": false,
      "t": 123857.01900000064,
      "d": 407.14244999999937,
      "v": 100
    },
    {
      "midi": 64,
      "hit": false,
      "t": 123857.01900000064,
      "d": 407.14244999999937,
      "v": 100
    },
    {
      "midi": 52,
      "hit": false,
      "t": 124285.59000000064,
      "d": 203.57122500000696,
      "v": 100
    },
    {
      "midi": 40,
      "hit": false,
      "t": 124285.59000000064,
      "d": 407.1424500000139,
      "v": 100
    },
    {
      "midi": 64,
      "hit": false,
      "t": 124499.87550000065,
      "d": 203.57122500000696,
      "v": 100
    },
    {
      "midi": 40,
      "hit": false,
      "t": 124714.16100000066,
      "d": 203.57122500000696,
      "v": 100
    },
    {
      "midi": 52,
      "hit": false,
      "t": 124714.16100000066,
      "d": 203.57122500000696,
      "v": 100
    },
    {
      "midi": 45,
      "hit": false,
      "t": 124928.44650000067,
      "d": 610.7136750000063,
      "v": 100
    },
    {
      "midi": 64,
      "hit": false,
      "t": 124928.44650000067,
      "d": 610.7136750000063,
      "v": 100
    },
    {
      "midi": 43,
      "hit": false,
      "t": 125571.30300000068,
      "d": 407.14244999999937,
      "v": 100
    },
    {
      "midi": 55,
      "hit": false,
      "t": 125571.30300000068,
      "d": 407.14244999999937,
      "v": 100
    },
    {
      "midi": 64,
      "hit": false,
      "t": 125571.30300000068,
      "d": 407.14244999999937,
      "v": 100
    },
    {
      "midi": 52,
      "hit": false,
      "t": 125999.87400000068,
      "d": 203.57122500000696,
      "v": 100
    },
    {
      "midi": 40,
      "hit": false,
      "t": 125999.87400000068,
      "d": 407.1424500000139,
      "v": 100
    },
    {
      "midi": 64,
      "hit": false,
      "t": 126214.1595000007,
      "d": 203.57122500000696,
      "v": 100
    },
    {
      "midi": 40,
      "hit": false,
      "t": 126428.4450000007,
      "d": 203.57122500000696,
      "v": 100
    },
    {
      "midi": 52,
      "hit": false,
      "t": 126428.4450000007,
      "d": 203.57122500000696,
      "v": 100
    },
    {
      "midi": 45,
      "hit": false,
      "t": 126642.73050000072,
      "d": 610.7136750000063,
      "v": 100
    },
    {
      "midi": 64,
      "hit": false,
      "t": 126642.73050000072,
      "d": 610.7136750000063,
      "v": 100
    },
    {
      "midi": 46,
      "hit": false,
      "t": 127285.58700000073,
      "d": 407.14244999999937,
      "v": 100
    },
    {
      "midi": 56,
      "hit": false,
      "t": 127285.58700000073,
      "d": 407.14244999999937,
      "v": 100
    },
    {
      "midi": 57,
      "hit": false,
      "t": 127285.58700000073,
      "d": 407.14244999999937,
      "v": 100
    },
    {
      "midi": 62,
      "hit": false,
      "t": 127285.58700000073,
      "d": 407.14244999999937,
      "v": 100
    },
    {
      "midi": 44,
      "hit": false,
      "t": 127714.15800000072,
      "d": 407.14244999999937,
      "v": 100
    },
    {
      "midi": 54,
      "hit": false,
      "t": 127714.15800000072,
      "d": 407.14244999999937,
      "v": 100
    },
    {
      "midi": 60,
      "hit": false,
      "t": 127714.15800000072,
      "d": 407.14244999999937,
      "v": 100
    },
    {
      "midi": 45,
      "hit": false,
      "t": 128142.72900000072,
      "d": 407.14244999999937,
      "v": 100
    },
    {
      "midi": 55,
      "hit": false,
      "t": 128142.72900000072,
      "d": 407.14244999999937,
      "v": 100
    },
    {
      "midi": 61,
      "hit": false,
      "t": 128142.72900000072,
      "d": 407.14244999999937,
      "v": 100
    },
    {
      "midi": 46,
      "hit": false,
      "t": 128571.30000000072,
      "d": 407.14244999999937,
      "v": 100
    },
    {
      "midi": 56,
      "hit": false,
      "t": 128571.30000000072,
      "d": 407.14244999999937,
      "v": 100
    },
    {
      "midi": 57,
      "hit": false,
      "t": 128571.30000000072,
      "d": 407.14244999999937,
      "v": 100
    },
    {
      "midi": 62,
      "hit": false,
      "t": 128571.30000000072,
      "d": 407.14244999999937,
      "v": 100
    },
    {
      "midi": 44,
      "hit": false,
      "t": 128999.87100000071,
      "d": 407.14244999999937,
      "v": 100
    },
    {
      "midi": 54,
      "hit": false,
      "t": 128999.87100000071,
      "d": 407.14244999999937,
      "v": 100
    },
    {
      "midi": 60,
      "hit": false,
      "t": 128999.87100000071,
      "d": 407.14244999999937,
      "v": 100
    },
    {
      "midi": 45,
      "hit": false,
      "t": 129428.44200000071,
      "d": 407.14244999999937,
      "v": 100
    },
    {
      "midi": 55,
      "hit": false,
      "t": 129428.44200000071,
      "d": 407.14244999999937,
      "v": 100
    },
    {
      "midi": 61,
      "hit": false,
      "t": 129428.44200000071,
      "d": 407.14244999999937,
      "v": 100
    },
    {
      "midi": 46,
      "hit": false,
      "t": 129857.0130000007,
      "d": 407.14244999999937,
      "v": 100
    },
    {
      "midi": 56,
      "hit": false,
      "t": 129857.0130000007,
      "d": 407.14244999999937,
      "v": 100
    },
    {
      "midi": 57,
      "hit": false,
      "t": 129857.0130000007,
      "d": 407.14244999999937,
      "v": 100
    },
    {
      "midi": 62,
      "hit": false,
      "t": 129857.0130000007,
      "d": 407.14244999999937,
      "v": 100
    },
    {
      "midi": 44,
      "hit": false,
      "t": 130285.5840000007,
      "d": 407.14244999999937,
      "v": 100
    },
    {
      "midi": 54,
      "hit": false,
      "t": 130285.5840000007,
      "d": 407.14244999999937,
      "v": 100
    },
    {
      "midi": 60,
      "hit": false,
      "t": 130285.5840000007,
      "d": 407.14244999999937,
      "v": 100
    },
    {
      "midi": 45,
      "hit": false,
      "t": 130714.1550000007,
      "d": 407.1424500000139,
      "v": 100
    },
    {
      "midi": 55,
      "hit": false,
      "t": 130714.1550000007,
      "d": 407.1424500000139,
      "v": 100
    },
    {
      "midi": 61,
      "hit": false,
      "t": 130714.1550000007,
      "d": 407.1424500000139,
      "v": 100
    },
    {
      "midi": 46,
      "hit": false,
      "t": 131142.72600000072,
      "d": 407.1424500000139,
      "v": 100
    },
    {
      "midi": 56,
      "hit": false,
      "t": 131142.72600000072,
      "d": 407.1424500000139,
      "v": 100
    },
    {
      "midi": 57,
      "hit": false,
      "t": 131142.72600000072,
      "d": 407.1424500000139,
      "v": 100
    },
    {
      "midi": 62,
      "hit": false,
      "t": 131142.72600000072,
      "d": 407.1424500000139,
      "v": 100
    },
    {
      "midi": 44,
      "hit": false,
      "t": 131571.29700000075,
      "d": 407.1424500000139,
      "v": 100
    },
    {
      "midi": 54,
      "hit": false,
      "t": 131571.29700000075,
      "d": 407.1424500000139,
      "v": 100
    },
    {
      "midi": 60,
      "hit": false,
      "t": 131571.29700000075,
      "d": 407.1424500000139,
      "v": 100
    },
    {
      "midi": 45,
      "hit": false,
      "t": 131999.86800000077,
      "d": 407.1424500000139,
      "v": 100
    },
    {
      "midi": 55,
      "hit": false,
      "t": 131999.86800000077,
      "d": 407.1424500000139,
      "v": 100
    },
    {
      "midi": 61,
      "hit": false,
      "t": 131999.86800000077,
      "d": 407.1424500000139,
      "v": 100
    },
    {
      "midi": 46,
      "hit": false,
      "t": 132428.4390000008,
      "d": 407.1424500000139,
      "v": 100
    },
    {
      "midi": 56,
      "hit": false,
      "t": 132428.4390000008,
      "d": 407.1424500000139,
      "v": 100
    },
    {
      "midi": 57,
      "hit": false,
      "t": 132428.4390000008,
      "d": 407.1424500000139,
      "v": 100
    },
    {
      "midi": 62,
      "hit": false,
      "t": 132428.4390000008,
      "d": 407.1424500000139,
      "v": 100
    },
    {
      "midi": 44,
      "hit": false,
      "t": 132857.01000000082,
      "d": 407.1424500000139,
      "v": 100
    },
    {
      "midi": 54,
      "hit": false,
      "t": 132857.01000000082,
      "d": 407.1424500000139,
      "v": 100
    },
    {
      "midi": 60,
      "hit": false,
      "t": 132857.01000000082,
      "d": 407.1424500000139,
      "v": 100
    },
    {
      "midi": 44,
      "hit": false,
      "t": 133285.58100000085,
      "d": 203.5712249999924,
      "v": 100
    },
    {
      "midi": 55,
      "hit": false,
      "t": 133285.58100000085,
      "d": 203.5712249999924,
      "v": 100
    },
    {
      "midi": 61,
      "hit": false,
      "t": 133285.58100000085,
      "d": 203.5712249999924,
      "v": 100
    },
    {
      "midi": 45,
      "hit": false,
      "t": 133499.86650000085,
      "d": 610.7136750000063,
      "v": 100
    },
    {
      "midi": 57,
      "hit": false,
      "t": 133499.86650000085,
      "d": 610.7136750000063,
      "v": 100
    },
    {
      "midi": 64,
      "hit": false,
      "t": 133499.86650000085,
      "d": 610.7136750000063,
      "v": 100
    },
    {
      "midi": 43,
      "hit": false,
      "t": 134142.72300000084,
      "d": 407.1424500000139,
      "v": 100
    },
    {
      "midi": 55,
      "hit": false,
      "t": 134142.72300000084,
      "d": 407.1424500000139,
      "v": 100
    },
    {
      "midi": 64,
      "hit": false,
      "t": 134142.72300000084,
      "d": 407.1424500000139,
      "v": 100
    },
    {
      "midi": 52,
      "hit": false,
      "t": 134571.29400000087,
      "d": 203.5712249999924,
      "v": 100
    },
    {
      "midi": 40,
      "hit": false,
      "t": 134571.29400000087,
      "d": 407.1424499999848,
      "v": 100
    },
    {
      "midi": 64,
      "hit": false,
      "t": 134785.57950000087,
      "d": 203.5712249999924,
      "v": 100
    },
    {
      "midi": 40,
      "hit": false,
      "t": 134999.86500000086,
      "d": 203.5712249999924,
      "v": 100
    },
    {
      "midi": 52,
      "hit": false,
      "t": 134999.86500000086,
      "d": 203.5712249999924,
      "v": 100
    },
    {
      "midi": 45,
      "hit": false,
      "t": 135214.15050000086,
      "d": 610.7136750000063,
      "v": 100
    },
    {
      "midi": 64,
      "hit": false,
      "t": 135214.15050000086,
      "d": 610.7136750000063,
      "v": 100
    },
    {
      "midi": 43,
      "hit": false,
      "t": 135857.00700000086,
      "d": 407.1424500000139,
      "v": 100
    },
    {
      "midi": 55,
      "hit": false,
      "t": 135857.00700000086,
      "d": 407.1424500000139,
      "v": 100
    },
    {
      "midi": 64,
      "hit": false,
      "t": 135857.00700000086,
      "d": 407.1424500000139,
      "v": 100
    },
    {
      "midi": 52,
      "hit": false,
      "t": 136285.57800000088,
      "d": 203.5712249999924,
      "v": 100
    },
    {
      "midi": 40,
      "hit": false,
      "t": 136285.57800000088,
      "d": 407.1424499999848,
      "v": 100
    },
    {
      "midi": 64,
      "hit": false,
      "t": 136499.86350000088,
      "d": 203.5712249999924,
      "v": 100
    },
    {
      "midi": 40,
      "hit": false,
      "t": 136714.14900000088,
      "d": 203.5712249999924,
      "v": 100
    },
    {
      "midi": 52,
      "hit": false,
      "t": 136714.14900000088,
      "d": 203.5712249999924,
      "v": 100
    },
    {
      "midi": 45,
      "hit": false,
      "t": 136928.43450000088,
      "d": 610.7136750000063,
      "v": 100
    },
    {
      "midi": 64,
      "hit": false,
      "t": 136928.43450000088,
      "d": 610.7136750000063,
      "v": 100
    },
    {
      "midi": 43,
      "hit": false,
      "t": 137571.29100000087,
      "d": 407.1424500000139,
      "v": 100
    },
    {
      "midi": 55,
      "hit": false,
      "t": 137571.29100000087,
      "d": 407.1424500000139,
      "v": 100
    },
    {
      "midi": 64,
      "hit": false,
      "t": 137571.29100000087,
      "d": 407.1424500000139,
      "v": 100
    },
    {
      "midi": 52,
      "hit": false,
      "t": 137999.8620000009,
      "d": 203.5712249999924,
      "v": 100
    },
    {
      "midi": 40,
      "hit": false,
      "t": 137999.8620000009,
      "d": 407.1424499999848,
      "v": 100
    },
    {
      "midi": 64,
      "hit": false,
      "t": 138214.1475000009,
      "d": 203.5712249999924,
      "v": 100
    },
    {
      "midi": 40,
      "hit": false,
      "t": 138428.4330000009,
      "d": 203.5712249999924,
      "v": 100
    },
    {
      "midi": 52,
      "hit": false,
      "t": 138428.4330000009,
      "d": 203.5712249999924,
      "v": 100
    },
    {
      "midi": 45,
      "hit": false,
      "t": 138642.7185000009,
      "d": 610.7136750000063,
      "v": 100
    },
    {
      "midi": 57,
      "hit": false,
      "t": 138642.7185000009,
      "d": 610.7136750000063,
      "v": 100
    },
    {
      "midi": 64,
      "hit": false,
      "t": 138642.7185000009,
      "d": 610.7136750000063,
      "v": 100
    },
    {
      "midi": 43,
      "hit": false,
      "t": 139285.57500000088,
      "d": 407.1424500000139,
      "v": 100
    },
    {
      "midi": 55,
      "hit": false,
      "t": 139285.57500000088,
      "d": 407.1424500000139,
      "v": 100
    },
    {
      "midi": 64,
      "hit": false,
      "t": 139285.57500000088,
      "d": 407.1424500000139,
      "v": 100
    },
    {
      "midi": 52,
      "hit": false,
      "t": 139714.1460000009,
      "d": 203.5712249999924,
      "v": 100
    },
    {
      "midi": 40,
      "hit": false,
      "t": 139714.1460000009,
      "d": 407.1424499999848,
      "v": 100
    },
    {
      "midi": 64,
      "hit": false,
      "t": 139928.4315000009,
      "d": 203.5712249999924,
      "v": 100
    },
    {
      "midi": 52,
      "hit": false,
      "t": 140142.7170000009,
      "d": 203.5712249999924,
      "v": 100
    },
    {
      "midi": 49,
      "hit": false,
      "t": 140357.0025000009,
      "d": 203.5712249999924,
      "v": 100
    },
    {
      "midi": 61,
      "hit": false,
      "t": 140357.0025000009,
      "d": 203.5712249999924,
      "v": 100
    },
    {
      "midi": 50,
      "hit": false,
      "t": 140571.2880000009,
      "d": 203.5712249999924,
      "v": 100
    },
    {
      "midi": 57,
      "hit": false,
      "t": 140571.2880000009,
      "d": 203.5712249999924,
      "v": 100
    },
    {
      "midi": 62,
      "hit": false,
      "t": 140571.2880000009,
      "d": 203.5712249999924,
      "v": 100
    },
    {
      "midi": 66,
      "hit": false,
      "t": 140571.2880000009,
      "d": 203.5712249999924,
      "v": 100
    },
    {
      "midi": 50,
      "hit": false,
      "t": 140785.5735000009,
      "d": 407.1424500000139,
      "v": 100
    },
    {
      "midi": 57,
      "hit": false,
      "t": 140785.5735000009,
      "d": 407.1424500000139,
      "v": 100
    },
    {
      "midi": 62,
      "hit": false,
      "t": 140785.5735000009,
      "d": 407.1424500000139,
      "v": 100
    },
    {
      "midi": 66,
      "hit": false,
      "t": 140785.5735000009,
      "d": 407.1424500000139,
      "v": 100
    },
    {
      "midi": 45,
      "hit": false,
      "t": 141214.14450000093,
      "d": 203.5712249999924,
      "v": 100
    },
    {
      "midi": 57,
      "hit": false,
      "t": 141214.14450000093,
      "d": 203.5712249999924,
      "v": 100
    },
    {
      "midi": 50,
      "hit": false,
      "t": 141428.43000000092,
      "d": 610.7136750000063,
      "v": 100
    },
    {
      "midi": 57,
      "hit": false,
      "t": 141428.43000000092,
      "d": 610.7136750000063,
      "v": 100
    },
    {
      "midi": 62,
      "hit": false,
      "t": 141428.43000000092,
      "d": 610.7136750000063,
      "v": 100
    },
    {
      "midi": 66,
      "hit": false,
      "t": 141428.43000000092,
      "d": 610.7136750000063,
      "v": 100
    },
    {
      "midi": 54,
      "hit": false,
      "t": 142071.28650000092,
      "d": 203.5712249999924,
      "v": 100
    },
    {
      "midi": 58,
      "hit": false,
      "t": 142071.28650000092,
      "d": 203.5712249999924,
      "v": 100
    },
    {
      "midi": 43,
      "hit": false,
      "t": 142285.57200000092,
      "d": 203.5712249999924,
      "v": 100
    },
    {
      "midi": 59,
      "hit": false,
      "t": 142285.57200000092,
      "d": 203.5712249999924,
      "v": 100
    },
    {
      "midi": 55,
      "hit": false,
      "t": 142296.28627500092,
      "d": 203.5712249999924,
      "v": 100
    },
    {
      "midi": 43,
      "hit": false,
      "t": 142499.85750000092,
      "d": 407.142450000043,
      "v": 100
    },
    {
      "midi": 67,
      "hit": false,
      "t": 142524.85747500093,
      "d": 203.5712250000215,
      "v": 100
    },
    {
      "midi": 54,
      "hit": false,
      "t": 142714.14300000094,
      "d": 203.5712250000215,
      "v": 100
    },
    {
      "midi": 58,
      "hit": false,
      "t": 142714.14300000094,
      "d": 203.5712250000215,
      "v": 100
    },
    {
      "midi": 43,
      "hit": false,
      "t": 142928.42850000097,
      "d": 203.5712249999924,
      "v": 100
    },
    {
      "midi": 55,
      "hit": false,
      "t": 142928.42850000097,
      "d": 203.5712249999924,
      "v": 100
    },
    {
      "midi": 59,
      "hit": false,
      "t": 142928.42850000097,
      "d": 203.5712249999924,
      "v": 100
    },
    {
      "midi": 43,
      "hit": false,
      "t": 143142.71400000097,
      "d": 407.1424500000139,
      "v": 100
    },
    {
      "midi": 59,
      "hit": false,
      "t": 143142.71400000097,
      "d": 407.1424500000139,
      "v": 100
    },
    {
      "midi": 62,
      "hit": false,
      "t": 143142.71400000097,
      "d": 407.1424500000139,
      "v": 100
    },
    {
      "midi": 67,
      "hit": false,
      "t": 143142.71400000097,
      "d": 407.1424500000139,
      "v": 100
    },
    {
      "midi": 45,
      "hit": false,
      "t": 143785.570500001,
      "d": 610.7136750000063,
      "v": 100
    },
    {
      "midi": 57,
      "hit": false,
      "t": 143785.570500001,
      "d": 610.7136750000063,
      "v": 100
    },
    {
      "midi": 64,
      "hit": false,
      "t": 143785.570500001,
      "d": 610.7136750000063,
      "v": 100
    },
    {
      "midi": 43,
      "hit": false,
      "t": 144428.427000001,
      "d": 407.1424500000139,
      "v": 100
    },
    {
      "midi": 55,
      "hit": false,
      "t": 144428.427000001,
      "d": 407.1424500000139,
      "v": 100
    },
    {
      "midi": 64,
      "hit": false,
      "t": 144428.427000001,
      "d": 407.1424500000139,
      "v": 100
    },
    {
      "midi": 52,
      "hit": false,
      "t": 144856.998000001,
      "d": 203.5712249999924,
      "v": 100
    },
    {
      "midi": 40,
      "hit": false,
      "t": 144856.998000001,
      "d": 407.1424499999848,
      "v": 100
    },
    {
      "midi": 64,
      "hit": false,
      "t": 145071.283500001,
      "d": 203.5712249999924,
      "v": 100
    },
    {
      "midi": 40,
      "hit": false,
      "t": 145285.569000001,
      "d": 203.5712249999924,
      "v": 100
    },
    {
      "midi": 52,
      "hit": false,
      "t": 145285.569000001,
      "d": 203.5712249999924,
      "v": 100
    },
    {
      "midi": 45,
      "hit": false,
      "t": 145499.854500001,
      "d": 610.7136750000063,
      "v": 100
    },
    {
      "midi": 57,
      "hit": false,
      "t": 145499.854500001,
      "d": 610.7136750000063,
      "v": 100
    },
    {
      "midi": 64,
      "hit": false,
      "t": 145499.854500001,
      "d": 610.7136750000063,
      "v": 100
    },
    {
      "midi": 43,
      "hit": false,
      "t": 146142.711000001,
      "d": 407.1424500000139,
      "v": 100
    },
    {
      "midi": 55,
      "hit": false,
      "t": 146142.711000001,
      "d": 407.1424500000139,
      "v": 100
    },
    {
      "midi": 64,
      "hit": false,
      "t": 146142.711000001,
      "d": 407.1424500000139,
      "v": 100
    },
    {
      "midi": 52,
      "hit": false,
      "t": 146571.28200000103,
      "d": 203.5712249999924,
      "v": 100
    },
    {
      "midi": 40,
      "hit": false,
      "t": 146571.28200000103,
      "d": 407.1424499999848,
      "v": 100
    },
    {
      "midi": 64,
      "hit": false,
      "t": 146785.56750000102,
      "d": 203.5712249999924,
      "v": 100
    },
    {
      "midi": 52,
      "hit": false,
      "t": 146999.85300000102,
      "d": 203.5712249999924,
      "v": 100
    },
    {
      "midi": 49,
      "hit": false,
      "t": 147214.13850000102,
      "d": 203.5712249999924,
      "v": 100
    },
    {
      "midi": 61,
      "hit": false,
      "t": 147214.13850000102,
      "d": 203.5712249999924,
      "v": 100
    },
    {
      "midi": 50,
      "hit": false,
      "t": 147428.42400000102,
      "d": 203.5712249999924,
      "v": 100
    },
    {
      "midi": 57,
      "hit": false,
      "t": 147428.42400000102,
      "d": 203.5712249999924,
      "v": 100
    },
    {
      "midi": 62,
      "hit": false,
      "t": 147428.42400000102,
      "d": 203.5712249999924,
      "v": 100
    },
    {
      "midi": 66,
      "hit": false,
      "t": 147428.42400000102,
      "d": 203.5712249999924,
      "v": 100
    },
    {
      "midi": 50,
      "hit": false,
      "t": 147642.70950000102,
      "d": 407.1424500000139,
      "v": 100
    },
    {
      "midi": 57,
      "hit": false,
      "t": 147642.70950000102,
      "d": 407.1424500000139,
      "v": 100
    },
    {
      "midi": 62,
      "hit": false,
      "t": 147642.70950000102,
      "d": 407.1424500000139,
      "v": 100
    },
    {
      "midi": 66,
      "hit": false,
      "t": 147642.70950000102,
      "d": 407.1424500000139,
      "v": 100
    },
    {
      "midi": 45,
      "hit": false,
      "t": 148071.28050000104,
      "d": 203.5712249999924,
      "v": 100
    },
    {
      "midi": 57,
      "hit": false,
      "t": 148071.28050000104,
      "d": 203.5712249999924,
      "v": 100
    },
    {
      "midi": 50,
      "hit": false,
      "t": 148285.56600000104,
      "d": 610.7136750000063,
      "v": 100
    },
    {
      "midi": 57,
      "hit": false,
      "t": 148285.56600000104,
      "d": 610.7136750000063,
      "v": 100
    },
    {
      "midi": 62,
      "hit": false,
      "t": 148285.56600000104,
      "d": 610.7136750000063,
      "v": 100
    },
    {
      "midi": 66,
      "hit": false,
      "t": 148285.56600000104,
      "d": 610.7136750000063,
      "v": 100
    },
    {
      "midi": 54,
      "hit": false,
      "t": 148928.42250000103,
      "d": 203.5712249999924,
      "v": 100
    },
    {
      "midi": 58,
      "hit": false,
      "t": 148928.42250000103,
      "d": 203.5712249999924,
      "v": 100
    },
    {
      "midi": 43,
      "hit": false,
      "t": 149142.70800000103,
      "d": 203.5712249999924,
      "v": 100
    },
    {
      "midi": 59,
      "hit": false,
      "t": 149142.70800000103,
      "d": 203.5712249999924,
      "v": 100
    },
    {
      "midi": 55,
      "hit": false,
      "t": 149153.42227500104,
      "d": 203.5712249999924,
      "v": 100
    },
    {
      "midi": 67,
      "hit": false,
      "t": 149356.99350000103,
      "d": 203.5712249999924,
      "v": 100
    },
    {
      "midi": 43,
      "hit": false,
      "t": 149356.99350000103,
      "d": 407.1424499999848,
      "v": 100
    },
    {
      "midi": 54,
      "hit": false,
      "t": 149571.27900000103,
      "d": 203.5712249999924,
      "v": 100
    },
    {
      "midi": 58,
      "hit": false,
      "t": 149571.27900000103,
      "d": 203.5712249999924,
      "v": 100
    },
    {
      "midi": 43,
      "hit": false,
      "t": 149785.56450000103,
      "d": 203.5712249999924,
      "v": 100
    },
    {
      "midi": 55,
      "hit": false,
      "t": 149785.56450000103,
      "d": 203.5712249999924,
      "v": 100
    },
    {
      "midi": 59,
      "hit": false,
      "t": 149785.56450000103,
      "d": 203.5712249999924,
      "v": 100
    },
    {
      "midi": 43,
      "hit": false,
      "t": 149999.85000000102,
      "d": 407.1424500000139,
      "v": 100
    },
    {
      "midi": 59,
      "hit": false,
      "t": 149999.85000000102,
      "d": 407.1424500000139,
      "v": 100
    },
    {
      "midi": 62,
      "hit": false,
      "t": 149999.85000000102,
      "d": 407.1424500000139,
      "v": 100
    },
    {
      "midi": 67,
      "hit": false,
      "t": 149999.85000000102,
      "d": 407.1424500000139,
      "v": 100
    },
    {
      "midi": 40,
      "hit": false,
      "t": 150856.99200000105,
      "d": 2846.4257250000082,
      "v": 100
    },
    {
      "midi": 52,
      "hit": false,
      "t": 150856.99200000105,
      "d": 2846.4257250000082,
      "v": 100
    },
    {
      "midi": 64,
      "hit": false,
      "t": 150856.99200000105,
      "d": 2846.4257250000082,
      "v": 100
    },
    {
      "midi": 45,
      "hit": false,
      "t": 154071.27450000105,
      "d": 610.7136750000063,
      "v": 100
    },
    {
      "midi": 57,
      "hit": false,
      "t": 154071.27450000105,
      "d": 610.7136750000063,
      "v": 100
    },
    {
      "midi": 64,
      "hit": false,
      "t": 154071.27450000105,
      "d": 610.7136750000063,
      "v": 100
    },
    {
      "midi": 43,
      "hit": false,
      "t": 154714.13100000104,
      "d": 407.1424500000139,
      "v": 100
    },
    {
      "midi": 55,
      "hit": false,
      "t": 154714.13100000104,
      "d": 407.1424500000139,
      "v": 100
    },
    {
      "midi": 64,
      "hit": false,
      "t": 154714.13100000104,
      "d": 407.1424500000139,
      "v": 100
    },
    {
      "midi": 52,
      "hit": false,
      "t": 155142.70200000107,
      "d": 203.5712249999924,
      "v": 100
    },
    {
      "midi": 40,
      "hit": false,
      "t": 155142.70200000107,
      "d": 407.1424499999848,
      "v": 100
    },
    {
      "midi": 64,
      "hit": false,
      "t": 155356.98750000107,
      "d": 203.5712249999924,
      "v": 100
    },
    {
      "midi": 40,
      "hit": false,
      "t": 155571.27300000106,
      "d": 203.5712249999924,
      "v": 100
    },
    {
      "midi": 52,
      "hit": false,
      "t": 155571.27300000106,
      "d": 203.5712249999924,
      "v": 100
    },
    {
      "midi": 45,
      "hit": false,
      "t": 155785.55850000106,
      "d": 610.7136750000063,
      "v": 100
    },
    {
      "midi": 52,
      "hit": false,
      "t": 155785.55850000106,
      "d": 610.7136750000063,
      "v": 100
    },
    {
      "midi": 64,
      "hit": false,
      "t": 155785.55850000106,
      "d": 610.7136750000063,
      "v": 100
    },
    {
      "midi": 43,
      "hit": false,
      "t": 156428.41500000106,
      "d": 407.1424500000139,
      "v": 100
    },
    {
      "midi": 55,
      "hit": false,
      "t": 156428.41500000106,
      "d": 407.1424500000139,
      "v": 100
    },
    {
      "midi": 64,
      "hit": false,
      "t": 156428.41500000106,
      "d": 407.1424500000139,
      "v": 100
    },
    {
      "midi": 52,
      "hit": false,
      "t": 156856.98600000108,
      "d": 203.5712249999924,
      "v": 100
    },
    {
      "midi": 40,
      "hit": false,
      "t": 156856.98600000108,
      "d": 407.1424499999848,
      "v": 100
    },
    {
      "midi": 64,
      "hit": false,
      "t": 157071.27150000108,
      "d": 203.5712249999924,
      "v": 100
    },
    {
      "midi": 40,
      "hit": false,
      "t": 157285.55700000108,
      "d": 203.5712249999924,
      "v": 100
    },
    {
      "midi": 52,
      "hit": false,
      "t": 157285.55700000108,
      "d": 203.5712249999924,
      "v": 100
    },
    {
      "midi": 45,
      "hit": false,
      "t": 157499.84250000108,
      "d": 610.7136750000063,
      "v": 100
    },
    {
      "midi": 52,
      "hit": false,
      "t": 157499.84250000108,
      "d": 610.7136750000063,
      "v": 100
    },
    {
      "midi": 64,
      "hit": false,
      "t": 157499.84250000108,
      "d": 610.7136750000063,
      "v": 100
    },
    {
      "midi": 43,
      "hit": false,
      "t": 158142.69900000107,
      "d": 407.1424500000139,
      "v": 100
    },
    {
      "midi": 55,
      "hit": false,
      "t": 158142.69900000107,
      "d": 407.1424500000139,
      "v": 100
    },
    {
      "midi": 64,
      "hit": false,
      "t": 158142.69900000107,
      "d": 407.1424500000139,
      "v": 100
    },
    {
      "midi": 52,
      "hit": false,
      "t": 158571.2700000011,
      "d": 203.5712249999924,
      "v": 100
    },
    {
      "midi": 40,
      "hit": false,
      "t": 158571.2700000011,
      "d": 407.1424499999848,
      "v": 100
    },
    {
      "midi": 64,
      "hit": false,
      "t": 158785.5555000011,
      "d": 203.5712249999924,
      "v": 100
    },
    {
      "midi": 40,
      "hit": false,
      "t": 158999.8410000011,
      "d": 203.5712249999924,
      "v": 100
    },
    {
      "midi": 52,
      "hit": false,
      "t": 158999.8410000011,
      "d": 203.5712249999924,
      "v": 100
    },
    {
      "midi": 45,
      "hit": false,
      "t": 159214.1265000011,
      "d": 610.7136750000063,
      "v": 100
    },
    {
      "midi": 52,
      "hit": false,
      "t": 159214.1265000011,
      "d": 610.7136750000063,
      "v": 100
    },
    {
      "midi": 64,
      "hit": false,
      "t": 159214.1265000011,
      "d": 610.7136750000063,
      "v": 100
    },
    {
      "midi": 43,
      "hit": false,
      "t": 159856.98300000108,
      "d": 407.1424500000139,
      "v": 100
    },
    {
      "midi": 55,
      "hit": false,
      "t": 159856.98300000108,
      "d": 407.1424500000139,
      "v": 100
    },
    {
      "midi": 64,
      "hit": false,
      "t": 159856.98300000108,
      "d": 407.1424500000139,
      "v": 100
    },
    {
      "midi": 52,
      "hit": false,
      "t": 160285.5540000011,
      "d": 203.5712249999924,
      "v": 100
    },
    {
      "midi": 40,
      "hit": false,
      "t": 160285.5540000011,
      "d": 407.1424499999848,
      "v": 100
    },
    {
      "midi": 64,
      "hit": false,
      "t": 160499.8395000011,
      "d": 203.5712249999924,
      "v": 100
    },
    {
      "midi": 40,
      "hit": false,
      "t": 160714.1250000011,
      "d": 203.5712249999924,
      "v": 100
    },
    {
      "midi": 52,
      "hit": false,
      "t": 160714.1250000011,
      "d": 203.5712249999924,
      "v": 100
    },
    {
      "midi": 45,
      "hit": false,
      "t": 160928.4105000011,
      "d": 610.7136750000063,
      "v": 100
    },
    {
      "midi": 52,
      "hit": false,
      "t": 160928.4105000011,
      "d": 610.7136750000063,
      "v": 100
    },
    {
      "midi": 64,
      "hit": false,
      "t": 160928.4105000011,
      "d": 610.7136750000063,
      "v": 100
    },
    {
      "midi": 43,
      "hit": false,
      "t": 161571.2670000011,
      "d": 407.1424500000139,
      "v": 100
    },
    {
      "midi": 55,
      "hit": false,
      "t": 161571.2670000011,
      "d": 407.1424500000139,
      "v": 100
    },
    {
      "midi": 64,
      "hit": false,
      "t": 161571.2670000011,
      "d": 407.1424500000139,
      "v": 100
    },
    {
      "midi": 52,
      "hit": false,
      "t": 161999.83800000112,
      "d": 203.5712249999924,
      "v": 100
    },
    {
      "midi": 40,
      "hit": false,
      "t": 161999.83800000112,
      "d": 407.1424499999848,
      "v": 100
    },
    {
      "midi": 64,
      "hit": false,
      "t": 162214.12350000112,
      "d": 203.5712249999924,
      "v": 100
    },
    {
      "midi": 40,
      "hit": false,
      "t": 162428.40900000112,
      "d": 203.5712249999924,
      "v": 100
    },
    {
      "midi": 52,
      "hit": false,
      "t": 162428.40900000112,
      "d": 203.5712249999924,
      "v": 100
    },
    {
      "midi": 45,
      "hit": false,
      "t": 162642.69450000112,
      "d": 610.7136750000063,
      "v": 100
    },
    {
      "midi": 52,
      "hit": false,
      "t": 162642.69450000112,
      "d": 610.7136750000063,
      "v": 100
    },
    {
      "midi": 64,
      "hit": false,
      "t": 162642.69450000112,
      "d": 610.7136750000063,
      "v": 100
    },
    {
      "midi": 43,
      "hit": false,
      "t": 163285.5510000011,
      "d": 407.1424500000139,
      "v": 100
    },
    {
      "midi": 55,
      "hit": false,
      "t": 163285.5510000011,
      "d": 407.1424500000139,
      "v": 100
    },
    {
      "midi": 64,
      "hit": false,
      "t": 163285.5510000011,
      "d": 407.1424500000139,
      "v": 100
    },
    {
      "midi": 52,
      "hit": false,
      "t": 163714.12200000114,
      "d": 203.5712249999924,
      "v": 100
    },
    {
      "midi": 40,
      "hit": false,
      "t": 163714.12200000114,
      "d": 407.1424499999848,
      "v": 100
    },
    {
      "midi": 64,
      "hit": false,
      "t": 163928.40750000114,
      "d": 203.5712249999924,
      "v": 100
    },
    {
      "midi": 40,
      "hit": false,
      "t": 164142.69300000113,
      "d": 203.5712249999924,
      "v": 100
    },
    {
      "midi": 52,
      "hit": false,
      "t": 164142.69300000113,
      "d": 203.5712249999924,
      "v": 100
    },
    {
      "midi": 45,
      "hit": false,
      "t": 164356.97850000113,
      "d": 610.7136750000063,
      "v": 100
    },
    {
      "midi": 52,
      "hit": false,
      "t": 164356.97850000113,
      "d": 610.7136750000063,
      "v": 100
    },
    {
      "midi": 64,
      "hit": false,
      "t": 164356.97850000113,
      "d": 610.7136750000063,
      "v": 100
    },
    {
      "midi": 43,
      "hit": false,
      "t": 164999.83500000113,
      "d": 407.1424500000139,
      "v": 100
    },
    {
      "midi": 55,
      "hit": false,
      "t": 164999.83500000113,
      "d": 407.1424500000139,
      "v": 100
    },
    {
      "midi": 64,
      "hit": false,
      "t": 164999.83500000113,
      "d": 407.1424500000139,
      "v": 100
    },
    {
      "midi": 52,
      "hit": false,
      "t": 165428.40600000115,
      "d": 203.5712249999924,
      "v": 100
    },
    {
      "midi": 40,
      "hit": false,
      "t": 165428.40600000115,
      "d": 407.1424499999848,
      "v": 100
    },
    {
      "midi": 64,
      "hit": false,
      "t": 165642.69150000115,
      "d": 203.5712249999924,
      "v": 100
    },
    {
      "midi": 40,
      "hit": false,
      "t": 165856.97700000115,
      "d": 203.5712249999924,
      "v": 100
    },
    {
      "midi": 52,
      "hit": false,
      "t": 165856.97700000115,
      "d": 203.5712249999924,
      "v": 100
    },
    {
      "midi": 45,
      "hit": false,
      "t": 166071.26250000115,
      "d": 610.7136750000063,
      "v": 100
    },
    {
      "midi": 52,
      "hit": false,
      "t": 166071.26250000115,
      "d": 610.7136750000063,
      "v": 100
    },
    {
      "midi": 64,
      "hit": false,
      "t": 166071.26250000115,
      "d": 610.7136750000063,
      "v": 100
    },
    {
      "midi": 43,
      "hit": false,
      "t": 166714.11900000114,
      "d": 407.1424500000139,
      "v": 100
    },
    {
      "midi": 55,
      "hit": false,
      "t": 166714.11900000114,
      "d": 407.1424500000139,
      "v": 100
    },
    {
      "midi": 64,
      "hit": false,
      "t": 166714.11900000114,
      "d": 407.1424500000139,
      "v": 100
    },
    {
      "midi": 52,
      "hit": false,
      "t": 167142.69000000117,
      "d": 203.5712249999924,
      "v": 100
    },
    {
      "midi": 40,
      "hit": false,
      "t": 167142.69000000117,
      "d": 407.1424499999848,
      "v": 100
    },
    {
      "midi": 64,
      "hit": false,
      "t": 167356.97550000116,
      "d": 203.5712249999924,
      "v": 100
    },
    {
      "midi": 40,
      "hit": false,
      "t": 167571.26100000116,
      "d": 203.5712249999924,
      "v": 100
    },
    {
      "midi": 52,
      "hit": false,
      "t": 167571.26100000116,
      "d": 203.5712249999924,
      "v": 100
    },
    {
      "midi": 49,
      "hit": false,
      "t": 167785.54650000116,
      "d": 203.5712249999924,
      "v": 100
    },
    {
      "midi": 61,
      "hit": false,
      "t": 167785.54650000116,
      "d": 203.5712249999924,
      "v": 100
    },
    {
      "midi": 50,
      "hit": false,
      "t": 167999.83200000116,
      "d": 203.5712249999924,
      "v": 100
    },
    {
      "midi": 57,
      "hit": false,
      "t": 167999.83200000116,
      "d": 203.5712249999924,
      "v": 100
    },
    {
      "midi": 62,
      "hit": false,
      "t": 167999.83200000116,
      "d": 203.5712249999924,
      "v": 100
    },
    {
      "midi": 66,
      "hit": false,
      "t": 167999.83200000116,
      "d": 203.5712249999924,
      "v": 100
    },
    {
      "midi": 57,
      "hit": false,
      "t": 168203.40322500115,
      "d": 407.1424500000139,
      "v": 100
    },
    {
      "midi": 62,
      "hit": false,
      "t": 168203.40322500115,
      "d": 407.1424500000139,
      "v": 100
    },
    {
      "midi": 66,
      "hit": false,
      "t": 168203.40322500115,
      "d": 407.1424500000139,
      "v": 100
    },
    {
      "midi": 50,
      "hit": false,
      "t": 168224.83177500116,
      "d": 407.1424500000139,
      "v": 100
    },
    {
      "midi": 45,
      "hit": false,
      "t": 168642.68850000118,
      "d": 203.5712249999924,
      "v": 100
    },
    {
      "midi": 57,
      "hit": false,
      "t": 168642.68850000118,
      "d": 203.5712249999924,
      "v": 100
    },
    {
      "midi": 50,
      "hit": false,
      "t": 168856.97400000118,
      "d": 610.7136750000063,
      "v": 100
    },
    {
      "midi": 57,
      "hit": false,
      "t": 168856.97400000118,
      "d": 610.7136750000063,
      "v": 100
    },
    {
      "midi": 62,
      "hit": false,
      "t": 168856.97400000118,
      "d": 610.7136750000063,
      "v": 100
    },
    {
      "midi": 66,
      "hit": false,
      "t": 168856.97400000118,
      "d": 610.7136750000063,
      "v": 100
    },
    {
      "midi": 54,
      "hit": false,
      "t": 169499.83050000118,
      "d": 203.5712249999924,
      "v": 100
    },
    {
      "midi": 58,
      "hit": false,
      "t": 169499.83050000118,
      "d": 203.5712249999924,
      "v": 100
    },
    {
      "midi": 43,
      "hit": false,
      "t": 169714.11600000117,
      "d": 203.5712249999924,
      "v": 100
    },
    {
      "midi": 52,
      "hit": false,
      "t": 169714.11600000117,
      "d": 203.5712249999924,
      "v": 100
    },
    {
      "midi": 55,
      "hit": false,
      "t": 169714.11600000117,
      "d": 203.5712249999924,
      "v": 100
    },
    {
      "midi": 67,
      "hit": false,
      "t": 169928.40150000117,
      "d": 203.5712249999924,
      "v": 100
    },
    {
      "midi": 43,
      "hit": false,
      "t": 169928.40150000117,
      "d": 407.1424499999848,
      "v": 100
    },
    {
      "midi": 54,
      "hit": false,
      "t": 170142.68700000117,
      "d": 203.5712249999924,
      "v": 100
    },
    {
      "midi": 58,
      "hit": false,
      "t": 170142.68700000117,
      "d": 203.5712249999924,
      "v": 100
    },
    {
      "midi": 43,
      "hit": false,
      "t": 170356.97250000117,
      "d": 203.5712249999924,
      "v": 100
    },
    {
      "midi": 55,
      "hit": false,
      "t": 170356.97250000117,
      "d": 203.5712249999924,
      "v": 100
    },
    {
      "midi": 59,
      "hit": false,
      "t": 170356.97250000117,
      "d": 203.5712249999924,
      "v": 100
    },
    {
      "midi": 43,
      "hit": false,
      "t": 170571.25800000117,
      "d": 407.1424500000139,
      "v": 100
    },
    {
      "midi": 59,
      "hit": false,
      "t": 170571.25800000117,
      "d": 407.1424500000139,
      "v": 100
    },
    {
      "midi": 62,
      "hit": false,
      "t": 170571.25800000117,
      "d": 407.1424500000139,
      "v": 100
    },
    {
      "midi": 67,
      "hit": false,
      "t": 170571.25800000117,
      "d": 407.1424500000139,
      "v": 100
    },
    {
      "midi": 45,
      "hit": false,
      "t": 171214.1145000012,
      "d": 610.7136750000063,
      "v": 100
    },
    {
      "midi": 57,
      "hit": false,
      "t": 171214.1145000012,
      "d": 610.7136750000063,
      "v": 100
    },
    {
      "midi": 64,
      "hit": false,
      "t": 171214.1145000012,
      "d": 610.7136750000063,
      "v": 100
    },
    {
      "midi": 43,
      "hit": false,
      "t": 171856.97100000118,
      "d": 407.1424500000139,
      "v": 100
    },
    {
      "midi": 55,
      "hit": false,
      "t": 171856.97100000118,
      "d": 407.1424500000139,
      "v": 100
    },
    {
      "midi": 64,
      "hit": false,
      "t": 171856.97100000118,
      "d": 407.1424500000139,
      "v": 100
    },
    {
      "midi": 52,
      "hit": false,
      "t": 172285.5420000012,
      "d": 203.5712249999924,
      "v": 100
    },
    {
      "midi": 40,
      "hit": false,
      "t": 172285.5420000012,
      "d": 407.1424499999848,
      "v": 100
    },
    {
      "midi": 64,
      "hit": false,
      "t": 172499.8275000012,
      "d": 203.5712249999924,
      "v": 100
    },
    {
      "midi": 40,
      "hit": false,
      "t": 172714.1130000012,
      "d": 203.5712249999924,
      "v": 100
    },
    {
      "midi": 52,
      "hit": false,
      "t": 172714.1130000012,
      "d": 203.5712249999924,
      "v": 100
    },
    {
      "midi": 45,
      "hit": false,
      "t": 172928.3985000012,
      "d": 610.7136750000063,
      "v": 100
    },
    {
      "midi": 57,
      "hit": false,
      "t": 172928.3985000012,
      "d": 610.7136750000063,
      "v": 100
    },
    {
      "midi": 64,
      "hit": false,
      "t": 172928.3985000012,
      "d": 610.7136750000063,
      "v": 100
    },
    {
      "midi": 43,
      "hit": false,
      "t": 173571.2550000012,
      "d": 407.1424500000139,
      "v": 100
    },
    {
      "midi": 55,
      "hit": false,
      "t": 173571.2550000012,
      "d": 407.1424500000139,
      "v": 100
    },
    {
      "midi": 64,
      "hit": false,
      "t": 173571.2550000012,
      "d": 407.1424500000139,
      "v": 100
    },
    {
      "midi": 52,
      "hit": false,
      "t": 173999.82600000122,
      "d": 203.5712249999924,
      "v": 100
    },
    {
      "midi": 40,
      "hit": false,
      "t": 173999.82600000122,
      "d": 407.1424499999848,
      "v": 100
    },
    {
      "midi": 64,
      "hit": false,
      "t": 174214.11150000122,
      "d": 203.5712249999924,
      "v": 100
    },
    {
      "midi": 52,
      "hit": false,
      "t": 174428.39700000122,
      "d": 203.5712249999924,
      "v": 100
    },
    {
      "midi": 49,
      "hit": false,
      "t": 174642.68250000122,
      "d": 203.5712249999924,
      "v": 100
    },
    {
      "midi": 61,
      "hit": false,
      "t": 174642.68250000122,
      "d": 203.5712249999924,
      "v": 100
    },
    {
      "midi": 50,
      "hit": false,
      "t": 174856.96800000122,
      "d": 203.5712249999924,
      "v": 100
    },
    {
      "midi": 57,
      "hit": false,
      "t": 174856.96800000122,
      "d": 203.5712249999924,
      "v": 100
    },
    {
      "midi": 62,
      "hit": false,
      "t": 174856.96800000122,
      "d": 203.5712249999924,
      "v": 100
    },
    {
      "midi": 66,
      "hit": false,
      "t": 174856.96800000122,
      "d": 203.5712249999924,
      "v": 100
    },
    {
      "midi": 57,
      "hit": false,
      "t": 175060.5392250012,
      "d": 407.1424500000139,
      "v": 100
    },
    {
      "midi": 62,
      "hit": false,
      "t": 175060.5392250012,
      "d": 407.1424500000139,
      "v": 100
    },
    {
      "midi": 66,
      "hit": false,
      "t": 175060.5392250012,
      "d": 407.1424500000139,
      "v": 100
    },
    {
      "midi": 50,
      "hit": false,
      "t": 175081.96777500122,
      "d": 407.1424500000139,
      "v": 100
    },
    {
      "midi": 45,
      "hit": false,
      "t": 175499.82450000124,
      "d": 203.5712249999924,
      "v": 100
    },
    {
      "midi": 57,
      "hit": false,
      "t": 175499.82450000124,
      "d": 203.5712249999924,
      "v": 100
    },
    {
      "midi": 50,
      "hit": false,
      "t": 175714.11000000124,
      "d": 610.7136750000063,
      "v": 100
    },
    {
      "midi": 57,
      "hit": false,
      "t": 175714.11000000124,
      "d": 610.7136750000063,
      "v": 100
    },
    {
      "midi": 62,
      "hit": false,
      "t": 175714.11000000124,
      "d": 610.7136750000063,
      "v": 100
    },
    {
      "midi": 66,
      "hit": false,
      "t": 175714.11000000124,
      "d": 610.7136750000063,
      "v": 100
    },
    {
      "midi": 54,
      "hit": false,
      "t": 176356.96650000123,
      "d": 203.5712249999924,
      "v": 100
    },
    {
      "midi": 58,
      "hit": false,
      "t": 176356.96650000123,
      "d": 203.5712249999924,
      "v": 100
    },
    {
      "midi": 43,
      "hit": false,
      "t": 176571.25200000123,
      "d": 203.5712249999924,
      "v": 100
    },
    {
      "midi": 52,
      "hit": false,
      "t": 176571.25200000123,
      "d": 203.5712249999924,
      "v": 100
    },
    {
      "midi": 55,
      "hit": false,
      "t": 176571.25200000123,
      "d": 203.5712249999924,
      "v": 100
    },
    {
      "midi": 67,
      "hit": false,
      "t": 176785.53750000123,
      "d": 203.5712249999924,
      "v": 100
    },
    {
      "midi": 43,
      "hit": false,
      "t": 176785.53750000123,
      "d": 407.1424499999848,
      "v": 100
    },
    {
      "midi": 54,
      "hit": false,
      "t": 176999.82300000123,
      "d": 203.5712249999924,
      "v": 100
    },
    {
      "midi": 58,
      "hit": false,
      "t": 176999.82300000123,
      "d": 203.5712249999924,
      "v": 100
    },
    {
      "midi": 43,
      "hit": false,
      "t": 177214.10850000122,
      "d": 203.5712249999924,
      "v": 100
    },
    {
      "midi": 55,
      "hit": false,
      "t": 177214.10850000122,
      "d": 203.5712249999924,
      "v": 100
    },
    {
      "midi": 59,
      "hit": false,
      "t": 177214.10850000122,
      "d": 203.5712249999924,
      "v": 100
    },
    {
      "midi": 43,
      "hit": false,
      "t": 177428.39400000122,
      "d": 407.1424500000139,
      "v": 100
    },
    {
      "midi": 59,
      "hit": false,
      "t": 177428.39400000122,
      "d": 407.1424500000139,
      "v": 100
    },
    {
      "midi": 62,
      "hit": false,
      "t": 177428.39400000122,
      "d": 407.1424500000139,
      "v": 100
    },
    {
      "midi": 67,
      "hit": false,
      "t": 177428.39400000122,
      "d": 407.1424500000139,
      "v": 100
    },
    {
      "midi": 45,
      "hit": false,
      "t": 178071.25050000125,
      "d": 610.7136750000063,
      "v": 100
    },
    {
      "midi": 57,
      "hit": false,
      "t": 178071.25050000125,
      "d": 610.7136750000063,
      "v": 100
    },
    {
      "midi": 64,
      "hit": false,
      "t": 178071.25050000125,
      "d": 610.7136750000063,
      "v": 100
    },
    {
      "midi": 43,
      "hit": false,
      "t": 178714.10700000124,
      "d": 407.1424500000139,
      "v": 100
    },
    {
      "midi": 55,
      "hit": false,
      "t": 178714.10700000124,
      "d": 407.1424500000139,
      "v": 100
    },
    {
      "midi": 64,
      "hit": false,
      "t": 178714.10700000124,
      "d": 407.1424500000139,
      "v": 100
    },
    {
      "midi": 52,
      "hit": false,
      "t": 179142.67800000127,
      "d": 203.5712249999924,
      "v": 100
    },
    {
      "midi": 40,
      "hit": false,
      "t": 179142.67800000127,
      "d": 407.1424499999848,
      "v": 100
    },
    {
      "midi": 64,
      "hit": false,
      "t": 179356.96350000126,
      "d": 203.5712249999924,
      "v": 100
    },
    {
      "midi": 40,
      "hit": false,
      "t": 179571.24900000126,
      "d": 203.5712249999924,
      "v": 100
    },
    {
      "midi": 52,
      "hit": false,
      "t": 179571.24900000126,
      "d": 203.5712249999924,
      "v": 100
    },
    {
      "midi": 45,
      "hit": false,
      "t": 179785.53450000126,
      "d": 610.7136750000063,
      "v": 100
    },
    {
      "midi": 57,
      "hit": false,
      "t": 179785.53450000126,
      "d": 610.7136750000063,
      "v": 100
    },
    {
      "midi": 64,
      "hit": false,
      "t": 179785.53450000126,
      "d": 610.7136750000063,
      "v": 100
    },
    {
      "midi": 43,
      "hit": false,
      "t": 180428.39100000125,
      "d": 407.1424500000139,
      "v": 100
    },
    {
      "midi": 55,
      "hit": false,
      "t": 180428.39100000125,
      "d": 407.1424500000139,
      "v": 100
    },
    {
      "midi": 64,
      "hit": false,
      "t": 180428.39100000125,
      "d": 407.1424500000139,
      "v": 100
    },
    {
      "midi": 52,
      "hit": false,
      "t": 180856.96200000128,
      "d": 203.5712249999924,
      "v": 100
    },
    {
      "midi": 40,
      "hit": false,
      "t": 180856.96200000128,
      "d": 407.1424499999848,
      "v": 100
    },
    {
      "midi": 64,
      "hit": false,
      "t": 181071.24750000128,
      "d": 203.5712249999924,
      "v": 100
    },
    {
      "midi": 52,
      "hit": false,
      "t": 181285.53300000128,
      "d": 203.5712249999924,
      "v": 100
    },
    {
      "midi": 49,
      "hit": false,
      "t": 181499.81850000127,
      "d": 203.5712249999924,
      "v": 100
    },
    {
      "midi": 61,
      "hit": false,
      "t": 181499.81850000127,
      "d": 203.5712249999924,
      "v": 100
    },
    {
      "midi": 43,
      "hit": false,
      "t": 182142.67500000127,
      "d": 407.1424500000139,
      "v": 100
    },
    {
      "midi": 55,
      "hit": false,
      "t": 182142.67500000127,
      "d": 407.1424500000139,
      "v": 100
    },
    {
      "midi": 64,
      "hit": false,
      "t": 182142.67500000127,
      "d": 407.1424500000139,
      "v": 100
    },
    {
      "midi": 52,
      "hit": false,
      "t": 182571.2460000013,
      "d": 203.5712249999924,
      "v": 100
    },
    {
      "midi": 40,
      "hit": false,
      "t": 182571.2460000013,
      "d": 407.1424499999848,
      "v": 100
    },
    {
      "midi": 64,
      "hit": false,
      "t": 182785.5315000013,
      "d": 203.5712249999924,
      "v": 100
    },
    {
      "midi": 52,
      "hit": false,
      "t": 182999.8170000013,
      "d": 203.5712249999924,
      "v": 100
    },
    {
      "midi": 49,
      "hit": false,
      "t": 183214.1025000013,
      "d": 203.5712249999924,
      "v": 100
    },
    {
      "midi": 61,
      "hit": false,
      "t": 183214.1025000013,
      "d": 203.5712249999924,
      "v": 100
    },
    {
      "midi": 43,
      "hit": false,
      "t": 183856.95900000128,
      "d": 407.1424500000139,
      "v": 100
    },
    {
      "midi": 55,
      "hit": false,
      "t": 183856.95900000128,
      "d": 407.1424500000139,
      "v": 100
    },
    {
      "midi": 64,
      "hit": false,
      "t": 183856.95900000128,
      "d": 407.1424500000139,
      "v": 100
    },
    {
      "midi": 52,
      "hit": false,
      "t": 184285.5300000013,
      "d": 203.5712249999924,
      "v": 100
    },
    {
      "midi": 40,
      "hit": false,
      "t": 184285.5300000013,
      "d": 407.1424499999848,
      "v": 100
    },
    {
      "midi": 64,
      "hit": false,
      "t": 184499.8155000013,
      "d": 203.5712249999924,
      "v": 100
    },
    {
      "midi": 52,
      "hit": false,
      "t": 184714.1010000013,
      "d": 203.5712249999924,
      "v": 100
    },
    {
      "midi": 49,
      "hit": false,
      "t": 184928.3865000013,
      "d": 203.5712249999924,
      "v": 100
    },
    {
      "midi": 61,
      "hit": false,
      "t": 184928.3865000013,
      "d": 203.5712249999924,
      "v": 100
    },
    {
      "midi": 43,
      "hit": false,
      "t": 185571.2430000013,
      "d": 407.1424500000139,
      "v": 100
    },
    {
      "midi": 55,
      "hit": false,
      "t": 185571.2430000013,
      "d": 407.1424500000139,
      "v": 100
    },
    {
      "midi": 64,
      "hit": false,
      "t": 185571.2430000013,
      "d": 407.1424500000139,
      "v": 100
    },
    {
      "midi": 52,
      "hit": false,
      "t": 185999.81400000132,
      "d": 203.5712249999924,
      "v": 100
    },
    {
      "midi": 40,
      "hit": false,
      "t": 185999.81400000132,
      "d": 407.1424499999848,
      "v": 100
    },
    {
      "midi": 64,
      "hit": false,
      "t": 186214.09950000132,
      "d": 203.5712249999924,
      "v": 100
    },
    {
      "midi": 52,
      "hit": false,
      "t": 186428.38500000132,
      "d": 203.5712249999924,
      "v": 100
    },
    {
      "midi": 49,
      "hit": false,
      "t": 186642.67050000132,
      "d": 203.5712249999924,
      "v": 100
    },
    {
      "midi": 61,
      "hit": false,
      "t": 186642.67050000132,
      "d": 203.5712249999924,
      "v": 100
    },
    {
      "midi": 43,
      "hit": false,
      "t": 187285.5270000013,
      "d": 407.1424500000139,
      "v": 100
    },
    {
      "midi": 55,
      "hit": false,
      "t": 187285.5270000013,
      "d": 407.1424500000139,
      "v": 100
    },
    {
      "midi": 64,
      "hit": false,
      "t": 187285.5270000013,
      "d": 407.1424500000139,
      "v": 100
    },
    {
      "midi": 52,
      "hit": false,
      "t": 187714.09800000134,
      "d": 203.5712249999924,
      "v": 100
    },
    {
      "midi": 40,
      "hit": false,
      "t": 187714.09800000134,
      "d": 407.1424499999848,
      "v": 100
    },
    {
      "midi": 64,
      "hit": false,
      "t": 187928.38350000134,
      "d": 203.5712249999924,
      "v": 100
    },
    {
      "midi": 40,
      "hit": false,
      "t": 188142.66900000133,
      "d": 203.5712249999924,
      "v": 100
    },
    {
      "midi": 52,
      "hit": false,
      "t": 188142.66900000133,
      "d": 203.5712249999924,
      "v": 100
    },
    {
      "midi": 45,
      "hit": false,
      "t": 188356.95450000133,
      "d": 607.1422500000044,
      "v": 100
    },
    {
      "midi": 55,
      "hit": false,
      "t": 188356.95450000133,
      "d": 607.1422500000044,
      "v": 100
    },
    {
      "midi": 61,
      "hit": false,
      "t": 188356.95450000133,
      "d": 607.1422500000044,
      "v": 100
    },
    {
      "midi": 46,
      "hit": false,
      "t": 188999.81100000133,
      "d": 407.1424500000139,
      "v": 100
    },
    {
      "midi": 56,
      "hit": false,
      "t": 188999.81100000133,
      "d": 407.1424500000139,
      "v": 100
    },
    {
      "midi": 57,
      "hit": false,
      "t": 188999.81100000133,
      "d": 407.1424500000139,
      "v": 100
    },
    {
      "midi": 62,
      "hit": false,
      "t": 188999.81100000133,
      "d": 407.1424500000139,
      "v": 100
    },
    {
      "midi": 44,
      "hit": false,
      "t": 189428.38200000135,
      "d": 407.1424500000139,
      "v": 100
    },
    {
      "midi": 54,
      "hit": false,
      "t": 189428.38200000135,
      "d": 407.1424500000139,
      "v": 100
    },
    {
      "midi": 60,
      "hit": false,
      "t": 189428.38200000135,
      "d": 407.1424500000139,
      "v": 100
    },
    {
      "midi": 45,
      "hit": false,
      "t": 189856.95300000138,
      "d": 407.1424500000139,
      "v": 100
    },
    {
      "midi": 55,
      "hit": false,
      "t": 189856.95300000138,
      "d": 407.1424500000139,
      "v": 100
    },
    {
      "midi": 61,
      "hit": false,
      "t": 189856.95300000138,
      "d": 407.1424500000139,
      "v": 100
    },
    {
      "midi": 46,
      "hit": false,
      "t": 190285.5240000014,
      "d": 407.1424500000139,
      "v": 100
    },
    {
      "midi": 56,
      "hit": false,
      "t": 190285.5240000014,
      "d": 407.1424500000139,
      "v": 100
    },
    {
      "midi": 57,
      "hit": false,
      "t": 190285.5240000014,
      "d": 407.1424500000139,
      "v": 100
    },
    {
      "midi": 62,
      "hit": false,
      "t": 190285.5240000014,
      "d": 407.1424500000139,
      "v": 100
    },
    {
      "midi": 44,
      "hit": false,
      "t": 190714.09500000143,
      "d": 407.1424500000139,
      "v": 100
    },
    {
      "midi": 54,
      "hit": false,
      "t": 190714.09500000143,
      "d": 407.1424500000139,
      "v": 100
    },
    {
      "midi": 60,
      "hit": false,
      "t": 190714.09500000143,
      "d": 407.1424500000139,
      "v": 100
    },
    {
      "midi": 45,
      "hit": false,
      "t": 191142.66600000145,
      "d": 407.1424500000139,
      "v": 100
    },
    {
      "midi": 55,
      "hit": false,
      "t": 191142.66600000145,
      "d": 407.1424500000139,
      "v": 100
    },
    {
      "midi": 61,
      "hit": false,
      "t": 191142.66600000145,
      "d": 407.1424500000139,
      "v": 100
    },
    {
      "midi": 46,
      "hit": false,
      "t": 191571.23700000148,
      "d": 407.1424500000139,
      "v": 100
    },
    {
      "midi": 56,
      "hit": false,
      "t": 191571.23700000148,
      "d": 407.1424500000139,
      "v": 100
    },
    {
      "midi": 57,
      "hit": false,
      "t": 191571.23700000148,
      "d": 407.1424500000139,
      "v": 100
    },
    {
      "midi": 62,
      "hit": false,
      "t": 191571.23700000148,
      "d": 407.1424500000139,
      "v": 100
    },
    {
      "midi": 44,
      "hit": false,
      "t": 191999.8080000015,
      "d": 407.1424500000139,
      "v": 100
    },
    {
      "midi": 54,
      "hit": false,
      "t": 191999.8080000015,
      "d": 407.1424500000139,
      "v": 100
    },
    {
      "midi": 60,
      "hit": false,
      "t": 191999.8080000015,
      "d": 407.1424500000139,
      "v": 100
    },
    {
      "midi": 45,
      "hit": false,
      "t": 192428.37900000153,
      "d": 407.1424500000139,
      "v": 100
    },
    {
      "midi": 55,
      "hit": false,
      "t": 192428.37900000153,
      "d": 407.1424500000139,
      "v": 100
    },
    {
      "midi": 61,
      "hit": false,
      "t": 192428.37900000153,
      "d": 407.1424500000139,
      "v": 100
    },
    {
      "midi": 46,
      "hit": false,
      "t": 192856.95000000155,
      "d": 407.1424500000139,
      "v": 100
    },
    {
      "midi": 56,
      "hit": false,
      "t": 192856.95000000155,
      "d": 407.1424500000139,
      "v": 100
    },
    {
      "midi": 57,
      "hit": false,
      "t": 192856.95000000155,
      "d": 407.1424500000139,
      "v": 100
    },
    {
      "midi": 62,
      "hit": false,
      "t": 192856.95000000155,
      "d": 407.1424500000139,
      "v": 100
    },
    {
      "midi": 44,
      "hit": false,
      "t": 193285.52100000158,
      "d": 407.1424500000139,
      "v": 100
    },
    {
      "midi": 54,
      "hit": false,
      "t": 193285.52100000158,
      "d": 407.1424500000139,
      "v": 100
    },
    {
      "midi": 60,
      "hit": false,
      "t": 193285.52100000158,
      "d": 407.1424500000139,
      "v": 100
    },
    {
      "midi": 45,
      "hit": false,
      "t": 193714.0920000016,
      "d": 407.1424500000139,
      "v": 100
    },
    {
      "midi": 55,
      "hit": false,
      "t": 193714.0920000016,
      "d": 407.1424500000139,
      "v": 100
    },
    {
      "midi": 61,
      "hit": false,
      "t": 193714.0920000016,
      "d": 407.1424500000139,
      "v": 100
    },
    {
      "midi": 46,
      "hit": false,
      "t": 194142.66300000163,
      "d": 407.1424500000139,
      "v": 100
    },
    {
      "midi": 56,
      "hit": false,
      "t": 194142.66300000163,
      "d": 407.1424500000139,
      "v": 100
    },
    {
      "midi": 57,
      "hit": false,
      "t": 194142.66300000163,
      "d": 407.1424500000139,
      "v": 100
    },
    {
      "midi": 62,
      "hit": false,
      "t": 194142.66300000163,
      "d": 407.1424500000139,
      "v": 100
    },
    {
      "midi": 44,
      "hit": false,
      "t": 194571.23400000166,
      "d": 407.1424500000139,
      "v": 100
    },
    {
      "midi": 54,
      "hit": false,
      "t": 194571.23400000166,
      "d": 407.1424500000139,
      "v": 100
    },
    {
      "midi": 60,
      "hit": false,
      "t": 194571.23400000166,
      "d": 407.1424500000139,
      "v": 100
    },
    {
      "midi": 44,
      "hit": false,
      "t": 194999.80500000168,
      "d": 203.5712249999924,
      "v": 100
    },
    {
      "midi": 55,
      "hit": false,
      "t": 194999.80500000168,
      "d": 203.5712249999924,
      "v": 100
    },
    {
      "midi": 61,
      "hit": false,
      "t": 194999.80500000168,
      "d": 203.5712249999924,
      "v": 100
    },
    {
      "midi": 45,
      "hit": false,
      "t": 195214.09050000168,
      "d": 610.7136750000063,
      "v": 100
    },
    {
      "midi": 57,
      "hit": false,
      "t": 195214.09050000168,
      "d": 610.7136750000063,
      "v": 100
    },
    {
      "midi": 64,
      "hit": false,
      "t": 195214.09050000168,
      "d": 610.7136750000063,
      "v": 100
    },
    {
      "midi": 43,
      "hit": false,
      "t": 195856.94700000167,
      "d": 407.1424500000139,
      "v": 100
    },
    {
      "midi": 55,
      "hit": false,
      "t": 195856.94700000167,
      "d": 407.1424500000139,
      "v": 100
    },
    {
      "midi": 64,
      "hit": false,
      "t": 195856.94700000167,
      "d": 407.1424500000139,
      "v": 100
    },
    {
      "midi": 52,
      "hit": false,
      "t": 196285.5180000017,
      "d": 203.5712249999924,
      "v": 100
    },
    {
      "midi": 40,
      "hit": false,
      "t": 196285.5180000017,
      "d": 407.1424499999848,
      "v": 100
    },
    {
      "midi": 64,
      "hit": false,
      "t": 196499.8035000017,
      "d": 203.5712249999924,
      "v": 100
    },
    {
      "midi": 40,
      "hit": false,
      "t": 196714.0890000017,
      "d": 203.5712249999924,
      "v": 100
    },
    {
      "midi": 52,
      "hit": false,
      "t": 196714.0890000017,
      "d": 203.5712249999924,
      "v": 100
    },
    {
      "midi": 45,
      "hit": false,
      "t": 196928.3745000017,
      "d": 610.7136750000063,
      "v": 100
    },
    {
      "midi": 64,
      "hit": false,
      "t": 196928.3745000017,
      "d": 610.7136750000063,
      "v": 100
    },
    {
      "midi": 43,
      "hit": false,
      "t": 197571.2310000017,
      "d": 407.1424500000139,
      "v": 100
    },
    {
      "midi": 55,
      "hit": false,
      "t": 197571.2310000017,
      "d": 407.1424500000139,
      "v": 100
    },
    {
      "midi": 64,
      "hit": false,
      "t": 197571.2310000017,
      "d": 407.1424500000139,
      "v": 100
    },
    {
      "midi": 52,
      "hit": false,
      "t": 197999.8020000017,
      "d": 203.5712249999924,
      "v": 100
    },
    {
      "midi": 40,
      "hit": false,
      "t": 197999.8020000017,
      "d": 407.1424499999848,
      "v": 100
    },
    {
      "midi": 64,
      "hit": false,
      "t": 198214.0875000017,
      "d": 203.5712249999924,
      "v": 100
    },
    {
      "midi": 40,
      "hit": false,
      "t": 198428.3730000017,
      "d": 203.5712249999924,
      "v": 100
    },
    {
      "midi": 52,
      "hit": false,
      "t": 198428.3730000017,
      "d": 203.5712249999924,
      "v": 100
    },
    {
      "midi": 45,
      "hit": false,
      "t": 198642.6585000017,
      "d": 610.7136750000063,
      "v": 100
    },
    {
      "midi": 64,
      "hit": false,
      "t": 198642.6585000017,
      "d": 610.7136750000063,
      "v": 100
    },
    {
      "midi": 43,
      "hit": false,
      "t": 199285.5150000017,
      "d": 407.1424500000139,
      "v": 100
    },
    {
      "midi": 55,
      "hit": false,
      "t": 199285.5150000017,
      "d": 407.1424500000139,
      "v": 100
    },
    {
      "midi": 64,
      "hit": false,
      "t": 199285.5150000017,
      "d": 407.1424500000139,
      "v": 100
    },
    {
      "midi": 52,
      "hit": false,
      "t": 199714.08600000173,
      "d": 203.5712249999924,
      "v": 100
    },
    {
      "midi": 40,
      "hit": false,
      "t": 199714.08600000173,
      "d": 407.1424499999848,
      "v": 100
    },
    {
      "midi": 64,
      "hit": false,
      "t": 199928.37150000173,
      "d": 203.5712249999924,
      "v": 100
    },
    {
      "midi": 40,
      "hit": false,
      "t": 200142.65700000172,
      "d": 203.5712249999924,
      "v": 100
    },
    {
      "midi": 52,
      "hit": false,
      "t": 200142.65700000172,
      "d": 203.5712249999924,
      "v": 100
    },
    {
      "midi": 45,
      "hit": false,
      "t": 200356.94250000172,
      "d": 610.7136750000063,
      "v": 100
    },
    {
      "midi": 64,
      "hit": false,
      "t": 200356.94250000172,
      "d": 610.7136750000063,
      "v": 100
    },
    {
      "midi": 43,
      "hit": false,
      "t": 200999.79900000172,
      "d": 407.1424500000139,
      "v": 100
    },
    {
      "midi": 55,
      "hit": false,
      "t": 200999.79900000172,
      "d": 407.1424500000139,
      "v": 100
    },
    {
      "midi": 64,
      "hit": false,
      "t": 200999.79900000172,
      "d": 407.1424500000139,
      "v": 100
    },
    {
      "midi": 52,
      "hit": false,
      "t": 201428.37000000174,
      "d": 203.5712249999924,
      "v": 100
    },
    {
      "midi": 40,
      "hit": false,
      "t": 201428.37000000174,
      "d": 407.1424499999848,
      "v": 100
    },
    {
      "midi": 64,
      "hit": false,
      "t": 201642.65550000174,
      "d": 203.5712249999924,
      "v": 100
    },
    {
      "midi": 40,
      "hit": false,
      "t": 201856.94100000174,
      "d": 203.5712249999924,
      "v": 100
    },
    {
      "midi": 52,
      "hit": false,
      "t": 201856.94100000174,
      "d": 203.5712249999924,
      "v": 100
    },
    {
      "midi": 45,
      "hit": false,
      "t": 202071.22650000174,
      "d": 610.7136750000063,
      "v": 100
    },
    {
      "midi": 64,
      "hit": false,
      "t": 202071.22650000174,
      "d": 610.7136750000063,
      "v": 100
    },
    {
      "midi": 46,
      "hit": false,
      "t": 202714.08300000173,
      "d": 407.1424500000139,
      "v": 100
    },
    {
      "midi": 56,
      "hit": false,
      "t": 202714.08300000173,
      "d": 407.1424500000139,
      "v": 100
    },
    {
      "midi": 57,
      "hit": false,
      "t": 202714.08300000173,
      "d": 407.1424500000139,
      "v": 100
    },
    {
      "midi": 62,
      "hit": false,
      "t": 202714.08300000173,
      "d": 407.1424500000139,
      "v": 100
    },
    {
      "midi": 44,
      "hit": false,
      "t": 203142.65400000176,
      "d": 407.1424500000139,
      "v": 100
    },
    {
      "midi": 54,
      "hit": false,
      "t": 203142.65400000176,
      "d": 407.1424500000139,
      "v": 100
    },
    {
      "midi": 60,
      "hit": false,
      "t": 203142.65400000176,
      "d": 407.1424500000139,
      "v": 100
    },
    {
      "midi": 45,
      "hit": false,
      "t": 203571.22500000178,
      "d": 407.1424500000139,
      "v": 100
    },
    {
      "midi": 55,
      "hit": false,
      "t": 203571.22500000178,
      "d": 407.1424500000139,
      "v": 100
    },
    {
      "midi": 61,
      "hit": false,
      "t": 203571.22500000178,
      "d": 407.1424500000139,
      "v": 100
    },
    {
      "midi": 46,
      "hit": false,
      "t": 203999.7960000018,
      "d": 407.1424500000139,
      "v": 100
    },
    {
      "midi": 56,
      "hit": false,
      "t": 203999.7960000018,
      "d": 407.1424500000139,
      "v": 100
    },
    {
      "midi": 57,
      "hit": false,
      "t": 203999.7960000018,
      "d": 407.1424500000139,
      "v": 100
    },
    {
      "midi": 62,
      "hit": false,
      "t": 203999.7960000018,
      "d": 407.1424500000139,
      "v": 100
    },
    {
      "midi": 44,
      "hit": false,
      "t": 204428.36700000183,
      "d": 407.1424500000139,
      "v": 100
    },
    {
      "midi": 54,
      "hit": false,
      "t": 204428.36700000183,
      "d": 407.1424500000139,
      "v": 100
    },
    {
      "midi": 60,
      "hit": false,
      "t": 204428.36700000183,
      "d": 407.1424500000139,
      "v": 100
    },
    {
      "midi": 45,
      "hit": false,
      "t": 204856.93800000186,
      "d": 407.1424500000139,
      "v": 100
    },
    {
      "midi": 55,
      "hit": false,
      "t": 204856.93800000186,
      "d": 407.1424500000139,
      "v": 100
    },
    {
      "midi": 61,
      "hit": false,
      "t": 204856.93800000186,
      "d": 407.1424500000139,
      "v": 100
    },
    {
      "midi": 46,
      "hit": false,
      "t": 205285.50900000188,
      "d": 407.1424500000139,
      "v": 100
    },
    {
      "midi": 56,
      "hit": false,
      "t": 205285.50900000188,
      "d": 407.1424500000139,
      "v": 100
    },
    {
      "midi": 57,
      "hit": false,
      "t": 205285.50900000188,
      "d": 407.1424500000139,
      "v": 100
    },
    {
      "midi": 62,
      "hit": false,
      "t": 205285.50900000188,
      "d": 407.1424500000139,
      "v": 100
    },
    {
      "midi": 44,
      "hit": false,
      "t": 205714.0800000019,
      "d": 407.1424500000139,
      "v": 100
    },
    {
      "midi": 54,
      "hit": false,
      "t": 205714.0800000019,
      "d": 407.1424500000139,
      "v": 100
    },
    {
      "midi": 60,
      "hit": false,
      "t": 205714.0800000019,
      "d": 407.1424500000139,
      "v": 100
    },
    {
      "midi": 45,
      "hit": false,
      "t": 206142.65100000193,
      "d": 407.1424500000139,
      "v": 100
    },
    {
      "midi": 55,
      "hit": false,
      "t": 206142.65100000193,
      "d": 407.1424500000139,
      "v": 100
    },
    {
      "midi": 61,
      "hit": false,
      "t": 206142.65100000193,
      "d": 407.1424500000139,
      "v": 100
    },
    {
      "midi": 46,
      "hit": false,
      "t": 206571.22200000196,
      "d": 407.1424500000139,
      "v": 100
    },
    {
      "midi": 56,
      "hit": false,
      "t": 206571.22200000196,
      "d": 407.1424500000139,
      "v": 100
    },
    {
      "midi": 57,
      "hit": false,
      "t": 206571.22200000196,
      "d": 407.1424500000139,
      "v": 100
    },
    {
      "midi": 62,
      "hit": false,
      "t": 206571.22200000196,
      "d": 407.1424500000139,
      "v": 100
    },
    {
      "midi": 44,
      "hit": false,
      "t": 206999.79300000198,
      "d": 407.1424500000139,
      "v": 100
    },
    {
      "midi": 54,
      "hit": false,
      "t": 206999.79300000198,
      "d": 407.1424500000139,
      "v": 100
    },
    {
      "midi": 60,
      "hit": false,
      "t": 206999.79300000198,
      "d": 407.1424500000139,
      "v": 100
    },
    {
      "midi": 45,
      "hit": false,
      "t": 207428.364000002,
      "d": 407.1424500000139,
      "v": 100
    },
    {
      "midi": 55,
      "hit": false,
      "t": 207428.364000002,
      "d": 407.1424500000139,
      "v": 100
    },
    {
      "midi": 61,
      "hit": false,
      "t": 207428.364000002,
      "d": 407.1424500000139,
      "v": 100
    },
    {
      "midi": 46,
      "hit": false,
      "t": 207856.93500000203,
      "d": 407.1424500000139,
      "v": 100
    },
    {
      "midi": 56,
      "hit": false,
      "t": 207856.93500000203,
      "d": 407.1424500000139,
      "v": 100
    },
    {
      "midi": 57,
      "hit": false,
      "t": 207856.93500000203,
      "d": 407.1424500000139,
      "v": 100
    },
    {
      "midi": 62,
      "hit": false,
      "t": 207856.93500000203,
      "d": 407.1424500000139,
      "v": 100
    },
    {
      "midi": 44,
      "hit": false,
      "t": 208285.50600000206,
      "d": 407.1424500000139,
      "v": 100
    },
    {
      "midi": 54,
      "hit": false,
      "t": 208285.50600000206,
      "d": 407.1424500000139,
      "v": 100
    },
    {
      "midi": 60,
      "hit": false,
      "t": 208285.50600000206,
      "d": 407.1424500000139,
      "v": 100
    },
    {
      "midi": 44,
      "hit": false,
      "t": 208714.0770000021,
      "d": 203.5712249999924,
      "v": 100
    },
    {
      "midi": 55,
      "hit": false,
      "t": 208714.0770000021,
      "d": 203.5712249999924,
      "v": 100
    },
    {
      "midi": 61,
      "hit": false,
      "t": 208714.0770000021,
      "d": 203.5712249999924,
      "v": 100
    },
    {
      "midi": 45,
      "hit": false,
      "t": 208928.36250000208,
      "d": 610.7136750000063,
      "v": 100
    },
    {
      "midi": 57,
      "hit": false,
      "t": 208928.36250000208,
      "d": 610.7136750000063,
      "v": 100
    },
    {
      "midi": 64,
      "hit": false,
      "t": 208928.36250000208,
      "d": 610.7136750000063,
      "v": 100
    },
    {
      "midi": 43,
      "hit": false,
      "t": 209571.21900000208,
      "d": 407.1424500000139,
      "v": 100
    },
    {
      "midi": 55,
      "hit": false,
      "t": 209571.21900000208,
      "d": 407.1424500000139,
      "v": 100
    },
    {
      "midi": 64,
      "hit": false,
      "t": 209571.21900000208,
      "d": 407.1424500000139,
      "v": 100
    },
    {
      "midi": 52,
      "hit": false,
      "t": 209999.7900000021,
      "d": 203.5712249999924,
      "v": 100
    },
    {
      "midi": 40,
      "hit": false,
      "t": 209999.7900000021,
      "d": 407.1424499999848,
      "v": 100
    },
    {
      "midi": 64,
      "hit": false,
      "t": 210214.0755000021,
      "d": 203.5712249999924,
      "v": 100
    },
    {
      "midi": 40,
      "hit": false,
      "t": 210428.3610000021,
      "d": 203.5712249999924,
      "v": 100
    },
    {
      "midi": 52,
      "hit": false,
      "t": 210428.3610000021,
      "d": 203.5712249999924,
      "v": 100
    },
    {
      "midi": 45,
      "hit": false,
      "t": 210642.6465000021,
      "d": 610.7136750000063,
      "v": 100
    },
    {
      "midi": 64,
      "hit": false,
      "t": 210642.6465000021,
      "d": 610.7136750000063,
      "v": 100
    },
    {
      "midi": 43,
      "hit": false,
      "t": 211285.5030000021,
      "d": 407.1424500000139,
      "v": 100
    },
    {
      "midi": 55,
      "hit": false,
      "t": 211285.5030000021,
      "d": 407.1424500000139,
      "v": 100
    },
    {
      "midi": 64,
      "hit": false,
      "t": 211285.5030000021,
      "d": 407.1424500000139,
      "v": 100
    },
    {
      "midi": 52,
      "hit": false,
      "t": 211714.07400000212,
      "d": 203.5712249999924,
      "v": 100
    },
    {
      "midi": 40,
      "hit": false,
      "t": 211714.07400000212,
      "d": 407.1424499999848,
      "v": 100
    },
    {
      "midi": 64,
      "hit": false,
      "t": 211928.35950000212,
      "d": 203.5712249999924,
      "v": 100
    },
    {
      "midi": 40,
      "hit": false,
      "t": 212142.6450000021,
      "d": 203.5712249999924,
      "v": 100
    },
    {
      "midi": 52,
      "hit": false,
      "t": 212142.6450000021,
      "d": 203.5712249999924,
      "v": 100
    },
    {
      "midi": 45,
      "hit": false,
      "t": 212356.9305000021,
      "d": 610.7136750000063,
      "v": 100
    },
    {
      "midi": 64,
      "hit": false,
      "t": 212356.9305000021,
      "d": 610.7136750000063,
      "v": 100
    },
    {
      "midi": 43,
      "hit": false,
      "t": 212999.7870000021,
      "d": 407.1424500000139,
      "v": 100
    },
    {
      "midi": 55,
      "hit": false,
      "t": 212999.7870000021,
      "d": 407.1424500000139,
      "v": 100
    },
    {
      "midi": 64,
      "hit": false,
      "t": 212999.7870000021,
      "d": 407.1424500000139,
      "v": 100
    },
    {
      "midi": 52,
      "hit": false,
      "t": 213428.35800000213,
      "d": 203.5712249999924,
      "v": 100
    },
    {
      "midi": 40,
      "hit": false,
      "t": 213428.35800000213,
      "d": 407.1424499999848,
      "v": 100
    },
    {
      "midi": 64,
      "hit": false,
      "t": 213642.64350000213,
      "d": 203.5712249999924,
      "v": 100
    },
    {
      "midi": 40,
      "hit": false,
      "t": 213856.92900000213,
      "d": 203.5712249999924,
      "v": 100
    },
    {
      "midi": 52,
      "hit": false,
      "t": 213856.92900000213,
      "d": 203.5712249999924,
      "v": 100
    },
    {
      "midi": 45,
      "hit": false,
      "t": 214071.21450000213,
      "d": 610.7136750000063,
      "v": 100
    },
    {
      "midi": 57,
      "hit": false,
      "t": 214071.21450000213,
      "d": 610.7136750000063,
      "v": 100
    },
    {
      "midi": 64,
      "hit": false,
      "t": 214071.21450000213,
      "d": 610.7136750000063,
      "v": 100
    },
    {
      "midi": 43,
      "hit": false,
      "t": 214714.07100000212,
      "d": 407.1424500000139,
      "v": 100
    },
    {
      "midi": 55,
      "hit": false,
      "t": 214714.07100000212,
      "d": 407.1424500000139,
      "v": 100
    },
    {
      "midi": 64,
      "hit": false,
      "t": 214714.07100000212,
      "d": 407.1424500000139,
      "v": 100
    },
    {
      "midi": 52,
      "hit": false,
      "t": 215142.64200000215,
      "d": 203.5712249999924,
      "v": 100
    },
    {
      "midi": 40,
      "hit": false,
      "t": 215142.64200000215,
      "d": 407.1424499999848,
      "v": 100
    },
    {
      "midi": 64,
      "hit": false,
      "t": 215356.92750000214,
      "d": 203.5712249999924,
      "v": 100
    },
    {
      "midi": 52,
      "hit": false,
      "t": 215571.21300000214,
      "d": 203.5712249999924,
      "v": 100
    },
    {
      "midi": 49,
      "hit": false,
      "t": 215785.49850000214,
      "d": 203.5712249999924,
      "v": 100
    },
    {
      "midi": 61,
      "hit": false,
      "t": 215785.49850000214,
      "d": 203.5712249999924,
      "v": 100
    },
    {
      "midi": 50,
      "hit": false,
      "t": 215999.78400000214,
      "d": 203.5712249999924,
      "v": 100
    },
    {
      "midi": 57,
      "hit": false,
      "t": 215999.78400000214,
      "d": 203.5712249999924,
      "v": 100
    },
    {
      "midi": 62,
      "hit": false,
      "t": 215999.78400000214,
      "d": 203.5712249999924,
      "v": 100
    },
    {
      "midi": 66,
      "hit": false,
      "t": 215999.78400000214,
      "d": 203.5712249999924,
      "v": 100
    },
    {
      "midi": 50,
      "hit": false,
      "t": 216214.06950000214,
      "d": 407.1424500000139,
      "v": 100
    },
    {
      "midi": 57,
      "hit": false,
      "t": 216214.06950000214,
      "d": 407.1424500000139,
      "v": 100
    },
    {
      "midi": 62,
      "hit": false,
      "t": 216214.06950000214,
      "d": 407.1424500000139,
      "v": 100
    },
    {
      "midi": 66,
      "hit": false,
      "t": 216214.06950000214,
      "d": 407.1424500000139,
      "v": 100
    },
    {
      "midi": 45,
      "hit": false,
      "t": 216642.64050000216,
      "d": 203.5712249999924,
      "v": 100
    },
    {
      "midi": 57,
      "hit": false,
      "t": 216642.64050000216,
      "d": 203.5712249999924,
      "v": 100
    },
    {
      "midi": 50,
      "hit": false,
      "t": 216856.92600000216,
      "d": 610.7136750000063,
      "v": 100
    },
    {
      "midi": 57,
      "hit": false,
      "t": 216856.92600000216,
      "d": 610.7136750000063,
      "v": 100
    },
    {
      "midi": 62,
      "hit": false,
      "t": 216856.92600000216,
      "d": 610.7136750000063,
      "v": 100
    },
    {
      "midi": 66,
      "hit": false,
      "t": 216856.92600000216,
      "d": 610.7136750000063,
      "v": 100
    },
    {
      "midi": 54,
      "hit": false,
      "t": 217499.78250000215,
      "d": 203.5712249999924,
      "v": 100
    },
    {
      "midi": 58,
      "hit": false,
      "t": 217499.78250000215,
      "d": 203.5712249999924,
      "v": 100
    },
    {
      "midi": 43,
      "hit": false,
      "t": 217714.06800000215,
      "d": 203.5712249999924,
      "v": 100
    },
    {
      "midi": 59,
      "hit": false,
      "t": 217714.06800000215,
      "d": 203.5712249999924,
      "v": 100
    },
    {
      "midi": 55,
      "hit": false,
      "t": 217724.78227500216,
      "d": 203.5712249999924,
      "v": 100
    },
    {
      "midi": 43,
      "hit": false,
      "t": 217928.35350000215,
      "d": 407.142450000043,
      "v": 100
    },
    {
      "midi": 67,
      "hit": false,
      "t": 217953.35347500216,
      "d": 203.5712250000215,
      "v": 100
    },
    {
      "midi": 54,
      "hit": false,
      "t": 218142.63900000218,
      "d": 203.5712250000215,
      "v": 100
    },
    {
      "midi": 58,
      "hit": false,
      "t": 218142.63900000218,
      "d": 203.5712250000215,
      "v": 100
    },
    {
      "midi": 43,
      "hit": false,
      "t": 218356.9245000022,
      "d": 203.5712249999924,
      "v": 100
    },
    {
      "midi": 55,
      "hit": false,
      "t": 218356.9245000022,
      "d": 203.5712249999924,
      "v": 100
    },
    {
      "midi": 59,
      "hit": false,
      "t": 218356.9245000022,
      "d": 203.5712249999924,
      "v": 100
    },
    {
      "midi": 43,
      "hit": false,
      "t": 218571.2100000022,
      "d": 407.1424500000139,
      "v": 100
    },
    {
      "midi": 59,
      "hit": false,
      "t": 218571.2100000022,
      "d": 407.1424500000139,
      "v": 100
    },
    {
      "midi": 62,
      "hit": false,
      "t": 218571.2100000022,
      "d": 407.1424500000139,
      "v": 100
    },
    {
      "midi": 67,
      "hit": false,
      "t": 218571.2100000022,
      "d": 407.1424500000139,
      "v": 100
    },
    {
      "midi": 45,
      "hit": false,
      "t": 219214.06650000223,
      "d": 610.7136750000063,
      "v": 100
    },
    {
      "midi": 57,
      "hit": false,
      "t": 219214.06650000223,
      "d": 610.7136750000063,
      "v": 100
    },
    {
      "midi": 64,
      "hit": false,
      "t": 219214.06650000223,
      "d": 610.7136750000063,
      "v": 100
    },
    {
      "midi": 43,
      "hit": false,
      "t": 219856.92300000222,
      "d": 407.1424500000139,
      "v": 100
    },
    {
      "midi": 55,
      "hit": false,
      "t": 219856.92300000222,
      "d": 407.1424500000139,
      "v": 100
    },
    {
      "midi": 64,
      "hit": false,
      "t": 219856.92300000222,
      "d": 407.1424500000139,
      "v": 100
    },
    {
      "midi": 52,
      "hit": false,
      "t": 220285.49400000225,
      "d": 203.5712249999924,
      "v": 100
    },
    {
      "midi": 40,
      "hit": false,
      "t": 220285.49400000225,
      "d": 407.1424499999848,
      "v": 100
    },
    {
      "midi": 64,
      "hit": false,
      "t": 220499.77950000225,
      "d": 203.5712249999924,
      "v": 100
    },
    {
      "midi": 40,
      "hit": false,
      "t": 220714.06500000224,
      "d": 203.5712249999924,
      "v": 100
    },
    {
      "midi": 52,
      "hit": false,
      "t": 220714.06500000224,
      "d": 203.5712249999924,
      "v": 100
    },
    {
      "midi": 45,
      "hit": false,
      "t": 220928.35050000224,
      "d": 610.7136750000063,
      "v": 100
    },
    {
      "midi": 57,
      "hit": false,
      "t": 220928.35050000224,
      "d": 610.7136750000063,
      "v": 100
    },
    {
      "midi": 64,
      "hit": false,
      "t": 220928.35050000224,
      "d": 610.7136750000063,
      "v": 100
    },
    {
      "midi": 43,
      "hit": false,
      "t": 221571.20700000224,
      "d": 407.1424500000139,
      "v": 100
    },
    {
      "midi": 55,
      "hit": false,
      "t": 221571.20700000224,
      "d": 407.1424500000139,
      "v": 100
    },
    {
      "midi": 64,
      "hit": false,
      "t": 221571.20700000224,
      "d": 407.1424500000139,
      "v": 100
    },
    {
      "midi": 52,
      "hit": false,
      "t": 221999.77800000226,
      "d": 203.5712249999924,
      "v": 100
    },
    {
      "midi": 40,
      "hit": false,
      "t": 221999.77800000226,
      "d": 407.1424499999848,
      "v": 100
    },
    {
      "midi": 64,
      "hit": false,
      "t": 222214.06350000226,
      "d": 203.5712249999924,
      "v": 100
    },
    {
      "midi": 52,
      "hit": false,
      "t": 222428.34900000226,
      "d": 203.5712249999924,
      "v": 100
    },
    {
      "midi": 49,
      "hit": false,
      "t": 222642.63450000226,
      "d": 203.5712249999924,
      "v": 100
    },
    {
      "midi": 61,
      "hit": false,
      "t": 222642.63450000226,
      "d": 203.5712249999924,
      "v": 100
    },
    {
      "midi": 50,
      "hit": false,
      "t": 222856.92000000225,
      "d": 203.5712249999924,
      "v": 100
    },
    {
      "midi": 57,
      "hit": false,
      "t": 222856.92000000225,
      "d": 203.5712249999924,
      "v": 100
    },
    {
      "midi": 62,
      "hit": false,
      "t": 222856.92000000225,
      "d": 203.5712249999924,
      "v": 100
    },
    {
      "midi": 66,
      "hit": false,
      "t": 222856.92000000225,
      "d": 203.5712249999924,
      "v": 100
    },
    {
      "midi": 50,
      "hit": false,
      "t": 223071.20550000225,
      "d": 407.1424500000139,
      "v": 100
    },
    {
      "midi": 57,
      "hit": false,
      "t": 223071.20550000225,
      "d": 407.1424500000139,
      "v": 100
    },
    {
      "midi": 62,
      "hit": false,
      "t": 223071.20550000225,
      "d": 407.1424500000139,
      "v": 100
    },
    {
      "midi": 66,
      "hit": false,
      "t": 223071.20550000225,
      "d": 407.1424500000139,
      "v": 100
    },
    {
      "midi": 45,
      "hit": false,
      "t": 223499.77650000228,
      "d": 203.5712249999924,
      "v": 100
    },
    {
      "midi": 57,
      "hit": false,
      "t": 223499.77650000228,
      "d": 203.5712249999924,
      "v": 100
    },
    {
      "midi": 50,
      "hit": false,
      "t": 223714.06200000228,
      "d": 610.7136750000063,
      "v": 100
    },
    {
      "midi": 57,
      "hit": false,
      "t": 223714.06200000228,
      "d": 610.7136750000063,
      "v": 100
    },
    {
      "midi": 62,
      "hit": false,
      "t": 223714.06200000228,
      "d": 610.7136750000063,
      "v": 100
    },
    {
      "midi": 66,
      "hit": false,
      "t": 223714.06200000228,
      "d": 610.7136750000063,
      "v": 100
    },
    {
      "midi": 54,
      "hit": false,
      "t": 224356.91850000227,
      "d": 203.5712249999924,
      "v": 100
    },
    {
      "midi": 58,
      "hit": false,
      "t": 224356.91850000227,
      "d": 203.5712249999924,
      "v": 100
    },
    {
      "midi": 43,
      "hit": false,
      "t": 224571.20400000227,
      "d": 203.5712249999924,
      "v": 100
    },
    {
      "midi": 59,
      "hit": false,
      "t": 224571.20400000227,
      "d": 203.5712249999924,
      "v": 100
    },
    {
      "midi": 55,
      "hit": false,
      "t": 224581.91827500227,
      "d": 203.5712249999924,
      "v": 100
    },
    {
      "midi": 67,
      "hit": false,
      "t": 224785.48950000227,
      "d": 203.5712249999924,
      "v": 100
    },
    {
      "midi": 43,
      "hit": false,
      "t": 224785.48950000227,
      "d": 407.1424499999848,
      "v": 100
    },
    {
      "midi": 54,
      "hit": false,
      "t": 224999.77500000226,
      "d": 203.5712249999924,
      "v": 100
    },
    {
      "midi": 58,
      "hit": false,
      "t": 224999.77500000226,
      "d": 203.5712249999924,
      "v": 100
    },
    {
      "midi": 43,
      "hit": false,
      "t": 225214.06050000226,
      "d": 203.5712249999924,
      "v": 100
    },
    {
      "midi": 55,
      "hit": false,
      "t": 225214.06050000226,
      "d": 203.5712249999924,
      "v": 100
    },
    {
      "midi": 59,
      "hit": false,
      "t": 225214.06050000226,
      "d": 203.5712249999924,
      "v": 100
    },
    {
      "midi": 43,
      "hit": false,
      "t": 225428.34600000226,
      "d": 407.1424500000139,
      "v": 100
    },
    {
      "midi": 59,
      "hit": false,
      "t": 225428.34600000226,
      "d": 407.1424500000139,
      "v": 100
    },
    {
      "midi": 62,
      "hit": false,
      "t": 225428.34600000226,
      "d": 407.1424500000139,
      "v": 100
    },
    {
      "midi": 67,
      "hit": false,
      "t": 225428.34600000226,
      "d": 407.1424500000139,
      "v": 100
    },
    {
      "midi": 40,
      "hit": false,
      "t": 226285.48800000228,
      "d": 2846.4257250000082,
      "v": 100
    },
    {
      "midi": 52,
      "hit": false,
      "t": 226285.48800000228,
      "d": 2846.4257250000082,
      "v": 100
    },
    {
      "midi": 64,
      "hit": false,
      "t": 226285.48800000228,
      "d": 2846.4257250000082,
      "v": 100
    },
    {
      "midi": 45,
      "hit": false,
      "t": 229499.77050000228,
      "d": 610.7136750000063,
      "v": 100
    },
    {
      "midi": 57,
      "hit": false,
      "t": 229499.77050000228,
      "d": 610.7136750000063,
      "v": 100
    },
    {
      "midi": 64,
      "hit": false,
      "t": 229499.77050000228,
      "d": 610.7136750000063,
      "v": 100
    },
    {
      "midi": 45,
      "hit": false,
      "t": 231214.0545000023,
      "d": 610.7136750000063,
      "v": 100
    },
    {
      "midi": 57,
      "hit": false,
      "t": 231214.0545000023,
      "d": 610.7136750000063,
      "v": 100
    },
    {
      "midi": 64,
      "hit": false,
      "t": 231214.0545000023,
      "d": 610.7136750000063,
      "v": 100
    },
    {
      "midi": 45,
      "hit": false,
      "t": 232928.3385000023,
      "d": 610.7136750000063,
      "v": 100
    },
    {
      "midi": 57,
      "hit": false,
      "t": 232928.3385000023,
      "d": 610.7136750000063,
      "v": 100
    },
    {
      "midi": 64,
      "hit": false,
      "t": 232928.3385000023,
      "d": 610.7136750000063,
      "v": 100
    },
    {
      "midi": 45,
      "hit": false,
      "t": 234642.62250000233,
      "d": 610.7136750000063,
      "v": 100
    },
    {
      "midi": 57,
      "hit": false,
      "t": 234642.62250000233,
      "d": 610.7136750000063,
      "v": 100
    },
    {
      "midi": 64,
      "hit": false,
      "t": 234642.62250000233,
      "d": 610.7136750000063,
      "v": 100
    },
    {
      "midi": 45,
      "hit": false,
      "t": 236356.90650000234,
      "d": 610.7136750000063,
      "v": 100
    },
    {
      "midi": 57,
      "hit": false,
      "t": 236356.90650000234,
      "d": 610.7136750000063,
      "v": 100
    },
    {
      "midi": 64,
      "hit": false,
      "t": 236356.90650000234,
      "d": 610.7136750000063,
      "v": 100
    },
    {
      "midi": 45,
      "hit": false,
      "t": 238071.19050000235,
      "d": 610.7136750000063,
      "v": 100
    },
    {
      "midi": 57,
      "hit": false,
      "t": 238071.19050000235,
      "d": 610.7136750000063,
      "v": 100
    },
    {
      "midi": 64,
      "hit": false,
      "t": 238071.19050000235,
      "d": 610.7136750000063,
      "v": 100
    },
    {
      "midi": 45,
      "hit": false,
      "t": 239785.47450000237,
      "d": 610.7136750000063,
      "v": 100
    },
    {
      "midi": 57,
      "hit": false,
      "t": 239785.47450000237,
      "d": 610.7136750000063,
      "v": 100
    },
    {
      "midi": 64,
      "hit": false,
      "t": 239785.47450000237,
      "d": 610.7136750000063,
      "v": 100
    },
    {
      "midi": 45,
      "hit": false,
      "t": 241499.75850000238,
      "d": 610.7136750000063,
      "v": 100
    },
    {
      "midi": 57,
      "hit": false,
      "t": 241499.75850000238,
      "d": 610.7136750000063,
      "v": 100
    },
    {
      "midi": 64,
      "hit": false,
      "t": 241499.75850000238,
      "d": 610.7136750000063,
      "v": 100
    },
    {
      "midi": 45,
      "hit": false,
      "t": 243214.0425000024,
      "d": 610.7136750000354,
      "v": 100
    },
    {
      "midi": 57,
      "hit": false,
      "t": 243214.0425000024,
      "d": 610.7136750000354,
      "v": 100
    },
    {
      "midi": 64,
      "hit": false,
      "t": 243214.0425000024,
      "d": 610.7136750000354,
      "v": 100
    },
    {
      "midi": 45,
      "hit": false,
      "t": 244928.3265000025,
      "d": 610.7136750000354,
      "v": 100
    },
    {
      "midi": 57,
      "hit": false,
      "t": 244928.3265000025,
      "d": 610.7136750000354,
      "v": 100
    },
    {
      "midi": 64,
      "hit": false,
      "t": 244928.3265000025,
      "d": 610.7136750000354,
      "v": 100
    },
    {
      "midi": 45,
      "hit": false,
      "t": 246642.6105000026,
      "d": 610.7136750000354,
      "v": 100
    },
    {
      "midi": 57,
      "hit": false,
      "t": 246642.6105000026,
      "d": 610.7136750000354,
      "v": 100
    },
    {
      "midi": 64,
      "hit": false,
      "t": 246642.6105000026,
      "d": 610.7136750000354,
      "v": 100
    },
    {
      "midi": 45,
      "hit": false,
      "t": 248356.89450000273,
      "d": 610.7136750000354,
      "v": 100
    },
    {
      "midi": 57,
      "hit": false,
      "t": 248356.89450000273,
      "d": 610.7136750000354,
      "v": 100
    },
    {
      "midi": 64,
      "hit": false,
      "t": 248356.89450000273,
      "d": 610.7136750000354,
      "v": 100
    },
    {
      "midi": 45,
      "hit": false,
      "t": 250071.17850000283,
      "d": 610.7136750000354,
      "v": 100
    },
    {
      "midi": 57,
      "hit": false,
      "t": 250071.17850000283,
      "d": 610.7136750000354,
      "v": 100
    },
    {
      "midi": 64,
      "hit": false,
      "t": 250071.17850000283,
      "d": 610.7136750000354,
      "v": 100
    },
    {
      "midi": 45,
      "hit": false,
      "t": 251785.46250000293,
      "d": 610.7136750000354,
      "v": 100
    },
    {
      "midi": 57,
      "hit": false,
      "t": 251785.46250000293,
      "d": 610.7136750000354,
      "v": 100
    },
    {
      "midi": 64,
      "hit": false,
      "t": 251785.46250000293,
      "d": 610.7136750000354,
      "v": 100
    },
    {
      "midi": 45,
      "hit": false,
      "t": 253499.74650000304,
      "d": 610.7136750000063,
      "v": 100
    },
    {
      "midi": 57,
      "hit": false,
      "t": 253499.74650000304,
      "d": 610.7136750000063,
      "v": 100
    },
    {
      "midi": 64,
      "hit": false,
      "t": 253499.74650000304,
      "d": 610.7136750000063,
      "v": 100
    }
  ]
}