{
  "jsonPath": "Rock/Modern Rock/Fall Out Boy/sugar-were-goin-down.json",
  "path": "Rock\\Modern Rock\\Fall Out Boy\\Sugar_ Were Goin Down.mid",
  "name": "Sugar_ Were Goin Down",
  "difficulty": "Intermediate",
  "bpm": 82.00014760026568,
  "notes": [
    {
      "midi": 62,
      "hit": false,
      "t": 95853.48600000002,
      "d": 365.8530000000028,
      "v": 127
    },
    {
      "midi": 64,
      "hit": false,
      "t": 96219.33900000002,
      "d": 1097.5590000000084,
      "v": 127
    },
    {
      "midi": 66,
      "hit": false,
      "t": 96585.19200000002,
      "d": 1829.265000000014,
      "v": 127
    },
    {
      "midi": 64,
      "hit": false,
      "t": 97316.89800000003,
      "d": 365.8530000000028,
      "v": 127
    },
    {
      "midi": 62,
      "hit": false,
      "t": 97682.75100000003,
      "d": 365.8530000000028,
      "v": 127
    },
    {
      "midi": 64,
      "hit": false,
      "t": 98048.60400000004,
      "d": 731.7060000000056,
      "v": 127
    },
    {
      "midi": 66,
      "hit": false,
      "t": 98414.45700000004,
      "d": 2560.971000000005,
      "v": 127
    },
    {
      "midi": 64,
      "hit": false,
      "t": 98780.31000000004,
      "d": 365.8530000000028,
      "v": 127
    },
    {
      "midi": 62,
      "hit": false,
      "t": 99146.16300000004,
      "d": 3292.6770000000106,
      "v": 127
    },
    {
      "midi": 69,
      "hit": false,
      "t": 100975.42800000004,
      "d": 731.7060000000056,
      "v": 127
    },
    {
      "midi": 69,
      "hit": false,
      "t": 101707.13400000005,
      "d": 731.7060000000056,
      "v": 79
    },
    {
      "midi": 50,
      "hit": false,
      "t": 102438.84000000005,
      "d": 1463.4119999999966,
      "v": 127
    },
    {
      "midi": 62,
      "hit": false,
      "t": 102438.84000000005,
      "d": 1463.4119999999966,
      "v": 127
    },
    {
      "midi": 67,
      "hit": false,
      "t": 103902.25200000005,
      "d": 731.7060000000056,
      "v": 127
    },
    {
      "midi": 50,
      "hit": false,
      "t": 103902.25200000005,
      "d": 2926.8240000000224,
      "v": 127
    },
    {
      "midi": 67,
      "hit": false,
      "t": 104633.95800000006,
      "d": 731.7060000000056,
      "v": 79
    },
    {
      "midi": 66,
      "hit": false,
      "t": 105365.66400000006,
      "d": 1097.5590000000084,
      "v": 127
    },
    {
      "midi": 64,
      "hit": false,
      "t": 105731.51700000007,
      "d": 365.8530000000028,
      "v": 127
    },
    {
      "midi": 62,
      "hit": false,
      "t": 106097.37000000007,
      "d": 731.7060000000056,
      "v": 127
    },
    {
      "midi": 66,
      "hit": false,
      "t": 106463.22300000007,
      "d": 1829.265000000014,
      "v": 127
    },
    {
      "midi": 64,
      "hit": false,
      "t": 106829.07600000007,
      "d": 365.8530000000028,
      "v": 127
    },
    {
      "midi": 62,
      "hit": false,
      "t": 107194.92900000008,
      "d": 365.8530000000028,
      "v": 127
    },
    {
      "midi": 62,
      "hit": false,
      "t": 107560.78200000008,
      "d": 731.7060000000056,
      "v": 127
    }
  ]
}