{
  "jsonPath": "Unknown/Unknown/The Isley Brothers  Ronald Isley/you-help-me-write-this-song.json",
  "path": "Unknown\\Unknown\\The Isley Brothers  Ronald Isley\\You Help Me Write This Song.mid",
  "name": "You Help Me Write This Song",
  "difficulty": "Advanced",
  "bpm": 68.0000725334107,
  "notes": [
    {
      "midi": 57,
      "hit": false,
      "t": 9.191166666666668,
      "d": 2904.4086666666667,
      "v": 76
    },
    {
      "midi": 71,
      "hit": false,
      "t": 9.191166666666668,
      "d": 2987.1291666666666,
      "v": 114
    },
    {
      "midi": 72,
      "hit": false,
      "t": 229.77916666666667,
      "d": 2775.732333333333,
      "v": 102
    },
    {
      "midi": 76,
      "hit": false,
      "t": 404.41133333333335,
      "d": 2601.100166666666,
      "v": 96
    },
    {
      "midi": 67,
      "hit": false,
      "t": 624.9993333333333,
      "d": 2380.5121666666664,
      "v": 110
    },
    {
      "midi": 71,
      "hit": false,
      "t": 3511.0256666666664,
      "d": 1020.2194999999992,
      "v": 110
    },
    {
      "midi": 60,
      "hit": false,
      "t": 3520.216833333333,
      "d": 1066.1753333333327,
      "v": 72
    },
    {
      "midi": 53,
      "hit": false,
      "t": 3520.216833333333,
      "d": 1084.5576666666657,
      "v": 49
    },
    {
      "midi": 72,
      "hit": false,
      "t": 3740.8048333333327,
      "d": 781.2491666666665,
      "v": 96
    },
    {
      "midi": 76,
      "hit": false,
      "t": 3933.819333333333,
      "d": 569.8523333333333,
      "v": 102
    },
    {
      "midi": 65,
      "hit": false,
      "t": 4145.216166666666,
      "d": 431.984833333333,
      "v": 110
    },
    {
      "midi": 68,
      "hit": false,
      "t": 5266.538499999999,
      "d": 670.9551666666657,
      "v": 91
    },
    {
      "midi": 72,
      "hit": false,
      "t": 5266.538499999999,
      "d": 670.9551666666657,
      "v": 102
    },
    {
      "midi": 62,
      "hit": false,
      "t": 5275.729666666665,
      "d": 652.5728333333327,
      "v": 79
    },
    {
      "midi": 52,
      "hit": false,
      "t": 5275.729666666665,
      "d": 689.3374999999996,
      "v": 55
    },
    {
      "midi": 59,
      "hit": false,
      "t": 5275.729666666665,
      "d": 716.9110000000001,
      "v": 51
    },
    {
      "midi": 72,
      "hit": false,
      "t": 6387.860833333332,
      "d": 110.29399999999896,
      "v": 86
    },
    {
      "midi": 68,
      "hit": false,
      "t": 6397.051999999999,
      "d": 73.52933333333294,
      "v": 66
    },
    {
      "midi": 64,
      "hit": false,
      "t": 6397.051999999999,
      "d": 82.72049999999945,
      "v": 103
    },
    {
      "midi": 57,
      "hit": false,
      "t": 7077.198333333331,
      "d": 2077.2036666666672,
      "v": 74
    },
    {
      "midi": 71,
      "hit": false,
      "t": 7288.595166666664,
      "d": 2610.2913333333345,
      "v": 114
    },
    {
      "midi": 72,
      "hit": false,
      "t": 7499.9919999999975,
      "d": 2417.276833333336,
      "v": 96
    },
    {
      "midi": 76,
      "hit": false,
      "t": 7702.197666666664,
      "d": 2196.6888333333345,
      "v": 91
    },
    {
      "midi": 67,
      "hit": false,
      "t": 7913.594499999997,
      "d": 1994.4831666666687,
      "v": 110
    },
    {
      "midi": 65,
      "hit": false,
      "t": 10615.7975,
      "d": 606.617000000002,
      "v": 106
    },
    {
      "midi": 53,
      "hit": false,
      "t": 10615.7975,
      "d": 1011.0283333333355,
      "v": 41
    },
    {
      "midi": 60,
      "hit": false,
      "t": 10624.988666666668,
      "d": 974.2636666666676,
      "v": 55
    },
    {
      "midi": 69,
      "hit": false,
      "t": 10827.194333333335,
      "d": 735.2933333333349,
      "v": 91
    },
    {
      "midi": 76,
      "hit": false,
      "t": 11011.017666666668,
      "d": 533.0876666666682,
      "v": 102
    },
    {
      "midi": 65,
      "hit": false,
      "t": 11222.414500000003,
      "d": 340.073166666667,
      "v": 110
    },
    {
      "midi": 52,
      "hit": false,
      "t": 12343.736833333336,
      "d": 1121.3223333333353,
      "v": 55
    },
    {
      "midi": 68,
      "hit": false,
      "t": 12343.736833333336,
      "d": 1470.5866666666698,
      "v": 85
    },
    {
      "midi": 72,
      "hit": false,
      "t": 12352.928000000004,
      "d": 946.6901666666672,
      "v": 96
    },
    {
      "midi": 62,
      "hit": false,
      "t": 12352.928000000004,
      "d": 1452.204333333335,
      "v": 82
    },
    {
      "midi": 71,
      "hit": false,
      "t": 13676.456000000006,
      "d": 137.8675000000003,
      "v": 76
    },
    {
      "midi": 72,
      "hit": false,
      "t": 14117.632000000005,
      "d": 2968.7468333333345,
      "v": 79
    },
    {
      "midi": 69,
      "hit": false,
      "t": 14117.632000000005,
      "d": 2987.1291666666693,
      "v": 74
    },
    {
      "midi": 64,
      "hit": false,
      "t": 14126.823166666672,
      "d": 2950.3644999999997,
      "v": 69
    },
    {
      "midi": 57,
      "hit": false,
      "t": 14126.823166666672,
      "d": 2977.938000000002,
      "v": 57
    },
    {
      "midi": 65,
      "hit": false,
      "t": 17628.657666666677,
      "d": 1158.0870000000032,
      "v": 76
    },
    {
      "midi": 72,
      "hit": false,
      "t": 17628.657666666677,
      "d": 1158.0870000000032,
      "v": 79
    },
    {
      "midi": 69,
      "hit": false,
      "t": 17628.657666666677,
      "d": 1185.6605000000018,
      "v": 69
    },
    {
      "midi": 64,
      "hit": false,
      "t": 17637.848833333344,
      "d": 1139.7046666666683,
      "v": 64
    },
    {
      "midi": 53,
      "hit": false,
      "t": 17647.04000000001,
      "d": 1213.2340000000004,
      "v": 59
    },
    {
      "midi": 72,
      "hit": false,
      "t": 19393.36166666668,
      "d": 1314.3368333333347,
      "v": 74
    },
    {
      "midi": 68,
      "hit": false,
      "t": 19393.36166666668,
      "d": 1700.3658333333333,
      "v": 75
    },
    {
      "midi": 64,
      "hit": false,
      "t": 19402.552833333346,
      "d": 1709.5570000000007,
      "v": 82
    },
    {
      "midi": 52,
      "hit": false,
      "t": 19420.93516666668,
      "d": 1718.7481666666645,
      "v": 64
    },
    {
      "midi": 71,
      "hit": false,
      "t": 20753.654333333347,
      "d": 386.02899999999863,
      "v": 74
    },
    {
      "midi": 29,
      "hit": false,
      "t": 20772.036666666667,
      "d": 395.22016666666605,
      "v": 86
    },
    {
      "midi": 64,
      "hit": false,
      "t": 21194.830333333346,
      "d": 2996.320333333333,
      "v": 69
    },
    {
      "midi": 72,
      "hit": false,
      "t": 21194.830333333346,
      "d": 3005.5115000000005,
      "v": 69
    },
    {
      "midi": 67,
      "hit": false,
      "t": 21204.021500000013,
      "d": 3005.5115000000005,
      "v": 67
    },
    {
      "midi": 69,
      "hit": false,
      "t": 21204.021500000013,
      "d": 3005.5115000000005,
      "v": 51
    },
    {
      "midi": 33,
      "hit": false,
      "t": 21213.212666666666,
      "d": 1783.0863333333327,
      "v": 91
    },
    {
      "midi": 57,
      "hit": false,
      "t": 21213.21266666668,
      "d": 3005.5115000000005,
      "v": 49
    },
    {
      "midi": 65,
      "hit": false,
      "t": 24678.282500000016,
      "d": 1259.1898333333338,
      "v": 74
    },
    {
      "midi": 72,
      "hit": false,
      "t": 24678.282500000016,
      "d": 1277.5721666666686,
      "v": 82
    },
    {
      "midi": 64,
      "hit": false,
      "t": 24687.473666666683,
      "d": 1249.9986666666664,
      "v": 72
    },
    {
      "midi": 69,
      "hit": false,
      "t": 24687.473666666683,
      "d": 1277.5721666666686,
      "v": 74
    },
    {
      "midi": 53,
      "hit": false,
      "t": 24696.66483333335,
      "d": 1305.1456666666672,
      "v": 57
    },
    {
      "midi": 29,
      "hit": false,
      "t": 25156.223166666667,
      "d": 413.6025000000009,
      "v": 102
    },
    {
      "midi": 41,
      "hit": false,
      "t": 25634.163833333336,
      "d": 753.6756666666661,
      "v": 102
    },
    {
      "midi": 68,
      "hit": false,
      "t": 26461.368833333352,
      "d": 1755.5128333333341,
      "v": 72
    },
    {
      "midi": 72,
      "hit": false,
      "t": 26470.56000000002,
      "d": 1323.5279999999984,
      "v": 82
    },
    {
      "midi": 52,
      "hit": false,
      "t": 26470.56000000002,
      "d": 1746.3216666666667,
      "v": 69
    },
    {
      "midi": 64,
      "hit": false,
      "t": 26470.56000000002,
      "d": 1746.3216666666667,
      "v": 74
    },
    {
      "midi": 40,
      "hit": false,
      "t": 26507.324666666667,
      "d": 312.4996666666666,
      "v": 110
    },
    {
      "midi": 38,
      "hit": false,
      "t": 26948.500666666667,
      "d": 303.3084999999992,
      "v": 91
    },
    {
      "midi": 36,
      "hit": false,
      "t": 27371.29433333333,
      "d": 312.4996666666666,
      "v": 110
    },
    {
      "midi": 35,
      "hit": false,
      "t": 27794.088,
      "d": 376.83783333333486,
      "v": 102
    },
    {
      "midi": 71,
      "hit": false,
      "t": 27803.279166666685,
      "d": 422.7936666666683,
      "v": 67
    },
    {
      "midi": 57,
      "hit": false,
      "t": 28216.881666666686,
      "d": 1709.5570000000007,
      "v": 96
    },
    {
      "midi": 60,
      "hit": false,
      "t": 28216.881666666686,
      "d": 1709.5570000000007,
      "v": 102
    },
    {
      "midi": 33,
      "hit": false,
      "t": 28226.072833333335,
      "d": 303.3084999999992,
      "v": 123
    },
    {
      "midi": 45,
      "hit": false,
      "t": 28226.072833333354,
      "d": 1746.3216666666667,
      "v": 79
    },
    {
      "midi": 36,
      "hit": false,
      "t": 29788.57116666667,
      "d": 183.82333333333372,
      "v": 96
    },
    {
      "midi": 29,
      "hit": false,
      "t": 29990.776833333337,
      "d": 238.97033333333457,
      "v": 96
    },
    {
      "midi": 53,
      "hit": false,
      "t": 29999.96800000002,
      "d": 1351.1015000000007,
      "v": 79
    },
    {
      "midi": 64,
      "hit": false,
      "t": 29999.96800000002,
      "d": 1360.292666666668,
      "v": 102
    },
    {
      "midi": 57,
      "hit": false,
      "t": 29999.96800000002,
      "d": 1369.4838333333355,
      "v": 86
    },
    {
      "midi": 60,
      "hit": false,
      "t": 29999.96800000002,
      "d": 1369.4838333333355,
      "v": 102
    },
    {
      "midi": 41,
      "hit": false,
      "t": 29999.96800000002,
      "d": 1755.5128333333341,
      "v": 67
    },
    {
      "midi": 36,
      "hit": false,
      "t": 30220.556000000004,
      "d": 202.20566666666855,
      "v": 106
    },
    {
      "midi": 41,
      "hit": false,
      "t": 30441.144000000008,
      "d": 211.39683333333232,
      "v": 102
    },
    {
      "midi": 36,
      "hit": false,
      "t": 30661.732000000007,
      "d": 211.39683333333232,
      "v": 102
    },
    {
      "midi": 29,
      "hit": false,
      "t": 30891.511166666674,
      "d": 257.35266666666575,
      "v": 106
    },
    {
      "midi": 57,
      "hit": false,
      "t": 31773.863166666688,
      "d": 1093.748833333335,
      "v": 102
    },
    {
      "midi": 60,
      "hit": false,
      "t": 31773.863166666688,
      "d": 1093.748833333335,
      "v": 96
    },
    {
      "midi": 62,
      "hit": false,
      "t": 31773.863166666688,
      "d": 1093.748833333335,
      "v": 91
    },
    {
      "midi": 38,
      "hit": false,
      "t": 31773.863166666688,
      "d": 1102.9399999999987,
      "v": 59
    },
    {
      "midi": 53,
      "hit": false,
      "t": 31773.863166666688,
      "d": 1102.9399999999987,
      "v": 79
    },
    {
      "midi": 38,
      "hit": false,
      "t": 31783.05433333334,
      "d": 257.35266666666575,
      "v": 106
    },
    {
      "midi": 38,
      "hit": false,
      "t": 33327.17033333334,
      "d": 202.20566666666855,
      "v": 106
    },
    {
      "midi": 40,
      "hit": false,
      "t": 33492.611333333356,
      "d": 1314.3368333333274,
      "v": 69
    },
    {
      "midi": 60,
      "hit": false,
      "t": 33501.80250000002,
      "d": 1084.5576666666675,
      "v": 96
    },
    {
      "midi": 52,
      "hit": false,
      "t": 33501.80250000002,
      "d": 1286.7633333333288,
      "v": 91
    },
    {
      "midi": 56,
      "hit": false,
      "t": 33501.80250000002,
      "d": 1314.3368333333274,
      "v": 91
    },
    {
      "midi": 40,
      "hit": false,
      "t": 33538.567166666675,
      "d": 211.39683333333232,
      "v": 123
    },
    {
      "midi": 59,
      "hit": false,
      "t": 34632.31600000002,
      "d": 183.82333333332645,
      "v": 96
    },
    {
      "midi": 36,
      "hit": false,
      "t": 34871.28633333334,
      "d": 395.22016666666605,
      "v": 114
    },
    {
      "midi": 57,
      "hit": false,
      "t": 35275.69766666668,
      "d": 1709.5569999999934,
      "v": 96
    },
    {
      "midi": 60,
      "hit": false,
      "t": 35275.69766666668,
      "d": 1709.5569999999934,
      "v": 102
    },
    {
      "midi": 33,
      "hit": false,
      "t": 35284.88883333334,
      "d": 303.3084999999992,
      "v": 123
    },
    {
      "midi": 45,
      "hit": false,
      "t": 35284.888833333345,
      "d": 1746.321666666663,
      "v": 79
    },
    {
      "midi": 36,
      "hit": false,
      "t": 36847.38716666667,
      "d": 183.82333333333372,
      "v": 96
    },
    {
      "midi": 29,
      "hit": false,
      "t": 37049.592833333336,
      "d": 238.97033333333093,
      "v": 96
    },
    {
      "midi": 53,
      "hit": false,
      "t": 37058.78400000001,
      "d": 1351.101499999997,
      "v": 79
    },
    {
      "midi": 64,
      "hit": false,
      "t": 37058.78400000001,
      "d": 1360.2926666666608,
      "v": 102
    },
    {
      "midi": 57,
      "hit": false,
      "t": 37058.78400000001,
      "d": 1369.4838333333246,
      "v": 86
    },
    {
      "midi": 60,
      "hit": false,
      "t": 37058.78400000001,
      "d": 1369.4838333333246,
      "v": 102
    },
    {
      "midi": 41,
      "hit": false,
      "t": 37058.78400000001,
      "d": 1755.5128333333269,
      "v": 67
    },
    {
      "midi": 36,
      "hit": false,
      "t": 37279.372,
      "d": 202.20566666666127,
      "v": 106
    },
    {
      "midi": 41,
      "hit": false,
      "t": 37499.96,
      "d": 211.39683333333232,
      "v": 102
    },
    {
      "midi": 36,
      "hit": false,
      "t": 37720.547999999995,
      "d": 211.39683333333232,
      "v": 102
    },
    {
      "midi": 29,
      "hit": false,
      "t": 37950.32716666666,
      "d": 257.35266666666575,
      "v": 106
    },
    {
      "midi": 57,
      "hit": false,
      "t": 38832.67916666666,
      "d": 1093.7488333333313,
      "v": 102
    },
    {
      "midi": 60,
      "hit": false,
      "t": 38832.67916666666,
      "d": 1093.7488333333313,
      "v": 96
    },
    {
      "midi": 62,
      "hit": false,
      "t": 38832.67916666666,
      "d": 1093.7488333333313,
      "v": 91
    },
    {
      "midi": 38,
      "hit": false,
      "t": 38832.67916666666,
      "d": 1102.939999999995,
      "v": 59
    },
    {
      "midi": 53,
      "hit": false,
      "t": 38832.67916666666,
      "d": 1102.939999999995,
      "v": 79
    },
    {
      "midi": 38,
      "hit": false,
      "t": 38841.870333333325,
      "d": 257.35266666666575,
      "v": 106
    },
    {
      "midi": 38,
      "hit": false,
      "t": 40385.98633333333,
      "d": 202.20566666666855,
      "v": 106
    },
    {
      "midi": 40,
      "hit": false,
      "t": 40551.427333333326,
      "d": 1314.3368333333274,
      "v": 69
    },
    {
      "midi": 60,
      "hit": false,
      "t": 40560.61849999999,
      "d": 1084.5576666666675,
      "v": 96
    },
    {
      "midi": 52,
      "hit": false,
      "t": 40560.61849999999,
      "d": 1286.7633333333288,
      "v": 91
    },
    {
      "midi": 56,
      "hit": false,
      "t": 40560.61849999999,
      "d": 1314.3368333333274,
      "v": 91
    },
    {
      "midi": 40,
      "hit": false,
      "t": 40597.38316666666,
      "d": 211.39683333333232,
      "v": 123
    },
    {
      "midi": 59,
      "hit": false,
      "t": 41691.13199999999,
      "d": 183.82333333332645,
      "v": 96
    },
    {
      "midi": 36,
      "hit": false,
      "t": 41930.10233333332,
      "d": 395.22016666666605,
      "v": 114
    },
    {
      "midi": 57,
      "hit": false,
      "t": 42334.51366666665,
      "d": 1709.5570000000007,
      "v": 96
    },
    {
      "midi": 60,
      "hit": false,
      "t": 42334.51366666665,
      "d": 1709.5570000000007,
      "v": 102
    },
    {
      "midi": 33,
      "hit": false,
      "t": 42343.70483333332,
      "d": 303.3084999999992,
      "v": 123
    },
    {
      "midi": 36,
      "hit": false,
      "t": 43906.20316666665,
      "d": 183.82333333333372,
      "v": 96
    },
    {
      "midi": 29,
      "hit": false,
      "t": 44108.40883333332,
      "d": 238.97033333333093,
      "v": 96
    },
    {
      "midi": 53,
      "hit": false,
      "t": 44117.599999999984,
      "d": 1351.101499999997,
      "v": 79
    },
    {
      "midi": 64,
      "hit": false,
      "t": 44117.599999999984,
      "d": 1360.2926666666608,
      "v": 102
    },
    {
      "midi": 57,
      "hit": false,
      "t": 44117.599999999984,
      "d": 1369.4838333333246,
      "v": 86
    },
    {
      "midi": 60,
      "hit": false,
      "t": 44117.599999999984,
      "d": 1369.4838333333246,
      "v": 102
    },
    {
      "midi": 36,
      "hit": false,
      "t": 44338.18799999999,
      "d": 202.20566666666127,
      "v": 106
    },
    {
      "midi": 41,
      "hit": false,
      "t": 44558.77599999998,
      "d": 211.39683333333232,
      "v": 102
    },
    {
      "midi": 36,
      "hit": false,
      "t": 44779.36399999998,
      "d": 211.39683333333232,
      "v": 102
    },
    {
      "midi": 29,
      "hit": false,
      "t": 45009.14316666665,
      "d": 257.35266666666575,
      "v": 106
    },
    {
      "midi": 57,
      "hit": false,
      "t": 45891.49516666664,
      "d": 1093.7488333333313,
      "v": 102
    },
    {
      "midi": 60,
      "hit": false,
      "t": 45891.49516666664,
      "d": 1093.7488333333313,
      "v": 96
    },
    {
      "midi": 62,
      "hit": false,
      "t": 45891.49516666664,
      "d": 1093.7488333333313,
      "v": 91
    },
    {
      "midi": 53,
      "hit": false,
      "t": 45891.49516666664,
      "d": 1102.939999999995,
      "v": 79
    },
    {
      "midi": 38,
      "hit": false,
      "t": 45900.68633333331,
      "d": 257.35266666666575,
      "v": 106
    },
    {
      "midi": 38,
      "hit": false,
      "t": 47444.80233333331,
      "d": 202.20566666666855,
      "v": 106
    },
    {
      "midi": 60,
      "hit": false,
      "t": 47619.43449999997,
      "d": 1084.5576666666675,
      "v": 96
    },
    {
      "midi": 52,
      "hit": false,
      "t": 47619.43449999997,
      "d": 1286.7633333333288,
      "v": 91
    },
    {
      "midi": 56,
      "hit": false,
      "t": 47619.43449999997,
      "d": 1314.3368333333274,
      "v": 91
    },
    {
      "midi": 40,
      "hit": false,
      "t": 47656.19916666664,
      "d": 211.39683333333232,
      "v": 123
    },
    {
      "midi": 59,
      "hit": false,
      "t": 48749.94799999997,
      "d": 183.82333333332645,
      "v": 96
    },
    {
      "midi": 36,
      "hit": false,
      "t": 48988.918333333306,
      "d": 395.22016666666605,
      "v": 114
    },
    {
      "midi": 57,
      "hit": false,
      "t": 49393.32966666663,
      "d": 1709.5570000000007,
      "v": 96
    },
    {
      "midi": 60,
      "hit": false,
      "t": 49393.32966666663,
      "d": 1709.5570000000007,
      "v": 102
    },
    {
      "midi": 33,
      "hit": false,
      "t": 49402.52083333331,
      "d": 303.3084999999992,
      "v": 123
    },
    {
      "midi": 36,
      "hit": false,
      "t": 50965.019166666636,
      "d": 183.82333333333372,
      "v": 96
    },
    {
      "midi": 29,
      "hit": false,
      "t": 51167.224833333305,
      "d": 238.97033333333093,
      "v": 96
    },
    {
      "midi": 53,
      "hit": false,
      "t": 51176.41599999996,
      "d": 1351.101499999997,
      "v": 79
    },
    {
      "midi": 64,
      "hit": false,
      "t": 51176.41599999996,
      "d": 1360.2926666666608,
      "v": 102
    },
    {
      "midi": 57,
      "hit": false,
      "t": 51176.41599999996,
      "d": 1369.4838333333246,
      "v": 86
    },
    {
      "midi": 60,
      "hit": false,
      "t": 51176.41599999996,
      "d": 1369.4838333333246,
      "v": 102
    },
    {
      "midi": 36,
      "hit": false,
      "t": 51397.00399999997,
      "d": 202.20566666666127,
      "v": 106
    },
    {
      "midi": 41,
      "hit": false,
      "t": 51617.59199999997,
      "d": 211.39683333333232,
      "v": 102
    },
    {
      "midi": 36,
      "hit": false,
      "t": 51838.179999999964,
      "d": 211.39683333333232,
      "v": 102
    },
    {
      "midi": 29,
      "hit": false,
      "t": 52067.95916666663,
      "d": 257.35266666666575,
      "v": 106
    },
    {
      "midi": 57,
      "hit": false,
      "t": 52950.311166666615,
      "d": 1093.7488333333313,
      "v": 102
    },
    {
      "midi": 60,
      "hit": false,
      "t": 52950.311166666615,
      "d": 1093.7488333333313,
      "v": 96
    },
    {
      "midi": 62,
      "hit": false,
      "t": 52950.311166666615,
      "d": 1093.7488333333313,
      "v": 91
    },
    {
      "midi": 53,
      "hit": false,
      "t": 52950.311166666615,
      "d": 1102.939999999995,
      "v": 79
    },
    {
      "midi": 38,
      "hit": false,
      "t": 52959.502333333294,
      "d": 257.35266666666575,
      "v": 106
    },
    {
      "midi": 38,
      "hit": false,
      "t": 54503.618333333296,
      "d": 202.20566666666855,
      "v": 106
    },
    {
      "midi": 40,
      "hit": false,
      "t": 54669.05933333328,
      "d": 1314.3368333333274,
      "v": 69
    },
    {
      "midi": 60,
      "hit": false,
      "t": 54678.250499999944,
      "d": 1084.5576666666675,
      "v": 96
    },
    {
      "midi": 52,
      "hit": false,
      "t": 54678.250499999944,
      "d": 1286.7633333333288,
      "v": 91
    },
    {
      "midi": 56,
      "hit": false,
      "t": 54678.250499999944,
      "d": 1314.3368333333274,
      "v": 91
    },
    {
      "midi": 40,
      "hit": false,
      "t": 54715.01516666663,
      "d": 211.39683333333232,
      "v": 123
    },
    {
      "midi": 59,
      "hit": false,
      "t": 55808.763999999945,
      "d": 183.82333333332645,
      "v": 96
    },
    {
      "midi": 36,
      "hit": false,
      "t": 56047.73433333329,
      "d": 395.22016666666605,
      "v": 114
    },
    {
      "midi": 57,
      "hit": false,
      "t": 56452.145666666605,
      "d": 1709.5570000000007,
      "v": 96
    },
    {
      "midi": 60,
      "hit": false,
      "t": 56452.145666666605,
      "d": 1709.5570000000007,
      "v": 102
    },
    {
      "midi": 45,
      "hit": false,
      "t": 56461.33683333327,
      "d": 1746.3216666666704,
      "v": 79
    },
    {
      "midi": 33,
      "hit": false,
      "t": 56461.33683333329,
      "d": 303.3084999999992,
      "v": 123
    },
    {
      "midi": 36,
      "hit": false,
      "t": 58023.83516666662,
      "d": 183.82333333333372,
      "v": 96
    },
    {
      "midi": 29,
      "hit": false,
      "t": 58226.04083333329,
      "d": 238.97033333333093,
      "v": 96
    },
    {
      "midi": 53,
      "hit": false,
      "t": 58235.23199999994,
      "d": 1351.101499999997,
      "v": 79
    },
    {
      "midi": 64,
      "hit": false,
      "t": 58235.23199999994,
      "d": 1360.2926666666608,
      "v": 102
    },
    {
      "midi": 57,
      "hit": false,
      "t": 58235.23199999994,
      "d": 1369.4838333333246,
      "v": 86
    },
    {
      "midi": 60,
      "hit": false,
      "t": 58235.23199999994,
      "d": 1369.4838333333246,
      "v": 102
    },
    {
      "midi": 41,
      "hit": false,
      "t": 58235.23199999994,
      "d": 1755.5128333333269,
      "v": 67
    },
    {
      "midi": 36,
      "hit": false,
      "t": 58455.819999999956,
      "d": 202.20566666666127,
      "v": 106
    },
    {
      "midi": 41,
      "hit": false,
      "t": 58676.40799999995,
      "d": 211.39683333333232,
      "v": 102
    },
    {
      "midi": 36,
      "hit": false,
      "t": 58896.99599999995,
      "d": 211.39683333333232,
      "v": 102
    },
    {
      "midi": 29,
      "hit": false,
      "t": 59126.775166666615,
      "d": 257.35266666666575,
      "v": 106
    },
    {
      "midi": 57,
      "hit": false,
      "t": 60009.12716666659,
      "d": 1093.7488333333313,
      "v": 102
    },
    {
      "midi": 60,
      "hit": false,
      "t": 60009.12716666659,
      "d": 1093.7488333333313,
      "v": 96
    },
    {
      "midi": 62,
      "hit": false,
      "t": 60009.12716666659,
      "d": 1093.7488333333313,
      "v": 91
    },
    {
      "midi": 53,
      "hit": false,
      "t": 60009.12716666659,
      "d": 1102.939999999995,
      "v": 79
    },
    {
      "midi": 38,
      "hit": false,
      "t": 60018.31833333328,
      "d": 257.35266666666575,
      "v": 106
    },
    {
      "midi": 38,
      "hit": false,
      "t": 61562.43433333328,
      "d": 202.20566666666855,
      "v": 106
    },
    {
      "midi": 40,
      "hit": false,
      "t": 61727.87533333326,
      "d": 1314.3368333333274,
      "v": 69
    },
    {
      "midi": 60,
      "hit": false,
      "t": 61737.06649999992,
      "d": 1084.5576666666675,
      "v": 96
    },
    {
      "midi": 52,
      "hit": false,
      "t": 61737.06649999992,
      "d": 1286.7633333333288,
      "v": 91
    },
    {
      "midi": 56,
      "hit": false,
      "t": 61737.06649999992,
      "d": 1314.3368333333274,
      "v": 91
    },
    {
      "midi": 40,
      "hit": false,
      "t": 61773.83116666661,
      "d": 211.39683333333232,
      "v": 123
    },
    {
      "midi": 59,
      "hit": false,
      "t": 62867.57999999992,
      "d": 183.82333333332645,
      "v": 96
    },
    {
      "midi": 36,
      "hit": false,
      "t": 63106.550333333274,
      "d": 395.22016666666605,
      "v": 114
    },
    {
      "midi": 57,
      "hit": false,
      "t": 63510.96166666658,
      "d": 1709.5570000000007,
      "v": 96
    },
    {
      "midi": 60,
      "hit": false,
      "t": 63510.96166666658,
      "d": 1709.5570000000007,
      "v": 102
    },
    {
      "midi": 33,
      "hit": false,
      "t": 63520.152833333275,
      "d": 303.3084999999992,
      "v": 123
    },
    {
      "midi": 36,
      "hit": false,
      "t": 65082.651166666605,
      "d": 183.82333333333372,
      "v": 96
    },
    {
      "midi": 29,
      "hit": false,
      "t": 65284.85683333327,
      "d": 238.97033333333093,
      "v": 96
    },
    {
      "midi": 53,
      "hit": false,
      "t": 65294.047999999915,
      "d": 1351.101499999997,
      "v": 79
    },
    {
      "midi": 64,
      "hit": false,
      "t": 65294.047999999915,
      "d": 1360.292666666668,
      "v": 102
    },
    {
      "midi": 57,
      "hit": false,
      "t": 65294.047999999915,
      "d": 1369.4838333333391,
      "v": 86
    },
    {
      "midi": 60,
      "hit": false,
      "t": 65294.047999999915,
      "d": 1369.4838333333391,
      "v": 102
    },
    {
      "midi": 36,
      "hit": false,
      "t": 65514.63599999994,
      "d": 202.20566666666127,
      "v": 106
    },
    {
      "midi": 41,
      "hit": false,
      "t": 65735.22399999993,
      "d": 211.39683333333232,
      "v": 102
    },
    {
      "midi": 36,
      "hit": false,
      "t": 65955.81199999993,
      "d": 211.39683333333232,
      "v": 102
    },
    {
      "midi": 29,
      "hit": false,
      "t": 66185.59116666659,
      "d": 257.35266666667303,
      "v": 106
    },
    {
      "midi": 57,
      "hit": false,
      "t": 67067.94316666659,
      "d": 1093.7488333333458,
      "v": 102
    },
    {
      "midi": 60,
      "hit": false,
      "t": 67067.94316666659,
      "d": 1093.7488333333458,
      "v": 96
    },
    {
      "midi": 62,
      "hit": false,
      "t": 67067.94316666659,
      "d": 1093.7488333333458,
      "v": 91
    },
    {
      "midi": 53,
      "hit": false,
      "t": 67067.94316666659,
      "d": 1102.9400000000169,
      "v": 79
    },
    {
      "midi": 38,
      "hit": false,
      "t": 67077.13433333326,
      "d": 257.35266666667303,
      "v": 106
    },
    {
      "midi": 38,
      "hit": false,
      "t": 68621.25033333327,
      "d": 202.20566666666127,
      "v": 106
    },
    {
      "midi": 60,
      "hit": false,
      "t": 68795.88249999995,
      "d": 1084.5576666666602,
      "v": 96
    },
    {
      "midi": 52,
      "hit": false,
      "t": 68795.88249999995,
      "d": 1286.7633333333215,
      "v": 91
    },
    {
      "midi": 56,
      "hit": false,
      "t": 68795.88249999995,
      "d": 1314.33683333332,
      "v": 91
    },
    {
      "midi": 40,
      "hit": false,
      "t": 68832.6471666666,
      "d": 211.39683333333232,
      "v": 123
    },
    {
      "midi": 59,
      "hit": false,
      "t": 69926.39599999994,
      "d": 183.82333333333372,
      "v": 96
    },
    {
      "midi": 36,
      "hit": false,
      "t": 70165.36633333327,
      "d": 395.22016666666605,
      "v": 114
    },
    {
      "midi": 57,
      "hit": false,
      "t": 70569.7776666666,
      "d": 1709.5570000000007,
      "v": 96
    },
    {
      "midi": 60,
      "hit": false,
      "t": 70569.7776666666,
      "d": 1709.5570000000007,
      "v": 102
    },
    {
      "midi": 33,
      "hit": false,
      "t": 70578.96883333326,
      "d": 303.3084999999992,
      "v": 123
    },
    {
      "midi": 36,
      "hit": false,
      "t": 72141.4671666666,
      "d": 183.82333333333372,
      "v": 96
    },
    {
      "midi": 29,
      "hit": false,
      "t": 72343.67283333326,
      "d": 238.97033333333093,
      "v": 96
    },
    {
      "midi": 53,
      "hit": false,
      "t": 72352.86399999994,
      "d": 1351.1015000000043,
      "v": 79
    },
    {
      "midi": 64,
      "hit": false,
      "t": 72352.86399999994,
      "d": 1360.2926666666754,
      "v": 102
    },
    {
      "midi": 57,
      "hit": false,
      "t": 72352.86399999994,
      "d": 1369.4838333333464,
      "v": 86
    },
    {
      "midi": 60,
      "hit": false,
      "t": 72352.86399999994,
      "d": 1369.4838333333464,
      "v": 102
    },
    {
      "midi": 36,
      "hit": false,
      "t": 72573.45199999992,
      "d": 202.20566666667582,
      "v": 106
    },
    {
      "midi": 41,
      "hit": false,
      "t": 72794.03999999992,
      "d": 211.39683333333232,
      "v": 102
    },
    {
      "midi": 36,
      "hit": false,
      "t": 73014.62799999992,
      "d": 211.39683333333232,
      "v": 102
    },
    {
      "midi": 29,
      "hit": false,
      "t": 73244.40716666658,
      "d": 257.35266666667303,
      "v": 106
    }
  ]
}