{
  "jsonPath": "Soundtracks/Video Game Music/Kirby 64/kirby-64-finalbattle.json",
  "path": "Soundtracks\\Video Game Music\\Kirby 64\\Kirby_64_FinalBattle.mid",
  "name": "Kirby_64_FinalBattle",
  "difficulty": "Advanced",
  "bpm": 250,
  "notes": [
    {
      "midi": 33,
      "hit": false,
      "t": 2.34375,
      "d": 131.953125,
      "v": 54
    },
    {
      "midi": 52,
      "hit": false,
      "t": 2.34375,
      "d": 2877.421875,
      "v": 56
    },
    {
      "midi": 57,
      "hit": false,
      "t": 2.34375,
      "d": 2877.421875,
      "v": 66
    },
    {
      "midi": 40,
      "hit": false,
      "t": 127.5,
      "d": 125.390625,
      "v": 51
    },
    {
      "midi": 45,
      "hit": false,
      "t": 246.09375,
      "d": 126.09375,
      "v": 53
    },
    {
      "midi": 40,
      "hit": false,
      "t": 365.390625,
      "d": 125.625,
      "v": 51
    },
    {
      "midi": 45,
      "hit": false,
      "t": 484.21875,
      "d": 124.21875,
      "v": 55
    },
    {
      "midi": 40,
      "hit": false,
      "t": 601.640625,
      "d": 125.15625,
      "v": 51
    },
    {
      "midi": 33,
      "hit": false,
      "t": 720.9375,
      "d": 133.359375,
      "v": 54
    },
    {
      "midi": 40,
      "hit": false,
      "t": 847.5,
      "d": 125.390625,
      "v": 51
    },
    {
      "midi": 45,
      "hit": false,
      "t": 966.09375,
      "d": 126.09375,
      "v": 53
    },
    {
      "midi": 40,
      "hit": false,
      "t": 1085.390625,
      "d": 125.625,
      "v": 51
    },
    {
      "midi": 45,
      "hit": false,
      "t": 1204.21875,
      "d": 124.21875,
      "v": 55
    },
    {
      "midi": 40,
      "hit": false,
      "t": 1321.640625,
      "d": 125.15625,
      "v": 51
    },
    {
      "midi": 33,
      "hit": false,
      "t": 1440.9375,
      "d": 133.359375,
      "v": 54
    },
    {
      "midi": 40,
      "hit": false,
      "t": 1567.5,
      "d": 125.390625,
      "v": 51
    },
    {
      "midi": 45,
      "hit": false,
      "t": 1686.09375,
      "d": 126.09375,
      "v": 53
    },
    {
      "midi": 40,
      "hit": false,
      "t": 1805.390625,
      "d": 125.625,
      "v": 51
    },
    {
      "midi": 45,
      "hit": false,
      "t": 1924.21875,
      "d": 124.21875,
      "v": 55
    },
    {
      "midi": 40,
      "hit": false,
      "t": 2041.640625,
      "d": 125.15625,
      "v": 51
    },
    {
      "midi": 33,
      "hit": false,
      "t": 2160.9375,
      "d": 133.359375,
      "v": 54
    },
    {
      "midi": 40,
      "hit": false,
      "t": 2287.5,
      "d": 125.390625,
      "v": 51
    },
    {
      "midi": 45,
      "hit": false,
      "t": 2406.09375,
      "d": 126.09375,
      "v": 53
    },
    {
      "midi": 40,
      "hit": false,
      "t": 2525.390625,
      "d": 125.625,
      "v": 51
    },
    {
      "midi": 45,
      "hit": false,
      "t": 2644.21875,
      "d": 124.21875,
      "v": 55
    },
    {
      "midi": 40,
      "hit": false,
      "t": 2761.640625,
      "d": 125.15625,
      "v": 51
    },
    {
      "midi": 36,
      "hit": false,
      "t": 2880.9375,
      "d": 133.359375,
      "v": 55
    },
    {
      "midi": 52,
      "hit": false,
      "t": 2880.9375,
      "d": 2878.828125,
      "v": 56
    },
    {
      "midi": 60,
      "hit": false,
      "t": 2880.9375,
      "d": 2878.828125,
      "v": 70
    },
    {
      "midi": 45,
      "hit": false,
      "t": 3007.5,
      "d": 125.390625,
      "v": 52
    },
    {
      "midi": 48,
      "hit": false,
      "t": 3126.09375,
      "d": 126.09375,
      "v": 53
    },
    {
      "midi": 45,
      "hit": false,
      "t": 3245.390625,
      "d": 125.625,
      "v": 52
    },
    {
      "midi": 48,
      "hit": false,
      "t": 3364.21875,
      "d": 124.21875,
      "v": 55
    },
    {
      "midi": 45,
      "hit": false,
      "t": 3481.640625,
      "d": 125.15625,
      "v": 52
    },
    {
      "midi": 36,
      "hit": false,
      "t": 3600.9375,
      "d": 133.359375,
      "v": 55
    },
    {
      "midi": 45,
      "hit": false,
      "t": 3727.5,
      "d": 125.390625,
      "v": 52
    },
    {
      "midi": 48,
      "hit": false,
      "t": 3846.09375,
      "d": 126.09375,
      "v": 53
    },
    {
      "midi": 45,
      "hit": false,
      "t": 3965.390625,
      "d": 125.625,
      "v": 52
    },
    {
      "midi": 48,
      "hit": false,
      "t": 4084.21875,
      "d": 124.21875,
      "v": 55
    },
    {
      "midi": 45,
      "hit": false,
      "t": 4201.640625,
      "d": 125.15625,
      "v": 52
    },
    {
      "midi": 36,
      "hit": false,
      "t": 4320.9375,
      "d": 133.359375,
      "v": 55
    },
    {
      "midi": 45,
      "hit": false,
      "t": 4447.5,
      "d": 125.390625,
      "v": 52
    },
    {
      "midi": 48,
      "hit": false,
      "t": 4566.09375,
      "d": 126.09375,
      "v": 53
    },
    {
      "midi": 45,
      "hit": false,
      "t": 4685.390625,
      "d": 125.625,
      "v": 52
    },
    {
      "midi": 48,
      "hit": false,
      "t": 4804.21875,
      "d": 124.21875,
      "v": 55
    },
    {
      "midi": 45,
      "hit": false,
      "t": 4921.640625,
      "d": 125.15625,
      "v": 52
    },
    {
      "midi": 36,
      "hit": false,
      "t": 5040.9375,
      "d": 133.359375,
      "v": 55
    },
    {
      "midi": 45,
      "hit": false,
      "t": 5167.5,
      "d": 125.390625,
      "v": 52
    },
    {
      "midi": 48,
      "hit": false,
      "t": 5286.09375,
      "d": 126.09375,
      "v": 53
    },
    {
      "midi": 45,
      "hit": false,
      "t": 5405.390625,
      "d": 125.625,
      "v": 52
    },
    {
      "midi": 48,
      "hit": false,
      "t": 5524.21875,
      "d": 124.21875,
      "v": 55
    },
    {
      "midi": 45,
      "hit": false,
      "t": 5641.640625,
      "d": 125.15625,
      "v": 52
    },
    {
      "midi": 29,
      "hit": false,
      "t": 5760.9375,
      "d": 133.359375,
      "v": 53
    },
    {
      "midi": 50,
      "hit": false,
      "t": 5760.9375,
      "d": 2878.828125,
      "v": 56
    },
    {
      "midi": 57,
      "hit": false,
      "t": 5760.9375,
      "d": 2878.828125,
      "v": 70
    },
    {
      "midi": 36,
      "hit": false,
      "t": 5887.5,
      "d": 125.390625,
      "v": 50
    },
    {
      "midi": 41,
      "hit": false,
      "t": 6006.09375,
      "d": 126.09375,
      "v": 53
    },
    {
      "midi": 36,
      "hit": false,
      "t": 6125.390625,
      "d": 125.625,
      "v": 50
    },
    {
      "midi": 41,
      "hit": false,
      "t": 6244.21875,
      "d": 124.21875,
      "v": 55
    },
    {
      "midi": 36,
      "hit": false,
      "t": 6361.640625,
      "d": 125.15625,
      "v": 50
    },
    {
      "midi": 29,
      "hit": false,
      "t": 6480.9375,
      "d": 133.359375,
      "v": 53
    },
    {
      "midi": 36,
      "hit": false,
      "t": 6607.5,
      "d": 125.390625,
      "v": 50
    },
    {
      "midi": 41,
      "hit": false,
      "t": 6726.09375,
      "d": 126.09375,
      "v": 53
    },
    {
      "midi": 36,
      "hit": false,
      "t": 6845.390625,
      "d": 125.625,
      "v": 50
    },
    {
      "midi": 41,
      "hit": false,
      "t": 6964.21875,
      "d": 124.21875,
      "v": 55
    },
    {
      "midi": 36,
      "hit": false,
      "t": 7081.640625,
      "d": 125.15625,
      "v": 50
    },
    {
      "midi": 29,
      "hit": false,
      "t": 7200.9375,
      "d": 133.359375,
      "v": 53
    },
    {
      "midi": 36,
      "hit": false,
      "t": 7327.5,
      "d": 125.390625,
      "v": 50
    },
    {
      "midi": 41,
      "hit": false,
      "t": 7446.09375,
      "d": 126.09375,
      "v": 53
    },
    {
      "midi": 36,
      "hit": false,
      "t": 7565.390625,
      "d": 125.625,
      "v": 50
    },
    {
      "midi": 41,
      "hit": false,
      "t": 7684.21875,
      "d": 124.21875,
      "v": 55
    },
    {
      "midi": 36,
      "hit": false,
      "t": 7801.640625,
      "d": 125.15625,
      "v": 50
    },
    {
      "midi": 29,
      "hit": false,
      "t": 7920.9375,
      "d": 133.359375,
      "v": 53
    },
    {
      "midi": 36,
      "hit": false,
      "t": 8047.5,
      "d": 125.390625,
      "v": 50
    },
    {
      "midi": 41,
      "hit": false,
      "t": 8166.09375,
      "d": 126.09375,
      "v": 53
    },
    {
      "midi": 36,
      "hit": false,
      "t": 8285.390625,
      "d": 125.625,
      "v": 50
    },
    {
      "midi": 41,
      "hit": false,
      "t": 8404.21875,
      "d": 124.21875,
      "v": 55
    },
    {
      "midi": 36,
      "hit": false,
      "t": 8521.640625,
      "d": 125.15625,
      "v": 50
    },
    {
      "midi": 31,
      "hit": false,
      "t": 8640.9375,
      "d": 133.359375,
      "v": 54
    },
    {
      "midi": 53,
      "hit": false,
      "t": 8640.9375,
      "d": 2158.828125,
      "v": 67
    },
    {
      "midi": 57,
      "hit": false,
      "t": 8640.9375,
      "d": 2158.828125,
      "v": 62
    },
    {
      "midi": 38,
      "hit": false,
      "t": 8767.5,
      "d": 125.390625,
      "v": 51
    },
    {
      "midi": 41,
      "hit": false,
      "t": 8886.09375,
      "d": 126.09375,
      "v": 53
    },
    {
      "midi": 38,
      "hit": false,
      "t": 9005.390625,
      "d": 125.625,
      "v": 51
    },
    {
      "midi": 41,
      "hit": false,
      "t": 9124.21875,
      "d": 124.21875,
      "v": 55
    },
    {
      "midi": 38,
      "hit": false,
      "t": 9241.640625,
      "d": 125.15625,
      "v": 51
    },
    {
      "midi": 31,
      "hit": false,
      "t": 9360.9375,
      "d": 133.359375,
      "v": 54
    },
    {
      "midi": 38,
      "hit": false,
      "t": 9487.5,
      "d": 125.390625,
      "v": 51
    },
    {
      "midi": 41,
      "hit": false,
      "t": 9606.09375,
      "d": 126.09375,
      "v": 53
    },
    {
      "midi": 38,
      "hit": false,
      "t": 9725.390625,
      "d": 125.625,
      "v": 51
    },
    {
      "midi": 41,
      "hit": false,
      "t": 9844.21875,
      "d": 124.21875,
      "v": 55
    },
    {
      "midi": 38,
      "hit": false,
      "t": 9961.640625,
      "d": 125.15625,
      "v": 51
    },
    {
      "midi": 31,
      "hit": false,
      "t": 10080.9375,
      "d": 133.359375,
      "v": 54
    },
    {
      "midi": 38,
      "hit": false,
      "t": 10207.5,
      "d": 125.390625,
      "v": 51
    },
    {
      "midi": 41,
      "hit": false,
      "t": 10326.09375,
      "d": 126.09375,
      "v": 53
    },
    {
      "midi": 38,
      "hit": false,
      "t": 10445.390625,
      "d": 125.625,
      "v": 51
    },
    {
      "midi": 41,
      "hit": false,
      "t": 10564.21875,
      "d": 124.21875,
      "v": 55
    },
    {
      "midi": 38,
      "hit": false,
      "t": 10681.640625,
      "d": 125.15625,
      "v": 51
    },
    {
      "midi": 31,
      "hit": false,
      "t": 10800.9375,
      "d": 133.359375,
      "v": 54
    },
    {
      "midi": 53,
      "hit": false,
      "t": 10800.9375,
      "d": 718.828125,
      "v": 56
    },
    {
      "midi": 59,
      "hit": false,
      "t": 10800.9375,
      "d": 718.828125,
      "v": 70
    },
    {
      "midi": 38,
      "hit": false,
      "t": 10927.5,
      "d": 125.390625,
      "v": 51
    },
    {
      "midi": 41,
      "hit": false,
      "t": 11046.09375,
      "d": 126.09375,
      "v": 53
    },
    {
      "midi": 38,
      "hit": false,
      "t": 11165.390625,
      "d": 125.625,
      "v": 51
    },
    {
      "midi": 41,
      "hit": false,
      "t": 11284.21875,
      "d": 124.21875,
      "v": 55
    },
    {
      "midi": 38,
      "hit": false,
      "t": 11401.640625,
      "d": 125.15625,
      "v": 51
    },
    {
      "midi": 33,
      "hit": false,
      "t": 11520.9375,
      "d": 133.359375,
      "v": 54
    },
    {
      "midi": 52,
      "hit": false,
      "t": 11520.9375,
      "d": 2878.828125,
      "v": 56
    },
    {
      "midi": 57,
      "hit": false,
      "t": 11520.9375,
      "d": 2878.828125,
      "v": 70
    },
    {
      "midi": 40,
      "hit": false,
      "t": 11647.5,
      "d": 125.390625,
      "v": 51
    },
    {
      "midi": 45,
      "hit": false,
      "t": 11766.09375,
      "d": 126.09375,
      "v": 53
    },
    {
      "midi": 40,
      "hit": false,
      "t": 11885.390625,
      "d": 125.625,
      "v": 51
    },
    {
      "midi": 45,
      "hit": false,
      "t": 12004.21875,
      "d": 124.21875,
      "v": 55
    },
    {
      "midi": 40,
      "hit": false,
      "t": 12121.640625,
      "d": 125.15625,
      "v": 51
    },
    {
      "midi": 33,
      "hit": false,
      "t": 12240.9375,
      "d": 133.359375,
      "v": 54
    },
    {
      "midi": 40,
      "hit": false,
      "t": 12367.5,
      "d": 125.390625,
      "v": 51
    },
    {
      "midi": 45,
      "hit": false,
      "t": 12486.09375,
      "d": 126.09375,
      "v": 53
    },
    {
      "midi": 40,
      "hit": false,
      "t": 12605.390625,
      "d": 125.625,
      "v": 51
    },
    {
      "midi": 45,
      "hit": false,
      "t": 12724.21875,
      "d": 124.21875,
      "v": 55
    },
    {
      "midi": 40,
      "hit": false,
      "t": 12841.640625,
      "d": 125.15625,
      "v": 51
    },
    {
      "midi": 33,
      "hit": false,
      "t": 12960.9375,
      "d": 133.359375,
      "v": 54
    },
    {
      "midi": 40,
      "hit": false,
      "t": 13087.5,
      "d": 125.390625,
      "v": 51
    },
    {
      "midi": 45,
      "hit": false,
      "t": 13206.09375,
      "d": 126.09375,
      "v": 53
    },
    {
      "midi": 40,
      "hit": false,
      "t": 13325.390625,
      "d": 125.625,
      "v": 51
    },
    {
      "midi": 45,
      "hit": false,
      "t": 13444.21875,
      "d": 124.21875,
      "v": 55
    },
    {
      "midi": 40,
      "hit": false,
      "t": 13561.640625,
      "d": 125.15625,
      "v": 51
    },
    {
      "midi": 33,
      "hit": false,
      "t": 13680.9375,
      "d": 133.359375,
      "v": 54
    },
    {
      "midi": 40,
      "hit": false,
      "t": 13807.5,
      "d": 125.390625,
      "v": 51
    },
    {
      "midi": 45,
      "hit": false,
      "t": 13926.09375,
      "d": 126.09375,
      "v": 53
    },
    {
      "midi": 40,
      "hit": false,
      "t": 14045.390625,
      "d": 125.625,
      "v": 51
    },
    {
      "midi": 45,
      "hit": false,
      "t": 14164.21875,
      "d": 124.21875,
      "v": 55
    },
    {
      "midi": 40,
      "hit": false,
      "t": 14281.640625,
      "d": 125.15625,
      "v": 51
    },
    {
      "midi": 36,
      "hit": false,
      "t": 14400.9375,
      "d": 133.359375,
      "v": 55
    },
    {
      "midi": 52,
      "hit": false,
      "t": 14400.9375,
      "d": 2878.828125,
      "v": 56
    },
    {
      "midi": 55,
      "hit": false,
      "t": 14400.9375,
      "d": 2878.828125,
      "v": 56
    },
    {
      "midi": 60,
      "hit": false,
      "t": 14400.9375,
      "d": 2878.828125,
      "v": 70
    },
    {
      "midi": 45,
      "hit": false,
      "t": 14527.5,
      "d": 125.390625,
      "v": 52
    },
    {
      "midi": 48,
      "hit": false,
      "t": 14646.09375,
      "d": 126.09375,
      "v": 53
    },
    {
      "midi": 45,
      "hit": false,
      "t": 14765.390625,
      "d": 125.625,
      "v": 52
    },
    {
      "midi": 48,
      "hit": false,
      "t": 14884.21875,
      "d": 124.21875,
      "v": 55
    },
    {
      "midi": 45,
      "hit": false,
      "t": 15001.640625,
      "d": 125.15625,
      "v": 52
    },
    {
      "midi": 36,
      "hit": false,
      "t": 15120.9375,
      "d": 133.359375,
      "v": 55
    },
    {
      "midi": 45,
      "hit": false,
      "t": 15247.5,
      "d": 125.390625,
      "v": 52
    },
    {
      "midi": 48,
      "hit": false,
      "t": 15366.09375,
      "d": 126.09375,
      "v": 53
    },
    {
      "midi": 45,
      "hit": false,
      "t": 15485.390625,
      "d": 125.625,
      "v": 52
    },
    {
      "midi": 48,
      "hit": false,
      "t": 15604.21875,
      "d": 124.21875,
      "v": 55
    },
    {
      "midi": 45,
      "hit": false,
      "t": 15721.640625,
      "d": 125.15625,
      "v": 52
    },
    {
      "midi": 36,
      "hit": false,
      "t": 15840.9375,
      "d": 133.359375,
      "v": 55
    },
    {
      "midi": 45,
      "hit": false,
      "t": 15967.5,
      "d": 125.390625,
      "v": 52
    },
    {
      "midi": 48,
      "hit": false,
      "t": 16086.09375,
      "d": 126.09375,
      "v": 53
    },
    {
      "midi": 45,
      "hit": false,
      "t": 16205.390625,
      "d": 125.625,
      "v": 52
    },
    {
      "midi": 48,
      "hit": false,
      "t": 16324.21875,
      "d": 124.21875,
      "v": 55
    },
    {
      "midi": 45,
      "hit": false,
      "t": 16441.640625,
      "d": 125.15625,
      "v": 52
    },
    {
      "midi": 36,
      "hit": false,
      "t": 16560.9375,
      "d": 133.359375,
      "v": 55
    },
    {
      "midi": 45,
      "hit": false,
      "t": 16687.5,
      "d": 125.390625,
      "v": 52
    },
    {
      "midi": 48,
      "hit": false,
      "t": 16806.09375,
      "d": 126.09375,
      "v": 53
    },
    {
      "midi": 45,
      "hit": false,
      "t": 16925.390625,
      "d": 125.625,
      "v": 52
    },
    {
      "midi": 48,
      "hit": false,
      "t": 17044.21875,
      "d": 124.21875,
      "v": 55
    },
    {
      "midi": 45,
      "hit": false,
      "t": 17161.640625,
      "d": 125.15625,
      "v": 52
    },
    {
      "midi": 29,
      "hit": false,
      "t": 17280.9375,
      "d": 133.359375,
      "v": 53
    },
    {
      "midi": 50,
      "hit": false,
      "t": 17280.9375,
      "d": 1438.828125,
      "v": 56
    },
    {
      "midi": 59,
      "hit": false,
      "t": 17280.9375,
      "d": 1438.828125,
      "v": 70
    },
    {
      "midi": 53,
      "hit": false,
      "t": 17280.9375,
      "d": 2878.828125,
      "v": 56
    },
    {
      "midi": 36,
      "hit": false,
      "t": 17407.5,
      "d": 125.390625,
      "v": 50
    },
    {
      "midi": 41,
      "hit": false,
      "t": 17526.09375,
      "d": 126.09375,
      "v": 53
    },
    {
      "midi": 36,
      "hit": false,
      "t": 17645.390625,
      "d": 125.625,
      "v": 50
    },
    {
      "midi": 41,
      "hit": false,
      "t": 17764.21875,
      "d": 124.21875,
      "v": 55
    },
    {
      "midi": 36,
      "hit": false,
      "t": 17881.640625,
      "d": 125.15625,
      "v": 50
    },
    {
      "midi": 29,
      "hit": false,
      "t": 18000.9375,
      "d": 133.359375,
      "v": 53
    },
    {
      "midi": 36,
      "hit": false,
      "t": 18127.5,
      "d": 125.390625,
      "v": 50
    },
    {
      "midi": 41,
      "hit": false,
      "t": 18246.09375,
      "d": 126.09375,
      "v": 53
    },
    {
      "midi": 36,
      "hit": false,
      "t": 18365.390625,
      "d": 125.625,
      "v": 50
    },
    {
      "midi": 41,
      "hit": false,
      "t": 18484.21875,
      "d": 124.21875,
      "v": 55
    },
    {
      "midi": 36,
      "hit": false,
      "t": 18601.640625,
      "d": 125.15625,
      "v": 50
    },
    {
      "midi": 29,
      "hit": false,
      "t": 18720.9375,
      "d": 133.359375,
      "v": 53
    },
    {
      "midi": 50,
      "hit": false,
      "t": 18720.9375,
      "d": 1438.828125,
      "v": 56
    },
    {
      "midi": 57,
      "hit": false,
      "t": 18720.9375,
      "d": 1438.828125,
      "v": 70
    },
    {
      "midi": 36,
      "hit": false,
      "t": 18847.5,
      "d": 125.390625,
      "v": 50
    },
    {
      "midi": 41,
      "hit": false,
      "t": 18966.09375,
      "d": 126.09375,
      "v": 53
    },
    {
      "midi": 36,
      "hit": false,
      "t": 19085.390625,
      "d": 125.625,
      "v": 50
    },
    {
      "midi": 41,
      "hit": false,
      "t": 19204.21875,
      "d": 124.21875,
      "v": 55
    },
    {
      "midi": 36,
      "hit": false,
      "t": 19321.640625,
      "d": 125.15625,
      "v": 50
    },
    {
      "midi": 29,
      "hit": false,
      "t": 19440.9375,
      "d": 133.359375,
      "v": 53
    },
    {
      "midi": 36,
      "hit": false,
      "t": 19567.5,
      "d": 125.390625,
      "v": 50
    },
    {
      "midi": 41,
      "hit": false,
      "t": 19686.09375,
      "d": 126.09375,
      "v": 53
    },
    {
      "midi": 36,
      "hit": false,
      "t": 19805.390625,
      "d": 125.625,
      "v": 50
    },
    {
      "midi": 41,
      "hit": false,
      "t": 19924.21875,
      "d": 124.21875,
      "v": 55
    },
    {
      "midi": 36,
      "hit": false,
      "t": 20041.640625,
      "d": 125.15625,
      "v": 50
    },
    {
      "midi": 31,
      "hit": false,
      "t": 20160.9375,
      "d": 133.359375,
      "v": 54
    },
    {
      "midi": 50,
      "hit": false,
      "t": 20160.9375,
      "d": 1438.828125,
      "v": 56
    },
    {
      "midi": 59,
      "hit": false,
      "t": 20160.9375,
      "d": 1438.828125,
      "v": 70
    },
    {
      "midi": 55,
      "hit": false,
      "t": 20160.9375,
      "d": 2878.828125,
      "v": 56
    },
    {
      "midi": 38,
      "hit": false,
      "t": 20287.5,
      "d": 125.390625,
      "v": 51
    },
    {
      "midi": 41,
      "hit": false,
      "t": 20406.09375,
      "d": 126.09375,
      "v": 53
    },
    {
      "midi": 38,
      "hit": false,
      "t": 20525.390625,
      "d": 125.625,
      "v": 51
    },
    {
      "midi": 41,
      "hit": false,
      "t": 20644.21875,
      "d": 124.21875,
      "v": 55
    },
    {
      "midi": 38,
      "hit": false,
      "t": 20761.640625,
      "d": 125.15625,
      "v": 51
    },
    {
      "midi": 31,
      "hit": false,
      "t": 20880.9375,
      "d": 133.359375,
      "v": 54
    },
    {
      "midi": 38,
      "hit": false,
      "t": 21007.5,
      "d": 125.390625,
      "v": 51
    },
    {
      "midi": 41,
      "hit": false,
      "t": 21126.09375,
      "d": 126.09375,
      "v": 53
    },
    {
      "midi": 38,
      "hit": false,
      "t": 21245.390625,
      "d": 125.625,
      "v": 51
    },
    {
      "midi": 41,
      "hit": false,
      "t": 21364.21875,
      "d": 124.21875,
      "v": 55
    },
    {
      "midi": 38,
      "hit": false,
      "t": 21481.640625,
      "d": 125.15625,
      "v": 51
    },
    {
      "midi": 31,
      "hit": false,
      "t": 21600.9375,
      "d": 133.359375,
      "v": 54
    },
    {
      "midi": 50,
      "hit": false,
      "t": 21600.9375,
      "d": 1438.828125,
      "v": 56
    },
    {
      "midi": 57,
      "hit": false,
      "t": 21600.9375,
      "d": 1438.828125,
      "v": 70
    },
    {
      "midi": 38,
      "hit": false,
      "t": 21727.5,
      "d": 125.390625,
      "v": 51
    },
    {
      "midi": 41,
      "hit": false,
      "t": 21846.09375,
      "d": 126.09375,
      "v": 53
    },
    {
      "midi": 38,
      "hit": false,
      "t": 21965.390625,
      "d": 125.625,
      "v": 51
    },
    {
      "midi": 41,
      "hit": false,
      "t": 22084.21875,
      "d": 124.21875,
      "v": 55
    },
    {
      "midi": 38,
      "hit": false,
      "t": 22201.640625,
      "d": 125.15625,
      "v": 51
    },
    {
      "midi": 31,
      "hit": false,
      "t": 22320.9375,
      "d": 133.359375,
      "v": 54
    },
    {
      "midi": 60,
      "hit": false,
      "t": 22320.9375,
      "d": 718.828125,
      "v": 70
    },
    {
      "midi": 38,
      "hit": false,
      "t": 22447.5,
      "d": 125.390625,
      "v": 51
    },
    {
      "midi": 41,
      "hit": false,
      "t": 22566.09375,
      "d": 126.09375,
      "v": 53
    },
    {
      "midi": 38,
      "hit": false,
      "t": 22685.390625,
      "d": 125.625,
      "v": 51
    },
    {
      "midi": 41,
      "hit": false,
      "t": 22804.21875,
      "d": 124.21875,
      "v": 55
    },
    {
      "midi": 38,
      "hit": false,
      "t": 22921.640625,
      "d": 125.15625,
      "v": 51
    },
    {
      "midi": 33,
      "hit": false,
      "t": 23040.9375,
      "d": 133.359375,
      "v": 54
    },
    {
      "midi": 57,
      "hit": false,
      "t": 23040.9375,
      "d": 718.828125,
      "v": 56
    },
    {
      "midi": 69,
      "hit": false,
      "t": 23040.9375,
      "d": 718.828125,
      "v": 70
    },
    {
      "midi": 40,
      "hit": false,
      "t": 23167.5,
      "d": 125.390625,
      "v": 51
    },
    {
      "midi": 45,
      "hit": false,
      "t": 23286.09375,
      "d": 126.09375,
      "v": 53
    },
    {
      "midi": 40,
      "hit": false,
      "t": 23405.390625,
      "d": 125.625,
      "v": 51
    },
    {
      "midi": 45,
      "hit": false,
      "t": 23524.21875,
      "d": 124.21875,
      "v": 55
    },
    {
      "midi": 40,
      "hit": false,
      "t": 23641.640625,
      "d": 125.15625,
      "v": 51
    },
    {
      "midi": 33,
      "hit": false,
      "t": 23760.9375,
      "d": 133.359375,
      "v": 54
    },
    {
      "midi": 67,
      "hit": false,
      "t": 23760.9375,
      "d": 718.828125,
      "v": 56
    },
    {
      "midi": 79,
      "hit": false,
      "t": 23760.9375,
      "d": 718.828125,
      "v": 70
    },
    {
      "midi": 40,
      "hit": false,
      "t": 23887.5,
      "d": 125.390625,
      "v": 51
    },
    {
      "midi": 45,
      "hit": false,
      "t": 24006.09375,
      "d": 126.09375,
      "v": 53
    },
    {
      "midi": 40,
      "hit": false,
      "t": 24125.390625,
      "d": 125.625,
      "v": 51
    },
    {
      "midi": 45,
      "hit": false,
      "t": 24244.21875,
      "d": 124.21875,
      "v": 55
    },
    {
      "midi": 40,
      "hit": false,
      "t": 24361.640625,
      "d": 125.15625,
      "v": 51
    },
    {
      "midi": 33,
      "hit": false,
      "t": 24480.9375,
      "d": 133.359375,
      "v": 54
    },
    {
      "midi": 64,
      "hit": false,
      "t": 24480.9375,
      "d": 718.828125,
      "v": 56
    },
    {
      "midi": 76,
      "hit": false,
      "t": 24480.9375,
      "d": 718.828125,
      "v": 70
    },
    {
      "midi": 40,
      "hit": false,
      "t": 24607.5,
      "d": 125.390625,
      "v": 51
    },
    {
      "midi": 45,
      "hit": false,
      "t": 24726.09375,
      "d": 126.09375,
      "v": 53
    },
    {
      "midi": 40,
      "hit": false,
      "t": 24845.390625,
      "d": 125.625,
      "v": 51
    },
    {
      "midi": 45,
      "hit": false,
      "t": 24964.21875,
      "d": 124.21875,
      "v": 55
    },
    {
      "midi": 40,
      "hit": false,
      "t": 25081.640625,
      "d": 125.15625,
      "v": 51
    },
    {
      "midi": 33,
      "hit": false,
      "t": 25200.9375,
      "d": 133.359375,
      "v": 54
    },
    {
      "midi": 60,
      "hit": false,
      "t": 25200.9375,
      "d": 718.828125,
      "v": 56
    },
    {
      "midi": 72,
      "hit": false,
      "t": 25200.9375,
      "d": 718.828125,
      "v": 70
    },
    {
      "midi": 40,
      "hit": false,
      "t": 25327.5,
      "d": 125.390625,
      "v": 51
    },
    {
      "midi": 45,
      "hit": false,
      "t": 25446.09375,
      "d": 126.09375,
      "v": 53
    },
    {
      "midi": 40,
      "hit": false,
      "t": 25565.390625,
      "d": 125.625,
      "v": 51
    },
    {
      "midi": 45,
      "hit": false,
      "t": 25684.21875,
      "d": 124.21875,
      "v": 55
    },
    {
      "midi": 40,
      "hit": false,
      "t": 25801.640625,
      "d": 125.15625,
      "v": 51
    },
    {
      "midi": 36,
      "hit": false,
      "t": 25920.9375,
      "d": 133.359375,
      "v": 55
    },
    {
      "midi": 62,
      "hit": false,
      "t": 25920.9375,
      "d": 1378.125,
      "v": 56
    },
    {
      "midi": 74,
      "hit": false,
      "t": 25920.9375,
      "d": 1378.125,
      "v": 70
    },
    {
      "midi": 45,
      "hit": false,
      "t": 26047.5,
      "d": 125.390625,
      "v": 52
    },
    {
      "midi": 48,
      "hit": false,
      "t": 26166.09375,
      "d": 126.09375,
      "v": 53
    },
    {
      "midi": 45,
      "hit": false,
      "t": 26285.390625,
      "d": 125.625,
      "v": 52
    },
    {
      "midi": 48,
      "hit": false,
      "t": 26404.21875,
      "d": 124.21875,
      "v": 55
    },
    {
      "midi": 45,
      "hit": false,
      "t": 26521.640625,
      "d": 125.15625,
      "v": 52
    },
    {
      "midi": 36,
      "hit": false,
      "t": 26640.9375,
      "d": 133.359375,
      "v": 55
    },
    {
      "midi": 45,
      "hit": false,
      "t": 26767.5,
      "d": 125.390625,
      "v": 52
    },
    {
      "midi": 48,
      "hit": false,
      "t": 26886.09375,
      "d": 126.09375,
      "v": 53
    },
    {
      "midi": 45,
      "hit": false,
      "t": 27005.390625,
      "d": 125.625,
      "v": 52
    },
    {
      "midi": 48,
      "hit": false,
      "t": 27124.21875,
      "d": 124.21875,
      "v": 55
    },
    {
      "midi": 45,
      "hit": false,
      "t": 27241.640625,
      "d": 125.15625,
      "v": 52
    },
    {
      "midi": 60,
      "hit": false,
      "t": 27299.296875,
      "d": 56.953125,
      "v": 56
    },
    {
      "midi": 72,
      "hit": false,
      "t": 27299.296875,
      "d": 56.953125,
      "v": 70
    },
    {
      "midi": 36,
      "hit": false,
      "t": 27360.9375,
      "d": 133.359375,
      "v": 55
    },
    {
      "midi": 59,
      "hit": false,
      "t": 27360.9375,
      "d": 718.828125,
      "v": 56
    },
    {
      "midi": 71,
      "hit": false,
      "t": 27360.9375,
      "d": 718.828125,
      "v": 70
    },
    {
      "midi": 45,
      "hit": false,
      "t": 27487.5,
      "d": 125.390625,
      "v": 52
    },
    {
      "midi": 48,
      "hit": false,
      "t": 27606.09375,
      "d": 126.09375,
      "v": 53
    },
    {
      "midi": 45,
      "hit": false,
      "t": 27725.390625,
      "d": 125.625,
      "v": 52
    },
    {
      "midi": 48,
      "hit": false,
      "t": 27844.21875,
      "d": 124.21875,
      "v": 55
    },
    {
      "midi": 45,
      "hit": false,
      "t": 27961.640625,
      "d": 125.15625,
      "v": 52
    },
    {
      "midi": 36,
      "hit": false,
      "t": 28080.9375,
      "d": 133.359375,
      "v": 55
    },
    {
      "midi": 55,
      "hit": false,
      "t": 28080.9375,
      "d": 718.828125,
      "v": 56
    },
    {
      "midi": 67,
      "hit": false,
      "t": 28080.9375,
      "d": 718.828125,
      "v": 70
    },
    {
      "midi": 45,
      "hit": false,
      "t": 28207.5,
      "d": 125.390625,
      "v": 52
    },
    {
      "midi": 48,
      "hit": false,
      "t": 28326.09375,
      "d": 126.09375,
      "v": 53
    },
    {
      "midi": 45,
      "hit": false,
      "t": 28445.390625,
      "d": 125.625,
      "v": 52
    },
    {
      "midi": 48,
      "hit": false,
      "t": 28564.21875,
      "d": 124.21875,
      "v": 55
    },
    {
      "midi": 45,
      "hit": false,
      "t": 28681.640625,
      "d": 125.15625,
      "v": 52
    },
    {
      "midi": 29,
      "hit": false,
      "t": 28800.9375,
      "d": 133.359375,
      "v": 53
    },
    {
      "midi": 57,
      "hit": false,
      "t": 28800.9375,
      "d": 718.828125,
      "v": 56
    },
    {
      "midi": 69,
      "hit": false,
      "t": 28800.9375,
      "d": 718.828125,
      "v": 70
    },
    {
      "midi": 36,
      "hit": false,
      "t": 28927.5,
      "d": 125.390625,
      "v": 50
    },
    {
      "midi": 41,
      "hit": false,
      "t": 29046.09375,
      "d": 126.09375,
      "v": 53
    },
    {
      "midi": 36,
      "hit": false,
      "t": 29165.390625,
      "d": 125.625,
      "v": 50
    },
    {
      "midi": 41,
      "hit": false,
      "t": 29284.21875,
      "d": 124.21875,
      "v": 55
    },
    {
      "midi": 36,
      "hit": false,
      "t": 29401.640625,
      "d": 125.15625,
      "v": 50
    },
    {
      "midi": 29,
      "hit": false,
      "t": 29520.9375,
      "d": 133.359375,
      "v": 53
    },
    {
      "midi": 65,
      "hit": false,
      "t": 29520.9375,
      "d": 718.828125,
      "v": 56
    },
    {
      "midi": 77,
      "hit": false,
      "t": 29520.9375,
      "d": 718.828125,
      "v": 70
    },
    {
      "midi": 36,
      "hit": false,
      "t": 29647.5,
      "d": 125.390625,
      "v": 50
    },
    {
      "midi": 41,
      "hit": false,
      "t": 29766.09375,
      "d": 126.09375,
      "v": 53
    },
    {
      "midi": 36,
      "hit": false,
      "t": 29885.390625,
      "d": 125.625,
      "v": 50
    },
    {
      "midi": 41,
      "hit": false,
      "t": 30004.21875,
      "d": 124.21875,
      "v": 55
    },
    {
      "midi": 36,
      "hit": false,
      "t": 30121.640625,
      "d": 125.15625,
      "v": 50
    },
    {
      "midi": 29,
      "hit": false,
      "t": 30240.9375,
      "d": 133.359375,
      "v": 53
    },
    {
      "midi": 64,
      "hit": false,
      "t": 30240.9375,
      "d": 718.828125,
      "v": 56
    },
    {
      "midi": 76,
      "hit": false,
      "t": 30240.9375,
      "d": 718.828125,
      "v": 70
    },
    {
      "midi": 36,
      "hit": false,
      "t": 30367.5,
      "d": 125.390625,
      "v": 50
    },
    {
      "midi": 41,
      "hit": false,
      "t": 30486.09375,
      "d": 126.09375,
      "v": 53
    },
    {
      "midi": 36,
      "hit": false,
      "t": 30605.390625,
      "d": 125.625,
      "v": 50
    },
    {
      "midi": 41,
      "hit": false,
      "t": 30724.21875,
      "d": 124.21875,
      "v": 55
    },
    {
      "midi": 36,
      "hit": false,
      "t": 30841.640625,
      "d": 125.15625,
      "v": 50
    },
    {
      "midi": 29,
      "hit": false,
      "t": 30960.9375,
      "d": 133.359375,
      "v": 53
    },
    {
      "midi": 69,
      "hit": false,
      "t": 30960.9375,
      "d": 718.828125,
      "v": 56
    },
    {
      "midi": 81,
      "hit": false,
      "t": 30960.9375,
      "d": 718.828125,
      "v": 70
    },
    {
      "midi": 36,
      "hit": false,
      "t": 31087.5,
      "d": 125.390625,
      "v": 50
    },
    {
      "midi": 41,
      "hit": false,
      "t": 31206.09375,
      "d": 126.09375,
      "v": 53
    },
    {
      "midi": 36,
      "hit": false,
      "t": 31325.390625,
      "d": 125.625,
      "v": 50
    },
    {
      "midi": 41,
      "hit": false,
      "t": 31444.21875,
      "d": 124.21875,
      "v": 55
    },
    {
      "midi": 36,
      "hit": false,
      "t": 31561.640625,
      "d": 125.15625,
      "v": 50
    },
    {
      "midi": 31,
      "hit": false,
      "t": 31680.9375,
      "d": 133.359375,
      "v": 54
    },
    {
      "midi": 71,
      "hit": false,
      "t": 31680.9375,
      "d": 718.828125,
      "v": 56
    },
    {
      "midi": 83,
      "hit": false,
      "t": 31680.9375,
      "d": 718.828125,
      "v": 70
    },
    {
      "midi": 38,
      "hit": false,
      "t": 31807.5,
      "d": 125.390625,
      "v": 51
    },
    {
      "midi": 41,
      "hit": false,
      "t": 31926.09375,
      "d": 126.09375,
      "v": 53
    },
    {
      "midi": 38,
      "hit": false,
      "t": 32045.390625,
      "d": 125.625,
      "v": 51
    },
    {
      "midi": 41,
      "hit": false,
      "t": 32164.21875,
      "d": 124.21875,
      "v": 55
    },
    {
      "midi": 38,
      "hit": false,
      "t": 32281.640625,
      "d": 125.15625,
      "v": 51
    },
    {
      "midi": 31,
      "hit": false,
      "t": 32400.9375,
      "d": 133.359375,
      "v": 54
    },
    {
      "midi": 72,
      "hit": false,
      "t": 32400.9375,
      "d": 718.828125,
      "v": 56
    },
    {
      "midi": 84,
      "hit": false,
      "t": 32400.9375,
      "d": 718.828125,
      "v": 70
    },
    {
      "midi": 38,
      "hit": false,
      "t": 32527.5,
      "d": 125.390625,
      "v": 51
    },
    {
      "midi": 41,
      "hit": false,
      "t": 32646.09375,
      "d": 126.09375,
      "v": 53
    },
    {
      "midi": 38,
      "hit": false,
      "t": 32765.390625,
      "d": 125.625,
      "v": 51
    },
    {
      "midi": 41,
      "hit": false,
      "t": 32884.21875,
      "d": 124.21875,
      "v": 55
    },
    {
      "midi": 38,
      "hit": false,
      "t": 33001.640625,
      "d": 125.15625,
      "v": 51
    },
    {
      "midi": 31,
      "hit": false,
      "t": 33120.9375,
      "d": 133.359375,
      "v": 54
    },
    {
      "midi": 74,
      "hit": false,
      "t": 33120.9375,
      "d": 718.828125,
      "v": 56
    },
    {
      "midi": 86,
      "hit": false,
      "t": 33120.9375,
      "d": 718.828125,
      "v": 70
    },
    {
      "midi": 38,
      "hit": false,
      "t": 33247.5,
      "d": 125.390625,
      "v": 51
    },
    {
      "midi": 41,
      "hit": false,
      "t": 33366.09375,
      "d": 126.09375,
      "v": 53
    },
    {
      "midi": 38,
      "hit": false,
      "t": 33485.390625,
      "d": 125.625,
      "v": 51
    },
    {
      "midi": 41,
      "hit": false,
      "t": 33604.21875,
      "d": 124.21875,
      "v": 55
    },
    {
      "midi": 38,
      "hit": false,
      "t": 33721.640625,
      "d": 125.15625,
      "v": 51
    },
    {
      "midi": 31,
      "hit": false,
      "t": 33840.9375,
      "d": 133.359375,
      "v": 54
    },
    {
      "midi": 71,
      "hit": false,
      "t": 33840.9375,
      "d": 718.828125,
      "v": 56
    },
    {
      "midi": 83,
      "hit": false,
      "t": 33840.9375,
      "d": 718.828125,
      "v": 70
    },
    {
      "midi": 38,
      "hit": false,
      "t": 33967.5,
      "d": 125.390625,
      "v": 51
    },
    {
      "midi": 41,
      "hit": false,
      "t": 34086.09375,
      "d": 126.09375,
      "v": 53
    },
    {
      "midi": 38,
      "hit": false,
      "t": 34205.390625,
      "d": 125.625,
      "v": 51
    },
    {
      "midi": 41,
      "hit": false,
      "t": 34324.21875,
      "d": 124.21875,
      "v": 55
    },
    {
      "midi": 38,
      "hit": false,
      "t": 34441.640625,
      "d": 125.15625,
      "v": 51
    },
    {
      "midi": 33,
      "hit": false,
      "t": 34560.9375,
      "d": 133.359375,
      "v": 54
    },
    {
      "midi": 76,
      "hit": false,
      "t": 34560.9375,
      "d": 1378.125,
      "v": 56
    },
    {
      "midi": 88,
      "hit": false,
      "t": 34560.9375,
      "d": 1378.125,
      "v": 70
    },
    {
      "midi": 40,
      "hit": false,
      "t": 34687.5,
      "d": 125.390625,
      "v": 51
    },
    {
      "midi": 45,
      "hit": false,
      "t": 34806.09375,
      "d": 126.09375,
      "v": 53
    },
    {
      "midi": 40,
      "hit": false,
      "t": 34925.390625,
      "d": 125.625,
      "v": 51
    },
    {
      "midi": 45,
      "hit": false,
      "t": 35044.21875,
      "d": 124.21875,
      "v": 55
    },
    {
      "midi": 40,
      "hit": false,
      "t": 35161.640625,
      "d": 125.15625,
      "v": 51
    },
    {
      "midi": 33,
      "hit": false,
      "t": 35280.9375,
      "d": 133.359375,
      "v": 54
    },
    {
      "midi": 40,
      "hit": false,
      "t": 35407.5,
      "d": 125.390625,
      "v": 51
    },
    {
      "midi": 45,
      "hit": false,
      "t": 35526.09375,
      "d": 126.09375,
      "v": 53
    },
    {
      "midi": 40,
      "hit": false,
      "t": 35645.390625,
      "d": 125.625,
      "v": 51
    },
    {
      "midi": 45,
      "hit": false,
      "t": 35764.21875,
      "d": 124.21875,
      "v": 55
    },
    {
      "midi": 40,
      "hit": false,
      "t": 35881.640625,
      "d": 125.15625,
      "v": 51
    },
    {
      "midi": 74,
      "hit": false,
      "t": 35939.296875,
      "d": 56.953125,
      "v": 56
    },
    {
      "midi": 86,
      "hit": false,
      "t": 35939.296875,
      "d": 56.953125,
      "v": 70
    },
    {
      "midi": 33,
      "hit": false,
      "t": 36000.9375,
      "d": 133.359375,
      "v": 54
    },
    {
      "midi": 76,
      "hit": false,
      "t": 36000.9375,
      "d": 718.828125,
      "v": 56
    },
    {
      "midi": 88,
      "hit": false,
      "t": 36000.9375,
      "d": 718.828125,
      "v": 70
    },
    {
      "midi": 40,
      "hit": false,
      "t": 36127.5,
      "d": 125.390625,
      "v": 51
    },
    {
      "midi": 45,
      "hit": false,
      "t": 36246.09375,
      "d": 126.09375,
      "v": 53
    },
    {
      "midi": 40,
      "hit": false,
      "t": 36365.390625,
      "d": 125.625,
      "v": 51
    },
    {
      "midi": 45,
      "hit": false,
      "t": 36484.21875,
      "d": 124.21875,
      "v": 55
    },
    {
      "midi": 40,
      "hit": false,
      "t": 36601.640625,
      "d": 125.15625,
      "v": 51
    },
    {
      "midi": 33,
      "hit": false,
      "t": 36720.9375,
      "d": 133.359375,
      "v": 54
    },
    {
      "midi": 72,
      "hit": false,
      "t": 36720.9375,
      "d": 718.828125,
      "v": 56
    },
    {
      "midi": 84,
      "hit": false,
      "t": 36720.9375,
      "d": 718.828125,
      "v": 70
    },
    {
      "midi": 40,
      "hit": false,
      "t": 36847.5,
      "d": 125.390625,
      "v": 51
    },
    {
      "midi": 45,
      "hit": false,
      "t": 36966.09375,
      "d": 126.09375,
      "v": 53
    },
    {
      "midi": 40,
      "hit": false,
      "t": 37085.390625,
      "d": 125.625,
      "v": 51
    },
    {
      "midi": 45,
      "hit": false,
      "t": 37204.21875,
      "d": 124.21875,
      "v": 55
    },
    {
      "midi": 40,
      "hit": false,
      "t": 37321.640625,
      "d": 125.15625,
      "v": 51
    },
    {
      "midi": 36,
      "hit": false,
      "t": 37440.9375,
      "d": 133.359375,
      "v": 55
    },
    {
      "midi": 74,
      "hit": false,
      "t": 37440.9375,
      "d": 1378.125,
      "v": 56
    },
    {
      "midi": 86,
      "hit": false,
      "t": 37440.9375,
      "d": 1378.125,
      "v": 70
    },
    {
      "midi": 45,
      "hit": false,
      "t": 37567.5,
      "d": 125.390625,
      "v": 52
    },
    {
      "midi": 48,
      "hit": false,
      "t": 37686.09375,
      "d": 126.09375,
      "v": 53
    },
    {
      "midi": 45,
      "hit": false,
      "t": 37805.390625,
      "d": 125.625,
      "v": 52
    },
    {
      "midi": 48,
      "hit": false,
      "t": 37924.21875,
      "d": 124.21875,
      "v": 55
    },
    {
      "midi": 45,
      "hit": false,
      "t": 38041.640625,
      "d": 125.15625,
      "v": 52
    },
    {
      "midi": 36,
      "hit": false,
      "t": 38160.9375,
      "d": 133.359375,
      "v": 55
    },
    {
      "midi": 45,
      "hit": false,
      "t": 38287.5,
      "d": 125.390625,
      "v": 52
    },
    {
      "midi": 48,
      "hit": false,
      "t": 38406.09375,
      "d": 126.09375,
      "v": 53
    },
    {
      "midi": 45,
      "hit": false,
      "t": 38525.390625,
      "d": 125.625,
      "v": 52
    },
    {
      "midi": 48,
      "hit": false,
      "t": 38644.21875,
      "d": 124.21875,
      "v": 55
    },
    {
      "midi": 45,
      "hit": false,
      "t": 38761.640625,
      "d": 125.15625,
      "v": 52
    },
    {
      "midi": 72,
      "hit": false,
      "t": 38819.296875,
      "d": 56.953125,
      "v": 56
    },
    {
      "midi": 84,
      "hit": false,
      "t": 38819.296875,
      "d": 56.953125,
      "v": 70
    },
    {
      "midi": 36,
      "hit": false,
      "t": 38880.9375,
      "d": 133.359375,
      "v": 55
    },
    {
      "midi": 71,
      "hit": false,
      "t": 38880.9375,
      "d": 718.828125,
      "v": 56
    },
    {
      "midi": 83,
      "hit": false,
      "t": 38880.9375,
      "d": 718.828125,
      "v": 70
    },
    {
      "midi": 45,
      "hit": false,
      "t": 39007.5,
      "d": 125.390625,
      "v": 52
    },
    {
      "midi": 48,
      "hit": false,
      "t": 39126.09375,
      "d": 126.09375,
      "v": 53
    },
    {
      "midi": 45,
      "hit": false,
      "t": 39245.390625,
      "d": 125.625,
      "v": 52
    },
    {
      "midi": 48,
      "hit": false,
      "t": 39364.21875,
      "d": 124.21875,
      "v": 55
    },
    {
      "midi": 45,
      "hit": false,
      "t": 39481.640625,
      "d": 125.15625,
      "v": 52
    },
    {
      "midi": 36,
      "hit": false,
      "t": 39600.9375,
      "d": 133.359375,
      "v": 55
    },
    {
      "midi": 67,
      "hit": false,
      "t": 39600.9375,
      "d": 718.828125,
      "v": 56
    },
    {
      "midi": 79,
      "hit": false,
      "t": 39600.9375,
      "d": 718.828125,
      "v": 70
    },
    {
      "midi": 45,
      "hit": false,
      "t": 39727.5,
      "d": 125.390625,
      "v": 52
    },
    {
      "midi": 48,
      "hit": false,
      "t": 39846.09375,
      "d": 126.09375,
      "v": 53
    },
    {
      "midi": 45,
      "hit": false,
      "t": 39965.390625,
      "d": 125.625,
      "v": 52
    },
    {
      "midi": 48,
      "hit": false,
      "t": 40084.21875,
      "d": 124.21875,
      "v": 55
    },
    {
      "midi": 45,
      "hit": false,
      "t": 40201.640625,
      "d": 125.15625,
      "v": 52
    },
    {
      "midi": 29,
      "hit": false,
      "t": 40320.9375,
      "d": 133.359375,
      "v": 53
    },
    {
      "midi": 69,
      "hit": false,
      "t": 40320.9375,
      "d": 718.828125,
      "v": 56
    },
    {
      "midi": 81,
      "hit": false,
      "t": 40320.9375,
      "d": 718.828125,
      "v": 70
    },
    {
      "midi": 77,
      "hit": false,
      "t": 40320.9375,
      "d": 2878.828125,
      "v": 56
    },
    {
      "midi": 36,
      "hit": false,
      "t": 40447.5,
      "d": 125.390625,
      "v": 50
    },
    {
      "midi": 41,
      "hit": false,
      "t": 40566.09375,
      "d": 126.09375,
      "v": 53
    },
    {
      "midi": 36,
      "hit": false,
      "t": 40685.390625,
      "d": 125.625,
      "v": 50
    },
    {
      "midi": 41,
      "hit": false,
      "t": 40804.21875,
      "d": 124.21875,
      "v": 55
    },
    {
      "midi": 36,
      "hit": false,
      "t": 40921.640625,
      "d": 125.15625,
      "v": 50
    },
    {
      "midi": 29,
      "hit": false,
      "t": 41040.9375,
      "d": 133.359375,
      "v": 53
    },
    {
      "midi": 71,
      "hit": false,
      "t": 41040.9375,
      "d": 718.828125,
      "v": 56
    },
    {
      "midi": 83,
      "hit": false,
      "t": 41040.9375,
      "d": 718.828125,
      "v": 70
    },
    {
      "midi": 36,
      "hit": false,
      "t": 41167.5,
      "d": 125.390625,
      "v": 50
    },
    {
      "midi": 41,
      "hit": false,
      "t": 41286.09375,
      "d": 126.09375,
      "v": 53
    },
    {
      "midi": 36,
      "hit": false,
      "t": 41405.390625,
      "d": 125.625,
      "v": 50
    },
    {
      "midi": 41,
      "hit": false,
      "t": 41524.21875,
      "d": 124.21875,
      "v": 55
    },
    {
      "midi": 36,
      "hit": false,
      "t": 41641.640625,
      "d": 125.15625,
      "v": 50
    },
    {
      "midi": 29,
      "hit": false,
      "t": 41760.9375,
      "d": 133.359375,
      "v": 53
    },
    {
      "midi": 72,
      "hit": false,
      "t": 41760.9375,
      "d": 718.828125,
      "v": 56
    },
    {
      "midi": 84,
      "hit": false,
      "t": 41760.9375,
      "d": 718.828125,
      "v": 70
    },
    {
      "midi": 36,
      "hit": false,
      "t": 41887.5,
      "d": 125.390625,
      "v": 50
    },
    {
      "midi": 41,
      "hit": false,
      "t": 42006.09375,
      "d": 126.09375,
      "v": 53
    },
    {
      "midi": 36,
      "hit": false,
      "t": 42125.390625,
      "d": 125.625,
      "v": 50
    },
    {
      "midi": 41,
      "hit": false,
      "t": 42244.21875,
      "d": 124.21875,
      "v": 55
    },
    {
      "midi": 36,
      "hit": false,
      "t": 42361.640625,
      "d": 125.15625,
      "v": 50
    },
    {
      "midi": 29,
      "hit": false,
      "t": 42480.9375,
      "d": 133.359375,
      "v": 53
    },
    {
      "midi": 69,
      "hit": false,
      "t": 42480.9375,
      "d": 718.828125,
      "v": 56
    },
    {
      "midi": 81,
      "hit": false,
      "t": 42480.9375,
      "d": 718.828125,
      "v": 70
    },
    {
      "midi": 36,
      "hit": false,
      "t": 42607.5,
      "d": 125.390625,
      "v": 50
    },
    {
      "midi": 41,
      "hit": false,
      "t": 42726.09375,
      "d": 126.09375,
      "v": 53
    },
    {
      "midi": 36,
      "hit": false,
      "t": 42845.390625,
      "d": 125.625,
      "v": 50
    },
    {
      "midi": 41,
      "hit": false,
      "t": 42964.21875,
      "d": 124.21875,
      "v": 55
    },
    {
      "midi": 36,
      "hit": false,
      "t": 43081.640625,
      "d": 125.15625,
      "v": 50
    },
    {
      "midi": 31,
      "hit": false,
      "t": 43200.9375,
      "d": 133.359375,
      "v": 54
    },
    {
      "midi": 69,
      "hit": false,
      "t": 43200.9375,
      "d": 718.828125,
      "v": 56
    },
    {
      "midi": 81,
      "hit": false,
      "t": 43200.9375,
      "d": 718.828125,
      "v": 70
    },
    {
      "midi": 74,
      "hit": false,
      "t": 43200.9375,
      "d": 2878.828125,
      "v": 56
    },
    {
      "midi": 38,
      "hit": false,
      "t": 43327.5,
      "d": 125.390625,
      "v": 51
    },
    {
      "midi": 41,
      "hit": false,
      "t": 43446.09375,
      "d": 126.09375,
      "v": 53
    },
    {
      "midi": 38,
      "hit": false,
      "t": 43565.390625,
      "d": 125.625,
      "v": 51
    },
    {
      "midi": 41,
      "hit": false,
      "t": 43684.21875,
      "d": 124.21875,
      "v": 55
    },
    {
      "midi": 38,
      "hit": false,
      "t": 43801.640625,
      "d": 125.15625,
      "v": 51
    },
    {
      "midi": 31,
      "hit": false,
      "t": 43920.9375,
      "d": 133.359375,
      "v": 54
    },
    {
      "midi": 71,
      "hit": false,
      "t": 43920.9375,
      "d": 718.828125,
      "v": 56
    },
    {
      "midi": 83,
      "hit": false,
      "t": 43920.9375,
      "d": 718.828125,
      "v": 70
    },
    {
      "midi": 38,
      "hit": false,
      "t": 44047.5,
      "d": 125.390625,
      "v": 51
    },
    {
      "midi": 41,
      "hit": false,
      "t": 44166.09375,
      "d": 126.09375,
      "v": 53
    },
    {
      "midi": 38,
      "hit": false,
      "t": 44285.390625,
      "d": 125.625,
      "v": 51
    },
    {
      "midi": 41,
      "hit": false,
      "t": 44404.21875,
      "d": 124.21875,
      "v": 55
    },
    {
      "midi": 38,
      "hit": false,
      "t": 44521.640625,
      "d": 125.15625,
      "v": 51
    },
    {
      "midi": 31,
      "hit": false,
      "t": 44640.9375,
      "d": 133.359375,
      "v": 54
    },
    {
      "midi": 72,
      "hit": false,
      "t": 44640.9375,
      "d": 718.828125,
      "v": 56
    },
    {
      "midi": 84,
      "hit": false,
      "t": 44640.9375,
      "d": 718.828125,
      "v": 70
    },
    {
      "midi": 38,
      "hit": false,
      "t": 44767.5,
      "d": 125.390625,
      "v": 51
    },
    {
      "midi": 41,
      "hit": false,
      "t": 44886.09375,
      "d": 126.09375,
      "v": 53
    },
    {
      "midi": 38,
      "hit": false,
      "t": 45005.390625,
      "d": 125.625,
      "v": 51
    },
    {
      "midi": 41,
      "hit": false,
      "t": 45124.21875,
      "d": 124.21875,
      "v": 55
    },
    {
      "midi": 38,
      "hit": false,
      "t": 45241.640625,
      "d": 125.15625,
      "v": 51
    },
    {
      "midi": 31,
      "hit": false,
      "t": 45360.9375,
      "d": 133.359375,
      "v": 54
    },
    {
      "midi": 69,
      "hit": false,
      "t": 45360.9375,
      "d": 718.828125,
      "v": 56
    },
    {
      "midi": 81,
      "hit": false,
      "t": 45360.9375,
      "d": 718.828125,
      "v": 70
    },
    {
      "midi": 38,
      "hit": false,
      "t": 45487.5,
      "d": 125.390625,
      "v": 51
    },
    {
      "midi": 41,
      "hit": false,
      "t": 45606.09375,
      "d": 126.09375,
      "v": 53
    },
    {
      "midi": 38,
      "hit": false,
      "t": 45725.390625,
      "d": 125.625,
      "v": 51
    },
    {
      "midi": 41,
      "hit": false,
      "t": 45844.21875,
      "d": 124.21875,
      "v": 55
    },
    {
      "midi": 38,
      "hit": false,
      "t": 45961.640625,
      "d": 125.15625,
      "v": 51
    },
    {
      "midi": 33,
      "hit": false,
      "t": 46080.9375,
      "d": 133.359375,
      "v": 54
    },
    {
      "midi": 64,
      "hit": false,
      "t": 46080.9375,
      "d": 718.828125,
      "v": 56
    },
    {
      "midi": 76,
      "hit": false,
      "t": 46080.9375,
      "d": 718.828125,
      "v": 70
    },
    {
      "midi": 40,
      "hit": false,
      "t": 46207.5,
      "d": 125.390625,
      "v": 51
    },
    {
      "midi": 45,
      "hit": false,
      "t": 46326.09375,
      "d": 126.09375,
      "v": 53
    },
    {
      "midi": 40,
      "hit": false,
      "t": 46445.390625,
      "d": 125.625,
      "v": 51
    },
    {
      "midi": 45,
      "hit": false,
      "t": 46564.21875,
      "d": 124.21875,
      "v": 55
    },
    {
      "midi": 40,
      "hit": false,
      "t": 46681.640625,
      "d": 125.15625,
      "v": 51
    },
    {
      "midi": 33,
      "hit": false,
      "t": 46800.9375,
      "d": 133.359375,
      "v": 54
    },
    {
      "midi": 62,
      "hit": false,
      "t": 46800.9375,
      "d": 718.828125,
      "v": 56
    },
    {
      "midi": 74,
      "hit": false,
      "t": 46800.9375,
      "d": 718.828125,
      "v": 70
    },
    {
      "midi": 40,
      "hit": false,
      "t": 46927.5,
      "d": 125.390625,
      "v": 51
    },
    {
      "midi": 45,
      "hit": false,
      "t": 47046.09375,
      "d": 126.09375,
      "v": 53
    },
    {
      "midi": 40,
      "hit": false,
      "t": 47165.390625,
      "d": 125.625,
      "v": 51
    },
    {
      "midi": 45,
      "hit": false,
      "t": 47284.21875,
      "d": 124.21875,
      "v": 55
    },
    {
      "midi": 40,
      "hit": false,
      "t": 47401.640625,
      "d": 125.15625,
      "v": 51
    },
    {
      "midi": 33,
      "hit": false,
      "t": 47520.9375,
      "d": 133.359375,
      "v": 54
    },
    {
      "midi": 64,
      "hit": false,
      "t": 47520.9375,
      "d": 718.828125,
      "v": 56
    },
    {
      "midi": 76,
      "hit": false,
      "t": 47520.9375,
      "d": 718.828125,
      "v": 70
    },
    {
      "midi": 40,
      "hit": false,
      "t": 47647.5,
      "d": 125.390625,
      "v": 51
    },
    {
      "midi": 45,
      "hit": false,
      "t": 47766.09375,
      "d": 126.09375,
      "v": 53
    },
    {
      "midi": 40,
      "hit": false,
      "t": 47885.390625,
      "d": 125.625,
      "v": 51
    },
    {
      "midi": 45,
      "hit": false,
      "t": 48004.21875,
      "d": 124.21875,
      "v": 55
    },
    {
      "midi": 40,
      "hit": false,
      "t": 48121.640625,
      "d": 125.15625,
      "v": 51
    },
    {
      "midi": 33,
      "hit": false,
      "t": 48240.9375,
      "d": 133.359375,
      "v": 54
    },
    {
      "midi": 68,
      "hit": false,
      "t": 48240.9375,
      "d": 718.828125,
      "v": 56
    },
    {
      "midi": 80,
      "hit": false,
      "t": 48240.9375,
      "d": 718.828125,
      "v": 70
    },
    {
      "midi": 40,
      "hit": false,
      "t": 48367.5,
      "d": 125.390625,
      "v": 51
    },
    {
      "midi": 45,
      "hit": false,
      "t": 48486.09375,
      "d": 126.09375,
      "v": 53
    },
    {
      "midi": 40,
      "hit": false,
      "t": 48605.390625,
      "d": 125.625,
      "v": 51
    },
    {
      "midi": 45,
      "hit": false,
      "t": 48724.21875,
      "d": 124.21875,
      "v": 55
    },
    {
      "midi": 40,
      "hit": false,
      "t": 48841.640625,
      "d": 125.15625,
      "v": 51
    },
    {
      "midi": 36,
      "hit": false,
      "t": 48960.9375,
      "d": 133.359375,
      "v": 55
    },
    {
      "midi": 69,
      "hit": false,
      "t": 48960.9375,
      "d": 718.828125,
      "v": 56
    },
    {
      "midi": 81,
      "hit": false,
      "t": 48960.9375,
      "d": 718.828125,
      "v": 70
    },
    {
      "midi": 45,
      "hit": false,
      "t": 49087.5,
      "d": 125.390625,
      "v": 52
    },
    {
      "midi": 48,
      "hit": false,
      "t": 49206.09375,
      "d": 126.09375,
      "v": 53
    },
    {
      "midi": 45,
      "hit": false,
      "t": 49325.390625,
      "d": 125.625,
      "v": 52
    },
    {
      "midi": 48,
      "hit": false,
      "t": 49444.21875,
      "d": 124.21875,
      "v": 55
    },
    {
      "midi": 45,
      "hit": false,
      "t": 49561.640625,
      "d": 125.15625,
      "v": 52
    },
    {
      "midi": 36,
      "hit": false,
      "t": 49680.9375,
      "d": 133.359375,
      "v": 55
    },
    {
      "midi": 71,
      "hit": false,
      "t": 49680.9375,
      "d": 718.828125,
      "v": 56
    },
    {
      "midi": 83,
      "hit": false,
      "t": 49680.9375,
      "d": 718.828125,
      "v": 70
    },
    {
      "midi": 45,
      "hit": false,
      "t": 49807.5,
      "d": 125.390625,
      "v": 52
    },
    {
      "midi": 48,
      "hit": false,
      "t": 49926.09375,
      "d": 126.09375,
      "v": 53
    },
    {
      "midi": 45,
      "hit": false,
      "t": 50045.390625,
      "d": 125.625,
      "v": 52
    },
    {
      "midi": 48,
      "hit": false,
      "t": 50164.21875,
      "d": 124.21875,
      "v": 55
    },
    {
      "midi": 45,
      "hit": false,
      "t": 50281.640625,
      "d": 125.15625,
      "v": 52
    },
    {
      "midi": 36,
      "hit": false,
      "t": 50400.9375,
      "d": 133.359375,
      "v": 55
    },
    {
      "midi": 72,
      "hit": false,
      "t": 50400.9375,
      "d": 718.828125,
      "v": 56
    },
    {
      "midi": 84,
      "hit": false,
      "t": 50400.9375,
      "d": 718.828125,
      "v": 70
    },
    {
      "midi": 45,
      "hit": false,
      "t": 50527.5,
      "d": 125.390625,
      "v": 52
    },
    {
      "midi": 48,
      "hit": false,
      "t": 50646.09375,
      "d": 126.09375,
      "v": 53
    },
    {
      "midi": 45,
      "hit": false,
      "t": 50765.390625,
      "d": 125.625,
      "v": 52
    },
    {
      "midi": 48,
      "hit": false,
      "t": 50884.21875,
      "d": 124.21875,
      "v": 55
    },
    {
      "midi": 45,
      "hit": false,
      "t": 51001.640625,
      "d": 125.15625,
      "v": 52
    },
    {
      "midi": 36,
      "hit": false,
      "t": 51120.9375,
      "d": 133.359375,
      "v": 55
    },
    {
      "midi": 69,
      "hit": false,
      "t": 51120.9375,
      "d": 718.828125,
      "v": 56
    },
    {
      "midi": 81,
      "hit": false,
      "t": 51120.9375,
      "d": 718.828125,
      "v": 70
    },
    {
      "midi": 45,
      "hit": false,
      "t": 51247.5,
      "d": 125.390625,
      "v": 52
    },
    {
      "midi": 48,
      "hit": false,
      "t": 51366.09375,
      "d": 126.09375,
      "v": 53
    },
    {
      "midi": 45,
      "hit": false,
      "t": 51485.390625,
      "d": 125.625,
      "v": 52
    },
    {
      "midi": 48,
      "hit": false,
      "t": 51604.21875,
      "d": 124.21875,
      "v": 55
    },
    {
      "midi": 45,
      "hit": false,
      "t": 51721.640625,
      "d": 125.15625,
      "v": 52
    },
    {
      "midi": 29,
      "hit": false,
      "t": 51840.9375,
      "d": 133.359375,
      "v": 53
    },
    {
      "midi": 74,
      "hit": false,
      "t": 51840.9375,
      "d": 718.828125,
      "v": 56
    },
    {
      "midi": 86,
      "hit": false,
      "t": 51840.9375,
      "d": 718.828125,
      "v": 70
    },
    {
      "midi": 36,
      "hit": false,
      "t": 51967.5,
      "d": 125.390625,
      "v": 50
    },
    {
      "midi": 41,
      "hit": false,
      "t": 52086.09375,
      "d": 126.09375,
      "v": 53
    },
    {
      "midi": 36,
      "hit": false,
      "t": 52205.390625,
      "d": 125.625,
      "v": 50
    },
    {
      "midi": 41,
      "hit": false,
      "t": 52324.21875,
      "d": 124.21875,
      "v": 55
    },
    {
      "midi": 36,
      "hit": false,
      "t": 52441.640625,
      "d": 125.15625,
      "v": 50
    },
    {
      "midi": 29,
      "hit": false,
      "t": 52560.9375,
      "d": 133.359375,
      "v": 53
    },
    {
      "midi": 72,
      "hit": false,
      "t": 52560.9375,
      "d": 718.828125,
      "v": 56
    },
    {
      "midi": 84,
      "hit": false,
      "t": 52560.9375,
      "d": 718.828125,
      "v": 70
    },
    {
      "midi": 36,
      "hit": false,
      "t": 52687.5,
      "d": 125.390625,
      "v": 50
    },
    {
      "midi": 41,
      "hit": false,
      "t": 52806.09375,
      "d": 126.09375,
      "v": 53
    },
    {
      "midi": 36,
      "hit": false,
      "t": 52925.390625,
      "d": 125.625,
      "v": 50
    },
    {
      "midi": 41,
      "hit": false,
      "t": 53044.21875,
      "d": 124.21875,
      "v": 55
    },
    {
      "midi": 36,
      "hit": false,
      "t": 53161.640625,
      "d": 125.15625,
      "v": 50
    },
    {
      "midi": 29,
      "hit": false,
      "t": 53280.9375,
      "d": 133.359375,
      "v": 53
    },
    {
      "midi": 71,
      "hit": false,
      "t": 53280.9375,
      "d": 718.828125,
      "v": 56
    },
    {
      "midi": 83,
      "hit": false,
      "t": 53280.9375,
      "d": 718.828125,
      "v": 70
    },
    {
      "midi": 36,
      "hit": false,
      "t": 53407.5,
      "d": 125.390625,
      "v": 50
    },
    {
      "midi": 41,
      "hit": false,
      "t": 53526.09375,
      "d": 126.09375,
      "v": 53
    },
    {
      "midi": 36,
      "hit": false,
      "t": 53645.390625,
      "d": 125.625,
      "v": 50
    },
    {
      "midi": 41,
      "hit": false,
      "t": 53764.21875,
      "d": 124.21875,
      "v": 55
    },
    {
      "midi": 36,
      "hit": false,
      "t": 53881.640625,
      "d": 125.15625,
      "v": 50
    },
    {
      "midi": 29,
      "hit": false,
      "t": 54000.9375,
      "d": 133.359375,
      "v": 53
    },
    {
      "midi": 69,
      "hit": false,
      "t": 54000.9375,
      "d": 718.828125,
      "v": 56
    },
    {
      "midi": 81,
      "hit": false,
      "t": 54000.9375,
      "d": 718.828125,
      "v": 70
    },
    {
      "midi": 36,
      "hit": false,
      "t": 54127.5,
      "d": 125.390625,
      "v": 50
    },
    {
      "midi": 41,
      "hit": false,
      "t": 54246.09375,
      "d": 126.09375,
      "v": 53
    },
    {
      "midi": 36,
      "hit": false,
      "t": 54365.390625,
      "d": 125.625,
      "v": 50
    },
    {
      "midi": 41,
      "hit": false,
      "t": 54484.21875,
      "d": 124.21875,
      "v": 55
    },
    {
      "midi": 36,
      "hit": false,
      "t": 54601.640625,
      "d": 125.15625,
      "v": 50
    },
    {
      "midi": 31,
      "hit": false,
      "t": 54720.9375,
      "d": 133.359375,
      "v": 54
    },
    {
      "midi": 74,
      "hit": false,
      "t": 54720.9375,
      "d": 718.828125,
      "v": 56
    },
    {
      "midi": 86,
      "hit": false,
      "t": 54720.9375,
      "d": 718.828125,
      "v": 70
    },
    {
      "midi": 38,
      "hit": false,
      "t": 54847.5,
      "d": 125.390625,
      "v": 51
    },
    {
      "midi": 41,
      "hit": false,
      "t": 54966.09375,
      "d": 126.09375,
      "v": 53
    },
    {
      "midi": 38,
      "hit": false,
      "t": 55085.390625,
      "d": 125.625,
      "v": 51
    },
    {
      "midi": 41,
      "hit": false,
      "t": 55204.21875,
      "d": 124.21875,
      "v": 55
    },
    {
      "midi": 38,
      "hit": false,
      "t": 55321.640625,
      "d": 125.15625,
      "v": 51
    },
    {
      "midi": 31,
      "hit": false,
      "t": 55440.9375,
      "d": 133.359375,
      "v": 54
    },
    {
      "midi": 72,
      "hit": false,
      "t": 55440.9375,
      "d": 718.828125,
      "v": 56
    },
    {
      "midi": 84,
      "hit": false,
      "t": 55440.9375,
      "d": 718.828125,
      "v": 70
    },
    {
      "midi": 38,
      "hit": false,
      "t": 55567.5,
      "d": 125.390625,
      "v": 51
    },
    {
      "midi": 41,
      "hit": false,
      "t": 55686.09375,
      "d": 126.09375,
      "v": 53
    },
    {
      "midi": 38,
      "hit": false,
      "t": 55805.390625,
      "d": 125.625,
      "v": 51
    },
    {
      "midi": 41,
      "hit": false,
      "t": 55924.21875,
      "d": 124.21875,
      "v": 55
    },
    {
      "midi": 38,
      "hit": false,
      "t": 56041.640625,
      "d": 125.15625,
      "v": 51
    },
    {
      "midi": 31,
      "hit": false,
      "t": 56160.9375,
      "d": 133.359375,
      "v": 54
    },
    {
      "midi": 71,
      "hit": false,
      "t": 56160.9375,
      "d": 718.828125,
      "v": 56
    },
    {
      "midi": 83,
      "hit": false,
      "t": 56160.9375,
      "d": 718.828125,
      "v": 70
    },
    {
      "midi": 38,
      "hit": false,
      "t": 56287.5,
      "d": 125.390625,
      "v": 51
    },
    {
      "midi": 41,
      "hit": false,
      "t": 56406.09375,
      "d": 126.09375,
      "v": 53
    },
    {
      "midi": 38,
      "hit": false,
      "t": 56525.390625,
      "d": 125.625,
      "v": 51
    },
    {
      "midi": 41,
      "hit": false,
      "t": 56644.21875,
      "d": 124.21875,
      "v": 55
    },
    {
      "midi": 38,
      "hit": false,
      "t": 56761.640625,
      "d": 125.15625,
      "v": 51
    },
    {
      "midi": 31,
      "hit": false,
      "t": 56880.9375,
      "d": 133.359375,
      "v": 54
    },
    {
      "midi": 69,
      "hit": false,
      "t": 56880.9375,
      "d": 718.828125,
      "v": 56
    },
    {
      "midi": 81,
      "hit": false,
      "t": 56880.9375,
      "d": 718.828125,
      "v": 70
    },
    {
      "midi": 38,
      "hit": false,
      "t": 57007.5,
      "d": 125.390625,
      "v": 51
    },
    {
      "midi": 41,
      "hit": false,
      "t": 57126.09375,
      "d": 126.09375,
      "v": 53
    },
    {
      "midi": 38,
      "hit": false,
      "t": 57245.390625,
      "d": 125.625,
      "v": 51
    },
    {
      "midi": 41,
      "hit": false,
      "t": 57364.21875,
      "d": 124.21875,
      "v": 55
    },
    {
      "midi": 38,
      "hit": false,
      "t": 57481.640625,
      "d": 125.15625,
      "v": 51
    },
    {
      "midi": 33,
      "hit": false,
      "t": 57600.9375,
      "d": 133.359375,
      "v": 54
    },
    {
      "midi": 64,
      "hit": false,
      "t": 57600.9375,
      "d": 718.828125,
      "v": 56
    },
    {
      "midi": 76,
      "hit": false,
      "t": 57600.9375,
      "d": 718.828125,
      "v": 70
    },
    {
      "midi": 40,
      "hit": false,
      "t": 57727.5,
      "d": 125.390625,
      "v": 51
    },
    {
      "midi": 45,
      "hit": false,
      "t": 57846.09375,
      "d": 126.09375,
      "v": 53
    },
    {
      "midi": 40,
      "hit": false,
      "t": 57965.390625,
      "d": 125.625,
      "v": 51
    },
    {
      "midi": 45,
      "hit": false,
      "t": 58084.21875,
      "d": 124.21875,
      "v": 55
    },
    {
      "midi": 40,
      "hit": false,
      "t": 58201.640625,
      "d": 125.15625,
      "v": 51
    },
    {
      "midi": 33,
      "hit": false,
      "t": 58320.9375,
      "d": 133.359375,
      "v": 54
    },
    {
      "midi": 62,
      "hit": false,
      "t": 58320.9375,
      "d": 718.828125,
      "v": 56
    },
    {
      "midi": 74,
      "hit": false,
      "t": 58320.9375,
      "d": 718.828125,
      "v": 70
    },
    {
      "midi": 40,
      "hit": false,
      "t": 58447.5,
      "d": 125.390625,
      "v": 51
    },
    {
      "midi": 45,
      "hit": false,
      "t": 58566.09375,
      "d": 126.09375,
      "v": 53
    },
    {
      "midi": 40,
      "hit": false,
      "t": 58685.390625,
      "d": 125.625,
      "v": 51
    },
    {
      "midi": 45,
      "hit": false,
      "t": 58804.21875,
      "d": 124.21875,
      "v": 55
    },
    {
      "midi": 40,
      "hit": false,
      "t": 58921.640625,
      "d": 125.15625,
      "v": 51
    },
    {
      "midi": 33,
      "hit": false,
      "t": 59040.9375,
      "d": 133.359375,
      "v": 54
    },
    {
      "midi": 64,
      "hit": false,
      "t": 59040.9375,
      "d": 718.828125,
      "v": 56
    },
    {
      "midi": 76,
      "hit": false,
      "t": 59040.9375,
      "d": 718.828125,
      "v": 70
    },
    {
      "midi": 40,
      "hit": false,
      "t": 59167.5,
      "d": 125.390625,
      "v": 51
    },
    {
      "midi": 45,
      "hit": false,
      "t": 59286.09375,
      "d": 126.09375,
      "v": 53
    },
    {
      "midi": 40,
      "hit": false,
      "t": 59405.390625,
      "d": 125.625,
      "v": 51
    },
    {
      "midi": 45,
      "hit": false,
      "t": 59524.21875,
      "d": 124.21875,
      "v": 55
    },
    {
      "midi": 40,
      "hit": false,
      "t": 59641.640625,
      "d": 125.15625,
      "v": 51
    },
    {
      "midi": 33,
      "hit": false,
      "t": 59760.9375,
      "d": 133.359375,
      "v": 54
    },
    {
      "midi": 60,
      "hit": false,
      "t": 59760.9375,
      "d": 718.828125,
      "v": 56
    },
    {
      "midi": 72,
      "hit": false,
      "t": 59760.9375,
      "d": 718.828125,
      "v": 70
    },
    {
      "midi": 40,
      "hit": false,
      "t": 59887.5,
      "d": 125.390625,
      "v": 51
    },
    {
      "midi": 45,
      "hit": false,
      "t": 60006.09375,
      "d": 126.09375,
      "v": 53
    },
    {
      "midi": 40,
      "hit": false,
      "t": 60125.390625,
      "d": 125.625,
      "v": 51
    },
    {
      "midi": 45,
      "hit": false,
      "t": 60244.21875,
      "d": 124.21875,
      "v": 55
    },
    {
      "midi": 40,
      "hit": false,
      "t": 60361.640625,
      "d": 125.15625,
      "v": 51
    },
    {
      "midi": 36,
      "hit": false,
      "t": 60480.9375,
      "d": 133.359375,
      "v": 55
    },
    {
      "midi": 59,
      "hit": false,
      "t": 60480.9375,
      "d": 718.828125,
      "v": 56
    },
    {
      "midi": 71,
      "hit": false,
      "t": 60480.9375,
      "d": 718.828125,
      "v": 70
    },
    {
      "midi": 45,
      "hit": false,
      "t": 60607.5,
      "d": 125.390625,
      "v": 52
    },
    {
      "midi": 48,
      "hit": false,
      "t": 60726.09375,
      "d": 126.09375,
      "v": 53
    },
    {
      "midi": 45,
      "hit": false,
      "t": 60845.390625,
      "d": 125.625,
      "v": 52
    },
    {
      "midi": 48,
      "hit": false,
      "t": 60964.21875,
      "d": 124.21875,
      "v": 55
    },
    {
      "midi": 45,
      "hit": false,
      "t": 61081.640625,
      "d": 125.15625,
      "v": 52
    },
    {
      "midi": 36,
      "hit": false,
      "t": 61200.9375,
      "d": 133.359375,
      "v": 55
    },
    {
      "midi": 60,
      "hit": false,
      "t": 61200.9375,
      "d": 718.828125,
      "v": 56
    },
    {
      "midi": 72,
      "hit": false,
      "t": 61200.9375,
      "d": 718.828125,
      "v": 70
    },
    {
      "midi": 45,
      "hit": false,
      "t": 61327.5,
      "d": 125.390625,
      "v": 52
    },
    {
      "midi": 48,
      "hit": false,
      "t": 61446.09375,
      "d": 126.09375,
      "v": 53
    },
    {
      "midi": 45,
      "hit": false,
      "t": 61565.390625,
      "d": 125.625,
      "v": 52
    },
    {
      "midi": 48,
      "hit": false,
      "t": 61684.21875,
      "d": 124.21875,
      "v": 55
    },
    {
      "midi": 45,
      "hit": false,
      "t": 61801.640625,
      "d": 125.15625,
      "v": 52
    },
    {
      "midi": 36,
      "hit": false,
      "t": 61920.9375,
      "d": 133.359375,
      "v": 55
    },
    {
      "midi": 59,
      "hit": false,
      "t": 61920.9375,
      "d": 718.828125,
      "v": 56
    },
    {
      "midi": 71,
      "hit": false,
      "t": 61920.9375,
      "d": 718.828125,
      "v": 70
    },
    {
      "midi": 45,
      "hit": false,
      "t": 62047.5,
      "d": 125.390625,
      "v": 52
    },
    {
      "midi": 48,
      "hit": false,
      "t": 62166.09375,
      "d": 126.09375,
      "v": 53
    },
    {
      "midi": 45,
      "hit": false,
      "t": 62285.390625,
      "d": 125.625,
      "v": 52
    },
    {
      "midi": 48,
      "hit": false,
      "t": 62404.21875,
      "d": 124.21875,
      "v": 55
    },
    {
      "midi": 45,
      "hit": false,
      "t": 62521.640625,
      "d": 125.15625,
      "v": 52
    },
    {
      "midi": 36,
      "hit": false,
      "t": 62640.9375,
      "d": 133.359375,
      "v": 55
    },
    {
      "midi": 57,
      "hit": false,
      "t": 62640.9375,
      "d": 718.828125,
      "v": 56
    },
    {
      "midi": 69,
      "hit": false,
      "t": 62640.9375,
      "d": 718.828125,
      "v": 70
    },
    {
      "midi": 45,
      "hit": false,
      "t": 62767.5,
      "d": 125.390625,
      "v": 52
    },
    {
      "midi": 48,
      "hit": false,
      "t": 62886.09375,
      "d": 126.09375,
      "v": 53
    },
    {
      "midi": 45,
      "hit": false,
      "t": 63005.390625,
      "d": 125.625,
      "v": 52
    },
    {
      "midi": 48,
      "hit": false,
      "t": 63124.21875,
      "d": 124.21875,
      "v": 55
    },
    {
      "midi": 45,
      "hit": false,
      "t": 63241.640625,
      "d": 125.15625,
      "v": 52
    },
    {
      "midi": 29,
      "hit": false,
      "t": 63360.9375,
      "d": 133.359375,
      "v": 53
    },
    {
      "midi": 62,
      "hit": false,
      "t": 63360.9375,
      "d": 718.828125,
      "v": 56
    },
    {
      "midi": 74,
      "hit": false,
      "t": 63360.9375,
      "d": 718.828125,
      "v": 70
    },
    {
      "midi": 36,
      "hit": false,
      "t": 63487.5,
      "d": 125.390625,
      "v": 50
    },
    {
      "midi": 41,
      "hit": false,
      "t": 63606.09375,
      "d": 126.09375,
      "v": 53
    },
    {
      "midi": 36,
      "hit": false,
      "t": 63725.390625,
      "d": 125.625,
      "v": 50
    },
    {
      "midi": 41,
      "hit": false,
      "t": 63844.21875,
      "d": 124.21875,
      "v": 55
    },
    {
      "midi": 36,
      "hit": false,
      "t": 63961.640625,
      "d": 125.15625,
      "v": 50
    },
    {
      "midi": 29,
      "hit": false,
      "t": 64080.9375,
      "d": 133.359375,
      "v": 53
    },
    {
      "midi": 60,
      "hit": false,
      "t": 64080.9375,
      "d": 718.828125,
      "v": 56
    },
    {
      "midi": 72,
      "hit": false,
      "t": 64080.9375,
      "d": 718.828125,
      "v": 70
    },
    {
      "midi": 36,
      "hit": false,
      "t": 64207.5,
      "d": 125.390625,
      "v": 50
    },
    {
      "midi": 41,
      "hit": false,
      "t": 64326.09375,
      "d": 126.09375,
      "v": 53
    },
    {
      "midi": 36,
      "hit": false,
      "t": 64445.390625,
      "d": 125.625,
      "v": 50
    },
    {
      "midi": 41,
      "hit": false,
      "t": 64564.21875,
      "d": 124.21875,
      "v": 55
    },
    {
      "midi": 36,
      "hit": false,
      "t": 64681.640625,
      "d": 125.15625,
      "v": 50
    },
    {
      "midi": 29,
      "hit": false,
      "t": 64800.9375,
      "d": 133.359375,
      "v": 53
    },
    {
      "midi": 59,
      "hit": false,
      "t": 64800.9375,
      "d": 718.828125,
      "v": 56
    },
    {
      "midi": 71,
      "hit": false,
      "t": 64800.9375,
      "d": 718.828125,
      "v": 70
    },
    {
      "midi": 36,
      "hit": false,
      "t": 64927.5,
      "d": 125.390625,
      "v": 50
    },
    {
      "midi": 41,
      "hit": false,
      "t": 65046.09375,
      "d": 126.09375,
      "v": 53
    },
    {
      "midi": 36,
      "hit": false,
      "t": 65165.390625,
      "d": 125.625,
      "v": 50
    },
    {
      "midi": 41,
      "hit": false,
      "t": 65284.21875,
      "d": 124.21875,
      "v": 55
    },
    {
      "midi": 36,
      "hit": false,
      "t": 65401.640625,
      "d": 125.15625,
      "v": 50
    },
    {
      "midi": 29,
      "hit": false,
      "t": 65520.9375,
      "d": 133.359375,
      "v": 53
    },
    {
      "midi": 57,
      "hit": false,
      "t": 65520.9375,
      "d": 718.828125,
      "v": 56
    },
    {
      "midi": 69,
      "hit": false,
      "t": 65520.9375,
      "d": 718.828125,
      "v": 70
    },
    {
      "midi": 36,
      "hit": false,
      "t": 65647.5,
      "d": 125.390625,
      "v": 50
    },
    {
      "midi": 41,
      "hit": false,
      "t": 65766.09375,
      "d": 126.09375,
      "v": 53
    },
    {
      "midi": 36,
      "hit": false,
      "t": 65885.390625,
      "d": 125.625,
      "v": 50
    },
    {
      "midi": 41,
      "hit": false,
      "t": 66004.21875,
      "d": 124.21875,
      "v": 55
    },
    {
      "midi": 36,
      "hit": false,
      "t": 66121.640625,
      "d": 125.15625,
      "v": 50
    },
    {
      "midi": 31,
      "hit": false,
      "t": 66240.9375,
      "d": 133.359375,
      "v": 54
    },
    {
      "midi": 55,
      "hit": false,
      "t": 66240.9375,
      "d": 718.828125,
      "v": 56
    },
    {
      "midi": 67,
      "hit": false,
      "t": 66240.9375,
      "d": 718.828125,
      "v": 70
    },
    {
      "midi": 38,
      "hit": false,
      "t": 66367.5,
      "d": 125.390625,
      "v": 51
    },
    {
      "midi": 41,
      "hit": false,
      "t": 66486.09375,
      "d": 126.09375,
      "v": 53
    },
    {
      "midi": 38,
      "hit": false,
      "t": 66605.390625,
      "d": 125.625,
      "v": 51
    },
    {
      "midi": 41,
      "hit": false,
      "t": 66724.21875,
      "d": 124.21875,
      "v": 55
    },
    {
      "midi": 38,
      "hit": false,
      "t": 66841.640625,
      "d": 125.15625,
      "v": 51
    },
    {
      "midi": 31,
      "hit": false,
      "t": 66960.9375,
      "d": 133.359375,
      "v": 54
    },
    {
      "midi": 57,
      "hit": false,
      "t": 66960.9375,
      "d": 718.828125,
      "v": 56
    },
    {
      "midi": 69,
      "hit": false,
      "t": 66960.9375,
      "d": 718.828125,
      "v": 70
    },
    {
      "midi": 38,
      "hit": false,
      "t": 67087.5,
      "d": 125.390625,
      "v": 51
    },
    {
      "midi": 41,
      "hit": false,
      "t": 67206.09375,
      "d": 126.09375,
      "v": 53
    },
    {
      "midi": 38,
      "hit": false,
      "t": 67325.390625,
      "d": 125.625,
      "v": 51
    },
    {
      "midi": 41,
      "hit": false,
      "t": 67444.21875,
      "d": 124.21875,
      "v": 55
    },
    {
      "midi": 38,
      "hit": false,
      "t": 67561.640625,
      "d": 125.15625,
      "v": 51
    },
    {
      "midi": 31,
      "hit": false,
      "t": 67680.9375,
      "d": 133.359375,
      "v": 54
    },
    {
      "midi": 53,
      "hit": false,
      "t": 67680.9375,
      "d": 718.828125,
      "v": 56
    },
    {
      "midi": 65,
      "hit": false,
      "t": 67680.9375,
      "d": 718.828125,
      "v": 70
    },
    {
      "midi": 38,
      "hit": false,
      "t": 67807.5,
      "d": 125.390625,
      "v": 51
    },
    {
      "midi": 41,
      "hit": false,
      "t": 67926.09375,
      "d": 126.09375,
      "v": 53
    },
    {
      "midi": 38,
      "hit": false,
      "t": 68045.390625,
      "d": 125.625,
      "v": 51
    },
    {
      "midi": 41,
      "hit": false,
      "t": 68164.21875,
      "d": 124.21875,
      "v": 55
    },
    {
      "midi": 38,
      "hit": false,
      "t": 68281.640625,
      "d": 125.15625,
      "v": 51
    },
    {
      "midi": 31,
      "hit": false,
      "t": 68400.9375,
      "d": 133.359375,
      "v": 54
    },
    {
      "midi": 50,
      "hit": false,
      "t": 68400.9375,
      "d": 718.828125,
      "v": 56
    },
    {
      "midi": 62,
      "hit": false,
      "t": 68400.9375,
      "d": 718.828125,
      "v": 70
    },
    {
      "midi": 38,
      "hit": false,
      "t": 68527.5,
      "d": 125.390625,
      "v": 51
    },
    {
      "midi": 41,
      "hit": false,
      "t": 68646.09375,
      "d": 126.09375,
      "v": 53
    },
    {
      "midi": 38,
      "hit": false,
      "t": 68765.390625,
      "d": 125.625,
      "v": 51
    },
    {
      "midi": 41,
      "hit": false,
      "t": 68884.21875,
      "d": 124.21875,
      "v": 55
    },
    {
      "midi": 38,
      "hit": false,
      "t": 69001.640625,
      "d": 125.15625,
      "v": 51
    },
    {
      "midi": 33,
      "hit": false,
      "t": 69120.9375,
      "d": 133.359375,
      "v": 54
    },
    {
      "midi": 52,
      "hit": false,
      "t": 69120.9375,
      "d": 364.21875,
      "v": 61
    },
    {
      "midi": 64,
      "hit": false,
      "t": 69120.9375,
      "d": 364.21875,
      "v": 75
    },
    {
      "midi": 40,
      "hit": false,
      "t": 69247.5,
      "d": 125.390625,
      "v": 51
    },
    {
      "midi": 45,
      "hit": false,
      "t": 69366.09375,
      "d": 126.09375,
      "v": 53
    },
    {
      "midi": 40,
      "hit": false,
      "t": 69485.390625,
      "d": 125.625,
      "v": 51
    },
    {
      "midi": 50,
      "hit": false,
      "t": 69485.390625,
      "d": 354.375,
      "v": 56
    },
    {
      "midi": 62,
      "hit": false,
      "t": 69485.390625,
      "d": 354.375,
      "v": 70
    },
    {
      "midi": 45,
      "hit": false,
      "t": 69604.21875,
      "d": 124.21875,
      "v": 55
    },
    {
      "midi": 40,
      "hit": false,
      "t": 69721.640625,
      "d": 125.15625,
      "v": 51
    },
    {
      "midi": 33,
      "hit": false,
      "t": 69840.9375,
      "d": 133.359375,
      "v": 54
    },
    {
      "midi": 52,
      "hit": false,
      "t": 69840.9375,
      "d": 364.21875,
      "v": 61
    },
    {
      "midi": 64,
      "hit": false,
      "t": 69840.9375,
      "d": 364.21875,
      "v": 75
    },
    {
      "midi": 40,
      "hit": false,
      "t": 69967.5,
      "d": 125.390625,
      "v": 51
    },
    {
      "midi": 45,
      "hit": false,
      "t": 70086.09375,
      "d": 126.09375,
      "v": 53
    },
    {
      "midi": 40,
      "hit": false,
      "t": 70205.390625,
      "d": 125.625,
      "v": 51
    },
    {
      "midi": 48,
      "hit": false,
      "t": 70205.390625,
      "d": 354.375,
      "v": 56
    },
    {
      "midi": 60,
      "hit": false,
      "t": 70205.390625,
      "d": 354.375,
      "v": 70
    },
    {
      "midi": 45,
      "hit": false,
      "t": 70324.21875,
      "d": 124.21875,
      "v": 55
    },
    {
      "midi": 40,
      "hit": false,
      "t": 70441.640625,
      "d": 125.15625,
      "v": 51
    },
    {
      "midi": 33,
      "hit": false,
      "t": 70560.9375,
      "d": 133.359375,
      "v": 54
    },
    {
      "midi": 57,
      "hit": false,
      "t": 70560.9375,
      "d": 364.21875,
      "v": 61
    },
    {
      "midi": 69,
      "hit": false,
      "t": 70560.9375,
      "d": 364.21875,
      "v": 75
    },
    {
      "midi": 40,
      "hit": false,
      "t": 70687.5,
      "d": 125.390625,
      "v": 51
    },
    {
      "midi": 45,
      "hit": false,
      "t": 70806.09375,
      "d": 126.09375,
      "v": 53
    },
    {
      "midi": 40,
      "hit": false,
      "t": 70925.390625,
      "d": 125.625,
      "v": 51
    },
    {
      "midi": 55,
      "hit": false,
      "t": 70925.390625,
      "d": 354.375,
      "v": 56
    },
    {
      "midi": 67,
      "hit": false,
      "t": 70925.390625,
      "d": 354.375,
      "v": 70
    },
    {
      "midi": 45,
      "hit": false,
      "t": 71044.21875,
      "d": 124.21875,
      "v": 55
    },
    {
      "midi": 40,
      "hit": false,
      "t": 71161.640625,
      "d": 125.15625,
      "v": 51
    },
    {
      "midi": 33,
      "hit": false,
      "t": 71280.9375,
      "d": 133.359375,
      "v": 54
    },
    {
      "midi": 57,
      "hit": false,
      "t": 71280.9375,
      "d": 364.21875,
      "v": 61
    },
    {
      "midi": 69,
      "hit": false,
      "t": 71280.9375,
      "d": 364.21875,
      "v": 75
    },
    {
      "midi": 40,
      "hit": false,
      "t": 71407.5,
      "d": 125.390625,
      "v": 51
    },
    {
      "midi": 45,
      "hit": false,
      "t": 71526.09375,
      "d": 126.09375,
      "v": 53
    },
    {
      "midi": 40,
      "hit": false,
      "t": 71645.390625,
      "d": 125.625,
      "v": 51
    },
    {
      "midi": 52,
      "hit": false,
      "t": 71645.390625,
      "d": 354.375,
      "v": 56
    },
    {
      "midi": 64,
      "hit": false,
      "t": 71645.390625,
      "d": 354.375,
      "v": 70
    },
    {
      "midi": 45,
      "hit": false,
      "t": 71764.21875,
      "d": 124.21875,
      "v": 55
    },
    {
      "midi": 40,
      "hit": false,
      "t": 71881.640625,
      "d": 125.15625,
      "v": 51
    },
    {
      "midi": 36,
      "hit": false,
      "t": 72000.9375,
      "d": 133.359375,
      "v": 55
    },
    {
      "midi": 59,
      "hit": false,
      "t": 72000.9375,
      "d": 364.21875,
      "v": 61
    },
    {
      "midi": 71,
      "hit": false,
      "t": 72000.9375,
      "d": 364.21875,
      "v": 75
    },
    {
      "midi": 45,
      "hit": false,
      "t": 72127.5,
      "d": 125.390625,
      "v": 52
    },
    {
      "midi": 48,
      "hit": false,
      "t": 72246.09375,
      "d": 126.09375,
      "v": 53
    },
    {
      "midi": 45,
      "hit": false,
      "t": 72365.390625,
      "d": 125.625,
      "v": 52
    },
    {
      "midi": 57,
      "hit": false,
      "t": 72365.390625,
      "d": 354.375,
      "v": 56
    },
    {
      "midi": 69,
      "hit": false,
      "t": 72365.390625,
      "d": 354.375,
      "v": 70
    },
    {
      "midi": 48,
      "hit": false,
      "t": 72484.21875,
      "d": 124.21875,
      "v": 55
    },
    {
      "midi": 45,
      "hit": false,
      "t": 72601.640625,
      "d": 125.15625,
      "v": 52
    },
    {
      "midi": 36,
      "hit": false,
      "t": 72720.9375,
      "d": 133.359375,
      "v": 55
    },
    {
      "midi": 59,
      "hit": false,
      "t": 72720.9375,
      "d": 364.21875,
      "v": 61
    },
    {
      "midi": 71,
      "hit": false,
      "t": 72720.9375,
      "d": 364.21875,
      "v": 75
    },
    {
      "midi": 45,
      "hit": false,
      "t": 72847.5,
      "d": 125.390625,
      "v": 52
    },
    {
      "midi": 48,
      "hit": false,
      "t": 72966.09375,
      "d": 126.09375,
      "v": 53
    },
    {
      "midi": 45,
      "hit": false,
      "t": 73085.390625,
      "d": 125.625,
      "v": 52
    },
    {
      "midi": 55,
      "hit": false,
      "t": 73085.390625,
      "d": 354.375,
      "v": 56
    },
    {
      "midi": 67,
      "hit": false,
      "t": 73085.390625,
      "d": 354.375,
      "v": 70
    },
    {
      "midi": 48,
      "hit": false,
      "t": 73204.21875,
      "d": 124.21875,
      "v": 55
    },
    {
      "midi": 45,
      "hit": false,
      "t": 73321.640625,
      "d": 125.15625,
      "v": 52
    },
    {
      "midi": 36,
      "hit": false,
      "t": 73440.9375,
      "d": 133.359375,
      "v": 55
    },
    {
      "midi": 60,
      "hit": false,
      "t": 73440.9375,
      "d": 364.21875,
      "v": 61
    },
    {
      "midi": 72,
      "hit": false,
      "t": 73440.9375,
      "d": 364.21875,
      "v": 75
    },
    {
      "midi": 45,
      "hit": false,
      "t": 73567.5,
      "d": 125.390625,
      "v": 52
    },
    {
      "midi": 48,
      "hit": false,
      "t": 73686.09375,
      "d": 126.09375,
      "v": 53
    },
    {
      "midi": 45,
      "hit": false,
      "t": 73805.390625,
      "d": 125.625,
      "v": 52
    },
    {
      "midi": 59,
      "hit": false,
      "t": 73805.390625,
      "d": 354.375,
      "v": 56
    },
    {
      "midi": 71,
      "hit": false,
      "t": 73805.390625,
      "d": 354.375,
      "v": 70
    },
    {
      "midi": 48,
      "hit": false,
      "t": 73924.21875,
      "d": 124.21875,
      "v": 55
    },
    {
      "midi": 45,
      "hit": false,
      "t": 74041.640625,
      "d": 125.15625,
      "v": 52
    },
    {
      "midi": 36,
      "hit": false,
      "t": 74160.9375,
      "d": 133.359375,
      "v": 55
    },
    {
      "midi": 60,
      "hit": false,
      "t": 74160.9375,
      "d": 364.21875,
      "v": 61
    },
    {
      "midi": 72,
      "hit": false,
      "t": 74160.9375,
      "d": 364.21875,
      "v": 75
    },
    {
      "midi": 45,
      "hit": false,
      "t": 74287.5,
      "d": 125.390625,
      "v": 52
    },
    {
      "midi": 48,
      "hit": false,
      "t": 74406.09375,
      "d": 126.09375,
      "v": 53
    },
    {
      "midi": 45,
      "hit": false,
      "t": 74525.390625,
      "d": 125.625,
      "v": 52
    },
    {
      "midi": 57,
      "hit": false,
      "t": 74525.390625,
      "d": 354.375,
      "v": 56
    },
    {
      "midi": 69,
      "hit": false,
      "t": 74525.390625,
      "d": 354.375,
      "v": 70
    },
    {
      "midi": 48,
      "hit": false,
      "t": 74644.21875,
      "d": 124.21875,
      "v": 55
    },
    {
      "midi": 45,
      "hit": false,
      "t": 74761.640625,
      "d": 125.15625,
      "v": 52
    },
    {
      "midi": 29,
      "hit": false,
      "t": 74880.9375,
      "d": 133.359375,
      "v": 53
    },
    {
      "midi": 62,
      "hit": false,
      "t": 74880.9375,
      "d": 364.21875,
      "v": 61
    },
    {
      "midi": 74,
      "hit": false,
      "t": 74880.9375,
      "d": 364.21875,
      "v": 75
    },
    {
      "midi": 36,
      "hit": false,
      "t": 75007.5,
      "d": 125.390625,
      "v": 50
    },
    {
      "midi": 41,
      "hit": false,
      "t": 75126.09375,
      "d": 126.09375,
      "v": 53
    },
    {
      "midi": 36,
      "hit": false,
      "t": 75245.390625,
      "d": 125.625,
      "v": 50
    },
    {
      "midi": 60,
      "hit": false,
      "t": 75245.390625,
      "d": 354.375,
      "v": 56
    },
    {
      "midi": 72,
      "hit": false,
      "t": 75245.390625,
      "d": 354.375,
      "v": 70
    },
    {
      "midi": 41,
      "hit": false,
      "t": 75364.21875,
      "d": 124.21875,
      "v": 55
    },
    {
      "midi": 36,
      "hit": false,
      "t": 75481.640625,
      "d": 125.15625,
      "v": 50
    },
    {
      "midi": 29,
      "hit": false,
      "t": 75600.9375,
      "d": 133.359375,
      "v": 53
    },
    {
      "midi": 62,
      "hit": false,
      "t": 75600.9375,
      "d": 364.21875,
      "v": 61
    },
    {
      "midi": 74,
      "hit": false,
      "t": 75600.9375,
      "d": 364.21875,
      "v": 75
    },
    {
      "midi": 36,
      "hit": false,
      "t": 75727.5,
      "d": 125.390625,
      "v": 50
    },
    {
      "midi": 41,
      "hit": false,
      "t": 75846.09375,
      "d": 126.09375,
      "v": 53
    },
    {
      "midi": 36,
      "hit": false,
      "t": 75965.390625,
      "d": 125.625,
      "v": 50
    },
    {
      "midi": 57,
      "hit": false,
      "t": 75965.390625,
      "d": 354.375,
      "v": 56
    },
    {
      "midi": 69,
      "hit": false,
      "t": 75965.390625,
      "d": 354.375,
      "v": 70
    },
    {
      "midi": 41,
      "hit": false,
      "t": 76084.21875,
      "d": 124.21875,
      "v": 55
    },
    {
      "midi": 36,
      "hit": false,
      "t": 76201.640625,
      "d": 125.15625,
      "v": 50
    },
    {
      "midi": 29,
      "hit": false,
      "t": 76320.9375,
      "d": 133.359375,
      "v": 53
    },
    {
      "midi": 64,
      "hit": false,
      "t": 76320.9375,
      "d": 364.21875,
      "v": 61
    },
    {
      "midi": 76,
      "hit": false,
      "t": 76320.9375,
      "d": 364.21875,
      "v": 75
    },
    {
      "midi": 36,
      "hit": false,
      "t": 76447.5,
      "d": 125.390625,
      "v": 50
    },
    {
      "midi": 41,
      "hit": false,
      "t": 76566.09375,
      "d": 126.09375,
      "v": 53
    },
    {
      "midi": 36,
      "hit": false,
      "t": 76685.390625,
      "d": 125.625,
      "v": 50
    },
    {
      "midi": 62,
      "hit": false,
      "t": 76685.390625,
      "d": 354.375,
      "v": 56
    },
    {
      "midi": 74,
      "hit": false,
      "t": 76685.390625,
      "d": 354.375,
      "v": 70
    },
    {
      "midi": 41,
      "hit": false,
      "t": 76804.21875,
      "d": 124.21875,
      "v": 55
    },
    {
      "midi": 36,
      "hit": false,
      "t": 76921.640625,
      "d": 125.15625,
      "v": 50
    },
    {
      "midi": 29,
      "hit": false,
      "t": 77040.9375,
      "d": 133.359375,
      "v": 53
    },
    {
      "midi": 64,
      "hit": false,
      "t": 77040.9375,
      "d": 364.21875,
      "v": 61
    },
    {
      "midi": 76,
      "hit": false,
      "t": 77040.9375,
      "d": 364.21875,
      "v": 75
    },
    {
      "midi": 36,
      "hit": false,
      "t": 77167.5,
      "d": 125.390625,
      "v": 50
    },
    {
      "midi": 41,
      "hit": false,
      "t": 77286.09375,
      "d": 126.09375,
      "v": 53
    },
    {
      "midi": 36,
      "hit": false,
      "t": 77405.390625,
      "d": 125.625,
      "v": 50
    },
    {
      "midi": 60,
      "hit": false,
      "t": 77405.390625,
      "d": 354.375,
      "v": 56
    },
    {
      "midi": 72,
      "hit": false,
      "t": 77405.390625,
      "d": 354.375,
      "v": 70
    },
    {
      "midi": 41,
      "hit": false,
      "t": 77524.21875,
      "d": 124.21875,
      "v": 55
    },
    {
      "midi": 36,
      "hit": false,
      "t": 77641.640625,
      "d": 125.15625,
      "v": 50
    },
    {
      "midi": 31,
      "hit": false,
      "t": 77760.9375,
      "d": 133.359375,
      "v": 54
    },
    {
      "midi": 65,
      "hit": false,
      "t": 77760.9375,
      "d": 364.21875,
      "v": 61
    },
    {
      "midi": 77,
      "hit": false,
      "t": 77760.9375,
      "d": 364.21875,
      "v": 75
    },
    {
      "midi": 38,
      "hit": false,
      "t": 77887.5,
      "d": 125.390625,
      "v": 51
    },
    {
      "midi": 41,
      "hit": false,
      "t": 78006.09375,
      "d": 126.09375,
      "v": 53
    },
    {
      "midi": 38,
      "hit": false,
      "t": 78125.390625,
      "d": 125.625,
      "v": 51
    },
    {
      "midi": 64,
      "hit": false,
      "t": 78125.390625,
      "d": 354.375,
      "v": 56
    },
    {
      "midi": 76,
      "hit": false,
      "t": 78125.390625,
      "d": 354.375,
      "v": 70
    },
    {
      "midi": 41,
      "hit": false,
      "t": 78244.21875,
      "d": 124.21875,
      "v": 55
    },
    {
      "midi": 38,
      "hit": false,
      "t": 78361.640625,
      "d": 125.15625,
      "v": 51
    },
    {
      "midi": 31,
      "hit": false,
      "t": 78480.9375,
      "d": 133.359375,
      "v": 54
    },
    {
      "midi": 65,
      "hit": false,
      "t": 78480.9375,
      "d": 364.21875,
      "v": 61
    },
    {
      "midi": 77,
      "hit": false,
      "t": 78480.9375,
      "d": 364.21875,
      "v": 75
    },
    {
      "midi": 38,
      "hit": false,
      "t": 78607.5,
      "d": 125.390625,
      "v": 51
    },
    {
      "midi": 41,
      "hit": false,
      "t": 78726.09375,
      "d": 126.09375,
      "v": 53
    },
    {
      "midi": 38,
      "hit": false,
      "t": 78845.390625,
      "d": 125.625,
      "v": 51
    },
    {
      "midi": 62,
      "hit": false,
      "t": 78845.390625,
      "d": 354.375,
      "v": 56
    },
    {
      "midi": 74,
      "hit": false,
      "t": 78845.390625,
      "d": 354.375,
      "v": 70
    },
    {
      "midi": 41,
      "hit": false,
      "t": 78964.21875,
      "d": 124.21875,
      "v": 55
    },
    {
      "midi": 38,
      "hit": false,
      "t": 79081.640625,
      "d": 125.15625,
      "v": 51
    },
    {
      "midi": 31,
      "hit": false,
      "t": 79200.9375,
      "d": 133.359375,
      "v": 54
    },
    {
      "midi": 69,
      "hit": false,
      "t": 79200.9375,
      "d": 364.21875,
      "v": 61
    },
    {
      "midi": 81,
      "hit": false,
      "t": 79200.9375,
      "d": 364.21875,
      "v": 75
    },
    {
      "midi": 38,
      "hit": false,
      "t": 79327.5,
      "d": 125.390625,
      "v": 51
    },
    {
      "midi": 41,
      "hit": false,
      "t": 79446.09375,
      "d": 126.09375,
      "v": 53
    },
    {
      "midi": 38,
      "hit": false,
      "t": 79565.390625,
      "d": 125.625,
      "v": 51
    },
    {
      "midi": 67,
      "hit": false,
      "t": 79565.390625,
      "d": 354.375,
      "v": 56
    },
    {
      "midi": 79,
      "hit": false,
      "t": 79565.390625,
      "d": 354.375,
      "v": 70
    },
    {
      "midi": 41,
      "hit": false,
      "t": 79684.21875,
      "d": 124.21875,
      "v": 55
    },
    {
      "midi": 38,
      "hit": false,
      "t": 79801.640625,
      "d": 125.15625,
      "v": 51
    },
    {
      "midi": 31,
      "hit": false,
      "t": 79920.9375,
      "d": 133.359375,
      "v": 54
    },
    {
      "midi": 69,
      "hit": false,
      "t": 79920.9375,
      "d": 364.21875,
      "v": 61
    },
    {
      "midi": 81,
      "hit": false,
      "t": 79920.9375,
      "d": 364.21875,
      "v": 75
    },
    {
      "midi": 38,
      "hit": false,
      "t": 80047.5,
      "d": 125.390625,
      "v": 51
    },
    {
      "midi": 41,
      "hit": false,
      "t": 80166.09375,
      "d": 126.09375,
      "v": 53
    },
    {
      "midi": 38,
      "hit": false,
      "t": 80285.390625,
      "d": 125.625,
      "v": 51
    },
    {
      "midi": 71,
      "hit": false,
      "t": 80285.390625,
      "d": 354.375,
      "v": 56
    },
    {
      "midi": 83,
      "hit": false,
      "t": 80285.390625,
      "d": 354.375,
      "v": 70
    },
    {
      "midi": 41,
      "hit": false,
      "t": 80404.21875,
      "d": 124.21875,
      "v": 55
    },
    {
      "midi": 38,
      "hit": false,
      "t": 80521.640625,
      "d": 125.15625,
      "v": 51
    },
    {
      "midi": 33,
      "hit": false,
      "t": 80640.9375,
      "d": 133.359375,
      "v": 54
    },
    {
      "midi": 72,
      "hit": false,
      "t": 80640.9375,
      "d": 364.21875,
      "v": 61
    },
    {
      "midi": 84,
      "hit": false,
      "t": 80640.9375,
      "d": 364.21875,
      "v": 75
    },
    {
      "midi": 40,
      "hit": false,
      "t": 80767.5,
      "d": 125.390625,
      "v": 51
    },
    {
      "midi": 45,
      "hit": false,
      "t": 80886.09375,
      "d": 126.09375,
      "v": 53
    },
    {
      "midi": 40,
      "hit": false,
      "t": 81005.390625,
      "d": 125.625,
      "v": 51
    },
    {
      "midi": 69,
      "hit": false,
      "t": 81005.390625,
      "d": 354.375,
      "v": 56
    },
    {
      "midi": 81,
      "hit": false,
      "t": 81005.390625,
      "d": 354.375,
      "v": 70
    },
    {
      "midi": 45,
      "hit": false,
      "t": 81124.21875,
      "d": 124.21875,
      "v": 55
    },
    {
      "midi": 40,
      "hit": false,
      "t": 81241.640625,
      "d": 125.15625,
      "v": 51
    },
    {
      "midi": 33,
      "hit": false,
      "t": 81360.9375,
      "d": 133.359375,
      "v": 54
    },
    {
      "midi": 72,
      "hit": false,
      "t": 81360.9375,
      "d": 364.21875,
      "v": 61
    },
    {
      "midi": 84,
      "hit": false,
      "t": 81360.9375,
      "d": 364.21875,
      "v": 75
    },
    {
      "midi": 40,
      "hit": false,
      "t": 81487.5,
      "d": 125.390625,
      "v": 51
    },
    {
      "midi": 45,
      "hit": false,
      "t": 81606.09375,
      "d": 126.09375,
      "v": 53
    },
    {
      "midi": 40,
      "hit": false,
      "t": 81725.390625,
      "d": 125.625,
      "v": 51
    },
    {
      "midi": 74,
      "hit": false,
      "t": 81725.390625,
      "d": 354.375,
      "v": 56
    },
    {
      "midi": 86,
      "hit": false,
      "t": 81725.390625,
      "d": 354.375,
      "v": 70
    },
    {
      "midi": 45,
      "hit": false,
      "t": 81844.21875,
      "d": 124.21875,
      "v": 55
    },
    {
      "midi": 40,
      "hit": false,
      "t": 81961.640625,
      "d": 125.15625,
      "v": 51
    },
    {
      "midi": 33,
      "hit": false,
      "t": 82080.9375,
      "d": 133.359375,
      "v": 54
    },
    {
      "midi": 76,
      "hit": false,
      "t": 82080.9375,
      "d": 364.21875,
      "v": 61
    },
    {
      "midi": 88,
      "hit": false,
      "t": 82080.9375,
      "d": 364.21875,
      "v": 75
    },
    {
      "midi": 40,
      "hit": false,
      "t": 82207.5,
      "d": 125.390625,
      "v": 51
    },
    {
      "midi": 45,
      "hit": false,
      "t": 82326.09375,
      "d": 126.09375,
      "v": 53
    },
    {
      "midi": 40,
      "hit": false,
      "t": 82445.390625,
      "d": 125.625,
      "v": 51
    },
    {
      "midi": 72,
      "hit": false,
      "t": 82445.390625,
      "d": 354.375,
      "v": 56
    },
    {
      "midi": 84,
      "hit": false,
      "t": 82445.390625,
      "d": 354.375,
      "v": 70
    },
    {
      "midi": 45,
      "hit": false,
      "t": 82564.21875,
      "d": 124.21875,
      "v": 55
    },
    {
      "midi": 40,
      "hit": false,
      "t": 82681.640625,
      "d": 125.15625,
      "v": 51
    },
    {
      "midi": 33,
      "hit": false,
      "t": 82800.9375,
      "d": 133.359375,
      "v": 54
    },
    {
      "midi": 74,
      "hit": false,
      "t": 82800.9375,
      "d": 364.21875,
      "v": 61
    },
    {
      "midi": 86,
      "hit": false,
      "t": 82800.9375,
      "d": 364.21875,
      "v": 75
    },
    {
      "midi": 40,
      "hit": false,
      "t": 82927.5,
      "d": 125.390625,
      "v": 51
    },
    {
      "midi": 45,
      "hit": false,
      "t": 83046.09375,
      "d": 126.09375,
      "v": 53
    },
    {
      "midi": 40,
      "hit": false,
      "t": 83165.390625,
      "d": 125.625,
      "v": 51
    },
    {
      "midi": 76,
      "hit": false,
      "t": 83165.390625,
      "d": 354.375,
      "v": 56
    },
    {
      "midi": 88,
      "hit": false,
      "t": 83165.390625,
      "d": 354.375,
      "v": 70
    },
    {
      "midi": 45,
      "hit": false,
      "t": 83284.21875,
      "d": 124.21875,
      "v": 55
    },
    {
      "midi": 40,
      "hit": false,
      "t": 83401.640625,
      "d": 125.15625,
      "v": 51
    },
    {
      "midi": 36,
      "hit": false,
      "t": 83520.9375,
      "d": 133.359375,
      "v": 55
    },
    {
      "midi": 81,
      "hit": false,
      "t": 83520.9375,
      "d": 364.21875,
      "v": 61
    },
    {
      "midi": 93,
      "hit": false,
      "t": 83520.9375,
      "d": 364.21875,
      "v": 75
    },
    {
      "midi": 45,
      "hit": false,
      "t": 83647.5,
      "d": 125.390625,
      "v": 52
    },
    {
      "midi": 48,
      "hit": false,
      "t": 83766.09375,
      "d": 126.09375,
      "v": 53
    },
    {
      "midi": 45,
      "hit": false,
      "t": 83885.390625,
      "d": 125.625,
      "v": 52
    },
    {
      "midi": 76,
      "hit": false,
      "t": 83885.390625,
      "d": 354.375,
      "v": 56
    },
    {
      "midi": 88,
      "hit": false,
      "t": 83885.390625,
      "d": 354.375,
      "v": 70
    },
    {
      "midi": 48,
      "hit": false,
      "t": 84004.21875,
      "d": 124.21875,
      "v": 55
    },
    {
      "midi": 45,
      "hit": false,
      "t": 84121.640625,
      "d": 125.15625,
      "v": 52
    },
    {
      "midi": 36,
      "hit": false,
      "t": 84240.9375,
      "d": 133.359375,
      "v": 55
    },
    {
      "midi": 81,
      "hit": false,
      "t": 84240.9375,
      "d": 364.21875,
      "v": 61
    },
    {
      "midi": 93,
      "hit": false,
      "t": 84240.9375,
      "d": 364.21875,
      "v": 75
    },
    {
      "midi": 45,
      "hit": false,
      "t": 84367.5,
      "d": 125.390625,
      "v": 52
    },
    {
      "midi": 48,
      "hit": false,
      "t": 84486.09375,
      "d": 126.09375,
      "v": 53
    },
    {
      "midi": 45,
      "hit": false,
      "t": 84605.390625,
      "d": 125.625,
      "v": 52
    },
    {
      "midi": 83,
      "hit": false,
      "t": 84605.390625,
      "d": 354.375,
      "v": 56
    },
    {
      "midi": 95,
      "hit": false,
      "t": 84605.390625,
      "d": 354.375,
      "v": 70
    },
    {
      "midi": 48,
      "hit": false,
      "t": 84724.21875,
      "d": 124.21875,
      "v": 55
    },
    {
      "midi": 45,
      "hit": false,
      "t": 84841.640625,
      "d": 125.15625,
      "v": 52
    },
    {
      "midi": 36,
      "hit": false,
      "t": 84960.9375,
      "d": 133.359375,
      "v": 55
    },
    {
      "midi": 84,
      "hit": false,
      "t": 84960.9375,
      "d": 364.21875,
      "v": 61
    },
    {
      "midi": 96,
      "hit": false,
      "t": 84960.9375,
      "d": 364.21875,
      "v": 75
    },
    {
      "midi": 45,
      "hit": false,
      "t": 85087.5,
      "d": 125.390625,
      "v": 52
    },
    {
      "midi": 48,
      "hit": false,
      "t": 85206.09375,
      "d": 126.09375,
      "v": 53
    },
    {
      "midi": 45,
      "hit": false,
      "t": 85325.390625,
      "d": 125.625,
      "v": 52
    },
    {
      "midi": 81,
      "hit": false,
      "t": 85325.390625,
      "d": 354.375,
      "v": 56
    },
    {
      "midi": 93,
      "hit": false,
      "t": 85325.390625,
      "d": 354.375,
      "v": 70
    },
    {
      "midi": 48,
      "hit": false,
      "t": 85444.21875,
      "d": 124.21875,
      "v": 55
    },
    {
      "midi": 45,
      "hit": false,
      "t": 85561.640625,
      "d": 125.15625,
      "v": 52
    },
    {
      "midi": 36,
      "hit": false,
      "t": 85680.9375,
      "d": 133.359375,
      "v": 55
    },
    {
      "midi": 84,
      "hit": false,
      "t": 85680.9375,
      "d": 364.21875,
      "v": 61
    },
    {
      "midi": 96,
      "hit": false,
      "t": 85680.9375,
      "d": 364.21875,
      "v": 75
    },
    {
      "midi": 45,
      "hit": false,
      "t": 85807.5,
      "d": 125.390625,
      "v": 52
    },
    {
      "midi": 48,
      "hit": false,
      "t": 85926.09375,
      "d": 126.09375,
      "v": 53
    },
    {
      "midi": 45,
      "hit": false,
      "t": 86045.390625,
      "d": 125.625,
      "v": 52
    },
    {
      "midi": 86,
      "hit": false,
      "t": 86045.390625,
      "d": 354.375,
      "v": 56
    },
    {
      "midi": 98,
      "hit": false,
      "t": 86045.390625,
      "d": 354.375,
      "v": 70
    },
    {
      "midi": 48,
      "hit": false,
      "t": 86164.21875,
      "d": 124.21875,
      "v": 55
    },
    {
      "midi": 45,
      "hit": false,
      "t": 86281.640625,
      "d": 125.15625,
      "v": 52
    },
    {
      "midi": 29,
      "hit": false,
      "t": 86400.9375,
      "d": 133.359375,
      "v": 53
    },
    {
      "midi": 88,
      "hit": false,
      "t": 86400.9375,
      "d": 364.21875,
      "v": 61
    },
    {
      "midi": 100,
      "hit": false,
      "t": 86400.9375,
      "d": 364.21875,
      "v": 75
    },
    {
      "midi": 36,
      "hit": false,
      "t": 86527.5,
      "d": 125.390625,
      "v": 50
    },
    {
      "midi": 41,
      "hit": false,
      "t": 86646.09375,
      "d": 126.09375,
      "v": 53
    },
    {
      "midi": 36,
      "hit": false,
      "t": 86765.390625,
      "d": 125.625,
      "v": 50
    },
    {
      "midi": 81,
      "hit": false,
      "t": 86765.390625,
      "d": 354.375,
      "v": 56
    },
    {
      "midi": 93,
      "hit": false,
      "t": 86765.390625,
      "d": 354.375,
      "v": 70
    },
    {
      "midi": 41,
      "hit": false,
      "t": 86884.21875,
      "d": 124.21875,
      "v": 55
    },
    {
      "midi": 36,
      "hit": false,
      "t": 87001.640625,
      "d": 125.15625,
      "v": 50
    },
    {
      "midi": 29,
      "hit": false,
      "t": 87120.9375,
      "d": 133.359375,
      "v": 53
    },
    {
      "midi": 88,
      "hit": false,
      "t": 87120.9375,
      "d": 364.21875,
      "v": 61
    },
    {
      "midi": 100,
      "hit": false,
      "t": 87120.9375,
      "d": 364.21875,
      "v": 75
    },
    {
      "midi": 36,
      "hit": false,
      "t": 87247.5,
      "d": 125.390625,
      "v": 50
    },
    {
      "midi": 41,
      "hit": false,
      "t": 87366.09375,
      "d": 126.09375,
      "v": 53
    },
    {
      "midi": 36,
      "hit": false,
      "t": 87485.390625,
      "d": 125.625,
      "v": 50
    },
    {
      "midi": 89,
      "hit": false,
      "t": 87485.390625,
      "d": 354.375,
      "v": 56
    },
    {
      "midi": 101,
      "hit": false,
      "t": 87485.390625,
      "d": 354.375,
      "v": 70
    },
    {
      "midi": 41,
      "hit": false,
      "t": 87604.21875,
      "d": 124.21875,
      "v": 55
    },
    {
      "midi": 36,
      "hit": false,
      "t": 87721.640625,
      "d": 125.15625,
      "v": 50
    },
    {
      "midi": 29,
      "hit": false,
      "t": 87840.9375,
      "d": 133.359375,
      "v": 53
    },
    {
      "midi": 88,
      "hit": false,
      "t": 87840.9375,
      "d": 364.21875,
      "v": 61
    },
    {
      "midi": 100,
      "hit": false,
      "t": 87840.9375,
      "d": 364.21875,
      "v": 75
    },
    {
      "midi": 36,
      "hit": false,
      "t": 87967.5,
      "d": 125.390625,
      "v": 50
    },
    {
      "midi": 41,
      "hit": false,
      "t": 88086.09375,
      "d": 126.09375,
      "v": 53
    },
    {
      "midi": 36,
      "hit": false,
      "t": 88205.390625,
      "d": 125.625,
      "v": 50
    },
    {
      "midi": 89,
      "hit": false,
      "t": 88205.390625,
      "d": 354.375,
      "v": 56
    },
    {
      "midi": 101,
      "hit": false,
      "t": 88205.390625,
      "d": 354.375,
      "v": 70
    },
    {
      "midi": 41,
      "hit": false,
      "t": 88324.21875,
      "d": 124.21875,
      "v": 55
    },
    {
      "midi": 36,
      "hit": false,
      "t": 88441.640625,
      "d": 125.15625,
      "v": 50
    },
    {
      "midi": 29,
      "hit": false,
      "t": 88560.9375,
      "d": 133.359375,
      "v": 53
    },
    {
      "midi": 88,
      "hit": false,
      "t": 88560.9375,
      "d": 364.21875,
      "v": 61
    },
    {
      "midi": 100,
      "hit": false,
      "t": 88560.9375,
      "d": 364.21875,
      "v": 75
    },
    {
      "midi": 36,
      "hit": false,
      "t": 88687.5,
      "d": 125.390625,
      "v": 50
    },
    {
      "midi": 41,
      "hit": false,
      "t": 88806.09375,
      "d": 126.09375,
      "v": 53
    },
    {
      "midi": 36,
      "hit": false,
      "t": 88925.390625,
      "d": 125.625,
      "v": 50
    },
    {
      "midi": 89,
      "hit": false,
      "t": 88925.390625,
      "d": 354.375,
      "v": 56
    },
    {
      "midi": 101,
      "hit": false,
      "t": 88925.390625,
      "d": 354.375,
      "v": 70
    },
    {
      "midi": 41,
      "hit": false,
      "t": 89044.21875,
      "d": 124.21875,
      "v": 55
    },
    {
      "midi": 36,
      "hit": false,
      "t": 89161.640625,
      "d": 125.15625,
      "v": 50
    },
    {
      "midi": 31,
      "hit": false,
      "t": 89280.9375,
      "d": 133.359375,
      "v": 54
    },
    {
      "midi": 88,
      "hit": false,
      "t": 89280.9375,
      "d": 364.21875,
      "v": 61
    },
    {
      "midi": 100,
      "hit": false,
      "t": 89280.9375,
      "d": 364.21875,
      "v": 75
    },
    {
      "midi": 38,
      "hit": false,
      "t": 89407.5,
      "d": 125.390625,
      "v": 51
    },
    {
      "midi": 41,
      "hit": false,
      "t": 89526.09375,
      "d": 126.09375,
      "v": 53
    },
    {
      "midi": 38,
      "hit": false,
      "t": 89645.390625,
      "d": 125.625,
      "v": 51
    },
    {
      "midi": 89,
      "hit": false,
      "t": 89645.390625,
      "d": 354.375,
      "v": 56
    },
    {
      "midi": 101,
      "hit": false,
      "t": 89645.390625,
      "d": 354.375,
      "v": 70
    },
    {
      "midi": 41,
      "hit": false,
      "t": 89764.21875,
      "d": 124.21875,
      "v": 55
    },
    {
      "midi": 38,
      "hit": false,
      "t": 89881.640625,
      "d": 125.15625,
      "v": 51
    },
    {
      "midi": 31,
      "hit": false,
      "t": 90000.9375,
      "d": 133.359375,
      "v": 54
    },
    {
      "midi": 88,
      "hit": false,
      "t": 90000.9375,
      "d": 364.21875,
      "v": 61
    },
    {
      "midi": 100,
      "hit": false,
      "t": 90000.9375,
      "d": 364.21875,
      "v": 75
    },
    {
      "midi": 38,
      "hit": false,
      "t": 90127.5,
      "d": 125.390625,
      "v": 51
    },
    {
      "midi": 41,
      "hit": false,
      "t": 90246.09375,
      "d": 126.09375,
      "v": 53
    },
    {
      "midi": 38,
      "hit": false,
      "t": 90365.390625,
      "d": 125.625,
      "v": 51
    },
    {
      "midi": 89,
      "hit": false,
      "t": 90365.390625,
      "d": 354.375,
      "v": 56
    },
    {
      "midi": 101,
      "hit": false,
      "t": 90365.390625,
      "d": 354.375,
      "v": 70
    },
    {
      "midi": 41,
      "hit": false,
      "t": 90484.21875,
      "d": 124.21875,
      "v": 55
    },
    {
      "midi": 38,
      "hit": false,
      "t": 90601.640625,
      "d": 125.15625,
      "v": 51
    },
    {
      "midi": 31,
      "hit": false,
      "t": 90720.9375,
      "d": 133.359375,
      "v": 54
    },
    {
      "midi": 88,
      "hit": false,
      "t": 90720.9375,
      "d": 364.21875,
      "v": 61
    },
    {
      "midi": 100,
      "hit": false,
      "t": 90720.9375,
      "d": 364.21875,
      "v": 75
    },
    {
      "midi": 38,
      "hit": false,
      "t": 90847.5,
      "d": 125.390625,
      "v": 51
    },
    {
      "midi": 41,
      "hit": false,
      "t": 90966.09375,
      "d": 126.09375,
      "v": 53
    },
    {
      "midi": 38,
      "hit": false,
      "t": 91085.390625,
      "d": 125.625,
      "v": 51
    },
    {
      "midi": 89,
      "hit": false,
      "t": 91085.390625,
      "d": 354.375,
      "v": 56
    },
    {
      "midi": 101,
      "hit": false,
      "t": 91085.390625,
      "d": 354.375,
      "v": 70
    },
    {
      "midi": 41,
      "hit": false,
      "t": 91204.21875,
      "d": 124.21875,
      "v": 55
    },
    {
      "midi": 38,
      "hit": false,
      "t": 91321.640625,
      "d": 125.15625,
      "v": 51
    },
    {
      "midi": 31,
      "hit": false,
      "t": 91440.9375,
      "d": 133.359375,
      "v": 54
    },
    {
      "midi": 88,
      "hit": false,
      "t": 91440.9375,
      "d": 364.21875,
      "v": 61
    },
    {
      "midi": 100,
      "hit": false,
      "t": 91440.9375,
      "d": 364.21875,
      "v": 75
    },
    {
      "midi": 38,
      "hit": false,
      "t": 91567.5,
      "d": 125.390625,
      "v": 51
    },
    {
      "midi": 41,
      "hit": false,
      "t": 91686.09375,
      "d": 126.09375,
      "v": 53
    },
    {
      "midi": 38,
      "hit": false,
      "t": 91805.390625,
      "d": 125.625,
      "v": 51
    },
    {
      "midi": 86,
      "hit": false,
      "t": 91805.390625,
      "d": 354.375,
      "v": 56
    },
    {
      "midi": 98,
      "hit": false,
      "t": 91805.390625,
      "d": 354.375,
      "v": 70
    },
    {
      "midi": 41,
      "hit": false,
      "t": 91924.21875,
      "d": 124.21875,
      "v": 55
    },
    {
      "midi": 38,
      "hit": false,
      "t": 92041.640625,
      "d": 125.15625,
      "v": 51
    },
    {
      "midi": 33,
      "hit": false,
      "t": 92160.9375,
      "d": 133.359375,
      "v": 54
    },
    {
      "midi": 76,
      "hit": false,
      "t": 92160.9375,
      "d": 244.921875,
      "v": 61
    },
    {
      "midi": 88,
      "hit": false,
      "t": 92160.9375,
      "d": 244.921875,
      "v": 75
    },
    {
      "midi": 40,
      "hit": false,
      "t": 92287.5,
      "d": 125.390625,
      "v": 51
    },
    {
      "midi": 77,
      "hit": false,
      "t": 92406.09375,
      "d": 112.03125,
      "v": 57
    },
    {
      "midi": 89,
      "hit": false,
      "t": 92406.09375,
      "d": 112.03125,
      "v": 71
    },
    {
      "midi": 45,
      "hit": false,
      "t": 92406.09375,
      "d": 126.09375,
      "v": 53
    },
    {
      "midi": 40,
      "hit": false,
      "t": 92525.390625,
      "d": 125.625,
      "v": 51
    },
    {
      "midi": 76,
      "hit": false,
      "t": 92525.390625,
      "d": 236.015625,
      "v": 56
    },
    {
      "midi": 88,
      "hit": false,
      "t": 92525.390625,
      "d": 236.015625,
      "v": 70
    },
    {
      "midi": 45,
      "hit": false,
      "t": 92644.21875,
      "d": 124.21875,
      "v": 55
    },
    {
      "midi": 74,
      "hit": false,
      "t": 92761.640625,
      "d": 111.09375,
      "v": 56
    },
    {
      "midi": 86,
      "hit": false,
      "t": 92761.640625,
      "d": 111.09375,
      "v": 70
    },
    {
      "midi": 40,
      "hit": false,
      "t": 92761.640625,
      "d": 125.15625,
      "v": 51
    },
    {
      "midi": 33,
      "hit": false,
      "t": 92880.9375,
      "d": 133.359375,
      "v": 54
    },
    {
      "midi": 72,
      "hit": false,
      "t": 92880.9375,
      "d": 244.921875,
      "v": 61
    },
    {
      "midi": 84,
      "hit": false,
      "t": 92880.9375,
      "d": 244.921875,
      "v": 75
    },
    {
      "midi": 40,
      "hit": false,
      "t": 93007.5,
      "d": 125.390625,
      "v": 51
    },
    {
      "midi": 74,
      "hit": false,
      "t": 93126.09375,
      "d": 112.03125,
      "v": 57
    },
    {
      "midi": 86,
      "hit": false,
      "t": 93126.09375,
      "d": 112.03125,
      "v": 71
    },
    {
      "midi": 45,
      "hit": false,
      "t": 93126.09375,
      "d": 126.09375,
      "v": 53
    },
    {
      "midi": 40,
      "hit": false,
      "t": 93245.390625,
      "d": 125.625,
      "v": 51
    },
    {
      "midi": 72,
      "hit": false,
      "t": 93245.390625,
      "d": 236.015625,
      "v": 56
    },
    {
      "midi": 84,
      "hit": false,
      "t": 93245.390625,
      "d": 236.015625,
      "v": 70
    },
    {
      "midi": 45,
      "hit": false,
      "t": 93364.21875,
      "d": 124.21875,
      "v": 55
    },
    {
      "midi": 71,
      "hit": false,
      "t": 93481.640625,
      "d": 111.09375,
      "v": 56
    },
    {
      "midi": 83,
      "hit": false,
      "t": 93481.640625,
      "d": 111.09375,
      "v": 70
    },
    {
      "midi": 40,
      "hit": false,
      "t": 93481.640625,
      "d": 125.15625,
      "v": 51
    },
    {
      "midi": 33,
      "hit": false,
      "t": 93600.9375,
      "d": 133.359375,
      "v": 54
    },
    {
      "midi": 69,
      "hit": false,
      "t": 93600.9375,
      "d": 244.921875,
      "v": 61
    },
    {
      "midi": 81,
      "hit": false,
      "t": 93600.9375,
      "d": 244.921875,
      "v": 75
    },
    {
      "midi": 40,
      "hit": false,
      "t": 93727.5,
      "d": 125.390625,
      "v": 51
    },
    {
      "midi": 71,
      "hit": false,
      "t": 93846.09375,
      "d": 112.03125,
      "v": 57
    },
    {
      "midi": 83,
      "hit": false,
      "t": 93846.09375,
      "d": 112.03125,
      "v": 71
    },
    {
      "midi": 45,
      "hit": false,
      "t": 93846.09375,
      "d": 126.09375,
      "v": 53
    },
    {
      "midi": 40,
      "hit": false,
      "t": 93965.390625,
      "d": 125.625,
      "v": 51
    },
    {
      "midi": 69,
      "hit": false,
      "t": 93965.390625,
      "d": 236.015625,
      "v": 56
    },
    {
      "midi": 81,
      "hit": false,
      "t": 93965.390625,
      "d": 236.015625,
      "v": 70
    },
    {
      "midi": 45,
      "hit": false,
      "t": 94084.21875,
      "d": 124.21875,
      "v": 55
    },
    {
      "midi": 67,
      "hit": false,
      "t": 94201.640625,
      "d": 111.09375,
      "v": 56
    },
    {
      "midi": 79,
      "hit": false,
      "t": 94201.640625,
      "d": 111.09375,
      "v": 70
    },
    {
      "midi": 40,
      "hit": false,
      "t": 94201.640625,
      "d": 125.15625,
      "v": 51
    },
    {
      "midi": 33,
      "hit": false,
      "t": 94320.9375,
      "d": 133.359375,
      "v": 54
    },
    {
      "midi": 65,
      "hit": false,
      "t": 94320.9375,
      "d": 244.921875,
      "v": 61
    },
    {
      "midi": 77,
      "hit": false,
      "t": 94320.9375,
      "d": 244.921875,
      "v": 75
    },
    {
      "midi": 40,
      "hit": false,
      "t": 94447.5,
      "d": 125.390625,
      "v": 51
    },
    {
      "midi": 67,
      "hit": false,
      "t": 94566.09375,
      "d": 112.03125,
      "v": 57
    },
    {
      "midi": 79,
      "hit": false,
      "t": 94566.09375,
      "d": 112.03125,
      "v": 71
    },
    {
      "midi": 45,
      "hit": false,
      "t": 94566.09375,
      "d": 126.09375,
      "v": 53
    },
    {
      "midi": 40,
      "hit": false,
      "t": 94685.390625,
      "d": 125.625,
      "v": 51
    },
    {
      "midi": 65,
      "hit": false,
      "t": 94685.390625,
      "d": 236.015625,
      "v": 56
    },
    {
      "midi": 77,
      "hit": false,
      "t": 94685.390625,
      "d": 236.015625,
      "v": 70
    },
    {
      "midi": 45,
      "hit": false,
      "t": 94804.21875,
      "d": 124.21875,
      "v": 55
    },
    {
      "midi": 64,
      "hit": false,
      "t": 94921.640625,
      "d": 111.09375,
      "v": 56
    },
    {
      "midi": 76,
      "hit": false,
      "t": 94921.640625,
      "d": 111.09375,
      "v": 70
    },
    {
      "midi": 40,
      "hit": false,
      "t": 94921.640625,
      "d": 125.15625,
      "v": 51
    },
    {
      "midi": 36,
      "hit": false,
      "t": 95040.9375,
      "d": 133.359375,
      "v": 55
    },
    {
      "midi": 62,
      "hit": false,
      "t": 95040.9375,
      "d": 244.921875,
      "v": 61
    },
    {
      "midi": 74,
      "hit": false,
      "t": 95040.9375,
      "d": 244.921875,
      "v": 75
    },
    {
      "midi": 45,
      "hit": false,
      "t": 95167.5,
      "d": 125.390625,
      "v": 52
    },
    {
      "midi": 64,
      "hit": false,
      "t": 95286.09375,
      "d": 112.03125,
      "v": 57
    },
    {
      "midi": 76,
      "hit": false,
      "t": 95286.09375,
      "d": 112.03125,
      "v": 71
    },
    {
      "midi": 48,
      "hit": false,
      "t": 95286.09375,
      "d": 126.09375,
      "v": 53
    },
    {
      "midi": 45,
      "hit": false,
      "t": 95405.390625,
      "d": 125.625,
      "v": 52
    },
    {
      "midi": 62,
      "hit": false,
      "t": 95405.390625,
      "d": 236.015625,
      "v": 56
    },
    {
      "midi": 74,
      "hit": false,
      "t": 95405.390625,
      "d": 236.015625,
      "v": 70
    },
    {
      "midi": 48,
      "hit": false,
      "t": 95524.21875,
      "d": 124.21875,
      "v": 55
    },
    {
      "midi": 60,
      "hit": false,
      "t": 95641.640625,
      "d": 111.09375,
      "v": 56
    },
    {
      "midi": 72,
      "hit": false,
      "t": 95641.640625,
      "d": 111.09375,
      "v": 70
    },
    {
      "midi": 45,
      "hit": false,
      "t": 95641.640625,
      "d": 125.15625,
      "v": 52
    },
    {
      "midi": 36,
      "hit": false,
      "t": 95760.9375,
      "d": 133.359375,
      "v": 55
    },
    {
      "midi": 59,
      "hit": false,
      "t": 95760.9375,
      "d": 244.921875,
      "v": 61
    },
    {
      "midi": 71,
      "hit": false,
      "t": 95760.9375,
      "d": 244.921875,
      "v": 75
    },
    {
      "midi": 45,
      "hit": false,
      "t": 95887.5,
      "d": 125.390625,
      "v": 52
    },
    {
      "midi": 60,
      "hit": false,
      "t": 96006.09375,
      "d": 112.03125,
      "v": 57
    },
    {
      "midi": 72,
      "hit": false,
      "t": 96006.09375,
      "d": 112.03125,
      "v": 71
    },
    {
      "midi": 48,
      "hit": false,
      "t": 96006.09375,
      "d": 126.09375,
      "v": 53
    },
    {
      "midi": 45,
      "hit": false,
      "t": 96125.390625,
      "d": 125.625,
      "v": 52
    },
    {
      "midi": 59,
      "hit": false,
      "t": 96125.390625,
      "d": 236.015625,
      "v": 56
    },
    {
      "midi": 71,
      "hit": false,
      "t": 96125.390625,
      "d": 236.015625,
      "v": 70
    },
    {
      "midi": 48,
      "hit": false,
      "t": 96244.21875,
      "d": 124.21875,
      "v": 55
    },
    {
      "midi": 57,
      "hit": false,
      "t": 96361.640625,
      "d": 111.09375,
      "v": 56
    },
    {
      "midi": 69,
      "hit": false,
      "t": 96361.640625,
      "d": 111.09375,
      "v": 70
    },
    {
      "midi": 45,
      "hit": false,
      "t": 96361.640625,
      "d": 125.15625,
      "v": 52
    },
    {
      "midi": 36,
      "hit": false,
      "t": 96480.9375,
      "d": 133.359375,
      "v": 55
    },
    {
      "midi": 55,
      "hit": false,
      "t": 96480.9375,
      "d": 244.921875,
      "v": 61
    },
    {
      "midi": 67,
      "hit": false,
      "t": 96480.9375,
      "d": 244.921875,
      "v": 75
    },
    {
      "midi": 45,
      "hit": false,
      "t": 96607.5,
      "d": 125.390625,
      "v": 52
    },
    {
      "midi": 57,
      "hit": false,
      "t": 96726.09375,
      "d": 112.03125,
      "v": 57
    },
    {
      "midi": 69,
      "hit": false,
      "t": 96726.09375,
      "d": 112.03125,
      "v": 71
    },
    {
      "midi": 48,
      "hit": false,
      "t": 96726.09375,
      "d": 126.09375,
      "v": 53
    },
    {
      "midi": 45,
      "hit": false,
      "t": 96845.390625,
      "d": 125.625,
      "v": 52
    },
    {
      "midi": 55,
      "hit": false,
      "t": 96845.390625,
      "d": 236.015625,
      "v": 56
    },
    {
      "midi": 67,
      "hit": false,
      "t": 96845.390625,
      "d": 236.015625,
      "v": 70
    },
    {
      "midi": 48,
      "hit": false,
      "t": 96964.21875,
      "d": 124.21875,
      "v": 55
    },
    {
      "midi": 53,
      "hit": false,
      "t": 97081.640625,
      "d": 111.09375,
      "v": 56
    },
    {
      "midi": 65,
      "hit": false,
      "t": 97081.640625,
      "d": 111.09375,
      "v": 70
    },
    {
      "midi": 45,
      "hit": false,
      "t": 97081.640625,
      "d": 125.15625,
      "v": 52
    },
    {
      "midi": 36,
      "hit": false,
      "t": 97200.9375,
      "d": 133.359375,
      "v": 55
    },
    {
      "midi": 52,
      "hit": false,
      "t": 97200.9375,
      "d": 244.921875,
      "v": 61
    },
    {
      "midi": 64,
      "hit": false,
      "t": 97200.9375,
      "d": 244.921875,
      "v": 75
    },
    {
      "midi": 45,
      "hit": false,
      "t": 97327.5,
      "d": 125.390625,
      "v": 52
    },
    {
      "midi": 53,
      "hit": false,
      "t": 97446.09375,
      "d": 112.03125,
      "v": 57
    },
    {
      "midi": 65,
      "hit": false,
      "t": 97446.09375,
      "d": 112.03125,
      "v": 71
    },
    {
      "midi": 48,
      "hit": false,
      "t": 97446.09375,
      "d": 126.09375,
      "v": 53
    },
    {
      "midi": 45,
      "hit": false,
      "t": 97565.390625,
      "d": 125.625,
      "v": 52
    },
    {
      "midi": 52,
      "hit": false,
      "t": 97565.390625,
      "d": 236.015625,
      "v": 56
    },
    {
      "midi": 64,
      "hit": false,
      "t": 97565.390625,
      "d": 236.015625,
      "v": 70
    },
    {
      "midi": 48,
      "hit": false,
      "t": 97684.21875,
      "d": 124.21875,
      "v": 55
    },
    {
      "midi": 50,
      "hit": false,
      "t": 97801.640625,
      "d": 111.09375,
      "v": 56
    },
    {
      "midi": 62,
      "hit": false,
      "t": 97801.640625,
      "d": 111.09375,
      "v": 70
    },
    {
      "midi": 45,
      "hit": false,
      "t": 97801.640625,
      "d": 125.15625,
      "v": 52
    },
    {
      "midi": 29,
      "hit": false,
      "t": 97920.9375,
      "d": 133.359375,
      "v": 53
    },
    {
      "midi": 48,
      "hit": false,
      "t": 97920.9375,
      "d": 244.921875,
      "v": 61
    },
    {
      "midi": 60,
      "hit": false,
      "t": 97920.9375,
      "d": 244.921875,
      "v": 75
    },
    {
      "midi": 36,
      "hit": false,
      "t": 98047.5,
      "d": 125.390625,
      "v": 50
    },
    {
      "midi": 47,
      "hit": false,
      "t": 98166.09375,
      "d": 112.03125,
      "v": 57
    },
    {
      "midi": 59,
      "hit": false,
      "t": 98166.09375,
      "d": 112.03125,
      "v": 71
    },
    {
      "midi": 41,
      "hit": false,
      "t": 98166.09375,
      "d": 126.09375,
      "v": 53
    },
    {
      "midi": 36,
      "hit": false,
      "t": 98285.390625,
      "d": 125.625,
      "v": 50
    },
    {
      "midi": 48,
      "hit": false,
      "t": 98285.390625,
      "d": 236.015625,
      "v": 56
    },
    {
      "midi": 60,
      "hit": false,
      "t": 98285.390625,
      "d": 236.015625,
      "v": 70
    },
    {
      "midi": 41,
      "hit": false,
      "t": 98404.21875,
      "d": 124.21875,
      "v": 55
    },
    {
      "midi": 50,
      "hit": false,
      "t": 98521.640625,
      "d": 111.09375,
      "v": 56
    },
    {
      "midi": 62,
      "hit": false,
      "t": 98521.640625,
      "d": 111.09375,
      "v": 70
    },
    {
      "midi": 36,
      "hit": false,
      "t": 98521.640625,
      "d": 125.15625,
      "v": 50
    },
    {
      "midi": 29,
      "hit": false,
      "t": 98640.9375,
      "d": 133.359375,
      "v": 53
    },
    {
      "midi": 52,
      "hit": false,
      "t": 98640.9375,
      "d": 244.921875,
      "v": 61
    },
    {
      "midi": 64,
      "hit": false,
      "t": 98640.9375,
      "d": 244.921875,
      "v": 75
    },
    {
      "midi": 36,
      "hit": false,
      "t": 98767.5,
      "d": 125.390625,
      "v": 50
    },
    {
      "midi": 50,
      "hit": false,
      "t": 98886.09375,
      "d": 112.03125,
      "v": 57
    },
    {
      "midi": 62,
      "hit": false,
      "t": 98886.09375,
      "d": 112.03125,
      "v": 71
    },
    {
      "midi": 41,
      "hit": false,
      "t": 98886.09375,
      "d": 126.09375,
      "v": 53
    },
    {
      "midi": 36,
      "hit": false,
      "t": 99005.390625,
      "d": 125.625,
      "v": 50
    },
    {
      "midi": 52,
      "hit": false,
      "t": 99005.390625,
      "d": 236.015625,
      "v": 56
    },
    {
      "midi": 64,
      "hit": false,
      "t": 99005.390625,
      "d": 236.015625,
      "v": 70
    },
    {
      "midi": 41,
      "hit": false,
      "t": 99124.21875,
      "d": 124.21875,
      "v": 55
    },
    {
      "midi": 53,
      "hit": false,
      "t": 99241.640625,
      "d": 111.09375,
      "v": 56
    },
    {
      "midi": 65,
      "hit": false,
      "t": 99241.640625,
      "d": 111.09375,
      "v": 70
    },
    {
      "midi": 36,
      "hit": false,
      "t": 99241.640625,
      "d": 125.15625,
      "v": 50
    },
    {
      "midi": 29,
      "hit": false,
      "t": 99360.9375,
      "d": 133.359375,
      "v": 53
    },
    {
      "midi": 55,
      "hit": false,
      "t": 99360.9375,
      "d": 244.921875,
      "v": 61
    },
    {
      "midi": 67,
      "hit": false,
      "t": 99360.9375,
      "d": 244.921875,
      "v": 75
    },
    {
      "midi": 36,
      "hit": false,
      "t": 99487.5,
      "d": 125.390625,
      "v": 50
    },
    {
      "midi": 53,
      "hit": false,
      "t": 99606.09375,
      "d": 112.03125,
      "v": 57
    },
    {
      "midi": 65,
      "hit": false,
      "t": 99606.09375,
      "d": 112.03125,
      "v": 71
    },
    {
      "midi": 41,
      "hit": false,
      "t": 99606.09375,
      "d": 126.09375,
      "v": 53
    },
    {
      "midi": 36,
      "hit": false,
      "t": 99725.390625,
      "d": 125.625,
      "v": 50
    },
    {
      "midi": 55,
      "hit": false,
      "t": 99725.390625,
      "d": 236.015625,
      "v": 56
    },
    {
      "midi": 67,
      "hit": false,
      "t": 99725.390625,
      "d": 236.015625,
      "v": 70
    },
    {
      "midi": 41,
      "hit": false,
      "t": 99844.21875,
      "d": 124.21875,
      "v": 55
    },
    {
      "midi": 57,
      "hit": false,
      "t": 99961.640625,
      "d": 111.09375,
      "v": 56
    },
    {
      "midi": 69,
      "hit": false,
      "t": 99961.640625,
      "d": 111.09375,
      "v": 70
    },
    {
      "midi": 36,
      "hit": false,
      "t": 99961.640625,
      "d": 125.15625,
      "v": 50
    },
    {
      "midi": 29,
      "hit": false,
      "t": 100080.9375,
      "d": 133.359375,
      "v": 53
    },
    {
      "midi": 59,
      "hit": false,
      "t": 100080.9375,
      "d": 244.921875,
      "v": 61
    },
    {
      "midi": 71,
      "hit": false,
      "t": 100080.9375,
      "d": 244.921875,
      "v": 75
    },
    {
      "midi": 36,
      "hit": false,
      "t": 100207.5,
      "d": 125.390625,
      "v": 50
    },
    {
      "midi": 57,
      "hit": false,
      "t": 100326.09375,
      "d": 112.03125,
      "v": 57
    },
    {
      "midi": 69,
      "hit": false,
      "t": 100326.09375,
      "d": 112.03125,
      "v": 71
    },
    {
      "midi": 41,
      "hit": false,
      "t": 100326.09375,
      "d": 126.09375,
      "v": 53
    },
    {
      "midi": 36,
      "hit": false,
      "t": 100445.390625,
      "d": 125.625,
      "v": 50
    },
    {
      "midi": 59,
      "hit": false,
      "t": 100445.390625,
      "d": 236.015625,
      "v": 56
    },
    {
      "midi": 71,
      "hit": false,
      "t": 100445.390625,
      "d": 236.015625,
      "v": 70
    },
    {
      "midi": 41,
      "hit": false,
      "t": 100564.21875,
      "d": 124.21875,
      "v": 55
    },
    {
      "midi": 60,
      "hit": false,
      "t": 100681.640625,
      "d": 111.09375,
      "v": 56
    },
    {
      "midi": 72,
      "hit": false,
      "t": 100681.640625,
      "d": 111.09375,
      "v": 70
    },
    {
      "midi": 36,
      "hit": false,
      "t": 100681.640625,
      "d": 125.15625,
      "v": 50
    },
    {
      "midi": 31,
      "hit": false,
      "t": 100800.9375,
      "d": 133.359375,
      "v": 54
    },
    {
      "midi": 62,
      "hit": false,
      "t": 100800.9375,
      "d": 244.921875,
      "v": 61
    },
    {
      "midi": 74,
      "hit": false,
      "t": 100800.9375,
      "d": 244.921875,
      "v": 75
    },
    {
      "midi": 38,
      "hit": false,
      "t": 100927.5,
      "d": 125.390625,
      "v": 51
    },
    {
      "midi": 60,
      "hit": false,
      "t": 101046.09375,
      "d": 112.03125,
      "v": 57
    },
    {
      "midi": 72,
      "hit": false,
      "t": 101046.09375,
      "d": 112.03125,
      "v": 71
    },
    {
      "midi": 41,
      "hit": false,
      "t": 101046.09375,
      "d": 126.09375,
      "v": 53
    },
    {
      "midi": 38,
      "hit": false,
      "t": 101165.390625,
      "d": 125.625,
      "v": 51
    },
    {
      "midi": 62,
      "hit": false,
      "t": 101165.390625,
      "d": 236.015625,
      "v": 56
    },
    {
      "midi": 74,
      "hit": false,
      "t": 101165.390625,
      "d": 236.015625,
      "v": 70
    },
    {
      "midi": 41,
      "hit": false,
      "t": 101284.21875,
      "d": 124.21875,
      "v": 55
    },
    {
      "midi": 64,
      "hit": false,
      "t": 101401.640625,
      "d": 111.09375,
      "v": 56
    },
    {
      "midi": 76,
      "hit": false,
      "t": 101401.640625,
      "d": 111.09375,
      "v": 70
    },
    {
      "midi": 38,
      "hit": false,
      "t": 101401.640625,
      "d": 125.15625,
      "v": 51
    },
    {
      "midi": 31,
      "hit": false,
      "t": 101520.9375,
      "d": 133.359375,
      "v": 54
    },
    {
      "midi": 65,
      "hit": false,
      "t": 101520.9375,
      "d": 244.921875,
      "v": 61
    },
    {
      "midi": 77,
      "hit": false,
      "t": 101520.9375,
      "d": 244.921875,
      "v": 75
    },
    {
      "midi": 38,
      "hit": false,
      "t": 101647.5,
      "d": 125.390625,
      "v": 51
    },
    {
      "midi": 64,
      "hit": false,
      "t": 101766.09375,
      "d": 112.03125,
      "v": 57
    },
    {
      "midi": 76,
      "hit": false,
      "t": 101766.09375,
      "d": 112.03125,
      "v": 71
    },
    {
      "midi": 41,
      "hit": false,
      "t": 101766.09375,
      "d": 126.09375,
      "v": 53
    },
    {
      "midi": 38,
      "hit": false,
      "t": 101885.390625,
      "d": 125.625,
      "v": 51
    },
    {
      "midi": 65,
      "hit": false,
      "t": 101885.390625,
      "d": 236.015625,
      "v": 56
    },
    {
      "midi": 77,
      "hit": false,
      "t": 101885.390625,
      "d": 236.015625,
      "v": 70
    },
    {
      "midi": 41,
      "hit": false,
      "t": 102004.21875,
      "d": 124.21875,
      "v": 55
    },
    {
      "midi": 67,
      "hit": false,
      "t": 102121.640625,
      "d": 111.09375,
      "v": 56
    },
    {
      "midi": 79,
      "hit": false,
      "t": 102121.640625,
      "d": 111.09375,
      "v": 70
    },
    {
      "midi": 38,
      "hit": false,
      "t": 102121.640625,
      "d": 125.15625,
      "v": 51
    },
    {
      "midi": 31,
      "hit": false,
      "t": 102240.9375,
      "d": 133.359375,
      "v": 54
    },
    {
      "midi": 69,
      "hit": false,
      "t": 102240.9375,
      "d": 244.921875,
      "v": 61
    },
    {
      "midi": 81,
      "hit": false,
      "t": 102240.9375,
      "d": 244.921875,
      "v": 75
    },
    {
      "midi": 38,
      "hit": false,
      "t": 102367.5,
      "d": 125.390625,
      "v": 51
    },
    {
      "midi": 67,
      "hit": false,
      "t": 102486.09375,
      "d": 112.03125,
      "v": 57
    },
    {
      "midi": 79,
      "hit": false,
      "t": 102486.09375,
      "d": 112.03125,
      "v": 71
    },
    {
      "midi": 41,
      "hit": false,
      "t": 102486.09375,
      "d": 126.09375,
      "v": 53
    },
    {
      "midi": 38,
      "hit": false,
      "t": 102605.390625,
      "d": 125.625,
      "v": 51
    },
    {
      "midi": 69,
      "hit": false,
      "t": 102605.390625,
      "d": 236.015625,
      "v": 56
    },
    {
      "midi": 81,
      "hit": false,
      "t": 102605.390625,
      "d": 236.015625,
      "v": 70
    },
    {
      "midi": 41,
      "hit": false,
      "t": 102724.21875,
      "d": 124.21875,
      "v": 55
    },
    {
      "midi": 71,
      "hit": false,
      "t": 102841.640625,
      "d": 111.09375,
      "v": 56
    },
    {
      "midi": 83,
      "hit": false,
      "t": 102841.640625,
      "d": 111.09375,
      "v": 70
    },
    {
      "midi": 38,
      "hit": false,
      "t": 102841.640625,
      "d": 125.15625,
      "v": 51
    },
    {
      "midi": 31,
      "hit": false,
      "t": 102960.9375,
      "d": 133.359375,
      "v": 54
    },
    {
      "midi": 72,
      "hit": false,
      "t": 102960.9375,
      "d": 244.921875,
      "v": 61
    },
    {
      "midi": 84,
      "hit": false,
      "t": 102960.9375,
      "d": 244.921875,
      "v": 75
    },
    {
      "midi": 38,
      "hit": false,
      "t": 103087.5,
      "d": 125.390625,
      "v": 51
    },
    {
      "midi": 71,
      "hit": false,
      "t": 103206.09375,
      "d": 112.03125,
      "v": 57
    },
    {
      "midi": 83,
      "hit": false,
      "t": 103206.09375,
      "d": 112.03125,
      "v": 71
    },
    {
      "midi": 41,
      "hit": false,
      "t": 103206.09375,
      "d": 126.09375,
      "v": 53
    },
    {
      "midi": 38,
      "hit": false,
      "t": 103325.390625,
      "d": 125.625,
      "v": 51
    },
    {
      "midi": 72,
      "hit": false,
      "t": 103325.390625,
      "d": 236.015625,
      "v": 56
    },
    {
      "midi": 84,
      "hit": false,
      "t": 103325.390625,
      "d": 236.015625,
      "v": 70
    },
    {
      "midi": 41,
      "hit": false,
      "t": 103444.21875,
      "d": 124.21875,
      "v": 55
    },
    {
      "midi": 74,
      "hit": false,
      "t": 103561.640625,
      "d": 111.09375,
      "v": 56
    },
    {
      "midi": 86,
      "hit": false,
      "t": 103561.640625,
      "d": 111.09375,
      "v": 70
    },
    {
      "midi": 38,
      "hit": false,
      "t": 103561.640625,
      "d": 125.15625,
      "v": 51
    },
    {
      "midi": 33,
      "hit": false,
      "t": 103680.9375,
      "d": 133.359375,
      "v": 54
    },
    {
      "midi": 64,
      "hit": false,
      "t": 103680.9375,
      "d": 2878.828125,
      "v": 56
    },
    {
      "midi": 69,
      "hit": false,
      "t": 103680.9375,
      "d": 2878.828125,
      "v": 56
    },
    {
      "midi": 76,
      "hit": false,
      "t": 103680.9375,
      "d": 2878.828125,
      "v": 70
    },
    {
      "midi": 40,
      "hit": false,
      "t": 103807.5,
      "d": 125.390625,
      "v": 51
    },
    {
      "midi": 45,
      "hit": false,
      "t": 103926.09375,
      "d": 126.09375,
      "v": 53
    },
    {
      "midi": 40,
      "hit": false,
      "t": 104045.390625,
      "d": 125.625,
      "v": 51
    },
    {
      "midi": 45,
      "hit": false,
      "t": 104164.21875,
      "d": 124.21875,
      "v": 55
    },
    {
      "midi": 40,
      "hit": false,
      "t": 104281.640625,
      "d": 125.15625,
      "v": 51
    },
    {
      "midi": 33,
      "hit": false,
      "t": 104400.9375,
      "d": 133.359375,
      "v": 54
    },
    {
      "midi": 40,
      "hit": false,
      "t": 104527.5,
      "d": 125.390625,
      "v": 51
    },
    {
      "midi": 45,
      "hit": false,
      "t": 104646.09375,
      "d": 126.09375,
      "v": 53
    },
    {
      "midi": 40,
      "hit": false,
      "t": 104765.390625,
      "d": 125.625,
      "v": 51
    },
    {
      "midi": 45,
      "hit": false,
      "t": 104884.21875,
      "d": 124.21875,
      "v": 55
    },
    {
      "midi": 40,
      "hit": false,
      "t": 105001.640625,
      "d": 125.15625,
      "v": 51
    },
    {
      "midi": 33,
      "hit": false,
      "t": 105120.9375,
      "d": 133.359375,
      "v": 54
    },
    {
      "midi": 40,
      "hit": false,
      "t": 105247.5,
      "d": 125.390625,
      "v": 51
    },
    {
      "midi": 45,
      "hit": false,
      "t": 105366.09375,
      "d": 126.09375,
      "v": 53
    },
    {
      "midi": 40,
      "hit": false,
      "t": 105485.390625,
      "d": 125.625,
      "v": 51
    },
    {
      "midi": 45,
      "hit": false,
      "t": 105604.21875,
      "d": 124.21875,
      "v": 55
    },
    {
      "midi": 40,
      "hit": false,
      "t": 105721.640625,
      "d": 125.15625,
      "v": 51
    },
    {
      "midi": 33,
      "hit": false,
      "t": 105840.9375,
      "d": 133.359375,
      "v": 54
    },
    {
      "midi": 40,
      "hit": false,
      "t": 105967.5,
      "d": 125.390625,
      "v": 51
    },
    {
      "midi": 45,
      "hit": false,
      "t": 106086.09375,
      "d": 126.09375,
      "v": 53
    },
    {
      "midi": 40,
      "hit": false,
      "t": 106205.390625,
      "d": 125.625,
      "v": 51
    },
    {
      "midi": 45,
      "hit": false,
      "t": 106324.21875,
      "d": 124.21875,
      "v": 55
    },
    {
      "midi": 40,
      "hit": false,
      "t": 106441.640625,
      "d": 125.15625,
      "v": 51
    },
    {
      "midi": 36,
      "hit": false,
      "t": 106560.9375,
      "d": 133.359375,
      "v": 55
    },
    {
      "midi": 62,
      "hit": false,
      "t": 106560.9375,
      "d": 718.828125,
      "v": 56
    },
    {
      "midi": 69,
      "hit": false,
      "t": 106560.9375,
      "d": 718.828125,
      "v": 56
    },
    {
      "midi": 74,
      "hit": false,
      "t": 106560.9375,
      "d": 718.828125,
      "v": 70
    },
    {
      "midi": 45,
      "hit": false,
      "t": 106687.5,
      "d": 125.390625,
      "v": 52
    },
    {
      "midi": 48,
      "hit": false,
      "t": 106806.09375,
      "d": 126.09375,
      "v": 53
    },
    {
      "midi": 45,
      "hit": false,
      "t": 106925.390625,
      "d": 125.625,
      "v": 52
    },
    {
      "midi": 48,
      "hit": false,
      "t": 107044.21875,
      "d": 124.21875,
      "v": 55
    },
    {
      "midi": 45,
      "hit": false,
      "t": 107161.640625,
      "d": 125.15625,
      "v": 52
    },
    {
      "midi": 36,
      "hit": false,
      "t": 107280.9375,
      "d": 133.359375,
      "v": 55
    },
    {
      "midi": 64,
      "hit": false,
      "t": 107280.9375,
      "d": 2158.828125,
      "v": 56
    },
    {
      "midi": 69,
      "hit": false,
      "t": 107280.9375,
      "d": 2158.828125,
      "v": 56
    },
    {
      "midi": 76,
      "hit": false,
      "t": 107280.9375,
      "d": 2158.828125,
      "v": 70
    },
    {
      "midi": 45,
      "hit": false,
      "t": 107407.5,
      "d": 125.390625,
      "v": 52
    },
    {
      "midi": 48,
      "hit": false,
      "t": 107526.09375,
      "d": 126.09375,
      "v": 53
    },
    {
      "midi": 45,
      "hit": false,
      "t": 107645.390625,
      "d": 125.625,
      "v": 52
    },
    {
      "midi": 48,
      "hit": false,
      "t": 107764.21875,
      "d": 124.21875,
      "v": 55
    },
    {
      "midi": 45,
      "hit": false,
      "t": 107881.640625,
      "d": 125.15625,
      "v": 52
    },
    {
      "midi": 36,
      "hit": false,
      "t": 108000.9375,
      "d": 133.359375,
      "v": 55
    },
    {
      "midi": 45,
      "hit": false,
      "t": 108127.5,
      "d": 125.390625,
      "v": 52
    },
    {
      "midi": 48,
      "hit": false,
      "t": 108246.09375,
      "d": 126.09375,
      "v": 53
    },
    {
      "midi": 45,
      "hit": false,
      "t": 108365.390625,
      "d": 125.625,
      "v": 52
    },
    {
      "midi": 48,
      "hit": false,
      "t": 108484.21875,
      "d": 124.21875,
      "v": 55
    },
    {
      "midi": 45,
      "hit": false,
      "t": 108601.640625,
      "d": 125.15625,
      "v": 52
    },
    {
      "midi": 36,
      "hit": false,
      "t": 108720.9375,
      "d": 133.359375,
      "v": 55
    },
    {
      "midi": 45,
      "hit": false,
      "t": 108847.5,
      "d": 125.390625,
      "v": 52
    },
    {
      "midi": 48,
      "hit": false,
      "t": 108966.09375,
      "d": 126.09375,
      "v": 53
    },
    {
      "midi": 45,
      "hit": false,
      "t": 109085.390625,
      "d": 125.625,
      "v": 52
    },
    {
      "midi": 48,
      "hit": false,
      "t": 109204.21875,
      "d": 124.21875,
      "v": 55
    },
    {
      "midi": 45,
      "hit": false,
      "t": 109321.640625,
      "d": 125.15625,
      "v": 52
    },
    {
      "midi": 29,
      "hit": false,
      "t": 109440.9375,
      "d": 133.359375,
      "v": 53
    },
    {
      "midi": 62,
      "hit": false,
      "t": 109440.9375,
      "d": 718.828125,
      "v": 56
    },
    {
      "midi": 69,
      "hit": false,
      "t": 109440.9375,
      "d": 718.828125,
      "v": 56
    },
    {
      "midi": 74,
      "hit": false,
      "t": 109440.9375,
      "d": 718.828125,
      "v": 70
    },
    {
      "midi": 36,
      "hit": false,
      "t": 109567.5,
      "d": 125.390625,
      "v": 50
    },
    {
      "midi": 41,
      "hit": false,
      "t": 109686.09375,
      "d": 126.09375,
      "v": 53
    },
    {
      "midi": 36,
      "hit": false,
      "t": 109805.390625,
      "d": 125.625,
      "v": 50
    },
    {
      "midi": 41,
      "hit": false,
      "t": 109924.21875,
      "d": 124.21875,
      "v": 55
    },
    {
      "midi": 36,
      "hit": false,
      "t": 110041.640625,
      "d": 125.15625,
      "v": 50
    },
    {
      "midi": 29,
      "hit": false,
      "t": 110160.9375,
      "d": 133.359375,
      "v": 53
    },
    {
      "midi": 64,
      "hit": false,
      "t": 110160.9375,
      "d": 2158.828125,
      "v": 56
    },
    {
      "midi": 69,
      "hit": false,
      "t": 110160.9375,
      "d": 2158.828125,
      "v": 56
    },
    {
      "midi": 76,
      "hit": false,
      "t": 110160.9375,
      "d": 2158.828125,
      "v": 70
    },
    {
      "midi": 36,
      "hit": false,
      "t": 110287.5,
      "d": 125.390625,
      "v": 50
    },
    {
      "midi": 41,
      "hit": false,
      "t": 110406.09375,
      "d": 126.09375,
      "v": 53
    },
    {
      "midi": 36,
      "hit": false,
      "t": 110525.390625,
      "d": 125.625,
      "v": 50
    },
    {
      "midi": 41,
      "hit": false,
      "t": 110644.21875,
      "d": 124.21875,
      "v": 55
    },
    {
      "midi": 36,
      "hit": false,
      "t": 110761.640625,
      "d": 125.15625,
      "v": 50
    },
    {
      "midi": 29,
      "hit": false,
      "t": 110880.9375,
      "d": 133.359375,
      "v": 53
    },
    {
      "midi": 36,
      "hit": false,
      "t": 111007.5,
      "d": 125.390625,
      "v": 50
    },
    {
      "midi": 41,
      "hit": false,
      "t": 111126.09375,
      "d": 126.09375,
      "v": 53
    },
    {
      "midi": 36,
      "hit": false,
      "t": 111245.390625,
      "d": 125.625,
      "v": 50
    },
    {
      "midi": 41,
      "hit": false,
      "t": 111364.21875,
      "d": 124.21875,
      "v": 55
    },
    {
      "midi": 36,
      "hit": false,
      "t": 111481.640625,
      "d": 125.15625,
      "v": 50
    },
    {
      "midi": 29,
      "hit": false,
      "t": 111600.9375,
      "d": 133.359375,
      "v": 53
    },
    {
      "midi": 36,
      "hit": false,
      "t": 111727.5,
      "d": 125.390625,
      "v": 50
    },
    {
      "midi": 41,
      "hit": false,
      "t": 111846.09375,
      "d": 126.09375,
      "v": 53
    },
    {
      "midi": 36,
      "hit": false,
      "t": 111965.390625,
      "d": 125.625,
      "v": 50
    },
    {
      "midi": 41,
      "hit": false,
      "t": 112084.21875,
      "d": 124.21875,
      "v": 55
    },
    {
      "midi": 36,
      "hit": false,
      "t": 112201.640625,
      "d": 125.15625,
      "v": 50
    },
    {
      "midi": 31,
      "hit": false,
      "t": 112320.9375,
      "d": 133.359375,
      "v": 54
    },
    {
      "midi": 62,
      "hit": false,
      "t": 112320.9375,
      "d": 718.828125,
      "v": 56
    },
    {
      "midi": 69,
      "hit": false,
      "t": 112320.9375,
      "d": 718.828125,
      "v": 56
    },
    {
      "midi": 74,
      "hit": false,
      "t": 112320.9375,
      "d": 718.828125,
      "v": 70
    },
    {
      "midi": 38,
      "hit": false,
      "t": 112447.5,
      "d": 125.390625,
      "v": 51
    },
    {
      "midi": 41,
      "hit": false,
      "t": 112566.09375,
      "d": 126.09375,
      "v": 53
    },
    {
      "midi": 38,
      "hit": false,
      "t": 112685.390625,
      "d": 125.625,
      "v": 51
    },
    {
      "midi": 41,
      "hit": false,
      "t": 112804.21875,
      "d": 124.21875,
      "v": 55
    },
    {
      "midi": 38,
      "hit": false,
      "t": 112921.640625,
      "d": 125.15625,
      "v": 51
    },
    {
      "midi": 31,
      "hit": false,
      "t": 113040.9375,
      "d": 133.359375,
      "v": 54
    },
    {
      "midi": 64,
      "hit": false,
      "t": 113040.9375,
      "d": 2158.828125,
      "v": 56
    },
    {
      "midi": 69,
      "hit": false,
      "t": 113040.9375,
      "d": 2158.828125,
      "v": 56
    },
    {
      "midi": 76,
      "hit": false,
      "t": 113040.9375,
      "d": 2158.828125,
      "v": 70
    },
    {
      "midi": 38,
      "hit": false,
      "t": 113167.5,
      "d": 125.390625,
      "v": 51
    },
    {
      "midi": 41,
      "hit": false,
      "t": 113286.09375,
      "d": 126.09375,
      "v": 53
    },
    {
      "midi": 38,
      "hit": false,
      "t": 113405.390625,
      "d": 125.625,
      "v": 51
    },
    {
      "midi": 41,
      "hit": false,
      "t": 113524.21875,
      "d": 124.21875,
      "v": 55
    },
    {
      "midi": 38,
      "hit": false,
      "t": 113641.640625,
      "d": 125.15625,
      "v": 51
    },
    {
      "midi": 31,
      "hit": false,
      "t": 113760.9375,
      "d": 133.359375,
      "v": 54
    },
    {
      "midi": 38,
      "hit": false,
      "t": 113887.5,
      "d": 125.390625,
      "v": 51
    },
    {
      "midi": 41,
      "hit": false,
      "t": 114006.09375,
      "d": 126.09375,
      "v": 53
    },
    {
      "midi": 38,
      "hit": false,
      "t": 114125.390625,
      "d": 125.625,
      "v": 51
    },
    {
      "midi": 41,
      "hit": false,
      "t": 114244.21875,
      "d": 124.21875,
      "v": 55
    },
    {
      "midi": 38,
      "hit": false,
      "t": 114361.640625,
      "d": 125.15625,
      "v": 51
    },
    {
      "midi": 31,
      "hit": false,
      "t": 114480.9375,
      "d": 133.359375,
      "v": 54
    },
    {
      "midi": 38,
      "hit": false,
      "t": 114607.5,
      "d": 125.390625,
      "v": 51
    },
    {
      "midi": 41,
      "hit": false,
      "t": 114726.09375,
      "d": 126.09375,
      "v": 53
    },
    {
      "midi": 38,
      "hit": false,
      "t": 114845.390625,
      "d": 125.625,
      "v": 51
    },
    {
      "midi": 41,
      "hit": false,
      "t": 114964.21875,
      "d": 124.21875,
      "v": 55
    },
    {
      "midi": 38,
      "hit": false,
      "t": 115081.640625,
      "d": 125.15625,
      "v": 51
    },
    {
      "midi": 33,
      "hit": false,
      "t": 115200.9375,
      "d": 133.359375,
      "v": 54
    },
    {
      "midi": 64,
      "hit": false,
      "t": 115200.9375,
      "d": 5038.828125,
      "v": 56
    },
    {
      "midi": 76,
      "hit": false,
      "t": 115200.9375,
      "d": 5038.828125,
      "v": 66
    },
    {
      "midi": 40,
      "hit": false,
      "t": 115327.5,
      "d": 125.390625,
      "v": 51
    },
    {
      "midi": 45,
      "hit": false,
      "t": 115446.09375,
      "d": 126.09375,
      "v": 53
    },
    {
      "midi": 40,
      "hit": false,
      "t": 115565.390625,
      "d": 125.625,
      "v": 51
    },
    {
      "midi": 45,
      "hit": false,
      "t": 115684.21875,
      "d": 124.21875,
      "v": 55
    },
    {
      "midi": 40,
      "hit": false,
      "t": 115801.640625,
      "d": 125.15625,
      "v": 51
    },
    {
      "midi": 33,
      "hit": false,
      "t": 115920.9375,
      "d": 133.359375,
      "v": 54
    },
    {
      "midi": 40,
      "hit": false,
      "t": 116047.5,
      "d": 125.390625,
      "v": 51
    },
    {
      "midi": 45,
      "hit": false,
      "t": 116166.09375,
      "d": 126.09375,
      "v": 53
    },
    {
      "midi": 40,
      "hit": false,
      "t": 116285.390625,
      "d": 125.625,
      "v": 51
    },
    {
      "midi": 45,
      "hit": false,
      "t": 116404.21875,
      "d": 124.21875,
      "v": 55
    },
    {
      "midi": 40,
      "hit": false,
      "t": 116521.640625,
      "d": 125.15625,
      "v": 51
    },
    {
      "midi": 33,
      "hit": false,
      "t": 116640.9375,
      "d": 133.359375,
      "v": 54
    },
    {
      "midi": 40,
      "hit": false,
      "t": 116767.5,
      "d": 125.390625,
      "v": 51
    },
    {
      "midi": 45,
      "hit": false,
      "t": 116886.09375,
      "d": 126.09375,
      "v": 53
    },
    {
      "midi": 40,
      "hit": false,
      "t": 117005.390625,
      "d": 125.625,
      "v": 51
    },
    {
      "midi": 45,
      "hit": false,
      "t": 117124.21875,
      "d": 124.21875,
      "v": 55
    },
    {
      "midi": 40,
      "hit": false,
      "t": 117241.640625,
      "d": 125.15625,
      "v": 51
    },
    {
      "midi": 33,
      "hit": false,
      "t": 117360.9375,
      "d": 133.359375,
      "v": 54
    },
    {
      "midi": 40,
      "hit": false,
      "t": 117487.5,
      "d": 125.390625,
      "v": 51
    },
    {
      "midi": 45,
      "hit": false,
      "t": 117606.09375,
      "d": 126.09375,
      "v": 53
    },
    {
      "midi": 40,
      "hit": false,
      "t": 117725.390625,
      "d": 125.625,
      "v": 51
    },
    {
      "midi": 45,
      "hit": false,
      "t": 117844.21875,
      "d": 124.21875,
      "v": 55
    },
    {
      "midi": 40,
      "hit": false,
      "t": 117961.640625,
      "d": 125.15625,
      "v": 51
    },
    {
      "midi": 36,
      "hit": false,
      "t": 118080.9375,
      "d": 133.359375,
      "v": 55
    },
    {
      "midi": 45,
      "hit": false,
      "t": 118207.5,
      "d": 125.390625,
      "v": 52
    },
    {
      "midi": 48,
      "hit": false,
      "t": 118326.09375,
      "d": 126.09375,
      "v": 53
    },
    {
      "midi": 45,
      "hit": false,
      "t": 118445.390625,
      "d": 125.625,
      "v": 52
    },
    {
      "midi": 48,
      "hit": false,
      "t": 118564.21875,
      "d": 124.21875,
      "v": 55
    },
    {
      "midi": 45,
      "hit": false,
      "t": 118681.640625,
      "d": 125.15625,
      "v": 52
    },
    {
      "midi": 36,
      "hit": false,
      "t": 118800.9375,
      "d": 133.359375,
      "v": 55
    },
    {
      "midi": 45,
      "hit": false,
      "t": 118927.5,
      "d": 125.390625,
      "v": 52
    },
    {
      "midi": 48,
      "hit": false,
      "t": 119046.09375,
      "d": 126.09375,
      "v": 53
    },
    {
      "midi": 45,
      "hit": false,
      "t": 119165.390625,
      "d": 125.625,
      "v": 52
    },
    {
      "midi": 48,
      "hit": false,
      "t": 119284.21875,
      "d": 124.21875,
      "v": 55
    },
    {
      "midi": 45,
      "hit": false,
      "t": 119401.640625,
      "d": 125.15625,
      "v": 52
    },
    {
      "midi": 36,
      "hit": false,
      "t": 119520.9375,
      "d": 133.359375,
      "v": 55
    },
    {
      "midi": 45,
      "hit": false,
      "t": 119647.5,
      "d": 125.390625,
      "v": 52
    },
    {
      "midi": 48,
      "hit": false,
      "t": 119766.09375,
      "d": 126.09375,
      "v": 53
    },
    {
      "midi": 45,
      "hit": false,
      "t": 119885.390625,
      "d": 125.625,
      "v": 52
    },
    {
      "midi": 48,
      "hit": false,
      "t": 120004.21875,
      "d": 124.21875,
      "v": 55
    },
    {
      "midi": 45,
      "hit": false,
      "t": 120121.640625,
      "d": 125.15625,
      "v": 52
    },
    {
      "midi": 36,
      "hit": false,
      "t": 120240.9375,
      "d": 133.359375,
      "v": 55
    },
    {
      "midi": 57,
      "hit": false,
      "t": 120240.9375,
      "d": 718.828125,
      "v": 56
    },
    {
      "midi": 60,
      "hit": false,
      "t": 120240.9375,
      "d": 718.828125,
      "v": 56
    },
    {
      "midi": 69,
      "hit": false,
      "t": 120240.9375,
      "d": 718.828125,
      "v": 70
    },
    {
      "midi": 45,
      "hit": false,
      "t": 120367.5,
      "d": 125.390625,
      "v": 52
    },
    {
      "midi": 48,
      "hit": false,
      "t": 120486.09375,
      "d": 126.09375,
      "v": 53
    },
    {
      "midi": 45,
      "hit": false,
      "t": 120605.390625,
      "d": 125.625,
      "v": 52
    },
    {
      "midi": 48,
      "hit": false,
      "t": 120724.21875,
      "d": 124.21875,
      "v": 55
    },
    {
      "midi": 45,
      "hit": false,
      "t": 120841.640625,
      "d": 125.15625,
      "v": 52
    },
    {
      "midi": 29,
      "hit": false,
      "t": 120960.9375,
      "d": 133.359375,
      "v": 53
    },
    {
      "midi": 64,
      "hit": false,
      "t": 120960.9375,
      "d": 1438.828125,
      "v": 56
    },
    {
      "midi": 76,
      "hit": false,
      "t": 120960.9375,
      "d": 1438.828125,
      "v": 70
    },
    {
      "midi": 36,
      "hit": false,
      "t": 121087.5,
      "d": 125.390625,
      "v": 50
    },
    {
      "midi": 41,
      "hit": false,
      "t": 121206.09375,
      "d": 126.09375,
      "v": 53
    },
    {
      "midi": 36,
      "hit": false,
      "t": 121325.390625,
      "d": 125.625,
      "v": 50
    },
    {
      "midi": 41,
      "hit": false,
      "t": 121444.21875,
      "d": 124.21875,
      "v": 55
    },
    {
      "midi": 36,
      "hit": false,
      "t": 121561.640625,
      "d": 125.15625,
      "v": 50
    },
    {
      "midi": 29,
      "hit": false,
      "t": 121680.9375,
      "d": 133.359375,
      "v": 53
    },
    {
      "midi": 36,
      "hit": false,
      "t": 121807.5,
      "d": 125.390625,
      "v": 50
    },
    {
      "midi": 41,
      "hit": false,
      "t": 121926.09375,
      "d": 126.09375,
      "v": 53
    },
    {
      "midi": 36,
      "hit": false,
      "t": 122045.390625,
      "d": 125.625,
      "v": 50
    },
    {
      "midi": 41,
      "hit": false,
      "t": 122164.21875,
      "d": 124.21875,
      "v": 55
    },
    {
      "midi": 36,
      "hit": false,
      "t": 122281.640625,
      "d": 125.15625,
      "v": 50
    },
    {
      "midi": 29,
      "hit": false,
      "t": 122400.9375,
      "d": 133.359375,
      "v": 53
    },
    {
      "midi": 60,
      "hit": false,
      "t": 122400.9375,
      "d": 718.828125,
      "v": 56
    },
    {
      "midi": 72,
      "hit": false,
      "t": 122400.9375,
      "d": 718.828125,
      "v": 70
    },
    {
      "midi": 36,
      "hit": false,
      "t": 122527.5,
      "d": 125.390625,
      "v": 50
    },
    {
      "midi": 41,
      "hit": false,
      "t": 122646.09375,
      "d": 126.09375,
      "v": 53
    },
    {
      "midi": 36,
      "hit": false,
      "t": 122765.390625,
      "d": 125.625,
      "v": 50
    },
    {
      "midi": 41,
      "hit": false,
      "t": 122884.21875,
      "d": 124.21875,
      "v": 55
    },
    {
      "midi": 36,
      "hit": false,
      "t": 123001.640625,
      "d": 125.15625,
      "v": 50
    },
    {
      "midi": 29,
      "hit": false,
      "t": 123120.9375,
      "d": 133.359375,
      "v": 53
    },
    {
      "midi": 57,
      "hit": false,
      "t": 123120.9375,
      "d": 718.828125,
      "v": 56
    },
    {
      "midi": 69,
      "hit": false,
      "t": 123120.9375,
      "d": 718.828125,
      "v": 70
    },
    {
      "midi": 36,
      "hit": false,
      "t": 123247.5,
      "d": 125.390625,
      "v": 50
    },
    {
      "midi": 41,
      "hit": false,
      "t": 123366.09375,
      "d": 126.09375,
      "v": 53
    },
    {
      "midi": 36,
      "hit": false,
      "t": 123485.390625,
      "d": 125.625,
      "v": 50
    },
    {
      "midi": 41,
      "hit": false,
      "t": 123604.21875,
      "d": 124.21875,
      "v": 55
    },
    {
      "midi": 36,
      "hit": false,
      "t": 123721.640625,
      "d": 125.15625,
      "v": 50
    },
    {
      "midi": 31,
      "hit": false,
      "t": 123840.9375,
      "d": 133.359375,
      "v": 54
    },
    {
      "midi": 60,
      "hit": false,
      "t": 123840.9375,
      "d": 1438.828125,
      "v": 56
    },
    {
      "midi": 72,
      "hit": false,
      "t": 123840.9375,
      "d": 1438.828125,
      "v": 70
    },
    {
      "midi": 38,
      "hit": false,
      "t": 123967.5,
      "d": 125.390625,
      "v": 51
    },
    {
      "midi": 41,
      "hit": false,
      "t": 124086.09375,
      "d": 126.09375,
      "v": 53
    },
    {
      "midi": 38,
      "hit": false,
      "t": 124205.390625,
      "d": 125.625,
      "v": 51
    },
    {
      "midi": 41,
      "hit": false,
      "t": 124324.21875,
      "d": 124.21875,
      "v": 55
    },
    {
      "midi": 38,
      "hit": false,
      "t": 124441.640625,
      "d": 125.15625,
      "v": 51
    },
    {
      "midi": 31,
      "hit": false,
      "t": 124560.9375,
      "d": 133.359375,
      "v": 54
    },
    {
      "midi": 38,
      "hit": false,
      "t": 124687.5,
      "d": 125.390625,
      "v": 51
    },
    {
      "midi": 41,
      "hit": false,
      "t": 124806.09375,
      "d": 126.09375,
      "v": 53
    },
    {
      "midi": 38,
      "hit": false,
      "t": 124925.390625,
      "d": 125.625,
      "v": 51
    },
    {
      "midi": 41,
      "hit": false,
      "t": 125044.21875,
      "d": 124.21875,
      "v": 55
    },
    {
      "midi": 38,
      "hit": false,
      "t": 125161.640625,
      "d": 125.15625,
      "v": 51
    },
    {
      "midi": 31,
      "hit": false,
      "t": 125280.9375,
      "d": 133.359375,
      "v": 54
    },
    {
      "midi": 59,
      "hit": false,
      "t": 125280.9375,
      "d": 718.828125,
      "v": 56
    },
    {
      "midi": 71,
      "hit": false,
      "t": 125280.9375,
      "d": 718.828125,
      "v": 70
    },
    {
      "midi": 38,
      "hit": false,
      "t": 125407.5,
      "d": 125.390625,
      "v": 51
    },
    {
      "midi": 41,
      "hit": false,
      "t": 125526.09375,
      "d": 126.09375,
      "v": 53
    },
    {
      "midi": 38,
      "hit": false,
      "t": 125645.390625,
      "d": 125.625,
      "v": 51
    },
    {
      "midi": 41,
      "hit": false,
      "t": 125764.21875,
      "d": 124.21875,
      "v": 55
    },
    {
      "midi": 38,
      "hit": false,
      "t": 125881.640625,
      "d": 125.15625,
      "v": 51
    },
    {
      "midi": 31,
      "hit": false,
      "t": 126000.9375,
      "d": 133.359375,
      "v": 54
    },
    {
      "midi": 55,
      "hit": false,
      "t": 126000.9375,
      "d": 718.828125,
      "v": 56
    },
    {
      "midi": 67,
      "hit": false,
      "t": 126000.9375,
      "d": 718.828125,
      "v": 70
    },
    {
      "midi": 38,
      "hit": false,
      "t": 126127.5,
      "d": 125.390625,
      "v": 51
    },
    {
      "midi": 41,
      "hit": false,
      "t": 126246.09375,
      "d": 126.09375,
      "v": 53
    },
    {
      "midi": 38,
      "hit": false,
      "t": 126365.390625,
      "d": 125.625,
      "v": 51
    },
    {
      "midi": 41,
      "hit": false,
      "t": 126484.21875,
      "d": 124.21875,
      "v": 55
    },
    {
      "midi": 38,
      "hit": false,
      "t": 126601.640625,
      "d": 125.15625,
      "v": 51
    }
  ]
}