{
  "jsonPath": "Rock/Piano Rock/Straylight Run/its-for-the-best-album-version.json",
  "path": "Rock\\Piano Rock\\Straylight Run\\Its For The Best (Album Version).mid",
  "name": "Its For The Best (Album Version)",
  "difficulty": "Advanced",
  "bpm": 68.0000725334107,
  "notes": [
    {
      "midi": 57,
      "hit": false,
      "t": 5303.303166666667,
      "d": 1047.7929999999997,
      "v": 94
    },
    {
      "midi": 62,
      "hit": false,
      "t": 5303.303166666667,
      "d": 1047.7929999999997,
      "v": 102
    },
    {
      "midi": 66,
      "hit": false,
      "t": 5303.303166666667,
      "d": 1047.7929999999997,
      "v": 88
    },
    {
      "midi": 61,
      "hit": false,
      "t": 7068.007166666666,
      "d": 1011.0283333333327,
      "v": 90
    },
    {
      "midi": 66,
      "hit": false,
      "t": 7077.198333333333,
      "d": 983.4548333333332,
      "v": 86
    },
    {
      "midi": 64,
      "hit": false,
      "t": 8832.711166666666,
      "d": 974.2636666666676,
      "v": 90
    },
    {
      "midi": 55,
      "hit": false,
      "t": 8841.902333333333,
      "d": 928.3078333333342,
      "v": 72
    },
    {
      "midi": 59,
      "hit": false,
      "t": 8841.902333333333,
      "d": 946.6901666666672,
      "v": 86
    },
    {
      "midi": 62,
      "hit": false,
      "t": 8841.902333333333,
      "d": 965.0725000000002,
      "v": 96
    },
    {
      "midi": 67,
      "hit": false,
      "t": 10597.415166666668,
      "d": 1488.9689999999991,
      "v": 96
    },
    {
      "midi": 57,
      "hit": false,
      "t": 10606.606333333335,
      "d": 1443.0131666666657,
      "v": 92
    },
    {
      "midi": 64,
      "hit": false,
      "t": 10606.606333333335,
      "d": 1479.7778333333317,
      "v": 92
    },
    {
      "midi": 61,
      "hit": false,
      "t": 10606.606333333335,
      "d": 1516.5424999999977,
      "v": 88
    },
    {
      "midi": 57,
      "hit": false,
      "t": 12371.310333333333,
      "d": 1038.601833333334,
      "v": 94
    },
    {
      "midi": 62,
      "hit": false,
      "t": 12371.310333333333,
      "d": 1038.601833333334,
      "v": 102
    },
    {
      "midi": 66,
      "hit": false,
      "t": 12371.310333333333,
      "d": 1038.601833333334,
      "v": 88
    },
    {
      "midi": 57,
      "hit": false,
      "t": 14136.014333333334,
      "d": 983.4548333333332,
      "v": 100
    },
    {
      "midi": 66,
      "hit": false,
      "t": 14136.014333333334,
      "d": 983.4548333333332,
      "v": 86
    },
    {
      "midi": 61,
      "hit": false,
      "t": 14136.014333333334,
      "d": 1001.8371666666662,
      "v": 90
    },
    {
      "midi": 55,
      "hit": false,
      "t": 15900.718333333334,
      "d": 928.3078333333324,
      "v": 72
    },
    {
      "midi": 59,
      "hit": false,
      "t": 15900.718333333334,
      "d": 946.6901666666672,
      "v": 86
    },
    {
      "midi": 62,
      "hit": false,
      "t": 15900.718333333334,
      "d": 965.072500000002,
      "v": 96
    },
    {
      "midi": 64,
      "hit": false,
      "t": 15900.718333333334,
      "d": 965.072500000002,
      "v": 90
    },
    {
      "midi": 57,
      "hit": false,
      "t": 17665.422333333336,
      "d": 1443.0131666666675,
      "v": 92
    },
    {
      "midi": 64,
      "hit": false,
      "t": 17665.422333333336,
      "d": 1479.7778333333335,
      "v": 92
    },
    {
      "midi": 67,
      "hit": false,
      "t": 17665.422333333336,
      "d": 1479.7778333333335,
      "v": 96
    },
    {
      "midi": 61,
      "hit": false,
      "t": 17665.422333333336,
      "d": 1507.3513333333321,
      "v": 88
    },
    {
      "midi": 57,
      "hit": false,
      "t": 19430.126333333334,
      "d": 1038.601833333334,
      "v": 94
    },
    {
      "midi": 62,
      "hit": false,
      "t": 19430.126333333334,
      "d": 1038.601833333334,
      "v": 102
    },
    {
      "midi": 66,
      "hit": false,
      "t": 19430.126333333334,
      "d": 1038.601833333334,
      "v": 88
    },
    {
      "midi": 57,
      "hit": false,
      "t": 21185.639166666668,
      "d": 992.6460000000006,
      "v": 100
    },
    {
      "midi": 66,
      "hit": false,
      "t": 21185.639166666668,
      "d": 992.6460000000006,
      "v": 86
    },
    {
      "midi": 61,
      "hit": false,
      "t": 21185.639166666668,
      "d": 1011.0283333333355,
      "v": 90
    },
    {
      "midi": 55,
      "hit": false,
      "t": 22950.34316666667,
      "d": 937.4989999999998,
      "v": 72
    },
    {
      "midi": 59,
      "hit": false,
      "t": 22950.34316666667,
      "d": 955.8813333333346,
      "v": 86
    },
    {
      "midi": 62,
      "hit": false,
      "t": 22950.34316666667,
      "d": 974.2636666666695,
      "v": 96
    },
    {
      "midi": 64,
      "hit": false,
      "t": 22950.34316666667,
      "d": 974.2636666666695,
      "v": 90
    },
    {
      "midi": 57,
      "hit": false,
      "t": 24715.04716666667,
      "d": 1176.4693333333344,
      "v": 84
    },
    {
      "midi": 64,
      "hit": false,
      "t": 24715.04716666667,
      "d": 1691.1746666666695,
      "v": 58
    },
    {
      "midi": 61,
      "hit": false,
      "t": 24715.04716666667,
      "d": 1709.5570000000043,
      "v": 70
    },
    {
      "midi": 67,
      "hit": false,
      "t": 26038.575166666673,
      "d": 422.7936666666683,
      "v": 114
    },
    {
      "midi": 57,
      "hit": false,
      "t": 26038.575166666673,
      "d": 441.1760000000031,
      "v": 96
    },
    {
      "midi": 62,
      "hit": false,
      "t": 26479.751166666676,
      "d": 1047.7930000000015,
      "v": 102
    },
    {
      "midi": 66,
      "hit": false,
      "t": 26479.751166666676,
      "d": 1047.7930000000015,
      "v": 88
    },
    {
      "midi": 57,
      "hit": false,
      "t": 26479.751166666676,
      "d": 1121.3223333333335,
      "v": 94
    },
    {
      "midi": 57,
      "hit": false,
      "t": 28244.455166666678,
      "d": 992.6460000000006,
      "v": 100
    },
    {
      "midi": 66,
      "hit": false,
      "t": 28244.455166666678,
      "d": 992.6460000000006,
      "v": 86
    },
    {
      "midi": 61,
      "hit": false,
      "t": 28244.455166666678,
      "d": 1011.0283333333355,
      "v": 90
    },
    {
      "midi": 55,
      "hit": false,
      "t": 30009.15916666668,
      "d": 937.4989999999998,
      "v": 72
    },
    {
      "midi": 59,
      "hit": false,
      "t": 30009.15916666668,
      "d": 955.8813333333346,
      "v": 86
    },
    {
      "midi": 62,
      "hit": false,
      "t": 30009.15916666668,
      "d": 974.2636666666695,
      "v": 96
    },
    {
      "midi": 64,
      "hit": false,
      "t": 30009.15916666668,
      "d": 974.2636666666695,
      "v": 90
    },
    {
      "midi": 57,
      "hit": false,
      "t": 31773.86316666668,
      "d": 1452.2043333333386,
      "v": 92
    },
    {
      "midi": 64,
      "hit": false,
      "t": 31773.86316666668,
      "d": 1488.9690000000082,
      "v": 92
    },
    {
      "midi": 67,
      "hit": false,
      "t": 31773.86316666668,
      "d": 1488.9690000000082,
      "v": 96
    },
    {
      "midi": 61,
      "hit": false,
      "t": 31773.86316666668,
      "d": 1525.733666666678,
      "v": 88
    },
    {
      "midi": 57,
      "hit": false,
      "t": 33538.56716666669,
      "d": 1047.7929999999978,
      "v": 94
    },
    {
      "midi": 62,
      "hit": false,
      "t": 33538.56716666669,
      "d": 1047.7929999999978,
      "v": 102
    },
    {
      "midi": 66,
      "hit": false,
      "t": 33538.56716666669,
      "d": 1047.7929999999978,
      "v": 88
    },
    {
      "midi": 57,
      "hit": false,
      "t": 35303.27116666669,
      "d": 992.6460000000006,
      "v": 100
    },
    {
      "midi": 66,
      "hit": false,
      "t": 35303.27116666669,
      "d": 992.6460000000006,
      "v": 86
    },
    {
      "midi": 61,
      "hit": false,
      "t": 35303.27116666669,
      "d": 1011.0283333333355,
      "v": 90
    },
    {
      "midi": 55,
      "hit": false,
      "t": 37067.97516666669,
      "d": 937.4990000000034,
      "v": 72
    },
    {
      "midi": 59,
      "hit": false,
      "t": 37067.97516666669,
      "d": 955.8813333333383,
      "v": 86
    },
    {
      "midi": 62,
      "hit": false,
      "t": 37067.97516666669,
      "d": 974.2636666666731,
      "v": 96
    },
    {
      "midi": 64,
      "hit": false,
      "t": 37067.97516666669,
      "d": 974.2636666666731,
      "v": 90
    },
    {
      "midi": 57,
      "hit": false,
      "t": 38832.679166666705,
      "d": 1176.4693333333344,
      "v": 84
    },
    {
      "midi": 64,
      "hit": false,
      "t": 38832.679166666705,
      "d": 1691.1746666666659,
      "v": 58
    },
    {
      "midi": 61,
      "hit": false,
      "t": 38832.679166666705,
      "d": 1709.5570000000007,
      "v": 70
    },
    {
      "midi": 67,
      "hit": false,
      "t": 40156.2071666667,
      "d": 413.6025000000009,
      "v": 114
    },
    {
      "midi": 57,
      "hit": false,
      "t": 40156.2071666667,
      "d": 441.1759999999995,
      "v": 96
    },
    {
      "midi": 57,
      "hit": false,
      "t": 40597.3831666667,
      "d": 73.52933333333203,
      "v": 120
    },
    {
      "midi": 61,
      "hit": false,
      "t": 40597.3831666667,
      "d": 91.91166666666686,
      "v": 110
    },
    {
      "midi": 66,
      "hit": false,
      "t": 40597.3831666667,
      "d": 91.91166666666686,
      "v": 92
    },
    {
      "midi": 57,
      "hit": false,
      "t": 41038.5591666667,
      "d": 1121.3223333333299,
      "v": 114
    },
    {
      "midi": 66,
      "hit": false,
      "t": 41038.5591666667,
      "d": 1139.7046666666647,
      "v": 86
    },
    {
      "midi": 61,
      "hit": false,
      "t": 41038.5591666667,
      "d": 1158.0869999999995,
      "v": 106
    },
    {
      "midi": 59,
      "hit": false,
      "t": 42362.0871666667,
      "d": 91.91166666666686,
      "v": 110
    },
    {
      "midi": 55,
      "hit": false,
      "t": 42362.0871666667,
      "d": 110.29400000000169,
      "v": 110
    },
    {
      "midi": 64,
      "hit": false,
      "t": 42362.0871666667,
      "d": 128.67633333333652,
      "v": 94
    },
    {
      "midi": 55,
      "hit": false,
      "t": 42803.26316666671,
      "d": 1158.0869999999995,
      "v": 106
    },
    {
      "midi": 59,
      "hit": false,
      "t": 42803.26316666671,
      "d": 1194.8516666666692,
      "v": 92
    },
    {
      "midi": 64,
      "hit": false,
      "t": 42803.26316666671,
      "d": 1213.234000000004,
      "v": 92
    },
    {
      "midi": 57,
      "hit": false,
      "t": 44126.79116666671,
      "d": 1525.733666666667,
      "v": 116
    },
    {
      "midi": 61,
      "hit": false,
      "t": 44126.79116666671,
      "d": 1562.4983333333366,
      "v": 106
    },
    {
      "midi": 64,
      "hit": false,
      "t": 44126.79116666671,
      "d": 1562.4983333333366,
      "v": 92
    },
    {
      "midi": 57,
      "hit": false,
      "t": 45891.49516666672,
      "d": 1755.5128333333341,
      "v": 114
    },
    {
      "midi": 62,
      "hit": false,
      "t": 45891.49516666672,
      "d": 1764.703999999998,
      "v": 80
    },
    {
      "midi": 66,
      "hit": false,
      "t": 45891.49516666672,
      "d": 1773.8951666666617,
      "v": 86
    },
    {
      "midi": 62,
      "hit": false,
      "t": 49420.903166666714,
      "d": 1323.528000000013,
      "v": 108
    },
    {
      "midi": 66,
      "hit": false,
      "t": 49420.903166666714,
      "d": 1360.2926666666826,
      "v": 92
    },
    {
      "midi": 57,
      "hit": false,
      "t": 49420.903166666714,
      "d": 1378.6750000000175,
      "v": 100
    },
    {
      "midi": 57,
      "hit": false,
      "t": 51185.607166666734,
      "d": 1066.1753333333327,
      "v": 86
    },
    {
      "midi": 66,
      "hit": false,
      "t": 51185.607166666734,
      "d": 1066.1753333333327,
      "v": 84
    },
    {
      "midi": 61,
      "hit": false,
      "t": 51185.607166666734,
      "d": 1102.9400000000023,
      "v": 86
    },
    {
      "midi": 59,
      "hit": false,
      "t": 52959.5023333334,
      "d": 1112.131166666666,
      "v": 92
    },
    {
      "midi": 55,
      "hit": false,
      "t": 52959.5023333334,
      "d": 1130.513500000001,
      "v": 90
    },
    {
      "midi": 64,
      "hit": false,
      "t": 52959.5023333334,
      "d": 1222.4251666666678,
      "v": 86
    },
    {
      "midi": 61,
      "hit": false,
      "t": 54715.015166666744,
      "d": 1295.9544999999998,
      "v": 92
    },
    {
      "midi": 64,
      "hit": false,
      "t": 54715.015166666744,
      "d": 1305.1456666666636,
      "v": 86
    },
    {
      "midi": 57,
      "hit": false,
      "t": 54724.20633333341,
      "d": 1240.8075000000026,
      "v": 92
    },
    {
      "midi": 57,
      "hit": false,
      "t": 56038.54316666674,
      "d": 441.1759999999995,
      "v": 104
    },
    {
      "midi": 61,
      "hit": false,
      "t": 56038.54316666674,
      "d": 441.1759999999995,
      "v": 96
    },
    {
      "midi": 64,
      "hit": false,
      "t": 56038.54316666674,
      "d": 441.1759999999995,
      "v": 88
    },
    {
      "midi": 62,
      "hit": false,
      "t": 56488.910333333406,
      "d": 1314.336833333342,
      "v": 108
    },
    {
      "midi": 66,
      "hit": false,
      "t": 56488.910333333406,
      "d": 1341.9103333333405,
      "v": 92
    },
    {
      "midi": 57,
      "hit": false,
      "t": 56488.910333333406,
      "d": 1369.4838333333391,
      "v": 100
    },
    {
      "midi": 66,
      "hit": false,
      "t": 58244.42316666675,
      "d": 1066.1753333333327,
      "v": 84
    },
    {
      "midi": 61,
      "hit": false,
      "t": 58244.42316666675,
      "d": 1102.9400000000023,
      "v": 86
    },
    {
      "midi": 57,
      "hit": false,
      "t": 58253.61433333341,
      "d": 1056.984166666669,
      "v": 86
    },
    {
      "midi": 59,
      "hit": false,
      "t": 60009.12716666675,
      "d": 1121.3223333333299,
      "v": 92
    },
    {
      "midi": 64,
      "hit": false,
      "t": 60009.12716666675,
      "d": 1231.6163333333316,
      "v": 86
    },
    {
      "midi": 55,
      "hit": false,
      "t": 60018.31833333342,
      "d": 1130.513500000001,
      "v": 90
    },
    {
      "midi": 61,
      "hit": false,
      "t": 61773.83116666676,
      "d": 1305.1456666666636,
      "v": 92
    },
    {
      "midi": 57,
      "hit": false,
      "t": 61783.02233333342,
      "d": 1240.8075000000026,
      "v": 92
    },
    {
      "midi": 64,
      "hit": false,
      "t": 61783.02233333342,
      "d": 1295.9544999999998,
      "v": 86
    },
    {
      "midi": 57,
      "hit": false,
      "t": 63097.359166666756,
      "d": 441.1759999999995,
      "v": 104
    },
    {
      "midi": 61,
      "hit": false,
      "t": 63097.359166666756,
      "d": 441.1759999999995,
      "v": 96
    },
    {
      "midi": 64,
      "hit": false,
      "t": 63097.359166666756,
      "d": 441.1759999999995,
      "v": 88
    },
    {
      "midi": 62,
      "hit": false,
      "t": 63547.72633333342,
      "d": 1369.4838333333319,
      "v": 98
    },
    {
      "midi": 66,
      "hit": false,
      "t": 63547.72633333342,
      "d": 1479.7778333333335,
      "v": 86
    },
    {
      "midi": 57,
      "hit": false,
      "t": 63547.72633333342,
      "d": 1580.8806666666642,
      "v": 88
    },
    {
      "midi": 66,
      "hit": false,
      "t": 65312.43033333342,
      "d": 1093.7488333333386,
      "v": 84
    },
    {
      "midi": 57,
      "hit": false,
      "t": 65312.43033333342,
      "d": 1112.131166666666,
      "v": 94
    },
    {
      "midi": 61,
      "hit": false,
      "t": 65312.43033333342,
      "d": 1130.5134999999937,
      "v": 92
    },
    {
      "midi": 59,
      "hit": false,
      "t": 67067.94316666675,
      "d": 1544.116000000009,
      "v": 92
    },
    {
      "midi": 55,
      "hit": false,
      "t": 67077.13433333342,
      "d": 1498.1601666666684,
      "v": 92
    },
    {
      "midi": 62,
      "hit": false,
      "t": 67077.13433333342,
      "d": 1534.924833333338,
      "v": 98
    },
    {
      "midi": 64,
      "hit": false,
      "t": 68832.64716666676,
      "d": 808.8226666666742,
      "v": 92
    },
    {
      "midi": 61,
      "hit": false,
      "t": 68832.64716666676,
      "d": 827.2050000000017,
      "v": 96
    },
    {
      "midi": 57,
      "hit": false,
      "t": 68841.83833333344,
      "d": 762.8668333333335,
      "v": 114
    },
    {
      "midi": 59,
      "hit": false,
      "t": 69724.19033333343,
      "d": 652.5728333333391,
      "v": 118
    },
    {
      "midi": 62,
      "hit": false,
      "t": 69724.19033333343,
      "d": 670.9551666666666,
      "v": 118
    },
    {
      "midi": 66,
      "hit": false,
      "t": 69724.19033333343,
      "d": 689.3374999999942,
      "v": 104
    },
    {
      "midi": 57,
      "hit": false,
      "t": 70597.35116666676,
      "d": 1433.8220000000001,
      "v": 118
    },
    {
      "midi": 66,
      "hit": false,
      "t": 70597.35116666676,
      "d": 1433.8220000000001,
      "v": 86
    },
    {
      "midi": 61,
      "hit": false,
      "t": 70597.35116666676,
      "d": 1470.5866666666698,
      "v": 104
    },
    {
      "midi": 55,
      "hit": false,
      "t": 72362.05516666676,
      "d": 1415.4396666666726,
      "v": 88
    },
    {
      "midi": 59,
      "hit": false,
      "t": 72362.05516666676,
      "d": 1452.2043333333422,
      "v": 96
    },
    {
      "midi": 64,
      "hit": false,
      "t": 72362.05516666676,
      "d": 1525.7336666666815,
      "v": 86
    },
    {
      "midi": 57,
      "hit": false,
      "t": 74126.75916666677,
      "d": 1580.8806666666787,
      "v": 94
    },
    {
      "midi": 64,
      "hit": false,
      "t": 74126.75916666677,
      "d": 1599.2630000000063,
      "v": 88
    },
    {
      "midi": 61,
      "hit": false,
      "t": 74126.75916666677,
      "d": 1617.6453333333338,
      "v": 90
    },
    {
      "midi": 57,
      "hit": false,
      "t": 75891.46316666677,
      "d": 1764.703999999998,
      "v": 82
    },
    {
      "midi": 66,
      "hit": false,
      "t": 75891.46316666677,
      "d": 1874.9980000000069,
      "v": 80
    },
    {
      "midi": 62,
      "hit": false,
      "t": 75891.46316666677,
      "d": 1893.3803333333344,
      "v": 88
    },
    {
      "midi": 54,
      "hit": false,
      "t": 77656.16716666677,
      "d": 1415.4396666666726,
      "v": 84
    },
    {
      "midi": 57,
      "hit": false,
      "t": 77656.16716666677,
      "d": 3161.761333333343,
      "v": 86
    },
    {
      "midi": 50,
      "hit": false,
      "t": 77665.35833333344,
      "d": 1332.7191666666622,
      "v": 80
    },
    {
      "midi": 54,
      "hit": false,
      "t": 79420.87116666678,
      "d": 1470.5866666666698,
      "v": 52
    },
    {
      "midi": 49,
      "hit": false,
      "t": 79430.06233333345,
      "d": 1369.4838333333319,
      "v": 92
    },
    {
      "midi": 59,
      "hit": false,
      "t": 81185.57516666678,
      "d": 1102.9400000000023,
      "v": 84
    },
    {
      "midi": 62,
      "hit": false,
      "t": 81194.76633333345,
      "d": 1093.7488333333313,
      "v": 82
    },
    {
      "midi": 55,
      "hit": false,
      "t": 81194.76633333345,
      "d": 1130.513500000001,
      "v": 88
    },
    {
      "midi": 52,
      "hit": false,
      "t": 81194.76633333345,
      "d": 1148.8958333333285,
      "v": 74
    },
    {
      "midi": 52,
      "hit": false,
      "t": 82950.27916666678,
      "d": 1305.1456666666636,
      "v": 92
    },
    {
      "midi": 61,
      "hit": false,
      "t": 82950.27916666678,
      "d": 1305.1456666666636,
      "v": 92
    },
    {
      "midi": 57,
      "hit": false,
      "t": 82950.27916666678,
      "d": 1369.4838333333319,
      "v": 76
    },
    {
      "midi": 57,
      "hit": false,
      "t": 84714.98316666677,
      "d": 9.191166666671052,
      "v": 82
    },
    {
      "midi": 62,
      "hit": false,
      "t": 84714.98316666677,
      "d": 128.67633333333652,
      "v": 88
    },
    {
      "midi": 66,
      "hit": false,
      "t": 84724.17433333345,
      "d": 101.10283333333791,
      "v": 80
    },
    {
      "midi": 50,
      "hit": false,
      "t": 84724.17433333345,
      "d": 1332.7191666666622,
      "v": 80
    },
    {
      "midi": 54,
      "hit": false,
      "t": 84724.17433333345,
      "d": 1406.2485000000015,
      "v": 84
    },
    {
      "midi": 57,
      "hit": false,
      "t": 84724.17433333345,
      "d": 3152.570166666672,
      "v": 86
    },
    {
      "midi": 49,
      "hit": false,
      "t": 86488.87833333346,
      "d": 1369.4838333333319,
      "v": 92
    },
    {
      "midi": 54,
      "hit": false,
      "t": 86488.87833333346,
      "d": 1461.3954999999987,
      "v": 52
    },
    {
      "midi": 59,
      "hit": false,
      "t": 88244.39116666678,
      "d": 1102.9400000000023,
      "v": 84
    },
    {
      "midi": 62,
      "hit": false,
      "t": 88253.58233333346,
      "d": 1093.7488333333313,
      "v": 82
    },
    {
      "midi": 55,
      "hit": false,
      "t": 88253.58233333346,
      "d": 1130.513500000001,
      "v": 88
    },
    {
      "midi": 52,
      "hit": false,
      "t": 88253.58233333346,
      "d": 1148.8958333333285,
      "v": 74
    },
    {
      "midi": 61,
      "hit": false,
      "t": 90009.09516666678,
      "d": 1305.1456666666782,
      "v": 92
    },
    {
      "midi": 57,
      "hit": false,
      "t": 90009.09516666678,
      "d": 1378.6750000000175,
      "v": 76
    },
    {
      "midi": 52,
      "hit": false,
      "t": 90018.28633333345,
      "d": 1295.954500000007,
      "v": 92
    },
    {
      "midi": 57,
      "hit": false,
      "t": 91782.99033333347,
      "d": 4.59558333332825,
      "v": 82
    },
    {
      "midi": 66,
      "hit": false,
      "t": 91782.99033333347,
      "d": 101.10283333332336,
      "v": 80
    },
    {
      "midi": 62,
      "hit": false,
      "t": 91782.99033333347,
      "d": 119.48516666665091,
      "v": 88
    },
    {
      "midi": 50,
      "hit": false,
      "t": 91782.99033333347,
      "d": 1323.5279999999912,
      "v": 80
    },
    {
      "midi": 54,
      "hit": false,
      "t": 91782.99033333347,
      "d": 1406.248499999987,
      "v": 84
    },
    {
      "midi": 49,
      "hit": false,
      "t": 93547.69433333346,
      "d": 1369.4838333333319,
      "v": 92
    },
    {
      "midi": 54,
      "hit": false,
      "t": 93547.69433333346,
      "d": 1461.3954999999987,
      "v": 52
    },
    {
      "midi": 59,
      "hit": false,
      "t": 95312.39833333346,
      "d": 1093.7488333333313,
      "v": 84
    },
    {
      "midi": 62,
      "hit": false,
      "t": 95312.39833333346,
      "d": 1093.7488333333313,
      "v": 82
    },
    {
      "midi": 55,
      "hit": false,
      "t": 95312.39833333346,
      "d": 1130.513500000001,
      "v": 88
    },
    {
      "midi": 52,
      "hit": false,
      "t": 95312.39833333346,
      "d": 1148.8958333333285,
      "v": 74
    },
    {
      "midi": 61,
      "hit": false,
      "t": 97067.91116666679,
      "d": 1305.1456666666782,
      "v": 92
    },
    {
      "midi": 57,
      "hit": false,
      "t": 97067.91116666679,
      "d": 1378.6750000000175,
      "v": 76
    },
    {
      "midi": 52,
      "hit": false,
      "t": 97077.10233333346,
      "d": 1295.954500000007,
      "v": 92
    },
    {
      "midi": 61,
      "hit": false,
      "t": 98832.6151666668,
      "d": 91.91166666666686,
      "v": 110
    },
    {
      "midi": 66,
      "hit": false,
      "t": 98832.6151666668,
      "d": 91.91166666666686,
      "v": 92
    },
    {
      "midi": 57,
      "hit": false,
      "t": 98841.80633333347,
      "d": 64.33816666666826,
      "v": 120
    },
    {
      "midi": 57,
      "hit": false,
      "t": 99273.79116666681,
      "d": 1121.3223333333299,
      "v": 114
    },
    {
      "midi": 66,
      "hit": false,
      "t": 99273.79116666681,
      "d": 1139.7046666666574,
      "v": 86
    },
    {
      "midi": 61,
      "hit": false,
      "t": 99273.79116666681,
      "d": 1148.8958333333285,
      "v": 106
    },
    {
      "midi": 59,
      "hit": false,
      "t": 100597.3191666668,
      "d": 91.91166666666686,
      "v": 110
    },
    {
      "midi": 55,
      "hit": false,
      "t": 100606.51033333347,
      "d": 101.10283333332336,
      "v": 110
    },
    {
      "midi": 64,
      "hit": false,
      "t": 100606.51033333347,
      "d": 119.48516666665091,
      "v": 94
    },
    {
      "midi": 55,
      "hit": false,
      "t": 101038.49516666679,
      "d": 1148.8958333333285,
      "v": 106
    },
    {
      "midi": 59,
      "hit": false,
      "t": 101038.49516666679,
      "d": 1194.8516666666546,
      "v": 92
    },
    {
      "midi": 64,
      "hit": false,
      "t": 101038.49516666679,
      "d": 1213.2339999999822,
      "v": 92
    },
    {
      "midi": 64,
      "hit": false,
      "t": 102362.02316666677,
      "d": 1562.4983333333366,
      "v": 92
    },
    {
      "midi": 57,
      "hit": false,
      "t": 102371.21433333344,
      "d": 1516.542499999996,
      "v": 116
    },
    {
      "midi": 61,
      "hit": false,
      "t": 102371.21433333344,
      "d": 1553.3071666666656,
      "v": 106
    },
    {
      "midi": 57,
      "hit": false,
      "t": 104126.72716666677,
      "d": 1764.703999999998,
      "v": 114
    },
    {
      "midi": 62,
      "hit": false,
      "t": 104135.91833333344,
      "d": 1755.5128333333269,
      "v": 80
    },
    {
      "midi": 66,
      "hit": false,
      "t": 104135.91833333344,
      "d": 1764.703999999998,
      "v": 86
    },
    {
      "midi": 74,
      "hit": false,
      "t": 108317.89916666676,
      "d": 73.52933333333931,
      "v": 96
    },
    {
      "midi": 74,
      "hit": false,
      "t": 108538.48716666676,
      "d": 91.91166666666686,
      "v": 108
    },
    {
      "midi": 78,
      "hit": false,
      "t": 108538.48716666676,
      "d": 91.91166666666686,
      "v": 107
    },
    {
      "midi": 76,
      "hit": false,
      "t": 108979.66316666677,
      "d": 73.52933333333931,
      "v": 106
    },
    {
      "midi": 79,
      "hit": false,
      "t": 108979.66316666677,
      "d": 91.91166666666686,
      "v": 108
    },
    {
      "midi": 81,
      "hit": false,
      "t": 109200.25116666677,
      "d": 82.72049999999581,
      "v": 108
    },
    {
      "midi": 78,
      "hit": false,
      "t": 109200.25116666677,
      "d": 110.29399999999441,
      "v": 106
    },
    {
      "midi": 74,
      "hit": false,
      "t": 111847.30716666677,
      "d": 91.91166666666686,
      "v": 86
    },
    {
      "midi": 74,
      "hit": false,
      "t": 112067.89516666677,
      "d": 91.91166666666686,
      "v": 110
    },
    {
      "midi": 76,
      "hit": false,
      "t": 112509.07116666678,
      "d": 55.146999999997206,
      "v": 102
    },
    {
      "midi": 78,
      "hit": false,
      "t": 112950.24716666677,
      "d": 73.52933333333931,
      "v": 110
    },
    {
      "midi": 76,
      "hit": false,
      "t": 113832.59916666677,
      "d": 91.91166666666686,
      "v": 110
    },
    {
      "midi": 74,
      "hit": false,
      "t": 115376.71516666676,
      "d": 91.91166666666686,
      "v": 100
    },
    {
      "midi": 78,
      "hit": false,
      "t": 115376.71516666676,
      "d": 91.91166666666686,
      "v": 90
    },
    {
      "midi": 74,
      "hit": false,
      "t": 115597.30316666677,
      "d": 110.29399999999441,
      "v": 108
    },
    {
      "midi": 78,
      "hit": false,
      "t": 115597.30316666677,
      "d": 147.05866666666407,
      "v": 110
    },
    {
      "midi": 76,
      "hit": false,
      "t": 116038.47916666676,
      "d": 110.29399999999441,
      "v": 110
    },
    {
      "midi": 79,
      "hit": false,
      "t": 116038.47916666676,
      "d": 119.48516666666546,
      "v": 110
    },
    {
      "midi": 78,
      "hit": false,
      "t": 116259.06716666676,
      "d": 110.29399999999441,
      "v": 108
    },
    {
      "midi": 81,
      "hit": false,
      "t": 116259.06716666676,
      "d": 110.29399999999441,
      "v": 110
    },
    {
      "midi": 69,
      "hit": false,
      "t": 119567.88716666675,
      "d": 165.44100000000617,
      "v": 110
    },
    {
      "midi": 78,
      "hit": false,
      "t": 120009.06316666676,
      "d": 110.29399999999441,
      "v": 110
    },
    {
      "midi": 76,
      "hit": false,
      "t": 120450.23916666675,
      "d": 91.91166666666686,
      "v": 110
    },
    {
      "midi": 74,
      "hit": false,
      "t": 120891.41516666676,
      "d": 82.72049999999581,
      "v": 108
    },
    {
      "midi": 71,
      "hit": false,
      "t": 121112.00316666675,
      "d": 101.10283333333791,
      "v": 105
    },
    {
      "midi": 69,
      "hit": false,
      "t": 121773.76716666676,
      "d": 202.20566666666127,
      "v": 110
    },
    {
      "midi": 74,
      "hit": false,
      "t": 122435.53116666675,
      "d": 64.33816666666826,
      "v": 98
    },
    {
      "midi": 78,
      "hit": false,
      "t": 122435.53116666675,
      "d": 82.72049999999581,
      "v": 108
    },
    {
      "midi": 74,
      "hit": false,
      "t": 122656.11916666674,
      "d": 128.67633333333652,
      "v": 106
    },
    {
      "midi": 78,
      "hit": false,
      "t": 122656.11916666674,
      "d": 128.67633333333652,
      "v": 104
    },
    {
      "midi": 76,
      "hit": false,
      "t": 123097.29516666675,
      "d": 91.91166666666686,
      "v": 110
    },
    {
      "midi": 79,
      "hit": false,
      "t": 123097.29516666675,
      "d": 110.29399999999441,
      "v": 108
    },
    {
      "midi": 78,
      "hit": false,
      "t": 123317.88316666674,
      "d": 91.91166666666686,
      "v": 110
    },
    {
      "midi": 81,
      "hit": false,
      "t": 123317.88316666674,
      "d": 91.91166666666686,
      "v": 110
    },
    {
      "midi": 74,
      "hit": false,
      "t": 125964.93916666674,
      "d": 91.91166666666686,
      "v": 82
    },
    {
      "midi": 74,
      "hit": false,
      "t": 126185.52716666674,
      "d": 119.48516666666546,
      "v": 108
    },
    {
      "midi": 76,
      "hit": false,
      "t": 126626.70316666673,
      "d": 91.91166666666686,
      "v": 110
    },
    {
      "midi": 78,
      "hit": false,
      "t": 127067.87916666674,
      "d": 64.33816666666826,
      "v": 108
    },
    {
      "midi": 76,
      "hit": false,
      "t": 127950.23116666674,
      "d": 101.10283333333791,
      "v": 108
    },
    {
      "midi": 64,
      "hit": false,
      "t": 134126.69516666673,
      "d": 1755.5128333333414,
      "v": 86
    },
    {
      "midi": 57,
      "hit": false,
      "t": 134126.69516666673,
      "d": 1764.703999999998,
      "v": 94
    },
    {
      "midi": 61,
      "hit": false,
      "t": 134126.69516666673,
      "d": 1764.703999999998,
      "v": 92
    },
    {
      "midi": 67,
      "hit": false,
      "t": 134126.69516666673,
      "d": 1764.703999999998,
      "v": 96
    },
    {
      "midi": 52,
      "hit": false,
      "t": 136773.75116666674,
      "d": 882.3520000000135,
      "v": 82
    },
    {
      "midi": 57,
      "hit": false,
      "t": 136773.75116666674,
      "d": 882.3520000000135,
      "v": 82
    },
    {
      "midi": 61,
      "hit": false,
      "t": 136773.75116666674,
      "d": 882.3520000000135,
      "v": 82
    },
    {
      "midi": 57,
      "hit": false,
      "t": 137656.10316666675,
      "d": 1378.6749999999593,
      "v": 100
    },
    {
      "midi": 62,
      "hit": false,
      "t": 137665.2943333334,
      "d": 1314.3368333333055,
      "v": 108
    },
    {
      "midi": 66,
      "hit": false,
      "t": 137665.2943333334,
      "d": 1351.1014999999607,
      "v": 92
    },
    {
      "midi": 66,
      "hit": false,
      "t": 139420.8071666667,
      "d": 1056.9841666666616,
      "v": 84
    },
    {
      "midi": 57,
      "hit": false,
      "t": 139420.8071666667,
      "d": 1066.1753333333181,
      "v": 86
    },
    {
      "midi": 61,
      "hit": false,
      "t": 139420.8071666667,
      "d": 1102.9399999999732,
      "v": 86
    },
    {
      "midi": 59,
      "hit": false,
      "t": 141185.51116666666,
      "d": 1112.1311666666588,
      "v": 92
    },
    {
      "midi": 64,
      "hit": false,
      "t": 141185.51116666666,
      "d": 1222.4251666666532,
      "v": 86
    },
    {
      "midi": 55,
      "hit": false,
      "t": 141194.70233333332,
      "d": 1130.513500000001,
      "v": 90
    },
    {
      "midi": 61,
      "hit": false,
      "t": 142950.21516666663,
      "d": 1305.145666666649,
      "v": 92
    },
    {
      "midi": 64,
      "hit": false,
      "t": 142950.21516666663,
      "d": 1305.145666666649,
      "v": 86
    },
    {
      "midi": 57,
      "hit": false,
      "t": 142959.4063333333,
      "d": 1240.8074999999953,
      "v": 92
    },
    {
      "midi": 57,
      "hit": false,
      "t": 144273.74316666662,
      "d": 441.17600000000675,
      "v": 104
    },
    {
      "midi": 61,
      "hit": false,
      "t": 144273.74316666662,
      "d": 441.17600000000675,
      "v": 96
    },
    {
      "midi": 64,
      "hit": false,
      "t": 144273.74316666662,
      "d": 441.17600000000675,
      "v": 88
    },
    {
      "midi": 62,
      "hit": false,
      "t": 144724.1103333333,
      "d": 1314.3368333333055,
      "v": 108
    },
    {
      "midi": 66,
      "hit": false,
      "t": 144724.1103333333,
      "d": 1351.1014999999607,
      "v": 92
    },
    {
      "midi": 57,
      "hit": false,
      "t": 144724.1103333333,
      "d": 1360.2926666666172,
      "v": 100
    },
    {
      "midi": 57,
      "hit": false,
      "t": 146479.62316666657,
      "d": 1066.1753333333181,
      "v": 86
    },
    {
      "midi": 66,
      "hit": false,
      "t": 146479.62316666657,
      "d": 1066.1753333333181,
      "v": 84
    },
    {
      "midi": 61,
      "hit": false,
      "t": 146479.62316666657,
      "d": 1102.9399999999732,
      "v": 86
    },
    {
      "midi": 64,
      "hit": false,
      "t": 148244.32716666654,
      "d": 1231.6163333333097,
      "v": 86
    },
    {
      "midi": 59,
      "hit": false,
      "t": 148253.5183333332,
      "d": 1112.1311666666588,
      "v": 92
    },
    {
      "midi": 55,
      "hit": false,
      "t": 148253.5183333332,
      "d": 1130.513500000001,
      "v": 90
    },
    {
      "midi": 61,
      "hit": false,
      "t": 150009.0311666665,
      "d": 1305.145666666649,
      "v": 92
    },
    {
      "midi": 57,
      "hit": false,
      "t": 150018.22233333316,
      "d": 1231.6163333333388,
      "v": 92
    },
    {
      "midi": 64,
      "hit": false,
      "t": 150018.22233333316,
      "d": 1295.9544999999925,
      "v": 86
    },
    {
      "midi": 57,
      "hit": false,
      "t": 151332.5591666665,
      "d": 441.17600000000675,
      "v": 104
    },
    {
      "midi": 61,
      "hit": false,
      "t": 151332.5591666665,
      "d": 441.17600000000675,
      "v": 96
    },
    {
      "midi": 64,
      "hit": false,
      "t": 151332.5591666665,
      "d": 441.17600000000675,
      "v": 88
    },
    {
      "midi": 62,
      "hit": false,
      "t": 151782.92633333316,
      "d": 1369.4838333333319,
      "v": 98
    },
    {
      "midi": 66,
      "hit": false,
      "t": 151782.92633333316,
      "d": 1479.7778333333263,
      "v": 86
    },
    {
      "midi": 57,
      "hit": false,
      "t": 151782.92633333316,
      "d": 1590.0718333333207,
      "v": 88
    },
    {
      "midi": 66,
      "hit": false,
      "t": 153538.43916666647,
      "d": 1102.9400000000023,
      "v": 84
    },
    {
      "midi": 61,
      "hit": false,
      "t": 153538.43916666647,
      "d": 1130.513500000001,
      "v": 92
    },
    {
      "midi": 57,
      "hit": false,
      "t": 153547.63033333313,
      "d": 1102.9400000000023,
      "v": 94
    },
    {
      "midi": 55,
      "hit": false,
      "t": 155303.14316666647,
      "d": 1507.3513333333249,
      "v": 92
    },
    {
      "midi": 59,
      "hit": false,
      "t": 155303.14316666647,
      "d": 1534.9248333333235,
      "v": 92
    },
    {
      "midi": 62,
      "hit": false,
      "t": 155303.14316666647,
      "d": 1544.11599999998,
      "v": 98
    },
    {
      "midi": 64,
      "hit": false,
      "t": 157067.84716666644,
      "d": 799.6314999999886,
      "v": 92
    },
    {
      "midi": 61,
      "hit": false,
      "t": 157067.84716666644,
      "d": 818.0138333333307,
      "v": 96
    },
    {
      "midi": 57,
      "hit": false,
      "t": 157077.0383333331,
      "d": 762.8668333333335,
      "v": 114
    },
    {
      "midi": 62,
      "hit": false,
      "t": 157950.19916666643,
      "d": 680.1463333333377,
      "v": 118
    },
    {
      "midi": 59,
      "hit": false,
      "t": 157959.39033333308,
      "d": 652.5728333333391,
      "v": 118
    },
    {
      "midi": 66,
      "hit": false,
      "t": 157959.39033333308,
      "d": 680.1463333333377,
      "v": 104
    },
    {
      "midi": 57,
      "hit": false,
      "t": 158832.5511666664,
      "d": 1433.8219999999856,
      "v": 118
    },
    {
      "midi": 66,
      "hit": false,
      "t": 158832.5511666664,
      "d": 1433.8219999999856,
      "v": 86
    },
    {
      "midi": 61,
      "hit": false,
      "t": 158832.5511666664,
      "d": 1470.5866666666407,
      "v": 104
    },
    {
      "midi": 55,
      "hit": false,
      "t": 160597.25516666638,
      "d": 1406.248499999987,
      "v": 88
    },
    {
      "midi": 59,
      "hit": false,
      "t": 160597.25516666638,
      "d": 1443.013166666642,
      "v": 96
    },
    {
      "midi": 64,
      "hit": false,
      "t": 160597.25516666638,
      "d": 1525.7336666666379,
      "v": 86
    },
    {
      "midi": 57,
      "hit": false,
      "t": 162361.95916666635,
      "d": 1580.8806666666642,
      "v": 94
    },
    {
      "midi": 64,
      "hit": false,
      "t": 162361.95916666635,
      "d": 1599.2630000000063,
      "v": 88
    },
    {
      "midi": 61,
      "hit": false,
      "t": 162361.95916666635,
      "d": 1617.6453333333484,
      "v": 90
    },
    {
      "midi": 57,
      "hit": false,
      "t": 164126.66316666637,
      "d": 1764.703999999998,
      "v": 82
    },
    {
      "midi": 62,
      "hit": false,
      "t": 164126.66316666637,
      "d": 1893.3803333333053,
      "v": 88
    },
    {
      "midi": 66,
      "hit": false,
      "t": 164135.85433333303,
      "d": 1856.6156666666502,
      "v": 80
    },
    {
      "midi": 54,
      "hit": false,
      "t": 165891.36716666637,
      "d": 1406.248499999987,
      "v": 84
    },
    {
      "midi": 57,
      "hit": false,
      "t": 165891.36716666637,
      "d": 3161.7613333333284,
      "v": 86
    },
    {
      "midi": 50,
      "hit": false,
      "t": 165900.55833333303,
      "d": 1323.5279999999912,
      "v": 80
    },
    {
      "midi": 54,
      "hit": false,
      "t": 167656.07116666637,
      "d": 1461.3954999999842,
      "v": 52
    },
    {
      "midi": 49,
      "hit": false,
      "t": 167665.26233333303,
      "d": 1360.2926666666754,
      "v": 92
    },
    {
      "midi": 59,
      "hit": false,
      "t": 169420.77516666637,
      "d": 1102.9400000000023,
      "v": 84
    },
    {
      "midi": 62,
      "hit": false,
      "t": 169429.96633333302,
      "d": 1093.7488333333458,
      "v": 82
    },
    {
      "midi": 55,
      "hit": false,
      "t": 169429.96633333302,
      "d": 1130.513500000001,
      "v": 88
    },
    {
      "midi": 52,
      "hit": false,
      "t": 169429.96633333302,
      "d": 1148.895833333343,
      "v": 74
    },
    {
      "midi": 61,
      "hit": false,
      "t": 171185.47916666637,
      "d": 1305.145666666649,
      "v": 92
    },
    {
      "midi": 57,
      "hit": false,
      "t": 171185.47916666637,
      "d": 1378.6749999999884,
      "v": 76
    },
    {
      "midi": 52,
      "hit": false,
      "t": 171194.67033333302,
      "d": 1295.9544999999925,
      "v": 92
    },
    {
      "midi": 57,
      "hit": false,
      "t": 172950.18316666636,
      "d": 1047.792999999976,
      "v": 94
    },
    {
      "midi": 66,
      "hit": false,
      "t": 172950.18316666636,
      "d": 1047.792999999976,
      "v": 88
    },
    {
      "midi": 62,
      "hit": false,
      "t": 172959.37433333302,
      "d": 1038.6018333333195,
      "v": 102
    },
    {
      "midi": 61,
      "hit": false,
      "t": 174714.88716666633,
      "d": 1001.8371666666353,
      "v": 90
    },
    {
      "midi": 57,
      "hit": false,
      "t": 174724.078333333,
      "d": 983.4548333333223,
      "v": 100
    },
    {
      "midi": 66,
      "hit": false,
      "t": 174724.078333333,
      "d": 983.4548333333223,
      "v": 86
    },
    {
      "midi": 64,
      "hit": false,
      "t": 176479.5911666663,
      "d": 965.0724999999802,
      "v": 90
    },
    {
      "midi": 55,
      "hit": false,
      "t": 176488.78233333296,
      "d": 919.1166666666686,
      "v": 72
    },
    {
      "midi": 59,
      "hit": false,
      "t": 176488.78233333296,
      "d": 946.6901666666672,
      "v": 86
    },
    {
      "midi": 62,
      "hit": false,
      "t": 176488.78233333296,
      "d": 965.0724999999802,
      "v": 96
    },
    {
      "midi": 64,
      "hit": false,
      "t": 178244.29516666627,
      "d": 1681.983500000002,
      "v": 58
    },
    {
      "midi": 61,
      "hit": false,
      "t": 178244.29516666627,
      "d": 1709.5570000000007,
      "v": 70
    },
    {
      "midi": 57,
      "hit": false,
      "t": 178253.48633333293,
      "d": 1158.0869999999995,
      "v": 84
    },
    {
      "midi": 67,
      "hit": false,
      "t": 179567.82316666626,
      "d": 422.79366666666465,
      "v": 114
    },
    {
      "midi": 57,
      "hit": false,
      "t": 179567.82316666626,
      "d": 441.17600000000675,
      "v": 96
    },
    {
      "midi": 57,
      "hit": false,
      "t": 180008.99916666627,
      "d": 9.1911666666565,
      "v": 82
    },
    {
      "midi": 66,
      "hit": false,
      "t": 180008.99916666627,
      "d": 110.29399999999441,
      "v": 80
    },
    {
      "midi": 62,
      "hit": false,
      "t": 180008.99916666627,
      "d": 128.67633333333652,
      "v": 88
    },
    {
      "midi": 50,
      "hit": false,
      "t": 180018.19033333292,
      "d": 1332.7191666666768,
      "v": 80
    },
    {
      "midi": 54,
      "hit": false,
      "t": 180018.19033333292,
      "d": 1406.248500000016,
      "v": 84
    },
    {
      "midi": 57,
      "hit": false,
      "t": 180018.19033333292,
      "d": 3143.3790000000154,
      "v": 86
    },
    {
      "midi": 54,
      "hit": false,
      "t": 181773.70316666627,
      "d": 1470.5866666666698,
      "v": 52
    },
    {
      "midi": 49,
      "hit": false,
      "t": 181782.89433333292,
      "d": 1360.2926666666754,
      "v": 92
    },
    {
      "midi": 59,
      "hit": false,
      "t": 183538.40716666626,
      "d": 1093.7488333333167,
      "v": 84
    },
    {
      "midi": 52,
      "hit": false,
      "t": 183538.40716666626,
      "d": 1148.895833333314,
      "v": 74
    },
    {
      "midi": 62,
      "hit": false,
      "t": 183547.59833333292,
      "d": 1084.5576666666602,
      "v": 82
    },
    {
      "midi": 55,
      "hit": false,
      "t": 183547.59833333292,
      "d": 1130.513500000001,
      "v": 88
    },
    {
      "midi": 61,
      "hit": false,
      "t": 185303.11116666623,
      "d": 1295.9544999999925,
      "v": 92
    },
    {
      "midi": 52,
      "hit": false,
      "t": 185303.11116666623,
      "d": 1305.145666666649,
      "v": 92
    },
    {
      "midi": 57,
      "hit": false,
      "t": 185303.11116666623,
      "d": 1378.6749999999884,
      "v": 76
    },
    {
      "midi": 57,
      "hit": false,
      "t": 187067.81516666623,
      "d": 1047.7930000000051,
      "v": 94
    },
    {
      "midi": 62,
      "hit": false,
      "t": 187067.81516666623,
      "d": 1047.7930000000051,
      "v": 102
    },
    {
      "midi": 66,
      "hit": false,
      "t": 187067.81516666623,
      "d": 1047.7930000000051,
      "v": 88
    },
    {
      "midi": 66,
      "hit": false,
      "t": 188832.51916666623,
      "d": 983.4548333333223,
      "v": 86
    },
    {
      "midi": 61,
      "hit": false,
      "t": 188832.51916666623,
      "d": 1011.0283333333209,
      "v": 90
    },
    {
      "midi": 57,
      "hit": false,
      "t": 188841.71033333289,
      "d": 983.4548333333223,
      "v": 100
    },
    {
      "midi": 55,
      "hit": false,
      "t": 190597.2231666662,
      "d": 928.3078333333251,
      "v": 72
    },
    {
      "midi": 62,
      "hit": false,
      "t": 190597.2231666662,
      "d": 965.0724999999802,
      "v": 96
    },
    {
      "midi": 64,
      "hit": false,
      "t": 190597.2231666662,
      "d": 965.0724999999802,
      "v": 90
    },
    {
      "midi": 59,
      "hit": false,
      "t": 190606.41433333285,
      "d": 946.6901666666672,
      "v": 86
    },
    {
      "midi": 57,
      "hit": false,
      "t": 192361.92716666617,
      "d": 1167.278166666656,
      "v": 84
    },
    {
      "midi": 64,
      "hit": false,
      "t": 192361.92716666617,
      "d": 1691.1746666666586,
      "v": 58
    },
    {
      "midi": 61,
      "hit": false,
      "t": 192361.92716666617,
      "d": 1709.5570000000007,
      "v": 70
    },
    {
      "midi": 67,
      "hit": false,
      "t": 193685.45516666616,
      "d": 413.60250000000815,
      "v": 114
    },
    {
      "midi": 57,
      "hit": false,
      "t": 193685.45516666616,
      "d": 441.17600000000675,
      "v": 96
    },
    {
      "midi": 66,
      "hit": false,
      "t": 194126.63116666616,
      "d": 1047.792999999976,
      "v": 118
    },
    {
      "midi": 57,
      "hit": false,
      "t": 194135.82233333282,
      "d": 1038.6018333333195,
      "v": 124
    },
    {
      "midi": 62,
      "hit": false,
      "t": 194135.82233333282,
      "d": 1038.6018333333195,
      "v": 127
    },
    {
      "midi": 61,
      "hit": false,
      "t": 195891.33516666613,
      "d": 1011.0283333333209,
      "v": 120
    },
    {
      "midi": 57,
      "hit": false,
      "t": 195900.5263333328,
      "d": 983.4548333333223,
      "v": 127
    },
    {
      "midi": 66,
      "hit": false,
      "t": 195900.5263333328,
      "d": 983.4548333333223,
      "v": 116
    },
    {
      "midi": 55,
      "hit": false,
      "t": 197665.23033333276,
      "d": 919.1166666666686,
      "v": 102
    },
    {
      "midi": 59,
      "hit": false,
      "t": 197665.23033333276,
      "d": 946.6901666666672,
      "v": 116
    },
    {
      "midi": 62,
      "hit": false,
      "t": 197665.23033333276,
      "d": 965.0725000000093,
      "v": 126
    },
    {
      "midi": 64,
      "hit": false,
      "t": 197665.23033333276,
      "d": 965.0725000000093,
      "v": 120
    },
    {
      "midi": 64,
      "hit": false,
      "t": 199420.7431666661,
      "d": 1691.1746666666586,
      "v": 88
    },
    {
      "midi": 61,
      "hit": false,
      "t": 199420.7431666661,
      "d": 1709.5570000000007,
      "v": 100
    },
    {
      "midi": 57,
      "hit": false,
      "t": 199429.93433333276,
      "d": 1158.0869999999995,
      "v": 114
    },
    {
      "midi": 67,
      "hit": false,
      "t": 200744.2711666661,
      "d": 422.79366666666465,
      "v": 127
    },
    {
      "midi": 57,
      "hit": false,
      "t": 200744.2711666661,
      "d": 441.17600000000675,
      "v": 126
    },
    {
      "midi": 66,
      "hit": false,
      "t": 201194.63833333275,
      "d": 1029.410666666663,
      "v": 118
    },
    {
      "midi": 57,
      "hit": false,
      "t": 201194.63833333275,
      "d": 1038.6018333333195,
      "v": 124
    },
    {
      "midi": 62,
      "hit": false,
      "t": 201194.63833333275,
      "d": 1038.6018333333195,
      "v": 127
    },
    {
      "midi": 61,
      "hit": false,
      "t": 202950.15116666607,
      "d": 1001.8371666666353,
      "v": 120
    },
    {
      "midi": 57,
      "hit": false,
      "t": 202959.34233333272,
      "d": 983.4548333333223,
      "v": 127
    },
    {
      "midi": 66,
      "hit": false,
      "t": 202959.34233333272,
      "d": 983.4548333333223,
      "v": 116
    },
    {
      "midi": 64,
      "hit": false,
      "t": 204714.85516666604,
      "d": 965.0724999999802,
      "v": 120
    },
    {
      "midi": 62,
      "hit": false,
      "t": 204714.85516666604,
      "d": 974.2636666666367,
      "v": 126
    },
    {
      "midi": 55,
      "hit": false,
      "t": 204724.0463333327,
      "d": 919.1166666666686,
      "v": 102
    },
    {
      "midi": 59,
      "hit": false,
      "t": 204724.0463333327,
      "d": 946.6901666666672,
      "v": 116
    },
    {
      "midi": 64,
      "hit": false,
      "t": 206479.559166666,
      "d": 1681.983500000002,
      "v": 88
    },
    {
      "midi": 61,
      "hit": false,
      "t": 206479.559166666,
      "d": 1709.5570000000007,
      "v": 100
    },
    {
      "midi": 57,
      "hit": false,
      "t": 206488.75033333266,
      "d": 1158.0869999999995,
      "v": 114
    },
    {
      "midi": 67,
      "hit": false,
      "t": 207803.087166666,
      "d": 422.79366666666465,
      "v": 127
    },
    {
      "midi": 57,
      "hit": false,
      "t": 207803.087166666,
      "d": 441.17600000000675,
      "v": 126
    },
    {
      "midi": 62,
      "hit": false,
      "t": 208244.263166666,
      "d": 1314.3368333333055,
      "v": 127
    },
    {
      "midi": 66,
      "hit": false,
      "t": 208244.263166666,
      "d": 1351.1014999999607,
      "v": 122
    },
    {
      "midi": 57,
      "hit": false,
      "t": 208244.263166666,
      "d": 1378.6749999999593,
      "v": 127
    },
    {
      "midi": 66,
      "hit": false,
      "t": 210008.96716666594,
      "d": 1066.1753333333181,
      "v": 114
    },
    {
      "midi": 61,
      "hit": false,
      "t": 210008.96716666594,
      "d": 1102.9399999999732,
      "v": 116
    },
    {
      "midi": 57,
      "hit": false,
      "t": 210018.1583333326,
      "d": 1056.9841666666616,
      "v": 116
    },
    {
      "midi": 64,
      "hit": false,
      "t": 211773.6711666659,
      "d": 1231.6163333333097,
      "v": 116
    },
    {
      "midi": 59,
      "hit": false,
      "t": 211782.86233333257,
      "d": 1112.1311666666588,
      "v": 122
    },
    {
      "midi": 55,
      "hit": false,
      "t": 211782.86233333257,
      "d": 1130.513500000001,
      "v": 120
    },
    {
      "midi": 61,
      "hit": false,
      "t": 213538.37516666588,
      "d": 1295.9544999999925,
      "v": 122
    },
    {
      "midi": 64,
      "hit": false,
      "t": 213538.37516666588,
      "d": 1295.9544999999925,
      "v": 116
    },
    {
      "midi": 57,
      "hit": false,
      "t": 213547.56633333254,
      "d": 1240.8074999999953,
      "v": 122
    },
    {
      "midi": 57,
      "hit": false,
      "t": 214861.90316666587,
      "d": 441.17600000000675,
      "v": 127
    },
    {
      "midi": 61,
      "hit": false,
      "t": 214861.90316666587,
      "d": 441.17600000000675,
      "v": 126
    },
    {
      "midi": 64,
      "hit": false,
      "t": 214861.90316666587,
      "d": 441.17600000000675,
      "v": 118
    },
    {
      "midi": 62,
      "hit": false,
      "t": 215312.27033333253,
      "d": 1305.145666666649,
      "v": 127
    },
    {
      "midi": 66,
      "hit": false,
      "t": 215312.27033333253,
      "d": 1341.9103333333042,
      "v": 122
    },
    {
      "midi": 57,
      "hit": false,
      "t": 215312.27033333253,
      "d": 1369.4838333333028,
      "v": 127
    },
    {
      "midi": 66,
      "hit": false,
      "t": 217067.78316666582,
      "d": 1066.1753333333181,
      "v": 114
    },
    {
      "midi": 61,
      "hit": false,
      "t": 217067.78316666582,
      "d": 1093.7488333333167,
      "v": 116
    },
    {
      "midi": 57,
      "hit": false,
      "t": 217076.97433333247,
      "d": 1056.9841666666616,
      "v": 116
    },
    {
      "midi": 59,
      "hit": false,
      "t": 218832.4871666658,
      "d": 1121.3223333333153,
      "v": 122
    },
    {
      "midi": 64,
      "hit": false,
      "t": 218832.4871666658,
      "d": 1231.6163333333097,
      "v": 116
    },
    {
      "midi": 55,
      "hit": false,
      "t": 218841.67833333244,
      "d": 1130.513500000001,
      "v": 120
    },
    {
      "midi": 61,
      "hit": false,
      "t": 220597.19116666575,
      "d": 1295.9544999999925,
      "v": 122
    },
    {
      "midi": 57,
      "hit": false,
      "t": 220606.3823333324,
      "d": 1231.6163333333388,
      "v": 122
    },
    {
      "midi": 64,
      "hit": false,
      "t": 220606.3823333324,
      "d": 1295.9544999999925,
      "v": 116
    },
    {
      "midi": 57,
      "hit": false,
      "t": 221920.71916666575,
      "d": 441.17600000000675,
      "v": 127
    },
    {
      "midi": 61,
      "hit": false,
      "t": 221920.71916666575,
      "d": 441.17600000000675,
      "v": 126
    },
    {
      "midi": 64,
      "hit": false,
      "t": 221920.71916666575,
      "d": 441.17600000000675,
      "v": 118
    },
    {
      "midi": 57,
      "hit": false,
      "t": 222371.0863333324,
      "d": 3511.0256666666537,
      "v": 127
    },
    {
      "midi": 62,
      "hit": false,
      "t": 222371.0863333324,
      "d": 3511.0256666666537,
      "v": 127
    },
    {
      "midi": 66,
      "hit": false,
      "t": 222371.0863333324,
      "d": 3511.0256666666537,
      "v": 127
    }
  ]
}