{
  "jsonPath": "Pop/Classic Italian Pop/Domenico Modugno/la-lontananza.json",
  "path": "Pop\\Classic Italian Pop\\Domenico Modugno\\La lontananza.mid",
  "name": "La lontananza",
  "difficulty": "Advanced",
  "bpm": 133.00053643549697,
  "notes": [
    {
      "midi": 53,
      "hit": false,
      "t": 2142.856,
      "d": 345.9819583333333,
      "v": 100
    },
    {
      "midi": 62,
      "hit": false,
      "t": 2142.856,
      "d": 546.8747083333333,
      "v": 109
    },
    {
      "midi": 46,
      "hit": false,
      "t": 2142.856,
      "d": 853.7941875000006,
      "v": 112
    },
    {
      "midi": 70,
      "hit": false,
      "t": 2142.8560000000007,
      "d": 485.4908125000002,
      "v": 1
    },
    {
      "midi": 62,
      "hit": false,
      "t": 2142.8560000000007,
      "d": 4252.229875000004,
      "v": 1
    },
    {
      "midi": 58,
      "hit": false,
      "t": 2142.8560000000007,
      "d": 4274.55129166667,
      "v": 1
    },
    {
      "midi": 53,
      "hit": false,
      "t": 2678.57,
      "d": 161.83027083333354,
      "v": 74
    },
    {
      "midi": 70,
      "hit": false,
      "t": 2678.570000000001,
      "d": 245.5355833333333,
      "v": 1
    },
    {
      "midi": 53,
      "hit": false,
      "t": 2946.4270000000006,
      "d": 424.1069166666671,
      "v": 104
    },
    {
      "midi": 58,
      "hit": false,
      "t": 2946.4270000000006,
      "d": 630.580020833334,
      "v": 107
    },
    {
      "midi": 62,
      "hit": false,
      "t": 2946.4270000000006,
      "d": 686.3835625000006,
      "v": 105
    },
    {
      "midi": 69,
      "hit": false,
      "t": 2946.427000000001,
      "d": 223.21416666666664,
      "v": 1
    },
    {
      "midi": 46,
      "hit": false,
      "t": 3214.284000000001,
      "d": 965.4012708333344,
      "v": 90
    },
    {
      "midi": 70,
      "hit": false,
      "t": 3214.284000000001,
      "d": 474.33010416666684,
      "v": 1
    },
    {
      "midi": 53,
      "hit": false,
      "t": 3482.141000000001,
      "d": 200.89275000000043,
      "v": 67
    },
    {
      "midi": 53,
      "hit": false,
      "t": 3749.9980000000014,
      "d": 368.3033750000004,
      "v": 48
    },
    {
      "midi": 58,
      "hit": false,
      "t": 3749.9980000000014,
      "d": 435.2676250000004,
      "v": 99
    },
    {
      "midi": 69,
      "hit": false,
      "t": 3749.9980000000014,
      "d": 217.6338125000002,
      "v": 1
    },
    {
      "midi": 70,
      "hit": false,
      "t": 4017.855000000002,
      "d": 719.8656875000001,
      "v": 1
    },
    {
      "midi": 58,
      "hit": false,
      "t": 4285.712000000002,
      "d": 608.2586041666664,
      "v": 106
    },
    {
      "midi": 62,
      "hit": false,
      "t": 4285.712000000002,
      "d": 619.4193125000002,
      "v": 96
    },
    {
      "midi": 53,
      "hit": false,
      "t": 4285.712000000002,
      "d": 652.9014375000006,
      "v": 98
    },
    {
      "midi": 46,
      "hit": false,
      "t": 4285.712000000002,
      "d": 881.6959583333346,
      "v": 94
    },
    {
      "midi": 70,
      "hit": false,
      "t": 4821.426000000002,
      "d": 234.37487500000043,
      "v": 1
    },
    {
      "midi": 53,
      "hit": false,
      "t": 5089.283000000003,
      "d": 368.3033750000013,
      "v": 86
    },
    {
      "midi": 62,
      "hit": false,
      "t": 5089.283000000003,
      "d": 725.4460416666689,
      "v": 83
    },
    {
      "midi": 69,
      "hit": false,
      "t": 5089.283000000003,
      "d": 212.05345833333377,
      "v": 1
    },
    {
      "midi": 46,
      "hit": false,
      "t": 5357.140000000004,
      "d": 647.3210833333351,
      "v": 94
    },
    {
      "midi": 70,
      "hit": false,
      "t": 5357.140000000004,
      "d": 485.4908125000002,
      "v": 1
    },
    {
      "midi": 53,
      "hit": false,
      "t": 5624.997000000005,
      "d": 223.21416666666755,
      "v": 80
    },
    {
      "midi": 69,
      "hit": false,
      "t": 5892.854000000004,
      "d": 217.6338125000002,
      "v": 1
    },
    {
      "midi": 58,
      "hit": false,
      "t": 5892.854000000006,
      "d": 273.4373541666664,
      "v": 102
    },
    {
      "midi": 53,
      "hit": false,
      "t": 5892.854000000006,
      "d": 295.7587708333331,
      "v": 60
    },
    {
      "midi": 62,
      "hit": false,
      "t": 5892.854000000006,
      "d": 306.91947916666686,
      "v": 92
    },
    {
      "midi": 70,
      "hit": false,
      "t": 6160.711000000004,
      "d": 753.347812500001,
      "v": 1
    },
    {
      "midi": 46,
      "hit": false,
      "t": 6160.711000000006,
      "d": 251.11593750000065,
      "v": 89
    },
    {
      "midi": 63,
      "hit": false,
      "t": 6428.568000000005,
      "d": 4246.649520833333,
      "v": 1
    },
    {
      "midi": 60,
      "hit": false,
      "t": 6428.568000000005,
      "d": 4263.390583333332,
      "v": 1
    },
    {
      "midi": 55,
      "hit": false,
      "t": 6428.568000000007,
      "d": 345.98195833333375,
      "v": 101
    },
    {
      "midi": 63,
      "hit": false,
      "t": 6428.568000000007,
      "d": 636.1603750000013,
      "v": 100
    },
    {
      "midi": 58,
      "hit": false,
      "t": 6428.568000000007,
      "d": 680.8032083333346,
      "v": 98
    },
    {
      "midi": 48,
      "hit": false,
      "t": 6428.568000000007,
      "d": 948.6602083333346,
      "v": 104
    },
    {
      "midi": 70,
      "hit": false,
      "t": 6964.282000000005,
      "d": 239.95522916666687,
      "v": 1
    },
    {
      "midi": 55,
      "hit": false,
      "t": 6964.282000000007,
      "d": 172.99097916666688,
      "v": 57
    },
    {
      "midi": 69,
      "hit": false,
      "t": 7232.139000000005,
      "d": 212.05345833333377,
      "v": 1
    },
    {
      "midi": 55,
      "hit": false,
      "t": 7232.139000000007,
      "d": 440.84797916666776,
      "v": 94
    },
    {
      "midi": 58,
      "hit": false,
      "t": 7232.139000000007,
      "d": 636.1603750000013,
      "v": 104
    },
    {
      "midi": 63,
      "hit": false,
      "t": 7232.139000000007,
      "d": 658.481791666668,
      "v": 106
    },
    {
      "midi": 70,
      "hit": false,
      "t": 7499.996000000006,
      "d": 496.65152083333305,
      "v": 1
    },
    {
      "midi": 48,
      "hit": false,
      "t": 7499.996000000008,
      "d": 887.2763125000001,
      "v": 95
    },
    {
      "midi": 55,
      "hit": false,
      "t": 7767.853000000008,
      "d": 228.794520833334,
      "v": 81
    },
    {
      "midi": 69,
      "hit": false,
      "t": 8035.7100000000055,
      "d": 206.47310416666642,
      "v": 1
    },
    {
      "midi": 63,
      "hit": false,
      "t": 8035.710000000009,
      "d": 351.5623124999993,
      "v": 101
    },
    {
      "midi": 55,
      "hit": false,
      "t": 8035.710000000009,
      "d": 368.3033749999986,
      "v": 96
    },
    {
      "midi": 70,
      "hit": false,
      "t": 8303.567000000005,
      "d": 742.1871041666673,
      "v": 1
    },
    {
      "midi": 63,
      "hit": false,
      "t": 8571.424000000008,
      "d": 630.580020833333,
      "v": 93
    },
    {
      "midi": 55,
      "hit": false,
      "t": 8571.424000000008,
      "d": 647.3210833333324,
      "v": 93
    },
    {
      "midi": 58,
      "hit": false,
      "t": 8571.424000000008,
      "d": 708.704979166665,
      "v": 89
    },
    {
      "midi": 48,
      "hit": false,
      "t": 8571.424000000008,
      "d": 904.0173749999976,
      "v": 100
    },
    {
      "midi": 70,
      "hit": false,
      "t": 9107.138000000004,
      "d": 217.6338125000002,
      "v": 1
    },
    {
      "midi": 69,
      "hit": false,
      "t": 9374.995000000004,
      "d": 217.6338125000002,
      "v": 1
    },
    {
      "midi": 55,
      "hit": false,
      "t": 9374.995000000006,
      "d": 479.91045833333374,
      "v": 88
    },
    {
      "midi": 63,
      "hit": false,
      "t": 9374.995000000006,
      "d": 647.3210833333342,
      "v": 102
    },
    {
      "midi": 58,
      "hit": false,
      "t": 9374.995000000006,
      "d": 669.6425000000017,
      "v": 98
    },
    {
      "midi": 70,
      "hit": false,
      "t": 9642.852000000004,
      "d": 507.81222916666593,
      "v": 1
    },
    {
      "midi": 48,
      "hit": false,
      "t": 9642.852000000006,
      "d": 1043.5262291666677,
      "v": 94
    },
    {
      "midi": 55,
      "hit": false,
      "t": 9910.709000000006,
      "d": 150.66956250000112,
      "v": 57
    },
    {
      "midi": 69,
      "hit": false,
      "t": 10178.566000000004,
      "d": 212.05345833333377,
      "v": 1
    },
    {
      "midi": 58,
      "hit": false,
      "t": 10178.566000000008,
      "d": 412.94620833333283,
      "v": 101
    },
    {
      "midi": 63,
      "hit": false,
      "t": 10178.566000000008,
      "d": 412.94620833333283,
      "v": 100
    },
    {
      "midi": 55,
      "hit": false,
      "t": 10178.566000000008,
      "d": 429.68727083333215,
      "v": 95
    },
    {
      "midi": 70,
      "hit": false,
      "t": 10446.423000000004,
      "d": 736.6067500000008,
      "v": 1
    },
    {
      "midi": 58,
      "hit": false,
      "t": 10714.280000000004,
      "d": 4168.5245625000025,
      "v": 1
    },
    {
      "midi": 63,
      "hit": false,
      "t": 10714.280000000004,
      "d": 4207.587041666669,
      "v": 1
    },
    {
      "midi": 55,
      "hit": false,
      "t": 10714.280000000008,
      "d": 608.2586041666673,
      "v": 104
    },
    {
      "midi": 63,
      "hit": false,
      "t": 10714.280000000008,
      "d": 613.8389583333337,
      "v": 103
    },
    {
      "midi": 58,
      "hit": false,
      "t": 10714.280000000008,
      "d": 647.3210833333342,
      "v": 107
    },
    {
      "midi": 39,
      "hit": false,
      "t": 10714.280000000008,
      "d": 892.8566666666684,
      "v": 108
    },
    {
      "midi": 70,
      "hit": false,
      "t": 11249.994000000006,
      "d": 234.37487499999952,
      "v": 1
    },
    {
      "midi": 69,
      "hit": false,
      "t": 11517.851000000006,
      "d": 217.6338125000002,
      "v": 1
    },
    {
      "midi": 55,
      "hit": false,
      "t": 11517.85100000001,
      "d": 401.78549999999996,
      "v": 93
    },
    {
      "midi": 58,
      "hit": false,
      "t": 11517.85100000001,
      "d": 585.9371874999997,
      "v": 105
    },
    {
      "midi": 63,
      "hit": false,
      "t": 11517.85100000001,
      "d": 814.7317083333328,
      "v": 97
    },
    {
      "midi": 70,
      "hit": false,
      "t": 11785.708000000006,
      "d": 530.1336458333335,
      "v": 1
    },
    {
      "midi": 39,
      "hit": false,
      "t": 11785.70800000001,
      "d": 959.8209166666657,
      "v": 91
    },
    {
      "midi": 55,
      "hit": false,
      "t": 12053.56500000001,
      "d": 630.580020833333,
      "v": 70
    },
    {
      "midi": 69,
      "hit": false,
      "t": 12321.422000000006,
      "d": 217.6338125000002,
      "v": 1
    },
    {
      "midi": 58,
      "hit": false,
      "t": 12321.42200000001,
      "d": 446.4283333333333,
      "v": 95
    },
    {
      "midi": 70,
      "hit": false,
      "t": 12589.279000000006,
      "d": 708.7049791666668,
      "v": 1
    },
    {
      "midi": 55,
      "hit": false,
      "t": 12857.13600000001,
      "d": 686.3835624999992,
      "v": 96
    },
    {
      "midi": 63,
      "hit": false,
      "t": 12857.13600000001,
      "d": 697.5442708333321,
      "v": 86
    },
    {
      "midi": 58,
      "hit": false,
      "t": 12857.13600000001,
      "d": 708.704979166665,
      "v": 91
    },
    {
      "midi": 39,
      "hit": false,
      "t": 12857.13600000001,
      "d": 931.9191458333316,
      "v": 90
    },
    {
      "midi": 70,
      "hit": false,
      "t": 13392.850000000006,
      "d": 234.37487499999952,
      "v": 1
    },
    {
      "midi": 69,
      "hit": false,
      "t": 13660.707000000006,
      "d": 245.53558333333422,
      "v": 1
    },
    {
      "midi": 55,
      "hit": false,
      "t": 13660.707000000008,
      "d": 435.2676250000004,
      "v": 88
    },
    {
      "midi": 58,
      "hit": false,
      "t": 13660.707000000008,
      "d": 664.0621458333335,
      "v": 104
    },
    {
      "midi": 63,
      "hit": false,
      "t": 13660.707000000008,
      "d": 680.8032083333328,
      "v": 99
    },
    {
      "midi": 39,
      "hit": false,
      "t": 13928.564000000008,
      "d": 513.3925833333324,
      "v": 94
    },
    {
      "midi": 70,
      "hit": false,
      "t": 13928.564000000008,
      "d": 479.91045833333374,
      "v": 1
    },
    {
      "midi": 55,
      "hit": false,
      "t": 14196.421000000008,
      "d": 161.83027083333218,
      "v": 50
    },
    {
      "midi": 63,
      "hit": false,
      "t": 14464.278000000008,
      "d": 385.04443750000064,
      "v": 106
    },
    {
      "midi": 39,
      "hit": false,
      "t": 14464.278000000008,
      "d": 396.2051458333335,
      "v": 97
    },
    {
      "midi": 58,
      "hit": false,
      "t": 14464.278000000008,
      "d": 424.10691666666753,
      "v": 107
    },
    {
      "midi": 55,
      "hit": false,
      "t": 14464.278000000008,
      "d": 429.68727083333397,
      "v": 103
    },
    {
      "midi": 69,
      "hit": false,
      "t": 14464.278000000008,
      "d": 228.79452083333308,
      "v": 1
    },
    {
      "midi": 70,
      "hit": false,
      "t": 14732.135000000007,
      "d": 4335.935187500001,
      "v": 1
    },
    {
      "midi": 53,
      "hit": false,
      "t": 14999.992000000007,
      "d": 435.2676250000004,
      "v": 92
    },
    {
      "midi": 62,
      "hit": false,
      "t": 14999.992000000007,
      "d": 602.6782500000008,
      "v": 97
    },
    {
      "midi": 58,
      "hit": false,
      "t": 14999.992000000007,
      "d": 691.9639166666675,
      "v": 92
    },
    {
      "midi": 46,
      "hit": false,
      "t": 14999.992000000007,
      "d": 915.178083333336,
      "v": 100
    },
    {
      "midi": 62,
      "hit": false,
      "t": 14999.992000000007,
      "d": 4213.167395833336,
      "v": 1
    },
    {
      "midi": 58,
      "hit": false,
      "t": 14999.992000000007,
      "d": 4241.06916666667,
      "v": 1
    },
    {
      "midi": 53,
      "hit": false,
      "t": 15535.706000000007,
      "d": 139.50885416666824,
      "v": 78
    },
    {
      "midi": 53,
      "hit": false,
      "t": 15803.56300000001,
      "d": 435.2676250000022,
      "v": 95
    },
    {
      "midi": 58,
      "hit": false,
      "t": 15803.56300000001,
      "d": 613.8389583333337,
      "v": 105
    },
    {
      "midi": 62,
      "hit": false,
      "t": 15803.56300000001,
      "d": 719.8656875000015,
      "v": 95
    },
    {
      "midi": 46,
      "hit": false,
      "t": 16071.420000000011,
      "d": 943.0798541666645,
      "v": 99
    },
    {
      "midi": 53,
      "hit": false,
      "t": 16339.277000000011,
      "d": 714.2853333333314,
      "v": 68
    },
    {
      "midi": 58,
      "hit": false,
      "t": 16607.13400000001,
      "d": 418.5265624999993,
      "v": 93
    },
    {
      "midi": 58,
      "hit": false,
      "t": 17142.84800000001,
      "d": 686.3835624999992,
      "v": 90
    },
    {
      "midi": 53,
      "hit": false,
      "t": 17142.84800000001,
      "d": 691.9639166666675,
      "v": 77
    },
    {
      "midi": 62,
      "hit": false,
      "t": 17142.84800000001,
      "d": 691.9639166666675,
      "v": 87
    },
    {
      "midi": 46,
      "hit": false,
      "t": 17142.84800000001,
      "d": 937.4995000000017,
      "v": 94
    },
    {
      "midi": 53,
      "hit": false,
      "t": 17946.41900000001,
      "d": 385.0444375000043,
      "v": 88
    },
    {
      "midi": 58,
      "hit": false,
      "t": 17946.41900000001,
      "d": 563.6157708333376,
      "v": 97
    },
    {
      "midi": 62,
      "hit": false,
      "t": 17946.41900000001,
      "d": 719.8656875000052,
      "v": 80
    },
    {
      "midi": 46,
      "hit": false,
      "t": 18214.276000000013,
      "d": 848.2138333333387,
      "v": 99
    },
    {
      "midi": 53,
      "hit": false,
      "t": 18482.133000000013,
      "d": 262.27664583333535,
      "v": 89
    },
    {
      "midi": 58,
      "hit": false,
      "t": 18749.990000000016,
      "d": 223.21416666666846,
      "v": 96
    },
    {
      "midi": 53,
      "hit": false,
      "t": 18749.990000000016,
      "d": 234.37487500000134,
      "v": 92
    },
    {
      "midi": 62,
      "hit": false,
      "t": 18749.990000000016,
      "d": 239.9552291666696,
      "v": 92
    },
    {
      "midi": 64,
      "hit": false,
      "t": 242142.72800000003,
      "d": 407.36585416668095,
      "v": 1
    },
    {
      "midi": 72,
      "hit": false,
      "t": 242142.72800000003,
      "d": 440.8479791666905,
      "v": 1
    },
    {
      "midi": 72,
      "hit": false,
      "t": 242678.44200000007,
      "d": 234.37487500000861,
      "v": 1
    },
    {
      "midi": 64,
      "hit": false,
      "t": 242678.44200000007,
      "d": 256.69629166668165,
      "v": 1
    },
    {
      "midi": 71,
      "hit": false,
      "t": 242946.2990000001,
      "d": 234.37487500000861,
      "v": 1
    },
    {
      "midi": 63,
      "hit": false,
      "t": 242946.2990000001,
      "d": 245.53558333334513,
      "v": 1
    },
    {
      "midi": 64,
      "hit": false,
      "t": 243214.1560000001,
      "d": 496.65152083334397,
      "v": 1
    },
    {
      "midi": 72,
      "hit": false,
      "t": 243214.1560000001,
      "d": 496.65152083334397,
      "v": 1
    },
    {
      "midi": 63,
      "hit": false,
      "t": 243749.8700000001,
      "d": 463.1693958333344,
      "v": 1
    },
    {
      "midi": 71,
      "hit": false,
      "t": 243749.8700000001,
      "d": 474.33010416667094,
      "v": 1
    },
    {
      "midi": 72,
      "hit": false,
      "t": 244285.58400000012,
      "d": 1015.6244583333319,
      "v": 1
    },
    {
      "midi": 64,
      "hit": false,
      "t": 244285.58400000012,
      "d": 1037.945875000005,
      "v": 1
    },
    {
      "midi": 62,
      "hit": false,
      "t": 245357.01200000013,
      "d": 345.98195833334466,
      "v": 1
    },
    {
      "midi": 71,
      "hit": false,
      "t": 245357.01200000013,
      "d": 345.98195833334466,
      "v": 1
    },
    {
      "midi": 65,
      "hit": false,
      "t": 245758.79750000013,
      "d": 256.69629166665254,
      "v": 1
    },
    {
      "midi": 74,
      "hit": false,
      "t": 245758.79750000013,
      "d": 256.69629166665254,
      "v": 1
    },
    {
      "midi": 64,
      "hit": false,
      "t": 246160.58300000013,
      "d": 267.85699999998906,
      "v": 1
    },
    {
      "midi": 72,
      "hit": false,
      "t": 246160.58300000013,
      "d": 301.3391249999986,
      "v": 1
    },
    {
      "midi": 64,
      "hit": false,
      "t": 246428.44000000012,
      "d": 412.94620833333465,
      "v": 1
    },
    {
      "midi": 55,
      "hit": false,
      "t": 246428.44000000012,
      "d": 435.2676250000077,
      "v": 1
    },
    {
      "midi": 55,
      "hit": false,
      "t": 246964.15400000013,
      "d": 3219.864354166668,
      "v": 1
    },
    {
      "midi": 64,
      "hit": false,
      "t": 246964.15400000013,
      "d": 3242.185770833341,
      "v": 1
    },
    {
      "midi": 64,
      "hit": false,
      "t": 250714.15200000015,
      "d": 440.8479791666614,
      "v": 1
    },
    {
      "midi": 72,
      "hit": false,
      "t": 250714.15200000015,
      "d": 446.4283333333151,
      "v": 1
    },
    {
      "midi": 72,
      "hit": false,
      "t": 251249.86600000013,
      "d": 206.47310416665277,
      "v": 1
    },
    {
      "midi": 64,
      "hit": false,
      "t": 251249.86600000013,
      "d": 228.7945208333258,
      "v": 1
    },
    {
      "midi": 71,
      "hit": false,
      "t": 251517.72300000011,
      "d": 245.53558333334513,
      "v": 1
    },
    {
      "midi": 63,
      "hit": false,
      "t": 251517.72300000011,
      "d": 251.11593749999884,
      "v": 1
    },
    {
      "midi": 72,
      "hit": false,
      "t": 251785.5800000001,
      "d": 485.49081250000745,
      "v": 1
    },
    {
      "midi": 64,
      "hit": false,
      "t": 251785.5800000001,
      "d": 524.5532916666707,
      "v": 1
    },
    {
      "midi": 63,
      "hit": false,
      "t": 252321.2940000001,
      "d": 485.49081250000745,
      "v": 1
    },
    {
      "midi": 71,
      "hit": false,
      "t": 252321.2940000001,
      "d": 496.65152083334397,
      "v": 1
    },
    {
      "midi": 64,
      "hit": false,
      "t": 252857.00800000012,
      "d": 1021.2048125000147,
      "v": 1
    },
    {
      "midi": 72,
      "hit": false,
      "t": 252857.00800000012,
      "d": 1026.7851666666684,
      "v": 1
    },
    {
      "midi": 62,
      "hit": false,
      "t": 253928.43600000013,
      "d": 345.98195833334466,
      "v": 1
    },
    {
      "midi": 71,
      "hit": false,
      "t": 253928.43600000013,
      "d": 345.98195833334466,
      "v": 1
    },
    {
      "midi": 65,
      "hit": false,
      "t": 254330.22150000013,
      "d": 256.69629166665254,
      "v": 1
    },
    {
      "midi": 74,
      "hit": false,
      "t": 254330.22150000013,
      "d": 256.69629166665254,
      "v": 1
    },
    {
      "midi": 64,
      "hit": false,
      "t": 254732.00700000013,
      "d": 279.0177083333256,
      "v": 1
    },
    {
      "midi": 72,
      "hit": false,
      "t": 254732.00700000013,
      "d": 279.0177083333256,
      "v": 1
    },
    {
      "midi": 65,
      "hit": false,
      "t": 254999.86400000012,
      "d": 429.6872708333249,
      "v": 1
    },
    {
      "midi": 57,
      "hit": false,
      "t": 254999.86400000012,
      "d": 440.8479791666614,
      "v": 1
    },
    {
      "midi": 65,
      "hit": false,
      "t": 255535.57800000013,
      "d": 3554.685604166676,
      "v": 1
    },
    {
      "midi": 57,
      "hit": false,
      "t": 255535.57800000013,
      "d": 3593.7480833333393,
      "v": 1
    },
    {
      "midi": 62,
      "hit": false,
      "t": 259285.57600000012,
      "d": 429.6872708333249,
      "v": 1
    },
    {
      "midi": 74,
      "hit": false,
      "t": 259285.57600000012,
      "d": 435.2676249999786,
      "v": 1
    },
    {
      "midi": 62,
      "hit": false,
      "t": 259821.2900000001,
      "d": 256.69629166665254,
      "v": 1
    },
    {
      "midi": 74,
      "hit": false,
      "t": 259821.2900000001,
      "d": 256.69629166665254,
      "v": 1
    },
    {
      "midi": 73,
      "hit": false,
      "t": 260089.14700000008,
      "d": 245.53558333334513,
      "v": 1
    },
    {
      "midi": 61,
      "hit": false,
      "t": 260089.14700000008,
      "d": 256.69629166668165,
      "v": 1
    },
    {
      "midi": 74,
      "hit": false,
      "t": 260357.0040000001,
      "d": 474.33010416667094,
      "v": 1
    },
    {
      "midi": 62,
      "hit": false,
      "t": 260357.0040000001,
      "d": 513.3925833333342,
      "v": 1
    },
    {
      "midi": 61,
      "hit": false,
      "t": 260892.7180000001,
      "d": 524.5532916666707,
      "v": 1
    },
    {
      "midi": 73,
      "hit": false,
      "t": 260892.7180000001,
      "d": 524.5532916666707,
      "v": 1
    },
    {
      "midi": 74,
      "hit": false,
      "t": 261428.43200000012,
      "d": 485.49081250000745,
      "v": 1
    },
    {
      "midi": 62,
      "hit": false,
      "t": 261428.43200000012,
      "d": 502.2318749999977,
      "v": 1
    },
    {
      "midi": 73,
      "hit": false,
      "t": 261964.14600000012,
      "d": 1021.2048124999856,
      "v": 1
    },
    {
      "midi": 61,
      "hit": false,
      "t": 261964.14600000012,
      "d": 1060.2672916666488,
      "v": 1
    },
    {
      "midi": 64,
      "hit": false,
      "t": 263035.5740000001,
      "d": 223.2141666666721,
      "v": 1
    },
    {
      "midi": 76,
      "hit": false,
      "t": 263035.5740000001,
      "d": 239.95522916666232,
      "v": 1
    },
    {
      "midi": 62,
      "hit": false,
      "t": 263303.4310000001,
      "d": 262.27664583333535,
      "v": 1
    },
    {
      "midi": 74,
      "hit": false,
      "t": 263303.4310000001,
      "d": 262.27664583333535,
      "v": 1
    },
    {
      "midi": 60,
      "hit": false,
      "t": 263571.2880000001,
      "d": 407.36585416668095,
      "v": 1
    },
    {
      "midi": 72,
      "hit": false,
      "t": 263571.2880000001,
      "d": 407.36585416668095,
      "v": 1
    },
    {
      "midi": 60,
      "hit": false,
      "t": 264107.00200000015,
      "d": 3225.4447083333507,
      "v": 1
    },
    {
      "midi": 72,
      "hit": false,
      "t": 264107.00200000015,
      "d": 3225.4447083333507,
      "v": 1
    },
    {
      "midi": 36,
      "hit": false,
      "t": 306428.40800000005,
      "d": 3119.4179791666684,
      "v": 100
    },
    {
      "midi": 48,
      "hit": false,
      "t": 306428.40800000005,
      "d": 3119.4179791666684,
      "v": 102
    },
    {
      "midi": 52,
      "hit": false,
      "t": 306428.40800000005,
      "d": 3119.4179791666684,
      "v": 104
    },
    {
      "midi": 60,
      "hit": false,
      "t": 306428.40800000005,
      "d": 3119.4179791666684,
      "v": 103
    },
    {
      "midi": 64,
      "hit": false,
      "t": 306428.40800000005,
      "d": 3119.4179791666684,
      "v": 101
    },
    {
      "midi": 67,
      "hit": false,
      "t": 306428.40800000005,
      "d": 3119.4179791666684,
      "v": 101
    }
  ]
}