{
  "jsonPath": "Classical/Late Romantic Era/Zdenek Fibich/the-forests-of-bohemia.json",
  "path": "Classical\\Late Romantic Era\\Zdenek Fibich\\The Forests of Bohemia.mid",
  "name": "The Forests of Bohemia",
  "difficulty": "Advanced",
  "bpm": 100,
  "notes": [
    {
      "midi": 54,
      "hit": false,
      "t": 0,
      "d": 98.4375,
      "v": 100
    },
    {
      "midi": 57,
      "hit": false,
      "t": 98.4375,
      "d": 100.78125,
      "v": 100
    },
    {
      "midi": 54,
      "hit": false,
      "t": 199.21875,
      "d": 100.78125,
      "v": 100
    },
    {
      "midi": 57,
      "hit": false,
      "t": 300,
      "d": 98.4375,
      "v": 100
    },
    {
      "midi": 54,
      "hit": false,
      "t": 398.4375,
      "d": 100.78125,
      "v": 100
    },
    {
      "midi": 57,
      "hit": false,
      "t": 499.21875,
      "d": 100.78125,
      "v": 100
    },
    {
      "midi": 54,
      "hit": false,
      "t": 600,
      "d": 98.4375,
      "v": 100
    },
    {
      "midi": 57,
      "hit": false,
      "t": 698.4375,
      "d": 100.78125,
      "v": 100
    },
    {
      "midi": 54,
      "hit": false,
      "t": 799.21875,
      "d": 100.78125,
      "v": 100
    },
    {
      "midi": 61,
      "hit": false,
      "t": 900,
      "d": 300,
      "v": 66
    },
    {
      "midi": 57,
      "hit": false,
      "t": 900,
      "d": 98.4375,
      "v": 100
    },
    {
      "midi": 54,
      "hit": false,
      "t": 998.4375,
      "d": 100.78125,
      "v": 100
    },
    {
      "midi": 57,
      "hit": false,
      "t": 1099.21875,
      "d": 100.78125,
      "v": 100
    },
    {
      "midi": 62,
      "hit": false,
      "t": 1200,
      "d": 300,
      "v": 79
    },
    {
      "midi": 54,
      "hit": false,
      "t": 1200,
      "d": 98.4375,
      "v": 100
    },
    {
      "midi": 57,
      "hit": false,
      "t": 1298.4375,
      "d": 100.78125,
      "v": 100
    },
    {
      "midi": 54,
      "hit": false,
      "t": 1399.21875,
      "d": 100.78125,
      "v": 100
    },
    {
      "midi": 62,
      "hit": false,
      "t": 1500,
      "d": 300,
      "v": 76
    },
    {
      "midi": 57,
      "hit": false,
      "t": 1500,
      "d": 98.4375,
      "v": 100
    },
    {
      "midi": 54,
      "hit": false,
      "t": 1598.4375,
      "d": 100.78125,
      "v": 100
    },
    {
      "midi": 57,
      "hit": false,
      "t": 1699.21875,
      "d": 100.78125,
      "v": 100
    },
    {
      "midi": 54,
      "hit": false,
      "t": 1800,
      "d": 98.4375,
      "v": 100
    },
    {
      "midi": 57,
      "hit": false,
      "t": 1898.4375,
      "d": 100.78125,
      "v": 100
    },
    {
      "midi": 54,
      "hit": false,
      "t": 1999.21875,
      "d": 100.78125,
      "v": 100
    },
    {
      "midi": 61,
      "hit": false,
      "t": 2100,
      "d": 300,
      "v": 66
    },
    {
      "midi": 57,
      "hit": false,
      "t": 2100,
      "d": 98.4375,
      "v": 100
    },
    {
      "midi": 54,
      "hit": false,
      "t": 2198.4375,
      "d": 100.78125,
      "v": 100
    },
    {
      "midi": 57,
      "hit": false,
      "t": 2299.21875,
      "d": 100.78125,
      "v": 100
    },
    {
      "midi": 62,
      "hit": false,
      "t": 2400,
      "d": 300,
      "v": 83
    },
    {
      "midi": 54,
      "hit": false,
      "t": 2400,
      "d": 98.4375,
      "v": 100
    },
    {
      "midi": 57,
      "hit": false,
      "t": 2498.4375,
      "d": 100.78125,
      "v": 100
    },
    {
      "midi": 54,
      "hit": false,
      "t": 2599.21875,
      "d": 100.78125,
      "v": 100
    },
    {
      "midi": 62,
      "hit": false,
      "t": 2700,
      "d": 300,
      "v": 79
    },
    {
      "midi": 57,
      "hit": false,
      "t": 2700,
      "d": 98.4375,
      "v": 100
    },
    {
      "midi": 54,
      "hit": false,
      "t": 2798.4375,
      "d": 100.78125,
      "v": 100
    },
    {
      "midi": 57,
      "hit": false,
      "t": 2899.21875,
      "d": 100.78125,
      "v": 100
    },
    {
      "midi": 54,
      "hit": false,
      "t": 3000,
      "d": 98.4375,
      "v": 100
    },
    {
      "midi": 57,
      "hit": false,
      "t": 3098.4375,
      "d": 100.78125,
      "v": 100
    },
    {
      "midi": 54,
      "hit": false,
      "t": 3199.21875,
      "d": 100.78125,
      "v": 100
    },
    {
      "midi": 61,
      "hit": false,
      "t": 3300,
      "d": 300,
      "v": 69
    },
    {
      "midi": 57,
      "hit": false,
      "t": 3300,
      "d": 98.4375,
      "v": 100
    },
    {
      "midi": 54,
      "hit": false,
      "t": 3398.4375,
      "d": 100.78125,
      "v": 100
    },
    {
      "midi": 57,
      "hit": false,
      "t": 3499.21875,
      "d": 100.78125,
      "v": 100
    },
    {
      "midi": 62,
      "hit": false,
      "t": 3600,
      "d": 300,
      "v": 68
    },
    {
      "midi": 53,
      "hit": false,
      "t": 3600,
      "d": 98.4375,
      "v": 100
    },
    {
      "midi": 57,
      "hit": false,
      "t": 3698.4375,
      "d": 100.78125,
      "v": 100
    },
    {
      "midi": 53,
      "hit": false,
      "t": 3799.21875,
      "d": 100.78125,
      "v": 100
    },
    {
      "midi": 62,
      "hit": false,
      "t": 3900,
      "d": 300,
      "v": 75
    },
    {
      "midi": 69,
      "hit": false,
      "t": 3900,
      "d": 300,
      "v": 89
    },
    {
      "midi": 57,
      "hit": false,
      "t": 3900,
      "d": 98.4375,
      "v": 100
    },
    {
      "midi": 53,
      "hit": false,
      "t": 3998.4375,
      "d": 100.78125,
      "v": 100
    },
    {
      "midi": 57,
      "hit": false,
      "t": 4099.21875,
      "d": 100.78125,
      "v": 100
    },
    {
      "midi": 62,
      "hit": false,
      "t": 4200,
      "d": 150,
      "v": 75
    },
    {
      "midi": 71,
      "hit": false,
      "t": 4200,
      "d": 150,
      "v": 85
    },
    {
      "midi": 53,
      "hit": false,
      "t": 4200,
      "d": 98.4375,
      "v": 100
    },
    {
      "midi": 57,
      "hit": false,
      "t": 4298.4375,
      "d": 100.78125,
      "v": 100
    },
    {
      "midi": 71,
      "hit": false,
      "t": 4350,
      "d": 150,
      "v": 77
    },
    {
      "midi": 53,
      "hit": false,
      "t": 4399.21875,
      "d": 100.78125,
      "v": 100
    },
    {
      "midi": 69,
      "hit": false,
      "t": 4500,
      "d": 150,
      "v": 76
    },
    {
      "midi": 57,
      "hit": false,
      "t": 4500,
      "d": 98.4375,
      "v": 100
    },
    {
      "midi": 53,
      "hit": false,
      "t": 4598.4375,
      "d": 100.78125,
      "v": 100
    },
    {
      "midi": 71,
      "hit": false,
      "t": 4650,
      "d": 150,
      "v": 76
    },
    {
      "midi": 57,
      "hit": false,
      "t": 4699.21875,
      "d": 100.78125,
      "v": 100
    },
    {
      "midi": 73,
      "hit": false,
      "t": 4800,
      "d": 600,
      "v": 83
    },
    {
      "midi": 57,
      "hit": false,
      "t": 4800,
      "d": 98.4375,
      "v": 100
    },
    {
      "midi": 61,
      "hit": false,
      "t": 4898.4375,
      "d": 100.78125,
      "v": 100
    },
    {
      "midi": 57,
      "hit": false,
      "t": 4999.21875,
      "d": 100.78125,
      "v": 100
    },
    {
      "midi": 61,
      "hit": false,
      "t": 5100,
      "d": 98.4375,
      "v": 100
    },
    {
      "midi": 57,
      "hit": false,
      "t": 5198.4375,
      "d": 100.78125,
      "v": 100
    },
    {
      "midi": 61,
      "hit": false,
      "t": 5299.21875,
      "d": 100.78125,
      "v": 100
    },
    {
      "midi": 57,
      "hit": false,
      "t": 5400,
      "d": 98.4375,
      "v": 100
    },
    {
      "midi": 61,
      "hit": false,
      "t": 5498.4375,
      "d": 100.78125,
      "v": 100
    },
    {
      "midi": 57,
      "hit": false,
      "t": 5599.21875,
      "d": 100.78125,
      "v": 100
    },
    {
      "midi": 53,
      "hit": false,
      "t": 5700,
      "d": 300,
      "v": 69
    },
    {
      "midi": 61,
      "hit": false,
      "t": 5700,
      "d": 98.4375,
      "v": 100
    },
    {
      "midi": 57,
      "hit": false,
      "t": 5798.4375,
      "d": 100.78125,
      "v": 100
    },
    {
      "midi": 61,
      "hit": false,
      "t": 5899.21875,
      "d": 100.78125,
      "v": 100
    },
    {
      "midi": 51,
      "hit": false,
      "t": 6000,
      "d": 300,
      "v": 74
    },
    {
      "midi": 57,
      "hit": false,
      "t": 6000,
      "d": 98.4375,
      "v": 100
    },
    {
      "midi": 60,
      "hit": false,
      "t": 6098.4375,
      "d": 100.78125,
      "v": 100
    },
    {
      "midi": 57,
      "hit": false,
      "t": 6199.21875,
      "d": 100.78125,
      "v": 100
    },
    {
      "midi": 51,
      "hit": false,
      "t": 6300,
      "d": 300,
      "v": 76
    },
    {
      "midi": 60,
      "hit": false,
      "t": 6300,
      "d": 98.4375,
      "v": 100
    },
    {
      "midi": 57,
      "hit": false,
      "t": 6398.4375,
      "d": 100.78125,
      "v": 100
    },
    {
      "midi": 60,
      "hit": false,
      "t": 6499.21875,
      "d": 100.78125,
      "v": 100
    },
    {
      "midi": 57,
      "hit": false,
      "t": 6600,
      "d": 98.4375,
      "v": 100
    },
    {
      "midi": 60,
      "hit": false,
      "t": 6698.4375,
      "d": 100.78125,
      "v": 100
    },
    {
      "midi": 57,
      "hit": false,
      "t": 6799.21875,
      "d": 100.78125,
      "v": 100
    },
    {
      "midi": 53,
      "hit": false,
      "t": 6900,
      "d": 300,
      "v": 68
    },
    {
      "midi": 60,
      "hit": false,
      "t": 6900,
      "d": 98.4375,
      "v": 100
    },
    {
      "midi": 57,
      "hit": false,
      "t": 6998.4375,
      "d": 100.78125,
      "v": 100
    },
    {
      "midi": 60,
      "hit": false,
      "t": 7099.21875,
      "d": 100.78125,
      "v": 100
    },
    {
      "midi": 51,
      "hit": false,
      "t": 7200,
      "d": 300,
      "v": 73
    },
    {
      "midi": 57,
      "hit": false,
      "t": 7200,
      "d": 98.4375,
      "v": 100
    },
    {
      "midi": 60,
      "hit": false,
      "t": 7298.4375,
      "d": 100.78125,
      "v": 100
    },
    {
      "midi": 57,
      "hit": false,
      "t": 7399.21875,
      "d": 100.78125,
      "v": 100
    },
    {
      "midi": 51,
      "hit": false,
      "t": 7500,
      "d": 300,
      "v": 80
    },
    {
      "midi": 60,
      "hit": false,
      "t": 7500,
      "d": 98.4375,
      "v": 100
    },
    {
      "midi": 57,
      "hit": false,
      "t": 7598.4375,
      "d": 100.78125,
      "v": 100
    },
    {
      "midi": 60,
      "hit": false,
      "t": 7699.21875,
      "d": 100.78125,
      "v": 100
    },
    {
      "midi": 57,
      "hit": false,
      "t": 7800,
      "d": 98.4375,
      "v": 100
    },
    {
      "midi": 60,
      "hit": false,
      "t": 7898.4375,
      "d": 100.78125,
      "v": 100
    },
    {
      "midi": 57,
      "hit": false,
      "t": 7999.21875,
      "d": 100.78125,
      "v": 100
    },
    {
      "midi": 52,
      "hit": false,
      "t": 8100,
      "d": 300,
      "v": 71
    },
    {
      "midi": 60,
      "hit": false,
      "t": 8100,
      "d": 98.4375,
      "v": 100
    },
    {
      "midi": 57,
      "hit": false,
      "t": 8198.4375,
      "d": 100.78125,
      "v": 100
    },
    {
      "midi": 60,
      "hit": false,
      "t": 8299.21875,
      "d": 100.78125,
      "v": 100
    },
    {
      "midi": 52,
      "hit": false,
      "t": 8400,
      "d": 300,
      "v": 77
    },
    {
      "midi": 55,
      "hit": false,
      "t": 8400,
      "d": 98.4375,
      "v": 100
    },
    {
      "midi": 61,
      "hit": false,
      "t": 8498.4375,
      "d": 100.78125,
      "v": 100
    },
    {
      "midi": 55,
      "hit": false,
      "t": 8599.21875,
      "d": 100.78125,
      "v": 100
    },
    {
      "midi": 59,
      "hit": false,
      "t": 8700,
      "d": 300,
      "v": 82
    },
    {
      "midi": 61,
      "hit": false,
      "t": 8700,
      "d": 98.4375,
      "v": 100
    },
    {
      "midi": 55,
      "hit": false,
      "t": 8798.4375,
      "d": 100.78125,
      "v": 100
    },
    {
      "midi": 61,
      "hit": false,
      "t": 8899.21875,
      "d": 100.78125,
      "v": 100
    },
    {
      "midi": 59,
      "hit": false,
      "t": 9000,
      "d": 150,
      "v": 79
    },
    {
      "midi": 55,
      "hit": false,
      "t": 9000,
      "d": 98.4375,
      "v": 100
    },
    {
      "midi": 61,
      "hit": false,
      "t": 9098.4375,
      "d": 100.78125,
      "v": 100
    },
    {
      "midi": 59,
      "hit": false,
      "t": 9150,
      "d": 150,
      "v": 80
    },
    {
      "midi": 55,
      "hit": false,
      "t": 9199.21875,
      "d": 100.78125,
      "v": 100
    },
    {
      "midi": 58,
      "hit": false,
      "t": 9300,
      "d": 150,
      "v": 66
    },
    {
      "midi": 61,
      "hit": false,
      "t": 9300,
      "d": 98.4375,
      "v": 100
    },
    {
      "midi": 55,
      "hit": false,
      "t": 9398.4375,
      "d": 100.78125,
      "v": 100
    },
    {
      "midi": 59,
      "hit": false,
      "t": 9450,
      "d": 150,
      "v": 82
    },
    {
      "midi": 61,
      "hit": false,
      "t": 9499.21875,
      "d": 100.78125,
      "v": 100
    },
    {
      "midi": 66,
      "hit": false,
      "t": 9600,
      "d": 900,
      "v": 95
    },
    {
      "midi": 57,
      "hit": false,
      "t": 9600,
      "d": 98.4375,
      "v": 100
    },
    {
      "midi": 63,
      "hit": false,
      "t": 9698.4375,
      "d": 100.78125,
      "v": 100
    },
    {
      "midi": 57,
      "hit": false,
      "t": 9799.21875,
      "d": 100.78125,
      "v": 100
    },
    {
      "midi": 63,
      "hit": false,
      "t": 9900,
      "d": 98.4375,
      "v": 100
    },
    {
      "midi": 57,
      "hit": false,
      "t": 9998.4375,
      "d": 100.78125,
      "v": 100
    },
    {
      "midi": 63,
      "hit": false,
      "t": 10099.21875,
      "d": 100.78125,
      "v": 100
    },
    {
      "midi": 57,
      "hit": false,
      "t": 10200,
      "d": 98.4375,
      "v": 100
    },
    {
      "midi": 63,
      "hit": false,
      "t": 10298.4375,
      "d": 100.78125,
      "v": 100
    },
    {
      "midi": 57,
      "hit": false,
      "t": 10399.21875,
      "d": 100.78125,
      "v": 100
    },
    {
      "midi": 71,
      "hit": false,
      "t": 10500,
      "d": 300,
      "v": 88
    },
    {
      "midi": 63,
      "hit": false,
      "t": 10500,
      "d": 98.4375,
      "v": 100
    },
    {
      "midi": 57,
      "hit": false,
      "t": 10598.4375,
      "d": 100.78125,
      "v": 100
    },
    {
      "midi": 63,
      "hit": false,
      "t": 10699.21875,
      "d": 100.78125,
      "v": 100
    },
    {
      "midi": 67,
      "hit": false,
      "t": 10800,
      "d": 300,
      "v": 69
    },
    {
      "midi": 59,
      "hit": false,
      "t": 10800,
      "d": 98.4375,
      "v": 100
    },
    {
      "midi": 64,
      "hit": false,
      "t": 10898.4375,
      "d": 100.78125,
      "v": 100
    },
    {
      "midi": 59,
      "hit": false,
      "t": 10999.21875,
      "d": 100.78125,
      "v": 100
    },
    {
      "midi": 61,
      "hit": false,
      "t": 11100,
      "d": 300,
      "v": 60
    },
    {
      "midi": 64,
      "hit": false,
      "t": 11100,
      "d": 98.4375,
      "v": 100
    },
    {
      "midi": 59,
      "hit": false,
      "t": 11198.4375,
      "d": 100.78125,
      "v": 100
    },
    {
      "midi": 64,
      "hit": false,
      "t": 11299.21875,
      "d": 100.78125,
      "v": 100
    },
    {
      "midi": 59,
      "hit": false,
      "t": 11400,
      "d": 98.4375,
      "v": 100
    },
    {
      "midi": 64,
      "hit": false,
      "t": 11498.4375,
      "d": 100.78125,
      "v": 100
    },
    {
      "midi": 59,
      "hit": false,
      "t": 11599.21875,
      "d": 100.78125,
      "v": 100
    },
    {
      "midi": 71,
      "hit": false,
      "t": 11700,
      "d": 300,
      "v": 67
    },
    {
      "midi": 64,
      "hit": false,
      "t": 11700,
      "d": 98.4375,
      "v": 100
    },
    {
      "midi": 59,
      "hit": false,
      "t": 11798.4375,
      "d": 100.78125,
      "v": 100
    },
    {
      "midi": 64,
      "hit": false,
      "t": 11899.21875,
      "d": 100.78125,
      "v": 100
    },
    {
      "midi": 67,
      "hit": false,
      "t": 12000,
      "d": 300,
      "v": 69
    },
    {
      "midi": 59,
      "hit": false,
      "t": 12000,
      "d": 98.4375,
      "v": 100
    },
    {
      "midi": 64,
      "hit": false,
      "t": 12098.4375,
      "d": 100.78125,
      "v": 100
    },
    {
      "midi": 59,
      "hit": false,
      "t": 12199.21875,
      "d": 100.78125,
      "v": 100
    },
    {
      "midi": 61,
      "hit": false,
      "t": 12300,
      "d": 300,
      "v": 60
    },
    {
      "midi": 64,
      "hit": false,
      "t": 12300,
      "d": 98.4375,
      "v": 100
    },
    {
      "midi": 59,
      "hit": false,
      "t": 12398.4375,
      "d": 100.78125,
      "v": 100
    },
    {
      "midi": 64,
      "hit": false,
      "t": 12499.21875,
      "d": 100.78125,
      "v": 100
    },
    {
      "midi": 59,
      "hit": false,
      "t": 12600,
      "d": 98.4375,
      "v": 100
    },
    {
      "midi": 64,
      "hit": false,
      "t": 12698.4375,
      "d": 100.78125,
      "v": 100
    },
    {
      "midi": 59,
      "hit": false,
      "t": 12799.21875,
      "d": 100.78125,
      "v": 100
    },
    {
      "midi": 67,
      "hit": false,
      "t": 12900,
      "d": 300,
      "v": 70
    },
    {
      "midi": 64,
      "hit": false,
      "t": 12900,
      "d": 98.4375,
      "v": 100
    },
    {
      "midi": 59,
      "hit": false,
      "t": 12998.4375,
      "d": 100.78125,
      "v": 100
    },
    {
      "midi": 64,
      "hit": false,
      "t": 13099.21875,
      "d": 100.78125,
      "v": 100
    },
    {
      "midi": 66,
      "hit": false,
      "t": 13200,
      "d": 450,
      "v": 69
    },
    {
      "midi": 58,
      "hit": false,
      "t": 13200,
      "d": 98.4375,
      "v": 100
    },
    {
      "midi": 64,
      "hit": false,
      "t": 13298.4375,
      "d": 100.78125,
      "v": 100
    },
    {
      "midi": 58,
      "hit": false,
      "t": 13399.21875,
      "d": 100.78125,
      "v": 100
    },
    {
      "midi": 64,
      "hit": false,
      "t": 13500,
      "d": 98.4375,
      "v": 100
    },
    {
      "midi": 58,
      "hit": false,
      "t": 13598.4375,
      "d": 100.78125,
      "v": 100
    },
    {
      "midi": 61,
      "hit": false,
      "t": 13650,
      "d": 150,
      "v": 61
    },
    {
      "midi": 64,
      "hit": false,
      "t": 13699.21875,
      "d": 100.78125,
      "v": 100
    },
    {
      "midi": 61,
      "hit": false,
      "t": 13800,
      "d": 150,
      "v": 78
    },
    {
      "midi": 58,
      "hit": false,
      "t": 13800,
      "d": 98.4375,
      "v": 100
    },
    {
      "midi": 64,
      "hit": false,
      "t": 13898.4375,
      "d": 100.78125,
      "v": 100
    },
    {
      "midi": 61,
      "hit": false,
      "t": 13950,
      "d": 150,
      "v": 74
    },
    {
      "midi": 58,
      "hit": false,
      "t": 13999.21875,
      "d": 100.78125,
      "v": 100
    },
    {
      "midi": 60,
      "hit": false,
      "t": 14100,
      "d": 150,
      "v": 71
    },
    {
      "midi": 64,
      "hit": false,
      "t": 14100,
      "d": 98.4375,
      "v": 100
    },
    {
      "midi": 58,
      "hit": false,
      "t": 14198.4375,
      "d": 100.78125,
      "v": 100
    },
    {
      "midi": 61,
      "hit": false,
      "t": 14250,
      "d": 150,
      "v": 81
    },
    {
      "midi": 64,
      "hit": false,
      "t": 14299.21875,
      "d": 100.78125,
      "v": 100
    },
    {
      "midi": 66,
      "hit": false,
      "t": 14400,
      "d": 900,
      "v": 85
    },
    {
      "midi": 59,
      "hit": false,
      "t": 14400,
      "d": 98.4375,
      "v": 100
    },
    {
      "midi": 62,
      "hit": false,
      "t": 14498.4375,
      "d": 100.78125,
      "v": 100
    },
    {
      "midi": 59,
      "hit": false,
      "t": 14599.21875,
      "d": 100.78125,
      "v": 100
    },
    {
      "midi": 62,
      "hit": false,
      "t": 14700,
      "d": 98.4375,
      "v": 100
    },
    {
      "midi": 59,
      "hit": false,
      "t": 14798.4375,
      "d": 100.78125,
      "v": 100
    },
    {
      "midi": 62,
      "hit": false,
      "t": 14899.21875,
      "d": 100.78125,
      "v": 100
    },
    {
      "midi": 59,
      "hit": false,
      "t": 15000,
      "d": 98.4375,
      "v": 100
    },
    {
      "midi": 62,
      "hit": false,
      "t": 15098.4375,
      "d": 100.78125,
      "v": 100
    },
    {
      "midi": 59,
      "hit": false,
      "t": 15199.21875,
      "d": 100.78125,
      "v": 100
    },
    {
      "midi": 71,
      "hit": false,
      "t": 15300,
      "d": 300,
      "v": 90
    },
    {
      "midi": 62,
      "hit": false,
      "t": 15300,
      "d": 98.4375,
      "v": 100
    },
    {
      "midi": 59,
      "hit": false,
      "t": 15398.4375,
      "d": 100.78125,
      "v": 100
    },
    {
      "midi": 62,
      "hit": false,
      "t": 15499.21875,
      "d": 100.78125,
      "v": 100
    },
    {
      "midi": 67,
      "hit": false,
      "t": 15600,
      "d": 300,
      "v": 71
    },
    {
      "midi": 59,
      "hit": false,
      "t": 15600,
      "d": 98.4375,
      "v": 100
    },
    {
      "midi": 64,
      "hit": false,
      "t": 15698.4375,
      "d": 100.78125,
      "v": 100
    },
    {
      "midi": 59,
      "hit": false,
      "t": 15799.21875,
      "d": 100.78125,
      "v": 100
    },
    {
      "midi": 61,
      "hit": false,
      "t": 15900,
      "d": 300,
      "v": 60
    },
    {
      "midi": 64,
      "hit": false,
      "t": 15900,
      "d": 98.4375,
      "v": 100
    },
    {
      "midi": 59,
      "hit": false,
      "t": 15998.4375,
      "d": 100.78125,
      "v": 100
    },
    {
      "midi": 64,
      "hit": false,
      "t": 16099.21875,
      "d": 100.78125,
      "v": 100
    },
    {
      "midi": 59,
      "hit": false,
      "t": 16200,
      "d": 98.4375,
      "v": 100
    },
    {
      "midi": 64,
      "hit": false,
      "t": 16298.4375,
      "d": 100.78125,
      "v": 100
    },
    {
      "midi": 59,
      "hit": false,
      "t": 16399.21875,
      "d": 100.78125,
      "v": 100
    },
    {
      "midi": 71,
      "hit": false,
      "t": 16500,
      "d": 300,
      "v": 72
    },
    {
      "midi": 64,
      "hit": false,
      "t": 16500,
      "d": 98.4375,
      "v": 100
    },
    {
      "midi": 59,
      "hit": false,
      "t": 16598.4375,
      "d": 100.78125,
      "v": 100
    },
    {
      "midi": 64,
      "hit": false,
      "t": 16699.21875,
      "d": 100.78125,
      "v": 100
    },
    {
      "midi": 67,
      "hit": false,
      "t": 16800,
      "d": 450,
      "v": 69
    },
    {
      "midi": 59,
      "hit": false,
      "t": 16800,
      "d": 98.4375,
      "v": 100
    },
    {
      "midi": 64,
      "hit": false,
      "t": 16898.4375,
      "d": 100.78125,
      "v": 100
    },
    {
      "midi": 59,
      "hit": false,
      "t": 16999.21875,
      "d": 100.78125,
      "v": 100
    },
    {
      "midi": 64,
      "hit": false,
      "t": 17100,
      "d": 98.4375,
      "v": 100
    },
    {
      "midi": 59,
      "hit": false,
      "t": 17198.4375,
      "d": 100.78125,
      "v": 100
    },
    {
      "midi": 61,
      "hit": false,
      "t": 17250,
      "d": 150,
      "v": 60
    },
    {
      "midi": 64,
      "hit": false,
      "t": 17299.21875,
      "d": 100.78125,
      "v": 100
    },
    {
      "midi": 59,
      "hit": false,
      "t": 17400,
      "d": 98.4375,
      "v": 100
    },
    {
      "midi": 64,
      "hit": false,
      "t": 17498.4375,
      "d": 100.78125,
      "v": 100
    },
    {
      "midi": 59,
      "hit": false,
      "t": 17599.21875,
      "d": 100.78125,
      "v": 100
    },
    {
      "midi": 64,
      "hit": false,
      "t": 17700,
      "d": 98.4375,
      "v": 100
    },
    {
      "midi": 59,
      "hit": false,
      "t": 17798.4375,
      "d": 100.78125,
      "v": 100
    },
    {
      "midi": 64,
      "hit": false,
      "t": 17899.21875,
      "d": 100.78125,
      "v": 100
    },
    {
      "midi": 66,
      "hit": false,
      "t": 18000,
      "d": 450,
      "v": 73
    },
    {
      "midi": 58,
      "hit": false,
      "t": 18000,
      "d": 98.4375,
      "v": 100
    },
    {
      "midi": 64,
      "hit": false,
      "t": 18098.4375,
      "d": 100.78125,
      "v": 100
    },
    {
      "midi": 58,
      "hit": false,
      "t": 18199.21875,
      "d": 100.78125,
      "v": 100
    },
    {
      "midi": 64,
      "hit": false,
      "t": 18300,
      "d": 98.4375,
      "v": 100
    },
    {
      "midi": 58,
      "hit": false,
      "t": 18398.4375,
      "d": 100.78125,
      "v": 100
    },
    {
      "midi": 61,
      "hit": false,
      "t": 18450,
      "d": 150,
      "v": 65
    },
    {
      "midi": 64,
      "hit": false,
      "t": 18499.21875,
      "d": 100.78125,
      "v": 100
    },
    {
      "midi": 61,
      "hit": false,
      "t": 18600,
      "d": 150,
      "v": 75
    },
    {
      "midi": 58,
      "hit": false,
      "t": 18600,
      "d": 98.4375,
      "v": 100
    },
    {
      "midi": 64,
      "hit": false,
      "t": 18698.4375,
      "d": 100.78125,
      "v": 100
    },
    {
      "midi": 61,
      "hit": false,
      "t": 18750,
      "d": 150,
      "v": 74
    },
    {
      "midi": 58,
      "hit": false,
      "t": 18799.21875,
      "d": 100.78125,
      "v": 100
    },
    {
      "midi": 66,
      "hit": false,
      "t": 18900,
      "d": 150,
      "v": 89
    },
    {
      "midi": 64,
      "hit": false,
      "t": 18900,
      "d": 98.4375,
      "v": 100
    },
    {
      "midi": 58,
      "hit": false,
      "t": 18998.4375,
      "d": 100.78125,
      "v": 100
    },
    {
      "midi": 61,
      "hit": false,
      "t": 19050,
      "d": 150,
      "v": 63
    },
    {
      "midi": 64,
      "hit": false,
      "t": 19099.21875,
      "d": 100.78125,
      "v": 100
    },
    {
      "midi": 62,
      "hit": false,
      "t": 19200,
      "d": 300,
      "v": 81
    },
    {
      "midi": 47,
      "hit": false,
      "t": 19200,
      "d": 98.4375,
      "v": 100
    },
    {
      "midi": 54,
      "hit": false,
      "t": 19298.4375,
      "d": 100.78125,
      "v": 100
    },
    {
      "midi": 59,
      "hit": false,
      "t": 19399.21875,
      "d": 100.78125,
      "v": 100
    },
    {
      "midi": 62,
      "hit": false,
      "t": 19500,
      "d": 98.4375,
      "v": 100
    },
    {
      "midi": 59,
      "hit": false,
      "t": 19598.4375,
      "d": 100.78125,
      "v": 100
    },
    {
      "midi": 62,
      "hit": false,
      "t": 19699.21875,
      "d": 100.78125,
      "v": 100
    },
    {
      "midi": 59,
      "hit": false,
      "t": 19800,
      "d": 98.4375,
      "v": 100
    },
    {
      "midi": 62,
      "hit": false,
      "t": 19898.4375,
      "d": 100.78125,
      "v": 100
    },
    {
      "midi": 59,
      "hit": false,
      "t": 19999.21875,
      "d": 100.78125,
      "v": 100
    },
    {
      "midi": 62,
      "hit": false,
      "t": 20100,
      "d": 98.4375,
      "v": 100
    },
    {
      "midi": 59,
      "hit": false,
      "t": 20198.4375,
      "d": 100.78125,
      "v": 100
    },
    {
      "midi": 62,
      "hit": false,
      "t": 20299.21875,
      "d": 100.78125,
      "v": 100
    },
    {
      "midi": 60,
      "hit": false,
      "t": 20400,
      "d": 300,
      "v": 69
    },
    {
      "midi": 54,
      "hit": false,
      "t": 20400,
      "d": 98.4375,
      "v": 100
    },
    {
      "midi": 63,
      "hit": false,
      "t": 20498.4375,
      "d": 100.78125,
      "v": 100
    },
    {
      "midi": 54,
      "hit": false,
      "t": 20599.21875,
      "d": 100.78125,
      "v": 100
    },
    {
      "midi": 57,
      "hit": false,
      "t": 20700,
      "d": 300,
      "v": 72
    },
    {
      "midi": 63,
      "hit": false,
      "t": 20700,
      "d": 98.4375,
      "v": 100
    },
    {
      "midi": 54,
      "hit": false,
      "t": 20798.4375,
      "d": 100.78125,
      "v": 100
    },
    {
      "midi": 63,
      "hit": false,
      "t": 20899.21875,
      "d": 100.78125,
      "v": 100
    },
    {
      "midi": 60,
      "hit": false,
      "t": 21000,
      "d": 300,
      "v": 80
    },
    {
      "midi": 54,
      "hit": false,
      "t": 21000,
      "d": 98.4375,
      "v": 100
    },
    {
      "midi": 63,
      "hit": false,
      "t": 21098.4375,
      "d": 100.78125,
      "v": 100
    },
    {
      "midi": 54,
      "hit": false,
      "t": 21199.21875,
      "d": 100.78125,
      "v": 100
    },
    {
      "midi": 57,
      "hit": false,
      "t": 21300,
      "d": 300,
      "v": 74
    },
    {
      "midi": 63,
      "hit": false,
      "t": 21300,
      "d": 98.4375,
      "v": 100
    },
    {
      "midi": 54,
      "hit": false,
      "t": 21398.4375,
      "d": 100.78125,
      "v": 100
    },
    {
      "midi": 63,
      "hit": false,
      "t": 21499.21875,
      "d": 100.78125,
      "v": 100
    },
    {
      "midi": 60,
      "hit": false,
      "t": 21600,
      "d": 150,
      "v": 82
    },
    {
      "midi": 53,
      "hit": false,
      "t": 21600,
      "d": 98.4375,
      "v": 100
    },
    {
      "midi": 63,
      "hit": false,
      "t": 21698.4375,
      "d": 100.78125,
      "v": 100
    },
    {
      "midi": 59,
      "hit": false,
      "t": 21750,
      "d": 150,
      "v": 75
    },
    {
      "midi": 53,
      "hit": false,
      "t": 21799.21875,
      "d": 100.78125,
      "v": 100
    },
    {
      "midi": 57,
      "hit": false,
      "t": 21900,
      "d": 150,
      "v": 71
    },
    {
      "midi": 63,
      "hit": false,
      "t": 21900,
      "d": 98.4375,
      "v": 100
    },
    {
      "midi": 53,
      "hit": false,
      "t": 21998.4375,
      "d": 100.78125,
      "v": 100
    },
    {
      "midi": 59,
      "hit": false,
      "t": 22050,
      "d": 150,
      "v": 82
    },
    {
      "midi": 63,
      "hit": false,
      "t": 22099.21875,
      "d": 100.78125,
      "v": 100
    },
    {
      "midi": 60,
      "hit": false,
      "t": 22200,
      "d": 600,
      "v": 76
    },
    {
      "midi": 53,
      "hit": false,
      "t": 22200,
      "d": 98.4375,
      "v": 100
    },
    {
      "midi": 63,
      "hit": false,
      "t": 22298.4375,
      "d": 100.78125,
      "v": 100
    },
    {
      "midi": 53,
      "hit": false,
      "t": 22399.21875,
      "d": 100.78125,
      "v": 100
    },
    {
      "midi": 63,
      "hit": false,
      "t": 22500,
      "d": 98.4375,
      "v": 100
    },
    {
      "midi": 53,
      "hit": false,
      "t": 22598.4375,
      "d": 100.78125,
      "v": 100
    },
    {
      "midi": 63,
      "hit": false,
      "t": 22699.21875,
      "d": 100.78125,
      "v": 100
    },
    {
      "midi": 59,
      "hit": false,
      "t": 22800,
      "d": 300,
      "v": 73
    },
    {
      "midi": 69,
      "hit": false,
      "t": 22800,
      "d": 300,
      "v": 90
    },
    {
      "midi": 53,
      "hit": false,
      "t": 22800,
      "d": 98.4375,
      "v": 100
    },
    {
      "midi": 63,
      "hit": false,
      "t": 22898.4375,
      "d": 100.78125,
      "v": 100
    },
    {
      "midi": 53,
      "hit": false,
      "t": 22999.21875,
      "d": 100.78125,
      "v": 100
    },
    {
      "midi": 56,
      "hit": false,
      "t": 23100,
      "d": 300,
      "v": 75
    },
    {
      "midi": 63,
      "hit": false,
      "t": 23100,
      "d": 98.4375,
      "v": 100
    },
    {
      "midi": 53,
      "hit": false,
      "t": 23198.4375,
      "d": 100.78125,
      "v": 100
    },
    {
      "midi": 63,
      "hit": false,
      "t": 23299.21875,
      "d": 100.78125,
      "v": 100
    },
    {
      "midi": 59,
      "hit": false,
      "t": 23400,
      "d": 300,
      "v": 78
    },
    {
      "midi": 53,
      "hit": false,
      "t": 23400,
      "d": 98.4375,
      "v": 100
    },
    {
      "midi": 62,
      "hit": false,
      "t": 23498.4375,
      "d": 100.78125,
      "v": 100
    },
    {
      "midi": 53,
      "hit": false,
      "t": 23599.21875,
      "d": 100.78125,
      "v": 100
    },
    {
      "midi": 56,
      "hit": false,
      "t": 23700,
      "d": 300,
      "v": 73
    },
    {
      "midi": 62,
      "hit": false,
      "t": 23700,
      "d": 98.4375,
      "v": 100
    },
    {
      "midi": 53,
      "hit": false,
      "t": 23798.4375,
      "d": 100.78125,
      "v": 100
    },
    {
      "midi": 62,
      "hit": false,
      "t": 23899.21875,
      "d": 100.78125,
      "v": 100
    },
    {
      "midi": 59,
      "hit": false,
      "t": 24000,
      "d": 150,
      "v": 80
    },
    {
      "midi": 53,
      "hit": false,
      "t": 24000,
      "d": 98.4375,
      "v": 100
    },
    {
      "midi": 61,
      "hit": false,
      "t": 24098.4375,
      "d": 100.78125,
      "v": 100
    },
    {
      "midi": 57,
      "hit": false,
      "t": 24150,
      "d": 150,
      "v": 77
    },
    {
      "midi": 53,
      "hit": false,
      "t": 24199.21875,
      "d": 100.78125,
      "v": 100
    },
    {
      "midi": 56,
      "hit": false,
      "t": 24300,
      "d": 150,
      "v": 73
    },
    {
      "midi": 61,
      "hit": false,
      "t": 24300,
      "d": 98.4375,
      "v": 100
    },
    {
      "midi": 53,
      "hit": false,
      "t": 24398.4375,
      "d": 100.78125,
      "v": 100
    },
    {
      "midi": 57,
      "hit": false,
      "t": 24450,
      "d": 150,
      "v": 71
    },
    {
      "midi": 61,
      "hit": false,
      "t": 24499.21875,
      "d": 100.78125,
      "v": 100
    },
    {
      "midi": 59,
      "hit": false,
      "t": 24600,
      "d": 150,
      "v": 79
    },
    {
      "midi": 53,
      "hit": false,
      "t": 24600,
      "d": 150,
      "v": 100
    },
    {
      "midi": 61,
      "hit": false,
      "t": 24600,
      "d": 150,
      "v": 100
    },
    {
      "midi": 62,
      "hit": false,
      "t": 24750,
      "d": 150,
      "v": 81
    },
    {
      "midi": 61,
      "hit": false,
      "t": 24900,
      "d": 150,
      "v": 76
    },
    {
      "midi": 56,
      "hit": false,
      "t": 25050,
      "d": 150,
      "v": 72
    },
    {
      "midi": 61,
      "hit": false,
      "t": 25200,
      "d": 300,
      "v": 81
    },
    {
      "midi": 54,
      "hit": false,
      "t": 25200,
      "d": 98.4375,
      "v": 100
    },
    {
      "midi": 57,
      "hit": false,
      "t": 25298.4375,
      "d": 100.78125,
      "v": 100
    },
    {
      "midi": 54,
      "hit": false,
      "t": 25399.21875,
      "d": 100.78125,
      "v": 100
    },
    {
      "midi": 57,
      "hit": false,
      "t": 25500,
      "d": 98.4375,
      "v": 100
    },
    {
      "midi": 54,
      "hit": false,
      "t": 25598.4375,
      "d": 100.78125,
      "v": 100
    },
    {
      "midi": 57,
      "hit": false,
      "t": 25699.21875,
      "d": 100.78125,
      "v": 100
    },
    {
      "midi": 54,
      "hit": false,
      "t": 25800,
      "d": 98.4375,
      "v": 100
    },
    {
      "midi": 57,
      "hit": false,
      "t": 25898.4375,
      "d": 100.78125,
      "v": 100
    },
    {
      "midi": 54,
      "hit": false,
      "t": 25999.21875,
      "d": 100.78125,
      "v": 100
    },
    {
      "midi": 61,
      "hit": false,
      "t": 26100,
      "d": 300,
      "v": 69
    },
    {
      "midi": 57,
      "hit": false,
      "t": 26100,
      "d": 98.4375,
      "v": 100
    },
    {
      "midi": 54,
      "hit": false,
      "t": 26198.4375,
      "d": 100.78125,
      "v": 100
    },
    {
      "midi": 57,
      "hit": false,
      "t": 26299.21875,
      "d": 100.78125,
      "v": 100
    },
    {
      "midi": 62,
      "hit": false,
      "t": 26400,
      "d": 300,
      "v": 81
    },
    {
      "midi": 54,
      "hit": false,
      "t": 26400,
      "d": 98.4375,
      "v": 100
    },
    {
      "midi": 57,
      "hit": false,
      "t": 26498.4375,
      "d": 100.78125,
      "v": 100
    },
    {
      "midi": 54,
      "hit": false,
      "t": 26599.21875,
      "d": 100.78125,
      "v": 100
    },
    {
      "midi": 62,
      "hit": false,
      "t": 26700,
      "d": 300,
      "v": 76
    },
    {
      "midi": 57,
      "hit": false,
      "t": 26700,
      "d": 98.4375,
      "v": 100
    },
    {
      "midi": 54,
      "hit": false,
      "t": 26798.4375,
      "d": 100.78125,
      "v": 100
    },
    {
      "midi": 57,
      "hit": false,
      "t": 26899.21875,
      "d": 100.78125,
      "v": 100
    },
    {
      "midi": 54,
      "hit": false,
      "t": 27000,
      "d": 98.4375,
      "v": 100
    },
    {
      "midi": 57,
      "hit": false,
      "t": 27098.4375,
      "d": 100.78125,
      "v": 100
    },
    {
      "midi": 54,
      "hit": false,
      "t": 27199.21875,
      "d": 100.78125,
      "v": 100
    },
    {
      "midi": 61,
      "hit": false,
      "t": 27300,
      "d": 300,
      "v": 68
    },
    {
      "midi": 57,
      "hit": false,
      "t": 27300,
      "d": 98.4375,
      "v": 100
    },
    {
      "midi": 54,
      "hit": false,
      "t": 27398.4375,
      "d": 100.78125,
      "v": 100
    },
    {
      "midi": 57,
      "hit": false,
      "t": 27499.21875,
      "d": 100.78125,
      "v": 100
    },
    {
      "midi": 62,
      "hit": false,
      "t": 27600,
      "d": 300,
      "v": 79
    },
    {
      "midi": 54,
      "hit": false,
      "t": 27600,
      "d": 98.4375,
      "v": 100
    },
    {
      "midi": 57,
      "hit": false,
      "t": 27698.4375,
      "d": 100.78125,
      "v": 100
    },
    {
      "midi": 54,
      "hit": false,
      "t": 27799.21875,
      "d": 100.78125,
      "v": 100
    },
    {
      "midi": 62,
      "hit": false,
      "t": 27900,
      "d": 300,
      "v": 75
    },
    {
      "midi": 57,
      "hit": false,
      "t": 27900,
      "d": 98.4375,
      "v": 100
    },
    {
      "midi": 54,
      "hit": false,
      "t": 27998.4375,
      "d": 100.78125,
      "v": 100
    },
    {
      "midi": 57,
      "hit": false,
      "t": 28099.21875,
      "d": 100.78125,
      "v": 100
    },
    {
      "midi": 54,
      "hit": false,
      "t": 28200,
      "d": 98.4375,
      "v": 100
    },
    {
      "midi": 57,
      "hit": false,
      "t": 28298.4375,
      "d": 100.78125,
      "v": 100
    },
    {
      "midi": 54,
      "hit": false,
      "t": 28399.21875,
      "d": 100.78125,
      "v": 100
    },
    {
      "midi": 61,
      "hit": false,
      "t": 28500,
      "d": 300,
      "v": 65
    },
    {
      "midi": 57,
      "hit": false,
      "t": 28500,
      "d": 98.4375,
      "v": 100
    },
    {
      "midi": 54,
      "hit": false,
      "t": 28598.4375,
      "d": 100.78125,
      "v": 100
    },
    {
      "midi": 57,
      "hit": false,
      "t": 28699.21875,
      "d": 100.78125,
      "v": 100
    },
    {
      "midi": 62,
      "hit": false,
      "t": 28800,
      "d": 300,
      "v": 69
    },
    {
      "midi": 53,
      "hit": false,
      "t": 28800,
      "d": 98.4375,
      "v": 100
    },
    {
      "midi": 57,
      "hit": false,
      "t": 28898.4375,
      "d": 100.78125,
      "v": 100
    },
    {
      "midi": 53,
      "hit": false,
      "t": 28999.21875,
      "d": 100.78125,
      "v": 100
    },
    {
      "midi": 62,
      "hit": false,
      "t": 29100,
      "d": 300,
      "v": 74
    },
    {
      "midi": 69,
      "hit": false,
      "t": 29100,
      "d": 300,
      "v": 89
    },
    {
      "midi": 53,
      "hit": false,
      "t": 29100,
      "d": 98.4375,
      "v": 100
    },
    {
      "midi": 57,
      "hit": false,
      "t": 29198.4375,
      "d": 100.78125,
      "v": 100
    },
    {
      "midi": 53,
      "hit": false,
      "t": 29299.21875,
      "d": 100.78125,
      "v": 100
    },
    {
      "midi": 62,
      "hit": false,
      "t": 29400,
      "d": 150,
      "v": 78
    },
    {
      "midi": 71,
      "hit": false,
      "t": 29400,
      "d": 150,
      "v": 85
    },
    {
      "midi": 53,
      "hit": false,
      "t": 29400,
      "d": 98.4375,
      "v": 100
    },
    {
      "midi": 57,
      "hit": false,
      "t": 29498.4375,
      "d": 100.78125,
      "v": 100
    },
    {
      "midi": 71,
      "hit": false,
      "t": 29550,
      "d": 150,
      "v": 74
    },
    {
      "midi": 53,
      "hit": false,
      "t": 29599.21875,
      "d": 100.78125,
      "v": 100
    },
    {
      "midi": 69,
      "hit": false,
      "t": 29700,
      "d": 150,
      "v": 71
    },
    {
      "midi": 53,
      "hit": false,
      "t": 29700,
      "d": 98.4375,
      "v": 100
    },
    {
      "midi": 57,
      "hit": false,
      "t": 29798.4375,
      "d": 100.78125,
      "v": 100
    },
    {
      "midi": 71,
      "hit": false,
      "t": 29850,
      "d": 150,
      "v": 82
    },
    {
      "midi": 53,
      "hit": false,
      "t": 29899.21875,
      "d": 100.78125,
      "v": 100
    },
    {
      "midi": 76,
      "hit": false,
      "t": 30000,
      "d": 1200,
      "v": 95
    },
    {
      "midi": 57,
      "hit": false,
      "t": 30000,
      "d": 98.4375,
      "v": 100
    },
    {
      "midi": 61,
      "hit": false,
      "t": 30098.4375,
      "d": 100.78125,
      "v": 100
    },
    {
      "midi": 57,
      "hit": false,
      "t": 30199.21875,
      "d": 100.78125,
      "v": 100
    },
    {
      "midi": 61,
      "hit": false,
      "t": 30300,
      "d": 98.4375,
      "v": 100
    },
    {
      "midi": 57,
      "hit": false,
      "t": 30398.4375,
      "d": 100.78125,
      "v": 100
    },
    {
      "midi": 61,
      "hit": false,
      "t": 30499.21875,
      "d": 100.78125,
      "v": 100
    },
    {
      "midi": 57,
      "hit": false,
      "t": 30600,
      "d": 98.4375,
      "v": 100
    },
    {
      "midi": 61,
      "hit": false,
      "t": 30698.4375,
      "d": 100.78125,
      "v": 100
    },
    {
      "midi": 57,
      "hit": false,
      "t": 30799.21875,
      "d": 100.78125,
      "v": 100
    },
    {
      "midi": 61,
      "hit": false,
      "t": 30900,
      "d": 98.4375,
      "v": 100
    },
    {
      "midi": 57,
      "hit": false,
      "t": 30998.4375,
      "d": 100.78125,
      "v": 100
    },
    {
      "midi": 61,
      "hit": false,
      "t": 31099.21875,
      "d": 100.78125,
      "v": 100
    },
    {
      "midi": 50,
      "hit": false,
      "t": 31200,
      "d": 300,
      "v": 66
    },
    {
      "midi": 57,
      "hit": false,
      "t": 31200,
      "d": 98.4375,
      "v": 100
    },
    {
      "midi": 60,
      "hit": false,
      "t": 31298.4375,
      "d": 100.78125,
      "v": 100
    },
    {
      "midi": 57,
      "hit": false,
      "t": 31399.21875,
      "d": 100.78125,
      "v": 100
    },
    {
      "midi": 50,
      "hit": false,
      "t": 31500,
      "d": 300,
      "v": 78
    },
    {
      "midi": 60,
      "hit": false,
      "t": 31500,
      "d": 98.4375,
      "v": 100
    },
    {
      "midi": 57,
      "hit": false,
      "t": 31598.4375,
      "d": 100.78125,
      "v": 100
    },
    {
      "midi": 60,
      "hit": false,
      "t": 31699.21875,
      "d": 100.78125,
      "v": 100
    },
    {
      "midi": 57,
      "hit": false,
      "t": 31800,
      "d": 98.4375,
      "v": 100
    },
    {
      "midi": 60,
      "hit": false,
      "t": 31898.4375,
      "d": 100.78125,
      "v": 100
    },
    {
      "midi": 57,
      "hit": false,
      "t": 31999.21875,
      "d": 100.78125,
      "v": 100
    },
    {
      "midi": 53,
      "hit": false,
      "t": 32100,
      "d": 300,
      "v": 72
    },
    {
      "midi": 60,
      "hit": false,
      "t": 32100,
      "d": 98.4375,
      "v": 100
    },
    {
      "midi": 57,
      "hit": false,
      "t": 32198.4375,
      "d": 100.78125,
      "v": 100
    },
    {
      "midi": 60,
      "hit": false,
      "t": 32299.21875,
      "d": 100.78125,
      "v": 100
    },
    {
      "midi": 51,
      "hit": false,
      "t": 32400,
      "d": 300,
      "v": 73
    },
    {
      "midi": 57,
      "hit": false,
      "t": 32400,
      "d": 98.4375,
      "v": 100
    },
    {
      "midi": 60,
      "hit": false,
      "t": 32498.4375,
      "d": 100.78125,
      "v": 100
    },
    {
      "midi": 57,
      "hit": false,
      "t": 32599.21875,
      "d": 100.78125,
      "v": 100
    },
    {
      "midi": 51,
      "hit": false,
      "t": 32700,
      "d": 300,
      "v": 74
    },
    {
      "midi": 60,
      "hit": false,
      "t": 32700,
      "d": 98.4375,
      "v": 100
    },
    {
      "midi": 57,
      "hit": false,
      "t": 32798.4375,
      "d": 100.78125,
      "v": 100
    },
    {
      "midi": 60,
      "hit": false,
      "t": 32899.21875,
      "d": 100.78125,
      "v": 100
    },
    {
      "midi": 57,
      "hit": false,
      "t": 33000,
      "d": 98.4375,
      "v": 100
    },
    {
      "midi": 60,
      "hit": false,
      "t": 33098.4375,
      "d": 100.78125,
      "v": 100
    },
    {
      "midi": 57,
      "hit": false,
      "t": 33199.21875,
      "d": 100.78125,
      "v": 100
    },
    {
      "midi": 52,
      "hit": false,
      "t": 33300,
      "d": 300,
      "v": 71
    },
    {
      "midi": 60,
      "hit": false,
      "t": 33300,
      "d": 98.4375,
      "v": 100
    },
    {
      "midi": 57,
      "hit": false,
      "t": 33398.4375,
      "d": 100.78125,
      "v": 100
    },
    {
      "midi": 60,
      "hit": false,
      "t": 33499.21875,
      "d": 100.78125,
      "v": 100
    },
    {
      "midi": 52,
      "hit": false,
      "t": 33600,
      "d": 300,
      "v": 75
    },
    {
      "midi": 55,
      "hit": false,
      "t": 33600,
      "d": 98.4375,
      "v": 100
    },
    {
      "midi": 61,
      "hit": false,
      "t": 33698.4375,
      "d": 100.78125,
      "v": 100
    },
    {
      "midi": 55,
      "hit": false,
      "t": 33799.21875,
      "d": 100.78125,
      "v": 100
    },
    {
      "midi": 59,
      "hit": false,
      "t": 33900,
      "d": 300,
      "v": 83
    },
    {
      "midi": 61,
      "hit": false,
      "t": 33900,
      "d": 98.4375,
      "v": 100
    },
    {
      "midi": 55,
      "hit": false,
      "t": 33998.4375,
      "d": 100.78125,
      "v": 100
    },
    {
      "midi": 61,
      "hit": false,
      "t": 34099.21875,
      "d": 100.78125,
      "v": 100
    },
    {
      "midi": 59,
      "hit": false,
      "t": 34200,
      "d": 150,
      "v": 78
    },
    {
      "midi": 55,
      "hit": false,
      "t": 34200,
      "d": 98.4375,
      "v": 100
    },
    {
      "midi": 61,
      "hit": false,
      "t": 34298.4375,
      "d": 100.78125,
      "v": 100
    },
    {
      "midi": 59,
      "hit": false,
      "t": 34350,
      "d": 150,
      "v": 76
    },
    {
      "midi": 55,
      "hit": false,
      "t": 34399.21875,
      "d": 100.78125,
      "v": 100
    },
    {
      "midi": 58,
      "hit": false,
      "t": 34500,
      "d": 150,
      "v": 74
    },
    {
      "midi": 61,
      "hit": false,
      "t": 34500,
      "d": 98.4375,
      "v": 100
    },
    {
      "midi": 55,
      "hit": false,
      "t": 34598.4375,
      "d": 100.78125,
      "v": 100
    },
    {
      "midi": 59,
      "hit": false,
      "t": 34650,
      "d": 150,
      "v": 100
    },
    {
      "midi": 61,
      "hit": false,
      "t": 34699.21875,
      "d": 100.78125,
      "v": 100
    },
    {
      "midi": 66,
      "hit": false,
      "t": 34800,
      "d": 900,
      "v": 73
    },
    {
      "midi": 58,
      "hit": false,
      "t": 34800,
      "d": 98.4375,
      "v": 100
    },
    {
      "midi": 64,
      "hit": false,
      "t": 34898.4375,
      "d": 100.78125,
      "v": 100
    },
    {
      "midi": 58,
      "hit": false,
      "t": 34999.21875,
      "d": 100.78125,
      "v": 100
    },
    {
      "midi": 64,
      "hit": false,
      "t": 35100,
      "d": 98.4375,
      "v": 100
    },
    {
      "midi": 58,
      "hit": false,
      "t": 35198.4375,
      "d": 100.78125,
      "v": 100
    },
    {
      "midi": 64,
      "hit": false,
      "t": 35299.21875,
      "d": 100.78125,
      "v": 100
    },
    {
      "midi": 58,
      "hit": false,
      "t": 35400,
      "d": 98.4375,
      "v": 100
    },
    {
      "midi": 64,
      "hit": false,
      "t": 35498.4375,
      "d": 100.78125,
      "v": 100
    },
    {
      "midi": 58,
      "hit": false,
      "t": 35599.21875,
      "d": 100.78125,
      "v": 100
    },
    {
      "midi": 66,
      "hit": false,
      "t": 35700,
      "d": 300,
      "v": 77
    },
    {
      "midi": 64,
      "hit": false,
      "t": 35700,
      "d": 98.4375,
      "v": 100
    },
    {
      "midi": 58,
      "hit": false,
      "t": 35798.4375,
      "d": 100.78125,
      "v": 100
    },
    {
      "midi": 64,
      "hit": false,
      "t": 35899.21875,
      "d": 100.78125,
      "v": 100
    },
    {
      "midi": 66,
      "hit": false,
      "t": 36000,
      "d": 300,
      "v": 59
    },
    {
      "midi": 74,
      "hit": false,
      "t": 36000,
      "d": 300,
      "v": 88
    },
    {
      "midi": 59,
      "hit": false,
      "t": 36000,
      "d": 98.4375,
      "v": 100
    },
    {
      "midi": 62,
      "hit": false,
      "t": 36098.4375,
      "d": 100.78125,
      "v": 100
    },
    {
      "midi": 59,
      "hit": false,
      "t": 36199.21875,
      "d": 100.78125,
      "v": 100
    },
    {
      "midi": 74,
      "hit": false,
      "t": 36300,
      "d": 300,
      "v": 80
    },
    {
      "midi": 62,
      "hit": false,
      "t": 36300,
      "d": 98.4375,
      "v": 100
    },
    {
      "midi": 59,
      "hit": false,
      "t": 36398.4375,
      "d": 100.78125,
      "v": 100
    },
    {
      "midi": 62,
      "hit": false,
      "t": 36499.21875,
      "d": 100.78125,
      "v": 100
    },
    {
      "midi": 59,
      "hit": false,
      "t": 36600,
      "d": 98.4375,
      "v": 100
    },
    {
      "midi": 62,
      "hit": false,
      "t": 36698.4375,
      "d": 100.78125,
      "v": 100
    },
    {
      "midi": 59,
      "hit": false,
      "t": 36799.21875,
      "d": 100.78125,
      "v": 100
    },
    {
      "midi": 66,
      "hit": false,
      "t": 36900,
      "d": 300,
      "v": 69
    },
    {
      "midi": 62,
      "hit": false,
      "t": 36900,
      "d": 98.4375,
      "v": 100
    },
    {
      "midi": 59,
      "hit": false,
      "t": 36998.4375,
      "d": 100.78125,
      "v": 100
    },
    {
      "midi": 62,
      "hit": false,
      "t": 37099.21875,
      "d": 100.78125,
      "v": 100
    },
    {
      "midi": 67,
      "hit": false,
      "t": 37200,
      "d": 300,
      "v": 68
    },
    {
      "midi": 73,
      "hit": false,
      "t": 37200,
      "d": 300,
      "v": 91
    },
    {
      "midi": 58,
      "hit": false,
      "t": 37200,
      "d": 98.4375,
      "v": 100
    },
    {
      "midi": 64,
      "hit": false,
      "t": 37298.4375,
      "d": 100.78125,
      "v": 100
    },
    {
      "midi": 58,
      "hit": false,
      "t": 37399.21875,
      "d": 100.78125,
      "v": 100
    },
    {
      "midi": 66,
      "hit": false,
      "t": 37500,
      "d": 300,
      "v": 68
    },
    {
      "midi": 64,
      "hit": false,
      "t": 37500,
      "d": 98.4375,
      "v": 100
    },
    {
      "midi": 58,
      "hit": false,
      "t": 37598.4375,
      "d": 100.78125,
      "v": 100
    },
    {
      "midi": 64,
      "hit": false,
      "t": 37699.21875,
      "d": 100.78125,
      "v": 100
    },
    {
      "midi": 58,
      "hit": false,
      "t": 37800,
      "d": 98.4375,
      "v": 100
    },
    {
      "midi": 64,
      "hit": false,
      "t": 37898.4375,
      "d": 100.78125,
      "v": 100
    },
    {
      "midi": 58,
      "hit": false,
      "t": 37999.21875,
      "d": 100.78125,
      "v": 100
    },
    {
      "midi": 66,
      "hit": false,
      "t": 38100,
      "d": 300,
      "v": 66
    },
    {
      "midi": 64,
      "hit": false,
      "t": 38100,
      "d": 98.4375,
      "v": 100
    },
    {
      "midi": 58,
      "hit": false,
      "t": 38198.4375,
      "d": 100.78125,
      "v": 100
    },
    {
      "midi": 64,
      "hit": false,
      "t": 38299.21875,
      "d": 100.78125,
      "v": 100
    },
    {
      "midi": 66,
      "hit": false,
      "t": 38400,
      "d": 300,
      "v": 73
    },
    {
      "midi": 74,
      "hit": false,
      "t": 38400,
      "d": 300,
      "v": 87
    },
    {
      "midi": 59,
      "hit": false,
      "t": 38400,
      "d": 98.4375,
      "v": 100
    },
    {
      "midi": 62,
      "hit": false,
      "t": 38498.4375,
      "d": 100.78125,
      "v": 100
    },
    {
      "midi": 59,
      "hit": false,
      "t": 38599.21875,
      "d": 100.78125,
      "v": 100
    },
    {
      "midi": 74,
      "hit": false,
      "t": 38700,
      "d": 300,
      "v": 73
    },
    {
      "midi": 62,
      "hit": false,
      "t": 38700,
      "d": 98.4375,
      "v": 100
    },
    {
      "midi": 59,
      "hit": false,
      "t": 38798.4375,
      "d": 100.78125,
      "v": 100
    },
    {
      "midi": 62,
      "hit": false,
      "t": 38899.21875,
      "d": 100.78125,
      "v": 100
    },
    {
      "midi": 59,
      "hit": false,
      "t": 39000,
      "d": 98.4375,
      "v": 100
    },
    {
      "midi": 62,
      "hit": false,
      "t": 39098.4375,
      "d": 100.78125,
      "v": 100
    },
    {
      "midi": 59,
      "hit": false,
      "t": 39199.21875,
      "d": 100.78125,
      "v": 100
    },
    {
      "midi": 66,
      "hit": false,
      "t": 39300,
      "d": 300,
      "v": 73
    },
    {
      "midi": 62,
      "hit": false,
      "t": 39300,
      "d": 98.4375,
      "v": 100
    },
    {
      "midi": 59,
      "hit": false,
      "t": 39398.4375,
      "d": 100.78125,
      "v": 100
    },
    {
      "midi": 62,
      "hit": false,
      "t": 39499.21875,
      "d": 100.78125,
      "v": 100
    },
    {
      "midi": 67,
      "hit": false,
      "t": 39600,
      "d": 300,
      "v": 64
    },
    {
      "midi": 73,
      "hit": false,
      "t": 39600,
      "d": 300,
      "v": 90
    },
    {
      "midi": 58,
      "hit": false,
      "t": 39600,
      "d": 98.4375,
      "v": 100
    },
    {
      "midi": 64,
      "hit": false,
      "t": 39698.4375,
      "d": 100.78125,
      "v": 100
    },
    {
      "midi": 58,
      "hit": false,
      "t": 39799.21875,
      "d": 100.78125,
      "v": 100
    },
    {
      "midi": 66,
      "hit": false,
      "t": 39900,
      "d": 300,
      "v": 68
    },
    {
      "midi": 64,
      "hit": false,
      "t": 39900,
      "d": 98.4375,
      "v": 100
    },
    {
      "midi": 58,
      "hit": false,
      "t": 39998.4375,
      "d": 100.78125,
      "v": 100
    },
    {
      "midi": 64,
      "hit": false,
      "t": 40099.21875,
      "d": 100.78125,
      "v": 100
    },
    {
      "midi": 58,
      "hit": false,
      "t": 40200,
      "d": 98.4375,
      "v": 100
    },
    {
      "midi": 64,
      "hit": false,
      "t": 40298.4375,
      "d": 100.78125,
      "v": 100
    },
    {
      "midi": 58,
      "hit": false,
      "t": 40399.21875,
      "d": 100.78125,
      "v": 100
    },
    {
      "midi": 66,
      "hit": false,
      "t": 40500,
      "d": 300,
      "v": 72
    },
    {
      "midi": 64,
      "hit": false,
      "t": 40500,
      "d": 98.4375,
      "v": 100
    },
    {
      "midi": 58,
      "hit": false,
      "t": 40598.4375,
      "d": 100.78125,
      "v": 100
    },
    {
      "midi": 64,
      "hit": false,
      "t": 40699.21875,
      "d": 100.78125,
      "v": 100
    },
    {
      "midi": 62,
      "hit": false,
      "t": 40800,
      "d": 300,
      "v": 70
    },
    {
      "midi": 66,
      "hit": false,
      "t": 40800,
      "d": 300,
      "v": 70
    },
    {
      "midi": 74,
      "hit": false,
      "t": 40800,
      "d": 300,
      "v": 89
    },
    {
      "midi": 54,
      "hit": false,
      "t": 40800,
      "d": 98.4375,
      "v": 100
    },
    {
      "midi": 59,
      "hit": false,
      "t": 40898.4375,
      "d": 100.78125,
      "v": 100
    },
    {
      "midi": 54,
      "hit": false,
      "t": 40999.21875,
      "d": 100.78125,
      "v": 100
    },
    {
      "midi": 73,
      "hit": false,
      "t": 41100,
      "d": 150,
      "v": 78
    },
    {
      "midi": 59,
      "hit": false,
      "t": 41100,
      "d": 98.4375,
      "v": 100
    },
    {
      "midi": 54,
      "hit": false,
      "t": 41198.4375,
      "d": 100.78125,
      "v": 100
    },
    {
      "midi": 71,
      "hit": false,
      "t": 41250,
      "d": 150,
      "v": 68
    },
    {
      "midi": 59,
      "hit": false,
      "t": 41299.21875,
      "d": 100.78125,
      "v": 100
    },
    {
      "midi": 62,
      "hit": false,
      "t": 41400,
      "d": 150,
      "v": 64
    },
    {
      "midi": 69,
      "hit": false,
      "t": 41400,
      "d": 150,
      "v": 71
    },
    {
      "midi": 54,
      "hit": false,
      "t": 41400,
      "d": 98.4375,
      "v": 100
    },
    {
      "midi": 59,
      "hit": false,
      "t": 41498.4375,
      "d": 100.78125,
      "v": 100
    },
    {
      "midi": 71,
      "hit": false,
      "t": 41550,
      "d": 150,
      "v": 77
    },
    {
      "midi": 54,
      "hit": false,
      "t": 41599.21875,
      "d": 100.78125,
      "v": 100
    },
    {
      "midi": 68,
      "hit": false,
      "t": 41700,
      "d": 150,
      "v": 73
    },
    {
      "midi": 59,
      "hit": false,
      "t": 41700,
      "d": 98.4375,
      "v": 100
    },
    {
      "midi": 54,
      "hit": false,
      "t": 41798.4375,
      "d": 100.78125,
      "v": 100
    },
    {
      "midi": 66,
      "hit": false,
      "t": 41850,
      "d": 150,
      "v": 73
    },
    {
      "midi": 59,
      "hit": false,
      "t": 41899.21875,
      "d": 100.78125,
      "v": 100
    },
    {
      "midi": 54,
      "hit": false,
      "t": 42000,
      "d": 600,
      "v": 65
    },
    {
      "midi": 57,
      "hit": false,
      "t": 42000,
      "d": 600,
      "v": 65
    },
    {
      "midi": 61,
      "hit": false,
      "t": 42000,
      "d": 600,
      "v": 65
    },
    {
      "midi": 49,
      "hit": false,
      "t": 42000,
      "d": 98.4375,
      "v": 100
    },
    {
      "midi": 50,
      "hit": false,
      "t": 42098.4375,
      "d": 100.78125,
      "v": 100
    },
    {
      "midi": 49,
      "hit": false,
      "t": 42199.21875,
      "d": 100.78125,
      "v": 100
    },
    {
      "midi": 50,
      "hit": false,
      "t": 42300,
      "d": 98.4375,
      "v": 100
    },
    {
      "midi": 49,
      "hit": false,
      "t": 42398.4375,
      "d": 100.78125,
      "v": 100
    },
    {
      "midi": 50,
      "hit": false,
      "t": 42499.21875,
      "d": 100.78125,
      "v": 100
    },
    {
      "midi": 53,
      "hit": false,
      "t": 42600,
      "d": 600,
      "v": 83
    },
    {
      "midi": 57,
      "hit": false,
      "t": 42600,
      "d": 600,
      "v": 83
    },
    {
      "midi": 61,
      "hit": false,
      "t": 42600,
      "d": 600,
      "v": 83
    },
    {
      "midi": 49,
      "hit": false,
      "t": 42600,
      "d": 98.4375,
      "v": 100
    },
    {
      "midi": 50,
      "hit": false,
      "t": 42698.4375,
      "d": 100.78125,
      "v": 100
    },
    {
      "midi": 49,
      "hit": false,
      "t": 42799.21875,
      "d": 100.78125,
      "v": 100
    },
    {
      "midi": 50,
      "hit": false,
      "t": 42900,
      "d": 98.4375,
      "v": 100
    },
    {
      "midi": 49,
      "hit": false,
      "t": 42998.4375,
      "d": 100.78125,
      "v": 100
    },
    {
      "midi": 50,
      "hit": false,
      "t": 43099.21875,
      "d": 100.78125,
      "v": 100
    },
    {
      "midi": 54,
      "hit": false,
      "t": 43200,
      "d": 600,
      "v": 75
    },
    {
      "midi": 57,
      "hit": false,
      "t": 43200,
      "d": 600,
      "v": 75
    },
    {
      "midi": 61,
      "hit": false,
      "t": 43200,
      "d": 600,
      "v": 75
    },
    {
      "midi": 49,
      "hit": false,
      "t": 43200,
      "d": 98.4375,
      "v": 100
    },
    {
      "midi": 50,
      "hit": false,
      "t": 43298.4375,
      "d": 100.78125,
      "v": 100
    },
    {
      "midi": 49,
      "hit": false,
      "t": 43399.21875,
      "d": 100.78125,
      "v": 100
    },
    {
      "midi": 50,
      "hit": false,
      "t": 43500,
      "d": 98.4375,
      "v": 100
    },
    {
      "midi": 49,
      "hit": false,
      "t": 43598.4375,
      "d": 100.78125,
      "v": 100
    },
    {
      "midi": 50,
      "hit": false,
      "t": 43699.21875,
      "d": 100.78125,
      "v": 100
    },
    {
      "midi": 49,
      "hit": false,
      "t": 43800,
      "d": 98.4375,
      "v": 100
    },
    {
      "midi": 50,
      "hit": false,
      "t": 43898.4375,
      "d": 100.78125,
      "v": 100
    },
    {
      "midi": 49,
      "hit": false,
      "t": 43999.21875,
      "d": 100.78125,
      "v": 100
    },
    {
      "midi": 61,
      "hit": false,
      "t": 44100,
      "d": 300,
      "v": 66
    },
    {
      "midi": 66,
      "hit": false,
      "t": 44100,
      "d": 300,
      "v": 66
    },
    {
      "midi": 69,
      "hit": false,
      "t": 44100,
      "d": 300,
      "v": 66
    },
    {
      "midi": 50,
      "hit": false,
      "t": 44100,
      "d": 98.4375,
      "v": 100
    },
    {
      "midi": 49,
      "hit": false,
      "t": 44198.4375,
      "d": 100.78125,
      "v": 100
    },
    {
      "midi": 50,
      "hit": false,
      "t": 44299.21875,
      "d": 100.78125,
      "v": 100
    },
    {
      "midi": 57,
      "hit": false,
      "t": 44400,
      "d": 300,
      "v": 75
    },
    {
      "midi": 61,
      "hit": false,
      "t": 44400,
      "d": 300,
      "v": 75
    },
    {
      "midi": 66,
      "hit": false,
      "t": 44400,
      "d": 300,
      "v": 75
    },
    {
      "midi": 49,
      "hit": false,
      "t": 44400,
      "d": 98.4375,
      "v": 100
    },
    {
      "midi": 50,
      "hit": false,
      "t": 44498.4375,
      "d": 100.78125,
      "v": 100
    },
    {
      "midi": 49,
      "hit": false,
      "t": 44599.21875,
      "d": 100.78125,
      "v": 100
    },
    {
      "midi": 57,
      "hit": false,
      "t": 44700,
      "d": 300,
      "v": 73
    },
    {
      "midi": 61,
      "hit": false,
      "t": 44700,
      "d": 300,
      "v": 73
    },
    {
      "midi": 66,
      "hit": false,
      "t": 44700,
      "d": 300,
      "v": 73
    },
    {
      "midi": 50,
      "hit": false,
      "t": 44700,
      "d": 98.4375,
      "v": 100
    },
    {
      "midi": 49,
      "hit": false,
      "t": 44798.4375,
      "d": 100.78125,
      "v": 100
    },
    {
      "midi": 50,
      "hit": false,
      "t": 44899.21875,
      "d": 100.78125,
      "v": 100
    },
    {
      "midi": 49,
      "hit": false,
      "t": 45000,
      "d": 98.4375,
      "v": 100
    },
    {
      "midi": 50,
      "hit": false,
      "t": 45098.4375,
      "d": 100.78125,
      "v": 100
    },
    {
      "midi": 49,
      "hit": false,
      "t": 45199.21875,
      "d": 100.78125,
      "v": 100
    },
    {
      "midi": 50,
      "hit": false,
      "t": 45300,
      "d": 98.4375,
      "v": 100
    },
    {
      "midi": 49,
      "hit": false,
      "t": 45398.4375,
      "d": 100.78125,
      "v": 100
    },
    {
      "midi": 50,
      "hit": false,
      "t": 45499.21875,
      "d": 100.78125,
      "v": 100
    },
    {
      "midi": 54,
      "hit": false,
      "t": 45600,
      "d": 600,
      "v": 71
    },
    {
      "midi": 57,
      "hit": false,
      "t": 45600,
      "d": 600,
      "v": 71
    },
    {
      "midi": 61,
      "hit": false,
      "t": 45600,
      "d": 600,
      "v": 71
    },
    {
      "midi": 49,
      "hit": false,
      "t": 45600,
      "d": 98.4375,
      "v": 100
    },
    {
      "midi": 50,
      "hit": false,
      "t": 45698.4375,
      "d": 100.78125,
      "v": 100
    },
    {
      "midi": 49,
      "hit": false,
      "t": 45799.21875,
      "d": 100.78125,
      "v": 100
    },
    {
      "midi": 50,
      "hit": false,
      "t": 45900,
      "d": 98.4375,
      "v": 100
    },
    {
      "midi": 49,
      "hit": false,
      "t": 45998.4375,
      "d": 100.78125,
      "v": 100
    },
    {
      "midi": 50,
      "hit": false,
      "t": 46099.21875,
      "d": 100.78125,
      "v": 100
    },
    {
      "midi": 49,
      "hit": false,
      "t": 46200,
      "d": 98.4375,
      "v": 100
    },
    {
      "midi": 50,
      "hit": false,
      "t": 46298.4375,
      "d": 100.78125,
      "v": 100
    },
    {
      "midi": 49,
      "hit": false,
      "t": 46399.21875,
      "d": 100.78125,
      "v": 100
    },
    {
      "midi": 61,
      "hit": false,
      "t": 46500,
      "d": 300,
      "v": 69
    },
    {
      "midi": 66,
      "hit": false,
      "t": 46500,
      "d": 300,
      "v": 69
    },
    {
      "midi": 69,
      "hit": false,
      "t": 46500,
      "d": 300,
      "v": 69
    },
    {
      "midi": 50,
      "hit": false,
      "t": 46500,
      "d": 98.4375,
      "v": 100
    },
    {
      "midi": 49,
      "hit": false,
      "t": 46598.4375,
      "d": 100.78125,
      "v": 100
    },
    {
      "midi": 50,
      "hit": false,
      "t": 46699.21875,
      "d": 100.78125,
      "v": 100
    },
    {
      "midi": 57,
      "hit": false,
      "t": 46800,
      "d": 300,
      "v": 67
    },
    {
      "midi": 61,
      "hit": false,
      "t": 46800,
      "d": 300,
      "v": 67
    },
    {
      "midi": 66,
      "hit": false,
      "t": 46800,
      "d": 300,
      "v": 67
    },
    {
      "midi": 49,
      "hit": false,
      "t": 46800,
      "d": 98.4375,
      "v": 100
    },
    {
      "midi": 50,
      "hit": false,
      "t": 46898.4375,
      "d": 100.78125,
      "v": 100
    },
    {
      "midi": 49,
      "hit": false,
      "t": 46999.21875,
      "d": 100.78125,
      "v": 100
    },
    {
      "midi": 57,
      "hit": false,
      "t": 47100,
      "d": 300,
      "v": 71
    },
    {
      "midi": 61,
      "hit": false,
      "t": 47100,
      "d": 300,
      "v": 71
    },
    {
      "midi": 66,
      "hit": false,
      "t": 47100,
      "d": 300,
      "v": 71
    },
    {
      "midi": 50,
      "hit": false,
      "t": 47100,
      "d": 98.4375,
      "v": 100
    },
    {
      "midi": 49,
      "hit": false,
      "t": 47198.4375,
      "d": 100.78125,
      "v": 100
    },
    {
      "midi": 50,
      "hit": false,
      "t": 47299.21875,
      "d": 100.78125,
      "v": 100
    },
    {
      "midi": 49,
      "hit": false,
      "t": 47400,
      "d": 98.4375,
      "v": 100
    },
    {
      "midi": 50,
      "hit": false,
      "t": 47498.4375,
      "d": 100.78125,
      "v": 100
    },
    {
      "midi": 49,
      "hit": false,
      "t": 47599.21875,
      "d": 100.78125,
      "v": 100
    },
    {
      "midi": 61,
      "hit": false,
      "t": 47700,
      "d": 300,
      "v": 68
    },
    {
      "midi": 66,
      "hit": false,
      "t": 47700,
      "d": 300,
      "v": 68
    },
    {
      "midi": 69,
      "hit": false,
      "t": 47700,
      "d": 300,
      "v": 68
    },
    {
      "midi": 50,
      "hit": false,
      "t": 47700,
      "d": 98.4375,
      "v": 100
    },
    {
      "midi": 49,
      "hit": false,
      "t": 47798.4375,
      "d": 100.78125,
      "v": 100
    },
    {
      "midi": 50,
      "hit": false,
      "t": 47899.21875,
      "d": 100.78125,
      "v": 100
    },
    {
      "midi": 57,
      "hit": false,
      "t": 48000,
      "d": 600,
      "v": 69
    },
    {
      "midi": 61,
      "hit": false,
      "t": 48000,
      "d": 600,
      "v": 69
    },
    {
      "midi": 66,
      "hit": false,
      "t": 48000,
      "d": 600,
      "v": 69
    },
    {
      "midi": 42,
      "hit": false,
      "t": 48000,
      "d": 600,
      "v": 73
    },
    {
      "midi": 49,
      "hit": false,
      "t": 48000,
      "d": 600,
      "v": 73
    },
    {
      "midi": 57,
      "hit": false,
      "t": 48600,
      "d": 600,
      "v": 77
    },
    {
      "midi": 61,
      "hit": false,
      "t": 48600,
      "d": 600,
      "v": 77
    },
    {
      "midi": 66,
      "hit": false,
      "t": 48600,
      "d": 600,
      "v": 77
    },
    {
      "midi": 42,
      "hit": false,
      "t": 48600,
      "d": 600,
      "v": 78
    },
    {
      "midi": 49,
      "hit": false,
      "t": 48600,
      "d": 600,
      "v": 78
    },
    {
      "midi": 57,
      "hit": false,
      "t": 49200,
      "d": 1200,
      "v": 80
    },
    {
      "midi": 61,
      "hit": false,
      "t": 49200,
      "d": 1200,
      "v": 80
    },
    {
      "midi": 66,
      "hit": false,
      "t": 49200,
      "d": 1200,
      "v": 80
    },
    {
      "midi": 42,
      "hit": false,
      "t": 49200,
      "d": 1200,
      "v": 78
    },
    {
      "midi": 49,
      "hit": false,
      "t": 49200,
      "d": 1200,
      "v": 78
    }
  ]
}