{
  "jsonPath": "Unknown/Unknown/Grand Archives/sleepdriving-album.json",
  "path": "Unknown\\Unknown\\Grand Archives\\Sleepdriving (Album).mid",
  "name": "Sleepdriving (Album)",
  "difficulty": "Intermediate",
  "bpm": 68.0000725334107,
  "notes": [
    {
      "midi": 51,
      "hit": false,
      "t": 6838.228000000001,
      "d": 3515.62125,
      "v": 102
    },
    {
      "midi": 58,
      "hit": false,
      "t": 6838.228000000001,
      "d": 3515.62125,
      "v": 100
    },
    {
      "midi": 63,
      "hit": false,
      "t": 6838.228000000001,
      "d": 3515.62125,
      "v": 102
    },
    {
      "midi": 67,
      "hit": false,
      "t": 6838.228000000001,
      "d": 3515.62125,
      "v": 100
    },
    {
      "midi": 46,
      "hit": false,
      "t": 10367.636,
      "d": 3515.62125,
      "v": 100
    },
    {
      "midi": 58,
      "hit": false,
      "t": 10367.636,
      "d": 3515.62125,
      "v": 102
    },
    {
      "midi": 62,
      "hit": false,
      "t": 10367.636,
      "d": 3515.62125,
      "v": 102
    },
    {
      "midi": 65,
      "hit": false,
      "t": 10367.636,
      "d": 3515.62125,
      "v": 100
    },
    {
      "midi": 48,
      "hit": false,
      "t": 13897.044,
      "d": 3515.6212499999983,
      "v": 100
    },
    {
      "midi": 55,
      "hit": false,
      "t": 13897.044,
      "d": 3515.6212499999983,
      "v": 102
    },
    {
      "midi": 60,
      "hit": false,
      "t": 13897.044,
      "d": 3515.6212499999983,
      "v": 100
    },
    {
      "midi": 63,
      "hit": false,
      "t": 13897.044,
      "d": 3515.6212499999983,
      "v": 102
    },
    {
      "midi": 44,
      "hit": false,
      "t": 17426.451999999997,
      "d": 1750.9172499999986,
      "v": 100
    },
    {
      "midi": 56,
      "hit": false,
      "t": 17426.451999999997,
      "d": 1750.9172499999986,
      "v": 102
    },
    {
      "midi": 58,
      "hit": false,
      "t": 17426.451999999997,
      "d": 1750.9172499999986,
      "v": 100
    },
    {
      "midi": 60,
      "hit": false,
      "t": 17426.451999999997,
      "d": 1750.9172499999986,
      "v": 102
    },
    {
      "midi": 63,
      "hit": false,
      "t": 17426.451999999997,
      "d": 1750.9172499999986,
      "v": 100
    },
    {
      "midi": 51,
      "hit": false,
      "t": 20955.859999999997,
      "d": 3515.62125,
      "v": 102
    },
    {
      "midi": 58,
      "hit": false,
      "t": 20955.859999999997,
      "d": 3515.62125,
      "v": 100
    },
    {
      "midi": 63,
      "hit": false,
      "t": 20955.859999999997,
      "d": 3515.62125,
      "v": 102
    },
    {
      "midi": 67,
      "hit": false,
      "t": 20955.859999999997,
      "d": 3515.62125,
      "v": 100
    },
    {
      "midi": 46,
      "hit": false,
      "t": 24485.267999999996,
      "d": 3515.62125,
      "v": 100
    },
    {
      "midi": 58,
      "hit": false,
      "t": 24485.267999999996,
      "d": 3515.62125,
      "v": 102
    },
    {
      "midi": 62,
      "hit": false,
      "t": 24485.267999999996,
      "d": 3515.62125,
      "v": 102
    },
    {
      "midi": 65,
      "hit": false,
      "t": 24485.267999999996,
      "d": 3515.62125,
      "v": 100
    },
    {
      "midi": 48,
      "hit": false,
      "t": 28014.675999999996,
      "d": 3515.62125,
      "v": 100
    },
    {
      "midi": 55,
      "hit": false,
      "t": 28014.675999999996,
      "d": 3515.62125,
      "v": 102
    },
    {
      "midi": 60,
      "hit": false,
      "t": 28014.675999999996,
      "d": 3515.62125,
      "v": 100
    },
    {
      "midi": 63,
      "hit": false,
      "t": 28014.675999999996,
      "d": 3515.62125,
      "v": 102
    },
    {
      "midi": 44,
      "hit": false,
      "t": 31544.083999999995,
      "d": 1750.9172499999986,
      "v": 100
    },
    {
      "midi": 56,
      "hit": false,
      "t": 31544.083999999995,
      "d": 1750.9172499999986,
      "v": 102
    },
    {
      "midi": 58,
      "hit": false,
      "t": 31544.083999999995,
      "d": 1750.9172499999986,
      "v": 100
    },
    {
      "midi": 60,
      "hit": false,
      "t": 31544.083999999995,
      "d": 1750.9172499999986,
      "v": 102
    },
    {
      "midi": 63,
      "hit": false,
      "t": 31544.083999999995,
      "d": 1750.9172499999986,
      "v": 100
    },
    {
      "midi": 51,
      "hit": false,
      "t": 35073.49199999999,
      "d": 3515.621250000004,
      "v": 102
    },
    {
      "midi": 58,
      "hit": false,
      "t": 35073.49199999999,
      "d": 3515.621250000004,
      "v": 100
    },
    {
      "midi": 63,
      "hit": false,
      "t": 35073.49199999999,
      "d": 3515.621250000004,
      "v": 102
    },
    {
      "midi": 67,
      "hit": false,
      "t": 35073.49199999999,
      "d": 3515.621250000004,
      "v": 100
    },
    {
      "midi": 46,
      "hit": false,
      "t": 38602.899999999994,
      "d": 3515.6212499999965,
      "v": 100
    },
    {
      "midi": 58,
      "hit": false,
      "t": 38602.899999999994,
      "d": 3515.6212499999965,
      "v": 102
    },
    {
      "midi": 62,
      "hit": false,
      "t": 38602.899999999994,
      "d": 3515.6212499999965,
      "v": 102
    },
    {
      "midi": 65,
      "hit": false,
      "t": 38602.899999999994,
      "d": 3515.6212499999965,
      "v": 100
    },
    {
      "midi": 48,
      "hit": false,
      "t": 42132.30799999999,
      "d": 3515.6212499999965,
      "v": 100
    },
    {
      "midi": 55,
      "hit": false,
      "t": 42132.30799999999,
      "d": 3515.6212499999965,
      "v": 102
    },
    {
      "midi": 60,
      "hit": false,
      "t": 42132.30799999999,
      "d": 3515.6212499999965,
      "v": 100
    },
    {
      "midi": 63,
      "hit": false,
      "t": 42132.30799999999,
      "d": 3515.6212499999965,
      "v": 102
    },
    {
      "midi": 44,
      "hit": false,
      "t": 45661.715999999986,
      "d": 1750.9172499999986,
      "v": 100
    },
    {
      "midi": 56,
      "hit": false,
      "t": 45661.715999999986,
      "d": 1750.9172499999986,
      "v": 102
    },
    {
      "midi": 58,
      "hit": false,
      "t": 45661.715999999986,
      "d": 1750.9172499999986,
      "v": 100
    },
    {
      "midi": 60,
      "hit": false,
      "t": 45661.715999999986,
      "d": 1750.9172499999986,
      "v": 102
    },
    {
      "midi": 63,
      "hit": false,
      "t": 45661.715999999986,
      "d": 1750.9172499999986,
      "v": 100
    },
    {
      "midi": 51,
      "hit": false,
      "t": 49191.12399999998,
      "d": 3515.6212499999965,
      "v": 102
    },
    {
      "midi": 58,
      "hit": false,
      "t": 49191.12399999998,
      "d": 3515.6212499999965,
      "v": 100
    },
    {
      "midi": 63,
      "hit": false,
      "t": 49191.12399999998,
      "d": 3515.6212499999965,
      "v": 102
    },
    {
      "midi": 67,
      "hit": false,
      "t": 49191.12399999998,
      "d": 3515.6212499999965,
      "v": 100
    },
    {
      "midi": 46,
      "hit": false,
      "t": 52720.53199999998,
      "d": 3515.6212499999965,
      "v": 100
    },
    {
      "midi": 58,
      "hit": false,
      "t": 52720.53199999998,
      "d": 3515.6212499999965,
      "v": 102
    },
    {
      "midi": 62,
      "hit": false,
      "t": 52720.53199999998,
      "d": 3515.6212499999965,
      "v": 102
    },
    {
      "midi": 65,
      "hit": false,
      "t": 52720.53199999998,
      "d": 3515.6212499999965,
      "v": 100
    },
    {
      "midi": 48,
      "hit": false,
      "t": 56249.93999999997,
      "d": 3515.6212499999965,
      "v": 100
    },
    {
      "midi": 55,
      "hit": false,
      "t": 56249.93999999997,
      "d": 3515.6212499999965,
      "v": 102
    },
    {
      "midi": 60,
      "hit": false,
      "t": 56249.93999999997,
      "d": 3515.6212499999965,
      "v": 100
    },
    {
      "midi": 63,
      "hit": false,
      "t": 56249.93999999997,
      "d": 3515.6212499999965,
      "v": 102
    },
    {
      "midi": 44,
      "hit": false,
      "t": 59779.34799999997,
      "d": 1750.9172499999986,
      "v": 100
    },
    {
      "midi": 56,
      "hit": false,
      "t": 59779.34799999997,
      "d": 1750.9172499999986,
      "v": 102
    },
    {
      "midi": 58,
      "hit": false,
      "t": 59779.34799999997,
      "d": 1750.9172499999986,
      "v": 100
    },
    {
      "midi": 60,
      "hit": false,
      "t": 59779.34799999997,
      "d": 1750.9172499999986,
      "v": 102
    },
    {
      "midi": 63,
      "hit": false,
      "t": 59779.34799999997,
      "d": 1750.9172499999986,
      "v": 100
    },
    {
      "midi": 51,
      "hit": false,
      "t": 63308.755999999965,
      "d": 3515.6212499999965,
      "v": 102
    },
    {
      "midi": 58,
      "hit": false,
      "t": 63308.755999999965,
      "d": 3515.6212499999965,
      "v": 100
    },
    {
      "midi": 63,
      "hit": false,
      "t": 63308.755999999965,
      "d": 3515.6212499999965,
      "v": 102
    },
    {
      "midi": 67,
      "hit": false,
      "t": 63308.755999999965,
      "d": 3515.6212499999965,
      "v": 100
    },
    {
      "midi": 46,
      "hit": false,
      "t": 66838.16399999996,
      "d": 3515.6212499999965,
      "v": 100
    },
    {
      "midi": 58,
      "hit": false,
      "t": 66838.16399999996,
      "d": 3515.6212499999965,
      "v": 102
    },
    {
      "midi": 62,
      "hit": false,
      "t": 66838.16399999996,
      "d": 3515.6212499999965,
      "v": 102
    },
    {
      "midi": 65,
      "hit": false,
      "t": 66838.16399999996,
      "d": 3515.6212499999965,
      "v": 100
    },
    {
      "midi": 48,
      "hit": false,
      "t": 70367.57199999996,
      "d": 3515.6212499999965,
      "v": 100
    },
    {
      "midi": 55,
      "hit": false,
      "t": 70367.57199999996,
      "d": 3515.6212499999965,
      "v": 102
    },
    {
      "midi": 60,
      "hit": false,
      "t": 70367.57199999996,
      "d": 3515.6212499999965,
      "v": 100
    },
    {
      "midi": 63,
      "hit": false,
      "t": 70367.57199999996,
      "d": 3515.6212499999965,
      "v": 102
    },
    {
      "midi": 44,
      "hit": false,
      "t": 73896.97999999995,
      "d": 1750.9172499999986,
      "v": 100
    },
    {
      "midi": 56,
      "hit": false,
      "t": 73896.97999999995,
      "d": 1750.9172499999986,
      "v": 102
    },
    {
      "midi": 58,
      "hit": false,
      "t": 73896.97999999995,
      "d": 1750.9172499999986,
      "v": 100
    },
    {
      "midi": 60,
      "hit": false,
      "t": 73896.97999999995,
      "d": 1750.9172499999986,
      "v": 102
    },
    {
      "midi": 63,
      "hit": false,
      "t": 73896.97999999995,
      "d": 1750.9172499999986,
      "v": 100
    },
    {
      "midi": 51,
      "hit": false,
      "t": 77426.38799999995,
      "d": 3515.6212499999965,
      "v": 102
    },
    {
      "midi": 58,
      "hit": false,
      "t": 77426.38799999995,
      "d": 3515.6212499999965,
      "v": 100
    },
    {
      "midi": 63,
      "hit": false,
      "t": 77426.38799999995,
      "d": 3515.6212499999965,
      "v": 102
    },
    {
      "midi": 67,
      "hit": false,
      "t": 77426.38799999995,
      "d": 3515.6212499999965,
      "v": 100
    },
    {
      "midi": 46,
      "hit": false,
      "t": 80955.79599999994,
      "d": 3515.6212499999965,
      "v": 100
    },
    {
      "midi": 58,
      "hit": false,
      "t": 80955.79599999994,
      "d": 3515.6212499999965,
      "v": 102
    },
    {
      "midi": 62,
      "hit": false,
      "t": 80955.79599999994,
      "d": 3515.6212499999965,
      "v": 102
    },
    {
      "midi": 65,
      "hit": false,
      "t": 80955.79599999994,
      "d": 3515.6212499999965,
      "v": 100
    },
    {
      "midi": 48,
      "hit": false,
      "t": 84485.20399999994,
      "d": 3515.6212499999965,
      "v": 100
    },
    {
      "midi": 55,
      "hit": false,
      "t": 84485.20399999994,
      "d": 3515.6212499999965,
      "v": 102
    },
    {
      "midi": 60,
      "hit": false,
      "t": 84485.20399999994,
      "d": 3515.6212499999965,
      "v": 100
    },
    {
      "midi": 63,
      "hit": false,
      "t": 84485.20399999994,
      "d": 3515.6212499999965,
      "v": 102
    },
    {
      "midi": 44,
      "hit": false,
      "t": 88014.61199999994,
      "d": 1750.9172499999986,
      "v": 100
    },
    {
      "midi": 56,
      "hit": false,
      "t": 88014.61199999994,
      "d": 1750.9172499999986,
      "v": 102
    },
    {
      "midi": 58,
      "hit": false,
      "t": 88014.61199999994,
      "d": 1750.9172499999986,
      "v": 100
    },
    {
      "midi": 60,
      "hit": false,
      "t": 88014.61199999994,
      "d": 1750.9172499999986,
      "v": 102
    },
    {
      "midi": 63,
      "hit": false,
      "t": 88014.61199999994,
      "d": 1750.9172499999986,
      "v": 100
    },
    {
      "midi": 51,
      "hit": false,
      "t": 91544.01999999993,
      "d": 3515.6212499999965,
      "v": 102
    },
    {
      "midi": 58,
      "hit": false,
      "t": 91544.01999999993,
      "d": 3515.6212499999965,
      "v": 100
    },
    {
      "midi": 63,
      "hit": false,
      "t": 91544.01999999993,
      "d": 3515.6212499999965,
      "v": 102
    },
    {
      "midi": 67,
      "hit": false,
      "t": 91544.01999999993,
      "d": 3515.6212499999965,
      "v": 100
    },
    {
      "midi": 46,
      "hit": false,
      "t": 95073.42799999993,
      "d": 3515.6212499999965,
      "v": 100
    },
    {
      "midi": 58,
      "hit": false,
      "t": 95073.42799999993,
      "d": 3515.6212499999965,
      "v": 102
    },
    {
      "midi": 62,
      "hit": false,
      "t": 95073.42799999993,
      "d": 3515.6212499999965,
      "v": 102
    },
    {
      "midi": 65,
      "hit": false,
      "t": 95073.42799999993,
      "d": 3515.6212499999965,
      "v": 100
    },
    {
      "midi": 48,
      "hit": false,
      "t": 98602.83599999992,
      "d": 3515.6212499999965,
      "v": 100
    },
    {
      "midi": 55,
      "hit": false,
      "t": 98602.83599999992,
      "d": 3515.6212499999965,
      "v": 102
    },
    {
      "midi": 60,
      "hit": false,
      "t": 98602.83599999992,
      "d": 3515.6212499999965,
      "v": 100
    },
    {
      "midi": 63,
      "hit": false,
      "t": 98602.83599999992,
      "d": 3515.6212499999965,
      "v": 102
    },
    {
      "midi": 44,
      "hit": false,
      "t": 102132.24399999992,
      "d": 1750.9172499999986,
      "v": 100
    },
    {
      "midi": 56,
      "hit": false,
      "t": 102132.24399999992,
      "d": 1750.9172499999986,
      "v": 102
    },
    {
      "midi": 58,
      "hit": false,
      "t": 102132.24399999992,
      "d": 1750.9172499999986,
      "v": 100
    },
    {
      "midi": 60,
      "hit": false,
      "t": 102132.24399999992,
      "d": 1750.9172499999986,
      "v": 102
    },
    {
      "midi": 63,
      "hit": false,
      "t": 102132.24399999992,
      "d": 1750.9172499999986,
      "v": 100
    },
    {
      "midi": 51,
      "hit": false,
      "t": 105661.65199999991,
      "d": 3515.6212499999965,
      "v": 102
    },
    {
      "midi": 58,
      "hit": false,
      "t": 105661.65199999991,
      "d": 3515.6212499999965,
      "v": 100
    },
    {
      "midi": 63,
      "hit": false,
      "t": 105661.65199999991,
      "d": 3515.6212499999965,
      "v": 102
    },
    {
      "midi": 67,
      "hit": false,
      "t": 105661.65199999991,
      "d": 3515.6212499999965,
      "v": 100
    },
    {
      "midi": 46,
      "hit": false,
      "t": 109191.05999999991,
      "d": 3515.6212499999965,
      "v": 100
    },
    {
      "midi": 58,
      "hit": false,
      "t": 109191.05999999991,
      "d": 3515.6212499999965,
      "v": 102
    },
    {
      "midi": 62,
      "hit": false,
      "t": 109191.05999999991,
      "d": 3515.6212499999965,
      "v": 102
    },
    {
      "midi": 65,
      "hit": false,
      "t": 109191.05999999991,
      "d": 3515.6212499999965,
      "v": 100
    },
    {
      "midi": 48,
      "hit": false,
      "t": 112720.4679999999,
      "d": 3515.6212499999965,
      "v": 100
    },
    {
      "midi": 55,
      "hit": false,
      "t": 112720.4679999999,
      "d": 3515.6212499999965,
      "v": 102
    },
    {
      "midi": 60,
      "hit": false,
      "t": 112720.4679999999,
      "d": 3515.6212499999965,
      "v": 100
    },
    {
      "midi": 63,
      "hit": false,
      "t": 112720.4679999999,
      "d": 3515.6212499999965,
      "v": 102
    },
    {
      "midi": 44,
      "hit": false,
      "t": 116249.8759999999,
      "d": 1750.9172499999986,
      "v": 100
    },
    {
      "midi": 56,
      "hit": false,
      "t": 116249.8759999999,
      "d": 1750.9172499999986,
      "v": 102
    },
    {
      "midi": 58,
      "hit": false,
      "t": 116249.8759999999,
      "d": 1750.9172499999986,
      "v": 100
    },
    {
      "midi": 60,
      "hit": false,
      "t": 116249.8759999999,
      "d": 1750.9172499999986,
      "v": 102
    },
    {
      "midi": 63,
      "hit": false,
      "t": 116249.8759999999,
      "d": 1750.9172499999986,
      "v": 100
    },
    {
      "midi": 51,
      "hit": false,
      "t": 119779.2839999999,
      "d": 3515.6212499999965,
      "v": 102
    },
    {
      "midi": 58,
      "hit": false,
      "t": 119779.2839999999,
      "d": 3515.6212499999965,
      "v": 100
    },
    {
      "midi": 63,
      "hit": false,
      "t": 119779.2839999999,
      "d": 3515.6212499999965,
      "v": 102
    },
    {
      "midi": 67,
      "hit": false,
      "t": 119779.2839999999,
      "d": 3515.6212499999965,
      "v": 100
    },
    {
      "midi": 46,
      "hit": false,
      "t": 123308.6919999999,
      "d": 3515.6212499999965,
      "v": 100
    },
    {
      "midi": 58,
      "hit": false,
      "t": 123308.6919999999,
      "d": 3515.6212499999965,
      "v": 102
    },
    {
      "midi": 62,
      "hit": false,
      "t": 123308.6919999999,
      "d": 3515.6212499999965,
      "v": 102
    },
    {
      "midi": 65,
      "hit": false,
      "t": 123308.6919999999,
      "d": 3515.6212499999965,
      "v": 100
    },
    {
      "midi": 48,
      "hit": false,
      "t": 126838.09999999989,
      "d": 3515.6212499999965,
      "v": 100
    },
    {
      "midi": 55,
      "hit": false,
      "t": 126838.09999999989,
      "d": 3515.6212499999965,
      "v": 102
    },
    {
      "midi": 60,
      "hit": false,
      "t": 126838.09999999989,
      "d": 3515.6212499999965,
      "v": 100
    },
    {
      "midi": 63,
      "hit": false,
      "t": 126838.09999999989,
      "d": 3515.6212499999965,
      "v": 102
    },
    {
      "midi": 44,
      "hit": false,
      "t": 130367.50799999989,
      "d": 1750.9172499999986,
      "v": 100
    },
    {
      "midi": 56,
      "hit": false,
      "t": 130367.50799999989,
      "d": 1750.9172499999986,
      "v": 102
    },
    {
      "midi": 58,
      "hit": false,
      "t": 130367.50799999989,
      "d": 1750.9172499999986,
      "v": 100
    },
    {
      "midi": 60,
      "hit": false,
      "t": 130367.50799999989,
      "d": 1750.9172499999986,
      "v": 102
    },
    {
      "midi": 63,
      "hit": false,
      "t": 130367.50799999989,
      "d": 1750.9172499999986,
      "v": 100
    },
    {
      "midi": 51,
      "hit": false,
      "t": 133896.91599999988,
      "d": 3515.6212499999965,
      "v": 102
    },
    {
      "midi": 58,
      "hit": false,
      "t": 133896.91599999988,
      "d": 3515.6212499999965,
      "v": 100
    },
    {
      "midi": 63,
      "hit": false,
      "t": 133896.91599999988,
      "d": 3515.6212499999965,
      "v": 102
    },
    {
      "midi": 67,
      "hit": false,
      "t": 133896.91599999988,
      "d": 3515.6212499999965,
      "v": 100
    },
    {
      "midi": 46,
      "hit": false,
      "t": 137426.32399999988,
      "d": 3515.6212499999965,
      "v": 100
    },
    {
      "midi": 58,
      "hit": false,
      "t": 137426.32399999988,
      "d": 3515.6212499999965,
      "v": 102
    },
    {
      "midi": 62,
      "hit": false,
      "t": 137426.32399999988,
      "d": 3515.6212499999965,
      "v": 102
    },
    {
      "midi": 65,
      "hit": false,
      "t": 137426.32399999988,
      "d": 3515.6212499999965,
      "v": 100
    },
    {
      "midi": 48,
      "hit": false,
      "t": 140955.73199999987,
      "d": 3515.6212499999965,
      "v": 100
    },
    {
      "midi": 55,
      "hit": false,
      "t": 140955.73199999987,
      "d": 3515.6212499999965,
      "v": 102
    },
    {
      "midi": 60,
      "hit": false,
      "t": 140955.73199999987,
      "d": 3515.6212499999965,
      "v": 100
    },
    {
      "midi": 63,
      "hit": false,
      "t": 140955.73199999987,
      "d": 3515.6212499999965,
      "v": 102
    },
    {
      "midi": 44,
      "hit": false,
      "t": 144485.13999999987,
      "d": 1750.9172499999986,
      "v": 100
    },
    {
      "midi": 56,
      "hit": false,
      "t": 144485.13999999987,
      "d": 1750.9172499999986,
      "v": 102
    },
    {
      "midi": 58,
      "hit": false,
      "t": 144485.13999999987,
      "d": 1750.9172499999986,
      "v": 100
    },
    {
      "midi": 60,
      "hit": false,
      "t": 144485.13999999987,
      "d": 1750.9172499999986,
      "v": 102
    },
    {
      "midi": 63,
      "hit": false,
      "t": 144485.13999999987,
      "d": 1750.9172499999986,
      "v": 100
    },
    {
      "midi": 51,
      "hit": false,
      "t": 148014.54799999986,
      "d": 3515.6212499999965,
      "v": 102
    },
    {
      "midi": 58,
      "hit": false,
      "t": 148014.54799999986,
      "d": 3515.6212499999965,
      "v": 100
    },
    {
      "midi": 63,
      "hit": false,
      "t": 148014.54799999986,
      "d": 3515.6212499999965,
      "v": 102
    },
    {
      "midi": 67,
      "hit": false,
      "t": 148014.54799999986,
      "d": 3515.6212499999965,
      "v": 100
    },
    {
      "midi": 46,
      "hit": false,
      "t": 151543.95599999986,
      "d": 3515.6212499999965,
      "v": 100
    },
    {
      "midi": 58,
      "hit": false,
      "t": 151543.95599999986,
      "d": 3515.6212499999965,
      "v": 102
    },
    {
      "midi": 62,
      "hit": false,
      "t": 151543.95599999986,
      "d": 3515.6212499999965,
      "v": 102
    },
    {
      "midi": 65,
      "hit": false,
      "t": 151543.95599999986,
      "d": 3515.6212499999965,
      "v": 100
    },
    {
      "midi": 48,
      "hit": false,
      "t": 155073.36399999986,
      "d": 3515.6212499999965,
      "v": 100
    },
    {
      "midi": 55,
      "hit": false,
      "t": 155073.36399999986,
      "d": 3515.6212499999965,
      "v": 102
    },
    {
      "midi": 60,
      "hit": false,
      "t": 155073.36399999986,
      "d": 3515.6212499999965,
      "v": 100
    },
    {
      "midi": 63,
      "hit": false,
      "t": 155073.36399999986,
      "d": 3515.6212499999965,
      "v": 102
    },
    {
      "midi": 44,
      "hit": false,
      "t": 158602.77199999985,
      "d": 1750.9172499999986,
      "v": 100
    },
    {
      "midi": 56,
      "hit": false,
      "t": 158602.77199999985,
      "d": 1750.9172499999986,
      "v": 102
    },
    {
      "midi": 58,
      "hit": false,
      "t": 158602.77199999985,
      "d": 1750.9172499999986,
      "v": 100
    },
    {
      "midi": 60,
      "hit": false,
      "t": 158602.77199999985,
      "d": 1750.9172499999986,
      "v": 102
    },
    {
      "midi": 63,
      "hit": false,
      "t": 158602.77199999985,
      "d": 1750.9172499999986,
      "v": 100
    },
    {
      "midi": 51,
      "hit": false,
      "t": 162132.17999999985,
      "d": 3515.6212499999965,
      "v": 102
    },
    {
      "midi": 58,
      "hit": false,
      "t": 162132.17999999985,
      "d": 3515.6212499999965,
      "v": 100
    },
    {
      "midi": 63,
      "hit": false,
      "t": 162132.17999999985,
      "d": 3515.6212499999965,
      "v": 102
    },
    {
      "midi": 67,
      "hit": false,
      "t": 162132.17999999985,
      "d": 3515.6212499999965,
      "v": 100
    },
    {
      "midi": 46,
      "hit": false,
      "t": 165661.58799999984,
      "d": 3515.6212499999965,
      "v": 100
    },
    {
      "midi": 58,
      "hit": false,
      "t": 165661.58799999984,
      "d": 3515.6212499999965,
      "v": 102
    },
    {
      "midi": 62,
      "hit": false,
      "t": 165661.58799999984,
      "d": 3515.6212499999965,
      "v": 102
    },
    {
      "midi": 65,
      "hit": false,
      "t": 165661.58799999984,
      "d": 3515.6212499999965,
      "v": 100
    },
    {
      "midi": 48,
      "hit": false,
      "t": 169190.99599999984,
      "d": 3515.6212499999965,
      "v": 100
    },
    {
      "midi": 55,
      "hit": false,
      "t": 169190.99599999984,
      "d": 3515.6212499999965,
      "v": 102
    },
    {
      "midi": 60,
      "hit": false,
      "t": 169190.99599999984,
      "d": 3515.6212499999965,
      "v": 100
    },
    {
      "midi": 63,
      "hit": false,
      "t": 169190.99599999984,
      "d": 3515.6212499999965,
      "v": 102
    },
    {
      "midi": 44,
      "hit": false,
      "t": 172720.40399999983,
      "d": 1750.9172499999986,
      "v": 100
    },
    {
      "midi": 56,
      "hit": false,
      "t": 172720.40399999983,
      "d": 1750.9172499999986,
      "v": 102
    },
    {
      "midi": 58,
      "hit": false,
      "t": 172720.40399999983,
      "d": 1750.9172499999986,
      "v": 100
    },
    {
      "midi": 60,
      "hit": false,
      "t": 172720.40399999983,
      "d": 1750.9172499999986,
      "v": 102
    },
    {
      "midi": 63,
      "hit": false,
      "t": 172720.40399999983,
      "d": 1750.9172499999986,
      "v": 100
    },
    {
      "midi": 51,
      "hit": false,
      "t": 176249.81199999983,
      "d": 3515.6212499999965,
      "v": 102
    },
    {
      "midi": 58,
      "hit": false,
      "t": 176249.81199999983,
      "d": 3515.6212499999965,
      "v": 100
    },
    {
      "midi": 63,
      "hit": false,
      "t": 176249.81199999983,
      "d": 3515.6212499999965,
      "v": 102
    },
    {
      "midi": 67,
      "hit": false,
      "t": 176249.81199999983,
      "d": 3515.6212499999965,
      "v": 100
    },
    {
      "midi": 46,
      "hit": false,
      "t": 179779.21999999983,
      "d": 3515.6212499999965,
      "v": 100
    },
    {
      "midi": 58,
      "hit": false,
      "t": 179779.21999999983,
      "d": 3515.6212499999965,
      "v": 102
    },
    {
      "midi": 62,
      "hit": false,
      "t": 179779.21999999983,
      "d": 3515.6212499999965,
      "v": 102
    },
    {
      "midi": 65,
      "hit": false,
      "t": 179779.21999999983,
      "d": 3515.6212499999965,
      "v": 100
    },
    {
      "midi": 48,
      "hit": false,
      "t": 183308.62799999982,
      "d": 3515.6212499999965,
      "v": 100
    },
    {
      "midi": 55,
      "hit": false,
      "t": 183308.62799999982,
      "d": 3515.6212499999965,
      "v": 102
    },
    {
      "midi": 60,
      "hit": false,
      "t": 183308.62799999982,
      "d": 3515.6212499999965,
      "v": 100
    },
    {
      "midi": 63,
      "hit": false,
      "t": 183308.62799999982,
      "d": 3515.6212499999965,
      "v": 102
    },
    {
      "midi": 44,
      "hit": false,
      "t": 186838.03599999982,
      "d": 1750.9172499999986,
      "v": 100
    },
    {
      "midi": 56,
      "hit": false,
      "t": 186838.03599999982,
      "d": 1750.9172499999986,
      "v": 102
    },
    {
      "midi": 58,
      "hit": false,
      "t": 186838.03599999982,
      "d": 1750.9172499999986,
      "v": 100
    },
    {
      "midi": 60,
      "hit": false,
      "t": 186838.03599999982,
      "d": 1750.9172499999986,
      "v": 102
    },
    {
      "midi": 63,
      "hit": false,
      "t": 186838.03599999982,
      "d": 1750.9172499999986,
      "v": 100
    },
    {
      "midi": 51,
      "hit": false,
      "t": 190367.4439999998,
      "d": 3515.6212499999965,
      "v": 102
    },
    {
      "midi": 58,
      "hit": false,
      "t": 190367.4439999998,
      "d": 3515.6212499999965,
      "v": 100
    },
    {
      "midi": 63,
      "hit": false,
      "t": 190367.4439999998,
      "d": 3515.6212499999965,
      "v": 102
    },
    {
      "midi": 67,
      "hit": false,
      "t": 190367.4439999998,
      "d": 3515.6212499999965,
      "v": 100
    },
    {
      "midi": 46,
      "hit": false,
      "t": 193896.8519999998,
      "d": 3515.6212499999965,
      "v": 100
    },
    {
      "midi": 58,
      "hit": false,
      "t": 193896.8519999998,
      "d": 3515.6212499999965,
      "v": 102
    },
    {
      "midi": 62,
      "hit": false,
      "t": 193896.8519999998,
      "d": 3515.6212499999965,
      "v": 102
    },
    {
      "midi": 65,
      "hit": false,
      "t": 193896.8519999998,
      "d": 3515.6212499999965,
      "v": 100
    },
    {
      "midi": 48,
      "hit": false,
      "t": 197426.2599999998,
      "d": 3515.6212499999965,
      "v": 100
    },
    {
      "midi": 55,
      "hit": false,
      "t": 197426.2599999998,
      "d": 3515.6212499999965,
      "v": 102
    },
    {
      "midi": 60,
      "hit": false,
      "t": 197426.2599999998,
      "d": 3515.6212499999965,
      "v": 100
    },
    {
      "midi": 63,
      "hit": false,
      "t": 197426.2599999998,
      "d": 3515.6212499999965,
      "v": 102
    },
    {
      "midi": 44,
      "hit": false,
      "t": 200955.6679999998,
      "d": 1750.9172499999986,
      "v": 100
    },
    {
      "midi": 56,
      "hit": false,
      "t": 200955.6679999998,
      "d": 1750.9172499999986,
      "v": 102
    },
    {
      "midi": 58,
      "hit": false,
      "t": 200955.6679999998,
      "d": 1750.9172499999986,
      "v": 100
    },
    {
      "midi": 60,
      "hit": false,
      "t": 200955.6679999998,
      "d": 1750.9172499999986,
      "v": 102
    },
    {
      "midi": 63,
      "hit": false,
      "t": 200955.6679999998,
      "d": 1750.9172499999986,
      "v": 100
    },
    {
      "midi": 51,
      "hit": false,
      "t": 204485.0759999998,
      "d": 3515.6212499999965,
      "v": 102
    },
    {
      "midi": 58,
      "hit": false,
      "t": 204485.0759999998,
      "d": 3515.6212499999965,
      "v": 100
    },
    {
      "midi": 63,
      "hit": false,
      "t": 204485.0759999998,
      "d": 3515.6212499999965,
      "v": 102
    },
    {
      "midi": 67,
      "hit": false,
      "t": 204485.0759999998,
      "d": 3515.6212499999965,
      "v": 100
    },
    {
      "midi": 46,
      "hit": false,
      "t": 208014.4839999998,
      "d": 3515.6212499999965,
      "v": 100
    },
    {
      "midi": 58,
      "hit": false,
      "t": 208014.4839999998,
      "d": 3515.6212499999965,
      "v": 102
    },
    {
      "midi": 62,
      "hit": false,
      "t": 208014.4839999998,
      "d": 3515.6212499999965,
      "v": 102
    },
    {
      "midi": 65,
      "hit": false,
      "t": 208014.4839999998,
      "d": 3515.6212499999965,
      "v": 100
    },
    {
      "midi": 48,
      "hit": false,
      "t": 211543.8919999998,
      "d": 3515.6212499999965,
      "v": 100
    },
    {
      "midi": 55,
      "hit": false,
      "t": 211543.8919999998,
      "d": 3515.6212499999965,
      "v": 102
    },
    {
      "midi": 60,
      "hit": false,
      "t": 211543.8919999998,
      "d": 3515.6212499999965,
      "v": 100
    },
    {
      "midi": 63,
      "hit": false,
      "t": 211543.8919999998,
      "d": 3515.6212499999965,
      "v": 102
    },
    {
      "midi": 44,
      "hit": false,
      "t": 215073.29999999978,
      "d": 1750.9172499999986,
      "v": 100
    },
    {
      "midi": 56,
      "hit": false,
      "t": 215073.29999999978,
      "d": 1750.9172499999986,
      "v": 102
    },
    {
      "midi": 58,
      "hit": false,
      "t": 215073.29999999978,
      "d": 1750.9172499999986,
      "v": 100
    },
    {
      "midi": 60,
      "hit": false,
      "t": 215073.29999999978,
      "d": 1750.9172499999986,
      "v": 102
    },
    {
      "midi": 63,
      "hit": false,
      "t": 215073.29999999978,
      "d": 1750.9172499999986,
      "v": 100
    },
    {
      "midi": 51,
      "hit": false,
      "t": 218602.70799999978,
      "d": 3515.6212499999965,
      "v": 102
    },
    {
      "midi": 58,
      "hit": false,
      "t": 218602.70799999978,
      "d": 3515.6212499999965,
      "v": 100
    },
    {
      "midi": 63,
      "hit": false,
      "t": 218602.70799999978,
      "d": 3515.6212499999965,
      "v": 102
    },
    {
      "midi": 67,
      "hit": false,
      "t": 218602.70799999978,
      "d": 3515.6212499999965,
      "v": 100
    }
  ]
}