{
  "jsonPath": "Rock/Suomi Rock/Leevi and the leavings/kaukaisessa-satamassa.json",
  "path": "Rock\\Suomi Rock\\Leevi and the leavings\\Kaukaisessa satamassa.mid",
  "name": "Kaukaisessa satamassa",
  "difficulty": "Advanced",
  "bpm": 120,
  "notes": [
    {
      "midi": 64,
      "hit": false,
      "t": 3701.911354166667,
      "d": 201.92243749999943,
      "v": 82
    },
    {
      "midi": 60,
      "hit": false,
      "t": 3706.71903125,
      "d": 177.88405208333324,
      "v": 82
    },
    {
      "midi": 36,
      "hit": false,
      "t": 3706.71903125,
      "d": 233.17233854166625,
      "v": 82
    },
    {
      "midi": 55,
      "hit": false,
      "t": 3716.334385416667,
      "d": 182.6917291666664,
      "v": 74
    },
    {
      "midi": 36,
      "hit": false,
      "t": 4170.659869791666,
      "d": 213.94163020833366,
      "v": 82
    },
    {
      "midi": 64,
      "hit": false,
      "t": 4173.063708333333,
      "d": 197.1147604166672,
      "v": 82
    },
    {
      "midi": 55,
      "hit": false,
      "t": 4173.063708333333,
      "d": 201.92243750000034,
      "v": 82
    },
    {
      "midi": 60,
      "hit": false,
      "t": 4175.467546875,
      "d": 163.46102083333335,
      "v": 82
    },
    {
      "midi": 36,
      "hit": false,
      "t": 5548.059354166667,
      "d": 350.96042708333334,
      "v": 82
    },
    {
      "midi": 64,
      "hit": false,
      "t": 5853.346848958334,
      "d": 233.17233854166625,
      "v": 72
    },
    {
      "midi": 60,
      "hit": false,
      "t": 5858.154526041667,
      "d": 216.34546874999978,
      "v": 74
    },
    {
      "midi": 55,
      "hit": false,
      "t": 5858.154526041667,
      "d": 274.03759374999936,
      "v": 65
    },
    {
      "midi": 36,
      "hit": false,
      "t": 6012.000192708333,
      "d": 346.1527500000002,
      "v": 79
    },
    {
      "midi": 55,
      "hit": false,
      "t": 6314.883848958333,
      "d": 235.57617708333328,
      "v": 62
    },
    {
      "midi": 64,
      "hit": false,
      "t": 6314.883848958333,
      "d": 235.57617708333328,
      "v": 68
    },
    {
      "midi": 60,
      "hit": false,
      "t": 6319.691526041666,
      "d": 177.8840520833337,
      "v": 68
    },
    {
      "midi": 40,
      "hit": false,
      "t": 6475.94103125,
      "d": 343.74891145833317,
      "v": 77
    },
    {
      "midi": 64,
      "hit": false,
      "t": 6774.017010416666,
      "d": 235.57617708333328,
      "v": 66
    },
    {
      "midi": 55,
      "hit": false,
      "t": 6776.420848958333,
      "d": 209.1339531249996,
      "v": 63
    },
    {
      "midi": 60,
      "hit": false,
      "t": 6778.8246875,
      "d": 170.67253645833262,
      "v": 69
    },
    {
      "midi": 40,
      "hit": false,
      "t": 6939.881869791667,
      "d": 367.7872968749989,
      "v": 80
    },
    {
      "midi": 55,
      "hit": false,
      "t": 7237.957848958333,
      "d": 185.09556770833296,
      "v": 71
    },
    {
      "midi": 64,
      "hit": false,
      "t": 7237.957848958333,
      "d": 223.55698437499996,
      "v": 67
    },
    {
      "midi": 60,
      "hit": false,
      "t": 7242.765526041666,
      "d": 194.71092187500017,
      "v": 74
    },
    {
      "midi": 41,
      "hit": false,
      "t": 7389.399677083333,
      "d": 350.96042708333425,
      "v": 73
    },
    {
      "midi": 60,
      "hit": false,
      "t": 7706.706364583333,
      "d": 254.80688541666768,
      "v": 68
    },
    {
      "midi": 57,
      "hit": false,
      "t": 7709.110203125,
      "d": 286.0567864583336,
      "v": 73
    },
    {
      "midi": 65,
      "hit": false,
      "t": 7709.110203125,
      "d": 286.0567864583336,
      "v": 71
    },
    {
      "midi": 41,
      "hit": false,
      "t": 7858.148192708334,
      "d": 454.325484375001,
      "v": 62
    },
    {
      "midi": 65,
      "hit": false,
      "t": 8163.4356875,
      "d": 276.4414322916664,
      "v": 71
    },
    {
      "midi": 57,
      "hit": false,
      "t": 8165.839526041667,
      "d": 230.76850000000013,
      "v": 73
    },
    {
      "midi": 60,
      "hit": false,
      "t": 8168.243364583334,
      "d": 185.09556770833387,
      "v": 74
    },
    {
      "midi": 43,
      "hit": false,
      "t": 8319.685192708335,
      "d": 372.59497395833205,
      "v": 71
    },
    {
      "midi": 59,
      "hit": false,
      "t": 8627.376526041668,
      "d": 271.63375520833324,
      "v": 69
    },
    {
      "midi": 62,
      "hit": false,
      "t": 8629.780364583334,
      "d": 254.80688541666677,
      "v": 76
    },
    {
      "midi": 55,
      "hit": false,
      "t": 8632.184203125,
      "d": 283.6529479166675,
      "v": 70
    },
    {
      "midi": 43,
      "hit": false,
      "t": 8781.222192708334,
      "d": 408.65255208333474,
      "v": 78
    },
    {
      "midi": 59,
      "hit": false,
      "t": 9084.105848958334,
      "d": 185.09556770833478,
      "v": 66
    },
    {
      "midi": 55,
      "hit": false,
      "t": 9088.913526041668,
      "d": 194.71092187500108,
      "v": 65
    },
    {
      "midi": 62,
      "hit": false,
      "t": 9088.913526041668,
      "d": 194.71092187500108,
      "v": 77
    },
    {
      "midi": 36,
      "hit": false,
      "t": 9240.355354166668,
      "d": 317.3066875000004,
      "v": 82
    },
    {
      "midi": 64,
      "hit": false,
      "t": 9548.046687500002,
      "d": 295.6721406249999,
      "v": 66
    },
    {
      "midi": 55,
      "hit": false,
      "t": 9550.450526041668,
      "d": 264.42223958333307,
      "v": 62
    },
    {
      "midi": 60,
      "hit": false,
      "t": 9550.450526041668,
      "d": 264.42223958333307,
      "v": 74
    },
    {
      "midi": 36,
      "hit": false,
      "t": 9709.103869791668,
      "d": 372.59497395833387,
      "v": 82
    },
    {
      "midi": 60,
      "hit": false,
      "t": 10007.179848958334,
      "d": 295.6721406250017,
      "v": 72
    },
    {
      "midi": 55,
      "hit": false,
      "t": 10011.987526041668,
      "d": 269.2299166666671,
      "v": 65
    },
    {
      "midi": 64,
      "hit": false,
      "t": 10011.987526041668,
      "d": 269.2299166666671,
      "v": 71
    },
    {
      "midi": 40,
      "hit": false,
      "t": 10165.833192708336,
      "d": 350.9604270833315,
      "v": 77
    },
    {
      "midi": 60,
      "hit": false,
      "t": 10468.716848958336,
      "d": 262.01840104166513,
      "v": 70
    },
    {
      "midi": 64,
      "hit": false,
      "t": 10471.120687500003,
      "d": 259.614562499999,
      "v": 73
    },
    {
      "midi": 55,
      "hit": false,
      "t": 10473.524526041669,
      "d": 254.80688541666677,
      "v": 59
    },
    {
      "midi": 40,
      "hit": false,
      "t": 10627.370192708335,
      "d": 360.57578124999964,
      "v": 73
    },
    {
      "midi": 60,
      "hit": false,
      "t": 10930.253848958335,
      "d": 223.55698437499814,
      "v": 70
    },
    {
      "midi": 64,
      "hit": false,
      "t": 10932.657687500001,
      "d": 194.71092187499926,
      "v": 74
    },
    {
      "midi": 55,
      "hit": false,
      "t": 10935.061526041667,
      "d": 192.30708333333314,
      "v": 65
    },
    {
      "midi": 41,
      "hit": false,
      "t": 11084.099515625001,
      "d": 353.36426562499946,
      "v": 75
    },
    {
      "midi": 60,
      "hit": false,
      "t": 11391.790848958333,
      "d": 262.01840104166695,
      "v": 62
    },
    {
      "midi": 57,
      "hit": false,
      "t": 11396.598526041667,
      "d": 257.2107239583329,
      "v": 69
    },
    {
      "midi": 65,
      "hit": false,
      "t": 11396.598526041667,
      "d": 290.8644635416658,
      "v": 71
    },
    {
      "midi": 41,
      "hit": false,
      "t": 11557.655708333334,
      "d": 415.8640677083331,
      "v": 61
    },
    {
      "midi": 60,
      "hit": false,
      "t": 11853.327848958334,
      "d": 185.09556770833296,
      "v": 68
    },
    {
      "midi": 65,
      "hit": false,
      "t": 11853.327848958334,
      "d": 194.71092187499926,
      "v": 73
    },
    {
      "midi": 57,
      "hit": false,
      "t": 11858.135526041668,
      "d": 189.9032447916652,
      "v": 69
    },
    {
      "midi": 43,
      "hit": false,
      "t": 12011.981192708334,
      "d": 372.59497395833387,
      "v": 74
    },
    {
      "midi": 62,
      "hit": false,
      "t": 12319.672526041666,
      "d": 199.51859895833513,
      "v": 62
    },
    {
      "midi": 59,
      "hit": false,
      "t": 12319.672526041666,
      "d": 233.17233854166807,
      "v": 57
    },
    {
      "midi": 55,
      "hit": false,
      "t": 12324.480203125,
      "d": 213.94163020833366,
      "v": 68
    },
    {
      "midi": 43,
      "hit": false,
      "t": 12478.325869791668,
      "d": 310.09517187500023,
      "v": 73
    },
    {
      "midi": 59,
      "hit": false,
      "t": 12781.209526041668,
      "d": 144.23031249999985,
      "v": 67
    },
    {
      "midi": 62,
      "hit": false,
      "t": 12781.209526041668,
      "d": 149.0379895833339,
      "v": 73
    },
    {
      "midi": 55,
      "hit": false,
      "t": 12786.017203125002,
      "d": 161.05718229166632,
      "v": 69
    },
    {
      "midi": 36,
      "hit": false,
      "t": 12937.459031250002,
      "d": 310.09517187500023,
      "v": 82
    },
    {
      "midi": 64,
      "hit": false,
      "t": 13240.342687500002,
      "d": 235.5761770833342,
      "v": 60
    },
    {
      "midi": 60,
      "hit": false,
      "t": 13242.746526041668,
      "d": 204.32627604166737,
      "v": 71
    },
    {
      "midi": 55,
      "hit": false,
      "t": 13242.746526041668,
      "d": 216.3454687500016,
      "v": 66
    },
    {
      "midi": 36,
      "hit": false,
      "t": 13401.399869791669,
      "d": 278.84527083333523,
      "v": 82
    },
    {
      "midi": 60,
      "hit": false,
      "t": 13699.475848958336,
      "d": 197.1147604166672,
      "v": 64
    },
    {
      "midi": 55,
      "hit": false,
      "t": 13704.28352604167,
      "d": 177.8840520833328,
      "v": 62
    },
    {
      "midi": 64,
      "hit": false,
      "t": 13704.28352604167,
      "d": 192.30708333333314,
      "v": 71
    },
    {
      "midi": 40,
      "hit": false,
      "t": 13858.129192708337,
      "d": 341.34507291666705,
      "v": 81
    },
    {
      "midi": 60,
      "hit": false,
      "t": 14161.012848958337,
      "d": 197.1147604166672,
      "v": 67
    },
    {
      "midi": 55,
      "hit": false,
      "t": 14165.82052604167,
      "d": 187.49940624999908,
      "v": 58
    },
    {
      "midi": 64,
      "hit": false,
      "t": 14165.82052604167,
      "d": 204.32627604166737,
      "v": 68
    },
    {
      "midi": 40,
      "hit": false,
      "t": 14319.666192708337,
      "d": 314.9028489583361,
      "v": 79
    },
    {
      "midi": 60,
      "hit": false,
      "t": 14622.549848958339,
      "d": 199.51859895833513,
      "v": 70
    },
    {
      "midi": 55,
      "hit": false,
      "t": 14627.357526041673,
      "d": 158.6533437500002,
      "v": 66
    },
    {
      "midi": 64,
      "hit": false,
      "t": 14627.357526041673,
      "d": 189.90324479166702,
      "v": 71
    },
    {
      "midi": 41,
      "hit": false,
      "t": 14776.395515625007,
      "d": 362.9796197916676,
      "v": 75
    },
    {
      "midi": 60,
      "hit": false,
      "t": 15088.894526041673,
      "d": 257.2107239583347,
      "v": 74
    },
    {
      "midi": 65,
      "hit": false,
      "t": 15088.894526041673,
      "d": 257.2107239583347,
      "v": 77
    },
    {
      "midi": 57,
      "hit": false,
      "t": 15093.702203125007,
      "d": 223.55698437499996,
      "v": 71
    },
    {
      "midi": 41,
      "hit": false,
      "t": 15242.740192708341,
      "d": 423.07558333333327,
      "v": 64
    },
    {
      "midi": 65,
      "hit": false,
      "t": 15545.623848958341,
      "d": 161.05718229166632,
      "v": 68
    },
    {
      "midi": 60,
      "hit": false,
      "t": 15545.623848958341,
      "d": 197.1147604166672,
      "v": 66
    },
    {
      "midi": 57,
      "hit": false,
      "t": 15550.431526041675,
      "d": 177.8840520833328,
      "v": 71
    },
    {
      "midi": 43,
      "hit": false,
      "t": 15704.277192708341,
      "d": 334.1335572916687,
      "v": 72
    },
    {
      "midi": 62,
      "hit": false,
      "t": 16011.968526041675,
      "d": 199.51859895833513,
      "v": 70
    },
    {
      "midi": 59,
      "hit": false,
      "t": 16011.968526041675,
      "d": 218.74930729166772,
      "v": 71
    },
    {
      "midi": 55,
      "hit": false,
      "t": 16016.77620312501,
      "d": 189.90324479166702,
      "v": 73
    },
    {
      "midi": 43,
      "hit": false,
      "t": 16173.025708333344,
      "d": 365.3834583333319,
      "v": 80
    },
    {
      "midi": 59,
      "hit": false,
      "t": 16468.69784895834,
      "d": 149.0379895833321,
      "v": 66
    },
    {
      "midi": 62,
      "hit": false,
      "t": 16473.505526041674,
      "d": 158.6533437500002,
      "v": 71
    },
    {
      "midi": 55,
      "hit": false,
      "t": 16473.505526041674,
      "d": 161.05718229166814,
      "v": 62
    },
    {
      "midi": 36,
      "hit": false,
      "t": 16624.947354166674,
      "d": 343.74891145833317,
      "v": 80
    },
    {
      "midi": 64,
      "hit": false,
      "t": 16935.042526041674,
      "d": 223.55698437500178,
      "v": 73
    },
    {
      "midi": 60,
      "hit": false,
      "t": 16935.042526041674,
      "d": 225.9608229166697,
      "v": 70
    },
    {
      "midi": 55,
      "hit": false,
      "t": 16939.850203125006,
      "d": 194.71092187500108,
      "v": 61
    },
    {
      "midi": 36,
      "hit": false,
      "t": 17093.695869791674,
      "d": 278.84527083333523,
      "v": 82
    },
    {
      "midi": 64,
      "hit": false,
      "t": 17396.579526041678,
      "d": 180.28789062500073,
      "v": 68
    },
    {
      "midi": 60,
      "hit": false,
      "t": 17396.579526041678,
      "d": 187.4994062500009,
      "v": 65
    },
    {
      "midi": 55,
      "hit": false,
      "t": 17401.38720312501,
      "d": 153.84566666666797,
      "v": 55
    },
    {
      "midi": 40,
      "hit": false,
      "t": 17552.82903125001,
      "d": 329.3258802083401,
      "v": 80
    },
    {
      "midi": 60,
      "hit": false,
      "t": 17855.712687500014,
      "d": 187.49940625000454,
      "v": 67
    },
    {
      "midi": 64,
      "hit": false,
      "t": 17858.116526041682,
      "d": 189.90324479166884,
      "v": 70
    },
    {
      "midi": 55,
      "hit": false,
      "t": 17860.52036458335,
      "d": 158.6533437500002,
      "v": 66
    },
    {
      "midi": 40,
      "hit": false,
      "t": 18011.96219270835,
      "d": 312.49901041666453,
      "v": 82
    },
    {
      "midi": 60,
      "hit": false,
      "t": 18314.84584895835,
      "d": 185.09556770833296,
      "v": 70
    },
    {
      "midi": 55,
      "hit": false,
      "t": 18319.653526041682,
      "d": 161.05718229166814,
      "v": 66
    },
    {
      "midi": 64,
      "hit": false,
      "t": 18319.653526041682,
      "d": 180.28789062500073,
      "v": 74
    },
    {
      "midi": 41,
      "hit": false,
      "t": 18478.306869791682,
      "d": 348.5565885416654,
      "v": 74
    },
    {
      "midi": 60,
      "hit": false,
      "t": 18776.38284895835,
      "d": 276.44143229166366,
      "v": 79
    },
    {
      "midi": 65,
      "hit": false,
      "t": 18781.190526041682,
      "d": 235.57617708333055,
      "v": 77
    },
    {
      "midi": 57,
      "hit": false,
      "t": 18781.190526041682,
      "d": 257.2107239583311,
      "v": 76
    },
    {
      "midi": 41,
      "hit": false,
      "t": 18935.036192708347,
      "d": 449.51780729166785,
      "v": 74
    },
    {
      "midi": 60,
      "hit": false,
      "t": 19237.919848958347,
      "d": 185.09556770833296,
      "v": 71
    },
    {
      "midi": 65,
      "hit": false,
      "t": 19242.72752604168,
      "d": 139.42263541666762,
      "v": 72
    },
    {
      "midi": 57,
      "hit": false,
      "t": 19242.72752604168,
      "d": 180.28789062500073,
      "v": 70
    },
    {
      "midi": 43,
      "hit": false,
      "t": 19396.573192708347,
      "d": 353.36426562499764,
      "v": 78
    },
    {
      "midi": 62,
      "hit": false,
      "t": 19704.26452604168,
      "d": 187.49940624999726,
      "v": 75
    },
    {
      "midi": 59,
      "hit": false,
      "t": 19704.26452604168,
      "d": 216.34546874999796,
      "v": 69
    },
    {
      "midi": 55,
      "hit": false,
      "t": 19709.07220312501,
      "d": 199.5185989583333,
      "v": 68
    },
    {
      "midi": 43,
      "hit": false,
      "t": 19858.110192708344,
      "d": 367.787296874998,
      "v": 77
    },
    {
      "midi": 59,
      "hit": false,
      "t": 20165.801526041676,
      "d": 129.8072812499995,
      "v": 70
    },
    {
      "midi": 62,
      "hit": false,
      "t": 20165.801526041676,
      "d": 146.6341510416678,
      "v": 77
    },
    {
      "midi": 55,
      "hit": false,
      "t": 20170.60920312501,
      "d": 146.6341510416678,
      "v": 66
    },
    {
      "midi": 36,
      "hit": false,
      "t": 20322.05103125001,
      "d": 331.72971875000076,
      "v": 82
    },
    {
      "midi": 64,
      "hit": false,
      "t": 20627.338526041676,
      "d": 204.32627604166555,
      "v": 73
    },
    {
      "midi": 60,
      "hit": false,
      "t": 20627.338526041676,
      "d": 209.1339531249978,
      "v": 71
    },
    {
      "midi": 55,
      "hit": false,
      "t": 20632.14620312501,
      "d": 175.48021354166485,
      "v": 65
    },
    {
      "midi": 36,
      "hit": false,
      "t": 20781.18419270834,
      "d": 314.9028489583361,
      "v": 82
    },
    {
      "midi": 64,
      "hit": false,
      "t": 21088.875526041673,
      "d": 180.28789062500437,
      "v": 71
    },
    {
      "midi": 60,
      "hit": false,
      "t": 21091.27936458334,
      "d": 177.88405208333643,
      "v": 70
    },
    {
      "midi": 55,
      "hit": false,
      "t": 21093.68320312501,
      "d": 175.4802135416685,
      "v": 63
    },
    {
      "midi": 40,
      "hit": false,
      "t": 21242.721192708344,
      "d": 329.32588020833646,
      "v": 80
    },
    {
      "midi": 60,
      "hit": false,
      "t": 21545.604848958345,
      "d": 197.11476041667265,
      "v": 70
    },
    {
      "midi": 64,
      "hit": false,
      "t": 21545.604848958345,
      "d": 213.94163020834094,
      "v": 71
    },
    {
      "midi": 55,
      "hit": false,
      "t": 21548.008687500012,
      "d": 180.28789062500437,
      "v": 60
    },
    {
      "midi": 40,
      "hit": false,
      "t": 21704.25819270835,
      "d": 310.09517187500387,
      "v": 78
    },
    {
      "midi": 64,
      "hit": false,
      "t": 22007.141848958352,
      "d": 185.09556770833296,
      "v": 72
    },
    {
      "midi": 55,
      "hit": false,
      "t": 22011.949526041684,
      "d": 141.82647395833555,
      "v": 64
    },
    {
      "midi": 60,
      "hit": false,
      "t": 22011.949526041684,
      "d": 153.84566666666797,
      "v": 73
    },
    {
      "midi": 41,
      "hit": false,
      "t": 22160.98751562502,
      "d": 338.9412343749973,
      "v": 69
    },
    {
      "midi": 57,
      "hit": false,
      "t": 22473.486526041685,
      "d": 233.17233854166625,
      "v": 72
    },
    {
      "midi": 60,
      "hit": false,
      "t": 22473.486526041685,
      "d": 257.2107239583347,
      "v": 76
    },
    {
      "midi": 65,
      "hit": false,
      "t": 22478.294203125017,
      "d": 225.96082291666607,
      "v": 73
    },
    {
      "midi": 41,
      "hit": false,
      "t": 22627.33219270835,
      "d": 423.0755833333387,
      "v": 76
    },
    {
      "midi": 60,
      "hit": false,
      "t": 22935.023526041685,
      "d": 173.0763750000042,
      "v": 79
    },
    {
      "midi": 65,
      "hit": false,
      "t": 22937.427364583353,
      "d": 168.26869791666832,
      "v": 76
    },
    {
      "midi": 57,
      "hit": false,
      "t": 22939.83120312502,
      "d": 173.07637500000055,
      "v": 75
    },
    {
      "midi": 43,
      "hit": false,
      "t": 23088.869192708353,
      "d": 334.13355729166506,
      "v": 72
    },
    {
      "midi": 59,
      "hit": false,
      "t": 23391.752848958353,
      "d": 247.59536979166296,
      "v": 75
    },
    {
      "midi": 62,
      "hit": false,
      "t": 23396.560526041685,
      "d": 199.51859895832968,
      "v": 77
    },
    {
      "midi": 55,
      "hit": false,
      "t": 23396.560526041685,
      "d": 223.55698437499814,
      "v": 71
    },
    {
      "midi": 43,
      "hit": false,
      "t": 23550.40619270835,
      "d": 334.13355729166506,
      "v": 79
    },
    {
      "midi": 59,
      "hit": false,
      "t": 23858.09752604168,
      "d": 146.6341510416678,
      "v": 66
    },
    {
      "midi": 62,
      "hit": false,
      "t": 23858.09752604168,
      "d": 180.28789062500073,
      "v": 73
    },
    {
      "midi": 55,
      "hit": false,
      "t": 23862.905203125014,
      "d": 170.67253645833625,
      "v": 66
    },
    {
      "midi": 36,
      "hit": false,
      "t": 24007.135515625017,
      "d": 353.36426562499764,
      "v": 82
    },
    {
      "midi": 64,
      "hit": false,
      "t": 24319.634526041682,
      "d": 199.5185989583333,
      "v": 75
    },
    {
      "midi": 60,
      "hit": false,
      "t": 24319.634526041682,
      "d": 204.32627604166555,
      "v": 69
    },
    {
      "midi": 55,
      "hit": false,
      "t": 24324.442203125014,
      "d": 192.30708333333314,
      "v": 67
    },
    {
      "midi": 36,
      "hit": false,
      "t": 24475.884031250014,
      "d": 293.26830208333195,
      "v": 82
    },
    {
      "midi": 60,
      "hit": false,
      "t": 24776.363848958346,
      "d": 201.92243750000125,
      "v": 68
    },
    {
      "midi": 64,
      "hit": false,
      "t": 24778.767687500014,
      "d": 175.4802135416685,
      "v": 74
    },
    {
      "midi": 55,
      "hit": false,
      "t": 24781.171526041682,
      "d": 192.30708333333314,
      "v": 63
    },
    {
      "midi": 40,
      "hit": false,
      "t": 24932.613354166682,
      "d": 314.9028489583361,
      "v": 79
    },
    {
      "midi": 60,
      "hit": false,
      "t": 25242.708526041682,
      "d": 206.73011458333713,
      "v": 65
    },
    {
      "midi": 64,
      "hit": false,
      "t": 25245.11236458335,
      "d": 185.0955677083366,
      "v": 73
    },
    {
      "midi": 55,
      "hit": false,
      "t": 25249.920041666686,
      "d": 180.28789062500073,
      "v": 61
    },
    {
      "midi": 40,
      "hit": false,
      "t": 25396.554192708354,
      "d": 295.6721406249999,
      "v": 78
    },
    {
      "midi": 60,
      "hit": false,
      "t": 25697.034010416686,
      "d": 192.30708333333678,
      "v": 68
    },
    {
      "midi": 64,
      "hit": false,
      "t": 25699.437848958354,
      "d": 185.0955677083366,
      "v": 76
    },
    {
      "midi": 55,
      "hit": false,
      "t": 25701.841687500022,
      "d": 158.6533437500002,
      "v": 69
    },
    {
      "midi": 41,
      "hit": false,
      "t": 25858.091192708354,
      "d": 360.5757812500051,
      "v": 73
    },
    {
      "midi": 60,
      "hit": false,
      "t": 26165.78252604169,
      "d": 223.55698437500178,
      "v": 69
    },
    {
      "midi": 65,
      "hit": false,
      "t": 26168.18636458336,
      "d": 221.15314583333384,
      "v": 76
    },
    {
      "midi": 57,
      "hit": false,
      "t": 26170.590203125026,
      "d": 194.71092187499744,
      "v": 71
    },
    {
      "midi": 41,
      "hit": false,
      "t": 26319.62819270836,
      "d": 435.09477604166386,
      "v": 69
    },
    {
      "midi": 60,
      "hit": false,
      "t": 26622.51184895836,
      "d": 165.86485937499674,
      "v": 68
    },
    {
      "midi": 57,
      "hit": false,
      "t": 26627.31952604169,
      "d": 158.65334374999657,
      "v": 72
    },
    {
      "midi": 65,
      "hit": false,
      "t": 26627.31952604169,
      "d": 161.0571822916645,
      "v": 75
    },
    {
      "midi": 43,
      "hit": false,
      "t": 26781.165192708355,
      "d": 319.7105260416647,
      "v": 72
    },
    {
      "midi": 62,
      "hit": false,
      "t": 27088.856526041687,
      "d": 187.49940624999726,
      "v": 79
    },
    {
      "midi": 59,
      "hit": false,
      "t": 27088.856526041687,
      "d": 206.73011458332985,
      "v": 71
    },
    {
      "midi": 55,
      "hit": false,
      "t": 27093.66420312502,
      "d": 221.1531458333302,
      "v": 71
    },
    {
      "midi": 43,
      "hit": false,
      "t": 27242.70219270835,
      "d": 399.037197916663,
      "v": 78
    },
    {
      "midi": 59,
      "hit": false,
      "t": 27550.393526041684,
      "d": 139.42263541666398,
      "v": 71
    },
    {
      "midi": 62,
      "hit": false,
      "t": 27550.393526041684,
      "d": 165.86485937499674,
      "v": 75
    },
    {
      "midi": 55,
      "hit": false,
      "t": 27555.201203125016,
      "d": 185.09556770833296,
      "v": 64
    },
    {
      "midi": 36,
      "hit": false,
      "t": 27704.239192708348,
      "d": 353.3642656250013,
      "v": 82
    },
    {
      "midi": 64,
      "hit": false,
      "t": 28011.930526041684,
      "d": 180.2878906249971,
      "v": 72
    },
    {
      "midi": 60,
      "hit": false,
      "t": 28011.930526041684,
      "d": 216.34546874999432,
      "v": 74
    },
    {
      "midi": 55,
      "hit": false,
      "t": 28016.738203125016,
      "d": 180.2878906249971,
      "v": 60
    },
    {
      "midi": 36,
      "hit": false,
      "t": 28165.77619270835,
      "d": 295.67214062499625,
      "v": 82
    },
    {
      "midi": 60,
      "hit": false,
      "t": 28471.063687500013,
      "d": 182.69172916666867,
      "v": 66
    },
    {
      "midi": 64,
      "hit": false,
      "t": 28473.46752604168,
      "d": 180.28789062500073,
      "v": 72
    },
    {
      "midi": 55,
      "hit": false,
      "t": 28475.87136458335,
      "d": 177.8840520833328,
      "v": 60
    },
    {
      "midi": 40,
      "hit": false,
      "t": 28627.31319270835,
      "d": 324.51820312499694,
      "v": 77
    },
    {
      "midi": 64,
      "hit": false,
      "t": 28939.812203125013,
      "d": 180.2878906249971,
      "v": 69
    },
    {
      "midi": 60,
      "hit": false,
      "t": 28939.812203125013,
      "d": 211.5377916666621,
      "v": 61
    },
    {
      "midi": 55,
      "hit": false,
      "t": 28944.619880208345,
      "d": 170.67253645833262,
      "v": 61
    },
    {
      "midi": 40,
      "hit": false,
      "t": 29088.850192708345,
      "d": 322.114364583329,
      "v": 76
    },
    {
      "midi": 64,
      "hit": false,
      "t": 29396.541526041674,
      "d": 161.05718229166814,
      "v": 70
    },
    {
      "midi": 60,
      "hit": false,
      "t": 29396.541526041674,
      "d": 180.28789062500073,
      "v": 68
    },
    {
      "midi": 55,
      "hit": false,
      "t": 29401.349203125006,
      "d": 134.61495833333538,
      "v": 59
    },
    {
      "midi": 41,
      "hit": false,
      "t": 29552.79103125001,
      "d": 331.7297187499971,
      "v": 74
    },
    {
      "midi": 57,
      "hit": false,
      "t": 29858.078526041674,
      "d": 218.7493072916659,
      "v": 73
    },
    {
      "midi": 60,
      "hit": false,
      "t": 29858.078526041674,
      "d": 235.5761770833342,
      "v": 76
    },
    {
      "midi": 65,
      "hit": false,
      "t": 29862.886203125006,
      "d": 213.94163020833366,
      "v": 72
    },
    {
      "midi": 41,
      "hit": false,
      "t": 30011.92419270834,
      "d": 423.0755833333351,
      "v": 72
    },
    {
      "midi": 65,
      "hit": false,
      "t": 30314.807848958342,
      "d": 146.63415104166415,
      "v": 76
    },
    {
      "midi": 60,
      "hit": false,
      "t": 30314.807848958342,
      "d": 165.86485937499674,
      "v": 77
    },
    {
      "midi": 57,
      "hit": false,
      "t": 30319.615526041674,
      "d": 161.0571822916645,
      "v": 73
    },
    {
      "midi": 43,
      "hit": false,
      "t": 30473.46119270834,
      "d": 353.36426562499764,
      "v": 74
    },
    {
      "midi": 59,
      "hit": false,
      "t": 30781.15252604167,
      "d": 218.7493072916659,
      "v": 71
    },
    {
      "midi": 55,
      "hit": false,
      "t": 30781.15252604167,
      "d": 242.78769270833436,
      "v": 69
    },
    {
      "midi": 62,
      "hit": false,
      "t": 30785.960203125003,
      "d": 213.94163020833366,
      "v": 77
    },
    {
      "midi": 43,
      "hit": false,
      "t": 30934.998192708335,
      "d": 293.2683020833356,
      "v": 78
    },
    {
      "midi": 62,
      "hit": false,
      "t": 31245.09336458334,
      "d": 156.2495052083359,
      "v": 77
    },
    {
      "midi": 59,
      "hit": false,
      "t": 31247.497203125007,
      "d": 124.99960416666727,
      "v": 70
    },
    {
      "midi": 55,
      "hit": false,
      "t": 31249.901041666675,
      "d": 151.44182812500003,
      "v": 68
    },
    {
      "midi": 64,
      "hit": false,
      "t": 31699.418848958343,
      "d": 211.53779166666573,
      "v": 78
    },
    {
      "midi": 55,
      "hit": false,
      "t": 31704.226526041675,
      "d": 187.4994062500009,
      "v": 68
    },
    {
      "midi": 60,
      "hit": false,
      "t": 31704.226526041675,
      "d": 211.53779166666573,
      "v": 76
    },
    {
      "midi": 38,
      "hit": false,
      "t": 31858.072192708343,
      "d": 399.0371979166666,
      "v": 79
    },
    {
      "midi": 64,
      "hit": false,
      "t": 32163.359687500008,
      "d": 221.15314583333748,
      "v": 67
    },
    {
      "midi": 60,
      "hit": false,
      "t": 32165.763526041676,
      "d": 180.28789062500073,
      "v": 69
    },
    {
      "midi": 55,
      "hit": false,
      "t": 32165.763526041676,
      "d": 189.90324479166884,
      "v": 58
    },
    {
      "midi": 39,
      "hit": false,
      "t": 32319.609192708343,
      "d": 447.11396875000355,
      "v": 64
    },
    {
      "midi": 64,
      "hit": false,
      "t": 32624.89668750001,
      "d": 235.5761770833342,
      "v": 78
    },
    {
      "midi": 60,
      "hit": false,
      "t": 32627.30052604168,
      "d": 216.3454687500016,
      "v": 77
    },
    {
      "midi": 55,
      "hit": false,
      "t": 32629.704364583347,
      "d": 221.15314583333384,
      "v": 66
    },
    {
      "midi": 40,
      "hit": false,
      "t": 32783.550031250015,
      "d": 341.34507291666523,
      "v": 70
    },
    {
      "midi": 60,
      "hit": false,
      "t": 33084.029848958344,
      "d": 88.94202604167367,
      "v": 76
    },
    {
      "midi": 64,
      "hit": false,
      "t": 33084.029848958344,
      "d": 124.99960416667454,
      "v": 78
    },
    {
      "midi": 55,
      "hit": false,
      "t": 33088.83752604168,
      "d": 120.19192708333867,
      "v": 67
    },
    {
      "midi": 36,
      "hit": false,
      "t": 33247.49086979168,
      "d": 310.09517187500023,
      "v": 73
    },
    {
      "midi": 60,
      "hit": false,
      "t": 33545.56684895835,
      "d": 192.30708333333314,
      "v": 70
    },
    {
      "midi": 55,
      "hit": false,
      "t": 33545.56684895835,
      "d": 223.55698437499814,
      "v": 58
    },
    {
      "midi": 58,
      "hit": false,
      "t": 33550.37452604168,
      "d": 165.86485937499674,
      "v": 64
    },
    {
      "midi": 64,
      "hit": false,
      "t": 33550.37452604168,
      "d": 218.74930729166226,
      "v": 62
    },
    {
      "midi": 58,
      "hit": false,
      "t": 34014.315364583344,
      "d": 177.8840520833328,
      "v": 58
    },
    {
      "midi": 64,
      "hit": false,
      "t": 34016.71920312501,
      "d": 209.13395312500506,
      "v": 60
    },
    {
      "midi": 55,
      "hit": false,
      "t": 34016.71920312501,
      "d": 213.94163020834094,
      "v": 54
    },
    {
      "midi": 60,
      "hit": false,
      "t": 34021.526880208345,
      "d": 185.09556770833296,
      "v": 69
    },
    {
      "midi": 60,
      "hit": false,
      "t": 34468.64084895835,
      "d": 189.90324479167612,
      "v": 73
    },
    {
      "midi": 58,
      "hit": false,
      "t": 34473.448526041684,
      "d": 180.28789062500437,
      "v": 63
    },
    {
      "midi": 64,
      "hit": false,
      "t": 34473.448526041684,
      "d": 228.3646614583413,
      "v": 62
    },
    {
      "midi": 55,
      "hit": false,
      "t": 34478.25620312502,
      "d": 209.13395312500506,
      "v": 61
    },
    {
      "midi": 58,
      "hit": false,
      "t": 34934.985526041695,
      "d": 158.65334375000384,
      "v": 58
    },
    {
      "midi": 60,
      "hit": false,
      "t": 34934.985526041695,
      "d": 180.28789062500437,
      "v": 73
    },
    {
      "midi": 55,
      "hit": false,
      "t": 34939.79320312503,
      "d": 112.98041145833122,
      "v": 55
    },
    {
      "midi": 64,
      "hit": false,
      "t": 34939.79320312503,
      "d": 175.4802135416685,
      "v": 63
    },
    {
      "midi": 41,
      "hit": false,
      "t": 35098.446546875035,
      "d": 415.8640677083313,
      "v": 78
    },
    {
      "midi": 57,
      "hit": false,
      "t": 35396.5225260417,
      "d": 264.4222395833349,
      "v": 74
    },
    {
      "midi": 60,
      "hit": false,
      "t": 35396.5225260417,
      "d": 283.6529479166711,
      "v": 78
    },
    {
      "midi": 65,
      "hit": false,
      "t": 35401.330203125035,
      "d": 259.614562499999,
      "v": 63
    },
    {
      "midi": 36,
      "hit": false,
      "t": 35557.57970833337,
      "d": 249.99920833333454,
      "v": 77
    },
    {
      "midi": 60,
      "hit": false,
      "t": 35850.8480104167,
      "d": 290.864463541664,
      "v": 65
    },
    {
      "midi": 57,
      "hit": false,
      "t": 35853.25184895837,
      "d": 298.07597916667146,
      "v": 54
    },
    {
      "midi": 65,
      "hit": false,
      "t": 35855.65568750003,
      "d": 290.8644635416713,
      "v": 67
    },
    {
      "midi": 33,
      "hit": false,
      "t": 36011.905192708364,
      "d": 466.34467708334705,
      "v": 79
    },
    {
      "midi": 60,
      "hit": false,
      "t": 36319.59652604171,
      "d": 204.3262760416692,
      "v": 75
    },
    {
      "midi": 57,
      "hit": false,
      "t": 36319.59652604171,
      "d": 223.5569843750054,
      "v": 63
    },
    {
      "midi": 65,
      "hit": false,
      "t": 36324.40420312504,
      "d": 221.15314583333384,
      "v": 72
    },
    {
      "midi": 36,
      "hit": false,
      "t": 36473.442192708375,
      "d": 418.26790625000285,
      "v": 73
    },
    {
      "midi": 60,
      "hit": false,
      "t": 36776.325848958375,
      "d": 197.1147604166763,
      "v": 69
    },
    {
      "midi": 57,
      "hit": false,
      "t": 36776.325848958375,
      "d": 221.1531458333411,
      "v": 58
    },
    {
      "midi": 65,
      "hit": false,
      "t": 36781.13352604171,
      "d": 218.74930729166954,
      "v": 63
    },
    {
      "midi": 41,
      "hit": false,
      "t": 36932.575354166715,
      "d": 439.9024531250034,
      "v": 70
    },
    {
      "midi": 60,
      "hit": false,
      "t": 37237.86284895838,
      "d": 201.9224375000049,
      "v": 67
    },
    {
      "midi": 57,
      "hit": false,
      "t": 37237.86284895838,
      "d": 223.5569843750054,
      "v": 58
    },
    {
      "midi": 65,
      "hit": false,
      "t": 37242.670526041715,
      "d": 213.94163020833366,
      "v": 66
    },
    {
      "midi": 33,
      "hit": false,
      "t": 37396.51619270838,
      "d": 550.479026041663,
      "v": 78
    },
    {
      "midi": 65,
      "hit": false,
      "t": 37696.99601041672,
      "d": 235.5761770833269,
      "v": 59
    },
    {
      "midi": 60,
      "hit": false,
      "t": 37699.39984895838,
      "d": 221.15314583332656,
      "v": 67
    },
    {
      "midi": 57,
      "hit": false,
      "t": 37701.80368750005,
      "d": 225.96082291666244,
      "v": 57
    },
    {
      "midi": 36,
      "hit": false,
      "t": 37858.05319270838,
      "d": 512.0176093750051,
      "v": 78
    },
    {
      "midi": 57,
      "hit": false,
      "t": 38165.744526041715,
      "d": 218.74930729166954,
      "v": 57
    },
    {
      "midi": 60,
      "hit": false,
      "t": 38165.744526041715,
      "d": 218.74930729166954,
      "v": 67
    },
    {
      "midi": 65,
      "hit": false,
      "t": 38170.55220312505,
      "d": 218.74930729166954,
      "v": 65
    },
    {
      "midi": 41,
      "hit": false,
      "t": 38324.39786979172,
      "d": 384.61416666667355,
      "v": 72
    },
    {
      "midi": 65,
      "hit": false,
      "t": 38622.47384895839,
      "d": 158.65334374999657,
      "v": 67
    },
    {
      "midi": 57,
      "hit": false,
      "t": 38627.28152604173,
      "d": 180.2878906249971,
      "v": 57
    },
    {
      "midi": 60,
      "hit": false,
      "t": 38627.28152604173,
      "d": 185.09556770833296,
      "v": 67
    },
    {
      "midi": 36,
      "hit": false,
      "t": 38778.72335416672,
      "d": 427.8832604166673,
      "v": 82
    },
    {
      "midi": 64,
      "hit": false,
      "t": 39088.81852604172,
      "d": 237.9800156249985,
      "v": 68
    },
    {
      "midi": 60,
      "hit": false,
      "t": 39088.81852604172,
      "d": 257.2107239583347,
      "v": 76
    },
    {
      "midi": 55,
      "hit": false,
      "t": 39093.62620312506,
      "d": 252.40304687499884,
      "v": 64
    },
    {
      "midi": 45,
      "hit": false,
      "t": 39245.068031250055,
      "d": 538.459833333327,
      "v": 72
    },
    {
      "midi": 60,
      "hit": false,
      "t": 39545.54784895839,
      "d": 242.78769270832709,
      "v": 69
    },
    {
      "midi": 55,
      "hit": false,
      "t": 39547.951687500055,
      "d": 225.96082291666244,
      "v": 55
    },
    {
      "midi": 64,
      "hit": false,
      "t": 39550.35552604172,
      "d": 216.34546874999796,
      "v": 65
    },
    {
      "midi": 43,
      "hit": false,
      "t": 39704.20119270839,
      "d": 499.9984166666691,
      "v": 75
    },
    {
      "midi": 60,
      "hit": false,
      "t": 40011.892526041716,
      "d": 245.19153125000594,
      "v": 68
    },
    {
      "midi": 55,
      "hit": false,
      "t": 40011.892526041716,
      "d": 257.210723958342,
      "v": 53
    },
    {
      "midi": 64,
      "hit": false,
      "t": 40016.70020312505,
      "d": 252.4030468750061,
      "v": 66
    },
    {
      "midi": 40,
      "hit": false,
      "t": 40170.54586979172,
      "d": 444.71013020833925,
      "v": 72
    },
    {
      "midi": 60,
      "hit": false,
      "t": 40468.62184895839,
      "d": 262.0184010416633,
      "v": 73
    },
    {
      "midi": 55,
      "hit": false,
      "t": 40473.42952604173,
      "d": 257.21072395832743,
      "v": 58
    },
    {
      "midi": 64,
      "hit": false,
      "t": 40473.42952604173,
      "d": 257.21072395832743,
      "v": 70
    },
    {
      "midi": 36,
      "hit": false,
      "t": 40624.871354166724,
      "d": 451.92164583333215,
      "v": 82
    },
    {
      "midi": 60,
      "hit": false,
      "t": 40930.15884895839,
      "d": 230.7685000000056,
      "v": 72
    },
    {
      "midi": 64,
      "hit": false,
      "t": 40934.966526041724,
      "d": 245.19153125000594,
      "v": 68
    },
    {
      "midi": 55,
      "hit": false,
      "t": 40934.966526041724,
      "d": 249.9992083333418,
      "v": 58
    },
    {
      "midi": 36,
      "hit": false,
      "t": 41088.81219270839,
      "d": 389.42184375000943,
      "v": 80
    },
    {
      "midi": 60,
      "hit": false,
      "t": 41396.503526041735,
      "d": 185.09556770833296,
      "v": 75
    },
    {
      "midi": 64,
      "hit": false,
      "t": 41396.503526041735,
      "d": 199.5185989583333,
      "v": 71
    },
    {
      "midi": 55,
      "hit": false,
      "t": 41401.31120312507,
      "d": 192.30708333333314,
      "v": 67
    },
    {
      "midi": 38,
      "hit": false,
      "t": 41550.3491927084,
      "d": 447.1139687499963,
      "v": 79
    },
    {
      "midi": 60,
      "hit": false,
      "t": 41858.04052604173,
      "d": 237.9800156249985,
      "v": 68
    },
    {
      "midi": 64,
      "hit": false,
      "t": 41858.04052604173,
      "d": 237.9800156249985,
      "v": 65
    },
    {
      "midi": 55,
      "hit": false,
      "t": 41862.84820312507,
      "d": 213.9416302083264,
      "v": 58
    },
    {
      "midi": 40,
      "hit": false,
      "t": 42014.290031250064,
      "d": 459.1331614583323,
      "v": 74
    },
    {
      "midi": 60,
      "hit": false,
      "t": 42319.57752604173,
      "d": 180.2878906249971,
      "v": 68
    },
    {
      "midi": 55,
      "hit": false,
      "t": 42324.385203125064,
      "d": 132.21111979166744,
      "v": 63
    },
    {
      "midi": 64,
      "hit": false,
      "t": 42324.385203125064,
      "d": 175.48021354166121,
      "v": 70
    },
    {
      "midi": 41,
      "hit": false,
      "t": 42475.82703125006,
      "d": 437.4986145833245,
      "v": 78
    },
    {
      "midi": 60,
      "hit": false,
      "t": 42781.114526041725,
      "d": 218.74930729166226,
      "v": 79
    },
    {
      "midi": 65,
      "hit": false,
      "t": 42783.51836458339,
      "d": 240.3838541666628,
      "v": 80
    },
    {
      "midi": 57,
      "hit": false,
      "t": 42785.922203125054,
      "d": 213.94163020833366,
      "v": 74
    },
    {
      "midi": 36,
      "hit": false,
      "t": 42934.960192708386,
      "d": 439.9024531250034,
      "v": 58
    },
    {
      "midi": 60,
      "hit": false,
      "t": 43237.843848958386,
      "d": 182.69172916666867,
      "v": 69
    },
    {
      "midi": 57,
      "hit": false,
      "t": 43242.65152604172,
      "d": 192.30708333333314,
      "v": 61
    },
    {
      "midi": 65,
      "hit": false,
      "t": 43242.65152604172,
      "d": 192.30708333333314,
      "v": 70
    },
    {
      "midi": 33,
      "hit": false,
      "t": 43396.49719270839,
      "d": 463.9408385416609,
      "v": 80
    },
    {
      "midi": 60,
      "hit": false,
      "t": 43704.18852604172,
      "d": 197.11476041666901,
      "v": 74
    },
    {
      "midi": 65,
      "hit": false,
      "t": 43704.18852604172,
      "d": 216.34546875000524,
      "v": 71
    },
    {
      "midi": 57,
      "hit": false,
      "t": 43708.996203125054,
      "d": 211.53779166666936,
      "v": 67
    },
    {
      "midi": 36,
      "hit": false,
      "t": 43858.03419270839,
      "d": 449.5178072916751,
      "v": 80
    },
    {
      "midi": 60,
      "hit": false,
      "t": 44160.917848958394,
      "d": 185.09556770833296,
      "v": 70
    },
    {
      "midi": 57,
      "hit": false,
      "t": 44165.72552604173,
      "d": 189.90324479166156,
      "v": 60
    },
    {
      "midi": 65,
      "hit": false,
      "t": 44165.72552604173,
      "d": 199.51859895832604,
      "v": 68
    },
    {
      "midi": 41,
      "hit": false,
      "t": 44321.97503125006,
      "d": 543.2675104166556,
      "v": 79
    },
    {
      "midi": 60,
      "hit": false,
      "t": 44627.26252604172,
      "d": 204.3262760416619,
      "v": 71
    },
    {
      "midi": 65,
      "hit": false,
      "t": 44629.66636458338,
      "d": 221.15314583333384,
      "v": 63
    },
    {
      "midi": 57,
      "hit": false,
      "t": 44632.07020312505,
      "d": 218.74930729166954,
      "v": 63
    },
    {
      "midi": 33,
      "hit": false,
      "t": 44785.915869791716,
      "d": 463.9408385416682,
      "v": 82
    },
    {
      "midi": 60,
      "hit": false,
      "t": 45081.588010416715,
      "d": 204.3262760416692,
      "v": 70
    },
    {
      "midi": 65,
      "hit": false,
      "t": 45081.588010416715,
      "d": 225.9608229166697,
      "v": 62
    },
    {
      "midi": 57,
      "hit": false,
      "t": 45086.39568750005,
      "d": 199.5185989583333,
      "v": 61
    },
    {
      "midi": 36,
      "hit": false,
      "t": 45242.64519270838,
      "d": 449.5178072916751,
      "v": 82
    },
    {
      "midi": 60,
      "hit": false,
      "t": 45550.33652604172,
      "d": 237.98001562500576,
      "v": 70
    },
    {
      "midi": 65,
      "hit": false,
      "t": 45550.33652604172,
      "d": 252.4030468750061,
      "v": 60
    },
    {
      "midi": 57,
      "hit": false,
      "t": 45555.144203125055,
      "d": 237.98001562500576,
      "v": 62
    },
    {
      "midi": 41,
      "hit": false,
      "t": 45708.98986979172,
      "d": 483.1715468750117,
      "v": 79
    },
    {
      "midi": 60,
      "hit": false,
      "t": 46007.065848958395,
      "d": 149.0379895833321,
      "v": 75
    },
    {
      "midi": 65,
      "hit": false,
      "t": 46007.065848958395,
      "d": 165.86485937500402,
      "v": 67
    },
    {
      "midi": 57,
      "hit": false,
      "t": 46011.87352604173,
      "d": 127.40344270833157,
      "v": 64
    },
    {
      "midi": 43,
      "hit": false,
      "t": 46168.12303125006,
      "d": 444.710130208332,
      "v": 77
    },
    {
      "midi": 62,
      "hit": false,
      "t": 46473.410526041735,
      "d": 242.78769270832709,
      "v": 82
    },
    {
      "midi": 59,
      "hit": false,
      "t": 46475.8143645834,
      "d": 216.34546874999796,
      "v": 78
    },
    {
      "midi": 67,
      "hit": false,
      "t": 46478.21820312506,
      "d": 194.71092187499744,
      "v": 82
    },
    {
      "midi": 38,
      "hit": false,
      "t": 46634.467708333395,
      "d": 396.6333593750023,
      "v": 78
    },
    {
      "midi": 67,
      "hit": false,
      "t": 46930.139848958395,
      "d": 201.9224375000049,
      "v": 75
    },
    {
      "midi": 62,
      "hit": false,
      "t": 46930.139848958395,
      "d": 204.3262760416692,
      "v": 74
    },
    {
      "midi": 59,
      "hit": false,
      "t": 46934.94752604173,
      "d": 197.11476041666901,
      "v": 71
    },
    {
      "midi": 35,
      "hit": false,
      "t": 47088.7931927084,
      "d": 430.2870989583389,
      "v": 77
    },
    {
      "midi": 62,
      "hit": false,
      "t": 47391.6768489584,
      "d": 259.614562499999,
      "v": 72
    },
    {
      "midi": 67,
      "hit": false,
      "t": 47396.484526041735,
      "d": 223.55698437499814,
      "v": 68
    },
    {
      "midi": 59,
      "hit": false,
      "t": 47396.484526041735,
      "d": 225.96082291666244,
      "v": 66
    },
    {
      "midi": 33,
      "hit": false,
      "t": 47550.3301927084,
      "d": 406.2487135416595,
      "v": 78
    },
    {
      "midi": 62,
      "hit": false,
      "t": 47853.213848958396,
      "d": 69.71131770833017,
      "v": 73
    },
    {
      "midi": 59,
      "hit": false,
      "t": 47853.213848958396,
      "d": 88.9420260416664,
      "v": 73
    },
    {
      "midi": 31,
      "hit": false,
      "t": 48004.6556770834,
      "d": 201.9224374999976,
      "v": 82
    },
    {
      "midi": 62,
      "hit": false,
      "t": 48035.905578125064,
      "d": 132.21111979166744,
      "v": 80
    },
    {
      "midi": 59,
      "hit": false,
      "t": 48035.905578125064,
      "d": 156.24950520833227,
      "v": 73
    },
    {
      "midi": 64,
      "hit": false,
      "t": 48043.117093750065,
      "d": 91.3458645833307,
      "v": 82
    },
    {
      "midi": 67,
      "hit": false,
      "t": 48043.117093750065,
      "d": 146.6341510416678,
      "v": 82
    },
    {
      "midi": 62,
      "hit": false,
      "t": 48483.01954687506,
      "d": 213.94163020833366,
      "v": 82
    },
    {
      "midi": 67,
      "hit": false,
      "t": 48485.423385416725,
      "d": 180.28789062500437,
      "v": 82
    },
    {
      "midi": 59,
      "hit": false,
      "t": 48487.82722395839,
      "d": 192.30708333334042,
      "v": 82
    },
    {
      "midi": 64,
      "hit": false,
      "t": 48492.634901041725,
      "d": 197.11476041666901,
      "v": 81
    },
    {
      "midi": 31,
      "hit": false,
      "t": 48499.846416666725,
      "d": 146.6341510416678,
      "v": 82
    },
    {
      "midi": 36,
      "hit": false,
      "t": 49850.80367708339,
      "d": 322.114364583329,
      "v": 82
    },
    {
      "midi": 64,
      "hit": false,
      "t": 50163.30268750006,
      "d": 259.61456249999173,
      "v": 71
    },
    {
      "midi": 60,
      "hit": false,
      "t": 50165.70652604172,
      "d": 168.26869791666104,
      "v": 72
    },
    {
      "midi": 55,
      "hit": false,
      "t": 50165.70652604172,
      "d": 235.5761770833269,
      "v": 63
    },
    {
      "midi": 36,
      "hit": false,
      "t": 50324.35986979172,
      "d": 310.09517187499296,
      "v": 81
    },
    {
      "midi": 64,
      "hit": false,
      "t": 50622.43584895838,
      "d": 168.26869791666104,
      "v": 72
    },
    {
      "midi": 55,
      "hit": false,
      "t": 50624.83968750005,
      "d": 173.07637499999691,
      "v": 60
    },
    {
      "midi": 60,
      "hit": false,
      "t": 50627.24352604171,
      "d": 161.05718229166814,
      "v": 68
    },
    {
      "midi": 40,
      "hit": false,
      "t": 50781.08919270838,
      "d": 353.3642656250013,
      "v": 78
    },
    {
      "midi": 64,
      "hit": false,
      "t": 51083.97284895838,
      "d": 223.5569843750054,
      "v": 67
    },
    {
      "midi": 60,
      "hit": false,
      "t": 51086.376687500044,
      "d": 163.46102083333972,
      "v": 70
    },
    {
      "midi": 55,
      "hit": false,
      "t": 51086.376687500044,
      "d": 199.5185989583406,
      "v": 63
    },
    {
      "midi": 40,
      "hit": false,
      "t": 51249.83770833338,
      "d": 338.94123437500093,
      "v": 78
    },
    {
      "midi": 64,
      "hit": false,
      "t": 51545.50984895838,
      "d": 161.05718229166814,
      "v": 66
    },
    {
      "midi": 60,
      "hit": false,
      "t": 51550.31752604172,
      "d": 129.80728124999587,
      "v": 74
    },
    {
      "midi": 55,
      "hit": false,
      "t": 51550.31752604172,
      "d": 134.61495833333174,
      "v": 66
    },
    {
      "midi": 41,
      "hit": false,
      "t": 51704.16319270839,
      "d": 353.3642656250013,
      "v": 65
    },
    {
      "midi": 65,
      "hit": false,
      "t": 52007.04684895839,
      "d": 262.0184010416633,
      "v": 67
    },
    {
      "midi": 60,
      "hit": false,
      "t": 52011.85452604172,
      "d": 218.74930729166226,
      "v": 73
    },
    {
      "midi": 57,
      "hit": false,
      "t": 52011.85452604172,
      "d": 233.1723385416626,
      "v": 73
    },
    {
      "midi": 41,
      "hit": false,
      "t": 52170.50786979172,
      "d": 406.2487135416668,
      "v": 59
    },
    {
      "midi": 65,
      "hit": false,
      "t": 52473.39152604172,
      "d": 197.11476041666901,
      "v": 70
    },
    {
      "midi": 60,
      "hit": false,
      "t": 52475.795364583384,
      "d": 120.19192708333867,
      "v": 71
    },
    {
      "midi": 57,
      "hit": false,
      "t": 52475.795364583384,
      "d": 165.86485937500402,
      "v": 71
    },
    {
      "midi": 43,
      "hit": false,
      "t": 52627.23719270839,
      "d": 338.94123437500093,
      "v": 70
    },
    {
      "midi": 59,
      "hit": false,
      "t": 52934.928526041724,
      "d": 237.9800156249985,
      "v": 58
    },
    {
      "midi": 62,
      "hit": false,
      "t": 52937.33236458339,
      "d": 235.5761770833342,
      "v": 66
    },
    {
      "midi": 55,
      "hit": false,
      "t": 52939.73620312505,
      "d": 230.7685000000056,
      "v": 71
    },
    {
      "midi": 43,
      "hit": false,
      "t": 53088.77419270839,
      "d": 406.2487135416668,
      "v": 74
    },
    {
      "midi": 59,
      "hit": false,
      "t": 53396.46552604172,
      "d": 158.65334375000384,
      "v": 67
    },
    {
      "midi": 62,
      "hit": false,
      "t": 53396.46552604172,
      "d": 204.3262760416692,
      "v": 64
    },
    {
      "midi": 55,
      "hit": false,
      "t": 53401.273203125056,
      "d": 175.4802135416685,
      "v": 63
    },
    {
      "midi": 36,
      "hit": false,
      "t": 53540.695838541724,
      "d": 348.55658854165813,
      "v": 78
    },
    {
      "midi": 60,
      "hit": false,
      "t": 53853.19484895839,
      "d": 233.1723385416626,
      "v": 72
    },
    {
      "midi": 64,
      "hit": false,
      "t": 53855.59868750005,
      "d": 254.80688541666314,
      "v": 71
    },
    {
      "midi": 55,
      "hit": false,
      "t": 53858.00252604172,
      "d": 197.11476041666901,
      "v": 64
    },
    {
      "midi": 36,
      "hit": false,
      "t": 54019.059708333385,
      "d": 288.4606249999997,
      "v": 75
    },
    {
      "midi": 64,
      "hit": false,
      "t": 54314.731848958385,
      "d": 223.55698437499086,
      "v": 64
    },
    {
      "midi": 60,
      "hit": false,
      "t": 54317.13568750005,
      "d": 218.74930729166226,
      "v": 64
    },
    {
      "midi": 55,
      "hit": false,
      "t": 54319.53952604171,
      "d": 192.30708333333314,
      "v": 60
    },
    {
      "midi": 40,
      "hit": false,
      "t": 54473.38519270838,
      "d": 314.90284895832883,
      "v": 75
    },
    {
      "midi": 64,
      "hit": false,
      "t": 54776.268848958374,
      "d": 233.1723385416699,
      "v": 70
    },
    {
      "midi": 60,
      "hit": false,
      "t": 54781.07652604171,
      "d": 223.5569843750054,
      "v": 71
    },
    {
      "midi": 55,
      "hit": false,
      "t": 54781.07652604171,
      "d": 225.9608229166697,
      "v": 63
    },
    {
      "midi": 40,
      "hit": false,
      "t": 54939.729869791714,
      "d": 341.34507291666523,
      "v": 73
    },
    {
      "midi": 64,
      "hit": false,
      "t": 55237.80584895838,
      "d": 165.86485937500402,
      "v": 66
    },
    {
      "midi": 55,
      "hit": false,
      "t": 55242.613526041714,
      "d": 161.05718229166814,
      "v": 67
    },
    {
      "midi": 60,
      "hit": false,
      "t": 55242.613526041714,
      "d": 177.8840520833328,
      "v": 70
    },
    {
      "midi": 41,
      "hit": false,
      "t": 55398.863031250046,
      "d": 310.0951718750075,
      "v": 76
    },
    {
      "midi": 60,
      "hit": false,
      "t": 55699.34284895838,
      "d": 230.7684999999983,
      "v": 65
    },
    {
      "midi": 57,
      "hit": false,
      "t": 55704.15052604172,
      "d": 206.7301145833335,
      "v": 68
    },
    {
      "midi": 65,
      "hit": false,
      "t": 55704.15052604172,
      "d": 223.55698437499814,
      "v": 67
    },
    {
      "midi": 41,
      "hit": false,
      "t": 55857.996192708386,
      "d": 449.5178072916606,
      "v": 65
    },
    {
      "midi": 60,
      "hit": false,
      "t": 56160.87984895838,
      "d": 185.09556770834024,
      "v": 70
    },
    {
      "midi": 57,
      "hit": false,
      "t": 56165.687526041715,
      "d": 165.86485937500402,
      "v": 68
    },
    {
      "midi": 65,
      "hit": false,
      "t": 56165.687526041715,
      "d": 177.88405208334007,
      "v": 67
    },
    {
      "midi": 43,
      "hit": false,
      "t": 56319.53319270838,
      "d": 329.32588020833646,
      "v": 70
    },
    {
      "midi": 62,
      "hit": false,
      "t": 56627.22452604172,
      "d": 218.74930729166954,
      "v": 70
    },
    {
      "midi": 59,
      "hit": false,
      "t": 56627.22452604172,
      "d": 223.5569843750054,
      "v": 61
    },
    {
      "midi": 55,
      "hit": false,
      "t": 56632.032203125054,
      "d": 189.90324479166884,
      "v": 68
    },
    {
      "midi": 43,
      "hit": false,
      "t": 56785.87786979172,
      "d": 295.6721406249999,
      "v": 71
    },
    {
      "midi": 62,
      "hit": false,
      "t": 57088.76152604172,
      "d": 161.05718229167542,
      "v": 73
    },
    {
      "midi": 59,
      "hit": false,
      "t": 57093.56920312506,
      "d": 108.17273437500262,
      "v": 66
    },
    {
      "midi": 55,
      "hit": false,
      "t": 57093.56920312506,
      "d": 141.8264739583392,
      "v": 69
    },
    {
      "midi": 36,
      "hit": false,
      "t": 57247.41486979173,
      "d": 314.9028489583361,
      "v": 79
    },
    {
      "midi": 60,
      "hit": false,
      "t": 57545.4908489584,
      "d": 221.1531458333411,
      "v": 65
    },
    {
      "midi": 55,
      "hit": false,
      "t": 57550.29852604173,
      "d": 180.28789062500437,
      "v": 61
    },
    {
      "midi": 64,
      "hit": false,
      "t": 57550.29852604173,
      "d": 213.94163020834094,
      "v": 63
    },
    {
      "midi": 36,
      "hit": false,
      "t": 57708.95186979174,
      "d": 310.09517187500023,
      "v": 81
    },
    {
      "midi": 64,
      "hit": false,
      "t": 58004.62401041674,
      "d": 168.26869791666832,
      "v": 68
    },
    {
      "midi": 60,
      "hit": false,
      "t": 58004.62401041674,
      "d": 187.49940625000454,
      "v": 63
    },
    {
      "midi": 55,
      "hit": false,
      "t": 58009.43168750007,
      "d": 161.05718229166814,
      "v": 69
    },
    {
      "midi": 40,
      "hit": false,
      "t": 58165.681192708405,
      "d": 281.24910937499953,
      "v": 71
    },
    {
      "midi": 60,
      "hit": false,
      "t": 58478.18020312507,
      "d": 156.24950520833954,
      "v": 66
    },
    {
      "midi": 55,
      "hit": false,
      "t": 58482.987880208406,
      "d": 129.80728125000314,
      "v": 64
    },
    {
      "midi": 64,
      "hit": false,
      "t": 58482.987880208406,
      "d": 170.6725364583399,
      "v": 69
    },
    {
      "midi": 40,
      "hit": false,
      "t": 58632.025869791745,
      "d": 305.28749479166436,
      "v": 73
    },
    {
      "midi": 60,
      "hit": false,
      "t": 58930.10184895841,
      "d": 173.07637499999691,
      "v": 66
    },
    {
      "midi": 55,
      "hit": false,
      "t": 58934.909526041745,
      "d": 122.59576562499569,
      "v": 66
    },
    {
      "midi": 64,
      "hit": false,
      "t": 58934.909526041745,
      "d": 170.67253645832534,
      "v": 75
    },
    {
      "midi": 41,
      "hit": false,
      "t": 59086.35135416674,
      "d": 355.7681041666656,
      "v": 68
    },
    {
      "midi": 60,
      "hit": false,
      "t": 59391.638848958406,
      "d": 209.13395312500506,
      "v": 66
    },
    {
      "midi": 65,
      "hit": false,
      "t": 59391.638848958406,
      "d": 235.57617708334146,
      "v": 69
    },
    {
      "midi": 57,
      "hit": false,
      "t": 59396.44652604174,
      "d": 199.5185989583333,
      "v": 65
    },
    {
      "midi": 41,
      "hit": false,
      "t": 59555.09986979174,
      "d": 425.4794218750176,
      "v": 53
    },
    {
      "midi": 60,
      "hit": false,
      "t": 59853.17584895842,
      "d": 120.19192708333867,
      "v": 62
    },
    {
      "midi": 57,
      "hit": false,
      "t": 59857.98352604175,
      "d": 137.01879687500332,
      "v": 66
    },
    {
      "midi": 65,
      "hit": false,
      "t": 59857.98352604175,
      "d": 146.6341510416678,
      "v": 63
    },
    {
      "midi": 43,
      "hit": false,
      "t": 60011.82919270842,
      "d": 353.3642656250013,
      "v": 67
    },
    {
      "midi": 59,
      "hit": false,
      "t": 60319.52052604176,
      "d": 199.5185989583406,
      "v": 73
    },
    {
      "midi": 62,
      "hit": false,
      "t": 60319.52052604176,
      "d": 213.94163020834094,
      "v": 74
    },
    {
      "midi": 55,
      "hit": false,
      "t": 60321.92436458342,
      "d": 177.88405208334007,
      "v": 68
    },
    {
      "midi": 43,
      "hit": false,
      "t": 60473.366192708425,
      "d": 372.5949739583448,
      "v": 74
    },
    {
      "midi": 62,
      "hit": false,
      "t": 60776.24984895843,
      "d": 163.46102083333244,
      "v": 71
    },
    {
      "midi": 59,
      "hit": false,
      "t": 60781.05752604177,
      "d": 120.1919270833314,
      "v": 64
    },
    {
      "midi": 55,
      "hit": false,
      "t": 60781.05752604177,
      "d": 122.59576562499569,
      "v": 61
    },
    {
      "midi": 36,
      "hit": false,
      "t": 60937.3070312501,
      "d": 331.72971875000076,
      "v": 76
    },
    {
      "midi": 64,
      "hit": false,
      "t": 61237.78684895843,
      "d": 223.5569843750054,
      "v": 58
    },
    {
      "midi": 55,
      "hit": false,
      "t": 61242.594526041765,
      "d": 189.90324479166884,
      "v": 62
    },
    {
      "midi": 60,
      "hit": false,
      "t": 61242.594526041765,
      "d": 218.74930729166954,
      "v": 60
    },
    {
      "midi": 36,
      "hit": false,
      "t": 61403.65170833343,
      "d": 324.51820312500786,
      "v": 79
    },
    {
      "midi": 60,
      "hit": false,
      "t": 61704.13152604177,
      "d": 132.21111979166744,
      "v": 75
    },
    {
      "midi": 64,
      "hit": false,
      "t": 61704.13152604177,
      "d": 146.6341510416678,
      "v": 73
    },
    {
      "midi": 55,
      "hit": false,
      "t": 61708.939203125105,
      "d": 117.7880885416671,
      "v": 64
    },
    {
      "midi": 40,
      "hit": false,
      "t": 61857.97719270844,
      "d": 370.19113541665865,
      "v": 80
    },
    {
      "midi": 60,
      "hit": false,
      "t": 62160.86084895844,
      "d": 185.0955677083184,
      "v": 70
    },
    {
      "midi": 64,
      "hit": false,
      "t": 62163.2646875001,
      "d": 182.6917291666541,
      "v": 78
    },
    {
      "midi": 55,
      "hit": false,
      "t": 62165.668526041765,
      "d": 177.8840520833255,
      "v": 69
    },
    {
      "midi": 40,
      "hit": false,
      "t": 62326.725708333426,
      "d": 331.7297187499935,
      "v": 76
    },
    {
      "midi": 60,
      "hit": false,
      "t": 62624.80168750009,
      "d": 146.63415104166052,
      "v": 68
    },
    {
      "midi": 64,
      "hit": false,
      "t": 62627.205526041755,
      "d": 149.0379895833321,
      "v": 74
    },
    {
      "midi": 55,
      "hit": false,
      "t": 62629.60936458342,
      "d": 146.6341510416678,
      "v": 71
    },
    {
      "midi": 41,
      "hit": false,
      "t": 62790.66654687509,
      "d": 338.9412343750082,
      "v": 74
    },
    {
      "midi": 60,
      "hit": false,
      "t": 63083.93484895842,
      "d": 242.78769270834164,
      "v": 65
    },
    {
      "midi": 57,
      "hit": false,
      "t": 63088.74252604176,
      "d": 189.90324479166884,
      "v": 68
    },
    {
      "midi": 65,
      "hit": false,
      "t": 63088.74252604176,
      "d": 225.9608229166697,
      "v": 74
    },
    {
      "midi": 41,
      "hit": false,
      "t": 63249.79970833343,
      "d": 411.0563906250027,
      "v": 73
    },
    {
      "midi": 65,
      "hit": false,
      "t": 63545.471848958434,
      "d": 165.86485937499674,
      "v": 63
    },
    {
      "midi": 60,
      "hit": false,
      "t": 63547.8756875001,
      "d": 163.46102083333244,
      "v": 67
    },
    {
      "midi": 57,
      "hit": false,
      "t": 63550.27952604176,
      "d": 180.28789062500437,
      "v": 62
    },
    {
      "midi": 43,
      "hit": false,
      "t": 63706.529031250095,
      "d": 329.32588020834373,
      "v": 64
    },
    {
      "midi": 59,
      "hit": false,
      "t": 64011.816526041766,
      "d": 192.30708333334042,
      "v": 62
    },
    {
      "midi": 62,
      "hit": false,
      "t": 64016.6242031251,
      "d": 185.09556770834024,
      "v": 67
    },
    {
      "midi": 55,
      "hit": false,
      "t": 64016.6242031251,
      "d": 209.13395312500506,
      "v": 67
    },
    {
      "midi": 43,
      "hit": false,
      "t": 64165.66219270844,
      "d": 161.05718229166814,
      "v": 69
    },
    {
      "midi": 59,
      "hit": false,
      "t": 64473.35352604178,
      "d": 112.9804114583385,
      "v": 68
    },
    {
      "midi": 55,
      "hit": false,
      "t": 64478.16120312511,
      "d": 117.7880885416671,
      "v": 64
    },
    {
      "midi": 62,
      "hit": false,
      "t": 64478.16120312511,
      "d": 132.21111979166744,
      "v": 73
    },
    {
      "midi": 36,
      "hit": false,
      "t": 64627.199192708445,
      "d": 367.78729687500163,
      "v": 77
    },
    {
      "midi": 60,
      "hit": false,
      "t": 64930.082848958446,
      "d": 209.13395312501234,
      "v": 68
    },
    {
      "midi": 64,
      "hit": false,
      "t": 64934.89052604178,
      "d": 180.28789062500437,
      "v": 69
    },
    {
      "midi": 55,
      "hit": false,
      "t": 64934.89052604178,
      "d": 199.5185989583406,
      "v": 62
    },
    {
      "midi": 36,
      "hit": false,
      "t": 65095.94770833345,
      "d": 274.03759375000664,
      "v": 77
    },
    {
      "midi": 60,
      "hit": false,
      "t": 65391.61984895846,
      "d": 185.09556770834752,
      "v": 62
    },
    {
      "midi": 64,
      "hit": false,
      "t": 65396.42752604179,
      "d": 180.28789062501164,
      "v": 62
    },
    {
      "midi": 55,
      "hit": false,
      "t": 65396.42752604179,
      "d": 199.5185989583406,
      "v": 60
    },
    {
      "midi": 40,
      "hit": false,
      "t": 65552.67703125013,
      "d": 326.92204166665033,
      "v": 75
    },
    {
      "midi": 60,
      "hit": false,
      "t": 65853.15684895846,
      "d": 185.09556770831114,
      "v": 65
    },
    {
      "midi": 55,
      "hit": false,
      "t": 65857.96452604179,
      "d": 180.28789062498254,
      "v": 56
    },
    {
      "midi": 64,
      "hit": false,
      "t": 65857.96452604179,
      "d": 180.28789062498254,
      "v": 67
    },
    {
      "midi": 40,
      "hit": false,
      "t": 66016.61786979178,
      "d": 334.1335572916578,
      "v": 74
    },
    {
      "midi": 64,
      "hit": false,
      "t": 66319.50152604177,
      "d": 153.8456666666607,
      "v": 68
    },
    {
      "midi": 60,
      "hit": false,
      "t": 66319.50152604177,
      "d": 165.86485937499674,
      "v": 69
    },
    {
      "midi": 55,
      "hit": false,
      "t": 66326.71304166676,
      "d": 129.80728125000314,
      "v": 61
    },
    {
      "midi": 41,
      "hit": false,
      "t": 66475.7510312501,
      "d": 336.53739583333663,
      "v": 65
    },
    {
      "midi": 60,
      "hit": false,
      "t": 66776.23084895844,
      "d": 228.36466145832674,
      "v": 67
    },
    {
      "midi": 65,
      "hit": false,
      "t": 66778.6346875001,
      "d": 225.96082291666244,
      "v": 71
    },
    {
      "midi": 57,
      "hit": false,
      "t": 66781.03852604177,
      "d": 228.36466145832674,
      "v": 64
    },
    {
      "midi": 41,
      "hit": false,
      "t": 66939.69186979177,
      "d": 403.8448749999807,
      "v": 59
    },
    {
      "midi": 60,
      "hit": false,
      "t": 67237.76784895842,
      "d": 153.8456666666607,
      "v": 64
    },
    {
      "midi": 65,
      "hit": false,
      "t": 67242.57552604175,
      "d": 100.96121875000244,
      "v": 61
    },
    {
      "midi": 57,
      "hit": false,
      "t": 67242.57552604175,
      "d": 168.26869791666104,
      "v": 62
    },
    {
      "midi": 43,
      "hit": false,
      "t": 67398.82503125007,
      "d": 331.7297187499935,
      "v": 64
    },
    {
      "midi": 59,
      "hit": false,
      "t": 67704.11252604175,
      "d": 180.2878906249971,
      "v": 58
    },
    {
      "midi": 62,
      "hit": false,
      "t": 67704.11252604175,
      "d": 185.0955677083257,
      "v": 66
    },
    {
      "midi": 55,
      "hit": false,
      "t": 67708.92020312508,
      "d": 201.92243749999034,
      "v": 64
    },
    {
      "midi": 43,
      "hit": false,
      "t": 67857.95819270841,
      "d": 353.36426562498673,
      "v": 69
    },
    {
      "midi": 59,
      "hit": false,
      "t": 68165.64952604173,
      "d": 115.3842500000028,
      "v": 66
    },
    {
      "midi": 62,
      "hit": false,
      "t": 68165.64952604173,
      "d": 141.82647395832464,
      "v": 70
    },
    {
      "midi": 55,
      "hit": false,
      "t": 68170.45720312506,
      "d": 117.7880885416671,
      "v": 61
    },
    {
      "midi": 36,
      "hit": false,
      "t": 68319.49519270839,
      "d": 312.49901041665,
      "v": 77
    },
    {
      "midi": 60,
      "hit": false,
      "t": 68622.37884895838,
      "d": 182.69172916664684,
      "v": 66
    },
    {
      "midi": 55,
      "hit": false,
      "t": 68627.18652604171,
      "d": 161.0571822916536,
      "v": 61
    },
    {
      "midi": 64,
      "hit": false,
      "t": 68627.18652604171,
      "d": 161.0571822916536,
      "v": 65
    },
    {
      "midi": 36,
      "hit": false,
      "t": 68785.8398697917,
      "d": 288.46062499999243,
      "v": 75
    },
    {
      "midi": 60,
      "hit": false,
      "t": 69083.91584895836,
      "d": 221.1531458333193,
      "v": 64
    },
    {
      "midi": 55,
      "hit": false,
      "t": 69088.7235260417,
      "d": 185.0955677083257,
      "v": 59
    },
    {
      "midi": 64,
      "hit": false,
      "t": 69088.7235260417,
      "d": 216.3454687499907,
      "v": 67
    },
    {
      "midi": 40,
      "hit": false,
      "t": 69242.56919270835,
      "d": 295.6721406249999,
      "v": 68
    },
    {
      "midi": 64,
      "hit": false,
      "t": 69550.26052604169,
      "d": 206.7301145833335,
      "v": 66
    },
    {
      "midi": 60,
      "hit": false,
      "t": 69550.26052604169,
      "d": 218.74930729166954,
      "v": 64
    },
    {
      "midi": 55,
      "hit": false,
      "t": 69552.66436458335,
      "d": 216.34546875000524,
      "v": 55
    },
    {
      "midi": 60,
      "hit": false,
      "t": 70011.79752604169,
      "d": 187.49940624999,
      "v": 62
    },
    {
      "midi": 64,
      "hit": false,
      "t": 70011.79752604169,
      "d": 187.49940624999,
      "v": 65
    },
    {
      "midi": 55,
      "hit": false,
      "t": 70016.60520312501,
      "d": 163.46102083333244,
      "v": 58
    },
    {
      "midi": 41,
      "hit": false,
      "t": 70163.23935416668,
      "d": 271.6337552083278,
      "v": 66
    },
    {
      "midi": 60,
      "hit": false,
      "t": 70468.52684895834,
      "d": 204.3262760416692,
      "v": 67
    },
    {
      "midi": 57,
      "hit": false,
      "t": 70468.52684895834,
      "d": 228.3646614583413,
      "v": 67
    },
    {
      "midi": 65,
      "hit": false,
      "t": 70473.33452604167,
      "d": 199.5185989583406,
      "v": 64
    },
    {
      "midi": 41,
      "hit": false,
      "t": 70631.98786979167,
      "d": 413.460229166667,
      "v": 60
    },
    {
      "midi": 60,
      "hit": false,
      "t": 70930.06384895835,
      "d": 185.09556770831114,
      "v": 65
    },
    {
      "midi": 65,
      "hit": false,
      "t": 70934.87152604168,
      "d": 141.82647395832464,
      "v": 65
    },
    {
      "midi": 57,
      "hit": false,
      "t": 70934.87152604168,
      "d": 175.48021354165394,
      "v": 58
    },
    {
      "midi": 43,
      "hit": false,
      "t": 71088.71719270834,
      "d": 310.0951718749857,
      "v": 61
    },
    {
      "midi": 62,
      "hit": false,
      "t": 71391.60084895833,
      "d": 185.0955677083257,
      "v": 65
    },
    {
      "midi": 59,
      "hit": false,
      "t": 71396.40852604166,
      "d": 161.05718229166814,
      "v": 64
    },
    {
      "midi": 55,
      "hit": false,
      "t": 71396.40852604166,
      "d": 180.2878906249971,
      "v": 67
    },
    {
      "midi": 43,
      "hit": false,
      "t": 71557.46570833333,
      "d": 237.9800156249985,
      "v": 71
    },
    {
      "midi": 59,
      "hit": false,
      "t": 71860.34936458332,
      "d": 137.01879687499604,
      "v": 67
    },
    {
      "midi": 55,
      "hit": false,
      "t": 71862.75320312499,
      "d": 115.3842500000028,
      "v": 62
    },
    {
      "midi": 62,
      "hit": false,
      "t": 71862.75320312499,
      "d": 139.42263541666034,
      "v": 71
    },
    {
      "midi": 36,
      "hit": false,
      "t": 72014.19503124998,
      "d": 300.4798177083285,
      "v": 71
    },
    {
      "midi": 60,
      "hit": false,
      "t": 72319.48252604164,
      "d": 189.90324479166884,
      "v": 65
    },
    {
      "midi": 64,
      "hit": false,
      "t": 72321.8863645833,
      "d": 177.8840520833328,
      "v": 69
    },
    {
      "midi": 55,
      "hit": false,
      "t": 72324.29020312497,
      "d": 163.46102083333244,
      "v": 64
    },
    {
      "midi": 60,
      "hit": false,
      "t": 72776.21184895831,
      "d": 165.8648593749822,
      "v": 67
    },
    {
      "midi": 55,
      "hit": false,
      "t": 72781.01952604164,
      "d": 137.01879687499604,
      "v": 65
    },
    {
      "midi": 64,
      "hit": false,
      "t": 72781.01952604164,
      "d": 156.249505208325,
      "v": 68
    },
    {
      "midi": 40,
      "hit": false,
      "t": 72934.8651927083,
      "d": 295.6721406249999,
      "v": 58
    },
    {
      "midi": 60,
      "hit": false,
      "t": 73237.74884895829,
      "d": 180.2878906249971,
      "v": 66
    },
    {
      "midi": 64,
      "hit": false,
      "t": 73240.15268749995,
      "d": 182.6917291666614,
      "v": 63
    },
    {
      "midi": 55,
      "hit": false,
      "t": 73242.55652604162,
      "d": 189.90324479166884,
      "v": 61
    },
    {
      "midi": 40,
      "hit": false,
      "t": 73401.20986979162,
      "d": 194.71092187499744,
      "v": 59
    },
    {
      "midi": 64,
      "hit": false,
      "t": 73699.28584895829,
      "d": 163.4610208333179,
      "v": 69
    },
    {
      "midi": 55,
      "hit": false,
      "t": 73704.09352604162,
      "d": 139.42263541666034,
      "v": 60
    },
    {
      "midi": 60,
      "hit": false,
      "t": 73704.09352604162,
      "d": 180.28789062498254,
      "v": 69
    },
    {
      "midi": 41,
      "hit": false,
      "t": 73855.53535416661,
      "d": 314.9028489583143,
      "v": 69
    },
    {
      "midi": 60,
      "hit": false,
      "t": 74163.22668749993,
      "d": 221.15314583333384,
      "v": 61
    },
    {
      "midi": 65,
      "hit": false,
      "t": 74165.6305260416,
      "d": 199.5185989583406,
      "v": 62
    },
    {
      "midi": 57,
      "hit": false,
      "t": 74168.03436458326,
      "d": 197.1147604166763,
      "v": 67
    },
    {
      "midi": 41,
      "hit": false,
      "t": 74326.68770833327,
      "d": 372.59497395833023,
      "v": 56
    },
    {
      "midi": 60,
      "hit": false,
      "t": 74624.76368749993,
      "d": 168.2686979166756,
      "v": 68
    },
    {
      "midi": 65,
      "hit": false,
      "t": 74627.1675260416,
      "d": 141.8264739583392,
      "v": 67
    },
    {
      "midi": 57,
      "hit": false,
      "t": 74627.1675260416,
      "d": 156.24950520833954,
      "v": 64
    },
    {
      "midi": 43,
      "hit": false,
      "t": 74781.01319270827,
      "d": 334.13355729167233,
      "v": 61
    },
    {
      "midi": 62,
      "hit": false,
      "t": 75083.89684895828,
      "d": 180.2878906249971,
      "v": 70
    },
    {
      "midi": 55,
      "hit": false,
      "t": 75088.7045260416,
      "d": 161.05718229166814,
      "v": 67
    },
    {
      "midi": 59,
      "hit": false,
      "t": 75088.7045260416,
      "d": 175.4802135416685,
      "v": 64
    },
    {
      "midi": 43,
      "hit": false,
      "t": 75249.76170833327,
      "d": 331.7297187499935,
      "v": 71
    },
    {
      "midi": 62,
      "hit": false,
      "t": 75545.43384895827,
      "d": 127.40344270832429,
      "v": 71
    },
    {
      "midi": 59,
      "hit": false,
      "t": 75547.83768749994,
      "d": 105.76889583333104,
      "v": 67
    },
    {
      "midi": 55,
      "hit": false,
      "t": 75547.83768749994,
      "d": 139.42263541666034,
      "v": 63
    },
    {
      "midi": 64,
      "hit": false,
      "t": 76009.37468749993,
      "d": 235.57617708331964,
      "v": 68
    },
    {
      "midi": 60,
      "hit": false,
      "t": 76011.7785260416,
      "d": 233.17233854165534,
      "v": 71
    },
    {
      "midi": 55,
      "hit": false,
      "t": 76014.18236458326,
      "d": 197.11476041666174,
      "v": 65
    },
    {
      "midi": 64,
      "hit": false,
      "t": 76468.50784895825,
      "d": 163.46102083333244,
      "v": 67
    },
    {
      "midi": 60,
      "hit": false,
      "t": 76470.91168749992,
      "d": 144.2303125000035,
      "v": 64
    },
    {
      "midi": 55,
      "hit": false,
      "t": 76473.31552604158,
      "d": 141.8264739583392,
      "v": 59
    },
    {
      "midi": 36,
      "hit": false,
      "t": 76624.75735416659,
      "d": 336.5373958333221,
      "v": 69
    },
    {
      "midi": 64,
      "hit": false,
      "t": 76932.44868749991,
      "d": 182.6917291666614,
      "v": 66
    },
    {
      "midi": 60,
      "hit": false,
      "t": 76934.85252604158,
      "d": 165.86485937499674,
      "v": 70
    },
    {
      "midi": 55,
      "hit": false,
      "t": 76937.25636458324,
      "d": 185.0955677083257,
      "v": 59
    },
    {
      "midi": 36,
      "hit": false,
      "t": 77098.31354687491,
      "d": 93.749703124995,
      "v": 66
    },
    {
      "midi": 60,
      "hit": false,
      "t": 77396.38952604157,
      "d": 103.36505729166674,
      "v": 72
    },
    {
      "midi": 64,
      "hit": false,
      "t": 77396.38952604157,
      "d": 117.7880885416671,
      "v": 75
    },
    {
      "midi": 55,
      "hit": false,
      "t": 77401.1972031249,
      "d": 117.7880885416671,
      "v": 61
    },
    {
      "midi": 36,
      "hit": false,
      "t": 77550.23519270823,
      "d": 314.9028489583143,
      "v": 76
    },
    {
      "midi": 64,
      "hit": false,
      "t": 77853.11884895823,
      "d": 223.55698437499814,
      "v": 61
    },
    {
      "midi": 55,
      "hit": false,
      "t": 77853.11884895823,
      "d": 228.36466145832674,
      "v": 60
    },
    {
      "midi": 58,
      "hit": false,
      "t": 77857.92652604156,
      "d": 180.2878906249971,
      "v": 62
    },
    {
      "midi": 60,
      "hit": false,
      "t": 77857.92652604156,
      "d": 180.2878906249971,
      "v": 67
    },
    {
      "midi": 36,
      "hit": false,
      "t": 78011.77219270822,
      "d": 334.13355729167233,
      "v": 79
    },
    {
      "midi": 58,
      "hit": false,
      "t": 78314.65584895822,
      "d": 146.6341510416678,
      "v": 59
    },
    {
      "midi": 64,
      "hit": false,
      "t": 78314.65584895822,
      "d": 170.67253645832534,
      "v": 66
    },
    {
      "midi": 60,
      "hit": false,
      "t": 78317.05968749989,
      "d": 144.2303125000035,
      "v": 74
    },
    {
      "midi": 55,
      "hit": false,
      "t": 78319.46352604155,
      "d": 161.05718229166814,
      "v": 57
    },
    {
      "midi": 40,
      "hit": false,
      "t": 78475.71303124989,
      "d": 427.8832604166528,
      "v": 73
    },
    {
      "midi": 60,
      "hit": false,
      "t": 78776.19284895822,
      "d": 165.8648593749822,
      "v": 71
    },
    {
      "midi": 58,
      "hit": false,
      "t": 78776.19284895822,
      "d": 170.6725364583108,
      "v": 61
    },
    {
      "midi": 64,
      "hit": false,
      "t": 78781.00052604155,
      "d": 175.48021354165394,
      "v": 66
    },
    {
      "midi": 55,
      "hit": false,
      "t": 78781.00052604155,
      "d": 197.1147604166472,
      "v": 57
    },
    {
      "midi": 36,
      "hit": false,
      "t": 78939.65386979154,
      "d": 346.1527499999793,
      "v": 80
    },
    {
      "midi": 64,
      "hit": false,
      "t": 79235.32601041652,
      "d": 146.6341510416678,
      "v": 57
    },
    {
      "midi": 60,
      "hit": false,
      "t": 79237.72984895819,
      "d": 120.1919270833314,
      "v": 72
    },
    {
      "midi": 58,
      "hit": false,
      "t": 79240.13368749985,
      "d": 84.1343489583378,
      "v": 60
    },
    {
      "midi": 55,
      "hit": false,
      "t": 79242.53752604152,
      "d": 98.55738020833815,
      "v": 57
    },
    {
      "midi": 41,
      "hit": false,
      "t": 79401.19086979152,
      "d": 425.4794218749885,
      "v": 68
    },
    {
      "midi": 60,
      "hit": false,
      "t": 79704.07452604151,
      "d": 189.90324479166884,
      "v": 57
    },
    {
      "midi": 65,
      "hit": false,
      "t": 79708.88220312484,
      "d": 175.4802135416685,
      "v": 59
    },
    {
      "midi": 57,
      "hit": false,
      "t": 79708.88220312484,
      "d": 185.09556770834024,
      "v": 54
    },
    {
      "midi": 36,
      "hit": false,
      "t": 80006.95818229152,
      "d": 367.7872968749871,
      "v": 67
    },
    {
      "midi": 60,
      "hit": false,
      "t": 80168.01536458319,
      "d": 158.6533437499893,
      "v": 68
    },
    {
      "midi": 65,
      "hit": false,
      "t": 80170.41920312485,
      "d": 151.4418281249964,
      "v": 63
    },
    {
      "midi": 57,
      "hit": false,
      "t": 80170.41920312485,
      "d": 175.48021354165394,
      "v": 59
    },
    {
      "midi": 33,
      "hit": false,
      "t": 80319.45719270819,
      "d": 423.0755833333096,
      "v": 56
    },
    {
      "midi": 60,
      "hit": false,
      "t": 80627.1485260415,
      "d": 141.82647395832464,
      "v": 68
    },
    {
      "midi": 65,
      "hit": false,
      "t": 80631.95620312484,
      "d": 151.4418281249964,
      "v": 62
    },
    {
      "midi": 57,
      "hit": false,
      "t": 80631.95620312484,
      "d": 175.4802135416685,
      "v": 59
    },
    {
      "midi": 36,
      "hit": false,
      "t": 80778.5903541665,
      "d": 468.7485156249895,
      "v": 75
    },
    {
      "midi": 60,
      "hit": false,
      "t": 81088.6855260415,
      "d": 141.82647395832464,
      "v": 66
    },
    {
      "midi": 57,
      "hit": false,
      "t": 81088.6855260415,
      "d": 170.6725364583108,
      "v": 56
    },
    {
      "midi": 65,
      "hit": false,
      "t": 81093.49320312483,
      "d": 158.6533437499893,
      "v": 61
    },
    {
      "midi": 41,
      "hit": false,
      "t": 81252.14654687482,
      "d": 439.9024531249888,
      "v": 75
    },
    {
      "midi": 60,
      "hit": false,
      "t": 81550.22252604149,
      "d": 141.82647395832464,
      "v": 66
    },
    {
      "midi": 57,
      "hit": false,
      "t": 81550.22252604149,
      "d": 165.86485937499674,
      "v": 57
    },
    {
      "midi": 65,
      "hit": false,
      "t": 81555.03020312481,
      "d": 137.01879687499604,
      "v": 61
    },
    {
      "midi": 33,
      "hit": false,
      "t": 81701.66435416648,
      "d": 545.6713489583199,
      "v": 75
    },
    {
      "midi": 60,
      "hit": false,
      "t": 82011.75952604148,
      "d": 187.49940624999,
      "v": 68
    },
    {
      "midi": 65,
      "hit": false,
      "t": 82014.16336458315,
      "d": 173.07637499998964,
      "v": 64
    },
    {
      "midi": 57,
      "hit": false,
      "t": 82016.56720312481,
      "d": 187.49940624999,
      "v": 61
    },
    {
      "midi": 36,
      "hit": false,
      "t": 82165.60519270814,
      "d": 449.517807291646,
      "v": 75
    },
    {
      "midi": 60,
      "hit": false,
      "t": 82473.29652604146,
      "d": 161.0571822916536,
      "v": 65
    },
    {
      "midi": 65,
      "hit": false,
      "t": 82475.70036458313,
      "d": 158.6533437499893,
      "v": 59
    },
    {
      "midi": 57,
      "hit": false,
      "t": 82478.10420312479,
      "d": 158.6533437499893,
      "v": 56
    },
    {
      "midi": 41,
      "hit": false,
      "t": 82627.14219270812,
      "d": 423.0755833333096,
      "v": 72
    },
    {
      "midi": 65,
      "hit": false,
      "t": 82934.83352604145,
      "d": 127.40344270832429,
      "v": 64
    },
    {
      "midi": 60,
      "hit": false,
      "t": 82934.83352604145,
      "d": 153.8456666666607,
      "v": 67
    },
    {
      "midi": 57,
      "hit": false,
      "t": 82939.64120312477,
      "d": 137.01879687499604,
      "v": 58
    },
    {
      "midi": 36,
      "hit": false,
      "t": 83088.6791927081,
      "d": 411.0563906250027,
      "v": 82
    },
    {
      "midi": 60,
      "hit": false,
      "t": 83396.37052604144,
      "d": 175.48021354165394,
      "v": 76
    },
    {
      "midi": 64,
      "hit": false,
      "t": 83398.7743645831,
      "d": 134.61495833333174,
      "v": 72
    },
    {
      "midi": 55,
      "hit": false,
      "t": 83401.17820312477,
      "d": 156.249505208325,
      "v": 62
    },
    {
      "midi": 45,
      "hit": false,
      "t": 83550.2161927081,
      "d": 492.78690104164707,
      "v": 58
    },
    {
      "midi": 64,
      "hit": false,
      "t": 83857.90752604142,
      "d": 218.749307291655,
      "v": 67
    },
    {
      "midi": 60,
      "hit": false,
      "t": 83857.90752604142,
      "d": 233.17233854165534,
      "v": 68
    },
    {
      "midi": 55,
      "hit": false,
      "t": 83862.71520312475,
      "d": 233.17233854165534,
      "v": 56
    },
    {
      "midi": 43,
      "hit": false,
      "t": 84011.75319270809,
      "d": 423.0755833333096,
      "v": 67
    },
    {
      "midi": 60,
      "hit": false,
      "t": 84319.4445260414,
      "d": 211.5377916666621,
      "v": 67
    },
    {
      "midi": 55,
      "hit": false,
      "t": 84321.84836458307,
      "d": 213.9416302083264,
      "v": 55
    },
    {
      "midi": 64,
      "hit": false,
      "t": 84324.25220312474,
      "d": 175.4802135416685,
      "v": 66
    },
    {
      "midi": 40,
      "hit": false,
      "t": 84473.29019270807,
      "d": 382.210328125002,
      "v": 57
    },
    {
      "midi": 60,
      "hit": false,
      "t": 84780.9815260414,
      "d": 218.74930729166954,
      "v": 67
    },
    {
      "midi": 64,
      "hit": false,
      "t": 84780.9815260414,
      "d": 223.55698437499814,
      "v": 62
    },
    {
      "midi": 55,
      "hit": false,
      "t": 84785.78920312473,
      "d": 201.9224375000049,
      "v": 54
    },
    {
      "midi": 36,
      "hit": false,
      "t": 84930.01951562474,
      "d": 365.3834583333228,
      "v": 76
    },
    {
      "midi": 60,
      "hit": false,
      "t": 85242.5185260414,
      "d": 237.98001562498393,
      "v": 69
    },
    {
      "midi": 64,
      "hit": false,
      "t": 85242.5185260414,
      "d": 257.2107239583129,
      "v": 61
    },
    {
      "midi": 55,
      "hit": false,
      "t": 85247.32620312473,
      "d": 225.96082291666244,
      "v": 57
    },
    {
      "midi": 36,
      "hit": false,
      "t": 85398.76803124973,
      "d": 396.6333593749878,
      "v": 72
    },
    {
      "midi": 60,
      "hit": false,
      "t": 85704.05552604138,
      "d": 180.2878906249971,
      "v": 65
    },
    {
      "midi": 64,
      "hit": false,
      "t": 85704.05552604138,
      "d": 199.51859895832604,
      "v": 61
    },
    {
      "midi": 55,
      "hit": false,
      "t": 85708.86320312471,
      "d": 189.90324479166884,
      "v": 58
    },
    {
      "midi": 38,
      "hit": false,
      "t": 85857.90119270804,
      "d": 507.20993229166197,
      "v": 67
    },
    {
      "midi": 60,
      "hit": false,
      "t": 86165.59252604138,
      "d": 197.11476041666174,
      "v": 68
    },
    {
      "midi": 64,
      "hit": false,
      "t": 86165.59252604138,
      "d": 218.749307291655,
      "v": 64
    },
    {
      "midi": 55,
      "hit": false,
      "t": 86170.40020312471,
      "d": 213.9416302083264,
      "v": 58
    },
    {
      "midi": 40,
      "hit": false,
      "t": 86319.43819270804,
      "d": 437.49861458331,
      "v": 72
    },
    {
      "midi": 64,
      "hit": false,
      "t": 86627.12952604136,
      "d": 141.82647395832464,
      "v": 65
    },
    {
      "midi": 60,
      "hit": false,
      "t": 86627.12952604136,
      "d": 151.44182812498184,
      "v": 70
    },
    {
      "midi": 55,
      "hit": false,
      "t": 86631.93720312469,
      "d": 105.76889583333104,
      "v": 57
    },
    {
      "midi": 41,
      "hit": false,
      "t": 86771.35983854135,
      "d": 459.1331614583178,
      "v": 68
    },
    {
      "midi": 60,
      "hit": false,
      "t": 87088.66652604134,
      "d": 228.36466145832674,
      "v": 64
    },
    {
      "midi": 57,
      "hit": false,
      "t": 87088.66652604134,
      "d": 257.21072395832743,
      "v": 70
    },
    {
      "midi": 65,
      "hit": false,
      "t": 87093.47420312467,
      "d": 213.9416302083264,
      "v": 69
    },
    {
      "midi": 36,
      "hit": false,
      "t": 87242.512192708,
      "d": 456.729322916668,
      "v": 76
    },
    {
      "midi": 60,
      "hit": false,
      "t": 87550.20352604134,
      "d": 161.0571822916536,
      "v": 65
    },
    {
      "midi": 57,
      "hit": false,
      "t": 87552.607364583,
      "d": 173.07637499998964,
      "v": 54
    },
    {
      "midi": 65,
      "hit": false,
      "t": 87555.01120312467,
      "d": 175.48021354165394,
      "v": 63
    },
    {
      "midi": 33,
      "hit": false,
      "t": 87706.45303124966,
      "d": 444.7101302083174,
      "v": 77
    },
    {
      "midi": 60,
      "hit": false,
      "t": 88011.74052604132,
      "d": 213.9416302083264,
      "v": 71
    },
    {
      "midi": 65,
      "hit": false,
      "t": 88011.74052604132,
      "d": 233.17233854165534,
      "v": 66
    },
    {
      "midi": 57,
      "hit": false,
      "t": 88016.54820312465,
      "d": 194.71092187499744,
      "v": 58
    },
    {
      "midi": 36,
      "hit": false,
      "t": 88163.18235416632,
      "d": 420.6717447916453,
      "v": 67
    },
    {
      "midi": 60,
      "hit": false,
      "t": 88473.2775260413,
      "d": 156.249505208325,
      "v": 66
    },
    {
      "midi": 65,
      "hit": false,
      "t": 88473.2775260413,
      "d": 175.48021354165394,
      "v": 60
    },
    {
      "midi": 57,
      "hit": false,
      "t": 88478.08520312463,
      "d": 170.67253645832534,
      "v": 57
    },
    {
      "midi": 41,
      "hit": false,
      "t": 88619.91167708296,
      "d": 492.78690104164707,
      "v": 73
    },
    {
      "midi": 60,
      "hit": false,
      "t": 88934.81452604129,
      "d": 180.28789062498254,
      "v": 68
    },
    {
      "midi": 65,
      "hit": false,
      "t": 88934.81452604129,
      "d": 199.5185989583115,
      "v": 62
    },
    {
      "midi": 57,
      "hit": false,
      "t": 88939.62220312461,
      "d": 173.07637499998964,
      "v": 58
    },
    {
      "midi": 33,
      "hit": false,
      "t": 89091.06403124961,
      "d": 466.34467708331067,
      "v": 74
    },
    {
      "midi": 65,
      "hit": false,
      "t": 89396.35152604127,
      "d": 180.28789062498254,
      "v": 64
    },
    {
      "midi": 57,
      "hit": false,
      "t": 89401.1592031246,
      "d": 134.61495833333174,
      "v": 58
    },
    {
      "midi": 60,
      "hit": false,
      "t": 89401.1592031246,
      "d": 156.249505208325,
      "v": 67
    },
    {
      "midi": 36,
      "hit": false,
      "t": 89550.19719270793,
      "d": 449.517807291646,
      "v": 78
    },
    {
      "midi": 65,
      "hit": false,
      "t": 89857.88852604125,
      "d": 245.19153124999139,
      "v": 58
    },
    {
      "midi": 60,
      "hit": false,
      "t": 89860.29236458291,
      "d": 221.15314583333384,
      "v": 65
    },
    {
      "midi": 57,
      "hit": false,
      "t": 89862.69620312458,
      "d": 194.71092187499744,
      "v": 58
    },
    {
      "midi": 41,
      "hit": false,
      "t": 90011.73419270791,
      "d": 391.8256822916592,
      "v": 70
    },
    {
      "midi": 60,
      "hit": false,
      "t": 90319.42552604125,
      "d": 134.61495833333174,
      "v": 68
    },
    {
      "midi": 65,
      "hit": false,
      "t": 90319.42552604125,
      "d": 161.05718229166814,
      "v": 63
    },
    {
      "midi": 57,
      "hit": false,
      "t": 90324.23320312458,
      "d": 105.76889583333104,
      "v": 60
    },
    {
      "midi": 43,
      "hit": false,
      "t": 90466.05967708291,
      "d": 454.3254843749892,
      "v": 63
    },
    {
      "midi": 62,
      "hit": false,
      "t": 90780.96252604124,
      "d": 218.74930729166954,
      "v": 72
    },
    {
      "midi": 59,
      "hit": false,
      "t": 90783.36636458291,
      "d": 192.30708333333314,
      "v": 68
    },
    {
      "midi": 67,
      "hit": false,
      "t": 90785.77020312457,
      "d": 175.4802135416685,
      "v": 70
    },
    {
      "midi": 38,
      "hit": false,
      "t": 90934.8081927079,
      "d": 423.0755833333242,
      "v": 77
    },
    {
      "midi": 62,
      "hit": false,
      "t": 91242.49952604124,
      "d": 165.8648593749822,
      "v": 63
    },
    {
      "midi": 59,
      "hit": false,
      "t": 91242.49952604124,
      "d": 173.0763749999751,
      "v": 58
    },
    {
      "midi": 67,
      "hit": false,
      "t": 91247.30720312457,
      "d": 115.38424999998824,
      "v": 62
    },
    {
      "midi": 35,
      "hit": false,
      "t": 91396.34519270789,
      "d": 447.1139687499963,
      "v": 80
    },
    {
      "midi": 62,
      "hit": false,
      "t": 91704.03652604122,
      "d": 293.2683020833356,
      "v": 65
    },
    {
      "midi": 59,
      "hit": false,
      "t": 91706.44036458289,
      "d": 264.4222395833349,
      "v": 60
    },
    {
      "midi": 67,
      "hit": false,
      "t": 91708.84420312455,
      "d": 237.9800156249985,
      "v": 64
    },
    {
      "midi": 33,
      "hit": false,
      "t": 91857.88219270788,
      "d": 370.1911354166805,
      "v": 77
    },
    {
      "midi": 31,
      "hit": false,
      "t": 92317.01535416623,
      "d": 240.38385416664823,
      "v": 79
    },
    {
      "midi": 62,
      "hit": false,
      "t": 92321.82303124956,
      "d": 153.84566666664614,
      "v": 70
    },
    {
      "midi": 59,
      "hit": false,
      "t": 92321.82303124956,
      "d": 175.48021354165394,
      "v": 70
    },
    {
      "midi": 64,
      "hit": false,
      "t": 92329.03454687455,
      "d": 158.6533437499893,
      "v": 82
    },
    {
      "midi": 67,
      "hit": false,
      "t": 92348.26525520788,
      "d": 108.17273437499534,
      "v": 76
    },
    {
      "midi": 31,
      "hit": false,
      "t": 92792.97538541621,
      "d": 185.0955677083257,
      "v": 80
    },
    {
      "midi": 62,
      "hit": false,
      "t": 92795.37922395788,
      "d": 201.92243749999034,
      "v": 78
    },
    {
      "midi": 59,
      "hit": false,
      "t": 92800.1869010412,
      "d": 197.11476041666174,
      "v": 77
    },
    {
      "midi": 67,
      "hit": false,
      "t": 92804.99457812453,
      "d": 163.46102083333244,
      "v": 80
    },
    {
      "midi": 64,
      "hit": false,
      "t": 92807.3984166662,
      "d": 170.6725364583399,
      "v": 76
    },
    {
      "midi": 36,
      "hit": false,
      "t": 94170.3748697912,
      "d": 310.09517187500023,
      "v": 75
    },
    {
      "midi": 60,
      "hit": false,
      "t": 94473.2585260412,
      "d": 146.63415104165324,
      "v": 67
    },
    {
      "midi": 55,
      "hit": false,
      "t": 94478.06620312453,
      "d": 194.71092187499744,
      "v": 62
    },
    {
      "midi": 64,
      "hit": false,
      "t": 94478.06620312453,
      "d": 194.71092187499744,
      "v": 67
    },
    {
      "midi": 36,
      "hit": false,
      "t": 94631.91186979119,
      "d": 326.9220416666649,
      "v": 73
    },
    {
      "midi": 64,
      "hit": false,
      "t": 94934.7955260412,
      "d": 158.6533437499893,
      "v": 64
    },
    {
      "midi": 60,
      "hit": false,
      "t": 94937.19936458286,
      "d": 134.61495833333174,
      "v": 69
    },
    {
      "midi": 55,
      "hit": false,
      "t": 94939.60320312453,
      "d": 153.8456666666607,
      "v": 62
    },
    {
      "midi": 40,
      "hit": false,
      "t": 95088.64119270786,
      "d": 295.6721406249999,
      "v": 67
    },
    {
      "midi": 60,
      "hit": false,
      "t": 95389.12101041619,
      "d": 168.26869791666104,
      "v": 70
    },
    {
      "midi": 55,
      "hit": false,
      "t": 95393.92868749952,
      "d": 163.46102083333244,
      "v": 65
    },
    {
      "midi": 64,
      "hit": false,
      "t": 95393.92868749952,
      "d": 182.6917291666614,
      "v": 70
    },
    {
      "midi": 40,
      "hit": false,
      "t": 95554.98586979118,
      "d": 307.6913333333214,
      "v": 68
    },
    {
      "midi": 64,
      "hit": false,
      "t": 95853.06184895785,
      "d": 163.4610208333179,
      "v": 65
    },
    {
      "midi": 60,
      "hit": false,
      "t": 95857.86952604118,
      "d": 127.40344270832429,
      "v": 68
    },
    {
      "midi": 55,
      "hit": false,
      "t": 95857.86952604118,
      "d": 137.01879687499604,
      "v": 62
    },
    {
      "midi": 41,
      "hit": false,
      "t": 96014.1190312495,
      "d": 307.6913333333214,
      "v": 65
    },
    {
      "midi": 60,
      "hit": false,
      "t": 96319.40652604116,
      "d": 192.3070833333186,
      "v": 67
    },
    {
      "midi": 65,
      "hit": false,
      "t": 96319.40652604116,
      "d": 216.3454687499907,
      "v": 66
    },
    {
      "midi": 57,
      "hit": false,
      "t": 96324.21420312449,
      "d": 211.5377916666621,
      "v": 67
    },
    {
      "midi": 41,
      "hit": false,
      "t": 96475.65603124948,
      "d": 420.6717447916599,
      "v": 62
    },
    {
      "midi": 60,
      "hit": false,
      "t": 96776.13584895781,
      "d": 134.61495833333174,
      "v": 66
    },
    {
      "midi": 57,
      "hit": false,
      "t": 96778.53968749948,
      "d": 149.0379895833321,
      "v": 61
    },
    {
      "midi": 65,
      "hit": false,
      "t": 96780.94352604114,
      "d": 134.61495833333174,
      "v": 57
    },
    {
      "midi": 43,
      "hit": false,
      "t": 96934.7891927078,
      "d": 338.94123437500093,
      "v": 62
    },
    {
      "midi": 59,
      "hit": false,
      "t": 97242.48052604114,
      "d": 161.0571822916536,
      "v": 67
    },
    {
      "midi": 62,
      "hit": false,
      "t": 97242.48052604114,
      "d": 180.28789062498254,
      "v": 66
    },
    {
      "midi": 55,
      "hit": false,
      "t": 97247.28820312447,
      "d": 127.40344270833884,
      "v": 68
    },
    {
      "midi": 43,
      "hit": false,
      "t": 97396.3261927078,
      "d": 391.8256822916446,
      "v": 66
    },
    {
      "midi": 59,
      "hit": false,
      "t": 97704.01752604112,
      "d": 127.40344270832429,
      "v": 63
    },
    {
      "midi": 62,
      "hit": false,
      "t": 97704.01752604112,
      "d": 168.2686979166465,
      "v": 68
    },
    {
      "midi": 55,
      "hit": false,
      "t": 97708.82520312445,
      "d": 137.01879687499604,
      "v": 64
    },
    {
      "midi": 36,
      "hit": false,
      "t": 97853.05551562444,
      "d": 278.84527083333523,
      "v": 77
    },
    {
      "midi": 64,
      "hit": false,
      "t": 98165.5545260411,
      "d": 189.90324479166884,
      "v": 68
    },
    {
      "midi": 60,
      "hit": false,
      "t": 98167.95836458277,
      "d": 177.8840520833328,
      "v": 68
    },
    {
      "midi": 55,
      "hit": false,
      "t": 98170.36220312443,
      "d": 161.05718229166814,
      "v": 62
    },
    {
      "midi": 36,
      "hit": false,
      "t": 98319.40019270776,
      "d": 257.210723958342,
      "v": 72
    },
    {
      "midi": 60,
      "hit": false,
      "t": 98622.28384895777,
      "d": 165.86485937499674,
      "v": 69
    },
    {
      "midi": 64,
      "hit": false,
      "t": 98624.68768749943,
      "d": 163.46102083333244,
      "v": 64
    },
    {
      "midi": 55,
      "hit": false,
      "t": 98627.0915260411,
      "d": 132.21111979166744,
      "v": 61
    },
    {
      "midi": 40,
      "hit": false,
      "t": 98785.7448697911,
      "d": 252.40304687499884,
      "v": 71
    },
    {
      "midi": 60,
      "hit": false,
      "t": 99086.22468749943,
      "d": 182.6917291666614,
      "v": 66
    },
    {
      "midi": 55,
      "hit": false,
      "t": 99088.6285260411,
      "d": 161.05718229166814,
      "v": 61
    },
    {
      "midi": 64,
      "hit": false,
      "t": 99088.6285260411,
      "d": 161.05718229166814,
      "v": 66
    },
    {
      "midi": 40,
      "hit": false,
      "t": 99249.68570833276,
      "d": 247.59536979165568,
      "v": 72
    },
    {
      "midi": 60,
      "hit": false,
      "t": 99545.35784895775,
      "d": 204.32627604165464,
      "v": 66
    },
    {
      "midi": 55,
      "hit": false,
      "t": 99550.16552604108,
      "d": 173.07637499998964,
      "v": 57
    },
    {
      "midi": 64,
      "hit": false,
      "t": 99550.16552604108,
      "d": 175.48021354165394,
      "v": 64
    },
    {
      "midi": 41,
      "hit": false,
      "t": 99701.60735416607,
      "d": 326.92204166665033,
      "v": 60
    },
    {
      "midi": 60,
      "hit": false,
      "t": 100006.89484895773,
      "d": 223.55698437499814,
      "v": 63
    },
    {
      "midi": 57,
      "hit": false,
      "t": 100011.70252604106,
      "d": 218.74930729166954,
      "v": 64
    },
    {
      "midi": 65,
      "hit": false,
      "t": 100011.70252604106,
      "d": 223.55698437499814,
      "v": 65
    },
    {
      "midi": 41,
      "hit": false,
      "t": 100172.75970833273,
      "d": 403.8448749999952,
      "v": 52
    },
    {
      "midi": 60,
      "hit": false,
      "t": 100466.02801041606,
      "d": 144.23031249998894,
      "v": 65
    },
    {
      "midi": 65,
      "hit": false,
      "t": 100470.83568749939,
      "d": 144.23031249998894,
      "v": 62
    },
    {
      "midi": 57,
      "hit": false,
      "t": 100470.83568749939,
      "d": 163.4610208333179,
      "v": 65
    },
    {
      "midi": 43,
      "hit": false,
      "t": 100627.08519270772,
      "d": 274.0375937499921,
      "v": 65
    },
    {
      "midi": 62,
      "hit": false,
      "t": 100932.37268749937,
      "d": 201.92243749999034,
      "v": 69
    },
    {
      "midi": 59,
      "hit": false,
      "t": 100934.77652604104,
      "d": 180.2878906249971,
      "v": 67
    },
    {
      "midi": 55,
      "hit": false,
      "t": 100934.77652604104,
      "d": 185.0955677083257,
      "v": 66
    },
    {
      "midi": 43,
      "hit": false,
      "t": 101088.6221927077,
      "d": 331.7297187499935,
      "v": 71
    },
    {
      "midi": 59,
      "hit": false,
      "t": 101396.31352604103,
      "d": 141.82647395832464,
      "v": 68
    },
    {
      "midi": 62,
      "hit": false,
      "t": 101396.31352604103,
      "d": 180.2878906249971,
      "v": 71
    },
    {
      "midi": 55,
      "hit": false,
      "t": 101401.12120312436,
      "d": 149.0379895833321,
      "v": 67
    },
    {
      "midi": 36,
      "hit": false,
      "t": 101547.75535416603,
      "d": 259.6145625000063,
      "v": 77
    },
    {
      "midi": 64,
      "hit": false,
      "t": 101855.44668749937,
      "d": 182.6917291666614,
      "v": 69
    },
    {
      "midi": 60,
      "hit": false,
      "t": 101857.85052604103,
      "d": 218.749307291655,
      "v": 67
    },
    {
      "midi": 55,
      "hit": false,
      "t": 101860.2543645827,
      "d": 182.6917291666614,
      "v": 58
    },
    {
      "midi": 36,
      "hit": false,
      "t": 102018.9077083327,
      "d": 288.46062499999243,
      "v": 71
    },
    {
      "midi": 60,
      "hit": false,
      "t": 102314.57984895768,
      "d": 185.0955677083257,
      "v": 62
    },
    {
      "midi": 64,
      "hit": false,
      "t": 102316.98368749935,
      "d": 163.46102083333244,
      "v": 63
    },
    {
      "midi": 55,
      "hit": false,
      "t": 102316.98368749935,
      "d": 168.26869791666104,
      "v": 60
    },
    {
      "midi": 40,
      "hit": false,
      "t": 102473.23319270769,
      "d": 242.78769270832709,
      "v": 62
    },
    {
      "midi": 60,
      "hit": false,
      "t": 102776.11684895768,
      "d": 165.86485937499674,
      "v": 63
    },
    {
      "midi": 64,
      "hit": false,
      "t": 102780.92452604101,
      "d": 161.05718229166814,
      "v": 64
    },
    {
      "midi": 55,
      "hit": false,
      "t": 102780.92452604101,
      "d": 165.86485937499674,
      "v": 61
    },
    {
      "midi": 40,
      "hit": false,
      "t": 102937.17403124935,
      "d": 225.96082291666244,
      "v": 73
    },
    {
      "midi": 60,
      "hit": false,
      "t": 103237.65384895768,
      "d": 149.0379895833321,
      "v": 64
    },
    {
      "midi": 64,
      "hit": false,
      "t": 103240.05768749934,
      "d": 151.4418281249964,
      "v": 64
    },
    {
      "midi": 55,
      "hit": false,
      "t": 103242.461526041,
      "d": 120.1919270833314,
      "v": 60
    },
    {
      "midi": 41,
      "hit": false,
      "t": 103398.71103124933,
      "d": 274.03759375000664,
      "v": 58
    },
    {
      "midi": 60,
      "hit": false,
      "t": 103699.19084895767,
      "d": 197.1147604166472,
      "v": 64
    },
    {
      "midi": 57,
      "hit": false,
      "t": 103701.59468749934,
      "d": 180.2878906249971,
      "v": 67
    },
    {
      "midi": 65,
      "hit": false,
      "t": 103703.998526041,
      "d": 185.0955677083257,
      "v": 69
    },
    {
      "midi": 41,
      "hit": false,
      "t": 103862.651869791,
      "d": 413.4602291666379,
      "v": 55
    },
    {
      "midi": 60,
      "hit": false,
      "t": 104160.72784895766,
      "d": 124.99960416664544,
      "v": 66
    },
    {
      "midi": 65,
      "hit": false,
      "t": 104165.53552604099,
      "d": 115.38424999998824,
      "v": 62
    },
    {
      "midi": 57,
      "hit": false,
      "t": 104165.53552604099,
      "d": 137.0187968749815,
      "v": 66
    },
    {
      "midi": 43,
      "hit": false,
      "t": 104319.38119270763,
      "d": 310.0951718749857,
      "v": 67
    },
    {
      "midi": 59,
      "hit": false,
      "t": 104622.26484895762,
      "d": 185.0955677083257,
      "v": 67
    },
    {
      "midi": 55,
      "hit": false,
      "t": 104627.07252604095,
      "d": 177.8840520833328,
      "v": 66
    },
    {
      "midi": 62,
      "hit": false,
      "t": 104627.07252604095,
      "d": 177.8840520833328,
      "v": 73
    },
    {
      "midi": 43,
      "hit": false,
      "t": 104788.12970833262,
      "d": 389.4218437499949,
      "v": 68
    },
    {
      "midi": 59,
      "hit": false,
      "t": 105088.60952604095,
      "d": 108.17273437499534,
      "v": 63
    },
    {
      "midi": 62,
      "hit": false,
      "t": 105088.60952604095,
      "d": 146.63415104165324,
      "v": 69
    },
    {
      "midi": 55,
      "hit": false,
      "t": 105093.41720312428,
      "d": 122.59576562499569,
      "v": 62
    },
    {
      "midi": 36,
      "hit": false,
      "t": 105244.85903124927,
      "d": 293.2683020833356,
      "v": 67
    },
    {
      "midi": 60,
      "hit": false,
      "t": 105545.3388489576,
      "d": 211.5377916666621,
      "v": 68
    },
    {
      "midi": 64,
      "hit": false,
      "t": 105547.74268749927,
      "d": 206.7301145833335,
      "v": 67
    },
    {
      "midi": 55,
      "hit": false,
      "t": 105550.14652604093,
      "d": 180.2878906249971,
      "v": 65
    },
    {
      "midi": 36,
      "hit": false,
      "t": 105703.99219270759,
      "d": 264.4222395833349,
      "v": 70
    },
    {
      "midi": 60,
      "hit": false,
      "t": 106004.47201041592,
      "d": 187.49940624999,
      "v": 69
    },
    {
      "midi": 55,
      "hit": false,
      "t": 106006.87584895758,
      "d": 185.0955677083257,
      "v": 64
    },
    {
      "midi": 64,
      "hit": false,
      "t": 106011.68352604091,
      "d": 156.249505208325,
      "v": 66
    },
    {
      "midi": 40,
      "hit": false,
      "t": 106165.52919270757,
      "d": 302.88365625000733,
      "v": 72
    },
    {
      "midi": 60,
      "hit": false,
      "t": 106475.62436458257,
      "d": 177.88405208331824,
      "v": 62
    },
    {
      "midi": 64,
      "hit": false,
      "t": 106478.02820312424,
      "d": 153.8456666666607,
      "v": 62
    },
    {
      "midi": 55,
      "hit": false,
      "t": 106480.4320416659,
      "d": 153.8456666666607,
      "v": 55
    },
    {
      "midi": 40,
      "hit": false,
      "t": 106629.47003124924,
      "d": 293.26830208332103,
      "v": 59
    },
    {
      "midi": 60,
      "hit": false,
      "t": 106932.35368749923,
      "d": 146.6341510416678,
      "v": 62
    },
    {
      "midi": 64,
      "hit": false,
      "t": 106937.16136458256,
      "d": 146.6341510416678,
      "v": 63
    },
    {
      "midi": 55,
      "hit": false,
      "t": 106939.56520312422,
      "d": 115.3842500000028,
      "v": 57
    },
    {
      "midi": 41,
      "hit": false,
      "t": 107091.00703124922,
      "d": 336.53739583333663,
      "v": 65
    },
    {
      "midi": 57,
      "hit": false,
      "t": 107396.29452604089,
      "d": 237.98001562498393,
      "v": 62
    },
    {
      "midi": 60,
      "hit": false,
      "t": 107396.29452604089,
      "d": 237.98001562498393,
      "v": 63
    },
    {
      "midi": 65,
      "hit": false,
      "t": 107401.10220312422,
      "d": 213.9416302083264,
      "v": 58
    },
    {
      "midi": 41,
      "hit": false,
      "t": 107552.54403124921,
      "d": 408.6525520833238,
      "v": 47
    },
    {
      "midi": 60,
      "hit": false,
      "t": 107855.4276874992,
      "d": 168.26869791666104,
      "v": 65
    },
    {
      "midi": 65,
      "hit": false,
      "t": 107857.83152604087,
      "d": 132.21111979166744,
      "v": 59
    },
    {
      "midi": 57,
      "hit": false,
      "t": 107860.23536458254,
      "d": 153.8456666666607,
      "v": 61
    },
    {
      "midi": 43,
      "hit": false,
      "t": 108006.8695156242,
      "d": 314.90284895832883,
      "v": 61
    },
    {
      "midi": 59,
      "hit": false,
      "t": 108319.36852604087,
      "d": 156.249505208325,
      "v": 62
    },
    {
      "midi": 62,
      "hit": false,
      "t": 108319.36852604087,
      "d": 180.2878906249971,
      "v": 67
    },
    {
      "midi": 55,
      "hit": false,
      "t": 108324.1762031242,
      "d": 175.4802135416685,
      "v": 61
    },
    {
      "midi": 43,
      "hit": false,
      "t": 108468.4065156242,
      "d": 185.0955677083257,
      "v": 68
    },
    {
      "midi": 59,
      "hit": false,
      "t": 108780.90552604086,
      "d": 129.8072812499886,
      "v": 65
    },
    {
      "midi": 62,
      "hit": false,
      "t": 108780.90552604086,
      "d": 141.82647395832464,
      "v": 67
    },
    {
      "midi": 55,
      "hit": false,
      "t": 108785.71320312419,
      "d": 137.01879687499604,
      "v": 64
    },
    {
      "midi": 43,
      "hit": false,
      "t": 108785.71320312419,
      "d": 153.8456666666607,
      "v": 69
    },
    {
      "midi": 36,
      "hit": false,
      "t": 108929.94351562418,
      "d": 326.9220416666649,
      "v": 77
    },
    {
      "midi": 64,
      "hit": false,
      "t": 109237.63484895752,
      "d": 249.99920833333454,
      "v": 63
    },
    {
      "midi": 55,
      "hit": false,
      "t": 109242.44252604085,
      "d": 218.74930729166954,
      "v": 60
    },
    {
      "midi": 60,
      "hit": false,
      "t": 109242.44252604085,
      "d": 247.59536979167024,
      "v": 65
    },
    {
      "midi": 36,
      "hit": false,
      "t": 109401.09586979085,
      "d": 319.71052604165743,
      "v": 72
    },
    {
      "midi": 60,
      "hit": false,
      "t": 109699.17184895751,
      "d": 223.55698437498359,
      "v": 58
    },
    {
      "midi": 55,
      "hit": false,
      "t": 109703.97952604084,
      "d": 192.30708333333314,
      "v": 55
    },
    {
      "midi": 64,
      "hit": false,
      "t": 109703.97952604084,
      "d": 197.11476041666174,
      "v": 61
    },
    {
      "midi": 40,
      "hit": false,
      "t": 109857.8251927075,
      "d": 334.1335572916578,
      "v": 71
    },
    {
      "midi": 60,
      "hit": false,
      "t": 110160.7088489575,
      "d": 216.3454687499907,
      "v": 58
    },
    {
      "midi": 55,
      "hit": false,
      "t": 110165.51652604082,
      "d": 192.30708333333314,
      "v": 54
    },
    {
      "midi": 64,
      "hit": false,
      "t": 110165.51652604082,
      "d": 197.11476041666174,
      "v": 60
    },
    {
      "midi": 40,
      "hit": false,
      "t": 110326.5737083325,
      "d": 336.5373958333221,
      "v": 54
    },
    {
      "midi": 60,
      "hit": false,
      "t": 110619.84201041581,
      "d": 187.49940624999,
      "v": 66
    },
    {
      "midi": 64,
      "hit": false,
      "t": 110622.24584895748,
      "d": 163.46102083333244,
      "v": 68
    },
    {
      "midi": 55,
      "hit": false,
      "t": 110624.64968749914,
      "d": 129.80728125000314,
      "v": 58
    },
    {
      "midi": 41,
      "hit": false,
      "t": 110783.30303124915,
      "d": 293.26830208332103,
      "v": 61
    },
    {
      "midi": 60,
      "hit": false,
      "t": 111086.18668749914,
      "d": 209.13395312498324,
      "v": 62
    },
    {
      "midi": 65,
      "hit": false,
      "t": 111088.5905260408,
      "d": 225.96082291664788,
      "v": 64
    },
    {
      "midi": 57,
      "hit": false,
      "t": 111090.99436458247,
      "d": 221.1531458333193,
      "v": 61
    },
    {
      "midi": 41,
      "hit": false,
      "t": 111244.84003124913,
      "d": 341.3450729166507,
      "v": 56
    },
    {
      "midi": 60,
      "hit": false,
      "t": 111545.31984895746,
      "d": 146.63415104165324,
      "v": 64
    },
    {
      "midi": 65,
      "hit": false,
      "t": 111550.12752604079,
      "d": 139.42263541666034,
      "v": 64
    },
    {
      "midi": 57,
      "hit": false,
      "t": 111550.12752604079,
      "d": 144.23031249998894,
      "v": 66
    },
    {
      "midi": 43,
      "hit": false,
      "t": 111701.56935416577,
      "d": 312.49901041666453,
      "v": 70
    },
    {
      "midi": 59,
      "hit": false,
      "t": 112011.66452604077,
      "d": 158.6533437499893,
      "v": 62
    },
    {
      "midi": 62,
      "hit": false,
      "t": 112011.66452604077,
      "d": 189.9032447916543,
      "v": 63
    },
    {
      "midi": 55,
      "hit": false,
      "t": 112016.4722031241,
      "d": 173.07637499998964,
      "v": 61
    },
    {
      "midi": 43,
      "hit": false,
      "t": 112165.51019270743,
      "d": 312.49901041665,
      "v": 70
    },
    {
      "midi": 59,
      "hit": false,
      "t": 112473.20152604075,
      "d": 115.38424999998824,
      "v": 62
    },
    {
      "midi": 62,
      "hit": false,
      "t": 112473.20152604075,
      "d": 153.8456666666607,
      "v": 65
    },
    {
      "midi": 55,
      "hit": false,
      "t": 112478.00920312408,
      "d": 137.01879687499604,
      "v": 62
    },
    {
      "midi": 36,
      "hit": false,
      "t": 112624.64335416575,
      "d": 278.84527083333523,
      "v": 79
    },
    {
      "midi": 60,
      "hit": false,
      "t": 112929.93084895742,
      "d": 209.1339531249978,
      "v": 70
    },
    {
      "midi": 64,
      "hit": false,
      "t": 112934.73852604075,
      "d": 209.1339531249978,
      "v": 60
    },
    {
      "midi": 55,
      "hit": false,
      "t": 112934.73852604075,
      "d": 213.9416302083264,
      "v": 59
    },
    {
      "midi": 36,
      "hit": false,
      "t": 113093.39186979075,
      "d": 240.3838541666628,
      "v": 73
    },
    {
      "midi": 60,
      "hit": false,
      "t": 113391.46784895741,
      "d": 180.28789062498254,
      "v": 65
    },
    {
      "midi": 64,
      "hit": false,
      "t": 113396.27552604074,
      "d": 161.0571822916536,
      "v": 65
    },
    {
      "midi": 55,
      "hit": false,
      "t": 113396.27552604074,
      "d": 165.8648593749822,
      "v": 58
    },
    {
      "midi": 40,
      "hit": false,
      "t": 113550.1211927074,
      "d": 319.7105260416429,
      "v": 72
    },
    {
      "midi": 60,
      "hit": false,
      "t": 113857.81252604073,
      "d": 180.28789062498254,
      "v": 59
    },
    {
      "midi": 64,
      "hit": false,
      "t": 113857.81252604073,
      "d": 180.28789062498254,
      "v": 61
    },
    {
      "midi": 55,
      "hit": false,
      "t": 113862.62020312405,
      "d": 156.249505208325,
      "v": 55
    },
    {
      "midi": 40,
      "hit": false,
      "t": 114016.46586979071,
      "d": 240.3838541666628,
      "v": 75
    },
    {
      "midi": 64,
      "hit": false,
      "t": 114316.94568749904,
      "d": 168.26869791666104,
      "v": 62
    },
    {
      "midi": 60,
      "hit": false,
      "t": 114319.3495260407,
      "d": 170.67253645832534,
      "v": 66
    },
    {
      "midi": 55,
      "hit": false,
      "t": 114321.75336458237,
      "d": 139.42263541666034,
      "v": 61
    },
    {
      "midi": 41,
      "hit": false,
      "t": 114475.59903124903,
      "d": 293.2683020833356,
      "v": 62
    },
    {
      "midi": 60,
      "hit": false,
      "t": 114776.07884895736,
      "d": 197.11476041666174,
      "v": 63
    },
    {
      "midi": 65,
      "hit": false,
      "t": 114778.48268749902,
      "d": 168.26869791666104,
      "v": 68
    },
    {
      "midi": 57,
      "hit": false,
      "t": 114778.48268749902,
      "d": 194.71092187499744,
      "v": 66
    },
    {
      "midi": 41,
      "hit": false,
      "t": 114941.94370833236,
      "d": 362.9796197916585,
      "v": 66
    },
    {
      "midi": 60,
      "hit": false,
      "t": 115237.61584895736,
      "d": 165.8648593749822,
      "v": 64
    },
    {
      "midi": 65,
      "hit": false,
      "t": 115242.42352604069,
      "d": 141.82647395832464,
      "v": 63
    },
    {
      "midi": 57,
      "hit": false,
      "t": 115242.42352604069,
      "d": 156.249505208325,
      "v": 62
    },
    {
      "midi": 43,
      "hit": false,
      "t": 115396.26919270735,
      "d": 334.1335572916432,
      "v": 64
    },
    {
      "midi": 59,
      "hit": false,
      "t": 115703.96052604067,
      "d": 192.30708333333314,
      "v": 61
    },
    {
      "midi": 62,
      "hit": false,
      "t": 115703.96052604067,
      "d": 192.30708333333314,
      "v": 70
    },
    {
      "midi": 55,
      "hit": false,
      "t": 115708.768203124,
      "d": 163.46102083333244,
      "v": 57
    },
    {
      "midi": 43,
      "hit": false,
      "t": 115857.80619270733,
      "d": 319.71052604165743,
      "v": 76
    },
    {
      "midi": 62,
      "hit": false,
      "t": 116165.49752604066,
      "d": 141.8264739583392,
      "v": 70
    },
    {
      "midi": 59,
      "hit": false,
      "t": 116167.90136458233,
      "d": 115.3842500000028,
      "v": 62
    },
    {
      "midi": 55,
      "hit": false,
      "t": 116170.305203124,
      "d": 103.36505729166674,
      "v": 65
    },
    {
      "midi": 36,
      "hit": false,
      "t": 116316.93935416568,
      "d": 295.6721406249999,
      "v": 77
    },
    {
      "midi": 64,
      "hit": false,
      "t": 116622.22684895735,
      "d": 201.92243749999034,
      "v": 75
    },
    {
      "midi": 55,
      "hit": false,
      "t": 116627.03452604068,
      "d": 161.05718229166814,
      "v": 67
    },
    {
      "midi": 60,
      "hit": false,
      "t": 116627.03452604068,
      "d": 192.30708333333314,
      "v": 68
    },
    {
      "midi": 36,
      "hit": false,
      "t": 116785.68786979068,
      "d": 221.1531458333193,
      "v": 78
    },
    {
      "midi": 60,
      "hit": false,
      "t": 117083.76384895733,
      "d": 161.0571822916536,
      "v": 69
    },
    {
      "midi": 64,
      "hit": false,
      "t": 117083.76384895733,
      "d": 189.9032447916543,
      "v": 67
    },
    {
      "midi": 55,
      "hit": false,
      "t": 117088.57152604066,
      "d": 161.0571822916536,
      "v": 61
    },
    {
      "midi": 40,
      "hit": false,
      "t": 117242.41719270732,
      "d": 310.09517187500023,
      "v": 76
    },
    {
      "midi": 64,
      "hit": false,
      "t": 117550.10852604065,
      "d": 177.88405208331824,
      "v": 74
    },
    {
      "midi": 60,
      "hit": false,
      "t": 117550.10852604065,
      "d": 180.28789062498254,
      "v": 61
    },
    {
      "midi": 55,
      "hit": false,
      "t": 117554.91620312398,
      "d": 153.8456666666607,
      "v": 62
    },
    {
      "midi": 40,
      "hit": false,
      "t": 117703.95419270732,
      "d": 257.21072395832743,
      "v": 71
    },
    {
      "midi": 60,
      "hit": false,
      "t": 118006.83784895731,
      "d": 149.0379895833321,
      "v": 69
    },
    {
      "midi": 55,
      "hit": false,
      "t": 118011.64552604064,
      "d": 117.7880885416671,
      "v": 65
    },
    {
      "midi": 64,
      "hit": false,
      "t": 118011.64552604064,
      "d": 165.86485937499674,
      "v": 73
    },
    {
      "midi": 41,
      "hit": false,
      "t": 118170.29886979064,
      "d": 300.4798177083285,
      "v": 61
    },
    {
      "midi": 57,
      "hit": false,
      "t": 118468.3748489573,
      "d": 221.1531458333193,
      "v": 70
    },
    {
      "midi": 60,
      "hit": false,
      "t": 118468.3748489573,
      "d": 237.98001562498393,
      "v": 75
    },
    {
      "midi": 65,
      "hit": false,
      "t": 118473.18252604063,
      "d": 216.3454687499907,
      "v": 69
    },
    {
      "midi": 41,
      "hit": false,
      "t": 118627.0281927073,
      "d": 389.4218437499949,
      "v": 65
    },
    {
      "midi": 65,
      "hit": false,
      "t": 118929.91184895729,
      "d": 112.9804114583385,
      "v": 66
    },
    {
      "midi": 60,
      "hit": false,
      "t": 118929.91184895729,
      "d": 161.05718229166814,
      "v": 69
    },
    {
      "midi": 57,
      "hit": false,
      "t": 118934.71952604062,
      "d": 141.8264739583392,
      "v": 68
    },
    {
      "midi": 43,
      "hit": false,
      "t": 119088.56519270729,
      "d": 334.1335572916578,
      "v": 66
    },
    {
      "midi": 62,
      "hit": false,
      "t": 119396.25652604063,
      "d": 175.48021354165394,
      "v": 76
    },
    {
      "midi": 59,
      "hit": false,
      "t": 119396.25652604063,
      "d": 189.9032447916543,
      "v": 71
    },
    {
      "midi": 55,
      "hit": false,
      "t": 119401.06420312395,
      "d": 163.46102083333244,
      "v": 64
    },
    {
      "midi": 43,
      "hit": false,
      "t": 119550.10219270729,
      "d": 312.49901041665,
      "v": 74
    },
    {
      "midi": 59,
      "hit": false,
      "t": 119857.79352604061,
      "d": 120.1919270833314,
      "v": 67
    },
    {
      "midi": 62,
      "hit": false,
      "t": 119857.79352604061,
      "d": 144.2303125000035,
      "v": 73
    },
    {
      "midi": 55,
      "hit": false,
      "t": 119862.60120312394,
      "d": 156.24950520833954,
      "v": 63
    },
    {
      "midi": 43,
      "hit": false,
      "t": 120009.2353541656,
      "d": 158.65334375000384,
      "v": 68
    },
    {
      "midi": 64,
      "hit": false,
      "t": 120314.52284895728,
      "d": 223.55698437498359,
      "v": 75
    },
    {
      "midi": 60,
      "hit": false,
      "t": 120316.92668749894,
      "d": 201.92243749999034,
      "v": 74
    },
    {
      "midi": 55,
      "hit": false,
      "t": 120319.3305260406,
      "d": 194.71092187499744,
      "v": 67
    },
    {
      "midi": 38,
      "hit": false,
      "t": 120477.98386979061,
      "d": 394.2295208333089,
      "v": 77
    },
    {
      "midi": 60,
      "hit": false,
      "t": 120778.46368749892,
      "d": 149.03798958331754,
      "v": 67
    },
    {
      "midi": 55,
      "hit": false,
      "t": 120780.86752604059,
      "d": 141.82647395832464,
      "v": 66
    },
    {
      "midi": 64,
      "hit": false,
      "t": 120780.86752604059,
      "d": 161.0571822916536,
      "v": 72
    },
    {
      "midi": 40,
      "hit": false,
      "t": 120939.52086979058,
      "d": 307.6913333333214,
      "v": 74
    },
    {
      "midi": 64,
      "hit": false,
      "t": 121240.0006874989,
      "d": 163.4610208333179,
      "v": 73
    },
    {
      "midi": 60,
      "hit": false,
      "t": 121242.40452604057,
      "d": 139.42263541666034,
      "v": 69
    },
    {
      "midi": 55,
      "hit": false,
      "t": 121242.40452604057,
      "d": 146.63415104165324,
      "v": 62
    },
    {
      "midi": 40,
      "hit": false,
      "t": 121401.05786979056,
      "d": 180.2878906249971,
      "v": 73
    },
    {
      "midi": 60,
      "hit": false,
      "t": 121703.94152604055,
      "d": 141.82647395832464,
      "v": 73
    },
    {
      "midi": 64,
      "hit": false,
      "t": 121703.94152604055,
      "d": 156.249505208325,
      "v": 74
    },
    {
      "midi": 55,
      "hit": false,
      "t": 121708.74920312388,
      "d": 137.01879687499604,
      "v": 64
    },
    {
      "midi": 60,
      "hit": false,
      "t": 122160.6708489572,
      "d": 262.01840104165603,
      "v": 67
    },
    {
      "midi": 64,
      "hit": false,
      "t": 122165.47852604053,
      "d": 242.78769270832709,
      "v": 69
    },
    {
      "midi": 55,
      "hit": false,
      "t": 122165.47852604053,
      "d": 262.01840104165603,
      "v": 57
    },
    {
      "midi": 64,
      "hit": false,
      "t": 122622.20784895719,
      "d": 124.99960416664544,
      "v": 74
    },
    {
      "midi": 55,
      "hit": false,
      "t": 122627.01552604052,
      "d": 110.57657291665964,
      "v": 62
    },
    {
      "midi": 60,
      "hit": false,
      "t": 122627.01552604052,
      "d": 115.38424999998824,
      "v": 71
    },
    {
      "midi": 36,
      "hit": false,
      "t": 122783.26503124883,
      "d": 274.03759375000664,
      "v": 72
    },
    {
      "midi": 60,
      "hit": false,
      "t": 123088.5525260405,
      "d": 185.0955677083257,
      "v": 66
    },
    {
      "midi": 55,
      "hit": false,
      "t": 123088.5525260405,
      "d": 206.73011458331894,
      "v": 57
    },
    {
      "midi": 58,
      "hit": false,
      "t": 123093.36020312383,
      "d": 163.46102083333244,
      "v": 58
    },
    {
      "midi": 64,
      "hit": false,
      "t": 123093.36020312383,
      "d": 187.49940624999,
      "v": 66
    },
    {
      "midi": 36,
      "hit": false,
      "t": 123242.39819270716,
      "d": 180.2878906249971,
      "v": 73
    },
    {
      "midi": 60,
      "hit": false,
      "t": 123550.0895260405,
      "d": 127.40344270832429,
      "v": 71
    },
    {
      "midi": 64,
      "hit": false,
      "t": 123550.0895260405,
      "d": 144.23031249998894,
      "v": 69
    },
    {
      "midi": 55,
      "hit": false,
      "t": 123554.89720312382,
      "d": 79.32667187499464,
      "v": 55
    },
    {
      "midi": 58,
      "hit": false,
      "t": 123557.30104166549,
      "d": 72.11515625000175,
      "v": 62
    },
    {
      "midi": 41,
      "hit": false,
      "t": 123701.53135416548,
      "d": 451.9216458333249,
      "v": 76
    },
    {
      "midi": 57,
      "hit": false,
      "t": 124011.62652604048,
      "d": 187.49940624999,
      "v": 59
    },
    {
      "midi": 60,
      "hit": false,
      "t": 124011.62652604048,
      "d": 192.3070833333186,
      "v": 61
    },
    {
      "midi": 65,
      "hit": false,
      "t": 124016.4342031238,
      "d": 182.6917291666614,
      "v": 63
    },
    {
      "midi": 36,
      "hit": false,
      "t": 124165.47219270714,
      "d": 274.0375937499921,
      "v": 73
    },
    {
      "midi": 65,
      "hit": false,
      "t": 124473.16352604046,
      "d": 216.34546875000524,
      "v": 65
    },
    {
      "midi": 60,
      "hit": false,
      "t": 124473.16352604046,
      "d": 218.74930729166954,
      "v": 68
    },
    {
      "midi": 57,
      "hit": false,
      "t": 124477.97120312379,
      "d": 187.49940625000454,
      "v": 61
    },
    {
      "midi": 33,
      "hit": false,
      "t": 124627.00919270712,
      "d": 418.2679062499956,
      "v": 70
    },
    {
      "midi": 60,
      "hit": false,
      "t": 124934.70052604045,
      "d": 141.82647395832464,
      "v": 64
    },
    {
      "midi": 65,
      "hit": false,
      "t": 124934.70052604045,
      "d": 180.2878906249971,
      "v": 55
    },
    {
      "midi": 57,
      "hit": false,
      "t": 124937.10436458212,
      "d": 163.46102083333244,
      "v": 55
    },
    {
      "midi": 36,
      "hit": false,
      "t": 125086.14235416545,
      "d": 447.1139687499963,
      "v": 80
    },
    {
      "midi": 65,
      "hit": false,
      "t": 125401.04520312378,
      "d": 194.7109218749829,
      "v": 59
    },
    {
      "midi": 60,
      "hit": false,
      "t": 125405.85288020711,
      "d": 165.86485937499674,
      "v": 64
    },
    {
      "midi": 57,
      "hit": false,
      "t": 125405.85288020711,
      "d": 168.26869791666104,
      "v": 57
    },
    {
      "midi": 41,
      "hit": false,
      "t": 125552.48703124878,
      "d": 485.57538541665417,
      "v": 68
    },
    {
      "midi": 57,
      "hit": false,
      "t": 125857.77452604043,
      "d": 218.74930729166954,
      "v": 57
    },
    {
      "midi": 60,
      "hit": false,
      "t": 125860.1783645821,
      "d": 187.49940625000454,
      "v": 65
    },
    {
      "midi": 65,
      "hit": false,
      "t": 125862.58220312376,
      "d": 209.13395312501234,
      "v": 58
    },
    {
      "midi": 33,
      "hit": false,
      "t": 126011.6201927071,
      "d": 514.4214479166694,
      "v": 82
    },
    {
      "midi": 60,
      "hit": false,
      "t": 126319.31152604043,
      "d": 216.34546875000524,
      "v": 67
    },
    {
      "midi": 57,
      "hit": false,
      "t": 126319.31152604043,
      "d": 218.74930729166954,
      "v": 58
    },
    {
      "midi": 65,
      "hit": false,
      "t": 126324.11920312376,
      "d": 223.5569843750127,
      "v": 62
    },
    {
      "midi": 36,
      "hit": false,
      "t": 126473.15719270709,
      "d": 430.2870989583462,
      "v": 79
    },
    {
      "midi": 60,
      "hit": false,
      "t": 126780.84852604044,
      "d": 230.76849999999104,
      "v": 63
    },
    {
      "midi": 57,
      "hit": false,
      "t": 126785.65620312377,
      "d": 194.71092187499744,
      "v": 57
    },
    {
      "midi": 65,
      "hit": false,
      "t": 126785.65620312377,
      "d": 218.74930729166954,
      "v": 58
    },
    {
      "midi": 41,
      "hit": false,
      "t": 126934.6941927071,
      "d": 389.4218437499949,
      "v": 67
    },
    {
      "midi": 65,
      "hit": false,
      "t": 127242.38552604044,
      "d": 144.23031249998894,
      "v": 65
    },
    {
      "midi": 60,
      "hit": false,
      "t": 127242.38552604044,
      "d": 175.48021354165394,
      "v": 66
    },
    {
      "midi": 57,
      "hit": false,
      "t": 127247.19320312377,
      "d": 161.0571822916536,
      "v": 58
    },
    {
      "midi": 36,
      "hit": false,
      "t": 127391.42351562376,
      "d": 420.6717447916599,
      "v": 76
    },
    {
      "midi": 60,
      "hit": false,
      "t": 127703.92252604042,
      "d": 199.5185989583115,
      "v": 65
    },
    {
      "midi": 64,
      "hit": false,
      "t": 127708.73020312375,
      "d": 151.4418281249964,
      "v": 61
    },
    {
      "midi": 55,
      "hit": false,
      "t": 127708.73020312375,
      "d": 173.07637499998964,
      "v": 63
    },
    {
      "midi": 45,
      "hit": false,
      "t": 127857.76819270708,
      "d": 487.97922395831847,
      "v": 71
    },
    {
      "midi": 64,
      "hit": false,
      "t": 128165.4595260404,
      "d": 180.2878906249971,
      "v": 59
    },
    {
      "midi": 60,
      "hit": false,
      "t": 128165.4595260404,
      "d": 204.32627604165464,
      "v": 63
    },
    {
      "midi": 55,
      "hit": false,
      "t": 128170.26720312373,
      "d": 180.2878906249971,
      "v": 56
    },
    {
      "midi": 43,
      "hit": false,
      "t": 128319.30519270706,
      "d": 430.2870989583316,
      "v": 72
    },
    {
      "midi": 60,
      "hit": false,
      "t": 128629.40036458206,
      "d": 213.94163020834094,
      "v": 68
    },
    {
      "midi": 64,
      "hit": false,
      "t": 128631.80420312373,
      "d": 187.49940625000454,
      "v": 61
    },
    {
      "midi": 55,
      "hit": false,
      "t": 128634.20804166539,
      "d": 209.13395312501234,
      "v": 59
    },
    {
      "midi": 40,
      "hit": false,
      "t": 128780.84219270706,
      "d": 389.42184375000943,
      "v": 63
    },
    {
      "midi": 60,
      "hit": false,
      "t": 129088.53352604041,
      "d": 175.4802135416685,
      "v": 67
    },
    {
      "midi": 64,
      "hit": false,
      "t": 129088.53352604041,
      "d": 175.4802135416685,
      "v": 62
    },
    {
      "midi": 55,
      "hit": false,
      "t": 129093.34120312374,
      "d": 173.0763750000042,
      "v": 58
    },
    {
      "midi": 36,
      "hit": false,
      "t": 129239.9753541654,
      "d": 298.0759791666642,
      "v": 72
    },
    {
      "midi": 60,
      "hit": false,
      "t": 129550.0705260404,
      "d": 156.249505208325,
      "v": 67
    },
    {
      "midi": 64,
      "hit": false,
      "t": 129552.47436458207,
      "d": 177.8840520833328,
      "v": 61
    },
    {
      "midi": 55,
      "hit": false,
      "t": 129554.87820312374,
      "d": 137.01879687499604,
      "v": 55
    },
    {
      "midi": 36,
      "hit": false,
      "t": 129703.91619270707,
      "d": 228.3646614583413,
      "v": 57
    },
    {
      "midi": 60,
      "hit": false,
      "t": 130011.6075260404,
      "d": 153.8456666666607,
      "v": 68
    },
    {
      "midi": 55,
      "hit": false,
      "t": 130016.41520312373,
      "d": 137.01879687499604,
      "v": 58
    },
    {
      "midi": 64,
      "hit": false,
      "t": 130016.41520312373,
      "d": 156.249505208325,
      "v": 58
    },
    {
      "midi": 38,
      "hit": false,
      "t": 130165.45319270706,
      "d": 360.5757812499796,
      "v": 69
    },
    {
      "midi": 60,
      "hit": false,
      "t": 130473.14452604039,
      "d": 161.0571822916536,
      "v": 65
    },
    {
      "midi": 55,
      "hit": false,
      "t": 130477.95220312371,
      "d": 134.61495833333174,
      "v": 57
    },
    {
      "midi": 64,
      "hit": false,
      "t": 130477.95220312371,
      "d": 175.48021354165394,
      "v": 61
    },
    {
      "midi": 40,
      "hit": false,
      "t": 130626.99019270705,
      "d": 310.0951718749857,
      "v": 58
    },
    {
      "midi": 60,
      "hit": false,
      "t": 130934.68152604037,
      "d": 137.01879687499604,
      "v": 65
    },
    {
      "midi": 64,
      "hit": false,
      "t": 130934.68152604037,
      "d": 158.6533437500184,
      "v": 57
    },
    {
      "midi": 55,
      "hit": false,
      "t": 130939.4892031237,
      "d": 84.1343489583378,
      "v": 59
    },
    {
      "midi": 41,
      "hit": false,
      "t": 131090.9310312487,
      "d": 420.6717447916744,
      "v": 67
    },
    {
      "midi": 60,
      "hit": false,
      "t": 131396.21852604038,
      "d": 189.90324479166884,
      "v": 64
    },
    {
      "midi": 57,
      "hit": false,
      "t": 131401.0262031237,
      "d": 182.6917291666614,
      "v": 66
    },
    {
      "midi": 65,
      "hit": false,
      "t": 131401.0262031237,
      "d": 182.6917291666614,
      "v": 70
    },
    {
      "midi": 36,
      "hit": false,
      "t": 131550.06419270704,
      "d": 257.21072395832743,
      "v": 71
    },
    {
      "midi": 60,
      "hit": false,
      "t": 131857.75552604036,
      "d": 141.82647395832464,
      "v": 67
    },
    {
      "midi": 65,
      "hit": false,
      "t": 131857.75552604036,
      "d": 161.05718229166814,
      "v": 61
    },
    {
      "midi": 57,
      "hit": false,
      "t": 131862.5632031237,
      "d": 156.24950520833954,
      "v": 60
    },
    {
      "midi": 33,
      "hit": false,
      "t": 132011.60119270702,
      "d": 379.8064895833377,
      "v": 76
    },
    {
      "midi": 60,
      "hit": false,
      "t": 132319.29252604037,
      "d": 180.28789062498254,
      "v": 65
    },
    {
      "midi": 65,
      "hit": false,
      "t": 132324.1002031237,
      "d": 175.48021354165394,
      "v": 58
    },
    {
      "midi": 57,
      "hit": false,
      "t": 132324.1002031237,
      "d": 194.71092187499744,
      "v": 56
    },
    {
      "midi": 36,
      "hit": false,
      "t": 132473.13819270703,
      "d": 411.0563906249881,
      "v": 79
    },
    {
      "midi": 60,
      "hit": false,
      "t": 132780.82952604035,
      "d": 158.6533437499893,
      "v": 64
    },
    {
      "midi": 57,
      "hit": false,
      "t": 132780.82952604035,
      "d": 185.09556770831114,
      "v": 56
    },
    {
      "midi": 65,
      "hit": false,
      "t": 132783.23336458203,
      "d": 139.4226354166458,
      "v": 62
    },
    {
      "midi": 41,
      "hit": false,
      "t": 132932.27135416534,
      "d": 413.460229166667,
      "v": 68
    },
    {
      "midi": 60,
      "hit": false,
      "t": 133242.36652604034,
      "d": 149.0379895833321,
      "v": 63
    },
    {
      "midi": 57,
      "hit": false,
      "t": 133247.17420312366,
      "d": 144.2303125000035,
      "v": 56
    },
    {
      "midi": 65,
      "hit": false,
      "t": 133247.17420312366,
      "d": 149.0379895833321,
      "v": 59
    },
    {
      "midi": 33,
      "hit": false,
      "t": 133403.423708332,
      "d": 403.8448750000098,
      "v": 73
    },
    {
      "midi": 60,
      "hit": false,
      "t": 133703.90352604035,
      "d": 146.63415104165324,
      "v": 67
    },
    {
      "midi": 65,
      "hit": false,
      "t": 133703.90352604035,
      "d": 146.63415104165324,
      "v": 62
    },
    {
      "midi": 57,
      "hit": false,
      "t": 133708.71120312368,
      "d": 137.01879687499604,
      "v": 58
    },
    {
      "midi": 36,
      "hit": false,
      "t": 133867.36454687366,
      "d": 382.21032812504563,
      "v": 67
    },
    {
      "midi": 60,
      "hit": false,
      "t": 134167.844364582,
      "d": 170.67253645838355,
      "v": 75
    },
    {
      "midi": 65,
      "hit": false,
      "t": 134170.2482031237,
      "d": 173.0763750000333,
      "v": 71
    },
    {
      "midi": 57,
      "hit": false,
      "t": 134172.65204166537,
      "d": 170.67253645835444,
      "v": 65
    },
    {
      "midi": 41,
      "hit": false,
      "t": 134319.28619270705,
      "d": 264.4222395833349,
      "v": 70
    },
    {
      "midi": 60,
      "hit": false,
      "t": 134626.97752604037,
      "d": 76.9228333333158,
      "v": 78
    },
    {
      "midi": 65,
      "hit": false,
      "t": 134626.97752604037,
      "d": 81.73051041664439,
      "v": 72
    },
    {
      "midi": 57,
      "hit": false,
      "t": 134631.7852031237,
      "d": 67.3074791666586,
      "v": 68
    },
    {
      "midi": 43,
      "hit": false,
      "t": 134773.61167708202,
      "d": 360.5757812499942,
      "v": 71
    },
    {
      "midi": 62,
      "hit": false,
      "t": 134783.22703124868,
      "d": 264.4222395833349,
      "v": 72
    },
    {
      "midi": 59,
      "hit": false,
      "t": 134790.4385468737,
      "d": 127.40344270833884,
      "v": 70
    },
    {
      "midi": 67,
      "hit": false,
      "t": 134790.4385468737,
      "d": 257.21072395832743,
      "v": 73
    },
    {
      "midi": 64,
      "hit": false,
      "t": 134792.84238541537,
      "d": 245.19153124999139,
      "v": 75
    },
    {
      "midi": 59,
      "hit": false,
      "t": 135088.51452604035,
      "d": 50.480609374993946,
      "v": 58
    },
    {
      "midi": 38,
      "hit": false,
      "t": 135244.7640312487,
      "d": 396.6333593750023,
      "v": 81
    },
    {
      "midi": 62,
      "hit": false,
      "t": 135703.89719270702,
      "d": 262.01840104165603,
      "v": 65
    },
    {
      "midi": 35,
      "hit": false,
      "t": 135703.89719270702,
      "d": 384.6141666666663,
      "v": 77
    },
    {
      "midi": 67,
      "hit": false,
      "t": 135708.70486979035,
      "d": 86.5381875000021,
      "v": 77
    },
    {
      "midi": 59,
      "hit": false,
      "t": 135708.70486979035,
      "d": 170.67253645832534,
      "v": 68
    },
    {
      "midi": 64,
      "hit": false,
      "t": 135713.51254687368,
      "d": 91.3458645833307,
      "v": 69
    },
    {
      "midi": 33,
      "hit": false,
      "t": 136167.83803124868,
      "d": 221.1531458333193,
      "v": 80
    },
    {
      "midi": 31,
      "hit": false,
      "t": 136619.759677082,
      "d": 192.3070833333477,
      "v": 80
    },
    {
      "midi": 62,
      "hit": false,
      "t": 136624.56735416534,
      "d": 146.63415104168234,
      "v": 72
    },
    {
      "midi": 67,
      "hit": false,
      "t": 136646.20190104033,
      "d": 122.59576562501024,
      "v": 75
    },
    {
      "midi": 59,
      "hit": false,
      "t": 136648.605739582,
      "d": 120.1919270833314,
      "v": 64
    },
    {
      "midi": 64,
      "hit": false,
      "t": 136651.0095781237,
      "d": 112.98041145832394,
      "v": 74
    },
    {
      "midi": 31,
      "hit": false,
      "t": 137098.12354687368,
      "d": 137.01879687505425,
      "v": 80
    },
    {
      "midi": 67,
      "hit": false,
      "t": 137100.52738541536,
      "d": 132.21111979169655,
      "v": 78
    },
    {
      "midi": 62,
      "hit": false,
      "t": 137102.93122395704,
      "d": 139.422635416704,
      "v": 76
    },
    {
      "midi": 64,
      "hit": false,
      "t": 137107.73890104037,
      "d": 122.59576562501024,
      "v": 76
    },
    {
      "midi": 59,
      "hit": false,
      "t": 137114.95041666538,
      "d": 127.40344270836795,
      "v": 73
    },
    {
      "midi": 36,
      "hit": false,
      "t": 138475.52303124874,
      "d": 300.47981770834303,
      "v": 73
    },
    {
      "midi": 60,
      "hit": false,
      "t": 138780.8105260404,
      "d": 180.28789062498254,
      "v": 67
    },
    {
      "midi": 64,
      "hit": false,
      "t": 138785.61820312374,
      "d": 175.48021354165394,
      "v": 62
    },
    {
      "midi": 55,
      "hit": false,
      "t": 138785.61820312374,
      "d": 182.6917291666614,
      "v": 57
    },
    {
      "midi": 36,
      "hit": false,
      "t": 138934.65619270707,
      "d": 274.0375937499921,
      "v": 65
    },
    {
      "midi": 64,
      "hit": false,
      "t": 139244.75136458207,
      "d": 120.1919270833605,
      "v": 69
    },
    {
      "midi": 60,
      "hit": false,
      "t": 139247.15520312375,
      "d": 115.3842500000028,
      "v": 68
    },
    {
      "midi": 55,
      "hit": false,
      "t": 139249.55904166543,
      "d": 103.36505729166674,
      "v": 61
    },
    {
      "midi": 40,
      "hit": false,
      "t": 139396.1931927071,
      "d": 295.67214062501444,
      "v": 65
    },
    {
      "midi": 60,
      "hit": false,
      "t": 139703.88452604046,
      "d": 132.21111979166744,
      "v": 66
    },
    {
      "midi": 64,
      "hit": false,
      "t": 139706.28836458214,
      "d": 144.2303124999744,
      "v": 60
    },
    {
      "midi": 55,
      "hit": false,
      "t": 139706.28836458214,
      "d": 146.63415104165324,
      "v": 61
    },
    {
      "midi": 40,
      "hit": false,
      "t": 139862.53786979045,
      "d": 295.67214062501444,
      "v": 71
    },
    {
      "midi": 64,
      "hit": false,
      "t": 140165.42152604047,
      "d": 153.8456666666607,
      "v": 64
    },
    {
      "midi": 55,
      "hit": false,
      "t": 140170.2292031238,
      "d": 88.94202604168095,
      "v": 60
    },
    {
      "midi": 60,
      "hit": false,
      "t": 140170.2292031238,
      "d": 134.6149583333463,
      "v": 66
    },
    {
      "midi": 41,
      "hit": false,
      "t": 140321.6710312488,
      "d": 307.6913333333505,
      "v": 67
    },
    {
      "midi": 57,
      "hit": false,
      "t": 140622.15084895716,
      "d": 230.7685000000056,
      "v": 68
    },
    {
      "midi": 60,
      "hit": false,
      "t": 140626.9585260405,
      "d": 192.3070833333477,
      "v": 71
    },
    {
      "midi": 65,
      "hit": false,
      "t": 140626.9585260405,
      "d": 228.36466145835584,
      "v": 57
    },
    {
      "midi": 41,
      "hit": false,
      "t": 140785.6118697905,
      "d": 367.78729687500163,
      "v": 57
    },
    {
      "midi": 60,
      "hit": false,
      "t": 141083.68784895717,
      "d": 151.44182812501094,
      "v": 70
    },
    {
      "midi": 57,
      "hit": false,
      "t": 141088.4955260405,
      "d": 141.82647395835374,
      "v": 61
    },
    {
      "midi": 65,
      "hit": false,
      "t": 141088.4955260405,
      "d": 156.24950520836865,
      "v": 63
    },
    {
      "midi": 43,
      "hit": false,
      "t": 141242.3411927072,
      "d": 281.24910937499953,
      "v": 62
    },
    {
      "midi": 59,
      "hit": false,
      "t": 141545.22484895718,
      "d": 197.1147604166472,
      "v": 62
    },
    {
      "midi": 62,
      "hit": false,
      "t": 141550.0325260405,
      "d": 192.3070833333186,
      "v": 67
    },
    {
      "midi": 55,
      "hit": false,
      "t": 141554.84020312384,
      "d": 161.05718229166814,
      "v": 66
    },
    {
      "midi": 43,
      "hit": false,
      "t": 141703.87819270717,
      "d": 242.78769270831253,
      "v": 70
    },
    {
      "midi": 59,
      "hit": false,
      "t": 142011.5695260405,
      "d": 115.3842500000028,
      "v": 68
    },
    {
      "midi": 62,
      "hit": false,
      "t": 142011.5695260405,
      "d": 137.01879687499604,
      "v": 73
    },
    {
      "midi": 55,
      "hit": false,
      "t": 142016.37720312382,
      "d": 132.21111979166744,
      "v": 60
    },
    {
      "midi": 36,
      "hit": false,
      "t": 142163.01135416547,
      "d": 278.8452708333207,
      "v": 72
    },
    {
      "midi": 64,
      "hit": false,
      "t": 142470.7026874988,
      "d": 163.461020833347,
      "v": 62
    },
    {
      "midi": 60,
      "hit": false,
      "t": 142473.10652604047,
      "d": 161.05718229166814,
      "v": 65
    },
    {
      "midi": 55,
      "hit": false,
      "t": 142473.10652604047,
      "d": 165.86485937499674,
      "v": 63
    },
    {
      "midi": 36,
      "hit": false,
      "t": 142634.16370833214,
      "d": 249.99920833331998,
      "v": 69
    },
    {
      "midi": 60,
      "hit": false,
      "t": 142929.83584895713,
      "d": 165.86485937502584,
      "v": 70
    },
    {
      "midi": 64,
      "hit": false,
      "t": 142932.2396874988,
      "d": 163.461020833347,
      "v": 72
    },
    {
      "midi": 55,
      "hit": false,
      "t": 142934.64352604048,
      "d": 139.4226354166749,
      "v": 69
    },
    {
      "midi": 40,
      "hit": false,
      "t": 143088.48919270714,
      "d": 257.21072395832743,
      "v": 68
    },
    {
      "midi": 60,
      "hit": false,
      "t": 143398.58436458214,
      "d": 144.2303125000035,
      "v": 72
    },
    {
      "midi": 55,
      "hit": false,
      "t": 143400.98820312382,
      "d": 115.3842500000028,
      "v": 64
    },
    {
      "midi": 64,
      "hit": false,
      "t": 143400.98820312382,
      "d": 156.24950520831044,
      "v": 70
    },
    {
      "midi": 40,
      "hit": false,
      "t": 143557.23770833213,
      "d": 192.3070833333477,
      "v": 68
    },
    {
      "midi": 64,
      "hit": false,
      "t": 143855.31368749883,
      "d": 146.63415104168234,
      "v": 70
    },
    {
      "midi": 60,
      "hit": false,
      "t": 143857.7175260405,
      "d": 139.4226354166749,
      "v": 68
    },
    {
      "midi": 55,
      "hit": false,
      "t": 143860.12136458218,
      "d": 100.96121874998789,
      "v": 63
    },
    {
      "midi": 41,
      "hit": false,
      "t": 144011.56319270717,
      "d": 254.8068854166777,
      "v": 64
    },
    {
      "midi": 60,
      "hit": false,
      "t": 144314.4468489572,
      "d": 180.28789062498254,
      "v": 62
    },
    {
      "midi": 57,
      "hit": false,
      "t": 144319.25452604052,
      "d": 170.67253645832534,
      "v": 65
    },
    {
      "midi": 65,
      "hit": false,
      "t": 144319.25452604052,
      "d": 197.1147604166472,
      "v": 70
    },
    {
      "midi": 41,
      "hit": false,
      "t": 144480.31170833218,
      "d": 326.9220416666358,
      "v": 54
    },
    {
      "midi": 60,
      "hit": false,
      "t": 144775.98384895717,
      "d": 122.59576562498114,
      "v": 67
    },
    {
      "midi": 57,
      "hit": false,
      "t": 144780.7915260405,
      "d": 103.36505729166674,
      "v": 68
    },
    {
      "midi": 65,
      "hit": false,
      "t": 144780.7915260405,
      "d": 117.78808854165254,
      "v": 69
    },
    {
      "midi": 43,
      "hit": false,
      "t": 144934.63719270716,
      "d": 254.8068854166777,
      "v": 62
    },
    {
      "midi": 62,
      "hit": false,
      "t": 145242.3285260405,
      "d": 127.40344270833884,
      "v": 73
    },
    {
      "midi": 59,
      "hit": false,
      "t": 145242.3285260405,
      "d": 146.63415104165324,
      "v": 62
    },
    {
      "midi": 55,
      "hit": false,
      "t": 145247.13620312384,
      "d": 127.40344270833884,
      "v": 66
    },
    {
      "midi": 43,
      "hit": false,
      "t": 145400.9818697905,
      "d": 187.49940624999,
      "v": 68
    },
    {
      "midi": 62,
      "hit": false,
      "t": 145699.05784895716,
      "d": 124.99960416665999,
      "v": 76
    },
    {
      "midi": 55,
      "hit": false,
      "t": 145703.8655260405,
      "d": 100.96121874998789,
      "v": 64
    },
    {
      "midi": 59,
      "hit": false,
      "t": 145703.8655260405,
      "d": 117.78808854165254,
      "v": 72
    },
    {
      "midi": 36,
      "hit": false,
      "t": 145855.3073541655,
      "d": 295.67214062501444,
      "v": 72
    },
    {
      "midi": 60,
      "hit": false,
      "t": 146165.4025260405,
      "d": 149.0379895833321,
      "v": 65
    },
    {
      "midi": 64,
      "hit": false,
      "t": 146165.4025260405,
      "d": 161.05718229166814,
      "v": 65
    },
    {
      "midi": 55,
      "hit": false,
      "t": 146170.21020312383,
      "d": 141.82647395832464,
      "v": 62
    },
    {
      "midi": 36,
      "hit": false,
      "t": 146324.0558697905,
      "d": 221.1531458333484,
      "v": 72
    },
    {
      "midi": 60,
      "hit": false,
      "t": 146624.53568749884,
      "d": 149.0379895833612,
      "v": 58
    },
    {
      "midi": 55,
      "hit": false,
      "t": 146626.9395260405,
      "d": 110.5765729166742,
      "v": 61
    },
    {
      "midi": 64,
      "hit": false,
      "t": 146626.9395260405,
      "d": 127.40344270833884,
      "v": 66
    },
    {
      "midi": 40,
      "hit": false,
      "t": 146780.7851927072,
      "d": 257.21072395832743,
      "v": 70
    },
    {
      "midi": 60,
      "hit": false,
      "t": 147088.47652604053,
      "d": 141.82647395832464,
      "v": 63
    },
    {
      "midi": 64,
      "hit": false,
      "t": 147093.28420312385,
      "d": 122.59576562501024,
      "v": 64
    },
    {
      "midi": 55,
      "hit": false,
      "t": 147095.68804166553,
      "d": 96.1535416666593,
      "v": 64
    },
    {
      "midi": 40,
      "hit": false,
      "t": 147242.3221927072,
      "d": 218.74930729166954,
      "v": 68
    },
    {
      "midi": 60,
      "hit": false,
      "t": 147550.01352604054,
      "d": 120.19192708330229,
      "v": 64
    },
    {
      "midi": 64,
      "hit": false,
      "t": 147550.01352604054,
      "d": 141.82647395829554,
      "v": 70
    },
    {
      "midi": 55,
      "hit": false,
      "t": 147554.82120312387,
      "d": 72.1151562499872,
      "v": 60
    },
    {
      "midi": 41,
      "hit": false,
      "t": 147701.4553541655,
      "d": 271.63375520834234,
      "v": 60
    },
    {
      "midi": 60,
      "hit": false,
      "t": 148009.14668749884,
      "d": 163.461020833347,
      "v": 74
    },
    {
      "midi": 57,
      "hit": false,
      "t": 148011.55052604052,
      "d": 156.24950520833954,
      "v": 71
    },
    {
      "midi": 65,
      "hit": false,
      "t": 148011.55052604052,
      "d": 161.05718229166814,
      "v": 72
    },
    {
      "midi": 41,
      "hit": false,
      "t": 148165.39619270718,
      "d": 312.4990104166791,
      "v": 58
    },
    {
      "midi": 60,
      "hit": false,
      "t": 148468.2798489572,
      "d": 120.1919270833314,
      "v": 71
    },
    {
      "midi": 57,
      "hit": false,
      "t": 148473.08752604053,
      "d": 103.36505729166674,
      "v": 68
    },
    {
      "midi": 65,
      "hit": false,
      "t": 148473.08752604053,
      "d": 103.36505729166674,
      "v": 68
    },
    {
      "midi": 43,
      "hit": false,
      "t": 148629.33703124887,
      "d": 274.0375937499921,
      "v": 66
    },
    {
      "midi": 62,
      "hit": false,
      "t": 148934.62452604054,
      "d": 115.3842500000028,
      "v": 71
    },
    {
      "midi": 59,
      "hit": false,
      "t": 148934.62452604054,
      "d": 149.0379895833321,
      "v": 65
    },
    {
      "midi": 55,
      "hit": false,
      "t": 148939.43220312387,
      "d": 124.99960416665999,
      "v": 66
    },
    {
      "midi": 43,
      "hit": false,
      "t": 149095.6817083322,
      "d": 192.3070833333477,
      "v": 64
    },
    {
      "midi": 62,
      "hit": false,
      "t": 149393.7576874989,
      "d": 122.59576562501024,
      "v": 73
    },
    {
      "midi": 59,
      "hit": false,
      "t": 149396.16152604058,
      "d": 120.1919270833314,
      "v": 70
    },
    {
      "midi": 55,
      "hit": false,
      "t": 149398.56536458226,
      "d": 112.98041145832394,
      "v": 68
    },
    {
      "midi": 36,
      "hit": false,
      "t": 149545.1995156239,
      "d": 276.44143229167094,
      "v": 80
    },
    {
      "midi": 64,
      "hit": false,
      "t": 149855.2946874989,
      "d": 124.9996041666891,
      "v": 68
    },
    {
      "midi": 60,
      "hit": false,
      "t": 149857.6985260406,
      "d": 81.7305104166735,
      "v": 56
    },
    {
      "midi": 55,
      "hit": false,
      "t": 149857.6985260406,
      "d": 103.36505729166674,
      "v": 62
    },
    {
      "midi": 36,
      "hit": false,
      "t": 150011.54419270728,
      "d": 230.7685000000056,
      "v": 76
    },
    {
      "midi": 60,
      "hit": false,
      "t": 150314.42784895728,
      "d": 108.17273437502445,
      "v": 59
    },
    {
      "midi": 64,
      "hit": false,
      "t": 150316.83168749895,
      "d": 105.7688958333456,
      "v": 63
    },
    {
      "midi": 55,
      "hit": false,
      "t": 150319.23552604063,
      "d": 76.9228333333449,
      "v": 60
    },
    {
      "midi": 40,
      "hit": false,
      "t": 150473.0811927073,
      "d": 245.19153124999139,
      "v": 70
    },
    {
      "midi": 64,
      "hit": false,
      "t": 150780.77252604062,
      "d": 100.96121874998789,
      "v": 69
    },
    {
      "midi": 60,
      "hit": false,
      "t": 150780.77252604062,
      "d": 120.1919270833314,
      "v": 63
    },
    {
      "midi": 55,
      "hit": false,
      "t": 150785.58020312394,
      "d": 91.3458645833307,
      "v": 64
    },
    {
      "midi": 40,
      "hit": false,
      "t": 151083.6561822906,
      "d": 189.90324479166884,
      "v": 56
    },
    {
      "midi": 60,
      "hit": false,
      "t": 151237.50184895727,
      "d": 108.17273437499534,
      "v": 67
    },
    {
      "midi": 55,
      "hit": false,
      "t": 151242.3095260406,
      "d": 103.36505729166674,
      "v": 62
    },
    {
      "midi": 64,
      "hit": false,
      "t": 151242.3095260406,
      "d": 103.36505729166674,
      "v": 68
    },
    {
      "midi": 41,
      "hit": false,
      "t": 151393.7513541656,
      "d": 221.1531458333193,
      "v": 55
    },
    {
      "midi": 65,
      "hit": false,
      "t": 151703.8465260406,
      "d": 156.24950520836865,
      "v": 70
    },
    {
      "midi": 60,
      "hit": false,
      "t": 151706.2503645823,
      "d": 134.6149583333463,
      "v": 71
    },
    {
      "midi": 57,
      "hit": false,
      "t": 151708.65420312397,
      "d": 122.59576562501024,
      "v": 67
    },
    {
      "midi": 41,
      "hit": false,
      "t": 151857.6921927073,
      "d": 264.4222395833349,
      "v": 51
    },
    {
      "midi": 60,
      "hit": false,
      "t": 152165.38352604062,
      "d": 105.7688958333747,
      "v": 66
    },
    {
      "midi": 65,
      "hit": false,
      "t": 152167.7873645823,
      "d": 100.961218750017,
      "v": 65
    },
    {
      "midi": 57,
      "hit": false,
      "t": 152170.19120312398,
      "d": 112.98041145835305,
      "v": 73
    },
    {
      "midi": 43,
      "hit": false,
      "t": 152319.22919270734,
      "d": 257.21072395832743,
      "v": 62
    },
    {
      "midi": 59,
      "hit": false,
      "t": 152626.92052604066,
      "d": 103.36505729166674,
      "v": 64
    },
    {
      "midi": 62,
      "hit": false,
      "t": 152626.92052604066,
      "d": 103.36505729166674,
      "v": 69
    },
    {
      "midi": 55,
      "hit": false,
      "t": 152631.728203124,
      "d": 98.55738020833815,
      "v": 62
    },
    {
      "midi": 43,
      "hit": false,
      "t": 152780.76619270732,
      "d": 84.13434895832324,
      "v": 59
    },
    {
      "midi": 59,
      "hit": false,
      "t": 153088.45752604064,
      "d": 98.55738020830904,
      "v": 70
    },
    {
      "midi": 62,
      "hit": false,
      "t": 153088.45752604064,
      "d": 103.36505729163764,
      "v": 71
    },
    {
      "midi": 55,
      "hit": false,
      "t": 153093.26520312397,
      "d": 67.3074791666586,
      "v": 59
    },
    {
      "midi": 43,
      "hit": false,
      "t": 153093.26520312397,
      "d": 103.36505729163764,
      "v": 62
    },
    {
      "midi": 36,
      "hit": false,
      "t": 153244.70703124895,
      "d": 300.47981770834303,
      "v": 79
    },
    {
      "midi": 60,
      "hit": false,
      "t": 153549.99452604062,
      "d": 146.63415104165324,
      "v": 64
    },
    {
      "midi": 64,
      "hit": false,
      "t": 153549.99452604062,
      "d": 146.63415104165324,
      "v": 66
    },
    {
      "midi": 55,
      "hit": false,
      "t": 153554.80220312395,
      "d": 117.78808854165254,
      "v": 61
    },
    {
      "midi": 36,
      "hit": false,
      "t": 153713.45554687394,
      "d": 209.13395312501234,
      "v": 65
    },
    {
      "midi": 60,
      "hit": false,
      "t": 154006.72384895728,
      "d": 144.2303125000035,
      "v": 68
    },
    {
      "midi": 55,
      "hit": false,
      "t": 154011.5315260406,
      "d": 115.3842500000028,
      "v": 63
    },
    {
      "midi": 64,
      "hit": false,
      "t": 154011.5315260406,
      "d": 115.3842500000028,
      "v": 64
    },
    {
      "midi": 40,
      "hit": false,
      "t": 154165.37719270727,
      "d": 242.78769270834164,
      "v": 69
    },
    {
      "midi": 64,
      "hit": false,
      "t": 154473.06852604062,
      "d": 100.96121874998789,
      "v": 61
    },
    {
      "midi": 60,
      "hit": false,
      "t": 154473.06852604062,
      "d": 120.1919270833314,
      "v": 62
    },
    {
      "midi": 55,
      "hit": false,
      "t": 154477.87620312395,
      "d": 96.1535416666593,
      "v": 54
    },
    {
      "midi": 40,
      "hit": false,
      "t": 154631.7218697906,
      "d": 213.94163020834094,
      "v": 64
    },
    {
      "midi": 60,
      "hit": false,
      "t": 154934.60552604063,
      "d": 129.8072812499886,
      "v": 64
    },
    {
      "midi": 64,
      "hit": false,
      "t": 154934.60552604063,
      "d": 139.4226354166458,
      "v": 69
    },
    {
      "midi": 55,
      "hit": false,
      "t": 154939.41320312396,
      "d": 86.5381875000021,
      "v": 63
    },
    {
      "midi": 41,
      "hit": false,
      "t": 155090.85503124894,
      "d": 254.8068854166777,
      "v": 58
    },
    {
      "midi": 60,
      "hit": false,
      "t": 155391.33484895728,
      "d": 141.82647395832464,
      "v": 73
    },
    {
      "midi": 57,
      "hit": false,
      "t": 155396.1425260406,
      "d": 122.59576562501024,
      "v": 67
    },
    {
      "midi": 65,
      "hit": false,
      "t": 155396.1425260406,
      "d": 146.63415104165324,
      "v": 76
    },
    {
      "midi": 41,
      "hit": false,
      "t": 155554.7958697906,
      "d": 290.86446354165673,
      "v": 58
    },
    {
      "midi": 60,
      "hit": false,
      "t": 155852.87184895726,
      "d": 115.3842500000319,
      "v": 78
    },
    {
      "midi": 65,
      "hit": false,
      "t": 155855.27568749894,
      "d": 96.1535416666884,
      "v": 72
    },
    {
      "midi": 57,
      "hit": false,
      "t": 155857.67952604062,
      "d": 108.17273437499534,
      "v": 68
    },
    {
      "midi": 43,
      "hit": false,
      "t": 156011.52519270728,
      "d": 245.19153124999139,
      "v": 61
    },
    {
      "midi": 59,
      "hit": false,
      "t": 156314.40884895728,
      "d": 96.1535416666884,
      "v": 76
    },
    {
      "midi": 62,
      "hit": false,
      "t": 156316.81268749895,
      "d": 98.55738020833815,
      "v": 79
    },
    {
      "midi": 55,
      "hit": false,
      "t": 156319.21652604063,
      "d": 98.55738020833815,
      "v": 67
    },
    {
      "midi": 43,
      "hit": false,
      "t": 156477.86986979065,
      "d": 259.6145625000063,
      "v": 70
    },
    {
      "midi": 59,
      "hit": false,
      "t": 156783.15736458232,
      "d": 108.17273437502445,
      "v": 71
    },
    {
      "midi": 62,
      "hit": false,
      "t": 156785.561203124,
      "d": 115.3842500000028,
      "v": 74
    },
    {
      "midi": 55,
      "hit": false,
      "t": 156787.96504166568,
      "d": 108.17273437499534,
      "v": 64
    },
    {
      "midi": 36,
      "hit": false,
      "t": 156932.19535416568,
      "d": 322.1143645833363,
      "v": 76
    },
    {
      "midi": 60,
      "hit": false,
      "t": 157239.886687499,
      "d": 122.59576562503935,
      "v": 73
    },
    {
      "midi": 64,
      "hit": false,
      "t": 157242.29052604068,
      "d": 141.82647395835374,
      "v": 74
    },
    {
      "midi": 55,
      "hit": false,
      "t": 157244.69436458236,
      "d": 98.55738020833815,
      "v": 62
    },
    {
      "midi": 36,
      "hit": false,
      "t": 157400.9438697907,
      "d": 221.1531458333193,
      "v": 76
    },
    {
      "midi": 64,
      "hit": false,
      "t": 157701.42368749902,
      "d": 84.13434895835235,
      "v": 55
    },
    {
      "midi": 60,
      "hit": false,
      "t": 157703.8275260407,
      "d": 81.7305104166735,
      "v": 64
    },
    {
      "midi": 40,
      "hit": false,
      "t": 157862.4808697907,
      "d": 317.3066875000368,
      "v": 77
    },
    {
      "midi": 64,
      "hit": false,
      "t": 158162.96068749906,
      "d": 134.6149583333754,
      "v": 71
    },
    {
      "midi": 60,
      "hit": false,
      "t": 158165.36452604074,
      "d": 103.36505729169585,
      "v": 81
    },
    {
      "midi": 55,
      "hit": false,
      "t": 158167.7683645824,
      "d": 139.4226354166749,
      "v": 72
    },
    {
      "midi": 40,
      "hit": false,
      "t": 158324.01786979075,
      "d": 170.67253645832534,
      "v": 73
    },
    {
      "midi": 55,
      "hit": false,
      "t": 158626.90152604075,
      "d": 98.55738020833815,
      "v": 64
    },
    {
      "midi": 60,
      "hit": false,
      "t": 158626.90152604075,
      "d": 115.3842500000028,
      "v": 73
    },
    {
      "midi": 64,
      "hit": false,
      "t": 158631.70920312408,
      "d": 117.78808854168165,
      "v": 61
    },
    {
      "midi": 41,
      "hit": false,
      "t": 158775.93951562408,
      "d": 247.59536979167024,
      "v": 70
    },
    {
      "midi": 65,
      "hit": false,
      "t": 159083.63084895743,
      "d": 170.67253645832534,
      "v": 68
    },
    {
      "midi": 60,
      "hit": false,
      "t": 159088.43852604076,
      "d": 120.1919270833314,
      "v": 67
    },
    {
      "midi": 57,
      "hit": false,
      "t": 159088.43852604076,
      "d": 161.05718229166814,
      "v": 67
    },
    {
      "midi": 41,
      "hit": false,
      "t": 159249.49570833243,
      "d": 346.1527500000084,
      "v": 68
    },
    {
      "midi": 60,
      "hit": false,
      "t": 159545.1678489574,
      "d": 108.17273437502445,
      "v": 68
    },
    {
      "midi": 65,
      "hit": false,
      "t": 159547.5716874991,
      "d": 120.1919270833314,
      "v": 74
    },
    {
      "midi": 57,
      "hit": false,
      "t": 159549.97552604077,
      "d": 91.3458645833307,
      "v": 69
    },
    {
      "midi": 43,
      "hit": false,
      "t": 159706.22503124908,
      "d": 269.2299166666635,
      "v": 66
    },
    {
      "midi": 55,
      "hit": false,
      "t": 160009.10868749907,
      "d": 124.9996041666891,
      "v": 71
    },
    {
      "midi": 62,
      "hit": false,
      "t": 160011.51252604075,
      "d": 76.9228333333449,
      "v": 79
    },
    {
      "midi": 59,
      "hit": false,
      "t": 160011.51252604075,
      "d": 103.36505729166674,
      "v": 70
    },
    {
      "midi": 43,
      "hit": false,
      "t": 160170.16586979077,
      "d": 180.28789062501164,
      "v": 75
    },
    {
      "midi": 59,
      "hit": false,
      "t": 160473.0495260408,
      "d": 103.36505729166674,
      "v": 70
    },
    {
      "midi": 62,
      "hit": false,
      "t": 160473.0495260408,
      "d": 117.78808854165254,
      "v": 74
    },
    {
      "midi": 55,
      "hit": false,
      "t": 160477.85720312412,
      "d": 86.5381875000021,
      "v": 69
    },
    {
      "midi": 36,
      "hit": false,
      "t": 160624.49135416577,
      "d": 218.74930729166954,
      "v": 75
    },
    {
      "midi": 64,
      "hit": false,
      "t": 160929.77884895745,
      "d": 151.44182812498184,
      "v": 64
    },
    {
      "midi": 55,
      "hit": false,
      "t": 160934.58652604077,
      "d": 84.13434895832324,
      "v": 71
    },
    {
      "midi": 60,
      "hit": false,
      "t": 160934.58652604077,
      "d": 108.17273437499534,
      "v": 78
    },
    {
      "midi": 36,
      "hit": false,
      "t": 161093.23986979076,
      "d": 180.28789062501164,
      "v": 71
    },
    {
      "midi": 60,
      "hit": false,
      "t": 161391.31584895743,
      "d": 120.1919270833314,
      "v": 74
    },
    {
      "midi": 55,
      "hit": false,
      "t": 161396.12352604076,
      "d": 110.5765729166742,
      "v": 67
    },
    {
      "midi": 64,
      "hit": false,
      "t": 161396.12352604076,
      "d": 139.4226354166749,
      "v": 73
    },
    {
      "midi": 40,
      "hit": false,
      "t": 161557.18070833242,
      "d": 177.8840520833328,
      "v": 63
    },
    {
      "midi": 60,
      "hit": false,
      "t": 161852.8528489574,
      "d": 151.44182812501094,
      "v": 68
    },
    {
      "midi": 64,
      "hit": false,
      "t": 161855.2566874991,
      "d": 144.2303125000035,
      "v": 68
    },
    {
      "midi": 55,
      "hit": false,
      "t": 161857.66052604077,
      "d": 103.36505729166674,
      "v": 63
    },
    {
      "midi": 40,
      "hit": false,
      "t": 162016.31386979076,
      "d": 173.0763750000042,
      "v": 66
    },
    {
      "midi": 64,
      "hit": false,
      "t": 162314.38984895742,
      "d": 141.82647395832464,
      "v": 71
    },
    {
      "midi": 55,
      "hit": false,
      "t": 162319.19752604075,
      "d": 74.51899479166605,
      "v": 63
    },
    {
      "midi": 60,
      "hit": false,
      "t": 162319.19752604075,
      "d": 120.1919270833314,
      "v": 77
    },
    {
      "midi": 41,
      "hit": false,
      "t": 162475.4470312491,
      "d": 225.960822916677,
      "v": 58
    },
    {
      "midi": 65,
      "hit": false,
      "t": 162783.13836458244,
      "d": 158.6533437500184,
      "v": 69
    },
    {
      "midi": 60,
      "hit": false,
      "t": 162785.54220312412,
      "d": 144.2303125000035,
      "v": 66
    },
    {
      "midi": 57,
      "hit": false,
      "t": 162787.9460416658,
      "d": 112.98041145832394,
      "v": 66
    },
    {
      "midi": 41,
      "hit": false,
      "t": 162934.58019270745,
      "d": 350.9604270833661,
      "v": 60
    },
    {
      "midi": 60,
      "hit": false,
      "t": 163242.2715260408,
      "d": 103.36505729166674,
      "v": 56
    },
    {
      "midi": 57,
      "hit": false,
      "t": 163244.67536458248,
      "d": 100.96121874998789,
      "v": 69
    },
    {
      "midi": 65,
      "hit": false,
      "t": 163247.07920312416,
      "d": 76.9228333333158,
      "v": 61
    },
    {
      "midi": 43,
      "hit": false,
      "t": 163396.11719270746,
      "d": 274.0375937499921,
      "v": 63
    },
    {
      "midi": 62,
      "hit": false,
      "t": 163706.21236458246,
      "d": 163.4610208333761,
      "v": 69
    },
    {
      "midi": 59,
      "hit": false,
      "t": 163708.61620312414,
      "d": 134.6149583333463,
      "v": 70
    },
    {
      "midi": 55,
      "hit": false,
      "t": 163708.61620312414,
      "d": 153.8456666666898,
      "v": 65
    },
    {
      "midi": 43,
      "hit": false,
      "t": 163860.05803124915,
      "d": 120.1919270833605,
      "v": 65
    },
    {
      "midi": 62,
      "hit": false,
      "t": 164165.34552604085,
      "d": 103.36505729166674,
      "v": 68
    },
    {
      "midi": 59,
      "hit": false,
      "t": 164170.15320312418,
      "d": 96.1535416666593,
      "v": 70
    },
    {
      "midi": 43,
      "hit": false,
      "t": 164170.15320312418,
      "d": 112.98041145832394,
      "v": 66
    },
    {
      "midi": 55,
      "hit": false,
      "t": 164174.9608802075,
      "d": 91.3458645833307,
      "v": 61
    },
    {
      "midi": 36,
      "hit": false,
      "t": 164316.78735416583,
      "d": 276.44143229167094,
      "v": 78
    },
    {
      "midi": 60,
      "hit": false,
      "t": 164622.0748489575,
      "d": 144.2303125000035,
      "v": 68
    },
    {
      "midi": 55,
      "hit": false,
      "t": 164626.88252604083,
      "d": 91.3458645833307,
      "v": 62
    },
    {
      "midi": 64,
      "hit": false,
      "t": 164626.88252604083,
      "d": 139.4226354166749,
      "v": 68
    },
    {
      "midi": 36,
      "hit": false,
      "t": 164787.9397083325,
      "d": 228.36466145832674,
      "v": 73
    },
    {
      "midi": 60,
      "hit": false,
      "t": 165086.01568749917,
      "d": 141.82647395835374,
      "v": 69
    },
    {
      "midi": 55,
      "hit": false,
      "t": 165088.41952604085,
      "d": 91.3458645833307,
      "v": 63
    },
    {
      "midi": 64,
      "hit": false,
      "t": 165088.41952604085,
      "d": 139.4226354166749,
      "v": 69
    },
    {
      "midi": 40,
      "hit": false,
      "t": 165242.2651927075,
      "d": 242.78769270834164,
      "v": 65
    },
    {
      "midi": 60,
      "hit": false,
      "t": 165549.95652604086,
      "d": 139.4226354166458,
      "v": 68
    },
    {
      "midi": 64,
      "hit": false,
      "t": 165549.95652604086,
      "d": 139.4226354166458,
      "v": 73
    },
    {
      "midi": 55,
      "hit": false,
      "t": 165554.76420312418,
      "d": 84.13434895832324,
      "v": 67
    },
    {
      "midi": 40,
      "hit": false,
      "t": 165711.0137083325,
      "d": 180.28789062501164,
      "v": 67
    },
    {
      "midi": 60,
      "hit": false,
      "t": 166011.49352604084,
      "d": 139.4226354166749,
      "v": 67
    },
    {
      "midi": 64,
      "hit": false,
      "t": 166011.49352604084,
      "d": 139.4226354166749,
      "v": 70
    },
    {
      "midi": 55,
      "hit": false,
      "t": 166016.30120312417,
      "d": 86.5381875000021,
      "v": 64
    },
    {
      "midi": 41,
      "hit": false,
      "t": 166167.74303124918,
      "d": 254.8068854166777,
      "v": 67
    },
    {
      "midi": 60,
      "hit": false,
      "t": 166468.22284895752,
      "d": 141.82647395832464,
      "v": 60
    },
    {
      "midi": 57,
      "hit": false,
      "t": 166473.03052604085,
      "d": 115.3842500000028,
      "v": 62
    },
    {
      "midi": 65,
      "hit": false,
      "t": 166473.03052604085,
      "d": 141.82647395832464,
      "v": 64
    },
    {
      "midi": 41,
      "hit": false,
      "t": 166631.68386979084,
      "d": 343.74891145832953,
      "v": 65
    },
    {
      "midi": 60,
      "hit": false,
      "t": 166927.35601041585,
      "d": 149.037989583303,
      "v": 67
    },
    {
      "midi": 57,
      "hit": false,
      "t": 166932.16368749918,
      "d": 100.96121874998789,
      "v": 67
    },
    {
      "midi": 65,
      "hit": false,
      "t": 166932.16368749918,
      "d": 115.38424999997369,
      "v": 69
    },
    {
      "midi": 43,
      "hit": false,
      "t": 167088.4131927075,
      "d": 266.82607812501374,
      "v": 66
    },
    {
      "midi": 59,
      "hit": false,
      "t": 167396.10452604084,
      "d": 117.78808854165254,
      "v": 66
    },
    {
      "midi": 62,
      "hit": false,
      "t": 167396.10452604084,
      "d": 117.78808854165254,
      "v": 70
    },
    {
      "midi": 55,
      "hit": false,
      "t": 167400.91220312417,
      "d": 96.1535416666593,
      "v": 70
    },
    {
      "midi": 43,
      "hit": false,
      "t": 167554.75786979083,
      "d": 122.59576562501024,
      "v": 67
    },
    {
      "midi": 62,
      "hit": false,
      "t": 167852.8338489575,
      "d": 117.78808854165254,
      "v": 69
    },
    {
      "midi": 55,
      "hit": false,
      "t": 167857.64152604082,
      "d": 84.13434895832324,
      "v": 61
    },
    {
      "midi": 59,
      "hit": false,
      "t": 167857.64152604082,
      "d": 108.17273437499534,
      "v": 70
    },
    {
      "midi": 43,
      "hit": false,
      "t": 167862.44920312415,
      "d": 112.98041145832394,
      "v": 63
    },
    {
      "midi": 36,
      "hit": false,
      "t": 168009.0833541658,
      "d": 278.8452708333207,
      "v": 77
    },
    {
      "midi": 60,
      "hit": false,
      "t": 168311.9670104158,
      "d": 156.24950520836865,
      "v": 65
    },
    {
      "midi": 64,
      "hit": false,
      "t": 168314.37084895748,
      "d": 153.8456666666898,
      "v": 68
    },
    {
      "midi": 55,
      "hit": false,
      "t": 168316.77468749916,
      "d": 153.8456666666898,
      "v": 64
    },
    {
      "midi": 36,
      "hit": false,
      "t": 168485.04338541583,
      "d": 249.99920833331998,
      "v": 73
    },
    {
      "midi": 60,
      "hit": false,
      "t": 168773.5040104158,
      "d": 163.461020833347,
      "v": 69
    },
    {
      "midi": 55,
      "hit": false,
      "t": 168778.31168749914,
      "d": 124.99960416665999,
      "v": 65
    },
    {
      "midi": 64,
      "hit": false,
      "t": 168778.31168749914,
      "d": 144.2303125000035,
      "v": 75
    },
    {
      "midi": 40,
      "hit": false,
      "t": 168934.56119270748,
      "d": 242.78769270834164,
      "v": 71
    },
    {
      "midi": 60,
      "hit": false,
      "t": 169239.84868749915,
      "d": 139.4226354166749,
      "v": 67
    },
    {
      "midi": 64,
      "hit": false,
      "t": 169242.25252604083,
      "d": 137.01879687499604,
      "v": 71
    },
    {
      "midi": 55,
      "hit": false,
      "t": 169244.6563645825,
      "d": 100.96121874998789,
      "v": 67
    },
    {
      "midi": 40,
      "hit": false,
      "t": 169400.90586979082,
      "d": 223.55698437499814,
      "v": 68
    },
    {
      "midi": 60,
      "hit": false,
      "t": 169698.98184895748,
      "d": 124.9996041666891,
      "v": 68
    },
    {
      "midi": 55,
      "hit": false,
      "t": 169703.7895260408,
      "d": 88.94202604168095,
      "v": 67
    },
    {
      "midi": 64,
      "hit": false,
      "t": 169703.7895260408,
      "d": 141.82647395835374,
      "v": 72
    },
    {
      "midi": 41,
      "hit": false,
      "t": 169857.6351927075,
      "d": 264.4222395833349,
      "v": 68
    },
    {
      "midi": 60,
      "hit": false,
      "t": 170162.92268749917,
      "d": 149.0379895833321,
      "v": 58
    },
    {
      "midi": 57,
      "hit": false,
      "t": 170165.32652604085,
      "d": 141.82647395832464,
      "v": 61
    },
    {
      "midi": 65,
      "hit": false,
      "t": 170165.32652604085,
      "d": 141.82647395832464,
      "v": 60
    },
    {
      "midi": 41,
      "hit": false,
      "t": 170323.97986979084,
      "d": 384.6141666666663,
      "v": 53
    },
    {
      "midi": 60,
      "hit": false,
      "t": 170622.0558489575,
      "d": 146.63415104168234,
      "v": 67
    },
    {
      "midi": 57,
      "hit": false,
      "t": 170626.86352604083,
      "d": 100.961218750017,
      "v": 69
    },
    {
      "midi": 65,
      "hit": false,
      "t": 170626.86352604083,
      "d": 100.961218750017,
      "v": 67
    },
    {
      "midi": 43,
      "hit": false,
      "t": 170780.70919270752,
      "d": 274.0375937499921,
      "v": 66
    },
    {
      "midi": 59,
      "hit": false,
      "t": 171085.9966874992,
      "d": 124.99960416665999,
      "v": 67
    },
    {
      "midi": 55,
      "hit": false,
      "t": 171088.40052604087,
      "d": 100.96121874998789,
      "v": 70
    },
    {
      "midi": 62,
      "hit": false,
      "t": 171088.40052604087,
      "d": 112.98041145832394,
      "v": 70
    },
    {
      "midi": 43,
      "hit": false,
      "t": 171247.05386979086,
      "d": 175.48021354165394,
      "v": 68
    },
    {
      "midi": 59,
      "hit": false,
      "t": 171549.93752604086,
      "d": 122.59576562498114,
      "v": 69
    },
    {
      "midi": 62,
      "hit": false,
      "t": 171549.93752604086,
      "d": 127.40344270830974,
      "v": 72
    },
    {
      "midi": 55,
      "hit": false,
      "t": 171554.74520312418,
      "d": 98.55738020833815,
      "v": 68
    },
    {
      "midi": 43,
      "hit": false,
      "t": 171554.74520312418,
      "d": 112.98041145832394,
      "v": 68
    },
    {
      "midi": 36,
      "hit": false,
      "t": 171701.37935416584,
      "d": 266.82607812501374,
      "v": 74
    },
    {
      "midi": 60,
      "hit": false,
      "t": 172009.0706874992,
      "d": 163.461020833347,
      "v": 60
    },
    {
      "midi": 55,
      "hit": false,
      "t": 172011.47452604087,
      "d": 122.59576562501024,
      "v": 64
    },
    {
      "midi": 64,
      "hit": false,
      "t": 172011.47452604087,
      "d": 137.01879687499604,
      "v": 62
    },
    {
      "midi": 36,
      "hit": false,
      "t": 172172.53170833254,
      "d": 230.7685000000056,
      "v": 68
    },
    {
      "midi": 60,
      "hit": false,
      "t": 172468.20384895755,
      "d": 137.01879687499604,
      "v": 61
    },
    {
      "midi": 55,
      "hit": false,
      "t": 172473.01152604088,
      "d": 115.3842500000028,
      "v": 64
    },
    {
      "midi": 64,
      "hit": false,
      "t": 172473.01152604088,
      "d": 115.3842500000028,
      "v": 72
    },
    {
      "midi": 40,
      "hit": false,
      "t": 172629.26103124922,
      "d": 228.36466145832674,
      "v": 72
    },
    {
      "midi": 60,
      "hit": false,
      "t": 172929.74084895753,
      "d": 122.59576562498114,
      "v": 58
    },
    {
      "midi": 55,
      "hit": false,
      "t": 172934.54852604086,
      "d": 72.1151562499872,
      "v": 61
    },
    {
      "midi": 64,
      "hit": false,
      "t": 172934.54852604086,
      "d": 100.96121874998789,
      "v": 66
    },
    {
      "midi": 40,
      "hit": false,
      "t": 173095.6057083325,
      "d": 189.90324479166884,
      "v": 72
    },
    {
      "midi": 60,
      "hit": false,
      "t": 173396.08552604084,
      "d": 144.2303124999744,
      "v": 69
    },
    {
      "midi": 55,
      "hit": false,
      "t": 173400.89320312417,
      "d": 86.5381875000021,
      "v": 66
    },
    {
      "midi": 64,
      "hit": false,
      "t": 173400.89320312417,
      "d": 124.99960416665999,
      "v": 76
    },
    {
      "midi": 41,
      "hit": false,
      "t": 173552.33503124915,
      "d": 228.36466145832674,
      "v": 64
    },
    {
      "midi": 60,
      "hit": false,
      "t": 173852.81484895747,
      "d": 151.44182812504005,
      "v": 70
    },
    {
      "midi": 65,
      "hit": false,
      "t": 173855.21868749915,
      "d": 144.2303125000326,
      "v": 62
    },
    {
      "midi": 57,
      "hit": false,
      "t": 173857.62252604082,
      "d": 139.4226354166749,
      "v": 63
    },
    {
      "midi": 41,
      "hit": false,
      "t": 174016.27586979084,
      "d": 377.4026510416588,
      "v": 65
    },
    {
      "midi": 60,
      "hit": false,
      "t": 174314.3518489575,
      "d": 146.63415104165324,
      "v": 66
    },
    {
      "midi": 57,
      "hit": false,
      "t": 174319.15952604084,
      "d": 100.96121874998789,
      "v": 69
    },
    {
      "midi": 65,
      "hit": false,
      "t": 174319.15952604084,
      "d": 100.96121874998789,
      "v": 64
    },
    {
      "midi": 43,
      "hit": false,
      "t": 174470.60135416582,
      "d": 247.59536979167024,
      "v": 70
    },
    {
      "midi": 59,
      "hit": false,
      "t": 174778.29268749917,
      "d": 122.59576562503935,
      "v": 62
    },
    {
      "midi": 62,
      "hit": false,
      "t": 174780.69652604085,
      "d": 120.1919270833605,
      "v": 68
    },
    {
      "midi": 55,
      "hit": false,
      "t": 174783.10036458253,
      "d": 93.74970312500955,
      "v": 67
    },
    {
      "midi": 43,
      "hit": false,
      "t": 174939.34986979087,
      "d": 201.9224375000049,
      "v": 69
    },
    {
      "midi": 59,
      "hit": false,
      "t": 175237.42584895753,
      "d": 108.17273437499534,
      "v": 69
    },
    {
      "midi": 55,
      "hit": false,
      "t": 175242.23352604086,
      "d": 91.3458645833307,
      "v": 66
    },
    {
      "midi": 62,
      "hit": false,
      "t": 175242.23352604086,
      "d": 122.59576562501024,
      "v": 75
    },
    {
      "midi": 36,
      "hit": false,
      "t": 175398.4830312492,
      "d": 300.47981770834303,
      "v": 77
    },
    {
      "midi": 60,
      "hit": false,
      "t": 175703.77052604087,
      "d": 141.82647395832464,
      "v": 68
    },
    {
      "midi": 64,
      "hit": false,
      "t": 175706.17436458255,
      "d": 100.96121874998789,
      "v": 72
    },
    {
      "midi": 55,
      "hit": false,
      "t": 175708.57820312423,
      "d": 72.1151562499872,
      "v": 64
    },
    {
      "midi": 36,
      "hit": false,
      "t": 175862.42386979086,
      "d": 264.4222395833349,
      "v": 73
    },
    {
      "midi": 64,
      "hit": false,
      "t": 176162.9036874992,
      "d": 117.78808854165254,
      "v": 70
    },
    {
      "midi": 60,
      "hit": false,
      "t": 176162.9036874992,
      "d": 141.82647395832464,
      "v": 69
    },
    {
      "midi": 55,
      "hit": false,
      "t": 176167.71136458253,
      "d": 67.3074791666586,
      "v": 66
    },
    {
      "midi": 40,
      "hit": false,
      "t": 176321.5570312492,
      "d": 228.36466145832674,
      "v": 71
    },
    {
      "midi": 60,
      "hit": false,
      "t": 176622.0368489575,
      "d": 139.4226354166749,
      "v": 62
    },
    {
      "midi": 55,
      "hit": false,
      "t": 176626.84452604083,
      "d": 122.59576562501024,
      "v": 66
    },
    {
      "midi": 64,
      "hit": false,
      "t": 176626.84452604083,
      "d": 146.63415104168234,
      "v": 72
    },
    {
      "midi": 40,
      "hit": false,
      "t": 176785.49786979085,
      "d": 269.2299166666635,
      "v": 72
    },
    {
      "midi": 60,
      "hit": false,
      "t": 177088.38152604084,
      "d": 156.24950520833954,
      "v": 69
    },
    {
      "midi": 55,
      "hit": false,
      "t": 177093.18920312417,
      "d": 137.01879687499604,
      "v": 63
    },
    {
      "midi": 64,
      "hit": false,
      "t": 177093.18920312417,
      "d": 151.44182812501094,
      "v": 71
    },
    {
      "midi": 41,
      "hit": false,
      "t": 177237.41951562418,
      "d": 300.47981770834303,
      "v": 64
    },
    {
      "midi": 60,
      "hit": false,
      "t": 177549.91852604086,
      "d": 127.40344270836795,
      "v": 62
    },
    {
      "midi": 65,
      "hit": false,
      "t": 177552.32236458253,
      "d": 129.8072812500177,
      "v": 62
    },
    {
      "midi": 57,
      "hit": false,
      "t": 177554.7262031242,
      "d": 110.5765729166742,
      "v": 62
    },
    {
      "midi": 41,
      "hit": false,
      "t": 177703.76419270755,
      "d": 370.1911354166514,
      "v": 68
    },
    {
      "midi": 60,
      "hit": false,
      "t": 178011.45552604087,
      "d": 129.8072812499886,
      "v": 76
    },
    {
      "midi": 57,
      "hit": false,
      "t": 178016.2632031242,
      "d": 129.8072812499886,
      "v": 72
    },
    {
      "midi": 65,
      "hit": false,
      "t": 178016.2632031242,
      "d": 134.6149583333172,
      "v": 72
    },
    {
      "midi": 43,
      "hit": false,
      "t": 178165.3011927075,
      "d": 266.82607812501374,
      "v": 67
    },
    {
      "midi": 62,
      "hit": false,
      "t": 178472.99252604085,
      "d": 139.4226354166749,
      "v": 70
    },
    {
      "midi": 55,
      "hit": false,
      "t": 178477.80020312418,
      "d": 108.17273437499534,
      "v": 62
    },
    {
      "midi": 59,
      "hit": false,
      "t": 178477.80020312418,
      "d": 110.5765729166742,
      "v": 62
    },
    {
      "midi": 43,
      "hit": false,
      "t": 178629.2420312492,
      "d": 175.48021354165394,
      "v": 71
    },
    {
      "midi": 62,
      "hit": false,
      "t": 178934.52952604083,
      "d": 108.17273437499534,
      "v": 72
    },
    {
      "midi": 55,
      "hit": false,
      "t": 178939.33720312416,
      "d": 86.5381875000021,
      "v": 67
    },
    {
      "midi": 59,
      "hit": false,
      "t": 178939.33720312416,
      "d": 103.36505729166674,
      "v": 70
    },
    {
      "midi": 43,
      "hit": false,
      "t": 178944.1448802075,
      "d": 93.74970312500955,
      "v": 65
    },
    {
      "midi": 36,
      "hit": false,
      "t": 179090.77903124917,
      "d": 274.0375937499921,
      "v": 78
    },
    {
      "midi": 60,
      "hit": false,
      "t": 179391.25884895748,
      "d": 199.51859895832604,
      "v": 62
    },
    {
      "midi": 55,
      "hit": false,
      "t": 179396.0665260408,
      "d": 161.05718229166814,
      "v": 57
    },
    {
      "midi": 64,
      "hit": false,
      "t": 179396.0665260408,
      "d": 161.05718229166814,
      "v": 68
    },
    {
      "midi": 36,
      "hit": false,
      "t": 179557.12370833248,
      "d": 288.460625000007,
      "v": 73
    },
    {
      "midi": 64,
      "hit": false,
      "t": 179855.19968749915,
      "d": 105.76889583331649,
      "v": 73
    },
    {
      "midi": 60,
      "hit": false,
      "t": 179855.19968749915,
      "d": 124.99960416665999,
      "v": 64
    },
    {
      "midi": 55,
      "hit": false,
      "t": 179860.00736458247,
      "d": 100.96121874998789,
      "v": 60
    },
    {
      "midi": 40,
      "hit": false,
      "t": 180011.44919270749,
      "d": 283.6529479166784,
      "v": 71
    },
    {
      "midi": 64,
      "hit": false,
      "t": 180314.3328489575,
      "d": 127.40344270833884,
      "v": 76
    },
    {
      "midi": 55,
      "hit": false,
      "t": 180319.14052604084,
      "d": 91.3458645833307,
      "v": 65
    },
    {
      "midi": 60,
      "hit": false,
      "t": 180319.14052604084,
      "d": 120.1919270833314,
      "v": 67
    },
    {
      "midi": 40,
      "hit": false,
      "t": 180480.1977083325,
      "d": 223.55698437499814,
      "v": 76
    },
    {
      "midi": 64,
      "hit": false,
      "t": 180775.8698489575,
      "d": 144.2303125000035,
      "v": 73
    },
    {
      "midi": 55,
      "hit": false,
      "t": 180780.67752604082,
      "d": 64.90364062500885,
      "v": 61
    },
    {
      "midi": 60,
      "hit": false,
      "t": 180780.67752604082,
      "d": 115.3842500000028,
      "v": 73
    },
    {
      "midi": 41,
      "hit": false,
      "t": 180932.11935416583,
      "d": 295.67214062501444,
      "v": 68
    },
    {
      "midi": 60,
      "hit": false,
      "t": 181237.4068489575,
      "d": 141.82647395832464,
      "v": 76
    },
    {
      "midi": 57,
      "hit": false,
      "t": 181242.21452604083,
      "d": 122.59576562501024,
      "v": 74
    },
    {
      "midi": 65,
      "hit": false,
      "t": 181242.21452604083,
      "d": 146.63415104165324,
      "v": 76
    },
    {
      "midi": 41,
      "hit": false,
      "t": 181400.86786979082,
      "d": 367.78729687500163,
      "v": 61
    },
    {
      "midi": 60,
      "hit": false,
      "t": 181703.7515260408,
      "d": 120.1919270833314,
      "v": 81
    },
    {
      "midi": 65,
      "hit": false,
      "t": 181703.7515260408,
      "d": 139.4226354166749,
      "v": 78
    },
    {
      "midi": 57,
      "hit": false,
      "t": 181710.96304166582,
      "d": 67.3074791666586,
      "v": 74
    },
    {
      "midi": 43,
      "hit": false,
      "t": 181860.00103124915,
      "d": 290.86446354165673,
      "v": 68
    },
    {
      "midi": 62,
      "hit": false,
      "t": 182165.2885260408,
      "d": 180.28789062501164,
      "v": 80
    },
    {
      "midi": 67,
      "hit": false,
      "t": 182165.2885260408,
      "d": 197.1147604166763,
      "v": 82
    },
    {
      "midi": 59,
      "hit": false,
      "t": 182170.09620312412,
      "d": 134.6149583333463,
      "v": 79
    },
    {
      "midi": 43,
      "hit": false,
      "t": 182323.9418697908,
      "d": 271.63375520831323,
      "v": 73
    },
    {
      "midi": 62,
      "hit": false,
      "t": 182626.8255260408,
      "d": 64.90364062500885,
      "v": 82
    },
    {
      "midi": 67,
      "hit": false,
      "t": 182626.8255260408,
      "d": 79.32667187499464,
      "v": 82
    },
    {
      "midi": 59,
      "hit": false,
      "t": 182629.22936458248,
      "d": 38.4614166666579,
      "v": 80
    },
    {
      "midi": 36,
      "hit": false,
      "t": 182773.45967708246,
      "d": 134.6149583332881,
      "v": 82
    },
    {
      "midi": 67,
      "hit": false,
      "t": 182799.90190104078,
      "d": 55.288286458322546,
      "v": 82
    },
    {
      "midi": 64,
      "hit": false,
      "t": 182804.7095781241,
      "d": 45.67293229166535,
      "v": 82
    },
    {
      "midi": 72,
      "hit": false,
      "t": 182804.7095781241,
      "d": 76.9228333333158,
      "v": 82
    }
  ]
}