{
  "jsonPath": "Rap/French Hip Hop/KDD/resurrection.json",
  "path": "Rap\\French Hip Hop\\KDD\\Résurrection.mid",
  "name": "Résurrection",
  "difficulty": "Advanced",
  "bpm": 93.000186000372,
  "notes": [
    {
      "midi": 60,
      "hit": false,
      "t": 5161.28,
      "d": 129.03200000000015,
      "v": 80
    },
    {
      "midi": 65,
      "hit": false,
      "t": 5161.28,
      "d": 129.03200000000015,
      "v": 80
    },
    {
      "midi": 74,
      "hit": false,
      "t": 5161.28,
      "d": 387.09599999999955,
      "v": 80
    },
    {
      "midi": 62,
      "hit": false,
      "t": 5322.57,
      "d": 129.03200000000015,
      "v": 80
    },
    {
      "midi": 67,
      "hit": false,
      "t": 5322.57,
      "d": 129.03200000000015,
      "v": 80
    },
    {
      "midi": 63,
      "hit": false,
      "t": 5483.86,
      "d": 129.03199999999924,
      "v": 80
    },
    {
      "midi": 65,
      "hit": false,
      "t": 5483.86,
      "d": 129.03199999999924,
      "v": 80
    },
    {
      "midi": 60,
      "hit": false,
      "t": 5645.149999999999,
      "d": 129.03200000000015,
      "v": 80
    },
    {
      "midi": 67,
      "hit": false,
      "t": 5645.149999999999,
      "d": 129.03200000000015,
      "v": 80
    },
    {
      "midi": 75,
      "hit": false,
      "t": 5645.149999999999,
      "d": 419.35400000000027,
      "v": 80
    },
    {
      "midi": 62,
      "hit": false,
      "t": 5806.439999999999,
      "d": 129.03200000000015,
      "v": 80
    },
    {
      "midi": 65,
      "hit": false,
      "t": 5806.439999999999,
      "d": 129.03200000000015,
      "v": 80
    },
    {
      "midi": 63,
      "hit": false,
      "t": 5967.729999999999,
      "d": 129.03200000000015,
      "v": 80
    },
    {
      "midi": 67,
      "hit": false,
      "t": 5967.729999999999,
      "d": 129.03200000000015,
      "v": 80
    },
    {
      "midi": 51,
      "hit": false,
      "t": 6129.019999999999,
      "d": 129.03200000000015,
      "v": 80
    },
    {
      "midi": 65,
      "hit": false,
      "t": 6129.019999999999,
      "d": 129.03200000000015,
      "v": 80
    },
    {
      "midi": 74,
      "hit": false,
      "t": 6129.019999999999,
      "d": 451.6120000000001,
      "v": 80
    },
    {
      "midi": 58,
      "hit": false,
      "t": 6290.309999999999,
      "d": 129.03200000000015,
      "v": 80
    },
    {
      "midi": 67,
      "hit": false,
      "t": 6290.309999999999,
      "d": 129.03200000000015,
      "v": 80
    },
    {
      "midi": 63,
      "hit": false,
      "t": 6451.5999999999985,
      "d": 129.03200000000015,
      "v": 80
    },
    {
      "midi": 65,
      "hit": false,
      "t": 6451.5999999999985,
      "d": 129.03200000000015,
      "v": 80
    },
    {
      "midi": 51,
      "hit": false,
      "t": 6612.8899999999985,
      "d": 129.03200000000015,
      "v": 80
    },
    {
      "midi": 67,
      "hit": false,
      "t": 6612.8899999999985,
      "d": 129.03200000000015,
      "v": 80
    },
    {
      "midi": 75,
      "hit": false,
      "t": 6612.8899999999985,
      "d": 387.09599999999955,
      "v": 80
    },
    {
      "midi": 58,
      "hit": false,
      "t": 6774.1799999999985,
      "d": 129.03200000000015,
      "v": 80
    },
    {
      "midi": 65,
      "hit": false,
      "t": 6774.1799999999985,
      "d": 129.03200000000015,
      "v": 80
    },
    {
      "midi": 63,
      "hit": false,
      "t": 6935.469999999998,
      "d": 129.03199999999924,
      "v": 80
    },
    {
      "midi": 67,
      "hit": false,
      "t": 6935.469999999998,
      "d": 129.03199999999924,
      "v": 80
    },
    {
      "midi": 51,
      "hit": false,
      "t": 7096.7599999999975,
      "d": 129.03200000000015,
      "v": 80
    },
    {
      "midi": 65,
      "hit": false,
      "t": 7096.7599999999975,
      "d": 129.03200000000015,
      "v": 80
    },
    {
      "midi": 74,
      "hit": false,
      "t": 7096.7599999999975,
      "d": 516.1279999999997,
      "v": 80
    },
    {
      "midi": 58,
      "hit": false,
      "t": 7258.049999999997,
      "d": 129.03200000000015,
      "v": 80
    },
    {
      "midi": 67,
      "hit": false,
      "t": 7258.049999999997,
      "d": 129.03200000000015,
      "v": 80
    },
    {
      "midi": 63,
      "hit": false,
      "t": 7419.339999999997,
      "d": 129.03200000000015,
      "v": 80
    },
    {
      "midi": 65,
      "hit": false,
      "t": 7419.339999999997,
      "d": 129.03200000000015,
      "v": 80
    },
    {
      "midi": 67,
      "hit": false,
      "t": 7580.629999999997,
      "d": 129.03200000000015,
      "v": 80
    },
    {
      "midi": 56,
      "hit": false,
      "t": 7741.919999999997,
      "d": 129.03200000000015,
      "v": 80
    },
    {
      "midi": 75,
      "hit": false,
      "t": 7741.919999999997,
      "d": 387.09599999999955,
      "v": 80
    },
    {
      "midi": 60,
      "hit": false,
      "t": 7903.209999999997,
      "d": 129.03200000000015,
      "v": 80
    },
    {
      "midi": 67,
      "hit": false,
      "t": 7903.209999999997,
      "d": 129.03200000000015,
      "v": 80
    },
    {
      "midi": 63,
      "hit": false,
      "t": 8064.499999999997,
      "d": 129.03200000000015,
      "v": 80
    },
    {
      "midi": 65,
      "hit": false,
      "t": 8064.499999999997,
      "d": 129.03200000000015,
      "v": 80
    },
    {
      "midi": 56,
      "hit": false,
      "t": 8225.789999999997,
      "d": 129.03199999999924,
      "v": 80
    },
    {
      "midi": 67,
      "hit": false,
      "t": 8225.789999999997,
      "d": 129.03199999999924,
      "v": 80
    },
    {
      "midi": 74,
      "hit": false,
      "t": 8225.789999999997,
      "d": 419.35399999999754,
      "v": 80
    },
    {
      "midi": 60,
      "hit": false,
      "t": 8387.079999999996,
      "d": 129.03199999999924,
      "v": 80
    },
    {
      "midi": 65,
      "hit": false,
      "t": 8387.079999999996,
      "d": 129.03199999999924,
      "v": 80
    },
    {
      "midi": 63,
      "hit": false,
      "t": 8548.369999999995,
      "d": 129.03199999999924,
      "v": 80
    },
    {
      "midi": 67,
      "hit": false,
      "t": 8548.369999999995,
      "d": 129.03199999999924,
      "v": 80
    },
    {
      "midi": 58,
      "hit": false,
      "t": 8709.659999999994,
      "d": 129.03199999999924,
      "v": 80
    },
    {
      "midi": 65,
      "hit": false,
      "t": 8709.659999999994,
      "d": 129.03199999999924,
      "v": 80
    },
    {
      "midi": 75,
      "hit": false,
      "t": 8709.659999999994,
      "d": 451.61199999999735,
      "v": 80
    },
    {
      "midi": 62,
      "hit": false,
      "t": 8870.949999999993,
      "d": 129.03199999999924,
      "v": 80
    },
    {
      "midi": 67,
      "hit": false,
      "t": 8870.949999999993,
      "d": 129.03199999999924,
      "v": 80
    },
    {
      "midi": 63,
      "hit": false,
      "t": 9032.239999999993,
      "d": 129.03199999999924,
      "v": 80
    },
    {
      "midi": 65,
      "hit": false,
      "t": 9032.239999999993,
      "d": 129.03199999999924,
      "v": 80
    },
    {
      "midi": 58,
      "hit": false,
      "t": 9193.529999999992,
      "d": 129.03199999999924,
      "v": 80
    },
    {
      "midi": 67,
      "hit": false,
      "t": 9193.529999999992,
      "d": 129.03199999999924,
      "v": 80
    },
    {
      "midi": 74,
      "hit": false,
      "t": 9193.529999999992,
      "d": 387.09599999999773,
      "v": 80
    },
    {
      "midi": 62,
      "hit": false,
      "t": 9354.81999999999,
      "d": 129.03199999999924,
      "v": 80
    },
    {
      "midi": 65,
      "hit": false,
      "t": 9354.81999999999,
      "d": 129.03199999999924,
      "v": 80
    },
    {
      "midi": 63,
      "hit": false,
      "t": 9516.10999999999,
      "d": 129.03199999999924,
      "v": 80
    },
    {
      "midi": 67,
      "hit": false,
      "t": 9516.10999999999,
      "d": 129.03199999999924,
      "v": 80
    },
    {
      "midi": 58,
      "hit": false,
      "t": 9677.399999999989,
      "d": 129.03199999999924,
      "v": 80
    },
    {
      "midi": 65,
      "hit": false,
      "t": 9677.399999999989,
      "d": 129.03199999999924,
      "v": 80
    },
    {
      "midi": 72,
      "hit": false,
      "t": 9677.399999999989,
      "d": 516.127999999997,
      "v": 80
    },
    {
      "midi": 67,
      "hit": false,
      "t": 9838.689999999988,
      "d": 129.03199999999924,
      "v": 80
    },
    {
      "midi": 62,
      "hit": false,
      "t": 9838.689999999988,
      "d": 258.0639999999985,
      "v": 80
    },
    {
      "midi": 65,
      "hit": false,
      "t": 9999.979999999987,
      "d": 129.03199999999924,
      "v": 80
    },
    {
      "midi": 67,
      "hit": false,
      "t": 10161.269999999986,
      "d": 129.03199999999924,
      "v": 80
    },
    {
      "midi": 63,
      "hit": false,
      "t": 10161.269999999986,
      "d": 258.0639999999985,
      "v": 80
    },
    {
      "midi": 65,
      "hit": false,
      "t": 10322.559999999985,
      "d": 129.03199999999924,
      "v": 80
    },
    {
      "midi": 60,
      "hit": false,
      "t": 10322.559999999985,
      "d": 387.09599999999773,
      "v": 80
    },
    {
      "midi": 74,
      "hit": false,
      "t": 10322.559999999985,
      "d": 387.09599999999773,
      "v": 80
    },
    {
      "midi": 67,
      "hit": false,
      "t": 10483.849999999984,
      "d": 129.03199999999924,
      "v": 80
    },
    {
      "midi": 65,
      "hit": false,
      "t": 10645.139999999983,
      "d": 129.03199999999924,
      "v": 80
    },
    {
      "midi": 67,
      "hit": false,
      "t": 10806.429999999982,
      "d": 129.03199999999924,
      "v": 80
    },
    {
      "midi": 60,
      "hit": false,
      "t": 10806.429999999982,
      "d": 419.35399999999754,
      "v": 80
    },
    {
      "midi": 75,
      "hit": false,
      "t": 10806.429999999982,
      "d": 419.35399999999754,
      "v": 80
    },
    {
      "midi": 65,
      "hit": false,
      "t": 10967.719999999981,
      "d": 129.03199999999924,
      "v": 80
    },
    {
      "midi": 67,
      "hit": false,
      "t": 11129.00999999998,
      "d": 129.03199999999924,
      "v": 80
    },
    {
      "midi": 65,
      "hit": false,
      "t": 11290.29999999998,
      "d": 129.03199999999924,
      "v": 80
    },
    {
      "midi": 58,
      "hit": false,
      "t": 11290.29999999998,
      "d": 451.61199999999735,
      "v": 80
    },
    {
      "midi": 74,
      "hit": false,
      "t": 11290.29999999998,
      "d": 451.61199999999735,
      "v": 80
    },
    {
      "midi": 67,
      "hit": false,
      "t": 11451.589999999978,
      "d": 129.03199999999924,
      "v": 80
    },
    {
      "midi": 65,
      "hit": false,
      "t": 11612.879999999977,
      "d": 129.03199999999924,
      "v": 80
    },
    {
      "midi": 67,
      "hit": false,
      "t": 11774.169999999976,
      "d": 129.03199999999924,
      "v": 80
    },
    {
      "midi": 58,
      "hit": false,
      "t": 11774.169999999976,
      "d": 387.09599999999773,
      "v": 80
    },
    {
      "midi": 75,
      "hit": false,
      "t": 11774.169999999976,
      "d": 387.09599999999773,
      "v": 80
    },
    {
      "midi": 65,
      "hit": false,
      "t": 11935.459999999975,
      "d": 129.03199999999924,
      "v": 80
    },
    {
      "midi": 67,
      "hit": false,
      "t": 12096.749999999975,
      "d": 129.03199999999924,
      "v": 80
    },
    {
      "midi": 65,
      "hit": false,
      "t": 12258.039999999974,
      "d": 129.03199999999924,
      "v": 80
    },
    {
      "midi": 58,
      "hit": false,
      "t": 12258.039999999974,
      "d": 516.127999999997,
      "v": 80
    },
    {
      "midi": 74,
      "hit": false,
      "t": 12258.039999999974,
      "d": 516.127999999997,
      "v": 80
    },
    {
      "midi": 67,
      "hit": false,
      "t": 12419.329999999973,
      "d": 129.03199999999924,
      "v": 80
    },
    {
      "midi": 65,
      "hit": false,
      "t": 12580.619999999972,
      "d": 129.03199999999924,
      "v": 80
    },
    {
      "midi": 67,
      "hit": false,
      "t": 12741.90999999997,
      "d": 129.03199999999924,
      "v": 80
    },
    {
      "midi": 65,
      "hit": false,
      "t": 12903.19999999997,
      "d": 129.03199999999924,
      "v": 80
    },
    {
      "midi": 56,
      "hit": false,
      "t": 12903.19999999997,
      "d": 387.09599999999773,
      "v": 80
    },
    {
      "midi": 75,
      "hit": false,
      "t": 12903.19999999997,
      "d": 387.09599999999773,
      "v": 80
    },
    {
      "midi": 67,
      "hit": false,
      "t": 13064.489999999969,
      "d": 129.03199999999924,
      "v": 80
    },
    {
      "midi": 65,
      "hit": false,
      "t": 13225.779999999968,
      "d": 129.03199999999924,
      "v": 80
    },
    {
      "midi": 67,
      "hit": false,
      "t": 13387.069999999967,
      "d": 129.03199999999924,
      "v": 80
    },
    {
      "midi": 56,
      "hit": false,
      "t": 13387.069999999967,
      "d": 419.35399999999754,
      "v": 80
    },
    {
      "midi": 74,
      "hit": false,
      "t": 13387.069999999967,
      "d": 419.35399999999754,
      "v": 80
    },
    {
      "midi": 65,
      "hit": false,
      "t": 13548.359999999966,
      "d": 129.03199999999924,
      "v": 80
    },
    {
      "midi": 67,
      "hit": false,
      "t": 13709.649999999965,
      "d": 129.03199999999924,
      "v": 80
    },
    {
      "midi": 65,
      "hit": false,
      "t": 13870.939999999964,
      "d": 129.03199999999924,
      "v": 80
    },
    {
      "midi": 56,
      "hit": false,
      "t": 13870.939999999964,
      "d": 451.61199999999735,
      "v": 80
    },
    {
      "midi": 75,
      "hit": false,
      "t": 13870.939999999964,
      "d": 451.61199999999735,
      "v": 80
    },
    {
      "midi": 67,
      "hit": false,
      "t": 14032.229999999963,
      "d": 129.03199999999924,
      "v": 80
    },
    {
      "midi": 65,
      "hit": false,
      "t": 14193.519999999962,
      "d": 129.03199999999924,
      "v": 80
    },
    {
      "midi": 67,
      "hit": false,
      "t": 14354.809999999961,
      "d": 129.03199999999924,
      "v": 80
    },
    {
      "midi": 58,
      "hit": false,
      "t": 14354.809999999961,
      "d": 387.09599999999773,
      "v": 80
    },
    {
      "midi": 74,
      "hit": false,
      "t": 14354.809999999961,
      "d": 387.09599999999773,
      "v": 80
    },
    {
      "midi": 65,
      "hit": false,
      "t": 14516.09999999996,
      "d": 129.03199999999924,
      "v": 80
    },
    {
      "midi": 67,
      "hit": false,
      "t": 14677.38999999996,
      "d": 129.03199999999924,
      "v": 80
    },
    {
      "midi": 65,
      "hit": false,
      "t": 14838.679999999958,
      "d": 129.03199999999924,
      "v": 80
    },
    {
      "midi": 58,
      "hit": false,
      "t": 14838.679999999958,
      "d": 516.127999999997,
      "v": 80
    },
    {
      "midi": 72,
      "hit": false,
      "t": 14838.679999999958,
      "d": 516.127999999997,
      "v": 80
    },
    {
      "midi": 67,
      "hit": false,
      "t": 14999.969999999958,
      "d": 129.03199999999924,
      "v": 80
    },
    {
      "midi": 65,
      "hit": false,
      "t": 15161.259999999957,
      "d": 129.03199999999924,
      "v": 80
    },
    {
      "midi": 67,
      "hit": false,
      "t": 15322.549999999956,
      "d": 129.03199999999924,
      "v": 80
    },
    {
      "midi": 65,
      "hit": false,
      "t": 15483.839999999955,
      "d": 129.03199999999924,
      "v": 80
    },
    {
      "midi": 60,
      "hit": false,
      "t": 15483.839999999955,
      "d": 387.09599999999773,
      "v": 80
    },
    {
      "midi": 74,
      "hit": false,
      "t": 15483.839999999955,
      "d": 387.09599999999773,
      "v": 80
    },
    {
      "midi": 67,
      "hit": false,
      "t": 15645.129999999954,
      "d": 129.03199999999924,
      "v": 80
    },
    {
      "midi": 65,
      "hit": false,
      "t": 15806.419999999953,
      "d": 129.03199999999924,
      "v": 80
    },
    {
      "midi": 67,
      "hit": false,
      "t": 15967.709999999952,
      "d": 129.03199999999924,
      "v": 80
    },
    {
      "midi": 60,
      "hit": false,
      "t": 15967.709999999952,
      "d": 419.35399999999936,
      "v": 80
    },
    {
      "midi": 75,
      "hit": false,
      "t": 15967.709999999952,
      "d": 419.35399999999936,
      "v": 80
    },
    {
      "midi": 65,
      "hit": false,
      "t": 16128.99999999995,
      "d": 129.03199999999924,
      "v": 80
    },
    {
      "midi": 67,
      "hit": false,
      "t": 16290.28999999995,
      "d": 129.03200000000288,
      "v": 80
    },
    {
      "midi": 65,
      "hit": false,
      "t": 16451.579999999954,
      "d": 129.03199999999924,
      "v": 80
    },
    {
      "midi": 58,
      "hit": false,
      "t": 16451.579999999954,
      "d": 451.612000000001,
      "v": 80
    },
    {
      "midi": 74,
      "hit": false,
      "t": 16451.579999999954,
      "d": 451.612000000001,
      "v": 80
    },
    {
      "midi": 67,
      "hit": false,
      "t": 16612.869999999955,
      "d": 129.03199999999924,
      "v": 80
    },
    {
      "midi": 65,
      "hit": false,
      "t": 16774.159999999956,
      "d": 129.03199999999924,
      "v": 80
    },
    {
      "midi": 67,
      "hit": false,
      "t": 16935.449999999957,
      "d": 129.03199999999924,
      "v": 80
    },
    {
      "midi": 58,
      "hit": false,
      "t": 16935.449999999957,
      "d": 387.09600000000137,
      "v": 80
    },
    {
      "midi": 75,
      "hit": false,
      "t": 16935.449999999957,
      "d": 387.09600000000137,
      "v": 80
    },
    {
      "midi": 65,
      "hit": false,
      "t": 17096.739999999958,
      "d": 129.03199999999924,
      "v": 80
    },
    {
      "midi": 67,
      "hit": false,
      "t": 17258.02999999996,
      "d": 129.03199999999924,
      "v": 80
    },
    {
      "midi": 65,
      "hit": false,
      "t": 17419.31999999996,
      "d": 129.03199999999924,
      "v": 80
    },
    {
      "midi": 58,
      "hit": false,
      "t": 17419.31999999996,
      "d": 516.1280000000042,
      "v": 80
    },
    {
      "midi": 74,
      "hit": false,
      "t": 17419.31999999996,
      "d": 516.1280000000042,
      "v": 80
    },
    {
      "midi": 67,
      "hit": false,
      "t": 17580.60999999996,
      "d": 129.03199999999924,
      "v": 80
    },
    {
      "midi": 65,
      "hit": false,
      "t": 17741.89999999996,
      "d": 129.03199999999924,
      "v": 80
    },
    {
      "midi": 67,
      "hit": false,
      "t": 17903.189999999962,
      "d": 129.03200000000288,
      "v": 80
    },
    {
      "midi": 65,
      "hit": false,
      "t": 18064.479999999967,
      "d": 129.03199999999924,
      "v": 80
    },
    {
      "midi": 56,
      "hit": false,
      "t": 18064.479999999967,
      "d": 387.09600000000137,
      "v": 80
    },
    {
      "midi": 75,
      "hit": false,
      "t": 18064.479999999967,
      "d": 387.09600000000137,
      "v": 80
    },
    {
      "midi": 67,
      "hit": false,
      "t": 18225.769999999968,
      "d": 129.03199999999924,
      "v": 80
    },
    {
      "midi": 65,
      "hit": false,
      "t": 18387.05999999997,
      "d": 129.03199999999924,
      "v": 80
    },
    {
      "midi": 67,
      "hit": false,
      "t": 18548.34999999997,
      "d": 129.03199999999924,
      "v": 80
    },
    {
      "midi": 56,
      "hit": false,
      "t": 18548.34999999997,
      "d": 419.354000000003,
      "v": 80
    },
    {
      "midi": 74,
      "hit": false,
      "t": 18548.34999999997,
      "d": 419.354000000003,
      "v": 80
    },
    {
      "midi": 65,
      "hit": false,
      "t": 18709.63999999997,
      "d": 129.03199999999924,
      "v": 80
    },
    {
      "midi": 67,
      "hit": false,
      "t": 18870.92999999997,
      "d": 129.03200000000288,
      "v": 80
    },
    {
      "midi": 65,
      "hit": false,
      "t": 19032.219999999976,
      "d": 129.03199999999924,
      "v": 80
    },
    {
      "midi": 56,
      "hit": false,
      "t": 19032.219999999976,
      "d": 451.612000000001,
      "v": 80
    },
    {
      "midi": 75,
      "hit": false,
      "t": 19032.219999999976,
      "d": 451.612000000001,
      "v": 80
    },
    {
      "midi": 67,
      "hit": false,
      "t": 19193.509999999977,
      "d": 129.03199999999924,
      "v": 80
    },
    {
      "midi": 65,
      "hit": false,
      "t": 19354.799999999977,
      "d": 129.03199999999924,
      "v": 80
    },
    {
      "midi": 67,
      "hit": false,
      "t": 19516.08999999998,
      "d": 129.03199999999924,
      "v": 80
    },
    {
      "midi": 58,
      "hit": false,
      "t": 19516.08999999998,
      "d": 387.09600000000137,
      "v": 80
    },
    {
      "midi": 74,
      "hit": false,
      "t": 19516.08999999998,
      "d": 387.09600000000137,
      "v": 80
    },
    {
      "midi": 65,
      "hit": false,
      "t": 19677.37999999998,
      "d": 129.03199999999924,
      "v": 80
    },
    {
      "midi": 67,
      "hit": false,
      "t": 19838.66999999998,
      "d": 129.03199999999924,
      "v": 80
    },
    {
      "midi": 65,
      "hit": false,
      "t": 19999.95999999998,
      "d": 129.03199999999924,
      "v": 80
    },
    {
      "midi": 58,
      "hit": false,
      "t": 19999.95999999998,
      "d": 516.1280000000042,
      "v": 80
    },
    {
      "midi": 72,
      "hit": false,
      "t": 19999.95999999998,
      "d": 516.1280000000042,
      "v": 80
    },
    {
      "midi": 67,
      "hit": false,
      "t": 20161.24999999998,
      "d": 129.03199999999924,
      "v": 80
    },
    {
      "midi": 65,
      "hit": false,
      "t": 20322.539999999983,
      "d": 129.03199999999924,
      "v": 80
    },
    {
      "midi": 67,
      "hit": false,
      "t": 20483.829999999984,
      "d": 129.03200000000288,
      "v": 80
    },
    {
      "midi": 65,
      "hit": false,
      "t": 20645.119999999988,
      "d": 129.03199999999924,
      "v": 80
    },
    {
      "midi": 60,
      "hit": false,
      "t": 20645.119999999988,
      "d": 387.09600000000137,
      "v": 80
    },
    {
      "midi": 74,
      "hit": false,
      "t": 20645.119999999988,
      "d": 387.09600000000137,
      "v": 80
    },
    {
      "midi": 67,
      "hit": false,
      "t": 20806.40999999999,
      "d": 129.03199999999924,
      "v": 80
    },
    {
      "midi": 65,
      "hit": false,
      "t": 20967.69999999999,
      "d": 129.03199999999924,
      "v": 80
    },
    {
      "midi": 67,
      "hit": false,
      "t": 21128.98999999999,
      "d": 129.03199999999924,
      "v": 80
    },
    {
      "midi": 60,
      "hit": false,
      "t": 21128.98999999999,
      "d": 419.354000000003,
      "v": 80
    },
    {
      "midi": 75,
      "hit": false,
      "t": 21128.98999999999,
      "d": 419.354000000003,
      "v": 80
    },
    {
      "midi": 65,
      "hit": false,
      "t": 21290.27999999999,
      "d": 129.03199999999924,
      "v": 80
    },
    {
      "midi": 67,
      "hit": false,
      "t": 21451.569999999992,
      "d": 129.03200000000288,
      "v": 80
    },
    {
      "midi": 65,
      "hit": false,
      "t": 21612.859999999997,
      "d": 129.03199999999924,
      "v": 80
    },
    {
      "midi": 58,
      "hit": false,
      "t": 21612.859999999997,
      "d": 451.612000000001,
      "v": 80
    },
    {
      "midi": 74,
      "hit": false,
      "t": 21612.859999999997,
      "d": 451.612000000001,
      "v": 80
    },
    {
      "midi": 67,
      "hit": false,
      "t": 21774.149999999998,
      "d": 129.03199999999924,
      "v": 80
    },
    {
      "midi": 65,
      "hit": false,
      "t": 21935.44,
      "d": 129.03199999999924,
      "v": 80
    },
    {
      "midi": 67,
      "hit": false,
      "t": 22096.73,
      "d": 129.03199999999924,
      "v": 80
    },
    {
      "midi": 58,
      "hit": false,
      "t": 22096.73,
      "d": 387.09600000000137,
      "v": 80
    },
    {
      "midi": 75,
      "hit": false,
      "t": 22096.73,
      "d": 387.09600000000137,
      "v": 80
    },
    {
      "midi": 65,
      "hit": false,
      "t": 22258.02,
      "d": 129.03199999999924,
      "v": 80
    },
    {
      "midi": 67,
      "hit": false,
      "t": 22419.31,
      "d": 129.03199999999924,
      "v": 80
    },
    {
      "midi": 65,
      "hit": false,
      "t": 22580.600000000002,
      "d": 129.03199999999924,
      "v": 80
    },
    {
      "midi": 58,
      "hit": false,
      "t": 22580.600000000002,
      "d": 516.1280000000042,
      "v": 80
    },
    {
      "midi": 74,
      "hit": false,
      "t": 22580.600000000002,
      "d": 516.1280000000042,
      "v": 80
    },
    {
      "midi": 67,
      "hit": false,
      "t": 22741.890000000003,
      "d": 129.03199999999924,
      "v": 80
    },
    {
      "midi": 65,
      "hit": false,
      "t": 22903.180000000004,
      "d": 129.03199999999924,
      "v": 80
    },
    {
      "midi": 67,
      "hit": false,
      "t": 23064.470000000005,
      "d": 129.03200000000288,
      "v": 80
    },
    {
      "midi": 65,
      "hit": false,
      "t": 23225.76000000001,
      "d": 129.03199999999924,
      "v": 80
    },
    {
      "midi": 56,
      "hit": false,
      "t": 23225.76000000001,
      "d": 387.09600000000137,
      "v": 80
    },
    {
      "midi": 75,
      "hit": false,
      "t": 23225.76000000001,
      "d": 387.09600000000137,
      "v": 80
    },
    {
      "midi": 67,
      "hit": false,
      "t": 23387.05000000001,
      "d": 129.03199999999924,
      "v": 80
    },
    {
      "midi": 65,
      "hit": false,
      "t": 23548.34000000001,
      "d": 129.03199999999924,
      "v": 80
    },
    {
      "midi": 67,
      "hit": false,
      "t": 23709.630000000012,
      "d": 129.03199999999924,
      "v": 80
    },
    {
      "midi": 56,
      "hit": false,
      "t": 23709.630000000012,
      "d": 419.354000000003,
      "v": 80
    },
    {
      "midi": 74,
      "hit": false,
      "t": 23709.630000000012,
      "d": 419.354000000003,
      "v": 80
    },
    {
      "midi": 65,
      "hit": false,
      "t": 23870.920000000013,
      "d": 129.03199999999924,
      "v": 80
    },
    {
      "midi": 67,
      "hit": false,
      "t": 24032.210000000014,
      "d": 129.03200000000288,
      "v": 80
    },
    {
      "midi": 65,
      "hit": false,
      "t": 24193.50000000002,
      "d": 129.03199999999924,
      "v": 80
    },
    {
      "midi": 56,
      "hit": false,
      "t": 24193.50000000002,
      "d": 451.612000000001,
      "v": 80
    },
    {
      "midi": 75,
      "hit": false,
      "t": 24193.50000000002,
      "d": 451.612000000001,
      "v": 80
    },
    {
      "midi": 67,
      "hit": false,
      "t": 24354.79000000002,
      "d": 129.03199999999924,
      "v": 80
    },
    {
      "midi": 65,
      "hit": false,
      "t": 24516.08000000002,
      "d": 129.03199999999924,
      "v": 80
    },
    {
      "midi": 67,
      "hit": false,
      "t": 24677.37000000002,
      "d": 129.03199999999924,
      "v": 80
    },
    {
      "midi": 58,
      "hit": false,
      "t": 24677.37000000002,
      "d": 387.09600000000137,
      "v": 80
    },
    {
      "midi": 74,
      "hit": false,
      "t": 24677.37000000002,
      "d": 387.09600000000137,
      "v": 80
    },
    {
      "midi": 65,
      "hit": false,
      "t": 24838.66000000002,
      "d": 129.03199999999924,
      "v": 80
    },
    {
      "midi": 67,
      "hit": false,
      "t": 24999.950000000023,
      "d": 129.03199999999924,
      "v": 80
    },
    {
      "midi": 58,
      "hit": false,
      "t": 25161.240000000023,
      "d": 516.1280000000006,
      "v": 80
    },
    {
      "midi": 65,
      "hit": false,
      "t": 25161.240000000023,
      "d": 516.1280000000006,
      "v": 80
    },
    {
      "midi": 72,
      "hit": false,
      "t": 25161.240000000023,
      "d": 516.1280000000006,
      "v": 80
    },
    {
      "midi": 60,
      "hit": false,
      "t": 25806.400000000023,
      "d": 129.03199999999924,
      "v": 80
    },
    {
      "midi": 65,
      "hit": false,
      "t": 25806.400000000023,
      "d": 387.09600000000137,
      "v": 80
    },
    {
      "midi": 48,
      "hit": false,
      "t": 25806.400000000023,
      "d": 1032.2560000000085,
      "v": 80
    },
    {
      "midi": 62,
      "hit": false,
      "t": 25967.690000000024,
      "d": 129.03199999999924,
      "v": 80
    },
    {
      "midi": 63,
      "hit": false,
      "t": 26128.980000000025,
      "d": 129.03199999999924,
      "v": 80
    },
    {
      "midi": 60,
      "hit": false,
      "t": 26290.270000000026,
      "d": 129.03199999999924,
      "v": 80
    },
    {
      "midi": 70,
      "hit": false,
      "t": 26290.270000000026,
      "d": 129.03199999999924,
      "v": 80
    },
    {
      "midi": 62,
      "hit": false,
      "t": 26451.560000000027,
      "d": 129.03199999999924,
      "v": 80
    },
    {
      "midi": 70,
      "hit": false,
      "t": 26451.560000000027,
      "d": 258.0640000000021,
      "v": 80
    },
    {
      "midi": 63,
      "hit": false,
      "t": 26612.850000000028,
      "d": 129.03200000000288,
      "v": 80
    },
    {
      "midi": 60,
      "hit": false,
      "t": 26774.140000000032,
      "d": 129.03199999999924,
      "v": 80
    },
    {
      "midi": 65,
      "hit": false,
      "t": 26774.140000000032,
      "d": 258.0640000000021,
      "v": 80
    },
    {
      "midi": 62,
      "hit": false,
      "t": 26935.430000000033,
      "d": 129.03200000000288,
      "v": 80
    },
    {
      "midi": 63,
      "hit": false,
      "t": 27096.720000000038,
      "d": 129.03199999999924,
      "v": 80
    },
    {
      "midi": 65,
      "hit": false,
      "t": 27096.720000000038,
      "d": 258.0640000000021,
      "v": 80
    },
    {
      "midi": 51,
      "hit": false,
      "t": 27096.720000000038,
      "d": 1032.2560000000121,
      "v": 80
    },
    {
      "midi": 60,
      "hit": false,
      "t": 27258.01000000004,
      "d": 129.03200000000288,
      "v": 80
    },
    {
      "midi": 62,
      "hit": false,
      "t": 27419.300000000043,
      "d": 129.03199999999924,
      "v": 80
    },
    {
      "midi": 67,
      "hit": false,
      "t": 27419.300000000043,
      "d": 258.0640000000021,
      "v": 80
    },
    {
      "midi": 63,
      "hit": false,
      "t": 27580.590000000044,
      "d": 129.03200000000288,
      "v": 80
    },
    {
      "midi": 62,
      "hit": false,
      "t": 27741.88000000005,
      "d": 258.0640000000021,
      "v": 80
    },
    {
      "midi": 70,
      "hit": false,
      "t": 27903.17000000005,
      "d": 387.09600000000137,
      "v": 80
    },
    {
      "midi": 65,
      "hit": false,
      "t": 28064.46000000005,
      "d": 258.0640000000021,
      "v": 80
    },
    {
      "midi": 60,
      "hit": false,
      "t": 28387.04000000005,
      "d": 129.03199999999924,
      "v": 80
    },
    {
      "midi": 67,
      "hit": false,
      "t": 28387.04000000005,
      "d": 387.09600000000137,
      "v": 80
    },
    {
      "midi": 62,
      "hit": false,
      "t": 28548.330000000053,
      "d": 129.03199999999924,
      "v": 80
    },
    {
      "midi": 63,
      "hit": false,
      "t": 28709.620000000054,
      "d": 64.51599999999962,
      "v": 80
    },
    {
      "midi": 60,
      "hit": false,
      "t": 28870.910000000054,
      "d": 129.03199999999924,
      "v": 80
    },
    {
      "midi": 70,
      "hit": false,
      "t": 28870.910000000054,
      "d": 290.3220000000001,
      "v": 80
    },
    {
      "midi": 62,
      "hit": false,
      "t": 29032.200000000055,
      "d": 129.03199999999924,
      "v": 80
    },
    {
      "midi": 63,
      "hit": false,
      "t": 29193.490000000056,
      "d": 129.03199999999924,
      "v": 80
    },
    {
      "midi": 70,
      "hit": false,
      "t": 29193.490000000056,
      "d": 258.0640000000021,
      "v": 80
    },
    {
      "midi": 56,
      "hit": false,
      "t": 29354.780000000057,
      "d": 64.51599999999962,
      "v": 80
    },
    {
      "midi": 62,
      "hit": false,
      "t": 29516.070000000058,
      "d": 129.03199999999924,
      "v": 80
    },
    {
      "midi": 70,
      "hit": false,
      "t": 29516.070000000058,
      "d": 419.354000000003,
      "v": 80
    },
    {
      "midi": 63,
      "hit": false,
      "t": 29677.36000000006,
      "d": 129.03199999999924,
      "v": 80
    },
    {
      "midi": 53,
      "hit": false,
      "t": 29677.36000000006,
      "d": 1032.2560000000121,
      "v": 80
    },
    {
      "midi": 58,
      "hit": false,
      "t": 29838.65000000006,
      "d": 129.03200000000288,
      "v": 80
    },
    {
      "midi": 62,
      "hit": false,
      "t": 29999.940000000064,
      "d": 129.03199999999924,
      "v": 80
    },
    {
      "midi": 70,
      "hit": false,
      "t": 29999.940000000064,
      "d": 129.03199999999924,
      "v": 80
    },
    {
      "midi": 63,
      "hit": false,
      "t": 30161.230000000065,
      "d": 129.03199999999924,
      "v": 80
    },
    {
      "midi": 70,
      "hit": false,
      "t": 30161.230000000065,
      "d": 419.354000000003,
      "v": 80
    },
    {
      "midi": 58,
      "hit": false,
      "t": 30322.520000000066,
      "d": 129.03199999999924,
      "v": 80
    },
    {
      "midi": 62,
      "hit": false,
      "t": 30483.810000000067,
      "d": 129.03200000000288,
      "v": 80
    },
    {
      "midi": 63,
      "hit": false,
      "t": 30645.10000000007,
      "d": 258.0639999999985,
      "v": 80
    },
    {
      "midi": 70,
      "hit": false,
      "t": 30645.10000000007,
      "d": 258.0639999999985,
      "v": 80
    },
    {
      "midi": 60,
      "hit": false,
      "t": 30967.68000000007,
      "d": 129.03199999999924,
      "v": 80
    },
    {
      "midi": 65,
      "hit": false,
      "t": 30967.68000000007,
      "d": 387.09600000000137,
      "v": 80
    },
    {
      "midi": 48,
      "hit": false,
      "t": 30967.68000000007,
      "d": 1032.2560000000085,
      "v": 80
    },
    {
      "midi": 62,
      "hit": false,
      "t": 31128.97000000007,
      "d": 129.03199999999924,
      "v": 80
    },
    {
      "midi": 63,
      "hit": false,
      "t": 31290.26000000007,
      "d": 129.03199999999924,
      "v": 80
    },
    {
      "midi": 60,
      "hit": false,
      "t": 31451.550000000072,
      "d": 129.03199999999924,
      "v": 80
    },
    {
      "midi": 70,
      "hit": false,
      "t": 31451.550000000072,
      "d": 129.03199999999924,
      "v": 80
    },
    {
      "midi": 62,
      "hit": false,
      "t": 31612.840000000073,
      "d": 129.03199999999924,
      "v": 80
    },
    {
      "midi": 70,
      "hit": false,
      "t": 31612.840000000073,
      "d": 258.0640000000021,
      "v": 80
    },
    {
      "midi": 63,
      "hit": false,
      "t": 31774.130000000074,
      "d": 129.03200000000288,
      "v": 80
    },
    {
      "midi": 60,
      "hit": false,
      "t": 31935.42000000008,
      "d": 129.03199999999924,
      "v": 80
    },
    {
      "midi": 65,
      "hit": false,
      "t": 31935.42000000008,
      "d": 258.0640000000021,
      "v": 80
    },
    {
      "midi": 62,
      "hit": false,
      "t": 32096.71000000008,
      "d": 129.03200000000288,
      "v": 80
    },
    {
      "midi": 63,
      "hit": false,
      "t": 32258.000000000084,
      "d": 129.03199999999924,
      "v": 80
    },
    {
      "midi": 65,
      "hit": false,
      "t": 32258.000000000084,
      "d": 258.0640000000021,
      "v": 80
    },
    {
      "midi": 51,
      "hit": false,
      "t": 32258.000000000084,
      "d": 1032.2560000000121,
      "v": 80
    },
    {
      "midi": 60,
      "hit": false,
      "t": 32419.290000000085,
      "d": 129.03200000000288,
      "v": 80
    },
    {
      "midi": 62,
      "hit": false,
      "t": 32580.58000000009,
      "d": 129.03199999999924,
      "v": 80
    },
    {
      "midi": 67,
      "hit": false,
      "t": 32580.58000000009,
      "d": 258.0639999999985,
      "v": 80
    },
    {
      "midi": 63,
      "hit": false,
      "t": 32741.87000000009,
      "d": 129.03199999999924,
      "v": 80
    },
    {
      "midi": 62,
      "hit": false,
      "t": 32903.16000000009,
      "d": 258.0639999999985,
      "v": 80
    },
    {
      "midi": 70,
      "hit": false,
      "t": 33064.45000000009,
      "d": 387.096000000005,
      "v": 80
    },
    {
      "midi": 65,
      "hit": false,
      "t": 33225.74000000009,
      "d": 258.06400000000576,
      "v": 80
    },
    {
      "midi": 60,
      "hit": false,
      "t": 33548.3200000001,
      "d": 129.03199999999924,
      "v": 80
    },
    {
      "midi": 67,
      "hit": false,
      "t": 33548.3200000001,
      "d": 387.096000000005,
      "v": 80
    },
    {
      "midi": 56,
      "hit": false,
      "t": 33548.3200000001,
      "d": 774.19200000001,
      "v": 80
    },
    {
      "midi": 62,
      "hit": false,
      "t": 33709.6100000001,
      "d": 129.03199999999924,
      "v": 80
    },
    {
      "midi": 63,
      "hit": false,
      "t": 33870.9000000001,
      "d": 129.03200000000652,
      "v": 80
    },
    {
      "midi": 60,
      "hit": false,
      "t": 34032.19000000011,
      "d": 129.03199999999924,
      "v": 80
    },
    {
      "midi": 70,
      "hit": false,
      "t": 34032.19000000011,
      "d": 290.3220000000001,
      "v": 80
    },
    {
      "midi": 62,
      "hit": false,
      "t": 34193.48000000011,
      "d": 129.03199999999924,
      "v": 80
    },
    {
      "midi": 63,
      "hit": false,
      "t": 34354.77000000011,
      "d": 129.03199999999924,
      "v": 80
    },
    {
      "midi": 70,
      "hit": false,
      "t": 34354.77000000011,
      "d": 258.0639999999985,
      "v": 80
    },
    {
      "midi": 56,
      "hit": false,
      "t": 34354.77000000011,
      "d": 387.096000000005,
      "v": 80
    },
    {
      "midi": 62,
      "hit": false,
      "t": 34516.060000000114,
      "d": 258.06400000000576,
      "v": 80
    },
    {
      "midi": 65,
      "hit": false,
      "t": 34677.350000000115,
      "d": 3516.1220000000103,
      "v": 80
    },
    {
      "midi": 53,
      "hit": false,
      "t": 34838.64000000012,
      "d": 3354.832000000002,
      "v": 80
    },
    {
      "midi": 60,
      "hit": false,
      "t": 34999.930000000124,
      "d": 3193.5420000000013,
      "v": 80
    },
    {
      "midi": 70,
      "hit": false,
      "t": 38709.60000000012,
      "d": 258.0639999999985,
      "v": 80
    },
    {
      "midi": 48,
      "hit": false,
      "t": 38709.60000000012,
      "d": 1419.3520000000062,
      "v": 80
    },
    {
      "midi": 55,
      "hit": false,
      "t": 38870.89000000012,
      "d": 129.03199999999924,
      "v": 80
    },
    {
      "midi": 70,
      "hit": false,
      "t": 39032.180000000124,
      "d": 129.03199999999924,
      "v": 80
    },
    {
      "midi": 60,
      "hit": false,
      "t": 39032.180000000124,
      "d": 1096.7720000000045,
      "v": 80
    },
    {
      "midi": 68,
      "hit": false,
      "t": 39193.470000000125,
      "d": 419.35399999999936,
      "v": 80
    },
    {
      "midi": 67,
      "hit": false,
      "t": 39677.34000000013,
      "d": 838.708000000006,
      "v": 80
    },
    {
      "midi": 51,
      "hit": false,
      "t": 40161.21000000013,
      "d": 129.03199999999924,
      "v": 80
    },
    {
      "midi": 60,
      "hit": false,
      "t": 40322.50000000013,
      "d": 129.03199999999924,
      "v": 80
    },
    {
      "midi": 62,
      "hit": false,
      "t": 40483.79000000013,
      "d": 129.03199999999924,
      "v": 80
    },
    {
      "midi": 58,
      "hit": false,
      "t": 40645.08000000013,
      "d": 129.03199999999924,
      "v": 80
    },
    {
      "midi": 60,
      "hit": false,
      "t": 40806.37000000013,
      "d": 387.09599999999773,
      "v": 80
    },
    {
      "midi": 70,
      "hit": false,
      "t": 41290.24000000013,
      "d": 258.0639999999985,
      "v": 80
    },
    {
      "midi": 56,
      "hit": false,
      "t": 41290.24000000013,
      "d": 1032.2560000000085,
      "v": 80
    },
    {
      "midi": 60,
      "hit": false,
      "t": 41290.24000000013,
      "d": 1032.2560000000085,
      "v": 80
    },
    {
      "midi": 68,
      "hit": false,
      "t": 41612.82000000013,
      "d": 129.03199999999924,
      "v": 80
    },
    {
      "midi": 72,
      "hit": false,
      "t": 41774.11000000013,
      "d": 419.35399999999936,
      "v": 80
    },
    {
      "midi": 53,
      "hit": false,
      "t": 42580.560000000136,
      "d": 1032.2560000000012,
      "v": 80
    },
    {
      "midi": 60,
      "hit": false,
      "t": 42741.85000000014,
      "d": 129.03199999999924,
      "v": 80
    },
    {
      "midi": 67,
      "hit": false,
      "t": 42903.14000000014,
      "d": 129.03199999999924,
      "v": 80
    },
    {
      "midi": 70,
      "hit": false,
      "t": 43064.43000000014,
      "d": 129.03199999999924,
      "v": 80
    },
    {
      "midi": 58,
      "hit": false,
      "t": 43225.72000000014,
      "d": 129.03199999999924,
      "v": 80
    },
    {
      "midi": 62,
      "hit": false,
      "t": 43387.01000000014,
      "d": 387.09599999999773,
      "v": 80
    },
    {
      "midi": 48,
      "hit": false,
      "t": 43870.880000000136,
      "d": 129.03199999999924,
      "v": 80
    },
    {
      "midi": 70,
      "hit": false,
      "t": 43870.880000000136,
      "d": 258.0639999999985,
      "v": 80
    },
    {
      "midi": 55,
      "hit": false,
      "t": 44032.17000000014,
      "d": 129.03199999999924,
      "v": 80
    },
    {
      "midi": 70,
      "hit": false,
      "t": 44193.46000000014,
      "d": 129.03199999999924,
      "v": 80
    },
    {
      "midi": 48,
      "hit": false,
      "t": 44193.46000000014,
      "d": 774.1920000000027,
      "v": 80
    },
    {
      "midi": 60,
      "hit": false,
      "t": 44193.46000000014,
      "d": 774.1920000000027,
      "v": 80
    },
    {
      "midi": 68,
      "hit": false,
      "t": 44354.75000000014,
      "d": 419.35399999999936,
      "v": 80
    },
    {
      "midi": 67,
      "hit": false,
      "t": 44838.62000000014,
      "d": 129.03199999999924,
      "v": 80
    },
    {
      "midi": 65,
      "hit": false,
      "t": 44999.91000000014,
      "d": 677.4180000000051,
      "v": 80
    },
    {
      "midi": 48,
      "hit": false,
      "t": 45161.20000000014,
      "d": 129.03199999999924,
      "v": 80
    },
    {
      "midi": 60,
      "hit": false,
      "t": 45161.20000000014,
      "d": 129.03199999999924,
      "v": 80
    },
    {
      "midi": 51,
      "hit": false,
      "t": 45322.49000000014,
      "d": 129.03199999999924,
      "v": 80
    },
    {
      "midi": 60,
      "hit": false,
      "t": 45483.780000000144,
      "d": 129.03199999999924,
      "v": 80
    },
    {
      "midi": 62,
      "hit": false,
      "t": 45645.070000000145,
      "d": 129.03199999999924,
      "v": 80
    },
    {
      "midi": 58,
      "hit": false,
      "t": 45806.360000000146,
      "d": 129.03199999999924,
      "v": 80
    },
    {
      "midi": 65,
      "hit": false,
      "t": 45967.65000000015,
      "d": 387.09599999999773,
      "v": 80
    },
    {
      "midi": 67,
      "hit": false,
      "t": 46451.52000000014,
      "d": 387.09599999999773,
      "v": 80
    },
    {
      "midi": 56,
      "hit": false,
      "t": 46451.52000000014,
      "d": 1032.2560000000012,
      "v": 80
    },
    {
      "midi": 60,
      "hit": false,
      "t": 46451.52000000014,
      "d": 1032.2560000000012,
      "v": 80
    },
    {
      "midi": 63,
      "hit": false,
      "t": 46935.39000000014,
      "d": 419.35399999999936,
      "v": 80
    },
    {
      "midi": 63,
      "hit": false,
      "t": 47419.26000000014,
      "d": 129.03200000000652,
      "v": 80
    },
    {
      "midi": 62,
      "hit": false,
      "t": 47580.55000000015,
      "d": 419.35399999999936,
      "v": 80
    },
    {
      "midi": 53,
      "hit": false,
      "t": 47903.13000000015,
      "d": 129.03199999999924,
      "v": 80
    },
    {
      "midi": 67,
      "hit": false,
      "t": 48064.42000000015,
      "d": 129.03199999999924,
      "v": 80
    },
    {
      "midi": 63,
      "hit": false,
      "t": 48225.71000000015,
      "d": 129.03199999999924,
      "v": 80
    },
    {
      "midi": 56,
      "hit": false,
      "t": 48387.00000000015,
      "d": 129.03199999999924,
      "v": 80
    },
    {
      "midi": 62,
      "hit": false,
      "t": 48548.290000000154,
      "d": 387.09599999999773,
      "v": 80
    },
    {
      "midi": 48,
      "hit": false,
      "t": 49032.16000000015,
      "d": 129.03199999999924,
      "v": 80
    },
    {
      "midi": 60,
      "hit": false,
      "t": 49032.16000000015,
      "d": 516.1280000000042,
      "v": 80
    },
    {
      "midi": 55,
      "hit": false,
      "t": 49193.45000000015,
      "d": 129.03199999999924,
      "v": 80
    },
    {
      "midi": 48,
      "hit": false,
      "t": 49354.74000000015,
      "d": 1225.8040000000037,
      "v": 80
    },
    {
      "midi": 55,
      "hit": false,
      "t": 49354.74000000015,
      "d": 1225.8040000000037,
      "v": 80
    },
    {
      "midi": 62,
      "hit": false,
      "t": 49677.32000000015,
      "d": 258.0639999999985,
      "v": 80
    },
    {
      "midi": 62,
      "hit": false,
      "t": 49999.900000000154,
      "d": 129.03199999999924,
      "v": 80
    },
    {
      "midi": 62,
      "hit": false,
      "t": 50161.190000000155,
      "d": 129.03199999999924,
      "v": 80
    },
    {
      "midi": 62,
      "hit": false,
      "t": 50322.480000000156,
      "d": 258.0639999999985,
      "v": 80
    },
    {
      "midi": 51,
      "hit": false,
      "t": 50645.06000000016,
      "d": 129.03199999999924,
      "v": 80
    },
    {
      "midi": 60,
      "hit": false,
      "t": 50645.06000000016,
      "d": 258.0639999999985,
      "v": 80
    },
    {
      "midi": 55,
      "hit": false,
      "t": 50806.35000000016,
      "d": 129.03199999999924,
      "v": 80
    },
    {
      "midi": 60,
      "hit": false,
      "t": 50967.64000000016,
      "d": 129.03199999999924,
      "v": 80
    },
    {
      "midi": 51,
      "hit": false,
      "t": 50967.64000000016,
      "d": 516.1280000000042,
      "v": 80
    },
    {
      "midi": 55,
      "hit": false,
      "t": 50967.64000000016,
      "d": 516.1280000000042,
      "v": 80
    },
    {
      "midi": 63,
      "hit": false,
      "t": 51128.93000000016,
      "d": 129.03199999999924,
      "v": 80
    },
    {
      "midi": 62,
      "hit": false,
      "t": 51290.22000000016,
      "d": 258.06400000000576,
      "v": 80
    },
    {
      "midi": 60,
      "hit": false,
      "t": 51612.80000000017,
      "d": 516.127999999997,
      "v": 80
    },
    {
      "midi": 56,
      "hit": false,
      "t": 51612.80000000017,
      "d": 1548.3839999999982,
      "v": 80
    },
    {
      "midi": 63,
      "hit": false,
      "t": 52257.96000000017,
      "d": 258.0639999999985,
      "v": 80
    },
    {
      "midi": 63,
      "hit": false,
      "t": 52580.54000000017,
      "d": 129.03199999999924,
      "v": 80
    },
    {
      "midi": 63,
      "hit": false,
      "t": 52741.83000000017,
      "d": 419.35399999999936,
      "v": 80
    },
    {
      "midi": 62,
      "hit": false,
      "t": 53225.70000000017,
      "d": 258.0639999999985,
      "v": 80
    },
    {
      "midi": 53,
      "hit": false,
      "t": 53548.28000000017,
      "d": 129.03199999999924,
      "v": 80
    },
    {
      "midi": 56,
      "hit": false,
      "t": 53709.570000000174,
      "d": 129.03199999999924,
      "v": 80
    },
    {
      "midi": 58,
      "hit": false,
      "t": 53870.860000000175,
      "d": 129.03199999999924,
      "v": 80
    },
    {
      "midi": 60,
      "hit": false,
      "t": 54032.150000000176,
      "d": 129.03199999999924,
      "v": 80
    },
    {
      "midi": 48,
      "hit": false,
      "t": 54193.44000000018,
      "d": 129.03199999999924,
      "v": 80
    },
    {
      "midi": 67,
      "hit": false,
      "t": 54193.44000000018,
      "d": 516.1280000000042,
      "v": 80
    },
    {
      "midi": 55,
      "hit": false,
      "t": 54354.73000000018,
      "d": 129.03199999999924,
      "v": 80
    },
    {
      "midi": 48,
      "hit": false,
      "t": 54516.02000000018,
      "d": 774.1920000000027,
      "v": 80
    },
    {
      "midi": 60,
      "hit": false,
      "t": 54516.02000000018,
      "d": 774.1920000000027,
      "v": 80
    },
    {
      "midi": 65,
      "hit": false,
      "t": 54838.60000000018,
      "d": 258.0639999999985,
      "v": 80
    },
    {
      "midi": 68,
      "hit": false,
      "t": 55161.18000000018,
      "d": 516.1280000000042,
      "v": 80
    },
    {
      "midi": 51,
      "hit": false,
      "t": 55483.760000000184,
      "d": 129.03199999999924,
      "v": 80
    },
    {
      "midi": 55,
      "hit": false,
      "t": 55645.050000000185,
      "d": 387.096000000005,
      "v": 80
    },
    {
      "midi": 63,
      "hit": false,
      "t": 55806.340000000186,
      "d": 129.03199999999924,
      "v": 80
    },
    {
      "midi": 62,
      "hit": false,
      "t": 55967.63000000019,
      "d": 548.3859999999986,
      "v": 80
    },
    {
      "midi": 51,
      "hit": false,
      "t": 56128.92000000019,
      "d": 516.127999999997,
      "v": 80
    },
    {
      "midi": 55,
      "hit": false,
      "t": 56128.92000000019,
      "d": 516.127999999997,
      "v": 80
    },
    {
      "midi": 60,
      "hit": false,
      "t": 56612.79000000018,
      "d": 129.03199999999924,
      "v": 80
    },
    {
      "midi": 63,
      "hit": false,
      "t": 56774.080000000184,
      "d": 387.09599999999773,
      "v": 80
    },
    {
      "midi": 56,
      "hit": false,
      "t": 56774.080000000184,
      "d": 1032.2560000000012,
      "v": 80
    },
    {
      "midi": 60,
      "hit": false,
      "t": 56774.080000000184,
      "d": 1032.2560000000012,
      "v": 80
    },
    {
      "midi": 65,
      "hit": false,
      "t": 57257.95000000018,
      "d": 419.35399999999936,
      "v": 80
    },
    {
      "midi": 65,
      "hit": false,
      "t": 57741.82000000018,
      "d": 838.708000000006,
      "v": 80
    },
    {
      "midi": 53,
      "hit": false,
      "t": 58064.40000000018,
      "d": 258.0639999999985,
      "v": 80
    },
    {
      "midi": 56,
      "hit": false,
      "t": 58386.980000000185,
      "d": 129.03199999999924,
      "v": 80
    },
    {
      "midi": 58,
      "hit": false,
      "t": 58548.270000000186,
      "d": 129.03199999999924,
      "v": 80
    },
    {
      "midi": 60,
      "hit": false,
      "t": 58709.56000000019,
      "d": 129.03199999999924,
      "v": 80
    },
    {
      "midi": 63,
      "hit": false,
      "t": 58870.85000000019,
      "d": 129.03199999999924,
      "v": 80
    },
    {
      "midi": 62,
      "hit": false,
      "t": 59032.14000000019,
      "d": 258.0639999999985,
      "v": 80
    },
    {
      "midi": 48,
      "hit": false,
      "t": 59354.72000000019,
      "d": 774.1920000000027,
      "v": 80
    },
    {
      "midi": 60,
      "hit": false,
      "t": 59677.30000000019,
      "d": 258.0639999999985,
      "v": 80
    },
    {
      "midi": 62,
      "hit": false,
      "t": 59999.880000000194,
      "d": 387.096000000005,
      "v": 80
    },
    {
      "midi": 55,
      "hit": false,
      "t": 60322.460000000196,
      "d": 258.0639999999985,
      "v": 80
    },
    {
      "midi": 60,
      "hit": false,
      "t": 60483.7500000002,
      "d": 129.03199999999924,
      "v": 80
    },
    {
      "midi": 51,
      "hit": false,
      "t": 60645.0400000002,
      "d": 774.1920000000027,
      "v": 80
    },
    {
      "midi": 60,
      "hit": false,
      "t": 60806.3300000002,
      "d": 258.0639999999985,
      "v": 80
    },
    {
      "midi": 62,
      "hit": false,
      "t": 61128.9100000002,
      "d": 129.03199999999924,
      "v": 80
    },
    {
      "midi": 62,
      "hit": false,
      "t": 61290.2000000002,
      "d": 129.03199999999924,
      "v": 80
    },
    {
      "midi": 60,
      "hit": false,
      "t": 61451.4900000002,
      "d": 258.0639999999985,
      "v": 80
    },
    {
      "midi": 51,
      "hit": false,
      "t": 61612.7800000002,
      "d": 258.0639999999985,
      "v": 80
    },
    {
      "midi": 44,
      "hit": false,
      "t": 61935.360000000204,
      "d": 129.03199999999924,
      "v": 80
    },
    {
      "midi": 51,
      "hit": false,
      "t": 62096.650000000205,
      "d": 129.03199999999924,
      "v": 80
    },
    {
      "midi": 60,
      "hit": false,
      "t": 62257.940000000206,
      "d": 258.0639999999985,
      "v": 80
    },
    {
      "midi": 44,
      "hit": false,
      "t": 62257.940000000206,
      "d": 774.1920000000027,
      "v": 80
    },
    {
      "midi": 56,
      "hit": false,
      "t": 62257.940000000206,
      "d": 774.1920000000027,
      "v": 80
    },
    {
      "midi": 62,
      "hit": false,
      "t": 62580.52000000021,
      "d": 258.0639999999985,
      "v": 80
    },
    {
      "midi": 60,
      "hit": false,
      "t": 62903.10000000021,
      "d": 838.708000000006,
      "v": 80
    },
    {
      "midi": 41,
      "hit": false,
      "t": 63225.68000000021,
      "d": 129.03199999999924,
      "v": 80
    },
    {
      "midi": 48,
      "hit": false,
      "t": 63386.97000000021,
      "d": 129.03199999999924,
      "v": 80
    },
    {
      "midi": 41,
      "hit": false,
      "t": 63548.26000000021,
      "d": 774.1920000000027,
      "v": 80
    },
    {
      "midi": 53,
      "hit": false,
      "t": 63548.26000000021,
      "d": 774.1920000000027,
      "v": 80
    },
    {
      "midi": 60,
      "hit": false,
      "t": 64032.130000000216,
      "d": 129.03199999999924,
      "v": 80
    },
    {
      "midi": 60,
      "hit": false,
      "t": 64193.42000000022,
      "d": 129.03199999999924,
      "v": 80
    },
    {
      "midi": 60,
      "hit": false,
      "t": 64354.71000000022,
      "d": 129.03199999999924,
      "v": 80
    },
    {
      "midi": 48,
      "hit": false,
      "t": 64516.00000000022,
      "d": 129.03199999999924,
      "v": 80
    },
    {
      "midi": 55,
      "hit": false,
      "t": 64677.29000000022,
      "d": 129.03199999999924,
      "v": 80
    },
    {
      "midi": 48,
      "hit": false,
      "t": 64838.58000000022,
      "d": 774.19200000001,
      "v": 80
    },
    {
      "midi": 60,
      "hit": false,
      "t": 64838.58000000022,
      "d": 774.19200000001,
      "v": 80
    },
    {
      "midi": 67,
      "hit": false,
      "t": 65161.16000000022,
      "d": 387.096000000005,
      "v": 80
    },
    {
      "midi": 67,
      "hit": false,
      "t": 65645.03000000023,
      "d": 677.4180000000051,
      "v": 80
    },
    {
      "midi": 51,
      "hit": false,
      "t": 65806.32000000023,
      "d": 129.03200000000652,
      "v": 80
    },
    {
      "midi": 55,
      "hit": false,
      "t": 65967.61000000023,
      "d": 129.03200000000652,
      "v": 80
    },
    {
      "midi": 51,
      "hit": false,
      "t": 66128.90000000024,
      "d": 774.1919999999955,
      "v": 80
    },
    {
      "midi": 60,
      "hit": false,
      "t": 66128.90000000024,
      "d": 774.1919999999955,
      "v": 80
    },
    {
      "midi": 67,
      "hit": false,
      "t": 66774.06000000023,
      "d": 129.03200000000652,
      "v": 80
    },
    {
      "midi": 67,
      "hit": false,
      "t": 66935.35000000024,
      "d": 129.03200000000652,
      "v": 80
    },
    {
      "midi": 43,
      "hit": false,
      "t": 67096.64000000025,
      "d": 129.03200000000652,
      "v": 80
    },
    {
      "midi": 51,
      "hit": false,
      "t": 67257.93000000025,
      "d": 129.03200000000652,
      "v": 80
    },
    {
      "midi": 44,
      "hit": false,
      "t": 67419.22000000026,
      "d": 774.19200000001,
      "v": 80
    },
    {
      "midi": 56,
      "hit": false,
      "t": 67419.22000000026,
      "d": 774.19200000001,
      "v": 80
    },
    {
      "midi": 67,
      "hit": false,
      "t": 67741.80000000026,
      "d": 387.096000000005,
      "v": 80
    },
    {
      "midi": 65,
      "hit": false,
      "t": 68225.67000000027,
      "d": 387.096000000005,
      "v": 80
    },
    {
      "midi": 41,
      "hit": false,
      "t": 68386.96000000027,
      "d": 129.03200000000652,
      "v": 80
    },
    {
      "midi": 53,
      "hit": false,
      "t": 68548.25000000028,
      "d": 129.03200000000652,
      "v": 80
    },
    {
      "midi": 56,
      "hit": false,
      "t": 68709.54000000028,
      "d": 129.03200000000652,
      "v": 80
    },
    {
      "midi": 67,
      "hit": false,
      "t": 68709.54000000028,
      "d": 516.1280000000261,
      "v": 80
    },
    {
      "midi": 58,
      "hit": false,
      "t": 68870.8300000003,
      "d": 129.03200000000652,
      "v": 80
    },
    {
      "midi": 60,
      "hit": false,
      "t": 69032.1200000003,
      "d": 129.03200000000652,
      "v": 80
    },
    {
      "midi": 62,
      "hit": false,
      "t": 69193.41000000031,
      "d": 129.03200000000652,
      "v": 80
    },
    {
      "midi": 60,
      "hit": false,
      "t": 69354.70000000032,
      "d": 129.03200000000652,
      "v": 80
    },
    {
      "midi": 36,
      "hit": false,
      "t": 69677.28000000032,
      "d": 129.03200000000652,
      "v": 80
    },
    {
      "midi": 60,
      "hit": false,
      "t": 69677.28000000032,
      "d": 387.09600000001956,
      "v": 80
    },
    {
      "midi": 67,
      "hit": false,
      "t": 69677.28000000032,
      "d": 387.09600000001956,
      "v": 80
    },
    {
      "midi": 43,
      "hit": false,
      "t": 69838.57000000033,
      "d": 129.03200000000652,
      "v": 80
    },
    {
      "midi": 36,
      "hit": false,
      "t": 69999.86000000034,
      "d": 774.1920000000246,
      "v": 80
    },
    {
      "midi": 48,
      "hit": false,
      "t": 69999.86000000034,
      "d": 774.1920000000246,
      "v": 80
    },
    {
      "midi": 62,
      "hit": false,
      "t": 70161.15000000034,
      "d": 129.03200000000652,
      "v": 80
    },
    {
      "midi": 63,
      "hit": false,
      "t": 70322.44000000035,
      "d": 258.0639999999985,
      "v": 80
    },
    {
      "midi": 65,
      "hit": false,
      "t": 70645.02000000035,
      "d": 516.1280000000115,
      "v": 80
    },
    {
      "midi": 39,
      "hit": false,
      "t": 70967.60000000036,
      "d": 129.03200000000652,
      "v": 80
    },
    {
      "midi": 48,
      "hit": false,
      "t": 71128.89000000036,
      "d": 129.03200000000652,
      "v": 80
    },
    {
      "midi": 39,
      "hit": false,
      "t": 71290.18000000037,
      "d": 774.1919999999955,
      "v": 80
    },
    {
      "midi": 51,
      "hit": false,
      "t": 71290.18000000037,
      "d": 774.1919999999955,
      "v": 80
    },
    {
      "midi": 60,
      "hit": false,
      "t": 71290.18000000037,
      "d": 903.224000000002,
      "v": 80
    },
    {
      "midi": 44,
      "hit": false,
      "t": 72257.92000000038,
      "d": 129.03200000000652,
      "v": 80
    },
    {
      "midi": 60,
      "hit": false,
      "t": 72257.92000000038,
      "d": 516.1280000000115,
      "v": 80
    },
    {
      "midi": 51,
      "hit": false,
      "t": 72419.21000000038,
      "d": 129.03200000000652,
      "v": 80
    },
    {
      "midi": 44,
      "hit": false,
      "t": 72580.5000000004,
      "d": 774.19200000001,
      "v": 80
    },
    {
      "midi": 56,
      "hit": false,
      "t": 72580.5000000004,
      "d": 774.19200000001,
      "v": 80
    },
    {
      "midi": 65,
      "hit": false,
      "t": 72903.0800000004,
      "d": 258.0639999999985,
      "v": 80
    },
    {
      "midi": 65,
      "hit": false,
      "t": 73225.6600000004,
      "d": 129.03200000000652,
      "v": 80
    },
    {
      "midi": 65,
      "hit": false,
      "t": 73386.9500000004,
      "d": 290.3220000000001,
      "v": 80
    },
    {
      "midi": 41,
      "hit": false,
      "t": 73548.2400000004,
      "d": 129.03200000000652,
      "v": 80
    },
    {
      "midi": 48,
      "hit": false,
      "t": 73709.5300000004,
      "d": 129.03200000000652,
      "v": 80
    },
    {
      "midi": 67,
      "hit": false,
      "t": 73709.5300000004,
      "d": 258.06400000001304,
      "v": 80
    },
    {
      "midi": 41,
      "hit": false,
      "t": 73870.82000000041,
      "d": 774.1920000000246,
      "v": 80
    },
    {
      "midi": 53,
      "hit": false,
      "t": 73870.82000000041,
      "d": 774.1920000000246,
      "v": 80
    },
    {
      "midi": 68,
      "hit": false,
      "t": 74032.11000000042,
      "d": 290.3220000000001,
      "v": 80
    },
    {
      "midi": 70,
      "hit": false,
      "t": 74354.69000000042,
      "d": 129.03200000000652,
      "v": 80
    },
    {
      "midi": 67,
      "hit": false,
      "t": 74515.98000000043,
      "d": 451.61200000000827,
      "v": 80
    },
    {
      "midi": 36,
      "hit": false,
      "t": 74838.56000000043,
      "d": 129.03200000000652,
      "v": 80
    },
    {
      "midi": 60,
      "hit": false,
      "t": 74838.56000000043,
      "d": 129.03200000000652,
      "v": 80
    },
    {
      "midi": 43,
      "hit": false,
      "t": 74999.85000000044,
      "d": 129.03200000000652,
      "v": 80
    },
    {
      "midi": 62,
      "hit": false,
      "t": 74999.85000000044,
      "d": 129.03200000000652,
      "v": 80
    },
    {
      "midi": 62,
      "hit": false,
      "t": 75161.14000000045,
      "d": 258.0639999999985,
      "v": 80
    },
    {
      "midi": 36,
      "hit": false,
      "t": 75161.14000000045,
      "d": 774.19200000001,
      "v": 80
    },
    {
      "midi": 48,
      "hit": false,
      "t": 75161.14000000045,
      "d": 774.19200000001,
      "v": 80
    },
    {
      "midi": 67,
      "hit": false,
      "t": 75483.72000000045,
      "d": 387.096000000005,
      "v": 80
    },
    {
      "midi": 65,
      "hit": false,
      "t": 75967.59000000046,
      "d": 677.4180000000051,
      "v": 80
    },
    {
      "midi": 39,
      "hit": false,
      "t": 76128.88000000046,
      "d": 129.03200000000652,
      "v": 80
    },
    {
      "midi": 48,
      "hit": false,
      "t": 76290.17000000046,
      "d": 129.03200000000652,
      "v": 80
    },
    {
      "midi": 39,
      "hit": false,
      "t": 76451.46000000047,
      "d": 774.1919999999955,
      "v": 80
    },
    {
      "midi": 51,
      "hit": false,
      "t": 76451.46000000047,
      "d": 774.1919999999955,
      "v": 80
    },
    {
      "midi": 60,
      "hit": false,
      "t": 76774.04000000047,
      "d": 516.127999999997,
      "v": 80
    },
    {
      "midi": 44,
      "hit": false,
      "t": 77419.20000000048,
      "d": 129.03200000000652,
      "v": 80
    },
    {
      "midi": 60,
      "hit": false,
      "t": 77419.20000000048,
      "d": 2064.512000000046,
      "v": 80
    },
    {
      "midi": 51,
      "hit": false,
      "t": 77580.49000000049,
      "d": 129.03200000000652,
      "v": 80
    },
    {
      "midi": 44,
      "hit": false,
      "t": 77741.7800000005,
      "d": 774.19200000001,
      "v": 80
    },
    {
      "midi": 56,
      "hit": false,
      "t": 77741.7800000005,
      "d": 774.19200000001,
      "v": 80
    },
    {
      "midi": 65,
      "hit": false,
      "t": 78064.3600000005,
      "d": 129.03200000000652,
      "v": 80
    },
    {
      "midi": 65,
      "hit": false,
      "t": 78225.6500000005,
      "d": 258.0639999999985,
      "v": 80
    },
    {
      "midi": 65,
      "hit": false,
      "t": 78548.2300000005,
      "d": 451.61200000000827,
      "v": 80
    },
    {
      "midi": 41,
      "hit": false,
      "t": 78709.5200000005,
      "d": 129.03200000000652,
      "v": 80
    },
    {
      "midi": 48,
      "hit": false,
      "t": 78870.8100000005,
      "d": 129.03200000000652,
      "v": 80
    },
    {
      "midi": 67,
      "hit": false,
      "t": 79032.10000000052,
      "d": 258.0639999999985,
      "v": 80
    },
    {
      "midi": 41,
      "hit": false,
      "t": 79032.10000000052,
      "d": 774.19200000001,
      "v": 80
    },
    {
      "midi": 53,
      "hit": false,
      "t": 79032.10000000052,
      "d": 774.19200000001,
      "v": 80
    },
    {
      "midi": 68,
      "hit": false,
      "t": 79354.68000000052,
      "d": 290.3220000000001,
      "v": 80
    },
    {
      "midi": 70,
      "hit": false,
      "t": 79677.26000000052,
      "d": 129.03200000000652,
      "v": 80
    },
    {
      "midi": 67,
      "hit": false,
      "t": 79838.55000000053,
      "d": 677.4180000000051,
      "v": 80
    },
    {
      "midi": 36,
      "hit": false,
      "t": 79999.84000000052,
      "d": 129.03200000000652,
      "v": 80
    },
    {
      "midi": 60,
      "hit": false,
      "t": 79999.84000000052,
      "d": 129.03200000000652,
      "v": 80
    },
    {
      "midi": 43,
      "hit": false,
      "t": 80161.13000000053,
      "d": 129.03200000000652,
      "v": 80
    },
    {
      "midi": 62,
      "hit": false,
      "t": 80161.13000000053,
      "d": 129.03200000000652,
      "v": 80
    },
    {
      "midi": 39,
      "hit": false,
      "t": 80322.42000000054,
      "d": 774.19200000001,
      "v": 80
    },
    {
      "midi": 51,
      "hit": false,
      "t": 80322.42000000054,
      "d": 774.19200000001,
      "v": 80
    },
    {
      "midi": 63,
      "hit": false,
      "t": 80322.42000000054,
      "d": 774.19200000001,
      "v": 80
    },
    {
      "midi": 67,
      "hit": false,
      "t": 80645.00000000054,
      "d": 387.096000000005,
      "v": 80
    },
    {
      "midi": 65,
      "hit": false,
      "t": 81128.87000000055,
      "d": 1193.5460000000166,
      "v": 80
    },
    {
      "midi": 39,
      "hit": false,
      "t": 81290.16000000054,
      "d": 129.03200000000652,
      "v": 80
    },
    {
      "midi": 48,
      "hit": false,
      "t": 81451.45000000055,
      "d": 129.03200000000652,
      "v": 80
    },
    {
      "midi": 39,
      "hit": false,
      "t": 81612.74000000056,
      "d": 774.19200000001,
      "v": 80
    },
    {
      "midi": 51,
      "hit": false,
      "t": 81612.74000000056,
      "d": 774.19200000001,
      "v": 80
    },
    {
      "midi": 60,
      "hit": false,
      "t": 81935.32000000056,
      "d": 516.1280000000115,
      "v": 80
    },
    {
      "midi": 44,
      "hit": false,
      "t": 82580.48000000058,
      "d": 129.03200000000652,
      "v": 80
    },
    {
      "midi": 60,
      "hit": false,
      "t": 82580.48000000058,
      "d": 2064.512000000046,
      "v": 80
    },
    {
      "midi": 51,
      "hit": false,
      "t": 82741.77000000059,
      "d": 129.03200000000652,
      "v": 80
    },
    {
      "midi": 44,
      "hit": false,
      "t": 82903.0600000006,
      "d": 774.19200000001,
      "v": 80
    },
    {
      "midi": 56,
      "hit": false,
      "t": 82903.0600000006,
      "d": 774.19200000001,
      "v": 80
    },
    {
      "midi": 65,
      "hit": false,
      "t": 83225.6400000006,
      "d": 129.03200000000652,
      "v": 80
    },
    {
      "midi": 65,
      "hit": false,
      "t": 83386.9300000006,
      "d": 258.0639999999985,
      "v": 80
    },
    {
      "midi": 65,
      "hit": false,
      "t": 83709.5100000006,
      "d": 451.6119999999937,
      "v": 80
    },
    {
      "midi": 41,
      "hit": false,
      "t": 83870.8000000006,
      "d": 258.0639999999985,
      "v": 80
    },
    {
      "midi": 67,
      "hit": false,
      "t": 84193.3800000006,
      "d": 129.03200000000652,
      "v": 80
    },
    {
      "midi": 48,
      "hit": false,
      "t": 84193.3800000006,
      "d": 258.06400000001304,
      "v": 80
    },
    {
      "midi": 68,
      "hit": false,
      "t": 84354.67000000061,
      "d": 419.3540000000212,
      "v": 80
    },
    {
      "midi": 41,
      "hit": false,
      "t": 84515.96000000062,
      "d": 774.1920000000246,
      "v": 80
    },
    {
      "midi": 53,
      "hit": false,
      "t": 84515.96000000062,
      "d": 774.1920000000246,
      "v": 80
    },
    {
      "midi": 67,
      "hit": false,
      "t": 84838.54000000063,
      "d": 258.0639999999985,
      "v": 80
    },
    {
      "midi": 36,
      "hit": false,
      "t": 85161.12000000064,
      "d": 129.03200000000652,
      "v": 80
    },
    {
      "midi": 60,
      "hit": false,
      "t": 85161.12000000064,
      "d": 129.03200000000652,
      "v": 80
    },
    {
      "midi": 43,
      "hit": false,
      "t": 85322.41000000064,
      "d": 129.03200000000652,
      "v": 80
    },
    {
      "midi": 62,
      "hit": false,
      "t": 85322.41000000064,
      "d": 129.03200000000652,
      "v": 80
    },
    {
      "midi": 39,
      "hit": false,
      "t": 85483.70000000065,
      "d": 774.1919999999955,
      "v": 80
    },
    {
      "midi": 51,
      "hit": false,
      "t": 85483.70000000065,
      "d": 774.1919999999955,
      "v": 80
    },
    {
      "midi": 63,
      "hit": false,
      "t": 85483.70000000065,
      "d": 774.1919999999955,
      "v": 80
    },
    {
      "midi": 67,
      "hit": false,
      "t": 85806.28000000065,
      "d": 516.127999999997,
      "v": 80
    },
    {
      "midi": 39,
      "hit": false,
      "t": 86451.44000000066,
      "d": 129.03200000000652,
      "v": 80
    },
    {
      "midi": 65,
      "hit": false,
      "t": 86451.44000000066,
      "d": 774.1920000000246,
      "v": 80
    },
    {
      "midi": 48,
      "hit": false,
      "t": 86612.73000000067,
      "d": 129.03200000000652,
      "v": 80
    },
    {
      "midi": 39,
      "hit": false,
      "t": 86774.02000000067,
      "d": 774.19200000001,
      "v": 80
    },
    {
      "midi": 51,
      "hit": false,
      "t": 86774.02000000067,
      "d": 774.19200000001,
      "v": 80
    },
    {
      "midi": 60,
      "hit": false,
      "t": 87096.60000000068,
      "d": 516.1280000000115,
      "v": 80
    },
    {
      "midi": 65,
      "hit": false,
      "t": 87257.89000000068,
      "d": 258.0639999999985,
      "v": 80
    },
    {
      "midi": 65,
      "hit": false,
      "t": 87580.47000000069,
      "d": 677.4180000000197,
      "v": 80
    },
    {
      "midi": 44,
      "hit": false,
      "t": 87741.7600000007,
      "d": 129.03200000000652,
      "v": 80
    },
    {
      "midi": 60,
      "hit": false,
      "t": 87741.7600000007,
      "d": 2064.5120000000315,
      "v": 80
    },
    {
      "midi": 51,
      "hit": false,
      "t": 87903.0500000007,
      "d": 129.03200000000652,
      "v": 80
    },
    {
      "midi": 44,
      "hit": false,
      "t": 88064.34000000071,
      "d": 774.1919999999955,
      "v": 80
    },
    {
      "midi": 56,
      "hit": false,
      "t": 88064.34000000071,
      "d": 774.1919999999955,
      "v": 80
    },
    {
      "midi": 65,
      "hit": false,
      "t": 88548.2100000007,
      "d": 258.0639999999985,
      "v": 80
    },
    {
      "midi": 65,
      "hit": false,
      "t": 88870.7900000007,
      "d": 258.0639999999985,
      "v": 80
    },
    {
      "midi": 41,
      "hit": false,
      "t": 89032.0800000007,
      "d": 129.03200000000652,
      "v": 80
    },
    {
      "midi": 48,
      "hit": false,
      "t": 89193.37000000071,
      "d": 129.03200000000652,
      "v": 80
    },
    {
      "midi": 63,
      "hit": false,
      "t": 89193.37000000071,
      "d": 741.9340000000229,
      "v": 80
    },
    {
      "midi": 53,
      "hit": false,
      "t": 89354.66000000072,
      "d": 258.0639999999985,
      "v": 80
    },
    {
      "midi": 43,
      "hit": false,
      "t": 89677.24000000072,
      "d": 516.1280000000115,
      "v": 80
    },
    {
      "midi": 67,
      "hit": false,
      "t": 89999.82000000073,
      "d": 258.0639999999985,
      "v": 80
    },
    {
      "midi": 60,
      "hit": false,
      "t": 90322.40000000074,
      "d": 129.03200000000652,
      "v": 80
    },
    {
      "midi": 48,
      "hit": false,
      "t": 90322.40000000074,
      "d": 1032.2560000000522,
      "v": 80
    },
    {
      "midi": 62,
      "hit": false,
      "t": 90483.69000000074,
      "d": 129.03200000000652,
      "v": 80
    },
    {
      "midi": 63,
      "hit": false,
      "t": 90644.98000000075,
      "d": 129.03200000000652,
      "v": 80
    },
    {
      "midi": 60,
      "hit": false,
      "t": 90806.27000000076,
      "d": 129.03200000000652,
      "v": 80
    },
    {
      "midi": 70,
      "hit": false,
      "t": 90806.27000000076,
      "d": 419.3540000000212,
      "v": 80
    },
    {
      "midi": 62,
      "hit": false,
      "t": 90967.56000000077,
      "d": 129.03200000000652,
      "v": 80
    },
    {
      "midi": 63,
      "hit": false,
      "t": 91128.85000000078,
      "d": 129.03200000000652,
      "v": 80
    },
    {
      "midi": 60,
      "hit": false,
      "t": 91290.14000000079,
      "d": 129.03200000000652,
      "v": 80
    },
    {
      "midi": 65,
      "hit": false,
      "t": 91290.14000000079,
      "d": 451.6120000000228,
      "v": 80
    },
    {
      "midi": 62,
      "hit": false,
      "t": 91451.4300000008,
      "d": 129.03200000000652,
      "v": 80
    },
    {
      "midi": 63,
      "hit": false,
      "t": 91612.7200000008,
      "d": 129.03200000000652,
      "v": 80
    },
    {
      "midi": 55,
      "hit": false,
      "t": 91612.7200000008,
      "d": 1032.2560000000376,
      "v": 80
    },
    {
      "midi": 60,
      "hit": false,
      "t": 91774.01000000081,
      "d": 129.03200000000652,
      "v": 80
    },
    {
      "midi": 67,
      "hit": false,
      "t": 91774.01000000081,
      "d": 387.09600000001956,
      "v": 80
    },
    {
      "midi": 62,
      "hit": false,
      "t": 91935.30000000082,
      "d": 129.03200000000652,
      "v": 80
    },
    {
      "midi": 63,
      "hit": false,
      "t": 92096.59000000083,
      "d": 129.03200000000652,
      "v": 80
    },
    {
      "midi": 58,
      "hit": false,
      "t": 92257.88000000083,
      "d": 258.0639999999985,
      "v": 80
    },
    {
      "midi": 70,
      "hit": false,
      "t": 92257.88000000083,
      "d": 258.0639999999985,
      "v": 80
    },
    {
      "midi": 62,
      "hit": false,
      "t": 92580.46000000084,
      "d": 258.0639999999985,
      "v": 80
    },
    {
      "midi": 65,
      "hit": false,
      "t": 92580.46000000084,
      "d": 258.0639999999985,
      "v": 80
    },
    {
      "midi": 60,
      "hit": false,
      "t": 92903.04000000084,
      "d": 129.03200000000652,
      "v": 80
    },
    {
      "midi": 67,
      "hit": false,
      "t": 92903.04000000084,
      "d": 387.09600000001956,
      "v": 80
    },
    {
      "midi": 62,
      "hit": false,
      "t": 93064.33000000085,
      "d": 129.03200000000652,
      "v": 80
    },
    {
      "midi": 63,
      "hit": false,
      "t": 93225.62000000085,
      "d": 64.51600000000326,
      "v": 80
    },
    {
      "midi": 60,
      "hit": false,
      "t": 93386.91000000086,
      "d": 129.03200000000652,
      "v": 80
    },
    {
      "midi": 70,
      "hit": false,
      "t": 93386.91000000086,
      "d": 258.06400000001304,
      "v": 80
    },
    {
      "midi": 62,
      "hit": false,
      "t": 93548.20000000087,
      "d": 129.03200000000652,
      "v": 80
    },
    {
      "midi": 63,
      "hit": false,
      "t": 93709.49000000088,
      "d": 129.03200000000652,
      "v": 80
    },
    {
      "midi": 70,
      "hit": false,
      "t": 93709.49000000088,
      "d": 258.06400000001304,
      "v": 80
    },
    {
      "midi": 56,
      "hit": false,
      "t": 93870.78000000089,
      "d": 64.51600000000326,
      "v": 80
    },
    {
      "midi": 62,
      "hit": false,
      "t": 94032.0700000009,
      "d": 129.03200000000652,
      "v": 80
    },
    {
      "midi": 70,
      "hit": false,
      "t": 94032.0700000009,
      "d": 548.3860000000277,
      "v": 80
    },
    {
      "midi": 63,
      "hit": false,
      "t": 94193.3600000009,
      "d": 129.03200000000652,
      "v": 80
    },
    {
      "midi": 53,
      "hit": false,
      "t": 94193.3600000009,
      "d": 1032.2560000000376,
      "v": 80
    },
    {
      "midi": 58,
      "hit": false,
      "t": 94354.65000000091,
      "d": 129.03200000000652,
      "v": 80
    },
    {
      "midi": 62,
      "hit": false,
      "t": 94515.94000000092,
      "d": 129.03200000000652,
      "v": 80
    },
    {
      "midi": 63,
      "hit": false,
      "t": 94677.23000000093,
      "d": 129.03200000000652,
      "v": 80
    },
    {
      "midi": 70,
      "hit": false,
      "t": 94677.23000000093,
      "d": 612.9020000000164,
      "v": 80
    },
    {
      "midi": 58,
      "hit": false,
      "t": 94838.52000000094,
      "d": 516.1280000000115,
      "v": 80
    },
    {
      "midi": 60,
      "hit": false,
      "t": 95322.39000000095,
      "d": 129.03200000000652,
      "v": 80
    },
    {
      "midi": 36,
      "hit": false,
      "t": 95483.68000000095,
      "d": 129.03200000000652,
      "v": 80
    },
    {
      "midi": 70,
      "hit": false,
      "t": 95483.68000000095,
      "d": 516.1280000000115,
      "v": 80
    },
    {
      "midi": 79,
      "hit": false,
      "t": 95483.68000000095,
      "d": 516.1280000000115,
      "v": 80
    },
    {
      "midi": 43,
      "hit": false,
      "t": 95644.97000000096,
      "d": 129.03200000000652,
      "v": 80
    },
    {
      "midi": 36,
      "hit": false,
      "t": 95806.26000000097,
      "d": 774.1919999999955,
      "v": 80
    },
    {
      "midi": 48,
      "hit": false,
      "t": 95806.26000000097,
      "d": 774.1919999999955,
      "v": 80
    },
    {
      "midi": 68,
      "hit": false,
      "t": 96128.84000000097,
      "d": 516.127999999997,
      "v": 80
    },
    {
      "midi": 77,
      "hit": false,
      "t": 96128.84000000097,
      "d": 516.127999999997,
      "v": 80
    },
    {
      "midi": 39,
      "hit": false,
      "t": 96774.00000000097,
      "d": 129.03200000000652,
      "v": 80
    },
    {
      "midi": 75,
      "hit": false,
      "t": 96774.00000000097,
      "d": 387.09600000001956,
      "v": 80
    },
    {
      "midi": 79,
      "hit": false,
      "t": 96774.00000000097,
      "d": 387.09600000001956,
      "v": 80
    },
    {
      "midi": 48,
      "hit": false,
      "t": 96935.29000000098,
      "d": 129.03200000000652,
      "v": 80
    },
    {
      "midi": 39,
      "hit": false,
      "t": 97096.58000000099,
      "d": 774.1920000000246,
      "v": 80
    },
    {
      "midi": 48,
      "hit": false,
      "t": 97096.58000000099,
      "d": 774.1920000000246,
      "v": 80
    },
    {
      "midi": 67,
      "hit": false,
      "t": 97257.870000001,
      "d": 129.03200000000652,
      "v": 80
    },
    {
      "midi": 67,
      "hit": false,
      "t": 97419.16000000101,
      "d": 258.0639999999985,
      "v": 80
    },
    {
      "midi": 75,
      "hit": false,
      "t": 97419.16000000101,
      "d": 258.0639999999985,
      "v": 80
    },
    {
      "midi": 67,
      "hit": false,
      "t": 97741.74000000101,
      "d": 258.06400000001304,
      "v": 80
    },
    {
      "midi": 75,
      "hit": false,
      "t": 97741.74000000101,
      "d": 258.06400000001304,
      "v": 80
    },
    {
      "midi": 44,
      "hit": false,
      "t": 98064.32000000103,
      "d": 129.03200000000652,
      "v": 80
    },
    {
      "midi": 70,
      "hit": false,
      "t": 98064.32000000103,
      "d": 387.09600000001956,
      "v": 80
    },
    {
      "midi": 79,
      "hit": false,
      "t": 98064.32000000103,
      "d": 387.09600000001956,
      "v": 80
    },
    {
      "midi": 51,
      "hit": false,
      "t": 98225.61000000103,
      "d": 129.03200000000652,
      "v": 80
    },
    {
      "midi": 44,
      "hit": false,
      "t": 98386.90000000104,
      "d": 774.1920000000246,
      "v": 80
    },
    {
      "midi": 56,
      "hit": false,
      "t": 98386.90000000104,
      "d": 774.1920000000246,
      "v": 80
    },
    {
      "midi": 68,
      "hit": false,
      "t": 98548.19000000105,
      "d": 419.35400000000664,
      "v": 80
    },
    {
      "midi": 77,
      "hit": false,
      "t": 98548.19000000105,
      "d": 419.35400000000664,
      "v": 80
    },
    {
      "midi": 67,
      "hit": false,
      "t": 99032.06000000106,
      "d": 258.06400000001304,
      "v": 80
    },
    {
      "midi": 43,
      "hit": false,
      "t": 99354.64000000108,
      "d": 129.03200000000652,
      "v": 80
    },
    {
      "midi": 65,
      "hit": false,
      "t": 99354.64000000108,
      "d": 677.4180000000197,
      "v": 80
    },
    {
      "midi": 75,
      "hit": false,
      "t": 99354.64000000108,
      "d": 677.4180000000197,
      "v": 80
    },
    {
      "midi": 48,
      "hit": false,
      "t": 99515.93000000108,
      "d": 129.03200000000652,
      "v": 80
    },
    {
      "midi": 41,
      "hit": false,
      "t": 99677.22000000109,
      "d": 774.19200000001,
      "v": 80
    },
    {
      "midi": 53,
      "hit": false,
      "t": 99677.22000000109,
      "d": 774.19200000001,
      "v": 80
    },
    {
      "midi": 36,
      "hit": false,
      "t": 100644.9600000011,
      "d": 129.03200000000652,
      "v": 80
    },
    {
      "midi": 68,
      "hit": false,
      "t": 100644.9600000011,
      "d": 258.06400000001304,
      "v": 80
    },
    {
      "midi": 75,
      "hit": false,
      "t": 100644.9600000011,
      "d": 258.06400000001304,
      "v": 80
    },
    {
      "midi": 43,
      "hit": false,
      "t": 100806.2500000011,
      "d": 129.03200000000652,
      "v": 80
    },
    {
      "midi": 68,
      "hit": false,
      "t": 100967.54000000111,
      "d": 258.0639999999985,
      "v": 80
    },
    {
      "midi": 36,
      "hit": false,
      "t": 100967.54000000111,
      "d": 774.1919999999955,
      "v": 80
    },
    {
      "midi": 48,
      "hit": false,
      "t": 100967.54000000111,
      "d": 774.1919999999955,
      "v": 80
    },
    {
      "midi": 67,
      "hit": false,
      "t": 101290.12000000112,
      "d": 516.127999999997,
      "v": 80
    },
    {
      "midi": 75,
      "hit": false,
      "t": 101290.12000000112,
      "d": 516.127999999997,
      "v": 80
    },
    {
      "midi": 39,
      "hit": false,
      "t": 101935.28000000112,
      "d": 129.03200000000652,
      "v": 80
    },
    {
      "midi": 63,
      "hit": false,
      "t": 101935.28000000112,
      "d": 258.06400000001304,
      "v": 80
    },
    {
      "midi": 72,
      "hit": false,
      "t": 101935.28000000112,
      "d": 258.06400000001304,
      "v": 80
    },
    {
      "midi": 48,
      "hit": false,
      "t": 102096.57000000113,
      "d": 129.03200000000652,
      "v": 80
    },
    {
      "midi": 39,
      "hit": false,
      "t": 102257.86000000114,
      "d": 774.1919999999955,
      "v": 80
    },
    {
      "midi": 48,
      "hit": false,
      "t": 102257.86000000114,
      "d": 774.1919999999955,
      "v": 80
    },
    {
      "midi": 62,
      "hit": false,
      "t": 102257.86000000114,
      "d": 774.1919999999955,
      "v": 80
    },
    {
      "midi": 44,
      "hit": false,
      "t": 103225.60000000113,
      "d": 129.03200000000652,
      "v": 80
    },
    {
      "midi": 63,
      "hit": false,
      "t": 103225.60000000113,
      "d": 258.06400000001304,
      "v": 80
    },
    {
      "midi": 72,
      "hit": false,
      "t": 103225.60000000113,
      "d": 258.06400000001304,
      "v": 80
    },
    {
      "midi": 51,
      "hit": false,
      "t": 103386.89000000113,
      "d": 129.03200000000652,
      "v": 80
    },
    {
      "midi": 63,
      "hit": false,
      "t": 103548.18000000114,
      "d": 258.0639999999985,
      "v": 80
    },
    {
      "midi": 44,
      "hit": false,
      "t": 103548.18000000114,
      "d": 774.19200000001,
      "v": 80
    },
    {
      "midi": 56,
      "hit": false,
      "t": 103548.18000000114,
      "d": 774.19200000001,
      "v": 80
    },
    {
      "midi": 62,
      "hit": false,
      "t": 103870.76000000114,
      "d": 258.0639999999985,
      "v": 80
    },
    {
      "midi": 63,
      "hit": false,
      "t": 104193.34000000115,
      "d": 258.06400000001304,
      "v": 80
    },
    {
      "midi": 43,
      "hit": false,
      "t": 104515.92000000116,
      "d": 129.03200000000652,
      "v": 80
    },
    {
      "midi": 62,
      "hit": false,
      "t": 104515.92000000116,
      "d": 258.06400000001304,
      "v": 80
    },
    {
      "midi": 48,
      "hit": false,
      "t": 104677.21000000117,
      "d": 129.03200000000652,
      "v": 80
    },
    {
      "midi": 60,
      "hit": false,
      "t": 104838.50000000118,
      "d": 258.0639999999985,
      "v": 80
    },
    {
      "midi": 41,
      "hit": false,
      "t": 104838.50000000118,
      "d": 774.1919999999955,
      "v": 80
    },
    {
      "midi": 53,
      "hit": false,
      "t": 104838.50000000118,
      "d": 774.1919999999955,
      "v": 80
    },
    {
      "midi": 60,
      "hit": false,
      "t": 105644.95000000118,
      "d": 129.03200000000652,
      "v": 80
    },
    {
      "midi": 36,
      "hit": false,
      "t": 105806.24000000118,
      "d": 129.03200000000652,
      "v": 80
    },
    {
      "midi": 70,
      "hit": false,
      "t": 105806.24000000118,
      "d": 258.06400000001304,
      "v": 80
    },
    {
      "midi": 79,
      "hit": false,
      "t": 105806.24000000118,
      "d": 258.06400000001304,
      "v": 80
    },
    {
      "midi": 43,
      "hit": false,
      "t": 105967.53000000119,
      "d": 129.03200000000652,
      "v": 80
    },
    {
      "midi": 70,
      "hit": false,
      "t": 106128.8200000012,
      "d": 258.0639999999985,
      "v": 80
    },
    {
      "midi": 36,
      "hit": false,
      "t": 106128.8200000012,
      "d": 774.1919999999955,
      "v": 80
    },
    {
      "midi": 48,
      "hit": false,
      "t": 106128.8200000012,
      "d": 774.1919999999955,
      "v": 80
    },
    {
      "midi": 68,
      "hit": false,
      "t": 106451.4000000012,
      "d": 516.127999999997,
      "v": 80
    },
    {
      "midi": 77,
      "hit": false,
      "t": 106451.4000000012,
      "d": 516.127999999997,
      "v": 80
    },
    {
      "midi": 39,
      "hit": false,
      "t": 107096.5600000012,
      "d": 129.03200000000652,
      "v": 80
    },
    {
      "midi": 72,
      "hit": false,
      "t": 107096.5600000012,
      "d": 516.1280000000115,
      "v": 80
    },
    {
      "midi": 48,
      "hit": false,
      "t": 107257.85000000121,
      "d": 129.03200000000652,
      "v": 80
    },
    {
      "midi": 39,
      "hit": false,
      "t": 107419.14000000122,
      "d": 774.19200000001,
      "v": 80
    },
    {
      "midi": 48,
      "hit": false,
      "t": 107419.14000000122,
      "d": 774.19200000001,
      "v": 80
    },
    {
      "midi": 67,
      "hit": false,
      "t": 107741.72000000122,
      "d": 258.0639999999985,
      "v": 80
    },
    {
      "midi": 75,
      "hit": false,
      "t": 107741.72000000122,
      "d": 258.0639999999985,
      "v": 80
    },
    {
      "midi": 67,
      "hit": false,
      "t": 108064.30000000123,
      "d": 258.06400000001304,
      "v": 80
    },
    {
      "midi": 44,
      "hit": false,
      "t": 108386.88000000124,
      "d": 129.03200000000652,
      "v": 80
    },
    {
      "midi": 70,
      "hit": false,
      "t": 108386.88000000124,
      "d": 516.1280000000115,
      "v": 80
    },
    {
      "midi": 79,
      "hit": false,
      "t": 108386.88000000124,
      "d": 516.1280000000115,
      "v": 80
    },
    {
      "midi": 51,
      "hit": false,
      "t": 108548.17000000125,
      "d": 129.03200000000652,
      "v": 80
    },
    {
      "midi": 44,
      "hit": false,
      "t": 108709.46000000126,
      "d": 774.19200000001,
      "v": 80
    },
    {
      "midi": 56,
      "hit": false,
      "t": 108709.46000000126,
      "d": 774.19200000001,
      "v": 80
    },
    {
      "midi": 68,
      "hit": false,
      "t": 109032.04000000126,
      "d": 258.0639999999985,
      "v": 80
    },
    {
      "midi": 77,
      "hit": false,
      "t": 109032.04000000126,
      "d": 258.0639999999985,
      "v": 80
    },
    {
      "midi": 67,
      "hit": false,
      "t": 109354.62000000126,
      "d": 387.096000000005,
      "v": 80
    },
    {
      "midi": 75,
      "hit": false,
      "t": 109354.62000000126,
      "d": 387.096000000005,
      "v": 80
    },
    {
      "midi": 43,
      "hit": false,
      "t": 109677.20000000126,
      "d": 129.03200000000652,
      "v": 80
    },
    {
      "midi": 48,
      "hit": false,
      "t": 109838.49000000127,
      "d": 129.03200000000652,
      "v": 80
    },
    {
      "midi": 65,
      "hit": false,
      "t": 109838.49000000127,
      "d": 387.096000000005,
      "v": 80
    },
    {
      "midi": 41,
      "hit": false,
      "t": 109999.78000000128,
      "d": 774.19200000001,
      "v": 80
    },
    {
      "midi": 53,
      "hit": false,
      "t": 109999.78000000128,
      "d": 774.19200000001,
      "v": 80
    },
    {
      "midi": 65,
      "hit": false,
      "t": 110322.36000000128,
      "d": 258.0639999999985,
      "v": 80
    },
    {
      "midi": 63,
      "hit": false,
      "t": 110644.94000000128,
      "d": 258.06400000001304,
      "v": 80
    },
    {
      "midi": 36,
      "hit": false,
      "t": 110967.5200000013,
      "d": 129.03200000000652,
      "v": 80
    },
    {
      "midi": 68,
      "hit": false,
      "t": 110967.5200000013,
      "d": 258.06400000001304,
      "v": 80
    },
    {
      "midi": 75,
      "hit": false,
      "t": 110967.5200000013,
      "d": 258.06400000001304,
      "v": 80
    },
    {
      "midi": 43,
      "hit": false,
      "t": 111128.81000000131,
      "d": 129.03200000000652,
      "v": 80
    },
    {
      "midi": 68,
      "hit": false,
      "t": 111290.10000000132,
      "d": 258.0639999999985,
      "v": 80
    },
    {
      "midi": 36,
      "hit": false,
      "t": 111290.10000000132,
      "d": 774.1919999999955,
      "v": 80
    },
    {
      "midi": 48,
      "hit": false,
      "t": 111290.10000000132,
      "d": 774.1919999999955,
      "v": 80
    },
    {
      "midi": 67,
      "hit": false,
      "t": 111612.68000000132,
      "d": 516.127999999997,
      "v": 80
    },
    {
      "midi": 39,
      "hit": false,
      "t": 112257.84000000132,
      "d": 129.03200000000652,
      "v": 80
    },
    {
      "midi": 63,
      "hit": false,
      "t": 112257.84000000132,
      "d": 258.06400000001304,
      "v": 80
    },
    {
      "midi": 72,
      "hit": false,
      "t": 112257.84000000132,
      "d": 258.06400000001304,
      "v": 80
    },
    {
      "midi": 48,
      "hit": false,
      "t": 112419.13000000133,
      "d": 129.03200000000652,
      "v": 80
    },
    {
      "midi": 39,
      "hit": false,
      "t": 112580.42000000134,
      "d": 774.1919999999955,
      "v": 80
    },
    {
      "midi": 48,
      "hit": false,
      "t": 112580.42000000134,
      "d": 774.1919999999955,
      "v": 80
    },
    {
      "midi": 62,
      "hit": false,
      "t": 112580.42000000134,
      "d": 774.1919999999955,
      "v": 80
    },
    {
      "midi": 44,
      "hit": false,
      "t": 113548.16000000133,
      "d": 129.03200000000652,
      "v": 80
    },
    {
      "midi": 63,
      "hit": false,
      "t": 113548.16000000133,
      "d": 258.06400000001304,
      "v": 80
    },
    {
      "midi": 72,
      "hit": false,
      "t": 113548.16000000133,
      "d": 258.06400000001304,
      "v": 80
    },
    {
      "midi": 51,
      "hit": false,
      "t": 113709.45000000134,
      "d": 129.03200000000652,
      "v": 80
    },
    {
      "midi": 63,
      "hit": false,
      "t": 113870.74000000134,
      "d": 258.0639999999985,
      "v": 80
    },
    {
      "midi": 44,
      "hit": false,
      "t": 113870.74000000134,
      "d": 774.19200000001,
      "v": 80
    },
    {
      "midi": 56,
      "hit": false,
      "t": 113870.74000000134,
      "d": 774.19200000001,
      "v": 80
    },
    {
      "midi": 62,
      "hit": false,
      "t": 114193.32000000135,
      "d": 258.0639999999985,
      "v": 80
    },
    {
      "midi": 63,
      "hit": false,
      "t": 114515.90000000135,
      "d": 516.1280000000115,
      "v": 80
    },
    {
      "midi": 43,
      "hit": false,
      "t": 114838.48000000135,
      "d": 129.03200000000652,
      "v": 80
    },
    {
      "midi": 48,
      "hit": false,
      "t": 114999.77000000136,
      "d": 129.03200000000652,
      "v": 80
    },
    {
      "midi": 53,
      "hit": false,
      "t": 115161.06000000137,
      "d": 258.0639999999985,
      "v": 80
    },
    {
      "midi": 60,
      "hit": false,
      "t": 115161.06000000137,
      "d": 774.1919999999955,
      "v": 80
    },
    {
      "midi": 43,
      "hit": false,
      "t": 115483.64000000137,
      "d": 516.127999999997,
      "v": 80
    },
    {
      "midi": 36,
      "hit": false,
      "t": 116128.80000000137,
      "d": 129.03200000000652,
      "v": 80
    },
    {
      "midi": 60,
      "hit": false,
      "t": 116128.80000000137,
      "d": 387.09600000001956,
      "v": 80
    },
    {
      "midi": 67,
      "hit": false,
      "t": 116128.80000000137,
      "d": 387.09600000001956,
      "v": 80
    },
    {
      "midi": 43,
      "hit": false,
      "t": 116290.09000000138,
      "d": 129.03200000000652,
      "v": 80
    },
    {
      "midi": 36,
      "hit": false,
      "t": 116451.38000000139,
      "d": 774.1920000000246,
      "v": 80
    },
    {
      "midi": 48,
      "hit": false,
      "t": 116451.38000000139,
      "d": 774.1920000000246,
      "v": 80
    },
    {
      "midi": 62,
      "hit": false,
      "t": 116612.6700000014,
      "d": 129.03200000000652,
      "v": 80
    },
    {
      "midi": 63,
      "hit": false,
      "t": 116773.9600000014,
      "d": 258.0639999999985,
      "v": 80
    },
    {
      "midi": 65,
      "hit": false,
      "t": 117096.5400000014,
      "d": 516.1280000000115,
      "v": 80
    },
    {
      "midi": 39,
      "hit": false,
      "t": 117419.1200000014,
      "d": 129.03200000000652,
      "v": 80
    },
    {
      "midi": 48,
      "hit": false,
      "t": 117580.41000000142,
      "d": 129.03200000000652,
      "v": 80
    },
    {
      "midi": 39,
      "hit": false,
      "t": 117741.70000000142,
      "d": 774.1919999999955,
      "v": 80
    },
    {
      "midi": 51,
      "hit": false,
      "t": 117741.70000000142,
      "d": 774.1919999999955,
      "v": 80
    },
    {
      "midi": 60,
      "hit": false,
      "t": 117741.70000000142,
      "d": 903.224000000002,
      "v": 80
    },
    {
      "midi": 44,
      "hit": false,
      "t": 118709.44000000143,
      "d": 129.03200000000652,
      "v": 80
    },
    {
      "midi": 60,
      "hit": false,
      "t": 118709.44000000143,
      "d": 516.1280000000115,
      "v": 80
    },
    {
      "midi": 51,
      "hit": false,
      "t": 118870.73000000144,
      "d": 129.03200000000652,
      "v": 80
    },
    {
      "midi": 44,
      "hit": false,
      "t": 119032.02000000144,
      "d": 774.19200000001,
      "v": 80
    },
    {
      "midi": 56,
      "hit": false,
      "t": 119032.02000000144,
      "d": 774.19200000001,
      "v": 80
    },
    {
      "midi": 65,
      "hit": false,
      "t": 119354.60000000145,
      "d": 258.0639999999985,
      "v": 80
    },
    {
      "midi": 65,
      "hit": false,
      "t": 119677.18000000145,
      "d": 129.03200000000652,
      "v": 80
    },
    {
      "midi": 65,
      "hit": false,
      "t": 119838.47000000146,
      "d": 290.3220000000001,
      "v": 80
    },
    {
      "midi": 41,
      "hit": false,
      "t": 119999.76000000145,
      "d": 129.03200000000652,
      "v": 80
    },
    {
      "midi": 48,
      "hit": false,
      "t": 120161.05000000146,
      "d": 129.03200000000652,
      "v": 80
    },
    {
      "midi": 67,
      "hit": false,
      "t": 120161.05000000146,
      "d": 258.06400000001304,
      "v": 80
    },
    {
      "midi": 41,
      "hit": false,
      "t": 120322.34000000147,
      "d": 774.1920000000246,
      "v": 80
    },
    {
      "midi": 53,
      "hit": false,
      "t": 120322.34000000147,
      "d": 774.1920000000246,
      "v": 80
    },
    {
      "midi": 68,
      "hit": false,
      "t": 120483.63000000147,
      "d": 290.3220000000001,
      "v": 80
    },
    {
      "midi": 70,
      "hit": false,
      "t": 120806.21000000148,
      "d": 129.03200000000652,
      "v": 80
    },
    {
      "midi": 67,
      "hit": false,
      "t": 120967.50000000148,
      "d": 451.61200000000827,
      "v": 80
    },
    {
      "midi": 36,
      "hit": false,
      "t": 121290.08000000149,
      "d": 129.03200000000652,
      "v": 80
    },
    {
      "midi": 60,
      "hit": false,
      "t": 121290.08000000149,
      "d": 129.03200000000652,
      "v": 80
    },
    {
      "midi": 43,
      "hit": false,
      "t": 121451.3700000015,
      "d": 129.03200000000652,
      "v": 80
    },
    {
      "midi": 62,
      "hit": false,
      "t": 121451.3700000015,
      "d": 129.03200000000652,
      "v": 80
    },
    {
      "midi": 62,
      "hit": false,
      "t": 121612.6600000015,
      "d": 258.0639999999985,
      "v": 80
    },
    {
      "midi": 36,
      "hit": false,
      "t": 121612.6600000015,
      "d": 774.19200000001,
      "v": 80
    },
    {
      "midi": 48,
      "hit": false,
      "t": 121612.6600000015,
      "d": 774.19200000001,
      "v": 80
    },
    {
      "midi": 67,
      "hit": false,
      "t": 121935.2400000015,
      "d": 387.096000000005,
      "v": 80
    },
    {
      "midi": 65,
      "hit": false,
      "t": 122419.11000000151,
      "d": 677.4180000000051,
      "v": 80
    },
    {
      "midi": 39,
      "hit": false,
      "t": 122580.40000000151,
      "d": 129.03200000000652,
      "v": 80
    },
    {
      "midi": 48,
      "hit": false,
      "t": 122741.69000000152,
      "d": 129.03200000000652,
      "v": 80
    },
    {
      "midi": 39,
      "hit": false,
      "t": 122902.98000000152,
      "d": 774.1919999999955,
      "v": 80
    },
    {
      "midi": 51,
      "hit": false,
      "t": 122902.98000000152,
      "d": 774.1919999999955,
      "v": 80
    },
    {
      "midi": 60,
      "hit": false,
      "t": 123225.56000000153,
      "d": 516.127999999997,
      "v": 80
    },
    {
      "midi": 44,
      "hit": false,
      "t": 123870.72000000153,
      "d": 129.03200000000652,
      "v": 80
    },
    {
      "midi": 60,
      "hit": false,
      "t": 123870.72000000153,
      "d": 2064.512000000046,
      "v": 80
    },
    {
      "midi": 51,
      "hit": false,
      "t": 124032.01000000154,
      "d": 129.03200000000652,
      "v": 80
    },
    {
      "midi": 44,
      "hit": false,
      "t": 124193.30000000155,
      "d": 774.19200000001,
      "v": 80
    },
    {
      "midi": 56,
      "hit": false,
      "t": 124193.30000000155,
      "d": 774.19200000001,
      "v": 80
    },
    {
      "midi": 65,
      "hit": false,
      "t": 124515.88000000155,
      "d": 129.03200000000652,
      "v": 80
    },
    {
      "midi": 65,
      "hit": false,
      "t": 124677.17000000156,
      "d": 258.0639999999985,
      "v": 80
    },
    {
      "midi": 65,
      "hit": false,
      "t": 124999.75000000156,
      "d": 451.61200000000827,
      "v": 80
    },
    {
      "midi": 41,
      "hit": false,
      "t": 125161.04000000155,
      "d": 129.03200000000652,
      "v": 80
    },
    {
      "midi": 48,
      "hit": false,
      "t": 125322.33000000156,
      "d": 129.03200000000652,
      "v": 80
    },
    {
      "midi": 67,
      "hit": false,
      "t": 125483.62000000157,
      "d": 258.0639999999985,
      "v": 80
    },
    {
      "midi": 41,
      "hit": false,
      "t": 125483.62000000157,
      "d": 774.19200000001,
      "v": 80
    },
    {
      "midi": 53,
      "hit": false,
      "t": 125483.62000000157,
      "d": 774.19200000001,
      "v": 80
    },
    {
      "midi": 68,
      "hit": false,
      "t": 125806.20000000157,
      "d": 290.3220000000001,
      "v": 80
    },
    {
      "midi": 70,
      "hit": false,
      "t": 126128.78000000157,
      "d": 129.03200000000652,
      "v": 80
    },
    {
      "midi": 67,
      "hit": false,
      "t": 126290.07000000158,
      "d": 677.4180000000051,
      "v": 80
    },
    {
      "midi": 36,
      "hit": false,
      "t": 126451.36000000157,
      "d": 129.03200000000652,
      "v": 80
    },
    {
      "midi": 60,
      "hit": false,
      "t": 126451.36000000157,
      "d": 129.03200000000652,
      "v": 80
    },
    {
      "midi": 43,
      "hit": false,
      "t": 126612.65000000158,
      "d": 129.03200000000652,
      "v": 80
    },
    {
      "midi": 62,
      "hit": false,
      "t": 126612.65000000158,
      "d": 129.03200000000652,
      "v": 80
    },
    {
      "midi": 39,
      "hit": false,
      "t": 126773.94000000159,
      "d": 774.19200000001,
      "v": 80
    },
    {
      "midi": 51,
      "hit": false,
      "t": 126773.94000000159,
      "d": 774.19200000001,
      "v": 80
    },
    {
      "midi": 63,
      "hit": false,
      "t": 126773.94000000159,
      "d": 774.19200000001,
      "v": 80
    },
    {
      "midi": 67,
      "hit": false,
      "t": 127096.52000000159,
      "d": 387.096000000005,
      "v": 80
    },
    {
      "midi": 65,
      "hit": false,
      "t": 127580.3900000016,
      "d": 1193.5460000000166,
      "v": 80
    },
    {
      "midi": 39,
      "hit": false,
      "t": 127741.6800000016,
      "d": 129.03200000000652,
      "v": 80
    },
    {
      "midi": 48,
      "hit": false,
      "t": 127902.9700000016,
      "d": 129.03200000000652,
      "v": 80
    },
    {
      "midi": 39,
      "hit": false,
      "t": 128064.26000000161,
      "d": 774.19200000001,
      "v": 80
    },
    {
      "midi": 51,
      "hit": false,
      "t": 128064.26000000161,
      "d": 774.19200000001,
      "v": 80
    },
    {
      "midi": 60,
      "hit": false,
      "t": 128386.84000000161,
      "d": 516.1280000000115,
      "v": 80
    },
    {
      "midi": 44,
      "hit": false,
      "t": 129032.00000000163,
      "d": 129.03200000000652,
      "v": 80
    },
    {
      "midi": 60,
      "hit": false,
      "t": 129032.00000000163,
      "d": 2064.512000000046,
      "v": 80
    },
    {
      "midi": 51,
      "hit": false,
      "t": 129193.29000000164,
      "d": 129.03200000000652,
      "v": 80
    },
    {
      "midi": 44,
      "hit": false,
      "t": 129354.58000000165,
      "d": 774.19200000001,
      "v": 80
    },
    {
      "midi": 56,
      "hit": false,
      "t": 129354.58000000165,
      "d": 774.19200000001,
      "v": 80
    },
    {
      "midi": 65,
      "hit": false,
      "t": 129677.16000000165,
      "d": 129.03200000000652,
      "v": 80
    },
    {
      "midi": 65,
      "hit": false,
      "t": 129838.45000000166,
      "d": 258.0639999999985,
      "v": 80
    },
    {
      "midi": 65,
      "hit": false,
      "t": 130161.03000000166,
      "d": 451.6119999999937,
      "v": 80
    },
    {
      "midi": 41,
      "hit": false,
      "t": 130322.32000000165,
      "d": 258.0639999999985,
      "v": 80
    },
    {
      "midi": 67,
      "hit": false,
      "t": 130644.90000000165,
      "d": 129.03200000000652,
      "v": 80
    },
    {
      "midi": 48,
      "hit": false,
      "t": 130644.90000000165,
      "d": 258.06400000001304,
      "v": 80
    },
    {
      "midi": 68,
      "hit": false,
      "t": 130806.19000000166,
      "d": 419.3540000000212,
      "v": 80
    },
    {
      "midi": 41,
      "hit": false,
      "t": 130967.48000000167,
      "d": 774.1920000000391,
      "v": 80
    },
    {
      "midi": 53,
      "hit": false,
      "t": 130967.48000000167,
      "d": 774.1920000000391,
      "v": 80
    },
    {
      "midi": 67,
      "hit": false,
      "t": 131290.0600000017,
      "d": 258.06400000001304,
      "v": 80
    },
    {
      "midi": 36,
      "hit": false,
      "t": 131612.6400000017,
      "d": 129.03200000000652,
      "v": 80
    },
    {
      "midi": 60,
      "hit": false,
      "t": 131612.6400000017,
      "d": 129.03200000000652,
      "v": 80
    },
    {
      "midi": 43,
      "hit": false,
      "t": 131773.9300000017,
      "d": 129.03200000000652,
      "v": 80
    },
    {
      "midi": 62,
      "hit": false,
      "t": 131773.9300000017,
      "d": 129.03200000000652,
      "v": 80
    },
    {
      "midi": 39,
      "hit": false,
      "t": 131935.22000000172,
      "d": 774.1919999999809,
      "v": 80
    },
    {
      "midi": 51,
      "hit": false,
      "t": 131935.22000000172,
      "d": 774.1919999999809,
      "v": 80
    },
    {
      "midi": 63,
      "hit": false,
      "t": 131935.22000000172,
      "d": 774.1919999999809,
      "v": 80
    },
    {
      "midi": 67,
      "hit": false,
      "t": 132257.8000000017,
      "d": 516.127999999997,
      "v": 80
    },
    {
      "midi": 39,
      "hit": false,
      "t": 132902.9600000017,
      "d": 129.03200000000652,
      "v": 80
    },
    {
      "midi": 65,
      "hit": false,
      "t": 132902.9600000017,
      "d": 774.19200000001,
      "v": 80
    },
    {
      "midi": 48,
      "hit": false,
      "t": 133064.25000000172,
      "d": 129.03200000000652,
      "v": 80
    },
    {
      "midi": 39,
      "hit": false,
      "t": 133225.54000000173,
      "d": 774.19200000001,
      "v": 80
    },
    {
      "midi": 51,
      "hit": false,
      "t": 133225.54000000173,
      "d": 774.19200000001,
      "v": 80
    },
    {
      "midi": 60,
      "hit": false,
      "t": 133548.1200000017,
      "d": 516.1280000000261,
      "v": 80
    },
    {
      "midi": 65,
      "hit": false,
      "t": 133709.41000000172,
      "d": 258.06400000001304,
      "v": 80
    },
    {
      "midi": 65,
      "hit": false,
      "t": 134031.99000000174,
      "d": 677.4180000000342,
      "v": 80
    },
    {
      "midi": 44,
      "hit": false,
      "t": 134193.28000000175,
      "d": 129.03200000000652,
      "v": 80
    },
    {
      "midi": 60,
      "hit": false,
      "t": 134193.28000000175,
      "d": 2064.512000000075,
      "v": 80
    },
    {
      "midi": 51,
      "hit": false,
      "t": 134354.57000000175,
      "d": 129.03200000000652,
      "v": 80
    },
    {
      "midi": 44,
      "hit": false,
      "t": 134515.86000000176,
      "d": 774.19200000001,
      "v": 80
    },
    {
      "midi": 56,
      "hit": false,
      "t": 134515.86000000176,
      "d": 774.19200000001,
      "v": 80
    },
    {
      "midi": 65,
      "hit": false,
      "t": 134999.73000000176,
      "d": 258.06400000001304,
      "v": 80
    },
    {
      "midi": 65,
      "hit": false,
      "t": 135322.31000000177,
      "d": 258.06400000001304,
      "v": 80
    },
    {
      "midi": 41,
      "hit": false,
      "t": 135483.60000000178,
      "d": 129.03200000000652,
      "v": 80
    },
    {
      "midi": 48,
      "hit": false,
      "t": 135644.8900000018,
      "d": 129.03200000000652,
      "v": 80
    },
    {
      "midi": 63,
      "hit": false,
      "t": 135644.8900000018,
      "d": 741.9340000000375,
      "v": 80
    },
    {
      "midi": 53,
      "hit": false,
      "t": 135806.1800000018,
      "d": 258.06400000001304,
      "v": 80
    },
    {
      "midi": 43,
      "hit": false,
      "t": 136128.7600000018,
      "d": 516.1280000000261,
      "v": 80
    },
    {
      "midi": 67,
      "hit": false,
      "t": 136451.34000000183,
      "d": 258.06400000001304,
      "v": 80
    },
    {
      "midi": 60,
      "hit": false,
      "t": 136773.92000000185,
      "d": 129.03200000000652,
      "v": 80
    },
    {
      "midi": 48,
      "hit": false,
      "t": 136773.92000000185,
      "d": 1032.2560000000522,
      "v": 80
    },
    {
      "midi": 62,
      "hit": false,
      "t": 136935.21000000185,
      "d": 129.03200000000652,
      "v": 80
    },
    {
      "midi": 63,
      "hit": false,
      "t": 137096.50000000186,
      "d": 129.03200000000652,
      "v": 80
    },
    {
      "midi": 60,
      "hit": false,
      "t": 137257.79000000187,
      "d": 129.03200000000652,
      "v": 80
    },
    {
      "midi": 70,
      "hit": false,
      "t": 137257.79000000187,
      "d": 419.3540000000212,
      "v": 80
    },
    {
      "midi": 62,
      "hit": false,
      "t": 137419.08000000188,
      "d": 129.03200000000652,
      "v": 80
    },
    {
      "midi": 63,
      "hit": false,
      "t": 137580.3700000019,
      "d": 129.03200000000652,
      "v": 80
    },
    {
      "midi": 60,
      "hit": false,
      "t": 137741.6600000019,
      "d": 129.03200000000652,
      "v": 80
    },
    {
      "midi": 65,
      "hit": false,
      "t": 137741.6600000019,
      "d": 451.6120000000228,
      "v": 80
    },
    {
      "midi": 62,
      "hit": false,
      "t": 137902.9500000019,
      "d": 129.03200000000652,
      "v": 80
    },
    {
      "midi": 63,
      "hit": false,
      "t": 138064.2400000019,
      "d": 129.03200000000652,
      "v": 80
    },
    {
      "midi": 55,
      "hit": false,
      "t": 138064.2400000019,
      "d": 1032.2560000000522,
      "v": 80
    },
    {
      "midi": 60,
      "hit": false,
      "t": 138225.53000000192,
      "d": 129.03200000000652,
      "v": 80
    },
    {
      "midi": 67,
      "hit": false,
      "t": 138225.53000000192,
      "d": 387.09600000001956,
      "v": 80
    },
    {
      "midi": 62,
      "hit": false,
      "t": 138386.82000000193,
      "d": 129.03200000000652,
      "v": 80
    },
    {
      "midi": 63,
      "hit": false,
      "t": 138548.11000000194,
      "d": 129.03200000000652,
      "v": 80
    },
    {
      "midi": 58,
      "hit": false,
      "t": 138709.40000000194,
      "d": 258.06400000001304,
      "v": 80
    },
    {
      "midi": 70,
      "hit": false,
      "t": 138709.40000000194,
      "d": 258.06400000001304,
      "v": 80
    },
    {
      "midi": 62,
      "hit": false,
      "t": 139031.98000000196,
      "d": 258.06400000001304,
      "v": 80
    },
    {
      "midi": 65,
      "hit": false,
      "t": 139031.98000000196,
      "d": 258.06400000001304,
      "v": 80
    },
    {
      "midi": 60,
      "hit": false,
      "t": 139354.56000000198,
      "d": 129.03200000000652,
      "v": 80
    },
    {
      "midi": 67,
      "hit": false,
      "t": 139354.56000000198,
      "d": 387.09600000001956,
      "v": 80
    },
    {
      "midi": 56,
      "hit": false,
      "t": 139354.56000000198,
      "d": 774.1920000000391,
      "v": 80
    },
    {
      "midi": 62,
      "hit": false,
      "t": 139515.85000000198,
      "d": 129.03200000000652,
      "v": 80
    },
    {
      "midi": 63,
      "hit": false,
      "t": 139677.140000002,
      "d": 129.03200000000652,
      "v": 80
    },
    {
      "midi": 60,
      "hit": false,
      "t": 139838.430000002,
      "d": 129.03200000000652,
      "v": 80
    },
    {
      "midi": 70,
      "hit": false,
      "t": 139838.430000002,
      "d": 258.06400000001304,
      "v": 80
    },
    {
      "midi": 62,
      "hit": false,
      "t": 139999.720000002,
      "d": 129.03200000000652,
      "v": 80
    },
    {
      "midi": 63,
      "hit": false,
      "t": 140161.01000000202,
      "d": 129.03200000000652,
      "v": 80
    },
    {
      "midi": 70,
      "hit": false,
      "t": 140161.01000000202,
      "d": 258.06400000001304,
      "v": 80
    },
    {
      "midi": 56,
      "hit": false,
      "t": 140161.01000000202,
      "d": 387.09600000001956,
      "v": 80
    },
    {
      "midi": 62,
      "hit": false,
      "t": 140322.30000000203,
      "d": 258.06400000001304,
      "v": 80
    },
    {
      "midi": 65,
      "hit": false,
      "t": 140483.59000000203,
      "d": 1193.546000000002,
      "v": 80
    },
    {
      "midi": 53,
      "hit": false,
      "t": 140644.88000000204,
      "d": 1032.255999999994,
      "v": 80
    },
    {
      "midi": 60,
      "hit": false,
      "t": 140644.88000000204,
      "d": 1032.255999999994,
      "v": 80
    },
    {
      "midi": 43,
      "hit": false,
      "t": 144515.84,
      "d": 129.03200000000652,
      "v": 80
    },
    {
      "midi": 44,
      "hit": false,
      "t": 144515.84,
      "d": 129.03200000000652,
      "v": 80
    },
    {
      "midi": 67,
      "hit": false,
      "t": 144515.84,
      "d": 129.03200000000652,
      "v": 80
    },
    {
      "midi": 51,
      "hit": false,
      "t": 144677.13,
      "d": 129.03200000000652,
      "v": 80
    },
    {
      "midi": 55,
      "hit": false,
      "t": 144838.42,
      "d": 129.03200000000652,
      "v": 80
    },
    {
      "midi": 56,
      "hit": false,
      "t": 144838.42,
      "d": 129.03200000000652,
      "v": 80
    },
    {
      "midi": 60,
      "hit": false,
      "t": 144999.71000000002,
      "d": 161.29000000000815,
      "v": 80
    },
    {
      "midi": 67,
      "hit": false,
      "t": 145483.58000000002,
      "d": 258.06400000001304,
      "v": 80
    },
    {
      "midi": 41,
      "hit": false,
      "t": 145806.16000000003,
      "d": 129.03200000000652,
      "v": 80
    },
    {
      "midi": 60,
      "hit": false,
      "t": 145806.16000000003,
      "d": 129.03200000000652,
      "v": 80
    },
    {
      "midi": 48,
      "hit": false,
      "t": 145967.45000000004,
      "d": 129.03200000000652,
      "v": 80
    },
    {
      "midi": 53,
      "hit": false,
      "t": 146128.74000000005,
      "d": 129.03200000000652,
      "v": 80
    },
    {
      "midi": 55,
      "hit": false,
      "t": 146290.03000000006,
      "d": 161.29000000000815,
      "v": 80
    },
    {
      "midi": 58,
      "hit": false,
      "t": 146612.61000000007,
      "d": 129.03200000000652,
      "v": 80
    },
    {
      "midi": 58,
      "hit": false,
      "t": 146773.90000000008,
      "d": 258.06400000001304,
      "v": 80
    },
    {
      "midi": 39,
      "hit": false,
      "t": 147096.4800000001,
      "d": 129.03200000000652,
      "v": 80
    },
    {
      "midi": 65,
      "hit": false,
      "t": 147096.4800000001,
      "d": 258.06400000001304,
      "v": 80
    },
    {
      "midi": 46,
      "hit": false,
      "t": 147257.7700000001,
      "d": 129.03200000000652,
      "v": 80
    },
    {
      "midi": 51,
      "hit": false,
      "t": 147419.0600000001,
      "d": 258.06400000001304,
      "v": 80
    },
    {
      "midi": 67,
      "hit": false,
      "t": 147419.0600000001,
      "d": 709.6760000000359,
      "v": 80
    },
    {
      "midi": 53,
      "hit": false,
      "t": 147741.64000000013,
      "d": 129.03200000000652,
      "v": 80
    },
    {
      "midi": 55,
      "hit": false,
      "t": 147902.93000000014,
      "d": 387.09600000001956,
      "v": 80
    },
    {
      "midi": 65,
      "hit": false,
      "t": 148225.51000000015,
      "d": 129.03200000000652,
      "v": 80
    },
    {
      "midi": 36,
      "hit": false,
      "t": 148386.80000000016,
      "d": 129.03200000000652,
      "v": 80
    },
    {
      "midi": 65,
      "hit": false,
      "t": 148386.80000000016,
      "d": 258.06400000001304,
      "v": 80
    },
    {
      "midi": 43,
      "hit": false,
      "t": 148548.09000000017,
      "d": 129.03200000000652,
      "v": 80
    },
    {
      "midi": 51,
      "hit": false,
      "t": 148709.38000000018,
      "d": 258.06400000001304,
      "v": 80
    },
    {
      "midi": 67,
      "hit": false,
      "t": 148709.38000000018,
      "d": 774.1920000000391,
      "v": 80
    },
    {
      "midi": 48,
      "hit": false,
      "t": 149031.9600000002,
      "d": 258.06400000001304,
      "v": 80
    },
    {
      "midi": 46,
      "hit": false,
      "t": 149354.5400000002,
      "d": 258.06400000001304,
      "v": 80
    },
    {
      "midi": 39,
      "hit": false,
      "t": 149677.12000000023,
      "d": 129.03200000000652,
      "v": 80
    },
    {
      "midi": 46,
      "hit": false,
      "t": 149838.41000000024,
      "d": 129.03200000000652,
      "v": 80
    },
    {
      "midi": 51,
      "hit": false,
      "t": 149999.70000000024,
      "d": 258.06400000001304,
      "v": 80
    },
    {
      "midi": 53,
      "hit": false,
      "t": 150322.28000000026,
      "d": 129.03200000000652,
      "v": 80
    },
    {
      "midi": 67,
      "hit": false,
      "t": 150322.28000000026,
      "d": 258.06400000001304,
      "v": 80
    },
    {
      "midi": 55,
      "hit": false,
      "t": 150483.57000000027,
      "d": 387.09600000001956,
      "v": 80
    },
    {
      "midi": 65,
      "hit": false,
      "t": 150644.86000000028,
      "d": 258.06400000001304,
      "v": 80
    },
    {
      "midi": 36,
      "hit": false,
      "t": 150967.4400000003,
      "d": 129.03200000000652,
      "v": 80
    },
    {
      "midi": 60,
      "hit": false,
      "t": 150967.4400000003,
      "d": 516.1280000000261,
      "v": 80
    },
    {
      "midi": 43,
      "hit": false,
      "t": 151128.7300000003,
      "d": 129.03200000000652,
      "v": 80
    },
    {
      "midi": 51,
      "hit": false,
      "t": 151290.0200000003,
      "d": 258.06400000001304,
      "v": 80
    },
    {
      "midi": 48,
      "hit": false,
      "t": 151612.60000000033,
      "d": 258.06400000001304,
      "v": 80
    },
    {
      "midi": 46,
      "hit": false,
      "t": 151935.18000000034,
      "d": 258.06400000001304,
      "v": 80
    },
    {
      "midi": 56,
      "hit": false,
      "t": 152096.47000000035,
      "d": 129.03200000000652,
      "v": 80
    },
    {
      "midi": 39,
      "hit": false,
      "t": 152257.76000000036,
      "d": 129.03200000000652,
      "v": 80
    },
    {
      "midi": 65,
      "hit": false,
      "t": 152257.76000000036,
      "d": 387.09600000001956,
      "v": 80
    },
    {
      "midi": 46,
      "hit": false,
      "t": 152419.05000000037,
      "d": 129.03200000000652,
      "v": 80
    },
    {
      "midi": 51,
      "hit": false,
      "t": 152580.34000000037,
      "d": 258.06400000001304,
      "v": 80
    },
    {
      "midi": 68,
      "hit": false,
      "t": 152741.63000000038,
      "d": 387.09600000001956,
      "v": 80
    },
    {
      "midi": 53,
      "hit": false,
      "t": 152902.9200000004,
      "d": 129.03200000000652,
      "v": 80
    },
    {
      "midi": 55,
      "hit": false,
      "t": 153064.2100000004,
      "d": 387.09600000001956,
      "v": 80
    },
    {
      "midi": 70,
      "hit": false,
      "t": 153225.5000000004,
      "d": 1161.2880000000587,
      "v": 80
    },
    {
      "midi": 36,
      "hit": false,
      "t": 153548.08000000042,
      "d": 129.03200000000652,
      "v": 80
    },
    {
      "midi": 43,
      "hit": false,
      "t": 153709.37000000043,
      "d": 129.03200000000652,
      "v": 80
    },
    {
      "midi": 51,
      "hit": false,
      "t": 153870.66000000044,
      "d": 258.06400000001304,
      "v": 80
    },
    {
      "midi": 48,
      "hit": false,
      "t": 154193.24000000046,
      "d": 258.06400000001304,
      "v": 80
    },
    {
      "midi": 67,
      "hit": false,
      "t": 154515.82000000047,
      "d": 129.03200000000652,
      "v": 80
    },
    {
      "midi": 46,
      "hit": false,
      "t": 154515.82000000047,
      "d": 258.06400000001304,
      "v": 80
    },
    {
      "midi": 65,
      "hit": false,
      "t": 154677.11000000048,
      "d": 129.03200000000652,
      "v": 80
    },
    {
      "midi": 44,
      "hit": false,
      "t": 154838.4000000005,
      "d": 129.03200000000652,
      "v": 80
    },
    {
      "midi": 51,
      "hit": false,
      "t": 154999.6900000005,
      "d": 129.03200000000652,
      "v": 80
    },
    {
      "midi": 56,
      "hit": false,
      "t": 155160.9800000005,
      "d": 129.03200000000652,
      "v": 80
    },
    {
      "midi": 60,
      "hit": false,
      "t": 155322.2700000005,
      "d": 677.4180000000051,
      "v": 80
    },
    {
      "midi": 41,
      "hit": false,
      "t": 156128.72000000053,
      "d": 129.03200000000652,
      "v": 80
    },
    {
      "midi": 48,
      "hit": false,
      "t": 156290.01000000053,
      "d": 129.03200000000652,
      "v": 80
    },
    {
      "midi": 53,
      "hit": false,
      "t": 156451.30000000054,
      "d": 129.03200000000652,
      "v": 80
    },
    {
      "midi": 56,
      "hit": false,
      "t": 156612.59000000055,
      "d": 677.4180000000051,
      "v": 80
    },
    {
      "midi": 39,
      "hit": false,
      "t": 157419.04000000056,
      "d": 129.03200000000652,
      "v": 80
    },
    {
      "midi": 46,
      "hit": false,
      "t": 157580.33000000057,
      "d": 129.03200000000652,
      "v": 80
    },
    {
      "midi": 51,
      "hit": false,
      "t": 157741.62000000058,
      "d": 258.06400000001304,
      "v": 80
    },
    {
      "midi": 53,
      "hit": false,
      "t": 158064.2000000006,
      "d": 129.03200000000652,
      "v": 80
    },
    {
      "midi": 55,
      "hit": false,
      "t": 158225.4900000006,
      "d": 387.09599999999045,
      "v": 80
    },
    {
      "midi": 36,
      "hit": false,
      "t": 158709.3600000006,
      "d": 129.03200000000652,
      "v": 80
    },
    {
      "midi": 43,
      "hit": false,
      "t": 158870.6500000006,
      "d": 129.03200000000652,
      "v": 80
    },
    {
      "midi": 51,
      "hit": false,
      "t": 159031.9400000006,
      "d": 258.06400000001304,
      "v": 80
    },
    {
      "midi": 48,
      "hit": false,
      "t": 159354.52000000063,
      "d": 258.06400000001304,
      "v": 80
    },
    {
      "midi": 46,
      "hit": false,
      "t": 159677.10000000065,
      "d": 258.06400000001304,
      "v": 80
    },
    {
      "midi": 41,
      "hit": false,
      "t": 159999.68000000066,
      "d": 516.127999999997,
      "v": 80
    },
    {
      "midi": 60,
      "hit": false,
      "t": 159999.68000000066,
      "d": 1032.255999999994,
      "v": 80
    },
    {
      "midi": 72,
      "hit": false,
      "t": 159999.68000000066,
      "d": 1032.255999999994,
      "v": 80
    },
    {
      "midi": 48,
      "hit": false,
      "t": 160644.84000000067,
      "d": 516.127999999997,
      "v": 80
    },
    {
      "midi": 53,
      "hit": false,
      "t": 161290.00000000067,
      "d": 516.127999999997,
      "v": 80
    },
    {
      "midi": 60,
      "hit": false,
      "t": 161290.00000000067,
      "d": 1032.256000000023,
      "v": 80
    },
    {
      "midi": 65,
      "hit": false,
      "t": 161290.00000000067,
      "d": 1032.256000000023,
      "v": 80
    },
    {
      "midi": 72,
      "hit": false,
      "t": 161290.00000000067,
      "d": 1032.256000000023,
      "v": 80
    },
    {
      "midi": 41,
      "hit": false,
      "t": 161935.16000000067,
      "d": 258.06400000001304,
      "v": 80
    },
    {
      "midi": 41,
      "hit": false,
      "t": 162257.7400000007,
      "d": 258.06400000001304,
      "v": 80
    },
    {
      "midi": 44,
      "hit": false,
      "t": 162580.3200000007,
      "d": 516.127999999997,
      "v": 80
    },
    {
      "midi": 60,
      "hit": false,
      "t": 162580.3200000007,
      "d": 516.127999999997,
      "v": 80
    },
    {
      "midi": 51,
      "hit": false,
      "t": 163225.4800000007,
      "d": 516.127999999997,
      "v": 80
    },
    {
      "midi": 60,
      "hit": false,
      "t": 163225.4800000007,
      "d": 516.127999999997,
      "v": 80
    },
    {
      "midi": 56,
      "hit": false,
      "t": 163870.6400000007,
      "d": 516.127999999997,
      "v": 80
    },
    {
      "midi": 60,
      "hit": false,
      "t": 163870.6400000007,
      "d": 516.127999999997,
      "v": 80
    },
    {
      "midi": 44,
      "hit": false,
      "t": 164515.80000000072,
      "d": 516.127999999997,
      "v": 80
    },
    {
      "midi": 56,
      "hit": false,
      "t": 164515.80000000072,
      "d": 516.127999999997,
      "v": 80
    },
    {
      "midi": 60,
      "hit": false,
      "t": 164515.80000000072,
      "d": 516.127999999997,
      "v": 80
    },
    {
      "midi": 36,
      "hit": false,
      "t": 165160.96000000072,
      "d": 129.03200000000652,
      "v": 80
    },
    {
      "midi": 43,
      "hit": false,
      "t": 165322.25000000073,
      "d": 129.03200000000652,
      "v": 80
    },
    {
      "midi": 36,
      "hit": false,
      "t": 165483.54000000074,
      "d": 774.19200000001,
      "v": 80
    },
    {
      "midi": 48,
      "hit": false,
      "t": 165483.54000000074,
      "d": 774.19200000001,
      "v": 80
    },
    {
      "midi": 39,
      "hit": false,
      "t": 166451.28000000076,
      "d": 129.03200000000652,
      "v": 80
    },
    {
      "midi": 48,
      "hit": false,
      "t": 166612.57000000076,
      "d": 129.03200000000652,
      "v": 80
    },
    {
      "midi": 39,
      "hit": false,
      "t": 166773.86000000077,
      "d": 774.19200000001,
      "v": 80
    },
    {
      "midi": 51,
      "hit": false,
      "t": 166773.86000000077,
      "d": 774.19200000001,
      "v": 80
    },
    {
      "midi": 62,
      "hit": false,
      "t": 167096.44000000076,
      "d": 129.03200000000652,
      "v": 80
    },
    {
      "midi": 70,
      "hit": false,
      "t": 167096.44000000076,
      "d": 129.03200000000652,
      "v": 80
    },
    {
      "midi": 68,
      "hit": false,
      "t": 167257.73000000077,
      "d": 129.03200000000652,
      "v": 80
    },
    {
      "midi": 67,
      "hit": false,
      "t": 167419.02000000078,
      "d": 129.03200000000652,
      "v": 80
    },
    {
      "midi": 65,
      "hit": false,
      "t": 167580.31000000078,
      "d": 129.03200000000652,
      "v": 80
    },
    {
      "midi": 44,
      "hit": false,
      "t": 167741.6000000008,
      "d": 129.03200000000652,
      "v": 80
    },
    {
      "midi": 51,
      "hit": false,
      "t": 167902.8900000008,
      "d": 129.03200000000652,
      "v": 80
    },
    {
      "midi": 44,
      "hit": false,
      "t": 168064.1800000008,
      "d": 774.19200000001,
      "v": 80
    },
    {
      "midi": 56,
      "hit": false,
      "t": 168064.1800000008,
      "d": 774.19200000001,
      "v": 80
    },
    {
      "midi": 39,
      "hit": false,
      "t": 169031.92000000083,
      "d": 129.03200000000652,
      "v": 80
    },
    {
      "midi": 48,
      "hit": false,
      "t": 169193.21000000084,
      "d": 129.03200000000652,
      "v": 80
    },
    {
      "midi": 39,
      "hit": false,
      "t": 169354.50000000084,
      "d": 774.19200000001,
      "v": 80
    },
    {
      "midi": 48,
      "hit": false,
      "t": 169354.50000000084,
      "d": 774.19200000001,
      "v": 80
    },
    {
      "midi": 60,
      "hit": false,
      "t": 169677.08000000083,
      "d": 129.03200000000652,
      "v": 80
    },
    {
      "midi": 63,
      "hit": false,
      "t": 169677.08000000083,
      "d": 129.03200000000652,
      "v": 80
    },
    {
      "midi": 70,
      "hit": false,
      "t": 169677.08000000083,
      "d": 129.03200000000652,
      "v": 80
    },
    {
      "midi": 65,
      "hit": false,
      "t": 169838.37000000084,
      "d": 129.03200000000652,
      "v": 80
    },
    {
      "midi": 63,
      "hit": false,
      "t": 169999.66000000085,
      "d": 129.03200000000652,
      "v": 80
    },
    {
      "midi": 67,
      "hit": false,
      "t": 169999.66000000085,
      "d": 129.03200000000652,
      "v": 80
    },
    {
      "midi": 63,
      "hit": false,
      "t": 170160.95000000086,
      "d": 129.03200000000652,
      "v": 80
    },
    {
      "midi": 36,
      "hit": false,
      "t": 170322.24000000086,
      "d": 129.03200000000652,
      "v": 80
    },
    {
      "midi": 70,
      "hit": false,
      "t": 170322.24000000086,
      "d": 387.09600000001956,
      "v": 80
    },
    {
      "midi": 79,
      "hit": false,
      "t": 170322.24000000086,
      "d": 387.09600000001956,
      "v": 80
    },
    {
      "midi": 43,
      "hit": false,
      "t": 170483.53000000087,
      "d": 129.03200000000652,
      "v": 80
    },
    {
      "midi": 32,
      "hit": false,
      "t": 170644.82000000088,
      "d": 774.19200000001,
      "v": 80
    },
    {
      "midi": 48,
      "hit": false,
      "t": 170644.82000000088,
      "d": 774.19200000001,
      "v": 80
    },
    {
      "midi": 68,
      "hit": false,
      "t": 170806.1100000009,
      "d": 516.127999999997,
      "v": 80
    },
    {
      "midi": 77,
      "hit": false,
      "t": 170806.1100000009,
      "d": 516.127999999997,
      "v": 80
    },
    {
      "midi": 65,
      "hit": false,
      "t": 171451.2700000009,
      "d": 516.1280000000261,
      "v": 80
    },
    {
      "midi": 75,
      "hit": false,
      "t": 171451.2700000009,
      "d": 516.1280000000261,
      "v": 80
    },
    {
      "midi": 39,
      "hit": false,
      "t": 171612.5600000009,
      "d": 129.03200000000652,
      "v": 80
    },
    {
      "midi": 48,
      "hit": false,
      "t": 171773.8500000009,
      "d": 129.03200000000652,
      "v": 80
    },
    {
      "midi": 39,
      "hit": false,
      "t": 171935.14000000092,
      "d": 774.19200000001,
      "v": 80
    },
    {
      "midi": 51,
      "hit": false,
      "t": 171935.14000000092,
      "d": 774.19200000001,
      "v": 80
    },
    {
      "midi": 44,
      "hit": false,
      "t": 172902.88000000094,
      "d": 129.03200000000652,
      "v": 80
    },
    {
      "midi": 51,
      "hit": false,
      "t": 173064.17000000094,
      "d": 129.03200000000652,
      "v": 80
    },
    {
      "midi": 39,
      "hit": false,
      "t": 173225.46000000095,
      "d": 774.19200000001,
      "v": 80
    },
    {
      "midi": 51,
      "hit": false,
      "t": 173225.46000000095,
      "d": 774.19200000001,
      "v": 80
    },
    {
      "midi": 41,
      "hit": false,
      "t": 174193.20000000097,
      "d": 129.03200000000652,
      "v": 80
    },
    {
      "midi": 48,
      "hit": false,
      "t": 174354.49000000098,
      "d": 129.03200000000652,
      "v": 80
    },
    {
      "midi": 39,
      "hit": false,
      "t": 174515.780000001,
      "d": 516.127999999997,
      "v": 80
    },
    {
      "midi": 48,
      "hit": false,
      "t": 174515.780000001,
      "d": 516.127999999997,
      "v": 80
    },
    {
      "midi": 72,
      "hit": false,
      "t": 174838.36000000098,
      "d": 129.03200000000652,
      "v": 80
    },
    {
      "midi": 80,
      "hit": false,
      "t": 174838.36000000098,
      "d": 129.03200000000652,
      "v": 80
    },
    {
      "midi": 72,
      "hit": false,
      "t": 174999.65000000098,
      "d": 387.09599999999045,
      "v": 80
    },
    {
      "midi": 36,
      "hit": false,
      "t": 175483.52000000203,
      "d": 129.03200000000652,
      "v": 80
    },
    {
      "midi": 60,
      "hit": false,
      "t": 175483.52000000203,
      "d": 516.1280000000261,
      "v": 80
    },
    {
      "midi": 43,
      "hit": false,
      "t": 175644.81000000203,
      "d": 129.03200000000652,
      "v": 80
    },
    {
      "midi": 51,
      "hit": false,
      "t": 175806.10000000204,
      "d": 1225.8040000000328,
      "v": 80
    },
    {
      "midi": 62,
      "hit": false,
      "t": 176128.68000000206,
      "d": 258.06400000001304,
      "v": 80
    },
    {
      "midi": 62,
      "hit": false,
      "t": 176451.26000000208,
      "d": 129.03200000000652,
      "v": 80
    },
    {
      "midi": 62,
      "hit": false,
      "t": 176612.55000000208,
      "d": 387.09599999999045,
      "v": 80
    },
    {
      "midi": 39,
      "hit": false,
      "t": 177096.42000000208,
      "d": 129.03200000000652,
      "v": 80
    },
    {
      "midi": 60,
      "hit": false,
      "t": 177096.42000000208,
      "d": 516.1280000000261,
      "v": 80
    },
    {
      "midi": 43,
      "hit": false,
      "t": 177257.7100000021,
      "d": 129.03200000000652,
      "v": 80
    },
    {
      "midi": 48,
      "hit": false,
      "t": 177419.0000000021,
      "d": 129.03200000000652,
      "v": 80
    },
    {
      "midi": 50,
      "hit": false,
      "t": 177580.2900000021,
      "d": 129.03200000000652,
      "v": 80
    },
    {
      "midi": 51,
      "hit": false,
      "t": 177741.5800000021,
      "d": 258.06400000001304,
      "v": 80
    },
    {
      "midi": 44,
      "hit": false,
      "t": 178064.16000000213,
      "d": 129.03200000000652,
      "v": 80
    },
    {
      "midi": 60,
      "hit": false,
      "t": 178064.16000000213,
      "d": 516.1280000000261,
      "v": 80
    },
    {
      "midi": 51,
      "hit": false,
      "t": 178225.45000000214,
      "d": 129.03200000000652,
      "v": 80
    },
    {
      "midi": 56,
      "hit": false,
      "t": 178386.74000000214,
      "d": 1225.8040000000328,
      "v": 80
    },
    {
      "midi": 63,
      "hit": false,
      "t": 178709.32000000216,
      "d": 258.06400000001304,
      "v": 80
    },
    {
      "midi": 63,
      "hit": false,
      "t": 179031.90000000218,
      "d": 129.03200000000652,
      "v": 80
    },
    {
      "midi": 63,
      "hit": false,
      "t": 179193.19000000219,
      "d": 387.09599999999045,
      "v": 80
    },
    {
      "midi": 41,
      "hit": false,
      "t": 179677.06000000218,
      "d": 129.03200000000652,
      "v": 80
    },
    {
      "midi": 62,
      "hit": false,
      "t": 179677.06000000218,
      "d": 258.06400000001304,
      "v": 80
    },
    {
      "midi": 48,
      "hit": false,
      "t": 179838.3500000022,
      "d": 129.03200000000652,
      "v": 80
    },
    {
      "midi": 53,
      "hit": false,
      "t": 179999.6400000022,
      "d": 516.1280000000261,
      "v": 80
    },
    {
      "midi": 56,
      "hit": false,
      "t": 180160.9300000022,
      "d": 129.03200000000652,
      "v": 80
    },
    {
      "midi": 58,
      "hit": false,
      "t": 180322.2200000022,
      "d": 129.03200000000652,
      "v": 80
    },
    {
      "midi": 60,
      "hit": false,
      "t": 180483.51000000222,
      "d": 129.03200000000652,
      "v": 80
    },
    {
      "midi": 39,
      "hit": false,
      "t": 180644.80000000223,
      "d": 129.03200000000652,
      "v": 80
    },
    {
      "midi": 67,
      "hit": false,
      "t": 180644.80000000223,
      "d": 516.1280000000261,
      "v": 80
    },
    {
      "midi": 43,
      "hit": false,
      "t": 180806.09000000224,
      "d": 129.03200000000652,
      "v": 80
    },
    {
      "midi": 51,
      "hit": false,
      "t": 180967.38000000225,
      "d": 774.1920000000391,
      "v": 80
    },
    {
      "midi": 65,
      "hit": false,
      "t": 181289.96000000226,
      "d": 258.06400000001304,
      "v": 80
    },
    {
      "midi": 68,
      "hit": false,
      "t": 181612.54000000228,
      "d": 258.06400000001304,
      "v": 80
    },
    {
      "midi": 51,
      "hit": false,
      "t": 181935.1200000023,
      "d": 258.06400000001304,
      "v": 80
    },
    {
      "midi": 39,
      "hit": false,
      "t": 182257.7000000023,
      "d": 129.03200000000652,
      "v": 80
    },
    {
      "midi": 63,
      "hit": false,
      "t": 182257.7000000023,
      "d": 129.03200000000652,
      "v": 80
    },
    {
      "midi": 43,
      "hit": false,
      "t": 182418.99000000232,
      "d": 129.03200000000652,
      "v": 80
    },
    {
      "midi": 62,
      "hit": false,
      "t": 182418.99000000232,
      "d": 129.03200000000652,
      "v": 80
    },
    {
      "midi": 48,
      "hit": false,
      "t": 182580.28000000233,
      "d": 129.03200000000652,
      "v": 80
    },
    {
      "midi": 60,
      "hit": false,
      "t": 182580.28000000233,
      "d": 387.09600000001956,
      "v": 80
    },
    {
      "midi": 50,
      "hit": false,
      "t": 182741.57000000234,
      "d": 129.03200000000652,
      "v": 80
    },
    {
      "midi": 51,
      "hit": false,
      "t": 182902.86000000234,
      "d": 258.06400000001304,
      "v": 80
    },
    {
      "midi": 60,
      "hit": false,
      "t": 183064.15000000235,
      "d": 129.03200000000652,
      "v": 80
    },
    {
      "midi": 44,
      "hit": false,
      "t": 183225.44000000236,
      "d": 129.03200000000652,
      "v": 80
    },
    {
      "midi": 63,
      "hit": false,
      "t": 183225.44000000236,
      "d": 387.09600000001956,
      "v": 80
    },
    {
      "midi": 51,
      "hit": false,
      "t": 183386.73000000237,
      "d": 129.03200000000652,
      "v": 80
    },
    {
      "midi": 56,
      "hit": false,
      "t": 183548.02000000238,
      "d": 1225.8040000000037,
      "v": 80
    },
    {
      "midi": 65,
      "hit": false,
      "t": 183709.31000000238,
      "d": 387.09599999999045,
      "v": 80
    },
    {
      "midi": 65,
      "hit": false,
      "t": 184193.18000000238,
      "d": 774.19200000001,
      "v": 80
    },
    {
      "midi": 41,
      "hit": false,
      "t": 184838.34000000238,
      "d": 129.03200000000652,
      "v": 80
    },
    {
      "midi": 48,
      "hit": false,
      "t": 184999.6300000024,
      "d": 129.03200000000652,
      "v": 80
    },
    {
      "midi": 60,
      "hit": false,
      "t": 185160.9200000024,
      "d": 129.03200000000652,
      "v": 80
    },
    {
      "midi": 53,
      "hit": false,
      "t": 185160.9200000024,
      "d": 516.1280000000261,
      "v": 80
    },
    {
      "midi": 63,
      "hit": false,
      "t": 185322.2100000024,
      "d": 129.03200000000652,
      "v": 80
    },
    {
      "midi": 62,
      "hit": false,
      "t": 185483.50000000242,
      "d": 258.06400000001304,
      "v": 80
    },
    {
      "midi": 39,
      "hit": false,
      "t": 185806.08000000243,
      "d": 129.03200000000652,
      "v": 80
    },
    {
      "midi": 67,
      "hit": false,
      "t": 185806.08000000243,
      "d": 516.1280000000261,
      "v": 80
    },
    {
      "midi": 43,
      "hit": false,
      "t": 185967.37000000244,
      "d": 129.03200000000652,
      "v": 80
    },
    {
      "midi": 51,
      "hit": false,
      "t": 186128.66000000245,
      "d": 1032.2560000000522,
      "v": 80
    },
    {
      "midi": 65,
      "hit": false,
      "t": 186451.24000000246,
      "d": 258.06400000001304,
      "v": 80
    },
    {
      "midi": 68,
      "hit": false,
      "t": 186773.82000000248,
      "d": 258.06400000001304,
      "v": 80
    },
    {
      "midi": 63,
      "hit": false,
      "t": 187096.4000000025,
      "d": 258.06400000001304,
      "v": 80
    },
    {
      "midi": 39,
      "hit": false,
      "t": 187418.9800000025,
      "d": 129.03200000000652,
      "v": 80
    },
    {
      "midi": 62,
      "hit": false,
      "t": 187418.9800000025,
      "d": 516.1280000000261,
      "v": 80
    },
    {
      "midi": 43,
      "hit": false,
      "t": 187580.27000000252,
      "d": 129.03200000000652,
      "v": 80
    },
    {
      "midi": 48,
      "hit": false,
      "t": 187741.56000000253,
      "d": 129.03200000000652,
      "v": 80
    },
    {
      "midi": 50,
      "hit": false,
      "t": 187902.85000000254,
      "d": 129.03200000000652,
      "v": 80
    },
    {
      "midi": 60,
      "hit": false,
      "t": 188064.14000000255,
      "d": 258.06400000001304,
      "v": 80
    },
    {
      "midi": 51,
      "hit": false,
      "t": 188064.14000000255,
      "d": 290.32200000001467,
      "v": 80
    },
    {
      "midi": 44,
      "hit": false,
      "t": 188386.72000000256,
      "d": 387.09599999999045,
      "v": 80
    },
    {
      "midi": 60,
      "hit": false,
      "t": 188386.72000000256,
      "d": 387.09599999999045,
      "v": 80
    },
    {
      "midi": 63,
      "hit": false,
      "t": 188386.72000000256,
      "d": 387.09599999999045,
      "v": 80
    },
    {
      "midi": 51,
      "hit": false,
      "t": 188870.59000000256,
      "d": 387.09599999999045,
      "v": 80
    },
    {
      "midi": 65,
      "hit": false,
      "t": 188870.59000000256,
      "d": 387.09599999999045,
      "v": 80
    },
    {
      "midi": 56,
      "hit": false,
      "t": 189354.46000000255,
      "d": 258.06400000001304,
      "v": 80
    },
    {
      "midi": 65,
      "hit": false,
      "t": 189354.46000000255,
      "d": 774.19200000001,
      "v": 80
    },
    {
      "midi": 53,
      "hit": false,
      "t": 189677.04000000257,
      "d": 516.127999999997,
      "v": 80
    },
    {
      "midi": 41,
      "hit": false,
      "t": 190322.20000000257,
      "d": 516.1280000000261,
      "v": 80
    },
    {
      "midi": 60,
      "hit": false,
      "t": 190483.49000000258,
      "d": 129.03200000000652,
      "v": 80
    },
    {
      "midi": 60,
      "hit": false,
      "t": 190644.7800000026,
      "d": 129.03200000000652,
      "v": 80
    },
    {
      "midi": 60,
      "hit": false,
      "t": 190806.0700000026,
      "d": 129.03200000000652,
      "v": 80
    },
    {
      "midi": 36,
      "hit": false,
      "t": 190967.3600000026,
      "d": 129.03200000000652,
      "v": 80
    },
    {
      "midi": 43,
      "hit": false,
      "t": 191128.6500000026,
      "d": 129.03200000000652,
      "v": 80
    },
    {
      "midi": 36,
      "hit": false,
      "t": 191289.94000000262,
      "d": 774.1919999999809,
      "v": 80
    },
    {
      "midi": 48,
      "hit": false,
      "t": 191289.94000000262,
      "d": 774.1919999999809,
      "v": 80
    },
    {
      "midi": 60,
      "hit": false,
      "t": 191612.5200000026,
      "d": 387.09599999999045,
      "v": 80
    },
    {
      "midi": 63,
      "hit": false,
      "t": 191612.5200000026,
      "d": 387.09599999999045,
      "v": 80
    },
    {
      "midi": 67,
      "hit": false,
      "t": 191612.5200000026,
      "d": 387.09599999999045,
      "v": 80
    },
    {
      "midi": 60,
      "hit": false,
      "t": 192096.3900000026,
      "d": 935.4820000000182,
      "v": 80
    },
    {
      "midi": 63,
      "hit": false,
      "t": 192096.3900000026,
      "d": 935.4820000000182,
      "v": 80
    },
    {
      "midi": 67,
      "hit": false,
      "t": 192096.3900000026,
      "d": 935.4820000000182,
      "v": 80
    },
    {
      "midi": 39,
      "hit": false,
      "t": 192257.6800000026,
      "d": 129.03200000000652,
      "v": 80
    },
    {
      "midi": 48,
      "hit": false,
      "t": 192418.97000000262,
      "d": 129.03200000000652,
      "v": 80
    },
    {
      "midi": 43,
      "hit": false,
      "t": 192580.26000000263,
      "d": 774.19200000001,
      "v": 80
    },
    {
      "midi": 51,
      "hit": false,
      "t": 192580.26000000263,
      "d": 774.19200000001,
      "v": 80
    },
    {
      "midi": 67,
      "hit": false,
      "t": 193225.42000000263,
      "d": 129.03200000000652,
      "v": 80
    },
    {
      "midi": 67,
      "hit": false,
      "t": 193386.71000000264,
      "d": 129.03200000000652,
      "v": 80
    },
    {
      "midi": 44,
      "hit": false,
      "t": 193548.00000000265,
      "d": 129.03200000000652,
      "v": 80
    },
    {
      "midi": 51,
      "hit": false,
      "t": 193709.29000000266,
      "d": 129.03200000000652,
      "v": 80
    },
    {
      "midi": 44,
      "hit": false,
      "t": 193870.58000000266,
      "d": 774.1919999999809,
      "v": 80
    },
    {
      "midi": 56,
      "hit": false,
      "t": 193870.58000000266,
      "d": 774.1919999999809,
      "v": 80
    },
    {
      "midi": 60,
      "hit": false,
      "t": 194193.16000000265,
      "d": 387.09599999999045,
      "v": 80
    },
    {
      "midi": 67,
      "hit": false,
      "t": 194193.16000000265,
      "d": 387.09599999999045,
      "v": 80
    },
    {
      "midi": 65,
      "hit": false,
      "t": 194677.03000000265,
      "d": 129.03200000000652,
      "v": 80
    },
    {
      "midi": 41,
      "hit": false,
      "t": 194838.32000000266,
      "d": 129.03200000000652,
      "v": 80
    },
    {
      "midi": 60,
      "hit": false,
      "t": 194838.32000000266,
      "d": 774.19200000001,
      "v": 80
    },
    {
      "midi": 67,
      "hit": false,
      "t": 194838.32000000266,
      "d": 774.19200000001,
      "v": 80
    },
    {
      "midi": 48,
      "hit": false,
      "t": 194999.61000000266,
      "d": 129.03200000000652,
      "v": 80
    },
    {
      "midi": 53,
      "hit": false,
      "t": 195160.90000000267,
      "d": 419.3539999999921,
      "v": 80
    },
    {
      "midi": 41,
      "hit": false,
      "t": 195644.77000000267,
      "d": 129.03200000000652,
      "v": 80
    },
    {
      "midi": 67,
      "hit": false,
      "t": 195644.77000000267,
      "d": 129.03200000000652,
      "v": 80
    },
    {
      "midi": 44,
      "hit": false,
      "t": 195806.06000000268,
      "d": 129.03200000000652,
      "v": 80
    },
    {
      "midi": 67,
      "hit": false,
      "t": 195806.06000000268,
      "d": 129.03200000000652,
      "v": 80
    },
    {
      "midi": 46,
      "hit": false,
      "t": 195967.35000000268,
      "d": 129.03200000000652,
      "v": 80
    },
    {
      "midi": 67,
      "hit": false,
      "t": 195967.35000000268,
      "d": 129.03200000000652,
      "v": 80
    },
    {
      "midi": 36,
      "hit": false,
      "t": 196128.6400000027,
      "d": 129.03200000000652,
      "v": 80
    },
    {
      "midi": 60,
      "hit": false,
      "t": 196128.6400000027,
      "d": 258.06400000001304,
      "v": 80
    },
    {
      "midi": 63,
      "hit": false,
      "t": 196128.6400000027,
      "d": 258.06400000001304,
      "v": 80
    },
    {
      "midi": 68,
      "hit": false,
      "t": 196128.6400000027,
      "d": 387.09600000001956,
      "v": 80
    },
    {
      "midi": 43,
      "hit": false,
      "t": 196289.9300000027,
      "d": 129.03200000000652,
      "v": 80
    },
    {
      "midi": 36,
      "hit": false,
      "t": 196451.2200000027,
      "d": 774.19200000001,
      "v": 80
    },
    {
      "midi": 48,
      "hit": false,
      "t": 196451.2200000027,
      "d": 774.19200000001,
      "v": 80
    },
    {
      "midi": 60,
      "hit": false,
      "t": 196612.51000000272,
      "d": 419.3539999999921,
      "v": 80
    },
    {
      "midi": 63,
      "hit": false,
      "t": 196612.51000000272,
      "d": 419.3539999999921,
      "v": 80
    },
    {
      "midi": 68,
      "hit": false,
      "t": 196612.51000000272,
      "d": 419.3539999999921,
      "v": 80
    },
    {
      "midi": 60,
      "hit": false,
      "t": 197096.3800000027,
      "d": 258.06400000001304,
      "v": 80
    },
    {
      "midi": 63,
      "hit": false,
      "t": 197096.3800000027,
      "d": 258.06400000001304,
      "v": 80
    },
    {
      "midi": 68,
      "hit": false,
      "t": 197096.3800000027,
      "d": 258.06400000001304,
      "v": 80
    },
    {
      "midi": 39,
      "hit": false,
      "t": 197418.96000000273,
      "d": 129.03200000000652,
      "v": 80
    },
    {
      "midi": 60,
      "hit": false,
      "t": 197418.96000000273,
      "d": 516.1280000000261,
      "v": 80
    },
    {
      "midi": 63,
      "hit": false,
      "t": 197418.96000000273,
      "d": 516.1280000000261,
      "v": 80
    },
    {
      "midi": 67,
      "hit": false,
      "t": 197418.96000000273,
      "d": 516.1280000000261,
      "v": 80
    },
    {
      "midi": 48,
      "hit": false,
      "t": 197580.25000000274,
      "d": 129.03200000000652,
      "v": 80
    },
    {
      "midi": 43,
      "hit": false,
      "t": 197741.54000000274,
      "d": 774.19200000001,
      "v": 80
    },
    {
      "midi": 51,
      "hit": false,
      "t": 197741.54000000274,
      "d": 774.19200000001,
      "v": 80
    },
    {
      "midi": 65,
      "hit": false,
      "t": 198386.70000000275,
      "d": 129.03200000000652,
      "v": 80
    },
    {
      "midi": 67,
      "hit": false,
      "t": 198547.99000000276,
      "d": 129.03200000000652,
      "v": 80
    },
    {
      "midi": 44,
      "hit": false,
      "t": 198709.28000000276,
      "d": 129.03200000000652,
      "v": 80
    },
    {
      "midi": 51,
      "hit": false,
      "t": 198870.57000000277,
      "d": 129.03200000000652,
      "v": 80
    },
    {
      "midi": 44,
      "hit": false,
      "t": 199031.86000000278,
      "d": 774.1919999999809,
      "v": 80
    },
    {
      "midi": 56,
      "hit": false,
      "t": 199031.86000000278,
      "d": 774.1919999999809,
      "v": 80
    },
    {
      "midi": 60,
      "hit": false,
      "t": 199354.44000000277,
      "d": 516.127999999997,
      "v": 80
    },
    {
      "midi": 68,
      "hit": false,
      "t": 199354.44000000277,
      "d": 516.127999999997,
      "v": 80
    },
    {
      "midi": 41,
      "hit": false,
      "t": 199999.60000000277,
      "d": 129.03200000000652,
      "v": 80
    },
    {
      "midi": 68,
      "hit": false,
      "t": 199999.60000000277,
      "d": 129.03200000000652,
      "v": 80
    },
    {
      "midi": 60,
      "hit": false,
      "t": 199999.60000000277,
      "d": 1161.2880000000587,
      "v": 80
    },
    {
      "midi": 48,
      "hit": false,
      "t": 200160.89000000278,
      "d": 129.03200000000652,
      "v": 80
    },
    {
      "midi": 67,
      "hit": false,
      "t": 200160.89000000278,
      "d": 387.09600000001956,
      "v": 80
    },
    {
      "midi": 53,
      "hit": false,
      "t": 200322.1800000028,
      "d": 419.3540000000212,
      "v": 80
    },
    {
      "midi": 67,
      "hit": false,
      "t": 200644.7600000028,
      "d": 516.1280000000261,
      "v": 80
    },
    {
      "midi": 41,
      "hit": false,
      "t": 200806.0500000028,
      "d": 129.03200000000652,
      "v": 80
    },
    {
      "midi": 44,
      "hit": false,
      "t": 200967.34000000282,
      "d": 129.03200000000652,
      "v": 80
    },
    {
      "midi": 46,
      "hit": false,
      "t": 201128.63000000283,
      "d": 129.03200000000652,
      "v": 80
    },
    {
      "midi": 36,
      "hit": false,
      "t": 201289.92000000284,
      "d": 129.03200000000652,
      "v": 80
    },
    {
      "midi": 60,
      "hit": false,
      "t": 201289.92000000284,
      "d": 387.09600000001956,
      "v": 80
    },
    {
      "midi": 67,
      "hit": false,
      "t": 201289.92000000284,
      "d": 387.09600000001956,
      "v": 80
    },
    {
      "midi": 43,
      "hit": false,
      "t": 201451.21000000284,
      "d": 129.03200000000652,
      "v": 80
    },
    {
      "midi": 36,
      "hit": false,
      "t": 201612.50000000285,
      "d": 774.1920000000391,
      "v": 80
    },
    {
      "midi": 48,
      "hit": false,
      "t": 201612.50000000285,
      "d": 774.1920000000391,
      "v": 80
    },
    {
      "midi": 62,
      "hit": false,
      "t": 201773.79000000286,
      "d": 129.03200000000652,
      "v": 80
    },
    {
      "midi": 63,
      "hit": false,
      "t": 201935.08000000287,
      "d": 258.06400000001304,
      "v": 80
    },
    {
      "midi": 65,
      "hit": false,
      "t": 202257.66000000288,
      "d": 516.1280000000261,
      "v": 80
    },
    {
      "midi": 39,
      "hit": false,
      "t": 202580.2400000029,
      "d": 129.03200000000652,
      "v": 80
    },
    {
      "midi": 48,
      "hit": false,
      "t": 202741.5300000029,
      "d": 129.03200000000652,
      "v": 80
    },
    {
      "midi": 39,
      "hit": false,
      "t": 202902.82000000292,
      "d": 774.19200000001,
      "v": 80
    },
    {
      "midi": 51,
      "hit": false,
      "t": 202902.82000000292,
      "d": 774.19200000001,
      "v": 80
    },
    {
      "midi": 60,
      "hit": false,
      "t": 202902.82000000292,
      "d": 903.2240000000165,
      "v": 80
    },
    {
      "midi": 44,
      "hit": false,
      "t": 203870.56000000294,
      "d": 129.03200000000652,
      "v": 80
    },
    {
      "midi": 60,
      "hit": false,
      "t": 203870.56000000294,
      "d": 516.1280000000261,
      "v": 80
    },
    {
      "midi": 51,
      "hit": false,
      "t": 204031.85000000295,
      "d": 129.03200000000652,
      "v": 80
    },
    {
      "midi": 44,
      "hit": false,
      "t": 204193.14000000295,
      "d": 774.1920000000391,
      "v": 80
    },
    {
      "midi": 56,
      "hit": false,
      "t": 204193.14000000295,
      "d": 774.1920000000391,
      "v": 80
    },
    {
      "midi": 65,
      "hit": false,
      "t": 204515.72000000297,
      "d": 258.06400000001304,
      "v": 80
    },
    {
      "midi": 65,
      "hit": false,
      "t": 204838.300000003,
      "d": 129.03200000000652,
      "v": 80
    },
    {
      "midi": 65,
      "hit": false,
      "t": 204999.590000003,
      "d": 290.32200000001467,
      "v": 80
    },
    {
      "midi": 41,
      "hit": false,
      "t": 205160.880000003,
      "d": 129.03200000000652,
      "v": 80
    },
    {
      "midi": 48,
      "hit": false,
      "t": 205322.170000003,
      "d": 129.03200000000652,
      "v": 80
    },
    {
      "midi": 67,
      "hit": false,
      "t": 205322.170000003,
      "d": 258.06400000001304,
      "v": 80
    },
    {
      "midi": 41,
      "hit": false,
      "t": 205483.46000000302,
      "d": 774.19200000001,
      "v": 80
    },
    {
      "midi": 53,
      "hit": false,
      "t": 205483.46000000302,
      "d": 774.19200000001,
      "v": 80
    },
    {
      "midi": 68,
      "hit": false,
      "t": 205644.75000000303,
      "d": 290.32199999998556,
      "v": 80
    },
    {
      "midi": 70,
      "hit": false,
      "t": 205967.330000003,
      "d": 129.03200000000652,
      "v": 80
    },
    {
      "midi": 67,
      "hit": false,
      "t": 206128.62000000302,
      "d": 451.6120000000228,
      "v": 80
    },
    {
      "midi": 36,
      "hit": false,
      "t": 206451.20000000304,
      "d": 129.03200000000652,
      "v": 80
    },
    {
      "midi": 60,
      "hit": false,
      "t": 206451.20000000304,
      "d": 129.03200000000652,
      "v": 80
    },
    {
      "midi": 43,
      "hit": false,
      "t": 206612.49000000305,
      "d": 129.03200000000652,
      "v": 80
    },
    {
      "midi": 62,
      "hit": false,
      "t": 206612.49000000305,
      "d": 129.03200000000652,
      "v": 80
    },
    {
      "midi": 62,
      "hit": false,
      "t": 206773.78000000305,
      "d": 258.06400000001304,
      "v": 80
    },
    {
      "midi": 36,
      "hit": false,
      "t": 206773.78000000305,
      "d": 774.19200000001,
      "v": 80
    },
    {
      "midi": 48,
      "hit": false,
      "t": 206773.78000000305,
      "d": 774.19200000001,
      "v": 80
    },
    {
      "midi": 67,
      "hit": false,
      "t": 207096.36000000307,
      "d": 387.09599999999045,
      "v": 80
    },
    {
      "midi": 65,
      "hit": false,
      "t": 207580.23000000307,
      "d": 677.4180000000342,
      "v": 80
    },
    {
      "midi": 39,
      "hit": false,
      "t": 207741.52000000307,
      "d": 129.03200000000652,
      "v": 80
    },
    {
      "midi": 48,
      "hit": false,
      "t": 207902.81000000308,
      "d": 129.03200000000652,
      "v": 80
    },
    {
      "midi": 39,
      "hit": false,
      "t": 208064.1000000031,
      "d": 774.19200000001,
      "v": 80
    },
    {
      "midi": 51,
      "hit": false,
      "t": 208064.1000000031,
      "d": 774.19200000001,
      "v": 80
    },
    {
      "midi": 60,
      "hit": false,
      "t": 208386.6800000031,
      "d": 516.127999999997,
      "v": 80
    },
    {
      "midi": 44,
      "hit": false,
      "t": 209031.8400000031,
      "d": 129.03200000000652,
      "v": 80
    },
    {
      "midi": 60,
      "hit": false,
      "t": 209031.8400000031,
      "d": 2064.512000000075,
      "v": 80
    },
    {
      "midi": 51,
      "hit": false,
      "t": 209193.13000000312,
      "d": 129.03200000000652,
      "v": 80
    },
    {
      "midi": 44,
      "hit": false,
      "t": 209354.42000000313,
      "d": 774.19200000001,
      "v": 80
    },
    {
      "midi": 56,
      "hit": false,
      "t": 209354.42000000313,
      "d": 774.19200000001,
      "v": 80
    },
    {
      "midi": 65,
      "hit": false,
      "t": 209677.0000000031,
      "d": 129.03200000000652,
      "v": 80
    },
    {
      "midi": 65,
      "hit": false,
      "t": 209838.29000000312,
      "d": 258.06400000001304,
      "v": 80
    },
    {
      "midi": 65,
      "hit": false,
      "t": 210160.87000000314,
      "d": 451.6120000000228,
      "v": 80
    },
    {
      "midi": 41,
      "hit": false,
      "t": 210322.16000000315,
      "d": 129.03200000000652,
      "v": 80
    },
    {
      "midi": 48,
      "hit": false,
      "t": 210483.45000000315,
      "d": 129.03200000000652,
      "v": 80
    },
    {
      "midi": 67,
      "hit": false,
      "t": 210644.74000000316,
      "d": 258.06400000001304,
      "v": 80
    },
    {
      "midi": 41,
      "hit": false,
      "t": 210644.74000000316,
      "d": 774.1920000000391,
      "v": 80
    },
    {
      "midi": 53,
      "hit": false,
      "t": 210644.74000000316,
      "d": 774.1920000000391,
      "v": 80
    },
    {
      "midi": 68,
      "hit": false,
      "t": 210967.32000000318,
      "d": 290.32200000001467,
      "v": 80
    },
    {
      "midi": 70,
      "hit": false,
      "t": 211289.9000000032,
      "d": 129.03200000000652,
      "v": 80
    },
    {
      "midi": 67,
      "hit": false,
      "t": 211451.1900000032,
      "d": 677.4180000000342,
      "v": 80
    },
    {
      "midi": 36,
      "hit": false,
      "t": 211612.4800000032,
      "d": 129.03200000000652,
      "v": 80
    },
    {
      "midi": 60,
      "hit": false,
      "t": 211612.4800000032,
      "d": 129.03200000000652,
      "v": 80
    },
    {
      "midi": 43,
      "hit": false,
      "t": 211773.77000000322,
      "d": 129.03200000000652,
      "v": 80
    },
    {
      "midi": 62,
      "hit": false,
      "t": 211773.77000000322,
      "d": 129.03200000000652,
      "v": 80
    },
    {
      "midi": 39,
      "hit": false,
      "t": 211935.06000000323,
      "d": 774.19200000001,
      "v": 80
    },
    {
      "midi": 51,
      "hit": false,
      "t": 211935.06000000323,
      "d": 774.19200000001,
      "v": 80
    },
    {
      "midi": 63,
      "hit": false,
      "t": 211935.06000000323,
      "d": 774.19200000001,
      "v": 80
    },
    {
      "midi": 67,
      "hit": false,
      "t": 212257.64000000324,
      "d": 387.09599999999045,
      "v": 80
    },
    {
      "midi": 65,
      "hit": false,
      "t": 212741.51000000324,
      "d": 1193.546000000002,
      "v": 80
    },
    {
      "midi": 39,
      "hit": false,
      "t": 212902.80000000325,
      "d": 129.03200000000652,
      "v": 80
    },
    {
      "midi": 48,
      "hit": false,
      "t": 213064.09000000326,
      "d": 129.03200000000652,
      "v": 80
    },
    {
      "midi": 39,
      "hit": false,
      "t": 213225.38000000326,
      "d": 774.1919999999809,
      "v": 80
    },
    {
      "midi": 51,
      "hit": false,
      "t": 213225.38000000326,
      "d": 774.1919999999809,
      "v": 80
    },
    {
      "midi": 60,
      "hit": false,
      "t": 213547.96000000325,
      "d": 516.127999999997,
      "v": 80
    },
    {
      "midi": 44,
      "hit": false,
      "t": 214193.12000000325,
      "d": 129.03200000000652,
      "v": 80
    },
    {
      "midi": 60,
      "hit": false,
      "t": 214193.12000000325,
      "d": 2064.512000000075,
      "v": 80
    },
    {
      "midi": 51,
      "hit": false,
      "t": 214354.41000000326,
      "d": 129.03200000000652,
      "v": 80
    },
    {
      "midi": 44,
      "hit": false,
      "t": 214515.70000000327,
      "d": 774.19200000001,
      "v": 80
    },
    {
      "midi": 56,
      "hit": false,
      "t": 214515.70000000327,
      "d": 774.19200000001,
      "v": 80
    },
    {
      "midi": 65,
      "hit": false,
      "t": 214838.28000000326,
      "d": 129.03200000000652,
      "v": 80
    },
    {
      "midi": 65,
      "hit": false,
      "t": 214999.57000000327,
      "d": 258.06400000001304,
      "v": 80
    },
    {
      "midi": 65,
      "hit": false,
      "t": 215322.15000000328,
      "d": 451.6120000000228,
      "v": 80
    },
    {
      "midi": 41,
      "hit": false,
      "t": 215483.4400000033,
      "d": 258.06400000001304,
      "v": 80
    },
    {
      "midi": 67,
      "hit": false,
      "t": 215806.0200000033,
      "d": 129.03200000000652,
      "v": 80
    },
    {
      "midi": 48,
      "hit": false,
      "t": 215806.0200000033,
      "d": 258.06400000001304,
      "v": 80
    },
    {
      "midi": 68,
      "hit": false,
      "t": 215967.31000000332,
      "d": 419.3540000000212,
      "v": 80
    },
    {
      "midi": 41,
      "hit": false,
      "t": 216128.60000000332,
      "d": 645.1600000000326,
      "v": 80
    },
    {
      "midi": 53,
      "hit": false,
      "t": 216128.60000000332,
      "d": 645.1600000000326,
      "v": 80
    },
    {
      "midi": 67,
      "hit": false,
      "t": 216451.18000000334,
      "d": 258.06400000001304,
      "v": 80
    },
    {
      "midi": 36,
      "hit": false,
      "t": 216773.76000000336,
      "d": 129.03200000000652,
      "v": 80
    },
    {
      "midi": 60,
      "hit": false,
      "t": 216773.76000000336,
      "d": 129.03200000000652,
      "v": 80
    },
    {
      "midi": 43,
      "hit": false,
      "t": 216935.05000000336,
      "d": 129.03200000000652,
      "v": 80
    },
    {
      "midi": 62,
      "hit": false,
      "t": 216935.05000000336,
      "d": 129.03200000000652,
      "v": 80
    },
    {
      "midi": 36,
      "hit": false,
      "t": 217096.34000000337,
      "d": 774.19200000001,
      "v": 80
    },
    {
      "midi": 48,
      "hit": false,
      "t": 217096.34000000337,
      "d": 774.19200000001,
      "v": 80
    },
    {
      "midi": 63,
      "hit": false,
      "t": 217096.34000000337,
      "d": 774.19200000001,
      "v": 80
    },
    {
      "midi": 39,
      "hit": false,
      "t": 218064.0800000034,
      "d": 129.03200000000652,
      "v": 80
    },
    {
      "midi": 48,
      "hit": false,
      "t": 218225.3700000034,
      "d": 129.03200000000652,
      "v": 80
    },
    {
      "midi": 39,
      "hit": false,
      "t": 218386.6600000034,
      "d": 774.1919999999809,
      "v": 80
    },
    {
      "midi": 51,
      "hit": false,
      "t": 218386.6600000034,
      "d": 774.1919999999809,
      "v": 80
    },
    {
      "midi": 60,
      "hit": false,
      "t": 218709.2400000034,
      "d": 516.127999999997,
      "v": 80
    },
    {
      "midi": 44,
      "hit": false,
      "t": 219354.4000000034,
      "d": 129.03200000000652,
      "v": 80
    },
    {
      "midi": 60,
      "hit": false,
      "t": 219354.4000000034,
      "d": 1032.256000000023,
      "v": 80
    },
    {
      "midi": 51,
      "hit": false,
      "t": 219515.6900000034,
      "d": 129.03200000000652,
      "v": 80
    },
    {
      "midi": 44,
      "hit": false,
      "t": 219676.98000000342,
      "d": 774.19200000001,
      "v": 80
    },
    {
      "midi": 53,
      "hit": false,
      "t": 219676.98000000342,
      "d": 774.19200000001,
      "v": 80
    },
    {
      "midi": 44,
      "hit": false,
      "t": 220644.72000000344,
      "d": 258.06400000001304,
      "v": 80
    },
    {
      "midi": 60,
      "hit": false,
      "t": 220644.72000000344,
      "d": 258.06400000001304,
      "v": 80
    },
    {
      "midi": 56,
      "hit": false,
      "t": 220967.30000000345,
      "d": 129.03200000000652,
      "v": 80
    },
    {
      "midi": 43,
      "hit": false,
      "t": 220967.30000000345,
      "d": 258.06400000001304,
      "v": 80
    },
    {
      "midi": 58,
      "hit": false,
      "t": 221128.59000000346,
      "d": 129.03200000000652,
      "v": 80
    },
    {
      "midi": 48,
      "hit": false,
      "t": 221612.46000000346,
      "d": 1999.9960000000137,
      "v": 80
    },
    {
      "midi": 55,
      "hit": false,
      "t": 221612.46000000346,
      "d": 1999.9960000000137,
      "v": 80
    },
    {
      "midi": 60,
      "hit": false,
      "t": 221612.46000000346,
      "d": 1999.9960000000137,
      "v": 80
    }
  ]
}