{
  "jsonPath": "Unknown/Unknown/BW Stevenson/my-maria.json",
  "path": "Unknown\\Unknown\\BW Stevenson\\My Maria.mid",
  "name": "My Maria",
  "difficulty": "Advanced",
  "bpm": 130.00041166797027,
  "notes": [
    {
      "midi": 56,
      "hit": false,
      "t": 9230.74,
      "d": 517.3060541666673,
      "v": 68
    },
    {
      "midi": 59,
      "hit": false,
      "t": 9230.74,
      "d": 546.152116666668,
      "v": 80
    },
    {
      "midi": 40,
      "hit": false,
      "t": 9230.74,
      "d": 863.4588041666684,
      "v": 89
    },
    {
      "midi": 59,
      "hit": false,
      "t": 10153.814000000002,
      "d": 578.8443208333338,
      "v": 56
    },
    {
      "midi": 63,
      "hit": false,
      "t": 10153.814000000002,
      "d": 580.7673916666663,
      "v": 72
    },
    {
      "midi": 57,
      "hit": false,
      "t": 10846.119500000003,
      "d": 1557.6873749999995,
      "v": 57
    },
    {
      "midi": 61,
      "hit": false,
      "t": 10846.119500000003,
      "d": 1559.610445833332,
      "v": 62
    },
    {
      "midi": 52,
      "hit": false,
      "t": 10846.119500000003,
      "d": 1696.1484749999981,
      "v": 60
    },
    {
      "midi": 56,
      "hit": false,
      "t": 12923.036,
      "d": 528.8444791666661,
      "v": 64
    },
    {
      "midi": 64,
      "hit": false,
      "t": 12923.036,
      "d": 546.1521166666662,
      "v": 64
    },
    {
      "midi": 52,
      "hit": false,
      "t": 12923.036,
      "d": 774.997545833332,
      "v": 76
    },
    {
      "midi": 59,
      "hit": false,
      "t": 12923.036,
      "d": 796.1513249999989,
      "v": 76
    },
    {
      "midi": 47,
      "hit": false,
      "t": 13846.109999999999,
      "d": 567.3058958333331,
      "v": 72
    },
    {
      "midi": 63,
      "hit": false,
      "t": 13846.109999999999,
      "d": 651.921012499999,
      "v": 80
    },
    {
      "midi": 61,
      "hit": false,
      "t": 14538.415499999997,
      "d": 1124.9964375,
      "v": 64
    },
    {
      "midi": 57,
      "hit": false,
      "t": 14538.415499999997,
      "d": 1138.4579333333331,
      "v": 62
    },
    {
      "midi": 52,
      "hit": false,
      "t": 14538.415499999997,
      "d": 1561.5335166666664,
      "v": 62
    },
    {
      "midi": 64,
      "hit": false,
      "t": 16615.332,
      "d": 611.5365249999995,
      "v": 64
    },
    {
      "midi": 68,
      "hit": false,
      "t": 16615.332,
      "d": 648.074870833334,
      "v": 68
    },
    {
      "midi": 52,
      "hit": false,
      "t": 16615.332,
      "d": 707.6900666666661,
      "v": 93
    },
    {
      "midi": 59,
      "hit": false,
      "t": 16615.332,
      "d": 788.4590416666651,
      "v": 60
    },
    {
      "midi": 63,
      "hit": false,
      "t": 17538.405999999995,
      "d": 513.4599124999986,
      "v": 80
    },
    {
      "midi": 66,
      "hit": false,
      "t": 17538.405999999995,
      "d": 515.382983333333,
      "v": 72
    },
    {
      "midi": 59,
      "hit": false,
      "t": 17538.405999999995,
      "d": 549.9982583333331,
      "v": 76
    },
    {
      "midi": 64,
      "hit": false,
      "t": 18230.711499999994,
      "d": 1355.7649375,
      "v": 64
    },
    {
      "midi": 61,
      "hit": false,
      "t": 18230.711499999994,
      "d": 1388.4571416666658,
      "v": 72
    },
    {
      "midi": 57,
      "hit": false,
      "t": 18230.711499999994,
      "d": 1396.1494249999996,
      "v": 76
    },
    {
      "midi": 56,
      "hit": false,
      "t": 20307.627999999993,
      "d": 705.7669958333317,
      "v": 80
    },
    {
      "midi": 64,
      "hit": false,
      "t": 20307.627999999993,
      "d": 711.5362083333312,
      "v": 89
    },
    {
      "midi": 59,
      "hit": false,
      "t": 20307.627999999993,
      "d": 790.3821124999995,
      "v": 93
    },
    {
      "midi": 47,
      "hit": false,
      "t": 21230.701999999994,
      "d": 528.8444791666661,
      "v": 89
    },
    {
      "midi": 63,
      "hit": false,
      "t": 21230.701999999994,
      "d": 632.6903041666665,
      "v": 76
    },
    {
      "midi": 61,
      "hit": false,
      "t": 21923.007499999992,
      "d": 1373.0725749999983,
      "v": 89
    },
    {
      "midi": 57,
      "hit": false,
      "t": 21923.007499999992,
      "d": 1388.4571416666658,
      "v": 85
    },
    {
      "midi": 40,
      "hit": false,
      "t": 23999.92399999999,
      "d": 273.0760583333322,
      "v": 102
    },
    {
      "midi": 64,
      "hit": false,
      "t": 24230.69249999999,
      "d": 423.0755833333351,
      "v": 107
    },
    {
      "midi": 68,
      "hit": false,
      "t": 24230.69249999999,
      "d": 448.0755041666671,
      "v": 98
    },
    {
      "midi": 59,
      "hit": false,
      "t": 24230.69249999999,
      "d": 461.53700000000026,
      "v": 93
    },
    {
      "midi": 66,
      "hit": false,
      "t": 24922.99799999999,
      "d": 503.84455833333413,
      "v": 76
    },
    {
      "midi": 63,
      "hit": false,
      "t": 24922.99799999999,
      "d": 519.2291250000017,
      "v": 89
    },
    {
      "midi": 59,
      "hit": false,
      "t": 24922.99799999999,
      "d": 530.7675500000005,
      "v": 85
    },
    {
      "midi": 57,
      "hit": false,
      "t": 25615.30349999999,
      "d": 1513.4567458333331,
      "v": 89
    },
    {
      "midi": 61,
      "hit": false,
      "t": 25615.30349999999,
      "d": 1517.3028874999982,
      "v": 76
    },
    {
      "midi": 64,
      "hit": false,
      "t": 25615.30349999999,
      "d": 1557.6873749999977,
      "v": 93
    },
    {
      "midi": 40,
      "hit": false,
      "t": 27692.21999999999,
      "d": 246.15306666666584,
      "v": 93
    },
    {
      "midi": 64,
      "hit": false,
      "t": 27922.98849999999,
      "d": 353.84503333333487,
      "v": 93
    },
    {
      "midi": 68,
      "hit": false,
      "t": 27922.98849999999,
      "d": 361.53731666666863,
      "v": 89
    },
    {
      "midi": 59,
      "hit": false,
      "t": 27922.98849999999,
      "d": 386.53723750000063,
      "v": 80
    },
    {
      "midi": 66,
      "hit": false,
      "t": 28615.29399999999,
      "d": 548.0751874999987,
      "v": 76
    },
    {
      "midi": 59,
      "hit": false,
      "t": 28615.29399999999,
      "d": 549.9982583333331,
      "v": 89
    },
    {
      "midi": 63,
      "hit": false,
      "t": 28615.29399999999,
      "d": 553.8443999999981,
      "v": 93
    },
    {
      "midi": 57,
      "hit": false,
      "t": 29307.59949999999,
      "d": 1601.918004166666,
      "v": 80
    },
    {
      "midi": 61,
      "hit": false,
      "t": 29307.59949999999,
      "d": 1611.533358333334,
      "v": 76
    },
    {
      "midi": 64,
      "hit": false,
      "t": 29307.59949999999,
      "d": 1632.687137500001,
      "v": 76
    },
    {
      "midi": 68,
      "hit": false,
      "t": 31384.51599999999,
      "d": 599.9981000000007,
      "v": 85
    },
    {
      "midi": 64,
      "hit": false,
      "t": 31384.51599999999,
      "d": 628.8441625000014,
      "v": 76
    },
    {
      "midi": 59,
      "hit": false,
      "t": 31384.51599999999,
      "d": 703.843925000001,
      "v": 80
    },
    {
      "midi": 52,
      "hit": false,
      "t": 31384.51599999999,
      "d": 715.3823499999999,
      "v": 89
    },
    {
      "midi": 63,
      "hit": false,
      "t": 32307.58999999999,
      "d": 471.1523541666684,
      "v": 89
    },
    {
      "midi": 66,
      "hit": false,
      "t": 32307.58999999999,
      "d": 474.9984958333371,
      "v": 85
    },
    {
      "midi": 59,
      "hit": false,
      "t": 32307.58999999999,
      "d": 530.7675500000041,
      "v": 85
    },
    {
      "midi": 61,
      "hit": false,
      "t": 32999.89549999999,
      "d": 1280.7651750000005,
      "v": 80
    },
    {
      "midi": 64,
      "hit": false,
      "t": 32999.89549999999,
      "d": 1305.7650958333325,
      "v": 89
    },
    {
      "midi": 57,
      "hit": false,
      "t": 32999.89549999999,
      "d": 1315.380449999997,
      "v": 85
    },
    {
      "midi": 62,
      "hit": false,
      "t": 34384.50649999999,
      "d": 111.5381083333341,
      "v": 76
    },
    {
      "midi": 59,
      "hit": false,
      "t": 34384.50649999999,
      "d": 323.0758999999962,
      "v": 107
    },
    {
      "midi": 64,
      "hit": false,
      "t": 34384.50649999999,
      "d": 448.07550416666345,
      "v": 89
    },
    {
      "midi": 57,
      "hit": false,
      "t": 34615.27499999999,
      "d": 217.30700416666514,
      "v": 80
    },
    {
      "midi": 56,
      "hit": false,
      "t": 35076.81199999998,
      "d": 440.3832208333333,
      "v": 60
    },
    {
      "midi": 59,
      "hit": false,
      "t": 35076.81199999998,
      "d": 459.61392916666955,
      "v": 72
    },
    {
      "midi": 52,
      "hit": false,
      "t": 35076.81199999998,
      "d": 761.5360500000024,
      "v": 102
    },
    {
      "midi": 47,
      "hit": false,
      "t": 35999.885999999984,
      "d": 490.3830624999973,
      "v": 80
    },
    {
      "midi": 63,
      "hit": false,
      "t": 35999.885999999984,
      "d": 513.459912499995,
      "v": 89
    },
    {
      "midi": 59,
      "hit": false,
      "t": 35999.885999999984,
      "d": 567.3058958333277,
      "v": 76
    },
    {
      "midi": 61,
      "hit": false,
      "t": 36692.19149999998,
      "d": 1363.4572208333338,
      "v": 80
    },
    {
      "midi": 64,
      "hit": false,
      "t": 36692.19149999998,
      "d": 1371.149504166664,
      "v": 72
    },
    {
      "midi": 57,
      "hit": false,
      "t": 36692.19149999998,
      "d": 1396.149424999996,
      "v": 85
    },
    {
      "midi": 45,
      "hit": false,
      "t": 36692.19149999998,
      "d": 1421.149345833328,
      "v": 93
    },
    {
      "midi": 40,
      "hit": false,
      "t": 38769.10799999997,
      "d": 273.0760583333322,
      "v": 93
    },
    {
      "midi": 56,
      "hit": false,
      "t": 38769.10799999997,
      "d": 328.84511249999923,
      "v": 72
    },
    {
      "midi": 59,
      "hit": false,
      "t": 38769.10799999997,
      "d": 334.6143250000023,
      "v": 98
    },
    {
      "midi": 64,
      "hit": false,
      "t": 38769.10799999997,
      "d": 340.38353750000533,
      "v": 89
    },
    {
      "midi": 66,
      "hit": false,
      "t": 39692.18199999998,
      "d": 421.1525124999971,
      "v": 93
    },
    {
      "midi": 63,
      "hit": false,
      "t": 39692.18199999998,
      "d": 426.92172500000015,
      "v": 93
    },
    {
      "midi": 59,
      "hit": false,
      "t": 39692.18199999998,
      "d": 444.229362500002,
      "v": 80
    },
    {
      "midi": 47,
      "hit": false,
      "t": 39692.18199999998,
      "d": 478.8446374999985,
      "v": 89
    },
    {
      "midi": 61,
      "hit": false,
      "t": 40384.487499999974,
      "d": 157.69180833333667,
      "v": 98
    },
    {
      "midi": 64,
      "hit": false,
      "t": 40384.487499999974,
      "d": 161.53795000000537,
      "v": 98
    },
    {
      "midi": 57,
      "hit": false,
      "t": 40384.487499999974,
      "d": 173.0763750000042,
      "v": 85
    },
    {
      "midi": 57,
      "hit": false,
      "t": 40846.02449999998,
      "d": 71.15362083333457,
      "v": 102
    },
    {
      "midi": 61,
      "hit": false,
      "t": 40846.02449999998,
      "d": 86.5381875000021,
      "v": 107
    },
    {
      "midi": 64,
      "hit": false,
      "t": 40846.02449999998,
      "d": 88.46125833333645,
      "v": 107
    },
    {
      "midi": 59,
      "hit": false,
      "t": 41307.56149999998,
      "d": 615.3826666666719,
      "v": 102
    },
    {
      "midi": 56,
      "hit": false,
      "t": 41307.56149999998,
      "d": 636.5364458333352,
      "v": 89
    },
    {
      "midi": 64,
      "hit": false,
      "t": 41307.56149999998,
      "d": 655.7671541666714,
      "v": 102
    },
    {
      "midi": 64,
      "hit": false,
      "t": 42461.40399999999,
      "d": 642.3056583333309,
      "v": 93
    },
    {
      "midi": 61,
      "hit": false,
      "t": 42461.40399999999,
      "d": 673.074791666666,
      "v": 98
    },
    {
      "midi": 57,
      "hit": false,
      "t": 42461.40399999999,
      "d": 676.9209333333347,
      "v": 93
    },
    {
      "midi": 59,
      "hit": false,
      "t": 44076.78349999999,
      "d": 92.30739999999787,
      "v": 98
    },
    {
      "midi": 56,
      "hit": false,
      "t": 44076.78349999999,
      "d": 113.46117916666117,
      "v": 89
    },
    {
      "midi": 64,
      "hit": false,
      "t": 44076.78349999999,
      "d": 113.46117916666117,
      "v": 98
    },
    {
      "midi": 52,
      "hit": false,
      "t": 44076.78349999999,
      "d": 646.1517999999996,
      "v": 89
    },
    {
      "midi": 64,
      "hit": false,
      "t": 44769.08899999999,
      "d": 49.999841666664,
      "v": 68
    },
    {
      "midi": 59,
      "hit": false,
      "t": 44769.08899999999,
      "d": 76.92283333333035,
      "v": 89
    },
    {
      "midi": 56,
      "hit": false,
      "t": 44769.08899999999,
      "d": 82.6920458333334,
      "v": 64
    },
    {
      "midi": 52,
      "hit": false,
      "t": 44999.85749999999,
      "d": 78.8459041666647,
      "v": 93
    },
    {
      "midi": 59,
      "hit": false,
      "t": 45461.39449999999,
      "d": 92.30740000000515,
      "v": 93
    },
    {
      "midi": 56,
      "hit": false,
      "t": 45461.39449999999,
      "d": 94.2304708333395,
      "v": 85
    },
    {
      "midi": 64,
      "hit": false,
      "t": 45461.39449999999,
      "d": 113.46117916667572,
      "v": 93
    },
    {
      "midi": 52,
      "hit": false,
      "t": 45692.16299999999,
      "d": 159.61487916666374,
      "v": 89
    },
    {
      "midi": 59,
      "hit": false,
      "t": 45922.93149999999,
      "d": 101.92275416666234,
      "v": 85
    },
    {
      "midi": 56,
      "hit": false,
      "t": 45922.93149999999,
      "d": 105.76889583333104,
      "v": 72
    },
    {
      "midi": 64,
      "hit": false,
      "t": 45922.93149999999,
      "d": 105.76889583333104,
      "v": 64
    },
    {
      "midi": 59,
      "hit": false,
      "t": 46153.69999999999,
      "d": 269.2299166666635,
      "v": 102
    },
    {
      "midi": 56,
      "hit": false,
      "t": 46153.69999999999,
      "d": 273.0760583333322,
      "v": 89
    },
    {
      "midi": 64,
      "hit": false,
      "t": 46153.69999999999,
      "d": 296.15290833332983,
      "v": 93
    },
    {
      "midi": 66,
      "hit": false,
      "t": 47076.77399999998,
      "d": 330.7681833333336,
      "v": 93
    },
    {
      "midi": 63,
      "hit": false,
      "t": 47076.77399999998,
      "d": 336.53739583333663,
      "v": 98
    },
    {
      "midi": 59,
      "hit": false,
      "t": 47076.77399999998,
      "d": 338.460466666671,
      "v": 93
    },
    {
      "midi": 57,
      "hit": false,
      "t": 47769.079499999985,
      "d": 451.92164583333215,
      "v": 85
    },
    {
      "midi": 64,
      "hit": false,
      "t": 47769.079499999985,
      "d": 461.5369999999966,
      "v": 102
    },
    {
      "midi": 61,
      "hit": false,
      "t": 47769.079499999985,
      "d": 474.9984958333298,
      "v": 93
    },
    {
      "midi": 59,
      "hit": false,
      "t": 48692.15349999998,
      "d": 598.0750291666627,
      "v": 93
    },
    {
      "midi": 56,
      "hit": false,
      "t": 48692.15349999998,
      "d": 638.4595166666622,
      "v": 89
    },
    {
      "midi": 64,
      "hit": false,
      "t": 48692.15349999998,
      "d": 703.8439249999938,
      "v": 102
    },
    {
      "midi": 61,
      "hit": false,
      "t": 49845.99599999998,
      "d": 586.5366041666639,
      "v": 89
    },
    {
      "midi": 57,
      "hit": false,
      "t": 49845.99599999998,
      "d": 594.228887499994,
      "v": 76
    },
    {
      "midi": 52,
      "hit": false,
      "t": 49845.99599999998,
      "d": 690.3824291666606,
      "v": 80
    },
    {
      "midi": 61,
      "hit": false,
      "t": 50538.30149999997,
      "d": 69.23055000000022,
      "v": 107
    },
    {
      "midi": 57,
      "hit": false,
      "t": 50538.30149999997,
      "d": 74.99976250000327,
      "v": 98
    },
    {
      "midi": 64,
      "hit": false,
      "t": 50538.30149999997,
      "d": 98.07661250000092,
      "v": 107
    },
    {
      "midi": 57,
      "hit": false,
      "t": 50999.838499999976,
      "d": 94.23047083333222,
      "v": 102
    },
    {
      "midi": 64,
      "hit": false,
      "t": 50999.838499999976,
      "d": 144.23031249999622,
      "v": 113
    },
    {
      "midi": 61,
      "hit": false,
      "t": 50999.838499999976,
      "d": 148.07645416666492,
      "v": 102
    },
    {
      "midi": 56,
      "hit": false,
      "t": 51461.37549999997,
      "d": 821.1512458333309,
      "v": 85
    },
    {
      "midi": 59,
      "hit": false,
      "t": 51461.37549999997,
      "d": 882.689512500001,
      "v": 93
    },
    {
      "midi": 64,
      "hit": false,
      "t": 51461.37549999997,
      "d": 967.3046291666687,
      "v": 98
    },
    {
      "midi": 56,
      "hit": false,
      "t": 60922.88399999998,
      "d": 517.3060541666637,
      "v": 68
    },
    {
      "midi": 59,
      "hit": false,
      "t": 60922.88399999998,
      "d": 546.1521166666644,
      "v": 80
    },
    {
      "midi": 40,
      "hit": false,
      "t": 60922.88399999998,
      "d": 863.4588041666648,
      "v": 89
    },
    {
      "midi": 59,
      "hit": false,
      "t": 61845.95799999998,
      "d": 578.8443208333338,
      "v": 56
    },
    {
      "midi": 63,
      "hit": false,
      "t": 61845.95799999998,
      "d": 580.7673916666681,
      "v": 72
    },
    {
      "midi": 57,
      "hit": false,
      "t": 62538.26349999998,
      "d": 1557.6873750000013,
      "v": 57
    },
    {
      "midi": 61,
      "hit": false,
      "t": 62538.26349999998,
      "d": 1559.6104458333357,
      "v": 62
    },
    {
      "midi": 52,
      "hit": false,
      "t": 62538.26349999998,
      "d": 1696.1484750000018,
      "v": 60
    },
    {
      "midi": 56,
      "hit": false,
      "t": 64615.17999999998,
      "d": 528.8444791666698,
      "v": 64
    },
    {
      "midi": 64,
      "hit": false,
      "t": 64615.17999999998,
      "d": 546.1521166666716,
      "v": 64
    },
    {
      "midi": 52,
      "hit": false,
      "t": 64615.17999999998,
      "d": 774.9975458333356,
      "v": 76
    },
    {
      "midi": 59,
      "hit": false,
      "t": 64615.17999999998,
      "d": 796.1513249999989,
      "v": 76
    },
    {
      "midi": 47,
      "hit": false,
      "t": 65538.25399999997,
      "d": 567.3058958333277,
      "v": 72
    },
    {
      "midi": 63,
      "hit": false,
      "t": 65538.25399999997,
      "d": 651.9210124999954,
      "v": 80
    },
    {
      "midi": 61,
      "hit": false,
      "t": 66230.55949999997,
      "d": 1124.9964374999981,
      "v": 64
    },
    {
      "midi": 57,
      "hit": false,
      "t": 66230.55949999997,
      "d": 1138.4579333333386,
      "v": 62
    },
    {
      "midi": 52,
      "hit": false,
      "t": 66230.55949999997,
      "d": 1561.5335166666773,
      "v": 62
    },
    {
      "midi": 64,
      "hit": false,
      "t": 68307.47599999998,
      "d": 611.5365250000032,
      "v": 64
    },
    {
      "midi": 68,
      "hit": false,
      "t": 68307.47599999998,
      "d": 648.0748708333413,
      "v": 68
    },
    {
      "midi": 52,
      "hit": false,
      "t": 68307.47599999998,
      "d": 707.690066666677,
      "v": 93
    },
    {
      "midi": 59,
      "hit": false,
      "t": 68307.47599999998,
      "d": 788.4590416666761,
      "v": 60
    },
    {
      "midi": 63,
      "hit": false,
      "t": 69230.54999999999,
      "d": 513.459912499995,
      "v": 80
    },
    {
      "midi": 66,
      "hit": false,
      "t": 69230.54999999999,
      "d": 515.3829833333293,
      "v": 72
    },
    {
      "midi": 59,
      "hit": false,
      "t": 69230.54999999999,
      "d": 549.9982583333331,
      "v": 76
    },
    {
      "midi": 64,
      "hit": false,
      "t": 69922.85549999999,
      "d": 1355.7649375000037,
      "v": 64
    },
    {
      "midi": 61,
      "hit": false,
      "t": 69922.85549999999,
      "d": 1388.4571416666731,
      "v": 72
    },
    {
      "midi": 57,
      "hit": false,
      "t": 69922.85549999999,
      "d": 1396.1494250000105,
      "v": 76
    },
    {
      "midi": 56,
      "hit": false,
      "t": 71999.772,
      "d": 705.7669958333281,
      "v": 80
    },
    {
      "midi": 64,
      "hit": false,
      "t": 71999.772,
      "d": 711.5362083333312,
      "v": 89
    },
    {
      "midi": 59,
      "hit": false,
      "t": 71999.772,
      "d": 790.3821124999959,
      "v": 93
    },
    {
      "midi": 47,
      "hit": false,
      "t": 72922.84599999999,
      "d": 528.8444791666698,
      "v": 89
    },
    {
      "midi": 63,
      "hit": false,
      "t": 72922.84599999999,
      "d": 632.6903041666665,
      "v": 76
    },
    {
      "midi": 61,
      "hit": false,
      "t": 73615.15149999999,
      "d": 1373.0725749999983,
      "v": 89
    },
    {
      "midi": 57,
      "hit": false,
      "t": 73615.15149999999,
      "d": 1388.4571416666586,
      "v": 85
    },
    {
      "midi": 40,
      "hit": false,
      "t": 75692.06799999998,
      "d": 273.0760583333322,
      "v": 102
    },
    {
      "midi": 64,
      "hit": false,
      "t": 75922.83649999999,
      "d": 423.0755833333242,
      "v": 107
    },
    {
      "midi": 68,
      "hit": false,
      "t": 75922.83649999999,
      "d": 448.0755041666562,
      "v": 98
    },
    {
      "midi": 59,
      "hit": false,
      "t": 75922.83649999999,
      "d": 461.5369999999966,
      "v": 93
    },
    {
      "midi": 66,
      "hit": false,
      "t": 76615.14199999999,
      "d": 503.8445583333378,
      "v": 76
    },
    {
      "midi": 63,
      "hit": false,
      "t": 76615.14199999999,
      "d": 519.229124999998,
      "v": 89
    },
    {
      "midi": 59,
      "hit": false,
      "t": 76615.14199999999,
      "d": 530.7675500000041,
      "v": 85
    },
    {
      "midi": 57,
      "hit": false,
      "t": 77307.4475,
      "d": 1513.4567458333331,
      "v": 89
    },
    {
      "midi": 61,
      "hit": false,
      "t": 77307.4475,
      "d": 1517.3028875000018,
      "v": 76
    },
    {
      "midi": 64,
      "hit": false,
      "t": 77307.4475,
      "d": 1557.6873750000086,
      "v": 93
    },
    {
      "midi": 40,
      "hit": false,
      "t": 79384.364,
      "d": 246.15306666666584,
      "v": 93
    },
    {
      "midi": 64,
      "hit": false,
      "t": 79615.1325,
      "d": 353.84503333333123,
      "v": 93
    },
    {
      "midi": 68,
      "hit": false,
      "t": 79615.1325,
      "d": 361.53731666666863,
      "v": 89
    },
    {
      "midi": 59,
      "hit": false,
      "t": 79615.1325,
      "d": 386.53723750000063,
      "v": 80
    },
    {
      "midi": 66,
      "hit": false,
      "t": 80307.43800000001,
      "d": 548.0751874999987,
      "v": 76
    },
    {
      "midi": 59,
      "hit": false,
      "t": 80307.43800000001,
      "d": 549.9982583333331,
      "v": 89
    },
    {
      "midi": 63,
      "hit": false,
      "t": 80307.43800000001,
      "d": 553.8444000000018,
      "v": 93
    },
    {
      "midi": 57,
      "hit": false,
      "t": 80999.74350000001,
      "d": 1601.9180041666696,
      "v": 80
    },
    {
      "midi": 61,
      "hit": false,
      "t": 80999.74350000001,
      "d": 1611.5333583333413,
      "v": 76
    },
    {
      "midi": 64,
      "hit": false,
      "t": 80999.74350000001,
      "d": 1632.6871375000046,
      "v": 76
    },
    {
      "midi": 68,
      "hit": false,
      "t": 83076.66000000002,
      "d": 599.9980999999971,
      "v": 85
    },
    {
      "midi": 64,
      "hit": false,
      "t": 83076.66000000002,
      "d": 628.8441624999978,
      "v": 76
    },
    {
      "midi": 59,
      "hit": false,
      "t": 83076.66000000002,
      "d": 703.8439249999938,
      "v": 80
    },
    {
      "midi": 52,
      "hit": false,
      "t": 83076.66000000002,
      "d": 715.3823499999999,
      "v": 89
    },
    {
      "midi": 63,
      "hit": false,
      "t": 83999.73400000001,
      "d": 471.1523541666684,
      "v": 89
    },
    {
      "midi": 66,
      "hit": false,
      "t": 83999.73400000001,
      "d": 474.9984958333371,
      "v": 85
    },
    {
      "midi": 59,
      "hit": false,
      "t": 83999.73400000001,
      "d": 530.7675500000041,
      "v": 85
    },
    {
      "midi": 61,
      "hit": false,
      "t": 84692.03950000001,
      "d": 1280.7651749999932,
      "v": 80
    },
    {
      "midi": 64,
      "hit": false,
      "t": 84692.03950000001,
      "d": 1305.7650958333252,
      "v": 89
    },
    {
      "midi": 57,
      "hit": false,
      "t": 84692.03950000001,
      "d": 1315.380449999997,
      "v": 85
    },
    {
      "midi": 62,
      "hit": false,
      "t": 86076.6505,
      "d": 111.5381083333341,
      "v": 76
    },
    {
      "midi": 59,
      "hit": false,
      "t": 86076.6505,
      "d": 323.07590000001073,
      "v": 107
    },
    {
      "midi": 64,
      "hit": false,
      "t": 86076.6505,
      "d": 448.0755041666707,
      "v": 89
    },
    {
      "midi": 57,
      "hit": false,
      "t": 86307.41900000001,
      "d": 217.30700416666514,
      "v": 80
    },
    {
      "midi": 56,
      "hit": false,
      "t": 86768.956,
      "d": 440.3832208333333,
      "v": 60
    },
    {
      "midi": 59,
      "hit": false,
      "t": 86768.956,
      "d": 459.6139291666623,
      "v": 72
    },
    {
      "midi": 52,
      "hit": false,
      "t": 86768.956,
      "d": 761.5360499999952,
      "v": 102
    },
    {
      "midi": 47,
      "hit": false,
      "t": 87692.03,
      "d": 490.3830624999973,
      "v": 80
    },
    {
      "midi": 63,
      "hit": false,
      "t": 87692.03,
      "d": 513.459912499995,
      "v": 89
    },
    {
      "midi": 59,
      "hit": false,
      "t": 87692.03,
      "d": 567.3058958333277,
      "v": 76
    },
    {
      "midi": 61,
      "hit": false,
      "t": 88384.33549999999,
      "d": 1363.4572208333266,
      "v": 80
    },
    {
      "midi": 64,
      "hit": false,
      "t": 88384.33549999999,
      "d": 1371.149504166664,
      "v": 72
    },
    {
      "midi": 57,
      "hit": false,
      "t": 88384.33549999999,
      "d": 1396.149424999996,
      "v": 85
    },
    {
      "midi": 45,
      "hit": false,
      "t": 88384.33549999999,
      "d": 1421.149345833328,
      "v": 93
    },
    {
      "midi": 59,
      "hit": false,
      "t": 90461.25199999998,
      "d": 601.9211708333314,
      "v": 93
    },
    {
      "midi": 63,
      "hit": false,
      "t": 90461.25199999998,
      "d": 611.5365250000032,
      "v": 89
    },
    {
      "midi": 66,
      "hit": false,
      "t": 90461.25199999998,
      "d": 615.3826666666719,
      "v": 93
    },
    {
      "midi": 47,
      "hit": false,
      "t": 90461.25199999998,
      "d": 1026.9198250000045,
      "v": 107
    },
    {
      "midi": 59,
      "hit": false,
      "t": 91153.55749999998,
      "d": 530.7675499999896,
      "v": 93
    },
    {
      "midi": 66,
      "hit": false,
      "t": 91153.55749999998,
      "d": 669.22864999999,
      "v": 85
    },
    {
      "midi": 63,
      "hit": false,
      "t": 91153.55749999998,
      "d": 674.9978624999931,
      "v": 89
    },
    {
      "midi": 47,
      "hit": false,
      "t": 91615.09449999998,
      "d": 255.76842083332303,
      "v": 107
    },
    {
      "midi": 59,
      "hit": false,
      "t": 91845.86299999997,
      "d": 142.30724166666914,
      "v": 107
    },
    {
      "midi": 61,
      "hit": false,
      "t": 92307.39999999997,
      "d": 419.22944166667,
      "v": 93
    },
    {
      "midi": 57,
      "hit": false,
      "t": 92307.39999999997,
      "d": 423.0755833333387,
      "v": 93
    },
    {
      "midi": 64,
      "hit": false,
      "t": 92307.39999999997,
      "d": 426.9217250000074,
      "v": 98
    },
    {
      "midi": 45,
      "hit": false,
      "t": 92307.39999999997,
      "d": 1503.841391666676,
      "v": 98
    },
    {
      "midi": 52,
      "hit": false,
      "t": 92307.39999999997,
      "d": 1524.9951708333392,
      "v": 85
    },
    {
      "midi": 61,
      "hit": false,
      "t": 92999.70549999997,
      "d": 138.46110000000044,
      "v": 107
    },
    {
      "midi": 57,
      "hit": false,
      "t": 92999.70549999997,
      "d": 190.3840124999988,
      "v": 93
    },
    {
      "midi": 64,
      "hit": false,
      "t": 92999.70549999997,
      "d": 251.9222791666689,
      "v": 107
    },
    {
      "midi": 64,
      "hit": false,
      "t": 93461.24249999996,
      "d": 201.9224375000049,
      "v": 107
    },
    {
      "midi": 59,
      "hit": false,
      "t": 93461.24249999996,
      "d": 221.15314583333384,
      "v": 107
    },
    {
      "midi": 57,
      "hit": false,
      "t": 93692.01099999997,
      "d": 115.3842500000028,
      "v": 107
    },
    {
      "midi": 52,
      "hit": false,
      "t": 94615.08499999996,
      "d": 161.5379499999981,
      "v": 107
    },
    {
      "midi": 59,
      "hit": false,
      "t": 94615.08499999996,
      "d": 169.2302333333355,
      "v": 107
    },
    {
      "midi": 56,
      "hit": false,
      "t": 94615.08499999996,
      "d": 176.9225166666729,
      "v": 102
    },
    {
      "midi": 64,
      "hit": false,
      "t": 94615.08499999996,
      "d": 194.2301541666675,
      "v": 107
    },
    {
      "midi": 63,
      "hit": false,
      "t": 95307.39049999996,
      "d": 271.15298749999783,
      "v": 102
    },
    {
      "midi": 66,
      "hit": false,
      "t": 95307.39049999996,
      "d": 296.15290833332983,
      "v": 93
    },
    {
      "midi": 59,
      "hit": false,
      "t": 95307.39049999996,
      "d": 305.7682625000016,
      "v": 98
    },
    {
      "midi": 47,
      "hit": false,
      "t": 95307.39049999996,
      "d": 309.6144041666703,
      "v": 113
    },
    {
      "midi": 64,
      "hit": false,
      "t": 95999.69599999997,
      "d": 484.6138499999943,
      "v": 107
    },
    {
      "midi": 57,
      "hit": false,
      "t": 95999.69599999997,
      "d": 499.9984166666545,
      "v": 102
    },
    {
      "midi": 61,
      "hit": false,
      "t": 95999.69599999997,
      "d": 507.6906999999919,
      "v": 98
    },
    {
      "midi": 52,
      "hit": false,
      "t": 95999.69599999997,
      "d": 773.0744749999867,
      "v": 98
    },
    {
      "midi": 45,
      "hit": false,
      "t": 95999.69599999997,
      "d": 1392.3032833333273,
      "v": 102
    },
    {
      "midi": 57,
      "hit": false,
      "t": 96692.00149999995,
      "d": 63.46133750000445,
      "v": 89
    },
    {
      "midi": 61,
      "hit": false,
      "t": 96692.00149999995,
      "d": 86.5381875000021,
      "v": 98
    },
    {
      "midi": 64,
      "hit": false,
      "t": 96692.00149999995,
      "d": 86.5381875000021,
      "v": 113
    },
    {
      "midi": 52,
      "hit": false,
      "t": 97153.53849999995,
      "d": 171.15330416666984,
      "v": 93
    },
    {
      "midi": 64,
      "hit": false,
      "t": 97384.30699999996,
      "d": 80.76897499999905,
      "v": 107
    },
    {
      "midi": 69,
      "hit": false,
      "t": 97384.30699999996,
      "d": 126.92267499999434,
      "v": 107
    },
    {
      "midi": 59,
      "hit": false,
      "t": 97845.84399999995,
      "d": 601.9211708333314,
      "v": 93
    },
    {
      "midi": 63,
      "hit": false,
      "t": 97845.84399999995,
      "d": 611.5365250000032,
      "v": 89
    },
    {
      "midi": 66,
      "hit": false,
      "t": 97845.84399999995,
      "d": 615.3826666666719,
      "v": 93
    },
    {
      "midi": 47,
      "hit": false,
      "t": 97845.84399999995,
      "d": 1026.9198250000045,
      "v": 107
    },
    {
      "midi": 59,
      "hit": false,
      "t": 98538.14949999996,
      "d": 530.7675499999896,
      "v": 93
    },
    {
      "midi": 66,
      "hit": false,
      "t": 98538.14949999996,
      "d": 669.22864999999,
      "v": 85
    },
    {
      "midi": 63,
      "hit": false,
      "t": 98538.14949999996,
      "d": 674.9978624999931,
      "v": 89
    },
    {
      "midi": 47,
      "hit": false,
      "t": 98999.68649999995,
      "d": 255.76842083332303,
      "v": 107
    },
    {
      "midi": 59,
      "hit": false,
      "t": 99230.45499999994,
      "d": 142.30724166666914,
      "v": 107
    },
    {
      "midi": 61,
      "hit": false,
      "t": 99691.99199999994,
      "d": 419.22944166667,
      "v": 93
    },
    {
      "midi": 57,
      "hit": false,
      "t": 99691.99199999994,
      "d": 423.0755833333387,
      "v": 93
    },
    {
      "midi": 64,
      "hit": false,
      "t": 99691.99199999994,
      "d": 426.9217250000074,
      "v": 98
    },
    {
      "midi": 45,
      "hit": false,
      "t": 99691.99199999994,
      "d": 1503.841391666676,
      "v": 98
    },
    {
      "midi": 52,
      "hit": false,
      "t": 99691.99199999994,
      "d": 1524.9951708333392,
      "v": 85
    },
    {
      "midi": 61,
      "hit": false,
      "t": 100384.29749999994,
      "d": 138.46110000000044,
      "v": 107
    },
    {
      "midi": 57,
      "hit": false,
      "t": 100384.29749999994,
      "d": 190.3840124999988,
      "v": 93
    },
    {
      "midi": 64,
      "hit": false,
      "t": 100384.29749999994,
      "d": 251.9222791666689,
      "v": 107
    },
    {
      "midi": 64,
      "hit": false,
      "t": 100845.83449999994,
      "d": 201.9224375000049,
      "v": 107
    },
    {
      "midi": 59,
      "hit": false,
      "t": 100845.83449999994,
      "d": 221.15314583333384,
      "v": 107
    },
    {
      "midi": 57,
      "hit": false,
      "t": 101076.60299999994,
      "d": 115.3842500000028,
      "v": 107
    },
    {
      "midi": 52,
      "hit": false,
      "t": 101999.67699999994,
      "d": 161.5379499999981,
      "v": 107
    },
    {
      "midi": 59,
      "hit": false,
      "t": 101999.67699999994,
      "d": 169.2302333333355,
      "v": 107
    },
    {
      "midi": 56,
      "hit": false,
      "t": 101999.67699999994,
      "d": 176.9225166666729,
      "v": 102
    },
    {
      "midi": 64,
      "hit": false,
      "t": 101999.67699999994,
      "d": 194.2301541666675,
      "v": 107
    },
    {
      "midi": 63,
      "hit": false,
      "t": 102691.98249999994,
      "d": 271.15298749999783,
      "v": 102
    },
    {
      "midi": 66,
      "hit": false,
      "t": 102691.98249999994,
      "d": 296.15290833332983,
      "v": 93
    },
    {
      "midi": 59,
      "hit": false,
      "t": 102691.98249999994,
      "d": 305.7682625000016,
      "v": 98
    },
    {
      "midi": 47,
      "hit": false,
      "t": 102691.98249999994,
      "d": 309.6144041666703,
      "v": 113
    },
    {
      "midi": 64,
      "hit": false,
      "t": 103384.28799999994,
      "d": 484.6138499999943,
      "v": 107
    },
    {
      "midi": 57,
      "hit": false,
      "t": 103384.28799999994,
      "d": 499.9984166666545,
      "v": 102
    },
    {
      "midi": 61,
      "hit": false,
      "t": 103384.28799999994,
      "d": 507.6906999999919,
      "v": 98
    },
    {
      "midi": 52,
      "hit": false,
      "t": 103384.28799999994,
      "d": 773.0744749999867,
      "v": 98
    },
    {
      "midi": 45,
      "hit": false,
      "t": 103384.28799999994,
      "d": 1392.3032833333273,
      "v": 102
    },
    {
      "midi": 57,
      "hit": false,
      "t": 104076.59349999993,
      "d": 63.46133750000445,
      "v": 89
    },
    {
      "midi": 61,
      "hit": false,
      "t": 104076.59349999993,
      "d": 86.5381875000021,
      "v": 98
    },
    {
      "midi": 64,
      "hit": false,
      "t": 104076.59349999993,
      "d": 86.5381875000021,
      "v": 113
    },
    {
      "midi": 52,
      "hit": false,
      "t": 104538.13049999993,
      "d": 171.15330416666984,
      "v": 93
    },
    {
      "midi": 64,
      "hit": false,
      "t": 104768.89899999993,
      "d": 80.76897499999905,
      "v": 107
    },
    {
      "midi": 69,
      "hit": false,
      "t": 104768.89899999993,
      "d": 126.92267499999434,
      "v": 107
    },
    {
      "midi": 40,
      "hit": false,
      "t": 108922.73199999993,
      "d": 273.0760583333322,
      "v": 93
    },
    {
      "midi": 56,
      "hit": false,
      "t": 108922.73199999993,
      "d": 328.84511249999923,
      "v": 72
    },
    {
      "midi": 59,
      "hit": false,
      "t": 108922.73199999993,
      "d": 334.6143250000023,
      "v": 98
    },
    {
      "midi": 64,
      "hit": false,
      "t": 108922.73199999993,
      "d": 340.38353750000533,
      "v": 89
    },
    {
      "midi": 66,
      "hit": false,
      "t": 109845.80599999994,
      "d": 421.1525125000044,
      "v": 93
    },
    {
      "midi": 63,
      "hit": false,
      "t": 109845.80599999994,
      "d": 426.9217250000074,
      "v": 93
    },
    {
      "midi": 59,
      "hit": false,
      "t": 109845.80599999994,
      "d": 444.229362500002,
      "v": 80
    },
    {
      "midi": 47,
      "hit": false,
      "t": 109845.80599999994,
      "d": 478.8446375000058,
      "v": 89
    },
    {
      "midi": 61,
      "hit": false,
      "t": 110538.11149999996,
      "d": 157.6918083333294,
      "v": 98
    },
    {
      "midi": 64,
      "hit": false,
      "t": 110538.11149999996,
      "d": 161.5379499999981,
      "v": 98
    },
    {
      "midi": 57,
      "hit": false,
      "t": 110538.11149999996,
      "d": 173.0763750000042,
      "v": 85
    },
    {
      "midi": 57,
      "hit": false,
      "t": 110999.64849999997,
      "d": 71.1536208333273,
      "v": 102
    },
    {
      "midi": 61,
      "hit": false,
      "t": 110999.64849999997,
      "d": 86.53818749998754,
      "v": 107
    },
    {
      "midi": 64,
      "hit": false,
      "t": 110999.64849999997,
      "d": 88.4612583333219,
      "v": 107
    },
    {
      "midi": 59,
      "hit": false,
      "t": 111461.18549999995,
      "d": 615.3826666666573,
      "v": 102
    },
    {
      "midi": 56,
      "hit": false,
      "t": 111461.18549999995,
      "d": 636.5364458333206,
      "v": 89
    },
    {
      "midi": 64,
      "hit": false,
      "t": 111461.18549999995,
      "d": 655.7671541666496,
      "v": 102
    },
    {
      "midi": 64,
      "hit": false,
      "t": 112615.02799999993,
      "d": 642.3056583333382,
      "v": 93
    },
    {
      "midi": 61,
      "hit": false,
      "t": 112615.02799999993,
      "d": 673.0747916666733,
      "v": 98
    },
    {
      "midi": 57,
      "hit": false,
      "t": 112615.02799999993,
      "d": 676.920933333342,
      "v": 93
    },
    {
      "midi": 59,
      "hit": false,
      "t": 114230.40749999993,
      "d": 92.30740000000515,
      "v": 98
    },
    {
      "midi": 56,
      "hit": false,
      "t": 114230.40749999993,
      "d": 113.46117916666844,
      "v": 89
    },
    {
      "midi": 64,
      "hit": false,
      "t": 114230.40749999993,
      "d": 113.46117916666844,
      "v": 98
    },
    {
      "midi": 52,
      "hit": false,
      "t": 114230.40749999993,
      "d": 646.1518000000069,
      "v": 89
    },
    {
      "midi": 64,
      "hit": false,
      "t": 114922.71299999993,
      "d": 49.999841666664,
      "v": 68
    },
    {
      "midi": 59,
      "hit": false,
      "t": 114922.71299999993,
      "d": 76.92283333333035,
      "v": 89
    },
    {
      "midi": 56,
      "hit": false,
      "t": 114922.71299999993,
      "d": 82.6920458333334,
      "v": 64
    },
    {
      "midi": 52,
      "hit": false,
      "t": 115153.48149999994,
      "d": 78.8459041666647,
      "v": 93
    },
    {
      "midi": 59,
      "hit": false,
      "t": 115615.01849999995,
      "d": 92.3073999999906,
      "v": 93
    },
    {
      "midi": 56,
      "hit": false,
      "t": 115615.01849999995,
      "d": 94.23047083332494,
      "v": 85
    },
    {
      "midi": 64,
      "hit": false,
      "t": 115615.01849999995,
      "d": 113.46117916665389,
      "v": 93
    },
    {
      "midi": 52,
      "hit": false,
      "t": 115845.78699999994,
      "d": 159.61487916666374,
      "v": 89
    },
    {
      "midi": 59,
      "hit": false,
      "t": 116076.55549999993,
      "d": 101.92275416666234,
      "v": 85
    },
    {
      "midi": 56,
      "hit": false,
      "t": 116076.55549999993,
      "d": 105.76889583333104,
      "v": 72
    },
    {
      "midi": 64,
      "hit": false,
      "t": 116076.55549999993,
      "d": 105.76889583333104,
      "v": 64
    },
    {
      "midi": 59,
      "hit": false,
      "t": 116307.32399999992,
      "d": 269.2299166666635,
      "v": 102
    },
    {
      "midi": 56,
      "hit": false,
      "t": 116307.32399999992,
      "d": 273.0760583333322,
      "v": 89
    },
    {
      "midi": 64,
      "hit": false,
      "t": 116307.32399999992,
      "d": 296.15290833332983,
      "v": 93
    },
    {
      "midi": 66,
      "hit": false,
      "t": 117230.39799999993,
      "d": 330.7681833333336,
      "v": 93
    },
    {
      "midi": 63,
      "hit": false,
      "t": 117230.39799999993,
      "d": 336.53739583333663,
      "v": 98
    },
    {
      "midi": 59,
      "hit": false,
      "t": 117230.39799999993,
      "d": 338.460466666671,
      "v": 93
    },
    {
      "midi": 57,
      "hit": false,
      "t": 117922.70349999993,
      "d": 451.9216458333394,
      "v": 85
    },
    {
      "midi": 64,
      "hit": false,
      "t": 117922.70349999993,
      "d": 461.5370000000112,
      "v": 102
    },
    {
      "midi": 61,
      "hit": false,
      "t": 117922.70349999993,
      "d": 474.9984958333516,
      "v": 93
    },
    {
      "midi": 59,
      "hit": false,
      "t": 118845.77749999995,
      "d": 598.0750291666627,
      "v": 93
    },
    {
      "midi": 56,
      "hit": false,
      "t": 118845.77749999995,
      "d": 638.4595166666695,
      "v": 89
    },
    {
      "midi": 64,
      "hit": false,
      "t": 118845.77749999995,
      "d": 703.8439250000083,
      "v": 102
    },
    {
      "midi": 61,
      "hit": false,
      "t": 119999.61999999997,
      "d": 586.5366041666712,
      "v": 89
    },
    {
      "midi": 57,
      "hit": false,
      "t": 119999.61999999997,
      "d": 594.2288875000086,
      "v": 76
    },
    {
      "midi": 52,
      "hit": false,
      "t": 119999.61999999997,
      "d": 690.3824291666824,
      "v": 80
    },
    {
      "midi": 61,
      "hit": false,
      "t": 120691.92549999998,
      "d": 69.23054999999295,
      "v": 107
    },
    {
      "midi": 57,
      "hit": false,
      "t": 120691.92549999998,
      "d": 74.999762499996,
      "v": 98
    },
    {
      "midi": 64,
      "hit": false,
      "t": 120691.92549999998,
      "d": 98.07661249999364,
      "v": 107
    },
    {
      "midi": 57,
      "hit": false,
      "t": 121153.46249999998,
      "d": 94.2304708333395,
      "v": 102
    },
    {
      "midi": 64,
      "hit": false,
      "t": 121153.46249999998,
      "d": 144.2303125000035,
      "v": 113
    },
    {
      "midi": 61,
      "hit": false,
      "t": 121153.46249999998,
      "d": 148.0764541666722,
      "v": 102
    },
    {
      "midi": 56,
      "hit": false,
      "t": 121614.99949999999,
      "d": 230.7685000000056,
      "v": 85
    },
    {
      "midi": 59,
      "hit": false,
      "t": 121614.99949999999,
      "d": 230.7685000000056,
      "v": 93
    },
    {
      "midi": 64,
      "hit": false,
      "t": 121614.99949999999,
      "d": 230.7685000000056,
      "v": 98
    },
    {
      "midi": 52,
      "hit": false,
      "t": 121614.99949999999,
      "d": 782.689829166673,
      "v": 102
    },
    {
      "midi": 56,
      "hit": false,
      "t": 122076.5365,
      "d": 186.5378708333301,
      "v": 68
    },
    {
      "midi": 56,
      "hit": false,
      "t": 122307.305,
      "d": 111.5381083333341,
      "v": 72
    },
    {
      "midi": 56,
      "hit": false,
      "t": 122538.0735,
      "d": 111.5381083333341,
      "v": 76
    },
    {
      "midi": 59,
      "hit": false,
      "t": 122538.0735,
      "d": 123.0765333333402,
      "v": 98
    },
    {
      "midi": 64,
      "hit": false,
      "t": 122538.0735,
      "d": 124.99960416667454,
      "v": 89
    },
    {
      "midi": 56,
      "hit": false,
      "t": 122768.842,
      "d": 309.6144041666703,
      "v": 89
    },
    {
      "midi": 64,
      "hit": false,
      "t": 122768.842,
      "d": 336.53739583333663,
      "v": 107
    },
    {
      "midi": 59,
      "hit": false,
      "t": 122768.842,
      "d": 344.22967916667403,
      "v": 113
    },
    {
      "midi": 52,
      "hit": false,
      "t": 122999.61050000001,
      "d": 298.07597916667874,
      "v": 113
    },
    {
      "midi": 56,
      "hit": false,
      "t": 123230.37900000002,
      "d": 180.7686583333416,
      "v": 93
    },
    {
      "midi": 59,
      "hit": false,
      "t": 123230.37900000002,
      "d": 196.15322500000184,
      "v": 107
    },
    {
      "midi": 64,
      "hit": false,
      "t": 123230.37900000002,
      "d": 223.0762166666682,
      "v": 93
    },
    {
      "midi": 52,
      "hit": false,
      "t": 123461.14750000002,
      "d": 136.5380291666661,
      "v": 113
    },
    {
      "midi": 40,
      "hit": false,
      "t": 123691.91600000003,
      "d": 273.0760583333322,
      "v": 93
    },
    {
      "midi": 56,
      "hit": false,
      "t": 123691.91600000003,
      "d": 328.84511249999923,
      "v": 72
    },
    {
      "midi": 59,
      "hit": false,
      "t": 123691.91600000003,
      "d": 334.6143250000023,
      "v": 98
    },
    {
      "midi": 64,
      "hit": false,
      "t": 123691.91600000003,
      "d": 340.38353750000533,
      "v": 89
    },
    {
      "midi": 66,
      "hit": false,
      "t": 124614.99000000003,
      "d": 421.1525125000044,
      "v": 93
    },
    {
      "midi": 63,
      "hit": false,
      "t": 124614.99000000003,
      "d": 426.9217250000074,
      "v": 93
    },
    {
      "midi": 59,
      "hit": false,
      "t": 124614.99000000003,
      "d": 444.229362500002,
      "v": 80
    },
    {
      "midi": 47,
      "hit": false,
      "t": 124614.99000000003,
      "d": 478.8446375000058,
      "v": 89
    },
    {
      "midi": 61,
      "hit": false,
      "t": 125307.29550000005,
      "d": 157.6918083333294,
      "v": 98
    },
    {
      "midi": 64,
      "hit": false,
      "t": 125307.29550000005,
      "d": 161.5379499999981,
      "v": 98
    },
    {
      "midi": 57,
      "hit": false,
      "t": 125307.29550000005,
      "d": 173.0763750000042,
      "v": 85
    },
    {
      "midi": 57,
      "hit": false,
      "t": 125768.83250000006,
      "d": 71.1536208333273,
      "v": 102
    },
    {
      "midi": 61,
      "hit": false,
      "t": 125768.83250000006,
      "d": 86.53818749998754,
      "v": 107
    },
    {
      "midi": 64,
      "hit": false,
      "t": 125768.83250000006,
      "d": 88.4612583333219,
      "v": 107
    },
    {
      "midi": 59,
      "hit": false,
      "t": 126230.36950000004,
      "d": 615.3826666666573,
      "v": 102
    },
    {
      "midi": 56,
      "hit": false,
      "t": 126230.36950000004,
      "d": 636.5364458333206,
      "v": 89
    },
    {
      "midi": 64,
      "hit": false,
      "t": 126230.36950000004,
      "d": 655.7671541666496,
      "v": 102
    },
    {
      "midi": 64,
      "hit": false,
      "t": 127384.21200000003,
      "d": 642.3056583333382,
      "v": 93
    },
    {
      "midi": 61,
      "hit": false,
      "t": 127384.21200000003,
      "d": 673.0747916666733,
      "v": 98
    },
    {
      "midi": 57,
      "hit": false,
      "t": 127384.21200000003,
      "d": 676.920933333342,
      "v": 93
    },
    {
      "midi": 59,
      "hit": false,
      "t": 128999.59150000002,
      "d": 92.30740000000515,
      "v": 98
    },
    {
      "midi": 56,
      "hit": false,
      "t": 128999.59150000002,
      "d": 113.46117916666844,
      "v": 89
    },
    {
      "midi": 64,
      "hit": false,
      "t": 128999.59150000002,
      "d": 113.46117916666844,
      "v": 98
    },
    {
      "midi": 52,
      "hit": false,
      "t": 128999.59150000002,
      "d": 646.1518000000069,
      "v": 89
    },
    {
      "midi": 64,
      "hit": false,
      "t": 129691.89700000003,
      "d": 49.999841666664,
      "v": 68
    },
    {
      "midi": 59,
      "hit": false,
      "t": 129691.89700000003,
      "d": 76.92283333333035,
      "v": 89
    },
    {
      "midi": 56,
      "hit": false,
      "t": 129691.89700000003,
      "d": 82.6920458333334,
      "v": 64
    },
    {
      "midi": 52,
      "hit": false,
      "t": 129922.66550000003,
      "d": 78.8459041666647,
      "v": 93
    },
    {
      "midi": 59,
      "hit": false,
      "t": 130384.20250000004,
      "d": 92.3073999999906,
      "v": 93
    },
    {
      "midi": 56,
      "hit": false,
      "t": 130384.20250000004,
      "d": 94.23047083332494,
      "v": 85
    },
    {
      "midi": 64,
      "hit": false,
      "t": 130384.20250000004,
      "d": 113.46117916665389,
      "v": 93
    },
    {
      "midi": 52,
      "hit": false,
      "t": 130614.97100000003,
      "d": 159.61487916666374,
      "v": 89
    },
    {
      "midi": 59,
      "hit": false,
      "t": 130845.73950000003,
      "d": 101.92275416666234,
      "v": 85
    },
    {
      "midi": 56,
      "hit": false,
      "t": 130845.73950000003,
      "d": 105.76889583333104,
      "v": 72
    },
    {
      "midi": 64,
      "hit": false,
      "t": 130845.73950000003,
      "d": 105.76889583333104,
      "v": 64
    },
    {
      "midi": 59,
      "hit": false,
      "t": 131076.50800000003,
      "d": 269.2299166666926,
      "v": 102
    },
    {
      "midi": 56,
      "hit": false,
      "t": 131076.50800000003,
      "d": 273.0760583333613,
      "v": 89
    },
    {
      "midi": 64,
      "hit": false,
      "t": 131076.50800000003,
      "d": 296.1529083333735,
      "v": 93
    },
    {
      "midi": 66,
      "hit": false,
      "t": 131999.58200000008,
      "d": 330.7681833333336,
      "v": 93
    },
    {
      "midi": 63,
      "hit": false,
      "t": 131999.58200000008,
      "d": 336.5373958333221,
      "v": 98
    },
    {
      "midi": 59,
      "hit": false,
      "t": 131999.58200000008,
      "d": 338.4604666666419,
      "v": 93
    },
    {
      "midi": 57,
      "hit": false,
      "t": 132691.88750000007,
      "d": 451.9216458333249,
      "v": 85
    },
    {
      "midi": 64,
      "hit": false,
      "t": 132691.88750000007,
      "d": 461.5369999999821,
      "v": 102
    },
    {
      "midi": 61,
      "hit": false,
      "t": 132691.88750000007,
      "d": 474.99849583330797,
      "v": 93
    },
    {
      "midi": 59,
      "hit": false,
      "t": 133614.96150000003,
      "d": 598.0750291666482,
      "v": 93
    },
    {
      "midi": 56,
      "hit": false,
      "t": 133614.96150000003,
      "d": 638.459516666655,
      "v": 89
    },
    {
      "midi": 64,
      "hit": false,
      "t": 133614.96150000003,
      "d": 703.8439249999938,
      "v": 102
    },
    {
      "midi": 61,
      "hit": false,
      "t": 134768.80400000003,
      "d": 586.5366041666712,
      "v": 89
    },
    {
      "midi": 57,
      "hit": false,
      "t": 134768.80400000003,
      "d": 594.2288875000086,
      "v": 76
    },
    {
      "midi": 52,
      "hit": false,
      "t": 134768.80400000003,
      "d": 690.3824291666679,
      "v": 80
    },
    {
      "midi": 61,
      "hit": false,
      "t": 135461.10950000002,
      "d": 69.2305500000075,
      "v": 107
    },
    {
      "midi": 57,
      "hit": false,
      "t": 135461.10950000002,
      "d": 74.999762499996,
      "v": 98
    },
    {
      "midi": 64,
      "hit": false,
      "t": 135461.10950000002,
      "d": 98.0766125000082,
      "v": 107
    },
    {
      "midi": 57,
      "hit": false,
      "t": 135922.64650000003,
      "d": 94.2304708333395,
      "v": 102
    },
    {
      "midi": 64,
      "hit": false,
      "t": 135922.64650000003,
      "d": 144.2303125000035,
      "v": 113
    },
    {
      "midi": 61,
      "hit": false,
      "t": 135922.64650000003,
      "d": 148.0764541666722,
      "v": 102
    },
    {
      "midi": 56,
      "hit": false,
      "t": 136384.18350000004,
      "d": 821.1512458333455,
      "v": 85
    },
    {
      "midi": 59,
      "hit": false,
      "t": 136384.18350000004,
      "d": 882.6895125000156,
      "v": 93
    },
    {
      "midi": 64,
      "hit": false,
      "t": 136384.18350000004,
      "d": 967.3046291666687,
      "v": 98
    },
    {
      "midi": 40,
      "hit": false,
      "t": 145859.1534958334,
      "d": 1713.45611249996,
      "v": 102
    },
    {
      "midi": 64,
      "hit": false,
      "t": 145861.0765666667,
      "d": 1634.6102083333244,
      "v": 93
    },
    {
      "midi": 59,
      "hit": false,
      "t": 145864.92270833338,
      "d": 1636.5332791666442,
      "v": 80
    },
    {
      "midi": 68,
      "hit": false,
      "t": 145870.69192083337,
      "d": 1638.456349999993,
      "v": 64
    }
  ]
}