{
  "jsonPath": "Rock/French Rock/Vanessa Paradis/made-in-asia.json",
  "path": "Rock\\French Rock\\Vanessa Paradis\\Made In Asia.mid",
  "name": "Made In Asia",
  "difficulty": "Advanced",
  "bpm": 57.00008550012825,
  "notes": [
    {
      "midi": 61,
      "hit": false,
      "t": 5.482447916666667,
      "d": 789.4725,
      "v": 127
    },
    {
      "midi": 70,
      "hit": false,
      "t": 5.482447916666667,
      "d": 849.7794270833333,
      "v": 127
    },
    {
      "midi": 42,
      "hit": false,
      "t": 5.482447916666667,
      "d": 2143.6371354166668,
      "v": 103
    },
    {
      "midi": 62,
      "hit": false,
      "t": 805.9198437499999,
      "d": 531.7974479166667,
      "v": 115
    },
    {
      "midi": 71,
      "hit": false,
      "t": 805.9198437499999,
      "d": 570.1745833333334,
      "v": 92
    },
    {
      "midi": 73,
      "hit": false,
      "t": 1332.23484375,
      "d": 740.1304687500001,
      "v": 127
    },
    {
      "midi": 64,
      "hit": false,
      "t": 1337.7172916666666,
      "d": 805.9198437500002,
      "v": 92
    },
    {
      "midi": 66,
      "hit": false,
      "t": 2116.2248958333334,
      "d": 2050.435520833333,
      "v": 113
    },
    {
      "midi": 74,
      "hit": false,
      "t": 2121.7073437500003,
      "d": 2006.5759374999998,
      "v": 120
    },
    {
      "midi": 47,
      "hit": false,
      "t": 2121.7073437500003,
      "d": 2094.2951041666665,
      "v": 101
    },
    {
      "midi": 52,
      "hit": false,
      "t": 4221.484895833333,
      "d": 1699.5588541666666,
      "v": 96
    },
    {
      "midi": 74,
      "hit": false,
      "t": 4221.484895833333,
      "d": 2176.531822916667,
      "v": 113
    },
    {
      "midi": 67,
      "hit": false,
      "t": 4226.96734375,
      "d": 2127.1897916666676,
      "v": 127
    },
    {
      "midi": 52,
      "hit": false,
      "t": 6063.587395833333,
      "d": 230.2628125000001,
      "v": 92
    },
    {
      "midi": 45,
      "hit": false,
      "t": 6326.744895833333,
      "d": 1770.8306770833333,
      "v": 103
    },
    {
      "midi": 64,
      "hit": false,
      "t": 6326.744895833333,
      "d": 1984.6461458333324,
      "v": 108
    },
    {
      "midi": 73,
      "hit": false,
      "t": 6326.744895833333,
      "d": 2001.0934895833325,
      "v": 92
    },
    {
      "midi": 45,
      "hit": false,
      "t": 8168.847395833333,
      "d": 252.19260416666566,
      "v": 96
    },
    {
      "midi": 73,
      "hit": false,
      "t": 8432.004895833332,
      "d": 1118.4193749999995,
      "v": 82
    },
    {
      "midi": 64,
      "hit": false,
      "t": 8432.004895833332,
      "d": 1979.163697916667,
      "v": 92
    },
    {
      "midi": 42,
      "hit": false,
      "t": 8432.004895833332,
      "d": 2055.91796875,
      "v": 88
    },
    {
      "midi": 71,
      "hit": false,
      "t": 9490.117343749998,
      "d": 899.1214583333331,
      "v": 115
    },
    {
      "midi": 62,
      "hit": false,
      "t": 10531.782447916665,
      "d": 2160.0844791666677,
      "v": 103
    },
    {
      "midi": 43,
      "hit": false,
      "t": 10531.782447916665,
      "d": 4221.484895833333,
      "v": 108
    },
    {
      "midi": 71,
      "hit": false,
      "t": 10537.264895833332,
      "d": 1913.3743229166666,
      "v": 120
    },
    {
      "midi": 69,
      "hit": false,
      "t": 12642.524895833332,
      "d": 1737.9359895833331,
      "v": 108
    },
    {
      "midi": 61,
      "hit": false,
      "t": 12642.524895833332,
      "d": 2187.4967187499988,
      "v": 101
    },
    {
      "midi": 42,
      "hit": false,
      "t": 14753.267343749998,
      "d": 4210.52,
      "v": 113
    },
    {
      "midi": 58,
      "hit": false,
      "t": 14753.267343749998,
      "d": 4210.52,
      "v": 78
    },
    {
      "midi": 66,
      "hit": false,
      "t": 14753.267343749998,
      "d": 4210.52,
      "v": 127
    },
    {
      "midi": 47,
      "hit": false,
      "t": 18969.269791666666,
      "d": 1140.3491666666669,
      "v": 108
    },
    {
      "midi": 59,
      "hit": false,
      "t": 18969.269791666666,
      "d": 1288.3752604166657,
      "v": 127
    },
    {
      "midi": 62,
      "hit": false,
      "t": 18969.269791666666,
      "d": 1611.8396874999999,
      "v": 103
    },
    {
      "midi": 47,
      "hit": false,
      "t": 20257.64505208333,
      "d": 789.4725000000035,
      "v": 82
    },
    {
      "midi": 59,
      "hit": false,
      "t": 20515.320104166665,
      "d": 1842.1025000000009,
      "v": 127
    },
    {
      "midi": 62,
      "hit": false,
      "t": 20783.960052083334,
      "d": 1968.1988020833342,
      "v": 101
    },
    {
      "midi": 52,
      "hit": false,
      "t": 21052.600000000002,
      "d": 1162.2789583333324,
      "v": 127
    },
    {
      "midi": 52,
      "hit": false,
      "t": 22395.799739583334,
      "d": 789.4725000000035,
      "v": 92
    },
    {
      "midi": 59,
      "hit": false,
      "t": 22647.99234375,
      "d": 531.7974479166696,
      "v": 122
    },
    {
      "midi": 62,
      "hit": false,
      "t": 22916.63229166667,
      "d": 317.98197916666686,
      "v": 127
    },
    {
      "midi": 61,
      "hit": false,
      "t": 23174.307343750002,
      "d": 1606.3572395833362,
      "v": 127
    },
    {
      "midi": 45,
      "hit": false,
      "t": 23185.272239583337,
      "d": 1200.6560937499999,
      "v": 103
    },
    {
      "midi": 57,
      "hit": false,
      "t": 23437.464843750004,
      "d": 1069.0773437499993,
      "v": 78
    },
    {
      "midi": 45,
      "hit": false,
      "t": 24473.647500000003,
      "d": 1968.1988020833342,
      "v": 96
    },
    {
      "midi": 57,
      "hit": false,
      "t": 24742.28744791667,
      "d": 1825.655156249999,
      "v": 92
    },
    {
      "midi": 61,
      "hit": false,
      "t": 24994.480052083338,
      "d": 2012.0583854166616,
      "v": 96
    },
    {
      "midi": 45,
      "hit": false,
      "t": 26589.872395833336,
      "d": 833.3320833333273,
      "v": 101
    },
    {
      "midi": 57,
      "hit": false,
      "t": 26858.51234375,
      "d": 570.1745833333298,
      "v": 122
    },
    {
      "midi": 61,
      "hit": false,
      "t": 27127.152291666665,
      "d": 279.6048437499994,
      "v": 120
    },
    {
      "midi": 59,
      "hit": false,
      "t": 27379.344895833332,
      "d": 1436.4013541666645,
      "v": 108
    },
    {
      "midi": 62,
      "hit": false,
      "t": 27379.344895833332,
      "d": 1633.7694791666654,
      "v": 122
    },
    {
      "midi": 47,
      "hit": false,
      "t": 27395.79223958333,
      "d": 1151.3140625000015,
      "v": 92
    },
    {
      "midi": 47,
      "hit": false,
      "t": 28689.649947916663,
      "d": 773.0251562500016,
      "v": 92
    },
    {
      "midi": 59,
      "hit": false,
      "t": 28952.807447916664,
      "d": 1907.8918750000012,
      "v": 122
    },
    {
      "midi": 62,
      "hit": false,
      "t": 29210.4825,
      "d": 1907.8918750000012,
      "v": 103
    },
    {
      "midi": 52,
      "hit": false,
      "t": 29457.192656249998,
      "d": 1173.243854166667,
      "v": 101
    },
    {
      "midi": 52,
      "hit": false,
      "t": 30783.94505208333,
      "d": 789.4724999999999,
      "v": 108
    },
    {
      "midi": 59,
      "hit": false,
      "t": 31041.620104166665,
      "d": 537.2798958333333,
      "v": 115
    },
    {
      "midi": 62,
      "hit": false,
      "t": 31299.29515625,
      "d": 312.49953124999956,
      "v": 92
    },
    {
      "midi": 61,
      "hit": false,
      "t": 31573.41755208333,
      "d": 1672.1466145833256,
      "v": 96
    },
    {
      "midi": 45,
      "hit": false,
      "t": 31589.864895833332,
      "d": 1129.3842708333323,
      "v": 65
    },
    {
      "midi": 57,
      "hit": false,
      "t": 31589.864895833332,
      "d": 1288.375260416662,
      "v": 92
    },
    {
      "midi": 45,
      "hit": false,
      "t": 32883.72260416666,
      "d": 816.8847395833291,
      "v": 92
    },
    {
      "midi": 57,
      "hit": false,
      "t": 33141.39765624999,
      "d": 548.2447916666642,
      "v": 101
    },
    {
      "midi": 61,
      "hit": false,
      "t": 33410.03760416665,
      "d": 2357.4526041666613,
      "v": 120
    },
    {
      "midi": 58,
      "hit": false,
      "t": 33689.64244791665,
      "d": 2072.3653124999983,
      "v": 96
    },
    {
      "midi": 42,
      "hit": false,
      "t": 33689.64244791665,
      "d": 2099.777552083331,
      "v": 78
    },
    {
      "midi": 59,
      "hit": false,
      "t": 35805.86734374998,
      "d": 1326.7523958333259,
      "v": 108
    },
    {
      "midi": 62,
      "hit": false,
      "t": 35805.86734374998,
      "d": 1622.8045833333235,
      "v": 108
    },
    {
      "midi": 47,
      "hit": false,
      "t": 35811.349791666646,
      "d": 1178.7263020833343,
      "v": 78
    },
    {
      "midi": 47,
      "hit": false,
      "t": 37127.137291666644,
      "d": 778.5076041666616,
      "v": 101
    },
    {
      "midi": 59,
      "hit": false,
      "t": 37362.882552083305,
      "d": 1896.9269791666593,
      "v": 115
    },
    {
      "midi": 62,
      "hit": false,
      "t": 37631.52249999997,
      "d": 1968.1988020833232,
      "v": 113
    },
    {
      "midi": 52,
      "hit": false,
      "t": 37905.644895833306,
      "d": 1156.7965104166651,
      "v": 92
    },
    {
      "midi": 52,
      "hit": false,
      "t": 39226.91484374997,
      "d": 794.9549479166599,
      "v": 88
    },
    {
      "midi": 59,
      "hit": false,
      "t": 39501.0372395833,
      "d": 438.59583333333285,
      "v": 113
    },
    {
      "midi": 62,
      "hit": false,
      "t": 39753.22984374996,
      "d": 312.49953124998865,
      "v": 92
    },
    {
      "midi": 61,
      "hit": false,
      "t": 40021.86979166663,
      "d": 1622.8045833333163,
      "v": 101
    },
    {
      "midi": 45,
      "hit": false,
      "t": 40027.35223958329,
      "d": 1085.524687499994,
      "v": 88
    },
    {
      "midi": 57,
      "hit": false,
      "t": 40032.834687499955,
      "d": 1271.9279166666602,
      "v": 88
    },
    {
      "midi": 45,
      "hit": false,
      "t": 41299.28015624995,
      "d": 1792.7604687499916,
      "v": 108
    },
    {
      "midi": 57,
      "hit": false,
      "t": 41573.40255208328,
      "d": 2499.9962499999965,
      "v": 115
    },
    {
      "midi": 61,
      "hit": false,
      "t": 41831.07760416661,
      "d": 2412.2770833333343,
      "v": 127
    },
    {
      "midi": 45,
      "hit": false,
      "t": 43157.82999999994,
      "d": 1080.0422395833375,
      "v": 103
    },
    {
      "midi": 62,
      "hit": false,
      "t": 44215.94244791661,
      "d": 1633.7694791666654,
      "v": 108
    },
    {
      "midi": 59,
      "hit": false,
      "t": 44226.90734374995,
      "d": 1348.682187499995,
      "v": 92
    },
    {
      "midi": 47,
      "hit": false,
      "t": 44237.87223958328,
      "d": 1206.1385416666672,
      "v": 92
    },
    {
      "midi": 47,
      "hit": false,
      "t": 45542.694843749945,
      "d": 778.5076041666689,
      "v": 108
    },
    {
      "midi": 59,
      "hit": false,
      "t": 45783.92255208328,
      "d": 1951.7514583333323,
      "v": 113
    },
    {
      "midi": 62,
      "hit": false,
      "t": 46058.04494791661,
      "d": 1951.7514583333323,
      "v": 92
    },
    {
      "midi": 52,
      "hit": false,
      "t": 46326.68489583328,
      "d": 2105.2599999999948,
      "v": 115
    },
    {
      "midi": 59,
      "hit": false,
      "t": 47905.62989583328,
      "d": 460.52562500000204,
      "v": 103
    },
    {
      "midi": 62,
      "hit": false,
      "t": 48152.34005208328,
      "d": 312.49953124998865,
      "v": 92
    },
    {
      "midi": 61,
      "hit": false,
      "t": 48410.01510416661,
      "d": 1798.2429166666698,
      "v": 127
    },
    {
      "midi": 45,
      "hit": false,
      "t": 48426.46244791661,
      "d": 1211.6209895833308,
      "v": 88
    },
    {
      "midi": 57,
      "hit": false,
      "t": 48662.20770833327,
      "d": 1052.6300000000047,
      "v": 96
    },
    {
      "midi": 45,
      "hit": false,
      "t": 49764.17973958328,
      "d": 762.0602604166706,
      "v": 88
    },
    {
      "midi": 57,
      "hit": false,
      "t": 50010.88989583328,
      "d": 235.74526041666832,
      "v": 101
    },
    {
      "midi": 52,
      "hit": false,
      "t": 50509.79265624995,
      "d": 690.7884374999994,
      "v": 113
    },
    {
      "midi": 61,
      "hit": false,
      "t": 50509.79265624995,
      "d": 816.8847395833291,
      "v": 127
    },
    {
      "midi": 45,
      "hit": false,
      "t": 50526.23999999995,
      "d": 2121.7073437499857,
      "v": 92
    },
    {
      "midi": 62,
      "hit": false,
      "t": 51315.71249999995,
      "d": 597.5868229166517,
      "v": 101
    },
    {
      "midi": 53,
      "hit": false,
      "t": 51321.194947916614,
      "d": 460.52562499999476,
      "v": 113
    },
    {
      "midi": 55,
      "hit": false,
      "t": 51880.404635416606,
      "d": 745.6129166666651,
      "v": 88
    },
    {
      "midi": 64,
      "hit": false,
      "t": 51880.404635416606,
      "d": 751.0953645833288,
      "v": 96
    },
    {
      "midi": 57,
      "hit": false,
      "t": 52647.94734374993,
      "d": 1370.6119791666642,
      "v": 108
    },
    {
      "midi": 50,
      "hit": false,
      "t": 52653.4297916666,
      "d": 1167.7614062499997,
      "v": 92
    },
    {
      "midi": 65,
      "hit": false,
      "t": 52653.4297916666,
      "d": 1688.5939583333384,
      "v": 122
    },
    {
      "midi": 50,
      "hit": false,
      "t": 53941.80505208326,
      "d": 833.3320833333346,
      "v": 115
    },
    {
      "midi": 57,
      "hit": false,
      "t": 54215.9274479166,
      "d": 592.1043749999953,
      "v": 127
    },
    {
      "midi": 43,
      "hit": false,
      "t": 54753.207343749935,
      "d": 1239.0332291666564,
      "v": 108
    },
    {
      "midi": 58,
      "hit": false,
      "t": 54758.6897916666,
      "d": 1430.9189062499936,
      "v": 96
    }
  ]
}