{
  "jsonPath": "Jazz/Cool Jazz/Mel Tormé/make-someone-happy.json",
  "path": "Jazz\\Cool Jazz\\Mel Tormé\\Make Someone Happy.mid",
  "name": "Make Someone Happy",
  "difficulty": "Advanced",
  "bpm": 187.99996240000752,
  "notes": [
    {
      "midi": 74,
      "hit": false,
      "t": 337.766025,
      "d": 417.553275,
      "v": 75
    },
    {
      "midi": 46,
      "hit": false,
      "t": 340.42560000000003,
      "d": 1853.723775,
      "v": 43
    },
    {
      "midi": 52,
      "hit": false,
      "t": 845.74485,
      "d": 1723.4045999999998,
      "v": 35
    },
    {
      "midi": 61,
      "hit": false,
      "t": 1343.085375,
      "d": 896.2767749999998,
      "v": 34
    },
    {
      "midi": 55,
      "hit": false,
      "t": 1372.3407000000002,
      "d": 851.0639999999999,
      "v": 34
    },
    {
      "midi": 64,
      "hit": false,
      "t": 1375.000275,
      "d": 773.9363249999999,
      "v": 46
    },
    {
      "midi": 67,
      "hit": false,
      "t": 1917.5535750000001,
      "d": 593.0852249999996,
      "v": 38
    },
    {
      "midi": 62,
      "hit": false,
      "t": 2590.42605,
      "d": 375.0000750000004,
      "v": 33
    },
    {
      "midi": 65,
      "hit": false,
      "t": 2593.085625,
      "d": 244.6809000000003,
      "v": 43
    },
    {
      "midi": 46,
      "hit": false,
      "t": 2606.3835000000004,
      "d": 2327.128124999998,
      "v": 29
    },
    {
      "midi": 53,
      "hit": false,
      "t": 2614.3622250000003,
      "d": 2273.936624999998,
      "v": 32
    },
    {
      "midi": 74,
      "hit": false,
      "t": 3444.1496250000005,
      "d": 244.68089999999984,
      "v": 76
    },
    {
      "midi": 65,
      "hit": false,
      "t": 3468.0858000000003,
      "d": 284.574525,
      "v": 67
    },
    {
      "midi": 72,
      "hit": false,
      "t": 4231.383825,
      "d": 162.2340749999994,
      "v": 57
    },
    {
      "midi": 64,
      "hit": false,
      "t": 4250.000849999999,
      "d": 218.08514999999989,
      "v": 46
    },
    {
      "midi": 70,
      "hit": false,
      "t": 4643.617949999999,
      "d": 132.9787499999993,
      "v": 59
    },
    {
      "midi": 62,
      "hit": false,
      "t": 4662.2349749999985,
      "d": 151.59577499999978,
      "v": 49
    },
    {
      "midi": 69,
      "hit": false,
      "t": 5071.809524999998,
      "d": 273.93622499999856,
      "v": 59
    },
    {
      "midi": 46,
      "hit": false,
      "t": 5082.4478249999975,
      "d": 755.3193000000001,
      "v": 31
    },
    {
      "midi": 60,
      "hit": false,
      "t": 5085.107399999997,
      "d": 236.70217499999944,
      "v": 55
    },
    {
      "midi": 58,
      "hit": false,
      "t": 5523.937274999997,
      "d": 85.10640000000058,
      "v": 56
    },
    {
      "midi": 67,
      "hit": false,
      "t": 5523.937274999997,
      "d": 143.61705000000075,
      "v": 57
    },
    {
      "midi": 53,
      "hit": false,
      "t": 5545.213874999997,
      "d": 412.23412500000086,
      "v": 28
    },
    {
      "midi": 54,
      "hit": false,
      "t": 6106.384199999998,
      "d": 425.53200000000015,
      "v": 37
    },
    {
      "midi": 74,
      "hit": false,
      "t": 6109.043774999997,
      "d": 1856.3833499999992,
      "v": 56
    },
    {
      "midi": 66,
      "hit": false,
      "t": 6114.362924999998,
      "d": 627.6597000000002,
      "v": 44
    },
    {
      "midi": 46,
      "hit": false,
      "t": 6119.682074999998,
      "d": 1063.829999999999,
      "v": 32
    },
    {
      "midi": 62,
      "hit": false,
      "t": 6135.639524999998,
      "d": 513.2979750000004,
      "v": 34
    },
    {
      "midi": 62,
      "hit": false,
      "t": 6848.405624999998,
      "d": 242.0213249999997,
      "v": 22
    },
    {
      "midi": 62,
      "hit": false,
      "t": 7300.533374999997,
      "d": 486.702225,
      "v": 26
    },
    {
      "midi": 66,
      "hit": false,
      "t": 7313.831249999997,
      "d": 606.3830999999991,
      "v": 33
    },
    {
      "midi": 54,
      "hit": false,
      "t": 7603.724924999998,
      "d": 377.6596499999987,
      "v": 25
    },
    {
      "midi": 46,
      "hit": false,
      "t": 7672.8738749999975,
      "d": 244.68089999999938,
      "v": 14
    },
    {
      "midi": 62,
      "hit": false,
      "t": 7989.363299999996,
      "d": 170.21279999999842,
      "v": 33
    },
    {
      "midi": 67,
      "hit": false,
      "t": 7989.363299999996,
      "d": 337.7660249999981,
      "v": 42
    },
    {
      "midi": 55,
      "hit": false,
      "t": 8000.001599999996,
      "d": 531.914999999999,
      "v": 32
    },
    {
      "midi": 46,
      "hit": false,
      "t": 8002.661174999996,
      "d": 1140.9576749999997,
      "v": 19
    },
    {
      "midi": 65,
      "hit": false,
      "t": 8380.320824999995,
      "d": 164.89364999999998,
      "v": 58
    },
    {
      "midi": 74,
      "hit": false,
      "t": 8385.639974999995,
      "d": 148.9362000000001,
      "v": 62
    },
    {
      "midi": 72,
      "hit": false,
      "t": 8736.703874999996,
      "d": 199.46812499999942,
      "v": 54
    },
    {
      "midi": 63,
      "hit": false,
      "t": 8750.001749999996,
      "d": 202.1276999999991,
      "v": 47
    },
    {
      "midi": 55,
      "hit": false,
      "t": 8771.278349999995,
      "d": 510.6383999999998,
      "v": 32
    },
    {
      "midi": 70,
      "hit": false,
      "t": 9015.959249999994,
      "d": 183.51067499999954,
      "v": 62
    },
    {
      "midi": 62,
      "hit": false,
      "t": 9045.214574999995,
      "d": 103.72342500000013,
      "v": 26
    },
    {
      "midi": 46,
      "hit": false,
      "t": 9319.150799999994,
      "d": 539.8937250000035,
      "v": 27
    },
    {
      "midi": 69,
      "hit": false,
      "t": 9327.129524999995,
      "d": 247.34047500000088,
      "v": 54
    },
    {
      "midi": 60,
      "hit": false,
      "t": 9335.108249999996,
      "d": 111.70214999999916,
      "v": 34
    },
    {
      "midi": 55,
      "hit": false,
      "t": 9640.959374999995,
      "d": 119.68087500000183,
      "v": 47
    },
    {
      "midi": 67,
      "hit": false,
      "t": 9643.618949999995,
      "d": 125.000025000003,
      "v": 51
    },
    {
      "midi": 60,
      "hit": false,
      "t": 9651.597674999995,
      "d": 82.4468250000009,
      "v": 30
    },
    {
      "midi": 63,
      "hit": false,
      "t": 10250.002049999997,
      "d": 398.93624999999884,
      "v": 57
    },
    {
      "midi": 72,
      "hit": false,
      "t": 10250.002049999997,
      "d": 656.9150249999984,
      "v": 57
    },
    {
      "midi": 46,
      "hit": false,
      "t": 10268.619074999997,
      "d": 1255.3193999999967,
      "v": 48
    },
    {
      "midi": 56,
      "hit": false,
      "t": 10635.640424999996,
      "d": 593.0852249999989,
      "v": 50
    },
    {
      "midi": 60,
      "hit": false,
      "t": 11042.555399999996,
      "d": 367.0213499999991,
      "v": 61
    },
    {
      "midi": 68,
      "hit": false,
      "t": 11045.214974999995,
      "d": 492.02137499999844,
      "v": 51
    },
    {
      "midi": 63,
      "hit": false,
      "t": 11047.874549999995,
      "d": 454.7873249999993,
      "v": 46
    },
    {
      "midi": 56,
      "hit": false,
      "t": 11476.066124999994,
      "d": 114.36172500000066,
      "v": 50
    },
    {
      "midi": 63,
      "hit": false,
      "t": 11952.130049999994,
      "d": 433.5107250000001,
      "v": 64
    },
    {
      "midi": 72,
      "hit": false,
      "t": 12606.385499999995,
      "d": 289.89367499999935,
      "v": 66
    },
    {
      "midi": 70,
      "hit": false,
      "t": 13002.662174999994,
      "d": 191.4894000000004,
      "v": 65
    },
    {
      "midi": 68,
      "hit": false,
      "t": 13377.662249999994,
      "d": 228.7234499999995,
      "v": 59
    },
    {
      "midi": 67,
      "hit": false,
      "t": 14236.704974999993,
      "d": 388.2979499999983,
      "v": 44
    },
    {
      "midi": 46,
      "hit": false,
      "t": 14257.981574999993,
      "d": 497.34052500000143,
      "v": 31
    },
    {
      "midi": 60,
      "hit": false,
      "t": 14271.279449999993,
      "d": 484.04265000000123,
      "v": 34
    },
    {
      "midi": 56,
      "hit": false,
      "t": 14273.939024999992,
      "d": 359.04262500000004,
      "v": 25
    },
    {
      "midi": 63,
      "hit": false,
      "t": 14273.939024999992,
      "d": 561.170325000001,
      "v": 28
    },
    {
      "midi": 65,
      "hit": false,
      "t": 14731.385924999993,
      "d": 305.85112499999923,
      "v": 47
    },
    {
      "midi": 72,
      "hit": false,
      "t": 15441.492449999992,
      "d": 82.44682499999908,
      "v": 9
    },
    {
      "midi": 73,
      "hit": false,
      "t": 15478.726499999992,
      "d": 170.21279999999933,
      "v": 31
    },
    {
      "midi": 74,
      "hit": false,
      "t": 15545.21587499999,
      "d": 87.76597500000025,
      "v": 62
    },
    {
      "midi": 75,
      "hit": false,
      "t": 15643.620149999992,
      "d": 2428.1919750000015,
      "v": 62
    },
    {
      "midi": 63,
      "hit": false,
      "t": 15656.918024999992,
      "d": 454.7873249999993,
      "v": 35
    },
    {
      "midi": 68,
      "hit": false,
      "t": 15672.875474999992,
      "d": 393.6170999999995,
      "v": 25
    },
    {
      "midi": 57,
      "hit": false,
      "t": 15672.875474999992,
      "d": 409.57454999999936,
      "v": 39
    },
    {
      "midi": 35,
      "hit": false,
      "t": 16718.088449999992,
      "d": 58.51065000000017,
      "v": 38
    },
    {
      "midi": 34,
      "hit": false,
      "t": 18829.790999999994,
      "d": 194.14897500000006,
      "v": 38
    },
    {
      "midi": 77,
      "hit": false,
      "t": 18835.110149999993,
      "d": 1803.1918499999992,
      "v": 53
    },
    {
      "midi": 68,
      "hit": false,
      "t": 19781.918849999995,
      "d": 917.5533749999995,
      "v": 31
    },
    {
      "midi": 72,
      "hit": false,
      "t": 19811.174174999993,
      "d": 861.7023000000008,
      "v": 30
    },
    {
      "midi": 63,
      "hit": false,
      "t": 19816.493324999992,
      "d": 771.2767500000009,
      "v": 27
    },
    {
      "midi": 60,
      "hit": false,
      "t": 19835.11034999999,
      "d": 718.0852500000001,
      "v": 32
    },
    {
      "midi": 52,
      "hit": false,
      "t": 21039.897824999993,
      "d": 928.1916749999982,
      "v": 37
    },
    {
      "midi": 56,
      "hit": false,
      "t": 21159.57869999999,
      "d": 851.0640000000021,
      "v": 28
    },
    {
      "midi": 66,
      "hit": false,
      "t": 21170.21699999999,
      "d": 1797.8727000000035,
      "v": 37
    },
    {
      "midi": 62,
      "hit": false,
      "t": 21223.40849999999,
      "d": 784.5746250000011,
      "v": 38
    },
    {
      "midi": 70,
      "hit": false,
      "t": 21239.365949999992,
      "d": 1861.7024999999994,
      "v": 38
    },
    {
      "midi": 73,
      "hit": false,
      "t": 21292.557449999993,
      "d": 1747.340774999997,
      "v": 33
    },
    {
      "midi": 78,
      "hit": false,
      "t": 21337.770224999993,
      "d": 1422.872625,
      "v": 47
    },
    {
      "midi": 78,
      "hit": false,
      "t": 22997.34502499999,
      "d": 345.74475000000166,
      "v": 46
    },
    {
      "midi": 79,
      "hit": false,
      "t": 24138.302699999993,
      "d": 1005.3193500000052,
      "v": 62
    },
    {
      "midi": 51,
      "hit": false,
      "t": 24146.281424999994,
      "d": 2960.106975000006,
      "v": 42
    },
    {
      "midi": 67,
      "hit": false,
      "t": 24585.111299999997,
      "d": 478.72350000000006,
      "v": 53
    },
    {
      "midi": 71,
      "hit": false,
      "t": 24587.770875,
      "d": 398.93624999999884,
      "v": 58
    },
    {
      "midi": 59,
      "hit": false,
      "t": 24593.090024999998,
      "d": 547.8724499999989,
      "v": 43
    },
    {
      "midi": 72,
      "hit": false,
      "t": 25154.260349999997,
      "d": 1101.0640500000009,
      "v": 50
    },
    {
      "midi": 67,
      "hit": false,
      "t": 25156.919925,
      "d": 340.42559999999867,
      "v": 42
    },
    {
      "midi": 60,
      "hit": false,
      "t": 25186.175249999997,
      "d": 2117.021700000005,
      "v": 32
    },
    {
      "midi": 79,
      "hit": false,
      "t": 25832.451974999996,
      "d": 409.5745500000012,
      "v": 72
    },
    {
      "midi": 77,
      "hit": false,
      "t": 26335.11165,
      "d": 273.9362250000013,
      "v": 66
    },
    {
      "midi": 70,
      "hit": false,
      "t": 26343.090375,
      "d": 263.29792499999894,
      "v": 53
    },
    {
      "midi": 75,
      "hit": false,
      "t": 26811.175575,
      "d": 297.8724000000002,
      "v": 56
    },
    {
      "midi": 74,
      "hit": false,
      "t": 27316.494825,
      "d": 143.61705000000075,
      "v": 61
    },
    {
      "midi": 51,
      "hit": false,
      "t": 27316.494825,
      "d": 728.7235499999988,
      "v": 32
    },
    {
      "midi": 72,
      "hit": false,
      "t": 27781.92045,
      "d": 167.55322499999966,
      "v": 53
    },
    {
      "midi": 63,
      "hit": false,
      "t": 27813.83535,
      "d": 90.42554999999993,
      "v": 35
    },
    {
      "midi": 62,
      "hit": false,
      "t": 27816.494925000003,
      "d": 69.14894999999888,
      "v": 32
    },
    {
      "midi": 78,
      "hit": false,
      "t": 28287.239700000002,
      "d": 1353.723675000001,
      "v": 35
    },
    {
      "midi": 51,
      "hit": false,
      "t": 28300.537575000002,
      "d": 2327.128125000003,
      "v": 45
    },
    {
      "midi": 70,
      "hit": false,
      "t": 28319.1546,
      "d": 502.65967499999897,
      "v": 50
    },
    {
      "midi": 58,
      "hit": false,
      "t": 28675.537650000002,
      "d": 257.9787749999996,
      "v": 37
    },
    {
      "midi": 59,
      "hit": false,
      "t": 28976.069625,
      "d": 324.4681500000006,
      "v": 47
    },
    {
      "midi": 66,
      "hit": false,
      "t": 28997.346225,
      "d": 550.5320250000004,
      "v": 28
    },
    {
      "midi": 70,
      "hit": false,
      "t": 29000.005800000003,
      "d": 484.0426499999994,
      "v": 43
    },
    {
      "midi": 60,
      "hit": false,
      "t": 29335.112250000002,
      "d": 289.89367499999935,
      "v": 59
    },
    {
      "midi": 78,
      "hit": false,
      "t": 29694.154875000004,
      "d": 1510.638600000002,
      "v": 20
    },
    {
      "midi": 66,
      "hit": false,
      "t": 29704.793175000003,
      "d": 723.4044000000031,
      "v": 37
    },
    {
      "midi": 60,
      "hit": false,
      "t": 29718.091050000003,
      "d": 260.6383500000047,
      "v": 53
    },
    {
      "midi": 70,
      "hit": false,
      "t": 29720.750625000004,
      "d": 734.0427000000018,
      "v": 48
    },
    {
      "midi": 59,
      "hit": false,
      "t": 30111.708150000006,
      "d": 444.1490249999988,
      "v": 40
    },
    {
      "midi": 58,
      "hit": false,
      "t": 30569.155050000005,
      "d": 478.72350000000006,
      "v": 49
    },
    {
      "midi": 51,
      "hit": false,
      "t": 30941.495550000003,
      "d": 103.72342500000013,
      "v": 45
    },
    {
      "midi": 78,
      "hit": false,
      "t": 31409.580750000005,
      "d": 523.9362750000037,
      "v": 56
    },
    {
      "midi": 58,
      "hit": false,
      "t": 31438.836075000003,
      "d": 444.1490250000061,
      "v": 37
    },
    {
      "midi": 70,
      "hit": false,
      "t": 31438.836075000003,
      "d": 598.4043750000055,
      "v": 70
    },
    {
      "midi": 48,
      "hit": false,
      "t": 31441.495650000004,
      "d": 250.00005000000237,
      "v": 40
    },
    {
      "midi": 48,
      "hit": false,
      "t": 31835.112750000008,
      "d": 792.553350000002,
      "v": 55
    },
    {
      "midi": 77,
      "hit": false,
      "t": 32215.431975000007,
      "d": 414.8937000000042,
      "v": 66
    },
    {
      "midi": 58,
      "hit": false,
      "t": 32236.708575000008,
      "d": 582.4469250000002,
      "v": 47
    },
    {
      "midi": 75,
      "hit": false,
      "t": 32656.92142500001,
      "d": 369.68092499999693,
      "v": 59
    },
    {
      "midi": 73,
      "hit": false,
      "t": 34045.21957500001,
      "d": 1372.3406999999934,
      "v": 33
    },
    {
      "midi": 51,
      "hit": false,
      "t": 34053.19830000001,
      "d": 385.638374999995,
      "v": 38
    },
    {
      "midi": 69,
      "hit": false,
      "t": 34063.83660000001,
      "d": 1257.9789749999982,
      "v": 52
    },
    {
      "midi": 57,
      "hit": false,
      "t": 34082.45362500001,
      "d": 324.46814999999333,
      "v": 42
    },
    {
      "midi": 65,
      "hit": false,
      "t": 34085.11320000001,
      "d": 1276.5959999999977,
      "v": 36
    },
    {
      "midi": 29,
      "hit": false,
      "t": 34986.70912500001,
      "d": 101.06384999999864,
      "v": 35
    },
    {
      "midi": 57,
      "hit": false,
      "t": 36210.113625000005,
      "d": 223.40430000000924,
      "v": 46
    },
    {
      "midi": 72,
      "hit": false,
      "t": 36218.092350000006,
      "d": 353.72347500000615,
      "v": 45
    },
    {
      "midi": 63,
      "hit": false,
      "t": 36223.41150000001,
      "d": 228.72345000000496,
      "v": 33
    },
    {
      "midi": 51,
      "hit": false,
      "t": 36228.73065000001,
      "d": 542.5532999999996,
      "v": 32
    },
    {
      "midi": 68,
      "hit": false,
      "t": 36236.70937500001,
      "d": 398.93624999999884,
      "v": 35
    },
    {
      "midi": 74,
      "hit": false,
      "t": 36787.24140000001,
      "d": 707.4469499999977,
      "v": 64
    },
    {
      "midi": 65,
      "hit": false,
      "t": 36803.198850000015,
      "d": 739.3618499999939,
      "v": 74
    },
    {
      "midi": 50,
      "hit": false,
      "t": 36805.85842500001,
      "d": 598.4043749999983,
      "v": 48
    },
    {
      "midi": 58,
      "hit": false,
      "t": 36813.837150000014,
      "d": 617.0213999999978,
      "v": 30
    },
    {
      "midi": 70,
      "hit": false,
      "t": 38228.73105000001,
      "d": 893.6171999999933,
      "v": 57
    },
    {
      "midi": 26,
      "hit": false,
      "t": 38242.028925000006,
      "d": 710.1065249999956,
      "v": 46
    },
    {
      "midi": 65,
      "hit": false,
      "t": 38242.028925000006,
      "d": 718.0852499999964,
      "v": 60
    },
    {
      "midi": 38,
      "hit": false,
      "t": 38244.688500000004,
      "d": 800.5320749999955,
      "v": 36
    },
    {
      "midi": 60,
      "hit": false,
      "t": 38247.348075,
      "d": 654.2554499999969,
      "v": 55
    },
    {
      "midi": 77,
      "hit": false,
      "t": 39906.922875000004,
      "d": 973.4044499999945,
      "v": 81
    },
    {
      "midi": 69,
      "hit": false,
      "t": 39912.24202500001,
      "d": 273.93622499999765,
      "v": 72
    },
    {
      "midi": 81,
      "hit": false,
      "t": 39912.24202500001,
      "d": 957.4469999999928,
      "v": 77
    },
    {
      "midi": 72,
      "hit": false,
      "t": 39914.901600000005,
      "d": 481.3830749999979,
      "v": 80
    },
    {
      "midi": 77,
      "hit": false,
      "t": 41736.710475,
      "d": 819.1491000000024,
      "v": 45
    },
    {
      "midi": 68,
      "hit": false,
      "t": 41744.6892,
      "d": 829.7874000000011,
      "v": 26
    },
    {
      "midi": 71,
      "hit": false,
      "t": 41747.348775,
      "d": 813.8299500000066,
      "v": 43
    },
    {
      "midi": 74,
      "hit": false,
      "t": 41779.263675,
      "d": 760.6384499999986,
      "v": 36
    },
    {
      "midi": 65,
      "hit": false,
      "t": 41795.221125000004,
      "d": 484.0426499999958,
      "v": 20
    },
    {
      "midi": 55,
      "hit": false,
      "t": 41797.8807,
      "d": 523.936275,
      "v": 32
    },
    {
      "midi": 63,
      "hit": false,
      "t": 43207.45545,
      "d": 401.59582500000397,
      "v": 43
    },
    {
      "midi": 58,
      "hit": false,
      "t": 43210.115025,
      "d": 295.21282500000234,
      "v": 36
    },
    {
      "midi": 59,
      "hit": false,
      "t": 43212.7746,
      "d": 276.5958000000028,
      "v": 37
    },
    {
      "midi": 67,
      "hit": false,
      "t": 43218.09375,
      "d": 821.8086750000002,
      "v": 44
    },
    {
      "midi": 53,
      "hit": false,
      "t": 43223.4129,
      "d": 332.44687500000146,
      "v": 33
    },
    {
      "midi": 49,
      "hit": false,
      "t": 43255.3278,
      "d": 492.0213750000039,
      "v": 21
    },
    {
      "midi": 63,
      "hit": false,
      "t": 44356.39185,
      "d": 204.78727500001696,
      "v": 37
    },
    {
      "midi": 62,
      "hit": false,
      "t": 44372.3493,
      "d": 183.51067500001227,
      "v": 33
    },
    {
      "midi": 58,
      "hit": false,
      "t": 44372.3493,
      "d": 1140.9576750000124,
      "v": 26
    },
    {
      "midi": 60,
      "hit": false,
      "t": 44377.668450000005,
      "d": 239.36175000001094,
      "v": 18
    },
    {
      "midi": 55,
      "hit": false,
      "t": 44382.98760000001,
      "d": 1077.1278750000056,
      "v": 34
    },
    {
      "midi": 48,
      "hit": false,
      "t": 44388.30675000001,
      "d": 1066.4895749999996,
      "v": 28
    },
    {
      "midi": 74,
      "hit": false,
      "t": 44922.88132500002,
      "d": 319.1489999999976,
      "v": 89
    },
    {
      "midi": 74,
      "hit": false,
      "t": 45308.51970000001,
      "d": 202.12770000000455,
      "v": 70
    },
    {
      "midi": 74,
      "hit": false,
      "t": 45611.711250000015,
      "d": 186.17025000000285,
      "v": 57
    },
    {
      "midi": 74,
      "hit": false,
      "t": 45917.562375000016,
      "d": 1023.9363750000048,
      "v": 41
    },
    {
      "midi": 65,
      "hit": false,
      "t": 45933.51982500002,
      "d": 542.5532999999996,
      "v": 25
    },
    {
      "midi": 50,
      "hit": false,
      "t": 45933.51982500002,
      "d": 1297.8726000000097,
      "v": 36
    },
    {
      "midi": 69,
      "hit": false,
      "t": 45946.817700000014,
      "d": 917.5533750000031,
      "v": 42
    },
    {
      "midi": 60,
      "hit": false,
      "t": 45962.775150000016,
      "d": 494.68095000000176,
      "v": 27
    },
    {
      "midi": 57,
      "hit": false,
      "t": 46319.15820000002,
      "d": 1013.2980750000061,
      "v": 40
    },
    {
      "midi": 65,
      "hit": false,
      "t": 46765.96680000002,
      "d": 263.2979250000062,
      "v": 41
    },
    {
      "midi": 60,
      "hit": false,
      "t": 46787.243400000014,
      "d": 542.5533000000141,
      "v": 28
    },
    {
      "midi": 79,
      "hit": false,
      "t": 47207.456250000025,
      "d": 281.9149499999985,
      "v": 74
    },
    {
      "midi": 70,
      "hit": false,
      "t": 47901.605325000026,
      "d": 1207.4470500000025,
      "v": 51
    },
    {
      "midi": 65,
      "hit": false,
      "t": 47922.88192500002,
      "d": 704.7873749999999,
      "v": 35
    },
    {
      "midi": 51,
      "hit": false,
      "t": 47952.13725000002,
      "d": 1215.4257750000106,
      "v": 30
    },
    {
      "midi": 58,
      "hit": false,
      "t": 48313.83945000002,
      "d": 930.8512500000143,
      "v": 35
    },
    {
      "midi": 62,
      "hit": false,
      "t": 48715.435275000025,
      "d": 582.4469250000111,
      "v": 44
    },
    {
      "midi": 74,
      "hit": false,
      "t": 49125.00982500003,
      "d": 468.0852000000086,
      "v": 61
    },
    {
      "midi": 70,
      "hit": false,
      "t": 49617.03120000004,
      "d": 1859.0429249999943,
      "v": 39
    },
    {
      "midi": 67,
      "hit": false,
      "t": 49619.69077500004,
      "d": 1771.2769499999995,
      "v": 32
    },
    {
      "midi": 63,
      "hit": false,
      "t": 49625.00992500004,
      "d": 577.1277750000008,
      "v": 33
    },
    {
      "midi": 53,
      "hit": false,
      "t": 49640.967375000044,
      "d": 1234.0427999999956,
      "v": 25
    },
    {
      "midi": 58,
      "hit": false,
      "t": 49664.90355000005,
      "d": 2337.766424999987,
      "v": 25
    },
    {
      "midi": 60,
      "hit": false,
      "t": 50146.286625000044,
      "d": 1702.1279999999897,
      "v": 36
    },
    {
      "midi": 72,
      "hit": false,
      "t": 50800.54207500004,
      "d": 664.8937499999956,
      "v": 54
    },
    {
      "midi": 63,
      "hit": false,
      "t": 50813.83995000004,
      "d": 236.70217499999853,
      "v": 25
    },
    {
      "midi": 53,
      "hit": false,
      "t": 51569.15925000003,
      "d": 420.2128500000035,
      "v": 28
    },
    {
      "midi": 74,
      "hit": false,
      "t": 52000.010400000036,
      "d": 199.46812499999942,
      "v": 70
    },
    {
      "midi": 75,
      "hit": false,
      "t": 52257.98917500003,
      "d": 180.85109999999986,
      "v": 65
    },
    {
      "midi": 46,
      "hit": false,
      "t": 52635.64882500003,
      "d": 720.7448250000089,
      "v": 45
    },
    {
      "midi": 74,
      "hit": false,
      "t": 52667.563725000036,
      "d": 1127.6598000000013,
      "v": 79
    },
    {
      "midi": 52,
      "hit": false,
      "t": 52970.75527500004,
      "d": 332.44687500000146,
      "v": 51
    },
    {
      "midi": 64,
      "hit": false,
      "t": 53324.47875000004,
      "d": 367.0213500000027,
      "v": 62
    },
    {
      "midi": 55,
      "hit": false,
      "t": 53340.43620000004,
      "d": 351.063900000001,
      "v": 55
    },
    {
      "midi": 58,
      "hit": false,
      "t": 53691.50010000004,
      "d": 1372.3406999999934,
      "v": 53
    },
    {
      "midi": 70,
      "hit": false,
      "t": 54039.90442500004,
      "d": 776.5959000000003,
      "v": 38
    },
    {
      "midi": 61,
      "hit": false,
      "t": 54055.86187500004,
      "d": 425.53199999999924,
      "v": 45
    },
    {
      "midi": 73,
      "hit": false,
      "t": 54066.50017500004,
      "d": 1119.6810750000004,
      "v": 34
    },
    {
      "midi": 79,
      "hit": false,
      "t": 54462.77685000004,
      "d": 430.85115000000224,
      "v": 55
    },
    {
      "midi": 64,
      "hit": false,
      "t": 54481.39387500004,
      "d": 518.617124999997,
      "v": 29
    },
    {
      "midi": 70,
      "hit": false,
      "t": 54949.47907500004,
      "d": 191.48939999999857,
      "v": 27
    },
    {
      "midi": 61,
      "hit": false,
      "t": 54960.11737500004,
      "d": 569.14905,
      "v": 39
    },
    {
      "midi": 76,
      "hit": false,
      "t": 54970.75567500004,
      "d": 138.29789999999775,
      "v": 36
    },
    {
      "midi": 74,
      "hit": false,
      "t": 55438.84087500004,
      "d": 390.95752500000526,
      "v": 59
    },
    {
      "midi": 58,
      "hit": false,
      "t": 55476.07492500004,
      "d": 175.53195000000414,
      "v": 34
    },
    {
      "midi": 74,
      "hit": false,
      "t": 56297.883600000045,
      "d": 505.31925000000047,
      "v": 60
    },
    {
      "midi": 53,
      "hit": false,
      "t": 56319.16020000004,
      "d": 763.2980250000037,
      "v": 41
    },
    {
      "midi": 65,
      "hit": false,
      "t": 56324.479350000045,
      "d": 550.5320250000004,
      "v": 43
    },
    {
      "midi": 46,
      "hit": false,
      "t": 56332.458075000046,
      "d": 401.5958249999967,
      "v": 29
    },
    {
      "midi": 46,
      "hit": false,
      "t": 56811.181575000046,
      "d": 1244.6811000000016,
      "v": 46
    },
    {
      "midi": 72,
      "hit": false,
      "t": 57204.79867500005,
      "d": 151.59577499999432,
      "v": 50
    },
    {
      "midi": 63,
      "hit": false,
      "t": 57207.45825000005,
      "d": 226.06387499999983,
      "v": 58
    },
    {
      "midi": 70,
      "hit": false,
      "t": 57486.71362500005,
      "d": 156.9149250000046,
      "v": 69
    },
    {
      "midi": 62,
      "hit": false,
      "t": 57492.03277500005,
      "d": 156.9149250000046,
      "v": 61
    },
    {
      "midi": 69,
      "hit": false,
      "t": 57765.969000000056,
      "d": 204.78727499999513,
      "v": 74
    },
    {
      "midi": 53,
      "hit": false,
      "t": 57768.62857500005,
      "d": 582.4469249999893,
      "v": 40
    },
    {
      "midi": 60,
      "hit": false,
      "t": 57784.586025000055,
      "d": 138.29789999999775,
      "v": 64
    },
    {
      "midi": 67,
      "hit": false,
      "t": 58130.330775000046,
      "d": 146.2766249999986,
      "v": 62
    },
    {
      "midi": 46,
      "hit": false,
      "t": 58156.926525000046,
      "d": 255.3191999999981,
      "v": 30
    },
    {
      "midi": 66,
      "hit": false,
      "t": 58659.58620000004,
      "d": 505.3192499999932,
      "v": 65
    },
    {
      "midi": 74,
      "hit": false,
      "t": 58664.905350000045,
      "d": 2053.1918999999834,
      "v": 66
    },
    {
      "midi": 62,
      "hit": false,
      "t": 58672.884075000045,
      "d": 452.1277499999924,
      "v": 57
    },
    {
      "midi": 46,
      "hit": false,
      "t": 58686.18195000004,
      "d": 816.48952499999,
      "v": 39
    },
    {
      "midi": 54,
      "hit": false,
      "t": 58694.16067500004,
      "d": 231.38302499999554,
      "v": 34
    },
    {
      "midi": 54,
      "hit": false,
      "t": 59087.77777500004,
      "d": 452.1277499999924,
      "v": 53
    },
    {
      "midi": 66,
      "hit": false,
      "t": 59502.67147500003,
      "d": 835.1065499999968,
      "v": 54
    },
    {
      "midi": 62,
      "hit": false,
      "t": 59515.96935000003,
      "d": 534.574575000006,
      "v": 54
    },
    {
      "midi": 57,
      "hit": false,
      "t": 59521.28850000003,
      "d": 361.7021999999997,
      "v": 64
    },
    {
      "midi": 57,
      "hit": false,
      "t": 59960.118375000035,
      "d": 364.3617749999976,
      "v": 71
    },
    {
      "midi": 67,
      "hit": false,
      "t": 60449.480175000026,
      "d": 1380.3194250000015,
      "v": 65
    },
    {
      "midi": 62,
      "hit": false,
      "t": 60452.139750000024,
      "d": 1406.915175000002,
      "v": 50
    },
    {
      "midi": 55,
      "hit": false,
      "t": 60470.75677500002,
      "d": 1175.5321500000064,
      "v": 62
    },
    {
      "midi": 72,
      "hit": false,
      "t": 60824.48025000003,
      "d": 226.06387499999983,
      "v": 64
    },
    {
      "midi": 46,
      "hit": false,
      "t": 61140.96967500003,
      "d": 2119.681274999988,
      "v": 39
    },
    {
      "midi": 70,
      "hit": false,
      "t": 61151.60797500003,
      "d": 335.1064499999993,
      "v": 67
    },
    {
      "midi": 69,
      "hit": false,
      "t": 61492.03357500003,
      "d": 510.6383999999962,
      "v": 67
    },
    {
      "midi": 67,
      "hit": false,
      "t": 62047.88475000003,
      "d": 638.2979999999952,
      "v": 49
    },
    {
      "midi": 62,
      "hit": false,
      "t": 62066.501775000026,
      "d": 648.9362999999939,
      "v": 36
    },
    {
      "midi": 55,
      "hit": false,
      "t": 62069.161350000024,
      "d": 619.6809749999957,
      "v": 39
    },
    {
      "midi": 68,
      "hit": false,
      "t": 63188.84242500002,
      "d": 396.276675000001,
      "v": 56
    },
    {
      "midi": 63,
      "hit": false,
      "t": 63194.16157500002,
      "d": 332.44687500000146,
      "v": 42
    },
    {
      "midi": 72,
      "hit": false,
      "t": 63202.14030000002,
      "d": 367.02134999999544,
      "v": 30
    },
    {
      "midi": 56,
      "hit": false,
      "t": 63210.11902500002,
      "d": 398.93624999999884,
      "v": 35
    },
    {
      "midi": 46,
      "hit": false,
      "t": 63555.86377500002,
      "d": 90.42554999999993,
      "v": 44
    },
    {
      "midi": 63,
      "hit": false,
      "t": 63997.35322500002,
      "d": 688.8299250000055,
      "v": 42
    },
    {
      "midi": 79,
      "hit": false,
      "t": 64356.39585000002,
      "d": 170.21280000000115,
      "v": 55
    },
    {
      "midi": 67,
      "hit": false,
      "t": 64372.353300000024,
      "d": 170.21280000000115,
      "v": 47
    },
    {
      "midi": 75,
      "hit": false,
      "t": 64382.99160000002,
      "d": 202.12770000000455,
      "v": 39
    },
    {
      "midi": 72,
      "hit": false,
      "t": 64385.65117500002,
      "d": 191.48940000000584,
      "v": 35
    },
    {
      "midi": 68,
      "hit": false,
      "t": 64390.970325000024,
      "d": 273.9362250000049,
      "v": 26
    },
    {
      "midi": 75,
      "hit": false,
      "t": 64819.16190000003,
      "d": 228.72344999999768,
      "v": 40
    },
    {
      "midi": 65,
      "hit": false,
      "t": 64843.09807500003,
      "d": 260.6383499999938,
      "v": 38
    },
    {
      "midi": 68,
      "hit": false,
      "t": 64845.75765000003,
      "d": 231.38302499999554,
      "v": 33
    },
    {
      "midi": 72,
      "hit": false,
      "t": 64848.41722500003,
      "d": 180.85109999999986,
      "v": 37
    },
    {
      "midi": 60,
      "hit": false,
      "t": 65257.991775000024,
      "d": 63.82979999999952,
      "v": 36
    },
    {
      "midi": 63,
      "hit": false,
      "t": 65606.39610000003,
      "d": 239.3617499999964,
      "v": 45
    },
    {
      "midi": 56,
      "hit": false,
      "t": 65625.01312500003,
      "d": 1199.4683249999653,
      "v": 30
    },
    {
      "midi": 68,
      "hit": false,
      "t": 65632.99185000002,
      "d": 202.12769999999728,
      "v": 37
    },
    {
      "midi": 65,
      "hit": false,
      "t": 65635.65142500002,
      "d": 191.48940000000584,
      "v": 45
    },
    {
      "midi": 72,
      "hit": false,
      "t": 65648.94930000002,
      "d": 111.70214999999735,
      "v": 20
    },
    {
      "midi": 53,
      "hit": false,
      "t": 65914.90680000003,
      "d": 359.0426249999873,
      "v": 39
    },
    {
      "midi": 68,
      "hit": false,
      "t": 66257.99197500003,
      "d": 284.5745249999745,
      "v": 42
    },
    {
      "midi": 63,
      "hit": false,
      "t": 66260.65155000002,
      "d": 313.82984999998007,
      "v": 48
    },
    {
      "midi": 60,
      "hit": false,
      "t": 66268.63027500002,
      "d": 228.72344999997586,
      "v": 50
    },
    {
      "midi": 46,
      "hit": false,
      "t": 66279.26857500001,
      "d": 247.34047499998996,
      "v": 35
    },
    {
      "midi": 65,
      "hit": false,
      "t": 66287.2473,
      "d": 228.7234499999904,
      "v": 36
    },
    {
      "midi": 46,
      "hit": false,
      "t": 66787.24740000001,
      "d": 752.6597249999759,
      "v": 47
    },
    {
      "midi": 63,
      "hit": false,
      "t": 66795.226125,
      "d": 319.14899999999034,
      "v": 69
    },
    {
      "midi": 72,
      "hit": false,
      "t": 66795.226125,
      "d": 579.7873499999841,
      "v": 55
    },
    {
      "midi": 68,
      "hit": false,
      "t": 66803.20485,
      "d": 353.7234749999916,
      "v": 59
    },
    {
      "midi": 70,
      "hit": false,
      "t": 67789.90717499999,
      "d": 215.425574999972,
      "v": 59
    },
    {
      "midi": 46,
      "hit": false,
      "t": 67795.22632499998,
      "d": 250.00004999997327,
      "v": 35
    },
    {
      "midi": 65,
      "hit": false,
      "t": 67819.16249999998,
      "d": 154.25534999999218,
      "v": 49
    },
    {
      "midi": 60,
      "hit": false,
      "t": 67840.43909999997,
      "d": 156.91492499999003,
      "v": 22
    },
    {
      "midi": 68,
      "hit": false,
      "t": 68159.58809999995,
      "d": 111.70214999999735,
      "v": 52
    },
    {
      "midi": 63,
      "hit": false,
      "t": 68162.24767499995,
      "d": 106.38300000000163,
      "v": 56
    },
    {
      "midi": 46,
      "hit": false,
      "t": 68172.88597499995,
      "d": 154.25534999999218,
      "v": 26
    },
    {
      "midi": 56,
      "hit": false,
      "t": 68585.12009999994,
      "d": 912.2342249999929,
      "v": 32
    },
    {
      "midi": 67,
      "hit": false,
      "t": 68585.12009999994,
      "d": 1162.2342749999953,
      "v": 50
    },
    {
      "midi": 46,
      "hit": false,
      "t": 68598.41797499995,
      "d": 957.4469999999856,
      "v": 27
    },
    {
      "midi": 60,
      "hit": false,
      "t": 68609.05627499995,
      "d": 914.8937999999762,
      "v": 48
    },
    {
      "midi": 63,
      "hit": false,
      "t": 68617.03499999995,
      "d": 1119.6810749999859,
      "v": 30
    },
    {
      "midi": 55,
      "hit": false,
      "t": 68646.29032499994,
      "d": 367.02134999999544,
      "v": 30
    },
    {
      "midi": 65,
      "hit": false,
      "t": 69837.77992499994,
      "d": 204.78727499999513,
      "v": 35
    },
    {
      "midi": 75,
      "hit": false,
      "t": 70470.75877499994,
      "d": 1779.2556750000076,
      "v": 59
    },
    {
      "midi": 47,
      "hit": false,
      "t": 70494.69494999993,
      "d": 47.8723500000051,
      "v": 43
    },
    {
      "midi": 68,
      "hit": false,
      "t": 71125.01422499995,
      "d": 1622.3407499999885,
      "v": 31
    },
    {
      "midi": 63,
      "hit": false,
      "t": 71138.31209999995,
      "d": 1933.5110249999852,
      "v": 33
    },
    {
      "midi": 57,
      "hit": false,
      "t": 71146.29082499995,
      "d": 1625.0003249999863,
      "v": 36
    },
    {
      "midi": 74,
      "hit": false,
      "t": 72526.61024999994,
      "d": 220.74472499999683,
      "v": 64
    },
    {
      "midi": 75,
      "hit": false,
      "t": 72803.20604999994,
      "d": 207.446849999993,
      "v": 72
    },
    {
      "midi": 76,
      "hit": false,
      "t": 73061.18482499993,
      "d": 167.55322500001057,
      "v": 75
    },
    {
      "midi": 77,
      "hit": false,
      "t": 73335.12104999994,
      "d": 178.191525000002,
      "v": 60
    },
    {
      "midi": 77,
      "hit": false,
      "t": 73646.29132499994,
      "d": 199.46812499999942,
      "v": 57
    },
    {
      "midi": 77,
      "hit": false,
      "t": 74021.29139999994,
      "d": 1832.4471749999793,
      "v": 55
    },
    {
      "midi": 63,
      "hit": false,
      "t": 74029.27012499994,
      "d": 220.74472499998228,
      "v": 25
    },
    {
      "midi": 56,
      "hit": false,
      "t": 74034.58927499993,
      "d": 287.23409999998694,
      "v": 20
    },
    {
      "midi": 67,
      "hit": false,
      "t": 74053.20629999993,
      "d": 178.19152499998745,
      "v": 26
    },
    {
      "midi": 60,
      "hit": false,
      "t": 74061.18502499993,
      "d": 156.91492499999003,
      "v": 38
    },
    {
      "midi": 34,
      "hit": false,
      "t": 74739.37664999992,
      "d": 90.42554999999993,
      "v": 40
    },
    {
      "midi": 56,
      "hit": false,
      "t": 76186.18544999992,
      "d": 1191.4895999999717,
      "v": 35
    },
    {
      "midi": 66,
      "hit": false,
      "t": 76300.54717499991,
      "d": 1265.95769999997,
      "v": 31
    },
    {
      "midi": 62,
      "hit": false,
      "t": 76340.44079999991,
      "d": 869.6810249999835,
      "v": 27
    },
    {
      "midi": 70,
      "hit": false,
      "t": 76367.0365499999,
      "d": 1303.1917499999836,
      "v": 37
    },
    {
      "midi": 73,
      "hit": false,
      "t": 76398.9514499999,
      "d": 1276.595999999976,
      "v": 38
    },
    {
      "midi": 78,
      "hit": false,
      "t": 76436.1854999999,
      "d": 1289.8938749999797,
      "v": 60
    },
    {
      "midi": 79,
      "hit": false,
      "t": 78425.54759999989,
      "d": 2000.00039999999,
      "v": 66
    },
    {
      "midi": 51,
      "hit": false,
      "t": 78441.50504999989,
      "d": 1526.5960499999928,
      "v": 31
    },
    {
      "midi": 59,
      "hit": false,
      "t": 78465.44122499989,
      "d": 917.5533750000031,
      "v": 38
    },
    {
      "midi": 62,
      "hit": false,
      "t": 78917.5689749999,
      "d": 313.8298499999946,
      "v": 45
    },
    {
      "midi": 72,
      "hit": false,
      "t": 79417.56907499989,
      "d": 1172.8725749999867,
      "v": 37
    },
    {
      "midi": 67,
      "hit": false,
      "t": 79420.22864999989,
      "d": 1058.5108499999915,
      "v": 45
    },
    {
      "midi": 60,
      "hit": false,
      "t": 79446.82439999988,
      "d": 1170.2129999999888,
      "v": 28
    },
    {
      "midi": 51,
      "hit": false,
      "t": 80077.14367499988,
      "d": 1329.7874999999767,
      "v": 37
    },
    {
      "midi": 77,
      "hit": false,
      "t": 80880.33532499988,
      "d": 513.2979749999795,
      "v": 65
    },
    {
      "midi": 70,
      "hit": false,
      "t": 80888.31404999987,
      "d": 1061.1704249999893,
      "v": 68
    },
    {
      "midi": 67,
      "hit": false,
      "t": 80898.95234999988,
      "d": 1039.8938249999774,
      "v": 66
    },
    {
      "midi": 74,
      "hit": false,
      "t": 80901.61192499987,
      "d": 526.5958499999833,
      "v": 57
    },
    {
      "midi": 60,
      "hit": false,
      "t": 80906.93107499987,
      "d": 941.4895499999839,
      "v": 50
    },
    {
      "midi": 75,
      "hit": false,
      "t": 81492.03757499986,
      "d": 393.61709999998857,
      "v": 69
    },
    {
      "midi": 51,
      "hit": false,
      "t": 81500.01629999986,
      "d": 845.7448499999882,
      "v": 45
    },
    {
      "midi": 70,
      "hit": false,
      "t": 82007.99512499986,
      "d": 795.2129250000144,
      "v": 34
    },
    {
      "midi": 74,
      "hit": false,
      "t": 82010.65469999985,
      "d": 438.8298749999958,
      "v": 67
    },
    {
      "midi": 67,
      "hit": false,
      "t": 82013.31427499985,
      "d": 404.25539999999455,
      "v": 61
    },
    {
      "midi": 60,
      "hit": false,
      "t": 82037.25044999985,
      "d": 606.3831000000209,
      "v": 40
    },
    {
      "midi": 67,
      "hit": false,
      "t": 82478.73989999985,
      "d": 125.00002500000119,
      "v": 32
    },
    {
      "midi": 51,
      "hit": false,
      "t": 82492.03777499986,
      "d": 311.1702750000113,
      "v": 51
    },
    {
      "midi": 72,
      "hit": false,
      "t": 82494.69734999986,
      "d": 138.29790000000503,
      "v": 51
    },
    {
      "midi": 66,
      "hit": false,
      "t": 83000.01659999987,
      "d": 1872.34080000002,
      "v": 51
    },
    {
      "midi": 73,
      "hit": false,
      "t": 83000.01659999987,
      "d": 1946.8089000000182,
      "v": 39
    },
    {
      "midi": 51,
      "hit": false,
      "t": 83002.67617499987,
      "d": 1909.574850000019,
      "v": 51
    },
    {
      "midi": 70,
      "hit": false,
      "t": 83002.67617499987,
      "d": 1960.106775000022,
      "v": 51
    },
    {
      "midi": 78,
      "hit": false,
      "t": 83005.33574999987,
      "d": 2045.2131750000262,
      "v": 51
    },
    {
      "midi": 58,
      "hit": false,
      "t": 83303.20814999987,
      "d": 180.85109999999986,
      "v": 36
    },
    {
      "midi": 59,
      "hit": false,
      "t": 83558.52734999987,
      "d": 265.9575000000041,
      "v": 30
    },
    {
      "midi": 60,
      "hit": false,
      "t": 83859.05932499988,
      "d": 257.9787750000105,
      "v": 51
    },
    {
      "midi": 60,
      "hit": false,
      "t": 84207.46364999989,
      "d": 220.74472500001139,
      "v": 57
    },
    {
      "midi": 59,
      "hit": false,
      "t": 84558.5275499999,
      "d": 250.00005000000237,
      "v": 43
    },
    {
      "midi": 58,
      "hit": false,
      "t": 84869.6978249999,
      "d": 79.78724999999395,
      "v": 39
    },
    {
      "midi": 75,
      "hit": false,
      "t": 85196.82554999989,
      "d": 1090.4257499999949,
      "v": 69
    },
    {
      "midi": 78,
      "hit": false,
      "t": 85204.80427499989,
      "d": 952.1278500000044,
      "v": 62
    },
    {
      "midi": 48,
      "hit": false,
      "t": 85207.46384999988,
      "d": 327.12772499999846,
      "v": 60
    },
    {
      "midi": 70,
      "hit": false,
      "t": 85207.46384999988,
      "d": 946.8087000000087,
      "v": 63
    },
    {
      "midi": 58,
      "hit": false,
      "t": 85539.91072499988,
      "d": 101.06385000000591,
      "v": 34
    },
    {
      "midi": 63,
      "hit": false,
      "t": 85867.03844999989,
      "d": 446.8085999999894,
      "v": 30
    },
    {
      "midi": 70,
      "hit": false,
      "t": 86226.0810749999,
      "d": 582.446924999982,
      "v": 27
    },
    {
      "midi": 65,
      "hit": false,
      "t": 86231.40022499989,
      "d": 61.17022499999439,
      "v": 44
    },
    {
      "midi": 77,
      "hit": false,
      "t": 86239.37894999988,
      "d": 417.5532749999984,
      "v": 56
    },
    {
      "midi": 75,
      "hit": false,
      "t": 86574.48539999987,
      "d": 335.1064500000066,
      "v": 50
    },
    {
      "midi": 63,
      "hit": false,
      "t": 86962.78334999988,
      "d": 454.7873249999975,
      "v": 33
    },
    {
      "midi": 73,
      "hit": false,
      "t": 86973.42164999989,
      "d": 893.6171999999933,
      "v": 30
    },
    {
      "midi": 69,
      "hit": false,
      "t": 86978.74079999988,
      "d": 699.4682250000042,
      "v": 45
    },
    {
      "midi": 53,
      "hit": false,
      "t": 86989.37909999989,
      "d": 997.3406249999971,
      "v": 26
    },
    {
      "midi": 58,
      "hit": false,
      "t": 87023.95357499989,
      "d": 534.5745749999915,
      "v": 20
    },
    {
      "midi": 60,
      "hit": false,
      "t": 87438.84727499988,
      "d": 1018.6172250000382,
      "v": 34
    },
    {
      "midi": 63,
      "hit": false,
      "t": 87930.86864999989,
      "d": 194.1489750000037,
      "v": 27
    },
    {
      "midi": 72,
      "hit": false,
      "t": 87930.86864999989,
      "d": 239.36175000001094,
      "v": 40
    },
    {
      "midi": 69,
      "hit": false,
      "t": 87936.18779999988,
      "d": 444.14902500002063,
      "v": 42
    },
    {
      "midi": 74,
      "hit": false,
      "t": 88414.9112999999,
      "d": 295.2128250000096,
      "v": 76
    },
    {
      "midi": 53,
      "hit": false,
      "t": 88425.54959999991,
      "d": 109.04257499999949,
      "v": 40
    },
    {
      "midi": 74,
      "hit": false,
      "t": 88912.25182499991,
      "d": 1132.9789499999752,
      "v": 72
    },
    {
      "midi": 58,
      "hit": false,
      "t": 88928.20927499991,
      "d": 351.0638999999792,
      "v": 31
    },
    {
      "midi": 50,
      "hit": false,
      "t": 88930.86884999991,
      "d": 1518.6173249999702,
      "v": 35
    },
    {
      "midi": 62,
      "hit": false,
      "t": 88936.18799999991,
      "d": 492.0213749999821,
      "v": 49
    },
    {
      "midi": 70,
      "hit": false,
      "t": 90199.4861249999,
      "d": 244.6808999999921,
      "v": 54
    },
    {
      "midi": 62,
      "hit": false,
      "t": 90204.80527499989,
      "d": 170.21279999999388,
      "v": 59
    },
    {
      "midi": 65,
      "hit": false,
      "t": 90220.76272499989,
      "d": 151.59577499999432,
      "v": 57
    },
    {
      "midi": 58,
      "hit": false,
      "t": 90223.42229999989,
      "d": 260.6383499999938,
      "v": 31
    },
    {
      "midi": 69,
      "hit": false,
      "t": 90906.93307499988,
      "d": 688.8299249999982,
      "v": 68
    },
    {
      "midi": 74,
      "hit": false,
      "t": 90912.25222499987,
      "d": 805.8512250000058,
      "v": 66
    },
    {
      "midi": 81,
      "hit": false,
      "t": 90912.25222499987,
      "d": 819.1491000000096,
      "v": 71
    },
    {
      "midi": 39,
      "hit": false,
      "t": 90922.89052499988,
      "d": 178.191525000002,
      "v": 56
    },
    {
      "midi": 46,
      "hit": false,
      "t": 90936.18839999988,
      "d": 526.5958499999979,
      "v": 48
    },
    {
      "midi": 55,
      "hit": false,
      "t": 91468.10339999988,
      "d": 569.1490500000073,
      "v": 44
    },
    {
      "midi": 58,
      "hit": false,
      "t": 92045.23117499988,
      "d": 949.4682749999774,
      "v": 38
    },
    {
      "midi": 62,
      "hit": false,
      "t": 92558.52914999987,
      "d": 265.9574999999895,
      "v": 34
    },
    {
      "midi": 65,
      "hit": false,
      "t": 92574.48659999987,
      "d": 396.2766749999864,
      "v": 47
    },
    {
      "midi": 70,
      "hit": false,
      "t": 92574.48659999987,
      "d": 523.9362749999855,
      "v": 35
    },
    {
      "midi": 77,
      "hit": false,
      "t": 92577.14617499987,
      "d": 625.0001249999914,
      "v": 47
    },
    {
      "midi": 74,
      "hit": false,
      "t": 92585.12489999986,
      "d": 449.46817499998724,
      "v": 44
    },
    {
      "midi": 50,
      "hit": false,
      "t": 93558.52934999987,
      "d": 138.29790000000503,
      "v": 62
    },
    {
      "midi": 81,
      "hit": false,
      "t": 94130.33797499987,
      "d": 279.25537499999336,
      "v": 81
    },
    {
      "midi": 72,
      "hit": false,
      "t": 94132.99754999987,
      "d": 337.7660249999899,
      "v": 85
    },
    {
      "midi": 60,
      "hit": false,
      "t": 94132.99754999987,
      "d": 369.6809249999933,
      "v": 73
    },
    {
      "midi": 54,
      "hit": false,
      "t": 94132.99754999987,
      "d": 382.97879999999714,
      "v": 70
    },
    {
      "midi": 77,
      "hit": false,
      "t": 94135.65712499987,
      "d": 295.21282499999506,
      "v": 80
    },
    {
      "midi": 65,
      "hit": false,
      "t": 94138.31669999986,
      "d": 353.7234749999916,
      "v": 74
    },
    {
      "midi": 77,
      "hit": false,
      "t": 94609.06147499986,
      "d": 244.68090000000666,
      "v": 62
    },
    {
      "midi": 54,
      "hit": false,
      "t": 94622.35934999987,
      "d": 292.55325000001176,
      "v": 47
    },
    {
      "midi": 69,
      "hit": false,
      "t": 94627.67849999986,
      "d": 162.2340750000003,
      "v": 50
    },
    {
      "midi": 72,
      "hit": false,
      "t": 94630.33807499986,
      "d": 188.829825000008,
      "v": 50
    },
    {
      "midi": 65,
      "hit": false,
      "t": 94632.99764999986,
      "d": 252.65962500001478,
      "v": 54
    },
    {
      "midi": 60,
      "hit": false,
      "t": 94654.27424999986,
      "d": 212.7660000000178,
      "v": 46
    },
    {
      "midi": 81,
      "hit": false,
      "t": 95063.84879999988,
      "d": 132.97874999999476,
      "v": 66
    },
    {
      "midi": 54,
      "hit": false,
      "t": 95074.48709999988,
      "d": 305.8511249999865,
      "v": 42
    },
    {
      "midi": 72,
      "hit": false,
      "t": 95077.14667499988,
      "d": 172.87237499999173,
      "v": 48
    },
    {
      "midi": 77,
      "hit": false,
      "t": 95082.46582499988,
      "d": 111.70214999999735,
      "v": 51
    },
    {
      "midi": 65,
      "hit": false,
      "t": 95098.42327499988,
      "d": 204.78727499999513,
      "v": 39
    },
    {
      "midi": 60,
      "hit": false,
      "t": 95119.69987499987,
      "d": 175.53195000000414,
      "v": 37
    },
    {
      "midi": 77,
      "hit": false,
      "t": 95526.61484999987,
      "d": 194.1489750000037,
      "v": 38
    },
    {
      "midi": 54,
      "hit": false,
      "t": 95526.61484999987,
      "d": 351.0639000000083,
      "v": 37
    },
    {
      "midi": 65,
      "hit": false,
      "t": 95555.87017499987,
      "d": 167.55322499999602,
      "v": 29
    },
    {
      "midi": 67,
      "hit": false,
      "t": 95571.82762499987,
      "d": 61.17022499999439,
      "v": 20
    },
    {
      "midi": 60,
      "hit": false,
      "t": 95579.80634999987,
      "d": 109.04257499999949,
      "v": 30
    },
    {
      "midi": 53,
      "hit": false,
      "t": 96130.33837499988,
      "d": 332.4468749999796,
      "v": 37
    },
    {
      "midi": 72,
      "hit": false,
      "t": 96138.31709999987,
      "d": 686.1703499999712,
      "v": 43
    },
    {
      "midi": 81,
      "hit": false,
      "t": 96146.29582499986,
      "d": 577.1277749999863,
      "v": 47
    },
    {
      "midi": 64,
      "hit": false,
      "t": 96159.59369999987,
      "d": 239.3617499999964,
      "v": 29
    },
    {
      "midi": 77,
      "hit": false,
      "t": 96162.25327499986,
      "d": 635.6384249999828,
      "v": 40
    },
    {
      "midi": 59,
      "hit": false,
      "t": 96167.57242499986,
      "d": 255.3191999999981,
      "v": 40
    },
    {
      "midi": 43,
      "hit": false,
      "t": 96795.23212499985,
      "d": 109.04257499998494,
      "v": 38
    },
    {
      "midi": 68,
      "hit": false,
      "t": 97614.38122499983,
      "d": 582.4469249999966,
      "v": 37
    },
    {
      "midi": 71,
      "hit": false,
      "t": 97627.67909999983,
      "d": 547.8724499999953,
      "v": 46
    },
    {
      "midi": 77,
      "hit": false,
      "t": 97630.33867499983,
      "d": 574.4681999999884,
      "v": 33
    },
    {
      "midi": 65,
      "hit": false,
      "t": 97632.99824999983,
      "d": 505.31925000000047,
      "v": 33
    },
    {
      "midi": 74,
      "hit": false,
      "t": 97648.95569999983,
      "d": 486.7022250000009,
      "v": 44
    },
    {
      "midi": 71,
      "hit": false,
      "t": 98537.25374999981,
      "d": 359.04262500000186,
      "v": 39
    },
    {
      "midi": 68,
      "hit": false,
      "t": 98537.25374999981,
      "d": 502.6596750000026,
      "v": 27
    },
    {
      "midi": 65,
      "hit": false,
      "t": 98542.57289999981,
      "d": 433.5107250000001,
      "v": 27
    },
    {
      "midi": 59,
      "hit": false,
      "t": 98558.53034999981,
      "d": 226.0638750000071,
      "v": 32
    },
    {
      "midi": 63,
      "hit": false,
      "t": 99409.59434999981,
      "d": 297.872400000022,
      "v": 27
    },
    {
      "midi": 67,
      "hit": false,
      "t": 99420.23264999982,
      "d": 276.59580000001006,
      "v": 45
    },
    {
      "midi": 48,
      "hit": false,
      "t": 99422.89222499981,
      "d": 1473.4045500000211,
      "v": 33
    },
    {
      "midi": 58,
      "hit": false,
      "t": 99454.80712499982,
      "d": 595.744800000015,
      "v": 17
    },
    {
      "midi": 55,
      "hit": false,
      "t": 100061.19022499984,
      "d": 848.4044250000006,
      "v": 37
    },
    {
      "midi": 82,
      "hit": false,
      "t": 100066.50937499983,
      "d": 454.7873249999975,
      "v": 74
    },
    {
      "midi": 70,
      "hit": false,
      "t": 100571.82862499983,
      "d": 553.1916000000201,
      "v": 38
    },
    {
      "midi": 58,
      "hit": false,
      "t": 100595.76479999983,
      "d": 380.31922500001383,
      "v": 18
    },
    {
      "midi": 82,
      "hit": false,
      "t": 100922.89252499984,
      "d": 188.829825000008,
      "v": 68
    },
    {
      "midi": 50,
      "hit": false,
      "t": 101244.70109999986,
      "d": 1037.2342500000086,
      "v": 50
    },
    {
      "midi": 82,
      "hit": false,
      "t": 101247.36067499986,
      "d": 781.9150500000105,
      "v": 59
    },
    {
      "midi": 57,
      "hit": false,
      "t": 101590.44584999986,
      "d": 763.298025000011,
      "v": 31
    },
    {
      "midi": 70,
      "hit": false,
      "t": 101906.93527499987,
      "d": 281.9149500000058,
      "v": 35
    },
    {
      "midi": 82,
      "hit": false,
      "t": 102204.80767499987,
      "d": 199.46812499999942,
      "v": 62
    },
    {
      "midi": 60,
      "hit": false,
      "t": 102247.36087499987,
      "d": 361.7021999999997,
      "v": 34
    },
    {
      "midi": 82,
      "hit": false,
      "t": 102601.08434999987,
      "d": 476.0639249999949,
      "v": 52
    },
    {
      "midi": 75,
      "hit": false,
      "t": 102614.38222499986,
      "d": 1207.4470500000025,
      "v": 40
    },
    {
      "midi": 51,
      "hit": false,
      "t": 102617.04179999986,
      "d": 1002.6597750000074,
      "v": 36
    },
    {
      "midi": 79,
      "hit": false,
      "t": 102622.36094999986,
      "d": 351.0639000000083,
      "v": 43
    },
    {
      "midi": 70,
      "hit": false,
      "t": 102627.68009999985,
      "d": 702.1278000000166,
      "v": 27
    },
    {
      "midi": 58,
      "hit": false,
      "t": 103010.65889999986,
      "d": 970.744875000004,
      "v": 28
    },
    {
      "midi": 81,
      "hit": false,
      "t": 103377.68024999987,
      "d": 303.19154999998864,
      "v": 68
    },
    {
      "midi": 70,
      "hit": false,
      "t": 103377.68024999987,
      "d": 486.70222499998636,
      "v": 25
    },
    {
      "midi": 60,
      "hit": false,
      "t": 103417.57387499987,
      "d": 507.9788249999983,
      "v": 24
    },
    {
      "midi": 79,
      "hit": false,
      "t": 103765.97819999987,
      "d": 111.70214999999735,
      "v": 60
    },
    {
      "midi": 51,
      "hit": false,
      "t": 103792.57394999986,
      "d": 204.78727500000969,
      "v": 44
    },
    {
      "midi": 77,
      "hit": false,
      "t": 104252.68042499987,
      "d": 619.6809749999811,
      "v": 62
    },
    {
      "midi": 51,
      "hit": false,
      "t": 104260.65914999986,
      "d": 422.8724249999941,
      "v": 49
    },
    {
      "midi": 69,
      "hit": false,
      "t": 104260.65914999986,
      "d": 625.0001249999914,
      "v": 57
    },
    {
      "midi": 60,
      "hit": false,
      "t": 104279.27617499986,
      "d": 595.7447999999858,
      "v": 43
    },
    {
      "midi": 72,
      "hit": false,
      "t": 104284.59532499986,
      "d": 497.34052499999234,
      "v": 36
    },
    {
      "midi": 51,
      "hit": false,
      "t": 104781.93584999985,
      "d": 1513.298174999989,
      "v": 33
    },
    {
      "midi": 65,
      "hit": false,
      "t": 105276.61679999986,
      "d": 938.8299749999715,
      "v": 42
    },
    {
      "midi": 69,
      "hit": false,
      "t": 105284.59552499985,
      "d": 925.5320999999822,
      "v": 49
    },
    {
      "midi": 57,
      "hit": false,
      "t": 105289.91467499985,
      "d": 976.0640249999851,
      "v": 34
    },
    {
      "midi": 60,
      "hit": false,
      "t": 105295.23382499984,
      "d": 1007.9789249999885,
      "v": 26
    },
    {
      "midi": 75,
      "hit": false,
      "t": 105930.87224999984,
      "d": 345.744749999998,
      "v": 67
    },
    {
      "midi": 81,
      "hit": false,
      "t": 106702.14899999983,
      "d": 287.23409999998694,
      "v": 82
    },
    {
      "midi": 50,
      "hit": false,
      "t": 106702.14899999983,
      "d": 813.8299499999848,
      "v": 55
    },
    {
      "midi": 60,
      "hit": false,
      "t": 107074.48949999982,
      "d": 710.1065249999956,
      "v": 47
    },
    {
      "midi": 65,
      "hit": false,
      "t": 107383.00019999982,
      "d": 143.61705000000075,
      "v": 58
    },
    {
      "midi": 72,
      "hit": false,
      "t": 107747.36197499982,
      "d": 117.02129999999306,
      "v": 70
    },
    {
      "midi": 81,
      "hit": false,
      "t": 108183.53227499982,
      "d": 787.2341999999917,
      "v": 74
    },
    {
      "midi": 51,
      "hit": false,
      "t": 108186.19184999981,
      "d": 1436.170499999993,
      "v": 42
    },
    {
      "midi": 58,
      "hit": false,
      "t": 108622.36214999981,
      "d": 1037.234249999994,
      "v": 23
    },
    {
      "midi": 74,
      "hit": false,
      "t": 109026.6175499998,
      "d": 619.6809749999957,
      "v": 38
    },
    {
      "midi": 67,
      "hit": false,
      "t": 109047.8941499998,
      "d": 361.7021999999997,
      "v": 36
    },
    {
      "midi": 69,
      "hit": false,
      "t": 109050.5537249998,
      "d": 372.3405000000057,
      "v": 36
    },
    {
      "midi": 62,
      "hit": false,
      "t": 109071.8303249998,
      "d": 590.4256500000047,
      "v": 24
    },
    {
      "midi": 81,
      "hit": false,
      "t": 109500.0218999998,
      "d": 375.00007500000356,
      "v": 65
    },
    {
      "midi": 81,
      "hit": false,
      "t": 110029.27732499981,
      "d": 375.00007500000356,
      "v": 78
    },
    {
      "midi": 71,
      "hit": false,
      "t": 110031.93689999981,
      "d": 441.4894500000082,
      "v": 76
    },
    {
      "midi": 76,
      "hit": false,
      "t": 110034.59647499981,
      "d": 417.55327500001295,
      "v": 74
    },
    {
      "midi": 65,
      "hit": false,
      "t": 110050.55392499981,
      "d": 502.6596750000026,
      "v": 66
    },
    {
      "midi": 79,
      "hit": false,
      "t": 110542.57529999982,
      "d": 220.74472499999683,
      "v": 62
    },
    {
      "midi": 74,
      "hit": false,
      "t": 110550.55402499982,
      "d": 220.74472499999683,
      "v": 66
    },
    {
      "midi": 71,
      "hit": false,
      "t": 110555.87317499981,
      "d": 295.21282499999506,
      "v": 62
    },
    {
      "midi": 64,
      "hit": false,
      "t": 110563.8518999998,
      "d": 420.21284999999625,
      "v": 54
    },
    {
      "midi": 77,
      "hit": false,
      "t": 110997.3626249998,
      "d": 271.27665000001434,
      "v": 60
    },
    {
      "midi": 72,
      "hit": false,
      "t": 111008.00092499981,
      "d": 159.57450000000244,
      "v": 49
    },
    {
      "midi": 69,
      "hit": false,
      "t": 111008.00092499981,
      "d": 228.72345000000496,
      "v": 56
    },
    {
      "midi": 62,
      "hit": false,
      "t": 111018.63922499982,
      "d": 476.0639249999804,
      "v": 46
    },
    {
      "midi": 75,
      "hit": false,
      "t": 111470.76697499982,
      "d": 345.7447499999689,
      "v": 52
    },
    {
      "midi": 71,
      "hit": false,
      "t": 111478.74569999981,
      "d": 319.1489999999758,
      "v": 54
    },
    {
      "midi": 65,
      "hit": false,
      "t": 111486.7244249998,
      "d": 441.4894499999791,
      "v": 44
    },
    {
      "midi": 59,
      "hit": false,
      "t": 111515.9797499998,
      "d": 563.8298999999824,
      "v": 33
    },
    {
      "midi": 71,
      "hit": false,
      "t": 112109.06497499978,
      "d": 292.55324999998265,
      "v": 36
    },
    {
      "midi": 65,
      "hit": false,
      "t": 112117.04369999978,
      "d": 356.38304999998945,
      "v": 46
    },
    {
      "midi": 74,
      "hit": false,
      "t": 112125.02242499977,
      "d": 305.85112500000105,
      "v": 50
    },
    {
      "midi": 68,
      "hit": false,
      "t": 112127.68199999977,
      "d": 305.85112500000105,
      "v": 30
    },
    {
      "midi": 55,
      "hit": false,
      "t": 112186.19264999976,
      "d": 207.44685000000754,
      "v": 30
    },
    {
      "midi": 58,
      "hit": false,
      "t": 112914.91619999976,
      "d": 449.4681750000018,
      "v": 42
    },
    {
      "midi": 53,
      "hit": false,
      "t": 112914.91619999976,
      "d": 664.8937499999884,
      "v": 32
    },
    {
      "midi": 62,
      "hit": false,
      "t": 112936.19279999976,
      "d": 281.9149500000058,
      "v": 44
    },
    {
      "midi": 65,
      "hit": false,
      "t": 112936.19279999976,
      "d": 507.9788249999983,
      "v": 45
    },
    {
      "midi": 56,
      "hit": false,
      "t": 113550.55462499976,
      "d": 441.4894500000082,
      "v": 31
    },
    {
      "midi": 62,
      "hit": false,
      "t": 113574.49079999975,
      "d": 404.2554000000091,
      "v": 46
    },
    {
      "midi": 59,
      "hit": false,
      "t": 113579.80994999975,
      "d": 316.48942500000703,
      "v": 44
    },
    {
      "midi": 43,
      "hit": false,
      "t": 113585.12909999974,
      "d": 154.25535000000673,
      "v": 38
    },
    {
      "midi": 55,
      "hit": false,
      "t": 114476.08672499977,
      "d": 146.2766249999986,
      "v": 33
    },
    {
      "midi": 24,
      "hit": false,
      "t": 114476.08672499977,
      "d": 202.12769999999728,
      "v": 34
    },
    {
      "midi": 58,
      "hit": false,
      "t": 114476.08672499977,
      "d": 215.42557500000112,
      "v": 33
    },
    {
      "midi": 63,
      "hit": false,
      "t": 114476.08672499977,
      "d": 218.08514999999898,
      "v": 37
    },
    {
      "midi": 36,
      "hit": false,
      "t": 114476.08672499977,
      "d": 265.9575000000041,
      "v": 28
    },
    {
      "midi": 79,
      "hit": false,
      "t": 115635.66142499977,
      "d": 204.78727499999513,
      "v": 67
    },
    {
      "midi": 48,
      "hit": false,
      "t": 115678.21462499976,
      "d": 505.31925000000047,
      "v": 24
    },
    {
      "midi": 67,
      "hit": false,
      "t": 116050.55512499977,
      "d": 393.6171000000031,
      "v": 48
    },
    {
      "midi": 58,
      "hit": false,
      "t": 116071.83172499976,
      "d": 159.57450000000244,
      "v": 27
    },
    {
      "midi": 77,
      "hit": false,
      "t": 116508.00202499978,
      "d": 752.659725000005,
      "v": 63
    },
    {
      "midi": 50,
      "hit": false,
      "t": 116523.95947499978,
      "d": 1093.0853249999927,
      "v": 45
    },
    {
      "midi": 65,
      "hit": false,
      "t": 116930.87444999978,
      "d": 720.744824999987,
      "v": 50
    },
    {
      "midi": 75,
      "hit": false,
      "t": 117359.06602499977,
      "d": 507.9788249999838,
      "v": 61
    },
    {
      "midi": 60,
      "hit": false,
      "t": 117380.34262499977,
      "d": 566.4894749999803,
      "v": 38
    },
    {
      "midi": 50,
      "hit": false,
      "t": 117819.17249999977,
      "d": 98.40427499997895,
      "v": 16
    },
    {
      "midi": 65,
      "hit": false,
      "t": 117840.44909999977,
      "d": 50.531924999988405,
      "v": 26
    },
    {
      "midi": 74,
      "hit": false,
      "t": 118345.76834999975,
      "d": 1109.042775000009,
      "v": 48
    },
    {
      "midi": 62,
      "hit": false,
      "t": 118356.40664999976,
      "d": 587.7660750000068,
      "v": 33
    },
    {
      "midi": 70,
      "hit": false,
      "t": 118367.04494999976,
      "d": 970.744875000004,
      "v": 34
    },
    {
      "midi": 67,
      "hit": false,
      "t": 118377.68324999977,
      "d": 579.7873499999987,
      "v": 29
    },
    {
      "midi": 51,
      "hit": false,
      "t": 118388.32154999978,
      "d": 1515.9577499999868,
      "v": 35
    },
    {
      "midi": 58,
      "hit": false,
      "t": 118885.66207499977,
      "d": 1087.766174999997,
      "v": 23
    },
    {
      "midi": 62,
      "hit": false,
      "t": 119335.13024999977,
      "d": 111.70214999999735,
      "v": 37
    },
    {
      "midi": 79,
      "hit": false,
      "t": 119832.47077499976,
      "d": 252.65962500000023,
      "v": 68
    },
    {
      "midi": 77,
      "hit": false,
      "t": 120414.91769999976,
      "d": 287.2341000000015,
      "v": 50
    },
    {
      "midi": 70,
      "hit": false,
      "t": 120436.19429999976,
      "d": 210.1064250000054,
      "v": 42
    },
    {
      "midi": 63,
      "hit": false,
      "t": 120446.83259999976,
      "d": 523.936275,
      "v": 35
    },
    {
      "midi": 67,
      "hit": false,
      "t": 120457.47089999977,
      "d": 154.25534999999218,
      "v": 42
    },
    {
      "midi": 53,
      "hit": false,
      "t": 120460.13047499977,
      "d": 1497.3407249999873,
      "v": 22
    },
    {
      "midi": 58,
      "hit": false,
      "t": 120476.08792499975,
      "d": 2851.0643999999884,
      "v": 25
    },
    {
      "midi": 89,
      "hit": false,
      "t": 120930.87524999976,
      "d": 93.08512499998324,
      "v": 66
    },
    {
      "midi": 77,
      "hit": false,
      "t": 120933.53482499976,
      "d": 87.76597499998752,
      "v": 54
    },
    {
      "midi": 60,
      "hit": false,
      "t": 120994.70504999976,
      "d": 547.8724499999953,
      "v": 36
    },
    {
      "midi": 63,
      "hit": false,
      "t": 121569.17324999975,
      "d": 558.5107500000013,
      "v": 30
    },
    {
      "midi": 89,
      "hit": false,
      "t": 121585.13069999975,
      "d": 856.3831499999942,
      "v": 31
    },
    {
      "midi": 101,
      "hit": false,
      "t": 121595.76899999975,
      "d": 747.3405749999947,
      "v": 63
    },
    {
      "midi": 84,
      "hit": false,
      "t": 123066.51397499975,
      "d": 401.5958249999967,
      "v": 72
    },
    {
      "midi": 81,
      "hit": false,
      "t": 123795.23752499974,
      "d": 1079.787450000018,
      "v": 58
    },
    {
      "midi": 46,
      "hit": false,
      "t": 123824.49284999975,
      "d": 414.89370000000054,
      "v": 31
    },
    {
      "midi": 57,
      "hit": false,
      "t": 124292.57804999975,
      "d": 372.3405000000057,
      "v": 35
    },
    {
      "midi": 58,
      "hit": false,
      "t": 124712.79089999976,
      "d": 755.3193000000028,
      "v": 45
    },
    {
      "midi": 61,
      "hit": false,
      "t": 125069.17394999976,
      "d": 390.95752500000526,
      "v": 42
    },
    {
      "midi": 64,
      "hit": false,
      "t": 125422.89742499977,
      "d": 385.638374999995,
      "v": 33
    },
    {
      "midi": 69,
      "hit": false,
      "t": 125454.81232499977,
      "d": 329.7872999999963,
      "v": 47
    },
    {
      "midi": 67,
      "hit": false,
      "t": 125811.19537499976,
      "d": 351.0639000000083,
      "v": 38
    },
    {
      "midi": 73,
      "hit": false,
      "t": 125821.83367499977,
      "d": 324.4681500000006,
      "v": 39
    },
    {
      "midi": 76,
      "hit": false,
      "t": 126202.15289999977,
      "d": 441.48944999999367,
      "v": 47
    },
    {
      "midi": 69,
      "hit": false,
      "t": 126210.13162499976,
      "d": 478.7234999999928,
      "v": 32
    },
    {
      "midi": 82,
      "hit": false,
      "t": 126670.23809999975,
      "d": 460.1064749999932,
      "v": 48
    },
    {
      "midi": 70,
      "hit": false,
      "t": 126680.87639999976,
      "d": 606.3830999999773,
      "v": 19
    },
    {
      "midi": 79,
      "hit": false,
      "t": 127135.66372499974,
      "d": 356.38304999998945,
      "v": 36
    },
    {
      "midi": 73,
      "hit": false,
      "t": 127138.32329999974,
      "d": 430.8511499999877,
      "v": 28
    },
    {
      "midi": 88,
      "hit": false,
      "t": 127571.83402499973,
      "d": 422.87242500000866,
      "v": 57
    },
    {
      "midi": 76,
      "hit": false,
      "t": 127582.47232499973,
      "d": 492.0213749999966,
      "v": 31
    },
    {
      "midi": 79,
      "hit": false,
      "t": 128015.98304999973,
      "d": 465.42562499998894,
      "v": 35
    },
    {
      "midi": 85,
      "hit": false,
      "t": 128018.64262499973,
      "d": 79.78724999999395,
      "v": 39
    },
    {
      "midi": 94,
      "hit": false,
      "t": 128654.28104999973,
      "d": 444.1490250000061,
      "v": 47
    },
    {
      "midi": 82,
      "hit": false,
      "t": 128670.23849999973,
      "d": 484.04265000000305,
      "v": 37
    },
    {
      "midi": 91,
      "hit": false,
      "t": 129133.00454999974,
      "d": 369.6809249999933,
      "v": 39
    },
    {
      "midi": 84,
      "hit": false,
      "t": 129159.60029999973,
      "d": 523.936275,
      "v": 24
    },
    {
      "midi": 103,
      "hit": false,
      "t": 129606.40889999973,
      "d": 632.9788499999995,
      "v": 44
    },
    {
      "midi": 85,
      "hit": false,
      "t": 129627.68549999973,
      "d": 1691.4897000000055,
      "v": 31
    },
    {
      "midi": 100,
      "hit": false,
      "t": 130252.68562499974,
      "d": 920.212950000001,
      "v": 37
    },
    {
      "midi": 88,
      "hit": false,
      "t": 130265.98349999974,
      "d": 577.1277750000008,
      "v": 30
    },
    {
      "midi": 74,
      "hit": false,
      "t": 131521.30289999975,
      "d": 1428.1917749999848,
      "v": 83
    },
    {
      "midi": 46,
      "hit": false,
      "t": 132151.62217499976,
      "d": 457.4468999999808,
      "v": 33
    },
    {
      "midi": 52,
      "hit": false,
      "t": 132159.60089999976,
      "d": 640.9575749999785,
      "v": 32
    },
    {
      "midi": 46,
      "hit": false,
      "t": 132795.23932499974,
      "d": 1055.8512749999936,
      "v": 33
    },
    {
      "midi": 53,
      "hit": false,
      "t": 132811.19677499973,
      "d": 1218.0853500000085,
      "v": 49
    },
    {
      "midi": 72,
      "hit": false,
      "t": 133023.96277499973,
      "d": 119.68087499999092,
      "v": 60
    },
    {
      "midi": 70,
      "hit": false,
      "t": 133167.57982499973,
      "d": 159.5744999999879,
      "v": 50
    },
    {
      "midi": 69,
      "hit": false,
      "t": 133369.7075249997,
      "d": 103.72342500000377,
      "v": 54
    },
    {
      "midi": 67,
      "hit": false,
      "t": 133643.64374999973,
      "d": 319.1490000000049,
      "v": 56
    },
    {
      "midi": 66,
      "hit": false,
      "t": 134050.55872499975,
      "d": 446.8085999999894,
      "v": 49
    },
    {
      "midi": 62,
      "hit": false,
      "t": 134061.19702499974,
      "d": 329.7872999999963,
      "v": 44
    },
    {
      "midi": 54,
      "hit": false,
      "t": 134063.85659999974,
      "d": 1090.4257499999076,
      "v": 33
    },
    {
      "midi": 46,
      "hit": false,
      "t": 134066.51617499974,
      "d": 1082.447024999914,
      "v": 28
    },
    {
      "midi": 66,
      "hit": false,
      "t": 134686.19714999973,
      "d": 127.6595999999845,
      "v": 52
    },
    {
      "midi": 74,
      "hit": false,
      "t": 134688.85672499973,
      "d": 140.95747499997378,
      "v": 62
    },
    {
      "midi": 62,
      "hit": false,
      "t": 134696.83544999972,
      "d": 125.00002499998664,
      "v": 58
    },
    {
      "midi": 57,
      "hit": false,
      "t": 134699.49502499972,
      "d": 117.02129999999306,
      "v": 56
    },
    {
      "midi": 69,
      "hit": false,
      "t": 134702.15459999972,
      "d": 106.38300000000163,
      "v": 55
    },
    {
      "midi": 74,
      "hit": false,
      "t": 134877.6865499997,
      "d": 252.65962499994203,
      "v": 46
    },
    {
      "midi": 66,
      "hit": false,
      "t": 134885.6652749997,
      "d": 71.80852500000037,
      "v": 42
    },
    {
      "midi": 62,
      "hit": false,
      "t": 134888.32484999968,
      "d": 82.4468249999918,
      "v": 48
    },
    {
      "midi": 69,
      "hit": false,
      "t": 134896.30357499968,
      "d": 58.51065000001108,
      "v": 45
    },
    {
      "midi": 57,
      "hit": false,
      "t": 134896.30357499968,
      "d": 199.46812499998487,
      "v": 45
    },
    {
      "midi": 66,
      "hit": false,
      "t": 135023.96317499966,
      "d": 95.7446999999811,
      "v": 28
    },
    {
      "midi": 62,
      "hit": false,
      "t": 135029.28232499966,
      "d": 90.42554999998538,
      "v": 20
    },
    {
      "midi": 69,
      "hit": false,
      "t": 135031.94189999966,
      "d": 69.14895000000251,
      "v": 43
    },
    {
      "midi": 74,
      "hit": false,
      "t": 135207.47384999963,
      "d": 77.12767499996698,
      "v": 57
    },
    {
      "midi": 54,
      "hit": false,
      "t": 135207.47384999963,
      "d": 82.4468249999627,
      "v": 25
    },
    {
      "midi": 66,
      "hit": false,
      "t": 135212.79299999963,
      "d": 63.829799999977695,
      "v": 53
    },
    {
      "midi": 46,
      "hit": false,
      "t": 135212.79299999963,
      "d": 95.7446999999811,
      "v": 32
    },
    {
      "midi": 62,
      "hit": false,
      "t": 135215.45257499962,
      "d": 58.51064999998198,
      "v": 61
    },
    {
      "midi": 57,
      "hit": false,
      "t": 135226.09087499962,
      "d": 34.57447500000126,
      "v": 39
    },
    {
      "midi": 69,
      "hit": false,
      "t": 135231.4100249996,
      "d": 37.234049999999115,
      "v": 42
    },
    {
      "midi": 72,
      "hit": false,
      "t": 135521.3036999996,
      "d": 66.48937500000466,
      "v": 59
    },
    {
      "midi": 46,
      "hit": false,
      "t": 135521.3036999996,
      "d": 77.12767499999609,
      "v": 50
    },
    {
      "midi": 67,
      "hit": false,
      "t": 135523.9632749996,
      "d": 45.21277499999269,
      "v": 68
    },
    {
      "midi": 62,
      "hit": false,
      "t": 135526.6228499996,
      "d": 31.9149000000034,
      "v": 62
    },
    {
      "midi": 55,
      "hit": false,
      "t": 135531.9419999996,
      "d": 34.57447500000126,
      "v": 48
    },
    {
      "midi": 46,
      "hit": false,
      "t": 135821.8356749996,
      "d": 611.7022500000021,
      "v": 45
    },
    {
      "midi": 70,
      "hit": false,
      "t": 135824.4952499996,
      "d": 199.46812500001397,
      "v": 62
    },
    {
      "midi": 67,
      "hit": false,
      "t": 135827.1548249996,
      "d": 93.08512499998324,
      "v": 62
    },
    {
      "midi": 55,
      "hit": false,
      "t": 135829.8143999996,
      "d": 210.1064250000054,
      "v": 49
    },
    {
      "midi": 62,
      "hit": false,
      "t": 135832.4739749996,
      "d": 111.70214999999735,
      "v": 59
    },
    {
      "midi": 69,
      "hit": false,
      "t": 136042.5803999996,
      "d": 138.29790000000503,
      "v": 59
    },
    {
      "midi": 62,
      "hit": false,
      "t": 136069.1761499996,
      "d": 154.25534999999218,
      "v": 14
    },
    {
      "midi": 67,
      "hit": false,
      "t": 136287.2612999996,
      "d": 71.80852500000037,
      "v": 58
    },
    {
      "midi": 62,
      "hit": false,
      "t": 136289.9208749996,
      "d": 106.38300000000163,
      "v": 33
    },
    {
      "midi": 46,
      "hit": false,
      "t": 136619.7081749996,
      "d": 226.06387499999255,
      "v": 31
    },
    {
      "midi": 60,
      "hit": false,
      "t": 136622.3677499996,
      "d": 218.08514999999898,
      "v": 36
    },
    {
      "midi": 63,
      "hit": false,
      "t": 136625.0273249996,
      "d": 255.3191999999981,
      "v": 32
    },
    {
      "midi": 56,
      "hit": false,
      "t": 136633.0060499996,
      "d": 244.68090000000666,
      "v": 25
    },
    {
      "midi": 84,
      "hit": false,
      "t": 137441.5168499996,
      "d": 69.14894999997341,
      "v": 58
    },
    {
      "midi": 56,
      "hit": false,
      "t": 137441.5168499996,
      "d": 87.76597499995842,
      "v": 36
    },
    {
      "midi": 72,
      "hit": false,
      "t": 137444.1764249996,
      "d": 55.85107499998412,
      "v": 40
    },
    {
      "midi": 67,
      "hit": false,
      "t": 137444.1764249996,
      "d": 66.48937499997555,
      "v": 50
    },
    {
      "midi": 77,
      "hit": false,
      "t": 137446.8359999996,
      "d": 58.51064999998198,
      "v": 49
    },
    {
      "midi": 80,
      "hit": false,
      "t": 137446.8359999996,
      "d": 71.80852499997127,
      "v": 35
    },
    {
      "midi": 63,
      "hit": false,
      "t": 137452.1551499996,
      "d": 74.46809999996913,
      "v": 42
    },
    {
      "midi": 60,
      "hit": false,
      "t": 137462.7934499996,
      "d": 39.89362499999697,
      "v": 50
    },
    {
      "midi": 72,
      "hit": false,
      "t": 137670.24029999957,
      "d": 58.51064999998198,
      "v": 48
    },
    {
      "midi": 84,
      "hit": false,
      "t": 137670.24029999957,
      "d": 77.12767499996698,
      "v": 63
    },
    {
      "midi": 67,
      "hit": false,
      "t": 137672.89987499957,
      "d": 63.829799999977695,
      "v": 49
    },
    {
      "midi": 80,
      "hit": false,
      "t": 137672.89987499957,
      "d": 77.12767499996698,
      "v": 37
    },
    {
      "midi": 77,
      "hit": false,
      "t": 137675.55944999956,
      "d": 69.14894999997341,
      "v": 41
    },
    {
      "midi": 56,
      "hit": false,
      "t": 137675.55944999956,
      "d": 77.12767499996698,
      "v": 34
    },
    {
      "midi": 63,
      "hit": false,
      "t": 137675.55944999956,
      "d": 90.42554999995627,
      "v": 37
    },
    {
      "midi": 60,
      "hit": false,
      "t": 137686.19774999956,
      "d": 61.17022499997984,
      "v": 48
    },
    {
      "midi": 84,
      "hit": false,
      "t": 137901.62332499953,
      "d": 236.70217499998398,
      "v": 58
    },
    {
      "midi": 80,
      "hit": false,
      "t": 137906.94247499952,
      "d": 250.00005000000237,
      "v": 37
    },
    {
      "midi": 56,
      "hit": false,
      "t": 137906.94247499952,
      "d": 353.72347499997704,
      "v": 38
    },
    {
      "midi": 77,
      "hit": false,
      "t": 137909.60204999952,
      "d": 281.9149500000058,
      "v": 51
    },
    {
      "midi": 72,
      "hit": false,
      "t": 137912.26162499952,
      "d": 268.6170750000165,
      "v": 34
    },
    {
      "midi": 67,
      "hit": false,
      "t": 137912.26162499952,
      "d": 329.7872999999963,
      "v": 43
    },
    {
      "midi": 63,
      "hit": false,
      "t": 137925.5594999995,
      "d": 321.80857500000275,
      "v": 31
    },
    {
      "midi": 60,
      "hit": false,
      "t": 137933.5382249995,
      "d": 308.51070000001346,
      "v": 45
    },
    {
      "midi": 82,
      "hit": false,
      "t": 138202.15529999952,
      "d": 98.40427499997895,
      "v": 46
    },
    {
      "midi": 80,
      "hit": false,
      "t": 138390.9851249995,
      "d": 109.04257499999949,
      "v": 68
    },
    {
      "midi": 67,
      "hit": false,
      "t": 138393.6446999995,
      "d": 401.5958249999967,
      "v": 59
    },
    {
      "midi": 56,
      "hit": false,
      "t": 138393.6446999995,
      "d": 476.063925000024,
      "v": 49
    },
    {
      "midi": 63,
      "hit": false,
      "t": 138401.6234249995,
      "d": 446.8086000000185,
      "v": 42
    },
    {
      "midi": 60,
      "hit": false,
      "t": 138412.2617249995,
      "d": 414.8937000000151,
      "v": 54
    },
    {
      "midi": 79,
      "hit": false,
      "t": 138579.8149499995,
      "d": 183.51067499999772,
      "v": 33
    },
    {
      "midi": 77,
      "hit": false,
      "t": 138763.3256249995,
      "d": 156.91492500001914,
      "v": 50
    },
    {
      "midi": 68,
      "hit": false,
      "t": 139167.58102499953,
      "d": 457.4468999999517,
      "v": 34
    },
    {
      "midi": 63,
      "hit": false,
      "t": 139178.21932499952,
      "d": 414.8936999999569,
      "v": 37
    },
    {
      "midi": 87,
      "hit": false,
      "t": 139180.87889999952,
      "d": 398.93624999996973,
      "v": 56
    },
    {
      "midi": 57,
      "hit": false,
      "t": 139188.8576249995,
      "d": 398.93624999996973,
      "v": 43
    },
    {
      "midi": 75,
      "hit": false,
      "t": 139191.5171999995,
      "d": 388.2979499999783,
      "v": 38
    },
    {
      "midi": 89,
      "hit": false,
      "t": 139808.53859999948,
      "d": 1000.0001999999804,
      "v": 54
    },
    {
      "midi": 77,
      "hit": false,
      "t": 139819.17689999947,
      "d": 1013.2980749999988,
      "v": 33
    },
    {
      "midi": 68,
      "hit": false,
      "t": 139821.83647499947,
      "d": 343.0851749999856,
      "v": 30
    },
    {
      "midi": 57,
      "hit": false,
      "t": 139829.81519999946,
      "d": 319.1490000000049,
      "v": 39
    },
    {
      "midi": 63,
      "hit": false,
      "t": 139851.09179999947,
      "d": 422.87242499997956,
      "v": 29
    },
    {
      "midi": 56,
      "hit": false,
      "t": 140428.21957499944,
      "d": 425.5320000000356,
      "v": 34
    },
    {
      "midi": 67,
      "hit": false,
      "t": 140436.19829999944,
      "d": 396.2766750000301,
      "v": 35
    },
    {
      "midi": 62,
      "hit": false,
      "t": 140465.45362499944,
      "d": 409.5745500000485,
      "v": 40
    },
    {
      "midi": 56,
      "hit": false,
      "t": 140978.7515999995,
      "d": 321.80857500000275,
      "v": 62
    },
    {
      "midi": 66,
      "hit": false,
      "t": 140981.4111749995,
      "d": 106.38300000000163,
      "v": 64
    },
    {
      "midi": 90,
      "hit": false,
      "t": 140989.38989999949,
      "d": 119.68087500002002,
      "v": 73
    },
    {
      "midi": 78,
      "hit": false,
      "t": 140992.04947499948,
      "d": 117.02130000002217,
      "v": 73
    },
    {
      "midi": 62,
      "hit": false,
      "t": 140992.04947499948,
      "d": 1015.9576499999966,
      "v": 53
    },
    {
      "midi": 66,
      "hit": false,
      "t": 141143.6452499995,
      "d": 148.93619999999646,
      "v": 55
    },
    {
      "midi": 91,
      "hit": false,
      "t": 141170.2409999995,
      "d": 106.38300000000163,
      "v": 62
    },
    {
      "midi": 79,
      "hit": false,
      "t": 141172.9005749995,
      "d": 103.72342500000377,
      "v": 55
    },
    {
      "midi": 66,
      "hit": false,
      "t": 141401.6240249995,
      "d": 135.63832499997807,
      "v": 48
    },
    {
      "midi": 56,
      "hit": false,
      "t": 141401.6240249995,
      "d": 156.91492499999003,
      "v": 52
    },
    {
      "midi": 92,
      "hit": false,
      "t": 141409.6027499995,
      "d": 122.34044999998878,
      "v": 73
    },
    {
      "midi": 80,
      "hit": false,
      "t": 141420.2410499995,
      "d": 159.574500000017,
      "v": 48
    },
    {
      "midi": 91,
      "hit": false,
      "t": 141640.9857749995,
      "d": 377.65964999995776,
      "v": 62
    },
    {
      "midi": 79,
      "hit": false,
      "t": 141646.3049249995,
      "d": 441.48944999996456,
      "v": 48
    },
    {
      "midi": 65,
      "hit": false,
      "t": 141651.6240749995,
      "d": 337.7660249999899,
      "v": 34
    },
    {
      "midi": 86,
      "hit": false,
      "t": 141656.9432249995,
      "d": 351.0638999999792,
      "v": 57
    },
    {
      "midi": 55,
      "hit": false,
      "t": 141656.9432249995,
      "d": 382.9787999999826,
      "v": 50
    },
    {
      "midi": 60,
      "hit": false,
      "t": 141667.5815249995,
      "d": 327.12772499999846,
      "v": 35
    },
    {
      "midi": 51,
      "hit": false,
      "t": 142364.39017499948,
      "d": 465.4256250000035,
      "v": 37
    },
    {
      "midi": 59,
      "hit": false,
      "t": 142390.9859249995,
      "d": 500.00010000000475,
      "v": 32
    },
    {
      "midi": 51,
      "hit": false,
      "t": 142896.3051749995,
      "d": 688.8299250000273,
      "v": 28
    },
    {
      "midi": 60,
      "hit": false,
      "t": 142917.5817749995,
      "d": 609.0426750000042,
      "v": 40
    },
    {
      "midi": 77,
      "hit": false,
      "t": 143204.8158749995,
      "d": 98.40427500000806,
      "v": 73
    },
    {
      "midi": 75,
      "hit": false,
      "t": 143343.1137749995,
      "d": 220.74472499999683,
      "v": 59
    },
    {
      "midi": 51,
      "hit": false,
      "t": 143622.36914999952,
      "d": 500.00010000003385,
      "v": 18
    },
    {
      "midi": 74,
      "hit": false,
      "t": 143638.3265999995,
      "d": 146.2766250000277,
      "v": 63
    },
    {
      "midi": 59,
      "hit": false,
      "t": 143656.94362499952,
      "d": 569.1490500000364,
      "v": 26
    },
    {
      "midi": 75,
      "hit": false,
      "t": 143824.49684999953,
      "d": 90.42554999998538,
      "v": 34
    },
    {
      "midi": 74,
      "hit": false,
      "t": 143872.36919999952,
      "d": 117.02130000002217,
      "v": 39
    },
    {
      "midi": 72,
      "hit": false,
      "t": 143970.77347499953,
      "d": 250.00005000003148,
      "v": 20
    },
    {
      "midi": 51,
      "hit": false,
      "t": 144284.60332499957,
      "d": 433.5107250000001,
      "v": 21
    },
    {
      "midi": 58,
      "hit": false,
      "t": 144292.58204999956,
      "d": 465.4256250000035,
      "v": 28
    },
    {
      "midi": 78,
      "hit": false,
      "t": 144906.94387499956,
      "d": 87.76597499998752,
      "v": 64
    },
    {
      "midi": 70,
      "hit": false,
      "t": 144909.60344999956,
      "d": 45.21277499999269,
      "v": 63
    },
    {
      "midi": 73,
      "hit": false,
      "t": 144920.24174999955,
      "d": 34.57447500000126,
      "v": 30
    },
    {
      "midi": 65,
      "hit": false,
      "t": 144925.56089999955,
      "d": 58.51065000001108,
      "v": 53
    },
    {
      "midi": 78,
      "hit": false,
      "t": 145550.56102499954,
      "d": 119.68087499996182,
      "v": 70
    },
    {
      "midi": 66,
      "hit": false,
      "t": 145555.88017499953,
      "d": 58.51064999998198,
      "v": 76
    },
    {
      "midi": 70,
      "hit": false,
      "t": 145558.53974999953,
      "d": 101.06384999997681,
      "v": 65
    },
    {
      "midi": 65,
      "hit": false,
      "t": 145563.85889999953,
      "d": 103.72342499997467,
      "v": 65
    },
    {
      "midi": 73,
      "hit": false,
      "t": 145566.51847499952,
      "d": 117.02129999996396,
      "v": 34
    },
    {
      "midi": 78,
      "hit": false,
      "t": 145763.32702499948,
      "d": 98.40427499994985,
      "v": 58
    },
    {
      "midi": 66,
      "hit": false,
      "t": 145779.28447499947,
      "d": 47.87234999996144,
      "v": 33
    },
    {
      "midi": 70,
      "hit": false,
      "t": 145781.94404999947,
      "d": 50.5319249999593,
      "v": 43
    },
    {
      "midi": 65,
      "hit": false,
      "t": 145784.60362499946,
      "d": 26.59574999997858,
      "v": 47
    },
    {
      "midi": 73,
      "hit": false,
      "t": 145800.56107499945,
      "d": 39.89362499996787,
      "v": 20
    },
    {
      "midi": 77,
      "hit": false,
      "t": 145914.92279999942,
      "d": 103.72342500000377,
      "v": 62
    },
    {
      "midi": 75,
      "hit": false,
      "t": 146090.45474999942,
      "d": 95.7447000000102,
      "v": 69
    },
    {
      "midi": 58,
      "hit": false,
      "t": 146093.11432499942,
      "d": 61.17022500000894,
      "v": 49
    },
    {
      "midi": 48,
      "hit": false,
      "t": 146095.77389999942,
      "d": 26.595750000007683,
      "v": 48
    },
    {
      "midi": 73,
      "hit": false,
      "t": 146284.60372499944,
      "d": 156.91492499999003,
      "v": 30
    },
    {
      "midi": 51,
      "hit": false,
      "t": 146449.49737499942,
      "d": 61.17022499997984,
      "v": 39
    },
    {
      "midi": 62,
      "hit": false,
      "t": 146462.7952499994,
      "d": 45.21277499999269,
      "v": 34
    },
    {
      "midi": 72,
      "hit": false,
      "t": 146505.3484499994,
      "d": 257.97877499999595,
      "v": 44
    },
    {
      "midi": 73,
      "hit": false,
      "t": 146821.83787499942,
      "d": 66.48937500000466,
      "v": 47
    },
    {
      "midi": 65,
      "hit": false,
      "t": 146835.1357499994,
      "d": 210.1064250000054,
      "v": 40
    },
    {
      "midi": 62,
      "hit": false,
      "t": 146856.41234999942,
      "d": 359.04262500000186,
      "v": 36
    },
    {
      "midi": 60,
      "hit": false,
      "t": 146867.0506499994,
      "d": 351.0639000000083,
      "v": 40
    },
    {
      "midi": 74,
      "hit": false,
      "t": 146898.9655499994,
      "d": 101.06385000000591,
      "v": 49
    },
    {
      "midi": 74,
      "hit": false,
      "t": 147053.2208999994,
      "d": 74.46809999999823,
      "v": 65
    },
    {
      "midi": 74,
      "hit": false,
      "t": 147191.5187999994,
      "d": 95.7447000000102,
      "v": 48
    },
    {
      "midi": 74,
      "hit": false,
      "t": 147364.39117499941,
      "d": 71.80852500000037,
      "v": 74
    },
    {
      "midi": 51,
      "hit": false,
      "t": 147510.6677999994,
      "d": 436.17029999996885,
      "v": 32
    },
    {
      "midi": 58,
      "hit": false,
      "t": 147529.28482499943,
      "d": 441.48944999993546,
      "v": 35
    },
    {
      "midi": 55,
      "hit": false,
      "t": 147534.60397499942,
      "d": 281.91494999997667,
      "v": 41
    },
    {
      "midi": 73,
      "hit": false,
      "t": 147537.26354999942,
      "d": 101.06384999997681,
      "v": 21
    },
    {
      "midi": 74,
      "hit": false,
      "t": 147553.2209999994,
      "d": 204.78727499998058,
      "v": 69
    },
    {
      "midi": 62,
      "hit": false,
      "t": 147742.0508249994,
      "d": 162.23407499998575,
      "v": 1
    },
    {
      "midi": 70,
      "hit": false,
      "t": 147787.2635999994,
      "d": 170.21279999997932,
      "v": 47
    },
    {
      "midi": 78,
      "hit": false,
      "t": 148093.11472499935,
      "d": 106.38299999997253,
      "v": 60
    },
    {
      "midi": 69,
      "hit": false,
      "t": 148106.41259999934,
      "d": 494.68094999997993,
      "v": 61
    },
    {
      "midi": 50,
      "hit": false,
      "t": 148111.73174999934,
      "d": 329.7872999999672,
      "v": 36
    },
    {
      "midi": 60,
      "hit": false,
      "t": 148111.73174999934,
      "d": 388.2979499999783,
      "v": 44
    },
    {
      "midi": 81,
      "hit": false,
      "t": 148117.05089999933,
      "d": 449.46817499998724,
      "v": 55
    },
    {
      "midi": 57,
      "hit": false,
      "t": 148125.02962499933,
      "d": 308.51069999998435,
      "v": 43
    },
    {
      "midi": 77,
      "hit": false,
      "t": 148742.05102499932,
      "d": 372.34049999999115,
      "v": 38
    },
    {
      "midi": 72,
      "hit": false,
      "t": 148747.37017499932,
      "d": 364.3617749999976,
      "v": 38
    },
    {
      "midi": 64,
      "hit": false,
      "t": 148750.02974999932,
      "d": 337.7660249999899,
      "v": 40
    },
    {
      "midi": 65,
      "hit": false,
      "t": 148758.0084749993,
      "d": 369.6809249999933,
      "v": 42
    },
    {
      "midi": 53,
      "hit": false,
      "t": 148760.6680499993,
      "d": 292.5532499999972,
      "v": 24
    },
    {
      "midi": 59,
      "hit": false,
      "t": 148760.6680499993,
      "d": 295.21282499999506,
      "v": 49
    },
    {
      "midi": 74,
      "hit": false,
      "t": 149367.05114999932,
      "d": 196.808549999987,
      "v": 80
    },
    {
      "midi": 67,
      "hit": false,
      "t": 149380.3490249993,
      "d": 244.68089999997756,
      "v": 85
    },
    {
      "midi": 63,
      "hit": false,
      "t": 149390.9873249993,
      "d": 234.04259999998612,
      "v": 48
    },
    {
      "midi": 58,
      "hit": false,
      "t": 149393.6468999993,
      "d": 263.29792499999166,
      "v": 49
    },
    {
      "midi": 62,
      "hit": false,
      "t": 149398.9660499993,
      "d": 202.12770000001183,
      "v": 63
    },
    {
      "midi": 72,
      "hit": false,
      "t": 149614.3916249993,
      "d": 53.19149999998626,
      "v": 28
    },
    {
      "midi": 74,
      "hit": false,
      "t": 149718.11504999927,
      "d": 103.72342500000377,
      "v": 60
    },
    {
      "midi": 72,
      "hit": false,
      "t": 149739.39164999928,
      "d": 103.72342500000377,
      "v": 36
    },
    {
      "midi": 65,
      "hit": false,
      "t": 150031.94489999927,
      "d": 529.2554249999812,
      "v": 34
    },
    {
      "midi": 50,
      "hit": false,
      "t": 150034.60447499927,
      "d": 316.48942500000703,
      "v": 34
    },
    {
      "midi": 57,
      "hit": false,
      "t": 150034.60447499927,
      "d": 329.7872999999963,
      "v": 43
    },
    {
      "midi": 60,
      "hit": false,
      "t": 150130.34917499928,
      "d": 279.2553749999788,
      "v": 18
    },
    {
      "midi": 51,
      "hit": false,
      "t": 150654.28544999927,
      "d": 247.3404749999754,
      "v": 37
    },
    {
      "midi": 62,
      "hit": false,
      "t": 150664.92374999926,
      "d": 218.08514999999898,
      "v": 34
    },
    {
      "midi": 67,
      "hit": false,
      "t": 150667.58332499926,
      "d": 226.06387499999255,
      "v": 47
    },
    {
      "midi": 58,
      "hit": false,
      "t": 150683.54077499924,
      "d": 252.65962500000023,
      "v": 29
    },
    {
      "midi": 63,
      "hit": false,
      "t": 151180.88129999925,
      "d": 406.9149749999633,
      "v": 49
    },
    {
      "midi": 60,
      "hit": false,
      "t": 151188.86002499925,
      "d": 372.34049999996205,
      "v": 48
    },
    {
      "midi": 53,
      "hit": false,
      "t": 151194.17917499924,
      "d": 369.6809249999642,
      "v": 36
    },
    {
      "midi": 58,
      "hit": false,
      "t": 151207.47704999923,
      "d": 375.000074999989,
      "v": 34
    },
    {
      "midi": 64,
      "hit": false,
      "t": 151938.86017499922,
      "d": 672.8724750000401,
      "v": 35
    },
    {
      "midi": 57,
      "hit": false,
      "t": 151941.51974999922,
      "d": 954.7874250000168,
      "v": 36
    },
    {
      "midi": 61,
      "hit": false,
      "t": 151960.13677499924,
      "d": 656.9150250000239,
      "v": 31
    },
    {
      "midi": 85,
      "hit": false,
      "t": 152276.62619999924,
      "d": 55.851075000013225,
      "v": 75
    },
    {
      "midi": 88,
      "hit": false,
      "t": 152486.73262499925,
      "d": 63.8298000000068,
      "v": 80
    },
    {
      "midi": 85,
      "hit": false,
      "t": 152646.30712499926,
      "d": 50.531924999988405,
      "v": 55
    },
    {
      "midi": 86,
      "hit": false,
      "t": 153103.75402499925,
      "d": 63.829799999977695,
      "v": 90
    },
    {
      "midi": 65,
      "hit": false,
      "t": 153114.39232499924,
      "d": 239.36174999998184,
      "v": 44
    },
    {
      "midi": 60,
      "hit": false,
      "t": 153127.69019999923,
      "d": 619.6809749999957,
      "v": 41
    },
    {
      "midi": 62,
      "hit": false,
      "t": 153127.69019999923,
      "d": 632.978849999985,
      "v": 47
    },
    {
      "midi": 89,
      "hit": false,
      "t": 153321.83917499922,
      "d": 77.12767499999609,
      "v": 77
    },
    {
      "midi": 53,
      "hit": false,
      "t": 153529.28602499922,
      "d": 571.8086250000051,
      "v": 51
    },
    {
      "midi": 86,
      "hit": false,
      "t": 153547.9030499992,
      "d": 53.19150000001537,
      "v": 80
    },
    {
      "midi": 90,
      "hit": false,
      "t": 154156.9457249992,
      "d": 93.08512500001234,
      "v": 79
    },
    {
      "midi": 66,
      "hit": false,
      "t": 154369.71172499922,
      "d": 74.46809999999823,
      "v": 59
    },
    {
      "midi": 93,
      "hit": false,
      "t": 154375.0308749992,
      "d": 82.4468249999918,
      "v": 92
    },
    {
      "midi": 57,
      "hit": false,
      "t": 154383.0095999992,
      "d": 42.55319999999483,
      "v": 44
    },
    {
      "midi": 62,
      "hit": false,
      "t": 154396.3074749992,
      "d": 95.7447000000102,
      "v": 44
    },
    {
      "midi": 90,
      "hit": false,
      "t": 154553.2223999992,
      "d": 106.38300000000163,
      "v": 56
    },
    {
      "midi": 66,
      "hit": false,
      "t": 155000.0309999992,
      "d": 42.55319999999483,
      "v": 60
    },
    {
      "midi": 62,
      "hit": false,
      "t": 155029.2863249992,
      "d": 39.89362499999697,
      "v": 35
    },
    {
      "midi": 81,
      "hit": false,
      "t": 155321.8395749992,
      "d": 42.55319999999483,
      "v": 45
    },
    {
      "midi": 86,
      "hit": false,
      "t": 155460.1374749992,
      "d": 34.57447500000126,
      "v": 48
    },
    {
      "midi": 93,
      "hit": false,
      "t": 155648.9672999992,
      "d": 79.78724999999395,
      "v": 90
    },
    {
      "midi": 62,
      "hit": false,
      "t": 155664.9247499992,
      "d": 401.5958249999967,
      "v": 53
    },
    {
      "midi": 89,
      "hit": false,
      "t": 155784.6056249992,
      "d": 167.55322499998147,
      "v": 66
    },
    {
      "midi": 55,
      "hit": false,
      "t": 155789.9247749992,
      "d": 188.82982499999343,
      "v": 49
    },
    {
      "midi": 60,
      "hit": false,
      "t": 155803.2226499992,
      "d": 140.9574750000029,
      "v": 31
    },
    {
      "midi": 65,
      "hit": false,
      "t": 156258.00997499918,
      "d": 53.19149999998626,
      "v": 47
    },
    {
      "midi": 62,
      "hit": false,
      "t": 156273.96742499917,
      "d": 132.9787500000093,
      "v": 32
    },
    {
      "midi": 55,
      "hit": false,
      "t": 156295.24402499918,
      "d": 42.55319999999483,
      "v": 40
    },
    {
      "midi": 60,
      "hit": false,
      "t": 156295.24402499918,
      "d": 45.21277499999269,
      "v": 37
    },
    {
      "midi": 84,
      "hit": false,
      "t": 156375.03127499917,
      "d": 146.2766249999986,
      "v": 83
    },
    {
      "midi": 82,
      "hit": false,
      "t": 156574.49939999916,
      "d": 87.76597499998752,
      "v": 63
    },
    {
      "midi": 62,
      "hit": false,
      "t": 156582.47812499915,
      "d": 79.78724999999395,
      "v": 54
    },
    {
      "midi": 65,
      "hit": false,
      "t": 156595.77599999914,
      "d": 34.57447500000126,
      "v": 41
    },
    {
      "midi": 60,
      "hit": false,
      "t": 156606.41429999913,
      "d": 74.46810000002733,
      "v": 38
    },
    {
      "midi": 81,
      "hit": false,
      "t": 156739.39304999917,
      "d": 143.61705000000075,
      "v": 33
    },
    {
      "midi": 79,
      "hit": false,
      "t": 156917.58457499917,
      "d": 58.51065000001108,
      "v": 60
    },
    {
      "midi": 63,
      "hit": false,
      "t": 157026.62714999917,
      "d": 353.72347499997704,
      "v": 35
    },
    {
      "midi": 56,
      "hit": false,
      "t": 157031.94629999917,
      "d": 324.4681500000006,
      "v": 30
    },
    {
      "midi": 67,
      "hit": false,
      "t": 157037.26544999916,
      "d": 289.89367499999935,
      "v": 30
    },
    {
      "midi": 80,
      "hit": false,
      "t": 157045.24417499916,
      "d": 170.21280000000843,
      "v": 53
    },
    {
      "midi": 60,
      "hit": false,
      "t": 157050.56332499915,
      "d": 311.1702750000113,
      "v": 46
    },
    {
      "midi": 84,
      "hit": false,
      "t": 157239.39314999917,
      "d": 71.80852500000037,
      "v": 73
    },
    {
      "midi": 77,
      "hit": false,
      "t": 157375.03147499915,
      "d": 191.4893999999913,
      "v": 39
    },
    {
      "midi": 72,
      "hit": false,
      "t": 157646.30812499914,
      "d": 215.42557500000112,
      "v": 33
    },
    {
      "midi": 68,
      "hit": false,
      "t": 157992.05287499915,
      "d": 204.78727500000969,
      "v": 42
    },
    {
      "midi": 67,
      "hit": false,
      "t": 158223.43589999917,
      "d": 34.57447500000126,
      "v": 40
    },
    {
      "midi": 68,
      "hit": false,
      "t": 158329.81889999917,
      "d": 125.00002500001574,
      "v": 50
    },
    {
      "midi": 63,
      "hit": false,
      "t": 158361.73379999917,
      "d": 93.08512500001234,
      "v": 30
    },
    {
      "midi": 56,
      "hit": false,
      "t": 158364.39337499917,
      "d": 85.10640000001877,
      "v": 29
    },
    {
      "midi": 60,
      "hit": false,
      "t": 158372.37209999916,
      "d": 58.51065000001108,
      "v": 25
    },
    {
      "midi": 70,
      "hit": false,
      "t": 158518.6487249992,
      "d": 95.7447000000102,
      "v": 33
    },
    {
      "midi": 68,
      "hit": false,
      "t": 158558.5423499992,
      "d": 95.7447000000102,
      "v": 35
    },
    {
      "midi": 67,
      "hit": false,
      "t": 158656.9466249992,
      "d": 167.55322500001057,
      "v": 33
    },
    {
      "midi": 66,
      "hit": false,
      "t": 158861.7338999992,
      "d": 74.46809999999823,
      "v": 45
    },
    {
      "midi": 67,
      "hit": false,
      "t": 158970.7764749992,
      "d": 196.808549999987,
      "v": 51
    },
    {
      "midi": 63,
      "hit": false,
      "t": 159164.9254499992,
      "d": 63.829799999977695,
      "v": 31
    },
    {
      "midi": 68,
      "hit": false,
      "t": 159164.9254499992,
      "d": 82.4468249999627,
      "v": 53
    },
    {
      "midi": 56,
      "hit": false,
      "t": 159183.54247499918,
      "d": 61.17022499997984,
      "v": 21
    },
    {
      "midi": 69,
      "hit": false,
      "t": 159308.54249999917,
      "d": 132.9787500000093,
      "v": 36
    },
    {
      "midi": 70,
      "hit": false,
      "t": 159489.39359999917,
      "d": 90.42554999998538,
      "v": 63
    },
    {
      "midi": 68,
      "hit": false,
      "t": 159497.37232499916,
      "d": 146.2766249999986,
      "v": 43
    },
    {
      "midi": 57,
      "hit": false,
      "t": 159505.35104999915,
      "d": 356.3830500000331,
      "v": 41
    },
    {
      "midi": 63,
      "hit": false,
      "t": 159508.01062499915,
      "d": 207.44685000000754,
      "v": 38
    },
    {
      "midi": 71,
      "hit": false,
      "t": 159643.64894999916,
      "d": 140.9574750000029,
      "v": 53
    },
    {
      "midi": 63,
      "hit": false,
      "t": 159805.88302499917,
      "d": 87.76597500001662,
      "v": 18
    },
    {
      "midi": 72,
      "hit": false,
      "t": 159805.88302499917,
      "d": 98.40427500000806,
      "v": 43
    },
    {
      "midi": 74,
      "hit": false,
      "t": 159949.50007499917,
      "d": 109.04257499999949,
      "v": 52
    },
    {
      "midi": 63,
      "hit": false,
      "t": 160109.07457499916,
      "d": 87.76597499998752,
      "v": 51
    },
    {
      "midi": 75,
      "hit": false,
      "t": 160111.73414999916,
      "d": 87.76597499998752,
      "v": 70
    },
    {
      "midi": 68,
      "hit": false,
      "t": 160117.05329999916,
      "d": 34.57447500000126,
      "v": 43
    },
    {
      "midi": 57,
      "hit": false,
      "t": 160135.67032499917,
      "d": 50.531924999988405,
      "v": 35
    },
    {
      "midi": 77,
      "hit": false,
      "t": 160271.30864999915,
      "d": 101.06385000000591,
      "v": 40
    },
    {
      "midi": 78,
      "hit": false,
      "t": 160430.88314999916,
      "d": 45.21277499999269,
      "v": 57
    },
    {
      "midi": 68,
      "hit": false,
      "t": 160433.54272499916,
      "d": 77.12767499999609,
      "v": 49
    },
    {
      "midi": 63,
      "hit": false,
      "t": 160433.54272499916,
      "d": 130.31917499998235,
      "v": 45
    },
    {
      "midi": 57,
      "hit": false,
      "t": 160436.20229999916,
      "d": 42.55319999999483,
      "v": 46
    },
    {
      "midi": 79,
      "hit": false,
      "t": 160582.47892499916,
      "d": 103.72342500000377,
      "v": 41
    },
    {
      "midi": 63,
      "hit": false,
      "t": 160758.01087499916,
      "d": 505.31925000000047,
      "v": 47
    },
    {
      "midi": 67,
      "hit": false,
      "t": 160760.67044999916,
      "d": 452.1277500000142,
      "v": 66
    },
    {
      "midi": 80,
      "hit": false,
      "t": 160771.30874999915,
      "d": 364.3617749999976,
      "v": 60
    },
    {
      "midi": 56,
      "hit": false,
      "t": 160771.30874999915,
      "d": 452.1277500000142,
      "v": 37
    },
    {
      "midi": 60,
      "hit": false,
      "t": 160784.60662499914,
      "d": 369.6809250000224,
      "v": 48
    },
    {
      "midi": 82,
      "hit": false,
      "t": 161406.94717499916,
      "d": 79.78725000002305,
      "v": 75
    },
    {
      "midi": 63,
      "hit": false,
      "t": 161425.56419999918,
      "d": 117.02129999999306,
      "v": 43
    },
    {
      "midi": 67,
      "hit": false,
      "t": 161430.88334999917,
      "d": 34.57447500000126,
      "v": 47
    },
    {
      "midi": 80,
      "hit": false,
      "t": 161529.28762499918,
      "d": 58.51064999998198,
      "v": 55
    },
    {
      "midi": 85,
      "hit": false,
      "t": 161758.01107499917,
      "d": 58.51064999998198,
      "v": 80
    },
    {
      "midi": 73,
      "hit": false,
      "t": 161760.67064999917,
      "d": 45.21277499999269,
      "v": 49
    },
    {
      "midi": 62,
      "hit": false,
      "t": 161768.64937499916,
      "d": 34.57447500000126,
      "v": 61
    },
    {
      "midi": 75,
      "hit": false,
      "t": 161776.62809999916,
      "d": 23.936175000009825,
      "v": 38
    },
    {
      "midi": 56,
      "hit": false,
      "t": 161781.94724999915,
      "d": 34.57447500000126,
      "v": 29
    },
    {
      "midi": 56,
      "hit": false,
      "t": 161906.94727499914,
      "d": 66.48937499997555,
      "v": 40
    },
    {
      "midi": 86,
      "hit": false,
      "t": 161912.26642499914,
      "d": 26.595750000007683,
      "v": 68
    },
    {
      "midi": 66,
      "hit": false,
      "t": 161912.26642499914,
      "d": 34.57447500000126,
      "v": 36
    },
    {
      "midi": 74,
      "hit": false,
      "t": 161917.58557499913,
      "d": 37.234049999999115,
      "v": 48
    },
    {
      "midi": 66,
      "hit": false,
      "t": 162082.47922499912,
      "d": 66.48937499997555,
      "v": 56
    },
    {
      "midi": 56,
      "hit": false,
      "t": 162087.7983749991,
      "d": 90.42554999998538,
      "v": 40
    },
    {
      "midi": 75,
      "hit": false,
      "t": 162095.7770999991,
      "d": 26.59574999997858,
      "v": 61
    },
    {
      "midi": 87,
      "hit": false,
      "t": 162095.7770999991,
      "d": 26.59574999997858,
      "v": 55
    },
    {
      "midi": 62,
      "hit": false,
      "t": 162109.0749749991,
      "d": 319.1490000000049,
      "v": 32
    },
    {
      "midi": 65,
      "hit": false,
      "t": 162242.0537249991,
      "d": 151.59577499999432,
      "v": 46
    },
    {
      "midi": 90,
      "hit": false,
      "t": 162247.3728749991,
      "d": 50.53192500001751,
      "v": 57
    },
    {
      "midi": 75,
      "hit": false,
      "t": 162247.3728749991,
      "d": 55.851075000013225,
      "v": 51
    },
    {
      "midi": 55,
      "hit": false,
      "t": 162268.6494749991,
      "d": 122.34044999998878,
      "v": 39
    },
    {
      "midi": 91,
      "hit": false,
      "t": 162300.5643749991,
      "d": 79.78724999999395,
      "v": 62
    },
    {
      "midi": 76,
      "hit": false,
      "t": 162343.1175749991,
      "d": 42.55319999999483,
      "v": 16
    },
    {
      "midi": 65,
      "hit": false,
      "t": 162484.0750499991,
      "d": 69.14894999997341,
      "v": 48
    },
    {
      "midi": 86,
      "hit": false,
      "t": 162497.3729249991,
      "d": 85.10639999996056,
      "v": 66
    },
    {
      "midi": 62,
      "hit": false,
      "t": 162505.3516499991,
      "d": 63.829799999977695,
      "v": 25
    },
    {
      "midi": 55,
      "hit": false,
      "t": 162508.0112249991,
      "d": 47.87234999999055,
      "v": 36
    },
    {
      "midi": 74,
      "hit": false,
      "t": 162508.0112249991,
      "d": 71.80852499997127,
      "v": 60
    },
    {
      "midi": 82,
      "hit": false,
      "t": 162792.58574999907,
      "d": 204.78727499998058,
      "v": 58
    },
    {
      "midi": 70,
      "hit": false,
      "t": 162800.56447499906,
      "d": 207.44684999997844,
      "v": 45
    },
    {
      "midi": 65,
      "hit": false,
      "t": 162800.56447499906,
      "d": 359.04262499997276,
      "v": 40
    },
    {
      "midi": 62,
      "hit": false,
      "t": 162808.54319999905,
      "d": 375.000074999989,
      "v": 36
    },
    {
      "midi": 55,
      "hit": false,
      "t": 162811.20277499905,
      "d": 345.74474999998347,
      "v": 40
    },
    {
      "midi": 60,
      "hit": false,
      "t": 162819.18149999905,
      "d": 329.7872999999963,
      "v": 44
    },
    {
      "midi": 79,
      "hit": false,
      "t": 163047.90494999904,
      "d": 106.38300000000163,
      "v": 36
    },
    {
      "midi": 82,
      "hit": false,
      "t": 163327.16032499904,
      "d": 63.829799999977695,
      "v": 62
    },
    {
      "midi": 70,
      "hit": false,
      "t": 163332.47947499904,
      "d": 45.21277499999269,
      "v": 69
    },
    {
      "midi": 65,
      "hit": false,
      "t": 163337.79862499904,
      "d": 26.595750000007683,
      "v": 57
    },
    {
      "midi": 62,
      "hit": false,
      "t": 163337.79862499904,
      "d": 34.57447500000126,
      "v": 57
    },
    {
      "midi": 51,
      "hit": false,
      "t": 163640.99017499902,
      "d": 87.76597499998752,
      "v": 37
    },
    {
      "midi": 62,
      "hit": false,
      "t": 163651.62847499902,
      "d": 34.57447500000126,
      "v": 49
    },
    {
      "midi": 58,
      "hit": false,
      "t": 163651.62847499902,
      "d": 50.531924999988405,
      "v": 40
    },
    {
      "midi": 55,
      "hit": false,
      "t": 163675.56464999903,
      "d": 31.914899999974295,
      "v": 30
    },
    {
      "midi": 63,
      "hit": false,
      "t": 163960.139174999,
      "d": 324.4681499999715,
      "v": 67
    },
    {
      "midi": 74,
      "hit": false,
      "t": 163960.139174999,
      "d": 335.10644999996293,
      "v": 72
    },
    {
      "midi": 67,
      "hit": false,
      "t": 163962.798749999,
      "d": 308.51069999998435,
      "v": 68
    },
    {
      "midi": 62,
      "hit": false,
      "t": 163965.458324999,
      "d": 329.7872999999672,
      "v": 75
    },
    {
      "midi": 70,
      "hit": false,
      "t": 163970.777474999,
      "d": 289.89367499999935,
      "v": 44
    },
    {
      "midi": 60,
      "hit": false,
      "t": 164316.52222499897,
      "d": 42.55319999999483,
      "v": 40
    },
    {
      "midi": 63,
      "hit": false,
      "t": 164396.30947499897,
      "d": 231.38302499998827,
      "v": 55
    },
    {
      "midi": 74,
      "hit": false,
      "t": 164401.62862499896,
      "d": 132.9787499999802,
      "v": 50
    },
    {
      "midi": 67,
      "hit": false,
      "t": 164406.94777499896,
      "d": 156.91492499999003,
      "v": 54
    },
    {
      "midi": 70,
      "hit": false,
      "t": 164412.26692499896,
      "d": 218.08514999999898,
      "v": 47
    },
    {
      "midi": 62,
      "hit": false,
      "t": 164420.24564999895,
      "d": 138.29790000000503,
      "v": 47
    },
    {
      "midi": 73,
      "hit": false,
      "t": 164712.79889999895,
      "d": 609.0426750000042,
      "v": 42
    },
    {
      "midi": 61,
      "hit": false,
      "t": 164723.43719999894,
      "d": 430.85115000000224,
      "v": 49
    },
    {
      "midi": 63,
      "hit": false,
      "t": 164723.43719999894,
      "d": 462.76605000000563,
      "v": 35
    },
    {
      "midi": 66,
      "hit": false,
      "t": 164723.43719999894,
      "d": 539.8937250000017,
      "v": 48
    },
    {
      "midi": 70,
      "hit": false,
      "t": 164731.41592499893,
      "d": 569.1490500000073,
      "v": 36
    },
    {
      "midi": 61,
      "hit": false,
      "t": 165340.45859999896,
      "d": 223.4042999999947,
      "v": 30
    },
    {
      "midi": 51,
      "hit": false,
      "t": 165356.41604999895,
      "d": 188.82982499999343,
      "v": 25
    },
    {
      "midi": 54,
      "hit": false,
      "t": 165372.37349999894,
      "d": 164.8936500000127,
      "v": 25
    },
    {
      "midi": 61,
      "hit": false,
      "t": 165883.01189999896,
      "d": 218.08514999996987,
      "v": 46
    },
    {
      "midi": 94,
      "hit": false,
      "t": 165890.99062499896,
      "d": 93.08512499998324,
      "v": 79
    },
    {
      "midi": 54,
      "hit": false,
      "t": 165896.30977499895,
      "d": 348.4043249999813,
      "v": 35
    },
    {
      "midi": 65,
      "hit": false,
      "t": 165901.62892499895,
      "d": 276.59579999998095,
      "v": 39
    },
    {
      "midi": 58,
      "hit": false,
      "t": 165904.28849999895,
      "d": 414.893699999986,
      "v": 37
    },
    {
      "midi": 96,
      "hit": false,
      "t": 166055.88427499894,
      "d": 66.48937499997555,
      "v": 19
    },
    {
      "midi": 94,
      "hit": false,
      "t": 166114.39492499892,
      "d": 85.10640000001877,
      "v": 55
    },
    {
      "midi": 61,
      "hit": false,
      "t": 166140.99067499893,
      "d": 186.17024999999558,
      "v": 17
    },
    {
      "midi": 92,
      "hit": false,
      "t": 166202.16089999894,
      "d": 29.25532500000554,
      "v": 52
    },
    {
      "midi": 90,
      "hit": false,
      "t": 166268.65027499894,
      "d": 111.70214999996824,
      "v": 56
    },
    {
      "midi": 89,
      "hit": false,
      "t": 166388.3311499989,
      "d": 93.08512500001234,
      "v": 57
    },
    {
      "midi": 87,
      "hit": false,
      "t": 166571.84182499893,
      "d": 69.14895000000251,
      "v": 67
    },
    {
      "midi": 65,
      "hit": false,
      "t": 166582.48012499893,
      "d": 31.9149000000034,
      "v": 56
    },
    {
      "midi": 61,
      "hit": false,
      "t": 166587.79927499892,
      "d": 90.42555000001448,
      "v": 38
    },
    {
      "midi": 85,
      "hit": false,
      "t": 166728.75674999892,
      "d": 101.06385000000591,
      "v": 44
    },
    {
      "midi": 84,
      "hit": false,
      "t": 166885.67167499894,
      "d": 53.19150000001537,
      "v": 74
    },
    {
      "midi": 61,
      "hit": false,
      "t": 166904.28869999896,
      "d": 71.80852500000037,
      "v": 36
    },
    {
      "midi": 82,
      "hit": false,
      "t": 167008.01212499896,
      "d": 101.06385000000591,
      "v": 42
    },
    {
      "midi": 81,
      "hit": false,
      "t": 167207.48024999897,
      "d": 34.57447500000126,
      "v": 50
    },
    {
      "midi": 65,
      "hit": false,
      "t": 167263.331324999,
      "d": 95.7447000000102,
      "v": 15
    },
    {
      "midi": 62,
      "hit": false,
      "t": 167281.948349999,
      "d": 462.76604999997653,
      "v": 29
    },
    {
      "midi": 60,
      "hit": false,
      "t": 167295.246224999,
      "d": 409.57454999999027,
      "v": 32
    },
    {
      "midi": 82,
      "hit": false,
      "t": 167313.863249999,
      "d": 85.10639999998966,
      "v": 57
    },
    {
      "midi": 84,
      "hit": false,
      "t": 167486.73562499898,
      "d": 63.8298000000068,
      "v": 59
    },
    {
      "midi": 53,
      "hit": false,
      "t": 167577.161174999,
      "d": 335.10644999999204,
      "v": 19
    },
    {
      "midi": 86,
      "hit": false,
      "t": 167617.054799999,
      "d": 114.3617249999952,
      "v": 73
    },
    {
      "midi": 84,
      "hit": false,
      "t": 167654.288849999,
      "d": 47.87234999999055,
      "v": 26
    },
    {
      "midi": 86,
      "hit": false,
      "t": 167904.288899999,
      "d": 465.4256249999744,
      "v": 68
    },
    {
      "midi": 74,
      "hit": false,
      "t": 167920.24634999898,
      "d": 406.9149749999924,
      "v": 48
    },
    {
      "midi": 50,
      "hit": false,
      "t": 168093.118724999,
      "d": 90.42554999998538,
      "v": 51
    },
    {
      "midi": 82,
      "hit": false,
      "t": 168420.24644999896,
      "d": 34.57447500000126,
      "v": 29
    },
    {
      "midi": 80,
      "hit": false,
      "t": 168694.18267499897,
      "d": 53.19149999995716,
      "v": 44
    },
    {
      "midi": 92,
      "hit": false,
      "t": 168704.82097499896,
      "d": 53.19149999995716,
      "v": 33
    },
    {
      "midi": 51,
      "hit": false,
      "t": 168720.77842499895,
      "d": 566.4894749999803,
      "v": 46
    },
    {
      "midi": 62,
      "hit": false,
      "t": 168726.09757499894,
      "d": 537.2341500000039,
      "v": 58
    },
    {
      "midi": 58,
      "hit": false,
      "t": 168728.75714999894,
      "d": 561.1703249999846,
      "v": 50
    },
    {
      "midi": 55,
      "hit": false,
      "t": 168736.73587499894,
      "d": 534.574575000006,
      "v": 68
    },
    {
      "midi": 93,
      "hit": false,
      "t": 168742.05502499893,
      "d": 468.08520000000135,
      "v": 54
    },
    {
      "midi": 81,
      "hit": false,
      "t": 168795.24652499892,
      "d": 478.7235000000219,
      "v": 13
    },
    {
      "midi": 91,
      "hit": false,
      "t": 169143.65084999893,
      "d": 93.08512500001234,
      "v": 1
    },
    {
      "midi": 89,
      "hit": false,
      "t": 169380.35302499894,
      "d": 215.42557500000112,
      "v": 60
    },
    {
      "midi": 77,
      "hit": false,
      "t": 169390.99132499893,
      "d": 186.17024999999558,
      "v": 44
    },
    {
      "midi": 58,
      "hit": false,
      "t": 169398.97004999893,
      "d": 204.78727500000969,
      "v": 42
    },
    {
      "midi": 51,
      "hit": false,
      "t": 169401.62962499892,
      "d": 167.55322500001057,
      "v": 35
    },
    {
      "midi": 55,
      "hit": false,
      "t": 169428.22537499893,
      "d": 122.34044999998878,
      "v": 34
    },
    {
      "midi": 62,
      "hit": false,
      "t": 169428.22537499893,
      "d": 204.78727500000969,
      "v": 29
    },
    {
      "midi": 54,
      "hit": false,
      "t": 169808.54459999895,
      "d": 95.74469999995199,
      "v": 38
    },
    {
      "midi": 65,
      "hit": false,
      "t": 169813.86374999894,
      "d": 66.48937499997555,
      "v": 46
    },
    {
      "midi": 93,
      "hit": false,
      "t": 169816.52332499894,
      "d": 74.46809999996913,
      "v": 60
    },
    {
      "midi": 81,
      "hit": false,
      "t": 169829.82119999893,
      "d": 53.19149999998626,
      "v": 33
    },
    {
      "midi": 88,
      "hit": false,
      "t": 169832.48077499893,
      "d": 39.89362499999697,
      "v": 33
    },
    {
      "midi": 60,
      "hit": false,
      "t": 169837.79992499892,
      "d": 39.89362499999697,
      "v": 39
    },
    {
      "midi": 54,
      "hit": false,
      "t": 170114.3957249989,
      "d": 117.02129999996396,
      "v": 35
    },
    {
      "midi": 65,
      "hit": false,
      "t": 170122.3744499989,
      "d": 90.42554999998538,
      "v": 40
    },
    {
      "midi": 93,
      "hit": false,
      "t": 170125.0340249989,
      "d": 90.42554999998538,
      "v": 60
    },
    {
      "midi": 81,
      "hit": false,
      "t": 170130.3531749989,
      "d": 101.06384999997681,
      "v": 42
    },
    {
      "midi": 88,
      "hit": false,
      "t": 170135.6723249989,
      "d": 77.12767499999609,
      "v": 40
    },
    {
      "midi": 60,
      "hit": false,
      "t": 170146.31062499888,
      "d": 61.17022500000894,
      "v": 41
    },
    {
      "midi": 54,
      "hit": false,
      "t": 170438.86387499887,
      "d": 159.5744999999588,
      "v": 42
    },
    {
      "midi": 93,
      "hit": false,
      "t": 170441.52344999887,
      "d": 186.17024999996647,
      "v": 61
    },
    {
      "midi": 65,
      "hit": false,
      "t": 170449.50217499887,
      "d": 130.31917499998235,
      "v": 36
    },
    {
      "midi": 81,
      "hit": false,
      "t": 170452.16174999886,
      "d": 167.55322499998147,
      "v": 33
    },
    {
      "midi": 88,
      "hit": false,
      "t": 170462.80004999886,
      "d": 109.04257499999949,
      "v": 33
    },
    {
      "midi": 60,
      "hit": false,
      "t": 170476.09792499884,
      "d": 109.04257499999949,
      "v": 33
    },
    {
      "midi": 89,
      "hit": false,
      "t": 170680.88519999883,
      "d": 31.914899999974295,
      "v": 46
    },
    {
      "midi": 54,
      "hit": false,
      "t": 170688.86392499882,
      "d": 117.02129999996396,
      "v": 34
    },
    {
      "midi": 65,
      "hit": false,
      "t": 170694.18307499881,
      "d": 34.57447499997215,
      "v": 29
    },
    {
      "midi": 93,
      "hit": false,
      "t": 170973.4384499988,
      "d": 414.893699999986,
      "v": 68
    },
    {
      "midi": 64,
      "hit": false,
      "t": 170978.7575999988,
      "d": 436.17029999999795,
      "v": 33
    },
    {
      "midi": 81,
      "hit": false,
      "t": 170981.4171749988,
      "d": 465.4256250000035,
      "v": 48
    },
    {
      "midi": 53,
      "hit": false,
      "t": 170981.4171749988,
      "d": 518.6171250000189,
      "v": 32
    },
    {
      "midi": 59,
      "hit": false,
      "t": 170989.39589999878,
      "d": 481.38307500001974,
      "v": 40
    },
    {
      "midi": 88,
      "hit": false,
      "t": 170992.05547499878,
      "d": 382.9788000000117,
      "v": 44
    },
    {
      "midi": 92,
      "hit": false,
      "t": 171617.0555999988,
      "d": 87.76597499998752,
      "v": 81
    },
    {
      "midi": 53,
      "hit": false,
      "t": 171625.0343249988,
      "d": 343.0851750000147,
      "v": 48
    },
    {
      "midi": 62,
      "hit": false,
      "t": 171638.33219999878,
      "d": 390.95752500003437,
      "v": 43
    },
    {
      "midi": 59,
      "hit": false,
      "t": 171646.31092499878,
      "d": 284.57452500003274,
      "v": 28
    },
    {
      "midi": 87,
      "hit": false,
      "t": 171656.94922499877,
      "d": 23.936175000009825,
      "v": 25
    },
    {
      "midi": 89,
      "hit": false,
      "t": 171800.5662749988,
      "d": 135.63832500000717,
      "v": 38
    },
    {
      "midi": 86,
      "hit": false,
      "t": 171941.5237499988,
      "d": 90.42555000001448,
      "v": 66
    },
    {
      "midi": 83,
      "hit": false,
      "t": 172066.52377499882,
      "d": 109.04257499999949,
      "v": 36
    },
    {
      "midi": 79,
      "hit": false,
      "t": 172279.28977499882,
      "d": 50.53192500001751,
      "v": 39
    },
    {
      "midi": 67,
      "hit": false,
      "t": 172364.39617499884,
      "d": 305.8511250000156,
      "v": 24
    },
    {
      "midi": 63,
      "hit": false,
      "t": 172383.01319999885,
      "d": 359.04262500000186,
      "v": 23
    },
    {
      "midi": 58,
      "hit": false,
      "t": 172385.67277499885,
      "d": 944.1491249999963,
      "v": 29
    },
    {
      "midi": 82,
      "hit": false,
      "t": 172390.99192499885,
      "d": 154.25535000002128,
      "v": 68
    },
    {
      "midi": 62,
      "hit": false,
      "t": 172412.26852499886,
      "d": 343.0851749999856,
      "v": 25
    },
    {
      "midi": 79,
      "hit": false,
      "t": 172696.84304999886,
      "d": 111.70214999996824,
      "v": 66
    },
    {
      "midi": 75,
      "hit": false,
      "t": 172883.01329999883,
      "d": 130.31917500001146,
      "v": 55
    },
    {
      "midi": 63,
      "hit": false,
      "t": 172922.90692499882,
      "d": 69.14895000000251,
      "v": 19
    },
    {
      "midi": 74,
      "hit": false,
      "t": 173050.56652499884,
      "d": 106.38300000000163,
      "v": 24
    },
    {
      "midi": 77,
      "hit": false,
      "t": 173202.16229999883,
      "d": 93.08512500001234,
      "v": 61
    },
    {
      "midi": 67,
      "hit": false,
      "t": 173220.77932499885,
      "d": 42.55319999999483,
      "v": 47
    },
    {
      "midi": 63,
      "hit": false,
      "t": 173250.03464999885,
      "d": 71.80852500000037,
      "v": 20
    },
    {
      "midi": 75,
      "hit": false,
      "t": 173343.11977499884,
      "d": 119.68087499999092,
      "v": 46
    },
    {
      "midi": 74,
      "hit": false,
      "t": 173646.31132499882,
      "d": 135.63832499997807,
      "v": 74
    },
    {
      "midi": 63,
      "hit": false,
      "t": 173651.63047499882,
      "d": 279.2553749999788,
      "v": 33
    },
    {
      "midi": 57,
      "hit": false,
      "t": 173659.6091999988,
      "d": 324.4681499999715,
      "v": 29
    },
    {
      "midi": 75,
      "hit": false,
      "t": 173832.4815749988,
      "d": 109.04257499999949,
      "v": 39
    },
    {
      "midi": 74,
      "hit": false,
      "t": 173864.3964749988,
      "d": 125.00002499998664,
      "v": 42
    },
    {
      "midi": 72,
      "hit": false,
      "t": 173994.71564999878,
      "d": 167.55322500001057,
      "v": 25
    },
    {
      "midi": 70,
      "hit": false,
      "t": 174191.5241999988,
      "d": 58.51065000001108,
      "v": 56
    },
    {
      "midi": 69,
      "hit": false,
      "t": 174401.6306249988,
      "d": 159.5744999999879,
      "v": 47
    },
    {
      "midi": 72,
      "hit": false,
      "t": 174627.6944999988,
      "d": 234.04259999998612,
      "v": 49
    },
    {
      "midi": 65,
      "hit": false,
      "t": 174837.8009249988,
      "d": 140.95747499997378,
      "v": 48
    },
    {
      "midi": 60,
      "hit": false,
      "t": 174853.75837499878,
      "d": 37.234049999999115,
      "v": 31
    },
    {
      "midi": 64,
      "hit": false,
      "t": 175050.56692499877,
      "d": 183.51067499999772,
      "v": 43
    },
    {
      "midi": 67,
      "hit": false,
      "t": 175268.65207499877,
      "d": 127.6596000000136,
      "v": 53
    },
    {
      "midi": 65,
      "hit": false,
      "t": 175457.4818999988,
      "d": 130.31917500001146,
      "v": 57
    },
    {
      "midi": 60,
      "hit": false,
      "t": 175646.3117249988,
      "d": 135.63832500000717,
      "v": 42
    },
    {
      "midi": 50,
      "hit": false,
      "t": 175789.9287749988,
      "d": 47.87234999999055,
      "v": 24
    },
    {
      "midi": 60,
      "hit": false,
      "t": 175880.3543249988,
      "d": 444.1490249999915,
      "v": 39
    },
    {
      "midi": 43,
      "hit": false,
      "t": 176066.5245749988,
      "d": 965.42572499995,
      "v": 51
    },
    {
      "midi": 58,
      "hit": false,
      "t": 176380.3544249988,
      "d": 117.02129999999306,
      "v": 60
    },
    {
      "midi": 53,
      "hit": false,
      "t": 176396.3118749988,
      "d": 77.12767499999609,
      "v": 26
    },
    {
      "midi": 59,
      "hit": false,
      "t": 176526.6310499988,
      "d": 117.02129999999306,
      "v": 51
    },
    {
      "midi": 60,
      "hit": false,
      "t": 176683.5459749988,
      "d": 77.12767499999609,
      "v": 75
    },
    {
      "midi": 53,
      "hit": false,
      "t": 176704.8225749988,
      "d": 50.531924999988405,
      "v": 48
    },
    {
      "midi": 61,
      "hit": false,
      "t": 176835.1417499988,
      "d": 122.34044999998878,
      "v": 74
    },
    {
      "midi": 62,
      "hit": false,
      "t": 177010.67369999876,
      "d": 98.40427500000806,
      "v": 73
    },
    {
      "midi": 53,
      "hit": false,
      "t": 177026.63114999875,
      "d": 61.17022500000894,
      "v": 42
    },
    {
      "midi": 65,
      "hit": false,
      "t": 177162.26947499876,
      "d": 50.531924999988405,
      "v": 29
    },
    {
      "midi": 55,
      "hit": false,
      "t": 177343.12057499876,
      "d": 58.51065000001108,
      "v": 40
    },
    {
      "midi": 74,
      "hit": false,
      "t": 177361.73759999877,
      "d": 143.61705000000075,
      "v": 75
    },
    {
      "midi": 48,
      "hit": false,
      "t": 177502.69507499877,
      "d": 167.55322499998147,
      "v": 34
    },
    {
      "midi": 58,
      "hit": false,
      "t": 177502.69507499877,
      "d": 183.51067499996861,
      "v": 35
    },
    {
      "midi": 70,
      "hit": false,
      "t": 177513.33337499877,
      "d": 167.55322499998147,
      "v": 42
    },
    {
      "midi": 62,
      "hit": false,
      "t": 177553.22699999876,
      "d": 162.23407499998575,
      "v": 19
    },
    {
      "midi": 48,
      "hit": false,
      "t": 177773.97172499873,
      "d": 79.78724999999395,
      "v": 24
    },
    {
      "midi": 70,
      "hit": false,
      "t": 177779.29087499873,
      "d": 130.31917500001146,
      "v": 51
    },
    {
      "midi": 62,
      "hit": false,
      "t": 177781.95044999872,
      "d": 98.40427500000806,
      "v": 27
    },
    {
      "midi": 58,
      "hit": false,
      "t": 177787.26959999872,
      "d": 122.34045000001788,
      "v": 31
    },
    {
      "midi": 67,
      "hit": false,
      "t": 177805.88662499873,
      "d": 55.85107499998412,
      "v": 24
    },
    {
      "midi": 77,
      "hit": false,
      "t": 178313.86544999873,
      "d": 98.40427500000806,
      "v": 66
    },
    {
      "midi": 72,
      "hit": false,
      "t": 178460.14207499873,
      "d": 183.51067499996861,
      "v": 45
    },
    {
      "midi": 50,
      "hit": false,
      "t": 178470.78037499872,
      "d": 236.70217499995488,
      "v": 34
    },
    {
      "midi": 65,
      "hit": false,
      "t": 178476.09952499872,
      "d": 162.23407499998575,
      "v": 33
    },
    {
      "midi": 57,
      "hit": false,
      "t": 178486.7378249987,
      "d": 215.425574999972,
      "v": 29
    },
    {
      "midi": 60,
      "hit": false,
      "t": 178489.3973999987,
      "d": 257.97877499996684,
      "v": 24
    },
    {
      "midi": 72,
      "hit": false,
      "t": 178691.5250999987,
      "d": 63.829799999977695,
      "v": 57
    },
    {
      "midi": 79,
      "hit": false,
      "t": 178965.46132499867,
      "d": 117.02129999996396,
      "v": 73
    },
    {
      "midi": 51,
      "hit": false,
      "t": 178968.12089999867,
      "d": 343.0851749999565,
      "v": 52
    },
    {
      "midi": 62,
      "hit": false,
      "t": 178992.05707499865,
      "d": 356.3830499999458,
      "v": 32
    },
    {
      "midi": 58,
      "hit": false,
      "t": 179000.03579999864,
      "d": 329.7872999999672,
      "v": 26
    },
    {
      "midi": 74,
      "hit": false,
      "t": 179114.39752499864,
      "d": 143.61705000000075,
      "v": 38
    },
    {
      "midi": 67,
      "hit": false,
      "t": 179117.05709999864,
      "d": 138.29790000000503,
      "v": 37
    },
    {
      "midi": 74,
      "hit": false,
      "t": 179316.52522499862,
      "d": 74.46809999996913,
      "v": 55
    },
    {
      "midi": 67,
      "hit": false,
      "t": 179340.4613999986,
      "d": 55.85107499998412,
      "v": 44
    },
    {
      "midi": 63,
      "hit": false,
      "t": 179585.14229999858,
      "d": 95.7446999999811,
      "v": 49
    },
    {
      "midi": 77,
      "hit": false,
      "t": 179585.14229999858,
      "d": 111.70214999996824,
      "v": 63
    },
    {
      "midi": 60,
      "hit": false,
      "t": 179606.4188999986,
      "d": 39.89362499996787,
      "v": 34
    },
    {
      "midi": 53,
      "hit": false,
      "t": 179609.0784749986,
      "d": 202.12769999995362,
      "v": 22
    },
    {
      "midi": 65,
      "hit": false,
      "t": 179614.3976249986,
      "d": 37.23404999997001,
      "v": 38
    },
    {
      "midi": 58,
      "hit": false,
      "t": 179635.67422499857,
      "d": 119.68087499999092,
      "v": 25
    },
    {
      "midi": 74,
      "hit": false,
      "t": 179758.01467499856,
      "d": 127.6595999999845,
      "v": 34
    },
    {
      "midi": 74,
      "hit": false,
      "t": 180013.33387499853,
      "d": 273.9362249999831,
      "v": 50
    },
    {
      "midi": 65,
      "hit": false,
      "t": 180018.65302499852,
      "d": 111.70214999996824,
      "v": 42
    },
    {
      "midi": 69,
      "hit": false,
      "t": 180018.65302499852,
      "d": 202.12769999998272,
      "v": 44
    },
    {
      "midi": 70,
      "hit": false,
      "t": 180034.6104749985,
      "d": 188.82982499999343,
      "v": 46
    },
    {
      "midi": 60,
      "hit": false,
      "t": 180063.86579999852,
      "d": 414.893699999986,
      "v": 32
    },
    {
      "midi": 62,
      "hit": false,
      "t": 180077.1636749985,
      "d": 425.5320000000065,
      "v": 29
    },
    {
      "midi": 53,
      "hit": false,
      "t": 180255.3551999985,
      "d": 579.7873499999696,
      "v": 29
    },
    {
      "midi": 65,
      "hit": false,
      "t": 180651.6318749985,
      "d": 138.29789999997593,
      "v": 55
    },
    {
      "midi": 84,
      "hit": false,
      "t": 180659.6105999985,
      "d": 146.2766249999695,
      "v": 84
    },
    {
      "midi": 62,
      "hit": false,
      "t": 180662.2701749985,
      "d": 297.8723999999638,
      "v": 40
    },
    {
      "midi": 60,
      "hit": false,
      "t": 180670.2488999985,
      "d": 220.74472499999683,
      "v": 40
    },
    {
      "midi": 53,
      "hit": false,
      "t": 180949.50427499847,
      "d": 755.3192999999737,
      "v": 32
    },
    {
      "midi": 82,
      "hit": false,
      "t": 180984.07874999847,
      "d": 130.31917500001146,
      "v": 44
    },
    {
      "midi": 84,
      "hit": false,
      "t": 181180.8872999985,
      "d": 332.4468749999651,
      "v": 77
    },
    {
      "midi": 63,
      "hit": false,
      "t": 181186.20644999848,
      "d": 375.0000749999599,
      "v": 43
    },
    {
      "midi": 65,
      "hit": false,
      "t": 181191.52559999848,
      "d": 476.0639249999658,
      "v": 60
    },
    {
      "midi": 58,
      "hit": false,
      "t": 181194.18517499848,
      "d": 393.617099999974,
      "v": 36
    },
    {
      "midi": 86,
      "hit": false,
      "t": 181508.01502499846,
      "d": 42.55319999999483,
      "v": 61
    },
    {
      "midi": 41,
      "hit": false,
      "t": 181515.99374999845,
      "d": 625.0001249999914,
      "v": 52
    },
    {
      "midi": 87,
      "hit": false,
      "t": 181633.01504999844,
      "d": 135.63832500000717,
      "v": 61
    },
    {
      "midi": 53,
      "hit": false,
      "t": 181816.52572499844,
      "d": 390.95752500000526,
      "v": 47
    },
    {
      "midi": 89,
      "hit": false,
      "t": 181821.84487499844,
      "d": 101.06385000000591,
      "v": 70
    },
    {
      "midi": 91,
      "hit": false,
      "t": 182000.03639999847,
      "d": 50.531924999988405,
      "v": 42
    },
    {
      "midi": 93,
      "hit": false,
      "t": 182164.93004999845,
      "d": 34.57447500000126,
      "v": 39
    },
    {
      "midi": 95,
      "hit": false,
      "t": 182170.24919999845,
      "d": 26.595750000007683,
      "v": 44
    },
    {
      "midi": 94,
      "hit": false,
      "t": 182276.63219999845,
      "d": 63.8298000000068,
      "v": 33
    },
    {
      "midi": 96,
      "hit": false,
      "t": 182481.41947499846,
      "d": 50.531924999988405,
      "v": 64
    },
    {
      "midi": 46,
      "hit": false,
      "t": 182571.84502499845,
      "d": 380.3192249999847,
      "v": 28
    },
    {
      "midi": 53,
      "hit": false,
      "t": 182585.14289999843,
      "d": 279.2553750000079,
      "v": 20
    },
    {
      "midi": 60,
      "hit": false,
      "t": 182906.95147499844,
      "d": 188.82982499999343,
      "v": 85
    },
    {
      "midi": 57,
      "hit": false,
      "t": 183127.69619999843,
      "d": 71.80852500000037,
      "v": 42
    },
    {
      "midi": 58,
      "hit": false,
      "t": 183252.69622499842,
      "d": 146.2766249999986,
      "v": 25
    },
    {
      "midi": 60,
      "hit": false,
      "t": 183436.20689999842,
      "d": 329.7872999999963,
      "v": 29
    },
    {
      "midi": 61,
      "hit": false,
      "t": 183723.44099999842,
      "d": 122.34044999998878,
      "v": 79
    },
    {
      "midi": 63,
      "hit": false,
      "t": 183912.2708249984,
      "d": 109.04257499999949,
      "v": 53
    },
    {
      "midi": 64,
      "hit": false,
      "t": 184053.22829999842,
      "d": 103.72342499997467,
      "v": 67
    },
    {
      "midi": 54,
      "hit": false,
      "t": 184103.7602249984,
      "d": 69.14894999997341,
      "v": 27
    },
    {
      "midi": 66,
      "hit": false,
      "t": 184207.48364999838,
      "d": 109.04257499999949,
      "v": 36
    },
    {
      "midi": 67,
      "hit": false,
      "t": 184361.73899999837,
      "d": 87.76597499998752,
      "v": 59
    },
    {
      "midi": 69,
      "hit": false,
      "t": 184510.67519999837,
      "d": 117.02129999999306,
      "v": 63
    },
    {
      "midi": 70,
      "hit": false,
      "t": 184712.80289999835,
      "d": 61.17022500000894,
      "v": 62
    },
    {
      "midi": 72,
      "hit": false,
      "t": 184840.46249999836,
      "d": 114.3617249999952,
      "v": 72
    },
    {
      "midi": 74,
      "hit": false,
      "t": 185029.29232499836,
      "d": 127.6595999999845,
      "v": 87
    },
    {
      "midi": 46,
      "hit": false,
      "t": 185074.50509999835,
      "d": 61.17022499997984,
      "v": 35
    },
    {
      "midi": 55,
      "hit": false,
      "t": 185090.46254999834,
      "d": 34.57447500000126,
      "v": 32
    },
    {
      "midi": 69,
      "hit": false,
      "t": 185300.56897499834,
      "d": 125.00002499998664,
      "v": 75
    },
    {
      "midi": 69,
      "hit": false,
      "t": 185508.01582499832,
      "d": 138.29790000000503,
      "v": 74
    },
    {
      "midi": 66,
      "hit": false,
      "t": 185696.84564999831,
      "d": 125.00002500001574,
      "v": 60
    },
    {
      "midi": 54,
      "hit": false,
      "t": 185702.1647999983,
      "d": 239.36175000004005,
      "v": 32
    },
    {
      "midi": 46,
      "hit": false,
      "t": 185726.10097499832,
      "d": 186.17025000002468,
      "v": 30
    },
    {
      "midi": 66,
      "hit": false,
      "t": 185880.35632499834,
      "d": 178.191525000002,
      "v": 55
    },
    {
      "midi": 62,
      "hit": false,
      "t": 186098.44147499834,
      "d": 191.4893999999913,
      "v": 35
    },
    {
      "midi": 46,
      "hit": false,
      "t": 186396.31387499833,
      "d": 151.59577499999432,
      "v": 25
    },
    {
      "midi": 55,
      "hit": false,
      "t": 186409.61174999832,
      "d": 146.2766249999986,
      "v": 28
    },
    {
      "midi": 55,
      "hit": false,
      "t": 186933.5480249983,
      "d": 39.89362499999697,
      "v": 53
    },
    {
      "midi": 46,
      "hit": false,
      "t": 186941.5267499983,
      "d": 55.851075000013225,
      "v": 32
    },
    {
      "midi": 65,
      "hit": false,
      "t": 187260.6757499983,
      "d": 34.57447500000126,
      "v": 47
    },
    {
      "midi": 67,
      "hit": false,
      "t": 187383.0161999983,
      "d": 117.02129999999306,
      "v": 67
    },
    {
      "midi": 68,
      "hit": false,
      "t": 187561.2077249983,
      "d": 103.72342500000377,
      "v": 86
    },
    {
      "midi": 63,
      "hit": false,
      "t": 187585.1438999983,
      "d": 119.68087499999092,
      "v": 55
    },
    {
      "midi": 56,
      "hit": false,
      "t": 187590.4630499983,
      "d": 85.10639999998966,
      "v": 44
    },
    {
      "midi": 60,
      "hit": false,
      "t": 187593.1226249983,
      "d": 55.851075000013225,
      "v": 57
    },
    {
      "midi": 70,
      "hit": false,
      "t": 187712.8034999983,
      "d": 132.9787500000093,
      "v": 76
    },
    {
      "midi": 72,
      "hit": false,
      "t": 187885.6758749983,
      "d": 93.08512500004144,
      "v": 83
    },
    {
      "midi": 67,
      "hit": false,
      "t": 187906.9524749983,
      "d": 26.595750000007683,
      "v": 64
    },
    {
      "midi": 63,
      "hit": false,
      "t": 187906.9524749983,
      "d": 77.12767500002519,
      "v": 40
    },
    {
      "midi": 60,
      "hit": false,
      "t": 187925.56949999832,
      "d": 34.57447500000126,
      "v": 32
    },
    {
      "midi": 74,
      "hit": false,
      "t": 188037.27164999832,
      "d": 109.04257499999949,
      "v": 78
    },
    {
      "midi": 75,
      "hit": false,
      "t": 188204.82487499833,
      "d": 117.02129999999306,
      "v": 92
    },
    {
      "midi": 63,
      "hit": false,
      "t": 188204.82487499833,
      "d": 303.19154999998864,
      "v": 59
    },
    {
      "midi": 67,
      "hit": false,
      "t": 188204.82487499833,
      "d": 529.2554249999812,
      "v": 85
    },
    {
      "midi": 60,
      "hit": false,
      "t": 188204.82487499833,
      "d": 609.0426749999751,
      "v": 78
    },
    {
      "midi": 56,
      "hit": false,
      "t": 188212.80359999833,
      "d": 1069.149149999983,
      "v": 59
    },
    {
      "midi": 79,
      "hit": false,
      "t": 188385.67597499833,
      "d": 228.7234499999904,
      "v": 89
    },
    {
      "midi": 63,
      "hit": false,
      "t": 188571.84622499833,
      "d": 148.93619999999646,
      "v": 23
    },
    {
      "midi": 77,
      "hit": false,
      "t": 188662.2717749983,
      "d": 146.2766249999986,
      "v": 74
    },
    {
      "midi": 67,
      "hit": false,
      "t": 188864.3994749983,
      "d": 337.766025000019,
      "v": 45
    },
    {
      "midi": 75,
      "hit": false,
      "t": 188864.3994749983,
      "d": 390.95752500000526,
      "v": 55
    },
    {
      "midi": 63,
      "hit": false,
      "t": 188867.0590499983,
      "d": 154.25535000002128,
      "v": 38
    },
    {
      "midi": 60,
      "hit": false,
      "t": 188885.6760749983,
      "d": 412.2341249999881,
      "v": 22
    },
    {
      "midi": 72,
      "hit": false,
      "t": 189263.3357249983,
      "d": 340.42559999998775,
      "v": 30
    },
    {
      "midi": 67,
      "hit": false,
      "t": 189492.05917499829,
      "d": 401.5958249999967,
      "v": 36
    },
    {
      "midi": 63,
      "hit": false,
      "t": 189497.37832499828,
      "d": 492.0213749999821,
      "v": 36
    },
    {
      "midi": 56,
      "hit": false,
      "t": 189505.35704999827,
      "d": 430.85115000000224,
      "v": 25
    },
    {
      "midi": 60,
      "hit": false,
      "t": 189508.01662499827,
      "d": 361.7021999999997,
      "v": 43
    },
    {
      "midi": 68,
      "hit": false,
      "t": 190119.71887499827,
      "d": 670.2128999999841,
      "v": 50
    },
    {
      "midi": 63,
      "hit": false,
      "t": 190133.01674999826,
      "d": 545.2128749999974,
      "v": 34
    },
    {
      "midi": 61,
      "hit": false,
      "t": 190140.99547499826,
      "d": 784.5746249999793,
      "v": 37
    },
    {
      "midi": 57,
      "hit": false,
      "t": 190143.65504999825,
      "d": 795.2129249999707,
      "v": 39
    },
    {
      "midi": 79,
      "hit": false,
      "t": 190742.05942499827,
      "d": 87.76597499998752,
      "v": 78
    },
    {
      "midi": 77,
      "hit": false,
      "t": 190832.48497499825,
      "d": 79.78724999999395,
      "v": 68
    },
    {
      "midi": 82,
      "hit": false,
      "t": 190952.16584999821,
      "d": 127.6596000000136,
      "v": 81
    },
    {
      "midi": 80,
      "hit": false,
      "t": 191098.44247499824,
      "d": 58.51065000001108,
      "v": 69
    },
    {
      "midi": 85,
      "hit": false,
      "t": 191417.59147499825,
      "d": 85.10640000001877,
      "v": 83
    },
    {
      "midi": 68,
      "hit": false,
      "t": 191446.84679999825,
      "d": 31.9149000000034,
      "v": 35
    },
    {
      "midi": 61,
      "hit": false,
      "t": 191468.12339999827,
      "d": 29.25532500000554,
      "v": 18
    },
    {
      "midi": 83,
      "hit": false,
      "t": 191523.97447499828,
      "d": 61.17022500000894,
      "v": 68
    },
    {
      "midi": 88,
      "hit": false,
      "t": 191664.93194999828,
      "d": 74.46809999999823,
      "v": 90
    },
    {
      "midi": 86,
      "hit": false,
      "t": 191875.0383749983,
      "d": 74.46809999999823,
      "v": 87
    },
    {
      "midi": 67,
      "hit": false,
      "t": 191885.67667499828,
      "d": 58.51065000001108,
      "v": 56
    },
    {
      "midi": 56,
      "hit": false,
      "t": 191904.2936999983,
      "d": 55.85107499998412,
      "v": 25
    },
    {
      "midi": 62,
      "hit": false,
      "t": 191909.6128499983,
      "d": 39.89362499999697,
      "v": 41
    },
    {
      "midi": 67,
      "hit": false,
      "t": 192377.6980499983,
      "d": 31.914899999974295,
      "v": 53
    },
    {
      "midi": 56,
      "hit": false,
      "t": 192380.3576249983,
      "d": 90.42554999998538,
      "v": 37
    },
    {
      "midi": 62,
      "hit": false,
      "t": 192393.65549999828,
      "d": 58.51064999998198,
      "v": 35
    },
    {
      "midi": 65,
      "hit": false,
      "t": 192678.23002499828,
      "d": 26.59574999997858,
      "v": 58
    },
    {
      "midi": 62,
      "hit": false,
      "t": 192678.23002499828,
      "d": 74.46809999996913,
      "v": 52
    },
    {
      "midi": 83,
      "hit": false,
      "t": 192691.52789999827,
      "d": 39.89362499999697,
      "v": 43
    },
    {
      "midi": 60,
      "hit": false,
      "t": 192691.52789999827,
      "d": 45.21277499999269,
      "v": 44
    },
    {
      "midi": 81,
      "hit": false,
      "t": 192699.50662499826,
      "d": 26.595750000007683,
      "v": 54
    },
    {
      "midi": 78,
      "hit": false,
      "t": 192835.14494999824,
      "d": 143.61705000000075,
      "v": 77
    },
    {
      "midi": 90,
      "hit": false,
      "t": 192835.14494999824,
      "d": 146.2766249999986,
      "v": 74
    },
    {
      "midi": 79,
      "hit": false,
      "t": 192997.37902499823,
      "d": 66.48937500000466,
      "v": 42
    },
    {
      "midi": 87,
      "hit": false,
      "t": 193175.57054999823,
      "d": 154.25534999999218,
      "v": 55
    },
    {
      "midi": 75,
      "hit": false,
      "t": 193180.88969999822,
      "d": 156.91492499999003,
      "v": 62
    },
    {
      "midi": 73,
      "hit": false,
      "t": 193460.1450749982,
      "d": 87.76597499998752,
      "v": 36
    },
    {
      "midi": 85,
      "hit": false,
      "t": 193460.1450749982,
      "d": 87.76597499998752,
      "v": 57
    },
    {
      "midi": 86,
      "hit": false,
      "t": 193513.3365749982,
      "d": 138.29789999997593,
      "v": 59
    },
    {
      "midi": 74,
      "hit": false,
      "t": 193553.2301999982,
      "d": 82.4468249999918,
      "v": 57
    },
    {
      "midi": 65,
      "hit": false,
      "t": 193635.67702499818,
      "d": 23.93617499998072,
      "v": 24
    },
    {
      "midi": 65,
      "hit": false,
      "t": 193957.48559999815,
      "d": 79.78724999999395,
      "v": 45
    },
    {
      "midi": 62,
      "hit": false,
      "t": 193989.40049999816,
      "d": 69.14895000000251,
      "v": 25
    },
    {
      "midi": 60,
      "hit": false,
      "t": 193994.71964999815,
      "d": 45.21277499999269,
      "v": 30
    },
    {
      "midi": 65,
      "hit": false,
      "t": 194601.10274999816,
      "d": 29.255324999976438,
      "v": 51
    },
    {
      "midi": 62,
      "hit": false,
      "t": 194603.76232499816,
      "d": 45.21277499999269,
      "v": 48
    },
    {
      "midi": 60,
      "hit": false,
      "t": 194617.06019999814,
      "d": 31.9149000000034,
      "v": 38
    },
    {
      "midi": 77,
      "hit": false,
      "t": 194704.82617499816,
      "d": 151.59577500002342,
      "v": 82
    },
    {
      "midi": 76,
      "hit": false,
      "t": 194728.76234999817,
      "d": 29.25532500000554,
      "v": 32
    },
    {
      "midi": 75,
      "hit": false,
      "t": 194904.29429999818,
      "d": 119.68087500002002,
      "v": 78
    },
    {
      "midi": 65,
      "hit": false,
      "t": 194906.95387499817,
      "d": 31.9149000000034,
      "v": 60
    },
    {
      "midi": 62,
      "hit": false,
      "t": 194912.27302499817,
      "d": 55.851075000013225,
      "v": 51
    },
    {
      "midi": 60,
      "hit": false,
      "t": 194936.20919999818,
      "d": 31.9149000000034,
      "v": 34
    },
    {
      "midi": 73,
      "hit": false,
      "t": 195053.2304999982,
      "d": 156.91492499999003,
      "v": 34
    },
    {
      "midi": 65,
      "hit": false,
      "t": 195255.35819999818,
      "d": 29.25532500000554,
      "v": 58
    },
    {
      "midi": 61,
      "hit": false,
      "t": 195263.33692499818,
      "d": 39.89362500002608,
      "v": 38
    },
    {
      "midi": 77,
      "hit": false,
      "t": 195361.7411999982,
      "d": 167.55322500001057,
      "v": 83
    },
    {
      "midi": 61,
      "hit": false,
      "t": 195553.23059999823,
      "d": 39.89362499999697,
      "v": 31
    },
    {
      "midi": 66,
      "hit": false,
      "t": 195664.93274999823,
      "d": 212.76600000000326,
      "v": 69
    },
    {
      "midi": 61,
      "hit": false,
      "t": 195890.99662499822,
      "d": 37.234049999999115,
      "v": 25
    },
    {
      "midi": 65,
      "hit": false,
      "t": 195904.2944999982,
      "d": 42.553200000023935,
      "v": 37
    },
    {
      "midi": 70,
      "hit": false,
      "t": 195994.72004999823,
      "d": 183.51067499999772,
      "v": 74
    },
    {
      "midi": 61,
      "hit": false,
      "t": 196194.1881749982,
      "d": 74.46809999999823,
      "v": 36
    },
    {
      "midi": 66,
      "hit": false,
      "t": 196513.33717499822,
      "d": 210.1064250000345,
      "v": 79
    },
    {
      "midi": 61,
      "hit": false,
      "t": 196531.95419999823,
      "d": 90.42555000001448,
      "v": 44
    },
    {
      "midi": 68,
      "hit": false,
      "t": 196763.33722499825,
      "d": 77.12767499999609,
      "v": 31
    },
    {
      "midi": 66,
      "hit": false,
      "t": 196808.54999999824,
      "d": 82.4468249999918,
      "v": 48
    },
    {
      "midi": 65,
      "hit": false,
      "t": 196890.99682499823,
      "d": 39.89362499999697,
      "v": 51
    },
    {
      "midi": 66,
      "hit": false,
      "t": 196989.40109999824,
      "d": 436.17029999999795,
      "v": 71
    },
    {
      "midi": 65,
      "hit": false,
      "t": 197473.44374999823,
      "d": 98.40427499997895,
      "v": 66
    },
    {
      "midi": 58,
      "hit": false,
      "t": 197484.08204999822,
      "d": 74.46809999999823,
      "v": 36
    },
    {
      "midi": 60,
      "hit": false,
      "t": 197492.06077499822,
      "d": 29.25532500000554,
      "v": 36
    },
    {
      "midi": 54,
      "hit": false,
      "t": 197497.3799249982,
      "d": 63.8298000000068,
      "v": 21
    },
    {
      "midi": 63,
      "hit": false,
      "t": 197606.4224999982,
      "d": 228.7234499999904,
      "v": 35
    },
    {
      "midi": 61,
      "hit": false,
      "t": 197792.5927499982,
      "d": 69.14895000000251,
      "v": 49
    },
    {
      "midi": 62,
      "hit": false,
      "t": 197938.8693749982,
      "d": 244.68090000000666,
      "v": 71
    },
    {
      "midi": 65,
      "hit": false,
      "t": 198143.65664999821,
      "d": 132.9787500000093,
      "v": 88
    },
    {
      "midi": 57,
      "hit": false,
      "t": 198319.18859999822,
      "d": 180.85109999999986,
      "v": 51
    },
    {
      "midi": 57,
      "hit": false,
      "t": 198577.16737499821,
      "d": 175.53195000000414,
      "v": 60
    },
    {
      "midi": 60,
      "hit": false,
      "t": 198787.27379999822,
      "d": 69.14895000000251,
      "v": 67
    },
    {
      "midi": 57,
      "hit": false,
      "t": 198920.25254999823,
      "d": 180.85109999999986,
      "v": 34
    },
    {
      "midi": 60,
      "hit": false,
      "t": 199694.18887499822,
      "d": 26.595750000007683,
      "v": 61
    },
    {
      "midi": 57,
      "hit": false,
      "t": 199699.5080249982,
      "d": 61.17022500000894,
      "v": 48
    },
    {
      "midi": 64,
      "hit": false,
      "t": 199795.25272499822,
      "d": 125.00002499998664,
      "v": 63
    },
    {
      "midi": 65,
      "hit": false,
      "t": 199997.3804249982,
      "d": 58.51065000001108,
      "v": 65
    },
    {
      "midi": 69,
      "hit": false,
      "t": 200117.06129999823,
      "d": 146.2766249999986,
      "v": 92
    },
    {
      "midi": 72,
      "hit": false,
      "t": 200321.84857499824,
      "d": 98.40427500000806,
      "v": 84
    },
    {
      "midi": 70,
      "hit": false,
      "t": 200468.12519999823,
      "d": 143.61705000000075,
      "v": 56
    },
    {
      "midi": 58,
      "hit": false,
      "t": 200672.91247499824,
      "d": 31.9149000000034,
      "v": 31
    },
    {
      "midi": 67,
      "hit": false,
      "t": 200675.57204999824,
      "d": 95.7447000000102,
      "v": 60
    },
    {
      "midi": 63,
      "hit": false,
      "t": 200787.27419999824,
      "d": 194.14897499998915,
      "v": 35
    },
    {
      "midi": 54,
      "hit": false,
      "t": 200976.10402499823,
      "d": 63.8298000000068,
      "v": 33
    },
    {
      "midi": 69,
      "hit": false,
      "t": 201090.46574999823,
      "d": 191.4893999999913,
      "v": 76
    },
    {
      "midi": 65,
      "hit": false,
      "t": 201303.23174999823,
      "d": 77.12767499999609,
      "v": 57
    },
    {
      "midi": 62,
      "hit": false,
      "t": 201438.87007499824,
      "d": 183.51067499999772,
      "v": 28
    },
    {
      "midi": 58,
      "hit": false,
      "t": 201654.29564999824,
      "d": 85.10639999998966,
      "v": 34
    },
    {
      "midi": 55,
      "hit": false,
      "t": 201686.21054999824,
      "d": 29.25532500000554,
      "v": 24
    },
    {
      "midi": 67,
      "hit": false,
      "t": 201728.76374999824,
      "d": 212.76600000000326,
      "v": 82
    },
    {
      "midi": 63,
      "hit": false,
      "t": 201944.18932499824,
      "d": 140.9574750000029,
      "v": 37
    },
    {
      "midi": 60,
      "hit": false,
      "t": 202085.14679999824,
      "d": 130.31917500001146,
      "v": 25
    },
    {
      "midi": 58,
      "hit": false,
      "t": 202311.21067499826,
      "d": 98.40427500000806,
      "v": 23
    },
    {
      "midi": 65,
      "hit": false,
      "t": 202372.38089999827,
      "d": 234.04260000001523,
      "v": 88
    },
    {
      "midi": 64,
      "hit": false,
      "t": 202587.80647499827,
      "d": 98.40427500000806,
      "v": 79
    },
    {
      "midi": 61,
      "hit": false,
      "t": 202707.4873499983,
      "d": 1186.170449999976,
      "v": 62
    },
    {
      "midi": 54,
      "hit": false,
      "t": 202922.9129249983,
      "d": 50.531924999988405,
      "v": 23
    },
    {
      "midi": 53,
      "hit": false,
      "t": 203526.63644999827,
      "d": 50.531924999988405,
      "v": 46
    },
    {
      "midi": 46,
      "hit": false,
      "t": 203529.29602499827,
      "d": 74.46809999999823,
      "v": 35
    },
    {
      "midi": 57,
      "hit": false,
      "t": 203954.82802499828,
      "d": 186.17024999999558,
      "v": 71
    },
    {
      "midi": 53,
      "hit": false,
      "t": 204486.7430249983,
      "d": 37.234049999999115,
      "v": 47
    },
    {
      "midi": 46,
      "hit": false,
      "t": 204489.40259999828,
      "d": 79.78724999999395,
      "v": 30
    },
    {
      "midi": 60,
      "hit": false,
      "t": 204593.1260249983,
      "d": 172.8723750000063,
      "v": 85
    },
    {
      "midi": 58,
      "hit": false,
      "t": 204946.8494999983,
      "d": 130.31917500001146,
      "v": 42
    },
    {
      "midi": 60,
      "hit": false,
      "t": 205117.0622999983,
      "d": 90.42554999998538,
      "v": 68
    },
    {
      "midi": 53,
      "hit": false,
      "t": 205125.0410249983,
      "d": 98.40427499997895,
      "v": 44
    },
    {
      "midi": 46,
      "hit": false,
      "t": 205151.6367749983,
      "d": 42.55319999999483,
      "v": 20
    },
    {
      "midi": 62,
      "hit": false,
      "t": 205284.61552499828,
      "d": 183.51067499999772,
      "v": 35
    },
    {
      "midi": 54,
      "hit": false,
      "t": 205430.89214999828,
      "d": 55.851075000013225,
      "v": 52
    },
    {
      "midi": 46,
      "hit": false,
      "t": 205433.55172499828,
      "d": 74.46809999999823,
      "v": 40
    },
    {
      "midi": 66,
      "hit": false,
      "t": 205436.21129999828,
      "d": 63.8298000000068,
      "v": 75
    },
    {
      "midi": 69,
      "hit": false,
      "t": 205582.48792499828,
      "d": 77.12767499999609,
      "v": 37
    },
    {
      "midi": 71,
      "hit": false,
      "t": 205593.12622499827,
      "d": 82.4468249999918,
      "v": 35
    },
    {
      "midi": 74,
      "hit": false,
      "t": 205696.84964999827,
      "d": 82.4468249999918,
      "v": 62
    },
    {
      "midi": 78,
      "hit": false,
      "t": 205781.95604999826,
      "d": 95.7447000000102,
      "v": 59
    },
    {
      "midi": 81,
      "hit": false,
      "t": 205909.61564999828,
      "d": 111.70215000002645,
      "v": 75
    },
    {
      "midi": 78,
      "hit": false,
      "t": 206002.7007749983,
      "d": 79.78725000002305,
      "v": 57
    },
    {
      "midi": 54,
      "hit": false,
      "t": 206412.2753249983,
      "d": 380.3192249999847,
      "v": 42
    },
    {
      "midi": 46,
      "hit": false,
      "t": 206425.5731999983,
      "d": 289.89367499999935,
      "v": 32
    },
    {
      "midi": 46,
      "hit": false,
      "t": 206819.1902999983,
      "d": 353.72347499997704,
      "v": 27
    },
    {
      "midi": 55,
      "hit": false,
      "t": 206821.8498749983,
      "d": 335.10644999999204,
      "v": 45
    },
    {
      "midi": 81,
      "hit": false,
      "t": 207151.6371749983,
      "d": 125.00002499998664,
      "v": 85
    },
    {
      "midi": 82,
      "hit": false,
      "t": 207258.02017499827,
      "d": 69.14895000003162,
      "v": 58
    },
    {
      "midi": 83,
      "hit": false,
      "t": 207297.9137999983,
      "d": 82.4468249999918,
      "v": 71
    },
    {
      "midi": 86,
      "hit": false,
      "t": 207428.23297499827,
      "d": 31.9149000000034,
      "v": 54
    },
    {
      "midi": 84,
      "hit": false,
      "t": 207428.23297499827,
      "d": 77.12767499999609,
      "v": 38
    },
    {
      "midi": 77,
      "hit": false,
      "t": 207614.40322499827,
      "d": 212.76599999997416,
      "v": 73
    },
    {
      "midi": 55,
      "hit": false,
      "t": 207646.31812499827,
      "d": 53.19149999998626,
      "v": 54
    },
    {
      "midi": 46,
      "hit": false,
      "t": 207648.97769999827,
      "d": 58.51064999998198,
      "v": 29
    },
    {
      "midi": 79,
      "hit": false,
      "t": 207773.97772499826,
      "d": 117.02129999999306,
      "v": 32
    },
    {
      "midi": 80,
      "hit": false,
      "t": 207816.53092499825,
      "d": 148.93619999999646,
      "v": 42
    },
    {
      "midi": 81,
      "hit": false,
      "t": 207925.57349999825,
      "d": 101.06385000000591,
      "v": 72
    },
    {
      "midi": 74,
      "hit": false,
      "t": 208063.87139999826,
      "d": 210.1064250000054,
      "v": 68
    },
    {
      "midi": 75,
      "hit": false,
      "t": 208252.70122499825,
      "d": 140.957475000032,
      "v": 42
    },
    {
      "midi": 76,
      "hit": false,
      "t": 208303.23314999827,
      "d": 87.76597500001662,
      "v": 59
    },
    {
      "midi": 77,
      "hit": false,
      "t": 208367.06294999828,
      "d": 79.78724999999395,
      "v": 64
    },
    {
      "midi": 67,
      "hit": false,
      "t": 208388.3395499983,
      "d": 31.914899999974295,
      "v": 44
    },
    {
      "midi": 63,
      "hit": false,
      "t": 208406.95657499827,
      "d": 90.42555000001448,
      "v": 33
    },
    {
      "midi": 60,
      "hit": false,
      "t": 208449.50977499827,
      "d": 26.595750000007683,
      "v": 22
    },
    {
      "midi": 67,
      "hit": false,
      "t": 208500.04169999828,
      "d": 196.808549999987,
      "v": 59
    },
    {
      "midi": 69,
      "hit": false,
      "t": 208571.85022499828,
      "d": 114.3617249999952,
      "v": 6
    },
    {
      "midi": 67,
      "hit": false,
      "t": 208984.08434999827,
      "d": 454.78732499998296,
      "v": 61
    },
    {
      "midi": 63,
      "hit": false,
      "t": 208984.08434999827,
      "d": 529.2554249999812,
      "v": 50
    },
    {
      "midi": 60,
      "hit": false,
      "t": 208997.38222499826,
      "d": 476.0639249999949,
      "v": 47
    },
    {
      "midi": 56,
      "hit": false,
      "t": 209010.68009999825,
      "d": 446.8086000000185,
      "v": 25
    },
    {
      "midi": 63,
      "hit": false,
      "t": 209593.12702499825,
      "d": 287.2340999999724,
      "v": 38
    },
    {
      "midi": 56,
      "hit": false,
      "t": 209606.42489999824,
      "d": 438.8298749999667,
      "v": 39
    },
    {
      "midi": 67,
      "hit": false,
      "t": 209614.40362499823,
      "d": 37.234049999999115,
      "v": 43
    },
    {
      "midi": 60,
      "hit": false,
      "t": 209625.04192499822,
      "d": 446.8085999999894,
      "v": 46
    },
    {
      "midi": 63,
      "hit": false,
      "t": 209925.5738999982,
      "d": 148.93619999999646,
      "v": 12
    },
    {
      "midi": 56,
      "hit": false,
      "t": 210234.0845999982,
      "d": 284.57452500000363,
      "v": 48
    },
    {
      "midi": 63,
      "hit": false,
      "t": 210239.4037499982,
      "d": 343.0851750000147,
      "v": 51
    },
    {
      "midi": 67,
      "hit": false,
      "t": 210250.04204999818,
      "d": 244.68090000000666,
      "v": 40
    },
    {
      "midi": 63,
      "hit": false,
      "t": 210670.2548999982,
      "d": 335.10644999999204,
      "v": 35
    },
    {
      "midi": 68,
      "hit": false,
      "t": 210675.5740499982,
      "d": 212.76600000000326,
      "v": 36
    },
    {
      "midi": 57,
      "hit": false,
      "t": 210675.5740499982,
      "d": 218.08514999999898,
      "v": 48
    },
    {
      "midi": 61,
      "hit": false,
      "t": 210678.2336249982,
      "d": 215.42557500000112,
      "v": 38
    },
    {
      "midi": 68,
      "hit": false,
      "t": 211191.53159999818,
      "d": 409.57454999999027,
      "v": 56
    },
    {
      "midi": 63,
      "hit": false,
      "t": 211199.51032499818,
      "d": 545.2128749999683,
      "v": 48
    },
    {
      "midi": 61,
      "hit": false,
      "t": 211210.14862499817,
      "d": 526.5958499999833,
      "v": 35
    },
    {
      "midi": 57,
      "hit": false,
      "t": 211212.80819999817,
      "d": 404.25539999999455,
      "v": 40
    },
    {
      "midi": 67,
      "hit": false,
      "t": 211819.19129999814,
      "d": 438.8298749999958,
      "v": 60
    },
    {
      "midi": 63,
      "hit": false,
      "t": 211819.19129999814,
      "d": 494.68095000000903,
      "v": 42
    },
    {
      "midi": 56,
      "hit": false,
      "t": 211829.82959999813,
      "d": 452.1277500000142,
      "v": 40
    },
    {
      "midi": 60,
      "hit": false,
      "t": 211832.48917499813,
      "d": 513.2979750000231,
      "v": 55
    },
    {
      "midi": 66,
      "hit": false,
      "t": 212460.14887499815,
      "d": 380.31922500001383,
      "v": 60
    },
    {
      "midi": 62,
      "hit": false,
      "t": 212478.76589999816,
      "d": 765.9575999999943,
      "v": 48
    },
    {
      "midi": 56,
      "hit": false,
      "t": 212481.42547499816,
      "d": 500.00010000000475,
      "v": 39
    },
    {
      "midi": 60,
      "hit": false,
      "t": 212502.70207499817,
      "d": 430.85115000000224,
      "v": 31
    },
    {
      "midi": 86,
      "hit": false,
      "t": 212898.97874999818,
      "d": 183.51067499999772,
      "v": 115
    },
    {
      "midi": 89,
      "hit": false,
      "t": 213095.78729999816,
      "d": 79.78724999999395,
      "v": 66
    },
    {
      "midi": 86,
      "hit": false,
      "t": 213172.91497499816,
      "d": 106.38300000000163,
      "v": 46
    },
    {
      "midi": 82,
      "hit": false,
      "t": 213271.31924999817,
      "d": 82.4468249999918,
      "v": 40
    },
    {
      "midi": 65,
      "hit": false,
      "t": 213776.63849999817,
      "d": 26.595750000007683,
      "v": 57
    },
    {
      "midi": 62,
      "hit": false,
      "t": 213795.25552499818,
      "d": 39.89362499999697,
      "v": 32
    },
    {
      "midi": 65,
      "hit": false,
      "t": 214375.04287499818,
      "d": 26.595750000007683,
      "v": 55
    },
    {
      "midi": 62,
      "hit": false,
      "t": 214375.04287499818,
      "d": 63.8298000000068,
      "v": 57
    },
    {
      "midi": 60,
      "hit": false,
      "t": 214377.70244999818,
      "d": 69.14895000000251,
      "v": 55
    },
    {
      "midi": 83,
      "hit": false,
      "t": 214481.42587499818,
      "d": 146.2766249999986,
      "v": 101
    },
    {
      "midi": 62,
      "hit": false,
      "t": 214686.2131499982,
      "d": 79.78725000002305,
      "v": 35
    },
    {
      "midi": 84,
      "hit": false,
      "t": 214688.8727249982,
      "d": 58.51065000001108,
      "v": 62
    },
    {
      "midi": 86,
      "hit": false,
      "t": 214811.2131749982,
      "d": 162.23407499998575,
      "v": 101
    },
    {
      "midi": 84,
      "hit": false,
      "t": 215135.68132499818,
      "d": 111.70214999999735,
      "v": 84
    },
    {
      "midi": 62,
      "hit": false,
      "t": 215305.8941249982,
      "d": 71.80852499997127,
      "v": 48
    },
    {
      "midi": 65,
      "hit": false,
      "t": 215311.21327499818,
      "d": 31.914899999974295,
      "v": 38
    },
    {
      "midi": 60,
      "hit": false,
      "t": 215327.17072499817,
      "d": 37.234049999999115,
      "v": 32
    },
    {
      "midi": 79,
      "hit": false,
      "t": 215329.83029999817,
      "d": 71.80852500000037,
      "v": 53
    },
    {
      "midi": 75,
      "hit": false,
      "t": 215462.80904999818,
      "d": 220.74472499999683,
      "v": 39
    },
    {
      "midi": 61,
      "hit": false,
      "t": 215667.5963249982,
      "d": 79.78724999999395,
      "v": 33
    },
    {
      "midi": 74,
      "hit": false,
      "t": 215678.23462499818,
      "d": 45.21277499999269,
      "v": 43
    },
    {
      "midi": 78,
      "hit": false,
      "t": 215781.95804999818,
      "d": 117.02129999999306,
      "v": 74
    },
    {
      "midi": 77,
      "hit": false,
      "t": 215986.74532499816,
      "d": 85.10639999998966,
      "v": 72
    },
    {
      "midi": 61,
      "hit": false,
      "t": 216002.70277499815,
      "d": 202.12770000001183,
      "v": 46
    },
    {
      "midi": 65,
      "hit": false,
      "t": 216008.02192499815,
      "d": 162.23407500001485,
      "v": 52
    },
    {
      "midi": 54,
      "hit": false,
      "t": 216016.00064999814,
      "d": 335.10644999999204,
      "v": 34
    },
    {
      "midi": 58,
      "hit": false,
      "t": 216016.00064999814,
      "d": 406.9149749999924,
      "v": 35
    },
    {
      "midi": 75,
      "hit": false,
      "t": 216138.34109999816,
      "d": 82.4468249999918,
      "v": 38
    },
    {
      "midi": 77,
      "hit": false,
      "t": 216303.23474999814,
      "d": 45.21277499999269,
      "v": 43
    },
    {
      "midi": 61,
      "hit": false,
      "t": 216313.87304999813,
      "d": 215.42557500000112,
      "v": 23
    },
    {
      "midi": 75,
      "hit": false,
      "t": 216327.17092499812,
      "d": 106.38300000000163,
      "v": 56
    },
    {
      "midi": 73,
      "hit": false,
      "t": 216436.21349999812,
      "d": 114.36172500002431,
      "v": 37
    },
    {
      "midi": 72,
      "hit": false,
      "t": 216625.04332499814,
      "d": 127.6595999999845,
      "v": 80
    },
    {
      "midi": 61,
      "hit": false,
      "t": 216638.34119999813,
      "d": 93.08512499998324,
      "v": 46
    },
    {
      "midi": 58,
      "hit": false,
      "t": 216678.23482499813,
      "d": 47.87234999999055,
      "v": 21
    },
    {
      "midi": 73,
      "hit": false,
      "t": 216768.66037499812,
      "d": 93.08512500001234,
      "v": 33
    },
    {
      "midi": 72,
      "hit": false,
      "t": 216861.74549999813,
      "d": 93.08512500001234,
      "v": 26
    },
    {
      "midi": 70,
      "hit": false,
      "t": 216954.83062499814,
      "d": 82.44682500002091,
      "v": 46
    },
    {
      "midi": 61,
      "hit": false,
      "t": 216978.76679999815,
      "d": 58.51065000001108,
      "v": 29
    },
    {
      "midi": 58,
      "hit": false,
      "t": 217005.36254999816,
      "d": 71.80852500000037,
      "v": 20
    },
    {
      "midi": 70,
      "hit": false,
      "t": 217109.08597499816,
      "d": 69.14895000000251,
      "v": 25
    },
    {
      "midi": 69,
      "hit": false,
      "t": 217122.38384999815,
      "d": 31.9149000000034,
      "v": 46
    },
    {
      "midi": 65,
      "hit": false,
      "t": 217569.19244999817,
      "d": 29.25532500000554,
      "v": 49
    },
    {
      "midi": 60,
      "hit": false,
      "t": 217579.83074999816,
      "d": 53.19150000001537,
      "v": 44
    },
    {
      "midi": 69,
      "hit": false,
      "t": 217715.46907499817,
      "d": 71.80852500000037,
      "v": 34
    },
    {
      "midi": 70,
      "hit": false,
      "t": 217784.61802499817,
      "d": 74.46809999999823,
      "v": 55
    },
    {
      "midi": 71,
      "hit": false,
      "t": 217869.72442499816,
      "d": 61.17022500000894,
      "v": 55
    },
    {
      "midi": 65,
      "hit": false,
      "t": 217941.53294999816,
      "d": 31.914899999974295,
      "v": 38
    },
    {
      "midi": 72,
      "hit": false,
      "t": 217941.53294999816,
      "d": 87.76597499998752,
      "v": 59
    },
    {
      "midi": 54,
      "hit": false,
      "t": 217946.85209999816,
      "d": 103.72342500000377,
      "v": 29
    },
    {
      "midi": 60,
      "hit": false,
      "t": 217960.14997499814,
      "d": 47.87234999999055,
      "v": 48
    },
    {
      "midi": 69,
      "hit": false,
      "t": 218069.19254999817,
      "d": 135.63832500000717,
      "v": 57
    },
    {
      "midi": 58,
      "hit": false,
      "t": 218242.06492499818,
      "d": 77.12767499999609,
      "v": 34
    },
    {
      "midi": 65,
      "hit": false,
      "t": 218242.06492499818,
      "d": 82.4468249999918,
      "v": 66
    },
    {
      "midi": 50,
      "hit": false,
      "t": 218247.38407499818,
      "d": 194.14897499998915,
      "v": 35
    },
    {
      "midi": 62,
      "hit": false,
      "t": 218398.97984999817,
      "d": 167.55322499998147,
      "v": 48
    },
    {
      "midi": 50,
      "hit": false,
      "t": 218566.53307499815,
      "d": 53.19149999998626,
      "v": 24
    },
    {
      "midi": 62,
      "hit": false,
      "t": 218643.66074999815,
      "d": 194.14897499998915,
      "v": 50
    },
    {
      "midi": 61,
      "hit": false,
      "t": 218845.78844999813,
      "d": 79.78724999999395,
      "v": 67
    },
    {
      "midi": 58,
      "hit": false,
      "t": 218861.74589999812,
      "d": 39.89362499999697,
      "v": 32
    },
    {
      "midi": 50,
      "hit": false,
      "t": 218891.00122499812,
      "d": 53.19150000001537,
      "v": 22
    },
    {
      "midi": 62,
      "hit": false,
      "t": 219000.04379999815,
      "d": 140.9574750000029,
      "v": 24
    },
    {
      "midi": 58,
      "hit": false,
      "t": 219167.59702499816,
      "d": 71.80852500000037,
      "v": 38
    },
    {
      "midi": 63,
      "hit": false,
      "t": 219172.91617499816,
      "d": 63.8298000000068,
      "v": 56
    },
    {
      "midi": 65,
      "hit": false,
      "t": 219311.21407499816,
      "d": 132.9787500000093,
      "v": 43
    },
    {
      "midi": 62,
      "hit": false,
      "t": 219486.74602499817,
      "d": 31.914899999974295,
      "v": 60
    },
    {
      "midi": 67,
      "hit": false,
      "t": 219486.74602499817,
      "d": 111.70214999999735,
      "v": 75
    },
    {
      "midi": 51,
      "hit": false,
      "t": 219497.38432499816,
      "d": 55.85107499998412,
      "v": 28
    },
    {
      "midi": 58,
      "hit": false,
      "t": 219508.02262499815,
      "d": 82.44682500002091,
      "v": 37
    },
    {
      "midi": 55,
      "hit": false,
      "t": 219513.34177499815,
      "d": 58.51065000001108,
      "v": 50
    },
    {
      "midi": 70,
      "hit": false,
      "t": 219648.98009999815,
      "d": 125.00002499998664,
      "v": 57
    },
    {
      "midi": 74,
      "hit": false,
      "t": 219827.17162499813,
      "d": 103.72342500000377,
      "v": 72
    },
    {
      "midi": 77,
      "hit": false,
      "t": 219970.78867499813,
      "d": 109.04257499999949,
      "v": 57
    },
    {
      "midi": 62,
      "hit": false,
      "t": 220117.06529999812,
      "d": 31.914899999974295,
      "v": 52
    },
    {
      "midi": 58,
      "hit": false,
      "t": 220133.0227499981,
      "d": 82.4468249999918,
      "v": 32
    },
    {
      "midi": 81,
      "hit": false,
      "t": 220143.6610499981,
      "d": 61.17022500000894,
      "v": 67
    },
    {
      "midi": 55,
      "hit": false,
      "t": 220148.9801999981,
      "d": 61.17022500000894,
      "v": 34
    },
    {
      "midi": 74,
      "hit": false,
      "t": 220281.9589499981,
      "d": 194.14897499998915,
      "v": 79
    },
    {
      "midi": 86,
      "hit": false,
      "t": 220284.6185249981,
      "d": 183.51067499999772,
      "v": 89
    },
    {
      "midi": 58,
      "hit": false,
      "t": 220465.4696249981,
      "d": 82.4468249999918,
      "v": 34
    },
    {
      "midi": 55,
      "hit": false,
      "t": 220489.4057999981,
      "d": 37.234049999999115,
      "v": 30
    },
    {
      "midi": 86,
      "hit": false,
      "t": 220561.2143249981,
      "d": 175.53195000000414,
      "v": 84
    },
    {
      "midi": 74,
      "hit": false,
      "t": 220566.53347499808,
      "d": 199.46812500001397,
      "v": 74
    },
    {
      "midi": 54,
      "hit": false,
      "t": 220843.1292749981,
      "d": 601.0639499999525,
      "v": 64
    },
    {
      "midi": 65,
      "hit": false,
      "t": 220848.4484249981,
      "d": 569.1490499999782,
      "v": 71
    },
    {
      "midi": 60,
      "hit": false,
      "t": 220853.76757499808,
      "d": 577.1277749999717,
      "v": 64
    },
    {
      "midi": 86,
      "hit": false,
      "t": 220864.40587499808,
      "d": 545.2128749999974,
      "v": 94
    },
    {
      "midi": 81,
      "hit": false,
      "t": 220867.06544999807,
      "d": 563.8298999999824,
      "v": 74
    },
    {
      "midi": 74,
      "hit": false,
      "t": 220867.06544999807,
      "d": 598.4043749999837,
      "v": 71
    },
    {
      "midi": 54,
      "hit": false,
      "t": 221508.02302499805,
      "d": 223.4042999999656,
      "v": 70
    },
    {
      "midi": 65,
      "hit": false,
      "t": 221518.66132499804,
      "d": 170.21279999997932,
      "v": 75
    },
    {
      "midi": 60,
      "hit": false,
      "t": 221521.32089999804,
      "d": 172.87237499997718,
      "v": 66
    },
    {
      "midi": 84,
      "hit": false,
      "t": 221523.98047499804,
      "d": 122.34044999998878,
      "v": 80
    },
    {
      "midi": 72,
      "hit": false,
      "t": 221529.29962499804,
      "d": 151.59577499999432,
      "v": 67
    },
    {
      "midi": 79,
      "hit": false,
      "t": 221534.61877499803,
      "d": 106.38300000000163,
      "v": 64
    },
    {
      "midi": 82,
      "hit": false,
      "t": 221837.81032499802,
      "d": 162.23407499998575,
      "v": 74
    },
    {
      "midi": 70,
      "hit": false,
      "t": 221843.12947499802,
      "d": 154.25534999999218,
      "v": 76
    },
    {
      "midi": 54,
      "hit": false,
      "t": 221843.12947499802,
      "d": 218.08514999999898,
      "v": 72
    },
    {
      "midi": 65,
      "hit": false,
      "t": 221845.789049998,
      "d": 143.61705000000075,
      "v": 74
    },
    {
      "midi": 60,
      "hit": false,
      "t": 221851.108199998,
      "d": 151.59577499999432,
      "v": 69
    },
    {
      "midi": 75,
      "hit": false,
      "t": 221853.767774998,
      "d": 23.936175000009825,
      "v": 56
    },
    {
      "midi": 70,
      "hit": false,
      "t": 222159.61889999802,
      "d": 55.85107499998412,
      "v": 84
    },
    {
      "midi": 82,
      "hit": false,
      "t": 222159.61889999802,
      "d": 103.72342499997467,
      "v": 72
    },
    {
      "midi": 53,
      "hit": false,
      "t": 222162.27847499802,
      "d": 226.06387499999255,
      "v": 80
    },
    {
      "midi": 64,
      "hit": false,
      "t": 222164.93804999802,
      "d": 220.74472499999683,
      "v": 74
    },
    {
      "midi": 59,
      "hit": false,
      "t": 222167.59762499802,
      "d": 242.0213250000088,
      "v": 64
    },
    {
      "midi": 83,
      "hit": false,
      "t": 222183.555074998,
      "d": 146.2766249999986,
      "v": 66
    },
    {
      "midi": 71,
      "hit": false,
      "t": 222218.129549998,
      "d": 132.9787500000093,
      "v": 68
    },
    {
      "midi": 80,
      "hit": false,
      "t": 222481.42747499802,
      "d": 170.21279999997932,
      "v": 58
    },
    {
      "midi": 53,
      "hit": false,
      "t": 222484.08704999802,
      "d": 188.82982499999343,
      "v": 65
    },
    {
      "midi": 64,
      "hit": false,
      "t": 222486.74662499802,
      "d": 186.17024999999558,
      "v": 66
    },
    {
      "midi": 59,
      "hit": false,
      "t": 222486.74662499802,
      "d": 207.44684999997844,
      "v": 55
    },
    {
      "midi": 68,
      "hit": false,
      "t": 222489.40619999802,
      "d": 194.14897499998915,
      "v": 71
    },
    {
      "midi": 78,
      "hit": false,
      "t": 222505.363649998,
      "d": 180.85109999999986,
      "v": 37
    },
    {
      "midi": 79,
      "hit": false,
      "t": 222800.576474998,
      "d": 140.957475000032,
      "v": 72
    },
    {
      "midi": 53,
      "hit": false,
      "t": 222803.236049998,
      "d": 250.00005000003148,
      "v": 62
    },
    {
      "midi": 64,
      "hit": false,
      "t": 222808.555199998,
      "d": 95.7447000000102,
      "v": 60
    },
    {
      "midi": 67,
      "hit": false,
      "t": 222811.214774998,
      "d": 111.70215000002645,
      "v": 71
    },
    {
      "midi": 59,
      "hit": false,
      "t": 222811.214774998,
      "d": 247.34047500003362,
      "v": 64
    },
    {
      "midi": 77,
      "hit": false,
      "t": 222986.74672499803,
      "d": 101.06385000000591,
      "v": 64
    },
    {
      "midi": 64,
      "hit": false,
      "t": 223016.00204999803,
      "d": 101.06385000000591,
      "v": 46
    },
    {
      "midi": 75,
      "hit": false,
      "t": 223130.36377499803,
      "d": 146.2766249999986,
      "v": 53
    },
    {
      "midi": 74,
      "hit": false,
      "t": 223319.19359999802,
      "d": 117.02129999996396,
      "v": 88
    },
    {
      "midi": 75,
      "hit": false,
      "t": 223329.831899998,
      "d": 26.59574999997858,
      "v": 42
    },
    {
      "midi": 63,
      "hit": false,
      "t": 223340.470199998,
      "d": 481.38307499999064,
      "v": 46
    },
    {
      "midi": 67,
      "hit": false,
      "t": 223348.448924998,
      "d": 422.87242500000866,
      "v": 56
    },
    {
      "midi": 62,
      "hit": false,
      "t": 223351.108499998,
      "d": 494.68095000000903,
      "v": 48
    },
    {
      "midi": 58,
      "hit": false,
      "t": 223356.427649998,
      "d": 760.6384500000277,
      "v": 40
    },
    {
      "midi": 72,
      "hit": false,
      "t": 223526.640449998,
      "d": 140.9574750000029,
      "v": 52
    },
    {
      "midi": 72,
      "hit": false,
      "t": 223771.321349998,
      "d": 167.55322500001057,
      "v": 74
    },
    {
      "midi": 63,
      "hit": false,
      "t": 223981.427774998,
      "d": 77.12767499999609,
      "v": 19
    },
    {
      "midi": 72,
      "hit": false,
      "t": 224127.704399998,
      "d": 154.25534999999218,
      "v": 68
    },
    {
      "midi": 67,
      "hit": false,
      "t": 224284.619324998,
      "d": 37.23404999997001,
      "v": 43
    },
    {
      "midi": 63,
      "hit": false,
      "t": 224295.257624998,
      "d": 98.40427499997895,
      "v": 34
    },
    {
      "midi": 58,
      "hit": false,
      "t": 224300.576774998,
      "d": 90.42554999998538,
      "v": 29
    },
    {
      "midi": 62,
      "hit": false,
      "t": 224305.89592499798,
      "d": 45.21277499999269,
      "v": 30
    },
    {
      "midi": 72,
      "hit": false,
      "t": 224388.34274999797,
      "d": 148.93619999999646,
      "v": 76
    },
    {
      "midi": 71,
      "hit": false,
      "t": 224587.81087499796,
      "d": 210.1064250000054,
      "v": 38
    },
    {
      "midi": 67,
      "hit": false,
      "t": 224696.85344999796,
      "d": 255.3192000000272,
      "v": 38
    },
    {
      "midi": 63,
      "hit": false,
      "t": 224699.51302499796,
      "d": 316.48942500003614,
      "v": 30
    },
    {
      "midi": 72,
      "hit": false,
      "t": 224718.13004999797,
      "d": 140.9574750000029,
      "v": 49
    },
    {
      "midi": 57,
      "hit": false,
      "t": 224734.08749999796,
      "d": 276.59580000003916,
      "v": 27
    },
    {
      "midi": 77,
      "hit": false,
      "t": 224914.938599998,
      "d": 71.80852500000037,
      "v": 60
    },
    {
      "midi": 61,
      "hit": false,
      "t": 225542.598299998,
      "d": 69.14895000000251,
      "v": 69
    },
    {
      "midi": 65,
      "hit": false,
      "t": 225547.917449998,
      "d": 29.25532500000554,
      "v": 68
    },
    {
      "midi": 55,
      "hit": false,
      "t": 225558.555749998,
      "d": 31.9149000000034,
      "v": 57
    },
    {
      "midi": 57,
      "hit": false,
      "t": 225891.00262499801,
      "d": 26.595750000007683,
      "v": 56
    },
    {
      "midi": 60,
      "hit": false,
      "t": 225891.00262499801,
      "d": 26.595750000007683,
      "v": 57
    },
    {
      "midi": 53,
      "hit": false,
      "t": 225896.321774998,
      "d": 42.553200000023935,
      "v": 41
    },
    {
      "midi": 75,
      "hit": false,
      "t": 225992.06647499802,
      "d": 175.53194999994594,
      "v": 60
    },
    {
      "midi": 67,
      "hit": false,
      "t": 225994.72604999802,
      "d": 212.76599999994505,
      "v": 88
    },
    {
      "midi": 79,
      "hit": false,
      "t": 225997.38562499802,
      "d": 244.68089999994845,
      "v": 75
    },
    {
      "midi": 50,
      "hit": false,
      "t": 226002.704774998,
      "d": 220.74472499993863,
      "v": 62
    },
    {
      "midi": 73,
      "hit": false,
      "t": 226010.683499998,
      "d": 37.23404999997001,
      "v": 36
    },
    {
      "midi": 53,
      "hit": false,
      "t": 226013.343074998,
      "d": 202.12769999995362,
      "v": 51
    },
    {
      "midi": 57,
      "hit": false,
      "t": 226021.321799998,
      "d": 196.8085499999579,
      "v": 68
    },
    {
      "midi": 78,
      "hit": false,
      "t": 226029.300524998,
      "d": 31.914899999974295,
      "v": 26
    },
    {
      "midi": 60,
      "hit": false,
      "t": 226034.619674998,
      "d": 26.59574999997858,
      "v": 36
    },
    {
      "midi": 51,
      "hit": false,
      "t": 226039.93882499798,
      "d": 26.59574999997858,
      "v": 29
    },
    {
      "midi": 76,
      "hit": false,
      "t": 226138.34309999796,
      "d": 77.12767499999609,
      "v": 55
    },
    {
      "midi": 50,
      "hit": false,
      "t": 226311.21547499797,
      "d": 183.51067499996861,
      "v": 60
    },
    {
      "midi": 75,
      "hit": false,
      "t": 226313.87504999797,
      "d": 130.31917499998235,
      "v": 72
    },
    {
      "midi": 79,
      "hit": false,
      "t": 226316.53462499796,
      "d": 170.21279999997932,
      "v": 53
    },
    {
      "midi": 67,
      "hit": false,
      "t": 226321.85377499796,
      "d": 143.61704999997164,
      "v": 80
    },
    {
      "midi": 60,
      "hit": false,
      "t": 226321.85377499796,
      "d": 170.21279999997932,
      "v": 71
    },
    {
      "midi": 57,
      "hit": false,
      "t": 226329.83249999795,
      "d": 170.21279999997932,
      "v": 62
    },
    {
      "midi": 53,
      "hit": false,
      "t": 226329.83249999795,
      "d": 180.85109999997076,
      "v": 54
    },
    {
      "midi": 73,
      "hit": false,
      "t": 226337.81122499795,
      "d": 31.9149000000034,
      "v": 33
    },
    {
      "midi": 76,
      "hit": false,
      "t": 226428.23677499796,
      "d": 31.914899999974295,
      "v": 62
    },
    {
      "midi": 77,
      "hit": false,
      "t": 226547.91764999792,
      "d": 69.14894999997341,
      "v": 62
    },
    {
      "midi": 65,
      "hit": false,
      "t": 226555.89637499792,
      "d": 29.255324999976438,
      "v": 60
    },
    {
      "midi": 50,
      "hit": false,
      "t": 226561.2155249979,
      "d": 289.89367499994114,
      "v": 44
    },
    {
      "midi": 60,
      "hit": false,
      "t": 226569.1942499979,
      "d": 37.234049999999115,
      "v": 50
    },
    {
      "midi": 57,
      "hit": false,
      "t": 226574.5133999979,
      "d": 37.234049999999115,
      "v": 40
    },
    {
      "midi": 53,
      "hit": false,
      "t": 226587.8112749979,
      "d": 273.936224999954,
      "v": 31
    },
    {
      "midi": 60,
      "hit": false,
      "t": 226672.9176749979,
      "d": 159.5744999999588,
      "v": 71
    },
    {
      "midi": 79,
      "hit": false,
      "t": 226683.5559749979,
      "d": 130.31917499998235,
      "v": 66
    },
    {
      "midi": 67,
      "hit": false,
      "t": 226688.8751249979,
      "d": 114.3617249999952,
      "v": 70
    },
    {
      "midi": 76,
      "hit": false,
      "t": 226688.8751249979,
      "d": 130.31917499998235,
      "v": 64
    },
    {
      "midi": 57,
      "hit": false,
      "t": 226688.8751249979,
      "d": 146.2766249999695,
      "v": 68
    },
    {
      "midi": 77,
      "hit": false,
      "t": 226933.55602499784,
      "d": 98.40427499994985,
      "v": 60
    },
    {
      "midi": 50,
      "hit": false,
      "t": 226936.21559999784,
      "d": 34.57447499997215,
      "v": 34
    },
    {
      "midi": 65,
      "hit": false,
      "t": 226938.87517499784,
      "d": 50.5319249999593,
      "v": 58
    },
    {
      "midi": 60,
      "hit": false,
      "t": 226941.53474999784,
      "d": 55.85107499995502,
      "v": 58
    },
    {
      "midi": 57,
      "hit": false,
      "t": 226952.17304999783,
      "d": 31.914899999974295,
      "v": 49
    },
    {
      "midi": 53,
      "hit": false,
      "t": 226962.81134999782,
      "d": 31.914899999974295,
      "v": 24
    },
    {
      "midi": 74,
      "hit": false,
      "t": 226968.13049999782,
      "d": 37.23404999997001,
      "v": 33
    },
    {
      "midi": 53,
      "hit": false,
      "t": 227167.5986249978,
      "d": 29.25532500000554,
      "v": 64
    },
    {
      "midi": 59,
      "hit": false,
      "t": 227167.5986249978,
      "d": 50.531924999988405,
      "v": 66
    },
    {
      "midi": 67,
      "hit": false,
      "t": 227170.2581999978,
      "d": 26.595750000007683,
      "v": 77
    },
    {
      "midi": 76,
      "hit": false,
      "t": 227170.2581999978,
      "d": 58.51064999998198,
      "v": 70
    },
    {
      "midi": 79,
      "hit": false,
      "t": 227172.9177749978,
      "d": 66.48937499997555,
      "v": 64
    },
    {
      "midi": 64,
      "hit": false,
      "t": 227178.2369249978,
      "d": 26.595750000007683,
      "v": 55
    },
    {
      "midi": 68,
      "hit": false,
      "t": 227465.47102499777,
      "d": 359.04262499997276,
      "v": 85
    },
    {
      "midi": 75,
      "hit": false,
      "t": 227468.13059999776,
      "d": 345.74474999998347,
      "v": 78
    },
    {
      "midi": 80,
      "hit": false,
      "t": 227468.13059999776,
      "d": 345.74474999998347,
      "v": 77
    },
    {
      "midi": 53,
      "hit": false,
      "t": 227484.08804999775,
      "d": 316.48942500000703,
      "v": 88
    },
    {
      "midi": 59,
      "hit": false,
      "t": 227486.74762499775,
      "d": 351.0638999999792,
      "v": 80
    },
    {
      "midi": 64,
      "hit": false,
      "t": 227489.40719999775,
      "d": 313.8298500000092,
      "v": 83
    },
    {
      "midi": 64,
      "hit": false,
      "t": 227898.98174999774,
      "d": 77.12767499999609,
      "v": 62
    },
    {
      "midi": 53,
      "hit": false,
      "t": 227898.98174999774,
      "d": 109.04257499997038,
      "v": 55
    },
    {
      "midi": 79,
      "hit": false,
      "t": 227901.64132499773,
      "d": 103.72342499997467,
      "v": 65
    },
    {
      "midi": 59,
      "hit": false,
      "t": 227901.64132499773,
      "d": 111.70214999996824,
      "v": 68
    },
    {
      "midi": 74,
      "hit": false,
      "t": 227906.96047499773,
      "d": 82.4468249999918,
      "v": 64
    },
    {
      "midi": 67,
      "hit": false,
      "t": 227912.27962499773,
      "d": 82.4468249999918,
      "v": 51
    },
    {
      "midi": 77,
      "hit": false,
      "t": 227938.87537499773,
      "d": 61.17022499997984,
      "v": 27
    },
    {
      "midi": 59,
      "hit": false,
      "t": 228199.5137249977,
      "d": 31.914899999974295,
      "v": 61
    },
    {
      "midi": 53,
      "hit": false,
      "t": 228202.1732999977,
      "d": 69.14894999997341,
      "v": 61
    },
    {
      "midi": 64,
      "hit": false,
      "t": 228204.8328749977,
      "d": 29.255324999976438,
      "v": 53
    },
    {
      "midi": 77,
      "hit": false,
      "t": 228204.8328749977,
      "d": 71.80852499997127,
      "v": 66
    },
    {
      "midi": 65,
      "hit": false,
      "t": 228215.47117499769,
      "d": 58.51064999998198,
      "v": 71
    },
    {
      "midi": 72,
      "hit": false,
      "t": 228215.47117499769,
      "d": 63.829799999977695,
      "v": 59
    },
    {
      "midi": 48,
      "hit": false,
      "t": 228534.62017499766,
      "d": 239.36174999998184,
      "v": 48
    },
    {
      "midi": 75,
      "hit": false,
      "t": 228539.93932499766,
      "d": 367.02135000002454,
      "v": 58
    },
    {
      "midi": 55,
      "hit": false,
      "t": 228542.59889999765,
      "d": 252.65962500000023,
      "v": 55
    },
    {
      "midi": 58,
      "hit": false,
      "t": 228542.59889999765,
      "d": 308.51070000001346,
      "v": 46
    },
    {
      "midi": 51,
      "hit": false,
      "t": 228553.23719999765,
      "d": 311.1702750000113,
      "v": 36
    },
    {
      "midi": 63,
      "hit": false,
      "t": 228553.23719999765,
      "d": 316.48942500000703,
      "v": 48
    },
    {
      "midi": 70,
      "hit": false,
      "t": 228553.23719999765,
      "d": 335.10645000002114,
      "v": 57
    },
    {
      "midi": 50,
      "hit": false,
      "t": 229172.9181749977,
      "d": 316.4894249999488,
      "v": 39
    },
    {
      "midi": 57,
      "hit": false,
      "t": 229178.2373249977,
      "d": 308.51069999995525,
      "v": 37
    },
    {
      "midi": 60,
      "hit": false,
      "t": 229178.2373249977,
      "d": 375.0000749999308,
      "v": 52
    },
    {
      "midi": 72,
      "hit": false,
      "t": 229180.8968999977,
      "d": 335.10644999993383,
      "v": 57
    },
    {
      "midi": 77,
      "hit": false,
      "t": 229180.8968999977,
      "d": 382.9787999999244,
      "v": 63
    },
    {
      "midi": 65,
      "hit": false,
      "t": 229186.2160499977,
      "d": 313.82984999995097,
      "v": 58
    },
    {
      "midi": 53,
      "hit": false,
      "t": 229188.8756249977,
      "d": 284.5745249999745,
      "v": 40
    },
    {
      "midi": 79,
      "hit": false,
      "t": 229819.19489999762,
      "d": 260.6383499999647,
      "v": 60
    },
    {
      "midi": 51,
      "hit": false,
      "t": 229819.19489999762,
      "d": 319.1489999999758,
      "v": 38
    },
    {
      "midi": 74,
      "hit": false,
      "t": 229824.5140499976,
      "d": 284.5745249999745,
      "v": 60
    },
    {
      "midi": 67,
      "hit": false,
      "t": 229827.1736249976,
      "d": 236.70217499998398,
      "v": 53
    },
    {
      "midi": 62,
      "hit": false,
      "t": 229829.8331999976,
      "d": 308.51069999998435,
      "v": 36
    },
    {
      "midi": 58,
      "hit": false,
      "t": 229829.8331999976,
      "d": 372.34049999999115,
      "v": 39
    },
    {
      "midi": 55,
      "hit": false,
      "t": 229843.1310749976,
      "d": 313.8298500000092,
      "v": 39
    },
    {
      "midi": 52,
      "hit": false,
      "t": 230319.1949999976,
      "d": 90.42554999995627,
      "v": 62
    },
    {
      "midi": 61,
      "hit": false,
      "t": 230327.17372499758,
      "d": 55.85107499998412,
      "v": 57
    },
    {
      "midi": 81,
      "hit": false,
      "t": 230329.83329999758,
      "d": 66.48937499997555,
      "v": 70
    },
    {
      "midi": 58,
      "hit": false,
      "t": 230329.83329999758,
      "d": 90.42554999995627,
      "v": 53
    },
    {
      "midi": 69,
      "hit": false,
      "t": 230332.49287499758,
      "d": 42.55319999999483,
      "v": 69
    },
    {
      "midi": 53,
      "hit": false,
      "t": 230664.93974999755,
      "d": 215.42557500000112,
      "v": 49
    },
    {
      "midi": 63,
      "hit": false,
      "t": 230670.25889999754,
      "d": 252.65962500000023,
      "v": 52
    },
    {
      "midi": 82,
      "hit": false,
      "t": 230670.25889999754,
      "d": 284.57452500000363,
      "v": 71
    },
    {
      "midi": 70,
      "hit": false,
      "t": 230672.91847499754,
      "d": 289.89367499999935,
      "v": 69
    },
    {
      "midi": 60,
      "hit": false,
      "t": 230678.23762499754,
      "d": 194.14897500001825,
      "v": 53
    },
    {
      "midi": 58,
      "hit": false,
      "t": 230683.55677499753,
      "d": 228.7234500000195,
      "v": 44
    },
    {
      "midi": 81,
      "hit": false,
      "t": 231119.72707499753,
      "d": 452.127749999956,
      "v": 65
    },
    {
      "midi": 65,
      "hit": false,
      "t": 231125.04622499752,
      "d": 156.91492499999003,
      "v": 53
    },
    {
      "midi": 69,
      "hit": false,
      "t": 231130.36537499752,
      "d": 297.8723999999638,
      "v": 49
    },
    {
      "midi": 74,
      "hit": false,
      "t": 231133.02494999752,
      "d": 324.4681499999715,
      "v": 44
    },
    {
      "midi": 62,
      "hit": false,
      "t": 231154.30154999753,
      "d": 507.9788249999401,
      "v": 43
    },
    {
      "midi": 60,
      "hit": false,
      "t": 231156.96112499753,
      "d": 452.127749999956,
      "v": 36
    },
    {
      "midi": 77,
      "hit": false,
      "t": 231159.62069999753,
      "d": 382.9787999999535,
      "v": 41
    },
    {
      "midi": 53,
      "hit": false,
      "t": 231404.3015999975,
      "d": 1422.8726249999017,
      "v": 51
    },
    {
      "midi": 65,
      "hit": false,
      "t": 231928.23787499746,
      "d": 180.85109999999986,
      "v": 62
    },
    {
      "midi": 89,
      "hit": false,
      "t": 231928.23787499746,
      "d": 305.8511249999865,
      "v": 77
    },
    {
      "midi": 62,
      "hit": false,
      "t": 231936.21659999745,
      "d": 210.1064250000054,
      "v": 50
    },
    {
      "midi": 60,
      "hit": false,
      "t": 231938.87617499745,
      "d": 140.9574750000029,
      "v": 46
    },
    {
      "midi": 81,
      "hit": false,
      "t": 231949.51447499744,
      "d": 292.5532499999972,
      "v": 71
    },
    {
      "midi": 87,
      "hit": false,
      "t": 232361.74859999743,
      "d": 297.8723999999929,
      "v": 67
    },
    {
      "midi": 63,
      "hit": false,
      "t": 232375.04647499742,
      "d": 367.02134999999544,
      "v": 42
    },
    {
      "midi": 82,
      "hit": false,
      "t": 232377.70604999742,
      "d": 311.1702750000113,
      "v": 43
    },
    {
      "midi": 79,
      "hit": false,
      "t": 232377.70604999742,
      "d": 335.10645000002114,
      "v": 53
    },
    {
      "midi": 58,
      "hit": false,
      "t": 232383.0251999974,
      "d": 345.7447500000126,
      "v": 33
    },
    {
      "midi": 65,
      "hit": false,
      "t": 232385.6847749974,
      "d": 404.25539999999455,
      "v": 38
    },
    {
      "midi": 53,
      "hit": false,
      "t": 232904.3018999974,
      "d": 93.08512500001234,
      "v": 60
    },
    {
      "midi": 53,
      "hit": false,
      "t": 233077.1742749974,
      "d": 425.5319999999774,
      "v": 58
    },
    {
      "midi": 65,
      "hit": false,
      "t": 233353.77007499742,
      "d": 69.14894999997341,
      "v": 35
    },
    {
      "midi": 63,
      "hit": false,
      "t": 233353.77007499742,
      "d": 77.12767499996698,
      "v": 27
    },
    {
      "midi": 78,
      "hit": false,
      "t": 233361.7487999974,
      "d": 82.4468249999627,
      "v": 39
    },
    {
      "midi": 74,
      "hit": false,
      "t": 233372.3870999974,
      "d": 42.55319999999483,
      "v": 47
    },
    {
      "midi": 69,
      "hit": false,
      "t": 233377.7062499974,
      "d": 37.234049999999115,
      "v": 37
    },
    {
      "midi": 46,
      "hit": false,
      "t": 233766.0041999974,
      "d": 1824.4684500000149,
      "v": 42
    },
    {
      "midi": 53,
      "hit": false,
      "t": 234188.8766249974,
      "d": 1534.5747750000155,
      "v": 34
    },
    {
      "midi": 62,
      "hit": false,
      "t": 234619.72777499742,
      "d": 1007.9789250000031,
      "v": 32
    },
    {
      "midi": 69,
      "hit": false,
      "t": 234643.66394999743,
      "d": 1029.255525000015,
      "v": 36
    },
    {
      "midi": 57,
      "hit": false,
      "t": 234648.98309999742,
      "d": 1039.8938250000065,
      "v": 28
    },
    {
      "midi": 74,
      "hit": false,
      "t": 234688.87672499742,
      "d": 962.7661500000104,
      "v": 51
    },
    {
      "midi": 46,
      "hit": false,
      "t": 235787.28119999744,
      "d": 2026.5961500000267,
      "v": 48
    },
    {
      "midi": 62,
      "hit": false,
      "t": 235896.32377499744,
      "d": 773.936325000017,
      "v": 60
    },
    {
      "midi": 54,
      "hit": false,
      "t": 235925.57909999744,
      "d": 1981.383375000005,
      "v": 64
    },
    {
      "midi": 69,
      "hit": false,
      "t": 235928.23867499744,
      "d": 694.149075000023,
      "v": 66
    },
    {
      "midi": 57,
      "hit": false,
      "t": 235946.85569999745,
      "d": 1765.9578000000038,
      "v": 68
    },
    {
      "midi": 74,
      "hit": false,
      "t": 235976.11102499746,
      "d": 382.9788000000117,
      "v": 75
    },
    {
      "midi": 72,
      "hit": false,
      "t": 236425.57919999748,
      "d": 598.4043749999837,
      "v": 65
    },
    {
      "midi": 70,
      "hit": false,
      "t": 236715.47287499745,
      "d": 380.31922500001383,
      "v": 69
    },
    {
      "midi": 69,
      "hit": false,
      "t": 237055.89847499746,
      "d": 547.8724499999953,
      "v": 78
    },
    {
      "midi": 67,
      "hit": false,
      "t": 237539.94112499745,
      "d": 321.80857500000275,
      "v": 58
    },
    {
      "midi": 66,
      "hit": false,
      "t": 237968.13269999746,
      "d": 449.46817500001634,
      "v": 56
    },
    {
      "midi": 74,
      "hit": false,
      "t": 237978.77099999745,
      "d": 534.5745750000351,
      "v": 69
    },
    {
      "midi": 46,
      "hit": false,
      "t": 237997.38802499746,
      "d": 686.1703500000294,
      "v": 33
    },
    {
      "midi": 54,
      "hit": false,
      "t": 238268.66467499748,
      "d": 832.4469749999989,
      "v": 49
    },
    {
      "midi": 66,
      "hit": false,
      "t": 238508.0264249975,
      "d": 390.95752500000526,
      "v": 35
    },
    {
      "midi": 62,
      "hit": false,
      "t": 238531.9625999975,
      "d": 220.74472499999683,
      "v": 53
    },
    {
      "midi": 57,
      "hit": false,
      "t": 238545.26047499749,
      "d": 390.95752500000526,
      "v": 26
    },
    {
      "midi": 74,
      "hit": false,
      "t": 238787.2817999975,
      "d": 159.5744999999879,
      "v": 55
    },
    {
      "midi": 46,
      "hit": false,
      "t": 239055.89887499748,
      "d": 1558.5109499999962,
      "v": 1
    },
    {
      "midi": 74,
      "hit": false,
      "t": 239119.7286749975,
      "d": 340.42560000001686,
      "v": 48
    },
    {
      "midi": 67,
      "hit": false,
      "t": 239125.04782499748,
      "d": 1175.5321500000136,
      "v": 45
    },
    {
      "midi": 62,
      "hit": false,
      "t": 239151.6435749975,
      "d": 1361.7024000000092,
      "v": 34
    },
    {
      "midi": 55,
      "hit": false,
      "t": 239172.9201749975,
      "d": 1398.9364499999792,
      "v": 25
    },
    {
      "midi": 72,
      "hit": false,
      "t": 239587.81387499752,
      "d": 231.38302499998827,
      "v": 45
    },
    {
      "midi": 70,
      "hit": false,
      "t": 239896.3245749975,
      "d": 327.12772499999846,
      "v": 53
    },
    {
      "midi": 69,
      "hit": false,
      "t": 240252.7076249975,
      "d": 316.4894249999779,
      "v": 53
    },
    {
      "midi": 67,
      "hit": false,
      "t": 240561.2183249975,
      "d": 71.80852500000037,
      "v": 56
    },
    {
      "midi": 63,
      "hit": false,
      "t": 240978.7715999975,
      "d": 337.7660249999899,
      "v": 29
    },
    {
      "midi": 46,
      "hit": false,
      "t": 240986.7503249975,
      "d": 300.5319749999908,
      "v": 26
    },
    {
      "midi": 60,
      "hit": false,
      "t": 240992.0694749975,
      "d": 257.97877499999595,
      "v": 32
    },
    {
      "midi": 56,
      "hit": false,
      "t": 240992.0694749975,
      "d": 335.10644999999204,
      "v": 20
    },
    {
      "midi": 68,
      "hit": false,
      "t": 241295.26102499748,
      "d": 74.46809999999823,
      "v": 47
    },
    {
      "midi": 84,
      "hit": false,
      "t": 241654.30364999748,
      "d": 946.8086999999941,
      "v": 79
    },
    {
      "midi": 77,
      "hit": false,
      "t": 242034.6228749975,
      "d": 367.02134999996633,
      "v": 47
    },
    {
      "midi": 72,
      "hit": false,
      "t": 242042.6015999975,
      "d": 460.1064749999787,
      "v": 31
    },
    {
      "midi": 68,
      "hit": false,
      "t": 242058.55904999748,
      "d": 1098.4044750000176,
      "v": 21
    },
    {
      "midi": 63,
      "hit": false,
      "t": 242071.85692499747,
      "d": 1287.234300000011,
      "v": 26
    },
    {
      "midi": 60,
      "hit": false,
      "t": 242109.09097499747,
      "d": 1132.9789500000188,
      "v": 20
    },
    {
      "midi": 77,
      "hit": false,
      "t": 242593.13362499748,
      "d": 571.8086250000051,
      "v": 44
    },
    {
      "midi": 72,
      "hit": false,
      "t": 242622.3889499975,
      "d": 422.87242500000866,
      "v": 15
    },
    {
      "midi": 84,
      "hit": false,
      "t": 243002.7081749975,
      "d": 281.91494999997667,
      "v": 80
    },
    {
      "midi": 84,
      "hit": false,
      "t": 243473.45294999747,
      "d": 1606.3832999999868,
      "v": 88
    },
    {
      "midi": 56,
      "hit": false,
      "t": 243492.0699749975,
      "d": 478.7234999999637,
      "v": 34
    },
    {
      "midi": 67,
      "hit": false,
      "t": 243502.70827499748,
      "d": 367.02134999999544,
      "v": 31
    },
    {
      "midi": 62,
      "hit": false,
      "t": 243502.70827499748,
      "d": 420.2128499999817,
      "v": 34
    },
    {
      "midi": 34,
      "hit": false,
      "t": 244375.04887499745,
      "d": 71.80852500000037,
      "v": 42
    },
    {
      "midi": 82,
      "hit": false,
      "t": 245151.64477499746,
      "d": 228.7234499999904,
      "v": 69
    },
    {
      "midi": 80,
      "hit": false,
      "t": 245425.58099999744,
      "d": 194.14897499998915,
      "v": 77
    },
    {
      "midi": 82,
      "hit": false,
      "t": 245441.53844999743,
      "d": 122.34044999998878,
      "v": 46
    },
    {
      "midi": 79,
      "hit": false,
      "t": 245710.15552499745,
      "d": 223.4042999999947,
      "v": 77
    },
    {
      "midi": 77,
      "hit": false,
      "t": 245997.38962499745,
      "d": 303.19154999998864,
      "v": 79
    },
    {
      "midi": 75,
      "hit": false,
      "t": 246345.79394999743,
      "d": 380.31922500001383,
      "v": 74
    },
    {
      "midi": 63,
      "hit": false,
      "t": 246356.43224999742,
      "d": 1643.617350000044,
      "v": 43
    },
    {
      "midi": 57,
      "hit": false,
      "t": 246364.41097499742,
      "d": 1436.1705000000366,
      "v": 54
    },
    {
      "midi": 68,
      "hit": false,
      "t": 246367.0705499974,
      "d": 1579.7875500000664,
      "v": 43
    },
    {
      "midi": 87,
      "hit": false,
      "t": 246891.00682499746,
      "d": 696.8086499999918,
      "v": 49
    },
    {
      "midi": 88,
      "hit": false,
      "t": 246938.87917499745,
      "d": 34.57447500000126,
      "v": 27
    },
    {
      "midi": 75,
      "hit": false,
      "t": 247391.00692499746,
      "d": 632.9788500000141,
      "v": 36
    },
    {
      "midi": 87,
      "hit": false,
      "t": 247819.19849999747,
      "d": 239.36175000001094,
      "v": 49
    },
    {
      "midi": 89,
      "hit": false,
      "t": 248345.79434999748,
      "d": 268.6170749999583,
      "v": 48
    },
    {
      "midi": 68,
      "hit": false,
      "t": 248356.43264999747,
      "d": 515.9575499999628,
      "v": 30
    },
    {
      "midi": 84,
      "hit": false,
      "t": 248372.39009999746,
      "d": 265.9574999999895,
      "v": 38
    },
    {
      "midi": 63,
      "hit": false,
      "t": 248372.39009999746,
      "d": 545.2128749999683,
      "v": 30
    },
    {
      "midi": 77,
      "hit": false,
      "t": 248377.70924999745,
      "d": 369.6809249999933,
      "v": 27
    },
    {
      "midi": 60,
      "hit": false,
      "t": 248385.68797499745,
      "d": 433.5107250000001,
      "v": 28
    },
    {
      "midi": 58,
      "hit": false,
      "t": 248861.75189999744,
      "d": 106.38299999997253,
      "v": 35
    },
    {
      "midi": 73,
      "hit": false,
      "t": 249776.6456999974,
      "d": 824.4682499999471,
      "v": 25
    },
    {
      "midi": 61,
      "hit": false,
      "t": 249787.2839999974,
      "d": 805.8512249999621,
      "v": 29
    },
    {
      "midi": 40,
      "hit": false,
      "t": 249808.56059999738,
      "d": 757.9788750000007,
      "v": 31
    },
    {
      "midi": 66,
      "hit": false,
      "t": 249813.87974999737,
      "d": 776.5958999999857,
      "v": 34
    },
    {
      "midi": 47,
      "hit": false,
      "t": 249816.53932499737,
      "d": 757.9788750000007,
      "v": 25
    },
    {
      "midi": 70,
      "hit": false,
      "t": 249819.19889999737,
      "d": 752.659725000005,
      "v": 36
    },
    {
      "midi": 52,
      "hit": false,
      "t": 249827.17762499736,
      "d": 755.3193000000028,
      "v": 20
    },
    {
      "midi": 69,
      "hit": false,
      "t": 251170.26299999736,
      "d": 656.9150249999657,
      "v": 30
    },
    {
      "midi": 62,
      "hit": false,
      "t": 251191.53959999737,
      "d": 500.00009999997565,
      "v": 38
    },
    {
      "midi": 39,
      "hit": false,
      "t": 251194.19917499737,
      "d": 497.3405249999778,
      "v": 30
    },
    {
      "midi": 46,
      "hit": false,
      "t": 251199.51832499736,
      "d": 542.5532999999705,
      "v": 28
    },
    {
      "midi": 55,
      "hit": false,
      "t": 251212.81619999735,
      "d": 356.3830499999749,
      "v": 27
    },
    {
      "midi": 57,
      "hit": false,
      "t": 251218.13534999735,
      "d": 375.000074999989,
      "v": 24
    },
    {
      "midi": 67,
      "hit": false,
      "t": 252212.81639999733,
      "d": 297.8723999999929,
      "v": 95
    },
    {
      "midi": 51,
      "hit": false,
      "t": 252704.83777499732,
      "d": 547.8724499999662,
      "v": 56
    },
    {
      "midi": 67,
      "hit": false,
      "t": 252707.4973499973,
      "d": 292.5532499999681,
      "v": 92
    },
    {
      "midi": 59,
      "hit": false,
      "t": 252720.7952249973,
      "d": 675.5320499999798,
      "v": 45
    },
    {
      "midi": 67,
      "hit": false,
      "t": 253066.5399749973,
      "d": 151.59577499999432,
      "v": 74
    },
    {
      "midi": 67,
      "hit": false,
      "t": 253380.3698249973,
      "d": 398.93624999996973,
      "v": 75
    },
    {
      "midi": 51,
      "hit": false,
      "t": 253398.98684999728,
      "d": 1265.95769999997,
      "v": 25
    },
    {
      "midi": 60,
      "hit": false,
      "t": 253414.94429999727,
      "d": 920.2129499999864,
      "v": 46
    },
    {
      "midi": 65,
      "hit": false,
      "t": 253808.56139999727,
      "d": 281.9149500000058,
      "v": 58
    },
    {
      "midi": 63,
      "hit": false,
      "t": 254069.19974999726,
      "d": 218.08514999999898,
      "v": 34
    },
    {
      "midi": 62,
      "hit": false,
      "t": 254348.45512499724,
      "d": 279.2553750000079,
      "v": 44
    },
    {
      "midi": 60,
      "hit": false,
      "t": 254651.64667499726,
      "d": 159.5744999999879,
      "v": 28
    },
    {
      "midi": 66,
      "hit": false,
      "t": 255021.32759999725,
      "d": 670.2129000000132,
      "v": 45
    },
    {
      "midi": 51,
      "hit": false,
      "t": 255031.96589999725,
      "d": 1824.4684499999858,
      "v": 37
    },
    {
      "midi": 63,
      "hit": false,
      "t": 255034.62547499724,
      "d": 646.2767250000325,
      "v": 35
    },
    {
      "midi": 58,
      "hit": false,
      "t": 255388.34894999728,
      "d": 359.04262500000186,
      "v": 32
    },
    {
      "midi": 66,
      "hit": false,
      "t": 255773.9873249973,
      "d": 250.00004999997327,
      "v": 60
    },
    {
      "midi": 63,
      "hit": false,
      "t": 255773.9873249973,
      "d": 292.5532499999681,
      "v": 54
    },
    {
      "midi": 59,
      "hit": false,
      "t": 255787.28519999728,
      "d": 460.1064749999787,
      "v": 40
    },
    {
      "midi": 66,
      "hit": false,
      "t": 256098.45547499726,
      "d": 194.14897499998915,
      "v": 65
    },
    {
      "midi": 66,
      "hit": false,
      "t": 256430.90234999725,
      "d": 335.10644999996293,
      "v": 64
    },
    {
      "midi": 63,
      "hit": false,
      "t": 256436.22149999725,
      "d": 351.0638999999792,
      "v": 64
    },
    {
      "midi": 60,
      "hit": false,
      "t": 256446.85979999724,
      "d": 311.1702749999822,
      "v": 43
    },
    {
      "midi": 65,
      "hit": false,
      "t": 256816.54072499723,
      "d": 587.7660749999923,
      "v": 62
    },
    {
      "midi": 63,
      "hit": false,
      "t": 257101.11524999724,
      "d": 377.65964999998687,
      "v": 35
    },
    {
      "midi": 41,
      "hit": false,
      "t": 257539.94512499723,
      "d": 710.106524999981,
      "v": 39
    },
    {
      "midi": 61,
      "hit": false,
      "t": 257539.94512499723,
      "d": 797.8724999999686,
      "v": 40
    },
    {
      "midi": 51,
      "hit": false,
      "t": 257561.22172499725,
      "d": 848.404424999957,
      "v": 20
    },
    {
      "midi": 60,
      "hit": false,
      "t": 258481.4346749972,
      "d": 69.14895000000251,
      "v": 53
    },
    {
      "midi": 74,
      "hit": false,
      "t": 259071.8603249972,
      "d": 675.5320499999798,
      "v": 67
    },
    {
      "midi": 50,
      "hit": false,
      "t": 259087.81777499718,
      "d": 813.8299499999848,
      "v": 47
    },
    {
      "midi": 62,
      "hit": false,
      "t": 259101.11564999717,
      "d": 398.93624999999884,
      "v": 64
    },
    {
      "midi": 58,
      "hit": false,
      "t": 259106.43479999717,
      "d": 228.7234499999904,
      "v": 27
    },
    {
      "midi": 58,
      "hit": false,
      "t": 259473.45614999716,
      "d": 739.3618500000157,
      "v": 46
    },
    {
      "midi": 70,
      "hit": false,
      "t": 259803.2434499972,
      "d": 271.27664999998524,
      "v": 57
    },
    {
      "midi": 62,
      "hit": false,
      "t": 259813.88174999718,
      "d": 255.3191999999981,
      "v": 50
    },
    {
      "midi": 50,
      "hit": false,
      "t": 260151.64777499717,
      "d": 114.3617249999952,
      "v": 43
    },
    {
      "midi": 81,
      "hit": false,
      "t": 260646.32872499718,
      "d": 563.8298999999824,
      "v": 55
    },
    {
      "midi": 74,
      "hit": false,
      "t": 260654.30744999717,
      "d": 574.468200000003,
      "v": 48
    },
    {
      "midi": 69,
      "hit": false,
      "t": 260659.62659999717,
      "d": 579.7873499999987,
      "v": 36
    },
    {
      "midi": 67,
      "hit": false,
      "t": 260662.28617499716,
      "d": 470.7447749999992,
      "v": 43
    },
    {
      "midi": 39,
      "hit": false,
      "t": 260672.92447499715,
      "d": 393.6171000000031,
      "v": 35
    },
    {
      "midi": 46,
      "hit": false,
      "t": 261114.41392499715,
      "d": 478.7234999999928,
      "v": 38
    },
    {
      "midi": 74,
      "hit": false,
      "t": 261577.17997499715,
      "d": 702.1277999999875,
      "v": 48
    },
    {
      "midi": 67,
      "hit": false,
      "t": 261595.79699999714,
      "d": 571.808624999976,
      "v": 40
    },
    {
      "midi": 77,
      "hit": false,
      "t": 261603.77572499713,
      "d": 420.2128500000108,
      "v": 36
    },
    {
      "midi": 55,
      "hit": false,
      "t": 261625.05232499714,
      "d": 539.8937249999726,
      "v": 33
    },
    {
      "midi": 58,
      "hit": false,
      "t": 262154.3077499971,
      "d": 260.6383500000229,
      "v": 32
    },
    {
      "midi": 50,
      "hit": false,
      "t": 262824.52064999717,
      "d": 98.40427499997895,
      "v": 70
    },
    {
      "midi": 60,
      "hit": false,
      "t": 263337.81862499716,
      "d": 1412.2343250000267,
      "v": 68
    },
    {
      "midi": 54,
      "hit": false,
      "t": 263337.81862499716,
      "d": 1465.425825000042,
      "v": 67
    },
    {
      "midi": 81,
      "hit": false,
      "t": 263340.47819999716,
      "d": 582.4469249999966,
      "v": 80
    },
    {
      "midi": 77,
      "hit": false,
      "t": 263343.13777499716,
      "d": 1061.1704250000184,
      "v": 79
    },
    {
      "midi": 65,
      "hit": false,
      "t": 263343.13777499716,
      "d": 1364.361975000007,
      "v": 75
    },
    {
      "midi": 72,
      "hit": false,
      "t": 263345.79734999716,
      "d": 1800.5322750000632,
      "v": 79
    },
    {
      "midi": 81,
      "hit": false,
      "t": 264061.22302499716,
      "d": 1117.0215000000317,
      "v": 65
    },
    {
      "midi": 77,
      "hit": false,
      "t": 264891.0104249972,
      "d": 396.2766750000301,
      "v": 48
    },
    {
      "midi": 81,
      "hit": false,
      "t": 265502.7126749972,
      "d": 819.1491000000387,
      "v": 66
    },
    {
      "midi": 43,
      "hit": false,
      "t": 265510.6913999972,
      "d": 117.02130000002217,
      "v": 44
    },
    {
      "midi": 79,
      "hit": false,
      "t": 266414.94689999725,
      "d": 140.9574750000029,
      "v": 34
    },
    {
      "midi": 78,
      "hit": false,
      "t": 266574.52139999723,
      "d": 106.38299999997253,
      "v": 21
    },
    {
      "midi": 77,
      "hit": false,
      "t": 266720.79802499723,
      "d": 1281.915149999957,
      "v": 31
    },
    {
      "midi": 53,
      "hit": false,
      "t": 266781.9682499972,
      "d": 1364.361975000007,
      "v": 20
    },
    {
      "midi": 59,
      "hit": false,
      "t": 266784.6278249972,
      "d": 1289.8938750000088,
      "v": 29
    },
    {
      "midi": 64,
      "hit": false,
      "t": 266789.9469749972,
      "d": 1236.7023749999935,
      "v": 17
    },
    {
      "midi": 68,
      "hit": false,
      "t": 267880.37272499717,
      "d": 367.02134999999544,
      "v": 29
    },
    {
      "midi": 82,
      "hit": false,
      "t": 268529.3090249972,
      "d": 1968.0854999999865,
      "v": 49
    },
    {
      "midi": 48,
      "hit": false,
      "t": 268571.8622249972,
      "d": 377.65964999998687,
      "v": 30
    },
    {
      "midi": 58,
      "hit": false,
      "t": 269186.22404999717,
      "d": 444.1490249999915,
      "v": 37
    },
    {
      "midi": 62,
      "hit": false,
      "t": 269659.62839999713,
      "d": 433.5107250000001,
      "v": 48
    },
    {
      "midi": 63,
      "hit": false,
      "t": 270066.54337499716,
      "d": 162.23407499998575,
      "v": 56
    },
    {
      "midi": 53,
      "hit": false,
      "t": 270646.33072499715,
      "d": 1223.4044999998296,
      "v": 46
    },
    {
      "midi": 63,
      "hit": false,
      "t": 270648.99029999715,
      "d": 1167.5534249998746,
      "v": 38
    },
    {
      "midi": 82,
      "hit": false,
      "t": 270662.28817499714,
      "d": 539.8937249999726,
      "v": 48
    },
    {
      "midi": 58,
      "hit": false,
      "t": 270664.94774999714,
      "d": 1210.1066249998403,
      "v": 55
    },
    {
      "midi": 75,
      "hit": false,
      "t": 270680.9051999971,
      "d": 704.7873749999562,
      "v": 61
    },
    {
      "midi": 70,
      "hit": false,
      "t": 270704.8413749971,
      "d": 672.8724749999819,
      "v": 47
    },
    {
      "midi": 81,
      "hit": false,
      "t": 271444.2032249971,
      "d": 316.4894249999779,
      "v": 67
    },
    {
      "midi": 77,
      "hit": false,
      "t": 271462.8202499971,
      "d": 311.1702749999822,
      "v": 61
    },
    {
      "midi": 60,
      "hit": false,
      "t": 271481.43727499706,
      "d": 361.7021999999415,
      "v": 30
    },
    {
      "midi": 75,
      "hit": false,
      "t": 271800.58627499704,
      "d": 255.319199999969,
      "v": 64
    },
    {
      "midi": 79,
      "hit": false,
      "t": 271803.24584999704,
      "d": 196.8085499999579,
      "v": 64
    },
    {
      "midi": 77,
      "hit": false,
      "t": 272561.224724997,
      "d": 457.4468999999808,
      "v": 55
    },
    {
      "midi": 51,
      "hit": false,
      "t": 272571.863024997,
      "d": 1773.9365250000264,
      "v": 38
    },
    {
      "midi": 70,
      "hit": false,
      "t": 272593.139624997,
      "d": 710.1065250000102,
      "v": 31
    },
    {
      "midi": 67,
      "hit": false,
      "t": 272606.437499997,
      "d": 367.02134999999544,
      "v": 36
    },
    {
      "midi": 60,
      "hit": false,
      "t": 272633.03324999695,
      "d": 484.0426500000176,
      "v": 24
    },
    {
      "midi": 69,
      "hit": false,
      "t": 273449.522774997,
      "d": 202.12770000001183,
      "v": 47
    },
    {
      "midi": 65,
      "hit": false,
      "t": 273470.799374997,
      "d": 132.9787500000093,
      "v": 31
    },
    {
      "midi": 60,
      "hit": false,
      "t": 273481.43767499697,
      "d": 784.5746250000666,
      "v": 24
    },
    {
      "midi": 83,
      "hit": false,
      "t": 273920.267549997,
      "d": 135.63832500000717,
      "v": 66
    },
    {
      "midi": 84,
      "hit": false,
      "t": 273922.927124997,
      "d": 462.76605000003474,
      "v": 64
    },
    {
      "midi": 81,
      "hit": false,
      "t": 274436.2250999971,
      "d": 359.04262499994365,
      "v": 66
    },
    {
      "midi": 72,
      "hit": false,
      "t": 274446.86339999706,
      "d": 396.27667499991367,
      "v": 29
    },
    {
      "midi": 77,
      "hit": false,
      "t": 274457.50169999705,
      "d": 353.72347499994794,
      "v": 36
    },
    {
      "midi": 60,
      "hit": false,
      "t": 274468.13999999705,
      "d": 640.9575749999494,
      "v": 31
    },
    {
      "midi": 50,
      "hit": false,
      "t": 274470.79957499704,
      "d": 992.0214749999577,
      "v": 29
    },
    {
      "midi": 57,
      "hit": false,
      "t": 274819.203899997,
      "d": 869.6810249998816,
      "v": 48
    },
    {
      "midi": 69,
      "hit": false,
      "t": 275180.906099997,
      "d": 343.0851749999565,
      "v": 80
    },
    {
      "midi": 65,
      "hit": false,
      "t": 275183.565674997,
      "d": 311.1702749999822,
      "v": 73
    },
    {
      "midi": 60,
      "hit": false,
      "t": 275188.884824997,
      "d": 481.38307499990333,
      "v": 38
    },
    {
      "midi": 69,
      "hit": false,
      "t": 275627.7146999969,
      "d": 204.78727499995148,
      "v": 60
    },
    {
      "midi": 50,
      "hit": false,
      "t": 275646.3317249969,
      "d": 164.8936499999836,
      "v": 46
    },
    {
      "midi": 63,
      "hit": false,
      "t": 276167.6084249969,
      "d": 45.212774999963585,
      "v": 44
    },
    {
      "midi": 69,
      "hit": false,
      "t": 276191.5445999969,
      "d": 819.1490999999805,
      "v": 40
    },
    {
      "midi": 59,
      "hit": false,
      "t": 276194.2041749969,
      "d": 1486.7024249999668,
      "v": 36
    },
    {
      "midi": 53,
      "hit": false,
      "t": 276212.82119999686,
      "d": 1598.4045749999932,
      "v": 45
    },
    {
      "midi": 43,
      "hit": false,
      "t": 276220.79992499686,
      "d": 1606.3832999999868,
      "v": 44
    },
    {
      "midi": 64,
      "hit": false,
      "t": 276223.45949999685,
      "d": 279.2553750000079,
      "v": 58
    },
    {
      "midi": 63,
      "hit": false,
      "t": 276611.7574499969,
      "d": 375.000074999989,
      "v": 43
    },
    {
      "midi": 62,
      "hit": false,
      "t": 277023.99157499685,
      "d": 779.2554750000127,
      "v": 57
    },
    {
      "midi": 67,
      "hit": false,
      "t": 277401.65122499684,
      "d": 228.7234499999904,
      "v": 60
    },
    {
      "midi": 65,
      "hit": false,
      "t": 277686.22574999684,
      "d": 319.1489999999758,
      "v": 58
    },
    {
      "midi": 63,
      "hit": false,
      "t": 278101.1194499968,
      "d": 1428.1917749998975,
      "v": 34
    },
    {
      "midi": 43,
      "hit": false,
      "t": 278103.7790249968,
      "d": 1074.4682999998913,
      "v": 31
    },
    {
      "midi": 59,
      "hit": false,
      "t": 278114.4173249968,
      "d": 1111.7023499999195,
      "v": 31
    },
    {
      "midi": 53,
      "hit": false,
      "t": 278133.0343499968,
      "d": 1029.2555249999277,
      "v": 29
    },
    {
      "midi": 62,
      "hit": false,
      "t": 279534.6303749967,
      "d": 901.5959249999723,
      "v": 40
    },
    {
      "midi": 74,
      "hit": false,
      "t": 280954.84342499665,
      "d": 417.55327499995474,
      "v": 50
    },
    {
      "midi": 48,
      "hit": false,
      "t": 280965.48172499664,
      "d": 598.4043749999837,
      "v": 32
    },
    {
      "midi": 67,
      "hit": false,
      "t": 280978.77959999663,
      "d": 566.4894750000094,
      "v": 40
    },
    {
      "midi": 63,
      "hit": false,
      "t": 280981.43917499663,
      "d": 603.7235249999794,
      "v": 33
    },
    {
      "midi": 58,
      "hit": false,
      "t": 280992.0774749966,
      "d": 715.4256750000059,
      "v": 20
    },
    {
      "midi": 74,
      "hit": false,
      "t": 281489.4179999966,
      "d": 175.53194999997504,
      "v": 38
    },
    {
      "midi": 79,
      "hit": false,
      "t": 283234.0991999966,
      "d": 502.6596750000026,
      "v": 44
    },
    {
      "midi": 50,
      "hit": false,
      "t": 283279.31197499664,
      "d": 750.0001500000362,
      "v": 31
    },
    {
      "midi": 67,
      "hit": false,
      "t": 283289.95027499663,
      "d": 672.8724750000401,
      "v": 37
    },
    {
      "midi": 72,
      "hit": false,
      "t": 283289.95027499663,
      "d": 877.659750000108,
      "v": 24
    },
    {
      "midi": 65,
      "hit": false,
      "t": 283292.60984999663,
      "d": 627.6597000000183,
      "v": 37
    },
    {
      "midi": 60,
      "hit": false,
      "t": 283305.9077249966,
      "d": 768.6171750000794,
      "v": 26
    },
    {
      "midi": 57,
      "hit": false,
      "t": 283308.5672999966,
      "d": 805.8512250001077,
      "v": 35
    },
    {
      "midi": 79,
      "hit": false,
      "t": 283859.09932499664,
      "d": 295.2128250001115,
      "v": 54
    },
    {
      "midi": 77,
      "hit": false,
      "t": 284518.67392499675,
      "d": 776.5958999999566,
      "v": 49
    },
    {
      "midi": 70,
      "hit": false,
      "t": 284537.29094999674,
      "d": 827.1278249999741,
      "v": 31
    },
    {
      "midi": 67,
      "hit": false,
      "t": 284547.9292499967,
      "d": 829.787399999972,
      "v": 32
    },
    {
      "midi": 51,
      "hit": false,
      "t": 284561.2271249967,
      "d": 1321.808774999925,
      "v": 29
    },
    {
      "midi": 58,
      "hit": false,
      "t": 284587.8228749967,
      "d": 1345.7449499999639,
      "v": 23
    },
    {
      "midi": 62,
      "hit": false,
      "t": 284606.4398999967,
      "d": 1231.3832249999978,
      "v": 32
    },
    {
      "midi": 75,
      "hit": false,
      "t": 285396.3336749967,
      "d": 468.08519999997225,
      "v": 73
    },
    {
      "midi": 74,
      "hit": false,
      "t": 285920.26994999667,
      "d": 513.297974999994,
      "v": 68
    },
    {
      "midi": 72,
      "hit": false,
      "t": 286989.4190999967,
      "d": 2085.1067999999505,
      "v": 40
    },
    {
      "midi": 69,
      "hit": false,
      "t": 287002.71697499667,
      "d": 1226.064075000002,
      "v": 42
    },
    {
      "midi": 53,
      "hit": false,
      "t": 287005.37654999667,
      "d": 2436.1706999999587,
      "v": 24
    },
    {
      "midi": 65,
      "hit": false,
      "t": 287008.03612499667,
      "d": 1146.276825000008,
      "v": 27
    },
    {
      "midi": 63,
      "hit": false,
      "t": 287008.03612499667,
      "d": 1295.2130250000046,
      "v": 18
    },
    {
      "midi": 58,
      "hit": false,
      "t": 287013.35527499666,
      "d": 2571.8090249999077,
      "v": 25
    },
    {
      "midi": 60,
      "hit": false,
      "t": 287763.3554249967,
      "d": 1718.0854499998968,
      "v": 24
    },
    {
      "midi": 70,
      "hit": false,
      "t": 288986.75992499664,
      "d": 765.957599999907,
      "v": 39
    },
    {
      "midi": 63,
      "hit": false,
      "t": 289018.6748249966,
      "d": 436.17029999999795,
      "v": 11
    },
    {
      "midi": 77,
      "hit": false,
      "t": 290542.61129999656,
      "d": 898.9363499999745,
      "v": 54
    },
    {
      "midi": 58,
      "hit": false,
      "t": 290590.4836499966,
      "d": 4047.8731499999412,
      "v": 31
    },
    {
      "midi": 65,
      "hit": false,
      "t": 291077.18587499653,
      "d": 574.468200000003,
      "v": 33
    },
    {
      "midi": 69,
      "hit": false,
      "t": 291531.9731999965,
      "d": 348.40432500001043,
      "v": 22
    },
    {
      "midi": 72,
      "hit": false,
      "t": 291582.50512499653,
      "d": 268.6170750000165,
      "v": 14
    },
    {
      "midi": 65,
      "hit": false,
      "t": 291949.5264749965,
      "d": 273.9362250000122,
      "v": 19
    },
    {
      "midi": 77,
      "hit": false,
      "t": 292361.76059999655,
      "d": 1398.9364499999792,
      "v": 33
    },
    {
      "midi": 74,
      "hit": false,
      "t": 292380.37762499653,
      "d": 2095.7451,
      "v": 37
    },
    {
      "midi": 69,
      "hit": false,
      "t": 292393.6754999965,
      "d": 2050.5323250000365,
      "v": 31
    },
    {
      "midi": 70,
      "hit": false,
      "t": 292396.3350749965,
      "d": 2119.681274999981,
      "v": 25
    },
    {
      "midi": 65,
      "hit": false,
      "t": 292444.20742499654,
      "d": 295.21282499999506,
      "v": 15
    },
    {
      "midi": 65,
      "hit": false,
      "t": 293045.2713749965,
      "d": 1547.8726499999757,
      "v": 20
    },
    {
      "midi": 77,
      "hit": false,
      "t": 293893.67579999653,
      "d": 404.25540000002366,
      "v": 43
    },
    {
      "midi": 77,
      "hit": false,
      "t": 294481.4418749965,
      "d": 558.5107500000158,
      "v": 43
    },
    {
      "midi": 67,
      "hit": false,
      "t": 295609.10167499655,
      "d": 369.6809250000515,
      "v": 47
    },
    {
      "midi": 77,
      "hit": false,
      "t": 295622.39954999654,
      "d": 319.149000000034,
      "v": 48
    },
    {
      "midi": 81,
      "hit": false,
      "t": 295625.05912499654,
      "d": 218.08515000005718,
      "v": 58
    },
    {
      "midi": 72,
      "hit": false,
      "t": 295635.6974249965,
      "d": 170.21280000003753,
      "v": 36
    },
    {
      "midi": 79,
      "hit": false,
      "t": 296005.3783499966,
      "d": 273.936224999954,
      "v": 44
    },
    {
      "midi": 75,
      "hit": false,
      "t": 296008.0379249966,
      "d": 255.319199999969,
      "v": 47
    },
    {
      "midi": 65,
      "hit": false,
      "t": 296021.33579999657,
      "d": 231.38302499998827,
      "v": 31
    },
    {
      "midi": 70,
      "hit": false,
      "t": 296029.31452499656,
      "d": 218.08514999999898,
      "v": 25
    },
    {
      "midi": 79,
      "hit": false,
      "t": 296476.12312499655,
      "d": 109.04257499997038,
      "v": 46
    },
    {
      "midi": 65,
      "hit": false,
      "t": 296476.12312499655,
      "d": 340.42559999995865,
      "v": 33
    },
    {
      "midi": 75,
      "hit": false,
      "t": 296492.08057499654,
      "d": 156.91492499999003,
      "v": 32
    },
    {
      "midi": 70,
      "hit": false,
      "t": 296492.08057499654,
      "d": 191.4893999999622,
      "v": 27
    },
    {
      "midi": 77,
      "hit": false,
      "t": 296869.7402249965,
      "d": 271.27665000001434,
      "v": 53
    },
    {
      "midi": 73,
      "hit": false,
      "t": 296896.3359749965,
      "d": 188.82982500002254,
      "v": 26
    },
    {
      "midi": 77,
      "hit": false,
      "t": 297300.5913749965,
      "d": 393.617099999974,
      "v": 35
    },
    {
      "midi": 73,
      "hit": false,
      "t": 297319.2083999965,
      "d": 414.8936999999569,
      "v": 31
    },
    {
      "midi": 63,
      "hit": false,
      "t": 297321.8679749965,
      "d": 563.8298999999533,
      "v": 23
    },
    {
      "midi": 68,
      "hit": false,
      "t": 297327.1871249965,
      "d": 396.2766749999719,
      "v": 25
    },
    {
      "midi": 75,
      "hit": false,
      "t": 297875.05957499647,
      "d": 640.9575749999494,
      "v": 42
    },
    {
      "midi": 66,
      "hit": false,
      "t": 297904.31489999645,
      "d": 547.8724499999662,
      "v": 25
    },
    {
      "midi": 61,
      "hit": false,
      "t": 297904.31489999645,
      "d": 563.8298999999533,
      "v": 33
    },
    {
      "midi": 71,
      "hit": false,
      "t": 297917.61277499644,
      "d": 531.914999999979,
      "v": 46
    },
    {
      "midi": 74,
      "hit": false,
      "t": 298625.05972499645,
      "d": 140.95747499994468,
      "v": 66
    },
    {
      "midi": 60,
      "hit": false,
      "t": 298630.37887499644,
      "d": 369.6809249999351,
      "v": 48
    },
    {
      "midi": 70,
      "hit": false,
      "t": 298633.03844999644,
      "d": 212.76599999994505,
      "v": 57
    },
    {
      "midi": 65,
      "hit": false,
      "t": 298638.35759999644,
      "d": 172.87237499997718,
      "v": 54
    },
    {
      "midi": 72,
      "hit": false,
      "t": 299000.0597999964,
      "d": 284.57452500006184,
      "v": 47
    },
    {
      "midi": 68,
      "hit": false,
      "t": 299005.3789499964,
      "d": 292.5532500000554,
      "v": 56
    },
    {
      "midi": 63,
      "hit": false,
      "t": 299013.35767499637,
      "d": 234.04260000004433,
      "v": 42
    },
    {
      "midi": 58,
      "hit": false,
      "t": 299016.01724999637,
      "d": 380.31922500004293,
      "v": 43
    },
    {
      "midi": 70,
      "hit": false,
      "t": 299904.3152999964,
      "d": 500.00010000000475,
      "v": 50
    },
    {
      "midi": 61,
      "hit": false,
      "t": 299917.6131749964,
      "d": 417.55327500001295,
      "v": 34
    },
    {
      "midi": 66,
      "hit": false,
      "t": 299920.2727499964,
      "d": 465.4256250000326,
      "v": 43
    },
    {
      "midi": 56,
      "hit": false,
      "t": 299925.5918999964,
      "d": 542.5533000000287,
      "v": 33
    },
    {
      "midi": 69,
      "hit": false,
      "t": 300523.99627499643,
      "d": 239.36174999998184,
      "v": 52
    },
    {
      "midi": 65,
      "hit": false,
      "t": 300526.65584999643,
      "d": 313.82984999998007,
      "v": 49
    },
    {
      "midi": 55,
      "hit": false,
      "t": 300542.6132999964,
      "d": 518.6171249999898,
      "v": 27
    },
    {
      "midi": 60,
      "hit": false,
      "t": 300545.2728749964,
      "d": 343.0851750000147,
      "v": 37
    },
    {
      "midi": 53,
      "hit": false,
      "t": 301095.8048999964,
      "d": 513.2979749999358,
      "v": 32
    },
    {
      "midi": 63,
      "hit": false,
      "t": 301098.4644749964,
      "d": 252.65962499997113,
      "v": 36
    },
    {
      "midi": 67,
      "hit": false,
      "t": 301103.7836249964,
      "d": 143.61705000000075,
      "v": 37
    },
    {
      "midi": 58,
      "hit": false,
      "t": 301122.40064999636,
      "d": 263.29792499996256,
      "v": 17
    },
    {
      "midi": 56,
      "hit": false,
      "t": 301617.0815999963,
      "d": 380.3192249999847,
      "v": 31
    },
    {
      "midi": 61,
      "hit": false,
      "t": 301622.4007499963,
      "d": 359.04262500000186,
      "v": 43
    },
    {
      "midi": 65,
      "hit": false,
      "t": 301627.7198999963,
      "d": 265.9575000000186,
      "v": 52
    },
    {
      "midi": 51,
      "hit": false,
      "t": 301638.3581999963,
      "d": 505.31925000000047,
      "v": 25
    },
    {
      "midi": 54,
      "hit": false,
      "t": 302877.72014999634,
      "d": 481.38307499996154,
      "v": 25
    },
    {
      "midi": 63,
      "hit": false,
      "t": 302880.37972499634,
      "d": 502.6596749999444,
      "v": 34
    },
    {
      "midi": 59,
      "hit": false,
      "t": 302893.6775999963,
      "d": 321.80857499997364,
      "v": 37
    },
    {
      "midi": 49,
      "hit": false,
      "t": 302906.9754749963,
      "d": 609.0426749999751,
      "v": 28
    },
    {
      "midi": 61,
      "hit": false,
      "t": 303968.1458999963,
      "d": 1002.6597750000074,
      "v": 26
    },
    {
      "midi": 57,
      "hit": false,
      "t": 303989.42249999626,
      "d": 720.7448250000016,
      "v": 36
    },
    {
      "midi": 47,
      "hit": false,
      "t": 303992.08207499626,
      "d": 622.3405500000226,
      "v": 26
    },
    {
      "midi": 52,
      "hit": false,
      "t": 304000.06079999625,
      "d": 614.3618250000291,
      "v": 22
    },
    {
      "midi": 64,
      "hit": false,
      "t": 306853.7847749963,
      "d": 390.95752499997616,
      "v": 34
    },
    {
      "midi": 58,
      "hit": false,
      "t": 306864.4230749963,
      "d": 308.51069999998435,
      "v": 29
    },
    {
      "midi": 57,
      "hit": false,
      "t": 306872.40179999627,
      "d": 252.65962499997113,
      "v": 22
    },
    {
      "midi": 34,
      "hit": false,
      "t": 306877.72094999626,
      "d": 398.93624999996973,
      "v": 25
    },
    {
      "midi": 62,
      "hit": false,
      "t": 306885.69967499626,
      "d": 316.4894249999779,
      "v": 35
    },
    {
      "midi": 69,
      "hit": false,
      "t": 307619.74237499625,
      "d": 707.4469500000123,
      "v": 24
    },
    {
      "midi": 76,
      "hit": false,
      "t": 308792.61494999623,
      "d": 335.10645000002114,
      "v": 51
    },
    {
      "midi": 75,
      "hit": false,
      "t": 309127.72139999626,
      "d": 172.87237499997718,
      "v": 50
    },
    {
      "midi": 74,
      "hit": false,
      "t": 309351.12569999625,
      "d": 140.9574750000029,
      "v": 38
    },
    {
      "midi": 86,
      "hit": false,
      "t": 309574.52999999624,
      "d": 247.34047500003362,
      "v": 70
    },
    {
      "midi": 46,
      "hit": false,
      "t": 309635.70022499625,
      "d": 55.851075000013225,
      "v": 21
    },
    {
      "midi": 81,
      "hit": false,
      "t": 309835.16834999627,
      "d": 159.5744999999879,
      "v": 34
    },
    {
      "midi": 86,
      "hit": false,
      "t": 310061.23222499626,
      "d": 167.55322500003967,
      "v": 50
    },
    {
      "midi": 65,
      "hit": false,
      "t": 310103.7854249963,
      "d": 545.2128750000265,
      "v": 27
    },
    {
      "midi": 62,
      "hit": false,
      "t": 310109.1045749963,
      "d": 619.6809750000248,
      "v": 26
    },
    {
      "midi": 60,
      "hit": false,
      "t": 310146.3386249963,
      "d": 593.085224999988,
      "v": 29
    },
    {
      "midi": 93,
      "hit": false,
      "t": 310359.1046249963,
      "d": 247.3404749999754,
      "v": 64
    },
    {
      "midi": 89,
      "hit": false,
      "t": 310611.7642499963,
      "d": 242.0213250000379,
      "v": 35
    },
    {
      "midi": 91,
      "hit": false,
      "t": 310848.4664249963,
      "d": 199.46812500001397,
      "v": 40
    },
    {
      "midi": 93,
      "hit": false,
      "t": 311055.91327499633,
      "d": 66.48937500000466,
      "v": 51
    },
    {
      "midi": 98,
      "hit": false,
      "t": 311271.33884999633,
      "d": 109.04257500002859,
      "v": 53
    },
    {
      "midi": 108,
      "hit": false,
      "t": 311537.29634999635,
      "d": 250.00004999997327,
      "v": 57
    },
    {
      "midi": 105,
      "hit": false,
      "t": 311859.1049249963,
      "d": 183.51067500002682,
      "v": 35
    },
    {
      "midi": 105,
      "hit": false,
      "t": 312196.87094999634,
      "d": 909.5746500000241,
      "v": 24
    },
    {
      "midi": 46,
      "hit": false,
      "t": 312218.1475499963,
      "d": 154.25534999999218,
      "v": 21
    },
    {
      "midi": 98,
      "hit": false,
      "t": 312228.7858499963,
      "d": 917.5533750000177,
      "v": 24
    },
    {
      "midi": 108,
      "hit": false,
      "t": 312643.67954999633,
      "d": 255.3192000000272,
      "v": 45
    },
    {
      "midi": 108,
      "hit": false,
      "t": 313138.36049999634,
      "d": 175.53194999997504,
      "v": 40
    },
    {
      "midi": 22,
      "hit": false,
      "t": 313164.9562499963,
      "d": 327.12772499996936,
      "v": 31
    }
  ]
}