{
  "jsonPath": "Classical/Late Romantic Era/Edward MacDowell/to-a-wild-rose.json",
  "path": "Classical\\Late Romantic Era\\Edward MacDowell\\To a Wild Rose.mid",
  "name": "To a Wild Rose",
  "difficulty": "Advanced",
  "bpm": 100,
  "notes": [
    {
      "midi": 69,
      "hit": false,
      "t": 0,
      "d": 300,
      "v": 74
    },
    {
      "midi": 73,
      "hit": false,
      "t": 0,
      "d": 300,
      "v": 74
    },
    {
      "midi": 57,
      "hit": false,
      "t": 0,
      "d": 1200,
      "v": 67
    },
    {
      "midi": 64,
      "hit": false,
      "t": 0,
      "d": 1200,
      "v": 67
    },
    {
      "midi": 76,
      "hit": false,
      "t": 300,
      "d": 300,
      "v": 85
    },
    {
      "midi": 76,
      "hit": false,
      "t": 600,
      "d": 600,
      "v": 77
    },
    {
      "midi": 68,
      "hit": false,
      "t": 1200,
      "d": 300,
      "v": 62
    },
    {
      "midi": 71,
      "hit": false,
      "t": 1200,
      "d": 300,
      "v": 62
    },
    {
      "midi": 57,
      "hit": false,
      "t": 1200,
      "d": 1200,
      "v": 75
    },
    {
      "midi": 62,
      "hit": false,
      "t": 1200,
      "d": 1200,
      "v": 75
    },
    {
      "midi": 64,
      "hit": false,
      "t": 1200,
      "d": 1200,
      "v": 75
    },
    {
      "midi": 76,
      "hit": false,
      "t": 1500,
      "d": 300,
      "v": 83
    },
    {
      "midi": 76,
      "hit": false,
      "t": 1800,
      "d": 600,
      "v": 75
    },
    {
      "midi": 69,
      "hit": false,
      "t": 2400,
      "d": 300,
      "v": 68
    },
    {
      "midi": 73,
      "hit": false,
      "t": 2400,
      "d": 300,
      "v": 68
    },
    {
      "midi": 54,
      "hit": false,
      "t": 2400,
      "d": 1200,
      "v": 66
    },
    {
      "midi": 61,
      "hit": false,
      "t": 2400,
      "d": 1200,
      "v": 66
    },
    {
      "midi": 76,
      "hit": false,
      "t": 2700,
      "d": 300,
      "v": 81
    },
    {
      "midi": 78,
      "hit": false,
      "t": 3000,
      "d": 300,
      "v": 80
    },
    {
      "midi": 81,
      "hit": false,
      "t": 3300,
      "d": 300,
      "v": 83
    },
    {
      "midi": 69,
      "hit": false,
      "t": 3600,
      "d": 600,
      "v": 75
    },
    {
      "midi": 78,
      "hit": false,
      "t": 3600,
      "d": 600,
      "v": 75
    },
    {
      "midi": 54,
      "hit": false,
      "t": 3600,
      "d": 1200,
      "v": 76
    },
    {
      "midi": 59,
      "hit": false,
      "t": 3600,
      "d": 1200,
      "v": 76
    },
    {
      "midi": 63,
      "hit": false,
      "t": 3600,
      "d": 1200,
      "v": 76
    },
    {
      "midi": 73,
      "hit": false,
      "t": 4200,
      "d": 600,
      "v": 66
    },
    {
      "midi": 62,
      "hit": false,
      "t": 4800,
      "d": 300,
      "v": 68
    },
    {
      "midi": 66,
      "hit": false,
      "t": 4800,
      "d": 300,
      "v": 68
    },
    {
      "midi": 52,
      "hit": false,
      "t": 4800,
      "d": 1200,
      "v": 66
    },
    {
      "midi": 56,
      "hit": false,
      "t": 4800,
      "d": 1200,
      "v": 66
    },
    {
      "midi": 71,
      "hit": false,
      "t": 5100,
      "d": 300,
      "v": 84
    },
    {
      "midi": 71,
      "hit": false,
      "t": 5400,
      "d": 600,
      "v": 80
    },
    {
      "midi": 64,
      "hit": false,
      "t": 6000,
      "d": 600,
      "v": 79
    },
    {
      "midi": 73,
      "hit": false,
      "t": 6000,
      "d": 600,
      "v": 79
    },
    {
      "midi": 49,
      "hit": false,
      "t": 6000,
      "d": 1200,
      "v": 77
    },
    {
      "midi": 56,
      "hit": false,
      "t": 6000,
      "d": 1200,
      "v": 77
    },
    {
      "midi": 68,
      "hit": false,
      "t": 6600,
      "d": 600,
      "v": 72
    },
    {
      "midi": 62,
      "hit": false,
      "t": 7200,
      "d": 300,
      "v": 68
    },
    {
      "midi": 66,
      "hit": false,
      "t": 7200,
      "d": 300,
      "v": 68
    },
    {
      "midi": 52,
      "hit": false,
      "t": 7200,
      "d": 1200,
      "v": 76
    },
    {
      "midi": 56,
      "hit": false,
      "t": 7200,
      "d": 1200,
      "v": 76
    },
    {
      "midi": 71,
      "hit": false,
      "t": 7500,
      "d": 300,
      "v": 80
    },
    {
      "midi": 71,
      "hit": false,
      "t": 7800,
      "d": 600,
      "v": 76
    },
    {
      "midi": 61,
      "hit": false,
      "t": 8400,
      "d": 1200,
      "v": 70
    },
    {
      "midi": 69,
      "hit": false,
      "t": 8400,
      "d": 1200,
      "v": 70
    },
    {
      "midi": 45,
      "hit": false,
      "t": 8400,
      "d": 1200,
      "v": 70
    },
    {
      "midi": 52,
      "hit": false,
      "t": 8400,
      "d": 1200,
      "v": 70
    },
    {
      "midi": 69,
      "hit": false,
      "t": 9600,
      "d": 300,
      "v": 85
    },
    {
      "midi": 73,
      "hit": false,
      "t": 9600,
      "d": 300,
      "v": 85
    },
    {
      "midi": 57,
      "hit": false,
      "t": 9600,
      "d": 1200,
      "v": 97
    },
    {
      "midi": 64,
      "hit": false,
      "t": 9600,
      "d": 1200,
      "v": 97
    },
    {
      "midi": 76,
      "hit": false,
      "t": 9900,
      "d": 300,
      "v": 82
    },
    {
      "midi": 76,
      "hit": false,
      "t": 10200,
      "d": 600,
      "v": 76
    },
    {
      "midi": 68,
      "hit": false,
      "t": 10800,
      "d": 300,
      "v": 69
    },
    {
      "midi": 71,
      "hit": false,
      "t": 10800,
      "d": 300,
      "v": 69
    },
    {
      "midi": 57,
      "hit": false,
      "t": 10800,
      "d": 1200,
      "v": 84
    },
    {
      "midi": 62,
      "hit": false,
      "t": 10800,
      "d": 1200,
      "v": 84
    },
    {
      "midi": 64,
      "hit": false,
      "t": 10800,
      "d": 1200,
      "v": 84
    },
    {
      "midi": 76,
      "hit": false,
      "t": 11100,
      "d": 300,
      "v": 87
    },
    {
      "midi": 76,
      "hit": false,
      "t": 11400,
      "d": 600,
      "v": 79
    },
    {
      "midi": 69,
      "hit": false,
      "t": 12000,
      "d": 300,
      "v": 71
    },
    {
      "midi": 73,
      "hit": false,
      "t": 12000,
      "d": 300,
      "v": 69
    },
    {
      "midi": 54,
      "hit": false,
      "t": 12000,
      "d": 1200,
      "v": 72
    },
    {
      "midi": 61,
      "hit": false,
      "t": 12000,
      "d": 1200,
      "v": 72
    },
    {
      "midi": 76,
      "hit": false,
      "t": 12300,
      "d": 300,
      "v": 83
    },
    {
      "midi": 78,
      "hit": false,
      "t": 12600,
      "d": 300,
      "v": 84
    },
    {
      "midi": 81,
      "hit": false,
      "t": 12900,
      "d": 300,
      "v": 85
    },
    {
      "midi": 69,
      "hit": false,
      "t": 13200,
      "d": 600,
      "v": 77
    },
    {
      "midi": 80,
      "hit": false,
      "t": 13200,
      "d": 600,
      "v": 75
    },
    {
      "midi": 54,
      "hit": false,
      "t": 13200,
      "d": 1200,
      "v": 80
    },
    {
      "midi": 59,
      "hit": false,
      "t": 13200,
      "d": 1200,
      "v": 80
    },
    {
      "midi": 63,
      "hit": false,
      "t": 13200,
      "d": 1200,
      "v": 80
    },
    {
      "midi": 78,
      "hit": false,
      "t": 13800,
      "d": 600,
      "v": 71
    },
    {
      "midi": 69,
      "hit": false,
      "t": 14400,
      "d": 600,
      "v": 78
    },
    {
      "midi": 81,
      "hit": false,
      "t": 14400,
      "d": 600,
      "v": 77
    },
    {
      "midi": 52,
      "hit": false,
      "t": 14400,
      "d": 1200,
      "v": 72
    },
    {
      "midi": 61,
      "hit": false,
      "t": 14400,
      "d": 1200,
      "v": 72
    },
    {
      "midi": 78,
      "hit": false,
      "t": 15000,
      "d": 600,
      "v": 66
    },
    {
      "midi": 64,
      "hit": false,
      "t": 15600,
      "d": 600,
      "v": 67
    },
    {
      "midi": 76,
      "hit": false,
      "t": 15600,
      "d": 600,
      "v": 70
    },
    {
      "midi": 49,
      "hit": false,
      "t": 15600,
      "d": 300,
      "v": 69
    },
    {
      "midi": 56,
      "hit": false,
      "t": 15600,
      "d": 300,
      "v": 69
    },
    {
      "midi": 61,
      "hit": false,
      "t": 15900,
      "d": 300,
      "v": 87
    },
    {
      "midi": 73,
      "hit": false,
      "t": 16200,
      "d": 600,
      "v": 68
    },
    {
      "midi": 61,
      "hit": false,
      "t": 16200,
      "d": 600,
      "v": 77
    },
    {
      "midi": 62,
      "hit": false,
      "t": 16800,
      "d": 300,
      "v": 69
    },
    {
      "midi": 66,
      "hit": false,
      "t": 16800,
      "d": 300,
      "v": 60
    },
    {
      "midi": 52,
      "hit": false,
      "t": 16800,
      "d": 1200,
      "v": 70
    },
    {
      "midi": 56,
      "hit": false,
      "t": 16800,
      "d": 1200,
      "v": 70
    },
    {
      "midi": 71,
      "hit": false,
      "t": 17100,
      "d": 300,
      "v": 85
    },
    {
      "midi": 71,
      "hit": false,
      "t": 17400,
      "d": 600,
      "v": 78
    },
    {
      "midi": 61,
      "hit": false,
      "t": 18000,
      "d": 1200,
      "v": 74
    },
    {
      "midi": 69,
      "hit": false,
      "t": 18000,
      "d": 1200,
      "v": 74
    },
    {
      "midi": 45,
      "hit": false,
      "t": 18000,
      "d": 1200,
      "v": 67
    },
    {
      "midi": 52,
      "hit": false,
      "t": 18000,
      "d": 1200,
      "v": 67
    },
    {
      "midi": 68,
      "hit": false,
      "t": 19200,
      "d": 900,
      "v": 83
    },
    {
      "midi": 76,
      "hit": false,
      "t": 19200,
      "d": 900,
      "v": 85
    },
    {
      "midi": 59,
      "hit": false,
      "t": 19200,
      "d": 1200,
      "v": 89
    },
    {
      "midi": 62,
      "hit": false,
      "t": 19200,
      "d": 1200,
      "v": 89
    },
    {
      "midi": 71,
      "hit": false,
      "t": 20100,
      "d": 300,
      "v": 65
    },
    {
      "midi": 62,
      "hit": false,
      "t": 20400,
      "d": 300,
      "v": 63
    },
    {
      "midi": 74,
      "hit": false,
      "t": 20400,
      "d": 300,
      "v": 83
    },
    {
      "midi": 54,
      "hit": false,
      "t": 20400,
      "d": 1200,
      "v": 74
    },
    {
      "midi": 57,
      "hit": false,
      "t": 20400,
      "d": 1200,
      "v": 74
    },
    {
      "midi": 69,
      "hit": false,
      "t": 20700,
      "d": 300,
      "v": 72
    },
    {
      "midi": 69,
      "hit": false,
      "t": 21000,
      "d": 600,
      "v": 74
    },
    {
      "midi": 62,
      "hit": false,
      "t": 21600,
      "d": 300,
      "v": 75
    },
    {
      "midi": 73,
      "hit": false,
      "t": 21600,
      "d": 300,
      "v": 91
    },
    {
      "midi": 53,
      "hit": false,
      "t": 21600,
      "d": 1200,
      "v": 74
    },
    {
      "midi": 56,
      "hit": false,
      "t": 21600,
      "d": 1200,
      "v": 74
    },
    {
      "midi": 71,
      "hit": false,
      "t": 21900,
      "d": 300,
      "v": 73
    },
    {
      "midi": 69,
      "hit": false,
      "t": 22200,
      "d": 300,
      "v": 69
    },
    {
      "midi": 71,
      "hit": false,
      "t": 22500,
      "d": 300,
      "v": 78
    },
    {
      "midi": 64,
      "hit": false,
      "t": 22800,
      "d": 600,
      "v": 78
    },
    {
      "midi": 73,
      "hit": false,
      "t": 22800,
      "d": 600,
      "v": 83
    },
    {
      "midi": 52,
      "hit": false,
      "t": 22800,
      "d": 1200,
      "v": 87
    },
    {
      "midi": 57,
      "hit": false,
      "t": 22800,
      "d": 1200,
      "v": 87
    },
    {
      "midi": 61,
      "hit": false,
      "t": 22800,
      "d": 1200,
      "v": 87
    },
    {
      "midi": 76,
      "hit": false,
      "t": 23400,
      "d": 600,
      "v": 84
    },
    {
      "midi": 69,
      "hit": false,
      "t": 24000,
      "d": 1200,
      "v": 85
    },
    {
      "midi": 73,
      "hit": false,
      "t": 24000,
      "d": 1200,
      "v": 85
    },
    {
      "midi": 80,
      "hit": false,
      "t": 24000,
      "d": 1200,
      "v": 85
    },
    {
      "midi": 64,
      "hit": false,
      "t": 24000,
      "d": 300,
      "v": 83
    },
    {
      "midi": 61,
      "hit": false,
      "t": 24300,
      "d": 300,
      "v": 71
    },
    {
      "midi": 61,
      "hit": false,
      "t": 24600,
      "d": 600,
      "v": 79
    },
    {
      "midi": 69,
      "hit": false,
      "t": 25200,
      "d": 300,
      "v": 92
    },
    {
      "midi": 72,
      "hit": false,
      "t": 25200,
      "d": 300,
      "v": 92
    },
    {
      "midi": 80,
      "hit": false,
      "t": 25200,
      "d": 300,
      "v": 77
    },
    {
      "midi": 63,
      "hit": false,
      "t": 25200,
      "d": 1200,
      "v": 83
    },
    {
      "midi": 78,
      "hit": false,
      "t": 25500,
      "d": 300,
      "v": 70
    },
    {
      "midi": 76,
      "hit": false,
      "t": 25800,
      "d": 300,
      "v": 70
    },
    {
      "midi": 78,
      "hit": false,
      "t": 26100,
      "d": 300,
      "v": 80
    },
    {
      "midi": 69,
      "hit": false,
      "t": 26400,
      "d": 1200,
      "v": 80
    },
    {
      "midi": 73,
      "hit": false,
      "t": 26400,
      "d": 1200,
      "v": 80
    },
    {
      "midi": 80,
      "hit": false,
      "t": 26400,
      "d": 1200,
      "v": 80
    },
    {
      "midi": 64,
      "hit": false,
      "t": 26400,
      "d": 300,
      "v": 80
    },
    {
      "midi": 61,
      "hit": false,
      "t": 26700,
      "d": 300,
      "v": 70
    },
    {
      "midi": 61,
      "hit": false,
      "t": 27000,
      "d": 600,
      "v": 74
    },
    {
      "midi": 69,
      "hit": false,
      "t": 27600,
      "d": 300,
      "v": 84
    },
    {
      "midi": 72,
      "hit": false,
      "t": 27600,
      "d": 300,
      "v": 84
    },
    {
      "midi": 80,
      "hit": false,
      "t": 27600,
      "d": 300,
      "v": 78
    },
    {
      "midi": 63,
      "hit": false,
      "t": 27600,
      "d": 1200,
      "v": 78
    },
    {
      "midi": 78,
      "hit": false,
      "t": 27900,
      "d": 300,
      "v": 71
    },
    {
      "midi": 76,
      "hit": false,
      "t": 28200,
      "d": 300,
      "v": 68
    },
    {
      "midi": 78,
      "hit": false,
      "t": 28500,
      "d": 300,
      "v": 80
    },
    {
      "midi": 71,
      "hit": false,
      "t": 28800,
      "d": 300,
      "v": 80
    },
    {
      "midi": 74,
      "hit": false,
      "t": 28800,
      "d": 300,
      "v": 80
    },
    {
      "midi": 80,
      "hit": false,
      "t": 28800,
      "d": 300,
      "v": 80
    },
    {
      "midi": 64,
      "hit": false,
      "t": 28800,
      "d": 300,
      "v": 80
    },
    {
      "midi": 74,
      "hit": false,
      "t": 29100,
      "d": 300,
      "v": 85
    },
    {
      "midi": 78,
      "hit": false,
      "t": 29100,
      "d": 300,
      "v": 85
    },
    {
      "midi": 83,
      "hit": false,
      "t": 29100,
      "d": 300,
      "v": 85
    },
    {
      "midi": 68,
      "hit": false,
      "t": 29100,
      "d": 300,
      "v": 82
    },
    {
      "midi": 74,
      "hit": false,
      "t": 29400,
      "d": 600,
      "v": 75
    },
    {
      "midi": 78,
      "hit": false,
      "t": 29400,
      "d": 600,
      "v": 75
    },
    {
      "midi": 83,
      "hit": false,
      "t": 29400,
      "d": 600,
      "v": 75
    },
    {
      "midi": 68,
      "hit": false,
      "t": 29400,
      "d": 600,
      "v": 77
    },
    {
      "midi": 74,
      "hit": false,
      "t": 30000,
      "d": 300,
      "v": 77
    },
    {
      "midi": 78,
      "hit": false,
      "t": 30000,
      "d": 300,
      "v": 77
    },
    {
      "midi": 83,
      "hit": false,
      "t": 30000,
      "d": 300,
      "v": 77
    },
    {
      "midi": 68,
      "hit": false,
      "t": 30000,
      "d": 300,
      "v": 78
    },
    {
      "midi": 78,
      "hit": false,
      "t": 30300,
      "d": 300,
      "v": 83
    },
    {
      "midi": 80,
      "hit": false,
      "t": 30300,
      "d": 300,
      "v": 83
    },
    {
      "midi": 86,
      "hit": false,
      "t": 30300,
      "d": 300,
      "v": 83
    },
    {
      "midi": 71,
      "hit": false,
      "t": 30300,
      "d": 300,
      "v": 88
    },
    {
      "midi": 78,
      "hit": false,
      "t": 30600,
      "d": 600,
      "v": 80
    },
    {
      "midi": 80,
      "hit": false,
      "t": 30600,
      "d": 600,
      "v": 80
    },
    {
      "midi": 86,
      "hit": false,
      "t": 30600,
      "d": 600,
      "v": 80
    },
    {
      "midi": 71,
      "hit": false,
      "t": 30600,
      "d": 600,
      "v": 74
    },
    {
      "midi": 80,
      "hit": false,
      "t": 31200,
      "d": 300,
      "v": 84
    },
    {
      "midi": 83,
      "hit": false,
      "t": 31200,
      "d": 300,
      "v": 84
    },
    {
      "midi": 90,
      "hit": false,
      "t": 31200,
      "d": 300,
      "v": 84
    },
    {
      "midi": 74,
      "hit": false,
      "t": 31200,
      "d": 300,
      "v": 85
    },
    {
      "midi": 78,
      "hit": false,
      "t": 31500,
      "d": 300,
      "v": 67
    },
    {
      "midi": 83,
      "hit": false,
      "t": 31500,
      "d": 300,
      "v": 67
    },
    {
      "midi": 86,
      "hit": false,
      "t": 31500,
      "d": 300,
      "v": 67
    },
    {
      "midi": 71,
      "hit": false,
      "t": 31500,
      "d": 300,
      "v": 70
    },
    {
      "midi": 80,
      "hit": false,
      "t": 31800,
      "d": 300,
      "v": 84
    },
    {
      "midi": 83,
      "hit": false,
      "t": 31800,
      "d": 300,
      "v": 84
    },
    {
      "midi": 90,
      "hit": false,
      "t": 31800,
      "d": 300,
      "v": 84
    },
    {
      "midi": 74,
      "hit": false,
      "t": 31800,
      "d": 300,
      "v": 84
    },
    {
      "midi": 78,
      "hit": false,
      "t": 32100,
      "d": 300,
      "v": 73
    },
    {
      "midi": 83,
      "hit": false,
      "t": 32100,
      "d": 300,
      "v": 73
    },
    {
      "midi": 86,
      "hit": false,
      "t": 32100,
      "d": 300,
      "v": 73
    },
    {
      "midi": 71,
      "hit": false,
      "t": 32100,
      "d": 300,
      "v": 73
    },
    {
      "midi": 80,
      "hit": false,
      "t": 32400,
      "d": 1200,
      "v": 87
    },
    {
      "midi": 83,
      "hit": false,
      "t": 32400,
      "d": 1200,
      "v": 87
    },
    {
      "midi": 90,
      "hit": false,
      "t": 32400,
      "d": 1200,
      "v": 87
    },
    {
      "midi": 74,
      "hit": false,
      "t": 32400,
      "d": 1200,
      "v": 82
    },
    {
      "midi": 69,
      "hit": false,
      "t": 33600,
      "d": 300,
      "v": 57
    },
    {
      "midi": 73,
      "hit": false,
      "t": 33600,
      "d": 300,
      "v": 57
    },
    {
      "midi": 57,
      "hit": false,
      "t": 33600,
      "d": 1200,
      "v": 60
    },
    {
      "midi": 64,
      "hit": false,
      "t": 33600,
      "d": 1200,
      "v": 60
    },
    {
      "midi": 76,
      "hit": false,
      "t": 33900,
      "d": 300,
      "v": 82
    },
    {
      "midi": 76,
      "hit": false,
      "t": 34200,
      "d": 600,
      "v": 76
    },
    {
      "midi": 68,
      "hit": false,
      "t": 34800,
      "d": 300,
      "v": 67
    },
    {
      "midi": 71,
      "hit": false,
      "t": 34800,
      "d": 300,
      "v": 67
    },
    {
      "midi": 57,
      "hit": false,
      "t": 34800,
      "d": 1200,
      "v": 72
    },
    {
      "midi": 62,
      "hit": false,
      "t": 34800,
      "d": 1200,
      "v": 72
    },
    {
      "midi": 64,
      "hit": false,
      "t": 34800,
      "d": 1200,
      "v": 72
    },
    {
      "midi": 76,
      "hit": false,
      "t": 35100,
      "d": 300,
      "v": 83
    },
    {
      "midi": 76,
      "hit": false,
      "t": 35400,
      "d": 600,
      "v": 82
    },
    {
      "midi": 69,
      "hit": false,
      "t": 36000,
      "d": 300,
      "v": 69
    },
    {
      "midi": 73,
      "hit": false,
      "t": 36000,
      "d": 300,
      "v": 69
    },
    {
      "midi": 54,
      "hit": false,
      "t": 36000,
      "d": 1200,
      "v": 70
    },
    {
      "midi": 61,
      "hit": false,
      "t": 36000,
      "d": 1200,
      "v": 70
    },
    {
      "midi": 76,
      "hit": false,
      "t": 36300,
      "d": 300,
      "v": 76
    },
    {
      "midi": 78,
      "hit": false,
      "t": 36600,
      "d": 300,
      "v": 85
    },
    {
      "midi": 81,
      "hit": false,
      "t": 36900,
      "d": 300,
      "v": 85
    },
    {
      "midi": 69,
      "hit": false,
      "t": 37200,
      "d": 600,
      "v": 71
    },
    {
      "midi": 78,
      "hit": false,
      "t": 37200,
      "d": 600,
      "v": 71
    },
    {
      "midi": 54,
      "hit": false,
      "t": 37200,
      "d": 1200,
      "v": 80
    },
    {
      "midi": 59,
      "hit": false,
      "t": 37200,
      "d": 1200,
      "v": 80
    },
    {
      "midi": 63,
      "hit": false,
      "t": 37200,
      "d": 1200,
      "v": 80
    },
    {
      "midi": 73,
      "hit": false,
      "t": 37800,
      "d": 600,
      "v": 63
    },
    {
      "midi": 62,
      "hit": false,
      "t": 38400,
      "d": 300,
      "v": 64
    },
    {
      "midi": 66,
      "hit": false,
      "t": 38400,
      "d": 300,
      "v": 64
    },
    {
      "midi": 52,
      "hit": false,
      "t": 38400,
      "d": 1200,
      "v": 74
    },
    {
      "midi": 56,
      "hit": false,
      "t": 38400,
      "d": 1200,
      "v": 74
    },
    {
      "midi": 71,
      "hit": false,
      "t": 38700,
      "d": 300,
      "v": 84
    },
    {
      "midi": 71,
      "hit": false,
      "t": 39000,
      "d": 600,
      "v": 75
    },
    {
      "midi": 64,
      "hit": false,
      "t": 39600,
      "d": 600,
      "v": 75
    },
    {
      "midi": 73,
      "hit": false,
      "t": 39600,
      "d": 600,
      "v": 75
    },
    {
      "midi": 49,
      "hit": false,
      "t": 39600,
      "d": 1200,
      "v": 75
    },
    {
      "midi": 56,
      "hit": false,
      "t": 39600,
      "d": 1200,
      "v": 75
    },
    {
      "midi": 68,
      "hit": false,
      "t": 40200,
      "d": 600,
      "v": 67
    },
    {
      "midi": 62,
      "hit": false,
      "t": 40800,
      "d": 300,
      "v": 74
    },
    {
      "midi": 66,
      "hit": false,
      "t": 40800,
      "d": 300,
      "v": 74
    },
    {
      "midi": 52,
      "hit": false,
      "t": 40800,
      "d": 1200,
      "v": 76
    },
    {
      "midi": 56,
      "hit": false,
      "t": 40800,
      "d": 1200,
      "v": 76
    },
    {
      "midi": 71,
      "hit": false,
      "t": 41100,
      "d": 300,
      "v": 85
    },
    {
      "midi": 71,
      "hit": false,
      "t": 41400,
      "d": 600,
      "v": 76
    },
    {
      "midi": 61,
      "hit": false,
      "t": 42000,
      "d": 1200,
      "v": 72
    },
    {
      "midi": 69,
      "hit": false,
      "t": 42000,
      "d": 1200,
      "v": 72
    },
    {
      "midi": 45,
      "hit": false,
      "t": 42000,
      "d": 1200,
      "v": 73
    },
    {
      "midi": 52,
      "hit": false,
      "t": 42000,
      "d": 1200,
      "v": 73
    },
    {
      "midi": 68,
      "hit": false,
      "t": 43200,
      "d": 900,
      "v": 91
    },
    {
      "midi": 76,
      "hit": false,
      "t": 43200,
      "d": 900,
      "v": 91
    },
    {
      "midi": 45,
      "hit": false,
      "t": 43200,
      "d": 1200,
      "v": 83
    },
    {
      "midi": 52,
      "hit": false,
      "t": 43200,
      "d": 1200,
      "v": 83
    },
    {
      "midi": 59,
      "hit": false,
      "t": 43200,
      "d": 1200,
      "v": 83
    },
    {
      "midi": 75,
      "hit": false,
      "t": 44100,
      "d": 300,
      "v": 76
    },
    {
      "midi": 66,
      "hit": false,
      "t": 44400,
      "d": 300,
      "v": 75
    },
    {
      "midi": 74,
      "hit": false,
      "t": 44400,
      "d": 300,
      "v": 75
    },
    {
      "midi": 45,
      "hit": false,
      "t": 44400,
      "d": 1200,
      "v": 72
    },
    {
      "midi": 57,
      "hit": false,
      "t": 44400,
      "d": 1200,
      "v": 72
    },
    {
      "midi": 69,
      "hit": false,
      "t": 44700,
      "d": 300,
      "v": 66
    },
    {
      "midi": 69,
      "hit": false,
      "t": 45000,
      "d": 600,
      "v": 74
    },
    {
      "midi": 62,
      "hit": false,
      "t": 45600,
      "d": 300,
      "v": 85
    },
    {
      "midi": 73,
      "hit": false,
      "t": 45600,
      "d": 300,
      "v": 85
    },
    {
      "midi": 45,
      "hit": false,
      "t": 45600,
      "d": 1200,
      "v": 72
    },
    {
      "midi": 53,
      "hit": false,
      "t": 45600,
      "d": 1200,
      "v": 72
    },
    {
      "midi": 71,
      "hit": false,
      "t": 45900,
      "d": 300,
      "v": 72
    },
    {
      "midi": 69,
      "hit": false,
      "t": 46200,
      "d": 300,
      "v": 68
    },
    {
      "midi": 71,
      "hit": false,
      "t": 46500,
      "d": 300,
      "v": 77
    },
    {
      "midi": 64,
      "hit": false,
      "t": 46800,
      "d": 600,
      "v": 82
    },
    {
      "midi": 73,
      "hit": false,
      "t": 46800,
      "d": 600,
      "v": 82
    },
    {
      "midi": 52,
      "hit": false,
      "t": 46800,
      "d": 1200,
      "v": 72
    },
    {
      "midi": 76,
      "hit": false,
      "t": 47400,
      "d": 600,
      "v": 79
    },
    {
      "midi": 69,
      "hit": false,
      "t": 48000,
      "d": 900,
      "v": 78
    },
    {
      "midi": 45,
      "hit": false,
      "t": 48000,
      "d": 600,
      "v": 92
    },
    {
      "midi": 52,
      "hit": false,
      "t": 48000,
      "d": 600,
      "v": 92
    },
    {
      "midi": 61,
      "hit": false,
      "t": 48000,
      "d": 600,
      "v": 92
    },
    {
      "midi": 60,
      "hit": false,
      "t": 48600,
      "d": 600,
      "v": 75
    },
    {
      "midi": 75,
      "hit": false,
      "t": 48900,
      "d": 300,
      "v": 76
    },
    {
      "midi": 66,
      "hit": false,
      "t": 49200,
      "d": 300,
      "v": 72
    },
    {
      "midi": 74,
      "hit": false,
      "t": 49200,
      "d": 300,
      "v": 72
    },
    {
      "midi": 45,
      "hit": false,
      "t": 49200,
      "d": 600,
      "v": 72
    },
    {
      "midi": 59,
      "hit": false,
      "t": 49200,
      "d": 600,
      "v": 72
    },
    {
      "midi": 69,
      "hit": false,
      "t": 49500,
      "d": 300,
      "v": 67
    },
    {
      "midi": 69,
      "hit": false,
      "t": 49800,
      "d": 600,
      "v": 75
    },
    {
      "midi": 57,
      "hit": false,
      "t": 49800,
      "d": 600,
      "v": 74
    },
    {
      "midi": 65,
      "hit": false,
      "t": 50400,
      "d": 300,
      "v": 85
    },
    {
      "midi": 73,
      "hit": false,
      "t": 50400,
      "d": 300,
      "v": 85
    },
    {
      "midi": 45,
      "hit": false,
      "t": 50400,
      "d": 600,
      "v": 74
    },
    {
      "midi": 56,
      "hit": false,
      "t": 50400,
      "d": 600,
      "v": 74
    },
    {
      "midi": 71,
      "hit": false,
      "t": 50700,
      "d": 300,
      "v": 74
    },
    {
      "midi": 69,
      "hit": false,
      "t": 51000,
      "d": 300,
      "v": 75
    },
    {
      "midi": 53,
      "hit": false,
      "t": 51000,
      "d": 600,
      "v": 69
    },
    {
      "midi": 71,
      "hit": false,
      "t": 51300,
      "d": 300,
      "v": 80
    },
    {
      "midi": 64,
      "hit": false,
      "t": 51600,
      "d": 600,
      "v": 78
    },
    {
      "midi": 73,
      "hit": false,
      "t": 51600,
      "d": 600,
      "v": 78
    },
    {
      "midi": 45,
      "hit": false,
      "t": 51600,
      "d": 1200,
      "v": 77
    },
    {
      "midi": 52,
      "hit": false,
      "t": 51600,
      "d": 1200,
      "v": 77
    },
    {
      "midi": 76,
      "hit": false,
      "t": 52200,
      "d": 600,
      "v": 84
    },
    {
      "midi": 62,
      "hit": false,
      "t": 52800,
      "d": 300,
      "v": 70
    },
    {
      "midi": 73,
      "hit": false,
      "t": 52800,
      "d": 300,
      "v": 70
    },
    {
      "midi": 45,
      "hit": false,
      "t": 52800,
      "d": 1200,
      "v": 80
    },
    {
      "midi": 53,
      "hit": false,
      "t": 52800,
      "d": 1200,
      "v": 80
    },
    {
      "midi": 71,
      "hit": false,
      "t": 53100,
      "d": 300,
      "v": 76
    },
    {
      "midi": 69,
      "hit": false,
      "t": 53400,
      "d": 300,
      "v": 72
    },
    {
      "midi": 71,
      "hit": false,
      "t": 53700,
      "d": 300,
      "v": 78
    },
    {
      "midi": 64,
      "hit": false,
      "t": 54000,
      "d": 600,
      "v": 84
    },
    {
      "midi": 73,
      "hit": false,
      "t": 54000,
      "d": 600,
      "v": 84
    },
    {
      "midi": 52,
      "hit": false,
      "t": 54000,
      "d": 600,
      "v": 77
    },
    {
      "midi": 69,
      "hit": false,
      "t": 54600,
      "d": 600,
      "v": 85
    },
    {
      "midi": 76,
      "hit": false,
      "t": 54600,
      "d": 600,
      "v": 85
    },
    {
      "midi": 61,
      "hit": false,
      "t": 54600,
      "d": 600,
      "v": 93
    },
    {
      "midi": 73,
      "hit": false,
      "t": 55200,
      "d": 1200,
      "v": 89
    },
    {
      "midi": 81,
      "hit": false,
      "t": 55200,
      "d": 1200,
      "v": 89
    },
    {
      "midi": 63,
      "hit": false,
      "t": 55200,
      "d": 1200,
      "v": 89
    },
    {
      "midi": 66,
      "hit": false,
      "t": 55200,
      "d": 1200,
      "v": 89
    },
    {
      "midi": 62,
      "hit": false,
      "t": 56400,
      "d": 1200,
      "v": 61
    },
    {
      "midi": 64,
      "hit": false,
      "t": 56400,
      "d": 1200,
      "v": 61
    },
    {
      "midi": 52,
      "hit": false,
      "t": 56400,
      "d": 1200,
      "v": 67
    },
    {
      "midi": 56,
      "hit": false,
      "t": 56400,
      "d": 1200,
      "v": 67
    },
    {
      "midi": 61,
      "hit": false,
      "t": 57600,
      "d": 300,
      "v": 74
    },
    {
      "midi": 66,
      "hit": false,
      "t": 57600,
      "d": 300,
      "v": 74
    },
    {
      "midi": 45,
      "hit": false,
      "t": 57600,
      "d": 2400,
      "v": 70
    },
    {
      "midi": 52,
      "hit": false,
      "t": 57600,
      "d": 2400,
      "v": 70
    },
    {
      "midi": 69,
      "hit": false,
      "t": 57900,
      "d": 900,
      "v": 80
    },
    {
      "midi": 61,
      "hit": false,
      "t": 58800,
      "d": 1800,
      "v": 76
    },
    {
      "midi": 69,
      "hit": false,
      "t": 58800,
      "d": 1800,
      "v": 76
    }
  ]
}