{
  "jsonPath": "Rock/Mellow Gold/Johnny Mathis/a-certain-smile.json",
  "path": "Rock\\Mellow Gold\\Johnny Mathis\\A Certain Smile.mid",
  "name": "A Certain Smile",
  "difficulty": "Advanced",
  "bpm": 74.000074000074,
  "notes": [
    {
      "midi": 60,
      "hit": false,
      "t": 13984.371270833333,
      "d": 447.44306250000045,
      "v": 54
    },
    {
      "midi": 72,
      "hit": false,
      "t": 13984.371270833333,
      "d": 447.44306250000045,
      "v": 54
    },
    {
      "midi": 65,
      "hit": false,
      "t": 14311.075729166667,
      "d": 624.9998333333333,
      "v": 64
    },
    {
      "midi": 77,
      "hit": false,
      "t": 14311.075729166667,
      "d": 624.9998333333333,
      "v": 64
    },
    {
      "midi": 69,
      "hit": false,
      "t": 14644.882458333333,
      "d": 355.1135416666675,
      "v": 59
    },
    {
      "midi": 81,
      "hit": false,
      "t": 14644.882458333333,
      "d": 355.1135416666675,
      "v": 59
    },
    {
      "midi": 72,
      "hit": false,
      "t": 14964.484645833334,
      "d": 85.22724999999991,
      "v": 57
    },
    {
      "midi": 84,
      "hit": false,
      "t": 14964.484645833334,
      "d": 85.22724999999991,
      "v": 57
    },
    {
      "midi": 69,
      "hit": false,
      "t": 15284.086833333335,
      "d": 696.0225416666672,
      "v": 52
    },
    {
      "midi": 81,
      "hit": false,
      "t": 15284.086833333335,
      "d": 696.0225416666672,
      "v": 52
    },
    {
      "midi": 72,
      "hit": false,
      "t": 15617.893562500001,
      "d": 390.62489583333445,
      "v": 54
    },
    {
      "midi": 84,
      "hit": false,
      "t": 15617.893562500001,
      "d": 390.62489583333445,
      "v": 54
    },
    {
      "midi": 76,
      "hit": false,
      "t": 15951.700291666668,
      "d": 92.32952083333475,
      "v": 45
    },
    {
      "midi": 88,
      "hit": false,
      "t": 15951.700291666668,
      "d": 92.32952083333475,
      "v": 45
    },
    {
      "midi": 69,
      "hit": false,
      "t": 16214.484312500002,
      "d": 767.0452499999974,
      "v": 25
    },
    {
      "midi": 81,
      "hit": false,
      "t": 16214.484312500002,
      "d": 767.0452499999974,
      "v": 25
    },
    {
      "midi": 72,
      "hit": false,
      "t": 16264.200208333335,
      "d": 738.6361666666635,
      "v": 49
    },
    {
      "midi": 84,
      "hit": false,
      "t": 16264.200208333335,
      "d": 738.6361666666635,
      "v": 49
    },
    {
      "midi": 77,
      "hit": false,
      "t": 16321.018375000001,
      "d": 688.9202708333305,
      "v": 57
    },
    {
      "midi": 89,
      "hit": false,
      "t": 16321.018375000001,
      "d": 688.9202708333305,
      "v": 57
    },
    {
      "midi": 82,
      "hit": false,
      "t": 19772.721999999998,
      "d": 99.43179166666596,
      "v": 30
    },
    {
      "midi": 79,
      "hit": false,
      "t": 19772.721999999998,
      "d": 106.53406249999898,
      "v": 25
    },
    {
      "midi": 82,
      "hit": false,
      "t": 20404.824104166662,
      "d": 113.636333333332,
      "v": 36
    },
    {
      "midi": 86,
      "hit": false,
      "t": 20433.233187499995,
      "d": 113.636333333332,
      "v": 47
    },
    {
      "midi": 86,
      "hit": false,
      "t": 21107.94891666666,
      "d": 106.53406249999898,
      "v": 33
    },
    {
      "midi": 89,
      "hit": false,
      "t": 21122.153458333327,
      "d": 113.636333333332,
      "v": 47
    },
    {
      "midi": 84,
      "hit": false,
      "t": 21754.25556249999,
      "d": 291.1931041666685,
      "v": 27
    },
    {
      "midi": 88,
      "hit": false,
      "t": 21818.175999999992,
      "d": 262.78402083333276,
      "v": 47
    },
    {
      "midi": 77,
      "hit": false,
      "t": 25220.163729166656,
      "d": 149.14768749999712,
      "v": 1
    },
    {
      "midi": 81,
      "hit": false,
      "t": 25255.67508333332,
      "d": 127.84087499999805,
      "v": 49
    },
    {
      "midi": 81,
      "hit": false,
      "t": 25901.98172916665,
      "d": 99.43179166666596,
      "v": 31
    },
    {
      "midi": 84,
      "hit": false,
      "t": 25916.186270833317,
      "d": 99.43179166666596,
      "v": 52
    },
    {
      "midi": 88,
      "hit": false,
      "t": 26555.390645833315,
      "d": 149.14768749999712,
      "v": 33
    },
    {
      "midi": 91,
      "hit": false,
      "t": 26590.90199999998,
      "d": 156.24995833333378,
      "v": 42
    },
    {
      "midi": 86,
      "hit": false,
      "t": 27194.595020833312,
      "d": 575.2839375000003,
      "v": 35
    },
    {
      "midi": 89,
      "hit": false,
      "t": 27258.515458333313,
      "d": 511.3634999999995,
      "v": 47
    },
    {
      "midi": 79,
      "hit": false,
      "t": 30632.09410416664,
      "d": 120.73860416666503,
      "v": 20
    },
    {
      "midi": 82,
      "hit": false,
      "t": 30653.40091666664,
      "d": 106.53406249999898,
      "v": 63
    },
    {
      "midi": 82,
      "hit": false,
      "t": 31356.52572916664,
      "d": 78.12497916666689,
      "v": 23
    },
    {
      "midi": 86,
      "hit": false,
      "t": 31363.62799999997,
      "d": 92.32952083333294,
      "v": 42
    },
    {
      "midi": 86,
      "hit": false,
      "t": 32045.44599999997,
      "d": 113.636333333332,
      "v": 29
    },
    {
      "midi": 89,
      "hit": false,
      "t": 32059.650541666637,
      "d": 106.53406249999898,
      "v": 45
    },
    {
      "midi": 84,
      "hit": false,
      "t": 32627.832208333304,
      "d": 1470.1700625000012,
      "v": 31
    },
    {
      "midi": 88,
      "hit": false,
      "t": 32705.95718749997,
      "d": 1399.1473541666674,
      "v": 49
    },
    {
      "midi": 77,
      "hit": false,
      "t": 36143.4562708333,
      "d": 99.4317916666696,
      "v": 25
    },
    {
      "midi": 81,
      "hit": false,
      "t": 36150.558541666636,
      "d": 99.4317916666696,
      "v": 45
    },
    {
      "midi": 81,
      "hit": false,
      "t": 36811.06972916664,
      "d": 78.12497916666325,
      "v": 20
    },
    {
      "midi": 84,
      "hit": false,
      "t": 36811.06972916664,
      "d": 92.3295208333293,
      "v": 49
    },
    {
      "midi": 91,
      "hit": false,
      "t": 37499.98999999997,
      "d": 92.32952083333657,
      "v": 42
    },
    {
      "midi": 88,
      "hit": false,
      "t": 37499.98999999997,
      "d": 106.53406250000262,
      "v": 31
    },
    {
      "midi": 84,
      "hit": false,
      "t": 38075.27393749997,
      "d": 816.761145833334,
      "v": 20
    },
    {
      "midi": 89,
      "hit": false,
      "t": 38153.398916666636,
      "d": 759.9429791666698,
      "v": 49
    },
    {
      "midi": 72,
      "hit": false,
      "t": 101590.88199999997,
      "d": 92.3295208333293,
      "v": 48
    },
    {
      "midi": 77,
      "hit": false,
      "t": 101590.88199999997,
      "d": 92.3295208333293,
      "v": 53
    },
    {
      "midi": 60,
      "hit": false,
      "t": 101619.2910833333,
      "d": 482.9544166666601,
      "v": 43
    },
    {
      "midi": 65,
      "hit": false,
      "t": 101619.2910833333,
      "d": 518.4657708333252,
      "v": 46
    },
    {
      "midi": 81,
      "hit": false,
      "t": 102265.59772916662,
      "d": 78.12497916666325,
      "v": 46
    },
    {
      "midi": 77,
      "hit": false,
      "t": 102272.69999999995,
      "d": 63.920437499997206,
      "v": 41
    },
    {
      "midi": 65,
      "hit": false,
      "t": 102272.69999999995,
      "d": 220.1703958333237,
      "v": 43
    },
    {
      "midi": 69,
      "hit": false,
      "t": 102279.80227083329,
      "d": 269.88629166665487,
      "v": 46
    },
    {
      "midi": 69,
      "hit": false,
      "t": 102933.21118749994,
      "d": 163.35222916665953,
      "v": 46
    },
    {
      "midi": 74,
      "hit": false,
      "t": 102940.31345833327,
      "d": 191.76131249999162,
      "v": 51
    },
    {
      "midi": 81,
      "hit": false,
      "t": 102961.62027083327,
      "d": 78.12497916666325,
      "v": 36
    },
    {
      "midi": 86,
      "hit": false,
      "t": 102968.7225416666,
      "d": 78.12497916666325,
      "v": 56
    },
    {
      "midi": 81,
      "hit": false,
      "t": 103579.51783333326,
      "d": 681.8179999999993,
      "v": 19
    },
    {
      "midi": 69,
      "hit": false,
      "t": 103636.33599999992,
      "d": 305.39764583333454,
      "v": 39
    },
    {
      "midi": 84,
      "hit": false,
      "t": 103636.33599999992,
      "d": 617.8975625000021,
      "v": 53
    },
    {
      "midi": 72,
      "hit": false,
      "t": 103643.43827083326,
      "d": 312.49991666666756,
      "v": 51
    }
  ]
}