{
  "jsonPath": "Folk/Volksmusik/Howard Carpendale/united.json",
  "path": "Folk\\Volksmusik\\Howard Carpendale\\United.mid",
  "name": "United",
  "difficulty": "Advanced",
  "bpm": 101.00006901671382,
  "notes": [
    {
      "midi": 93,
      "hit": false,
      "t": 7128.7080000000005,
      "d": 1142.3259520833326,
      "v": 93
    },
    {
      "midi": 91,
      "hit": false,
      "t": 8316.826,
      "d": 1142.3259520833326,
      "v": 94
    },
    {
      "midi": 90,
      "hit": false,
      "t": 9504.943999999998,
      "d": 1736.3849520833337,
      "v": 97
    },
    {
      "midi": 93,
      "hit": false,
      "t": 11881.179999999998,
      "d": 1142.3259520833326,
      "v": 95
    },
    {
      "midi": 91,
      "hit": false,
      "t": 13069.297999999997,
      "d": 1142.3259520833326,
      "v": 99
    },
    {
      "midi": 90,
      "hit": false,
      "t": 14257.415999999996,
      "d": 1736.3849520833337,
      "v": 92
    },
    {
      "midi": 95,
      "hit": false,
      "t": 16633.651999999995,
      "d": 1142.3259520833344,
      "v": 92
    },
    {
      "midi": 91,
      "hit": false,
      "t": 17821.769999999997,
      "d": 1142.3259520833344,
      "v": 93
    },
    {
      "midi": 93,
      "hit": false,
      "t": 19009.888,
      "d": 1142.3259520833344,
      "v": 91
    },
    {
      "midi": 86,
      "hit": false,
      "t": 20198.006,
      "d": 1142.3259520833344,
      "v": 97
    },
    {
      "midi": 88,
      "hit": false,
      "t": 21386.124000000003,
      "d": 1736.3849520833319,
      "v": 93
    },
    {
      "midi": 93,
      "hit": false,
      "t": 21386.124000000003,
      "d": 1736.3849520833319,
      "v": 91
    },
    {
      "midi": 74,
      "hit": false,
      "t": 23168.301000000003,
      "d": 399.75220208333485,
      "v": 94
    },
    {
      "midi": 76,
      "hit": false,
      "t": 23465.330500000004,
      "d": 399.75220208333485,
      "v": 94
    },
    {
      "midi": 81,
      "hit": false,
      "t": 23762.360000000004,
      "d": 1142.3259520833344,
      "v": 96
    },
    {
      "midi": 55,
      "hit": false,
      "t": 36537.10374583333,
      "d": 592.8213770833318,
      "v": 1
    },
    {
      "midi": 59,
      "hit": false,
      "t": 36537.10374583333,
      "d": 592.8213770833318,
      "v": 1
    },
    {
      "midi": 59,
      "hit": false,
      "t": 37131.16274583333,
      "d": 592.8213770833318,
      "v": 1
    },
    {
      "midi": 62,
      "hit": false,
      "t": 37131.16274583333,
      "d": 592.8213770833318,
      "v": 1
    },
    {
      "midi": 61,
      "hit": false,
      "t": 37725.22174583333,
      "d": 592.8213770833318,
      "v": 1
    },
    {
      "midi": 64,
      "hit": false,
      "t": 37725.22174583333,
      "d": 592.8213770833318,
      "v": 1
    },
    {
      "midi": 62,
      "hit": false,
      "t": 38319.280745833334,
      "d": 292.07900833333406,
      "v": 1
    },
    {
      "midi": 66,
      "hit": false,
      "t": 38319.280745833334,
      "d": 292.07900833333406,
      "v": 1
    },
    {
      "midi": 79,
      "hit": false,
      "t": 46332.889131250005,
      "d": 1836.632408333331,
      "v": 88
    },
    {
      "midi": 78,
      "hit": false,
      "t": 46623.73051666667,
      "d": 1585.3949562499984,
      "v": 82
    },
    {
      "midi": 76,
      "hit": false,
      "t": 46933.13624583334,
      "d": 1269.8011124999975,
      "v": 85
    },
    {
      "midi": 71,
      "hit": false,
      "t": 47271.00730208334,
      "d": 900.989483333331,
      "v": 78
    },
    {
      "midi": 59,
      "hit": false,
      "t": 47524.72,
      "d": 888.6132541666666,
      "v": 1
    },
    {
      "midi": 61,
      "hit": false,
      "t": 48415.8085,
      "d": 888.6132541666666,
      "v": 1
    },
    {
      "midi": 62,
      "hit": false,
      "t": 49306.897,
      "d": 907.1775979166632,
      "v": 1
    },
    {
      "midi": 64,
      "hit": false,
      "t": 50216.54984374999,
      "d": 304.4552374999985,
      "v": 1
    },
    {
      "midi": 62,
      "hit": false,
      "t": 50522.24270416666,
      "d": 292.07900833333406,
      "v": 1
    },
    {
      "midi": 59,
      "hit": false,
      "t": 50816.796958333325,
      "d": 521.0392479166694,
      "v": 1
    },
    {
      "midi": 78,
      "hit": false,
      "t": 51085.36113125,
      "d": 1836.632408333331,
      "v": 82
    },
    {
      "midi": 76,
      "hit": false,
      "t": 51376.202516666664,
      "d": 1585.3949562499984,
      "v": 79
    },
    {
      "midi": 74,
      "hit": false,
      "t": 51685.60824583333,
      "d": 1269.8011124999975,
      "v": 81
    },
    {
      "midi": 71,
      "hit": false,
      "t": 52023.47930208333,
      "d": 900.989483333331,
      "v": 77
    },
    {
      "midi": 62,
      "hit": false,
      "t": 54080.40858958333,
      "d": 2649.7506645833346,
      "v": 1
    },
    {
      "midi": 64,
      "hit": false,
      "t": 56732.63449999999,
      "d": 298.26712291666627,
      "v": 1
    },
    {
      "midi": 66,
      "hit": false,
      "t": 57032.13924583333,
      "d": 285.89089375000185,
      "v": 1
    },
    {
      "midi": 64,
      "hit": false,
      "t": 57320.50538541666,
      "d": 597.7718687500019,
      "v": 1
    },
    {
      "midi": 62,
      "hit": false,
      "t": 57920.752499999995,
      "d": 378.7126124999995,
      "v": 1
    },
    {
      "midi": 81,
      "hit": false,
      "t": 58214.06913125,
      "d": 1836.632408333331,
      "v": 87
    },
    {
      "midi": 79,
      "hit": false,
      "t": 58504.91051666666,
      "d": 1585.3949562499984,
      "v": 83
    },
    {
      "midi": 78,
      "hit": false,
      "t": 58814.31624583333,
      "d": 1269.8011124999975,
      "v": 85
    },
    {
      "midi": 76,
      "hit": false,
      "t": 59152.18730208333,
      "d": 900.989483333331,
      "v": 76
    },
    {
      "midi": 52,
      "hit": false,
      "t": 63576.68922916666,
      "d": 285.89089375000185,
      "v": 1
    },
    {
      "midi": 55,
      "hit": false,
      "t": 63576.68922916666,
      "d": 285.89089375000185,
      "v": 1
    },
    {
      "midi": 76,
      "hit": false,
      "t": 63855.15438541666,
      "d": 2280.9390354166753,
      "v": 81
    },
    {
      "midi": 54,
      "hit": false,
      "t": 63863.81774583333,
      "d": 301.97999166666705,
      "v": 1
    },
    {
      "midi": 57,
      "hit": false,
      "t": 63863.81774583333,
      "d": 301.97999166666705,
      "v": 1
    },
    {
      "midi": 71,
      "hit": false,
      "t": 63985.10479166666,
      "d": 2142.325268750006,
      "v": 88
    },
    {
      "midi": 67,
      "hit": false,
      "t": 64028.42159374999,
      "d": 2101.483712500012,
      "v": 83
    },
    {
      "midi": 64,
      "hit": false,
      "t": 64111.342329166655,
      "d": 2022.275845833341,
      "v": 77
    },
    {
      "midi": 55,
      "hit": false,
      "t": 64167.03536041667,
      "d": 298.26712291666627,
      "v": 1
    },
    {
      "midi": 59,
      "hit": false,
      "t": 64167.03536041667,
      "d": 298.26712291666627,
      "v": 1
    },
    {
      "midi": 83,
      "hit": false,
      "t": 64455.401499999985,
      "d": 285.89089375000185,
      "v": 70
    },
    {
      "midi": 54,
      "hit": false,
      "t": 64467.777729166664,
      "d": 282.17802500000107,
      "v": 1
    },
    {
      "midi": 57,
      "hit": false,
      "t": 64467.777729166664,
      "d": 282.17802500000107,
      "v": 1
    },
    {
      "midi": 79,
      "hit": false,
      "t": 64752.43099999999,
      "d": 285.89089375000185,
      "v": 77
    },
    {
      "midi": 52,
      "hit": false,
      "t": 64752.431,
      "d": 1198.018983333328,
      "v": 1
    },
    {
      "midi": 55,
      "hit": false,
      "t": 64752.431,
      "d": 1198.018983333328,
      "v": 1
    },
    {
      "midi": 86,
      "hit": false,
      "t": 65049.460499999994,
      "d": 2513.612143750004,
      "v": 87
    },
    {
      "midi": 55,
      "hit": false,
      "t": 65952.92522916666,
      "d": 285.8908937499946,
      "v": 1
    },
    {
      "midi": 64,
      "hit": false,
      "t": 65952.92522916666,
      "d": 285.8908937499946,
      "v": 1
    },
    {
      "midi": 57,
      "hit": false,
      "t": 66240.05374583333,
      "d": 292.0790083333268,
      "v": 1
    },
    {
      "midi": 62,
      "hit": false,
      "t": 66240.05374583333,
      "d": 292.0790083333268,
      "v": 1
    },
    {
      "midi": 59,
      "hit": false,
      "t": 66534.608,
      "d": 298.26712291667354,
      "v": 1
    },
    {
      "midi": 64,
      "hit": false,
      "t": 66534.608,
      "d": 298.26712291667354,
      "v": 1
    },
    {
      "midi": 57,
      "hit": false,
      "t": 66834.11274583334,
      "d": 285.8908937499946,
      "v": 1
    },
    {
      "midi": 64,
      "hit": false,
      "t": 66834.11274583334,
      "d": 285.8908937499946,
      "v": 1
    },
    {
      "midi": 55,
      "hit": false,
      "t": 67122.47888541667,
      "d": 300.7423687499977,
      "v": 1
    },
    {
      "midi": 62,
      "hit": false,
      "t": 67122.47888541667,
      "d": 300.7423687499977,
      "v": 1
    },
    {
      "midi": 55,
      "hit": false,
      "t": 67425.6965,
      "d": 471.53433125000447,
      "v": 1
    },
    {
      "midi": 59,
      "hit": false,
      "t": 67425.6965,
      "d": 471.53433125000447,
      "v": 1
    },
    {
      "midi": 78,
      "hit": false,
      "t": 68607.62638541666,
      "d": 2280.9390354166826,
      "v": 77
    },
    {
      "midi": 74,
      "hit": false,
      "t": 68737.57679166667,
      "d": 2142.325268750006,
      "v": 88
    },
    {
      "midi": 71,
      "hit": false,
      "t": 68780.89359375,
      "d": 2101.483712500005,
      "v": 83
    },
    {
      "midi": 66,
      "hit": false,
      "t": 68863.81432916668,
      "d": 2022.2758458333265,
      "v": 78
    },
    {
      "midi": 62,
      "hit": false,
      "t": 68917.03211458334,
      "d": 2373.7607541666657,
      "v": 1
    },
    {
      "midi": 66,
      "hit": false,
      "t": 68917.03211458334,
      "d": 2373.7607541666657,
      "v": 1
    },
    {
      "midi": 62,
      "hit": false,
      "t": 71293.26811458335,
      "d": 1758.6621645833366,
      "v": 1
    },
    {
      "midi": 66,
      "hit": false,
      "t": 71293.26811458335,
      "d": 1758.6621645833366,
      "v": 1
    },
    {
      "midi": 62,
      "hit": false,
      "t": 73681.88034375002,
      "d": 298.26712291667354,
      "v": 1
    },
    {
      "midi": 67,
      "hit": false,
      "t": 73681.88034375002,
      "d": 298.26712291667354,
      "v": 1
    },
    {
      "midi": 83,
      "hit": false,
      "t": 73960.34550000001,
      "d": 285.8908937499946,
      "v": 75
    },
    {
      "midi": 61,
      "hit": false,
      "t": 73981.38508958336,
      "d": 292.0790083333268,
      "v": 1
    },
    {
      "midi": 67,
      "hit": false,
      "t": 73981.38508958336,
      "d": 292.0790083333268,
      "v": 1
    },
    {
      "midi": 79,
      "hit": false,
      "t": 74257.375,
      "d": 285.8908937499946,
      "v": 72
    },
    {
      "midi": 59,
      "hit": false,
      "t": 74275.93934375003,
      "d": 904.7023520833318,
      "v": 1
    },
    {
      "midi": 67,
      "hit": false,
      "t": 74275.93934375003,
      "d": 904.7023520833318,
      "v": 1
    },
    {
      "midi": 86,
      "hit": false,
      "t": 74554.40449999999,
      "d": 1474.0088937499968,
      "v": 84
    },
    {
      "midi": 62,
      "hit": false,
      "t": 75181.87931875003,
      "d": 1162.127918750004,
      "v": 1
    },
    {
      "midi": 67,
      "hit": false,
      "t": 75181.87931875003,
      "d": 1162.127918750004,
      "v": 1
    },
    {
      "midi": 62,
      "hit": false,
      "t": 76345.2448604167,
      "d": 896.0389916666609,
      "v": 1
    },
    {
      "midi": 69,
      "hit": false,
      "t": 76345.2448604167,
      "d": 896.0389916666609,
      "v": 1
    },
    {
      "midi": 66,
      "hit": false,
      "t": 77242.52147500003,
      "d": 452.9699874999933,
      "v": 1
    },
    {
      "midi": 69,
      "hit": false,
      "t": 77242.52147500003,
      "d": 452.9699874999933,
      "v": 1
    },
    {
      "midi": 64,
      "hit": false,
      "t": 77697.96670833336,
      "d": 424.50466041667096,
      "v": 1
    },
    {
      "midi": 67,
      "hit": false,
      "t": 77697.96670833336,
      "d": 424.50466041667096,
      "v": 1
    },
    {
      "midi": 62,
      "hit": false,
      "t": 78124.94661458337,
      "d": 446.7818729166611,
      "v": 1
    },
    {
      "midi": 66,
      "hit": false,
      "t": 78124.94661458337,
      "d": 446.7818729166611,
      "v": 1
    },
    {
      "midi": 64,
      "hit": false,
      "t": 78572.9661104167,
      "d": 2313.1172312499984,
      "v": 1
    },
    {
      "midi": 69,
      "hit": false,
      "t": 78572.9661104167,
      "d": 2313.1172312499984,
      "v": 1
    },
    {
      "midi": 73,
      "hit": false,
      "t": 80792.02399999999,
      "d": 304.45523750000575,
      "v": 75
    },
    {
      "midi": 69,
      "hit": false,
      "t": 80792.02399999999,
      "d": 306.93048333334445,
      "v": 74
    },
    {
      "midi": 76,
      "hit": false,
      "t": 80792.02399999999,
      "d": 310.64335208333796,
      "v": 72
    },
    {
      "midi": 57,
      "hit": false,
      "t": 81388.55824583337,
      "d": 592.821377083339,
      "v": 1
    },
    {
      "midi": 55,
      "hit": false,
      "t": 81982.61724583337,
      "d": 298.26712291667354,
      "v": 1
    },
    {
      "midi": 54,
      "hit": false,
      "t": 82283.35961458339,
      "d": 288.3661395833333,
      "v": 1
    },
    {
      "midi": 52,
      "hit": false,
      "t": 82574.20100000006,
      "d": 300.7423687499977,
      "v": 1
    },
    {
      "midi": 50,
      "hit": false,
      "t": 82877.4186145834,
      "d": 298.26712291667354,
      "v": 1
    },
    {
      "midi": 52,
      "hit": false,
      "t": 83176.92336041674,
      "d": 289.60376250000263,
      "v": 1
    },
    {
      "midi": 54,
      "hit": false,
      "t": 83467.76474583341,
      "d": 533.4154770833266,
      "v": 1
    },
    {
      "midi": 81,
      "hit": false,
      "t": 84352.66513124999,
      "d": 1836.6324083333457,
      "v": 90
    },
    {
      "midi": 78,
      "hit": false,
      "t": 84643.50651666666,
      "d": 1585.3949562500056,
      "v": 85
    },
    {
      "midi": 76,
      "hit": false,
      "t": 84952.91224583333,
      "d": 1269.8011125000048,
      "v": 87
    },
    {
      "midi": 69,
      "hit": false,
      "t": 85290.78330208334,
      "d": 900.9894833333383,
      "v": 84
    },
    {
      "midi": 57,
      "hit": false,
      "t": 86141.0302458334,
      "d": 589.108508333331,
      "v": 1
    },
    {
      "midi": 55,
      "hit": false,
      "t": 86732.61400000007,
      "d": 300.7423687499977,
      "v": 1
    },
    {
      "midi": 54,
      "hit": false,
      "t": 87035.83161458341,
      "d": 298.26712291667354,
      "v": 1
    },
    {
      "midi": 52,
      "hit": false,
      "t": 87335.33636041675,
      "d": 298.26712291667354,
      "v": 1
    },
    {
      "midi": 50,
      "hit": false,
      "t": 87636.07872916677,
      "d": 304.45523750000575,
      "v": 1
    },
    {
      "midi": 61,
      "hit": false,
      "t": 87941.77158958344,
      "d": 712.8708000000042,
      "v": 1
    },
    {
      "midi": 78,
      "hit": false,
      "t": 89105.13713125,
      "d": 1836.6324083333457,
      "v": 89
    },
    {
      "midi": 76,
      "hit": false,
      "t": 89395.97851666667,
      "d": 1585.3949562500056,
      "v": 85
    },
    {
      "midi": 73,
      "hit": false,
      "t": 89705.38424583334,
      "d": 1269.8011125000048,
      "v": 83
    },
    {
      "midi": 69,
      "hit": false,
      "t": 90043.25530208334,
      "d": 900.9894833333383,
      "v": 81
    },
    {
      "midi": 62,
      "hit": false,
      "t": 90903.40322916678,
      "d": 579.2075250000053,
      "v": 1
    },
    {
      "midi": 61,
      "hit": false,
      "t": 91485.08600000013,
      "d": 300.7423687499977,
      "v": 1
    },
    {
      "midi": 59,
      "hit": false,
      "t": 91788.30361458346,
      "d": 294.5542541666655,
      "v": 1
    },
    {
      "midi": 57,
      "hit": false,
      "t": 92085.33311458347,
      "d": 294.5542541666655,
      "v": 1
    },
    {
      "midi": 54,
      "hit": false,
      "t": 92382.36261458347,
      "d": 589.108508333331,
      "v": 1
    },
    {
      "midi": 55,
      "hit": false,
      "t": 92972.70874583347,
      "d": 592.821377083339,
      "v": 1
    },
    {
      "midi": 59,
      "hit": false,
      "t": 93566.76774583348,
      "d": 592.821377083339,
      "v": 1
    },
    {
      "midi": 62,
      "hit": false,
      "t": 93566.76774583348,
      "d": 592.821377083339,
      "v": 1
    },
    {
      "midi": 62,
      "hit": false,
      "t": 94160.82674583349,
      "d": 889.8508770833287,
      "v": 1
    },
    {
      "midi": 67,
      "hit": false,
      "t": 94160.82674583349,
      "d": 889.8508770833287,
      "v": 1
    },
    {
      "midi": 66,
      "hit": false,
      "t": 95051.91524583349,
      "d": 908.4152208333398,
      "v": 1
    },
    {
      "midi": 69,
      "hit": false,
      "t": 95051.91524583349,
      "d": 908.4152208333398,
      "v": 1
    },
    {
      "midi": 57,
      "hit": false,
      "t": 95961.5680895835,
      "d": 273.51466458333016,
      "v": 1
    },
    {
      "midi": 81,
      "hit": false,
      "t": 96233.84513125001,
      "d": 1836.6324083333457,
      "v": 90
    },
    {
      "midi": 55,
      "hit": false,
      "t": 96237.55800000016,
      "d": 313.1185979166621,
      "v": 1
    },
    {
      "midi": 79,
      "hit": false,
      "t": 96524.68651666668,
      "d": 1585.3949562500056,
      "v": 87
    },
    {
      "midi": 54,
      "hit": false,
      "t": 96553.15184375017,
      "d": 273.51466458333016,
      "v": 1
    },
    {
      "midi": 52,
      "hit": false,
      "t": 96827.90413125016,
      "d": 298.26712291667354,
      "v": 1
    },
    {
      "midi": 78,
      "hit": false,
      "t": 96834.09224583335,
      "d": 1269.8011125000048,
      "v": 85
    },
    {
      "midi": 50,
      "hit": false,
      "t": 97128.64650000018,
      "d": 566.8312958333263,
      "v": 1
    },
    {
      "midi": 69,
      "hit": false,
      "t": 97171.96330208336,
      "d": 900.9894833333383,
      "v": 77
    },
    {
      "midi": 52,
      "hit": false,
      "t": 97697.95304166684,
      "d": 857.6726812499983,
      "v": 1
    },
    {
      "midi": 57,
      "hit": false,
      "t": 100398.4462458335,
      "d": 592.821377083339,
      "v": 1
    },
    {
      "midi": 55,
      "hit": false,
      "t": 100992.50524583351,
      "d": 298.26712291667354,
      "v": 1
    },
    {
      "midi": 54,
      "hit": false,
      "t": 101293.24761458352,
      "d": 288.3661395833333,
      "v": 1
    },
    {
      "midi": 52,
      "hit": false,
      "t": 101584.0890000002,
      "d": 300.7423687499977,
      "v": 1
    },
    {
      "midi": 78,
      "hit": false,
      "t": 101874.9303854167,
      "d": 892.3261229166819,
      "v": 81
    },
    {
      "midi": 50,
      "hit": false,
      "t": 101887.30661458353,
      "d": 298.26712291667354,
      "v": 1
    },
    {
      "midi": 74,
      "hit": false,
      "t": 102004.8807916667,
      "d": 2142.3252687499917,
      "v": 90
    },
    {
      "midi": 69,
      "hit": false,
      "t": 102048.19759375004,
      "d": 2101.4837124999904,
      "v": 88
    },
    {
      "midi": 66,
      "hit": false,
      "t": 102131.11832916671,
      "d": 2022.275845833312,
      "v": 80
    },
    {
      "midi": 52,
      "hit": false,
      "t": 102186.81136041688,
      "d": 289.60376250000263,
      "v": 1
    },
    {
      "midi": 81,
      "hit": false,
      "t": 102475.17750000005,
      "d": 285.8908937499946,
      "v": 78
    },
    {
      "midi": 54,
      "hit": false,
      "t": 102477.65274583355,
      "d": 533.4154770833266,
      "v": 1
    },
    {
      "midi": 78,
      "hit": false,
      "t": 102772.20700000004,
      "d": 285.8908937499946,
      "v": 73
    },
    {
      "midi": 86,
      "hit": false,
      "t": 103069.23650000003,
      "d": 2513.612143749997,
      "v": 90
    },
    {
      "midi": 57,
      "hit": false,
      "t": 104556.85924583355,
      "d": 3383.6610541666596,
      "v": 1
    },
    {
      "midi": 78,
      "hit": false,
      "t": 106627.40238541669,
      "d": 2280.9390354166826,
      "v": 82
    },
    {
      "midi": 73,
      "hit": false,
      "t": 106757.3527916667,
      "d": 2142.325268750006,
      "v": 91
    },
    {
      "midi": 69,
      "hit": false,
      "t": 106800.66959375003,
      "d": 2101.483712500005,
      "v": 91
    },
    {
      "midi": 66,
      "hit": false,
      "t": 106883.5903291667,
      "d": 2022.2758458333265,
      "v": 73
    },
    {
      "midi": 62,
      "hit": false,
      "t": 109913.29122916688,
      "d": 579.2075250000053,
      "v": 1
    },
    {
      "midi": 66,
      "hit": false,
      "t": 109913.29122916688,
      "d": 579.2075250000053,
      "v": 1
    },
    {
      "midi": 61,
      "hit": false,
      "t": 110494.97400000022,
      "d": 300.7423687499977,
      "v": 1
    },
    {
      "midi": 64,
      "hit": false,
      "t": 110494.97400000022,
      "d": 300.7423687499977,
      "v": 1
    },
    {
      "midi": 59,
      "hit": false,
      "t": 110798.19161458356,
      "d": 294.5542541666655,
      "v": 1
    },
    {
      "midi": 62,
      "hit": false,
      "t": 110798.19161458356,
      "d": 294.5542541666655,
      "v": 1
    },
    {
      "midi": 57,
      "hit": false,
      "t": 111095.22111458356,
      "d": 294.5542541666655,
      "v": 1
    },
    {
      "midi": 61,
      "hit": false,
      "t": 111095.22111458356,
      "d": 294.5542541666655,
      "v": 1
    },
    {
      "midi": 54,
      "hit": false,
      "t": 111392.25061458357,
      "d": 589.108508333331,
      "v": 1
    },
    {
      "midi": 57,
      "hit": false,
      "t": 111392.25061458357,
      "d": 589.108508333331,
      "v": 1
    },
    {
      "midi": 83,
      "hit": false,
      "t": 111980.12150000004,
      "d": 285.8908937499946,
      "v": 81
    },
    {
      "midi": 55,
      "hit": false,
      "t": 111982.59674583357,
      "d": 685.6430958333221,
      "v": 1
    },
    {
      "midi": 59,
      "hit": false,
      "t": 111982.59674583357,
      "d": 685.6430958333221,
      "v": 1
    },
    {
      "midi": 79,
      "hit": false,
      "t": 112277.15100000003,
      "d": 285.8908937499946,
      "v": 73
    },
    {
      "midi": 86,
      "hit": false,
      "t": 112574.18050000002,
      "d": 1474.0088937499968,
      "v": 87
    },
    {
      "midi": 66,
      "hit": false,
      "t": 112576.65574583356,
      "d": 592.8213770833245,
      "v": 1
    },
    {
      "midi": 69,
      "hit": false,
      "t": 112576.65574583356,
      "d": 592.8213770833245,
      "v": 1
    },
    {
      "midi": 67,
      "hit": false,
      "t": 113170.71474583355,
      "d": 592.821377083339,
      "v": 1
    },
    {
      "midi": 71,
      "hit": false,
      "t": 113170.71474583355,
      "d": 592.821377083339,
      "v": 1
    },
    {
      "midi": 66,
      "hit": false,
      "t": 113764.77374583356,
      "d": 295.79187708333484,
      "v": 1
    },
    {
      "midi": 69,
      "hit": false,
      "t": 113764.77374583356,
      "d": 295.79187708333484,
      "v": 1
    },
    {
      "midi": 66,
      "hit": false,
      "t": 114061.80324583357,
      "d": 592.821377083339,
      "v": 1
    },
    {
      "midi": 71,
      "hit": false,
      "t": 114061.80324583357,
      "d": 592.821377083339,
      "v": 1
    },
    {
      "midi": 64,
      "hit": false,
      "t": 114655.86224583357,
      "d": 1780.9393770833267,
      "v": 1
    },
    {
      "midi": 69,
      "hit": false,
      "t": 114655.86224583357,
      "d": 1780.9393770833267,
      "v": 1
    },
    {
      "midi": 66,
      "hit": false,
      "t": 116438.03924583357,
      "d": 1768.5631479166623,
      "v": 1
    },
    {
      "midi": 69,
      "hit": false,
      "t": 116438.03924583357,
      "d": 1768.5631479166623,
      "v": 1
    },
    {
      "midi": 62,
      "hit": false,
      "t": 116481.35604791668,
      "d": 1641.08798750001,
      "v": 95
    },
    {
      "midi": 66,
      "hit": false,
      "t": 116732.59350000002,
      "d": 1408.4148791666667,
      "v": 103
    },
    {
      "midi": 69,
      "hit": false,
      "t": 117023.43488541669,
      "d": 978.9597270833328,
      "v": 97
    },
    {
      "midi": 74,
      "hit": false,
      "t": 117329.12774583335,
      "d": 728.9598979166767,
      "v": 105
    },
    {
      "midi": 74,
      "hit": false,
      "t": 118217.74100000002,
      "d": 573.019410416673,
      "v": 97
    },
    {
      "midi": 79,
      "hit": false,
      "t": 118220.21624583336,
      "d": 574.2570333333279,
      "v": 109
    },
    {
      "midi": 57,
      "hit": false,
      "t": 118811.80000000024,
      "d": 294.5542541666655,
      "v": 1
    },
    {
      "midi": 78,
      "hit": false,
      "t": 118826.65147500002,
      "d": 2204.2064145833283,
      "v": 109
    },
    {
      "midi": 74,
      "hit": false,
      "t": 118830.36434375001,
      "d": 2204.2064145833283,
      "v": 93
    },
    {
      "midi": 59,
      "hit": false,
      "t": 119108.82950000024,
      "d": 294.5542541666655,
      "v": 1
    },
    {
      "midi": 57,
      "hit": false,
      "t": 119405.85900000024,
      "d": 294.5542541666655,
      "v": 1
    },
    {
      "midi": 62,
      "hit": false,
      "t": 119702.88850000025,
      "d": 591.5837541666697,
      "v": 1
    },
    {
      "midi": 64,
      "hit": false,
      "t": 120296.94750000026,
      "d": 294.5542541666655,
      "v": 1
    },
    {
      "midi": 62,
      "hit": false,
      "t": 120593.97700000026,
      "d": 591.5837541666697,
      "v": 1
    },
    {
      "midi": 58,
      "hit": false,
      "t": 121188.036,
      "d": 2330.4439520833403,
      "v": 114
    },
    {
      "midi": 62,
      "hit": false,
      "t": 121188.036,
      "d": 2330.4439520833403,
      "v": 115
    },
    {
      "midi": 65,
      "hit": false,
      "t": 121188.036,
      "d": 2330.4439520833403,
      "v": 116
    },
    {
      "midi": 65,
      "hit": false,
      "t": 121188.03600000027,
      "d": 1773.5136395833397,
      "v": 1
    },
    {
      "midi": 57,
      "hit": false,
      "t": 123564.272,
      "d": 2330.4439520833257,
      "v": 119
    },
    {
      "midi": 62,
      "hit": false,
      "t": 123564.272,
      "d": 2330.4439520833257,
      "v": 118
    },
    {
      "midi": 66,
      "hit": false,
      "t": 123564.272,
      "d": 2330.4439520833257,
      "v": 118
    },
    {
      "midi": 69,
      "hit": false,
      "t": 124603.87525,
      "d": 63.118768750005984,
      "v": 111
    },
    {
      "midi": 69,
      "hit": false,
      "t": 124752.39,
      "d": 137.37614375000703,
      "v": 121
    },
    {
      "midi": 74,
      "hit": false,
      "t": 124900.90475,
      "d": 434.40564374999667,
      "v": 117
    },
    {
      "midi": 74,
      "hit": false,
      "t": 125346.449,
      "d": 137.37614375000703,
      "v": 110
    },
    {
      "midi": 76,
      "hit": false,
      "t": 125494.96375,
      "d": 434.40564374999667,
      "v": 114
    },
    {
      "midi": 74,
      "hit": false,
      "t": 125637.29038541668,
      "d": 2280.9390354166826,
      "v": 84
    },
    {
      "midi": 70,
      "hit": false,
      "t": 125767.24079166669,
      "d": 2142.325268750006,
      "v": 85
    },
    {
      "midi": 65,
      "hit": false,
      "t": 125810.55759375003,
      "d": 2101.483712500005,
      "v": 87
    },
    {
      "midi": 62,
      "hit": false,
      "t": 125893.4783291667,
      "d": 2022.2758458333265,
      "v": 77
    },
    {
      "midi": 77,
      "hit": false,
      "t": 125940.50799999999,
      "d": 285.8908937499946,
      "v": 127
    },
    {
      "midi": 58,
      "hit": false,
      "t": 125940.50799999999,
      "d": 2330.4439520833257,
      "v": 116
    },
    {
      "midi": 62,
      "hit": false,
      "t": 125940.50799999999,
      "d": 2330.4439520833257,
      "v": 117
    },
    {
      "midi": 65,
      "hit": false,
      "t": 125940.50799999999,
      "d": 2330.4439520833257,
      "v": 113
    },
    {
      "midi": 62,
      "hit": false,
      "t": 125940.50800000028,
      "d": 1482.6722541666677,
      "v": 1
    },
    {
      "midi": 65,
      "hit": false,
      "t": 125940.50800000028,
      "d": 1482.6722541666677,
      "v": 1
    },
    {
      "midi": 64,
      "hit": false,
      "t": 127425.65550000028,
      "d": 591.5837541666697,
      "v": 1
    },
    {
      "midi": 67,
      "hit": false,
      "t": 127425.65550000028,
      "d": 591.5837541666697,
      "v": 1
    },
    {
      "midi": 66,
      "hit": false,
      "t": 128019.7145000003,
      "d": 591.5837541666697,
      "v": 1
    },
    {
      "midi": 69,
      "hit": false,
      "t": 128019.7145000003,
      "d": 591.5837541666697,
      "v": 1
    },
    {
      "midi": 57,
      "hit": false,
      "t": 128316.74399999998,
      "d": 2330.4439520833257,
      "v": 116
    },
    {
      "midi": 62,
      "hit": false,
      "t": 128316.74399999998,
      "d": 2330.4439520833257,
      "v": 113
    },
    {
      "midi": 66,
      "hit": false,
      "t": 128316.74399999998,
      "d": 2330.4439520833257,
      "v": 115
    },
    {
      "midi": 64,
      "hit": false,
      "t": 128613.7735000003,
      "d": 146.0395041666634,
      "v": 1
    },
    {
      "midi": 67,
      "hit": false,
      "t": 128613.7735000003,
      "d": 146.0395041666634,
      "v": 1
    },
    {
      "midi": 62,
      "hit": false,
      "t": 128762.2882500003,
      "d": 1176.9793937499926,
      "v": 1
    },
    {
      "midi": 66,
      "hit": false,
      "t": 128762.2882500003,
      "d": 1176.9793937499926,
      "v": 1
    },
    {
      "midi": 69,
      "hit": false,
      "t": 129356.34724999998,
      "d": 63.118768750005984,
      "v": 109
    },
    {
      "midi": 69,
      "hit": false,
      "t": 129504.86199999998,
      "d": 137.37614375000703,
      "v": 118
    },
    {
      "midi": 74,
      "hit": false,
      "t": 129653.37674999998,
      "d": 434.40564374999667,
      "v": 115
    },
    {
      "midi": 74,
      "hit": false,
      "t": 130098.92099999997,
      "d": 137.37614375000703,
      "v": 105
    },
    {
      "midi": 76,
      "hit": false,
      "t": 130247.43574999998,
      "d": 434.40564374999667,
      "v": 111
    },
    {
      "midi": 74,
      "hit": false,
      "t": 130389.76238541669,
      "d": 2280.939035416697,
      "v": 77
    },
    {
      "midi": 70,
      "hit": false,
      "t": 130519.7127916667,
      "d": 2142.325268750006,
      "v": 91
    },
    {
      "midi": 65,
      "hit": false,
      "t": 130563.02959375003,
      "d": 2101.483712500005,
      "v": 92
    },
    {
      "midi": 62,
      "hit": false,
      "t": 130645.9503291667,
      "d": 2022.275845833341,
      "v": 75
    },
    {
      "midi": 77,
      "hit": false,
      "t": 130692.97999999997,
      "d": 285.8908937499946,
      "v": 127
    },
    {
      "midi": 58,
      "hit": false,
      "t": 130692.97999999997,
      "d": 2330.4439520833403,
      "v": 115
    },
    {
      "midi": 62,
      "hit": false,
      "t": 130692.97999999997,
      "d": 2330.4439520833403,
      "v": 119
    },
    {
      "midi": 65,
      "hit": false,
      "t": 130692.97999999997,
      "d": 2330.4439520833403,
      "v": 117
    },
    {
      "midi": 62,
      "hit": false,
      "t": 130692.9800000003,
      "d": 294.5542541666655,
      "v": 1
    },
    {
      "midi": 69,
      "hit": false,
      "t": 130692.9800000003,
      "d": 294.5542541666655,
      "v": 1
    },
    {
      "midi": 60,
      "hit": false,
      "t": 130990.0095000003,
      "d": 294.5542541666655,
      "v": 1
    },
    {
      "midi": 67,
      "hit": false,
      "t": 130990.0095000003,
      "d": 294.5542541666655,
      "v": 1
    },
    {
      "midi": 58,
      "hit": false,
      "t": 131287.0390000003,
      "d": 888.6132541666739,
      "v": 1
    },
    {
      "midi": 65,
      "hit": false,
      "t": 131287.0390000003,
      "d": 888.6132541666739,
      "v": 1
    },
    {
      "midi": 55,
      "hit": false,
      "t": 132178.12750000032,
      "d": 294.5542541666655,
      "v": 1
    },
    {
      "midi": 62,
      "hit": false,
      "t": 132178.12750000032,
      "d": 294.5542541666655,
      "v": 1
    },
    {
      "midi": 57,
      "hit": false,
      "t": 132475.15700000033,
      "d": 1488.86036875,
      "v": 1
    },
    {
      "midi": 66,
      "hit": false,
      "t": 132475.15700000033,
      "d": 1488.86036875,
      "v": 1
    },
    {
      "midi": 57,
      "hit": false,
      "t": 133069.216,
      "d": 2330.4439520833257,
      "v": 113
    },
    {
      "midi": 62,
      "hit": false,
      "t": 133069.216,
      "d": 2330.4439520833257,
      "v": 114
    },
    {
      "midi": 66,
      "hit": false,
      "t": 133069.216,
      "d": 2330.4439520833257,
      "v": 113
    },
    {
      "midi": 62,
      "hit": false,
      "t": 133966.49261458367,
      "d": 1482.6722541666531,
      "v": 1
    },
    {
      "midi": 69,
      "hit": false,
      "t": 133966.49261458367,
      "d": 1482.6722541666531,
      "v": 1
    },
    {
      "midi": 58,
      "hit": false,
      "t": 135445.452,
      "d": 2330.4439520833257,
      "v": 116
    },
    {
      "midi": 62,
      "hit": false,
      "t": 135445.452,
      "d": 2330.4439520833257,
      "v": 120
    },
    {
      "midi": 65,
      "hit": false,
      "t": 135445.452,
      "d": 2330.4439520833257,
      "v": 118
    },
    {
      "midi": 62,
      "hit": false,
      "t": 135451.64011458366,
      "d": 888.6132541666739,
      "v": 1
    },
    {
      "midi": 65,
      "hit": false,
      "t": 135451.64011458366,
      "d": 888.6132541666739,
      "v": 1
    },
    {
      "midi": 69,
      "hit": false,
      "t": 135451.64011458366,
      "d": 888.6132541666739,
      "v": 1
    },
    {
      "midi": 62,
      "hit": false,
      "t": 135491.24404791673,
      "d": 1641.087987499981,
      "v": 99
    },
    {
      "midi": 65,
      "hit": false,
      "t": 135742.48150000005,
      "d": 1408.4148791666667,
      "v": 103
    },
    {
      "midi": 70,
      "hit": false,
      "t": 136033.3228854167,
      "d": 978.9597270833328,
      "v": 104
    },
    {
      "midi": 74,
      "hit": false,
      "t": 136339.01574583337,
      "d": 728.9598979166767,
      "v": 103
    },
    {
      "midi": 60,
      "hit": false,
      "t": 136342.72861458367,
      "d": 888.6132541666739,
      "v": 1
    },
    {
      "midi": 64,
      "hit": false,
      "t": 136342.72861458367,
      "d": 888.6132541666739,
      "v": 1
    },
    {
      "midi": 74,
      "hit": false,
      "t": 137227.62900000004,
      "d": 573.0194104166585,
      "v": 92
    },
    {
      "midi": 77,
      "hit": false,
      "t": 137230.10424583338,
      "d": 574.2570333333279,
      "v": 114
    },
    {
      "midi": 62,
      "hit": false,
      "t": 137233.81711458368,
      "d": 2602.720993750001,
      "v": 1
    },
    {
      "midi": 65,
      "hit": false,
      "t": 137233.81711458368,
      "d": 2602.720993750001,
      "v": 1
    },
    {
      "midi": 58,
      "hit": false,
      "t": 137821.688,
      "d": 2330.4439520833257,
      "v": 115
    },
    {
      "midi": 62,
      "hit": false,
      "t": 137821.688,
      "d": 2330.4439520833257,
      "v": 115
    },
    {
      "midi": 65,
      "hit": false,
      "t": 137821.688,
      "d": 2330.4439520833257,
      "v": 117
    },
    {
      "midi": 82,
      "hit": false,
      "t": 137836.53947500006,
      "d": 2204.206414583343,
      "v": 106
    },
    {
      "midi": 74,
      "hit": false,
      "t": 137840.25234375006,
      "d": 2204.206414583343,
      "v": 89
    },
    {
      "midi": 64,
      "hit": false,
      "t": 139839.01335416702,
      "d": 362.6235145833343,
      "v": 1
    },
    {
      "midi": 67,
      "hit": false,
      "t": 139839.01335416702,
      "d": 362.6235145833343,
      "v": 1
    },
    {
      "midi": 57,
      "hit": false,
      "t": 140197.924,
      "d": 2330.4439520833257,
      "v": 117
    },
    {
      "midi": 62,
      "hit": false,
      "t": 140197.924,
      "d": 2330.4439520833257,
      "v": 114
    },
    {
      "midi": 64,
      "hit": false,
      "t": 140197.924,
      "d": 2330.4439520833257,
      "v": 120
    },
    {
      "midi": 64,
      "hit": false,
      "t": 140204.1121145837,
      "d": 2429.45378541667,
      "v": 1
    },
    {
      "midi": 69,
      "hit": false,
      "t": 140204.1121145837,
      "d": 2429.45378541667,
      "v": 1
    },
    {
      "midi": 81,
      "hit": false,
      "t": 140212.77547500006,
      "d": 2204.206414583343,
      "v": 108
    },
    {
      "midi": 76,
      "hit": false,
      "t": 140216.48834375007,
      "d": 2204.206414583343,
      "v": 88
    },
    {
      "midi": 61,
      "hit": false,
      "t": 142574.16,
      "d": 381.1878583333455,
      "v": 106
    },
    {
      "midi": 64,
      "hit": false,
      "t": 142574.16,
      "d": 381.1878583333455,
      "v": 110
    },
    {
      "midi": 69,
      "hit": false,
      "t": 142574.16,
      "d": 381.1878583333455,
      "v": 107
    },
    {
      "midi": 93,
      "hit": false,
      "t": 144950.39600000007,
      "d": 1142.325952083338,
      "v": 88
    },
    {
      "midi": 91,
      "hit": false,
      "t": 146138.51400000008,
      "d": 1142.325952083338,
      "v": 92
    },
    {
      "midi": 90,
      "hit": false,
      "t": 147326.6320000001,
      "d": 1736.3849520833464,
      "v": 90
    },
    {
      "midi": 62,
      "hit": false,
      "t": 148817.9676145837,
      "d": 591.5837541666697,
      "v": 1
    },
    {
      "midi": 66,
      "hit": false,
      "t": 148817.9676145837,
      "d": 591.5837541666697,
      "v": 1
    },
    {
      "midi": 61,
      "hit": false,
      "t": 149412.0266145837,
      "d": 292.0790083333268,
      "v": 1
    },
    {
      "midi": 64,
      "hit": false,
      "t": 149412.0266145837,
      "d": 292.0790083333268,
      "v": 1
    },
    {
      "midi": 93,
      "hit": false,
      "t": 149702.8680000001,
      "d": 1142.325952083338,
      "v": 90
    },
    {
      "midi": 57,
      "hit": false,
      "t": 149705.3432458337,
      "d": 889.8508770833432,
      "v": 1
    },
    {
      "midi": 61,
      "hit": false,
      "t": 149705.3432458337,
      "d": 889.8508770833432,
      "v": 1
    },
    {
      "midi": 59,
      "hit": false,
      "t": 150596.43174583372,
      "d": 295.79187708333484,
      "v": 1
    },
    {
      "midi": 62,
      "hit": false,
      "t": 150596.43174583372,
      "d": 295.79187708333484,
      "v": 1
    },
    {
      "midi": 91,
      "hit": false,
      "t": 150890.98600000012,
      "d": 1142.325952083338,
      "v": 92
    },
    {
      "midi": 57,
      "hit": false,
      "t": 150893.46124583372,
      "d": 1183.1675083333394,
      "v": 1
    },
    {
      "midi": 61,
      "hit": false,
      "t": 150893.46124583372,
      "d": 1183.1675083333394,
      "v": 1
    },
    {
      "midi": 90,
      "hit": false,
      "t": 152079.10400000014,
      "d": 1736.3849520833464,
      "v": 89
    },
    {
      "midi": 64,
      "hit": false,
      "t": 154442.96377083374,
      "d": 300.74236875001225,
      "v": 1
    },
    {
      "midi": 67,
      "hit": false,
      "t": 154442.96377083374,
      "d": 300.74236875001225,
      "v": 1
    },
    {
      "midi": 95,
      "hit": false,
      "t": 154455.34000000014,
      "d": 1142.325952083338,
      "v": 95
    },
    {
      "midi": 62,
      "hit": false,
      "t": 154746.1813854171,
      "d": 591.5837541666697,
      "v": 1
    },
    {
      "midi": 66,
      "hit": false,
      "t": 154746.1813854171,
      "d": 591.5837541666697,
      "v": 1
    },
    {
      "midi": 61,
      "hit": false,
      "t": 155340.2403854171,
      "d": 591.5837541666697,
      "v": 1
    },
    {
      "midi": 64,
      "hit": false,
      "t": 155340.2403854171,
      "d": 591.5837541666697,
      "v": 1
    },
    {
      "midi": 91,
      "hit": false,
      "t": 155643.45800000016,
      "d": 1142.325952083338,
      "v": 87
    },
    {
      "midi": 62,
      "hit": false,
      "t": 155934.2993854171,
      "d": 591.5837541666697,
      "v": 1
    },
    {
      "midi": 66,
      "hit": false,
      "t": 155934.2993854171,
      "d": 591.5837541666697,
      "v": 1
    },
    {
      "midi": 64,
      "hit": false,
      "t": 156528.35838541712,
      "d": 888.6132541666739,
      "v": 1
    },
    {
      "midi": 67,
      "hit": false,
      "t": 156528.35838541712,
      "d": 888.6132541666739,
      "v": 1
    },
    {
      "midi": 93,
      "hit": false,
      "t": 156831.57600000018,
      "d": 1142.325952083338,
      "v": 90
    },
    {
      "midi": 66,
      "hit": false,
      "t": 157419.44688541713,
      "d": 882.4251395833271,
      "v": 1
    },
    {
      "midi": 69,
      "hit": false,
      "t": 157419.44688541713,
      "d": 882.4251395833271,
      "v": 1
    },
    {
      "midi": 86,
      "hit": false,
      "t": 158019.6940000002,
      "d": 1142.325952083338,
      "v": 94
    },
    {
      "midi": 88,
      "hit": false,
      "t": 159207.8120000002,
      "d": 1736.3849520833464,
      "v": 92
    },
    {
      "midi": 93,
      "hit": false,
      "t": 159207.8120000002,
      "d": 1736.3849520833464,
      "v": 94
    },
    {
      "midi": 74,
      "hit": false,
      "t": 160989.98900000023,
      "d": 399.7522020833276,
      "v": 94
    },
    {
      "midi": 76,
      "hit": false,
      "t": 161287.01850000024,
      "d": 399.7522020833276,
      "v": 94
    },
    {
      "midi": 69,
      "hit": false,
      "t": 161571.67177083378,
      "d": 591.5837541666697,
      "v": 1
    },
    {
      "midi": 81,
      "hit": false,
      "t": 161584.04800000024,
      "d": 1142.325952083309,
      "v": 94
    },
    {
      "midi": 68,
      "hit": false,
      "t": 162165.7307708338,
      "d": 279.70277916666237,
      "v": 1
    },
    {
      "midi": 59,
      "hit": false,
      "t": 162180.5822458338,
      "d": 580.4451479166455,
      "v": 1
    },
    {
      "midi": 71,
      "hit": false,
      "t": 162468.9483854171,
      "d": 2045.790681249986,
      "v": 1
    },
    {
      "midi": 57,
      "hit": false,
      "t": 162774.64124583377,
      "d": 279.70277916666237,
      "v": 1
    },
    {
      "midi": 56,
      "hit": false,
      "t": 163075.38361458376,
      "d": 273.5146645833447,
      "v": 1
    },
    {
      "midi": 54,
      "hit": false,
      "t": 163366.22500000044,
      "d": 292.0790083333268,
      "v": 1
    },
    {
      "midi": 52,
      "hit": false,
      "t": 163669.44261458376,
      "d": 288.36613958334783,
      "v": 1
    },
    {
      "midi": 54,
      "hit": false,
      "t": 163968.9473604171,
      "d": 279.70277916666237,
      "v": 1
    },
    {
      "midi": 56,
      "hit": false,
      "t": 164259.78874583376,
      "d": 533.4154770833266,
      "v": 1
    },
    {
      "midi": 73,
      "hit": false,
      "t": 164853.84774583374,
      "d": 295.79187708333484,
      "v": 1
    },
    {
      "midi": 83,
      "hit": false,
      "t": 165144.68913125023,
      "d": 1836.632408333331,
      "v": 95
    },
    {
      "midi": 71,
      "hit": false,
      "t": 165150.87724583375,
      "d": 295.79187708333484,
      "v": 1
    },
    {
      "midi": 80,
      "hit": false,
      "t": 165435.53051666688,
      "d": 1585.3949562500347,
      "v": 86
    },
    {
      "midi": 68,
      "hit": false,
      "t": 165447.90674583375,
      "d": 295.79187708333484,
      "v": 1
    },
    {
      "midi": 78,
      "hit": false,
      "t": 165744.93624583355,
      "d": 1269.8011125000194,
      "v": 89
    },
    {
      "midi": 64,
      "hit": false,
      "t": 165744.93624583376,
      "d": 533.4154770833266,
      "v": 1
    },
    {
      "midi": 71,
      "hit": false,
      "t": 166082.80730208356,
      "d": 900.9894833333383,
      "v": 84
    },
    {
      "midi": 59,
      "hit": false,
      "t": 166933.05424583374,
      "d": 589.108508333331,
      "v": 1
    },
    {
      "midi": 57,
      "hit": false,
      "t": 167524.6380000004,
      "d": 300.74236875001225,
      "v": 1
    },
    {
      "midi": 56,
      "hit": false,
      "t": 167827.85561458376,
      "d": 298.26712291667354,
      "v": 1
    },
    {
      "midi": 54,
      "hit": false,
      "t": 168127.3603604171,
      "d": 298.26712291667354,
      "v": 1
    },
    {
      "midi": 52,
      "hit": false,
      "t": 168428.10272916712,
      "d": 304.4552374999912,
      "v": 1
    },
    {
      "midi": 63,
      "hit": false,
      "t": 168733.79558958378,
      "d": 712.8708000000042,
      "v": 1
    },
    {
      "midi": 80,
      "hit": false,
      "t": 169897.16113125026,
      "d": 1836.632408333331,
      "v": 95
    },
    {
      "midi": 78,
      "hit": false,
      "t": 170188.00251666692,
      "d": 1585.3949562500347,
      "v": 88
    },
    {
      "midi": 75,
      "hit": false,
      "t": 170497.4082458336,
      "d": 1269.8011125000194,
      "v": 93
    },
    {
      "midi": 71,
      "hit": false,
      "t": 170835.2793020836,
      "d": 900.9894833333383,
      "v": 85
    },
    {
      "midi": 64,
      "hit": false,
      "t": 171695.4272291671,
      "d": 579.2075250000053,
      "v": 1
    },
    {
      "midi": 63,
      "hit": false,
      "t": 172277.11000000045,
      "d": 300.74236875001225,
      "v": 1
    },
    {
      "midi": 61,
      "hit": false,
      "t": 172580.3276145838,
      "d": 294.5542541666655,
      "v": 1
    },
    {
      "midi": 59,
      "hit": false,
      "t": 172877.3571145838,
      "d": 294.5542541666655,
      "v": 1
    },
    {
      "midi": 56,
      "hit": false,
      "t": 173174.3866145838,
      "d": 589.108508333331,
      "v": 1
    },
    {
      "midi": 57,
      "hit": false,
      "t": 173764.7327458338,
      "d": 592.821377083339,
      "v": 1
    },
    {
      "midi": 61,
      "hit": false,
      "t": 174358.79174583382,
      "d": 592.821377083339,
      "v": 1
    },
    {
      "midi": 64,
      "hit": false,
      "t": 174358.79174583382,
      "d": 592.821377083339,
      "v": 1
    },
    {
      "midi": 64,
      "hit": false,
      "t": 174952.85074583383,
      "d": 889.8508770833432,
      "v": 1
    },
    {
      "midi": 69,
      "hit": false,
      "t": 174952.85074583383,
      "d": 889.8508770833432,
      "v": 1
    },
    {
      "midi": 68,
      "hit": false,
      "t": 175843.93924583384,
      "d": 908.4152208333253,
      "v": 1
    },
    {
      "midi": 71,
      "hit": false,
      "t": 175843.93924583384,
      "d": 908.4152208333253,
      "v": 1
    },
    {
      "midi": 59,
      "hit": false,
      "t": 176753.59208958384,
      "d": 273.5146645833447,
      "v": 1
    },
    {
      "midi": 83,
      "hit": false,
      "t": 177025.86913125028,
      "d": 1836.632408333331,
      "v": 91
    },
    {
      "midi": 57,
      "hit": false,
      "t": 177029.58200000052,
      "d": 313.11859791667666,
      "v": 1
    },
    {
      "midi": 81,
      "hit": false,
      "t": 177316.71051666694,
      "d": 1585.3949562500347,
      "v": 91
    },
    {
      "midi": 56,
      "hit": false,
      "t": 177345.17584375053,
      "d": 273.5146645833447,
      "v": 1
    },
    {
      "midi": 54,
      "hit": false,
      "t": 177619.92813125055,
      "d": 298.26712291667354,
      "v": 1
    },
    {
      "midi": 80,
      "hit": false,
      "t": 177626.1162458336,
      "d": 1269.8011125000194,
      "v": 89
    },
    {
      "midi": 52,
      "hit": false,
      "t": 177920.67050000056,
      "d": 566.8312958333408,
      "v": 1
    },
    {
      "midi": 71,
      "hit": false,
      "t": 177963.9873020836,
      "d": 900.9894833333383,
      "v": 81
    },
    {
      "midi": 54,
      "hit": false,
      "t": 178489.97704166724,
      "d": 857.6726812499983,
      "v": 1
    },
    {
      "midi": 59,
      "hit": false,
      "t": 181190.47024583392,
      "d": 592.821377083339,
      "v": 1
    },
    {
      "midi": 57,
      "hit": false,
      "t": 181784.52924583392,
      "d": 298.26712291667354,
      "v": 1
    },
    {
      "midi": 56,
      "hit": false,
      "t": 182085.27161458394,
      "d": 288.36613958334783,
      "v": 1
    },
    {
      "midi": 54,
      "hit": false,
      "t": 182376.11300000062,
      "d": 300.74236875001225,
      "v": 1
    },
    {
      "midi": 80,
      "hit": false,
      "t": 182666.95438541696,
      "d": 892.3261229166819,
      "v": 87
    },
    {
      "midi": 52,
      "hit": false,
      "t": 182679.33061458397,
      "d": 298.26712291667354,
      "v": 1
    },
    {
      "midi": 76,
      "hit": false,
      "t": 182796.90479166695,
      "d": 2142.32526875005,
      "v": 89
    },
    {
      "midi": 71,
      "hit": false,
      "t": 182840.2215937503,
      "d": 2101.4837125000486,
      "v": 89
    },
    {
      "midi": 68,
      "hit": false,
      "t": 182923.14232916696,
      "d": 2022.2758458333847,
      "v": 80
    },
    {
      "midi": 54,
      "hit": false,
      "t": 182978.83536041732,
      "d": 289.6037624999881,
      "v": 1
    },
    {
      "midi": 83,
      "hit": false,
      "t": 183267.2015000003,
      "d": 285.8908937500091,
      "v": 79
    },
    {
      "midi": 56,
      "hit": false,
      "t": 183269.67674583397,
      "d": 1189.355622916657,
      "v": 1
    },
    {
      "midi": 80,
      "hit": false,
      "t": 183564.23100000032,
      "d": 285.8908937500091,
      "v": 81
    },
    {
      "midi": 88,
      "hit": false,
      "t": 183861.26050000032,
      "d": 2513.6121437500115,
      "v": 90
    },
    {
      "midi": 64,
      "hit": false,
      "t": 184461.50761458397,
      "d": 298.26712291667354,
      "v": 1
    },
    {
      "midi": 66,
      "hit": false,
      "t": 184761.0123604173,
      "d": 289.6037624999881,
      "v": 1
    },
    {
      "midi": 68,
      "hit": false,
      "t": 185051.85374583397,
      "d": 592.821377083339,
      "v": 1
    },
    {
      "midi": 64,
      "hit": false,
      "t": 185645.91274583398,
      "d": 1007.4250541666697,
      "v": 1
    },
    {
      "midi": 59,
      "hit": false,
      "t": 185942.94224583398,
      "d": 561.8808041666634,
      "v": 1
    },
    {
      "midi": 57,
      "hit": false,
      "t": 186534.52600000065,
      "d": 300.74236874998314,
      "v": 1
    },
    {
      "midi": 56,
      "hit": false,
      "t": 186837.74361458397,
      "d": 298.26712291667354,
      "v": 1
    },
    {
      "midi": 54,
      "hit": false,
      "t": 187137.24836041732,
      "d": 298.26712291667354,
      "v": 1
    },
    {
      "midi": 80,
      "hit": false,
      "t": 187419.426385417,
      "d": 2280.939035416697,
      "v": 87
    },
    {
      "midi": 52,
      "hit": false,
      "t": 187437.99072916733,
      "d": 304.4552374999912,
      "v": 1
    },
    {
      "midi": 75,
      "hit": false,
      "t": 187549.376791667,
      "d": 2142.3252687500208,
      "v": 95
    },
    {
      "midi": 71,
      "hit": false,
      "t": 187592.69359375033,
      "d": 2101.4837125000195,
      "v": 92
    },
    {
      "midi": 68,
      "hit": false,
      "t": 187675.614329167,
      "d": 2022.2758458333556,
      "v": 80
    },
    {
      "midi": 63,
      "hit": false,
      "t": 187743.683589584,
      "d": 871.286533333332,
      "v": 1
    },
    {
      "midi": 61,
      "hit": false,
      "t": 188616.207745834,
      "d": 314.356220833346,
      "v": 1
    },
    {
      "midi": 59,
      "hit": false,
      "t": 188931.801589584,
      "d": 1771.038393750001,
      "v": 1
    },
    {
      "midi": 64,
      "hit": false,
      "t": 190705.31522916735,
      "d": 579.2075250000053,
      "v": 1
    },
    {
      "midi": 68,
      "hit": false,
      "t": 190705.31522916735,
      "d": 579.2075250000053,
      "v": 1
    },
    {
      "midi": 63,
      "hit": false,
      "t": 191286.9980000007,
      "d": 300.74236875001225,
      "v": 1
    },
    {
      "midi": 66,
      "hit": false,
      "t": 191286.9980000007,
      "d": 300.74236875001225,
      "v": 1
    },
    {
      "midi": 61,
      "hit": false,
      "t": 191590.21561458404,
      "d": 294.5542541666655,
      "v": 1
    },
    {
      "midi": 64,
      "hit": false,
      "t": 191590.21561458404,
      "d": 294.5542541666655,
      "v": 1
    },
    {
      "midi": 59,
      "hit": false,
      "t": 191887.24511458405,
      "d": 294.5542541666655,
      "v": 1
    },
    {
      "midi": 63,
      "hit": false,
      "t": 191887.24511458405,
      "d": 294.5542541666655,
      "v": 1
    },
    {
      "midi": 56,
      "hit": false,
      "t": 192184.27461458405,
      "d": 589.108508333331,
      "v": 1
    },
    {
      "midi": 59,
      "hit": false,
      "t": 192184.27461458405,
      "d": 589.108508333331,
      "v": 1
    },
    {
      "midi": 85,
      "hit": false,
      "t": 192772.14550000036,
      "d": 285.8908937500091,
      "v": 87
    },
    {
      "midi": 57,
      "hit": false,
      "t": 192774.62074583405,
      "d": 295.79187708333484,
      "v": 1
    },
    {
      "midi": 61,
      "hit": false,
      "t": 192774.62074583405,
      "d": 295.79187708333484,
      "v": 1
    },
    {
      "midi": 81,
      "hit": false,
      "t": 193069.17500000037,
      "d": 285.8908937500091,
      "v": 79
    },
    {
      "midi": 68,
      "hit": false,
      "t": 193071.65024583405,
      "d": 889.8508770833432,
      "v": 1
    },
    {
      "midi": 71,
      "hit": false,
      "t": 193071.65024583405,
      "d": 889.8508770833432,
      "v": 1
    },
    {
      "midi": 88,
      "hit": false,
      "t": 193366.20450000037,
      "d": 1474.0088937499968,
      "v": 92
    },
    {
      "midi": 69,
      "hit": false,
      "t": 193962.73874583407,
      "d": 592.821377083339,
      "v": 1
    },
    {
      "midi": 73,
      "hit": false,
      "t": 193962.73874583407,
      "d": 592.821377083339,
      "v": 1
    },
    {
      "midi": 68,
      "hit": false,
      "t": 194556.79774583408,
      "d": 295.79187708333484,
      "v": 1
    },
    {
      "midi": 71,
      "hit": false,
      "t": 194556.79774583408,
      "d": 295.79187708333484,
      "v": 1
    },
    {
      "midi": 68,
      "hit": false,
      "t": 194853.82724583408,
      "d": 592.821377083339,
      "v": 1
    },
    {
      "midi": 73,
      "hit": false,
      "t": 194853.82724583408,
      "d": 592.821377083339,
      "v": 1
    },
    {
      "midi": 66,
      "hit": false,
      "t": 195447.8862458341,
      "d": 1768.5631479166623,
      "v": 1
    },
    {
      "midi": 71,
      "hit": false,
      "t": 195447.8862458341,
      "d": 1768.5631479166623,
      "v": 1
    },
    {
      "midi": 63,
      "hit": false,
      "t": 195763.48008958407,
      "d": 1164.6031645833282,
      "v": 1
    },
    {
      "midi": 64,
      "hit": false,
      "t": 196930.55850000074,
      "d": 2373.7607541666657,
      "v": 1
    },
    {
      "midi": 68,
      "hit": false,
      "t": 197230.06324583408,
      "d": 2074.256008333323,
      "v": 1
    },
    {
      "midi": 71,
      "hit": false,
      "t": 197230.06324583408,
      "d": 2074.256008333323,
      "v": 1
    },
    {
      "midi": 64,
      "hit": false,
      "t": 197273.38004791705,
      "d": 1641.087987499981,
      "v": 100
    },
    {
      "midi": 68,
      "hit": false,
      "t": 197524.61750000037,
      "d": 1408.4148791666667,
      "v": 110
    },
    {
      "midi": 71,
      "hit": false,
      "t": 197815.45888541703,
      "d": 978.9597270833328,
      "v": 101
    },
    {
      "midi": 76,
      "hit": false,
      "t": 198121.1517458337,
      "d": 728.9598979166767,
      "v": 105
    },
    {
      "midi": 76,
      "hit": false,
      "t": 199009.76500000036,
      "d": 573.0194104166585,
      "v": 99
    },
    {
      "midi": 81,
      "hit": false,
      "t": 199012.2402458337,
      "d": 574.2570333333279,
      "v": 116
    },
    {
      "midi": 71,
      "hit": false,
      "t": 199306.79450000075,
      "d": 867.573664583324,
      "v": 1
    },
    {
      "midi": 81,
      "hit": false,
      "t": 199618.67547500037,
      "d": 1164.6031645833282,
      "v": 114
    },
    {
      "midi": 76,
      "hit": false,
      "t": 199622.38834375038,
      "d": 1164.6031645833282,
      "v": 96
    },
    {
      "midi": 69,
      "hit": false,
      "t": 200197.88300000073,
      "d": 876.2370250000095,
      "v": 1
    },
    {
      "midi": 59,
      "hit": false,
      "t": 200200.35824583407,
      "d": 580.4451479166746,
      "v": 1
    },
    {
      "midi": 57,
      "hit": false,
      "t": 200794.41724583408,
      "d": 292.0790083333268,
      "v": 1
    },
    {
      "midi": 83,
      "hit": false,
      "t": 200806.7934750004,
      "d": 1164.6031645833282,
      "v": 109
    },
    {
      "midi": 78,
      "hit": false,
      "t": 200810.5063437504,
      "d": 1164.6031645833282,
      "v": 93
    },
    {
      "midi": 68,
      "hit": false,
      "t": 201088.97150000074,
      "d": 535.8907229166944,
      "v": 1
    },
    {
      "midi": 56,
      "hit": false,
      "t": 201095.1596145841,
      "d": 273.5146645833447,
      "v": 1
    },
    {
      "midi": 54,
      "hit": false,
      "t": 201386.00100000078,
      "d": 300.74236874998314,
      "v": 1
    },
    {
      "midi": 52,
      "hit": false,
      "t": 201689.2186145841,
      "d": 298.26712291667354,
      "v": 1
    },
    {
      "midi": 54,
      "hit": false,
      "t": 201988.72336041744,
      "d": 289.6037624999881,
      "v": 1
    },
    {
      "midi": 83,
      "hit": false,
      "t": 202277.08950000038,
      "d": 285.8908937500091,
      "v": 83
    },
    {
      "midi": 56,
      "hit": false,
      "t": 202279.5647458341,
      "d": 533.4154770833266,
      "v": 1
    },
    {
      "midi": 80,
      "hit": false,
      "t": 202574.11900000038,
      "d": 285.8908937500091,
      "v": 78
    },
    {
      "midi": 88,
      "hit": false,
      "t": 202871.1485000004,
      "d": 2513.6121437500115,
      "v": 87
    },
    {
      "midi": 59,
      "hit": false,
      "t": 204952.83024583408,
      "d": 589.108508333331,
      "v": 1
    },
    {
      "midi": 57,
      "hit": false,
      "t": 205544.41400000075,
      "d": 300.74236875001225,
      "v": 1
    },
    {
      "midi": 56,
      "hit": false,
      "t": 205847.6316145841,
      "d": 298.26712291667354,
      "v": 1
    },
    {
      "midi": 54,
      "hit": false,
      "t": 206147.13636041744,
      "d": 298.26712291667354,
      "v": 1
    },
    {
      "midi": 80,
      "hit": false,
      "t": 206429.31438541706,
      "d": 2280.939035416697,
      "v": 86
    },
    {
      "midi": 52,
      "hit": false,
      "t": 206447.87872916745,
      "d": 304.4552374999912,
      "v": 1
    },
    {
      "midi": 75,
      "hit": false,
      "t": 206559.26479166705,
      "d": 2142.3252687500208,
      "v": 93
    },
    {
      "midi": 71,
      "hit": false,
      "t": 206602.5815937504,
      "d": 2101.4837125000195,
      "v": 96
    },
    {
      "midi": 68,
      "hit": false,
      "t": 206685.50232916707,
      "d": 2022.2758458333556,
      "v": 77
    },
    {
      "midi": 63,
      "hit": false,
      "t": 206753.5715895841,
      "d": 1455.4445499999856,
      "v": 1
    },
    {
      "midi": 64,
      "hit": false,
      "t": 209715.20322916744,
      "d": 579.2075250000053,
      "v": 1
    },
    {
      "midi": 68,
      "hit": false,
      "t": 209715.20322916744,
      "d": 579.2075250000053,
      "v": 1
    },
    {
      "midi": 63,
      "hit": false,
      "t": 210296.88600000078,
      "d": 300.74236875001225,
      "v": 1
    },
    {
      "midi": 66,
      "hit": false,
      "t": 210296.88600000078,
      "d": 300.74236875001225,
      "v": 1
    },
    {
      "midi": 61,
      "hit": false,
      "t": 210600.10361458414,
      "d": 294.5542541666655,
      "v": 1
    },
    {
      "midi": 64,
      "hit": false,
      "t": 210600.10361458414,
      "d": 294.5542541666655,
      "v": 1
    },
    {
      "midi": 59,
      "hit": false,
      "t": 210897.13311458414,
      "d": 294.5542541666655,
      "v": 1
    },
    {
      "midi": 63,
      "hit": false,
      "t": 210897.13311458414,
      "d": 294.5542541666655,
      "v": 1
    },
    {
      "midi": 56,
      "hit": false,
      "t": 211194.16261458414,
      "d": 589.108508333331,
      "v": 1
    },
    {
      "midi": 59,
      "hit": false,
      "t": 211194.16261458414,
      "d": 589.108508333331,
      "v": 1
    },
    {
      "midi": 85,
      "hit": false,
      "t": 211782.03350000043,
      "d": 285.8908937500091,
      "v": 83
    },
    {
      "midi": 57,
      "hit": false,
      "t": 211784.50874583414,
      "d": 295.79187708333484,
      "v": 1
    },
    {
      "midi": 61,
      "hit": false,
      "t": 211784.50874583414,
      "d": 295.79187708333484,
      "v": 1
    },
    {
      "midi": 81,
      "hit": false,
      "t": 212079.06300000043,
      "d": 285.8908937500091,
      "v": 78
    },
    {
      "midi": 68,
      "hit": false,
      "t": 212081.53824583415,
      "d": 889.8508770833432,
      "v": 1
    },
    {
      "midi": 71,
      "hit": false,
      "t": 212081.53824583415,
      "d": 889.8508770833432,
      "v": 1
    },
    {
      "midi": 88,
      "hit": false,
      "t": 212376.09250000044,
      "d": 1474.0088937499968,
      "v": 89
    },
    {
      "midi": 69,
      "hit": false,
      "t": 212972.62674583416,
      "d": 592.821377083339,
      "v": 1
    },
    {
      "midi": 73,
      "hit": false,
      "t": 212972.62674583416,
      "d": 592.821377083339,
      "v": 1
    },
    {
      "midi": 68,
      "hit": false,
      "t": 213566.68574583417,
      "d": 295.79187708333484,
      "v": 1
    },
    {
      "midi": 71,
      "hit": false,
      "t": 213566.68574583417,
      "d": 295.79187708333484,
      "v": 1
    },
    {
      "midi": 68,
      "hit": false,
      "t": 213863.71524583417,
      "d": 592.821377083339,
      "v": 1
    },
    {
      "midi": 73,
      "hit": false,
      "t": 213863.71524583417,
      "d": 592.821377083339,
      "v": 1
    },
    {
      "midi": 66,
      "hit": false,
      "t": 214457.77424583418,
      "d": 1768.5631479166623,
      "v": 1
    },
    {
      "midi": 71,
      "hit": false,
      "t": 214457.77424583418,
      "d": 1768.5631479166623,
      "v": 1
    },
    {
      "midi": 63,
      "hit": false,
      "t": 214773.36808958417,
      "d": 1164.6031645833282,
      "v": 1
    },
    {
      "midi": 64,
      "hit": false,
      "t": 215940.44650000083,
      "d": 566.8312958333408,
      "v": 1
    },
    {
      "midi": 76,
      "hit": false,
      "t": 216246.13936041668,
      "d": 400.98982500002603,
      "v": 107
    },
    {
      "midi": 68,
      "hit": false,
      "t": 216246.13936041668,
      "d": 1047.0289875000599,
      "v": 107
    },
    {
      "midi": 71,
      "hit": false,
      "t": 216246.13936041668,
      "d": 1047.0289875000599,
      "v": 106
    },
    {
      "midi": 52,
      "hit": false,
      "t": 216246.13936041668,
      "d": 1733.9097062500368,
      "v": 109
    },
    {
      "midi": 64,
      "hit": false,
      "t": 216509.7530416675,
      "d": 2101.4837124999904,
      "v": 1
    },
    {
      "midi": 75,
      "hit": false,
      "t": 216645.89156250004,
      "d": 384.90072708335356,
      "v": 114
    },
    {
      "midi": 73,
      "hit": false,
      "t": 216988.71311041672,
      "d": 353.96015416667797,
      "v": 104
    },
    {
      "midi": 64,
      "hit": false,
      "t": 217351.33662500005,
      "d": 316.8314666666556,
      "v": 103
    },
    {
      "midi": 68,
      "hit": false,
      "t": 217351.33662500005,
      "d": 591.5837541666697,
      "v": 103
    },
    {
      "midi": 71,
      "hit": false,
      "t": 217351.33662500005,
      "d": 591.5837541666697,
      "v": 121
    },
    {
      "midi": 64,
      "hit": false,
      "t": 217687.9700583334,
      "d": 264.85130416665925,
      "v": 88
    },
    {
      "midi": 64,
      "hit": false,
      "t": 218032.0292291667,
      "d": 331.68294166668784,
      "v": 107
    },
    {
      "midi": 59,
      "hit": false,
      "t": 218032.0292291667,
      "d": 725.2470291666687,
      "v": 81
    },
    {
      "midi": 69,
      "hit": false,
      "t": 218032.0292291667,
      "d": 746.2866187500185,
      "v": 124
    },
    {
      "midi": 52,
      "hit": false,
      "t": 218038.21734375006,
      "d": 719.0589145833219,
      "v": 99
    },
    {
      "midi": 64,
      "hit": false,
      "t": 218384.75176041672,
      "d": 1544.5534000000334,
      "v": 85
    },
    {
      "midi": 52,
      "hit": false,
      "t": 218768.4148645834,
      "d": 397.27695624998887,
      "v": 108
    },
    {
      "midi": 61,
      "hit": false,
      "t": 218768.4148645834,
      "d": 397.27695624998887,
      "v": 113
    },
    {
      "midi": 59,
      "hit": false,
      "t": 218768.4148645834,
      "d": 805.6925187500019,
      "v": 112
    },
    {
      "midi": 45,
      "hit": false,
      "t": 218768.4148645834,
      "d": 1624.9988895833376,
      "v": 108
    },
    {
      "midi": 69,
      "hit": false,
      "t": 218789.45445416673,
      "d": 1740.0978208333545,
      "v": 122
    },
    {
      "midi": 61,
      "hit": false,
      "t": 219176.8304270834,
      "d": 1216.5833270833537,
      "v": 97
    },
    {
      "midi": 59,
      "hit": false,
      "t": 219587.72123541674,
      "d": 391.0888416666712,
      "v": 92
    },
    {
      "midi": 57,
      "hit": false,
      "t": 219996.13679791676,
      "d": 512.3758874999767,
      "v": 81
    },
    {
      "midi": 47,
      "hit": false,
      "t": 220513.4631770834,
      "d": 1251.2367687500082,
      "v": 98
    },
    {
      "midi": 63,
      "hit": false,
      "t": 220544.40375000008,
      "d": 1733.9097062500077,
      "v": 110
    },
    {
      "midi": 71,
      "hit": false,
      "t": 220544.40375000008,
      "d": 1733.9097062500077,
      "v": 122
    },
    {
      "midi": 59,
      "hit": false,
      "t": 220544.40375000008,
      "d": 2179.453956250014,
      "v": 107
    },
    {
      "midi": 54,
      "hit": false,
      "t": 220544.40375000008,
      "d": 2556.9289458333515,
      "v": 111
    },
    {
      "midi": 35,
      "hit": false,
      "t": 221642.1752770834,
      "d": 1152.2269354166929,
      "v": 94
    },
    {
      "midi": 76,
      "hit": false,
      "t": 222551.82812083376,
      "d": 2282.1766583333083,
      "v": 71
    },
    {
      "midi": 71,
      "hit": false,
      "t": 222669.40229791708,
      "d": 2142.3252687499917,
      "v": 78
    },
    {
      "midi": 68,
      "hit": false,
      "t": 222737.47155833375,
      "d": 2102.7213354166597,
      "v": 78
    },
    {
      "midi": 40,
      "hit": false,
      "t": 222846.3823750001,
      "d": 4264.848570833332,
      "v": 104
    },
    {
      "midi": 52,
      "hit": false,
      "t": 222846.3823750001,
      "d": 4264.848570833332,
      "v": 100
    },
    {
      "midi": 64,
      "hit": false,
      "t": 222846.38237500042,
      "d": 2021.038222916657,
      "v": 66
    },
    {
      "midi": 68,
      "hit": false,
      "t": 222852.57048958345,
      "d": 4271.03668541665,
      "v": 118
    },
    {
      "midi": 59,
      "hit": false,
      "t": 222861.2338500001,
      "d": 366.3363833333424,
      "v": 100
    },
    {
      "midi": 64,
      "hit": false,
      "t": 222861.2338500001,
      "d": 4264.848570833332,
      "v": 102
    }
  ]
}