{
  "jsonPath": "Unknown/Unknown/Stewart Francke/every-one-hurts-and-the-last-one-kills.json",
  "path": "Unknown\\Unknown\\Stewart Francke\\Every One Hurts and the Last One Kills.mid",
  "name": "Every One Hurts and the Last One Kills",
  "difficulty": "Advanced",
  "bpm": 92.00012880018032,
  "notes": [
    {
      "midi": 49,
      "hit": false,
      "t": 23478.228000000003,
      "d": 326.08650000000125,
      "v": 80
    },
    {
      "midi": 53,
      "hit": false,
      "t": 23478.228000000003,
      "d": 652.1730000000025,
      "v": 80
    },
    {
      "midi": 56,
      "hit": false,
      "t": 23478.228000000003,
      "d": 652.1730000000025,
      "v": 80
    },
    {
      "midi": 37,
      "hit": false,
      "t": 23804.314500000004,
      "d": 326.08650000000125,
      "v": 80
    },
    {
      "midi": 49,
      "hit": false,
      "t": 24130.401000000005,
      "d": 326.08650000000125,
      "v": 80
    },
    {
      "midi": 53,
      "hit": false,
      "t": 24130.401000000005,
      "d": 652.1730000000025,
      "v": 80
    },
    {
      "midi": 56,
      "hit": false,
      "t": 24130.401000000005,
      "d": 652.1730000000025,
      "v": 80
    },
    {
      "midi": 37,
      "hit": false,
      "t": 24456.487500000007,
      "d": 326.08650000000125,
      "v": 80
    },
    {
      "midi": 49,
      "hit": false,
      "t": 24782.574000000008,
      "d": 326.08650000000125,
      "v": 80
    },
    {
      "midi": 53,
      "hit": false,
      "t": 24782.574000000008,
      "d": 652.1730000000025,
      "v": 80
    },
    {
      "midi": 56,
      "hit": false,
      "t": 24782.574000000008,
      "d": 652.1730000000025,
      "v": 80
    },
    {
      "midi": 37,
      "hit": false,
      "t": 25108.66050000001,
      "d": 326.08650000000125,
      "v": 80
    },
    {
      "midi": 49,
      "hit": false,
      "t": 25434.74700000001,
      "d": 326.08650000000125,
      "v": 80
    },
    {
      "midi": 53,
      "hit": false,
      "t": 25434.74700000001,
      "d": 652.1730000000025,
      "v": 80
    },
    {
      "midi": 56,
      "hit": false,
      "t": 25434.74700000001,
      "d": 652.1730000000025,
      "v": 80
    },
    {
      "midi": 37,
      "hit": false,
      "t": 25760.83350000001,
      "d": 326.08650000000125,
      "v": 80
    },
    {
      "midi": 47,
      "hit": false,
      "t": 26086.920000000013,
      "d": 326.08650000000125,
      "v": 80
    },
    {
      "midi": 51,
      "hit": false,
      "t": 26086.920000000013,
      "d": 652.1730000000025,
      "v": 80
    },
    {
      "midi": 54,
      "hit": false,
      "t": 26086.920000000013,
      "d": 652.1730000000025,
      "v": 80
    },
    {
      "midi": 56,
      "hit": false,
      "t": 26086.920000000013,
      "d": 652.1730000000025,
      "v": 80
    },
    {
      "midi": 35,
      "hit": false,
      "t": 26413.006500000014,
      "d": 326.08650000000125,
      "v": 80
    },
    {
      "midi": 47,
      "hit": false,
      "t": 26739.093000000015,
      "d": 326.08650000000125,
      "v": 80
    },
    {
      "midi": 51,
      "hit": false,
      "t": 26739.093000000015,
      "d": 652.1730000000025,
      "v": 80
    },
    {
      "midi": 54,
      "hit": false,
      "t": 26739.093000000015,
      "d": 652.1730000000025,
      "v": 80
    },
    {
      "midi": 56,
      "hit": false,
      "t": 26739.093000000015,
      "d": 652.1730000000025,
      "v": 80
    },
    {
      "midi": 35,
      "hit": false,
      "t": 27065.179500000017,
      "d": 326.08650000000125,
      "v": 80
    },
    {
      "midi": 47,
      "hit": false,
      "t": 27391.266000000018,
      "d": 326.08650000000125,
      "v": 80
    },
    {
      "midi": 51,
      "hit": false,
      "t": 27391.266000000018,
      "d": 652.1730000000025,
      "v": 80
    },
    {
      "midi": 54,
      "hit": false,
      "t": 27391.266000000018,
      "d": 652.1730000000025,
      "v": 80
    },
    {
      "midi": 56,
      "hit": false,
      "t": 27391.266000000018,
      "d": 652.1730000000025,
      "v": 80
    },
    {
      "midi": 35,
      "hit": false,
      "t": 27717.35250000002,
      "d": 326.08650000000125,
      "v": 80
    },
    {
      "midi": 47,
      "hit": false,
      "t": 28043.43900000002,
      "d": 326.08650000000125,
      "v": 80
    },
    {
      "midi": 51,
      "hit": false,
      "t": 28043.43900000002,
      "d": 652.1730000000025,
      "v": 80
    },
    {
      "midi": 54,
      "hit": false,
      "t": 28043.43900000002,
      "d": 652.1730000000025,
      "v": 80
    },
    {
      "midi": 56,
      "hit": false,
      "t": 28043.43900000002,
      "d": 652.1730000000025,
      "v": 80
    },
    {
      "midi": 35,
      "hit": false,
      "t": 28369.52550000002,
      "d": 326.08650000000125,
      "v": 80
    },
    {
      "midi": 34,
      "hit": false,
      "t": 28695.612000000023,
      "d": 2608.691999999999,
      "v": 80
    },
    {
      "midi": 46,
      "hit": false,
      "t": 28695.612000000023,
      "d": 2608.691999999999,
      "v": 80
    },
    {
      "midi": 50,
      "hit": false,
      "t": 28695.612000000023,
      "d": 2608.691999999999,
      "v": 80
    },
    {
      "midi": 53,
      "hit": false,
      "t": 28695.612000000023,
      "d": 2608.691999999999,
      "v": 80
    },
    {
      "midi": 56,
      "hit": false,
      "t": 28695.612000000023,
      "d": 2608.691999999999,
      "v": 80
    },
    {
      "midi": 61,
      "hit": false,
      "t": 195651.90000000005,
      "d": 2608.69200000001,
      "v": 80
    },
    {
      "midi": 65,
      "hit": false,
      "t": 195651.90000000005,
      "d": 2608.69200000001,
      "v": 80
    },
    {
      "midi": 68,
      "hit": false,
      "t": 195651.90000000005,
      "d": 2608.69200000001,
      "v": 80
    },
    {
      "midi": 73,
      "hit": false,
      "t": 195651.90000000005,
      "d": 2608.69200000001,
      "v": 80
    },
    {
      "midi": 49,
      "hit": false,
      "t": 195651.90000000005,
      "d": 5217.38400000002,
      "v": 80
    },
    {
      "midi": 63,
      "hit": false,
      "t": 198260.59200000006,
      "d": 2608.69200000001,
      "v": 80
    },
    {
      "midi": 67,
      "hit": false,
      "t": 198260.59200000006,
      "d": 2608.69200000001,
      "v": 80
    },
    {
      "midi": 70,
      "hit": false,
      "t": 198260.59200000006,
      "d": 2608.69200000001,
      "v": 80
    },
    {
      "midi": 75,
      "hit": false,
      "t": 198260.59200000006,
      "d": 2608.69200000001,
      "v": 80
    },
    {
      "midi": 48,
      "hit": false,
      "t": 200869.28400000007,
      "d": 2608.69200000001,
      "v": 80
    },
    {
      "midi": 63,
      "hit": false,
      "t": 200869.28400000007,
      "d": 2608.69200000001,
      "v": 80
    },
    {
      "midi": 68,
      "hit": false,
      "t": 200869.28400000007,
      "d": 2608.69200000001,
      "v": 80
    },
    {
      "midi": 72,
      "hit": false,
      "t": 200869.28400000007,
      "d": 2608.69200000001,
      "v": 80
    },
    {
      "midi": 75,
      "hit": false,
      "t": 200869.28400000007,
      "d": 2608.69200000001,
      "v": 80
    },
    {
      "midi": 42,
      "hit": false,
      "t": 203477.97600000008,
      "d": 2608.69200000001,
      "v": 80
    },
    {
      "midi": 54,
      "hit": false,
      "t": 203477.97600000008,
      "d": 2608.69200000001,
      "v": 80
    },
    {
      "midi": 61,
      "hit": false,
      "t": 203477.97600000008,
      "d": 2608.69200000001,
      "v": 80
    },
    {
      "midi": 70,
      "hit": false,
      "t": 203477.97600000008,
      "d": 2608.69200000001,
      "v": 80
    },
    {
      "midi": 73,
      "hit": false,
      "t": 203477.97600000008,
      "d": 2608.69200000001,
      "v": 80
    },
    {
      "midi": 78,
      "hit": false,
      "t": 203477.97600000008,
      "d": 2608.69200000001,
      "v": 80
    },
    {
      "midi": 49,
      "hit": false,
      "t": 206086.6680000001,
      "d": 1300.9492656250077,
      "v": 80
    },
    {
      "midi": 61,
      "hit": false,
      "t": 206086.6680000001,
      "d": 5217.384000000049,
      "v": 80
    },
    {
      "midi": 65,
      "hit": false,
      "t": 206086.6680000001,
      "d": 5217.384000000049,
      "v": 80
    },
    {
      "midi": 68,
      "hit": false,
      "t": 206086.6680000001,
      "d": 5217.384000000049,
      "v": 80
    },
    {
      "midi": 73,
      "hit": false,
      "t": 206086.6680000001,
      "d": 5217.384000000049,
      "v": 80
    },
    {
      "midi": 80,
      "hit": false,
      "t": 206086.6680000001,
      "d": 5217.384000000049,
      "v": 80
    },
    {
      "midi": 46,
      "hit": false,
      "t": 207391.0140000001,
      "d": 1300.9492656250077,
      "v": 80
    },
    {
      "midi": 51,
      "hit": false,
      "t": 208695.36000000013,
      "d": 2608.69200000001,
      "v": 80
    },
    {
      "midi": 58,
      "hit": false,
      "t": 208695.36000000013,
      "d": 2608.69200000001,
      "v": 80
    },
    {
      "midi": 52,
      "hit": false,
      "t": 211304.05200000014,
      "d": 1300.9492656250077,
      "v": 80
    },
    {
      "midi": 67,
      "hit": false,
      "t": 211304.05200000014,
      "d": 1300.9492656250077,
      "v": 80
    },
    {
      "midi": 70,
      "hit": false,
      "t": 211304.05200000014,
      "d": 1300.9492656250077,
      "v": 80
    },
    {
      "midi": 72,
      "hit": false,
      "t": 211304.05200000014,
      "d": 1300.9492656250077,
      "v": 80
    },
    {
      "midi": 76,
      "hit": false,
      "t": 211304.05200000014,
      "d": 1300.9492656250077,
      "v": 80
    },
    {
      "midi": 53,
      "hit": false,
      "t": 212608.39800000016,
      "d": 1300.9492656250077,
      "v": 80
    },
    {
      "midi": 65,
      "hit": false,
      "t": 212608.39800000016,
      "d": 1300.9492656250077,
      "v": 80
    },
    {
      "midi": 68,
      "hit": false,
      "t": 212608.39800000016,
      "d": 1304.3460000000196,
      "v": 80
    },
    {
      "midi": 72,
      "hit": false,
      "t": 212608.39800000016,
      "d": 1304.3460000000196,
      "v": 80
    },
    {
      "midi": 77,
      "hit": false,
      "t": 212608.39800000016,
      "d": 1304.3460000000196,
      "v": 80
    },
    {
      "midi": 42,
      "hit": false,
      "t": 213912.74400000018,
      "d": 237.7714062499872,
      "v": 80
    },
    {
      "midi": 54,
      "hit": false,
      "t": 213912.74400000018,
      "d": 237.7714062499872,
      "v": 80
    },
    {
      "midi": 66,
      "hit": false,
      "t": 213912.74400000018,
      "d": 5217.38400000002,
      "v": 80
    },
    {
      "midi": 70,
      "hit": false,
      "t": 213912.74400000018,
      "d": 5217.38400000002,
      "v": 80
    },
    {
      "midi": 73,
      "hit": false,
      "t": 213912.74400000018,
      "d": 5217.38400000002,
      "v": 80
    },
    {
      "midi": 78,
      "hit": false,
      "t": 213912.74400000018,
      "d": 5217.38400000002,
      "v": 80
    },
    {
      "midi": 42,
      "hit": false,
      "t": 214238.83050000016,
      "d": 241.16814062499907,
      "v": 80
    },
    {
      "midi": 54,
      "hit": false,
      "t": 214238.83050000016,
      "d": 241.16814062499907,
      "v": 80
    },
    {
      "midi": 42,
      "hit": false,
      "t": 214564.91700000016,
      "d": 241.16814062499907,
      "v": 80
    },
    {
      "midi": 54,
      "hit": false,
      "t": 214564.91700000016,
      "d": 241.16814062499907,
      "v": 80
    },
    {
      "midi": 42,
      "hit": false,
      "t": 214891.00350000017,
      "d": 241.16814062499907,
      "v": 80
    },
    {
      "midi": 54,
      "hit": false,
      "t": 214891.00350000017,
      "d": 241.16814062499907,
      "v": 80
    },
    {
      "midi": 44,
      "hit": false,
      "t": 215217.09000000017,
      "d": 241.16814062499907,
      "v": 80
    },
    {
      "midi": 56,
      "hit": false,
      "t": 215217.09000000017,
      "d": 241.16814062499907,
      "v": 80
    },
    {
      "midi": 44,
      "hit": false,
      "t": 215543.17650000018,
      "d": 241.16814062499907,
      "v": 80
    },
    {
      "midi": 56,
      "hit": false,
      "t": 215543.17650000018,
      "d": 241.16814062499907,
      "v": 80
    },
    {
      "midi": 44,
      "hit": false,
      "t": 215869.26300000018,
      "d": 241.16814062499907,
      "v": 80
    },
    {
      "midi": 56,
      "hit": false,
      "t": 215869.26300000018,
      "d": 241.16814062499907,
      "v": 80
    },
    {
      "midi": 44,
      "hit": false,
      "t": 216195.3495000002,
      "d": 241.16814062499907,
      "v": 80
    },
    {
      "midi": 56,
      "hit": false,
      "t": 216195.3495000002,
      "d": 241.16814062499907,
      "v": 80
    },
    {
      "midi": 46,
      "hit": false,
      "t": 216521.4360000002,
      "d": 237.7714062499872,
      "v": 80
    },
    {
      "midi": 58,
      "hit": false,
      "t": 216521.4360000002,
      "d": 237.7714062499872,
      "v": 80
    },
    {
      "midi": 46,
      "hit": false,
      "t": 216847.52250000017,
      "d": 241.16814062499907,
      "v": 80
    },
    {
      "midi": 58,
      "hit": false,
      "t": 216847.52250000017,
      "d": 241.16814062499907,
      "v": 80
    },
    {
      "midi": 46,
      "hit": false,
      "t": 217173.60900000017,
      "d": 241.16814062499907,
      "v": 80
    },
    {
      "midi": 58,
      "hit": false,
      "t": 217173.60900000017,
      "d": 241.16814062499907,
      "v": 80
    },
    {
      "midi": 46,
      "hit": false,
      "t": 217499.69550000018,
      "d": 241.16814062499907,
      "v": 80
    },
    {
      "midi": 58,
      "hit": false,
      "t": 217499.69550000018,
      "d": 241.16814062499907,
      "v": 80
    },
    {
      "midi": 49,
      "hit": false,
      "t": 217825.78200000018,
      "d": 241.16814062499907,
      "v": 80
    },
    {
      "midi": 61,
      "hit": false,
      "t": 217825.78200000018,
      "d": 241.16814062499907,
      "v": 80
    },
    {
      "midi": 49,
      "hit": false,
      "t": 218151.8685000002,
      "d": 241.16814062499907,
      "v": 80
    },
    {
      "midi": 61,
      "hit": false,
      "t": 218151.8685000002,
      "d": 241.16814062499907,
      "v": 80
    },
    {
      "midi": 49,
      "hit": false,
      "t": 218477.9550000002,
      "d": 241.16814062499907,
      "v": 80
    },
    {
      "midi": 61,
      "hit": false,
      "t": 218477.9550000002,
      "d": 241.16814062499907,
      "v": 80
    },
    {
      "midi": 49,
      "hit": false,
      "t": 218804.0415000002,
      "d": 241.16814062499907,
      "v": 80
    },
    {
      "midi": 61,
      "hit": false,
      "t": 218804.0415000002,
      "d": 241.16814062499907,
      "v": 80
    },
    {
      "midi": 44,
      "hit": false,
      "t": 219130.1280000002,
      "d": 2605.295265624998,
      "v": 80
    },
    {
      "midi": 56,
      "hit": false,
      "t": 219130.1280000002,
      "d": 2605.295265624998,
      "v": 80
    },
    {
      "midi": 63,
      "hit": false,
      "t": 219130.1280000002,
      "d": 2608.69200000001,
      "v": 80
    },
    {
      "midi": 66,
      "hit": false,
      "t": 219130.1280000002,
      "d": 2608.69200000001,
      "v": 80
    },
    {
      "midi": 70,
      "hit": false,
      "t": 219130.1280000002,
      "d": 2608.69200000001,
      "v": 80
    },
    {
      "midi": 73,
      "hit": false,
      "t": 219130.1280000002,
      "d": 2608.69200000001,
      "v": 80
    },
    {
      "midi": 78,
      "hit": false,
      "t": 219130.1280000002,
      "d": 2608.69200000001,
      "v": 80
    },
    {
      "midi": 58,
      "hit": false,
      "t": 221738.8200000002,
      "d": 281.92895312499604,
      "v": 80
    },
    {
      "midi": 61,
      "hit": false,
      "t": 221738.8200000002,
      "d": 281.92895312499604,
      "v": 80
    },
    {
      "midi": 66,
      "hit": false,
      "t": 221738.8200000002,
      "d": 281.92895312499604,
      "v": 80
    },
    {
      "midi": 68,
      "hit": false,
      "t": 221738.8200000002,
      "d": 281.92895312499604,
      "v": 80
    },
    {
      "midi": 56,
      "hit": false,
      "t": 222064.90650000022,
      "d": 281.92895312499604,
      "v": 80
    },
    {
      "midi": 61,
      "hit": false,
      "t": 222064.90650000022,
      "d": 281.92895312499604,
      "v": 80
    },
    {
      "midi": 65,
      "hit": false,
      "t": 222064.90650000022,
      "d": 281.92895312499604,
      "v": 80
    },
    {
      "midi": 68,
      "hit": false,
      "t": 222064.90650000022,
      "d": 281.92895312499604,
      "v": 80
    },
    {
      "midi": 58,
      "hit": false,
      "t": 222717.07950000023,
      "d": 281.92895312499604,
      "v": 80
    },
    {
      "midi": 61,
      "hit": false,
      "t": 222717.07950000023,
      "d": 281.92895312499604,
      "v": 80
    },
    {
      "midi": 66,
      "hit": false,
      "t": 222717.07950000023,
      "d": 281.92895312499604,
      "v": 80
    },
    {
      "midi": 68,
      "hit": false,
      "t": 222717.07950000023,
      "d": 281.92895312499604,
      "v": 80
    },
    {
      "midi": 56,
      "hit": false,
      "t": 223369.25250000024,
      "d": 281.92895312499604,
      "v": 80
    },
    {
      "midi": 61,
      "hit": false,
      "t": 223369.25250000024,
      "d": 281.92895312499604,
      "v": 80
    },
    {
      "midi": 65,
      "hit": false,
      "t": 223369.25250000024,
      "d": 281.92895312499604,
      "v": 80
    },
    {
      "midi": 68,
      "hit": false,
      "t": 223369.25250000024,
      "d": 281.92895312499604,
      "v": 80
    },
    {
      "midi": 58,
      "hit": false,
      "t": 224021.42550000024,
      "d": 281.92895312499604,
      "v": 80
    },
    {
      "midi": 61,
      "hit": false,
      "t": 224021.42550000024,
      "d": 281.92895312499604,
      "v": 80
    },
    {
      "midi": 66,
      "hit": false,
      "t": 224021.42550000024,
      "d": 281.92895312499604,
      "v": 80
    },
    {
      "midi": 68,
      "hit": false,
      "t": 224021.42550000024,
      "d": 281.92895312499604,
      "v": 80
    },
    {
      "midi": 56,
      "hit": false,
      "t": 224673.59850000025,
      "d": 281.92895312499604,
      "v": 80
    },
    {
      "midi": 61,
      "hit": false,
      "t": 224673.59850000025,
      "d": 281.92895312499604,
      "v": 80
    },
    {
      "midi": 65,
      "hit": false,
      "t": 224673.59850000025,
      "d": 281.92895312499604,
      "v": 80
    },
    {
      "midi": 68,
      "hit": false,
      "t": 224673.59850000025,
      "d": 281.92895312499604,
      "v": 80
    },
    {
      "midi": 56,
      "hit": false,
      "t": 225651.85800000024,
      "d": 648.7762656249979,
      "v": 80
    },
    {
      "midi": 62,
      "hit": false,
      "t": 225651.85800000024,
      "d": 1300.9492656250077,
      "v": 80
    },
    {
      "midi": 65,
      "hit": false,
      "t": 225651.85800000024,
      "d": 1300.9492656250077,
      "v": 80
    },
    {
      "midi": 71,
      "hit": false,
      "t": 225651.85800000024,
      "d": 1300.9492656250077,
      "v": 80
    },
    {
      "midi": 59,
      "hit": false,
      "t": 226304.03100000025,
      "d": 648.7762656249979,
      "v": 80
    },
    {
      "midi": 56,
      "hit": false,
      "t": 226956.20400000026,
      "d": 3913.0380000000005,
      "v": 80
    },
    {
      "midi": 63,
      "hit": false,
      "t": 226956.20400000026,
      "d": 3913.0380000000005,
      "v": 80
    },
    {
      "midi": 66,
      "hit": false,
      "t": 226956.20400000026,
      "d": 3913.0380000000005,
      "v": 80
    },
    {
      "midi": 72,
      "hit": false,
      "t": 226956.20400000026,
      "d": 3913.0380000000005,
      "v": 80
    }
  ]
}