{
  "jsonPath": "Animes/Naruto MIDI Collection/its-the-training.json",
  "path": "Animes\\Naruto MIDI Collection\\Its the Training.mid",
  "name": "Its the Training",
  "difficulty": "Advanced",
  "bpm": 140.00014000014,
  "notes": [
    {
      "midi": 79,
      "hit": false,
      "t": 0,
      "d": 102.67846875000001,
      "v": 127
    },
    {
      "midi": 83,
      "hit": false,
      "t": 0,
      "d": 160.714125,
      "v": 110
    },
    {
      "midi": 86,
      "hit": false,
      "t": 0,
      "d": 160.714125,
      "v": 110
    },
    {
      "midi": 91,
      "hit": false,
      "t": 0,
      "d": 160.714125,
      "v": 110
    },
    {
      "midi": 31,
      "hit": false,
      "t": 0,
      "d": 160.714125,
      "v": 110
    },
    {
      "midi": 59,
      "hit": false,
      "t": 0,
      "d": 107.14275,
      "v": 110
    },
    {
      "midi": 62,
      "hit": false,
      "t": 0,
      "d": 107.14275,
      "v": 110
    },
    {
      "midi": 67,
      "hit": false,
      "t": 0,
      "d": 107.14275,
      "v": 110
    },
    {
      "midi": 59,
      "hit": false,
      "t": 0,
      "d": 107.14275,
      "v": 110
    },
    {
      "midi": 62,
      "hit": false,
      "t": 0,
      "d": 107.14275,
      "v": 110
    },
    {
      "midi": 67,
      "hit": false,
      "t": 0,
      "d": 107.14275,
      "v": 110
    },
    {
      "midi": 40,
      "hit": false,
      "t": 0,
      "d": 571.428,
      "v": 127
    },
    {
      "midi": 78,
      "hit": false,
      "t": 107.14275,
      "d": 102.67846875000001,
      "v": 127
    },
    {
      "midi": 77,
      "hit": false,
      "t": 214.2855,
      "d": 102.67846875000004,
      "v": 127
    },
    {
      "midi": 76,
      "hit": false,
      "t": 321.42825000000005,
      "d": 102.67846874999998,
      "v": 127
    },
    {
      "midi": 75,
      "hit": false,
      "t": 428.571,
      "d": 209.82121874999996,
      "v": 127
    },
    {
      "midi": 79,
      "hit": false,
      "t": 642.8565,
      "d": 102.67846874999998,
      "v": 127
    },
    {
      "midi": 83,
      "hit": false,
      "t": 642.8565,
      "d": 160.71412499999997,
      "v": 110
    },
    {
      "midi": 86,
      "hit": false,
      "t": 642.8565,
      "d": 160.71412499999997,
      "v": 110
    },
    {
      "midi": 91,
      "hit": false,
      "t": 642.8565,
      "d": 160.71412499999997,
      "v": 110
    },
    {
      "midi": 31,
      "hit": false,
      "t": 642.8565,
      "d": 160.71412499999997,
      "v": 110
    },
    {
      "midi": 59,
      "hit": false,
      "t": 642.8565,
      "d": 107.14274999999998,
      "v": 110
    },
    {
      "midi": 62,
      "hit": false,
      "t": 642.8565,
      "d": 107.14274999999998,
      "v": 110
    },
    {
      "midi": 67,
      "hit": false,
      "t": 642.8565,
      "d": 107.14274999999998,
      "v": 110
    },
    {
      "midi": 59,
      "hit": false,
      "t": 642.8565,
      "d": 107.14274999999998,
      "v": 110
    },
    {
      "midi": 62,
      "hit": false,
      "t": 642.8565,
      "d": 107.14274999999998,
      "v": 110
    },
    {
      "midi": 67,
      "hit": false,
      "t": 642.8565,
      "d": 107.14274999999998,
      "v": 110
    },
    {
      "midi": 40,
      "hit": false,
      "t": 642.8565,
      "d": 571.428,
      "v": 127
    },
    {
      "midi": 78,
      "hit": false,
      "t": 749.99925,
      "d": 102.67846874999998,
      "v": 127
    },
    {
      "midi": 77,
      "hit": false,
      "t": 857.1419999999999,
      "d": 102.67846874999998,
      "v": 127
    },
    {
      "midi": 76,
      "hit": false,
      "t": 964.2847499999999,
      "d": 102.67846874999998,
      "v": 127
    },
    {
      "midi": 75,
      "hit": false,
      "t": 1071.4275,
      "d": 209.82121875000007,
      "v": 127
    },
    {
      "midi": 83,
      "hit": false,
      "t": 1285.713,
      "d": 107.14274999999998,
      "v": 110
    },
    {
      "midi": 86,
      "hit": false,
      "t": 1285.713,
      "d": 107.14274999999998,
      "v": 110
    },
    {
      "midi": 91,
      "hit": false,
      "t": 1285.713,
      "d": 107.14274999999998,
      "v": 110
    },
    {
      "midi": 31,
      "hit": false,
      "t": 1285.713,
      "d": 107.14274999999998,
      "v": 110
    },
    {
      "midi": 59,
      "hit": false,
      "t": 1285.713,
      "d": 107.14274999999998,
      "v": 110
    },
    {
      "midi": 62,
      "hit": false,
      "t": 1285.713,
      "d": 107.14274999999998,
      "v": 110
    },
    {
      "midi": 67,
      "hit": false,
      "t": 1285.713,
      "d": 107.14274999999998,
      "v": 110
    },
    {
      "midi": 59,
      "hit": false,
      "t": 1285.713,
      "d": 107.14274999999998,
      "v": 110
    },
    {
      "midi": 62,
      "hit": false,
      "t": 1285.713,
      "d": 107.14274999999998,
      "v": 110
    },
    {
      "midi": 67,
      "hit": false,
      "t": 1285.713,
      "d": 107.14274999999998,
      "v": 110
    },
    {
      "midi": 40,
      "hit": false,
      "t": 1285.713,
      "d": 357.14250000000015,
      "v": 127
    },
    {
      "midi": 79,
      "hit": false,
      "t": 1285.7130000000002,
      "d": 209.82121875000007,
      "v": 127
    },
    {
      "midi": 72,
      "hit": false,
      "t": 1499.9985000000004,
      "d": 209.82121875000007,
      "v": 127
    },
    {
      "midi": 81,
      "hit": false,
      "t": 1714.2839999999999,
      "d": 71.42849999999999,
      "v": 110
    },
    {
      "midi": 84,
      "hit": false,
      "t": 1714.2839999999999,
      "d": 71.42849999999999,
      "v": 110
    },
    {
      "midi": 89,
      "hit": false,
      "t": 1714.2839999999999,
      "d": 71.42849999999999,
      "v": 110
    },
    {
      "midi": 29,
      "hit": false,
      "t": 1714.2839999999999,
      "d": 357.14250000000015,
      "v": 110
    },
    {
      "midi": 57,
      "hit": false,
      "t": 1714.2839999999999,
      "d": 71.42849999999999,
      "v": 110
    },
    {
      "midi": 60,
      "hit": false,
      "t": 1714.2839999999999,
      "d": 71.42849999999999,
      "v": 110
    },
    {
      "midi": 65,
      "hit": false,
      "t": 1714.2839999999999,
      "d": 71.42849999999999,
      "v": 110
    },
    {
      "midi": 57,
      "hit": false,
      "t": 1714.2839999999999,
      "d": 71.42849999999999,
      "v": 110
    },
    {
      "midi": 60,
      "hit": false,
      "t": 1714.2839999999999,
      "d": 71.42849999999999,
      "v": 110
    },
    {
      "midi": 65,
      "hit": false,
      "t": 1714.2839999999999,
      "d": 71.42849999999999,
      "v": 110
    },
    {
      "midi": 57,
      "hit": false,
      "t": 1714.284,
      "d": 749.9992500000003,
      "v": 110
    },
    {
      "midi": 69,
      "hit": false,
      "t": 1714.2840000000006,
      "d": 209.82121875000007,
      "v": 127
    },
    {
      "midi": 77,
      "hit": false,
      "t": 1714.2840000000006,
      "d": 209.82121875000007,
      "v": 127
    },
    {
      "midi": 81,
      "hit": false,
      "t": 1928.5694999999998,
      "d": 209.82121875000007,
      "v": 110
    },
    {
      "midi": 84,
      "hit": false,
      "t": 1928.5694999999998,
      "d": 209.82121875000007,
      "v": 110
    },
    {
      "midi": 57,
      "hit": false,
      "t": 1928.5694999999998,
      "d": 209.82121875000007,
      "v": 110
    },
    {
      "midi": 60,
      "hit": false,
      "t": 1928.5694999999998,
      "d": 209.82121875000007,
      "v": 110
    },
    {
      "midi": 65,
      "hit": false,
      "t": 1928.5694999999998,
      "d": 209.82121875000007,
      "v": 110
    },
    {
      "midi": 57,
      "hit": false,
      "t": 1928.5694999999998,
      "d": 209.82121875000007,
      "v": 110
    },
    {
      "midi": 60,
      "hit": false,
      "t": 1928.5694999999998,
      "d": 209.82121875000007,
      "v": 110
    },
    {
      "midi": 65,
      "hit": false,
      "t": 1928.5694999999998,
      "d": 209.82121875000007,
      "v": 110
    },
    {
      "midi": 69,
      "hit": false,
      "t": 1928.5695000000007,
      "d": 209.82121875000007,
      "v": 127
    },
    {
      "midi": 77,
      "hit": false,
      "t": 1928.5695000000007,
      "d": 209.82121875000007,
      "v": 127
    },
    {
      "midi": 85,
      "hit": false,
      "t": 2142.855,
      "d": 71.42849999999999,
      "v": 110
    },
    {
      "midi": 90,
      "hit": false,
      "t": 2142.855,
      "d": 71.42849999999999,
      "v": 110
    },
    {
      "midi": 30,
      "hit": false,
      "t": 2142.855,
      "d": 357.1424999999999,
      "v": 110
    },
    {
      "midi": 58,
      "hit": false,
      "t": 2142.855,
      "d": 71.42849999999999,
      "v": 110
    },
    {
      "midi": 61,
      "hit": false,
      "t": 2142.855,
      "d": 71.42849999999999,
      "v": 110
    },
    {
      "midi": 66,
      "hit": false,
      "t": 2142.855,
      "d": 71.42849999999999,
      "v": 110
    },
    {
      "midi": 58,
      "hit": false,
      "t": 2142.855,
      "d": 71.42849999999999,
      "v": 110
    },
    {
      "midi": 61,
      "hit": false,
      "t": 2142.855,
      "d": 71.42849999999999,
      "v": 110
    },
    {
      "midi": 66,
      "hit": false,
      "t": 2142.855,
      "d": 71.42849999999999,
      "v": 110
    },
    {
      "midi": 70,
      "hit": false,
      "t": 2142.855000000001,
      "d": 209.82121874999984,
      "v": 127
    },
    {
      "midi": 78,
      "hit": false,
      "t": 2142.855000000001,
      "d": 209.82121874999984,
      "v": 127
    },
    {
      "midi": 82,
      "hit": false,
      "t": 2357.1405,
      "d": 209.82121874999984,
      "v": 110
    },
    {
      "midi": 85,
      "hit": false,
      "t": 2357.1405,
      "d": 209.82121874999984,
      "v": 110
    },
    {
      "midi": 58,
      "hit": false,
      "t": 2357.1405,
      "d": 209.82121874999984,
      "v": 110
    },
    {
      "midi": 61,
      "hit": false,
      "t": 2357.1405,
      "d": 209.82121874999984,
      "v": 110
    },
    {
      "midi": 66,
      "hit": false,
      "t": 2357.1405,
      "d": 209.82121874999984,
      "v": 110
    },
    {
      "midi": 58,
      "hit": false,
      "t": 2357.1405,
      "d": 209.82121874999984,
      "v": 110
    },
    {
      "midi": 61,
      "hit": false,
      "t": 2357.1405,
      "d": 209.82121874999984,
      "v": 110
    },
    {
      "midi": 66,
      "hit": false,
      "t": 2357.1405,
      "d": 209.82121874999984,
      "v": 110
    },
    {
      "midi": 70,
      "hit": false,
      "t": 2357.140500000001,
      "d": 209.82121874999984,
      "v": 127
    },
    {
      "midi": 78,
      "hit": false,
      "t": 2357.140500000001,
      "d": 209.82121874999984,
      "v": 127
    },
    {
      "midi": 83,
      "hit": false,
      "t": 2571.426,
      "d": 357.1424999999999,
      "v": 110
    },
    {
      "midi": 86,
      "hit": false,
      "t": 2571.426,
      "d": 357.1424999999999,
      "v": 110
    },
    {
      "midi": 91,
      "hit": false,
      "t": 2571.426,
      "d": 357.1424999999999,
      "v": 110
    },
    {
      "midi": 31,
      "hit": false,
      "t": 2571.426,
      "d": 357.1424999999999,
      "v": 110
    },
    {
      "midi": 59,
      "hit": false,
      "t": 2571.426,
      "d": 357.1424999999999,
      "v": 110
    },
    {
      "midi": 62,
      "hit": false,
      "t": 2571.426,
      "d": 357.1424999999999,
      "v": 110
    },
    {
      "midi": 67,
      "hit": false,
      "t": 2571.426,
      "d": 357.1424999999999,
      "v": 110
    },
    {
      "midi": 59,
      "hit": false,
      "t": 2571.426,
      "d": 357.1424999999999,
      "v": 110
    },
    {
      "midi": 62,
      "hit": false,
      "t": 2571.426,
      "d": 357.1424999999999,
      "v": 110
    },
    {
      "midi": 67,
      "hit": false,
      "t": 2571.426,
      "d": 357.1424999999999,
      "v": 110
    },
    {
      "midi": 71,
      "hit": false,
      "t": 2571.426000000001,
      "d": 357.1424999999999,
      "v": 127
    },
    {
      "midi": 79,
      "hit": false,
      "t": 2571.426000000001,
      "d": 357.1424999999999,
      "v": 127
    },
    {
      "midi": 40,
      "hit": false,
      "t": 2785.7115000000003,
      "d": 209.82121874999984,
      "v": 110
    },
    {
      "midi": 43,
      "hit": false,
      "t": 2785.7115000000003,
      "d": 209.82121874999984,
      "v": 110
    },
    {
      "midi": 78,
      "hit": false,
      "t": 2785.7115000000003,
      "d": 209.82121874999984,
      "v": 127
    },
    {
      "midi": 40,
      "hit": false,
      "t": 2999.9970000000003,
      "d": 209.82121874999984,
      "v": 110
    },
    {
      "midi": 43,
      "hit": false,
      "t": 2999.9970000000003,
      "d": 209.82121874999984,
      "v": 110
    },
    {
      "midi": 79,
      "hit": false,
      "t": 2999.9970000000003,
      "d": 357.1424999999999,
      "v": 127
    },
    {
      "midi": 40,
      "hit": false,
      "t": 3214.2825000000003,
      "d": 209.82121874999984,
      "v": 110
    },
    {
      "midi": 43,
      "hit": false,
      "t": 3214.2825000000003,
      "d": 209.82121874999984,
      "v": 110
    },
    {
      "midi": 36,
      "hit": false,
      "t": 3428.5679999999998,
      "d": 209.82121874999984,
      "v": 110
    },
    {
      "midi": 36,
      "hit": false,
      "t": 3428.568,
      "d": 209.82121874999984,
      "v": 110
    },
    {
      "midi": 57,
      "hit": false,
      "t": 3428.568,
      "d": 209.82121874999984,
      "v": 110
    },
    {
      "midi": 60,
      "hit": false,
      "t": 3642.8535,
      "d": 71.42849999999999,
      "v": 110
    },
    {
      "midi": 64,
      "hit": false,
      "t": 3642.8535,
      "d": 71.42849999999999,
      "v": 110
    },
    {
      "midi": 67,
      "hit": false,
      "t": 3642.8535,
      "d": 71.42849999999999,
      "v": 110
    },
    {
      "midi": 64,
      "hit": false,
      "t": 3642.8535,
      "d": 71.42849999999999,
      "v": 110
    },
    {
      "midi": 67,
      "hit": false,
      "t": 3642.8535,
      "d": 71.42849999999999,
      "v": 110
    },
    {
      "midi": 72,
      "hit": false,
      "t": 3642.8535,
      "d": 71.42849999999999,
      "v": 110
    },
    {
      "midi": 46,
      "hit": false,
      "t": 3642.8535,
      "d": 209.82121874999984,
      "v": 110
    },
    {
      "midi": 67,
      "hit": false,
      "t": 3642.8535,
      "d": 71.42849999999999,
      "v": 75
    },
    {
      "midi": 72,
      "hit": false,
      "t": 3642.8535,
      "d": 71.42849999999999,
      "v": 75
    },
    {
      "midi": 67,
      "hit": false,
      "t": 3642.853500000001,
      "d": 102.67846874999987,
      "v": 127
    },
    {
      "midi": 72,
      "hit": false,
      "t": 3642.853500000001,
      "d": 102.67846874999987,
      "v": 127
    },
    {
      "midi": 67,
      "hit": false,
      "t": 3749.99625,
      "d": 71.42849999999999,
      "v": 75
    },
    {
      "midi": 72,
      "hit": false,
      "t": 3749.99625,
      "d": 71.42849999999999,
      "v": 75
    },
    {
      "midi": 67,
      "hit": false,
      "t": 3749.996250000001,
      "d": 102.67846874999987,
      "v": 127
    },
    {
      "midi": 72,
      "hit": false,
      "t": 3749.996250000001,
      "d": 102.67846874999987,
      "v": 127
    },
    {
      "midi": 40,
      "hit": false,
      "t": 3857.139,
      "d": 209.82121874999984,
      "v": 110
    },
    {
      "midi": 42,
      "hit": false,
      "t": 3857.139,
      "d": 209.82121874999984,
      "v": 75
    },
    {
      "midi": 67,
      "hit": false,
      "t": 3857.139,
      "d": 71.42849999999999,
      "v": 75
    },
    {
      "midi": 72,
      "hit": false,
      "t": 3857.139,
      "d": 71.42849999999999,
      "v": 75
    },
    {
      "midi": 67,
      "hit": false,
      "t": 3857.139000000001,
      "d": 209.82121874999984,
      "v": 127
    },
    {
      "midi": 72,
      "hit": false,
      "t": 3857.139000000001,
      "d": 209.82121874999984,
      "v": 127
    },
    {
      "midi": 31,
      "hit": false,
      "t": 4071.4244999999996,
      "d": 209.82121874999984,
      "v": 110
    },
    {
      "midi": 60,
      "hit": false,
      "t": 4071.4245,
      "d": 71.42849999999999,
      "v": 110
    },
    {
      "midi": 64,
      "hit": false,
      "t": 4071.4245,
      "d": 71.42849999999999,
      "v": 110
    },
    {
      "midi": 67,
      "hit": false,
      "t": 4071.4245,
      "d": 71.42849999999999,
      "v": 110
    },
    {
      "midi": 64,
      "hit": false,
      "t": 4071.4245,
      "d": 71.42849999999999,
      "v": 110
    },
    {
      "midi": 67,
      "hit": false,
      "t": 4071.4245,
      "d": 71.42849999999999,
      "v": 110
    },
    {
      "midi": 72,
      "hit": false,
      "t": 4071.4245,
      "d": 71.42849999999999,
      "v": 110
    },
    {
      "midi": 42,
      "hit": false,
      "t": 4071.4245,
      "d": 209.8212187500003,
      "v": 110
    },
    {
      "midi": 67,
      "hit": false,
      "t": 4071.4245,
      "d": 71.42849999999999,
      "v": 75
    },
    {
      "midi": 72,
      "hit": false,
      "t": 4071.4245,
      "d": 71.42849999999999,
      "v": 75
    },
    {
      "midi": 67,
      "hit": false,
      "t": 4071.424500000001,
      "d": 209.8212187500003,
      "v": 127
    },
    {
      "midi": 72,
      "hit": false,
      "t": 4071.424500000001,
      "d": 209.8212187500003,
      "v": 127
    },
    {
      "midi": 34,
      "hit": false,
      "t": 4285.709999999999,
      "d": 209.8212187500003,
      "v": 110
    },
    {
      "midi": 36,
      "hit": false,
      "t": 4285.71,
      "d": 209.8212187500003,
      "v": 110
    },
    {
      "midi": 42,
      "hit": false,
      "t": 4285.71,
      "d": 209.8212187500003,
      "v": 75
    },
    {
      "midi": 65,
      "hit": false,
      "t": 4285.71,
      "d": 71.42849999999999,
      "v": 75
    },
    {
      "midi": 70,
      "hit": false,
      "t": 4285.71,
      "d": 71.42849999999999,
      "v": 75
    },
    {
      "midi": 65,
      "hit": false,
      "t": 4285.710000000001,
      "d": 209.8212187500003,
      "v": 127
    },
    {
      "midi": 70,
      "hit": false,
      "t": 4285.710000000001,
      "d": 209.8212187500003,
      "v": 127
    },
    {
      "midi": 58,
      "hit": false,
      "t": 4499.9955,
      "d": 71.42849999999999,
      "v": 110
    },
    {
      "midi": 62,
      "hit": false,
      "t": 4499.9955,
      "d": 71.42849999999999,
      "v": 110
    },
    {
      "midi": 65,
      "hit": false,
      "t": 4499.9955,
      "d": 71.42849999999999,
      "v": 110
    },
    {
      "midi": 62,
      "hit": false,
      "t": 4499.9955,
      "d": 71.42849999999999,
      "v": 110
    },
    {
      "midi": 65,
      "hit": false,
      "t": 4499.9955,
      "d": 71.42849999999999,
      "v": 110
    },
    {
      "midi": 70,
      "hit": false,
      "t": 4499.9955,
      "d": 71.42849999999999,
      "v": 110
    },
    {
      "midi": 42,
      "hit": false,
      "t": 4499.9955,
      "d": 209.8212187500003,
      "v": 110
    },
    {
      "midi": 65,
      "hit": false,
      "t": 4499.9955,
      "d": 71.42849999999999,
      "v": 75
    },
    {
      "midi": 70,
      "hit": false,
      "t": 4499.9955,
      "d": 71.42849999999999,
      "v": 75
    },
    {
      "midi": 65,
      "hit": false,
      "t": 4499.995500000001,
      "d": 209.8212187500003,
      "v": 127
    },
    {
      "midi": 70,
      "hit": false,
      "t": 4499.995500000001,
      "d": 209.8212187500003,
      "v": 127
    },
    {
      "midi": 40,
      "hit": false,
      "t": 4714.281,
      "d": 209.8212187500003,
      "v": 110
    },
    {
      "midi": 42,
      "hit": false,
      "t": 4714.281,
      "d": 209.8212187500003,
      "v": 75
    },
    {
      "midi": 70,
      "hit": false,
      "t": 4714.281,
      "d": 71.42849999999999,
      "v": 75
    },
    {
      "midi": 74,
      "hit": false,
      "t": 4714.281,
      "d": 71.42849999999999,
      "v": 75
    },
    {
      "midi": 70,
      "hit": false,
      "t": 4714.281000000001,
      "d": 209.8212187500003,
      "v": 127
    },
    {
      "midi": 74,
      "hit": false,
      "t": 4714.281000000001,
      "d": 209.8212187500003,
      "v": 127
    },
    {
      "midi": 31,
      "hit": false,
      "t": 4928.566499999999,
      "d": 209.8212187500003,
      "v": 110
    },
    {
      "midi": 58,
      "hit": false,
      "t": 4928.5665,
      "d": 71.42849999999999,
      "v": 110
    },
    {
      "midi": 62,
      "hit": false,
      "t": 4928.5665,
      "d": 71.42849999999999,
      "v": 110
    },
    {
      "midi": 65,
      "hit": false,
      "t": 4928.5665,
      "d": 71.42849999999999,
      "v": 110
    },
    {
      "midi": 62,
      "hit": false,
      "t": 4928.5665,
      "d": 71.42849999999999,
      "v": 110
    },
    {
      "midi": 65,
      "hit": false,
      "t": 4928.5665,
      "d": 71.42849999999999,
      "v": 110
    },
    {
      "midi": 70,
      "hit": false,
      "t": 4928.5665,
      "d": 71.42849999999999,
      "v": 110
    },
    {
      "midi": 42,
      "hit": false,
      "t": 4928.5665,
      "d": 209.8212187500003,
      "v": 110
    },
    {
      "midi": 70,
      "hit": false,
      "t": 4928.5665,
      "d": 71.42849999999999,
      "v": 75
    },
    {
      "midi": 74,
      "hit": false,
      "t": 4928.5665,
      "d": 71.42849999999999,
      "v": 75
    },
    {
      "midi": 70,
      "hit": false,
      "t": 4928.566500000001,
      "d": 209.8212187500003,
      "v": 127
    },
    {
      "midi": 74,
      "hit": false,
      "t": 4928.566500000001,
      "d": 209.8212187500003,
      "v": 127
    },
    {
      "midi": 36,
      "hit": false,
      "t": 5142.851999999999,
      "d": 209.8212187500003,
      "v": 110
    },
    {
      "midi": 36,
      "hit": false,
      "t": 5142.852,
      "d": 209.8212187500003,
      "v": 110
    },
    {
      "midi": 42,
      "hit": false,
      "t": 5142.852,
      "d": 209.8212187500003,
      "v": 75
    },
    {
      "midi": 67,
      "hit": false,
      "t": 5142.852,
      "d": 71.42849999999999,
      "v": 75
    },
    {
      "midi": 72,
      "hit": false,
      "t": 5142.852,
      "d": 71.42849999999999,
      "v": 75
    },
    {
      "midi": 67,
      "hit": false,
      "t": 5142.852000000001,
      "d": 209.8212187500003,
      "v": 127
    },
    {
      "midi": 72,
      "hit": false,
      "t": 5142.852000000001,
      "d": 209.8212187500003,
      "v": 127
    },
    {
      "midi": 60,
      "hit": false,
      "t": 5357.1375,
      "d": 71.42849999999999,
      "v": 110
    },
    {
      "midi": 64,
      "hit": false,
      "t": 5357.1375,
      "d": 71.42849999999999,
      "v": 110
    },
    {
      "midi": 67,
      "hit": false,
      "t": 5357.1375,
      "d": 71.42849999999999,
      "v": 110
    },
    {
      "midi": 64,
      "hit": false,
      "t": 5357.1375,
      "d": 71.42849999999999,
      "v": 110
    },
    {
      "midi": 67,
      "hit": false,
      "t": 5357.1375,
      "d": 71.42849999999999,
      "v": 110
    },
    {
      "midi": 72,
      "hit": false,
      "t": 5357.1375,
      "d": 71.42849999999999,
      "v": 110
    },
    {
      "midi": 46,
      "hit": false,
      "t": 5357.1375,
      "d": 209.8212187500003,
      "v": 110
    },
    {
      "midi": 67,
      "hit": false,
      "t": 5357.1375,
      "d": 71.42849999999999,
      "v": 75
    },
    {
      "midi": 72,
      "hit": false,
      "t": 5357.1375,
      "d": 71.42849999999999,
      "v": 75
    },
    {
      "midi": 67,
      "hit": false,
      "t": 5357.137500000001,
      "d": 209.8212187500003,
      "v": 127
    },
    {
      "midi": 72,
      "hit": false,
      "t": 5357.137500000001,
      "d": 209.8212187500003,
      "v": 127
    },
    {
      "midi": 40,
      "hit": false,
      "t": 5571.423,
      "d": 209.8212187500003,
      "v": 110
    },
    {
      "midi": 42,
      "hit": false,
      "t": 5571.423,
      "d": 209.8212187500003,
      "v": 75
    },
    {
      "midi": 65,
      "hit": false,
      "t": 5571.423,
      "d": 71.42849999999999,
      "v": 75
    },
    {
      "midi": 70,
      "hit": false,
      "t": 5571.423,
      "d": 71.42849999999999,
      "v": 75
    },
    {
      "midi": 65,
      "hit": false,
      "t": 5571.423000000001,
      "d": 209.8212187500003,
      "v": 127
    },
    {
      "midi": 70,
      "hit": false,
      "t": 5571.423000000001,
      "d": 209.8212187500003,
      "v": 127
    },
    {
      "midi": 31,
      "hit": false,
      "t": 5785.708499999999,
      "d": 209.8212187500003,
      "v": 110
    },
    {
      "midi": 60,
      "hit": false,
      "t": 5785.7085,
      "d": 71.42849999999999,
      "v": 110
    },
    {
      "midi": 64,
      "hit": false,
      "t": 5785.7085,
      "d": 71.42849999999999,
      "v": 110
    },
    {
      "midi": 67,
      "hit": false,
      "t": 5785.7085,
      "d": 71.42849999999999,
      "v": 110
    },
    {
      "midi": 64,
      "hit": false,
      "t": 5785.7085,
      "d": 71.42849999999999,
      "v": 110
    },
    {
      "midi": 67,
      "hit": false,
      "t": 5785.7085,
      "d": 71.42849999999999,
      "v": 110
    },
    {
      "midi": 72,
      "hit": false,
      "t": 5785.7085,
      "d": 71.42849999999999,
      "v": 110
    },
    {
      "midi": 42,
      "hit": false,
      "t": 5785.7085,
      "d": 209.8212187500003,
      "v": 110
    },
    {
      "midi": 67,
      "hit": false,
      "t": 5785.7085,
      "d": 71.42849999999999,
      "v": 75
    },
    {
      "midi": 72,
      "hit": false,
      "t": 5785.7085,
      "d": 71.42849999999999,
      "v": 75
    },
    {
      "midi": 67,
      "hit": false,
      "t": 5785.708500000001,
      "d": 209.8212187500003,
      "v": 127
    },
    {
      "midi": 72,
      "hit": false,
      "t": 5785.708500000001,
      "d": 209.8212187500003,
      "v": 127
    },
    {
      "midi": 34,
      "hit": false,
      "t": 5999.993999999999,
      "d": 357.1424999999999,
      "v": 110
    },
    {
      "midi": 36,
      "hit": false,
      "t": 5999.994,
      "d": 209.8212187500003,
      "v": 110
    },
    {
      "midi": 42,
      "hit": false,
      "t": 5999.994,
      "d": 209.8212187500003,
      "v": 75
    },
    {
      "midi": 67,
      "hit": false,
      "t": 5999.994,
      "d": 214.28549999999996,
      "v": 75
    },
    {
      "midi": 67,
      "hit": false,
      "t": 5999.994000000001,
      "d": 749.9992499999998,
      "v": 127
    },
    {
      "midi": 53,
      "hit": false,
      "t": 6214.2795,
      "d": 209.8212187500003,
      "v": 110
    },
    {
      "midi": 58,
      "hit": false,
      "t": 6214.2795,
      "d": 209.8212187500003,
      "v": 110
    },
    {
      "midi": 62,
      "hit": false,
      "t": 6214.2795,
      "d": 209.8212187500003,
      "v": 110
    },
    {
      "midi": 58,
      "hit": false,
      "t": 6214.2795,
      "d": 209.8212187500003,
      "v": 110
    },
    {
      "midi": 62,
      "hit": false,
      "t": 6214.2795,
      "d": 209.8212187500003,
      "v": 110
    },
    {
      "midi": 67,
      "hit": false,
      "t": 6214.2795,
      "d": 209.8212187500003,
      "v": 110
    },
    {
      "midi": 45,
      "hit": false,
      "t": 6214.2795,
      "d": 209.8212187500003,
      "v": 110
    },
    {
      "midi": 79,
      "hit": false,
      "t": 6214.279500000001,
      "d": 209.8212187500003,
      "v": 127
    },
    {
      "midi": 31,
      "hit": false,
      "t": 6428.564999999999,
      "d": 357.1424999999999,
      "v": 110
    },
    {
      "midi": 58,
      "hit": false,
      "t": 6428.565,
      "d": 357.1424999999999,
      "v": 110
    },
    {
      "midi": 62,
      "hit": false,
      "t": 6428.565,
      "d": 357.1424999999999,
      "v": 110
    },
    {
      "midi": 67,
      "hit": false,
      "t": 6428.565,
      "d": 357.1424999999999,
      "v": 110
    },
    {
      "midi": 62,
      "hit": false,
      "t": 6428.565,
      "d": 357.1424999999999,
      "v": 110
    },
    {
      "midi": 67,
      "hit": false,
      "t": 6428.565,
      "d": 357.1424999999999,
      "v": 110
    },
    {
      "midi": 70,
      "hit": false,
      "t": 6428.565,
      "d": 357.1424999999999,
      "v": 110
    },
    {
      "midi": 40,
      "hit": false,
      "t": 6428.565,
      "d": 209.8212187500003,
      "v": 110
    },
    {
      "midi": 43,
      "hit": false,
      "t": 6428.565,
      "d": 209.8212187500003,
      "v": 110
    },
    {
      "midi": 42,
      "hit": false,
      "t": 6428.565,
      "d": 209.8212187500003,
      "v": 75
    },
    {
      "midi": 78,
      "hit": false,
      "t": 6428.5650000000005,
      "d": 357.1424999999999,
      "v": 127
    },
    {
      "midi": 41,
      "hit": false,
      "t": 6642.8505,
      "d": 209.8212187500003,
      "v": 110
    },
    {
      "midi": 36,
      "hit": false,
      "t": 6857.135999999999,
      "d": 209.8212187500003,
      "v": 110
    },
    {
      "midi": 36,
      "hit": false,
      "t": 6857.1359999999995,
      "d": 209.8212187500003,
      "v": 110
    },
    {
      "midi": 42,
      "hit": false,
      "t": 6857.1359999999995,
      "d": 357.1424999999999,
      "v": 75
    },
    {
      "midi": 60,
      "hit": false,
      "t": 7071.4214999999995,
      "d": 71.42849999999999,
      "v": 110
    },
    {
      "midi": 64,
      "hit": false,
      "t": 7071.4214999999995,
      "d": 71.42849999999999,
      "v": 110
    },
    {
      "midi": 67,
      "hit": false,
      "t": 7071.4214999999995,
      "d": 71.42849999999999,
      "v": 110
    },
    {
      "midi": 64,
      "hit": false,
      "t": 7071.4214999999995,
      "d": 71.42849999999999,
      "v": 110
    },
    {
      "midi": 67,
      "hit": false,
      "t": 7071.4214999999995,
      "d": 71.42849999999999,
      "v": 110
    },
    {
      "midi": 72,
      "hit": false,
      "t": 7071.4214999999995,
      "d": 71.42849999999999,
      "v": 110
    },
    {
      "midi": 46,
      "hit": false,
      "t": 7071.4214999999995,
      "d": 209.8212187500003,
      "v": 110
    },
    {
      "midi": 67,
      "hit": false,
      "t": 7071.4214999999995,
      "d": 71.42849999999999,
      "v": 75
    },
    {
      "midi": 72,
      "hit": false,
      "t": 7071.4214999999995,
      "d": 71.42849999999999,
      "v": 75
    },
    {
      "midi": 67,
      "hit": false,
      "t": 7071.4215,
      "d": 102.67846875000032,
      "v": 127
    },
    {
      "midi": 72,
      "hit": false,
      "t": 7071.4215,
      "d": 102.67846875000032,
      "v": 127
    },
    {
      "midi": 67,
      "hit": false,
      "t": 7178.564249999999,
      "d": 71.42849999999999,
      "v": 75
    },
    {
      "midi": 72,
      "hit": false,
      "t": 7178.564249999999,
      "d": 71.42849999999999,
      "v": 75
    },
    {
      "midi": 67,
      "hit": false,
      "t": 7178.56425,
      "d": 102.67846875000032,
      "v": 127
    },
    {
      "midi": 72,
      "hit": false,
      "t": 7178.56425,
      "d": 102.67846875000032,
      "v": 127
    },
    {
      "midi": 40,
      "hit": false,
      "t": 7285.706999999999,
      "d": 209.8212187500003,
      "v": 110
    },
    {
      "midi": 42,
      "hit": false,
      "t": 7285.706999999999,
      "d": 357.1424999999999,
      "v": 75
    },
    {
      "midi": 67,
      "hit": false,
      "t": 7285.706999999999,
      "d": 71.42849999999999,
      "v": 75
    },
    {
      "midi": 72,
      "hit": false,
      "t": 7285.706999999999,
      "d": 71.42849999999999,
      "v": 75
    },
    {
      "midi": 67,
      "hit": false,
      "t": 7285.707,
      "d": 209.8212187500003,
      "v": 127
    },
    {
      "midi": 72,
      "hit": false,
      "t": 7285.707,
      "d": 209.8212187500003,
      "v": 127
    },
    {
      "midi": 31,
      "hit": false,
      "t": 7499.9924999999985,
      "d": 209.8212187500003,
      "v": 110
    },
    {
      "midi": 60,
      "hit": false,
      "t": 7499.992499999999,
      "d": 71.42849999999999,
      "v": 110
    },
    {
      "midi": 64,
      "hit": false,
      "t": 7499.992499999999,
      "d": 71.42849999999999,
      "v": 110
    },
    {
      "midi": 67,
      "hit": false,
      "t": 7499.992499999999,
      "d": 71.42849999999999,
      "v": 110
    },
    {
      "midi": 64,
      "hit": false,
      "t": 7499.992499999999,
      "d": 71.42849999999999,
      "v": 110
    },
    {
      "midi": 67,
      "hit": false,
      "t": 7499.992499999999,
      "d": 71.42849999999999,
      "v": 110
    },
    {
      "midi": 72,
      "hit": false,
      "t": 7499.992499999999,
      "d": 71.42849999999999,
      "v": 110
    },
    {
      "midi": 42,
      "hit": false,
      "t": 7499.992499999999,
      "d": 209.8212187500003,
      "v": 110
    },
    {
      "midi": 67,
      "hit": false,
      "t": 7499.992499999999,
      "d": 71.42849999999999,
      "v": 75
    },
    {
      "midi": 72,
      "hit": false,
      "t": 7499.992499999999,
      "d": 71.42849999999999,
      "v": 75
    },
    {
      "midi": 67,
      "hit": false,
      "t": 7499.9925,
      "d": 209.8212187500003,
      "v": 127
    },
    {
      "midi": 72,
      "hit": false,
      "t": 7499.9925,
      "d": 209.8212187500003,
      "v": 127
    },
    {
      "midi": 34,
      "hit": false,
      "t": 7714.277999999998,
      "d": 209.8212187500003,
      "v": 110
    },
    {
      "midi": 36,
      "hit": false,
      "t": 7714.277999999999,
      "d": 209.8212187500003,
      "v": 110
    },
    {
      "midi": 42,
      "hit": false,
      "t": 7714.277999999999,
      "d": 357.1424999999999,
      "v": 75
    },
    {
      "midi": 65,
      "hit": false,
      "t": 7714.277999999999,
      "d": 71.42849999999999,
      "v": 75
    },
    {
      "midi": 70,
      "hit": false,
      "t": 7714.277999999999,
      "d": 71.42849999999999,
      "v": 75
    },
    {
      "midi": 65,
      "hit": false,
      "t": 7714.278,
      "d": 209.8212187500003,
      "v": 127
    },
    {
      "midi": 70,
      "hit": false,
      "t": 7714.278,
      "d": 209.8212187500003,
      "v": 127
    },
    {
      "midi": 58,
      "hit": false,
      "t": 7928.563499999999,
      "d": 71.42849999999999,
      "v": 110
    },
    {
      "midi": 62,
      "hit": false,
      "t": 7928.563499999999,
      "d": 71.42849999999999,
      "v": 110
    },
    {
      "midi": 65,
      "hit": false,
      "t": 7928.563499999999,
      "d": 71.42849999999999,
      "v": 110
    },
    {
      "midi": 62,
      "hit": false,
      "t": 7928.563499999999,
      "d": 71.42849999999999,
      "v": 110
    },
    {
      "midi": 65,
      "hit": false,
      "t": 7928.563499999999,
      "d": 71.42849999999999,
      "v": 110
    },
    {
      "midi": 70,
      "hit": false,
      "t": 7928.563499999999,
      "d": 71.42849999999999,
      "v": 110
    },
    {
      "midi": 42,
      "hit": false,
      "t": 7928.563499999999,
      "d": 209.8212187500003,
      "v": 110
    },
    {
      "midi": 65,
      "hit": false,
      "t": 7928.563499999999,
      "d": 71.42849999999999,
      "v": 75
    },
    {
      "midi": 70,
      "hit": false,
      "t": 7928.563499999999,
      "d": 71.42849999999999,
      "v": 75
    },
    {
      "midi": 65,
      "hit": false,
      "t": 7928.5635,
      "d": 209.8212187500003,
      "v": 127
    },
    {
      "midi": 70,
      "hit": false,
      "t": 7928.5635,
      "d": 209.8212187500003,
      "v": 127
    },
    {
      "midi": 40,
      "hit": false,
      "t": 8142.848999999999,
      "d": 209.8212187500003,
      "v": 110
    },
    {
      "midi": 42,
      "hit": false,
      "t": 8142.848999999999,
      "d": 357.14250000000084,
      "v": 75
    },
    {
      "midi": 70,
      "hit": false,
      "t": 8142.848999999999,
      "d": 71.4285000000009,
      "v": 75
    },
    {
      "midi": 74,
      "hit": false,
      "t": 8142.848999999999,
      "d": 71.4285000000009,
      "v": 75
    },
    {
      "midi": 70,
      "hit": false,
      "t": 8142.849,
      "d": 209.8212187499994,
      "v": 127
    },
    {
      "midi": 74,
      "hit": false,
      "t": 8142.849,
      "d": 209.8212187499994,
      "v": 127
    },
    {
      "midi": 31,
      "hit": false,
      "t": 8357.134499999998,
      "d": 209.8212187499994,
      "v": 110
    },
    {
      "midi": 70,
      "hit": false,
      "t": 8357.1345,
      "d": 209.8212187499994,
      "v": 127
    },
    {
      "midi": 74,
      "hit": false,
      "t": 8357.1345,
      "d": 209.8212187499994,
      "v": 127
    },
    {
      "midi": 58,
      "hit": false,
      "t": 8357.1345,
      "d": 71.42849999999999,
      "v": 110
    },
    {
      "midi": 62,
      "hit": false,
      "t": 8357.1345,
      "d": 71.42849999999999,
      "v": 110
    },
    {
      "midi": 65,
      "hit": false,
      "t": 8357.1345,
      "d": 71.42849999999999,
      "v": 110
    },
    {
      "midi": 62,
      "hit": false,
      "t": 8357.1345,
      "d": 71.42849999999999,
      "v": 110
    },
    {
      "midi": 65,
      "hit": false,
      "t": 8357.1345,
      "d": 71.42849999999999,
      "v": 110
    },
    {
      "midi": 70,
      "hit": false,
      "t": 8357.1345,
      "d": 71.42849999999999,
      "v": 110
    },
    {
      "midi": 42,
      "hit": false,
      "t": 8357.1345,
      "d": 209.8212187499994,
      "v": 110
    },
    {
      "midi": 70,
      "hit": false,
      "t": 8357.1345,
      "d": 71.42849999999999,
      "v": 75
    },
    {
      "midi": 74,
      "hit": false,
      "t": 8357.1345,
      "d": 71.42849999999999,
      "v": 75
    },
    {
      "midi": 36,
      "hit": false,
      "t": 8571.419999999998,
      "d": 209.8212187499994,
      "v": 110
    },
    {
      "midi": 67,
      "hit": false,
      "t": 8571.42,
      "d": 209.8212187499994,
      "v": 127
    },
    {
      "midi": 72,
      "hit": false,
      "t": 8571.42,
      "d": 209.8212187499994,
      "v": 127
    },
    {
      "midi": 36,
      "hit": false,
      "t": 8571.42,
      "d": 209.8212187499994,
      "v": 110
    },
    {
      "midi": 42,
      "hit": false,
      "t": 8571.42,
      "d": 209.8212187499994,
      "v": 75
    },
    {
      "midi": 67,
      "hit": false,
      "t": 8571.42,
      "d": 71.42849999999999,
      "v": 75
    },
    {
      "midi": 72,
      "hit": false,
      "t": 8571.42,
      "d": 71.42849999999999,
      "v": 75
    },
    {
      "midi": 67,
      "hit": false,
      "t": 8785.7055,
      "d": 209.8212187499994,
      "v": 127
    },
    {
      "midi": 72,
      "hit": false,
      "t": 8785.7055,
      "d": 209.8212187499994,
      "v": 127
    },
    {
      "midi": 60,
      "hit": false,
      "t": 8785.7055,
      "d": 71.42849999999999,
      "v": 110
    },
    {
      "midi": 64,
      "hit": false,
      "t": 8785.7055,
      "d": 71.42849999999999,
      "v": 110
    },
    {
      "midi": 67,
      "hit": false,
      "t": 8785.7055,
      "d": 71.42849999999999,
      "v": 110
    },
    {
      "midi": 64,
      "hit": false,
      "t": 8785.7055,
      "d": 71.42849999999999,
      "v": 110
    },
    {
      "midi": 67,
      "hit": false,
      "t": 8785.7055,
      "d": 71.42849999999999,
      "v": 110
    },
    {
      "midi": 72,
      "hit": false,
      "t": 8785.7055,
      "d": 71.42849999999999,
      "v": 110
    },
    {
      "midi": 46,
      "hit": false,
      "t": 8785.7055,
      "d": 209.8212187499994,
      "v": 110
    },
    {
      "midi": 67,
      "hit": false,
      "t": 8785.7055,
      "d": 71.42849999999999,
      "v": 75
    },
    {
      "midi": 72,
      "hit": false,
      "t": 8785.7055,
      "d": 71.42849999999999,
      "v": 75
    },
    {
      "midi": 65,
      "hit": false,
      "t": 8999.991,
      "d": 209.8212187499994,
      "v": 127
    },
    {
      "midi": 70,
      "hit": false,
      "t": 8999.991,
      "d": 209.8212187499994,
      "v": 127
    },
    {
      "midi": 40,
      "hit": false,
      "t": 8999.991,
      "d": 209.8212187499994,
      "v": 110
    },
    {
      "midi": 42,
      "hit": false,
      "t": 8999.991,
      "d": 209.8212187499994,
      "v": 75
    },
    {
      "midi": 65,
      "hit": false,
      "t": 8999.991,
      "d": 71.42849999999999,
      "v": 75
    },
    {
      "midi": 70,
      "hit": false,
      "t": 8999.991,
      "d": 71.42849999999999,
      "v": 75
    },
    {
      "midi": 31,
      "hit": false,
      "t": 9214.276499999998,
      "d": 209.8212187499994,
      "v": 110
    },
    {
      "midi": 67,
      "hit": false,
      "t": 9214.2765,
      "d": 209.8212187499994,
      "v": 127
    },
    {
      "midi": 72,
      "hit": false,
      "t": 9214.2765,
      "d": 209.8212187499994,
      "v": 127
    },
    {
      "midi": 60,
      "hit": false,
      "t": 9214.2765,
      "d": 71.42849999999999,
      "v": 110
    },
    {
      "midi": 64,
      "hit": false,
      "t": 9214.2765,
      "d": 71.42849999999999,
      "v": 110
    },
    {
      "midi": 67,
      "hit": false,
      "t": 9214.2765,
      "d": 71.42849999999999,
      "v": 110
    },
    {
      "midi": 64,
      "hit": false,
      "t": 9214.2765,
      "d": 71.42849999999999,
      "v": 110
    },
    {
      "midi": 67,
      "hit": false,
      "t": 9214.2765,
      "d": 71.42849999999999,
      "v": 110
    },
    {
      "midi": 72,
      "hit": false,
      "t": 9214.2765,
      "d": 71.42849999999999,
      "v": 110
    },
    {
      "midi": 42,
      "hit": false,
      "t": 9214.2765,
      "d": 209.8212187499994,
      "v": 110
    },
    {
      "midi": 67,
      "hit": false,
      "t": 9214.2765,
      "d": 71.42849999999999,
      "v": 75
    },
    {
      "midi": 72,
      "hit": false,
      "t": 9214.2765,
      "d": 71.42849999999999,
      "v": 75
    },
    {
      "midi": 34,
      "hit": false,
      "t": 9428.561999999998,
      "d": 357.1424999999999,
      "v": 110
    },
    {
      "midi": 36,
      "hit": false,
      "t": 9428.562,
      "d": 209.8212187499994,
      "v": 110
    },
    {
      "midi": 42,
      "hit": false,
      "t": 9428.562,
      "d": 209.8212187499994,
      "v": 75
    },
    {
      "midi": 53,
      "hit": false,
      "t": 9642.8475,
      "d": 209.8212187499994,
      "v": 110
    },
    {
      "midi": 58,
      "hit": false,
      "t": 9642.8475,
      "d": 209.8212187499994,
      "v": 110
    },
    {
      "midi": 62,
      "hit": false,
      "t": 9642.8475,
      "d": 209.8212187499994,
      "v": 110
    },
    {
      "midi": 58,
      "hit": false,
      "t": 9642.8475,
      "d": 209.8212187499994,
      "v": 110
    },
    {
      "midi": 62,
      "hit": false,
      "t": 9642.8475,
      "d": 209.8212187499994,
      "v": 110
    },
    {
      "midi": 67,
      "hit": false,
      "t": 9642.8475,
      "d": 209.8212187499994,
      "v": 110
    },
    {
      "midi": 40,
      "hit": false,
      "t": 9642.8475,
      "d": 209.8212187499994,
      "v": 110
    },
    {
      "midi": 45,
      "hit": false,
      "t": 9642.8475,
      "d": 209.8212187499994,
      "v": 110
    },
    {
      "midi": 78,
      "hit": false,
      "t": 9642.8475,
      "d": 209.8212187499994,
      "v": 127
    },
    {
      "midi": 31,
      "hit": false,
      "t": 9857.132999999998,
      "d": 357.1424999999999,
      "v": 110
    },
    {
      "midi": 58,
      "hit": false,
      "t": 9857.133,
      "d": 357.1424999999999,
      "v": 110
    },
    {
      "midi": 62,
      "hit": false,
      "t": 9857.133,
      "d": 357.1424999999999,
      "v": 110
    },
    {
      "midi": 67,
      "hit": false,
      "t": 9857.133,
      "d": 357.1424999999999,
      "v": 110
    },
    {
      "midi": 62,
      "hit": false,
      "t": 9857.133,
      "d": 357.1424999999999,
      "v": 110
    },
    {
      "midi": 67,
      "hit": false,
      "t": 9857.133,
      "d": 357.1424999999999,
      "v": 110
    },
    {
      "midi": 70,
      "hit": false,
      "t": 9857.133,
      "d": 357.1424999999999,
      "v": 110
    },
    {
      "midi": 40,
      "hit": false,
      "t": 9857.133,
      "d": 102.67846875000032,
      "v": 110
    },
    {
      "midi": 79,
      "hit": false,
      "t": 9857.133,
      "d": 357.1424999999999,
      "v": 127
    },
    {
      "midi": 40,
      "hit": false,
      "t": 9964.27575,
      "d": 102.67846875000032,
      "v": 110
    },
    {
      "midi": 40,
      "hit": false,
      "t": 10071.418500000002,
      "d": 209.8212187499994,
      "v": 110
    },
    {
      "midi": 41,
      "hit": false,
      "t": 10285.703999999998,
      "d": 209.8212187499994,
      "v": 110
    },
    {
      "midi": 36,
      "hit": false,
      "t": 10285.704000000002,
      "d": 209.8212187499994,
      "v": 110
    },
    {
      "midi": 57,
      "hit": false,
      "t": 10285.704000000002,
      "d": 209.8212187499994,
      "v": 110
    },
    {
      "midi": 72,
      "hit": false,
      "t": 10499.9895,
      "d": 102.67846875000032,
      "v": 127
    },
    {
      "midi": 77,
      "hit": false,
      "t": 10499.9895,
      "d": 102.67846875000032,
      "v": 127
    },
    {
      "midi": 60,
      "hit": false,
      "t": 10499.9895,
      "d": 71.42849999999999,
      "v": 110
    },
    {
      "midi": 65,
      "hit": false,
      "t": 10499.9895,
      "d": 71.42849999999999,
      "v": 110
    },
    {
      "midi": 69,
      "hit": false,
      "t": 10499.9895,
      "d": 71.42849999999999,
      "v": 110
    },
    {
      "midi": 69,
      "hit": false,
      "t": 10499.9895,
      "d": 71.42849999999999,
      "v": 110
    },
    {
      "midi": 72,
      "hit": false,
      "t": 10499.9895,
      "d": 71.42849999999999,
      "v": 110
    },
    {
      "midi": 77,
      "hit": false,
      "t": 10499.9895,
      "d": 71.42849999999999,
      "v": 110
    },
    {
      "midi": 72,
      "hit": false,
      "t": 10499.9895,
      "d": 71.42849999999999,
      "v": 75
    },
    {
      "midi": 77,
      "hit": false,
      "t": 10499.9895,
      "d": 71.42849999999999,
      "v": 75
    },
    {
      "midi": 46,
      "hit": false,
      "t": 10499.989500000001,
      "d": 209.8212187499994,
      "v": 110
    },
    {
      "midi": 72,
      "hit": false,
      "t": 10607.13225,
      "d": 102.67846875000032,
      "v": 127
    },
    {
      "midi": 77,
      "hit": false,
      "t": 10607.13225,
      "d": 102.67846875000032,
      "v": 127
    },
    {
      "midi": 72,
      "hit": false,
      "t": 10607.13225,
      "d": 71.42849999999999,
      "v": 75
    },
    {
      "midi": 77,
      "hit": false,
      "t": 10607.13225,
      "d": 71.42849999999999,
      "v": 75
    },
    {
      "midi": 42,
      "hit": false,
      "t": 10714.275,
      "d": 209.8212187499994,
      "v": 75
    },
    {
      "midi": 72,
      "hit": false,
      "t": 10714.275000000001,
      "d": 209.8212187499994,
      "v": 127
    },
    {
      "midi": 77,
      "hit": false,
      "t": 10714.275000000001,
      "d": 209.8212187499994,
      "v": 127
    },
    {
      "midi": 40,
      "hit": false,
      "t": 10714.275000000001,
      "d": 209.8212187499994,
      "v": 110
    },
    {
      "midi": 72,
      "hit": false,
      "t": 10714.275000000001,
      "d": 71.42849999999999,
      "v": 75
    },
    {
      "midi": 77,
      "hit": false,
      "t": 10714.275000000001,
      "d": 71.42849999999999,
      "v": 75
    },
    {
      "midi": 36,
      "hit": false,
      "t": 10928.560499999998,
      "d": 209.8212187499994,
      "v": 110
    },
    {
      "midi": 60,
      "hit": false,
      "t": 10928.5605,
      "d": 71.42849999999999,
      "v": 110
    },
    {
      "midi": 65,
      "hit": false,
      "t": 10928.5605,
      "d": 71.42849999999999,
      "v": 110
    },
    {
      "midi": 69,
      "hit": false,
      "t": 10928.5605,
      "d": 71.42849999999999,
      "v": 110
    },
    {
      "midi": 69,
      "hit": false,
      "t": 10928.5605,
      "d": 71.42849999999999,
      "v": 110
    },
    {
      "midi": 72,
      "hit": false,
      "t": 10928.5605,
      "d": 71.42849999999999,
      "v": 110
    },
    {
      "midi": 77,
      "hit": false,
      "t": 10928.5605,
      "d": 71.42849999999999,
      "v": 110
    },
    {
      "midi": 72,
      "hit": false,
      "t": 10928.560500000001,
      "d": 209.8212187499994,
      "v": 127
    },
    {
      "midi": 77,
      "hit": false,
      "t": 10928.560500000001,
      "d": 209.8212187499994,
      "v": 127
    },
    {
      "midi": 42,
      "hit": false,
      "t": 10928.560500000001,
      "d": 209.8212187499994,
      "v": 110
    },
    {
      "midi": 72,
      "hit": false,
      "t": 10928.560500000001,
      "d": 71.42849999999999,
      "v": 75
    },
    {
      "midi": 77,
      "hit": false,
      "t": 10928.560500000001,
      "d": 71.42849999999999,
      "v": 75
    },
    {
      "midi": 39,
      "hit": false,
      "t": 11142.845999999998,
      "d": 209.8212187499994,
      "v": 110
    },
    {
      "midi": 42,
      "hit": false,
      "t": 11142.846,
      "d": 209.8212187499994,
      "v": 75
    },
    {
      "midi": 70,
      "hit": false,
      "t": 11142.846000000001,
      "d": 209.8212187499994,
      "v": 127
    },
    {
      "midi": 75,
      "hit": false,
      "t": 11142.846000000001,
      "d": 209.8212187499994,
      "v": 127
    },
    {
      "midi": 36,
      "hit": false,
      "t": 11142.846000000001,
      "d": 209.8212187499994,
      "v": 110
    },
    {
      "midi": 70,
      "hit": false,
      "t": 11142.846000000001,
      "d": 71.42849999999999,
      "v": 75
    },
    {
      "midi": 75,
      "hit": false,
      "t": 11142.846000000001,
      "d": 71.42849999999999,
      "v": 75
    },
    {
      "midi": 63,
      "hit": false,
      "t": 11357.1315,
      "d": 71.42849999999999,
      "v": 110
    },
    {
      "midi": 67,
      "hit": false,
      "t": 11357.1315,
      "d": 71.42849999999999,
      "v": 110
    },
    {
      "midi": 70,
      "hit": false,
      "t": 11357.1315,
      "d": 71.42849999999999,
      "v": 110
    },
    {
      "midi": 67,
      "hit": false,
      "t": 11357.1315,
      "d": 71.42849999999999,
      "v": 110
    },
    {
      "midi": 70,
      "hit": false,
      "t": 11357.1315,
      "d": 71.42849999999999,
      "v": 110
    },
    {
      "midi": 75,
      "hit": false,
      "t": 11357.1315,
      "d": 71.42849999999999,
      "v": 110
    },
    {
      "midi": 70,
      "hit": false,
      "t": 11357.131500000001,
      "d": 209.8212187499994,
      "v": 127
    },
    {
      "midi": 75,
      "hit": false,
      "t": 11357.131500000001,
      "d": 209.8212187499994,
      "v": 127
    },
    {
      "midi": 42,
      "hit": false,
      "t": 11357.131500000001,
      "d": 209.8212187499994,
      "v": 110
    },
    {
      "midi": 70,
      "hit": false,
      "t": 11357.131500000001,
      "d": 71.42849999999999,
      "v": 75
    },
    {
      "midi": 75,
      "hit": false,
      "t": 11357.131500000001,
      "d": 71.42849999999999,
      "v": 75
    },
    {
      "midi": 42,
      "hit": false,
      "t": 11571.417,
      "d": 209.8212187499994,
      "v": 75
    },
    {
      "midi": 75,
      "hit": false,
      "t": 11571.417000000001,
      "d": 209.8212187499994,
      "v": 127
    },
    {
      "midi": 79,
      "hit": false,
      "t": 11571.417000000001,
      "d": 209.8212187499994,
      "v": 127
    },
    {
      "midi": 40,
      "hit": false,
      "t": 11571.417000000001,
      "d": 209.8212187499994,
      "v": 110
    },
    {
      "midi": 75,
      "hit": false,
      "t": 11571.417000000001,
      "d": 71.42849999999999,
      "v": 75
    },
    {
      "midi": 79,
      "hit": false,
      "t": 11571.417000000001,
      "d": 71.42849999999999,
      "v": 75
    },
    {
      "midi": 36,
      "hit": false,
      "t": 11785.702499999998,
      "d": 209.8212187499994,
      "v": 110
    },
    {
      "midi": 63,
      "hit": false,
      "t": 11785.7025,
      "d": 71.42849999999999,
      "v": 110
    },
    {
      "midi": 67,
      "hit": false,
      "t": 11785.7025,
      "d": 71.42849999999999,
      "v": 110
    },
    {
      "midi": 70,
      "hit": false,
      "t": 11785.7025,
      "d": 71.42849999999999,
      "v": 110
    },
    {
      "midi": 67,
      "hit": false,
      "t": 11785.7025,
      "d": 71.42849999999999,
      "v": 110
    },
    {
      "midi": 70,
      "hit": false,
      "t": 11785.7025,
      "d": 71.42849999999999,
      "v": 110
    },
    {
      "midi": 75,
      "hit": false,
      "t": 11785.7025,
      "d": 71.42849999999999,
      "v": 110
    },
    {
      "midi": 75,
      "hit": false,
      "t": 11785.702500000001,
      "d": 209.8212187499994,
      "v": 127
    },
    {
      "midi": 79,
      "hit": false,
      "t": 11785.702500000001,
      "d": 209.8212187499994,
      "v": 127
    },
    {
      "midi": 42,
      "hit": false,
      "t": 11785.702500000001,
      "d": 209.8212187499994,
      "v": 110
    },
    {
      "midi": 75,
      "hit": false,
      "t": 11785.702500000001,
      "d": 71.42849999999999,
      "v": 75
    },
    {
      "midi": 79,
      "hit": false,
      "t": 11785.702500000001,
      "d": 71.42849999999999,
      "v": 75
    },
    {
      "midi": 41,
      "hit": false,
      "t": 11999.987999999998,
      "d": 209.8212187499994,
      "v": 110
    },
    {
      "midi": 42,
      "hit": false,
      "t": 11999.988,
      "d": 209.8212187499994,
      "v": 75
    },
    {
      "midi": 72,
      "hit": false,
      "t": 11999.988000000001,
      "d": 209.8212187499994,
      "v": 127
    },
    {
      "midi": 77,
      "hit": false,
      "t": 11999.988000000001,
      "d": 209.8212187499994,
      "v": 127
    },
    {
      "midi": 36,
      "hit": false,
      "t": 11999.988000000001,
      "d": 209.8212187499994,
      "v": 110
    },
    {
      "midi": 72,
      "hit": false,
      "t": 11999.988000000001,
      "d": 71.42849999999999,
      "v": 75
    },
    {
      "midi": 77,
      "hit": false,
      "t": 11999.988000000001,
      "d": 71.42849999999999,
      "v": 75
    },
    {
      "midi": 60,
      "hit": false,
      "t": 12214.2735,
      "d": 71.42849999999999,
      "v": 110
    },
    {
      "midi": 65,
      "hit": false,
      "t": 12214.2735,
      "d": 71.42849999999999,
      "v": 110
    },
    {
      "midi": 69,
      "hit": false,
      "t": 12214.2735,
      "d": 71.42849999999999,
      "v": 110
    },
    {
      "midi": 69,
      "hit": false,
      "t": 12214.2735,
      "d": 71.42849999999999,
      "v": 110
    },
    {
      "midi": 72,
      "hit": false,
      "t": 12214.2735,
      "d": 71.42849999999999,
      "v": 110
    },
    {
      "midi": 77,
      "hit": false,
      "t": 12214.2735,
      "d": 71.42849999999999,
      "v": 110
    },
    {
      "midi": 72,
      "hit": false,
      "t": 12214.273500000001,
      "d": 209.8212187499994,
      "v": 127
    },
    {
      "midi": 77,
      "hit": false,
      "t": 12214.273500000001,
      "d": 209.8212187499994,
      "v": 127
    },
    {
      "midi": 46,
      "hit": false,
      "t": 12214.273500000001,
      "d": 209.8212187499994,
      "v": 110
    },
    {
      "midi": 72,
      "hit": false,
      "t": 12214.273500000001,
      "d": 71.42849999999999,
      "v": 75
    },
    {
      "midi": 77,
      "hit": false,
      "t": 12214.273500000001,
      "d": 71.42849999999999,
      "v": 75
    },
    {
      "midi": 42,
      "hit": false,
      "t": 12428.559,
      "d": 209.8212187499994,
      "v": 75
    },
    {
      "midi": 70,
      "hit": false,
      "t": 12428.559000000001,
      "d": 209.8212187499994,
      "v": 127
    },
    {
      "midi": 75,
      "hit": false,
      "t": 12428.559000000001,
      "d": 209.8212187499994,
      "v": 127
    },
    {
      "midi": 40,
      "hit": false,
      "t": 12428.559000000001,
      "d": 209.8212187499994,
      "v": 110
    },
    {
      "midi": 70,
      "hit": false,
      "t": 12428.559000000001,
      "d": 71.42849999999999,
      "v": 75
    },
    {
      "midi": 75,
      "hit": false,
      "t": 12428.559000000001,
      "d": 71.42849999999999,
      "v": 75
    },
    {
      "midi": 36,
      "hit": false,
      "t": 12642.844499999997,
      "d": 209.8212187499994,
      "v": 110
    },
    {
      "midi": 60,
      "hit": false,
      "t": 12642.8445,
      "d": 71.42849999999999,
      "v": 110
    },
    {
      "midi": 65,
      "hit": false,
      "t": 12642.8445,
      "d": 71.42849999999999,
      "v": 110
    },
    {
      "midi": 69,
      "hit": false,
      "t": 12642.8445,
      "d": 71.42849999999999,
      "v": 110
    },
    {
      "midi": 69,
      "hit": false,
      "t": 12642.8445,
      "d": 71.42849999999999,
      "v": 110
    },
    {
      "midi": 72,
      "hit": false,
      "t": 12642.8445,
      "d": 71.42849999999999,
      "v": 110
    },
    {
      "midi": 77,
      "hit": false,
      "t": 12642.8445,
      "d": 71.42849999999999,
      "v": 110
    },
    {
      "midi": 72,
      "hit": false,
      "t": 12642.844500000001,
      "d": 209.8212187499994,
      "v": 127
    },
    {
      "midi": 77,
      "hit": false,
      "t": 12642.844500000001,
      "d": 209.8212187499994,
      "v": 127
    },
    {
      "midi": 42,
      "hit": false,
      "t": 12642.844500000001,
      "d": 209.8212187499994,
      "v": 110
    },
    {
      "midi": 72,
      "hit": false,
      "t": 12642.844500000001,
      "d": 71.42849999999999,
      "v": 75
    },
    {
      "midi": 77,
      "hit": false,
      "t": 12642.844500000001,
      "d": 71.42849999999999,
      "v": 75
    },
    {
      "midi": 39,
      "hit": false,
      "t": 12857.129999999997,
      "d": 357.1424999999999,
      "v": 110
    },
    {
      "midi": 42,
      "hit": false,
      "t": 12857.13,
      "d": 209.8212187499994,
      "v": 75
    },
    {
      "midi": 72,
      "hit": false,
      "t": 12857.130000000001,
      "d": 749.9992500000008,
      "v": 127
    },
    {
      "midi": 36,
      "hit": false,
      "t": 12857.130000000001,
      "d": 209.8212187499994,
      "v": 110
    },
    {
      "midi": 72,
      "hit": false,
      "t": 12857.130000000001,
      "d": 214.28549999999996,
      "v": 75
    },
    {
      "midi": 63,
      "hit": false,
      "t": 13071.4155,
      "d": 209.8212187499994,
      "v": 110
    },
    {
      "midi": 67,
      "hit": false,
      "t": 13071.4155,
      "d": 209.8212187499994,
      "v": 110
    },
    {
      "midi": 70,
      "hit": false,
      "t": 13071.4155,
      "d": 209.8212187499994,
      "v": 110
    },
    {
      "midi": 67,
      "hit": false,
      "t": 13071.4155,
      "d": 209.8212187499994,
      "v": 110
    },
    {
      "midi": 70,
      "hit": false,
      "t": 13071.4155,
      "d": 209.8212187499994,
      "v": 110
    },
    {
      "midi": 72,
      "hit": false,
      "t": 13071.4155,
      "d": 209.8212187499994,
      "v": 110
    },
    {
      "midi": 79,
      "hit": false,
      "t": 13071.4155,
      "d": 209.8212187499994,
      "v": 127
    },
    {
      "midi": 45,
      "hit": false,
      "t": 13071.415500000001,
      "d": 209.8212187499994,
      "v": 110
    },
    {
      "midi": 36,
      "hit": false,
      "t": 13285.700999999997,
      "d": 357.1424999999999,
      "v": 110
    },
    {
      "midi": 63,
      "hit": false,
      "t": 13285.701,
      "d": 357.1424999999999,
      "v": 110
    },
    {
      "midi": 69,
      "hit": false,
      "t": 13285.701,
      "d": 357.1424999999999,
      "v": 110
    },
    {
      "midi": 72,
      "hit": false,
      "t": 13285.701,
      "d": 357.1424999999999,
      "v": 110
    },
    {
      "midi": 65,
      "hit": false,
      "t": 13285.701,
      "d": 357.1424999999999,
      "v": 110
    },
    {
      "midi": 69,
      "hit": false,
      "t": 13285.701,
      "d": 357.1424999999999,
      "v": 110
    },
    {
      "midi": 75,
      "hit": false,
      "t": 13285.701,
      "d": 357.1424999999999,
      "v": 110
    },
    {
      "midi": 42,
      "hit": false,
      "t": 13285.701,
      "d": 209.8212187499994,
      "v": 75
    },
    {
      "midi": 78,
      "hit": false,
      "t": 13285.701,
      "d": 357.1424999999999,
      "v": 127
    },
    {
      "midi": 40,
      "hit": false,
      "t": 13285.701000000001,
      "d": 209.8212187499994,
      "v": 110
    },
    {
      "midi": 43,
      "hit": false,
      "t": 13285.701000000001,
      "d": 209.8212187499994,
      "v": 110
    },
    {
      "midi": 41,
      "hit": false,
      "t": 13499.9865,
      "d": 209.8212187499994,
      "v": 110
    },
    {
      "midi": 36,
      "hit": false,
      "t": 13714.271999999997,
      "d": 209.8212187499994,
      "v": 110
    },
    {
      "midi": 36,
      "hit": false,
      "t": 13714.272,
      "d": 209.8212187499994,
      "v": 110
    },
    {
      "midi": 57,
      "hit": false,
      "t": 13714.272,
      "d": 209.8212187499994,
      "v": 110
    },
    {
      "midi": 60,
      "hit": false,
      "t": 13928.557499999999,
      "d": 71.42849999999999,
      "v": 110
    },
    {
      "midi": 64,
      "hit": false,
      "t": 13928.557499999999,
      "d": 71.42849999999999,
      "v": 110
    },
    {
      "midi": 67,
      "hit": false,
      "t": 13928.557499999999,
      "d": 71.42849999999999,
      "v": 110
    },
    {
      "midi": 64,
      "hit": false,
      "t": 13928.557499999999,
      "d": 71.42849999999999,
      "v": 110
    },
    {
      "midi": 67,
      "hit": false,
      "t": 13928.557499999999,
      "d": 71.42849999999999,
      "v": 110
    },
    {
      "midi": 72,
      "hit": false,
      "t": 13928.557499999999,
      "d": 71.42849999999999,
      "v": 110
    },
    {
      "midi": 46,
      "hit": false,
      "t": 13928.5575,
      "d": 209.8212187499994,
      "v": 110
    },
    {
      "midi": 67,
      "hit": false,
      "t": 13928.5575,
      "d": 71.42849999999999,
      "v": 75
    },
    {
      "midi": 72,
      "hit": false,
      "t": 13928.5575,
      "d": 71.42849999999999,
      "v": 75
    },
    {
      "midi": 67,
      "hit": false,
      "t": 13928.557500000003,
      "d": 102.67846875000032,
      "v": 127
    },
    {
      "midi": 72,
      "hit": false,
      "t": 13928.557500000003,
      "d": 102.67846875000032,
      "v": 127
    },
    {
      "midi": 67,
      "hit": false,
      "t": 14035.700250000002,
      "d": 71.42849999999999,
      "v": 75
    },
    {
      "midi": 72,
      "hit": false,
      "t": 14035.700250000002,
      "d": 71.42849999999999,
      "v": 75
    },
    {
      "midi": 67,
      "hit": false,
      "t": 14035.700250000004,
      "d": 102.67846875000032,
      "v": 127
    },
    {
      "midi": 72,
      "hit": false,
      "t": 14035.700250000004,
      "d": 102.67846875000032,
      "v": 127
    },
    {
      "midi": 42,
      "hit": false,
      "t": 14142.842999999999,
      "d": 209.8212187499994,
      "v": 75
    },
    {
      "midi": 40,
      "hit": false,
      "t": 14142.843,
      "d": 209.8212187499994,
      "v": 110
    },
    {
      "midi": 67,
      "hit": false,
      "t": 14142.843000000003,
      "d": 71.42849999999999,
      "v": 75
    },
    {
      "midi": 72,
      "hit": false,
      "t": 14142.843000000003,
      "d": 71.42849999999999,
      "v": 75
    },
    {
      "midi": 67,
      "hit": false,
      "t": 14142.843000000004,
      "d": 209.8212187499994,
      "v": 127
    },
    {
      "midi": 72,
      "hit": false,
      "t": 14142.843000000004,
      "d": 209.8212187499994,
      "v": 127
    },
    {
      "midi": 31,
      "hit": false,
      "t": 14357.128499999997,
      "d": 209.8212187499994,
      "v": 110
    },
    {
      "midi": 60,
      "hit": false,
      "t": 14357.128499999999,
      "d": 71.42849999999999,
      "v": 110
    },
    {
      "midi": 64,
      "hit": false,
      "t": 14357.128499999999,
      "d": 71.42849999999999,
      "v": 110
    },
    {
      "midi": 67,
      "hit": false,
      "t": 14357.128499999999,
      "d": 71.42849999999999,
      "v": 110
    },
    {
      "midi": 64,
      "hit": false,
      "t": 14357.128499999999,
      "d": 71.42849999999999,
      "v": 110
    },
    {
      "midi": 67,
      "hit": false,
      "t": 14357.128499999999,
      "d": 71.42849999999999,
      "v": 110
    },
    {
      "midi": 72,
      "hit": false,
      "t": 14357.128499999999,
      "d": 71.42849999999999,
      "v": 110
    },
    {
      "midi": 42,
      "hit": false,
      "t": 14357.1285,
      "d": 209.8212187499994,
      "v": 110
    },
    {
      "midi": 67,
      "hit": false,
      "t": 14357.128500000003,
      "d": 71.42849999999999,
      "v": 75
    },
    {
      "midi": 72,
      "hit": false,
      "t": 14357.128500000003,
      "d": 71.42849999999999,
      "v": 75
    },
    {
      "midi": 67,
      "hit": false,
      "t": 14357.128500000004,
      "d": 209.8212187499994,
      "v": 127
    },
    {
      "midi": 72,
      "hit": false,
      "t": 14357.128500000004,
      "d": 209.8212187499994,
      "v": 127
    },
    {
      "midi": 34,
      "hit": false,
      "t": 14571.413999999997,
      "d": 209.8212187499994,
      "v": 110
    },
    {
      "midi": 42,
      "hit": false,
      "t": 14571.413999999999,
      "d": 209.8212187499994,
      "v": 75
    },
    {
      "midi": 36,
      "hit": false,
      "t": 14571.414,
      "d": 209.8212187499994,
      "v": 110
    },
    {
      "midi": 65,
      "hit": false,
      "t": 14571.414000000002,
      "d": 71.42849999999999,
      "v": 75
    },
    {
      "midi": 70,
      "hit": false,
      "t": 14571.414000000002,
      "d": 71.42849999999999,
      "v": 75
    },
    {
      "midi": 65,
      "hit": false,
      "t": 14571.414000000004,
      "d": 209.8212187499994,
      "v": 127
    },
    {
      "midi": 70,
      "hit": false,
      "t": 14571.414000000004,
      "d": 209.8212187499994,
      "v": 127
    },
    {
      "midi": 58,
      "hit": false,
      "t": 14785.699499999999,
      "d": 71.42849999999999,
      "v": 110
    },
    {
      "midi": 62,
      "hit": false,
      "t": 14785.699499999999,
      "d": 71.42849999999999,
      "v": 110
    },
    {
      "midi": 65,
      "hit": false,
      "t": 14785.699499999999,
      "d": 71.42849999999999,
      "v": 110
    },
    {
      "midi": 62,
      "hit": false,
      "t": 14785.699499999999,
      "d": 71.42849999999999,
      "v": 110
    },
    {
      "midi": 65,
      "hit": false,
      "t": 14785.699499999999,
      "d": 71.42849999999999,
      "v": 110
    },
    {
      "midi": 70,
      "hit": false,
      "t": 14785.699499999999,
      "d": 71.42849999999999,
      "v": 110
    },
    {
      "midi": 42,
      "hit": false,
      "t": 14785.6995,
      "d": 209.8212187499994,
      "v": 110
    },
    {
      "midi": 65,
      "hit": false,
      "t": 14785.699500000002,
      "d": 71.42849999999999,
      "v": 75
    },
    {
      "midi": 70,
      "hit": false,
      "t": 14785.699500000002,
      "d": 71.42849999999999,
      "v": 75
    },
    {
      "midi": 65,
      "hit": false,
      "t": 14785.699500000004,
      "d": 209.8212187499994,
      "v": 127
    },
    {
      "midi": 70,
      "hit": false,
      "t": 14785.699500000004,
      "d": 209.8212187499994,
      "v": 127
    },
    {
      "midi": 42,
      "hit": false,
      "t": 14999.984999999999,
      "d": 209.8212187499994,
      "v": 75
    },
    {
      "midi": 40,
      "hit": false,
      "t": 14999.985,
      "d": 209.8212187499994,
      "v": 110
    },
    {
      "midi": 70,
      "hit": false,
      "t": 14999.985000000002,
      "d": 71.42849999999999,
      "v": 75
    },
    {
      "midi": 74,
      "hit": false,
      "t": 14999.985000000002,
      "d": 71.42849999999999,
      "v": 75
    },
    {
      "midi": 70,
      "hit": false,
      "t": 14999.985000000004,
      "d": 209.8212187499994,
      "v": 127
    },
    {
      "midi": 74,
      "hit": false,
      "t": 14999.985000000004,
      "d": 209.8212187499994,
      "v": 127
    },
    {
      "midi": 31,
      "hit": false,
      "t": 15214.270499999997,
      "d": 209.8212187499994,
      "v": 110
    },
    {
      "midi": 58,
      "hit": false,
      "t": 15214.270499999999,
      "d": 71.42849999999999,
      "v": 110
    },
    {
      "midi": 62,
      "hit": false,
      "t": 15214.270499999999,
      "d": 71.42849999999999,
      "v": 110
    },
    {
      "midi": 65,
      "hit": false,
      "t": 15214.270499999999,
      "d": 71.42849999999999,
      "v": 110
    },
    {
      "midi": 62,
      "hit": false,
      "t": 15214.270499999999,
      "d": 71.42849999999999,
      "v": 110
    },
    {
      "midi": 65,
      "hit": false,
      "t": 15214.270499999999,
      "d": 71.42849999999999,
      "v": 110
    },
    {
      "midi": 70,
      "hit": false,
      "t": 15214.270499999999,
      "d": 71.42849999999999,
      "v": 110
    },
    {
      "midi": 42,
      "hit": false,
      "t": 15214.2705,
      "d": 209.8212187499994,
      "v": 110
    },
    {
      "midi": 70,
      "hit": false,
      "t": 15214.270500000002,
      "d": 71.42849999999999,
      "v": 75
    },
    {
      "midi": 74,
      "hit": false,
      "t": 15214.270500000002,
      "d": 71.42849999999999,
      "v": 75
    },
    {
      "midi": 70,
      "hit": false,
      "t": 15214.270500000004,
      "d": 209.8212187499994,
      "v": 127
    },
    {
      "midi": 74,
      "hit": false,
      "t": 15214.270500000004,
      "d": 209.8212187499994,
      "v": 127
    },
    {
      "midi": 36,
      "hit": false,
      "t": 15428.555999999997,
      "d": 357.1424999999999,
      "v": 110
    },
    {
      "midi": 42,
      "hit": false,
      "t": 15428.555999999999,
      "d": 209.8212187499994,
      "v": 75
    },
    {
      "midi": 36,
      "hit": false,
      "t": 15428.556,
      "d": 209.8212187499994,
      "v": 110
    },
    {
      "midi": 67,
      "hit": false,
      "t": 15428.556000000002,
      "d": 71.42849999999999,
      "v": 75
    },
    {
      "midi": 72,
      "hit": false,
      "t": 15428.556000000002,
      "d": 71.42849999999999,
      "v": 75
    },
    {
      "midi": 67,
      "hit": false,
      "t": 15428.556000000004,
      "d": 209.8212187499994,
      "v": 127
    },
    {
      "midi": 72,
      "hit": false,
      "t": 15428.556000000004,
      "d": 209.8212187499994,
      "v": 127
    },
    {
      "midi": 60,
      "hit": false,
      "t": 15642.841499999999,
      "d": 71.42849999999999,
      "v": 110
    },
    {
      "midi": 64,
      "hit": false,
      "t": 15642.841499999999,
      "d": 71.42849999999999,
      "v": 110
    },
    {
      "midi": 67,
      "hit": false,
      "t": 15642.841499999999,
      "d": 71.42849999999999,
      "v": 110
    },
    {
      "midi": 64,
      "hit": false,
      "t": 15642.841499999999,
      "d": 71.42849999999999,
      "v": 110
    },
    {
      "midi": 67,
      "hit": false,
      "t": 15642.841499999999,
      "d": 71.42849999999999,
      "v": 110
    },
    {
      "midi": 72,
      "hit": false,
      "t": 15642.841499999999,
      "d": 71.42849999999999,
      "v": 110
    },
    {
      "midi": 46,
      "hit": false,
      "t": 15642.8415,
      "d": 209.8212187499994,
      "v": 110
    },
    {
      "midi": 67,
      "hit": false,
      "t": 15642.841500000002,
      "d": 71.42849999999999,
      "v": 75
    },
    {
      "midi": 72,
      "hit": false,
      "t": 15642.841500000002,
      "d": 71.42849999999999,
      "v": 75
    },
    {
      "midi": 67,
      "hit": false,
      "t": 15642.841500000004,
      "d": 209.8212187499994,
      "v": 127
    },
    {
      "midi": 72,
      "hit": false,
      "t": 15642.841500000004,
      "d": 209.8212187499994,
      "v": 127
    },
    {
      "midi": 34,
      "hit": false,
      "t": 15857.126999999997,
      "d": 357.1424999999999,
      "v": 110
    },
    {
      "midi": 42,
      "hit": false,
      "t": 15857.126999999999,
      "d": 209.8212187499994,
      "v": 75
    },
    {
      "midi": 40,
      "hit": false,
      "t": 15857.127,
      "d": 209.8212187499994,
      "v": 110
    },
    {
      "midi": 65,
      "hit": false,
      "t": 15857.127000000002,
      "d": 71.42849999999999,
      "v": 75
    },
    {
      "midi": 70,
      "hit": false,
      "t": 15857.127000000002,
      "d": 71.42849999999999,
      "v": 75
    },
    {
      "midi": 65,
      "hit": false,
      "t": 15857.127000000004,
      "d": 209.8212187499994,
      "v": 127
    },
    {
      "midi": 70,
      "hit": false,
      "t": 15857.127000000004,
      "d": 209.8212187499994,
      "v": 127
    },
    {
      "midi": 53,
      "hit": false,
      "t": 16071.412499999999,
      "d": 71.42849999999999,
      "v": 110
    },
    {
      "midi": 58,
      "hit": false,
      "t": 16071.412499999999,
      "d": 71.42849999999999,
      "v": 110
    },
    {
      "midi": 62,
      "hit": false,
      "t": 16071.412499999999,
      "d": 71.42849999999999,
      "v": 110
    },
    {
      "midi": 58,
      "hit": false,
      "t": 16071.412499999999,
      "d": 71.42849999999999,
      "v": 110
    },
    {
      "midi": 62,
      "hit": false,
      "t": 16071.412499999999,
      "d": 71.42849999999999,
      "v": 110
    },
    {
      "midi": 67,
      "hit": false,
      "t": 16071.412499999999,
      "d": 71.42849999999999,
      "v": 110
    },
    {
      "midi": 42,
      "hit": false,
      "t": 16071.4125,
      "d": 209.8212187499994,
      "v": 110
    },
    {
      "midi": 65,
      "hit": false,
      "t": 16071.412500000002,
      "d": 71.42849999999999,
      "v": 75
    },
    {
      "midi": 70,
      "hit": false,
      "t": 16071.412500000002,
      "d": 71.42849999999999,
      "v": 75
    },
    {
      "midi": 65,
      "hit": false,
      "t": 16071.412500000004,
      "d": 209.8212187499994,
      "v": 127
    },
    {
      "midi": 70,
      "hit": false,
      "t": 16071.412500000004,
      "d": 209.8212187499994,
      "v": 127
    },
    {
      "midi": 36,
      "hit": false,
      "t": 16285.697999999997,
      "d": 357.14250000000175,
      "v": 110
    },
    {
      "midi": 42,
      "hit": false,
      "t": 16285.697999999999,
      "d": 209.8212187500012,
      "v": 75
    },
    {
      "midi": 36,
      "hit": false,
      "t": 16285.698,
      "d": 209.8212187499994,
      "v": 110
    },
    {
      "midi": 67,
      "hit": false,
      "t": 16285.698000000002,
      "d": 214.28549999999996,
      "v": 75
    },
    {
      "midi": 72,
      "hit": false,
      "t": 16285.698000000002,
      "d": 214.28549999999996,
      "v": 75
    },
    {
      "midi": 67,
      "hit": false,
      "t": 16285.698000000004,
      "d": 749.9992500000008,
      "v": 127
    },
    {
      "midi": 72,
      "hit": false,
      "t": 16285.698000000004,
      "d": 749.9992500000008,
      "v": 127
    },
    {
      "midi": 53,
      "hit": false,
      "t": 16499.9835,
      "d": 209.8212187499994,
      "v": 110
    },
    {
      "midi": 58,
      "hit": false,
      "t": 16499.9835,
      "d": 209.8212187499994,
      "v": 110
    },
    {
      "midi": 62,
      "hit": false,
      "t": 16499.9835,
      "d": 209.8212187499994,
      "v": 110
    },
    {
      "midi": 58,
      "hit": false,
      "t": 16499.9835,
      "d": 209.8212187499994,
      "v": 110
    },
    {
      "midi": 62,
      "hit": false,
      "t": 16499.9835,
      "d": 209.8212187499994,
      "v": 110
    },
    {
      "midi": 67,
      "hit": false,
      "t": 16499.9835,
      "d": 209.8212187499994,
      "v": 110
    },
    {
      "midi": 40,
      "hit": false,
      "t": 16499.9835,
      "d": 209.8212187499994,
      "v": 110
    },
    {
      "midi": 45,
      "hit": false,
      "t": 16499.9835,
      "d": 209.8212187499994,
      "v": 110
    },
    {
      "midi": 78,
      "hit": false,
      "t": 16499.9835,
      "d": 102.67846875000032,
      "v": 127
    },
    {
      "midi": 78,
      "hit": false,
      "t": 16607.126249999998,
      "d": 102.67846875000032,
      "v": 110
    },
    {
      "midi": 58,
      "hit": false,
      "t": 16714.268999999997,
      "d": 357.14250000000175,
      "v": 110
    },
    {
      "midi": 62,
      "hit": false,
      "t": 16714.268999999997,
      "d": 357.14250000000175,
      "v": 110
    },
    {
      "midi": 67,
      "hit": false,
      "t": 16714.268999999997,
      "d": 357.14250000000175,
      "v": 110
    },
    {
      "midi": 62,
      "hit": false,
      "t": 16714.268999999997,
      "d": 357.14250000000175,
      "v": 110
    },
    {
      "midi": 67,
      "hit": false,
      "t": 16714.268999999997,
      "d": 357.14250000000175,
      "v": 110
    },
    {
      "midi": 70,
      "hit": false,
      "t": 16714.268999999997,
      "d": 357.14250000000175,
      "v": 110
    },
    {
      "midi": 40,
      "hit": false,
      "t": 16714.268999999997,
      "d": 102.67846875000032,
      "v": 110
    },
    {
      "midi": 79,
      "hit": false,
      "t": 16714.268999999997,
      "d": 357.14250000000175,
      "v": 127
    },
    {
      "midi": 29,
      "hit": false,
      "t": 16714.269,
      "d": 209.8212187499994,
      "v": 110
    },
    {
      "midi": 40,
      "hit": false,
      "t": 16821.411749999996,
      "d": 102.67846875000032,
      "v": 110
    },
    {
      "midi": 40,
      "hit": false,
      "t": 16928.554499999995,
      "d": 209.8212187499994,
      "v": 110
    },
    {
      "midi": 30,
      "hit": false,
      "t": 16928.5545,
      "d": 209.8212187499994,
      "v": 110
    },
    {
      "midi": 36,
      "hit": false,
      "t": 17142.839999999993,
      "d": 571.4279999999999,
      "v": 127
    },
    {
      "midi": 40,
      "hit": false,
      "t": 17142.839999999993,
      "d": 571.4279999999999,
      "v": 127
    },
    {
      "midi": 31,
      "hit": false,
      "t": 17142.839999999997,
      "d": 160.7141249999986,
      "v": 110
    },
    {
      "midi": 91,
      "hit": false,
      "t": 17142.84,
      "d": 160.7141249999986,
      "v": 110
    },
    {
      "midi": 95,
      "hit": false,
      "t": 17142.84,
      "d": 160.7141249999986,
      "v": 110
    },
    {
      "midi": 98,
      "hit": false,
      "t": 17142.84,
      "d": 160.7141249999986,
      "v": 110
    },
    {
      "midi": 59,
      "hit": false,
      "t": 17142.84,
      "d": 71.4285000000018,
      "v": 110
    },
    {
      "midi": 62,
      "hit": false,
      "t": 17142.84,
      "d": 71.4285000000018,
      "v": 110
    },
    {
      "midi": 67,
      "hit": false,
      "t": 17142.84,
      "d": 71.4285000000018,
      "v": 110
    },
    {
      "midi": 59,
      "hit": false,
      "t": 17142.84,
      "d": 71.4285000000018,
      "v": 110
    },
    {
      "midi": 62,
      "hit": false,
      "t": 17142.84,
      "d": 71.4285000000018,
      "v": 110
    },
    {
      "midi": 67,
      "hit": false,
      "t": 17142.84,
      "d": 71.4285000000018,
      "v": 110
    },
    {
      "midi": 79,
      "hit": false,
      "t": 17142.840000000004,
      "d": 102.67846875000032,
      "v": 127
    },
    {
      "midi": 78,
      "hit": false,
      "t": 17249.982750000003,
      "d": 102.67846875000032,
      "v": 127
    },
    {
      "midi": 77,
      "hit": false,
      "t": 17357.125500000002,
      "d": 102.67846875000032,
      "v": 127
    },
    {
      "midi": 76,
      "hit": false,
      "t": 17464.26825,
      "d": 102.67846875000032,
      "v": 127
    },
    {
      "midi": 75,
      "hit": false,
      "t": 17571.411,
      "d": 209.8212187499994,
      "v": 127
    },
    {
      "midi": 31,
      "hit": false,
      "t": 17785.696499999995,
      "d": 160.7141249999986,
      "v": 110
    },
    {
      "midi": 36,
      "hit": false,
      "t": 17785.696499999995,
      "d": 571.4279999999999,
      "v": 127
    },
    {
      "midi": 40,
      "hit": false,
      "t": 17785.696499999995,
      "d": 571.4279999999999,
      "v": 127
    },
    {
      "midi": 79,
      "hit": false,
      "t": 17785.6965,
      "d": 102.67846875000032,
      "v": 127
    },
    {
      "midi": 91,
      "hit": false,
      "t": 17785.6965,
      "d": 160.7141249999986,
      "v": 110
    },
    {
      "midi": 95,
      "hit": false,
      "t": 17785.6965,
      "d": 160.7141249999986,
      "v": 110
    },
    {
      "midi": 98,
      "hit": false,
      "t": 17785.6965,
      "d": 160.7141249999986,
      "v": 110
    },
    {
      "midi": 59,
      "hit": false,
      "t": 17785.696500000002,
      "d": 71.4285000000018,
      "v": 110
    },
    {
      "midi": 62,
      "hit": false,
      "t": 17785.696500000002,
      "d": 71.4285000000018,
      "v": 110
    },
    {
      "midi": 67,
      "hit": false,
      "t": 17785.696500000002,
      "d": 71.4285000000018,
      "v": 110
    },
    {
      "midi": 59,
      "hit": false,
      "t": 17785.696500000002,
      "d": 71.4285000000018,
      "v": 110
    },
    {
      "midi": 62,
      "hit": false,
      "t": 17785.696500000002,
      "d": 71.4285000000018,
      "v": 110
    },
    {
      "midi": 67,
      "hit": false,
      "t": 17785.696500000002,
      "d": 71.4285000000018,
      "v": 110
    },
    {
      "midi": 78,
      "hit": false,
      "t": 17892.839249999997,
      "d": 102.67846875000032,
      "v": 127
    },
    {
      "midi": 77,
      "hit": false,
      "t": 17999.981999999996,
      "d": 102.67846875000032,
      "v": 127
    },
    {
      "midi": 76,
      "hit": false,
      "t": 18107.124749999995,
      "d": 102.67846875000032,
      "v": 127
    },
    {
      "midi": 75,
      "hit": false,
      "t": 18214.267499999994,
      "d": 209.8212187499994,
      "v": 127
    },
    {
      "midi": 79,
      "hit": false,
      "t": 18428.552999999993,
      "d": 209.8212187499994,
      "v": 127
    },
    {
      "midi": 31,
      "hit": false,
      "t": 18428.552999999993,
      "d": 107.14274999999907,
      "v": 110
    },
    {
      "midi": 91,
      "hit": false,
      "t": 18428.552999999996,
      "d": 107.14274999999907,
      "v": 110
    },
    {
      "midi": 95,
      "hit": false,
      "t": 18428.552999999996,
      "d": 107.14274999999907,
      "v": 110
    },
    {
      "midi": 98,
      "hit": false,
      "t": 18428.552999999996,
      "d": 107.14274999999907,
      "v": 110
    },
    {
      "midi": 36,
      "hit": false,
      "t": 18428.552999999996,
      "d": 357.14250000000175,
      "v": 127
    },
    {
      "midi": 40,
      "hit": false,
      "t": 18428.552999999996,
      "d": 357.14250000000175,
      "v": 127
    },
    {
      "midi": 59,
      "hit": false,
      "t": 18428.553000000004,
      "d": 71.4285000000018,
      "v": 110
    },
    {
      "midi": 62,
      "hit": false,
      "t": 18428.553000000004,
      "d": 71.4285000000018,
      "v": 110
    },
    {
      "midi": 67,
      "hit": false,
      "t": 18428.553000000004,
      "d": 71.4285000000018,
      "v": 110
    },
    {
      "midi": 59,
      "hit": false,
      "t": 18428.553000000004,
      "d": 71.4285000000018,
      "v": 110
    },
    {
      "midi": 62,
      "hit": false,
      "t": 18428.553000000004,
      "d": 71.4285000000018,
      "v": 110
    },
    {
      "midi": 67,
      "hit": false,
      "t": 18428.553000000004,
      "d": 71.4285000000018,
      "v": 110
    },
    {
      "midi": 74,
      "hit": false,
      "t": 18642.83849999999,
      "d": 209.8212187499994,
      "v": 127
    },
    {
      "midi": 76,
      "hit": false,
      "t": 18857.12399999999,
      "d": 209.8212187499994,
      "v": 127
    },
    {
      "midi": 77,
      "hit": false,
      "t": 18857.12399999999,
      "d": 209.8212187499994,
      "v": 127
    },
    {
      "midi": 29,
      "hit": false,
      "t": 18857.123999999993,
      "d": 357.14250000000175,
      "v": 110
    },
    {
      "midi": 89,
      "hit": false,
      "t": 18857.123999999996,
      "d": 1607.1412500000006,
      "v": 110
    },
    {
      "midi": 93,
      "hit": false,
      "t": 18857.123999999996,
      "d": 1607.1412500000006,
      "v": 110
    },
    {
      "midi": 96,
      "hit": false,
      "t": 18857.123999999996,
      "d": 1607.1412500000006,
      "v": 110
    },
    {
      "midi": 36,
      "hit": false,
      "t": 18857.124,
      "d": 209.8212187499994,
      "v": 110
    },
    {
      "midi": 57,
      "hit": false,
      "t": 18857.124,
      "d": 209.8212187499994,
      "v": 110
    },
    {
      "midi": 53,
      "hit": false,
      "t": 18857.124000000007,
      "d": 1607.1412500000006,
      "v": 110
    },
    {
      "midi": 57,
      "hit": false,
      "t": 18857.124000000007,
      "d": 1607.1412500000006,
      "v": 110
    },
    {
      "midi": 60,
      "hit": false,
      "t": 18857.124000000007,
      "d": 1607.1412500000006,
      "v": 110
    },
    {
      "midi": 65,
      "hit": false,
      "t": 18857.124000000007,
      "d": 1607.1412500000006,
      "v": 110
    },
    {
      "midi": 53,
      "hit": false,
      "t": 18857.124000000007,
      "d": 1607.1412500000006,
      "v": 110
    },
    {
      "midi": 57,
      "hit": false,
      "t": 18857.124000000007,
      "d": 1607.1412500000006,
      "v": 110
    },
    {
      "midi": 60,
      "hit": false,
      "t": 18857.124000000007,
      "d": 1607.1412500000006,
      "v": 110
    },
    {
      "midi": 65,
      "hit": false,
      "t": 18857.124000000007,
      "d": 1607.1412500000006,
      "v": 110
    },
    {
      "midi": 72,
      "hit": false,
      "t": 19071.409499999987,
      "d": 209.8212187499994,
      "v": 127
    },
    {
      "midi": 55,
      "hit": false,
      "t": 19071.409499999998,
      "d": 209.8212187499994,
      "v": 110
    },
    {
      "midi": 46,
      "hit": false,
      "t": 19071.4095,
      "d": 209.8212187499994,
      "v": 75
    },
    {
      "midi": 72,
      "hit": false,
      "t": 19285.694999999985,
      "d": 209.8212187499994,
      "v": 127
    },
    {
      "midi": 41,
      "hit": false,
      "t": 19285.694999999996,
      "d": 209.8212187499994,
      "v": 110
    },
    {
      "midi": 40,
      "hit": false,
      "t": 19285.694999999996,
      "d": 209.8212187499994,
      "v": 110
    },
    {
      "midi": 42,
      "hit": false,
      "t": 19285.694999999996,
      "d": 209.8212187499994,
      "v": 110
    },
    {
      "midi": 76,
      "hit": false,
      "t": 19499.980499999983,
      "d": 209.8212187499994,
      "v": 127
    },
    {
      "midi": 77,
      "hit": false,
      "t": 19499.980499999983,
      "d": 209.8212187499994,
      "v": 127
    },
    {
      "midi": 41,
      "hit": false,
      "t": 19499.980499999994,
      "d": 209.8212187499994,
      "v": 110
    },
    {
      "midi": 36,
      "hit": false,
      "t": 19499.980499999994,
      "d": 209.8212187499994,
      "v": 110
    },
    {
      "midi": 55,
      "hit": false,
      "t": 19499.980499999994,
      "d": 209.8212187499994,
      "v": 110
    },
    {
      "midi": 46,
      "hit": false,
      "t": 19499.9805,
      "d": 209.8212187499994,
      "v": 75
    },
    {
      "midi": 72,
      "hit": false,
      "t": 19714.26599999998,
      "d": 209.8212187499994,
      "v": 127
    },
    {
      "midi": 39,
      "hit": false,
      "t": 19714.265999999992,
      "d": 357.14250000000175,
      "v": 110
    },
    {
      "midi": 36,
      "hit": false,
      "t": 19714.265999999992,
      "d": 209.8212187499994,
      "v": 110
    },
    {
      "midi": 42,
      "hit": false,
      "t": 19714.265999999992,
      "d": 209.8212187499994,
      "v": 110
    },
    {
      "midi": 72,
      "hit": false,
      "t": 19928.55149999998,
      "d": 209.8212187499994,
      "v": 127
    },
    {
      "midi": 55,
      "hit": false,
      "t": 19928.55149999999,
      "d": 209.8212187499994,
      "v": 110
    },
    {
      "midi": 46,
      "hit": false,
      "t": 19928.5515,
      "d": 209.8212187499994,
      "v": 75
    },
    {
      "midi": 76,
      "hit": false,
      "t": 20142.836999999978,
      "d": 209.8212187499994,
      "v": 127
    },
    {
      "midi": 77,
      "hit": false,
      "t": 20142.836999999978,
      "d": 209.8212187499994,
      "v": 127
    },
    {
      "midi": 40,
      "hit": false,
      "t": 20142.83699999999,
      "d": 209.8212187499994,
      "v": 110
    },
    {
      "midi": 42,
      "hit": false,
      "t": 20142.83699999999,
      "d": 209.8212187499994,
      "v": 110
    },
    {
      "midi": 41,
      "hit": false,
      "t": 20142.836999999996,
      "d": 357.14250000000175,
      "v": 110
    },
    {
      "midi": 72,
      "hit": false,
      "t": 20357.122499999976,
      "d": 209.8212187499994,
      "v": 127
    },
    {
      "midi": 55,
      "hit": false,
      "t": 20357.122499999987,
      "d": 209.8212187499994,
      "v": 110
    },
    {
      "midi": 46,
      "hit": false,
      "t": 20357.1225,
      "d": 209.8212187499994,
      "v": 75
    },
    {
      "midi": 79,
      "hit": false,
      "t": 20571.407999999974,
      "d": 102.67846875000032,
      "v": 127
    },
    {
      "midi": 36,
      "hit": false,
      "t": 20571.407999999985,
      "d": 571.4279999999999,
      "v": 127
    },
    {
      "midi": 40,
      "hit": false,
      "t": 20571.407999999985,
      "d": 571.4279999999999,
      "v": 127
    },
    {
      "midi": 91,
      "hit": false,
      "t": 20571.407999999996,
      "d": 160.7141249999986,
      "v": 110
    },
    {
      "midi": 95,
      "hit": false,
      "t": 20571.407999999996,
      "d": 160.7141249999986,
      "v": 110
    },
    {
      "midi": 98,
      "hit": false,
      "t": 20571.407999999996,
      "d": 160.7141249999986,
      "v": 110
    },
    {
      "midi": 31,
      "hit": false,
      "t": 20571.408,
      "d": 160.7141249999986,
      "v": 110
    },
    {
      "midi": 59,
      "hit": false,
      "t": 20571.408000000007,
      "d": 71.4285000000018,
      "v": 110
    },
    {
      "midi": 62,
      "hit": false,
      "t": 20571.408000000007,
      "d": 71.4285000000018,
      "v": 110
    },
    {
      "midi": 67,
      "hit": false,
      "t": 20571.408000000007,
      "d": 71.4285000000018,
      "v": 110
    },
    {
      "midi": 59,
      "hit": false,
      "t": 20571.408000000007,
      "d": 71.4285000000018,
      "v": 110
    },
    {
      "midi": 62,
      "hit": false,
      "t": 20571.408000000007,
      "d": 71.4285000000018,
      "v": 110
    },
    {
      "midi": 67,
      "hit": false,
      "t": 20571.408000000007,
      "d": 71.4285000000018,
      "v": 110
    },
    {
      "midi": 78,
      "hit": false,
      "t": 20678.550749999973,
      "d": 102.67846875000032,
      "v": 127
    },
    {
      "midi": 77,
      "hit": false,
      "t": 20785.693499999972,
      "d": 102.67846875000032,
      "v": 127
    },
    {
      "midi": 76,
      "hit": false,
      "t": 20892.83624999997,
      "d": 102.67846875000032,
      "v": 127
    },
    {
      "midi": 75,
      "hit": false,
      "t": 20999.97899999997,
      "d": 209.8212187499994,
      "v": 127
    },
    {
      "midi": 79,
      "hit": false,
      "t": 21214.26449999997,
      "d": 102.67846875000032,
      "v": 127
    },
    {
      "midi": 36,
      "hit": false,
      "t": 21214.264499999987,
      "d": 571.4279999999999,
      "v": 127
    },
    {
      "midi": 40,
      "hit": false,
      "t": 21214.264499999987,
      "d": 571.4279999999999,
      "v": 127
    },
    {
      "midi": 91,
      "hit": false,
      "t": 21214.264499999994,
      "d": 160.7141249999986,
      "v": 110
    },
    {
      "midi": 95,
      "hit": false,
      "t": 21214.264499999994,
      "d": 160.7141249999986,
      "v": 110
    },
    {
      "midi": 98,
      "hit": false,
      "t": 21214.264499999994,
      "d": 160.7141249999986,
      "v": 110
    },
    {
      "midi": 31,
      "hit": false,
      "t": 21214.264499999997,
      "d": 160.7141249999986,
      "v": 110
    },
    {
      "midi": 59,
      "hit": false,
      "t": 21214.26450000001,
      "d": 71.4285000000018,
      "v": 110
    },
    {
      "midi": 62,
      "hit": false,
      "t": 21214.26450000001,
      "d": 71.4285000000018,
      "v": 110
    },
    {
      "midi": 67,
      "hit": false,
      "t": 21214.26450000001,
      "d": 71.4285000000018,
      "v": 110
    },
    {
      "midi": 59,
      "hit": false,
      "t": 21214.26450000001,
      "d": 71.4285000000018,
      "v": 110
    },
    {
      "midi": 62,
      "hit": false,
      "t": 21214.26450000001,
      "d": 71.4285000000018,
      "v": 110
    },
    {
      "midi": 67,
      "hit": false,
      "t": 21214.26450000001,
      "d": 71.4285000000018,
      "v": 110
    },
    {
      "midi": 78,
      "hit": false,
      "t": 21321.407249999967,
      "d": 102.67846875000032,
      "v": 127
    },
    {
      "midi": 77,
      "hit": false,
      "t": 21428.549999999967,
      "d": 102.67846875000032,
      "v": 127
    },
    {
      "midi": 76,
      "hit": false,
      "t": 21535.692749999966,
      "d": 102.67846875000032,
      "v": 127
    },
    {
      "midi": 75,
      "hit": false,
      "t": 21642.835499999965,
      "d": 209.8212187499994,
      "v": 127
    },
    {
      "midi": 79,
      "hit": false,
      "t": 21857.120999999963,
      "d": 209.8212187499994,
      "v": 127
    },
    {
      "midi": 36,
      "hit": false,
      "t": 21857.12099999999,
      "d": 357.14250000000175,
      "v": 127
    },
    {
      "midi": 40,
      "hit": false,
      "t": 21857.12099999999,
      "d": 357.14250000000175,
      "v": 127
    },
    {
      "midi": 91,
      "hit": false,
      "t": 21857.120999999992,
      "d": 107.14274999999907,
      "v": 110
    },
    {
      "midi": 95,
      "hit": false,
      "t": 21857.120999999992,
      "d": 107.14274999999907,
      "v": 110
    },
    {
      "midi": 98,
      "hit": false,
      "t": 21857.120999999992,
      "d": 107.14274999999907,
      "v": 110
    },
    {
      "midi": 31,
      "hit": false,
      "t": 21857.120999999996,
      "d": 107.14274999999907,
      "v": 110
    },
    {
      "midi": 59,
      "hit": false,
      "t": 21857.12100000001,
      "d": 71.4285000000018,
      "v": 110
    },
    {
      "midi": 62,
      "hit": false,
      "t": 21857.12100000001,
      "d": 71.4285000000018,
      "v": 110
    },
    {
      "midi": 67,
      "hit": false,
      "t": 21857.12100000001,
      "d": 71.4285000000018,
      "v": 110
    },
    {
      "midi": 59,
      "hit": false,
      "t": 21857.12100000001,
      "d": 71.4285000000018,
      "v": 110
    },
    {
      "midi": 62,
      "hit": false,
      "t": 21857.12100000001,
      "d": 71.4285000000018,
      "v": 110
    },
    {
      "midi": 67,
      "hit": false,
      "t": 21857.12100000001,
      "d": 71.4285000000018,
      "v": 110
    },
    {
      "midi": 74,
      "hit": false,
      "t": 22071.40649999996,
      "d": 209.8212187499994,
      "v": 127
    },
    {
      "midi": 76,
      "hit": false,
      "t": 22285.69199999996,
      "d": 209.8212187499994,
      "v": 127
    },
    {
      "midi": 77,
      "hit": false,
      "t": 22285.69199999996,
      "d": 209.8212187499994,
      "v": 127
    },
    {
      "midi": 89,
      "hit": false,
      "t": 22285.691999999992,
      "d": 1607.1412500000006,
      "v": 110
    },
    {
      "midi": 93,
      "hit": false,
      "t": 22285.691999999992,
      "d": 1607.1412500000006,
      "v": 110
    },
    {
      "midi": 96,
      "hit": false,
      "t": 22285.691999999992,
      "d": 1607.1412500000006,
      "v": 110
    },
    {
      "midi": 36,
      "hit": false,
      "t": 22285.691999999992,
      "d": 209.8212187499994,
      "v": 110
    },
    {
      "midi": 57,
      "hit": false,
      "t": 22285.691999999992,
      "d": 209.8212187499994,
      "v": 110
    },
    {
      "midi": 29,
      "hit": false,
      "t": 22285.691999999995,
      "d": 357.14250000000175,
      "v": 110
    },
    {
      "midi": 53,
      "hit": false,
      "t": 22285.692000000014,
      "d": 1607.1412500000006,
      "v": 110
    },
    {
      "midi": 57,
      "hit": false,
      "t": 22285.692000000014,
      "d": 1607.1412500000006,
      "v": 110
    },
    {
      "midi": 60,
      "hit": false,
      "t": 22285.692000000014,
      "d": 1607.1412500000006,
      "v": 110
    },
    {
      "midi": 65,
      "hit": false,
      "t": 22285.692000000014,
      "d": 1607.1412500000006,
      "v": 110
    },
    {
      "midi": 53,
      "hit": false,
      "t": 22285.692000000014,
      "d": 1607.1412500000006,
      "v": 110
    },
    {
      "midi": 57,
      "hit": false,
      "t": 22285.692000000014,
      "d": 1607.1412500000006,
      "v": 110
    },
    {
      "midi": 60,
      "hit": false,
      "t": 22285.692000000014,
      "d": 1607.1412500000006,
      "v": 110
    },
    {
      "midi": 65,
      "hit": false,
      "t": 22285.692000000014,
      "d": 1607.1412500000006,
      "v": 110
    },
    {
      "midi": 72,
      "hit": false,
      "t": 22499.977499999957,
      "d": 209.8212187499994,
      "v": 127
    },
    {
      "midi": 55,
      "hit": false,
      "t": 22499.97749999999,
      "d": 209.8212187499994,
      "v": 110
    },
    {
      "midi": 46,
      "hit": false,
      "t": 22499.9775,
      "d": 209.8212187499994,
      "v": 75
    },
    {
      "midi": 72,
      "hit": false,
      "t": 22714.262999999955,
      "d": 209.8212187499994,
      "v": 127
    },
    {
      "midi": 40,
      "hit": false,
      "t": 22714.262999999988,
      "d": 209.8212187499994,
      "v": 110
    },
    {
      "midi": 42,
      "hit": false,
      "t": 22714.262999999988,
      "d": 209.8212187499994,
      "v": 110
    },
    {
      "midi": 41,
      "hit": false,
      "t": 22714.263,
      "d": 209.8212187499994,
      "v": 110
    },
    {
      "midi": 76,
      "hit": false,
      "t": 22928.548499999953,
      "d": 209.8212187499994,
      "v": 127
    },
    {
      "midi": 77,
      "hit": false,
      "t": 22928.548499999953,
      "d": 209.8212187499994,
      "v": 127
    },
    {
      "midi": 36,
      "hit": false,
      "t": 22928.548499999986,
      "d": 209.8212187499994,
      "v": 110
    },
    {
      "midi": 55,
      "hit": false,
      "t": 22928.548499999986,
      "d": 209.8212187499994,
      "v": 110
    },
    {
      "midi": 41,
      "hit": false,
      "t": 22928.548499999997,
      "d": 209.8212187499994,
      "v": 110
    },
    {
      "midi": 46,
      "hit": false,
      "t": 22928.5485,
      "d": 209.8212187499994,
      "v": 75
    },
    {
      "midi": 72,
      "hit": false,
      "t": 23142.83399999995,
      "d": 209.8212187499994,
      "v": 127
    },
    {
      "midi": 36,
      "hit": false,
      "t": 23142.833999999984,
      "d": 209.8212187499994,
      "v": 110
    },
    {
      "midi": 42,
      "hit": false,
      "t": 23142.833999999984,
      "d": 209.8212187499994,
      "v": 110
    },
    {
      "midi": 39,
      "hit": false,
      "t": 23142.833999999995,
      "d": 357.14250000000175,
      "v": 110
    },
    {
      "midi": 72,
      "hit": false,
      "t": 23357.11949999995,
      "d": 209.8212187499994,
      "v": 127
    },
    {
      "midi": 55,
      "hit": false,
      "t": 23357.119499999983,
      "d": 209.8212187499994,
      "v": 110
    },
    {
      "midi": 46,
      "hit": false,
      "t": 23357.1195,
      "d": 209.8212187499994,
      "v": 75
    },
    {
      "midi": 76,
      "hit": false,
      "t": 23571.404999999948,
      "d": 209.8212187499994,
      "v": 127
    },
    {
      "midi": 77,
      "hit": false,
      "t": 23571.404999999948,
      "d": 209.8212187499994,
      "v": 127
    },
    {
      "midi": 40,
      "hit": false,
      "t": 23571.40499999998,
      "d": 209.8212187499994,
      "v": 110
    },
    {
      "midi": 42,
      "hit": false,
      "t": 23571.40499999998,
      "d": 209.8212187499994,
      "v": 110
    },
    {
      "midi": 41,
      "hit": false,
      "t": 23571.405,
      "d": 357.14250000000175,
      "v": 110
    },
    {
      "midi": 72,
      "hit": false,
      "t": 23785.690499999946,
      "d": 209.8212187499994,
      "v": 127
    },
    {
      "midi": 55,
      "hit": false,
      "t": 23785.69049999998,
      "d": 209.8212187499994,
      "v": 110
    },
    {
      "midi": 46,
      "hit": false,
      "t": 23785.6905,
      "d": 209.8212187499994,
      "v": 75
    },
    {
      "midi": 79,
      "hit": false,
      "t": 23999.975999999944,
      "d": 102.67846875000032,
      "v": 127
    },
    {
      "midi": 36,
      "hit": false,
      "t": 23999.975999999977,
      "d": 571.4279999999999,
      "v": 127
    },
    {
      "midi": 40,
      "hit": false,
      "t": 23999.975999999977,
      "d": 571.4279999999999,
      "v": 127
    },
    {
      "midi": 91,
      "hit": false,
      "t": 23999.97599999999,
      "d": 160.7141249999986,
      "v": 110
    },
    {
      "midi": 95,
      "hit": false,
      "t": 23999.97599999999,
      "d": 160.7141249999986,
      "v": 110
    },
    {
      "midi": 98,
      "hit": false,
      "t": 23999.97599999999,
      "d": 160.7141249999986,
      "v": 110
    },
    {
      "midi": 31,
      "hit": false,
      "t": 23999.976000000002,
      "d": 160.7141249999986,
      "v": 110
    },
    {
      "midi": 59,
      "hit": false,
      "t": 23999.976000000013,
      "d": 71.4285000000018,
      "v": 110
    },
    {
      "midi": 62,
      "hit": false,
      "t": 23999.976000000013,
      "d": 71.4285000000018,
      "v": 110
    },
    {
      "midi": 67,
      "hit": false,
      "t": 23999.976000000013,
      "d": 71.4285000000018,
      "v": 110
    },
    {
      "midi": 59,
      "hit": false,
      "t": 23999.976000000013,
      "d": 71.4285000000018,
      "v": 110
    },
    {
      "midi": 62,
      "hit": false,
      "t": 23999.976000000013,
      "d": 71.4285000000018,
      "v": 110
    },
    {
      "midi": 67,
      "hit": false,
      "t": 23999.976000000013,
      "d": 71.4285000000018,
      "v": 110
    },
    {
      "midi": 78,
      "hit": false,
      "t": 24107.118749999943,
      "d": 102.67846875000032,
      "v": 127
    },
    {
      "midi": 77,
      "hit": false,
      "t": 24214.261499999942,
      "d": 102.67846875000032,
      "v": 127
    },
    {
      "midi": 76,
      "hit": false,
      "t": 24321.40424999994,
      "d": 102.67846875000032,
      "v": 127
    },
    {
      "midi": 75,
      "hit": false,
      "t": 24428.54699999994,
      "d": 209.8212187499994,
      "v": 127
    },
    {
      "midi": 79,
      "hit": false,
      "t": 24642.83249999994,
      "d": 102.67846875000032,
      "v": 127
    },
    {
      "midi": 36,
      "hit": false,
      "t": 24642.83249999998,
      "d": 571.4279999999999,
      "v": 127
    },
    {
      "midi": 40,
      "hit": false,
      "t": 24642.83249999998,
      "d": 571.4279999999999,
      "v": 127
    },
    {
      "midi": 91,
      "hit": false,
      "t": 24642.83249999999,
      "d": 160.7141249999986,
      "v": 110
    },
    {
      "midi": 95,
      "hit": false,
      "t": 24642.83249999999,
      "d": 160.7141249999986,
      "v": 110
    },
    {
      "midi": 98,
      "hit": false,
      "t": 24642.83249999999,
      "d": 160.7141249999986,
      "v": 110
    },
    {
      "midi": 31,
      "hit": false,
      "t": 24642.8325,
      "d": 160.7141249999986,
      "v": 110
    },
    {
      "midi": 59,
      "hit": false,
      "t": 24642.832500000015,
      "d": 71.4285000000018,
      "v": 110
    },
    {
      "midi": 62,
      "hit": false,
      "t": 24642.832500000015,
      "d": 71.4285000000018,
      "v": 110
    },
    {
      "midi": 67,
      "hit": false,
      "t": 24642.832500000015,
      "d": 71.4285000000018,
      "v": 110
    },
    {
      "midi": 59,
      "hit": false,
      "t": 24642.832500000015,
      "d": 71.4285000000018,
      "v": 110
    },
    {
      "midi": 62,
      "hit": false,
      "t": 24642.832500000015,
      "d": 71.4285000000018,
      "v": 110
    },
    {
      "midi": 67,
      "hit": false,
      "t": 24642.832500000015,
      "d": 71.4285000000018,
      "v": 110
    },
    {
      "midi": 78,
      "hit": false,
      "t": 24749.975249999938,
      "d": 102.67846875000032,
      "v": 127
    },
    {
      "midi": 77,
      "hit": false,
      "t": 24857.117999999937,
      "d": 102.67846875000032,
      "v": 127
    },
    {
      "midi": 76,
      "hit": false,
      "t": 24964.260749999936,
      "d": 102.67846875000032,
      "v": 127
    },
    {
      "midi": 75,
      "hit": false,
      "t": 25071.403499999935,
      "d": 209.8212187499994,
      "v": 127
    },
    {
      "midi": 79,
      "hit": false,
      "t": 25285.688999999933,
      "d": 209.8212187499994,
      "v": 127
    },
    {
      "midi": 36,
      "hit": false,
      "t": 25285.68899999998,
      "d": 357.14250000000175,
      "v": 127
    },
    {
      "midi": 40,
      "hit": false,
      "t": 25285.68899999998,
      "d": 357.14250000000175,
      "v": 127
    },
    {
      "midi": 91,
      "hit": false,
      "t": 25285.688999999988,
      "d": 107.14274999999907,
      "v": 110
    },
    {
      "midi": 95,
      "hit": false,
      "t": 25285.688999999988,
      "d": 107.14274999999907,
      "v": 110
    },
    {
      "midi": 98,
      "hit": false,
      "t": 25285.688999999988,
      "d": 107.14274999999907,
      "v": 110
    },
    {
      "midi": 31,
      "hit": false,
      "t": 25285.689,
      "d": 107.14274999999907,
      "v": 110
    },
    {
      "midi": 59,
      "hit": false,
      "t": 25285.689000000017,
      "d": 71.4285000000018,
      "v": 110
    },
    {
      "midi": 62,
      "hit": false,
      "t": 25285.689000000017,
      "d": 71.4285000000018,
      "v": 110
    },
    {
      "midi": 67,
      "hit": false,
      "t": 25285.689000000017,
      "d": 71.4285000000018,
      "v": 110
    },
    {
      "midi": 59,
      "hit": false,
      "t": 25285.689000000017,
      "d": 71.4285000000018,
      "v": 110
    },
    {
      "midi": 62,
      "hit": false,
      "t": 25285.689000000017,
      "d": 71.4285000000018,
      "v": 110
    },
    {
      "midi": 67,
      "hit": false,
      "t": 25285.689000000017,
      "d": 71.4285000000018,
      "v": 110
    },
    {
      "midi": 74,
      "hit": false,
      "t": 25499.97449999993,
      "d": 209.8212187499994,
      "v": 127
    },
    {
      "midi": 76,
      "hit": false,
      "t": 25714.25999999993,
      "d": 209.8212187499994,
      "v": 127
    },
    {
      "midi": 77,
      "hit": false,
      "t": 25714.25999999993,
      "d": 209.8212187499994,
      "v": 127
    },
    {
      "midi": 36,
      "hit": false,
      "t": 25714.259999999984,
      "d": 209.8212187499994,
      "v": 110
    },
    {
      "midi": 57,
      "hit": false,
      "t": 25714.259999999984,
      "d": 209.8212187499994,
      "v": 110
    },
    {
      "midi": 89,
      "hit": false,
      "t": 25714.259999999987,
      "d": 1607.1412500000006,
      "v": 110
    },
    {
      "midi": 93,
      "hit": false,
      "t": 25714.259999999987,
      "d": 1607.1412500000006,
      "v": 110
    },
    {
      "midi": 96,
      "hit": false,
      "t": 25714.259999999987,
      "d": 1607.1412500000006,
      "v": 110
    },
    {
      "midi": 29,
      "hit": false,
      "t": 25714.26,
      "d": 357.14250000000175,
      "v": 110
    },
    {
      "midi": 53,
      "hit": false,
      "t": 25714.26000000002,
      "d": 1607.1412500000006,
      "v": 110
    },
    {
      "midi": 57,
      "hit": false,
      "t": 25714.26000000002,
      "d": 1607.1412500000006,
      "v": 110
    },
    {
      "midi": 60,
      "hit": false,
      "t": 25714.26000000002,
      "d": 1607.1412500000006,
      "v": 110
    },
    {
      "midi": 65,
      "hit": false,
      "t": 25714.26000000002,
      "d": 1607.1412500000006,
      "v": 110
    },
    {
      "midi": 53,
      "hit": false,
      "t": 25714.26000000002,
      "d": 1607.1412500000006,
      "v": 110
    },
    {
      "midi": 57,
      "hit": false,
      "t": 25714.26000000002,
      "d": 1607.1412500000006,
      "v": 110
    },
    {
      "midi": 60,
      "hit": false,
      "t": 25714.26000000002,
      "d": 1607.1412500000006,
      "v": 110
    },
    {
      "midi": 65,
      "hit": false,
      "t": 25714.26000000002,
      "d": 1607.1412500000006,
      "v": 110
    },
    {
      "midi": 72,
      "hit": false,
      "t": 25928.545499999927,
      "d": 209.8212187499994,
      "v": 127
    },
    {
      "midi": 55,
      "hit": false,
      "t": 25928.545499999982,
      "d": 209.8212187499994,
      "v": 110
    },
    {
      "midi": 46,
      "hit": false,
      "t": 25928.5455,
      "d": 209.8212187499994,
      "v": 75
    },
    {
      "midi": 72,
      "hit": false,
      "t": 26142.830999999926,
      "d": 209.8212187499994,
      "v": 127
    },
    {
      "midi": 40,
      "hit": false,
      "t": 26142.83099999998,
      "d": 209.8212187499994,
      "v": 110
    },
    {
      "midi": 42,
      "hit": false,
      "t": 26142.83099999998,
      "d": 209.8212187499994,
      "v": 110
    },
    {
      "midi": 41,
      "hit": false,
      "t": 26142.831000000002,
      "d": 209.8212187499994,
      "v": 110
    },
    {
      "midi": 76,
      "hit": false,
      "t": 26357.116499999924,
      "d": 209.8212187499994,
      "v": 127
    },
    {
      "midi": 77,
      "hit": false,
      "t": 26357.116499999924,
      "d": 209.8212187499994,
      "v": 127
    },
    {
      "midi": 36,
      "hit": false,
      "t": 26357.11649999998,
      "d": 209.8212187499994,
      "v": 110
    },
    {
      "midi": 55,
      "hit": false,
      "t": 26357.11649999998,
      "d": 209.8212187499994,
      "v": 110
    },
    {
      "midi": 41,
      "hit": false,
      "t": 26357.1165,
      "d": 209.8212187499994,
      "v": 110
    },
    {
      "midi": 46,
      "hit": false,
      "t": 26357.1165,
      "d": 209.8212187499994,
      "v": 75
    },
    {
      "midi": 72,
      "hit": false,
      "t": 26571.401999999922,
      "d": 209.8212187499994,
      "v": 127
    },
    {
      "midi": 36,
      "hit": false,
      "t": 26571.401999999976,
      "d": 209.8212187499994,
      "v": 110
    },
    {
      "midi": 42,
      "hit": false,
      "t": 26571.401999999976,
      "d": 209.8212187499994,
      "v": 110
    },
    {
      "midi": 39,
      "hit": false,
      "t": 26571.402,
      "d": 357.14250000000175,
      "v": 110
    },
    {
      "midi": 72,
      "hit": false,
      "t": 26785.68749999992,
      "d": 209.8212187499994,
      "v": 127
    },
    {
      "midi": 55,
      "hit": false,
      "t": 26785.687499999975,
      "d": 209.8212187499994,
      "v": 110
    },
    {
      "midi": 46,
      "hit": false,
      "t": 26785.6875,
      "d": 209.8212187499994,
      "v": 75
    },
    {
      "midi": 76,
      "hit": false,
      "t": 26999.972999999918,
      "d": 209.8212187499994,
      "v": 127
    },
    {
      "midi": 77,
      "hit": false,
      "t": 26999.972999999918,
      "d": 209.8212187499994,
      "v": 127
    },
    {
      "midi": 40,
      "hit": false,
      "t": 26999.972999999973,
      "d": 209.8212187499994,
      "v": 110
    },
    {
      "midi": 42,
      "hit": false,
      "t": 26999.972999999973,
      "d": 209.8212187499994,
      "v": 110
    },
    {
      "midi": 41,
      "hit": false,
      "t": 26999.973,
      "d": 357.14250000000175,
      "v": 110
    },
    {
      "midi": 72,
      "hit": false,
      "t": 27214.258499999916,
      "d": 209.8212187499994,
      "v": 127
    },
    {
      "midi": 55,
      "hit": false,
      "t": 27214.25849999997,
      "d": 209.8212187499994,
      "v": 110
    },
    {
      "midi": 46,
      "hit": false,
      "t": 27214.2585,
      "d": 209.8212187499994,
      "v": 75
    },
    {
      "midi": 79,
      "hit": false,
      "t": 27428.543999999914,
      "d": 102.67846875000032,
      "v": 127
    },
    {
      "midi": 36,
      "hit": false,
      "t": 27428.54399999997,
      "d": 357.14250000000175,
      "v": 127
    },
    {
      "midi": 40,
      "hit": false,
      "t": 27428.54399999997,
      "d": 357.14250000000175,
      "v": 127
    },
    {
      "midi": 57,
      "hit": false,
      "t": 27428.54399999997,
      "d": 357.14250000000175,
      "v": 127
    },
    {
      "midi": 91,
      "hit": false,
      "t": 27428.543999999987,
      "d": 160.7141249999986,
      "v": 110
    },
    {
      "midi": 95,
      "hit": false,
      "t": 27428.543999999987,
      "d": 160.7141249999986,
      "v": 110
    },
    {
      "midi": 98,
      "hit": false,
      "t": 27428.543999999987,
      "d": 160.7141249999986,
      "v": 110
    },
    {
      "midi": 31,
      "hit": false,
      "t": 27428.544000000005,
      "d": 160.7141249999986,
      "v": 110
    },
    {
      "midi": 59,
      "hit": false,
      "t": 27428.54400000002,
      "d": 71.4285000000018,
      "v": 110
    },
    {
      "midi": 62,
      "hit": false,
      "t": 27428.54400000002,
      "d": 71.4285000000018,
      "v": 110
    },
    {
      "midi": 67,
      "hit": false,
      "t": 27428.54400000002,
      "d": 71.4285000000018,
      "v": 110
    },
    {
      "midi": 59,
      "hit": false,
      "t": 27428.54400000002,
      "d": 71.4285000000018,
      "v": 110
    },
    {
      "midi": 62,
      "hit": false,
      "t": 27428.54400000002,
      "d": 71.4285000000018,
      "v": 110
    },
    {
      "midi": 67,
      "hit": false,
      "t": 27428.54400000002,
      "d": 71.4285000000018,
      "v": 110
    },
    {
      "midi": 78,
      "hit": false,
      "t": 27535.686749999913,
      "d": 102.67846875000032,
      "v": 127
    },
    {
      "midi": 77,
      "hit": false,
      "t": 27642.829499999913,
      "d": 102.67846875000032,
      "v": 127
    },
    {
      "midi": 76,
      "hit": false,
      "t": 27749.97224999991,
      "d": 102.67846875000032,
      "v": 127
    },
    {
      "midi": 75,
      "hit": false,
      "t": 27857.11499999991,
      "d": 209.8212187499994,
      "v": 127
    },
    {
      "midi": 40,
      "hit": false,
      "t": 27857.114999999972,
      "d": 209.8212187499994,
      "v": 110
    },
    {
      "midi": 79,
      "hit": false,
      "t": 28071.40049999991,
      "d": 102.67846875000032,
      "v": 127
    },
    {
      "midi": 36,
      "hit": false,
      "t": 28071.40049999997,
      "d": 357.14250000000175,
      "v": 127
    },
    {
      "midi": 40,
      "hit": false,
      "t": 28071.40049999997,
      "d": 357.14250000000175,
      "v": 127
    },
    {
      "midi": 57,
      "hit": false,
      "t": 28071.40049999997,
      "d": 357.14250000000175,
      "v": 127
    },
    {
      "midi": 91,
      "hit": false,
      "t": 28071.400499999985,
      "d": 160.7141249999986,
      "v": 110
    },
    {
      "midi": 95,
      "hit": false,
      "t": 28071.400499999985,
      "d": 160.7141249999986,
      "v": 110
    },
    {
      "midi": 98,
      "hit": false,
      "t": 28071.400499999985,
      "d": 160.7141249999986,
      "v": 110
    },
    {
      "midi": 31,
      "hit": false,
      "t": 28071.400500000003,
      "d": 160.7141249999986,
      "v": 110
    },
    {
      "midi": 59,
      "hit": false,
      "t": 28071.40050000002,
      "d": 71.4285000000018,
      "v": 110
    },
    {
      "midi": 62,
      "hit": false,
      "t": 28071.40050000002,
      "d": 71.4285000000018,
      "v": 110
    },
    {
      "midi": 67,
      "hit": false,
      "t": 28071.40050000002,
      "d": 71.4285000000018,
      "v": 110
    },
    {
      "midi": 59,
      "hit": false,
      "t": 28071.40050000002,
      "d": 71.4285000000018,
      "v": 110
    },
    {
      "midi": 62,
      "hit": false,
      "t": 28071.40050000002,
      "d": 71.4285000000018,
      "v": 110
    },
    {
      "midi": 67,
      "hit": false,
      "t": 28071.40050000002,
      "d": 71.4285000000018,
      "v": 110
    },
    {
      "midi": 78,
      "hit": false,
      "t": 28178.543249999908,
      "d": 102.67846875000032,
      "v": 127
    },
    {
      "midi": 77,
      "hit": false,
      "t": 28285.685999999907,
      "d": 102.67846875000032,
      "v": 127
    },
    {
      "midi": 76,
      "hit": false,
      "t": 28392.828749999906,
      "d": 102.67846875000032,
      "v": 127
    },
    {
      "midi": 75,
      "hit": false,
      "t": 28499.971499999905,
      "d": 209.8212187499994,
      "v": 127
    },
    {
      "midi": 40,
      "hit": false,
      "t": 28499.971499999974,
      "d": 209.8212187499994,
      "v": 110
    },
    {
      "midi": 79,
      "hit": false,
      "t": 28714.256999999903,
      "d": 209.8212187499994,
      "v": 127
    },
    {
      "midi": 36,
      "hit": false,
      "t": 28714.256999999972,
      "d": 357.14250000000175,
      "v": 127
    },
    {
      "midi": 40,
      "hit": false,
      "t": 28714.256999999972,
      "d": 357.14250000000175,
      "v": 127
    },
    {
      "midi": 49,
      "hit": false,
      "t": 28714.256999999972,
      "d": 357.14250000000175,
      "v": 127
    },
    {
      "midi": 91,
      "hit": false,
      "t": 28714.256999999983,
      "d": 107.14274999999907,
      "v": 110
    },
    {
      "midi": 95,
      "hit": false,
      "t": 28714.256999999983,
      "d": 107.14274999999907,
      "v": 110
    },
    {
      "midi": 98,
      "hit": false,
      "t": 28714.256999999983,
      "d": 107.14274999999907,
      "v": 110
    },
    {
      "midi": 31,
      "hit": false,
      "t": 28714.257,
      "d": 107.14274999999907,
      "v": 110
    },
    {
      "midi": 59,
      "hit": false,
      "t": 28714.257000000023,
      "d": 71.4285000000018,
      "v": 110
    },
    {
      "midi": 62,
      "hit": false,
      "t": 28714.257000000023,
      "d": 71.4285000000018,
      "v": 110
    },
    {
      "midi": 67,
      "hit": false,
      "t": 28714.257000000023,
      "d": 71.4285000000018,
      "v": 110
    },
    {
      "midi": 59,
      "hit": false,
      "t": 28714.257000000023,
      "d": 71.4285000000018,
      "v": 110
    },
    {
      "midi": 62,
      "hit": false,
      "t": 28714.257000000023,
      "d": 71.4285000000018,
      "v": 110
    },
    {
      "midi": 67,
      "hit": false,
      "t": 28714.257000000023,
      "d": 71.4285000000018,
      "v": 110
    },
    {
      "midi": 74,
      "hit": false,
      "t": 28928.5424999999,
      "d": 209.8212187499994,
      "v": 127
    },
    {
      "midi": 76,
      "hit": false,
      "t": 29142.8279999999,
      "d": 357.14250000000175,
      "v": 127
    },
    {
      "midi": 77,
      "hit": false,
      "t": 29142.8279999999,
      "d": 357.14250000000175,
      "v": 127
    },
    {
      "midi": 36,
      "hit": false,
      "t": 29142.827999999976,
      "d": 749.9992500000008,
      "v": 110
    },
    {
      "midi": 57,
      "hit": false,
      "t": 29142.827999999976,
      "d": 749.9992500000008,
      "v": 110
    },
    {
      "midi": 89,
      "hit": false,
      "t": 29142.827999999983,
      "d": 71.4285000000018,
      "v": 110
    },
    {
      "midi": 93,
      "hit": false,
      "t": 29142.827999999983,
      "d": 71.4285000000018,
      "v": 110
    },
    {
      "midi": 96,
      "hit": false,
      "t": 29142.827999999983,
      "d": 71.4285000000018,
      "v": 110
    },
    {
      "midi": 29,
      "hit": false,
      "t": 29142.828,
      "d": 160.7141249999986,
      "v": 110
    },
    {
      "midi": 53,
      "hit": false,
      "t": 29142.828000000027,
      "d": 107.14274999999907,
      "v": 110
    },
    {
      "midi": 57,
      "hit": false,
      "t": 29142.828000000027,
      "d": 107.14274999999907,
      "v": 110
    },
    {
      "midi": 60,
      "hit": false,
      "t": 29142.828000000027,
      "d": 107.14274999999907,
      "v": 110
    },
    {
      "midi": 65,
      "hit": false,
      "t": 29142.828000000027,
      "d": 107.14274999999907,
      "v": 110
    },
    {
      "midi": 53,
      "hit": false,
      "t": 29142.828000000027,
      "d": 107.14274999999907,
      "v": 110
    },
    {
      "midi": 57,
      "hit": false,
      "t": 29142.828000000027,
      "d": 107.14274999999907,
      "v": 110
    },
    {
      "midi": 60,
      "hit": false,
      "t": 29142.828000000027,
      "d": 107.14274999999907,
      "v": 110
    },
    {
      "midi": 65,
      "hit": false,
      "t": 29142.828000000027,
      "d": 107.14274999999907,
      "v": 110
    },
    {
      "midi": 86,
      "hit": false,
      "t": 29357.113499999985,
      "d": 35.7142500000009,
      "v": 110
    },
    {
      "midi": 88,
      "hit": false,
      "t": 29392.827749999986,
      "d": 35.7142500000009,
      "v": 110
    },
    {
      "midi": 89,
      "hit": false,
      "t": 29428.541999999987,
      "d": 35.7142500000009,
      "v": 110
    },
    {
      "midi": 91,
      "hit": false,
      "t": 29464.256249999988,
      "d": 35.7142500000009,
      "v": 110
    },
    {
      "midi": 93,
      "hit": false,
      "t": 29499.97049999999,
      "d": 35.7142500000009,
      "v": 110
    },
    {
      "midi": 95,
      "hit": false,
      "t": 29535.68474999999,
      "d": 35.7142500000009,
      "v": 110
    },
    {
      "midi": 96,
      "hit": false,
      "t": 29571.39899999999,
      "d": 1785.7125000000015,
      "v": 127
    },
    {
      "midi": 29,
      "hit": false,
      "t": 29785.6845,
      "d": 209.8212187499994,
      "v": 110
    },
    {
      "midi": 47,
      "hit": false,
      "t": 29999.969999999976,
      "d": 102.67846875000032,
      "v": 110
    },
    {
      "midi": 34,
      "hit": false,
      "t": 29999.969999999998,
      "d": 357.14250000000175,
      "v": 110
    },
    {
      "midi": 47,
      "hit": false,
      "t": 30107.112749999975,
      "d": 209.8212187499994,
      "v": 110
    },
    {
      "midi": 45,
      "hit": false,
      "t": 30321.398249999973,
      "d": 209.8212187499994,
      "v": 110
    },
    {
      "midi": 35,
      "hit": false,
      "t": 30428.541,
      "d": 357.14250000000175,
      "v": 110
    },
    {
      "midi": 43,
      "hit": false,
      "t": 30535.68374999997,
      "d": 102.67846875000032,
      "v": 110
    },
    {
      "midi": 41,
      "hit": false,
      "t": 30642.82649999997,
      "d": 209.8212187499994,
      "v": 110
    },
    {
      "midi": 72,
      "hit": false,
      "t": 30857.111999999903,
      "d": 102.67846875000032,
      "v": 42
    },
    {
      "midi": 36,
      "hit": false,
      "t": 30857.11199999997,
      "d": 209.8212187499994,
      "v": 110
    },
    {
      "midi": 57,
      "hit": false,
      "t": 30857.11199999997,
      "d": 209.8212187499994,
      "v": 110
    },
    {
      "midi": 54,
      "hit": false,
      "t": 30857.112,
      "d": 102.67846875000032,
      "v": 60
    },
    {
      "midi": 60,
      "hit": false,
      "t": 30857.112,
      "d": 209.8212187499994,
      "v": 45
    },
    {
      "midi": 48,
      "hit": false,
      "t": 30857.112,
      "d": 102.67846875000032,
      "v": 60
    },
    {
      "midi": 36,
      "hit": false,
      "t": 30857.112000000005,
      "d": 357.14250000000175,
      "v": 110
    },
    {
      "midi": 48,
      "hit": false,
      "t": 30857.112000000026,
      "d": 357.14250000000175,
      "v": 92
    },
    {
      "midi": 55,
      "hit": false,
      "t": 30857.112000000026,
      "d": 357.14250000000175,
      "v": 92
    },
    {
      "midi": 60,
      "hit": false,
      "t": 30857.112000000026,
      "d": 357.14250000000175,
      "v": 92
    },
    {
      "midi": 72,
      "hit": false,
      "t": 30964.254749999902,
      "d": 102.67846875000032,
      "v": 30
    },
    {
      "midi": 54,
      "hit": false,
      "t": 30964.25475,
      "d": 102.67846875000032,
      "v": 60
    },
    {
      "midi": 60,
      "hit": false,
      "t": 30964.25475,
      "d": 102.67846875000032,
      "v": 60
    },
    {
      "midi": 64,
      "hit": false,
      "t": 30964.25475,
      "d": 102.67846875000032,
      "v": 60
    },
    {
      "midi": 67,
      "hit": false,
      "t": 30964.25475,
      "d": 102.67846875000032,
      "v": 60
    },
    {
      "midi": 72,
      "hit": false,
      "t": 30964.25475,
      "d": 102.67846875000032,
      "v": 60
    },
    {
      "midi": 72,
      "hit": false,
      "t": 31071.3974999999,
      "d": 102.67846875000032,
      "v": 42
    },
    {
      "midi": 46,
      "hit": false,
      "t": 31071.397499999966,
      "d": 209.8212187499994,
      "v": 110
    },
    {
      "midi": 54,
      "hit": false,
      "t": 31071.3975,
      "d": 102.67846875000032,
      "v": 84
    },
    {
      "midi": 60,
      "hit": false,
      "t": 31071.3975,
      "d": 102.67846875000032,
      "v": 45
    },
    {
      "midi": 48,
      "hit": false,
      "t": 31071.3975,
      "d": 102.67846875000032,
      "v": 60
    },
    {
      "midi": 64,
      "hit": false,
      "t": 31071.397500000025,
      "d": 71.4285000000018,
      "v": 92
    },
    {
      "midi": 67,
      "hit": false,
      "t": 31071.397500000025,
      "d": 71.4285000000018,
      "v": 92
    },
    {
      "midi": 72,
      "hit": false,
      "t": 31071.397500000025,
      "d": 71.4285000000018,
      "v": 92
    },
    {
      "midi": 72,
      "hit": false,
      "t": 31178.5402499999,
      "d": 102.67846875000032,
      "v": 30
    },
    {
      "midi": 54,
      "hit": false,
      "t": 31178.54025,
      "d": 102.67846875000032,
      "v": 60
    },
    {
      "midi": 60,
      "hit": false,
      "t": 31178.54025,
      "d": 102.67846875000032,
      "v": 45
    },
    {
      "midi": 48,
      "hit": false,
      "t": 31178.54025,
      "d": 102.67846875000032,
      "v": 60
    },
    {
      "midi": 72,
      "hit": false,
      "t": 31285.6829999999,
      "d": 102.67846875000032,
      "v": 30
    },
    {
      "midi": 36,
      "hit": false,
      "t": 31285.682999999965,
      "d": 209.8212187499994,
      "v": 110
    },
    {
      "midi": 40,
      "hit": false,
      "t": 31285.682999999965,
      "d": 209.8212187499994,
      "v": 110
    },
    {
      "midi": 42,
      "hit": false,
      "t": 31285.682999999965,
      "d": 209.8212187499994,
      "v": 110
    },
    {
      "midi": 54,
      "hit": false,
      "t": 31285.682999999997,
      "d": 102.67846875000032,
      "v": 60
    },
    {
      "midi": 60,
      "hit": false,
      "t": 31285.682999999997,
      "d": 102.67846875000032,
      "v": 45
    },
    {
      "midi": 60,
      "hit": false,
      "t": 31285.682999999997,
      "d": 102.67846875000032,
      "v": 60
    },
    {
      "midi": 64,
      "hit": false,
      "t": 31285.682999999997,
      "d": 102.67846875000032,
      "v": 60
    },
    {
      "midi": 67,
      "hit": false,
      "t": 31285.682999999997,
      "d": 102.67846875000032,
      "v": 60
    },
    {
      "midi": 72,
      "hit": false,
      "t": 31285.682999999997,
      "d": 102.67846875000032,
      "v": 60
    },
    {
      "midi": 72,
      "hit": false,
      "t": 31392.825749999898,
      "d": 102.67846875000032,
      "v": 42
    },
    {
      "midi": 94,
      "hit": false,
      "t": 31392.825749999993,
      "d": 102.67846875000032,
      "v": 127
    },
    {
      "midi": 54,
      "hit": false,
      "t": 31392.825749999996,
      "d": 102.67846875000032,
      "v": 60
    },
    {
      "midi": 60,
      "hit": false,
      "t": 31392.825749999996,
      "d": 209.8212187499994,
      "v": 45
    },
    {
      "midi": 48,
      "hit": false,
      "t": 31392.825749999996,
      "d": 102.67846875000032,
      "v": 60
    },
    {
      "midi": 72,
      "hit": false,
      "t": 31499.968499999897,
      "d": 102.67846875000032,
      "v": 30
    },
    {
      "midi": 46,
      "hit": false,
      "t": 31499.968499999963,
      "d": 209.8212187499994,
      "v": 110
    },
    {
      "midi": 91,
      "hit": false,
      "t": 31499.96849999999,
      "d": 102.67846875000032,
      "v": 127
    },
    {
      "midi": 54,
      "hit": false,
      "t": 31499.968499999995,
      "d": 102.67846875000032,
      "v": 84
    },
    {
      "midi": 58,
      "hit": false,
      "t": 31499.968499999995,
      "d": 102.67846875000032,
      "v": 60
    },
    {
      "midi": 62,
      "hit": false,
      "t": 31499.968499999995,
      "d": 102.67846875000032,
      "v": 60
    },
    {
      "midi": 65,
      "hit": false,
      "t": 31499.968499999995,
      "d": 102.67846875000032,
      "v": 60
    },
    {
      "midi": 70,
      "hit": false,
      "t": 31499.968499999995,
      "d": 102.67846875000032,
      "v": 60
    },
    {
      "midi": 31,
      "hit": false,
      "t": 31499.968500000006,
      "d": 209.8212187499994,
      "v": 110
    },
    {
      "midi": 64,
      "hit": false,
      "t": 31499.968500000028,
      "d": 71.4285000000018,
      "v": 92
    },
    {
      "midi": 67,
      "hit": false,
      "t": 31499.968500000028,
      "d": 71.4285000000018,
      "v": 92
    },
    {
      "midi": 72,
      "hit": false,
      "t": 31499.968500000028,
      "d": 71.4285000000018,
      "v": 92
    },
    {
      "midi": 72,
      "hit": false,
      "t": 31607.111249999896,
      "d": 102.67846875000032,
      "v": 30
    },
    {
      "midi": 96,
      "hit": false,
      "t": 31607.11124999999,
      "d": 102.67846875000032,
      "v": 127
    },
    {
      "midi": 54,
      "hit": false,
      "t": 31607.111249999994,
      "d": 102.67846875000032,
      "v": 60
    },
    {
      "midi": 60,
      "hit": false,
      "t": 31607.111249999994,
      "d": 102.67846875000032,
      "v": 45
    },
    {
      "midi": 48,
      "hit": false,
      "t": 31607.111249999994,
      "d": 102.67846875000032,
      "v": 60
    },
    {
      "midi": 70,
      "hit": false,
      "t": 31714.253999999895,
      "d": 102.67846875000032,
      "v": 42
    },
    {
      "midi": 36,
      "hit": false,
      "t": 31714.25399999996,
      "d": 209.8212187499994,
      "v": 110
    },
    {
      "midi": 42,
      "hit": false,
      "t": 31714.25399999996,
      "d": 209.8212187499994,
      "v": 110
    },
    {
      "midi": 94,
      "hit": false,
      "t": 31714.25399999999,
      "d": 102.67846875000032,
      "v": 127
    },
    {
      "midi": 54,
      "hit": false,
      "t": 31714.253999999994,
      "d": 102.67846875000032,
      "v": 60
    },
    {
      "midi": 58,
      "hit": false,
      "t": 31714.253999999994,
      "d": 209.8212187499994,
      "v": 45
    },
    {
      "midi": 46,
      "hit": false,
      "t": 31714.253999999994,
      "d": 102.67846875000032,
      "v": 60
    },
    {
      "midi": 34,
      "hit": false,
      "t": 31714.254000000004,
      "d": 357.14250000000175,
      "v": 110
    },
    {
      "midi": 70,
      "hit": false,
      "t": 31821.396749999894,
      "d": 102.67846875000032,
      "v": 30
    },
    {
      "midi": 91,
      "hit": false,
      "t": 31821.39674999999,
      "d": 102.67846875000032,
      "v": 127
    },
    {
      "midi": 54,
      "hit": false,
      "t": 31821.396749999993,
      "d": 102.67846875000032,
      "v": 60
    },
    {
      "midi": 58,
      "hit": false,
      "t": 31821.396749999993,
      "d": 102.67846875000032,
      "v": 60
    },
    {
      "midi": 62,
      "hit": false,
      "t": 31821.396749999993,
      "d": 102.67846875000032,
      "v": 60
    },
    {
      "midi": 65,
      "hit": false,
      "t": 31821.396749999993,
      "d": 102.67846875000032,
      "v": 60
    },
    {
      "midi": 70,
      "hit": false,
      "t": 31821.396749999993,
      "d": 102.67846875000032,
      "v": 60
    },
    {
      "midi": 70,
      "hit": false,
      "t": 31928.539499999893,
      "d": 102.67846875000032,
      "v": 30
    },
    {
      "midi": 46,
      "hit": false,
      "t": 31928.53949999996,
      "d": 209.8212187499994,
      "v": 110
    },
    {
      "midi": 90,
      "hit": false,
      "t": 31928.539499999988,
      "d": 102.67846875000032,
      "v": 127
    },
    {
      "midi": 54,
      "hit": false,
      "t": 31928.53949999999,
      "d": 102.67846875000032,
      "v": 84
    },
    {
      "midi": 58,
      "hit": false,
      "t": 31928.53949999999,
      "d": 102.67846875000032,
      "v": 45
    },
    {
      "midi": 46,
      "hit": false,
      "t": 31928.53949999999,
      "d": 102.67846875000032,
      "v": 60
    },
    {
      "midi": 64,
      "hit": false,
      "t": 31928.53950000003,
      "d": 71.4285000000018,
      "v": 92
    },
    {
      "midi": 67,
      "hit": false,
      "t": 31928.53950000003,
      "d": 71.4285000000018,
      "v": 92
    },
    {
      "midi": 70,
      "hit": false,
      "t": 31928.53950000003,
      "d": 71.4285000000018,
      "v": 92
    },
    {
      "midi": 70,
      "hit": false,
      "t": 32035.682249999893,
      "d": 102.67846875000032,
      "v": 42
    },
    {
      "midi": 89,
      "hit": false,
      "t": 32035.682249999987,
      "d": 102.67846875000032,
      "v": 127
    },
    {
      "midi": 54,
      "hit": false,
      "t": 32035.68224999999,
      "d": 102.67846875000032,
      "v": 60
    },
    {
      "midi": 58,
      "hit": false,
      "t": 32035.68224999999,
      "d": 209.8212187499994,
      "v": 45
    },
    {
      "midi": 46,
      "hit": false,
      "t": 32035.68224999999,
      "d": 102.67846875000032,
      "v": 60
    },
    {
      "midi": 70,
      "hit": false,
      "t": 32142.82499999989,
      "d": 102.67846875000032,
      "v": 30
    },
    {
      "midi": 36,
      "hit": false,
      "t": 32142.824999999957,
      "d": 209.8212187499994,
      "v": 110
    },
    {
      "midi": 40,
      "hit": false,
      "t": 32142.824999999957,
      "d": 209.8212187499994,
      "v": 110
    },
    {
      "midi": 42,
      "hit": false,
      "t": 32142.824999999957,
      "d": 209.8212187499994,
      "v": 110
    },
    {
      "midi": 89,
      "hit": false,
      "t": 32142.824999999986,
      "d": 49.107093750000786,
      "v": 127
    },
    {
      "midi": 54,
      "hit": false,
      "t": 32142.82499999999,
      "d": 102.67846875000032,
      "v": 60
    },
    {
      "midi": 47,
      "hit": false,
      "t": 32142.82499999999,
      "d": 102.67846875000032,
      "v": 60
    },
    {
      "midi": 90,
      "hit": false,
      "t": 32196.396374999986,
      "d": 49.107093750000786,
      "v": 127
    },
    {
      "midi": 71,
      "hit": false,
      "t": 32249.96774999989,
      "d": 102.67846875000032,
      "v": 42
    },
    {
      "midi": 89,
      "hit": false,
      "t": 32249.967749999985,
      "d": 102.67846875000032,
      "v": 127
    },
    {
      "midi": 54,
      "hit": false,
      "t": 32249.96774999999,
      "d": 102.67846875000032,
      "v": 60
    },
    {
      "midi": 58,
      "hit": false,
      "t": 32249.96774999999,
      "d": 102.67846875000032,
      "v": 45
    },
    {
      "midi": 47,
      "hit": false,
      "t": 32249.96774999999,
      "d": 102.67846875000032,
      "v": 60
    },
    {
      "midi": 71,
      "hit": false,
      "t": 32357.11049999989,
      "d": 102.67846875000032,
      "v": 30
    },
    {
      "midi": 46,
      "hit": false,
      "t": 32357.110499999955,
      "d": 209.8212187499994,
      "v": 110
    },
    {
      "midi": 87,
      "hit": false,
      "t": 32357.110499999984,
      "d": 102.67846875000032,
      "v": 127
    },
    {
      "midi": 54,
      "hit": false,
      "t": 32357.110499999988,
      "d": 102.67846875000032,
      "v": 84
    },
    {
      "midi": 59,
      "hit": false,
      "t": 32357.110499999988,
      "d": 209.8212187499994,
      "v": 45
    },
    {
      "midi": 59,
      "hit": false,
      "t": 32357.110499999988,
      "d": 102.67846875000032,
      "v": 60
    },
    {
      "midi": 63,
      "hit": false,
      "t": 32357.110499999988,
      "d": 102.67846875000032,
      "v": 60
    },
    {
      "midi": 66,
      "hit": false,
      "t": 32357.110499999988,
      "d": 102.67846875000032,
      "v": 60
    },
    {
      "midi": 71,
      "hit": false,
      "t": 32357.110499999988,
      "d": 102.67846875000032,
      "v": 60
    },
    {
      "midi": 31,
      "hit": false,
      "t": 32357.110500000006,
      "d": 209.8212187499994,
      "v": 110
    },
    {
      "midi": 47,
      "hit": false,
      "t": 32357.110500000028,
      "d": 214.28550000000178,
      "v": 92
    },
    {
      "midi": 54,
      "hit": false,
      "t": 32357.110500000028,
      "d": 214.28550000000178,
      "v": 92
    },
    {
      "midi": 59,
      "hit": false,
      "t": 32357.110500000028,
      "d": 214.28550000000178,
      "v": 92
    },
    {
      "midi": 64,
      "hit": false,
      "t": 32357.110500000035,
      "d": 71.4285000000018,
      "v": 92
    },
    {
      "midi": 67,
      "hit": false,
      "t": 32357.110500000035,
      "d": 71.4285000000018,
      "v": 92
    },
    {
      "midi": 71,
      "hit": false,
      "t": 32357.110500000035,
      "d": 71.4285000000018,
      "v": 92
    },
    {
      "midi": 71,
      "hit": false,
      "t": 32464.25324999989,
      "d": 102.67846875000032,
      "v": 30
    },
    {
      "midi": 84,
      "hit": false,
      "t": 32464.253249999983,
      "d": 102.67846875000032,
      "v": 127
    },
    {
      "midi": 54,
      "hit": false,
      "t": 32464.253249999987,
      "d": 102.67846875000032,
      "v": 60
    },
    {
      "midi": 47,
      "hit": false,
      "t": 32464.253249999987,
      "d": 102.67846875000032,
      "v": 60
    },
    {
      "midi": 72,
      "hit": false,
      "t": 32571.395999999888,
      "d": 102.67846875000032,
      "v": 42
    },
    {
      "midi": 36,
      "hit": false,
      "t": 32571.395999999953,
      "d": 209.8212187499994,
      "v": 110
    },
    {
      "midi": 42,
      "hit": false,
      "t": 32571.395999999953,
      "d": 209.8212187499994,
      "v": 110
    },
    {
      "midi": 87,
      "hit": false,
      "t": 32571.395999999982,
      "d": 102.67846875000032,
      "v": 127
    },
    {
      "midi": 54,
      "hit": false,
      "t": 32571.395999999986,
      "d": 102.67846875000032,
      "v": 60
    },
    {
      "midi": 60,
      "hit": false,
      "t": 32571.395999999986,
      "d": 209.82121875000303,
      "v": 45
    },
    {
      "midi": 48,
      "hit": false,
      "t": 32571.395999999986,
      "d": 102.67846875000032,
      "v": 60
    },
    {
      "midi": 36,
      "hit": false,
      "t": 32571.396000000004,
      "d": 357.1424999999981,
      "v": 110
    },
    {
      "midi": 48,
      "hit": false,
      "t": 32571.39600000003,
      "d": 357.14250000000175,
      "v": 92
    },
    {
      "midi": 55,
      "hit": false,
      "t": 32571.39600000003,
      "d": 357.14250000000175,
      "v": 92
    },
    {
      "midi": 60,
      "hit": false,
      "t": 32571.39600000003,
      "d": 357.14250000000175,
      "v": 92
    },
    {
      "midi": 72,
      "hit": false,
      "t": 32678.538749999887,
      "d": 102.67846875000032,
      "v": 30
    },
    {
      "midi": 89,
      "hit": false,
      "t": 32678.53874999998,
      "d": 102.67846875000032,
      "v": 127
    },
    {
      "midi": 54,
      "hit": false,
      "t": 32678.538749999985,
      "d": 102.67846874999668,
      "v": 60
    },
    {
      "midi": 60,
      "hit": false,
      "t": 32678.538749999985,
      "d": 102.67846874999668,
      "v": 60
    },
    {
      "midi": 64,
      "hit": false,
      "t": 32678.538749999985,
      "d": 102.67846874999668,
      "v": 60
    },
    {
      "midi": 67,
      "hit": false,
      "t": 32678.538749999985,
      "d": 102.67846874999668,
      "v": 60
    },
    {
      "midi": 72,
      "hit": false,
      "t": 32678.538749999985,
      "d": 102.67846874999668,
      "v": 60
    },
    {
      "midi": 72,
      "hit": false,
      "t": 32785.68149999989,
      "d": 102.67846874999668,
      "v": 42
    },
    {
      "midi": 46,
      "hit": false,
      "t": 32785.681499999955,
      "d": 209.82121875000303,
      "v": 110
    },
    {
      "midi": 87,
      "hit": false,
      "t": 32785.681499999984,
      "d": 102.67846874999668,
      "v": 127
    },
    {
      "midi": 54,
      "hit": false,
      "t": 32785.681499999984,
      "d": 102.67846874999668,
      "v": 84
    },
    {
      "midi": 48,
      "hit": false,
      "t": 32785.681499999984,
      "d": 102.67846874999668,
      "v": 60
    },
    {
      "midi": 60,
      "hit": false,
      "t": 32785.68149999999,
      "d": 102.67846874999668,
      "v": 45
    },
    {
      "midi": 64,
      "hit": false,
      "t": 32785.681500000035,
      "d": 71.4285000000018,
      "v": 92
    },
    {
      "midi": 67,
      "hit": false,
      "t": 32785.681500000035,
      "d": 71.4285000000018,
      "v": 92
    },
    {
      "midi": 72,
      "hit": false,
      "t": 32785.681500000035,
      "d": 71.4285000000018,
      "v": 92
    },
    {
      "midi": 72,
      "hit": false,
      "t": 32892.82424999989,
      "d": 102.67846874999668,
      "v": 30
    },
    {
      "midi": 90,
      "hit": false,
      "t": 32892.82424999998,
      "d": 102.67846874999668,
      "v": 127
    },
    {
      "midi": 54,
      "hit": false,
      "t": 32892.82424999998,
      "d": 102.67846874999668,
      "v": 60
    },
    {
      "midi": 48,
      "hit": false,
      "t": 32892.82424999998,
      "d": 102.67846874999668,
      "v": 60
    },
    {
      "midi": 60,
      "hit": false,
      "t": 32892.82424999999,
      "d": 102.67846874999668,
      "v": 45
    },
    {
      "midi": 72,
      "hit": false,
      "t": 32999.96699999989,
      "d": 102.67846874999668,
      "v": 30
    },
    {
      "midi": 36,
      "hit": false,
      "t": 32999.96699999996,
      "d": 209.82121875000303,
      "v": 110
    },
    {
      "midi": 40,
      "hit": false,
      "t": 32999.96699999996,
      "d": 209.82121875000303,
      "v": 110
    },
    {
      "midi": 42,
      "hit": false,
      "t": 32999.96699999996,
      "d": 209.82121875000303,
      "v": 110
    },
    {
      "midi": 90,
      "hit": false,
      "t": 32999.96699999998,
      "d": 49.10709374999715,
      "v": 127
    },
    {
      "midi": 54,
      "hit": false,
      "t": 32999.96699999998,
      "d": 102.67846874999668,
      "v": 60
    },
    {
      "midi": 60,
      "hit": false,
      "t": 32999.96699999998,
      "d": 102.67846874999668,
      "v": 60
    },
    {
      "midi": 64,
      "hit": false,
      "t": 32999.96699999998,
      "d": 102.67846874999668,
      "v": 60
    },
    {
      "midi": 67,
      "hit": false,
      "t": 32999.96699999998,
      "d": 102.67846874999668,
      "v": 60
    },
    {
      "midi": 72,
      "hit": false,
      "t": 32999.96699999998,
      "d": 102.67846874999668,
      "v": 60
    },
    {
      "midi": 60,
      "hit": false,
      "t": 32999.96699999999,
      "d": 102.67846874999668,
      "v": 45
    },
    {
      "midi": 91,
      "hit": false,
      "t": 33053.53837499998,
      "d": 156.2498437500035,
      "v": 127
    },
    {
      "midi": 72,
      "hit": false,
      "t": 33107.10974999989,
      "d": 102.67846874999668,
      "v": 42
    },
    {
      "midi": 54,
      "hit": false,
      "t": 33107.10974999998,
      "d": 102.67846874999668,
      "v": 60
    },
    {
      "midi": 43,
      "hit": false,
      "t": 33107.10974999998,
      "d": 102.67846874999668,
      "v": 60
    },
    {
      "midi": 60,
      "hit": false,
      "t": 33107.10974999999,
      "d": 209.82121875000303,
      "v": 45
    },
    {
      "midi": 72,
      "hit": false,
      "t": 33214.252499999886,
      "d": 102.67846874999668,
      "v": 30
    },
    {
      "midi": 46,
      "hit": false,
      "t": 33214.252499999966,
      "d": 209.82121875000303,
      "v": 110
    },
    {
      "midi": 54,
      "hit": false,
      "t": 33214.25249999998,
      "d": 102.67846874999668,
      "v": 84
    },
    {
      "midi": 43,
      "hit": false,
      "t": 33214.25249999998,
      "d": 102.67846874999668,
      "v": 60
    },
    {
      "midi": 90,
      "hit": false,
      "t": 33214.25249999999,
      "d": 49.10709374999715,
      "v": 127
    },
    {
      "midi": 31,
      "hit": false,
      "t": 33214.2525,
      "d": 209.82121875000303,
      "v": 110
    },
    {
      "midi": 64,
      "hit": false,
      "t": 33214.25250000004,
      "d": 71.4285000000018,
      "v": 92
    },
    {
      "midi": 67,
      "hit": false,
      "t": 33214.25250000004,
      "d": 71.4285000000018,
      "v": 92
    },
    {
      "midi": 72,
      "hit": false,
      "t": 33214.25250000004,
      "d": 71.4285000000018,
      "v": 92
    },
    {
      "midi": 91,
      "hit": false,
      "t": 33267.82387499999,
      "d": 156.2498437500035,
      "v": 127
    },
    {
      "midi": 72,
      "hit": false,
      "t": 33321.395249999885,
      "d": 102.67846874999668,
      "v": 30
    },
    {
      "midi": 54,
      "hit": false,
      "t": 33321.39524999998,
      "d": 102.67846874999668,
      "v": 60
    },
    {
      "midi": 58,
      "hit": false,
      "t": 33321.39524999998,
      "d": 102.67846874999668,
      "v": 60
    },
    {
      "midi": 62,
      "hit": false,
      "t": 33321.39524999998,
      "d": 102.67846874999668,
      "v": 60
    },
    {
      "midi": 65,
      "hit": false,
      "t": 33321.39524999998,
      "d": 102.67846874999668,
      "v": 60
    },
    {
      "midi": 70,
      "hit": false,
      "t": 33321.39524999998,
      "d": 102.67846874999668,
      "v": 60
    },
    {
      "midi": 60,
      "hit": false,
      "t": 33321.395249999994,
      "d": 102.67846874999668,
      "v": 45
    },
    {
      "midi": 70,
      "hit": false,
      "t": 33428.537999999884,
      "d": 102.67846874999668,
      "v": 42
    },
    {
      "midi": 36,
      "hit": false,
      "t": 33428.53799999997,
      "d": 209.82121875000303,
      "v": 110
    },
    {
      "midi": 42,
      "hit": false,
      "t": 33428.53799999997,
      "d": 209.82121875000303,
      "v": 110
    },
    {
      "midi": 54,
      "hit": false,
      "t": 33428.53799999998,
      "d": 102.67846874999668,
      "v": 60
    },
    {
      "midi": 46,
      "hit": false,
      "t": 33428.53799999998,
      "d": 102.67846874999668,
      "v": 60
    },
    {
      "midi": 89,
      "hit": false,
      "t": 33428.53799999999,
      "d": 49.10709374999715,
      "v": 127
    },
    {
      "midi": 58,
      "hit": false,
      "t": 33428.53799999999,
      "d": 209.82121875000303,
      "v": 45
    },
    {
      "midi": 34,
      "hit": false,
      "t": 33428.53800000001,
      "d": 357.14250000000175,
      "v": 110
    },
    {
      "midi": 90,
      "hit": false,
      "t": 33482.10937499999,
      "d": 49.10709374999715,
      "v": 127
    },
    {
      "midi": 70,
      "hit": false,
      "t": 33535.68074999988,
      "d": 102.67846874999668,
      "v": 30
    },
    {
      "midi": 54,
      "hit": false,
      "t": 33535.68074999998,
      "d": 102.67846874999668,
      "v": 60
    },
    {
      "midi": 58,
      "hit": false,
      "t": 33535.68074999998,
      "d": 102.67846874999668,
      "v": 60
    },
    {
      "midi": 62,
      "hit": false,
      "t": 33535.68074999998,
      "d": 102.67846874999668,
      "v": 60
    },
    {
      "midi": 65,
      "hit": false,
      "t": 33535.68074999998,
      "d": 102.67846874999668,
      "v": 60
    },
    {
      "midi": 70,
      "hit": false,
      "t": 33535.68074999998,
      "d": 102.67846874999668,
      "v": 60
    },
    {
      "midi": 87,
      "hit": false,
      "t": 33535.68074999999,
      "d": 102.67846874999668,
      "v": 127
    },
    {
      "midi": 70,
      "hit": false,
      "t": 33642.82349999988,
      "d": 102.67846874999668,
      "v": 30
    },
    {
      "midi": 46,
      "hit": false,
      "t": 33642.82349999998,
      "d": 209.82121875000303,
      "v": 110
    },
    {
      "midi": 36,
      "hit": false,
      "t": 33642.82349999998,
      "d": 102.67846874999668,
      "v": 84
    },
    {
      "midi": 54,
      "hit": false,
      "t": 33642.82349999998,
      "d": 102.67846874999668,
      "v": 84
    },
    {
      "midi": 46,
      "hit": false,
      "t": 33642.82349999998,
      "d": 102.67846874999668,
      "v": 60
    },
    {
      "midi": 89,
      "hit": false,
      "t": 33642.82349999999,
      "d": 102.67846874999668,
      "v": 127
    },
    {
      "midi": 58,
      "hit": false,
      "t": 33642.8235,
      "d": 102.67846874999668,
      "v": 45
    },
    {
      "midi": 64,
      "hit": false,
      "t": 33642.82350000004,
      "d": 71.4285000000018,
      "v": 92
    },
    {
      "midi": 67,
      "hit": false,
      "t": 33642.82350000004,
      "d": 71.4285000000018,
      "v": 92
    },
    {
      "midi": 70,
      "hit": false,
      "t": 33642.82350000004,
      "d": 71.4285000000018,
      "v": 92
    },
    {
      "midi": 70,
      "hit": false,
      "t": 33749.96624999988,
      "d": 102.67846874999668,
      "v": 42
    },
    {
      "midi": 54,
      "hit": false,
      "t": 33749.966249999976,
      "d": 102.67846874999668,
      "v": 60
    },
    {
      "midi": 46,
      "hit": false,
      "t": 33749.966249999976,
      "d": 102.67846874999668,
      "v": 60
    },
    {
      "midi": 87,
      "hit": false,
      "t": 33749.96624999999,
      "d": 102.67846874999668,
      "v": 127
    },
    {
      "midi": 58,
      "hit": false,
      "t": 33749.96625,
      "d": 102.67846874999668,
      "v": 45
    },
    {
      "midi": 70,
      "hit": false,
      "t": 33857.10899999988,
      "d": 102.67846874999668,
      "v": 30
    },
    {
      "midi": 54,
      "hit": false,
      "t": 33857.108999999975,
      "d": 102.67846874999668,
      "v": 60
    },
    {
      "midi": 47,
      "hit": false,
      "t": 33857.108999999975,
      "d": 102.67846874999668,
      "v": 60
    },
    {
      "midi": 36,
      "hit": false,
      "t": 33857.10899999998,
      "d": 209.82121875000303,
      "v": 110
    },
    {
      "midi": 40,
      "hit": false,
      "t": 33857.10899999998,
      "d": 209.82121875000303,
      "v": 110
    },
    {
      "midi": 42,
      "hit": false,
      "t": 33857.10899999998,
      "d": 209.82121875000303,
      "v": 110
    },
    {
      "midi": 84,
      "hit": false,
      "t": 33857.10899999999,
      "d": 102.67846874999668,
      "v": 127
    },
    {
      "midi": 58,
      "hit": false,
      "t": 33857.109,
      "d": 102.67846874999668,
      "v": 45
    },
    {
      "midi": 31,
      "hit": false,
      "t": 33857.10900000001,
      "d": 357.14250000000175,
      "v": 110
    },
    {
      "midi": 71,
      "hit": false,
      "t": 33964.25174999988,
      "d": 102.67846874999668,
      "v": 42
    },
    {
      "midi": 54,
      "hit": false,
      "t": 33964.251749999974,
      "d": 102.67846874999668,
      "v": 60
    },
    {
      "midi": 47,
      "hit": false,
      "t": 33964.251749999974,
      "d": 102.67846874999668,
      "v": 60
    },
    {
      "midi": 82,
      "hit": false,
      "t": 33964.25174999999,
      "d": 102.67846874999668,
      "v": 127
    },
    {
      "midi": 58,
      "hit": false,
      "t": 33964.251749999996,
      "d": 209.82121875000303,
      "v": 45
    },
    {
      "midi": 71,
      "hit": false,
      "t": 34071.39449999988,
      "d": 102.67846874999668,
      "v": 30
    },
    {
      "midi": 54,
      "hit": false,
      "t": 34071.39449999997,
      "d": 102.67846874999668,
      "v": 84
    },
    {
      "midi": 59,
      "hit": false,
      "t": 34071.39449999997,
      "d": 102.67846874999668,
      "v": 60
    },
    {
      "midi": 63,
      "hit": false,
      "t": 34071.39449999997,
      "d": 102.67846874999668,
      "v": 60
    },
    {
      "midi": 66,
      "hit": false,
      "t": 34071.39449999997,
      "d": 102.67846874999668,
      "v": 60
    },
    {
      "midi": 71,
      "hit": false,
      "t": 34071.39449999997,
      "d": 102.67846874999668,
      "v": 60
    },
    {
      "midi": 79,
      "hit": false,
      "t": 34071.39449999999,
      "d": 102.67846874999668,
      "v": 127
    },
    {
      "midi": 46,
      "hit": false,
      "t": 34071.39449999999,
      "d": 209.82121875000303,
      "v": 110
    },
    {
      "midi": 64,
      "hit": false,
      "t": 34071.394500000046,
      "d": 71.4285000000018,
      "v": 92
    },
    {
      "midi": 67,
      "hit": false,
      "t": 34071.394500000046,
      "d": 71.4285000000018,
      "v": 92
    },
    {
      "midi": 71,
      "hit": false,
      "t": 34071.394500000046,
      "d": 71.4285000000018,
      "v": 92
    },
    {
      "midi": 71,
      "hit": false,
      "t": 34178.53724999988,
      "d": 102.67846874999668,
      "v": 30
    },
    {
      "midi": 54,
      "hit": false,
      "t": 34178.53724999997,
      "d": 102.67846874999668,
      "v": 60
    },
    {
      "midi": 47,
      "hit": false,
      "t": 34178.53724999997,
      "d": 102.67846874999668,
      "v": 60
    },
    {
      "midi": 78,
      "hit": false,
      "t": 34178.53724999999,
      "d": 102.67846874999668,
      "v": 127
    },
    {
      "midi": 59,
      "hit": false,
      "t": 34178.53725,
      "d": 102.67846874999668,
      "v": 45
    },
    {
      "midi": 72,
      "hit": false,
      "t": 34285.67999999988,
      "d": 102.67846874999668,
      "v": 42
    },
    {
      "midi": 54,
      "hit": false,
      "t": 34285.67999999997,
      "d": 102.67846874999668,
      "v": 60
    },
    {
      "midi": 48,
      "hit": false,
      "t": 34285.67999999997,
      "d": 102.67846874999668,
      "v": 60
    },
    {
      "midi": 77,
      "hit": false,
      "t": 34285.679999999986,
      "d": 102.67846874999668,
      "v": 127
    },
    {
      "midi": 36,
      "hit": false,
      "t": 34285.67999999999,
      "d": 209.82121875000303,
      "v": 110
    },
    {
      "midi": 42,
      "hit": false,
      "t": 34285.67999999999,
      "d": 209.82121875000303,
      "v": 110
    },
    {
      "midi": 60,
      "hit": false,
      "t": 34285.68,
      "d": 209.82121875000303,
      "v": 45
    },
    {
      "midi": 36,
      "hit": false,
      "t": 34285.680000000015,
      "d": 357.14250000000175,
      "v": 110
    },
    {
      "midi": 48,
      "hit": false,
      "t": 34285.68000000003,
      "d": 357.14250000000175,
      "v": 92
    },
    {
      "midi": 55,
      "hit": false,
      "t": 34285.68000000003,
      "d": 357.14250000000175,
      "v": 92
    },
    {
      "midi": 60,
      "hit": false,
      "t": 34285.68000000003,
      "d": 357.14250000000175,
      "v": 92
    },
    {
      "midi": 72,
      "hit": false,
      "t": 34392.822749999876,
      "d": 102.67846874999668,
      "v": 30
    },
    {
      "midi": 54,
      "hit": false,
      "t": 34392.82274999997,
      "d": 102.67846874999668,
      "v": 60
    },
    {
      "midi": 60,
      "hit": false,
      "t": 34392.82274999997,
      "d": 102.67846874999668,
      "v": 60
    },
    {
      "midi": 64,
      "hit": false,
      "t": 34392.82274999997,
      "d": 102.67846874999668,
      "v": 60
    },
    {
      "midi": 67,
      "hit": false,
      "t": 34392.82274999997,
      "d": 102.67846874999668,
      "v": 60
    },
    {
      "midi": 72,
      "hit": false,
      "t": 34392.82274999997,
      "d": 102.67846874999668,
      "v": 60
    },
    {
      "midi": 78,
      "hit": false,
      "t": 34392.822749999985,
      "d": 102.67846874999668,
      "v": 127
    },
    {
      "midi": 72,
      "hit": false,
      "t": 34499.965499999875,
      "d": 102.67846874999668,
      "v": 42
    },
    {
      "midi": 54,
      "hit": false,
      "t": 34499.96549999997,
      "d": 102.67846874999668,
      "v": 84
    },
    {
      "midi": 48,
      "hit": false,
      "t": 34499.96549999997,
      "d": 102.67846874999668,
      "v": 60
    },
    {
      "midi": 79,
      "hit": false,
      "t": 34499.965499999984,
      "d": 102.67846874999668,
      "v": 127
    },
    {
      "midi": 46,
      "hit": false,
      "t": 34499.9655,
      "d": 209.82121875000303,
      "v": 110
    },
    {
      "midi": 60,
      "hit": false,
      "t": 34499.965500000006,
      "d": 102.67846874999668,
      "v": 45
    },
    {
      "midi": 64,
      "hit": false,
      "t": 34499.96550000005,
      "d": 71.4285000000018,
      "v": 92
    },
    {
      "midi": 67,
      "hit": false,
      "t": 34499.96550000005,
      "d": 71.4285000000018,
      "v": 92
    },
    {
      "midi": 72,
      "hit": false,
      "t": 34499.96550000005,
      "d": 71.4285000000018,
      "v": 92
    },
    {
      "midi": 72,
      "hit": false,
      "t": 34607.108249999874,
      "d": 102.67846874999668,
      "v": 30
    },
    {
      "midi": 54,
      "hit": false,
      "t": 34607.10824999997,
      "d": 102.67846874999668,
      "v": 60
    },
    {
      "midi": 48,
      "hit": false,
      "t": 34607.10824999997,
      "d": 102.67846874999668,
      "v": 60
    },
    {
      "midi": 72,
      "hit": false,
      "t": 34607.10824999998,
      "d": 102.67846874999668,
      "v": 127
    },
    {
      "midi": 60,
      "hit": false,
      "t": 34607.108250000005,
      "d": 102.67846874999668,
      "v": 45
    },
    {
      "midi": 72,
      "hit": false,
      "t": 34714.25099999987,
      "d": 102.67846874999668,
      "v": 30
    },
    {
      "midi": 54,
      "hit": false,
      "t": 34714.25099999997,
      "d": 102.67846874999668,
      "v": 60
    },
    {
      "midi": 60,
      "hit": false,
      "t": 34714.25099999997,
      "d": 102.67846874999668,
      "v": 60
    },
    {
      "midi": 64,
      "hit": false,
      "t": 34714.25099999997,
      "d": 102.67846874999668,
      "v": 60
    },
    {
      "midi": 67,
      "hit": false,
      "t": 34714.25099999997,
      "d": 102.67846874999668,
      "v": 60
    },
    {
      "midi": 72,
      "hit": false,
      "t": 34714.25099999997,
      "d": 102.67846874999668,
      "v": 60
    },
    {
      "midi": 75,
      "hit": false,
      "t": 34714.25099999998,
      "d": 102.67846874999668,
      "v": 127
    },
    {
      "midi": 36,
      "hit": false,
      "t": 34714.251000000004,
      "d": 209.82121875000303,
      "v": 110
    },
    {
      "midi": 40,
      "hit": false,
      "t": 34714.251000000004,
      "d": 209.82121875000303,
      "v": 110
    },
    {
      "midi": 42,
      "hit": false,
      "t": 34714.251000000004,
      "d": 209.82121875000303,
      "v": 110
    },
    {
      "midi": 60,
      "hit": false,
      "t": 34714.251000000004,
      "d": 102.67846874999668,
      "v": 45
    },
    {
      "midi": 72,
      "hit": false,
      "t": 34821.39374999987,
      "d": 102.67846874999668,
      "v": 42
    },
    {
      "midi": 54,
      "hit": false,
      "t": 34821.39374999997,
      "d": 102.67846874999668,
      "v": 60
    },
    {
      "midi": 48,
      "hit": false,
      "t": 34821.39374999997,
      "d": 102.67846874999668,
      "v": 60
    },
    {
      "midi": 77,
      "hit": false,
      "t": 34821.39374999998,
      "d": 102.67846874999668,
      "v": 127
    },
    {
      "midi": 60,
      "hit": false,
      "t": 34821.39375,
      "d": 209.82121875000303,
      "v": 45
    },
    {
      "midi": 72,
      "hit": false,
      "t": 34928.53649999987,
      "d": 102.67846874999668,
      "v": 30
    },
    {
      "midi": 54,
      "hit": false,
      "t": 34928.536499999966,
      "d": 102.67846874999668,
      "v": 84
    },
    {
      "midi": 48,
      "hit": false,
      "t": 34928.536499999966,
      "d": 102.67846874999668,
      "v": 60
    },
    {
      "midi": 79,
      "hit": false,
      "t": 34928.53649999998,
      "d": 102.67846874999668,
      "v": 127
    },
    {
      "midi": 46,
      "hit": false,
      "t": 34928.53650000001,
      "d": 209.82121875000303,
      "v": 110
    },
    {
      "midi": 31,
      "hit": false,
      "t": 34928.53650000002,
      "d": 209.82121875000303,
      "v": 110
    },
    {
      "midi": 64,
      "hit": false,
      "t": 34928.53650000005,
      "d": 71.4285000000018,
      "v": 92
    },
    {
      "midi": 67,
      "hit": false,
      "t": 34928.53650000005,
      "d": 71.4285000000018,
      "v": 92
    },
    {
      "midi": 72,
      "hit": false,
      "t": 34928.53650000005,
      "d": 71.4285000000018,
      "v": 92
    },
    {
      "midi": 72,
      "hit": false,
      "t": 35035.67924999987,
      "d": 102.67846874999668,
      "v": 30
    },
    {
      "midi": 54,
      "hit": false,
      "t": 35035.679249999965,
      "d": 102.67846874999668,
      "v": 60
    },
    {
      "midi": 58,
      "hit": false,
      "t": 35035.679249999965,
      "d": 102.67846874999668,
      "v": 60
    },
    {
      "midi": 62,
      "hit": false,
      "t": 35035.679249999965,
      "d": 102.67846874999668,
      "v": 60
    },
    {
      "midi": 65,
      "hit": false,
      "t": 35035.679249999965,
      "d": 102.67846874999668,
      "v": 60
    },
    {
      "midi": 70,
      "hit": false,
      "t": 35035.679249999965,
      "d": 102.67846874999668,
      "v": 60
    },
    {
      "midi": 75,
      "hit": false,
      "t": 35035.67924999998,
      "d": 102.67846874999668,
      "v": 127
    },
    {
      "midi": 60,
      "hit": false,
      "t": 35035.67925000001,
      "d": 102.67846874999668,
      "v": 45
    },
    {
      "midi": 70,
      "hit": false,
      "t": 35142.82199999987,
      "d": 102.67846874999668,
      "v": 42
    },
    {
      "midi": 54,
      "hit": false,
      "t": 35142.821999999964,
      "d": 102.67846874999668,
      "v": 60
    },
    {
      "midi": 46,
      "hit": false,
      "t": 35142.821999999964,
      "d": 102.67846874999668,
      "v": 60
    },
    {
      "midi": 72,
      "hit": false,
      "t": 35142.82199999998,
      "d": 102.67846874999668,
      "v": 127
    },
    {
      "midi": 58,
      "hit": false,
      "t": 35142.82200000001,
      "d": 102.67846874999668,
      "v": 45
    },
    {
      "midi": 36,
      "hit": false,
      "t": 35142.822000000015,
      "d": 209.82121875000303,
      "v": 110
    },
    {
      "midi": 42,
      "hit": false,
      "t": 35142.822000000015,
      "d": 209.82121875000303,
      "v": 110
    },
    {
      "midi": 34,
      "hit": false,
      "t": 35142.82200000002,
      "d": 357.14250000000175,
      "v": 110
    },
    {
      "midi": 70,
      "hit": false,
      "t": 35249.96474999987,
      "d": 102.67846874999668,
      "v": 30
    },
    {
      "midi": 54,
      "hit": false,
      "t": 35249.96474999996,
      "d": 102.67846874999668,
      "v": 60
    },
    {
      "midi": 46,
      "hit": false,
      "t": 35249.96474999996,
      "d": 102.67846874999668,
      "v": 60
    },
    {
      "midi": 70,
      "hit": false,
      "t": 35249.96474999998,
      "d": 102.67846874999668,
      "v": 127
    },
    {
      "midi": 58,
      "hit": false,
      "t": 35249.96475000001,
      "d": 102.67846874999668,
      "v": 45
    },
    {
      "midi": 70,
      "hit": false,
      "t": 35357.10749999987,
      "d": 102.67846874999668,
      "v": 30
    },
    {
      "midi": 54,
      "hit": false,
      "t": 35357.10749999996,
      "d": 102.67846874999668,
      "v": 84
    },
    {
      "midi": 46,
      "hit": false,
      "t": 35357.10749999996,
      "d": 102.67846874999668,
      "v": 60
    },
    {
      "midi": 67,
      "hit": false,
      "t": 35357.10749999998,
      "d": 102.67846874999668,
      "v": 127
    },
    {
      "midi": 58,
      "hit": false,
      "t": 35357.107500000006,
      "d": 209.82121875000303,
      "v": 45
    },
    {
      "midi": 46,
      "hit": false,
      "t": 35357.10750000002,
      "d": 209.82121875000303,
      "v": 110
    },
    {
      "midi": 64,
      "hit": false,
      "t": 35357.10750000006,
      "d": 71.4285000000018,
      "v": 92
    },
    {
      "midi": 67,
      "hit": false,
      "t": 35357.10750000006,
      "d": 71.4285000000018,
      "v": 92
    },
    {
      "midi": 70,
      "hit": false,
      "t": 35357.10750000006,
      "d": 71.4285000000018,
      "v": 92
    },
    {
      "midi": 70,
      "hit": false,
      "t": 35464.250249999866,
      "d": 102.67846874999668,
      "v": 42
    },
    {
      "midi": 54,
      "hit": false,
      "t": 35464.25024999996,
      "d": 102.67846874999668,
      "v": 60
    },
    {
      "midi": 46,
      "hit": false,
      "t": 35464.25024999996,
      "d": 102.67846874999668,
      "v": 60
    },
    {
      "midi": 70,
      "hit": false,
      "t": 35464.250249999975,
      "d": 102.67846874999668,
      "v": 127
    },
    {
      "midi": 70,
      "hit": false,
      "t": 35571.392999999865,
      "d": 102.67846874999668,
      "v": 30
    },
    {
      "midi": 54,
      "hit": false,
      "t": 35571.39299999996,
      "d": 102.67846874999668,
      "v": 60
    },
    {
      "midi": 47,
      "hit": false,
      "t": 35571.39299999996,
      "d": 102.67846874999668,
      "v": 60
    },
    {
      "midi": 72,
      "hit": false,
      "t": 35571.392999999975,
      "d": 102.67846874999668,
      "v": 127
    },
    {
      "midi": 59,
      "hit": false,
      "t": 35571.39300000001,
      "d": 102.67846874999668,
      "v": 45
    },
    {
      "midi": 36,
      "hit": false,
      "t": 35571.393000000025,
      "d": 102.67846874999668,
      "v": 110
    },
    {
      "midi": 40,
      "hit": false,
      "t": 35571.393000000025,
      "d": 102.67846874999668,
      "v": 110
    },
    {
      "midi": 42,
      "hit": false,
      "t": 35571.393000000025,
      "d": 102.67846874999668,
      "v": 110
    },
    {
      "midi": 71,
      "hit": false,
      "t": 35678.535749999864,
      "d": 102.67846874999668,
      "v": 42
    },
    {
      "midi": 54,
      "hit": false,
      "t": 35678.53574999996,
      "d": 102.67846874999668,
      "v": 60
    },
    {
      "midi": 47,
      "hit": false,
      "t": 35678.53574999996,
      "d": 102.67846874999668,
      "v": 60
    },
    {
      "midi": 75,
      "hit": false,
      "t": 35678.53574999997,
      "d": 102.67846874999668,
      "v": 127
    },
    {
      "midi": 59,
      "hit": false,
      "t": 35678.53575000001,
      "d": 209.82121875000303,
      "v": 45
    },
    {
      "midi": 40,
      "hit": false,
      "t": 35678.535750000025,
      "d": 102.67846874999668,
      "v": 110
    },
    {
      "midi": 71,
      "hit": false,
      "t": 35785.67849999986,
      "d": 102.67846874999668,
      "v": 30
    },
    {
      "midi": 54,
      "hit": false,
      "t": 35785.67849999996,
      "d": 102.67846874999668,
      "v": 84
    },
    {
      "midi": 59,
      "hit": false,
      "t": 35785.67849999996,
      "d": 102.67846874999668,
      "v": 60
    },
    {
      "midi": 63,
      "hit": false,
      "t": 35785.67849999996,
      "d": 102.67846874999668,
      "v": 60
    },
    {
      "midi": 66,
      "hit": false,
      "t": 35785.67849999996,
      "d": 102.67846874999668,
      "v": 60
    },
    {
      "midi": 71,
      "hit": false,
      "t": 35785.67849999996,
      "d": 102.67846874999668,
      "v": 60
    },
    {
      "midi": 77,
      "hit": false,
      "t": 35785.67849999997,
      "d": 102.67846874999668,
      "v": 127
    },
    {
      "midi": 31,
      "hit": false,
      "t": 35785.67850000002,
      "d": 209.82121875000303,
      "v": 110
    },
    {
      "midi": 43,
      "hit": false,
      "t": 35785.67850000002,
      "d": 209.82121875000303,
      "v": 110
    },
    {
      "midi": 47,
      "hit": false,
      "t": 35785.67850000003,
      "d": 214.28549999999814,
      "v": 92
    },
    {
      "midi": 54,
      "hit": false,
      "t": 35785.67850000003,
      "d": 214.28549999999814,
      "v": 92
    },
    {
      "midi": 59,
      "hit": false,
      "t": 35785.67850000003,
      "d": 214.28549999999814,
      "v": 92
    },
    {
      "midi": 64,
      "hit": false,
      "t": 35785.67850000006,
      "d": 71.4285000000018,
      "v": 92
    },
    {
      "midi": 67,
      "hit": false,
      "t": 35785.67850000006,
      "d": 71.4285000000018,
      "v": 92
    },
    {
      "midi": 71,
      "hit": false,
      "t": 35785.67850000006,
      "d": 71.4285000000018,
      "v": 92
    },
    {
      "midi": 71,
      "hit": false,
      "t": 35892.82124999986,
      "d": 102.67846874999668,
      "v": 30
    },
    {
      "midi": 54,
      "hit": false,
      "t": 35892.82124999996,
      "d": 102.67846874999668,
      "v": 60
    },
    {
      "midi": 47,
      "hit": false,
      "t": 35892.82124999996,
      "d": 102.67846874999668,
      "v": 60
    },
    {
      "midi": 78,
      "hit": false,
      "t": 35892.82124999997,
      "d": 102.67846874999668,
      "v": 127
    },
    {
      "midi": 59,
      "hit": false,
      "t": 35892.821250000015,
      "d": 102.67846874999668,
      "v": 45
    },
    {
      "midi": 72,
      "hit": false,
      "t": 35999.96399999986,
      "d": 107.14274999999907,
      "v": 42
    },
    {
      "midi": 54,
      "hit": false,
      "t": 35999.963999999956,
      "d": 749.9992500000008,
      "v": 84
    },
    {
      "midi": 60,
      "hit": false,
      "t": 35999.963999999956,
      "d": 107.14274999999907,
      "v": 60
    },
    {
      "midi": 64,
      "hit": false,
      "t": 35999.963999999956,
      "d": 107.14274999999907,
      "v": 60
    },
    {
      "midi": 67,
      "hit": false,
      "t": 35999.963999999956,
      "d": 107.14274999999907,
      "v": 60
    },
    {
      "midi": 72,
      "hit": false,
      "t": 35999.963999999956,
      "d": 107.14274999999907,
      "v": 60
    },
    {
      "midi": 72,
      "hit": false,
      "t": 35999.96399999997,
      "d": 102.67846874999668,
      "v": 127
    },
    {
      "midi": 76,
      "hit": false,
      "t": 35999.96399999997,
      "d": 102.67846874999668,
      "v": 127
    },
    {
      "midi": 79,
      "hit": false,
      "t": 35999.96399999997,
      "d": 102.67846874999668,
      "v": 127
    },
    {
      "midi": 60,
      "hit": false,
      "t": 35999.964000000014,
      "d": 107.14274999999907,
      "v": 45
    },
    {
      "midi": 36,
      "hit": false,
      "t": 35999.96400000003,
      "d": 209.82121875000303,
      "v": 110
    },
    {
      "midi": 48,
      "hit": false,
      "t": 35999.96400000003,
      "d": 357.14250000000175,
      "v": 92
    },
    {
      "midi": 55,
      "hit": false,
      "t": 35999.96400000003,
      "d": 357.14250000000175,
      "v": 92
    },
    {
      "midi": 60,
      "hit": false,
      "t": 35999.96400000003,
      "d": 357.14250000000175,
      "v": 92
    },
    {
      "midi": 40,
      "hit": false,
      "t": 35999.96400000003,
      "d": 1607.1412500000006,
      "v": 110
    },
    {
      "midi": 57,
      "hit": false,
      "t": 35999.96400000003,
      "d": 1607.1412500000006,
      "v": 110
    },
    {
      "midi": 64,
      "hit": false,
      "t": 35999.964000000065,
      "d": 107.14274999999907,
      "v": 92
    },
    {
      "midi": 67,
      "hit": false,
      "t": 35999.964000000065,
      "d": 107.14274999999907,
      "v": 92
    },
    {
      "midi": 72,
      "hit": false,
      "t": 35999.964000000065,
      "d": 107.14274999999907,
      "v": 92
    },
    {
      "midi": 77,
      "hit": false,
      "t": 36107.10674999997,
      "d": 35.714249999997264,
      "v": 110
    },
    {
      "midi": 76,
      "hit": false,
      "t": 36142.82099999997,
      "d": 35.714249999997264,
      "v": 110
    },
    {
      "midi": 74,
      "hit": false,
      "t": 36178.535249999964,
      "d": 35.714249999997264,
      "v": 110
    },
    {
      "midi": 72,
      "hit": false,
      "t": 36214.24949999996,
      "d": 35.714249999997264,
      "v": 110
    },
    {
      "midi": 71,
      "hit": false,
      "t": 36249.96374999996,
      "d": 35.714249999997264,
      "v": 110
    },
    {
      "midi": 69,
      "hit": false,
      "t": 36285.677999999956,
      "d": 35.714249999997264,
      "v": 110
    },
    {
      "midi": 67,
      "hit": false,
      "t": 36321.39224999995,
      "d": 102.67846874999668,
      "v": 110
    },
    {
      "midi": 48,
      "hit": false,
      "t": 37071.391499999954,
      "d": 102.67846874999668,
      "v": 60
    },
    {
      "midi": 67,
      "hit": false,
      "t": 37071.3915,
      "d": 102.67846874999668,
      "v": 110
    },
    {
      "midi": 48,
      "hit": false,
      "t": 37178.53424999995,
      "d": 102.67846874999668,
      "v": 60
    },
    {
      "midi": 67,
      "hit": false,
      "t": 37178.53425,
      "d": 102.67846874999668,
      "v": 110
    },
    {
      "midi": 48,
      "hit": false,
      "t": 37285.67699999995,
      "d": 357.14250000000175,
      "v": 60
    },
    {
      "midi": 67,
      "hit": false,
      "t": 37285.676999999996,
      "d": 357.14250000000175,
      "v": 110
    },
    {
      "midi": 36,
      "hit": false,
      "t": 37714.24800000003,
      "d": 209.82121875000303,
      "v": 110
    },
    {
      "midi": 36,
      "hit": false,
      "t": 37714.24800000003,
      "d": 209.82121875000303,
      "v": 110
    },
    {
      "midi": 57,
      "hit": false,
      "t": 37714.24800000003,
      "d": 209.82121875000303,
      "v": 110
    },
    {
      "midi": 67,
      "hit": false,
      "t": 37928.53349999986,
      "d": 102.67846874999668,
      "v": 127
    },
    {
      "midi": 72,
      "hit": false,
      "t": 37928.53349999986,
      "d": 102.67846874999668,
      "v": 127
    },
    {
      "midi": 67,
      "hit": false,
      "t": 37928.53350000001,
      "d": 71.4285000000018,
      "v": 75
    },
    {
      "midi": 72,
      "hit": false,
      "t": 37928.53350000001,
      "d": 71.4285000000018,
      "v": 75
    },
    {
      "midi": 64,
      "hit": false,
      "t": 37928.533500000034,
      "d": 71.4285000000018,
      "v": 108
    },
    {
      "midi": 67,
      "hit": false,
      "t": 37928.533500000034,
      "d": 71.4285000000018,
      "v": 108
    },
    {
      "midi": 72,
      "hit": false,
      "t": 37928.533500000034,
      "d": 71.4285000000018,
      "v": 108
    },
    {
      "midi": 46,
      "hit": false,
      "t": 37928.533500000034,
      "d": 209.82121875000303,
      "v": 110
    },
    {
      "midi": 60,
      "hit": false,
      "t": 37928.53350000006,
      "d": 71.4285000000018,
      "v": 108
    },
    {
      "midi": 64,
      "hit": false,
      "t": 37928.53350000006,
      "d": 71.4285000000018,
      "v": 108
    },
    {
      "midi": 67,
      "hit": false,
      "t": 37928.53350000006,
      "d": 71.4285000000018,
      "v": 108
    },
    {
      "midi": 67,
      "hit": false,
      "t": 38035.67624999986,
      "d": 102.67846874999668,
      "v": 127
    },
    {
      "midi": 72,
      "hit": false,
      "t": 38035.67624999986,
      "d": 102.67846874999668,
      "v": 127
    },
    {
      "midi": 67,
      "hit": false,
      "t": 38035.67625000001,
      "d": 71.4285000000018,
      "v": 75
    },
    {
      "midi": 72,
      "hit": false,
      "t": 38035.67625000001,
      "d": 71.4285000000018,
      "v": 75
    },
    {
      "midi": 67,
      "hit": false,
      "t": 38142.81899999986,
      "d": 209.82121875000303,
      "v": 127
    },
    {
      "midi": 72,
      "hit": false,
      "t": 38142.81899999986,
      "d": 209.82121875000303,
      "v": 127
    },
    {
      "midi": 42,
      "hit": false,
      "t": 38142.81899999995,
      "d": 209.82121875000303,
      "v": 75
    },
    {
      "midi": 67,
      "hit": false,
      "t": 38142.81900000001,
      "d": 71.4285000000018,
      "v": 75
    },
    {
      "midi": 72,
      "hit": false,
      "t": 38142.81900000001,
      "d": 71.4285000000018,
      "v": 75
    },
    {
      "midi": 40,
      "hit": false,
      "t": 38142.81900000004,
      "d": 209.82121875000303,
      "v": 110
    },
    {
      "midi": 67,
      "hit": false,
      "t": 38357.10449999986,
      "d": 209.82121875000303,
      "v": 127
    },
    {
      "midi": 72,
      "hit": false,
      "t": 38357.10449999986,
      "d": 209.82121875000303,
      "v": 127
    },
    {
      "midi": 67,
      "hit": false,
      "t": 38357.104500000016,
      "d": 71.4285000000018,
      "v": 75
    },
    {
      "midi": 72,
      "hit": false,
      "t": 38357.104500000016,
      "d": 71.4285000000018,
      "v": 75
    },
    {
      "midi": 31,
      "hit": false,
      "t": 38357.10450000003,
      "d": 209.82121875000303,
      "v": 110
    },
    {
      "midi": 64,
      "hit": false,
      "t": 38357.10450000004,
      "d": 71.4285000000018,
      "v": 108
    },
    {
      "midi": 67,
      "hit": false,
      "t": 38357.10450000004,
      "d": 71.4285000000018,
      "v": 108
    },
    {
      "midi": 72,
      "hit": false,
      "t": 38357.10450000004,
      "d": 71.4285000000018,
      "v": 108
    },
    {
      "midi": 42,
      "hit": false,
      "t": 38357.104500000045,
      "d": 209.82121875000303,
      "v": 110
    },
    {
      "midi": 60,
      "hit": false,
      "t": 38357.10450000007,
      "d": 71.4285000000018,
      "v": 108
    },
    {
      "midi": 64,
      "hit": false,
      "t": 38357.10450000007,
      "d": 71.4285000000018,
      "v": 108
    },
    {
      "midi": 67,
      "hit": false,
      "t": 38357.10450000007,
      "d": 71.4285000000018,
      "v": 108
    },
    {
      "midi": 65,
      "hit": false,
      "t": 38571.38999999987,
      "d": 209.82121875000303,
      "v": 127
    },
    {
      "midi": 70,
      "hit": false,
      "t": 38571.38999999987,
      "d": 209.82121875000303,
      "v": 127
    },
    {
      "midi": 42,
      "hit": false,
      "t": 38571.389999999956,
      "d": 209.82121875000303,
      "v": 75
    },
    {
      "midi": 65,
      "hit": false,
      "t": 38571.39000000002,
      "d": 71.4285000000018,
      "v": 75
    },
    {
      "midi": 70,
      "hit": false,
      "t": 38571.39000000002,
      "d": 71.4285000000018,
      "v": 75
    },
    {
      "midi": 34,
      "hit": false,
      "t": 38571.390000000036,
      "d": 209.82121875000303,
      "v": 110
    },
    {
      "midi": 36,
      "hit": false,
      "t": 38571.39000000005,
      "d": 209.82121875000303,
      "v": 110
    },
    {
      "midi": 65,
      "hit": false,
      "t": 38785.675499999874,
      "d": 209.82121875000303,
      "v": 127
    },
    {
      "midi": 70,
      "hit": false,
      "t": 38785.675499999874,
      "d": 209.82121875000303,
      "v": 127
    },
    {
      "midi": 65,
      "hit": false,
      "t": 38785.67550000003,
      "d": 71.4285000000018,
      "v": 75
    },
    {
      "midi": 70,
      "hit": false,
      "t": 38785.67550000003,
      "d": 71.4285000000018,
      "v": 75
    },
    {
      "midi": 62,
      "hit": false,
      "t": 38785.67550000004,
      "d": 71.4285000000018,
      "v": 108
    },
    {
      "midi": 65,
      "hit": false,
      "t": 38785.67550000004,
      "d": 71.4285000000018,
      "v": 108
    },
    {
      "midi": 70,
      "hit": false,
      "t": 38785.67550000004,
      "d": 71.4285000000018,
      "v": 108
    },
    {
      "midi": 42,
      "hit": false,
      "t": 38785.675500000056,
      "d": 209.82121875000303,
      "v": 110
    },
    {
      "midi": 58,
      "hit": false,
      "t": 38785.67550000007,
      "d": 71.4285000000018,
      "v": 108
    },
    {
      "midi": 62,
      "hit": false,
      "t": 38785.67550000007,
      "d": 71.4285000000018,
      "v": 108
    },
    {
      "midi": 65,
      "hit": false,
      "t": 38785.67550000007,
      "d": 71.4285000000018,
      "v": 108
    },
    {
      "midi": 70,
      "hit": false,
      "t": 38999.96099999988,
      "d": 209.82121875000303,
      "v": 127
    },
    {
      "midi": 74,
      "hit": false,
      "t": 38999.96099999988,
      "d": 209.82121875000303,
      "v": 127
    },
    {
      "midi": 42,
      "hit": false,
      "t": 38999.96099999996,
      "d": 209.82121875000303,
      "v": 75
    },
    {
      "midi": 70,
      "hit": false,
      "t": 38999.96100000003,
      "d": 71.4285000000018,
      "v": 75
    },
    {
      "midi": 74,
      "hit": false,
      "t": 38999.96100000003,
      "d": 71.4285000000018,
      "v": 75
    },
    {
      "midi": 40,
      "hit": false,
      "t": 38999.96100000006,
      "d": 209.82121875000303,
      "v": 110
    },
    {
      "midi": 70,
      "hit": false,
      "t": 39214.246499999885,
      "d": 209.82121875000303,
      "v": 127
    },
    {
      "midi": 74,
      "hit": false,
      "t": 39214.246499999885,
      "d": 209.82121875000303,
      "v": 127
    },
    {
      "midi": 31,
      "hit": false,
      "t": 39214.24650000004,
      "d": 209.82121875000303,
      "v": 110
    },
    {
      "midi": 70,
      "hit": false,
      "t": 39214.24650000004,
      "d": 71.4285000000018,
      "v": 75
    },
    {
      "midi": 74,
      "hit": false,
      "t": 39214.24650000004,
      "d": 71.4285000000018,
      "v": 75
    },
    {
      "midi": 62,
      "hit": false,
      "t": 39214.246500000045,
      "d": 71.4285000000018,
      "v": 108
    },
    {
      "midi": 65,
      "hit": false,
      "t": 39214.246500000045,
      "d": 71.4285000000018,
      "v": 108
    },
    {
      "midi": 70,
      "hit": false,
      "t": 39214.246500000045,
      "d": 71.4285000000018,
      "v": 108
    },
    {
      "midi": 42,
      "hit": false,
      "t": 39214.24650000007,
      "d": 209.82121875000303,
      "v": 110
    },
    {
      "midi": 58,
      "hit": false,
      "t": 39214.246500000074,
      "d": 71.4285000000018,
      "v": 108
    },
    {
      "midi": 62,
      "hit": false,
      "t": 39214.246500000074,
      "d": 71.4285000000018,
      "v": 108
    },
    {
      "midi": 65,
      "hit": false,
      "t": 39214.246500000074,
      "d": 71.4285000000018,
      "v": 108
    },
    {
      "midi": 67,
      "hit": false,
      "t": 39428.53199999989,
      "d": 209.82121875000303,
      "v": 127
    },
    {
      "midi": 72,
      "hit": false,
      "t": 39428.53199999989,
      "d": 209.82121875000303,
      "v": 127
    },
    {
      "midi": 42,
      "hit": false,
      "t": 39428.53199999996,
      "d": 209.82121875000303,
      "v": 75
    },
    {
      "midi": 36,
      "hit": false,
      "t": 39428.53200000004,
      "d": 209.82121875000303,
      "v": 110
    },
    {
      "midi": 67,
      "hit": false,
      "t": 39428.53200000004,
      "d": 71.4285000000018,
      "v": 75
    },
    {
      "midi": 72,
      "hit": false,
      "t": 39428.53200000004,
      "d": 71.4285000000018,
      "v": 75
    },
    {
      "midi": 36,
      "hit": false,
      "t": 39428.53200000007,
      "d": 209.82121875000303,
      "v": 110
    },
    {
      "midi": 67,
      "hit": false,
      "t": 39642.817499999896,
      "d": 209.82121875000303,
      "v": 127
    },
    {
      "midi": 72,
      "hit": false,
      "t": 39642.817499999896,
      "d": 209.82121875000303,
      "v": 127
    },
    {
      "midi": 64,
      "hit": false,
      "t": 39642.81750000005,
      "d": 71.4285000000018,
      "v": 108
    },
    {
      "midi": 67,
      "hit": false,
      "t": 39642.81750000005,
      "d": 71.4285000000018,
      "v": 108
    },
    {
      "midi": 72,
      "hit": false,
      "t": 39642.81750000005,
      "d": 71.4285000000018,
      "v": 108
    },
    {
      "midi": 67,
      "hit": false,
      "t": 39642.81750000005,
      "d": 71.4285000000018,
      "v": 75
    },
    {
      "midi": 72,
      "hit": false,
      "t": 39642.81750000005,
      "d": 71.4285000000018,
      "v": 75
    },
    {
      "midi": 60,
      "hit": false,
      "t": 39642.81750000008,
      "d": 71.4285000000018,
      "v": 108
    },
    {
      "midi": 64,
      "hit": false,
      "t": 39642.81750000008,
      "d": 71.4285000000018,
      "v": 108
    },
    {
      "midi": 67,
      "hit": false,
      "t": 39642.81750000008,
      "d": 71.4285000000018,
      "v": 108
    },
    {
      "midi": 46,
      "hit": false,
      "t": 39642.81750000008,
      "d": 209.82121875000303,
      "v": 110
    },
    {
      "midi": 65,
      "hit": false,
      "t": 39857.1029999999,
      "d": 209.82121875000303,
      "v": 127
    },
    {
      "midi": 70,
      "hit": false,
      "t": 39857.1029999999,
      "d": 209.82121875000303,
      "v": 127
    },
    {
      "midi": 42,
      "hit": false,
      "t": 39857.10299999997,
      "d": 209.82121875000303,
      "v": 75
    },
    {
      "midi": 65,
      "hit": false,
      "t": 39857.103000000054,
      "d": 71.4285000000018,
      "v": 75
    },
    {
      "midi": 70,
      "hit": false,
      "t": 39857.103000000054,
      "d": 71.4285000000018,
      "v": 75
    },
    {
      "midi": 40,
      "hit": false,
      "t": 39857.10300000008,
      "d": 209.82121875000303,
      "v": 110
    },
    {
      "midi": 67,
      "hit": false,
      "t": 40071.388499999906,
      "d": 209.82121875000303,
      "v": 127
    },
    {
      "midi": 72,
      "hit": false,
      "t": 40071.388499999906,
      "d": 209.82121875000303,
      "v": 127
    },
    {
      "midi": 31,
      "hit": false,
      "t": 40071.388500000045,
      "d": 209.82121875000303,
      "v": 110
    },
    {
      "midi": 64,
      "hit": false,
      "t": 40071.38850000005,
      "d": 71.4285000000018,
      "v": 108
    },
    {
      "midi": 67,
      "hit": false,
      "t": 40071.38850000005,
      "d": 71.4285000000018,
      "v": 108
    },
    {
      "midi": 72,
      "hit": false,
      "t": 40071.38850000005,
      "d": 71.4285000000018,
      "v": 108
    },
    {
      "midi": 67,
      "hit": false,
      "t": 40071.38850000006,
      "d": 71.4285000000018,
      "v": 75
    },
    {
      "midi": 72,
      "hit": false,
      "t": 40071.38850000006,
      "d": 71.4285000000018,
      "v": 75
    },
    {
      "midi": 60,
      "hit": false,
      "t": 40071.38850000008,
      "d": 71.4285000000018,
      "v": 108
    },
    {
      "midi": 64,
      "hit": false,
      "t": 40071.38850000008,
      "d": 71.4285000000018,
      "v": 108
    },
    {
      "midi": 67,
      "hit": false,
      "t": 40071.38850000008,
      "d": 71.4285000000018,
      "v": 108
    },
    {
      "midi": 42,
      "hit": false,
      "t": 40071.38850000009,
      "d": 209.82121875000303,
      "v": 110
    },
    {
      "midi": 67,
      "hit": false,
      "t": 40285.67399999991,
      "d": 749.9992500000008,
      "v": 127
    },
    {
      "midi": 42,
      "hit": false,
      "t": 40285.67399999997,
      "d": 209.82121875000303,
      "v": 75
    },
    {
      "midi": 34,
      "hit": false,
      "t": 40285.67400000005,
      "d": 357.14250000000175,
      "v": 110
    },
    {
      "midi": 67,
      "hit": false,
      "t": 40285.674000000065,
      "d": 214.28549999999814,
      "v": 75
    },
    {
      "midi": 36,
      "hit": false,
      "t": 40285.674000000094,
      "d": 209.82121875000303,
      "v": 110
    },
    {
      "midi": 79,
      "hit": false,
      "t": 40499.9595,
      "d": 209.82121875000303,
      "v": 127
    },
    {
      "midi": 58,
      "hit": false,
      "t": 40499.959500000055,
      "d": 209.82121875000303,
      "v": 108
    },
    {
      "midi": 62,
      "hit": false,
      "t": 40499.959500000055,
      "d": 209.82121875000303,
      "v": 108
    },
    {
      "midi": 67,
      "hit": false,
      "t": 40499.959500000055,
      "d": 209.82121875000303,
      "v": 108
    },
    {
      "midi": 53,
      "hit": false,
      "t": 40499.959500000085,
      "d": 209.82121875000303,
      "v": 108
    },
    {
      "midi": 58,
      "hit": false,
      "t": 40499.959500000085,
      "d": 209.82121875000303,
      "v": 108
    },
    {
      "midi": 62,
      "hit": false,
      "t": 40499.959500000085,
      "d": 209.82121875000303,
      "v": 108
    },
    {
      "midi": 45,
      "hit": false,
      "t": 40499.9595000001,
      "d": 209.82121875000303,
      "v": 110
    },
    {
      "midi": 42,
      "hit": false,
      "t": 40714.24499999997,
      "d": 209.82121875000303,
      "v": 75
    },
    {
      "midi": 78,
      "hit": false,
      "t": 40714.245,
      "d": 357.14250000000175,
      "v": 127
    },
    {
      "midi": 31,
      "hit": false,
      "t": 40714.24500000005,
      "d": 357.14250000000175,
      "v": 110
    },
    {
      "midi": 62,
      "hit": false,
      "t": 40714.24500000006,
      "d": 357.14250000000175,
      "v": 108
    },
    {
      "midi": 67,
      "hit": false,
      "t": 40714.24500000006,
      "d": 357.14250000000175,
      "v": 108
    },
    {
      "midi": 70,
      "hit": false,
      "t": 40714.24500000006,
      "d": 357.14250000000175,
      "v": 108
    },
    {
      "midi": 58,
      "hit": false,
      "t": 40714.24500000009,
      "d": 357.14250000000175,
      "v": 108
    },
    {
      "midi": 62,
      "hit": false,
      "t": 40714.24500000009,
      "d": 357.14250000000175,
      "v": 108
    },
    {
      "midi": 67,
      "hit": false,
      "t": 40714.24500000009,
      "d": 357.14250000000175,
      "v": 108
    },
    {
      "midi": 40,
      "hit": false,
      "t": 40714.245000000104,
      "d": 209.82121875000303,
      "v": 110
    },
    {
      "midi": 43,
      "hit": false,
      "t": 40714.245000000104,
      "d": 209.82121875000303,
      "v": 110
    },
    {
      "midi": 41,
      "hit": false,
      "t": 40928.53050000011,
      "d": 209.82121875000303,
      "v": 110
    },
    {
      "midi": 42,
      "hit": false,
      "t": 41142.81599999998,
      "d": 209.82121875000303,
      "v": 75
    },
    {
      "midi": 36,
      "hit": false,
      "t": 41142.81600000006,
      "d": 209.82121875000303,
      "v": 110
    },
    {
      "midi": 36,
      "hit": false,
      "t": 41142.816000000115,
      "d": 209.82121875000303,
      "v": 110
    },
    {
      "midi": 67,
      "hit": false,
      "t": 41357.10149999991,
      "d": 102.67846874999668,
      "v": 127
    },
    {
      "midi": 72,
      "hit": false,
      "t": 41357.10149999991,
      "d": 102.67846874999668,
      "v": 127
    },
    {
      "midi": 64,
      "hit": false,
      "t": 41357.10150000006,
      "d": 71.4285000000018,
      "v": 108
    },
    {
      "midi": 67,
      "hit": false,
      "t": 41357.10150000006,
      "d": 71.4285000000018,
      "v": 108
    },
    {
      "midi": 72,
      "hit": false,
      "t": 41357.10150000006,
      "d": 71.4285000000018,
      "v": 108
    },
    {
      "midi": 67,
      "hit": false,
      "t": 41357.10150000006,
      "d": 71.4285000000018,
      "v": 75
    },
    {
      "midi": 72,
      "hit": false,
      "t": 41357.10150000006,
      "d": 71.4285000000018,
      "v": 75
    },
    {
      "midi": 60,
      "hit": false,
      "t": 41357.10150000009,
      "d": 71.4285000000018,
      "v": 108
    },
    {
      "midi": 64,
      "hit": false,
      "t": 41357.10150000009,
      "d": 71.4285000000018,
      "v": 108
    },
    {
      "midi": 67,
      "hit": false,
      "t": 41357.10150000009,
      "d": 71.4285000000018,
      "v": 108
    },
    {
      "midi": 46,
      "hit": false,
      "t": 41357.10150000012,
      "d": 209.82121875000303,
      "v": 110
    },
    {
      "midi": 67,
      "hit": false,
      "t": 41464.24424999991,
      "d": 102.67846874999668,
      "v": 127
    },
    {
      "midi": 72,
      "hit": false,
      "t": 41464.24424999991,
      "d": 102.67846874999668,
      "v": 127
    },
    {
      "midi": 67,
      "hit": false,
      "t": 41464.24425000006,
      "d": 71.4285000000018,
      "v": 75
    },
    {
      "midi": 72,
      "hit": false,
      "t": 41464.24425000006,
      "d": 71.4285000000018,
      "v": 75
    },
    {
      "midi": 67,
      "hit": false,
      "t": 41571.38699999991,
      "d": 209.82121875000303,
      "v": 127
    },
    {
      "midi": 72,
      "hit": false,
      "t": 41571.38699999991,
      "d": 209.82121875000303,
      "v": 127
    },
    {
      "midi": 42,
      "hit": false,
      "t": 41571.38699999998,
      "d": 209.82121875000303,
      "v": 75
    },
    {
      "midi": 67,
      "hit": false,
      "t": 41571.38700000006,
      "d": 71.4285000000018,
      "v": 75
    },
    {
      "midi": 72,
      "hit": false,
      "t": 41571.38700000006,
      "d": 71.4285000000018,
      "v": 75
    },
    {
      "midi": 40,
      "hit": false,
      "t": 41571.387000000126,
      "d": 209.82121875000303,
      "v": 110
    },
    {
      "midi": 67,
      "hit": false,
      "t": 41785.67249999991,
      "d": 209.82121875000303,
      "v": 127
    },
    {
      "midi": 72,
      "hit": false,
      "t": 41785.67249999991,
      "d": 209.82121875000303,
      "v": 127
    },
    {
      "midi": 31,
      "hit": false,
      "t": 41785.67250000006,
      "d": 209.82121875000303,
      "v": 110
    },
    {
      "midi": 64,
      "hit": false,
      "t": 41785.672500000066,
      "d": 71.4285000000018,
      "v": 108
    },
    {
      "midi": 67,
      "hit": false,
      "t": 41785.672500000066,
      "d": 71.4285000000018,
      "v": 108
    },
    {
      "midi": 72,
      "hit": false,
      "t": 41785.672500000066,
      "d": 71.4285000000018,
      "v": 108
    },
    {
      "midi": 67,
      "hit": false,
      "t": 41785.672500000066,
      "d": 71.4285000000018,
      "v": 75
    },
    {
      "midi": 72,
      "hit": false,
      "t": 41785.672500000066,
      "d": 71.4285000000018,
      "v": 75
    },
    {
      "midi": 60,
      "hit": false,
      "t": 41785.672500000095,
      "d": 71.4285000000018,
      "v": 108
    },
    {
      "midi": 64,
      "hit": false,
      "t": 41785.672500000095,
      "d": 71.4285000000018,
      "v": 108
    },
    {
      "midi": 67,
      "hit": false,
      "t": 41785.672500000095,
      "d": 71.4285000000018,
      "v": 108
    },
    {
      "midi": 42,
      "hit": false,
      "t": 41785.67250000013,
      "d": 209.82121875000303,
      "v": 110
    },
    {
      "midi": 65,
      "hit": false,
      "t": 41999.95799999992,
      "d": 209.82121875000303,
      "v": 127
    },
    {
      "midi": 70,
      "hit": false,
      "t": 41999.95799999992,
      "d": 209.82121875000303,
      "v": 127
    },
    {
      "midi": 42,
      "hit": false,
      "t": 41999.957999999984,
      "d": 209.82121875000303,
      "v": 75
    },
    {
      "midi": 34,
      "hit": false,
      "t": 41999.958000000064,
      "d": 209.82121875000303,
      "v": 110
    },
    {
      "midi": 65,
      "hit": false,
      "t": 41999.95800000007,
      "d": 71.4285000000018,
      "v": 75
    },
    {
      "midi": 70,
      "hit": false,
      "t": 41999.95800000007,
      "d": 71.4285000000018,
      "v": 75
    },
    {
      "midi": 36,
      "hit": false,
      "t": 41999.95800000014,
      "d": 209.82121875000303,
      "v": 110
    },
    {
      "midi": 65,
      "hit": false,
      "t": 42214.243499999924,
      "d": 209.82121875000303,
      "v": 127
    },
    {
      "midi": 70,
      "hit": false,
      "t": 42214.243499999924,
      "d": 209.82121875000303,
      "v": 127
    },
    {
      "midi": 62,
      "hit": false,
      "t": 42214.24350000007,
      "d": 71.4285000000018,
      "v": 108
    },
    {
      "midi": 65,
      "hit": false,
      "t": 42214.24350000007,
      "d": 71.4285000000018,
      "v": 108
    },
    {
      "midi": 70,
      "hit": false,
      "t": 42214.24350000007,
      "d": 71.4285000000018,
      "v": 108
    },
    {
      "midi": 65,
      "hit": false,
      "t": 42214.24350000008,
      "d": 71.4285000000018,
      "v": 75
    },
    {
      "midi": 70,
      "hit": false,
      "t": 42214.24350000008,
      "d": 71.4285000000018,
      "v": 75
    },
    {
      "midi": 58,
      "hit": false,
      "t": 42214.2435000001,
      "d": 71.4285000000018,
      "v": 108
    },
    {
      "midi": 62,
      "hit": false,
      "t": 42214.2435000001,
      "d": 71.4285000000018,
      "v": 108
    },
    {
      "midi": 65,
      "hit": false,
      "t": 42214.2435000001,
      "d": 71.4285000000018,
      "v": 108
    },
    {
      "midi": 42,
      "hit": false,
      "t": 42214.24350000014,
      "d": 209.82121875000303,
      "v": 110
    },
    {
      "midi": 70,
      "hit": false,
      "t": 42428.52899999993,
      "d": 209.82121875000303,
      "v": 127
    },
    {
      "midi": 74,
      "hit": false,
      "t": 42428.52899999993,
      "d": 209.82121875000303,
      "v": 127
    },
    {
      "midi": 42,
      "hit": false,
      "t": 42428.52899999999,
      "d": 209.82121875000303,
      "v": 75
    },
    {
      "midi": 70,
      "hit": false,
      "t": 42428.52900000008,
      "d": 71.4285000000018,
      "v": 75
    },
    {
      "midi": 74,
      "hit": false,
      "t": 42428.52900000008,
      "d": 71.4285000000018,
      "v": 75
    },
    {
      "midi": 40,
      "hit": false,
      "t": 42428.52900000015,
      "d": 209.82121875000303,
      "v": 110
    },
    {
      "midi": 70,
      "hit": false,
      "t": 42642.814499999935,
      "d": 209.82121875000303,
      "v": 127
    },
    {
      "midi": 74,
      "hit": false,
      "t": 42642.814499999935,
      "d": 209.82121875000303,
      "v": 127
    },
    {
      "midi": 31,
      "hit": false,
      "t": 42642.814500000066,
      "d": 209.82121875000303,
      "v": 110
    },
    {
      "midi": 62,
      "hit": false,
      "t": 42642.81450000007,
      "d": 71.4285000000018,
      "v": 108
    },
    {
      "midi": 65,
      "hit": false,
      "t": 42642.81450000007,
      "d": 71.4285000000018,
      "v": 108
    },
    {
      "midi": 70,
      "hit": false,
      "t": 42642.81450000007,
      "d": 71.4285000000018,
      "v": 108
    },
    {
      "midi": 70,
      "hit": false,
      "t": 42642.81450000009,
      "d": 71.4285000000018,
      "v": 75
    },
    {
      "midi": 74,
      "hit": false,
      "t": 42642.81450000009,
      "d": 71.4285000000018,
      "v": 75
    },
    {
      "midi": 58,
      "hit": false,
      "t": 42642.8145000001,
      "d": 71.4285000000018,
      "v": 108
    },
    {
      "midi": 62,
      "hit": false,
      "t": 42642.8145000001,
      "d": 71.4285000000018,
      "v": 108
    },
    {
      "midi": 65,
      "hit": false,
      "t": 42642.8145000001,
      "d": 71.4285000000018,
      "v": 108
    },
    {
      "midi": 42,
      "hit": false,
      "t": 42642.81450000015,
      "d": 209.82121875000303,
      "v": 110
    },
    {
      "midi": 67,
      "hit": false,
      "t": 42857.09999999994,
      "d": 209.82121875000303,
      "v": 127
    },
    {
      "midi": 72,
      "hit": false,
      "t": 42857.09999999994,
      "d": 209.82121875000303,
      "v": 127
    },
    {
      "midi": 42,
      "hit": false,
      "t": 42857.09999999999,
      "d": 209.82121875000303,
      "v": 75
    },
    {
      "midi": 36,
      "hit": false,
      "t": 42857.10000000007,
      "d": 209.82121875000303,
      "v": 110
    },
    {
      "midi": 67,
      "hit": false,
      "t": 42857.10000000009,
      "d": 71.4285000000018,
      "v": 75
    },
    {
      "midi": 72,
      "hit": false,
      "t": 42857.10000000009,
      "d": 71.4285000000018,
      "v": 75
    },
    {
      "midi": 36,
      "hit": false,
      "t": 42857.10000000016,
      "d": 209.82121875000303,
      "v": 110
    },
    {
      "midi": 67,
      "hit": false,
      "t": 43071.385499999946,
      "d": 209.82121875000303,
      "v": 127
    },
    {
      "midi": 72,
      "hit": false,
      "t": 43071.385499999946,
      "d": 209.82121875000303,
      "v": 127
    },
    {
      "midi": 64,
      "hit": false,
      "t": 43071.38550000008,
      "d": 71.4285000000018,
      "v": 108
    },
    {
      "midi": 67,
      "hit": false,
      "t": 43071.38550000008,
      "d": 71.4285000000018,
      "v": 108
    },
    {
      "midi": 72,
      "hit": false,
      "t": 43071.38550000008,
      "d": 71.4285000000018,
      "v": 108
    },
    {
      "midi": 67,
      "hit": false,
      "t": 43071.3855000001,
      "d": 71.4285000000018,
      "v": 75
    },
    {
      "midi": 72,
      "hit": false,
      "t": 43071.3855000001,
      "d": 71.4285000000018,
      "v": 75
    },
    {
      "midi": 60,
      "hit": false,
      "t": 43071.385500000106,
      "d": 71.4285000000018,
      "v": 108
    },
    {
      "midi": 64,
      "hit": false,
      "t": 43071.385500000106,
      "d": 71.4285000000018,
      "v": 108
    },
    {
      "midi": 67,
      "hit": false,
      "t": 43071.385500000106,
      "d": 71.4285000000018,
      "v": 108
    },
    {
      "midi": 46,
      "hit": false,
      "t": 43071.385500000164,
      "d": 209.82121875000303,
      "v": 110
    },
    {
      "midi": 65,
      "hit": false,
      "t": 43285.67099999995,
      "d": 209.82121875000303,
      "v": 127
    },
    {
      "midi": 70,
      "hit": false,
      "t": 43285.67099999995,
      "d": 209.82121875000303,
      "v": 127
    },
    {
      "midi": 42,
      "hit": false,
      "t": 43285.670999999995,
      "d": 209.82121875000303,
      "v": 75
    },
    {
      "midi": 65,
      "hit": false,
      "t": 43285.671000000104,
      "d": 71.4285000000018,
      "v": 75
    },
    {
      "midi": 70,
      "hit": false,
      "t": 43285.671000000104,
      "d": 71.4285000000018,
      "v": 75
    },
    {
      "midi": 40,
      "hit": false,
      "t": 43285.67100000017,
      "d": 209.82121875000303,
      "v": 110
    },
    {
      "midi": 67,
      "hit": false,
      "t": 43499.95649999996,
      "d": 209.82121875000303,
      "v": 127
    },
    {
      "midi": 72,
      "hit": false,
      "t": 43499.95649999996,
      "d": 209.82121875000303,
      "v": 127
    },
    {
      "midi": 31,
      "hit": false,
      "t": 43499.95650000007,
      "d": 209.82121875000303,
      "v": 110
    },
    {
      "midi": 64,
      "hit": false,
      "t": 43499.95650000008,
      "d": 71.4285000000018,
      "v": 108
    },
    {
      "midi": 67,
      "hit": false,
      "t": 43499.95650000008,
      "d": 71.4285000000018,
      "v": 108
    },
    {
      "midi": 72,
      "hit": false,
      "t": 43499.95650000008,
      "d": 71.4285000000018,
      "v": 108
    },
    {
      "midi": 60,
      "hit": false,
      "t": 43499.95650000011,
      "d": 71.4285000000018,
      "v": 108
    },
    {
      "midi": 64,
      "hit": false,
      "t": 43499.95650000011,
      "d": 71.4285000000018,
      "v": 108
    },
    {
      "midi": 67,
      "hit": false,
      "t": 43499.95650000011,
      "d": 71.4285000000018,
      "v": 108
    },
    {
      "midi": 67,
      "hit": false,
      "t": 43499.95650000011,
      "d": 71.4285000000018,
      "v": 75
    },
    {
      "midi": 72,
      "hit": false,
      "t": 43499.95650000011,
      "d": 71.4285000000018,
      "v": 75
    },
    {
      "midi": 42,
      "hit": false,
      "t": 43499.956500000175,
      "d": 209.82121875000303,
      "v": 110
    },
    {
      "midi": 42,
      "hit": false,
      "t": 43714.242,
      "d": 209.82121875000303,
      "v": 75
    },
    {
      "midi": 34,
      "hit": false,
      "t": 43714.24200000008,
      "d": 357.14250000000175,
      "v": 110
    },
    {
      "midi": 36,
      "hit": false,
      "t": 43714.24200000018,
      "d": 209.82121875000303,
      "v": 110
    },
    {
      "midi": 78,
      "hit": false,
      "t": 43928.527500000004,
      "d": 209.82121875000303,
      "v": 127
    },
    {
      "midi": 58,
      "hit": false,
      "t": 43928.527500000084,
      "d": 209.82121875000303,
      "v": 108
    },
    {
      "midi": 62,
      "hit": false,
      "t": 43928.527500000084,
      "d": 209.82121875000303,
      "v": 108
    },
    {
      "midi": 67,
      "hit": false,
      "t": 43928.527500000084,
      "d": 209.82121875000303,
      "v": 108
    },
    {
      "midi": 53,
      "hit": false,
      "t": 43928.52750000011,
      "d": 209.82121875000303,
      "v": 108
    },
    {
      "midi": 58,
      "hit": false,
      "t": 43928.52750000011,
      "d": 209.82121875000303,
      "v": 108
    },
    {
      "midi": 62,
      "hit": false,
      "t": 43928.52750000011,
      "d": 209.82121875000303,
      "v": 108
    },
    {
      "midi": 40,
      "hit": false,
      "t": 43928.527500000186,
      "d": 209.82121875000303,
      "v": 110
    },
    {
      "midi": 45,
      "hit": false,
      "t": 43928.527500000186,
      "d": 209.82121875000303,
      "v": 110
    },
    {
      "midi": 79,
      "hit": false,
      "t": 44142.81300000001,
      "d": 357.14250000000175,
      "v": 127
    },
    {
      "midi": 31,
      "hit": false,
      "t": 44142.81300000008,
      "d": 357.14250000000175,
      "v": 110
    },
    {
      "midi": 62,
      "hit": false,
      "t": 44142.81300000009,
      "d": 357.14250000000175,
      "v": 108
    },
    {
      "midi": 67,
      "hit": false,
      "t": 44142.81300000009,
      "d": 357.14250000000175,
      "v": 108
    },
    {
      "midi": 70,
      "hit": false,
      "t": 44142.81300000009,
      "d": 357.14250000000175,
      "v": 108
    },
    {
      "midi": 58,
      "hit": false,
      "t": 44142.81300000012,
      "d": 357.14250000000175,
      "v": 108
    },
    {
      "midi": 62,
      "hit": false,
      "t": 44142.81300000012,
      "d": 357.14250000000175,
      "v": 108
    },
    {
      "midi": 67,
      "hit": false,
      "t": 44142.81300000012,
      "d": 357.14250000000175,
      "v": 108
    },
    {
      "midi": 40,
      "hit": false,
      "t": 44142.81300000019,
      "d": 102.67846874999668,
      "v": 110
    },
    {
      "midi": 40,
      "hit": false,
      "t": 44249.95575000019,
      "d": 102.67846874999668,
      "v": 110
    },
    {
      "midi": 40,
      "hit": false,
      "t": 44357.09850000019,
      "d": 209.82121875000303,
      "v": 110
    },
    {
      "midi": 41,
      "hit": false,
      "t": 44571.384000000086,
      "d": 209.82121875000303,
      "v": 110
    },
    {
      "midi": 36,
      "hit": false,
      "t": 44571.384000000195,
      "d": 209.82121875000303,
      "v": 110
    },
    {
      "midi": 57,
      "hit": false,
      "t": 44571.384000000195,
      "d": 209.82121875000303,
      "v": 110
    },
    {
      "midi": 72,
      "hit": false,
      "t": 44785.66949999996,
      "d": 102.67846874999668,
      "v": 127
    },
    {
      "midi": 77,
      "hit": false,
      "t": 44785.66949999996,
      "d": 102.67846874999668,
      "v": 127
    },
    {
      "midi": 69,
      "hit": false,
      "t": 44785.66950000009,
      "d": 71.4285000000018,
      "v": 108
    },
    {
      "midi": 72,
      "hit": false,
      "t": 44785.66950000009,
      "d": 71.4285000000018,
      "v": 108
    },
    {
      "midi": 77,
      "hit": false,
      "t": 44785.66950000009,
      "d": 71.4285000000018,
      "v": 108
    },
    {
      "midi": 72,
      "hit": false,
      "t": 44785.66950000011,
      "d": 71.4285000000018,
      "v": 75
    },
    {
      "midi": 77,
      "hit": false,
      "t": 44785.66950000011,
      "d": 71.4285000000018,
      "v": 75
    },
    {
      "midi": 60,
      "hit": false,
      "t": 44785.66950000012,
      "d": 71.4285000000018,
      "v": 108
    },
    {
      "midi": 65,
      "hit": false,
      "t": 44785.66950000012,
      "d": 71.4285000000018,
      "v": 108
    },
    {
      "midi": 69,
      "hit": false,
      "t": 44785.66950000012,
      "d": 71.4285000000018,
      "v": 108
    },
    {
      "midi": 46,
      "hit": false,
      "t": 44785.6695000002,
      "d": 209.82121875000303,
      "v": 110
    },
    {
      "midi": 72,
      "hit": false,
      "t": 44892.81224999996,
      "d": 102.67846874999668,
      "v": 127
    },
    {
      "midi": 77,
      "hit": false,
      "t": 44892.81224999996,
      "d": 102.67846874999668,
      "v": 127
    },
    {
      "midi": 72,
      "hit": false,
      "t": 44892.81225000011,
      "d": 71.4285000000018,
      "v": 75
    },
    {
      "midi": 77,
      "hit": false,
      "t": 44892.81225000011,
      "d": 71.4285000000018,
      "v": 75
    },
    {
      "midi": 72,
      "hit": false,
      "t": 44999.95499999996,
      "d": 209.82121875000303,
      "v": 127
    },
    {
      "midi": 77,
      "hit": false,
      "t": 44999.95499999996,
      "d": 209.82121875000303,
      "v": 127
    },
    {
      "midi": 42,
      "hit": false,
      "t": 44999.955,
      "d": 209.82121875000303,
      "v": 75
    },
    {
      "midi": 72,
      "hit": false,
      "t": 44999.95500000011,
      "d": 71.4285000000018,
      "v": 75
    },
    {
      "midi": 77,
      "hit": false,
      "t": 44999.95500000011,
      "d": 71.4285000000018,
      "v": 75
    },
    {
      "midi": 40,
      "hit": false,
      "t": 44999.955000000205,
      "d": 209.82121875000303,
      "v": 110
    },
    {
      "midi": 72,
      "hit": false,
      "t": 45214.24049999996,
      "d": 209.82121875000303,
      "v": 127
    },
    {
      "midi": 77,
      "hit": false,
      "t": 45214.24049999996,
      "d": 209.82121875000303,
      "v": 127
    },
    {
      "midi": 36,
      "hit": false,
      "t": 45214.24050000009,
      "d": 209.82121875000303,
      "v": 110
    },
    {
      "midi": 69,
      "hit": false,
      "t": 45214.240500000094,
      "d": 71.4285000000018,
      "v": 108
    },
    {
      "midi": 72,
      "hit": false,
      "t": 45214.240500000094,
      "d": 71.4285000000018,
      "v": 108
    },
    {
      "midi": 77,
      "hit": false,
      "t": 45214.240500000094,
      "d": 71.4285000000018,
      "v": 108
    },
    {
      "midi": 72,
      "hit": false,
      "t": 45214.240500000116,
      "d": 71.4285000000018,
      "v": 75
    },
    {
      "midi": 77,
      "hit": false,
      "t": 45214.240500000116,
      "d": 71.4285000000018,
      "v": 75
    },
    {
      "midi": 60,
      "hit": false,
      "t": 45214.24050000012,
      "d": 71.4285000000018,
      "v": 108
    },
    {
      "midi": 65,
      "hit": false,
      "t": 45214.24050000012,
      "d": 71.4285000000018,
      "v": 108
    },
    {
      "midi": 69,
      "hit": false,
      "t": 45214.24050000012,
      "d": 71.4285000000018,
      "v": 108
    },
    {
      "midi": 42,
      "hit": false,
      "t": 45214.24050000021,
      "d": 209.82121875000303,
      "v": 110
    },
    {
      "midi": 70,
      "hit": false,
      "t": 45428.52599999997,
      "d": 209.82121875000303,
      "v": 127
    },
    {
      "midi": 75,
      "hit": false,
      "t": 45428.52599999997,
      "d": 209.82121875000303,
      "v": 127
    },
    {
      "midi": 42,
      "hit": false,
      "t": 45428.526000000005,
      "d": 209.82121875000303,
      "v": 75
    },
    {
      "midi": 39,
      "hit": false,
      "t": 45428.52600000009,
      "d": 209.82121875000303,
      "v": 110
    },
    {
      "midi": 70,
      "hit": false,
      "t": 45428.52600000012,
      "d": 71.4285000000018,
      "v": 75
    },
    {
      "midi": 75,
      "hit": false,
      "t": 45428.52600000012,
      "d": 71.4285000000018,
      "v": 75
    },
    {
      "midi": 36,
      "hit": false,
      "t": 45428.526000000216,
      "d": 209.82121875000303,
      "v": 110
    },
    {
      "midi": 70,
      "hit": false,
      "t": 45642.811499999974,
      "d": 209.82121875000303,
      "v": 127
    },
    {
      "midi": 75,
      "hit": false,
      "t": 45642.811499999974,
      "d": 209.82121875000303,
      "v": 127
    },
    {
      "midi": 67,
      "hit": false,
      "t": 45642.8115000001,
      "d": 71.4285000000018,
      "v": 108
    },
    {
      "midi": 70,
      "hit": false,
      "t": 45642.8115000001,
      "d": 71.4285000000018,
      "v": 108
    },
    {
      "midi": 75,
      "hit": false,
      "t": 45642.8115000001,
      "d": 71.4285000000018,
      "v": 108
    },
    {
      "midi": 63,
      "hit": false,
      "t": 45642.81150000013,
      "d": 71.4285000000018,
      "v": 108
    },
    {
      "midi": 67,
      "hit": false,
      "t": 45642.81150000013,
      "d": 71.4285000000018,
      "v": 108
    },
    {
      "midi": 70,
      "hit": false,
      "t": 45642.81150000013,
      "d": 71.4285000000018,
      "v": 108
    },
    {
      "midi": 70,
      "hit": false,
      "t": 45642.81150000013,
      "d": 71.4285000000018,
      "v": 75
    },
    {
      "midi": 75,
      "hit": false,
      "t": 45642.81150000013,
      "d": 71.4285000000018,
      "v": 75
    },
    {
      "midi": 42,
      "hit": false,
      "t": 45642.81150000022,
      "d": 209.82121875000303,
      "v": 110
    },
    {
      "midi": 75,
      "hit": false,
      "t": 45857.09699999998,
      "d": 209.82121875000303,
      "v": 127
    },
    {
      "midi": 79,
      "hit": false,
      "t": 45857.09699999998,
      "d": 209.82121875000303,
      "v": 127
    },
    {
      "midi": 42,
      "hit": false,
      "t": 45857.09700000001,
      "d": 209.82121875000303,
      "v": 75
    },
    {
      "midi": 75,
      "hit": false,
      "t": 45857.09700000013,
      "d": 71.4285000000018,
      "v": 75
    },
    {
      "midi": 79,
      "hit": false,
      "t": 45857.09700000013,
      "d": 71.4285000000018,
      "v": 75
    },
    {
      "midi": 40,
      "hit": false,
      "t": 45857.09700000023,
      "d": 209.82121875000303,
      "v": 110
    },
    {
      "midi": 75,
      "hit": false,
      "t": 46071.382499999985,
      "d": 209.82121875000303,
      "v": 127
    },
    {
      "midi": 79,
      "hit": false,
      "t": 46071.382499999985,
      "d": 209.82121875000303,
      "v": 127
    },
    {
      "midi": 36,
      "hit": false,
      "t": 46071.382500000094,
      "d": 209.82121875000303,
      "v": 110
    },
    {
      "midi": 67,
      "hit": false,
      "t": 46071.3825000001,
      "d": 71.4285000000018,
      "v": 108
    },
    {
      "midi": 70,
      "hit": false,
      "t": 46071.3825000001,
      "d": 71.4285000000018,
      "v": 108
    },
    {
      "midi": 75,
      "hit": false,
      "t": 46071.3825000001,
      "d": 71.4285000000018,
      "v": 108
    },
    {
      "midi": 63,
      "hit": false,
      "t": 46071.38250000013,
      "d": 71.4285000000018,
      "v": 108
    },
    {
      "midi": 67,
      "hit": false,
      "t": 46071.38250000013,
      "d": 71.4285000000018,
      "v": 108
    },
    {
      "midi": 70,
      "hit": false,
      "t": 46071.38250000013,
      "d": 71.4285000000018,
      "v": 108
    },
    {
      "midi": 75,
      "hit": false,
      "t": 46071.38250000014,
      "d": 71.4285000000018,
      "v": 75
    },
    {
      "midi": 79,
      "hit": false,
      "t": 46071.38250000014,
      "d": 71.4285000000018,
      "v": 75
    },
    {
      "midi": 42,
      "hit": false,
      "t": 46071.38250000023,
      "d": 209.82121875000303,
      "v": 110
    },
    {
      "midi": 72,
      "hit": false,
      "t": 46285.66799999999,
      "d": 209.82121875000303,
      "v": 127
    },
    {
      "midi": 77,
      "hit": false,
      "t": 46285.66799999999,
      "d": 209.82121875000303,
      "v": 127
    },
    {
      "midi": 42,
      "hit": false,
      "t": 46285.66800000001,
      "d": 209.82121875000303,
      "v": 75
    },
    {
      "midi": 41,
      "hit": false,
      "t": 46285.6680000001,
      "d": 209.82121875000303,
      "v": 110
    },
    {
      "midi": 72,
      "hit": false,
      "t": 46285.66800000014,
      "d": 71.4285000000018,
      "v": 75
    },
    {
      "midi": 77,
      "hit": false,
      "t": 46285.66800000014,
      "d": 71.4285000000018,
      "v": 75
    },
    {
      "midi": 36,
      "hit": false,
      "t": 46285.66800000024,
      "d": 209.82121875000303,
      "v": 110
    },
    {
      "midi": 72,
      "hit": false,
      "t": 46499.953499999996,
      "d": 209.82121875000303,
      "v": 127
    },
    {
      "midi": 77,
      "hit": false,
      "t": 46499.953499999996,
      "d": 209.82121875000303,
      "v": 127
    },
    {
      "midi": 69,
      "hit": false,
      "t": 46499.953500000105,
      "d": 71.4285000000018,
      "v": 108
    },
    {
      "midi": 72,
      "hit": false,
      "t": 46499.953500000105,
      "d": 71.4285000000018,
      "v": 108
    },
    {
      "midi": 77,
      "hit": false,
      "t": 46499.953500000105,
      "d": 71.4285000000018,
      "v": 108
    },
    {
      "midi": 60,
      "hit": false,
      "t": 46499.953500000134,
      "d": 71.4285000000018,
      "v": 108
    },
    {
      "midi": 65,
      "hit": false,
      "t": 46499.953500000134,
      "d": 71.4285000000018,
      "v": 108
    },
    {
      "midi": 69,
      "hit": false,
      "t": 46499.953500000134,
      "d": 71.4285000000018,
      "v": 108
    },
    {
      "midi": 72,
      "hit": false,
      "t": 46499.95350000015,
      "d": 71.4285000000018,
      "v": 75
    },
    {
      "midi": 77,
      "hit": false,
      "t": 46499.95350000015,
      "d": 71.4285000000018,
      "v": 75
    },
    {
      "midi": 46,
      "hit": false,
      "t": 46499.95350000024,
      "d": 209.82121875000303,
      "v": 110
    },
    {
      "midi": 70,
      "hit": false,
      "t": 46714.239,
      "d": 209.82121875000303,
      "v": 127
    },
    {
      "midi": 75,
      "hit": false,
      "t": 46714.239,
      "d": 209.82121875000303,
      "v": 127
    },
    {
      "midi": 42,
      "hit": false,
      "t": 46714.239000000016,
      "d": 209.82121875000303,
      "v": 75
    },
    {
      "midi": 70,
      "hit": false,
      "t": 46714.239000000154,
      "d": 71.4285000000018,
      "v": 75
    },
    {
      "midi": 75,
      "hit": false,
      "t": 46714.239000000154,
      "d": 71.4285000000018,
      "v": 75
    },
    {
      "midi": 40,
      "hit": false,
      "t": 46714.23900000025,
      "d": 209.82121875000303,
      "v": 110
    },
    {
      "midi": 72,
      "hit": false,
      "t": 46928.52450000001,
      "d": 209.82121875000303,
      "v": 127
    },
    {
      "midi": 77,
      "hit": false,
      "t": 46928.52450000001,
      "d": 209.82121875000303,
      "v": 127
    },
    {
      "midi": 36,
      "hit": false,
      "t": 46928.5245000001,
      "d": 209.82121875000303,
      "v": 110
    },
    {
      "midi": 69,
      "hit": false,
      "t": 46928.52450000011,
      "d": 71.4285000000018,
      "v": 108
    },
    {
      "midi": 72,
      "hit": false,
      "t": 46928.52450000011,
      "d": 71.4285000000018,
      "v": 108
    },
    {
      "midi": 77,
      "hit": false,
      "t": 46928.52450000011,
      "d": 71.4285000000018,
      "v": 108
    },
    {
      "midi": 60,
      "hit": false,
      "t": 46928.52450000014,
      "d": 71.4285000000018,
      "v": 108
    },
    {
      "midi": 65,
      "hit": false,
      "t": 46928.52450000014,
      "d": 71.4285000000018,
      "v": 108
    },
    {
      "midi": 69,
      "hit": false,
      "t": 46928.52450000014,
      "d": 71.4285000000018,
      "v": 108
    },
    {
      "midi": 72,
      "hit": false,
      "t": 46928.52450000016,
      "d": 71.4285000000018,
      "v": 75
    },
    {
      "midi": 77,
      "hit": false,
      "t": 46928.52450000016,
      "d": 71.4285000000018,
      "v": 75
    },
    {
      "midi": 42,
      "hit": false,
      "t": 46928.524500000254,
      "d": 209.82121875000303,
      "v": 110
    },
    {
      "midi": 72,
      "hit": false,
      "t": 47142.81000000001,
      "d": 749.9992500000008,
      "v": 127
    },
    {
      "midi": 42,
      "hit": false,
      "t": 47142.81000000002,
      "d": 209.82121875000303,
      "v": 75
    },
    {
      "midi": 39,
      "hit": false,
      "t": 47142.81000000011,
      "d": 357.14250000000175,
      "v": 110
    },
    {
      "midi": 72,
      "hit": false,
      "t": 47142.810000000165,
      "d": 214.28549999999814,
      "v": 75
    },
    {
      "midi": 36,
      "hit": false,
      "t": 47142.81000000026,
      "d": 209.82121875000303,
      "v": 110
    },
    {
      "midi": 79,
      "hit": false,
      "t": 47357.09550000001,
      "d": 209.82121875000303,
      "v": 127
    },
    {
      "midi": 67,
      "hit": false,
      "t": 47357.09550000011,
      "d": 209.82121875000303,
      "v": 108
    },
    {
      "midi": 70,
      "hit": false,
      "t": 47357.09550000011,
      "d": 209.82121875000303,
      "v": 108
    },
    {
      "midi": 72,
      "hit": false,
      "t": 47357.09550000011,
      "d": 209.82121875000303,
      "v": 108
    },
    {
      "midi": 63,
      "hit": false,
      "t": 47357.09550000014,
      "d": 209.82121875000303,
      "v": 108
    },
    {
      "midi": 67,
      "hit": false,
      "t": 47357.09550000014,
      "d": 209.82121875000303,
      "v": 108
    },
    {
      "midi": 70,
      "hit": false,
      "t": 47357.09550000014,
      "d": 209.82121875000303,
      "v": 108
    },
    {
      "midi": 45,
      "hit": false,
      "t": 47357.095500000265,
      "d": 209.82121875000303,
      "v": 110
    },
    {
      "midi": 78,
      "hit": false,
      "t": 47571.381000000016,
      "d": 357.14250000000175,
      "v": 127
    },
    {
      "midi": 42,
      "hit": false,
      "t": 47571.38100000002,
      "d": 209.82121875000303,
      "v": 75
    },
    {
      "midi": 36,
      "hit": false,
      "t": 47571.38100000011,
      "d": 357.14250000000175,
      "v": 110
    },
    {
      "midi": 65,
      "hit": false,
      "t": 47571.38100000012,
      "d": 357.14250000000175,
      "v": 108
    },
    {
      "midi": 69,
      "hit": false,
      "t": 47571.38100000012,
      "d": 357.14250000000175,
      "v": 108
    },
    {
      "midi": 75,
      "hit": false,
      "t": 47571.38100000012,
      "d": 357.14250000000175,
      "v": 108
    },
    {
      "midi": 63,
      "hit": false,
      "t": 47571.38100000015,
      "d": 357.14250000000175,
      "v": 108
    },
    {
      "midi": 69,
      "hit": false,
      "t": 47571.38100000015,
      "d": 357.14250000000175,
      "v": 108
    },
    {
      "midi": 72,
      "hit": false,
      "t": 47571.38100000015,
      "d": 357.14250000000175,
      "v": 108
    },
    {
      "midi": 40,
      "hit": false,
      "t": 47571.38100000027,
      "d": 209.82121875000303,
      "v": 110
    },
    {
      "midi": 43,
      "hit": false,
      "t": 47571.38100000027,
      "d": 209.82121875000303,
      "v": 110
    },
    {
      "midi": 41,
      "hit": false,
      "t": 47785.666500000276,
      "d": 209.82121875000303,
      "v": 110
    },
    {
      "midi": 36,
      "hit": false,
      "t": 47999.952000000114,
      "d": 209.82121875000303,
      "v": 110
    },
    {
      "midi": 36,
      "hit": false,
      "t": 47999.95200000028,
      "d": 209.82121875000303,
      "v": 110
    },
    {
      "midi": 57,
      "hit": false,
      "t": 47999.95200000028,
      "d": 209.82121875000303,
      "v": 110
    },
    {
      "midi": 67,
      "hit": false,
      "t": 48214.23750000001,
      "d": 102.67846874999668,
      "v": 127
    },
    {
      "midi": 72,
      "hit": false,
      "t": 48214.23750000001,
      "d": 102.67846874999668,
      "v": 127
    },
    {
      "midi": 64,
      "hit": false,
      "t": 48214.23750000012,
      "d": 71.4285000000018,
      "v": 108
    },
    {
      "midi": 67,
      "hit": false,
      "t": 48214.23750000012,
      "d": 71.4285000000018,
      "v": 108
    },
    {
      "midi": 72,
      "hit": false,
      "t": 48214.23750000012,
      "d": 71.4285000000018,
      "v": 108
    },
    {
      "midi": 60,
      "hit": false,
      "t": 48214.23750000015,
      "d": 71.4285000000018,
      "v": 108
    },
    {
      "midi": 64,
      "hit": false,
      "t": 48214.23750000015,
      "d": 71.4285000000018,
      "v": 108
    },
    {
      "midi": 67,
      "hit": false,
      "t": 48214.23750000015,
      "d": 71.4285000000018,
      "v": 108
    },
    {
      "midi": 67,
      "hit": false,
      "t": 48214.23750000016,
      "d": 71.4285000000018,
      "v": 75
    },
    {
      "midi": 72,
      "hit": false,
      "t": 48214.23750000016,
      "d": 71.4285000000018,
      "v": 75
    },
    {
      "midi": 46,
      "hit": false,
      "t": 48214.23750000029,
      "d": 209.82121875000303,
      "v": 110
    },
    {
      "midi": 67,
      "hit": false,
      "t": 48321.38025000001,
      "d": 102.67846874999668,
      "v": 127
    },
    {
      "midi": 72,
      "hit": false,
      "t": 48321.38025000001,
      "d": 102.67846874999668,
      "v": 127
    },
    {
      "midi": 67,
      "hit": false,
      "t": 48321.38025000016,
      "d": 71.4285000000018,
      "v": 75
    },
    {
      "midi": 72,
      "hit": false,
      "t": 48321.38025000016,
      "d": 71.4285000000018,
      "v": 75
    },
    {
      "midi": 67,
      "hit": false,
      "t": 48428.52300000001,
      "d": 209.82121875000303,
      "v": 127
    },
    {
      "midi": 72,
      "hit": false,
      "t": 48428.52300000001,
      "d": 209.82121875000303,
      "v": 127
    },
    {
      "midi": 42,
      "hit": false,
      "t": 48428.52300000002,
      "d": 209.82121875000303,
      "v": 75
    },
    {
      "midi": 67,
      "hit": false,
      "t": 48428.52300000016,
      "d": 71.4285000000018,
      "v": 75
    },
    {
      "midi": 72,
      "hit": false,
      "t": 48428.52300000016,
      "d": 71.4285000000018,
      "v": 75
    },
    {
      "midi": 40,
      "hit": false,
      "t": 48428.52300000029,
      "d": 209.82121875000303,
      "v": 110
    },
    {
      "midi": 67,
      "hit": false,
      "t": 48642.808500000014,
      "d": 209.82121875000303,
      "v": 127
    },
    {
      "midi": 72,
      "hit": false,
      "t": 48642.808500000014,
      "d": 209.82121875000303,
      "v": 127
    },
    {
      "midi": 31,
      "hit": false,
      "t": 48642.808500000116,
      "d": 209.82121875000303,
      "v": 110
    },
    {
      "midi": 64,
      "hit": false,
      "t": 48642.80850000012,
      "d": 71.4285000000018,
      "v": 108
    },
    {
      "midi": 67,
      "hit": false,
      "t": 48642.80850000012,
      "d": 71.4285000000018,
      "v": 108
    },
    {
      "midi": 72,
      "hit": false,
      "t": 48642.80850000012,
      "d": 71.4285000000018,
      "v": 108
    },
    {
      "midi": 60,
      "hit": false,
      "t": 48642.80850000015,
      "d": 71.4285000000018,
      "v": 108
    },
    {
      "midi": 64,
      "hit": false,
      "t": 48642.80850000015,
      "d": 71.4285000000018,
      "v": 108
    },
    {
      "midi": 67,
      "hit": false,
      "t": 48642.80850000015,
      "d": 71.4285000000018,
      "v": 108
    },
    {
      "midi": 67,
      "hit": false,
      "t": 48642.80850000017,
      "d": 71.4285000000018,
      "v": 75
    },
    {
      "midi": 72,
      "hit": false,
      "t": 48642.80850000017,
      "d": 71.4285000000018,
      "v": 75
    },
    {
      "midi": 42,
      "hit": false,
      "t": 48642.8085000003,
      "d": 209.82121875000303,
      "v": 110
    },
    {
      "midi": 65,
      "hit": false,
      "t": 48857.09400000002,
      "d": 209.82121875000303,
      "v": 127
    },
    {
      "midi": 70,
      "hit": false,
      "t": 48857.09400000002,
      "d": 209.82121875000303,
      "v": 127
    },
    {
      "midi": 42,
      "hit": false,
      "t": 48857.09400000003,
      "d": 209.82121875000303,
      "v": 75
    },
    {
      "midi": 34,
      "hit": false,
      "t": 48857.09400000012,
      "d": 209.82121875000303,
      "v": 110
    },
    {
      "midi": 65,
      "hit": false,
      "t": 48857.09400000017,
      "d": 71.4285000000018,
      "v": 75
    },
    {
      "midi": 70,
      "hit": false,
      "t": 48857.09400000017,
      "d": 71.4285000000018,
      "v": 75
    },
    {
      "midi": 36,
      "hit": false,
      "t": 48857.0940000003,
      "d": 209.82121875000303,
      "v": 110
    },
    {
      "midi": 65,
      "hit": false,
      "t": 49071.379500000025,
      "d": 209.82121875000303,
      "v": 127
    },
    {
      "midi": 70,
      "hit": false,
      "t": 49071.379500000025,
      "d": 209.82121875000303,
      "v": 127
    },
    {
      "midi": 62,
      "hit": false,
      "t": 49071.37950000013,
      "d": 71.4285000000018,
      "v": 108
    },
    {
      "midi": 65,
      "hit": false,
      "t": 49071.37950000013,
      "d": 71.4285000000018,
      "v": 108
    },
    {
      "midi": 70,
      "hit": false,
      "t": 49071.37950000013,
      "d": 71.4285000000018,
      "v": 108
    },
    {
      "midi": 58,
      "hit": false,
      "t": 49071.379500000156,
      "d": 71.4285000000018,
      "v": 108
    },
    {
      "midi": 62,
      "hit": false,
      "t": 49071.379500000156,
      "d": 71.4285000000018,
      "v": 108
    },
    {
      "midi": 65,
      "hit": false,
      "t": 49071.379500000156,
      "d": 71.4285000000018,
      "v": 108
    },
    {
      "midi": 65,
      "hit": false,
      "t": 49071.37950000018,
      "d": 71.4285000000018,
      "v": 75
    },
    {
      "midi": 70,
      "hit": false,
      "t": 49071.37950000018,
      "d": 71.4285000000018,
      "v": 75
    },
    {
      "midi": 42,
      "hit": false,
      "t": 49071.37950000031,
      "d": 209.82121875000303,
      "v": 110
    },
    {
      "midi": 70,
      "hit": false,
      "t": 49285.66500000003,
      "d": 209.82121875000303,
      "v": 127
    },
    {
      "midi": 74,
      "hit": false,
      "t": 49285.66500000003,
      "d": 209.82121875000303,
      "v": 127
    },
    {
      "midi": 42,
      "hit": false,
      "t": 49285.66500000003,
      "d": 209.82121875000303,
      "v": 75
    },
    {
      "midi": 70,
      "hit": false,
      "t": 49285.66500000018,
      "d": 71.4285000000018,
      "v": 75
    },
    {
      "midi": 74,
      "hit": false,
      "t": 49285.66500000018,
      "d": 71.4285000000018,
      "v": 75
    },
    {
      "midi": 40,
      "hit": false,
      "t": 49285.665000000314,
      "d": 209.82121875000303,
      "v": 110
    },
    {
      "midi": 70,
      "hit": false,
      "t": 49499.950500000035,
      "d": 209.82121875000303,
      "v": 127
    },
    {
      "midi": 74,
      "hit": false,
      "t": 49499.950500000035,
      "d": 209.82121875000303,
      "v": 127
    },
    {
      "midi": 31,
      "hit": false,
      "t": 49499.95050000012,
      "d": 209.82121875000303,
      "v": 110
    },
    {
      "midi": 62,
      "hit": false,
      "t": 49499.95050000013,
      "d": 71.4285000000018,
      "v": 108
    },
    {
      "midi": 65,
      "hit": false,
      "t": 49499.95050000013,
      "d": 71.4285000000018,
      "v": 108
    },
    {
      "midi": 70,
      "hit": false,
      "t": 49499.95050000013,
      "d": 71.4285000000018,
      "v": 108
    },
    {
      "midi": 58,
      "hit": false,
      "t": 49499.95050000016,
      "d": 71.4285000000018,
      "v": 108
    },
    {
      "midi": 62,
      "hit": false,
      "t": 49499.95050000016,
      "d": 71.4285000000018,
      "v": 108
    },
    {
      "midi": 65,
      "hit": false,
      "t": 49499.95050000016,
      "d": 71.4285000000018,
      "v": 108
    },
    {
      "midi": 70,
      "hit": false,
      "t": 49499.95050000019,
      "d": 71.4285000000018,
      "v": 75
    },
    {
      "midi": 74,
      "hit": false,
      "t": 49499.95050000019,
      "d": 71.4285000000018,
      "v": 75
    },
    {
      "midi": 42,
      "hit": false,
      "t": 49499.95050000032,
      "d": 209.82121875000303,
      "v": 110
    },
    {
      "midi": 42,
      "hit": false,
      "t": 49714.23600000003,
      "d": 209.82121875000303,
      "v": 75
    },
    {
      "midi": 67,
      "hit": false,
      "t": 49714.23600000004,
      "d": 209.82121875000303,
      "v": 127
    },
    {
      "midi": 72,
      "hit": false,
      "t": 49714.23600000004,
      "d": 209.82121875000303,
      "v": 127
    },
    {
      "midi": 36,
      "hit": false,
      "t": 49714.23600000013,
      "d": 357.14250000000175,
      "v": 110
    },
    {
      "midi": 67,
      "hit": false,
      "t": 49714.23600000019,
      "d": 71.4285000000018,
      "v": 75
    },
    {
      "midi": 72,
      "hit": false,
      "t": 49714.23600000019,
      "d": 71.4285000000018,
      "v": 75
    },
    {
      "midi": 36,
      "hit": false,
      "t": 49714.236000000325,
      "d": 209.82121875000303,
      "v": 110
    },
    {
      "midi": 67,
      "hit": false,
      "t": 49928.521500000046,
      "d": 209.82121875000303,
      "v": 127
    },
    {
      "midi": 72,
      "hit": false,
      "t": 49928.521500000046,
      "d": 209.82121875000303,
      "v": 127
    },
    {
      "midi": 64,
      "hit": false,
      "t": 49928.52150000013,
      "d": 71.4285000000018,
      "v": 108
    },
    {
      "midi": 67,
      "hit": false,
      "t": 49928.52150000013,
      "d": 71.4285000000018,
      "v": 108
    },
    {
      "midi": 72,
      "hit": false,
      "t": 49928.52150000013,
      "d": 71.4285000000018,
      "v": 108
    },
    {
      "midi": 60,
      "hit": false,
      "t": 49928.52150000016,
      "d": 71.4285000000018,
      "v": 108
    },
    {
      "midi": 64,
      "hit": false,
      "t": 49928.52150000016,
      "d": 71.4285000000018,
      "v": 108
    },
    {
      "midi": 67,
      "hit": false,
      "t": 49928.52150000016,
      "d": 71.4285000000018,
      "v": 108
    },
    {
      "midi": 67,
      "hit": false,
      "t": 49928.5215000002,
      "d": 71.4285000000018,
      "v": 75
    },
    {
      "midi": 72,
      "hit": false,
      "t": 49928.5215000002,
      "d": 71.4285000000018,
      "v": 75
    },
    {
      "midi": 46,
      "hit": false,
      "t": 49928.52150000033,
      "d": 209.82121875000303,
      "v": 110
    },
    {
      "midi": 42,
      "hit": false,
      "t": 50142.80700000004,
      "d": 209.82121875000303,
      "v": 75
    },
    {
      "midi": 65,
      "hit": false,
      "t": 50142.80700000005,
      "d": 209.82121875000303,
      "v": 127
    },
    {
      "midi": 70,
      "hit": false,
      "t": 50142.80700000005,
      "d": 209.82121875000303,
      "v": 127
    },
    {
      "midi": 34,
      "hit": false,
      "t": 50142.80700000013,
      "d": 357.14250000000175,
      "v": 110
    },
    {
      "midi": 65,
      "hit": false,
      "t": 50142.807000000204,
      "d": 71.4285000000018,
      "v": 75
    },
    {
      "midi": 70,
      "hit": false,
      "t": 50142.807000000204,
      "d": 71.4285000000018,
      "v": 75
    },
    {
      "midi": 40,
      "hit": false,
      "t": 50142.807000000335,
      "d": 209.82121875000303,
      "v": 110
    },
    {
      "midi": 65,
      "hit": false,
      "t": 50357.09250000006,
      "d": 209.82121875000303,
      "v": 127
    },
    {
      "midi": 70,
      "hit": false,
      "t": 50357.09250000006,
      "d": 209.82121875000303,
      "v": 127
    },
    {
      "midi": 58,
      "hit": false,
      "t": 50357.09250000014,
      "d": 71.4285000000018,
      "v": 108
    },
    {
      "midi": 62,
      "hit": false,
      "t": 50357.09250000014,
      "d": 71.4285000000018,
      "v": 108
    },
    {
      "midi": 67,
      "hit": false,
      "t": 50357.09250000014,
      "d": 71.4285000000018,
      "v": 108
    },
    {
      "midi": 53,
      "hit": false,
      "t": 50357.092500000166,
      "d": 71.4285000000018,
      "v": 108
    },
    {
      "midi": 58,
      "hit": false,
      "t": 50357.092500000166,
      "d": 71.4285000000018,
      "v": 108
    },
    {
      "midi": 62,
      "hit": false,
      "t": 50357.092500000166,
      "d": 71.4285000000018,
      "v": 108
    },
    {
      "midi": 65,
      "hit": false,
      "t": 50357.09250000021,
      "d": 71.4285000000018,
      "v": 75
    },
    {
      "midi": 70,
      "hit": false,
      "t": 50357.09250000021,
      "d": 71.4285000000018,
      "v": 75
    },
    {
      "midi": 42,
      "hit": false,
      "t": 50357.09250000034,
      "d": 209.82121875000303,
      "v": 110
    },
    {
      "midi": 42,
      "hit": false,
      "t": 50571.37800000004,
      "d": 209.82121875000303,
      "v": 75
    },
    {
      "midi": 67,
      "hit": false,
      "t": 50571.37800000006,
      "d": 749.9992500000008,
      "v": 127
    },
    {
      "midi": 72,
      "hit": false,
      "t": 50571.37800000006,
      "d": 749.9992500000008,
      "v": 127
    },
    {
      "midi": 36,
      "hit": false,
      "t": 50571.378000000135,
      "d": 357.14250000000175,
      "v": 110
    },
    {
      "midi": 67,
      "hit": false,
      "t": 50571.378000000215,
      "d": 214.28549999999814,
      "v": 75
    },
    {
      "midi": 72,
      "hit": false,
      "t": 50571.378000000215,
      "d": 214.28549999999814,
      "v": 75
    },
    {
      "midi": 36,
      "hit": false,
      "t": 50571.378000000346,
      "d": 209.82121875000303,
      "v": 110
    },
    {
      "midi": 78,
      "hit": false,
      "t": 50785.66350000002,
      "d": 102.67846874999668,
      "v": 127
    },
    {
      "midi": 58,
      "hit": false,
      "t": 50785.66350000014,
      "d": 209.82121875000303,
      "v": 108
    },
    {
      "midi": 62,
      "hit": false,
      "t": 50785.66350000014,
      "d": 209.82121875000303,
      "v": 108
    },
    {
      "midi": 67,
      "hit": false,
      "t": 50785.66350000014,
      "d": 209.82121875000303,
      "v": 108
    },
    {
      "midi": 53,
      "hit": false,
      "t": 50785.66350000017,
      "d": 209.82121875000303,
      "v": 108
    },
    {
      "midi": 58,
      "hit": false,
      "t": 50785.66350000017,
      "d": 209.82121875000303,
      "v": 108
    },
    {
      "midi": 62,
      "hit": false,
      "t": 50785.66350000017,
      "d": 209.82121875000303,
      "v": 108
    },
    {
      "midi": 40,
      "hit": false,
      "t": 50785.66350000035,
      "d": 209.82121875000303,
      "v": 110
    },
    {
      "midi": 45,
      "hit": false,
      "t": 50785.66350000035,
      "d": 209.82121875000303,
      "v": 110
    },
    {
      "midi": 78,
      "hit": false,
      "t": 50892.806250000016,
      "d": 102.67846874999668,
      "v": 110
    },
    {
      "midi": 79,
      "hit": false,
      "t": 50999.949000000015,
      "d": 357.14250000000175,
      "v": 127
    },
    {
      "midi": 29,
      "hit": false,
      "t": 50999.94900000014,
      "d": 209.82121875000303,
      "v": 110
    },
    {
      "midi": 62,
      "hit": false,
      "t": 50999.949000000146,
      "d": 357.14250000000175,
      "v": 108
    },
    {
      "midi": 67,
      "hit": false,
      "t": 50999.949000000146,
      "d": 357.14250000000175,
      "v": 108
    },
    {
      "midi": 70,
      "hit": false,
      "t": 50999.949000000146,
      "d": 357.14250000000175,
      "v": 108
    },
    {
      "midi": 58,
      "hit": false,
      "t": 50999.949000000175,
      "d": 357.14250000000175,
      "v": 108
    },
    {
      "midi": 62,
      "hit": false,
      "t": 50999.949000000175,
      "d": 357.14250000000175,
      "v": 108
    },
    {
      "midi": 67,
      "hit": false,
      "t": 50999.949000000175,
      "d": 357.14250000000175,
      "v": 108
    },
    {
      "midi": 40,
      "hit": false,
      "t": 50999.94900000036,
      "d": 102.67846874999668,
      "v": 110
    },
    {
      "midi": 40,
      "hit": false,
      "t": 51107.091750000356,
      "d": 102.67846874999668,
      "v": 110
    },
    {
      "midi": 30,
      "hit": false,
      "t": 51214.234500000144,
      "d": 209.82121875000303,
      "v": 110
    },
    {
      "midi": 40,
      "hit": false,
      "t": 51214.234500000355,
      "d": 209.82121875000303,
      "v": 110
    },
    {
      "midi": 91,
      "hit": false,
      "t": 51428.51999999995,
      "d": 160.7141249999986,
      "v": 110
    },
    {
      "midi": 95,
      "hit": false,
      "t": 51428.51999999995,
      "d": 160.7141249999986,
      "v": 110
    },
    {
      "midi": 98,
      "hit": false,
      "t": 51428.51999999995,
      "d": 160.7141249999986,
      "v": 110
    },
    {
      "midi": 79,
      "hit": false,
      "t": 51428.52000000006,
      "d": 102.67846874999668,
      "v": 127
    },
    {
      "midi": 31,
      "hit": false,
      "t": 51428.52000000015,
      "d": 160.7141249999986,
      "v": 110
    },
    {
      "midi": 59,
      "hit": false,
      "t": 51428.52000000015,
      "d": 71.4285000000018,
      "v": 108
    },
    {
      "midi": 62,
      "hit": false,
      "t": 51428.52000000015,
      "d": 71.4285000000018,
      "v": 108
    },
    {
      "midi": 67,
      "hit": false,
      "t": 51428.52000000015,
      "d": 71.4285000000018,
      "v": 108
    },
    {
      "midi": 59,
      "hit": false,
      "t": 51428.52000000018,
      "d": 71.4285000000018,
      "v": 108
    },
    {
      "midi": 62,
      "hit": false,
      "t": 51428.52000000018,
      "d": 71.4285000000018,
      "v": 108
    },
    {
      "midi": 67,
      "hit": false,
      "t": 51428.52000000018,
      "d": 71.4285000000018,
      "v": 108
    },
    {
      "midi": 36,
      "hit": false,
      "t": 51428.52000000036,
      "d": 571.4279999999999,
      "v": 127
    },
    {
      "midi": 40,
      "hit": false,
      "t": 51428.52000000036,
      "d": 571.4279999999999,
      "v": 127
    },
    {
      "midi": 78,
      "hit": false,
      "t": 51535.66275000006,
      "d": 102.67846874999668,
      "v": 127
    },
    {
      "midi": 77,
      "hit": false,
      "t": 51642.80550000006,
      "d": 102.67846874999668,
      "v": 127
    },
    {
      "midi": 76,
      "hit": false,
      "t": 51749.94825000006,
      "d": 102.67846874999668,
      "v": 127
    },
    {
      "midi": 75,
      "hit": false,
      "t": 51857.09100000006,
      "d": 209.82121875000303,
      "v": 127
    },
    {
      "midi": 91,
      "hit": false,
      "t": 52071.376499999955,
      "d": 160.7141249999986,
      "v": 110
    },
    {
      "midi": 95,
      "hit": false,
      "t": 52071.376499999955,
      "d": 160.7141249999986,
      "v": 110
    },
    {
      "midi": 98,
      "hit": false,
      "t": 52071.376499999955,
      "d": 160.7141249999986,
      "v": 110
    },
    {
      "midi": 79,
      "hit": false,
      "t": 52071.376500000064,
      "d": 102.67846874999668,
      "v": 127
    },
    {
      "midi": 31,
      "hit": false,
      "t": 52071.37650000015,
      "d": 160.7141249999986,
      "v": 110
    },
    {
      "midi": 59,
      "hit": false,
      "t": 52071.37650000015,
      "d": 71.4285000000018,
      "v": 108
    },
    {
      "midi": 62,
      "hit": false,
      "t": 52071.37650000015,
      "d": 71.4285000000018,
      "v": 108
    },
    {
      "midi": 67,
      "hit": false,
      "t": 52071.37650000015,
      "d": 71.4285000000018,
      "v": 108
    },
    {
      "midi": 59,
      "hit": false,
      "t": 52071.37650000018,
      "d": 71.4285000000018,
      "v": 108
    },
    {
      "midi": 62,
      "hit": false,
      "t": 52071.37650000018,
      "d": 71.4285000000018,
      "v": 108
    },
    {
      "midi": 67,
      "hit": false,
      "t": 52071.37650000018,
      "d": 71.4285000000018,
      "v": 108
    },
    {
      "midi": 36,
      "hit": false,
      "t": 52071.37650000036,
      "d": 571.4279999999999,
      "v": 127
    },
    {
      "midi": 40,
      "hit": false,
      "t": 52071.37650000036,
      "d": 571.4279999999999,
      "v": 127
    },
    {
      "midi": 78,
      "hit": false,
      "t": 52178.51925000006,
      "d": 102.67846874999668,
      "v": 127
    },
    {
      "midi": 77,
      "hit": false,
      "t": 52285.66200000006,
      "d": 102.67846874999668,
      "v": 127
    },
    {
      "midi": 76,
      "hit": false,
      "t": 52392.80475000006,
      "d": 102.67846874999668,
      "v": 127
    },
    {
      "midi": 75,
      "hit": false,
      "t": 52499.94750000006,
      "d": 209.82121875000303,
      "v": 127
    },
    {
      "midi": 91,
      "hit": false,
      "t": 52714.23299999996,
      "d": 107.14274999999907,
      "v": 110
    },
    {
      "midi": 95,
      "hit": false,
      "t": 52714.23299999996,
      "d": 107.14274999999907,
      "v": 110
    },
    {
      "midi": 98,
      "hit": false,
      "t": 52714.23299999996,
      "d": 107.14274999999907,
      "v": 110
    },
    {
      "midi": 79,
      "hit": false,
      "t": 52714.233000000066,
      "d": 209.82121875000303,
      "v": 127
    },
    {
      "midi": 31,
      "hit": false,
      "t": 52714.23300000015,
      "d": 107.14274999999907,
      "v": 110
    },
    {
      "midi": 59,
      "hit": false,
      "t": 52714.23300000015,
      "d": 71.4285000000018,
      "v": 108
    },
    {
      "midi": 62,
      "hit": false,
      "t": 52714.23300000015,
      "d": 71.4285000000018,
      "v": 108
    },
    {
      "midi": 67,
      "hit": false,
      "t": 52714.23300000015,
      "d": 71.4285000000018,
      "v": 108
    },
    {
      "midi": 59,
      "hit": false,
      "t": 52714.23300000018,
      "d": 71.4285000000018,
      "v": 108
    },
    {
      "midi": 62,
      "hit": false,
      "t": 52714.23300000018,
      "d": 71.4285000000018,
      "v": 108
    },
    {
      "midi": 67,
      "hit": false,
      "t": 52714.23300000018,
      "d": 71.4285000000018,
      "v": 108
    },
    {
      "midi": 36,
      "hit": false,
      "t": 52714.233000000364,
      "d": 357.14250000000175,
      "v": 127
    },
    {
      "midi": 40,
      "hit": false,
      "t": 52714.233000000364,
      "d": 357.14250000000175,
      "v": 127
    },
    {
      "midi": 74,
      "hit": false,
      "t": 52928.51850000007,
      "d": 209.82121875000303,
      "v": 127
    },
    {
      "midi": 89,
      "hit": false,
      "t": 53142.80399999995,
      "d": 1607.1412500000006,
      "v": 110
    },
    {
      "midi": 93,
      "hit": false,
      "t": 53142.80399999995,
      "d": 1607.1412500000006,
      "v": 110
    },
    {
      "midi": 96,
      "hit": false,
      "t": 53142.80399999995,
      "d": 1607.1412500000006,
      "v": 110
    },
    {
      "midi": 76,
      "hit": false,
      "t": 53142.80400000008,
      "d": 209.82121875000303,
      "v": 127
    },
    {
      "midi": 77,
      "hit": false,
      "t": 53142.80400000008,
      "d": 209.82121875000303,
      "v": 127
    },
    {
      "midi": 29,
      "hit": false,
      "t": 53142.80400000015,
      "d": 357.14250000000175,
      "v": 110
    },
    {
      "midi": 53,
      "hit": false,
      "t": 53142.80400000016,
      "d": 1607.1412500000006,
      "v": 108
    },
    {
      "midi": 57,
      "hit": false,
      "t": 53142.80400000016,
      "d": 1607.1412500000006,
      "v": 108
    },
    {
      "midi": 60,
      "hit": false,
      "t": 53142.80400000016,
      "d": 1607.1412500000006,
      "v": 108
    },
    {
      "midi": 65,
      "hit": false,
      "t": 53142.80400000016,
      "d": 1607.1412500000006,
      "v": 108
    },
    {
      "midi": 53,
      "hit": false,
      "t": 53142.804000000186,
      "d": 1607.1412500000006,
      "v": 108
    },
    {
      "midi": 57,
      "hit": false,
      "t": 53142.804000000186,
      "d": 1607.1412500000006,
      "v": 108
    },
    {
      "midi": 60,
      "hit": false,
      "t": 53142.804000000186,
      "d": 1607.1412500000006,
      "v": 108
    },
    {
      "midi": 65,
      "hit": false,
      "t": 53142.804000000186,
      "d": 1607.1412500000006,
      "v": 108
    },
    {
      "midi": 36,
      "hit": false,
      "t": 53142.80400000037,
      "d": 209.82121875000303,
      "v": 110
    },
    {
      "midi": 57,
      "hit": false,
      "t": 53142.80400000037,
      "d": 209.82121875000303,
      "v": 110
    },
    {
      "midi": 46,
      "hit": false,
      "t": 53357.089500000046,
      "d": 209.82121875000303,
      "v": 75
    },
    {
      "midi": 72,
      "hit": false,
      "t": 53357.08950000008,
      "d": 209.82121875000303,
      "v": 127
    },
    {
      "midi": 55,
      "hit": false,
      "t": 53357.08950000037,
      "d": 209.82121875000303,
      "v": 110
    },
    {
      "midi": 72,
      "hit": false,
      "t": 53571.37500000009,
      "d": 209.82121875000303,
      "v": 127
    },
    {
      "midi": 41,
      "hit": false,
      "t": 53571.37500000015,
      "d": 209.82121875000303,
      "v": 110
    },
    {
      "midi": 40,
      "hit": false,
      "t": 53571.37500000038,
      "d": 209.82121875000303,
      "v": 110
    },
    {
      "midi": 42,
      "hit": false,
      "t": 53571.37500000038,
      "d": 209.82121875000303,
      "v": 110
    },
    {
      "midi": 46,
      "hit": false,
      "t": 53785.66050000005,
      "d": 209.82121875000303,
      "v": 75
    },
    {
      "midi": 76,
      "hit": false,
      "t": 53785.66050000009,
      "d": 209.82121875000303,
      "v": 127
    },
    {
      "midi": 77,
      "hit": false,
      "t": 53785.66050000009,
      "d": 209.82121875000303,
      "v": 127
    },
    {
      "midi": 41,
      "hit": false,
      "t": 53785.66050000016,
      "d": 209.82121875000303,
      "v": 110
    },
    {
      "midi": 36,
      "hit": false,
      "t": 53785.660500000384,
      "d": 209.82121875000303,
      "v": 110
    },
    {
      "midi": 55,
      "hit": false,
      "t": 53785.660500000384,
      "d": 209.82121875000303,
      "v": 110
    },
    {
      "midi": 72,
      "hit": false,
      "t": 53999.9460000001,
      "d": 209.82121875000303,
      "v": 127
    },
    {
      "midi": 39,
      "hit": false,
      "t": 53999.94600000016,
      "d": 357.14250000000175,
      "v": 110
    },
    {
      "midi": 36,
      "hit": false,
      "t": 53999.94600000039,
      "d": 209.82121875000303,
      "v": 110
    },
    {
      "midi": 42,
      "hit": false,
      "t": 53999.94600000039,
      "d": 209.82121875000303,
      "v": 110
    },
    {
      "midi": 46,
      "hit": false,
      "t": 54214.23150000005,
      "d": 209.82121875000303,
      "v": 75
    },
    {
      "midi": 72,
      "hit": false,
      "t": 54214.2315000001,
      "d": 209.82121875000303,
      "v": 127
    },
    {
      "midi": 55,
      "hit": false,
      "t": 54214.231500000395,
      "d": 209.82121875000303,
      "v": 110
    },
    {
      "midi": 76,
      "hit": false,
      "t": 54428.51700000011,
      "d": 209.82121875000303,
      "v": 127
    },
    {
      "midi": 77,
      "hit": false,
      "t": 54428.51700000011,
      "d": 209.82121875000303,
      "v": 127
    },
    {
      "midi": 41,
      "hit": false,
      "t": 54428.51700000017,
      "d": 357.14250000000175,
      "v": 110
    },
    {
      "midi": 40,
      "hit": false,
      "t": 54428.5170000004,
      "d": 209.82121875000303,
      "v": 110
    },
    {
      "midi": 42,
      "hit": false,
      "t": 54428.5170000004,
      "d": 209.82121875000303,
      "v": 110
    },
    {
      "midi": 46,
      "hit": false,
      "t": 54642.802500000056,
      "d": 209.82121875000303,
      "v": 75
    },
    {
      "midi": 72,
      "hit": false,
      "t": 54642.802500000114,
      "d": 209.82121875000303,
      "v": 127
    },
    {
      "midi": 55,
      "hit": false,
      "t": 54642.802500000405,
      "d": 209.82121875000303,
      "v": 110
    },
    {
      "midi": 91,
      "hit": false,
      "t": 54857.08799999995,
      "d": 160.7141249999986,
      "v": 110
    },
    {
      "midi": 95,
      "hit": false,
      "t": 54857.08799999995,
      "d": 160.7141249999986,
      "v": 110
    },
    {
      "midi": 98,
      "hit": false,
      "t": 54857.08799999995,
      "d": 160.7141249999986,
      "v": 110
    },
    {
      "midi": 79,
      "hit": false,
      "t": 54857.08800000012,
      "d": 102.67846874999668,
      "v": 127
    },
    {
      "midi": 59,
      "hit": false,
      "t": 54857.088000000156,
      "d": 71.4285000000018,
      "v": 108
    },
    {
      "midi": 62,
      "hit": false,
      "t": 54857.088000000156,
      "d": 71.4285000000018,
      "v": 108
    },
    {
      "midi": 67,
      "hit": false,
      "t": 54857.088000000156,
      "d": 71.4285000000018,
      "v": 108
    },
    {
      "midi": 31,
      "hit": false,
      "t": 54857.08800000017,
      "d": 160.7141249999986,
      "v": 110
    },
    {
      "midi": 59,
      "hit": false,
      "t": 54857.088000000185,
      "d": 71.4285000000018,
      "v": 108
    },
    {
      "midi": 62,
      "hit": false,
      "t": 54857.088000000185,
      "d": 71.4285000000018,
      "v": 108
    },
    {
      "midi": 67,
      "hit": false,
      "t": 54857.088000000185,
      "d": 71.4285000000018,
      "v": 108
    },
    {
      "midi": 36,
      "hit": false,
      "t": 54857.08800000041,
      "d": 571.4279999999999,
      "v": 127
    },
    {
      "midi": 40,
      "hit": false,
      "t": 54857.08800000041,
      "d": 571.4279999999999,
      "v": 127
    },
    {
      "midi": 78,
      "hit": false,
      "t": 54964.23075000012,
      "d": 102.67846874999668,
      "v": 127
    },
    {
      "midi": 77,
      "hit": false,
      "t": 55071.37350000012,
      "d": 102.67846874999668,
      "v": 127
    },
    {
      "midi": 76,
      "hit": false,
      "t": 55178.51625000012,
      "d": 102.67846874999668,
      "v": 127
    },
    {
      "midi": 75,
      "hit": false,
      "t": 55285.659000000116,
      "d": 209.82121875000303,
      "v": 127
    },
    {
      "midi": 91,
      "hit": false,
      "t": 55499.944499999954,
      "d": 160.7141249999986,
      "v": 110
    },
    {
      "midi": 95,
      "hit": false,
      "t": 55499.944499999954,
      "d": 160.7141249999986,
      "v": 110
    },
    {
      "midi": 98,
      "hit": false,
      "t": 55499.944499999954,
      "d": 160.7141249999986,
      "v": 110
    },
    {
      "midi": 79,
      "hit": false,
      "t": 55499.94450000012,
      "d": 102.67846874999668,
      "v": 127
    },
    {
      "midi": 59,
      "hit": false,
      "t": 55499.94450000016,
      "d": 71.4285000000018,
      "v": 108
    },
    {
      "midi": 62,
      "hit": false,
      "t": 55499.94450000016,
      "d": 71.4285000000018,
      "v": 108
    },
    {
      "midi": 67,
      "hit": false,
      "t": 55499.94450000016,
      "d": 71.4285000000018,
      "v": 108
    },
    {
      "midi": 31,
      "hit": false,
      "t": 55499.94450000017,
      "d": 160.7141249999986,
      "v": 110
    },
    {
      "midi": 59,
      "hit": false,
      "t": 55499.94450000019,
      "d": 71.4285000000018,
      "v": 108
    },
    {
      "midi": 62,
      "hit": false,
      "t": 55499.94450000019,
      "d": 71.4285000000018,
      "v": 108
    },
    {
      "midi": 67,
      "hit": false,
      "t": 55499.94450000019,
      "d": 71.4285000000018,
      "v": 108
    },
    {
      "midi": 36,
      "hit": false,
      "t": 55499.94450000041,
      "d": 571.4279999999999,
      "v": 127
    },
    {
      "midi": 40,
      "hit": false,
      "t": 55499.94450000041,
      "d": 571.4279999999999,
      "v": 127
    },
    {
      "midi": 78,
      "hit": false,
      "t": 55607.08725000012,
      "d": 102.67846874999668,
      "v": 127
    },
    {
      "midi": 77,
      "hit": false,
      "t": 55714.23000000012,
      "d": 102.67846874999668,
      "v": 127
    },
    {
      "midi": 76,
      "hit": false,
      "t": 55821.37275000012,
      "d": 102.67846874999668,
      "v": 127
    },
    {
      "midi": 75,
      "hit": false,
      "t": 55928.51550000012,
      "d": 209.82121875000303,
      "v": 127
    },
    {
      "midi": 91,
      "hit": false,
      "t": 56142.800999999956,
      "d": 107.14274999999907,
      "v": 110
    },
    {
      "midi": 95,
      "hit": false,
      "t": 56142.800999999956,
      "d": 107.14274999999907,
      "v": 110
    },
    {
      "midi": 98,
      "hit": false,
      "t": 56142.800999999956,
      "d": 107.14274999999907,
      "v": 110
    },
    {
      "midi": 79,
      "hit": false,
      "t": 56142.80100000012,
      "d": 209.82121875000303,
      "v": 127
    },
    {
      "midi": 59,
      "hit": false,
      "t": 56142.80100000016,
      "d": 71.4285000000018,
      "v": 108
    },
    {
      "midi": 62,
      "hit": false,
      "t": 56142.80100000016,
      "d": 71.4285000000018,
      "v": 108
    },
    {
      "midi": 67,
      "hit": false,
      "t": 56142.80100000016,
      "d": 71.4285000000018,
      "v": 108
    },
    {
      "midi": 31,
      "hit": false,
      "t": 56142.801000000174,
      "d": 107.14274999999907,
      "v": 110
    },
    {
      "midi": 59,
      "hit": false,
      "t": 56142.80100000019,
      "d": 71.4285000000018,
      "v": 108
    },
    {
      "midi": 62,
      "hit": false,
      "t": 56142.80100000019,
      "d": 71.4285000000018,
      "v": 108
    },
    {
      "midi": 67,
      "hit": false,
      "t": 56142.80100000019,
      "d": 71.4285000000018,
      "v": 108
    },
    {
      "midi": 36,
      "hit": false,
      "t": 56142.801000000414,
      "d": 357.14250000000175,
      "v": 127
    },
    {
      "midi": 40,
      "hit": false,
      "t": 56142.801000000414,
      "d": 357.14250000000175,
      "v": 127
    },
    {
      "midi": 74,
      "hit": false,
      "t": 56357.08650000013,
      "d": 209.82121875000303,
      "v": 127
    },
    {
      "midi": 89,
      "hit": false,
      "t": 56571.37199999995,
      "d": 1607.1412500000006,
      "v": 110
    },
    {
      "midi": 93,
      "hit": false,
      "t": 56571.37199999995,
      "d": 1607.1412500000006,
      "v": 110
    },
    {
      "midi": 96,
      "hit": false,
      "t": 56571.37199999995,
      "d": 1607.1412500000006,
      "v": 110
    },
    {
      "midi": 76,
      "hit": false,
      "t": 56571.372000000134,
      "d": 209.82121875000303,
      "v": 127
    },
    {
      "midi": 77,
      "hit": false,
      "t": 56571.372000000134,
      "d": 209.82121875000303,
      "v": 127
    },
    {
      "midi": 53,
      "hit": false,
      "t": 56571.37200000016,
      "d": 1607.1412500000006,
      "v": 108
    },
    {
      "midi": 57,
      "hit": false,
      "t": 56571.37200000016,
      "d": 1607.1412500000006,
      "v": 108
    },
    {
      "midi": 60,
      "hit": false,
      "t": 56571.37200000016,
      "d": 1607.1412500000006,
      "v": 108
    },
    {
      "midi": 65,
      "hit": false,
      "t": 56571.37200000016,
      "d": 1607.1412500000006,
      "v": 108
    },
    {
      "midi": 29,
      "hit": false,
      "t": 56571.37200000017,
      "d": 357.14250000000175,
      "v": 110
    },
    {
      "midi": 53,
      "hit": false,
      "t": 56571.37200000019,
      "d": 1607.1412500000006,
      "v": 108
    },
    {
      "midi": 57,
      "hit": false,
      "t": 56571.37200000019,
      "d": 1607.1412500000006,
      "v": 108
    },
    {
      "midi": 60,
      "hit": false,
      "t": 56571.37200000019,
      "d": 1607.1412500000006,
      "v": 108
    },
    {
      "midi": 65,
      "hit": false,
      "t": 56571.37200000019,
      "d": 1607.1412500000006,
      "v": 108
    },
    {
      "midi": 36,
      "hit": false,
      "t": 56571.37200000042,
      "d": 209.82121875000303,
      "v": 110
    },
    {
      "midi": 57,
      "hit": false,
      "t": 56571.37200000042,
      "d": 209.82121875000303,
      "v": 110
    },
    {
      "midi": 46,
      "hit": false,
      "t": 56785.65750000006,
      "d": 209.82121875000303,
      "v": 75
    },
    {
      "midi": 72,
      "hit": false,
      "t": 56785.65750000014,
      "d": 209.82121875000303,
      "v": 127
    },
    {
      "midi": 55,
      "hit": false,
      "t": 56785.65750000042,
      "d": 209.82121875000303,
      "v": 110
    },
    {
      "midi": 72,
      "hit": false,
      "t": 56999.943000000145,
      "d": 209.82121875000303,
      "v": 127
    },
    {
      "midi": 41,
      "hit": false,
      "t": 56999.943000000174,
      "d": 209.82121875000303,
      "v": 110
    },
    {
      "midi": 40,
      "hit": false,
      "t": 56999.94300000043,
      "d": 209.82121875000303,
      "v": 110
    },
    {
      "midi": 42,
      "hit": false,
      "t": 56999.94300000043,
      "d": 209.82121875000303,
      "v": 110
    },
    {
      "midi": 46,
      "hit": false,
      "t": 57214.22850000006,
      "d": 209.82121875000303,
      "v": 75
    },
    {
      "midi": 76,
      "hit": false,
      "t": 57214.22850000015,
      "d": 209.82121875000303,
      "v": 127
    },
    {
      "midi": 77,
      "hit": false,
      "t": 57214.22850000015,
      "d": 209.82121875000303,
      "v": 127
    },
    {
      "midi": 41,
      "hit": false,
      "t": 57214.22850000018,
      "d": 209.82121875000303,
      "v": 110
    },
    {
      "midi": 36,
      "hit": false,
      "t": 57214.228500000434,
      "d": 209.82121875000303,
      "v": 110
    },
    {
      "midi": 55,
      "hit": false,
      "t": 57214.228500000434,
      "d": 209.82121875000303,
      "v": 110
    },
    {
      "midi": 72,
      "hit": false,
      "t": 57428.514000000156,
      "d": 209.82121875000303,
      "v": 127
    },
    {
      "midi": 39,
      "hit": false,
      "t": 57428.514000000185,
      "d": 357.14250000000175,
      "v": 110
    },
    {
      "midi": 36,
      "hit": false,
      "t": 57428.51400000044,
      "d": 209.82121875000303,
      "v": 110
    },
    {
      "midi": 42,
      "hit": false,
      "t": 57428.51400000044,
      "d": 209.82121875000303,
      "v": 110
    },
    {
      "midi": 46,
      "hit": false,
      "t": 57642.79950000007,
      "d": 209.82121875000303,
      "v": 75
    },
    {
      "midi": 72,
      "hit": false,
      "t": 57642.79950000016,
      "d": 209.82121875000303,
      "v": 127
    },
    {
      "midi": 55,
      "hit": false,
      "t": 57642.799500000445,
      "d": 209.82121875000303,
      "v": 110
    },
    {
      "midi": 76,
      "hit": false,
      "t": 57857.08500000017,
      "d": 209.82121875000303,
      "v": 127
    },
    {
      "midi": 77,
      "hit": false,
      "t": 57857.08500000017,
      "d": 209.82121875000303,
      "v": 127
    },
    {
      "midi": 41,
      "hit": false,
      "t": 57857.08500000019,
      "d": 357.14250000000175,
      "v": 110
    },
    {
      "midi": 40,
      "hit": false,
      "t": 57857.08500000045,
      "d": 209.82121875000303,
      "v": 110
    },
    {
      "midi": 42,
      "hit": false,
      "t": 57857.08500000045,
      "d": 209.82121875000303,
      "v": 110
    },
    {
      "midi": 46,
      "hit": false,
      "t": 58071.37050000007,
      "d": 209.82121875000303,
      "v": 75
    },
    {
      "midi": 72,
      "hit": false,
      "t": 58071.37050000017,
      "d": 209.82121875000303,
      "v": 127
    },
    {
      "midi": 55,
      "hit": false,
      "t": 58071.370500000456,
      "d": 209.82121875000303,
      "v": 110
    },
    {
      "midi": 91,
      "hit": false,
      "t": 58285.65599999995,
      "d": 160.7141249999986,
      "v": 110
    },
    {
      "midi": 95,
      "hit": false,
      "t": 58285.65599999995,
      "d": 160.7141249999986,
      "v": 110
    },
    {
      "midi": 98,
      "hit": false,
      "t": 58285.65599999995,
      "d": 160.7141249999986,
      "v": 110
    },
    {
      "midi": 59,
      "hit": false,
      "t": 58285.65600000016,
      "d": 71.4285000000018,
      "v": 108
    },
    {
      "midi": 62,
      "hit": false,
      "t": 58285.65600000016,
      "d": 71.4285000000018,
      "v": 108
    },
    {
      "midi": 67,
      "hit": false,
      "t": 58285.65600000016,
      "d": 71.4285000000018,
      "v": 108
    },
    {
      "midi": 79,
      "hit": false,
      "t": 58285.65600000018,
      "d": 102.67846874999668,
      "v": 127
    },
    {
      "midi": 31,
      "hit": false,
      "t": 58285.65600000019,
      "d": 160.7141249999986,
      "v": 110
    },
    {
      "midi": 59,
      "hit": false,
      "t": 58285.65600000019,
      "d": 71.4285000000018,
      "v": 108
    },
    {
      "midi": 62,
      "hit": false,
      "t": 58285.65600000019,
      "d": 71.4285000000018,
      "v": 108
    },
    {
      "midi": 67,
      "hit": false,
      "t": 58285.65600000019,
      "d": 71.4285000000018,
      "v": 108
    },
    {
      "midi": 36,
      "hit": false,
      "t": 58285.65600000046,
      "d": 571.4279999999999,
      "v": 127
    },
    {
      "midi": 40,
      "hit": false,
      "t": 58285.65600000046,
      "d": 571.4279999999999,
      "v": 127
    },
    {
      "midi": 78,
      "hit": false,
      "t": 58392.79875000018,
      "d": 102.67846874999668,
      "v": 127
    },
    {
      "midi": 77,
      "hit": false,
      "t": 58499.941500000175,
      "d": 102.67846874999668,
      "v": 127
    },
    {
      "midi": 76,
      "hit": false,
      "t": 58607.084250000175,
      "d": 102.67846874999668,
      "v": 127
    },
    {
      "midi": 75,
      "hit": false,
      "t": 58714.22700000017,
      "d": 209.82121875000303,
      "v": 127
    },
    {
      "midi": 91,
      "hit": false,
      "t": 58928.51249999995,
      "d": 160.7141249999986,
      "v": 110
    },
    {
      "midi": 95,
      "hit": false,
      "t": 58928.51249999995,
      "d": 160.7141249999986,
      "v": 110
    },
    {
      "midi": 98,
      "hit": false,
      "t": 58928.51249999995,
      "d": 160.7141249999986,
      "v": 110
    },
    {
      "midi": 59,
      "hit": false,
      "t": 58928.512500000164,
      "d": 71.4285000000018,
      "v": 108
    },
    {
      "midi": 62,
      "hit": false,
      "t": 58928.512500000164,
      "d": 71.4285000000018,
      "v": 108
    },
    {
      "midi": 67,
      "hit": false,
      "t": 58928.512500000164,
      "d": 71.4285000000018,
      "v": 108
    },
    {
      "midi": 79,
      "hit": false,
      "t": 58928.51250000018,
      "d": 102.67846874999668,
      "v": 127
    },
    {
      "midi": 31,
      "hit": false,
      "t": 58928.51250000019,
      "d": 160.7141249999986,
      "v": 110
    },
    {
      "midi": 59,
      "hit": false,
      "t": 58928.51250000019,
      "d": 71.4285000000018,
      "v": 108
    },
    {
      "midi": 62,
      "hit": false,
      "t": 58928.51250000019,
      "d": 71.4285000000018,
      "v": 108
    },
    {
      "midi": 67,
      "hit": false,
      "t": 58928.51250000019,
      "d": 71.4285000000018,
      "v": 108
    },
    {
      "midi": 36,
      "hit": false,
      "t": 58928.51250000046,
      "d": 571.4279999999999,
      "v": 127
    },
    {
      "midi": 40,
      "hit": false,
      "t": 58928.51250000046,
      "d": 571.4279999999999,
      "v": 127
    },
    {
      "midi": 78,
      "hit": false,
      "t": 59035.65525000018,
      "d": 102.67846874999668,
      "v": 127
    },
    {
      "midi": 77,
      "hit": false,
      "t": 59142.79800000018,
      "d": 102.67846874999668,
      "v": 127
    },
    {
      "midi": 76,
      "hit": false,
      "t": 59249.940750000176,
      "d": 102.67846874999668,
      "v": 127
    },
    {
      "midi": 75,
      "hit": false,
      "t": 59357.083500000175,
      "d": 209.82121875000303,
      "v": 127
    },
    {
      "midi": 91,
      "hit": false,
      "t": 59571.368999999955,
      "d": 107.14274999999907,
      "v": 110
    },
    {
      "midi": 95,
      "hit": false,
      "t": 59571.368999999955,
      "d": 107.14274999999907,
      "v": 110
    },
    {
      "midi": 98,
      "hit": false,
      "t": 59571.368999999955,
      "d": 107.14274999999907,
      "v": 110
    },
    {
      "midi": 59,
      "hit": false,
      "t": 59571.369000000166,
      "d": 71.4285000000018,
      "v": 108
    },
    {
      "midi": 62,
      "hit": false,
      "t": 59571.369000000166,
      "d": 71.4285000000018,
      "v": 108
    },
    {
      "midi": 67,
      "hit": false,
      "t": 59571.369000000166,
      "d": 71.4285000000018,
      "v": 108
    },
    {
      "midi": 79,
      "hit": false,
      "t": 59571.36900000018,
      "d": 209.82121875000303,
      "v": 127
    },
    {
      "midi": 31,
      "hit": false,
      "t": 59571.369000000195,
      "d": 107.14274999999907,
      "v": 110
    },
    {
      "midi": 59,
      "hit": false,
      "t": 59571.369000000195,
      "d": 71.4285000000018,
      "v": 108
    },
    {
      "midi": 62,
      "hit": false,
      "t": 59571.369000000195,
      "d": 71.4285000000018,
      "v": 108
    },
    {
      "midi": 67,
      "hit": false,
      "t": 59571.369000000195,
      "d": 71.4285000000018,
      "v": 108
    },
    {
      "midi": 36,
      "hit": false,
      "t": 59571.369000000464,
      "d": 357.14250000000175,
      "v": 127
    },
    {
      "midi": 40,
      "hit": false,
      "t": 59571.369000000464,
      "d": 357.14250000000175,
      "v": 127
    },
    {
      "midi": 74,
      "hit": false,
      "t": 59785.654500000186,
      "d": 209.82121875000303,
      "v": 127
    },
    {
      "midi": 89,
      "hit": false,
      "t": 59999.93999999995,
      "d": 1607.1412500000006,
      "v": 110
    },
    {
      "midi": 93,
      "hit": false,
      "t": 59999.93999999995,
      "d": 1607.1412500000006,
      "v": 110
    },
    {
      "midi": 96,
      "hit": false,
      "t": 59999.93999999995,
      "d": 1607.1412500000006,
      "v": 110
    },
    {
      "midi": 53,
      "hit": false,
      "t": 59999.94000000017,
      "d": 1607.1412500000006,
      "v": 108
    },
    {
      "midi": 57,
      "hit": false,
      "t": 59999.94000000017,
      "d": 1607.1412500000006,
      "v": 108
    },
    {
      "midi": 60,
      "hit": false,
      "t": 59999.94000000017,
      "d": 1607.1412500000006,
      "v": 108
    },
    {
      "midi": 65,
      "hit": false,
      "t": 59999.94000000017,
      "d": 1607.1412500000006,
      "v": 108
    },
    {
      "midi": 76,
      "hit": false,
      "t": 59999.94000000019,
      "d": 209.82121875000303,
      "v": 127
    },
    {
      "midi": 77,
      "hit": false,
      "t": 59999.94000000019,
      "d": 209.82121875000303,
      "v": 127
    },
    {
      "midi": 29,
      "hit": false,
      "t": 59999.94000000019,
      "d": 357.14250000000175,
      "v": 110
    },
    {
      "midi": 53,
      "hit": false,
      "t": 59999.9400000002,
      "d": 1607.1412500000006,
      "v": 108
    },
    {
      "midi": 57,
      "hit": false,
      "t": 59999.9400000002,
      "d": 1607.1412500000006,
      "v": 108
    },
    {
      "midi": 60,
      "hit": false,
      "t": 59999.9400000002,
      "d": 1607.1412500000006,
      "v": 108
    },
    {
      "midi": 65,
      "hit": false,
      "t": 59999.9400000002,
      "d": 1607.1412500000006,
      "v": 108
    },
    {
      "midi": 36,
      "hit": false,
      "t": 59999.94000000047,
      "d": 209.82121875000303,
      "v": 110
    },
    {
      "midi": 57,
      "hit": false,
      "t": 59999.94000000047,
      "d": 209.82121875000303,
      "v": 110
    },
    {
      "midi": 46,
      "hit": false,
      "t": 60214.22550000007,
      "d": 209.82121875000303,
      "v": 75
    },
    {
      "midi": 72,
      "hit": false,
      "t": 60214.2255000002,
      "d": 209.82121875000303,
      "v": 127
    },
    {
      "midi": 55,
      "hit": false,
      "t": 60214.22550000047,
      "d": 209.82121875000303,
      "v": 110
    },
    {
      "midi": 41,
      "hit": false,
      "t": 60428.511000000195,
      "d": 209.82121875000303,
      "v": 110
    },
    {
      "midi": 72,
      "hit": false,
      "t": 60428.5110000002,
      "d": 209.82121875000303,
      "v": 127
    },
    {
      "midi": 40,
      "hit": false,
      "t": 60428.51100000048,
      "d": 209.82121875000303,
      "v": 110
    },
    {
      "midi": 42,
      "hit": false,
      "t": 60428.51100000048,
      "d": 209.82121875000303,
      "v": 110
    },
    {
      "midi": 46,
      "hit": false,
      "t": 60642.79650000008,
      "d": 209.82121875000303,
      "v": 75
    },
    {
      "midi": 41,
      "hit": false,
      "t": 60642.7965000002,
      "d": 209.82121875000303,
      "v": 110
    },
    {
      "midi": 76,
      "hit": false,
      "t": 60642.79650000021,
      "d": 209.82121875000303,
      "v": 127
    },
    {
      "midi": 77,
      "hit": false,
      "t": 60642.79650000021,
      "d": 209.82121875000303,
      "v": 127
    },
    {
      "midi": 36,
      "hit": false,
      "t": 60642.796500000484,
      "d": 209.82121875000303,
      "v": 110
    },
    {
      "midi": 55,
      "hit": false,
      "t": 60642.796500000484,
      "d": 209.82121875000303,
      "v": 110
    },
    {
      "midi": 39,
      "hit": false,
      "t": 60857.082000000206,
      "d": 357.14250000000175,
      "v": 110
    },
    {
      "midi": 72,
      "hit": false,
      "t": 60857.08200000021,
      "d": 209.82121875000303,
      "v": 127
    },
    {
      "midi": 36,
      "hit": false,
      "t": 60857.08200000049,
      "d": 209.82121875000303,
      "v": 110
    },
    {
      "midi": 42,
      "hit": false,
      "t": 60857.08200000049,
      "d": 209.82121875000303,
      "v": 110
    },
    {
      "midi": 46,
      "hit": false,
      "t": 61071.36750000008,
      "d": 209.82121875000303,
      "v": 75
    },
    {
      "midi": 72,
      "hit": false,
      "t": 61071.36750000022,
      "d": 209.82121875000303,
      "v": 127
    },
    {
      "midi": 55,
      "hit": false,
      "t": 61071.367500000495,
      "d": 209.82121875000303,
      "v": 110
    },
    {
      "midi": 41,
      "hit": false,
      "t": 61285.65300000021,
      "d": 357.14250000000175,
      "v": 110
    },
    {
      "midi": 76,
      "hit": false,
      "t": 61285.653000000224,
      "d": 209.82121875000303,
      "v": 127
    },
    {
      "midi": 77,
      "hit": false,
      "t": 61285.653000000224,
      "d": 209.82121875000303,
      "v": 127
    },
    {
      "midi": 40,
      "hit": false,
      "t": 61285.6530000005,
      "d": 209.82121875000303,
      "v": 110
    },
    {
      "midi": 42,
      "hit": false,
      "t": 61285.6530000005,
      "d": 209.82121875000303,
      "v": 110
    },
    {
      "midi": 46,
      "hit": false,
      "t": 61499.938500000084,
      "d": 209.82121875000303,
      "v": 75
    },
    {
      "midi": 72,
      "hit": false,
      "t": 61499.93850000023,
      "d": 209.82121875000303,
      "v": 127
    },
    {
      "midi": 55,
      "hit": false,
      "t": 61499.938500000506,
      "d": 209.82121875000303,
      "v": 110
    },
    {
      "midi": 91,
      "hit": false,
      "t": 61714.22399999995,
      "d": 160.7141249999986,
      "v": 110
    },
    {
      "midi": 95,
      "hit": false,
      "t": 61714.22399999995,
      "d": 160.7141249999986,
      "v": 110
    },
    {
      "midi": 98,
      "hit": false,
      "t": 61714.22399999995,
      "d": 160.7141249999986,
      "v": 110
    },
    {
      "midi": 59,
      "hit": false,
      "t": 61714.22400000017,
      "d": 71.4285000000018,
      "v": 108
    },
    {
      "midi": 62,
      "hit": false,
      "t": 61714.22400000017,
      "d": 71.4285000000018,
      "v": 108
    },
    {
      "midi": 67,
      "hit": false,
      "t": 61714.22400000017,
      "d": 71.4285000000018,
      "v": 108
    },
    {
      "midi": 59,
      "hit": false,
      "t": 61714.2240000002,
      "d": 71.4285000000018,
      "v": 108
    },
    {
      "midi": 62,
      "hit": false,
      "t": 61714.2240000002,
      "d": 71.4285000000018,
      "v": 108
    },
    {
      "midi": 67,
      "hit": false,
      "t": 61714.2240000002,
      "d": 71.4285000000018,
      "v": 108
    },
    {
      "midi": 31,
      "hit": false,
      "t": 61714.22400000021,
      "d": 160.7141249999986,
      "v": 110
    },
    {
      "midi": 79,
      "hit": false,
      "t": 61714.224000000235,
      "d": 102.67846874999668,
      "v": 127
    },
    {
      "midi": 36,
      "hit": false,
      "t": 61714.22400000051,
      "d": 357.14250000000175,
      "v": 127
    },
    {
      "midi": 40,
      "hit": false,
      "t": 61714.22400000051,
      "d": 357.14250000000175,
      "v": 127
    },
    {
      "midi": 57,
      "hit": false,
      "t": 61714.22400000051,
      "d": 357.14250000000175,
      "v": 127
    },
    {
      "midi": 78,
      "hit": false,
      "t": 61821.366750000234,
      "d": 102.67846874999668,
      "v": 127
    },
    {
      "midi": 77,
      "hit": false,
      "t": 61928.50950000023,
      "d": 102.67846874999668,
      "v": 127
    },
    {
      "midi": 76,
      "hit": false,
      "t": 62035.65225000023,
      "d": 102.67846874999668,
      "v": 127
    },
    {
      "midi": 75,
      "hit": false,
      "t": 62142.79500000023,
      "d": 209.82121875000303,
      "v": 127
    },
    {
      "midi": 40,
      "hit": false,
      "t": 62142.795000000515,
      "d": 209.82121875000303,
      "v": 110
    },
    {
      "midi": 91,
      "hit": false,
      "t": 62357.08049999995,
      "d": 160.7141249999986,
      "v": 110
    },
    {
      "midi": 95,
      "hit": false,
      "t": 62357.08049999995,
      "d": 160.7141249999986,
      "v": 110
    },
    {
      "midi": 98,
      "hit": false,
      "t": 62357.08049999995,
      "d": 160.7141249999986,
      "v": 110
    },
    {
      "midi": 59,
      "hit": false,
      "t": 62357.08050000017,
      "d": 71.4285000000018,
      "v": 108
    },
    {
      "midi": 62,
      "hit": false,
      "t": 62357.08050000017,
      "d": 71.4285000000018,
      "v": 108
    },
    {
      "midi": 67,
      "hit": false,
      "t": 62357.08050000017,
      "d": 71.4285000000018,
      "v": 108
    },
    {
      "midi": 59,
      "hit": false,
      "t": 62357.0805000002,
      "d": 71.4285000000018,
      "v": 108
    },
    {
      "midi": 62,
      "hit": false,
      "t": 62357.0805000002,
      "d": 71.4285000000018,
      "v": 108
    },
    {
      "midi": 67,
      "hit": false,
      "t": 62357.0805000002,
      "d": 71.4285000000018,
      "v": 108
    },
    {
      "midi": 31,
      "hit": false,
      "t": 62357.080500000215,
      "d": 160.7141249999986,
      "v": 110
    },
    {
      "midi": 79,
      "hit": false,
      "t": 62357.08050000024,
      "d": 102.67846874999668,
      "v": 127
    },
    {
      "midi": 36,
      "hit": false,
      "t": 62357.08050000052,
      "d": 357.14250000000175,
      "v": 127
    },
    {
      "midi": 40,
      "hit": false,
      "t": 62357.08050000052,
      "d": 357.14250000000175,
      "v": 127
    },
    {
      "midi": 57,
      "hit": false,
      "t": 62357.08050000052,
      "d": 357.14250000000175,
      "v": 127
    },
    {
      "midi": 78,
      "hit": false,
      "t": 62464.223250000236,
      "d": 102.67846874999668,
      "v": 127
    },
    {
      "midi": 77,
      "hit": false,
      "t": 62571.366000000235,
      "d": 102.67846874999668,
      "v": 127
    },
    {
      "midi": 76,
      "hit": false,
      "t": 62678.508750000234,
      "d": 102.67846874999668,
      "v": 127
    },
    {
      "midi": 75,
      "hit": false,
      "t": 62785.65150000023,
      "d": 209.82121875000303,
      "v": 127
    },
    {
      "midi": 40,
      "hit": false,
      "t": 62785.651500000524,
      "d": 209.82121875000303,
      "v": 110
    },
    {
      "midi": 91,
      "hit": false,
      "t": 62999.936999999954,
      "d": 107.14274999999907,
      "v": 110
    },
    {
      "midi": 95,
      "hit": false,
      "t": 62999.936999999954,
      "d": 107.14274999999907,
      "v": 110
    },
    {
      "midi": 98,
      "hit": false,
      "t": 62999.936999999954,
      "d": 107.14274999999907,
      "v": 110
    },
    {
      "midi": 59,
      "hit": false,
      "t": 62999.93700000017,
      "d": 71.4285000000018,
      "v": 108
    },
    {
      "midi": 62,
      "hit": false,
      "t": 62999.93700000017,
      "d": 71.4285000000018,
      "v": 108
    },
    {
      "midi": 67,
      "hit": false,
      "t": 62999.93700000017,
      "d": 71.4285000000018,
      "v": 108
    },
    {
      "midi": 59,
      "hit": false,
      "t": 62999.9370000002,
      "d": 71.4285000000018,
      "v": 108
    },
    {
      "midi": 62,
      "hit": false,
      "t": 62999.9370000002,
      "d": 71.4285000000018,
      "v": 108
    },
    {
      "midi": 67,
      "hit": false,
      "t": 62999.9370000002,
      "d": 71.4285000000018,
      "v": 108
    },
    {
      "midi": 31,
      "hit": false,
      "t": 62999.937000000216,
      "d": 107.14274999999907,
      "v": 110
    },
    {
      "midi": 79,
      "hit": false,
      "t": 62999.93700000024,
      "d": 209.82121875000303,
      "v": 127
    },
    {
      "midi": 36,
      "hit": false,
      "t": 62999.93700000053,
      "d": 357.14250000000175,
      "v": 127
    },
    {
      "midi": 40,
      "hit": false,
      "t": 62999.93700000053,
      "d": 357.14250000000175,
      "v": 127
    },
    {
      "midi": 49,
      "hit": false,
      "t": 62999.93700000053,
      "d": 357.14250000000175,
      "v": 127
    },
    {
      "midi": 74,
      "hit": false,
      "t": 63214.22250000024,
      "d": 209.82121875000303,
      "v": 127
    },
    {
      "midi": 89,
      "hit": false,
      "t": 63428.50799999995,
      "d": 107.14274999999907,
      "v": 110
    },
    {
      "midi": 93,
      "hit": false,
      "t": 63428.50799999995,
      "d": 107.14274999999907,
      "v": 110
    },
    {
      "midi": 96,
      "hit": false,
      "t": 63428.50799999995,
      "d": 107.14274999999907,
      "v": 110
    },
    {
      "midi": 53,
      "hit": false,
      "t": 63428.508000000176,
      "d": 107.14274999999907,
      "v": 108
    },
    {
      "midi": 57,
      "hit": false,
      "t": 63428.508000000176,
      "d": 107.14274999999907,
      "v": 108
    },
    {
      "midi": 60,
      "hit": false,
      "t": 63428.508000000176,
      "d": 107.14274999999907,
      "v": 108
    },
    {
      "midi": 65,
      "hit": false,
      "t": 63428.508000000176,
      "d": 107.14274999999907,
      "v": 108
    },
    {
      "midi": 53,
      "hit": false,
      "t": 63428.508000000205,
      "d": 107.14274999999907,
      "v": 108
    },
    {
      "midi": 57,
      "hit": false,
      "t": 63428.508000000205,
      "d": 107.14274999999907,
      "v": 108
    },
    {
      "midi": 60,
      "hit": false,
      "t": 63428.508000000205,
      "d": 107.14274999999907,
      "v": 108
    },
    {
      "midi": 65,
      "hit": false,
      "t": 63428.508000000205,
      "d": 107.14274999999907,
      "v": 108
    },
    {
      "midi": 29,
      "hit": false,
      "t": 63428.50800000021,
      "d": 160.7141249999986,
      "v": 110
    },
    {
      "midi": 76,
      "hit": false,
      "t": 63428.50800000025,
      "d": 357.14250000000175,
      "v": 127
    },
    {
      "midi": 77,
      "hit": false,
      "t": 63428.50800000025,
      "d": 357.14250000000175,
      "v": 127
    },
    {
      "midi": 36,
      "hit": false,
      "t": 63428.50800000053,
      "d": 571.4279999999999,
      "v": 110
    },
    {
      "midi": 57,
      "hit": false,
      "t": 63428.50800000053,
      "d": 571.4279999999999,
      "v": 110
    },
    {
      "midi": 94,
      "hit": false,
      "t": 63857.07899999995,
      "d": 49.10709374999715,
      "v": 127
    },
    {
      "midi": 96,
      "hit": false,
      "t": 63910.65037499995,
      "d": 267.8568749999977,
      "v": 127
    },
    {
      "midi": 29,
      "hit": false,
      "t": 64071.364500000214,
      "d": 209.82121875000303,
      "v": 110
    },
    {
      "midi": 48,
      "hit": false,
      "t": 64071.364500000534,
      "d": 49.10709374999715,
      "v": 110
    },
    {
      "midi": 48,
      "hit": false,
      "t": 64124.935875000534,
      "d": 156.2498437500035,
      "v": 110
    },
    {
      "midi": 94,
      "hit": false,
      "t": 64285.64999999994,
      "d": 49.10709374999715,
      "v": 127
    },
    {
      "midi": 34,
      "hit": false,
      "t": 64285.65000000022,
      "d": 357.14250000000175,
      "v": 110
    },
    {
      "midi": 96,
      "hit": false,
      "t": 64339.22137499994,
      "d": 267.8568749999977,
      "v": 127
    },
    {
      "midi": 47,
      "hit": false,
      "t": 64499.93550000054,
      "d": 209.82121875000303,
      "v": 110
    },
    {
      "midi": 94,
      "hit": false,
      "t": 64714.22099999994,
      "d": 102.67846874999668,
      "v": 127
    },
    {
      "midi": 35,
      "hit": false,
      "t": 64714.22100000022,
      "d": 357.14250000000175,
      "v": 110
    },
    {
      "midi": 45,
      "hit": false,
      "t": 64714.22100000054,
      "d": 102.67846874999668,
      "v": 110
    },
    {
      "midi": 91,
      "hit": false,
      "t": 64821.36374999994,
      "d": 102.67846874999668,
      "v": 127
    },
    {
      "midi": 43,
      "hit": false,
      "t": 64821.36375000054,
      "d": 102.67846874999668,
      "v": 110
    },
    {
      "midi": 94,
      "hit": false,
      "t": 64928.50649999994,
      "d": 71.4285000000018,
      "v": 127
    },
    {
      "midi": 41,
      "hit": false,
      "t": 64928.50650000054,
      "d": 209.82121875000303,
      "v": 110
    },
    {
      "midi": 94,
      "hit": false,
      "t": 65142.79199999994,
      "d": 49.10709374999715,
      "v": 127
    },
    {
      "midi": 48,
      "hit": false,
      "t": 65142.79199999996,
      "d": 102.67846874999668,
      "v": 60
    },
    {
      "midi": 54,
      "hit": false,
      "t": 65142.79200000009,
      "d": 102.67846874999668,
      "v": 60
    },
    {
      "midi": 48,
      "hit": false,
      "t": 65142.792000000176,
      "d": 357.14250000000175,
      "v": 92
    },
    {
      "midi": 55,
      "hit": false,
      "t": 65142.792000000176,
      "d": 357.14250000000175,
      "v": 92
    },
    {
      "midi": 60,
      "hit": false,
      "t": 65142.792000000176,
      "d": 357.14250000000175,
      "v": 92
    },
    {
      "midi": 60,
      "hit": false,
      "t": 65142.79200000021,
      "d": 209.82121875000303,
      "v": 45
    },
    {
      "midi": 36,
      "hit": false,
      "t": 65142.79200000023,
      "d": 357.14250000000175,
      "v": 110
    },
    {
      "midi": 72,
      "hit": false,
      "t": 65142.79200000025,
      "d": 102.67846874999668,
      "v": 42
    },
    {
      "midi": 36,
      "hit": false,
      "t": 65142.79200000055,
      "d": 209.82121875000303,
      "v": 110
    },
    {
      "midi": 57,
      "hit": false,
      "t": 65142.79200000055,
      "d": 209.82121875000303,
      "v": 110
    },
    {
      "midi": 96,
      "hit": false,
      "t": 65196.36337499994,
      "d": 1124.9988750000048,
      "v": 127
    },
    {
      "midi": 60,
      "hit": false,
      "t": 65249.93474999996,
      "d": 102.67846874999668,
      "v": 60
    },
    {
      "midi": 64,
      "hit": false,
      "t": 65249.93474999996,
      "d": 102.67846874999668,
      "v": 60
    },
    {
      "midi": 67,
      "hit": false,
      "t": 65249.93474999996,
      "d": 102.67846874999668,
      "v": 60
    },
    {
      "midi": 72,
      "hit": false,
      "t": 65249.93474999996,
      "d": 102.67846874999668,
      "v": 60
    },
    {
      "midi": 54,
      "hit": false,
      "t": 65249.93475000009,
      "d": 102.67846874999668,
      "v": 60
    },
    {
      "midi": 72,
      "hit": false,
      "t": 65249.93475000025,
      "d": 102.67846874999668,
      "v": 30
    },
    {
      "midi": 48,
      "hit": false,
      "t": 65357.077499999956,
      "d": 102.67846874999668,
      "v": 60
    },
    {
      "midi": 54,
      "hit": false,
      "t": 65357.07750000009,
      "d": 102.67846874999668,
      "v": 84
    },
    {
      "midi": 64,
      "hit": false,
      "t": 65357.0775000002,
      "d": 71.4285000000018,
      "v": 92
    },
    {
      "midi": 67,
      "hit": false,
      "t": 65357.0775000002,
      "d": 71.4285000000018,
      "v": 92
    },
    {
      "midi": 72,
      "hit": false,
      "t": 65357.0775000002,
      "d": 71.4285000000018,
      "v": 92
    },
    {
      "midi": 60,
      "hit": false,
      "t": 65357.07750000022,
      "d": 102.67846874999668,
      "v": 45
    },
    {
      "midi": 72,
      "hit": false,
      "t": 65357.07750000025,
      "d": 102.67846874999668,
      "v": 42
    },
    {
      "midi": 53,
      "hit": false,
      "t": 65357.07750000055,
      "d": 209.82121875000303,
      "v": 110
    },
    {
      "midi": 48,
      "hit": false,
      "t": 65464.220249999955,
      "d": 102.67846875000396,
      "v": 60
    },
    {
      "midi": 54,
      "hit": false,
      "t": 65464.220250000086,
      "d": 102.67846875000396,
      "v": 60
    },
    {
      "midi": 60,
      "hit": false,
      "t": 65464.22025000022,
      "d": 102.67846875000396,
      "v": 45
    },
    {
      "midi": 72,
      "hit": false,
      "t": 65464.220250000246,
      "d": 102.67846875000396,
      "v": 30
    },
    {
      "midi": 60,
      "hit": false,
      "t": 65571.36299999995,
      "d": 102.67846875000396,
      "v": 60
    },
    {
      "midi": 64,
      "hit": false,
      "t": 65571.36299999995,
      "d": 102.67846875000396,
      "v": 60
    },
    {
      "midi": 67,
      "hit": false,
      "t": 65571.36299999995,
      "d": 102.67846875000396,
      "v": 60
    },
    {
      "midi": 72,
      "hit": false,
      "t": 65571.36299999995,
      "d": 102.67846875000396,
      "v": 60
    },
    {
      "midi": 54,
      "hit": false,
      "t": 65571.36300000008,
      "d": 102.67846875000396,
      "v": 60
    },
    {
      "midi": 60,
      "hit": false,
      "t": 65571.36300000022,
      "d": 102.67846875000396,
      "v": 45
    },
    {
      "midi": 72,
      "hit": false,
      "t": 65571.36300000024,
      "d": 102.67846875000396,
      "v": 30
    },
    {
      "midi": 36,
      "hit": false,
      "t": 65571.36300000055,
      "d": 209.82121875000303,
      "v": 110
    },
    {
      "midi": 40,
      "hit": false,
      "t": 65571.36300000055,
      "d": 209.82121875000303,
      "v": 110
    },
    {
      "midi": 48,
      "hit": false,
      "t": 65678.50574999995,
      "d": 102.67846875000396,
      "v": 60
    },
    {
      "midi": 54,
      "hit": false,
      "t": 65678.50575000008,
      "d": 102.67846875000396,
      "v": 60
    },
    {
      "midi": 60,
      "hit": false,
      "t": 65678.50575000021,
      "d": 209.82121875000303,
      "v": 45
    },
    {
      "midi": 72,
      "hit": false,
      "t": 65678.50575000024,
      "d": 102.67846875000396,
      "v": 42
    },
    {
      "midi": 58,
      "hit": false,
      "t": 65785.64849999995,
      "d": 102.67846875000396,
      "v": 60
    },
    {
      "midi": 62,
      "hit": false,
      "t": 65785.64849999995,
      "d": 102.67846875000396,
      "v": 60
    },
    {
      "midi": 65,
      "hit": false,
      "t": 65785.64849999995,
      "d": 102.67846875000396,
      "v": 60
    },
    {
      "midi": 70,
      "hit": false,
      "t": 65785.64849999995,
      "d": 102.67846875000396,
      "v": 60
    },
    {
      "midi": 54,
      "hit": false,
      "t": 65785.64850000008,
      "d": 102.67846875000396,
      "v": 84
    },
    {
      "midi": 64,
      "hit": false,
      "t": 65785.6485000002,
      "d": 71.42849999999453,
      "v": 92
    },
    {
      "midi": 67,
      "hit": false,
      "t": 65785.6485000002,
      "d": 71.42849999999453,
      "v": 92
    },
    {
      "midi": 72,
      "hit": false,
      "t": 65785.6485000002,
      "d": 71.42849999999453,
      "v": 92
    },
    {
      "midi": 31,
      "hit": false,
      "t": 65785.64850000023,
      "d": 209.82121875000303,
      "v": 110
    },
    {
      "midi": 72,
      "hit": false,
      "t": 65785.64850000024,
      "d": 102.67846875000396,
      "v": 30
    },
    {
      "midi": 53,
      "hit": false,
      "t": 65785.64850000055,
      "d": 209.82121875000303,
      "v": 110
    },
    {
      "midi": 48,
      "hit": false,
      "t": 65892.79124999995,
      "d": 102.67846875000396,
      "v": 60
    },
    {
      "midi": 54,
      "hit": false,
      "t": 65892.79125000008,
      "d": 102.67846875000396,
      "v": 60
    },
    {
      "midi": 60,
      "hit": false,
      "t": 65892.79125000021,
      "d": 102.67846875000396,
      "v": 45
    },
    {
      "midi": 72,
      "hit": false,
      "t": 65892.79125000024,
      "d": 102.67846875000396,
      "v": 30
    },
    {
      "midi": 46,
      "hit": false,
      "t": 65999.93399999995,
      "d": 102.67846875000396,
      "v": 60
    },
    {
      "midi": 54,
      "hit": false,
      "t": 65999.93400000008,
      "d": 102.67846875000396,
      "v": 60
    },
    {
      "midi": 58,
      "hit": false,
      "t": 65999.93400000021,
      "d": 209.82121875000303,
      "v": 45
    },
    {
      "midi": 34,
      "hit": false,
      "t": 65999.93400000023,
      "d": 357.14250000000175,
      "v": 110
    },
    {
      "midi": 70,
      "hit": false,
      "t": 65999.93400000024,
      "d": 102.67846875000396,
      "v": 42
    },
    {
      "midi": 36,
      "hit": false,
      "t": 65999.93400000055,
      "d": 209.82121875000303,
      "v": 110
    },
    {
      "midi": 58,
      "hit": false,
      "t": 66107.07674999995,
      "d": 102.67846875000396,
      "v": 60
    },
    {
      "midi": 62,
      "hit": false,
      "t": 66107.07674999995,
      "d": 102.67846875000396,
      "v": 60
    },
    {
      "midi": 65,
      "hit": false,
      "t": 66107.07674999995,
      "d": 102.67846875000396,
      "v": 60
    },
    {
      "midi": 70,
      "hit": false,
      "t": 66107.07674999995,
      "d": 102.67846875000396,
      "v": 60
    },
    {
      "midi": 54,
      "hit": false,
      "t": 66107.07675000008,
      "d": 102.67846875000396,
      "v": 60
    },
    {
      "midi": 70,
      "hit": false,
      "t": 66107.07675000024,
      "d": 102.67846875000396,
      "v": 30
    },
    {
      "midi": 46,
      "hit": false,
      "t": 66214.21949999995,
      "d": 102.67846875000396,
      "v": 60
    },
    {
      "midi": 54,
      "hit": false,
      "t": 66214.21950000008,
      "d": 102.67846875000396,
      "v": 84
    },
    {
      "midi": 64,
      "hit": false,
      "t": 66214.2195000002,
      "d": 71.42849999999453,
      "v": 92
    },
    {
      "midi": 67,
      "hit": false,
      "t": 66214.2195000002,
      "d": 71.42849999999453,
      "v": 92
    },
    {
      "midi": 70,
      "hit": false,
      "t": 66214.2195000002,
      "d": 71.42849999999453,
      "v": 92
    },
    {
      "midi": 58,
      "hit": false,
      "t": 66214.21950000021,
      "d": 102.67846875000396,
      "v": 45
    },
    {
      "midi": 70,
      "hit": false,
      "t": 66214.21950000024,
      "d": 102.67846875000396,
      "v": 30
    },
    {
      "midi": 53,
      "hit": false,
      "t": 66214.21950000054,
      "d": 209.82121875000303,
      "v": 110
    },
    {
      "midi": 46,
      "hit": false,
      "t": 66321.36224999995,
      "d": 102.67846875000396,
      "v": 60
    },
    {
      "midi": 54,
      "hit": false,
      "t": 66321.36225000008,
      "d": 102.67846875000396,
      "v": 60
    },
    {
      "midi": 58,
      "hit": false,
      "t": 66321.36225000021,
      "d": 209.82121875000303,
      "v": 45
    },
    {
      "midi": 70,
      "hit": false,
      "t": 66321.36225000024,
      "d": 102.67846875000396,
      "v": 42
    },
    {
      "midi": 94,
      "hit": false,
      "t": 66428.50499999995,
      "d": 102.67846875000396,
      "v": 127
    },
    {
      "midi": 47,
      "hit": false,
      "t": 66428.50499999995,
      "d": 102.67846875000396,
      "v": 60
    },
    {
      "midi": 54,
      "hit": false,
      "t": 66428.50500000008,
      "d": 102.67846875000396,
      "v": 60
    },
    {
      "midi": 70,
      "hit": false,
      "t": 66428.50500000024,
      "d": 102.67846875000396,
      "v": 30
    },
    {
      "midi": 36,
      "hit": false,
      "t": 66428.50500000054,
      "d": 209.82121875000303,
      "v": 110
    },
    {
      "midi": 40,
      "hit": false,
      "t": 66428.50500000054,
      "d": 209.82121875000303,
      "v": 110
    },
    {
      "midi": 91,
      "hit": false,
      "t": 66535.64774999995,
      "d": 102.67846875000396,
      "v": 127
    },
    {
      "midi": 47,
      "hit": false,
      "t": 66535.64774999995,
      "d": 102.67846875000396,
      "v": 60
    },
    {
      "midi": 54,
      "hit": false,
      "t": 66535.64775000008,
      "d": 102.67846875000396,
      "v": 60
    },
    {
      "midi": 58,
      "hit": false,
      "t": 66535.64775000021,
      "d": 102.67846875000396,
      "v": 45
    },
    {
      "midi": 71,
      "hit": false,
      "t": 66535.64775000024,
      "d": 102.67846875000396,
      "v": 42
    },
    {
      "midi": 94,
      "hit": false,
      "t": 66642.79049999994,
      "d": 71.42849999999453,
      "v": 127
    },
    {
      "midi": 59,
      "hit": false,
      "t": 66642.79049999994,
      "d": 102.67846875000396,
      "v": 60
    },
    {
      "midi": 63,
      "hit": false,
      "t": 66642.79049999994,
      "d": 102.67846875000396,
      "v": 60
    },
    {
      "midi": 66,
      "hit": false,
      "t": 66642.79049999994,
      "d": 102.67846875000396,
      "v": 60
    },
    {
      "midi": 71,
      "hit": false,
      "t": 66642.79049999994,
      "d": 102.67846875000396,
      "v": 60
    },
    {
      "midi": 54,
      "hit": false,
      "t": 66642.79050000008,
      "d": 102.67846875000396,
      "v": 84
    },
    {
      "midi": 47,
      "hit": false,
      "t": 66642.79050000018,
      "d": 214.28549999999814,
      "v": 92
    },
    {
      "midi": 54,
      "hit": false,
      "t": 66642.79050000018,
      "d": 214.28549999999814,
      "v": 92
    },
    {
      "midi": 59,
      "hit": false,
      "t": 66642.79050000018,
      "d": 214.28549999999814,
      "v": 92
    },
    {
      "midi": 64,
      "hit": false,
      "t": 66642.79050000019,
      "d": 71.42849999999453,
      "v": 92
    },
    {
      "midi": 67,
      "hit": false,
      "t": 66642.79050000019,
      "d": 71.42849999999453,
      "v": 92
    },
    {
      "midi": 71,
      "hit": false,
      "t": 66642.79050000019,
      "d": 71.42849999999453,
      "v": 92
    },
    {
      "midi": 59,
      "hit": false,
      "t": 66642.7905000002,
      "d": 209.82121875000303,
      "v": 45
    },
    {
      "midi": 71,
      "hit": false,
      "t": 66642.79050000024,
      "d": 102.67846875000396,
      "v": 30
    },
    {
      "midi": 31,
      "hit": false,
      "t": 66642.79050000024,
      "d": 209.82121875000303,
      "v": 110
    },
    {
      "midi": 53,
      "hit": false,
      "t": 66642.79050000054,
      "d": 209.82121875000303,
      "v": 110
    },
    {
      "midi": 47,
      "hit": false,
      "t": 66749.93324999994,
      "d": 102.67846875000396,
      "v": 60
    },
    {
      "midi": 54,
      "hit": false,
      "t": 66749.93325000007,
      "d": 102.67846875000396,
      "v": 60
    },
    {
      "midi": 71,
      "hit": false,
      "t": 66749.93325000023,
      "d": 102.67846875000396,
      "v": 30
    },
    {
      "midi": 94,
      "hit": false,
      "t": 66857.07599999994,
      "d": 49.107093750004424,
      "v": 127
    },
    {
      "midi": 48,
      "hit": false,
      "t": 66857.07599999994,
      "d": 102.67846875000396,
      "v": 60
    },
    {
      "midi": 54,
      "hit": false,
      "t": 66857.07600000007,
      "d": 102.67846875000396,
      "v": 60
    },
    {
      "midi": 48,
      "hit": false,
      "t": 66857.07600000018,
      "d": 357.14250000000175,
      "v": 92
    },
    {
      "midi": 55,
      "hit": false,
      "t": 66857.07600000018,
      "d": 357.14250000000175,
      "v": 92
    },
    {
      "midi": 60,
      "hit": false,
      "t": 66857.07600000018,
      "d": 357.14250000000175,
      "v": 92
    },
    {
      "midi": 60,
      "hit": false,
      "t": 66857.0760000002,
      "d": 209.82121875000303,
      "v": 45
    },
    {
      "midi": 72,
      "hit": false,
      "t": 66857.07600000023,
      "d": 102.67846875000396,
      "v": 42
    },
    {
      "midi": 36,
      "hit": false,
      "t": 66857.07600000023,
      "d": 357.14250000000175,
      "v": 110
    },
    {
      "midi": 36,
      "hit": false,
      "t": 66857.07600000054,
      "d": 209.82121875000303,
      "v": 110
    },
    {
      "midi": 96,
      "hit": false,
      "t": 66910.64737499994,
      "d": 1013.391843749996,
      "v": 127
    },
    {
      "midi": 60,
      "hit": false,
      "t": 66964.21874999994,
      "d": 102.67846875000396,
      "v": 60
    },
    {
      "midi": 64,
      "hit": false,
      "t": 66964.21874999994,
      "d": 102.67846875000396,
      "v": 60
    },
    {
      "midi": 67,
      "hit": false,
      "t": 66964.21874999994,
      "d": 102.67846875000396,
      "v": 60
    },
    {
      "midi": 72,
      "hit": false,
      "t": 66964.21874999994,
      "d": 102.67846875000396,
      "v": 60
    },
    {
      "midi": 54,
      "hit": false,
      "t": 66964.21875000007,
      "d": 102.67846875000396,
      "v": 60
    },
    {
      "midi": 72,
      "hit": false,
      "t": 66964.21875000023,
      "d": 102.67846875000396,
      "v": 30
    },
    {
      "midi": 48,
      "hit": false,
      "t": 67071.36149999994,
      "d": 102.67846875000396,
      "v": 60
    },
    {
      "midi": 54,
      "hit": false,
      "t": 67071.36150000007,
      "d": 102.67846875000396,
      "v": 84
    },
    {
      "midi": 64,
      "hit": false,
      "t": 67071.36150000019,
      "d": 71.42849999999453,
      "v": 92
    },
    {
      "midi": 67,
      "hit": false,
      "t": 67071.36150000019,
      "d": 71.42849999999453,
      "v": 92
    },
    {
      "midi": 72,
      "hit": false,
      "t": 67071.36150000019,
      "d": 71.42849999999453,
      "v": 92
    },
    {
      "midi": 60,
      "hit": false,
      "t": 67071.3615000002,
      "d": 102.67846875000396,
      "v": 45
    },
    {
      "midi": 72,
      "hit": false,
      "t": 67071.36150000023,
      "d": 102.67846875000396,
      "v": 42
    },
    {
      "midi": 53,
      "hit": false,
      "t": 67071.36150000054,
      "d": 209.82121875000303,
      "v": 110
    },
    {
      "midi": 48,
      "hit": false,
      "t": 67178.50424999994,
      "d": 102.67846875000396,
      "v": 60
    },
    {
      "midi": 54,
      "hit": false,
      "t": 67178.50425000007,
      "d": 102.67846875000396,
      "v": 60
    },
    {
      "midi": 60,
      "hit": false,
      "t": 67178.5042500002,
      "d": 102.67846875000396,
      "v": 45
    },
    {
      "midi": 72,
      "hit": false,
      "t": 67178.50425000023,
      "d": 102.67846875000396,
      "v": 30
    },
    {
      "midi": 60,
      "hit": false,
      "t": 67285.64699999994,
      "d": 102.67846875000396,
      "v": 60
    },
    {
      "midi": 64,
      "hit": false,
      "t": 67285.64699999994,
      "d": 102.67846875000396,
      "v": 60
    },
    {
      "midi": 67,
      "hit": false,
      "t": 67285.64699999994,
      "d": 102.67846875000396,
      "v": 60
    },
    {
      "midi": 72,
      "hit": false,
      "t": 67285.64699999994,
      "d": 102.67846875000396,
      "v": 60
    },
    {
      "midi": 54,
      "hit": false,
      "t": 67285.64700000007,
      "d": 102.67846875000396,
      "v": 60
    },
    {
      "midi": 60,
      "hit": false,
      "t": 67285.6470000002,
      "d": 102.67846875000396,
      "v": 45
    },
    {
      "midi": 72,
      "hit": false,
      "t": 67285.64700000023,
      "d": 102.67846875000396,
      "v": 30
    },
    {
      "midi": 36,
      "hit": false,
      "t": 67285.64700000054,
      "d": 209.82121875000303,
      "v": 110
    },
    {
      "midi": 40,
      "hit": false,
      "t": 67285.64700000054,
      "d": 209.82121875000303,
      "v": 110
    },
    {
      "midi": 43,
      "hit": false,
      "t": 67392.78974999994,
      "d": 102.67846875000396,
      "v": 60
    },
    {
      "midi": 54,
      "hit": false,
      "t": 67392.78975000007,
      "d": 102.67846875000396,
      "v": 60
    },
    {
      "midi": 60,
      "hit": false,
      "t": 67392.7897500002,
      "d": 209.82121875000303,
      "v": 45
    },
    {
      "midi": 72,
      "hit": false,
      "t": 67392.78975000023,
      "d": 102.67846875000396,
      "v": 30
    },
    {
      "midi": 43,
      "hit": false,
      "t": 67499.93249999994,
      "d": 102.67846875000396,
      "v": 60
    },
    {
      "midi": 54,
      "hit": false,
      "t": 67499.93250000007,
      "d": 102.67846875000396,
      "v": 84
    },
    {
      "midi": 64,
      "hit": false,
      "t": 67499.93250000018,
      "d": 71.42849999999453,
      "v": 92
    },
    {
      "midi": 67,
      "hit": false,
      "t": 67499.93250000018,
      "d": 71.42849999999453,
      "v": 92
    },
    {
      "midi": 72,
      "hit": false,
      "t": 67499.93250000018,
      "d": 71.42849999999453,
      "v": 92
    },
    {
      "midi": 72,
      "hit": false,
      "t": 67499.93250000023,
      "d": 102.67846875000396,
      "v": 42
    },
    {
      "midi": 31,
      "hit": false,
      "t": 67499.93250000024,
      "d": 209.82121875000303,
      "v": 110
    },
    {
      "midi": 53,
      "hit": false,
      "t": 67499.93250000053,
      "d": 209.82121875000303,
      "v": 110
    },
    {
      "midi": 58,
      "hit": false,
      "t": 67607.07524999994,
      "d": 102.67846875000396,
      "v": 60
    },
    {
      "midi": 62,
      "hit": false,
      "t": 67607.07524999994,
      "d": 102.67846875000396,
      "v": 60
    },
    {
      "midi": 65,
      "hit": false,
      "t": 67607.07524999994,
      "d": 102.67846875000396,
      "v": 60
    },
    {
      "midi": 70,
      "hit": false,
      "t": 67607.07524999994,
      "d": 102.67846875000396,
      "v": 60
    },
    {
      "midi": 54,
      "hit": false,
      "t": 67607.07525000007,
      "d": 102.67846875000396,
      "v": 60
    },
    {
      "midi": 60,
      "hit": false,
      "t": 67607.0752500002,
      "d": 102.67846875000396,
      "v": 45
    },
    {
      "midi": 72,
      "hit": false,
      "t": 67607.07525000023,
      "d": 102.67846875000396,
      "v": 30
    },
    {
      "midi": 46,
      "hit": false,
      "t": 67714.21799999994,
      "d": 102.67846875000396,
      "v": 60
    },
    {
      "midi": 54,
      "hit": false,
      "t": 67714.21800000007,
      "d": 102.67846875000396,
      "v": 60
    },
    {
      "midi": 58,
      "hit": false,
      "t": 67714.2180000002,
      "d": 209.82121875000303,
      "v": 45
    },
    {
      "midi": 70,
      "hit": false,
      "t": 67714.21800000023,
      "d": 102.67846875000396,
      "v": 30
    },
    {
      "midi": 34,
      "hit": false,
      "t": 67714.21800000024,
      "d": 357.14250000000175,
      "v": 110
    },
    {
      "midi": 36,
      "hit": false,
      "t": 67714.21800000053,
      "d": 209.82121875000303,
      "v": 110
    },
    {
      "midi": 58,
      "hit": false,
      "t": 67821.36074999993,
      "d": 102.67846875000396,
      "v": 60
    },
    {
      "midi": 62,
      "hit": false,
      "t": 67821.36074999993,
      "d": 102.67846875000396,
      "v": 60
    },
    {
      "midi": 65,
      "hit": false,
      "t": 67821.36074999993,
      "d": 102.67846875000396,
      "v": 60
    },
    {
      "midi": 70,
      "hit": false,
      "t": 67821.36074999993,
      "d": 102.67846875000396,
      "v": 60
    },
    {
      "midi": 54,
      "hit": false,
      "t": 67821.36075000007,
      "d": 102.67846875000396,
      "v": 60
    },
    {
      "midi": 70,
      "hit": false,
      "t": 67821.36075000023,
      "d": 102.67846875000396,
      "v": 42
    },
    {
      "midi": 94,
      "hit": false,
      "t": 67928.50349999993,
      "d": 102.67846875000396,
      "v": 127
    },
    {
      "midi": 46,
      "hit": false,
      "t": 67928.50349999993,
      "d": 102.67846875000396,
      "v": 60
    },
    {
      "midi": 36,
      "hit": false,
      "t": 67928.50350000006,
      "d": 102.67846875000396,
      "v": 84
    },
    {
      "midi": 54,
      "hit": false,
      "t": 67928.50350000006,
      "d": 102.67846875000396,
      "v": 84
    },
    {
      "midi": 64,
      "hit": false,
      "t": 67928.50350000018,
      "d": 71.42849999999453,
      "v": 92
    },
    {
      "midi": 67,
      "hit": false,
      "t": 67928.50350000018,
      "d": 71.42849999999453,
      "v": 92
    },
    {
      "midi": 70,
      "hit": false,
      "t": 67928.50350000018,
      "d": 71.42849999999453,
      "v": 92
    },
    {
      "midi": 58,
      "hit": false,
      "t": 67928.5035000002,
      "d": 102.67846875000396,
      "v": 45
    },
    {
      "midi": 70,
      "hit": false,
      "t": 67928.50350000022,
      "d": 102.67846875000396,
      "v": 30
    },
    {
      "midi": 53,
      "hit": false,
      "t": 67928.50350000053,
      "d": 209.82121875000303,
      "v": 110
    },
    {
      "midi": 91,
      "hit": false,
      "t": 68035.64624999993,
      "d": 102.67846875000396,
      "v": 127
    },
    {
      "midi": 46,
      "hit": false,
      "t": 68035.64624999993,
      "d": 102.67846875000396,
      "v": 60
    },
    {
      "midi": 54,
      "hit": false,
      "t": 68035.64625000006,
      "d": 102.67846875000396,
      "v": 60
    },
    {
      "midi": 58,
      "hit": false,
      "t": 68035.6462500002,
      "d": 102.67846875000396,
      "v": 45
    },
    {
      "midi": 70,
      "hit": false,
      "t": 68035.64625000022,
      "d": 102.67846875000396,
      "v": 42
    },
    {
      "midi": 90,
      "hit": false,
      "t": 68142.78899999993,
      "d": 102.67846875000396,
      "v": 127
    },
    {
      "midi": 47,
      "hit": false,
      "t": 68142.78899999993,
      "d": 102.67846875000396,
      "v": 60
    },
    {
      "midi": 54,
      "hit": false,
      "t": 68142.78900000006,
      "d": 102.67846875000396,
      "v": 60
    },
    {
      "midi": 58,
      "hit": false,
      "t": 68142.7890000002,
      "d": 102.67846875000396,
      "v": 45
    },
    {
      "midi": 70,
      "hit": false,
      "t": 68142.78900000022,
      "d": 102.67846875000396,
      "v": 30
    },
    {
      "midi": 31,
      "hit": false,
      "t": 68142.78900000024,
      "d": 357.14250000000175,
      "v": 110
    },
    {
      "midi": 36,
      "hit": false,
      "t": 68142.78900000053,
      "d": 209.82121875000303,
      "v": 110
    },
    {
      "midi": 40,
      "hit": false,
      "t": 68142.78900000053,
      "d": 209.82121875000303,
      "v": 110
    },
    {
      "midi": 89,
      "hit": false,
      "t": 68249.93174999993,
      "d": 102.67846875000396,
      "v": 127
    },
    {
      "midi": 47,
      "hit": false,
      "t": 68249.93174999993,
      "d": 102.67846875000396,
      "v": 60
    },
    {
      "midi": 54,
      "hit": false,
      "t": 68249.93175000006,
      "d": 102.67846875000396,
      "v": 60
    },
    {
      "midi": 58,
      "hit": false,
      "t": 68249.93175000019,
      "d": 209.82121875000303,
      "v": 45
    },
    {
      "midi": 71,
      "hit": false,
      "t": 68249.93175000022,
      "d": 102.67846875000396,
      "v": 42
    },
    {
      "midi": 87,
      "hit": false,
      "t": 68357.07449999993,
      "d": 102.67846875000396,
      "v": 127
    },
    {
      "midi": 59,
      "hit": false,
      "t": 68357.07449999993,
      "d": 102.67846875000396,
      "v": 60
    },
    {
      "midi": 63,
      "hit": false,
      "t": 68357.07449999993,
      "d": 102.67846875000396,
      "v": 60
    },
    {
      "midi": 66,
      "hit": false,
      "t": 68357.07449999993,
      "d": 102.67846875000396,
      "v": 60
    },
    {
      "midi": 71,
      "hit": false,
      "t": 68357.07449999993,
      "d": 102.67846875000396,
      "v": 60
    },
    {
      "midi": 54,
      "hit": false,
      "t": 68357.07450000006,
      "d": 102.67846875000396,
      "v": 84
    },
    {
      "midi": 64,
      "hit": false,
      "t": 68357.07450000018,
      "d": 71.42849999999453,
      "v": 92
    },
    {
      "midi": 67,
      "hit": false,
      "t": 68357.07450000018,
      "d": 71.42849999999453,
      "v": 92
    },
    {
      "midi": 71,
      "hit": false,
      "t": 68357.07450000018,
      "d": 71.42849999999453,
      "v": 92
    },
    {
      "midi": 71,
      "hit": false,
      "t": 68357.07450000022,
      "d": 102.67846875000396,
      "v": 30
    },
    {
      "midi": 53,
      "hit": false,
      "t": 68357.07450000053,
      "d": 209.82121875000303,
      "v": 110
    },
    {
      "midi": 84,
      "hit": false,
      "t": 68464.21724999993,
      "d": 102.67846875000396,
      "v": 127
    },
    {
      "midi": 47,
      "hit": false,
      "t": 68464.21724999993,
      "d": 102.67846875000396,
      "v": 60
    },
    {
      "midi": 54,
      "hit": false,
      "t": 68464.21725000006,
      "d": 102.67846875000396,
      "v": 60
    },
    {
      "midi": 59,
      "hit": false,
      "t": 68464.21725000019,
      "d": 102.67846875000396,
      "v": 45
    },
    {
      "midi": 71,
      "hit": false,
      "t": 68464.21725000022,
      "d": 102.67846875000396,
      "v": 42
    },
    {
      "midi": 87,
      "hit": false,
      "t": 68571.35999999993,
      "d": 209.82121875000303,
      "v": 127
    },
    {
      "midi": 48,
      "hit": false,
      "t": 68571.35999999993,
      "d": 102.67846875000396,
      "v": 60
    },
    {
      "midi": 54,
      "hit": false,
      "t": 68571.36000000006,
      "d": 102.67846875000396,
      "v": 60
    },
    {
      "midi": 48,
      "hit": false,
      "t": 68571.36000000018,
      "d": 357.14250000000175,
      "v": 92
    },
    {
      "midi": 55,
      "hit": false,
      "t": 68571.36000000018,
      "d": 357.14250000000175,
      "v": 92
    },
    {
      "midi": 60,
      "hit": false,
      "t": 68571.36000000018,
      "d": 357.14250000000175,
      "v": 92
    },
    {
      "midi": 60,
      "hit": false,
      "t": 68571.36000000019,
      "d": 209.82121875000303,
      "v": 45
    },
    {
      "midi": 72,
      "hit": false,
      "t": 68571.36000000022,
      "d": 102.67846875000396,
      "v": 42
    },
    {
      "midi": 36,
      "hit": false,
      "t": 68571.36000000023,
      "d": 357.14250000000175,
      "v": 110
    },
    {
      "midi": 36,
      "hit": false,
      "t": 68571.36000000052,
      "d": 209.82121875000303,
      "v": 110
    },
    {
      "midi": 60,
      "hit": false,
      "t": 68678.50274999993,
      "d": 102.67846875000396,
      "v": 60
    },
    {
      "midi": 64,
      "hit": false,
      "t": 68678.50274999993,
      "d": 102.67846875000396,
      "v": 60
    },
    {
      "midi": 67,
      "hit": false,
      "t": 68678.50274999993,
      "d": 102.67846875000396,
      "v": 60
    },
    {
      "midi": 72,
      "hit": false,
      "t": 68678.50274999993,
      "d": 102.67846875000396,
      "v": 60
    },
    {
      "midi": 54,
      "hit": false,
      "t": 68678.50275000006,
      "d": 102.67846875000396,
      "v": 60
    },
    {
      "midi": 72,
      "hit": false,
      "t": 68678.50275000022,
      "d": 102.67846875000396,
      "v": 30
    },
    {
      "midi": 84,
      "hit": false,
      "t": 68785.64549999993,
      "d": 71.42849999999453,
      "v": 127
    },
    {
      "midi": 48,
      "hit": false,
      "t": 68785.64549999993,
      "d": 102.67846875000396,
      "v": 60
    },
    {
      "midi": 54,
      "hit": false,
      "t": 68785.64550000006,
      "d": 102.67846875000396,
      "v": 84
    },
    {
      "midi": 64,
      "hit": false,
      "t": 68785.64550000017,
      "d": 71.42849999999453,
      "v": 92
    },
    {
      "midi": 67,
      "hit": false,
      "t": 68785.64550000017,
      "d": 71.42849999999453,
      "v": 92
    },
    {
      "midi": 72,
      "hit": false,
      "t": 68785.64550000017,
      "d": 71.42849999999453,
      "v": 92
    },
    {
      "midi": 60,
      "hit": false,
      "t": 68785.64550000019,
      "d": 102.67846875000396,
      "v": 45
    },
    {
      "midi": 72,
      "hit": false,
      "t": 68785.64550000022,
      "d": 102.67846875000396,
      "v": 42
    },
    {
      "midi": 53,
      "hit": false,
      "t": 68785.64550000052,
      "d": 209.82121875000303,
      "v": 110
    },
    {
      "midi": 48,
      "hit": false,
      "t": 68892.78824999993,
      "d": 102.67846875000396,
      "v": 60
    },
    {
      "midi": 54,
      "hit": false,
      "t": 68892.78825000006,
      "d": 102.67846875000396,
      "v": 60
    },
    {
      "midi": 60,
      "hit": false,
      "t": 68892.78825000019,
      "d": 102.67846875000396,
      "v": 45
    },
    {
      "midi": 72,
      "hit": false,
      "t": 68892.78825000022,
      "d": 102.67846875000396,
      "v": 30
    },
    {
      "midi": 87,
      "hit": false,
      "t": 68999.93099999992,
      "d": 209.82121875000303,
      "v": 127
    },
    {
      "midi": 60,
      "hit": false,
      "t": 68999.93099999992,
      "d": 102.67846875000396,
      "v": 60
    },
    {
      "midi": 64,
      "hit": false,
      "t": 68999.93099999992,
      "d": 102.67846875000396,
      "v": 60
    },
    {
      "midi": 67,
      "hit": false,
      "t": 68999.93099999992,
      "d": 102.67846875000396,
      "v": 60
    },
    {
      "midi": 72,
      "hit": false,
      "t": 68999.93099999992,
      "d": 102.67846875000396,
      "v": 60
    },
    {
      "midi": 54,
      "hit": false,
      "t": 68999.93100000006,
      "d": 102.67846875000396,
      "v": 60
    },
    {
      "midi": 60,
      "hit": false,
      "t": 68999.93100000019,
      "d": 102.67846875000396,
      "v": 45
    },
    {
      "midi": 72,
      "hit": false,
      "t": 68999.93100000022,
      "d": 102.67846875000396,
      "v": 30
    },
    {
      "midi": 36,
      "hit": false,
      "t": 68999.93100000052,
      "d": 209.82121875000303,
      "v": 110
    },
    {
      "midi": 40,
      "hit": false,
      "t": 68999.93100000052,
      "d": 209.82121875000303,
      "v": 110
    },
    {
      "midi": 48,
      "hit": false,
      "t": 69107.07374999992,
      "d": 102.67846875000396,
      "v": 60
    },
    {
      "midi": 54,
      "hit": false,
      "t": 69107.07375000005,
      "d": 102.67846875000396,
      "v": 60
    },
    {
      "midi": 60,
      "hit": false,
      "t": 69107.07375000019,
      "d": 209.82121875000303,
      "v": 45
    },
    {
      "midi": 72,
      "hit": false,
      "t": 69107.07375000021,
      "d": 102.67846875000396,
      "v": 42
    },
    {
      "midi": 84,
      "hit": false,
      "t": 69214.21649999992,
      "d": 71.42849999999453,
      "v": 127
    },
    {
      "midi": 48,
      "hit": false,
      "t": 69214.21649999992,
      "d": 102.67846875000396,
      "v": 60
    },
    {
      "midi": 54,
      "hit": false,
      "t": 69214.21650000005,
      "d": 102.67846875000396,
      "v": 84
    },
    {
      "midi": 64,
      "hit": false,
      "t": 69214.21650000017,
      "d": 71.42849999999453,
      "v": 92
    },
    {
      "midi": 67,
      "hit": false,
      "t": 69214.21650000017,
      "d": 71.42849999999453,
      "v": 92
    },
    {
      "midi": 72,
      "hit": false,
      "t": 69214.21650000017,
      "d": 71.42849999999453,
      "v": 92
    },
    {
      "midi": 72,
      "hit": false,
      "t": 69214.21650000021,
      "d": 102.67846875000396,
      "v": 30
    },
    {
      "midi": 31,
      "hit": false,
      "t": 69214.21650000024,
      "d": 209.82121875000303,
      "v": 110
    },
    {
      "midi": 53,
      "hit": false,
      "t": 69214.21650000052,
      "d": 209.82121875000303,
      "v": 110
    },
    {
      "midi": 58,
      "hit": false,
      "t": 69321.35924999992,
      "d": 102.67846875000396,
      "v": 60
    },
    {
      "midi": 62,
      "hit": false,
      "t": 69321.35924999992,
      "d": 102.67846875000396,
      "v": 60
    },
    {
      "midi": 65,
      "hit": false,
      "t": 69321.35924999992,
      "d": 102.67846875000396,
      "v": 60
    },
    {
      "midi": 70,
      "hit": false,
      "t": 69321.35924999992,
      "d": 102.67846875000396,
      "v": 60
    },
    {
      "midi": 54,
      "hit": false,
      "t": 69321.35925000005,
      "d": 102.67846875000396,
      "v": 60
    },
    {
      "midi": 60,
      "hit": false,
      "t": 69321.35925000018,
      "d": 102.67846875000396,
      "v": 45
    },
    {
      "midi": 72,
      "hit": false,
      "t": 69321.35925000021,
      "d": 102.67846875000396,
      "v": 30
    },
    {
      "midi": 90,
      "hit": false,
      "t": 69428.50199999992,
      "d": 49.107093750004424,
      "v": 127
    },
    {
      "midi": 46,
      "hit": false,
      "t": 69428.50199999992,
      "d": 102.67846875000396,
      "v": 60
    },
    {
      "midi": 54,
      "hit": false,
      "t": 69428.50200000005,
      "d": 102.67846875000396,
      "v": 60
    },
    {
      "midi": 58,
      "hit": false,
      "t": 69428.50200000018,
      "d": 102.67846875000396,
      "v": 45
    },
    {
      "midi": 70,
      "hit": false,
      "t": 69428.50200000021,
      "d": 102.67846875000396,
      "v": 42
    },
    {
      "midi": 34,
      "hit": false,
      "t": 69428.50200000024,
      "d": 357.14250000000175,
      "v": 110
    },
    {
      "midi": 36,
      "hit": false,
      "t": 69428.50200000052,
      "d": 209.82121875000303,
      "v": 110
    },
    {
      "midi": 91,
      "hit": false,
      "t": 69482.07337499992,
      "d": 107.14274999999907,
      "v": 127
    },
    {
      "midi": 46,
      "hit": false,
      "t": 69535.64474999992,
      "d": 102.67846875000396,
      "v": 60
    },
    {
      "midi": 54,
      "hit": false,
      "t": 69535.64475000005,
      "d": 102.67846875000396,
      "v": 60
    },
    {
      "midi": 58,
      "hit": false,
      "t": 69535.64475000018,
      "d": 102.67846875000396,
      "v": 45
    },
    {
      "midi": 70,
      "hit": false,
      "t": 69535.64475000021,
      "d": 102.67846875000396,
      "v": 30
    },
    {
      "midi": 90,
      "hit": false,
      "t": 69642.78749999992,
      "d": 49.107093750004424,
      "v": 127
    },
    {
      "midi": 46,
      "hit": false,
      "t": 69642.78749999992,
      "d": 102.67846875000396,
      "v": 60
    },
    {
      "midi": 54,
      "hit": false,
      "t": 69642.78750000005,
      "d": 102.67846875000396,
      "v": 84
    },
    {
      "midi": 64,
      "hit": false,
      "t": 69642.78750000017,
      "d": 71.42849999999453,
      "v": 92
    },
    {
      "midi": 67,
      "hit": false,
      "t": 69642.78750000017,
      "d": 71.42849999999453,
      "v": 92
    },
    {
      "midi": 70,
      "hit": false,
      "t": 69642.78750000017,
      "d": 71.42849999999453,
      "v": 92
    },
    {
      "midi": 58,
      "hit": false,
      "t": 69642.78750000018,
      "d": 209.82121875000303,
      "v": 45
    },
    {
      "midi": 70,
      "hit": false,
      "t": 69642.78750000021,
      "d": 102.67846875000396,
      "v": 30
    },
    {
      "midi": 53,
      "hit": false,
      "t": 69642.78750000052,
      "d": 209.82121875000303,
      "v": 110
    },
    {
      "midi": 91,
      "hit": false,
      "t": 69696.35887499992,
      "d": 156.2498437500035,
      "v": 127
    },
    {
      "midi": 46,
      "hit": false,
      "t": 69749.93024999992,
      "d": 102.67846875000396,
      "v": 60
    },
    {
      "midi": 54,
      "hit": false,
      "t": 69749.93025000005,
      "d": 102.67846875000396,
      "v": 60
    },
    {
      "midi": 70,
      "hit": false,
      "t": 69749.93025000021,
      "d": 102.67846875000396,
      "v": 42
    },
    {
      "midi": 89,
      "hit": false,
      "t": 69857.07299999992,
      "d": 102.67846875000396,
      "v": 127
    },
    {
      "midi": 47,
      "hit": false,
      "t": 69857.07299999992,
      "d": 102.67846875000396,
      "v": 60
    },
    {
      "midi": 54,
      "hit": false,
      "t": 69857.07300000005,
      "d": 102.67846875000396,
      "v": 60
    },
    {
      "midi": 59,
      "hit": false,
      "t": 69857.07300000018,
      "d": 102.67846875000396,
      "v": 45
    },
    {
      "midi": 70,
      "hit": false,
      "t": 69857.07300000021,
      "d": 102.67846875000396,
      "v": 30
    },
    {
      "midi": 36,
      "hit": false,
      "t": 69857.07300000051,
      "d": 209.82121875000303,
      "v": 110
    },
    {
      "midi": 40,
      "hit": false,
      "t": 69857.07300000051,
      "d": 209.82121875000303,
      "v": 110
    },
    {
      "midi": 87,
      "hit": false,
      "t": 69964.21574999992,
      "d": 102.67846875000396,
      "v": 127
    },
    {
      "midi": 47,
      "hit": false,
      "t": 69964.21574999992,
      "d": 102.67846875000396,
      "v": 60
    },
    {
      "midi": 54,
      "hit": false,
      "t": 69964.21575000005,
      "d": 102.67846875000396,
      "v": 60
    },
    {
      "midi": 59,
      "hit": false,
      "t": 69964.21575000018,
      "d": 209.82121875000303,
      "v": 45
    },
    {
      "midi": 71,
      "hit": false,
      "t": 69964.2157500002,
      "d": 102.67846875000396,
      "v": 42
    },
    {
      "midi": 84,
      "hit": false,
      "t": 70071.35849999991,
      "d": 102.67846875000396,
      "v": 127
    },
    {
      "midi": 59,
      "hit": false,
      "t": 70071.35849999991,
      "d": 102.67846875000396,
      "v": 60
    },
    {
      "midi": 63,
      "hit": false,
      "t": 70071.35849999991,
      "d": 102.67846875000396,
      "v": 60
    },
    {
      "midi": 66,
      "hit": false,
      "t": 70071.35849999991,
      "d": 102.67846875000396,
      "v": 60
    },
    {
      "midi": 71,
      "hit": false,
      "t": 70071.35849999991,
      "d": 102.67846875000396,
      "v": 60
    },
    {
      "midi": 54,
      "hit": false,
      "t": 70071.35850000005,
      "d": 102.67846875000396,
      "v": 84
    },
    {
      "midi": 64,
      "hit": false,
      "t": 70071.35850000016,
      "d": 71.42849999999453,
      "v": 92
    },
    {
      "midi": 67,
      "hit": false,
      "t": 70071.35850000016,
      "d": 71.42849999999453,
      "v": 92
    },
    {
      "midi": 71,
      "hit": false,
      "t": 70071.35850000016,
      "d": 71.42849999999453,
      "v": 92
    },
    {
      "midi": 71,
      "hit": false,
      "t": 70071.3585000002,
      "d": 102.67846875000396,
      "v": 30
    },
    {
      "midi": 31,
      "hit": false,
      "t": 70071.35850000025,
      "d": 209.82121875000303,
      "v": 110
    },
    {
      "midi": 53,
      "hit": false,
      "t": 70071.35850000051,
      "d": 209.82121875000303,
      "v": 110
    },
    {
      "midi": 82,
      "hit": false,
      "t": 70178.50124999991,
      "d": 102.67846875000396,
      "v": 127
    },
    {
      "midi": 47,
      "hit": false,
      "t": 70178.50124999991,
      "d": 102.67846875000396,
      "v": 60
    },
    {
      "midi": 54,
      "hit": false,
      "t": 70178.50125000004,
      "d": 102.67846875000396,
      "v": 60
    },
    {
      "midi": 59,
      "hit": false,
      "t": 70178.50125000018,
      "d": 102.67846875000396,
      "v": 45
    },
    {
      "midi": 71,
      "hit": false,
      "t": 70178.5012500002,
      "d": 102.67846875000396,
      "v": 30
    },
    {
      "midi": 87,
      "hit": false,
      "t": 70285.64399999991,
      "d": 209.82121875000303,
      "v": 127
    },
    {
      "midi": 48,
      "hit": false,
      "t": 70285.64399999991,
      "d": 102.67846875000396,
      "v": 60
    },
    {
      "midi": 54,
      "hit": false,
      "t": 70285.64400000004,
      "d": 102.67846875000396,
      "v": 60
    },
    {
      "midi": 48,
      "hit": false,
      "t": 70285.64400000017,
      "d": 357.14250000000175,
      "v": 92
    },
    {
      "midi": 55,
      "hit": false,
      "t": 70285.64400000017,
      "d": 357.14250000000175,
      "v": 92
    },
    {
      "midi": 60,
      "hit": false,
      "t": 70285.64400000017,
      "d": 357.14250000000175,
      "v": 92
    },
    {
      "midi": 60,
      "hit": false,
      "t": 70285.64400000017,
      "d": 209.82121875000303,
      "v": 45
    },
    {
      "midi": 72,
      "hit": false,
      "t": 70285.6440000002,
      "d": 102.67846875000396,
      "v": 42
    },
    {
      "midi": 36,
      "hit": false,
      "t": 70285.64400000025,
      "d": 357.14250000000175,
      "v": 110
    },
    {
      "midi": 36,
      "hit": false,
      "t": 70285.64400000051,
      "d": 209.82121875000303,
      "v": 110
    },
    {
      "midi": 60,
      "hit": false,
      "t": 70392.78674999991,
      "d": 102.67846875000396,
      "v": 60
    },
    {
      "midi": 64,
      "hit": false,
      "t": 70392.78674999991,
      "d": 102.67846875000396,
      "v": 60
    },
    {
      "midi": 67,
      "hit": false,
      "t": 70392.78674999991,
      "d": 102.67846875000396,
      "v": 60
    },
    {
      "midi": 72,
      "hit": false,
      "t": 70392.78674999991,
      "d": 102.67846875000396,
      "v": 60
    },
    {
      "midi": 54,
      "hit": false,
      "t": 70392.78675000004,
      "d": 102.67846875000396,
      "v": 60
    },
    {
      "midi": 72,
      "hit": false,
      "t": 70392.7867500002,
      "d": 102.67846875000396,
      "v": 30
    },
    {
      "midi": 84,
      "hit": false,
      "t": 70499.92949999991,
      "d": 71.42849999999453,
      "v": 127
    },
    {
      "midi": 48,
      "hit": false,
      "t": 70499.92949999991,
      "d": 102.67846875000396,
      "v": 60
    },
    {
      "midi": 54,
      "hit": false,
      "t": 70499.92950000004,
      "d": 102.67846875000396,
      "v": 84
    },
    {
      "midi": 64,
      "hit": false,
      "t": 70499.92950000016,
      "d": 71.42849999999453,
      "v": 92
    },
    {
      "midi": 67,
      "hit": false,
      "t": 70499.92950000016,
      "d": 71.42849999999453,
      "v": 92
    },
    {
      "midi": 72,
      "hit": false,
      "t": 70499.92950000016,
      "d": 71.42849999999453,
      "v": 92
    },
    {
      "midi": 60,
      "hit": false,
      "t": 70499.92950000017,
      "d": 102.67846875000396,
      "v": 45
    },
    {
      "midi": 72,
      "hit": false,
      "t": 70499.9295000002,
      "d": 102.67846875000396,
      "v": 42
    },
    {
      "midi": 53,
      "hit": false,
      "t": 70499.92950000051,
      "d": 209.82121875000303,
      "v": 110
    },
    {
      "midi": 48,
      "hit": false,
      "t": 70607.07224999991,
      "d": 102.67846875000396,
      "v": 60
    },
    {
      "midi": 54,
      "hit": false,
      "t": 70607.07225000004,
      "d": 102.67846875000396,
      "v": 60
    },
    {
      "midi": 60,
      "hit": false,
      "t": 70607.07225000017,
      "d": 102.67846875000396,
      "v": 45
    },
    {
      "midi": 72,
      "hit": false,
      "t": 70607.0722500002,
      "d": 102.67846875000396,
      "v": 30
    },
    {
      "midi": 87,
      "hit": false,
      "t": 70714.21499999991,
      "d": 209.82121875000303,
      "v": 127
    },
    {
      "midi": 60,
      "hit": false,
      "t": 70714.21499999991,
      "d": 102.67846875000396,
      "v": 60
    },
    {
      "midi": 64,
      "hit": false,
      "t": 70714.21499999991,
      "d": 102.67846875000396,
      "v": 60
    },
    {
      "midi": 67,
      "hit": false,
      "t": 70714.21499999991,
      "d": 102.67846875000396,
      "v": 60
    },
    {
      "midi": 72,
      "hit": false,
      "t": 70714.21499999991,
      "d": 102.67846875000396,
      "v": 60
    },
    {
      "midi": 54,
      "hit": false,
      "t": 70714.21500000004,
      "d": 102.67846875000396,
      "v": 60
    },
    {
      "midi": 60,
      "hit": false,
      "t": 70714.21500000017,
      "d": 102.67846875000396,
      "v": 45
    },
    {
      "midi": 72,
      "hit": false,
      "t": 70714.2150000002,
      "d": 102.67846875000396,
      "v": 30
    },
    {
      "midi": 36,
      "hit": false,
      "t": 70714.2150000005,
      "d": 209.82121875000303,
      "v": 110
    },
    {
      "midi": 40,
      "hit": false,
      "t": 70714.2150000005,
      "d": 209.82121875000303,
      "v": 110
    },
    {
      "midi": 48,
      "hit": false,
      "t": 70821.35774999991,
      "d": 102.67846875000396,
      "v": 60
    },
    {
      "midi": 54,
      "hit": false,
      "t": 70821.35775000004,
      "d": 102.67846875000396,
      "v": 60
    },
    {
      "midi": 60,
      "hit": false,
      "t": 70821.35775000017,
      "d": 209.82121875000303,
      "v": 45
    },
    {
      "midi": 72,
      "hit": false,
      "t": 70821.3577500002,
      "d": 102.67846875000396,
      "v": 42
    },
    {
      "midi": 84,
      "hit": false,
      "t": 70928.50049999991,
      "d": 71.42849999999453,
      "v": 127
    },
    {
      "midi": 58,
      "hit": false,
      "t": 70928.50049999991,
      "d": 102.67846875000396,
      "v": 60
    },
    {
      "midi": 62,
      "hit": false,
      "t": 70928.50049999991,
      "d": 102.67846875000396,
      "v": 60
    },
    {
      "midi": 65,
      "hit": false,
      "t": 70928.50049999991,
      "d": 102.67846875000396,
      "v": 60
    },
    {
      "midi": 70,
      "hit": false,
      "t": 70928.50049999991,
      "d": 102.67846875000396,
      "v": 60
    },
    {
      "midi": 54,
      "hit": false,
      "t": 70928.50050000004,
      "d": 102.67846875000396,
      "v": 84
    },
    {
      "midi": 64,
      "hit": false,
      "t": 70928.50050000015,
      "d": 71.42849999999453,
      "v": 92
    },
    {
      "midi": 67,
      "hit": false,
      "t": 70928.50050000015,
      "d": 71.42849999999453,
      "v": 92
    },
    {
      "midi": 72,
      "hit": false,
      "t": 70928.50050000015,
      "d": 71.42849999999453,
      "v": 92
    },
    {
      "midi": 72,
      "hit": false,
      "t": 70928.5005000002,
      "d": 102.67846875000396,
      "v": 30
    },
    {
      "midi": 31,
      "hit": false,
      "t": 70928.50050000026,
      "d": 209.82121875000303,
      "v": 110
    },
    {
      "midi": 53,
      "hit": false,
      "t": 70928.5005000005,
      "d": 209.82121875000303,
      "v": 110
    },
    {
      "midi": 48,
      "hit": false,
      "t": 71035.6432499999,
      "d": 102.67846875000396,
      "v": 60
    },
    {
      "midi": 54,
      "hit": false,
      "t": 71035.64325000004,
      "d": 102.67846875000396,
      "v": 60
    },
    {
      "midi": 60,
      "hit": false,
      "t": 71035.64325000017,
      "d": 102.67846875000396,
      "v": 45
    },
    {
      "midi": 72,
      "hit": false,
      "t": 71035.6432500002,
      "d": 102.67846875000396,
      "v": 30
    },
    {
      "midi": 89,
      "hit": false,
      "t": 71142.7859999999,
      "d": 49.107093750004424,
      "v": 127
    },
    {
      "midi": 46,
      "hit": false,
      "t": 71142.7859999999,
      "d": 102.67846875000396,
      "v": 60
    },
    {
      "midi": 54,
      "hit": false,
      "t": 71142.78600000004,
      "d": 102.67846875000396,
      "v": 60
    },
    {
      "midi": 58,
      "hit": false,
      "t": 71142.78600000017,
      "d": 209.82121875000303,
      "v": 45
    },
    {
      "midi": 70,
      "hit": false,
      "t": 71142.7860000002,
      "d": 102.67846875000396,
      "v": 42
    },
    {
      "midi": 34,
      "hit": false,
      "t": 71142.78600000025,
      "d": 357.14250000000175,
      "v": 110
    },
    {
      "midi": 36,
      "hit": false,
      "t": 71142.7860000005,
      "d": 209.82121875000303,
      "v": 110
    },
    {
      "midi": 90,
      "hit": false,
      "t": 71196.3573749999,
      "d": 107.14274999999907,
      "v": 127
    },
    {
      "midi": 58,
      "hit": false,
      "t": 71249.9287499999,
      "d": 102.67846875000396,
      "v": 60
    },
    {
      "midi": 62,
      "hit": false,
      "t": 71249.9287499999,
      "d": 102.67846875000396,
      "v": 60
    },
    {
      "midi": 65,
      "hit": false,
      "t": 71249.9287499999,
      "d": 102.67846875000396,
      "v": 60
    },
    {
      "midi": 70,
      "hit": false,
      "t": 71249.9287499999,
      "d": 102.67846875000396,
      "v": 60
    },
    {
      "midi": 54,
      "hit": false,
      "t": 71249.92875000004,
      "d": 102.67846875000396,
      "v": 60
    },
    {
      "midi": 70,
      "hit": false,
      "t": 71249.9287500002,
      "d": 102.67846875000396,
      "v": 30
    },
    {
      "midi": 90,
      "hit": false,
      "t": 71357.0714999999,
      "d": 49.107093750004424,
      "v": 127
    },
    {
      "midi": 46,
      "hit": false,
      "t": 71357.0714999999,
      "d": 102.67846875000396,
      "v": 60
    },
    {
      "midi": 54,
      "hit": false,
      "t": 71357.07150000003,
      "d": 102.67846875000396,
      "v": 84
    },
    {
      "midi": 64,
      "hit": false,
      "t": 71357.07150000015,
      "d": 71.42849999999453,
      "v": 92
    },
    {
      "midi": 67,
      "hit": false,
      "t": 71357.07150000015,
      "d": 71.42849999999453,
      "v": 92
    },
    {
      "midi": 70,
      "hit": false,
      "t": 71357.07150000015,
      "d": 71.42849999999453,
      "v": 92
    },
    {
      "midi": 58,
      "hit": false,
      "t": 71357.07150000017,
      "d": 102.67846875000396,
      "v": 45
    },
    {
      "midi": 70,
      "hit": false,
      "t": 71357.0715000002,
      "d": 102.67846875000396,
      "v": 30
    },
    {
      "midi": 40,
      "hit": false,
      "t": 71357.0715000005,
      "d": 102.67846875000396,
      "v": 110
    },
    {
      "midi": 91,
      "hit": false,
      "t": 71410.6428749999,
      "d": 156.2498437500035,
      "v": 127
    },
    {
      "midi": 46,
      "hit": false,
      "t": 71464.2142499999,
      "d": 102.67846875000396,
      "v": 60
    },
    {
      "midi": 54,
      "hit": false,
      "t": 71464.21425000003,
      "d": 102.67846875000396,
      "v": 60
    },
    {
      "midi": 58,
      "hit": false,
      "t": 71464.21425000016,
      "d": 209.82121875000303,
      "v": 45
    },
    {
      "midi": 70,
      "hit": false,
      "t": 71464.2142500002,
      "d": 102.67846875000396,
      "v": 42
    },
    {
      "midi": 40,
      "hit": false,
      "t": 71464.2142500005,
      "d": 102.67846875000396,
      "v": 110
    },
    {
      "midi": 89,
      "hit": false,
      "t": 71571.3569999999,
      "d": 102.67846875000396,
      "v": 127
    },
    {
      "midi": 47,
      "hit": false,
      "t": 71571.3569999999,
      "d": 102.67846875000396,
      "v": 60
    },
    {
      "midi": 54,
      "hit": false,
      "t": 71571.35700000003,
      "d": 102.67846875000396,
      "v": 60
    },
    {
      "midi": 70,
      "hit": false,
      "t": 71571.3570000002,
      "d": 102.67846875000396,
      "v": 30
    },
    {
      "midi": 31,
      "hit": false,
      "t": 71571.35700000025,
      "d": 357.14250000000175,
      "v": 110
    },
    {
      "midi": 36,
      "hit": false,
      "t": 71571.3570000005,
      "d": 102.67846875000396,
      "v": 110
    },
    {
      "midi": 87,
      "hit": false,
      "t": 71678.4997499999,
      "d": 102.67846875000396,
      "v": 127
    },
    {
      "midi": 47,
      "hit": false,
      "t": 71678.4997499999,
      "d": 102.67846875000396,
      "v": 60
    },
    {
      "midi": 54,
      "hit": false,
      "t": 71678.49975000003,
      "d": 102.67846875000396,
      "v": 60
    },
    {
      "midi": 58,
      "hit": false,
      "t": 71678.49975000016,
      "d": 102.67846875000396,
      "v": 45
    },
    {
      "midi": 71,
      "hit": false,
      "t": 71678.49975000019,
      "d": 102.67846875000396,
      "v": 42
    },
    {
      "midi": 40,
      "hit": false,
      "t": 71678.4997500005,
      "d": 102.67846875000396,
      "v": 110
    },
    {
      "midi": 84,
      "hit": false,
      "t": 71785.6424999999,
      "d": 209.82121875000303,
      "v": 127
    },
    {
      "midi": 59,
      "hit": false,
      "t": 71785.6424999999,
      "d": 102.67846875000396,
      "v": 60
    },
    {
      "midi": 63,
      "hit": false,
      "t": 71785.6424999999,
      "d": 102.67846875000396,
      "v": 60
    },
    {
      "midi": 66,
      "hit": false,
      "t": 71785.6424999999,
      "d": 102.67846875000396,
      "v": 60
    },
    {
      "midi": 71,
      "hit": false,
      "t": 71785.6424999999,
      "d": 102.67846875000396,
      "v": 60
    },
    {
      "midi": 54,
      "hit": false,
      "t": 71785.64250000003,
      "d": 102.67846875000396,
      "v": 84
    },
    {
      "midi": 64,
      "hit": false,
      "t": 71785.64250000015,
      "d": 71.42849999999453,
      "v": 92
    },
    {
      "midi": 67,
      "hit": false,
      "t": 71785.64250000015,
      "d": 71.42849999999453,
      "v": 92
    },
    {
      "midi": 71,
      "hit": false,
      "t": 71785.64250000015,
      "d": 71.42849999999453,
      "v": 92
    },
    {
      "midi": 59,
      "hit": false,
      "t": 71785.64250000016,
      "d": 209.82121875000303,
      "v": 45
    },
    {
      "midi": 71,
      "hit": false,
      "t": 71785.64250000019,
      "d": 102.67846875000396,
      "v": 30
    },
    {
      "midi": 40,
      "hit": false,
      "t": 71785.6425000005,
      "d": 209.82121875000303,
      "v": 110
    },
    {
      "midi": 43,
      "hit": false,
      "t": 71785.6425000005,
      "d": 209.82121875000303,
      "v": 110
    },
    {
      "midi": 47,
      "hit": false,
      "t": 71892.7852499999,
      "d": 102.67846875000396,
      "v": 60
    },
    {
      "midi": 54,
      "hit": false,
      "t": 71892.78525000003,
      "d": 102.67846875000396,
      "v": 60
    },
    {
      "midi": 71,
      "hit": false,
      "t": 71892.78525000019,
      "d": 102.67846875000396,
      "v": 30
    },
    {
      "midi": 48,
      "hit": false,
      "t": 71999.9279999999,
      "d": 102.67846875000396,
      "v": 60
    },
    {
      "midi": 54,
      "hit": false,
      "t": 71999.92800000003,
      "d": 102.67846875000396,
      "v": 60
    },
    {
      "midi": 60,
      "hit": false,
      "t": 71999.92800000016,
      "d": 209.82121875000303,
      "v": 45
    },
    {
      "midi": 48,
      "hit": false,
      "t": 71999.92800000017,
      "d": 357.14250000000175,
      "v": 92
    },
    {
      "midi": 55,
      "hit": false,
      "t": 71999.92800000017,
      "d": 357.14250000000175,
      "v": 92
    },
    {
      "midi": 60,
      "hit": false,
      "t": 71999.92800000017,
      "d": 357.14250000000175,
      "v": 92
    },
    {
      "midi": 72,
      "hit": false,
      "t": 71999.92800000019,
      "d": 102.67846875000396,
      "v": 42
    },
    {
      "midi": 36,
      "hit": false,
      "t": 71999.92800000025,
      "d": 357.14250000000175,
      "v": 110
    },
    {
      "midi": 36,
      "hit": false,
      "t": 71999.9280000005,
      "d": 209.82121875000303,
      "v": 110
    },
    {
      "midi": 57,
      "hit": false,
      "t": 71999.9280000005,
      "d": 209.82121875000303,
      "v": 110
    },
    {
      "midi": 60,
      "hit": false,
      "t": 72107.0707499999,
      "d": 102.67846875000396,
      "v": 60
    },
    {
      "midi": 64,
      "hit": false,
      "t": 72107.0707499999,
      "d": 102.67846875000396,
      "v": 60
    },
    {
      "midi": 67,
      "hit": false,
      "t": 72107.0707499999,
      "d": 102.67846875000396,
      "v": 60
    },
    {
      "midi": 72,
      "hit": false,
      "t": 72107.0707499999,
      "d": 102.67846875000396,
      "v": 60
    },
    {
      "midi": 54,
      "hit": false,
      "t": 72107.07075000003,
      "d": 102.67846875000396,
      "v": 60
    },
    {
      "midi": 72,
      "hit": false,
      "t": 72107.07075000019,
      "d": 102.67846875000396,
      "v": 30
    },
    {
      "midi": 90,
      "hit": false,
      "t": 72214.2134999999,
      "d": 49.107093750004424,
      "v": 127
    },
    {
      "midi": 48,
      "hit": false,
      "t": 72214.2134999999,
      "d": 102.67846875000396,
      "v": 60
    },
    {
      "midi": 54,
      "hit": false,
      "t": 72214.21350000003,
      "d": 102.67846875000396,
      "v": 84
    },
    {
      "midi": 64,
      "hit": false,
      "t": 72214.21350000014,
      "d": 71.42849999999453,
      "v": 92
    },
    {
      "midi": 67,
      "hit": false,
      "t": 72214.21350000014,
      "d": 71.42849999999453,
      "v": 92
    },
    {
      "midi": 72,
      "hit": false,
      "t": 72214.21350000014,
      "d": 71.42849999999453,
      "v": 92
    },
    {
      "midi": 60,
      "hit": false,
      "t": 72214.21350000016,
      "d": 102.67846875000396,
      "v": 45
    },
    {
      "midi": 72,
      "hit": false,
      "t": 72214.21350000019,
      "d": 102.67846875000396,
      "v": 42
    },
    {
      "midi": 53,
      "hit": false,
      "t": 72214.2135000005,
      "d": 209.82121875000303,
      "v": 110
    },
    {
      "midi": 91,
      "hit": false,
      "t": 72267.7848749999,
      "d": 156.2498437500035,
      "v": 127
    },
    {
      "midi": 48,
      "hit": false,
      "t": 72321.3562499999,
      "d": 102.67846875000396,
      "v": 60
    },
    {
      "midi": 54,
      "hit": false,
      "t": 72321.35625000003,
      "d": 102.67846875000396,
      "v": 60
    },
    {
      "midi": 60,
      "hit": false,
      "t": 72321.35625000016,
      "d": 102.67846875000396,
      "v": 45
    },
    {
      "midi": 72,
      "hit": false,
      "t": 72321.35625000019,
      "d": 102.67846875000396,
      "v": 30
    },
    {
      "midi": 94,
      "hit": false,
      "t": 72428.4989999999,
      "d": 102.67846875000396,
      "v": 127
    },
    {
      "midi": 60,
      "hit": false,
      "t": 72428.4989999999,
      "d": 102.67846875000396,
      "v": 60
    },
    {
      "midi": 64,
      "hit": false,
      "t": 72428.4989999999,
      "d": 102.67846875000396,
      "v": 60
    },
    {
      "midi": 67,
      "hit": false,
      "t": 72428.4989999999,
      "d": 102.67846875000396,
      "v": 60
    },
    {
      "midi": 72,
      "hit": false,
      "t": 72428.4989999999,
      "d": 102.67846875000396,
      "v": 60
    },
    {
      "midi": 54,
      "hit": false,
      "t": 72428.49900000003,
      "d": 102.67846875000396,
      "v": 60
    },
    {
      "midi": 60,
      "hit": false,
      "t": 72428.49900000016,
      "d": 102.67846875000396,
      "v": 45
    },
    {
      "midi": 72,
      "hit": false,
      "t": 72428.49900000019,
      "d": 102.67846875000396,
      "v": 30
    },
    {
      "midi": 36,
      "hit": false,
      "t": 72428.49900000049,
      "d": 209.82121875000303,
      "v": 110
    },
    {
      "midi": 40,
      "hit": false,
      "t": 72428.49900000049,
      "d": 209.82121875000303,
      "v": 110
    },
    {
      "midi": 91,
      "hit": false,
      "t": 72535.6417499999,
      "d": 102.67846875000396,
      "v": 127
    },
    {
      "midi": 48,
      "hit": false,
      "t": 72535.6417499999,
      "d": 102.67846875000396,
      "v": 60
    },
    {
      "midi": 54,
      "hit": false,
      "t": 72535.64175000002,
      "d": 102.67846875000396,
      "v": 60
    },
    {
      "midi": 60,
      "hit": false,
      "t": 72535.64175000016,
      "d": 209.82121875000303,
      "v": 45
    },
    {
      "midi": 72,
      "hit": false,
      "t": 72535.64175000018,
      "d": 102.67846875000396,
      "v": 42
    },
    {
      "midi": 94,
      "hit": false,
      "t": 72642.78449999989,
      "d": 66.96421874999942,
      "v": 127
    },
    {
      "midi": 58,
      "hit": false,
      "t": 72642.78449999989,
      "d": 102.67846875000396,
      "v": 60
    },
    {
      "midi": 62,
      "hit": false,
      "t": 72642.78449999989,
      "d": 102.67846875000396,
      "v": 60
    },
    {
      "midi": 65,
      "hit": false,
      "t": 72642.78449999989,
      "d": 102.67846875000396,
      "v": 60
    },
    {
      "midi": 70,
      "hit": false,
      "t": 72642.78449999989,
      "d": 102.67846875000396,
      "v": 60
    },
    {
      "midi": 54,
      "hit": false,
      "t": 72642.78450000002,
      "d": 102.67846875000396,
      "v": 84
    },
    {
      "midi": 64,
      "hit": false,
      "t": 72642.78450000014,
      "d": 71.42849999999453,
      "v": 92
    },
    {
      "midi": 67,
      "hit": false,
      "t": 72642.78450000014,
      "d": 71.42849999999453,
      "v": 92
    },
    {
      "midi": 72,
      "hit": false,
      "t": 72642.78450000014,
      "d": 71.42849999999453,
      "v": 92
    },
    {
      "midi": 72,
      "hit": false,
      "t": 72642.78450000018,
      "d": 102.67846875000396,
      "v": 30
    },
    {
      "midi": 31,
      "hit": false,
      "t": 72642.78450000026,
      "d": 209.82121875000303,
      "v": 110
    },
    {
      "midi": 53,
      "hit": false,
      "t": 72642.78450000049,
      "d": 209.82121875000303,
      "v": 110
    },
    {
      "midi": 91,
      "hit": false,
      "t": 72714.21299999989,
      "d": 66.96421874999942,
      "v": 127
    },
    {
      "midi": 48,
      "hit": false,
      "t": 72749.92724999989,
      "d": 102.67846875000396,
      "v": 60
    },
    {
      "midi": 54,
      "hit": false,
      "t": 72749.92725000002,
      "d": 102.67846875000396,
      "v": 60
    },
    {
      "midi": 60,
      "hit": false,
      "t": 72749.92725000015,
      "d": 102.67846875000396,
      "v": 45
    },
    {
      "midi": 72,
      "hit": false,
      "t": 72749.92725000018,
      "d": 102.67846875000396,
      "v": 30
    },
    {
      "midi": 94,
      "hit": false,
      "t": 72785.64149999988,
      "d": 66.96421874999942,
      "v": 127
    },
    {
      "midi": 91,
      "hit": false,
      "t": 72857.06999999988,
      "d": 66.96421874999942,
      "v": 127
    },
    {
      "midi": 46,
      "hit": false,
      "t": 72857.06999999989,
      "d": 102.67846875000396,
      "v": 60
    },
    {
      "midi": 54,
      "hit": false,
      "t": 72857.07000000002,
      "d": 102.67846875000396,
      "v": 60
    },
    {
      "midi": 58,
      "hit": false,
      "t": 72857.07000000015,
      "d": 209.82121875000303,
      "v": 45
    },
    {
      "midi": 70,
      "hit": false,
      "t": 72857.07000000018,
      "d": 102.67846875000396,
      "v": 42
    },
    {
      "midi": 34,
      "hit": false,
      "t": 72857.07000000025,
      "d": 357.14250000000175,
      "v": 110
    },
    {
      "midi": 36,
      "hit": false,
      "t": 72857.07000000049,
      "d": 209.82121875000303,
      "v": 110
    },
    {
      "midi": 94,
      "hit": false,
      "t": 72928.49849999987,
      "d": 66.96421874999942,
      "v": 127
    },
    {
      "midi": 58,
      "hit": false,
      "t": 72964.21274999989,
      "d": 102.67846875000396,
      "v": 60
    },
    {
      "midi": 62,
      "hit": false,
      "t": 72964.21274999989,
      "d": 102.67846875000396,
      "v": 60
    },
    {
      "midi": 65,
      "hit": false,
      "t": 72964.21274999989,
      "d": 102.67846875000396,
      "v": 60
    },
    {
      "midi": 70,
      "hit": false,
      "t": 72964.21274999989,
      "d": 102.67846875000396,
      "v": 60
    },
    {
      "midi": 54,
      "hit": false,
      "t": 72964.21275000002,
      "d": 102.67846875000396,
      "v": 60
    },
    {
      "midi": 70,
      "hit": false,
      "t": 72964.21275000018,
      "d": 102.67846875000396,
      "v": 30
    },
    {
      "midi": 91,
      "hit": false,
      "t": 72999.92699999987,
      "d": 66.96421874999942,
      "v": 127
    },
    {
      "midi": 94,
      "hit": false,
      "t": 73071.35549999986,
      "d": 66.96421874999942,
      "v": 127
    },
    {
      "midi": 46,
      "hit": false,
      "t": 73071.35549999989,
      "d": 102.67846875000396,
      "v": 60
    },
    {
      "midi": 54,
      "hit": false,
      "t": 73071.35550000002,
      "d": 102.67846875000396,
      "v": 84
    },
    {
      "midi": 64,
      "hit": false,
      "t": 73071.35550000014,
      "d": 71.42849999999453,
      "v": 92
    },
    {
      "midi": 67,
      "hit": false,
      "t": 73071.35550000014,
      "d": 71.42849999999453,
      "v": 92
    },
    {
      "midi": 70,
      "hit": false,
      "t": 73071.35550000014,
      "d": 71.42849999999453,
      "v": 92
    },
    {
      "midi": 58,
      "hit": false,
      "t": 73071.35550000015,
      "d": 102.67846875000396,
      "v": 45
    },
    {
      "midi": 70,
      "hit": false,
      "t": 73071.35550000018,
      "d": 102.67846875000396,
      "v": 30
    },
    {
      "midi": 53,
      "hit": false,
      "t": 73071.35550000049,
      "d": 209.82121875000303,
      "v": 110
    },
    {
      "midi": 91,
      "hit": false,
      "t": 73142.78399999985,
      "d": 66.96421874999942,
      "v": 127
    },
    {
      "midi": 46,
      "hit": false,
      "t": 73178.49824999989,
      "d": 102.67846875000396,
      "v": 60
    },
    {
      "midi": 54,
      "hit": false,
      "t": 73178.49825000002,
      "d": 102.67846875000396,
      "v": 60
    },
    {
      "midi": 58,
      "hit": false,
      "t": 73178.49825000015,
      "d": 209.82121875000303,
      "v": 45
    },
    {
      "midi": 70,
      "hit": false,
      "t": 73178.49825000018,
      "d": 102.67846875000396,
      "v": 42
    },
    {
      "midi": 94,
      "hit": false,
      "t": 73214.21249999985,
      "d": 66.96421874999942,
      "v": 127
    },
    {
      "midi": 91,
      "hit": false,
      "t": 73285.64099999984,
      "d": 66.96421874999942,
      "v": 127
    },
    {
      "midi": 47,
      "hit": false,
      "t": 73285.64099999989,
      "d": 102.67846875000396,
      "v": 60
    },
    {
      "midi": 54,
      "hit": false,
      "t": 73285.64100000002,
      "d": 102.67846875000396,
      "v": 60
    },
    {
      "midi": 70,
      "hit": false,
      "t": 73285.64100000018,
      "d": 102.67846875000396,
      "v": 30
    },
    {
      "midi": 36,
      "hit": false,
      "t": 73285.64100000048,
      "d": 209.82121875000303,
      "v": 110
    },
    {
      "midi": 40,
      "hit": false,
      "t": 73285.64100000048,
      "d": 209.82121875000303,
      "v": 110
    },
    {
      "midi": 94,
      "hit": false,
      "t": 73357.06949999984,
      "d": 66.96421874999942,
      "v": 127
    },
    {
      "midi": 47,
      "hit": false,
      "t": 73392.78374999989,
      "d": 102.67846875000396,
      "v": 60
    },
    {
      "midi": 54,
      "hit": false,
      "t": 73392.78375000002,
      "d": 102.67846875000396,
      "v": 60
    },
    {
      "midi": 58,
      "hit": false,
      "t": 73392.78375000015,
      "d": 102.67846875000396,
      "v": 45
    },
    {
      "midi": 71,
      "hit": false,
      "t": 73392.78375000018,
      "d": 102.67846875000396,
      "v": 42
    },
    {
      "midi": 91,
      "hit": false,
      "t": 73428.49799999983,
      "d": 66.96421874999942,
      "v": 127
    },
    {
      "midi": 94,
      "hit": false,
      "t": 73499.92649999983,
      "d": 66.96421874999942,
      "v": 127
    },
    {
      "midi": 59,
      "hit": false,
      "t": 73499.92649999988,
      "d": 102.67846875000396,
      "v": 60
    },
    {
      "midi": 63,
      "hit": false,
      "t": 73499.92649999988,
      "d": 102.67846875000396,
      "v": 60
    },
    {
      "midi": 66,
      "hit": false,
      "t": 73499.92649999988,
      "d": 102.67846875000396,
      "v": 60
    },
    {
      "midi": 71,
      "hit": false,
      "t": 73499.92649999988,
      "d": 102.67846875000396,
      "v": 60
    },
    {
      "midi": 54,
      "hit": false,
      "t": 73499.92650000002,
      "d": 102.67846875000396,
      "v": 84
    },
    {
      "midi": 64,
      "hit": false,
      "t": 73499.92650000013,
      "d": 71.42849999999453,
      "v": 92
    },
    {
      "midi": 67,
      "hit": false,
      "t": 73499.92650000013,
      "d": 71.42849999999453,
      "v": 92
    },
    {
      "midi": 71,
      "hit": false,
      "t": 73499.92650000013,
      "d": 71.42849999999453,
      "v": 92
    },
    {
      "midi": 59,
      "hit": false,
      "t": 73499.92650000015,
      "d": 209.82121875000303,
      "v": 45
    },
    {
      "midi": 71,
      "hit": false,
      "t": 73499.92650000018,
      "d": 102.67846875000396,
      "v": 30
    },
    {
      "midi": 31,
      "hit": false,
      "t": 73499.92650000026,
      "d": 209.82121875000303,
      "v": 110
    },
    {
      "midi": 53,
      "hit": false,
      "t": 73499.92650000048,
      "d": 209.82121875000303,
      "v": 110
    },
    {
      "midi": 91,
      "hit": false,
      "t": 73571.35499999982,
      "d": 66.96421874999942,
      "v": 127
    },
    {
      "midi": 47,
      "hit": false,
      "t": 73607.06924999988,
      "d": 102.67846875000396,
      "v": 60
    },
    {
      "midi": 54,
      "hit": false,
      "t": 73607.06925000002,
      "d": 102.67846875000396,
      "v": 60
    },
    {
      "midi": 71,
      "hit": false,
      "t": 73607.06925000018,
      "d": 102.67846875000396,
      "v": 30
    },
    {
      "midi": 94,
      "hit": false,
      "t": 73642.78349999982,
      "d": 66.96421874999942,
      "v": 127
    },
    {
      "midi": 91,
      "hit": false,
      "t": 73714.21199999981,
      "d": 66.96421874999942,
      "v": 127
    },
    {
      "midi": 48,
      "hit": false,
      "t": 73714.21199999988,
      "d": 102.67846875000396,
      "v": 60
    },
    {
      "midi": 54,
      "hit": false,
      "t": 73714.21200000001,
      "d": 102.67846875000396,
      "v": 60
    },
    {
      "midi": 60,
      "hit": false,
      "t": 73714.21200000015,
      "d": 209.82121875000303,
      "v": 45
    },
    {
      "midi": 72,
      "hit": false,
      "t": 73714.21200000017,
      "d": 102.67846875000396,
      "v": 42
    },
    {
      "midi": 48,
      "hit": false,
      "t": 73714.21200000017,
      "d": 357.14250000000175,
      "v": 92
    },
    {
      "midi": 55,
      "hit": false,
      "t": 73714.21200000017,
      "d": 357.14250000000175,
      "v": 92
    },
    {
      "midi": 60,
      "hit": false,
      "t": 73714.21200000017,
      "d": 357.14250000000175,
      "v": 92
    },
    {
      "midi": 36,
      "hit": false,
      "t": 73714.21200000026,
      "d": 357.14250000000175,
      "v": 110
    },
    {
      "midi": 36,
      "hit": false,
      "t": 73714.21200000048,
      "d": 209.82121875000303,
      "v": 110
    },
    {
      "midi": 94,
      "hit": false,
      "t": 73785.6404999998,
      "d": 66.96421874999942,
      "v": 127
    },
    {
      "midi": 60,
      "hit": false,
      "t": 73821.35474999988,
      "d": 102.67846875000396,
      "v": 60
    },
    {
      "midi": 64,
      "hit": false,
      "t": 73821.35474999988,
      "d": 102.67846875000396,
      "v": 60
    },
    {
      "midi": 67,
      "hit": false,
      "t": 73821.35474999988,
      "d": 102.67846875000396,
      "v": 60
    },
    {
      "midi": 72,
      "hit": false,
      "t": 73821.35474999988,
      "d": 102.67846875000396,
      "v": 60
    },
    {
      "midi": 54,
      "hit": false,
      "t": 73821.35475000001,
      "d": 102.67846875000396,
      "v": 60
    },
    {
      "midi": 72,
      "hit": false,
      "t": 73821.35475000017,
      "d": 102.67846875000396,
      "v": 30
    },
    {
      "midi": 91,
      "hit": false,
      "t": 73857.0689999998,
      "d": 66.96421874999942,
      "v": 127
    },
    {
      "midi": 94,
      "hit": false,
      "t": 73928.4974999998,
      "d": 66.96421874999942,
      "v": 127
    },
    {
      "midi": 48,
      "hit": false,
      "t": 73928.49749999988,
      "d": 102.67846875000396,
      "v": 60
    },
    {
      "midi": 54,
      "hit": false,
      "t": 73928.49750000001,
      "d": 102.67846875000396,
      "v": 84
    },
    {
      "midi": 64,
      "hit": false,
      "t": 73928.49750000013,
      "d": 71.42849999999453,
      "v": 92
    },
    {
      "midi": 67,
      "hit": false,
      "t": 73928.49750000013,
      "d": 71.42849999999453,
      "v": 92
    },
    {
      "midi": 72,
      "hit": false,
      "t": 73928.49750000013,
      "d": 71.42849999999453,
      "v": 92
    },
    {
      "midi": 60,
      "hit": false,
      "t": 73928.49750000014,
      "d": 102.67846875000396,
      "v": 45
    },
    {
      "midi": 72,
      "hit": false,
      "t": 73928.49750000017,
      "d": 102.67846875000396,
      "v": 42
    },
    {
      "midi": 53,
      "hit": false,
      "t": 73928.49750000048,
      "d": 209.82121875000303,
      "v": 110
    },
    {
      "midi": 91,
      "hit": false,
      "t": 73999.92599999979,
      "d": 66.96421874999942,
      "v": 127
    },
    {
      "midi": 48,
      "hit": false,
      "t": 74035.64024999988,
      "d": 102.67846875000396,
      "v": 60
    },
    {
      "midi": 54,
      "hit": false,
      "t": 74035.64025000001,
      "d": 102.67846875000396,
      "v": 60
    },
    {
      "midi": 60,
      "hit": false,
      "t": 74035.64025000014,
      "d": 102.67846875000396,
      "v": 45
    },
    {
      "midi": 72,
      "hit": false,
      "t": 74035.64025000017,
      "d": 102.67846875000396,
      "v": 30
    },
    {
      "midi": 94,
      "hit": false,
      "t": 74071.35449999978,
      "d": 66.96421874999942,
      "v": 127
    },
    {
      "midi": 91,
      "hit": false,
      "t": 74142.78299999978,
      "d": 66.96421874999942,
      "v": 127
    },
    {
      "midi": 60,
      "hit": false,
      "t": 74142.78299999988,
      "d": 102.67846875000396,
      "v": 60
    },
    {
      "midi": 64,
      "hit": false,
      "t": 74142.78299999988,
      "d": 102.67846875000396,
      "v": 60
    },
    {
      "midi": 67,
      "hit": false,
      "t": 74142.78299999988,
      "d": 102.67846875000396,
      "v": 60
    },
    {
      "midi": 72,
      "hit": false,
      "t": 74142.78299999988,
      "d": 102.67846875000396,
      "v": 60
    },
    {
      "midi": 54,
      "hit": false,
      "t": 74142.78300000001,
      "d": 102.67846875000396,
      "v": 60
    },
    {
      "midi": 60,
      "hit": false,
      "t": 74142.78300000014,
      "d": 102.67846875000396,
      "v": 45
    },
    {
      "midi": 72,
      "hit": false,
      "t": 74142.78300000017,
      "d": 102.67846875000396,
      "v": 30
    },
    {
      "midi": 36,
      "hit": false,
      "t": 74142.78300000048,
      "d": 209.82121875000303,
      "v": 110
    },
    {
      "midi": 40,
      "hit": false,
      "t": 74142.78300000048,
      "d": 209.82121875000303,
      "v": 110
    },
    {
      "midi": 94,
      "hit": false,
      "t": 74214.21149999977,
      "d": 66.96421874999942,
      "v": 127
    },
    {
      "midi": 43,
      "hit": false,
      "t": 74249.92574999988,
      "d": 102.67846875000396,
      "v": 60
    },
    {
      "midi": 54,
      "hit": false,
      "t": 74249.92575000001,
      "d": 102.67846875000396,
      "v": 60
    },
    {
      "midi": 60,
      "hit": false,
      "t": 74249.92575000014,
      "d": 209.82121875000303,
      "v": 45
    },
    {
      "midi": 72,
      "hit": false,
      "t": 74249.92575000017,
      "d": 102.67846875000396,
      "v": 42
    },
    {
      "midi": 91,
      "hit": false,
      "t": 74285.63999999977,
      "d": 66.96421874999942,
      "v": 127
    },
    {
      "midi": 94,
      "hit": false,
      "t": 74357.06849999976,
      "d": 66.96421874999942,
      "v": 127
    },
    {
      "midi": 43,
      "hit": false,
      "t": 74357.06849999988,
      "d": 102.67846875000396,
      "v": 60
    },
    {
      "midi": 54,
      "hit": false,
      "t": 74357.06850000001,
      "d": 102.67846875000396,
      "v": 84
    },
    {
      "midi": 64,
      "hit": false,
      "t": 74357.06850000012,
      "d": 71.42849999999453,
      "v": 92
    },
    {
      "midi": 67,
      "hit": false,
      "t": 74357.06850000012,
      "d": 71.42849999999453,
      "v": 92
    },
    {
      "midi": 72,
      "hit": false,
      "t": 74357.06850000012,
      "d": 71.42849999999453,
      "v": 92
    },
    {
      "midi": 72,
      "hit": false,
      "t": 74357.06850000017,
      "d": 102.67846875000396,
      "v": 30
    },
    {
      "midi": 31,
      "hit": false,
      "t": 74357.06850000027,
      "d": 209.82121875000303,
      "v": 110
    },
    {
      "midi": 53,
      "hit": false,
      "t": 74357.06850000047,
      "d": 209.82121875000303,
      "v": 110
    },
    {
      "midi": 91,
      "hit": false,
      "t": 74428.49699999976,
      "d": 66.96421874999942,
      "v": 127
    },
    {
      "midi": 58,
      "hit": false,
      "t": 74464.21124999988,
      "d": 102.67846875000396,
      "v": 60
    },
    {
      "midi": 62,
      "hit": false,
      "t": 74464.21124999988,
      "d": 102.67846875000396,
      "v": 60
    },
    {
      "midi": 65,
      "hit": false,
      "t": 74464.21124999988,
      "d": 102.67846875000396,
      "v": 60
    },
    {
      "midi": 70,
      "hit": false,
      "t": 74464.21124999988,
      "d": 102.67846875000396,
      "v": 60
    },
    {
      "midi": 54,
      "hit": false,
      "t": 74464.21125000001,
      "d": 102.67846875000396,
      "v": 60
    },
    {
      "midi": 60,
      "hit": false,
      "t": 74464.21125000014,
      "d": 102.67846875000396,
      "v": 45
    },
    {
      "midi": 72,
      "hit": false,
      "t": 74464.21125000017,
      "d": 102.67846875000396,
      "v": 30
    },
    {
      "midi": 94,
      "hit": false,
      "t": 74499.92549999975,
      "d": 66.96421874999942,
      "v": 127
    },
    {
      "midi": 91,
      "hit": false,
      "t": 74571.35399999974,
      "d": 66.96421874999942,
      "v": 127
    },
    {
      "midi": 46,
      "hit": false,
      "t": 74571.35399999988,
      "d": 102.67846875000396,
      "v": 60
    },
    {
      "midi": 54,
      "hit": false,
      "t": 74571.354,
      "d": 102.67846875000396,
      "v": 60
    },
    {
      "midi": 58,
      "hit": false,
      "t": 74571.35400000014,
      "d": 209.82121875000303,
      "v": 45
    },
    {
      "midi": 70,
      "hit": false,
      "t": 74571.35400000017,
      "d": 102.67846875000396,
      "v": 42
    },
    {
      "midi": 34,
      "hit": false,
      "t": 74571.35400000027,
      "d": 357.14250000000175,
      "v": 110
    },
    {
      "midi": 36,
      "hit": false,
      "t": 74571.35400000047,
      "d": 209.82121875000303,
      "v": 110
    },
    {
      "midi": 94,
      "hit": false,
      "t": 74642.78249999974,
      "d": 66.96421874999942,
      "v": 127
    },
    {
      "midi": 58,
      "hit": false,
      "t": 74678.49674999987,
      "d": 102.67846875000396,
      "v": 60
    },
    {
      "midi": 62,
      "hit": false,
      "t": 74678.49674999987,
      "d": 102.67846875000396,
      "v": 60
    },
    {
      "midi": 65,
      "hit": false,
      "t": 74678.49674999987,
      "d": 102.67846875000396,
      "v": 60
    },
    {
      "midi": 70,
      "hit": false,
      "t": 74678.49674999987,
      "d": 102.67846875000396,
      "v": 60
    },
    {
      "midi": 54,
      "hit": false,
      "t": 74678.49675,
      "d": 102.67846875000396,
      "v": 60
    },
    {
      "midi": 70,
      "hit": false,
      "t": 74678.49675000017,
      "d": 102.67846875000396,
      "v": 30
    },
    {
      "midi": 91,
      "hit": false,
      "t": 74714.21099999973,
      "d": 66.96421874999942,
      "v": 127
    },
    {
      "midi": 94,
      "hit": false,
      "t": 74785.63949999973,
      "d": 66.96421874999942,
      "v": 127
    },
    {
      "midi": 46,
      "hit": false,
      "t": 74785.63949999987,
      "d": 102.67846875000396,
      "v": 60
    },
    {
      "midi": 36,
      "hit": false,
      "t": 74785.6395,
      "d": 102.67846875000396,
      "v": 84
    },
    {
      "midi": 54,
      "hit": false,
      "t": 74785.6395,
      "d": 102.67846875000396,
      "v": 84
    },
    {
      "midi": 64,
      "hit": false,
      "t": 74785.63950000012,
      "d": 71.42849999999453,
      "v": 92
    },
    {
      "midi": 67,
      "hit": false,
      "t": 74785.63950000012,
      "d": 71.42849999999453,
      "v": 92
    },
    {
      "midi": 70,
      "hit": false,
      "t": 74785.63950000012,
      "d": 71.42849999999453,
      "v": 92
    },
    {
      "midi": 58,
      "hit": false,
      "t": 74785.63950000014,
      "d": 102.67846875000396,
      "v": 45
    },
    {
      "midi": 70,
      "hit": false,
      "t": 74785.63950000016,
      "d": 102.67846875000396,
      "v": 30
    },
    {
      "midi": 53,
      "hit": false,
      "t": 74785.63950000047,
      "d": 209.82121875000303,
      "v": 110
    },
    {
      "midi": 91,
      "hit": false,
      "t": 74857.06799999972,
      "d": 66.96421874999942,
      "v": 127
    },
    {
      "midi": 46,
      "hit": false,
      "t": 74892.78224999987,
      "d": 102.67846875000396,
      "v": 60
    },
    {
      "midi": 54,
      "hit": false,
      "t": 74892.78225,
      "d": 102.67846875000396,
      "v": 60
    },
    {
      "midi": 58,
      "hit": false,
      "t": 74892.78225000013,
      "d": 102.67846875000396,
      "v": 45
    },
    {
      "midi": 70,
      "hit": false,
      "t": 74892.78225000016,
      "d": 102.67846875000396,
      "v": 42
    },
    {
      "midi": 94,
      "hit": false,
      "t": 74928.49649999972,
      "d": 66.96421874999942,
      "v": 127
    },
    {
      "midi": 91,
      "hit": false,
      "t": 74999.92499999971,
      "d": 71.42849999999453,
      "v": 127
    },
    {
      "midi": 47,
      "hit": false,
      "t": 74999.92499999987,
      "d": 102.67846875000396,
      "v": 60
    },
    {
      "midi": 54,
      "hit": false,
      "t": 74999.925,
      "d": 102.67846875000396,
      "v": 60
    },
    {
      "midi": 58,
      "hit": false,
      "t": 74999.92500000013,
      "d": 102.67846875000396,
      "v": 45
    },
    {
      "midi": 70,
      "hit": false,
      "t": 74999.92500000016,
      "d": 102.67846875000396,
      "v": 30
    },
    {
      "midi": 31,
      "hit": false,
      "t": 74999.92500000026,
      "d": 357.14250000000175,
      "v": 110
    },
    {
      "midi": 36,
      "hit": false,
      "t": 74999.92500000047,
      "d": 209.82121875000303,
      "v": 110
    },
    {
      "midi": 40,
      "hit": false,
      "t": 74999.92500000047,
      "d": 209.82121875000303,
      "v": 110
    },
    {
      "midi": 47,
      "hit": false,
      "t": 75107.06774999987,
      "d": 102.67846875000396,
      "v": 60
    },
    {
      "midi": 54,
      "hit": false,
      "t": 75107.06775,
      "d": 102.67846875000396,
      "v": 60
    },
    {
      "midi": 58,
      "hit": false,
      "t": 75107.06775000013,
      "d": 209.82121875000303,
      "v": 45
    },
    {
      "midi": 71,
      "hit": false,
      "t": 75107.06775000016,
      "d": 102.67846875000396,
      "v": 42
    },
    {
      "midi": 96,
      "hit": false,
      "t": 75214.21049999971,
      "d": 424.10671875000116,
      "v": 127
    },
    {
      "midi": 59,
      "hit": false,
      "t": 75214.21049999987,
      "d": 102.67846875000396,
      "v": 60
    },
    {
      "midi": 63,
      "hit": false,
      "t": 75214.21049999987,
      "d": 102.67846875000396,
      "v": 60
    },
    {
      "midi": 66,
      "hit": false,
      "t": 75214.21049999987,
      "d": 102.67846875000396,
      "v": 60
    },
    {
      "midi": 71,
      "hit": false,
      "t": 75214.21049999987,
      "d": 102.67846875000396,
      "v": 60
    },
    {
      "midi": 54,
      "hit": false,
      "t": 75214.2105,
      "d": 102.67846875000396,
      "v": 84
    },
    {
      "midi": 64,
      "hit": false,
      "t": 75214.21050000012,
      "d": 71.42849999999453,
      "v": 92
    },
    {
      "midi": 67,
      "hit": false,
      "t": 75214.21050000012,
      "d": 71.42849999999453,
      "v": 92
    },
    {
      "midi": 71,
      "hit": false,
      "t": 75214.21050000012,
      "d": 71.42849999999453,
      "v": 92
    },
    {
      "midi": 71,
      "hit": false,
      "t": 75214.21050000016,
      "d": 102.67846875000396,
      "v": 30
    },
    {
      "midi": 53,
      "hit": false,
      "t": 75214.21050000047,
      "d": 209.82121875000303,
      "v": 110
    },
    {
      "midi": 47,
      "hit": false,
      "t": 75321.35324999987,
      "d": 102.67846875000396,
      "v": 60
    },
    {
      "midi": 54,
      "hit": false,
      "t": 75321.35325,
      "d": 102.67846875000396,
      "v": 60
    },
    {
      "midi": 59,
      "hit": false,
      "t": 75321.35325000013,
      "d": 102.67846875000396,
      "v": 45
    },
    {
      "midi": 71,
      "hit": false,
      "t": 75321.35325000016,
      "d": 102.67846875000396,
      "v": 30
    },
    {
      "midi": 48,
      "hit": false,
      "t": 75428.49599999987,
      "d": 102.67846875000396,
      "v": 60
    },
    {
      "midi": 54,
      "hit": false,
      "t": 75428.496,
      "d": 102.67846875000396,
      "v": 60
    },
    {
      "midi": 60,
      "hit": false,
      "t": 75428.49600000013,
      "d": 209.82121875000303,
      "v": 45
    },
    {
      "midi": 72,
      "hit": false,
      "t": 75428.49600000016,
      "d": 102.67846875000396,
      "v": 42
    },
    {
      "midi": 48,
      "hit": false,
      "t": 75428.49600000017,
      "d": 357.14250000000175,
      "v": 92
    },
    {
      "midi": 55,
      "hit": false,
      "t": 75428.49600000017,
      "d": 357.14250000000175,
      "v": 92
    },
    {
      "midi": 60,
      "hit": false,
      "t": 75428.49600000017,
      "d": 357.14250000000175,
      "v": 92
    },
    {
      "midi": 36,
      "hit": false,
      "t": 75428.49600000026,
      "d": 357.14250000000175,
      "v": 110
    },
    {
      "midi": 36,
      "hit": false,
      "t": 75428.49600000046,
      "d": 209.82121875000303,
      "v": 110
    },
    {
      "midi": 60,
      "hit": false,
      "t": 75535.63874999987,
      "d": 102.67846875000396,
      "v": 60
    },
    {
      "midi": 64,
      "hit": false,
      "t": 75535.63874999987,
      "d": 102.67846875000396,
      "v": 60
    },
    {
      "midi": 67,
      "hit": false,
      "t": 75535.63874999987,
      "d": 102.67846875000396,
      "v": 60
    },
    {
      "midi": 72,
      "hit": false,
      "t": 75535.63874999987,
      "d": 102.67846875000396,
      "v": 60
    },
    {
      "midi": 54,
      "hit": false,
      "t": 75535.63875,
      "d": 102.67846875000396,
      "v": 60
    },
    {
      "midi": 72,
      "hit": false,
      "t": 75535.63875000016,
      "d": 102.67846875000396,
      "v": 30
    },
    {
      "midi": 94,
      "hit": false,
      "t": 75642.7814999997,
      "d": 102.67846875000396,
      "v": 127
    },
    {
      "midi": 48,
      "hit": false,
      "t": 75642.78149999987,
      "d": 102.67846875000396,
      "v": 60
    },
    {
      "midi": 54,
      "hit": false,
      "t": 75642.7815,
      "d": 102.67846875000396,
      "v": 84
    },
    {
      "midi": 64,
      "hit": false,
      "t": 75642.78150000011,
      "d": 71.42849999999453,
      "v": 92
    },
    {
      "midi": 67,
      "hit": false,
      "t": 75642.78150000011,
      "d": 71.42849999999453,
      "v": 92
    },
    {
      "midi": 72,
      "hit": false,
      "t": 75642.78150000011,
      "d": 71.42849999999453,
      "v": 92
    },
    {
      "midi": 60,
      "hit": false,
      "t": 75642.78150000013,
      "d": 102.67846875000396,
      "v": 45
    },
    {
      "midi": 72,
      "hit": false,
      "t": 75642.78150000016,
      "d": 102.67846875000396,
      "v": 42
    },
    {
      "midi": 53,
      "hit": false,
      "t": 75642.78150000046,
      "d": 209.82121875000303,
      "v": 110
    },
    {
      "midi": 91,
      "hit": false,
      "t": 75749.9242499997,
      "d": 102.67846875000396,
      "v": 127
    },
    {
      "midi": 48,
      "hit": false,
      "t": 75749.92424999987,
      "d": 102.67846875000396,
      "v": 60
    },
    {
      "midi": 54,
      "hit": false,
      "t": 75749.92425,
      "d": 102.67846875000396,
      "v": 60
    },
    {
      "midi": 60,
      "hit": false,
      "t": 75749.92425000013,
      "d": 102.67846875000396,
      "v": 45
    },
    {
      "midi": 72,
      "hit": false,
      "t": 75749.92425000016,
      "d": 102.67846875000396,
      "v": 30
    },
    {
      "midi": 94,
      "hit": false,
      "t": 75857.0669999997,
      "d": 71.42849999999453,
      "v": 127
    },
    {
      "midi": 60,
      "hit": false,
      "t": 75857.06699999986,
      "d": 102.67846875000396,
      "v": 60
    },
    {
      "midi": 64,
      "hit": false,
      "t": 75857.06699999986,
      "d": 102.67846875000396,
      "v": 60
    },
    {
      "midi": 67,
      "hit": false,
      "t": 75857.06699999986,
      "d": 102.67846875000396,
      "v": 60
    },
    {
      "midi": 72,
      "hit": false,
      "t": 75857.06699999986,
      "d": 102.67846875000396,
      "v": 60
    },
    {
      "midi": 54,
      "hit": false,
      "t": 75857.067,
      "d": 102.67846875000396,
      "v": 60
    },
    {
      "midi": 60,
      "hit": false,
      "t": 75857.06700000013,
      "d": 102.67846875000396,
      "v": 45
    },
    {
      "midi": 72,
      "hit": false,
      "t": 75857.06700000016,
      "d": 102.67846875000396,
      "v": 30
    },
    {
      "midi": 36,
      "hit": false,
      "t": 75857.06700000046,
      "d": 209.82121875000303,
      "v": 110
    },
    {
      "midi": 40,
      "hit": false,
      "t": 75857.06700000046,
      "d": 209.82121875000303,
      "v": 110
    },
    {
      "midi": 94,
      "hit": false,
      "t": 75964.2097499997,
      "d": 102.67846875000396,
      "v": 127
    },
    {
      "midi": 48,
      "hit": false,
      "t": 75964.20974999986,
      "d": 102.67846875000396,
      "v": 60
    },
    {
      "midi": 54,
      "hit": false,
      "t": 75964.20975,
      "d": 102.67846875000396,
      "v": 60
    },
    {
      "midi": 60,
      "hit": false,
      "t": 75964.20975000013,
      "d": 209.82121875000303,
      "v": 45
    },
    {
      "midi": 72,
      "hit": false,
      "t": 75964.20975000015,
      "d": 102.67846875000396,
      "v": 42
    },
    {
      "midi": 91,
      "hit": false,
      "t": 76071.3524999997,
      "d": 102.67846875000396,
      "v": 127
    },
    {
      "midi": 48,
      "hit": false,
      "t": 76071.35249999986,
      "d": 102.67846875000396,
      "v": 60
    },
    {
      "midi": 54,
      "hit": false,
      "t": 76071.3525,
      "d": 102.67846875000396,
      "v": 84
    },
    {
      "midi": 64,
      "hit": false,
      "t": 76071.35250000011,
      "d": 71.42849999999453,
      "v": 92
    },
    {
      "midi": 67,
      "hit": false,
      "t": 76071.35250000011,
      "d": 71.42849999999453,
      "v": 92
    },
    {
      "midi": 72,
      "hit": false,
      "t": 76071.35250000011,
      "d": 71.42849999999453,
      "v": 92
    },
    {
      "midi": 72,
      "hit": false,
      "t": 76071.35250000015,
      "d": 102.67846875000396,
      "v": 30
    },
    {
      "midi": 31,
      "hit": false,
      "t": 76071.35250000027,
      "d": 209.82121875000303,
      "v": 110
    },
    {
      "midi": 53,
      "hit": false,
      "t": 76071.35250000046,
      "d": 209.82121875000303,
      "v": 110
    },
    {
      "midi": 89,
      "hit": false,
      "t": 76178.4952499997,
      "d": 102.67846875000396,
      "v": 127
    },
    {
      "midi": 58,
      "hit": false,
      "t": 76178.49524999986,
      "d": 102.67846875000396,
      "v": 60
    },
    {
      "midi": 62,
      "hit": false,
      "t": 76178.49524999986,
      "d": 102.67846875000396,
      "v": 60
    },
    {
      "midi": 65,
      "hit": false,
      "t": 76178.49524999986,
      "d": 102.67846875000396,
      "v": 60
    },
    {
      "midi": 70,
      "hit": false,
      "t": 76178.49524999986,
      "d": 102.67846875000396,
      "v": 60
    },
    {
      "midi": 54,
      "hit": false,
      "t": 76178.49524999999,
      "d": 102.67846875000396,
      "v": 60
    },
    {
      "midi": 60,
      "hit": false,
      "t": 76178.49525000012,
      "d": 102.67846875000396,
      "v": 45
    },
    {
      "midi": 72,
      "hit": false,
      "t": 76178.49525000015,
      "d": 102.67846875000396,
      "v": 30
    },
    {
      "midi": 91,
      "hit": false,
      "t": 76285.6379999997,
      "d": 71.42849999999453,
      "v": 127
    },
    {
      "midi": 46,
      "hit": false,
      "t": 76285.63799999986,
      "d": 102.67846875000396,
      "v": 60
    },
    {
      "midi": 54,
      "hit": false,
      "t": 76285.63799999999,
      "d": 102.67846875000396,
      "v": 60
    },
    {
      "midi": 58,
      "hit": false,
      "t": 76285.63800000012,
      "d": 102.67846875000396,
      "v": 45
    },
    {
      "midi": 70,
      "hit": false,
      "t": 76285.63800000015,
      "d": 102.67846875000396,
      "v": 42
    },
    {
      "midi": 34,
      "hit": false,
      "t": 76285.63800000027,
      "d": 357.14250000000175,
      "v": 110
    },
    {
      "midi": 36,
      "hit": false,
      "t": 76285.63800000046,
      "d": 209.82121875000303,
      "v": 110
    },
    {
      "midi": 91,
      "hit": false,
      "t": 76392.7807499997,
      "d": 102.67846875000396,
      "v": 127
    },
    {
      "midi": 46,
      "hit": false,
      "t": 76392.78074999986,
      "d": 102.67846875000396,
      "v": 60
    },
    {
      "midi": 54,
      "hit": false,
      "t": 76392.78074999999,
      "d": 102.67846875000396,
      "v": 60
    },
    {
      "midi": 58,
      "hit": false,
      "t": 76392.78075000012,
      "d": 102.67846875000396,
      "v": 45
    },
    {
      "midi": 70,
      "hit": false,
      "t": 76392.78075000015,
      "d": 102.67846875000396,
      "v": 30
    },
    {
      "midi": 89,
      "hit": false,
      "t": 76499.9234999997,
      "d": 102.67846875000396,
      "v": 127
    },
    {
      "midi": 46,
      "hit": false,
      "t": 76499.92349999986,
      "d": 102.67846875000396,
      "v": 60
    },
    {
      "midi": 54,
      "hit": false,
      "t": 76499.92349999999,
      "d": 102.67846875000396,
      "v": 84
    },
    {
      "midi": 64,
      "hit": false,
      "t": 76499.9235000001,
      "d": 71.42849999999453,
      "v": 92
    },
    {
      "midi": 67,
      "hit": false,
      "t": 76499.9235000001,
      "d": 71.42849999999453,
      "v": 92
    },
    {
      "midi": 70,
      "hit": false,
      "t": 76499.9235000001,
      "d": 71.42849999999453,
      "v": 92
    },
    {
      "midi": 58,
      "hit": false,
      "t": 76499.92350000012,
      "d": 209.82121875000303,
      "v": 45
    },
    {
      "midi": 70,
      "hit": false,
      "t": 76499.92350000015,
      "d": 102.67846875000396,
      "v": 30
    },
    {
      "midi": 53,
      "hit": false,
      "t": 76499.92350000046,
      "d": 209.82121875000303,
      "v": 110
    },
    {
      "midi": 87,
      "hit": false,
      "t": 76607.0662499997,
      "d": 102.67846875000396,
      "v": 127
    },
    {
      "midi": 46,
      "hit": false,
      "t": 76607.06624999986,
      "d": 102.67846875000396,
      "v": 60
    },
    {
      "midi": 54,
      "hit": false,
      "t": 76607.06624999999,
      "d": 102.67846875000396,
      "v": 60
    },
    {
      "midi": 70,
      "hit": false,
      "t": 76607.06625000015,
      "d": 102.67846875000396,
      "v": 42
    },
    {
      "midi": 89,
      "hit": false,
      "t": 76714.2089999997,
      "d": 71.42849999999453,
      "v": 127
    },
    {
      "midi": 47,
      "hit": false,
      "t": 76714.20899999986,
      "d": 102.67846875000396,
      "v": 60
    },
    {
      "midi": 54,
      "hit": false,
      "t": 76714.20899999999,
      "d": 102.67846875000396,
      "v": 60
    },
    {
      "midi": 59,
      "hit": false,
      "t": 76714.20900000012,
      "d": 102.67846875000396,
      "v": 45
    },
    {
      "midi": 70,
      "hit": false,
      "t": 76714.20900000015,
      "d": 102.67846875000396,
      "v": 30
    },
    {
      "midi": 36,
      "hit": false,
      "t": 76714.20900000045,
      "d": 209.82121875000303,
      "v": 110
    },
    {
      "midi": 40,
      "hit": false,
      "t": 76714.20900000045,
      "d": 209.82121875000303,
      "v": 110
    },
    {
      "midi": 89,
      "hit": false,
      "t": 76821.3517499997,
      "d": 102.67846875000396,
      "v": 127
    },
    {
      "midi": 47,
      "hit": false,
      "t": 76821.35174999986,
      "d": 102.67846875000396,
      "v": 60
    },
    {
      "midi": 54,
      "hit": false,
      "t": 76821.35174999999,
      "d": 102.67846875000396,
      "v": 60
    },
    {
      "midi": 59,
      "hit": false,
      "t": 76821.35175000012,
      "d": 209.82121875000303,
      "v": 45
    },
    {
      "midi": 71,
      "hit": false,
      "t": 76821.35175000015,
      "d": 102.67846875000396,
      "v": 42
    },
    {
      "midi": 87,
      "hit": false,
      "t": 76928.4944999997,
      "d": 102.67846875000396,
      "v": 127
    },
    {
      "midi": 59,
      "hit": false,
      "t": 76928.49449999986,
      "d": 102.67846875000396,
      "v": 60
    },
    {
      "midi": 63,
      "hit": false,
      "t": 76928.49449999986,
      "d": 102.67846875000396,
      "v": 60
    },
    {
      "midi": 66,
      "hit": false,
      "t": 76928.49449999986,
      "d": 102.67846875000396,
      "v": 60
    },
    {
      "midi": 71,
      "hit": false,
      "t": 76928.49449999986,
      "d": 102.67846875000396,
      "v": 60
    },
    {
      "midi": 54,
      "hit": false,
      "t": 76928.49449999999,
      "d": 102.67846875000396,
      "v": 84
    },
    {
      "midi": 64,
      "hit": false,
      "t": 76928.4945000001,
      "d": 71.42849999999453,
      "v": 92
    },
    {
      "midi": 67,
      "hit": false,
      "t": 76928.4945000001,
      "d": 71.42849999999453,
      "v": 92
    },
    {
      "midi": 71,
      "hit": false,
      "t": 76928.4945000001,
      "d": 71.42849999999453,
      "v": 92
    },
    {
      "midi": 71,
      "hit": false,
      "t": 76928.49450000015,
      "d": 102.67846875000396,
      "v": 30
    },
    {
      "midi": 31,
      "hit": false,
      "t": 76928.49450000028,
      "d": 209.82121875000303,
      "v": 110
    },
    {
      "midi": 53,
      "hit": false,
      "t": 76928.49450000045,
      "d": 209.82121875000303,
      "v": 110
    },
    {
      "midi": 84,
      "hit": false,
      "t": 77035.6372499997,
      "d": 102.67846875000396,
      "v": 127
    },
    {
      "midi": 47,
      "hit": false,
      "t": 77035.63724999985,
      "d": 102.67846875000396,
      "v": 60
    },
    {
      "midi": 54,
      "hit": false,
      "t": 77035.63724999999,
      "d": 102.67846875000396,
      "v": 60
    },
    {
      "midi": 59,
      "hit": false,
      "t": 77035.63725000012,
      "d": 102.67846875000396,
      "v": 45
    },
    {
      "midi": 71,
      "hit": false,
      "t": 77035.63725000015,
      "d": 102.67846875000396,
      "v": 30
    },
    {
      "midi": 87,
      "hit": false,
      "t": 77142.7799999997,
      "d": 71.42849999999453,
      "v": 127
    },
    {
      "midi": 48,
      "hit": false,
      "t": 77142.77999999985,
      "d": 102.67846875000396,
      "v": 60
    },
    {
      "midi": 54,
      "hit": false,
      "t": 77142.77999999998,
      "d": 102.67846875000396,
      "v": 60
    },
    {
      "midi": 60,
      "hit": false,
      "t": 77142.78000000012,
      "d": 209.82121875000303,
      "v": 45
    },
    {
      "midi": 72,
      "hit": false,
      "t": 77142.78000000014,
      "d": 102.67846875000396,
      "v": 42
    },
    {
      "midi": 48,
      "hit": false,
      "t": 77142.78000000017,
      "d": 357.14250000000175,
      "v": 92
    },
    {
      "midi": 55,
      "hit": false,
      "t": 77142.78000000017,
      "d": 357.14250000000175,
      "v": 92
    },
    {
      "midi": 60,
      "hit": false,
      "t": 77142.78000000017,
      "d": 357.14250000000175,
      "v": 92
    },
    {
      "midi": 36,
      "hit": false,
      "t": 77142.78000000028,
      "d": 357.14250000000175,
      "v": 110
    },
    {
      "midi": 36,
      "hit": false,
      "t": 77142.78000000045,
      "d": 209.82121875000303,
      "v": 110
    },
    {
      "midi": 87,
      "hit": false,
      "t": 77249.92274999969,
      "d": 102.67846875000396,
      "v": 127
    },
    {
      "midi": 60,
      "hit": false,
      "t": 77249.92274999985,
      "d": 102.67846875000396,
      "v": 60
    },
    {
      "midi": 64,
      "hit": false,
      "t": 77249.92274999985,
      "d": 102.67846875000396,
      "v": 60
    },
    {
      "midi": 67,
      "hit": false,
      "t": 77249.92274999985,
      "d": 102.67846875000396,
      "v": 60
    },
    {
      "midi": 72,
      "hit": false,
      "t": 77249.92274999985,
      "d": 102.67846875000396,
      "v": 60
    },
    {
      "midi": 54,
      "hit": false,
      "t": 77249.92274999998,
      "d": 102.67846875000396,
      "v": 60
    },
    {
      "midi": 72,
      "hit": false,
      "t": 77249.92275000014,
      "d": 102.67846875000396,
      "v": 30
    },
    {
      "midi": 84,
      "hit": false,
      "t": 77357.06549999969,
      "d": 102.67846875000396,
      "v": 127
    },
    {
      "midi": 48,
      "hit": false,
      "t": 77357.06549999985,
      "d": 102.67846875000396,
      "v": 60
    },
    {
      "midi": 54,
      "hit": false,
      "t": 77357.06549999998,
      "d": 102.67846875000396,
      "v": 84
    },
    {
      "midi": 64,
      "hit": false,
      "t": 77357.0655000001,
      "d": 71.42849999999453,
      "v": 92
    },
    {
      "midi": 67,
      "hit": false,
      "t": 77357.0655000001,
      "d": 71.42849999999453,
      "v": 92
    },
    {
      "midi": 72,
      "hit": false,
      "t": 77357.0655000001,
      "d": 71.42849999999453,
      "v": 92
    },
    {
      "midi": 60,
      "hit": false,
      "t": 77357.06550000011,
      "d": 102.67846875000396,
      "v": 45
    },
    {
      "midi": 72,
      "hit": false,
      "t": 77357.06550000014,
      "d": 102.67846875000396,
      "v": 42
    },
    {
      "midi": 53,
      "hit": false,
      "t": 77357.06550000045,
      "d": 209.82121875000303,
      "v": 110
    },
    {
      "midi": 82,
      "hit": false,
      "t": 77464.20824999969,
      "d": 102.67846875000396,
      "v": 127
    },
    {
      "midi": 48,
      "hit": false,
      "t": 77464.20824999985,
      "d": 102.67846875000396,
      "v": 60
    },
    {
      "midi": 54,
      "hit": false,
      "t": 77464.20824999998,
      "d": 102.67846875000396,
      "v": 60
    },
    {
      "midi": 60,
      "hit": false,
      "t": 77464.20825000011,
      "d": 102.67846875000396,
      "v": 45
    },
    {
      "midi": 72,
      "hit": false,
      "t": 77464.20825000014,
      "d": 102.67846875000396,
      "v": 30
    },
    {
      "midi": 84,
      "hit": false,
      "t": 77571.35099999969,
      "d": 71.42849999999453,
      "v": 127
    },
    {
      "midi": 60,
      "hit": false,
      "t": 77571.35099999985,
      "d": 102.67846875000396,
      "v": 60
    },
    {
      "midi": 64,
      "hit": false,
      "t": 77571.35099999985,
      "d": 102.67846875000396,
      "v": 60
    },
    {
      "midi": 67,
      "hit": false,
      "t": 77571.35099999985,
      "d": 102.67846875000396,
      "v": 60
    },
    {
      "midi": 72,
      "hit": false,
      "t": 77571.35099999985,
      "d": 102.67846875000396,
      "v": 60
    },
    {
      "midi": 54,
      "hit": false,
      "t": 77571.35099999998,
      "d": 102.67846875000396,
      "v": 60
    },
    {
      "midi": 60,
      "hit": false,
      "t": 77571.35100000011,
      "d": 102.67846875000396,
      "v": 45
    },
    {
      "midi": 72,
      "hit": false,
      "t": 77571.35100000014,
      "d": 102.67846875000396,
      "v": 30
    },
    {
      "midi": 36,
      "hit": false,
      "t": 77571.35100000045,
      "d": 209.82121875000303,
      "v": 110
    },
    {
      "midi": 40,
      "hit": false,
      "t": 77571.35100000045,
      "d": 209.82121875000303,
      "v": 110
    },
    {
      "midi": 84,
      "hit": false,
      "t": 77678.49374999969,
      "d": 102.67846875000396,
      "v": 127
    },
    {
      "midi": 48,
      "hit": false,
      "t": 77678.49374999985,
      "d": 102.67846875000396,
      "v": 60
    },
    {
      "midi": 54,
      "hit": false,
      "t": 77678.49374999998,
      "d": 102.67846875000396,
      "v": 60
    },
    {
      "midi": 60,
      "hit": false,
      "t": 77678.49375000011,
      "d": 209.82121875000303,
      "v": 45
    },
    {
      "midi": 72,
      "hit": false,
      "t": 77678.49375000014,
      "d": 102.67846875000396,
      "v": 42
    },
    {
      "midi": 82,
      "hit": false,
      "t": 77785.63649999969,
      "d": 102.67846875000396,
      "v": 127
    },
    {
      "midi": 58,
      "hit": false,
      "t": 77785.63649999985,
      "d": 102.67846875000396,
      "v": 60
    },
    {
      "midi": 62,
      "hit": false,
      "t": 77785.63649999985,
      "d": 102.67846875000396,
      "v": 60
    },
    {
      "midi": 65,
      "hit": false,
      "t": 77785.63649999985,
      "d": 102.67846875000396,
      "v": 60
    },
    {
      "midi": 70,
      "hit": false,
      "t": 77785.63649999985,
      "d": 102.67846875000396,
      "v": 60
    },
    {
      "midi": 54,
      "hit": false,
      "t": 77785.63649999998,
      "d": 102.67846875000396,
      "v": 84
    },
    {
      "midi": 64,
      "hit": false,
      "t": 77785.6365000001,
      "d": 71.42849999999453,
      "v": 92
    },
    {
      "midi": 67,
      "hit": false,
      "t": 77785.6365000001,
      "d": 71.42849999999453,
      "v": 92
    },
    {
      "midi": 72,
      "hit": false,
      "t": 77785.6365000001,
      "d": 71.42849999999453,
      "v": 92
    },
    {
      "midi": 72,
      "hit": false,
      "t": 77785.63650000014,
      "d": 102.67846875000396,
      "v": 30
    },
    {
      "midi": 31,
      "hit": false,
      "t": 77785.63650000028,
      "d": 209.82121875000303,
      "v": 110
    },
    {
      "midi": 45,
      "hit": false,
      "t": 77785.63650000044,
      "d": 102.67846875000396,
      "v": 110
    },
    {
      "midi": 79,
      "hit": false,
      "t": 77892.77924999969,
      "d": 102.67846875000396,
      "v": 127
    },
    {
      "midi": 48,
      "hit": false,
      "t": 77892.77924999985,
      "d": 102.67846875000396,
      "v": 60
    },
    {
      "midi": 54,
      "hit": false,
      "t": 77892.77924999998,
      "d": 102.67846875000396,
      "v": 60
    },
    {
      "midi": 60,
      "hit": false,
      "t": 77892.77925000011,
      "d": 102.67846875000396,
      "v": 45
    },
    {
      "midi": 72,
      "hit": false,
      "t": 77892.77925000014,
      "d": 102.67846875000396,
      "v": 30
    },
    {
      "midi": 43,
      "hit": false,
      "t": 77892.77925000044,
      "d": 102.67846875000396,
      "v": 110
    },
    {
      "midi": 82,
      "hit": false,
      "t": 77999.92199999969,
      "d": 71.42849999999453,
      "v": 127
    },
    {
      "midi": 46,
      "hit": false,
      "t": 77999.92199999985,
      "d": 102.67846875000396,
      "v": 60
    },
    {
      "midi": 54,
      "hit": false,
      "t": 77999.92199999998,
      "d": 102.67846875000396,
      "v": 60
    },
    {
      "midi": 58,
      "hit": false,
      "t": 77999.92200000011,
      "d": 209.82121875000303,
      "v": 45
    },
    {
      "midi": 70,
      "hit": false,
      "t": 77999.92200000014,
      "d": 102.67846875000396,
      "v": 42
    },
    {
      "midi": 34,
      "hit": false,
      "t": 77999.92200000028,
      "d": 357.14250000000175,
      "v": 110
    },
    {
      "midi": 36,
      "hit": false,
      "t": 77999.92200000044,
      "d": 102.67846875000396,
      "v": 110
    },
    {
      "midi": 40,
      "hit": false,
      "t": 77999.92200000044,
      "d": 102.67846875000396,
      "v": 110
    },
    {
      "midi": 82,
      "hit": false,
      "t": 78107.06474999968,
      "d": 102.67846875000396,
      "v": 127
    },
    {
      "midi": 58,
      "hit": false,
      "t": 78107.06474999984,
      "d": 102.67846875000396,
      "v": 60
    },
    {
      "midi": 62,
      "hit": false,
      "t": 78107.06474999984,
      "d": 102.67846875000396,
      "v": 60
    },
    {
      "midi": 65,
      "hit": false,
      "t": 78107.06474999984,
      "d": 102.67846875000396,
      "v": 60
    },
    {
      "midi": 70,
      "hit": false,
      "t": 78107.06474999984,
      "d": 102.67846875000396,
      "v": 60
    },
    {
      "midi": 54,
      "hit": false,
      "t": 78107.06474999998,
      "d": 102.67846875000396,
      "v": 60
    },
    {
      "midi": 70,
      "hit": false,
      "t": 78107.06475000014,
      "d": 102.67846875000396,
      "v": 30
    },
    {
      "midi": 40,
      "hit": false,
      "t": 78107.06475000044,
      "d": 209.82121875000303,
      "v": 110
    },
    {
      "midi": 79,
      "hit": false,
      "t": 78214.20749999968,
      "d": 102.67846875000396,
      "v": 127
    },
    {
      "midi": 46,
      "hit": false,
      "t": 78214.20749999984,
      "d": 102.67846875000396,
      "v": 60
    },
    {
      "midi": 54,
      "hit": false,
      "t": 78214.20749999997,
      "d": 102.67846875000396,
      "v": 84
    },
    {
      "midi": 64,
      "hit": false,
      "t": 78214.20750000009,
      "d": 71.42849999999453,
      "v": 92
    },
    {
      "midi": 67,
      "hit": false,
      "t": 78214.20750000009,
      "d": 71.42849999999453,
      "v": 92
    },
    {
      "midi": 70,
      "hit": false,
      "t": 78214.20750000009,
      "d": 71.42849999999453,
      "v": 92
    },
    {
      "midi": 58,
      "hit": false,
      "t": 78214.2075000001,
      "d": 102.67846875000396,
      "v": 45
    },
    {
      "midi": 70,
      "hit": false,
      "t": 78214.20750000014,
      "d": 102.67846875000396,
      "v": 30
    },
    {
      "midi": 77,
      "hit": false,
      "t": 78321.35024999968,
      "d": 102.67846875000396,
      "v": 127
    },
    {
      "midi": 46,
      "hit": false,
      "t": 78321.35024999984,
      "d": 102.67846875000396,
      "v": 60
    },
    {
      "midi": 54,
      "hit": false,
      "t": 78321.35024999997,
      "d": 102.67846875000396,
      "v": 60
    },
    {
      "midi": 58,
      "hit": false,
      "t": 78321.3502500001,
      "d": 209.82121875000303,
      "v": 45
    },
    {
      "midi": 70,
      "hit": false,
      "t": 78321.35025000013,
      "d": 102.67846875000396,
      "v": 42
    },
    {
      "midi": 40,
      "hit": false,
      "t": 78321.35025000044,
      "d": 102.67846875000396,
      "v": 110
    },
    {
      "midi": 79,
      "hit": false,
      "t": 78428.49299999968,
      "d": 71.42849999999453,
      "v": 127
    },
    {
      "midi": 47,
      "hit": false,
      "t": 78428.49299999984,
      "d": 102.67846875000396,
      "v": 60
    },
    {
      "midi": 54,
      "hit": false,
      "t": 78428.49299999997,
      "d": 102.67846875000396,
      "v": 60
    },
    {
      "midi": 70,
      "hit": false,
      "t": 78428.49300000013,
      "d": 102.67846875000396,
      "v": 30
    },
    {
      "midi": 31,
      "hit": false,
      "t": 78428.49300000028,
      "d": 321.4282499999972,
      "v": 110
    },
    {
      "midi": 36,
      "hit": false,
      "t": 78428.49300000044,
      "d": 102.67846875000396,
      "v": 110
    },
    {
      "midi": 79,
      "hit": false,
      "t": 78535.63574999968,
      "d": 102.67846875000396,
      "v": 127
    },
    {
      "midi": 47,
      "hit": false,
      "t": 78535.63574999984,
      "d": 102.67846875000396,
      "v": 60
    },
    {
      "midi": 54,
      "hit": false,
      "t": 78535.63574999997,
      "d": 102.67846875000396,
      "v": 60
    },
    {
      "midi": 58,
      "hit": false,
      "t": 78535.6357500001,
      "d": 102.67846875000396,
      "v": 45
    },
    {
      "midi": 71,
      "hit": false,
      "t": 78535.63575000013,
      "d": 102.67846875000396,
      "v": 42
    },
    {
      "midi": 40,
      "hit": false,
      "t": 78535.63575000044,
      "d": 102.67846875000396,
      "v": 110
    },
    {
      "midi": 43,
      "hit": false,
      "t": 78535.63575000044,
      "d": 102.67846875000396,
      "v": 110
    },
    {
      "midi": 77,
      "hit": false,
      "t": 78642.77849999968,
      "d": 102.67846875000396,
      "v": 127
    },
    {
      "midi": 59,
      "hit": false,
      "t": 78642.77849999984,
      "d": 102.67846875000396,
      "v": 60
    },
    {
      "midi": 63,
      "hit": false,
      "t": 78642.77849999984,
      "d": 102.67846875000396,
      "v": 60
    },
    {
      "midi": 66,
      "hit": false,
      "t": 78642.77849999984,
      "d": 102.67846875000396,
      "v": 60
    },
    {
      "midi": 71,
      "hit": false,
      "t": 78642.77849999984,
      "d": 102.67846875000396,
      "v": 60
    },
    {
      "midi": 54,
      "hit": false,
      "t": 78642.77849999997,
      "d": 102.67846875000396,
      "v": 84
    },
    {
      "midi": 64,
      "hit": false,
      "t": 78642.77850000009,
      "d": 71.42849999999453,
      "v": 92
    },
    {
      "midi": 67,
      "hit": false,
      "t": 78642.77850000009,
      "d": 71.42849999999453,
      "v": 92
    },
    {
      "midi": 71,
      "hit": false,
      "t": 78642.77850000009,
      "d": 71.42849999999453,
      "v": 92
    },
    {
      "midi": 59,
      "hit": false,
      "t": 78642.7785000001,
      "d": 209.82121875000303,
      "v": 45
    },
    {
      "midi": 71,
      "hit": false,
      "t": 78642.77850000013,
      "d": 102.67846875000396,
      "v": 30
    },
    {
      "midi": 41,
      "hit": false,
      "t": 78642.77850000044,
      "d": 209.82121875000303,
      "v": 110
    },
    {
      "midi": 43,
      "hit": false,
      "t": 78642.77850000044,
      "d": 209.82121875000303,
      "v": 110
    },
    {
      "midi": 75,
      "hit": false,
      "t": 78749.92124999968,
      "d": 102.67846875000396,
      "v": 127
    },
    {
      "midi": 47,
      "hit": false,
      "t": 78749.92124999984,
      "d": 102.67846875000396,
      "v": 60
    },
    {
      "midi": 54,
      "hit": false,
      "t": 78749.92124999997,
      "d": 102.67846875000396,
      "v": 60
    },
    {
      "midi": 71,
      "hit": false,
      "t": 78749.92125000013,
      "d": 102.67846875000396,
      "v": 30
    },
    {
      "midi": 74,
      "hit": false,
      "t": 78857.06399999968,
      "d": 160.7141249999986,
      "v": 110
    },
    {
      "midi": 79,
      "hit": false,
      "t": 78857.06399999968,
      "d": 160.7141249999986,
      "v": 110
    },
    {
      "midi": 83,
      "hit": false,
      "t": 78857.06399999968,
      "d": 160.7141249999986,
      "v": 110
    },
    {
      "midi": 54,
      "hit": false,
      "t": 78857.06399999997,
      "d": 571.4279999999999,
      "v": 60
    },
    {
      "midi": 59,
      "hit": false,
      "t": 78857.06400000009,
      "d": 107.14274999999907,
      "v": 92
    },
    {
      "midi": 62,
      "hit": false,
      "t": 78857.06400000009,
      "d": 107.14274999999907,
      "v": 92
    },
    {
      "midi": 67,
      "hit": false,
      "t": 78857.06400000009,
      "d": 107.14274999999907,
      "v": 92
    },
    {
      "midi": 79,
      "hit": false,
      "t": 78857.06400000013,
      "d": 102.67846875000396,
      "v": 127
    },
    {
      "midi": 59,
      "hit": false,
      "t": 78857.06400000017,
      "d": 107.14274999999907,
      "v": 92
    },
    {
      "midi": 62,
      "hit": false,
      "t": 78857.06400000017,
      "d": 107.14274999999907,
      "v": 92
    },
    {
      "midi": 67,
      "hit": false,
      "t": 78857.06400000017,
      "d": 107.14274999999907,
      "v": 92
    },
    {
      "midi": 31,
      "hit": false,
      "t": 78857.06400000027,
      "d": 160.7141249999986,
      "v": 110
    },
    {
      "midi": 40,
      "hit": false,
      "t": 78857.06400000044,
      "d": 571.4279999999999,
      "v": 127
    },
    {
      "midi": 78,
      "hit": false,
      "t": 78964.20675000013,
      "d": 102.67846875000396,
      "v": 127
    },
    {
      "midi": 77,
      "hit": false,
      "t": 79071.34950000013,
      "d": 102.67846875000396,
      "v": 127
    },
    {
      "midi": 76,
      "hit": false,
      "t": 79178.49225000013,
      "d": 102.67846875000396,
      "v": 127
    },
    {
      "midi": 75,
      "hit": false,
      "t": 79285.63500000013,
      "d": 209.82121875000303,
      "v": 127
    },
    {
      "midi": 83,
      "hit": false,
      "t": 79499.92049999967,
      "d": 160.7141249999986,
      "v": 110
    },
    {
      "midi": 86,
      "hit": false,
      "t": 79499.92049999967,
      "d": 160.7141249999986,
      "v": 110
    },
    {
      "midi": 91,
      "hit": false,
      "t": 79499.92049999967,
      "d": 160.7141249999986,
      "v": 110
    },
    {
      "midi": 54,
      "hit": false,
      "t": 79499.92049999996,
      "d": 571.4279999999999,
      "v": 60
    },
    {
      "midi": 59,
      "hit": false,
      "t": 79499.92050000008,
      "d": 107.14274999999907,
      "v": 92
    },
    {
      "midi": 62,
      "hit": false,
      "t": 79499.92050000008,
      "d": 107.14274999999907,
      "v": 92
    },
    {
      "midi": 67,
      "hit": false,
      "t": 79499.92050000008,
      "d": 107.14274999999907,
      "v": 92
    },
    {
      "midi": 79,
      "hit": false,
      "t": 79499.92050000012,
      "d": 102.67846875000396,
      "v": 127
    },
    {
      "midi": 59,
      "hit": false,
      "t": 79499.92050000017,
      "d": 107.14274999999907,
      "v": 92
    },
    {
      "midi": 62,
      "hit": false,
      "t": 79499.92050000017,
      "d": 107.14274999999907,
      "v": 92
    },
    {
      "midi": 67,
      "hit": false,
      "t": 79499.92050000017,
      "d": 107.14274999999907,
      "v": 92
    },
    {
      "midi": 31,
      "hit": false,
      "t": 79499.92050000027,
      "d": 160.7141249999986,
      "v": 110
    },
    {
      "midi": 40,
      "hit": false,
      "t": 79499.92050000043,
      "d": 571.4279999999999,
      "v": 127
    },
    {
      "midi": 78,
      "hit": false,
      "t": 79607.06325000012,
      "d": 102.67846875000396,
      "v": 127
    },
    {
      "midi": 77,
      "hit": false,
      "t": 79714.20600000012,
      "d": 102.67846875000396,
      "v": 127
    },
    {
      "midi": 76,
      "hit": false,
      "t": 79821.34875000012,
      "d": 102.67846875000396,
      "v": 127
    },
    {
      "midi": 75,
      "hit": false,
      "t": 79928.49150000012,
      "d": 209.82121875000303,
      "v": 127
    },
    {
      "midi": 83,
      "hit": false,
      "t": 80142.77699999967,
      "d": 107.14274999999907,
      "v": 110
    },
    {
      "midi": 86,
      "hit": false,
      "t": 80142.77699999967,
      "d": 107.14274999999907,
      "v": 110
    },
    {
      "midi": 91,
      "hit": false,
      "t": 80142.77699999967,
      "d": 107.14274999999907,
      "v": 110
    },
    {
      "midi": 54,
      "hit": false,
      "t": 80142.77699999996,
      "d": 357.14250000000175,
      "v": 60
    },
    {
      "midi": 59,
      "hit": false,
      "t": 80142.77700000007,
      "d": 107.14274999999907,
      "v": 92
    },
    {
      "midi": 62,
      "hit": false,
      "t": 80142.77700000007,
      "d": 107.14274999999907,
      "v": 92
    },
    {
      "midi": 67,
      "hit": false,
      "t": 80142.77700000007,
      "d": 107.14274999999907,
      "v": 92
    },
    {
      "midi": 79,
      "hit": false,
      "t": 80142.77700000012,
      "d": 209.82121875000303,
      "v": 127
    },
    {
      "midi": 59,
      "hit": false,
      "t": 80142.77700000016,
      "d": 107.14274999999907,
      "v": 92
    },
    {
      "midi": 62,
      "hit": false,
      "t": 80142.77700000016,
      "d": 107.14274999999907,
      "v": 92
    },
    {
      "midi": 67,
      "hit": false,
      "t": 80142.77700000016,
      "d": 107.14274999999907,
      "v": 92
    },
    {
      "midi": 31,
      "hit": false,
      "t": 80142.77700000026,
      "d": 107.14274999999907,
      "v": 110
    },
    {
      "midi": 40,
      "hit": false,
      "t": 80142.77700000042,
      "d": 357.14250000000175,
      "v": 127
    },
    {
      "midi": 72,
      "hit": false,
      "t": 80357.06250000012,
      "d": 209.82121875000303,
      "v": 127
    },
    {
      "midi": 81,
      "hit": false,
      "t": 80571.34799999966,
      "d": 71.42849999999453,
      "v": 110
    },
    {
      "midi": 84,
      "hit": false,
      "t": 80571.34799999966,
      "d": 71.42849999999453,
      "v": 110
    },
    {
      "midi": 89,
      "hit": false,
      "t": 80571.34799999966,
      "d": 71.42849999999453,
      "v": 110
    },
    {
      "midi": 54,
      "hit": false,
      "t": 80571.34799999995,
      "d": 209.82121875000303,
      "v": 60
    },
    {
      "midi": 57,
      "hit": false,
      "t": 80571.34800000007,
      "d": 71.42849999999453,
      "v": 92
    },
    {
      "midi": 60,
      "hit": false,
      "t": 80571.34800000007,
      "d": 71.42849999999453,
      "v": 92
    },
    {
      "midi": 65,
      "hit": false,
      "t": 80571.34800000007,
      "d": 71.42849999999453,
      "v": 92
    },
    {
      "midi": 69,
      "hit": false,
      "t": 80571.34800000011,
      "d": 209.82121875000303,
      "v": 127
    },
    {
      "midi": 77,
      "hit": false,
      "t": 80571.34800000011,
      "d": 209.82121875000303,
      "v": 127
    },
    {
      "midi": 57,
      "hit": false,
      "t": 80571.34800000016,
      "d": 71.42849999999453,
      "v": 92
    },
    {
      "midi": 60,
      "hit": false,
      "t": 80571.34800000016,
      "d": 71.42849999999453,
      "v": 92
    },
    {
      "midi": 65,
      "hit": false,
      "t": 80571.34800000016,
      "d": 71.42849999999453,
      "v": 92
    },
    {
      "midi": 29,
      "hit": false,
      "t": 80571.34800000026,
      "d": 357.14250000000175,
      "v": 110
    },
    {
      "midi": 57,
      "hit": false,
      "t": 80571.34800000042,
      "d": 357.14250000000175,
      "v": 110
    },
    {
      "midi": 81,
      "hit": false,
      "t": 80785.63349999966,
      "d": 209.82121875000303,
      "v": 110
    },
    {
      "midi": 84,
      "hit": false,
      "t": 80785.63349999966,
      "d": 209.82121875000303,
      "v": 110
    },
    {
      "midi": 54,
      "hit": false,
      "t": 80785.63349999995,
      "d": 209.82121875000303,
      "v": 60
    },
    {
      "midi": 57,
      "hit": false,
      "t": 80785.63350000007,
      "d": 209.82121875000303,
      "v": 92
    },
    {
      "midi": 60,
      "hit": false,
      "t": 80785.63350000007,
      "d": 209.82121875000303,
      "v": 92
    },
    {
      "midi": 65,
      "hit": false,
      "t": 80785.63350000007,
      "d": 209.82121875000303,
      "v": 92
    },
    {
      "midi": 69,
      "hit": false,
      "t": 80785.63350000011,
      "d": 209.82121875000303,
      "v": 127
    },
    {
      "midi": 77,
      "hit": false,
      "t": 80785.63350000011,
      "d": 209.82121875000303,
      "v": 127
    },
    {
      "midi": 57,
      "hit": false,
      "t": 80785.63350000016,
      "d": 209.82121875000303,
      "v": 92
    },
    {
      "midi": 60,
      "hit": false,
      "t": 80785.63350000016,
      "d": 209.82121875000303,
      "v": 92
    },
    {
      "midi": 65,
      "hit": false,
      "t": 80785.63350000016,
      "d": 209.82121875000303,
      "v": 92
    },
    {
      "midi": 85,
      "hit": false,
      "t": 80999.91899999966,
      "d": 71.42849999999453,
      "v": 110
    },
    {
      "midi": 90,
      "hit": false,
      "t": 80999.91899999966,
      "d": 71.42849999999453,
      "v": 110
    },
    {
      "midi": 54,
      "hit": false,
      "t": 80999.91899999995,
      "d": 209.82121875000303,
      "v": 60
    },
    {
      "midi": 58,
      "hit": false,
      "t": 80999.91900000007,
      "d": 71.42849999999453,
      "v": 92
    },
    {
      "midi": 61,
      "hit": false,
      "t": 80999.91900000007,
      "d": 71.42849999999453,
      "v": 92
    },
    {
      "midi": 66,
      "hit": false,
      "t": 80999.91900000007,
      "d": 71.42849999999453,
      "v": 92
    },
    {
      "midi": 70,
      "hit": false,
      "t": 80999.91900000011,
      "d": 209.82121875000303,
      "v": 127
    },
    {
      "midi": 78,
      "hit": false,
      "t": 80999.91900000011,
      "d": 209.82121875000303,
      "v": 127
    },
    {
      "midi": 58,
      "hit": false,
      "t": 80999.91900000015,
      "d": 71.42849999999453,
      "v": 92
    },
    {
      "midi": 61,
      "hit": false,
      "t": 80999.91900000015,
      "d": 71.42849999999453,
      "v": 92
    },
    {
      "midi": 66,
      "hit": false,
      "t": 80999.91900000015,
      "d": 71.42849999999453,
      "v": 92
    },
    {
      "midi": 30,
      "hit": false,
      "t": 80999.91900000026,
      "d": 357.14250000000175,
      "v": 110
    },
    {
      "midi": 40,
      "hit": false,
      "t": 80999.91900000042,
      "d": 357.14250000000175,
      "v": 110
    },
    {
      "midi": 82,
      "hit": false,
      "t": 81214.20449999966,
      "d": 209.82121875000303,
      "v": 110
    },
    {
      "midi": 85,
      "hit": false,
      "t": 81214.20449999966,
      "d": 209.82121875000303,
      "v": 110
    },
    {
      "midi": 54,
      "hit": false,
      "t": 81214.20449999995,
      "d": 209.82121875000303,
      "v": 60
    },
    {
      "midi": 58,
      "hit": false,
      "t": 81214.20450000007,
      "d": 209.82121875000303,
      "v": 92
    },
    {
      "midi": 61,
      "hit": false,
      "t": 81214.20450000007,
      "d": 209.82121875000303,
      "v": 92
    },
    {
      "midi": 66,
      "hit": false,
      "t": 81214.20450000007,
      "d": 209.82121875000303,
      "v": 92
    },
    {
      "midi": 70,
      "hit": false,
      "t": 81214.20450000011,
      "d": 209.82121875000303,
      "v": 127
    },
    {
      "midi": 78,
      "hit": false,
      "t": 81214.20450000011,
      "d": 209.82121875000303,
      "v": 127
    },
    {
      "midi": 58,
      "hit": false,
      "t": 81214.20450000015,
      "d": 209.82121875000303,
      "v": 92
    },
    {
      "midi": 61,
      "hit": false,
      "t": 81214.20450000015,
      "d": 209.82121875000303,
      "v": 92
    },
    {
      "midi": 66,
      "hit": false,
      "t": 81214.20450000015,
      "d": 209.82121875000303,
      "v": 92
    },
    {
      "midi": 83,
      "hit": false,
      "t": 81428.48999999966,
      "d": 357.14250000000175,
      "v": 110
    },
    {
      "midi": 86,
      "hit": false,
      "t": 81428.48999999966,
      "d": 357.14250000000175,
      "v": 110
    },
    {
      "midi": 91,
      "hit": false,
      "t": 81428.48999999966,
      "d": 357.14250000000175,
      "v": 110
    },
    {
      "midi": 54,
      "hit": false,
      "t": 81428.48999999995,
      "d": 749.9992499999935,
      "v": 60
    },
    {
      "midi": 59,
      "hit": false,
      "t": 81428.49000000006,
      "d": 357.14250000000175,
      "v": 92
    },
    {
      "midi": 62,
      "hit": false,
      "t": 81428.49000000006,
      "d": 357.14250000000175,
      "v": 92
    },
    {
      "midi": 67,
      "hit": false,
      "t": 81428.49000000006,
      "d": 357.14250000000175,
      "v": 92
    },
    {
      "midi": 71,
      "hit": false,
      "t": 81428.4900000001,
      "d": 357.14250000000175,
      "v": 127
    },
    {
      "midi": 79,
      "hit": false,
      "t": 81428.4900000001,
      "d": 357.14250000000175,
      "v": 127
    },
    {
      "midi": 59,
      "hit": false,
      "t": 81428.49000000015,
      "d": 357.14250000000175,
      "v": 92
    },
    {
      "midi": 62,
      "hit": false,
      "t": 81428.49000000015,
      "d": 357.14250000000175,
      "v": 92
    },
    {
      "midi": 67,
      "hit": false,
      "t": 81428.49000000015,
      "d": 357.14250000000175,
      "v": 92
    },
    {
      "midi": 31,
      "hit": false,
      "t": 81428.49000000025,
      "d": 357.14250000000175,
      "v": 110
    },
    {
      "midi": 78,
      "hit": false,
      "t": 81642.77550000002,
      "d": 209.82121875000303,
      "v": 127
    },
    {
      "midi": 47,
      "hit": false,
      "t": 81642.77550000043,
      "d": 102.67846875000396,
      "v": 110
    },
    {
      "midi": 45,
      "hit": false,
      "t": 81749.91825000042,
      "d": 102.67846875000396,
      "v": 110
    },
    {
      "midi": 79,
      "hit": false,
      "t": 81857.06100000002,
      "d": 357.14250000000175,
      "v": 127
    },
    {
      "midi": 43,
      "hit": false,
      "t": 81857.06100000042,
      "d": 102.67846875000396,
      "v": 110
    },
    {
      "midi": 41,
      "hit": false,
      "t": 81964.20375000042,
      "d": 102.67846875000396,
      "v": 110
    },
    {
      "midi": 74,
      "hit": false,
      "t": 82071.34649999966,
      "d": 35.71425000000454,
      "v": 110
    },
    {
      "midi": 41,
      "hit": false,
      "t": 82071.34650000042,
      "d": 209.82121875000303,
      "v": 110
    },
    {
      "midi": 76,
      "hit": false,
      "t": 82107.06074999967,
      "d": 35.71425000000454,
      "v": 110
    },
    {
      "midi": 78,
      "hit": false,
      "t": 82142.77499999967,
      "d": 35.71425000000454,
      "v": 110
    },
    {
      "midi": 79,
      "hit": false,
      "t": 82178.48924999968,
      "d": 35.71425000000454,
      "v": 110
    },
    {
      "midi": 82,
      "hit": false,
      "t": 82214.20349999968,
      "d": 35.71425000000454,
      "v": 110
    },
    {
      "midi": 83,
      "hit": false,
      "t": 82249.91774999969,
      "d": 35.71425000000454,
      "v": 110
    },
    {
      "midi": 76,
      "hit": false,
      "t": 82285.63199999969,
      "d": 160.7141249999986,
      "v": 110
    },
    {
      "midi": 79,
      "hit": false,
      "t": 82285.63199999969,
      "d": 160.7141249999986,
      "v": 110
    },
    {
      "midi": 84,
      "hit": false,
      "t": 82285.63199999969,
      "d": 160.7141249999986,
      "v": 110
    },
    {
      "midi": 67,
      "hit": false,
      "t": 82285.63199999984,
      "d": 209.82121875000303,
      "v": 60
    },
    {
      "midi": 72,
      "hit": false,
      "t": 82285.63199999984,
      "d": 209.82121875000303,
      "v": 60
    },
    {
      "midi": 54,
      "hit": false,
      "t": 82285.63199999994,
      "d": 571.4279999999999,
      "v": 60
    },
    {
      "midi": 64,
      "hit": false,
      "t": 82285.63200000007,
      "d": 160.7141249999986,
      "v": 92
    },
    {
      "midi": 67,
      "hit": false,
      "t": 82285.63200000007,
      "d": 160.7141249999986,
      "v": 92
    },
    {
      "midi": 72,
      "hit": false,
      "t": 82285.63200000007,
      "d": 160.7141249999986,
      "v": 92
    },
    {
      "midi": 67,
      "hit": false,
      "t": 82285.6320000001,
      "d": 209.82121875000303,
      "v": 45
    },
    {
      "midi": 72,
      "hit": false,
      "t": 82285.6320000001,
      "d": 209.82121875000303,
      "v": 45
    },
    {
      "midi": 79,
      "hit": false,
      "t": 82285.63200000011,
      "d": 160.7141249999986,
      "v": 127
    },
    {
      "midi": 84,
      "hit": false,
      "t": 82285.63200000011,
      "d": 160.7141249999986,
      "v": 127
    },
    {
      "midi": 64,
      "hit": false,
      "t": 82285.63200000016,
      "d": 160.7141249999986,
      "v": 92
    },
    {
      "midi": 67,
      "hit": false,
      "t": 82285.63200000016,
      "d": 160.7141249999986,
      "v": 92
    },
    {
      "midi": 72,
      "hit": false,
      "t": 82285.63200000016,
      "d": 160.7141249999986,
      "v": 92
    },
    {
      "midi": 36,
      "hit": false,
      "t": 82285.63200000026,
      "d": 160.7141249999986,
      "v": 110
    },
    {
      "midi": 40,
      "hit": false,
      "t": 82285.63200000042,
      "d": 209.82121875000303,
      "v": 110
    },
    {
      "midi": 48,
      "hit": false,
      "t": 82499.91749999984,
      "d": 71.42849999999453,
      "v": 84
    },
    {
      "midi": 60,
      "hit": false,
      "t": 82499.9175000001,
      "d": 71.42849999999453,
      "v": 63
    },
    {
      "midi": 36,
      "hit": false,
      "t": 82499.91750000042,
      "d": 209.82121875000303,
      "v": 110
    },
    {
      "midi": 48,
      "hit": false,
      "t": 82714.20299999983,
      "d": 71.42849999999453,
      "v": 84
    },
    {
      "midi": 60,
      "hit": false,
      "t": 82714.2030000001,
      "d": 71.42849999999453,
      "v": 63
    },
    {
      "midi": 36,
      "hit": false,
      "t": 82714.20300000042,
      "d": 209.82121875000303,
      "v": 110
    },
    {
      "midi": 76,
      "hit": false,
      "t": 82928.48849999969,
      "d": 107.14274999999907,
      "v": 110
    },
    {
      "midi": 79,
      "hit": false,
      "t": 82928.48849999969,
      "d": 107.14274999999907,
      "v": 110
    },
    {
      "midi": 84,
      "hit": false,
      "t": 82928.48849999969,
      "d": 107.14274999999907,
      "v": 110
    },
    {
      "midi": 67,
      "hit": false,
      "t": 82928.48849999983,
      "d": 209.82121875000303,
      "v": 60
    },
    {
      "midi": 72,
      "hit": false,
      "t": 82928.48849999983,
      "d": 209.82121875000303,
      "v": 60
    },
    {
      "midi": 54,
      "hit": false,
      "t": 82928.48849999993,
      "d": 357.14250000000175,
      "v": 60
    },
    {
      "midi": 64,
      "hit": false,
      "t": 82928.48850000006,
      "d": 107.14274999999907,
      "v": 92
    },
    {
      "midi": 67,
      "hit": false,
      "t": 82928.48850000006,
      "d": 107.14274999999907,
      "v": 92
    },
    {
      "midi": 72,
      "hit": false,
      "t": 82928.48850000006,
      "d": 107.14274999999907,
      "v": 92
    },
    {
      "midi": 67,
      "hit": false,
      "t": 82928.4885000001,
      "d": 209.82121875000303,
      "v": 45
    },
    {
      "midi": 72,
      "hit": false,
      "t": 82928.4885000001,
      "d": 209.82121875000303,
      "v": 45
    },
    {
      "midi": 79,
      "hit": false,
      "t": 82928.48850000011,
      "d": 357.14250000000175,
      "v": 127
    },
    {
      "midi": 84,
      "hit": false,
      "t": 82928.48850000011,
      "d": 357.14250000000175,
      "v": 127
    },
    {
      "midi": 64,
      "hit": false,
      "t": 82928.48850000015,
      "d": 107.14274999999907,
      "v": 92
    },
    {
      "midi": 67,
      "hit": false,
      "t": 82928.48850000015,
      "d": 107.14274999999907,
      "v": 92
    },
    {
      "midi": 72,
      "hit": false,
      "t": 82928.48850000015,
      "d": 107.14274999999907,
      "v": 92
    },
    {
      "midi": 36,
      "hit": false,
      "t": 82928.48850000025,
      "d": 107.14274999999907,
      "v": 110
    },
    {
      "midi": 40,
      "hit": false,
      "t": 82928.48850000041,
      "d": 209.82121875000303,
      "v": 110
    },
    {
      "midi": 48,
      "hit": false,
      "t": 83142.77399999983,
      "d": 71.42849999999453,
      "v": 84
    },
    {
      "midi": 60,
      "hit": false,
      "t": 83142.77400000009,
      "d": 71.42849999999453,
      "v": 63
    },
    {
      "midi": 36,
      "hit": false,
      "t": 83142.77400000041,
      "d": 209.82121875000303,
      "v": 110
    },
    {
      "midi": 74,
      "hit": false,
      "t": 83357.05949999968,
      "d": 71.42849999999453,
      "v": 110
    },
    {
      "midi": 77,
      "hit": false,
      "t": 83357.05949999968,
      "d": 71.42849999999453,
      "v": 110
    },
    {
      "midi": 82,
      "hit": false,
      "t": 83357.05949999968,
      "d": 71.42849999999453,
      "v": 110
    },
    {
      "midi": 46,
      "hit": false,
      "t": 83357.05949999983,
      "d": 71.42849999999453,
      "v": 84
    },
    {
      "midi": 65,
      "hit": false,
      "t": 83357.05949999983,
      "d": 71.42849999999453,
      "v": 84
    },
    {
      "midi": 70,
      "hit": false,
      "t": 83357.05949999983,
      "d": 71.42849999999453,
      "v": 84
    },
    {
      "midi": 54,
      "hit": false,
      "t": 83357.05949999993,
      "d": 209.82121875000303,
      "v": 84
    },
    {
      "midi": 62,
      "hit": false,
      "t": 83357.05950000006,
      "d": 71.42849999999453,
      "v": 92
    },
    {
      "midi": 65,
      "hit": false,
      "t": 83357.05950000006,
      "d": 71.42849999999453,
      "v": 92
    },
    {
      "midi": 70,
      "hit": false,
      "t": 83357.05950000006,
      "d": 71.42849999999453,
      "v": 92
    },
    {
      "midi": 58,
      "hit": false,
      "t": 83357.05950000009,
      "d": 71.42849999999453,
      "v": 63
    },
    {
      "midi": 65,
      "hit": false,
      "t": 83357.05950000009,
      "d": 71.42849999999453,
      "v": 63
    },
    {
      "midi": 70,
      "hit": false,
      "t": 83357.05950000009,
      "d": 71.42849999999453,
      "v": 63
    },
    {
      "midi": 77,
      "hit": false,
      "t": 83357.0595000001,
      "d": 71.42849999999453,
      "v": 127
    },
    {
      "midi": 82,
      "hit": false,
      "t": 83357.0595000001,
      "d": 71.42849999999453,
      "v": 127
    },
    {
      "midi": 62,
      "hit": false,
      "t": 83357.05950000015,
      "d": 71.42849999999453,
      "v": 92
    },
    {
      "midi": 65,
      "hit": false,
      "t": 83357.05950000015,
      "d": 71.42849999999453,
      "v": 92
    },
    {
      "midi": 70,
      "hit": false,
      "t": 83357.05950000015,
      "d": 71.42849999999453,
      "v": 92
    },
    {
      "midi": 34,
      "hit": false,
      "t": 83357.05950000025,
      "d": 71.42849999999453,
      "v": 110
    },
    {
      "midi": 36,
      "hit": false,
      "t": 83357.05950000041,
      "d": 209.82121875000303,
      "v": 110
    },
    {
      "midi": 40,
      "hit": false,
      "t": 83357.05950000041,
      "d": 209.82121875000303,
      "v": 110
    },
    {
      "midi": 74,
      "hit": false,
      "t": 83571.34499999968,
      "d": 209.82121875000303,
      "v": 110
    },
    {
      "midi": 77,
      "hit": false,
      "t": 83571.34499999968,
      "d": 209.82121875000303,
      "v": 110
    },
    {
      "midi": 82,
      "hit": false,
      "t": 83571.34499999968,
      "d": 209.82121875000303,
      "v": 110
    },
    {
      "midi": 46,
      "hit": false,
      "t": 83571.34499999983,
      "d": 209.82121875000303,
      "v": 84
    },
    {
      "midi": 65,
      "hit": false,
      "t": 83571.34499999983,
      "d": 209.82121875000303,
      "v": 84
    },
    {
      "midi": 70,
      "hit": false,
      "t": 83571.34499999983,
      "d": 209.82121875000303,
      "v": 84
    },
    {
      "midi": 54,
      "hit": false,
      "t": 83571.34499999993,
      "d": 209.82121875000303,
      "v": 84
    },
    {
      "midi": 62,
      "hit": false,
      "t": 83571.34500000006,
      "d": 209.82121875000303,
      "v": 92
    },
    {
      "midi": 65,
      "hit": false,
      "t": 83571.34500000006,
      "d": 209.82121875000303,
      "v": 92
    },
    {
      "midi": 70,
      "hit": false,
      "t": 83571.34500000006,
      "d": 209.82121875000303,
      "v": 92
    },
    {
      "midi": 58,
      "hit": false,
      "t": 83571.34500000009,
      "d": 209.82121875000303,
      "v": 63
    },
    {
      "midi": 65,
      "hit": false,
      "t": 83571.34500000009,
      "d": 209.82121875000303,
      "v": 63
    },
    {
      "midi": 70,
      "hit": false,
      "t": 83571.34500000009,
      "d": 209.82121875000303,
      "v": 63
    },
    {
      "midi": 77,
      "hit": false,
      "t": 83571.3450000001,
      "d": 209.82121875000303,
      "v": 127
    },
    {
      "midi": 82,
      "hit": false,
      "t": 83571.3450000001,
      "d": 209.82121875000303,
      "v": 127
    },
    {
      "midi": 62,
      "hit": false,
      "t": 83571.34500000015,
      "d": 209.82121875000303,
      "v": 92
    },
    {
      "midi": 65,
      "hit": false,
      "t": 83571.34500000015,
      "d": 209.82121875000303,
      "v": 92
    },
    {
      "midi": 70,
      "hit": false,
      "t": 83571.34500000015,
      "d": 209.82121875000303,
      "v": 92
    },
    {
      "midi": 34,
      "hit": false,
      "t": 83571.34500000025,
      "d": 209.82121875000303,
      "v": 110
    },
    {
      "midi": 36,
      "hit": false,
      "t": 83571.34500000041,
      "d": 209.82121875000303,
      "v": 110
    },
    {
      "midi": 40,
      "hit": false,
      "t": 83571.34500000041,
      "d": 209.82121875000303,
      "v": 110
    },
    {
      "midi": 76,
      "hit": false,
      "t": 83785.63049999968,
      "d": 209.82121875000303,
      "v": 110
    },
    {
      "midi": 79,
      "hit": false,
      "t": 83785.63049999968,
      "d": 209.82121875000303,
      "v": 110
    },
    {
      "midi": 84,
      "hit": false,
      "t": 83785.63049999968,
      "d": 209.82121875000303,
      "v": 110
    },
    {
      "midi": 48,
      "hit": false,
      "t": 83785.63049999982,
      "d": 209.82121875000303,
      "v": 84
    },
    {
      "midi": 67,
      "hit": false,
      "t": 83785.63049999982,
      "d": 209.82121875000303,
      "v": 84
    },
    {
      "midi": 72,
      "hit": false,
      "t": 83785.63049999982,
      "d": 209.82121875000303,
      "v": 84
    },
    {
      "midi": 54,
      "hit": false,
      "t": 83785.63049999993,
      "d": 209.82121875000303,
      "v": 84
    },
    {
      "midi": 64,
      "hit": false,
      "t": 83785.63050000006,
      "d": 209.82121875000303,
      "v": 92
    },
    {
      "midi": 67,
      "hit": false,
      "t": 83785.63050000006,
      "d": 209.82121875000303,
      "v": 92
    },
    {
      "midi": 72,
      "hit": false,
      "t": 83785.63050000006,
      "d": 209.82121875000303,
      "v": 92
    },
    {
      "midi": 60,
      "hit": false,
      "t": 83785.63050000009,
      "d": 209.82121875000303,
      "v": 63
    },
    {
      "midi": 67,
      "hit": false,
      "t": 83785.63050000009,
      "d": 209.82121875000303,
      "v": 63
    },
    {
      "midi": 72,
      "hit": false,
      "t": 83785.63050000009,
      "d": 209.82121875000303,
      "v": 63
    },
    {
      "midi": 79,
      "hit": false,
      "t": 83785.6305000001,
      "d": 209.82121875000303,
      "v": 127
    },
    {
      "midi": 84,
      "hit": false,
      "t": 83785.6305000001,
      "d": 209.82121875000303,
      "v": 127
    },
    {
      "midi": 64,
      "hit": false,
      "t": 83785.63050000014,
      "d": 209.82121875000303,
      "v": 92
    },
    {
      "midi": 67,
      "hit": false,
      "t": 83785.63050000014,
      "d": 209.82121875000303,
      "v": 92
    },
    {
      "midi": 72,
      "hit": false,
      "t": 83785.63050000014,
      "d": 209.82121875000303,
      "v": 92
    },
    {
      "midi": 36,
      "hit": false,
      "t": 83785.63050000025,
      "d": 209.82121875000303,
      "v": 110
    },
    {
      "midi": 36,
      "hit": false,
      "t": 83785.6305000004,
      "d": 209.82121875000303,
      "v": 110
    },
    {
      "midi": 40,
      "hit": false,
      "t": 83785.6305000004,
      "d": 209.82121875000303,
      "v": 110
    },
    {
      "midi": 57,
      "hit": false,
      "t": 83785.6305000004,
      "d": 209.82121875000303,
      "v": 110
    },
    {
      "midi": 84,
      "hit": false,
      "t": 84214.20149999968,
      "d": 26.785687499999767,
      "v": 110
    },
    {
      "midi": 67,
      "hit": false,
      "t": 84214.20150000002,
      "d": 102.67846875000396,
      "v": 110
    },
    {
      "midi": 47,
      "hit": false,
      "t": 84214.2015000004,
      "d": 102.67846875000396,
      "v": 110
    },
    {
      "midi": 83,
      "hit": false,
      "t": 84240.98718749968,
      "d": 26.785687499999767,
      "v": 110
    },
    {
      "midi": 81,
      "hit": false,
      "t": 84267.77287499967,
      "d": 26.785687499999767,
      "v": 110
    },
    {
      "midi": 79,
      "hit": false,
      "t": 84294.55856249967,
      "d": 26.785687499999767,
      "v": 110
    },
    {
      "midi": 77,
      "hit": false,
      "t": 84321.34424999967,
      "d": 26.785687499999767,
      "v": 110
    },
    {
      "midi": 67,
      "hit": false,
      "t": 84321.34425000002,
      "d": 102.67846875000396,
      "v": 110
    },
    {
      "midi": 45,
      "hit": false,
      "t": 84321.3442500004,
      "d": 102.67846875000396,
      "v": 110
    },
    {
      "midi": 76,
      "hit": false,
      "t": 84348.12993749967,
      "d": 26.785687499999767,
      "v": 110
    },
    {
      "midi": 74,
      "hit": false,
      "t": 84374.91562499967,
      "d": 26.785687499999767,
      "v": 110
    },
    {
      "midi": 72,
      "hit": false,
      "t": 84401.70131249967,
      "d": 26.785687499999767,
      "v": 110
    },
    {
      "midi": 72,
      "hit": false,
      "t": 84428.48699999967,
      "d": 357.14250000000175,
      "v": 110
    },
    {
      "midi": 48,
      "hit": false,
      "t": 84428.48699999983,
      "d": 107.14274999999907,
      "v": 84
    },
    {
      "midi": 52,
      "hit": false,
      "t": 84428.48699999983,
      "d": 107.14274999999907,
      "v": 84
    },
    {
      "midi": 55,
      "hit": false,
      "t": 84428.48699999983,
      "d": 107.14274999999907,
      "v": 84
    },
    {
      "midi": 60,
      "hit": false,
      "t": 84428.48699999983,
      "d": 107.14274999999907,
      "v": 84
    },
    {
      "midi": 67,
      "hit": false,
      "t": 84428.48700000002,
      "d": 1178.5702500000043,
      "v": 110
    },
    {
      "midi": 79,
      "hit": false,
      "t": 84428.48700000002,
      "d": 1178.5702500000043,
      "v": 110
    },
    {
      "midi": 60,
      "hit": false,
      "t": 84428.48700000007,
      "d": 357.14250000000175,
      "v": 92
    },
    {
      "midi": 64,
      "hit": false,
      "t": 84428.48700000007,
      "d": 357.14250000000175,
      "v": 92
    },
    {
      "midi": 67,
      "hit": false,
      "t": 84428.48700000007,
      "d": 357.14250000000175,
      "v": 92
    },
    {
      "midi": 72,
      "hit": false,
      "t": 84428.48700000007,
      "d": 357.14250000000175,
      "v": 92
    },
    {
      "midi": 60,
      "hit": false,
      "t": 84428.4870000001,
      "d": 107.14274999999907,
      "v": 63
    },
    {
      "midi": 64,
      "hit": false,
      "t": 84428.4870000001,
      "d": 107.14274999999907,
      "v": 63
    },
    {
      "midi": 67,
      "hit": false,
      "t": 84428.4870000001,
      "d": 107.14274999999907,
      "v": 63
    },
    {
      "midi": 72,
      "hit": false,
      "t": 84428.4870000001,
      "d": 107.14274999999907,
      "v": 63
    },
    {
      "midi": 79,
      "hit": false,
      "t": 84428.48700000011,
      "d": 357.14250000000175,
      "v": 127
    },
    {
      "midi": 84,
      "hit": false,
      "t": 84428.48700000011,
      "d": 357.14250000000175,
      "v": 127
    },
    {
      "midi": 60,
      "hit": false,
      "t": 84428.48700000015,
      "d": 357.14250000000175,
      "v": 92
    },
    {
      "midi": 64,
      "hit": false,
      "t": 84428.48700000015,
      "d": 357.14250000000175,
      "v": 92
    },
    {
      "midi": 67,
      "hit": false,
      "t": 84428.48700000015,
      "d": 357.14250000000175,
      "v": 92
    },
    {
      "midi": 72,
      "hit": false,
      "t": 84428.48700000015,
      "d": 357.14250000000175,
      "v": 92
    },
    {
      "midi": 36,
      "hit": false,
      "t": 84428.48700000026,
      "d": 357.14250000000175,
      "v": 110
    },
    {
      "midi": 36,
      "hit": false,
      "t": 84428.4870000004,
      "d": 2464.283249999993,
      "v": 110
    },
    {
      "midi": 40,
      "hit": false,
      "t": 84428.4870000004,
      "d": 2464.283249999993,
      "v": 110
    },
    {
      "midi": 49,
      "hit": false,
      "t": 84428.4870000004,
      "d": 2464.283249999993,
      "v": 110
    }
  ]
}