{
  "jsonPath": "Animes/Naruto MIDI Collection/the-rraising-fighting-spirit.json",
  "path": "Animes\\Naruto MIDI Collection\\The Rraising Fighting Spirit.mid",
  "name": "The Rraising Fighting Spirit",
  "difficulty": "Advanced",
  "bpm": 210.00021000021,
  "notes": [
    {
      "midi": 43,
      "hit": false,
      "t": 0,
      "d": 238.09500000000003,
      "v": 60
    },
    {
      "midi": 28,
      "hit": false,
      "t": 0,
      "d": 238.09500000000003,
      "v": 105
    },
    {
      "midi": 43,
      "hit": false,
      "t": 285.71400000000006,
      "d": 139.88081250000005,
      "v": 60
    },
    {
      "midi": 28,
      "hit": false,
      "t": 285.71400000000006,
      "d": 139.88081250000005,
      "v": 105
    },
    {
      "midi": 43,
      "hit": false,
      "t": 428.5710000000001,
      "d": 238.09500000000008,
      "v": 60
    },
    {
      "midi": 28,
      "hit": false,
      "t": 428.5710000000001,
      "d": 238.09500000000008,
      "v": 105
    },
    {
      "midi": 43,
      "hit": false,
      "t": 714.2850000000002,
      "d": 139.88081250000005,
      "v": 60
    },
    {
      "midi": 28,
      "hit": false,
      "t": 714.2850000000002,
      "d": 139.88081250000005,
      "v": 105
    },
    {
      "midi": 43,
      "hit": false,
      "t": 857.1420000000003,
      "d": 139.88081250000005,
      "v": 60
    },
    {
      "midi": 28,
      "hit": false,
      "t": 857.1420000000003,
      "d": 139.88081250000005,
      "v": 105
    },
    {
      "midi": 43,
      "hit": false,
      "t": 999.9990000000004,
      "d": 139.88081249999993,
      "v": 60
    },
    {
      "midi": 28,
      "hit": false,
      "t": 999.9990000000004,
      "d": 139.88081249999993,
      "v": 105
    },
    {
      "midi": 43,
      "hit": false,
      "t": 1142.8560000000002,
      "d": 32.73806250000007,
      "v": 60
    },
    {
      "midi": 28,
      "hit": false,
      "t": 1142.8560000000002,
      "d": 32.73806250000007,
      "v": 105
    },
    {
      "midi": 43,
      "hit": false,
      "t": 1178.5702500000002,
      "d": 104.16656250000005,
      "v": 60
    },
    {
      "midi": 28,
      "hit": false,
      "t": 1178.5702500000002,
      "d": 104.16656250000005,
      "v": 105
    },
    {
      "midi": 43,
      "hit": false,
      "t": 1285.7130000000002,
      "d": 139.88081250000005,
      "v": 60
    },
    {
      "midi": 28,
      "hit": false,
      "t": 1285.7130000000002,
      "d": 139.88081250000005,
      "v": 105
    },
    {
      "midi": 43,
      "hit": false,
      "t": 1428.5700000000002,
      "d": 139.88081250000005,
      "v": 60
    },
    {
      "midi": 28,
      "hit": false,
      "t": 1428.5700000000002,
      "d": 139.88081250000005,
      "v": 105
    },
    {
      "midi": 43,
      "hit": false,
      "t": 1571.4270000000001,
      "d": 139.88081250000005,
      "v": 60
    },
    {
      "midi": 28,
      "hit": false,
      "t": 1571.4270000000001,
      "d": 139.88081250000005,
      "v": 105
    },
    {
      "midi": 43,
      "hit": false,
      "t": 1714.284,
      "d": 238.09500000000003,
      "v": 60
    },
    {
      "midi": 28,
      "hit": false,
      "t": 1714.284,
      "d": 238.09500000000003,
      "v": 105
    },
    {
      "midi": 43,
      "hit": false,
      "t": 1999.998,
      "d": 139.88081250000005,
      "v": 60
    },
    {
      "midi": 28,
      "hit": false,
      "t": 1999.998,
      "d": 139.88081250000005,
      "v": 105
    },
    {
      "midi": 43,
      "hit": false,
      "t": 2142.855,
      "d": 139.88081250000005,
      "v": 60
    },
    {
      "midi": 28,
      "hit": false,
      "t": 2142.855,
      "d": 139.88081250000005,
      "v": 105
    },
    {
      "midi": 43,
      "hit": false,
      "t": 2285.712,
      "d": 139.88081250000005,
      "v": 60
    },
    {
      "midi": 28,
      "hit": false,
      "t": 2285.712,
      "d": 139.88081250000005,
      "v": 105
    },
    {
      "midi": 43,
      "hit": false,
      "t": 2428.569,
      "d": 139.88081250000005,
      "v": 60
    },
    {
      "midi": 28,
      "hit": false,
      "t": 2428.569,
      "d": 139.88081250000005,
      "v": 105
    },
    {
      "midi": 43,
      "hit": false,
      "t": 2571.426,
      "d": 32.73806250000007,
      "v": 60
    },
    {
      "midi": 28,
      "hit": false,
      "t": 2571.426,
      "d": 32.73806250000007,
      "v": 105
    },
    {
      "midi": 43,
      "hit": false,
      "t": 2607.14025,
      "d": 247.02356250000003,
      "v": 60
    },
    {
      "midi": 28,
      "hit": false,
      "t": 2607.14025,
      "d": 247.02356250000003,
      "v": 105
    },
    {
      "midi": 43,
      "hit": false,
      "t": 2857.14,
      "d": 139.88081250000005,
      "v": 60
    },
    {
      "midi": 28,
      "hit": false,
      "t": 2857.14,
      "d": 139.88081250000005,
      "v": 105
    },
    {
      "midi": 43,
      "hit": false,
      "t": 2999.997,
      "d": 139.88081250000005,
      "v": 60
    },
    {
      "midi": 28,
      "hit": false,
      "t": 2999.997,
      "d": 139.88081250000005,
      "v": 105
    },
    {
      "midi": 43,
      "hit": false,
      "t": 3142.854,
      "d": 139.88081250000005,
      "v": 60
    },
    {
      "midi": 28,
      "hit": false,
      "t": 3142.854,
      "d": 139.88081250000005,
      "v": 105
    },
    {
      "midi": 43,
      "hit": false,
      "t": 3285.711,
      "d": 139.88081250000005,
      "v": 60
    },
    {
      "midi": 28,
      "hit": false,
      "t": 3285.711,
      "d": 139.88081250000005,
      "v": 105
    },
    {
      "midi": 43,
      "hit": false,
      "t": 3428.5679999999998,
      "d": 139.88081250000005,
      "v": 60
    },
    {
      "midi": 28,
      "hit": false,
      "t": 3428.5679999999998,
      "d": 139.88081250000005,
      "v": 105
    },
    {
      "midi": 43,
      "hit": false,
      "t": 3571.4249999999997,
      "d": 139.88081250000005,
      "v": 60
    },
    {
      "midi": 28,
      "hit": false,
      "t": 3571.4249999999997,
      "d": 139.88081250000005,
      "v": 105
    },
    {
      "midi": 43,
      "hit": false,
      "t": 3714.2819999999997,
      "d": 139.88081250000005,
      "v": 60
    },
    {
      "midi": 28,
      "hit": false,
      "t": 3714.2819999999997,
      "d": 139.88081250000005,
      "v": 105
    },
    {
      "midi": 43,
      "hit": false,
      "t": 3857.1389999999997,
      "d": 139.88081250000005,
      "v": 60
    },
    {
      "midi": 28,
      "hit": false,
      "t": 3857.1389999999997,
      "d": 139.88081250000005,
      "v": 105
    },
    {
      "midi": 43,
      "hit": false,
      "t": 3999.9959999999996,
      "d": 238.0949999999998,
      "v": 60
    },
    {
      "midi": 28,
      "hit": false,
      "t": 3999.9959999999996,
      "d": 238.0949999999998,
      "v": 105
    },
    {
      "midi": 43,
      "hit": false,
      "t": 4285.709999999999,
      "d": 68.4523124999996,
      "v": 60
    },
    {
      "midi": 28,
      "hit": false,
      "t": 4285.709999999999,
      "d": 68.4523124999996,
      "v": 105
    },
    {
      "midi": 43,
      "hit": false,
      "t": 4357.138499999999,
      "d": 68.4523124999996,
      "v": 60
    },
    {
      "midi": 28,
      "hit": false,
      "t": 4357.138499999999,
      "d": 68.4523124999996,
      "v": 105
    },
    {
      "midi": 43,
      "hit": false,
      "t": 4428.566999999999,
      "d": 139.8808124999996,
      "v": 60
    },
    {
      "midi": 28,
      "hit": false,
      "t": 4428.566999999999,
      "d": 139.8808124999996,
      "v": 105
    },
    {
      "midi": 43,
      "hit": false,
      "t": 4571.423999999999,
      "d": 139.8808124999996,
      "v": 60
    },
    {
      "midi": 28,
      "hit": false,
      "t": 4571.423999999999,
      "d": 139.8808124999996,
      "v": 105
    },
    {
      "midi": 43,
      "hit": false,
      "t": 4714.280999999999,
      "d": 139.8808124999996,
      "v": 60
    },
    {
      "midi": 28,
      "hit": false,
      "t": 4714.280999999999,
      "d": 139.8808124999996,
      "v": 105
    },
    {
      "midi": 43,
      "hit": false,
      "t": 4857.137999999999,
      "d": 139.8808124999996,
      "v": 60
    },
    {
      "midi": 28,
      "hit": false,
      "t": 4857.137999999999,
      "d": 139.8808124999996,
      "v": 105
    },
    {
      "midi": 43,
      "hit": false,
      "t": 4999.994999999999,
      "d": 139.8808124999996,
      "v": 60
    },
    {
      "midi": 28,
      "hit": false,
      "t": 4999.994999999999,
      "d": 139.8808124999996,
      "v": 105
    },
    {
      "midi": 36,
      "hit": false,
      "t": 5142.851999999999,
      "d": 139.8808124999996,
      "v": 105
    },
    {
      "midi": 28,
      "hit": false,
      "t": 5142.851999999999,
      "d": 238.09500000000025,
      "v": 105
    },
    {
      "midi": 43,
      "hit": false,
      "t": 5142.852000000001,
      "d": 380.9520000000002,
      "v": 127
    },
    {
      "midi": 45,
      "hit": false,
      "t": 5142.852000000001,
      "d": 380.9520000000002,
      "v": 127
    },
    {
      "midi": 36,
      "hit": false,
      "t": 5285.708999999999,
      "d": 139.8808124999996,
      "v": 105
    },
    {
      "midi": 36,
      "hit": false,
      "t": 5428.565999999999,
      "d": 139.8808124999996,
      "v": 105
    },
    {
      "midi": 28,
      "hit": false,
      "t": 5428.565999999999,
      "d": 139.8808124999996,
      "v": 105
    },
    {
      "midi": 36,
      "hit": false,
      "t": 5571.422999999999,
      "d": 139.8808124999996,
      "v": 105
    },
    {
      "midi": 28,
      "hit": false,
      "t": 5571.422999999999,
      "d": 139.8808124999996,
      "v": 105
    },
    {
      "midi": 41,
      "hit": false,
      "t": 5571.423000000001,
      "d": 380.9520000000002,
      "v": 127
    },
    {
      "midi": 43,
      "hit": false,
      "t": 5571.423000000001,
      "d": 380.9520000000002,
      "v": 127
    },
    {
      "midi": 36,
      "hit": false,
      "t": 5714.279999999999,
      "d": 139.8808124999996,
      "v": 105
    },
    {
      "midi": 28,
      "hit": false,
      "t": 5714.279999999999,
      "d": 139.8808124999996,
      "v": 105
    },
    {
      "midi": 36,
      "hit": false,
      "t": 5857.136999999999,
      "d": 139.8808124999996,
      "v": 105
    },
    {
      "midi": 28,
      "hit": false,
      "t": 5857.136999999999,
      "d": 139.8808124999996,
      "v": 105
    },
    {
      "midi": 36,
      "hit": false,
      "t": 5999.993999999999,
      "d": 139.8808124999996,
      "v": 105
    },
    {
      "midi": 28,
      "hit": false,
      "t": 5999.993999999999,
      "d": 139.8808124999996,
      "v": 105
    },
    {
      "midi": 40,
      "hit": false,
      "t": 5999.994000000001,
      "d": 238.09500000000025,
      "v": 127
    },
    {
      "midi": 36,
      "hit": false,
      "t": 6142.850999999999,
      "d": 139.8808124999996,
      "v": 105
    },
    {
      "midi": 28,
      "hit": false,
      "t": 6142.850999999999,
      "d": 139.8808124999996,
      "v": 105
    },
    {
      "midi": 36,
      "hit": false,
      "t": 6285.707999999999,
      "d": 139.8808124999996,
      "v": 105
    },
    {
      "midi": 28,
      "hit": false,
      "t": 6285.707999999999,
      "d": 139.8808124999996,
      "v": 105
    },
    {
      "midi": 41,
      "hit": false,
      "t": 6285.7080000000005,
      "d": 238.09500000000025,
      "v": 127
    },
    {
      "midi": 43,
      "hit": false,
      "t": 6285.7080000000005,
      "d": 238.09500000000025,
      "v": 127
    },
    {
      "midi": 36,
      "hit": false,
      "t": 6428.564999999999,
      "d": 139.8808124999996,
      "v": 105
    },
    {
      "midi": 28,
      "hit": false,
      "t": 6428.564999999999,
      "d": 139.8808124999996,
      "v": 105
    },
    {
      "midi": 36,
      "hit": false,
      "t": 6571.421999999999,
      "d": 139.8808124999996,
      "v": 105
    },
    {
      "midi": 28,
      "hit": false,
      "t": 6571.421999999999,
      "d": 139.8808124999996,
      "v": 105
    },
    {
      "midi": 41,
      "hit": false,
      "t": 6571.4220000000005,
      "d": 238.09500000000025,
      "v": 127
    },
    {
      "midi": 43,
      "hit": false,
      "t": 6571.4220000000005,
      "d": 238.09500000000025,
      "v": 127
    },
    {
      "midi": 36,
      "hit": false,
      "t": 6714.278999999999,
      "d": 139.8808124999996,
      "v": 105
    },
    {
      "midi": 28,
      "hit": false,
      "t": 6714.278999999999,
      "d": 139.8808124999996,
      "v": 105
    },
    {
      "midi": 36,
      "hit": false,
      "t": 6857.135999999999,
      "d": 139.8808124999996,
      "v": 92
    },
    {
      "midi": 28,
      "hit": false,
      "t": 6857.135999999999,
      "d": 139.8808124999996,
      "v": 45
    },
    {
      "midi": 40,
      "hit": false,
      "t": 6857.136,
      "d": 139.8808124999996,
      "v": 110
    },
    {
      "midi": 40,
      "hit": false,
      "t": 6857.136,
      "d": 139.8808124999996,
      "v": 110
    },
    {
      "midi": 40,
      "hit": false,
      "t": 6857.136,
      "d": 139.8808124999996,
      "v": 110
    },
    {
      "midi": 28,
      "hit": false,
      "t": 6857.136,
      "d": 139.8808124999996,
      "v": 110
    },
    {
      "midi": 57,
      "hit": false,
      "t": 6857.136,
      "d": 380.9520000000002,
      "v": 127
    },
    {
      "midi": 36,
      "hit": false,
      "t": 6999.992999999999,
      "d": 139.8808124999996,
      "v": 92
    },
    {
      "midi": 28,
      "hit": false,
      "t": 6999.992999999999,
      "d": 139.8808124999996,
      "v": 45
    },
    {
      "midi": 40,
      "hit": false,
      "t": 6999.993,
      "d": 139.8808124999996,
      "v": 110
    },
    {
      "midi": 40,
      "hit": false,
      "t": 6999.993,
      "d": 139.8808124999996,
      "v": 110
    },
    {
      "midi": 40,
      "hit": false,
      "t": 6999.993,
      "d": 139.8808124999996,
      "v": 110
    },
    {
      "midi": 28,
      "hit": false,
      "t": 6999.993,
      "d": 139.8808124999996,
      "v": 110
    },
    {
      "midi": 36,
      "hit": false,
      "t": 7142.8499999999985,
      "d": 139.8808124999996,
      "v": 92
    },
    {
      "midi": 28,
      "hit": false,
      "t": 7142.8499999999985,
      "d": 139.8808124999996,
      "v": 45
    },
    {
      "midi": 40,
      "hit": false,
      "t": 7142.85,
      "d": 139.8808124999996,
      "v": 110
    },
    {
      "midi": 40,
      "hit": false,
      "t": 7142.85,
      "d": 139.8808124999996,
      "v": 110
    },
    {
      "midi": 40,
      "hit": false,
      "t": 7142.85,
      "d": 139.8808124999996,
      "v": 110
    },
    {
      "midi": 28,
      "hit": false,
      "t": 7142.85,
      "d": 139.8808124999996,
      "v": 110
    },
    {
      "midi": 36,
      "hit": false,
      "t": 7285.7069999999985,
      "d": 139.8808124999996,
      "v": 92
    },
    {
      "midi": 28,
      "hit": false,
      "t": 7285.7069999999985,
      "d": 139.8808124999996,
      "v": 45
    },
    {
      "midi": 42,
      "hit": false,
      "t": 7285.707,
      "d": 139.8808124999996,
      "v": 110
    },
    {
      "midi": 42,
      "hit": false,
      "t": 7285.707,
      "d": 139.8808124999996,
      "v": 110
    },
    {
      "midi": 42,
      "hit": false,
      "t": 7285.707,
      "d": 139.8808124999996,
      "v": 110
    },
    {
      "midi": 30,
      "hit": false,
      "t": 7285.707,
      "d": 139.8808124999996,
      "v": 110
    },
    {
      "midi": 40,
      "hit": false,
      "t": 7285.707,
      "d": 380.9520000000002,
      "v": 127
    },
    {
      "midi": 46,
      "hit": false,
      "t": 7285.707,
      "d": 380.9520000000002,
      "v": 127
    },
    {
      "midi": 36,
      "hit": false,
      "t": 7428.5639999999985,
      "d": 139.8808124999996,
      "v": 92
    },
    {
      "midi": 28,
      "hit": false,
      "t": 7428.5639999999985,
      "d": 139.8808124999996,
      "v": 45
    },
    {
      "midi": 40,
      "hit": false,
      "t": 7428.564,
      "d": 139.8808124999996,
      "v": 110
    },
    {
      "midi": 40,
      "hit": false,
      "t": 7428.564,
      "d": 139.8808124999996,
      "v": 110
    },
    {
      "midi": 40,
      "hit": false,
      "t": 7428.564,
      "d": 139.8808124999996,
      "v": 110
    },
    {
      "midi": 28,
      "hit": false,
      "t": 7428.564,
      "d": 139.8808124999996,
      "v": 110
    },
    {
      "midi": 36,
      "hit": false,
      "t": 7571.4209999999985,
      "d": 139.8808124999996,
      "v": 92
    },
    {
      "midi": 28,
      "hit": false,
      "t": 7571.4209999999985,
      "d": 139.8808124999996,
      "v": 45
    },
    {
      "midi": 40,
      "hit": false,
      "t": 7571.421,
      "d": 139.8808124999996,
      "v": 110
    },
    {
      "midi": 40,
      "hit": false,
      "t": 7571.421,
      "d": 139.8808124999996,
      "v": 110
    },
    {
      "midi": 40,
      "hit": false,
      "t": 7571.421,
      "d": 139.8808124999996,
      "v": 110
    },
    {
      "midi": 28,
      "hit": false,
      "t": 7571.421,
      "d": 139.8808124999996,
      "v": 110
    },
    {
      "midi": 36,
      "hit": false,
      "t": 7714.277999999998,
      "d": 139.8808124999996,
      "v": 92
    },
    {
      "midi": 28,
      "hit": false,
      "t": 7714.277999999998,
      "d": 139.8808124999996,
      "v": 45
    },
    {
      "midi": 45,
      "hit": false,
      "t": 7714.278,
      "d": 32.738062499999614,
      "v": 110
    },
    {
      "midi": 45,
      "hit": false,
      "t": 7714.278,
      "d": 32.738062499999614,
      "v": 110
    },
    {
      "midi": 45,
      "hit": false,
      "t": 7714.278,
      "d": 32.738062499999614,
      "v": 110
    },
    {
      "midi": 35,
      "hit": false,
      "t": 7714.278,
      "d": 139.8808124999996,
      "v": 110
    },
    {
      "midi": 46,
      "hit": false,
      "t": 7714.278,
      "d": 380.9520000000002,
      "v": 127
    },
    {
      "midi": 47,
      "hit": false,
      "t": 7749.99225,
      "d": 104.1665624999996,
      "v": 110
    },
    {
      "midi": 47,
      "hit": false,
      "t": 7749.99225,
      "d": 104.1665624999996,
      "v": 110
    },
    {
      "midi": 47,
      "hit": false,
      "t": 7749.99225,
      "d": 104.1665624999996,
      "v": 110
    },
    {
      "midi": 36,
      "hit": false,
      "t": 7857.134999999998,
      "d": 139.8808124999996,
      "v": 92
    },
    {
      "midi": 28,
      "hit": false,
      "t": 7857.134999999998,
      "d": 139.8808124999996,
      "v": 45
    },
    {
      "midi": 45,
      "hit": false,
      "t": 7857.135,
      "d": 139.8808124999996,
      "v": 110
    },
    {
      "midi": 45,
      "hit": false,
      "t": 7857.135,
      "d": 139.8808124999996,
      "v": 110
    },
    {
      "midi": 45,
      "hit": false,
      "t": 7857.135,
      "d": 139.8808124999996,
      "v": 110
    },
    {
      "midi": 33,
      "hit": false,
      "t": 7857.135,
      "d": 139.8808124999996,
      "v": 110
    },
    {
      "midi": 36,
      "hit": false,
      "t": 7999.991999999998,
      "d": 139.8808124999996,
      "v": 92
    },
    {
      "midi": 28,
      "hit": false,
      "t": 7999.991999999998,
      "d": 139.8808124999996,
      "v": 45
    },
    {
      "midi": 43,
      "hit": false,
      "t": 7999.992,
      "d": 139.8808124999996,
      "v": 110
    },
    {
      "midi": 43,
      "hit": false,
      "t": 7999.992,
      "d": 139.8808124999996,
      "v": 110
    },
    {
      "midi": 43,
      "hit": false,
      "t": 7999.992,
      "d": 139.8808124999996,
      "v": 110
    },
    {
      "midi": 31,
      "hit": false,
      "t": 7999.992,
      "d": 139.8808124999996,
      "v": 110
    },
    {
      "midi": 36,
      "hit": false,
      "t": 8142.848999999998,
      "d": 139.8808124999996,
      "v": 92
    },
    {
      "midi": 28,
      "hit": false,
      "t": 8142.848999999998,
      "d": 139.8808124999996,
      "v": 45
    },
    {
      "midi": 45,
      "hit": false,
      "t": 8142.849,
      "d": 139.8808124999996,
      "v": 110
    },
    {
      "midi": 45,
      "hit": false,
      "t": 8142.849,
      "d": 139.8808124999996,
      "v": 110
    },
    {
      "midi": 45,
      "hit": false,
      "t": 8142.849,
      "d": 139.8808124999996,
      "v": 110
    },
    {
      "midi": 33,
      "hit": false,
      "t": 8142.849,
      "d": 139.8808124999996,
      "v": 110
    },
    {
      "midi": 40,
      "hit": false,
      "t": 8142.849,
      "d": 380.9519999999993,
      "v": 127
    },
    {
      "midi": 46,
      "hit": false,
      "t": 8142.849,
      "d": 380.9519999999993,
      "v": 127
    },
    {
      "midi": 36,
      "hit": false,
      "t": 8285.705999999998,
      "d": 139.8808124999996,
      "v": 92
    },
    {
      "midi": 28,
      "hit": false,
      "t": 8285.705999999998,
      "d": 139.8808124999996,
      "v": 45
    },
    {
      "midi": 43,
      "hit": false,
      "t": 8285.706,
      "d": 139.8808124999996,
      "v": 110
    },
    {
      "midi": 43,
      "hit": false,
      "t": 8285.706,
      "d": 139.8808124999996,
      "v": 110
    },
    {
      "midi": 43,
      "hit": false,
      "t": 8285.706,
      "d": 139.8808124999996,
      "v": 110
    },
    {
      "midi": 31,
      "hit": false,
      "t": 8285.706,
      "d": 139.8808124999996,
      "v": 110
    },
    {
      "midi": 36,
      "hit": false,
      "t": 8428.562999999998,
      "d": 139.8808124999996,
      "v": 92
    },
    {
      "midi": 28,
      "hit": false,
      "t": 8428.562999999998,
      "d": 139.8808124999996,
      "v": 45
    },
    {
      "midi": 42,
      "hit": false,
      "t": 8428.563,
      "d": 139.8808124999996,
      "v": 110
    },
    {
      "midi": 42,
      "hit": false,
      "t": 8428.563,
      "d": 139.8808124999996,
      "v": 110
    },
    {
      "midi": 42,
      "hit": false,
      "t": 8428.563,
      "d": 139.8808124999996,
      "v": 110
    },
    {
      "midi": 30,
      "hit": false,
      "t": 8428.563,
      "d": 139.8808124999996,
      "v": 110
    },
    {
      "midi": 36,
      "hit": false,
      "t": 8571.419999999998,
      "d": 139.8808124999996,
      "v": 92
    },
    {
      "midi": 28,
      "hit": false,
      "t": 8571.419999999998,
      "d": 139.8808124999996,
      "v": 45
    },
    {
      "midi": 40,
      "hit": false,
      "t": 8571.42,
      "d": 139.8808124999996,
      "v": 110
    },
    {
      "midi": 40,
      "hit": false,
      "t": 8571.42,
      "d": 139.8808124999996,
      "v": 110
    },
    {
      "midi": 40,
      "hit": false,
      "t": 8571.42,
      "d": 139.8808124999996,
      "v": 110
    },
    {
      "midi": 28,
      "hit": false,
      "t": 8571.42,
      "d": 139.8808124999996,
      "v": 110
    },
    {
      "midi": 46,
      "hit": false,
      "t": 8571.42,
      "d": 380.9519999999993,
      "v": 127
    },
    {
      "midi": 36,
      "hit": false,
      "t": 8714.276999999998,
      "d": 139.8808124999996,
      "v": 92
    },
    {
      "midi": 28,
      "hit": false,
      "t": 8714.276999999998,
      "d": 139.8808124999996,
      "v": 45
    },
    {
      "midi": 40,
      "hit": false,
      "t": 8714.277,
      "d": 139.8808124999996,
      "v": 110
    },
    {
      "midi": 40,
      "hit": false,
      "t": 8714.277,
      "d": 139.8808124999996,
      "v": 110
    },
    {
      "midi": 40,
      "hit": false,
      "t": 8714.277,
      "d": 139.8808124999996,
      "v": 110
    },
    {
      "midi": 28,
      "hit": false,
      "t": 8714.277,
      "d": 139.8808124999996,
      "v": 110
    },
    {
      "midi": 36,
      "hit": false,
      "t": 8857.133999999998,
      "d": 139.8808124999996,
      "v": 92
    },
    {
      "midi": 28,
      "hit": false,
      "t": 8857.133999999998,
      "d": 139.8808124999996,
      "v": 45
    },
    {
      "midi": 40,
      "hit": false,
      "t": 8857.134,
      "d": 139.8808124999996,
      "v": 110
    },
    {
      "midi": 40,
      "hit": false,
      "t": 8857.134,
      "d": 139.8808124999996,
      "v": 110
    },
    {
      "midi": 40,
      "hit": false,
      "t": 8857.134,
      "d": 139.8808124999996,
      "v": 110
    },
    {
      "midi": 28,
      "hit": false,
      "t": 8857.134,
      "d": 139.8808124999996,
      "v": 110
    },
    {
      "midi": 36,
      "hit": false,
      "t": 8999.990999999998,
      "d": 139.8808124999996,
      "v": 92
    },
    {
      "midi": 28,
      "hit": false,
      "t": 8999.990999999998,
      "d": 139.8808124999996,
      "v": 45
    },
    {
      "midi": 42,
      "hit": false,
      "t": 8999.991,
      "d": 139.8808124999996,
      "v": 110
    },
    {
      "midi": 42,
      "hit": false,
      "t": 8999.991,
      "d": 139.8808124999996,
      "v": 110
    },
    {
      "midi": 42,
      "hit": false,
      "t": 8999.991,
      "d": 139.8808124999996,
      "v": 110
    },
    {
      "midi": 30,
      "hit": false,
      "t": 8999.991,
      "d": 139.8808124999996,
      "v": 110
    },
    {
      "midi": 40,
      "hit": false,
      "t": 8999.991,
      "d": 380.9519999999993,
      "v": 127
    },
    {
      "midi": 46,
      "hit": false,
      "t": 8999.991,
      "d": 380.9519999999993,
      "v": 127
    },
    {
      "midi": 36,
      "hit": false,
      "t": 9142.847999999998,
      "d": 139.8808124999996,
      "v": 92
    },
    {
      "midi": 28,
      "hit": false,
      "t": 9142.847999999998,
      "d": 139.8808124999996,
      "v": 45
    },
    {
      "midi": 40,
      "hit": false,
      "t": 9142.848,
      "d": 139.8808124999996,
      "v": 110
    },
    {
      "midi": 40,
      "hit": false,
      "t": 9142.848,
      "d": 139.8808124999996,
      "v": 110
    },
    {
      "midi": 40,
      "hit": false,
      "t": 9142.848,
      "d": 139.8808124999996,
      "v": 110
    },
    {
      "midi": 28,
      "hit": false,
      "t": 9142.848,
      "d": 139.8808124999996,
      "v": 110
    },
    {
      "midi": 36,
      "hit": false,
      "t": 9285.704999999998,
      "d": 139.8808124999996,
      "v": 92
    },
    {
      "midi": 28,
      "hit": false,
      "t": 9285.704999999998,
      "d": 139.8808124999996,
      "v": 45
    },
    {
      "midi": 40,
      "hit": false,
      "t": 9285.705,
      "d": 139.8808124999996,
      "v": 110
    },
    {
      "midi": 40,
      "hit": false,
      "t": 9285.705,
      "d": 139.8808124999996,
      "v": 110
    },
    {
      "midi": 40,
      "hit": false,
      "t": 9285.705,
      "d": 139.8808124999996,
      "v": 110
    },
    {
      "midi": 28,
      "hit": false,
      "t": 9285.705,
      "d": 139.8808124999996,
      "v": 110
    },
    {
      "midi": 36,
      "hit": false,
      "t": 9428.561999999998,
      "d": 139.8808124999996,
      "v": 92
    },
    {
      "midi": 28,
      "hit": false,
      "t": 9428.561999999998,
      "d": 139.8808124999996,
      "v": 45
    },
    {
      "midi": 50,
      "hit": false,
      "t": 9428.562,
      "d": 428.5709999999999,
      "v": 110
    },
    {
      "midi": 57,
      "hit": false,
      "t": 9428.562,
      "d": 428.5709999999999,
      "v": 110
    },
    {
      "midi": 62,
      "hit": false,
      "t": 9428.562,
      "d": 428.5709999999999,
      "v": 110
    },
    {
      "midi": 50,
      "hit": false,
      "t": 9428.562,
      "d": 428.5709999999999,
      "v": 110
    },
    {
      "midi": 57,
      "hit": false,
      "t": 9428.562,
      "d": 428.5709999999999,
      "v": 110
    },
    {
      "midi": 62,
      "hit": false,
      "t": 9428.562,
      "d": 428.5709999999999,
      "v": 110
    },
    {
      "midi": 38,
      "hit": false,
      "t": 9428.562,
      "d": 380.9519999999993,
      "v": 110
    },
    {
      "midi": 57,
      "hit": false,
      "t": 9428.562,
      "d": 380.9519999999993,
      "v": 127
    },
    {
      "midi": 78,
      "hit": false,
      "t": 9428.562000000002,
      "d": 380.9519999999993,
      "v": 110
    },
    {
      "midi": 81,
      "hit": false,
      "t": 9428.562000000002,
      "d": 380.9519999999993,
      "v": 110
    },
    {
      "midi": 86,
      "hit": false,
      "t": 9428.562000000002,
      "d": 380.9519999999993,
      "v": 110
    },
    {
      "midi": 78,
      "hit": false,
      "t": 9428.562000000002,
      "d": 380.9519999999993,
      "v": 110
    },
    {
      "midi": 81,
      "hit": false,
      "t": 9428.562000000002,
      "d": 380.9519999999993,
      "v": 110
    },
    {
      "midi": 86,
      "hit": false,
      "t": 9428.562000000002,
      "d": 380.9519999999993,
      "v": 110
    },
    {
      "midi": 36,
      "hit": false,
      "t": 9571.418999999998,
      "d": 139.8808124999996,
      "v": 92
    },
    {
      "midi": 28,
      "hit": false,
      "t": 9571.418999999998,
      "d": 139.8808124999996,
      "v": 45
    },
    {
      "midi": 36,
      "hit": false,
      "t": 9714.275999999998,
      "d": 139.8808124999996,
      "v": 92
    },
    {
      "midi": 28,
      "hit": false,
      "t": 9714.275999999998,
      "d": 139.8808124999996,
      "v": 45
    },
    {
      "midi": 36,
      "hit": false,
      "t": 9857.132999999998,
      "d": 139.8808124999996,
      "v": 92
    },
    {
      "midi": 28,
      "hit": false,
      "t": 9857.132999999998,
      "d": 139.8808124999996,
      "v": 45
    },
    {
      "midi": 45,
      "hit": false,
      "t": 9857.133,
      "d": 380.9519999999993,
      "v": 110
    },
    {
      "midi": 52,
      "hit": false,
      "t": 9857.133,
      "d": 380.9519999999993,
      "v": 110
    },
    {
      "midi": 57,
      "hit": false,
      "t": 9857.133,
      "d": 380.9519999999993,
      "v": 110
    },
    {
      "midi": 45,
      "hit": false,
      "t": 9857.133,
      "d": 380.9519999999993,
      "v": 110
    },
    {
      "midi": 52,
      "hit": false,
      "t": 9857.133,
      "d": 380.9519999999993,
      "v": 110
    },
    {
      "midi": 57,
      "hit": false,
      "t": 9857.133,
      "d": 380.9519999999993,
      "v": 110
    },
    {
      "midi": 33,
      "hit": false,
      "t": 9857.133,
      "d": 380.9519999999993,
      "v": 110
    },
    {
      "midi": 40,
      "hit": false,
      "t": 9857.133,
      "d": 380.9519999999993,
      "v": 127
    },
    {
      "midi": 49,
      "hit": false,
      "t": 9857.133,
      "d": 380.9519999999993,
      "v": 127
    },
    {
      "midi": 73,
      "hit": false,
      "t": 9857.133000000002,
      "d": 380.9519999999993,
      "v": 110
    },
    {
      "midi": 76,
      "hit": false,
      "t": 9857.133000000002,
      "d": 380.9519999999993,
      "v": 110
    },
    {
      "midi": 81,
      "hit": false,
      "t": 9857.133000000002,
      "d": 380.9519999999993,
      "v": 110
    },
    {
      "midi": 73,
      "hit": false,
      "t": 9857.133000000002,
      "d": 380.9519999999993,
      "v": 110
    },
    {
      "midi": 76,
      "hit": false,
      "t": 9857.133000000002,
      "d": 380.9519999999993,
      "v": 110
    },
    {
      "midi": 81,
      "hit": false,
      "t": 9857.133000000002,
      "d": 380.9519999999993,
      "v": 110
    },
    {
      "midi": 36,
      "hit": false,
      "t": 9999.989999999998,
      "d": 139.8808124999996,
      "v": 92
    },
    {
      "midi": 28,
      "hit": false,
      "t": 9999.989999999998,
      "d": 139.8808124999996,
      "v": 45
    },
    {
      "midi": 36,
      "hit": false,
      "t": 10142.846999999998,
      "d": 139.8808124999996,
      "v": 92
    },
    {
      "midi": 28,
      "hit": false,
      "t": 10142.846999999998,
      "d": 139.8808124999996,
      "v": 45
    },
    {
      "midi": 36,
      "hit": false,
      "t": 10285.703999999998,
      "d": 139.8808124999996,
      "v": 92
    },
    {
      "midi": 28,
      "hit": false,
      "t": 10285.703999999998,
      "d": 139.8808124999996,
      "v": 45
    },
    {
      "midi": 40,
      "hit": false,
      "t": 10285.704,
      "d": 139.8808124999996,
      "v": 110
    },
    {
      "midi": 40,
      "hit": false,
      "t": 10285.704,
      "d": 139.8808124999996,
      "v": 110
    },
    {
      "midi": 40,
      "hit": false,
      "t": 10285.704,
      "d": 139.8808124999996,
      "v": 110
    },
    {
      "midi": 28,
      "hit": false,
      "t": 10285.704,
      "d": 139.8808124999996,
      "v": 110
    },
    {
      "midi": 57,
      "hit": false,
      "t": 10285.704,
      "d": 380.9519999999993,
      "v": 127
    },
    {
      "midi": 36,
      "hit": false,
      "t": 10428.560999999998,
      "d": 139.8808124999996,
      "v": 92
    },
    {
      "midi": 28,
      "hit": false,
      "t": 10428.560999999998,
      "d": 139.8808124999996,
      "v": 45
    },
    {
      "midi": 40,
      "hit": false,
      "t": 10428.561,
      "d": 139.8808124999996,
      "v": 110
    },
    {
      "midi": 40,
      "hit": false,
      "t": 10428.561,
      "d": 139.8808124999996,
      "v": 110
    },
    {
      "midi": 40,
      "hit": false,
      "t": 10428.561,
      "d": 139.8808124999996,
      "v": 110
    },
    {
      "midi": 28,
      "hit": false,
      "t": 10428.561,
      "d": 139.8808124999996,
      "v": 110
    },
    {
      "midi": 36,
      "hit": false,
      "t": 10571.417999999998,
      "d": 139.8808124999996,
      "v": 92
    },
    {
      "midi": 28,
      "hit": false,
      "t": 10571.417999999998,
      "d": 139.8808124999996,
      "v": 45
    },
    {
      "midi": 40,
      "hit": false,
      "t": 10571.418,
      "d": 139.8808124999996,
      "v": 110
    },
    {
      "midi": 40,
      "hit": false,
      "t": 10571.418,
      "d": 139.8808124999996,
      "v": 110
    },
    {
      "midi": 40,
      "hit": false,
      "t": 10571.418,
      "d": 139.8808124999996,
      "v": 110
    },
    {
      "midi": 28,
      "hit": false,
      "t": 10571.418,
      "d": 139.8808124999996,
      "v": 110
    },
    {
      "midi": 36,
      "hit": false,
      "t": 10714.274999999998,
      "d": 139.8808124999996,
      "v": 92
    },
    {
      "midi": 28,
      "hit": false,
      "t": 10714.274999999998,
      "d": 139.8808124999996,
      "v": 45
    },
    {
      "midi": 42,
      "hit": false,
      "t": 10714.275,
      "d": 139.8808124999996,
      "v": 110
    },
    {
      "midi": 42,
      "hit": false,
      "t": 10714.275,
      "d": 139.8808124999996,
      "v": 110
    },
    {
      "midi": 42,
      "hit": false,
      "t": 10714.275,
      "d": 139.8808124999996,
      "v": 110
    },
    {
      "midi": 30,
      "hit": false,
      "t": 10714.275,
      "d": 139.8808124999996,
      "v": 110
    },
    {
      "midi": 40,
      "hit": false,
      "t": 10714.275,
      "d": 380.9519999999993,
      "v": 127
    },
    {
      "midi": 46,
      "hit": false,
      "t": 10714.275,
      "d": 380.9519999999993,
      "v": 127
    },
    {
      "midi": 36,
      "hit": false,
      "t": 10857.131999999998,
      "d": 139.8808124999996,
      "v": 92
    },
    {
      "midi": 28,
      "hit": false,
      "t": 10857.131999999998,
      "d": 139.8808124999996,
      "v": 45
    },
    {
      "midi": 40,
      "hit": false,
      "t": 10857.132,
      "d": 139.8808124999996,
      "v": 110
    },
    {
      "midi": 40,
      "hit": false,
      "t": 10857.132,
      "d": 139.8808124999996,
      "v": 110
    },
    {
      "midi": 40,
      "hit": false,
      "t": 10857.132,
      "d": 139.8808124999996,
      "v": 110
    },
    {
      "midi": 28,
      "hit": false,
      "t": 10857.132,
      "d": 139.8808124999996,
      "v": 110
    },
    {
      "midi": 36,
      "hit": false,
      "t": 10999.988999999998,
      "d": 139.8808124999996,
      "v": 92
    },
    {
      "midi": 28,
      "hit": false,
      "t": 10999.988999999998,
      "d": 139.8808124999996,
      "v": 45
    },
    {
      "midi": 40,
      "hit": false,
      "t": 10999.989,
      "d": 139.8808124999996,
      "v": 110
    },
    {
      "midi": 40,
      "hit": false,
      "t": 10999.989,
      "d": 139.8808124999996,
      "v": 110
    },
    {
      "midi": 40,
      "hit": false,
      "t": 10999.989,
      "d": 139.8808124999996,
      "v": 110
    },
    {
      "midi": 28,
      "hit": false,
      "t": 10999.989,
      "d": 139.8808124999996,
      "v": 110
    },
    {
      "midi": 36,
      "hit": false,
      "t": 11142.845999999998,
      "d": 139.8808124999996,
      "v": 92
    },
    {
      "midi": 28,
      "hit": false,
      "t": 11142.845999999998,
      "d": 139.8808124999996,
      "v": 45
    },
    {
      "midi": 45,
      "hit": false,
      "t": 11142.846,
      "d": 32.738062500000524,
      "v": 110
    },
    {
      "midi": 45,
      "hit": false,
      "t": 11142.846,
      "d": 32.738062500000524,
      "v": 110
    },
    {
      "midi": 45,
      "hit": false,
      "t": 11142.846,
      "d": 32.738062500000524,
      "v": 110
    },
    {
      "midi": 35,
      "hit": false,
      "t": 11142.846,
      "d": 139.8808124999996,
      "v": 110
    },
    {
      "midi": 46,
      "hit": false,
      "t": 11142.846,
      "d": 380.9519999999993,
      "v": 127
    },
    {
      "midi": 47,
      "hit": false,
      "t": 11178.56025,
      "d": 104.16656250000051,
      "v": 110
    },
    {
      "midi": 47,
      "hit": false,
      "t": 11178.56025,
      "d": 104.16656250000051,
      "v": 110
    },
    {
      "midi": 47,
      "hit": false,
      "t": 11178.56025,
      "d": 104.16656250000051,
      "v": 110
    },
    {
      "midi": 36,
      "hit": false,
      "t": 11285.702999999998,
      "d": 139.8808124999996,
      "v": 92
    },
    {
      "midi": 28,
      "hit": false,
      "t": 11285.702999999998,
      "d": 139.8808124999996,
      "v": 45
    },
    {
      "midi": 33,
      "hit": false,
      "t": 11285.703,
      "d": 139.8808124999996,
      "v": 110
    },
    {
      "midi": 45,
      "hit": false,
      "t": 11285.703000000001,
      "d": 139.8808124999996,
      "v": 110
    },
    {
      "midi": 45,
      "hit": false,
      "t": 11285.703000000001,
      "d": 139.8808124999996,
      "v": 110
    },
    {
      "midi": 45,
      "hit": false,
      "t": 11285.703000000001,
      "d": 139.8808124999996,
      "v": 110
    },
    {
      "midi": 36,
      "hit": false,
      "t": 11428.559999999998,
      "d": 139.8808124999996,
      "v": 92
    },
    {
      "midi": 28,
      "hit": false,
      "t": 11428.559999999998,
      "d": 139.8808124999996,
      "v": 45
    },
    {
      "midi": 31,
      "hit": false,
      "t": 11428.56,
      "d": 139.8808124999996,
      "v": 110
    },
    {
      "midi": 43,
      "hit": false,
      "t": 11428.560000000001,
      "d": 139.8808124999996,
      "v": 110
    },
    {
      "midi": 43,
      "hit": false,
      "t": 11428.560000000001,
      "d": 139.8808124999996,
      "v": 110
    },
    {
      "midi": 43,
      "hit": false,
      "t": 11428.560000000001,
      "d": 139.8808124999996,
      "v": 110
    },
    {
      "midi": 36,
      "hit": false,
      "t": 11571.416999999998,
      "d": 139.8808124999996,
      "v": 92
    },
    {
      "midi": 28,
      "hit": false,
      "t": 11571.416999999998,
      "d": 139.8808124999996,
      "v": 45
    },
    {
      "midi": 33,
      "hit": false,
      "t": 11571.417,
      "d": 139.8808124999996,
      "v": 110
    },
    {
      "midi": 40,
      "hit": false,
      "t": 11571.417,
      "d": 139.8808124999996,
      "v": 127
    },
    {
      "midi": 45,
      "hit": false,
      "t": 11571.417000000001,
      "d": 139.8808124999996,
      "v": 110
    },
    {
      "midi": 45,
      "hit": false,
      "t": 11571.417000000001,
      "d": 139.8808124999996,
      "v": 110
    },
    {
      "midi": 45,
      "hit": false,
      "t": 11571.417000000001,
      "d": 139.8808124999996,
      "v": 110
    },
    {
      "midi": 36,
      "hit": false,
      "t": 11714.273999999998,
      "d": 139.8808124999996,
      "v": 92
    },
    {
      "midi": 28,
      "hit": false,
      "t": 11714.273999999998,
      "d": 139.8808124999996,
      "v": 45
    },
    {
      "midi": 31,
      "hit": false,
      "t": 11714.274,
      "d": 139.8808124999996,
      "v": 110
    },
    {
      "midi": 40,
      "hit": false,
      "t": 11714.274,
      "d": 139.8808124999996,
      "v": 127
    },
    {
      "midi": 43,
      "hit": false,
      "t": 11714.274000000001,
      "d": 139.8808124999996,
      "v": 110
    },
    {
      "midi": 43,
      "hit": false,
      "t": 11714.274000000001,
      "d": 139.8808124999996,
      "v": 110
    },
    {
      "midi": 43,
      "hit": false,
      "t": 11714.274000000001,
      "d": 139.8808124999996,
      "v": 110
    },
    {
      "midi": 36,
      "hit": false,
      "t": 11857.130999999998,
      "d": 139.8808124999996,
      "v": 92
    },
    {
      "midi": 28,
      "hit": false,
      "t": 11857.130999999998,
      "d": 139.8808124999996,
      "v": 45
    },
    {
      "midi": 30,
      "hit": false,
      "t": 11857.131,
      "d": 139.8808124999996,
      "v": 110
    },
    {
      "midi": 40,
      "hit": false,
      "t": 11857.131,
      "d": 139.8808124999996,
      "v": 127
    },
    {
      "midi": 41,
      "hit": false,
      "t": 11857.131,
      "d": 139.8808124999996,
      "v": 127
    },
    {
      "midi": 42,
      "hit": false,
      "t": 11857.131000000001,
      "d": 139.8808124999996,
      "v": 110
    },
    {
      "midi": 42,
      "hit": false,
      "t": 11857.131000000001,
      "d": 139.8808124999996,
      "v": 110
    },
    {
      "midi": 42,
      "hit": false,
      "t": 11857.131000000001,
      "d": 139.8808124999996,
      "v": 110
    },
    {
      "midi": 36,
      "hit": false,
      "t": 11999.987999999998,
      "d": 139.8808124999996,
      "v": 92
    },
    {
      "midi": 28,
      "hit": false,
      "t": 11999.987999999998,
      "d": 139.8808124999996,
      "v": 45
    },
    {
      "midi": 28,
      "hit": false,
      "t": 11999.988,
      "d": 47.6190000000006,
      "v": 110
    },
    {
      "midi": 41,
      "hit": false,
      "t": 11999.988,
      "d": 139.8808124999996,
      "v": 127
    },
    {
      "midi": 46,
      "hit": false,
      "t": 11999.988,
      "d": 139.8808124999996,
      "v": 127
    },
    {
      "midi": 36,
      "hit": false,
      "t": 12142.844999999998,
      "d": 139.8808124999996,
      "v": 92
    },
    {
      "midi": 28,
      "hit": false,
      "t": 12142.844999999998,
      "d": 139.8808124999996,
      "v": 45
    },
    {
      "midi": 36,
      "hit": false,
      "t": 12142.845,
      "d": 238.09499999999935,
      "v": 110
    },
    {
      "midi": 40,
      "hit": false,
      "t": 12142.845,
      "d": 238.09499999999935,
      "v": 127
    },
    {
      "midi": 57,
      "hit": false,
      "t": 12142.845,
      "d": 238.09499999999935,
      "v": 127
    },
    {
      "midi": 48,
      "hit": false,
      "t": 12142.845000000001,
      "d": 238.09499999999935,
      "v": 110
    },
    {
      "midi": 55,
      "hit": false,
      "t": 12142.845000000001,
      "d": 238.09499999999935,
      "v": 110
    },
    {
      "midi": 60,
      "hit": false,
      "t": 12142.845000000001,
      "d": 238.09499999999935,
      "v": 110
    },
    {
      "midi": 48,
      "hit": false,
      "t": 12142.845000000001,
      "d": 238.09499999999935,
      "v": 110
    },
    {
      "midi": 55,
      "hit": false,
      "t": 12142.845000000001,
      "d": 238.09499999999935,
      "v": 110
    },
    {
      "midi": 60,
      "hit": false,
      "t": 12142.845000000001,
      "d": 238.09499999999935,
      "v": 110
    },
    {
      "midi": 76,
      "hit": false,
      "t": 12142.845000000001,
      "d": 238.09499999999935,
      "v": 110
    },
    {
      "midi": 79,
      "hit": false,
      "t": 12142.845000000001,
      "d": 238.09499999999935,
      "v": 110
    },
    {
      "midi": 84,
      "hit": false,
      "t": 12142.845000000001,
      "d": 238.09499999999935,
      "v": 110
    },
    {
      "midi": 76,
      "hit": false,
      "t": 12142.845000000001,
      "d": 238.09499999999935,
      "v": 110
    },
    {
      "midi": 79,
      "hit": false,
      "t": 12142.845000000001,
      "d": 238.09499999999935,
      "v": 110
    },
    {
      "midi": 84,
      "hit": false,
      "t": 12142.845000000001,
      "d": 238.09499999999935,
      "v": 110
    },
    {
      "midi": 36,
      "hit": false,
      "t": 12285.701999999997,
      "d": 139.8808124999996,
      "v": 92
    },
    {
      "midi": 28,
      "hit": false,
      "t": 12285.701999999997,
      "d": 139.8808124999996,
      "v": 45
    },
    {
      "midi": 36,
      "hit": false,
      "t": 12428.558999999997,
      "d": 139.8808124999996,
      "v": 92
    },
    {
      "midi": 28,
      "hit": false,
      "t": 12428.558999999997,
      "d": 139.8808124999996,
      "v": 45
    },
    {
      "midi": 36,
      "hit": false,
      "t": 12428.559,
      "d": 285.71399999999994,
      "v": 110
    },
    {
      "midi": 40,
      "hit": false,
      "t": 12428.559,
      "d": 238.09499999999935,
      "v": 127
    },
    {
      "midi": 57,
      "hit": false,
      "t": 12428.559,
      "d": 238.09499999999935,
      "v": 127
    },
    {
      "midi": 48,
      "hit": false,
      "t": 12428.559000000001,
      "d": 428.5709999999999,
      "v": 110
    },
    {
      "midi": 55,
      "hit": false,
      "t": 12428.559000000001,
      "d": 428.5709999999999,
      "v": 110
    },
    {
      "midi": 60,
      "hit": false,
      "t": 12428.559000000001,
      "d": 428.5709999999999,
      "v": 110
    },
    {
      "midi": 48,
      "hit": false,
      "t": 12428.559000000001,
      "d": 428.5709999999999,
      "v": 110
    },
    {
      "midi": 55,
      "hit": false,
      "t": 12428.559000000001,
      "d": 428.5709999999999,
      "v": 110
    },
    {
      "midi": 60,
      "hit": false,
      "t": 12428.559000000001,
      "d": 428.5709999999999,
      "v": 110
    },
    {
      "midi": 76,
      "hit": false,
      "t": 12428.559000000001,
      "d": 380.9519999999993,
      "v": 110
    },
    {
      "midi": 79,
      "hit": false,
      "t": 12428.559000000001,
      "d": 380.9519999999993,
      "v": 110
    },
    {
      "midi": 84,
      "hit": false,
      "t": 12428.559000000001,
      "d": 380.9519999999993,
      "v": 110
    },
    {
      "midi": 76,
      "hit": false,
      "t": 12428.559000000001,
      "d": 380.9519999999993,
      "v": 110
    },
    {
      "midi": 79,
      "hit": false,
      "t": 12428.559000000001,
      "d": 380.9519999999993,
      "v": 110
    },
    {
      "midi": 84,
      "hit": false,
      "t": 12428.559000000001,
      "d": 380.9519999999993,
      "v": 110
    },
    {
      "midi": 36,
      "hit": false,
      "t": 12571.415999999997,
      "d": 139.8808124999996,
      "v": 92
    },
    {
      "midi": 28,
      "hit": false,
      "t": 12571.415999999997,
      "d": 139.8808124999996,
      "v": 45
    },
    {
      "midi": 36,
      "hit": false,
      "t": 12714.272999999997,
      "d": 139.8808124999996,
      "v": 92
    },
    {
      "midi": 28,
      "hit": false,
      "t": 12714.272999999997,
      "d": 139.8808124999996,
      "v": 45
    },
    {
      "midi": 26,
      "hit": false,
      "t": 12714.273,
      "d": 47.6190000000006,
      "v": 110
    },
    {
      "midi": 41,
      "hit": false,
      "t": 12714.273,
      "d": 139.8808124999996,
      "v": 127
    },
    {
      "midi": 36,
      "hit": false,
      "t": 12857.129999999997,
      "d": 139.8808124999996,
      "v": 92
    },
    {
      "midi": 28,
      "hit": false,
      "t": 12857.129999999997,
      "d": 139.8808124999996,
      "v": 45
    },
    {
      "midi": 28,
      "hit": false,
      "t": 12857.13,
      "d": 47.6190000000006,
      "v": 110
    },
    {
      "midi": 41,
      "hit": false,
      "t": 12857.13,
      "d": 139.8808124999996,
      "v": 127
    },
    {
      "midi": 46,
      "hit": false,
      "t": 12857.13,
      "d": 139.8808124999996,
      "v": 127
    },
    {
      "midi": 36,
      "hit": false,
      "t": 12999.986999999997,
      "d": 139.8808124999996,
      "v": 92
    },
    {
      "midi": 28,
      "hit": false,
      "t": 12999.986999999997,
      "d": 139.8808124999996,
      "v": 45
    },
    {
      "midi": 35,
      "hit": false,
      "t": 12999.987,
      "d": 238.09499999999935,
      "v": 110
    },
    {
      "midi": 40,
      "hit": false,
      "t": 12999.987,
      "d": 238.09499999999935,
      "v": 127
    },
    {
      "midi": 49,
      "hit": false,
      "t": 12999.987,
      "d": 238.09499999999935,
      "v": 127
    },
    {
      "midi": 47,
      "hit": false,
      "t": 12999.987000000001,
      "d": 238.09499999999935,
      "v": 110
    },
    {
      "midi": 54,
      "hit": false,
      "t": 12999.987000000001,
      "d": 238.09499999999935,
      "v": 110
    },
    {
      "midi": 59,
      "hit": false,
      "t": 12999.987000000001,
      "d": 238.09499999999935,
      "v": 110
    },
    {
      "midi": 47,
      "hit": false,
      "t": 12999.987000000001,
      "d": 238.09499999999935,
      "v": 110
    },
    {
      "midi": 54,
      "hit": false,
      "t": 12999.987000000001,
      "d": 238.09499999999935,
      "v": 110
    },
    {
      "midi": 59,
      "hit": false,
      "t": 12999.987000000001,
      "d": 238.09499999999935,
      "v": 110
    },
    {
      "midi": 75,
      "hit": false,
      "t": 12999.987000000001,
      "d": 238.09499999999935,
      "v": 110
    },
    {
      "midi": 78,
      "hit": false,
      "t": 12999.987000000001,
      "d": 238.09499999999935,
      "v": 110
    },
    {
      "midi": 83,
      "hit": false,
      "t": 12999.987000000001,
      "d": 238.09499999999935,
      "v": 110
    },
    {
      "midi": 75,
      "hit": false,
      "t": 12999.987000000001,
      "d": 238.09499999999935,
      "v": 110
    },
    {
      "midi": 78,
      "hit": false,
      "t": 12999.987000000001,
      "d": 238.09499999999935,
      "v": 110
    },
    {
      "midi": 83,
      "hit": false,
      "t": 12999.987000000001,
      "d": 238.09499999999935,
      "v": 110
    },
    {
      "midi": 36,
      "hit": false,
      "t": 13142.843999999997,
      "d": 139.8808124999996,
      "v": 92
    },
    {
      "midi": 28,
      "hit": false,
      "t": 13142.843999999997,
      "d": 139.8808124999996,
      "v": 45
    },
    {
      "midi": 36,
      "hit": false,
      "t": 13285.700999999997,
      "d": 139.8808124999996,
      "v": 92
    },
    {
      "midi": 28,
      "hit": false,
      "t": 13285.700999999997,
      "d": 139.8808124999996,
      "v": 45
    },
    {
      "midi": 35,
      "hit": false,
      "t": 13285.701,
      "d": 428.5709999999999,
      "v": 110
    },
    {
      "midi": 40,
      "hit": false,
      "t": 13285.701,
      "d": 68.4523124999996,
      "v": 127
    },
    {
      "midi": 49,
      "hit": false,
      "t": 13285.701,
      "d": 68.4523124999996,
      "v": 127
    },
    {
      "midi": 47,
      "hit": false,
      "t": 13285.701000000001,
      "d": 428.5709999999999,
      "v": 110
    },
    {
      "midi": 54,
      "hit": false,
      "t": 13285.701000000001,
      "d": 428.5709999999999,
      "v": 110
    },
    {
      "midi": 59,
      "hit": false,
      "t": 13285.701000000001,
      "d": 428.5709999999999,
      "v": 110
    },
    {
      "midi": 47,
      "hit": false,
      "t": 13285.701000000001,
      "d": 428.5709999999999,
      "v": 110
    },
    {
      "midi": 54,
      "hit": false,
      "t": 13285.701000000001,
      "d": 428.5709999999999,
      "v": 110
    },
    {
      "midi": 59,
      "hit": false,
      "t": 13285.701000000001,
      "d": 428.5709999999999,
      "v": 110
    },
    {
      "midi": 75,
      "hit": false,
      "t": 13285.701000000001,
      "d": 380.9519999999993,
      "v": 110
    },
    {
      "midi": 78,
      "hit": false,
      "t": 13285.701000000001,
      "d": 380.9519999999993,
      "v": 110
    },
    {
      "midi": 83,
      "hit": false,
      "t": 13285.701000000001,
      "d": 380.9519999999993,
      "v": 110
    },
    {
      "midi": 75,
      "hit": false,
      "t": 13285.701000000001,
      "d": 380.9519999999993,
      "v": 110
    },
    {
      "midi": 78,
      "hit": false,
      "t": 13285.701000000001,
      "d": 380.9519999999993,
      "v": 110
    },
    {
      "midi": 83,
      "hit": false,
      "t": 13285.701000000001,
      "d": 380.9519999999993,
      "v": 110
    },
    {
      "midi": 45,
      "hit": false,
      "t": 13357.1295,
      "d": 68.4523124999996,
      "v": 127
    },
    {
      "midi": 36,
      "hit": false,
      "t": 13428.557999999997,
      "d": 139.8808124999996,
      "v": 92
    },
    {
      "midi": 28,
      "hit": false,
      "t": 13428.557999999997,
      "d": 139.8808124999996,
      "v": 45
    },
    {
      "midi": 43,
      "hit": false,
      "t": 13428.557999999999,
      "d": 139.8808124999996,
      "v": 127
    },
    {
      "midi": 36,
      "hit": false,
      "t": 13571.414999999997,
      "d": 139.8808124999996,
      "v": 92
    },
    {
      "midi": 28,
      "hit": false,
      "t": 13571.414999999997,
      "d": 139.8808124999996,
      "v": 45
    },
    {
      "midi": 41,
      "hit": false,
      "t": 13571.414999999999,
      "d": 139.8808124999996,
      "v": 127
    },
    {
      "midi": 36,
      "hit": false,
      "t": 13714.271999999997,
      "d": 139.8808124999996,
      "v": 92
    },
    {
      "midi": 28,
      "hit": false,
      "t": 13714.271999999997,
      "d": 139.8808124999996,
      "v": 45
    },
    {
      "midi": 28,
      "hit": false,
      "t": 13714.271999999999,
      "d": 139.8808124999996,
      "v": 110
    },
    {
      "midi": 41,
      "hit": false,
      "t": 13714.271999999999,
      "d": 380.9519999999993,
      "v": 127
    },
    {
      "midi": 57,
      "hit": false,
      "t": 13714.271999999999,
      "d": 380.9519999999993,
      "v": 127
    },
    {
      "midi": 40,
      "hit": false,
      "t": 13714.272,
      "d": 139.8808124999996,
      "v": 110
    },
    {
      "midi": 40,
      "hit": false,
      "t": 13714.272,
      "d": 139.8808124999996,
      "v": 110
    },
    {
      "midi": 40,
      "hit": false,
      "t": 13714.272,
      "d": 139.8808124999996,
      "v": 110
    },
    {
      "midi": 36,
      "hit": false,
      "t": 13857.128999999997,
      "d": 139.8808124999996,
      "v": 92
    },
    {
      "midi": 28,
      "hit": false,
      "t": 13857.128999999997,
      "d": 139.8808124999996,
      "v": 45
    },
    {
      "midi": 28,
      "hit": false,
      "t": 13857.128999999999,
      "d": 139.8808124999996,
      "v": 110
    },
    {
      "midi": 40,
      "hit": false,
      "t": 13857.129,
      "d": 139.8808124999996,
      "v": 110
    },
    {
      "midi": 40,
      "hit": false,
      "t": 13857.129,
      "d": 139.8808124999996,
      "v": 110
    },
    {
      "midi": 40,
      "hit": false,
      "t": 13857.129,
      "d": 139.8808124999996,
      "v": 110
    },
    {
      "midi": 36,
      "hit": false,
      "t": 13999.985999999997,
      "d": 139.8808124999996,
      "v": 92
    },
    {
      "midi": 28,
      "hit": false,
      "t": 13999.985999999997,
      "d": 139.8808124999996,
      "v": 45
    },
    {
      "midi": 28,
      "hit": false,
      "t": 13999.985999999999,
      "d": 139.8808124999996,
      "v": 110
    },
    {
      "midi": 40,
      "hit": false,
      "t": 13999.986,
      "d": 139.8808124999996,
      "v": 110
    },
    {
      "midi": 40,
      "hit": false,
      "t": 13999.986,
      "d": 139.8808124999996,
      "v": 110
    },
    {
      "midi": 40,
      "hit": false,
      "t": 13999.986,
      "d": 139.8808124999996,
      "v": 110
    },
    {
      "midi": 36,
      "hit": false,
      "t": 14142.842999999997,
      "d": 139.8808124999996,
      "v": 92
    },
    {
      "midi": 28,
      "hit": false,
      "t": 14142.842999999997,
      "d": 139.8808124999996,
      "v": 45
    },
    {
      "midi": 30,
      "hit": false,
      "t": 14142.842999999999,
      "d": 139.8808124999996,
      "v": 110
    },
    {
      "midi": 40,
      "hit": false,
      "t": 14142.842999999999,
      "d": 380.9519999999993,
      "v": 127
    },
    {
      "midi": 46,
      "hit": false,
      "t": 14142.842999999999,
      "d": 380.9519999999993,
      "v": 127
    },
    {
      "midi": 42,
      "hit": false,
      "t": 14142.843,
      "d": 139.8808124999996,
      "v": 110
    },
    {
      "midi": 42,
      "hit": false,
      "t": 14142.843,
      "d": 139.8808124999996,
      "v": 110
    },
    {
      "midi": 42,
      "hit": false,
      "t": 14142.843,
      "d": 139.8808124999996,
      "v": 110
    },
    {
      "midi": 36,
      "hit": false,
      "t": 14285.699999999997,
      "d": 139.8808124999996,
      "v": 92
    },
    {
      "midi": 28,
      "hit": false,
      "t": 14285.699999999997,
      "d": 139.8808124999996,
      "v": 45
    },
    {
      "midi": 28,
      "hit": false,
      "t": 14285.699999999999,
      "d": 139.8808124999996,
      "v": 110
    },
    {
      "midi": 40,
      "hit": false,
      "t": 14285.7,
      "d": 139.8808124999996,
      "v": 110
    },
    {
      "midi": 40,
      "hit": false,
      "t": 14285.7,
      "d": 139.8808124999996,
      "v": 110
    },
    {
      "midi": 40,
      "hit": false,
      "t": 14285.7,
      "d": 139.8808124999996,
      "v": 110
    },
    {
      "midi": 36,
      "hit": false,
      "t": 14428.556999999997,
      "d": 139.8808124999996,
      "v": 92
    },
    {
      "midi": 28,
      "hit": false,
      "t": 14428.556999999997,
      "d": 139.8808124999996,
      "v": 45
    },
    {
      "midi": 28,
      "hit": false,
      "t": 14428.556999999999,
      "d": 139.8808124999996,
      "v": 110
    },
    {
      "midi": 40,
      "hit": false,
      "t": 14428.557,
      "d": 139.8808124999996,
      "v": 110
    },
    {
      "midi": 40,
      "hit": false,
      "t": 14428.557,
      "d": 139.8808124999996,
      "v": 110
    },
    {
      "midi": 40,
      "hit": false,
      "t": 14428.557,
      "d": 139.8808124999996,
      "v": 110
    },
    {
      "midi": 36,
      "hit": false,
      "t": 14571.413999999997,
      "d": 139.8808124999996,
      "v": 92
    },
    {
      "midi": 28,
      "hit": false,
      "t": 14571.413999999997,
      "d": 139.8808124999996,
      "v": 45
    },
    {
      "midi": 35,
      "hit": false,
      "t": 14571.413999999999,
      "d": 139.8808124999996,
      "v": 110
    },
    {
      "midi": 46,
      "hit": false,
      "t": 14571.413999999999,
      "d": 380.9519999999993,
      "v": 127
    },
    {
      "midi": 45,
      "hit": false,
      "t": 14571.414,
      "d": 32.738062500000524,
      "v": 110
    },
    {
      "midi": 45,
      "hit": false,
      "t": 14571.414,
      "d": 32.738062500000524,
      "v": 110
    },
    {
      "midi": 45,
      "hit": false,
      "t": 14571.414,
      "d": 32.738062500000524,
      "v": 110
    },
    {
      "midi": 47,
      "hit": false,
      "t": 14607.128250000002,
      "d": 104.16656250000051,
      "v": 110
    },
    {
      "midi": 47,
      "hit": false,
      "t": 14607.128250000002,
      "d": 104.16656250000051,
      "v": 110
    },
    {
      "midi": 47,
      "hit": false,
      "t": 14607.128250000002,
      "d": 104.16656250000051,
      "v": 110
    },
    {
      "midi": 36,
      "hit": false,
      "t": 14714.270999999997,
      "d": 139.8808124999996,
      "v": 92
    },
    {
      "midi": 28,
      "hit": false,
      "t": 14714.270999999997,
      "d": 139.8808124999996,
      "v": 45
    },
    {
      "midi": 33,
      "hit": false,
      "t": 14714.270999999999,
      "d": 139.8808124999996,
      "v": 110
    },
    {
      "midi": 45,
      "hit": false,
      "t": 14714.271000000002,
      "d": 139.8808124999996,
      "v": 110
    },
    {
      "midi": 45,
      "hit": false,
      "t": 14714.271000000002,
      "d": 139.8808124999996,
      "v": 110
    },
    {
      "midi": 45,
      "hit": false,
      "t": 14714.271000000002,
      "d": 139.8808124999996,
      "v": 110
    },
    {
      "midi": 36,
      "hit": false,
      "t": 14857.127999999997,
      "d": 139.8808124999996,
      "v": 92
    },
    {
      "midi": 28,
      "hit": false,
      "t": 14857.127999999997,
      "d": 139.8808124999996,
      "v": 45
    },
    {
      "midi": 31,
      "hit": false,
      "t": 14857.127999999999,
      "d": 139.8808124999996,
      "v": 110
    },
    {
      "midi": 43,
      "hit": false,
      "t": 14857.128000000002,
      "d": 139.8808124999996,
      "v": 110
    },
    {
      "midi": 43,
      "hit": false,
      "t": 14857.128000000002,
      "d": 139.8808124999996,
      "v": 110
    },
    {
      "midi": 43,
      "hit": false,
      "t": 14857.128000000002,
      "d": 139.8808124999996,
      "v": 110
    },
    {
      "midi": 36,
      "hit": false,
      "t": 14999.984999999997,
      "d": 139.8808124999996,
      "v": 92
    },
    {
      "midi": 28,
      "hit": false,
      "t": 14999.984999999997,
      "d": 139.8808124999996,
      "v": 45
    },
    {
      "midi": 33,
      "hit": false,
      "t": 14999.984999999999,
      "d": 139.8808124999996,
      "v": 110
    },
    {
      "midi": 40,
      "hit": false,
      "t": 14999.984999999999,
      "d": 380.9519999999993,
      "v": 127
    },
    {
      "midi": 46,
      "hit": false,
      "t": 14999.984999999999,
      "d": 380.9519999999993,
      "v": 127
    },
    {
      "midi": 45,
      "hit": false,
      "t": 14999.985000000002,
      "d": 139.8808124999996,
      "v": 110
    },
    {
      "midi": 45,
      "hit": false,
      "t": 14999.985000000002,
      "d": 139.8808124999996,
      "v": 110
    },
    {
      "midi": 45,
      "hit": false,
      "t": 14999.985000000002,
      "d": 139.8808124999996,
      "v": 110
    },
    {
      "midi": 36,
      "hit": false,
      "t": 15142.841999999997,
      "d": 139.8808124999996,
      "v": 92
    },
    {
      "midi": 28,
      "hit": false,
      "t": 15142.841999999997,
      "d": 139.8808124999996,
      "v": 45
    },
    {
      "midi": 31,
      "hit": false,
      "t": 15142.841999999999,
      "d": 139.8808124999996,
      "v": 110
    },
    {
      "midi": 43,
      "hit": false,
      "t": 15142.842000000002,
      "d": 139.8808124999996,
      "v": 110
    },
    {
      "midi": 43,
      "hit": false,
      "t": 15142.842000000002,
      "d": 139.8808124999996,
      "v": 110
    },
    {
      "midi": 43,
      "hit": false,
      "t": 15142.842000000002,
      "d": 139.8808124999996,
      "v": 110
    },
    {
      "midi": 36,
      "hit": false,
      "t": 15285.698999999997,
      "d": 139.8808124999996,
      "v": 92
    },
    {
      "midi": 28,
      "hit": false,
      "t": 15285.698999999997,
      "d": 139.8808124999996,
      "v": 45
    },
    {
      "midi": 30,
      "hit": false,
      "t": 15285.698999999999,
      "d": 139.8808124999996,
      "v": 110
    },
    {
      "midi": 42,
      "hit": false,
      "t": 15285.699000000002,
      "d": 139.8808124999996,
      "v": 110
    },
    {
      "midi": 42,
      "hit": false,
      "t": 15285.699000000002,
      "d": 139.8808124999996,
      "v": 110
    },
    {
      "midi": 42,
      "hit": false,
      "t": 15285.699000000002,
      "d": 139.8808124999996,
      "v": 110
    },
    {
      "midi": 36,
      "hit": false,
      "t": 15428.555999999997,
      "d": 139.8808124999996,
      "v": 92
    },
    {
      "midi": 28,
      "hit": false,
      "t": 15428.555999999997,
      "d": 139.8808124999996,
      "v": 45
    },
    {
      "midi": 28,
      "hit": false,
      "t": 15428.555999999999,
      "d": 139.8808124999996,
      "v": 110
    },
    {
      "midi": 46,
      "hit": false,
      "t": 15428.555999999999,
      "d": 380.9519999999993,
      "v": 127
    },
    {
      "midi": 40,
      "hit": false,
      "t": 15428.556000000002,
      "d": 139.8808124999996,
      "v": 110
    },
    {
      "midi": 40,
      "hit": false,
      "t": 15428.556000000002,
      "d": 139.8808124999996,
      "v": 110
    },
    {
      "midi": 40,
      "hit": false,
      "t": 15428.556000000002,
      "d": 139.8808124999996,
      "v": 110
    },
    {
      "midi": 36,
      "hit": false,
      "t": 15571.412999999997,
      "d": 139.8808124999996,
      "v": 92
    },
    {
      "midi": 28,
      "hit": false,
      "t": 15571.412999999997,
      "d": 139.8808124999996,
      "v": 45
    },
    {
      "midi": 28,
      "hit": false,
      "t": 15571.412999999999,
      "d": 139.8808124999996,
      "v": 110
    },
    {
      "midi": 40,
      "hit": false,
      "t": 15571.413000000002,
      "d": 139.8808124999996,
      "v": 110
    },
    {
      "midi": 40,
      "hit": false,
      "t": 15571.413000000002,
      "d": 139.8808124999996,
      "v": 110
    },
    {
      "midi": 40,
      "hit": false,
      "t": 15571.413000000002,
      "d": 139.8808124999996,
      "v": 110
    },
    {
      "midi": 36,
      "hit": false,
      "t": 15714.269999999997,
      "d": 139.8808124999996,
      "v": 92
    },
    {
      "midi": 28,
      "hit": false,
      "t": 15714.269999999997,
      "d": 139.8808124999996,
      "v": 45
    },
    {
      "midi": 28,
      "hit": false,
      "t": 15714.269999999999,
      "d": 139.8808124999996,
      "v": 110
    },
    {
      "midi": 40,
      "hit": false,
      "t": 15714.270000000002,
      "d": 139.8808124999996,
      "v": 110
    },
    {
      "midi": 40,
      "hit": false,
      "t": 15714.270000000002,
      "d": 139.8808124999996,
      "v": 110
    },
    {
      "midi": 40,
      "hit": false,
      "t": 15714.270000000002,
      "d": 139.8808124999996,
      "v": 110
    },
    {
      "midi": 36,
      "hit": false,
      "t": 15857.126999999997,
      "d": 139.8808124999996,
      "v": 92
    },
    {
      "midi": 28,
      "hit": false,
      "t": 15857.126999999997,
      "d": 139.8808124999996,
      "v": 45
    },
    {
      "midi": 30,
      "hit": false,
      "t": 15857.126999999999,
      "d": 139.8808124999996,
      "v": 110
    },
    {
      "midi": 40,
      "hit": false,
      "t": 15857.126999999999,
      "d": 380.9519999999993,
      "v": 127
    },
    {
      "midi": 46,
      "hit": false,
      "t": 15857.126999999999,
      "d": 380.9519999999993,
      "v": 127
    },
    {
      "midi": 42,
      "hit": false,
      "t": 15857.127000000002,
      "d": 139.8808124999996,
      "v": 110
    },
    {
      "midi": 42,
      "hit": false,
      "t": 15857.127000000002,
      "d": 139.8808124999996,
      "v": 110
    },
    {
      "midi": 42,
      "hit": false,
      "t": 15857.127000000002,
      "d": 139.8808124999996,
      "v": 110
    },
    {
      "midi": 36,
      "hit": false,
      "t": 15999.983999999997,
      "d": 139.8808124999996,
      "v": 92
    },
    {
      "midi": 28,
      "hit": false,
      "t": 15999.983999999997,
      "d": 139.8808124999996,
      "v": 45
    },
    {
      "midi": 28,
      "hit": false,
      "t": 15999.983999999999,
      "d": 139.8808124999996,
      "v": 110
    },
    {
      "midi": 40,
      "hit": false,
      "t": 15999.984000000002,
      "d": 139.8808124999996,
      "v": 110
    },
    {
      "midi": 40,
      "hit": false,
      "t": 15999.984000000002,
      "d": 139.8808124999996,
      "v": 110
    },
    {
      "midi": 40,
      "hit": false,
      "t": 15999.984000000002,
      "d": 139.8808124999996,
      "v": 110
    },
    {
      "midi": 36,
      "hit": false,
      "t": 16142.840999999997,
      "d": 139.8808124999996,
      "v": 92
    },
    {
      "midi": 28,
      "hit": false,
      "t": 16142.840999999997,
      "d": 139.8808124999996,
      "v": 45
    },
    {
      "midi": 28,
      "hit": false,
      "t": 16142.840999999999,
      "d": 139.8808124999996,
      "v": 110
    },
    {
      "midi": 40,
      "hit": false,
      "t": 16142.841000000002,
      "d": 139.8808124999996,
      "v": 110
    },
    {
      "midi": 40,
      "hit": false,
      "t": 16142.841000000002,
      "d": 139.8808124999996,
      "v": 110
    },
    {
      "midi": 40,
      "hit": false,
      "t": 16142.841000000002,
      "d": 139.8808124999996,
      "v": 110
    },
    {
      "midi": 36,
      "hit": false,
      "t": 16285.697999999997,
      "d": 139.8808124999996,
      "v": 92
    },
    {
      "midi": 28,
      "hit": false,
      "t": 16285.697999999997,
      "d": 139.8808124999996,
      "v": 45
    },
    {
      "midi": 38,
      "hit": false,
      "t": 16285.697999999999,
      "d": 380.9519999999993,
      "v": 110
    },
    {
      "midi": 57,
      "hit": false,
      "t": 16285.697999999999,
      "d": 380.9519999999993,
      "v": 127
    },
    {
      "midi": 78,
      "hit": false,
      "t": 16285.698,
      "d": 380.95200000000114,
      "v": 110
    },
    {
      "midi": 81,
      "hit": false,
      "t": 16285.698,
      "d": 380.95200000000114,
      "v": 110
    },
    {
      "midi": 86,
      "hit": false,
      "t": 16285.698,
      "d": 380.95200000000114,
      "v": 110
    },
    {
      "midi": 78,
      "hit": false,
      "t": 16285.698,
      "d": 380.95200000000114,
      "v": 110
    },
    {
      "midi": 81,
      "hit": false,
      "t": 16285.698,
      "d": 380.95200000000114,
      "v": 110
    },
    {
      "midi": 86,
      "hit": false,
      "t": 16285.698,
      "d": 380.95200000000114,
      "v": 110
    },
    {
      "midi": 50,
      "hit": false,
      "t": 16285.698000000002,
      "d": 428.57100000000173,
      "v": 110
    },
    {
      "midi": 57,
      "hit": false,
      "t": 16285.698000000002,
      "d": 428.57100000000173,
      "v": 110
    },
    {
      "midi": 62,
      "hit": false,
      "t": 16285.698000000002,
      "d": 428.57100000000173,
      "v": 110
    },
    {
      "midi": 50,
      "hit": false,
      "t": 16285.698000000002,
      "d": 428.57100000000173,
      "v": 110
    },
    {
      "midi": 57,
      "hit": false,
      "t": 16285.698000000002,
      "d": 428.57100000000173,
      "v": 110
    },
    {
      "midi": 62,
      "hit": false,
      "t": 16285.698000000002,
      "d": 428.57100000000173,
      "v": 110
    },
    {
      "midi": 36,
      "hit": false,
      "t": 16428.554999999997,
      "d": 139.8808124999996,
      "v": 92
    },
    {
      "midi": 28,
      "hit": false,
      "t": 16428.554999999997,
      "d": 139.8808124999996,
      "v": 45
    },
    {
      "midi": 36,
      "hit": false,
      "t": 16571.411999999997,
      "d": 139.8808124999996,
      "v": 92
    },
    {
      "midi": 28,
      "hit": false,
      "t": 16571.411999999997,
      "d": 139.8808124999996,
      "v": 45
    },
    {
      "midi": 33,
      "hit": false,
      "t": 16714.268999999997,
      "d": 380.95200000000114,
      "v": 110
    },
    {
      "midi": 40,
      "hit": false,
      "t": 16714.268999999997,
      "d": 380.95200000000114,
      "v": 127
    },
    {
      "midi": 49,
      "hit": false,
      "t": 16714.268999999997,
      "d": 380.95200000000114,
      "v": 127
    },
    {
      "midi": 36,
      "hit": false,
      "t": 16714.268999999997,
      "d": 139.8808124999996,
      "v": 92
    },
    {
      "midi": 28,
      "hit": false,
      "t": 16714.268999999997,
      "d": 139.8808124999996,
      "v": 45
    },
    {
      "midi": 73,
      "hit": false,
      "t": 16714.269,
      "d": 380.95200000000114,
      "v": 110
    },
    {
      "midi": 76,
      "hit": false,
      "t": 16714.269,
      "d": 380.95200000000114,
      "v": 110
    },
    {
      "midi": 81,
      "hit": false,
      "t": 16714.269,
      "d": 380.95200000000114,
      "v": 110
    },
    {
      "midi": 73,
      "hit": false,
      "t": 16714.269,
      "d": 380.95200000000114,
      "v": 110
    },
    {
      "midi": 76,
      "hit": false,
      "t": 16714.269,
      "d": 380.95200000000114,
      "v": 110
    },
    {
      "midi": 81,
      "hit": false,
      "t": 16714.269,
      "d": 380.95200000000114,
      "v": 110
    },
    {
      "midi": 45,
      "hit": false,
      "t": 16714.269000000004,
      "d": 380.95200000000114,
      "v": 110
    },
    {
      "midi": 52,
      "hit": false,
      "t": 16714.269000000004,
      "d": 380.95200000000114,
      "v": 110
    },
    {
      "midi": 57,
      "hit": false,
      "t": 16714.269000000004,
      "d": 380.95200000000114,
      "v": 110
    },
    {
      "midi": 45,
      "hit": false,
      "t": 16714.269000000004,
      "d": 380.95200000000114,
      "v": 110
    },
    {
      "midi": 52,
      "hit": false,
      "t": 16714.269000000004,
      "d": 380.95200000000114,
      "v": 110
    },
    {
      "midi": 57,
      "hit": false,
      "t": 16714.269000000004,
      "d": 380.95200000000114,
      "v": 110
    },
    {
      "midi": 36,
      "hit": false,
      "t": 16857.125999999997,
      "d": 139.8808124999996,
      "v": 92
    },
    {
      "midi": 28,
      "hit": false,
      "t": 16857.125999999997,
      "d": 139.8808124999996,
      "v": 45
    },
    {
      "midi": 36,
      "hit": false,
      "t": 16999.982999999997,
      "d": 139.8808124999996,
      "v": 92
    },
    {
      "midi": 28,
      "hit": false,
      "t": 16999.982999999997,
      "d": 139.8808124999996,
      "v": 45
    },
    {
      "midi": 28,
      "hit": false,
      "t": 17142.839999999997,
      "d": 139.8808124999996,
      "v": 110
    },
    {
      "midi": 57,
      "hit": false,
      "t": 17142.839999999997,
      "d": 380.95200000000114,
      "v": 127
    },
    {
      "midi": 36,
      "hit": false,
      "t": 17142.839999999997,
      "d": 139.8808124999996,
      "v": 92
    },
    {
      "midi": 28,
      "hit": false,
      "t": 17142.839999999997,
      "d": 139.8808124999996,
      "v": 45
    },
    {
      "midi": 40,
      "hit": false,
      "t": 17142.84,
      "d": 139.8808124999996,
      "v": 110
    },
    {
      "midi": 40,
      "hit": false,
      "t": 17142.840000000004,
      "d": 139.8808124999996,
      "v": 110
    },
    {
      "midi": 40,
      "hit": false,
      "t": 17142.840000000004,
      "d": 139.8808124999996,
      "v": 110
    },
    {
      "midi": 28,
      "hit": false,
      "t": 17285.696999999996,
      "d": 139.8808124999996,
      "v": 110
    },
    {
      "midi": 36,
      "hit": false,
      "t": 17285.696999999996,
      "d": 139.8808124999996,
      "v": 92
    },
    {
      "midi": 28,
      "hit": false,
      "t": 17285.696999999996,
      "d": 139.8808124999996,
      "v": 45
    },
    {
      "midi": 40,
      "hit": false,
      "t": 17285.697,
      "d": 139.8808124999996,
      "v": 110
    },
    {
      "midi": 40,
      "hit": false,
      "t": 17285.697000000004,
      "d": 139.8808124999996,
      "v": 110
    },
    {
      "midi": 40,
      "hit": false,
      "t": 17285.697000000004,
      "d": 139.8808124999996,
      "v": 110
    },
    {
      "midi": 28,
      "hit": false,
      "t": 17428.553999999996,
      "d": 139.8808124999996,
      "v": 110
    },
    {
      "midi": 36,
      "hit": false,
      "t": 17428.553999999996,
      "d": 139.8808124999996,
      "v": 92
    },
    {
      "midi": 28,
      "hit": false,
      "t": 17428.553999999996,
      "d": 139.8808124999996,
      "v": 45
    },
    {
      "midi": 40,
      "hit": false,
      "t": 17428.554,
      "d": 139.8808124999996,
      "v": 110
    },
    {
      "midi": 40,
      "hit": false,
      "t": 17428.554000000004,
      "d": 139.8808124999996,
      "v": 110
    },
    {
      "midi": 40,
      "hit": false,
      "t": 17428.554000000004,
      "d": 139.8808124999996,
      "v": 110
    },
    {
      "midi": 30,
      "hit": false,
      "t": 17571.410999999996,
      "d": 139.8808124999996,
      "v": 110
    },
    {
      "midi": 40,
      "hit": false,
      "t": 17571.410999999996,
      "d": 380.95200000000114,
      "v": 127
    },
    {
      "midi": 46,
      "hit": false,
      "t": 17571.410999999996,
      "d": 380.95200000000114,
      "v": 127
    },
    {
      "midi": 36,
      "hit": false,
      "t": 17571.410999999996,
      "d": 139.8808124999996,
      "v": 92
    },
    {
      "midi": 28,
      "hit": false,
      "t": 17571.410999999996,
      "d": 139.8808124999996,
      "v": 45
    },
    {
      "midi": 42,
      "hit": false,
      "t": 17571.411,
      "d": 139.8808124999996,
      "v": 110
    },
    {
      "midi": 42,
      "hit": false,
      "t": 17571.411000000004,
      "d": 139.8808124999996,
      "v": 110
    },
    {
      "midi": 42,
      "hit": false,
      "t": 17571.411000000004,
      "d": 139.8808124999996,
      "v": 110
    },
    {
      "midi": 28,
      "hit": false,
      "t": 17714.267999999996,
      "d": 139.8808124999996,
      "v": 110
    },
    {
      "midi": 36,
      "hit": false,
      "t": 17714.267999999996,
      "d": 139.8808124999996,
      "v": 92
    },
    {
      "midi": 28,
      "hit": false,
      "t": 17714.267999999996,
      "d": 139.8808124999996,
      "v": 45
    },
    {
      "midi": 40,
      "hit": false,
      "t": 17714.268,
      "d": 139.8808124999996,
      "v": 110
    },
    {
      "midi": 40,
      "hit": false,
      "t": 17714.268000000004,
      "d": 139.8808124999996,
      "v": 110
    },
    {
      "midi": 40,
      "hit": false,
      "t": 17714.268000000004,
      "d": 139.8808124999996,
      "v": 110
    },
    {
      "midi": 28,
      "hit": false,
      "t": 17857.124999999996,
      "d": 139.8808124999996,
      "v": 110
    },
    {
      "midi": 36,
      "hit": false,
      "t": 17857.124999999996,
      "d": 139.8808124999996,
      "v": 92
    },
    {
      "midi": 28,
      "hit": false,
      "t": 17857.124999999996,
      "d": 139.8808124999996,
      "v": 45
    },
    {
      "midi": 40,
      "hit": false,
      "t": 17857.125,
      "d": 139.8808124999996,
      "v": 110
    },
    {
      "midi": 40,
      "hit": false,
      "t": 17857.125000000004,
      "d": 139.8808124999996,
      "v": 110
    },
    {
      "midi": 40,
      "hit": false,
      "t": 17857.125000000004,
      "d": 139.8808124999996,
      "v": 110
    },
    {
      "midi": 35,
      "hit": false,
      "t": 17999.981999999996,
      "d": 139.8808124999996,
      "v": 110
    },
    {
      "midi": 46,
      "hit": false,
      "t": 17999.981999999996,
      "d": 380.95200000000114,
      "v": 127
    },
    {
      "midi": 36,
      "hit": false,
      "t": 17999.981999999996,
      "d": 139.8808124999996,
      "v": 92
    },
    {
      "midi": 28,
      "hit": false,
      "t": 17999.981999999996,
      "d": 139.8808124999996,
      "v": 45
    },
    {
      "midi": 45,
      "hit": false,
      "t": 17999.982,
      "d": 32.738062500000524,
      "v": 110
    },
    {
      "midi": 45,
      "hit": false,
      "t": 17999.982000000004,
      "d": 32.738062500000524,
      "v": 110
    },
    {
      "midi": 45,
      "hit": false,
      "t": 17999.982000000004,
      "d": 32.738062500000524,
      "v": 110
    },
    {
      "midi": 47,
      "hit": false,
      "t": 18035.69625,
      "d": 104.16656249999869,
      "v": 110
    },
    {
      "midi": 47,
      "hit": false,
      "t": 18035.696250000005,
      "d": 104.16656249999869,
      "v": 110
    },
    {
      "midi": 47,
      "hit": false,
      "t": 18035.696250000005,
      "d": 104.16656249999869,
      "v": 110
    },
    {
      "midi": 33,
      "hit": false,
      "t": 18142.838999999996,
      "d": 139.8808124999996,
      "v": 110
    },
    {
      "midi": 36,
      "hit": false,
      "t": 18142.838999999996,
      "d": 139.8808124999996,
      "v": 92
    },
    {
      "midi": 28,
      "hit": false,
      "t": 18142.838999999996,
      "d": 139.8808124999996,
      "v": 45
    },
    {
      "midi": 45,
      "hit": false,
      "t": 18142.839,
      "d": 139.8808124999996,
      "v": 110
    },
    {
      "midi": 45,
      "hit": false,
      "t": 18142.839000000004,
      "d": 139.8808124999996,
      "v": 110
    },
    {
      "midi": 45,
      "hit": false,
      "t": 18142.839000000004,
      "d": 139.8808124999996,
      "v": 110
    },
    {
      "midi": 31,
      "hit": false,
      "t": 18285.695999999996,
      "d": 139.8808124999996,
      "v": 110
    },
    {
      "midi": 36,
      "hit": false,
      "t": 18285.695999999996,
      "d": 139.8808124999996,
      "v": 92
    },
    {
      "midi": 28,
      "hit": false,
      "t": 18285.695999999996,
      "d": 139.8808124999996,
      "v": 45
    },
    {
      "midi": 43,
      "hit": false,
      "t": 18285.696,
      "d": 139.8808124999996,
      "v": 110
    },
    {
      "midi": 43,
      "hit": false,
      "t": 18285.696000000004,
      "d": 139.8808124999996,
      "v": 110
    },
    {
      "midi": 43,
      "hit": false,
      "t": 18285.696000000004,
      "d": 139.8808124999996,
      "v": 110
    },
    {
      "midi": 33,
      "hit": false,
      "t": 18428.552999999996,
      "d": 139.8808124999996,
      "v": 110
    },
    {
      "midi": 40,
      "hit": false,
      "t": 18428.552999999996,
      "d": 139.8808124999996,
      "v": 127
    },
    {
      "midi": 36,
      "hit": false,
      "t": 18428.552999999996,
      "d": 139.8808124999996,
      "v": 92
    },
    {
      "midi": 28,
      "hit": false,
      "t": 18428.552999999996,
      "d": 139.8808124999996,
      "v": 45
    },
    {
      "midi": 45,
      "hit": false,
      "t": 18428.553,
      "d": 139.8808124999996,
      "v": 110
    },
    {
      "midi": 45,
      "hit": false,
      "t": 18428.553000000004,
      "d": 139.8808124999996,
      "v": 110
    },
    {
      "midi": 45,
      "hit": false,
      "t": 18428.553000000004,
      "d": 139.8808124999996,
      "v": 110
    },
    {
      "midi": 31,
      "hit": false,
      "t": 18571.409999999996,
      "d": 139.8808124999996,
      "v": 110
    },
    {
      "midi": 40,
      "hit": false,
      "t": 18571.409999999996,
      "d": 139.8808124999996,
      "v": 127
    },
    {
      "midi": 36,
      "hit": false,
      "t": 18571.409999999996,
      "d": 139.8808124999996,
      "v": 92
    },
    {
      "midi": 28,
      "hit": false,
      "t": 18571.409999999996,
      "d": 139.8808124999996,
      "v": 45
    },
    {
      "midi": 43,
      "hit": false,
      "t": 18571.41,
      "d": 139.8808124999996,
      "v": 110
    },
    {
      "midi": 43,
      "hit": false,
      "t": 18571.410000000003,
      "d": 139.8808124999996,
      "v": 110
    },
    {
      "midi": 43,
      "hit": false,
      "t": 18571.410000000003,
      "d": 139.8808124999996,
      "v": 110
    },
    {
      "midi": 30,
      "hit": false,
      "t": 18714.266999999996,
      "d": 139.8808124999996,
      "v": 110
    },
    {
      "midi": 40,
      "hit": false,
      "t": 18714.266999999996,
      "d": 139.8808124999996,
      "v": 127
    },
    {
      "midi": 36,
      "hit": false,
      "t": 18714.266999999996,
      "d": 139.8808124999996,
      "v": 92
    },
    {
      "midi": 28,
      "hit": false,
      "t": 18714.266999999996,
      "d": 139.8808124999996,
      "v": 45
    },
    {
      "midi": 42,
      "hit": false,
      "t": 18714.267,
      "d": 139.8808124999996,
      "v": 110
    },
    {
      "midi": 42,
      "hit": false,
      "t": 18714.267000000003,
      "d": 139.8808124999996,
      "v": 110
    },
    {
      "midi": 42,
      "hit": false,
      "t": 18714.267000000003,
      "d": 139.8808124999996,
      "v": 110
    },
    {
      "midi": 28,
      "hit": false,
      "t": 18857.123999999996,
      "d": 47.61899999999878,
      "v": 110
    },
    {
      "midi": 41,
      "hit": false,
      "t": 18857.123999999996,
      "d": 139.8808124999996,
      "v": 127
    },
    {
      "midi": 46,
      "hit": false,
      "t": 18857.123999999996,
      "d": 139.8808124999996,
      "v": 127
    },
    {
      "midi": 36,
      "hit": false,
      "t": 18857.123999999996,
      "d": 139.8808124999996,
      "v": 92
    },
    {
      "midi": 28,
      "hit": false,
      "t": 18857.123999999996,
      "d": 139.8808124999996,
      "v": 45
    },
    {
      "midi": 36,
      "hit": false,
      "t": 18999.980999999996,
      "d": 238.09500000000116,
      "v": 110
    },
    {
      "midi": 40,
      "hit": false,
      "t": 18999.980999999996,
      "d": 238.09500000000116,
      "v": 127
    },
    {
      "midi": 57,
      "hit": false,
      "t": 18999.980999999996,
      "d": 238.09500000000116,
      "v": 127
    },
    {
      "midi": 36,
      "hit": false,
      "t": 18999.980999999996,
      "d": 139.8808124999996,
      "v": 92
    },
    {
      "midi": 28,
      "hit": false,
      "t": 18999.980999999996,
      "d": 139.8808124999996,
      "v": 45
    },
    {
      "midi": 76,
      "hit": false,
      "t": 18999.981,
      "d": 238.09500000000116,
      "v": 110
    },
    {
      "midi": 79,
      "hit": false,
      "t": 18999.981,
      "d": 238.09500000000116,
      "v": 110
    },
    {
      "midi": 84,
      "hit": false,
      "t": 18999.981,
      "d": 238.09500000000116,
      "v": 110
    },
    {
      "midi": 76,
      "hit": false,
      "t": 18999.981,
      "d": 238.09500000000116,
      "v": 110
    },
    {
      "midi": 79,
      "hit": false,
      "t": 18999.981,
      "d": 238.09500000000116,
      "v": 110
    },
    {
      "midi": 84,
      "hit": false,
      "t": 18999.981,
      "d": 238.09500000000116,
      "v": 110
    },
    {
      "midi": 48,
      "hit": false,
      "t": 18999.981000000003,
      "d": 238.09500000000116,
      "v": 110
    },
    {
      "midi": 55,
      "hit": false,
      "t": 18999.981000000003,
      "d": 238.09500000000116,
      "v": 110
    },
    {
      "midi": 60,
      "hit": false,
      "t": 18999.981000000003,
      "d": 238.09500000000116,
      "v": 110
    },
    {
      "midi": 48,
      "hit": false,
      "t": 18999.981000000003,
      "d": 238.09500000000116,
      "v": 110
    },
    {
      "midi": 55,
      "hit": false,
      "t": 18999.981000000003,
      "d": 238.09500000000116,
      "v": 110
    },
    {
      "midi": 60,
      "hit": false,
      "t": 18999.981000000003,
      "d": 238.09500000000116,
      "v": 110
    },
    {
      "midi": 36,
      "hit": false,
      "t": 19142.837999999996,
      "d": 139.8808124999996,
      "v": 92
    },
    {
      "midi": 28,
      "hit": false,
      "t": 19142.837999999996,
      "d": 139.8808124999996,
      "v": 45
    },
    {
      "midi": 36,
      "hit": false,
      "t": 19285.694999999996,
      "d": 285.71399999999994,
      "v": 110
    },
    {
      "midi": 40,
      "hit": false,
      "t": 19285.694999999996,
      "d": 238.09500000000116,
      "v": 127
    },
    {
      "midi": 57,
      "hit": false,
      "t": 19285.694999999996,
      "d": 238.09500000000116,
      "v": 127
    },
    {
      "midi": 36,
      "hit": false,
      "t": 19285.694999999996,
      "d": 139.8808124999996,
      "v": 92
    },
    {
      "midi": 28,
      "hit": false,
      "t": 19285.694999999996,
      "d": 139.8808124999996,
      "v": 45
    },
    {
      "midi": 76,
      "hit": false,
      "t": 19285.695,
      "d": 380.95200000000114,
      "v": 110
    },
    {
      "midi": 79,
      "hit": false,
      "t": 19285.695,
      "d": 380.95200000000114,
      "v": 110
    },
    {
      "midi": 84,
      "hit": false,
      "t": 19285.695,
      "d": 380.95200000000114,
      "v": 110
    },
    {
      "midi": 76,
      "hit": false,
      "t": 19285.695,
      "d": 380.95200000000114,
      "v": 110
    },
    {
      "midi": 79,
      "hit": false,
      "t": 19285.695,
      "d": 380.95200000000114,
      "v": 110
    },
    {
      "midi": 84,
      "hit": false,
      "t": 19285.695,
      "d": 380.95200000000114,
      "v": 110
    },
    {
      "midi": 48,
      "hit": false,
      "t": 19285.695000000003,
      "d": 428.5709999999999,
      "v": 110
    },
    {
      "midi": 55,
      "hit": false,
      "t": 19285.695000000003,
      "d": 428.5709999999999,
      "v": 110
    },
    {
      "midi": 60,
      "hit": false,
      "t": 19285.695000000003,
      "d": 428.5709999999999,
      "v": 110
    },
    {
      "midi": 48,
      "hit": false,
      "t": 19285.695000000003,
      "d": 428.5709999999999,
      "v": 110
    },
    {
      "midi": 55,
      "hit": false,
      "t": 19285.695000000003,
      "d": 428.5709999999999,
      "v": 110
    },
    {
      "midi": 60,
      "hit": false,
      "t": 19285.695000000003,
      "d": 428.5709999999999,
      "v": 110
    },
    {
      "midi": 36,
      "hit": false,
      "t": 19428.551999999996,
      "d": 139.8808124999996,
      "v": 92
    },
    {
      "midi": 28,
      "hit": false,
      "t": 19428.551999999996,
      "d": 139.8808124999996,
      "v": 45
    },
    {
      "midi": 26,
      "hit": false,
      "t": 19571.408999999996,
      "d": 47.61899999999878,
      "v": 110
    },
    {
      "midi": 40,
      "hit": false,
      "t": 19571.408999999996,
      "d": 68.45231250000143,
      "v": 127
    },
    {
      "midi": 36,
      "hit": false,
      "t": 19571.408999999996,
      "d": 139.8808124999996,
      "v": 92
    },
    {
      "midi": 28,
      "hit": false,
      "t": 19571.408999999996,
      "d": 139.8808124999996,
      "v": 45
    },
    {
      "midi": 40,
      "hit": false,
      "t": 19642.837499999998,
      "d": 68.45231250000143,
      "v": 127
    },
    {
      "midi": 28,
      "hit": false,
      "t": 19714.265999999996,
      "d": 47.61899999999878,
      "v": 110
    },
    {
      "midi": 36,
      "hit": false,
      "t": 19714.265999999996,
      "d": 139.8808124999996,
      "v": 92
    },
    {
      "midi": 28,
      "hit": false,
      "t": 19714.265999999996,
      "d": 139.8808124999996,
      "v": 45
    },
    {
      "midi": 40,
      "hit": false,
      "t": 19714.266,
      "d": 139.8808124999996,
      "v": 127
    },
    {
      "midi": 46,
      "hit": false,
      "t": 19714.266,
      "d": 139.8808124999996,
      "v": 127
    },
    {
      "midi": 35,
      "hit": false,
      "t": 19857.122999999996,
      "d": 238.09500000000116,
      "v": 110
    },
    {
      "midi": 36,
      "hit": false,
      "t": 19857.122999999996,
      "d": 139.8808124999996,
      "v": 92
    },
    {
      "midi": 28,
      "hit": false,
      "t": 19857.122999999996,
      "d": 139.8808124999996,
      "v": 45
    },
    {
      "midi": 40,
      "hit": false,
      "t": 19857.123,
      "d": 139.8808124999996,
      "v": 127
    },
    {
      "midi": 75,
      "hit": false,
      "t": 19857.123,
      "d": 238.09500000000116,
      "v": 110
    },
    {
      "midi": 78,
      "hit": false,
      "t": 19857.123,
      "d": 238.09500000000116,
      "v": 110
    },
    {
      "midi": 83,
      "hit": false,
      "t": 19857.123,
      "d": 238.09500000000116,
      "v": 110
    },
    {
      "midi": 75,
      "hit": false,
      "t": 19857.123,
      "d": 238.09500000000116,
      "v": 110
    },
    {
      "midi": 78,
      "hit": false,
      "t": 19857.123,
      "d": 238.09500000000116,
      "v": 110
    },
    {
      "midi": 83,
      "hit": false,
      "t": 19857.123,
      "d": 238.09500000000116,
      "v": 110
    },
    {
      "midi": 47,
      "hit": false,
      "t": 19857.123000000003,
      "d": 238.09500000000116,
      "v": 110
    },
    {
      "midi": 54,
      "hit": false,
      "t": 19857.123000000003,
      "d": 238.09500000000116,
      "v": 110
    },
    {
      "midi": 59,
      "hit": false,
      "t": 19857.123000000003,
      "d": 238.09500000000116,
      "v": 110
    },
    {
      "midi": 47,
      "hit": false,
      "t": 19857.123000000003,
      "d": 238.09500000000116,
      "v": 110
    },
    {
      "midi": 54,
      "hit": false,
      "t": 19857.123000000003,
      "d": 238.09500000000116,
      "v": 110
    },
    {
      "midi": 59,
      "hit": false,
      "t": 19857.123000000003,
      "d": 238.09500000000116,
      "v": 110
    },
    {
      "midi": 36,
      "hit": false,
      "t": 19999.979999999996,
      "d": 139.8808124999996,
      "v": 92
    },
    {
      "midi": 28,
      "hit": false,
      "t": 19999.979999999996,
      "d": 139.8808124999996,
      "v": 45
    },
    {
      "midi": 43,
      "hit": false,
      "t": 19999.98,
      "d": 139.8808124999996,
      "v": 127
    },
    {
      "midi": 35,
      "hit": false,
      "t": 20142.836999999996,
      "d": 428.5709999999999,
      "v": 110
    },
    {
      "midi": 36,
      "hit": false,
      "t": 20142.836999999996,
      "d": 139.8808124999996,
      "v": 92
    },
    {
      "midi": 28,
      "hit": false,
      "t": 20142.836999999996,
      "d": 139.8808124999996,
      "v": 45
    },
    {
      "midi": 40,
      "hit": false,
      "t": 20142.837,
      "d": 68.45231250000143,
      "v": 127
    },
    {
      "midi": 75,
      "hit": false,
      "t": 20142.837,
      "d": 380.95200000000114,
      "v": 110
    },
    {
      "midi": 78,
      "hit": false,
      "t": 20142.837,
      "d": 380.95200000000114,
      "v": 110
    },
    {
      "midi": 83,
      "hit": false,
      "t": 20142.837,
      "d": 380.95200000000114,
      "v": 110
    },
    {
      "midi": 75,
      "hit": false,
      "t": 20142.837,
      "d": 380.95200000000114,
      "v": 110
    },
    {
      "midi": 78,
      "hit": false,
      "t": 20142.837,
      "d": 380.95200000000114,
      "v": 110
    },
    {
      "midi": 83,
      "hit": false,
      "t": 20142.837,
      "d": 380.95200000000114,
      "v": 110
    },
    {
      "midi": 47,
      "hit": false,
      "t": 20142.837000000003,
      "d": 428.5709999999999,
      "v": 110
    },
    {
      "midi": 54,
      "hit": false,
      "t": 20142.837000000003,
      "d": 428.5709999999999,
      "v": 110
    },
    {
      "midi": 59,
      "hit": false,
      "t": 20142.837000000003,
      "d": 428.5709999999999,
      "v": 110
    },
    {
      "midi": 47,
      "hit": false,
      "t": 20142.837000000003,
      "d": 428.5709999999999,
      "v": 110
    },
    {
      "midi": 54,
      "hit": false,
      "t": 20142.837000000003,
      "d": 428.5709999999999,
      "v": 110
    },
    {
      "midi": 59,
      "hit": false,
      "t": 20142.837000000003,
      "d": 428.5709999999999,
      "v": 110
    },
    {
      "midi": 71,
      "hit": false,
      "t": 20142.837000000003,
      "d": 428.5709999999999,
      "v": 110
    },
    {
      "midi": 71,
      "hit": false,
      "t": 20142.837000000003,
      "d": 428.5709999999999,
      "v": 127
    },
    {
      "midi": 45,
      "hit": false,
      "t": 20214.2655,
      "d": 68.45231250000143,
      "v": 127
    },
    {
      "midi": 36,
      "hit": false,
      "t": 20285.693999999996,
      "d": 139.8808124999996,
      "v": 92
    },
    {
      "midi": 28,
      "hit": false,
      "t": 20285.693999999996,
      "d": 139.8808124999996,
      "v": 45
    },
    {
      "midi": 43,
      "hit": false,
      "t": 20285.694000000003,
      "d": 139.8808124999996,
      "v": 127
    },
    {
      "midi": 36,
      "hit": false,
      "t": 20428.550999999996,
      "d": 139.8808124999996,
      "v": 92
    },
    {
      "midi": 28,
      "hit": false,
      "t": 20428.550999999996,
      "d": 139.8808124999996,
      "v": 45
    },
    {
      "midi": 41,
      "hit": false,
      "t": 20428.551000000003,
      "d": 139.8808124999996,
      "v": 127
    },
    {
      "midi": 28,
      "hit": false,
      "t": 20571.407999999996,
      "d": 285.71399999999994,
      "v": 110
    },
    {
      "midi": 36,
      "hit": false,
      "t": 20571.407999999996,
      "d": 139.8808124999996,
      "v": 92
    },
    {
      "midi": 28,
      "hit": false,
      "t": 20571.407999999996,
      "d": 139.8808124999996,
      "v": 45
    },
    {
      "midi": 40,
      "hit": false,
      "t": 20571.408,
      "d": 238.09500000000116,
      "v": 84
    },
    {
      "midi": 47,
      "hit": false,
      "t": 20571.408,
      "d": 238.09500000000116,
      "v": 84
    },
    {
      "midi": 52,
      "hit": false,
      "t": 20571.408,
      "d": 238.09500000000116,
      "v": 84
    },
    {
      "midi": 55,
      "hit": false,
      "t": 20571.408,
      "d": 1714.2839999999997,
      "v": 30
    },
    {
      "midi": 59,
      "hit": false,
      "t": 20571.408,
      "d": 1714.2839999999997,
      "v": 30
    },
    {
      "midi": 64,
      "hit": false,
      "t": 20571.408,
      "d": 1714.2839999999997,
      "v": 30
    },
    {
      "midi": 40,
      "hit": false,
      "t": 20571.408000000003,
      "d": 428.5709999999999,
      "v": 105
    },
    {
      "midi": 47,
      "hit": false,
      "t": 20571.408000000003,
      "d": 428.5709999999999,
      "v": 105
    },
    {
      "midi": 52,
      "hit": false,
      "t": 20571.408000000003,
      "d": 428.5709999999999,
      "v": 105
    },
    {
      "midi": 59,
      "hit": false,
      "t": 20571.408000000003,
      "d": 428.5709999999999,
      "v": 105
    },
    {
      "midi": 64,
      "hit": false,
      "t": 20571.408000000003,
      "d": 428.5709999999999,
      "v": 105
    },
    {
      "midi": 52,
      "hit": false,
      "t": 20571.408000000003,
      "d": 428.5709999999999,
      "v": 75
    },
    {
      "midi": 59,
      "hit": false,
      "t": 20571.408000000003,
      "d": 428.5709999999999,
      "v": 75
    },
    {
      "midi": 64,
      "hit": false,
      "t": 20571.408000000003,
      "d": 428.5709999999999,
      "v": 75
    },
    {
      "midi": 57,
      "hit": false,
      "t": 20571.408000000003,
      "d": 380.95200000000114,
      "v": 127
    },
    {
      "midi": 76,
      "hit": false,
      "t": 20571.408000000003,
      "d": 785.7135000000017,
      "v": 110
    },
    {
      "midi": 76,
      "hit": false,
      "t": 20571.408000000003,
      "d": 785.7135000000017,
      "v": 127
    },
    {
      "midi": 36,
      "hit": false,
      "t": 20714.264999999996,
      "d": 139.8808124999996,
      "v": 92
    },
    {
      "midi": 28,
      "hit": false,
      "t": 20714.264999999996,
      "d": 139.8808124999996,
      "v": 45
    },
    {
      "midi": 28,
      "hit": false,
      "t": 20857.121999999996,
      "d": 142.85699999999997,
      "v": 110
    },
    {
      "midi": 36,
      "hit": false,
      "t": 20857.121999999996,
      "d": 139.8808124999996,
      "v": 92
    },
    {
      "midi": 28,
      "hit": false,
      "t": 20857.121999999996,
      "d": 139.8808124999996,
      "v": 45
    },
    {
      "midi": 40,
      "hit": false,
      "t": 20857.122,
      "d": 139.8808124999996,
      "v": 60
    },
    {
      "midi": 28,
      "hit": false,
      "t": 20999.978999999996,
      "d": 142.85699999999997,
      "v": 110
    },
    {
      "midi": 36,
      "hit": false,
      "t": 20999.978999999996,
      "d": 139.8808124999996,
      "v": 92
    },
    {
      "midi": 28,
      "hit": false,
      "t": 20999.978999999996,
      "d": 139.8808124999996,
      "v": 45
    },
    {
      "midi": 40,
      "hit": false,
      "t": 20999.979,
      "d": 139.8808124999996,
      "v": 60
    },
    {
      "midi": 47,
      "hit": false,
      "t": 20999.979,
      "d": 139.8808124999996,
      "v": 60
    },
    {
      "midi": 52,
      "hit": false,
      "t": 20999.979,
      "d": 139.8808124999996,
      "v": 60
    },
    {
      "midi": 40,
      "hit": false,
      "t": 20999.979000000003,
      "d": 380.95200000000114,
      "v": 127
    },
    {
      "midi": 46,
      "hit": false,
      "t": 20999.979000000003,
      "d": 380.95200000000114,
      "v": 127
    },
    {
      "midi": 28,
      "hit": false,
      "t": 21142.835999999996,
      "d": 142.85699999999997,
      "v": 110
    },
    {
      "midi": 36,
      "hit": false,
      "t": 21142.835999999996,
      "d": 139.8808124999996,
      "v": 92
    },
    {
      "midi": 28,
      "hit": false,
      "t": 21142.835999999996,
      "d": 139.8808124999996,
      "v": 45
    },
    {
      "midi": 40,
      "hit": false,
      "t": 21142.836,
      "d": 139.8808124999996,
      "v": 60
    },
    {
      "midi": 47,
      "hit": false,
      "t": 21142.836,
      "d": 139.8808124999996,
      "v": 60
    },
    {
      "midi": 52,
      "hit": false,
      "t": 21142.836,
      "d": 139.8808124999996,
      "v": 60
    },
    {
      "midi": 40,
      "hit": false,
      "t": 21142.836000000003,
      "d": 47.61899999999878,
      "v": 75
    },
    {
      "midi": 47,
      "hit": false,
      "t": 21142.836000000003,
      "d": 47.61899999999878,
      "v": 75
    },
    {
      "midi": 52,
      "hit": false,
      "t": 21142.836000000003,
      "d": 47.61899999999878,
      "v": 75
    },
    {
      "midi": 59,
      "hit": false,
      "t": 21142.836000000003,
      "d": 47.61899999999878,
      "v": 75
    },
    {
      "midi": 64,
      "hit": false,
      "t": 21142.836000000003,
      "d": 47.61899999999878,
      "v": 75
    },
    {
      "midi": 52,
      "hit": false,
      "t": 21142.836000000003,
      "d": 139.8808124999996,
      "v": 75
    },
    {
      "midi": 59,
      "hit": false,
      "t": 21142.836000000003,
      "d": 139.8808124999996,
      "v": 75
    },
    {
      "midi": 64,
      "hit": false,
      "t": 21142.836000000003,
      "d": 139.8808124999996,
      "v": 75
    },
    {
      "midi": 28,
      "hit": false,
      "t": 21285.692999999996,
      "d": 142.85699999999997,
      "v": 110
    },
    {
      "midi": 36,
      "hit": false,
      "t": 21285.692999999996,
      "d": 139.8808124999996,
      "v": 92
    },
    {
      "midi": 28,
      "hit": false,
      "t": 21285.692999999996,
      "d": 139.8808124999996,
      "v": 45
    },
    {
      "midi": 40,
      "hit": false,
      "t": 21285.693,
      "d": 139.8808124999996,
      "v": 60
    },
    {
      "midi": 47,
      "hit": false,
      "t": 21285.693,
      "d": 139.8808124999996,
      "v": 60
    },
    {
      "midi": 52,
      "hit": false,
      "t": 21285.693,
      "d": 139.8808124999996,
      "v": 60
    },
    {
      "midi": 40,
      "hit": false,
      "t": 21285.693000000003,
      "d": 47.61899999999878,
      "v": 75
    },
    {
      "midi": 47,
      "hit": false,
      "t": 21285.693000000003,
      "d": 47.61899999999878,
      "v": 75
    },
    {
      "midi": 52,
      "hit": false,
      "t": 21285.693000000003,
      "d": 47.61899999999878,
      "v": 75
    },
    {
      "midi": 59,
      "hit": false,
      "t": 21285.693000000003,
      "d": 47.61899999999878,
      "v": 75
    },
    {
      "midi": 64,
      "hit": false,
      "t": 21285.693000000003,
      "d": 47.61899999999878,
      "v": 75
    },
    {
      "midi": 52,
      "hit": false,
      "t": 21285.693000000003,
      "d": 139.8808124999996,
      "v": 75
    },
    {
      "midi": 59,
      "hit": false,
      "t": 21285.693000000003,
      "d": 139.8808124999996,
      "v": 75
    },
    {
      "midi": 64,
      "hit": false,
      "t": 21285.693000000003,
      "d": 139.8808124999996,
      "v": 75
    },
    {
      "midi": 28,
      "hit": false,
      "t": 21428.549999999996,
      "d": 285.71399999999994,
      "v": 110
    },
    {
      "midi": 36,
      "hit": false,
      "t": 21428.549999999996,
      "d": 139.8808124999996,
      "v": 92
    },
    {
      "midi": 28,
      "hit": false,
      "t": 21428.549999999996,
      "d": 139.8808124999996,
      "v": 45
    },
    {
      "midi": 40,
      "hit": false,
      "t": 21428.55,
      "d": 238.09500000000116,
      "v": 84
    },
    {
      "midi": 47,
      "hit": false,
      "t": 21428.55,
      "d": 238.09500000000116,
      "v": 84
    },
    {
      "midi": 52,
      "hit": false,
      "t": 21428.55,
      "d": 238.09500000000116,
      "v": 84
    },
    {
      "midi": 40,
      "hit": false,
      "t": 21428.550000000003,
      "d": 428.5709999999999,
      "v": 105
    },
    {
      "midi": 47,
      "hit": false,
      "t": 21428.550000000003,
      "d": 428.5709999999999,
      "v": 105
    },
    {
      "midi": 52,
      "hit": false,
      "t": 21428.550000000003,
      "d": 428.5709999999999,
      "v": 105
    },
    {
      "midi": 59,
      "hit": false,
      "t": 21428.550000000003,
      "d": 428.5709999999999,
      "v": 105
    },
    {
      "midi": 64,
      "hit": false,
      "t": 21428.550000000003,
      "d": 428.5709999999999,
      "v": 105
    },
    {
      "midi": 52,
      "hit": false,
      "t": 21428.550000000003,
      "d": 428.5709999999999,
      "v": 75
    },
    {
      "midi": 59,
      "hit": false,
      "t": 21428.550000000003,
      "d": 428.5709999999999,
      "v": 75
    },
    {
      "midi": 64,
      "hit": false,
      "t": 21428.550000000003,
      "d": 428.5709999999999,
      "v": 75
    },
    {
      "midi": 46,
      "hit": false,
      "t": 21428.550000000003,
      "d": 380.95200000000114,
      "v": 127
    },
    {
      "midi": 76,
      "hit": false,
      "t": 21428.550000000007,
      "d": 285.71399999999994,
      "v": 110
    },
    {
      "midi": 76,
      "hit": false,
      "t": 21428.550000000007,
      "d": 285.71399999999994,
      "v": 127
    },
    {
      "midi": 36,
      "hit": false,
      "t": 21571.406999999996,
      "d": 139.8808124999996,
      "v": 92
    },
    {
      "midi": 28,
      "hit": false,
      "t": 21571.406999999996,
      "d": 139.8808124999996,
      "v": 45
    },
    {
      "midi": 28,
      "hit": false,
      "t": 21714.263999999996,
      "d": 142.85699999999997,
      "v": 110
    },
    {
      "midi": 36,
      "hit": false,
      "t": 21714.263999999996,
      "d": 139.8808124999996,
      "v": 92
    },
    {
      "midi": 28,
      "hit": false,
      "t": 21714.263999999996,
      "d": 139.8808124999996,
      "v": 45
    },
    {
      "midi": 40,
      "hit": false,
      "t": 21714.264,
      "d": 139.8808124999996,
      "v": 60
    },
    {
      "midi": 78,
      "hit": false,
      "t": 21714.264000000006,
      "d": 285.71399999999994,
      "v": 110
    },
    {
      "midi": 78,
      "hit": false,
      "t": 21714.264000000006,
      "d": 285.71399999999994,
      "v": 127
    },
    {
      "midi": 28,
      "hit": false,
      "t": 21857.120999999996,
      "d": 142.85699999999997,
      "v": 110
    },
    {
      "midi": 36,
      "hit": false,
      "t": 21857.120999999996,
      "d": 139.8808124999996,
      "v": 92
    },
    {
      "midi": 28,
      "hit": false,
      "t": 21857.120999999996,
      "d": 139.8808124999996,
      "v": 45
    },
    {
      "midi": 40,
      "hit": false,
      "t": 21857.121,
      "d": 139.8808124999996,
      "v": 60
    },
    {
      "midi": 47,
      "hit": false,
      "t": 21857.121,
      "d": 139.8808124999996,
      "v": 60
    },
    {
      "midi": 52,
      "hit": false,
      "t": 21857.121,
      "d": 139.8808124999996,
      "v": 60
    },
    {
      "midi": 40,
      "hit": false,
      "t": 21857.121000000003,
      "d": 380.95200000000114,
      "v": 127
    },
    {
      "midi": 46,
      "hit": false,
      "t": 21857.121000000003,
      "d": 380.95200000000114,
      "v": 127
    },
    {
      "midi": 28,
      "hit": false,
      "t": 21999.977999999996,
      "d": 142.85699999999997,
      "v": 110
    },
    {
      "midi": 36,
      "hit": false,
      "t": 21999.977999999996,
      "d": 139.8808124999996,
      "v": 92
    },
    {
      "midi": 28,
      "hit": false,
      "t": 21999.977999999996,
      "d": 139.8808124999996,
      "v": 45
    },
    {
      "midi": 40,
      "hit": false,
      "t": 21999.978,
      "d": 139.8808124999996,
      "v": 60
    },
    {
      "midi": 47,
      "hit": false,
      "t": 21999.978,
      "d": 139.8808124999996,
      "v": 60
    },
    {
      "midi": 52,
      "hit": false,
      "t": 21999.978,
      "d": 139.8808124999996,
      "v": 60
    },
    {
      "midi": 40,
      "hit": false,
      "t": 21999.978000000003,
      "d": 47.61899999999878,
      "v": 75
    },
    {
      "midi": 47,
      "hit": false,
      "t": 21999.978000000003,
      "d": 47.61899999999878,
      "v": 75
    },
    {
      "midi": 52,
      "hit": false,
      "t": 21999.978000000003,
      "d": 47.61899999999878,
      "v": 75
    },
    {
      "midi": 59,
      "hit": false,
      "t": 21999.978000000003,
      "d": 47.61899999999878,
      "v": 75
    },
    {
      "midi": 64,
      "hit": false,
      "t": 21999.978000000003,
      "d": 47.61899999999878,
      "v": 75
    },
    {
      "midi": 52,
      "hit": false,
      "t": 21999.978000000003,
      "d": 139.8808124999996,
      "v": 75
    },
    {
      "midi": 59,
      "hit": false,
      "t": 21999.978000000003,
      "d": 139.8808124999996,
      "v": 75
    },
    {
      "midi": 64,
      "hit": false,
      "t": 21999.978000000003,
      "d": 139.8808124999996,
      "v": 75
    },
    {
      "midi": 79,
      "hit": false,
      "t": 21999.978000000006,
      "d": 285.71399999999994,
      "v": 110
    },
    {
      "midi": 79,
      "hit": false,
      "t": 21999.978000000006,
      "d": 285.71399999999994,
      "v": 127
    },
    {
      "midi": 28,
      "hit": false,
      "t": 22142.834999999995,
      "d": 142.85699999999997,
      "v": 110
    },
    {
      "midi": 36,
      "hit": false,
      "t": 22142.834999999995,
      "d": 139.8808124999996,
      "v": 92
    },
    {
      "midi": 28,
      "hit": false,
      "t": 22142.834999999995,
      "d": 139.8808124999996,
      "v": 45
    },
    {
      "midi": 40,
      "hit": false,
      "t": 22142.835,
      "d": 139.8808124999996,
      "v": 60
    },
    {
      "midi": 47,
      "hit": false,
      "t": 22142.835,
      "d": 139.8808124999996,
      "v": 60
    },
    {
      "midi": 52,
      "hit": false,
      "t": 22142.835,
      "d": 139.8808124999996,
      "v": 60
    },
    {
      "midi": 40,
      "hit": false,
      "t": 22142.835000000003,
      "d": 47.61899999999878,
      "v": 75
    },
    {
      "midi": 47,
      "hit": false,
      "t": 22142.835000000003,
      "d": 47.61899999999878,
      "v": 75
    },
    {
      "midi": 52,
      "hit": false,
      "t": 22142.835000000003,
      "d": 47.61899999999878,
      "v": 75
    },
    {
      "midi": 59,
      "hit": false,
      "t": 22142.835000000003,
      "d": 47.61899999999878,
      "v": 75
    },
    {
      "midi": 64,
      "hit": false,
      "t": 22142.835000000003,
      "d": 47.61899999999878,
      "v": 75
    },
    {
      "midi": 52,
      "hit": false,
      "t": 22142.835000000003,
      "d": 139.8808124999996,
      "v": 75
    },
    {
      "midi": 59,
      "hit": false,
      "t": 22142.835000000003,
      "d": 139.8808124999996,
      "v": 75
    },
    {
      "midi": 64,
      "hit": false,
      "t": 22142.835000000003,
      "d": 139.8808124999996,
      "v": 75
    },
    {
      "midi": 26,
      "hit": false,
      "t": 22285.691999999995,
      "d": 285.71399999999994,
      "v": 110
    },
    {
      "midi": 36,
      "hit": false,
      "t": 22285.691999999995,
      "d": 139.8808124999996,
      "v": 92
    },
    {
      "midi": 28,
      "hit": false,
      "t": 22285.691999999995,
      "d": 139.8808124999996,
      "v": 45
    },
    {
      "midi": 38,
      "hit": false,
      "t": 22285.692,
      "d": 238.09500000000116,
      "v": 84
    },
    {
      "midi": 45,
      "hit": false,
      "t": 22285.692,
      "d": 238.09500000000116,
      "v": 84
    },
    {
      "midi": 50,
      "hit": false,
      "t": 22285.692,
      "d": 238.09500000000116,
      "v": 84
    },
    {
      "midi": 54,
      "hit": false,
      "t": 22285.692,
      "d": 1714.2839999999997,
      "v": 30
    },
    {
      "midi": 57,
      "hit": false,
      "t": 22285.692,
      "d": 1714.2839999999997,
      "v": 30
    },
    {
      "midi": 62,
      "hit": false,
      "t": 22285.692,
      "d": 1714.2839999999997,
      "v": 30
    },
    {
      "midi": 38,
      "hit": false,
      "t": 22285.692000000003,
      "d": 428.5709999999999,
      "v": 105
    },
    {
      "midi": 45,
      "hit": false,
      "t": 22285.692000000003,
      "d": 428.5709999999999,
      "v": 105
    },
    {
      "midi": 50,
      "hit": false,
      "t": 22285.692000000003,
      "d": 428.5709999999999,
      "v": 105
    },
    {
      "midi": 57,
      "hit": false,
      "t": 22285.692000000003,
      "d": 428.5709999999999,
      "v": 105
    },
    {
      "midi": 62,
      "hit": false,
      "t": 22285.692000000003,
      "d": 428.5709999999999,
      "v": 105
    },
    {
      "midi": 50,
      "hit": false,
      "t": 22285.692000000003,
      "d": 428.5709999999999,
      "v": 75
    },
    {
      "midi": 57,
      "hit": false,
      "t": 22285.692000000003,
      "d": 428.5709999999999,
      "v": 75
    },
    {
      "midi": 62,
      "hit": false,
      "t": 22285.692000000003,
      "d": 428.5709999999999,
      "v": 75
    },
    {
      "midi": 46,
      "hit": false,
      "t": 22285.692000000003,
      "d": 380.95200000000114,
      "v": 127
    },
    {
      "midi": 78,
      "hit": false,
      "t": 22285.692000000006,
      "d": 857.1419999999998,
      "v": 110
    },
    {
      "midi": 78,
      "hit": false,
      "t": 22285.692000000006,
      "d": 857.1419999999998,
      "v": 127
    },
    {
      "midi": 36,
      "hit": false,
      "t": 22428.548999999995,
      "d": 139.8808124999996,
      "v": 92
    },
    {
      "midi": 28,
      "hit": false,
      "t": 22428.548999999995,
      "d": 139.8808124999996,
      "v": 45
    },
    {
      "midi": 26,
      "hit": false,
      "t": 22571.405999999995,
      "d": 142.85699999999997,
      "v": 110
    },
    {
      "midi": 36,
      "hit": false,
      "t": 22571.405999999995,
      "d": 139.8808124999996,
      "v": 92
    },
    {
      "midi": 28,
      "hit": false,
      "t": 22571.405999999995,
      "d": 139.8808124999996,
      "v": 45
    },
    {
      "midi": 38,
      "hit": false,
      "t": 22571.406,
      "d": 139.8808124999996,
      "v": 60
    },
    {
      "midi": 26,
      "hit": false,
      "t": 22714.262999999995,
      "d": 142.85699999999997,
      "v": 110
    },
    {
      "midi": 36,
      "hit": false,
      "t": 22714.262999999995,
      "d": 139.8808124999996,
      "v": 92
    },
    {
      "midi": 28,
      "hit": false,
      "t": 22714.262999999995,
      "d": 139.8808124999996,
      "v": 45
    },
    {
      "midi": 38,
      "hit": false,
      "t": 22714.263,
      "d": 139.8808124999996,
      "v": 60
    },
    {
      "midi": 45,
      "hit": false,
      "t": 22714.263,
      "d": 139.8808124999996,
      "v": 60
    },
    {
      "midi": 50,
      "hit": false,
      "t": 22714.263,
      "d": 139.8808124999996,
      "v": 60
    },
    {
      "midi": 40,
      "hit": false,
      "t": 22714.263000000003,
      "d": 380.95200000000114,
      "v": 127
    },
    {
      "midi": 46,
      "hit": false,
      "t": 22714.263000000003,
      "d": 380.95200000000114,
      "v": 127
    },
    {
      "midi": 26,
      "hit": false,
      "t": 22857.119999999995,
      "d": 142.85699999999997,
      "v": 110
    },
    {
      "midi": 36,
      "hit": false,
      "t": 22857.119999999995,
      "d": 139.8808124999996,
      "v": 92
    },
    {
      "midi": 28,
      "hit": false,
      "t": 22857.119999999995,
      "d": 139.8808124999996,
      "v": 45
    },
    {
      "midi": 38,
      "hit": false,
      "t": 22857.12,
      "d": 139.8808124999996,
      "v": 60
    },
    {
      "midi": 45,
      "hit": false,
      "t": 22857.12,
      "d": 139.8808124999996,
      "v": 60
    },
    {
      "midi": 50,
      "hit": false,
      "t": 22857.12,
      "d": 139.8808124999996,
      "v": 60
    },
    {
      "midi": 38,
      "hit": false,
      "t": 22857.120000000003,
      "d": 47.61899999999878,
      "v": 75
    },
    {
      "midi": 45,
      "hit": false,
      "t": 22857.120000000003,
      "d": 47.61899999999878,
      "v": 75
    },
    {
      "midi": 50,
      "hit": false,
      "t": 22857.120000000003,
      "d": 47.61899999999878,
      "v": 75
    },
    {
      "midi": 57,
      "hit": false,
      "t": 22857.120000000003,
      "d": 47.61899999999878,
      "v": 75
    },
    {
      "midi": 62,
      "hit": false,
      "t": 22857.120000000003,
      "d": 47.61899999999878,
      "v": 75
    },
    {
      "midi": 50,
      "hit": false,
      "t": 22857.120000000003,
      "d": 139.8808124999996,
      "v": 75
    },
    {
      "midi": 57,
      "hit": false,
      "t": 22857.120000000003,
      "d": 139.8808124999996,
      "v": 75
    },
    {
      "midi": 62,
      "hit": false,
      "t": 22857.120000000003,
      "d": 139.8808124999996,
      "v": 75
    },
    {
      "midi": 26,
      "hit": false,
      "t": 22999.976999999995,
      "d": 142.85699999999997,
      "v": 110
    },
    {
      "midi": 36,
      "hit": false,
      "t": 22999.976999999995,
      "d": 139.8808124999996,
      "v": 92
    },
    {
      "midi": 28,
      "hit": false,
      "t": 22999.976999999995,
      "d": 139.8808124999996,
      "v": 45
    },
    {
      "midi": 38,
      "hit": false,
      "t": 22999.977,
      "d": 139.8808124999996,
      "v": 60
    },
    {
      "midi": 45,
      "hit": false,
      "t": 22999.977,
      "d": 139.8808124999996,
      "v": 60
    },
    {
      "midi": 50,
      "hit": false,
      "t": 22999.977,
      "d": 139.8808124999996,
      "v": 60
    },
    {
      "midi": 38,
      "hit": false,
      "t": 22999.977000000003,
      "d": 47.61899999999878,
      "v": 75
    },
    {
      "midi": 45,
      "hit": false,
      "t": 22999.977000000003,
      "d": 47.61899999999878,
      "v": 75
    },
    {
      "midi": 50,
      "hit": false,
      "t": 22999.977000000003,
      "d": 47.61899999999878,
      "v": 75
    },
    {
      "midi": 57,
      "hit": false,
      "t": 22999.977000000003,
      "d": 47.61899999999878,
      "v": 75
    },
    {
      "midi": 62,
      "hit": false,
      "t": 22999.977000000003,
      "d": 47.61899999999878,
      "v": 75
    },
    {
      "midi": 50,
      "hit": false,
      "t": 22999.977000000003,
      "d": 139.8808124999996,
      "v": 75
    },
    {
      "midi": 57,
      "hit": false,
      "t": 22999.977000000003,
      "d": 139.8808124999996,
      "v": 75
    },
    {
      "midi": 62,
      "hit": false,
      "t": 22999.977000000003,
      "d": 139.8808124999996,
      "v": 75
    },
    {
      "midi": 26,
      "hit": false,
      "t": 23142.833999999995,
      "d": 285.71399999999994,
      "v": 110
    },
    {
      "midi": 36,
      "hit": false,
      "t": 23142.833999999995,
      "d": 139.8808124999996,
      "v": 92
    },
    {
      "midi": 28,
      "hit": false,
      "t": 23142.833999999995,
      "d": 139.8808124999996,
      "v": 45
    },
    {
      "midi": 38,
      "hit": false,
      "t": 23142.834,
      "d": 238.09500000000116,
      "v": 84
    },
    {
      "midi": 45,
      "hit": false,
      "t": 23142.834,
      "d": 238.09500000000116,
      "v": 84
    },
    {
      "midi": 50,
      "hit": false,
      "t": 23142.834,
      "d": 238.09500000000116,
      "v": 84
    },
    {
      "midi": 38,
      "hit": false,
      "t": 23142.834000000003,
      "d": 428.5709999999999,
      "v": 105
    },
    {
      "midi": 45,
      "hit": false,
      "t": 23142.834000000003,
      "d": 428.5709999999999,
      "v": 105
    },
    {
      "midi": 50,
      "hit": false,
      "t": 23142.834000000003,
      "d": 428.5709999999999,
      "v": 105
    },
    {
      "midi": 57,
      "hit": false,
      "t": 23142.834000000003,
      "d": 428.5709999999999,
      "v": 105
    },
    {
      "midi": 62,
      "hit": false,
      "t": 23142.834000000003,
      "d": 428.5709999999999,
      "v": 105
    },
    {
      "midi": 50,
      "hit": false,
      "t": 23142.834000000003,
      "d": 428.5709999999999,
      "v": 75
    },
    {
      "midi": 57,
      "hit": false,
      "t": 23142.834000000003,
      "d": 428.5709999999999,
      "v": 75
    },
    {
      "midi": 62,
      "hit": false,
      "t": 23142.834000000003,
      "d": 428.5709999999999,
      "v": 75
    },
    {
      "midi": 46,
      "hit": false,
      "t": 23142.834000000003,
      "d": 380.95200000000114,
      "v": 127
    },
    {
      "midi": 74,
      "hit": false,
      "t": 23142.834000000006,
      "d": 785.7135000000017,
      "v": 110
    },
    {
      "midi": 74,
      "hit": false,
      "t": 23142.834000000006,
      "d": 785.7135000000017,
      "v": 127
    },
    {
      "midi": 36,
      "hit": false,
      "t": 23285.690999999995,
      "d": 139.8808124999996,
      "v": 92
    },
    {
      "midi": 28,
      "hit": false,
      "t": 23285.690999999995,
      "d": 139.8808124999996,
      "v": 45
    },
    {
      "midi": 26,
      "hit": false,
      "t": 23428.547999999995,
      "d": 142.85699999999997,
      "v": 110
    },
    {
      "midi": 36,
      "hit": false,
      "t": 23428.547999999995,
      "d": 139.8808124999996,
      "v": 92
    },
    {
      "midi": 28,
      "hit": false,
      "t": 23428.547999999995,
      "d": 139.8808124999996,
      "v": 45
    },
    {
      "midi": 38,
      "hit": false,
      "t": 23428.548,
      "d": 139.8808124999996,
      "v": 60
    },
    {
      "midi": 26,
      "hit": false,
      "t": 23571.404999999995,
      "d": 142.85699999999997,
      "v": 110
    },
    {
      "midi": 36,
      "hit": false,
      "t": 23571.404999999995,
      "d": 139.8808124999996,
      "v": 92
    },
    {
      "midi": 28,
      "hit": false,
      "t": 23571.404999999995,
      "d": 139.8808124999996,
      "v": 45
    },
    {
      "midi": 38,
      "hit": false,
      "t": 23571.405,
      "d": 139.8808124999996,
      "v": 60
    },
    {
      "midi": 45,
      "hit": false,
      "t": 23571.405,
      "d": 139.8808124999996,
      "v": 60
    },
    {
      "midi": 50,
      "hit": false,
      "t": 23571.405,
      "d": 139.8808124999996,
      "v": 60
    },
    {
      "midi": 40,
      "hit": false,
      "t": 23571.405000000002,
      "d": 380.95200000000114,
      "v": 127
    },
    {
      "midi": 46,
      "hit": false,
      "t": 23571.405000000002,
      "d": 380.95200000000114,
      "v": 127
    },
    {
      "midi": 26,
      "hit": false,
      "t": 23714.261999999995,
      "d": 142.85699999999997,
      "v": 110
    },
    {
      "midi": 36,
      "hit": false,
      "t": 23714.261999999995,
      "d": 139.8808124999996,
      "v": 92
    },
    {
      "midi": 28,
      "hit": false,
      "t": 23714.261999999995,
      "d": 139.8808124999996,
      "v": 45
    },
    {
      "midi": 38,
      "hit": false,
      "t": 23714.262,
      "d": 139.8808124999996,
      "v": 60
    },
    {
      "midi": 45,
      "hit": false,
      "t": 23714.262,
      "d": 139.8808124999996,
      "v": 60
    },
    {
      "midi": 50,
      "hit": false,
      "t": 23714.262,
      "d": 139.8808124999996,
      "v": 60
    },
    {
      "midi": 38,
      "hit": false,
      "t": 23714.262000000002,
      "d": 47.61899999999878,
      "v": 75
    },
    {
      "midi": 45,
      "hit": false,
      "t": 23714.262000000002,
      "d": 47.61899999999878,
      "v": 75
    },
    {
      "midi": 50,
      "hit": false,
      "t": 23714.262000000002,
      "d": 47.61899999999878,
      "v": 75
    },
    {
      "midi": 57,
      "hit": false,
      "t": 23714.262000000002,
      "d": 47.61899999999878,
      "v": 75
    },
    {
      "midi": 62,
      "hit": false,
      "t": 23714.262000000002,
      "d": 47.61899999999878,
      "v": 75
    },
    {
      "midi": 50,
      "hit": false,
      "t": 23714.262000000002,
      "d": 139.8808124999996,
      "v": 75
    },
    {
      "midi": 57,
      "hit": false,
      "t": 23714.262000000002,
      "d": 139.8808124999996,
      "v": 75
    },
    {
      "midi": 62,
      "hit": false,
      "t": 23714.262000000002,
      "d": 139.8808124999996,
      "v": 75
    },
    {
      "midi": 26,
      "hit": false,
      "t": 23857.118999999995,
      "d": 142.85699999999997,
      "v": 110
    },
    {
      "midi": 36,
      "hit": false,
      "t": 23857.118999999995,
      "d": 139.8808124999996,
      "v": 92
    },
    {
      "midi": 28,
      "hit": false,
      "t": 23857.118999999995,
      "d": 139.8808124999996,
      "v": 45
    },
    {
      "midi": 38,
      "hit": false,
      "t": 23857.119,
      "d": 139.8808124999996,
      "v": 60
    },
    {
      "midi": 45,
      "hit": false,
      "t": 23857.119,
      "d": 139.8808124999996,
      "v": 60
    },
    {
      "midi": 50,
      "hit": false,
      "t": 23857.119,
      "d": 139.8808124999996,
      "v": 60
    },
    {
      "midi": 38,
      "hit": false,
      "t": 23857.119000000002,
      "d": 47.61899999999878,
      "v": 75
    },
    {
      "midi": 45,
      "hit": false,
      "t": 23857.119000000002,
      "d": 47.61899999999878,
      "v": 75
    },
    {
      "midi": 50,
      "hit": false,
      "t": 23857.119000000002,
      "d": 47.61899999999878,
      "v": 75
    },
    {
      "midi": 57,
      "hit": false,
      "t": 23857.119000000002,
      "d": 47.61899999999878,
      "v": 75
    },
    {
      "midi": 62,
      "hit": false,
      "t": 23857.119000000002,
      "d": 47.61899999999878,
      "v": 75
    },
    {
      "midi": 50,
      "hit": false,
      "t": 23857.119000000002,
      "d": 139.8808124999996,
      "v": 75
    },
    {
      "midi": 57,
      "hit": false,
      "t": 23857.119000000002,
      "d": 139.8808124999996,
      "v": 75
    },
    {
      "midi": 62,
      "hit": false,
      "t": 23857.119000000002,
      "d": 139.8808124999996,
      "v": 75
    },
    {
      "midi": 28,
      "hit": false,
      "t": 23999.975999999995,
      "d": 285.71399999999994,
      "v": 110
    },
    {
      "midi": 36,
      "hit": false,
      "t": 23999.975999999995,
      "d": 139.8808124999996,
      "v": 92
    },
    {
      "midi": 28,
      "hit": false,
      "t": 23999.975999999995,
      "d": 139.8808124999996,
      "v": 45
    },
    {
      "midi": 40,
      "hit": false,
      "t": 23999.976,
      "d": 238.09500000000116,
      "v": 84
    },
    {
      "midi": 47,
      "hit": false,
      "t": 23999.976,
      "d": 238.09500000000116,
      "v": 84
    },
    {
      "midi": 52,
      "hit": false,
      "t": 23999.976,
      "d": 238.09500000000116,
      "v": 84
    },
    {
      "midi": 55,
      "hit": false,
      "t": 23999.976,
      "d": 1714.2839999999997,
      "v": 30
    },
    {
      "midi": 59,
      "hit": false,
      "t": 23999.976,
      "d": 1714.2839999999997,
      "v": 30
    },
    {
      "midi": 64,
      "hit": false,
      "t": 23999.976,
      "d": 1714.2839999999997,
      "v": 30
    },
    {
      "midi": 40,
      "hit": false,
      "t": 23999.976000000002,
      "d": 428.5709999999999,
      "v": 105
    },
    {
      "midi": 47,
      "hit": false,
      "t": 23999.976000000002,
      "d": 428.5709999999999,
      "v": 105
    },
    {
      "midi": 52,
      "hit": false,
      "t": 23999.976000000002,
      "d": 428.5709999999999,
      "v": 105
    },
    {
      "midi": 59,
      "hit": false,
      "t": 23999.976000000002,
      "d": 428.5709999999999,
      "v": 105
    },
    {
      "midi": 64,
      "hit": false,
      "t": 23999.976000000002,
      "d": 428.5709999999999,
      "v": 105
    },
    {
      "midi": 52,
      "hit": false,
      "t": 23999.976000000002,
      "d": 428.5709999999999,
      "v": 75
    },
    {
      "midi": 59,
      "hit": false,
      "t": 23999.976000000002,
      "d": 428.5709999999999,
      "v": 75
    },
    {
      "midi": 64,
      "hit": false,
      "t": 23999.976000000002,
      "d": 428.5709999999999,
      "v": 75
    },
    {
      "midi": 46,
      "hit": false,
      "t": 23999.976000000002,
      "d": 380.95200000000114,
      "v": 127
    },
    {
      "midi": 76,
      "hit": false,
      "t": 23999.97600000001,
      "d": 785.7135000000017,
      "v": 110
    },
    {
      "midi": 76,
      "hit": false,
      "t": 23999.97600000001,
      "d": 785.7135000000017,
      "v": 127
    },
    {
      "midi": 36,
      "hit": false,
      "t": 24142.832999999995,
      "d": 139.8808124999996,
      "v": 92
    },
    {
      "midi": 28,
      "hit": false,
      "t": 24142.832999999995,
      "d": 139.8808124999996,
      "v": 45
    },
    {
      "midi": 28,
      "hit": false,
      "t": 24285.689999999995,
      "d": 142.85699999999997,
      "v": 110
    },
    {
      "midi": 36,
      "hit": false,
      "t": 24285.689999999995,
      "d": 139.8808124999996,
      "v": 92
    },
    {
      "midi": 28,
      "hit": false,
      "t": 24285.689999999995,
      "d": 139.8808124999996,
      "v": 45
    },
    {
      "midi": 40,
      "hit": false,
      "t": 24285.69,
      "d": 139.8808124999996,
      "v": 60
    },
    {
      "midi": 28,
      "hit": false,
      "t": 24428.546999999995,
      "d": 142.85699999999997,
      "v": 110
    },
    {
      "midi": 36,
      "hit": false,
      "t": 24428.546999999995,
      "d": 139.8808124999996,
      "v": 92
    },
    {
      "midi": 28,
      "hit": false,
      "t": 24428.546999999995,
      "d": 139.8808124999996,
      "v": 45
    },
    {
      "midi": 40,
      "hit": false,
      "t": 24428.547,
      "d": 139.8808124999996,
      "v": 60
    },
    {
      "midi": 47,
      "hit": false,
      "t": 24428.547,
      "d": 139.8808124999996,
      "v": 60
    },
    {
      "midi": 52,
      "hit": false,
      "t": 24428.547,
      "d": 139.8808124999996,
      "v": 60
    },
    {
      "midi": 40,
      "hit": false,
      "t": 24428.547000000002,
      "d": 380.95200000000114,
      "v": 127
    },
    {
      "midi": 46,
      "hit": false,
      "t": 24428.547000000002,
      "d": 380.95200000000114,
      "v": 127
    },
    {
      "midi": 28,
      "hit": false,
      "t": 24571.403999999995,
      "d": 142.85699999999997,
      "v": 110
    },
    {
      "midi": 36,
      "hit": false,
      "t": 24571.403999999995,
      "d": 139.8808124999996,
      "v": 92
    },
    {
      "midi": 28,
      "hit": false,
      "t": 24571.403999999995,
      "d": 139.8808124999996,
      "v": 45
    },
    {
      "midi": 40,
      "hit": false,
      "t": 24571.404,
      "d": 139.8808124999996,
      "v": 60
    },
    {
      "midi": 47,
      "hit": false,
      "t": 24571.404,
      "d": 139.8808124999996,
      "v": 60
    },
    {
      "midi": 52,
      "hit": false,
      "t": 24571.404,
      "d": 139.8808124999996,
      "v": 60
    },
    {
      "midi": 40,
      "hit": false,
      "t": 24571.404000000002,
      "d": 47.61899999999878,
      "v": 75
    },
    {
      "midi": 47,
      "hit": false,
      "t": 24571.404000000002,
      "d": 47.61899999999878,
      "v": 75
    },
    {
      "midi": 52,
      "hit": false,
      "t": 24571.404000000002,
      "d": 47.61899999999878,
      "v": 75
    },
    {
      "midi": 59,
      "hit": false,
      "t": 24571.404000000002,
      "d": 47.61899999999878,
      "v": 75
    },
    {
      "midi": 64,
      "hit": false,
      "t": 24571.404000000002,
      "d": 47.61899999999878,
      "v": 75
    },
    {
      "midi": 52,
      "hit": false,
      "t": 24571.404000000002,
      "d": 139.8808124999996,
      "v": 75
    },
    {
      "midi": 59,
      "hit": false,
      "t": 24571.404000000002,
      "d": 139.8808124999996,
      "v": 75
    },
    {
      "midi": 64,
      "hit": false,
      "t": 24571.404000000002,
      "d": 139.8808124999996,
      "v": 75
    },
    {
      "midi": 28,
      "hit": false,
      "t": 24714.260999999995,
      "d": 142.85699999999997,
      "v": 110
    },
    {
      "midi": 36,
      "hit": false,
      "t": 24714.260999999995,
      "d": 139.8808124999996,
      "v": 92
    },
    {
      "midi": 28,
      "hit": false,
      "t": 24714.260999999995,
      "d": 139.8808124999996,
      "v": 45
    },
    {
      "midi": 40,
      "hit": false,
      "t": 24714.261,
      "d": 139.8808124999996,
      "v": 60
    },
    {
      "midi": 47,
      "hit": false,
      "t": 24714.261,
      "d": 139.8808124999996,
      "v": 60
    },
    {
      "midi": 52,
      "hit": false,
      "t": 24714.261,
      "d": 139.8808124999996,
      "v": 60
    },
    {
      "midi": 40,
      "hit": false,
      "t": 24714.261000000002,
      "d": 47.61899999999878,
      "v": 75
    },
    {
      "midi": 47,
      "hit": false,
      "t": 24714.261000000002,
      "d": 47.61899999999878,
      "v": 75
    },
    {
      "midi": 52,
      "hit": false,
      "t": 24714.261000000002,
      "d": 47.61899999999878,
      "v": 75
    },
    {
      "midi": 59,
      "hit": false,
      "t": 24714.261000000002,
      "d": 47.61899999999878,
      "v": 75
    },
    {
      "midi": 64,
      "hit": false,
      "t": 24714.261000000002,
      "d": 47.61899999999878,
      "v": 75
    },
    {
      "midi": 52,
      "hit": false,
      "t": 24714.261000000002,
      "d": 139.8808124999996,
      "v": 75
    },
    {
      "midi": 59,
      "hit": false,
      "t": 24714.261000000002,
      "d": 139.8808124999996,
      "v": 75
    },
    {
      "midi": 64,
      "hit": false,
      "t": 24714.261000000002,
      "d": 139.8808124999996,
      "v": 75
    },
    {
      "midi": 28,
      "hit": false,
      "t": 24857.117999999995,
      "d": 285.71399999999994,
      "v": 110
    },
    {
      "midi": 36,
      "hit": false,
      "t": 24857.117999999995,
      "d": 139.8808124999996,
      "v": 92
    },
    {
      "midi": 28,
      "hit": false,
      "t": 24857.117999999995,
      "d": 139.8808124999996,
      "v": 45
    },
    {
      "midi": 40,
      "hit": false,
      "t": 24857.118,
      "d": 238.09500000000116,
      "v": 84
    },
    {
      "midi": 47,
      "hit": false,
      "t": 24857.118,
      "d": 238.09500000000116,
      "v": 84
    },
    {
      "midi": 52,
      "hit": false,
      "t": 24857.118,
      "d": 238.09500000000116,
      "v": 84
    },
    {
      "midi": 40,
      "hit": false,
      "t": 24857.118000000002,
      "d": 428.5709999999999,
      "v": 105
    },
    {
      "midi": 47,
      "hit": false,
      "t": 24857.118000000002,
      "d": 428.5709999999999,
      "v": 105
    },
    {
      "midi": 52,
      "hit": false,
      "t": 24857.118000000002,
      "d": 428.5709999999999,
      "v": 105
    },
    {
      "midi": 59,
      "hit": false,
      "t": 24857.118000000002,
      "d": 428.5709999999999,
      "v": 105
    },
    {
      "midi": 64,
      "hit": false,
      "t": 24857.118000000002,
      "d": 428.5709999999999,
      "v": 105
    },
    {
      "midi": 52,
      "hit": false,
      "t": 24857.118000000002,
      "d": 428.5709999999999,
      "v": 75
    },
    {
      "midi": 59,
      "hit": false,
      "t": 24857.118000000002,
      "d": 428.5709999999999,
      "v": 75
    },
    {
      "midi": 64,
      "hit": false,
      "t": 24857.118000000002,
      "d": 428.5709999999999,
      "v": 75
    },
    {
      "midi": 46,
      "hit": false,
      "t": 24857.118000000002,
      "d": 380.95200000000114,
      "v": 127
    },
    {
      "midi": 76,
      "hit": false,
      "t": 24857.118000000013,
      "d": 285.71399999999994,
      "v": 110
    },
    {
      "midi": 76,
      "hit": false,
      "t": 24857.118000000013,
      "d": 285.71399999999994,
      "v": 127
    },
    {
      "midi": 36,
      "hit": false,
      "t": 24999.974999999995,
      "d": 139.8808124999996,
      "v": 92
    },
    {
      "midi": 28,
      "hit": false,
      "t": 24999.974999999995,
      "d": 139.8808124999996,
      "v": 45
    },
    {
      "midi": 28,
      "hit": false,
      "t": 25142.831999999995,
      "d": 142.85699999999997,
      "v": 110
    },
    {
      "midi": 36,
      "hit": false,
      "t": 25142.831999999995,
      "d": 139.8808124999996,
      "v": 92
    },
    {
      "midi": 28,
      "hit": false,
      "t": 25142.831999999995,
      "d": 139.8808124999996,
      "v": 45
    },
    {
      "midi": 40,
      "hit": false,
      "t": 25142.832,
      "d": 139.8808124999996,
      "v": 60
    },
    {
      "midi": 78,
      "hit": false,
      "t": 25142.832000000013,
      "d": 285.71399999999994,
      "v": 110
    },
    {
      "midi": 78,
      "hit": false,
      "t": 25142.832000000013,
      "d": 285.71399999999994,
      "v": 127
    },
    {
      "midi": 28,
      "hit": false,
      "t": 25285.688999999995,
      "d": 142.85699999999997,
      "v": 110
    },
    {
      "midi": 36,
      "hit": false,
      "t": 25285.688999999995,
      "d": 139.8808124999996,
      "v": 92
    },
    {
      "midi": 28,
      "hit": false,
      "t": 25285.688999999995,
      "d": 139.8808124999996,
      "v": 45
    },
    {
      "midi": 40,
      "hit": false,
      "t": 25285.689,
      "d": 139.8808124999996,
      "v": 60
    },
    {
      "midi": 47,
      "hit": false,
      "t": 25285.689,
      "d": 139.8808124999996,
      "v": 60
    },
    {
      "midi": 52,
      "hit": false,
      "t": 25285.689,
      "d": 139.8808124999996,
      "v": 60
    },
    {
      "midi": 40,
      "hit": false,
      "t": 25285.689000000002,
      "d": 380.95200000000114,
      "v": 127
    },
    {
      "midi": 46,
      "hit": false,
      "t": 25285.689000000002,
      "d": 380.95200000000114,
      "v": 127
    },
    {
      "midi": 28,
      "hit": false,
      "t": 25428.545999999995,
      "d": 142.85699999999997,
      "v": 110
    },
    {
      "midi": 36,
      "hit": false,
      "t": 25428.545999999995,
      "d": 139.8808124999996,
      "v": 92
    },
    {
      "midi": 28,
      "hit": false,
      "t": 25428.545999999995,
      "d": 139.8808124999996,
      "v": 45
    },
    {
      "midi": 40,
      "hit": false,
      "t": 25428.546,
      "d": 139.8808124999996,
      "v": 60
    },
    {
      "midi": 47,
      "hit": false,
      "t": 25428.546,
      "d": 139.8808124999996,
      "v": 60
    },
    {
      "midi": 52,
      "hit": false,
      "t": 25428.546,
      "d": 139.8808124999996,
      "v": 60
    },
    {
      "midi": 40,
      "hit": false,
      "t": 25428.546000000002,
      "d": 47.61899999999878,
      "v": 75
    },
    {
      "midi": 47,
      "hit": false,
      "t": 25428.546000000002,
      "d": 47.61899999999878,
      "v": 75
    },
    {
      "midi": 52,
      "hit": false,
      "t": 25428.546000000002,
      "d": 47.61899999999878,
      "v": 75
    },
    {
      "midi": 59,
      "hit": false,
      "t": 25428.546000000002,
      "d": 47.61899999999878,
      "v": 75
    },
    {
      "midi": 64,
      "hit": false,
      "t": 25428.546000000002,
      "d": 47.61899999999878,
      "v": 75
    },
    {
      "midi": 52,
      "hit": false,
      "t": 25428.546000000002,
      "d": 139.8808124999996,
      "v": 75
    },
    {
      "midi": 59,
      "hit": false,
      "t": 25428.546000000002,
      "d": 139.8808124999996,
      "v": 75
    },
    {
      "midi": 64,
      "hit": false,
      "t": 25428.546000000002,
      "d": 139.8808124999996,
      "v": 75
    },
    {
      "midi": 79,
      "hit": false,
      "t": 25428.546000000013,
      "d": 285.71399999999994,
      "v": 110
    },
    {
      "midi": 79,
      "hit": false,
      "t": 25428.546000000013,
      "d": 285.71399999999994,
      "v": 127
    },
    {
      "midi": 28,
      "hit": false,
      "t": 25571.402999999995,
      "d": 142.85699999999997,
      "v": 110
    },
    {
      "midi": 36,
      "hit": false,
      "t": 25571.402999999995,
      "d": 139.8808124999996,
      "v": 92
    },
    {
      "midi": 28,
      "hit": false,
      "t": 25571.402999999995,
      "d": 139.8808124999996,
      "v": 45
    },
    {
      "midi": 40,
      "hit": false,
      "t": 25571.403,
      "d": 139.8808124999996,
      "v": 60
    },
    {
      "midi": 47,
      "hit": false,
      "t": 25571.403,
      "d": 139.8808124999996,
      "v": 60
    },
    {
      "midi": 52,
      "hit": false,
      "t": 25571.403,
      "d": 139.8808124999996,
      "v": 60
    },
    {
      "midi": 40,
      "hit": false,
      "t": 25571.403000000002,
      "d": 47.61899999999878,
      "v": 75
    },
    {
      "midi": 47,
      "hit": false,
      "t": 25571.403000000002,
      "d": 47.61899999999878,
      "v": 75
    },
    {
      "midi": 52,
      "hit": false,
      "t": 25571.403000000002,
      "d": 47.61899999999878,
      "v": 75
    },
    {
      "midi": 59,
      "hit": false,
      "t": 25571.403000000002,
      "d": 47.61899999999878,
      "v": 75
    },
    {
      "midi": 64,
      "hit": false,
      "t": 25571.403000000002,
      "d": 47.61899999999878,
      "v": 75
    },
    {
      "midi": 52,
      "hit": false,
      "t": 25571.403000000002,
      "d": 139.8808124999996,
      "v": 75
    },
    {
      "midi": 59,
      "hit": false,
      "t": 25571.403000000002,
      "d": 139.8808124999996,
      "v": 75
    },
    {
      "midi": 64,
      "hit": false,
      "t": 25571.403000000002,
      "d": 139.8808124999996,
      "v": 75
    },
    {
      "midi": 26,
      "hit": false,
      "t": 25714.259999999995,
      "d": 285.71399999999994,
      "v": 110
    },
    {
      "midi": 36,
      "hit": false,
      "t": 25714.259999999995,
      "d": 139.8808124999996,
      "v": 92
    },
    {
      "midi": 28,
      "hit": false,
      "t": 25714.259999999995,
      "d": 139.8808124999996,
      "v": 45
    },
    {
      "midi": 38,
      "hit": false,
      "t": 25714.26,
      "d": 238.09500000000116,
      "v": 84
    },
    {
      "midi": 45,
      "hit": false,
      "t": 25714.26,
      "d": 238.09500000000116,
      "v": 84
    },
    {
      "midi": 50,
      "hit": false,
      "t": 25714.26,
      "d": 238.09500000000116,
      "v": 84
    },
    {
      "midi": 54,
      "hit": false,
      "t": 25714.26,
      "d": 1714.2839999999997,
      "v": 30
    },
    {
      "midi": 57,
      "hit": false,
      "t": 25714.26,
      "d": 1714.2839999999997,
      "v": 30
    },
    {
      "midi": 62,
      "hit": false,
      "t": 25714.26,
      "d": 1714.2839999999997,
      "v": 30
    },
    {
      "midi": 38,
      "hit": false,
      "t": 25714.260000000002,
      "d": 428.5709999999999,
      "v": 105
    },
    {
      "midi": 45,
      "hit": false,
      "t": 25714.260000000002,
      "d": 428.5709999999999,
      "v": 105
    },
    {
      "midi": 50,
      "hit": false,
      "t": 25714.260000000002,
      "d": 428.5709999999999,
      "v": 105
    },
    {
      "midi": 57,
      "hit": false,
      "t": 25714.260000000002,
      "d": 428.5709999999999,
      "v": 105
    },
    {
      "midi": 62,
      "hit": false,
      "t": 25714.260000000002,
      "d": 428.5709999999999,
      "v": 105
    },
    {
      "midi": 50,
      "hit": false,
      "t": 25714.260000000002,
      "d": 428.5709999999999,
      "v": 75
    },
    {
      "midi": 57,
      "hit": false,
      "t": 25714.260000000002,
      "d": 428.5709999999999,
      "v": 75
    },
    {
      "midi": 62,
      "hit": false,
      "t": 25714.260000000002,
      "d": 428.5709999999999,
      "v": 75
    },
    {
      "midi": 46,
      "hit": false,
      "t": 25714.260000000002,
      "d": 380.95200000000114,
      "v": 127
    },
    {
      "midi": 81,
      "hit": false,
      "t": 25714.260000000013,
      "d": 1238.094000000001,
      "v": 110
    },
    {
      "midi": 81,
      "hit": false,
      "t": 25714.260000000013,
      "d": 1238.094000000001,
      "v": 127
    },
    {
      "midi": 36,
      "hit": false,
      "t": 25857.116999999995,
      "d": 139.8808124999996,
      "v": 92
    },
    {
      "midi": 28,
      "hit": false,
      "t": 25857.116999999995,
      "d": 139.8808124999996,
      "v": 45
    },
    {
      "midi": 26,
      "hit": false,
      "t": 25999.973999999995,
      "d": 142.85699999999997,
      "v": 110
    },
    {
      "midi": 36,
      "hit": false,
      "t": 25999.973999999995,
      "d": 139.8808124999996,
      "v": 92
    },
    {
      "midi": 28,
      "hit": false,
      "t": 25999.973999999995,
      "d": 139.8808124999996,
      "v": 45
    },
    {
      "midi": 38,
      "hit": false,
      "t": 25999.974,
      "d": 139.8808124999996,
      "v": 60
    },
    {
      "midi": 26,
      "hit": false,
      "t": 26142.830999999995,
      "d": 142.85699999999997,
      "v": 110
    },
    {
      "midi": 36,
      "hit": false,
      "t": 26142.830999999995,
      "d": 139.8808124999996,
      "v": 92
    },
    {
      "midi": 28,
      "hit": false,
      "t": 26142.830999999995,
      "d": 139.8808124999996,
      "v": 45
    },
    {
      "midi": 38,
      "hit": false,
      "t": 26142.831,
      "d": 139.8808124999996,
      "v": 60
    },
    {
      "midi": 45,
      "hit": false,
      "t": 26142.831,
      "d": 139.8808124999996,
      "v": 60
    },
    {
      "midi": 50,
      "hit": false,
      "t": 26142.831,
      "d": 139.8808124999996,
      "v": 60
    },
    {
      "midi": 40,
      "hit": false,
      "t": 26142.831000000002,
      "d": 380.95200000000114,
      "v": 127
    },
    {
      "midi": 46,
      "hit": false,
      "t": 26142.831000000002,
      "d": 380.95200000000114,
      "v": 127
    },
    {
      "midi": 26,
      "hit": false,
      "t": 26285.687999999995,
      "d": 142.85699999999997,
      "v": 110
    },
    {
      "midi": 36,
      "hit": false,
      "t": 26285.687999999995,
      "d": 139.8808124999996,
      "v": 92
    },
    {
      "midi": 28,
      "hit": false,
      "t": 26285.687999999995,
      "d": 139.8808124999996,
      "v": 45
    },
    {
      "midi": 38,
      "hit": false,
      "t": 26285.688,
      "d": 139.8808124999996,
      "v": 60
    },
    {
      "midi": 45,
      "hit": false,
      "t": 26285.688,
      "d": 139.8808124999996,
      "v": 60
    },
    {
      "midi": 50,
      "hit": false,
      "t": 26285.688,
      "d": 139.8808124999996,
      "v": 60
    },
    {
      "midi": 38,
      "hit": false,
      "t": 26285.688000000002,
      "d": 47.61899999999878,
      "v": 75
    },
    {
      "midi": 45,
      "hit": false,
      "t": 26285.688000000002,
      "d": 47.61899999999878,
      "v": 75
    },
    {
      "midi": 50,
      "hit": false,
      "t": 26285.688000000002,
      "d": 47.61899999999878,
      "v": 75
    },
    {
      "midi": 57,
      "hit": false,
      "t": 26285.688000000002,
      "d": 47.61899999999878,
      "v": 75
    },
    {
      "midi": 62,
      "hit": false,
      "t": 26285.688000000002,
      "d": 47.61899999999878,
      "v": 75
    },
    {
      "midi": 50,
      "hit": false,
      "t": 26285.688000000002,
      "d": 139.8808124999996,
      "v": 75
    },
    {
      "midi": 57,
      "hit": false,
      "t": 26285.688000000002,
      "d": 139.8808124999996,
      "v": 75
    },
    {
      "midi": 62,
      "hit": false,
      "t": 26285.688000000002,
      "d": 139.8808124999996,
      "v": 75
    },
    {
      "midi": 26,
      "hit": false,
      "t": 26428.544999999995,
      "d": 142.85699999999997,
      "v": 110
    },
    {
      "midi": 36,
      "hit": false,
      "t": 26428.544999999995,
      "d": 139.8808124999996,
      "v": 92
    },
    {
      "midi": 28,
      "hit": false,
      "t": 26428.544999999995,
      "d": 139.8808124999996,
      "v": 45
    },
    {
      "midi": 38,
      "hit": false,
      "t": 26428.545,
      "d": 139.8808124999996,
      "v": 60
    },
    {
      "midi": 45,
      "hit": false,
      "t": 26428.545,
      "d": 139.8808124999996,
      "v": 60
    },
    {
      "midi": 50,
      "hit": false,
      "t": 26428.545,
      "d": 139.8808124999996,
      "v": 60
    },
    {
      "midi": 38,
      "hit": false,
      "t": 26428.545000000002,
      "d": 47.61899999999878,
      "v": 75
    },
    {
      "midi": 45,
      "hit": false,
      "t": 26428.545000000002,
      "d": 47.61899999999878,
      "v": 75
    },
    {
      "midi": 50,
      "hit": false,
      "t": 26428.545000000002,
      "d": 47.61899999999878,
      "v": 75
    },
    {
      "midi": 57,
      "hit": false,
      "t": 26428.545000000002,
      "d": 47.61899999999878,
      "v": 75
    },
    {
      "midi": 62,
      "hit": false,
      "t": 26428.545000000002,
      "d": 47.61899999999878,
      "v": 75
    },
    {
      "midi": 50,
      "hit": false,
      "t": 26428.545000000002,
      "d": 139.8808124999996,
      "v": 75
    },
    {
      "midi": 57,
      "hit": false,
      "t": 26428.545000000002,
      "d": 139.8808124999996,
      "v": 75
    },
    {
      "midi": 62,
      "hit": false,
      "t": 26428.545000000002,
      "d": 139.8808124999996,
      "v": 75
    },
    {
      "midi": 26,
      "hit": false,
      "t": 26571.401999999995,
      "d": 285.71399999999994,
      "v": 110
    },
    {
      "midi": 36,
      "hit": false,
      "t": 26571.401999999995,
      "d": 139.8808124999996,
      "v": 92
    },
    {
      "midi": 28,
      "hit": false,
      "t": 26571.401999999995,
      "d": 139.8808124999996,
      "v": 45
    },
    {
      "midi": 38,
      "hit": false,
      "t": 26571.402,
      "d": 238.09500000000116,
      "v": 84
    },
    {
      "midi": 45,
      "hit": false,
      "t": 26571.402,
      "d": 238.09500000000116,
      "v": 84
    },
    {
      "midi": 50,
      "hit": false,
      "t": 26571.402,
      "d": 238.09500000000116,
      "v": 84
    },
    {
      "midi": 38,
      "hit": false,
      "t": 26571.402000000002,
      "d": 428.5709999999999,
      "v": 105
    },
    {
      "midi": 45,
      "hit": false,
      "t": 26571.402000000002,
      "d": 428.5709999999999,
      "v": 105
    },
    {
      "midi": 50,
      "hit": false,
      "t": 26571.402000000002,
      "d": 428.5709999999999,
      "v": 105
    },
    {
      "midi": 57,
      "hit": false,
      "t": 26571.402000000002,
      "d": 428.5709999999999,
      "v": 105
    },
    {
      "midi": 62,
      "hit": false,
      "t": 26571.402000000002,
      "d": 428.5709999999999,
      "v": 105
    },
    {
      "midi": 50,
      "hit": false,
      "t": 26571.402000000002,
      "d": 428.5709999999999,
      "v": 75
    },
    {
      "midi": 57,
      "hit": false,
      "t": 26571.402000000002,
      "d": 428.5709999999999,
      "v": 75
    },
    {
      "midi": 62,
      "hit": false,
      "t": 26571.402000000002,
      "d": 428.5709999999999,
      "v": 75
    },
    {
      "midi": 46,
      "hit": false,
      "t": 26571.402000000002,
      "d": 380.95200000000114,
      "v": 127
    },
    {
      "midi": 36,
      "hit": false,
      "t": 26714.258999999995,
      "d": 139.8808124999996,
      "v": 92
    },
    {
      "midi": 28,
      "hit": false,
      "t": 26714.258999999995,
      "d": 139.8808124999996,
      "v": 45
    },
    {
      "midi": 26,
      "hit": false,
      "t": 26857.115999999995,
      "d": 142.85699999999997,
      "v": 110
    },
    {
      "midi": 36,
      "hit": false,
      "t": 26857.115999999995,
      "d": 139.8808124999996,
      "v": 92
    },
    {
      "midi": 28,
      "hit": false,
      "t": 26857.115999999995,
      "d": 139.8808124999996,
      "v": 45
    },
    {
      "midi": 38,
      "hit": false,
      "t": 26857.115999999998,
      "d": 139.8808124999996,
      "v": 60
    },
    {
      "midi": 26,
      "hit": false,
      "t": 26999.972999999994,
      "d": 142.85699999999997,
      "v": 110
    },
    {
      "midi": 36,
      "hit": false,
      "t": 26999.972999999994,
      "d": 139.8808124999996,
      "v": 92
    },
    {
      "midi": 28,
      "hit": false,
      "t": 26999.972999999994,
      "d": 139.8808124999996,
      "v": 45
    },
    {
      "midi": 38,
      "hit": false,
      "t": 26999.972999999998,
      "d": 139.8808124999996,
      "v": 60
    },
    {
      "midi": 45,
      "hit": false,
      "t": 26999.972999999998,
      "d": 139.8808124999996,
      "v": 60
    },
    {
      "midi": 50,
      "hit": false,
      "t": 26999.972999999998,
      "d": 139.8808124999996,
      "v": 60
    },
    {
      "midi": 40,
      "hit": false,
      "t": 26999.973,
      "d": 238.09500000000116,
      "v": 127
    },
    {
      "midi": 46,
      "hit": false,
      "t": 26999.973,
      "d": 238.09500000000116,
      "v": 127
    },
    {
      "midi": 26,
      "hit": false,
      "t": 27142.829999999994,
      "d": 142.85699999999997,
      "v": 110
    },
    {
      "midi": 36,
      "hit": false,
      "t": 27142.829999999994,
      "d": 139.8808124999996,
      "v": 92
    },
    {
      "midi": 28,
      "hit": false,
      "t": 27142.829999999994,
      "d": 139.8808124999996,
      "v": 45
    },
    {
      "midi": 38,
      "hit": false,
      "t": 27142.829999999998,
      "d": 139.8808124999996,
      "v": 60
    },
    {
      "midi": 45,
      "hit": false,
      "t": 27142.829999999998,
      "d": 139.8808124999996,
      "v": 60
    },
    {
      "midi": 50,
      "hit": false,
      "t": 27142.829999999998,
      "d": 139.8808124999996,
      "v": 60
    },
    {
      "midi": 38,
      "hit": false,
      "t": 27142.83,
      "d": 47.61899999999878,
      "v": 75
    },
    {
      "midi": 45,
      "hit": false,
      "t": 27142.83,
      "d": 47.61899999999878,
      "v": 75
    },
    {
      "midi": 50,
      "hit": false,
      "t": 27142.83,
      "d": 47.61899999999878,
      "v": 75
    },
    {
      "midi": 57,
      "hit": false,
      "t": 27142.83,
      "d": 47.61899999999878,
      "v": 75
    },
    {
      "midi": 62,
      "hit": false,
      "t": 27142.83,
      "d": 47.61899999999878,
      "v": 75
    },
    {
      "midi": 50,
      "hit": false,
      "t": 27142.83,
      "d": 139.8808124999996,
      "v": 75
    },
    {
      "midi": 57,
      "hit": false,
      "t": 27142.83,
      "d": 139.8808124999996,
      "v": 75
    },
    {
      "midi": 62,
      "hit": false,
      "t": 27142.83,
      "d": 139.8808124999996,
      "v": 75
    },
    {
      "midi": 26,
      "hit": false,
      "t": 27285.686999999994,
      "d": 142.85699999999997,
      "v": 110
    },
    {
      "midi": 36,
      "hit": false,
      "t": 27285.686999999994,
      "d": 139.8808124999996,
      "v": 92
    },
    {
      "midi": 28,
      "hit": false,
      "t": 27285.686999999994,
      "d": 139.8808124999996,
      "v": 45
    },
    {
      "midi": 38,
      "hit": false,
      "t": 27285.686999999998,
      "d": 139.8808124999996,
      "v": 60
    },
    {
      "midi": 45,
      "hit": false,
      "t": 27285.686999999998,
      "d": 139.8808124999996,
      "v": 60
    },
    {
      "midi": 50,
      "hit": false,
      "t": 27285.686999999998,
      "d": 139.8808124999996,
      "v": 60
    },
    {
      "midi": 38,
      "hit": false,
      "t": 27285.687,
      "d": 47.61899999999878,
      "v": 75
    },
    {
      "midi": 45,
      "hit": false,
      "t": 27285.687,
      "d": 47.61899999999878,
      "v": 75
    },
    {
      "midi": 50,
      "hit": false,
      "t": 27285.687,
      "d": 47.61899999999878,
      "v": 75
    },
    {
      "midi": 57,
      "hit": false,
      "t": 27285.687,
      "d": 47.61899999999878,
      "v": 75
    },
    {
      "midi": 62,
      "hit": false,
      "t": 27285.687,
      "d": 47.61899999999878,
      "v": 75
    },
    {
      "midi": 50,
      "hit": false,
      "t": 27285.687,
      "d": 139.8808124999996,
      "v": 75
    },
    {
      "midi": 57,
      "hit": false,
      "t": 27285.687,
      "d": 139.8808124999996,
      "v": 75
    },
    {
      "midi": 62,
      "hit": false,
      "t": 27285.687,
      "d": 139.8808124999996,
      "v": 75
    },
    {
      "midi": 49,
      "hit": false,
      "t": 27285.687,
      "d": 139.8808124999996,
      "v": 127
    },
    {
      "midi": 36,
      "hit": false,
      "t": 27428.543999999994,
      "d": 285.71399999999994,
      "v": 110
    },
    {
      "midi": 36,
      "hit": false,
      "t": 27428.543999999994,
      "d": 139.8808124999996,
      "v": 92
    },
    {
      "midi": 28,
      "hit": false,
      "t": 27428.543999999994,
      "d": 139.8808124999996,
      "v": 45
    },
    {
      "midi": 48,
      "hit": false,
      "t": 27428.543999999998,
      "d": 380.95200000000114,
      "v": 84
    },
    {
      "midi": 55,
      "hit": false,
      "t": 27428.543999999998,
      "d": 380.95200000000114,
      "v": 84
    },
    {
      "midi": 60,
      "hit": false,
      "t": 27428.543999999998,
      "d": 380.95200000000114,
      "v": 84
    },
    {
      "midi": 55,
      "hit": false,
      "t": 27428.543999999998,
      "d": 1714.2839999999997,
      "v": 30
    },
    {
      "midi": 60,
      "hit": false,
      "t": 27428.543999999998,
      "d": 1714.2839999999997,
      "v": 30
    },
    {
      "midi": 64,
      "hit": false,
      "t": 27428.543999999998,
      "d": 1714.2839999999997,
      "v": 30
    },
    {
      "midi": 48,
      "hit": false,
      "t": 27428.544,
      "d": 428.5709999999999,
      "v": 105
    },
    {
      "midi": 55,
      "hit": false,
      "t": 27428.544,
      "d": 428.5709999999999,
      "v": 105
    },
    {
      "midi": 60,
      "hit": false,
      "t": 27428.544,
      "d": 428.5709999999999,
      "v": 105
    },
    {
      "midi": 48,
      "hit": false,
      "t": 27428.544,
      "d": 380.95200000000114,
      "v": 75
    },
    {
      "midi": 55,
      "hit": false,
      "t": 27428.544,
      "d": 380.95200000000114,
      "v": 75
    },
    {
      "midi": 60,
      "hit": false,
      "t": 27428.544,
      "d": 380.95200000000114,
      "v": 75
    },
    {
      "midi": 57,
      "hit": false,
      "t": 27428.544,
      "d": 380.95200000000114,
      "v": 127
    },
    {
      "midi": 84,
      "hit": false,
      "t": 27428.544000000013,
      "d": 785.7135000000017,
      "v": 110
    },
    {
      "midi": 84,
      "hit": false,
      "t": 27428.544000000013,
      "d": 785.7135000000017,
      "v": 127
    },
    {
      "midi": 36,
      "hit": false,
      "t": 27571.400999999994,
      "d": 139.8808124999996,
      "v": 92
    },
    {
      "midi": 28,
      "hit": false,
      "t": 27571.400999999994,
      "d": 139.8808124999996,
      "v": 45
    },
    {
      "midi": 36,
      "hit": false,
      "t": 27714.257999999994,
      "d": 142.85699999999997,
      "v": 110
    },
    {
      "midi": 36,
      "hit": false,
      "t": 27714.257999999994,
      "d": 139.8808124999996,
      "v": 92
    },
    {
      "midi": 28,
      "hit": false,
      "t": 27714.257999999994,
      "d": 139.8808124999996,
      "v": 45
    },
    {
      "midi": 36,
      "hit": false,
      "t": 27857.114999999994,
      "d": 142.85699999999997,
      "v": 110
    },
    {
      "midi": 36,
      "hit": false,
      "t": 27857.114999999994,
      "d": 139.8808124999996,
      "v": 92
    },
    {
      "midi": 28,
      "hit": false,
      "t": 27857.114999999994,
      "d": 139.8808124999996,
      "v": 45
    },
    {
      "midi": 48,
      "hit": false,
      "t": 27857.114999999998,
      "d": 139.8808124999996,
      "v": 60
    },
    {
      "midi": 55,
      "hit": false,
      "t": 27857.114999999998,
      "d": 139.8808124999996,
      "v": 60
    },
    {
      "midi": 60,
      "hit": false,
      "t": 27857.114999999998,
      "d": 139.8808124999996,
      "v": 60
    },
    {
      "midi": 40,
      "hit": false,
      "t": 27857.115,
      "d": 380.95200000000114,
      "v": 127
    },
    {
      "midi": 46,
      "hit": false,
      "t": 27857.115,
      "d": 380.95200000000114,
      "v": 127
    },
    {
      "midi": 36,
      "hit": false,
      "t": 27999.971999999994,
      "d": 142.85699999999997,
      "v": 110
    },
    {
      "midi": 36,
      "hit": false,
      "t": 27999.971999999994,
      "d": 139.8808124999996,
      "v": 92
    },
    {
      "midi": 28,
      "hit": false,
      "t": 27999.971999999994,
      "d": 139.8808124999996,
      "v": 45
    },
    {
      "midi": 48,
      "hit": false,
      "t": 27999.971999999998,
      "d": 139.8808124999996,
      "v": 60
    },
    {
      "midi": 55,
      "hit": false,
      "t": 27999.971999999998,
      "d": 139.8808124999996,
      "v": 60
    },
    {
      "midi": 60,
      "hit": false,
      "t": 27999.971999999998,
      "d": 139.8808124999996,
      "v": 60
    },
    {
      "midi": 48,
      "hit": false,
      "t": 27999.972,
      "d": 47.61899999999878,
      "v": 75
    },
    {
      "midi": 55,
      "hit": false,
      "t": 27999.972,
      "d": 47.61899999999878,
      "v": 75
    },
    {
      "midi": 60,
      "hit": false,
      "t": 27999.972,
      "d": 47.61899999999878,
      "v": 75
    },
    {
      "midi": 48,
      "hit": false,
      "t": 27999.972,
      "d": 139.8808124999996,
      "v": 75
    },
    {
      "midi": 55,
      "hit": false,
      "t": 27999.972,
      "d": 139.8808124999996,
      "v": 75
    },
    {
      "midi": 60,
      "hit": false,
      "t": 27999.972,
      "d": 139.8808124999996,
      "v": 75
    },
    {
      "midi": 36,
      "hit": false,
      "t": 28142.828999999994,
      "d": 142.85699999999997,
      "v": 110
    },
    {
      "midi": 36,
      "hit": false,
      "t": 28142.828999999994,
      "d": 139.8808124999996,
      "v": 92
    },
    {
      "midi": 28,
      "hit": false,
      "t": 28142.828999999994,
      "d": 139.8808124999996,
      "v": 45
    },
    {
      "midi": 48,
      "hit": false,
      "t": 28142.828999999998,
      "d": 139.8808124999996,
      "v": 60
    },
    {
      "midi": 55,
      "hit": false,
      "t": 28142.828999999998,
      "d": 139.8808124999996,
      "v": 60
    },
    {
      "midi": 60,
      "hit": false,
      "t": 28142.828999999998,
      "d": 139.8808124999996,
      "v": 60
    },
    {
      "midi": 48,
      "hit": false,
      "t": 28142.829,
      "d": 47.61899999999878,
      "v": 75
    },
    {
      "midi": 55,
      "hit": false,
      "t": 28142.829,
      "d": 47.61899999999878,
      "v": 75
    },
    {
      "midi": 60,
      "hit": false,
      "t": 28142.829,
      "d": 47.61899999999878,
      "v": 75
    },
    {
      "midi": 48,
      "hit": false,
      "t": 28142.829,
      "d": 139.8808124999996,
      "v": 75
    },
    {
      "midi": 55,
      "hit": false,
      "t": 28142.829,
      "d": 139.8808124999996,
      "v": 75
    },
    {
      "midi": 60,
      "hit": false,
      "t": 28142.829,
      "d": 139.8808124999996,
      "v": 75
    },
    {
      "midi": 36,
      "hit": false,
      "t": 28285.685999999994,
      "d": 285.71399999999994,
      "v": 110
    },
    {
      "midi": 36,
      "hit": false,
      "t": 28285.685999999994,
      "d": 139.8808124999996,
      "v": 92
    },
    {
      "midi": 28,
      "hit": false,
      "t": 28285.685999999994,
      "d": 139.8808124999996,
      "v": 45
    },
    {
      "midi": 48,
      "hit": false,
      "t": 28285.685999999998,
      "d": 380.95200000000114,
      "v": 84
    },
    {
      "midi": 55,
      "hit": false,
      "t": 28285.685999999998,
      "d": 380.95200000000114,
      "v": 84
    },
    {
      "midi": 60,
      "hit": false,
      "t": 28285.685999999998,
      "d": 380.95200000000114,
      "v": 84
    },
    {
      "midi": 48,
      "hit": false,
      "t": 28285.686,
      "d": 428.5709999999999,
      "v": 105
    },
    {
      "midi": 55,
      "hit": false,
      "t": 28285.686,
      "d": 428.5709999999999,
      "v": 105
    },
    {
      "midi": 60,
      "hit": false,
      "t": 28285.686,
      "d": 428.5709999999999,
      "v": 105
    },
    {
      "midi": 48,
      "hit": false,
      "t": 28285.686,
      "d": 380.95200000000114,
      "v": 75
    },
    {
      "midi": 55,
      "hit": false,
      "t": 28285.686,
      "d": 380.95200000000114,
      "v": 75
    },
    {
      "midi": 60,
      "hit": false,
      "t": 28285.686,
      "d": 380.95200000000114,
      "v": 75
    },
    {
      "midi": 46,
      "hit": false,
      "t": 28285.686,
      "d": 380.95200000000114,
      "v": 127
    },
    {
      "midi": 84,
      "hit": false,
      "t": 28285.686000000016,
      "d": 285.71399999999994,
      "v": 110
    },
    {
      "midi": 84,
      "hit": false,
      "t": 28285.686000000016,
      "d": 285.71399999999994,
      "v": 127
    },
    {
      "midi": 36,
      "hit": false,
      "t": 28428.542999999994,
      "d": 139.8808124999996,
      "v": 92
    },
    {
      "midi": 28,
      "hit": false,
      "t": 28428.542999999994,
      "d": 139.8808124999996,
      "v": 45
    },
    {
      "midi": 36,
      "hit": false,
      "t": 28571.399999999994,
      "d": 142.85699999999997,
      "v": 110
    },
    {
      "midi": 36,
      "hit": false,
      "t": 28571.399999999994,
      "d": 139.8808124999996,
      "v": 92
    },
    {
      "midi": 28,
      "hit": false,
      "t": 28571.399999999994,
      "d": 139.8808124999996,
      "v": 45
    },
    {
      "midi": 86,
      "hit": false,
      "t": 28571.400000000016,
      "d": 285.71399999999994,
      "v": 110
    },
    {
      "midi": 86,
      "hit": false,
      "t": 28571.400000000016,
      "d": 285.71399999999994,
      "v": 127
    },
    {
      "midi": 36,
      "hit": false,
      "t": 28714.256999999994,
      "d": 142.85699999999997,
      "v": 110
    },
    {
      "midi": 36,
      "hit": false,
      "t": 28714.256999999994,
      "d": 139.8808124999996,
      "v": 92
    },
    {
      "midi": 28,
      "hit": false,
      "t": 28714.256999999994,
      "d": 139.8808124999996,
      "v": 45
    },
    {
      "midi": 48,
      "hit": false,
      "t": 28714.256999999998,
      "d": 139.8808124999996,
      "v": 60
    },
    {
      "midi": 55,
      "hit": false,
      "t": 28714.256999999998,
      "d": 139.8808124999996,
      "v": 60
    },
    {
      "midi": 60,
      "hit": false,
      "t": 28714.256999999998,
      "d": 139.8808124999996,
      "v": 60
    },
    {
      "midi": 40,
      "hit": false,
      "t": 28714.257,
      "d": 380.95200000000114,
      "v": 127
    },
    {
      "midi": 46,
      "hit": false,
      "t": 28714.257,
      "d": 380.95200000000114,
      "v": 127
    },
    {
      "midi": 36,
      "hit": false,
      "t": 28857.113999999994,
      "d": 142.85699999999997,
      "v": 110
    },
    {
      "midi": 36,
      "hit": false,
      "t": 28857.113999999994,
      "d": 139.8808124999996,
      "v": 92
    },
    {
      "midi": 28,
      "hit": false,
      "t": 28857.113999999994,
      "d": 139.8808124999996,
      "v": 45
    },
    {
      "midi": 48,
      "hit": false,
      "t": 28857.113999999998,
      "d": 139.8808124999996,
      "v": 60
    },
    {
      "midi": 55,
      "hit": false,
      "t": 28857.113999999998,
      "d": 139.8808124999996,
      "v": 60
    },
    {
      "midi": 60,
      "hit": false,
      "t": 28857.113999999998,
      "d": 139.8808124999996,
      "v": 60
    },
    {
      "midi": 48,
      "hit": false,
      "t": 28857.114,
      "d": 47.61899999999878,
      "v": 75
    },
    {
      "midi": 55,
      "hit": false,
      "t": 28857.114,
      "d": 47.61899999999878,
      "v": 75
    },
    {
      "midi": 60,
      "hit": false,
      "t": 28857.114,
      "d": 47.61899999999878,
      "v": 75
    },
    {
      "midi": 48,
      "hit": false,
      "t": 28857.114,
      "d": 139.8808124999996,
      "v": 75
    },
    {
      "midi": 55,
      "hit": false,
      "t": 28857.114,
      "d": 139.8808124999996,
      "v": 75
    },
    {
      "midi": 60,
      "hit": false,
      "t": 28857.114,
      "d": 139.8808124999996,
      "v": 75
    },
    {
      "midi": 84,
      "hit": false,
      "t": 28857.114000000016,
      "d": 285.71399999999994,
      "v": 110
    },
    {
      "midi": 84,
      "hit": false,
      "t": 28857.114000000016,
      "d": 285.71399999999994,
      "v": 127
    },
    {
      "midi": 36,
      "hit": false,
      "t": 28999.970999999994,
      "d": 142.85699999999997,
      "v": 110
    },
    {
      "midi": 36,
      "hit": false,
      "t": 28999.970999999994,
      "d": 139.8808124999996,
      "v": 92
    },
    {
      "midi": 28,
      "hit": false,
      "t": 28999.970999999994,
      "d": 139.8808124999996,
      "v": 45
    },
    {
      "midi": 48,
      "hit": false,
      "t": 28999.970999999998,
      "d": 139.8808124999996,
      "v": 60
    },
    {
      "midi": 55,
      "hit": false,
      "t": 28999.970999999998,
      "d": 139.8808124999996,
      "v": 60
    },
    {
      "midi": 60,
      "hit": false,
      "t": 28999.970999999998,
      "d": 139.8808124999996,
      "v": 60
    },
    {
      "midi": 48,
      "hit": false,
      "t": 28999.971,
      "d": 47.61899999999878,
      "v": 75
    },
    {
      "midi": 55,
      "hit": false,
      "t": 28999.971,
      "d": 47.61899999999878,
      "v": 75
    },
    {
      "midi": 60,
      "hit": false,
      "t": 28999.971,
      "d": 47.61899999999878,
      "v": 75
    },
    {
      "midi": 48,
      "hit": false,
      "t": 28999.971,
      "d": 139.8808124999996,
      "v": 75
    },
    {
      "midi": 55,
      "hit": false,
      "t": 28999.971,
      "d": 139.8808124999996,
      "v": 75
    },
    {
      "midi": 60,
      "hit": false,
      "t": 28999.971,
      "d": 139.8808124999996,
      "v": 75
    },
    {
      "midi": 38,
      "hit": false,
      "t": 29142.827999999994,
      "d": 285.71399999999994,
      "v": 110
    },
    {
      "midi": 36,
      "hit": false,
      "t": 29142.827999999994,
      "d": 139.8808124999996,
      "v": 92
    },
    {
      "midi": 28,
      "hit": false,
      "t": 29142.827999999994,
      "d": 139.8808124999996,
      "v": 45
    },
    {
      "midi": 50,
      "hit": false,
      "t": 29142.827999999998,
      "d": 380.95200000000114,
      "v": 84
    },
    {
      "midi": 57,
      "hit": false,
      "t": 29142.827999999998,
      "d": 380.95200000000114,
      "v": 84
    },
    {
      "midi": 62,
      "hit": false,
      "t": 29142.827999999998,
      "d": 380.95200000000114,
      "v": 84
    },
    {
      "midi": 54,
      "hit": false,
      "t": 29142.827999999998,
      "d": 1714.2839999999997,
      "v": 30
    },
    {
      "midi": 57,
      "hit": false,
      "t": 29142.827999999998,
      "d": 1714.2839999999997,
      "v": 30
    },
    {
      "midi": 62,
      "hit": false,
      "t": 29142.827999999998,
      "d": 1714.2839999999997,
      "v": 30
    },
    {
      "midi": 50,
      "hit": false,
      "t": 29142.828,
      "d": 428.5709999999999,
      "v": 105
    },
    {
      "midi": 57,
      "hit": false,
      "t": 29142.828,
      "d": 428.5709999999999,
      "v": 105
    },
    {
      "midi": 62,
      "hit": false,
      "t": 29142.828,
      "d": 428.5709999999999,
      "v": 105
    },
    {
      "midi": 50,
      "hit": false,
      "t": 29142.828,
      "d": 380.95200000000114,
      "v": 75
    },
    {
      "midi": 57,
      "hit": false,
      "t": 29142.828,
      "d": 380.95200000000114,
      "v": 75
    },
    {
      "midi": 62,
      "hit": false,
      "t": 29142.828,
      "d": 380.95200000000114,
      "v": 75
    },
    {
      "midi": 46,
      "hit": false,
      "t": 29142.828,
      "d": 380.95200000000114,
      "v": 127
    },
    {
      "midi": 83,
      "hit": false,
      "t": 29142.828000000016,
      "d": 571.4279999999999,
      "v": 110
    },
    {
      "midi": 83,
      "hit": false,
      "t": 29142.828000000016,
      "d": 571.4279999999999,
      "v": 127
    },
    {
      "midi": 36,
      "hit": false,
      "t": 29285.684999999994,
      "d": 139.8808124999996,
      "v": 92
    },
    {
      "midi": 28,
      "hit": false,
      "t": 29285.684999999994,
      "d": 139.8808124999996,
      "v": 45
    },
    {
      "midi": 38,
      "hit": false,
      "t": 29428.541999999994,
      "d": 142.85699999999997,
      "v": 110
    },
    {
      "midi": 36,
      "hit": false,
      "t": 29428.541999999994,
      "d": 139.8808124999996,
      "v": 92
    },
    {
      "midi": 28,
      "hit": false,
      "t": 29428.541999999994,
      "d": 139.8808124999996,
      "v": 45
    },
    {
      "midi": 38,
      "hit": false,
      "t": 29571.398999999994,
      "d": 142.85699999999997,
      "v": 110
    },
    {
      "midi": 36,
      "hit": false,
      "t": 29571.398999999994,
      "d": 139.8808124999996,
      "v": 92
    },
    {
      "midi": 28,
      "hit": false,
      "t": 29571.398999999994,
      "d": 139.8808124999996,
      "v": 45
    },
    {
      "midi": 50,
      "hit": false,
      "t": 29571.398999999998,
      "d": 139.8808124999996,
      "v": 60
    },
    {
      "midi": 57,
      "hit": false,
      "t": 29571.398999999998,
      "d": 139.8808124999996,
      "v": 60
    },
    {
      "midi": 62,
      "hit": false,
      "t": 29571.398999999998,
      "d": 139.8808124999996,
      "v": 60
    },
    {
      "midi": 40,
      "hit": false,
      "t": 29571.399,
      "d": 380.95200000000114,
      "v": 127
    },
    {
      "midi": 46,
      "hit": false,
      "t": 29571.399,
      "d": 380.95200000000114,
      "v": 127
    },
    {
      "midi": 38,
      "hit": false,
      "t": 29714.255999999994,
      "d": 142.85699999999997,
      "v": 110
    },
    {
      "midi": 36,
      "hit": false,
      "t": 29714.255999999994,
      "d": 139.8808124999996,
      "v": 92
    },
    {
      "midi": 28,
      "hit": false,
      "t": 29714.255999999994,
      "d": 139.8808124999996,
      "v": 45
    },
    {
      "midi": 50,
      "hit": false,
      "t": 29714.255999999998,
      "d": 139.8808124999996,
      "v": 60
    },
    {
      "midi": 57,
      "hit": false,
      "t": 29714.255999999998,
      "d": 139.8808124999996,
      "v": 60
    },
    {
      "midi": 62,
      "hit": false,
      "t": 29714.255999999998,
      "d": 139.8808124999996,
      "v": 60
    },
    {
      "midi": 50,
      "hit": false,
      "t": 29714.256,
      "d": 47.61899999999878,
      "v": 75
    },
    {
      "midi": 57,
      "hit": false,
      "t": 29714.256,
      "d": 47.61899999999878,
      "v": 75
    },
    {
      "midi": 62,
      "hit": false,
      "t": 29714.256,
      "d": 47.61899999999878,
      "v": 75
    },
    {
      "midi": 50,
      "hit": false,
      "t": 29714.256,
      "d": 139.8808124999996,
      "v": 75
    },
    {
      "midi": 57,
      "hit": false,
      "t": 29714.256,
      "d": 139.8808124999996,
      "v": 75
    },
    {
      "midi": 62,
      "hit": false,
      "t": 29714.256,
      "d": 139.8808124999996,
      "v": 75
    },
    {
      "midi": 81,
      "hit": false,
      "t": 29714.256000000016,
      "d": 142.85699999999997,
      "v": 110
    },
    {
      "midi": 81,
      "hit": false,
      "t": 29714.256000000016,
      "d": 142.85699999999997,
      "v": 127
    },
    {
      "midi": 38,
      "hit": false,
      "t": 29857.112999999994,
      "d": 142.85699999999997,
      "v": 110
    },
    {
      "midi": 36,
      "hit": false,
      "t": 29857.112999999994,
      "d": 139.8808124999996,
      "v": 92
    },
    {
      "midi": 28,
      "hit": false,
      "t": 29857.112999999994,
      "d": 139.8808124999996,
      "v": 45
    },
    {
      "midi": 50,
      "hit": false,
      "t": 29857.112999999998,
      "d": 139.8808124999996,
      "v": 60
    },
    {
      "midi": 57,
      "hit": false,
      "t": 29857.112999999998,
      "d": 139.8808124999996,
      "v": 60
    },
    {
      "midi": 62,
      "hit": false,
      "t": 29857.112999999998,
      "d": 139.8808124999996,
      "v": 60
    },
    {
      "midi": 50,
      "hit": false,
      "t": 29857.113,
      "d": 47.61899999999878,
      "v": 75
    },
    {
      "midi": 57,
      "hit": false,
      "t": 29857.113,
      "d": 47.61899999999878,
      "v": 75
    },
    {
      "midi": 62,
      "hit": false,
      "t": 29857.113,
      "d": 47.61899999999878,
      "v": 75
    },
    {
      "midi": 50,
      "hit": false,
      "t": 29857.113,
      "d": 139.8808124999996,
      "v": 75
    },
    {
      "midi": 57,
      "hit": false,
      "t": 29857.113,
      "d": 139.8808124999996,
      "v": 75
    },
    {
      "midi": 62,
      "hit": false,
      "t": 29857.113,
      "d": 139.8808124999996,
      "v": 75
    },
    {
      "midi": 79,
      "hit": false,
      "t": 29857.113000000016,
      "d": 142.85699999999997,
      "v": 110
    },
    {
      "midi": 79,
      "hit": false,
      "t": 29857.113000000016,
      "d": 142.85699999999997,
      "v": 127
    },
    {
      "midi": 38,
      "hit": false,
      "t": 29999.969999999994,
      "d": 285.71399999999994,
      "v": 110
    },
    {
      "midi": 36,
      "hit": false,
      "t": 29999.969999999994,
      "d": 139.8808124999996,
      "v": 92
    },
    {
      "midi": 28,
      "hit": false,
      "t": 29999.969999999994,
      "d": 139.8808124999996,
      "v": 45
    },
    {
      "midi": 50,
      "hit": false,
      "t": 29999.969999999998,
      "d": 380.95200000000114,
      "v": 84
    },
    {
      "midi": 57,
      "hit": false,
      "t": 29999.969999999998,
      "d": 380.95200000000114,
      "v": 84
    },
    {
      "midi": 62,
      "hit": false,
      "t": 29999.969999999998,
      "d": 380.95200000000114,
      "v": 84
    },
    {
      "midi": 50,
      "hit": false,
      "t": 29999.97,
      "d": 428.5709999999999,
      "v": 105
    },
    {
      "midi": 57,
      "hit": false,
      "t": 29999.97,
      "d": 428.5709999999999,
      "v": 105
    },
    {
      "midi": 62,
      "hit": false,
      "t": 29999.97,
      "d": 428.5709999999999,
      "v": 105
    },
    {
      "midi": 50,
      "hit": false,
      "t": 29999.97,
      "d": 380.95200000000114,
      "v": 75
    },
    {
      "midi": 57,
      "hit": false,
      "t": 29999.97,
      "d": 380.95200000000114,
      "v": 75
    },
    {
      "midi": 62,
      "hit": false,
      "t": 29999.97,
      "d": 380.95200000000114,
      "v": 75
    },
    {
      "midi": 46,
      "hit": false,
      "t": 29999.97,
      "d": 380.95200000000114,
      "v": 127
    },
    {
      "midi": 78,
      "hit": false,
      "t": 29999.970000000016,
      "d": 285.71399999999994,
      "v": 110
    },
    {
      "midi": 78,
      "hit": false,
      "t": 29999.970000000016,
      "d": 285.71399999999994,
      "v": 127
    },
    {
      "midi": 36,
      "hit": false,
      "t": 30142.826999999994,
      "d": 139.8808124999996,
      "v": 92
    },
    {
      "midi": 28,
      "hit": false,
      "t": 30142.826999999994,
      "d": 139.8808124999996,
      "v": 45
    },
    {
      "midi": 38,
      "hit": false,
      "t": 30285.683999999994,
      "d": 142.85699999999997,
      "v": 110
    },
    {
      "midi": 36,
      "hit": false,
      "t": 30285.683999999994,
      "d": 139.8808124999996,
      "v": 92
    },
    {
      "midi": 28,
      "hit": false,
      "t": 30285.683999999994,
      "d": 139.8808124999996,
      "v": 45
    },
    {
      "midi": 79,
      "hit": false,
      "t": 30285.684000000016,
      "d": 285.71399999999994,
      "v": 110
    },
    {
      "midi": 79,
      "hit": false,
      "t": 30285.684000000016,
      "d": 285.71399999999994,
      "v": 127
    },
    {
      "midi": 38,
      "hit": false,
      "t": 30428.540999999994,
      "d": 142.85699999999997,
      "v": 110
    },
    {
      "midi": 36,
      "hit": false,
      "t": 30428.540999999994,
      "d": 139.8808124999996,
      "v": 92
    },
    {
      "midi": 28,
      "hit": false,
      "t": 30428.540999999994,
      "d": 139.8808124999996,
      "v": 45
    },
    {
      "midi": 50,
      "hit": false,
      "t": 30428.540999999997,
      "d": 139.8808124999996,
      "v": 60
    },
    {
      "midi": 57,
      "hit": false,
      "t": 30428.540999999997,
      "d": 139.8808124999996,
      "v": 60
    },
    {
      "midi": 62,
      "hit": false,
      "t": 30428.540999999997,
      "d": 139.8808124999996,
      "v": 60
    },
    {
      "midi": 50,
      "hit": false,
      "t": 30428.541,
      "d": 142.85699999999997,
      "v": 75
    },
    {
      "midi": 57,
      "hit": false,
      "t": 30428.541,
      "d": 142.85699999999997,
      "v": 75
    },
    {
      "midi": 62,
      "hit": false,
      "t": 30428.541,
      "d": 142.85699999999997,
      "v": 75
    },
    {
      "midi": 50,
      "hit": false,
      "t": 30428.541,
      "d": 142.85699999999997,
      "v": 75
    },
    {
      "midi": 57,
      "hit": false,
      "t": 30428.541,
      "d": 142.85699999999997,
      "v": 75
    },
    {
      "midi": 62,
      "hit": false,
      "t": 30428.541,
      "d": 142.85699999999997,
      "v": 75
    },
    {
      "midi": 40,
      "hit": false,
      "t": 30428.541,
      "d": 380.95200000000114,
      "v": 127
    },
    {
      "midi": 46,
      "hit": false,
      "t": 30428.541,
      "d": 380.95200000000114,
      "v": 127
    },
    {
      "midi": 38,
      "hit": false,
      "t": 30571.397999999994,
      "d": 142.85699999999997,
      "v": 110
    },
    {
      "midi": 36,
      "hit": false,
      "t": 30571.397999999994,
      "d": 139.8808124999996,
      "v": 92
    },
    {
      "midi": 28,
      "hit": false,
      "t": 30571.397999999994,
      "d": 139.8808124999996,
      "v": 45
    },
    {
      "midi": 50,
      "hit": false,
      "t": 30571.397999999997,
      "d": 238.09500000000116,
      "v": 60
    },
    {
      "midi": 57,
      "hit": false,
      "t": 30571.397999999997,
      "d": 238.09500000000116,
      "v": 60
    },
    {
      "midi": 62,
      "hit": false,
      "t": 30571.397999999997,
      "d": 238.09500000000116,
      "v": 60
    },
    {
      "midi": 50,
      "hit": false,
      "t": 30571.398,
      "d": 285.71399999999994,
      "v": 75
    },
    {
      "midi": 57,
      "hit": false,
      "t": 30571.398,
      "d": 285.71399999999994,
      "v": 75
    },
    {
      "midi": 62,
      "hit": false,
      "t": 30571.398,
      "d": 285.71399999999994,
      "v": 75
    },
    {
      "midi": 50,
      "hit": false,
      "t": 30571.398,
      "d": 285.71399999999994,
      "v": 75
    },
    {
      "midi": 57,
      "hit": false,
      "t": 30571.398,
      "d": 285.71399999999994,
      "v": 75
    },
    {
      "midi": 62,
      "hit": false,
      "t": 30571.398,
      "d": 285.71399999999994,
      "v": 75
    },
    {
      "midi": 81,
      "hit": false,
      "t": 30571.398000000016,
      "d": 285.71399999999994,
      "v": 110
    },
    {
      "midi": 81,
      "hit": false,
      "t": 30571.398000000016,
      "d": 285.71399999999994,
      "v": 127
    },
    {
      "midi": 38,
      "hit": false,
      "t": 30714.254999999994,
      "d": 142.85699999999997,
      "v": 110
    },
    {
      "midi": 36,
      "hit": false,
      "t": 30714.254999999994,
      "d": 139.8808124999996,
      "v": 92
    },
    {
      "midi": 28,
      "hit": false,
      "t": 30714.254999999994,
      "d": 139.8808124999996,
      "v": 45
    },
    {
      "midi": 28,
      "hit": false,
      "t": 30857.111999999994,
      "d": 139.8808124999996,
      "v": 110
    },
    {
      "midi": 36,
      "hit": false,
      "t": 30857.111999999994,
      "d": 139.8808124999996,
      "v": 92
    },
    {
      "midi": 28,
      "hit": false,
      "t": 30857.111999999994,
      "d": 139.8808124999996,
      "v": 45
    },
    {
      "midi": 40,
      "hit": false,
      "t": 30857.111999999997,
      "d": 139.8808124999996,
      "v": 92
    },
    {
      "midi": 40,
      "hit": false,
      "t": 30857.112,
      "d": 139.8808124999996,
      "v": 108
    },
    {
      "midi": 40,
      "hit": false,
      "t": 30857.112,
      "d": 139.8808124999996,
      "v": 108
    },
    {
      "midi": 57,
      "hit": false,
      "t": 30857.112,
      "d": 380.95200000000114,
      "v": 127
    },
    {
      "midi": 83,
      "hit": false,
      "t": 30857.112000000016,
      "d": 1238.094000000001,
      "v": 110
    },
    {
      "midi": 83,
      "hit": false,
      "t": 30857.112000000016,
      "d": 1238.094000000001,
      "v": 127
    },
    {
      "midi": 28,
      "hit": false,
      "t": 30999.968999999994,
      "d": 139.8808124999996,
      "v": 110
    },
    {
      "midi": 36,
      "hit": false,
      "t": 30999.968999999994,
      "d": 139.8808124999996,
      "v": 92
    },
    {
      "midi": 28,
      "hit": false,
      "t": 30999.968999999994,
      "d": 139.8808124999996,
      "v": 45
    },
    {
      "midi": 40,
      "hit": false,
      "t": 30999.968999999997,
      "d": 139.8808124999996,
      "v": 92
    },
    {
      "midi": 40,
      "hit": false,
      "t": 30999.969,
      "d": 139.8808124999996,
      "v": 108
    },
    {
      "midi": 40,
      "hit": false,
      "t": 30999.969,
      "d": 139.8808124999996,
      "v": 108
    },
    {
      "midi": 28,
      "hit": false,
      "t": 31142.825999999994,
      "d": 139.8808124999996,
      "v": 110
    },
    {
      "midi": 36,
      "hit": false,
      "t": 31142.825999999994,
      "d": 139.8808124999996,
      "v": 92
    },
    {
      "midi": 28,
      "hit": false,
      "t": 31142.825999999994,
      "d": 139.8808124999996,
      "v": 45
    },
    {
      "midi": 40,
      "hit": false,
      "t": 31142.825999999997,
      "d": 139.8808124999996,
      "v": 92
    },
    {
      "midi": 40,
      "hit": false,
      "t": 31142.826,
      "d": 139.8808124999996,
      "v": 108
    },
    {
      "midi": 40,
      "hit": false,
      "t": 31142.826,
      "d": 139.8808124999996,
      "v": 108
    },
    {
      "midi": 30,
      "hit": false,
      "t": 31285.682999999994,
      "d": 139.8808124999996,
      "v": 110
    },
    {
      "midi": 36,
      "hit": false,
      "t": 31285.682999999994,
      "d": 139.8808124999996,
      "v": 92
    },
    {
      "midi": 28,
      "hit": false,
      "t": 31285.682999999994,
      "d": 139.8808124999996,
      "v": 45
    },
    {
      "midi": 42,
      "hit": false,
      "t": 31285.682999999997,
      "d": 139.8808124999996,
      "v": 92
    },
    {
      "midi": 42,
      "hit": false,
      "t": 31285.683,
      "d": 139.8808124999996,
      "v": 108
    },
    {
      "midi": 42,
      "hit": false,
      "t": 31285.683,
      "d": 139.8808124999996,
      "v": 108
    },
    {
      "midi": 40,
      "hit": false,
      "t": 31285.683,
      "d": 380.95200000000114,
      "v": 127
    },
    {
      "midi": 46,
      "hit": false,
      "t": 31285.683,
      "d": 380.95200000000114,
      "v": 127
    },
    {
      "midi": 28,
      "hit": false,
      "t": 31428.539999999994,
      "d": 139.8808124999996,
      "v": 110
    },
    {
      "midi": 36,
      "hit": false,
      "t": 31428.539999999994,
      "d": 139.8808124999996,
      "v": 92
    },
    {
      "midi": 28,
      "hit": false,
      "t": 31428.539999999994,
      "d": 139.8808124999996,
      "v": 45
    },
    {
      "midi": 40,
      "hit": false,
      "t": 31428.539999999997,
      "d": 139.8808124999996,
      "v": 92
    },
    {
      "midi": 40,
      "hit": false,
      "t": 31428.54,
      "d": 139.8808124999996,
      "v": 108
    },
    {
      "midi": 40,
      "hit": false,
      "t": 31428.54,
      "d": 139.8808124999996,
      "v": 108
    },
    {
      "midi": 28,
      "hit": false,
      "t": 31571.396999999994,
      "d": 139.8808124999996,
      "v": 110
    },
    {
      "midi": 36,
      "hit": false,
      "t": 31571.396999999994,
      "d": 139.8808124999996,
      "v": 92
    },
    {
      "midi": 28,
      "hit": false,
      "t": 31571.396999999994,
      "d": 139.8808124999996,
      "v": 45
    },
    {
      "midi": 40,
      "hit": false,
      "t": 31571.396999999997,
      "d": 139.8808124999996,
      "v": 92
    },
    {
      "midi": 40,
      "hit": false,
      "t": 31571.397,
      "d": 139.8808124999996,
      "v": 108
    },
    {
      "midi": 40,
      "hit": false,
      "t": 31571.397,
      "d": 139.8808124999996,
      "v": 108
    },
    {
      "midi": 35,
      "hit": false,
      "t": 31714.253999999994,
      "d": 139.8808124999996,
      "v": 110
    },
    {
      "midi": 36,
      "hit": false,
      "t": 31714.253999999994,
      "d": 139.8808124999996,
      "v": 92
    },
    {
      "midi": 28,
      "hit": false,
      "t": 31714.253999999994,
      "d": 139.8808124999996,
      "v": 45
    },
    {
      "midi": 45,
      "hit": false,
      "t": 31714.253999999997,
      "d": 32.738062500000524,
      "v": 92
    },
    {
      "midi": 45,
      "hit": false,
      "t": 31714.254,
      "d": 32.738062500000524,
      "v": 108
    },
    {
      "midi": 45,
      "hit": false,
      "t": 31714.254,
      "d": 32.738062500000524,
      "v": 108
    },
    {
      "midi": 46,
      "hit": false,
      "t": 31714.254,
      "d": 238.09500000000116,
      "v": 127
    },
    {
      "midi": 47,
      "hit": false,
      "t": 31749.968249999998,
      "d": 104.16656249999869,
      "v": 92
    },
    {
      "midi": 47,
      "hit": false,
      "t": 31749.96825,
      "d": 104.16656249999869,
      "v": 108
    },
    {
      "midi": 47,
      "hit": false,
      "t": 31749.96825,
      "d": 104.16656249999869,
      "v": 108
    },
    {
      "midi": 33,
      "hit": false,
      "t": 31857.110999999994,
      "d": 139.8808124999996,
      "v": 110
    },
    {
      "midi": 36,
      "hit": false,
      "t": 31857.110999999994,
      "d": 139.8808124999996,
      "v": 92
    },
    {
      "midi": 28,
      "hit": false,
      "t": 31857.110999999994,
      "d": 139.8808124999996,
      "v": 45
    },
    {
      "midi": 45,
      "hit": false,
      "t": 31857.110999999997,
      "d": 139.8808124999996,
      "v": 92
    },
    {
      "midi": 45,
      "hit": false,
      "t": 31857.111,
      "d": 139.8808124999996,
      "v": 108
    },
    {
      "midi": 45,
      "hit": false,
      "t": 31857.111,
      "d": 139.8808124999996,
      "v": 108
    },
    {
      "midi": 31,
      "hit": false,
      "t": 31999.967999999993,
      "d": 139.8808124999996,
      "v": 110
    },
    {
      "midi": 36,
      "hit": false,
      "t": 31999.967999999993,
      "d": 139.8808124999996,
      "v": 92
    },
    {
      "midi": 28,
      "hit": false,
      "t": 31999.967999999993,
      "d": 139.8808124999996,
      "v": 45
    },
    {
      "midi": 43,
      "hit": false,
      "t": 31999.967999999997,
      "d": 139.8808124999996,
      "v": 92
    },
    {
      "midi": 43,
      "hit": false,
      "t": 31999.968,
      "d": 139.8808124999996,
      "v": 108
    },
    {
      "midi": 43,
      "hit": false,
      "t": 31999.968,
      "d": 139.8808124999996,
      "v": 108
    },
    {
      "midi": 40,
      "hit": false,
      "t": 31999.968,
      "d": 139.8808124999996,
      "v": 127
    },
    {
      "midi": 33,
      "hit": false,
      "t": 32142.824999999993,
      "d": 139.8808124999996,
      "v": 110
    },
    {
      "midi": 36,
      "hit": false,
      "t": 32142.824999999993,
      "d": 139.8808124999996,
      "v": 92
    },
    {
      "midi": 28,
      "hit": false,
      "t": 32142.824999999993,
      "d": 139.8808124999996,
      "v": 45
    },
    {
      "midi": 45,
      "hit": false,
      "t": 32142.824999999997,
      "d": 139.8808124999996,
      "v": 92
    },
    {
      "midi": 45,
      "hit": false,
      "t": 32142.825,
      "d": 139.8808124999996,
      "v": 108
    },
    {
      "midi": 45,
      "hit": false,
      "t": 32142.825,
      "d": 139.8808124999996,
      "v": 108
    },
    {
      "midi": 40,
      "hit": false,
      "t": 32142.825,
      "d": 139.8808124999996,
      "v": 127
    },
    {
      "midi": 31,
      "hit": false,
      "t": 32285.681999999993,
      "d": 139.8808124999996,
      "v": 110
    },
    {
      "midi": 36,
      "hit": false,
      "t": 32285.681999999993,
      "d": 139.8808124999996,
      "v": 92
    },
    {
      "midi": 28,
      "hit": false,
      "t": 32285.681999999993,
      "d": 139.8808124999996,
      "v": 45
    },
    {
      "midi": 43,
      "hit": false,
      "t": 32285.681999999997,
      "d": 139.8808124999996,
      "v": 92
    },
    {
      "midi": 43,
      "hit": false,
      "t": 32285.682,
      "d": 139.8808124999996,
      "v": 108
    },
    {
      "midi": 43,
      "hit": false,
      "t": 32285.682,
      "d": 139.8808124999996,
      "v": 108
    },
    {
      "midi": 40,
      "hit": false,
      "t": 32285.682,
      "d": 139.8808124999996,
      "v": 127
    },
    {
      "midi": 30,
      "hit": false,
      "t": 32428.538999999993,
      "d": 139.8808124999996,
      "v": 110
    },
    {
      "midi": 36,
      "hit": false,
      "t": 32428.538999999993,
      "d": 139.8808124999996,
      "v": 92
    },
    {
      "midi": 28,
      "hit": false,
      "t": 32428.538999999993,
      "d": 139.8808124999996,
      "v": 45
    },
    {
      "midi": 42,
      "hit": false,
      "t": 32428.538999999997,
      "d": 139.8808124999996,
      "v": 92
    },
    {
      "midi": 42,
      "hit": false,
      "t": 32428.539,
      "d": 139.8808124999996,
      "v": 108
    },
    {
      "midi": 42,
      "hit": false,
      "t": 32428.539,
      "d": 139.8808124999996,
      "v": 108
    },
    {
      "midi": 41,
      "hit": false,
      "t": 32428.539,
      "d": 139.8808124999996,
      "v": 127
    },
    {
      "midi": 28,
      "hit": false,
      "t": 32571.395999999993,
      "d": 47.61899999999878,
      "v": 110
    },
    {
      "midi": 36,
      "hit": false,
      "t": 32571.395999999993,
      "d": 139.8808124999996,
      "v": 92
    },
    {
      "midi": 28,
      "hit": false,
      "t": 32571.395999999993,
      "d": 139.8808124999996,
      "v": 45
    },
    {
      "midi": 46,
      "hit": false,
      "t": 32571.396,
      "d": 139.8808124999996,
      "v": 127
    },
    {
      "midi": 36,
      "hit": false,
      "t": 32714.252999999993,
      "d": 238.09499999999753,
      "v": 110
    },
    {
      "midi": 36,
      "hit": false,
      "t": 32714.252999999993,
      "d": 139.88081250000323,
      "v": 92
    },
    {
      "midi": 28,
      "hit": false,
      "t": 32714.252999999993,
      "d": 139.88081250000323,
      "v": 45
    },
    {
      "midi": 76,
      "hit": false,
      "t": 32714.252999999997,
      "d": 238.09500000000116,
      "v": 108
    },
    {
      "midi": 79,
      "hit": false,
      "t": 32714.252999999997,
      "d": 238.09500000000116,
      "v": 108
    },
    {
      "midi": 84,
      "hit": false,
      "t": 32714.252999999997,
      "d": 238.09500000000116,
      "v": 108
    },
    {
      "midi": 48,
      "hit": false,
      "t": 32714.253,
      "d": 238.09499999999753,
      "v": 108
    },
    {
      "midi": 55,
      "hit": false,
      "t": 32714.253,
      "d": 238.09499999999753,
      "v": 108
    },
    {
      "midi": 60,
      "hit": false,
      "t": 32714.253,
      "d": 238.09499999999753,
      "v": 108
    },
    {
      "midi": 48,
      "hit": false,
      "t": 32714.253,
      "d": 238.09499999999753,
      "v": 108
    },
    {
      "midi": 55,
      "hit": false,
      "t": 32714.253,
      "d": 238.09499999999753,
      "v": 108
    },
    {
      "midi": 60,
      "hit": false,
      "t": 32714.253,
      "d": 238.09499999999753,
      "v": 108
    },
    {
      "midi": 40,
      "hit": false,
      "t": 32714.253,
      "d": 238.09499999999753,
      "v": 127
    },
    {
      "midi": 52,
      "hit": false,
      "t": 32714.253,
      "d": 238.09499999999753,
      "v": 127
    },
    {
      "midi": 57,
      "hit": false,
      "t": 32714.253,
      "d": 238.09499999999753,
      "v": 127
    },
    {
      "midi": 76,
      "hit": false,
      "t": 32714.253000000004,
      "d": 238.09500000000116,
      "v": 110
    },
    {
      "midi": 79,
      "hit": false,
      "t": 32714.253000000004,
      "d": 238.09500000000116,
      "v": 110
    },
    {
      "midi": 84,
      "hit": false,
      "t": 32714.253000000004,
      "d": 238.09500000000116,
      "v": 110
    },
    {
      "midi": 36,
      "hit": false,
      "t": 32857.10999999999,
      "d": 139.8808124999996,
      "v": 92
    },
    {
      "midi": 28,
      "hit": false,
      "t": 32857.10999999999,
      "d": 139.8808124999996,
      "v": 45
    },
    {
      "midi": 36,
      "hit": false,
      "t": 32999.96699999999,
      "d": 285.71399999999994,
      "v": 110
    },
    {
      "midi": 36,
      "hit": false,
      "t": 32999.96699999999,
      "d": 139.8808124999996,
      "v": 92
    },
    {
      "midi": 28,
      "hit": false,
      "t": 32999.96699999999,
      "d": 139.8808124999996,
      "v": 45
    },
    {
      "midi": 48,
      "hit": false,
      "t": 32999.967,
      "d": 428.57100000000355,
      "v": 108
    },
    {
      "midi": 55,
      "hit": false,
      "t": 32999.967,
      "d": 428.57100000000355,
      "v": 108
    },
    {
      "midi": 60,
      "hit": false,
      "t": 32999.967,
      "d": 428.57100000000355,
      "v": 108
    },
    {
      "midi": 48,
      "hit": false,
      "t": 32999.967,
      "d": 428.57100000000355,
      "v": 108
    },
    {
      "midi": 55,
      "hit": false,
      "t": 32999.967,
      "d": 428.57100000000355,
      "v": 108
    },
    {
      "midi": 60,
      "hit": false,
      "t": 32999.967,
      "d": 428.57100000000355,
      "v": 108
    },
    {
      "midi": 40,
      "hit": false,
      "t": 32999.967,
      "d": 238.09500000000116,
      "v": 127
    },
    {
      "midi": 52,
      "hit": false,
      "t": 32999.967,
      "d": 238.09500000000116,
      "v": 127
    },
    {
      "midi": 57,
      "hit": false,
      "t": 32999.967,
      "d": 238.09500000000116,
      "v": 127
    },
    {
      "midi": 76,
      "hit": false,
      "t": 32999.967,
      "d": 380.9519999999975,
      "v": 108
    },
    {
      "midi": 79,
      "hit": false,
      "t": 32999.967,
      "d": 380.9519999999975,
      "v": 108
    },
    {
      "midi": 84,
      "hit": false,
      "t": 32999.967,
      "d": 380.9519999999975,
      "v": 108
    },
    {
      "midi": 76,
      "hit": false,
      "t": 32999.967000000004,
      "d": 380.9519999999975,
      "v": 110
    },
    {
      "midi": 79,
      "hit": false,
      "t": 32999.967000000004,
      "d": 380.9519999999975,
      "v": 110
    },
    {
      "midi": 84,
      "hit": false,
      "t": 32999.967000000004,
      "d": 380.9519999999975,
      "v": 110
    },
    {
      "midi": 36,
      "hit": false,
      "t": 33142.823999999986,
      "d": 139.8808124999996,
      "v": 92
    },
    {
      "midi": 28,
      "hit": false,
      "t": 33142.823999999986,
      "d": 139.8808124999996,
      "v": 45
    },
    {
      "midi": 36,
      "hit": false,
      "t": 33285.68099999998,
      "d": 139.8808124999996,
      "v": 92
    },
    {
      "midi": 28,
      "hit": false,
      "t": 33285.68099999998,
      "d": 139.8808124999996,
      "v": 45
    },
    {
      "midi": 26,
      "hit": false,
      "t": 33285.68099999999,
      "d": 47.61899999999878,
      "v": 110
    },
    {
      "midi": 41,
      "hit": false,
      "t": 33285.681,
      "d": 139.8808124999996,
      "v": 127
    },
    {
      "midi": 36,
      "hit": false,
      "t": 33428.53799999998,
      "d": 139.8808124999996,
      "v": 92
    },
    {
      "midi": 28,
      "hit": false,
      "t": 33428.53799999998,
      "d": 139.8808124999996,
      "v": 45
    },
    {
      "midi": 28,
      "hit": false,
      "t": 33428.537999999986,
      "d": 47.61899999999878,
      "v": 110
    },
    {
      "midi": 41,
      "hit": false,
      "t": 33428.53799999999,
      "d": 139.8808124999996,
      "v": 127
    },
    {
      "midi": 46,
      "hit": false,
      "t": 33428.53799999999,
      "d": 139.8808124999996,
      "v": 127
    },
    {
      "midi": 36,
      "hit": false,
      "t": 33571.394999999975,
      "d": 139.8808124999996,
      "v": 92
    },
    {
      "midi": 28,
      "hit": false,
      "t": 33571.394999999975,
      "d": 139.8808124999996,
      "v": 45
    },
    {
      "midi": 35,
      "hit": false,
      "t": 33571.39499999998,
      "d": 238.09500000000116,
      "v": 110
    },
    {
      "midi": 40,
      "hit": false,
      "t": 33571.39499999999,
      "d": 238.09500000000116,
      "v": 127
    },
    {
      "midi": 52,
      "hit": false,
      "t": 33571.39499999999,
      "d": 238.09500000000116,
      "v": 127
    },
    {
      "midi": 57,
      "hit": false,
      "t": 33571.39499999999,
      "d": 238.09500000000116,
      "v": 127
    },
    {
      "midi": 75,
      "hit": false,
      "t": 33571.395,
      "d": 238.09500000000116,
      "v": 108
    },
    {
      "midi": 78,
      "hit": false,
      "t": 33571.395,
      "d": 238.09500000000116,
      "v": 108
    },
    {
      "midi": 83,
      "hit": false,
      "t": 33571.395,
      "d": 238.09500000000116,
      "v": 108
    },
    {
      "midi": 47,
      "hit": false,
      "t": 33571.395000000004,
      "d": 238.09500000000116,
      "v": 108
    },
    {
      "midi": 54,
      "hit": false,
      "t": 33571.395000000004,
      "d": 238.09500000000116,
      "v": 108
    },
    {
      "midi": 59,
      "hit": false,
      "t": 33571.395000000004,
      "d": 238.09500000000116,
      "v": 108
    },
    {
      "midi": 47,
      "hit": false,
      "t": 33571.395000000004,
      "d": 238.09500000000116,
      "v": 108
    },
    {
      "midi": 54,
      "hit": false,
      "t": 33571.395000000004,
      "d": 238.09500000000116,
      "v": 108
    },
    {
      "midi": 59,
      "hit": false,
      "t": 33571.395000000004,
      "d": 238.09500000000116,
      "v": 108
    },
    {
      "midi": 75,
      "hit": false,
      "t": 33571.395000000004,
      "d": 238.09500000000116,
      "v": 110
    },
    {
      "midi": 78,
      "hit": false,
      "t": 33571.395000000004,
      "d": 238.09500000000116,
      "v": 110
    },
    {
      "midi": 83,
      "hit": false,
      "t": 33571.395000000004,
      "d": 238.09500000000116,
      "v": 110
    },
    {
      "midi": 36,
      "hit": false,
      "t": 33714.25199999997,
      "d": 139.8808124999996,
      "v": 92
    },
    {
      "midi": 28,
      "hit": false,
      "t": 33714.25199999997,
      "d": 139.8808124999996,
      "v": 45
    },
    {
      "midi": 36,
      "hit": false,
      "t": 33857.10899999997,
      "d": 139.8808124999996,
      "v": 92
    },
    {
      "midi": 28,
      "hit": false,
      "t": 33857.10899999997,
      "d": 139.8808124999996,
      "v": 45
    },
    {
      "midi": 35,
      "hit": false,
      "t": 33857.10899999998,
      "d": 428.57100000000355,
      "v": 110
    },
    {
      "midi": 40,
      "hit": false,
      "t": 33857.10899999999,
      "d": 68.45231249999779,
      "v": 127
    },
    {
      "midi": 52,
      "hit": false,
      "t": 33857.10899999999,
      "d": 68.45231249999779,
      "v": 127
    },
    {
      "midi": 75,
      "hit": false,
      "t": 33857.109,
      "d": 380.9519999999975,
      "v": 108
    },
    {
      "midi": 78,
      "hit": false,
      "t": 33857.109,
      "d": 380.9519999999975,
      "v": 108
    },
    {
      "midi": 83,
      "hit": false,
      "t": 33857.109,
      "d": 380.9519999999975,
      "v": 108
    },
    {
      "midi": 47,
      "hit": false,
      "t": 33857.109000000004,
      "d": 428.57100000000355,
      "v": 108
    },
    {
      "midi": 54,
      "hit": false,
      "t": 33857.109000000004,
      "d": 428.57100000000355,
      "v": 108
    },
    {
      "midi": 59,
      "hit": false,
      "t": 33857.109000000004,
      "d": 428.57100000000355,
      "v": 108
    },
    {
      "midi": 47,
      "hit": false,
      "t": 33857.109000000004,
      "d": 428.57100000000355,
      "v": 108
    },
    {
      "midi": 54,
      "hit": false,
      "t": 33857.109000000004,
      "d": 428.57100000000355,
      "v": 108
    },
    {
      "midi": 59,
      "hit": false,
      "t": 33857.109000000004,
      "d": 428.57100000000355,
      "v": 108
    },
    {
      "midi": 75,
      "hit": false,
      "t": 33857.109000000004,
      "d": 380.9519999999975,
      "v": 110
    },
    {
      "midi": 78,
      "hit": false,
      "t": 33857.109000000004,
      "d": 380.9519999999975,
      "v": 110
    },
    {
      "midi": 83,
      "hit": false,
      "t": 33857.109000000004,
      "d": 380.9519999999975,
      "v": 110
    },
    {
      "midi": 71,
      "hit": false,
      "t": 33857.10900000002,
      "d": 428.57100000000355,
      "v": 110
    },
    {
      "midi": 71,
      "hit": false,
      "t": 33857.10900000002,
      "d": 428.57100000000355,
      "v": 127
    },
    {
      "midi": 40,
      "hit": false,
      "t": 33928.537499999984,
      "d": 68.45231249999779,
      "v": 127
    },
    {
      "midi": 36,
      "hit": false,
      "t": 33999.965999999964,
      "d": 139.8808124999996,
      "v": 92
    },
    {
      "midi": 28,
      "hit": false,
      "t": 33999.965999999964,
      "d": 139.8808124999996,
      "v": 45
    },
    {
      "midi": 43,
      "hit": false,
      "t": 33999.96599999998,
      "d": 139.8808124999996,
      "v": 127
    },
    {
      "midi": 36,
      "hit": false,
      "t": 34142.82299999996,
      "d": 139.8808124999996,
      "v": 92
    },
    {
      "midi": 28,
      "hit": false,
      "t": 34142.82299999996,
      "d": 139.8808124999996,
      "v": 45
    },
    {
      "midi": 41,
      "hit": false,
      "t": 34142.822999999975,
      "d": 139.8808124999996,
      "v": 127
    },
    {
      "midi": 36,
      "hit": false,
      "t": 34285.67999999996,
      "d": 139.8808124999996,
      "v": 92
    },
    {
      "midi": 28,
      "hit": false,
      "t": 34285.67999999996,
      "d": 139.8808124999996,
      "v": 45
    },
    {
      "midi": 57,
      "hit": false,
      "t": 34285.67999999997,
      "d": 380.9519999999975,
      "v": 127
    },
    {
      "midi": 28,
      "hit": false,
      "t": 34285.679999999986,
      "d": 285.71399999999994,
      "v": 110
    },
    {
      "midi": 55,
      "hit": false,
      "t": 34285.67999999999,
      "d": 1714.2839999999997,
      "v": 30
    },
    {
      "midi": 59,
      "hit": false,
      "t": 34285.67999999999,
      "d": 1714.2839999999997,
      "v": 30
    },
    {
      "midi": 64,
      "hit": false,
      "t": 34285.67999999999,
      "d": 1714.2839999999997,
      "v": 30
    },
    {
      "midi": 40,
      "hit": false,
      "t": 34285.68,
      "d": 238.09500000000116,
      "v": 84
    },
    {
      "midi": 47,
      "hit": false,
      "t": 34285.68,
      "d": 238.09500000000116,
      "v": 84
    },
    {
      "midi": 52,
      "hit": false,
      "t": 34285.68,
      "d": 238.09500000000116,
      "v": 84
    },
    {
      "midi": 40,
      "hit": false,
      "t": 34285.68000000001,
      "d": 428.57100000000355,
      "v": 105
    },
    {
      "midi": 47,
      "hit": false,
      "t": 34285.68000000001,
      "d": 428.57100000000355,
      "v": 105
    },
    {
      "midi": 52,
      "hit": false,
      "t": 34285.68000000001,
      "d": 428.57100000000355,
      "v": 105
    },
    {
      "midi": 59,
      "hit": false,
      "t": 34285.68000000001,
      "d": 428.57100000000355,
      "v": 105
    },
    {
      "midi": 64,
      "hit": false,
      "t": 34285.68000000001,
      "d": 428.57100000000355,
      "v": 105
    },
    {
      "midi": 52,
      "hit": false,
      "t": 34285.68000000001,
      "d": 428.57100000000355,
      "v": 75
    },
    {
      "midi": 59,
      "hit": false,
      "t": 34285.68000000001,
      "d": 428.57100000000355,
      "v": 75
    },
    {
      "midi": 64,
      "hit": false,
      "t": 34285.68000000001,
      "d": 428.57100000000355,
      "v": 75
    },
    {
      "midi": 76,
      "hit": false,
      "t": 34285.68000000002,
      "d": 785.713499999998,
      "v": 110
    },
    {
      "midi": 76,
      "hit": false,
      "t": 34285.68000000002,
      "d": 785.713499999998,
      "v": 127
    },
    {
      "midi": 36,
      "hit": false,
      "t": 34428.53699999995,
      "d": 139.8808124999996,
      "v": 92
    },
    {
      "midi": 28,
      "hit": false,
      "t": 34428.53699999995,
      "d": 139.8808124999996,
      "v": 45
    },
    {
      "midi": 36,
      "hit": false,
      "t": 34571.39399999995,
      "d": 139.8808124999996,
      "v": 92
    },
    {
      "midi": 28,
      "hit": false,
      "t": 34571.39399999995,
      "d": 139.8808124999996,
      "v": 45
    },
    {
      "midi": 28,
      "hit": false,
      "t": 34571.393999999986,
      "d": 142.8570000000036,
      "v": 110
    },
    {
      "midi": 40,
      "hit": false,
      "t": 34571.394,
      "d": 139.8808124999996,
      "v": 60
    },
    {
      "midi": 36,
      "hit": false,
      "t": 34714.250999999946,
      "d": 139.8808124999996,
      "v": 92
    },
    {
      "midi": 28,
      "hit": false,
      "t": 34714.250999999946,
      "d": 139.8808124999996,
      "v": 45
    },
    {
      "midi": 40,
      "hit": false,
      "t": 34714.25099999997,
      "d": 380.9519999999975,
      "v": 127
    },
    {
      "midi": 46,
      "hit": false,
      "t": 34714.25099999997,
      "d": 380.9519999999975,
      "v": 127
    },
    {
      "midi": 28,
      "hit": false,
      "t": 34714.25099999999,
      "d": 142.8570000000036,
      "v": 110
    },
    {
      "midi": 40,
      "hit": false,
      "t": 34714.251,
      "d": 139.8808124999996,
      "v": 60
    },
    {
      "midi": 47,
      "hit": false,
      "t": 34714.251,
      "d": 139.8808124999996,
      "v": 60
    },
    {
      "midi": 52,
      "hit": false,
      "t": 34714.251,
      "d": 139.8808124999996,
      "v": 60
    },
    {
      "midi": 36,
      "hit": false,
      "t": 34857.10799999994,
      "d": 139.8808124999996,
      "v": 92
    },
    {
      "midi": 28,
      "hit": false,
      "t": 34857.10799999994,
      "d": 139.8808124999996,
      "v": 45
    },
    {
      "midi": 40,
      "hit": false,
      "t": 34857.10799999999,
      "d": 139.8808124999996,
      "v": 60
    },
    {
      "midi": 47,
      "hit": false,
      "t": 34857.10799999999,
      "d": 139.8808124999996,
      "v": 60
    },
    {
      "midi": 52,
      "hit": false,
      "t": 34857.10799999999,
      "d": 139.8808124999996,
      "v": 60
    },
    {
      "midi": 28,
      "hit": false,
      "t": 34857.10799999999,
      "d": 142.8570000000036,
      "v": 110
    },
    {
      "midi": 40,
      "hit": false,
      "t": 34857.108000000015,
      "d": 47.61899999999878,
      "v": 75
    },
    {
      "midi": 47,
      "hit": false,
      "t": 34857.108000000015,
      "d": 47.61899999999878,
      "v": 75
    },
    {
      "midi": 52,
      "hit": false,
      "t": 34857.108000000015,
      "d": 47.61899999999878,
      "v": 75
    },
    {
      "midi": 59,
      "hit": false,
      "t": 34857.108000000015,
      "d": 47.61899999999878,
      "v": 75
    },
    {
      "midi": 64,
      "hit": false,
      "t": 34857.108000000015,
      "d": 47.61899999999878,
      "v": 75
    },
    {
      "midi": 52,
      "hit": false,
      "t": 34857.108000000015,
      "d": 139.8808124999996,
      "v": 75
    },
    {
      "midi": 59,
      "hit": false,
      "t": 34857.108000000015,
      "d": 139.8808124999996,
      "v": 75
    },
    {
      "midi": 64,
      "hit": false,
      "t": 34857.108000000015,
      "d": 139.8808124999996,
      "v": 75
    },
    {
      "midi": 36,
      "hit": false,
      "t": 34999.96499999994,
      "d": 139.8808124999996,
      "v": 92
    },
    {
      "midi": 28,
      "hit": false,
      "t": 34999.96499999994,
      "d": 139.8808124999996,
      "v": 45
    },
    {
      "midi": 40,
      "hit": false,
      "t": 34999.96499999999,
      "d": 139.8808124999996,
      "v": 60
    },
    {
      "midi": 47,
      "hit": false,
      "t": 34999.96499999999,
      "d": 139.8808124999996,
      "v": 60
    },
    {
      "midi": 52,
      "hit": false,
      "t": 34999.96499999999,
      "d": 139.8808124999996,
      "v": 60
    },
    {
      "midi": 28,
      "hit": false,
      "t": 34999.965,
      "d": 142.8570000000036,
      "v": 110
    },
    {
      "midi": 40,
      "hit": false,
      "t": 34999.96500000001,
      "d": 47.61899999999878,
      "v": 75
    },
    {
      "midi": 47,
      "hit": false,
      "t": 34999.96500000001,
      "d": 47.61899999999878,
      "v": 75
    },
    {
      "midi": 52,
      "hit": false,
      "t": 34999.96500000001,
      "d": 47.61899999999878,
      "v": 75
    },
    {
      "midi": 59,
      "hit": false,
      "t": 34999.96500000001,
      "d": 47.61899999999878,
      "v": 75
    },
    {
      "midi": 64,
      "hit": false,
      "t": 34999.96500000001,
      "d": 47.61899999999878,
      "v": 75
    },
    {
      "midi": 52,
      "hit": false,
      "t": 34999.96500000001,
      "d": 139.8808124999996,
      "v": 75
    },
    {
      "midi": 59,
      "hit": false,
      "t": 34999.96500000001,
      "d": 139.8808124999996,
      "v": 75
    },
    {
      "midi": 64,
      "hit": false,
      "t": 34999.96500000001,
      "d": 139.8808124999996,
      "v": 75
    },
    {
      "midi": 36,
      "hit": false,
      "t": 35142.821999999935,
      "d": 139.8808124999996,
      "v": 92
    },
    {
      "midi": 28,
      "hit": false,
      "t": 35142.821999999935,
      "d": 139.8808124999996,
      "v": 45
    },
    {
      "midi": 46,
      "hit": false,
      "t": 35142.821999999964,
      "d": 380.9519999999975,
      "v": 127
    },
    {
      "midi": 40,
      "hit": false,
      "t": 35142.821999999986,
      "d": 238.09500000000116,
      "v": 84
    },
    {
      "midi": 47,
      "hit": false,
      "t": 35142.821999999986,
      "d": 238.09500000000116,
      "v": 84
    },
    {
      "midi": 52,
      "hit": false,
      "t": 35142.821999999986,
      "d": 238.09500000000116,
      "v": 84
    },
    {
      "midi": 28,
      "hit": false,
      "t": 35142.822,
      "d": 285.71399999999994,
      "v": 110
    },
    {
      "midi": 40,
      "hit": false,
      "t": 35142.82200000001,
      "d": 428.57100000000355,
      "v": 105
    },
    {
      "midi": 47,
      "hit": false,
      "t": 35142.82200000001,
      "d": 428.57100000000355,
      "v": 105
    },
    {
      "midi": 52,
      "hit": false,
      "t": 35142.82200000001,
      "d": 428.57100000000355,
      "v": 105
    },
    {
      "midi": 59,
      "hit": false,
      "t": 35142.82200000001,
      "d": 428.57100000000355,
      "v": 105
    },
    {
      "midi": 64,
      "hit": false,
      "t": 35142.82200000001,
      "d": 428.57100000000355,
      "v": 105
    },
    {
      "midi": 52,
      "hit": false,
      "t": 35142.82200000001,
      "d": 428.57100000000355,
      "v": 75
    },
    {
      "midi": 59,
      "hit": false,
      "t": 35142.82200000001,
      "d": 428.57100000000355,
      "v": 75
    },
    {
      "midi": 64,
      "hit": false,
      "t": 35142.82200000001,
      "d": 428.57100000000355,
      "v": 75
    },
    {
      "midi": 76,
      "hit": false,
      "t": 35142.82200000002,
      "d": 285.71399999999994,
      "v": 110
    },
    {
      "midi": 76,
      "hit": false,
      "t": 35142.82200000002,
      "d": 285.71399999999994,
      "v": 127
    },
    {
      "midi": 36,
      "hit": false,
      "t": 35285.67899999993,
      "d": 139.8808124999996,
      "v": 92
    },
    {
      "midi": 28,
      "hit": false,
      "t": 35285.67899999993,
      "d": 139.8808124999996,
      "v": 45
    },
    {
      "midi": 36,
      "hit": false,
      "t": 35428.53599999993,
      "d": 139.8808124999996,
      "v": 92
    },
    {
      "midi": 28,
      "hit": false,
      "t": 35428.53599999993,
      "d": 139.8808124999996,
      "v": 45
    },
    {
      "midi": 40,
      "hit": false,
      "t": 35428.535999999986,
      "d": 139.8808124999996,
      "v": 60
    },
    {
      "midi": 28,
      "hit": false,
      "t": 35428.536,
      "d": 142.8570000000036,
      "v": 110
    },
    {
      "midi": 78,
      "hit": false,
      "t": 35428.53600000002,
      "d": 285.71399999999994,
      "v": 110
    },
    {
      "midi": 78,
      "hit": false,
      "t": 35428.53600000002,
      "d": 285.71399999999994,
      "v": 127
    },
    {
      "midi": 36,
      "hit": false,
      "t": 35571.39299999992,
      "d": 139.8808124999996,
      "v": 92
    },
    {
      "midi": 28,
      "hit": false,
      "t": 35571.39299999992,
      "d": 139.8808124999996,
      "v": 45
    },
    {
      "midi": 40,
      "hit": false,
      "t": 35571.39299999996,
      "d": 380.9519999999975,
      "v": 127
    },
    {
      "midi": 46,
      "hit": false,
      "t": 35571.39299999996,
      "d": 380.9519999999975,
      "v": 127
    },
    {
      "midi": 40,
      "hit": false,
      "t": 35571.39299999998,
      "d": 139.8808124999996,
      "v": 60
    },
    {
      "midi": 47,
      "hit": false,
      "t": 35571.39299999998,
      "d": 139.8808124999996,
      "v": 60
    },
    {
      "midi": 52,
      "hit": false,
      "t": 35571.39299999998,
      "d": 139.8808124999996,
      "v": 60
    },
    {
      "midi": 28,
      "hit": false,
      "t": 35571.393000000004,
      "d": 142.8570000000036,
      "v": 110
    },
    {
      "midi": 36,
      "hit": false,
      "t": 35714.24999999992,
      "d": 139.8808124999996,
      "v": 92
    },
    {
      "midi": 28,
      "hit": false,
      "t": 35714.24999999992,
      "d": 139.8808124999996,
      "v": 45
    },
    {
      "midi": 40,
      "hit": false,
      "t": 35714.24999999998,
      "d": 139.8808124999996,
      "v": 60
    },
    {
      "midi": 47,
      "hit": false,
      "t": 35714.24999999998,
      "d": 139.8808124999996,
      "v": 60
    },
    {
      "midi": 52,
      "hit": false,
      "t": 35714.24999999998,
      "d": 139.8808124999996,
      "v": 60
    },
    {
      "midi": 28,
      "hit": false,
      "t": 35714.25000000001,
      "d": 142.8570000000036,
      "v": 110
    },
    {
      "midi": 40,
      "hit": false,
      "t": 35714.250000000015,
      "d": 47.61899999999878,
      "v": 75
    },
    {
      "midi": 47,
      "hit": false,
      "t": 35714.250000000015,
      "d": 47.61899999999878,
      "v": 75
    },
    {
      "midi": 52,
      "hit": false,
      "t": 35714.250000000015,
      "d": 47.61899999999878,
      "v": 75
    },
    {
      "midi": 59,
      "hit": false,
      "t": 35714.250000000015,
      "d": 47.61899999999878,
      "v": 75
    },
    {
      "midi": 64,
      "hit": false,
      "t": 35714.250000000015,
      "d": 47.61899999999878,
      "v": 75
    },
    {
      "midi": 52,
      "hit": false,
      "t": 35714.250000000015,
      "d": 139.8808124999996,
      "v": 75
    },
    {
      "midi": 59,
      "hit": false,
      "t": 35714.250000000015,
      "d": 139.8808124999996,
      "v": 75
    },
    {
      "midi": 64,
      "hit": false,
      "t": 35714.250000000015,
      "d": 139.8808124999996,
      "v": 75
    },
    {
      "midi": 79,
      "hit": false,
      "t": 35714.25000000002,
      "d": 285.71399999999994,
      "v": 110
    },
    {
      "midi": 79,
      "hit": false,
      "t": 35714.25000000002,
      "d": 285.71399999999994,
      "v": 127
    },
    {
      "midi": 36,
      "hit": false,
      "t": 35857.106999999916,
      "d": 139.8808124999996,
      "v": 92
    },
    {
      "midi": 28,
      "hit": false,
      "t": 35857.106999999916,
      "d": 139.8808124999996,
      "v": 45
    },
    {
      "midi": 40,
      "hit": false,
      "t": 35857.106999999975,
      "d": 139.8808124999996,
      "v": 60
    },
    {
      "midi": 47,
      "hit": false,
      "t": 35857.106999999975,
      "d": 139.8808124999996,
      "v": 60
    },
    {
      "midi": 52,
      "hit": false,
      "t": 35857.106999999975,
      "d": 139.8808124999996,
      "v": 60
    },
    {
      "midi": 40,
      "hit": false,
      "t": 35857.10700000001,
      "d": 47.61899999999878,
      "v": 75
    },
    {
      "midi": 47,
      "hit": false,
      "t": 35857.10700000001,
      "d": 47.61899999999878,
      "v": 75
    },
    {
      "midi": 52,
      "hit": false,
      "t": 35857.10700000001,
      "d": 47.61899999999878,
      "v": 75
    },
    {
      "midi": 59,
      "hit": false,
      "t": 35857.10700000001,
      "d": 47.61899999999878,
      "v": 75
    },
    {
      "midi": 64,
      "hit": false,
      "t": 35857.10700000001,
      "d": 47.61899999999878,
      "v": 75
    },
    {
      "midi": 52,
      "hit": false,
      "t": 35857.10700000001,
      "d": 139.8808124999996,
      "v": 75
    },
    {
      "midi": 59,
      "hit": false,
      "t": 35857.10700000001,
      "d": 139.8808124999996,
      "v": 75
    },
    {
      "midi": 64,
      "hit": false,
      "t": 35857.10700000001,
      "d": 139.8808124999996,
      "v": 75
    },
    {
      "midi": 28,
      "hit": false,
      "t": 35857.10700000001,
      "d": 142.8570000000036,
      "v": 110
    },
    {
      "midi": 36,
      "hit": false,
      "t": 35999.96399999991,
      "d": 139.8808124999996,
      "v": 92
    },
    {
      "midi": 28,
      "hit": false,
      "t": 35999.96399999991,
      "d": 139.8808124999996,
      "v": 45
    },
    {
      "midi": 46,
      "hit": false,
      "t": 35999.963999999956,
      "d": 380.9519999999975,
      "v": 127
    },
    {
      "midi": 38,
      "hit": false,
      "t": 35999.96399999997,
      "d": 238.09500000000116,
      "v": 84
    },
    {
      "midi": 45,
      "hit": false,
      "t": 35999.96399999997,
      "d": 238.09500000000116,
      "v": 84
    },
    {
      "midi": 50,
      "hit": false,
      "t": 35999.96399999997,
      "d": 238.09500000000116,
      "v": 84
    },
    {
      "midi": 54,
      "hit": false,
      "t": 35999.96399999999,
      "d": 1714.2839999999997,
      "v": 30
    },
    {
      "midi": 57,
      "hit": false,
      "t": 35999.96399999999,
      "d": 1714.2839999999997,
      "v": 30
    },
    {
      "midi": 62,
      "hit": false,
      "t": 35999.96399999999,
      "d": 1714.2839999999997,
      "v": 30
    },
    {
      "midi": 38,
      "hit": false,
      "t": 35999.96400000001,
      "d": 428.57100000000355,
      "v": 105
    },
    {
      "midi": 45,
      "hit": false,
      "t": 35999.96400000001,
      "d": 428.57100000000355,
      "v": 105
    },
    {
      "midi": 50,
      "hit": false,
      "t": 35999.96400000001,
      "d": 428.57100000000355,
      "v": 105
    },
    {
      "midi": 57,
      "hit": false,
      "t": 35999.96400000001,
      "d": 428.57100000000355,
      "v": 105
    },
    {
      "midi": 62,
      "hit": false,
      "t": 35999.96400000001,
      "d": 428.57100000000355,
      "v": 105
    },
    {
      "midi": 50,
      "hit": false,
      "t": 35999.96400000001,
      "d": 428.57100000000355,
      "v": 75
    },
    {
      "midi": 57,
      "hit": false,
      "t": 35999.96400000001,
      "d": 428.57100000000355,
      "v": 75
    },
    {
      "midi": 62,
      "hit": false,
      "t": 35999.96400000001,
      "d": 428.57100000000355,
      "v": 75
    },
    {
      "midi": 26,
      "hit": false,
      "t": 35999.964000000014,
      "d": 285.71399999999994,
      "v": 110
    },
    {
      "midi": 78,
      "hit": false,
      "t": 35999.96400000002,
      "d": 857.1419999999998,
      "v": 110
    },
    {
      "midi": 78,
      "hit": false,
      "t": 35999.96400000002,
      "d": 857.1419999999998,
      "v": 127
    },
    {
      "midi": 36,
      "hit": false,
      "t": 36142.82099999991,
      "d": 139.8808124999996,
      "v": 92
    },
    {
      "midi": 28,
      "hit": false,
      "t": 36142.82099999991,
      "d": 139.8808124999996,
      "v": 45
    },
    {
      "midi": 36,
      "hit": false,
      "t": 36285.677999999905,
      "d": 139.8808124999996,
      "v": 92
    },
    {
      "midi": 28,
      "hit": false,
      "t": 36285.677999999905,
      "d": 139.8808124999996,
      "v": 45
    },
    {
      "midi": 38,
      "hit": false,
      "t": 36285.67799999997,
      "d": 139.8808124999996,
      "v": 60
    },
    {
      "midi": 26,
      "hit": false,
      "t": 36285.678000000014,
      "d": 142.8570000000036,
      "v": 110
    },
    {
      "midi": 36,
      "hit": false,
      "t": 36428.5349999999,
      "d": 139.8808124999996,
      "v": 92
    },
    {
      "midi": 28,
      "hit": false,
      "t": 36428.5349999999,
      "d": 139.8808124999996,
      "v": 45
    },
    {
      "midi": 40,
      "hit": false,
      "t": 36428.53499999995,
      "d": 380.9519999999975,
      "v": 127
    },
    {
      "midi": 46,
      "hit": false,
      "t": 36428.53499999995,
      "d": 380.9519999999975,
      "v": 127
    },
    {
      "midi": 38,
      "hit": false,
      "t": 36428.53499999997,
      "d": 139.8808124999996,
      "v": 60
    },
    {
      "midi": 45,
      "hit": false,
      "t": 36428.53499999997,
      "d": 139.8808124999996,
      "v": 60
    },
    {
      "midi": 50,
      "hit": false,
      "t": 36428.53499999997,
      "d": 139.8808124999996,
      "v": 60
    },
    {
      "midi": 26,
      "hit": false,
      "t": 36428.53500000002,
      "d": 142.8570000000036,
      "v": 110
    },
    {
      "midi": 36,
      "hit": false,
      "t": 36571.3919999999,
      "d": 139.8808124999996,
      "v": 92
    },
    {
      "midi": 28,
      "hit": false,
      "t": 36571.3919999999,
      "d": 139.8808124999996,
      "v": 45
    },
    {
      "midi": 38,
      "hit": false,
      "t": 36571.39199999996,
      "d": 139.8808124999996,
      "v": 60
    },
    {
      "midi": 45,
      "hit": false,
      "t": 36571.39199999996,
      "d": 139.8808124999996,
      "v": 60
    },
    {
      "midi": 50,
      "hit": false,
      "t": 36571.39199999996,
      "d": 139.8808124999996,
      "v": 60
    },
    {
      "midi": 38,
      "hit": false,
      "t": 36571.392000000014,
      "d": 47.61899999999878,
      "v": 75
    },
    {
      "midi": 45,
      "hit": false,
      "t": 36571.392000000014,
      "d": 47.61899999999878,
      "v": 75
    },
    {
      "midi": 50,
      "hit": false,
      "t": 36571.392000000014,
      "d": 47.61899999999878,
      "v": 75
    },
    {
      "midi": 57,
      "hit": false,
      "t": 36571.392000000014,
      "d": 47.61899999999878,
      "v": 75
    },
    {
      "midi": 62,
      "hit": false,
      "t": 36571.392000000014,
      "d": 47.61899999999878,
      "v": 75
    },
    {
      "midi": 50,
      "hit": false,
      "t": 36571.392000000014,
      "d": 139.8808124999996,
      "v": 75
    },
    {
      "midi": 57,
      "hit": false,
      "t": 36571.392000000014,
      "d": 139.8808124999996,
      "v": 75
    },
    {
      "midi": 62,
      "hit": false,
      "t": 36571.392000000014,
      "d": 139.8808124999996,
      "v": 75
    },
    {
      "midi": 26,
      "hit": false,
      "t": 36571.39200000002,
      "d": 142.8570000000036,
      "v": 110
    },
    {
      "midi": 36,
      "hit": false,
      "t": 36714.248999999894,
      "d": 139.8808124999996,
      "v": 92
    },
    {
      "midi": 28,
      "hit": false,
      "t": 36714.248999999894,
      "d": 139.8808124999996,
      "v": 45
    },
    {
      "midi": 38,
      "hit": false,
      "t": 36714.24899999996,
      "d": 139.8808124999996,
      "v": 60
    },
    {
      "midi": 45,
      "hit": false,
      "t": 36714.24899999996,
      "d": 139.8808124999996,
      "v": 60
    },
    {
      "midi": 50,
      "hit": false,
      "t": 36714.24899999996,
      "d": 139.8808124999996,
      "v": 60
    },
    {
      "midi": 38,
      "hit": false,
      "t": 36714.24900000001,
      "d": 47.61899999999878,
      "v": 75
    },
    {
      "midi": 45,
      "hit": false,
      "t": 36714.24900000001,
      "d": 47.61899999999878,
      "v": 75
    },
    {
      "midi": 50,
      "hit": false,
      "t": 36714.24900000001,
      "d": 47.61899999999878,
      "v": 75
    },
    {
      "midi": 57,
      "hit": false,
      "t": 36714.24900000001,
      "d": 47.61899999999878,
      "v": 75
    },
    {
      "midi": 62,
      "hit": false,
      "t": 36714.24900000001,
      "d": 47.61899999999878,
      "v": 75
    },
    {
      "midi": 50,
      "hit": false,
      "t": 36714.24900000001,
      "d": 139.8808124999996,
      "v": 75
    },
    {
      "midi": 57,
      "hit": false,
      "t": 36714.24900000001,
      "d": 139.8808124999996,
      "v": 75
    },
    {
      "midi": 62,
      "hit": false,
      "t": 36714.24900000001,
      "d": 139.8808124999996,
      "v": 75
    },
    {
      "midi": 26,
      "hit": false,
      "t": 36714.249000000025,
      "d": 142.8570000000036,
      "v": 110
    },
    {
      "midi": 36,
      "hit": false,
      "t": 36857.10599999989,
      "d": 139.8808124999996,
      "v": 92
    },
    {
      "midi": 28,
      "hit": false,
      "t": 36857.10599999989,
      "d": 139.8808124999996,
      "v": 45
    },
    {
      "midi": 46,
      "hit": false,
      "t": 36857.10599999995,
      "d": 380.9519999999975,
      "v": 127
    },
    {
      "midi": 38,
      "hit": false,
      "t": 36857.105999999956,
      "d": 238.09500000000116,
      "v": 84
    },
    {
      "midi": 45,
      "hit": false,
      "t": 36857.105999999956,
      "d": 238.09500000000116,
      "v": 84
    },
    {
      "midi": 50,
      "hit": false,
      "t": 36857.105999999956,
      "d": 238.09500000000116,
      "v": 84
    },
    {
      "midi": 38,
      "hit": false,
      "t": 36857.10600000001,
      "d": 428.57100000000355,
      "v": 105
    },
    {
      "midi": 45,
      "hit": false,
      "t": 36857.10600000001,
      "d": 428.57100000000355,
      "v": 105
    },
    {
      "midi": 50,
      "hit": false,
      "t": 36857.10600000001,
      "d": 428.57100000000355,
      "v": 105
    },
    {
      "midi": 57,
      "hit": false,
      "t": 36857.10600000001,
      "d": 428.57100000000355,
      "v": 105
    },
    {
      "midi": 62,
      "hit": false,
      "t": 36857.10600000001,
      "d": 428.57100000000355,
      "v": 105
    },
    {
      "midi": 50,
      "hit": false,
      "t": 36857.10600000001,
      "d": 428.57100000000355,
      "v": 75
    },
    {
      "midi": 57,
      "hit": false,
      "t": 36857.10600000001,
      "d": 428.57100000000355,
      "v": 75
    },
    {
      "midi": 62,
      "hit": false,
      "t": 36857.10600000001,
      "d": 428.57100000000355,
      "v": 75
    },
    {
      "midi": 74,
      "hit": false,
      "t": 36857.10600000002,
      "d": 785.713499999998,
      "v": 110
    },
    {
      "midi": 74,
      "hit": false,
      "t": 36857.10600000002,
      "d": 785.713499999998,
      "v": 127
    },
    {
      "midi": 26,
      "hit": false,
      "t": 36857.10600000003,
      "d": 285.71399999999994,
      "v": 110
    },
    {
      "midi": 36,
      "hit": false,
      "t": 36999.96299999989,
      "d": 139.8808124999996,
      "v": 92
    },
    {
      "midi": 28,
      "hit": false,
      "t": 36999.96299999989,
      "d": 139.8808124999996,
      "v": 45
    },
    {
      "midi": 36,
      "hit": false,
      "t": 37142.81999999988,
      "d": 139.8808124999996,
      "v": 92
    },
    {
      "midi": 28,
      "hit": false,
      "t": 37142.81999999988,
      "d": 139.8808124999996,
      "v": 45
    },
    {
      "midi": 38,
      "hit": false,
      "t": 37142.819999999956,
      "d": 139.8808124999996,
      "v": 60
    },
    {
      "midi": 26,
      "hit": false,
      "t": 37142.82000000003,
      "d": 142.8570000000036,
      "v": 110
    },
    {
      "midi": 36,
      "hit": false,
      "t": 37285.67699999988,
      "d": 139.8808124999996,
      "v": 92
    },
    {
      "midi": 28,
      "hit": false,
      "t": 37285.67699999988,
      "d": 139.8808124999996,
      "v": 45
    },
    {
      "midi": 40,
      "hit": false,
      "t": 37285.676999999945,
      "d": 380.9519999999975,
      "v": 127
    },
    {
      "midi": 46,
      "hit": false,
      "t": 37285.676999999945,
      "d": 380.9519999999975,
      "v": 127
    },
    {
      "midi": 38,
      "hit": false,
      "t": 37285.67699999995,
      "d": 139.8808124999996,
      "v": 60
    },
    {
      "midi": 45,
      "hit": false,
      "t": 37285.67699999995,
      "d": 139.8808124999996,
      "v": 60
    },
    {
      "midi": 50,
      "hit": false,
      "t": 37285.67699999995,
      "d": 139.8808124999996,
      "v": 60
    },
    {
      "midi": 26,
      "hit": false,
      "t": 37285.67700000003,
      "d": 142.8570000000036,
      "v": 110
    },
    {
      "midi": 36,
      "hit": false,
      "t": 37428.533999999876,
      "d": 139.8808124999996,
      "v": 92
    },
    {
      "midi": 28,
      "hit": false,
      "t": 37428.533999999876,
      "d": 139.8808124999996,
      "v": 45
    },
    {
      "midi": 38,
      "hit": false,
      "t": 37428.53399999995,
      "d": 139.8808124999996,
      "v": 60
    },
    {
      "midi": 45,
      "hit": false,
      "t": 37428.53399999995,
      "d": 139.8808124999996,
      "v": 60
    },
    {
      "midi": 50,
      "hit": false,
      "t": 37428.53399999995,
      "d": 139.8808124999996,
      "v": 60
    },
    {
      "midi": 38,
      "hit": false,
      "t": 37428.534000000014,
      "d": 47.61899999999878,
      "v": 75
    },
    {
      "midi": 45,
      "hit": false,
      "t": 37428.534000000014,
      "d": 47.61899999999878,
      "v": 75
    },
    {
      "midi": 50,
      "hit": false,
      "t": 37428.534000000014,
      "d": 47.61899999999878,
      "v": 75
    },
    {
      "midi": 57,
      "hit": false,
      "t": 37428.534000000014,
      "d": 47.61899999999878,
      "v": 75
    },
    {
      "midi": 62,
      "hit": false,
      "t": 37428.534000000014,
      "d": 47.61899999999878,
      "v": 75
    },
    {
      "midi": 50,
      "hit": false,
      "t": 37428.534000000014,
      "d": 139.8808124999996,
      "v": 75
    },
    {
      "midi": 57,
      "hit": false,
      "t": 37428.534000000014,
      "d": 139.8808124999996,
      "v": 75
    },
    {
      "midi": 62,
      "hit": false,
      "t": 37428.534000000014,
      "d": 139.8808124999996,
      "v": 75
    },
    {
      "midi": 26,
      "hit": false,
      "t": 37428.534000000036,
      "d": 142.8570000000036,
      "v": 110
    },
    {
      "midi": 36,
      "hit": false,
      "t": 37571.39099999987,
      "d": 139.8808124999996,
      "v": 92
    },
    {
      "midi": 28,
      "hit": false,
      "t": 37571.39099999987,
      "d": 139.8808124999996,
      "v": 45
    },
    {
      "midi": 38,
      "hit": false,
      "t": 37571.390999999945,
      "d": 139.8808124999996,
      "v": 60
    },
    {
      "midi": 45,
      "hit": false,
      "t": 37571.390999999945,
      "d": 139.8808124999996,
      "v": 60
    },
    {
      "midi": 50,
      "hit": false,
      "t": 37571.390999999945,
      "d": 139.8808124999996,
      "v": 60
    },
    {
      "midi": 38,
      "hit": false,
      "t": 37571.39100000001,
      "d": 47.61899999999878,
      "v": 75
    },
    {
      "midi": 45,
      "hit": false,
      "t": 37571.39100000001,
      "d": 47.61899999999878,
      "v": 75
    },
    {
      "midi": 50,
      "hit": false,
      "t": 37571.39100000001,
      "d": 47.61899999999878,
      "v": 75
    },
    {
      "midi": 57,
      "hit": false,
      "t": 37571.39100000001,
      "d": 47.61899999999878,
      "v": 75
    },
    {
      "midi": 62,
      "hit": false,
      "t": 37571.39100000001,
      "d": 47.61899999999878,
      "v": 75
    },
    {
      "midi": 50,
      "hit": false,
      "t": 37571.39100000001,
      "d": 139.8808124999996,
      "v": 75
    },
    {
      "midi": 57,
      "hit": false,
      "t": 37571.39100000001,
      "d": 139.8808124999996,
      "v": 75
    },
    {
      "midi": 62,
      "hit": false,
      "t": 37571.39100000001,
      "d": 139.8808124999996,
      "v": 75
    },
    {
      "midi": 26,
      "hit": false,
      "t": 37571.39100000004,
      "d": 142.8570000000036,
      "v": 110
    },
    {
      "midi": 36,
      "hit": false,
      "t": 37714.24799999987,
      "d": 139.8808124999996,
      "v": 92
    },
    {
      "midi": 28,
      "hit": false,
      "t": 37714.24799999987,
      "d": 139.8808124999996,
      "v": 45
    },
    {
      "midi": 40,
      "hit": false,
      "t": 37714.24799999994,
      "d": 238.09500000000116,
      "v": 84
    },
    {
      "midi": 47,
      "hit": false,
      "t": 37714.24799999994,
      "d": 238.09500000000116,
      "v": 84
    },
    {
      "midi": 52,
      "hit": false,
      "t": 37714.24799999994,
      "d": 238.09500000000116,
      "v": 84
    },
    {
      "midi": 46,
      "hit": false,
      "t": 37714.24799999994,
      "d": 380.9519999999975,
      "v": 127
    },
    {
      "midi": 55,
      "hit": false,
      "t": 37714.24799999999,
      "d": 1714.2839999999997,
      "v": 30
    },
    {
      "midi": 59,
      "hit": false,
      "t": 37714.24799999999,
      "d": 1714.2839999999997,
      "v": 30
    },
    {
      "midi": 64,
      "hit": false,
      "t": 37714.24799999999,
      "d": 1714.2839999999997,
      "v": 30
    },
    {
      "midi": 40,
      "hit": false,
      "t": 37714.24800000001,
      "d": 428.57100000000355,
      "v": 105
    },
    {
      "midi": 47,
      "hit": false,
      "t": 37714.24800000001,
      "d": 428.57100000000355,
      "v": 105
    },
    {
      "midi": 52,
      "hit": false,
      "t": 37714.24800000001,
      "d": 428.57100000000355,
      "v": 105
    },
    {
      "midi": 59,
      "hit": false,
      "t": 37714.24800000001,
      "d": 428.57100000000355,
      "v": 105
    },
    {
      "midi": 64,
      "hit": false,
      "t": 37714.24800000001,
      "d": 428.57100000000355,
      "v": 105
    },
    {
      "midi": 52,
      "hit": false,
      "t": 37714.24800000001,
      "d": 428.57100000000355,
      "v": 75
    },
    {
      "midi": 59,
      "hit": false,
      "t": 37714.24800000001,
      "d": 428.57100000000355,
      "v": 75
    },
    {
      "midi": 64,
      "hit": false,
      "t": 37714.24800000001,
      "d": 428.57100000000355,
      "v": 75
    },
    {
      "midi": 76,
      "hit": false,
      "t": 37714.24800000002,
      "d": 785.713499999998,
      "v": 110
    },
    {
      "midi": 76,
      "hit": false,
      "t": 37714.24800000002,
      "d": 785.713499999998,
      "v": 127
    },
    {
      "midi": 28,
      "hit": false,
      "t": 37714.24800000004,
      "d": 285.71399999999994,
      "v": 110
    },
    {
      "midi": 36,
      "hit": false,
      "t": 37857.104999999865,
      "d": 139.8808124999996,
      "v": 92
    },
    {
      "midi": 28,
      "hit": false,
      "t": 37857.104999999865,
      "d": 139.8808124999996,
      "v": 45
    },
    {
      "midi": 36,
      "hit": false,
      "t": 37999.96199999986,
      "d": 139.8808124999996,
      "v": 92
    },
    {
      "midi": 28,
      "hit": false,
      "t": 37999.96199999986,
      "d": 139.8808124999996,
      "v": 45
    },
    {
      "midi": 40,
      "hit": false,
      "t": 37999.96199999994,
      "d": 139.8808124999996,
      "v": 60
    },
    {
      "midi": 28,
      "hit": false,
      "t": 37999.96200000004,
      "d": 142.8570000000036,
      "v": 110
    },
    {
      "midi": 36,
      "hit": false,
      "t": 38142.81899999986,
      "d": 139.8808124999996,
      "v": 92
    },
    {
      "midi": 28,
      "hit": false,
      "t": 38142.81899999986,
      "d": 139.8808124999996,
      "v": 45
    },
    {
      "midi": 40,
      "hit": false,
      "t": 38142.81899999994,
      "d": 139.8808124999996,
      "v": 60
    },
    {
      "midi": 47,
      "hit": false,
      "t": 38142.81899999994,
      "d": 139.8808124999996,
      "v": 60
    },
    {
      "midi": 52,
      "hit": false,
      "t": 38142.81899999994,
      "d": 139.8808124999996,
      "v": 60
    },
    {
      "midi": 40,
      "hit": false,
      "t": 38142.81899999994,
      "d": 380.9519999999975,
      "v": 127
    },
    {
      "midi": 46,
      "hit": false,
      "t": 38142.81899999994,
      "d": 380.9519999999975,
      "v": 127
    },
    {
      "midi": 28,
      "hit": false,
      "t": 38142.81900000005,
      "d": 142.8570000000036,
      "v": 110
    },
    {
      "midi": 36,
      "hit": false,
      "t": 38285.675999999854,
      "d": 139.8808124999996,
      "v": 92
    },
    {
      "midi": 28,
      "hit": false,
      "t": 38285.675999999854,
      "d": 139.8808124999996,
      "v": 45
    },
    {
      "midi": 40,
      "hit": false,
      "t": 38285.675999999934,
      "d": 139.8808124999996,
      "v": 60
    },
    {
      "midi": 47,
      "hit": false,
      "t": 38285.675999999934,
      "d": 139.8808124999996,
      "v": 60
    },
    {
      "midi": 52,
      "hit": false,
      "t": 38285.675999999934,
      "d": 139.8808124999996,
      "v": 60
    },
    {
      "midi": 40,
      "hit": false,
      "t": 38285.676000000014,
      "d": 47.61899999999878,
      "v": 75
    },
    {
      "midi": 47,
      "hit": false,
      "t": 38285.676000000014,
      "d": 47.61899999999878,
      "v": 75
    },
    {
      "midi": 52,
      "hit": false,
      "t": 38285.676000000014,
      "d": 47.61899999999878,
      "v": 75
    },
    {
      "midi": 59,
      "hit": false,
      "t": 38285.676000000014,
      "d": 47.61899999999878,
      "v": 75
    },
    {
      "midi": 64,
      "hit": false,
      "t": 38285.676000000014,
      "d": 47.61899999999878,
      "v": 75
    },
    {
      "midi": 52,
      "hit": false,
      "t": 38285.676000000014,
      "d": 139.8808124999996,
      "v": 75
    },
    {
      "midi": 59,
      "hit": false,
      "t": 38285.676000000014,
      "d": 139.8808124999996,
      "v": 75
    },
    {
      "midi": 64,
      "hit": false,
      "t": 38285.676000000014,
      "d": 139.8808124999996,
      "v": 75
    },
    {
      "midi": 28,
      "hit": false,
      "t": 38285.67600000005,
      "d": 142.8570000000036,
      "v": 110
    },
    {
      "midi": 36,
      "hit": false,
      "t": 38428.53299999985,
      "d": 139.8808124999996,
      "v": 92
    },
    {
      "midi": 28,
      "hit": false,
      "t": 38428.53299999985,
      "d": 139.8808124999996,
      "v": 45
    },
    {
      "midi": 40,
      "hit": false,
      "t": 38428.53299999993,
      "d": 139.8808124999996,
      "v": 60
    },
    {
      "midi": 47,
      "hit": false,
      "t": 38428.53299999993,
      "d": 139.8808124999996,
      "v": 60
    },
    {
      "midi": 52,
      "hit": false,
      "t": 38428.53299999993,
      "d": 139.8808124999996,
      "v": 60
    },
    {
      "midi": 40,
      "hit": false,
      "t": 38428.53300000001,
      "d": 47.61899999999878,
      "v": 75
    },
    {
      "midi": 47,
      "hit": false,
      "t": 38428.53300000001,
      "d": 47.61899999999878,
      "v": 75
    },
    {
      "midi": 52,
      "hit": false,
      "t": 38428.53300000001,
      "d": 47.61899999999878,
      "v": 75
    },
    {
      "midi": 59,
      "hit": false,
      "t": 38428.53300000001,
      "d": 47.61899999999878,
      "v": 75
    },
    {
      "midi": 64,
      "hit": false,
      "t": 38428.53300000001,
      "d": 47.61899999999878,
      "v": 75
    },
    {
      "midi": 52,
      "hit": false,
      "t": 38428.53300000001,
      "d": 139.8808124999996,
      "v": 75
    },
    {
      "midi": 59,
      "hit": false,
      "t": 38428.53300000001,
      "d": 139.8808124999996,
      "v": 75
    },
    {
      "midi": 64,
      "hit": false,
      "t": 38428.53300000001,
      "d": 139.8808124999996,
      "v": 75
    },
    {
      "midi": 28,
      "hit": false,
      "t": 38428.533000000054,
      "d": 142.8570000000036,
      "v": 110
    },
    {
      "midi": 36,
      "hit": false,
      "t": 38571.38999999985,
      "d": 139.8808124999996,
      "v": 92
    },
    {
      "midi": 28,
      "hit": false,
      "t": 38571.38999999985,
      "d": 139.8808124999996,
      "v": 45
    },
    {
      "midi": 40,
      "hit": false,
      "t": 38571.38999999993,
      "d": 238.09500000000116,
      "v": 84
    },
    {
      "midi": 47,
      "hit": false,
      "t": 38571.38999999993,
      "d": 238.09500000000116,
      "v": 84
    },
    {
      "midi": 52,
      "hit": false,
      "t": 38571.38999999993,
      "d": 238.09500000000116,
      "v": 84
    },
    {
      "midi": 46,
      "hit": false,
      "t": 38571.389999999934,
      "d": 380.9519999999975,
      "v": 127
    },
    {
      "midi": 40,
      "hit": false,
      "t": 38571.39000000001,
      "d": 428.57100000000355,
      "v": 105
    },
    {
      "midi": 47,
      "hit": false,
      "t": 38571.39000000001,
      "d": 428.57100000000355,
      "v": 105
    },
    {
      "midi": 52,
      "hit": false,
      "t": 38571.39000000001,
      "d": 428.57100000000355,
      "v": 105
    },
    {
      "midi": 59,
      "hit": false,
      "t": 38571.39000000001,
      "d": 428.57100000000355,
      "v": 105
    },
    {
      "midi": 64,
      "hit": false,
      "t": 38571.39000000001,
      "d": 428.57100000000355,
      "v": 105
    },
    {
      "midi": 52,
      "hit": false,
      "t": 38571.39000000001,
      "d": 428.57100000000355,
      "v": 75
    },
    {
      "midi": 59,
      "hit": false,
      "t": 38571.39000000001,
      "d": 428.57100000000355,
      "v": 75
    },
    {
      "midi": 64,
      "hit": false,
      "t": 38571.39000000001,
      "d": 428.57100000000355,
      "v": 75
    },
    {
      "midi": 76,
      "hit": false,
      "t": 38571.39000000002,
      "d": 285.71399999999994,
      "v": 110
    },
    {
      "midi": 76,
      "hit": false,
      "t": 38571.39000000002,
      "d": 285.71399999999994,
      "v": 127
    },
    {
      "midi": 28,
      "hit": false,
      "t": 38571.39000000006,
      "d": 285.71399999999994,
      "v": 110
    },
    {
      "midi": 36,
      "hit": false,
      "t": 38714.24699999984,
      "d": 139.8808124999996,
      "v": 92
    },
    {
      "midi": 28,
      "hit": false,
      "t": 38714.24699999984,
      "d": 139.8808124999996,
      "v": 45
    },
    {
      "midi": 36,
      "hit": false,
      "t": 38857.10399999984,
      "d": 139.8808124999996,
      "v": 92
    },
    {
      "midi": 28,
      "hit": false,
      "t": 38857.10399999984,
      "d": 139.8808124999996,
      "v": 45
    },
    {
      "midi": 40,
      "hit": false,
      "t": 38857.10399999993,
      "d": 139.8808124999996,
      "v": 60
    },
    {
      "midi": 78,
      "hit": false,
      "t": 38857.10400000002,
      "d": 285.71399999999994,
      "v": 110
    },
    {
      "midi": 78,
      "hit": false,
      "t": 38857.10400000002,
      "d": 285.71399999999994,
      "v": 127
    },
    {
      "midi": 28,
      "hit": false,
      "t": 38857.10400000006,
      "d": 142.8570000000036,
      "v": 110
    },
    {
      "midi": 36,
      "hit": false,
      "t": 38999.960999999836,
      "d": 139.8808124999996,
      "v": 92
    },
    {
      "midi": 28,
      "hit": false,
      "t": 38999.960999999836,
      "d": 139.8808124999996,
      "v": 45
    },
    {
      "midi": 40,
      "hit": false,
      "t": 38999.96099999992,
      "d": 139.8808124999996,
      "v": 60
    },
    {
      "midi": 47,
      "hit": false,
      "t": 38999.96099999992,
      "d": 139.8808124999996,
      "v": 60
    },
    {
      "midi": 52,
      "hit": false,
      "t": 38999.96099999992,
      "d": 139.8808124999996,
      "v": 60
    },
    {
      "midi": 40,
      "hit": false,
      "t": 38999.96099999993,
      "d": 380.9519999999975,
      "v": 127
    },
    {
      "midi": 46,
      "hit": false,
      "t": 38999.96099999993,
      "d": 380.9519999999975,
      "v": 127
    },
    {
      "midi": 28,
      "hit": false,
      "t": 38999.96100000006,
      "d": 142.8570000000036,
      "v": 110
    },
    {
      "midi": 36,
      "hit": false,
      "t": 39142.81799999983,
      "d": 139.8808124999996,
      "v": 92
    },
    {
      "midi": 28,
      "hit": false,
      "t": 39142.81799999983,
      "d": 139.8808124999996,
      "v": 45
    },
    {
      "midi": 40,
      "hit": false,
      "t": 39142.81799999992,
      "d": 139.8808124999996,
      "v": 60
    },
    {
      "midi": 47,
      "hit": false,
      "t": 39142.81799999992,
      "d": 139.8808124999996,
      "v": 60
    },
    {
      "midi": 52,
      "hit": false,
      "t": 39142.81799999992,
      "d": 139.8808124999996,
      "v": 60
    },
    {
      "midi": 40,
      "hit": false,
      "t": 39142.818000000014,
      "d": 47.61899999999878,
      "v": 75
    },
    {
      "midi": 47,
      "hit": false,
      "t": 39142.818000000014,
      "d": 47.61899999999878,
      "v": 75
    },
    {
      "midi": 52,
      "hit": false,
      "t": 39142.818000000014,
      "d": 47.61899999999878,
      "v": 75
    },
    {
      "midi": 59,
      "hit": false,
      "t": 39142.818000000014,
      "d": 47.61899999999878,
      "v": 75
    },
    {
      "midi": 64,
      "hit": false,
      "t": 39142.818000000014,
      "d": 47.61899999999878,
      "v": 75
    },
    {
      "midi": 52,
      "hit": false,
      "t": 39142.818000000014,
      "d": 139.8808124999996,
      "v": 75
    },
    {
      "midi": 59,
      "hit": false,
      "t": 39142.818000000014,
      "d": 139.8808124999996,
      "v": 75
    },
    {
      "midi": 64,
      "hit": false,
      "t": 39142.818000000014,
      "d": 139.8808124999996,
      "v": 75
    },
    {
      "midi": 79,
      "hit": false,
      "t": 39142.81800000002,
      "d": 285.71399999999994,
      "v": 110
    },
    {
      "midi": 79,
      "hit": false,
      "t": 39142.81800000002,
      "d": 285.71399999999994,
      "v": 127
    },
    {
      "midi": 28,
      "hit": false,
      "t": 39142.818000000065,
      "d": 142.8570000000036,
      "v": 110
    },
    {
      "midi": 36,
      "hit": false,
      "t": 39285.67499999983,
      "d": 139.8808124999996,
      "v": 92
    },
    {
      "midi": 28,
      "hit": false,
      "t": 39285.67499999983,
      "d": 139.8808124999996,
      "v": 45
    },
    {
      "midi": 40,
      "hit": false,
      "t": 39285.674999999916,
      "d": 139.8808124999996,
      "v": 60
    },
    {
      "midi": 47,
      "hit": false,
      "t": 39285.674999999916,
      "d": 139.8808124999996,
      "v": 60
    },
    {
      "midi": 52,
      "hit": false,
      "t": 39285.674999999916,
      "d": 139.8808124999996,
      "v": 60
    },
    {
      "midi": 40,
      "hit": false,
      "t": 39285.67500000001,
      "d": 47.61899999999878,
      "v": 75
    },
    {
      "midi": 47,
      "hit": false,
      "t": 39285.67500000001,
      "d": 47.61899999999878,
      "v": 75
    },
    {
      "midi": 52,
      "hit": false,
      "t": 39285.67500000001,
      "d": 47.61899999999878,
      "v": 75
    },
    {
      "midi": 59,
      "hit": false,
      "t": 39285.67500000001,
      "d": 47.61899999999878,
      "v": 75
    },
    {
      "midi": 64,
      "hit": false,
      "t": 39285.67500000001,
      "d": 47.61899999999878,
      "v": 75
    },
    {
      "midi": 52,
      "hit": false,
      "t": 39285.67500000001,
      "d": 139.8808124999996,
      "v": 75
    },
    {
      "midi": 59,
      "hit": false,
      "t": 39285.67500000001,
      "d": 139.8808124999996,
      "v": 75
    },
    {
      "midi": 64,
      "hit": false,
      "t": 39285.67500000001,
      "d": 139.8808124999996,
      "v": 75
    },
    {
      "midi": 28,
      "hit": false,
      "t": 39285.67500000007,
      "d": 142.8570000000036,
      "v": 110
    },
    {
      "midi": 36,
      "hit": false,
      "t": 39428.531999999825,
      "d": 139.8808124999996,
      "v": 92
    },
    {
      "midi": 28,
      "hit": false,
      "t": 39428.531999999825,
      "d": 139.8808124999996,
      "v": 45
    },
    {
      "midi": 38,
      "hit": false,
      "t": 39428.53199999991,
      "d": 238.09500000000116,
      "v": 84
    },
    {
      "midi": 45,
      "hit": false,
      "t": 39428.53199999991,
      "d": 238.09500000000116,
      "v": 84
    },
    {
      "midi": 50,
      "hit": false,
      "t": 39428.53199999991,
      "d": 238.09500000000116,
      "v": 84
    },
    {
      "midi": 46,
      "hit": false,
      "t": 39428.53199999993,
      "d": 380.9519999999975,
      "v": 127
    },
    {
      "midi": 54,
      "hit": false,
      "t": 39428.53199999999,
      "d": 1714.2839999999997,
      "v": 30
    },
    {
      "midi": 57,
      "hit": false,
      "t": 39428.53199999999,
      "d": 1714.2839999999997,
      "v": 30
    },
    {
      "midi": 62,
      "hit": false,
      "t": 39428.53199999999,
      "d": 1714.2839999999997,
      "v": 30
    },
    {
      "midi": 38,
      "hit": false,
      "t": 39428.53200000001,
      "d": 428.57100000000355,
      "v": 105
    },
    {
      "midi": 45,
      "hit": false,
      "t": 39428.53200000001,
      "d": 428.57100000000355,
      "v": 105
    },
    {
      "midi": 50,
      "hit": false,
      "t": 39428.53200000001,
      "d": 428.57100000000355,
      "v": 105
    },
    {
      "midi": 57,
      "hit": false,
      "t": 39428.53200000001,
      "d": 428.57100000000355,
      "v": 105
    },
    {
      "midi": 62,
      "hit": false,
      "t": 39428.53200000001,
      "d": 428.57100000000355,
      "v": 105
    },
    {
      "midi": 50,
      "hit": false,
      "t": 39428.53200000001,
      "d": 428.57100000000355,
      "v": 75
    },
    {
      "midi": 57,
      "hit": false,
      "t": 39428.53200000001,
      "d": 428.57100000000355,
      "v": 75
    },
    {
      "midi": 62,
      "hit": false,
      "t": 39428.53200000001,
      "d": 428.57100000000355,
      "v": 75
    },
    {
      "midi": 81,
      "hit": false,
      "t": 39428.53200000002,
      "d": 1238.0939999999973,
      "v": 110
    },
    {
      "midi": 81,
      "hit": false,
      "t": 39428.53200000002,
      "d": 1238.0939999999973,
      "v": 127
    },
    {
      "midi": 26,
      "hit": false,
      "t": 39428.53200000007,
      "d": 285.71399999999994,
      "v": 110
    },
    {
      "midi": 36,
      "hit": false,
      "t": 39571.38899999982,
      "d": 139.8808124999996,
      "v": 92
    },
    {
      "midi": 28,
      "hit": false,
      "t": 39571.38899999982,
      "d": 139.8808124999996,
      "v": 45
    },
    {
      "midi": 36,
      "hit": false,
      "t": 39714.24599999982,
      "d": 139.8808124999996,
      "v": 92
    },
    {
      "midi": 28,
      "hit": false,
      "t": 39714.24599999982,
      "d": 139.8808124999996,
      "v": 45
    },
    {
      "midi": 38,
      "hit": false,
      "t": 39714.24599999991,
      "d": 139.8808124999996,
      "v": 60
    },
    {
      "midi": 26,
      "hit": false,
      "t": 39714.24600000007,
      "d": 142.8570000000036,
      "v": 110
    },
    {
      "midi": 36,
      "hit": false,
      "t": 39857.10299999981,
      "d": 139.8808124999996,
      "v": 92
    },
    {
      "midi": 28,
      "hit": false,
      "t": 39857.10299999981,
      "d": 139.8808124999996,
      "v": 45
    },
    {
      "midi": 38,
      "hit": false,
      "t": 39857.10299999991,
      "d": 139.8808124999996,
      "v": 60
    },
    {
      "midi": 45,
      "hit": false,
      "t": 39857.10299999991,
      "d": 139.8808124999996,
      "v": 60
    },
    {
      "midi": 50,
      "hit": false,
      "t": 39857.10299999991,
      "d": 139.8808124999996,
      "v": 60
    },
    {
      "midi": 40,
      "hit": false,
      "t": 39857.10299999992,
      "d": 380.9519999999975,
      "v": 127
    },
    {
      "midi": 46,
      "hit": false,
      "t": 39857.10299999992,
      "d": 380.9519999999975,
      "v": 127
    },
    {
      "midi": 26,
      "hit": false,
      "t": 39857.103000000076,
      "d": 142.8570000000036,
      "v": 110
    },
    {
      "midi": 36,
      "hit": false,
      "t": 39999.95999999981,
      "d": 139.8808124999996,
      "v": 92
    },
    {
      "midi": 28,
      "hit": false,
      "t": 39999.95999999981,
      "d": 139.8808124999996,
      "v": 45
    },
    {
      "midi": 38,
      "hit": false,
      "t": 39999.959999999905,
      "d": 139.8808124999996,
      "v": 60
    },
    {
      "midi": 45,
      "hit": false,
      "t": 39999.959999999905,
      "d": 139.8808124999996,
      "v": 60
    },
    {
      "midi": 50,
      "hit": false,
      "t": 39999.959999999905,
      "d": 139.8808124999996,
      "v": 60
    },
    {
      "midi": 38,
      "hit": false,
      "t": 39999.960000000014,
      "d": 47.61899999999878,
      "v": 75
    },
    {
      "midi": 45,
      "hit": false,
      "t": 39999.960000000014,
      "d": 47.61899999999878,
      "v": 75
    },
    {
      "midi": 50,
      "hit": false,
      "t": 39999.960000000014,
      "d": 47.61899999999878,
      "v": 75
    },
    {
      "midi": 57,
      "hit": false,
      "t": 39999.960000000014,
      "d": 47.61899999999878,
      "v": 75
    },
    {
      "midi": 62,
      "hit": false,
      "t": 39999.960000000014,
      "d": 47.61899999999878,
      "v": 75
    },
    {
      "midi": 50,
      "hit": false,
      "t": 39999.960000000014,
      "d": 139.8808124999996,
      "v": 75
    },
    {
      "midi": 57,
      "hit": false,
      "t": 39999.960000000014,
      "d": 139.8808124999996,
      "v": 75
    },
    {
      "midi": 62,
      "hit": false,
      "t": 39999.960000000014,
      "d": 139.8808124999996,
      "v": 75
    },
    {
      "midi": 26,
      "hit": false,
      "t": 39999.96000000008,
      "d": 142.8570000000036,
      "v": 110
    },
    {
      "midi": 36,
      "hit": false,
      "t": 40142.816999999806,
      "d": 139.8808124999996,
      "v": 92
    },
    {
      "midi": 28,
      "hit": false,
      "t": 40142.816999999806,
      "d": 139.8808124999996,
      "v": 45
    },
    {
      "midi": 38,
      "hit": false,
      "t": 40142.8169999999,
      "d": 139.8808124999996,
      "v": 60
    },
    {
      "midi": 45,
      "hit": false,
      "t": 40142.8169999999,
      "d": 139.8808124999996,
      "v": 60
    },
    {
      "midi": 50,
      "hit": false,
      "t": 40142.8169999999,
      "d": 139.8808124999996,
      "v": 60
    },
    {
      "midi": 38,
      "hit": false,
      "t": 40142.81700000001,
      "d": 47.61899999999878,
      "v": 75
    },
    {
      "midi": 45,
      "hit": false,
      "t": 40142.81700000001,
      "d": 47.61899999999878,
      "v": 75
    },
    {
      "midi": 50,
      "hit": false,
      "t": 40142.81700000001,
      "d": 47.61899999999878,
      "v": 75
    },
    {
      "midi": 57,
      "hit": false,
      "t": 40142.81700000001,
      "d": 47.61899999999878,
      "v": 75
    },
    {
      "midi": 62,
      "hit": false,
      "t": 40142.81700000001,
      "d": 47.61899999999878,
      "v": 75
    },
    {
      "midi": 50,
      "hit": false,
      "t": 40142.81700000001,
      "d": 139.8808124999996,
      "v": 75
    },
    {
      "midi": 57,
      "hit": false,
      "t": 40142.81700000001,
      "d": 139.8808124999996,
      "v": 75
    },
    {
      "midi": 62,
      "hit": false,
      "t": 40142.81700000001,
      "d": 139.8808124999996,
      "v": 75
    },
    {
      "midi": 26,
      "hit": false,
      "t": 40142.81700000008,
      "d": 142.8570000000036,
      "v": 110
    },
    {
      "midi": 36,
      "hit": false,
      "t": 40285.6739999998,
      "d": 139.8808124999996,
      "v": 92
    },
    {
      "midi": 28,
      "hit": false,
      "t": 40285.6739999998,
      "d": 139.8808124999996,
      "v": 45
    },
    {
      "midi": 38,
      "hit": false,
      "t": 40285.6739999999,
      "d": 238.09500000000116,
      "v": 84
    },
    {
      "midi": 45,
      "hit": false,
      "t": 40285.6739999999,
      "d": 238.09500000000116,
      "v": 84
    },
    {
      "midi": 50,
      "hit": false,
      "t": 40285.6739999999,
      "d": 238.09500000000116,
      "v": 84
    },
    {
      "midi": 46,
      "hit": false,
      "t": 40285.67399999992,
      "d": 139.8808124999996,
      "v": 127
    },
    {
      "midi": 38,
      "hit": false,
      "t": 40285.674000000006,
      "d": 428.57100000000355,
      "v": 105
    },
    {
      "midi": 45,
      "hit": false,
      "t": 40285.674000000006,
      "d": 428.57100000000355,
      "v": 105
    },
    {
      "midi": 50,
      "hit": false,
      "t": 40285.674000000006,
      "d": 428.57100000000355,
      "v": 105
    },
    {
      "midi": 57,
      "hit": false,
      "t": 40285.674000000006,
      "d": 428.57100000000355,
      "v": 105
    },
    {
      "midi": 62,
      "hit": false,
      "t": 40285.674000000006,
      "d": 428.57100000000355,
      "v": 105
    },
    {
      "midi": 50,
      "hit": false,
      "t": 40285.674000000006,
      "d": 428.57100000000355,
      "v": 75
    },
    {
      "midi": 57,
      "hit": false,
      "t": 40285.674000000006,
      "d": 428.57100000000355,
      "v": 75
    },
    {
      "midi": 62,
      "hit": false,
      "t": 40285.674000000006,
      "d": 428.57100000000355,
      "v": 75
    },
    {
      "midi": 26,
      "hit": false,
      "t": 40285.67400000009,
      "d": 285.71399999999994,
      "v": 110
    },
    {
      "midi": 36,
      "hit": false,
      "t": 40428.5309999998,
      "d": 139.8808124999996,
      "v": 92
    },
    {
      "midi": 28,
      "hit": false,
      "t": 40428.5309999998,
      "d": 139.8808124999996,
      "v": 45
    },
    {
      "midi": 40,
      "hit": false,
      "t": 40428.530999999915,
      "d": 238.09500000000116,
      "v": 127
    },
    {
      "midi": 36,
      "hit": false,
      "t": 40571.387999999795,
      "d": 139.8808124999996,
      "v": 92
    },
    {
      "midi": 28,
      "hit": false,
      "t": 40571.387999999795,
      "d": 139.8808124999996,
      "v": 45
    },
    {
      "midi": 38,
      "hit": false,
      "t": 40571.3879999999,
      "d": 139.8808124999996,
      "v": 60
    },
    {
      "midi": 26,
      "hit": false,
      "t": 40571.388000000086,
      "d": 142.8570000000036,
      "v": 110
    },
    {
      "midi": 36,
      "hit": false,
      "t": 40714.24499999979,
      "d": 139.8808124999996,
      "v": 92
    },
    {
      "midi": 28,
      "hit": false,
      "t": 40714.24499999979,
      "d": 139.8808124999996,
      "v": 45
    },
    {
      "midi": 38,
      "hit": false,
      "t": 40714.24499999989,
      "d": 139.8808124999996,
      "v": 60
    },
    {
      "midi": 45,
      "hit": false,
      "t": 40714.24499999989,
      "d": 139.8808124999996,
      "v": 60
    },
    {
      "midi": 50,
      "hit": false,
      "t": 40714.24499999989,
      "d": 139.8808124999996,
      "v": 60
    },
    {
      "midi": 40,
      "hit": false,
      "t": 40714.244999999915,
      "d": 139.8808124999996,
      "v": 127
    },
    {
      "midi": 46,
      "hit": false,
      "t": 40714.244999999915,
      "d": 139.8808124999996,
      "v": 127
    },
    {
      "midi": 26,
      "hit": false,
      "t": 40714.24500000009,
      "d": 142.8570000000036,
      "v": 110
    },
    {
      "midi": 36,
      "hit": false,
      "t": 40857.10199999979,
      "d": 139.8808124999996,
      "v": 92
    },
    {
      "midi": 28,
      "hit": false,
      "t": 40857.10199999979,
      "d": 139.8808124999996,
      "v": 45
    },
    {
      "midi": 38,
      "hit": false,
      "t": 40857.10199999989,
      "d": 139.8808124999996,
      "v": 60
    },
    {
      "midi": 45,
      "hit": false,
      "t": 40857.10199999989,
      "d": 139.8808124999996,
      "v": 60
    },
    {
      "midi": 50,
      "hit": false,
      "t": 40857.10199999989,
      "d": 139.8808124999996,
      "v": 60
    },
    {
      "midi": 43,
      "hit": false,
      "t": 40857.10199999991,
      "d": 139.8808124999996,
      "v": 127
    },
    {
      "midi": 38,
      "hit": false,
      "t": 40857.10200000001,
      "d": 47.61899999999878,
      "v": 75
    },
    {
      "midi": 45,
      "hit": false,
      "t": 40857.10200000001,
      "d": 47.61899999999878,
      "v": 75
    },
    {
      "midi": 50,
      "hit": false,
      "t": 40857.10200000001,
      "d": 47.61899999999878,
      "v": 75
    },
    {
      "midi": 57,
      "hit": false,
      "t": 40857.10200000001,
      "d": 47.61899999999878,
      "v": 75
    },
    {
      "midi": 62,
      "hit": false,
      "t": 40857.10200000001,
      "d": 47.61899999999878,
      "v": 75
    },
    {
      "midi": 50,
      "hit": false,
      "t": 40857.10200000001,
      "d": 139.8808124999996,
      "v": 75
    },
    {
      "midi": 57,
      "hit": false,
      "t": 40857.10200000001,
      "d": 139.8808124999996,
      "v": 75
    },
    {
      "midi": 62,
      "hit": false,
      "t": 40857.10200000001,
      "d": 139.8808124999996,
      "v": 75
    },
    {
      "midi": 26,
      "hit": false,
      "t": 40857.10200000009,
      "d": 142.8570000000036,
      "v": 110
    },
    {
      "midi": 36,
      "hit": false,
      "t": 40999.958999999784,
      "d": 139.8808124999996,
      "v": 92
    },
    {
      "midi": 28,
      "hit": false,
      "t": 40999.958999999784,
      "d": 139.8808124999996,
      "v": 45
    },
    {
      "midi": 38,
      "hit": false,
      "t": 40999.958999999886,
      "d": 139.8808124999996,
      "v": 60
    },
    {
      "midi": 45,
      "hit": false,
      "t": 40999.958999999886,
      "d": 139.8808124999996,
      "v": 60
    },
    {
      "midi": 50,
      "hit": false,
      "t": 40999.958999999886,
      "d": 139.8808124999996,
      "v": 60
    },
    {
      "midi": 41,
      "hit": false,
      "t": 40999.95899999991,
      "d": 139.8808124999996,
      "v": 127
    },
    {
      "midi": 38,
      "hit": false,
      "t": 40999.95900000001,
      "d": 47.61899999999878,
      "v": 75
    },
    {
      "midi": 45,
      "hit": false,
      "t": 40999.95900000001,
      "d": 47.61899999999878,
      "v": 75
    },
    {
      "midi": 50,
      "hit": false,
      "t": 40999.95900000001,
      "d": 47.61899999999878,
      "v": 75
    },
    {
      "midi": 57,
      "hit": false,
      "t": 40999.95900000001,
      "d": 47.61899999999878,
      "v": 75
    },
    {
      "midi": 62,
      "hit": false,
      "t": 40999.95900000001,
      "d": 47.61899999999878,
      "v": 75
    },
    {
      "midi": 50,
      "hit": false,
      "t": 40999.95900000001,
      "d": 139.8808124999996,
      "v": 75
    },
    {
      "midi": 57,
      "hit": false,
      "t": 40999.95900000001,
      "d": 139.8808124999996,
      "v": 75
    },
    {
      "midi": 62,
      "hit": false,
      "t": 40999.95900000001,
      "d": 139.8808124999996,
      "v": 75
    },
    {
      "midi": 26,
      "hit": false,
      "t": 40999.9590000001,
      "d": 142.8570000000036,
      "v": 110
    },
    {
      "midi": 36,
      "hit": false,
      "t": 41142.81599999978,
      "d": 139.8808124999996,
      "v": 92
    },
    {
      "midi": 28,
      "hit": false,
      "t": 41142.81599999978,
      "d": 139.8808124999996,
      "v": 45
    },
    {
      "midi": 48,
      "hit": false,
      "t": 41142.81599999988,
      "d": 380.9519999999975,
      "v": 84
    },
    {
      "midi": 55,
      "hit": false,
      "t": 41142.81599999988,
      "d": 380.9519999999975,
      "v": 84
    },
    {
      "midi": 60,
      "hit": false,
      "t": 41142.81599999988,
      "d": 380.9519999999975,
      "v": 84
    },
    {
      "midi": 57,
      "hit": false,
      "t": 41142.815999999904,
      "d": 380.9519999999975,
      "v": 127
    },
    {
      "midi": 55,
      "hit": false,
      "t": 41142.81599999999,
      "d": 1714.2839999999997,
      "v": 30
    },
    {
      "midi": 60,
      "hit": false,
      "t": 41142.81599999999,
      "d": 1714.2839999999997,
      "v": 30
    },
    {
      "midi": 64,
      "hit": false,
      "t": 41142.81599999999,
      "d": 1714.2839999999997,
      "v": 30
    },
    {
      "midi": 48,
      "hit": false,
      "t": 41142.816000000006,
      "d": 428.57100000000355,
      "v": 105
    },
    {
      "midi": 55,
      "hit": false,
      "t": 41142.816000000006,
      "d": 428.57100000000355,
      "v": 105
    },
    {
      "midi": 60,
      "hit": false,
      "t": 41142.816000000006,
      "d": 428.57100000000355,
      "v": 105
    },
    {
      "midi": 48,
      "hit": false,
      "t": 41142.816000000006,
      "d": 380.9519999999975,
      "v": 75
    },
    {
      "midi": 55,
      "hit": false,
      "t": 41142.816000000006,
      "d": 380.9519999999975,
      "v": 75
    },
    {
      "midi": 60,
      "hit": false,
      "t": 41142.816000000006,
      "d": 380.9519999999975,
      "v": 75
    },
    {
      "midi": 84,
      "hit": false,
      "t": 41142.81600000002,
      "d": 785.713499999998,
      "v": 110
    },
    {
      "midi": 84,
      "hit": false,
      "t": 41142.81600000002,
      "d": 785.713499999998,
      "v": 127
    },
    {
      "midi": 36,
      "hit": false,
      "t": 41142.8160000001,
      "d": 285.71399999999994,
      "v": 110
    },
    {
      "midi": 36,
      "hit": false,
      "t": 41285.67299999978,
      "d": 139.8808124999996,
      "v": 92
    },
    {
      "midi": 28,
      "hit": false,
      "t": 41285.67299999978,
      "d": 139.8808124999996,
      "v": 45
    },
    {
      "midi": 36,
      "hit": false,
      "t": 41428.52999999977,
      "d": 139.8808124999996,
      "v": 92
    },
    {
      "midi": 28,
      "hit": false,
      "t": 41428.52999999977,
      "d": 139.8808124999996,
      "v": 45
    },
    {
      "midi": 36,
      "hit": false,
      "t": 41428.5300000001,
      "d": 142.8570000000036,
      "v": 110
    },
    {
      "midi": 36,
      "hit": false,
      "t": 41571.38699999977,
      "d": 139.8808124999996,
      "v": 92
    },
    {
      "midi": 28,
      "hit": false,
      "t": 41571.38699999977,
      "d": 139.8808124999996,
      "v": 45
    },
    {
      "midi": 48,
      "hit": false,
      "t": 41571.38699999988,
      "d": 139.8808124999996,
      "v": 60
    },
    {
      "midi": 55,
      "hit": false,
      "t": 41571.38699999988,
      "d": 139.8808124999996,
      "v": 60
    },
    {
      "midi": 60,
      "hit": false,
      "t": 41571.38699999988,
      "d": 139.8808124999996,
      "v": 60
    },
    {
      "midi": 40,
      "hit": false,
      "t": 41571.3869999999,
      "d": 380.9519999999975,
      "v": 127
    },
    {
      "midi": 46,
      "hit": false,
      "t": 41571.3869999999,
      "d": 380.9519999999975,
      "v": 127
    },
    {
      "midi": 36,
      "hit": false,
      "t": 41571.387000000104,
      "d": 142.8570000000036,
      "v": 110
    },
    {
      "midi": 36,
      "hit": false,
      "t": 41714.243999999766,
      "d": 139.8808124999996,
      "v": 92
    },
    {
      "midi": 28,
      "hit": false,
      "t": 41714.243999999766,
      "d": 139.8808124999996,
      "v": 45
    },
    {
      "midi": 48,
      "hit": false,
      "t": 41714.243999999875,
      "d": 139.8808124999996,
      "v": 60
    },
    {
      "midi": 55,
      "hit": false,
      "t": 41714.243999999875,
      "d": 139.8808124999996,
      "v": 60
    },
    {
      "midi": 60,
      "hit": false,
      "t": 41714.243999999875,
      "d": 139.8808124999996,
      "v": 60
    },
    {
      "midi": 48,
      "hit": false,
      "t": 41714.244000000006,
      "d": 139.8808124999996,
      "v": 75
    },
    {
      "midi": 55,
      "hit": false,
      "t": 41714.244000000006,
      "d": 139.8808124999996,
      "v": 75
    },
    {
      "midi": 60,
      "hit": false,
      "t": 41714.244000000006,
      "d": 139.8808124999996,
      "v": 75
    },
    {
      "midi": 48,
      "hit": false,
      "t": 41714.24400000001,
      "d": 47.61899999999878,
      "v": 75
    },
    {
      "midi": 55,
      "hit": false,
      "t": 41714.24400000001,
      "d": 47.61899999999878,
      "v": 75
    },
    {
      "midi": 60,
      "hit": false,
      "t": 41714.24400000001,
      "d": 47.61899999999878,
      "v": 75
    },
    {
      "midi": 36,
      "hit": false,
      "t": 41714.24400000011,
      "d": 142.8570000000036,
      "v": 110
    },
    {
      "midi": 36,
      "hit": false,
      "t": 41857.10099999976,
      "d": 139.8808124999996,
      "v": 92
    },
    {
      "midi": 28,
      "hit": false,
      "t": 41857.10099999976,
      "d": 139.8808124999996,
      "v": 45
    },
    {
      "midi": 48,
      "hit": false,
      "t": 41857.10099999987,
      "d": 139.8808124999996,
      "v": 60
    },
    {
      "midi": 55,
      "hit": false,
      "t": 41857.10099999987,
      "d": 139.8808124999996,
      "v": 60
    },
    {
      "midi": 60,
      "hit": false,
      "t": 41857.10099999987,
      "d": 139.8808124999996,
      "v": 60
    },
    {
      "midi": 48,
      "hit": false,
      "t": 41857.101,
      "d": 139.8808124999996,
      "v": 75
    },
    {
      "midi": 55,
      "hit": false,
      "t": 41857.101,
      "d": 139.8808124999996,
      "v": 75
    },
    {
      "midi": 60,
      "hit": false,
      "t": 41857.101,
      "d": 139.8808124999996,
      "v": 75
    },
    {
      "midi": 48,
      "hit": false,
      "t": 41857.10100000001,
      "d": 47.61899999999878,
      "v": 75
    },
    {
      "midi": 55,
      "hit": false,
      "t": 41857.10100000001,
      "d": 47.61899999999878,
      "v": 75
    },
    {
      "midi": 60,
      "hit": false,
      "t": 41857.10100000001,
      "d": 47.61899999999878,
      "v": 75
    },
    {
      "midi": 36,
      "hit": false,
      "t": 41857.10100000011,
      "d": 142.8570000000036,
      "v": 110
    },
    {
      "midi": 36,
      "hit": false,
      "t": 41999.95799999976,
      "d": 139.8808124999996,
      "v": 92
    },
    {
      "midi": 28,
      "hit": false,
      "t": 41999.95799999976,
      "d": 139.8808124999996,
      "v": 45
    },
    {
      "midi": 48,
      "hit": false,
      "t": 41999.95799999987,
      "d": 380.9519999999975,
      "v": 84
    },
    {
      "midi": 55,
      "hit": false,
      "t": 41999.95799999987,
      "d": 380.9519999999975,
      "v": 84
    },
    {
      "midi": 60,
      "hit": false,
      "t": 41999.95799999987,
      "d": 380.9519999999975,
      "v": 84
    },
    {
      "midi": 46,
      "hit": false,
      "t": 41999.9579999999,
      "d": 380.9519999999975,
      "v": 127
    },
    {
      "midi": 48,
      "hit": false,
      "t": 41999.958,
      "d": 380.9519999999975,
      "v": 75
    },
    {
      "midi": 55,
      "hit": false,
      "t": 41999.958,
      "d": 380.9519999999975,
      "v": 75
    },
    {
      "midi": 60,
      "hit": false,
      "t": 41999.958,
      "d": 380.9519999999975,
      "v": 75
    },
    {
      "midi": 48,
      "hit": false,
      "t": 41999.958000000006,
      "d": 428.57100000000355,
      "v": 105
    },
    {
      "midi": 55,
      "hit": false,
      "t": 41999.958000000006,
      "d": 428.57100000000355,
      "v": 105
    },
    {
      "midi": 60,
      "hit": false,
      "t": 41999.958000000006,
      "d": 428.57100000000355,
      "v": 105
    },
    {
      "midi": 84,
      "hit": false,
      "t": 41999.95800000002,
      "d": 285.71399999999994,
      "v": 110
    },
    {
      "midi": 84,
      "hit": false,
      "t": 41999.95800000002,
      "d": 285.71399999999994,
      "v": 127
    },
    {
      "midi": 36,
      "hit": false,
      "t": 41999.958000000115,
      "d": 285.71399999999994,
      "v": 110
    },
    {
      "midi": 36,
      "hit": false,
      "t": 42142.814999999755,
      "d": 139.8808124999996,
      "v": 92
    },
    {
      "midi": 28,
      "hit": false,
      "t": 42142.814999999755,
      "d": 139.8808124999996,
      "v": 45
    },
    {
      "midi": 36,
      "hit": false,
      "t": 42285.67199999975,
      "d": 139.8808124999996,
      "v": 92
    },
    {
      "midi": 28,
      "hit": false,
      "t": 42285.67199999975,
      "d": 139.8808124999996,
      "v": 45
    },
    {
      "midi": 86,
      "hit": false,
      "t": 42285.67200000002,
      "d": 285.71399999999994,
      "v": 110
    },
    {
      "midi": 86,
      "hit": false,
      "t": 42285.67200000002,
      "d": 285.71399999999994,
      "v": 127
    },
    {
      "midi": 36,
      "hit": false,
      "t": 42285.672000000115,
      "d": 142.8570000000036,
      "v": 110
    },
    {
      "midi": 36,
      "hit": false,
      "t": 42428.52899999975,
      "d": 139.8808124999996,
      "v": 92
    },
    {
      "midi": 28,
      "hit": false,
      "t": 42428.52899999975,
      "d": 139.8808124999996,
      "v": 45
    },
    {
      "midi": 48,
      "hit": false,
      "t": 42428.528999999864,
      "d": 139.8808124999996,
      "v": 60
    },
    {
      "midi": 55,
      "hit": false,
      "t": 42428.528999999864,
      "d": 139.8808124999996,
      "v": 60
    },
    {
      "midi": 60,
      "hit": false,
      "t": 42428.528999999864,
      "d": 139.8808124999996,
      "v": 60
    },
    {
      "midi": 40,
      "hit": false,
      "t": 42428.52899999989,
      "d": 380.9519999999975,
      "v": 127
    },
    {
      "midi": 46,
      "hit": false,
      "t": 42428.52899999989,
      "d": 380.9519999999975,
      "v": 127
    },
    {
      "midi": 36,
      "hit": false,
      "t": 42428.52900000012,
      "d": 142.8570000000036,
      "v": 110
    },
    {
      "midi": 36,
      "hit": false,
      "t": 42571.385999999744,
      "d": 139.8808124999996,
      "v": 92
    },
    {
      "midi": 28,
      "hit": false,
      "t": 42571.385999999744,
      "d": 139.8808124999996,
      "v": 45
    },
    {
      "midi": 48,
      "hit": false,
      "t": 42571.38599999986,
      "d": 139.8808124999996,
      "v": 60
    },
    {
      "midi": 55,
      "hit": false,
      "t": 42571.38599999986,
      "d": 139.8808124999996,
      "v": 60
    },
    {
      "midi": 60,
      "hit": false,
      "t": 42571.38599999986,
      "d": 139.8808124999996,
      "v": 60
    },
    {
      "midi": 48,
      "hit": false,
      "t": 42571.386,
      "d": 139.8808124999996,
      "v": 75
    },
    {
      "midi": 55,
      "hit": false,
      "t": 42571.386,
      "d": 139.8808124999996,
      "v": 75
    },
    {
      "midi": 60,
      "hit": false,
      "t": 42571.386,
      "d": 139.8808124999996,
      "v": 75
    },
    {
      "midi": 48,
      "hit": false,
      "t": 42571.38600000001,
      "d": 47.61899999999878,
      "v": 75
    },
    {
      "midi": 55,
      "hit": false,
      "t": 42571.38600000001,
      "d": 47.61899999999878,
      "v": 75
    },
    {
      "midi": 60,
      "hit": false,
      "t": 42571.38600000001,
      "d": 47.61899999999878,
      "v": 75
    },
    {
      "midi": 88,
      "hit": false,
      "t": 42571.38600000002,
      "d": 285.71399999999994,
      "v": 110
    },
    {
      "midi": 88,
      "hit": false,
      "t": 42571.38600000002,
      "d": 285.71399999999994,
      "v": 127
    },
    {
      "midi": 36,
      "hit": false,
      "t": 42571.38600000012,
      "d": 142.8570000000036,
      "v": 110
    },
    {
      "midi": 36,
      "hit": false,
      "t": 42714.24299999974,
      "d": 139.8808124999996,
      "v": 92
    },
    {
      "midi": 28,
      "hit": false,
      "t": 42714.24299999974,
      "d": 139.8808124999996,
      "v": 45
    },
    {
      "midi": 48,
      "hit": false,
      "t": 42714.24299999986,
      "d": 139.8808124999996,
      "v": 60
    },
    {
      "midi": 55,
      "hit": false,
      "t": 42714.24299999986,
      "d": 139.8808124999996,
      "v": 60
    },
    {
      "midi": 60,
      "hit": false,
      "t": 42714.24299999986,
      "d": 139.8808124999996,
      "v": 60
    },
    {
      "midi": 48,
      "hit": false,
      "t": 42714.242999999995,
      "d": 139.8808124999996,
      "v": 75
    },
    {
      "midi": 55,
      "hit": false,
      "t": 42714.242999999995,
      "d": 139.8808124999996,
      "v": 75
    },
    {
      "midi": 60,
      "hit": false,
      "t": 42714.242999999995,
      "d": 139.8808124999996,
      "v": 75
    },
    {
      "midi": 48,
      "hit": false,
      "t": 42714.24300000001,
      "d": 47.61899999999878,
      "v": 75
    },
    {
      "midi": 55,
      "hit": false,
      "t": 42714.24300000001,
      "d": 47.61899999999878,
      "v": 75
    },
    {
      "midi": 60,
      "hit": false,
      "t": 42714.24300000001,
      "d": 47.61899999999878,
      "v": 75
    },
    {
      "midi": 36,
      "hit": false,
      "t": 42714.243000000126,
      "d": 142.8570000000036,
      "v": 110
    },
    {
      "midi": 36,
      "hit": false,
      "t": 42857.09999999974,
      "d": 139.8808124999996,
      "v": 92
    },
    {
      "midi": 28,
      "hit": false,
      "t": 42857.09999999974,
      "d": 139.8808124999996,
      "v": 45
    },
    {
      "midi": 50,
      "hit": false,
      "t": 42857.09999999985,
      "d": 380.9519999999975,
      "v": 84
    },
    {
      "midi": 57,
      "hit": false,
      "t": 42857.09999999985,
      "d": 380.9519999999975,
      "v": 84
    },
    {
      "midi": 62,
      "hit": false,
      "t": 42857.09999999985,
      "d": 380.9519999999975,
      "v": 84
    },
    {
      "midi": 46,
      "hit": false,
      "t": 42857.09999999989,
      "d": 380.9519999999975,
      "v": 127
    },
    {
      "midi": 50,
      "hit": false,
      "t": 42857.09999999999,
      "d": 380.9519999999975,
      "v": 75
    },
    {
      "midi": 57,
      "hit": false,
      "t": 42857.09999999999,
      "d": 380.9519999999975,
      "v": 75
    },
    {
      "midi": 62,
      "hit": false,
      "t": 42857.09999999999,
      "d": 380.9519999999975,
      "v": 75
    },
    {
      "midi": 54,
      "hit": false,
      "t": 42857.09999999999,
      "d": 1714.2839999999997,
      "v": 30
    },
    {
      "midi": 57,
      "hit": false,
      "t": 42857.09999999999,
      "d": 1714.2839999999997,
      "v": 30
    },
    {
      "midi": 62,
      "hit": false,
      "t": 42857.09999999999,
      "d": 1714.2839999999997,
      "v": 30
    },
    {
      "midi": 50,
      "hit": false,
      "t": 42857.100000000006,
      "d": 428.57100000000355,
      "v": 105
    },
    {
      "midi": 57,
      "hit": false,
      "t": 42857.100000000006,
      "d": 428.57100000000355,
      "v": 105
    },
    {
      "midi": 62,
      "hit": false,
      "t": 42857.100000000006,
      "d": 428.57100000000355,
      "v": 105
    },
    {
      "midi": 86,
      "hit": false,
      "t": 42857.10000000002,
      "d": 571.4279999999999,
      "v": 110
    },
    {
      "midi": 86,
      "hit": false,
      "t": 42857.10000000002,
      "d": 571.4279999999999,
      "v": 127
    },
    {
      "midi": 38,
      "hit": false,
      "t": 42857.10000000013,
      "d": 285.71399999999994,
      "v": 110
    },
    {
      "midi": 36,
      "hit": false,
      "t": 42999.95699999973,
      "d": 139.8808124999996,
      "v": 92
    },
    {
      "midi": 28,
      "hit": false,
      "t": 42999.95699999973,
      "d": 139.8808124999996,
      "v": 45
    },
    {
      "midi": 36,
      "hit": false,
      "t": 43142.81399999973,
      "d": 139.8808124999996,
      "v": 92
    },
    {
      "midi": 28,
      "hit": false,
      "t": 43142.81399999973,
      "d": 139.8808124999996,
      "v": 45
    },
    {
      "midi": 38,
      "hit": false,
      "t": 43142.81400000013,
      "d": 142.8570000000036,
      "v": 110
    },
    {
      "midi": 36,
      "hit": false,
      "t": 43285.670999999726,
      "d": 139.8808124999996,
      "v": 92
    },
    {
      "midi": 28,
      "hit": false,
      "t": 43285.670999999726,
      "d": 139.8808124999996,
      "v": 45
    },
    {
      "midi": 50,
      "hit": false,
      "t": 43285.67099999985,
      "d": 139.8808124999996,
      "v": 60
    },
    {
      "midi": 57,
      "hit": false,
      "t": 43285.67099999985,
      "d": 139.8808124999996,
      "v": 60
    },
    {
      "midi": 62,
      "hit": false,
      "t": 43285.67099999985,
      "d": 139.8808124999996,
      "v": 60
    },
    {
      "midi": 40,
      "hit": false,
      "t": 43285.670999999886,
      "d": 380.9519999999975,
      "v": 127
    },
    {
      "midi": 46,
      "hit": false,
      "t": 43285.670999999886,
      "d": 380.9519999999975,
      "v": 127
    },
    {
      "midi": 38,
      "hit": false,
      "t": 43285.67100000013,
      "d": 142.8570000000036,
      "v": 110
    },
    {
      "midi": 36,
      "hit": false,
      "t": 43428.52799999972,
      "d": 139.8808124999996,
      "v": 92
    },
    {
      "midi": 28,
      "hit": false,
      "t": 43428.52799999972,
      "d": 139.8808124999996,
      "v": 45
    },
    {
      "midi": 50,
      "hit": false,
      "t": 43428.527999999846,
      "d": 139.8808124999996,
      "v": 60
    },
    {
      "midi": 57,
      "hit": false,
      "t": 43428.527999999846,
      "d": 139.8808124999996,
      "v": 60
    },
    {
      "midi": 62,
      "hit": false,
      "t": 43428.527999999846,
      "d": 139.8808124999996,
      "v": 60
    },
    {
      "midi": 50,
      "hit": false,
      "t": 43428.52799999999,
      "d": 139.8808124999996,
      "v": 75
    },
    {
      "midi": 57,
      "hit": false,
      "t": 43428.52799999999,
      "d": 139.8808124999996,
      "v": 75
    },
    {
      "midi": 62,
      "hit": false,
      "t": 43428.52799999999,
      "d": 139.8808124999996,
      "v": 75
    },
    {
      "midi": 50,
      "hit": false,
      "t": 43428.52800000001,
      "d": 47.61899999999878,
      "v": 75
    },
    {
      "midi": 57,
      "hit": false,
      "t": 43428.52800000001,
      "d": 47.61899999999878,
      "v": 75
    },
    {
      "midi": 62,
      "hit": false,
      "t": 43428.52800000001,
      "d": 47.61899999999878,
      "v": 75
    },
    {
      "midi": 84,
      "hit": false,
      "t": 43428.52800000002,
      "d": 142.8570000000036,
      "v": 110
    },
    {
      "midi": 84,
      "hit": false,
      "t": 43428.52800000002,
      "d": 142.8570000000036,
      "v": 127
    },
    {
      "midi": 38,
      "hit": false,
      "t": 43428.52800000014,
      "d": 142.8570000000036,
      "v": 110
    },
    {
      "midi": 36,
      "hit": false,
      "t": 43571.38499999972,
      "d": 139.8808124999996,
      "v": 92
    },
    {
      "midi": 28,
      "hit": false,
      "t": 43571.38499999972,
      "d": 139.8808124999996,
      "v": 45
    },
    {
      "midi": 50,
      "hit": false,
      "t": 43571.38499999984,
      "d": 139.8808124999996,
      "v": 60
    },
    {
      "midi": 57,
      "hit": false,
      "t": 43571.38499999984,
      "d": 139.8808124999996,
      "v": 60
    },
    {
      "midi": 62,
      "hit": false,
      "t": 43571.38499999984,
      "d": 139.8808124999996,
      "v": 60
    },
    {
      "midi": 50,
      "hit": false,
      "t": 43571.38499999999,
      "d": 139.8808124999996,
      "v": 75
    },
    {
      "midi": 57,
      "hit": false,
      "t": 43571.38499999999,
      "d": 139.8808124999996,
      "v": 75
    },
    {
      "midi": 62,
      "hit": false,
      "t": 43571.38499999999,
      "d": 139.8808124999996,
      "v": 75
    },
    {
      "midi": 50,
      "hit": false,
      "t": 43571.38500000001,
      "d": 47.61899999999878,
      "v": 75
    },
    {
      "midi": 57,
      "hit": false,
      "t": 43571.38500000001,
      "d": 47.61899999999878,
      "v": 75
    },
    {
      "midi": 62,
      "hit": false,
      "t": 43571.38500000001,
      "d": 47.61899999999878,
      "v": 75
    },
    {
      "midi": 83,
      "hit": false,
      "t": 43571.385000000024,
      "d": 142.8570000000036,
      "v": 110
    },
    {
      "midi": 83,
      "hit": false,
      "t": 43571.385000000024,
      "d": 142.8570000000036,
      "v": 127
    },
    {
      "midi": 38,
      "hit": false,
      "t": 43571.38500000014,
      "d": 142.8570000000036,
      "v": 110
    },
    {
      "midi": 36,
      "hit": false,
      "t": 43714.241999999715,
      "d": 139.8808124999996,
      "v": 92
    },
    {
      "midi": 28,
      "hit": false,
      "t": 43714.241999999715,
      "d": 139.8808124999996,
      "v": 45
    },
    {
      "midi": 50,
      "hit": false,
      "t": 43714.24199999984,
      "d": 380.9519999999975,
      "v": 84
    },
    {
      "midi": 57,
      "hit": false,
      "t": 43714.24199999984,
      "d": 380.9519999999975,
      "v": 84
    },
    {
      "midi": 62,
      "hit": false,
      "t": 43714.24199999984,
      "d": 380.9519999999975,
      "v": 84
    },
    {
      "midi": 46,
      "hit": false,
      "t": 43714.24199999988,
      "d": 238.09500000000116,
      "v": 127
    },
    {
      "midi": 50,
      "hit": false,
      "t": 43714.241999999984,
      "d": 380.9519999999975,
      "v": 75
    },
    {
      "midi": 57,
      "hit": false,
      "t": 43714.241999999984,
      "d": 380.9519999999975,
      "v": 75
    },
    {
      "midi": 62,
      "hit": false,
      "t": 43714.241999999984,
      "d": 380.9519999999975,
      "v": 75
    },
    {
      "midi": 50,
      "hit": false,
      "t": 43714.242000000006,
      "d": 428.57100000000355,
      "v": 105
    },
    {
      "midi": 57,
      "hit": false,
      "t": 43714.242000000006,
      "d": 428.57100000000355,
      "v": 105
    },
    {
      "midi": 62,
      "hit": false,
      "t": 43714.242000000006,
      "d": 428.57100000000355,
      "v": 105
    },
    {
      "midi": 81,
      "hit": false,
      "t": 43714.24200000003,
      "d": 428.57100000000355,
      "v": 110
    },
    {
      "midi": 81,
      "hit": false,
      "t": 43714.24200000003,
      "d": 428.57100000000355,
      "v": 127
    },
    {
      "midi": 38,
      "hit": false,
      "t": 43714.242000000144,
      "d": 285.71399999999994,
      "v": 110
    },
    {
      "midi": 36,
      "hit": false,
      "t": 43857.09899999971,
      "d": 139.8808124999996,
      "v": 92
    },
    {
      "midi": 28,
      "hit": false,
      "t": 43857.09899999971,
      "d": 139.8808124999996,
      "v": 45
    },
    {
      "midi": 36,
      "hit": false,
      "t": 43999.95599999971,
      "d": 139.8808124999996,
      "v": 92
    },
    {
      "midi": 28,
      "hit": false,
      "t": 43999.95599999971,
      "d": 139.8808124999996,
      "v": 45
    },
    {
      "midi": 40,
      "hit": false,
      "t": 43999.95599999988,
      "d": 139.8808124999996,
      "v": 127
    },
    {
      "midi": 38,
      "hit": false,
      "t": 43999.956000000144,
      "d": 142.8570000000036,
      "v": 110
    },
    {
      "midi": 36,
      "hit": false,
      "t": 44142.8129999997,
      "d": 139.8808124999996,
      "v": 92
    },
    {
      "midi": 28,
      "hit": false,
      "t": 44142.8129999997,
      "d": 139.8808124999996,
      "v": 45
    },
    {
      "midi": 50,
      "hit": false,
      "t": 44142.812999999835,
      "d": 139.8808124999996,
      "v": 60
    },
    {
      "midi": 57,
      "hit": false,
      "t": 44142.812999999835,
      "d": 139.8808124999996,
      "v": 60
    },
    {
      "midi": 62,
      "hit": false,
      "t": 44142.812999999835,
      "d": 139.8808124999996,
      "v": 60
    },
    {
      "midi": 40,
      "hit": false,
      "t": 44142.81299999988,
      "d": 139.8808124999996,
      "v": 127
    },
    {
      "midi": 46,
      "hit": false,
      "t": 44142.81299999988,
      "d": 139.8808124999996,
      "v": 127
    },
    {
      "midi": 50,
      "hit": false,
      "t": 44142.81299999998,
      "d": 142.8570000000036,
      "v": 75
    },
    {
      "midi": 57,
      "hit": false,
      "t": 44142.81299999998,
      "d": 142.8570000000036,
      "v": 75
    },
    {
      "midi": 62,
      "hit": false,
      "t": 44142.81299999998,
      "d": 142.8570000000036,
      "v": 75
    },
    {
      "midi": 50,
      "hit": false,
      "t": 44142.81300000001,
      "d": 142.8570000000036,
      "v": 75
    },
    {
      "midi": 57,
      "hit": false,
      "t": 44142.81300000001,
      "d": 142.8570000000036,
      "v": 75
    },
    {
      "midi": 62,
      "hit": false,
      "t": 44142.81300000001,
      "d": 142.8570000000036,
      "v": 75
    },
    {
      "midi": 86,
      "hit": false,
      "t": 44142.81300000003,
      "d": 428.57100000000355,
      "v": 110
    },
    {
      "midi": 86,
      "hit": false,
      "t": 44142.81300000003,
      "d": 428.57100000000355,
      "v": 127
    },
    {
      "midi": 38,
      "hit": false,
      "t": 44142.81300000015,
      "d": 142.8570000000036,
      "v": 110
    },
    {
      "midi": 36,
      "hit": false,
      "t": 44285.6699999997,
      "d": 139.8808124999996,
      "v": 92
    },
    {
      "midi": 28,
      "hit": false,
      "t": 44285.6699999997,
      "d": 139.8808124999996,
      "v": 45
    },
    {
      "midi": 50,
      "hit": false,
      "t": 44285.66999999983,
      "d": 238.09500000000116,
      "v": 60
    },
    {
      "midi": 57,
      "hit": false,
      "t": 44285.66999999983,
      "d": 238.09500000000116,
      "v": 60
    },
    {
      "midi": 62,
      "hit": false,
      "t": 44285.66999999983,
      "d": 238.09500000000116,
      "v": 60
    },
    {
      "midi": 40,
      "hit": false,
      "t": 44285.669999999875,
      "d": 139.8808124999996,
      "v": 127
    },
    {
      "midi": 50,
      "hit": false,
      "t": 44285.669999999984,
      "d": 285.71399999999994,
      "v": 75
    },
    {
      "midi": 57,
      "hit": false,
      "t": 44285.669999999984,
      "d": 285.71399999999994,
      "v": 75
    },
    {
      "midi": 62,
      "hit": false,
      "t": 44285.669999999984,
      "d": 285.71399999999994,
      "v": 75
    },
    {
      "midi": 50,
      "hit": false,
      "t": 44285.67000000001,
      "d": 285.71399999999994,
      "v": 75
    },
    {
      "midi": 57,
      "hit": false,
      "t": 44285.67000000001,
      "d": 285.71399999999994,
      "v": 75
    },
    {
      "midi": 62,
      "hit": false,
      "t": 44285.67000000001,
      "d": 285.71399999999994,
      "v": 75
    },
    {
      "midi": 38,
      "hit": false,
      "t": 44285.67000000015,
      "d": 142.8570000000036,
      "v": 110
    },
    {
      "midi": 36,
      "hit": false,
      "t": 44428.526999999696,
      "d": 139.8808124999996,
      "v": 92
    },
    {
      "midi": 28,
      "hit": false,
      "t": 44428.526999999696,
      "d": 139.8808124999996,
      "v": 45
    },
    {
      "midi": 40,
      "hit": false,
      "t": 44428.52699999987,
      "d": 139.8808124999996,
      "v": 127
    },
    {
      "midi": 38,
      "hit": false,
      "t": 44428.527000000155,
      "d": 142.8570000000036,
      "v": 110
    },
    {
      "midi": 36,
      "hit": false,
      "t": 44571.38399999969,
      "d": 139.8808124999996,
      "v": 92
    },
    {
      "midi": 28,
      "hit": false,
      "t": 44571.38399999969,
      "d": 139.8808124999996,
      "v": 45
    },
    {
      "midi": 40,
      "hit": false,
      "t": 44571.38399999983,
      "d": 139.8808124999996,
      "v": 108
    },
    {
      "midi": 57,
      "hit": false,
      "t": 44571.38399999987,
      "d": 380.9519999999975,
      "v": 127
    },
    {
      "midi": 40,
      "hit": false,
      "t": 44571.383999999984,
      "d": 139.8808124999996,
      "v": 108
    },
    {
      "midi": 40,
      "hit": false,
      "t": 44571.38400000001,
      "d": 139.8808124999996,
      "v": 108
    },
    {
      "midi": 83,
      "hit": false,
      "t": 44571.384000000035,
      "d": 1238.0939999999973,
      "v": 110
    },
    {
      "midi": 83,
      "hit": false,
      "t": 44571.384000000035,
      "d": 1238.0939999999973,
      "v": 127
    },
    {
      "midi": 28,
      "hit": false,
      "t": 44571.38400000016,
      "d": 139.8808124999996,
      "v": 110
    },
    {
      "midi": 36,
      "hit": false,
      "t": 44714.24099999969,
      "d": 139.8808124999996,
      "v": 92
    },
    {
      "midi": 28,
      "hit": false,
      "t": 44714.24099999969,
      "d": 139.8808124999996,
      "v": 45
    },
    {
      "midi": 40,
      "hit": false,
      "t": 44714.24099999983,
      "d": 139.8808124999996,
      "v": 108
    },
    {
      "midi": 40,
      "hit": false,
      "t": 44714.24099999998,
      "d": 139.8808124999996,
      "v": 108
    },
    {
      "midi": 40,
      "hit": false,
      "t": 44714.24100000001,
      "d": 139.8808124999996,
      "v": 108
    },
    {
      "midi": 28,
      "hit": false,
      "t": 44714.241000000155,
      "d": 139.8808124999996,
      "v": 110
    },
    {
      "midi": 36,
      "hit": false,
      "t": 44857.097999999685,
      "d": 139.8808124999996,
      "v": 92
    },
    {
      "midi": 28,
      "hit": false,
      "t": 44857.097999999685,
      "d": 139.8808124999996,
      "v": 45
    },
    {
      "midi": 40,
      "hit": false,
      "t": 44857.09799999982,
      "d": 139.8808124999996,
      "v": 108
    },
    {
      "midi": 40,
      "hit": false,
      "t": 44857.097999999976,
      "d": 139.8808124999996,
      "v": 108
    },
    {
      "midi": 40,
      "hit": false,
      "t": 44857.098000000005,
      "d": 139.8808124999996,
      "v": 108
    },
    {
      "midi": 28,
      "hit": false,
      "t": 44857.09800000015,
      "d": 139.8808124999996,
      "v": 110
    },
    {
      "midi": 36,
      "hit": false,
      "t": 44999.95499999968,
      "d": 139.8808124999996,
      "v": 92
    },
    {
      "midi": 28,
      "hit": false,
      "t": 44999.95499999968,
      "d": 139.8808124999996,
      "v": 45
    },
    {
      "midi": 42,
      "hit": false,
      "t": 44999.95499999982,
      "d": 139.8808124999996,
      "v": 108
    },
    {
      "midi": 40,
      "hit": false,
      "t": 44999.95499999986,
      "d": 380.9519999999975,
      "v": 127
    },
    {
      "midi": 46,
      "hit": false,
      "t": 44999.95499999986,
      "d": 380.9519999999975,
      "v": 127
    },
    {
      "midi": 42,
      "hit": false,
      "t": 44999.95499999997,
      "d": 139.8808124999996,
      "v": 108
    },
    {
      "midi": 42,
      "hit": false,
      "t": 44999.955,
      "d": 139.8808124999996,
      "v": 108
    },
    {
      "midi": 30,
      "hit": false,
      "t": 44999.95500000015,
      "d": 139.8808124999996,
      "v": 110
    },
    {
      "midi": 36,
      "hit": false,
      "t": 45142.81199999968,
      "d": 139.8808124999996,
      "v": 92
    },
    {
      "midi": 28,
      "hit": false,
      "t": 45142.81199999968,
      "d": 139.8808124999996,
      "v": 45
    },
    {
      "midi": 40,
      "hit": false,
      "t": 45142.811999999816,
      "d": 139.8808124999996,
      "v": 108
    },
    {
      "midi": 40,
      "hit": false,
      "t": 45142.81199999997,
      "d": 139.8808124999996,
      "v": 108
    },
    {
      "midi": 40,
      "hit": false,
      "t": 45142.812,
      "d": 139.8808124999996,
      "v": 108
    },
    {
      "midi": 28,
      "hit": false,
      "t": 45142.81200000014,
      "d": 139.8808124999996,
      "v": 110
    },
    {
      "midi": 36,
      "hit": false,
      "t": 45285.668999999674,
      "d": 139.8808124999996,
      "v": 92
    },
    {
      "midi": 28,
      "hit": false,
      "t": 45285.668999999674,
      "d": 139.8808124999996,
      "v": 45
    },
    {
      "midi": 40,
      "hit": false,
      "t": 45285.66899999981,
      "d": 139.8808124999996,
      "v": 108
    },
    {
      "midi": 40,
      "hit": false,
      "t": 45285.668999999965,
      "d": 139.8808124999996,
      "v": 108
    },
    {
      "midi": 40,
      "hit": false,
      "t": 45285.668999999994,
      "d": 139.8808124999996,
      "v": 108
    },
    {
      "midi": 28,
      "hit": false,
      "t": 45285.66900000014,
      "d": 139.8808124999996,
      "v": 110
    },
    {
      "midi": 36,
      "hit": false,
      "t": 45428.52599999967,
      "d": 139.8808124999996,
      "v": 92
    },
    {
      "midi": 28,
      "hit": false,
      "t": 45428.52599999967,
      "d": 139.8808124999996,
      "v": 45
    },
    {
      "midi": 45,
      "hit": false,
      "t": 45428.52599999981,
      "d": 32.738062500000524,
      "v": 108
    },
    {
      "midi": 46,
      "hit": false,
      "t": 45428.52599999986,
      "d": 380.9519999999975,
      "v": 127
    },
    {
      "midi": 45,
      "hit": false,
      "t": 45428.52599999996,
      "d": 32.738062500000524,
      "v": 108
    },
    {
      "midi": 45,
      "hit": false,
      "t": 45428.52599999999,
      "d": 32.738062500000524,
      "v": 108
    },
    {
      "midi": 35,
      "hit": false,
      "t": 45428.526000000136,
      "d": 139.8808124999996,
      "v": 110
    },
    {
      "midi": 47,
      "hit": false,
      "t": 45464.240249999806,
      "d": 104.16656250000233,
      "v": 108
    },
    {
      "midi": 47,
      "hit": false,
      "t": 45464.24024999996,
      "d": 104.16656250000233,
      "v": 108
    },
    {
      "midi": 47,
      "hit": false,
      "t": 45464.24024999999,
      "d": 104.16656250000233,
      "v": 108
    },
    {
      "midi": 36,
      "hit": false,
      "t": 45571.38299999967,
      "d": 139.8808124999996,
      "v": 92
    },
    {
      "midi": 28,
      "hit": false,
      "t": 45571.38299999967,
      "d": 139.8808124999996,
      "v": 45
    },
    {
      "midi": 45,
      "hit": false,
      "t": 45571.382999999805,
      "d": 139.8808124999996,
      "v": 108
    },
    {
      "midi": 45,
      "hit": false,
      "t": 45571.38299999996,
      "d": 139.8808124999996,
      "v": 108
    },
    {
      "midi": 45,
      "hit": false,
      "t": 45571.38299999999,
      "d": 139.8808124999996,
      "v": 108
    },
    {
      "midi": 33,
      "hit": false,
      "t": 45571.38300000013,
      "d": 139.8808124999996,
      "v": 110
    },
    {
      "midi": 36,
      "hit": false,
      "t": 45714.23999999966,
      "d": 139.8808124999996,
      "v": 92
    },
    {
      "midi": 28,
      "hit": false,
      "t": 45714.23999999966,
      "d": 139.8808124999996,
      "v": 45
    },
    {
      "midi": 43,
      "hit": false,
      "t": 45714.2399999998,
      "d": 139.8808124999996,
      "v": 108
    },
    {
      "midi": 43,
      "hit": false,
      "t": 45714.239999999954,
      "d": 139.8808124999996,
      "v": 108
    },
    {
      "midi": 43,
      "hit": false,
      "t": 45714.23999999998,
      "d": 139.8808124999996,
      "v": 108
    },
    {
      "midi": 31,
      "hit": false,
      "t": 45714.24000000013,
      "d": 139.8808124999996,
      "v": 110
    },
    {
      "midi": 36,
      "hit": false,
      "t": 45857.09699999966,
      "d": 139.8808124999996,
      "v": 92
    },
    {
      "midi": 28,
      "hit": false,
      "t": 45857.09699999966,
      "d": 139.8808124999996,
      "v": 45
    },
    {
      "midi": 45,
      "hit": false,
      "t": 45857.0969999998,
      "d": 139.8808124999996,
      "v": 108
    },
    {
      "midi": 40,
      "hit": false,
      "t": 45857.096999999856,
      "d": 68.45231249999779,
      "v": 127
    },
    {
      "midi": 45,
      "hit": false,
      "t": 45857.09699999995,
      "d": 139.8808124999996,
      "v": 108
    },
    {
      "midi": 45,
      "hit": false,
      "t": 45857.09699999998,
      "d": 139.8808124999996,
      "v": 108
    },
    {
      "midi": 33,
      "hit": false,
      "t": 45857.097000000125,
      "d": 139.8808124999996,
      "v": 110
    },
    {
      "midi": 40,
      "hit": false,
      "t": 45928.52549999985,
      "d": 68.45231249999779,
      "v": 127
    },
    {
      "midi": 36,
      "hit": false,
      "t": 45999.953999999656,
      "d": 139.8808124999996,
      "v": 92
    },
    {
      "midi": 28,
      "hit": false,
      "t": 45999.953999999656,
      "d": 139.8808124999996,
      "v": 45
    },
    {
      "midi": 43,
      "hit": false,
      "t": 45999.953999999794,
      "d": 139.8808124999996,
      "v": 108
    },
    {
      "midi": 43,
      "hit": false,
      "t": 45999.953999999845,
      "d": 139.8808124999996,
      "v": 127
    },
    {
      "midi": 43,
      "hit": false,
      "t": 45999.95399999995,
      "d": 139.8808124999996,
      "v": 108
    },
    {
      "midi": 43,
      "hit": false,
      "t": 45999.953999999976,
      "d": 139.8808124999996,
      "v": 108
    },
    {
      "midi": 31,
      "hit": false,
      "t": 45999.95400000012,
      "d": 139.8808124999996,
      "v": 110
    },
    {
      "midi": 36,
      "hit": false,
      "t": 46142.81099999965,
      "d": 139.8808124999996,
      "v": 92
    },
    {
      "midi": 28,
      "hit": false,
      "t": 46142.81099999965,
      "d": 139.8808124999996,
      "v": 45
    },
    {
      "midi": 42,
      "hit": false,
      "t": 46142.81099999979,
      "d": 139.8808124999996,
      "v": 108
    },
    {
      "midi": 41,
      "hit": false,
      "t": 46142.81099999984,
      "d": 139.8808124999996,
      "v": 127
    },
    {
      "midi": 42,
      "hit": false,
      "t": 46142.81099999994,
      "d": 139.8808124999996,
      "v": 108
    },
    {
      "midi": 42,
      "hit": false,
      "t": 46142.81099999997,
      "d": 139.8808124999996,
      "v": 108
    },
    {
      "midi": 30,
      "hit": false,
      "t": 46142.81100000012,
      "d": 139.8808124999996,
      "v": 110
    },
    {
      "midi": 36,
      "hit": false,
      "t": 46285.66799999965,
      "d": 139.8808124999996,
      "v": 92
    },
    {
      "midi": 28,
      "hit": false,
      "t": 46285.66799999965,
      "d": 139.8808124999996,
      "v": 45
    },
    {
      "midi": 46,
      "hit": false,
      "t": 46285.66799999984,
      "d": 139.8808124999996,
      "v": 127
    },
    {
      "midi": 28,
      "hit": false,
      "t": 46285.668000000114,
      "d": 47.61899999999878,
      "v": 110
    },
    {
      "midi": 36,
      "hit": false,
      "t": 46428.524999999645,
      "d": 139.8808124999996,
      "v": 92
    },
    {
      "midi": 28,
      "hit": false,
      "t": 46428.524999999645,
      "d": 139.8808124999996,
      "v": 45
    },
    {
      "midi": 40,
      "hit": false,
      "t": 46428.524999999834,
      "d": 238.09500000000116,
      "v": 127
    },
    {
      "midi": 52,
      "hit": false,
      "t": 46428.524999999834,
      "d": 238.09500000000116,
      "v": 127
    },
    {
      "midi": 57,
      "hit": false,
      "t": 46428.524999999834,
      "d": 238.09500000000116,
      "v": 127
    },
    {
      "midi": 48,
      "hit": false,
      "t": 46428.52499999994,
      "d": 238.09500000000116,
      "v": 108
    },
    {
      "midi": 55,
      "hit": false,
      "t": 46428.52499999994,
      "d": 238.09500000000116,
      "v": 108
    },
    {
      "midi": 60,
      "hit": false,
      "t": 46428.52499999994,
      "d": 238.09500000000116,
      "v": 108
    },
    {
      "midi": 48,
      "hit": false,
      "t": 46428.52499999997,
      "d": 238.09500000000116,
      "v": 108
    },
    {
      "midi": 55,
      "hit": false,
      "t": 46428.52499999997,
      "d": 238.09500000000116,
      "v": 108
    },
    {
      "midi": 60,
      "hit": false,
      "t": 46428.52499999997,
      "d": 238.09500000000116,
      "v": 108
    },
    {
      "midi": 76,
      "hit": false,
      "t": 46428.524999999994,
      "d": 238.09500000000116,
      "v": 108
    },
    {
      "midi": 79,
      "hit": false,
      "t": 46428.524999999994,
      "d": 238.09500000000116,
      "v": 108
    },
    {
      "midi": 84,
      "hit": false,
      "t": 46428.524999999994,
      "d": 238.09500000000116,
      "v": 108
    },
    {
      "midi": 76,
      "hit": false,
      "t": 46428.525,
      "d": 238.09500000000116,
      "v": 110
    },
    {
      "midi": 79,
      "hit": false,
      "t": 46428.525,
      "d": 238.09500000000116,
      "v": 110
    },
    {
      "midi": 84,
      "hit": false,
      "t": 46428.525,
      "d": 238.09500000000116,
      "v": 110
    },
    {
      "midi": 36,
      "hit": false,
      "t": 46428.52500000011,
      "d": 238.09500000000116,
      "v": 110
    },
    {
      "midi": 36,
      "hit": false,
      "t": 46571.38199999964,
      "d": 139.8808124999996,
      "v": 92
    },
    {
      "midi": 28,
      "hit": false,
      "t": 46571.38199999964,
      "d": 139.8808124999996,
      "v": 45
    },
    {
      "midi": 36,
      "hit": false,
      "t": 46714.23899999964,
      "d": 139.8808124999996,
      "v": 92
    },
    {
      "midi": 28,
      "hit": false,
      "t": 46714.23899999964,
      "d": 139.8808124999996,
      "v": 45
    },
    {
      "midi": 40,
      "hit": false,
      "t": 46714.238999999834,
      "d": 238.09500000000116,
      "v": 127
    },
    {
      "midi": 52,
      "hit": false,
      "t": 46714.238999999834,
      "d": 238.09500000000116,
      "v": 127
    },
    {
      "midi": 57,
      "hit": false,
      "t": 46714.238999999834,
      "d": 238.09500000000116,
      "v": 127
    },
    {
      "midi": 48,
      "hit": false,
      "t": 46714.23899999994,
      "d": 428.57100000000355,
      "v": 108
    },
    {
      "midi": 55,
      "hit": false,
      "t": 46714.23899999994,
      "d": 428.57100000000355,
      "v": 108
    },
    {
      "midi": 60,
      "hit": false,
      "t": 46714.23899999994,
      "d": 428.57100000000355,
      "v": 108
    },
    {
      "midi": 48,
      "hit": false,
      "t": 46714.23899999997,
      "d": 428.57100000000355,
      "v": 108
    },
    {
      "midi": 55,
      "hit": false,
      "t": 46714.23899999997,
      "d": 428.57100000000355,
      "v": 108
    },
    {
      "midi": 60,
      "hit": false,
      "t": 46714.23899999997,
      "d": 428.57100000000355,
      "v": 108
    },
    {
      "midi": 76,
      "hit": false,
      "t": 46714.238999999994,
      "d": 380.9519999999975,
      "v": 108
    },
    {
      "midi": 79,
      "hit": false,
      "t": 46714.238999999994,
      "d": 380.9519999999975,
      "v": 108
    },
    {
      "midi": 84,
      "hit": false,
      "t": 46714.238999999994,
      "d": 380.9519999999975,
      "v": 108
    },
    {
      "midi": 76,
      "hit": false,
      "t": 46714.239,
      "d": 380.9519999999975,
      "v": 110
    },
    {
      "midi": 79,
      "hit": false,
      "t": 46714.239,
      "d": 380.9519999999975,
      "v": 110
    },
    {
      "midi": 84,
      "hit": false,
      "t": 46714.239,
      "d": 380.9519999999975,
      "v": 110
    },
    {
      "midi": 36,
      "hit": false,
      "t": 46714.23900000011,
      "d": 285.71399999999994,
      "v": 110
    },
    {
      "midi": 36,
      "hit": false,
      "t": 46857.095999999634,
      "d": 139.8808124999996,
      "v": 92
    },
    {
      "midi": 28,
      "hit": false,
      "t": 46857.095999999634,
      "d": 139.8808124999996,
      "v": 45
    },
    {
      "midi": 36,
      "hit": false,
      "t": 46999.95299999963,
      "d": 139.8808124999996,
      "v": 92
    },
    {
      "midi": 28,
      "hit": false,
      "t": 46999.95299999963,
      "d": 139.8808124999996,
      "v": 45
    },
    {
      "midi": 41,
      "hit": false,
      "t": 46999.952999999834,
      "d": 139.8808124999996,
      "v": 127
    },
    {
      "midi": 26,
      "hit": false,
      "t": 46999.95300000011,
      "d": 47.61899999999878,
      "v": 110
    },
    {
      "midi": 36,
      "hit": false,
      "t": 47142.80999999963,
      "d": 139.8808124999996,
      "v": 92
    },
    {
      "midi": 28,
      "hit": false,
      "t": 47142.80999999963,
      "d": 139.8808124999996,
      "v": 45
    },
    {
      "midi": 41,
      "hit": false,
      "t": 47142.80999999983,
      "d": 139.8808124999996,
      "v": 127
    },
    {
      "midi": 46,
      "hit": false,
      "t": 47142.80999999983,
      "d": 139.8808124999996,
      "v": 127
    },
    {
      "midi": 28,
      "hit": false,
      "t": 47142.81000000011,
      "d": 47.61899999999878,
      "v": 110
    },
    {
      "midi": 36,
      "hit": false,
      "t": 47285.66699999962,
      "d": 139.8808124999996,
      "v": 92
    },
    {
      "midi": 28,
      "hit": false,
      "t": 47285.66699999962,
      "d": 139.8808124999996,
      "v": 45
    },
    {
      "midi": 40,
      "hit": false,
      "t": 47285.66699999983,
      "d": 238.09500000000116,
      "v": 127
    },
    {
      "midi": 52,
      "hit": false,
      "t": 47285.66699999983,
      "d": 238.09500000000116,
      "v": 127
    },
    {
      "midi": 57,
      "hit": false,
      "t": 47285.66699999983,
      "d": 238.09500000000116,
      "v": 127
    },
    {
      "midi": 50,
      "hit": false,
      "t": 47285.66699999995,
      "d": 238.09500000000116,
      "v": 108
    },
    {
      "midi": 57,
      "hit": false,
      "t": 47285.66699999995,
      "d": 238.09500000000116,
      "v": 108
    },
    {
      "midi": 62,
      "hit": false,
      "t": 47285.66699999995,
      "d": 238.09500000000116,
      "v": 108
    },
    {
      "midi": 50,
      "hit": false,
      "t": 47285.66699999998,
      "d": 238.09500000000116,
      "v": 108
    },
    {
      "midi": 57,
      "hit": false,
      "t": 47285.66699999998,
      "d": 238.09500000000116,
      "v": 108
    },
    {
      "midi": 62,
      "hit": false,
      "t": 47285.66699999998,
      "d": 238.09500000000116,
      "v": 108
    },
    {
      "midi": 78,
      "hit": false,
      "t": 47285.666999999994,
      "d": 238.09500000000116,
      "v": 108
    },
    {
      "midi": 81,
      "hit": false,
      "t": 47285.666999999994,
      "d": 238.09500000000116,
      "v": 108
    },
    {
      "midi": 86,
      "hit": false,
      "t": 47285.666999999994,
      "d": 238.09500000000116,
      "v": 108
    },
    {
      "midi": 78,
      "hit": false,
      "t": 47285.667,
      "d": 238.09500000000116,
      "v": 110
    },
    {
      "midi": 81,
      "hit": false,
      "t": 47285.667,
      "d": 238.09500000000116,
      "v": 110
    },
    {
      "midi": 86,
      "hit": false,
      "t": 47285.667,
      "d": 238.09500000000116,
      "v": 110
    },
    {
      "midi": 38,
      "hit": false,
      "t": 47285.6670000001,
      "d": 238.09500000000116,
      "v": 110
    },
    {
      "midi": 36,
      "hit": false,
      "t": 47428.52399999962,
      "d": 139.8808124999996,
      "v": 92
    },
    {
      "midi": 28,
      "hit": false,
      "t": 47428.52399999962,
      "d": 139.8808124999996,
      "v": 45
    },
    {
      "midi": 36,
      "hit": false,
      "t": 47571.380999999616,
      "d": 139.8808124999996,
      "v": 92
    },
    {
      "midi": 28,
      "hit": false,
      "t": 47571.380999999616,
      "d": 139.8808124999996,
      "v": 45
    },
    {
      "midi": 40,
      "hit": false,
      "t": 47571.38099999983,
      "d": 68.45231249999779,
      "v": 127
    },
    {
      "midi": 50,
      "hit": false,
      "t": 47571.38099999995,
      "d": 428.57100000000355,
      "v": 108
    },
    {
      "midi": 57,
      "hit": false,
      "t": 47571.38099999995,
      "d": 428.57100000000355,
      "v": 108
    },
    {
      "midi": 62,
      "hit": false,
      "t": 47571.38099999995,
      "d": 428.57100000000355,
      "v": 108
    },
    {
      "midi": 50,
      "hit": false,
      "t": 47571.38099999998,
      "d": 428.57100000000355,
      "v": 108
    },
    {
      "midi": 57,
      "hit": false,
      "t": 47571.38099999998,
      "d": 428.57100000000355,
      "v": 108
    },
    {
      "midi": 62,
      "hit": false,
      "t": 47571.38099999998,
      "d": 428.57100000000355,
      "v": 108
    },
    {
      "midi": 78,
      "hit": false,
      "t": 47571.380999999994,
      "d": 428.57100000000355,
      "v": 108
    },
    {
      "midi": 81,
      "hit": false,
      "t": 47571.380999999994,
      "d": 428.57100000000355,
      "v": 108
    },
    {
      "midi": 86,
      "hit": false,
      "t": 47571.380999999994,
      "d": 428.57100000000355,
      "v": 108
    },
    {
      "midi": 78,
      "hit": false,
      "t": 47571.381,
      "d": 428.57100000000355,
      "v": 110
    },
    {
      "midi": 81,
      "hit": false,
      "t": 47571.381,
      "d": 428.57100000000355,
      "v": 110
    },
    {
      "midi": 86,
      "hit": false,
      "t": 47571.381,
      "d": 428.57100000000355,
      "v": 110
    },
    {
      "midi": 38,
      "hit": false,
      "t": 47571.3810000001,
      "d": 428.57100000000355,
      "v": 110
    },
    {
      "midi": 40,
      "hit": false,
      "t": 47642.80949999982,
      "d": 68.45231249999779,
      "v": 127
    },
    {
      "midi": 36,
      "hit": false,
      "t": 47714.23799999961,
      "d": 139.8808124999996,
      "v": 92
    },
    {
      "midi": 28,
      "hit": false,
      "t": 47714.23799999961,
      "d": 139.8808124999996,
      "v": 45
    },
    {
      "midi": 43,
      "hit": false,
      "t": 47714.237999999816,
      "d": 139.8808124999996,
      "v": 127
    },
    {
      "midi": 36,
      "hit": false,
      "t": 47857.09499999961,
      "d": 139.8808124999996,
      "v": 92
    },
    {
      "midi": 28,
      "hit": false,
      "t": 47857.09499999961,
      "d": 139.8808124999996,
      "v": 45
    },
    {
      "midi": 41,
      "hit": false,
      "t": 47857.09499999981,
      "d": 139.8808124999996,
      "v": 127
    },
    {
      "midi": 36,
      "hit": false,
      "t": 47999.951999999605,
      "d": 139.8808124999996,
      "v": 92
    },
    {
      "midi": 28,
      "hit": false,
      "t": 47999.951999999605,
      "d": 139.8808124999996,
      "v": 45
    },
    {
      "midi": 48,
      "hit": false,
      "t": 47999.951999999794,
      "d": 139.8808124999996,
      "v": 92
    },
    {
      "midi": 55,
      "hit": false,
      "t": 47999.951999999794,
      "d": 139.8808124999996,
      "v": 92
    },
    {
      "midi": 60,
      "hit": false,
      "t": 47999.951999999794,
      "d": 139.8808124999996,
      "v": 92
    },
    {
      "midi": 57,
      "hit": false,
      "t": 47999.95199999981,
      "d": 380.9519999999975,
      "v": 127
    },
    {
      "midi": 48,
      "hit": false,
      "t": 47999.951999999954,
      "d": 139.8808124999996,
      "v": 108
    },
    {
      "midi": 48,
      "hit": false,
      "t": 47999.95199999998,
      "d": 139.8808124999996,
      "v": 108
    },
    {
      "midi": 76,
      "hit": false,
      "t": 47999.952,
      "d": 2571.4259999999995,
      "v": 75
    },
    {
      "midi": 67,
      "hit": false,
      "t": 47999.952,
      "d": 3357.1394999999975,
      "v": 75
    },
    {
      "midi": 72,
      "hit": false,
      "t": 47999.952,
      "d": 3357.1394999999975,
      "v": 75
    },
    {
      "midi": 52,
      "hit": false,
      "t": 47999.952000000005,
      "d": 139.8808124999996,
      "v": 127
    },
    {
      "midi": 52,
      "hit": false,
      "t": 47999.952000000005,
      "d": 139.8808124999996,
      "v": 75
    },
    {
      "midi": 36,
      "hit": false,
      "t": 47999.95200000011,
      "d": 285.71399999999994,
      "v": 110
    },
    {
      "midi": 36,
      "hit": false,
      "t": 48142.8089999996,
      "d": 139.8808124999996,
      "v": 92
    },
    {
      "midi": 28,
      "hit": false,
      "t": 48142.8089999996,
      "d": 139.8808124999996,
      "v": 45
    },
    {
      "midi": 48,
      "hit": false,
      "t": 48142.80899999979,
      "d": 139.8808124999996,
      "v": 92
    },
    {
      "midi": 55,
      "hit": false,
      "t": 48142.80899999979,
      "d": 139.8808124999996,
      "v": 92
    },
    {
      "midi": 60,
      "hit": false,
      "t": 48142.80899999979,
      "d": 139.8808124999996,
      "v": 92
    },
    {
      "midi": 48,
      "hit": false,
      "t": 48142.80899999995,
      "d": 139.8808124999996,
      "v": 108
    },
    {
      "midi": 48,
      "hit": false,
      "t": 48142.80899999998,
      "d": 139.8808124999996,
      "v": 108
    },
    {
      "midi": 59,
      "hit": false,
      "t": 48142.809,
      "d": 139.8808124999996,
      "v": 127
    },
    {
      "midi": 59,
      "hit": false,
      "t": 48142.809,
      "d": 139.8808124999996,
      "v": 75
    },
    {
      "midi": 36,
      "hit": false,
      "t": 48285.6659999996,
      "d": 139.8808124999996,
      "v": 92
    },
    {
      "midi": 28,
      "hit": false,
      "t": 48285.6659999996,
      "d": 139.8808124999996,
      "v": 45
    },
    {
      "midi": 48,
      "hit": false,
      "t": 48285.66599999979,
      "d": 139.8808124999996,
      "v": 92
    },
    {
      "midi": 55,
      "hit": false,
      "t": 48285.66599999979,
      "d": 139.8808124999996,
      "v": 92
    },
    {
      "midi": 60,
      "hit": false,
      "t": 48285.66599999979,
      "d": 139.8808124999996,
      "v": 92
    },
    {
      "midi": 48,
      "hit": false,
      "t": 48285.66599999995,
      "d": 139.8808124999996,
      "v": 108
    },
    {
      "midi": 48,
      "hit": false,
      "t": 48285.665999999976,
      "d": 139.8808124999996,
      "v": 108
    },
    {
      "midi": 57,
      "hit": false,
      "t": 48285.666,
      "d": 139.8808124999996,
      "v": 127
    },
    {
      "midi": 57,
      "hit": false,
      "t": 48285.666,
      "d": 139.8808124999996,
      "v": 75
    },
    {
      "midi": 36,
      "hit": false,
      "t": 48285.66600000011,
      "d": 142.8570000000036,
      "v": 110
    },
    {
      "midi": 36,
      "hit": false,
      "t": 48428.52299999959,
      "d": 139.8808124999996,
      "v": 92
    },
    {
      "midi": 28,
      "hit": false,
      "t": 48428.52299999959,
      "d": 139.8808124999996,
      "v": 45
    },
    {
      "midi": 48,
      "hit": false,
      "t": 48428.52299999978,
      "d": 139.8808124999996,
      "v": 92
    },
    {
      "midi": 55,
      "hit": false,
      "t": 48428.52299999978,
      "d": 139.8808124999996,
      "v": 92
    },
    {
      "midi": 60,
      "hit": false,
      "t": 48428.52299999978,
      "d": 139.8808124999996,
      "v": 92
    },
    {
      "midi": 40,
      "hit": false,
      "t": 48428.522999999805,
      "d": 380.9519999999975,
      "v": 127
    },
    {
      "midi": 53,
      "hit": false,
      "t": 48428.522999999805,
      "d": 380.9519999999975,
      "v": 127
    },
    {
      "midi": 48,
      "hit": false,
      "t": 48428.52299999994,
      "d": 139.8808124999996,
      "v": 108
    },
    {
      "midi": 48,
      "hit": false,
      "t": 48428.52299999997,
      "d": 139.8808124999996,
      "v": 108
    },
    {
      "midi": 59,
      "hit": false,
      "t": 48428.522999999994,
      "d": 238.09500000000116,
      "v": 127
    },
    {
      "midi": 59,
      "hit": false,
      "t": 48428.522999999994,
      "d": 238.09500000000116,
      "v": 75
    },
    {
      "midi": 36,
      "hit": false,
      "t": 48428.52300000011,
      "d": 142.8570000000036,
      "v": 110
    },
    {
      "midi": 36,
      "hit": false,
      "t": 48571.37999999959,
      "d": 139.8808124999996,
      "v": 92
    },
    {
      "midi": 28,
      "hit": false,
      "t": 48571.37999999959,
      "d": 139.8808124999996,
      "v": 45
    },
    {
      "midi": 48,
      "hit": false,
      "t": 48571.37999999978,
      "d": 139.8808124999996,
      "v": 92
    },
    {
      "midi": 55,
      "hit": false,
      "t": 48571.37999999978,
      "d": 139.8808124999996,
      "v": 92
    },
    {
      "midi": 60,
      "hit": false,
      "t": 48571.37999999978,
      "d": 139.8808124999996,
      "v": 92
    },
    {
      "midi": 48,
      "hit": false,
      "t": 48571.37999999994,
      "d": 139.8808124999996,
      "v": 108
    },
    {
      "midi": 48,
      "hit": false,
      "t": 48571.37999999997,
      "d": 139.8808124999996,
      "v": 108
    },
    {
      "midi": 36,
      "hit": false,
      "t": 48571.380000000114,
      "d": 142.8570000000036,
      "v": 110
    },
    {
      "midi": 36,
      "hit": false,
      "t": 48714.236999999586,
      "d": 139.8808124999996,
      "v": 92
    },
    {
      "midi": 28,
      "hit": false,
      "t": 48714.236999999586,
      "d": 139.8808124999996,
      "v": 45
    },
    {
      "midi": 48,
      "hit": false,
      "t": 48714.236999999775,
      "d": 139.8808124999996,
      "v": 92
    },
    {
      "midi": 55,
      "hit": false,
      "t": 48714.236999999775,
      "d": 139.8808124999996,
      "v": 92
    },
    {
      "midi": 60,
      "hit": false,
      "t": 48714.236999999775,
      "d": 139.8808124999996,
      "v": 92
    },
    {
      "midi": 48,
      "hit": false,
      "t": 48714.236999999936,
      "d": 139.8808124999996,
      "v": 108
    },
    {
      "midi": 48,
      "hit": false,
      "t": 48714.236999999965,
      "d": 139.8808124999996,
      "v": 108
    },
    {
      "midi": 59,
      "hit": false,
      "t": 48714.236999999994,
      "d": 139.8808124999996,
      "v": 127
    },
    {
      "midi": 59,
      "hit": false,
      "t": 48714.236999999994,
      "d": 139.8808124999996,
      "v": 75
    },
    {
      "midi": 36,
      "hit": false,
      "t": 48714.23700000012,
      "d": 142.8570000000036,
      "v": 110
    },
    {
      "midi": 36,
      "hit": false,
      "t": 48857.09399999958,
      "d": 139.8808124999996,
      "v": 92
    },
    {
      "midi": 28,
      "hit": false,
      "t": 48857.09399999958,
      "d": 139.8808124999996,
      "v": 45
    },
    {
      "midi": 48,
      "hit": false,
      "t": 48857.09399999977,
      "d": 285.71399999999994,
      "v": 92
    },
    {
      "midi": 55,
      "hit": false,
      "t": 48857.09399999977,
      "d": 285.71399999999994,
      "v": 92
    },
    {
      "midi": 60,
      "hit": false,
      "t": 48857.09399999977,
      "d": 285.71399999999994,
      "v": 92
    },
    {
      "midi": 53,
      "hit": false,
      "t": 48857.0939999998,
      "d": 380.9519999999975,
      "v": 127
    },
    {
      "midi": 48,
      "hit": false,
      "t": 48857.09399999993,
      "d": 285.71399999999994,
      "v": 108
    },
    {
      "midi": 55,
      "hit": false,
      "t": 48857.09399999993,
      "d": 285.71399999999994,
      "v": 108
    },
    {
      "midi": 60,
      "hit": false,
      "t": 48857.09399999993,
      "d": 285.71399999999994,
      "v": 108
    },
    {
      "midi": 48,
      "hit": false,
      "t": 48857.09399999996,
      "d": 285.71399999999994,
      "v": 108
    },
    {
      "midi": 55,
      "hit": false,
      "t": 48857.09399999996,
      "d": 285.71399999999994,
      "v": 108
    },
    {
      "midi": 60,
      "hit": false,
      "t": 48857.09399999996,
      "d": 285.71399999999994,
      "v": 108
    },
    {
      "midi": 52,
      "hit": false,
      "t": 48857.09399999999,
      "d": 139.8808124999996,
      "v": 127
    },
    {
      "midi": 52,
      "hit": false,
      "t": 48857.09399999999,
      "d": 139.8808124999996,
      "v": 75
    },
    {
      "midi": 36,
      "hit": false,
      "t": 48857.09400000012,
      "d": 285.71399999999994,
      "v": 110
    },
    {
      "midi": 36,
      "hit": false,
      "t": 48999.95099999958,
      "d": 139.8808124999996,
      "v": 92
    },
    {
      "midi": 28,
      "hit": false,
      "t": 48999.95099999958,
      "d": 139.8808124999996,
      "v": 45
    },
    {
      "midi": 59,
      "hit": false,
      "t": 48999.95099999999,
      "d": 139.8808124999996,
      "v": 127
    },
    {
      "midi": 59,
      "hit": false,
      "t": 48999.95099999999,
      "d": 139.8808124999996,
      "v": 75
    },
    {
      "midi": 36,
      "hit": false,
      "t": 49142.807999999575,
      "d": 139.8808124999996,
      "v": 92
    },
    {
      "midi": 28,
      "hit": false,
      "t": 49142.807999999575,
      "d": 139.8808124999996,
      "v": 45
    },
    {
      "midi": 48,
      "hit": false,
      "t": 49142.80799999977,
      "d": 139.8808124999996,
      "v": 92
    },
    {
      "midi": 55,
      "hit": false,
      "t": 49142.80799999977,
      "d": 139.8808124999996,
      "v": 92
    },
    {
      "midi": 60,
      "hit": false,
      "t": 49142.80799999977,
      "d": 139.8808124999996,
      "v": 92
    },
    {
      "midi": 48,
      "hit": false,
      "t": 49142.80799999993,
      "d": 139.8808124999996,
      "v": 108
    },
    {
      "midi": 48,
      "hit": false,
      "t": 49142.80799999996,
      "d": 139.8808124999996,
      "v": 108
    },
    {
      "midi": 57,
      "hit": false,
      "t": 49142.80799999998,
      "d": 139.8808124999996,
      "v": 127
    },
    {
      "midi": 57,
      "hit": false,
      "t": 49142.80799999998,
      "d": 139.8808124999996,
      "v": 75
    },
    {
      "midi": 36,
      "hit": false,
      "t": 49142.80800000012,
      "d": 142.8570000000036,
      "v": 110
    },
    {
      "midi": 36,
      "hit": false,
      "t": 49285.66499999957,
      "d": 139.8808124999996,
      "v": 92
    },
    {
      "midi": 28,
      "hit": false,
      "t": 49285.66499999957,
      "d": 139.8808124999996,
      "v": 45
    },
    {
      "midi": 48,
      "hit": false,
      "t": 49285.66499999977,
      "d": 139.8808124999996,
      "v": 92
    },
    {
      "midi": 55,
      "hit": false,
      "t": 49285.66499999977,
      "d": 139.8808124999996,
      "v": 92
    },
    {
      "midi": 60,
      "hit": false,
      "t": 49285.66499999977,
      "d": 139.8808124999996,
      "v": 92
    },
    {
      "midi": 40,
      "hit": false,
      "t": 49285.6649999998,
      "d": 380.9519999999975,
      "v": 127
    },
    {
      "midi": 53,
      "hit": false,
      "t": 49285.6649999998,
      "d": 380.9519999999975,
      "v": 127
    },
    {
      "midi": 48,
      "hit": false,
      "t": 49285.66499999993,
      "d": 139.8808124999996,
      "v": 108
    },
    {
      "midi": 48,
      "hit": false,
      "t": 49285.66499999996,
      "d": 139.8808124999996,
      "v": 108
    },
    {
      "midi": 59,
      "hit": false,
      "t": 49285.66499999998,
      "d": 238.09500000000116,
      "v": 127
    },
    {
      "midi": 59,
      "hit": false,
      "t": 49285.66499999998,
      "d": 238.09500000000116,
      "v": 75
    },
    {
      "midi": 36,
      "hit": false,
      "t": 49285.665000000125,
      "d": 142.8570000000036,
      "v": 110
    },
    {
      "midi": 36,
      "hit": false,
      "t": 49428.52199999957,
      "d": 139.8808124999996,
      "v": 92
    },
    {
      "midi": 28,
      "hit": false,
      "t": 49428.52199999957,
      "d": 139.8808124999996,
      "v": 45
    },
    {
      "midi": 48,
      "hit": false,
      "t": 49428.521999999764,
      "d": 139.8808124999996,
      "v": 92
    },
    {
      "midi": 55,
      "hit": false,
      "t": 49428.521999999764,
      "d": 139.8808124999996,
      "v": 92
    },
    {
      "midi": 60,
      "hit": false,
      "t": 49428.521999999764,
      "d": 139.8808124999996,
      "v": 92
    },
    {
      "midi": 48,
      "hit": false,
      "t": 49428.521999999924,
      "d": 139.8808124999996,
      "v": 108
    },
    {
      "midi": 48,
      "hit": false,
      "t": 49428.52199999995,
      "d": 139.8808124999996,
      "v": 108
    },
    {
      "midi": 36,
      "hit": false,
      "t": 49428.52200000013,
      "d": 142.8570000000036,
      "v": 110
    },
    {
      "midi": 36,
      "hit": false,
      "t": 49571.378999999564,
      "d": 139.8808124999996,
      "v": 92
    },
    {
      "midi": 28,
      "hit": false,
      "t": 49571.378999999564,
      "d": 139.8808124999996,
      "v": 45
    },
    {
      "midi": 48,
      "hit": false,
      "t": 49571.37899999976,
      "d": 139.8808124999996,
      "v": 92
    },
    {
      "midi": 55,
      "hit": false,
      "t": 49571.37899999976,
      "d": 139.8808124999996,
      "v": 92
    },
    {
      "midi": 60,
      "hit": false,
      "t": 49571.37899999976,
      "d": 139.8808124999996,
      "v": 92
    },
    {
      "midi": 48,
      "hit": false,
      "t": 49571.37899999992,
      "d": 139.8808124999996,
      "v": 108
    },
    {
      "midi": 48,
      "hit": false,
      "t": 49571.37899999995,
      "d": 139.8808124999996,
      "v": 108
    },
    {
      "midi": 59,
      "hit": false,
      "t": 49571.37899999998,
      "d": 139.8808124999996,
      "v": 127
    },
    {
      "midi": 59,
      "hit": false,
      "t": 49571.37899999998,
      "d": 139.8808124999996,
      "v": 75
    },
    {
      "midi": 36,
      "hit": false,
      "t": 49571.37900000013,
      "d": 142.8570000000036,
      "v": 110
    },
    {
      "midi": 36,
      "hit": false,
      "t": 49714.23599999956,
      "d": 139.8808124999996,
      "v": 92
    },
    {
      "midi": 28,
      "hit": false,
      "t": 49714.23599999956,
      "d": 139.8808124999996,
      "v": 45
    },
    {
      "midi": 48,
      "hit": false,
      "t": 49714.23599999976,
      "d": 139.8808124999996,
      "v": 92
    },
    {
      "midi": 55,
      "hit": false,
      "t": 49714.23599999976,
      "d": 139.8808124999996,
      "v": 92
    },
    {
      "midi": 60,
      "hit": false,
      "t": 49714.23599999976,
      "d": 139.8808124999996,
      "v": 92
    },
    {
      "midi": 53,
      "hit": false,
      "t": 49714.23599999979,
      "d": 380.9519999999975,
      "v": 127
    },
    {
      "midi": 48,
      "hit": false,
      "t": 49714.23599999992,
      "d": 139.8808124999996,
      "v": 108
    },
    {
      "midi": 48,
      "hit": false,
      "t": 49714.235999999946,
      "d": 139.8808124999996,
      "v": 108
    },
    {
      "midi": 52,
      "hit": false,
      "t": 49714.235999999975,
      "d": 139.8808124999996,
      "v": 127
    },
    {
      "midi": 52,
      "hit": false,
      "t": 49714.235999999975,
      "d": 139.8808124999996,
      "v": 75
    },
    {
      "midi": 36,
      "hit": false,
      "t": 49714.236000000135,
      "d": 142.8570000000036,
      "v": 110
    },
    {
      "midi": 36,
      "hit": false,
      "t": 49857.09299999956,
      "d": 139.8808124999996,
      "v": 92
    },
    {
      "midi": 28,
      "hit": false,
      "t": 49857.09299999956,
      "d": 139.8808124999996,
      "v": 45
    },
    {
      "midi": 48,
      "hit": false,
      "t": 49857.09299999975,
      "d": 139.8808124999996,
      "v": 92
    },
    {
      "midi": 55,
      "hit": false,
      "t": 49857.09299999975,
      "d": 139.8808124999996,
      "v": 92
    },
    {
      "midi": 60,
      "hit": false,
      "t": 49857.09299999975,
      "d": 139.8808124999996,
      "v": 92
    },
    {
      "midi": 48,
      "hit": false,
      "t": 49857.09299999991,
      "d": 139.8808124999996,
      "v": 108
    },
    {
      "midi": 48,
      "hit": false,
      "t": 49857.09299999994,
      "d": 139.8808124999996,
      "v": 108
    },
    {
      "midi": 59,
      "hit": false,
      "t": 49857.09299999997,
      "d": 139.8808124999996,
      "v": 127
    },
    {
      "midi": 59,
      "hit": false,
      "t": 49857.09299999997,
      "d": 139.8808124999996,
      "v": 75
    },
    {
      "midi": 36,
      "hit": false,
      "t": 49857.09300000014,
      "d": 142.8570000000036,
      "v": 110
    },
    {
      "midi": 36,
      "hit": false,
      "t": 49999.94999999955,
      "d": 139.8808124999996,
      "v": 92
    },
    {
      "midi": 28,
      "hit": false,
      "t": 49999.94999999955,
      "d": 139.8808124999996,
      "v": 45
    },
    {
      "midi": 48,
      "hit": false,
      "t": 49999.94999999975,
      "d": 139.8808124999996,
      "v": 92
    },
    {
      "midi": 55,
      "hit": false,
      "t": 49999.94999999975,
      "d": 139.8808124999996,
      "v": 92
    },
    {
      "midi": 60,
      "hit": false,
      "t": 49999.94999999975,
      "d": 139.8808124999996,
      "v": 92
    },
    {
      "midi": 48,
      "hit": false,
      "t": 49999.94999999991,
      "d": 139.8808124999996,
      "v": 108
    },
    {
      "midi": 48,
      "hit": false,
      "t": 49999.94999999994,
      "d": 139.8808124999996,
      "v": 108
    },
    {
      "midi": 57,
      "hit": false,
      "t": 49999.94999999997,
      "d": 139.8808124999996,
      "v": 127
    },
    {
      "midi": 57,
      "hit": false,
      "t": 49999.94999999997,
      "d": 139.8808124999996,
      "v": 75
    },
    {
      "midi": 36,
      "hit": false,
      "t": 49999.95000000014,
      "d": 142.8570000000036,
      "v": 110
    },
    {
      "midi": 36,
      "hit": false,
      "t": 50142.80699999955,
      "d": 139.8808124999996,
      "v": 92
    },
    {
      "midi": 28,
      "hit": false,
      "t": 50142.80699999955,
      "d": 139.8808124999996,
      "v": 45
    },
    {
      "midi": 48,
      "hit": false,
      "t": 50142.806999999746,
      "d": 139.8808124999996,
      "v": 92
    },
    {
      "midi": 55,
      "hit": false,
      "t": 50142.806999999746,
      "d": 139.8808124999996,
      "v": 92
    },
    {
      "midi": 60,
      "hit": false,
      "t": 50142.806999999746,
      "d": 139.8808124999996,
      "v": 92
    },
    {
      "midi": 40,
      "hit": false,
      "t": 50142.80699999979,
      "d": 380.9519999999975,
      "v": 127
    },
    {
      "midi": 53,
      "hit": false,
      "t": 50142.80699999979,
      "d": 380.9519999999975,
      "v": 127
    },
    {
      "midi": 48,
      "hit": false,
      "t": 50142.806999999906,
      "d": 139.8808124999996,
      "v": 108
    },
    {
      "midi": 48,
      "hit": false,
      "t": 50142.806999999935,
      "d": 139.8808124999996,
      "v": 108
    },
    {
      "midi": 59,
      "hit": false,
      "t": 50142.806999999964,
      "d": 238.09500000000116,
      "v": 127
    },
    {
      "midi": 59,
      "hit": false,
      "t": 50142.806999999964,
      "d": 238.09500000000116,
      "v": 75
    },
    {
      "midi": 36,
      "hit": false,
      "t": 50142.807000000146,
      "d": 142.8570000000036,
      "v": 110
    },
    {
      "midi": 36,
      "hit": false,
      "t": 50285.663999999546,
      "d": 139.8808124999996,
      "v": 92
    },
    {
      "midi": 28,
      "hit": false,
      "t": 50285.663999999546,
      "d": 139.8808124999996,
      "v": 45
    },
    {
      "midi": 48,
      "hit": false,
      "t": 50285.66399999974,
      "d": 139.8808124999996,
      "v": 92
    },
    {
      "midi": 55,
      "hit": false,
      "t": 50285.66399999974,
      "d": 139.8808124999996,
      "v": 92
    },
    {
      "midi": 60,
      "hit": false,
      "t": 50285.66399999974,
      "d": 139.8808124999996,
      "v": 92
    },
    {
      "midi": 48,
      "hit": false,
      "t": 50285.6639999999,
      "d": 139.8808124999996,
      "v": 108
    },
    {
      "midi": 48,
      "hit": false,
      "t": 50285.66399999993,
      "d": 139.8808124999996,
      "v": 108
    },
    {
      "midi": 36,
      "hit": false,
      "t": 50285.66400000015,
      "d": 142.8570000000036,
      "v": 110
    },
    {
      "midi": 36,
      "hit": false,
      "t": 50428.52099999954,
      "d": 139.8808124999996,
      "v": 92
    },
    {
      "midi": 28,
      "hit": false,
      "t": 50428.52099999954,
      "d": 139.8808124999996,
      "v": 45
    },
    {
      "midi": 48,
      "hit": false,
      "t": 50428.52099999974,
      "d": 139.8808124999996,
      "v": 92
    },
    {
      "midi": 55,
      "hit": false,
      "t": 50428.52099999974,
      "d": 139.8808124999996,
      "v": 92
    },
    {
      "midi": 60,
      "hit": false,
      "t": 50428.52099999974,
      "d": 139.8808124999996,
      "v": 92
    },
    {
      "midi": 48,
      "hit": false,
      "t": 50428.5209999999,
      "d": 139.8808124999996,
      "v": 108
    },
    {
      "midi": 48,
      "hit": false,
      "t": 50428.52099999993,
      "d": 139.8808124999996,
      "v": 108
    },
    {
      "midi": 59,
      "hit": false,
      "t": 50428.520999999964,
      "d": 139.8808124999996,
      "v": 127
    },
    {
      "midi": 59,
      "hit": false,
      "t": 50428.520999999964,
      "d": 139.8808124999996,
      "v": 75
    },
    {
      "midi": 36,
      "hit": false,
      "t": 50428.52100000015,
      "d": 142.8570000000036,
      "v": 110
    },
    {
      "midi": 36,
      "hit": false,
      "t": 50571.37799999954,
      "d": 139.8808124999996,
      "v": 92
    },
    {
      "midi": 28,
      "hit": false,
      "t": 50571.37799999954,
      "d": 139.8808124999996,
      "v": 45
    },
    {
      "midi": 48,
      "hit": false,
      "t": 50571.377999999735,
      "d": 285.71399999999994,
      "v": 92
    },
    {
      "midi": 55,
      "hit": false,
      "t": 50571.377999999735,
      "d": 285.71399999999994,
      "v": 92
    },
    {
      "midi": 60,
      "hit": false,
      "t": 50571.377999999735,
      "d": 285.71399999999994,
      "v": 92
    },
    {
      "midi": 53,
      "hit": false,
      "t": 50571.377999999786,
      "d": 380.9519999999975,
      "v": 127
    },
    {
      "midi": 48,
      "hit": false,
      "t": 50571.377999999895,
      "d": 285.71399999999994,
      "v": 108
    },
    {
      "midi": 55,
      "hit": false,
      "t": 50571.377999999895,
      "d": 285.71399999999994,
      "v": 108
    },
    {
      "midi": 60,
      "hit": false,
      "t": 50571.377999999895,
      "d": 285.71399999999994,
      "v": 108
    },
    {
      "midi": 48,
      "hit": false,
      "t": 50571.377999999924,
      "d": 285.71399999999994,
      "v": 108
    },
    {
      "midi": 55,
      "hit": false,
      "t": 50571.377999999924,
      "d": 285.71399999999994,
      "v": 108
    },
    {
      "midi": 60,
      "hit": false,
      "t": 50571.377999999924,
      "d": 285.71399999999994,
      "v": 108
    },
    {
      "midi": 59,
      "hit": false,
      "t": 50571.37799999996,
      "d": 238.09500000000116,
      "v": 127
    },
    {
      "midi": 59,
      "hit": false,
      "t": 50571.37799999996,
      "d": 238.09500000000116,
      "v": 75
    },
    {
      "midi": 79,
      "hit": false,
      "t": 50571.378,
      "d": 1714.2839999999997,
      "v": 75
    },
    {
      "midi": 36,
      "hit": false,
      "t": 50571.37800000016,
      "d": 285.71399999999994,
      "v": 110
    },
    {
      "midi": 36,
      "hit": false,
      "t": 50714.234999999535,
      "d": 139.8808124999996,
      "v": 92
    },
    {
      "midi": 28,
      "hit": false,
      "t": 50714.234999999535,
      "d": 139.8808124999996,
      "v": 45
    },
    {
      "midi": 36,
      "hit": false,
      "t": 50857.09199999953,
      "d": 139.8808124999996,
      "v": 92
    },
    {
      "midi": 28,
      "hit": false,
      "t": 50857.09199999953,
      "d": 139.8808124999996,
      "v": 45
    },
    {
      "midi": 48,
      "hit": false,
      "t": 50857.091999999735,
      "d": 139.8808124999996,
      "v": 92
    },
    {
      "midi": 55,
      "hit": false,
      "t": 50857.091999999735,
      "d": 139.8808124999996,
      "v": 92
    },
    {
      "midi": 60,
      "hit": false,
      "t": 50857.091999999735,
      "d": 139.8808124999996,
      "v": 92
    },
    {
      "midi": 48,
      "hit": false,
      "t": 50857.091999999895,
      "d": 139.8808124999996,
      "v": 108
    },
    {
      "midi": 48,
      "hit": false,
      "t": 50857.091999999924,
      "d": 139.8808124999996,
      "v": 108
    },
    {
      "midi": 57,
      "hit": false,
      "t": 50857.09199999996,
      "d": 139.8808124999996,
      "v": 127
    },
    {
      "midi": 57,
      "hit": false,
      "t": 50857.09199999996,
      "d": 139.8808124999996,
      "v": 75
    },
    {
      "midi": 36,
      "hit": false,
      "t": 50857.09200000016,
      "d": 142.8570000000036,
      "v": 110
    },
    {
      "midi": 36,
      "hit": false,
      "t": 50999.94899999953,
      "d": 139.8808124999996,
      "v": 92
    },
    {
      "midi": 28,
      "hit": false,
      "t": 50999.94899999953,
      "d": 139.8808124999996,
      "v": 45
    },
    {
      "midi": 48,
      "hit": false,
      "t": 50999.94899999973,
      "d": 139.8808124999996,
      "v": 92
    },
    {
      "midi": 55,
      "hit": false,
      "t": 50999.94899999973,
      "d": 139.8808124999996,
      "v": 92
    },
    {
      "midi": 60,
      "hit": false,
      "t": 50999.94899999973,
      "d": 139.8808124999996,
      "v": 92
    },
    {
      "midi": 40,
      "hit": false,
      "t": 50999.94899999978,
      "d": 380.9519999999975,
      "v": 127
    },
    {
      "midi": 53,
      "hit": false,
      "t": 50999.94899999978,
      "d": 380.9519999999975,
      "v": 127
    },
    {
      "midi": 48,
      "hit": false,
      "t": 50999.94899999989,
      "d": 139.8808124999996,
      "v": 108
    },
    {
      "midi": 48,
      "hit": false,
      "t": 50999.94899999992,
      "d": 139.8808124999996,
      "v": 108
    },
    {
      "midi": 57,
      "hit": false,
      "t": 50999.94899999996,
      "d": 238.09500000000116,
      "v": 127
    },
    {
      "midi": 57,
      "hit": false,
      "t": 50999.94899999996,
      "d": 238.09500000000116,
      "v": 75
    },
    {
      "midi": 36,
      "hit": false,
      "t": 50999.94900000016,
      "d": 142.8570000000036,
      "v": 110
    },
    {
      "midi": 36,
      "hit": false,
      "t": 51142.805999999524,
      "d": 139.8808124999996,
      "v": 92
    },
    {
      "midi": 28,
      "hit": false,
      "t": 51142.805999999524,
      "d": 139.8808124999996,
      "v": 45
    },
    {
      "midi": 48,
      "hit": false,
      "t": 51142.80599999973,
      "d": 139.8808124999996,
      "v": 92
    },
    {
      "midi": 55,
      "hit": false,
      "t": 51142.80599999973,
      "d": 139.8808124999996,
      "v": 92
    },
    {
      "midi": 60,
      "hit": false,
      "t": 51142.80599999973,
      "d": 139.8808124999996,
      "v": 92
    },
    {
      "midi": 48,
      "hit": false,
      "t": 51142.80599999989,
      "d": 139.8808124999996,
      "v": 108
    },
    {
      "midi": 48,
      "hit": false,
      "t": 51142.80599999992,
      "d": 139.8808124999996,
      "v": 108
    },
    {
      "midi": 36,
      "hit": false,
      "t": 51142.806000000164,
      "d": 142.8570000000036,
      "v": 110
    },
    {
      "midi": 36,
      "hit": false,
      "t": 51285.66299999952,
      "d": 139.8808124999996,
      "v": 92
    },
    {
      "midi": 28,
      "hit": false,
      "t": 51285.66299999952,
      "d": 139.8808124999996,
      "v": 45
    },
    {
      "midi": 48,
      "hit": false,
      "t": 51285.662999999724,
      "d": 139.8808124999996,
      "v": 92
    },
    {
      "midi": 55,
      "hit": false,
      "t": 51285.662999999724,
      "d": 139.8808124999996,
      "v": 92
    },
    {
      "midi": 60,
      "hit": false,
      "t": 51285.662999999724,
      "d": 139.8808124999996,
      "v": 92
    },
    {
      "midi": 48,
      "hit": false,
      "t": 51285.662999999884,
      "d": 139.8808124999996,
      "v": 108
    },
    {
      "midi": 48,
      "hit": false,
      "t": 51285.66299999991,
      "d": 139.8808124999996,
      "v": 108
    },
    {
      "midi": 52,
      "hit": false,
      "t": 51285.66299999996,
      "d": 139.8808124999996,
      "v": 127
    },
    {
      "midi": 52,
      "hit": false,
      "t": 51285.66299999996,
      "d": 139.8808124999996,
      "v": 75
    },
    {
      "midi": 36,
      "hit": false,
      "t": 51285.66300000017,
      "d": 142.8570000000036,
      "v": 110
    },
    {
      "midi": 36,
      "hit": false,
      "t": 51428.51999999952,
      "d": 139.8808124999996,
      "v": 92
    },
    {
      "midi": 28,
      "hit": false,
      "t": 51428.51999999952,
      "d": 139.8808124999996,
      "v": 45
    },
    {
      "midi": 47,
      "hit": false,
      "t": 51428.51999999972,
      "d": 285.71399999999994,
      "v": 92
    },
    {
      "midi": 54,
      "hit": false,
      "t": 51428.51999999972,
      "d": 285.71399999999994,
      "v": 92
    },
    {
      "midi": 59,
      "hit": false,
      "t": 51428.51999999972,
      "d": 285.71399999999994,
      "v": 92
    },
    {
      "midi": 53,
      "hit": false,
      "t": 51428.51999999978,
      "d": 380.9519999999975,
      "v": 127
    },
    {
      "midi": 47,
      "hit": false,
      "t": 51428.51999999988,
      "d": 285.71399999999994,
      "v": 108
    },
    {
      "midi": 54,
      "hit": false,
      "t": 51428.51999999988,
      "d": 285.71399999999994,
      "v": 108
    },
    {
      "midi": 59,
      "hit": false,
      "t": 51428.51999999988,
      "d": 285.71399999999994,
      "v": 108
    },
    {
      "midi": 47,
      "hit": false,
      "t": 51428.51999999991,
      "d": 285.71399999999994,
      "v": 108
    },
    {
      "midi": 54,
      "hit": false,
      "t": 51428.51999999991,
      "d": 285.71399999999994,
      "v": 108
    },
    {
      "midi": 59,
      "hit": false,
      "t": 51428.51999999991,
      "d": 285.71399999999994,
      "v": 108
    },
    {
      "midi": 55,
      "hit": false,
      "t": 51428.51999999995,
      "d": 238.09500000000116,
      "v": 127
    },
    {
      "midi": 55,
      "hit": false,
      "t": 51428.51999999995,
      "d": 238.09500000000116,
      "v": 75
    },
    {
      "midi": 66,
      "hit": false,
      "t": 51428.52,
      "d": 3428.5679999999993,
      "v": 75
    },
    {
      "midi": 71,
      "hit": false,
      "t": 51428.52,
      "d": 3428.5679999999993,
      "v": 75
    },
    {
      "midi": 74,
      "hit": false,
      "t": 51428.52,
      "d": 3428.5679999999993,
      "v": 75
    },
    {
      "midi": 35,
      "hit": false,
      "t": 51428.52000000017,
      "d": 285.71399999999994,
      "v": 110
    },
    {
      "midi": 36,
      "hit": false,
      "t": 51571.37699999951,
      "d": 139.8808124999996,
      "v": 92
    },
    {
      "midi": 28,
      "hit": false,
      "t": 51571.37699999951,
      "d": 139.8808124999996,
      "v": 45
    },
    {
      "midi": 36,
      "hit": false,
      "t": 51714.23399999951,
      "d": 139.8808124999996,
      "v": 92
    },
    {
      "midi": 28,
      "hit": false,
      "t": 51714.23399999951,
      "d": 139.8808124999996,
      "v": 45
    },
    {
      "midi": 47,
      "hit": false,
      "t": 51714.23399999972,
      "d": 139.8808124999996,
      "v": 92
    },
    {
      "midi": 54,
      "hit": false,
      "t": 51714.23399999972,
      "d": 139.8808124999996,
      "v": 92
    },
    {
      "midi": 59,
      "hit": false,
      "t": 51714.23399999972,
      "d": 139.8808124999996,
      "v": 92
    },
    {
      "midi": 47,
      "hit": false,
      "t": 51714.23399999988,
      "d": 139.8808124999996,
      "v": 108
    },
    {
      "midi": 47,
      "hit": false,
      "t": 51714.23399999991,
      "d": 139.8808124999996,
      "v": 108
    },
    {
      "midi": 52,
      "hit": false,
      "t": 51714.23399999995,
      "d": 139.8808124999996,
      "v": 127
    },
    {
      "midi": 52,
      "hit": false,
      "t": 51714.23399999995,
      "d": 139.8808124999996,
      "v": 75
    },
    {
      "midi": 35,
      "hit": false,
      "t": 51714.23400000017,
      "d": 142.8570000000036,
      "v": 110
    },
    {
      "midi": 36,
      "hit": false,
      "t": 51857.090999999506,
      "d": 139.8808124999996,
      "v": 92
    },
    {
      "midi": 28,
      "hit": false,
      "t": 51857.090999999506,
      "d": 139.8808124999996,
      "v": 45
    },
    {
      "midi": 47,
      "hit": false,
      "t": 51857.09099999972,
      "d": 139.8808124999996,
      "v": 92
    },
    {
      "midi": 54,
      "hit": false,
      "t": 51857.09099999972,
      "d": 139.8808124999996,
      "v": 92
    },
    {
      "midi": 59,
      "hit": false,
      "t": 51857.09099999972,
      "d": 139.8808124999996,
      "v": 92
    },
    {
      "midi": 40,
      "hit": false,
      "t": 51857.090999999775,
      "d": 380.9519999999975,
      "v": 127
    },
    {
      "midi": 53,
      "hit": false,
      "t": 51857.090999999775,
      "d": 380.9519999999975,
      "v": 127
    },
    {
      "midi": 47,
      "hit": false,
      "t": 51857.09099999988,
      "d": 139.8808124999996,
      "v": 108
    },
    {
      "midi": 47,
      "hit": false,
      "t": 51857.090999999906,
      "d": 139.8808124999996,
      "v": 108
    },
    {
      "midi": 55,
      "hit": false,
      "t": 51857.09099999995,
      "d": 238.09500000000116,
      "v": 127
    },
    {
      "midi": 55,
      "hit": false,
      "t": 51857.09099999995,
      "d": 238.09500000000116,
      "v": 75
    },
    {
      "midi": 35,
      "hit": false,
      "t": 51857.091000000175,
      "d": 142.8570000000036,
      "v": 110
    },
    {
      "midi": 36,
      "hit": false,
      "t": 51999.9479999995,
      "d": 139.8808124999996,
      "v": 92
    },
    {
      "midi": 28,
      "hit": false,
      "t": 51999.9479999995,
      "d": 139.8808124999996,
      "v": 45
    },
    {
      "midi": 47,
      "hit": false,
      "t": 51999.94799999971,
      "d": 139.8808124999996,
      "v": 92
    },
    {
      "midi": 54,
      "hit": false,
      "t": 51999.94799999971,
      "d": 139.8808124999996,
      "v": 92
    },
    {
      "midi": 59,
      "hit": false,
      "t": 51999.94799999971,
      "d": 139.8808124999996,
      "v": 92
    },
    {
      "midi": 47,
      "hit": false,
      "t": 51999.94799999987,
      "d": 139.8808124999996,
      "v": 108
    },
    {
      "midi": 47,
      "hit": false,
      "t": 51999.9479999999,
      "d": 139.8808124999996,
      "v": 108
    },
    {
      "midi": 35,
      "hit": false,
      "t": 51999.94800000018,
      "d": 142.8570000000036,
      "v": 110
    },
    {
      "midi": 36,
      "hit": false,
      "t": 52142.8049999995,
      "d": 139.8808124999996,
      "v": 92
    },
    {
      "midi": 28,
      "hit": false,
      "t": 52142.8049999995,
      "d": 139.8808124999996,
      "v": 45
    },
    {
      "midi": 47,
      "hit": false,
      "t": 52142.80499999971,
      "d": 139.8808124999996,
      "v": 92
    },
    {
      "midi": 54,
      "hit": false,
      "t": 52142.80499999971,
      "d": 139.8808124999996,
      "v": 92
    },
    {
      "midi": 59,
      "hit": false,
      "t": 52142.80499999971,
      "d": 139.8808124999996,
      "v": 92
    },
    {
      "midi": 47,
      "hit": false,
      "t": 52142.80499999987,
      "d": 139.8808124999996,
      "v": 108
    },
    {
      "midi": 47,
      "hit": false,
      "t": 52142.8049999999,
      "d": 139.8808124999996,
      "v": 108
    },
    {
      "midi": 52,
      "hit": false,
      "t": 52142.80499999995,
      "d": 139.8808124999996,
      "v": 127
    },
    {
      "midi": 52,
      "hit": false,
      "t": 52142.80499999995,
      "d": 139.8808124999996,
      "v": 75
    },
    {
      "midi": 35,
      "hit": false,
      "t": 52142.80500000018,
      "d": 142.8570000000036,
      "v": 110
    },
    {
      "midi": 36,
      "hit": false,
      "t": 52285.661999999495,
      "d": 139.8808124999996,
      "v": 92
    },
    {
      "midi": 28,
      "hit": false,
      "t": 52285.661999999495,
      "d": 139.8808124999996,
      "v": 45
    },
    {
      "midi": 47,
      "hit": false,
      "t": 52285.661999999706,
      "d": 285.71399999999994,
      "v": 92
    },
    {
      "midi": 54,
      "hit": false,
      "t": 52285.661999999706,
      "d": 285.71399999999994,
      "v": 92
    },
    {
      "midi": 59,
      "hit": false,
      "t": 52285.661999999706,
      "d": 285.71399999999994,
      "v": 92
    },
    {
      "midi": 53,
      "hit": false,
      "t": 52285.66199999977,
      "d": 380.9519999999975,
      "v": 127
    },
    {
      "midi": 47,
      "hit": false,
      "t": 52285.661999999866,
      "d": 285.71399999999994,
      "v": 108
    },
    {
      "midi": 54,
      "hit": false,
      "t": 52285.661999999866,
      "d": 285.71399999999994,
      "v": 108
    },
    {
      "midi": 59,
      "hit": false,
      "t": 52285.661999999866,
      "d": 285.71399999999994,
      "v": 108
    },
    {
      "midi": 47,
      "hit": false,
      "t": 52285.661999999895,
      "d": 285.71399999999994,
      "v": 108
    },
    {
      "midi": 54,
      "hit": false,
      "t": 52285.661999999895,
      "d": 285.71399999999994,
      "v": 108
    },
    {
      "midi": 59,
      "hit": false,
      "t": 52285.661999999895,
      "d": 285.71399999999994,
      "v": 108
    },
    {
      "midi": 55,
      "hit": false,
      "t": 52285.661999999946,
      "d": 139.8808124999996,
      "v": 127
    },
    {
      "midi": 55,
      "hit": false,
      "t": 52285.661999999946,
      "d": 139.8808124999996,
      "v": 75
    },
    {
      "midi": 78,
      "hit": false,
      "t": 52285.662,
      "d": 2571.4259999999995,
      "v": 75
    },
    {
      "midi": 35,
      "hit": false,
      "t": 52285.662000000186,
      "d": 285.71399999999994,
      "v": 110
    },
    {
      "midi": 36,
      "hit": false,
      "t": 52428.51899999949,
      "d": 139.8808124999996,
      "v": 92
    },
    {
      "midi": 28,
      "hit": false,
      "t": 52428.51899999949,
      "d": 139.8808124999996,
      "v": 45
    },
    {
      "midi": 55,
      "hit": false,
      "t": 52428.51899999994,
      "d": 139.8808124999996,
      "v": 127
    },
    {
      "midi": 55,
      "hit": false,
      "t": 52428.51899999994,
      "d": 139.8808124999996,
      "v": 75
    },
    {
      "midi": 36,
      "hit": false,
      "t": 52571.37599999949,
      "d": 139.8808124999996,
      "v": 92
    },
    {
      "midi": 28,
      "hit": false,
      "t": 52571.37599999949,
      "d": 139.8808124999996,
      "v": 45
    },
    {
      "midi": 47,
      "hit": false,
      "t": 52571.375999999706,
      "d": 139.8808124999996,
      "v": 92
    },
    {
      "midi": 54,
      "hit": false,
      "t": 52571.375999999706,
      "d": 139.8808124999996,
      "v": 92
    },
    {
      "midi": 59,
      "hit": false,
      "t": 52571.375999999706,
      "d": 139.8808124999996,
      "v": 92
    },
    {
      "midi": 47,
      "hit": false,
      "t": 52571.375999999866,
      "d": 139.8808124999996,
      "v": 108
    },
    {
      "midi": 47,
      "hit": false,
      "t": 52571.375999999895,
      "d": 139.8808124999996,
      "v": 108
    },
    {
      "midi": 52,
      "hit": false,
      "t": 52571.37599999994,
      "d": 139.8808124999996,
      "v": 127
    },
    {
      "midi": 52,
      "hit": false,
      "t": 52571.37599999994,
      "d": 139.8808124999996,
      "v": 75
    },
    {
      "midi": 35,
      "hit": false,
      "t": 52571.376000000186,
      "d": 142.8570000000036,
      "v": 110
    },
    {
      "midi": 36,
      "hit": false,
      "t": 52714.23299999948,
      "d": 139.8808124999996,
      "v": 92
    },
    {
      "midi": 28,
      "hit": false,
      "t": 52714.23299999948,
      "d": 139.8808124999996,
      "v": 45
    },
    {
      "midi": 47,
      "hit": false,
      "t": 52714.2329999997,
      "d": 139.8808124999996,
      "v": 92
    },
    {
      "midi": 54,
      "hit": false,
      "t": 52714.2329999997,
      "d": 139.8808124999996,
      "v": 92
    },
    {
      "midi": 59,
      "hit": false,
      "t": 52714.2329999997,
      "d": 139.8808124999996,
      "v": 92
    },
    {
      "midi": 40,
      "hit": false,
      "t": 52714.23299999977,
      "d": 380.9519999999975,
      "v": 127
    },
    {
      "midi": 53,
      "hit": false,
      "t": 52714.23299999977,
      "d": 380.9519999999975,
      "v": 127
    },
    {
      "midi": 47,
      "hit": false,
      "t": 52714.23299999986,
      "d": 139.8808124999996,
      "v": 108
    },
    {
      "midi": 47,
      "hit": false,
      "t": 52714.23299999989,
      "d": 139.8808124999996,
      "v": 108
    },
    {
      "midi": 55,
      "hit": false,
      "t": 52714.232999999935,
      "d": 238.09500000000116,
      "v": 127
    },
    {
      "midi": 55,
      "hit": false,
      "t": 52714.232999999935,
      "d": 238.09500000000116,
      "v": 75
    },
    {
      "midi": 35,
      "hit": false,
      "t": 52714.23300000019,
      "d": 142.8570000000036,
      "v": 110
    },
    {
      "midi": 36,
      "hit": false,
      "t": 52857.08999999948,
      "d": 139.8808124999996,
      "v": 92
    },
    {
      "midi": 28,
      "hit": false,
      "t": 52857.08999999948,
      "d": 139.8808124999996,
      "v": 45
    },
    {
      "midi": 47,
      "hit": false,
      "t": 52857.0899999997,
      "d": 139.8808124999996,
      "v": 92
    },
    {
      "midi": 54,
      "hit": false,
      "t": 52857.0899999997,
      "d": 139.8808124999996,
      "v": 92
    },
    {
      "midi": 59,
      "hit": false,
      "t": 52857.0899999997,
      "d": 139.8808124999996,
      "v": 92
    },
    {
      "midi": 47,
      "hit": false,
      "t": 52857.08999999986,
      "d": 139.8808124999996,
      "v": 108
    },
    {
      "midi": 47,
      "hit": false,
      "t": 52857.08999999989,
      "d": 139.8808124999996,
      "v": 108
    },
    {
      "midi": 35,
      "hit": false,
      "t": 52857.09000000019,
      "d": 142.8570000000036,
      "v": 110
    },
    {
      "midi": 36,
      "hit": false,
      "t": 52999.946999999476,
      "d": 139.8808124999996,
      "v": 92
    },
    {
      "midi": 28,
      "hit": false,
      "t": 52999.946999999476,
      "d": 139.8808124999996,
      "v": 45
    },
    {
      "midi": 47,
      "hit": false,
      "t": 52999.946999999695,
      "d": 139.8808124999996,
      "v": 92
    },
    {
      "midi": 54,
      "hit": false,
      "t": 52999.946999999695,
      "d": 139.8808124999996,
      "v": 92
    },
    {
      "midi": 59,
      "hit": false,
      "t": 52999.946999999695,
      "d": 139.8808124999996,
      "v": 92
    },
    {
      "midi": 47,
      "hit": false,
      "t": 52999.946999999855,
      "d": 139.8808124999996,
      "v": 108
    },
    {
      "midi": 47,
      "hit": false,
      "t": 52999.946999999884,
      "d": 139.8808124999996,
      "v": 108
    },
    {
      "midi": 59,
      "hit": false,
      "t": 52999.946999999935,
      "d": 139.8808124999996,
      "v": 127
    },
    {
      "midi": 59,
      "hit": false,
      "t": 52999.946999999935,
      "d": 139.8808124999996,
      "v": 75
    },
    {
      "midi": 35,
      "hit": false,
      "t": 52999.9470000002,
      "d": 142.8570000000036,
      "v": 110
    },
    {
      "midi": 36,
      "hit": false,
      "t": 53142.80399999947,
      "d": 139.8808124999996,
      "v": 92
    },
    {
      "midi": 28,
      "hit": false,
      "t": 53142.80399999947,
      "d": 139.8808124999996,
      "v": 45
    },
    {
      "midi": 53,
      "hit": false,
      "t": 53142.80399999976,
      "d": 380.9519999999975,
      "v": 127
    },
    {
      "midi": 40,
      "hit": false,
      "t": 53142.80399999985,
      "d": 428.57100000000355,
      "v": 108
    },
    {
      "midi": 52,
      "hit": false,
      "t": 53142.80399999985,
      "d": 428.57100000000355,
      "v": 108
    },
    {
      "midi": 40,
      "hit": false,
      "t": 53142.80399999988,
      "d": 428.57100000000355,
      "v": 127
    },
    {
      "midi": 47,
      "hit": false,
      "t": 53142.80399999988,
      "d": 428.57100000000355,
      "v": 127
    },
    {
      "midi": 52,
      "hit": false,
      "t": 53142.80399999988,
      "d": 428.57100000000355,
      "v": 127
    },
    {
      "midi": 62,
      "hit": false,
      "t": 53142.80399999993,
      "d": 238.09500000000116,
      "v": 127
    },
    {
      "midi": 62,
      "hit": false,
      "t": 53142.80399999993,
      "d": 238.09500000000116,
      "v": 75
    },
    {
      "midi": 28,
      "hit": false,
      "t": 53142.8040000002,
      "d": 428.57100000000355,
      "v": 110
    },
    {
      "midi": 36,
      "hit": false,
      "t": 53285.66099999947,
      "d": 139.8808124999996,
      "v": 92
    },
    {
      "midi": 28,
      "hit": false,
      "t": 53285.66099999947,
      "d": 139.8808124999996,
      "v": 45
    },
    {
      "midi": 36,
      "hit": false,
      "t": 53428.517999999465,
      "d": 139.8808124999996,
      "v": 92
    },
    {
      "midi": 28,
      "hit": false,
      "t": 53428.517999999465,
      "d": 139.8808124999996,
      "v": 45
    },
    {
      "midi": 57,
      "hit": false,
      "t": 53428.51799999993,
      "d": 238.09500000000116,
      "v": 127
    },
    {
      "midi": 57,
      "hit": false,
      "t": 53428.51799999993,
      "d": 238.09500000000116,
      "v": 75
    },
    {
      "midi": 36,
      "hit": false,
      "t": 53571.37499999946,
      "d": 139.8808124999996,
      "v": 92
    },
    {
      "midi": 28,
      "hit": false,
      "t": 53571.37499999946,
      "d": 139.8808124999996,
      "v": 45
    },
    {
      "midi": 40,
      "hit": false,
      "t": 53571.37499999976,
      "d": 380.9519999999975,
      "v": 127
    },
    {
      "midi": 53,
      "hit": false,
      "t": 53571.37499999976,
      "d": 380.9519999999975,
      "v": 127
    },
    {
      "midi": 42,
      "hit": false,
      "t": 53571.374999999854,
      "d": 428.57100000000355,
      "v": 108
    },
    {
      "midi": 54,
      "hit": false,
      "t": 53571.374999999854,
      "d": 428.57100000000355,
      "v": 108
    },
    {
      "midi": 42,
      "hit": false,
      "t": 53571.37499999988,
      "d": 428.57100000000355,
      "v": 127
    },
    {
      "midi": 49,
      "hit": false,
      "t": 53571.37499999988,
      "d": 428.57100000000355,
      "v": 127
    },
    {
      "midi": 54,
      "hit": false,
      "t": 53571.37499999988,
      "d": 428.57100000000355,
      "v": 127
    },
    {
      "midi": 30,
      "hit": false,
      "t": 53571.375000000204,
      "d": 428.57100000000355,
      "v": 110
    },
    {
      "midi": 36,
      "hit": false,
      "t": 53714.23199999946,
      "d": 139.8808124999996,
      "v": 92
    },
    {
      "midi": 28,
      "hit": false,
      "t": 53714.23199999946,
      "d": 139.8808124999996,
      "v": 45
    },
    {
      "midi": 59,
      "hit": false,
      "t": 53714.23199999993,
      "d": 238.09500000000116,
      "v": 127
    },
    {
      "midi": 59,
      "hit": false,
      "t": 53714.23199999993,
      "d": 238.09500000000116,
      "v": 75
    },
    {
      "midi": 36,
      "hit": false,
      "t": 53857.088999999454,
      "d": 139.8808124999996,
      "v": 92
    },
    {
      "midi": 28,
      "hit": false,
      "t": 53857.088999999454,
      "d": 139.8808124999996,
      "v": 45
    },
    {
      "midi": 36,
      "hit": false,
      "t": 53999.94599999945,
      "d": 139.8808124999996,
      "v": 92
    },
    {
      "midi": 28,
      "hit": false,
      "t": 53999.94599999945,
      "d": 139.8808124999996,
      "v": 45
    },
    {
      "midi": 53,
      "hit": false,
      "t": 53999.945999999756,
      "d": 380.9519999999975,
      "v": 127
    },
    {
      "midi": 43,
      "hit": false,
      "t": 53999.94599999986,
      "d": 428.57100000000355,
      "v": 108
    },
    {
      "midi": 55,
      "hit": false,
      "t": 53999.94599999986,
      "d": 428.57100000000355,
      "v": 108
    },
    {
      "midi": 43,
      "hit": false,
      "t": 53999.94599999989,
      "d": 428.57100000000355,
      "v": 127
    },
    {
      "midi": 50,
      "hit": false,
      "t": 53999.94599999989,
      "d": 428.57100000000355,
      "v": 127
    },
    {
      "midi": 55,
      "hit": false,
      "t": 53999.94599999989,
      "d": 428.57100000000355,
      "v": 127
    },
    {
      "midi": 62,
      "hit": false,
      "t": 53999.94599999993,
      "d": 238.09500000000116,
      "v": 127
    },
    {
      "midi": 62,
      "hit": false,
      "t": 53999.94599999993,
      "d": 238.09500000000116,
      "v": 75
    },
    {
      "midi": 31,
      "hit": false,
      "t": 53999.94600000021,
      "d": 428.57100000000355,
      "v": 110
    },
    {
      "midi": 36,
      "hit": false,
      "t": 54142.80299999945,
      "d": 139.8808124999996,
      "v": 92
    },
    {
      "midi": 28,
      "hit": false,
      "t": 54142.80299999945,
      "d": 139.8808124999996,
      "v": 45
    },
    {
      "midi": 36,
      "hit": false,
      "t": 54285.65999999944,
      "d": 139.8808124999996,
      "v": 92
    },
    {
      "midi": 28,
      "hit": false,
      "t": 54285.65999999944,
      "d": 139.8808124999996,
      "v": 45
    },
    {
      "midi": 64,
      "hit": false,
      "t": 54285.65999999993,
      "d": 238.09500000000116,
      "v": 127
    },
    {
      "midi": 64,
      "hit": false,
      "t": 54285.65999999993,
      "d": 238.09500000000116,
      "v": 75
    },
    {
      "midi": 36,
      "hit": false,
      "t": 54428.51699999944,
      "d": 139.8808124999996,
      "v": 92
    },
    {
      "midi": 28,
      "hit": false,
      "t": 54428.51699999944,
      "d": 139.8808124999996,
      "v": 45
    },
    {
      "midi": 40,
      "hit": false,
      "t": 54428.51699999975,
      "d": 380.9519999999975,
      "v": 127
    },
    {
      "midi": 53,
      "hit": false,
      "t": 54428.51699999975,
      "d": 380.9519999999975,
      "v": 127
    },
    {
      "midi": 44,
      "hit": false,
      "t": 54428.51699999986,
      "d": 428.57100000000355,
      "v": 108
    },
    {
      "midi": 56,
      "hit": false,
      "t": 54428.51699999986,
      "d": 428.57100000000355,
      "v": 108
    },
    {
      "midi": 44,
      "hit": false,
      "t": 54428.51699999989,
      "d": 428.57100000000355,
      "v": 127
    },
    {
      "midi": 51,
      "hit": false,
      "t": 54428.51699999989,
      "d": 428.57100000000355,
      "v": 127
    },
    {
      "midi": 56,
      "hit": false,
      "t": 54428.51699999989,
      "d": 428.57100000000355,
      "v": 127
    },
    {
      "midi": 32,
      "hit": false,
      "t": 54428.51700000021,
      "d": 428.57100000000355,
      "v": 110
    },
    {
      "midi": 36,
      "hit": false,
      "t": 54571.373999999436,
      "d": 139.8808124999996,
      "v": 92
    },
    {
      "midi": 28,
      "hit": false,
      "t": 54571.373999999436,
      "d": 139.8808124999996,
      "v": 45
    },
    {
      "midi": 36,
      "hit": false,
      "t": 54714.23099999943,
      "d": 139.8808124999996,
      "v": 92
    },
    {
      "midi": 28,
      "hit": false,
      "t": 54714.23099999943,
      "d": 139.8808124999996,
      "v": 45
    },
    {
      "midi": 64,
      "hit": false,
      "t": 54714.230999999934,
      "d": 139.8808124999996,
      "v": 127
    },
    {
      "midi": 64,
      "hit": false,
      "t": 54714.230999999934,
      "d": 139.8808124999996,
      "v": 75
    },
    {
      "midi": 36,
      "hit": false,
      "t": 54857.08799999943,
      "d": 139.8808124999996,
      "v": 92
    },
    {
      "midi": 28,
      "hit": false,
      "t": 54857.08799999943,
      "d": 139.8808124999996,
      "v": 45
    },
    {
      "midi": 45,
      "hit": false,
      "t": 54857.0879999997,
      "d": 428.57100000000355,
      "v": 92
    },
    {
      "midi": 52,
      "hit": false,
      "t": 54857.0879999997,
      "d": 428.57100000000355,
      "v": 92
    },
    {
      "midi": 57,
      "hit": false,
      "t": 54857.0879999997,
      "d": 428.57100000000355,
      "v": 92
    },
    {
      "midi": 57,
      "hit": false,
      "t": 54857.08799999975,
      "d": 380.9519999999975,
      "v": 127
    },
    {
      "midi": 45,
      "hit": false,
      "t": 54857.087999999865,
      "d": 428.57100000000355,
      "v": 108
    },
    {
      "midi": 52,
      "hit": false,
      "t": 54857.087999999865,
      "d": 428.57100000000355,
      "v": 108
    },
    {
      "midi": 57,
      "hit": false,
      "t": 54857.087999999865,
      "d": 428.57100000000355,
      "v": 108
    },
    {
      "midi": 45,
      "hit": false,
      "t": 54857.087999999894,
      "d": 428.57100000000355,
      "v": 108
    },
    {
      "midi": 52,
      "hit": false,
      "t": 54857.087999999894,
      "d": 428.57100000000355,
      "v": 108
    },
    {
      "midi": 57,
      "hit": false,
      "t": 54857.087999999894,
      "d": 428.57100000000355,
      "v": 108
    },
    {
      "midi": 64,
      "hit": false,
      "t": 54857.08799999993,
      "d": 238.09500000000116,
      "v": 127
    },
    {
      "midi": 64,
      "hit": false,
      "t": 54857.08799999993,
      "d": 238.09500000000116,
      "v": 75
    },
    {
      "midi": 69,
      "hit": false,
      "t": 54857.087999999996,
      "d": 1714.2839999999997,
      "v": 75
    },
    {
      "midi": 72,
      "hit": false,
      "t": 54857.087999999996,
      "d": 1714.2839999999997,
      "v": 75
    },
    {
      "midi": 76,
      "hit": false,
      "t": 54857.087999999996,
      "d": 1714.2839999999997,
      "v": 75
    },
    {
      "midi": 33,
      "hit": false,
      "t": 54857.088000000214,
      "d": 285.71399999999994,
      "v": 110
    },
    {
      "midi": 36,
      "hit": false,
      "t": 54999.944999999425,
      "d": 139.8808124999996,
      "v": 92
    },
    {
      "midi": 28,
      "hit": false,
      "t": 54999.944999999425,
      "d": 139.8808124999996,
      "v": 45
    },
    {
      "midi": 36,
      "hit": false,
      "t": 55142.80199999942,
      "d": 139.8808124999996,
      "v": 92
    },
    {
      "midi": 28,
      "hit": false,
      "t": 55142.80199999942,
      "d": 139.8808124999996,
      "v": 45
    },
    {
      "midi": 64,
      "hit": false,
      "t": 55142.80199999993,
      "d": 139.8808124999996,
      "v": 127
    },
    {
      "midi": 64,
      "hit": false,
      "t": 55142.80199999993,
      "d": 139.8808124999996,
      "v": 75
    },
    {
      "midi": 33,
      "hit": false,
      "t": 55142.802000000214,
      "d": 142.8570000000036,
      "v": 110
    },
    {
      "midi": 36,
      "hit": false,
      "t": 55285.65899999942,
      "d": 139.8808124999996,
      "v": 92
    },
    {
      "midi": 28,
      "hit": false,
      "t": 55285.65899999942,
      "d": 139.8808124999996,
      "v": 45
    },
    {
      "midi": 45,
      "hit": false,
      "t": 55285.6589999997,
      "d": 139.8808124999996,
      "v": 92
    },
    {
      "midi": 52,
      "hit": false,
      "t": 55285.6589999997,
      "d": 139.8808124999996,
      "v": 92
    },
    {
      "midi": 57,
      "hit": false,
      "t": 55285.6589999997,
      "d": 139.8808124999996,
      "v": 92
    },
    {
      "midi": 40,
      "hit": false,
      "t": 55285.658999999745,
      "d": 380.9519999999975,
      "v": 127
    },
    {
      "midi": 53,
      "hit": false,
      "t": 55285.658999999745,
      "d": 380.9519999999975,
      "v": 127
    },
    {
      "midi": 45,
      "hit": false,
      "t": 55285.65899999987,
      "d": 139.8808124999996,
      "v": 108
    },
    {
      "midi": 45,
      "hit": false,
      "t": 55285.6589999999,
      "d": 139.8808124999996,
      "v": 108
    },
    {
      "midi": 62,
      "hit": false,
      "t": 55285.65899999993,
      "d": 238.09500000000116,
      "v": 127
    },
    {
      "midi": 62,
      "hit": false,
      "t": 55285.65899999993,
      "d": 238.09500000000116,
      "v": 75
    },
    {
      "midi": 33,
      "hit": false,
      "t": 55285.65900000022,
      "d": 142.8570000000036,
      "v": 110
    },
    {
      "midi": 36,
      "hit": false,
      "t": 55428.515999999414,
      "d": 139.8808124999996,
      "v": 92
    },
    {
      "midi": 28,
      "hit": false,
      "t": 55428.515999999414,
      "d": 139.8808124999996,
      "v": 45
    },
    {
      "midi": 45,
      "hit": false,
      "t": 55428.5159999997,
      "d": 139.8808124999996,
      "v": 92
    },
    {
      "midi": 52,
      "hit": false,
      "t": 55428.5159999997,
      "d": 139.8808124999996,
      "v": 92
    },
    {
      "midi": 57,
      "hit": false,
      "t": 55428.5159999997,
      "d": 139.8808124999996,
      "v": 92
    },
    {
      "midi": 45,
      "hit": false,
      "t": 55428.515999999865,
      "d": 139.8808124999996,
      "v": 108
    },
    {
      "midi": 45,
      "hit": false,
      "t": 55428.515999999894,
      "d": 139.8808124999996,
      "v": 108
    },
    {
      "midi": 33,
      "hit": false,
      "t": 55428.51600000022,
      "d": 142.8570000000036,
      "v": 110
    },
    {
      "midi": 36,
      "hit": false,
      "t": 55571.37299999941,
      "d": 139.8808124999996,
      "v": 92
    },
    {
      "midi": 28,
      "hit": false,
      "t": 55571.37299999941,
      "d": 139.8808124999996,
      "v": 45
    },
    {
      "midi": 45,
      "hit": false,
      "t": 55571.372999999694,
      "d": 139.8808124999996,
      "v": 92
    },
    {
      "midi": 52,
      "hit": false,
      "t": 55571.372999999694,
      "d": 139.8808124999996,
      "v": 92
    },
    {
      "midi": 57,
      "hit": false,
      "t": 55571.372999999694,
      "d": 139.8808124999996,
      "v": 92
    },
    {
      "midi": 45,
      "hit": false,
      "t": 55571.37299999986,
      "d": 139.8808124999996,
      "v": 108
    },
    {
      "midi": 45,
      "hit": false,
      "t": 55571.37299999989,
      "d": 139.8808124999996,
      "v": 108
    },
    {
      "midi": 64,
      "hit": false,
      "t": 55571.37299999993,
      "d": 139.8808124999996,
      "v": 127
    },
    {
      "midi": 64,
      "hit": false,
      "t": 55571.37299999993,
      "d": 139.8808124999996,
      "v": 75
    },
    {
      "midi": 33,
      "hit": false,
      "t": 55571.373000000225,
      "d": 142.8570000000036,
      "v": 110
    },
    {
      "midi": 36,
      "hit": false,
      "t": 55714.22999999941,
      "d": 139.8808124999996,
      "v": 92
    },
    {
      "midi": 28,
      "hit": false,
      "t": 55714.22999999941,
      "d": 139.8808124999996,
      "v": 45
    },
    {
      "midi": 45,
      "hit": false,
      "t": 55714.22999999969,
      "d": 428.57100000000355,
      "v": 92
    },
    {
      "midi": 52,
      "hit": false,
      "t": 55714.22999999969,
      "d": 428.57100000000355,
      "v": 92
    },
    {
      "midi": 57,
      "hit": false,
      "t": 55714.22999999969,
      "d": 428.57100000000355,
      "v": 92
    },
    {
      "midi": 53,
      "hit": false,
      "t": 55714.22999999974,
      "d": 380.9519999999975,
      "v": 127
    },
    {
      "midi": 45,
      "hit": false,
      "t": 55714.22999999986,
      "d": 428.57100000000355,
      "v": 108
    },
    {
      "midi": 52,
      "hit": false,
      "t": 55714.22999999986,
      "d": 428.57100000000355,
      "v": 108
    },
    {
      "midi": 57,
      "hit": false,
      "t": 55714.22999999986,
      "d": 428.57100000000355,
      "v": 108
    },
    {
      "midi": 45,
      "hit": false,
      "t": 55714.22999999989,
      "d": 428.57100000000355,
      "v": 108
    },
    {
      "midi": 52,
      "hit": false,
      "t": 55714.22999999989,
      "d": 428.57100000000355,
      "v": 108
    },
    {
      "midi": 57,
      "hit": false,
      "t": 55714.22999999989,
      "d": 428.57100000000355,
      "v": 108
    },
    {
      "midi": 67,
      "hit": false,
      "t": 55714.22999999992,
      "d": 238.09500000000116,
      "v": 127
    },
    {
      "midi": 67,
      "hit": false,
      "t": 55714.22999999992,
      "d": 238.09500000000116,
      "v": 75
    },
    {
      "midi": 33,
      "hit": false,
      "t": 55714.23000000023,
      "d": 285.71399999999994,
      "v": 110
    },
    {
      "midi": 36,
      "hit": false,
      "t": 55857.0869999994,
      "d": 139.8808124999996,
      "v": 92
    },
    {
      "midi": 28,
      "hit": false,
      "t": 55857.0869999994,
      "d": 139.8808124999996,
      "v": 45
    },
    {
      "midi": 36,
      "hit": false,
      "t": 55999.9439999994,
      "d": 139.8808124999996,
      "v": 92
    },
    {
      "midi": 28,
      "hit": false,
      "t": 55999.9439999994,
      "d": 139.8808124999996,
      "v": 45
    },
    {
      "midi": 64,
      "hit": false,
      "t": 55999.94399999992,
      "d": 139.8808124999996,
      "v": 127
    },
    {
      "midi": 64,
      "hit": false,
      "t": 55999.94399999992,
      "d": 139.8808124999996,
      "v": 75
    },
    {
      "midi": 33,
      "hit": false,
      "t": 55999.94400000023,
      "d": 142.8570000000036,
      "v": 110
    },
    {
      "midi": 36,
      "hit": false,
      "t": 56142.800999999396,
      "d": 139.8808124999996,
      "v": 92
    },
    {
      "midi": 28,
      "hit": false,
      "t": 56142.800999999396,
      "d": 139.8808124999996,
      "v": 45
    },
    {
      "midi": 45,
      "hit": false,
      "t": 56142.800999999694,
      "d": 139.8808124999996,
      "v": 92
    },
    {
      "midi": 52,
      "hit": false,
      "t": 56142.800999999694,
      "d": 139.8808124999996,
      "v": 92
    },
    {
      "midi": 57,
      "hit": false,
      "t": 56142.800999999694,
      "d": 139.8808124999996,
      "v": 92
    },
    {
      "midi": 40,
      "hit": false,
      "t": 56142.80099999974,
      "d": 380.9519999999975,
      "v": 127
    },
    {
      "midi": 53,
      "hit": false,
      "t": 56142.80099999974,
      "d": 380.9519999999975,
      "v": 127
    },
    {
      "midi": 45,
      "hit": false,
      "t": 56142.80099999986,
      "d": 139.8808124999996,
      "v": 108
    },
    {
      "midi": 45,
      "hit": false,
      "t": 56142.80099999989,
      "d": 139.8808124999996,
      "v": 108
    },
    {
      "midi": 69,
      "hit": false,
      "t": 56142.80099999992,
      "d": 238.09500000000116,
      "v": 127
    },
    {
      "midi": 69,
      "hit": false,
      "t": 56142.80099999992,
      "d": 238.09500000000116,
      "v": 75
    },
    {
      "midi": 33,
      "hit": false,
      "t": 56142.80100000023,
      "d": 142.8570000000036,
      "v": 110
    },
    {
      "midi": 36,
      "hit": false,
      "t": 56285.65799999939,
      "d": 139.8808124999996,
      "v": 92
    },
    {
      "midi": 28,
      "hit": false,
      "t": 56285.65799999939,
      "d": 139.8808124999996,
      "v": 45
    },
    {
      "midi": 45,
      "hit": false,
      "t": 56285.65799999969,
      "d": 139.8808124999996,
      "v": 92
    },
    {
      "midi": 52,
      "hit": false,
      "t": 56285.65799999969,
      "d": 139.8808124999996,
      "v": 92
    },
    {
      "midi": 57,
      "hit": false,
      "t": 56285.65799999969,
      "d": 139.8808124999996,
      "v": 92
    },
    {
      "midi": 45,
      "hit": false,
      "t": 56285.65799999986,
      "d": 139.8808124999996,
      "v": 108
    },
    {
      "midi": 45,
      "hit": false,
      "t": 56285.65799999989,
      "d": 139.8808124999996,
      "v": 108
    },
    {
      "midi": 33,
      "hit": false,
      "t": 56285.658000000236,
      "d": 142.8570000000036,
      "v": 110
    },
    {
      "midi": 36,
      "hit": false,
      "t": 56428.51499999939,
      "d": 139.8808124999996,
      "v": 92
    },
    {
      "midi": 28,
      "hit": false,
      "t": 56428.51499999939,
      "d": 139.8808124999996,
      "v": 45
    },
    {
      "midi": 45,
      "hit": false,
      "t": 56428.51499999969,
      "d": 139.8808124999996,
      "v": 92
    },
    {
      "midi": 52,
      "hit": false,
      "t": 56428.51499999969,
      "d": 139.8808124999996,
      "v": 92
    },
    {
      "midi": 57,
      "hit": false,
      "t": 56428.51499999969,
      "d": 139.8808124999996,
      "v": 92
    },
    {
      "midi": 45,
      "hit": false,
      "t": 56428.514999999854,
      "d": 139.8808124999996,
      "v": 108
    },
    {
      "midi": 45,
      "hit": false,
      "t": 56428.51499999988,
      "d": 139.8808124999996,
      "v": 108
    },
    {
      "midi": 64,
      "hit": false,
      "t": 56428.51499999992,
      "d": 139.8808124999996,
      "v": 127
    },
    {
      "midi": 64,
      "hit": false,
      "t": 56428.51499999992,
      "d": 139.8808124999996,
      "v": 75
    },
    {
      "midi": 33,
      "hit": false,
      "t": 56428.51500000024,
      "d": 142.8570000000036,
      "v": 110
    },
    {
      "midi": 36,
      "hit": false,
      "t": 56571.371999999385,
      "d": 139.8808124999996,
      "v": 92
    },
    {
      "midi": 28,
      "hit": false,
      "t": 56571.371999999385,
      "d": 139.8808124999996,
      "v": 45
    },
    {
      "midi": 47,
      "hit": false,
      "t": 56571.37199999968,
      "d": 428.57100000000355,
      "v": 92
    },
    {
      "midi": 54,
      "hit": false,
      "t": 56571.37199999968,
      "d": 428.57100000000355,
      "v": 92
    },
    {
      "midi": 59,
      "hit": false,
      "t": 56571.37199999968,
      "d": 428.57100000000355,
      "v": 92
    },
    {
      "midi": 53,
      "hit": false,
      "t": 56571.371999999734,
      "d": 380.9519999999975,
      "v": 127
    },
    {
      "midi": 47,
      "hit": false,
      "t": 56571.37199999985,
      "d": 428.57100000000355,
      "v": 108
    },
    {
      "midi": 54,
      "hit": false,
      "t": 56571.37199999985,
      "d": 428.57100000000355,
      "v": 108
    },
    {
      "midi": 59,
      "hit": false,
      "t": 56571.37199999985,
      "d": 428.57100000000355,
      "v": 108
    },
    {
      "midi": 47,
      "hit": false,
      "t": 56571.37199999988,
      "d": 428.57100000000355,
      "v": 108
    },
    {
      "midi": 54,
      "hit": false,
      "t": 56571.37199999988,
      "d": 428.57100000000355,
      "v": 108
    },
    {
      "midi": 59,
      "hit": false,
      "t": 56571.37199999988,
      "d": 428.57100000000355,
      "v": 108
    },
    {
      "midi": 67,
      "hit": false,
      "t": 56571.371999999916,
      "d": 238.09500000000116,
      "v": 127
    },
    {
      "midi": 67,
      "hit": false,
      "t": 56571.371999999916,
      "d": 238.09500000000116,
      "v": 75
    },
    {
      "midi": 71,
      "hit": false,
      "t": 56571.371999999996,
      "d": 1714.2839999999997,
      "v": 75
    },
    {
      "midi": 74,
      "hit": false,
      "t": 56571.371999999996,
      "d": 1714.2839999999997,
      "v": 75
    },
    {
      "midi": 78,
      "hit": false,
      "t": 56571.371999999996,
      "d": 1714.2839999999997,
      "v": 75
    },
    {
      "midi": 35,
      "hit": false,
      "t": 56571.37200000024,
      "d": 285.71399999999994,
      "v": 110
    },
    {
      "midi": 36,
      "hit": false,
      "t": 56714.22899999938,
      "d": 139.8808124999996,
      "v": 92
    },
    {
      "midi": 28,
      "hit": false,
      "t": 56714.22899999938,
      "d": 139.8808124999996,
      "v": 45
    },
    {
      "midi": 36,
      "hit": false,
      "t": 56857.08599999938,
      "d": 139.8808124999996,
      "v": 92
    },
    {
      "midi": 28,
      "hit": false,
      "t": 56857.08599999938,
      "d": 139.8808124999996,
      "v": 45
    },
    {
      "midi": 64,
      "hit": false,
      "t": 56857.085999999916,
      "d": 139.8808124999996,
      "v": 127
    },
    {
      "midi": 64,
      "hit": false,
      "t": 56857.085999999916,
      "d": 139.8808124999996,
      "v": 75
    },
    {
      "midi": 35,
      "hit": false,
      "t": 56857.08600000024,
      "d": 142.8570000000036,
      "v": 110
    },
    {
      "midi": 36,
      "hit": false,
      "t": 56999.94299999937,
      "d": 139.8808124999996,
      "v": 92
    },
    {
      "midi": 28,
      "hit": false,
      "t": 56999.94299999937,
      "d": 139.8808124999996,
      "v": 45
    },
    {
      "midi": 47,
      "hit": false,
      "t": 56999.94299999969,
      "d": 139.8808124999996,
      "v": 92
    },
    {
      "midi": 54,
      "hit": false,
      "t": 56999.94299999969,
      "d": 139.8808124999996,
      "v": 92
    },
    {
      "midi": 59,
      "hit": false,
      "t": 56999.94299999969,
      "d": 139.8808124999996,
      "v": 92
    },
    {
      "midi": 40,
      "hit": false,
      "t": 56999.94299999973,
      "d": 380.9519999999975,
      "v": 127
    },
    {
      "midi": 53,
      "hit": false,
      "t": 56999.94299999973,
      "d": 380.9519999999975,
      "v": 127
    },
    {
      "midi": 47,
      "hit": false,
      "t": 56999.942999999854,
      "d": 139.8808124999996,
      "v": 108
    },
    {
      "midi": 47,
      "hit": false,
      "t": 56999.94299999988,
      "d": 139.8808124999996,
      "v": 108
    },
    {
      "midi": 35,
      "hit": false,
      "t": 56999.94300000025,
      "d": 142.8570000000036,
      "v": 110
    },
    {
      "midi": 36,
      "hit": false,
      "t": 57142.79999999937,
      "d": 139.8808124999996,
      "v": 92
    },
    {
      "midi": 28,
      "hit": false,
      "t": 57142.79999999937,
      "d": 139.8808124999996,
      "v": 45
    },
    {
      "midi": 47,
      "hit": false,
      "t": 57142.79999999968,
      "d": 139.8808124999996,
      "v": 92
    },
    {
      "midi": 54,
      "hit": false,
      "t": 57142.79999999968,
      "d": 139.8808124999996,
      "v": 92
    },
    {
      "midi": 59,
      "hit": false,
      "t": 57142.79999999968,
      "d": 139.8808124999996,
      "v": 92
    },
    {
      "midi": 47,
      "hit": false,
      "t": 57142.79999999985,
      "d": 139.8808124999996,
      "v": 108
    },
    {
      "midi": 47,
      "hit": false,
      "t": 57142.79999999988,
      "d": 139.8808124999996,
      "v": 108
    },
    {
      "midi": 71,
      "hit": false,
      "t": 57142.799999999916,
      "d": 139.8808124999996,
      "v": 127
    },
    {
      "midi": 71,
      "hit": false,
      "t": 57142.799999999916,
      "d": 139.8808124999996,
      "v": 75
    },
    {
      "midi": 35,
      "hit": false,
      "t": 57142.80000000025,
      "d": 142.8570000000036,
      "v": 110
    },
    {
      "midi": 36,
      "hit": false,
      "t": 57285.656999999366,
      "d": 139.8808124999996,
      "v": 92
    },
    {
      "midi": 28,
      "hit": false,
      "t": 57285.656999999366,
      "d": 139.8808124999996,
      "v": 45
    },
    {
      "midi": 47,
      "hit": false,
      "t": 57285.65699999968,
      "d": 139.8808124999996,
      "v": 92
    },
    {
      "midi": 54,
      "hit": false,
      "t": 57285.65699999968,
      "d": 139.8808124999996,
      "v": 92
    },
    {
      "midi": 59,
      "hit": false,
      "t": 57285.65699999968,
      "d": 139.8808124999996,
      "v": 92
    },
    {
      "midi": 47,
      "hit": false,
      "t": 57285.65699999985,
      "d": 139.8808124999996,
      "v": 108
    },
    {
      "midi": 47,
      "hit": false,
      "t": 57285.656999999876,
      "d": 139.8808124999996,
      "v": 108
    },
    {
      "midi": 71,
      "hit": false,
      "t": 57285.65699999991,
      "d": 139.8808124999996,
      "v": 127
    },
    {
      "midi": 71,
      "hit": false,
      "t": 57285.65699999991,
      "d": 139.8808124999996,
      "v": 75
    },
    {
      "midi": 35,
      "hit": false,
      "t": 57285.657000000254,
      "d": 142.8570000000036,
      "v": 110
    },
    {
      "midi": 36,
      "hit": false,
      "t": 57428.51399999936,
      "d": 139.8808124999996,
      "v": 92
    },
    {
      "midi": 28,
      "hit": false,
      "t": 57428.51399999936,
      "d": 139.8808124999996,
      "v": 45
    },
    {
      "midi": 47,
      "hit": false,
      "t": 57428.513999999675,
      "d": 428.57100000000355,
      "v": 92
    },
    {
      "midi": 54,
      "hit": false,
      "t": 57428.513999999675,
      "d": 428.57100000000355,
      "v": 92
    },
    {
      "midi": 59,
      "hit": false,
      "t": 57428.513999999675,
      "d": 428.57100000000355,
      "v": 92
    },
    {
      "midi": 53,
      "hit": false,
      "t": 57428.51399999973,
      "d": 380.9519999999975,
      "v": 127
    },
    {
      "midi": 47,
      "hit": false,
      "t": 57428.51399999984,
      "d": 428.57100000000355,
      "v": 108
    },
    {
      "midi": 54,
      "hit": false,
      "t": 57428.51399999984,
      "d": 428.57100000000355,
      "v": 108
    },
    {
      "midi": 59,
      "hit": false,
      "t": 57428.51399999984,
      "d": 428.57100000000355,
      "v": 108
    },
    {
      "midi": 47,
      "hit": false,
      "t": 57428.51399999987,
      "d": 428.57100000000355,
      "v": 108
    },
    {
      "midi": 54,
      "hit": false,
      "t": 57428.51399999987,
      "d": 428.57100000000355,
      "v": 108
    },
    {
      "midi": 59,
      "hit": false,
      "t": 57428.51399999987,
      "d": 428.57100000000355,
      "v": 108
    },
    {
      "midi": 71,
      "hit": false,
      "t": 57428.51399999991,
      "d": 238.09500000000116,
      "v": 127
    },
    {
      "midi": 71,
      "hit": false,
      "t": 57428.51399999991,
      "d": 238.09500000000116,
      "v": 75
    },
    {
      "midi": 35,
      "hit": false,
      "t": 57428.51400000026,
      "d": 285.71399999999994,
      "v": 110
    },
    {
      "midi": 36,
      "hit": false,
      "t": 57571.37099999936,
      "d": 139.8808124999996,
      "v": 92
    },
    {
      "midi": 28,
      "hit": false,
      "t": 57571.37099999936,
      "d": 139.8808124999996,
      "v": 45
    },
    {
      "midi": 36,
      "hit": false,
      "t": 57714.227999999355,
      "d": 139.8808124999996,
      "v": 92
    },
    {
      "midi": 28,
      "hit": false,
      "t": 57714.227999999355,
      "d": 139.8808124999996,
      "v": 45
    },
    {
      "midi": 69,
      "hit": false,
      "t": 57714.22799999991,
      "d": 238.09500000000116,
      "v": 127
    },
    {
      "midi": 69,
      "hit": false,
      "t": 57714.22799999991,
      "d": 238.09500000000116,
      "v": 75
    },
    {
      "midi": 35,
      "hit": false,
      "t": 57714.22800000026,
      "d": 142.8570000000036,
      "v": 110
    },
    {
      "midi": 36,
      "hit": false,
      "t": 57857.08499999935,
      "d": 139.8808124999996,
      "v": 92
    },
    {
      "midi": 28,
      "hit": false,
      "t": 57857.08499999935,
      "d": 139.8808124999996,
      "v": 45
    },
    {
      "midi": 47,
      "hit": false,
      "t": 57857.08499999968,
      "d": 139.8808124999996,
      "v": 92
    },
    {
      "midi": 54,
      "hit": false,
      "t": 57857.08499999968,
      "d": 139.8808124999996,
      "v": 92
    },
    {
      "midi": 59,
      "hit": false,
      "t": 57857.08499999968,
      "d": 139.8808124999996,
      "v": 92
    },
    {
      "midi": 40,
      "hit": false,
      "t": 57857.08499999972,
      "d": 380.9519999999975,
      "v": 127
    },
    {
      "midi": 53,
      "hit": false,
      "t": 57857.08499999972,
      "d": 380.9519999999975,
      "v": 127
    },
    {
      "midi": 47,
      "hit": false,
      "t": 57857.084999999846,
      "d": 139.8808124999996,
      "v": 108
    },
    {
      "midi": 47,
      "hit": false,
      "t": 57857.084999999875,
      "d": 139.8808124999996,
      "v": 108
    },
    {
      "midi": 35,
      "hit": false,
      "t": 57857.08500000026,
      "d": 142.8570000000036,
      "v": 110
    },
    {
      "midi": 36,
      "hit": false,
      "t": 57999.94199999935,
      "d": 139.8808124999996,
      "v": 92
    },
    {
      "midi": 28,
      "hit": false,
      "t": 57999.94199999935,
      "d": 139.8808124999996,
      "v": 45
    },
    {
      "midi": 47,
      "hit": false,
      "t": 57999.941999999675,
      "d": 139.8808124999996,
      "v": 92
    },
    {
      "midi": 54,
      "hit": false,
      "t": 57999.941999999675,
      "d": 139.8808124999996,
      "v": 92
    },
    {
      "midi": 59,
      "hit": false,
      "t": 57999.941999999675,
      "d": 139.8808124999996,
      "v": 92
    },
    {
      "midi": 47,
      "hit": false,
      "t": 57999.94199999984,
      "d": 139.8808124999996,
      "v": 108
    },
    {
      "midi": 47,
      "hit": false,
      "t": 57999.94199999987,
      "d": 139.8808124999996,
      "v": 108
    },
    {
      "midi": 69,
      "hit": false,
      "t": 57999.94199999991,
      "d": 238.09500000000116,
      "v": 127
    },
    {
      "midi": 69,
      "hit": false,
      "t": 57999.94199999991,
      "d": 238.09500000000116,
      "v": 75
    },
    {
      "midi": 35,
      "hit": false,
      "t": 57999.942000000265,
      "d": 142.8570000000036,
      "v": 110
    },
    {
      "midi": 36,
      "hit": false,
      "t": 58142.798999999344,
      "d": 139.8808124999996,
      "v": 92
    },
    {
      "midi": 28,
      "hit": false,
      "t": 58142.798999999344,
      "d": 139.8808124999996,
      "v": 45
    },
    {
      "midi": 47,
      "hit": false,
      "t": 58142.79899999967,
      "d": 139.8808124999996,
      "v": 92
    },
    {
      "midi": 54,
      "hit": false,
      "t": 58142.79899999967,
      "d": 139.8808124999996,
      "v": 92
    },
    {
      "midi": 59,
      "hit": false,
      "t": 58142.79899999967,
      "d": 139.8808124999996,
      "v": 92
    },
    {
      "midi": 47,
      "hit": false,
      "t": 58142.79899999984,
      "d": 139.8808124999996,
      "v": 108
    },
    {
      "midi": 47,
      "hit": false,
      "t": 58142.79899999987,
      "d": 139.8808124999996,
      "v": 108
    },
    {
      "midi": 35,
      "hit": false,
      "t": 58142.79900000027,
      "d": 142.8570000000036,
      "v": 110
    },
    {
      "midi": 36,
      "hit": false,
      "t": 58285.65599999934,
      "d": 139.8808124999996,
      "v": 92
    },
    {
      "midi": 28,
      "hit": false,
      "t": 58285.65599999934,
      "d": 139.8808124999996,
      "v": 45
    },
    {
      "midi": 48,
      "hit": false,
      "t": 58285.65599999967,
      "d": 428.57100000000355,
      "v": 92
    },
    {
      "midi": 55,
      "hit": false,
      "t": 58285.65599999967,
      "d": 428.57100000000355,
      "v": 92
    },
    {
      "midi": 60,
      "hit": false,
      "t": 58285.65599999967,
      "d": 428.57100000000355,
      "v": 92
    },
    {
      "midi": 53,
      "hit": false,
      "t": 58285.65599999972,
      "d": 380.9519999999975,
      "v": 127
    },
    {
      "midi": 48,
      "hit": false,
      "t": 58285.655999999835,
      "d": 428.57100000000355,
      "v": 108
    },
    {
      "midi": 55,
      "hit": false,
      "t": 58285.655999999835,
      "d": 428.57100000000355,
      "v": 108
    },
    {
      "midi": 60,
      "hit": false,
      "t": 58285.655999999835,
      "d": 428.57100000000355,
      "v": 108
    },
    {
      "midi": 48,
      "hit": false,
      "t": 58285.655999999864,
      "d": 428.57100000000355,
      "v": 108
    },
    {
      "midi": 55,
      "hit": false,
      "t": 58285.655999999864,
      "d": 428.57100000000355,
      "v": 108
    },
    {
      "midi": 60,
      "hit": false,
      "t": 58285.655999999864,
      "d": 428.57100000000355,
      "v": 108
    },
    {
      "midi": 74,
      "hit": false,
      "t": 58285.65599999991,
      "d": 139.8808124999996,
      "v": 127
    },
    {
      "midi": 74,
      "hit": false,
      "t": 58285.65599999991,
      "d": 139.8808124999996,
      "v": 75
    },
    {
      "midi": 72,
      "hit": false,
      "t": 58285.655999999995,
      "d": 1714.2839999999997,
      "v": 75
    },
    {
      "midi": 76,
      "hit": false,
      "t": 58285.655999999995,
      "d": 1714.2839999999997,
      "v": 75
    },
    {
      "midi": 79,
      "hit": false,
      "t": 58285.655999999995,
      "d": 1714.2839999999997,
      "v": 75
    },
    {
      "midi": 36,
      "hit": false,
      "t": 58285.65600000027,
      "d": 139.8808124999996,
      "v": 110
    },
    {
      "midi": 36,
      "hit": false,
      "t": 58428.51299999934,
      "d": 139.8808124999996,
      "v": 92
    },
    {
      "midi": 28,
      "hit": false,
      "t": 58428.51299999934,
      "d": 139.8808124999996,
      "v": 45
    },
    {
      "midi": 74,
      "hit": false,
      "t": 58428.512999999904,
      "d": 139.8808124999996,
      "v": 127
    },
    {
      "midi": 74,
      "hit": false,
      "t": 58428.512999999904,
      "d": 139.8808124999996,
      "v": 75
    },
    {
      "midi": 36,
      "hit": false,
      "t": 58428.51300000027,
      "d": 139.8808124999996,
      "v": 110
    },
    {
      "midi": 36,
      "hit": false,
      "t": 58571.36999999933,
      "d": 139.8808124999996,
      "v": 92
    },
    {
      "midi": 28,
      "hit": false,
      "t": 58571.36999999933,
      "d": 139.8808124999996,
      "v": 45
    },
    {
      "midi": 74,
      "hit": false,
      "t": 58571.3699999999,
      "d": 139.8808124999996,
      "v": 127
    },
    {
      "midi": 74,
      "hit": false,
      "t": 58571.3699999999,
      "d": 139.8808124999996,
      "v": 75
    },
    {
      "midi": 36,
      "hit": false,
      "t": 58571.370000000265,
      "d": 139.8808124999996,
      "v": 110
    },
    {
      "midi": 36,
      "hit": false,
      "t": 58714.22699999933,
      "d": 139.8808124999996,
      "v": 92
    },
    {
      "midi": 28,
      "hit": false,
      "t": 58714.22699999933,
      "d": 139.8808124999996,
      "v": 45
    },
    {
      "midi": 48,
      "hit": false,
      "t": 58714.22699999967,
      "d": 139.8808124999996,
      "v": 92
    },
    {
      "midi": 55,
      "hit": false,
      "t": 58714.22699999967,
      "d": 139.8808124999996,
      "v": 92
    },
    {
      "midi": 60,
      "hit": false,
      "t": 58714.22699999967,
      "d": 139.8808124999996,
      "v": 92
    },
    {
      "midi": 40,
      "hit": false,
      "t": 58714.226999999715,
      "d": 380.9519999999975,
      "v": 127
    },
    {
      "midi": 53,
      "hit": false,
      "t": 58714.226999999715,
      "d": 380.9519999999975,
      "v": 127
    },
    {
      "midi": 48,
      "hit": false,
      "t": 58714.22699999984,
      "d": 139.8808124999996,
      "v": 108
    },
    {
      "midi": 48,
      "hit": false,
      "t": 58714.22699999987,
      "d": 139.8808124999996,
      "v": 108
    },
    {
      "midi": 74,
      "hit": false,
      "t": 58714.2269999999,
      "d": 139.8808124999996,
      "v": 127
    },
    {
      "midi": 74,
      "hit": false,
      "t": 58714.2269999999,
      "d": 139.8808124999996,
      "v": 75
    },
    {
      "midi": 36,
      "hit": false,
      "t": 58714.22700000026,
      "d": 139.8808124999996,
      "v": 110
    },
    {
      "midi": 36,
      "hit": false,
      "t": 58857.083999999326,
      "d": 139.8808124999996,
      "v": 92
    },
    {
      "midi": 28,
      "hit": false,
      "t": 58857.083999999326,
      "d": 139.8808124999996,
      "v": 45
    },
    {
      "midi": 48,
      "hit": false,
      "t": 58857.08399999967,
      "d": 139.8808124999996,
      "v": 92
    },
    {
      "midi": 55,
      "hit": false,
      "t": 58857.08399999967,
      "d": 139.8808124999996,
      "v": 92
    },
    {
      "midi": 60,
      "hit": false,
      "t": 58857.08399999967,
      "d": 139.8808124999996,
      "v": 92
    },
    {
      "midi": 48,
      "hit": false,
      "t": 58857.083999999835,
      "d": 139.8808124999996,
      "v": 108
    },
    {
      "midi": 48,
      "hit": false,
      "t": 58857.083999999864,
      "d": 139.8808124999996,
      "v": 108
    },
    {
      "midi": 71,
      "hit": false,
      "t": 58857.08399999989,
      "d": 139.8808124999996,
      "v": 127
    },
    {
      "midi": 71,
      "hit": false,
      "t": 58857.08399999989,
      "d": 139.8808124999996,
      "v": 75
    },
    {
      "midi": 36,
      "hit": false,
      "t": 58857.08400000026,
      "d": 139.8808124999996,
      "v": 110
    },
    {
      "midi": 36,
      "hit": false,
      "t": 58999.94099999932,
      "d": 139.8808124999996,
      "v": 92
    },
    {
      "midi": 28,
      "hit": false,
      "t": 58999.94099999932,
      "d": 139.8808124999996,
      "v": 45
    },
    {
      "midi": 48,
      "hit": false,
      "t": 58999.940999999664,
      "d": 139.8808124999996,
      "v": 92
    },
    {
      "midi": 55,
      "hit": false,
      "t": 58999.940999999664,
      "d": 139.8808124999996,
      "v": 92
    },
    {
      "midi": 60,
      "hit": false,
      "t": 58999.940999999664,
      "d": 139.8808124999996,
      "v": 92
    },
    {
      "midi": 48,
      "hit": false,
      "t": 58999.94099999983,
      "d": 139.8808124999996,
      "v": 108
    },
    {
      "midi": 48,
      "hit": false,
      "t": 58999.94099999986,
      "d": 139.8808124999996,
      "v": 108
    },
    {
      "midi": 74,
      "hit": false,
      "t": 58999.94099999989,
      "d": 139.8808124999996,
      "v": 127
    },
    {
      "midi": 74,
      "hit": false,
      "t": 58999.94099999989,
      "d": 139.8808124999996,
      "v": 75
    },
    {
      "midi": 36,
      "hit": false,
      "t": 58999.94100000025,
      "d": 139.8808124999996,
      "v": 110
    },
    {
      "midi": 36,
      "hit": false,
      "t": 59142.79799999932,
      "d": 139.8808124999996,
      "v": 92
    },
    {
      "midi": 28,
      "hit": false,
      "t": 59142.79799999932,
      "d": 139.8808124999996,
      "v": 45
    },
    {
      "midi": 48,
      "hit": false,
      "t": 59142.79799999966,
      "d": 428.57100000000355,
      "v": 92
    },
    {
      "midi": 55,
      "hit": false,
      "t": 59142.79799999966,
      "d": 428.57100000000355,
      "v": 92
    },
    {
      "midi": 60,
      "hit": false,
      "t": 59142.79799999966,
      "d": 428.57100000000355,
      "v": 92
    },
    {
      "midi": 53,
      "hit": false,
      "t": 59142.79799999971,
      "d": 238.09500000000116,
      "v": 127
    },
    {
      "midi": 48,
      "hit": false,
      "t": 59142.79799999983,
      "d": 428.57100000000355,
      "v": 108
    },
    {
      "midi": 55,
      "hit": false,
      "t": 59142.79799999983,
      "d": 428.57100000000355,
      "v": 108
    },
    {
      "midi": 60,
      "hit": false,
      "t": 59142.79799999983,
      "d": 428.57100000000355,
      "v": 108
    },
    {
      "midi": 48,
      "hit": false,
      "t": 59142.79799999986,
      "d": 428.57100000000355,
      "v": 108
    },
    {
      "midi": 55,
      "hit": false,
      "t": 59142.79799999986,
      "d": 428.57100000000355,
      "v": 108
    },
    {
      "midi": 60,
      "hit": false,
      "t": 59142.79799999986,
      "d": 428.57100000000355,
      "v": 108
    },
    {
      "midi": 71,
      "hit": false,
      "t": 59142.797999999886,
      "d": 139.8808124999996,
      "v": 127
    },
    {
      "midi": 71,
      "hit": false,
      "t": 59142.797999999886,
      "d": 139.8808124999996,
      "v": 75
    },
    {
      "midi": 36,
      "hit": false,
      "t": 59142.79800000025,
      "d": 139.8808124999996,
      "v": 110
    },
    {
      "midi": 36,
      "hit": false,
      "t": 59285.654999999315,
      "d": 139.8808124999996,
      "v": 92
    },
    {
      "midi": 28,
      "hit": false,
      "t": 59285.654999999315,
      "d": 139.8808124999996,
      "v": 45
    },
    {
      "midi": 74,
      "hit": false,
      "t": 59285.65499999988,
      "d": 139.8808124999996,
      "v": 127
    },
    {
      "midi": 74,
      "hit": false,
      "t": 59285.65499999988,
      "d": 139.8808124999996,
      "v": 75
    },
    {
      "midi": 36,
      "hit": false,
      "t": 59285.655000000246,
      "d": 139.8808124999996,
      "v": 110
    },
    {
      "midi": 36,
      "hit": false,
      "t": 59428.51199999931,
      "d": 139.8808124999996,
      "v": 92
    },
    {
      "midi": 28,
      "hit": false,
      "t": 59428.51199999931,
      "d": 139.8808124999996,
      "v": 45
    },
    {
      "midi": 40,
      "hit": false,
      "t": 59428.51199999971,
      "d": 139.8808124999996,
      "v": 127
    },
    {
      "midi": 71,
      "hit": false,
      "t": 59428.51199999988,
      "d": 139.8808124999996,
      "v": 127
    },
    {
      "midi": 71,
      "hit": false,
      "t": 59428.51199999988,
      "d": 139.8808124999996,
      "v": 75
    },
    {
      "midi": 36,
      "hit": false,
      "t": 59428.51200000024,
      "d": 139.8808124999996,
      "v": 110
    },
    {
      "midi": 36,
      "hit": false,
      "t": 59571.36899999931,
      "d": 139.8808124999996,
      "v": 92
    },
    {
      "midi": 28,
      "hit": false,
      "t": 59571.36899999931,
      "d": 139.8808124999996,
      "v": 45
    },
    {
      "midi": 48,
      "hit": false,
      "t": 59571.368999999664,
      "d": 428.57100000000355,
      "v": 92
    },
    {
      "midi": 55,
      "hit": false,
      "t": 59571.368999999664,
      "d": 428.57100000000355,
      "v": 92
    },
    {
      "midi": 60,
      "hit": false,
      "t": 59571.368999999664,
      "d": 428.57100000000355,
      "v": 92
    },
    {
      "midi": 40,
      "hit": false,
      "t": 59571.36899999971,
      "d": 139.8808124999996,
      "v": 127
    },
    {
      "midi": 53,
      "hit": false,
      "t": 59571.36899999971,
      "d": 139.8808124999996,
      "v": 127
    },
    {
      "midi": 48,
      "hit": false,
      "t": 59571.36899999983,
      "d": 428.57100000000355,
      "v": 108
    },
    {
      "midi": 55,
      "hit": false,
      "t": 59571.36899999983,
      "d": 428.57100000000355,
      "v": 108
    },
    {
      "midi": 60,
      "hit": false,
      "t": 59571.36899999983,
      "d": 428.57100000000355,
      "v": 108
    },
    {
      "midi": 48,
      "hit": false,
      "t": 59571.36899999986,
      "d": 428.57100000000355,
      "v": 108
    },
    {
      "midi": 55,
      "hit": false,
      "t": 59571.36899999986,
      "d": 428.57100000000355,
      "v": 108
    },
    {
      "midi": 60,
      "hit": false,
      "t": 59571.36899999986,
      "d": 428.57100000000355,
      "v": 108
    },
    {
      "midi": 74,
      "hit": false,
      "t": 59571.368999999875,
      "d": 139.8808124999996,
      "v": 127
    },
    {
      "midi": 74,
      "hit": false,
      "t": 59571.368999999875,
      "d": 139.8808124999996,
      "v": 75
    },
    {
      "midi": 36,
      "hit": false,
      "t": 59571.36900000024,
      "d": 139.8808124999996,
      "v": 110
    },
    {
      "midi": 36,
      "hit": false,
      "t": 59714.225999999304,
      "d": 139.8808124999996,
      "v": 92
    },
    {
      "midi": 28,
      "hit": false,
      "t": 59714.225999999304,
      "d": 139.8808124999996,
      "v": 45
    },
    {
      "midi": 40,
      "hit": false,
      "t": 59714.225999999704,
      "d": 139.8808124999996,
      "v": 127
    },
    {
      "midi": 71,
      "hit": false,
      "t": 59714.22599999987,
      "d": 139.8808124999996,
      "v": 127
    },
    {
      "midi": 71,
      "hit": false,
      "t": 59714.22599999987,
      "d": 139.8808124999996,
      "v": 75
    },
    {
      "midi": 36,
      "hit": false,
      "t": 59714.226000000235,
      "d": 139.8808124999996,
      "v": 110
    },
    {
      "midi": 36,
      "hit": false,
      "t": 59857.0829999993,
      "d": 139.8808124999996,
      "v": 92
    },
    {
      "midi": 28,
      "hit": false,
      "t": 59857.0829999993,
      "d": 139.8808124999996,
      "v": 45
    },
    {
      "midi": 40,
      "hit": false,
      "t": 59857.0829999997,
      "d": 139.8808124999996,
      "v": 127
    },
    {
      "midi": 74,
      "hit": false,
      "t": 59857.08299999987,
      "d": 139.8808124999996,
      "v": 127
    },
    {
      "midi": 74,
      "hit": false,
      "t": 59857.08299999987,
      "d": 139.8808124999996,
      "v": 75
    },
    {
      "midi": 36,
      "hit": false,
      "t": 59857.08300000023,
      "d": 139.8808124999996,
      "v": 110
    },
    {
      "midi": 36,
      "hit": false,
      "t": 59999.9399999993,
      "d": 238.09500000000116,
      "v": 92
    },
    {
      "midi": 28,
      "hit": false,
      "t": 59999.9399999993,
      "d": 238.09500000000116,
      "v": 45
    },
    {
      "midi": 50,
      "hit": false,
      "t": 59999.93999999967,
      "d": 285.71399999999994,
      "v": 92
    },
    {
      "midi": 57,
      "hit": false,
      "t": 59999.93999999967,
      "d": 285.71399999999994,
      "v": 92
    },
    {
      "midi": 62,
      "hit": false,
      "t": 59999.93999999967,
      "d": 285.71399999999994,
      "v": 92
    },
    {
      "midi": 41,
      "hit": false,
      "t": 59999.9399999997,
      "d": 238.09500000000116,
      "v": 127
    },
    {
      "midi": 50,
      "hit": false,
      "t": 59999.939999999835,
      "d": 285.71399999999994,
      "v": 108
    },
    {
      "midi": 57,
      "hit": false,
      "t": 59999.939999999835,
      "d": 285.71399999999994,
      "v": 108
    },
    {
      "midi": 62,
      "hit": false,
      "t": 59999.939999999835,
      "d": 285.71399999999994,
      "v": 108
    },
    {
      "midi": 38,
      "hit": false,
      "t": 59999.939999999864,
      "d": 285.71399999999994,
      "v": 108
    },
    {
      "midi": 45,
      "hit": false,
      "t": 59999.939999999864,
      "d": 285.71399999999994,
      "v": 108
    },
    {
      "midi": 50,
      "hit": false,
      "t": 59999.939999999864,
      "d": 285.71399999999994,
      "v": 108
    },
    {
      "midi": 74,
      "hit": false,
      "t": 59999.939999999864,
      "d": 238.09500000000116,
      "v": 127
    },
    {
      "midi": 74,
      "hit": false,
      "t": 59999.939999999864,
      "d": 238.09500000000116,
      "v": 75
    },
    {
      "midi": 74,
      "hit": false,
      "t": 59999.939999999995,
      "d": 238.09500000000116,
      "v": 108
    },
    {
      "midi": 78,
      "hit": false,
      "t": 59999.939999999995,
      "d": 238.09500000000116,
      "v": 108
    },
    {
      "midi": 81,
      "hit": false,
      "t": 59999.939999999995,
      "d": 238.09500000000116,
      "v": 108
    },
    {
      "midi": 86,
      "hit": false,
      "t": 59999.939999999995,
      "d": 238.09500000000116,
      "v": 108
    },
    {
      "midi": 74,
      "hit": false,
      "t": 59999.94,
      "d": 238.09500000000116,
      "v": 110
    },
    {
      "midi": 78,
      "hit": false,
      "t": 59999.94,
      "d": 238.09500000000116,
      "v": 110
    },
    {
      "midi": 81,
      "hit": false,
      "t": 59999.94,
      "d": 238.09500000000116,
      "v": 110
    },
    {
      "midi": 86,
      "hit": false,
      "t": 59999.94,
      "d": 238.09500000000116,
      "v": 110
    },
    {
      "midi": 38,
      "hit": false,
      "t": 59999.94000000023,
      "d": 238.09500000000116,
      "v": 110
    },
    {
      "midi": 36,
      "hit": false,
      "t": 60285.6539999993,
      "d": 238.09500000000116,
      "v": 92
    },
    {
      "midi": 28,
      "hit": false,
      "t": 60285.6539999993,
      "d": 238.09500000000116,
      "v": 45
    },
    {
      "midi": 50,
      "hit": false,
      "t": 60285.65399999967,
      "d": 285.71399999999994,
      "v": 92
    },
    {
      "midi": 57,
      "hit": false,
      "t": 60285.65399999967,
      "d": 285.71399999999994,
      "v": 92
    },
    {
      "midi": 62,
      "hit": false,
      "t": 60285.65399999967,
      "d": 285.71399999999994,
      "v": 92
    },
    {
      "midi": 41,
      "hit": false,
      "t": 60285.6539999997,
      "d": 238.09500000000116,
      "v": 127
    },
    {
      "midi": 50,
      "hit": false,
      "t": 60285.653999999835,
      "d": 285.71399999999994,
      "v": 108
    },
    {
      "midi": 57,
      "hit": false,
      "t": 60285.653999999835,
      "d": 285.71399999999994,
      "v": 108
    },
    {
      "midi": 62,
      "hit": false,
      "t": 60285.653999999835,
      "d": 285.71399999999994,
      "v": 108
    },
    {
      "midi": 38,
      "hit": false,
      "t": 60285.653999999864,
      "d": 285.71399999999994,
      "v": 108
    },
    {
      "midi": 45,
      "hit": false,
      "t": 60285.653999999864,
      "d": 285.71399999999994,
      "v": 108
    },
    {
      "midi": 50,
      "hit": false,
      "t": 60285.653999999864,
      "d": 285.71399999999994,
      "v": 108
    },
    {
      "midi": 74,
      "hit": false,
      "t": 60285.653999999864,
      "d": 238.09500000000116,
      "v": 127
    },
    {
      "midi": 74,
      "hit": false,
      "t": 60285.653999999864,
      "d": 238.09500000000116,
      "v": 75
    },
    {
      "midi": 74,
      "hit": false,
      "t": 60285.653999999995,
      "d": 238.09500000000116,
      "v": 108
    },
    {
      "midi": 78,
      "hit": false,
      "t": 60285.653999999995,
      "d": 238.09500000000116,
      "v": 108
    },
    {
      "midi": 81,
      "hit": false,
      "t": 60285.653999999995,
      "d": 238.09500000000116,
      "v": 108
    },
    {
      "midi": 86,
      "hit": false,
      "t": 60285.653999999995,
      "d": 238.09500000000116,
      "v": 108
    },
    {
      "midi": 74,
      "hit": false,
      "t": 60285.654,
      "d": 238.09500000000116,
      "v": 110
    },
    {
      "midi": 78,
      "hit": false,
      "t": 60285.654,
      "d": 238.09500000000116,
      "v": 110
    },
    {
      "midi": 81,
      "hit": false,
      "t": 60285.654,
      "d": 238.09500000000116,
      "v": 110
    },
    {
      "midi": 86,
      "hit": false,
      "t": 60285.654,
      "d": 238.09500000000116,
      "v": 110
    },
    {
      "midi": 38,
      "hit": false,
      "t": 60285.65400000023,
      "d": 238.09500000000116,
      "v": 110
    },
    {
      "midi": 36,
      "hit": false,
      "t": 60571.3679999993,
      "d": 238.09500000000116,
      "v": 92
    },
    {
      "midi": 28,
      "hit": false,
      "t": 60571.3679999993,
      "d": 238.09500000000116,
      "v": 45
    },
    {
      "midi": 50,
      "hit": false,
      "t": 60571.36799999967,
      "d": 285.71399999999994,
      "v": 92
    },
    {
      "midi": 57,
      "hit": false,
      "t": 60571.36799999967,
      "d": 285.71399999999994,
      "v": 92
    },
    {
      "midi": 62,
      "hit": false,
      "t": 60571.36799999967,
      "d": 285.71399999999994,
      "v": 92
    },
    {
      "midi": 41,
      "hit": false,
      "t": 60571.3679999997,
      "d": 238.09500000000116,
      "v": 127
    },
    {
      "midi": 50,
      "hit": false,
      "t": 60571.367999999835,
      "d": 285.71399999999994,
      "v": 108
    },
    {
      "midi": 57,
      "hit": false,
      "t": 60571.367999999835,
      "d": 285.71399999999994,
      "v": 108
    },
    {
      "midi": 62,
      "hit": false,
      "t": 60571.367999999835,
      "d": 285.71399999999994,
      "v": 108
    },
    {
      "midi": 38,
      "hit": false,
      "t": 60571.367999999864,
      "d": 285.71399999999994,
      "v": 108
    },
    {
      "midi": 45,
      "hit": false,
      "t": 60571.367999999864,
      "d": 285.71399999999994,
      "v": 108
    },
    {
      "midi": 50,
      "hit": false,
      "t": 60571.367999999864,
      "d": 285.71399999999994,
      "v": 108
    },
    {
      "midi": 74,
      "hit": false,
      "t": 60571.367999999864,
      "d": 238.09500000000116,
      "v": 127
    },
    {
      "midi": 74,
      "hit": false,
      "t": 60571.367999999864,
      "d": 238.09500000000116,
      "v": 75
    },
    {
      "midi": 74,
      "hit": false,
      "t": 60571.367999999995,
      "d": 238.09500000000116,
      "v": 108
    },
    {
      "midi": 78,
      "hit": false,
      "t": 60571.367999999995,
      "d": 238.09500000000116,
      "v": 108
    },
    {
      "midi": 81,
      "hit": false,
      "t": 60571.367999999995,
      "d": 238.09500000000116,
      "v": 108
    },
    {
      "midi": 86,
      "hit": false,
      "t": 60571.367999999995,
      "d": 238.09500000000116,
      "v": 108
    },
    {
      "midi": 74,
      "hit": false,
      "t": 60571.368,
      "d": 238.09500000000116,
      "v": 110
    },
    {
      "midi": 78,
      "hit": false,
      "t": 60571.368,
      "d": 238.09500000000116,
      "v": 110
    },
    {
      "midi": 81,
      "hit": false,
      "t": 60571.368,
      "d": 238.09500000000116,
      "v": 110
    },
    {
      "midi": 86,
      "hit": false,
      "t": 60571.368,
      "d": 238.09500000000116,
      "v": 110
    },
    {
      "midi": 38,
      "hit": false,
      "t": 60571.36800000023,
      "d": 238.09500000000116,
      "v": 110
    },
    {
      "midi": 36,
      "hit": false,
      "t": 60857.0819999993,
      "d": 380.9519999999975,
      "v": 92
    },
    {
      "midi": 28,
      "hit": false,
      "t": 60857.0819999993,
      "d": 380.9519999999975,
      "v": 45
    },
    {
      "midi": 50,
      "hit": false,
      "t": 60857.08199999967,
      "d": 428.57100000000355,
      "v": 92
    },
    {
      "midi": 57,
      "hit": false,
      "t": 60857.08199999967,
      "d": 428.57100000000355,
      "v": 92
    },
    {
      "midi": 62,
      "hit": false,
      "t": 60857.08199999967,
      "d": 428.57100000000355,
      "v": 92
    },
    {
      "midi": 41,
      "hit": false,
      "t": 60857.0819999997,
      "d": 380.9519999999975,
      "v": 127
    },
    {
      "midi": 50,
      "hit": false,
      "t": 60857.081999999835,
      "d": 428.57100000000355,
      "v": 108
    },
    {
      "midi": 57,
      "hit": false,
      "t": 60857.081999999835,
      "d": 428.57100000000355,
      "v": 108
    },
    {
      "midi": 62,
      "hit": false,
      "t": 60857.081999999835,
      "d": 428.57100000000355,
      "v": 108
    },
    {
      "midi": 38,
      "hit": false,
      "t": 60857.081999999864,
      "d": 428.57100000000355,
      "v": 108
    },
    {
      "midi": 45,
      "hit": false,
      "t": 60857.081999999864,
      "d": 428.57100000000355,
      "v": 108
    },
    {
      "midi": 50,
      "hit": false,
      "t": 60857.081999999864,
      "d": 428.57100000000355,
      "v": 108
    },
    {
      "midi": 74,
      "hit": false,
      "t": 60857.081999999864,
      "d": 380.9519999999975,
      "v": 127
    },
    {
      "midi": 74,
      "hit": false,
      "t": 60857.081999999864,
      "d": 380.9519999999975,
      "v": 75
    },
    {
      "midi": 74,
      "hit": false,
      "t": 60857.081999999995,
      "d": 380.9519999999975,
      "v": 108
    },
    {
      "midi": 78,
      "hit": false,
      "t": 60857.081999999995,
      "d": 380.9519999999975,
      "v": 108
    },
    {
      "midi": 81,
      "hit": false,
      "t": 60857.081999999995,
      "d": 380.9519999999975,
      "v": 108
    },
    {
      "midi": 86,
      "hit": false,
      "t": 60857.081999999995,
      "d": 380.9519999999975,
      "v": 108
    },
    {
      "midi": 74,
      "hit": false,
      "t": 60857.082,
      "d": 380.9519999999975,
      "v": 110
    },
    {
      "midi": 78,
      "hit": false,
      "t": 60857.082,
      "d": 380.9519999999975,
      "v": 110
    },
    {
      "midi": 81,
      "hit": false,
      "t": 60857.082,
      "d": 380.9519999999975,
      "v": 110
    },
    {
      "midi": 86,
      "hit": false,
      "t": 60857.082,
      "d": 380.9519999999975,
      "v": 110
    },
    {
      "midi": 38,
      "hit": false,
      "t": 60857.08200000023,
      "d": 380.9519999999975,
      "v": 110
    },
    {
      "midi": 36,
      "hit": false,
      "t": 61285.65299999929,
      "d": 139.8808124999996,
      "v": 92
    },
    {
      "midi": 28,
      "hit": false,
      "t": 61285.65299999929,
      "d": 139.8808124999996,
      "v": 45
    },
    {
      "midi": 40,
      "hit": false,
      "t": 61285.65299999969,
      "d": 68.45231249999779,
      "v": 127
    },
    {
      "midi": 40,
      "hit": false,
      "t": 61357.08149999969,
      "d": 68.45231249999779,
      "v": 127
    },
    {
      "midi": 36,
      "hit": false,
      "t": 61428.50999999929,
      "d": 139.8808124999996,
      "v": 92
    },
    {
      "midi": 28,
      "hit": false,
      "t": 61428.50999999929,
      "d": 139.8808124999996,
      "v": 45
    },
    {
      "midi": 40,
      "hit": false,
      "t": 61428.50999999968,
      "d": 139.8808124999996,
      "v": 127
    },
    {
      "midi": 36,
      "hit": false,
      "t": 61571.366999999285,
      "d": 139.8808124999996,
      "v": 92
    },
    {
      "midi": 28,
      "hit": false,
      "t": 61571.366999999285,
      "d": 139.8808124999996,
      "v": 45
    },
    {
      "midi": 40,
      "hit": false,
      "t": 61571.36699999968,
      "d": 139.8808124999996,
      "v": 127
    },
    {
      "midi": 36,
      "hit": false,
      "t": 61714.22399999928,
      "d": 139.8808124999996,
      "v": 92
    },
    {
      "midi": 28,
      "hit": false,
      "t": 61714.22399999928,
      "d": 139.8808124999996,
      "v": 45
    },
    {
      "midi": 49,
      "hit": false,
      "t": 61714.223999999675,
      "d": 380.9519999999975,
      "v": 127
    },
    {
      "midi": 40,
      "hit": false,
      "t": 61714.22399999984,
      "d": 857.1419999999998,
      "v": 127
    },
    {
      "midi": 47,
      "hit": false,
      "t": 61714.22399999984,
      "d": 857.1419999999998,
      "v": 127
    },
    {
      "midi": 52,
      "hit": false,
      "t": 61714.22399999984,
      "d": 857.1419999999998,
      "v": 127
    },
    {
      "midi": 40,
      "hit": false,
      "t": 61714.22399999987,
      "d": 857.1419999999998,
      "v": 127
    },
    {
      "midi": 47,
      "hit": false,
      "t": 61714.22399999987,
      "d": 857.1419999999998,
      "v": 127
    },
    {
      "midi": 52,
      "hit": false,
      "t": 61714.22399999987,
      "d": 857.1419999999998,
      "v": 127
    },
    {
      "midi": 67,
      "hit": false,
      "t": 61714.223999999995,
      "d": 857.1419999999998,
      "v": 92
    },
    {
      "midi": 71,
      "hit": false,
      "t": 61714.223999999995,
      "d": 857.1419999999998,
      "v": 92
    },
    {
      "midi": 76,
      "hit": false,
      "t": 61714.223999999995,
      "d": 857.1419999999998,
      "v": 92
    },
    {
      "midi": 67,
      "hit": false,
      "t": 61714.224,
      "d": 857.1419999999998,
      "v": 92
    },
    {
      "midi": 71,
      "hit": false,
      "t": 61714.224,
      "d": 857.1419999999998,
      "v": 92
    },
    {
      "midi": 76,
      "hit": false,
      "t": 61714.224,
      "d": 857.1419999999998,
      "v": 92
    },
    {
      "midi": 79,
      "hit": false,
      "t": 61714.22400000003,
      "d": 568.4518125000031,
      "v": 110
    },
    {
      "midi": 79,
      "hit": false,
      "t": 61714.22400000003,
      "d": 568.4518125000031,
      "v": 127
    },
    {
      "midi": 28,
      "hit": false,
      "t": 61714.22400000023,
      "d": 142.8570000000036,
      "v": 110
    },
    {
      "midi": 36,
      "hit": false,
      "t": 61857.08099999928,
      "d": 139.8808124999996,
      "v": 92
    },
    {
      "midi": 28,
      "hit": false,
      "t": 61857.08099999928,
      "d": 139.8808124999996,
      "v": 45
    },
    {
      "midi": 28,
      "hit": false,
      "t": 61857.08100000023,
      "d": 142.8570000000036,
      "v": 110
    },
    {
      "midi": 36,
      "hit": false,
      "t": 61999.937999999274,
      "d": 139.8808124999996,
      "v": 92
    },
    {
      "midi": 28,
      "hit": false,
      "t": 61999.937999999274,
      "d": 139.8808124999996,
      "v": 45
    },
    {
      "midi": 28,
      "hit": false,
      "t": 61999.938000000235,
      "d": 142.8570000000036,
      "v": 110
    },
    {
      "midi": 36,
      "hit": false,
      "t": 62142.79499999927,
      "d": 139.8808124999996,
      "v": 92
    },
    {
      "midi": 28,
      "hit": false,
      "t": 62142.79499999927,
      "d": 139.8808124999996,
      "v": 45
    },
    {
      "midi": 40,
      "hit": false,
      "t": 62142.79499999967,
      "d": 380.9519999999975,
      "v": 127
    },
    {
      "midi": 57,
      "hit": false,
      "t": 62142.79499999967,
      "d": 380.9519999999975,
      "v": 127
    },
    {
      "midi": 28,
      "hit": false,
      "t": 62142.79500000024,
      "d": 142.8570000000036,
      "v": 110
    },
    {
      "midi": 36,
      "hit": false,
      "t": 62285.65199999927,
      "d": 139.8808124999996,
      "v": 92
    },
    {
      "midi": 28,
      "hit": false,
      "t": 62285.65199999927,
      "d": 139.8808124999996,
      "v": 45
    },
    {
      "midi": 78,
      "hit": false,
      "t": 62285.65200000003,
      "d": 142.8570000000036,
      "v": 110
    },
    {
      "midi": 78,
      "hit": false,
      "t": 62285.65200000003,
      "d": 142.8570000000036,
      "v": 127
    },
    {
      "midi": 28,
      "hit": false,
      "t": 62285.65200000024,
      "d": 142.8570000000036,
      "v": 110
    },
    {
      "midi": 36,
      "hit": false,
      "t": 62428.50899999926,
      "d": 139.8808124999996,
      "v": 92
    },
    {
      "midi": 28,
      "hit": false,
      "t": 62428.50899999926,
      "d": 139.8808124999996,
      "v": 45
    },
    {
      "midi": 79,
      "hit": false,
      "t": 62428.509000000035,
      "d": 142.8570000000036,
      "v": 110
    },
    {
      "midi": 79,
      "hit": false,
      "t": 62428.509000000035,
      "d": 142.8570000000036,
      "v": 127
    },
    {
      "midi": 28,
      "hit": false,
      "t": 62428.509000000246,
      "d": 142.8570000000036,
      "v": 110
    },
    {
      "midi": 36,
      "hit": false,
      "t": 62571.36599999926,
      "d": 139.8808124999996,
      "v": 92
    },
    {
      "midi": 28,
      "hit": false,
      "t": 62571.36599999926,
      "d": 139.8808124999996,
      "v": 45
    },
    {
      "midi": 53,
      "hit": false,
      "t": 62571.36599999967,
      "d": 380.9519999999975,
      "v": 127
    },
    {
      "midi": 42,
      "hit": false,
      "t": 62571.36599999984,
      "d": 857.1419999999998,
      "v": 127
    },
    {
      "midi": 50,
      "hit": false,
      "t": 62571.36599999984,
      "d": 857.1419999999998,
      "v": 127
    },
    {
      "midi": 54,
      "hit": false,
      "t": 62571.36599999984,
      "d": 857.1419999999998,
      "v": 127
    },
    {
      "midi": 42,
      "hit": false,
      "t": 62571.36599999987,
      "d": 857.1419999999998,
      "v": 127
    },
    {
      "midi": 50,
      "hit": false,
      "t": 62571.36599999987,
      "d": 857.1419999999998,
      "v": 127
    },
    {
      "midi": 54,
      "hit": false,
      "t": 62571.36599999987,
      "d": 857.1419999999998,
      "v": 127
    },
    {
      "midi": 69,
      "hit": false,
      "t": 62571.365999999995,
      "d": 857.1419999999998,
      "v": 92
    },
    {
      "midi": 74,
      "hit": false,
      "t": 62571.365999999995,
      "d": 857.1419999999998,
      "v": 92
    },
    {
      "midi": 78,
      "hit": false,
      "t": 62571.365999999995,
      "d": 857.1419999999998,
      "v": 92
    },
    {
      "midi": 69,
      "hit": false,
      "t": 62571.366,
      "d": 857.1419999999998,
      "v": 92
    },
    {
      "midi": 74,
      "hit": false,
      "t": 62571.366,
      "d": 857.1419999999998,
      "v": 92
    },
    {
      "midi": 78,
      "hit": false,
      "t": 62571.366,
      "d": 857.1419999999998,
      "v": 92
    },
    {
      "midi": 81,
      "hit": false,
      "t": 62571.36600000004,
      "d": 380.9519999999975,
      "v": 110
    },
    {
      "midi": 81,
      "hit": false,
      "t": 62571.36600000004,
      "d": 380.9519999999975,
      "v": 127
    },
    {
      "midi": 30,
      "hit": false,
      "t": 62571.36600000025,
      "d": 142.8570000000036,
      "v": 110
    },
    {
      "midi": 36,
      "hit": false,
      "t": 62714.222999999256,
      "d": 139.8808124999996,
      "v": 92
    },
    {
      "midi": 28,
      "hit": false,
      "t": 62714.222999999256,
      "d": 139.8808124999996,
      "v": 45
    },
    {
      "midi": 30,
      "hit": false,
      "t": 62714.22300000025,
      "d": 142.8570000000036,
      "v": 110
    },
    {
      "midi": 36,
      "hit": false,
      "t": 62857.07999999925,
      "d": 139.8808124999996,
      "v": 92
    },
    {
      "midi": 28,
      "hit": false,
      "t": 62857.07999999925,
      "d": 139.8808124999996,
      "v": 45
    },
    {
      "midi": 30,
      "hit": false,
      "t": 62857.08000000026,
      "d": 142.8570000000036,
      "v": 110
    },
    {
      "midi": 36,
      "hit": false,
      "t": 62999.93699999925,
      "d": 139.8808124999996,
      "v": 92
    },
    {
      "midi": 28,
      "hit": false,
      "t": 62999.93699999925,
      "d": 139.8808124999996,
      "v": 45
    },
    {
      "midi": 40,
      "hit": false,
      "t": 62999.93699999966,
      "d": 380.9519999999975,
      "v": 127
    },
    {
      "midi": 53,
      "hit": false,
      "t": 62999.93699999966,
      "d": 380.9519999999975,
      "v": 127
    },
    {
      "midi": 86,
      "hit": false,
      "t": 62999.937000000034,
      "d": 380.9519999999975,
      "v": 110
    },
    {
      "midi": 86,
      "hit": false,
      "t": 62999.937000000034,
      "d": 380.9519999999975,
      "v": 127
    },
    {
      "midi": 30,
      "hit": false,
      "t": 62999.93700000026,
      "d": 142.8570000000036,
      "v": 110
    },
    {
      "midi": 36,
      "hit": false,
      "t": 63142.793999999245,
      "d": 139.8808124999996,
      "v": 92
    },
    {
      "midi": 28,
      "hit": false,
      "t": 63142.793999999245,
      "d": 139.8808124999996,
      "v": 45
    },
    {
      "midi": 30,
      "hit": false,
      "t": 63142.79400000026,
      "d": 142.8570000000036,
      "v": 110
    },
    {
      "midi": 36,
      "hit": false,
      "t": 63285.65099999924,
      "d": 139.8808124999996,
      "v": 92
    },
    {
      "midi": 28,
      "hit": false,
      "t": 63285.65099999924,
      "d": 139.8808124999996,
      "v": 45
    },
    {
      "midi": 30,
      "hit": false,
      "t": 63285.65100000027,
      "d": 142.8570000000036,
      "v": 110
    },
    {
      "midi": 36,
      "hit": false,
      "t": 63428.50799999924,
      "d": 139.8808124999996,
      "v": 92
    },
    {
      "midi": 28,
      "hit": false,
      "t": 63428.50799999924,
      "d": 139.8808124999996,
      "v": 45
    },
    {
      "midi": 53,
      "hit": false,
      "t": 63428.50799999966,
      "d": 380.9519999999975,
      "v": 127
    },
    {
      "midi": 43,
      "hit": false,
      "t": 63428.50799999984,
      "d": 857.1419999999998,
      "v": 127
    },
    {
      "midi": 50,
      "hit": false,
      "t": 63428.50799999984,
      "d": 857.1419999999998,
      "v": 127
    },
    {
      "midi": 55,
      "hit": false,
      "t": 63428.50799999984,
      "d": 857.1419999999998,
      "v": 127
    },
    {
      "midi": 43,
      "hit": false,
      "t": 63428.50799999987,
      "d": 1714.2839999999997,
      "v": 127
    },
    {
      "midi": 50,
      "hit": false,
      "t": 63428.50799999987,
      "d": 1714.2839999999997,
      "v": 127
    },
    {
      "midi": 55,
      "hit": false,
      "t": 63428.50799999987,
      "d": 1714.2839999999997,
      "v": 127
    },
    {
      "midi": 71,
      "hit": false,
      "t": 63428.507999999994,
      "d": 1642.8554999999978,
      "v": 92
    },
    {
      "midi": 74,
      "hit": false,
      "t": 63428.507999999994,
      "d": 1642.8554999999978,
      "v": 92
    },
    {
      "midi": 79,
      "hit": false,
      "t": 63428.507999999994,
      "d": 1642.8554999999978,
      "v": 92
    },
    {
      "midi": 71,
      "hit": false,
      "t": 63428.508,
      "d": 1642.8554999999978,
      "v": 92
    },
    {
      "midi": 74,
      "hit": false,
      "t": 63428.508,
      "d": 1642.8554999999978,
      "v": 92
    },
    {
      "midi": 79,
      "hit": false,
      "t": 63428.508,
      "d": 1642.8554999999978,
      "v": 92
    },
    {
      "midi": 84,
      "hit": false,
      "t": 63428.50800000003,
      "d": 568.4518125000031,
      "v": 110
    },
    {
      "midi": 84,
      "hit": false,
      "t": 63428.50800000003,
      "d": 568.4518125000031,
      "v": 127
    },
    {
      "midi": 31,
      "hit": false,
      "t": 63428.50800000027,
      "d": 142.8570000000036,
      "v": 110
    },
    {
      "midi": 36,
      "hit": false,
      "t": 63571.364999999234,
      "d": 139.8808124999996,
      "v": 92
    },
    {
      "midi": 28,
      "hit": false,
      "t": 63571.364999999234,
      "d": 139.8808124999996,
      "v": 45
    },
    {
      "midi": 31,
      "hit": false,
      "t": 63571.365000000274,
      "d": 142.8570000000036,
      "v": 110
    },
    {
      "midi": 36,
      "hit": false,
      "t": 63714.22199999923,
      "d": 139.8808124999996,
      "v": 92
    },
    {
      "midi": 28,
      "hit": false,
      "t": 63714.22199999923,
      "d": 139.8808124999996,
      "v": 45
    },
    {
      "midi": 31,
      "hit": false,
      "t": 63714.22200000028,
      "d": 142.8570000000036,
      "v": 110
    },
    {
      "midi": 36,
      "hit": false,
      "t": 63857.07899999923,
      "d": 139.8808124999996,
      "v": 92
    },
    {
      "midi": 28,
      "hit": false,
      "t": 63857.07899999923,
      "d": 139.8808124999996,
      "v": 45
    },
    {
      "midi": 40,
      "hit": false,
      "t": 63857.078999999656,
      "d": 380.9519999999975,
      "v": 127
    },
    {
      "midi": 53,
      "hit": false,
      "t": 63857.078999999656,
      "d": 380.9519999999975,
      "v": 127
    },
    {
      "midi": 31,
      "hit": false,
      "t": 63857.07900000028,
      "d": 142.8570000000036,
      "v": 110
    },
    {
      "midi": 36,
      "hit": false,
      "t": 63999.93599999922,
      "d": 139.8808124999996,
      "v": 92
    },
    {
      "midi": 28,
      "hit": false,
      "t": 63999.93599999922,
      "d": 139.8808124999996,
      "v": 45
    },
    {
      "midi": 83,
      "hit": false,
      "t": 63999.93600000003,
      "d": 142.8570000000036,
      "v": 110
    },
    {
      "midi": 83,
      "hit": false,
      "t": 63999.93600000003,
      "d": 142.8570000000036,
      "v": 127
    },
    {
      "midi": 31,
      "hit": false,
      "t": 63999.936000000285,
      "d": 142.8570000000036,
      "v": 110
    },
    {
      "midi": 36,
      "hit": false,
      "t": 64142.79299999922,
      "d": 139.8808124999996,
      "v": 92
    },
    {
      "midi": 28,
      "hit": false,
      "t": 64142.79299999922,
      "d": 139.8808124999996,
      "v": 45
    },
    {
      "midi": 81,
      "hit": false,
      "t": 64142.793000000034,
      "d": 142.8570000000036,
      "v": 110
    },
    {
      "midi": 81,
      "hit": false,
      "t": 64142.793000000034,
      "d": 142.8570000000036,
      "v": 127
    },
    {
      "midi": 31,
      "hit": false,
      "t": 64142.79300000029,
      "d": 142.8570000000036,
      "v": 110
    },
    {
      "midi": 36,
      "hit": false,
      "t": 64285.649999999216,
      "d": 139.8808124999996,
      "v": 92
    },
    {
      "midi": 28,
      "hit": false,
      "t": 64285.649999999216,
      "d": 139.8808124999996,
      "v": 45
    },
    {
      "midi": 53,
      "hit": false,
      "t": 64285.64999999965,
      "d": 380.9519999999975,
      "v": 127
    },
    {
      "midi": 43,
      "hit": false,
      "t": 64285.64999999984,
      "d": 785.713499999998,
      "v": 108
    },
    {
      "midi": 50,
      "hit": false,
      "t": 64285.64999999984,
      "d": 785.713499999998,
      "v": 108
    },
    {
      "midi": 55,
      "hit": false,
      "t": 64285.64999999984,
      "d": 785.713499999998,
      "v": 108
    },
    {
      "midi": 83,
      "hit": false,
      "t": 64285.65000000004,
      "d": 785.713499999998,
      "v": 110
    },
    {
      "midi": 83,
      "hit": false,
      "t": 64285.65000000004,
      "d": 785.713499999998,
      "v": 127
    },
    {
      "midi": 31,
      "hit": false,
      "t": 64285.65000000029,
      "d": 142.8570000000036,
      "v": 110
    },
    {
      "midi": 36,
      "hit": false,
      "t": 64428.50699999921,
      "d": 139.8808124999996,
      "v": 92
    },
    {
      "midi": 28,
      "hit": false,
      "t": 64428.50699999921,
      "d": 139.8808124999996,
      "v": 45
    },
    {
      "midi": 31,
      "hit": false,
      "t": 64428.507000000296,
      "d": 142.8570000000036,
      "v": 110
    },
    {
      "midi": 36,
      "hit": false,
      "t": 64571.36399999921,
      "d": 139.8808124999996,
      "v": 92
    },
    {
      "midi": 28,
      "hit": false,
      "t": 64571.36399999921,
      "d": 139.8808124999996,
      "v": 45
    },
    {
      "midi": 31,
      "hit": false,
      "t": 64571.3640000003,
      "d": 142.8570000000036,
      "v": 110
    },
    {
      "midi": 36,
      "hit": false,
      "t": 64714.220999999205,
      "d": 139.8808124999996,
      "v": 92
    },
    {
      "midi": 28,
      "hit": false,
      "t": 64714.220999999205,
      "d": 139.8808124999996,
      "v": 45
    },
    {
      "midi": 40,
      "hit": false,
      "t": 64714.22099999965,
      "d": 380.9519999999975,
      "v": 127
    },
    {
      "midi": 53,
      "hit": false,
      "t": 64714.22099999965,
      "d": 380.9519999999975,
      "v": 127
    },
    {
      "midi": 31,
      "hit": false,
      "t": 64714.2210000003,
      "d": 142.8570000000036,
      "v": 110
    },
    {
      "midi": 36,
      "hit": false,
      "t": 64857.0779999992,
      "d": 139.8808124999996,
      "v": 92
    },
    {
      "midi": 28,
      "hit": false,
      "t": 64857.0779999992,
      "d": 139.8808124999996,
      "v": 45
    },
    {
      "midi": 31,
      "hit": false,
      "t": 64857.07800000031,
      "d": 142.8570000000036,
      "v": 110
    },
    {
      "midi": 36,
      "hit": false,
      "t": 64999.9349999992,
      "d": 139.8808124999996,
      "v": 92
    },
    {
      "midi": 28,
      "hit": false,
      "t": 64999.9349999992,
      "d": 139.8808124999996,
      "v": 45
    },
    {
      "midi": 31,
      "hit": false,
      "t": 64999.93500000031,
      "d": 142.8570000000036,
      "v": 110
    },
    {
      "midi": 36,
      "hit": false,
      "t": 65142.791999999194,
      "d": 139.8808124999996,
      "v": 92
    },
    {
      "midi": 28,
      "hit": false,
      "t": 65142.791999999194,
      "d": 139.8808124999996,
      "v": 45
    },
    {
      "midi": 53,
      "hit": false,
      "t": 65142.791999999645,
      "d": 380.9519999999975,
      "v": 127
    },
    {
      "midi": 48,
      "hit": false,
      "t": 65142.79199999984,
      "d": 857.1420000000071,
      "v": 127
    },
    {
      "midi": 55,
      "hit": false,
      "t": 65142.79199999984,
      "d": 857.1420000000071,
      "v": 127
    },
    {
      "midi": 60,
      "hit": false,
      "t": 65142.79199999984,
      "d": 857.1420000000071,
      "v": 127
    },
    {
      "midi": 48,
      "hit": false,
      "t": 65142.79199999987,
      "d": 857.1420000000071,
      "v": 127
    },
    {
      "midi": 55,
      "hit": false,
      "t": 65142.79199999987,
      "d": 857.1420000000071,
      "v": 127
    },
    {
      "midi": 60,
      "hit": false,
      "t": 65142.79199999987,
      "d": 857.1420000000071,
      "v": 127
    },
    {
      "midi": 76,
      "hit": false,
      "t": 65142.791999999994,
      "d": 857.1419999999998,
      "v": 92
    },
    {
      "midi": 79,
      "hit": false,
      "t": 65142.791999999994,
      "d": 857.1419999999998,
      "v": 92
    },
    {
      "midi": 84,
      "hit": false,
      "t": 65142.791999999994,
      "d": 857.1419999999998,
      "v": 92
    },
    {
      "midi": 76,
      "hit": false,
      "t": 65142.792,
      "d": 857.1420000000071,
      "v": 92
    },
    {
      "midi": 79,
      "hit": false,
      "t": 65142.792,
      "d": 857.1420000000071,
      "v": 92
    },
    {
      "midi": 84,
      "hit": false,
      "t": 65142.792,
      "d": 857.1420000000071,
      "v": 92
    },
    {
      "midi": 88,
      "hit": false,
      "t": 65142.79200000004,
      "d": 568.4518124999959,
      "v": 110
    },
    {
      "midi": 88,
      "hit": false,
      "t": 65142.79200000004,
      "d": 568.4518124999959,
      "v": 127
    },
    {
      "midi": 36,
      "hit": false,
      "t": 65142.792000000314,
      "d": 142.8570000000036,
      "v": 110
    },
    {
      "midi": 36,
      "hit": false,
      "t": 65285.64899999919,
      "d": 139.8808124999996,
      "v": 92
    },
    {
      "midi": 28,
      "hit": false,
      "t": 65285.64899999919,
      "d": 139.8808124999996,
      "v": 45
    },
    {
      "midi": 36,
      "hit": false,
      "t": 65285.64900000032,
      "d": 142.8570000000036,
      "v": 110
    },
    {
      "midi": 36,
      "hit": false,
      "t": 65428.505999999186,
      "d": 139.8808124999996,
      "v": 92
    },
    {
      "midi": 28,
      "hit": false,
      "t": 65428.505999999186,
      "d": 139.8808124999996,
      "v": 45
    },
    {
      "midi": 36,
      "hit": false,
      "t": 65428.50600000032,
      "d": 142.85699999999633,
      "v": 110
    },
    {
      "midi": 36,
      "hit": false,
      "t": 65571.36299999918,
      "d": 139.88081250000687,
      "v": 92
    },
    {
      "midi": 28,
      "hit": false,
      "t": 65571.36299999918,
      "d": 139.88081250000687,
      "v": 45
    },
    {
      "midi": 40,
      "hit": false,
      "t": 65571.36299999965,
      "d": 380.9520000000048,
      "v": 127
    },
    {
      "midi": 53,
      "hit": false,
      "t": 65571.36299999965,
      "d": 380.9520000000048,
      "v": 127
    },
    {
      "midi": 36,
      "hit": false,
      "t": 65571.36300000032,
      "d": 142.8570000000036,
      "v": 110
    },
    {
      "midi": 36,
      "hit": false,
      "t": 65714.21999999919,
      "d": 139.88081250000687,
      "v": 92
    },
    {
      "midi": 28,
      "hit": false,
      "t": 65714.21999999919,
      "d": 139.88081250000687,
      "v": 45
    },
    {
      "midi": 86,
      "hit": false,
      "t": 65714.22000000003,
      "d": 142.8570000000036,
      "v": 110
    },
    {
      "midi": 86,
      "hit": false,
      "t": 65714.22000000003,
      "d": 142.8570000000036,
      "v": 127
    },
    {
      "midi": 36,
      "hit": false,
      "t": 65714.22000000032,
      "d": 142.8570000000036,
      "v": 110
    },
    {
      "midi": 36,
      "hit": false,
      "t": 65857.07699999919,
      "d": 139.88081250000687,
      "v": 92
    },
    {
      "midi": 28,
      "hit": false,
      "t": 65857.07699999919,
      "d": 139.88081250000687,
      "v": 45
    },
    {
      "midi": 84,
      "hit": false,
      "t": 65857.07700000003,
      "d": 142.8570000000036,
      "v": 110
    },
    {
      "midi": 84,
      "hit": false,
      "t": 65857.07700000003,
      "d": 142.8570000000036,
      "v": 127
    },
    {
      "midi": 36,
      "hit": false,
      "t": 65857.07700000032,
      "d": 142.8570000000036,
      "v": 110
    },
    {
      "midi": 36,
      "hit": false,
      "t": 65999.9339999992,
      "d": 139.88081250000687,
      "v": 92
    },
    {
      "midi": 28,
      "hit": false,
      "t": 65999.9339999992,
      "d": 139.88081250000687,
      "v": 45
    },
    {
      "midi": 53,
      "hit": false,
      "t": 65999.93399999966,
      "d": 380.9520000000048,
      "v": 127
    },
    {
      "midi": 43,
      "hit": false,
      "t": 65999.93399999985,
      "d": 857.1420000000071,
      "v": 127
    },
    {
      "midi": 50,
      "hit": false,
      "t": 65999.93399999985,
      "d": 857.1420000000071,
      "v": 127
    },
    {
      "midi": 55,
      "hit": false,
      "t": 65999.93399999985,
      "d": 857.1420000000071,
      "v": 127
    },
    {
      "midi": 43,
      "hit": false,
      "t": 65999.93399999988,
      "d": 857.1420000000071,
      "v": 127
    },
    {
      "midi": 50,
      "hit": false,
      "t": 65999.93399999988,
      "d": 857.1420000000071,
      "v": 127
    },
    {
      "midi": 55,
      "hit": false,
      "t": 65999.93399999988,
      "d": 857.1420000000071,
      "v": 127
    },
    {
      "midi": 71,
      "hit": false,
      "t": 65999.934,
      "d": 857.1420000000071,
      "v": 92
    },
    {
      "midi": 74,
      "hit": false,
      "t": 65999.934,
      "d": 857.1420000000071,
      "v": 92
    },
    {
      "midi": 79,
      "hit": false,
      "t": 65999.934,
      "d": 857.1420000000071,
      "v": 92
    },
    {
      "midi": 71,
      "hit": false,
      "t": 65999.93400000001,
      "d": 857.1420000000071,
      "v": 92
    },
    {
      "midi": 74,
      "hit": false,
      "t": 65999.93400000001,
      "d": 857.1420000000071,
      "v": 92
    },
    {
      "midi": 79,
      "hit": false,
      "t": 65999.93400000001,
      "d": 857.1420000000071,
      "v": 92
    },
    {
      "midi": 83,
      "hit": false,
      "t": 65999.93400000004,
      "d": 428.5709999999963,
      "v": 110
    },
    {
      "midi": 83,
      "hit": false,
      "t": 65999.93400000004,
      "d": 428.5709999999963,
      "v": 127
    },
    {
      "midi": 31,
      "hit": false,
      "t": 65999.93400000033,
      "d": 142.8570000000036,
      "v": 110
    },
    {
      "midi": 36,
      "hit": false,
      "t": 66142.7909999992,
      "d": 139.88081250000687,
      "v": 92
    },
    {
      "midi": 28,
      "hit": false,
      "t": 66142.7909999992,
      "d": 139.88081250000687,
      "v": 45
    },
    {
      "midi": 31,
      "hit": false,
      "t": 66142.79100000033,
      "d": 142.8570000000036,
      "v": 110
    },
    {
      "midi": 36,
      "hit": false,
      "t": 66285.6479999992,
      "d": 139.88081250000687,
      "v": 92
    },
    {
      "midi": 28,
      "hit": false,
      "t": 66285.6479999992,
      "d": 139.88081250000687,
      "v": 45
    },
    {
      "midi": 31,
      "hit": false,
      "t": 66285.64800000034,
      "d": 142.8570000000036,
      "v": 110
    },
    {
      "midi": 36,
      "hit": false,
      "t": 66428.5049999992,
      "d": 139.88081250000687,
      "v": 92
    },
    {
      "midi": 28,
      "hit": false,
      "t": 66428.5049999992,
      "d": 139.88081250000687,
      "v": 45
    },
    {
      "midi": 40,
      "hit": false,
      "t": 66428.50499999967,
      "d": 380.9520000000048,
      "v": 127
    },
    {
      "midi": 53,
      "hit": false,
      "t": 66428.50499999967,
      "d": 380.9520000000048,
      "v": 127
    },
    {
      "midi": 79,
      "hit": false,
      "t": 66428.50500000003,
      "d": 428.5709999999963,
      "v": 110
    },
    {
      "midi": 79,
      "hit": false,
      "t": 66428.50500000003,
      "d": 428.5709999999963,
      "v": 127
    },
    {
      "midi": 31,
      "hit": false,
      "t": 66428.50500000034,
      "d": 142.8570000000036,
      "v": 110
    },
    {
      "midi": 36,
      "hit": false,
      "t": 66571.36199999921,
      "d": 139.88081250000687,
      "v": 92
    },
    {
      "midi": 28,
      "hit": false,
      "t": 66571.36199999921,
      "d": 139.88081250000687,
      "v": 45
    },
    {
      "midi": 31,
      "hit": false,
      "t": 66571.36200000034,
      "d": 142.8570000000036,
      "v": 110
    },
    {
      "midi": 36,
      "hit": false,
      "t": 66714.21899999921,
      "d": 139.88081250000687,
      "v": 92
    },
    {
      "midi": 28,
      "hit": false,
      "t": 66714.21899999921,
      "d": 139.88081250000687,
      "v": 45
    },
    {
      "midi": 31,
      "hit": false,
      "t": 66714.21900000035,
      "d": 142.8570000000036,
      "v": 110
    },
    {
      "midi": 36,
      "hit": false,
      "t": 66857.07599999922,
      "d": 139.88081250000687,
      "v": 92
    },
    {
      "midi": 28,
      "hit": false,
      "t": 66857.07599999922,
      "d": 139.88081250000687,
      "v": 45
    },
    {
      "midi": 53,
      "hit": false,
      "t": 66857.07599999968,
      "d": 380.9520000000048,
      "v": 127
    },
    {
      "midi": 50,
      "hit": false,
      "t": 66857.07599999986,
      "d": 857.1420000000071,
      "v": 127
    },
    {
      "midi": 57,
      "hit": false,
      "t": 66857.07599999986,
      "d": 857.1420000000071,
      "v": 127
    },
    {
      "midi": 62,
      "hit": false,
      "t": 66857.07599999986,
      "d": 857.1420000000071,
      "v": 127
    },
    {
      "midi": 50,
      "hit": false,
      "t": 66857.07599999988,
      "d": 857.1420000000071,
      "v": 127
    },
    {
      "midi": 57,
      "hit": false,
      "t": 66857.07599999988,
      "d": 857.1420000000071,
      "v": 127
    },
    {
      "midi": 62,
      "hit": false,
      "t": 66857.07599999988,
      "d": 857.1420000000071,
      "v": 127
    },
    {
      "midi": 78,
      "hit": false,
      "t": 66857.076,
      "d": 857.1420000000071,
      "v": 92
    },
    {
      "midi": 81,
      "hit": false,
      "t": 66857.076,
      "d": 857.1420000000071,
      "v": 92
    },
    {
      "midi": 86,
      "hit": false,
      "t": 66857.076,
      "d": 857.1420000000071,
      "v": 92
    },
    {
      "midi": 78,
      "hit": false,
      "t": 66857.07600000002,
      "d": 857.1420000000071,
      "v": 92
    },
    {
      "midi": 81,
      "hit": false,
      "t": 66857.07600000002,
      "d": 857.1420000000071,
      "v": 92
    },
    {
      "midi": 86,
      "hit": false,
      "t": 66857.07600000002,
      "d": 857.1420000000071,
      "v": 92
    },
    {
      "midi": 81,
      "hit": false,
      "t": 66857.07600000003,
      "d": 571.4279999999999,
      "v": 110
    },
    {
      "midi": 81,
      "hit": false,
      "t": 66857.07600000003,
      "d": 571.4279999999999,
      "v": 127
    },
    {
      "midi": 38,
      "hit": false,
      "t": 66857.07600000035,
      "d": 142.8570000000036,
      "v": 110
    },
    {
      "midi": 36,
      "hit": false,
      "t": 66999.93299999922,
      "d": 139.88081250000687,
      "v": 92
    },
    {
      "midi": 28,
      "hit": false,
      "t": 66999.93299999922,
      "d": 139.88081250000687,
      "v": 45
    },
    {
      "midi": 38,
      "hit": false,
      "t": 66999.93300000035,
      "d": 142.8570000000036,
      "v": 110
    },
    {
      "midi": 36,
      "hit": false,
      "t": 67142.78999999922,
      "d": 139.88081250000687,
      "v": 92
    },
    {
      "midi": 28,
      "hit": false,
      "t": 67142.78999999922,
      "d": 139.88081250000687,
      "v": 45
    },
    {
      "midi": 38,
      "hit": false,
      "t": 67142.79000000036,
      "d": 142.8570000000036,
      "v": 110
    },
    {
      "midi": 36,
      "hit": false,
      "t": 67285.64699999923,
      "d": 139.88081250000687,
      "v": 92
    },
    {
      "midi": 28,
      "hit": false,
      "t": 67285.64699999923,
      "d": 139.88081250000687,
      "v": 45
    },
    {
      "midi": 40,
      "hit": false,
      "t": 67285.64699999969,
      "d": 380.9520000000048,
      "v": 127
    },
    {
      "midi": 57,
      "hit": false,
      "t": 67285.64699999969,
      "d": 380.9520000000048,
      "v": 127
    },
    {
      "midi": 38,
      "hit": false,
      "t": 67285.64700000036,
      "d": 142.8570000000036,
      "v": 110
    },
    {
      "midi": 36,
      "hit": false,
      "t": 67428.50399999923,
      "d": 139.88081250000687,
      "v": 92
    },
    {
      "midi": 28,
      "hit": false,
      "t": 67428.50399999923,
      "d": 139.88081250000687,
      "v": 45
    },
    {
      "midi": 79,
      "hit": false,
      "t": 67428.50400000003,
      "d": 142.8570000000036,
      "v": 110
    },
    {
      "midi": 79,
      "hit": false,
      "t": 67428.50400000003,
      "d": 142.8570000000036,
      "v": 127
    },
    {
      "midi": 38,
      "hit": false,
      "t": 67428.50400000036,
      "d": 142.8570000000036,
      "v": 110
    },
    {
      "midi": 36,
      "hit": false,
      "t": 67571.36099999923,
      "d": 139.88081250000687,
      "v": 92
    },
    {
      "midi": 28,
      "hit": false,
      "t": 67571.36099999923,
      "d": 139.88081250000687,
      "v": 45
    },
    {
      "midi": 81,
      "hit": false,
      "t": 67571.36100000003,
      "d": 142.8570000000036,
      "v": 110
    },
    {
      "midi": 81,
      "hit": false,
      "t": 67571.36100000003,
      "d": 142.8570000000036,
      "v": 127
    },
    {
      "midi": 38,
      "hit": false,
      "t": 67571.36100000037,
      "d": 142.8570000000036,
      "v": 110
    },
    {
      "midi": 36,
      "hit": false,
      "t": 67714.21799999924,
      "d": 139.88081250000687,
      "v": 92
    },
    {
      "midi": 28,
      "hit": false,
      "t": 67714.21799999924,
      "d": 139.88081250000687,
      "v": 45
    },
    {
      "midi": 47,
      "hit": false,
      "t": 67714.2179999997,
      "d": 68.45231249999779,
      "v": 127
    },
    {
      "midi": 47,
      "hit": false,
      "t": 67714.21799999986,
      "d": 785.713499999998,
      "v": 127
    },
    {
      "midi": 54,
      "hit": false,
      "t": 67714.21799999986,
      "d": 785.713499999998,
      "v": 127
    },
    {
      "midi": 59,
      "hit": false,
      "t": 67714.21799999986,
      "d": 785.713499999998,
      "v": 127
    },
    {
      "midi": 47,
      "hit": false,
      "t": 67714.21799999989,
      "d": 785.713499999998,
      "v": 127
    },
    {
      "midi": 54,
      "hit": false,
      "t": 67714.21799999989,
      "d": 785.713499999998,
      "v": 127
    },
    {
      "midi": 59,
      "hit": false,
      "t": 67714.21799999989,
      "d": 785.713499999998,
      "v": 127
    },
    {
      "midi": 75,
      "hit": false,
      "t": 67714.21800000001,
      "d": 785.713499999998,
      "v": 92
    },
    {
      "midi": 78,
      "hit": false,
      "t": 67714.21800000001,
      "d": 785.713499999998,
      "v": 92
    },
    {
      "midi": 83,
      "hit": false,
      "t": 67714.21800000001,
      "d": 785.713499999998,
      "v": 92
    },
    {
      "midi": 75,
      "hit": false,
      "t": 67714.21800000002,
      "d": 785.713499999998,
      "v": 92
    },
    {
      "midi": 78,
      "hit": false,
      "t": 67714.21800000002,
      "d": 785.713499999998,
      "v": 92
    },
    {
      "midi": 83,
      "hit": false,
      "t": 67714.21800000002,
      "d": 785.713499999998,
      "v": 92
    },
    {
      "midi": 83,
      "hit": false,
      "t": 67714.21800000004,
      "d": 785.713499999998,
      "v": 110
    },
    {
      "midi": 83,
      "hit": false,
      "t": 67714.21800000004,
      "d": 785.713499999998,
      "v": 127
    },
    {
      "midi": 35,
      "hit": false,
      "t": 67714.21800000037,
      "d": 142.8570000000036,
      "v": 110
    },
    {
      "midi": 47,
      "hit": false,
      "t": 67785.6464999997,
      "d": 68.45231249999779,
      "v": 127
    },
    {
      "midi": 36,
      "hit": false,
      "t": 67857.07499999924,
      "d": 139.88081250000687,
      "v": 92
    },
    {
      "midi": 28,
      "hit": false,
      "t": 67857.07499999924,
      "d": 139.88081250000687,
      "v": 45
    },
    {
      "midi": 45,
      "hit": false,
      "t": 67857.07499999969,
      "d": 139.88081250000687,
      "v": 127
    },
    {
      "midi": 35,
      "hit": false,
      "t": 67857.07500000038,
      "d": 142.8570000000036,
      "v": 110
    },
    {
      "midi": 36,
      "hit": false,
      "t": 67999.93199999924,
      "d": 139.88081250000687,
      "v": 92
    },
    {
      "midi": 28,
      "hit": false,
      "t": 67999.93199999924,
      "d": 139.88081250000687,
      "v": 45
    },
    {
      "midi": 43,
      "hit": false,
      "t": 67999.9319999997,
      "d": 139.88081250000687,
      "v": 127
    },
    {
      "midi": 35,
      "hit": false,
      "t": 67999.93200000038,
      "d": 142.8570000000036,
      "v": 110
    },
    {
      "midi": 36,
      "hit": false,
      "t": 68142.78899999925,
      "d": 139.88081250000687,
      "v": 92
    },
    {
      "midi": 28,
      "hit": false,
      "t": 68142.78899999925,
      "d": 139.88081250000687,
      "v": 45
    },
    {
      "midi": 45,
      "hit": false,
      "t": 68142.7889999997,
      "d": 139.88081250000687,
      "v": 127
    },
    {
      "midi": 35,
      "hit": false,
      "t": 68142.78900000038,
      "d": 142.8570000000036,
      "v": 110
    },
    {
      "midi": 36,
      "hit": false,
      "t": 68285.64599999925,
      "d": 139.88081250000687,
      "v": 92
    },
    {
      "midi": 28,
      "hit": false,
      "t": 68285.64599999925,
      "d": 139.88081250000687,
      "v": 45
    },
    {
      "midi": 43,
      "hit": false,
      "t": 68285.6459999997,
      "d": 139.88081250000687,
      "v": 127
    },
    {
      "midi": 35,
      "hit": false,
      "t": 68285.64600000039,
      "d": 142.8570000000036,
      "v": 110
    },
    {
      "midi": 36,
      "hit": false,
      "t": 68428.50299999925,
      "d": 139.88081250000687,
      "v": 92
    },
    {
      "midi": 28,
      "hit": false,
      "t": 68428.50299999925,
      "d": 139.88081250000687,
      "v": 45
    },
    {
      "midi": 41,
      "hit": false,
      "t": 68428.5029999997,
      "d": 139.88081250000687,
      "v": 127
    },
    {
      "midi": 35,
      "hit": false,
      "t": 68428.50300000039,
      "d": 142.8570000000036,
      "v": 110
    },
    {
      "midi": 36,
      "hit": false,
      "t": 68571.35999999926,
      "d": 139.88081250000687,
      "v": 92
    },
    {
      "midi": 28,
      "hit": false,
      "t": 68571.35999999926,
      "d": 139.88081250000687,
      "v": 45
    },
    {
      "midi": 57,
      "hit": false,
      "t": 68571.35999999971,
      "d": 380.9520000000048,
      "v": 127
    },
    {
      "midi": 40,
      "hit": false,
      "t": 68571.35999999986,
      "d": 857.1420000000071,
      "v": 127
    },
    {
      "midi": 47,
      "hit": false,
      "t": 68571.35999999986,
      "d": 857.1420000000071,
      "v": 127
    },
    {
      "midi": 52,
      "hit": false,
      "t": 68571.35999999986,
      "d": 857.1420000000071,
      "v": 127
    },
    {
      "midi": 40,
      "hit": false,
      "t": 68571.35999999988,
      "d": 857.1420000000071,
      "v": 127
    },
    {
      "midi": 47,
      "hit": false,
      "t": 68571.35999999988,
      "d": 857.1420000000071,
      "v": 127
    },
    {
      "midi": 52,
      "hit": false,
      "t": 68571.35999999988,
      "d": 857.1420000000071,
      "v": 127
    },
    {
      "midi": 67,
      "hit": false,
      "t": 68571.36,
      "d": 857.1420000000071,
      "v": 92
    },
    {
      "midi": 71,
      "hit": false,
      "t": 68571.36,
      "d": 857.1420000000071,
      "v": 92
    },
    {
      "midi": 76,
      "hit": false,
      "t": 68571.36,
      "d": 857.1420000000071,
      "v": 92
    },
    {
      "midi": 67,
      "hit": false,
      "t": 68571.36000000002,
      "d": 857.1420000000071,
      "v": 92
    },
    {
      "midi": 71,
      "hit": false,
      "t": 68571.36000000002,
      "d": 857.1420000000071,
      "v": 92
    },
    {
      "midi": 76,
      "hit": false,
      "t": 68571.36000000002,
      "d": 857.1420000000071,
      "v": 92
    },
    {
      "midi": 79,
      "hit": false,
      "t": 68571.36000000003,
      "d": 571.4279999999999,
      "v": 110
    },
    {
      "midi": 79,
      "hit": false,
      "t": 68571.36000000003,
      "d": 571.4279999999999,
      "v": 127
    },
    {
      "midi": 28,
      "hit": false,
      "t": 68571.3600000004,
      "d": 142.8570000000036,
      "v": 110
    },
    {
      "midi": 36,
      "hit": false,
      "t": 68714.21699999926,
      "d": 139.88081250000687,
      "v": 92
    },
    {
      "midi": 28,
      "hit": false,
      "t": 68714.21699999926,
      "d": 139.88081250000687,
      "v": 45
    },
    {
      "midi": 28,
      "hit": false,
      "t": 68714.2170000004,
      "d": 142.8570000000036,
      "v": 110
    },
    {
      "midi": 36,
      "hit": false,
      "t": 68857.07399999927,
      "d": 139.88081250000687,
      "v": 92
    },
    {
      "midi": 28,
      "hit": false,
      "t": 68857.07399999927,
      "d": 139.88081250000687,
      "v": 45
    },
    {
      "midi": 28,
      "hit": false,
      "t": 68857.0740000004,
      "d": 142.8570000000036,
      "v": 110
    },
    {
      "midi": 36,
      "hit": false,
      "t": 68999.93099999927,
      "d": 139.88081250000687,
      "v": 92
    },
    {
      "midi": 28,
      "hit": false,
      "t": 68999.93099999927,
      "d": 139.88081250000687,
      "v": 45
    },
    {
      "midi": 40,
      "hit": false,
      "t": 68999.93099999972,
      "d": 380.9520000000048,
      "v": 127
    },
    {
      "midi": 53,
      "hit": false,
      "t": 68999.93099999972,
      "d": 380.9520000000048,
      "v": 127
    },
    {
      "midi": 28,
      "hit": false,
      "t": 68999.9310000004,
      "d": 142.8570000000036,
      "v": 110
    },
    {
      "midi": 36,
      "hit": false,
      "t": 69142.78799999927,
      "d": 139.88081250000687,
      "v": 92
    },
    {
      "midi": 28,
      "hit": false,
      "t": 69142.78799999927,
      "d": 139.88081250000687,
      "v": 45
    },
    {
      "midi": 78,
      "hit": false,
      "t": 69142.78800000003,
      "d": 142.8570000000036,
      "v": 110
    },
    {
      "midi": 78,
      "hit": false,
      "t": 69142.78800000003,
      "d": 142.8570000000036,
      "v": 127
    },
    {
      "midi": 28,
      "hit": false,
      "t": 69142.78800000041,
      "d": 142.8570000000036,
      "v": 110
    },
    {
      "midi": 36,
      "hit": false,
      "t": 69285.64499999928,
      "d": 139.88081250000687,
      "v": 92
    },
    {
      "midi": 28,
      "hit": false,
      "t": 69285.64499999928,
      "d": 139.88081250000687,
      "v": 45
    },
    {
      "midi": 79,
      "hit": false,
      "t": 69285.64500000003,
      "d": 142.8570000000036,
      "v": 110
    },
    {
      "midi": 79,
      "hit": false,
      "t": 69285.64500000003,
      "d": 142.8570000000036,
      "v": 127
    },
    {
      "midi": 28,
      "hit": false,
      "t": 69285.64500000041,
      "d": 142.8570000000036,
      "v": 110
    },
    {
      "midi": 36,
      "hit": false,
      "t": 69428.50199999928,
      "d": 139.88081250000687,
      "v": 92
    },
    {
      "midi": 28,
      "hit": false,
      "t": 69428.50199999928,
      "d": 139.88081250000687,
      "v": 45
    },
    {
      "midi": 53,
      "hit": false,
      "t": 69428.50199999973,
      "d": 380.9520000000048,
      "v": 127
    },
    {
      "midi": 42,
      "hit": false,
      "t": 69428.50199999986,
      "d": 857.1420000000071,
      "v": 127
    },
    {
      "midi": 50,
      "hit": false,
      "t": 69428.50199999986,
      "d": 857.1420000000071,
      "v": 127
    },
    {
      "midi": 54,
      "hit": false,
      "t": 69428.50199999986,
      "d": 857.1420000000071,
      "v": 127
    },
    {
      "midi": 42,
      "hit": false,
      "t": 69428.50199999989,
      "d": 857.1420000000071,
      "v": 127
    },
    {
      "midi": 50,
      "hit": false,
      "t": 69428.50199999989,
      "d": 857.1420000000071,
      "v": 127
    },
    {
      "midi": 54,
      "hit": false,
      "t": 69428.50199999989,
      "d": 857.1420000000071,
      "v": 127
    },
    {
      "midi": 69,
      "hit": false,
      "t": 69428.50200000001,
      "d": 857.1420000000071,
      "v": 92
    },
    {
      "midi": 74,
      "hit": false,
      "t": 69428.50200000001,
      "d": 857.1420000000071,
      "v": 92
    },
    {
      "midi": 78,
      "hit": false,
      "t": 69428.50200000001,
      "d": 857.1420000000071,
      "v": 92
    },
    {
      "midi": 69,
      "hit": false,
      "t": 69428.50200000002,
      "d": 857.1420000000071,
      "v": 92
    },
    {
      "midi": 74,
      "hit": false,
      "t": 69428.50200000002,
      "d": 857.1420000000071,
      "v": 92
    },
    {
      "midi": 78,
      "hit": false,
      "t": 69428.50200000002,
      "d": 857.1420000000071,
      "v": 92
    },
    {
      "midi": 81,
      "hit": false,
      "t": 69428.50200000004,
      "d": 428.5709999999963,
      "v": 110
    },
    {
      "midi": 81,
      "hit": false,
      "t": 69428.50200000004,
      "d": 428.5709999999963,
      "v": 127
    },
    {
      "midi": 30,
      "hit": false,
      "t": 69428.50200000042,
      "d": 142.8570000000036,
      "v": 110
    },
    {
      "midi": 36,
      "hit": false,
      "t": 69571.35899999928,
      "d": 139.88081250000687,
      "v": 92
    },
    {
      "midi": 28,
      "hit": false,
      "t": 69571.35899999928,
      "d": 139.88081250000687,
      "v": 45
    },
    {
      "midi": 30,
      "hit": false,
      "t": 69571.35900000042,
      "d": 142.8570000000036,
      "v": 110
    },
    {
      "midi": 36,
      "hit": false,
      "t": 69714.21599999929,
      "d": 139.88081250000687,
      "v": 92
    },
    {
      "midi": 28,
      "hit": false,
      "t": 69714.21599999929,
      "d": 139.88081250000687,
      "v": 45
    },
    {
      "midi": 30,
      "hit": false,
      "t": 69714.21600000042,
      "d": 142.8570000000036,
      "v": 110
    },
    {
      "midi": 36,
      "hit": false,
      "t": 69857.07299999929,
      "d": 139.88081250000687,
      "v": 92
    },
    {
      "midi": 28,
      "hit": false,
      "t": 69857.07299999929,
      "d": 139.88081250000687,
      "v": 45
    },
    {
      "midi": 40,
      "hit": false,
      "t": 69857.07299999974,
      "d": 380.9520000000048,
      "v": 127
    },
    {
      "midi": 53,
      "hit": false,
      "t": 69857.07299999974,
      "d": 380.9520000000048,
      "v": 127
    },
    {
      "midi": 86,
      "hit": false,
      "t": 69857.07300000003,
      "d": 428.5709999999963,
      "v": 110
    },
    {
      "midi": 86,
      "hit": false,
      "t": 69857.07300000003,
      "d": 428.5709999999963,
      "v": 127
    },
    {
      "midi": 30,
      "hit": false,
      "t": 69857.07300000043,
      "d": 142.8570000000036,
      "v": 110
    },
    {
      "midi": 36,
      "hit": false,
      "t": 69999.9299999993,
      "d": 139.88081250000687,
      "v": 92
    },
    {
      "midi": 28,
      "hit": false,
      "t": 69999.9299999993,
      "d": 139.88081250000687,
      "v": 45
    },
    {
      "midi": 30,
      "hit": false,
      "t": 69999.93000000043,
      "d": 142.8570000000036,
      "v": 110
    },
    {
      "midi": 36,
      "hit": false,
      "t": 70142.7869999993,
      "d": 139.88081250000687,
      "v": 92
    },
    {
      "midi": 28,
      "hit": false,
      "t": 70142.7869999993,
      "d": 139.88081250000687,
      "v": 45
    },
    {
      "midi": 30,
      "hit": false,
      "t": 70142.78700000043,
      "d": 142.8570000000036,
      "v": 110
    },
    {
      "midi": 36,
      "hit": false,
      "t": 70285.6439999993,
      "d": 139.88081250000687,
      "v": 92
    },
    {
      "midi": 28,
      "hit": false,
      "t": 70285.6439999993,
      "d": 139.88081250000687,
      "v": 45
    },
    {
      "midi": 53,
      "hit": false,
      "t": 70285.64399999975,
      "d": 380.9520000000048,
      "v": 127
    },
    {
      "midi": 43,
      "hit": false,
      "t": 70285.64399999987,
      "d": 857.1420000000071,
      "v": 127
    },
    {
      "midi": 50,
      "hit": false,
      "t": 70285.64399999987,
      "d": 857.1420000000071,
      "v": 127
    },
    {
      "midi": 55,
      "hit": false,
      "t": 70285.64399999987,
      "d": 857.1420000000071,
      "v": 127
    },
    {
      "midi": 43,
      "hit": false,
      "t": 70285.6439999999,
      "d": 1714.2839999999997,
      "v": 127
    },
    {
      "midi": 50,
      "hit": false,
      "t": 70285.6439999999,
      "d": 1714.2839999999997,
      "v": 127
    },
    {
      "midi": 55,
      "hit": false,
      "t": 70285.6439999999,
      "d": 1714.2839999999997,
      "v": 127
    },
    {
      "midi": 71,
      "hit": false,
      "t": 70285.64400000001,
      "d": 1642.8555000000051,
      "v": 92
    },
    {
      "midi": 74,
      "hit": false,
      "t": 70285.64400000001,
      "d": 1642.8555000000051,
      "v": 92
    },
    {
      "midi": 79,
      "hit": false,
      "t": 70285.64400000001,
      "d": 1642.8555000000051,
      "v": 92
    },
    {
      "midi": 71,
      "hit": false,
      "t": 70285.64400000003,
      "d": 1642.8555000000051,
      "v": 92
    },
    {
      "midi": 74,
      "hit": false,
      "t": 70285.64400000003,
      "d": 1642.8555000000051,
      "v": 92
    },
    {
      "midi": 79,
      "hit": false,
      "t": 70285.64400000003,
      "d": 1642.8555000000051,
      "v": 92
    },
    {
      "midi": 84,
      "hit": false,
      "t": 70285.64400000003,
      "d": 571.4279999999999,
      "v": 110
    },
    {
      "midi": 84,
      "hit": false,
      "t": 70285.64400000003,
      "d": 571.4279999999999,
      "v": 127
    },
    {
      "midi": 31,
      "hit": false,
      "t": 70285.64400000044,
      "d": 142.8570000000036,
      "v": 110
    },
    {
      "midi": 36,
      "hit": false,
      "t": 70428.5009999993,
      "d": 139.88081250000687,
      "v": 92
    },
    {
      "midi": 28,
      "hit": false,
      "t": 70428.5009999993,
      "d": 139.88081250000687,
      "v": 45
    },
    {
      "midi": 31,
      "hit": false,
      "t": 70428.50100000044,
      "d": 142.8570000000036,
      "v": 110
    },
    {
      "midi": 36,
      "hit": false,
      "t": 70571.35799999931,
      "d": 139.88081250000687,
      "v": 92
    },
    {
      "midi": 28,
      "hit": false,
      "t": 70571.35799999931,
      "d": 139.88081250000687,
      "v": 45
    },
    {
      "midi": 31,
      "hit": false,
      "t": 70571.35800000044,
      "d": 142.8570000000036,
      "v": 110
    },
    {
      "midi": 36,
      "hit": false,
      "t": 70714.21499999931,
      "d": 139.88081250000687,
      "v": 92
    },
    {
      "midi": 28,
      "hit": false,
      "t": 70714.21499999931,
      "d": 139.88081250000687,
      "v": 45
    },
    {
      "midi": 40,
      "hit": false,
      "t": 70714.21499999976,
      "d": 380.9520000000048,
      "v": 127
    },
    {
      "midi": 53,
      "hit": false,
      "t": 70714.21499999976,
      "d": 380.9520000000048,
      "v": 127
    },
    {
      "midi": 31,
      "hit": false,
      "t": 70714.21500000045,
      "d": 142.8570000000036,
      "v": 110
    },
    {
      "midi": 36,
      "hit": false,
      "t": 70857.07199999932,
      "d": 139.88081250000687,
      "v": 92
    },
    {
      "midi": 28,
      "hit": false,
      "t": 70857.07199999932,
      "d": 139.88081250000687,
      "v": 45
    },
    {
      "midi": 83,
      "hit": false,
      "t": 70857.07200000003,
      "d": 142.8570000000036,
      "v": 110
    },
    {
      "midi": 83,
      "hit": false,
      "t": 70857.07200000003,
      "d": 142.8570000000036,
      "v": 127
    },
    {
      "midi": 31,
      "hit": false,
      "t": 70857.07200000045,
      "d": 142.8570000000036,
      "v": 110
    },
    {
      "midi": 36,
      "hit": false,
      "t": 70999.92899999932,
      "d": 139.88081250000687,
      "v": 92
    },
    {
      "midi": 28,
      "hit": false,
      "t": 70999.92899999932,
      "d": 139.88081250000687,
      "v": 45
    },
    {
      "midi": 81,
      "hit": false,
      "t": 70999.92900000003,
      "d": 142.8570000000036,
      "v": 110
    },
    {
      "midi": 81,
      "hit": false,
      "t": 70999.92900000003,
      "d": 142.8570000000036,
      "v": 127
    },
    {
      "midi": 31,
      "hit": false,
      "t": 70999.92900000045,
      "d": 142.8570000000036,
      "v": 110
    },
    {
      "midi": 36,
      "hit": false,
      "t": 71142.78599999932,
      "d": 139.88081250000687,
      "v": 92
    },
    {
      "midi": 28,
      "hit": false,
      "t": 71142.78599999932,
      "d": 139.88081250000687,
      "v": 45
    },
    {
      "midi": 53,
      "hit": false,
      "t": 71142.78599999977,
      "d": 380.9520000000048,
      "v": 127
    },
    {
      "midi": 43,
      "hit": false,
      "t": 71142.78599999988,
      "d": 785.713499999998,
      "v": 108
    },
    {
      "midi": 50,
      "hit": false,
      "t": 71142.78599999988,
      "d": 785.713499999998,
      "v": 108
    },
    {
      "midi": 55,
      "hit": false,
      "t": 71142.78599999988,
      "d": 785.713499999998,
      "v": 108
    },
    {
      "midi": 83,
      "hit": false,
      "t": 71142.78600000004,
      "d": 785.713499999998,
      "v": 110
    },
    {
      "midi": 83,
      "hit": false,
      "t": 71142.78600000004,
      "d": 785.713499999998,
      "v": 127
    },
    {
      "midi": 31,
      "hit": false,
      "t": 71142.78600000046,
      "d": 142.8570000000036,
      "v": 110
    },
    {
      "midi": 36,
      "hit": false,
      "t": 71285.64299999933,
      "d": 139.88081250000687,
      "v": 92
    },
    {
      "midi": 28,
      "hit": false,
      "t": 71285.64299999933,
      "d": 139.88081250000687,
      "v": 45
    },
    {
      "midi": 31,
      "hit": false,
      "t": 71285.64300000046,
      "d": 142.8570000000036,
      "v": 110
    },
    {
      "midi": 36,
      "hit": false,
      "t": 71428.49999999933,
      "d": 139.88081250000687,
      "v": 92
    },
    {
      "midi": 28,
      "hit": false,
      "t": 71428.49999999933,
      "d": 139.88081250000687,
      "v": 45
    },
    {
      "midi": 31,
      "hit": false,
      "t": 71428.50000000047,
      "d": 142.8570000000036,
      "v": 110
    },
    {
      "midi": 36,
      "hit": false,
      "t": 71571.35699999933,
      "d": 139.88081250000687,
      "v": 92
    },
    {
      "midi": 28,
      "hit": false,
      "t": 71571.35699999933,
      "d": 139.88081250000687,
      "v": 45
    },
    {
      "midi": 40,
      "hit": false,
      "t": 71571.35699999979,
      "d": 380.9520000000048,
      "v": 127
    },
    {
      "midi": 53,
      "hit": false,
      "t": 71571.35699999979,
      "d": 380.9520000000048,
      "v": 127
    },
    {
      "midi": 31,
      "hit": false,
      "t": 71571.35700000047,
      "d": 142.8570000000036,
      "v": 110
    },
    {
      "midi": 36,
      "hit": false,
      "t": 71714.21399999934,
      "d": 139.88081250000687,
      "v": 92
    },
    {
      "midi": 28,
      "hit": false,
      "t": 71714.21399999934,
      "d": 139.88081250000687,
      "v": 45
    },
    {
      "midi": 31,
      "hit": false,
      "t": 71714.21400000047,
      "d": 142.8570000000036,
      "v": 110
    },
    {
      "midi": 36,
      "hit": false,
      "t": 71857.07099999934,
      "d": 139.88081250000687,
      "v": 92
    },
    {
      "midi": 28,
      "hit": false,
      "t": 71857.07099999934,
      "d": 139.88081250000687,
      "v": 45
    },
    {
      "midi": 31,
      "hit": false,
      "t": 71857.07100000048,
      "d": 142.8570000000036,
      "v": 110
    },
    {
      "midi": 36,
      "hit": false,
      "t": 71999.92799999935,
      "d": 139.88081250000687,
      "v": 92
    },
    {
      "midi": 28,
      "hit": false,
      "t": 71999.92799999935,
      "d": 139.88081250000687,
      "v": 45
    },
    {
      "midi": 57,
      "hit": false,
      "t": 71999.9279999998,
      "d": 380.9520000000048,
      "v": 127
    },
    {
      "midi": 48,
      "hit": false,
      "t": 71999.92799999987,
      "d": 857.1420000000071,
      "v": 127
    },
    {
      "midi": 55,
      "hit": false,
      "t": 71999.92799999987,
      "d": 857.1420000000071,
      "v": 127
    },
    {
      "midi": 60,
      "hit": false,
      "t": 71999.92799999987,
      "d": 857.1420000000071,
      "v": 127
    },
    {
      "midi": 48,
      "hit": false,
      "t": 71999.9279999999,
      "d": 857.1420000000071,
      "v": 127
    },
    {
      "midi": 55,
      "hit": false,
      "t": 71999.9279999999,
      "d": 857.1420000000071,
      "v": 127
    },
    {
      "midi": 60,
      "hit": false,
      "t": 71999.9279999999,
      "d": 857.1420000000071,
      "v": 127
    },
    {
      "midi": 76,
      "hit": false,
      "t": 71999.92800000001,
      "d": 857.1420000000071,
      "v": 92
    },
    {
      "midi": 79,
      "hit": false,
      "t": 71999.92800000001,
      "d": 857.1420000000071,
      "v": 92
    },
    {
      "midi": 84,
      "hit": false,
      "t": 71999.92800000001,
      "d": 857.1420000000071,
      "v": 92
    },
    {
      "midi": 76,
      "hit": false,
      "t": 71999.92800000003,
      "d": 857.1420000000071,
      "v": 92
    },
    {
      "midi": 79,
      "hit": false,
      "t": 71999.92800000003,
      "d": 857.1420000000071,
      "v": 92
    },
    {
      "midi": 84,
      "hit": false,
      "t": 71999.92800000003,
      "d": 857.1420000000071,
      "v": 92
    },
    {
      "midi": 88,
      "hit": false,
      "t": 71999.92800000003,
      "d": 285.7140000000072,
      "v": 110
    },
    {
      "midi": 88,
      "hit": false,
      "t": 71999.92800000003,
      "d": 285.7140000000072,
      "v": 127
    },
    {
      "midi": 36,
      "hit": false,
      "t": 71999.92800000048,
      "d": 142.8570000000036,
      "v": 110
    },
    {
      "midi": 36,
      "hit": false,
      "t": 72142.78499999935,
      "d": 139.88081250000687,
      "v": 92
    },
    {
      "midi": 28,
      "hit": false,
      "t": 72142.78499999935,
      "d": 139.88081250000687,
      "v": 45
    },
    {
      "midi": 36,
      "hit": false,
      "t": 72142.78500000048,
      "d": 142.8570000000036,
      "v": 110
    },
    {
      "midi": 36,
      "hit": false,
      "t": 72285.64199999935,
      "d": 139.88081250000687,
      "v": 92
    },
    {
      "midi": 28,
      "hit": false,
      "t": 72285.64199999935,
      "d": 139.88081250000687,
      "v": 45
    },
    {
      "midi": 86,
      "hit": false,
      "t": 72285.64200000004,
      "d": 285.7140000000072,
      "v": 110
    },
    {
      "midi": 86,
      "hit": false,
      "t": 72285.64200000004,
      "d": 285.7140000000072,
      "v": 127
    },
    {
      "midi": 36,
      "hit": false,
      "t": 72285.64200000049,
      "d": 142.8570000000036,
      "v": 110
    },
    {
      "midi": 36,
      "hit": false,
      "t": 72428.49899999936,
      "d": 139.88081250000687,
      "v": 92
    },
    {
      "midi": 28,
      "hit": false,
      "t": 72428.49899999936,
      "d": 139.88081250000687,
      "v": 45
    },
    {
      "midi": 40,
      "hit": false,
      "t": 72428.4989999998,
      "d": 380.9520000000048,
      "v": 127
    },
    {
      "midi": 53,
      "hit": false,
      "t": 72428.4989999998,
      "d": 380.9520000000048,
      "v": 127
    },
    {
      "midi": 36,
      "hit": false,
      "t": 72428.49900000049,
      "d": 142.8570000000036,
      "v": 110
    },
    {
      "midi": 36,
      "hit": false,
      "t": 72571.35599999936,
      "d": 139.88081250000687,
      "v": 92
    },
    {
      "midi": 28,
      "hit": false,
      "t": 72571.35599999936,
      "d": 139.88081250000687,
      "v": 45
    },
    {
      "midi": 84,
      "hit": false,
      "t": 72571.35600000004,
      "d": 285.7140000000072,
      "v": 110
    },
    {
      "midi": 84,
      "hit": false,
      "t": 72571.35600000004,
      "d": 285.7140000000072,
      "v": 127
    },
    {
      "midi": 36,
      "hit": false,
      "t": 72571.3560000005,
      "d": 142.8570000000036,
      "v": 110
    },
    {
      "midi": 36,
      "hit": false,
      "t": 72714.21299999936,
      "d": 139.88081250000687,
      "v": 92
    },
    {
      "midi": 28,
      "hit": false,
      "t": 72714.21299999936,
      "d": 139.88081250000687,
      "v": 45
    },
    {
      "midi": 36,
      "hit": false,
      "t": 72714.2130000005,
      "d": 142.8570000000036,
      "v": 110
    },
    {
      "midi": 36,
      "hit": false,
      "t": 72857.06999999937,
      "d": 139.88081250000687,
      "v": 92
    },
    {
      "midi": 28,
      "hit": false,
      "t": 72857.06999999937,
      "d": 139.88081250000687,
      "v": 45
    },
    {
      "midi": 57,
      "hit": false,
      "t": 72857.06999999982,
      "d": 380.9520000000048,
      "v": 127
    },
    {
      "midi": 50,
      "hit": false,
      "t": 72857.06999999988,
      "d": 857.1420000000071,
      "v": 127
    },
    {
      "midi": 57,
      "hit": false,
      "t": 72857.06999999988,
      "d": 857.1420000000071,
      "v": 127
    },
    {
      "midi": 62,
      "hit": false,
      "t": 72857.06999999988,
      "d": 857.1420000000071,
      "v": 127
    },
    {
      "midi": 50,
      "hit": false,
      "t": 72857.0699999999,
      "d": 857.1420000000071,
      "v": 127
    },
    {
      "midi": 57,
      "hit": false,
      "t": 72857.0699999999,
      "d": 857.1420000000071,
      "v": 127
    },
    {
      "midi": 62,
      "hit": false,
      "t": 72857.0699999999,
      "d": 857.1420000000071,
      "v": 127
    },
    {
      "midi": 78,
      "hit": false,
      "t": 72857.07000000002,
      "d": 857.1420000000071,
      "v": 92
    },
    {
      "midi": 81,
      "hit": false,
      "t": 72857.07000000002,
      "d": 857.1420000000071,
      "v": 92
    },
    {
      "midi": 86,
      "hit": false,
      "t": 72857.07000000002,
      "d": 857.1420000000071,
      "v": 92
    },
    {
      "midi": 78,
      "hit": false,
      "t": 72857.07000000004,
      "d": 857.1420000000071,
      "v": 92
    },
    {
      "midi": 81,
      "hit": false,
      "t": 72857.07000000004,
      "d": 857.1420000000071,
      "v": 92
    },
    {
      "midi": 86,
      "hit": false,
      "t": 72857.07000000004,
      "d": 857.1420000000071,
      "v": 92
    },
    {
      "midi": 83,
      "hit": false,
      "t": 72857.07000000005,
      "d": 285.7140000000072,
      "v": 110
    },
    {
      "midi": 83,
      "hit": false,
      "t": 72857.07000000005,
      "d": 285.7140000000072,
      "v": 127
    },
    {
      "midi": 38,
      "hit": false,
      "t": 72857.0700000005,
      "d": 142.8570000000036,
      "v": 110
    },
    {
      "midi": 36,
      "hit": false,
      "t": 72999.92699999937,
      "d": 139.88081250000687,
      "v": 92
    },
    {
      "midi": 28,
      "hit": false,
      "t": 72999.92699999937,
      "d": 139.88081250000687,
      "v": 45
    },
    {
      "midi": 38,
      "hit": false,
      "t": 72999.9270000005,
      "d": 142.8570000000036,
      "v": 110
    },
    {
      "midi": 36,
      "hit": false,
      "t": 73142.78399999937,
      "d": 139.88081250000687,
      "v": 92
    },
    {
      "midi": 28,
      "hit": false,
      "t": 73142.78399999937,
      "d": 139.88081250000687,
      "v": 45
    },
    {
      "midi": 81,
      "hit": false,
      "t": 73142.78400000006,
      "d": 285.7140000000072,
      "v": 110
    },
    {
      "midi": 81,
      "hit": false,
      "t": 73142.78400000006,
      "d": 285.7140000000072,
      "v": 127
    },
    {
      "midi": 38,
      "hit": false,
      "t": 73142.78400000051,
      "d": 142.8570000000036,
      "v": 110
    },
    {
      "midi": 36,
      "hit": false,
      "t": 73285.64099999938,
      "d": 139.88081250000687,
      "v": 92
    },
    {
      "midi": 28,
      "hit": false,
      "t": 73285.64099999938,
      "d": 139.88081250000687,
      "v": 45
    },
    {
      "midi": 40,
      "hit": false,
      "t": 73285.64099999983,
      "d": 139.88081250000687,
      "v": 127
    },
    {
      "midi": 53,
      "hit": false,
      "t": 73285.64099999983,
      "d": 139.88081250000687,
      "v": 127
    },
    {
      "midi": 38,
      "hit": false,
      "t": 73285.64100000051,
      "d": 142.8570000000036,
      "v": 110
    },
    {
      "midi": 36,
      "hit": false,
      "t": 73428.49799999938,
      "d": 139.88081250000687,
      "v": 92
    },
    {
      "midi": 28,
      "hit": false,
      "t": 73428.49799999938,
      "d": 139.88081250000687,
      "v": 45
    },
    {
      "midi": 40,
      "hit": false,
      "t": 73428.49799999983,
      "d": 238.09500000000116,
      "v": 127
    },
    {
      "midi": 79,
      "hit": false,
      "t": 73428.49800000007,
      "d": 285.7140000000072,
      "v": 110
    },
    {
      "midi": 79,
      "hit": false,
      "t": 73428.49800000007,
      "d": 285.7140000000072,
      "v": 127
    },
    {
      "midi": 38,
      "hit": false,
      "t": 73428.49800000052,
      "d": 142.8570000000036,
      "v": 110
    },
    {
      "midi": 36,
      "hit": false,
      "t": 73571.35499999938,
      "d": 139.88081250000687,
      "v": 92
    },
    {
      "midi": 28,
      "hit": false,
      "t": 73571.35499999938,
      "d": 139.88081250000687,
      "v": 45
    },
    {
      "midi": 38,
      "hit": false,
      "t": 73571.35500000052,
      "d": 142.8570000000036,
      "v": 110
    },
    {
      "midi": 36,
      "hit": false,
      "t": 73714.21199999939,
      "d": 238.09500000000116,
      "v": 92
    },
    {
      "midi": 28,
      "hit": false,
      "t": 73714.21199999939,
      "d": 238.09500000000116,
      "v": 45
    },
    {
      "midi": 40,
      "hit": false,
      "t": 73714.21199999984,
      "d": 238.09500000000116,
      "v": 127
    },
    {
      "midi": 52,
      "hit": false,
      "t": 73714.21199999988,
      "d": 238.09500000000116,
      "v": 127
    },
    {
      "midi": 59,
      "hit": false,
      "t": 73714.21199999988,
      "d": 238.09500000000116,
      "v": 127
    },
    {
      "midi": 64,
      "hit": false,
      "t": 73714.21199999988,
      "d": 238.09500000000116,
      "v": 127
    },
    {
      "midi": 52,
      "hit": false,
      "t": 73714.21199999991,
      "d": 238.09500000000116,
      "v": 127
    },
    {
      "midi": 59,
      "hit": false,
      "t": 73714.21199999991,
      "d": 238.09500000000116,
      "v": 127
    },
    {
      "midi": 64,
      "hit": false,
      "t": 73714.21199999991,
      "d": 238.09500000000116,
      "v": 127
    },
    {
      "midi": 79,
      "hit": false,
      "t": 73714.21200000003,
      "d": 238.09500000000116,
      "v": 108
    },
    {
      "midi": 83,
      "hit": false,
      "t": 73714.21200000003,
      "d": 238.09500000000116,
      "v": 108
    },
    {
      "midi": 88,
      "hit": false,
      "t": 73714.21200000003,
      "d": 238.09500000000116,
      "v": 108
    },
    {
      "midi": 79,
      "hit": false,
      "t": 73714.21200000004,
      "d": 238.09500000000116,
      "v": 108
    },
    {
      "midi": 83,
      "hit": false,
      "t": 73714.21200000004,
      "d": 238.09500000000116,
      "v": 108
    },
    {
      "midi": 88,
      "hit": false,
      "t": 73714.21200000004,
      "d": 238.09500000000116,
      "v": 108
    },
    {
      "midi": 76,
      "hit": false,
      "t": 73714.21200000007,
      "d": 1238.0939999999973,
      "v": 110
    },
    {
      "midi": 76,
      "hit": false,
      "t": 73714.21200000007,
      "d": 1238.0939999999973,
      "v": 127
    },
    {
      "midi": 40,
      "hit": false,
      "t": 73714.21200000052,
      "d": 238.09500000000116,
      "v": 110
    },
    {
      "midi": 36,
      "hit": false,
      "t": 73999.9259999994,
      "d": 238.09500000000116,
      "v": 92
    },
    {
      "midi": 28,
      "hit": false,
      "t": 73999.9259999994,
      "d": 238.09500000000116,
      "v": 45
    },
    {
      "midi": 40,
      "hit": false,
      "t": 73999.92599999985,
      "d": 238.09500000000116,
      "v": 127
    },
    {
      "midi": 52,
      "hit": false,
      "t": 73999.92599999989,
      "d": 238.09500000000116,
      "v": 127
    },
    {
      "midi": 59,
      "hit": false,
      "t": 73999.92599999989,
      "d": 238.09500000000116,
      "v": 127
    },
    {
      "midi": 64,
      "hit": false,
      "t": 73999.92599999989,
      "d": 238.09500000000116,
      "v": 127
    },
    {
      "midi": 52,
      "hit": false,
      "t": 73999.92599999992,
      "d": 238.09500000000116,
      "v": 127
    },
    {
      "midi": 59,
      "hit": false,
      "t": 73999.92599999992,
      "d": 238.09500000000116,
      "v": 127
    },
    {
      "midi": 64,
      "hit": false,
      "t": 73999.92599999992,
      "d": 238.09500000000116,
      "v": 127
    },
    {
      "midi": 79,
      "hit": false,
      "t": 73999.92600000004,
      "d": 238.09500000000116,
      "v": 108
    },
    {
      "midi": 83,
      "hit": false,
      "t": 73999.92600000004,
      "d": 238.09500000000116,
      "v": 108
    },
    {
      "midi": 88,
      "hit": false,
      "t": 73999.92600000004,
      "d": 238.09500000000116,
      "v": 108
    },
    {
      "midi": 79,
      "hit": false,
      "t": 73999.92600000005,
      "d": 238.09500000000116,
      "v": 108
    },
    {
      "midi": 83,
      "hit": false,
      "t": 73999.92600000005,
      "d": 238.09500000000116,
      "v": 108
    },
    {
      "midi": 88,
      "hit": false,
      "t": 73999.92600000005,
      "d": 238.09500000000116,
      "v": 108
    },
    {
      "midi": 40,
      "hit": false,
      "t": 73999.92600000053,
      "d": 238.09500000000116,
      "v": 110
    },
    {
      "midi": 36,
      "hit": false,
      "t": 74285.6399999994,
      "d": 238.09500000000116,
      "v": 92
    },
    {
      "midi": 28,
      "hit": false,
      "t": 74285.6399999994,
      "d": 238.09500000000116,
      "v": 45
    },
    {
      "midi": 40,
      "hit": false,
      "t": 74285.63999999985,
      "d": 238.09500000000116,
      "v": 127
    },
    {
      "midi": 52,
      "hit": false,
      "t": 74285.6399999999,
      "d": 238.09500000000116,
      "v": 127
    },
    {
      "midi": 59,
      "hit": false,
      "t": 74285.6399999999,
      "d": 238.09500000000116,
      "v": 127
    },
    {
      "midi": 64,
      "hit": false,
      "t": 74285.6399999999,
      "d": 238.09500000000116,
      "v": 127
    },
    {
      "midi": 52,
      "hit": false,
      "t": 74285.63999999993,
      "d": 238.09500000000116,
      "v": 127
    },
    {
      "midi": 59,
      "hit": false,
      "t": 74285.63999999993,
      "d": 238.09500000000116,
      "v": 127
    },
    {
      "midi": 64,
      "hit": false,
      "t": 74285.63999999993,
      "d": 238.09500000000116,
      "v": 127
    },
    {
      "midi": 79,
      "hit": false,
      "t": 74285.64000000004,
      "d": 238.09500000000116,
      "v": 108
    },
    {
      "midi": 83,
      "hit": false,
      "t": 74285.64000000004,
      "d": 238.09500000000116,
      "v": 108
    },
    {
      "midi": 88,
      "hit": false,
      "t": 74285.64000000004,
      "d": 238.09500000000116,
      "v": 108
    },
    {
      "midi": 79,
      "hit": false,
      "t": 74285.64000000006,
      "d": 238.09500000000116,
      "v": 108
    },
    {
      "midi": 83,
      "hit": false,
      "t": 74285.64000000006,
      "d": 238.09500000000116,
      "v": 108
    },
    {
      "midi": 88,
      "hit": false,
      "t": 74285.64000000006,
      "d": 238.09500000000116,
      "v": 108
    },
    {
      "midi": 40,
      "hit": false,
      "t": 74285.64000000054,
      "d": 238.09500000000116,
      "v": 110
    },
    {
      "midi": 36,
      "hit": false,
      "t": 74571.35399999941,
      "d": 380.9520000000048,
      "v": 92
    },
    {
      "midi": 28,
      "hit": false,
      "t": 74571.35399999941,
      "d": 380.9520000000048,
      "v": 45
    },
    {
      "midi": 40,
      "hit": false,
      "t": 74571.35399999986,
      "d": 380.9520000000048,
      "v": 127
    },
    {
      "midi": 52,
      "hit": false,
      "t": 74571.3539999999,
      "d": 380.9520000000048,
      "v": 127
    },
    {
      "midi": 59,
      "hit": false,
      "t": 74571.3539999999,
      "d": 380.9520000000048,
      "v": 127
    },
    {
      "midi": 64,
      "hit": false,
      "t": 74571.3539999999,
      "d": 380.9520000000048,
      "v": 127
    },
    {
      "midi": 52,
      "hit": false,
      "t": 74571.35399999993,
      "d": 380.9520000000048,
      "v": 127
    },
    {
      "midi": 59,
      "hit": false,
      "t": 74571.35399999993,
      "d": 380.9520000000048,
      "v": 127
    },
    {
      "midi": 64,
      "hit": false,
      "t": 74571.35399999993,
      "d": 380.9520000000048,
      "v": 127
    },
    {
      "midi": 79,
      "hit": false,
      "t": 74571.35400000005,
      "d": 380.9520000000048,
      "v": 108
    },
    {
      "midi": 83,
      "hit": false,
      "t": 74571.35400000005,
      "d": 380.9520000000048,
      "v": 108
    },
    {
      "midi": 88,
      "hit": false,
      "t": 74571.35400000005,
      "d": 380.9520000000048,
      "v": 108
    },
    {
      "midi": 79,
      "hit": false,
      "t": 74571.35400000006,
      "d": 380.9520000000048,
      "v": 108
    },
    {
      "midi": 83,
      "hit": false,
      "t": 74571.35400000006,
      "d": 380.9520000000048,
      "v": 108
    },
    {
      "midi": 88,
      "hit": false,
      "t": 74571.35400000006,
      "d": 380.9520000000048,
      "v": 108
    },
    {
      "midi": 40,
      "hit": false,
      "t": 74571.35400000055,
      "d": 428.5709999999963,
      "v": 110
    },
    {
      "midi": 36,
      "hit": false,
      "t": 74999.92499999942,
      "d": 380.9520000000048,
      "v": 92
    },
    {
      "midi": 28,
      "hit": false,
      "t": 74999.92499999942,
      "d": 380.9520000000048,
      "v": 45
    },
    {
      "midi": 41,
      "hit": false,
      "t": 74999.92499999987,
      "d": 380.9520000000048,
      "v": 127
    },
    {
      "midi": 45,
      "hit": false,
      "t": 74999.92499999987,
      "d": 380.9520000000048,
      "v": 127
    },
    {
      "midi": 36,
      "hit": false,
      "t": 75428.49599999943,
      "d": 139.88081250000687,
      "v": 92
    },
    {
      "midi": 28,
      "hit": false,
      "t": 75428.49599999943,
      "d": 139.88081250000687,
      "v": 45
    },
    {
      "midi": 40,
      "hit": false,
      "t": 75428.49599999966,
      "d": 139.88081250000687,
      "v": 92
    },
    {
      "midi": 57,
      "hit": false,
      "t": 75428.49599999988,
      "d": 380.9520000000048,
      "v": 127
    },
    {
      "midi": 40,
      "hit": false,
      "t": 75428.49599999991,
      "d": 139.88081250000687,
      "v": 108
    },
    {
      "midi": 40,
      "hit": false,
      "t": 75428.49599999994,
      "d": 139.88081250000687,
      "v": 108
    },
    {
      "midi": 28,
      "hit": false,
      "t": 75428.49600000054,
      "d": 139.88081250000687,
      "v": 110
    },
    {
      "midi": 36,
      "hit": false,
      "t": 75571.35299999944,
      "d": 139.88081250000687,
      "v": 92
    },
    {
      "midi": 28,
      "hit": false,
      "t": 75571.35299999944,
      "d": 139.88081250000687,
      "v": 45
    },
    {
      "midi": 40,
      "hit": false,
      "t": 75571.35299999967,
      "d": 139.88081250000687,
      "v": 92
    },
    {
      "midi": 40,
      "hit": false,
      "t": 75571.35299999992,
      "d": 139.88081250000687,
      "v": 108
    },
    {
      "midi": 40,
      "hit": false,
      "t": 75571.35299999994,
      "d": 139.88081250000687,
      "v": 108
    },
    {
      "midi": 28,
      "hit": false,
      "t": 75571.35300000054,
      "d": 139.88081250000687,
      "v": 110
    },
    {
      "midi": 36,
      "hit": false,
      "t": 75714.20999999944,
      "d": 139.88081250000687,
      "v": 92
    },
    {
      "midi": 28,
      "hit": false,
      "t": 75714.20999999944,
      "d": 139.88081250000687,
      "v": 45
    },
    {
      "midi": 40,
      "hit": false,
      "t": 75714.20999999967,
      "d": 139.88081250000687,
      "v": 92
    },
    {
      "midi": 40,
      "hit": false,
      "t": 75714.20999999992,
      "d": 139.88081250000687,
      "v": 108
    },
    {
      "midi": 40,
      "hit": false,
      "t": 75714.20999999995,
      "d": 139.88081250000687,
      "v": 108
    },
    {
      "midi": 28,
      "hit": false,
      "t": 75714.21000000054,
      "d": 139.88081250000687,
      "v": 110
    },
    {
      "midi": 36,
      "hit": false,
      "t": 75857.06699999944,
      "d": 139.88081250000687,
      "v": 92
    },
    {
      "midi": 28,
      "hit": false,
      "t": 75857.06699999944,
      "d": 139.88081250000687,
      "v": 45
    },
    {
      "midi": 42,
      "hit": false,
      "t": 75857.06699999968,
      "d": 139.88081250000687,
      "v": 92
    },
    {
      "midi": 40,
      "hit": false,
      "t": 75857.0669999999,
      "d": 380.9520000000048,
      "v": 127
    },
    {
      "midi": 46,
      "hit": false,
      "t": 75857.0669999999,
      "d": 380.9520000000048,
      "v": 127
    },
    {
      "midi": 42,
      "hit": false,
      "t": 75857.06699999992,
      "d": 139.88081250000687,
      "v": 108
    },
    {
      "midi": 42,
      "hit": false,
      "t": 75857.06699999995,
      "d": 139.88081250000687,
      "v": 108
    },
    {
      "midi": 30,
      "hit": false,
      "t": 75857.06700000055,
      "d": 139.88081250000687,
      "v": 110
    },
    {
      "midi": 36,
      "hit": false,
      "t": 75999.92399999945,
      "d": 139.88081250000687,
      "v": 92
    },
    {
      "midi": 28,
      "hit": false,
      "t": 75999.92399999945,
      "d": 139.88081250000687,
      "v": 45
    },
    {
      "midi": 40,
      "hit": false,
      "t": 75999.92399999968,
      "d": 139.88081250000687,
      "v": 92
    },
    {
      "midi": 40,
      "hit": false,
      "t": 75999.92399999993,
      "d": 139.88081250000687,
      "v": 108
    },
    {
      "midi": 40,
      "hit": false,
      "t": 75999.92399999996,
      "d": 139.88081250000687,
      "v": 108
    },
    {
      "midi": 28,
      "hit": false,
      "t": 75999.92400000055,
      "d": 139.88081250000687,
      "v": 110
    },
    {
      "midi": 36,
      "hit": false,
      "t": 76142.78099999945,
      "d": 139.88081250000687,
      "v": 92
    },
    {
      "midi": 28,
      "hit": false,
      "t": 76142.78099999945,
      "d": 139.88081250000687,
      "v": 45
    },
    {
      "midi": 40,
      "hit": false,
      "t": 76142.78099999968,
      "d": 139.88081250000687,
      "v": 92
    },
    {
      "midi": 40,
      "hit": false,
      "t": 76142.78099999993,
      "d": 139.88081250000687,
      "v": 108
    },
    {
      "midi": 40,
      "hit": false,
      "t": 76142.78099999996,
      "d": 139.88081250000687,
      "v": 108
    },
    {
      "midi": 28,
      "hit": false,
      "t": 76142.78100000056,
      "d": 139.88081250000687,
      "v": 110
    },
    {
      "midi": 36,
      "hit": false,
      "t": 76285.63799999945,
      "d": 139.88081250000687,
      "v": 92
    },
    {
      "midi": 28,
      "hit": false,
      "t": 76285.63799999945,
      "d": 139.88081250000687,
      "v": 45
    },
    {
      "midi": 45,
      "hit": false,
      "t": 76285.63799999969,
      "d": 32.73806249999325,
      "v": 92
    },
    {
      "midi": 46,
      "hit": false,
      "t": 76285.6379999999,
      "d": 380.9520000000048,
      "v": 127
    },
    {
      "midi": 45,
      "hit": false,
      "t": 76285.63799999993,
      "d": 32.73806249999325,
      "v": 108
    },
    {
      "midi": 45,
      "hit": false,
      "t": 76285.63799999996,
      "d": 32.73806249999325,
      "v": 108
    },
    {
      "midi": 35,
      "hit": false,
      "t": 76285.63800000056,
      "d": 139.88081250000687,
      "v": 110
    },
    {
      "midi": 47,
      "hit": false,
      "t": 76321.35224999968,
      "d": 104.16656250000233,
      "v": 92
    },
    {
      "midi": 47,
      "hit": false,
      "t": 76321.35224999992,
      "d": 104.16656250000233,
      "v": 108
    },
    {
      "midi": 47,
      "hit": false,
      "t": 76321.35224999995,
      "d": 104.16656250000233,
      "v": 108
    },
    {
      "midi": 36,
      "hit": false,
      "t": 76428.49499999946,
      "d": 139.88081250000687,
      "v": 92
    },
    {
      "midi": 28,
      "hit": false,
      "t": 76428.49499999946,
      "d": 139.88081250000687,
      "v": 45
    },
    {
      "midi": 45,
      "hit": false,
      "t": 76428.49499999968,
      "d": 139.88081250000687,
      "v": 92
    },
    {
      "midi": 45,
      "hit": false,
      "t": 76428.49499999992,
      "d": 139.88081250000687,
      "v": 108
    },
    {
      "midi": 45,
      "hit": false,
      "t": 76428.49499999995,
      "d": 139.88081250000687,
      "v": 108
    },
    {
      "midi": 33,
      "hit": false,
      "t": 76428.49500000056,
      "d": 139.88081250000687,
      "v": 110
    },
    {
      "midi": 36,
      "hit": false,
      "t": 76571.35199999946,
      "d": 139.88081250000687,
      "v": 92
    },
    {
      "midi": 28,
      "hit": false,
      "t": 76571.35199999946,
      "d": 139.88081250000687,
      "v": 45
    },
    {
      "midi": 43,
      "hit": false,
      "t": 76571.35199999968,
      "d": 139.88081250000687,
      "v": 92
    },
    {
      "midi": 43,
      "hit": false,
      "t": 76571.35199999993,
      "d": 139.88081250000687,
      "v": 108
    },
    {
      "midi": 43,
      "hit": false,
      "t": 76571.35199999996,
      "d": 139.88081250000687,
      "v": 108
    },
    {
      "midi": 31,
      "hit": false,
      "t": 76571.35200000057,
      "d": 139.88081250000687,
      "v": 110
    },
    {
      "midi": 36,
      "hit": false,
      "t": 76714.20899999946,
      "d": 139.88081250000687,
      "v": 92
    },
    {
      "midi": 28,
      "hit": false,
      "t": 76714.20899999946,
      "d": 139.88081250000687,
      "v": 45
    },
    {
      "midi": 45,
      "hit": false,
      "t": 76714.20899999968,
      "d": 139.88081250000687,
      "v": 92
    },
    {
      "midi": 40,
      "hit": false,
      "t": 76714.20899999992,
      "d": 380.9520000000048,
      "v": 127
    },
    {
      "midi": 46,
      "hit": false,
      "t": 76714.20899999992,
      "d": 380.9520000000048,
      "v": 127
    },
    {
      "midi": 45,
      "hit": false,
      "t": 76714.20899999993,
      "d": 139.88081250000687,
      "v": 108
    },
    {
      "midi": 45,
      "hit": false,
      "t": 76714.20899999996,
      "d": 139.88081250000687,
      "v": 108
    },
    {
      "midi": 33,
      "hit": false,
      "t": 76714.20900000057,
      "d": 139.88081250000687,
      "v": 110
    },
    {
      "midi": 36,
      "hit": false,
      "t": 76857.06599999947,
      "d": 139.88081250000687,
      "v": 92
    },
    {
      "midi": 28,
      "hit": false,
      "t": 76857.06599999947,
      "d": 139.88081250000687,
      "v": 45
    },
    {
      "midi": 43,
      "hit": false,
      "t": 76857.06599999969,
      "d": 139.88081250000687,
      "v": 92
    },
    {
      "midi": 43,
      "hit": false,
      "t": 76857.06599999993,
      "d": 139.88081250000687,
      "v": 108
    },
    {
      "midi": 43,
      "hit": false,
      "t": 76857.06599999996,
      "d": 139.88081250000687,
      "v": 108
    },
    {
      "midi": 31,
      "hit": false,
      "t": 76857.06600000057,
      "d": 139.88081250000687,
      "v": 110
    },
    {
      "midi": 36,
      "hit": false,
      "t": 76999.92299999947,
      "d": 139.88081250000687,
      "v": 92
    },
    {
      "midi": 28,
      "hit": false,
      "t": 76999.92299999947,
      "d": 139.88081250000687,
      "v": 45
    },
    {
      "midi": 42,
      "hit": false,
      "t": 76999.92299999969,
      "d": 139.88081250000687,
      "v": 92
    },
    {
      "midi": 42,
      "hit": false,
      "t": 76999.92299999994,
      "d": 139.88081250000687,
      "v": 108
    },
    {
      "midi": 42,
      "hit": false,
      "t": 76999.92299999997,
      "d": 139.88081250000687,
      "v": 108
    },
    {
      "midi": 30,
      "hit": false,
      "t": 76999.92300000058,
      "d": 139.88081250000687,
      "v": 110
    },
    {
      "midi": 36,
      "hit": false,
      "t": 77142.77999999947,
      "d": 139.88081250000687,
      "v": 92
    },
    {
      "midi": 28,
      "hit": false,
      "t": 77142.77999999947,
      "d": 139.88081250000687,
      "v": 45
    },
    {
      "midi": 40,
      "hit": false,
      "t": 77142.7799999997,
      "d": 139.88081250000687,
      "v": 92
    },
    {
      "midi": 46,
      "hit": false,
      "t": 77142.77999999993,
      "d": 380.9520000000048,
      "v": 127
    },
    {
      "midi": 40,
      "hit": false,
      "t": 77142.77999999994,
      "d": 139.88081250000687,
      "v": 108
    },
    {
      "midi": 40,
      "hit": false,
      "t": 77142.77999999997,
      "d": 139.88081250000687,
      "v": 108
    },
    {
      "midi": 28,
      "hit": false,
      "t": 77142.78000000058,
      "d": 139.88081250000687,
      "v": 110
    },
    {
      "midi": 36,
      "hit": false,
      "t": 77285.63699999948,
      "d": 139.88081250000687,
      "v": 92
    },
    {
      "midi": 28,
      "hit": false,
      "t": 77285.63699999948,
      "d": 139.88081250000687,
      "v": 45
    },
    {
      "midi": 40,
      "hit": false,
      "t": 77285.6369999997,
      "d": 139.88081250000687,
      "v": 92
    },
    {
      "midi": 40,
      "hit": false,
      "t": 77285.63699999994,
      "d": 139.88081250000687,
      "v": 108
    },
    {
      "midi": 40,
      "hit": false,
      "t": 77285.63699999997,
      "d": 139.88081250000687,
      "v": 108
    },
    {
      "midi": 28,
      "hit": false,
      "t": 77285.63700000058,
      "d": 139.88081250000687,
      "v": 110
    },
    {
      "midi": 36,
      "hit": false,
      "t": 77428.49399999948,
      "d": 139.88081250000687,
      "v": 92
    },
    {
      "midi": 28,
      "hit": false,
      "t": 77428.49399999948,
      "d": 139.88081250000687,
      "v": 45
    },
    {
      "midi": 40,
      "hit": false,
      "t": 77428.4939999997,
      "d": 139.88081250000687,
      "v": 92
    },
    {
      "midi": 40,
      "hit": false,
      "t": 77428.49399999995,
      "d": 139.88081250000687,
      "v": 108
    },
    {
      "midi": 40,
      "hit": false,
      "t": 77428.49399999998,
      "d": 139.88081250000687,
      "v": 108
    },
    {
      "midi": 28,
      "hit": false,
      "t": 77428.49400000059,
      "d": 139.88081250000687,
      "v": 110
    },
    {
      "midi": 36,
      "hit": false,
      "t": 77571.35099999949,
      "d": 139.88081250000687,
      "v": 92
    },
    {
      "midi": 28,
      "hit": false,
      "t": 77571.35099999949,
      "d": 139.88081250000687,
      "v": 45
    },
    {
      "midi": 42,
      "hit": false,
      "t": 77571.3509999997,
      "d": 139.88081250000687,
      "v": 92
    },
    {
      "midi": 40,
      "hit": false,
      "t": 77571.35099999994,
      "d": 380.9520000000048,
      "v": 127
    },
    {
      "midi": 46,
      "hit": false,
      "t": 77571.35099999994,
      "d": 380.9520000000048,
      "v": 127
    },
    {
      "midi": 42,
      "hit": false,
      "t": 77571.35099999995,
      "d": 139.88081250000687,
      "v": 108
    },
    {
      "midi": 42,
      "hit": false,
      "t": 77571.35099999998,
      "d": 139.88081250000687,
      "v": 108
    },
    {
      "midi": 30,
      "hit": false,
      "t": 77571.35100000059,
      "d": 139.88081250000687,
      "v": 110
    },
    {
      "midi": 36,
      "hit": false,
      "t": 77714.20799999949,
      "d": 139.88081250000687,
      "v": 92
    },
    {
      "midi": 28,
      "hit": false,
      "t": 77714.20799999949,
      "d": 139.88081250000687,
      "v": 45
    },
    {
      "midi": 40,
      "hit": false,
      "t": 77714.20799999971,
      "d": 139.88081250000687,
      "v": 92
    },
    {
      "midi": 40,
      "hit": false,
      "t": 77714.20799999996,
      "d": 139.88081250000687,
      "v": 108
    },
    {
      "midi": 40,
      "hit": false,
      "t": 77714.20799999998,
      "d": 139.88081250000687,
      "v": 108
    },
    {
      "midi": 28,
      "hit": false,
      "t": 77714.2080000006,
      "d": 139.88081250000687,
      "v": 110
    },
    {
      "midi": 36,
      "hit": false,
      "t": 77857.0649999995,
      "d": 139.88081250000687,
      "v": 92
    },
    {
      "midi": 28,
      "hit": false,
      "t": 77857.0649999995,
      "d": 139.88081250000687,
      "v": 45
    },
    {
      "midi": 40,
      "hit": false,
      "t": 77857.06499999971,
      "d": 139.88081250000687,
      "v": 92
    },
    {
      "midi": 40,
      "hit": false,
      "t": 77857.06499999996,
      "d": 139.88081250000687,
      "v": 108
    },
    {
      "midi": 40,
      "hit": false,
      "t": 77857.06499999999,
      "d": 139.88081250000687,
      "v": 108
    },
    {
      "midi": 28,
      "hit": false,
      "t": 77857.0650000006,
      "d": 139.88081250000687,
      "v": 110
    },
    {
      "midi": 36,
      "hit": false,
      "t": 77999.9219999995,
      "d": 139.88081250000687,
      "v": 92
    },
    {
      "midi": 28,
      "hit": false,
      "t": 77999.9219999995,
      "d": 139.88081250000687,
      "v": 45
    },
    {
      "midi": 57,
      "hit": false,
      "t": 77999.92199999995,
      "d": 380.9520000000048,
      "v": 127
    },
    {
      "midi": 50,
      "hit": false,
      "t": 77999.92199999996,
      "d": 428.5709999999963,
      "v": 108
    },
    {
      "midi": 57,
      "hit": false,
      "t": 77999.92199999996,
      "d": 428.5709999999963,
      "v": 108
    },
    {
      "midi": 62,
      "hit": false,
      "t": 77999.92199999996,
      "d": 428.5709999999963,
      "v": 108
    },
    {
      "midi": 50,
      "hit": false,
      "t": 77999.92199999999,
      "d": 428.5709999999963,
      "v": 108
    },
    {
      "midi": 57,
      "hit": false,
      "t": 77999.92199999999,
      "d": 428.5709999999963,
      "v": 108
    },
    {
      "midi": 62,
      "hit": false,
      "t": 77999.92199999999,
      "d": 428.5709999999963,
      "v": 108
    },
    {
      "midi": 78,
      "hit": false,
      "t": 77999.92200000005,
      "d": 380.9520000000048,
      "v": 108
    },
    {
      "midi": 81,
      "hit": false,
      "t": 77999.92200000005,
      "d": 380.9520000000048,
      "v": 108
    },
    {
      "midi": 86,
      "hit": false,
      "t": 77999.92200000005,
      "d": 380.9520000000048,
      "v": 108
    },
    {
      "midi": 78,
      "hit": false,
      "t": 77999.92200000006,
      "d": 380.9520000000048,
      "v": 108
    },
    {
      "midi": 81,
      "hit": false,
      "t": 77999.92200000006,
      "d": 380.9520000000048,
      "v": 108
    },
    {
      "midi": 86,
      "hit": false,
      "t": 77999.92200000006,
      "d": 380.9520000000048,
      "v": 108
    },
    {
      "midi": 38,
      "hit": false,
      "t": 77999.9220000006,
      "d": 380.9520000000048,
      "v": 110
    },
    {
      "midi": 36,
      "hit": false,
      "t": 78142.7789999995,
      "d": 139.88081250000687,
      "v": 92
    },
    {
      "midi": 28,
      "hit": false,
      "t": 78142.7789999995,
      "d": 139.88081250000687,
      "v": 45
    },
    {
      "midi": 36,
      "hit": false,
      "t": 78285.6359999995,
      "d": 139.88081250000687,
      "v": 92
    },
    {
      "midi": 28,
      "hit": false,
      "t": 78285.6359999995,
      "d": 139.88081250000687,
      "v": 45
    },
    {
      "midi": 36,
      "hit": false,
      "t": 78428.49299999951,
      "d": 139.88081250000687,
      "v": 92
    },
    {
      "midi": 28,
      "hit": false,
      "t": 78428.49299999951,
      "d": 139.88081250000687,
      "v": 45
    },
    {
      "midi": 45,
      "hit": false,
      "t": 78428.49299999996,
      "d": 380.9520000000048,
      "v": 108
    },
    {
      "midi": 52,
      "hit": false,
      "t": 78428.49299999996,
      "d": 380.9520000000048,
      "v": 108
    },
    {
      "midi": 57,
      "hit": false,
      "t": 78428.49299999996,
      "d": 380.9520000000048,
      "v": 108
    },
    {
      "midi": 40,
      "hit": false,
      "t": 78428.49299999996,
      "d": 380.9520000000048,
      "v": 127
    },
    {
      "midi": 49,
      "hit": false,
      "t": 78428.49299999996,
      "d": 380.9520000000048,
      "v": 127
    },
    {
      "midi": 45,
      "hit": false,
      "t": 78428.49299999999,
      "d": 380.9520000000048,
      "v": 108
    },
    {
      "midi": 52,
      "hit": false,
      "t": 78428.49299999999,
      "d": 380.9520000000048,
      "v": 108
    },
    {
      "midi": 57,
      "hit": false,
      "t": 78428.49299999999,
      "d": 380.9520000000048,
      "v": 108
    },
    {
      "midi": 73,
      "hit": false,
      "t": 78428.49300000006,
      "d": 380.9520000000048,
      "v": 108
    },
    {
      "midi": 76,
      "hit": false,
      "t": 78428.49300000006,
      "d": 380.9520000000048,
      "v": 108
    },
    {
      "midi": 81,
      "hit": false,
      "t": 78428.49300000006,
      "d": 380.9520000000048,
      "v": 108
    },
    {
      "midi": 73,
      "hit": false,
      "t": 78428.49300000007,
      "d": 380.9520000000048,
      "v": 108
    },
    {
      "midi": 76,
      "hit": false,
      "t": 78428.49300000007,
      "d": 380.9520000000048,
      "v": 108
    },
    {
      "midi": 81,
      "hit": false,
      "t": 78428.49300000007,
      "d": 380.9520000000048,
      "v": 108
    },
    {
      "midi": 33,
      "hit": false,
      "t": 78428.49300000061,
      "d": 380.9520000000048,
      "v": 110
    },
    {
      "midi": 36,
      "hit": false,
      "t": 78571.34999999951,
      "d": 139.88081250000687,
      "v": 92
    },
    {
      "midi": 28,
      "hit": false,
      "t": 78571.34999999951,
      "d": 139.88081250000687,
      "v": 45
    },
    {
      "midi": 36,
      "hit": false,
      "t": 78714.20699999951,
      "d": 139.88081250000687,
      "v": 92
    },
    {
      "midi": 28,
      "hit": false,
      "t": 78714.20699999951,
      "d": 139.88081250000687,
      "v": 45
    },
    {
      "midi": 36,
      "hit": false,
      "t": 78857.06399999952,
      "d": 139.88081250000687,
      "v": 92
    },
    {
      "midi": 28,
      "hit": false,
      "t": 78857.06399999952,
      "d": 139.88081250000687,
      "v": 45
    },
    {
      "midi": 40,
      "hit": false,
      "t": 78857.06399999972,
      "d": 139.88081250000687,
      "v": 92
    },
    {
      "midi": 40,
      "hit": false,
      "t": 78857.06399999997,
      "d": 139.88081250000687,
      "v": 108
    },
    {
      "midi": 57,
      "hit": false,
      "t": 78857.06399999997,
      "d": 380.9520000000048,
      "v": 127
    },
    {
      "midi": 40,
      "hit": false,
      "t": 78857.064,
      "d": 139.88081250000687,
      "v": 108
    },
    {
      "midi": 28,
      "hit": false,
      "t": 78857.06400000062,
      "d": 139.88081250000687,
      "v": 110
    },
    {
      "midi": 36,
      "hit": false,
      "t": 78999.92099999952,
      "d": 139.88081250000687,
      "v": 92
    },
    {
      "midi": 28,
      "hit": false,
      "t": 78999.92099999952,
      "d": 139.88081250000687,
      "v": 45
    },
    {
      "midi": 40,
      "hit": false,
      "t": 78999.92099999973,
      "d": 139.88081250000687,
      "v": 92
    },
    {
      "midi": 40,
      "hit": false,
      "t": 78999.92099999997,
      "d": 139.88081250000687,
      "v": 108
    },
    {
      "midi": 40,
      "hit": false,
      "t": 78999.921,
      "d": 139.88081250000687,
      "v": 108
    },
    {
      "midi": 28,
      "hit": false,
      "t": 78999.92100000063,
      "d": 139.88081250000687,
      "v": 110
    },
    {
      "midi": 36,
      "hit": false,
      "t": 79142.77799999953,
      "d": 139.88081250000687,
      "v": 92
    },
    {
      "midi": 28,
      "hit": false,
      "t": 79142.77799999953,
      "d": 139.88081250000687,
      "v": 45
    },
    {
      "midi": 40,
      "hit": false,
      "t": 79142.77799999973,
      "d": 139.88081250000687,
      "v": 92
    },
    {
      "midi": 40,
      "hit": false,
      "t": 79142.77799999998,
      "d": 139.88081250000687,
      "v": 108
    },
    {
      "midi": 40,
      "hit": false,
      "t": 79142.778,
      "d": 139.88081250000687,
      "v": 108
    },
    {
      "midi": 28,
      "hit": false,
      "t": 79142.77800000063,
      "d": 139.88081250000687,
      "v": 110
    },
    {
      "midi": 36,
      "hit": false,
      "t": 79285.63499999953,
      "d": 139.88081250000687,
      "v": 92
    },
    {
      "midi": 28,
      "hit": false,
      "t": 79285.63499999953,
      "d": 139.88081250000687,
      "v": 45
    },
    {
      "midi": 42,
      "hit": false,
      "t": 79285.63499999973,
      "d": 139.88081250000687,
      "v": 92
    },
    {
      "midi": 42,
      "hit": false,
      "t": 79285.63499999998,
      "d": 139.88081250000687,
      "v": 108
    },
    {
      "midi": 40,
      "hit": false,
      "t": 79285.63499999998,
      "d": 380.9520000000048,
      "v": 127
    },
    {
      "midi": 46,
      "hit": false,
      "t": 79285.63499999998,
      "d": 380.9520000000048,
      "v": 127
    },
    {
      "midi": 42,
      "hit": false,
      "t": 79285.63500000001,
      "d": 139.88081250000687,
      "v": 108
    },
    {
      "midi": 30,
      "hit": false,
      "t": 79285.63500000064,
      "d": 139.88081250000687,
      "v": 110
    },
    {
      "midi": 36,
      "hit": false,
      "t": 79428.49199999953,
      "d": 139.88081250000687,
      "v": 92
    },
    {
      "midi": 28,
      "hit": false,
      "t": 79428.49199999953,
      "d": 139.88081250000687,
      "v": 45
    },
    {
      "midi": 40,
      "hit": false,
      "t": 79428.49199999974,
      "d": 139.88081250000687,
      "v": 92
    },
    {
      "midi": 40,
      "hit": false,
      "t": 79428.49199999998,
      "d": 139.88081250000687,
      "v": 108
    },
    {
      "midi": 40,
      "hit": false,
      "t": 79428.49200000001,
      "d": 139.88081250000687,
      "v": 108
    },
    {
      "midi": 28,
      "hit": false,
      "t": 79428.49200000064,
      "d": 139.88081250000687,
      "v": 110
    },
    {
      "midi": 36,
      "hit": false,
      "t": 79571.34899999954,
      "d": 139.88081250000687,
      "v": 92
    },
    {
      "midi": 28,
      "hit": false,
      "t": 79571.34899999954,
      "d": 139.88081250000687,
      "v": 45
    },
    {
      "midi": 40,
      "hit": false,
      "t": 79571.34899999974,
      "d": 139.88081250000687,
      "v": 92
    },
    {
      "midi": 40,
      "hit": false,
      "t": 79571.34899999999,
      "d": 139.88081250000687,
      "v": 108
    },
    {
      "midi": 40,
      "hit": false,
      "t": 79571.34900000002,
      "d": 139.88081250000687,
      "v": 108
    },
    {
      "midi": 28,
      "hit": false,
      "t": 79571.34900000064,
      "d": 139.88081250000687,
      "v": 110
    },
    {
      "midi": 36,
      "hit": false,
      "t": 79714.20599999954,
      "d": 139.88081250000687,
      "v": 92
    },
    {
      "midi": 28,
      "hit": false,
      "t": 79714.20599999954,
      "d": 139.88081250000687,
      "v": 45
    },
    {
      "midi": 45,
      "hit": false,
      "t": 79714.20599999974,
      "d": 32.73806249999325,
      "v": 92
    },
    {
      "midi": 45,
      "hit": false,
      "t": 79714.20599999999,
      "d": 32.73806249999325,
      "v": 108
    },
    {
      "midi": 46,
      "hit": false,
      "t": 79714.20599999999,
      "d": 380.9520000000048,
      "v": 127
    },
    {
      "midi": 45,
      "hit": false,
      "t": 79714.20600000002,
      "d": 32.73806249999325,
      "v": 108
    },
    {
      "midi": 35,
      "hit": false,
      "t": 79714.20600000065,
      "d": 139.88081250000687,
      "v": 110
    },
    {
      "midi": 47,
      "hit": false,
      "t": 79749.92024999973,
      "d": 104.16656250000233,
      "v": 92
    },
    {
      "midi": 47,
      "hit": false,
      "t": 79749.92024999998,
      "d": 104.16656250000233,
      "v": 108
    },
    {
      "midi": 47,
      "hit": false,
      "t": 79749.92025000001,
      "d": 104.16656250000233,
      "v": 108
    },
    {
      "midi": 36,
      "hit": false,
      "t": 79857.06299999954,
      "d": 139.88081250000687,
      "v": 92
    },
    {
      "midi": 28,
      "hit": false,
      "t": 79857.06299999954,
      "d": 139.88081250000687,
      "v": 45
    },
    {
      "midi": 45,
      "hit": false,
      "t": 79857.06299999973,
      "d": 139.88081250000687,
      "v": 92
    },
    {
      "midi": 45,
      "hit": false,
      "t": 79857.06299999998,
      "d": 139.88081250000687,
      "v": 108
    },
    {
      "midi": 45,
      "hit": false,
      "t": 79857.06300000001,
      "d": 139.88081250000687,
      "v": 108
    },
    {
      "midi": 33,
      "hit": false,
      "t": 79857.06300000065,
      "d": 139.88081250000687,
      "v": 110
    },
    {
      "midi": 36,
      "hit": false,
      "t": 79999.91999999955,
      "d": 139.88081250000687,
      "v": 92
    },
    {
      "midi": 28,
      "hit": false,
      "t": 79999.91999999955,
      "d": 139.88081250000687,
      "v": 45
    },
    {
      "midi": 43,
      "hit": false,
      "t": 79999.91999999974,
      "d": 139.88081250000687,
      "v": 92
    },
    {
      "midi": 43,
      "hit": false,
      "t": 79999.91999999998,
      "d": 139.88081250000687,
      "v": 108
    },
    {
      "midi": 43,
      "hit": false,
      "t": 79999.92000000001,
      "d": 139.88081250000687,
      "v": 108
    },
    {
      "midi": 31,
      "hit": false,
      "t": 79999.92000000065,
      "d": 139.88081250000687,
      "v": 110
    },
    {
      "midi": 36,
      "hit": false,
      "t": 80142.77699999955,
      "d": 139.88081250000687,
      "v": 92
    },
    {
      "midi": 28,
      "hit": false,
      "t": 80142.77699999955,
      "d": 139.88081250000687,
      "v": 45
    },
    {
      "midi": 45,
      "hit": false,
      "t": 80142.77699999974,
      "d": 139.88081250000687,
      "v": 92
    },
    {
      "midi": 45,
      "hit": false,
      "t": 80142.77699999999,
      "d": 139.88081250000687,
      "v": 108
    },
    {
      "midi": 40,
      "hit": false,
      "t": 80142.777,
      "d": 139.88081250000687,
      "v": 127
    },
    {
      "midi": 45,
      "hit": false,
      "t": 80142.77700000002,
      "d": 139.88081250000687,
      "v": 108
    },
    {
      "midi": 33,
      "hit": false,
      "t": 80142.77700000066,
      "d": 139.88081250000687,
      "v": 110
    },
    {
      "midi": 36,
      "hit": false,
      "t": 80285.63399999955,
      "d": 139.88081250000687,
      "v": 92
    },
    {
      "midi": 28,
      "hit": false,
      "t": 80285.63399999955,
      "d": 139.88081250000687,
      "v": 45
    },
    {
      "midi": 43,
      "hit": false,
      "t": 80285.63399999974,
      "d": 139.88081250000687,
      "v": 92
    },
    {
      "midi": 43,
      "hit": false,
      "t": 80285.63399999999,
      "d": 139.88081250000687,
      "v": 108
    },
    {
      "midi": 40,
      "hit": false,
      "t": 80285.634,
      "d": 139.88081250000687,
      "v": 127
    },
    {
      "midi": 43,
      "hit": false,
      "t": 80285.63400000002,
      "d": 139.88081250000687,
      "v": 108
    },
    {
      "midi": 31,
      "hit": false,
      "t": 80285.63400000066,
      "d": 139.88081250000687,
      "v": 110
    },
    {
      "midi": 36,
      "hit": false,
      "t": 80428.49099999956,
      "d": 139.88081250000687,
      "v": 92
    },
    {
      "midi": 28,
      "hit": false,
      "t": 80428.49099999956,
      "d": 139.88081250000687,
      "v": 45
    },
    {
      "midi": 42,
      "hit": false,
      "t": 80428.49099999975,
      "d": 139.88081250000687,
      "v": 92
    },
    {
      "midi": 42,
      "hit": false,
      "t": 80428.491,
      "d": 139.88081250000687,
      "v": 108
    },
    {
      "midi": 40,
      "hit": false,
      "t": 80428.49100000001,
      "d": 139.88081250000687,
      "v": 127
    },
    {
      "midi": 41,
      "hit": false,
      "t": 80428.49100000001,
      "d": 139.88081250000687,
      "v": 127
    },
    {
      "midi": 42,
      "hit": false,
      "t": 80428.49100000002,
      "d": 139.88081250000687,
      "v": 108
    },
    {
      "midi": 30,
      "hit": false,
      "t": 80428.49100000066,
      "d": 139.88081250000687,
      "v": 110
    },
    {
      "midi": 36,
      "hit": false,
      "t": 80571.34799999956,
      "d": 139.88081250000687,
      "v": 92
    },
    {
      "midi": 28,
      "hit": false,
      "t": 80571.34799999956,
      "d": 139.88081250000687,
      "v": 45
    },
    {
      "midi": 41,
      "hit": false,
      "t": 80571.34800000001,
      "d": 139.88081250000687,
      "v": 127
    },
    {
      "midi": 46,
      "hit": false,
      "t": 80571.34800000001,
      "d": 139.88081250000687,
      "v": 127
    },
    {
      "midi": 28,
      "hit": false,
      "t": 80571.34800000067,
      "d": 47.619000000006054,
      "v": 110
    },
    {
      "midi": 36,
      "hit": false,
      "t": 80714.20499999957,
      "d": 139.88081250000687,
      "v": 92
    },
    {
      "midi": 28,
      "hit": false,
      "t": 80714.20499999957,
      "d": 139.88081250000687,
      "v": 45
    },
    {
      "midi": 48,
      "hit": false,
      "t": 80714.205,
      "d": 238.09500000000116,
      "v": 108
    },
    {
      "midi": 55,
      "hit": false,
      "t": 80714.205,
      "d": 238.09500000000116,
      "v": 108
    },
    {
      "midi": 60,
      "hit": false,
      "t": 80714.205,
      "d": 238.09500000000116,
      "v": 108
    },
    {
      "midi": 40,
      "hit": false,
      "t": 80714.20500000002,
      "d": 238.09500000000116,
      "v": 127
    },
    {
      "midi": 57,
      "hit": false,
      "t": 80714.20500000002,
      "d": 238.09500000000116,
      "v": 127
    },
    {
      "midi": 48,
      "hit": false,
      "t": 80714.20500000003,
      "d": 238.09500000000116,
      "v": 108
    },
    {
      "midi": 55,
      "hit": false,
      "t": 80714.20500000003,
      "d": 238.09500000000116,
      "v": 108
    },
    {
      "midi": 60,
      "hit": false,
      "t": 80714.20500000003,
      "d": 238.09500000000116,
      "v": 108
    },
    {
      "midi": 76,
      "hit": false,
      "t": 80714.20500000006,
      "d": 238.09500000000116,
      "v": 108
    },
    {
      "midi": 79,
      "hit": false,
      "t": 80714.20500000006,
      "d": 238.09500000000116,
      "v": 108
    },
    {
      "midi": 84,
      "hit": false,
      "t": 80714.20500000006,
      "d": 238.09500000000116,
      "v": 108
    },
    {
      "midi": 76,
      "hit": false,
      "t": 80714.20500000007,
      "d": 238.09500000000116,
      "v": 108
    },
    {
      "midi": 79,
      "hit": false,
      "t": 80714.20500000007,
      "d": 238.09500000000116,
      "v": 108
    },
    {
      "midi": 84,
      "hit": false,
      "t": 80714.20500000007,
      "d": 238.09500000000116,
      "v": 108
    },
    {
      "midi": 36,
      "hit": false,
      "t": 80714.20500000067,
      "d": 238.09500000000116,
      "v": 110
    },
    {
      "midi": 36,
      "hit": false,
      "t": 80857.06199999957,
      "d": 139.88081250000687,
      "v": 92
    },
    {
      "midi": 28,
      "hit": false,
      "t": 80857.06199999957,
      "d": 139.88081250000687,
      "v": 45
    },
    {
      "midi": 36,
      "hit": false,
      "t": 80999.91899999957,
      "d": 139.88081250000687,
      "v": 92
    },
    {
      "midi": 28,
      "hit": false,
      "t": 80999.91899999957,
      "d": 139.88081250000687,
      "v": 45
    },
    {
      "midi": 48,
      "hit": false,
      "t": 80999.91900000001,
      "d": 428.5709999999963,
      "v": 108
    },
    {
      "midi": 55,
      "hit": false,
      "t": 80999.91900000001,
      "d": 428.5709999999963,
      "v": 108
    },
    {
      "midi": 60,
      "hit": false,
      "t": 80999.91900000001,
      "d": 428.5709999999963,
      "v": 108
    },
    {
      "midi": 40,
      "hit": false,
      "t": 80999.91900000002,
      "d": 238.09500000000116,
      "v": 127
    },
    {
      "midi": 57,
      "hit": false,
      "t": 80999.91900000002,
      "d": 238.09500000000116,
      "v": 127
    },
    {
      "midi": 48,
      "hit": false,
      "t": 80999.91900000004,
      "d": 428.5709999999963,
      "v": 108
    },
    {
      "midi": 55,
      "hit": false,
      "t": 80999.91900000004,
      "d": 428.5709999999963,
      "v": 108
    },
    {
      "midi": 60,
      "hit": false,
      "t": 80999.91900000004,
      "d": 428.5709999999963,
      "v": 108
    },
    {
      "midi": 76,
      "hit": false,
      "t": 80999.91900000007,
      "d": 380.9520000000048,
      "v": 108
    },
    {
      "midi": 79,
      "hit": false,
      "t": 80999.91900000007,
      "d": 380.9520000000048,
      "v": 108
    },
    {
      "midi": 84,
      "hit": false,
      "t": 80999.91900000007,
      "d": 380.9520000000048,
      "v": 108
    },
    {
      "midi": 76,
      "hit": false,
      "t": 80999.91900000008,
      "d": 380.9520000000048,
      "v": 108
    },
    {
      "midi": 79,
      "hit": false,
      "t": 80999.91900000008,
      "d": 380.9520000000048,
      "v": 108
    },
    {
      "midi": 84,
      "hit": false,
      "t": 80999.91900000008,
      "d": 380.9520000000048,
      "v": 108
    },
    {
      "midi": 36,
      "hit": false,
      "t": 80999.91900000068,
      "d": 285.7140000000072,
      "v": 110
    },
    {
      "midi": 36,
      "hit": false,
      "t": 81142.77599999958,
      "d": 139.88081250000687,
      "v": 92
    },
    {
      "midi": 28,
      "hit": false,
      "t": 81142.77599999958,
      "d": 139.88081250000687,
      "v": 45
    },
    {
      "midi": 36,
      "hit": false,
      "t": 81285.63299999958,
      "d": 139.88081250000687,
      "v": 92
    },
    {
      "midi": 28,
      "hit": false,
      "t": 81285.63299999958,
      "d": 139.88081250000687,
      "v": 45
    },
    {
      "midi": 41,
      "hit": false,
      "t": 81285.63300000003,
      "d": 139.88081250000687,
      "v": 127
    },
    {
      "midi": 26,
      "hit": false,
      "t": 81285.63300000069,
      "d": 47.619000000006054,
      "v": 110
    },
    {
      "midi": 36,
      "hit": false,
      "t": 81428.48999999958,
      "d": 139.88081250000687,
      "v": 92
    },
    {
      "midi": 28,
      "hit": false,
      "t": 81428.48999999958,
      "d": 139.88081250000687,
      "v": 45
    },
    {
      "midi": 41,
      "hit": false,
      "t": 81428.49000000003,
      "d": 139.88081250000687,
      "v": 127
    },
    {
      "midi": 46,
      "hit": false,
      "t": 81428.49000000003,
      "d": 139.88081250000687,
      "v": 127
    },
    {
      "midi": 28,
      "hit": false,
      "t": 81428.49000000069,
      "d": 47.619000000006054,
      "v": 110
    },
    {
      "midi": 36,
      "hit": false,
      "t": 81571.34699999959,
      "d": 139.88081250000687,
      "v": 92
    },
    {
      "midi": 28,
      "hit": false,
      "t": 81571.34699999959,
      "d": 139.88081250000687,
      "v": 45
    },
    {
      "midi": 47,
      "hit": false,
      "t": 81571.34700000001,
      "d": 238.09500000000116,
      "v": 108
    },
    {
      "midi": 54,
      "hit": false,
      "t": 81571.34700000001,
      "d": 238.09500000000116,
      "v": 108
    },
    {
      "midi": 59,
      "hit": false,
      "t": 81571.34700000001,
      "d": 238.09500000000116,
      "v": 108
    },
    {
      "midi": 47,
      "hit": false,
      "t": 81571.34700000004,
      "d": 238.09500000000116,
      "v": 108
    },
    {
      "midi": 54,
      "hit": false,
      "t": 81571.34700000004,
      "d": 238.09500000000116,
      "v": 108
    },
    {
      "midi": 59,
      "hit": false,
      "t": 81571.34700000004,
      "d": 238.09500000000116,
      "v": 108
    },
    {
      "midi": 40,
      "hit": false,
      "t": 81571.34700000004,
      "d": 238.09500000000116,
      "v": 127
    },
    {
      "midi": 49,
      "hit": false,
      "t": 81571.34700000004,
      "d": 238.09500000000116,
      "v": 127
    },
    {
      "midi": 75,
      "hit": false,
      "t": 81571.34700000007,
      "d": 238.09500000000116,
      "v": 108
    },
    {
      "midi": 78,
      "hit": false,
      "t": 81571.34700000007,
      "d": 238.09500000000116,
      "v": 108
    },
    {
      "midi": 83,
      "hit": false,
      "t": 81571.34700000007,
      "d": 238.09500000000116,
      "v": 108
    },
    {
      "midi": 75,
      "hit": false,
      "t": 81571.34700000008,
      "d": 238.09500000000116,
      "v": 108
    },
    {
      "midi": 78,
      "hit": false,
      "t": 81571.34700000008,
      "d": 238.09500000000116,
      "v": 108
    },
    {
      "midi": 83,
      "hit": false,
      "t": 81571.34700000008,
      "d": 238.09500000000116,
      "v": 108
    },
    {
      "midi": 35,
      "hit": false,
      "t": 81571.3470000007,
      "d": 238.09500000000116,
      "v": 110
    },
    {
      "midi": 36,
      "hit": false,
      "t": 81714.20399999959,
      "d": 139.88081250000687,
      "v": 92
    },
    {
      "midi": 28,
      "hit": false,
      "t": 81714.20399999959,
      "d": 139.88081250000687,
      "v": 45
    },
    {
      "midi": 36,
      "hit": false,
      "t": 81857.0609999996,
      "d": 139.88081250000687,
      "v": 92
    },
    {
      "midi": 28,
      "hit": false,
      "t": 81857.0609999996,
      "d": 139.88081250000687,
      "v": 45
    },
    {
      "midi": 47,
      "hit": false,
      "t": 81857.06100000002,
      "d": 428.5709999999963,
      "v": 108
    },
    {
      "midi": 54,
      "hit": false,
      "t": 81857.06100000002,
      "d": 428.5709999999963,
      "v": 108
    },
    {
      "midi": 59,
      "hit": false,
      "t": 81857.06100000002,
      "d": 428.5709999999963,
      "v": 108
    },
    {
      "midi": 47,
      "hit": false,
      "t": 81857.06100000005,
      "d": 428.5709999999963,
      "v": 108
    },
    {
      "midi": 54,
      "hit": false,
      "t": 81857.06100000005,
      "d": 428.5709999999963,
      "v": 108
    },
    {
      "midi": 59,
      "hit": false,
      "t": 81857.06100000005,
      "d": 428.5709999999963,
      "v": 108
    },
    {
      "midi": 40,
      "hit": false,
      "t": 81857.06100000005,
      "d": 139.88081250000687,
      "v": 127
    },
    {
      "midi": 49,
      "hit": false,
      "t": 81857.06100000005,
      "d": 139.88081250000687,
      "v": 127
    },
    {
      "midi": 75,
      "hit": false,
      "t": 81857.06100000007,
      "d": 380.9520000000048,
      "v": 108
    },
    {
      "midi": 78,
      "hit": false,
      "t": 81857.06100000007,
      "d": 380.9520000000048,
      "v": 108
    },
    {
      "midi": 83,
      "hit": false,
      "t": 81857.06100000007,
      "d": 380.9520000000048,
      "v": 108
    },
    {
      "midi": 75,
      "hit": false,
      "t": 81857.06100000009,
      "d": 380.9520000000048,
      "v": 108
    },
    {
      "midi": 78,
      "hit": false,
      "t": 81857.06100000009,
      "d": 380.9520000000048,
      "v": 108
    },
    {
      "midi": 83,
      "hit": false,
      "t": 81857.06100000009,
      "d": 380.9520000000048,
      "v": 108
    },
    {
      "midi": 35,
      "hit": false,
      "t": 81857.0610000007,
      "d": 428.5709999999963,
      "v": 110
    },
    {
      "midi": 36,
      "hit": false,
      "t": 81999.9179999996,
      "d": 139.88081250000687,
      "v": 92
    },
    {
      "midi": 28,
      "hit": false,
      "t": 81999.9179999996,
      "d": 139.88081250000687,
      "v": 45
    },
    {
      "midi": 40,
      "hit": false,
      "t": 81999.91800000005,
      "d": 139.88081250000687,
      "v": 127
    },
    {
      "midi": 36,
      "hit": false,
      "t": 82142.7749999996,
      "d": 139.88081250000687,
      "v": 92
    },
    {
      "midi": 28,
      "hit": false,
      "t": 82142.7749999996,
      "d": 139.88081250000687,
      "v": 45
    },
    {
      "midi": 40,
      "hit": false,
      "t": 82142.77500000005,
      "d": 139.88081250000687,
      "v": 127
    },
    {
      "midi": 36,
      "hit": false,
      "t": 82285.6319999996,
      "d": 139.88081250000687,
      "v": 92
    },
    {
      "midi": 28,
      "hit": false,
      "t": 82285.6319999996,
      "d": 139.88081250000687,
      "v": 45
    },
    {
      "midi": 40,
      "hit": false,
      "t": 82285.63199999975,
      "d": 139.88081250000687,
      "v": 92
    },
    {
      "midi": 40,
      "hit": false,
      "t": 82285.63200000001,
      "d": 139.88081250000687,
      "v": 108
    },
    {
      "midi": 40,
      "hit": false,
      "t": 82285.63200000004,
      "d": 139.88081250000687,
      "v": 108
    },
    {
      "midi": 41,
      "hit": false,
      "t": 82285.63200000006,
      "d": 380.9520000000048,
      "v": 127
    },
    {
      "midi": 57,
      "hit": false,
      "t": 82285.63200000006,
      "d": 380.9520000000048,
      "v": 127
    },
    {
      "midi": 28,
      "hit": false,
      "t": 82285.6320000007,
      "d": 139.88081250000687,
      "v": 110
    },
    {
      "midi": 36,
      "hit": false,
      "t": 82428.48899999961,
      "d": 139.88081250000687,
      "v": 92
    },
    {
      "midi": 28,
      "hit": false,
      "t": 82428.48899999961,
      "d": 139.88081250000687,
      "v": 45
    },
    {
      "midi": 40,
      "hit": false,
      "t": 82428.48899999975,
      "d": 139.88081250000687,
      "v": 92
    },
    {
      "midi": 40,
      "hit": false,
      "t": 82428.48900000002,
      "d": 139.88081250000687,
      "v": 108
    },
    {
      "midi": 40,
      "hit": false,
      "t": 82428.48900000005,
      "d": 139.88081250000687,
      "v": 108
    },
    {
      "midi": 28,
      "hit": false,
      "t": 82428.4890000007,
      "d": 139.88081250000687,
      "v": 110
    },
    {
      "midi": 36,
      "hit": false,
      "t": 82571.34599999961,
      "d": 139.88081250000687,
      "v": 92
    },
    {
      "midi": 28,
      "hit": false,
      "t": 82571.34599999961,
      "d": 139.88081250000687,
      "v": 45
    },
    {
      "midi": 40,
      "hit": false,
      "t": 82571.34599999976,
      "d": 139.88081250000687,
      "v": 92
    },
    {
      "midi": 40,
      "hit": false,
      "t": 82571.34600000002,
      "d": 139.88081250000687,
      "v": 108
    },
    {
      "midi": 40,
      "hit": false,
      "t": 82571.34600000005,
      "d": 139.88081250000687,
      "v": 108
    },
    {
      "midi": 28,
      "hit": false,
      "t": 82571.3460000007,
      "d": 139.88081250000687,
      "v": 110
    },
    {
      "midi": 36,
      "hit": false,
      "t": 82714.20299999962,
      "d": 139.88081250000687,
      "v": 92
    },
    {
      "midi": 28,
      "hit": false,
      "t": 82714.20299999962,
      "d": 139.88081250000687,
      "v": 45
    },
    {
      "midi": 42,
      "hit": false,
      "t": 82714.20299999976,
      "d": 139.88081250000687,
      "v": 92
    },
    {
      "midi": 42,
      "hit": false,
      "t": 82714.20300000002,
      "d": 139.88081250000687,
      "v": 108
    },
    {
      "midi": 42,
      "hit": false,
      "t": 82714.20300000005,
      "d": 139.88081250000687,
      "v": 108
    },
    {
      "midi": 40,
      "hit": false,
      "t": 82714.20300000007,
      "d": 380.9520000000048,
      "v": 127
    },
    {
      "midi": 46,
      "hit": false,
      "t": 82714.20300000007,
      "d": 380.9520000000048,
      "v": 127
    },
    {
      "midi": 30,
      "hit": false,
      "t": 82714.2030000007,
      "d": 139.88081250000687,
      "v": 110
    },
    {
      "midi": 36,
      "hit": false,
      "t": 82857.05999999962,
      "d": 139.88081250000687,
      "v": 92
    },
    {
      "midi": 28,
      "hit": false,
      "t": 82857.05999999962,
      "d": 139.88081250000687,
      "v": 45
    },
    {
      "midi": 40,
      "hit": false,
      "t": 82857.05999999976,
      "d": 139.88081250000687,
      "v": 92
    },
    {
      "midi": 40,
      "hit": false,
      "t": 82857.06000000003,
      "d": 139.88081250000687,
      "v": 108
    },
    {
      "midi": 40,
      "hit": false,
      "t": 82857.06000000006,
      "d": 139.88081250000687,
      "v": 108
    },
    {
      "midi": 28,
      "hit": false,
      "t": 82857.06000000071,
      "d": 139.88081250000687,
      "v": 110
    },
    {
      "midi": 36,
      "hit": false,
      "t": 82999.91699999962,
      "d": 139.88081250000687,
      "v": 92
    },
    {
      "midi": 28,
      "hit": false,
      "t": 82999.91699999962,
      "d": 139.88081250000687,
      "v": 45
    },
    {
      "midi": 40,
      "hit": false,
      "t": 82999.91699999977,
      "d": 139.88081250000687,
      "v": 92
    },
    {
      "midi": 40,
      "hit": false,
      "t": 82999.91700000003,
      "d": 139.88081250000687,
      "v": 108
    },
    {
      "midi": 40,
      "hit": false,
      "t": 82999.91700000006,
      "d": 139.88081250000687,
      "v": 108
    },
    {
      "midi": 28,
      "hit": false,
      "t": 82999.91700000071,
      "d": 139.88081250000687,
      "v": 110
    },
    {
      "midi": 36,
      "hit": false,
      "t": 83142.77399999963,
      "d": 139.88081250000687,
      "v": 92
    },
    {
      "midi": 28,
      "hit": false,
      "t": 83142.77399999963,
      "d": 139.88081250000687,
      "v": 45
    },
    {
      "midi": 45,
      "hit": false,
      "t": 83142.77399999977,
      "d": 32.73806249999325,
      "v": 92
    },
    {
      "midi": 45,
      "hit": false,
      "t": 83142.77400000003,
      "d": 32.73806249999325,
      "v": 108
    },
    {
      "midi": 45,
      "hit": false,
      "t": 83142.77400000006,
      "d": 32.73806249999325,
      "v": 108
    },
    {
      "midi": 46,
      "hit": false,
      "t": 83142.77400000008,
      "d": 139.88081250000687,
      "v": 127
    },
    {
      "midi": 35,
      "hit": false,
      "t": 83142.77400000072,
      "d": 139.88081250000687,
      "v": 110
    },
    {
      "midi": 47,
      "hit": false,
      "t": 83178.48824999976,
      "d": 104.16656250000233,
      "v": 92
    },
    {
      "midi": 47,
      "hit": false,
      "t": 83178.48825000002,
      "d": 104.16656250000233,
      "v": 108
    },
    {
      "midi": 47,
      "hit": false,
      "t": 83178.48825000005,
      "d": 104.16656250000233,
      "v": 108
    },
    {
      "midi": 36,
      "hit": false,
      "t": 83285.63099999963,
      "d": 139.88081250000687,
      "v": 92
    },
    {
      "midi": 28,
      "hit": false,
      "t": 83285.63099999963,
      "d": 139.88081250000687,
      "v": 45
    },
    {
      "midi": 45,
      "hit": false,
      "t": 83285.63099999976,
      "d": 139.88081250000687,
      "v": 92
    },
    {
      "midi": 45,
      "hit": false,
      "t": 83285.63100000002,
      "d": 139.88081250000687,
      "v": 108
    },
    {
      "midi": 45,
      "hit": false,
      "t": 83285.63100000005,
      "d": 139.88081250000687,
      "v": 108
    },
    {
      "midi": 40,
      "hit": false,
      "t": 83285.63100000008,
      "d": 238.09500000000116,
      "v": 127
    },
    {
      "midi": 33,
      "hit": false,
      "t": 83285.63100000072,
      "d": 139.88081250000687,
      "v": 110
    },
    {
      "midi": 36,
      "hit": false,
      "t": 83428.48799999963,
      "d": 139.88081250000687,
      "v": 92
    },
    {
      "midi": 28,
      "hit": false,
      "t": 83428.48799999963,
      "d": 139.88081250000687,
      "v": 45
    },
    {
      "midi": 43,
      "hit": false,
      "t": 83428.48799999976,
      "d": 139.88081250000687,
      "v": 92
    },
    {
      "midi": 43,
      "hit": false,
      "t": 83428.48800000003,
      "d": 139.88081250000687,
      "v": 108
    },
    {
      "midi": 43,
      "hit": false,
      "t": 83428.48800000006,
      "d": 139.88081250000687,
      "v": 108
    },
    {
      "midi": 31,
      "hit": false,
      "t": 83428.48800000073,
      "d": 139.88081250000687,
      "v": 110
    },
    {
      "midi": 36,
      "hit": false,
      "t": 83571.34499999964,
      "d": 139.88081250000687,
      "v": 92
    },
    {
      "midi": 28,
      "hit": false,
      "t": 83571.34499999964,
      "d": 139.88081250000687,
      "v": 45
    },
    {
      "midi": 45,
      "hit": false,
      "t": 83571.34499999977,
      "d": 139.88081250000687,
      "v": 92
    },
    {
      "midi": 45,
      "hit": false,
      "t": 83571.34500000003,
      "d": 139.88081250000687,
      "v": 108
    },
    {
      "midi": 45,
      "hit": false,
      "t": 83571.34500000006,
      "d": 139.88081250000687,
      "v": 108
    },
    {
      "midi": 40,
      "hit": false,
      "t": 83571.34500000009,
      "d": 380.9520000000048,
      "v": 127
    },
    {
      "midi": 46,
      "hit": false,
      "t": 83571.34500000009,
      "d": 380.9520000000048,
      "v": 127
    },
    {
      "midi": 33,
      "hit": false,
      "t": 83571.34500000073,
      "d": 139.88081250000687,
      "v": 110
    },
    {
      "midi": 36,
      "hit": false,
      "t": 83714.20199999964,
      "d": 139.88081250000687,
      "v": 92
    },
    {
      "midi": 28,
      "hit": false,
      "t": 83714.20199999964,
      "d": 139.88081250000687,
      "v": 45
    },
    {
      "midi": 43,
      "hit": false,
      "t": 83714.20199999977,
      "d": 139.88081250000687,
      "v": 92
    },
    {
      "midi": 43,
      "hit": false,
      "t": 83714.20200000003,
      "d": 139.88081250000687,
      "v": 108
    },
    {
      "midi": 43,
      "hit": false,
      "t": 83714.20200000006,
      "d": 139.88081250000687,
      "v": 108
    },
    {
      "midi": 31,
      "hit": false,
      "t": 83714.20200000073,
      "d": 139.88081250000687,
      "v": 110
    },
    {
      "midi": 36,
      "hit": false,
      "t": 83857.05899999964,
      "d": 139.88081250000687,
      "v": 92
    },
    {
      "midi": 28,
      "hit": false,
      "t": 83857.05899999964,
      "d": 139.88081250000687,
      "v": 45
    },
    {
      "midi": 42,
      "hit": false,
      "t": 83857.05899999978,
      "d": 139.88081250000687,
      "v": 92
    },
    {
      "midi": 42,
      "hit": false,
      "t": 83857.05900000004,
      "d": 139.88081250000687,
      "v": 108
    },
    {
      "midi": 42,
      "hit": false,
      "t": 83857.05900000007,
      "d": 139.88081250000687,
      "v": 108
    },
    {
      "midi": 30,
      "hit": false,
      "t": 83857.05900000074,
      "d": 139.88081250000687,
      "v": 110
    },
    {
      "midi": 36,
      "hit": false,
      "t": 83999.91599999965,
      "d": 139.88081250000687,
      "v": 92
    },
    {
      "midi": 28,
      "hit": false,
      "t": 83999.91599999965,
      "d": 139.88081250000687,
      "v": 45
    },
    {
      "midi": 40,
      "hit": false,
      "t": 83999.91599999978,
      "d": 139.88081250000687,
      "v": 92
    },
    {
      "midi": 40,
      "hit": false,
      "t": 83999.91600000004,
      "d": 139.88081250000687,
      "v": 108
    },
    {
      "midi": 40,
      "hit": false,
      "t": 83999.91600000007,
      "d": 139.88081250000687,
      "v": 108
    },
    {
      "midi": 46,
      "hit": false,
      "t": 83999.9160000001,
      "d": 380.9520000000048,
      "v": 127
    },
    {
      "midi": 28,
      "hit": false,
      "t": 83999.91600000074,
      "d": 139.88081250000687,
      "v": 110
    },
    {
      "midi": 36,
      "hit": false,
      "t": 84142.77299999965,
      "d": 139.88081250000687,
      "v": 92
    },
    {
      "midi": 28,
      "hit": false,
      "t": 84142.77299999965,
      "d": 139.88081250000687,
      "v": 45
    },
    {
      "midi": 40,
      "hit": false,
      "t": 84142.77299999978,
      "d": 139.88081250000687,
      "v": 92
    },
    {
      "midi": 40,
      "hit": false,
      "t": 84142.77300000004,
      "d": 139.88081250000687,
      "v": 108
    },
    {
      "midi": 40,
      "hit": false,
      "t": 84142.77300000007,
      "d": 139.88081250000687,
      "v": 108
    },
    {
      "midi": 28,
      "hit": false,
      "t": 84142.77300000074,
      "d": 139.88081250000687,
      "v": 110
    },
    {
      "midi": 36,
      "hit": false,
      "t": 84285.62999999966,
      "d": 139.88081250000687,
      "v": 92
    },
    {
      "midi": 28,
      "hit": false,
      "t": 84285.62999999966,
      "d": 139.88081250000687,
      "v": 45
    },
    {
      "midi": 40,
      "hit": false,
      "t": 84285.62999999979,
      "d": 139.88081250000687,
      "v": 92
    },
    {
      "midi": 40,
      "hit": false,
      "t": 84285.63000000005,
      "d": 139.88081250000687,
      "v": 108
    },
    {
      "midi": 40,
      "hit": false,
      "t": 84285.63000000008,
      "d": 139.88081250000687,
      "v": 108
    },
    {
      "midi": 28,
      "hit": false,
      "t": 84285.63000000075,
      "d": 139.88081250000687,
      "v": 110
    },
    {
      "midi": 36,
      "hit": false,
      "t": 84428.48699999966,
      "d": 139.88081250000687,
      "v": 92
    },
    {
      "midi": 28,
      "hit": false,
      "t": 84428.48699999966,
      "d": 139.88081250000687,
      "v": 45
    },
    {
      "midi": 42,
      "hit": false,
      "t": 84428.48699999979,
      "d": 139.88081250000687,
      "v": 92
    },
    {
      "midi": 42,
      "hit": false,
      "t": 84428.48700000005,
      "d": 139.88081250000687,
      "v": 108
    },
    {
      "midi": 42,
      "hit": false,
      "t": 84428.48700000008,
      "d": 139.88081250000687,
      "v": 108
    },
    {
      "midi": 40,
      "hit": false,
      "t": 84428.48700000011,
      "d": 139.88081250000687,
      "v": 127
    },
    {
      "midi": 46,
      "hit": false,
      "t": 84428.48700000011,
      "d": 139.88081250000687,
      "v": 127
    },
    {
      "midi": 30,
      "hit": false,
      "t": 84428.48700000075,
      "d": 139.88081250000687,
      "v": 110
    },
    {
      "midi": 36,
      "hit": false,
      "t": 84571.34399999966,
      "d": 139.88081250000687,
      "v": 92
    },
    {
      "midi": 28,
      "hit": false,
      "t": 84571.34399999966,
      "d": 139.88081250000687,
      "v": 45
    },
    {
      "midi": 40,
      "hit": false,
      "t": 84571.3439999998,
      "d": 139.88081250000687,
      "v": 92
    },
    {
      "midi": 40,
      "hit": false,
      "t": 84571.34400000006,
      "d": 139.88081250000687,
      "v": 108
    },
    {
      "midi": 40,
      "hit": false,
      "t": 84571.34400000008,
      "d": 139.88081250000687,
      "v": 108
    },
    {
      "midi": 40,
      "hit": false,
      "t": 84571.34400000011,
      "d": 139.88081250000687,
      "v": 127
    },
    {
      "midi": 28,
      "hit": false,
      "t": 84571.34400000075,
      "d": 139.88081250000687,
      "v": 110
    },
    {
      "midi": 36,
      "hit": false,
      "t": 84714.20099999967,
      "d": 139.88081250000687,
      "v": 92
    },
    {
      "midi": 28,
      "hit": false,
      "t": 84714.20099999967,
      "d": 139.88081250000687,
      "v": 45
    },
    {
      "midi": 40,
      "hit": false,
      "t": 84714.2009999998,
      "d": 139.88081250000687,
      "v": 92
    },
    {
      "midi": 40,
      "hit": false,
      "t": 84714.20100000006,
      "d": 139.88081250000687,
      "v": 108
    },
    {
      "midi": 40,
      "hit": false,
      "t": 84714.20100000009,
      "d": 139.88081250000687,
      "v": 108
    },
    {
      "midi": 40,
      "hit": false,
      "t": 84714.20100000012,
      "d": 139.88081250000687,
      "v": 127
    },
    {
      "midi": 28,
      "hit": false,
      "t": 84714.20100000076,
      "d": 139.88081250000687,
      "v": 110
    },
    {
      "midi": 36,
      "hit": false,
      "t": 84857.05799999967,
      "d": 139.88081250000687,
      "v": 92
    },
    {
      "midi": 28,
      "hit": false,
      "t": 84857.05799999967,
      "d": 139.88081250000687,
      "v": 45
    },
    {
      "midi": 50,
      "hit": false,
      "t": 84857.05800000006,
      "d": 428.5709999999963,
      "v": 108
    },
    {
      "midi": 57,
      "hit": false,
      "t": 84857.05800000006,
      "d": 428.5709999999963,
      "v": 108
    },
    {
      "midi": 62,
      "hit": false,
      "t": 84857.05800000006,
      "d": 428.5709999999963,
      "v": 108
    },
    {
      "midi": 78,
      "hit": false,
      "t": 84857.05800000008,
      "d": 380.9520000000048,
      "v": 108
    },
    {
      "midi": 81,
      "hit": false,
      "t": 84857.05800000008,
      "d": 380.9520000000048,
      "v": 108
    },
    {
      "midi": 86,
      "hit": false,
      "t": 84857.05800000008,
      "d": 380.9520000000048,
      "v": 108
    },
    {
      "midi": 50,
      "hit": false,
      "t": 84857.05800000009,
      "d": 428.5709999999963,
      "v": 108
    },
    {
      "midi": 57,
      "hit": false,
      "t": 84857.05800000009,
      "d": 428.5709999999963,
      "v": 108
    },
    {
      "midi": 62,
      "hit": false,
      "t": 84857.05800000009,
      "d": 428.5709999999963,
      "v": 108
    },
    {
      "midi": 78,
      "hit": false,
      "t": 84857.05800000009,
      "d": 380.9520000000048,
      "v": 108
    },
    {
      "midi": 81,
      "hit": false,
      "t": 84857.05800000009,
      "d": 380.9520000000048,
      "v": 108
    },
    {
      "midi": 86,
      "hit": false,
      "t": 84857.05800000009,
      "d": 380.9520000000048,
      "v": 108
    },
    {
      "midi": 57,
      "hit": false,
      "t": 84857.05800000012,
      "d": 380.9520000000048,
      "v": 127
    },
    {
      "midi": 38,
      "hit": false,
      "t": 84857.05800000076,
      "d": 380.9520000000048,
      "v": 110
    },
    {
      "midi": 36,
      "hit": false,
      "t": 84999.91499999967,
      "d": 139.88081250000687,
      "v": 92
    },
    {
      "midi": 28,
      "hit": false,
      "t": 84999.91499999967,
      "d": 139.88081250000687,
      "v": 45
    },
    {
      "midi": 36,
      "hit": false,
      "t": 85142.77199999968,
      "d": 139.88081250000687,
      "v": 92
    },
    {
      "midi": 28,
      "hit": false,
      "t": 85142.77199999968,
      "d": 139.88081250000687,
      "v": 45
    },
    {
      "midi": 36,
      "hit": false,
      "t": 85285.62899999968,
      "d": 139.88081250000687,
      "v": 92
    },
    {
      "midi": 28,
      "hit": false,
      "t": 85285.62899999968,
      "d": 139.88081250000687,
      "v": 45
    },
    {
      "midi": 45,
      "hit": false,
      "t": 85285.62900000006,
      "d": 380.9520000000048,
      "v": 108
    },
    {
      "midi": 52,
      "hit": false,
      "t": 85285.62900000006,
      "d": 380.9520000000048,
      "v": 108
    },
    {
      "midi": 57,
      "hit": false,
      "t": 85285.62900000006,
      "d": 380.9520000000048,
      "v": 108
    },
    {
      "midi": 45,
      "hit": false,
      "t": 85285.62900000009,
      "d": 380.9520000000048,
      "v": 108
    },
    {
      "midi": 52,
      "hit": false,
      "t": 85285.62900000009,
      "d": 380.9520000000048,
      "v": 108
    },
    {
      "midi": 57,
      "hit": false,
      "t": 85285.62900000009,
      "d": 380.9520000000048,
      "v": 108
    },
    {
      "midi": 73,
      "hit": false,
      "t": 85285.62900000009,
      "d": 380.9520000000048,
      "v": 108
    },
    {
      "midi": 76,
      "hit": false,
      "t": 85285.62900000009,
      "d": 380.9520000000048,
      "v": 108
    },
    {
      "midi": 81,
      "hit": false,
      "t": 85285.62900000009,
      "d": 380.9520000000048,
      "v": 108
    },
    {
      "midi": 73,
      "hit": false,
      "t": 85285.6290000001,
      "d": 380.9520000000048,
      "v": 108
    },
    {
      "midi": 76,
      "hit": false,
      "t": 85285.6290000001,
      "d": 380.9520000000048,
      "v": 108
    },
    {
      "midi": 81,
      "hit": false,
      "t": 85285.6290000001,
      "d": 380.9520000000048,
      "v": 108
    },
    {
      "midi": 40,
      "hit": false,
      "t": 85285.62900000013,
      "d": 380.9520000000048,
      "v": 127
    },
    {
      "midi": 49,
      "hit": false,
      "t": 85285.62900000013,
      "d": 380.9520000000048,
      "v": 127
    },
    {
      "midi": 33,
      "hit": false,
      "t": 85285.62900000077,
      "d": 380.9520000000048,
      "v": 110
    },
    {
      "midi": 36,
      "hit": false,
      "t": 85428.48599999968,
      "d": 139.88081250000687,
      "v": 92
    },
    {
      "midi": 28,
      "hit": false,
      "t": 85428.48599999968,
      "d": 139.88081250000687,
      "v": 45
    },
    {
      "midi": 36,
      "hit": false,
      "t": 85571.34299999969,
      "d": 139.88081250000687,
      "v": 92
    },
    {
      "midi": 28,
      "hit": false,
      "t": 85571.34299999969,
      "d": 139.88081250000687,
      "v": 45
    },
    {
      "midi": 36,
      "hit": false,
      "t": 85714.19999999969,
      "d": 139.88081250000687,
      "v": 92
    },
    {
      "midi": 28,
      "hit": false,
      "t": 85714.19999999969,
      "d": 139.88081250000687,
      "v": 45
    },
    {
      "midi": 40,
      "hit": false,
      "t": 85714.19999999981,
      "d": 139.88081250000687,
      "v": 92
    },
    {
      "midi": 40,
      "hit": false,
      "t": 85714.20000000007,
      "d": 139.88081250000687,
      "v": 108
    },
    {
      "midi": 40,
      "hit": false,
      "t": 85714.2000000001,
      "d": 139.88081250000687,
      "v": 108
    },
    {
      "midi": 57,
      "hit": false,
      "t": 85714.20000000014,
      "d": 380.9520000000048,
      "v": 127
    },
    {
      "midi": 28,
      "hit": false,
      "t": 85714.20000000078,
      "d": 139.88081250000687,
      "v": 110
    },
    {
      "midi": 36,
      "hit": false,
      "t": 85857.0569999997,
      "d": 139.88081250000687,
      "v": 92
    },
    {
      "midi": 28,
      "hit": false,
      "t": 85857.0569999997,
      "d": 139.88081250000687,
      "v": 45
    },
    {
      "midi": 40,
      "hit": false,
      "t": 85857.05699999981,
      "d": 139.88081250000687,
      "v": 92
    },
    {
      "midi": 40,
      "hit": false,
      "t": 85857.05700000007,
      "d": 139.88081250000687,
      "v": 108
    },
    {
      "midi": 40,
      "hit": false,
      "t": 85857.0570000001,
      "d": 139.88081250000687,
      "v": 108
    },
    {
      "midi": 28,
      "hit": false,
      "t": 85857.05700000079,
      "d": 139.88081250000687,
      "v": 110
    },
    {
      "midi": 36,
      "hit": false,
      "t": 85999.9139999997,
      "d": 139.88081250000687,
      "v": 92
    },
    {
      "midi": 28,
      "hit": false,
      "t": 85999.9139999997,
      "d": 139.88081250000687,
      "v": 45
    },
    {
      "midi": 40,
      "hit": false,
      "t": 85999.91399999982,
      "d": 139.88081250000687,
      "v": 92
    },
    {
      "midi": 40,
      "hit": false,
      "t": 85999.91400000008,
      "d": 139.88081250000687,
      "v": 108
    },
    {
      "midi": 40,
      "hit": false,
      "t": 85999.9140000001,
      "d": 139.88081250000687,
      "v": 108
    },
    {
      "midi": 28,
      "hit": false,
      "t": 85999.91400000079,
      "d": 139.88081250000687,
      "v": 110
    },
    {
      "midi": 36,
      "hit": false,
      "t": 86142.7709999997,
      "d": 139.88081250000687,
      "v": 92
    },
    {
      "midi": 28,
      "hit": false,
      "t": 86142.7709999997,
      "d": 139.88081250000687,
      "v": 45
    },
    {
      "midi": 42,
      "hit": false,
      "t": 86142.77099999982,
      "d": 139.88081250000687,
      "v": 92
    },
    {
      "midi": 42,
      "hit": false,
      "t": 86142.77100000008,
      "d": 139.88081250000687,
      "v": 108
    },
    {
      "midi": 42,
      "hit": false,
      "t": 86142.77100000011,
      "d": 139.88081250000687,
      "v": 108
    },
    {
      "midi": 40,
      "hit": false,
      "t": 86142.77100000015,
      "d": 380.9520000000048,
      "v": 127
    },
    {
      "midi": 46,
      "hit": false,
      "t": 86142.77100000015,
      "d": 380.9520000000048,
      "v": 127
    },
    {
      "midi": 30,
      "hit": false,
      "t": 86142.7710000008,
      "d": 139.88081250000687,
      "v": 110
    },
    {
      "midi": 36,
      "hit": false,
      "t": 86285.6279999997,
      "d": 139.88081250000687,
      "v": 92
    },
    {
      "midi": 28,
      "hit": false,
      "t": 86285.6279999997,
      "d": 139.88081250000687,
      "v": 45
    },
    {
      "midi": 40,
      "hit": false,
      "t": 86285.62799999982,
      "d": 139.88081250000687,
      "v": 92
    },
    {
      "midi": 40,
      "hit": false,
      "t": 86285.62800000008,
      "d": 139.88081250000687,
      "v": 108
    },
    {
      "midi": 40,
      "hit": false,
      "t": 86285.62800000011,
      "d": 139.88081250000687,
      "v": 108
    },
    {
      "midi": 28,
      "hit": false,
      "t": 86285.6280000008,
      "d": 139.88081250000687,
      "v": 110
    },
    {
      "midi": 36,
      "hit": false,
      "t": 86428.48499999971,
      "d": 139.88081250000687,
      "v": 92
    },
    {
      "midi": 28,
      "hit": false,
      "t": 86428.48499999971,
      "d": 139.88081250000687,
      "v": 45
    },
    {
      "midi": 40,
      "hit": false,
      "t": 86428.48499999983,
      "d": 139.88081250000687,
      "v": 92
    },
    {
      "midi": 40,
      "hit": false,
      "t": 86428.48500000009,
      "d": 139.88081250000687,
      "v": 108
    },
    {
      "midi": 40,
      "hit": false,
      "t": 86428.48500000012,
      "d": 139.88081250000687,
      "v": 108
    },
    {
      "midi": 28,
      "hit": false,
      "t": 86428.4850000008,
      "d": 139.88081250000687,
      "v": 110
    },
    {
      "midi": 36,
      "hit": false,
      "t": 86571.34199999971,
      "d": 139.88081250000687,
      "v": 92
    },
    {
      "midi": 28,
      "hit": false,
      "t": 86571.34199999971,
      "d": 139.88081250000687,
      "v": 45
    },
    {
      "midi": 45,
      "hit": false,
      "t": 86571.34199999983,
      "d": 32.73806249999325,
      "v": 92
    },
    {
      "midi": 45,
      "hit": false,
      "t": 86571.34200000009,
      "d": 32.73806249999325,
      "v": 108
    },
    {
      "midi": 45,
      "hit": false,
      "t": 86571.34200000012,
      "d": 32.73806249999325,
      "v": 108
    },
    {
      "midi": 46,
      "hit": false,
      "t": 86571.34200000016,
      "d": 380.9520000000048,
      "v": 127
    },
    {
      "midi": 35,
      "hit": false,
      "t": 86571.3420000008,
      "d": 139.88081250000687,
      "v": 110
    },
    {
      "midi": 47,
      "hit": false,
      "t": 86607.05624999982,
      "d": 104.16656250000233,
      "v": 92
    },
    {
      "midi": 47,
      "hit": false,
      "t": 86607.05625000008,
      "d": 104.16656250000233,
      "v": 108
    },
    {
      "midi": 47,
      "hit": false,
      "t": 86607.05625000011,
      "d": 104.16656250000233,
      "v": 108
    },
    {
      "midi": 36,
      "hit": false,
      "t": 86714.19899999972,
      "d": 139.88081250000687,
      "v": 92
    },
    {
      "midi": 28,
      "hit": false,
      "t": 86714.19899999972,
      "d": 139.88081250000687,
      "v": 45
    },
    {
      "midi": 45,
      "hit": false,
      "t": 86714.19899999982,
      "d": 139.88081250000687,
      "v": 92
    },
    {
      "midi": 45,
      "hit": false,
      "t": 86714.19900000008,
      "d": 139.88081250000687,
      "v": 108
    },
    {
      "midi": 45,
      "hit": false,
      "t": 86714.19900000011,
      "d": 139.88081250000687,
      "v": 108
    },
    {
      "midi": 33,
      "hit": false,
      "t": 86714.19900000081,
      "d": 139.88081250000687,
      "v": 110
    },
    {
      "midi": 36,
      "hit": false,
      "t": 86857.05599999972,
      "d": 139.88081250000687,
      "v": 92
    },
    {
      "midi": 28,
      "hit": false,
      "t": 86857.05599999972,
      "d": 139.88081250000687,
      "v": 45
    },
    {
      "midi": 43,
      "hit": false,
      "t": 86857.05599999982,
      "d": 139.88081250000687,
      "v": 92
    },
    {
      "midi": 43,
      "hit": false,
      "t": 86857.05600000008,
      "d": 139.88081250000687,
      "v": 108
    },
    {
      "midi": 43,
      "hit": false,
      "t": 86857.05600000011,
      "d": 139.88081250000687,
      "v": 108
    },
    {
      "midi": 31,
      "hit": false,
      "t": 86857.05600000081,
      "d": 139.88081250000687,
      "v": 110
    },
    {
      "midi": 36,
      "hit": false,
      "t": 86999.91299999972,
      "d": 139.88081250000687,
      "v": 92
    },
    {
      "midi": 28,
      "hit": false,
      "t": 86999.91299999972,
      "d": 139.88081250000687,
      "v": 45
    },
    {
      "midi": 45,
      "hit": false,
      "t": 86999.91299999983,
      "d": 139.88081250000687,
      "v": 92
    },
    {
      "midi": 45,
      "hit": false,
      "t": 86999.91300000009,
      "d": 139.88081250000687,
      "v": 108
    },
    {
      "midi": 45,
      "hit": false,
      "t": 86999.91300000012,
      "d": 139.88081250000687,
      "v": 108
    },
    {
      "midi": 40,
      "hit": false,
      "t": 86999.91300000018,
      "d": 68.45231249999779,
      "v": 127
    },
    {
      "midi": 33,
      "hit": false,
      "t": 86999.91300000082,
      "d": 139.88081250000687,
      "v": 110
    },
    {
      "midi": 45,
      "hit": false,
      "t": 87071.34150000017,
      "d": 68.45231249999779,
      "v": 127
    },
    {
      "midi": 36,
      "hit": false,
      "t": 87142.76999999973,
      "d": 139.88081250000687,
      "v": 92
    },
    {
      "midi": 28,
      "hit": false,
      "t": 87142.76999999973,
      "d": 139.88081250000687,
      "v": 45
    },
    {
      "midi": 43,
      "hit": false,
      "t": 87142.76999999983,
      "d": 139.88081250000687,
      "v": 92
    },
    {
      "midi": 43,
      "hit": false,
      "t": 87142.77000000009,
      "d": 139.88081250000687,
      "v": 108
    },
    {
      "midi": 43,
      "hit": false,
      "t": 87142.77000000012,
      "d": 139.88081250000687,
      "v": 108
    },
    {
      "midi": 43,
      "hit": false,
      "t": 87142.77000000016,
      "d": 139.88081250000687,
      "v": 127
    },
    {
      "midi": 31,
      "hit": false,
      "t": 87142.77000000082,
      "d": 139.88081250000687,
      "v": 110
    },
    {
      "midi": 36,
      "hit": false,
      "t": 87285.62699999973,
      "d": 139.88081250000687,
      "v": 92
    },
    {
      "midi": 28,
      "hit": false,
      "t": 87285.62699999973,
      "d": 139.88081250000687,
      "v": 45
    },
    {
      "midi": 42,
      "hit": false,
      "t": 87285.62699999983,
      "d": 139.88081250000687,
      "v": 92
    },
    {
      "midi": 42,
      "hit": false,
      "t": 87285.6270000001,
      "d": 139.88081250000687,
      "v": 108
    },
    {
      "midi": 42,
      "hit": false,
      "t": 87285.62700000012,
      "d": 139.88081250000687,
      "v": 108
    },
    {
      "midi": 41,
      "hit": false,
      "t": 87285.62700000017,
      "d": 139.88081250000687,
      "v": 127
    },
    {
      "midi": 30,
      "hit": false,
      "t": 87285.62700000082,
      "d": 139.88081250000687,
      "v": 110
    },
    {
      "midi": 36,
      "hit": false,
      "t": 87428.48399999973,
      "d": 139.88081250000687,
      "v": 92
    },
    {
      "midi": 28,
      "hit": false,
      "t": 87428.48399999973,
      "d": 238.09500000000116,
      "v": 45
    },
    {
      "midi": 41,
      "hit": false,
      "t": 87428.48400000017,
      "d": 139.88081250000687,
      "v": 127
    },
    {
      "midi": 46,
      "hit": false,
      "t": 87428.48400000017,
      "d": 139.88081250000687,
      "v": 127
    },
    {
      "midi": 28,
      "hit": false,
      "t": 87428.48400000083,
      "d": 47.619000000006054,
      "v": 110
    },
    {
      "midi": 36,
      "hit": false,
      "t": 87571.34099999974,
      "d": 139.88081250000687,
      "v": 92
    },
    {
      "midi": 76,
      "hit": false,
      "t": 87571.34100000009,
      "d": 238.09500000000116,
      "v": 108
    },
    {
      "midi": 79,
      "hit": false,
      "t": 87571.34100000009,
      "d": 238.09500000000116,
      "v": 108
    },
    {
      "midi": 84,
      "hit": false,
      "t": 87571.34100000009,
      "d": 238.09500000000116,
      "v": 108
    },
    {
      "midi": 48,
      "hit": false,
      "t": 87571.3410000001,
      "d": 238.09500000000116,
      "v": 108
    },
    {
      "midi": 55,
      "hit": false,
      "t": 87571.3410000001,
      "d": 238.09500000000116,
      "v": 108
    },
    {
      "midi": 60,
      "hit": false,
      "t": 87571.3410000001,
      "d": 238.09500000000116,
      "v": 108
    },
    {
      "midi": 76,
      "hit": false,
      "t": 87571.3410000001,
      "d": 238.09500000000116,
      "v": 108
    },
    {
      "midi": 79,
      "hit": false,
      "t": 87571.3410000001,
      "d": 238.09500000000116,
      "v": 108
    },
    {
      "midi": 84,
      "hit": false,
      "t": 87571.3410000001,
      "d": 238.09500000000116,
      "v": 108
    },
    {
      "midi": 48,
      "hit": false,
      "t": 87571.34100000013,
      "d": 238.09500000000116,
      "v": 108
    },
    {
      "midi": 55,
      "hit": false,
      "t": 87571.34100000013,
      "d": 238.09500000000116,
      "v": 108
    },
    {
      "midi": 60,
      "hit": false,
      "t": 87571.34100000013,
      "d": 238.09500000000116,
      "v": 108
    },
    {
      "midi": 40,
      "hit": false,
      "t": 87571.34100000017,
      "d": 238.09500000000116,
      "v": 127
    },
    {
      "midi": 57,
      "hit": false,
      "t": 87571.34100000017,
      "d": 238.09500000000116,
      "v": 127
    },
    {
      "midi": 36,
      "hit": false,
      "t": 87571.34100000083,
      "d": 238.09500000000116,
      "v": 110
    },
    {
      "midi": 36,
      "hit": false,
      "t": 87714.19799999974,
      "d": 139.88081250000687,
      "v": 92
    },
    {
      "midi": 28,
      "hit": false,
      "t": 87714.19799999974,
      "d": 238.09500000000116,
      "v": 45
    },
    {
      "midi": 36,
      "hit": false,
      "t": 87857.05499999975,
      "d": 139.88081250000687,
      "v": 92
    },
    {
      "midi": 76,
      "hit": false,
      "t": 87857.0550000001,
      "d": 380.9520000000048,
      "v": 108
    },
    {
      "midi": 79,
      "hit": false,
      "t": 87857.0550000001,
      "d": 380.9520000000048,
      "v": 108
    },
    {
      "midi": 84,
      "hit": false,
      "t": 87857.0550000001,
      "d": 380.9520000000048,
      "v": 108
    },
    {
      "midi": 48,
      "hit": false,
      "t": 87857.05500000011,
      "d": 428.5709999999963,
      "v": 108
    },
    {
      "midi": 55,
      "hit": false,
      "t": 87857.05500000011,
      "d": 428.5709999999963,
      "v": 108
    },
    {
      "midi": 60,
      "hit": false,
      "t": 87857.05500000011,
      "d": 428.5709999999963,
      "v": 108
    },
    {
      "midi": 76,
      "hit": false,
      "t": 87857.05500000011,
      "d": 380.9520000000048,
      "v": 108
    },
    {
      "midi": 79,
      "hit": false,
      "t": 87857.05500000011,
      "d": 380.9520000000048,
      "v": 108
    },
    {
      "midi": 84,
      "hit": false,
      "t": 87857.05500000011,
      "d": 380.9520000000048,
      "v": 108
    },
    {
      "midi": 48,
      "hit": false,
      "t": 87857.05500000014,
      "d": 428.5709999999963,
      "v": 108
    },
    {
      "midi": 55,
      "hit": false,
      "t": 87857.05500000014,
      "d": 428.5709999999963,
      "v": 108
    },
    {
      "midi": 60,
      "hit": false,
      "t": 87857.05500000014,
      "d": 428.5709999999963,
      "v": 108
    },
    {
      "midi": 40,
      "hit": false,
      "t": 87857.05500000018,
      "d": 238.09500000000116,
      "v": 127
    },
    {
      "midi": 57,
      "hit": false,
      "t": 87857.05500000018,
      "d": 238.09500000000116,
      "v": 127
    },
    {
      "midi": 36,
      "hit": false,
      "t": 87857.05500000084,
      "d": 428.5709999999963,
      "v": 110
    },
    {
      "midi": 36,
      "hit": false,
      "t": 87999.91199999975,
      "d": 139.88081250000687,
      "v": 92
    },
    {
      "midi": 28,
      "hit": false,
      "t": 87999.91199999975,
      "d": 238.09500000000116,
      "v": 45
    },
    {
      "midi": 36,
      "hit": false,
      "t": 88142.76899999975,
      "d": 139.88081250000687,
      "v": 92
    },
    {
      "midi": 41,
      "hit": false,
      "t": 88142.76900000019,
      "d": 139.88081250000687,
      "v": 127
    },
    {
      "midi": 36,
      "hit": false,
      "t": 88285.62599999976,
      "d": 139.88081250000687,
      "v": 92
    },
    {
      "midi": 28,
      "hit": false,
      "t": 88285.62599999976,
      "d": 380.9520000000048,
      "v": 45
    },
    {
      "midi": 41,
      "hit": false,
      "t": 88285.6260000002,
      "d": 139.88081250000687,
      "v": 127
    },
    {
      "midi": 46,
      "hit": false,
      "t": 88285.6260000002,
      "d": 139.88081250000687,
      "v": 127
    },
    {
      "midi": 28,
      "hit": false,
      "t": 88285.62600000083,
      "d": 47.619000000006054,
      "v": 110
    },
    {
      "midi": 36,
      "hit": false,
      "t": 88428.48299999976,
      "d": 139.88081250000687,
      "v": 92
    },
    {
      "midi": 75,
      "hit": false,
      "t": 88428.4830000001,
      "d": 238.09500000000116,
      "v": 108
    },
    {
      "midi": 78,
      "hit": false,
      "t": 88428.4830000001,
      "d": 238.09500000000116,
      "v": 108
    },
    {
      "midi": 83,
      "hit": false,
      "t": 88428.4830000001,
      "d": 238.09500000000116,
      "v": 108
    },
    {
      "midi": 47,
      "hit": false,
      "t": 88428.48300000011,
      "d": 238.09500000000116,
      "v": 108
    },
    {
      "midi": 54,
      "hit": false,
      "t": 88428.48300000011,
      "d": 238.09500000000116,
      "v": 108
    },
    {
      "midi": 59,
      "hit": false,
      "t": 88428.48300000011,
      "d": 238.09500000000116,
      "v": 108
    },
    {
      "midi": 75,
      "hit": false,
      "t": 88428.48300000011,
      "d": 238.09500000000116,
      "v": 108
    },
    {
      "midi": 78,
      "hit": false,
      "t": 88428.48300000011,
      "d": 238.09500000000116,
      "v": 108
    },
    {
      "midi": 83,
      "hit": false,
      "t": 88428.48300000011,
      "d": 238.09500000000116,
      "v": 108
    },
    {
      "midi": 47,
      "hit": false,
      "t": 88428.48300000014,
      "d": 238.09500000000116,
      "v": 108
    },
    {
      "midi": 54,
      "hit": false,
      "t": 88428.48300000014,
      "d": 238.09500000000116,
      "v": 108
    },
    {
      "midi": 59,
      "hit": false,
      "t": 88428.48300000014,
      "d": 238.09500000000116,
      "v": 108
    },
    {
      "midi": 40,
      "hit": false,
      "t": 88428.4830000002,
      "d": 238.09500000000116,
      "v": 127
    },
    {
      "midi": 49,
      "hit": false,
      "t": 88428.4830000002,
      "d": 238.09500000000116,
      "v": 127
    },
    {
      "midi": 35,
      "hit": false,
      "t": 88428.48300000084,
      "d": 238.09500000000116,
      "v": 110
    },
    {
      "midi": 36,
      "hit": false,
      "t": 88571.33999999976,
      "d": 139.88081250000687,
      "v": 92
    },
    {
      "midi": 36,
      "hit": false,
      "t": 88714.19699999977,
      "d": 139.88081250000687,
      "v": 92
    },
    {
      "midi": 28,
      "hit": false,
      "t": 88714.19699999977,
      "d": 139.88081250000687,
      "v": 45
    },
    {
      "midi": 75,
      "hit": false,
      "t": 88714.1970000001,
      "d": 380.9520000000048,
      "v": 108
    },
    {
      "midi": 78,
      "hit": false,
      "t": 88714.1970000001,
      "d": 380.9520000000048,
      "v": 108
    },
    {
      "midi": 83,
      "hit": false,
      "t": 88714.1970000001,
      "d": 380.9520000000048,
      "v": 108
    },
    {
      "midi": 47,
      "hit": false,
      "t": 88714.19700000012,
      "d": 428.5709999999963,
      "v": 108
    },
    {
      "midi": 54,
      "hit": false,
      "t": 88714.19700000012,
      "d": 428.5709999999963,
      "v": 108
    },
    {
      "midi": 59,
      "hit": false,
      "t": 88714.19700000012,
      "d": 428.5709999999963,
      "v": 108
    },
    {
      "midi": 75,
      "hit": false,
      "t": 88714.19700000012,
      "d": 380.9520000000048,
      "v": 108
    },
    {
      "midi": 78,
      "hit": false,
      "t": 88714.19700000012,
      "d": 380.9520000000048,
      "v": 108
    },
    {
      "midi": 83,
      "hit": false,
      "t": 88714.19700000012,
      "d": 380.9520000000048,
      "v": 108
    },
    {
      "midi": 47,
      "hit": false,
      "t": 88714.19700000015,
      "d": 428.5709999999963,
      "v": 108
    },
    {
      "midi": 54,
      "hit": false,
      "t": 88714.19700000015,
      "d": 428.5709999999963,
      "v": 108
    },
    {
      "midi": 59,
      "hit": false,
      "t": 88714.19700000015,
      "d": 428.5709999999963,
      "v": 108
    },
    {
      "midi": 40,
      "hit": false,
      "t": 88714.1970000002,
      "d": 68.45231249999779,
      "v": 127
    },
    {
      "midi": 49,
      "hit": false,
      "t": 88714.1970000002,
      "d": 68.45231249999779,
      "v": 127
    },
    {
      "midi": 35,
      "hit": false,
      "t": 88714.19700000084,
      "d": 428.5709999999963,
      "v": 110
    },
    {
      "midi": 45,
      "hit": false,
      "t": 88785.6255000002,
      "d": 68.45231249999779,
      "v": 127
    },
    {
      "midi": 36,
      "hit": false,
      "t": 88857.05399999977,
      "d": 139.88081250000687,
      "v": 92
    },
    {
      "midi": 28,
      "hit": false,
      "t": 88857.05399999977,
      "d": 139.88081250000687,
      "v": 45
    },
    {
      "midi": 43,
      "hit": false,
      "t": 88857.0540000002,
      "d": 139.88081250000687,
      "v": 127
    },
    {
      "midi": 36,
      "hit": false,
      "t": 88999.91099999977,
      "d": 139.88081250000687,
      "v": 92
    },
    {
      "midi": 28,
      "hit": false,
      "t": 88999.91099999977,
      "d": 139.88081250000687,
      "v": 45
    },
    {
      "midi": 41,
      "hit": false,
      "t": 88999.9110000002,
      "d": 139.88081250000687,
      "v": 127
    },
    {
      "midi": 46,
      "hit": false,
      "t": 88999.9110000002,
      "d": 139.88081250000687,
      "v": 127
    },
    {
      "midi": 36,
      "hit": false,
      "t": 89142.76799999978,
      "d": 238.09500000000116,
      "v": 92
    },
    {
      "midi": 28,
      "hit": false,
      "t": 89142.76799999978,
      "d": 238.09500000000116,
      "v": 45
    },
    {
      "midi": 52,
      "hit": false,
      "t": 89142.76800000011,
      "d": 238.09500000000116,
      "v": 108
    },
    {
      "midi": 59,
      "hit": false,
      "t": 89142.76800000011,
      "d": 238.09500000000116,
      "v": 108
    },
    {
      "midi": 64,
      "hit": false,
      "t": 89142.76800000011,
      "d": 238.09500000000116,
      "v": 108
    },
    {
      "midi": 79,
      "hit": false,
      "t": 89142.76800000011,
      "d": 238.09500000000116,
      "v": 108
    },
    {
      "midi": 83,
      "hit": false,
      "t": 89142.76800000011,
      "d": 238.09500000000116,
      "v": 108
    },
    {
      "midi": 88,
      "hit": false,
      "t": 89142.76800000011,
      "d": 238.09500000000116,
      "v": 108
    },
    {
      "midi": 79,
      "hit": false,
      "t": 89142.76800000013,
      "d": 238.09500000000116,
      "v": 108
    },
    {
      "midi": 83,
      "hit": false,
      "t": 89142.76800000013,
      "d": 238.09500000000116,
      "v": 108
    },
    {
      "midi": 88,
      "hit": false,
      "t": 89142.76800000013,
      "d": 238.09500000000116,
      "v": 108
    },
    {
      "midi": 52,
      "hit": false,
      "t": 89142.76800000014,
      "d": 238.09500000000116,
      "v": 108
    },
    {
      "midi": 59,
      "hit": false,
      "t": 89142.76800000014,
      "d": 238.09500000000116,
      "v": 108
    },
    {
      "midi": 64,
      "hit": false,
      "t": 89142.76800000014,
      "d": 238.09500000000116,
      "v": 108
    },
    {
      "midi": 40,
      "hit": false,
      "t": 89142.7680000002,
      "d": 238.09500000000116,
      "v": 127
    },
    {
      "midi": 41,
      "hit": false,
      "t": 89142.7680000002,
      "d": 238.09500000000116,
      "v": 127
    },
    {
      "midi": 28,
      "hit": false,
      "t": 89142.76800000084,
      "d": 238.09500000000116,
      "v": 110
    },
    {
      "midi": 40,
      "hit": false,
      "t": 89142.76800000084,
      "d": 238.09500000000116,
      "v": 110
    },
    {
      "midi": 36,
      "hit": false,
      "t": 89428.48199999979,
      "d": 238.09500000000116,
      "v": 92
    },
    {
      "midi": 28,
      "hit": false,
      "t": 89428.48199999979,
      "d": 238.09500000000116,
      "v": 45
    },
    {
      "midi": 52,
      "hit": false,
      "t": 89428.48200000012,
      "d": 238.09500000000116,
      "v": 108
    },
    {
      "midi": 59,
      "hit": false,
      "t": 89428.48200000012,
      "d": 238.09500000000116,
      "v": 108
    },
    {
      "midi": 64,
      "hit": false,
      "t": 89428.48200000012,
      "d": 238.09500000000116,
      "v": 108
    },
    {
      "midi": 79,
      "hit": false,
      "t": 89428.48200000012,
      "d": 238.09500000000116,
      "v": 108
    },
    {
      "midi": 83,
      "hit": false,
      "t": 89428.48200000012,
      "d": 238.09500000000116,
      "v": 108
    },
    {
      "midi": 88,
      "hit": false,
      "t": 89428.48200000012,
      "d": 238.09500000000116,
      "v": 108
    },
    {
      "midi": 79,
      "hit": false,
      "t": 89428.48200000013,
      "d": 238.09500000000116,
      "v": 108
    },
    {
      "midi": 83,
      "hit": false,
      "t": 89428.48200000013,
      "d": 238.09500000000116,
      "v": 108
    },
    {
      "midi": 88,
      "hit": false,
      "t": 89428.48200000013,
      "d": 238.09500000000116,
      "v": 108
    },
    {
      "midi": 52,
      "hit": false,
      "t": 89428.48200000015,
      "d": 238.09500000000116,
      "v": 108
    },
    {
      "midi": 59,
      "hit": false,
      "t": 89428.48200000015,
      "d": 238.09500000000116,
      "v": 108
    },
    {
      "midi": 64,
      "hit": false,
      "t": 89428.48200000015,
      "d": 238.09500000000116,
      "v": 108
    },
    {
      "midi": 40,
      "hit": false,
      "t": 89428.48200000021,
      "d": 238.09500000000116,
      "v": 127
    },
    {
      "midi": 41,
      "hit": false,
      "t": 89428.48200000021,
      "d": 238.09500000000116,
      "v": 127
    },
    {
      "midi": 28,
      "hit": false,
      "t": 89428.48200000085,
      "d": 238.09500000000116,
      "v": 110
    },
    {
      "midi": 40,
      "hit": false,
      "t": 89428.48200000085,
      "d": 238.09500000000116,
      "v": 110
    },
    {
      "midi": 36,
      "hit": false,
      "t": 89714.19599999979,
      "d": 238.09500000000116,
      "v": 92
    },
    {
      "midi": 28,
      "hit": false,
      "t": 89714.19599999979,
      "d": 238.09500000000116,
      "v": 45
    },
    {
      "midi": 52,
      "hit": false,
      "t": 89714.19600000013,
      "d": 238.09500000000116,
      "v": 108
    },
    {
      "midi": 59,
      "hit": false,
      "t": 89714.19600000013,
      "d": 238.09500000000116,
      "v": 108
    },
    {
      "midi": 64,
      "hit": false,
      "t": 89714.19600000013,
      "d": 238.09500000000116,
      "v": 108
    },
    {
      "midi": 79,
      "hit": false,
      "t": 89714.19600000013,
      "d": 238.09500000000116,
      "v": 108
    },
    {
      "midi": 83,
      "hit": false,
      "t": 89714.19600000013,
      "d": 238.09500000000116,
      "v": 108
    },
    {
      "midi": 88,
      "hit": false,
      "t": 89714.19600000013,
      "d": 238.09500000000116,
      "v": 108
    },
    {
      "midi": 79,
      "hit": false,
      "t": 89714.19600000014,
      "d": 238.09500000000116,
      "v": 108
    },
    {
      "midi": 83,
      "hit": false,
      "t": 89714.19600000014,
      "d": 238.09500000000116,
      "v": 108
    },
    {
      "midi": 88,
      "hit": false,
      "t": 89714.19600000014,
      "d": 238.09500000000116,
      "v": 108
    },
    {
      "midi": 52,
      "hit": false,
      "t": 89714.19600000016,
      "d": 238.09500000000116,
      "v": 108
    },
    {
      "midi": 59,
      "hit": false,
      "t": 89714.19600000016,
      "d": 238.09500000000116,
      "v": 108
    },
    {
      "midi": 64,
      "hit": false,
      "t": 89714.19600000016,
      "d": 238.09500000000116,
      "v": 108
    },
    {
      "midi": 40,
      "hit": false,
      "t": 89714.19600000021,
      "d": 238.09500000000116,
      "v": 127
    },
    {
      "midi": 41,
      "hit": false,
      "t": 89714.19600000021,
      "d": 238.09500000000116,
      "v": 127
    },
    {
      "midi": 28,
      "hit": false,
      "t": 89714.19600000085,
      "d": 238.09500000000116,
      "v": 110
    },
    {
      "midi": 40,
      "hit": false,
      "t": 89714.19600000085,
      "d": 238.09500000000116,
      "v": 110
    },
    {
      "midi": 36,
      "hit": false,
      "t": 89999.9099999998,
      "d": 238.09500000000116,
      "v": 92
    },
    {
      "midi": 28,
      "hit": false,
      "t": 89999.9099999998,
      "d": 238.09500000000116,
      "v": 45
    },
    {
      "midi": 52,
      "hit": false,
      "t": 89999.91000000013,
      "d": 238.09500000000116,
      "v": 108
    },
    {
      "midi": 59,
      "hit": false,
      "t": 89999.91000000013,
      "d": 238.09500000000116,
      "v": 108
    },
    {
      "midi": 64,
      "hit": false,
      "t": 89999.91000000013,
      "d": 238.09500000000116,
      "v": 108
    },
    {
      "midi": 79,
      "hit": false,
      "t": 89999.91000000013,
      "d": 238.09500000000116,
      "v": 108
    },
    {
      "midi": 83,
      "hit": false,
      "t": 89999.91000000013,
      "d": 238.09500000000116,
      "v": 108
    },
    {
      "midi": 88,
      "hit": false,
      "t": 89999.91000000013,
      "d": 238.09500000000116,
      "v": 108
    },
    {
      "midi": 79,
      "hit": false,
      "t": 89999.91000000015,
      "d": 238.09500000000116,
      "v": 108
    },
    {
      "midi": 83,
      "hit": false,
      "t": 89999.91000000015,
      "d": 238.09500000000116,
      "v": 108
    },
    {
      "midi": 88,
      "hit": false,
      "t": 89999.91000000015,
      "d": 238.09500000000116,
      "v": 108
    },
    {
      "midi": 52,
      "hit": false,
      "t": 89999.91000000016,
      "d": 238.09500000000116,
      "v": 108
    },
    {
      "midi": 59,
      "hit": false,
      "t": 89999.91000000016,
      "d": 238.09500000000116,
      "v": 108
    },
    {
      "midi": 64,
      "hit": false,
      "t": 89999.91000000016,
      "d": 238.09500000000116,
      "v": 108
    },
    {
      "midi": 40,
      "hit": false,
      "t": 89999.91000000022,
      "d": 238.09500000000116,
      "v": 127
    },
    {
      "midi": 41,
      "hit": false,
      "t": 89999.91000000022,
      "d": 238.09500000000116,
      "v": 127
    },
    {
      "midi": 28,
      "hit": false,
      "t": 89999.91000000086,
      "d": 238.09500000000116,
      "v": 110
    },
    {
      "midi": 40,
      "hit": false,
      "t": 89999.91000000086,
      "d": 238.09500000000116,
      "v": 110
    },
    {
      "midi": 36,
      "hit": false,
      "t": 90285.6239999998,
      "d": 238.09500000000116,
      "v": 92
    },
    {
      "midi": 28,
      "hit": false,
      "t": 90285.6239999998,
      "d": 238.09500000000116,
      "v": 45
    },
    {
      "midi": 52,
      "hit": false,
      "t": 90285.62400000014,
      "d": 238.09500000000116,
      "v": 108
    },
    {
      "midi": 59,
      "hit": false,
      "t": 90285.62400000014,
      "d": 238.09500000000116,
      "v": 108
    },
    {
      "midi": 64,
      "hit": false,
      "t": 90285.62400000014,
      "d": 238.09500000000116,
      "v": 108
    },
    {
      "midi": 79,
      "hit": false,
      "t": 90285.62400000014,
      "d": 238.09500000000116,
      "v": 108
    },
    {
      "midi": 83,
      "hit": false,
      "t": 90285.62400000014,
      "d": 238.09500000000116,
      "v": 108
    },
    {
      "midi": 88,
      "hit": false,
      "t": 90285.62400000014,
      "d": 238.09500000000116,
      "v": 108
    },
    {
      "midi": 79,
      "hit": false,
      "t": 90285.62400000016,
      "d": 238.09500000000116,
      "v": 108
    },
    {
      "midi": 83,
      "hit": false,
      "t": 90285.62400000016,
      "d": 238.09500000000116,
      "v": 108
    },
    {
      "midi": 88,
      "hit": false,
      "t": 90285.62400000016,
      "d": 238.09500000000116,
      "v": 108
    },
    {
      "midi": 52,
      "hit": false,
      "t": 90285.62400000017,
      "d": 238.09500000000116,
      "v": 108
    },
    {
      "midi": 59,
      "hit": false,
      "t": 90285.62400000017,
      "d": 238.09500000000116,
      "v": 108
    },
    {
      "midi": 64,
      "hit": false,
      "t": 90285.62400000017,
      "d": 238.09500000000116,
      "v": 108
    },
    {
      "midi": 40,
      "hit": false,
      "t": 90285.62400000023,
      "d": 238.09500000000116,
      "v": 127
    },
    {
      "midi": 41,
      "hit": false,
      "t": 90285.62400000023,
      "d": 238.09500000000116,
      "v": 127
    },
    {
      "midi": 28,
      "hit": false,
      "t": 90285.62400000087,
      "d": 238.09500000000116,
      "v": 110
    },
    {
      "midi": 40,
      "hit": false,
      "t": 90285.62400000087,
      "d": 238.09500000000116,
      "v": 110
    },
    {
      "midi": 36,
      "hit": false,
      "t": 90571.33799999981,
      "d": 238.09500000000116,
      "v": 92
    },
    {
      "midi": 28,
      "hit": false,
      "t": 90571.33799999981,
      "d": 238.09500000000116,
      "v": 45
    },
    {
      "midi": 52,
      "hit": false,
      "t": 90571.33800000015,
      "d": 238.09500000000116,
      "v": 108
    },
    {
      "midi": 59,
      "hit": false,
      "t": 90571.33800000015,
      "d": 238.09500000000116,
      "v": 108
    },
    {
      "midi": 64,
      "hit": false,
      "t": 90571.33800000015,
      "d": 238.09500000000116,
      "v": 108
    },
    {
      "midi": 79,
      "hit": false,
      "t": 90571.33800000015,
      "d": 238.09500000000116,
      "v": 108
    },
    {
      "midi": 83,
      "hit": false,
      "t": 90571.33800000015,
      "d": 238.09500000000116,
      "v": 108
    },
    {
      "midi": 88,
      "hit": false,
      "t": 90571.33800000015,
      "d": 238.09500000000116,
      "v": 108
    },
    {
      "midi": 79,
      "hit": false,
      "t": 90571.33800000016,
      "d": 238.09500000000116,
      "v": 108
    },
    {
      "midi": 83,
      "hit": false,
      "t": 90571.33800000016,
      "d": 238.09500000000116,
      "v": 108
    },
    {
      "midi": 88,
      "hit": false,
      "t": 90571.33800000016,
      "d": 238.09500000000116,
      "v": 108
    },
    {
      "midi": 52,
      "hit": false,
      "t": 90571.33800000018,
      "d": 238.09500000000116,
      "v": 108
    },
    {
      "midi": 59,
      "hit": false,
      "t": 90571.33800000018,
      "d": 238.09500000000116,
      "v": 108
    },
    {
      "midi": 64,
      "hit": false,
      "t": 90571.33800000018,
      "d": 238.09500000000116,
      "v": 108
    },
    {
      "midi": 40,
      "hit": false,
      "t": 90571.33800000024,
      "d": 238.09500000000116,
      "v": 127
    },
    {
      "midi": 41,
      "hit": false,
      "t": 90571.33800000024,
      "d": 238.09500000000116,
      "v": 127
    },
    {
      "midi": 28,
      "hit": false,
      "t": 90571.33800000088,
      "d": 238.09500000000116,
      "v": 110
    },
    {
      "midi": 40,
      "hit": false,
      "t": 90571.33800000088,
      "d": 238.09500000000116,
      "v": 110
    },
    {
      "midi": 36,
      "hit": false,
      "t": 90857.05199999982,
      "d": 1642.8555000000051,
      "v": 92
    },
    {
      "midi": 28,
      "hit": false,
      "t": 90857.05199999982,
      "d": 380.9520000000048,
      "v": 45
    },
    {
      "midi": 52,
      "hit": false,
      "t": 90857.05200000016,
      "d": 380.9520000000048,
      "v": 108
    },
    {
      "midi": 59,
      "hit": false,
      "t": 90857.05200000016,
      "d": 380.9520000000048,
      "v": 108
    },
    {
      "midi": 64,
      "hit": false,
      "t": 90857.05200000016,
      "d": 380.9520000000048,
      "v": 108
    },
    {
      "midi": 79,
      "hit": false,
      "t": 90857.05200000016,
      "d": 380.9520000000048,
      "v": 108
    },
    {
      "midi": 83,
      "hit": false,
      "t": 90857.05200000016,
      "d": 380.9520000000048,
      "v": 108
    },
    {
      "midi": 88,
      "hit": false,
      "t": 90857.05200000016,
      "d": 380.9520000000048,
      "v": 108
    },
    {
      "midi": 79,
      "hit": false,
      "t": 90857.05200000017,
      "d": 380.9520000000048,
      "v": 108
    },
    {
      "midi": 83,
      "hit": false,
      "t": 90857.05200000017,
      "d": 380.9520000000048,
      "v": 108
    },
    {
      "midi": 88,
      "hit": false,
      "t": 90857.05200000017,
      "d": 380.9520000000048,
      "v": 108
    },
    {
      "midi": 52,
      "hit": false,
      "t": 90857.05200000019,
      "d": 380.9520000000048,
      "v": 108
    },
    {
      "midi": 59,
      "hit": false,
      "t": 90857.05200000019,
      "d": 380.9520000000048,
      "v": 108
    },
    {
      "midi": 64,
      "hit": false,
      "t": 90857.05200000019,
      "d": 380.9520000000048,
      "v": 108
    },
    {
      "midi": 40,
      "hit": false,
      "t": 90857.05200000024,
      "d": 1642.8555000000051,
      "v": 127
    },
    {
      "midi": 41,
      "hit": false,
      "t": 90857.05200000024,
      "d": 1642.8555000000051,
      "v": 127
    },
    {
      "midi": 49,
      "hit": false,
      "t": 90857.05200000024,
      "d": 1642.8555000000051,
      "v": 127
    },
    {
      "midi": 57,
      "hit": false,
      "t": 90857.05200000024,
      "d": 1642.8555000000051,
      "v": 127
    },
    {
      "midi": 28,
      "hit": false,
      "t": 90857.05200000088,
      "d": 428.5709999999963,
      "v": 110
    },
    {
      "midi": 40,
      "hit": false,
      "t": 90857.05200000088,
      "d": 428.5709999999963,
      "v": 110
    }
  ]
}