{
  "jsonPath": "Animes/Candy Candy MIDI Collection/terrys-song.json",
  "path": "Animes\\Candy Candy MIDI Collection\\Terrys Song.mid",
  "name": "Terrys Song",
  "difficulty": "Advanced",
  "bpm": 80,
  "notes": [
    {
      "midi": 48,
      "hit": false,
      "t": 0,
      "d": 375,
      "v": 127
    },
    {
      "midi": 55,
      "hit": false,
      "t": 375,
      "d": 375,
      "v": 127
    },
    {
      "midi": 79,
      "hit": false,
      "t": 750,
      "d": 750,
      "v": 127
    },
    {
      "midi": 64,
      "hit": false,
      "t": 750,
      "d": 375,
      "v": 127
    },
    {
      "midi": 55,
      "hit": false,
      "t": 1125,
      "d": 375,
      "v": 127
    },
    {
      "midi": 77,
      "hit": false,
      "t": 1500,
      "d": 375,
      "v": 127
    },
    {
      "midi": 62,
      "hit": false,
      "t": 1500,
      "d": 375,
      "v": 127
    },
    {
      "midi": 76,
      "hit": false,
      "t": 1875,
      "d": 375,
      "v": 127
    },
    {
      "midi": 55,
      "hit": false,
      "t": 1875,
      "d": 375,
      "v": 127
    },
    {
      "midi": 74,
      "hit": false,
      "t": 2250,
      "d": 375,
      "v": 127
    },
    {
      "midi": 64,
      "hit": false,
      "t": 2250,
      "d": 375,
      "v": 127
    },
    {
      "midi": 75,
      "hit": false,
      "t": 2625,
      "d": 375,
      "v": 127
    },
    {
      "midi": 76,
      "hit": false,
      "t": 3000,
      "d": 750,
      "v": 127
    },
    {
      "midi": 52,
      "hit": false,
      "t": 3000,
      "d": 375,
      "v": 127
    },
    {
      "midi": 59,
      "hit": false,
      "t": 3375,
      "d": 375,
      "v": 127
    },
    {
      "midi": 88,
      "hit": false,
      "t": 3750,
      "d": 750,
      "v": 127
    },
    {
      "midi": 64,
      "hit": false,
      "t": 3750,
      "d": 375,
      "v": 127
    },
    {
      "midi": 68,
      "hit": false,
      "t": 4125,
      "d": 375,
      "v": 127
    },
    {
      "midi": 86,
      "hit": false,
      "t": 4500,
      "d": 375,
      "v": 127
    },
    {
      "midi": 71,
      "hit": false,
      "t": 4500,
      "d": 750,
      "v": 127
    },
    {
      "midi": 84,
      "hit": false,
      "t": 4875,
      "d": 375,
      "v": 127
    },
    {
      "midi": 83,
      "hit": false,
      "t": 5250,
      "d": 375,
      "v": 127
    },
    {
      "midi": 68,
      "hit": false,
      "t": 5250,
      "d": 750,
      "v": 127
    },
    {
      "midi": 86,
      "hit": false,
      "t": 5625,
      "d": 375,
      "v": 127
    },
    {
      "midi": 84,
      "hit": false,
      "t": 6000,
      "d": 375,
      "v": 127
    },
    {
      "midi": 53,
      "hit": false,
      "t": 6000,
      "d": 375,
      "v": 127
    },
    {
      "midi": 81,
      "hit": false,
      "t": 6375,
      "d": 375,
      "v": 127
    },
    {
      "midi": 60,
      "hit": false,
      "t": 6375,
      "d": 375,
      "v": 127
    },
    {
      "midi": 71,
      "hit": false,
      "t": 6750,
      "d": 375,
      "v": 127
    },
    {
      "midi": 69,
      "hit": false,
      "t": 6750,
      "d": 750,
      "v": 127
    },
    {
      "midi": 72,
      "hit": false,
      "t": 7125,
      "d": 375,
      "v": 127
    },
    {
      "midi": 79,
      "hit": false,
      "t": 7500,
      "d": 375,
      "v": 127
    },
    {
      "midi": 50,
      "hit": false,
      "t": 7500,
      "d": 375,
      "v": 127
    },
    {
      "midi": 77,
      "hit": false,
      "t": 7875,
      "d": 375,
      "v": 127
    },
    {
      "midi": 57,
      "hit": false,
      "t": 7875,
      "d": 375,
      "v": 127
    },
    {
      "midi": 69,
      "hit": false,
      "t": 8250,
      "d": 375,
      "v": 127
    },
    {
      "midi": 65,
      "hit": false,
      "t": 8250,
      "d": 375,
      "v": 127
    },
    {
      "midi": 72,
      "hit": false,
      "t": 8625,
      "d": 375,
      "v": 127
    },
    {
      "midi": 76,
      "hit": false,
      "t": 9000,
      "d": 750,
      "v": 127
    },
    {
      "midi": 43,
      "hit": false,
      "t": 9000,
      "d": 375,
      "v": 127
    },
    {
      "midi": 50,
      "hit": false,
      "t": 9375,
      "d": 375,
      "v": 127
    },
    {
      "midi": 74,
      "hit": false,
      "t": 9750,
      "d": 750,
      "v": 127
    },
    {
      "midi": 59,
      "hit": false,
      "t": 9750,
      "d": 375,
      "v": 127
    },
    {
      "midi": 50,
      "hit": false,
      "t": 10125,
      "d": 375,
      "v": 127
    },
    {
      "midi": 69,
      "hit": false,
      "t": 10500,
      "d": 750,
      "v": 127
    },
    {
      "midi": 53,
      "hit": false,
      "t": 10500,
      "d": 750,
      "v": 127
    },
    {
      "midi": 57,
      "hit": false,
      "t": 10500,
      "d": 750,
      "v": 127
    },
    {
      "midi": 60,
      "hit": false,
      "t": 10500,
      "d": 750,
      "v": 127
    },
    {
      "midi": 71,
      "hit": false,
      "t": 11250,
      "d": 750,
      "v": 127
    },
    {
      "midi": 59,
      "hit": false,
      "t": 11250,
      "d": 750,
      "v": 127
    },
    {
      "midi": 55,
      "hit": false,
      "t": 11250,
      "d": 750,
      "v": 127
    },
    {
      "midi": 53,
      "hit": false,
      "t": 11250,
      "d": 750,
      "v": 127
    },
    {
      "midi": 67,
      "hit": false,
      "t": 12000,
      "d": 750,
      "v": 127
    },
    {
      "midi": 48,
      "hit": false,
      "t": 12000,
      "d": 375,
      "v": 127
    },
    {
      "midi": 55,
      "hit": false,
      "t": 12375,
      "d": 375,
      "v": 127
    },
    {
      "midi": 79,
      "hit": false,
      "t": 12750,
      "d": 750,
      "v": 127
    },
    {
      "midi": 64,
      "hit": false,
      "t": 12750,
      "d": 375,
      "v": 127
    },
    {
      "midi": 55,
      "hit": false,
      "t": 13125,
      "d": 375,
      "v": 127
    },
    {
      "midi": 77,
      "hit": false,
      "t": 13500,
      "d": 375,
      "v": 127
    },
    {
      "midi": 62,
      "hit": false,
      "t": 13500,
      "d": 375,
      "v": 127
    },
    {
      "midi": 76,
      "hit": false,
      "t": 13875,
      "d": 375,
      "v": 127
    },
    {
      "midi": 55,
      "hit": false,
      "t": 13875,
      "d": 375,
      "v": 127
    },
    {
      "midi": 74,
      "hit": false,
      "t": 14250,
      "d": 375,
      "v": 127
    },
    {
      "midi": 64,
      "hit": false,
      "t": 14250,
      "d": 375,
      "v": 127
    },
    {
      "midi": 75,
      "hit": false,
      "t": 14625,
      "d": 375,
      "v": 127
    },
    {
      "midi": 55,
      "hit": false,
      "t": 14625,
      "d": 375,
      "v": 127
    },
    {
      "midi": 76,
      "hit": false,
      "t": 15000,
      "d": 750,
      "v": 127
    },
    {
      "midi": 52,
      "hit": false,
      "t": 15000,
      "d": 375,
      "v": 127
    },
    {
      "midi": 59,
      "hit": false,
      "t": 15375,
      "d": 375,
      "v": 127
    },
    {
      "midi": 88,
      "hit": false,
      "t": 15750,
      "d": 750,
      "v": 127
    },
    {
      "midi": 64,
      "hit": false,
      "t": 15750,
      "d": 375,
      "v": 127
    },
    {
      "midi": 68,
      "hit": false,
      "t": 16125,
      "d": 375,
      "v": 127
    },
    {
      "midi": 86,
      "hit": false,
      "t": 16500,
      "d": 375,
      "v": 127
    },
    {
      "midi": 71,
      "hit": false,
      "t": 16500,
      "d": 375,
      "v": 127
    },
    {
      "midi": 84,
      "hit": false,
      "t": 16875,
      "d": 375,
      "v": 127
    },
    {
      "midi": 68,
      "hit": false,
      "t": 16875,
      "d": 375,
      "v": 127
    },
    {
      "midi": 83,
      "hit": false,
      "t": 17250,
      "d": 375,
      "v": 127
    },
    {
      "midi": 74,
      "hit": false,
      "t": 17250,
      "d": 750,
      "v": 127
    },
    {
      "midi": 86,
      "hit": false,
      "t": 17625,
      "d": 375,
      "v": 127
    },
    {
      "midi": 84,
      "hit": false,
      "t": 18000,
      "d": 375,
      "v": 127
    },
    {
      "midi": 53,
      "hit": false,
      "t": 18000,
      "d": 375,
      "v": 127
    },
    {
      "midi": 81,
      "hit": false,
      "t": 18375,
      "d": 375,
      "v": 127
    },
    {
      "midi": 60,
      "hit": false,
      "t": 18375,
      "d": 375,
      "v": 127
    },
    {
      "midi": 71,
      "hit": false,
      "t": 18750,
      "d": 375,
      "v": 127
    },
    {
      "midi": 69,
      "hit": false,
      "t": 18750,
      "d": 750,
      "v": 127
    },
    {
      "midi": 72,
      "hit": false,
      "t": 19125,
      "d": 375,
      "v": 127
    },
    {
      "midi": 79,
      "hit": false,
      "t": 19500,
      "d": 375,
      "v": 127
    },
    {
      "midi": 50,
      "hit": false,
      "t": 19500,
      "d": 375,
      "v": 127
    },
    {
      "midi": 77,
      "hit": false,
      "t": 19875,
      "d": 375,
      "v": 127
    },
    {
      "midi": 57,
      "hit": false,
      "t": 19875,
      "d": 375,
      "v": 127
    },
    {
      "midi": 69,
      "hit": false,
      "t": 20250,
      "d": 375,
      "v": 127
    },
    {
      "midi": 65,
      "hit": false,
      "t": 20250,
      "d": 750,
      "v": 127
    },
    {
      "midi": 71,
      "hit": false,
      "t": 20625,
      "d": 375,
      "v": 127
    },
    {
      "midi": 72,
      "hit": false,
      "t": 21000,
      "d": 375,
      "v": 127
    },
    {
      "midi": 44,
      "hit": false,
      "t": 21000,
      "d": 375,
      "v": 127
    },
    {
      "midi": 70,
      "hit": false,
      "t": 21375,
      "d": 375,
      "v": 127
    },
    {
      "midi": 51,
      "hit": false,
      "t": 21375,
      "d": 375,
      "v": 127
    },
    {
      "midi": 68,
      "hit": false,
      "t": 21750,
      "d": 375,
      "v": 127
    },
    {
      "midi": 60,
      "hit": false,
      "t": 21750,
      "d": 375,
      "v": 127
    },
    {
      "midi": 63,
      "hit": false,
      "t": 22125,
      "d": 375,
      "v": 127
    },
    {
      "midi": 51,
      "hit": false,
      "t": 22125,
      "d": 375,
      "v": 127
    },
    {
      "midi": 64,
      "hit": false,
      "t": 22500,
      "d": 1500,
      "v": 127
    },
    {
      "midi": 48,
      "hit": false,
      "t": 22500,
      "d": 375,
      "v": 127
    },
    {
      "midi": 52,
      "hit": false,
      "t": 22875,
      "d": 375,
      "v": 127
    },
    {
      "midi": 60,
      "hit": false,
      "t": 23250,
      "d": 750,
      "v": 127
    },
    {
      "midi": 77,
      "hit": false,
      "t": 24000,
      "d": 375,
      "v": 127
    },
    {
      "midi": 50,
      "hit": false,
      "t": 24000,
      "d": 375,
      "v": 127
    },
    {
      "midi": 76,
      "hit": false,
      "t": 24375,
      "d": 375,
      "v": 127
    },
    {
      "midi": 57,
      "hit": false,
      "t": 24375,
      "d": 375,
      "v": 127
    },
    {
      "midi": 77,
      "hit": false,
      "t": 24750,
      "d": 562.5,
      "v": 127
    },
    {
      "midi": 65,
      "hit": false,
      "t": 24750,
      "d": 750,
      "v": 127
    },
    {
      "midi": 81,
      "hit": false,
      "t": 25375,
      "d": 62.5,
      "v": 127
    },
    {
      "midi": 83,
      "hit": false,
      "t": 25437.5,
      "d": 62.5,
      "v": 127
    },
    {
      "midi": 84,
      "hit": false,
      "t": 25500,
      "d": 750,
      "v": 127
    },
    {
      "midi": 43,
      "hit": false,
      "t": 25500,
      "d": 375,
      "v": 127
    },
    {
      "midi": 50,
      "hit": false,
      "t": 25875,
      "d": 375,
      "v": 127
    },
    {
      "midi": 83,
      "hit": false,
      "t": 26250,
      "d": 375,
      "v": 127
    },
    {
      "midi": 59,
      "hit": false,
      "t": 26250,
      "d": 375,
      "v": 127
    },
    {
      "midi": 86,
      "hit": false,
      "t": 26625,
      "d": 375,
      "v": 127
    },
    {
      "midi": 77,
      "hit": false,
      "t": 26625,
      "d": 375,
      "v": 127
    },
    {
      "midi": 84,
      "hit": false,
      "t": 27000,
      "d": 750,
      "v": 127
    },
    {
      "midi": 57,
      "hit": false,
      "t": 27000,
      "d": 375,
      "v": 127
    },
    {
      "midi": 64,
      "hit": false,
      "t": 27375,
      "d": 375,
      "v": 127
    },
    {
      "midi": 76,
      "hit": false,
      "t": 27750,
      "d": 750,
      "v": 127
    },
    {
      "midi": 69,
      "hit": false,
      "t": 27750,
      "d": 375,
      "v": 127
    },
    {
      "midi": 64,
      "hit": false,
      "t": 28125,
      "d": 375,
      "v": 127
    },
    {
      "midi": 71,
      "hit": false,
      "t": 28500,
      "d": 750,
      "v": 127
    },
    {
      "midi": 57,
      "hit": false,
      "t": 28500,
      "d": 375,
      "v": 127
    },
    {
      "midi": 64,
      "hit": false,
      "t": 28875,
      "d": 375,
      "v": 127
    },
    {
      "midi": 72,
      "hit": false,
      "t": 29250,
      "d": 750,
      "v": 127
    },
    {
      "midi": 67,
      "hit": false,
      "t": 29250,
      "d": 375,
      "v": 127
    },
    {
      "midi": 64,
      "hit": false,
      "t": 29625,
      "d": 375,
      "v": 127
    },
    {
      "midi": 79,
      "hit": false,
      "t": 30000,
      "d": 375,
      "v": 127
    },
    {
      "midi": 50,
      "hit": false,
      "t": 30000,
      "d": 375,
      "v": 127
    },
    {
      "midi": 77,
      "hit": false,
      "t": 30375,
      "d": 375,
      "v": 127
    },
    {
      "midi": 57,
      "hit": false,
      "t": 30375,
      "d": 375,
      "v": 127
    },
    {
      "midi": 69,
      "hit": false,
      "t": 30750,
      "d": 375,
      "v": 127
    },
    {
      "midi": 65,
      "hit": false,
      "t": 30750,
      "d": 375,
      "v": 127
    },
    {
      "midi": 71,
      "hit": false,
      "t": 31125,
      "d": 375,
      "v": 127
    },
    {
      "midi": 57,
      "hit": false,
      "t": 31125,
      "d": 375,
      "v": 127
    },
    {
      "midi": 72,
      "hit": false,
      "t": 31500,
      "d": 750,
      "v": 127
    },
    {
      "midi": 50,
      "hit": false,
      "t": 31500,
      "d": 375,
      "v": 127
    },
    {
      "midi": 57,
      "hit": false,
      "t": 31875,
      "d": 375,
      "v": 127
    },
    {
      "midi": 67,
      "hit": false,
      "t": 32250,
      "d": 375,
      "v": 127
    },
    {
      "midi": 50,
      "hit": false,
      "t": 32250,
      "d": 375,
      "v": 127
    },
    {
      "midi": 43,
      "hit": false,
      "t": 32250,
      "d": 375,
      "v": 127
    },
    {
      "midi": 77,
      "hit": false,
      "t": 32625,
      "d": 375,
      "v": 127
    },
    {
      "midi": 53,
      "hit": false,
      "t": 32625,
      "d": 375,
      "v": 127
    },
    {
      "midi": 77,
      "hit": false,
      "t": 33000,
      "d": 750,
      "v": 127
    },
    {
      "midi": 48,
      "hit": false,
      "t": 33000,
      "d": 375,
      "v": 127
    },
    {
      "midi": 55,
      "hit": false,
      "t": 33375,
      "d": 375,
      "v": 127
    },
    {
      "midi": 76,
      "hit": false,
      "t": 33750,
      "d": 750,
      "v": 127
    },
    {
      "midi": 64,
      "hit": false,
      "t": 33750,
      "d": 375,
      "v": 127
    },
    {
      "midi": 55,
      "hit": false,
      "t": 34125,
      "d": 375,
      "v": 127
    },
    {
      "midi": 76,
      "hit": false,
      "t": 34500,
      "d": 1500,
      "v": 127
    },
    {
      "midi": 67,
      "hit": false,
      "t": 34500,
      "d": 375,
      "v": 127
    },
    {
      "midi": 60,
      "hit": false,
      "t": 34875,
      "d": 375,
      "v": 127
    },
    {
      "midi": 64,
      "hit": false,
      "t": 35250,
      "d": 375,
      "v": 127
    },
    {
      "midi": 60,
      "hit": false,
      "t": 35625,
      "d": 375,
      "v": 127
    },
    {
      "midi": 77,
      "hit": false,
      "t": 36000,
      "d": 375,
      "v": 127
    },
    {
      "midi": 50,
      "hit": false,
      "t": 36000,
      "d": 375,
      "v": 127
    },
    {
      "midi": 76,
      "hit": false,
      "t": 36375,
      "d": 375,
      "v": 127
    },
    {
      "midi": 57,
      "hit": false,
      "t": 36375,
      "d": 375,
      "v": 127
    },
    {
      "midi": 77,
      "hit": false,
      "t": 36750,
      "d": 375,
      "v": 127
    },
    {
      "midi": 65,
      "hit": false,
      "t": 36750,
      "d": 750,
      "v": 127
    },
    {
      "midi": 84,
      "hit": false,
      "t": 37125,
      "d": 375,
      "v": 127
    },
    {
      "midi": 83,
      "hit": false,
      "t": 37500,
      "d": 750,
      "v": 127
    },
    {
      "midi": 55,
      "hit": false,
      "t": 37500,
      "d": 375,
      "v": 127
    },
    {
      "midi": 62,
      "hit": false,
      "t": 37875,
      "d": 375,
      "v": 127
    },
    {
      "midi": 86,
      "hit": false,
      "t": 38250,
      "d": 750,
      "v": 127
    },
    {
      "midi": 71,
      "hit": false,
      "t": 38250,
      "d": 375,
      "v": 127
    },
    {
      "midi": 62,
      "hit": false,
      "t": 38625,
      "d": 375,
      "v": 127
    },
    {
      "midi": 86,
      "hit": false,
      "t": 39000,
      "d": 750,
      "v": 127
    },
    {
      "midi": 57,
      "hit": false,
      "t": 39000,
      "d": 375,
      "v": 127
    },
    {
      "midi": 64,
      "hit": false,
      "t": 39375,
      "d": 375,
      "v": 127
    },
    {
      "midi": 76,
      "hit": false,
      "t": 39750,
      "d": 750,
      "v": 127
    },
    {
      "midi": 69,
      "hit": false,
      "t": 39750,
      "d": 375,
      "v": 127
    },
    {
      "midi": 64,
      "hit": false,
      "t": 40125,
      "d": 375,
      "v": 127
    },
    {
      "midi": 83,
      "hit": false,
      "t": 40500,
      "d": 750,
      "v": 127
    },
    {
      "midi": 63,
      "hit": false,
      "t": 40500,
      "d": 375,
      "v": 127
    },
    {
      "midi": 71,
      "hit": false,
      "t": 40875,
      "d": 375,
      "v": 127
    },
    {
      "midi": 81,
      "hit": false,
      "t": 41250,
      "d": 750,
      "v": 127
    },
    {
      "midi": 66,
      "hit": false,
      "t": 41250,
      "d": 375,
      "v": 127
    },
    {
      "midi": 71,
      "hit": false,
      "t": 41625,
      "d": 375,
      "v": 127
    },
    {
      "midi": 79,
      "hit": false,
      "t": 42000,
      "d": 750,
      "v": 127
    },
    {
      "midi": 72,
      "hit": false,
      "t": 42000,
      "d": 750,
      "v": 127
    },
    {
      "midi": 67,
      "hit": false,
      "t": 42000,
      "d": 375,
      "v": 127
    },
    {
      "midi": 64,
      "hit": false,
      "t": 42000,
      "d": 375,
      "v": 127
    },
    {
      "midi": 60,
      "hit": false,
      "t": 42000,
      "d": 375,
      "v": 127
    },
    {
      "midi": 55,
      "hit": false,
      "t": 42000,
      "d": 375,
      "v": 127
    },
    {
      "midi": 67,
      "hit": false,
      "t": 42375,
      "d": 375,
      "v": 127
    },
    {
      "midi": 78,
      "hit": false,
      "t": 42750,
      "d": 375,
      "v": 127
    },
    {
      "midi": 64,
      "hit": false,
      "t": 42750,
      "d": 375,
      "v": 127
    },
    {
      "midi": 79,
      "hit": false,
      "t": 43125,
      "d": 375,
      "v": 127
    },
    {
      "midi": 67,
      "hit": false,
      "t": 43125,
      "d": 375,
      "v": 127
    },
    {
      "midi": 84,
      "hit": false,
      "t": 43500,
      "d": 375,
      "v": 127
    },
    {
      "midi": 62,
      "hit": false,
      "t": 43500,
      "d": 375,
      "v": 127
    },
    {
      "midi": 81,
      "hit": false,
      "t": 43875,
      "d": 375,
      "v": 127
    },
    {
      "midi": 69,
      "hit": false,
      "t": 43875,
      "d": 375,
      "v": 127
    },
    {
      "midi": 76,
      "hit": false,
      "t": 44250,
      "d": 375,
      "v": 127
    },
    {
      "midi": 72,
      "hit": false,
      "t": 44250,
      "d": 750,
      "v": 127
    },
    {
      "midi": 77,
      "hit": false,
      "t": 44625,
      "d": 375,
      "v": 127
    },
    {
      "midi": 74,
      "hit": false,
      "t": 45000,
      "d": 750,
      "v": 127
    },
    {
      "midi": 71,
      "hit": false,
      "t": 45750,
      "d": 750,
      "v": 127
    },
    {
      "midi": 67,
      "hit": false,
      "t": 45750,
      "d": 750,
      "v": 127
    },
    {
      "midi": 62,
      "hit": false,
      "t": 45750,
      "d": 750,
      "v": 127
    },
    {
      "midi": 69,
      "hit": false,
      "t": 46500,
      "d": 750,
      "v": 127
    },
    {
      "midi": 65,
      "hit": false,
      "t": 46500,
      "d": 750,
      "v": 127
    },
    {
      "midi": 60,
      "hit": false,
      "t": 46500,
      "d": 750,
      "v": 127
    },
    {
      "midi": 50,
      "hit": false,
      "t": 47250,
      "d": 750,
      "v": 127
    },
    {
      "midi": 53,
      "hit": false,
      "t": 47273.4375,
      "d": 750,
      "v": 127
    },
    {
      "midi": 56,
      "hit": false,
      "t": 47296.875,
      "d": 750,
      "v": 127
    },
    {
      "midi": 62,
      "hit": false,
      "t": 47320.3125,
      "d": 750,
      "v": 127
    },
    {
      "midi": 65,
      "hit": false,
      "t": 47343.75,
      "d": 750,
      "v": 127
    },
    {
      "midi": 68,
      "hit": false,
      "t": 47367.1875,
      "d": 750,
      "v": 127
    },
    {
      "midi": 79,
      "hit": false,
      "t": 48000,
      "d": 750,
      "v": 127
    },
    {
      "midi": 76,
      "hit": false,
      "t": 48000,
      "d": 750,
      "v": 127
    },
    {
      "midi": 72,
      "hit": false,
      "t": 48000,
      "d": 750,
      "v": 127
    },
    {
      "midi": 67,
      "hit": false,
      "t": 48000,
      "d": 750,
      "v": 127
    },
    {
      "midi": 36,
      "hit": false,
      "t": 48000,
      "d": 375,
      "v": 127
    },
    {
      "midi": 43,
      "hit": false,
      "t": 48375,
      "d": 375,
      "v": 127
    },
    {
      "midi": 79,
      "hit": false,
      "t": 48750,
      "d": 750,
      "v": 127
    },
    {
      "midi": 84,
      "hit": false,
      "t": 48750,
      "d": 750,
      "v": 127
    },
    {
      "midi": 91,
      "hit": false,
      "t": 48750,
      "d": 750,
      "v": 127
    },
    {
      "midi": 48,
      "hit": false,
      "t": 48750,
      "d": 375,
      "v": 127
    },
    {
      "midi": 52,
      "hit": false,
      "t": 49125,
      "d": 375,
      "v": 127
    },
    {
      "midi": 89,
      "hit": false,
      "t": 49500,
      "d": 375,
      "v": 127
    },
    {
      "midi": 77,
      "hit": false,
      "t": 49500,
      "d": 375,
      "v": 127
    },
    {
      "midi": 60,
      "hit": false,
      "t": 49500,
      "d": 187.5,
      "v": 127
    },
    {
      "midi": 64,
      "hit": false,
      "t": 49687.5,
      "d": 187.5,
      "v": 127
    },
    {
      "midi": 88,
      "hit": false,
      "t": 49875,
      "d": 375,
      "v": 127
    },
    {
      "midi": 76,
      "hit": false,
      "t": 49875,
      "d": 375,
      "v": 127
    },
    {
      "midi": 60,
      "hit": false,
      "t": 49875,
      "d": 375,
      "v": 127
    },
    {
      "midi": 87,
      "hit": false,
      "t": 50250,
      "d": 375,
      "v": 127
    },
    {
      "midi": 75,
      "hit": false,
      "t": 50250,
      "d": 375,
      "v": 127
    },
    {
      "midi": 67,
      "hit": false,
      "t": 50250,
      "d": 375,
      "v": 127
    },
    {
      "midi": 88,
      "hit": false,
      "t": 50625,
      "d": 375,
      "v": 127
    },
    {
      "midi": 76,
      "hit": false,
      "t": 50625,
      "d": 375,
      "v": 127
    },
    {
      "midi": 60,
      "hit": false,
      "t": 50625,
      "d": 375,
      "v": 127
    },
    {
      "midi": 76,
      "hit": false,
      "t": 51000,
      "d": 750,
      "v": 127
    },
    {
      "midi": 80,
      "hit": false,
      "t": 51000,
      "d": 750,
      "v": 127
    },
    {
      "midi": 88,
      "hit": false,
      "t": 51000,
      "d": 750,
      "v": 127
    },
    {
      "midi": 52,
      "hit": false,
      "t": 51000,
      "d": 375,
      "v": 127
    },
    {
      "midi": 59,
      "hit": false,
      "t": 51375,
      "d": 375,
      "v": 127
    },
    {
      "midi": 100,
      "hit": false,
      "t": 51750,
      "d": 562.5,
      "v": 127
    },
    {
      "midi": 88,
      "hit": false,
      "t": 51750,
      "d": 750,
      "v": 127
    },
    {
      "midi": 92,
      "hit": false,
      "t": 51750,
      "d": 750,
      "v": 127
    },
    {
      "midi": 64,
      "hit": false,
      "t": 51750,
      "d": 375,
      "v": 127
    },
    {
      "midi": 68,
      "hit": false,
      "t": 52125,
      "d": 375,
      "v": 127
    },
    {
      "midi": 98,
      "hit": false,
      "t": 52375,
      "d": 62.5,
      "v": 127
    },
    {
      "midi": 100,
      "hit": false,
      "t": 52437.5,
      "d": 62.5,
      "v": 127
    },
    {
      "midi": 98,
      "hit": false,
      "t": 52500,
      "d": 375,
      "v": 127
    },
    {
      "midi": 86,
      "hit": false,
      "t": 52500,
      "d": 375,
      "v": 127
    },
    {
      "midi": 64,
      "hit": false,
      "t": 52500,
      "d": 375,
      "v": 127
    },
    {
      "midi": 96,
      "hit": false,
      "t": 52875,
      "d": 375,
      "v": 127
    },
    {
      "midi": 84,
      "hit": false,
      "t": 52875,
      "d": 375,
      "v": 127
    },
    {
      "midi": 68,
      "hit": false,
      "t": 52875,
      "d": 375,
      "v": 127
    },
    {
      "midi": 83,
      "hit": false,
      "t": 53250,
      "d": 375,
      "v": 127
    },
    {
      "midi": 95,
      "hit": false,
      "t": 53250,
      "d": 375,
      "v": 127
    },
    {
      "midi": 74,
      "hit": false,
      "t": 53250,
      "d": 750,
      "v": 127
    },
    {
      "midi": 86,
      "hit": false,
      "t": 53625,
      "d": 375,
      "v": 127
    },
    {
      "midi": 98,
      "hit": false,
      "t": 53625,
      "d": 375,
      "v": 127
    },
    {
      "midi": 84,
      "hit": false,
      "t": 54000,
      "d": 375,
      "v": 127
    },
    {
      "midi": 89,
      "hit": false,
      "t": 54000,
      "d": 375,
      "v": 127
    },
    {
      "midi": 96,
      "hit": false,
      "t": 54000,
      "d": 375,
      "v": 127
    },
    {
      "midi": 77,
      "hit": false,
      "t": 54000,
      "d": 1125,
      "v": 127
    },
    {
      "midi": 72,
      "hit": false,
      "t": 54000,
      "d": 1125,
      "v": 127
    },
    {
      "midi": 69,
      "hit": false,
      "t": 54000,
      "d": 1125,
      "v": 127
    },
    {
      "midi": 65,
      "hit": false,
      "t": 54000,
      "d": 1125,
      "v": 127
    },
    {
      "midi": 81,
      "hit": false,
      "t": 54375,
      "d": 375,
      "v": 127
    },
    {
      "midi": 93,
      "hit": false,
      "t": 54375,
      "d": 375,
      "v": 127
    },
    {
      "midi": 83,
      "hit": false,
      "t": 54750,
      "d": 375,
      "v": 127
    },
    {
      "midi": 71,
      "hit": false,
      "t": 54750,
      "d": 375,
      "v": 127
    },
    {
      "midi": 84,
      "hit": false,
      "t": 55125,
      "d": 375,
      "v": 127
    },
    {
      "midi": 72,
      "hit": false,
      "t": 55125,
      "d": 375,
      "v": 127
    },
    {
      "midi": 79,
      "hit": false,
      "t": 55500,
      "d": 375,
      "v": 127
    },
    {
      "midi": 84,
      "hit": false,
      "t": 55500,
      "d": 375,
      "v": 127
    },
    {
      "midi": 91,
      "hit": false,
      "t": 55500,
      "d": 375,
      "v": 127
    },
    {
      "midi": 69,
      "hit": false,
      "t": 55500,
      "d": 375,
      "v": 127
    },
    {
      "midi": 65,
      "hit": false,
      "t": 55500,
      "d": 375,
      "v": 127
    },
    {
      "midi": 62,
      "hit": false,
      "t": 55500,
      "d": 375,
      "v": 127
    },
    {
      "midi": 57,
      "hit": false,
      "t": 55500,
      "d": 375,
      "v": 127
    },
    {
      "midi": 77,
      "hit": false,
      "t": 55875,
      "d": 375,
      "v": 127
    },
    {
      "midi": 89,
      "hit": false,
      "t": 55875,
      "d": 375,
      "v": 127
    },
    {
      "midi": 57,
      "hit": false,
      "t": 55875,
      "d": 375,
      "v": 127
    },
    {
      "midi": 69,
      "hit": false,
      "t": 56250,
      "d": 375,
      "v": 127
    },
    {
      "midi": 65,
      "hit": false,
      "t": 56250,
      "d": 375,
      "v": 127
    },
    {
      "midi": 71,
      "hit": false,
      "t": 56625,
      "d": 375,
      "v": 127
    },
    {
      "midi": 72,
      "hit": false,
      "t": 57000,
      "d": 375,
      "v": 127
    },
    {
      "midi": 56,
      "hit": false,
      "t": 57000,
      "d": 375,
      "v": 127
    },
    {
      "midi": 77,
      "hit": false,
      "t": 57375,
      "d": 375,
      "v": 127
    },
    {
      "midi": 63,
      "hit": false,
      "t": 57375,
      "d": 375,
      "v": 127
    },
    {
      "midi": 75,
      "hit": false,
      "t": 57750,
      "d": 375,
      "v": 127
    },
    {
      "midi": 60,
      "hit": false,
      "t": 57750,
      "d": 375,
      "v": 127
    },
    {
      "midi": 82,
      "hit": false,
      "t": 58125,
      "d": 375,
      "v": 127
    },
    {
      "midi": 68,
      "hit": false,
      "t": 58125,
      "d": 375,
      "v": 127
    },
    {
      "midi": 79,
      "hit": false,
      "t": 58500,
      "d": 375,
      "v": 127
    },
    {
      "midi": 63,
      "hit": false,
      "t": 58500,
      "d": 375,
      "v": 127
    },
    {
      "midi": 84,
      "hit": false,
      "t": 58875,
      "d": 375,
      "v": 127
    },
    {
      "midi": 72,
      "hit": false,
      "t": 58875,
      "d": 375,
      "v": 127
    },
    {
      "midi": 82,
      "hit": false,
      "t": 59250,
      "d": 375,
      "v": 127
    },
    {
      "midi": 75,
      "hit": false,
      "t": 59250,
      "d": 375,
      "v": 127
    },
    {
      "midi": 80,
      "hit": false,
      "t": 59625,
      "d": 375,
      "v": 127
    },
    {
      "midi": 68,
      "hit": false,
      "t": 59625,
      "d": 375,
      "v": 127
    },
    {
      "midi": 84,
      "hit": false,
      "t": 59648.4375,
      "d": 351.5625,
      "v": 127
    },
    {
      "midi": 89,
      "hit": false,
      "t": 59671.875,
      "d": 375,
      "v": 127
    },
    {
      "midi": 79,
      "hit": false,
      "t": 60000,
      "d": 750,
      "v": 127
    },
    {
      "midi": 84,
      "hit": false,
      "t": 60000,
      "d": 750,
      "v": 127
    },
    {
      "midi": 88,
      "hit": false,
      "t": 60000,
      "d": 750,
      "v": 127
    },
    {
      "midi": 91,
      "hit": false,
      "t": 60000,
      "d": 750,
      "v": 127
    },
    {
      "midi": 48,
      "hit": false,
      "t": 60000,
      "d": 375,
      "v": 127
    },
    {
      "midi": 55,
      "hit": false,
      "t": 60375,
      "d": 2625,
      "v": 127
    },
    {
      "midi": 64,
      "hit": false,
      "t": 60750,
      "d": 187.5,
      "v": 127
    },
    {
      "midi": 67,
      "hit": false,
      "t": 60937.5,
      "d": 187.5,
      "v": 127
    },
    {
      "midi": 69,
      "hit": false,
      "t": 61125,
      "d": 187.5,
      "v": 127
    },
    {
      "midi": 74,
      "hit": false,
      "t": 61312.5,
      "d": 187.5,
      "v": 127
    },
    {
      "midi": 76,
      "hit": false,
      "t": 61500,
      "d": 187.5,
      "v": 127
    },
    {
      "midi": 81,
      "hit": false,
      "t": 61687.5,
      "d": 187.5,
      "v": 127
    },
    {
      "midi": 79,
      "hit": false,
      "t": 61875,
      "d": 187.5,
      "v": 127
    },
    {
      "midi": 88,
      "hit": false,
      "t": 62062.5,
      "d": 187.5,
      "v": 127
    },
    {
      "midi": 86,
      "hit": false,
      "t": 62250,
      "d": 187.5,
      "v": 127
    },
    {
      "midi": 93,
      "hit": false,
      "t": 62437.5,
      "d": 187.5,
      "v": 127
    },
    {
      "midi": 91,
      "hit": false,
      "t": 62625,
      "d": 187.5,
      "v": 127
    },
    {
      "midi": 96,
      "hit": false,
      "t": 62812.5,
      "d": 2437.5,
      "v": 127
    }
  ]
}