{
  "jsonPath": "Unknown/Unknown/Denny McLain/the-girl-from-ipanema-meditation-medley-1996-digital-remaster.json",
  "path": "Unknown\\Unknown\\Denny McLain\\The Girl From Ipanema  Meditation (Medley) (1996 Digital Remaster).mid",
  "name": "The Girl From Ipanema  Meditation (Medley) (1996 Digital Remaster)",
  "difficulty": "Advanced",
  "bpm": 150,
  "notes": [
    {
      "midi": 69,
      "hit": false,
      "t": 0,
      "d": 2536.6666666666665,
      "v": 127
    },
    {
      "midi": 69,
      "hit": false,
      "t": 10,
      "d": 2536.6666666666665,
      "v": 127
    },
    {
      "midi": 84,
      "hit": false,
      "t": 1600,
      "d": 1536.6666666666665,
      "v": 63
    },
    {
      "midi": 79,
      "hit": false,
      "t": 1800,
      "d": 1260,
      "v": 53
    },
    {
      "midi": 76,
      "hit": false,
      "t": 2000,
      "d": 1086.6666666666665,
      "v": 59
    },
    {
      "midi": 69,
      "hit": false,
      "t": 2200,
      "d": 896.6666666666665,
      "v": 48
    },
    {
      "midi": 60,
      "hit": false,
      "t": 2600,
      "d": 543.333333333333,
      "v": 52
    },
    {
      "midi": 67,
      "hit": false,
      "t": 2606.6666666666665,
      "d": 386.6666666666665,
      "v": 127
    },
    {
      "midi": 67,
      "hit": false,
      "t": 2616.6666666666665,
      "d": 386.6666666666665,
      "v": 127
    },
    {
      "midi": 71,
      "hit": false,
      "t": 3026.6666666666665,
      "d": 376.6666666666665,
      "v": 127
    },
    {
      "midi": 71,
      "hit": false,
      "t": 3036.6666666666665,
      "d": 376.6666666666665,
      "v": 127
    },
    {
      "midi": 60,
      "hit": false,
      "t": 3199.9999999999995,
      "d": 1390.0000000000005,
      "v": 66
    },
    {
      "midi": 57,
      "hit": false,
      "t": 3199.9999999999995,
      "d": 1406.6666666666674,
      "v": 56
    },
    {
      "midi": 66,
      "hit": false,
      "t": 3199.9999999999995,
      "d": 1410.0000000000005,
      "v": 61
    },
    {
      "midi": 52,
      "hit": false,
      "t": 3199.9999999999995,
      "d": 1420.0000000000005,
      "v": 59
    },
    {
      "midi": 70,
      "hit": false,
      "t": 3439.9999999999995,
      "d": 403.3333333333335,
      "v": 127
    },
    {
      "midi": 70,
      "hit": false,
      "t": 3449.9999999999995,
      "d": 403.3333333333335,
      "v": 127
    },
    {
      "midi": 69,
      "hit": false,
      "t": 3853.333333333333,
      "d": 2006.666666666667,
      "v": 127
    },
    {
      "midi": 69,
      "hit": false,
      "t": 3863.333333333333,
      "d": 2006.666666666667,
      "v": 127
    },
    {
      "midi": 57,
      "hit": false,
      "t": 4800,
      "d": 816.666666666667,
      "v": 62
    },
    {
      "midi": 63,
      "hit": false,
      "t": 5000,
      "d": 660,
      "v": 47
    },
    {
      "midi": 67,
      "hit": false,
      "t": 5200,
      "d": 426.66666666666697,
      "v": 52
    },
    {
      "midi": 74,
      "hit": false,
      "t": 5400,
      "d": 280,
      "v": 68
    },
    {
      "midi": 57,
      "hit": false,
      "t": 5800,
      "d": 146.66666666666697,
      "v": 64
    },
    {
      "midi": 67,
      "hit": false,
      "t": 5800,
      "d": 146.66666666666697,
      "v": 70
    },
    {
      "midi": 63,
      "hit": false,
      "t": 5800,
      "d": 166.66666666666697,
      "v": 58
    },
    {
      "midi": 74,
      "hit": false,
      "t": 5800,
      "d": 166.66666666666697,
      "v": 68
    },
    {
      "midi": 67,
      "hit": false,
      "t": 5840,
      "d": 360,
      "v": 127
    },
    {
      "midi": 67,
      "hit": false,
      "t": 5850,
      "d": 360,
      "v": 127
    },
    {
      "midi": 68,
      "hit": false,
      "t": 6156.666666666667,
      "d": 206.66666666666606,
      "v": 127
    },
    {
      "midi": 68,
      "hit": false,
      "t": 6166.666666666667,
      "d": 206.66666666666606,
      "v": 127
    },
    {
      "midi": 57,
      "hit": false,
      "t": 6400,
      "d": 646.666666666667,
      "v": 68
    },
    {
      "midi": 60,
      "hit": false,
      "t": 6400,
      "d": 646.666666666667,
      "v": 68
    },
    {
      "midi": 64,
      "hit": false,
      "t": 6400,
      "d": 646.666666666667,
      "v": 68
    },
    {
      "midi": 67,
      "hit": false,
      "t": 6400,
      "d": 646.666666666667,
      "v": 68
    },
    {
      "midi": 69,
      "hit": false,
      "t": 6440,
      "d": 190,
      "v": 127
    },
    {
      "midi": 69,
      "hit": false,
      "t": 6450,
      "d": 190,
      "v": 127
    },
    {
      "midi": 69,
      "hit": false,
      "t": 6693.333333333333,
      "d": 253.33333333333303,
      "v": 118
    },
    {
      "midi": 69,
      "hit": false,
      "t": 6703.333333333333,
      "d": 253.33333333333303,
      "v": 118
    },
    {
      "midi": 67,
      "hit": false,
      "t": 6976.666666666666,
      "d": 193.33333333333303,
      "v": 127
    },
    {
      "midi": 67,
      "hit": false,
      "t": 6986.666666666666,
      "d": 193.33333333333303,
      "v": 127
    },
    {
      "midi": 60,
      "hit": false,
      "t": 7200,
      "d": 646.666666666667,
      "v": 68
    },
    {
      "midi": 62,
      "hit": false,
      "t": 7200,
      "d": 646.666666666667,
      "v": 68
    },
    {
      "midi": 65,
      "hit": false,
      "t": 7200,
      "d": 646.666666666667,
      "v": 68
    },
    {
      "midi": 69,
      "hit": false,
      "t": 7200,
      "d": 646.666666666667,
      "v": 68
    },
    {
      "midi": 69,
      "hit": false,
      "t": 7236.666666666666,
      "d": 200,
      "v": 127
    },
    {
      "midi": 69,
      "hit": false,
      "t": 7246.666666666666,
      "d": 200,
      "v": 127
    },
    {
      "midi": 69,
      "hit": false,
      "t": 7513.333333333333,
      "d": 186.66666666666697,
      "v": 127
    },
    {
      "midi": 69,
      "hit": false,
      "t": 7523.333333333333,
      "d": 186.66666666666697,
      "v": 127
    },
    {
      "midi": 67,
      "hit": false,
      "t": 7770,
      "d": 213.33333333333303,
      "v": 127
    },
    {
      "midi": 67,
      "hit": false,
      "t": 7780,
      "d": 213.33333333333303,
      "v": 127
    },
    {
      "midi": 69,
      "hit": false,
      "t": 8023.333333333333,
      "d": 599.9999999999991,
      "v": 127
    },
    {
      "midi": 69,
      "hit": false,
      "t": 8033.333333333333,
      "d": 599.9999999999991,
      "v": 127
    },
    {
      "midi": 60,
      "hit": false,
      "t": 8200,
      "d": 470,
      "v": 70
    },
    {
      "midi": 66,
      "hit": false,
      "t": 8200,
      "d": 470,
      "v": 70
    },
    {
      "midi": 69,
      "hit": false,
      "t": 8200,
      "d": 470,
      "v": 70
    },
    {
      "midi": 75,
      "hit": false,
      "t": 8200,
      "d": 470,
      "v": 70
    },
    {
      "midi": 67,
      "hit": false,
      "t": 8636.666666666666,
      "d": 363.33333333333394,
      "v": 127
    },
    {
      "midi": 67,
      "hit": false,
      "t": 8646.666666666666,
      "d": 363.33333333333394,
      "v": 127
    },
    {
      "midi": 57,
      "hit": false,
      "t": 8800,
      "d": 646.6666666666661,
      "v": 68
    },
    {
      "midi": 64,
      "hit": false,
      "t": 8800,
      "d": 646.6666666666661,
      "v": 68
    },
    {
      "midi": 67,
      "hit": false,
      "t": 8800,
      "d": 646.6666666666661,
      "v": 68
    },
    {
      "midi": 72,
      "hit": false,
      "t": 8800,
      "d": 646.6666666666661,
      "v": 68
    },
    {
      "midi": 69,
      "hit": false,
      "t": 9046.666666666666,
      "d": 310,
      "v": 127
    },
    {
      "midi": 69,
      "hit": false,
      "t": 9056.666666666666,
      "d": 310,
      "v": 127
    },
    {
      "midi": 67,
      "hit": false,
      "t": 9343.333333333332,
      "d": 270,
      "v": 127
    },
    {
      "midi": 67,
      "hit": false,
      "t": 9353.333333333332,
      "d": 270,
      "v": 127
    },
    {
      "midi": 55,
      "hit": false,
      "t": 9600,
      "d": 816.6666666666661,
      "v": 62
    },
    {
      "midi": 71,
      "hit": false,
      "t": 9636.666666666666,
      "d": 373.33333333333394,
      "v": 127
    },
    {
      "midi": 71,
      "hit": false,
      "t": 9646.666666666666,
      "d": 373.33333333333394,
      "v": 127
    },
    {
      "midi": 62,
      "hit": false,
      "t": 9800,
      "d": 660,
      "v": 47
    },
    {
      "midi": 64,
      "hit": false,
      "t": 10000,
      "d": 426.66666666666606,
      "v": 52
    },
    {
      "midi": 67,
      "hit": false,
      "t": 10000,
      "d": 226.66666666666606,
      "v": 120
    },
    {
      "midi": 67,
      "hit": false,
      "t": 10010,
      "d": 226.66666666666606,
      "v": 120
    },
    {
      "midi": 71,
      "hit": false,
      "t": 10200,
      "d": 280,
      "v": 68
    },
    {
      "midi": 69,
      "hit": false,
      "t": 10243.333333333332,
      "d": 360,
      "v": 127
    },
    {
      "midi": 69,
      "hit": false,
      "t": 10253.333333333332,
      "d": 360,
      "v": 127
    },
    {
      "midi": 55,
      "hit": false,
      "t": 10600,
      "d": 146.66666666666606,
      "v": 64
    },
    {
      "midi": 64,
      "hit": false,
      "t": 10600,
      "d": 146.66666666666606,
      "v": 70
    },
    {
      "midi": 62,
      "hit": false,
      "t": 10600,
      "d": 166.66666666666606,
      "v": 58
    },
    {
      "midi": 71,
      "hit": false,
      "t": 10600,
      "d": 166.66666666666606,
      "v": 68
    },
    {
      "midi": 71,
      "hit": false,
      "t": 10646.666666666666,
      "d": 343.33333333333394,
      "v": 127
    },
    {
      "midi": 71,
      "hit": false,
      "t": 10656.666666666666,
      "d": 343.33333333333394,
      "v": 127
    },
    {
      "midi": 69,
      "hit": false,
      "t": 11030,
      "d": 1770,
      "v": 127
    },
    {
      "midi": 69,
      "hit": false,
      "t": 11040,
      "d": 1770,
      "v": 127
    },
    {
      "midi": 55,
      "hit": false,
      "t": 11200,
      "d": 1360,
      "v": 60
    },
    {
      "midi": 60,
      "hit": false,
      "t": 11200,
      "d": 1360,
      "v": 60
    },
    {
      "midi": 61,
      "hit": false,
      "t": 11200,
      "d": 1360,
      "v": 60
    },
    {
      "midi": 64,
      "hit": false,
      "t": 11200,
      "d": 1360,
      "v": 60
    },
    {
      "midi": 53,
      "hit": false,
      "t": 12800,
      "d": 2573.333333333334,
      "v": 68
    },
    {
      "midi": 60,
      "hit": false,
      "t": 12800,
      "d": 2573.333333333334,
      "v": 68
    },
    {
      "midi": 64,
      "hit": false,
      "t": 12800,
      "d": 2573.333333333334,
      "v": 68
    },
    {
      "midi": 69,
      "hit": false,
      "t": 12800,
      "d": 2573.333333333334,
      "v": 68
    },
    {
      "midi": 65,
      "hit": false,
      "t": 12830,
      "d": 2866.666666666666,
      "v": 127
    },
    {
      "midi": 65,
      "hit": false,
      "t": 12840,
      "d": 2866.666666666666,
      "v": 127
    },
    {
      "midi": 60,
      "hit": false,
      "t": 15400,
      "d": 200,
      "v": 57
    },
    {
      "midi": 65,
      "hit": false,
      "t": 15600,
      "d": 206.66666666666606,
      "v": 66
    },
    {
      "midi": 64,
      "hit": false,
      "t": 15626.666666666666,
      "d": 236.66666666666606,
      "v": 127
    },
    {
      "midi": 64,
      "hit": false,
      "t": 15636.666666666666,
      "d": 236.66666666666606,
      "v": 127
    },
    {
      "midi": 69,
      "hit": false,
      "t": 15700,
      "d": 170,
      "v": 60
    },
    {
      "midi": 74,
      "hit": false,
      "t": 15806.666666666666,
      "d": 146.66666666666788,
      "v": 72
    },
    {
      "midi": 56,
      "hit": false,
      "t": 16000,
      "d": 216.66666666666606,
      "v": 42
    },
    {
      "midi": 60,
      "hit": false,
      "t": 16000,
      "d": 216.66666666666606,
      "v": 42
    },
    {
      "midi": 62,
      "hit": false,
      "t": 16000,
      "d": 216.66666666666606,
      "v": 42
    },
    {
      "midi": 67,
      "hit": false,
      "t": 16000,
      "d": 216.66666666666606,
      "v": 42
    },
    {
      "midi": 67,
      "hit": false,
      "t": 16029.999999999998,
      "d": 310,
      "v": 127
    },
    {
      "midi": 67,
      "hit": false,
      "t": 16039.999999999998,
      "d": 310,
      "v": 127
    },
    {
      "midi": 66,
      "hit": false,
      "t": 16420,
      "d": 196.66666666666788,
      "v": 127
    },
    {
      "midi": 66,
      "hit": false,
      "t": 16430,
      "d": 196.66666666666788,
      "v": 127
    },
    {
      "midi": 56,
      "hit": false,
      "t": 16600,
      "d": 2130,
      "v": 62
    },
    {
      "midi": 60,
      "hit": false,
      "t": 16600,
      "d": 2130,
      "v": 62
    },
    {
      "midi": 62,
      "hit": false,
      "t": 16600,
      "d": 2130,
      "v": 62
    },
    {
      "midi": 67,
      "hit": false,
      "t": 16600,
      "d": 2130,
      "v": 62
    },
    {
      "midi": 65,
      "hit": false,
      "t": 16683.333333333336,
      "d": 2126.666666666668,
      "v": 127
    },
    {
      "midi": 65,
      "hit": false,
      "t": 16693.333333333336,
      "d": 2126.666666666668,
      "v": 127
    },
    {
      "midi": 60,
      "hit": false,
      "t": 18813.333333333336,
      "d": 240,
      "v": 127
    },
    {
      "midi": 60,
      "hit": false,
      "t": 18823.333333333336,
      "d": 240,
      "v": 127
    },
    {
      "midi": 62,
      "hit": false,
      "t": 19003.333333333336,
      "d": 150,
      "v": 127
    },
    {
      "midi": 62,
      "hit": false,
      "t": 19013.333333333336,
      "d": 150,
      "v": 127
    },
    {
      "midi": 62,
      "hit": false,
      "t": 19200,
      "d": 1366.6666666666679,
      "v": 59
    },
    {
      "midi": 67,
      "hit": false,
      "t": 19200,
      "d": 1366.6666666666679,
      "v": 56
    },
    {
      "midi": 76,
      "hit": false,
      "t": 19200,
      "d": 1366.6666666666679,
      "v": 61
    },
    {
      "midi": 71,
      "hit": false,
      "t": 19200,
      "d": 1390,
      "v": 66
    },
    {
      "midi": 64,
      "hit": false,
      "t": 19216.666666666668,
      "d": 206.66666666666788,
      "v": 127
    },
    {
      "midi": 64,
      "hit": false,
      "t": 19226.666666666668,
      "d": 206.66666666666788,
      "v": 127
    },
    {
      "midi": 64,
      "hit": false,
      "t": 19506.666666666668,
      "d": 160,
      "v": 127
    },
    {
      "midi": 64,
      "hit": false,
      "t": 19516.666666666668,
      "d": 160,
      "v": 127
    },
    {
      "midi": 64,
      "hit": false,
      "t": 19766.666666666668,
      "d": 166.66666666666788,
      "v": 127
    },
    {
      "midi": 64,
      "hit": false,
      "t": 19776.666666666668,
      "d": 166.66666666666788,
      "v": 127
    },
    {
      "midi": 64,
      "hit": false,
      "t": 20030.000000000004,
      "d": 303.3333333333321,
      "v": 127
    },
    {
      "midi": 64,
      "hit": false,
      "t": 20040.000000000004,
      "d": 303.3333333333321,
      "v": 127
    },
    {
      "midi": 63,
      "hit": false,
      "t": 20336.666666666668,
      "d": 256.66666666666424,
      "v": 127
    },
    {
      "midi": 63,
      "hit": false,
      "t": 20346.666666666668,
      "d": 256.66666666666424,
      "v": 127
    },
    {
      "midi": 64,
      "hit": false,
      "t": 20580,
      "d": 253.33333333333212,
      "v": 127
    },
    {
      "midi": 64,
      "hit": false,
      "t": 20590,
      "d": 253.33333333333212,
      "v": 127
    },
    {
      "midi": 65,
      "hit": false,
      "t": 20600,
      "d": 1583.3333333333321,
      "v": 66
    },
    {
      "midi": 61,
      "hit": false,
      "t": 20600,
      "d": 1600,
      "v": 56
    },
    {
      "midi": 69,
      "hit": false,
      "t": 20600,
      "d": 1603.3333333333321,
      "v": 61
    },
    {
      "midi": 55,
      "hit": false,
      "t": 20600,
      "d": 1613.3333333333321,
      "v": 59
    },
    {
      "midi": 65,
      "hit": false,
      "t": 20833.333333333332,
      "d": 1173.3333333333321,
      "v": 127
    },
    {
      "midi": 65,
      "hit": false,
      "t": 20843.333333333332,
      "d": 1173.3333333333321,
      "v": 127
    },
    {
      "midi": 64,
      "hit": false,
      "t": 22009.999999999996,
      "d": 183.33333333333212,
      "v": 127
    },
    {
      "midi": 64,
      "hit": false,
      "t": 22019.999999999996,
      "d": 183.33333333333212,
      "v": 127
    },
    {
      "midi": 65,
      "hit": false,
      "t": 22199.999999999996,
      "d": 236.66666666666788,
      "v": 127
    },
    {
      "midi": 65,
      "hit": false,
      "t": 22209.999999999996,
      "d": 236.66666666666788,
      "v": 127
    },
    {
      "midi": 53,
      "hit": false,
      "t": 22400,
      "d": 1360,
      "v": 60
    },
    {
      "midi": 57,
      "hit": false,
      "t": 22400,
      "d": 1360,
      "v": 60
    },
    {
      "midi": 60,
      "hit": false,
      "t": 22400,
      "d": 1360,
      "v": 60
    },
    {
      "midi": 62,
      "hit": false,
      "t": 22400,
      "d": 1360,
      "v": 60
    },
    {
      "midi": 67,
      "hit": false,
      "t": 22409.999999999996,
      "d": 246.66666666666788,
      "v": 127
    },
    {
      "midi": 67,
      "hit": false,
      "t": 22419.999999999996,
      "d": 246.66666666666788,
      "v": 127
    },
    {
      "midi": 67,
      "hit": false,
      "t": 22706.666666666664,
      "d": 153.33333333333212,
      "v": 127
    },
    {
      "midi": 67,
      "hit": false,
      "t": 22716.666666666664,
      "d": 153.33333333333212,
      "v": 127
    },
    {
      "midi": 67,
      "hit": false,
      "t": 22963.33333333333,
      "d": 160,
      "v": 127
    },
    {
      "midi": 67,
      "hit": false,
      "t": 22973.33333333333,
      "d": 160,
      "v": 127
    },
    {
      "midi": 67,
      "hit": false,
      "t": 23223.33333333333,
      "d": 340,
      "v": 127
    },
    {
      "midi": 67,
      "hit": false,
      "t": 23233.33333333333,
      "d": 340,
      "v": 127
    },
    {
      "midi": 66,
      "hit": false,
      "t": 23526.66666666666,
      "d": 213.33333333333576,
      "v": 127
    },
    {
      "midi": 66,
      "hit": false,
      "t": 23536.66666666666,
      "d": 213.33333333333576,
      "v": 127
    },
    {
      "midi": 67,
      "hit": false,
      "t": 23769.999999999996,
      "d": 246.66666666666788,
      "v": 127
    },
    {
      "midi": 67,
      "hit": false,
      "t": 23779.999999999996,
      "d": 246.66666666666788,
      "v": 127
    },
    {
      "midi": 59,
      "hit": false,
      "t": 24000,
      "d": 816.6666666666679,
      "v": 62
    },
    {
      "midi": 69,
      "hit": false,
      "t": 24039.999999999996,
      "d": 1363.3333333333321,
      "v": 127
    },
    {
      "midi": 69,
      "hit": false,
      "t": 24049.999999999996,
      "d": 1363.3333333333321,
      "v": 127
    },
    {
      "midi": 65,
      "hit": false,
      "t": 24200,
      "d": 660,
      "v": 47
    },
    {
      "midi": 69,
      "hit": false,
      "t": 24400,
      "d": 426.6666666666679,
      "v": 52
    },
    {
      "midi": 74,
      "hit": false,
      "t": 24600,
      "d": 280,
      "v": 68
    },
    {
      "midi": 59,
      "hit": false,
      "t": 25000,
      "d": 146.66666666666788,
      "v": 64
    },
    {
      "midi": 69,
      "hit": false,
      "t": 25000,
      "d": 146.66666666666788,
      "v": 70
    },
    {
      "midi": 65,
      "hit": false,
      "t": 25000,
      "d": 166.66666666666788,
      "v": 58
    },
    {
      "midi": 74,
      "hit": false,
      "t": 25000,
      "d": 166.66666666666788,
      "v": 68
    },
    {
      "midi": 52,
      "hit": false,
      "t": 25400,
      "d": 2766.666666666668,
      "v": 68
    },
    {
      "midi": 57,
      "hit": false,
      "t": 25400,
      "d": 2766.666666666668,
      "v": 68
    },
    {
      "midi": 60,
      "hit": false,
      "t": 25400,
      "d": 2766.666666666668,
      "v": 68
    },
    {
      "midi": 67,
      "hit": false,
      "t": 25400,
      "d": 2766.666666666668,
      "v": 68
    },
    {
      "midi": 69,
      "hit": false,
      "t": 25619.999999999996,
      "d": 2776.666666666668,
      "v": 127
    },
    {
      "midi": 69,
      "hit": false,
      "t": 25629.999999999996,
      "d": 2776.666666666668,
      "v": 127
    },
    {
      "midi": 57,
      "hit": false,
      "t": 28200,
      "d": 200,
      "v": 57
    },
    {
      "midi": 64,
      "hit": false,
      "t": 28400,
      "d": 206.66666666666788,
      "v": 66
    },
    {
      "midi": 67,
      "hit": false,
      "t": 28419.999999999996,
      "d": 440,
      "v": 127
    },
    {
      "midi": 67,
      "hit": false,
      "t": 28429.999999999996,
      "d": 440,
      "v": 127
    },
    {
      "midi": 67,
      "hit": false,
      "t": 28500,
      "d": 170,
      "v": 60
    },
    {
      "midi": 72,
      "hit": false,
      "t": 28606.666666666668,
      "d": 146.66666666666424,
      "v": 72
    },
    {
      "midi": 60,
      "hit": false,
      "t": 28800,
      "d": 1390,
      "v": 66
    },
    {
      "midi": 57,
      "hit": false,
      "t": 28800,
      "d": 1406.6666666666679,
      "v": 56
    },
    {
      "midi": 66,
      "hit": false,
      "t": 28800,
      "d": 1410,
      "v": 61
    },
    {
      "midi": 52,
      "hit": false,
      "t": 28800,
      "d": 1420,
      "v": 59
    },
    {
      "midi": 71,
      "hit": false,
      "t": 28849.999999999996,
      "d": 386.6666666666679,
      "v": 127
    },
    {
      "midi": 71,
      "hit": false,
      "t": 28859.999999999996,
      "d": 386.6666666666679,
      "v": 127
    },
    {
      "midi": 70,
      "hit": false,
      "t": 29246.666666666664,
      "d": 246.66666666666424,
      "v": 127
    },
    {
      "midi": 70,
      "hit": false,
      "t": 29256.666666666664,
      "d": 246.66666666666424,
      "v": 127
    },
    {
      "midi": 69,
      "hit": false,
      "t": 29489.999999999996,
      "d": 2366.6666666666642,
      "v": 127
    },
    {
      "midi": 69,
      "hit": false,
      "t": 29499.999999999996,
      "d": 2366.6666666666642,
      "v": 127
    },
    {
      "midi": 57,
      "hit": false,
      "t": 30400,
      "d": 816.6666666666679,
      "v": 62
    },
    {
      "midi": 63,
      "hit": false,
      "t": 30600,
      "d": 660,
      "v": 47
    },
    {
      "midi": 67,
      "hit": false,
      "t": 30800,
      "d": 426.6666666666679,
      "v": 52
    },
    {
      "midi": 74,
      "hit": false,
      "t": 31000,
      "d": 280,
      "v": 68
    },
    {
      "midi": 57,
      "hit": false,
      "t": 31400,
      "d": 146.66666666666788,
      "v": 64
    },
    {
      "midi": 67,
      "hit": false,
      "t": 31400,
      "d": 146.66666666666788,
      "v": 70
    },
    {
      "midi": 63,
      "hit": false,
      "t": 31400,
      "d": 166.66666666666788,
      "v": 58
    },
    {
      "midi": 74,
      "hit": false,
      "t": 31400,
      "d": 166.66666666666788,
      "v": 68
    },
    {
      "midi": 67,
      "hit": false,
      "t": 31846.66666666666,
      "d": 186.66666666666788,
      "v": 127
    },
    {
      "midi": 67,
      "hit": false,
      "t": 31856.66666666666,
      "d": 186.66666666666788,
      "v": 127
    },
    {
      "midi": 57,
      "hit": false,
      "t": 32000,
      "d": 646.6666666666679,
      "v": 68
    },
    {
      "midi": 64,
      "hit": false,
      "t": 32000,
      "d": 646.6666666666679,
      "v": 68
    },
    {
      "midi": 67,
      "hit": false,
      "t": 32000,
      "d": 646.6666666666679,
      "v": 68
    },
    {
      "midi": 72,
      "hit": false,
      "t": 32000,
      "d": 646.6666666666679,
      "v": 68
    },
    {
      "midi": 69,
      "hit": false,
      "t": 32049.999999999996,
      "d": 206.66666666666788,
      "v": 127
    },
    {
      "midi": 69,
      "hit": false,
      "t": 32059.999999999996,
      "d": 206.66666666666788,
      "v": 127
    },
    {
      "midi": 69,
      "hit": false,
      "t": 32329.999999999996,
      "d": 256.6666666666679,
      "v": 127
    },
    {
      "midi": 69,
      "hit": false,
      "t": 32339.999999999996,
      "d": 256.6666666666679,
      "v": 127
    },
    {
      "midi": 67,
      "hit": false,
      "t": 32589.999999999996,
      "d": 246.66666666666788,
      "v": 127
    },
    {
      "midi": 67,
      "hit": false,
      "t": 32599.999999999996,
      "d": 246.66666666666788,
      "v": 127
    },
    {
      "midi": 60,
      "hit": false,
      "t": 32800,
      "d": 646.6666666666642,
      "v": 68
    },
    {
      "midi": 64,
      "hit": false,
      "t": 32800,
      "d": 646.6666666666642,
      "v": 68
    },
    {
      "midi": 65,
      "hit": false,
      "t": 32800,
      "d": 646.6666666666642,
      "v": 68
    },
    {
      "midi": 69,
      "hit": false,
      "t": 32800,
      "d": 646.6666666666642,
      "v": 68
    },
    {
      "midi": 69,
      "hit": false,
      "t": 32840,
      "d": 213.33333333333576,
      "v": 127
    },
    {
      "midi": 69,
      "hit": false,
      "t": 32850,
      "d": 213.33333333333576,
      "v": 127
    },
    {
      "midi": 69,
      "hit": false,
      "t": 33123.333333333336,
      "d": 250,
      "v": 127
    },
    {
      "midi": 69,
      "hit": false,
      "t": 33133.333333333336,
      "d": 250,
      "v": 127
    },
    {
      "midi": 67,
      "hit": false,
      "t": 33386.66666666667,
      "d": 243.33333333333576,
      "v": 127
    },
    {
      "midi": 67,
      "hit": false,
      "t": 33396.66666666667,
      "d": 243.33333333333576,
      "v": 127
    },
    {
      "midi": 60,
      "hit": false,
      "t": 33600,
      "d": 646.6666666666642,
      "v": 68
    },
    {
      "midi": 66,
      "hit": false,
      "t": 33600,
      "d": 646.6666666666642,
      "v": 68
    },
    {
      "midi": 69,
      "hit": false,
      "t": 33600,
      "d": 646.6666666666642,
      "v": 68
    },
    {
      "midi": 75,
      "hit": false,
      "t": 33600,
      "d": 646.6666666666642,
      "v": 68
    },
    {
      "midi": 69,
      "hit": false,
      "t": 33646.66666666667,
      "d": 356.66666666666424,
      "v": 127
    },
    {
      "midi": 69,
      "hit": false,
      "t": 33656.66666666667,
      "d": 356.66666666666424,
      "v": 127
    },
    {
      "midi": 67,
      "hit": false,
      "t": 34003.333333333336,
      "d": 256.66666666666424,
      "v": 127
    },
    {
      "midi": 67,
      "hit": false,
      "t": 34013.333333333336,
      "d": 256.66666666666424,
      "v": 127
    },
    {
      "midi": 69,
      "hit": false,
      "t": 34250,
      "d": 390,
      "v": 127
    },
    {
      "midi": 69,
      "hit": false,
      "t": 34260,
      "d": 390,
      "v": 127
    },
    {
      "midi": 57,
      "hit": false,
      "t": 34400,
      "d": 646.6666666666642,
      "v": 68
    },
    {
      "midi": 64,
      "hit": false,
      "t": 34400,
      "d": 646.6666666666642,
      "v": 68
    },
    {
      "midi": 67,
      "hit": false,
      "t": 34400,
      "d": 646.6666666666642,
      "v": 68
    },
    {
      "midi": 72,
      "hit": false,
      "t": 34400,
      "d": 646.6666666666642,
      "v": 68
    },
    {
      "midi": 67,
      "hit": false,
      "t": 34633.333333333336,
      "d": 383.3333333333285,
      "v": 127
    },
    {
      "midi": 67,
      "hit": false,
      "t": 34643.333333333336,
      "d": 383.3333333333285,
      "v": 127
    },
    {
      "midi": 71,
      "hit": false,
      "t": 35023.33333333333,
      "d": 460,
      "v": 127
    },
    {
      "midi": 71,
      "hit": false,
      "t": 35033.33333333333,
      "d": 460,
      "v": 127
    },
    {
      "midi": 55,
      "hit": false,
      "t": 35200,
      "d": 816.6666666666642,
      "v": 62
    },
    {
      "midi": 62,
      "hit": false,
      "t": 35400,
      "d": 660,
      "v": 47
    },
    {
      "midi": 67,
      "hit": false,
      "t": 35459.99999999999,
      "d": 383.33333333333576,
      "v": 127
    },
    {
      "midi": 67,
      "hit": false,
      "t": 35469.99999999999,
      "d": 383.33333333333576,
      "v": 127
    },
    {
      "midi": 64,
      "hit": false,
      "t": 35600,
      "d": 426.66666666666424,
      "v": 52
    },
    {
      "midi": 71,
      "hit": false,
      "t": 35800,
      "d": 280,
      "v": 68
    },
    {
      "midi": 69,
      "hit": false,
      "t": 35843.33333333333,
      "d": 390,
      "v": 127
    },
    {
      "midi": 69,
      "hit": false,
      "t": 35853.33333333333,
      "d": 390,
      "v": 127
    },
    {
      "midi": 55,
      "hit": false,
      "t": 36200,
      "d": 146.66666666666424,
      "v": 64
    },
    {
      "midi": 64,
      "hit": false,
      "t": 36200,
      "d": 146.66666666666424,
      "v": 70
    },
    {
      "midi": 62,
      "hit": false,
      "t": 36200,
      "d": 166.66666666666424,
      "v": 58
    },
    {
      "midi": 71,
      "hit": false,
      "t": 36200,
      "d": 166.66666666666424,
      "v": 68
    },
    {
      "midi": 71,
      "hit": false,
      "t": 36229.99999999999,
      "d": 363.33333333333576,
      "v": 127
    },
    {
      "midi": 71,
      "hit": false,
      "t": 36239.99999999999,
      "d": 363.33333333333576,
      "v": 127
    },
    {
      "midi": 55,
      "hit": false,
      "t": 36600,
      "d": 1010,
      "v": 62
    },
    {
      "midi": 69,
      "hit": false,
      "t": 36623.33333333333,
      "d": 1853.3333333333358,
      "v": 127
    },
    {
      "midi": 69,
      "hit": false,
      "t": 36633.33333333333,
      "d": 1853.3333333333358,
      "v": 127
    },
    {
      "midi": 61,
      "hit": false,
      "t": 37000,
      "d": 660,
      "v": 47
    },
    {
      "midi": 64,
      "hit": false,
      "t": 37200,
      "d": 426.66666666666424,
      "v": 52
    },
    {
      "midi": 69,
      "hit": false,
      "t": 37400,
      "d": 280,
      "v": 68
    },
    {
      "midi": 55,
      "hit": false,
      "t": 37800,
      "d": 146.66666666666424,
      "v": 64
    },
    {
      "midi": 64,
      "hit": false,
      "t": 37800,
      "d": 146.66666666666424,
      "v": 70
    },
    {
      "midi": 61,
      "hit": false,
      "t": 37800,
      "d": 166.66666666666424,
      "v": 58
    },
    {
      "midi": 69,
      "hit": false,
      "t": 37800,
      "d": 166.66666666666424,
      "v": 68
    },
    {
      "midi": 60,
      "hit": false,
      "t": 38400,
      "d": 226.66666666666424,
      "v": 62
    },
    {
      "midi": 65,
      "hit": false,
      "t": 38433.33333333333,
      "d": 2953.3333333333358,
      "v": 127
    },
    {
      "midi": 65,
      "hit": false,
      "t": 38443.33333333333,
      "d": 2953.3333333333358,
      "v": 127
    },
    {
      "midi": 65,
      "hit": false,
      "t": 38600,
      "d": 1470,
      "v": 58
    },
    {
      "midi": 69,
      "hit": false,
      "t": 38800,
      "d": 1300,
      "v": 68
    },
    {
      "midi": 74,
      "hit": false,
      "t": 39000,
      "d": 1203.3333333333358,
      "v": 68
    },
    {
      "midi": 54,
      "hit": false,
      "t": 40200,
      "d": 170,
      "v": 70
    },
    {
      "midi": 58,
      "hit": false,
      "t": 40200,
      "d": 170,
      "v": 70
    },
    {
      "midi": 61,
      "hit": false,
      "t": 40200,
      "d": 170,
      "v": 70
    },
    {
      "midi": 63,
      "hit": false,
      "t": 40200,
      "d": 170,
      "v": 70
    },
    {
      "midi": 53,
      "hit": false,
      "t": 40400,
      "d": 856.6666666666642,
      "v": 78
    },
    {
      "midi": 57,
      "hit": false,
      "t": 40400,
      "d": 856.6666666666642,
      "v": 78
    },
    {
      "midi": 60,
      "hit": false,
      "t": 40400,
      "d": 856.6666666666642,
      "v": 78
    },
    {
      "midi": 62,
      "hit": false,
      "t": 40400,
      "d": 856.6666666666642,
      "v": 78
    },
    {
      "midi": 64,
      "hit": false,
      "t": 41390,
      "d": 276.66666666666424,
      "v": 127
    },
    {
      "midi": 56,
      "hit": false,
      "t": 41400,
      "d": 410,
      "v": 42
    },
    {
      "midi": 62,
      "hit": false,
      "t": 41400,
      "d": 410,
      "v": 42
    },
    {
      "midi": 67,
      "hit": false,
      "t": 41400,
      "d": 410,
      "v": 42
    },
    {
      "midi": 72,
      "hit": false,
      "t": 41400,
      "d": 410,
      "v": 42
    },
    {
      "midi": 64,
      "hit": false,
      "t": 41400,
      "d": 276.66666666666424,
      "v": 127
    },
    {
      "midi": 67,
      "hit": false,
      "t": 41650,
      "d": 310,
      "v": 127
    },
    {
      "midi": 67,
      "hit": false,
      "t": 41660,
      "d": 310,
      "v": 127
    },
    {
      "midi": 66,
      "hit": false,
      "t": 41946.666666666664,
      "d": 273.33333333333576,
      "v": 127
    },
    {
      "midi": 66,
      "hit": false,
      "t": 41956.666666666664,
      "d": 273.33333333333576,
      "v": 127
    },
    {
      "midi": 56,
      "hit": false,
      "t": 42200,
      "d": 2130,
      "v": 62
    },
    {
      "midi": 62,
      "hit": false,
      "t": 42200,
      "d": 2130,
      "v": 62
    },
    {
      "midi": 67,
      "hit": false,
      "t": 42200,
      "d": 2130,
      "v": 62
    },
    {
      "midi": 72,
      "hit": false,
      "t": 42200,
      "d": 2130,
      "v": 62
    },
    {
      "midi": 65,
      "hit": false,
      "t": 42250,
      "d": 2186.6666666666642,
      "v": 127
    },
    {
      "midi": 65,
      "hit": false,
      "t": 42260,
      "d": 2186.6666666666642,
      "v": 127
    },
    {
      "midi": 60,
      "hit": false,
      "t": 44430,
      "d": 220,
      "v": 127
    },
    {
      "midi": 60,
      "hit": false,
      "t": 44440,
      "d": 220,
      "v": 127
    },
    {
      "midi": 62,
      "hit": false,
      "t": 44610,
      "d": 143.33333333333576,
      "v": 127
    },
    {
      "midi": 62,
      "hit": false,
      "t": 44620,
      "d": 143.33333333333576,
      "v": 127
    },
    {
      "midi": 71,
      "hit": false,
      "t": 44800,
      "d": 1390,
      "v": 66
    },
    {
      "midi": 67,
      "hit": false,
      "t": 44800,
      "d": 1406.6666666666642,
      "v": 56
    },
    {
      "midi": 76,
      "hit": false,
      "t": 44800,
      "d": 1410,
      "v": 61
    },
    {
      "midi": 62,
      "hit": false,
      "t": 44800,
      "d": 1420,
      "v": 59
    },
    {
      "midi": 64,
      "hit": false,
      "t": 44836.66666666667,
      "d": 213.33333333333576,
      "v": 127
    },
    {
      "midi": 64,
      "hit": false,
      "t": 44846.66666666667,
      "d": 213.33333333333576,
      "v": 127
    },
    {
      "midi": 64,
      "hit": false,
      "t": 45120.00000000001,
      "d": 153.33333333333576,
      "v": 127
    },
    {
      "midi": 64,
      "hit": false,
      "t": 45130.00000000001,
      "d": 153.33333333333576,
      "v": 127
    },
    {
      "midi": 64,
      "hit": false,
      "t": 45373.33333333334,
      "d": 136.66666666666424,
      "v": 127
    },
    {
      "midi": 64,
      "hit": false,
      "t": 45383.33333333334,
      "d": 136.66666666666424,
      "v": 127
    },
    {
      "midi": 64,
      "hit": false,
      "t": 45646.66666666667,
      "d": 233.33333333333576,
      "v": 127
    },
    {
      "midi": 64,
      "hit": false,
      "t": 45656.66666666667,
      "d": 233.33333333333576,
      "v": 127
    },
    {
      "midi": 63,
      "hit": false,
      "t": 45933.33333333334,
      "d": 243.33333333332848,
      "v": 127
    },
    {
      "midi": 63,
      "hit": false,
      "t": 45943.33333333334,
      "d": 243.33333333332848,
      "v": 127
    },
    {
      "midi": 64,
      "hit": false,
      "t": 46170.00000000001,
      "d": 299.9999999999927,
      "v": 127
    },
    {
      "midi": 64,
      "hit": false,
      "t": 46180.00000000001,
      "d": 299.9999999999927,
      "v": 127
    },
    {
      "midi": 55,
      "hit": false,
      "t": 46400,
      "d": 1360,
      "v": 60
    },
    {
      "midi": 58,
      "hit": false,
      "t": 46400,
      "d": 1360,
      "v": 60
    },
    {
      "midi": 61,
      "hit": false,
      "t": 46400,
      "d": 1360,
      "v": 60
    },
    {
      "midi": 65,
      "hit": false,
      "t": 46400,
      "d": 1360,
      "v": 60
    },
    {
      "midi": 65,
      "hit": false,
      "t": 46443.333333333336,
      "d": 1160,
      "v": 127
    },
    {
      "midi": 65,
      "hit": false,
      "t": 46453.333333333336,
      "d": 1160,
      "v": 127
    },
    {
      "midi": 64,
      "hit": false,
      "t": 47606.66666666667,
      "d": 216.66666666666424,
      "v": 127
    },
    {
      "midi": 64,
      "hit": false,
      "t": 47616.66666666667,
      "d": 216.66666666666424,
      "v": 127
    },
    {
      "midi": 65,
      "hit": false,
      "t": 47803.333333333336,
      "d": 273.33333333333576,
      "v": 127
    },
    {
      "midi": 65,
      "hit": false,
      "t": 47813.333333333336,
      "d": 273.33333333333576,
      "v": 127
    },
    {
      "midi": 53,
      "hit": false,
      "t": 48000,
      "d": 1360,
      "v": 60
    },
    {
      "midi": 57,
      "hit": false,
      "t": 48000,
      "d": 1360,
      "v": 60
    },
    {
      "midi": 60,
      "hit": false,
      "t": 48000,
      "d": 1360,
      "v": 60
    },
    {
      "midi": 64,
      "hit": false,
      "t": 48000,
      "d": 1360,
      "v": 60
    },
    {
      "midi": 67,
      "hit": false,
      "t": 48033.333333333336,
      "d": 206.66666666667152,
      "v": 127
    },
    {
      "midi": 67,
      "hit": false,
      "t": 48043.333333333336,
      "d": 206.66666666667152,
      "v": 127
    },
    {
      "midi": 67,
      "hit": false,
      "t": 48336.66666666667,
      "d": 150,
      "v": 127
    },
    {
      "midi": 67,
      "hit": false,
      "t": 48346.66666666667,
      "d": 150,
      "v": 127
    },
    {
      "midi": 67,
      "hit": false,
      "t": 48610.00000000001,
      "d": 146.66666666666424,
      "v": 127
    },
    {
      "midi": 67,
      "hit": false,
      "t": 48620.00000000001,
      "d": 146.66666666666424,
      "v": 127
    },
    {
      "midi": 67,
      "hit": false,
      "t": 48863.333333333336,
      "d": 310,
      "v": 127
    },
    {
      "midi": 67,
      "hit": false,
      "t": 48873.333333333336,
      "d": 310,
      "v": 127
    },
    {
      "midi": 66,
      "hit": false,
      "t": 49160,
      "d": 210,
      "v": 127
    },
    {
      "midi": 66,
      "hit": false,
      "t": 49170,
      "d": 210,
      "v": 127
    },
    {
      "midi": 67,
      "hit": false,
      "t": 49413.333333333336,
      "d": 310,
      "v": 127
    },
    {
      "midi": 67,
      "hit": false,
      "t": 49423.333333333336,
      "d": 310,
      "v": 127
    },
    {
      "midi": 53,
      "hit": false,
      "t": 49600,
      "d": 1366.6666666666642,
      "v": 59
    },
    {
      "midi": 59,
      "hit": false,
      "t": 49600,
      "d": 1366.6666666666642,
      "v": 56
    },
    {
      "midi": 69,
      "hit": false,
      "t": 49600,
      "d": 1366.6666666666642,
      "v": 61
    },
    {
      "midi": 62,
      "hit": false,
      "t": 49600,
      "d": 1390,
      "v": 66
    },
    {
      "midi": 69,
      "hit": false,
      "t": 49663.333333333336,
      "d": 1556.6666666666642,
      "v": 127
    },
    {
      "midi": 69,
      "hit": false,
      "t": 49673.333333333336,
      "d": 1556.6666666666642,
      "v": 127
    },
    {
      "midi": 52,
      "hit": false,
      "t": 51000,
      "d": 410,
      "v": 42
    },
    {
      "midi": 57,
      "hit": false,
      "t": 51000,
      "d": 410,
      "v": 42
    },
    {
      "midi": 60,
      "hit": false,
      "t": 51000,
      "d": 410,
      "v": 42
    },
    {
      "midi": 67,
      "hit": false,
      "t": 51000,
      "d": 410,
      "v": 42
    },
    {
      "midi": 72,
      "hit": false,
      "t": 51240,
      "d": 2960,
      "v": 127
    },
    {
      "midi": 72,
      "hit": false,
      "t": 51250,
      "d": 2960,
      "v": 127
    },
    {
      "midi": 52,
      "hit": false,
      "t": 51800,
      "d": 2130,
      "v": 62
    },
    {
      "midi": 57,
      "hit": false,
      "t": 51800,
      "d": 2130,
      "v": 62
    },
    {
      "midi": 60,
      "hit": false,
      "t": 51800,
      "d": 2130,
      "v": 62
    },
    {
      "midi": 67,
      "hit": false,
      "t": 51800,
      "d": 2130,
      "v": 62
    },
    {
      "midi": 71,
      "hit": false,
      "t": 54193.333333333336,
      "d": 260,
      "v": 127
    },
    {
      "midi": 71,
      "hit": false,
      "t": 54203.333333333336,
      "d": 260,
      "v": 127
    },
    {
      "midi": 56,
      "hit": false,
      "t": 54400,
      "d": 2573.3333333333358,
      "v": 68
    },
    {
      "midi": 60,
      "hit": false,
      "t": 54400,
      "d": 2573.3333333333358,
      "v": 68
    },
    {
      "midi": 62,
      "hit": false,
      "t": 54400,
      "d": 2573.3333333333358,
      "v": 68
    },
    {
      "midi": 67,
      "hit": false,
      "t": 54400,
      "d": 2573.3333333333358,
      "v": 68
    },
    {
      "midi": 74,
      "hit": false,
      "t": 54450,
      "d": 296.6666666666715,
      "v": 127
    },
    {
      "midi": 74,
      "hit": false,
      "t": 54460,
      "d": 296.6666666666715,
      "v": 127
    },
    {
      "midi": 73,
      "hit": false,
      "t": 54746.66666666667,
      "d": 313.33333333333576,
      "v": 127
    },
    {
      "midi": 73,
      "hit": false,
      "t": 54756.66666666667,
      "d": 313.33333333333576,
      "v": 127
    },
    {
      "midi": 72,
      "hit": false,
      "t": 55046.66666666667,
      "d": 2370,
      "v": 127
    },
    {
      "midi": 72,
      "hit": false,
      "t": 55056.66666666667,
      "d": 2370,
      "v": 127
    },
    {
      "midi": 56,
      "hit": false,
      "t": 57000,
      "d": 200,
      "v": 57
    },
    {
      "midi": 62,
      "hit": false,
      "t": 57200,
      "d": 206.66666666666424,
      "v": 66
    },
    {
      "midi": 65,
      "hit": false,
      "t": 57300,
      "d": 170,
      "v": 60
    },
    {
      "midi": 71,
      "hit": false,
      "t": 57396.66666666667,
      "d": 250,
      "v": 127
    },
    {
      "midi": 72,
      "hit": false,
      "t": 57406.666666666664,
      "d": 146.66666666667152,
      "v": 72
    },
    {
      "midi": 71,
      "hit": false,
      "t": 57406.66666666667,
      "d": 250,
      "v": 127
    },
    {
      "midi": 55,
      "hit": false,
      "t": 57600,
      "d": 816.6666666666642,
      "v": 62
    },
    {
      "midi": 74,
      "hit": false,
      "t": 57646.66666666667,
      "d": 306.66666666666424,
      "v": 127
    },
    {
      "midi": 74,
      "hit": false,
      "t": 57656.66666666667,
      "d": 306.66666666666424,
      "v": 127
    },
    {
      "midi": 62,
      "hit": false,
      "t": 57800,
      "d": 660,
      "v": 47
    },
    {
      "midi": 73,
      "hit": false,
      "t": 57933.333333333336,
      "d": 323.33333333333576,
      "v": 127
    },
    {
      "midi": 73,
      "hit": false,
      "t": 57943.333333333336,
      "d": 323.33333333333576,
      "v": 127
    },
    {
      "midi": 64,
      "hit": false,
      "t": 58000,
      "d": 426.66666666666424,
      "v": 52
    },
    {
      "midi": 71,
      "hit": false,
      "t": 58200,
      "d": 280,
      "v": 68
    },
    {
      "midi": 72,
      "hit": false,
      "t": 58253.333333333336,
      "d": 430,
      "v": 127
    },
    {
      "midi": 72,
      "hit": false,
      "t": 58263.333333333336,
      "d": 430,
      "v": 127
    },
    {
      "midi": 55,
      "hit": false,
      "t": 58600,
      "d": 146.66666666666424,
      "v": 64
    },
    {
      "midi": 64,
      "hit": false,
      "t": 58600,
      "d": 146.66666666666424,
      "v": 70
    },
    {
      "midi": 62,
      "hit": false,
      "t": 58600,
      "d": 166.66666666666424,
      "v": 58
    },
    {
      "midi": 71,
      "hit": false,
      "t": 58600,
      "d": 166.66666666666424,
      "v": 68
    },
    {
      "midi": 71,
      "hit": false,
      "t": 58656.66666666667,
      "d": 383.3333333333285,
      "v": 127
    },
    {
      "midi": 71,
      "hit": false,
      "t": 58666.66666666667,
      "d": 383.3333333333285,
      "v": 127
    },
    {
      "midi": 74,
      "hit": false,
      "t": 59060,
      "d": 430,
      "v": 127
    },
    {
      "midi": 74,
      "hit": false,
      "t": 59070,
      "d": 430,
      "v": 127
    },
    {
      "midi": 54,
      "hit": false,
      "t": 59200,
      "d": 816.6666666666642,
      "v": 62
    },
    {
      "midi": 60,
      "hit": false,
      "t": 59400,
      "d": 660,
      "v": 47
    },
    {
      "midi": 73,
      "hit": false,
      "t": 59440,
      "d": 396.6666666666715,
      "v": 127
    },
    {
      "midi": 73,
      "hit": false,
      "t": 59450,
      "d": 396.6666666666715,
      "v": 127
    },
    {
      "midi": 63,
      "hit": false,
      "t": 59600,
      "d": 426.66666666666424,
      "v": 52
    },
    {
      "midi": 69,
      "hit": false,
      "t": 59800,
      "d": 280,
      "v": 68
    },
    {
      "midi": 72,
      "hit": false,
      "t": 59823.333333333336,
      "d": 430.0000000000073,
      "v": 127
    },
    {
      "midi": 72,
      "hit": false,
      "t": 59833.333333333336,
      "d": 430.0000000000073,
      "v": 127
    },
    {
      "midi": 54,
      "hit": false,
      "t": 60200,
      "d": 146.66666666666424,
      "v": 64
    },
    {
      "midi": 63,
      "hit": false,
      "t": 60200,
      "d": 146.66666666666424,
      "v": 70
    },
    {
      "midi": 60,
      "hit": false,
      "t": 60200,
      "d": 166.66666666666424,
      "v": 58
    },
    {
      "midi": 69,
      "hit": false,
      "t": 60200,
      "d": 166.66666666666424,
      "v": 68
    },
    {
      "midi": 71,
      "hit": false,
      "t": 60220.00000000001,
      "d": 436.6666666666715,
      "v": 127
    },
    {
      "midi": 71,
      "hit": false,
      "t": 60230.00000000001,
      "d": 436.6666666666715,
      "v": 127
    },
    {
      "midi": 69,
      "hit": false,
      "t": 60623.33333333334,
      "d": 3176.6666666666715,
      "v": 127
    },
    {
      "midi": 69,
      "hit": false,
      "t": 60633.33333333334,
      "d": 3176.6666666666715,
      "v": 127
    },
    {
      "midi": 53,
      "hit": false,
      "t": 60800,
      "d": 1360,
      "v": 60
    },
    {
      "midi": 60,
      "hit": false,
      "t": 60800,
      "d": 1360,
      "v": 60
    },
    {
      "midi": 64,
      "hit": false,
      "t": 60800,
      "d": 1360,
      "v": 60
    },
    {
      "midi": 69,
      "hit": false,
      "t": 60800,
      "d": 1360,
      "v": 60
    },
    {
      "midi": 59,
      "hit": false,
      "t": 62400,
      "d": 816.6666666666642,
      "v": 62
    },
    {
      "midi": 65,
      "hit": false,
      "t": 62600,
      "d": 660,
      "v": 47
    },
    {
      "midi": 69,
      "hit": false,
      "t": 62800,
      "d": 426.66666666666424,
      "v": 52
    },
    {
      "midi": 74,
      "hit": false,
      "t": 63000,
      "d": 280,
      "v": 68
    },
    {
      "midi": 59,
      "hit": false,
      "t": 63400,
      "d": 146.66666666666424,
      "v": 64
    },
    {
      "midi": 69,
      "hit": false,
      "t": 63400,
      "d": 146.66666666666424,
      "v": 70
    },
    {
      "midi": 65,
      "hit": false,
      "t": 63400,
      "d": 166.66666666666424,
      "v": 58
    },
    {
      "midi": 74,
      "hit": false,
      "t": 63400,
      "d": 166.66666666666424,
      "v": 68
    },
    {
      "midi": 69,
      "hit": false,
      "t": 64013.33333333335,
      "d": 2816.6666666666642,
      "v": 127
    },
    {
      "midi": 69,
      "hit": false,
      "t": 64023.33333333335,
      "d": 2816.6666666666642,
      "v": 127
    },
    {
      "midi": 84,
      "hit": false,
      "t": 65600,
      "d": 1536.6666666666715,
      "v": 63
    },
    {
      "midi": 79,
      "hit": false,
      "t": 65800,
      "d": 1260,
      "v": 53
    },
    {
      "midi": 76,
      "hit": false,
      "t": 66000,
      "d": 1086.6666666666715,
      "v": 59
    },
    {
      "midi": 69,
      "hit": false,
      "t": 66200,
      "d": 896.6666666666715,
      "v": 48
    },
    {
      "midi": 60,
      "hit": false,
      "t": 66600,
      "d": 543.333333333343,
      "v": 52
    },
    {
      "midi": 67,
      "hit": false,
      "t": 66816.66666666669,
      "d": 413.3333333333285,
      "v": 127
    },
    {
      "midi": 67,
      "hit": false,
      "t": 66826.66666666669,
      "d": 413.3333333333285,
      "v": 127
    },
    {
      "midi": 60,
      "hit": false,
      "t": 67200.00000000001,
      "d": 1390,
      "v": 66
    },
    {
      "midi": 57,
      "hit": false,
      "t": 67200.00000000001,
      "d": 1406.6666666666715,
      "v": 56
    },
    {
      "midi": 66,
      "hit": false,
      "t": 67200.00000000001,
      "d": 1410,
      "v": 61
    },
    {
      "midi": 52,
      "hit": false,
      "t": 67200.00000000001,
      "d": 1420,
      "v": 59
    },
    {
      "midi": 71,
      "hit": false,
      "t": 67240.00000000001,
      "d": 320,
      "v": 127
    },
    {
      "midi": 71,
      "hit": false,
      "t": 67250.00000000001,
      "d": 320,
      "v": 127
    },
    {
      "midi": 70,
      "hit": false,
      "t": 67526.66666666669,
      "d": 310,
      "v": 127
    },
    {
      "midi": 70,
      "hit": false,
      "t": 67536.66666666669,
      "d": 310,
      "v": 127
    },
    {
      "midi": 69,
      "hit": false,
      "t": 67850.00000000001,
      "d": 2156.666666666657,
      "v": 127
    },
    {
      "midi": 69,
      "hit": false,
      "t": 67860.00000000001,
      "d": 2156.666666666657,
      "v": 127
    },
    {
      "midi": 57,
      "hit": false,
      "t": 68800.00000000001,
      "d": 1366.6666666666715,
      "v": 59
    },
    {
      "midi": 63,
      "hit": false,
      "t": 68800.00000000001,
      "d": 1366.6666666666715,
      "v": 56
    },
    {
      "midi": 74,
      "hit": false,
      "t": 68800.00000000001,
      "d": 1366.6666666666715,
      "v": 61
    },
    {
      "midi": 67,
      "hit": false,
      "t": 68800.00000000001,
      "d": 1390,
      "v": 66
    },
    {
      "midi": 67,
      "hit": false,
      "t": 69993.33333333334,
      "d": 276.6666666666715,
      "v": 127
    },
    {
      "midi": 67,
      "hit": false,
      "t": 70003.33333333334,
      "d": 276.6666666666715,
      "v": 127
    },
    {
      "midi": 68,
      "hit": false,
      "t": 70223.33333333334,
      "d": 180,
      "v": 127
    },
    {
      "midi": 68,
      "hit": false,
      "t": 70233.33333333334,
      "d": 180,
      "v": 127
    },
    {
      "midi": 69,
      "hit": false,
      "t": 70443.33333333334,
      "d": 193.33333333332848,
      "v": 127
    },
    {
      "midi": 69,
      "hit": false,
      "t": 70453.33333333334,
      "d": 193.33333333332848,
      "v": 127
    },
    {
      "midi": 57,
      "hit": false,
      "t": 70600.00000000001,
      "d": 470,
      "v": 70
    },
    {
      "midi": 60,
      "hit": false,
      "t": 70600.00000000001,
      "d": 470,
      "v": 70
    },
    {
      "midi": 64,
      "hit": false,
      "t": 70600.00000000001,
      "d": 470,
      "v": 70
    },
    {
      "midi": 67,
      "hit": false,
      "t": 70600.00000000001,
      "d": 470,
      "v": 70
    },
    {
      "midi": 69,
      "hit": false,
      "t": 70726.66666666667,
      "d": 253.33333333332848,
      "v": 127
    },
    {
      "midi": 69,
      "hit": false,
      "t": 70736.66666666667,
      "d": 253.33333333332848,
      "v": 127
    },
    {
      "midi": 67,
      "hit": false,
      "t": 71003.33333333333,
      "d": 303.3333333333285,
      "v": 127
    },
    {
      "midi": 67,
      "hit": false,
      "t": 71013.33333333333,
      "d": 303.3333333333285,
      "v": 127
    },
    {
      "midi": 60,
      "hit": false,
      "t": 71200.00000000001,
      "d": 646.6666666666715,
      "v": 68
    },
    {
      "midi": 62,
      "hit": false,
      "t": 71200.00000000001,
      "d": 646.6666666666715,
      "v": 68
    },
    {
      "midi": 65,
      "hit": false,
      "t": 71200.00000000001,
      "d": 646.6666666666715,
      "v": 68
    },
    {
      "midi": 69,
      "hit": false,
      "t": 71200.00000000001,
      "d": 646.6666666666715,
      "v": 68
    },
    {
      "midi": 69,
      "hit": false,
      "t": 71266.66666666666,
      "d": 220,
      "v": 127
    },
    {
      "midi": 69,
      "hit": false,
      "t": 71276.66666666666,
      "d": 220,
      "v": 127
    },
    {
      "midi": 69,
      "hit": false,
      "t": 71553.33333333333,
      "d": 226.66666666667152,
      "v": 125
    },
    {
      "midi": 69,
      "hit": false,
      "t": 71563.33333333333,
      "d": 226.66666666667152,
      "v": 125
    },
    {
      "midi": 67,
      "hit": false,
      "t": 71796.66666666667,
      "d": 250,
      "v": 127
    },
    {
      "midi": 67,
      "hit": false,
      "t": 71806.66666666667,
      "d": 250,
      "v": 127
    },
    {
      "midi": 60,
      "hit": false,
      "t": 72000.00000000001,
      "d": 646.6666666666715,
      "v": 68
    },
    {
      "midi": 66,
      "hit": false,
      "t": 72000.00000000001,
      "d": 646.6666666666715,
      "v": 68
    },
    {
      "midi": 69,
      "hit": false,
      "t": 72000.00000000001,
      "d": 646.6666666666715,
      "v": 68
    },
    {
      "midi": 75,
      "hit": false,
      "t": 72000.00000000001,
      "d": 646.6666666666715,
      "v": 68
    },
    {
      "midi": 69,
      "hit": false,
      "t": 72073.33333333334,
      "d": 220,
      "v": 127
    },
    {
      "midi": 69,
      "hit": false,
      "t": 72083.33333333334,
      "d": 220,
      "v": 127
    },
    {
      "midi": 69,
      "hit": false,
      "t": 72350.00000000001,
      "d": 220,
      "v": 118
    },
    {
      "midi": 69,
      "hit": false,
      "t": 72360.00000000001,
      "d": 220,
      "v": 118
    },
    {
      "midi": 67,
      "hit": false,
      "t": 72586.66666666669,
      "d": 246.66666666667152,
      "v": 127
    },
    {
      "midi": 67,
      "hit": false,
      "t": 72596.66666666669,
      "d": 246.66666666667152,
      "v": 127
    },
    {
      "midi": 57,
      "hit": false,
      "t": 72800.00000000001,
      "d": 646.6666666666715,
      "v": 68
    },
    {
      "midi": 64,
      "hit": false,
      "t": 72800.00000000001,
      "d": 646.6666666666715,
      "v": 68
    },
    {
      "midi": 67,
      "hit": false,
      "t": 72800.00000000001,
      "d": 646.6666666666715,
      "v": 68
    },
    {
      "midi": 72,
      "hit": false,
      "t": 72800.00000000001,
      "d": 646.6666666666715,
      "v": 68
    },
    {
      "midi": 69,
      "hit": false,
      "t": 72863.33333333336,
      "d": 340,
      "v": 127
    },
    {
      "midi": 69,
      "hit": false,
      "t": 72873.33333333336,
      "d": 340,
      "v": 127
    },
    {
      "midi": 67,
      "hit": false,
      "t": 73180.00000000003,
      "d": 223.33333333332848,
      "v": 127
    },
    {
      "midi": 67,
      "hit": false,
      "t": 73190.00000000003,
      "d": 223.33333333332848,
      "v": 127
    },
    {
      "midi": 71,
      "hit": false,
      "t": 73450.00000000003,
      "d": 416.6666666666715,
      "v": 127
    },
    {
      "midi": 71,
      "hit": false,
      "t": 73460.00000000003,
      "d": 416.6666666666715,
      "v": 127
    },
    {
      "midi": 55,
      "hit": false,
      "t": 73600.00000000001,
      "d": 816.6666666666715,
      "v": 62
    },
    {
      "midi": 62,
      "hit": false,
      "t": 73800.00000000001,
      "d": 660,
      "v": 47
    },
    {
      "midi": 67,
      "hit": false,
      "t": 73840.00000000003,
      "d": 406.6666666666715,
      "v": 127
    },
    {
      "midi": 67,
      "hit": false,
      "t": 73850.00000000003,
      "d": 406.6666666666715,
      "v": 127
    },
    {
      "midi": 64,
      "hit": false,
      "t": 74000.00000000001,
      "d": 426.6666666666715,
      "v": 52
    },
    {
      "midi": 71,
      "hit": false,
      "t": 74200.00000000001,
      "d": 280,
      "v": 68
    },
    {
      "midi": 69,
      "hit": false,
      "t": 74233.33333333337,
      "d": 346.66666666665697,
      "v": 127
    },
    {
      "midi": 69,
      "hit": false,
      "t": 74243.33333333337,
      "d": 346.66666666665697,
      "v": 127
    },
    {
      "midi": 55,
      "hit": false,
      "t": 74600.00000000001,
      "d": 146.66666666667152,
      "v": 64
    },
    {
      "midi": 64,
      "hit": false,
      "t": 74600.00000000001,
      "d": 146.66666666667152,
      "v": 70
    },
    {
      "midi": 62,
      "hit": false,
      "t": 74600.00000000001,
      "d": 166.66666666667152,
      "v": 58
    },
    {
      "midi": 71,
      "hit": false,
      "t": 74600.00000000001,
      "d": 166.66666666667152,
      "v": 68
    },
    {
      "midi": 71,
      "hit": false,
      "t": 74616.6666666667,
      "d": 430,
      "v": 127
    },
    {
      "midi": 71,
      "hit": false,
      "t": 74626.6666666667,
      "d": 430,
      "v": 127
    },
    {
      "midi": 69,
      "hit": false,
      "t": 75040.00000000003,
      "d": 1763.333333333343,
      "v": 127
    },
    {
      "midi": 69,
      "hit": false,
      "t": 75050.00000000003,
      "d": 1763.333333333343,
      "v": 127
    },
    {
      "midi": 55,
      "hit": false,
      "t": 75200.00000000001,
      "d": 1360,
      "v": 60
    },
    {
      "midi": 61,
      "hit": false,
      "t": 75200.00000000001,
      "d": 1360,
      "v": 60
    },
    {
      "midi": 65,
      "hit": false,
      "t": 75200.00000000001,
      "d": 1360,
      "v": 60
    },
    {
      "midi": 70,
      "hit": false,
      "t": 75200.00000000001,
      "d": 1360,
      "v": 60
    },
    {
      "midi": 60,
      "hit": false,
      "t": 76800.00000000001,
      "d": 2060,
      "v": 58
    },
    {
      "midi": 65,
      "hit": false,
      "t": 76800.00000000001,
      "d": 2253.3333333333285,
      "v": 58
    },
    {
      "midi": 69,
      "hit": false,
      "t": 76800.00000000001,
      "d": 2296.666666666657,
      "v": 66
    },
    {
      "midi": 74,
      "hit": false,
      "t": 76800.00000000001,
      "d": 2296.666666666657,
      "v": 56
    },
    {
      "midi": 65,
      "hit": false,
      "t": 76813.33333333337,
      "d": 2840,
      "v": 127
    },
    {
      "midi": 65,
      "hit": false,
      "t": 76823.33333333337,
      "d": 2840,
      "v": 127
    },
    {
      "midi": 60,
      "hit": false,
      "t": 79200,
      "d": 653.3333333333285,
      "v": 59
    },
    {
      "midi": 65,
      "hit": false,
      "t": 79400,
      "d": 493.3333333333285,
      "v": 49
    },
    {
      "midi": 69,
      "hit": false,
      "t": 79600,
      "d": 286.66666666665697,
      "v": 63
    },
    {
      "midi": 64,
      "hit": false,
      "t": 79613.33333333337,
      "d": 270,
      "v": 127
    },
    {
      "midi": 64,
      "hit": false,
      "t": 79623.33333333337,
      "d": 270,
      "v": 127
    },
    {
      "midi": 74,
      "hit": false,
      "t": 79800,
      "d": 130,
      "v": 68
    },
    {
      "midi": 56,
      "hit": false,
      "t": 80000,
      "d": 2060,
      "v": 58
    },
    {
      "midi": 62,
      "hit": false,
      "t": 80000,
      "d": 2253.3333333333285,
      "v": 58
    },
    {
      "midi": 65,
      "hit": false,
      "t": 80000,
      "d": 2296.666666666657,
      "v": 66
    },
    {
      "midi": 72,
      "hit": false,
      "t": 80000,
      "d": 2296.666666666657,
      "v": 56
    },
    {
      "midi": 67,
      "hit": false,
      "t": 80023.33333333337,
      "d": 390,
      "v": 127
    },
    {
      "midi": 67,
      "hit": false,
      "t": 80033.33333333337,
      "d": 390,
      "v": 127
    },
    {
      "midi": 66,
      "hit": false,
      "t": 80413.33333333337,
      "d": 226.66666666667152,
      "v": 127
    },
    {
      "midi": 66,
      "hit": false,
      "t": 80423.33333333337,
      "d": 226.66666666667152,
      "v": 127
    },
    {
      "midi": 65,
      "hit": false,
      "t": 80653.33333333337,
      "d": 2176.6666666666715,
      "v": 127
    },
    {
      "midi": 65,
      "hit": false,
      "t": 80663.33333333337,
      "d": 2176.6666666666715,
      "v": 127
    },
    {
      "midi": 56,
      "hit": false,
      "t": 82399.99999999999,
      "d": 653.3333333333285,
      "v": 59
    },
    {
      "midi": 62,
      "hit": false,
      "t": 82599.99999999999,
      "d": 493.3333333333285,
      "v": 49
    },
    {
      "midi": 65,
      "hit": false,
      "t": 82799.99999999999,
      "d": 286.66666666665697,
      "v": 63
    },
    {
      "midi": 60,
      "hit": false,
      "t": 82823.33333333337,
      "d": 223.33333333332848,
      "v": 127
    },
    {
      "midi": 60,
      "hit": false,
      "t": 82833.33333333337,
      "d": 223.33333333332848,
      "v": 127
    },
    {
      "midi": 72,
      "hit": false,
      "t": 82999.99999999999,
      "d": 130,
      "v": 68
    },
    {
      "midi": 62,
      "hit": false,
      "t": 83033.33333333337,
      "d": 243.33333333332848,
      "v": 127
    },
    {
      "midi": 62,
      "hit": false,
      "t": 83043.33333333337,
      "d": 243.33333333332848,
      "v": 127
    },
    {
      "midi": 55,
      "hit": false,
      "t": 83199.99999999999,
      "d": 646.6666666666715,
      "v": 68
    },
    {
      "midi": 62,
      "hit": false,
      "t": 83199.99999999999,
      "d": 646.6666666666715,
      "v": 68
    },
    {
      "midi": 64,
      "hit": false,
      "t": 83199.99999999999,
      "d": 646.6666666666715,
      "v": 68
    },
    {
      "midi": 71,
      "hit": false,
      "t": 83199.99999999999,
      "d": 646.6666666666715,
      "v": 68
    },
    {
      "midi": 64,
      "hit": false,
      "t": 83250.00000000003,
      "d": 193.33333333334303,
      "v": 127
    },
    {
      "midi": 64,
      "hit": false,
      "t": 83260.00000000003,
      "d": 193.33333333334303,
      "v": 127
    },
    {
      "midi": 64,
      "hit": false,
      "t": 83546.6666666667,
      "d": 153.33333333332848,
      "v": 127
    },
    {
      "midi": 64,
      "hit": false,
      "t": 83556.6666666667,
      "d": 153.33333333332848,
      "v": 127
    },
    {
      "midi": 64,
      "hit": false,
      "t": 83800.00000000003,
      "d": 176.66666666667152,
      "v": 127
    },
    {
      "midi": 64,
      "hit": false,
      "t": 83810.00000000003,
      "d": 176.66666666667152,
      "v": 127
    },
    {
      "midi": 65,
      "hit": false,
      "t": 84053.33333333337,
      "d": 170,
      "v": 127
    },
    {
      "midi": 65,
      "hit": false,
      "t": 84063.33333333337,
      "d": 170,
      "v": 127
    },
    {
      "midi": 55,
      "hit": false,
      "t": 84199.99999999999,
      "d": 470,
      "v": 70
    },
    {
      "midi": 58,
      "hit": false,
      "t": 84199.99999999999,
      "d": 470,
      "v": 70
    },
    {
      "midi": 61,
      "hit": false,
      "t": 84199.99999999999,
      "d": 470,
      "v": 70
    },
    {
      "midi": 65,
      "hit": false,
      "t": 84199.99999999999,
      "d": 470,
      "v": 70
    },
    {
      "midi": 65,
      "hit": false,
      "t": 84316.6666666667,
      "d": 170,
      "v": 127
    },
    {
      "midi": 65,
      "hit": false,
      "t": 84326.6666666667,
      "d": 170,
      "v": 127
    },
    {
      "midi": 65,
      "hit": false,
      "t": 84570.00000000003,
      "d": 236.66666666667152,
      "v": 127
    },
    {
      "midi": 65,
      "hit": false,
      "t": 84580.00000000003,
      "d": 236.66666666667152,
      "v": 127
    },
    {
      "midi": 53,
      "hit": false,
      "t": 84799.99999999999,
      "d": 646.6666666666715,
      "v": 68
    },
    {
      "midi": 57,
      "hit": false,
      "t": 84799.99999999999,
      "d": 646.6666666666715,
      "v": 68
    },
    {
      "midi": 60,
      "hit": false,
      "t": 84799.99999999999,
      "d": 646.6666666666715,
      "v": 68
    },
    {
      "midi": 64,
      "hit": false,
      "t": 84799.99999999999,
      "d": 646.6666666666715,
      "v": 68
    },
    {
      "midi": 62,
      "hit": false,
      "t": 84836.6666666667,
      "d": 176.66666666667152,
      "v": 127
    },
    {
      "midi": 62,
      "hit": false,
      "t": 84846.6666666667,
      "d": 176.66666666667152,
      "v": 127
    },
    {
      "midi": 62,
      "hit": false,
      "t": 85126.6666666667,
      "d": 153.33333333332848,
      "v": 127
    },
    {
      "midi": 62,
      "hit": false,
      "t": 85136.6666666667,
      "d": 153.33333333332848,
      "v": 127
    },
    {
      "midi": 62,
      "hit": false,
      "t": 85386.6666666667,
      "d": 163.33333333332848,
      "v": 127
    },
    {
      "midi": 62,
      "hit": false,
      "t": 85396.6666666667,
      "d": 163.33333333332848,
      "v": 127
    },
    {
      "midi": 53,
      "hit": false,
      "t": 85599.99999999999,
      "d": 646.6666666666715,
      "v": 68
    },
    {
      "midi": 57,
      "hit": false,
      "t": 85599.99999999999,
      "d": 646.6666666666715,
      "v": 68
    },
    {
      "midi": 59,
      "hit": false,
      "t": 85599.99999999999,
      "d": 646.6666666666715,
      "v": 68
    },
    {
      "midi": 64,
      "hit": false,
      "t": 85599.99999999999,
      "d": 646.6666666666715,
      "v": 68
    },
    {
      "midi": 64,
      "hit": false,
      "t": 85633.33333333336,
      "d": 186.66666666667152,
      "v": 127
    },
    {
      "midi": 64,
      "hit": false,
      "t": 85643.33333333336,
      "d": 186.66666666667152,
      "v": 127
    },
    {
      "midi": 64,
      "hit": false,
      "t": 85920.00000000003,
      "d": 143.33333333332848,
      "v": 127
    },
    {
      "midi": 64,
      "hit": false,
      "t": 85930.00000000003,
      "d": 143.33333333332848,
      "v": 127
    },
    {
      "midi": 64,
      "hit": false,
      "t": 86156.66666666669,
      "d": 166.66666666667152,
      "v": 127
    },
    {
      "midi": 64,
      "hit": false,
      "t": 86166.66666666669,
      "d": 166.66666666667152,
      "v": 127
    },
    {
      "midi": 52,
      "hit": false,
      "t": 86399.99999999999,
      "d": 1360,
      "v": 60
    },
    {
      "midi": 57,
      "hit": false,
      "t": 86399.99999999999,
      "d": 1360,
      "v": 60
    },
    {
      "midi": 60,
      "hit": false,
      "t": 86399.99999999999,
      "d": 1360,
      "v": 60
    },
    {
      "midi": 67,
      "hit": false,
      "t": 86399.99999999999,
      "d": 1360,
      "v": 60
    },
    {
      "midi": 60,
      "hit": false,
      "t": 86426.66666666669,
      "d": 2713.3333333333285,
      "v": 127
    },
    {
      "midi": 60,
      "hit": false,
      "t": 86436.66666666669,
      "d": 2713.3333333333285,
      "v": 127
    },
    {
      "midi": 53,
      "hit": false,
      "t": 87999.99999999999,
      "d": 646.6666666666715,
      "v": 68
    },
    {
      "midi": 60,
      "hit": false,
      "t": 87999.99999999999,
      "d": 646.6666666666715,
      "v": 68
    },
    {
      "midi": 62,
      "hit": false,
      "t": 87999.99999999999,
      "d": 646.6666666666715,
      "v": 68
    },
    {
      "midi": 69,
      "hit": false,
      "t": 87999.99999999999,
      "d": 646.6666666666715,
      "v": 68
    },
    {
      "midi": 53,
      "hit": false,
      "t": 88799.99999999999,
      "d": 646.6666666666715,
      "v": 68
    },
    {
      "midi": 59,
      "hit": false,
      "t": 88799.99999999999,
      "d": 646.6666666666715,
      "v": 68
    },
    {
      "midi": 64,
      "hit": false,
      "t": 88799.99999999999,
      "d": 646.6666666666715,
      "v": 68
    },
    {
      "midi": 69,
      "hit": false,
      "t": 88799.99999999999,
      "d": 646.6666666666715,
      "v": 68
    },
    {
      "midi": 57,
      "hit": false,
      "t": 89599.99999999999,
      "d": 226.66666666667152,
      "v": 62
    },
    {
      "midi": 69,
      "hit": false,
      "t": 89600.00000000001,
      "d": 2536.6666666666715,
      "v": 127
    },
    {
      "midi": 69,
      "hit": false,
      "t": 89610.00000000001,
      "d": 2536.6666666666715,
      "v": 127
    },
    {
      "midi": 64,
      "hit": false,
      "t": 89799.99999999999,
      "d": 1470,
      "v": 58
    },
    {
      "midi": 67,
      "hit": false,
      "t": 89999.99999999999,
      "d": 1300,
      "v": 68
    },
    {
      "midi": 72,
      "hit": false,
      "t": 90199.99999999999,
      "d": 1203.3333333333285,
      "v": 68
    },
    {
      "midi": 53,
      "hit": false,
      "t": 91399.99999999999,
      "d": 170,
      "v": 70
    },
    {
      "midi": 56,
      "hit": false,
      "t": 91399.99999999999,
      "d": 170,
      "v": 70
    },
    {
      "midi": 58,
      "hit": false,
      "t": 91399.99999999999,
      "d": 170,
      "v": 70
    },
    {
      "midi": 61,
      "hit": false,
      "t": 91399.99999999999,
      "d": 170,
      "v": 70
    },
    {
      "midi": 52,
      "hit": false,
      "t": 91599.99999999999,
      "d": 856.6666666666715,
      "v": 78
    },
    {
      "midi": 55,
      "hit": false,
      "t": 91599.99999999999,
      "d": 856.6666666666715,
      "v": 78
    },
    {
      "midi": 57,
      "hit": false,
      "t": 91599.99999999999,
      "d": 856.6666666666715,
      "v": 78
    },
    {
      "midi": 60,
      "hit": false,
      "t": 91599.99999999999,
      "d": 856.6666666666715,
      "v": 78
    },
    {
      "midi": 67,
      "hit": false,
      "t": 92206.66666666669,
      "d": 386.6666666666715,
      "v": 127
    },
    {
      "midi": 67,
      "hit": false,
      "t": 92216.66666666669,
      "d": 386.6666666666715,
      "v": 127
    },
    {
      "midi": 71,
      "hit": false,
      "t": 92626.66666666669,
      "d": 376.6666666666715,
      "v": 127
    },
    {
      "midi": 71,
      "hit": false,
      "t": 92636.66666666669,
      "d": 376.6666666666715,
      "v": 127
    },
    {
      "midi": 57,
      "hit": false,
      "t": 92799.99999999999,
      "d": 816.6666666666715,
      "v": 62
    },
    {
      "midi": 64,
      "hit": false,
      "t": 92999.99999999999,
      "d": 660,
      "v": 47
    },
    {
      "midi": 70,
      "hit": false,
      "t": 93040.00000000003,
      "d": 403.3333333333285,
      "v": 127
    },
    {
      "midi": 70,
      "hit": false,
      "t": 93050.00000000003,
      "d": 403.3333333333285,
      "v": 127
    },
    {
      "midi": 66,
      "hit": false,
      "t": 93199.99999999999,
      "d": 426.6666666666715,
      "v": 52
    },
    {
      "midi": 72,
      "hit": false,
      "t": 93399.99999999999,
      "d": 280,
      "v": 68
    },
    {
      "midi": 69,
      "hit": false,
      "t": 93453.33333333336,
      "d": 2006.6666666666715,
      "v": 127
    },
    {
      "midi": 69,
      "hit": false,
      "t": 93463.33333333336,
      "d": 2006.6666666666715,
      "v": 127
    },
    {
      "midi": 57,
      "hit": false,
      "t": 93799.99999999999,
      "d": 146.66666666667152,
      "v": 64
    },
    {
      "midi": 66,
      "hit": false,
      "t": 93799.99999999999,
      "d": 146.66666666667152,
      "v": 70
    },
    {
      "midi": 64,
      "hit": false,
      "t": 93799.99999999999,
      "d": 166.66666666667152,
      "v": 58
    },
    {
      "midi": 72,
      "hit": false,
      "t": 93799.99999999999,
      "d": 166.66666666667152,
      "v": 68
    },
    {
      "midi": 57,
      "hit": false,
      "t": 94399.99999999999,
      "d": 1360,
      "v": 60
    },
    {
      "midi": 63,
      "hit": false,
      "t": 94399.99999999999,
      "d": 1360,
      "v": 60
    },
    {
      "midi": 67,
      "hit": false,
      "t": 94399.99999999999,
      "d": 1360,
      "v": 60
    },
    {
      "midi": 74,
      "hit": false,
      "t": 94399.99999999999,
      "d": 1360,
      "v": 60
    },
    {
      "midi": 67,
      "hit": false,
      "t": 95440.00000000003,
      "d": 360,
      "v": 127
    },
    {
      "midi": 67,
      "hit": false,
      "t": 95450.00000000003,
      "d": 360,
      "v": 127
    },
    {
      "midi": 68,
      "hit": false,
      "t": 95756.6666666667,
      "d": 206.66666666665697,
      "v": 127
    },
    {
      "midi": 68,
      "hit": false,
      "t": 95766.6666666667,
      "d": 206.66666666665697,
      "v": 127
    },
    {
      "midi": 57,
      "hit": false,
      "t": 95999.99999999999,
      "d": 646.6666666666715,
      "v": 68
    },
    {
      "midi": 60,
      "hit": false,
      "t": 95999.99999999999,
      "d": 646.6666666666715,
      "v": 68
    },
    {
      "midi": 64,
      "hit": false,
      "t": 95999.99999999999,
      "d": 646.6666666666715,
      "v": 68
    },
    {
      "midi": 67,
      "hit": false,
      "t": 95999.99999999999,
      "d": 646.6666666666715,
      "v": 68
    },
    {
      "midi": 69,
      "hit": false,
      "t": 96040.00000000003,
      "d": 190,
      "v": 127
    },
    {
      "midi": 69,
      "hit": false,
      "t": 96050.00000000003,
      "d": 190,
      "v": 127
    },
    {
      "midi": 69,
      "hit": false,
      "t": 96293.33333333336,
      "d": 253.33333333332848,
      "v": 118
    },
    {
      "midi": 69,
      "hit": false,
      "t": 96303.33333333336,
      "d": 253.33333333332848,
      "v": 118
    },
    {
      "midi": 67,
      "hit": false,
      "t": 96576.66666666669,
      "d": 193.33333333332848,
      "v": 127
    },
    {
      "midi": 67,
      "hit": false,
      "t": 96586.66666666669,
      "d": 193.33333333332848,
      "v": 127
    },
    {
      "midi": 69,
      "hit": false,
      "t": 96836.66666666669,
      "d": 200,
      "v": 127
    },
    {
      "midi": 69,
      "hit": false,
      "t": 96846.66666666669,
      "d": 200,
      "v": 127
    },
    {
      "midi": 60,
      "hit": false,
      "t": 96999.99999999999,
      "d": 470,
      "v": 70
    },
    {
      "midi": 65,
      "hit": false,
      "t": 96999.99999999999,
      "d": 470,
      "v": 70
    },
    {
      "midi": 69,
      "hit": false,
      "t": 96999.99999999999,
      "d": 470,
      "v": 70
    },
    {
      "midi": 76,
      "hit": false,
      "t": 96999.99999999999,
      "d": 470,
      "v": 70
    },
    {
      "midi": 69,
      "hit": false,
      "t": 97113.33333333336,
      "d": 186.66666666667152,
      "v": 127
    },
    {
      "midi": 69,
      "hit": false,
      "t": 97123.33333333336,
      "d": 186.66666666667152,
      "v": 127
    },
    {
      "midi": 67,
      "hit": false,
      "t": 97370.00000000003,
      "d": 213.33333333332848,
      "v": 127
    },
    {
      "midi": 67,
      "hit": false,
      "t": 97380.00000000003,
      "d": 213.33333333332848,
      "v": 127
    },
    {
      "midi": 69,
      "hit": false,
      "t": 97623.33333333336,
      "d": 600,
      "v": 127
    },
    {
      "midi": 69,
      "hit": false,
      "t": 97633.33333333336,
      "d": 600,
      "v": 127
    },
    {
      "midi": 60,
      "hit": false,
      "t": 97799.99999999999,
      "d": 470,
      "v": 70
    },
    {
      "midi": 66,
      "hit": false,
      "t": 97799.99999999999,
      "d": 470,
      "v": 70
    },
    {
      "midi": 69,
      "hit": false,
      "t": 97799.99999999999,
      "d": 470,
      "v": 70
    },
    {
      "midi": 75,
      "hit": false,
      "t": 97799.99999999999,
      "d": 470,
      "v": 70
    },
    {
      "midi": 67,
      "hit": false,
      "t": 98236.66666666669,
      "d": 363.3333333333285,
      "v": 127
    },
    {
      "midi": 67,
      "hit": false,
      "t": 98246.66666666669,
      "d": 363.3333333333285,
      "v": 127
    },
    {
      "midi": 57,
      "hit": false,
      "t": 98599.99999999999,
      "d": 470,
      "v": 70
    },
    {
      "midi": 64,
      "hit": false,
      "t": 98599.99999999999,
      "d": 470,
      "v": 70
    },
    {
      "midi": 67,
      "hit": false,
      "t": 98599.99999999999,
      "d": 470,
      "v": 70
    },
    {
      "midi": 72,
      "hit": false,
      "t": 98599.99999999999,
      "d": 470,
      "v": 70
    },
    {
      "midi": 69,
      "hit": false,
      "t": 98646.66666666669,
      "d": 310,
      "v": 127
    },
    {
      "midi": 69,
      "hit": false,
      "t": 98656.66666666669,
      "d": 310,
      "v": 127
    },
    {
      "midi": 67,
      "hit": false,
      "t": 98943.33333333336,
      "d": 270,
      "v": 127
    },
    {
      "midi": 67,
      "hit": false,
      "t": 98953.33333333336,
      "d": 270,
      "v": 127
    },
    {
      "midi": 55,
      "hit": false,
      "t": 99199.99999999999,
      "d": 1360,
      "v": 60
    },
    {
      "midi": 62,
      "hit": false,
      "t": 99199.99999999999,
      "d": 1360,
      "v": 60
    },
    {
      "midi": 64,
      "hit": false,
      "t": 99199.99999999999,
      "d": 1360,
      "v": 60
    },
    {
      "midi": 71,
      "hit": false,
      "t": 99199.99999999999,
      "d": 1360,
      "v": 60
    },
    {
      "midi": 71,
      "hit": false,
      "t": 99236.66666666669,
      "d": 373.3333333333285,
      "v": 127
    },
    {
      "midi": 71,
      "hit": false,
      "t": 99246.66666666669,
      "d": 373.3333333333285,
      "v": 127
    },
    {
      "midi": 67,
      "hit": false,
      "t": 99600.00000000001,
      "d": 226.66666666667152,
      "v": 120
    },
    {
      "midi": 67,
      "hit": false,
      "t": 99610.00000000001,
      "d": 226.66666666667152,
      "v": 120
    },
    {
      "midi": 69,
      "hit": false,
      "t": 99843.33333333336,
      "d": 360,
      "v": 127
    },
    {
      "midi": 69,
      "hit": false,
      "t": 99853.33333333336,
      "d": 360,
      "v": 127
    },
    {
      "midi": 71,
      "hit": false,
      "t": 100246.66666666669,
      "d": 343.3333333333285,
      "v": 127
    },
    {
      "midi": 71,
      "hit": false,
      "t": 100256.66666666669,
      "d": 343.3333333333285,
      "v": 127
    },
    {
      "midi": 69,
      "hit": false,
      "t": 100630.00000000001,
      "d": 1770,
      "v": 127
    },
    {
      "midi": 69,
      "hit": false,
      "t": 100640.00000000001,
      "d": 1770,
      "v": 127
    },
    {
      "midi": 64,
      "hit": false,
      "t": 100799.99999999999,
      "d": 1390,
      "v": 66
    },
    {
      "midi": 61,
      "hit": false,
      "t": 100799.99999999999,
      "d": 1406.6666666666715,
      "v": 56
    },
    {
      "midi": 69,
      "hit": false,
      "t": 100799.99999999999,
      "d": 1410,
      "v": 61
    },
    {
      "midi": 55,
      "hit": false,
      "t": 100799.99999999999,
      "d": 1420,
      "v": 59
    },
    {
      "midi": 65,
      "hit": false,
      "t": 102430.00000000001,
      "d": 2866.6666666666715,
      "v": 127
    },
    {
      "midi": 65,
      "hit": false,
      "t": 102440.00000000001,
      "d": 2866.6666666666715,
      "v": 127
    },
    {
      "midi": 86,
      "hit": false,
      "t": 103999.99999999999,
      "d": 1536.6666666666715,
      "v": 63
    },
    {
      "midi": 81,
      "hit": false,
      "t": 104199.99999999999,
      "d": 1260,
      "v": 53
    },
    {
      "midi": 77,
      "hit": false,
      "t": 104399.99999999999,
      "d": 1086.6666666666715,
      "v": 59
    },
    {
      "midi": 72,
      "hit": false,
      "t": 104599.99999999999,
      "d": 896.6666666666715,
      "v": 48
    },
    {
      "midi": 62,
      "hit": false,
      "t": 104999.99999999999,
      "d": 543.333333333343,
      "v": 52
    },
    {
      "midi": 64,
      "hit": false,
      "t": 105226.66666666669,
      "d": 236.66666666667152,
      "v": 127
    },
    {
      "midi": 64,
      "hit": false,
      "t": 105236.66666666669,
      "d": 236.66666666667152,
      "v": 127
    },
    {
      "midi": 67,
      "hit": false,
      "t": 105630.00000000003,
      "d": 310,
      "v": 127
    },
    {
      "midi": 67,
      "hit": false,
      "t": 105640.00000000003,
      "d": 310,
      "v": 127
    },
    {
      "midi": 66,
      "hit": false,
      "t": 106020.00000000003,
      "d": 196.66666666667152,
      "v": 127
    },
    {
      "midi": 66,
      "hit": false,
      "t": 106030.00000000003,
      "d": 196.66666666667152,
      "v": 127
    },
    {
      "midi": 65,
      "hit": false,
      "t": 106283.33333333337,
      "d": 2126.6666666666715,
      "v": 127
    },
    {
      "midi": 65,
      "hit": false,
      "t": 106293.33333333337,
      "d": 2126.6666666666715,
      "v": 127
    },
    {
      "midi": 84,
      "hit": false,
      "t": 107200,
      "d": 1536.6666666666715,
      "v": 63
    },
    {
      "midi": 77,
      "hit": false,
      "t": 107400,
      "d": 1260,
      "v": 53
    },
    {
      "midi": 74,
      "hit": false,
      "t": 107600,
      "d": 1086.6666666666715,
      "v": 59
    },
    {
      "midi": 68,
      "hit": false,
      "t": 107800,
      "d": 896.6666666666715,
      "v": 48
    },
    {
      "midi": 60,
      "hit": false,
      "t": 108200,
      "d": 543.333333333343,
      "v": 52
    },
    {
      "midi": 60,
      "hit": false,
      "t": 108413.33333333337,
      "d": 240,
      "v": 127
    },
    {
      "midi": 60,
      "hit": false,
      "t": 108423.33333333337,
      "d": 240,
      "v": 127
    },
    {
      "midi": 62,
      "hit": false,
      "t": 108603.33333333337,
      "d": 150,
      "v": 127
    },
    {
      "midi": 62,
      "hit": false,
      "t": 108613.33333333337,
      "d": 150,
      "v": 127
    },
    {
      "midi": 55,
      "hit": false,
      "t": 108800.00000000001,
      "d": 816.6666666666715,
      "v": 62
    },
    {
      "midi": 64,
      "hit": false,
      "t": 108816.6666666667,
      "d": 206.66666666667152,
      "v": 127
    },
    {
      "midi": 64,
      "hit": false,
      "t": 108826.6666666667,
      "d": 206.66666666667152,
      "v": 127
    },
    {
      "midi": 62,
      "hit": false,
      "t": 109000.00000000001,
      "d": 660,
      "v": 47
    },
    {
      "midi": 64,
      "hit": false,
      "t": 109106.6666666667,
      "d": 160,
      "v": 127
    },
    {
      "midi": 64,
      "hit": false,
      "t": 109116.6666666667,
      "d": 160,
      "v": 127
    },
    {
      "midi": 64,
      "hit": false,
      "t": 109200.00000000001,
      "d": 426.6666666666715,
      "v": 52
    },
    {
      "midi": 64,
      "hit": false,
      "t": 109366.6666666667,
      "d": 166.66666666667152,
      "v": 127
    },
    {
      "midi": 64,
      "hit": false,
      "t": 109376.6666666667,
      "d": 166.66666666667152,
      "v": 127
    },
    {
      "midi": 71,
      "hit": false,
      "t": 109400.00000000001,
      "d": 280,
      "v": 68
    },
    {
      "midi": 64,
      "hit": false,
      "t": 109630.00000000004,
      "d": 303.3333333333285,
      "v": 127
    },
    {
      "midi": 64,
      "hit": false,
      "t": 109640.00000000004,
      "d": 303.3333333333285,
      "v": 127
    },
    {
      "midi": 55,
      "hit": false,
      "t": 109800.00000000001,
      "d": 146.66666666667152,
      "v": 64
    },
    {
      "midi": 64,
      "hit": false,
      "t": 109800.00000000001,
      "d": 146.66666666667152,
      "v": 70
    },
    {
      "midi": 62,
      "hit": false,
      "t": 109800.00000000001,
      "d": 166.66666666667152,
      "v": 58
    },
    {
      "midi": 71,
      "hit": false,
      "t": 109800.00000000001,
      "d": 166.66666666667152,
      "v": 68
    },
    {
      "midi": 63,
      "hit": false,
      "t": 109936.6666666667,
      "d": 256.66666666665697,
      "v": 127
    },
    {
      "midi": 63,
      "hit": false,
      "t": 109946.6666666667,
      "d": 256.66666666665697,
      "v": 127
    },
    {
      "midi": 64,
      "hit": false,
      "t": 110180.00000000003,
      "d": 253.33333333332848,
      "v": 127
    },
    {
      "midi": 64,
      "hit": false,
      "t": 110190.00000000003,
      "d": 253.33333333332848,
      "v": 127
    },
    {
      "midi": 55,
      "hit": false,
      "t": 110400.00000000001,
      "d": 816.6666666666715,
      "v": 62
    },
    {
      "midi": 65,
      "hit": false,
      "t": 110433.33333333336,
      "d": 1173.3333333333285,
      "v": 127
    },
    {
      "midi": 65,
      "hit": false,
      "t": 110443.33333333336,
      "d": 1173.3333333333285,
      "v": 127
    },
    {
      "midi": 61,
      "hit": false,
      "t": 110600.00000000001,
      "d": 660,
      "v": 47
    },
    {
      "midi": 65,
      "hit": false,
      "t": 110800.00000000001,
      "d": 426.6666666666715,
      "v": 52
    },
    {
      "midi": 69,
      "hit": false,
      "t": 111000.00000000001,
      "d": 280,
      "v": 68
    },
    {
      "midi": 55,
      "hit": false,
      "t": 111400.00000000001,
      "d": 146.66666666667152,
      "v": 64
    },
    {
      "midi": 65,
      "hit": false,
      "t": 111400.00000000001,
      "d": 146.66666666667152,
      "v": 70
    },
    {
      "midi": 61,
      "hit": false,
      "t": 111400.00000000001,
      "d": 166.66666666667152,
      "v": 58
    },
    {
      "midi": 69,
      "hit": false,
      "t": 111400.00000000001,
      "d": 166.66666666667152,
      "v": 68
    },
    {
      "midi": 64,
      "hit": false,
      "t": 111610.00000000001,
      "d": 183.33333333332848,
      "v": 127
    },
    {
      "midi": 64,
      "hit": false,
      "t": 111620.00000000001,
      "d": 183.33333333332848,
      "v": 127
    },
    {
      "midi": 65,
      "hit": false,
      "t": 111800.00000000001,
      "d": 236.66666666667152,
      "v": 127
    },
    {
      "midi": 65,
      "hit": false,
      "t": 111810.00000000001,
      "d": 236.66666666667152,
      "v": 127
    },
    {
      "midi": 53,
      "hit": false,
      "t": 112000.00000000001,
      "d": 1360,
      "v": 60
    },
    {
      "midi": 57,
      "hit": false,
      "t": 112000.00000000001,
      "d": 1360,
      "v": 60
    },
    {
      "midi": 60,
      "hit": false,
      "t": 112000.00000000001,
      "d": 1360,
      "v": 60
    },
    {
      "midi": 62,
      "hit": false,
      "t": 112000.00000000001,
      "d": 1360,
      "v": 60
    },
    {
      "midi": 67,
      "hit": false,
      "t": 112010.00000000001,
      "d": 246.66666666667152,
      "v": 127
    },
    {
      "midi": 67,
      "hit": false,
      "t": 112020.00000000001,
      "d": 246.66666666667152,
      "v": 127
    },
    {
      "midi": 67,
      "hit": false,
      "t": 112306.66666666669,
      "d": 153.33333333332848,
      "v": 127
    },
    {
      "midi": 67,
      "hit": false,
      "t": 112316.66666666669,
      "d": 153.33333333332848,
      "v": 127
    },
    {
      "midi": 67,
      "hit": false,
      "t": 112563.33333333334,
      "d": 160,
      "v": 127
    },
    {
      "midi": 67,
      "hit": false,
      "t": 112573.33333333334,
      "d": 160,
      "v": 127
    },
    {
      "midi": 67,
      "hit": false,
      "t": 112823.33333333334,
      "d": 340,
      "v": 127
    },
    {
      "midi": 67,
      "hit": false,
      "t": 112833.33333333334,
      "d": 340,
      "v": 127
    },
    {
      "midi": 66,
      "hit": false,
      "t": 113126.66666666667,
      "d": 213.33333333334303,
      "v": 127
    },
    {
      "midi": 66,
      "hit": false,
      "t": 113136.66666666667,
      "d": 213.33333333334303,
      "v": 127
    },
    {
      "midi": 67,
      "hit": false,
      "t": 113370.00000000001,
      "d": 246.66666666667152,
      "v": 127
    },
    {
      "midi": 67,
      "hit": false,
      "t": 113380.00000000001,
      "d": 246.66666666667152,
      "v": 127
    },
    {
      "midi": 53,
      "hit": false,
      "t": 113600.00000000001,
      "d": 1360,
      "v": 60
    },
    {
      "midi": 57,
      "hit": false,
      "t": 113600.00000000001,
      "d": 1360,
      "v": 60
    },
    {
      "midi": 59,
      "hit": false,
      "t": 113600.00000000001,
      "d": 1360,
      "v": 60
    },
    {
      "midi": 64,
      "hit": false,
      "t": 113600.00000000001,
      "d": 1360,
      "v": 60
    },
    {
      "midi": 69,
      "hit": false,
      "t": 113640.00000000001,
      "d": 1363.3333333333285,
      "v": 127
    },
    {
      "midi": 69,
      "hit": false,
      "t": 113650.00000000001,
      "d": 1363.3333333333285,
      "v": 127
    },
    {
      "midi": 69,
      "hit": false,
      "t": 115220.00000000001,
      "d": 2776.6666666666715,
      "v": 127
    },
    {
      "midi": 69,
      "hit": false,
      "t": 115230.00000000001,
      "d": 2776.6666666666715,
      "v": 127
    },
    {
      "midi": 84,
      "hit": false,
      "t": 116800.00000000001,
      "d": 1366.6666666666715,
      "v": 63
    },
    {
      "midi": 79,
      "hit": false,
      "t": 117000.00000000001,
      "d": 1166.6666666666715,
      "v": 53
    },
    {
      "midi": 76,
      "hit": false,
      "t": 117200.00000000001,
      "d": 966.6666666666715,
      "v": 59
    },
    {
      "midi": 69,
      "hit": false,
      "t": 117400.00000000001,
      "d": 766.6666666666715,
      "v": 48
    },
    {
      "midi": 60,
      "hit": false,
      "t": 117800.00000000001,
      "d": 366.6666666666715,
      "v": 52
    },
    {
      "midi": 67,
      "hit": false,
      "t": 118020.00000000001,
      "d": 440,
      "v": 127
    },
    {
      "midi": 67,
      "hit": false,
      "t": 118030.00000000001,
      "d": 440,
      "v": 127
    },
    {
      "midi": 57,
      "hit": false,
      "t": 118200.00000000001,
      "d": 1010,
      "v": 62
    },
    {
      "midi": 71,
      "hit": false,
      "t": 118450.00000000001,
      "d": 386.6666666666715,
      "v": 127
    },
    {
      "midi": 71,
      "hit": false,
      "t": 118460.00000000001,
      "d": 386.6666666666715,
      "v": 127
    },
    {
      "midi": 64,
      "hit": false,
      "t": 118600.00000000001,
      "d": 660,
      "v": 47
    },
    {
      "midi": 66,
      "hit": false,
      "t": 118800.00000000001,
      "d": 426.6666666666715,
      "v": 52
    },
    {
      "midi": 70,
      "hit": false,
      "t": 118846.66666666669,
      "d": 246.66666666665697,
      "v": 127
    },
    {
      "midi": 70,
      "hit": false,
      "t": 118856.66666666669,
      "d": 246.66666666665697,
      "v": 127
    },
    {
      "midi": 72,
      "hit": false,
      "t": 119000.00000000001,
      "d": 280,
      "v": 68
    },
    {
      "midi": 69,
      "hit": false,
      "t": 119090.00000000001,
      "d": 2366.666666666657,
      "v": 127
    },
    {
      "midi": 69,
      "hit": false,
      "t": 119100.00000000001,
      "d": 2366.666666666657,
      "v": 127
    },
    {
      "midi": 57,
      "hit": false,
      "t": 119400.00000000001,
      "d": 146.66666666667152,
      "v": 64
    },
    {
      "midi": 66,
      "hit": false,
      "t": 119400.00000000001,
      "d": 146.66666666667152,
      "v": 70
    },
    {
      "midi": 64,
      "hit": false,
      "t": 119400.00000000001,
      "d": 166.66666666667152,
      "v": 58
    },
    {
      "midi": 72,
      "hit": false,
      "t": 119400.00000000001,
      "d": 166.66666666667152,
      "v": 68
    },
    {
      "midi": 57,
      "hit": false,
      "t": 120000.00000000001,
      "d": 1360,
      "v": 60
    },
    {
      "midi": 63,
      "hit": false,
      "t": 120000.00000000001,
      "d": 1360,
      "v": 60
    },
    {
      "midi": 67,
      "hit": false,
      "t": 120000.00000000001,
      "d": 1360,
      "v": 60
    },
    {
      "midi": 72,
      "hit": false,
      "t": 120000.00000000001,
      "d": 1360,
      "v": 60
    },
    {
      "midi": 67,
      "hit": false,
      "t": 121446.66666666667,
      "d": 186.66666666667152,
      "v": 127
    },
    {
      "midi": 67,
      "hit": false,
      "t": 121456.66666666667,
      "d": 186.66666666667152,
      "v": 127
    },
    {
      "midi": 69,
      "hit": false,
      "t": 121650.00000000001,
      "d": 206.66666666667152,
      "v": 127
    },
    {
      "midi": 69,
      "hit": false,
      "t": 121660.00000000001,
      "d": 206.66666666667152,
      "v": 127
    },
    {
      "midi": 57,
      "hit": false,
      "t": 121800.00000000001,
      "d": 470,
      "v": 70
    },
    {
      "midi": 64,
      "hit": false,
      "t": 121800.00000000001,
      "d": 470,
      "v": 70
    },
    {
      "midi": 67,
      "hit": false,
      "t": 121800.00000000001,
      "d": 470,
      "v": 70
    },
    {
      "midi": 72,
      "hit": false,
      "t": 121800.00000000001,
      "d": 470,
      "v": 70
    },
    {
      "midi": 69,
      "hit": false,
      "t": 121930.00000000001,
      "d": 256.6666666666715,
      "v": 127
    },
    {
      "midi": 69,
      "hit": false,
      "t": 121940.00000000001,
      "d": 256.6666666666715,
      "v": 127
    },
    {
      "midi": 67,
      "hit": false,
      "t": 122190.00000000001,
      "d": 246.66666666667152,
      "v": 127
    },
    {
      "midi": 67,
      "hit": false,
      "t": 122200.00000000001,
      "d": 246.66666666667152,
      "v": 127
    },
    {
      "midi": 69,
      "hit": false,
      "t": 122440.00000000001,
      "d": 213.33333333332848,
      "v": 127
    },
    {
      "midi": 69,
      "hit": false,
      "t": 122450.00000000001,
      "d": 213.33333333332848,
      "v": 127
    },
    {
      "midi": 60,
      "hit": false,
      "t": 122600.00000000001,
      "d": 366.6666666666715,
      "v": 70
    },
    {
      "midi": 65,
      "hit": false,
      "t": 122600.00000000001,
      "d": 366.6666666666715,
      "v": 70
    },
    {
      "midi": 69,
      "hit": false,
      "t": 122600.00000000001,
      "d": 366.6666666666715,
      "v": 70
    },
    {
      "midi": 74,
      "hit": false,
      "t": 122600.00000000001,
      "d": 366.6666666666715,
      "v": 70
    },
    {
      "midi": 69,
      "hit": false,
      "t": 122723.33333333334,
      "d": 250,
      "v": 127
    },
    {
      "midi": 69,
      "hit": false,
      "t": 122733.33333333334,
      "d": 250,
      "v": 127
    },
    {
      "midi": 67,
      "hit": false,
      "t": 122986.66666666667,
      "d": 243.33333333332848,
      "v": 127
    },
    {
      "midi": 67,
      "hit": false,
      "t": 122996.66666666667,
      "d": 243.33333333332848,
      "v": 127
    },
    {
      "midi": 60,
      "hit": false,
      "t": 123000.00000000001,
      "d": 840,
      "v": 68
    },
    {
      "midi": 63,
      "hit": false,
      "t": 123000.00000000001,
      "d": 840,
      "v": 68
    },
    {
      "midi": 66,
      "hit": false,
      "t": 123000.00000000001,
      "d": 840,
      "v": 68
    },
    {
      "midi": 69,
      "hit": false,
      "t": 123000.00000000001,
      "d": 840,
      "v": 68
    },
    {
      "midi": 69,
      "hit": false,
      "t": 123246.66666666667,
      "d": 356.6666666666715,
      "v": 127
    },
    {
      "midi": 69,
      "hit": false,
      "t": 123256.66666666667,
      "d": 356.6666666666715,
      "v": 127
    },
    {
      "midi": 67,
      "hit": false,
      "t": 123603.33333333334,
      "d": 256.6666666666715,
      "v": 127
    },
    {
      "midi": 67,
      "hit": false,
      "t": 123613.33333333334,
      "d": 256.6666666666715,
      "v": 127
    },
    {
      "midi": 69,
      "hit": false,
      "t": 123850.00000000001,
      "d": 390,
      "v": 127
    },
    {
      "midi": 69,
      "hit": false,
      "t": 123860.00000000001,
      "d": 390,
      "v": 127
    },
    {
      "midi": 57,
      "hit": false,
      "t": 124000.00000000001,
      "d": 566.6666666666715,
      "v": 68
    },
    {
      "midi": 64,
      "hit": false,
      "t": 124000.00000000001,
      "d": 566.6666666666715,
      "v": 68
    },
    {
      "midi": 67,
      "hit": false,
      "t": 124000.00000000001,
      "d": 566.6666666666715,
      "v": 68
    },
    {
      "midi": 72,
      "hit": false,
      "t": 124000.00000000001,
      "d": 566.6666666666715,
      "v": 68
    },
    {
      "midi": 67,
      "hit": false,
      "t": 124233.33333333334,
      "d": 383.33333333334303,
      "v": 127
    },
    {
      "midi": 67,
      "hit": false,
      "t": 124243.33333333334,
      "d": 383.33333333334303,
      "v": 127
    },
    {
      "midi": 71,
      "hit": false,
      "t": 124600.00000000001,
      "d": 1583.3333333333285,
      "v": 66
    },
    {
      "midi": 67,
      "hit": false,
      "t": 124600.00000000001,
      "d": 1600,
      "v": 56
    },
    {
      "midi": 76,
      "hit": false,
      "t": 124600.00000000001,
      "d": 1603.3333333333285,
      "v": 61
    },
    {
      "midi": 62,
      "hit": false,
      "t": 124600.00000000001,
      "d": 1613.3333333333285,
      "v": 59
    },
    {
      "midi": 71,
      "hit": false,
      "t": 124623.33333333336,
      "d": 460,
      "v": 127
    },
    {
      "midi": 71,
      "hit": false,
      "t": 124633.33333333336,
      "d": 460,
      "v": 127
    },
    {
      "midi": 67,
      "hit": false,
      "t": 125060.00000000003,
      "d": 383.3333333333285,
      "v": 127
    },
    {
      "midi": 67,
      "hit": false,
      "t": 125070.00000000003,
      "d": 383.3333333333285,
      "v": 127
    },
    {
      "midi": 69,
      "hit": false,
      "t": 125443.33333333336,
      "d": 390,
      "v": 127
    },
    {
      "midi": 69,
      "hit": false,
      "t": 125453.33333333336,
      "d": 390,
      "v": 127
    },
    {
      "midi": 71,
      "hit": false,
      "t": 125830.00000000003,
      "d": 363.3333333333285,
      "v": 127
    },
    {
      "midi": 71,
      "hit": false,
      "t": 125840.00000000003,
      "d": 363.3333333333285,
      "v": 127
    },
    {
      "midi": 69,
      "hit": false,
      "t": 126223.33333333336,
      "d": 1853.3333333333285,
      "v": 127
    },
    {
      "midi": 69,
      "hit": false,
      "t": 126233.33333333336,
      "d": 1853.3333333333285,
      "v": 127
    },
    {
      "midi": 55,
      "hit": false,
      "t": 126400.00000000001,
      "d": 1360,
      "v": 60
    },
    {
      "midi": 58,
      "hit": false,
      "t": 126400.00000000001,
      "d": 1360,
      "v": 60
    },
    {
      "midi": 61,
      "hit": false,
      "t": 126400.00000000001,
      "d": 1360,
      "v": 60
    },
    {
      "midi": 65,
      "hit": false,
      "t": 126400.00000000001,
      "d": 1360,
      "v": 60
    },
    {
      "midi": 53,
      "hit": false,
      "t": 127800.00000000001,
      "d": 410,
      "v": 42
    },
    {
      "midi": 60,
      "hit": false,
      "t": 127800.00000000001,
      "d": 410,
      "v": 42
    },
    {
      "midi": 64,
      "hit": false,
      "t": 127800.00000000001,
      "d": 410,
      "v": 42
    },
    {
      "midi": 69,
      "hit": false,
      "t": 127800.00000000001,
      "d": 410,
      "v": 42
    },
    {
      "midi": 65,
      "hit": false,
      "t": 128033.33333333336,
      "d": 2953.3333333333285,
      "v": 127
    },
    {
      "midi": 65,
      "hit": false,
      "t": 128043.33333333336,
      "d": 2953.3333333333285,
      "v": 127
    },
    {
      "midi": 53,
      "hit": false,
      "t": 128600.00000000001,
      "d": 2130,
      "v": 62
    },
    {
      "midi": 60,
      "hit": false,
      "t": 128600.00000000001,
      "d": 2130,
      "v": 62
    },
    {
      "midi": 64,
      "hit": false,
      "t": 128600.00000000001,
      "d": 2130,
      "v": 62
    },
    {
      "midi": 69,
      "hit": false,
      "t": 128600.00000000001,
      "d": 2130,
      "v": 62
    },
    {
      "midi": 64,
      "hit": false,
      "t": 130990.00000000001,
      "d": 276.6666666666424,
      "v": 127
    },
    {
      "midi": 64,
      "hit": false,
      "t": 131000.00000000001,
      "d": 276.6666666666424,
      "v": 127
    },
    {
      "midi": 56,
      "hit": false,
      "t": 131200,
      "d": 2573.333333333343,
      "v": 68
    },
    {
      "midi": 62,
      "hit": false,
      "t": 131200,
      "d": 2573.333333333343,
      "v": 68
    },
    {
      "midi": 67,
      "hit": false,
      "t": 131200,
      "d": 2573.333333333343,
      "v": 68
    },
    {
      "midi": 72,
      "hit": false,
      "t": 131200,
      "d": 2573.333333333343,
      "v": 68
    },
    {
      "midi": 67,
      "hit": false,
      "t": 131250,
      "d": 310,
      "v": 127
    },
    {
      "midi": 67,
      "hit": false,
      "t": 131260,
      "d": 310,
      "v": 127
    },
    {
      "midi": 66,
      "hit": false,
      "t": 131546.66666666666,
      "d": 273.33333333334303,
      "v": 127
    },
    {
      "midi": 66,
      "hit": false,
      "t": 131556.66666666666,
      "d": 273.33333333334303,
      "v": 127
    },
    {
      "midi": 65,
      "hit": false,
      "t": 131850,
      "d": 2186.666666666657,
      "v": 127
    },
    {
      "midi": 65,
      "hit": false,
      "t": 131860,
      "d": 2186.666666666657,
      "v": 127
    },
    {
      "midi": 56,
      "hit": false,
      "t": 133800,
      "d": 200,
      "v": 57
    },
    {
      "midi": 62,
      "hit": false,
      "t": 134000,
      "d": 206.66666666665697,
      "v": 66
    },
    {
      "midi": 60,
      "hit": false,
      "t": 134030,
      "d": 220,
      "v": 127
    },
    {
      "midi": 60,
      "hit": false,
      "t": 134040,
      "d": 220,
      "v": 127
    },
    {
      "midi": 65,
      "hit": false,
      "t": 134100,
      "d": 170,
      "v": 60
    },
    {
      "midi": 72,
      "hit": false,
      "t": 134206.66666666666,
      "d": 146.66666666668607,
      "v": 72
    },
    {
      "midi": 62,
      "hit": false,
      "t": 134210,
      "d": 143.33333333334303,
      "v": 127
    },
    {
      "midi": 62,
      "hit": false,
      "t": 134220,
      "d": 143.33333333334303,
      "v": 127
    },
    {
      "midi": 55,
      "hit": false,
      "t": 134400,
      "d": 1360,
      "v": 60
    },
    {
      "midi": 62,
      "hit": false,
      "t": 134400,
      "d": 1360,
      "v": 60
    },
    {
      "midi": 64,
      "hit": false,
      "t": 134400,
      "d": 1360,
      "v": 60
    },
    {
      "midi": 71,
      "hit": false,
      "t": 134400,
      "d": 1360,
      "v": 60
    },
    {
      "midi": 64,
      "hit": false,
      "t": 134436.6666666667,
      "d": 213.33333333334303,
      "v": 127
    },
    {
      "midi": 64,
      "hit": false,
      "t": 134446.6666666667,
      "d": 213.33333333334303,
      "v": 127
    },
    {
      "midi": 64,
      "hit": false,
      "t": 134720.00000000003,
      "d": 153.33333333334303,
      "v": 127
    },
    {
      "midi": 64,
      "hit": false,
      "t": 134730.00000000003,
      "d": 153.33333333334303,
      "v": 127
    },
    {
      "midi": 64,
      "hit": false,
      "t": 134973.33333333337,
      "d": 136.66666666665697,
      "v": 127
    },
    {
      "midi": 64,
      "hit": false,
      "t": 134983.33333333337,
      "d": 136.66666666665697,
      "v": 127
    },
    {
      "midi": 64,
      "hit": false,
      "t": 135246.6666666667,
      "d": 233.33333333334303,
      "v": 127
    },
    {
      "midi": 64,
      "hit": false,
      "t": 135256.6666666667,
      "d": 233.33333333334303,
      "v": 127
    },
    {
      "midi": 63,
      "hit": false,
      "t": 135533.33333333337,
      "d": 243.33333333331393,
      "v": 127
    },
    {
      "midi": 63,
      "hit": false,
      "t": 135543.33333333337,
      "d": 243.33333333331393,
      "v": 127
    },
    {
      "midi": 64,
      "hit": false,
      "t": 135770.00000000003,
      "d": 299.9999999999709,
      "v": 127
    },
    {
      "midi": 64,
      "hit": false,
      "t": 135780.00000000003,
      "d": 299.9999999999709,
      "v": 127
    },
    {
      "midi": 55,
      "hit": false,
      "t": 136000,
      "d": 816.666666666657,
      "v": 62
    },
    {
      "midi": 65,
      "hit": false,
      "t": 136043.33333333334,
      "d": 1160,
      "v": 127
    },
    {
      "midi": 65,
      "hit": false,
      "t": 136053.33333333334,
      "d": 1160,
      "v": 127
    },
    {
      "midi": 61,
      "hit": false,
      "t": 136200,
      "d": 660,
      "v": 47
    },
    {
      "midi": 64,
      "hit": false,
      "t": 136400,
      "d": 426.66666666665697,
      "v": 52
    },
    {
      "midi": 69,
      "hit": false,
      "t": 136600,
      "d": 280,
      "v": 68
    },
    {
      "midi": 55,
      "hit": false,
      "t": 137000,
      "d": 146.66666666665697,
      "v": 64
    },
    {
      "midi": 64,
      "hit": false,
      "t": 137000,
      "d": 146.66666666665697,
      "v": 70
    },
    {
      "midi": 61,
      "hit": false,
      "t": 137000,
      "d": 166.66666666665697,
      "v": 58
    },
    {
      "midi": 69,
      "hit": false,
      "t": 137000,
      "d": 166.66666666665697,
      "v": 68
    },
    {
      "midi": 64,
      "hit": false,
      "t": 137206.6666666667,
      "d": 216.66666666665697,
      "v": 127
    },
    {
      "midi": 64,
      "hit": false,
      "t": 137216.6666666667,
      "d": 216.66666666665697,
      "v": 127
    },
    {
      "midi": 65,
      "hit": false,
      "t": 137403.33333333334,
      "d": 273.33333333334303,
      "v": 127
    },
    {
      "midi": 65,
      "hit": false,
      "t": 137413.33333333334,
      "d": 273.33333333334303,
      "v": 127
    },
    {
      "midi": 60,
      "hit": false,
      "t": 137600,
      "d": 816.666666666657,
      "v": 62
    },
    {
      "midi": 67,
      "hit": false,
      "t": 137633.33333333334,
      "d": 206.66666666668607,
      "v": 127
    },
    {
      "midi": 67,
      "hit": false,
      "t": 137643.33333333334,
      "d": 206.66666666668607,
      "v": 127
    },
    {
      "midi": 65,
      "hit": false,
      "t": 137800,
      "d": 660,
      "v": 47
    },
    {
      "midi": 67,
      "hit": false,
      "t": 137936.6666666667,
      "d": 150,
      "v": 127
    },
    {
      "midi": 67,
      "hit": false,
      "t": 137946.6666666667,
      "d": 150,
      "v": 127
    },
    {
      "midi": 69,
      "hit": false,
      "t": 138000,
      "d": 426.66666666665697,
      "v": 52
    },
    {
      "midi": 74,
      "hit": false,
      "t": 138200,
      "d": 280,
      "v": 68
    },
    {
      "midi": 67,
      "hit": false,
      "t": 138210.00000000003,
      "d": 146.66666666665697,
      "v": 127
    },
    {
      "midi": 67,
      "hit": false,
      "t": 138220.00000000003,
      "d": 146.66666666665697,
      "v": 127
    },
    {
      "midi": 67,
      "hit": false,
      "t": 138463.33333333334,
      "d": 310,
      "v": 127
    },
    {
      "midi": 67,
      "hit": false,
      "t": 138473.33333333334,
      "d": 310,
      "v": 127
    },
    {
      "midi": 60,
      "hit": false,
      "t": 138600,
      "d": 146.66666666665697,
      "v": 64
    },
    {
      "midi": 69,
      "hit": false,
      "t": 138600,
      "d": 146.66666666665697,
      "v": 70
    },
    {
      "midi": 65,
      "hit": false,
      "t": 138600,
      "d": 166.66666666665697,
      "v": 58
    },
    {
      "midi": 74,
      "hit": false,
      "t": 138600,
      "d": 166.66666666665697,
      "v": 68
    },
    {
      "midi": 66,
      "hit": false,
      "t": 138760,
      "d": 210,
      "v": 127
    },
    {
      "midi": 66,
      "hit": false,
      "t": 138770,
      "d": 210,
      "v": 127
    },
    {
      "midi": 67,
      "hit": false,
      "t": 139013.33333333334,
      "d": 310,
      "v": 127
    },
    {
      "midi": 67,
      "hit": false,
      "t": 139023.33333333334,
      "d": 310,
      "v": 127
    },
    {
      "midi": 53,
      "hit": false,
      "t": 139200,
      "d": 1360,
      "v": 60
    },
    {
      "midi": 59,
      "hit": false,
      "t": 139200,
      "d": 1360,
      "v": 60
    },
    {
      "midi": 64,
      "hit": false,
      "t": 139200,
      "d": 1360,
      "v": 60
    },
    {
      "midi": 69,
      "hit": false,
      "t": 139200,
      "d": 1360,
      "v": 60
    },
    {
      "midi": 69,
      "hit": false,
      "t": 139263.33333333334,
      "d": 1556.666666666657,
      "v": 127
    },
    {
      "midi": 69,
      "hit": false,
      "t": 139273.33333333334,
      "d": 1556.666666666657,
      "v": 127
    },
    {
      "midi": 64,
      "hit": false,
      "t": 140600,
      "d": 420,
      "v": 62
    },
    {
      "midi": 72,
      "hit": false,
      "t": 140840,
      "d": 2960,
      "v": 127
    },
    {
      "midi": 72,
      "hit": false,
      "t": 140850,
      "d": 2960,
      "v": 127
    },
    {
      "midi": 69,
      "hit": false,
      "t": 141000,
      "d": 1470,
      "v": 58
    },
    {
      "midi": 72,
      "hit": false,
      "t": 141200,
      "d": 1300,
      "v": 68
    },
    {
      "midi": 79,
      "hit": false,
      "t": 141400,
      "d": 1203.333333333343,
      "v": 68
    },
    {
      "midi": 58,
      "hit": false,
      "t": 142600,
      "d": 170,
      "v": 70
    },
    {
      "midi": 61,
      "hit": false,
      "t": 142600,
      "d": 170,
      "v": 70
    },
    {
      "midi": 65,
      "hit": false,
      "t": 142600,
      "d": 170,
      "v": 70
    },
    {
      "midi": 68,
      "hit": false,
      "t": 142600,
      "d": 170,
      "v": 70
    },
    {
      "midi": 57,
      "hit": false,
      "t": 142800,
      "d": 856.666666666657,
      "v": 78
    },
    {
      "midi": 60,
      "hit": false,
      "t": 142800,
      "d": 856.666666666657,
      "v": 78
    },
    {
      "midi": 64,
      "hit": false,
      "t": 142800,
      "d": 856.666666666657,
      "v": 78
    },
    {
      "midi": 67,
      "hit": false,
      "t": 142800,
      "d": 856.666666666657,
      "v": 78
    },
    {
      "midi": 71,
      "hit": false,
      "t": 143793.33333333334,
      "d": 260,
      "v": 127
    },
    {
      "midi": 71,
      "hit": false,
      "t": 143803.33333333334,
      "d": 260,
      "v": 127
    },
    {
      "midi": 56,
      "hit": false,
      "t": 144000,
      "d": 2060,
      "v": 58
    },
    {
      "midi": 62,
      "hit": false,
      "t": 144000,
      "d": 2253.333333333343,
      "v": 58
    },
    {
      "midi": 65,
      "hit": false,
      "t": 144000,
      "d": 2296.666666666686,
      "v": 66
    },
    {
      "midi": 72,
      "hit": false,
      "t": 144000,
      "d": 2296.666666666686,
      "v": 56
    },
    {
      "midi": 74,
      "hit": false,
      "t": 144050,
      "d": 296.66666666668607,
      "v": 127
    },
    {
      "midi": 74,
      "hit": false,
      "t": 144060,
      "d": 296.66666666668607,
      "v": 127
    },
    {
      "midi": 73,
      "hit": false,
      "t": 144346.6666666667,
      "d": 313.33333333334303,
      "v": 127
    },
    {
      "midi": 73,
      "hit": false,
      "t": 144356.6666666667,
      "d": 313.33333333334303,
      "v": 127
    },
    {
      "midi": 72,
      "hit": false,
      "t": 144646.6666666667,
      "d": 2370,
      "v": 127
    },
    {
      "midi": 72,
      "hit": false,
      "t": 144656.6666666667,
      "d": 2370,
      "v": 127
    },
    {
      "midi": 56,
      "hit": false,
      "t": 146400.00000000003,
      "d": 653.333333333343,
      "v": 59
    },
    {
      "midi": 62,
      "hit": false,
      "t": 146600.00000000003,
      "d": 493.33333333334303,
      "v": 49
    },
    {
      "midi": 65,
      "hit": false,
      "t": 146800.00000000003,
      "d": 286.66666666668607,
      "v": 63
    },
    {
      "midi": 71,
      "hit": false,
      "t": 146996.6666666667,
      "d": 250,
      "v": 127
    },
    {
      "midi": 72,
      "hit": false,
      "t": 147000.00000000003,
      "d": 130,
      "v": 68
    },
    {
      "midi": 71,
      "hit": false,
      "t": 147006.6666666667,
      "d": 250,
      "v": 127
    },
    {
      "midi": 71,
      "hit": false,
      "t": 147200.00000000003,
      "d": 1390,
      "v": 66
    },
    {
      "midi": 67,
      "hit": false,
      "t": 147200.00000000003,
      "d": 1406.666666666657,
      "v": 56
    },
    {
      "midi": 76,
      "hit": false,
      "t": 147200.00000000003,
      "d": 1410,
      "v": 61
    },
    {
      "midi": 62,
      "hit": false,
      "t": 147200.00000000003,
      "d": 1420,
      "v": 59
    },
    {
      "midi": 74,
      "hit": false,
      "t": 147246.6666666667,
      "d": 306.66666666665697,
      "v": 127
    },
    {
      "midi": 74,
      "hit": false,
      "t": 147256.6666666667,
      "d": 306.66666666665697,
      "v": 127
    },
    {
      "midi": 73,
      "hit": false,
      "t": 147533.33333333334,
      "d": 323.33333333334303,
      "v": 127
    },
    {
      "midi": 73,
      "hit": false,
      "t": 147543.33333333334,
      "d": 323.33333333334303,
      "v": 127
    },
    {
      "midi": 72,
      "hit": false,
      "t": 147853.33333333334,
      "d": 430,
      "v": 127
    },
    {
      "midi": 72,
      "hit": false,
      "t": 147863.33333333334,
      "d": 430,
      "v": 127
    },
    {
      "midi": 71,
      "hit": false,
      "t": 148256.6666666667,
      "d": 383.33333333331393,
      "v": 127
    },
    {
      "midi": 71,
      "hit": false,
      "t": 148266.6666666667,
      "d": 383.33333333331393,
      "v": 127
    },
    {
      "midi": 74,
      "hit": false,
      "t": 148660,
      "d": 430,
      "v": 127
    },
    {
      "midi": 74,
      "hit": false,
      "t": 148670,
      "d": 430,
      "v": 127
    },
    {
      "midi": 54,
      "hit": false,
      "t": 148800.00000000003,
      "d": 816.666666666657,
      "v": 62
    },
    {
      "midi": 60,
      "hit": false,
      "t": 149000.00000000003,
      "d": 660,
      "v": 47
    },
    {
      "midi": 73,
      "hit": false,
      "t": 149040,
      "d": 396.66666666668607,
      "v": 127
    },
    {
      "midi": 73,
      "hit": false,
      "t": 149050,
      "d": 396.66666666668607,
      "v": 127
    },
    {
      "midi": 63,
      "hit": false,
      "t": 149200.00000000003,
      "d": 426.66666666665697,
      "v": 52
    },
    {
      "midi": 69,
      "hit": false,
      "t": 149400.00000000003,
      "d": 280,
      "v": 68
    },
    {
      "midi": 72,
      "hit": false,
      "t": 149423.33333333334,
      "d": 430.0000000000291,
      "v": 127
    },
    {
      "midi": 72,
      "hit": false,
      "t": 149433.33333333334,
      "d": 430.0000000000291,
      "v": 127
    },
    {
      "midi": 54,
      "hit": false,
      "t": 149800.00000000003,
      "d": 146.66666666665697,
      "v": 64
    },
    {
      "midi": 63,
      "hit": false,
      "t": 149800.00000000003,
      "d": 146.66666666665697,
      "v": 70
    },
    {
      "midi": 60,
      "hit": false,
      "t": 149800.00000000003,
      "d": 166.66666666665697,
      "v": 58
    },
    {
      "midi": 69,
      "hit": false,
      "t": 149800.00000000003,
      "d": 166.66666666665697,
      "v": 68
    },
    {
      "midi": 71,
      "hit": false,
      "t": 149820.00000000003,
      "d": 436.66666666668607,
      "v": 127
    },
    {
      "midi": 71,
      "hit": false,
      "t": 149830.00000000003,
      "d": 436.66666666668607,
      "v": 127
    },
    {
      "midi": 69,
      "hit": false,
      "t": 150223.33333333337,
      "d": 3176.666666666686,
      "v": 127
    },
    {
      "midi": 69,
      "hit": false,
      "t": 150233.33333333337,
      "d": 3176.666666666686,
      "v": 127
    },
    {
      "midi": 69,
      "hit": false,
      "t": 150400.00000000003,
      "d": 1390,
      "v": 66
    },
    {
      "midi": 65,
      "hit": false,
      "t": 150400.00000000003,
      "d": 1406.666666666657,
      "v": 56
    },
    {
      "midi": 74,
      "hit": false,
      "t": 150400.00000000003,
      "d": 1410,
      "v": 61
    },
    {
      "midi": 60,
      "hit": false,
      "t": 150400.00000000003,
      "d": 1420,
      "v": 59
    },
    {
      "midi": 62,
      "hit": false,
      "t": 152000.00000000003,
      "d": 1390,
      "v": 66
    },
    {
      "midi": 59,
      "hit": false,
      "t": 152000.00000000003,
      "d": 1406.666666666657,
      "v": 56
    },
    {
      "midi": 69,
      "hit": false,
      "t": 152000.00000000003,
      "d": 1410,
      "v": 61
    },
    {
      "midi": 53,
      "hit": false,
      "t": 152000.00000000003,
      "d": 1420,
      "v": 59
    },
    {
      "midi": 52,
      "hit": false,
      "t": 153600.00000000003,
      "d": 2573.333333333343,
      "v": 68
    },
    {
      "midi": 57,
      "hit": false,
      "t": 153600.00000000003,
      "d": 2573.333333333343,
      "v": 68
    },
    {
      "midi": 60,
      "hit": false,
      "t": 153600.00000000003,
      "d": 2573.333333333343,
      "v": 68
    },
    {
      "midi": 67,
      "hit": false,
      "t": 153600.00000000003,
      "d": 2573.333333333343,
      "v": 68
    },
    {
      "midi": 69,
      "hit": false,
      "t": 153613.3333333334,
      "d": 2816.666666666686,
      "v": 127
    },
    {
      "midi": 69,
      "hit": false,
      "t": 153623.3333333334,
      "d": 2816.666666666686,
      "v": 127
    },
    {
      "midi": 57,
      "hit": false,
      "t": 156200.00000000003,
      "d": 200,
      "v": 57
    },
    {
      "midi": 64,
      "hit": false,
      "t": 156400.00000000003,
      "d": 206.66666666665697,
      "v": 66
    },
    {
      "midi": 67,
      "hit": false,
      "t": 156416.66666666674,
      "d": 413.33333333334303,
      "v": 127
    },
    {
      "midi": 67,
      "hit": false,
      "t": 156426.66666666674,
      "d": 413.33333333334303,
      "v": 127
    },
    {
      "midi": 67,
      "hit": false,
      "t": 156500.00000000003,
      "d": 170,
      "v": 60
    },
    {
      "midi": 72,
      "hit": false,
      "t": 156606.6666666667,
      "d": 146.66666666668607,
      "v": 72
    },
    {
      "midi": 52,
      "hit": false,
      "t": 156800.00000000003,
      "d": 1360,
      "v": 60
    },
    {
      "midi": 57,
      "hit": false,
      "t": 156800.00000000003,
      "d": 1360,
      "v": 60
    },
    {
      "midi": 60,
      "hit": false,
      "t": 156800.00000000003,
      "d": 1360,
      "v": 60
    },
    {
      "midi": 66,
      "hit": false,
      "t": 156800.00000000003,
      "d": 1360,
      "v": 60
    },
    {
      "midi": 71,
      "hit": false,
      "t": 156840.0000000001,
      "d": 320,
      "v": 127
    },
    {
      "midi": 71,
      "hit": false,
      "t": 156850.0000000001,
      "d": 320,
      "v": 127
    },
    {
      "midi": 70,
      "hit": false,
      "t": 157126.66666666674,
      "d": 310,
      "v": 127
    },
    {
      "midi": 70,
      "hit": false,
      "t": 157136.66666666674,
      "d": 310,
      "v": 127
    },
    {
      "midi": 69,
      "hit": false,
      "t": 157450.0000000001,
      "d": 2156.666666666686,
      "v": 127
    },
    {
      "midi": 69,
      "hit": false,
      "t": 157460.0000000001,
      "d": 2156.666666666686,
      "v": 127
    },
    {
      "midi": 57,
      "hit": false,
      "t": 158400.00000000003,
      "d": 816.666666666657,
      "v": 62
    },
    {
      "midi": 63,
      "hit": false,
      "t": 158600.00000000003,
      "d": 660,
      "v": 47
    },
    {
      "midi": 67,
      "hit": false,
      "t": 158800.00000000003,
      "d": 426.66666666665697,
      "v": 52
    },
    {
      "midi": 74,
      "hit": false,
      "t": 159000.00000000003,
      "d": 280,
      "v": 68
    },
    {
      "midi": 57,
      "hit": false,
      "t": 159400.00000000003,
      "d": 146.66666666665697,
      "v": 64
    },
    {
      "midi": 67,
      "hit": false,
      "t": 159400.00000000003,
      "d": 146.66666666665697,
      "v": 70
    },
    {
      "midi": 63,
      "hit": false,
      "t": 159400.00000000003,
      "d": 166.66666666665697,
      "v": 58
    },
    {
      "midi": 74,
      "hit": false,
      "t": 159400.00000000003,
      "d": 166.66666666665697,
      "v": 68
    },
    {
      "midi": 67,
      "hit": false,
      "t": 159593.33333333343,
      "d": 276.66666666665697,
      "v": 127
    },
    {
      "midi": 67,
      "hit": false,
      "t": 159603.33333333343,
      "d": 276.66666666665697,
      "v": 127
    },
    {
      "midi": 68,
      "hit": false,
      "t": 159823.33333333343,
      "d": 180,
      "v": 127
    },
    {
      "midi": 68,
      "hit": false,
      "t": 159833.33333333343,
      "d": 180,
      "v": 127
    },
    {
      "midi": 57,
      "hit": false,
      "t": 160000.00000000003,
      "d": 646.666666666657,
      "v": 68
    },
    {
      "midi": 64,
      "hit": false,
      "t": 160000.00000000003,
      "d": 646.666666666657,
      "v": 68
    },
    {
      "midi": 67,
      "hit": false,
      "t": 160000.00000000003,
      "d": 646.666666666657,
      "v": 68
    },
    {
      "midi": 72,
      "hit": false,
      "t": 160000.00000000003,
      "d": 646.666666666657,
      "v": 68
    },
    {
      "midi": 69,
      "hit": false,
      "t": 160043.33333333343,
      "d": 193.33333333334303,
      "v": 127
    },
    {
      "midi": 69,
      "hit": false,
      "t": 160053.33333333343,
      "d": 193.33333333334303,
      "v": 127
    },
    {
      "midi": 69,
      "hit": false,
      "t": 160326.66666666677,
      "d": 253.33333333334303,
      "v": 127
    },
    {
      "midi": 69,
      "hit": false,
      "t": 160336.66666666677,
      "d": 253.33333333334303,
      "v": 127
    },
    {
      "midi": 67,
      "hit": false,
      "t": 160603.33333333346,
      "d": 303.33333333334303,
      "v": 127
    },
    {
      "midi": 67,
      "hit": false,
      "t": 160613.33333333346,
      "d": 303.33333333334303,
      "v": 127
    },
    {
      "midi": 60,
      "hit": false,
      "t": 160800.00000000003,
      "d": 646.666666666657,
      "v": 68
    },
    {
      "midi": 65,
      "hit": false,
      "t": 160800.00000000003,
      "d": 646.666666666657,
      "v": 68
    },
    {
      "midi": 69,
      "hit": false,
      "t": 160800.00000000003,
      "d": 646.666666666657,
      "v": 68
    },
    {
      "midi": 76,
      "hit": false,
      "t": 160800.00000000003,
      "d": 646.666666666657,
      "v": 68
    },
    {
      "midi": 69,
      "hit": false,
      "t": 160866.6666666668,
      "d": 220,
      "v": 127
    },
    {
      "midi": 69,
      "hit": false,
      "t": 160876.6666666668,
      "d": 220,
      "v": 127
    },
    {
      "midi": 69,
      "hit": false,
      "t": 161153.33333333346,
      "d": 226.66666666665697,
      "v": 125
    },
    {
      "midi": 69,
      "hit": false,
      "t": 161163.33333333346,
      "d": 226.66666666665697,
      "v": 125
    },
    {
      "midi": 67,
      "hit": false,
      "t": 161396.66666666677,
      "d": 250,
      "v": 127
    },
    {
      "midi": 67,
      "hit": false,
      "t": 161406.66666666677,
      "d": 250,
      "v": 127
    },
    {
      "midi": 60,
      "hit": false,
      "t": 161600.00000000003,
      "d": 646.666666666657,
      "v": 68
    },
    {
      "midi": 66,
      "hit": false,
      "t": 161600.00000000003,
      "d": 646.666666666657,
      "v": 68
    },
    {
      "midi": 69,
      "hit": false,
      "t": 161600.00000000003,
      "d": 646.666666666657,
      "v": 68
    },
    {
      "midi": 75,
      "hit": false,
      "t": 161600.00000000003,
      "d": 646.666666666657,
      "v": 68
    },
    {
      "midi": 69,
      "hit": false,
      "t": 161673.33333333343,
      "d": 220,
      "v": 127
    },
    {
      "midi": 69,
      "hit": false,
      "t": 161683.33333333343,
      "d": 220,
      "v": 127
    },
    {
      "midi": 69,
      "hit": false,
      "t": 161950.0000000001,
      "d": 220,
      "v": 118
    },
    {
      "midi": 69,
      "hit": false,
      "t": 161960.0000000001,
      "d": 220,
      "v": 118
    },
    {
      "midi": 67,
      "hit": false,
      "t": 162186.66666666674,
      "d": 246.66666666665697,
      "v": 127
    },
    {
      "midi": 67,
      "hit": false,
      "t": 162196.66666666674,
      "d": 246.66666666665697,
      "v": 127
    },
    {
      "midi": 57,
      "hit": false,
      "t": 162400.00000000003,
      "d": 646.666666666657,
      "v": 68
    },
    {
      "midi": 64,
      "hit": false,
      "t": 162400.00000000003,
      "d": 646.666666666657,
      "v": 68
    },
    {
      "midi": 67,
      "hit": false,
      "t": 162400.00000000003,
      "d": 646.666666666657,
      "v": 68
    },
    {
      "midi": 72,
      "hit": false,
      "t": 162400.00000000003,
      "d": 646.666666666657,
      "v": 68
    },
    {
      "midi": 69,
      "hit": false,
      "t": 162463.3333333334,
      "d": 340,
      "v": 127
    },
    {
      "midi": 69,
      "hit": false,
      "t": 162473.3333333334,
      "d": 340,
      "v": 127
    },
    {
      "midi": 67,
      "hit": false,
      "t": 162780.00000000006,
      "d": 223.33333333334303,
      "v": 127
    },
    {
      "midi": 67,
      "hit": false,
      "t": 162790.00000000006,
      "d": 223.33333333334303,
      "v": 127
    },
    {
      "midi": 71,
      "hit": false,
      "t": 163050.00000000006,
      "d": 416.66666666665697,
      "v": 127
    },
    {
      "midi": 71,
      "hit": false,
      "t": 163060.00000000006,
      "d": 416.66666666665697,
      "v": 127
    },
    {
      "midi": 71,
      "hit": false,
      "t": 163200.00000000003,
      "d": 1390,
      "v": 66
    },
    {
      "midi": 67,
      "hit": false,
      "t": 163200.00000000003,
      "d": 1406.666666666657,
      "v": 56
    },
    {
      "midi": 76,
      "hit": false,
      "t": 163200.00000000003,
      "d": 1410,
      "v": 61
    },
    {
      "midi": 62,
      "hit": false,
      "t": 163200.00000000003,
      "d": 1420,
      "v": 59
    },
    {
      "midi": 67,
      "hit": false,
      "t": 163440.00000000006,
      "d": 406.66666666665697,
      "v": 127
    },
    {
      "midi": 67,
      "hit": false,
      "t": 163450.00000000006,
      "d": 406.66666666665697,
      "v": 127
    },
    {
      "midi": 69,
      "hit": false,
      "t": 163833.33333333337,
      "d": 346.66666666668607,
      "v": 127
    },
    {
      "midi": 69,
      "hit": false,
      "t": 163843.33333333337,
      "d": 346.66666666668607,
      "v": 127
    },
    {
      "midi": 71,
      "hit": false,
      "t": 164216.66666666672,
      "d": 430,
      "v": 127
    },
    {
      "midi": 71,
      "hit": false,
      "t": 164226.66666666672,
      "d": 430,
      "v": 127
    },
    {
      "midi": 69,
      "hit": false,
      "t": 164640.00000000006,
      "d": 1763.333333333314,
      "v": 127
    },
    {
      "midi": 69,
      "hit": false,
      "t": 164650.00000000006,
      "d": 1763.333333333314,
      "v": 127
    },
    {
      "midi": 55,
      "hit": false,
      "t": 164800.00000000003,
      "d": 1360,
      "v": 60
    },
    {
      "midi": 58,
      "hit": false,
      "t": 164800.00000000003,
      "d": 1360,
      "v": 60
    },
    {
      "midi": 61,
      "hit": false,
      "t": 164800.00000000003,
      "d": 1360,
      "v": 60
    },
    {
      "midi": 64,
      "hit": false,
      "t": 164800.00000000003,
      "d": 1360,
      "v": 60
    },
    {
      "midi": 60,
      "hit": false,
      "t": 166200.00000000003,
      "d": 2253.333333333343,
      "v": 58
    },
    {
      "midi": 65,
      "hit": false,
      "t": 166200.00000000003,
      "d": 2446.666666666686,
      "v": 58
    },
    {
      "midi": 69,
      "hit": false,
      "t": 166200.00000000003,
      "d": 2490.000000000029,
      "v": 66
    },
    {
      "midi": 74,
      "hit": false,
      "t": 166200.00000000003,
      "d": 2490.000000000029,
      "v": 56
    },
    {
      "midi": 65,
      "hit": false,
      "t": 166413.33333333337,
      "d": 2840,
      "v": 127
    },
    {
      "midi": 65,
      "hit": false,
      "t": 166423.33333333337,
      "d": 2840,
      "v": 127
    },
    {
      "midi": 60,
      "hit": false,
      "t": 168800.00000000006,
      "d": 653.333333333343,
      "v": 59
    },
    {
      "midi": 65,
      "hit": false,
      "t": 169000.00000000006,
      "d": 493.33333333334303,
      "v": 49
    },
    {
      "midi": 69,
      "hit": false,
      "t": 169200.00000000006,
      "d": 286.66666666668607,
      "v": 63
    },
    {
      "midi": 64,
      "hit": false,
      "t": 169213.33333333337,
      "d": 270,
      "v": 127
    },
    {
      "midi": 64,
      "hit": false,
      "t": 169223.33333333337,
      "d": 270,
      "v": 127
    },
    {
      "midi": 74,
      "hit": false,
      "t": 169400.00000000006,
      "d": 130,
      "v": 68
    },
    {
      "midi": 56,
      "hit": false,
      "t": 169600.00000000006,
      "d": 216.66666666665697,
      "v": 42
    },
    {
      "midi": 60,
      "hit": false,
      "t": 169600.00000000006,
      "d": 216.66666666665697,
      "v": 42
    },
    {
      "midi": 62,
      "hit": false,
      "t": 169600.00000000006,
      "d": 216.66666666665697,
      "v": 42
    },
    {
      "midi": 67,
      "hit": false,
      "t": 169600.00000000006,
      "d": 216.66666666665697,
      "v": 42
    },
    {
      "midi": 67,
      "hit": false,
      "t": 169623.33333333337,
      "d": 390,
      "v": 127
    },
    {
      "midi": 67,
      "hit": false,
      "t": 169633.33333333337,
      "d": 390,
      "v": 127
    },
    {
      "midi": 66,
      "hit": false,
      "t": 170013.33333333337,
      "d": 226.66666666665697,
      "v": 127
    },
    {
      "midi": 66,
      "hit": false,
      "t": 170023.33333333337,
      "d": 226.66666666665697,
      "v": 127
    },
    {
      "midi": 56,
      "hit": false,
      "t": 170200.00000000006,
      "d": 2130,
      "v": 62
    },
    {
      "midi": 60,
      "hit": false,
      "t": 170200.00000000006,
      "d": 2130,
      "v": 62
    },
    {
      "midi": 62,
      "hit": false,
      "t": 170200.00000000006,
      "d": 2130,
      "v": 62
    },
    {
      "midi": 67,
      "hit": false,
      "t": 170200.00000000006,
      "d": 2130,
      "v": 62
    },
    {
      "midi": 65,
      "hit": false,
      "t": 170253.33333333337,
      "d": 2176.666666666657,
      "v": 127
    },
    {
      "midi": 65,
      "hit": false,
      "t": 170263.33333333337,
      "d": 2176.666666666657,
      "v": 127
    },
    {
      "midi": 60,
      "hit": false,
      "t": 172423.33333333337,
      "d": 223.33333333334303,
      "v": 127
    },
    {
      "midi": 60,
      "hit": false,
      "t": 172433.33333333337,
      "d": 223.33333333334303,
      "v": 127
    },
    {
      "midi": 55,
      "hit": false,
      "t": 172600.00000000006,
      "d": 840,
      "v": 68
    },
    {
      "midi": 62,
      "hit": false,
      "t": 172600.00000000006,
      "d": 840,
      "v": 68
    },
    {
      "midi": 64,
      "hit": false,
      "t": 172600.00000000006,
      "d": 840,
      "v": 68
    },
    {
      "midi": 71,
      "hit": false,
      "t": 172600.00000000006,
      "d": 840,
      "v": 68
    },
    {
      "midi": 62,
      "hit": false,
      "t": 172633.33333333337,
      "d": 243.33333333334303,
      "v": 127
    },
    {
      "midi": 62,
      "hit": false,
      "t": 172643.33333333337,
      "d": 243.33333333334303,
      "v": 127
    },
    {
      "midi": 64,
      "hit": false,
      "t": 172850.00000000006,
      "d": 193.33333333331393,
      "v": 127
    },
    {
      "midi": 64,
      "hit": false,
      "t": 172860.00000000006,
      "d": 193.33333333331393,
      "v": 127
    },
    {
      "midi": 64,
      "hit": false,
      "t": 173146.66666666672,
      "d": 153.33333333334303,
      "v": 127
    },
    {
      "midi": 64,
      "hit": false,
      "t": 173156.66666666672,
      "d": 153.33333333334303,
      "v": 127
    },
    {
      "midi": 64,
      "hit": false,
      "t": 173400.00000000006,
      "d": 176.66666666665697,
      "v": 127
    },
    {
      "midi": 64,
      "hit": false,
      "t": 173410.00000000006,
      "d": 176.66666666665697,
      "v": 127
    },
    {
      "midi": 65,
      "hit": false,
      "t": 173653.33333333337,
      "d": 170,
      "v": 127
    },
    {
      "midi": 65,
      "hit": false,
      "t": 173663.33333333337,
      "d": 170,
      "v": 127
    },
    {
      "midi": 55,
      "hit": false,
      "t": 173800.00000000006,
      "d": 470,
      "v": 70
    },
    {
      "midi": 61,
      "hit": false,
      "t": 173800.00000000006,
      "d": 470,
      "v": 70
    },
    {
      "midi": 65,
      "hit": false,
      "t": 173800.00000000006,
      "d": 470,
      "v": 70
    },
    {
      "midi": 70,
      "hit": false,
      "t": 173800.00000000006,
      "d": 470,
      "v": 70
    },
    {
      "midi": 65,
      "hit": false,
      "t": 173916.66666666672,
      "d": 170,
      "v": 127
    },
    {
      "midi": 65,
      "hit": false,
      "t": 173926.66666666672,
      "d": 170,
      "v": 127
    },
    {
      "midi": 65,
      "hit": false,
      "t": 174170.00000000006,
      "d": 236.66666666665697,
      "v": 127
    },
    {
      "midi": 65,
      "hit": false,
      "t": 174180.00000000006,
      "d": 236.66666666665697,
      "v": 127
    },
    {
      "midi": 53,
      "hit": false,
      "t": 174400.00000000006,
      "d": 566.666666666657,
      "v": 68
    },
    {
      "midi": 60,
      "hit": false,
      "t": 174400.00000000006,
      "d": 566.666666666657,
      "v": 68
    },
    {
      "midi": 62,
      "hit": false,
      "t": 174400.00000000006,
      "d": 566.666666666657,
      "v": 68
    },
    {
      "midi": 69,
      "hit": false,
      "t": 174400.00000000006,
      "d": 566.666666666657,
      "v": 68
    },
    {
      "midi": 62,
      "hit": false,
      "t": 174436.66666666672,
      "d": 176.66666666665697,
      "v": 127
    },
    {
      "midi": 62,
      "hit": false,
      "t": 174446.66666666672,
      "d": 176.66666666665697,
      "v": 127
    },
    {
      "midi": 62,
      "hit": false,
      "t": 174726.66666666672,
      "d": 153.33333333334303,
      "v": 127
    },
    {
      "midi": 62,
      "hit": false,
      "t": 174736.66666666672,
      "d": 153.33333333334303,
      "v": 127
    },
    {
      "midi": 62,
      "hit": false,
      "t": 174986.66666666672,
      "d": 163.33333333334303,
      "v": 127
    },
    {
      "midi": 62,
      "hit": false,
      "t": 174996.66666666672,
      "d": 163.33333333334303,
      "v": 127
    },
    {
      "midi": 53,
      "hit": false,
      "t": 175000.00000000006,
      "d": 840,
      "v": 68
    },
    {
      "midi": 59,
      "hit": false,
      "t": 175000.00000000006,
      "d": 840,
      "v": 68
    },
    {
      "midi": 64,
      "hit": false,
      "t": 175000.00000000006,
      "d": 840,
      "v": 68
    },
    {
      "midi": 69,
      "hit": false,
      "t": 175000.00000000006,
      "d": 840,
      "v": 68
    },
    {
      "midi": 64,
      "hit": false,
      "t": 175233.3333333334,
      "d": 186.66666666665697,
      "v": 127
    },
    {
      "midi": 64,
      "hit": false,
      "t": 175243.3333333334,
      "d": 186.66666666665697,
      "v": 127
    },
    {
      "midi": 64,
      "hit": false,
      "t": 175520.00000000006,
      "d": 143.33333333334303,
      "v": 127
    },
    {
      "midi": 64,
      "hit": false,
      "t": 175530.00000000006,
      "d": 143.33333333334303,
      "v": 127
    },
    {
      "midi": 64,
      "hit": false,
      "t": 175756.66666666674,
      "d": 166.66666666665697,
      "v": 127
    },
    {
      "midi": 64,
      "hit": false,
      "t": 175766.66666666674,
      "d": 166.66666666665697,
      "v": 127
    },
    {
      "midi": 52,
      "hit": false,
      "t": 176000.00000000006,
      "d": 1360,
      "v": 60
    },
    {
      "midi": 57,
      "hit": false,
      "t": 176000.00000000006,
      "d": 1360,
      "v": 60
    },
    {
      "midi": 60,
      "hit": false,
      "t": 176000.00000000006,
      "d": 1360,
      "v": 60
    },
    {
      "midi": 67,
      "hit": false,
      "t": 176000.00000000006,
      "d": 1360,
      "v": 60
    },
    {
      "midi": 60,
      "hit": false,
      "t": 176026.66666666674,
      "d": 2713.333333333343,
      "v": 127
    },
    {
      "midi": 60,
      "hit": false,
      "t": 176036.66666666674,
      "d": 2713.333333333343,
      "v": 127
    },
    {
      "midi": 53,
      "hit": false,
      "t": 177600.00000000006,
      "d": 646.666666666657,
      "v": 68
    },
    {
      "midi": 57,
      "hit": false,
      "t": 177600.00000000006,
      "d": 646.666666666657,
      "v": 68
    },
    {
      "midi": 60,
      "hit": false,
      "t": 177600.00000000006,
      "d": 646.666666666657,
      "v": 68
    },
    {
      "midi": 64,
      "hit": false,
      "t": 177600.00000000006,
      "d": 646.666666666657,
      "v": 68
    },
    {
      "midi": 53,
      "hit": false,
      "t": 178400.00000000006,
      "d": 646.666666666657,
      "v": 68
    },
    {
      "midi": 59,
      "hit": false,
      "t": 178400.00000000006,
      "d": 646.666666666657,
      "v": 68
    },
    {
      "midi": 64,
      "hit": false,
      "t": 178400.00000000006,
      "d": 646.666666666657,
      "v": 68
    },
    {
      "midi": 69,
      "hit": false,
      "t": 178400.00000000006,
      "d": 646.666666666657,
      "v": 68
    },
    {
      "midi": 52,
      "hit": false,
      "t": 179200.00000000006,
      "d": 216.66666666665697,
      "v": 42
    },
    {
      "midi": 57,
      "hit": false,
      "t": 179200.00000000006,
      "d": 216.66666666665697,
      "v": 42
    },
    {
      "midi": 60,
      "hit": false,
      "t": 179200.00000000006,
      "d": 216.66666666665697,
      "v": 42
    },
    {
      "midi": 67,
      "hit": false,
      "t": 179200.00000000006,
      "d": 216.66666666665697,
      "v": 42
    },
    {
      "midi": 69,
      "hit": false,
      "t": 179200.0000000001,
      "d": 2536.666666666657,
      "v": 127
    },
    {
      "midi": 69,
      "hit": false,
      "t": 179210.0000000001,
      "d": 2536.666666666657,
      "v": 127
    },
    {
      "midi": 52,
      "hit": false,
      "t": 179800.00000000006,
      "d": 2130,
      "v": 62
    },
    {
      "midi": 57,
      "hit": false,
      "t": 179800.00000000006,
      "d": 2130,
      "v": 62
    },
    {
      "midi": 60,
      "hit": false,
      "t": 179800.00000000006,
      "d": 2130,
      "v": 62
    },
    {
      "midi": 67,
      "hit": false,
      "t": 179800.00000000006,
      "d": 2130,
      "v": 62
    },
    {
      "midi": 67,
      "hit": false,
      "t": 181806.66666666674,
      "d": 386.66666666665697,
      "v": 127
    },
    {
      "midi": 67,
      "hit": false,
      "t": 181816.66666666674,
      "d": 386.66666666665697,
      "v": 127
    },
    {
      "midi": 71,
      "hit": false,
      "t": 182226.66666666674,
      "d": 376.66666666665697,
      "v": 127
    },
    {
      "midi": 71,
      "hit": false,
      "t": 182236.66666666674,
      "d": 376.66666666665697,
      "v": 127
    },
    {
      "midi": 60,
      "hit": false,
      "t": 182400.00000000006,
      "d": 1390,
      "v": 66
    },
    {
      "midi": 57,
      "hit": false,
      "t": 182400.00000000006,
      "d": 1406.666666666657,
      "v": 56
    },
    {
      "midi": 66,
      "hit": false,
      "t": 182400.00000000006,
      "d": 1410,
      "v": 61
    },
    {
      "midi": 52,
      "hit": false,
      "t": 182400.00000000006,
      "d": 1420,
      "v": 59
    },
    {
      "midi": 70,
      "hit": false,
      "t": 182640.00000000006,
      "d": 403.33333333334303,
      "v": 127
    },
    {
      "midi": 70,
      "hit": false,
      "t": 182650.00000000006,
      "d": 403.33333333334303,
      "v": 127
    },
    {
      "midi": 69,
      "hit": false,
      "t": 183053.3333333334,
      "d": 2006.666666666657,
      "v": 127
    },
    {
      "midi": 69,
      "hit": false,
      "t": 183063.3333333334,
      "d": 2006.666666666657,
      "v": 127
    },
    {
      "midi": 57,
      "hit": false,
      "t": 184000.00000000006,
      "d": 816.666666666657,
      "v": 62
    },
    {
      "midi": 63,
      "hit": false,
      "t": 184200.00000000006,
      "d": 660,
      "v": 47
    },
    {
      "midi": 67,
      "hit": false,
      "t": 184400.00000000006,
      "d": 426.66666666665697,
      "v": 52
    },
    {
      "midi": 74,
      "hit": false,
      "t": 184600.00000000006,
      "d": 280,
      "v": 68
    },
    {
      "midi": 57,
      "hit": false,
      "t": 185000.00000000006,
      "d": 146.66666666665697,
      "v": 64
    },
    {
      "midi": 67,
      "hit": false,
      "t": 185000.00000000006,
      "d": 146.66666666665697,
      "v": 70
    },
    {
      "midi": 63,
      "hit": false,
      "t": 185000.00000000006,
      "d": 166.66666666665697,
      "v": 58
    },
    {
      "midi": 74,
      "hit": false,
      "t": 185000.00000000006,
      "d": 166.66666666665697,
      "v": 68
    },
    {
      "midi": 67,
      "hit": false,
      "t": 185040.00000000006,
      "d": 360,
      "v": 127
    },
    {
      "midi": 67,
      "hit": false,
      "t": 185050.00000000006,
      "d": 360,
      "v": 127
    },
    {
      "midi": 68,
      "hit": false,
      "t": 185356.66666666672,
      "d": 206.66666666668607,
      "v": 127
    },
    {
      "midi": 68,
      "hit": false,
      "t": 185366.66666666672,
      "d": 206.66666666668607,
      "v": 127
    },
    {
      "midi": 57,
      "hit": false,
      "t": 185600.00000000006,
      "d": 646.666666666657,
      "v": 68
    },
    {
      "midi": 64,
      "hit": false,
      "t": 185600.00000000006,
      "d": 646.666666666657,
      "v": 68
    },
    {
      "midi": 67,
      "hit": false,
      "t": 185600.00000000006,
      "d": 646.666666666657,
      "v": 68
    },
    {
      "midi": 72,
      "hit": false,
      "t": 185600.00000000006,
      "d": 646.666666666657,
      "v": 68
    },
    {
      "midi": 69,
      "hit": false,
      "t": 185640.00000000006,
      "d": 190,
      "v": 127
    },
    {
      "midi": 69,
      "hit": false,
      "t": 185650.00000000006,
      "d": 190,
      "v": 127
    },
    {
      "midi": 69,
      "hit": false,
      "t": 185893.3333333334,
      "d": 253.33333333334303,
      "v": 118
    },
    {
      "midi": 69,
      "hit": false,
      "t": 185903.3333333334,
      "d": 253.33333333334303,
      "v": 118
    },
    {
      "midi": 67,
      "hit": false,
      "t": 186176.66666666674,
      "d": 193.33333333334303,
      "v": 127
    },
    {
      "midi": 67,
      "hit": false,
      "t": 186186.66666666674,
      "d": 193.33333333334303,
      "v": 127
    },
    {
      "midi": 69,
      "hit": false,
      "t": 186436.66666666674,
      "d": 200,
      "v": 127
    },
    {
      "midi": 69,
      "hit": false,
      "t": 186446.66666666674,
      "d": 200,
      "v": 127
    },
    {
      "midi": 60,
      "hit": false,
      "t": 186600.00000000006,
      "d": 470,
      "v": 70
    },
    {
      "midi": 65,
      "hit": false,
      "t": 186600.00000000006,
      "d": 470,
      "v": 70
    },
    {
      "midi": 69,
      "hit": false,
      "t": 186600.00000000006,
      "d": 470,
      "v": 70
    },
    {
      "midi": 76,
      "hit": false,
      "t": 186600.00000000006,
      "d": 470,
      "v": 70
    },
    {
      "midi": 69,
      "hit": false,
      "t": 186713.3333333334,
      "d": 186.66666666665697,
      "v": 127
    },
    {
      "midi": 69,
      "hit": false,
      "t": 186723.3333333334,
      "d": 186.66666666665697,
      "v": 127
    },
    {
      "midi": 67,
      "hit": false,
      "t": 186970.00000000006,
      "d": 213.33333333334303,
      "v": 127
    },
    {
      "midi": 67,
      "hit": false,
      "t": 186980.00000000006,
      "d": 213.33333333334303,
      "v": 127
    },
    {
      "midi": 60,
      "hit": false,
      "t": 187200.00000000006,
      "d": 646.666666666657,
      "v": 68
    },
    {
      "midi": 66,
      "hit": false,
      "t": 187200.00000000006,
      "d": 646.666666666657,
      "v": 68
    },
    {
      "midi": 69,
      "hit": false,
      "t": 187200.00000000006,
      "d": 646.666666666657,
      "v": 68
    },
    {
      "midi": 75,
      "hit": false,
      "t": 187200.00000000006,
      "d": 646.666666666657,
      "v": 68
    },
    {
      "midi": 69,
      "hit": false,
      "t": 187223.3333333334,
      "d": 600,
      "v": 127
    },
    {
      "midi": 69,
      "hit": false,
      "t": 187233.3333333334,
      "d": 600,
      "v": 127
    },
    {
      "midi": 67,
      "hit": false,
      "t": 187836.66666666674,
      "d": 363.33333333334303,
      "v": 127
    },
    {
      "midi": 67,
      "hit": false,
      "t": 187846.66666666674,
      "d": 363.33333333334303,
      "v": 127
    },
    {
      "midi": 57,
      "hit": false,
      "t": 188000.00000000006,
      "d": 646.666666666657,
      "v": 68
    },
    {
      "midi": 60,
      "hit": false,
      "t": 188000.00000000006,
      "d": 646.666666666657,
      "v": 68
    },
    {
      "midi": 64,
      "hit": false,
      "t": 188000.00000000006,
      "d": 646.666666666657,
      "v": 68
    },
    {
      "midi": 67,
      "hit": false,
      "t": 188000.00000000006,
      "d": 646.666666666657,
      "v": 68
    },
    {
      "midi": 69,
      "hit": false,
      "t": 188246.66666666674,
      "d": 310,
      "v": 127
    },
    {
      "midi": 69,
      "hit": false,
      "t": 188256.66666666674,
      "d": 310,
      "v": 127
    },
    {
      "midi": 67,
      "hit": false,
      "t": 188543.3333333334,
      "d": 270,
      "v": 127
    },
    {
      "midi": 67,
      "hit": false,
      "t": 188553.3333333334,
      "d": 270,
      "v": 127
    },
    {
      "midi": 55,
      "hit": false,
      "t": 188800.00000000006,
      "d": 1360,
      "v": 60
    },
    {
      "midi": 62,
      "hit": false,
      "t": 188800.00000000006,
      "d": 1360,
      "v": 60
    },
    {
      "midi": 64,
      "hit": false,
      "t": 188800.00000000006,
      "d": 1360,
      "v": 60
    },
    {
      "midi": 71,
      "hit": false,
      "t": 188800.00000000006,
      "d": 1360,
      "v": 60
    },
    {
      "midi": 71,
      "hit": false,
      "t": 188836.66666666674,
      "d": 373.33333333334303,
      "v": 127
    },
    {
      "midi": 71,
      "hit": false,
      "t": 188846.66666666674,
      "d": 373.33333333334303,
      "v": 127
    },
    {
      "midi": 67,
      "hit": false,
      "t": 189200.0000000001,
      "d": 226.66666666665697,
      "v": 120
    },
    {
      "midi": 67,
      "hit": false,
      "t": 189210.0000000001,
      "d": 226.66666666665697,
      "v": 120
    },
    {
      "midi": 69,
      "hit": false,
      "t": 189443.3333333334,
      "d": 360,
      "v": 127
    },
    {
      "midi": 69,
      "hit": false,
      "t": 189453.3333333334,
      "d": 360,
      "v": 127
    },
    {
      "midi": 71,
      "hit": false,
      "t": 189846.66666666674,
      "d": 343.33333333334303,
      "v": 127
    },
    {
      "midi": 71,
      "hit": false,
      "t": 189856.66666666674,
      "d": 343.33333333334303,
      "v": 127
    },
    {
      "midi": 69,
      "hit": false,
      "t": 190230.0000000001,
      "d": 1770,
      "v": 127
    },
    {
      "midi": 69,
      "hit": false,
      "t": 190240.0000000001,
      "d": 1770,
      "v": 127
    },
    {
      "midi": 64,
      "hit": false,
      "t": 190400.00000000006,
      "d": 1390,
      "v": 66
    },
    {
      "midi": 61,
      "hit": false,
      "t": 190400.00000000006,
      "d": 1406.666666666657,
      "v": 56
    },
    {
      "midi": 69,
      "hit": false,
      "t": 190400.00000000006,
      "d": 1410,
      "v": 61
    },
    {
      "midi": 55,
      "hit": false,
      "t": 190400.00000000006,
      "d": 1420,
      "v": 59
    },
    {
      "midi": 60,
      "hit": false,
      "t": 192000.00000000006,
      "d": 2060,
      "v": 58
    },
    {
      "midi": 65,
      "hit": false,
      "t": 192000.00000000006,
      "d": 2253.333333333343,
      "v": 58
    },
    {
      "midi": 69,
      "hit": false,
      "t": 192000.00000000006,
      "d": 2296.666666666686,
      "v": 66
    },
    {
      "midi": 74,
      "hit": false,
      "t": 192000.00000000006,
      "d": 2296.666666666686,
      "v": 56
    },
    {
      "midi": 65,
      "hit": false,
      "t": 192030.0000000001,
      "d": 2866.666666666657,
      "v": 127
    },
    {
      "midi": 65,
      "hit": false,
      "t": 192040.0000000001,
      "d": 2866.666666666657,
      "v": 127
    },
    {
      "midi": 60,
      "hit": false,
      "t": 194400.0000000001,
      "d": 653.333333333343,
      "v": 59
    },
    {
      "midi": 65,
      "hit": false,
      "t": 194600.0000000001,
      "d": 493.33333333334303,
      "v": 49
    },
    {
      "midi": 69,
      "hit": false,
      "t": 194800.0000000001,
      "d": 286.66666666668607,
      "v": 63
    },
    {
      "midi": 64,
      "hit": false,
      "t": 194826.66666666674,
      "d": 236.66666666665697,
      "v": 127
    },
    {
      "midi": 64,
      "hit": false,
      "t": 194836.66666666674,
      "d": 236.66666666665697,
      "v": 127
    },
    {
      "midi": 74,
      "hit": false,
      "t": 195000.0000000001,
      "d": 130,
      "v": 68
    },
    {
      "midi": 67,
      "hit": false,
      "t": 195230.00000000006,
      "d": 310,
      "v": 127
    },
    {
      "midi": 67,
      "hit": false,
      "t": 195240.00000000006,
      "d": 310,
      "v": 127
    },
    {
      "midi": 66,
      "hit": false,
      "t": 195620.00000000006,
      "d": 196.66666666665697,
      "v": 127
    },
    {
      "midi": 66,
      "hit": false,
      "t": 195630.00000000006,
      "d": 196.66666666665697,
      "v": 127
    },
    {
      "midi": 65,
      "hit": false,
      "t": 195883.33333333337,
      "d": 2126.666666666657,
      "v": 127
    },
    {
      "midi": 65,
      "hit": false,
      "t": 195893.33333333337,
      "d": 2126.666666666657,
      "v": 127
    },
    {
      "midi": 84,
      "hit": false,
      "t": 196800.0000000001,
      "d": 1536.666666666657,
      "v": 63
    },
    {
      "midi": 77,
      "hit": false,
      "t": 197000.0000000001,
      "d": 1260,
      "v": 53
    },
    {
      "midi": 74,
      "hit": false,
      "t": 197200.0000000001,
      "d": 1086.666666666657,
      "v": 59
    },
    {
      "midi": 68,
      "hit": false,
      "t": 197400.0000000001,
      "d": 896.666666666657,
      "v": 48
    },
    {
      "midi": 60,
      "hit": false,
      "t": 197800.0000000001,
      "d": 543.3333333333139,
      "v": 52
    },
    {
      "midi": 60,
      "hit": false,
      "t": 198013.33333333337,
      "d": 240,
      "v": 127
    },
    {
      "midi": 60,
      "hit": false,
      "t": 198023.33333333337,
      "d": 240,
      "v": 127
    },
    {
      "midi": 62,
      "hit": false,
      "t": 198203.33333333337,
      "d": 150,
      "v": 127
    },
    {
      "midi": 62,
      "hit": false,
      "t": 198213.33333333337,
      "d": 150,
      "v": 127
    },
    {
      "midi": 71,
      "hit": false,
      "t": 198400.00000000006,
      "d": 1390,
      "v": 66
    },
    {
      "midi": 67,
      "hit": false,
      "t": 198400.00000000006,
      "d": 1406.666666666657,
      "v": 56
    },
    {
      "midi": 76,
      "hit": false,
      "t": 198400.00000000006,
      "d": 1410,
      "v": 61
    },
    {
      "midi": 62,
      "hit": false,
      "t": 198400.00000000006,
      "d": 1420,
      "v": 59
    },
    {
      "midi": 64,
      "hit": false,
      "t": 198416.66666666672,
      "d": 206.66666666665697,
      "v": 127
    },
    {
      "midi": 64,
      "hit": false,
      "t": 198426.66666666672,
      "d": 206.66666666665697,
      "v": 127
    },
    {
      "midi": 64,
      "hit": false,
      "t": 198706.66666666672,
      "d": 160,
      "v": 127
    },
    {
      "midi": 64,
      "hit": false,
      "t": 198716.66666666672,
      "d": 160,
      "v": 127
    },
    {
      "midi": 64,
      "hit": false,
      "t": 198966.66666666672,
      "d": 166.66666666665697,
      "v": 127
    },
    {
      "midi": 64,
      "hit": false,
      "t": 198976.66666666672,
      "d": 166.66666666665697,
      "v": 127
    },
    {
      "midi": 64,
      "hit": false,
      "t": 199230.00000000003,
      "d": 303.33333333334303,
      "v": 127
    },
    {
      "midi": 64,
      "hit": false,
      "t": 199240.00000000003,
      "d": 303.33333333334303,
      "v": 127
    },
    {
      "midi": 63,
      "hit": false,
      "t": 199536.66666666672,
      "d": 256.66666666668607,
      "v": 127
    },
    {
      "midi": 63,
      "hit": false,
      "t": 199546.66666666672,
      "d": 256.66666666668607,
      "v": 127
    },
    {
      "midi": 64,
      "hit": false,
      "t": 199780.00000000006,
      "d": 253.33333333334303,
      "v": 127
    },
    {
      "midi": 64,
      "hit": false,
      "t": 199790.00000000006,
      "d": 253.33333333334303,
      "v": 127
    },
    {
      "midi": 65,
      "hit": false,
      "t": 200000.00000000006,
      "d": 1390,
      "v": 66
    },
    {
      "midi": 61,
      "hit": false,
      "t": 200000.00000000006,
      "d": 1406.666666666657,
      "v": 56
    },
    {
      "midi": 69,
      "hit": false,
      "t": 200000.00000000006,
      "d": 1410,
      "v": 61
    },
    {
      "midi": 55,
      "hit": false,
      "t": 200000.00000000006,
      "d": 1420,
      "v": 59
    },
    {
      "midi": 65,
      "hit": false,
      "t": 200033.3333333334,
      "d": 1173.333333333343,
      "v": 127
    },
    {
      "midi": 65,
      "hit": false,
      "t": 200043.3333333334,
      "d": 1173.333333333343,
      "v": 127
    },
    {
      "midi": 64,
      "hit": false,
      "t": 201210.0000000001,
      "d": 183.33333333334303,
      "v": 127
    },
    {
      "midi": 64,
      "hit": false,
      "t": 201220.0000000001,
      "d": 183.33333333334303,
      "v": 127
    },
    {
      "midi": 65,
      "hit": false,
      "t": 201400.0000000001,
      "d": 236.66666666665697,
      "v": 127
    },
    {
      "midi": 65,
      "hit": false,
      "t": 201410.0000000001,
      "d": 236.66666666665697,
      "v": 127
    },
    {
      "midi": 53,
      "hit": false,
      "t": 201600.00000000006,
      "d": 1360,
      "v": 60
    },
    {
      "midi": 60,
      "hit": false,
      "t": 201600.00000000006,
      "d": 1360,
      "v": 60
    },
    {
      "midi": 62,
      "hit": false,
      "t": 201600.00000000006,
      "d": 1360,
      "v": 60
    },
    {
      "midi": 69,
      "hit": false,
      "t": 201600.00000000006,
      "d": 1360,
      "v": 60
    },
    {
      "midi": 67,
      "hit": false,
      "t": 201610.0000000001,
      "d": 246.66666666665697,
      "v": 127
    },
    {
      "midi": 67,
      "hit": false,
      "t": 201620.0000000001,
      "d": 246.66666666665697,
      "v": 127
    },
    {
      "midi": 67,
      "hit": false,
      "t": 201906.66666666674,
      "d": 153.33333333334303,
      "v": 127
    },
    {
      "midi": 67,
      "hit": false,
      "t": 201916.66666666674,
      "d": 153.33333333334303,
      "v": 127
    },
    {
      "midi": 67,
      "hit": false,
      "t": 202163.33333333343,
      "d": 160,
      "v": 127
    },
    {
      "midi": 67,
      "hit": false,
      "t": 202173.33333333343,
      "d": 160,
      "v": 127
    },
    {
      "midi": 67,
      "hit": false,
      "t": 202423.33333333343,
      "d": 340,
      "v": 127
    },
    {
      "midi": 67,
      "hit": false,
      "t": 202433.33333333343,
      "d": 340,
      "v": 127
    },
    {
      "midi": 66,
      "hit": false,
      "t": 202726.66666666677,
      "d": 213.33333333331393,
      "v": 127
    },
    {
      "midi": 66,
      "hit": false,
      "t": 202736.66666666677,
      "d": 213.33333333331393,
      "v": 127
    },
    {
      "midi": 67,
      "hit": false,
      "t": 202970.0000000001,
      "d": 246.66666666665697,
      "v": 127
    },
    {
      "midi": 67,
      "hit": false,
      "t": 202980.0000000001,
      "d": 246.66666666665697,
      "v": 127
    },
    {
      "midi": 53,
      "hit": false,
      "t": 203200.00000000006,
      "d": 1366.666666666657,
      "v": 59
    },
    {
      "midi": 59,
      "hit": false,
      "t": 203200.00000000006,
      "d": 1366.666666666657,
      "v": 56
    },
    {
      "midi": 69,
      "hit": false,
      "t": 203200.00000000006,
      "d": 1366.666666666657,
      "v": 61
    },
    {
      "midi": 62,
      "hit": false,
      "t": 203200.00000000006,
      "d": 1390,
      "v": 66
    },
    {
      "midi": 69,
      "hit": false,
      "t": 203240.0000000001,
      "d": 1363.333333333343,
      "v": 127
    },
    {
      "midi": 69,
      "hit": false,
      "t": 203250.0000000001,
      "d": 1363.333333333343,
      "v": 127
    },
    {
      "midi": 69,
      "hit": false,
      "t": 204820.0000000001,
      "d": 2776.666666666657,
      "v": 127
    },
    {
      "midi": 69,
      "hit": false,
      "t": 204830.0000000001,
      "d": 2776.666666666657,
      "v": 127
    },
    {
      "midi": 84,
      "hit": false,
      "t": 206400.00000000006,
      "d": 1536.666666666657,
      "v": 63
    },
    {
      "midi": 79,
      "hit": false,
      "t": 206600.00000000006,
      "d": 1260,
      "v": 53
    },
    {
      "midi": 76,
      "hit": false,
      "t": 206800.00000000006,
      "d": 1086.666666666657,
      "v": 59
    },
    {
      "midi": 69,
      "hit": false,
      "t": 207000.00000000006,
      "d": 896.666666666657,
      "v": 48
    },
    {
      "midi": 60,
      "hit": false,
      "t": 207400.00000000006,
      "d": 543.3333333333139,
      "v": 52
    },
    {
      "midi": 67,
      "hit": false,
      "t": 207620.0000000001,
      "d": 440,
      "v": 127
    },
    {
      "midi": 67,
      "hit": false,
      "t": 207630.0000000001,
      "d": 440,
      "v": 127
    },
    {
      "midi": 60,
      "hit": false,
      "t": 208000.00000000003,
      "d": 1390,
      "v": 66
    },
    {
      "midi": 57,
      "hit": false,
      "t": 208000.00000000003,
      "d": 1406.666666666657,
      "v": 56
    },
    {
      "midi": 66,
      "hit": false,
      "t": 208000.00000000003,
      "d": 1410,
      "v": 61
    },
    {
      "midi": 52,
      "hit": false,
      "t": 208000.00000000003,
      "d": 1420,
      "v": 59
    },
    {
      "midi": 71,
      "hit": false,
      "t": 208050.0000000001,
      "d": 386.66666666665697,
      "v": 127
    },
    {
      "midi": 71,
      "hit": false,
      "t": 208060.0000000001,
      "d": 386.66666666665697,
      "v": 127
    },
    {
      "midi": 70,
      "hit": false,
      "t": 208446.66666666674,
      "d": 246.66666666668607,
      "v": 127
    },
    {
      "midi": 70,
      "hit": false,
      "t": 208456.66666666674,
      "d": 246.66666666668607,
      "v": 127
    },
    {
      "midi": 69,
      "hit": false,
      "t": 208690.0000000001,
      "d": 2366.666666666686,
      "v": 127
    },
    {
      "midi": 69,
      "hit": false,
      "t": 208700.0000000001,
      "d": 2366.666666666686,
      "v": 127
    },
    {
      "midi": 57,
      "hit": false,
      "t": 209600.00000000003,
      "d": 816.666666666657,
      "v": 62
    },
    {
      "midi": 63,
      "hit": false,
      "t": 209800.00000000003,
      "d": 660,
      "v": 47
    },
    {
      "midi": 67,
      "hit": false,
      "t": 210000.00000000003,
      "d": 426.66666666665697,
      "v": 52
    },
    {
      "midi": 74,
      "hit": false,
      "t": 210200.00000000003,
      "d": 280,
      "v": 68
    },
    {
      "midi": 57,
      "hit": false,
      "t": 210600.00000000003,
      "d": 146.66666666665697,
      "v": 64
    },
    {
      "midi": 67,
      "hit": false,
      "t": 210600.00000000003,
      "d": 146.66666666665697,
      "v": 70
    },
    {
      "midi": 63,
      "hit": false,
      "t": 210600.00000000003,
      "d": 166.66666666665697,
      "v": 58
    },
    {
      "midi": 74,
      "hit": false,
      "t": 210600.00000000003,
      "d": 166.66666666665697,
      "v": 68
    },
    {
      "midi": 67,
      "hit": false,
      "t": 211046.66666666677,
      "d": 186.66666666665697,
      "v": 127
    },
    {
      "midi": 67,
      "hit": false,
      "t": 211056.66666666677,
      "d": 186.66666666665697,
      "v": 127
    },
    {
      "midi": 69,
      "hit": false,
      "t": 211250.0000000001,
      "d": 206.66666666665697,
      "v": 127
    },
    {
      "midi": 69,
      "hit": false,
      "t": 211260.0000000001,
      "d": 206.66666666665697,
      "v": 127
    },
    {
      "midi": 57,
      "hit": false,
      "t": 211400.00000000003,
      "d": 470,
      "v": 70
    },
    {
      "midi": 60,
      "hit": false,
      "t": 211400.00000000003,
      "d": 470,
      "v": 70
    },
    {
      "midi": 64,
      "hit": false,
      "t": 211400.00000000003,
      "d": 470,
      "v": 70
    },
    {
      "midi": 67,
      "hit": false,
      "t": 211400.00000000003,
      "d": 470,
      "v": 70
    },
    {
      "midi": 69,
      "hit": false,
      "t": 211530.0000000001,
      "d": 256.66666666665697,
      "v": 127
    },
    {
      "midi": 69,
      "hit": false,
      "t": 211540.0000000001,
      "d": 256.66666666665697,
      "v": 127
    },
    {
      "midi": 67,
      "hit": false,
      "t": 211790.0000000001,
      "d": 246.66666666665697,
      "v": 127
    },
    {
      "midi": 67,
      "hit": false,
      "t": 211800.0000000001,
      "d": 246.66666666665697,
      "v": 127
    },
    {
      "midi": 60,
      "hit": false,
      "t": 212000.00000000003,
      "d": 646.666666666657,
      "v": 68
    },
    {
      "midi": 65,
      "hit": false,
      "t": 212000.00000000003,
      "d": 646.666666666657,
      "v": 68
    },
    {
      "midi": 69,
      "hit": false,
      "t": 212000.00000000003,
      "d": 646.666666666657,
      "v": 68
    },
    {
      "midi": 74,
      "hit": false,
      "t": 212000.00000000003,
      "d": 646.666666666657,
      "v": 68
    },
    {
      "midi": 69,
      "hit": false,
      "t": 212040.0000000001,
      "d": 213.33333333334303,
      "v": 127
    },
    {
      "midi": 69,
      "hit": false,
      "t": 212050.0000000001,
      "d": 213.33333333334303,
      "v": 127
    },
    {
      "midi": 69,
      "hit": false,
      "t": 212323.33333333343,
      "d": 250,
      "v": 127
    },
    {
      "midi": 69,
      "hit": false,
      "t": 212333.33333333343,
      "d": 250,
      "v": 127
    },
    {
      "midi": 67,
      "hit": false,
      "t": 212586.66666666677,
      "d": 243.33333333334303,
      "v": 127
    },
    {
      "midi": 67,
      "hit": false,
      "t": 212596.66666666677,
      "d": 243.33333333334303,
      "v": 127
    },
    {
      "midi": 69,
      "hit": false,
      "t": 212846.66666666677,
      "d": 356.66666666665697,
      "v": 127
    },
    {
      "midi": 69,
      "hit": false,
      "t": 212856.66666666677,
      "d": 356.66666666665697,
      "v": 127
    },
    {
      "midi": 60,
      "hit": false,
      "t": 213000.00000000003,
      "d": 366.66666666665697,
      "v": 70
    },
    {
      "midi": 66,
      "hit": false,
      "t": 213000.00000000003,
      "d": 366.66666666665697,
      "v": 70
    },
    {
      "midi": 69,
      "hit": false,
      "t": 213000.00000000003,
      "d": 366.66666666665697,
      "v": 70
    },
    {
      "midi": 75,
      "hit": false,
      "t": 213000.00000000003,
      "d": 366.66666666665697,
      "v": 70
    },
    {
      "midi": 67,
      "hit": false,
      "t": 213203.33333333343,
      "d": 256.66666666665697,
      "v": 127
    },
    {
      "midi": 67,
      "hit": false,
      "t": 213213.33333333343,
      "d": 256.66666666665697,
      "v": 127
    },
    {
      "midi": 57,
      "hit": false,
      "t": 213400.00000000003,
      "d": 840,
      "v": 68
    },
    {
      "midi": 64,
      "hit": false,
      "t": 213400.00000000003,
      "d": 840,
      "v": 68
    },
    {
      "midi": 67,
      "hit": false,
      "t": 213400.00000000003,
      "d": 840,
      "v": 68
    },
    {
      "midi": 72,
      "hit": false,
      "t": 213400.00000000003,
      "d": 840,
      "v": 68
    },
    {
      "midi": 69,
      "hit": false,
      "t": 213450.0000000001,
      "d": 390,
      "v": 127
    },
    {
      "midi": 69,
      "hit": false,
      "t": 213460.0000000001,
      "d": 390,
      "v": 127
    },
    {
      "midi": 67,
      "hit": false,
      "t": 213833.33333333343,
      "d": 383.33333333331393,
      "v": 127
    },
    {
      "midi": 67,
      "hit": false,
      "t": 213843.33333333343,
      "d": 383.33333333331393,
      "v": 127
    },
    {
      "midi": 71,
      "hit": false,
      "t": 214223.3333333334,
      "d": 460,
      "v": 127
    },
    {
      "midi": 71,
      "hit": false,
      "t": 214233.3333333334,
      "d": 460,
      "v": 127
    },
    {
      "midi": 71,
      "hit": false,
      "t": 214400.00000000003,
      "d": 1390,
      "v": 66
    },
    {
      "midi": 67,
      "hit": false,
      "t": 214400.00000000003,
      "d": 1406.666666666657,
      "v": 56
    },
    {
      "midi": 76,
      "hit": false,
      "t": 214400.00000000003,
      "d": 1410,
      "v": 61
    },
    {
      "midi": 62,
      "hit": false,
      "t": 214400.00000000003,
      "d": 1420,
      "v": 59
    },
    {
      "midi": 67,
      "hit": false,
      "t": 214660.00000000006,
      "d": 383.33333333334303,
      "v": 127
    },
    {
      "midi": 67,
      "hit": false,
      "t": 214670.00000000006,
      "d": 383.33333333334303,
      "v": 127
    },
    {
      "midi": 69,
      "hit": false,
      "t": 215043.3333333334,
      "d": 390,
      "v": 127
    },
    {
      "midi": 69,
      "hit": false,
      "t": 215053.3333333334,
      "d": 390,
      "v": 127
    },
    {
      "midi": 71,
      "hit": false,
      "t": 215430.00000000006,
      "d": 363.33333333334303,
      "v": 127
    },
    {
      "midi": 71,
      "hit": false,
      "t": 215440.00000000006,
      "d": 363.33333333334303,
      "v": 127
    },
    {
      "midi": 69,
      "hit": false,
      "t": 215823.3333333334,
      "d": 1853.333333333343,
      "v": 127
    },
    {
      "midi": 69,
      "hit": false,
      "t": 215833.3333333334,
      "d": 1853.333333333343,
      "v": 127
    },
    {
      "midi": 64,
      "hit": false,
      "t": 216000.00000000003,
      "d": 1390,
      "v": 66
    },
    {
      "midi": 61,
      "hit": false,
      "t": 216000.00000000003,
      "d": 1406.666666666657,
      "v": 56
    },
    {
      "midi": 69,
      "hit": false,
      "t": 216000.00000000003,
      "d": 1410,
      "v": 61
    },
    {
      "midi": 55,
      "hit": false,
      "t": 216000.00000000003,
      "d": 1420,
      "v": 59
    },
    {
      "midi": 65,
      "hit": false,
      "t": 217633.3333333334,
      "d": 2953.333333333343,
      "v": 127
    },
    {
      "midi": 65,
      "hit": false,
      "t": 217643.3333333334,
      "d": 2953.333333333343,
      "v": 127
    },
    {
      "midi": 86,
      "hit": false,
      "t": 219200.00000000003,
      "d": 1536.666666666657,
      "v": 63
    },
    {
      "midi": 81,
      "hit": false,
      "t": 219400.00000000003,
      "d": 1260,
      "v": 53
    },
    {
      "midi": 77,
      "hit": false,
      "t": 219600.00000000003,
      "d": 1086.666666666657,
      "v": 59
    },
    {
      "midi": 72,
      "hit": false,
      "t": 219800.00000000003,
      "d": 896.666666666657,
      "v": 48
    },
    {
      "midi": 62,
      "hit": false,
      "t": 220200.00000000003,
      "d": 543.3333333333139,
      "v": 52
    },
    {
      "midi": 64,
      "hit": false,
      "t": 220590.0000000001,
      "d": 276.66666666665697,
      "v": 127
    },
    {
      "midi": 64,
      "hit": false,
      "t": 220600.0000000001,
      "d": 276.66666666665697,
      "v": 127
    },
    {
      "midi": 56,
      "hit": false,
      "t": 220800,
      "d": 2573.333333333343,
      "v": 68
    },
    {
      "midi": 60,
      "hit": false,
      "t": 220800,
      "d": 2573.333333333343,
      "v": 68
    },
    {
      "midi": 62,
      "hit": false,
      "t": 220800,
      "d": 2573.333333333343,
      "v": 68
    },
    {
      "midi": 67,
      "hit": false,
      "t": 220800,
      "d": 2573.333333333343,
      "v": 68
    },
    {
      "midi": 67,
      "hit": false,
      "t": 220850.0000000001,
      "d": 310,
      "v": 127
    },
    {
      "midi": 67,
      "hit": false,
      "t": 220860.0000000001,
      "d": 310,
      "v": 127
    },
    {
      "midi": 66,
      "hit": false,
      "t": 221146.66666666674,
      "d": 273.33333333334303,
      "v": 127
    },
    {
      "midi": 66,
      "hit": false,
      "t": 221156.66666666674,
      "d": 273.33333333334303,
      "v": 127
    },
    {
      "midi": 65,
      "hit": false,
      "t": 221450.0000000001,
      "d": 2186.666666666657,
      "v": 127
    },
    {
      "midi": 65,
      "hit": false,
      "t": 221460.0000000001,
      "d": 2186.666666666657,
      "v": 127
    },
    {
      "midi": 56,
      "hit": false,
      "t": 223400,
      "d": 200,
      "v": 57
    },
    {
      "midi": 62,
      "hit": false,
      "t": 223600,
      "d": 206.66666666665697,
      "v": 66
    },
    {
      "midi": 60,
      "hit": false,
      "t": 223630.0000000001,
      "d": 220,
      "v": 127
    },
    {
      "midi": 60,
      "hit": false,
      "t": 223640.0000000001,
      "d": 220,
      "v": 127
    },
    {
      "midi": 65,
      "hit": false,
      "t": 223700,
      "d": 170,
      "v": 60
    },
    {
      "midi": 72,
      "hit": false,
      "t": 223806.66666666666,
      "d": 146.66666666668607,
      "v": 72
    },
    {
      "midi": 62,
      "hit": false,
      "t": 223810.0000000001,
      "d": 143.33333333334303,
      "v": 127
    },
    {
      "midi": 62,
      "hit": false,
      "t": 223820.0000000001,
      "d": 143.33333333334303,
      "v": 127
    },
    {
      "midi": 71,
      "hit": false,
      "t": 224000,
      "d": 1390,
      "v": 66
    },
    {
      "midi": 67,
      "hit": false,
      "t": 224000,
      "d": 1406.666666666657,
      "v": 56
    },
    {
      "midi": 76,
      "hit": false,
      "t": 224000,
      "d": 1410,
      "v": 61
    },
    {
      "midi": 62,
      "hit": false,
      "t": 224000,
      "d": 1420,
      "v": 59
    },
    {
      "midi": 64,
      "hit": false,
      "t": 224036.66666666677,
      "d": 213.33333333334303,
      "v": 127
    },
    {
      "midi": 64,
      "hit": false,
      "t": 224046.66666666677,
      "d": 213.33333333334303,
      "v": 127
    },
    {
      "midi": 64,
      "hit": false,
      "t": 224320.00000000012,
      "d": 153.33333333334303,
      "v": 127
    },
    {
      "midi": 64,
      "hit": false,
      "t": 224330.00000000012,
      "d": 153.33333333334303,
      "v": 127
    },
    {
      "midi": 64,
      "hit": false,
      "t": 224573.33333333346,
      "d": 136.66666666665697,
      "v": 127
    },
    {
      "midi": 64,
      "hit": false,
      "t": 224583.33333333346,
      "d": 136.66666666665697,
      "v": 127
    },
    {
      "midi": 64,
      "hit": false,
      "t": 224846.66666666677,
      "d": 233.33333333334303,
      "v": 127
    },
    {
      "midi": 64,
      "hit": false,
      "t": 224856.66666666677,
      "d": 233.33333333334303,
      "v": 127
    },
    {
      "midi": 63,
      "hit": false,
      "t": 225133.33333333346,
      "d": 243.33333333331393,
      "v": 127
    },
    {
      "midi": 63,
      "hit": false,
      "t": 225143.33333333346,
      "d": 243.33333333331393,
      "v": 127
    },
    {
      "midi": 64,
      "hit": false,
      "t": 225370.00000000012,
      "d": 299.9999999999709,
      "v": 127
    },
    {
      "midi": 64,
      "hit": false,
      "t": 225380.00000000012,
      "d": 299.9999999999709,
      "v": 127
    },
    {
      "midi": 55,
      "hit": false,
      "t": 225600,
      "d": 816.666666666657,
      "v": 62
    },
    {
      "midi": 65,
      "hit": false,
      "t": 225643.33333333343,
      "d": 1160,
      "v": 127
    },
    {
      "midi": 65,
      "hit": false,
      "t": 225653.33333333343,
      "d": 1160,
      "v": 127
    },
    {
      "midi": 61,
      "hit": false,
      "t": 225800,
      "d": 660,
      "v": 47
    },
    {
      "midi": 64,
      "hit": false,
      "t": 226000,
      "d": 426.66666666665697,
      "v": 52
    },
    {
      "midi": 69,
      "hit": false,
      "t": 226200,
      "d": 280,
      "v": 68
    },
    {
      "midi": 55,
      "hit": false,
      "t": 226600,
      "d": 146.66666666665697,
      "v": 64
    },
    {
      "midi": 64,
      "hit": false,
      "t": 226600,
      "d": 146.66666666665697,
      "v": 70
    },
    {
      "midi": 61,
      "hit": false,
      "t": 226600,
      "d": 166.66666666665697,
      "v": 58
    },
    {
      "midi": 69,
      "hit": false,
      "t": 226600,
      "d": 166.66666666665697,
      "v": 68
    },
    {
      "midi": 64,
      "hit": false,
      "t": 226806.66666666677,
      "d": 216.66666666665697,
      "v": 127
    },
    {
      "midi": 64,
      "hit": false,
      "t": 226816.66666666677,
      "d": 216.66666666665697,
      "v": 127
    },
    {
      "midi": 65,
      "hit": false,
      "t": 227003.33333333343,
      "d": 273.33333333334303,
      "v": 127
    },
    {
      "midi": 65,
      "hit": false,
      "t": 227013.33333333343,
      "d": 273.33333333334303,
      "v": 127
    },
    {
      "midi": 69,
      "hit": false,
      "t": 227200,
      "d": 1390,
      "v": 66
    },
    {
      "midi": 65,
      "hit": false,
      "t": 227200,
      "d": 1406.666666666657,
      "v": 56
    },
    {
      "midi": 74,
      "hit": false,
      "t": 227200,
      "d": 1410,
      "v": 61
    },
    {
      "midi": 60,
      "hit": false,
      "t": 227200,
      "d": 1420,
      "v": 59
    },
    {
      "midi": 67,
      "hit": false,
      "t": 227233.33333333343,
      "d": 206.66666666668607,
      "v": 127
    },
    {
      "midi": 67,
      "hit": false,
      "t": 227243.33333333343,
      "d": 206.66666666668607,
      "v": 127
    },
    {
      "midi": 67,
      "hit": false,
      "t": 227536.66666666677,
      "d": 150,
      "v": 127
    },
    {
      "midi": 67,
      "hit": false,
      "t": 227546.66666666677,
      "d": 150,
      "v": 127
    },
    {
      "midi": 67,
      "hit": false,
      "t": 227810.00000000012,
      "d": 146.66666666665697,
      "v": 127
    },
    {
      "midi": 67,
      "hit": false,
      "t": 227820.00000000012,
      "d": 146.66666666665697,
      "v": 127
    },
    {
      "midi": 67,
      "hit": false,
      "t": 228063.33333333343,
      "d": 310,
      "v": 127
    },
    {
      "midi": 67,
      "hit": false,
      "t": 228073.33333333343,
      "d": 310,
      "v": 127
    },
    {
      "midi": 66,
      "hit": false,
      "t": 228360.0000000001,
      "d": 210,
      "v": 127
    },
    {
      "midi": 66,
      "hit": false,
      "t": 228370.0000000001,
      "d": 210,
      "v": 127
    },
    {
      "midi": 67,
      "hit": false,
      "t": 228613.33333333343,
      "d": 310,
      "v": 127
    },
    {
      "midi": 67,
      "hit": false,
      "t": 228623.33333333343,
      "d": 310,
      "v": 127
    },
    {
      "midi": 59,
      "hit": false,
      "t": 228800,
      "d": 816.666666666657,
      "v": 62
    },
    {
      "midi": 69,
      "hit": false,
      "t": 228863.33333333343,
      "d": 1556.666666666657,
      "v": 127
    },
    {
      "midi": 69,
      "hit": false,
      "t": 228873.33333333343,
      "d": 1556.666666666657,
      "v": 127
    },
    {
      "midi": 65,
      "hit": false,
      "t": 229000,
      "d": 660,
      "v": 47
    },
    {
      "midi": 69,
      "hit": false,
      "t": 229200,
      "d": 426.66666666665697,
      "v": 52
    },
    {
      "midi": 74,
      "hit": false,
      "t": 229400,
      "d": 280,
      "v": 68
    },
    {
      "midi": 59,
      "hit": false,
      "t": 229800,
      "d": 146.66666666665697,
      "v": 64
    },
    {
      "midi": 69,
      "hit": false,
      "t": 229800,
      "d": 146.66666666665697,
      "v": 70
    },
    {
      "midi": 65,
      "hit": false,
      "t": 229800,
      "d": 166.66666666665697,
      "v": 58
    },
    {
      "midi": 74,
      "hit": false,
      "t": 229800,
      "d": 166.66666666665697,
      "v": 68
    },
    {
      "midi": 72,
      "hit": false,
      "t": 230440.0000000001,
      "d": 2960,
      "v": 127
    },
    {
      "midi": 72,
      "hit": false,
      "t": 230450.0000000001,
      "d": 2960,
      "v": 127
    },
    {
      "midi": 91,
      "hit": false,
      "t": 232000,
      "d": 1536.666666666657,
      "v": 63
    },
    {
      "midi": 84,
      "hit": false,
      "t": 232200,
      "d": 1260,
      "v": 53
    },
    {
      "midi": 81,
      "hit": false,
      "t": 232400,
      "d": 1086.666666666657,
      "v": 59
    },
    {
      "midi": 76,
      "hit": false,
      "t": 232600,
      "d": 896.666666666657,
      "v": 48
    },
    {
      "midi": 65,
      "hit": false,
      "t": 233000,
      "d": 543.3333333333139,
      "v": 52
    },
    {
      "midi": 71,
      "hit": false,
      "t": 233393.33333333343,
      "d": 260,
      "v": 127
    },
    {
      "midi": 71,
      "hit": false,
      "t": 233403.33333333343,
      "d": 260,
      "v": 127
    },
    {
      "midi": 74,
      "hit": false,
      "t": 233650.0000000001,
      "d": 296.66666666668607,
      "v": 127
    },
    {
      "midi": 74,
      "hit": false,
      "t": 233660.0000000001,
      "d": 296.66666666668607,
      "v": 127
    },
    {
      "midi": 73,
      "hit": false,
      "t": 233946.66666666677,
      "d": 313.33333333334303,
      "v": 127
    },
    {
      "midi": 73,
      "hit": false,
      "t": 233956.66666666677,
      "d": 313.33333333334303,
      "v": 127
    },
    {
      "midi": 72,
      "hit": false,
      "t": 234246.66666666677,
      "d": 2370,
      "v": 127
    },
    {
      "midi": 72,
      "hit": false,
      "t": 234256.66666666677,
      "d": 2370,
      "v": 127
    },
    {
      "midi": 84,
      "hit": false,
      "t": 235199.99999999997,
      "d": 1536.666666666657,
      "v": 63
    },
    {
      "midi": 77,
      "hit": false,
      "t": 235399.99999999997,
      "d": 1260,
      "v": 53
    },
    {
      "midi": 74,
      "hit": false,
      "t": 235599.99999999997,
      "d": 1086.666666666657,
      "v": 59
    },
    {
      "midi": 68,
      "hit": false,
      "t": 235799.99999999997,
      "d": 896.666666666657,
      "v": 48
    },
    {
      "midi": 60,
      "hit": false,
      "t": 236199.99999999997,
      "d": 543.3333333333139,
      "v": 52
    },
    {
      "midi": 71,
      "hit": false,
      "t": 236596.66666666677,
      "d": 250,
      "v": 127
    },
    {
      "midi": 71,
      "hit": false,
      "t": 236606.66666666677,
      "d": 250,
      "v": 127
    },
    {
      "midi": 71,
      "hit": false,
      "t": 236799.99999999994,
      "d": 1390,
      "v": 66
    },
    {
      "midi": 67,
      "hit": false,
      "t": 236799.99999999994,
      "d": 1406.666666666657,
      "v": 56
    },
    {
      "midi": 76,
      "hit": false,
      "t": 236799.99999999994,
      "d": 1410,
      "v": 61
    },
    {
      "midi": 62,
      "hit": false,
      "t": 236799.99999999994,
      "d": 1420,
      "v": 59
    },
    {
      "midi": 74,
      "hit": false,
      "t": 236846.66666666677,
      "d": 306.66666666665697,
      "v": 127
    },
    {
      "midi": 74,
      "hit": false,
      "t": 236856.66666666677,
      "d": 306.66666666665697,
      "v": 127
    },
    {
      "midi": 73,
      "hit": false,
      "t": 237133.33333333343,
      "d": 323.33333333334303,
      "v": 127
    },
    {
      "midi": 73,
      "hit": false,
      "t": 237143.33333333343,
      "d": 323.33333333334303,
      "v": 127
    },
    {
      "midi": 72,
      "hit": false,
      "t": 237453.33333333343,
      "d": 430,
      "v": 127
    },
    {
      "midi": 72,
      "hit": false,
      "t": 237463.33333333343,
      "d": 430,
      "v": 127
    },
    {
      "midi": 71,
      "hit": false,
      "t": 237856.66666666677,
      "d": 383.33333333331393,
      "v": 127
    },
    {
      "midi": 71,
      "hit": false,
      "t": 237866.66666666677,
      "d": 383.33333333331393,
      "v": 127
    },
    {
      "midi": 74,
      "hit": false,
      "t": 238260.0000000001,
      "d": 430,
      "v": 127
    },
    {
      "midi": 74,
      "hit": false,
      "t": 238270.0000000001,
      "d": 430,
      "v": 127
    },
    {
      "midi": 54,
      "hit": false,
      "t": 238399.99999999994,
      "d": 1360,
      "v": 60
    },
    {
      "midi": 57,
      "hit": false,
      "t": 238399.99999999994,
      "d": 1360,
      "v": 60
    },
    {
      "midi": 60,
      "hit": false,
      "t": 238399.99999999994,
      "d": 1360,
      "v": 60
    },
    {
      "midi": 63,
      "hit": false,
      "t": 238399.99999999994,
      "d": 1360,
      "v": 60
    },
    {
      "midi": 73,
      "hit": false,
      "t": 238640.0000000001,
      "d": 396.66666666668607,
      "v": 127
    },
    {
      "midi": 73,
      "hit": false,
      "t": 238650.0000000001,
      "d": 396.66666666668607,
      "v": 127
    },
    {
      "midi": 72,
      "hit": false,
      "t": 239023.33333333343,
      "d": 430.0000000000291,
      "v": 127
    },
    {
      "midi": 72,
      "hit": false,
      "t": 239033.33333333343,
      "d": 430.0000000000291,
      "v": 127
    },
    {
      "midi": 71,
      "hit": false,
      "t": 239420.00000000012,
      "d": 436.66666666668607,
      "v": 127
    },
    {
      "midi": 71,
      "hit": false,
      "t": 239430.00000000012,
      "d": 436.66666666668607,
      "v": 127
    },
    {
      "midi": 69,
      "hit": false,
      "t": 239823.33333333346,
      "d": 3176.666666666686,
      "v": 127
    },
    {
      "midi": 69,
      "hit": false,
      "t": 239833.33333333346,
      "d": 3176.666666666686,
      "v": 127
    },
    {
      "midi": 53,
      "hit": false,
      "t": 239999.99999999994,
      "d": 1360,
      "v": 60
    },
    {
      "midi": 60,
      "hit": false,
      "t": 239999.99999999994,
      "d": 1360,
      "v": 60
    },
    {
      "midi": 62,
      "hit": false,
      "t": 239999.99999999994,
      "d": 1360,
      "v": 60
    },
    {
      "midi": 69,
      "hit": false,
      "t": 239999.99999999994,
      "d": 1360,
      "v": 60
    },
    {
      "midi": 53,
      "hit": false,
      "t": 241599.99999999994,
      "d": 1360,
      "v": 60
    },
    {
      "midi": 57,
      "hit": false,
      "t": 241599.99999999994,
      "d": 1360,
      "v": 60
    },
    {
      "midi": 59,
      "hit": false,
      "t": 241599.99999999994,
      "d": 1360,
      "v": 60
    },
    {
      "midi": 64,
      "hit": false,
      "t": 241599.99999999994,
      "d": 1360,
      "v": 60
    },
    {
      "midi": 69,
      "hit": false,
      "t": 243213.3333333335,
      "d": 2816.666666666686,
      "v": 127
    },
    {
      "midi": 69,
      "hit": false,
      "t": 243223.3333333335,
      "d": 2816.666666666686,
      "v": 127
    },
    {
      "midi": 84,
      "hit": false,
      "t": 244799.99999999994,
      "d": 1536.666666666657,
      "v": 63
    },
    {
      "midi": 79,
      "hit": false,
      "t": 244999.99999999994,
      "d": 1260,
      "v": 53
    },
    {
      "midi": 76,
      "hit": false,
      "t": 245199.99999999994,
      "d": 1086.666666666657,
      "v": 59
    },
    {
      "midi": 69,
      "hit": false,
      "t": 245399.99999999994,
      "d": 896.666666666657,
      "v": 48
    },
    {
      "midi": 60,
      "hit": false,
      "t": 245799.99999999994,
      "d": 543.3333333333139,
      "v": 52
    },
    {
      "midi": 67,
      "hit": false,
      "t": 246016.66666666683,
      "d": 413.33333333334303,
      "v": 127
    },
    {
      "midi": 67,
      "hit": false,
      "t": 246026.66666666683,
      "d": 413.33333333334303,
      "v": 127
    },
    {
      "midi": 60,
      "hit": false,
      "t": 246399.9999999999,
      "d": 1390,
      "v": 66
    },
    {
      "midi": 57,
      "hit": false,
      "t": 246399.9999999999,
      "d": 1406.666666666657,
      "v": 56
    },
    {
      "midi": 66,
      "hit": false,
      "t": 246399.9999999999,
      "d": 1410,
      "v": 61
    },
    {
      "midi": 52,
      "hit": false,
      "t": 246399.9999999999,
      "d": 1420,
      "v": 59
    },
    {
      "midi": 71,
      "hit": false,
      "t": 246440.00000000017,
      "d": 320,
      "v": 127
    },
    {
      "midi": 71,
      "hit": false,
      "t": 246450.00000000017,
      "d": 320,
      "v": 127
    },
    {
      "midi": 70,
      "hit": false,
      "t": 246726.66666666683,
      "d": 310,
      "v": 127
    },
    {
      "midi": 70,
      "hit": false,
      "t": 246736.66666666683,
      "d": 310,
      "v": 127
    },
    {
      "midi": 69,
      "hit": false,
      "t": 247050.00000000017,
      "d": 2156.666666666686,
      "v": 127
    },
    {
      "midi": 69,
      "hit": false,
      "t": 247060.00000000017,
      "d": 2156.666666666686,
      "v": 127
    },
    {
      "midi": 57,
      "hit": false,
      "t": 247999.9999999999,
      "d": 816.666666666657,
      "v": 62
    },
    {
      "midi": 63,
      "hit": false,
      "t": 248199.9999999999,
      "d": 660,
      "v": 47
    },
    {
      "midi": 67,
      "hit": false,
      "t": 248399.9999999999,
      "d": 426.66666666665697,
      "v": 52
    },
    {
      "midi": 74,
      "hit": false,
      "t": 248599.9999999999,
      "d": 280,
      "v": 68
    },
    {
      "midi": 57,
      "hit": false,
      "t": 248999.9999999999,
      "d": 146.66666666665697,
      "v": 64
    },
    {
      "midi": 67,
      "hit": false,
      "t": 248999.9999999999,
      "d": 146.66666666665697,
      "v": 70
    },
    {
      "midi": 63,
      "hit": false,
      "t": 248999.9999999999,
      "d": 166.66666666665697,
      "v": 58
    },
    {
      "midi": 74,
      "hit": false,
      "t": 248999.9999999999,
      "d": 166.66666666665697,
      "v": 68
    },
    {
      "midi": 67,
      "hit": false,
      "t": 249193.33333333352,
      "d": 276.66666666665697,
      "v": 127
    },
    {
      "midi": 67,
      "hit": false,
      "t": 249203.33333333352,
      "d": 276.66666666665697,
      "v": 127
    },
    {
      "midi": 68,
      "hit": false,
      "t": 249423.33333333352,
      "d": 180,
      "v": 127
    },
    {
      "midi": 68,
      "hit": false,
      "t": 249433.33333333352,
      "d": 180,
      "v": 127
    },
    {
      "midi": 57,
      "hit": false,
      "t": 249599.9999999999,
      "d": 646.666666666657,
      "v": 68
    },
    {
      "midi": 64,
      "hit": false,
      "t": 249599.9999999999,
      "d": 646.666666666657,
      "v": 68
    },
    {
      "midi": 67,
      "hit": false,
      "t": 249599.9999999999,
      "d": 646.666666666657,
      "v": 68
    },
    {
      "midi": 72,
      "hit": false,
      "t": 249599.9999999999,
      "d": 646.666666666657,
      "v": 68
    },
    {
      "midi": 69,
      "hit": false,
      "t": 249643.33333333352,
      "d": 193.33333333334303,
      "v": 127
    },
    {
      "midi": 69,
      "hit": false,
      "t": 249653.33333333352,
      "d": 193.33333333334303,
      "v": 127
    },
    {
      "midi": 69,
      "hit": false,
      "t": 249926.66666666686,
      "d": 253.33333333334303,
      "v": 127
    },
    {
      "midi": 69,
      "hit": false,
      "t": 249936.66666666686,
      "d": 253.33333333334303,
      "v": 127
    },
    {
      "midi": 67,
      "hit": false,
      "t": 250203.33333333355,
      "d": 303.33333333334303,
      "v": 127
    },
    {
      "midi": 67,
      "hit": false,
      "t": 250213.33333333355,
      "d": 303.33333333334303,
      "v": 127
    },
    {
      "midi": 60,
      "hit": false,
      "t": 250399.9999999999,
      "d": 646.666666666657,
      "v": 68
    },
    {
      "midi": 65,
      "hit": false,
      "t": 250399.9999999999,
      "d": 646.666666666657,
      "v": 68
    },
    {
      "midi": 69,
      "hit": false,
      "t": 250399.9999999999,
      "d": 646.666666666657,
      "v": 68
    },
    {
      "midi": 74,
      "hit": false,
      "t": 250399.9999999999,
      "d": 646.666666666657,
      "v": 68
    },
    {
      "midi": 69,
      "hit": false,
      "t": 250466.6666666669,
      "d": 220,
      "v": 127
    },
    {
      "midi": 69,
      "hit": false,
      "t": 250476.6666666669,
      "d": 220,
      "v": 127
    },
    {
      "midi": 69,
      "hit": false,
      "t": 250753.33333333355,
      "d": 226.66666666665697,
      "v": 125
    },
    {
      "midi": 69,
      "hit": false,
      "t": 250763.33333333355,
      "d": 226.66666666665697,
      "v": 125
    },
    {
      "midi": 67,
      "hit": false,
      "t": 250996.66666666686,
      "d": 250,
      "v": 127
    },
    {
      "midi": 67,
      "hit": false,
      "t": 251006.66666666686,
      "d": 250,
      "v": 127
    },
    {
      "midi": 60,
      "hit": false,
      "t": 251199.9999999999,
      "d": 646.666666666657,
      "v": 68
    },
    {
      "midi": 63,
      "hit": false,
      "t": 251199.9999999999,
      "d": 646.666666666657,
      "v": 68
    },
    {
      "midi": 66,
      "hit": false,
      "t": 251199.9999999999,
      "d": 646.666666666657,
      "v": 68
    },
    {
      "midi": 69,
      "hit": false,
      "t": 251199.9999999999,
      "d": 646.666666666657,
      "v": 68
    },
    {
      "midi": 69,
      "hit": false,
      "t": 251273.33333333352,
      "d": 220,
      "v": 127
    },
    {
      "midi": 69,
      "hit": false,
      "t": 251283.33333333352,
      "d": 220,
      "v": 127
    },
    {
      "midi": 69,
      "hit": false,
      "t": 251550.00000000017,
      "d": 220,
      "v": 118
    },
    {
      "midi": 69,
      "hit": false,
      "t": 251560.00000000017,
      "d": 220,
      "v": 118
    },
    {
      "midi": 67,
      "hit": false,
      "t": 251786.66666666683,
      "d": 246.66666666665697,
      "v": 127
    },
    {
      "midi": 67,
      "hit": false,
      "t": 251796.66666666683,
      "d": 246.66666666665697,
      "v": 127
    },
    {
      "midi": 57,
      "hit": false,
      "t": 251999.9999999999,
      "d": 646.666666666657,
      "v": 68
    },
    {
      "midi": 64,
      "hit": false,
      "t": 251999.9999999999,
      "d": 646.666666666657,
      "v": 68
    },
    {
      "midi": 67,
      "hit": false,
      "t": 251999.9999999999,
      "d": 646.666666666657,
      "v": 68
    },
    {
      "midi": 72,
      "hit": false,
      "t": 251999.9999999999,
      "d": 646.666666666657,
      "v": 68
    },
    {
      "midi": 69,
      "hit": false,
      "t": 252063.3333333335,
      "d": 340,
      "v": 127
    },
    {
      "midi": 69,
      "hit": false,
      "t": 252073.3333333335,
      "d": 340,
      "v": 127
    },
    {
      "midi": 67,
      "hit": false,
      "t": 252380.00000000015,
      "d": 223.33333333334303,
      "v": 127
    },
    {
      "midi": 67,
      "hit": false,
      "t": 252390.00000000015,
      "d": 223.33333333334303,
      "v": 127
    },
    {
      "midi": 71,
      "hit": false,
      "t": 252650.00000000015,
      "d": 416.66666666665697,
      "v": 127
    },
    {
      "midi": 71,
      "hit": false,
      "t": 252660.00000000015,
      "d": 416.66666666665697,
      "v": 127
    },
    {
      "midi": 55,
      "hit": false,
      "t": 252799.9999999999,
      "d": 816.666666666657,
      "v": 62
    },
    {
      "midi": 62,
      "hit": false,
      "t": 252999.9999999999,
      "d": 660,
      "v": 47
    },
    {
      "midi": 67,
      "hit": false,
      "t": 253040.00000000015,
      "d": 406.66666666665697,
      "v": 127
    },
    {
      "midi": 67,
      "hit": false,
      "t": 253050.00000000015,
      "d": 406.66666666665697,
      "v": 127
    },
    {
      "midi": 64,
      "hit": false,
      "t": 253199.9999999999,
      "d": 426.66666666665697,
      "v": 52
    },
    {
      "midi": 71,
      "hit": false,
      "t": 253399.9999999999,
      "d": 280,
      "v": 68
    },
    {
      "midi": 69,
      "hit": false,
      "t": 253433.33333333346,
      "d": 346.66666666668607,
      "v": 127
    },
    {
      "midi": 69,
      "hit": false,
      "t": 253443.33333333346,
      "d": 346.66666666668607,
      "v": 127
    },
    {
      "midi": 55,
      "hit": false,
      "t": 253799.9999999999,
      "d": 146.66666666665697,
      "v": 64
    },
    {
      "midi": 64,
      "hit": false,
      "t": 253799.9999999999,
      "d": 146.66666666665697,
      "v": 70
    },
    {
      "midi": 62,
      "hit": false,
      "t": 253799.9999999999,
      "d": 166.66666666665697,
      "v": 58
    },
    {
      "midi": 71,
      "hit": false,
      "t": 253799.9999999999,
      "d": 166.66666666665697,
      "v": 68
    },
    {
      "midi": 71,
      "hit": false,
      "t": 253816.6666666668,
      "d": 430,
      "v": 127
    },
    {
      "midi": 71,
      "hit": false,
      "t": 253826.6666666668,
      "d": 430,
      "v": 127
    },
    {
      "midi": 69,
      "hit": false,
      "t": 254240.00000000015,
      "d": 1763.333333333314,
      "v": 127
    },
    {
      "midi": 69,
      "hit": false,
      "t": 254250.00000000015,
      "d": 1763.333333333314,
      "v": 127
    },
    {
      "midi": 64,
      "hit": false,
      "t": 254399.9999999999,
      "d": 1390,
      "v": 66
    },
    {
      "midi": 61,
      "hit": false,
      "t": 254399.9999999999,
      "d": 1406.666666666657,
      "v": 56
    },
    {
      "midi": 69,
      "hit": false,
      "t": 254399.9999999999,
      "d": 1410,
      "v": 61
    },
    {
      "midi": 55,
      "hit": false,
      "t": 254399.9999999999,
      "d": 1420,
      "v": 59
    },
    {
      "midi": 53,
      "hit": false,
      "t": 255999.9999999999,
      "d": 216.66666666665697,
      "v": 42
    },
    {
      "midi": 60,
      "hit": false,
      "t": 255999.9999999999,
      "d": 216.66666666665697,
      "v": 42
    },
    {
      "midi": 62,
      "hit": false,
      "t": 255999.9999999999,
      "d": 216.66666666665697,
      "v": 42
    },
    {
      "midi": 69,
      "hit": false,
      "t": 255999.9999999999,
      "d": 216.66666666665697,
      "v": 42
    },
    {
      "midi": 65,
      "hit": false,
      "t": 256013.33333333346,
      "d": 2840,
      "v": 127
    },
    {
      "midi": 65,
      "hit": false,
      "t": 256023.33333333346,
      "d": 2840,
      "v": 127
    },
    {
      "midi": 53,
      "hit": false,
      "t": 256599.9999999999,
      "d": 2130,
      "v": 62
    },
    {
      "midi": 60,
      "hit": false,
      "t": 256599.9999999999,
      "d": 2130,
      "v": 62
    },
    {
      "midi": 62,
      "hit": false,
      "t": 256599.9999999999,
      "d": 2130,
      "v": 62
    },
    {
      "midi": 69,
      "hit": false,
      "t": 256599.9999999999,
      "d": 2130,
      "v": 62
    },
    {
      "midi": 64,
      "hit": false,
      "t": 258813.33333333346,
      "d": 270,
      "v": 127
    },
    {
      "midi": 64,
      "hit": false,
      "t": 258823.33333333346,
      "d": 270,
      "v": 127
    },
    {
      "midi": 67,
      "hit": false,
      "t": 259223.33333333346,
      "d": 390,
      "v": 127
    },
    {
      "midi": 67,
      "hit": false,
      "t": 259233.33333333346,
      "d": 390,
      "v": 127
    },
    {
      "midi": 66,
      "hit": false,
      "t": 259613.33333333346,
      "d": 226.66666666665697,
      "v": 127
    },
    {
      "midi": 66,
      "hit": false,
      "t": 259623.33333333346,
      "d": 226.66666666665697,
      "v": 127
    },
    {
      "midi": 65,
      "hit": false,
      "t": 259853.33333333346,
      "d": 2176.666666666657,
      "v": 127
    },
    {
      "midi": 65,
      "hit": false,
      "t": 259863.33333333346,
      "d": 2176.666666666657,
      "v": 127
    },
    {
      "midi": 84,
      "hit": false,
      "t": 260799.9999999999,
      "d": 1536.666666666657,
      "v": 63
    },
    {
      "midi": 77,
      "hit": false,
      "t": 260999.9999999999,
      "d": 1259.999999999971,
      "v": 53
    },
    {
      "midi": 74,
      "hit": false,
      "t": 261199.9999999999,
      "d": 1086.666666666657,
      "v": 59
    },
    {
      "midi": 68,
      "hit": false,
      "t": 261399.9999999999,
      "d": 896.666666666657,
      "v": 48
    },
    {
      "midi": 60,
      "hit": false,
      "t": 261799.9999999999,
      "d": 543.333333333343,
      "v": 52
    },
    {
      "midi": 60,
      "hit": false,
      "t": 262023.33333333346,
      "d": 223.33333333328483,
      "v": 127
    },
    {
      "midi": 60,
      "hit": false,
      "t": 262033.33333333346,
      "d": 223.33333333328483,
      "v": 127
    },
    {
      "midi": 62,
      "hit": false,
      "t": 262233.33333333343,
      "d": 243.33333333331393,
      "v": 127
    },
    {
      "midi": 62,
      "hit": false,
      "t": 262243.33333333343,
      "d": 243.33333333331393,
      "v": 127
    },
    {
      "midi": 55,
      "hit": false,
      "t": 262399.99999999994,
      "d": 646.6666666666861,
      "v": 68
    },
    {
      "midi": 62,
      "hit": false,
      "t": 262399.99999999994,
      "d": 646.6666666666861,
      "v": 68
    },
    {
      "midi": 64,
      "hit": false,
      "t": 262399.99999999994,
      "d": 646.6666666666861,
      "v": 68
    },
    {
      "midi": 71,
      "hit": false,
      "t": 262399.99999999994,
      "d": 646.6666666666861,
      "v": 68
    },
    {
      "midi": 64,
      "hit": false,
      "t": 262450.00000000006,
      "d": 193.33333333337214,
      "v": 127
    },
    {
      "midi": 64,
      "hit": false,
      "t": 262460.00000000006,
      "d": 193.33333333337214,
      "v": 127
    },
    {
      "midi": 64,
      "hit": false,
      "t": 262746.66666666674,
      "d": 153.33333333331393,
      "v": 127
    },
    {
      "midi": 64,
      "hit": false,
      "t": 262756.66666666674,
      "d": 153.33333333331393,
      "v": 127
    },
    {
      "midi": 64,
      "hit": false,
      "t": 263000.00000000006,
      "d": 176.66666666668607,
      "v": 127
    },
    {
      "midi": 64,
      "hit": false,
      "t": 263010.00000000006,
      "d": 176.66666666668607,
      "v": 127
    },
    {
      "midi": 55,
      "hit": false,
      "t": 263199.99999999994,
      "d": 646.6666666666861,
      "v": 68
    },
    {
      "midi": 61,
      "hit": false,
      "t": 263199.99999999994,
      "d": 646.6666666666861,
      "v": 68
    },
    {
      "midi": 64,
      "hit": false,
      "t": 263199.99999999994,
      "d": 646.6666666666861,
      "v": 68
    },
    {
      "midi": 69,
      "hit": false,
      "t": 263199.99999999994,
      "d": 646.6666666666861,
      "v": 68
    },
    {
      "midi": 65,
      "hit": false,
      "t": 263253.33333333343,
      "d": 170,
      "v": 127
    },
    {
      "midi": 65,
      "hit": false,
      "t": 263263.33333333343,
      "d": 170,
      "v": 127
    },
    {
      "midi": 65,
      "hit": false,
      "t": 263516.66666666674,
      "d": 170,
      "v": 127
    },
    {
      "midi": 65,
      "hit": false,
      "t": 263526.66666666674,
      "d": 170,
      "v": 127
    },
    {
      "midi": 65,
      "hit": false,
      "t": 263770.00000000006,
      "d": 236.66666666668607,
      "v": 127
    },
    {
      "midi": 65,
      "hit": false,
      "t": 263780.00000000006,
      "d": 236.66666666668607,
      "v": 127
    },
    {
      "midi": 62,
      "hit": false,
      "t": 264036.66666666674,
      "d": 176.66666666668607,
      "v": 127
    },
    {
      "midi": 62,
      "hit": false,
      "t": 264046.66666666674,
      "d": 176.66666666668607,
      "v": 127
    },
    {
      "midi": 53,
      "hit": false,
      "t": 264199.99999999994,
      "d": 470,
      "v": 70
    },
    {
      "midi": 57,
      "hit": false,
      "t": 264199.99999999994,
      "d": 470,
      "v": 70
    },
    {
      "midi": 60,
      "hit": false,
      "t": 264199.99999999994,
      "d": 470,
      "v": 70
    },
    {
      "midi": 64,
      "hit": false,
      "t": 264199.99999999994,
      "d": 470,
      "v": 70
    },
    {
      "midi": 62,
      "hit": false,
      "t": 264326.66666666674,
      "d": 153.33333333331393,
      "v": 127
    },
    {
      "midi": 62,
      "hit": false,
      "t": 264336.66666666674,
      "d": 153.33333333331393,
      "v": 127
    },
    {
      "midi": 62,
      "hit": false,
      "t": 264586.66666666674,
      "d": 163.33333333331393,
      "v": 127
    },
    {
      "midi": 62,
      "hit": false,
      "t": 264596.66666666674,
      "d": 163.33333333331393,
      "v": 127
    },
    {
      "midi": 53,
      "hit": false,
      "t": 264799.99999999994,
      "d": 646.6666666666861,
      "v": 68
    },
    {
      "midi": 57,
      "hit": false,
      "t": 264799.99999999994,
      "d": 646.6666666666861,
      "v": 68
    },
    {
      "midi": 59,
      "hit": false,
      "t": 264799.99999999994,
      "d": 646.6666666666861,
      "v": 68
    },
    {
      "midi": 64,
      "hit": false,
      "t": 264799.99999999994,
      "d": 646.6666666666861,
      "v": 68
    },
    {
      "midi": 64,
      "hit": false,
      "t": 264833.3333333334,
      "d": 186.66666666668607,
      "v": 127
    },
    {
      "midi": 64,
      "hit": false,
      "t": 264843.3333333334,
      "d": 186.66666666668607,
      "v": 127
    },
    {
      "midi": 64,
      "hit": false,
      "t": 265120.00000000006,
      "d": 143.33333333331393,
      "v": 127
    },
    {
      "midi": 64,
      "hit": false,
      "t": 265130.00000000006,
      "d": 143.33333333331393,
      "v": 127
    },
    {
      "midi": 64,
      "hit": false,
      "t": 265356.6666666667,
      "d": 166.66666666668607,
      "v": 127
    },
    {
      "midi": 64,
      "hit": false,
      "t": 265366.6666666667,
      "d": 166.66666666668607,
      "v": 127
    },
    {
      "midi": 52,
      "hit": false,
      "t": 265599.99999999994,
      "d": 1360,
      "v": 60
    },
    {
      "midi": 55,
      "hit": false,
      "t": 265599.99999999994,
      "d": 1360,
      "v": 60
    },
    {
      "midi": 57,
      "hit": false,
      "t": 265599.99999999994,
      "d": 1360,
      "v": 60
    },
    {
      "midi": 60,
      "hit": false,
      "t": 265599.99999999994,
      "d": 1360,
      "v": 60
    },
    {
      "midi": 60,
      "hit": false,
      "t": 265626.6666666667,
      "d": 2713.333333333314,
      "v": 127
    },
    {
      "midi": 60,
      "hit": false,
      "t": 265636.6666666667,
      "d": 2713.333333333314,
      "v": 127
    },
    {
      "midi": 53,
      "hit": false,
      "t": 267199.99999999994,
      "d": 646.6666666666861,
      "v": 68
    },
    {
      "midi": 57,
      "hit": false,
      "t": 267199.99999999994,
      "d": 646.6666666666861,
      "v": 68
    },
    {
      "midi": 60,
      "hit": false,
      "t": 267199.99999999994,
      "d": 646.6666666666861,
      "v": 68
    },
    {
      "midi": 62,
      "hit": false,
      "t": 267199.99999999994,
      "d": 646.6666666666861,
      "v": 68
    },
    {
      "midi": 53,
      "hit": false,
      "t": 268199.99999999994,
      "d": 470,
      "v": 70
    },
    {
      "midi": 57,
      "hit": false,
      "t": 268199.99999999994,
      "d": 470,
      "v": 70
    },
    {
      "midi": 59,
      "hit": false,
      "t": 268199.99999999994,
      "d": 470,
      "v": 70
    },
    {
      "midi": 64,
      "hit": false,
      "t": 268199.99999999994,
      "d": 470,
      "v": 70
    },
    {
      "midi": 52,
      "hit": false,
      "t": 268799.99999999994,
      "d": 176.66666666668607,
      "v": 68
    },
    {
      "midi": 57,
      "hit": false,
      "t": 268799.99999999994,
      "d": 176.66666666668607,
      "v": 68
    },
    {
      "midi": 62,
      "hit": false,
      "t": 268799.99999999994,
      "d": 176.66666666668607,
      "v": 68
    },
    {
      "midi": 67,
      "hit": false,
      "t": 268799.99999999994,
      "d": 176.66666666668607,
      "v": 68
    },
    {
      "midi": 52,
      "hit": false,
      "t": 269199.99999999994,
      "d": 206.66666666668607,
      "v": 93
    },
    {
      "midi": 57,
      "hit": false,
      "t": 269199.99999999994,
      "d": 206.66666666668607,
      "v": 93
    },
    {
      "midi": 62,
      "hit": false,
      "t": 269199.99999999994,
      "d": 206.66666666668607,
      "v": 93
    },
    {
      "midi": 67,
      "hit": false,
      "t": 269199.99999999994,
      "d": 206.66666666668607,
      "v": 93
    },
    {
      "midi": 64,
      "hit": false,
      "t": 269599.99999999994,
      "d": 176.66666666668607,
      "v": 78
    },
    {
      "midi": 67,
      "hit": false,
      "t": 269799.99999999994,
      "d": 116.66666666668607,
      "v": 64
    },
    {
      "midi": 69,
      "hit": false,
      "t": 269999.99999999994,
      "d": 136.66666666668607,
      "v": 78
    },
    {
      "midi": 74,
      "hit": false,
      "t": 270199.99999999994,
      "d": 96.66666666668607,
      "v": 87
    },
    {
      "midi": 52,
      "hit": false,
      "t": 270399.99999999994,
      "d": 836.6666666666861,
      "v": 80
    },
    {
      "midi": 57,
      "hit": false,
      "t": 270399.99999999994,
      "d": 836.6666666666861,
      "v": 80
    },
    {
      "midi": 62,
      "hit": false,
      "t": 270399.99999999994,
      "d": 836.6666666666861,
      "v": 80
    },
    {
      "midi": 67,
      "hit": false,
      "t": 270399.99999999994,
      "d": 836.6666666666861,
      "v": 80
    }
  ]
}