{
  "jsonPath": "Rock/Post-Post-Hardcore/Prospekt/electrofly.json",
  "path": "Rock\\Post-Post-Hardcore\\Prospekt\\Electrofly.mid",
  "name": "Electrofly",
  "difficulty": "Intermediate",
  "bpm": 129.00174152351056,
  "notes": [
    {
      "midi": 57,
      "hit": false,
      "t": 2674.3825,
      "d": 101.74281250000013,
      "v": 99
    },
    {
      "midi": 61,
      "hit": false,
      "t": 2790.6600000000003,
      "d": 140.50197916666684,
      "v": 97
    },
    {
      "midi": 57,
      "hit": false,
      "t": 2906.9375000000005,
      "d": 118.21545833333357,
      "v": 98
    },
    {
      "midi": 62,
      "hit": false,
      "t": 3023.2150000000006,
      "d": 219.95827083333324,
      "v": 94
    },
    {
      "midi": 64,
      "hit": false,
      "t": 3255.7700000000004,
      "d": 188.95093749999978,
      "v": 97
    },
    {
      "midi": 57,
      "hit": false,
      "t": 3720.88,
      "d": 155.03666666666686,
      "v": 94
    },
    {
      "midi": 57,
      "hit": false,
      "t": 4069.7125000000005,
      "d": 198.64072916666646,
      "v": 97
    },
    {
      "midi": 54,
      "hit": false,
      "t": 6395.262500000001,
      "d": 101.74281249999967,
      "v": 99
    },
    {
      "midi": 57,
      "hit": false,
      "t": 6511.54,
      "d": 140.5019791666664,
      "v": 97
    },
    {
      "midi": 54,
      "hit": false,
      "t": 6627.8175,
      "d": 118.21545833333221,
      "v": 98
    },
    {
      "midi": 59,
      "hit": false,
      "t": 6744.094999999999,
      "d": 219.9582708333328,
      "v": 94
    },
    {
      "midi": 61,
      "hit": false,
      "t": 6976.649999999999,
      "d": 188.95093749999978,
      "v": 97
    },
    {
      "midi": 54,
      "hit": false,
      "t": 7441.759999999998,
      "d": 155.03666666666686,
      "v": 94
    },
    {
      "midi": 54,
      "hit": false,
      "t": 7790.592499999999,
      "d": 198.64072916666646,
      "v": 97
    },
    {
      "midi": 62,
      "hit": false,
      "t": 10116.142499999998,
      "d": 101.74281250000058,
      "v": 99
    },
    {
      "midi": 66,
      "hit": false,
      "t": 10232.419999999998,
      "d": 140.5019791666673,
      "v": 97
    },
    {
      "midi": 62,
      "hit": false,
      "t": 10348.697499999998,
      "d": 118.21545833333403,
      "v": 98
    },
    {
      "midi": 68,
      "hit": false,
      "t": 10464.974999999999,
      "d": 219.9582708333346,
      "v": 94
    },
    {
      "midi": 69,
      "hit": false,
      "t": 10697.53,
      "d": 188.95093749999978,
      "v": 97
    },
    {
      "midi": 62,
      "hit": false,
      "t": 11162.640000000001,
      "d": 155.03666666666686,
      "v": 94
    },
    {
      "midi": 62,
      "hit": false,
      "t": 11511.472500000002,
      "d": 198.64072916666737,
      "v": 97
    },
    {
      "midi": 64,
      "hit": false,
      "t": 13837.022500000003,
      "d": 101.74281250000058,
      "v": 99
    },
    {
      "midi": 68,
      "hit": false,
      "t": 13953.300000000003,
      "d": 140.5019791666673,
      "v": 97
    },
    {
      "midi": 64,
      "hit": false,
      "t": 14069.577500000003,
      "d": 118.21545833333403,
      "v": 98
    },
    {
      "midi": 69,
      "hit": false,
      "t": 14185.855000000003,
      "d": 219.9582708333346,
      "v": 94
    },
    {
      "midi": 71,
      "hit": false,
      "t": 14418.410000000005,
      "d": 188.95093749999978,
      "v": 97
    },
    {
      "midi": 64,
      "hit": false,
      "t": 14883.520000000006,
      "d": 155.03666666666686,
      "v": 94
    },
    {
      "midi": 64,
      "hit": false,
      "t": 15232.352500000006,
      "d": 198.64072916666737,
      "v": 97
    },
    {
      "midi": 69,
      "hit": false,
      "t": 24185.72,
      "d": 1159.8680625000015,
      "v": 1
    },
    {
      "midi": 71,
      "hit": false,
      "t": 25348.495000000003,
      "d": 229.64806250000038,
      "v": 1
    },
    {
      "midi": 73,
      "hit": false,
      "t": 25581.050000000003,
      "d": 229.64806250000038,
      "v": 1
    },
    {
      "midi": 69,
      "hit": false,
      "t": 25813.605000000003,
      "d": 694.758062500001,
      "v": 1
    },
    {
      "midi": 69,
      "hit": false,
      "t": 27906.600000000006,
      "d": 927.3130625000013,
      "v": 1
    },
    {
      "midi": 73,
      "hit": false,
      "t": 28836.820000000007,
      "d": 462.20306250000067,
      "v": 1
    },
    {
      "midi": 71,
      "hit": false,
      "t": 29301.930000000008,
      "d": 229.64806250000038,
      "v": 1
    },
    {
      "midi": 69,
      "hit": false,
      "t": 29534.485000000008,
      "d": 694.758062500001,
      "v": 1
    },
    {
      "midi": 61,
      "hit": false,
      "t": 32441.422500000008,
      "d": 103.68077083333264,
      "v": 90
    },
    {
      "midi": 61,
      "hit": false,
      "t": 32557.700000000008,
      "d": 103.68077083333264,
      "v": 92
    },
    {
      "midi": 62,
      "hit": false,
      "t": 32673.977500000008,
      "d": 103.68077083333628,
      "v": 93
    },
    {
      "midi": 62,
      "hit": false,
      "t": 32790.25500000001,
      "d": 103.68077083333628,
      "v": 94
    },
    {
      "midi": 64,
      "hit": false,
      "t": 32906.532500000016,
      "d": 103.68077083333628,
      "v": 91
    },
    {
      "midi": 64,
      "hit": false,
      "t": 33022.81000000002,
      "d": 103.68077083333628,
      "v": 91
    },
    {
      "midi": 61,
      "hit": false,
      "t": 33139.08750000002,
      "d": 103.68077083333628,
      "v": 95
    },
    {
      "midi": 64,
      "hit": false,
      "t": 33255.36500000003,
      "d": 103.68077083333628,
      "v": 92
    },
    {
      "midi": 61,
      "hit": false,
      "t": 34301.86250000003,
      "d": 103.68077083333628,
      "v": 90
    },
    {
      "midi": 61,
      "hit": false,
      "t": 34418.140000000036,
      "d": 103.68077083333628,
      "v": 92
    },
    {
      "midi": 62,
      "hit": false,
      "t": 34534.41750000004,
      "d": 103.68077083333628,
      "v": 93
    },
    {
      "midi": 62,
      "hit": false,
      "t": 34650.69500000004,
      "d": 103.68077083333628,
      "v": 94
    },
    {
      "midi": 64,
      "hit": false,
      "t": 34766.97250000005,
      "d": 103.68077083333628,
      "v": 91
    },
    {
      "midi": 64,
      "hit": false,
      "t": 34883.25000000005,
      "d": 103.68077083333628,
      "v": 91
    },
    {
      "midi": 61,
      "hit": false,
      "t": 34999.527500000055,
      "d": 103.68077083333628,
      "v": 95
    },
    {
      "midi": 66,
      "hit": false,
      "t": 35115.80500000006,
      "d": 103.68077083333628,
      "v": 92
    },
    {
      "midi": 57,
      "hit": false,
      "t": 36162.30250000006,
      "d": 103.68077083333628,
      "v": 90
    },
    {
      "midi": 57,
      "hit": false,
      "t": 36278.58000000007,
      "d": 103.68077083333628,
      "v": 92
    },
    {
      "midi": 59,
      "hit": false,
      "t": 36394.85750000007,
      "d": 103.68077083333628,
      "v": 93
    },
    {
      "midi": 59,
      "hit": false,
      "t": 36511.135000000075,
      "d": 103.68077083333628,
      "v": 94
    },
    {
      "midi": 61,
      "hit": false,
      "t": 36627.41250000008,
      "d": 103.68077083333628,
      "v": 91
    },
    {
      "midi": 61,
      "hit": false,
      "t": 36743.69000000008,
      "d": 103.68077083333628,
      "v": 91
    },
    {
      "midi": 57,
      "hit": false,
      "t": 36859.967500000086,
      "d": 103.68077083333628,
      "v": 95
    },
    {
      "midi": 61,
      "hit": false,
      "t": 36976.24500000009,
      "d": 103.68077083333628,
      "v": 92
    },
    {
      "midi": 57,
      "hit": false,
      "t": 38022.742500000095,
      "d": 103.68077083333628,
      "v": 90
    },
    {
      "midi": 57,
      "hit": false,
      "t": 38139.0200000001,
      "d": 103.68077083333628,
      "v": 92
    },
    {
      "midi": 59,
      "hit": false,
      "t": 38255.2975000001,
      "d": 103.68077083333628,
      "v": 93
    },
    {
      "midi": 59,
      "hit": false,
      "t": 38371.575000000106,
      "d": 103.68077083333628,
      "v": 94
    },
    {
      "midi": 61,
      "hit": false,
      "t": 38487.85250000011,
      "d": 103.68077083333628,
      "v": 91
    },
    {
      "midi": 61,
      "hit": false,
      "t": 38604.130000000114,
      "d": 103.68077083333628,
      "v": 91
    },
    {
      "midi": 57,
      "hit": false,
      "t": 38720.40750000012,
      "d": 103.68077083333628,
      "v": 95
    },
    {
      "midi": 66,
      "hit": false,
      "t": 38836.68500000012,
      "d": 103.68077083333628,
      "v": 92
    },
    {
      "midi": 69,
      "hit": false,
      "t": 39069.240000000005,
      "d": 1159.868062499998,
      "v": 1
    },
    {
      "midi": 66,
      "hit": false,
      "t": 39883.182500000126,
      "d": 103.68077083333628,
      "v": 90
    },
    {
      "midi": 66,
      "hit": false,
      "t": 39999.46000000013,
      "d": 103.68077083333628,
      "v": 92
    },
    {
      "midi": 68,
      "hit": false,
      "t": 40115.737500000134,
      "d": 103.68077083333628,
      "v": 93
    },
    {
      "midi": 68,
      "hit": false,
      "t": 40232.01500000001,
      "d": 229.64806249999674,
      "v": 1
    },
    {
      "midi": 68,
      "hit": false,
      "t": 40232.01500000014,
      "d": 103.68077083333628,
      "v": 93
    },
    {
      "midi": 69,
      "hit": false,
      "t": 40348.29250000014,
      "d": 103.68077083333628,
      "v": 91
    },
    {
      "midi": 66,
      "hit": false,
      "t": 40464.57000000001,
      "d": 229.64806249999674,
      "v": 1
    },
    {
      "midi": 69,
      "hit": false,
      "t": 40464.570000000145,
      "d": 103.68077083333628,
      "v": 91
    },
    {
      "midi": 66,
      "hit": false,
      "t": 40580.84750000015,
      "d": 103.68077083333628,
      "v": 95
    },
    {
      "midi": 69,
      "hit": false,
      "t": 40697.12500000001,
      "d": 462.20306249999703,
      "v": 1
    },
    {
      "midi": 74,
      "hit": false,
      "t": 40697.12500000015,
      "d": 103.68077083333628,
      "v": 92
    },
    {
      "midi": 74,
      "hit": false,
      "t": 41162.23500000001,
      "d": 1624.9780624999985,
      "v": 1
    },
    {
      "midi": 66,
      "hit": false,
      "t": 41743.62250000016,
      "d": 103.68077083333628,
      "v": 90
    },
    {
      "midi": 66,
      "hit": false,
      "t": 41859.90000000016,
      "d": 103.68077083333628,
      "v": 92
    },
    {
      "midi": 68,
      "hit": false,
      "t": 41976.177500000165,
      "d": 103.68077083333628,
      "v": 93
    },
    {
      "midi": 68,
      "hit": false,
      "t": 42092.45500000017,
      "d": 103.68077083333628,
      "v": 93
    },
    {
      "midi": 69,
      "hit": false,
      "t": 42208.73250000017,
      "d": 103.68077083333628,
      "v": 91
    },
    {
      "midi": 69,
      "hit": false,
      "t": 42325.01000000018,
      "d": 103.68077083333628,
      "v": 91
    },
    {
      "midi": 66,
      "hit": false,
      "t": 42441.28750000018,
      "d": 103.68077083333628,
      "v": 95
    },
    {
      "midi": 69,
      "hit": false,
      "t": 42557.565000000184,
      "d": 103.68077083333628,
      "v": 92
    },
    {
      "midi": 71,
      "hit": false,
      "t": 42790.12000000001,
      "d": 1159.868062499998,
      "v": 1
    },
    {
      "midi": 56,
      "hit": false,
      "t": 43604.06250000019,
      "d": 103.68077083333628,
      "v": 90
    },
    {
      "midi": 56,
      "hit": false,
      "t": 43720.34000000019,
      "d": 103.68077083333628,
      "v": 92
    },
    {
      "midi": 57,
      "hit": false,
      "t": 43836.6175000002,
      "d": 103.68077083333628,
      "v": 93
    },
    {
      "midi": 68,
      "hit": false,
      "t": 43952.89500000001,
      "d": 462.20306249999703,
      "v": 1
    },
    {
      "midi": 57,
      "hit": false,
      "t": 43952.8950000002,
      "d": 103.68077083333628,
      "v": 94
    },
    {
      "midi": 59,
      "hit": false,
      "t": 44069.172500000204,
      "d": 103.68077083333628,
      "v": 91
    },
    {
      "midi": 59,
      "hit": false,
      "t": 44185.45000000021,
      "d": 103.68077083333628,
      "v": 91
    },
    {
      "midi": 56,
      "hit": false,
      "t": 44301.72750000021,
      "d": 103.68077083333628,
      "v": 95
    },
    {
      "midi": 71,
      "hit": false,
      "t": 44418.00500000001,
      "d": 694.7580624999973,
      "v": 1
    },
    {
      "midi": 64,
      "hit": false,
      "t": 44418.005000000216,
      "d": 103.68077083333628,
      "v": 92
    },
    {
      "midi": 76,
      "hit": false,
      "t": 45115.67000000001,
      "d": 1159.868062499998,
      "v": 1
    },
    {
      "midi": 61,
      "hit": false,
      "t": 45464.50250000022,
      "d": 103.68077083333628,
      "v": 90
    },
    {
      "midi": 61,
      "hit": false,
      "t": 45580.780000000224,
      "d": 103.68077083333628,
      "v": 92
    },
    {
      "midi": 62,
      "hit": false,
      "t": 45697.05750000023,
      "d": 103.68077083333628,
      "v": 93
    },
    {
      "midi": 62,
      "hit": false,
      "t": 45813.33500000023,
      "d": 103.68077083333628,
      "v": 94
    },
    {
      "midi": 64,
      "hit": false,
      "t": 45929.612500000236,
      "d": 103.68077083333628,
      "v": 91
    },
    {
      "midi": 64,
      "hit": false,
      "t": 46045.89000000024,
      "d": 103.68077083333628,
      "v": 91
    },
    {
      "midi": 61,
      "hit": false,
      "t": 46162.16750000024,
      "d": 103.68077083333628,
      "v": 95
    },
    {
      "midi": 74,
      "hit": false,
      "t": 46278.445000000014,
      "d": 229.64806249999674,
      "v": 1
    },
    {
      "midi": 69,
      "hit": false,
      "t": 46278.44500000025,
      "d": 103.68077083333628,
      "v": 92
    },
    {
      "midi": 61,
      "hit": false,
      "t": 46511.000000000015,
      "d": 927.3130624999976,
      "v": 1
    },
    {
      "midi": 73,
      "hit": false,
      "t": 46511.000000000015,
      "d": 927.3130624999976,
      "v": 1
    },
    {
      "midi": 57,
      "hit": false,
      "t": 47324.94250000025,
      "d": 101.74281250000058,
      "v": 99
    },
    {
      "midi": 61,
      "hit": false,
      "t": 47441.220000000016,
      "d": 462.20306249999703,
      "v": 1
    },
    {
      "midi": 61,
      "hit": false,
      "t": 47441.220000000256,
      "d": 140.50197916666366,
      "v": 97
    },
    {
      "midi": 57,
      "hit": false,
      "t": 47557.49750000025,
      "d": 118.21545833333948,
      "v": 98
    },
    {
      "midi": 62,
      "hit": false,
      "t": 47673.775000000256,
      "d": 219.9582708333328,
      "v": 94
    },
    {
      "midi": 59,
      "hit": false,
      "t": 47906.330000000016,
      "d": 229.64806249999674,
      "v": 1
    },
    {
      "midi": 64,
      "hit": false,
      "t": 47906.33000000026,
      "d": 188.95093749999796,
      "v": 97
    },
    {
      "midi": 61,
      "hit": false,
      "t": 48138.88500000002,
      "d": 927.3130624999976,
      "v": 1
    },
    {
      "midi": 57,
      "hit": false,
      "t": 48371.44000000026,
      "d": 155.03666666666686,
      "v": 94
    },
    {
      "midi": 57,
      "hit": false,
      "t": 48720.272500000254,
      "d": 198.6407291666692,
      "v": 97
    },
    {
      "midi": 57,
      "hit": false,
      "t": 49069.10500000002,
      "d": 229.64806249999674,
      "v": 1
    },
    {
      "midi": 64,
      "hit": false,
      "t": 49301.66000000002,
      "d": 1392.4230624999982,
      "v": 1
    },
    {
      "midi": 62,
      "hit": false,
      "t": 50696.99000000002,
      "d": 694.7580624999973,
      "v": 1
    },
    {
      "midi": 56,
      "hit": false,
      "t": 51045.82250000026,
      "d": 101.74281250000058,
      "v": 99
    },
    {
      "midi": 59,
      "hit": false,
      "t": 51162.10000000026,
      "d": 140.50197916666366,
      "v": 97
    },
    {
      "midi": 56,
      "hit": false,
      "t": 51278.37750000026,
      "d": 118.21545833333948,
      "v": 98
    },
    {
      "midi": 64,
      "hit": false,
      "t": 51394.65500000002,
      "d": 462.20306249999703,
      "v": 1
    },
    {
      "midi": 64,
      "hit": false,
      "t": 51394.65500000026,
      "d": 219.9582708333328,
      "v": 94
    },
    {
      "midi": 56,
      "hit": false,
      "t": 51627.21000000026,
      "d": 188.95093749999796,
      "v": 97
    },
    {
      "midi": 62,
      "hit": false,
      "t": 51859.76500000002,
      "d": 927.3130624999976,
      "v": 1
    },
    {
      "midi": 64,
      "hit": false,
      "t": 51859.76500000026,
      "d": 155.03666666666686,
      "v": 94
    },
    {
      "midi": 64,
      "hit": false,
      "t": 52789.98500000002,
      "d": 1624.9780624999985,
      "v": 1
    },
    {
      "midi": 62,
      "hit": false,
      "t": 54417.870000000024,
      "d": 694.7580624999973,
      "v": 1
    },
    {
      "midi": 62,
      "hit": false,
      "t": 54766.70250000026,
      "d": 101.74281250000058,
      "v": 99
    },
    {
      "midi": 66,
      "hit": false,
      "t": 54882.980000000265,
      "d": 140.50197916666366,
      "v": 97
    },
    {
      "midi": 62,
      "hit": false,
      "t": 54999.25750000026,
      "d": 118.21545833333948,
      "v": 98
    },
    {
      "midi": 61,
      "hit": false,
      "t": 55115.535000000025,
      "d": 462.20306249999703,
      "v": 1
    },
    {
      "midi": 68,
      "hit": false,
      "t": 55115.535000000265,
      "d": 219.9582708333328,
      "v": 94
    },
    {
      "midi": 69,
      "hit": false,
      "t": 55348.090000000266,
      "d": 188.95093749999796,
      "v": 97
    },
    {
      "midi": 57,
      "hit": false,
      "t": 55580.645000000026,
      "d": 927.3130624999976,
      "v": 1
    },
    {
      "midi": 62,
      "hit": false,
      "t": 55813.200000000266,
      "d": 155.03666666666686,
      "v": 94
    },
    {
      "midi": 62,
      "hit": false,
      "t": 56162.03250000026,
      "d": 198.6407291666692,
      "v": 97
    },
    {
      "midi": 62,
      "hit": false,
      "t": 56510.86500000003,
      "d": 1159.868062499998,
      "v": 1
    },
    {
      "midi": 61,
      "hit": false,
      "t": 57673.64000000003,
      "d": 462.20306249999703,
      "v": 1
    },
    {
      "midi": 64,
      "hit": false,
      "t": 58138.75000000003,
      "d": 927.3130624999976,
      "v": 1
    },
    {
      "midi": 57,
      "hit": false,
      "t": 58487.582500000266,
      "d": 101.74281250000058,
      "v": 99
    },
    {
      "midi": 61,
      "hit": false,
      "t": 58603.86000000027,
      "d": 140.50197916666366,
      "v": 97
    },
    {
      "midi": 57,
      "hit": false,
      "t": 58720.137500000266,
      "d": 118.21545833333948,
      "v": 98
    },
    {
      "midi": 62,
      "hit": false,
      "t": 58836.41500000027,
      "d": 219.9582708333328,
      "v": 94
    },
    {
      "midi": 66,
      "hit": false,
      "t": 59068.97000000003,
      "d": 229.64806249999674,
      "v": 1
    },
    {
      "midi": 64,
      "hit": false,
      "t": 59068.97000000027,
      "d": 188.95093749999796,
      "v": 97
    },
    {
      "midi": 64,
      "hit": false,
      "t": 59301.52500000003,
      "d": 316.8561875000014,
      "v": 1
    },
    {
      "midi": 59,
      "hit": false,
      "t": 59534.08000000003,
      "d": 462.2030625000043,
      "v": 1
    },
    {
      "midi": 56,
      "hit": false,
      "t": 59999.19000000004,
      "d": 462.20306249999703,
      "v": 1
    },
    {
      "midi": 76,
      "hit": false,
      "t": 59999.19000000004,
      "d": 462.20306249999703,
      "v": 1
    },
    {
      "midi": 64,
      "hit": false,
      "t": 60464.30000000004,
      "d": 694.7580624999973,
      "v": 1
    },
    {
      "midi": 76,
      "hit": false,
      "t": 60464.30000000004,
      "d": 694.7580624999973,
      "v": 1
    },
    {
      "midi": 62,
      "hit": false,
      "t": 61161.96500000004,
      "d": 229.64806249999674,
      "v": 1
    },
    {
      "midi": 74,
      "hit": false,
      "t": 61161.96500000004,
      "d": 229.64806249999674,
      "v": 1
    },
    {
      "midi": 61,
      "hit": false,
      "t": 61394.52000000004,
      "d": 927.3130624999976,
      "v": 1
    },
    {
      "midi": 73,
      "hit": false,
      "t": 61394.52000000004,
      "d": 927.3130624999976,
      "v": 1
    },
    {
      "midi": 57,
      "hit": false,
      "t": 62208.46250000027,
      "d": 101.74281250000058,
      "v": 99
    },
    {
      "midi": 61,
      "hit": false,
      "t": 62324.74000000004,
      "d": 462.20306249999703,
      "v": 1
    },
    {
      "midi": 61,
      "hit": false,
      "t": 62324.740000000274,
      "d": 140.50197916666366,
      "v": 97
    },
    {
      "midi": 57,
      "hit": false,
      "t": 62441.01750000027,
      "d": 118.21545833333948,
      "v": 98
    },
    {
      "midi": 62,
      "hit": false,
      "t": 62557.295000000275,
      "d": 219.9582708333328,
      "v": 94
    },
    {
      "midi": 59,
      "hit": false,
      "t": 62789.85000000004,
      "d": 229.64806249999674,
      "v": 1
    },
    {
      "midi": 64,
      "hit": false,
      "t": 62789.850000000275,
      "d": 188.95093749999796,
      "v": 97
    },
    {
      "midi": 61,
      "hit": false,
      "t": 63022.40500000004,
      "d": 927.3130624999976,
      "v": 1
    },
    {
      "midi": 57,
      "hit": false,
      "t": 63254.960000000276,
      "d": 155.03666666666686,
      "v": 94
    },
    {
      "midi": 57,
      "hit": false,
      "t": 63603.79250000027,
      "d": 198.6407291666692,
      "v": 97
    },
    {
      "midi": 57,
      "hit": false,
      "t": 63952.625000000044,
      "d": 229.64806249999674,
      "v": 1
    },
    {
      "midi": 64,
      "hit": false,
      "t": 64185.180000000044,
      "d": 1392.4230624999982,
      "v": 1
    },
    {
      "midi": 62,
      "hit": false,
      "t": 65580.51000000004,
      "d": 694.7580624999973,
      "v": 1
    },
    {
      "midi": 56,
      "hit": false,
      "t": 65929.34250000028,
      "d": 101.74281250000058,
      "v": 99
    },
    {
      "midi": 59,
      "hit": false,
      "t": 66045.62000000027,
      "d": 140.50197916665638,
      "v": 97
    },
    {
      "midi": 56,
      "hit": false,
      "t": 66161.89750000027,
      "d": 118.21545833333221,
      "v": 98
    },
    {
      "midi": 64,
      "hit": false,
      "t": 66278.17500000003,
      "d": 462.2030625000043,
      "v": 1
    },
    {
      "midi": 64,
      "hit": false,
      "t": 66278.17500000026,
      "d": 219.9582708333328,
      "v": 94
    },
    {
      "midi": 56,
      "hit": false,
      "t": 66510.73000000026,
      "d": 188.95093750000524,
      "v": 97
    },
    {
      "midi": 62,
      "hit": false,
      "t": 66743.28500000003,
      "d": 927.3130625000049,
      "v": 1
    },
    {
      "midi": 64,
      "hit": false,
      "t": 66743.28500000027,
      "d": 155.03666666666686,
      "v": 94
    },
    {
      "midi": 64,
      "hit": false,
      "t": 67673.50500000003,
      "d": 1624.9780624999985,
      "v": 1
    },
    {
      "midi": 62,
      "hit": false,
      "t": 69301.39000000003,
      "d": 694.7580624999973,
      "v": 1
    },
    {
      "midi": 62,
      "hit": false,
      "t": 69650.22250000027,
      "d": 101.74281250000058,
      "v": 99
    },
    {
      "midi": 66,
      "hit": false,
      "t": 69766.50000000026,
      "d": 140.50197916665638,
      "v": 97
    },
    {
      "midi": 62,
      "hit": false,
      "t": 69882.77750000026,
      "d": 118.21545833333221,
      "v": 98
    },
    {
      "midi": 61,
      "hit": false,
      "t": 69999.05500000002,
      "d": 462.2030625000043,
      "v": 1
    },
    {
      "midi": 68,
      "hit": false,
      "t": 69999.05500000025,
      "d": 219.9582708333328,
      "v": 94
    },
    {
      "midi": 69,
      "hit": false,
      "t": 70231.61000000025,
      "d": 188.95093750000524,
      "v": 97
    },
    {
      "midi": 57,
      "hit": false,
      "t": 70464.16500000002,
      "d": 927.3130625000049,
      "v": 1
    },
    {
      "midi": 62,
      "hit": false,
      "t": 70696.72000000025,
      "d": 155.03666666666686,
      "v": 94
    },
    {
      "midi": 62,
      "hit": false,
      "t": 71045.55250000025,
      "d": 198.6407291666692,
      "v": 97
    },
    {
      "midi": 62,
      "hit": false,
      "t": 71394.38500000002,
      "d": 1159.868062499998,
      "v": 1
    },
    {
      "midi": 61,
      "hit": false,
      "t": 72557.16000000002,
      "d": 462.2030625000043,
      "v": 1
    },
    {
      "midi": 64,
      "hit": false,
      "t": 73022.27000000002,
      "d": 927.3130625000049,
      "v": 1
    },
    {
      "midi": 57,
      "hit": false,
      "t": 73371.10250000026,
      "d": 101.74281250000058,
      "v": 99
    },
    {
      "midi": 61,
      "hit": false,
      "t": 73487.38000000025,
      "d": 140.50197916665638,
      "v": 97
    },
    {
      "midi": 57,
      "hit": false,
      "t": 73603.65750000025,
      "d": 118.21545833333221,
      "v": 98
    },
    {
      "midi": 62,
      "hit": false,
      "t": 73719.93500000025,
      "d": 219.9582708333328,
      "v": 94
    },
    {
      "midi": 66,
      "hit": false,
      "t": 73952.49000000002,
      "d": 229.64806249999674,
      "v": 1
    },
    {
      "midi": 64,
      "hit": false,
      "t": 73952.49000000024,
      "d": 188.95093750000524,
      "v": 97
    },
    {
      "midi": 64,
      "hit": false,
      "t": 74417.6,
      "d": 1.9379583333357004,
      "v": 1
    },
    {
      "midi": 59,
      "hit": false,
      "t": 74417.6,
      "d": 462.2030625000043,
      "v": 1
    },
    {
      "midi": 56,
      "hit": false,
      "t": 74882.71,
      "d": 927.3130625000049,
      "v": 1
    },
    {
      "midi": 59,
      "hit": false,
      "t": 74882.71,
      "d": 927.3130625000049,
      "v": 1
    },
    {
      "midi": 69,
      "hit": false,
      "t": 76278.04000000001,
      "d": 927.3130625000049,
      "v": 1
    },
    {
      "midi": 69,
      "hit": false,
      "t": 77208.26000000001,
      "d": 229.64806249999674,
      "v": 1
    },
    {
      "midi": 66,
      "hit": false,
      "t": 77440.815,
      "d": 229.64806249999674,
      "v": 1
    },
    {
      "midi": 64,
      "hit": false,
      "t": 77673.37,
      "d": 229.64806249999674,
      "v": 1
    },
    {
      "midi": 69,
      "hit": false,
      "t": 77905.92499999999,
      "d": 1392.4230625000055,
      "v": 1
    },
    {
      "midi": 66,
      "hit": false,
      "t": 79301.25499999999,
      "d": 462.2030625000043,
      "v": 1
    },
    {
      "midi": 68,
      "hit": false,
      "t": 79766.36499999999,
      "d": 229.64806249999674,
      "v": 1
    },
    {
      "midi": 69,
      "hit": false,
      "t": 79998.91999999998,
      "d": 1159.868062499998,
      "v": 1
    },
    {
      "midi": 68,
      "hit": false,
      "t": 81161.69499999998,
      "d": 229.64806249999674,
      "v": 1
    },
    {
      "midi": 66,
      "hit": false,
      "t": 81394.24999999997,
      "d": 229.64806249999674,
      "v": 1
    },
    {
      "midi": 69,
      "hit": false,
      "t": 81626.80499999996,
      "d": 3252.8630624999932,
      "v": 1
    },
    {
      "midi": 68,
      "hit": false,
      "t": 84882.57499999995,
      "d": 229.64806249999674,
      "v": 1
    },
    {
      "midi": 66,
      "hit": false,
      "t": 85115.12999999995,
      "d": 229.64806249999674,
      "v": 1
    },
    {
      "midi": 69,
      "hit": false,
      "t": 85347.68499999994,
      "d": 229.64806249999674,
      "v": 1
    },
    {
      "midi": 66,
      "hit": false,
      "t": 85580.23999999993,
      "d": 1392.4230625000055,
      "v": 1
    },
    {
      "midi": 69,
      "hit": false,
      "t": 86975.56999999993,
      "d": 1392.4230625000055,
      "v": 1
    },
    {
      "midi": 73,
      "hit": false,
      "t": 88370.89999999994,
      "d": 462.2030625000043,
      "v": 1
    },
    {
      "midi": 71,
      "hit": false,
      "t": 88836.00999999994,
      "d": 229.64806249999674,
      "v": 1
    },
    {
      "midi": 69,
      "hit": false,
      "t": 89068.56499999993,
      "d": 1857.533062500006,
      "v": 1
    },
    {
      "midi": 64,
      "hit": false,
      "t": 90929.00499999993,
      "d": 229.64806249999674,
      "v": 1
    },
    {
      "midi": 69,
      "hit": false,
      "t": 91161.55999999992,
      "d": 1159.868062499998,
      "v": 1
    },
    {
      "midi": 61,
      "hit": false,
      "t": 91975.50250000025,
      "d": 103.68077083333628,
      "v": 90
    },
    {
      "midi": 61,
      "hit": false,
      "t": 92091.78000000025,
      "d": 103.68077083333628,
      "v": 92
    },
    {
      "midi": 62,
      "hit": false,
      "t": 92208.05750000024,
      "d": 103.68077083333628,
      "v": 93
    },
    {
      "midi": 66,
      "hit": false,
      "t": 92324.33499999992,
      "d": 229.64806249999674,
      "v": 1
    },
    {
      "midi": 62,
      "hit": false,
      "t": 92324.33500000024,
      "d": 103.68077083333628,
      "v": 94
    },
    {
      "midi": 64,
      "hit": false,
      "t": 92440.61250000024,
      "d": 103.68077083333628,
      "v": 91
    },
    {
      "midi": 64,
      "hit": false,
      "t": 92556.88999999991,
      "d": 229.64806249999674,
      "v": 1
    },
    {
      "midi": 64,
      "hit": false,
      "t": 92556.89000000023,
      "d": 103.68077083333628,
      "v": 91
    },
    {
      "midi": 61,
      "hit": false,
      "t": 92673.16750000023,
      "d": 103.68077083333628,
      "v": 95
    },
    {
      "midi": 69,
      "hit": false,
      "t": 92789.4449999999,
      "d": 1392.4230625000055,
      "v": 1
    },
    {
      "midi": 64,
      "hit": false,
      "t": 92789.44500000023,
      "d": 103.68077083333628,
      "v": 92
    },
    {
      "midi": 61,
      "hit": false,
      "t": 93835.94250000022,
      "d": 103.68077083333628,
      "v": 90
    },
    {
      "midi": 61,
      "hit": false,
      "t": 93952.22000000022,
      "d": 103.68077083333628,
      "v": 92
    },
    {
      "midi": 62,
      "hit": false,
      "t": 94068.49750000022,
      "d": 103.68077083333628,
      "v": 93
    },
    {
      "midi": 66,
      "hit": false,
      "t": 94184.7749999999,
      "d": 462.2030625000043,
      "v": 1
    },
    {
      "midi": 62,
      "hit": false,
      "t": 94184.77500000021,
      "d": 103.68077083333628,
      "v": 94
    },
    {
      "midi": 64,
      "hit": false,
      "t": 94301.05250000021,
      "d": 103.68077083333628,
      "v": 91
    },
    {
      "midi": 64,
      "hit": false,
      "t": 94417.3300000002,
      "d": 103.68077083333628,
      "v": 91
    },
    {
      "midi": 61,
      "hit": false,
      "t": 94533.6075000002,
      "d": 103.68077083333628,
      "v": 95
    },
    {
      "midi": 68,
      "hit": false,
      "t": 94649.88499999991,
      "d": 229.64806249999674,
      "v": 1
    },
    {
      "midi": 66,
      "hit": false,
      "t": 94649.8850000002,
      "d": 103.68077083333628,
      "v": 92
    },
    {
      "midi": 69,
      "hit": false,
      "t": 94882.4399999999,
      "d": 927.3130625000049,
      "v": 1
    },
    {
      "midi": 57,
      "hit": false,
      "t": 95696.3825000002,
      "d": 103.68077083333628,
      "v": 90
    },
    {
      "midi": 68,
      "hit": false,
      "t": 95812.6599999999,
      "d": 462.2030625000043,
      "v": 1
    },
    {
      "midi": 57,
      "hit": false,
      "t": 95812.66000000019,
      "d": 103.68077083333628,
      "v": 92
    },
    {
      "midi": 59,
      "hit": false,
      "t": 95928.93750000019,
      "d": 103.68077083333628,
      "v": 93
    },
    {
      "midi": 59,
      "hit": false,
      "t": 96045.21500000019,
      "d": 103.68077083333628,
      "v": 94
    },
    {
      "midi": 61,
      "hit": false,
      "t": 96161.49250000018,
      "d": 103.68077083333628,
      "v": 91
    },
    {
      "midi": 66,
      "hit": false,
      "t": 96277.7699999999,
      "d": 237.399895833325,
      "v": 1
    },
    {
      "midi": 61,
      "hit": false,
      "t": 96277.77000000018,
      "d": 103.68077083333628,
      "v": 91
    },
    {
      "midi": 57,
      "hit": false,
      "t": 96394.04750000018,
      "d": 103.68077083333628,
      "v": 95
    },
    {
      "midi": 69,
      "hit": false,
      "t": 96510.3249999999,
      "d": 1624.9780624999985,
      "v": 1
    },
    {
      "midi": 61,
      "hit": false,
      "t": 96510.32500000017,
      "d": 103.68077083333628,
      "v": 92
    },
    {
      "midi": 57,
      "hit": false,
      "t": 97556.82250000017,
      "d": 103.68077083333628,
      "v": 90
    },
    {
      "midi": 57,
      "hit": false,
      "t": 97673.10000000017,
      "d": 103.68077083333628,
      "v": 92
    },
    {
      "midi": 59,
      "hit": false,
      "t": 97789.37750000016,
      "d": 103.68077083333628,
      "v": 93
    },
    {
      "midi": 59,
      "hit": false,
      "t": 97905.65500000016,
      "d": 103.68077083333628,
      "v": 94
    },
    {
      "midi": 61,
      "hit": false,
      "t": 98021.93250000016,
      "d": 103.68077083333628,
      "v": 91
    },
    {
      "midi": 66,
      "hit": false,
      "t": 98138.20999999989,
      "d": 229.64806249999674,
      "v": 1
    },
    {
      "midi": 61,
      "hit": false,
      "t": 98138.21000000015,
      "d": 103.68077083333628,
      "v": 91
    },
    {
      "midi": 57,
      "hit": false,
      "t": 98254.48750000015,
      "d": 103.68077083333628,
      "v": 95
    },
    {
      "midi": 68,
      "hit": false,
      "t": 98370.76499999988,
      "d": 229.64806249999674,
      "v": 1
    },
    {
      "midi": 66,
      "hit": false,
      "t": 98370.76500000014,
      "d": 103.68077083333628,
      "v": 92
    },
    {
      "midi": 69,
      "hit": false,
      "t": 98603.31999999988,
      "d": 1159.868062499998,
      "v": 1
    },
    {
      "midi": 66,
      "hit": false,
      "t": 99417.26250000014,
      "d": 103.68077083333628,
      "v": 90
    },
    {
      "midi": 66,
      "hit": false,
      "t": 99533.54000000014,
      "d": 103.68077083333628,
      "v": 92
    },
    {
      "midi": 68,
      "hit": false,
      "t": 99649.81750000014,
      "d": 103.68077083333628,
      "v": 93
    },
    {
      "midi": 68,
      "hit": false,
      "t": 99766.09499999987,
      "d": 229.64806249999674,
      "v": 1
    },
    {
      "midi": 68,
      "hit": false,
      "t": 99766.09500000013,
      "d": 103.68077083333628,
      "v": 93
    },
    {
      "midi": 69,
      "hit": false,
      "t": 99882.37250000013,
      "d": 103.68077083333628,
      "v": 91
    },
    {
      "midi": 66,
      "hit": false,
      "t": 99998.64999999986,
      "d": 229.64806249999674,
      "v": 1
    },
    {
      "midi": 69,
      "hit": false,
      "t": 99998.65000000013,
      "d": 103.68077083333628,
      "v": 91
    },
    {
      "midi": 66,
      "hit": false,
      "t": 100114.92750000012,
      "d": 103.68077083333628,
      "v": 95
    },
    {
      "midi": 69,
      "hit": false,
      "t": 100231.20499999986,
      "d": 462.2030625000043,
      "v": 1
    },
    {
      "midi": 74,
      "hit": false,
      "t": 100231.20500000012,
      "d": 103.68077083333628,
      "v": 92
    },
    {
      "midi": 74,
      "hit": false,
      "t": 100696.31499999986,
      "d": 1624.9780624999985,
      "v": 1
    },
    {
      "midi": 66,
      "hit": false,
      "t": 101277.70250000012,
      "d": 103.68077083333628,
      "v": 90
    },
    {
      "midi": 66,
      "hit": false,
      "t": 101393.98000000011,
      "d": 103.68077083333628,
      "v": 92
    },
    {
      "midi": 68,
      "hit": false,
      "t": 101510.25750000011,
      "d": 103.68077083333628,
      "v": 93
    },
    {
      "midi": 68,
      "hit": false,
      "t": 101626.5350000001,
      "d": 103.68077083333628,
      "v": 93
    },
    {
      "midi": 69,
      "hit": false,
      "t": 101742.8125000001,
      "d": 103.68077083333628,
      "v": 91
    },
    {
      "midi": 69,
      "hit": false,
      "t": 101859.0900000001,
      "d": 103.68077083333628,
      "v": 91
    },
    {
      "midi": 66,
      "hit": false,
      "t": 101975.3675000001,
      "d": 103.68077083333628,
      "v": 95
    },
    {
      "midi": 69,
      "hit": false,
      "t": 102091.64500000009,
      "d": 103.68077083333628,
      "v": 92
    },
    {
      "midi": 71,
      "hit": false,
      "t": 102324.19999999985,
      "d": 1159.868062499998,
      "v": 1
    },
    {
      "midi": 56,
      "hit": false,
      "t": 103138.14250000009,
      "d": 103.68077083333628,
      "v": 90
    },
    {
      "midi": 56,
      "hit": false,
      "t": 103254.42000000009,
      "d": 103.68077083333628,
      "v": 92
    },
    {
      "midi": 57,
      "hit": false,
      "t": 103370.69750000008,
      "d": 103.68077083333628,
      "v": 93
    },
    {
      "midi": 68,
      "hit": false,
      "t": 103486.97499999985,
      "d": 462.2030625000043,
      "v": 1
    },
    {
      "midi": 57,
      "hit": false,
      "t": 103486.97500000008,
      "d": 103.68077083333628,
      "v": 94
    },
    {
      "midi": 59,
      "hit": false,
      "t": 103603.25250000008,
      "d": 103.68077083333628,
      "v": 91
    },
    {
      "midi": 59,
      "hit": false,
      "t": 103719.53000000007,
      "d": 103.68077083333628,
      "v": 91
    },
    {
      "midi": 56,
      "hit": false,
      "t": 103835.80750000007,
      "d": 103.68077083333628,
      "v": 95
    },
    {
      "midi": 71,
      "hit": false,
      "t": 103952.08499999985,
      "d": 694.7580624999973,
      "v": 1
    },
    {
      "midi": 64,
      "hit": false,
      "t": 103952.08500000006,
      "d": 103.68077083333628,
      "v": 92
    },
    {
      "midi": 64,
      "hit": false,
      "t": 104649.74999999984,
      "d": 1159.868062499998,
      "v": 1
    },
    {
      "midi": 76,
      "hit": false,
      "t": 104649.74999999984,
      "d": 1159.868062499998,
      "v": 1
    },
    {
      "midi": 61,
      "hit": false,
      "t": 104998.58250000006,
      "d": 103.68077083333628,
      "v": 90
    },
    {
      "midi": 61,
      "hit": false,
      "t": 105114.86000000006,
      "d": 103.68077083333628,
      "v": 92
    },
    {
      "midi": 62,
      "hit": false,
      "t": 105231.13750000006,
      "d": 103.68077083333628,
      "v": 93
    },
    {
      "midi": 62,
      "hit": false,
      "t": 105347.41500000005,
      "d": 103.68077083333628,
      "v": 94
    },
    {
      "midi": 64,
      "hit": false,
      "t": 105463.69250000005,
      "d": 103.68077083333628,
      "v": 91
    },
    {
      "midi": 64,
      "hit": false,
      "t": 105579.97000000004,
      "d": 103.68077083333628,
      "v": 91
    },
    {
      "midi": 61,
      "hit": false,
      "t": 105696.24750000004,
      "d": 103.68077083333628,
      "v": 95
    },
    {
      "midi": 62,
      "hit": false,
      "t": 105812.52499999983,
      "d": 229.64806249999674,
      "v": 1
    },
    {
      "midi": 74,
      "hit": false,
      "t": 105812.52499999983,
      "d": 229.64806249999674,
      "v": 1
    },
    {
      "midi": 69,
      "hit": false,
      "t": 105812.52500000004,
      "d": 103.68077083333628,
      "v": 92
    },
    {
      "midi": 61,
      "hit": false,
      "t": 106045.07999999983,
      "d": 927.3130625000049,
      "v": 1
    },
    {
      "midi": 73,
      "hit": false,
      "t": 106045.07999999983,
      "d": 927.3130625000049,
      "v": 1
    },
    {
      "midi": 57,
      "hit": false,
      "t": 106859.02250000004,
      "d": 101.74281250000058,
      "v": 99
    },
    {
      "midi": 61,
      "hit": false,
      "t": 106975.29999999983,
      "d": 462.2030625000043,
      "v": 1
    },
    {
      "midi": 61,
      "hit": false,
      "t": 106975.30000000003,
      "d": 140.50197916665638,
      "v": 97
    },
    {
      "midi": 57,
      "hit": false,
      "t": 107091.57750000003,
      "d": 118.21545833333221,
      "v": 98
    },
    {
      "midi": 62,
      "hit": false,
      "t": 107207.85500000003,
      "d": 219.9582708333328,
      "v": 94
    },
    {
      "midi": 59,
      "hit": false,
      "t": 107440.40999999983,
      "d": 229.64806249999674,
      "v": 1
    },
    {
      "midi": 64,
      "hit": false,
      "t": 107440.41000000002,
      "d": 188.95093750000524,
      "v": 97
    },
    {
      "midi": 61,
      "hit": false,
      "t": 107672.96499999982,
      "d": 927.3130625000049,
      "v": 1
    },
    {
      "midi": 57,
      "hit": false,
      "t": 107905.52000000002,
      "d": 155.03666666666686,
      "v": 94
    },
    {
      "midi": 57,
      "hit": false,
      "t": 108254.35250000002,
      "d": 198.6407291666692,
      "v": 97
    },
    {
      "midi": 57,
      "hit": false,
      "t": 108603.18499999982,
      "d": 229.64806249999674,
      "v": 1
    },
    {
      "midi": 64,
      "hit": false,
      "t": 108835.73999999982,
      "d": 1392.4230625000055,
      "v": 1
    },
    {
      "midi": 62,
      "hit": false,
      "t": 110231.06999999982,
      "d": 694.7580624999973,
      "v": 1
    },
    {
      "midi": 56,
      "hit": false,
      "t": 110579.90250000003,
      "d": 101.74281250000058,
      "v": 99
    },
    {
      "midi": 59,
      "hit": false,
      "t": 110696.18000000002,
      "d": 140.50197916665638,
      "v": 97
    },
    {
      "midi": 56,
      "hit": false,
      "t": 110812.45750000002,
      "d": 118.21545833333221,
      "v": 98
    },
    {
      "midi": 64,
      "hit": false,
      "t": 110928.73499999981,
      "d": 462.2030625000043,
      "v": 1
    },
    {
      "midi": 64,
      "hit": false,
      "t": 110928.73500000002,
      "d": 219.9582708333328,
      "v": 94
    },
    {
      "midi": 56,
      "hit": false,
      "t": 111161.29000000001,
      "d": 188.95093750000524,
      "v": 97
    },
    {
      "midi": 62,
      "hit": false,
      "t": 111393.84499999981,
      "d": 927.3130625000049,
      "v": 1
    },
    {
      "midi": 64,
      "hit": false,
      "t": 111393.84500000002,
      "d": 155.03666666666686,
      "v": 94
    },
    {
      "midi": 64,
      "hit": false,
      "t": 112324.06499999981,
      "d": 1624.9780624999985,
      "v": 1
    },
    {
      "midi": 62,
      "hit": false,
      "t": 113951.94999999981,
      "d": 694.7580624999973,
      "v": 1
    },
    {
      "midi": 62,
      "hit": false,
      "t": 114300.78250000002,
      "d": 101.74281250000058,
      "v": 99
    },
    {
      "midi": 66,
      "hit": false,
      "t": 114417.06000000001,
      "d": 140.50197916665638,
      "v": 97
    },
    {
      "midi": 62,
      "hit": false,
      "t": 114533.33750000001,
      "d": 118.21545833333221,
      "v": 98
    },
    {
      "midi": 61,
      "hit": false,
      "t": 114649.6149999998,
      "d": 462.2030625000043,
      "v": 1
    },
    {
      "midi": 68,
      "hit": false,
      "t": 114649.615,
      "d": 219.9582708333328,
      "v": 94
    },
    {
      "midi": 69,
      "hit": false,
      "t": 114882.17,
      "d": 188.95093750000524,
      "v": 97
    },
    {
      "midi": 57,
      "hit": false,
      "t": 115114.7249999998,
      "d": 927.3130625000049,
      "v": 1
    },
    {
      "midi": 62,
      "hit": false,
      "t": 115347.28,
      "d": 155.03666666666686,
      "v": 94
    },
    {
      "midi": 62,
      "hit": false,
      "t": 115696.1125,
      "d": 198.6407291666692,
      "v": 97
    },
    {
      "midi": 62,
      "hit": false,
      "t": 116044.9449999998,
      "d": 1159.868062499998,
      "v": 1
    },
    {
      "midi": 61,
      "hit": false,
      "t": 117207.7199999998,
      "d": 462.2030625000043,
      "v": 1
    },
    {
      "midi": 64,
      "hit": false,
      "t": 117672.8299999998,
      "d": 927.3130625000049,
      "v": 1
    },
    {
      "midi": 57,
      "hit": false,
      "t": 118021.6625,
      "d": 101.74281250000058,
      "v": 99
    },
    {
      "midi": 61,
      "hit": false,
      "t": 118137.94,
      "d": 140.50197916665638,
      "v": 97
    },
    {
      "midi": 57,
      "hit": false,
      "t": 118254.2175,
      "d": 118.21545833333221,
      "v": 98
    },
    {
      "midi": 62,
      "hit": false,
      "t": 118370.495,
      "d": 219.9582708333328,
      "v": 94
    },
    {
      "midi": 66,
      "hit": false,
      "t": 118603.0499999998,
      "d": 229.64806249999674,
      "v": 1
    },
    {
      "midi": 64,
      "hit": false,
      "t": 118603.04999999999,
      "d": 188.95093750000524,
      "v": 97
    },
    {
      "midi": 64,
      "hit": false,
      "t": 118835.60499999979,
      "d": 316.85618749998685,
      "v": 1
    },
    {
      "midi": 59,
      "hit": false,
      "t": 119068.15999999979,
      "d": 462.20306249998976,
      "v": 1
    },
    {
      "midi": 56,
      "hit": false,
      "t": 119533.26999999977,
      "d": 462.2030625000043,
      "v": 1
    },
    {
      "midi": 76,
      "hit": false,
      "t": 119533.26999999977,
      "d": 462.2030625000043,
      "v": 1
    },
    {
      "midi": 64,
      "hit": false,
      "t": 119998.37999999977,
      "d": 694.7580624999973,
      "v": 1
    },
    {
      "midi": 76,
      "hit": false,
      "t": 119998.37999999977,
      "d": 694.7580624999973,
      "v": 1
    },
    {
      "midi": 62,
      "hit": false,
      "t": 120696.04499999977,
      "d": 229.64806249999674,
      "v": 1
    },
    {
      "midi": 74,
      "hit": false,
      "t": 120696.04499999977,
      "d": 229.64806249999674,
      "v": 1
    },
    {
      "midi": 61,
      "hit": false,
      "t": 120928.59999999976,
      "d": 927.3130625000049,
      "v": 1
    },
    {
      "midi": 73,
      "hit": false,
      "t": 120928.59999999976,
      "d": 927.3130625000049,
      "v": 1
    },
    {
      "midi": 57,
      "hit": false,
      "t": 121742.5425,
      "d": 101.74281250000058,
      "v": 99
    },
    {
      "midi": 61,
      "hit": false,
      "t": 121858.81999999976,
      "d": 462.2030625000043,
      "v": 1
    },
    {
      "midi": 61,
      "hit": false,
      "t": 121858.81999999999,
      "d": 140.50197916665638,
      "v": 97
    },
    {
      "midi": 57,
      "hit": false,
      "t": 121975.09749999999,
      "d": 118.21545833333221,
      "v": 98
    },
    {
      "midi": 62,
      "hit": false,
      "t": 122091.37499999999,
      "d": 219.9582708333328,
      "v": 94
    },
    {
      "midi": 59,
      "hit": false,
      "t": 122323.92999999976,
      "d": 229.64806249999674,
      "v": 1
    },
    {
      "midi": 64,
      "hit": false,
      "t": 122323.92999999998,
      "d": 188.95093750000524,
      "v": 97
    },
    {
      "midi": 61,
      "hit": false,
      "t": 122556.48499999975,
      "d": 927.3130625000049,
      "v": 1
    },
    {
      "midi": 57,
      "hit": false,
      "t": 122789.03999999998,
      "d": 155.03666666666686,
      "v": 94
    },
    {
      "midi": 57,
      "hit": false,
      "t": 123137.87249999998,
      "d": 198.6407291666692,
      "v": 97
    },
    {
      "midi": 57,
      "hit": false,
      "t": 123486.70499999975,
      "d": 229.64806249999674,
      "v": 1
    },
    {
      "midi": 64,
      "hit": false,
      "t": 123719.25999999975,
      "d": 1392.4230625000055,
      "v": 1
    },
    {
      "midi": 62,
      "hit": false,
      "t": 125114.58999999975,
      "d": 694.7580624999973,
      "v": 1
    },
    {
      "midi": 56,
      "hit": false,
      "t": 125463.42249999999,
      "d": 101.74281250000058,
      "v": 99
    },
    {
      "midi": 59,
      "hit": false,
      "t": 125579.69999999998,
      "d": 140.50197916665638,
      "v": 97
    },
    {
      "midi": 56,
      "hit": false,
      "t": 125695.97749999998,
      "d": 118.21545833333221,
      "v": 98
    },
    {
      "midi": 64,
      "hit": false,
      "t": 125812.25499999974,
      "d": 462.2030625000043,
      "v": 1
    },
    {
      "midi": 64,
      "hit": false,
      "t": 125812.25499999998,
      "d": 219.9582708333328,
      "v": 94
    },
    {
      "midi": 56,
      "hit": false,
      "t": 126044.80999999997,
      "d": 188.95093750000524,
      "v": 97
    },
    {
      "midi": 62,
      "hit": false,
      "t": 126277.36499999974,
      "d": 927.3130625000049,
      "v": 1
    },
    {
      "midi": 64,
      "hit": false,
      "t": 126277.36499999998,
      "d": 155.03666666666686,
      "v": 94
    },
    {
      "midi": 64,
      "hit": false,
      "t": 127207.58499999974,
      "d": 1624.9780624999985,
      "v": 1
    },
    {
      "midi": 62,
      "hit": false,
      "t": 128835.46999999974,
      "d": 694.7580624999973,
      "v": 1
    },
    {
      "midi": 62,
      "hit": false,
      "t": 129184.30249999998,
      "d": 101.74281250000058,
      "v": 99
    },
    {
      "midi": 66,
      "hit": false,
      "t": 129300.57999999997,
      "d": 140.50197916665638,
      "v": 97
    },
    {
      "midi": 62,
      "hit": false,
      "t": 129416.85749999997,
      "d": 118.21545833333221,
      "v": 98
    },
    {
      "midi": 61,
      "hit": false,
      "t": 129533.13499999973,
      "d": 462.2030625000043,
      "v": 1
    },
    {
      "midi": 68,
      "hit": false,
      "t": 129533.13499999997,
      "d": 219.9582708333328,
      "v": 94
    },
    {
      "midi": 69,
      "hit": false,
      "t": 129765.68999999996,
      "d": 188.95093750000524,
      "v": 97
    },
    {
      "midi": 57,
      "hit": false,
      "t": 129998.24499999973,
      "d": 927.3130625000049,
      "v": 1
    },
    {
      "midi": 62,
      "hit": false,
      "t": 130230.79999999996,
      "d": 155.03666666666686,
      "v": 94
    },
    {
      "midi": 62,
      "hit": false,
      "t": 130579.63249999996,
      "d": 198.6407291666692,
      "v": 97
    },
    {
      "midi": 62,
      "hit": false,
      "t": 130928.46499999973,
      "d": 1159.868062499998,
      "v": 1
    },
    {
      "midi": 61,
      "hit": false,
      "t": 132091.23999999973,
      "d": 462.20306249998976,
      "v": 1
    },
    {
      "midi": 64,
      "hit": false,
      "t": 132556.34999999971,
      "d": 927.3130625000049,
      "v": 1
    },
    {
      "midi": 57,
      "hit": false,
      "t": 132905.18249999997,
      "d": 101.74281249998603,
      "v": 99
    },
    {
      "midi": 61,
      "hit": false,
      "t": 133021.45999999996,
      "d": 140.50197916667094,
      "v": 97
    },
    {
      "midi": 57,
      "hit": false,
      "t": 133137.73749999996,
      "d": 118.21545833331766,
      "v": 98
    },
    {
      "midi": 62,
      "hit": false,
      "t": 133254.01499999996,
      "d": 219.9582708333328,
      "v": 94
    },
    {
      "midi": 66,
      "hit": false,
      "t": 133486.56999999972,
      "d": 229.64806249999674,
      "v": 1
    },
    {
      "midi": 64,
      "hit": false,
      "t": 133486.56999999995,
      "d": 188.9509374999907,
      "v": 97
    },
    {
      "midi": 64,
      "hit": false,
      "t": 133951.6799999997,
      "d": 1.9379583333211485,
      "v": 1
    },
    {
      "midi": 59,
      "hit": false,
      "t": 133951.6799999997,
      "d": 462.20306249998976,
      "v": 1
    },
    {
      "midi": 56,
      "hit": false,
      "t": 134416.7899999997,
      "d": 927.3130625000049,
      "v": 1
    },
    {
      "midi": 59,
      "hit": false,
      "t": 134416.7899999997,
      "d": 927.3130625000049,
      "v": 1
    },
    {
      "midi": 57,
      "hit": false,
      "t": 136626.06249999994,
      "d": 101.74281249998603,
      "v": 99
    },
    {
      "midi": 61,
      "hit": false,
      "t": 136742.33999999994,
      "d": 140.50197916667094,
      "v": 97
    },
    {
      "midi": 57,
      "hit": false,
      "t": 136858.61749999993,
      "d": 118.21545833331766,
      "v": 98
    },
    {
      "midi": 62,
      "hit": false,
      "t": 136974.89499999993,
      "d": 219.9582708333328,
      "v": 94
    },
    {
      "midi": 64,
      "hit": false,
      "t": 137207.44999999992,
      "d": 188.9509374999907,
      "v": 97
    },
    {
      "midi": 57,
      "hit": false,
      "t": 137672.5599999999,
      "d": 155.0366666666523,
      "v": 94
    },
    {
      "midi": 57,
      "hit": false,
      "t": 138021.3924999999,
      "d": 198.64072916665464,
      "v": 97
    },
    {
      "midi": 56,
      "hit": false,
      "t": 140346.9424999999,
      "d": 101.74281249998603,
      "v": 99
    },
    {
      "midi": 59,
      "hit": false,
      "t": 140463.21999999988,
      "d": 140.50197916667094,
      "v": 97
    },
    {
      "midi": 56,
      "hit": false,
      "t": 140579.49749999988,
      "d": 118.21545833331766,
      "v": 98
    },
    {
      "midi": 64,
      "hit": false,
      "t": 140695.77499999988,
      "d": 219.9582708333328,
      "v": 94
    },
    {
      "midi": 56,
      "hit": false,
      "t": 140928.32999999987,
      "d": 188.9509374999907,
      "v": 97
    },
    {
      "midi": 64,
      "hit": false,
      "t": 141160.88499999986,
      "d": 155.0366666666523,
      "v": 94
    },
    {
      "midi": 62,
      "hit": false,
      "t": 144067.82249999986,
      "d": 101.74281249998603,
      "v": 99
    },
    {
      "midi": 66,
      "hit": false,
      "t": 144184.09999999986,
      "d": 140.50197916667094,
      "v": 97
    },
    {
      "midi": 62,
      "hit": false,
      "t": 144300.37749999986,
      "d": 118.21545833331766,
      "v": 98
    },
    {
      "midi": 68,
      "hit": false,
      "t": 144416.65499999985,
      "d": 219.9582708333328,
      "v": 94
    },
    {
      "midi": 69,
      "hit": false,
      "t": 144649.20999999985,
      "d": 188.9509374999907,
      "v": 97
    },
    {
      "midi": 62,
      "hit": false,
      "t": 145114.31999999983,
      "d": 155.0366666666523,
      "v": 94
    },
    {
      "midi": 62,
      "hit": false,
      "t": 145463.15249999982,
      "d": 198.64072916665464,
      "v": 97
    },
    {
      "midi": 57,
      "hit": false,
      "t": 147788.7024999998,
      "d": 101.74281249998603,
      "v": 99
    },
    {
      "midi": 61,
      "hit": false,
      "t": 147904.9799999998,
      "d": 140.50197916667094,
      "v": 97
    },
    {
      "midi": 57,
      "hit": false,
      "t": 148021.2574999998,
      "d": 118.21545833331766,
      "v": 98
    },
    {
      "midi": 62,
      "hit": false,
      "t": 148137.5349999998,
      "d": 219.9582708333328,
      "v": 94
    },
    {
      "midi": 64,
      "hit": false,
      "t": 148370.0899999998,
      "d": 188.9509374999907,
      "v": 97
    },
    {
      "midi": 56,
      "hit": false,
      "t": 149300.3099999997,
      "d": 462.20306249998976,
      "v": 1
    },
    {
      "midi": 76,
      "hit": false,
      "t": 149300.3099999997,
      "d": 1159.868062499998,
      "v": 1
    },
    {
      "midi": 61,
      "hit": false,
      "t": 149765.4199999997,
      "d": 694.7580625000119,
      "v": 1
    },
    {
      "midi": 59,
      "hit": false,
      "t": 150463.0849999997,
      "d": 229.64806249999674,
      "v": 1
    },
    {
      "midi": 74,
      "hit": false,
      "t": 150463.0849999997,
      "d": 229.64806249999674,
      "v": 1
    },
    {
      "midi": 61,
      "hit": false,
      "t": 150695.6399999997,
      "d": 927.3130625000049,
      "v": 1
    },
    {
      "midi": 73,
      "hit": false,
      "t": 150695.6399999997,
      "d": 927.3130625000049,
      "v": 1
    },
    {
      "midi": 57,
      "hit": false,
      "t": 151509.5824999998,
      "d": 101.74281249998603,
      "v": 99
    },
    {
      "midi": 61,
      "hit": false,
      "t": 151625.8599999997,
      "d": 462.20306249998976,
      "v": 1
    },
    {
      "midi": 61,
      "hit": false,
      "t": 151625.85999999978,
      "d": 140.50197916667094,
      "v": 97
    },
    {
      "midi": 57,
      "hit": false,
      "t": 151742.13749999978,
      "d": 118.21545833331766,
      "v": 98
    },
    {
      "midi": 62,
      "hit": false,
      "t": 151858.41499999978,
      "d": 219.9582708333328,
      "v": 94
    },
    {
      "midi": 59,
      "hit": false,
      "t": 152090.96999999968,
      "d": 229.64806249999674,
      "v": 1
    },
    {
      "midi": 64,
      "hit": false,
      "t": 152090.96999999977,
      "d": 188.9509374999907,
      "v": 97
    },
    {
      "midi": 61,
      "hit": false,
      "t": 152323.52499999967,
      "d": 927.3130625000049,
      "v": 1
    },
    {
      "midi": 57,
      "hit": false,
      "t": 152556.07999999975,
      "d": 155.0366666666523,
      "v": 94
    },
    {
      "midi": 57,
      "hit": false,
      "t": 152904.91249999974,
      "d": 198.64072916665464,
      "v": 97
    },
    {
      "midi": 57,
      "hit": false,
      "t": 153253.74499999968,
      "d": 229.64806249999674,
      "v": 1
    },
    {
      "midi": 64,
      "hit": false,
      "t": 153486.29999999967,
      "d": 1392.423062499991,
      "v": 1
    },
    {
      "midi": 62,
      "hit": false,
      "t": 154881.62999999966,
      "d": 694.7580625000119,
      "v": 1
    },
    {
      "midi": 56,
      "hit": false,
      "t": 155230.46249999973,
      "d": 101.74281249998603,
      "v": 99
    },
    {
      "midi": 59,
      "hit": false,
      "t": 155346.73999999973,
      "d": 140.50197916667094,
      "v": 97
    },
    {
      "midi": 56,
      "hit": false,
      "t": 155463.01749999973,
      "d": 118.21545833331766,
      "v": 98
    },
    {
      "midi": 64,
      "hit": false,
      "t": 155579.29499999966,
      "d": 462.20306249998976,
      "v": 1
    },
    {
      "midi": 64,
      "hit": false,
      "t": 155579.29499999972,
      "d": 219.9582708333328,
      "v": 94
    },
    {
      "midi": 56,
      "hit": false,
      "t": 155811.84999999971,
      "d": 188.9509374999907,
      "v": 97
    },
    {
      "midi": 62,
      "hit": false,
      "t": 156044.40499999965,
      "d": 927.3130625000049,
      "v": 1
    },
    {
      "midi": 64,
      "hit": false,
      "t": 156044.4049999997,
      "d": 155.0366666666523,
      "v": 94
    },
    {
      "midi": 64,
      "hit": false,
      "t": 156974.62499999965,
      "d": 1624.978062500013,
      "v": 1
    },
    {
      "midi": 62,
      "hit": false,
      "t": 158602.50999999966,
      "d": 694.7580625000119,
      "v": 1
    },
    {
      "midi": 62,
      "hit": false,
      "t": 158951.3424999997,
      "d": 101.74281249998603,
      "v": 99
    },
    {
      "midi": 66,
      "hit": false,
      "t": 159067.6199999997,
      "d": 140.50197916667094,
      "v": 97
    },
    {
      "midi": 62,
      "hit": false,
      "t": 159183.8974999997,
      "d": 118.21545833331766,
      "v": 98
    },
    {
      "midi": 61,
      "hit": false,
      "t": 159300.17499999967,
      "d": 462.20306249998976,
      "v": 1
    },
    {
      "midi": 68,
      "hit": false,
      "t": 159300.1749999997,
      "d": 219.9582708333328,
      "v": 94
    },
    {
      "midi": 69,
      "hit": false,
      "t": 159532.7299999997,
      "d": 188.9509374999907,
      "v": 97
    },
    {
      "midi": 57,
      "hit": false,
      "t": 159765.28499999965,
      "d": 927.3130625000049,
      "v": 1
    },
    {
      "midi": 62,
      "hit": false,
      "t": 159997.83999999968,
      "d": 155.0366666666523,
      "v": 94
    },
    {
      "midi": 62,
      "hit": false,
      "t": 160346.67249999967,
      "d": 198.64072916665464,
      "v": 97
    },
    {
      "midi": 62,
      "hit": false,
      "t": 160695.50499999966,
      "d": 1159.868062499998,
      "v": 1
    },
    {
      "midi": 61,
      "hit": false,
      "t": 161858.27999999965,
      "d": 462.20306249998976,
      "v": 1
    },
    {
      "midi": 64,
      "hit": false,
      "t": 162323.38999999964,
      "d": 927.3130625000049,
      "v": 1
    },
    {
      "midi": 57,
      "hit": false,
      "t": 162672.22249999965,
      "d": 101.74281249998603,
      "v": 99
    },
    {
      "midi": 61,
      "hit": false,
      "t": 162788.49999999965,
      "d": 140.50197916667094,
      "v": 97
    },
    {
      "midi": 57,
      "hit": false,
      "t": 162904.77749999965,
      "d": 118.21545833331766,
      "v": 98
    },
    {
      "midi": 62,
      "hit": false,
      "t": 163021.05499999964,
      "d": 219.9582708333328,
      "v": 94
    },
    {
      "midi": 64,
      "hit": false,
      "t": 163253.60999999964,
      "d": 188.9509374999907,
      "v": 97
    },
    {
      "midi": 66,
      "hit": false,
      "t": 163253.60999999964,
      "d": 229.64806249999674,
      "v": 1
    },
    {
      "midi": 64,
      "hit": false,
      "t": 163486.16499999963,
      "d": 316.8561875000014,
      "v": 1
    },
    {
      "midi": 59,
      "hit": false,
      "t": 163718.71999999962,
      "d": 462.20306250001886,
      "v": 1
    },
    {
      "midi": 56,
      "hit": false,
      "t": 164183.82999999964,
      "d": 462.20306249998976,
      "v": 1
    },
    {
      "midi": 76,
      "hit": false,
      "t": 164183.82999999964,
      "d": 462.20306249998976,
      "v": 1
    },
    {
      "midi": 64,
      "hit": false,
      "t": 164648.93999999962,
      "d": 694.7580625000119,
      "v": 1
    },
    {
      "midi": 76,
      "hit": false,
      "t": 164648.93999999962,
      "d": 694.7580625000119,
      "v": 1
    },
    {
      "midi": 62,
      "hit": false,
      "t": 165346.60499999963,
      "d": 229.64806249999674,
      "v": 1
    },
    {
      "midi": 74,
      "hit": false,
      "t": 165346.60499999963,
      "d": 229.64806249999674,
      "v": 1
    },
    {
      "midi": 61,
      "hit": false,
      "t": 165579.15999999963,
      "d": 927.3130625000049,
      "v": 1
    },
    {
      "midi": 73,
      "hit": false,
      "t": 165579.15999999963,
      "d": 927.3130625000049,
      "v": 1
    },
    {
      "midi": 57,
      "hit": false,
      "t": 166393.10249999963,
      "d": 101.74281249998603,
      "v": 99
    },
    {
      "midi": 61,
      "hit": false,
      "t": 166509.37999999963,
      "d": 140.50197916667094,
      "v": 97
    },
    {
      "midi": 61,
      "hit": false,
      "t": 166509.37999999963,
      "d": 462.20306249998976,
      "v": 1
    },
    {
      "midi": 57,
      "hit": false,
      "t": 166625.65749999962,
      "d": 118.21545833331766,
      "v": 98
    },
    {
      "midi": 62,
      "hit": false,
      "t": 166741.93499999962,
      "d": 219.9582708333328,
      "v": 94
    },
    {
      "midi": 64,
      "hit": false,
      "t": 166974.4899999996,
      "d": 188.9509374999907,
      "v": 97
    },
    {
      "midi": 59,
      "hit": false,
      "t": 166974.4899999996,
      "d": 229.64806249999674,
      "v": 1
    },
    {
      "midi": 61,
      "hit": false,
      "t": 167207.0449999996,
      "d": 927.3130625000049,
      "v": 1
    },
    {
      "midi": 57,
      "hit": false,
      "t": 167439.5999999996,
      "d": 155.0366666666523,
      "v": 94
    },
    {
      "midi": 57,
      "hit": false,
      "t": 167788.4324999996,
      "d": 198.64072916665464,
      "v": 97
    },
    {
      "midi": 57,
      "hit": false,
      "t": 168137.2649999996,
      "d": 229.64806249999674,
      "v": 1
    },
    {
      "midi": 64,
      "hit": false,
      "t": 168369.8199999996,
      "d": 1392.423062499991,
      "v": 1
    },
    {
      "midi": 62,
      "hit": false,
      "t": 169765.1499999996,
      "d": 694.7580625000119,
      "v": 1
    },
    {
      "midi": 56,
      "hit": false,
      "t": 170113.98249999958,
      "d": 101.74281249998603,
      "v": 99
    },
    {
      "midi": 59,
      "hit": false,
      "t": 170230.25999999957,
      "d": 140.50197916667094,
      "v": 97
    },
    {
      "midi": 56,
      "hit": false,
      "t": 170346.53749999957,
      "d": 118.21545833331766,
      "v": 98
    },
    {
      "midi": 64,
      "hit": false,
      "t": 170462.81499999957,
      "d": 219.9582708333328,
      "v": 94
    },
    {
      "midi": 64,
      "hit": false,
      "t": 170462.8149999996,
      "d": 462.20306249998976,
      "v": 1
    },
    {
      "midi": 56,
      "hit": false,
      "t": 170695.36999999956,
      "d": 188.9509374999907,
      "v": 97
    },
    {
      "midi": 64,
      "hit": false,
      "t": 170927.92499999955,
      "d": 155.0366666666523,
      "v": 94
    },
    {
      "midi": 62,
      "hit": false,
      "t": 170927.92499999958,
      "d": 927.3130625000049,
      "v": 1
    },
    {
      "midi": 64,
      "hit": false,
      "t": 171858.14499999958,
      "d": 1624.978062500013,
      "v": 1
    },
    {
      "midi": 62,
      "hit": false,
      "t": 173486.0299999996,
      "d": 694.7580625000119,
      "v": 1
    },
    {
      "midi": 62,
      "hit": false,
      "t": 173834.86249999955,
      "d": 101.74281249998603,
      "v": 99
    },
    {
      "midi": 66,
      "hit": false,
      "t": 173951.13999999955,
      "d": 140.50197916667094,
      "v": 97
    },
    {
      "midi": 62,
      "hit": false,
      "t": 174067.41749999954,
      "d": 118.21545833331766,
      "v": 98
    },
    {
      "midi": 68,
      "hit": false,
      "t": 174183.69499999954,
      "d": 219.9582708333328,
      "v": 94
    },
    {
      "midi": 61,
      "hit": false,
      "t": 174183.6949999996,
      "d": 462.20306249998976,
      "v": 1
    },
    {
      "midi": 69,
      "hit": false,
      "t": 174416.24999999953,
      "d": 188.9509374999907,
      "v": 97
    },
    {
      "midi": 57,
      "hit": false,
      "t": 174648.8049999996,
      "d": 927.3130625000049,
      "v": 1
    },
    {
      "midi": 62,
      "hit": false,
      "t": 174881.35999999952,
      "d": 155.0366666666523,
      "v": 94
    },
    {
      "midi": 62,
      "hit": false,
      "t": 175230.1924999995,
      "d": 198.64072916665464,
      "v": 97
    },
    {
      "midi": 62,
      "hit": false,
      "t": 175579.0249999996,
      "d": 1159.868062499998,
      "v": 1
    },
    {
      "midi": 61,
      "hit": false,
      "t": 176741.79999999958,
      "d": 462.20306249998976,
      "v": 1
    },
    {
      "midi": 64,
      "hit": false,
      "t": 177206.90999999957,
      "d": 927.3130625000049,
      "v": 1
    },
    {
      "midi": 57,
      "hit": false,
      "t": 177555.7424999995,
      "d": 101.74281249998603,
      "v": 99
    },
    {
      "midi": 61,
      "hit": false,
      "t": 177672.0199999995,
      "d": 140.50197916667094,
      "v": 97
    },
    {
      "midi": 57,
      "hit": false,
      "t": 177788.2974999995,
      "d": 118.21545833331766,
      "v": 98
    },
    {
      "midi": 62,
      "hit": false,
      "t": 177904.5749999995,
      "d": 219.9582708333328,
      "v": 94
    },
    {
      "midi": 64,
      "hit": false,
      "t": 178137.12999999948,
      "d": 188.9509374999907,
      "v": 97
    },
    {
      "midi": 66,
      "hit": false,
      "t": 178137.12999999957,
      "d": 229.64806249999674,
      "v": 1
    },
    {
      "midi": 64,
      "hit": false,
      "t": 178602.23999999955,
      "d": 1.9379583333211485,
      "v": 1
    },
    {
      "midi": 59,
      "hit": false,
      "t": 178602.23999999955,
      "d": 462.20306249998976,
      "v": 1
    },
    {
      "midi": 56,
      "hit": false,
      "t": 179067.34999999954,
      "d": 462.20306249998976,
      "v": 1
    },
    {
      "midi": 76,
      "hit": false,
      "t": 179067.34999999954,
      "d": 462.20306249998976,
      "v": 1
    },
    {
      "midi": 64,
      "hit": false,
      "t": 179532.45999999953,
      "d": 694.7580625000119,
      "v": 1
    },
    {
      "midi": 76,
      "hit": false,
      "t": 179532.45999999953,
      "d": 694.7580625000119,
      "v": 1
    },
    {
      "midi": 62,
      "hit": false,
      "t": 180230.12499999953,
      "d": 229.64806249999674,
      "v": 1
    },
    {
      "midi": 74,
      "hit": false,
      "t": 180230.12499999953,
      "d": 229.64806249999674,
      "v": 1
    },
    {
      "midi": 61,
      "hit": false,
      "t": 180462.67999999953,
      "d": 927.3130625000049,
      "v": 1
    },
    {
      "midi": 73,
      "hit": false,
      "t": 180462.67999999953,
      "d": 927.3130625000049,
      "v": 1
    },
    {
      "midi": 61,
      "hit": false,
      "t": 181392.89999999953,
      "d": 462.20306249998976,
      "v": 1
    },
    {
      "midi": 59,
      "hit": false,
      "t": 181858.0099999995,
      "d": 229.64806249999674,
      "v": 1
    },
    {
      "midi": 62,
      "hit": false,
      "t": 181858.0099999995,
      "d": 229.64806249999674,
      "v": 1
    },
    {
      "midi": 61,
      "hit": false,
      "t": 182090.5649999995,
      "d": 927.3130625000049,
      "v": 1
    },
    {
      "midi": 64,
      "hit": false,
      "t": 182090.5649999995,
      "d": 927.3130625000049,
      "v": 1
    },
    {
      "midi": 57,
      "hit": false,
      "t": 183020.7849999995,
      "d": 229.64806249999674,
      "v": 1
    },
    {
      "midi": 64,
      "hit": false,
      "t": 183020.7849999995,
      "d": 229.64806249999674,
      "v": 1
    },
    {
      "midi": 66,
      "hit": false,
      "t": 183253.3399999995,
      "d": 1392.423062499991,
      "v": 1
    },
    {
      "midi": 73,
      "hit": false,
      "t": 183253.3399999995,
      "d": 1392.423062499991,
      "v": 1
    },
    {
      "midi": 62,
      "hit": false,
      "t": 184648.6699999995,
      "d": 694.7580625000119,
      "v": 1
    },
    {
      "midi": 71,
      "hit": false,
      "t": 184648.6699999995,
      "d": 694.7580625000119,
      "v": 1
    },
    {
      "midi": 64,
      "hit": false,
      "t": 185346.3349999995,
      "d": 462.20306249998976,
      "v": 1
    },
    {
      "midi": 73,
      "hit": false,
      "t": 185346.3349999995,
      "d": 462.20306249998976,
      "v": 1
    },
    {
      "midi": 62,
      "hit": false,
      "t": 185811.44499999948,
      "d": 927.3130625000049,
      "v": 1
    },
    {
      "midi": 71,
      "hit": false,
      "t": 185811.44499999948,
      "d": 927.3130625000049,
      "v": 1
    },
    {
      "midi": 64,
      "hit": false,
      "t": 186741.66499999948,
      "d": 1624.978062500013,
      "v": 1
    },
    {
      "midi": 71,
      "hit": false,
      "t": 186741.66499999948,
      "d": 1624.978062500013,
      "v": 1
    },
    {
      "midi": 62,
      "hit": false,
      "t": 188369.5499999995,
      "d": 694.7580625000119,
      "v": 1
    },
    {
      "midi": 69,
      "hit": false,
      "t": 188369.5499999995,
      "d": 694.7580625000119,
      "v": 1
    },
    {
      "midi": 61,
      "hit": false,
      "t": 189067.2149999995,
      "d": 462.20306249998976,
      "v": 1
    },
    {
      "midi": 68,
      "hit": false,
      "t": 189067.2149999995,
      "d": 462.20306249998976,
      "v": 1
    },
    {
      "midi": 57,
      "hit": false,
      "t": 189532.3249999995,
      "d": 927.3130625000049,
      "v": 1
    },
    {
      "midi": 66,
      "hit": false,
      "t": 189532.3249999995,
      "d": 927.3130625000049,
      "v": 1
    },
    {
      "midi": 62,
      "hit": false,
      "t": 190462.5449999995,
      "d": 1159.868062499998,
      "v": 1
    },
    {
      "midi": 66,
      "hit": false,
      "t": 190462.5449999995,
      "d": 1159.868062499998,
      "v": 1
    },
    {
      "midi": 61,
      "hit": false,
      "t": 191625.31999999948,
      "d": 462.20306249998976,
      "v": 1
    },
    {
      "midi": 64,
      "hit": false,
      "t": 191625.31999999948,
      "d": 462.20306249998976,
      "v": 1
    },
    {
      "midi": 64,
      "hit": false,
      "t": 192090.42999999947,
      "d": 927.3130625000049,
      "v": 1
    },
    {
      "midi": 69,
      "hit": false,
      "t": 192090.42999999947,
      "d": 927.3130625000049,
      "v": 1
    },
    {
      "midi": 66,
      "hit": false,
      "t": 193020.64999999947,
      "d": 229.64806249999674,
      "v": 1
    },
    {
      "midi": 71,
      "hit": false,
      "t": 193020.64999999947,
      "d": 229.64806249999674,
      "v": 1
    },
    {
      "midi": 71,
      "hit": false,
      "t": 193253.20499999946,
      "d": 229.64806249999674,
      "v": 1
    },
    {
      "midi": 59,
      "hit": false,
      "t": 193485.75999999946,
      "d": 462.20306249998976,
      "v": 1
    },
    {
      "midi": 68,
      "hit": false,
      "t": 193485.75999999946,
      "d": 462.20306249998976,
      "v": 1
    },
    {
      "midi": 56,
      "hit": false,
      "t": 193950.86999999944,
      "d": 462.20306249998976,
      "v": 1
    },
    {
      "midi": 68,
      "hit": false,
      "t": 193950.86999999944,
      "d": 462.20306249998976,
      "v": 1
    },
    {
      "midi": 76,
      "hit": false,
      "t": 193950.86999999944,
      "d": 462.20306249998976,
      "v": 1
    },
    {
      "midi": 73,
      "hit": false,
      "t": 194415.97999999943,
      "d": 694.7580625000119,
      "v": 1
    },
    {
      "midi": 76,
      "hit": false,
      "t": 194415.97999999943,
      "d": 694.7580625000119,
      "v": 1
    },
    {
      "midi": 71,
      "hit": false,
      "t": 195113.64499999944,
      "d": 229.64806249999674,
      "v": 1
    },
    {
      "midi": 74,
      "hit": false,
      "t": 195113.64499999944,
      "d": 229.64806249999674,
      "v": 1
    },
    {
      "midi": 61,
      "hit": false,
      "t": 195346.19999999943,
      "d": 927.3130625000049,
      "v": 1
    },
    {
      "midi": 73,
      "hit": false,
      "t": 195346.19999999943,
      "d": 927.3130625000049,
      "v": 1
    },
    {
      "midi": 57,
      "hit": false,
      "t": 196160.14249999946,
      "d": 101.74281249998603,
      "v": 99
    },
    {
      "midi": 61,
      "hit": false,
      "t": 196276.41999999943,
      "d": 462.20306249998976,
      "v": 1
    },
    {
      "midi": 61,
      "hit": false,
      "t": 196276.41999999946,
      "d": 140.50197916667094,
      "v": 97
    },
    {
      "midi": 57,
      "hit": false,
      "t": 196392.69749999946,
      "d": 118.21545833331766,
      "v": 98
    },
    {
      "midi": 62,
      "hit": false,
      "t": 196508.97499999945,
      "d": 219.9582708333328,
      "v": 94
    },
    {
      "midi": 59,
      "hit": false,
      "t": 196741.52999999942,
      "d": 229.64806249999674,
      "v": 1
    },
    {
      "midi": 64,
      "hit": false,
      "t": 196741.52999999945,
      "d": 188.9509374999907,
      "v": 97
    },
    {
      "midi": 61,
      "hit": false,
      "t": 196974.0849999994,
      "d": 927.3130625000049,
      "v": 1
    },
    {
      "midi": 57,
      "hit": false,
      "t": 197206.63999999943,
      "d": 155.0366666666523,
      "v": 94
    },
    {
      "midi": 57,
      "hit": false,
      "t": 197555.47249999942,
      "d": 198.64072916665464,
      "v": 97
    },
    {
      "midi": 57,
      "hit": false,
      "t": 197904.3049999994,
      "d": 229.64806249999674,
      "v": 1
    },
    {
      "midi": 64,
      "hit": false,
      "t": 198136.8599999994,
      "d": 1392.423062499991,
      "v": 1
    },
    {
      "midi": 62,
      "hit": false,
      "t": 199532.1899999994,
      "d": 694.7580625000119,
      "v": 1
    },
    {
      "midi": 56,
      "hit": false,
      "t": 199881.0224999994,
      "d": 101.74281249998603,
      "v": 99
    },
    {
      "midi": 59,
      "hit": false,
      "t": 199997.2999999994,
      "d": 140.50197916667094,
      "v": 97
    },
    {
      "midi": 56,
      "hit": false,
      "t": 200113.5774999994,
      "d": 118.21545833331766,
      "v": 98
    },
    {
      "midi": 64,
      "hit": false,
      "t": 200229.8549999994,
      "d": 219.9582708333328,
      "v": 94
    },
    {
      "midi": 64,
      "hit": false,
      "t": 200229.8549999994,
      "d": 462.20306249998976,
      "v": 1
    },
    {
      "midi": 56,
      "hit": false,
      "t": 200462.4099999994,
      "d": 188.9509374999907,
      "v": 97
    },
    {
      "midi": 64,
      "hit": false,
      "t": 200694.96499999939,
      "d": 155.0366666666523,
      "v": 94
    },
    {
      "midi": 62,
      "hit": false,
      "t": 200694.96499999939,
      "d": 927.3130625000049,
      "v": 1
    },
    {
      "midi": 64,
      "hit": false,
      "t": 201625.1849999994,
      "d": 1624.978062500013,
      "v": 1
    },
    {
      "midi": 62,
      "hit": false,
      "t": 203253.0699999994,
      "d": 694.7580625000119,
      "v": 1
    },
    {
      "midi": 62,
      "hit": false,
      "t": 203601.90249999939,
      "d": 101.74281249998603,
      "v": 99
    },
    {
      "midi": 66,
      "hit": false,
      "t": 203718.17999999938,
      "d": 140.50197916667094,
      "v": 97
    },
    {
      "midi": 62,
      "hit": false,
      "t": 203834.45749999938,
      "d": 118.21545833331766,
      "v": 98
    },
    {
      "midi": 68,
      "hit": false,
      "t": 203950.73499999937,
      "d": 219.9582708333328,
      "v": 94
    },
    {
      "midi": 61,
      "hit": false,
      "t": 203950.7349999994,
      "d": 462.20306249998976,
      "v": 1
    },
    {
      "midi": 69,
      "hit": false,
      "t": 204183.28999999937,
      "d": 188.9509374999907,
      "v": 97
    },
    {
      "midi": 57,
      "hit": false,
      "t": 204415.8449999994,
      "d": 927.3130625000049,
      "v": 1
    },
    {
      "midi": 62,
      "hit": false,
      "t": 204648.39999999935,
      "d": 155.0366666666523,
      "v": 94
    },
    {
      "midi": 62,
      "hit": false,
      "t": 204997.23249999934,
      "d": 198.64072916665464,
      "v": 97
    },
    {
      "midi": 62,
      "hit": false,
      "t": 205346.0649999994,
      "d": 1159.868062499998,
      "v": 1
    },
    {
      "midi": 61,
      "hit": false,
      "t": 206508.83999999939,
      "d": 462.20306249998976,
      "v": 1
    },
    {
      "midi": 64,
      "hit": false,
      "t": 206973.94999999937,
      "d": 927.3130625000049,
      "v": 1
    },
    {
      "midi": 57,
      "hit": false,
      "t": 207322.78249999933,
      "d": 101.74281249998603,
      "v": 99
    },
    {
      "midi": 61,
      "hit": false,
      "t": 207439.05999999933,
      "d": 140.50197916667094,
      "v": 97
    },
    {
      "midi": 57,
      "hit": false,
      "t": 207555.33749999932,
      "d": 118.21545833331766,
      "v": 98
    },
    {
      "midi": 62,
      "hit": false,
      "t": 207671.61499999932,
      "d": 219.9582708333328,
      "v": 94
    },
    {
      "midi": 64,
      "hit": false,
      "t": 207904.1699999993,
      "d": 188.9509374999907,
      "v": 97
    },
    {
      "midi": 66,
      "hit": false,
      "t": 207904.16999999937,
      "d": 462.20306249998976,
      "v": 1
    },
    {
      "midi": 59,
      "hit": false,
      "t": 208369.27999999936,
      "d": 462.20306249998976,
      "v": 1
    },
    {
      "midi": 68,
      "hit": false,
      "t": 208369.27999999936,
      "d": 462.20306249998976,
      "v": 1
    },
    {
      "midi": 56,
      "hit": false,
      "t": 208834.38999999934,
      "d": 462.20306249998976,
      "v": 1
    },
    {
      "midi": 76,
      "hit": false,
      "t": 208834.38999999934,
      "d": 462.20306249998976,
      "v": 1
    },
    {
      "midi": 76,
      "hit": false,
      "t": 209299.49999999933,
      "d": 694.7580625000119,
      "v": 1
    },
    {
      "midi": 74,
      "hit": false,
      "t": 209997.16499999934,
      "d": 229.64806249999674,
      "v": 1
    },
    {
      "midi": 61,
      "hit": false,
      "t": 210229.71999999933,
      "d": 927.3130625000049,
      "v": 1
    },
    {
      "midi": 73,
      "hit": false,
      "t": 210229.71999999933,
      "d": 927.3130625000049,
      "v": 1
    },
    {
      "midi": 61,
      "hit": false,
      "t": 211159.93999999933,
      "d": 462.20306249998976,
      "v": 1
    },
    {
      "midi": 59,
      "hit": false,
      "t": 211625.04999999932,
      "d": 229.64806249999674,
      "v": 1
    },
    {
      "midi": 62,
      "hit": false,
      "t": 211625.04999999932,
      "d": 229.64806249999674,
      "v": 1
    },
    {
      "midi": 61,
      "hit": false,
      "t": 211857.6049999993,
      "d": 2090.088062500028,
      "v": 1
    },
    {
      "midi": 64,
      "hit": false,
      "t": 211857.6049999993,
      "d": 2090.088062500028,
      "v": 1
    }
  ]
}