{
  "jsonPath": "World/Swedish Pop/Anna Book/natural-woman.json",
  "path": "World\\Swedish Pop\\Anna Book\\Natural Woman.mid",
  "name": "Natural Woman",
  "difficulty": "Advanced",
  "bpm": 94.00012846684224,
  "notes": [
    {
      "midi": 52,
      "hit": false,
      "t": 0,
      "d": 500,
      "v": 100
    },
    {
      "midi": 57,
      "hit": false,
      "t": 0,
      "d": 500,
      "v": 20
    },
    {
      "midi": 61,
      "hit": false,
      "t": 0,
      "d": 500,
      "v": 20
    },
    {
      "midi": 64,
      "hit": false,
      "t": 0,
      "d": 500,
      "v": 20
    },
    {
      "midi": 45,
      "hit": false,
      "t": 750,
      "d": 500,
      "v": 100
    },
    {
      "midi": 52,
      "hit": false,
      "t": 750,
      "d": 500,
      "v": 100
    },
    {
      "midi": 57,
      "hit": false,
      "t": 750,
      "d": 500,
      "v": 33
    },
    {
      "midi": 61,
      "hit": false,
      "t": 750,
      "d": 500,
      "v": 33
    },
    {
      "midi": 64,
      "hit": false,
      "t": 750,
      "d": 500,
      "v": 33
    },
    {
      "midi": 52,
      "hit": false,
      "t": 1500,
      "d": 500,
      "v": 100
    },
    {
      "midi": 57,
      "hit": false,
      "t": 1500,
      "d": 500,
      "v": 46
    },
    {
      "midi": 61,
      "hit": false,
      "t": 1500,
      "d": 500,
      "v": 46
    },
    {
      "midi": 64,
      "hit": false,
      "t": 1500,
      "d": 500,
      "v": 46
    },
    {
      "midi": 57,
      "hit": false,
      "t": 2250,
      "d": 2187.5,
      "v": 64
    },
    {
      "midi": 61,
      "hit": false,
      "t": 2250,
      "d": 2187.5,
      "v": 64
    },
    {
      "midi": 64,
      "hit": false,
      "t": 2250,
      "d": 2187.5,
      "v": 64
    },
    {
      "midi": 69,
      "hit": false,
      "t": 2250,
      "d": 2187.5,
      "v": 64
    },
    {
      "midi": 64,
      "hit": false,
      "t": 2250,
      "d": 242.1875,
      "v": 127
    },
    {
      "midi": 45,
      "hit": false,
      "t": 2250,
      "d": 500,
      "v": 100
    },
    {
      "midi": 52,
      "hit": false,
      "t": 2250,
      "d": 500,
      "v": 100
    },
    {
      "midi": 64,
      "hit": false,
      "t": 2250,
      "d": 242.1875,
      "v": 60
    },
    {
      "midi": 57,
      "hit": false,
      "t": 2250,
      "d": 250,
      "v": 60
    },
    {
      "midi": 61,
      "hit": false,
      "t": 2625,
      "d": 500,
      "v": 127
    },
    {
      "midi": 64,
      "hit": false,
      "t": 2953.125,
      "d": 500,
      "v": 127
    },
    {
      "midi": 64,
      "hit": false,
      "t": 2953.125,
      "d": 500,
      "v": 72
    },
    {
      "midi": 52,
      "hit": false,
      "t": 3000,
      "d": 500,
      "v": 100
    },
    {
      "midi": 61,
      "hit": false,
      "t": 3000,
      "d": 125,
      "v": 73
    },
    {
      "midi": 57,
      "hit": false,
      "t": 3000,
      "d": 500,
      "v": 73
    },
    {
      "midi": 45,
      "hit": false,
      "t": 3750,
      "d": 375,
      "v": 100
    },
    {
      "midi": 64,
      "hit": false,
      "t": 3898.4375,
      "d": 250,
      "v": 127
    },
    {
      "midi": 64,
      "hit": false,
      "t": 3898.4375,
      "d": 250,
      "v": 89
    },
    {
      "midi": 57,
      "hit": false,
      "t": 3937.5,
      "d": 500,
      "v": 90
    },
    {
      "midi": 61,
      "hit": false,
      "t": 4234.375,
      "d": 359.375,
      "v": 127
    },
    {
      "midi": 61,
      "hit": false,
      "t": 4234.375,
      "d": 359.375,
      "v": 95
    },
    {
      "midi": 45,
      "hit": false,
      "t": 4312.5,
      "d": 125,
      "v": 100
    },
    {
      "midi": 64,
      "hit": false,
      "t": 4500,
      "d": 234.375,
      "v": 127
    },
    {
      "midi": 44,
      "hit": false,
      "t": 4500,
      "d": 500,
      "v": 100
    },
    {
      "midi": 52,
      "hit": false,
      "t": 4500,
      "d": 500,
      "v": 100
    },
    {
      "midi": 64,
      "hit": false,
      "t": 4500,
      "d": 234.375,
      "v": 127
    },
    {
      "midi": 59,
      "hit": false,
      "t": 4500,
      "d": 500,
      "v": 100
    },
    {
      "midi": 56,
      "hit": false,
      "t": 4546.875,
      "d": 4132.8125,
      "v": 84
    },
    {
      "midi": 59,
      "hit": false,
      "t": 4546.875,
      "d": 4132.8125,
      "v": 84
    },
    {
      "midi": 64,
      "hit": false,
      "t": 4546.875,
      "d": 4132.8125,
      "v": 84
    },
    {
      "midi": 66,
      "hit": false,
      "t": 4953.125,
      "d": 250,
      "v": 127
    },
    {
      "midi": 66,
      "hit": false,
      "t": 4953.125,
      "d": 250,
      "v": 127
    },
    {
      "midi": 44,
      "hit": false,
      "t": 5250,
      "d": 500,
      "v": 100
    },
    {
      "midi": 52,
      "hit": false,
      "t": 5250,
      "d": 500,
      "v": 100
    },
    {
      "midi": 61,
      "hit": false,
      "t": 5351.5625,
      "d": 492.1875,
      "v": 127
    },
    {
      "midi": 61,
      "hit": false,
      "t": 5351.5625,
      "d": 492.1875,
      "v": 127
    },
    {
      "midi": 59,
      "hit": false,
      "t": 5609.375,
      "d": 640.625,
      "v": 127
    },
    {
      "midi": 59,
      "hit": false,
      "t": 5609.375,
      "d": 640.625,
      "v": 127
    },
    {
      "midi": 56,
      "hit": false,
      "t": 5625,
      "d": 500,
      "v": 100
    },
    {
      "midi": 44,
      "hit": false,
      "t": 6000,
      "d": 375,
      "v": 100
    },
    {
      "midi": 40,
      "hit": false,
      "t": 6562.5,
      "d": 125,
      "v": 100
    },
    {
      "midi": 44,
      "hit": false,
      "t": 6750,
      "d": 500,
      "v": 100
    },
    {
      "midi": 56,
      "hit": false,
      "t": 6750,
      "d": 500,
      "v": 100
    },
    {
      "midi": 59,
      "hit": false,
      "t": 6750,
      "d": 500,
      "v": 100
    },
    {
      "midi": 64,
      "hit": false,
      "t": 6750,
      "d": 500,
      "v": 100
    },
    {
      "midi": 44,
      "hit": false,
      "t": 7500,
      "d": 500,
      "v": 100
    },
    {
      "midi": 56,
      "hit": false,
      "t": 7500,
      "d": 500,
      "v": 100
    },
    {
      "midi": 59,
      "hit": false,
      "t": 7500,
      "d": 500,
      "v": 100
    },
    {
      "midi": 64,
      "hit": false,
      "t": 7500,
      "d": 500,
      "v": 100
    },
    {
      "midi": 47,
      "hit": false,
      "t": 8250,
      "d": 125,
      "v": 100
    },
    {
      "midi": 56,
      "hit": false,
      "t": 8250,
      "d": 500,
      "v": 100
    },
    {
      "midi": 59,
      "hit": false,
      "t": 8250,
      "d": 500,
      "v": 100
    },
    {
      "midi": 64,
      "hit": false,
      "t": 8250,
      "d": 500,
      "v": 100
    },
    {
      "midi": 45,
      "hit": false,
      "t": 8500,
      "d": 125,
      "v": 100
    },
    {
      "midi": 44,
      "hit": false,
      "t": 8757.8125,
      "d": 125,
      "v": 100
    },
    {
      "midi": 55,
      "hit": false,
      "t": 9000,
      "d": 4437.5,
      "v": 91
    },
    {
      "midi": 59,
      "hit": false,
      "t": 9000,
      "d": 4437.5,
      "v": 91
    },
    {
      "midi": 62,
      "hit": false,
      "t": 9000,
      "d": 4437.5,
      "v": 91
    },
    {
      "midi": 67,
      "hit": false,
      "t": 9000,
      "d": 4437.5,
      "v": 91
    },
    {
      "midi": 43,
      "hit": false,
      "t": 9000,
      "d": 500,
      "v": 100
    },
    {
      "midi": 55,
      "hit": false,
      "t": 9000,
      "d": 250,
      "v": 100
    },
    {
      "midi": 59,
      "hit": false,
      "t": 9000,
      "d": 250,
      "v": 100
    },
    {
      "midi": 62,
      "hit": false,
      "t": 9000,
      "d": 250,
      "v": 100
    },
    {
      "midi": 59,
      "hit": false,
      "t": 9562.5,
      "d": 125,
      "v": 127
    },
    {
      "midi": 59,
      "hit": false,
      "t": 9562.5,
      "d": 125,
      "v": 127
    },
    {
      "midi": 47,
      "hit": false,
      "t": 9750,
      "d": 1000,
      "v": 100
    },
    {
      "midi": 55,
      "hit": false,
      "t": 9750,
      "d": 250,
      "v": 100
    },
    {
      "midi": 62,
      "hit": false,
      "t": 9804.6875,
      "d": 343.75,
      "v": 127
    },
    {
      "midi": 62,
      "hit": false,
      "t": 9804.6875,
      "d": 343.75,
      "v": 127
    },
    {
      "midi": 59,
      "hit": false,
      "t": 10195.3125,
      "d": 250,
      "v": 127
    },
    {
      "midi": 59,
      "hit": false,
      "t": 10195.3125,
      "d": 250,
      "v": 127
    },
    {
      "midi": 62,
      "hit": false,
      "t": 10484.375,
      "d": 453.125,
      "v": 127
    },
    {
      "midi": 62,
      "hit": false,
      "t": 10484.375,
      "d": 453.125,
      "v": 127
    },
    {
      "midi": 55,
      "hit": false,
      "t": 10500,
      "d": 250,
      "v": 100
    },
    {
      "midi": 59,
      "hit": false,
      "t": 10500,
      "d": 250,
      "v": 100
    },
    {
      "midi": 43,
      "hit": false,
      "t": 11250,
      "d": 500,
      "v": 100
    },
    {
      "midi": 55,
      "hit": false,
      "t": 11250,
      "d": 500,
      "v": 100
    },
    {
      "midi": 43,
      "hit": false,
      "t": 12000,
      "d": 500,
      "v": 100
    },
    {
      "midi": 55,
      "hit": false,
      "t": 12000,
      "d": 500,
      "v": 100
    },
    {
      "midi": 64,
      "hit": false,
      "t": 12054.6875,
      "d": 375,
      "v": 127
    },
    {
      "midi": 64,
      "hit": false,
      "t": 12054.6875,
      "d": 375,
      "v": 127
    },
    {
      "midi": 62,
      "hit": false,
      "t": 12562.5,
      "d": 125,
      "v": 127
    },
    {
      "midi": 62,
      "hit": false,
      "t": 12562.5,
      "d": 125,
      "v": 127
    },
    {
      "midi": 64,
      "hit": false,
      "t": 12750,
      "d": 500,
      "v": 127
    },
    {
      "midi": 43,
      "hit": false,
      "t": 12750,
      "d": 125,
      "v": 100
    },
    {
      "midi": 55,
      "hit": false,
      "t": 12750,
      "d": 500,
      "v": 100
    },
    {
      "midi": 64,
      "hit": false,
      "t": 12750,
      "d": 500,
      "v": 127
    },
    {
      "midi": 41,
      "hit": false,
      "t": 13000,
      "d": 125,
      "v": 100
    },
    {
      "midi": 40,
      "hit": false,
      "t": 13257.8125,
      "d": 125,
      "v": 100
    },
    {
      "midi": 62,
      "hit": false,
      "t": 13500,
      "d": 476.5625,
      "v": 127
    },
    {
      "midi": 62,
      "hit": false,
      "t": 13500,
      "d": 476.5625,
      "v": 127
    },
    {
      "midi": 54,
      "hit": false,
      "t": 13546.875,
      "d": 2203.125,
      "v": 84
    },
    {
      "midi": 62,
      "hit": false,
      "t": 13546.875,
      "d": 2203.125,
      "v": 84
    },
    {
      "midi": 69,
      "hit": false,
      "t": 13546.875,
      "d": 2203.125,
      "v": 84
    },
    {
      "midi": 57,
      "hit": false,
      "t": 14250,
      "d": 656.25,
      "v": 127
    },
    {
      "midi": 57,
      "hit": false,
      "t": 14250,
      "d": 656.25,
      "v": 127
    },
    {
      "midi": 57,
      "hit": false,
      "t": 15000,
      "d": 500,
      "v": 100
    },
    {
      "midi": 62,
      "hit": false,
      "t": 15000,
      "d": 500,
      "v": 100
    },
    {
      "midi": 66,
      "hit": false,
      "t": 15000,
      "d": 500,
      "v": 100
    },
    {
      "midi": 54,
      "hit": false,
      "t": 15750,
      "d": 500,
      "v": 75
    },
    {
      "midi": 62,
      "hit": false,
      "t": 15750,
      "d": 500,
      "v": 75
    },
    {
      "midi": 69,
      "hit": false,
      "t": 15750,
      "d": 500,
      "v": 75
    },
    {
      "midi": 38,
      "hit": false,
      "t": 15750,
      "d": 500,
      "v": 100
    },
    {
      "midi": 50,
      "hit": false,
      "t": 15750,
      "d": 500,
      "v": 100
    },
    {
      "midi": 66,
      "hit": false,
      "t": 15750,
      "d": 125,
      "v": 100
    },
    {
      "midi": 62,
      "hit": false,
      "t": 16000,
      "d": 125,
      "v": 100
    },
    {
      "midi": 57,
      "hit": false,
      "t": 16257.8125,
      "d": 125,
      "v": 100
    },
    {
      "midi": 52,
      "hit": false,
      "t": 16500,
      "d": 500,
      "v": 75
    },
    {
      "midi": 57,
      "hit": false,
      "t": 16500,
      "d": 500,
      "v": 75
    },
    {
      "midi": 59,
      "hit": false,
      "t": 16500,
      "d": 500,
      "v": 75
    },
    {
      "midi": 61,
      "hit": false,
      "t": 16500,
      "d": 500,
      "v": 75
    },
    {
      "midi": 69,
      "hit": false,
      "t": 16500,
      "d": 500,
      "v": 75
    },
    {
      "midi": 37,
      "hit": false,
      "t": 16500,
      "d": 500,
      "v": 100
    },
    {
      "midi": 49,
      "hit": false,
      "t": 16500,
      "d": 500,
      "v": 100
    },
    {
      "midi": 66,
      "hit": false,
      "t": 16500,
      "d": 125,
      "v": 100
    },
    {
      "midi": 62,
      "hit": false,
      "t": 16750,
      "d": 125,
      "v": 100
    },
    {
      "midi": 57,
      "hit": false,
      "t": 16984.375,
      "d": 125,
      "v": 100
    },
    {
      "midi": 54,
      "hit": false,
      "t": 17250,
      "d": 500,
      "v": 75
    },
    {
      "midi": 57,
      "hit": false,
      "t": 17250,
      "d": 500,
      "v": 75
    },
    {
      "midi": 59,
      "hit": false,
      "t": 17250,
      "d": 500,
      "v": 75
    },
    {
      "midi": 62,
      "hit": false,
      "t": 17250,
      "d": 500,
      "v": 75
    },
    {
      "midi": 71,
      "hit": false,
      "t": 17250,
      "d": 500,
      "v": 75
    },
    {
      "midi": 35,
      "hit": false,
      "t": 17250,
      "d": 500,
      "v": 100
    },
    {
      "midi": 47,
      "hit": false,
      "t": 17250,
      "d": 500,
      "v": 100
    },
    {
      "midi": 64,
      "hit": false,
      "t": 17250,
      "d": 125,
      "v": 100
    },
    {
      "midi": 54,
      "hit": false,
      "t": 17757.8125,
      "d": 125,
      "v": 100
    },
    {
      "midi": 45,
      "hit": false,
      "t": 18000,
      "d": 500,
      "v": 100
    },
    {
      "midi": 57,
      "hit": false,
      "t": 18046.875,
      "d": 4132.8125,
      "v": 84
    },
    {
      "midi": 61,
      "hit": false,
      "t": 18046.875,
      "d": 4132.8125,
      "v": 84
    },
    {
      "midi": 64,
      "hit": false,
      "t": 18046.875,
      "d": 4132.8125,
      "v": 84
    },
    {
      "midi": 69,
      "hit": false,
      "t": 18046.875,
      "d": 4132.8125,
      "v": 84
    },
    {
      "midi": 45,
      "hit": false,
      "t": 18750,
      "d": 500,
      "v": 100
    },
    {
      "midi": 61,
      "hit": false,
      "t": 19125,
      "d": 250,
      "v": 127
    },
    {
      "midi": 61,
      "hit": false,
      "t": 19125,
      "d": 125,
      "v": 127
    },
    {
      "midi": 64,
      "hit": false,
      "t": 19500,
      "d": 250,
      "v": 127
    },
    {
      "midi": 45,
      "hit": false,
      "t": 19500,
      "d": 375,
      "v": 100
    },
    {
      "midi": 64,
      "hit": false,
      "t": 19500,
      "d": 250,
      "v": 127
    },
    {
      "midi": 66,
      "hit": false,
      "t": 19875,
      "d": 250,
      "v": 127
    },
    {
      "midi": 66,
      "hit": false,
      "t": 19875,
      "d": 250,
      "v": 127
    },
    {
      "midi": 40,
      "hit": false,
      "t": 20062.5,
      "d": 187.5,
      "v": 100
    },
    {
      "midi": 69,
      "hit": false,
      "t": 20250,
      "d": 375,
      "v": 127
    },
    {
      "midi": 45,
      "hit": false,
      "t": 20250,
      "d": 500,
      "v": 100
    },
    {
      "midi": 69,
      "hit": false,
      "t": 20250,
      "d": 375,
      "v": 127
    },
    {
      "midi": 64,
      "hit": false,
      "t": 20835.9375,
      "d": 140.625,
      "v": 127
    },
    {
      "midi": 64,
      "hit": false,
      "t": 20835.9375,
      "d": 140.625,
      "v": 127
    },
    {
      "midi": 66,
      "hit": false,
      "t": 21000,
      "d": 250,
      "v": 127
    },
    {
      "midi": 52,
      "hit": false,
      "t": 21000,
      "d": 500,
      "v": 100
    },
    {
      "midi": 57,
      "hit": false,
      "t": 21000,
      "d": 500,
      "v": 100
    },
    {
      "midi": 61,
      "hit": false,
      "t": 21000,
      "d": 500,
      "v": 100
    },
    {
      "midi": 66,
      "hit": false,
      "t": 21062.5,
      "d": 250,
      "v": 127
    },
    {
      "midi": 64,
      "hit": false,
      "t": 21375,
      "d": 250,
      "v": 127
    },
    {
      "midi": 64,
      "hit": false,
      "t": 21375,
      "d": 250,
      "v": 127
    },
    {
      "midi": 45,
      "hit": false,
      "t": 21562.5,
      "d": 375,
      "v": 100
    },
    {
      "midi": 66,
      "hit": false,
      "t": 21750,
      "d": 500,
      "v": 127
    },
    {
      "midi": 57,
      "hit": false,
      "t": 21750,
      "d": 500,
      "v": 100
    },
    {
      "midi": 61,
      "hit": false,
      "t": 21750,
      "d": 500,
      "v": 100
    },
    {
      "midi": 66,
      "hit": false,
      "t": 21750,
      "d": 500,
      "v": 127
    },
    {
      "midi": 40,
      "hit": false,
      "t": 22125,
      "d": 125,
      "v": 100
    },
    {
      "midi": 44,
      "hit": false,
      "t": 22500,
      "d": 500,
      "v": 100
    },
    {
      "midi": 52,
      "hit": false,
      "t": 22500,
      "d": 500,
      "v": 100
    },
    {
      "midi": 59,
      "hit": false,
      "t": 22500,
      "d": 500,
      "v": 100
    },
    {
      "midi": 56,
      "hit": false,
      "t": 22546.875,
      "d": 4132.8125,
      "v": 84
    },
    {
      "midi": 64,
      "hit": false,
      "t": 22546.875,
      "d": 4132.8125,
      "v": 84
    },
    {
      "midi": 71,
      "hit": false,
      "t": 22546.875,
      "d": 4132.8125,
      "v": 84
    },
    {
      "midi": 61,
      "hit": false,
      "t": 22875,
      "d": 250,
      "v": 127
    },
    {
      "midi": 61,
      "hit": false,
      "t": 22875,
      "d": 250,
      "v": 127
    },
    {
      "midi": 64,
      "hit": false,
      "t": 23250,
      "d": 531.25,
      "v": 127
    },
    {
      "midi": 44,
      "hit": false,
      "t": 23250,
      "d": 500,
      "v": 100
    },
    {
      "midi": 52,
      "hit": false,
      "t": 23250,
      "d": 500,
      "v": 100
    },
    {
      "midi": 59,
      "hit": false,
      "t": 23250,
      "d": 500,
      "v": 100
    },
    {
      "midi": 64,
      "hit": false,
      "t": 23250,
      "d": 531.25,
      "v": 127
    },
    {
      "midi": 66,
      "hit": false,
      "t": 23757.8125,
      "d": 250,
      "v": 127
    },
    {
      "midi": 66,
      "hit": false,
      "t": 23757.8125,
      "d": 250,
      "v": 127
    },
    {
      "midi": 61,
      "hit": false,
      "t": 24000,
      "d": 250,
      "v": 127
    },
    {
      "midi": 44,
      "hit": false,
      "t": 24000,
      "d": 375,
      "v": 100
    },
    {
      "midi": 61,
      "hit": false,
      "t": 24000,
      "d": 250,
      "v": 127
    },
    {
      "midi": 56,
      "hit": false,
      "t": 24000,
      "d": 500,
      "v": 100
    },
    {
      "midi": 59,
      "hit": false,
      "t": 24375,
      "d": 250,
      "v": 127
    },
    {
      "midi": 59,
      "hit": false,
      "t": 24375,
      "d": 250,
      "v": 127
    },
    {
      "midi": 40,
      "hit": false,
      "t": 24562.5,
      "d": 125,
      "v": 100
    },
    {
      "midi": 44,
      "hit": false,
      "t": 24750,
      "d": 500,
      "v": 100
    },
    {
      "midi": 56,
      "hit": false,
      "t": 24750,
      "d": 500,
      "v": 100
    },
    {
      "midi": 59,
      "hit": false,
      "t": 24750,
      "d": 500,
      "v": 100
    },
    {
      "midi": 64,
      "hit": false,
      "t": 24750,
      "d": 500,
      "v": 100
    },
    {
      "midi": 44,
      "hit": false,
      "t": 25500,
      "d": 500,
      "v": 100
    },
    {
      "midi": 56,
      "hit": false,
      "t": 25500,
      "d": 500,
      "v": 100
    },
    {
      "midi": 59,
      "hit": false,
      "t": 25500,
      "d": 500,
      "v": 100
    },
    {
      "midi": 64,
      "hit": false,
      "t": 25500,
      "d": 500,
      "v": 100
    },
    {
      "midi": 47,
      "hit": false,
      "t": 26250,
      "d": 125,
      "v": 100
    },
    {
      "midi": 56,
      "hit": false,
      "t": 26250,
      "d": 500,
      "v": 100
    },
    {
      "midi": 59,
      "hit": false,
      "t": 26250,
      "d": 500,
      "v": 100
    },
    {
      "midi": 64,
      "hit": false,
      "t": 26250,
      "d": 500,
      "v": 100
    },
    {
      "midi": 45,
      "hit": false,
      "t": 26500,
      "d": 125,
      "v": 100
    },
    {
      "midi": 44,
      "hit": false,
      "t": 26757.8125,
      "d": 125,
      "v": 100
    },
    {
      "midi": 43,
      "hit": false,
      "t": 27000,
      "d": 500,
      "v": 100
    },
    {
      "midi": 55,
      "hit": false,
      "t": 27000,
      "d": 500,
      "v": 100
    },
    {
      "midi": 59,
      "hit": false,
      "t": 27000,
      "d": 500,
      "v": 100
    },
    {
      "midi": 62,
      "hit": false,
      "t": 27000,
      "d": 500,
      "v": 100
    },
    {
      "midi": 55,
      "hit": false,
      "t": 27046.875,
      "d": 4132.8125,
      "v": 84
    },
    {
      "midi": 59,
      "hit": false,
      "t": 27046.875,
      "d": 4132.8125,
      "v": 84
    },
    {
      "midi": 62,
      "hit": false,
      "t": 27046.875,
      "d": 4132.8125,
      "v": 84
    },
    {
      "midi": 62,
      "hit": false,
      "t": 27750,
      "d": 1000,
      "v": 100
    },
    {
      "midi": 47,
      "hit": false,
      "t": 27750,
      "d": 500,
      "v": 100
    },
    {
      "midi": 55,
      "hit": false,
      "t": 27750,
      "d": 500,
      "v": 100
    },
    {
      "midi": 59,
      "hit": false,
      "t": 27750,
      "d": 500,
      "v": 100
    },
    {
      "midi": 43,
      "hit": false,
      "t": 28500,
      "d": 500,
      "v": 100
    },
    {
      "midi": 62,
      "hit": false,
      "t": 28500,
      "d": 250,
      "v": 100
    },
    {
      "midi": 59,
      "hit": false,
      "t": 29062.5,
      "d": 125,
      "v": 100
    },
    {
      "midi": 59,
      "hit": false,
      "t": 29062.5,
      "d": 125,
      "v": 100
    },
    {
      "midi": 62,
      "hit": false,
      "t": 29250,
      "d": 375,
      "v": 100
    },
    {
      "midi": 43,
      "hit": false,
      "t": 29250,
      "d": 500,
      "v": 100
    },
    {
      "midi": 62,
      "hit": false,
      "t": 29250,
      "d": 375,
      "v": 100
    },
    {
      "midi": 55,
      "hit": false,
      "t": 29250,
      "d": 500,
      "v": 100
    },
    {
      "midi": 59,
      "hit": false,
      "t": 29812.5,
      "d": 125,
      "v": 100
    },
    {
      "midi": 59,
      "hit": false,
      "t": 29812.5,
      "d": 125,
      "v": 100
    },
    {
      "midi": 64,
      "hit": false,
      "t": 30000,
      "d": 500,
      "v": 100
    },
    {
      "midi": 45,
      "hit": false,
      "t": 30000,
      "d": 500,
      "v": 100
    },
    {
      "midi": 55,
      "hit": false,
      "t": 30000,
      "d": 500,
      "v": 100
    },
    {
      "midi": 59,
      "hit": false,
      "t": 30000,
      "d": 500,
      "v": 100
    },
    {
      "midi": 64,
      "hit": false,
      "t": 30000,
      "d": 500,
      "v": 100
    },
    {
      "midi": 64,
      "hit": false,
      "t": 30750,
      "d": 500,
      "v": 100
    },
    {
      "midi": 43,
      "hit": false,
      "t": 30750,
      "d": 125,
      "v": 100
    },
    {
      "midi": 55,
      "hit": false,
      "t": 30750,
      "d": 500,
      "v": 100
    },
    {
      "midi": 59,
      "hit": false,
      "t": 30750,
      "d": 500,
      "v": 100
    },
    {
      "midi": 64,
      "hit": false,
      "t": 30750,
      "d": 500,
      "v": 100
    },
    {
      "midi": 41,
      "hit": false,
      "t": 31000,
      "d": 125,
      "v": 100
    },
    {
      "midi": 40,
      "hit": false,
      "t": 31257.8125,
      "d": 125,
      "v": 100
    },
    {
      "midi": 62,
      "hit": false,
      "t": 31500,
      "d": 500,
      "v": 100
    },
    {
      "midi": 38,
      "hit": false,
      "t": 31500,
      "d": 500,
      "v": 100
    },
    {
      "midi": 54,
      "hit": false,
      "t": 31500,
      "d": 500,
      "v": 100
    },
    {
      "midi": 62,
      "hit": false,
      "t": 31500,
      "d": 500,
      "v": 100
    },
    {
      "midi": 54,
      "hit": false,
      "t": 31546.875,
      "d": 2203.125,
      "v": 84
    },
    {
      "midi": 57,
      "hit": false,
      "t": 31546.875,
      "d": 2203.125,
      "v": 84
    },
    {
      "midi": 62,
      "hit": false,
      "t": 31546.875,
      "d": 2203.125,
      "v": 84
    },
    {
      "midi": 57,
      "hit": false,
      "t": 32250,
      "d": 500,
      "v": 100
    },
    {
      "midi": 38,
      "hit": false,
      "t": 32250,
      "d": 500,
      "v": 100
    },
    {
      "midi": 50,
      "hit": false,
      "t": 32250,
      "d": 500,
      "v": 100
    },
    {
      "midi": 57,
      "hit": false,
      "t": 32250,
      "d": 500,
      "v": 100
    },
    {
      "midi": 50,
      "hit": false,
      "t": 33000,
      "d": 375,
      "v": 100
    },
    {
      "midi": 45,
      "hit": false,
      "t": 33562.5,
      "d": 125,
      "v": 100
    },
    {
      "midi": 38,
      "hit": false,
      "t": 33750,
      "d": 500,
      "v": 100
    },
    {
      "midi": 50,
      "hit": false,
      "t": 33750,
      "d": 500,
      "v": 100
    },
    {
      "midi": 66,
      "hit": false,
      "t": 33750,
      "d": 125,
      "v": 100
    },
    {
      "midi": 62,
      "hit": false,
      "t": 34000,
      "d": 125,
      "v": 100
    },
    {
      "midi": 57,
      "hit": false,
      "t": 34257.8125,
      "d": 125,
      "v": 100
    },
    {
      "midi": 37,
      "hit": false,
      "t": 34500,
      "d": 500,
      "v": 100
    },
    {
      "midi": 49,
      "hit": false,
      "t": 34500,
      "d": 500,
      "v": 100
    },
    {
      "midi": 66,
      "hit": false,
      "t": 34500,
      "d": 125,
      "v": 100
    },
    {
      "midi": 62,
      "hit": false,
      "t": 34750,
      "d": 125,
      "v": 100
    },
    {
      "midi": 57,
      "hit": false,
      "t": 34984.375,
      "d": 125,
      "v": 100
    },
    {
      "midi": 54,
      "hit": false,
      "t": 35250,
      "d": 500,
      "v": 62
    },
    {
      "midi": 57,
      "hit": false,
      "t": 35250,
      "d": 500,
      "v": 65
    },
    {
      "midi": 59,
      "hit": false,
      "t": 35250,
      "d": 500,
      "v": 66
    },
    {
      "midi": 62,
      "hit": false,
      "t": 35250,
      "d": 500,
      "v": 67
    },
    {
      "midi": 69,
      "hit": false,
      "t": 35250,
      "d": 500,
      "v": 65
    },
    {
      "midi": 35,
      "hit": false,
      "t": 35250,
      "d": 500,
      "v": 100
    },
    {
      "midi": 47,
      "hit": false,
      "t": 35250,
      "d": 500,
      "v": 100
    },
    {
      "midi": 64,
      "hit": false,
      "t": 35250,
      "d": 125,
      "v": 100
    },
    {
      "midi": 57,
      "hit": false,
      "t": 35500,
      "d": 117.1875,
      "v": 100
    },
    {
      "midi": 54,
      "hit": false,
      "t": 35757.8125,
      "d": 125,
      "v": 100
    },
    {
      "midi": 57,
      "hit": false,
      "t": 36000,
      "d": 1968.75,
      "v": 80
    },
    {
      "midi": 62,
      "hit": false,
      "t": 36000,
      "d": 1968.75,
      "v": 80
    },
    {
      "midi": 66,
      "hit": false,
      "t": 36000,
      "d": 1968.75,
      "v": 80
    },
    {
      "midi": 71,
      "hit": false,
      "t": 36000,
      "d": 1968.75,
      "v": 80
    },
    {
      "midi": 35,
      "hit": false,
      "t": 36000,
      "d": 187.5,
      "v": 100
    },
    {
      "midi": 47,
      "hit": false,
      "t": 36000,
      "d": 500,
      "v": 100
    },
    {
      "midi": 54,
      "hit": false,
      "t": 36000,
      "d": 250,
      "v": 100
    },
    {
      "midi": 57,
      "hit": false,
      "t": 36000,
      "d": 250,
      "v": 100
    },
    {
      "midi": 62,
      "hit": false,
      "t": 36000,
      "d": 250,
      "v": 100
    },
    {
      "midi": 61,
      "hit": false,
      "t": 36562.5,
      "d": 125,
      "v": 100
    },
    {
      "midi": 61,
      "hit": false,
      "t": 36562.5,
      "d": 125,
      "v": 100
    },
    {
      "midi": 64,
      "hit": false,
      "t": 36750,
      "d": 375,
      "v": 100
    },
    {
      "midi": 47,
      "hit": false,
      "t": 36750,
      "d": 500,
      "v": 100
    },
    {
      "midi": 54,
      "hit": false,
      "t": 36750,
      "d": 250,
      "v": 100
    },
    {
      "midi": 57,
      "hit": false,
      "t": 36750,
      "d": 375,
      "v": 100
    },
    {
      "midi": 64,
      "hit": false,
      "t": 36750,
      "d": 375,
      "v": 100
    },
    {
      "midi": 61,
      "hit": false,
      "t": 37312.5,
      "d": 125,
      "v": 100
    },
    {
      "midi": 61,
      "hit": false,
      "t": 37312.5,
      "d": 125,
      "v": 100
    },
    {
      "midi": 64,
      "hit": false,
      "t": 37500,
      "d": 375,
      "v": 100
    },
    {
      "midi": 47,
      "hit": false,
      "t": 37500,
      "d": 375,
      "v": 100
    },
    {
      "midi": 54,
      "hit": false,
      "t": 37500,
      "d": 250,
      "v": 100
    },
    {
      "midi": 57,
      "hit": false,
      "t": 37500,
      "d": 375,
      "v": 100
    },
    {
      "midi": 64,
      "hit": false,
      "t": 37500,
      "d": 375,
      "v": 100
    },
    {
      "midi": 61,
      "hit": false,
      "t": 38062.5,
      "d": 125,
      "v": 100
    },
    {
      "midi": 35,
      "hit": false,
      "t": 38062.5,
      "d": 187.5,
      "v": 100
    },
    {
      "midi": 61,
      "hit": false,
      "t": 38062.5,
      "d": 125,
      "v": 100
    },
    {
      "midi": 59,
      "hit": false,
      "t": 38250,
      "d": 1968.75,
      "v": 64
    },
    {
      "midi": 61,
      "hit": false,
      "t": 38250,
      "d": 1968.75,
      "v": 64
    },
    {
      "midi": 64,
      "hit": false,
      "t": 38250,
      "d": 1968.75,
      "v": 64
    },
    {
      "midi": 68,
      "hit": false,
      "t": 38250,
      "d": 1968.75,
      "v": 64
    },
    {
      "midi": 64,
      "hit": false,
      "t": 38250,
      "d": 250,
      "v": 100
    },
    {
      "midi": 37,
      "hit": false,
      "t": 38250,
      "d": 500,
      "v": 100
    },
    {
      "midi": 49,
      "hit": false,
      "t": 38250,
      "d": 500,
      "v": 100
    },
    {
      "midi": 56,
      "hit": false,
      "t": 38250,
      "d": 500,
      "v": 100
    },
    {
      "midi": 59,
      "hit": false,
      "t": 38250,
      "d": 500,
      "v": 100
    },
    {
      "midi": 64,
      "hit": false,
      "t": 38250,
      "d": 500,
      "v": 100
    },
    {
      "midi": 66,
      "hit": false,
      "t": 38625,
      "d": 1000,
      "v": 100
    },
    {
      "midi": 49,
      "hit": false,
      "t": 39000,
      "d": 500,
      "v": 100
    },
    {
      "midi": 56,
      "hit": false,
      "t": 39000,
      "d": 500,
      "v": 100
    },
    {
      "midi": 59,
      "hit": false,
      "t": 39000,
      "d": 500,
      "v": 100
    },
    {
      "midi": 66,
      "hit": false,
      "t": 39000,
      "d": 500,
      "v": 100
    },
    {
      "midi": 49,
      "hit": false,
      "t": 39750,
      "d": 375,
      "v": 100
    },
    {
      "midi": 56,
      "hit": false,
      "t": 39750,
      "d": 500,
      "v": 100
    },
    {
      "midi": 59,
      "hit": false,
      "t": 39750,
      "d": 500,
      "v": 100
    },
    {
      "midi": 66,
      "hit": false,
      "t": 39750,
      "d": 500,
      "v": 100
    },
    {
      "midi": 37,
      "hit": false,
      "t": 40312.5,
      "d": 125,
      "v": 100
    },
    {
      "midi": 57,
      "hit": false,
      "t": 40500,
      "d": 1984.375,
      "v": 87
    },
    {
      "midi": 62,
      "hit": false,
      "t": 40500,
      "d": 1984.375,
      "v": 87
    },
    {
      "midi": 66,
      "hit": false,
      "t": 40500,
      "d": 1984.375,
      "v": 87
    },
    {
      "midi": 71,
      "hit": false,
      "t": 40500,
      "d": 1984.375,
      "v": 87
    },
    {
      "midi": 35,
      "hit": false,
      "t": 40500,
      "d": 500,
      "v": 100
    },
    {
      "midi": 47,
      "hit": false,
      "t": 40500,
      "d": 500,
      "v": 100
    },
    {
      "midi": 54,
      "hit": false,
      "t": 40500,
      "d": 500,
      "v": 100
    },
    {
      "midi": 57,
      "hit": false,
      "t": 40500,
      "d": 500,
      "v": 100
    },
    {
      "midi": 64,
      "hit": false,
      "t": 41250,
      "d": 375,
      "v": 100
    },
    {
      "midi": 47,
      "hit": false,
      "t": 41250,
      "d": 500,
      "v": 100
    },
    {
      "midi": 64,
      "hit": false,
      "t": 41250,
      "d": 375,
      "v": 100
    },
    {
      "midi": 54,
      "hit": false,
      "t": 41250,
      "d": 500,
      "v": 100
    },
    {
      "midi": 57,
      "hit": false,
      "t": 41250,
      "d": 500,
      "v": 100
    },
    {
      "midi": 61,
      "hit": false,
      "t": 41812.5,
      "d": 125,
      "v": 100
    },
    {
      "midi": 61,
      "hit": false,
      "t": 41812.5,
      "d": 125,
      "v": 100
    },
    {
      "midi": 64,
      "hit": false,
      "t": 42000,
      "d": 375,
      "v": 100
    },
    {
      "midi": 47,
      "hit": false,
      "t": 42000,
      "d": 375,
      "v": 100
    },
    {
      "midi": 64,
      "hit": false,
      "t": 42000,
      "d": 375,
      "v": 100
    },
    {
      "midi": 54,
      "hit": false,
      "t": 42000,
      "d": 500,
      "v": 100
    },
    {
      "midi": 57,
      "hit": false,
      "t": 42000,
      "d": 500,
      "v": 100
    },
    {
      "midi": 61,
      "hit": false,
      "t": 42562.5,
      "d": 125,
      "v": 100
    },
    {
      "midi": 35,
      "hit": false,
      "t": 42562.5,
      "d": 125,
      "v": 100
    },
    {
      "midi": 61,
      "hit": false,
      "t": 42562.5,
      "d": 125,
      "v": 100
    },
    {
      "midi": 59,
      "hit": false,
      "t": 42750,
      "d": 1968.75,
      "v": 64
    },
    {
      "midi": 61,
      "hit": false,
      "t": 42750,
      "d": 1968.75,
      "v": 64
    },
    {
      "midi": 64,
      "hit": false,
      "t": 42750,
      "d": 1968.75,
      "v": 64
    },
    {
      "midi": 68,
      "hit": false,
      "t": 42750,
      "d": 1968.75,
      "v": 64
    },
    {
      "midi": 66,
      "hit": false,
      "t": 42750,
      "d": 1000,
      "v": 100
    },
    {
      "midi": 49,
      "hit": false,
      "t": 42750,
      "d": 500,
      "v": 100
    },
    {
      "midi": 56,
      "hit": false,
      "t": 42750,
      "d": 500,
      "v": 100
    },
    {
      "midi": 59,
      "hit": false,
      "t": 42750,
      "d": 500,
      "v": 100
    },
    {
      "midi": 66,
      "hit": false,
      "t": 42750,
      "d": 1000,
      "v": 100
    },
    {
      "midi": 49,
      "hit": false,
      "t": 43500,
      "d": 500,
      "v": 100
    },
    {
      "midi": 56,
      "hit": false,
      "t": 43500,
      "d": 500,
      "v": 100
    },
    {
      "midi": 59,
      "hit": false,
      "t": 43500,
      "d": 500,
      "v": 100
    },
    {
      "midi": 49,
      "hit": false,
      "t": 44250,
      "d": 375,
      "v": 100
    },
    {
      "midi": 56,
      "hit": false,
      "t": 44250,
      "d": 500,
      "v": 100
    },
    {
      "midi": 59,
      "hit": false,
      "t": 44250,
      "d": 500,
      "v": 100
    },
    {
      "midi": 36,
      "hit": false,
      "t": 44812.5,
      "d": 125,
      "v": 100
    },
    {
      "midi": 62,
      "hit": false,
      "t": 45000,
      "d": 1968.75,
      "v": 64
    },
    {
      "midi": 66,
      "hit": false,
      "t": 45000,
      "d": 1968.75,
      "v": 64
    },
    {
      "midi": 69,
      "hit": false,
      "t": 45000,
      "d": 1968.75,
      "v": 64
    },
    {
      "midi": 71,
      "hit": false,
      "t": 45000,
      "d": 1968.75,
      "v": 64
    },
    {
      "midi": 64,
      "hit": false,
      "t": 45000,
      "d": 500,
      "v": 100
    },
    {
      "midi": 35,
      "hit": false,
      "t": 45000,
      "d": 500,
      "v": 100
    },
    {
      "midi": 47,
      "hit": false,
      "t": 45000,
      "d": 500,
      "v": 100
    },
    {
      "midi": 54,
      "hit": false,
      "t": 45000,
      "d": 500,
      "v": 100
    },
    {
      "midi": 57,
      "hit": false,
      "t": 45000,
      "d": 500,
      "v": 100
    },
    {
      "midi": 64,
      "hit": false,
      "t": 45000,
      "d": 500,
      "v": 100
    },
    {
      "midi": 64,
      "hit": false,
      "t": 45750,
      "d": 500,
      "v": 100
    },
    {
      "midi": 35,
      "hit": false,
      "t": 45750,
      "d": 500,
      "v": 100
    },
    {
      "midi": 47,
      "hit": false,
      "t": 45750,
      "d": 500,
      "v": 100
    },
    {
      "midi": 54,
      "hit": false,
      "t": 45750,
      "d": 500,
      "v": 100
    },
    {
      "midi": 57,
      "hit": false,
      "t": 45750,
      "d": 500,
      "v": 100
    },
    {
      "midi": 64,
      "hit": false,
      "t": 45750,
      "d": 500,
      "v": 100
    },
    {
      "midi": 64,
      "hit": false,
      "t": 46500,
      "d": 375,
      "v": 100
    },
    {
      "midi": 35,
      "hit": false,
      "t": 46500,
      "d": 125,
      "v": 100
    },
    {
      "midi": 64,
      "hit": false,
      "t": 46500,
      "d": 375,
      "v": 100
    },
    {
      "midi": 54,
      "hit": false,
      "t": 46500,
      "d": 500,
      "v": 100
    },
    {
      "midi": 57,
      "hit": false,
      "t": 46500,
      "d": 500,
      "v": 100
    },
    {
      "midi": 36,
      "hit": false,
      "t": 46750,
      "d": 125,
      "v": 100
    },
    {
      "midi": 38,
      "hit": false,
      "t": 47007.8125,
      "d": 125,
      "v": 100
    },
    {
      "midi": 61,
      "hit": false,
      "t": 47062.5,
      "d": 125,
      "v": 100
    },
    {
      "midi": 61,
      "hit": false,
      "t": 47062.5,
      "d": 125,
      "v": 100
    },
    {
      "midi": 59,
      "hit": false,
      "t": 47250,
      "d": 1968.75,
      "v": 64
    },
    {
      "midi": 63,
      "hit": false,
      "t": 47250,
      "d": 1968.75,
      "v": 64
    },
    {
      "midi": 64,
      "hit": false,
      "t": 47250,
      "d": 1968.75,
      "v": 64
    },
    {
      "midi": 68,
      "hit": false,
      "t": 47250,
      "d": 1968.75,
      "v": 64
    },
    {
      "midi": 66,
      "hit": false,
      "t": 47250,
      "d": 375,
      "v": 100
    },
    {
      "midi": 37,
      "hit": false,
      "t": 47250,
      "d": 500,
      "v": 100
    },
    {
      "midi": 49,
      "hit": false,
      "t": 47250,
      "d": 500,
      "v": 100
    },
    {
      "midi": 66,
      "hit": false,
      "t": 47250,
      "d": 375,
      "v": 100
    },
    {
      "midi": 56,
      "hit": false,
      "t": 47250,
      "d": 500,
      "v": 100
    },
    {
      "midi": 59,
      "hit": false,
      "t": 47250,
      "d": 500,
      "v": 100
    },
    {
      "midi": 64,
      "hit": false,
      "t": 47812.5,
      "d": 125,
      "v": 100
    },
    {
      "midi": 64,
      "hit": false,
      "t": 47812.5,
      "d": 125,
      "v": 100
    },
    {
      "midi": 66,
      "hit": false,
      "t": 48000,
      "d": 375,
      "v": 100
    },
    {
      "midi": 37,
      "hit": false,
      "t": 48000,
      "d": 500,
      "v": 100
    },
    {
      "midi": 49,
      "hit": false,
      "t": 48000,
      "d": 500,
      "v": 100
    },
    {
      "midi": 66,
      "hit": false,
      "t": 48000,
      "d": 375,
      "v": 100
    },
    {
      "midi": 56,
      "hit": false,
      "t": 48000,
      "d": 500,
      "v": 100
    },
    {
      "midi": 59,
      "hit": false,
      "t": 48000,
      "d": 500,
      "v": 100
    },
    {
      "midi": 64,
      "hit": false,
      "t": 48562.5,
      "d": 125,
      "v": 100
    },
    {
      "midi": 64,
      "hit": false,
      "t": 48562.5,
      "d": 125,
      "v": 100
    },
    {
      "midi": 66,
      "hit": false,
      "t": 48750,
      "d": 375,
      "v": 100
    },
    {
      "midi": 37,
      "hit": false,
      "t": 48750,
      "d": 125,
      "v": 100
    },
    {
      "midi": 66,
      "hit": false,
      "t": 48750,
      "d": 375,
      "v": 100
    },
    {
      "midi": 56,
      "hit": false,
      "t": 48750,
      "d": 500,
      "v": 100
    },
    {
      "midi": 59,
      "hit": false,
      "t": 48750,
      "d": 500,
      "v": 100
    },
    {
      "midi": 38,
      "hit": false,
      "t": 49000,
      "d": 125,
      "v": 100
    },
    {
      "midi": 40,
      "hit": false,
      "t": 49257.8125,
      "d": 125,
      "v": 100
    },
    {
      "midi": 64,
      "hit": false,
      "t": 49312.5,
      "d": 125,
      "v": 100
    },
    {
      "midi": 64,
      "hit": false,
      "t": 49312.5,
      "d": 125,
      "v": 100
    },
    {
      "midi": 61,
      "hit": false,
      "t": 49500,
      "d": 2250,
      "v": 80
    },
    {
      "midi": 66,
      "hit": false,
      "t": 49500,
      "d": 2250,
      "v": 80
    },
    {
      "midi": 69,
      "hit": false,
      "t": 49500,
      "d": 2250,
      "v": 80
    },
    {
      "midi": 76,
      "hit": false,
      "t": 49500,
      "d": 2250,
      "v": 80
    },
    {
      "midi": 69,
      "hit": false,
      "t": 49500,
      "d": 375,
      "v": 100
    },
    {
      "midi": 35,
      "hit": false,
      "t": 49500,
      "d": 500,
      "v": 100
    },
    {
      "midi": 47,
      "hit": false,
      "t": 49500,
      "d": 500,
      "v": 100
    },
    {
      "midi": 69,
      "hit": false,
      "t": 49500,
      "d": 375,
      "v": 100
    },
    {
      "midi": 64,
      "hit": false,
      "t": 50062.5,
      "d": 125,
      "v": 100
    },
    {
      "midi": 64,
      "hit": false,
      "t": 50062.5,
      "d": 125,
      "v": 100
    },
    {
      "midi": 66,
      "hit": false,
      "t": 50250,
      "d": 875,
      "v": 100
    },
    {
      "midi": 35,
      "hit": false,
      "t": 50250,
      "d": 500,
      "v": 100
    },
    {
      "midi": 47,
      "hit": false,
      "t": 50250,
      "d": 500,
      "v": 100
    },
    {
      "midi": 54,
      "hit": false,
      "t": 50250,
      "d": 500,
      "v": 100
    },
    {
      "midi": 57,
      "hit": false,
      "t": 50250,
      "d": 500,
      "v": 100
    },
    {
      "midi": 66,
      "hit": false,
      "t": 50250,
      "d": 875,
      "v": 100
    },
    {
      "midi": 35,
      "hit": false,
      "t": 51000,
      "d": 125,
      "v": 100
    },
    {
      "midi": 36,
      "hit": false,
      "t": 51250,
      "d": 125,
      "v": 100
    },
    {
      "midi": 38,
      "hit": false,
      "t": 51507.8125,
      "d": 125,
      "v": 100
    },
    {
      "midi": 64,
      "hit": false,
      "t": 51562.5,
      "d": 125,
      "v": 100
    },
    {
      "midi": 64,
      "hit": false,
      "t": 51562.5,
      "d": 125,
      "v": 100
    },
    {
      "midi": 57,
      "hit": false,
      "t": 51750,
      "d": 2250,
      "v": 80
    },
    {
      "midi": 59,
      "hit": false,
      "t": 51750,
      "d": 2250,
      "v": 80
    },
    {
      "midi": 62,
      "hit": false,
      "t": 51750,
      "d": 2250,
      "v": 80
    },
    {
      "midi": 66,
      "hit": false,
      "t": 51750,
      "d": 2250,
      "v": 80
    },
    {
      "midi": 73,
      "hit": false,
      "t": 51750,
      "d": 500,
      "v": 100
    },
    {
      "midi": 40,
      "hit": false,
      "t": 51750,
      "d": 500,
      "v": 100
    },
    {
      "midi": 52,
      "hit": false,
      "t": 51750,
      "d": 500,
      "v": 100
    },
    {
      "midi": 62,
      "hit": false,
      "t": 51750,
      "d": 500,
      "v": 100
    },
    {
      "midi": 66,
      "hit": false,
      "t": 51750,
      "d": 500,
      "v": 100
    },
    {
      "midi": 69,
      "hit": false,
      "t": 51750,
      "d": 500,
      "v": 100
    },
    {
      "midi": 73,
      "hit": false,
      "t": 51750,
      "d": 500,
      "v": 100
    },
    {
      "midi": 71,
      "hit": false,
      "t": 52500,
      "d": 500,
      "v": 100
    },
    {
      "midi": 52,
      "hit": false,
      "t": 52500,
      "d": 312.5,
      "v": 100
    },
    {
      "midi": 62,
      "hit": false,
      "t": 52500,
      "d": 500,
      "v": 100
    },
    {
      "midi": 66,
      "hit": false,
      "t": 52500,
      "d": 500,
      "v": 100
    },
    {
      "midi": 71,
      "hit": false,
      "t": 52500,
      "d": 500,
      "v": 100
    },
    {
      "midi": 40,
      "hit": false,
      "t": 52929.6875,
      "d": 203.125,
      "v": 100
    },
    {
      "midi": 69,
      "hit": false,
      "t": 53250,
      "d": 375,
      "v": 100
    },
    {
      "midi": 52,
      "hit": false,
      "t": 53250,
      "d": 500,
      "v": 100
    },
    {
      "midi": 69,
      "hit": false,
      "t": 53250,
      "d": 375,
      "v": 100
    },
    {
      "midi": 62,
      "hit": false,
      "t": 53250,
      "d": 500,
      "v": 100
    },
    {
      "midi": 66,
      "hit": false,
      "t": 53250,
      "d": 500,
      "v": 100
    },
    {
      "midi": 71,
      "hit": false,
      "t": 53625,
      "d": 125,
      "v": 100
    },
    {
      "midi": 71,
      "hit": false,
      "t": 53625,
      "d": 125,
      "v": 100
    },
    {
      "midi": 61,
      "hit": false,
      "t": 54000,
      "d": 2250,
      "v": 80
    },
    {
      "midi": 64,
      "hit": false,
      "t": 54000,
      "d": 2250,
      "v": 80
    },
    {
      "midi": 69,
      "hit": false,
      "t": 54000,
      "d": 2250,
      "v": 80
    },
    {
      "midi": 69,
      "hit": false,
      "t": 54000,
      "d": 125,
      "v": 100
    },
    {
      "midi": 45,
      "hit": false,
      "t": 54000,
      "d": 1000,
      "v": 100
    },
    {
      "midi": 54,
      "hit": false,
      "t": 54000,
      "d": 125,
      "v": 100
    },
    {
      "midi": 57,
      "hit": false,
      "t": 54000,
      "d": 125,
      "v": 100
    },
    {
      "midi": 69,
      "hit": false,
      "t": 54000,
      "d": 125,
      "v": 100
    },
    {
      "midi": 66,
      "hit": false,
      "t": 54187.5,
      "d": 125,
      "v": 100
    },
    {
      "midi": 66,
      "hit": false,
      "t": 54187.5,
      "d": 125,
      "v": 100
    },
    {
      "midi": 64,
      "hit": false,
      "t": 54375,
      "d": 750,
      "v": 100
    },
    {
      "midi": 57,
      "hit": false,
      "t": 54375,
      "d": 500,
      "v": 100
    },
    {
      "midi": 61,
      "hit": false,
      "t": 54375,
      "d": 500,
      "v": 100
    },
    {
      "midi": 64,
      "hit": false,
      "t": 54375,
      "d": 750,
      "v": 100
    },
    {
      "midi": 45,
      "hit": false,
      "t": 55500,
      "d": 250,
      "v": 100
    },
    {
      "midi": 52,
      "hit": false,
      "t": 55500,
      "d": 250,
      "v": 100
    },
    {
      "midi": 57,
      "hit": false,
      "t": 55500,
      "d": 125,
      "v": 100
    },
    {
      "midi": 61,
      "hit": false,
      "t": 55500,
      "d": 125,
      "v": 100
    },
    {
      "midi": 62,
      "hit": false,
      "t": 55750,
      "d": 125,
      "v": 100
    },
    {
      "midi": 47,
      "hit": false,
      "t": 55804.6875,
      "d": 125,
      "v": 100
    },
    {
      "midi": 48,
      "hit": false,
      "t": 55992.1875,
      "d": 125,
      "v": 100
    },
    {
      "midi": 64,
      "hit": false,
      "t": 56007.8125,
      "d": 125,
      "v": 100
    },
    {
      "midi": 62,
      "hit": false,
      "t": 56250,
      "d": 2250,
      "v": 80
    },
    {
      "midi": 66,
      "hit": false,
      "t": 56250,
      "d": 2250,
      "v": 80
    },
    {
      "midi": 69,
      "hit": false,
      "t": 56250,
      "d": 2250,
      "v": 80
    },
    {
      "midi": 73,
      "hit": false,
      "t": 56250,
      "d": 500,
      "v": 100
    },
    {
      "midi": 50,
      "hit": false,
      "t": 56250,
      "d": 500,
      "v": 100
    },
    {
      "midi": 62,
      "hit": false,
      "t": 56250,
      "d": 500,
      "v": 100
    },
    {
      "midi": 66,
      "hit": false,
      "t": 56250,
      "d": 500,
      "v": 100
    },
    {
      "midi": 69,
      "hit": false,
      "t": 56250,
      "d": 500,
      "v": 100
    },
    {
      "midi": 73,
      "hit": false,
      "t": 56250,
      "d": 500,
      "v": 100
    },
    {
      "midi": 71,
      "hit": false,
      "t": 57000,
      "d": 500,
      "v": 100
    },
    {
      "midi": 50,
      "hit": false,
      "t": 57000,
      "d": 375,
      "v": 100
    },
    {
      "midi": 62,
      "hit": false,
      "t": 57000,
      "d": 500,
      "v": 100
    },
    {
      "midi": 66,
      "hit": false,
      "t": 57000,
      "d": 500,
      "v": 100
    },
    {
      "midi": 71,
      "hit": false,
      "t": 57000,
      "d": 500,
      "v": 100
    },
    {
      "midi": 38,
      "hit": false,
      "t": 57562.5,
      "d": 125,
      "v": 100
    },
    {
      "midi": 69,
      "hit": false,
      "t": 57750,
      "d": 375,
      "v": 100
    },
    {
      "midi": 50,
      "hit": false,
      "t": 57750,
      "d": 500,
      "v": 100
    },
    {
      "midi": 69,
      "hit": false,
      "t": 57750,
      "d": 375,
      "v": 100
    },
    {
      "midi": 62,
      "hit": false,
      "t": 57750,
      "d": 500,
      "v": 100
    },
    {
      "midi": 66,
      "hit": false,
      "t": 57750,
      "d": 500,
      "v": 100
    },
    {
      "midi": 71,
      "hit": false,
      "t": 58257.8125,
      "d": 125,
      "v": 100
    },
    {
      "midi": 71,
      "hit": false,
      "t": 58257.8125,
      "d": 125,
      "v": 100
    },
    {
      "midi": 61,
      "hit": false,
      "t": 58500,
      "d": 1968.75,
      "v": 80
    },
    {
      "midi": 64,
      "hit": false,
      "t": 58500,
      "d": 1968.75,
      "v": 80
    },
    {
      "midi": 69,
      "hit": false,
      "t": 58500,
      "d": 1968.75,
      "v": 80
    },
    {
      "midi": 69,
      "hit": false,
      "t": 58500,
      "d": 125,
      "v": 100
    },
    {
      "midi": 45,
      "hit": false,
      "t": 58500,
      "d": 1000,
      "v": 100
    },
    {
      "midi": 54,
      "hit": false,
      "t": 58500,
      "d": 125,
      "v": 100
    },
    {
      "midi": 57,
      "hit": false,
      "t": 58500,
      "d": 125,
      "v": 100
    },
    {
      "midi": 69,
      "hit": false,
      "t": 58500,
      "d": 125,
      "v": 100
    },
    {
      "midi": 66,
      "hit": false,
      "t": 58687.5,
      "d": 125,
      "v": 100
    },
    {
      "midi": 66,
      "hit": false,
      "t": 58687.5,
      "d": 125,
      "v": 100
    },
    {
      "midi": 64,
      "hit": false,
      "t": 58875,
      "d": 750,
      "v": 100
    },
    {
      "midi": 57,
      "hit": false,
      "t": 58875,
      "d": 500,
      "v": 100
    },
    {
      "midi": 61,
      "hit": false,
      "t": 58875,
      "d": 500,
      "v": 100
    },
    {
      "midi": 64,
      "hit": false,
      "t": 58875,
      "d": 750,
      "v": 100
    },
    {
      "midi": 45,
      "hit": false,
      "t": 60000,
      "d": 250,
      "v": 100
    },
    {
      "midi": 57,
      "hit": false,
      "t": 60000,
      "d": 125,
      "v": 100
    },
    {
      "midi": 61,
      "hit": false,
      "t": 60000,
      "d": 125,
      "v": 100
    },
    {
      "midi": 62,
      "hit": false,
      "t": 60250,
      "d": 125,
      "v": 100
    },
    {
      "midi": 47,
      "hit": false,
      "t": 60304.6875,
      "d": 125,
      "v": 100
    },
    {
      "midi": 48,
      "hit": false,
      "t": 60492.1875,
      "d": 125,
      "v": 100
    },
    {
      "midi": 64,
      "hit": false,
      "t": 60507.8125,
      "d": 125,
      "v": 100
    },
    {
      "midi": 54,
      "hit": false,
      "t": 60750,
      "d": 1968.75,
      "v": 64
    },
    {
      "midi": 62,
      "hit": false,
      "t": 60750,
      "d": 1968.75,
      "v": 64
    },
    {
      "midi": 69,
      "hit": false,
      "t": 60750,
      "d": 1968.75,
      "v": 64
    },
    {
      "midi": 73,
      "hit": false,
      "t": 60750,
      "d": 500,
      "v": 100
    },
    {
      "midi": 50,
      "hit": false,
      "t": 60750,
      "d": 500,
      "v": 100
    },
    {
      "midi": 62,
      "hit": false,
      "t": 60750,
      "d": 500,
      "v": 100
    },
    {
      "midi": 66,
      "hit": false,
      "t": 60750,
      "d": 500,
      "v": 100
    },
    {
      "midi": 69,
      "hit": false,
      "t": 60750,
      "d": 500,
      "v": 100
    },
    {
      "midi": 73,
      "hit": false,
      "t": 60750,
      "d": 500,
      "v": 100
    },
    {
      "midi": 71,
      "hit": false,
      "t": 61500,
      "d": 500,
      "v": 100
    },
    {
      "midi": 50,
      "hit": false,
      "t": 61500,
      "d": 375,
      "v": 100
    },
    {
      "midi": 62,
      "hit": false,
      "t": 61500,
      "d": 500,
      "v": 100
    },
    {
      "midi": 66,
      "hit": false,
      "t": 61500,
      "d": 500,
      "v": 100
    },
    {
      "midi": 71,
      "hit": false,
      "t": 61500,
      "d": 500,
      "v": 100
    },
    {
      "midi": 38,
      "hit": false,
      "t": 62062.5,
      "d": 125,
      "v": 100
    },
    {
      "midi": 69,
      "hit": false,
      "t": 62250,
      "d": 375,
      "v": 100
    },
    {
      "midi": 50,
      "hit": false,
      "t": 62250,
      "d": 500,
      "v": 100
    },
    {
      "midi": 69,
      "hit": false,
      "t": 62250,
      "d": 375,
      "v": 100
    },
    {
      "midi": 62,
      "hit": false,
      "t": 62250,
      "d": 500,
      "v": 100
    },
    {
      "midi": 66,
      "hit": false,
      "t": 62250,
      "d": 500,
      "v": 100
    },
    {
      "midi": 71,
      "hit": false,
      "t": 62757.8125,
      "d": 125,
      "v": 100
    },
    {
      "midi": 71,
      "hit": false,
      "t": 62757.8125,
      "d": 125,
      "v": 100
    },
    {
      "midi": 61,
      "hit": false,
      "t": 63000,
      "d": 1968.75,
      "v": 80
    },
    {
      "midi": 64,
      "hit": false,
      "t": 63000,
      "d": 1968.75,
      "v": 80
    },
    {
      "midi": 69,
      "hit": false,
      "t": 63000,
      "d": 1968.75,
      "v": 80
    },
    {
      "midi": 69,
      "hit": false,
      "t": 63000,
      "d": 500,
      "v": 100
    },
    {
      "midi": 45,
      "hit": false,
      "t": 63000,
      "d": 500,
      "v": 100
    },
    {
      "midi": 52,
      "hit": false,
      "t": 63000,
      "d": 500,
      "v": 100
    },
    {
      "midi": 54,
      "hit": false,
      "t": 63000,
      "d": 500,
      "v": 100
    },
    {
      "midi": 57,
      "hit": false,
      "t": 63000,
      "d": 500,
      "v": 100
    },
    {
      "midi": 69,
      "hit": false,
      "t": 63000,
      "d": 500,
      "v": 100
    },
    {
      "midi": 66,
      "hit": false,
      "t": 63750,
      "d": 500,
      "v": 100
    },
    {
      "midi": 50,
      "hit": false,
      "t": 63750,
      "d": 500,
      "v": 100
    },
    {
      "midi": 54,
      "hit": false,
      "t": 63750,
      "d": 500,
      "v": 100
    },
    {
      "midi": 59,
      "hit": false,
      "t": 63750,
      "d": 500,
      "v": 100
    },
    {
      "midi": 66,
      "hit": false,
      "t": 63750,
      "d": 500,
      "v": 100
    },
    {
      "midi": 64,
      "hit": false,
      "t": 64500,
      "d": 375,
      "v": 100
    },
    {
      "midi": 49,
      "hit": false,
      "t": 64500,
      "d": 500,
      "v": 100
    },
    {
      "midi": 64,
      "hit": false,
      "t": 64500,
      "d": 375,
      "v": 100
    },
    {
      "midi": 54,
      "hit": false,
      "t": 64500,
      "d": 500,
      "v": 100
    },
    {
      "midi": 66,
      "hit": false,
      "t": 65062.5,
      "d": 125,
      "v": 100
    },
    {
      "midi": 66,
      "hit": false,
      "t": 65062.5,
      "d": 125,
      "v": 100
    },
    {
      "midi": 61,
      "hit": false,
      "t": 65250,
      "d": 1968.75,
      "v": 64
    },
    {
      "midi": 64,
      "hit": false,
      "t": 65250,
      "d": 1968.75,
      "v": 64
    },
    {
      "midi": 69,
      "hit": false,
      "t": 65250,
      "d": 1968.75,
      "v": 64
    },
    {
      "midi": 61,
      "hit": false,
      "t": 65250,
      "d": 500,
      "v": 100
    },
    {
      "midi": 45,
      "hit": false,
      "t": 65250,
      "d": 500,
      "v": 100
    },
    {
      "midi": 52,
      "hit": false,
      "t": 65250,
      "d": 500,
      "v": 100
    },
    {
      "midi": 57,
      "hit": false,
      "t": 65250,
      "d": 500,
      "v": 100
    },
    {
      "midi": 61,
      "hit": false,
      "t": 65250,
      "d": 500,
      "v": 100
    },
    {
      "midi": 59,
      "hit": false,
      "t": 66000,
      "d": 500,
      "v": 100
    },
    {
      "midi": 38,
      "hit": false,
      "t": 66000,
      "d": 500,
      "v": 100
    },
    {
      "midi": 50,
      "hit": false,
      "t": 66000,
      "d": 500,
      "v": 100
    },
    {
      "midi": 54,
      "hit": false,
      "t": 66000,
      "d": 500,
      "v": 100
    },
    {
      "midi": 59,
      "hit": false,
      "t": 66000,
      "d": 500,
      "v": 100
    },
    {
      "midi": 57,
      "hit": false,
      "t": 66750,
      "d": 500,
      "v": 100
    },
    {
      "midi": 37,
      "hit": false,
      "t": 66750,
      "d": 500,
      "v": 100
    },
    {
      "midi": 49,
      "hit": false,
      "t": 66750,
      "d": 500,
      "v": 100
    },
    {
      "midi": 52,
      "hit": false,
      "t": 66750,
      "d": 500,
      "v": 100
    },
    {
      "midi": 57,
      "hit": false,
      "t": 66750,
      "d": 500,
      "v": 100
    },
    {
      "midi": 57,
      "hit": false,
      "t": 67500,
      "d": 4132.8125,
      "v": 84
    },
    {
      "midi": 59,
      "hit": false,
      "t": 67500,
      "d": 4132.8125,
      "v": 84
    },
    {
      "midi": 62,
      "hit": false,
      "t": 67500,
      "d": 4132.8125,
      "v": 84
    },
    {
      "midi": 66,
      "hit": false,
      "t": 67500,
      "d": 4132.8125,
      "v": 84
    },
    {
      "midi": 61,
      "hit": false,
      "t": 67500,
      "d": 250,
      "v": 100
    },
    {
      "midi": 35,
      "hit": false,
      "t": 67500,
      "d": 500,
      "v": 100
    },
    {
      "midi": 47,
      "hit": false,
      "t": 67500,
      "d": 500,
      "v": 100
    },
    {
      "midi": 54,
      "hit": false,
      "t": 67500,
      "d": 250,
      "v": 100
    },
    {
      "midi": 57,
      "hit": false,
      "t": 67500,
      "d": 250,
      "v": 100
    },
    {
      "midi": 61,
      "hit": false,
      "t": 67500,
      "d": 250,
      "v": 100
    },
    {
      "midi": 59,
      "hit": false,
      "t": 67875,
      "d": 750,
      "v": 100
    },
    {
      "midi": 57,
      "hit": false,
      "t": 67875,
      "d": 500,
      "v": 100
    },
    {
      "midi": 61,
      "hit": false,
      "t": 67875,
      "d": 500,
      "v": 100
    },
    {
      "midi": 59,
      "hit": false,
      "t": 67875,
      "d": 750,
      "v": 100
    },
    {
      "midi": 64,
      "hit": false,
      "t": 67875,
      "d": 750,
      "v": 100
    },
    {
      "midi": 47,
      "hit": false,
      "t": 68250,
      "d": 500,
      "v": 100
    },
    {
      "midi": 47,
      "hit": false,
      "t": 69000,
      "d": 500,
      "v": 100
    },
    {
      "midi": 59,
      "hit": false,
      "t": 69000,
      "d": 125,
      "v": 100
    },
    {
      "midi": 62,
      "hit": false,
      "t": 69250,
      "d": 125,
      "v": 100
    },
    {
      "midi": 66,
      "hit": false,
      "t": 69507.8125,
      "d": 125,
      "v": 100
    },
    {
      "midi": 40,
      "hit": false,
      "t": 69750,
      "d": 1000,
      "v": 100
    },
    {
      "midi": 59,
      "hit": false,
      "t": 69750,
      "d": 500,
      "v": 100
    },
    {
      "midi": 62,
      "hit": false,
      "t": 69750,
      "d": 500,
      "v": 100
    },
    {
      "midi": 66,
      "hit": false,
      "t": 69750,
      "d": 500,
      "v": 100
    },
    {
      "midi": 69,
      "hit": false,
      "t": 69750,
      "d": 500,
      "v": 100
    },
    {
      "midi": 59,
      "hit": false,
      "t": 70500,
      "d": 500,
      "v": 100
    },
    {
      "midi": 62,
      "hit": false,
      "t": 70500,
      "d": 500,
      "v": 100
    },
    {
      "midi": 66,
      "hit": false,
      "t": 70500,
      "d": 500,
      "v": 100
    },
    {
      "midi": 38,
      "hit": false,
      "t": 71250,
      "d": 125,
      "v": 100
    },
    {
      "midi": 54,
      "hit": false,
      "t": 71250,
      "d": 500,
      "v": 100
    },
    {
      "midi": 59,
      "hit": false,
      "t": 71250,
      "d": 500,
      "v": 100
    },
    {
      "midi": 62,
      "hit": false,
      "t": 71250,
      "d": 500,
      "v": 100
    },
    {
      "midi": 37,
      "hit": false,
      "t": 71500,
      "d": 125,
      "v": 100
    },
    {
      "midi": 35,
      "hit": false,
      "t": 71757.8125,
      "d": 125,
      "v": 100
    },
    {
      "midi": 33,
      "hit": false,
      "t": 72000,
      "d": 500,
      "v": 100
    },
    {
      "midi": 57,
      "hit": false,
      "t": 72000,
      "d": 500,
      "v": 100
    },
    {
      "midi": 61,
      "hit": false,
      "t": 72000,
      "d": 500,
      "v": 100
    },
    {
      "midi": 64,
      "hit": false,
      "t": 72000,
      "d": 968.75,
      "v": 100
    },
    {
      "midi": 57,
      "hit": false,
      "t": 72750,
      "d": 500,
      "v": 100
    },
    {
      "midi": 61,
      "hit": false,
      "t": 72750,
      "d": 500,
      "v": 100
    },
    {
      "midi": 64,
      "hit": false,
      "t": 73500,
      "d": 250,
      "v": 100
    },
    {
      "midi": 64,
      "hit": false,
      "t": 73500,
      "d": 250,
      "v": 100
    },
    {
      "midi": 57,
      "hit": false,
      "t": 73500,
      "d": 500,
      "v": 100
    },
    {
      "midi": 61,
      "hit": false,
      "t": 73875,
      "d": 250,
      "v": 100
    },
    {
      "midi": 61,
      "hit": false,
      "t": 73875,
      "d": 250,
      "v": 100
    },
    {
      "midi": 57,
      "hit": false,
      "t": 74250,
      "d": 2187.5,
      "v": 64
    },
    {
      "midi": 61,
      "hit": false,
      "t": 74250,
      "d": 2187.5,
      "v": 64
    },
    {
      "midi": 64,
      "hit": false,
      "t": 74250,
      "d": 2187.5,
      "v": 64
    },
    {
      "midi": 69,
      "hit": false,
      "t": 74250,
      "d": 2187.5,
      "v": 64
    },
    {
      "midi": 64,
      "hit": false,
      "t": 74250,
      "d": 750,
      "v": 100
    },
    {
      "midi": 45,
      "hit": false,
      "t": 74250,
      "d": 500,
      "v": 100
    },
    {
      "midi": 52,
      "hit": false,
      "t": 74250,
      "d": 500,
      "v": 100
    },
    {
      "midi": 57,
      "hit": false,
      "t": 74250,
      "d": 750,
      "v": 100
    },
    {
      "midi": 61,
      "hit": false,
      "t": 74250,
      "d": 750,
      "v": 100
    },
    {
      "midi": 64,
      "hit": false,
      "t": 74250,
      "d": 750,
      "v": 100
    },
    {
      "midi": 52,
      "hit": false,
      "t": 75000,
      "d": 500,
      "v": 100
    },
    {
      "midi": 61,
      "hit": false,
      "t": 75375,
      "d": 375,
      "v": 100
    },
    {
      "midi": 57,
      "hit": false,
      "t": 75375,
      "d": 375,
      "v": 100
    },
    {
      "midi": 61,
      "hit": false,
      "t": 75375,
      "d": 375,
      "v": 100
    },
    {
      "midi": 45,
      "hit": false,
      "t": 75750,
      "d": 375,
      "v": 100
    },
    {
      "midi": 64,
      "hit": false,
      "t": 75898.4375,
      "d": 250,
      "v": 127
    },
    {
      "midi": 64,
      "hit": false,
      "t": 75898.4375,
      "d": 250,
      "v": 127
    },
    {
      "midi": 57,
      "hit": false,
      "t": 75937.5,
      "d": 250,
      "v": 100
    },
    {
      "midi": 61,
      "hit": false,
      "t": 76234.375,
      "d": 359.375,
      "v": 127
    },
    {
      "midi": 61,
      "hit": false,
      "t": 76234.375,
      "d": 359.375,
      "v": 127
    },
    {
      "midi": 45,
      "hit": false,
      "t": 76312.5,
      "d": 125,
      "v": 100
    },
    {
      "midi": 64,
      "hit": false,
      "t": 76500,
      "d": 234.375,
      "v": 127
    },
    {
      "midi": 44,
      "hit": false,
      "t": 76500,
      "d": 500,
      "v": 100
    },
    {
      "midi": 52,
      "hit": false,
      "t": 76500,
      "d": 500,
      "v": 100
    },
    {
      "midi": 64,
      "hit": false,
      "t": 76500,
      "d": 234.375,
      "v": 127
    },
    {
      "midi": 59,
      "hit": false,
      "t": 76500,
      "d": 250,
      "v": 100
    },
    {
      "midi": 56,
      "hit": false,
      "t": 76546.875,
      "d": 4132.8125,
      "v": 84
    },
    {
      "midi": 59,
      "hit": false,
      "t": 76546.875,
      "d": 4132.8125,
      "v": 84
    },
    {
      "midi": 64,
      "hit": false,
      "t": 76546.875,
      "d": 4132.8125,
      "v": 84
    },
    {
      "midi": 66,
      "hit": false,
      "t": 76953.125,
      "d": 250,
      "v": 127
    },
    {
      "midi": 66,
      "hit": false,
      "t": 76953.125,
      "d": 250,
      "v": 127
    },
    {
      "midi": 44,
      "hit": false,
      "t": 77250,
      "d": 500,
      "v": 100
    },
    {
      "midi": 52,
      "hit": false,
      "t": 77250,
      "d": 500,
      "v": 100
    },
    {
      "midi": 61,
      "hit": false,
      "t": 77351.5625,
      "d": 492.1875,
      "v": 127
    },
    {
      "midi": 61,
      "hit": false,
      "t": 77351.5625,
      "d": 492.1875,
      "v": 127
    },
    {
      "midi": 56,
      "hit": false,
      "t": 77437.5,
      "d": 125,
      "v": 100
    },
    {
      "midi": 59,
      "hit": false,
      "t": 77609.375,
      "d": 640.625,
      "v": 127
    },
    {
      "midi": 59,
      "hit": false,
      "t": 77609.375,
      "d": 640.625,
      "v": 127
    },
    {
      "midi": 56,
      "hit": false,
      "t": 77625,
      "d": 500,
      "v": 100
    },
    {
      "midi": 44,
      "hit": false,
      "t": 78000,
      "d": 375,
      "v": 100
    },
    {
      "midi": 40,
      "hit": false,
      "t": 78562.5,
      "d": 125,
      "v": 100
    },
    {
      "midi": 44,
      "hit": false,
      "t": 78750,
      "d": 500,
      "v": 100
    },
    {
      "midi": 56,
      "hit": false,
      "t": 78750,
      "d": 500,
      "v": 100
    },
    {
      "midi": 59,
      "hit": false,
      "t": 78750,
      "d": 500,
      "v": 100
    },
    {
      "midi": 64,
      "hit": false,
      "t": 78750,
      "d": 500,
      "v": 100
    },
    {
      "midi": 44,
      "hit": false,
      "t": 79500,
      "d": 500,
      "v": 100
    },
    {
      "midi": 56,
      "hit": false,
      "t": 79500,
      "d": 500,
      "v": 100
    },
    {
      "midi": 59,
      "hit": false,
      "t": 79500,
      "d": 500,
      "v": 100
    },
    {
      "midi": 64,
      "hit": false,
      "t": 79500,
      "d": 500,
      "v": 100
    },
    {
      "midi": 47,
      "hit": false,
      "t": 80250,
      "d": 125,
      "v": 100
    },
    {
      "midi": 56,
      "hit": false,
      "t": 80250,
      "d": 500,
      "v": 100
    },
    {
      "midi": 59,
      "hit": false,
      "t": 80250,
      "d": 500,
      "v": 100
    },
    {
      "midi": 64,
      "hit": false,
      "t": 80250,
      "d": 500,
      "v": 100
    },
    {
      "midi": 45,
      "hit": false,
      "t": 80500,
      "d": 125,
      "v": 100
    },
    {
      "midi": 44,
      "hit": false,
      "t": 80757.8125,
      "d": 125,
      "v": 100
    },
    {
      "midi": 55,
      "hit": false,
      "t": 81000,
      "d": 4437.5,
      "v": 91
    },
    {
      "midi": 59,
      "hit": false,
      "t": 81000,
      "d": 4437.5,
      "v": 91
    },
    {
      "midi": 62,
      "hit": false,
      "t": 81000,
      "d": 4437.5,
      "v": 91
    },
    {
      "midi": 67,
      "hit": false,
      "t": 81000,
      "d": 4437.5,
      "v": 91
    },
    {
      "midi": 43,
      "hit": false,
      "t": 81000,
      "d": 500,
      "v": 100
    },
    {
      "midi": 55,
      "hit": false,
      "t": 81000,
      "d": 500,
      "v": 100
    },
    {
      "midi": 59,
      "hit": false,
      "t": 81000,
      "d": 500,
      "v": 100
    },
    {
      "midi": 47,
      "hit": false,
      "t": 81750,
      "d": 1000,
      "v": 100
    },
    {
      "midi": 55,
      "hit": false,
      "t": 81750,
      "d": 250,
      "v": 100
    },
    {
      "midi": 59,
      "hit": false,
      "t": 81750,
      "d": 375,
      "v": 100
    },
    {
      "midi": 62,
      "hit": false,
      "t": 81804.6875,
      "d": 343.75,
      "v": 127
    },
    {
      "midi": 62,
      "hit": false,
      "t": 81804.6875,
      "d": 343.75,
      "v": 127
    },
    {
      "midi": 62,
      "hit": false,
      "t": 82500,
      "d": 382.8125,
      "v": 127
    },
    {
      "midi": 55,
      "hit": false,
      "t": 82500,
      "d": 250,
      "v": 100
    },
    {
      "midi": 62,
      "hit": false,
      "t": 82500,
      "d": 382.8125,
      "v": 127
    },
    {
      "midi": 59,
      "hit": false,
      "t": 82945.3125,
      "d": 250,
      "v": 127
    },
    {
      "midi": 59,
      "hit": false,
      "t": 82945.3125,
      "d": 250,
      "v": 127
    },
    {
      "midi": 62,
      "hit": false,
      "t": 83250,
      "d": 1117.1875,
      "v": 100
    },
    {
      "midi": 43,
      "hit": false,
      "t": 83250,
      "d": 500,
      "v": 100
    },
    {
      "midi": 55,
      "hit": false,
      "t": 83250,
      "d": 1000,
      "v": 100
    },
    {
      "midi": 62,
      "hit": false,
      "t": 83250,
      "d": 1117.1875,
      "v": 100
    },
    {
      "midi": 43,
      "hit": false,
      "t": 84000,
      "d": 500,
      "v": 100
    },
    {
      "midi": 43,
      "hit": false,
      "t": 84750,
      "d": 125,
      "v": 100
    },
    {
      "midi": 41,
      "hit": false,
      "t": 85000,
      "d": 125,
      "v": 100
    },
    {
      "midi": 64,
      "hit": false,
      "t": 85125,
      "d": 250,
      "v": 100
    },
    {
      "midi": 55,
      "hit": false,
      "t": 85125,
      "d": 250,
      "v": 100
    },
    {
      "midi": 64,
      "hit": false,
      "t": 85125,
      "d": 250,
      "v": 100
    },
    {
      "midi": 40,
      "hit": false,
      "t": 85257.8125,
      "d": 125,
      "v": 100
    },
    {
      "midi": 62,
      "hit": false,
      "t": 85500,
      "d": 476.5625,
      "v": 127
    },
    {
      "midi": 38,
      "hit": false,
      "t": 85500,
      "d": 500,
      "v": 100
    },
    {
      "midi": 62,
      "hit": false,
      "t": 85500,
      "d": 476.5625,
      "v": 127
    },
    {
      "midi": 54,
      "hit": false,
      "t": 85500,
      "d": 500,
      "v": 100
    },
    {
      "midi": 54,
      "hit": false,
      "t": 85546.875,
      "d": 2203.125,
      "v": 84
    },
    {
      "midi": 62,
      "hit": false,
      "t": 85546.875,
      "d": 2203.125,
      "v": 84
    },
    {
      "midi": 69,
      "hit": false,
      "t": 85546.875,
      "d": 2203.125,
      "v": 84
    },
    {
      "midi": 57,
      "hit": false,
      "t": 86250,
      "d": 656.25,
      "v": 127
    },
    {
      "midi": 38,
      "hit": false,
      "t": 86250,
      "d": 500,
      "v": 100
    },
    {
      "midi": 54,
      "hit": false,
      "t": 86250,
      "d": 500,
      "v": 100
    },
    {
      "midi": 57,
      "hit": false,
      "t": 86250,
      "d": 656.25,
      "v": 127
    },
    {
      "midi": 50,
      "hit": false,
      "t": 87000,
      "d": 375,
      "v": 100
    },
    {
      "midi": 57,
      "hit": false,
      "t": 87000,
      "d": 500,
      "v": 100
    },
    {
      "midi": 62,
      "hit": false,
      "t": 87000,
      "d": 500,
      "v": 100
    },
    {
      "midi": 66,
      "hit": false,
      "t": 87000,
      "d": 500,
      "v": 100
    },
    {
      "midi": 45,
      "hit": false,
      "t": 87562.5,
      "d": 125,
      "v": 100
    },
    {
      "midi": 54,
      "hit": false,
      "t": 87750,
      "d": 500,
      "v": 65
    },
    {
      "midi": 62,
      "hit": false,
      "t": 87750,
      "d": 500,
      "v": 65
    },
    {
      "midi": 69,
      "hit": false,
      "t": 87750,
      "d": 500,
      "v": 65
    },
    {
      "midi": 38,
      "hit": false,
      "t": 87750,
      "d": 500,
      "v": 100
    },
    {
      "midi": 50,
      "hit": false,
      "t": 87750,
      "d": 500,
      "v": 100
    },
    {
      "midi": 66,
      "hit": false,
      "t": 87750,
      "d": 125,
      "v": 100
    },
    {
      "midi": 62,
      "hit": false,
      "t": 88000,
      "d": 125,
      "v": 100
    },
    {
      "midi": 57,
      "hit": false,
      "t": 88257.8125,
      "d": 125,
      "v": 100
    },
    {
      "midi": 52,
      "hit": false,
      "t": 88500,
      "d": 500,
      "v": 65
    },
    {
      "midi": 57,
      "hit": false,
      "t": 88500,
      "d": 500,
      "v": 65
    },
    {
      "midi": 59,
      "hit": false,
      "t": 88500,
      "d": 500,
      "v": 65
    },
    {
      "midi": 61,
      "hit": false,
      "t": 88500,
      "d": 500,
      "v": 65
    },
    {
      "midi": 69,
      "hit": false,
      "t": 88500,
      "d": 500,
      "v": 65
    },
    {
      "midi": 37,
      "hit": false,
      "t": 88500,
      "d": 500,
      "v": 100
    },
    {
      "midi": 49,
      "hit": false,
      "t": 88500,
      "d": 500,
      "v": 100
    },
    {
      "midi": 66,
      "hit": false,
      "t": 88500,
      "d": 125,
      "v": 100
    },
    {
      "midi": 62,
      "hit": false,
      "t": 88750,
      "d": 125,
      "v": 100
    },
    {
      "midi": 57,
      "hit": false,
      "t": 88984.375,
      "d": 125,
      "v": 100
    },
    {
      "midi": 54,
      "hit": false,
      "t": 89250,
      "d": 500,
      "v": 65
    },
    {
      "midi": 57,
      "hit": false,
      "t": 89250,
      "d": 500,
      "v": 65
    },
    {
      "midi": 59,
      "hit": false,
      "t": 89250,
      "d": 500,
      "v": 65
    },
    {
      "midi": 62,
      "hit": false,
      "t": 89250,
      "d": 500,
      "v": 65
    },
    {
      "midi": 71,
      "hit": false,
      "t": 89250,
      "d": 500,
      "v": 65
    },
    {
      "midi": 35,
      "hit": false,
      "t": 89250,
      "d": 500,
      "v": 100
    },
    {
      "midi": 47,
      "hit": false,
      "t": 89250,
      "d": 500,
      "v": 100
    },
    {
      "midi": 64,
      "hit": false,
      "t": 89250,
      "d": 125,
      "v": 100
    },
    {
      "midi": 57,
      "hit": false,
      "t": 89500,
      "d": 117.1875,
      "v": 100
    },
    {
      "midi": 54,
      "hit": false,
      "t": 89757.8125,
      "d": 125,
      "v": 100
    },
    {
      "midi": 45,
      "hit": false,
      "t": 90000,
      "d": 500,
      "v": 100
    },
    {
      "midi": 52,
      "hit": false,
      "t": 90000,
      "d": 500,
      "v": 100
    },
    {
      "midi": 57,
      "hit": false,
      "t": 90000,
      "d": 500,
      "v": 100
    },
    {
      "midi": 61,
      "hit": false,
      "t": 90000,
      "d": 500,
      "v": 100
    },
    {
      "midi": 57,
      "hit": false,
      "t": 90046.875,
      "d": 4132.8125,
      "v": 84
    },
    {
      "midi": 61,
      "hit": false,
      "t": 90046.875,
      "d": 4132.8125,
      "v": 84
    },
    {
      "midi": 64,
      "hit": false,
      "t": 90046.875,
      "d": 4132.8125,
      "v": 84
    },
    {
      "midi": 69,
      "hit": false,
      "t": 90046.875,
      "d": 4132.8125,
      "v": 84
    },
    {
      "midi": 45,
      "hit": false,
      "t": 90750,
      "d": 500,
      "v": 100
    },
    {
      "midi": 61,
      "hit": false,
      "t": 91125,
      "d": 250,
      "v": 127
    },
    {
      "midi": 57,
      "hit": false,
      "t": 91125,
      "d": 250,
      "v": 100
    },
    {
      "midi": 61,
      "hit": false,
      "t": 91125,
      "d": 250,
      "v": 127
    },
    {
      "midi": 52,
      "hit": false,
      "t": 91125,
      "d": 500,
      "v": 100
    },
    {
      "midi": 64,
      "hit": false,
      "t": 91500,
      "d": 250,
      "v": 127
    },
    {
      "midi": 45,
      "hit": false,
      "t": 91500,
      "d": 375,
      "v": 100
    },
    {
      "midi": 57,
      "hit": false,
      "t": 91500,
      "d": 125,
      "v": 100
    },
    {
      "midi": 61,
      "hit": false,
      "t": 91500,
      "d": 250,
      "v": 100
    },
    {
      "midi": 64,
      "hit": false,
      "t": 91500,
      "d": 250,
      "v": 127
    },
    {
      "midi": 66,
      "hit": false,
      "t": 91875,
      "d": 250,
      "v": 127
    },
    {
      "midi": 66,
      "hit": false,
      "t": 91875,
      "d": 250,
      "v": 127
    },
    {
      "midi": 40,
      "hit": false,
      "t": 92062.5,
      "d": 187.5,
      "v": 100
    },
    {
      "midi": 69,
      "hit": false,
      "t": 92250,
      "d": 375,
      "v": 127
    },
    {
      "midi": 45,
      "hit": false,
      "t": 92250,
      "d": 500,
      "v": 100
    },
    {
      "midi": 57,
      "hit": false,
      "t": 92250,
      "d": 375,
      "v": 100
    },
    {
      "midi": 61,
      "hit": false,
      "t": 92250,
      "d": 375,
      "v": 100
    },
    {
      "midi": 69,
      "hit": false,
      "t": 92250,
      "d": 375,
      "v": 127
    },
    {
      "midi": 64,
      "hit": false,
      "t": 92835.9375,
      "d": 140.625,
      "v": 127
    },
    {
      "midi": 64,
      "hit": false,
      "t": 92835.9375,
      "d": 140.625,
      "v": 127
    },
    {
      "midi": 66,
      "hit": false,
      "t": 93000,
      "d": 250,
      "v": 127
    },
    {
      "midi": 52,
      "hit": false,
      "t": 93000,
      "d": 500,
      "v": 100
    },
    {
      "midi": 66,
      "hit": false,
      "t": 93000,
      "d": 250,
      "v": 127
    },
    {
      "midi": 61,
      "hit": false,
      "t": 93375,
      "d": 250,
      "v": 100
    },
    {
      "midi": 57,
      "hit": false,
      "t": 93375,
      "d": 125,
      "v": 100
    },
    {
      "midi": 61,
      "hit": false,
      "t": 93375,
      "d": 125,
      "v": 100
    },
    {
      "midi": 45,
      "hit": false,
      "t": 93562.5,
      "d": 375,
      "v": 100
    },
    {
      "midi": 64,
      "hit": false,
      "t": 93750,
      "d": 500,
      "v": 100
    },
    {
      "midi": 57,
      "hit": false,
      "t": 93750,
      "d": 500,
      "v": 100
    },
    {
      "midi": 61,
      "hit": false,
      "t": 93750,
      "d": 500,
      "v": 100
    },
    {
      "midi": 64,
      "hit": false,
      "t": 93750,
      "d": 500,
      "v": 100
    },
    {
      "midi": 40,
      "hit": false,
      "t": 94125,
      "d": 125,
      "v": 100
    },
    {
      "midi": 44,
      "hit": false,
      "t": 94500,
      "d": 500,
      "v": 100
    },
    {
      "midi": 52,
      "hit": false,
      "t": 94500,
      "d": 500,
      "v": 100
    },
    {
      "midi": 56,
      "hit": false,
      "t": 94546.875,
      "d": 4132.8125,
      "v": 84
    },
    {
      "midi": 64,
      "hit": false,
      "t": 94546.875,
      "d": 4132.8125,
      "v": 84
    },
    {
      "midi": 71,
      "hit": false,
      "t": 94546.875,
      "d": 4132.8125,
      "v": 84
    },
    {
      "midi": 59,
      "hit": false,
      "t": 94687.5,
      "d": 250,
      "v": 100
    },
    {
      "midi": 66,
      "hit": false,
      "t": 94742.1875,
      "d": 257.8125,
      "v": 127
    },
    {
      "midi": 66,
      "hit": false,
      "t": 94742.1875,
      "d": 257.8125,
      "v": 127
    },
    {
      "midi": 61,
      "hit": false,
      "t": 95250,
      "d": 250,
      "v": 127
    },
    {
      "midi": 44,
      "hit": false,
      "t": 95250,
      "d": 500,
      "v": 100
    },
    {
      "midi": 52,
      "hit": false,
      "t": 95250,
      "d": 500,
      "v": 100
    },
    {
      "midi": 52,
      "hit": false,
      "t": 95250,
      "d": 250,
      "v": 100
    },
    {
      "midi": 56,
      "hit": false,
      "t": 95250,
      "d": 250,
      "v": 100
    },
    {
      "midi": 61,
      "hit": false,
      "t": 95250,
      "d": 250,
      "v": 127
    },
    {
      "midi": 59,
      "hit": false,
      "t": 95625,
      "d": 734.375,
      "v": 127
    },
    {
      "midi": 52,
      "hit": false,
      "t": 95625,
      "d": 375,
      "v": 100
    },
    {
      "midi": 59,
      "hit": false,
      "t": 95625,
      "d": 734.375,
      "v": 127
    },
    {
      "midi": 56,
      "hit": false,
      "t": 95625,
      "d": 750,
      "v": 100
    },
    {
      "midi": 44,
      "hit": false,
      "t": 96000,
      "d": 375,
      "v": 100
    },
    {
      "midi": 40,
      "hit": false,
      "t": 96562.5,
      "d": 125,
      "v": 100
    },
    {
      "midi": 44,
      "hit": false,
      "t": 96750,
      "d": 500,
      "v": 100
    },
    {
      "midi": 56,
      "hit": false,
      "t": 96750,
      "d": 500,
      "v": 100
    },
    {
      "midi": 59,
      "hit": false,
      "t": 96750,
      "d": 500,
      "v": 100
    },
    {
      "midi": 64,
      "hit": false,
      "t": 96750,
      "d": 500,
      "v": 100
    },
    {
      "midi": 44,
      "hit": false,
      "t": 97500,
      "d": 500,
      "v": 100
    },
    {
      "midi": 56,
      "hit": false,
      "t": 97500,
      "d": 500,
      "v": 100
    },
    {
      "midi": 59,
      "hit": false,
      "t": 97500,
      "d": 500,
      "v": 100
    },
    {
      "midi": 64,
      "hit": false,
      "t": 97500,
      "d": 500,
      "v": 100
    },
    {
      "midi": 47,
      "hit": false,
      "t": 98250,
      "d": 125,
      "v": 100
    },
    {
      "midi": 56,
      "hit": false,
      "t": 98250,
      "d": 500,
      "v": 100
    },
    {
      "midi": 59,
      "hit": false,
      "t": 98250,
      "d": 500,
      "v": 100
    },
    {
      "midi": 64,
      "hit": false,
      "t": 98250,
      "d": 500,
      "v": 100
    },
    {
      "midi": 45,
      "hit": false,
      "t": 98500,
      "d": 125,
      "v": 100
    },
    {
      "midi": 44,
      "hit": false,
      "t": 98757.8125,
      "d": 125,
      "v": 100
    },
    {
      "midi": 43,
      "hit": false,
      "t": 99000,
      "d": 500,
      "v": 100
    },
    {
      "midi": 55,
      "hit": false,
      "t": 99000,
      "d": 500,
      "v": 100
    },
    {
      "midi": 59,
      "hit": false,
      "t": 99000,
      "d": 500,
      "v": 100
    },
    {
      "midi": 55,
      "hit": false,
      "t": 99046.875,
      "d": 4132.8125,
      "v": 84
    },
    {
      "midi": 59,
      "hit": false,
      "t": 99046.875,
      "d": 4132.8125,
      "v": 84
    },
    {
      "midi": 62,
      "hit": false,
      "t": 99046.875,
      "d": 4132.8125,
      "v": 84
    },
    {
      "midi": 62,
      "hit": false,
      "t": 99750,
      "d": 500,
      "v": 100
    },
    {
      "midi": 47,
      "hit": false,
      "t": 99750,
      "d": 500,
      "v": 100
    },
    {
      "midi": 55,
      "hit": false,
      "t": 99750,
      "d": 500,
      "v": 100
    },
    {
      "midi": 59,
      "hit": false,
      "t": 99750,
      "d": 500,
      "v": 100
    },
    {
      "midi": 62,
      "hit": false,
      "t": 99750,
      "d": 500,
      "v": 100
    },
    {
      "midi": 62,
      "hit": false,
      "t": 100500,
      "d": 500,
      "v": 100
    },
    {
      "midi": 43,
      "hit": false,
      "t": 100500,
      "d": 500,
      "v": 100
    },
    {
      "midi": 55,
      "hit": false,
      "t": 100500,
      "d": 500,
      "v": 100
    },
    {
      "midi": 59,
      "hit": false,
      "t": 100500,
      "d": 500,
      "v": 100
    },
    {
      "midi": 62,
      "hit": false,
      "t": 100500,
      "d": 500,
      "v": 100
    },
    {
      "midi": 62,
      "hit": false,
      "t": 101250,
      "d": 375,
      "v": 100
    },
    {
      "midi": 43,
      "hit": false,
      "t": 101250,
      "d": 500,
      "v": 100
    },
    {
      "midi": 62,
      "hit": false,
      "t": 101250,
      "d": 375,
      "v": 100
    },
    {
      "midi": 55,
      "hit": false,
      "t": 101250,
      "d": 500,
      "v": 100
    },
    {
      "midi": 59,
      "hit": false,
      "t": 101250,
      "d": 500,
      "v": 100
    },
    {
      "midi": 64,
      "hit": false,
      "t": 102000,
      "d": 500,
      "v": 100
    },
    {
      "midi": 45,
      "hit": false,
      "t": 102000,
      "d": 500,
      "v": 100
    },
    {
      "midi": 55,
      "hit": false,
      "t": 102000,
      "d": 500,
      "v": 100
    },
    {
      "midi": 59,
      "hit": false,
      "t": 102000,
      "d": 500,
      "v": 100
    },
    {
      "midi": 64,
      "hit": false,
      "t": 102000,
      "d": 500,
      "v": 100
    },
    {
      "midi": 62,
      "hit": false,
      "t": 102750,
      "d": 500,
      "v": 100
    },
    {
      "midi": 43,
      "hit": false,
      "t": 102750,
      "d": 125,
      "v": 100
    },
    {
      "midi": 55,
      "hit": false,
      "t": 102750,
      "d": 500,
      "v": 100
    },
    {
      "midi": 59,
      "hit": false,
      "t": 102750,
      "d": 500,
      "v": 100
    },
    {
      "midi": 62,
      "hit": false,
      "t": 102750,
      "d": 500,
      "v": 100
    },
    {
      "midi": 41,
      "hit": false,
      "t": 103000,
      "d": 125,
      "v": 100
    },
    {
      "midi": 40,
      "hit": false,
      "t": 103257.8125,
      "d": 125,
      "v": 100
    },
    {
      "midi": 62,
      "hit": false,
      "t": 103500,
      "d": 500,
      "v": 100
    },
    {
      "midi": 38,
      "hit": false,
      "t": 103500,
      "d": 500,
      "v": 100
    },
    {
      "midi": 54,
      "hit": false,
      "t": 103500,
      "d": 500,
      "v": 100
    },
    {
      "midi": 62,
      "hit": false,
      "t": 103500,
      "d": 500,
      "v": 100
    },
    {
      "midi": 54,
      "hit": false,
      "t": 103546.875,
      "d": 2203.125,
      "v": 84
    },
    {
      "midi": 57,
      "hit": false,
      "t": 103546.875,
      "d": 2203.125,
      "v": 84
    },
    {
      "midi": 62,
      "hit": false,
      "t": 103546.875,
      "d": 2203.125,
      "v": 84
    },
    {
      "midi": 57,
      "hit": false,
      "t": 104250,
      "d": 500,
      "v": 100
    },
    {
      "midi": 38,
      "hit": false,
      "t": 104250,
      "d": 500,
      "v": 100
    },
    {
      "midi": 57,
      "hit": false,
      "t": 104250,
      "d": 500,
      "v": 100
    },
    {
      "midi": 50,
      "hit": false,
      "t": 105000,
      "d": 375,
      "v": 100
    },
    {
      "midi": 57,
      "hit": false,
      "t": 105000,
      "d": 500,
      "v": 100
    },
    {
      "midi": 62,
      "hit": false,
      "t": 105000,
      "d": 500,
      "v": 100
    },
    {
      "midi": 66,
      "hit": false,
      "t": 105000,
      "d": 500,
      "v": 100
    },
    {
      "midi": 45,
      "hit": false,
      "t": 105562.5,
      "d": 125,
      "v": 100
    },
    {
      "midi": 38,
      "hit": false,
      "t": 105750,
      "d": 500,
      "v": 100
    },
    {
      "midi": 50,
      "hit": false,
      "t": 105750,
      "d": 500,
      "v": 100
    },
    {
      "midi": 66,
      "hit": false,
      "t": 105750,
      "d": 125,
      "v": 100
    },
    {
      "midi": 62,
      "hit": false,
      "t": 106000,
      "d": 125,
      "v": 100
    },
    {
      "midi": 57,
      "hit": false,
      "t": 106257.8125,
      "d": 125,
      "v": 100
    },
    {
      "midi": 37,
      "hit": false,
      "t": 106500,
      "d": 500,
      "v": 100
    },
    {
      "midi": 49,
      "hit": false,
      "t": 106500,
      "d": 500,
      "v": 100
    },
    {
      "midi": 66,
      "hit": false,
      "t": 106500,
      "d": 125,
      "v": 100
    },
    {
      "midi": 62,
      "hit": false,
      "t": 106750,
      "d": 125,
      "v": 100
    },
    {
      "midi": 57,
      "hit": false,
      "t": 106984.375,
      "d": 125,
      "v": 100
    },
    {
      "midi": 66,
      "hit": false,
      "t": 107250,
      "d": 1218.75,
      "v": 66
    },
    {
      "midi": 71,
      "hit": false,
      "t": 107250,
      "d": 1218.75,
      "v": 64
    },
    {
      "midi": 35,
      "hit": false,
      "t": 107250,
      "d": 500,
      "v": 100
    },
    {
      "midi": 47,
      "hit": false,
      "t": 107250,
      "d": 500,
      "v": 100
    },
    {
      "midi": 64,
      "hit": false,
      "t": 107250,
      "d": 125,
      "v": 100
    },
    {
      "midi": 61,
      "hit": false,
      "t": 107437.5,
      "d": 125,
      "v": 100
    },
    {
      "midi": 57,
      "hit": false,
      "t": 107500,
      "d": 117.1875,
      "v": 100
    },
    {
      "midi": 54,
      "hit": false,
      "t": 107757.8125,
      "d": 125,
      "v": 100
    },
    {
      "midi": 57,
      "hit": false,
      "t": 107812.5,
      "d": 125,
      "v": 100
    },
    {
      "midi": 57,
      "hit": false,
      "t": 108000,
      "d": 468.75,
      "v": 64
    },
    {
      "midi": 62,
      "hit": false,
      "t": 108000,
      "d": 468.75,
      "v": 67
    },
    {
      "midi": 54,
      "hit": false,
      "t": 108000,
      "d": 500,
      "v": 67
    },
    {
      "midi": 59,
      "hit": false,
      "t": 108000,
      "d": 2000,
      "v": 65
    },
    {
      "midi": 69,
      "hit": false,
      "t": 108000,
      "d": 2000,
      "v": 66
    },
    {
      "midi": 35,
      "hit": false,
      "t": 108000,
      "d": 187.5,
      "v": 100
    },
    {
      "midi": 47,
      "hit": false,
      "t": 108000,
      "d": 500,
      "v": 100
    },
    {
      "midi": 61,
      "hit": false,
      "t": 108562.5,
      "d": 125,
      "v": 100
    },
    {
      "midi": 61,
      "hit": false,
      "t": 108562.5,
      "d": 125,
      "v": 100
    },
    {
      "midi": 64,
      "hit": false,
      "t": 108750,
      "d": 375,
      "v": 100
    },
    {
      "midi": 47,
      "hit": false,
      "t": 108750,
      "d": 500,
      "v": 100
    },
    {
      "midi": 64,
      "hit": false,
      "t": 108750,
      "d": 375,
      "v": 100
    },
    {
      "midi": 61,
      "hit": false,
      "t": 109312.5,
      "d": 125,
      "v": 100
    },
    {
      "midi": 61,
      "hit": false,
      "t": 109312.5,
      "d": 125,
      "v": 100
    },
    {
      "midi": 64,
      "hit": false,
      "t": 109500,
      "d": 375,
      "v": 100
    },
    {
      "midi": 47,
      "hit": false,
      "t": 109500,
      "d": 375,
      "v": 100
    },
    {
      "midi": 64,
      "hit": false,
      "t": 109500,
      "d": 375,
      "v": 100
    },
    {
      "midi": 61,
      "hit": false,
      "t": 110062.5,
      "d": 125,
      "v": 100
    },
    {
      "midi": 35,
      "hit": false,
      "t": 110062.5,
      "d": 187.5,
      "v": 100
    },
    {
      "midi": 61,
      "hit": false,
      "t": 110062.5,
      "d": 125,
      "v": 100
    },
    {
      "midi": 59,
      "hit": false,
      "t": 110250,
      "d": 1968.75,
      "v": 64
    },
    {
      "midi": 61,
      "hit": false,
      "t": 110250,
      "d": 1968.75,
      "v": 64
    },
    {
      "midi": 64,
      "hit": false,
      "t": 110250,
      "d": 1968.75,
      "v": 64
    },
    {
      "midi": 68,
      "hit": false,
      "t": 110250,
      "d": 1968.75,
      "v": 64
    },
    {
      "midi": 64,
      "hit": false,
      "t": 110250,
      "d": 250,
      "v": 100
    },
    {
      "midi": 37,
      "hit": false,
      "t": 110250,
      "d": 500,
      "v": 100
    },
    {
      "midi": 49,
      "hit": false,
      "t": 110250,
      "d": 500,
      "v": 100
    },
    {
      "midi": 64,
      "hit": false,
      "t": 110250,
      "d": 250,
      "v": 100
    },
    {
      "midi": 66,
      "hit": false,
      "t": 110625,
      "d": 1000,
      "v": 100
    },
    {
      "midi": 56,
      "hit": false,
      "t": 110625,
      "d": 125,
      "v": 100
    },
    {
      "midi": 59,
      "hit": false,
      "t": 110625,
      "d": 125,
      "v": 100
    },
    {
      "midi": 66,
      "hit": false,
      "t": 110625,
      "d": 1000,
      "v": 100
    },
    {
      "midi": 49,
      "hit": false,
      "t": 111000,
      "d": 500,
      "v": 100
    },
    {
      "midi": 49,
      "hit": false,
      "t": 111750,
      "d": 375,
      "v": 100
    },
    {
      "midi": 56,
      "hit": false,
      "t": 111750,
      "d": 500,
      "v": 100
    },
    {
      "midi": 59,
      "hit": false,
      "t": 111750,
      "d": 500,
      "v": 100
    },
    {
      "midi": 37,
      "hit": false,
      "t": 112312.5,
      "d": 125,
      "v": 100
    },
    {
      "midi": 57,
      "hit": false,
      "t": 112500,
      "d": 1984.375,
      "v": 87
    },
    {
      "midi": 62,
      "hit": false,
      "t": 112500,
      "d": 1984.375,
      "v": 87
    },
    {
      "midi": 66,
      "hit": false,
      "t": 112500,
      "d": 1984.375,
      "v": 87
    },
    {
      "midi": 71,
      "hit": false,
      "t": 112500,
      "d": 1984.375,
      "v": 87
    },
    {
      "midi": 35,
      "hit": false,
      "t": 112500,
      "d": 500,
      "v": 100
    },
    {
      "midi": 47,
      "hit": false,
      "t": 112500,
      "d": 500,
      "v": 100
    },
    {
      "midi": 54,
      "hit": false,
      "t": 113195.3125,
      "d": 125,
      "v": 100
    },
    {
      "midi": 64,
      "hit": false,
      "t": 113250,
      "d": 375,
      "v": 100
    },
    {
      "midi": 47,
      "hit": false,
      "t": 113250,
      "d": 500,
      "v": 100
    },
    {
      "midi": 57,
      "hit": false,
      "t": 113250,
      "d": 375,
      "v": 100
    },
    {
      "midi": 64,
      "hit": false,
      "t": 113250,
      "d": 375,
      "v": 100
    },
    {
      "midi": 61,
      "hit": false,
      "t": 113812.5,
      "d": 125,
      "v": 100
    },
    {
      "midi": 61,
      "hit": false,
      "t": 113812.5,
      "d": 125,
      "v": 100
    },
    {
      "midi": 54,
      "hit": false,
      "t": 113945.3125,
      "d": 125,
      "v": 100
    },
    {
      "midi": 64,
      "hit": false,
      "t": 114000,
      "d": 375,
      "v": 100
    },
    {
      "midi": 47,
      "hit": false,
      "t": 114000,
      "d": 375,
      "v": 100
    },
    {
      "midi": 57,
      "hit": false,
      "t": 114000,
      "d": 125,
      "v": 100
    },
    {
      "midi": 64,
      "hit": false,
      "t": 114000,
      "d": 375,
      "v": 100
    },
    {
      "midi": 61,
      "hit": false,
      "t": 114562.5,
      "d": 125,
      "v": 100
    },
    {
      "midi": 35,
      "hit": false,
      "t": 114562.5,
      "d": 125,
      "v": 100
    },
    {
      "midi": 61,
      "hit": false,
      "t": 114562.5,
      "d": 125,
      "v": 100
    },
    {
      "midi": 59,
      "hit": false,
      "t": 114750,
      "d": 1968.75,
      "v": 64
    },
    {
      "midi": 61,
      "hit": false,
      "t": 114750,
      "d": 1968.75,
      "v": 64
    },
    {
      "midi": 64,
      "hit": false,
      "t": 114750,
      "d": 1968.75,
      "v": 64
    },
    {
      "midi": 68,
      "hit": false,
      "t": 114750,
      "d": 1968.75,
      "v": 64
    },
    {
      "midi": 66,
      "hit": false,
      "t": 114750,
      "d": 1000,
      "v": 100
    },
    {
      "midi": 49,
      "hit": false,
      "t": 114750,
      "d": 500,
      "v": 100
    },
    {
      "midi": 56,
      "hit": false,
      "t": 114750,
      "d": 500,
      "v": 100
    },
    {
      "midi": 59,
      "hit": false,
      "t": 114750,
      "d": 500,
      "v": 100
    },
    {
      "midi": 66,
      "hit": false,
      "t": 114750,
      "d": 1000,
      "v": 100
    },
    {
      "midi": 49,
      "hit": false,
      "t": 115500,
      "d": 500,
      "v": 100
    },
    {
      "midi": 56,
      "hit": false,
      "t": 115500,
      "d": 500,
      "v": 100
    },
    {
      "midi": 59,
      "hit": false,
      "t": 115500,
      "d": 500,
      "v": 100
    },
    {
      "midi": 49,
      "hit": false,
      "t": 116250,
      "d": 375,
      "v": 100
    },
    {
      "midi": 56,
      "hit": false,
      "t": 116250,
      "d": 500,
      "v": 100
    },
    {
      "midi": 59,
      "hit": false,
      "t": 116250,
      "d": 500,
      "v": 100
    },
    {
      "midi": 36,
      "hit": false,
      "t": 116812.5,
      "d": 125,
      "v": 100
    },
    {
      "midi": 62,
      "hit": false,
      "t": 117000,
      "d": 1968.75,
      "v": 64
    },
    {
      "midi": 66,
      "hit": false,
      "t": 117000,
      "d": 1968.75,
      "v": 64
    },
    {
      "midi": 69,
      "hit": false,
      "t": 117000,
      "d": 1968.75,
      "v": 64
    },
    {
      "midi": 71,
      "hit": false,
      "t": 117000,
      "d": 1968.75,
      "v": 64
    },
    {
      "midi": 64,
      "hit": false,
      "t": 117000,
      "d": 500,
      "v": 100
    },
    {
      "midi": 35,
      "hit": false,
      "t": 117000,
      "d": 500,
      "v": 100
    },
    {
      "midi": 47,
      "hit": false,
      "t": 117000,
      "d": 500,
      "v": 100
    },
    {
      "midi": 54,
      "hit": false,
      "t": 117000,
      "d": 500,
      "v": 100
    },
    {
      "midi": 57,
      "hit": false,
      "t": 117000,
      "d": 500,
      "v": 100
    },
    {
      "midi": 64,
      "hit": false,
      "t": 117000,
      "d": 500,
      "v": 100
    },
    {
      "midi": 64,
      "hit": false,
      "t": 117750,
      "d": 500,
      "v": 100
    },
    {
      "midi": 35,
      "hit": false,
      "t": 117750,
      "d": 500,
      "v": 100
    },
    {
      "midi": 47,
      "hit": false,
      "t": 117750,
      "d": 500,
      "v": 100
    },
    {
      "midi": 54,
      "hit": false,
      "t": 117750,
      "d": 500,
      "v": 100
    },
    {
      "midi": 57,
      "hit": false,
      "t": 117750,
      "d": 500,
      "v": 100
    },
    {
      "midi": 64,
      "hit": false,
      "t": 117750,
      "d": 500,
      "v": 100
    },
    {
      "midi": 64,
      "hit": false,
      "t": 118500,
      "d": 375,
      "v": 100
    },
    {
      "midi": 35,
      "hit": false,
      "t": 118500,
      "d": 125,
      "v": 100
    },
    {
      "midi": 64,
      "hit": false,
      "t": 118500,
      "d": 375,
      "v": 100
    },
    {
      "midi": 54,
      "hit": false,
      "t": 118500,
      "d": 500,
      "v": 100
    },
    {
      "midi": 57,
      "hit": false,
      "t": 118500,
      "d": 500,
      "v": 100
    },
    {
      "midi": 36,
      "hit": false,
      "t": 118750,
      "d": 125,
      "v": 100
    },
    {
      "midi": 38,
      "hit": false,
      "t": 119007.8125,
      "d": 125,
      "v": 100
    },
    {
      "midi": 61,
      "hit": false,
      "t": 119062.5,
      "d": 125,
      "v": 100
    },
    {
      "midi": 61,
      "hit": false,
      "t": 119062.5,
      "d": 125,
      "v": 100
    },
    {
      "midi": 59,
      "hit": false,
      "t": 119250,
      "d": 1968.75,
      "v": 64
    },
    {
      "midi": 63,
      "hit": false,
      "t": 119250,
      "d": 1968.75,
      "v": 64
    },
    {
      "midi": 64,
      "hit": false,
      "t": 119250,
      "d": 1968.75,
      "v": 64
    },
    {
      "midi": 68,
      "hit": false,
      "t": 119250,
      "d": 1968.75,
      "v": 64
    },
    {
      "midi": 66,
      "hit": false,
      "t": 119250,
      "d": 375,
      "v": 100
    },
    {
      "midi": 37,
      "hit": false,
      "t": 119250,
      "d": 500,
      "v": 100
    },
    {
      "midi": 49,
      "hit": false,
      "t": 119250,
      "d": 500,
      "v": 100
    },
    {
      "midi": 66,
      "hit": false,
      "t": 119250,
      "d": 375,
      "v": 100
    },
    {
      "midi": 56,
      "hit": false,
      "t": 119250,
      "d": 750,
      "v": 100
    },
    {
      "midi": 59,
      "hit": false,
      "t": 119250,
      "d": 750,
      "v": 100
    },
    {
      "midi": 64,
      "hit": false,
      "t": 119812.5,
      "d": 125,
      "v": 100
    },
    {
      "midi": 64,
      "hit": false,
      "t": 119812.5,
      "d": 125,
      "v": 100
    },
    {
      "midi": 66,
      "hit": false,
      "t": 120000,
      "d": 375,
      "v": 100
    },
    {
      "midi": 37,
      "hit": false,
      "t": 120000,
      "d": 500,
      "v": 100
    },
    {
      "midi": 49,
      "hit": false,
      "t": 120000,
      "d": 500,
      "v": 100
    },
    {
      "midi": 66,
      "hit": false,
      "t": 120000,
      "d": 375,
      "v": 100
    },
    {
      "midi": 56,
      "hit": false,
      "t": 120000,
      "d": 750,
      "v": 100
    },
    {
      "midi": 59,
      "hit": false,
      "t": 120000,
      "d": 750,
      "v": 100
    },
    {
      "midi": 64,
      "hit": false,
      "t": 120562.5,
      "d": 125,
      "v": 100
    },
    {
      "midi": 64,
      "hit": false,
      "t": 120562.5,
      "d": 125,
      "v": 100
    },
    {
      "midi": 66,
      "hit": false,
      "t": 120750,
      "d": 375,
      "v": 100
    },
    {
      "midi": 37,
      "hit": false,
      "t": 120750,
      "d": 125,
      "v": 100
    },
    {
      "midi": 66,
      "hit": false,
      "t": 120750,
      "d": 375,
      "v": 100
    },
    {
      "midi": 56,
      "hit": false,
      "t": 120750,
      "d": 750,
      "v": 100
    },
    {
      "midi": 59,
      "hit": false,
      "t": 120750,
      "d": 750,
      "v": 100
    },
    {
      "midi": 38,
      "hit": false,
      "t": 121000,
      "d": 125,
      "v": 100
    },
    {
      "midi": 40,
      "hit": false,
      "t": 121257.8125,
      "d": 125,
      "v": 100
    },
    {
      "midi": 64,
      "hit": false,
      "t": 121312.5,
      "d": 125,
      "v": 100
    },
    {
      "midi": 64,
      "hit": false,
      "t": 121312.5,
      "d": 125,
      "v": 100
    },
    {
      "midi": 61,
      "hit": false,
      "t": 121500,
      "d": 2250,
      "v": 80
    },
    {
      "midi": 66,
      "hit": false,
      "t": 121500,
      "d": 2250,
      "v": 80
    },
    {
      "midi": 69,
      "hit": false,
      "t": 121500,
      "d": 2250,
      "v": 80
    },
    {
      "midi": 76,
      "hit": false,
      "t": 121500,
      "d": 2250,
      "v": 80
    },
    {
      "midi": 69,
      "hit": false,
      "t": 121500,
      "d": 375,
      "v": 100
    },
    {
      "midi": 35,
      "hit": false,
      "t": 121500,
      "d": 500,
      "v": 100
    },
    {
      "midi": 47,
      "hit": false,
      "t": 121500,
      "d": 500,
      "v": 100
    },
    {
      "midi": 69,
      "hit": false,
      "t": 121500,
      "d": 375,
      "v": 100
    },
    {
      "midi": 57,
      "hit": false,
      "t": 121500,
      "d": 750,
      "v": 100
    },
    {
      "midi": 61,
      "hit": false,
      "t": 121500,
      "d": 750,
      "v": 100
    },
    {
      "midi": 64,
      "hit": false,
      "t": 122062.5,
      "d": 125,
      "v": 100
    },
    {
      "midi": 64,
      "hit": false,
      "t": 122062.5,
      "d": 125,
      "v": 100
    },
    {
      "midi": 66,
      "hit": false,
      "t": 122250,
      "d": 875,
      "v": 100
    },
    {
      "midi": 35,
      "hit": false,
      "t": 122250,
      "d": 500,
      "v": 100
    },
    {
      "midi": 47,
      "hit": false,
      "t": 122250,
      "d": 500,
      "v": 100
    },
    {
      "midi": 57,
      "hit": false,
      "t": 122250,
      "d": 750,
      "v": 100
    },
    {
      "midi": 61,
      "hit": false,
      "t": 122250,
      "d": 750,
      "v": 100
    },
    {
      "midi": 66,
      "hit": false,
      "t": 122250,
      "d": 875,
      "v": 100
    },
    {
      "midi": 35,
      "hit": false,
      "t": 123000,
      "d": 125,
      "v": 100
    },
    {
      "midi": 36,
      "hit": false,
      "t": 123250,
      "d": 125,
      "v": 100
    },
    {
      "midi": 38,
      "hit": false,
      "t": 123507.8125,
      "d": 125,
      "v": 100
    },
    {
      "midi": 64,
      "hit": false,
      "t": 123562.5,
      "d": 125,
      "v": 100
    },
    {
      "midi": 64,
      "hit": false,
      "t": 123562.5,
      "d": 125,
      "v": 100
    },
    {
      "midi": 57,
      "hit": false,
      "t": 123750,
      "d": 2250,
      "v": 80
    },
    {
      "midi": 59,
      "hit": false,
      "t": 123750,
      "d": 2250,
      "v": 80
    },
    {
      "midi": 62,
      "hit": false,
      "t": 123750,
      "d": 2250,
      "v": 80
    },
    {
      "midi": 66,
      "hit": false,
      "t": 123750,
      "d": 2250,
      "v": 80
    },
    {
      "midi": 73,
      "hit": false,
      "t": 123750,
      "d": 500,
      "v": 100
    },
    {
      "midi": 40,
      "hit": false,
      "t": 123750,
      "d": 500,
      "v": 100
    },
    {
      "midi": 52,
      "hit": false,
      "t": 123750,
      "d": 500,
      "v": 100
    },
    {
      "midi": 62,
      "hit": false,
      "t": 123750,
      "d": 500,
      "v": 100
    },
    {
      "midi": 66,
      "hit": false,
      "t": 123750,
      "d": 500,
      "v": 100
    },
    {
      "midi": 69,
      "hit": false,
      "t": 123750,
      "d": 500,
      "v": 100
    },
    {
      "midi": 73,
      "hit": false,
      "t": 123750,
      "d": 500,
      "v": 100
    },
    {
      "midi": 71,
      "hit": false,
      "t": 124500,
      "d": 500,
      "v": 100
    },
    {
      "midi": 52,
      "hit": false,
      "t": 124500,
      "d": 312.5,
      "v": 100
    },
    {
      "midi": 62,
      "hit": false,
      "t": 124500,
      "d": 500,
      "v": 100
    },
    {
      "midi": 66,
      "hit": false,
      "t": 124500,
      "d": 500,
      "v": 100
    },
    {
      "midi": 71,
      "hit": false,
      "t": 124500,
      "d": 500,
      "v": 100
    },
    {
      "midi": 40,
      "hit": false,
      "t": 124929.6875,
      "d": 203.125,
      "v": 100
    },
    {
      "midi": 69,
      "hit": false,
      "t": 125250,
      "d": 375,
      "v": 100
    },
    {
      "midi": 52,
      "hit": false,
      "t": 125250,
      "d": 500,
      "v": 100
    },
    {
      "midi": 69,
      "hit": false,
      "t": 125250,
      "d": 375,
      "v": 100
    },
    {
      "midi": 62,
      "hit": false,
      "t": 125250,
      "d": 500,
      "v": 100
    },
    {
      "midi": 66,
      "hit": false,
      "t": 125250,
      "d": 500,
      "v": 100
    },
    {
      "midi": 71,
      "hit": false,
      "t": 125757.8125,
      "d": 125,
      "v": 100
    },
    {
      "midi": 71,
      "hit": false,
      "t": 125757.8125,
      "d": 125,
      "v": 100
    },
    {
      "midi": 61,
      "hit": false,
      "t": 126000,
      "d": 2250,
      "v": 80
    },
    {
      "midi": 64,
      "hit": false,
      "t": 126000,
      "d": 2250,
      "v": 80
    },
    {
      "midi": 69,
      "hit": false,
      "t": 126000,
      "d": 2250,
      "v": 80
    },
    {
      "midi": 69,
      "hit": false,
      "t": 126000,
      "d": 125,
      "v": 100
    },
    {
      "midi": 45,
      "hit": false,
      "t": 126000,
      "d": 1000,
      "v": 100
    },
    {
      "midi": 54,
      "hit": false,
      "t": 126000,
      "d": 125,
      "v": 100
    },
    {
      "midi": 57,
      "hit": false,
      "t": 126000,
      "d": 125,
      "v": 100
    },
    {
      "midi": 69,
      "hit": false,
      "t": 126000,
      "d": 125,
      "v": 100
    },
    {
      "midi": 66,
      "hit": false,
      "t": 126187.5,
      "d": 125,
      "v": 100
    },
    {
      "midi": 66,
      "hit": false,
      "t": 126187.5,
      "d": 125,
      "v": 100
    },
    {
      "midi": 64,
      "hit": false,
      "t": 126375,
      "d": 750,
      "v": 100
    },
    {
      "midi": 57,
      "hit": false,
      "t": 126375,
      "d": 500,
      "v": 100
    },
    {
      "midi": 61,
      "hit": false,
      "t": 126375,
      "d": 500,
      "v": 100
    },
    {
      "midi": 64,
      "hit": false,
      "t": 126375,
      "d": 750,
      "v": 100
    },
    {
      "midi": 45,
      "hit": false,
      "t": 127500,
      "d": 250,
      "v": 100
    },
    {
      "midi": 52,
      "hit": false,
      "t": 127500,
      "d": 250,
      "v": 100
    },
    {
      "midi": 57,
      "hit": false,
      "t": 127500,
      "d": 125,
      "v": 100
    },
    {
      "midi": 61,
      "hit": false,
      "t": 127500,
      "d": 125,
      "v": 100
    },
    {
      "midi": 62,
      "hit": false,
      "t": 127750,
      "d": 125,
      "v": 100
    },
    {
      "midi": 47,
      "hit": false,
      "t": 127804.6875,
      "d": 125,
      "v": 100
    },
    {
      "midi": 48,
      "hit": false,
      "t": 127992.1875,
      "d": 125,
      "v": 100
    },
    {
      "midi": 64,
      "hit": false,
      "t": 128007.8125,
      "d": 125,
      "v": 100
    },
    {
      "midi": 62,
      "hit": false,
      "t": 128250,
      "d": 2250,
      "v": 80
    },
    {
      "midi": 66,
      "hit": false,
      "t": 128250,
      "d": 2250,
      "v": 80
    },
    {
      "midi": 69,
      "hit": false,
      "t": 128250,
      "d": 2250,
      "v": 80
    },
    {
      "midi": 73,
      "hit": false,
      "t": 128250,
      "d": 500,
      "v": 100
    },
    {
      "midi": 50,
      "hit": false,
      "t": 128250,
      "d": 500,
      "v": 100
    },
    {
      "midi": 62,
      "hit": false,
      "t": 128250,
      "d": 500,
      "v": 100
    },
    {
      "midi": 66,
      "hit": false,
      "t": 128250,
      "d": 500,
      "v": 100
    },
    {
      "midi": 69,
      "hit": false,
      "t": 128250,
      "d": 500,
      "v": 100
    },
    {
      "midi": 73,
      "hit": false,
      "t": 128250,
      "d": 500,
      "v": 100
    },
    {
      "midi": 71,
      "hit": false,
      "t": 129000,
      "d": 500,
      "v": 100
    },
    {
      "midi": 50,
      "hit": false,
      "t": 129000,
      "d": 375,
      "v": 100
    },
    {
      "midi": 62,
      "hit": false,
      "t": 129000,
      "d": 500,
      "v": 100
    },
    {
      "midi": 66,
      "hit": false,
      "t": 129000,
      "d": 500,
      "v": 100
    },
    {
      "midi": 71,
      "hit": false,
      "t": 129000,
      "d": 500,
      "v": 100
    },
    {
      "midi": 38,
      "hit": false,
      "t": 129562.5,
      "d": 125,
      "v": 100
    },
    {
      "midi": 69,
      "hit": false,
      "t": 129750,
      "d": 375,
      "v": 100
    },
    {
      "midi": 50,
      "hit": false,
      "t": 129750,
      "d": 500,
      "v": 100
    },
    {
      "midi": 69,
      "hit": false,
      "t": 129750,
      "d": 375,
      "v": 100
    },
    {
      "midi": 62,
      "hit": false,
      "t": 129750,
      "d": 500,
      "v": 100
    },
    {
      "midi": 66,
      "hit": false,
      "t": 129750,
      "d": 500,
      "v": 100
    },
    {
      "midi": 71,
      "hit": false,
      "t": 130257.8125,
      "d": 125,
      "v": 100
    },
    {
      "midi": 71,
      "hit": false,
      "t": 130257.8125,
      "d": 125,
      "v": 100
    },
    {
      "midi": 61,
      "hit": false,
      "t": 130500,
      "d": 1968.75,
      "v": 80
    },
    {
      "midi": 64,
      "hit": false,
      "t": 130500,
      "d": 1968.75,
      "v": 80
    },
    {
      "midi": 69,
      "hit": false,
      "t": 130500,
      "d": 1968.75,
      "v": 80
    },
    {
      "midi": 69,
      "hit": false,
      "t": 130500,
      "d": 125,
      "v": 100
    },
    {
      "midi": 45,
      "hit": false,
      "t": 130500,
      "d": 1000,
      "v": 100
    },
    {
      "midi": 54,
      "hit": false,
      "t": 130500,
      "d": 125,
      "v": 100
    },
    {
      "midi": 57,
      "hit": false,
      "t": 130500,
      "d": 125,
      "v": 100
    },
    {
      "midi": 69,
      "hit": false,
      "t": 130500,
      "d": 125,
      "v": 100
    },
    {
      "midi": 66,
      "hit": false,
      "t": 130687.5,
      "d": 125,
      "v": 100
    },
    {
      "midi": 66,
      "hit": false,
      "t": 130687.5,
      "d": 125,
      "v": 100
    },
    {
      "midi": 64,
      "hit": false,
      "t": 130875,
      "d": 750,
      "v": 100
    },
    {
      "midi": 57,
      "hit": false,
      "t": 130875,
      "d": 500,
      "v": 100
    },
    {
      "midi": 61,
      "hit": false,
      "t": 130875,
      "d": 500,
      "v": 100
    },
    {
      "midi": 64,
      "hit": false,
      "t": 130875,
      "d": 750,
      "v": 100
    },
    {
      "midi": 45,
      "hit": false,
      "t": 132000,
      "d": 250,
      "v": 100
    },
    {
      "midi": 57,
      "hit": false,
      "t": 132000,
      "d": 125,
      "v": 100
    },
    {
      "midi": 61,
      "hit": false,
      "t": 132000,
      "d": 125,
      "v": 100
    },
    {
      "midi": 62,
      "hit": false,
      "t": 132250,
      "d": 125,
      "v": 100
    },
    {
      "midi": 47,
      "hit": false,
      "t": 132304.6875,
      "d": 125,
      "v": 100
    },
    {
      "midi": 48,
      "hit": false,
      "t": 132492.1875,
      "d": 125,
      "v": 100
    },
    {
      "midi": 64,
      "hit": false,
      "t": 132507.8125,
      "d": 125,
      "v": 100
    },
    {
      "midi": 62,
      "hit": false,
      "t": 132750,
      "d": 1968.75,
      "v": 64
    },
    {
      "midi": 66,
      "hit": false,
      "t": 132750,
      "d": 1968.75,
      "v": 64
    },
    {
      "midi": 69,
      "hit": false,
      "t": 132750,
      "d": 1968.75,
      "v": 64
    },
    {
      "midi": 73,
      "hit": false,
      "t": 132750,
      "d": 500,
      "v": 100
    },
    {
      "midi": 50,
      "hit": false,
      "t": 132750,
      "d": 500,
      "v": 100
    },
    {
      "midi": 62,
      "hit": false,
      "t": 132750,
      "d": 500,
      "v": 100
    },
    {
      "midi": 66,
      "hit": false,
      "t": 132750,
      "d": 500,
      "v": 100
    },
    {
      "midi": 69,
      "hit": false,
      "t": 132750,
      "d": 500,
      "v": 100
    },
    {
      "midi": 73,
      "hit": false,
      "t": 132750,
      "d": 500,
      "v": 100
    },
    {
      "midi": 71,
      "hit": false,
      "t": 133500,
      "d": 500,
      "v": 100
    },
    {
      "midi": 50,
      "hit": false,
      "t": 133500,
      "d": 375,
      "v": 100
    },
    {
      "midi": 62,
      "hit": false,
      "t": 133500,
      "d": 500,
      "v": 100
    },
    {
      "midi": 66,
      "hit": false,
      "t": 133500,
      "d": 500,
      "v": 100
    },
    {
      "midi": 71,
      "hit": false,
      "t": 133500,
      "d": 500,
      "v": 100
    },
    {
      "midi": 38,
      "hit": false,
      "t": 134062.5,
      "d": 125,
      "v": 100
    },
    {
      "midi": 69,
      "hit": false,
      "t": 134250,
      "d": 375,
      "v": 100
    },
    {
      "midi": 50,
      "hit": false,
      "t": 134250,
      "d": 500,
      "v": 100
    },
    {
      "midi": 69,
      "hit": false,
      "t": 134250,
      "d": 375,
      "v": 100
    },
    {
      "midi": 62,
      "hit": false,
      "t": 134250,
      "d": 500,
      "v": 100
    },
    {
      "midi": 66,
      "hit": false,
      "t": 134250,
      "d": 500,
      "v": 100
    },
    {
      "midi": 71,
      "hit": false,
      "t": 134757.8125,
      "d": 125,
      "v": 100
    },
    {
      "midi": 71,
      "hit": false,
      "t": 134757.8125,
      "d": 125,
      "v": 100
    },
    {
      "midi": 61,
      "hit": false,
      "t": 135000,
      "d": 1968.75,
      "v": 80
    },
    {
      "midi": 69,
      "hit": false,
      "t": 135000,
      "d": 1968.75,
      "v": 80
    },
    {
      "midi": 69,
      "hit": false,
      "t": 135000,
      "d": 500,
      "v": 100
    },
    {
      "midi": 45,
      "hit": false,
      "t": 135000,
      "d": 500,
      "v": 100
    },
    {
      "midi": 52,
      "hit": false,
      "t": 135000,
      "d": 500,
      "v": 100
    },
    {
      "midi": 54,
      "hit": false,
      "t": 135000,
      "d": 500,
      "v": 100
    },
    {
      "midi": 57,
      "hit": false,
      "t": 135000,
      "d": 500,
      "v": 100
    },
    {
      "midi": 69,
      "hit": false,
      "t": 135000,
      "d": 500,
      "v": 100
    },
    {
      "midi": 66,
      "hit": false,
      "t": 135750,
      "d": 500,
      "v": 100
    },
    {
      "midi": 50,
      "hit": false,
      "t": 135750,
      "d": 500,
      "v": 100
    },
    {
      "midi": 54,
      "hit": false,
      "t": 135750,
      "d": 500,
      "v": 100
    },
    {
      "midi": 59,
      "hit": false,
      "t": 135750,
      "d": 500,
      "v": 100
    },
    {
      "midi": 66,
      "hit": false,
      "t": 135750,
      "d": 500,
      "v": 100
    },
    {
      "midi": 64,
      "hit": false,
      "t": 136500,
      "d": 375,
      "v": 100
    },
    {
      "midi": 49,
      "hit": false,
      "t": 136500,
      "d": 500,
      "v": 100
    },
    {
      "midi": 64,
      "hit": false,
      "t": 136500,
      "d": 375,
      "v": 100
    },
    {
      "midi": 54,
      "hit": false,
      "t": 136500,
      "d": 500,
      "v": 100
    },
    {
      "midi": 66,
      "hit": false,
      "t": 137062.5,
      "d": 125,
      "v": 100
    },
    {
      "midi": 66,
      "hit": false,
      "t": 137062.5,
      "d": 125,
      "v": 100
    },
    {
      "midi": 61,
      "hit": false,
      "t": 137250,
      "d": 1968.75,
      "v": 64
    },
    {
      "midi": 64,
      "hit": false,
      "t": 137250,
      "d": 1968.75,
      "v": 64
    },
    {
      "midi": 69,
      "hit": false,
      "t": 137250,
      "d": 1968.75,
      "v": 64
    },
    {
      "midi": 61,
      "hit": false,
      "t": 137250,
      "d": 500,
      "v": 100
    },
    {
      "midi": 45,
      "hit": false,
      "t": 137250,
      "d": 500,
      "v": 100
    },
    {
      "midi": 52,
      "hit": false,
      "t": 137250,
      "d": 500,
      "v": 100
    },
    {
      "midi": 57,
      "hit": false,
      "t": 137250,
      "d": 500,
      "v": 100
    },
    {
      "midi": 61,
      "hit": false,
      "t": 137250,
      "d": 500,
      "v": 100
    },
    {
      "midi": 59,
      "hit": false,
      "t": 138000,
      "d": 500,
      "v": 100
    },
    {
      "midi": 38,
      "hit": false,
      "t": 138000,
      "d": 500,
      "v": 100
    },
    {
      "midi": 50,
      "hit": false,
      "t": 138000,
      "d": 500,
      "v": 100
    },
    {
      "midi": 54,
      "hit": false,
      "t": 138000,
      "d": 500,
      "v": 100
    },
    {
      "midi": 59,
      "hit": false,
      "t": 138000,
      "d": 500,
      "v": 100
    },
    {
      "midi": 57,
      "hit": false,
      "t": 138750,
      "d": 500,
      "v": 100
    },
    {
      "midi": 37,
      "hit": false,
      "t": 138750,
      "d": 500,
      "v": 100
    },
    {
      "midi": 49,
      "hit": false,
      "t": 138750,
      "d": 500,
      "v": 100
    },
    {
      "midi": 52,
      "hit": false,
      "t": 138750,
      "d": 500,
      "v": 100
    },
    {
      "midi": 57,
      "hit": false,
      "t": 138750,
      "d": 500,
      "v": 100
    },
    {
      "midi": 57,
      "hit": false,
      "t": 139500,
      "d": 4132.8125,
      "v": 84
    },
    {
      "midi": 62,
      "hit": false,
      "t": 139500,
      "d": 4132.8125,
      "v": 84
    },
    {
      "midi": 66,
      "hit": false,
      "t": 139500,
      "d": 4132.8125,
      "v": 84
    },
    {
      "midi": 71,
      "hit": false,
      "t": 139500,
      "d": 4132.8125,
      "v": 84
    },
    {
      "midi": 61,
      "hit": false,
      "t": 139500,
      "d": 250,
      "v": 100
    },
    {
      "midi": 35,
      "hit": false,
      "t": 139500,
      "d": 500,
      "v": 100
    },
    {
      "midi": 47,
      "hit": false,
      "t": 139500,
      "d": 500,
      "v": 100
    },
    {
      "midi": 54,
      "hit": false,
      "t": 139500,
      "d": 250,
      "v": 100
    },
    {
      "midi": 57,
      "hit": false,
      "t": 139500,
      "d": 250,
      "v": 100
    },
    {
      "midi": 61,
      "hit": false,
      "t": 139500,
      "d": 250,
      "v": 100
    },
    {
      "midi": 59,
      "hit": false,
      "t": 139875,
      "d": 750,
      "v": 100
    },
    {
      "midi": 57,
      "hit": false,
      "t": 139875,
      "d": 500,
      "v": 100
    },
    {
      "midi": 61,
      "hit": false,
      "t": 139875,
      "d": 500,
      "v": 100
    },
    {
      "midi": 59,
      "hit": false,
      "t": 139875,
      "d": 750,
      "v": 100
    },
    {
      "midi": 64,
      "hit": false,
      "t": 139875,
      "d": 750,
      "v": 100
    },
    {
      "midi": 47,
      "hit": false,
      "t": 140250,
      "d": 500,
      "v": 100
    },
    {
      "midi": 47,
      "hit": false,
      "t": 141000,
      "d": 500,
      "v": 100
    },
    {
      "midi": 59,
      "hit": false,
      "t": 141000,
      "d": 125,
      "v": 100
    },
    {
      "midi": 62,
      "hit": false,
      "t": 141250,
      "d": 125,
      "v": 100
    },
    {
      "midi": 66,
      "hit": false,
      "t": 141507.8125,
      "d": 125,
      "v": 100
    },
    {
      "midi": 40,
      "hit": false,
      "t": 141750,
      "d": 1000,
      "v": 100
    },
    {
      "midi": 59,
      "hit": false,
      "t": 141750,
      "d": 500,
      "v": 100
    },
    {
      "midi": 62,
      "hit": false,
      "t": 141750,
      "d": 500,
      "v": 100
    },
    {
      "midi": 66,
      "hit": false,
      "t": 141750,
      "d": 500,
      "v": 100
    },
    {
      "midi": 69,
      "hit": false,
      "t": 141750,
      "d": 500,
      "v": 100
    },
    {
      "midi": 59,
      "hit": false,
      "t": 142500,
      "d": 500,
      "v": 100
    },
    {
      "midi": 62,
      "hit": false,
      "t": 142500,
      "d": 500,
      "v": 100
    },
    {
      "midi": 66,
      "hit": false,
      "t": 142500,
      "d": 500,
      "v": 100
    },
    {
      "midi": 38,
      "hit": false,
      "t": 143250,
      "d": 125,
      "v": 100
    },
    {
      "midi": 54,
      "hit": false,
      "t": 143250,
      "d": 500,
      "v": 100
    },
    {
      "midi": 59,
      "hit": false,
      "t": 143250,
      "d": 500,
      "v": 100
    },
    {
      "midi": 62,
      "hit": false,
      "t": 143250,
      "d": 500,
      "v": 100
    },
    {
      "midi": 37,
      "hit": false,
      "t": 143500,
      "d": 125,
      "v": 100
    },
    {
      "midi": 35,
      "hit": false,
      "t": 143757.8125,
      "d": 125,
      "v": 100
    },
    {
      "midi": 61,
      "hit": false,
      "t": 144000,
      "d": 4437.5,
      "v": 91
    },
    {
      "midi": 69,
      "hit": false,
      "t": 144000,
      "d": 4437.5,
      "v": 91
    },
    {
      "midi": 33,
      "hit": false,
      "t": 144000,
      "d": 500,
      "v": 100
    },
    {
      "midi": 57,
      "hit": false,
      "t": 144000,
      "d": 500,
      "v": 100
    },
    {
      "midi": 61,
      "hit": false,
      "t": 144000,
      "d": 500,
      "v": 100
    },
    {
      "midi": 64,
      "hit": false,
      "t": 144000,
      "d": 500,
      "v": 100
    },
    {
      "midi": 45,
      "hit": false,
      "t": 144750,
      "d": 859.375,
      "v": 100
    },
    {
      "midi": 57,
      "hit": false,
      "t": 144750,
      "d": 500,
      "v": 100
    },
    {
      "midi": 61,
      "hit": false,
      "t": 144750,
      "d": 500,
      "v": 100
    },
    {
      "midi": 64,
      "hit": false,
      "t": 144750,
      "d": 500,
      "v": 100
    },
    {
      "midi": 57,
      "hit": false,
      "t": 145500,
      "d": 500,
      "v": 100
    },
    {
      "midi": 61,
      "hit": false,
      "t": 145500,
      "d": 500,
      "v": 100
    },
    {
      "midi": 64,
      "hit": false,
      "t": 145500,
      "d": 500,
      "v": 100
    },
    {
      "midi": 40,
      "hit": false,
      "t": 145992.1875,
      "d": 125,
      "v": 100
    },
    {
      "midi": 69,
      "hit": false,
      "t": 146250,
      "d": 375,
      "v": 100
    },
    {
      "midi": 45,
      "hit": false,
      "t": 146250,
      "d": 375,
      "v": 100
    },
    {
      "midi": 57,
      "hit": false,
      "t": 146250,
      "d": 375,
      "v": 100
    },
    {
      "midi": 61,
      "hit": false,
      "t": 146250,
      "d": 375,
      "v": 100
    },
    {
      "midi": 69,
      "hit": false,
      "t": 146250,
      "d": 375,
      "v": 100
    },
    {
      "midi": 64,
      "hit": false,
      "t": 146812.5,
      "d": 125,
      "v": 100
    },
    {
      "midi": 45,
      "hit": false,
      "t": 146812.5,
      "d": 500,
      "v": 100
    },
    {
      "midi": 64,
      "hit": false,
      "t": 146812.5,
      "d": 125,
      "v": 100
    },
    {
      "midi": 66,
      "hit": false,
      "t": 147000,
      "d": 375,
      "v": 100
    },
    {
      "midi": 57,
      "hit": false,
      "t": 147000,
      "d": 375,
      "v": 100
    },
    {
      "midi": 61,
      "hit": false,
      "t": 147000,
      "d": 375,
      "v": 100
    },
    {
      "midi": 66,
      "hit": false,
      "t": 147000,
      "d": 375,
      "v": 100
    },
    {
      "midi": 64,
      "hit": false,
      "t": 147562.5,
      "d": 125,
      "v": 100
    },
    {
      "midi": 45,
      "hit": false,
      "t": 147562.5,
      "d": 500,
      "v": 100
    },
    {
      "midi": 64,
      "hit": false,
      "t": 147562.5,
      "d": 125,
      "v": 100
    },
    {
      "midi": 66,
      "hit": false,
      "t": 147750,
      "d": 375,
      "v": 100
    },
    {
      "midi": 57,
      "hit": false,
      "t": 147750,
      "d": 375,
      "v": 100
    },
    {
      "midi": 61,
      "hit": false,
      "t": 147750,
      "d": 375,
      "v": 100
    },
    {
      "midi": 66,
      "hit": false,
      "t": 147750,
      "d": 375,
      "v": 100
    },
    {
      "midi": 64,
      "hit": false,
      "t": 148312.5,
      "d": 125,
      "v": 100
    },
    {
      "midi": 45,
      "hit": false,
      "t": 148312.5,
      "d": 125,
      "v": 100
    },
    {
      "midi": 64,
      "hit": false,
      "t": 148312.5,
      "d": 125,
      "v": 100
    },
    {
      "midi": 59,
      "hit": false,
      "t": 148500,
      "d": 4437.5,
      "v": 91
    },
    {
      "midi": 67,
      "hit": false,
      "t": 148500,
      "d": 4437.5,
      "v": 91
    },
    {
      "midi": 67,
      "hit": false,
      "t": 148500,
      "d": 375,
      "v": 100
    },
    {
      "midi": 45,
      "hit": false,
      "t": 148500,
      "d": 500,
      "v": 100
    },
    {
      "midi": 59,
      "hit": false,
      "t": 148500,
      "d": 375,
      "v": 100
    },
    {
      "midi": 62,
      "hit": false,
      "t": 148500,
      "d": 375,
      "v": 100
    },
    {
      "midi": 67,
      "hit": false,
      "t": 148500,
      "d": 375,
      "v": 100
    },
    {
      "midi": 66,
      "hit": false,
      "t": 149062.5,
      "d": 125,
      "v": 100
    },
    {
      "midi": 66,
      "hit": false,
      "t": 149062.5,
      "d": 125,
      "v": 100
    },
    {
      "midi": 64,
      "hit": false,
      "t": 149250,
      "d": 375,
      "v": 100
    },
    {
      "midi": 45,
      "hit": false,
      "t": 149250,
      "d": 500,
      "v": 100
    },
    {
      "midi": 59,
      "hit": false,
      "t": 149250,
      "d": 375,
      "v": 100
    },
    {
      "midi": 62,
      "hit": false,
      "t": 149250,
      "d": 375,
      "v": 100
    },
    {
      "midi": 64,
      "hit": false,
      "t": 149250,
      "d": 375,
      "v": 100
    },
    {
      "midi": 66,
      "hit": false,
      "t": 149812.5,
      "d": 125,
      "v": 100
    },
    {
      "midi": 66,
      "hit": false,
      "t": 149812.5,
      "d": 125,
      "v": 100
    },
    {
      "midi": 38,
      "hit": false,
      "t": 150000,
      "d": 500,
      "v": 100
    },
    {
      "midi": 66,
      "hit": false,
      "t": 150000,
      "d": 375,
      "v": 100
    },
    {
      "midi": 59,
      "hit": false,
      "t": 150000,
      "d": 375,
      "v": 100
    },
    {
      "midi": 62,
      "hit": false,
      "t": 150000,
      "d": 375,
      "v": 100
    },
    {
      "midi": 66,
      "hit": false,
      "t": 150562.5,
      "d": 125,
      "v": 100
    },
    {
      "midi": 45,
      "hit": false,
      "t": 150750,
      "d": 500,
      "v": 100
    },
    {
      "midi": 67,
      "hit": false,
      "t": 150750,
      "d": 375,
      "v": 100
    },
    {
      "midi": 59,
      "hit": false,
      "t": 150750,
      "d": 375,
      "v": 100
    },
    {
      "midi": 62,
      "hit": false,
      "t": 150750,
      "d": 375,
      "v": 100
    },
    {
      "midi": 66,
      "hit": false,
      "t": 151312.5,
      "d": 125,
      "v": 100
    },
    {
      "midi": 45,
      "hit": false,
      "t": 151500,
      "d": 375,
      "v": 100
    },
    {
      "midi": 64,
      "hit": false,
      "t": 151500,
      "d": 500,
      "v": 100
    },
    {
      "midi": 59,
      "hit": false,
      "t": 151500,
      "d": 500,
      "v": 100
    },
    {
      "midi": 62,
      "hit": false,
      "t": 151500,
      "d": 500,
      "v": 100
    },
    {
      "midi": 52,
      "hit": false,
      "t": 152062.5,
      "d": 125,
      "v": 100
    },
    {
      "midi": 38,
      "hit": false,
      "t": 152250,
      "d": 500,
      "v": 100
    },
    {
      "midi": 50,
      "hit": false,
      "t": 152250,
      "d": 500,
      "v": 100
    },
    {
      "midi": 66,
      "hit": false,
      "t": 152250,
      "d": 500,
      "v": 100
    },
    {
      "midi": 57,
      "hit": false,
      "t": 152250,
      "d": 500,
      "v": 100
    },
    {
      "midi": 62,
      "hit": false,
      "t": 152250,
      "d": 500,
      "v": 100
    },
    {
      "midi": 57,
      "hit": false,
      "t": 153000,
      "d": 4437.5,
      "v": 91
    },
    {
      "midi": 61,
      "hit": false,
      "t": 153000,
      "d": 4437.5,
      "v": 91
    },
    {
      "midi": 64,
      "hit": false,
      "t": 153000,
      "d": 4437.5,
      "v": 91
    },
    {
      "midi": 45,
      "hit": false,
      "t": 153000,
      "d": 375,
      "v": 100
    },
    {
      "midi": 57,
      "hit": false,
      "t": 153000,
      "d": 500,
      "v": 100
    },
    {
      "midi": 61,
      "hit": false,
      "t": 153000,
      "d": 500,
      "v": 100
    },
    {
      "midi": 64,
      "hit": false,
      "t": 153000,
      "d": 500,
      "v": 100
    },
    {
      "midi": 45,
      "hit": false,
      "t": 153562.5,
      "d": 500,
      "v": 100
    },
    {
      "midi": 69,
      "hit": false,
      "t": 153750,
      "d": 375,
      "v": 100
    },
    {
      "midi": 57,
      "hit": false,
      "t": 153750,
      "d": 500,
      "v": 100
    },
    {
      "midi": 61,
      "hit": false,
      "t": 153750,
      "d": 500,
      "v": 100
    },
    {
      "midi": 64,
      "hit": false,
      "t": 154312.5,
      "d": 125,
      "v": 100
    },
    {
      "midi": 45,
      "hit": false,
      "t": 154312.5,
      "d": 500,
      "v": 100
    },
    {
      "midi": 66,
      "hit": false,
      "t": 154500,
      "d": 375,
      "v": 100
    },
    {
      "midi": 57,
      "hit": false,
      "t": 154500,
      "d": 500,
      "v": 100
    },
    {
      "midi": 61,
      "hit": false,
      "t": 154500,
      "d": 500,
      "v": 100
    },
    {
      "midi": 64,
      "hit": false,
      "t": 155062.5,
      "d": 125,
      "v": 100
    },
    {
      "midi": 45,
      "hit": false,
      "t": 155062.5,
      "d": 125,
      "v": 100
    },
    {
      "midi": 66,
      "hit": false,
      "t": 155250,
      "d": 375,
      "v": 100
    },
    {
      "midi": 33,
      "hit": false,
      "t": 155250,
      "d": 375,
      "v": 100
    },
    {
      "midi": 57,
      "hit": false,
      "t": 155250,
      "d": 500,
      "v": 100
    },
    {
      "midi": 61,
      "hit": false,
      "t": 155250,
      "d": 500,
      "v": 100
    },
    {
      "midi": 64,
      "hit": false,
      "t": 155250,
      "d": 500,
      "v": 100
    },
    {
      "midi": 64,
      "hit": false,
      "t": 155812.5,
      "d": 125,
      "v": 100
    },
    {
      "midi": 45,
      "hit": false,
      "t": 155812.5,
      "d": 500,
      "v": 100
    },
    {
      "midi": 66,
      "hit": false,
      "t": 156000,
      "d": 375,
      "v": 100
    },
    {
      "midi": 57,
      "hit": false,
      "t": 156000,
      "d": 500,
      "v": 100
    },
    {
      "midi": 61,
      "hit": false,
      "t": 156000,
      "d": 500,
      "v": 100
    },
    {
      "midi": 64,
      "hit": false,
      "t": 156562.5,
      "d": 125,
      "v": 100
    },
    {
      "midi": 45,
      "hit": false,
      "t": 156562.5,
      "d": 500,
      "v": 100
    },
    {
      "midi": 67,
      "hit": false,
      "t": 156750,
      "d": 1000,
      "v": 100
    },
    {
      "midi": 57,
      "hit": false,
      "t": 156750,
      "d": 500,
      "v": 100
    },
    {
      "midi": 61,
      "hit": false,
      "t": 156750,
      "d": 500,
      "v": 100
    },
    {
      "midi": 45,
      "hit": false,
      "t": 157312.5,
      "d": 125,
      "v": 100
    },
    {
      "midi": 55,
      "hit": false,
      "t": 157500,
      "d": 4437.5,
      "v": 91
    },
    {
      "midi": 59,
      "hit": false,
      "t": 157500,
      "d": 4437.5,
      "v": 91
    },
    {
      "midi": 62,
      "hit": false,
      "t": 157500,
      "d": 4437.5,
      "v": 91
    },
    {
      "midi": 67,
      "hit": false,
      "t": 157500,
      "d": 4437.5,
      "v": 91
    },
    {
      "midi": 45,
      "hit": false,
      "t": 157500,
      "d": 500,
      "v": 100
    },
    {
      "midi": 59,
      "hit": false,
      "t": 157500,
      "d": 375,
      "v": 100
    },
    {
      "midi": 62,
      "hit": false,
      "t": 157500,
      "d": 375,
      "v": 100
    },
    {
      "midi": 64,
      "hit": false,
      "t": 157875,
      "d": 250,
      "v": 100
    },
    {
      "midi": 64,
      "hit": false,
      "t": 158250,
      "d": 1000,
      "v": 100
    },
    {
      "midi": 45,
      "hit": false,
      "t": 158250,
      "d": 500,
      "v": 100
    },
    {
      "midi": 59,
      "hit": false,
      "t": 158250,
      "d": 375,
      "v": 100
    },
    {
      "midi": 62,
      "hit": false,
      "t": 158250,
      "d": 375,
      "v": 100
    },
    {
      "midi": 45,
      "hit": false,
      "t": 159000,
      "d": 375,
      "v": 100
    },
    {
      "midi": 59,
      "hit": false,
      "t": 159000,
      "d": 375,
      "v": 100
    },
    {
      "midi": 62,
      "hit": false,
      "t": 159000,
      "d": 375,
      "v": 100
    },
    {
      "midi": 38,
      "hit": false,
      "t": 159562.5,
      "d": 125,
      "v": 100
    },
    {
      "midi": 45,
      "hit": false,
      "t": 159750,
      "d": 500,
      "v": 100
    },
    {
      "midi": 67,
      "hit": false,
      "t": 159750,
      "d": 375,
      "v": 100
    },
    {
      "midi": 59,
      "hit": false,
      "t": 159750,
      "d": 375,
      "v": 100
    },
    {
      "midi": 62,
      "hit": false,
      "t": 159750,
      "d": 375,
      "v": 100
    },
    {
      "midi": 66,
      "hit": false,
      "t": 160312.5,
      "d": 125,
      "v": 100
    },
    {
      "midi": 45,
      "hit": false,
      "t": 160500,
      "d": 500,
      "v": 100
    },
    {
      "midi": 64,
      "hit": false,
      "t": 160500,
      "d": 500,
      "v": 100
    },
    {
      "midi": 59,
      "hit": false,
      "t": 160500,
      "d": 500,
      "v": 100
    },
    {
      "midi": 62,
      "hit": false,
      "t": 160500,
      "d": 500,
      "v": 100
    },
    {
      "midi": 45,
      "hit": false,
      "t": 161250,
      "d": 125,
      "v": 100
    },
    {
      "midi": 66,
      "hit": false,
      "t": 161250,
      "d": 500,
      "v": 100
    },
    {
      "midi": 57,
      "hit": false,
      "t": 161250,
      "d": 500,
      "v": 100
    },
    {
      "midi": 62,
      "hit": false,
      "t": 161250,
      "d": 500,
      "v": 100
    },
    {
      "midi": 47,
      "hit": false,
      "t": 161500,
      "d": 125,
      "v": 100
    },
    {
      "midi": 48,
      "hit": false,
      "t": 161757.8125,
      "d": 125,
      "v": 100
    },
    {
      "midi": 54,
      "hit": false,
      "t": 162000,
      "d": 4218.75,
      "v": 91
    },
    {
      "midi": 61,
      "hit": false,
      "t": 162000,
      "d": 4218.75,
      "v": 91
    },
    {
      "midi": 64,
      "hit": false,
      "t": 162000,
      "d": 4218.75,
      "v": 91
    },
    {
      "midi": 69,
      "hit": false,
      "t": 162000,
      "d": 4218.75,
      "v": 91
    },
    {
      "midi": 50,
      "hit": false,
      "t": 162000,
      "d": 500,
      "v": 100
    },
    {
      "midi": 57,
      "hit": false,
      "t": 162000,
      "d": 500,
      "v": 100
    },
    {
      "midi": 61,
      "hit": false,
      "t": 162000,
      "d": 500,
      "v": 100
    },
    {
      "midi": 64,
      "hit": false,
      "t": 162000,
      "d": 500,
      "v": 100
    },
    {
      "midi": 38,
      "hit": false,
      "t": 162750,
      "d": 875,
      "v": 100
    },
    {
      "midi": 57,
      "hit": false,
      "t": 162750,
      "d": 500,
      "v": 100
    },
    {
      "midi": 61,
      "hit": false,
      "t": 162750,
      "d": 500,
      "v": 100
    },
    {
      "midi": 57,
      "hit": false,
      "t": 163500,
      "d": 500,
      "v": 100
    },
    {
      "midi": 61,
      "hit": false,
      "t": 163500,
      "d": 500,
      "v": 100
    },
    {
      "midi": 45,
      "hit": false,
      "t": 164062.5,
      "d": 125,
      "v": 100
    },
    {
      "midi": 66,
      "hit": false,
      "t": 164250,
      "d": 250,
      "v": 100
    },
    {
      "midi": 50,
      "hit": false,
      "t": 164250,
      "d": 500,
      "v": 100
    },
    {
      "midi": 57,
      "hit": false,
      "t": 164250,
      "d": 500,
      "v": 100
    },
    {
      "midi": 61,
      "hit": false,
      "t": 164250,
      "d": 500,
      "v": 100
    },
    {
      "midi": 69,
      "hit": false,
      "t": 164625,
      "d": 750,
      "v": 100
    },
    {
      "midi": 38,
      "hit": false,
      "t": 165000,
      "d": 500,
      "v": 100
    },
    {
      "midi": 57,
      "hit": false,
      "t": 165000,
      "d": 500,
      "v": 100
    },
    {
      "midi": 61,
      "hit": false,
      "t": 165000,
      "d": 500,
      "v": 100
    },
    {
      "midi": 66,
      "hit": false,
      "t": 165000,
      "d": 500,
      "v": 100
    },
    {
      "midi": 71,
      "hit": false,
      "t": 165750,
      "d": 250,
      "v": 100
    },
    {
      "midi": 50,
      "hit": false,
      "t": 165750,
      "d": 500,
      "v": 100
    },
    {
      "midi": 61,
      "hit": false,
      "t": 165750,
      "d": 500,
      "v": 100
    },
    {
      "midi": 66,
      "hit": false,
      "t": 165750,
      "d": 500,
      "v": 100
    },
    {
      "midi": 69,
      "hit": false,
      "t": 166312.5,
      "d": 125,
      "v": 100
    },
    {
      "midi": 55,
      "hit": false,
      "t": 166500,
      "d": 4164.0625,
      "v": 64
    },
    {
      "midi": 60,
      "hit": false,
      "t": 166500,
      "d": 4164.0625,
      "v": 64
    },
    {
      "midi": 64,
      "hit": false,
      "t": 166500,
      "d": 4164.0625,
      "v": 64
    },
    {
      "midi": 69,
      "hit": false,
      "t": 166500,
      "d": 4164.0625,
      "v": 64
    },
    {
      "midi": 72,
      "hit": false,
      "t": 166500,
      "d": 375,
      "v": 100
    },
    {
      "midi": 50,
      "hit": false,
      "t": 166500,
      "d": 500,
      "v": 100
    },
    {
      "midi": 71,
      "hit": false,
      "t": 167062.5,
      "d": 125,
      "v": 100
    },
    {
      "midi": 69,
      "hit": false,
      "t": 167250,
      "d": 375,
      "v": 100
    },
    {
      "midi": 50,
      "hit": false,
      "t": 167250,
      "d": 500,
      "v": 100
    },
    {
      "midi": 71,
      "hit": false,
      "t": 167812.5,
      "d": 125,
      "v": 100
    },
    {
      "midi": 38,
      "hit": false,
      "t": 168000,
      "d": 375,
      "v": 100
    },
    {
      "midi": 38,
      "hit": false,
      "t": 168562.5,
      "d": 125,
      "v": 100
    },
    {
      "midi": 50,
      "hit": false,
      "t": 168750,
      "d": 500,
      "v": 100
    },
    {
      "midi": 72,
      "hit": false,
      "t": 168750,
      "d": 375,
      "v": 100
    },
    {
      "midi": 71,
      "hit": false,
      "t": 169312.5,
      "d": 125,
      "v": 100
    },
    {
      "midi": 50,
      "hit": false,
      "t": 169500,
      "d": 500,
      "v": 100
    },
    {
      "midi": 69,
      "hit": false,
      "t": 169500,
      "d": 375,
      "v": 100
    },
    {
      "midi": 71,
      "hit": false,
      "t": 170062.5,
      "d": 125,
      "v": 100
    },
    {
      "midi": 50,
      "hit": false,
      "t": 170250,
      "d": 375,
      "v": 100
    },
    {
      "midi": 38,
      "hit": false,
      "t": 170812.5,
      "d": 125,
      "v": 100
    },
    {
      "midi": 54,
      "hit": false,
      "t": 171000,
      "d": 2250,
      "v": 80
    },
    {
      "midi": 62,
      "hit": false,
      "t": 171000,
      "d": 2250,
      "v": 80
    },
    {
      "midi": 69,
      "hit": false,
      "t": 171000,
      "d": 2250,
      "v": 80
    },
    {
      "midi": 38,
      "hit": false,
      "t": 171000,
      "d": 500,
      "v": 100
    },
    {
      "midi": 50,
      "hit": false,
      "t": 171000,
      "d": 500,
      "v": 100
    },
    {
      "midi": 69,
      "hit": false,
      "t": 171750,
      "d": 375,
      "v": 100
    },
    {
      "midi": 50,
      "hit": false,
      "t": 171750,
      "d": 500,
      "v": 100
    },
    {
      "midi": 69,
      "hit": false,
      "t": 171750,
      "d": 375,
      "v": 100
    },
    {
      "midi": 66,
      "hit": false,
      "t": 172312.5,
      "d": 125,
      "v": 100
    },
    {
      "midi": 66,
      "hit": false,
      "t": 172312.5,
      "d": 125,
      "v": 100
    },
    {
      "midi": 69,
      "hit": false,
      "t": 172500,
      "d": 375,
      "v": 100
    },
    {
      "midi": 38,
      "hit": false,
      "t": 172500,
      "d": 375,
      "v": 100
    },
    {
      "midi": 69,
      "hit": false,
      "t": 172500,
      "d": 375,
      "v": 100
    },
    {
      "midi": 66,
      "hit": false,
      "t": 173062.5,
      "d": 125,
      "v": 100
    },
    {
      "midi": 38,
      "hit": false,
      "t": 173062.5,
      "d": 125,
      "v": 100
    },
    {
      "midi": 66,
      "hit": false,
      "t": 173062.5,
      "d": 125,
      "v": 100
    },
    {
      "midi": 57,
      "hit": false,
      "t": 173250,
      "d": 1968.75,
      "v": 80
    },
    {
      "midi": 61,
      "hit": false,
      "t": 173250,
      "d": 1968.75,
      "v": 80
    },
    {
      "midi": 64,
      "hit": false,
      "t": 173250,
      "d": 1968.75,
      "v": 80
    },
    {
      "midi": 69,
      "hit": false,
      "t": 173250,
      "d": 375,
      "v": 100
    },
    {
      "midi": 49,
      "hit": false,
      "t": 173250,
      "d": 500,
      "v": 100
    },
    {
      "midi": 69,
      "hit": false,
      "t": 173250,
      "d": 375,
      "v": 100
    },
    {
      "midi": 66,
      "hit": false,
      "t": 173812.5,
      "d": 125,
      "v": 100
    },
    {
      "midi": 66,
      "hit": false,
      "t": 173812.5,
      "d": 125,
      "v": 100
    },
    {
      "midi": 76,
      "hit": false,
      "t": 174000,
      "d": 250,
      "v": 100
    },
    {
      "midi": 49,
      "hit": false,
      "t": 174000,
      "d": 500,
      "v": 100
    },
    {
      "midi": 76,
      "hit": false,
      "t": 174000,
      "d": 250,
      "v": 100
    },
    {
      "midi": 72,
      "hit": false,
      "t": 174375,
      "d": 250,
      "v": 100
    },
    {
      "midi": 72,
      "hit": false,
      "t": 174375,
      "d": 250,
      "v": 100
    },
    {
      "midi": 71,
      "hit": false,
      "t": 174750,
      "d": 250,
      "v": 100
    },
    {
      "midi": 49,
      "hit": false,
      "t": 174750,
      "d": 375,
      "v": 100
    },
    {
      "midi": 71,
      "hit": false,
      "t": 174750,
      "d": 250,
      "v": 100
    },
    {
      "midi": 69,
      "hit": false,
      "t": 175125,
      "d": 125,
      "v": 100
    },
    {
      "midi": 69,
      "hit": false,
      "t": 175125,
      "d": 125,
      "v": 100
    },
    {
      "midi": 66,
      "hit": false,
      "t": 175312.5,
      "d": 125,
      "v": 100
    },
    {
      "midi": 49,
      "hit": false,
      "t": 175312.5,
      "d": 125,
      "v": 100
    },
    {
      "midi": 66,
      "hit": false,
      "t": 175312.5,
      "d": 125,
      "v": 100
    },
    {
      "midi": 57,
      "hit": false,
      "t": 175500,
      "d": 4164.0625,
      "v": 64
    },
    {
      "midi": 59,
      "hit": false,
      "t": 175500,
      "d": 4164.0625,
      "v": 64
    },
    {
      "midi": 62,
      "hit": false,
      "t": 175500,
      "d": 4164.0625,
      "v": 64
    },
    {
      "midi": 66,
      "hit": false,
      "t": 175500,
      "d": 4164.0625,
      "v": 64
    },
    {
      "midi": 71,
      "hit": false,
      "t": 175500,
      "d": 250,
      "v": 100
    },
    {
      "midi": 47,
      "hit": false,
      "t": 175500,
      "d": 500,
      "v": 100
    },
    {
      "midi": 71,
      "hit": false,
      "t": 175500,
      "d": 250,
      "v": 100
    },
    {
      "midi": 69,
      "hit": false,
      "t": 175875,
      "d": 250,
      "v": 100
    },
    {
      "midi": 69,
      "hit": false,
      "t": 175875,
      "d": 250,
      "v": 100
    },
    {
      "midi": 66,
      "hit": false,
      "t": 176250,
      "d": 500,
      "v": 100
    },
    {
      "midi": 35,
      "hit": false,
      "t": 176250,
      "d": 500,
      "v": 100
    },
    {
      "midi": 47,
      "hit": false,
      "t": 176250,
      "d": 500,
      "v": 100
    },
    {
      "midi": 66,
      "hit": false,
      "t": 176250,
      "d": 500,
      "v": 100
    },
    {
      "midi": 38,
      "hit": false,
      "t": 177000,
      "d": 500,
      "v": 100
    },
    {
      "midi": 50,
      "hit": false,
      "t": 177000,
      "d": 500,
      "v": 100
    },
    {
      "midi": 73,
      "hit": false,
      "t": 177375,
      "d": 1000,
      "v": 100
    },
    {
      "midi": 73,
      "hit": false,
      "t": 177375,
      "d": 1000,
      "v": 100
    },
    {
      "midi": 40,
      "hit": false,
      "t": 177750,
      "d": 500,
      "v": 100
    },
    {
      "midi": 52,
      "hit": false,
      "t": 177750,
      "d": 500,
      "v": 100
    },
    {
      "midi": 69,
      "hit": false,
      "t": 178500,
      "d": 500,
      "v": 100
    },
    {
      "midi": 40,
      "hit": false,
      "t": 178500,
      "d": 500,
      "v": 100
    },
    {
      "midi": 69,
      "hit": false,
      "t": 178500,
      "d": 500,
      "v": 100
    },
    {
      "midi": 71,
      "hit": false,
      "t": 179250,
      "d": 500,
      "v": 100
    },
    {
      "midi": 40,
      "hit": false,
      "t": 179250,
      "d": 125,
      "v": 100
    },
    {
      "midi": 71,
      "hit": false,
      "t": 179250,
      "d": 500,
      "v": 100
    },
    {
      "midi": 41,
      "hit": false,
      "t": 179500,
      "d": 125,
      "v": 100
    },
    {
      "midi": 43,
      "hit": false,
      "t": 179757.8125,
      "d": 125,
      "v": 100
    },
    {
      "midi": 61,
      "hit": false,
      "t": 180000,
      "d": 2250,
      "v": 80
    },
    {
      "midi": 69,
      "hit": false,
      "t": 180000,
      "d": 2250,
      "v": 80
    },
    {
      "midi": 76,
      "hit": false,
      "t": 180000,
      "d": 2250,
      "v": 80
    },
    {
      "midi": 69,
      "hit": false,
      "t": 180000,
      "d": 125,
      "v": 100
    },
    {
      "midi": 45,
      "hit": false,
      "t": 180000,
      "d": 1000,
      "v": 100
    },
    {
      "midi": 69,
      "hit": false,
      "t": 180000,
      "d": 125,
      "v": 100
    },
    {
      "midi": 66,
      "hit": false,
      "t": 180187.5,
      "d": 125,
      "v": 100
    },
    {
      "midi": 66,
      "hit": false,
      "t": 180187.5,
      "d": 125,
      "v": 100
    },
    {
      "midi": 64,
      "hit": false,
      "t": 180375,
      "d": 750,
      "v": 100
    },
    {
      "midi": 64,
      "hit": false,
      "t": 180375,
      "d": 750,
      "v": 100
    },
    {
      "midi": 45,
      "hit": false,
      "t": 181500,
      "d": 250,
      "v": 100
    },
    {
      "midi": 52,
      "hit": false,
      "t": 181500,
      "d": 250,
      "v": 100
    },
    {
      "midi": 47,
      "hit": false,
      "t": 181804.6875,
      "d": 125,
      "v": 100
    },
    {
      "midi": 48,
      "hit": false,
      "t": 181992.1875,
      "d": 125,
      "v": 100
    },
    {
      "midi": 61,
      "hit": false,
      "t": 182250,
      "d": 1984.375,
      "v": 87
    },
    {
      "midi": 66,
      "hit": false,
      "t": 182250,
      "d": 1984.375,
      "v": 87
    },
    {
      "midi": 69,
      "hit": false,
      "t": 182250,
      "d": 1984.375,
      "v": 87
    },
    {
      "midi": 76,
      "hit": false,
      "t": 182250,
      "d": 1984.375,
      "v": 87
    },
    {
      "midi": 73,
      "hit": false,
      "t": 182250,
      "d": 500,
      "v": 100
    },
    {
      "midi": 50,
      "hit": false,
      "t": 182250,
      "d": 500,
      "v": 100
    },
    {
      "midi": 73,
      "hit": false,
      "t": 182250,
      "d": 500,
      "v": 100
    },
    {
      "midi": 71,
      "hit": false,
      "t": 183000,
      "d": 500,
      "v": 100
    },
    {
      "midi": 50,
      "hit": false,
      "t": 183000,
      "d": 375,
      "v": 100
    },
    {
      "midi": 71,
      "hit": false,
      "t": 183000,
      "d": 500,
      "v": 100
    },
    {
      "midi": 38,
      "hit": false,
      "t": 183562.5,
      "d": 125,
      "v": 100
    },
    {
      "midi": 69,
      "hit": false,
      "t": 183750,
      "d": 375,
      "v": 100
    },
    {
      "midi": 50,
      "hit": false,
      "t": 183750,
      "d": 500,
      "v": 100
    },
    {
      "midi": 69,
      "hit": false,
      "t": 183750,
      "d": 375,
      "v": 100
    },
    {
      "midi": 71,
      "hit": false,
      "t": 184257.8125,
      "d": 125,
      "v": 100
    },
    {
      "midi": 71,
      "hit": false,
      "t": 184257.8125,
      "d": 125,
      "v": 100
    },
    {
      "midi": 61,
      "hit": false,
      "t": 184500,
      "d": 1984.375,
      "v": 87
    },
    {
      "midi": 69,
      "hit": false,
      "t": 184500,
      "d": 1984.375,
      "v": 87
    },
    {
      "midi": 76,
      "hit": false,
      "t": 184500,
      "d": 1984.375,
      "v": 87
    },
    {
      "midi": 69,
      "hit": false,
      "t": 184500,
      "d": 125,
      "v": 100
    },
    {
      "midi": 45,
      "hit": false,
      "t": 184500,
      "d": 1000,
      "v": 100
    },
    {
      "midi": 69,
      "hit": false,
      "t": 184500,
      "d": 125,
      "v": 100
    },
    {
      "midi": 66,
      "hit": false,
      "t": 184687.5,
      "d": 125,
      "v": 100
    },
    {
      "midi": 66,
      "hit": false,
      "t": 184687.5,
      "d": 125,
      "v": 100
    },
    {
      "midi": 64,
      "hit": false,
      "t": 184875,
      "d": 750,
      "v": 100
    },
    {
      "midi": 64,
      "hit": false,
      "t": 184875,
      "d": 750,
      "v": 100
    },
    {
      "midi": 45,
      "hit": false,
      "t": 186000,
      "d": 250,
      "v": 100
    },
    {
      "midi": 47,
      "hit": false,
      "t": 186304.6875,
      "d": 125,
      "v": 100
    },
    {
      "midi": 48,
      "hit": false,
      "t": 186492.1875,
      "d": 125,
      "v": 100
    },
    {
      "midi": 61,
      "hit": false,
      "t": 186750,
      "d": 1750,
      "v": 91
    },
    {
      "midi": 66,
      "hit": false,
      "t": 186750,
      "d": 1750,
      "v": 91
    },
    {
      "midi": 69,
      "hit": false,
      "t": 186750,
      "d": 1750,
      "v": 91
    },
    {
      "midi": 76,
      "hit": false,
      "t": 186750,
      "d": 1750,
      "v": 91
    },
    {
      "midi": 73,
      "hit": false,
      "t": 186750,
      "d": 500,
      "v": 100
    },
    {
      "midi": 50,
      "hit": false,
      "t": 186750,
      "d": 500,
      "v": 100
    },
    {
      "midi": 73,
      "hit": false,
      "t": 186750,
      "d": 500,
      "v": 100
    },
    {
      "midi": 71,
      "hit": false,
      "t": 187500,
      "d": 500,
      "v": 100
    },
    {
      "midi": 50,
      "hit": false,
      "t": 187500,
      "d": 375,
      "v": 100
    },
    {
      "midi": 71,
      "hit": false,
      "t": 187500,
      "d": 500,
      "v": 100
    },
    {
      "midi": 38,
      "hit": false,
      "t": 188062.5,
      "d": 125,
      "v": 100
    },
    {
      "midi": 69,
      "hit": false,
      "t": 188250,
      "d": 375,
      "v": 100
    },
    {
      "midi": 50,
      "hit": false,
      "t": 188250,
      "d": 500,
      "v": 100
    },
    {
      "midi": 69,
      "hit": false,
      "t": 188250,
      "d": 375,
      "v": 100
    },
    {
      "midi": 71,
      "hit": false,
      "t": 188757.8125,
      "d": 125,
      "v": 100
    },
    {
      "midi": 71,
      "hit": false,
      "t": 188757.8125,
      "d": 125,
      "v": 100
    },
    {
      "midi": 61,
      "hit": false,
      "t": 189000,
      "d": 500,
      "v": 100
    },
    {
      "midi": 64,
      "hit": false,
      "t": 189000,
      "d": 500,
      "v": 100
    },
    {
      "midi": 69,
      "hit": false,
      "t": 189000,
      "d": 500,
      "v": 100
    },
    {
      "midi": 69,
      "hit": false,
      "t": 189000,
      "d": 500,
      "v": 100
    },
    {
      "midi": 45,
      "hit": false,
      "t": 189000,
      "d": 500,
      "v": 100
    },
    {
      "midi": 52,
      "hit": false,
      "t": 189000,
      "d": 500,
      "v": 100
    },
    {
      "midi": 69,
      "hit": false,
      "t": 189000,
      "d": 500,
      "v": 100
    },
    {
      "midi": 57,
      "hit": false,
      "t": 189750,
      "d": 500,
      "v": 100
    },
    {
      "midi": 62,
      "hit": false,
      "t": 189750,
      "d": 500,
      "v": 100
    },
    {
      "midi": 66,
      "hit": false,
      "t": 189750,
      "d": 500,
      "v": 100
    },
    {
      "midi": 66,
      "hit": false,
      "t": 189750,
      "d": 500,
      "v": 100
    },
    {
      "midi": 50,
      "hit": false,
      "t": 189750,
      "d": 500,
      "v": 100
    },
    {
      "midi": 66,
      "hit": false,
      "t": 189750,
      "d": 500,
      "v": 100
    },
    {
      "midi": 61,
      "hit": false,
      "t": 190500,
      "d": 500,
      "v": 100
    },
    {
      "midi": 64,
      "hit": false,
      "t": 190500,
      "d": 500,
      "v": 100
    },
    {
      "midi": 69,
      "hit": false,
      "t": 190500,
      "d": 500,
      "v": 100
    },
    {
      "midi": 64,
      "hit": false,
      "t": 190500,
      "d": 375,
      "v": 100
    },
    {
      "midi": 49,
      "hit": false,
      "t": 190500,
      "d": 500,
      "v": 100
    },
    {
      "midi": 64,
      "hit": false,
      "t": 190500,
      "d": 375,
      "v": 100
    },
    {
      "midi": 66,
      "hit": false,
      "t": 191062.5,
      "d": 125,
      "v": 100
    },
    {
      "midi": 66,
      "hit": false,
      "t": 191062.5,
      "d": 125,
      "v": 100
    },
    {
      "midi": 61,
      "hit": false,
      "t": 191250,
      "d": 500,
      "v": 100
    },
    {
      "midi": 64,
      "hit": false,
      "t": 191250,
      "d": 500,
      "v": 100
    },
    {
      "midi": 69,
      "hit": false,
      "t": 191250,
      "d": 500,
      "v": 100
    },
    {
      "midi": 61,
      "hit": false,
      "t": 191250,
      "d": 500,
      "v": 100
    },
    {
      "midi": 45,
      "hit": false,
      "t": 191250,
      "d": 500,
      "v": 100
    },
    {
      "midi": 52,
      "hit": false,
      "t": 191250,
      "d": 500,
      "v": 100
    },
    {
      "midi": 61,
      "hit": false,
      "t": 191250,
      "d": 500,
      "v": 100
    },
    {
      "midi": 57,
      "hit": false,
      "t": 192000,
      "d": 500,
      "v": 100
    },
    {
      "midi": 62,
      "hit": false,
      "t": 192000,
      "d": 500,
      "v": 100
    },
    {
      "midi": 66,
      "hit": false,
      "t": 192000,
      "d": 500,
      "v": 100
    },
    {
      "midi": 59,
      "hit": false,
      "t": 192000,
      "d": 500,
      "v": 100
    },
    {
      "midi": 38,
      "hit": false,
      "t": 192000,
      "d": 500,
      "v": 100
    },
    {
      "midi": 50,
      "hit": false,
      "t": 192000,
      "d": 500,
      "v": 100
    },
    {
      "midi": 59,
      "hit": false,
      "t": 192000,
      "d": 500,
      "v": 100
    },
    {
      "midi": 61,
      "hit": false,
      "t": 192750,
      "d": 500,
      "v": 100
    },
    {
      "midi": 64,
      "hit": false,
      "t": 192750,
      "d": 500,
      "v": 100
    },
    {
      "midi": 69,
      "hit": false,
      "t": 192750,
      "d": 500,
      "v": 100
    },
    {
      "midi": 57,
      "hit": false,
      "t": 192750,
      "d": 500,
      "v": 100
    },
    {
      "midi": 37,
      "hit": false,
      "t": 192750,
      "d": 500,
      "v": 100
    },
    {
      "midi": 49,
      "hit": false,
      "t": 192750,
      "d": 500,
      "v": 100
    },
    {
      "midi": 57,
      "hit": false,
      "t": 192750,
      "d": 500,
      "v": 100
    },
    {
      "midi": 69,
      "hit": false,
      "t": 193500,
      "d": 1500,
      "v": 80
    },
    {
      "midi": 74,
      "hit": false,
      "t": 193500,
      "d": 1500,
      "v": 80
    },
    {
      "midi": 61,
      "hit": false,
      "t": 193500,
      "d": 500,
      "v": 100
    },
    {
      "midi": 47,
      "hit": false,
      "t": 193500,
      "d": 718.75,
      "v": 100
    },
    {
      "midi": 61,
      "hit": false,
      "t": 193500,
      "d": 500,
      "v": 100
    },
    {
      "midi": 59,
      "hit": false,
      "t": 193546.875,
      "d": 1453.125,
      "v": 84
    },
    {
      "midi": 66,
      "hit": false,
      "t": 193546.875,
      "d": 1453.125,
      "v": 84
    },
    {
      "midi": 57,
      "hit": false,
      "t": 193546.875,
      "d": 4132.8125,
      "v": 84
    },
    {
      "midi": 62,
      "hit": false,
      "t": 193546.875,
      "d": 4132.8125,
      "v": 84
    },
    {
      "midi": 64,
      "hit": false,
      "t": 194250,
      "d": 500,
      "v": 100
    },
    {
      "midi": 64,
      "hit": false,
      "t": 194250,
      "d": 500,
      "v": 100
    },
    {
      "midi": 47,
      "hit": false,
      "t": 194601.5625,
      "d": 718.75,
      "v": 100
    },
    {
      "midi": 64,
      "hit": false,
      "t": 195000,
      "d": 500,
      "v": 100
    },
    {
      "midi": 64,
      "hit": false,
      "t": 195000,
      "d": 500,
      "v": 100
    },
    {
      "midi": 47,
      "hit": false,
      "t": 195375,
      "d": 125,
      "v": 100
    },
    {
      "midi": 64,
      "hit": false,
      "t": 195750,
      "d": 250,
      "v": 100
    },
    {
      "midi": 40,
      "hit": false,
      "t": 195750,
      "d": 500,
      "v": 100
    },
    {
      "midi": 52,
      "hit": false,
      "t": 195750,
      "d": 500,
      "v": 100
    },
    {
      "midi": 64,
      "hit": false,
      "t": 195750,
      "d": 250,
      "v": 100
    },
    {
      "midi": 66,
      "hit": false,
      "t": 196125,
      "d": 250,
      "v": 100
    },
    {
      "midi": 66,
      "hit": false,
      "t": 196125,
      "d": 250,
      "v": 100
    },
    {
      "midi": 40,
      "hit": false,
      "t": 196500,
      "d": 500,
      "v": 100
    },
    {
      "midi": 64,
      "hit": false,
      "t": 197062.5,
      "d": 125,
      "v": 100
    },
    {
      "midi": 64,
      "hit": false,
      "t": 197062.5,
      "d": 125,
      "v": 100
    },
    {
      "midi": 66,
      "hit": false,
      "t": 197250,
      "d": 375,
      "v": 100
    },
    {
      "midi": 40,
      "hit": false,
      "t": 197250,
      "d": 125,
      "v": 100
    },
    {
      "midi": 66,
      "hit": false,
      "t": 197250,
      "d": 375,
      "v": 100
    },
    {
      "midi": 41,
      "hit": false,
      "t": 197500,
      "d": 125,
      "v": 100
    },
    {
      "midi": 43,
      "hit": false,
      "t": 197757.8125,
      "d": 125,
      "v": 100
    },
    {
      "midi": 64,
      "hit": false,
      "t": 197812.5,
      "d": 125,
      "v": 100
    },
    {
      "midi": 64,
      "hit": false,
      "t": 197812.5,
      "d": 125,
      "v": 100
    },
    {
      "midi": 61,
      "hit": false,
      "t": 198000,
      "d": 1968.75,
      "v": 80
    },
    {
      "midi": 64,
      "hit": false,
      "t": 198000,
      "d": 1968.75,
      "v": 80
    },
    {
      "midi": 69,
      "hit": false,
      "t": 198000,
      "d": 1968.75,
      "v": 80
    },
    {
      "midi": 69,
      "hit": false,
      "t": 198000,
      "d": 125,
      "v": 100
    },
    {
      "midi": 45,
      "hit": false,
      "t": 198000,
      "d": 1000,
      "v": 100
    },
    {
      "midi": 69,
      "hit": false,
      "t": 198000,
      "d": 125,
      "v": 100
    },
    {
      "midi": 66,
      "hit": false,
      "t": 198187.5,
      "d": 125,
      "v": 100
    },
    {
      "midi": 66,
      "hit": false,
      "t": 198187.5,
      "d": 125,
      "v": 100
    },
    {
      "midi": 64,
      "hit": false,
      "t": 198375,
      "d": 750,
      "v": 100
    },
    {
      "midi": 64,
      "hit": false,
      "t": 198375,
      "d": 750,
      "v": 100
    },
    {
      "midi": 45,
      "hit": false,
      "t": 199500,
      "d": 250,
      "v": 100
    },
    {
      "midi": 52,
      "hit": false,
      "t": 199500,
      "d": 250,
      "v": 100
    },
    {
      "midi": 47,
      "hit": false,
      "t": 199804.6875,
      "d": 125,
      "v": 100
    },
    {
      "midi": 48,
      "hit": false,
      "t": 199992.1875,
      "d": 125,
      "v": 100
    },
    {
      "midi": 61,
      "hit": false,
      "t": 200250,
      "d": 1968.75,
      "v": 64
    },
    {
      "midi": 64,
      "hit": false,
      "t": 200250,
      "d": 1968.75,
      "v": 64
    },
    {
      "midi": 66,
      "hit": false,
      "t": 200250,
      "d": 1968.75,
      "v": 64
    },
    {
      "midi": 69,
      "hit": false,
      "t": 200250,
      "d": 1968.75,
      "v": 64
    },
    {
      "midi": 73,
      "hit": false,
      "t": 200250,
      "d": 500,
      "v": 100
    },
    {
      "midi": 50,
      "hit": false,
      "t": 200250,
      "d": 500,
      "v": 100
    },
    {
      "midi": 73,
      "hit": false,
      "t": 200250,
      "d": 500,
      "v": 100
    },
    {
      "midi": 71,
      "hit": false,
      "t": 201000,
      "d": 500,
      "v": 100
    },
    {
      "midi": 50,
      "hit": false,
      "t": 201000,
      "d": 375,
      "v": 100
    },
    {
      "midi": 71,
      "hit": false,
      "t": 201000,
      "d": 500,
      "v": 100
    },
    {
      "midi": 38,
      "hit": false,
      "t": 201562.5,
      "d": 125,
      "v": 100
    },
    {
      "midi": 69,
      "hit": false,
      "t": 201750,
      "d": 375,
      "v": 100
    },
    {
      "midi": 50,
      "hit": false,
      "t": 201750,
      "d": 500,
      "v": 100
    },
    {
      "midi": 69,
      "hit": false,
      "t": 201750,
      "d": 375,
      "v": 100
    },
    {
      "midi": 71,
      "hit": false,
      "t": 202257.8125,
      "d": 125,
      "v": 100
    },
    {
      "midi": 71,
      "hit": false,
      "t": 202257.8125,
      "d": 125,
      "v": 100
    },
    {
      "midi": 61,
      "hit": false,
      "t": 202500,
      "d": 1984.375,
      "v": 87
    },
    {
      "midi": 69,
      "hit": false,
      "t": 202500,
      "d": 1984.375,
      "v": 87
    },
    {
      "midi": 76,
      "hit": false,
      "t": 202500,
      "d": 1984.375,
      "v": 87
    },
    {
      "midi": 69,
      "hit": false,
      "t": 202500,
      "d": 125,
      "v": 100
    },
    {
      "midi": 45,
      "hit": false,
      "t": 202500,
      "d": 1000,
      "v": 100
    },
    {
      "midi": 69,
      "hit": false,
      "t": 202500,
      "d": 125,
      "v": 100
    },
    {
      "midi": 66,
      "hit": false,
      "t": 202687.5,
      "d": 125,
      "v": 100
    },
    {
      "midi": 66,
      "hit": false,
      "t": 202687.5,
      "d": 125,
      "v": 100
    },
    {
      "midi": 64,
      "hit": false,
      "t": 202875,
      "d": 750,
      "v": 100
    },
    {
      "midi": 64,
      "hit": false,
      "t": 202875,
      "d": 750,
      "v": 100
    },
    {
      "midi": 45,
      "hit": false,
      "t": 204000,
      "d": 250,
      "v": 100
    },
    {
      "midi": 47,
      "hit": false,
      "t": 204304.6875,
      "d": 125,
      "v": 100
    },
    {
      "midi": 48,
      "hit": false,
      "t": 204492.1875,
      "d": 125,
      "v": 100
    },
    {
      "midi": 61,
      "hit": false,
      "t": 204750,
      "d": 1968.75,
      "v": 64
    },
    {
      "midi": 66,
      "hit": false,
      "t": 204750,
      "d": 1968.75,
      "v": 64
    },
    {
      "midi": 69,
      "hit": false,
      "t": 204750,
      "d": 1968.75,
      "v": 64
    },
    {
      "midi": 76,
      "hit": false,
      "t": 204750,
      "d": 1968.75,
      "v": 64
    },
    {
      "midi": 73,
      "hit": false,
      "t": 204750,
      "d": 500,
      "v": 100
    },
    {
      "midi": 50,
      "hit": false,
      "t": 204750,
      "d": 500,
      "v": 100
    },
    {
      "midi": 73,
      "hit": false,
      "t": 204750,
      "d": 500,
      "v": 100
    },
    {
      "midi": 71,
      "hit": false,
      "t": 205500,
      "d": 500,
      "v": 100
    },
    {
      "midi": 50,
      "hit": false,
      "t": 205500,
      "d": 375,
      "v": 100
    },
    {
      "midi": 71,
      "hit": false,
      "t": 205500,
      "d": 500,
      "v": 100
    },
    {
      "midi": 38,
      "hit": false,
      "t": 206062.5,
      "d": 125,
      "v": 100
    },
    {
      "midi": 69,
      "hit": false,
      "t": 206250,
      "d": 375,
      "v": 100
    },
    {
      "midi": 50,
      "hit": false,
      "t": 206250,
      "d": 500,
      "v": 100
    },
    {
      "midi": 69,
      "hit": false,
      "t": 206250,
      "d": 375,
      "v": 100
    },
    {
      "midi": 71,
      "hit": false,
      "t": 206757.8125,
      "d": 125,
      "v": 100
    },
    {
      "midi": 71,
      "hit": false,
      "t": 206757.8125,
      "d": 125,
      "v": 100
    },
    {
      "midi": 61,
      "hit": false,
      "t": 207000,
      "d": 500,
      "v": 100
    },
    {
      "midi": 64,
      "hit": false,
      "t": 207000,
      "d": 500,
      "v": 100
    },
    {
      "midi": 69,
      "hit": false,
      "t": 207000,
      "d": 500,
      "v": 100
    },
    {
      "midi": 69,
      "hit": false,
      "t": 207000,
      "d": 500,
      "v": 100
    },
    {
      "midi": 45,
      "hit": false,
      "t": 207000,
      "d": 500,
      "v": 100
    },
    {
      "midi": 52,
      "hit": false,
      "t": 207000,
      "d": 500,
      "v": 100
    },
    {
      "midi": 69,
      "hit": false,
      "t": 207000,
      "d": 500,
      "v": 100
    },
    {
      "midi": 57,
      "hit": false,
      "t": 207750,
      "d": 500,
      "v": 100
    },
    {
      "midi": 62,
      "hit": false,
      "t": 207750,
      "d": 500,
      "v": 100
    },
    {
      "midi": 66,
      "hit": false,
      "t": 207750,
      "d": 500,
      "v": 100
    },
    {
      "midi": 66,
      "hit": false,
      "t": 207750,
      "d": 500,
      "v": 100
    },
    {
      "midi": 50,
      "hit": false,
      "t": 207750,
      "d": 500,
      "v": 100
    },
    {
      "midi": 66,
      "hit": false,
      "t": 207750,
      "d": 500,
      "v": 100
    },
    {
      "midi": 61,
      "hit": false,
      "t": 208500,
      "d": 500,
      "v": 100
    },
    {
      "midi": 64,
      "hit": false,
      "t": 208500,
      "d": 500,
      "v": 100
    },
    {
      "midi": 69,
      "hit": false,
      "t": 208500,
      "d": 500,
      "v": 100
    },
    {
      "midi": 64,
      "hit": false,
      "t": 208500,
      "d": 375,
      "v": 100
    },
    {
      "midi": 49,
      "hit": false,
      "t": 208500,
      "d": 500,
      "v": 100
    },
    {
      "midi": 64,
      "hit": false,
      "t": 208500,
      "d": 375,
      "v": 100
    },
    {
      "midi": 66,
      "hit": false,
      "t": 209062.5,
      "d": 125,
      "v": 100
    },
    {
      "midi": 66,
      "hit": false,
      "t": 209062.5,
      "d": 125,
      "v": 100
    },
    {
      "midi": 61,
      "hit": false,
      "t": 209250,
      "d": 500,
      "v": 100
    },
    {
      "midi": 64,
      "hit": false,
      "t": 209250,
      "d": 500,
      "v": 100
    },
    {
      "midi": 69,
      "hit": false,
      "t": 209250,
      "d": 500,
      "v": 100
    },
    {
      "midi": 61,
      "hit": false,
      "t": 209250,
      "d": 500,
      "v": 100
    },
    {
      "midi": 45,
      "hit": false,
      "t": 209250,
      "d": 500,
      "v": 100
    },
    {
      "midi": 52,
      "hit": false,
      "t": 209250,
      "d": 500,
      "v": 100
    },
    {
      "midi": 61,
      "hit": false,
      "t": 209250,
      "d": 500,
      "v": 100
    },
    {
      "midi": 57,
      "hit": false,
      "t": 210000,
      "d": 500,
      "v": 100
    },
    {
      "midi": 62,
      "hit": false,
      "t": 210000,
      "d": 500,
      "v": 100
    },
    {
      "midi": 66,
      "hit": false,
      "t": 210000,
      "d": 500,
      "v": 100
    },
    {
      "midi": 59,
      "hit": false,
      "t": 210000,
      "d": 500,
      "v": 100
    },
    {
      "midi": 38,
      "hit": false,
      "t": 210000,
      "d": 500,
      "v": 100
    },
    {
      "midi": 50,
      "hit": false,
      "t": 210000,
      "d": 500,
      "v": 100
    },
    {
      "midi": 59,
      "hit": false,
      "t": 210000,
      "d": 500,
      "v": 100
    },
    {
      "midi": 61,
      "hit": false,
      "t": 210750,
      "d": 500,
      "v": 100
    },
    {
      "midi": 64,
      "hit": false,
      "t": 210750,
      "d": 500,
      "v": 100
    },
    {
      "midi": 69,
      "hit": false,
      "t": 210750,
      "d": 500,
      "v": 100
    },
    {
      "midi": 57,
      "hit": false,
      "t": 210750,
      "d": 500,
      "v": 100
    },
    {
      "midi": 37,
      "hit": false,
      "t": 210750,
      "d": 500,
      "v": 100
    },
    {
      "midi": 49,
      "hit": false,
      "t": 210750,
      "d": 500,
      "v": 100
    },
    {
      "midi": 57,
      "hit": false,
      "t": 210750,
      "d": 500,
      "v": 100
    },
    {
      "midi": 62,
      "hit": false,
      "t": 211500,
      "d": 4164.0625,
      "v": 64
    },
    {
      "midi": 69,
      "hit": false,
      "t": 211500,
      "d": 4164.0625,
      "v": 64
    },
    {
      "midi": 71,
      "hit": false,
      "t": 211500,
      "d": 4164.0625,
      "v": 64
    },
    {
      "midi": 61,
      "hit": false,
      "t": 211500,
      "d": 250,
      "v": 100
    },
    {
      "midi": 47,
      "hit": false,
      "t": 211500,
      "d": 500,
      "v": 100
    },
    {
      "midi": 61,
      "hit": false,
      "t": 211500,
      "d": 250,
      "v": 100
    },
    {
      "midi": 59,
      "hit": false,
      "t": 211875,
      "d": 750,
      "v": 100
    },
    {
      "midi": 59,
      "hit": false,
      "t": 211875,
      "d": 750,
      "v": 100
    },
    {
      "midi": 35,
      "hit": false,
      "t": 212250,
      "d": 500,
      "v": 100
    },
    {
      "midi": 47,
      "hit": false,
      "t": 212250,
      "d": 500,
      "v": 100
    },
    {
      "midi": 52,
      "hit": false,
      "t": 213562.5,
      "d": 125,
      "v": 100
    },
    {
      "midi": 52,
      "hit": false,
      "t": 213562.5,
      "d": 125,
      "v": 100
    },
    {
      "midi": 54,
      "hit": false,
      "t": 213750,
      "d": 500,
      "v": 100
    },
    {
      "midi": 54,
      "hit": false,
      "t": 213750,
      "d": 500,
      "v": 100
    },
    {
      "midi": 57,
      "hit": false,
      "t": 214500,
      "d": 500,
      "v": 100
    },
    {
      "midi": 57,
      "hit": false,
      "t": 214500,
      "d": 500,
      "v": 100
    },
    {
      "midi": 59,
      "hit": false,
      "t": 215250,
      "d": 250,
      "v": 100
    },
    {
      "midi": 59,
      "hit": false,
      "t": 215250,
      "d": 250,
      "v": 100
    },
    {
      "midi": 57,
      "hit": false,
      "t": 215625,
      "d": 250,
      "v": 100
    },
    {
      "midi": 57,
      "hit": false,
      "t": 215625,
      "d": 250,
      "v": 100
    },
    {
      "midi": 40,
      "hit": false,
      "t": 215812.5,
      "d": 125,
      "v": 100
    },
    {
      "midi": 61,
      "hit": false,
      "t": 216000,
      "d": 1968.75,
      "v": 64
    },
    {
      "midi": 69,
      "hit": false,
      "t": 216000,
      "d": 1968.75,
      "v": 64
    },
    {
      "midi": 76,
      "hit": false,
      "t": 216000,
      "d": 1968.75,
      "v": 64
    },
    {
      "midi": 61,
      "hit": false,
      "t": 216000,
      "d": 250,
      "v": 100
    },
    {
      "midi": 45,
      "hit": false,
      "t": 216000,
      "d": 500,
      "v": 100
    },
    {
      "midi": 61,
      "hit": false,
      "t": 216000,
      "d": 250,
      "v": 100
    },
    {
      "midi": 59,
      "hit": false,
      "t": 216375,
      "d": 250,
      "v": 100
    },
    {
      "midi": 59,
      "hit": false,
      "t": 216375,
      "d": 250,
      "v": 100
    },
    {
      "midi": 57,
      "hit": false,
      "t": 216750,
      "d": 500,
      "v": 100
    },
    {
      "midi": 45,
      "hit": false,
      "t": 216750,
      "d": 500,
      "v": 100
    },
    {
      "midi": 57,
      "hit": false,
      "t": 216750,
      "d": 500,
      "v": 100
    },
    {
      "midi": 45,
      "hit": false,
      "t": 217500,
      "d": 250,
      "v": 100
    },
    {
      "midi": 47,
      "hit": false,
      "t": 217804.6875,
      "d": 125,
      "v": 100
    },
    {
      "midi": 48,
      "hit": false,
      "t": 217992.1875,
      "d": 125,
      "v": 100
    },
    {
      "midi": 54,
      "hit": false,
      "t": 218250,
      "d": 500,
      "v": 100
    },
    {
      "midi": 62,
      "hit": false,
      "t": 218250,
      "d": 500,
      "v": 100
    },
    {
      "midi": 69,
      "hit": false,
      "t": 218250,
      "d": 500,
      "v": 100
    },
    {
      "midi": 50,
      "hit": false,
      "t": 218250,
      "d": 500,
      "v": 100
    },
    {
      "midi": 52,
      "hit": false,
      "t": 219000,
      "d": 500,
      "v": 100
    },
    {
      "midi": 57,
      "hit": false,
      "t": 219000,
      "d": 500,
      "v": 100
    },
    {
      "midi": 59,
      "hit": false,
      "t": 219000,
      "d": 500,
      "v": 100
    },
    {
      "midi": 61,
      "hit": false,
      "t": 219000,
      "d": 500,
      "v": 100
    },
    {
      "midi": 69,
      "hit": false,
      "t": 219000,
      "d": 500,
      "v": 100
    },
    {
      "midi": 49,
      "hit": false,
      "t": 219000,
      "d": 500,
      "v": 100
    },
    {
      "midi": 54,
      "hit": false,
      "t": 219750,
      "d": 500,
      "v": 100
    },
    {
      "midi": 57,
      "hit": false,
      "t": 219750,
      "d": 500,
      "v": 100
    },
    {
      "midi": 59,
      "hit": false,
      "t": 219750,
      "d": 500,
      "v": 100
    },
    {
      "midi": 62,
      "hit": false,
      "t": 219750,
      "d": 500,
      "v": 100
    },
    {
      "midi": 71,
      "hit": false,
      "t": 219750,
      "d": 500,
      "v": 100
    },
    {
      "midi": 47,
      "hit": false,
      "t": 219750,
      "d": 500,
      "v": 100
    },
    {
      "midi": 61,
      "hit": false,
      "t": 220500,
      "d": 1968.75,
      "v": 105
    },
    {
      "midi": 64,
      "hit": false,
      "t": 220500,
      "d": 1968.75,
      "v": 111
    },
    {
      "midi": 69,
      "hit": false,
      "t": 220500,
      "d": 1968.75,
      "v": 107
    },
    {
      "midi": 45,
      "hit": false,
      "t": 220500,
      "d": 1500,
      "v": 100
    }
  ]
}