{
  "jsonPath": "World/Swedish Pop/Anna Book/the-shoop-shoop-song-its-in-his-kiss.json",
  "path": "World\\Swedish Pop\\Anna Book\\The Shoop Shoop Song (Its In His Kiss).mid",
  "name": "The Shoop Shoop Song (Its In His Kiss)",
  "difficulty": "Advanced",
  "bpm": 120,
  "notes": [
    {
      "midi": 55,
      "hit": false,
      "t": 6000,
      "d": 234.375,
      "v": 127
    },
    {
      "midi": 59,
      "hit": false,
      "t": 6000,
      "d": 250,
      "v": 127
    },
    {
      "midi": 62,
      "hit": false,
      "t": 6000,
      "d": 272.91666666666697,
      "v": 127
    },
    {
      "midi": 43,
      "hit": false,
      "t": 6000,
      "d": 309.375,
      "v": 127
    },
    {
      "midi": 55,
      "hit": false,
      "t": 7500,
      "d": 335.41666666666697,
      "v": 127
    },
    {
      "midi": 59,
      "hit": false,
      "t": 7500,
      "d": 354.16666666666697,
      "v": 127
    },
    {
      "midi": 62,
      "hit": false,
      "t": 7500,
      "d": 356.25,
      "v": 127
    },
    {
      "midi": 43,
      "hit": false,
      "t": 7500,
      "d": 369.79166666666697,
      "v": 127
    },
    {
      "midi": 53,
      "hit": false,
      "t": 8000,
      "d": 345.83333333333394,
      "v": 127
    },
    {
      "midi": 57,
      "hit": false,
      "t": 8000,
      "d": 348.95833333333394,
      "v": 127
    },
    {
      "midi": 60,
      "hit": false,
      "t": 8000,
      "d": 375,
      "v": 127
    },
    {
      "midi": 41,
      "hit": false,
      "t": 8000,
      "d": 382.29166666666606,
      "v": 127
    },
    {
      "midi": 53,
      "hit": false,
      "t": 9500,
      "d": 260.41666666666606,
      "v": 127
    },
    {
      "midi": 57,
      "hit": false,
      "t": 9500,
      "d": 283.3333333333321,
      "v": 127
    },
    {
      "midi": 41,
      "hit": false,
      "t": 9500,
      "d": 293.7499999999982,
      "v": 127
    },
    {
      "midi": 60,
      "hit": false,
      "t": 9500,
      "d": 304.16666666666424,
      "v": 127
    },
    {
      "midi": 55,
      "hit": false,
      "t": 9999.999999999998,
      "d": 236.45833333333394,
      "v": 127
    },
    {
      "midi": 59,
      "hit": false,
      "t": 9999.999999999998,
      "d": 252.08333333333394,
      "v": 127
    },
    {
      "midi": 62,
      "hit": false,
      "t": 9999.999999999998,
      "d": 265.625,
      "v": 127
    },
    {
      "midi": 43,
      "hit": false,
      "t": 9999.999999999998,
      "d": 267.70833333333394,
      "v": 127
    },
    {
      "midi": 55,
      "hit": false,
      "t": 11499.999999999998,
      "d": 314.58333333333394,
      "v": 127
    },
    {
      "midi": 43,
      "hit": false,
      "t": 11499.999999999998,
      "d": 330.20833333333394,
      "v": 127
    },
    {
      "midi": 59,
      "hit": false,
      "t": 11499.999999999998,
      "d": 333.33333333333394,
      "v": 127
    },
    {
      "midi": 62,
      "hit": false,
      "t": 11499.999999999998,
      "d": 335.4166666666679,
      "v": 127
    },
    {
      "midi": 59,
      "hit": false,
      "t": 12000,
      "d": 354.16666666666606,
      "v": 127
    },
    {
      "midi": 55,
      "hit": false,
      "t": 12000,
      "d": 356.25,
      "v": 127
    },
    {
      "midi": 62,
      "hit": false,
      "t": 12000,
      "d": 356.25,
      "v": 127
    },
    {
      "midi": 43,
      "hit": false,
      "t": 12000,
      "d": 369.79166666666606,
      "v": 127
    },
    {
      "midi": 57,
      "hit": false,
      "t": 14000,
      "d": 869.7916666666661,
      "v": 127
    },
    {
      "midi": 62,
      "hit": false,
      "t": 14250,
      "d": 293.75,
      "v": 127
    },
    {
      "midi": 65,
      "hit": false,
      "t": 14500,
      "d": 416.66666666666606,
      "v": 127
    },
    {
      "midi": 62,
      "hit": false,
      "t": 14875,
      "d": 75,
      "v": 127
    },
    {
      "midi": 55,
      "hit": false,
      "t": 15000,
      "d": 830.2083333333339,
      "v": 127
    },
    {
      "midi": 59,
      "hit": false,
      "t": 15250,
      "d": 213.54166666666606,
      "v": 127
    },
    {
      "midi": 62,
      "hit": false,
      "t": 15500,
      "d": 494.7916666666679,
      "v": 127
    },
    {
      "midi": 59,
      "hit": false,
      "t": 15750,
      "d": 205.20833333333394,
      "v": 127
    },
    {
      "midi": 57,
      "hit": false,
      "t": 16000.000000000002,
      "d": 869.7916666666661,
      "v": 127
    },
    {
      "midi": 62,
      "hit": false,
      "t": 16250.000000000002,
      "d": 257.29166666666606,
      "v": 127
    },
    {
      "midi": 65,
      "hit": false,
      "t": 16500,
      "d": 432.2916666666679,
      "v": 127
    },
    {
      "midi": 62,
      "hit": false,
      "t": 16875,
      "d": 93.75,
      "v": 127
    },
    {
      "midi": 55,
      "hit": false,
      "t": 17000,
      "d": 854.1666666666679,
      "v": 127
    },
    {
      "midi": 59,
      "hit": false,
      "t": 17250,
      "d": 231.25,
      "v": 127
    },
    {
      "midi": 62,
      "hit": false,
      "t": 17500,
      "d": 507.2916666666679,
      "v": 127
    },
    {
      "midi": 59,
      "hit": false,
      "t": 17750,
      "d": 231.25,
      "v": 127
    },
    {
      "midi": 57,
      "hit": false,
      "t": 18000,
      "d": 825,
      "v": 127
    },
    {
      "midi": 62,
      "hit": false,
      "t": 18250,
      "d": 231.25,
      "v": 127
    },
    {
      "midi": 65,
      "hit": false,
      "t": 18500,
      "d": 434.375,
      "v": 127
    },
    {
      "midi": 62,
      "hit": false,
      "t": 18875,
      "d": 93.75,
      "v": 127
    },
    {
      "midi": 55,
      "hit": false,
      "t": 19000,
      "d": 854.1666666666679,
      "v": 127
    },
    {
      "midi": 59,
      "hit": false,
      "t": 19250,
      "d": 252.08333333333212,
      "v": 127
    },
    {
      "midi": 62,
      "hit": false,
      "t": 19500,
      "d": 502.08333333333576,
      "v": 127
    },
    {
      "midi": 59,
      "hit": false,
      "t": 19750,
      "d": 223.95833333333576,
      "v": 127
    },
    {
      "midi": 57,
      "hit": false,
      "t": 20000.000000000004,
      "d": 825,
      "v": 127
    },
    {
      "midi": 62,
      "hit": false,
      "t": 20250.000000000004,
      "d": 220.83333333333212,
      "v": 127
    },
    {
      "midi": 65,
      "hit": false,
      "t": 20500.000000000004,
      "d": 413.5416666666679,
      "v": 127
    },
    {
      "midi": 62,
      "hit": false,
      "t": 20875.000000000004,
      "d": 111.45833333333576,
      "v": 127
    },
    {
      "midi": 55,
      "hit": false,
      "t": 21000.000000000007,
      "d": 822.9166666666679,
      "v": 127
    },
    {
      "midi": 59,
      "hit": false,
      "t": 21250.000000000007,
      "d": 220.83333333333212,
      "v": 127
    },
    {
      "midi": 62,
      "hit": false,
      "t": 21500.000000000007,
      "d": 479.1666666666679,
      "v": 127
    },
    {
      "midi": 59,
      "hit": false,
      "t": 21750.000000000007,
      "d": 114.58333333333576,
      "v": 127
    },
    {
      "midi": 60,
      "hit": false,
      "t": 22000.000000000007,
      "d": 765.625,
      "v": 127
    },
    {
      "midi": 64,
      "hit": false,
      "t": 22250.000000000007,
      "d": 302.0833333333321,
      "v": 127
    },
    {
      "midi": 67,
      "hit": false,
      "t": 22500.000000000007,
      "d": 543.75,
      "v": 127
    },
    {
      "midi": 64,
      "hit": false,
      "t": 22750.000000000007,
      "d": 255.20833333333212,
      "v": 127
    },
    {
      "midi": 57,
      "hit": false,
      "t": 23000.000000000007,
      "d": 812.5,
      "v": 127
    },
    {
      "midi": 60,
      "hit": false,
      "t": 23250.000000000007,
      "d": 304.1666666666679,
      "v": 127
    },
    {
      "midi": 64,
      "hit": false,
      "t": 23500.000000000007,
      "d": 562.5,
      "v": 127
    },
    {
      "midi": 60,
      "hit": false,
      "t": 23750.000000000007,
      "d": 250,
      "v": 127
    },
    {
      "midi": 53,
      "hit": false,
      "t": 24000.000000000007,
      "d": 869.7916666666679,
      "v": 127
    },
    {
      "midi": 57,
      "hit": false,
      "t": 24250.000000000007,
      "d": 296.875,
      "v": 127
    },
    {
      "midi": 60,
      "hit": false,
      "t": 24500.000000000007,
      "d": 562.5,
      "v": 127
    },
    {
      "midi": 57,
      "hit": false,
      "t": 24750.000000000007,
      "d": 276.0416666666679,
      "v": 127
    },
    {
      "midi": 55,
      "hit": false,
      "t": 25000.000000000007,
      "d": 809.375,
      "v": 127
    },
    {
      "midi": 59,
      "hit": false,
      "t": 25250.000000000007,
      "d": 281.25,
      "v": 127
    },
    {
      "midi": 62,
      "hit": false,
      "t": 25500.000000000007,
      "d": 484.375,
      "v": 127
    },
    {
      "midi": 59,
      "hit": false,
      "t": 25750.000000000007,
      "d": 140.625,
      "v": 127
    },
    {
      "midi": 60,
      "hit": false,
      "t": 26000.000000000007,
      "d": 470.8333333333321,
      "v": 127
    },
    {
      "midi": 64,
      "hit": false,
      "t": 26250.000000000007,
      "d": 205.20833333333212,
      "v": 127
    },
    {
      "midi": 60,
      "hit": false,
      "t": 26500.000000000007,
      "d": 382.2916666666679,
      "v": 127
    },
    {
      "midi": 64,
      "hit": false,
      "t": 26500.000000000007,
      "d": 406.25,
      "v": 127
    },
    {
      "midi": 67,
      "hit": false,
      "t": 26500.000000000007,
      "d": 416.6666666666679,
      "v": 127
    },
    {
      "midi": 60,
      "hit": false,
      "t": 27000.000000000007,
      "d": 187.5,
      "v": 127
    },
    {
      "midi": 65,
      "hit": false,
      "t": 27000.000000000007,
      "d": 210.41666666666788,
      "v": 127
    },
    {
      "midi": 69,
      "hit": false,
      "t": 27000.000000000007,
      "d": 236.45833333333576,
      "v": 127
    },
    {
      "midi": 60,
      "hit": false,
      "t": 27250.00000000001,
      "d": 369.7916666666679,
      "v": 127
    },
    {
      "midi": 65,
      "hit": false,
      "t": 27250.00000000001,
      "d": 397.9166666666679,
      "v": 127
    },
    {
      "midi": 69,
      "hit": false,
      "t": 27250.00000000001,
      "d": 427.08333333333576,
      "v": 127
    },
    {
      "midi": 62,
      "hit": false,
      "t": 27750.000000000015,
      "d": 296.875,
      "v": 127
    },
    {
      "midi": 67,
      "hit": false,
      "t": 27750.000000000015,
      "d": 319.7916666666679,
      "v": 127
    },
    {
      "midi": 71,
      "hit": false,
      "t": 27750.000000000015,
      "d": 325,
      "v": 127
    },
    {
      "midi": 62,
      "hit": false,
      "t": 28250.000000000015,
      "d": 88.54166666666788,
      "v": 127
    },
    {
      "midi": 67,
      "hit": false,
      "t": 28250.000000000015,
      "d": 90.625,
      "v": 127
    },
    {
      "midi": 71,
      "hit": false,
      "t": 28250.000000000015,
      "d": 111.45833333333212,
      "v": 127
    },
    {
      "midi": 67,
      "hit": false,
      "t": 28500.000000000015,
      "d": 93.75,
      "v": 127
    },
    {
      "midi": 62,
      "hit": false,
      "t": 28500.000000000015,
      "d": 106.25,
      "v": 127
    },
    {
      "midi": 71,
      "hit": false,
      "t": 28500.000000000015,
      "d": 114.58333333333212,
      "v": 127
    },
    {
      "midi": 62,
      "hit": false,
      "t": 28750.000000000015,
      "d": 75,
      "v": 127
    },
    {
      "midi": 67,
      "hit": false,
      "t": 28750.000000000015,
      "d": 101.04166666666788,
      "v": 127
    },
    {
      "midi": 71,
      "hit": false,
      "t": 28750.000000000015,
      "d": 101.04166666666788,
      "v": 127
    },
    {
      "midi": 62,
      "hit": false,
      "t": 29000.000000000015,
      "d": 80.20833333333212,
      "v": 127
    },
    {
      "midi": 67,
      "hit": false,
      "t": 29000.000000000015,
      "d": 104.16666666666424,
      "v": 127
    },
    {
      "midi": 71,
      "hit": false,
      "t": 29000.000000000015,
      "d": 104.16666666666424,
      "v": 127
    },
    {
      "midi": 67,
      "hit": false,
      "t": 29250.00000000001,
      "d": 78.125,
      "v": 127
    },
    {
      "midi": 71,
      "hit": false,
      "t": 29250.00000000001,
      "d": 80.20833333333212,
      "v": 127
    },
    {
      "midi": 62,
      "hit": false,
      "t": 29250.00000000001,
      "d": 90.625,
      "v": 127
    },
    {
      "midi": 62,
      "hit": false,
      "t": 29500.00000000001,
      "d": 93.75,
      "v": 127
    },
    {
      "midi": 71,
      "hit": false,
      "t": 29500.00000000001,
      "d": 95.83333333333212,
      "v": 127
    },
    {
      "midi": 67,
      "hit": false,
      "t": 29500.00000000001,
      "d": 98.95833333333212,
      "v": 127
    },
    {
      "midi": 71,
      "hit": false,
      "t": 29750.00000000001,
      "d": 72.91666666666788,
      "v": 127
    },
    {
      "midi": 67,
      "hit": false,
      "t": 29750.00000000001,
      "d": 75,
      "v": 127
    },
    {
      "midi": 62,
      "hit": false,
      "t": 29750.00000000001,
      "d": 90.625,
      "v": 127
    },
    {
      "midi": 57,
      "hit": false,
      "t": 30000.00000000001,
      "d": 819.7916666666679,
      "v": 127
    },
    {
      "midi": 62,
      "hit": false,
      "t": 30250.00000000001,
      "d": 278.125,
      "v": 127
    },
    {
      "midi": 65,
      "hit": false,
      "t": 30500.00000000001,
      "d": 437.5,
      "v": 127
    },
    {
      "midi": 62,
      "hit": false,
      "t": 30875.00000000001,
      "d": 111.45833333333212,
      "v": 127
    },
    {
      "midi": 55,
      "hit": false,
      "t": 31000.00000000001,
      "d": 807.2916666666679,
      "v": 127
    },
    {
      "midi": 59,
      "hit": false,
      "t": 31250.00000000001,
      "d": 236.45833333333212,
      "v": 127
    },
    {
      "midi": 62,
      "hit": false,
      "t": 31500.00000000001,
      "d": 500.00000000000364,
      "v": 127
    },
    {
      "midi": 59,
      "hit": false,
      "t": 31750.00000000001,
      "d": 223.95833333333576,
      "v": 127
    },
    {
      "midi": 57,
      "hit": false,
      "t": 32000.000000000015,
      "d": 869.7916666666642,
      "v": 127
    },
    {
      "midi": 62,
      "hit": false,
      "t": 32250.000000000015,
      "d": 270.8333333333321,
      "v": 127
    },
    {
      "midi": 65,
      "hit": false,
      "t": 32500.000000000015,
      "d": 458.33333333333576,
      "v": 127
    },
    {
      "midi": 62,
      "hit": false,
      "t": 32875.000000000015,
      "d": 116.66666666667152,
      "v": 127
    },
    {
      "midi": 55,
      "hit": false,
      "t": 33000.00000000002,
      "d": 848.9583333333358,
      "v": 127
    },
    {
      "midi": 59,
      "hit": false,
      "t": 33250.00000000002,
      "d": 255.20833333333576,
      "v": 127
    },
    {
      "midi": 62,
      "hit": false,
      "t": 33500.00000000002,
      "d": 522.9166666666642,
      "v": 127
    },
    {
      "midi": 59,
      "hit": false,
      "t": 33750.00000000002,
      "d": 250,
      "v": 127
    },
    {
      "midi": 57,
      "hit": false,
      "t": 34000.00000000002,
      "d": 781.25,
      "v": 127
    },
    {
      "midi": 62,
      "hit": false,
      "t": 34250.00000000002,
      "d": 272.91666666666424,
      "v": 127
    },
    {
      "midi": 65,
      "hit": false,
      "t": 34500.00000000002,
      "d": 413.54166666666424,
      "v": 127
    },
    {
      "midi": 62,
      "hit": false,
      "t": 34875.00000000002,
      "d": 111.45833333332848,
      "v": 127
    },
    {
      "midi": 55,
      "hit": false,
      "t": 35000.000000000015,
      "d": 833.3333333333358,
      "v": 127
    },
    {
      "midi": 59,
      "hit": false,
      "t": 35250.000000000015,
      "d": 229.16666666666424,
      "v": 127
    },
    {
      "midi": 62,
      "hit": false,
      "t": 35500.000000000015,
      "d": 552.0833333333358,
      "v": 127
    },
    {
      "midi": 59,
      "hit": false,
      "t": 35750.000000000015,
      "d": 231.25,
      "v": 127
    },
    {
      "midi": 57,
      "hit": false,
      "t": 36000.000000000015,
      "d": 845.8333333333358,
      "v": 127
    },
    {
      "midi": 62,
      "hit": false,
      "t": 36250.000000000015,
      "d": 278.125,
      "v": 127
    },
    {
      "midi": 65,
      "hit": false,
      "t": 36500.000000000015,
      "d": 434.375,
      "v": 127
    },
    {
      "midi": 62,
      "hit": false,
      "t": 36875.000000000015,
      "d": 111.45833333333576,
      "v": 127
    },
    {
      "midi": 55,
      "hit": false,
      "t": 37000.000000000015,
      "d": 848.9583333333358,
      "v": 127
    },
    {
      "midi": 59,
      "hit": false,
      "t": 37250.000000000015,
      "d": 278.125,
      "v": 127
    },
    {
      "midi": 62,
      "hit": false,
      "t": 37500.000000000015,
      "d": 479.1666666666715,
      "v": 127
    },
    {
      "midi": 59,
      "hit": false,
      "t": 37750.000000000015,
      "d": 114.58333333333576,
      "v": 127
    },
    {
      "midi": 60,
      "hit": false,
      "t": 38000.00000000002,
      "d": 781.25,
      "v": 127
    },
    {
      "midi": 64,
      "hit": false,
      "t": 38250.00000000002,
      "d": 319.79166666666424,
      "v": 127
    },
    {
      "midi": 67,
      "hit": false,
      "t": 38500.00000000002,
      "d": 528.125,
      "v": 127
    },
    {
      "midi": 64,
      "hit": false,
      "t": 38750.00000000002,
      "d": 252.08333333333576,
      "v": 127
    },
    {
      "midi": 57,
      "hit": false,
      "t": 39000.00000000002,
      "d": 755.2083333333358,
      "v": 127
    },
    {
      "midi": 60,
      "hit": false,
      "t": 39250.00000000002,
      "d": 281.25,
      "v": 127
    },
    {
      "midi": 64,
      "hit": false,
      "t": 39500.00000000002,
      "d": 502.08333333334303,
      "v": 127
    },
    {
      "midi": 60,
      "hit": false,
      "t": 39750.00000000002,
      "d": 226.04166666667152,
      "v": 127
    },
    {
      "midi": 53,
      "hit": false,
      "t": 40000.00000000003,
      "d": 833.3333333333358,
      "v": 127
    },
    {
      "midi": 57,
      "hit": false,
      "t": 40250.00000000003,
      "d": 314.58333333333576,
      "v": 127
    },
    {
      "midi": 60,
      "hit": false,
      "t": 40500.00000000003,
      "d": 531.25,
      "v": 127
    },
    {
      "midi": 57,
      "hit": false,
      "t": 40750.00000000003,
      "d": 272.91666666666424,
      "v": 127
    },
    {
      "midi": 55,
      "hit": false,
      "t": 41000.00000000003,
      "d": 807.2916666666642,
      "v": 127
    },
    {
      "midi": 59,
      "hit": false,
      "t": 41250.00000000003,
      "d": 325,
      "v": 127
    },
    {
      "midi": 62,
      "hit": false,
      "t": 41500.00000000003,
      "d": 484.375,
      "v": 127
    },
    {
      "midi": 59,
      "hit": false,
      "t": 41750.00000000003,
      "d": 119.79166666666424,
      "v": 127
    },
    {
      "midi": 60,
      "hit": false,
      "t": 42000.00000000003,
      "d": 408.33333333333576,
      "v": 127
    },
    {
      "midi": 64,
      "hit": false,
      "t": 42250.00000000003,
      "d": 205.20833333333576,
      "v": 127
    },
    {
      "midi": 60,
      "hit": false,
      "t": 42500.00000000003,
      "d": 356.25,
      "v": 127
    },
    {
      "midi": 64,
      "hit": false,
      "t": 42500.00000000003,
      "d": 392.70833333333576,
      "v": 127
    },
    {
      "midi": 67,
      "hit": false,
      "t": 42500.00000000003,
      "d": 421.875,
      "v": 127
    },
    {
      "midi": 60,
      "hit": false,
      "t": 43000.00000000003,
      "d": 208.33333333333576,
      "v": 127
    },
    {
      "midi": 65,
      "hit": false,
      "t": 43000.00000000003,
      "d": 223.95833333333576,
      "v": 127
    },
    {
      "midi": 69,
      "hit": false,
      "t": 43000.00000000003,
      "d": 236.45833333333576,
      "v": 127
    },
    {
      "midi": 65,
      "hit": false,
      "t": 43250.00000000003,
      "d": 390.625,
      "v": 127
    },
    {
      "midi": 60,
      "hit": false,
      "t": 43250.00000000003,
      "d": 411.45833333333576,
      "v": 127
    },
    {
      "midi": 69,
      "hit": false,
      "t": 43250.00000000003,
      "d": 413.5416666666715,
      "v": 127
    },
    {
      "midi": 60,
      "hit": false,
      "t": 43750.00000000004,
      "d": 272.91666666666424,
      "v": 127
    },
    {
      "midi": 64,
      "hit": false,
      "t": 43750.00000000004,
      "d": 319.79166666666424,
      "v": 127
    },
    {
      "midi": 67,
      "hit": false,
      "t": 43750.00000000004,
      "d": 319.79166666666424,
      "v": 127
    },
    {
      "midi": 62,
      "hit": false,
      "t": 44250.00000000004,
      "d": 52.08333333333576,
      "v": 127
    },
    {
      "midi": 67,
      "hit": false,
      "t": 44250.00000000004,
      "d": 90.625,
      "v": 127
    },
    {
      "midi": 59,
      "hit": false,
      "t": 44250.00000000004,
      "d": 114.58333333333576,
      "v": 127
    },
    {
      "midi": 59,
      "hit": false,
      "t": 44500.00000000004,
      "d": 90.625,
      "v": 127
    },
    {
      "midi": 62,
      "hit": false,
      "t": 44500.00000000004,
      "d": 119.79166666666424,
      "v": 127
    },
    {
      "midi": 67,
      "hit": false,
      "t": 44500.00000000004,
      "d": 121.875,
      "v": 127
    },
    {
      "midi": 59,
      "hit": false,
      "t": 44750.00000000004,
      "d": 130.20833333333576,
      "v": 127
    },
    {
      "midi": 62,
      "hit": false,
      "t": 44750.00000000004,
      "d": 135.41666666667152,
      "v": 127
    },
    {
      "midi": 67,
      "hit": false,
      "t": 44750.00000000004,
      "d": 166.66666666667152,
      "v": 127
    },
    {
      "midi": 59,
      "hit": false,
      "t": 45000.000000000044,
      "d": 147.91666666666424,
      "v": 127
    },
    {
      "midi": 62,
      "hit": false,
      "t": 45000.000000000044,
      "d": 161.45833333332848,
      "v": 127
    },
    {
      "midi": 67,
      "hit": false,
      "t": 45000.000000000044,
      "d": 163.54166666666424,
      "v": 127
    },
    {
      "midi": 59,
      "hit": false,
      "t": 45250.000000000044,
      "d": 132.29166666666424,
      "v": 127
    },
    {
      "midi": 62,
      "hit": false,
      "t": 45250.000000000044,
      "d": 161.45833333332848,
      "v": 127
    },
    {
      "midi": 67,
      "hit": false,
      "t": 45250.000000000044,
      "d": 163.54166666666424,
      "v": 127
    },
    {
      "midi": 59,
      "hit": false,
      "t": 45500.000000000044,
      "d": 161.45833333333576,
      "v": 127
    },
    {
      "midi": 67,
      "hit": false,
      "t": 45500.000000000044,
      "d": 166.66666666667152,
      "v": 127
    },
    {
      "midi": 62,
      "hit": false,
      "t": 45500.000000000044,
      "d": 192.70833333333576,
      "v": 127
    },
    {
      "midi": 59,
      "hit": false,
      "t": 45750.000000000044,
      "d": 67.70833333333576,
      "v": 127
    },
    {
      "midi": 62,
      "hit": false,
      "t": 45750.000000000044,
      "d": 101.04166666667152,
      "v": 127
    },
    {
      "midi": 67,
      "hit": false,
      "t": 45750.000000000044,
      "d": 101.04166666667152,
      "v": 127
    },
    {
      "midi": 57,
      "hit": false,
      "t": 66000.00000000004,
      "d": 869.7916666666715,
      "v": 127
    },
    {
      "midi": 62,
      "hit": false,
      "t": 66250.00000000004,
      "d": 293.75,
      "v": 127
    },
    {
      "midi": 65,
      "hit": false,
      "t": 66500.00000000004,
      "d": 416.6666666666715,
      "v": 127
    },
    {
      "midi": 62,
      "hit": false,
      "t": 66875.00000000004,
      "d": 75,
      "v": 127
    },
    {
      "midi": 55,
      "hit": false,
      "t": 67000.00000000004,
      "d": 830.2083333333285,
      "v": 127
    },
    {
      "midi": 59,
      "hit": false,
      "t": 67250.00000000004,
      "d": 213.54166666667152,
      "v": 127
    },
    {
      "midi": 62,
      "hit": false,
      "t": 67500.00000000004,
      "d": 494.79166666665697,
      "v": 127
    },
    {
      "midi": 59,
      "hit": false,
      "t": 67750.00000000004,
      "d": 205.20833333332848,
      "v": 127
    },
    {
      "midi": 57,
      "hit": false,
      "t": 68000.00000000003,
      "d": 869.7916666666715,
      "v": 127
    },
    {
      "midi": 62,
      "hit": false,
      "t": 68250.00000000003,
      "d": 257.2916666666715,
      "v": 127
    },
    {
      "midi": 65,
      "hit": false,
      "t": 68500.00000000003,
      "d": 432.2916666666715,
      "v": 127
    },
    {
      "midi": 62,
      "hit": false,
      "t": 68875.00000000003,
      "d": 93.75,
      "v": 127
    },
    {
      "midi": 55,
      "hit": false,
      "t": 69000.00000000003,
      "d": 854.1666666666715,
      "v": 127
    },
    {
      "midi": 59,
      "hit": false,
      "t": 69250.00000000003,
      "d": 231.25,
      "v": 127
    },
    {
      "midi": 62,
      "hit": false,
      "t": 69500.00000000003,
      "d": 507.2916666666715,
      "v": 127
    },
    {
      "midi": 59,
      "hit": false,
      "t": 69750.00000000003,
      "d": 231.25,
      "v": 127
    },
    {
      "midi": 57,
      "hit": false,
      "t": 70000.00000000003,
      "d": 825,
      "v": 127
    },
    {
      "midi": 62,
      "hit": false,
      "t": 70250.00000000003,
      "d": 231.25,
      "v": 127
    },
    {
      "midi": 65,
      "hit": false,
      "t": 70500.00000000003,
      "d": 434.375,
      "v": 127
    },
    {
      "midi": 62,
      "hit": false,
      "t": 70875.00000000003,
      "d": 93.75,
      "v": 127
    },
    {
      "midi": 55,
      "hit": false,
      "t": 71000.00000000003,
      "d": 854.1666666666715,
      "v": 127
    },
    {
      "midi": 59,
      "hit": false,
      "t": 71250.00000000003,
      "d": 252.08333333332848,
      "v": 127
    },
    {
      "midi": 62,
      "hit": false,
      "t": 71500.00000000003,
      "d": 502.08333333334303,
      "v": 127
    },
    {
      "midi": 59,
      "hit": false,
      "t": 71750.00000000003,
      "d": 223.95833333334303,
      "v": 127
    },
    {
      "midi": 57,
      "hit": false,
      "t": 72000.00000000004,
      "d": 825,
      "v": 127
    },
    {
      "midi": 62,
      "hit": false,
      "t": 72250.00000000004,
      "d": 220.83333333332848,
      "v": 127
    },
    {
      "midi": 65,
      "hit": false,
      "t": 72500.00000000004,
      "d": 413.5416666666715,
      "v": 127
    },
    {
      "midi": 62,
      "hit": false,
      "t": 72875.00000000004,
      "d": 111.45833333334303,
      "v": 127
    },
    {
      "midi": 55,
      "hit": false,
      "t": 73000.00000000006,
      "d": 822.9166666666715,
      "v": 127
    },
    {
      "midi": 59,
      "hit": false,
      "t": 73250.00000000006,
      "d": 220.83333333332848,
      "v": 127
    },
    {
      "midi": 62,
      "hit": false,
      "t": 73500.00000000006,
      "d": 479.1666666666715,
      "v": 127
    },
    {
      "midi": 59,
      "hit": false,
      "t": 73750.00000000006,
      "d": 114.58333333334303,
      "v": 127
    },
    {
      "midi": 60,
      "hit": false,
      "t": 74000.00000000006,
      "d": 765.625,
      "v": 127
    },
    {
      "midi": 64,
      "hit": false,
      "t": 74250.00000000006,
      "d": 302.0833333333285,
      "v": 127
    },
    {
      "midi": 67,
      "hit": false,
      "t": 74500.00000000006,
      "d": 543.75,
      "v": 127
    },
    {
      "midi": 64,
      "hit": false,
      "t": 74750.00000000006,
      "d": 255.20833333332848,
      "v": 127
    },
    {
      "midi": 57,
      "hit": false,
      "t": 75000.00000000006,
      "d": 812.5,
      "v": 127
    },
    {
      "midi": 60,
      "hit": false,
      "t": 75250.00000000006,
      "d": 304.1666666666715,
      "v": 127
    },
    {
      "midi": 64,
      "hit": false,
      "t": 75500.00000000006,
      "d": 562.5,
      "v": 127
    },
    {
      "midi": 60,
      "hit": false,
      "t": 75750.00000000006,
      "d": 250,
      "v": 127
    },
    {
      "midi": 53,
      "hit": false,
      "t": 76000.00000000006,
      "d": 869.7916666666715,
      "v": 127
    },
    {
      "midi": 57,
      "hit": false,
      "t": 76250.00000000006,
      "d": 296.875,
      "v": 127
    },
    {
      "midi": 60,
      "hit": false,
      "t": 76500.00000000006,
      "d": 562.5,
      "v": 127
    },
    {
      "midi": 57,
      "hit": false,
      "t": 76750.00000000006,
      "d": 276.0416666666715,
      "v": 127
    },
    {
      "midi": 55,
      "hit": false,
      "t": 77000.00000000006,
      "d": 809.375,
      "v": 127
    },
    {
      "midi": 59,
      "hit": false,
      "t": 77250.00000000006,
      "d": 281.25,
      "v": 127
    },
    {
      "midi": 62,
      "hit": false,
      "t": 77500.00000000006,
      "d": 484.375,
      "v": 127
    },
    {
      "midi": 59,
      "hit": false,
      "t": 77750.00000000006,
      "d": 140.625,
      "v": 127
    },
    {
      "midi": 60,
      "hit": false,
      "t": 78000.00000000006,
      "d": 470.8333333333285,
      "v": 127
    },
    {
      "midi": 64,
      "hit": false,
      "t": 78250.00000000006,
      "d": 205.20833333332848,
      "v": 127
    },
    {
      "midi": 60,
      "hit": false,
      "t": 78500.00000000006,
      "d": 382.2916666666715,
      "v": 127
    },
    {
      "midi": 64,
      "hit": false,
      "t": 78500.00000000006,
      "d": 406.25,
      "v": 127
    },
    {
      "midi": 67,
      "hit": false,
      "t": 78500.00000000006,
      "d": 416.6666666666715,
      "v": 127
    },
    {
      "midi": 60,
      "hit": false,
      "t": 79000.00000000006,
      "d": 187.5,
      "v": 127
    },
    {
      "midi": 65,
      "hit": false,
      "t": 79000.00000000006,
      "d": 210.41666666667152,
      "v": 127
    },
    {
      "midi": 69,
      "hit": false,
      "t": 79000.00000000006,
      "d": 236.45833333334303,
      "v": 127
    },
    {
      "midi": 60,
      "hit": false,
      "t": 79250.00000000007,
      "d": 369.7916666666715,
      "v": 127
    },
    {
      "midi": 65,
      "hit": false,
      "t": 79250.00000000007,
      "d": 397.9166666666715,
      "v": 127
    },
    {
      "midi": 69,
      "hit": false,
      "t": 79250.00000000007,
      "d": 427.08333333334303,
      "v": 127
    },
    {
      "midi": 62,
      "hit": false,
      "t": 79750.00000000009,
      "d": 296.875,
      "v": 127
    },
    {
      "midi": 67,
      "hit": false,
      "t": 79750.00000000009,
      "d": 319.7916666666715,
      "v": 127
    },
    {
      "midi": 71,
      "hit": false,
      "t": 79750.00000000009,
      "d": 325,
      "v": 127
    },
    {
      "midi": 62,
      "hit": false,
      "t": 80250.00000000009,
      "d": 88.54166666667152,
      "v": 127
    },
    {
      "midi": 67,
      "hit": false,
      "t": 80250.00000000009,
      "d": 90.625,
      "v": 127
    },
    {
      "midi": 71,
      "hit": false,
      "t": 80250.00000000009,
      "d": 111.45833333332848,
      "v": 127
    },
    {
      "midi": 67,
      "hit": false,
      "t": 80500.00000000009,
      "d": 93.75,
      "v": 127
    },
    {
      "midi": 62,
      "hit": false,
      "t": 80500.00000000009,
      "d": 106.25,
      "v": 127
    },
    {
      "midi": 71,
      "hit": false,
      "t": 80500.00000000009,
      "d": 114.58333333332848,
      "v": 127
    },
    {
      "midi": 62,
      "hit": false,
      "t": 80750.00000000009,
      "d": 75,
      "v": 127
    },
    {
      "midi": 67,
      "hit": false,
      "t": 80750.00000000009,
      "d": 101.04166666667152,
      "v": 127
    },
    {
      "midi": 71,
      "hit": false,
      "t": 80750.00000000009,
      "d": 101.04166666667152,
      "v": 127
    },
    {
      "midi": 62,
      "hit": false,
      "t": 81000.00000000009,
      "d": 80.20833333332848,
      "v": 127
    },
    {
      "midi": 67,
      "hit": false,
      "t": 81000.00000000009,
      "d": 104.16666666665697,
      "v": 127
    },
    {
      "midi": 71,
      "hit": false,
      "t": 81000.00000000009,
      "d": 104.16666666665697,
      "v": 127
    },
    {
      "midi": 67,
      "hit": false,
      "t": 81250.00000000007,
      "d": 78.125,
      "v": 127
    },
    {
      "midi": 71,
      "hit": false,
      "t": 81250.00000000007,
      "d": 80.20833333332848,
      "v": 127
    },
    {
      "midi": 62,
      "hit": false,
      "t": 81250.00000000007,
      "d": 90.625,
      "v": 127
    },
    {
      "midi": 62,
      "hit": false,
      "t": 81500.00000000007,
      "d": 93.75,
      "v": 127
    },
    {
      "midi": 71,
      "hit": false,
      "t": 81500.00000000007,
      "d": 95.83333333332848,
      "v": 127
    },
    {
      "midi": 67,
      "hit": false,
      "t": 81500.00000000007,
      "d": 98.95833333332848,
      "v": 127
    },
    {
      "midi": 71,
      "hit": false,
      "t": 81750.00000000007,
      "d": 72.91666666667152,
      "v": 127
    },
    {
      "midi": 67,
      "hit": false,
      "t": 81750.00000000007,
      "d": 75,
      "v": 127
    },
    {
      "midi": 62,
      "hit": false,
      "t": 81750.00000000007,
      "d": 90.625,
      "v": 127
    },
    {
      "midi": 57,
      "hit": false,
      "t": 82000.00000000007,
      "d": 819.7916666666715,
      "v": 127
    },
    {
      "midi": 62,
      "hit": false,
      "t": 82250.00000000007,
      "d": 278.125,
      "v": 127
    },
    {
      "midi": 65,
      "hit": false,
      "t": 82500.00000000007,
      "d": 437.5,
      "v": 127
    },
    {
      "midi": 62,
      "hit": false,
      "t": 82875.00000000007,
      "d": 111.45833333332848,
      "v": 127
    },
    {
      "midi": 55,
      "hit": false,
      "t": 83000.00000000007,
      "d": 807.2916666666715,
      "v": 127
    },
    {
      "midi": 59,
      "hit": false,
      "t": 83250.00000000007,
      "d": 236.45833333332848,
      "v": 127
    },
    {
      "midi": 62,
      "hit": false,
      "t": 83500.00000000007,
      "d": 500.00000000001455,
      "v": 127
    },
    {
      "midi": 59,
      "hit": false,
      "t": 83750.00000000007,
      "d": 223.95833333334303,
      "v": 127
    },
    {
      "midi": 57,
      "hit": false,
      "t": 84000.00000000009,
      "d": 869.791666666657,
      "v": 127
    },
    {
      "midi": 62,
      "hit": false,
      "t": 84250.00000000009,
      "d": 270.8333333333285,
      "v": 127
    },
    {
      "midi": 65,
      "hit": false,
      "t": 84500.00000000009,
      "d": 458.33333333331393,
      "v": 127
    },
    {
      "midi": 62,
      "hit": false,
      "t": 84875.00000000007,
      "d": 116.66666666665697,
      "v": 127
    },
    {
      "midi": 55,
      "hit": false,
      "t": 85000.00000000006,
      "d": 848.9583333333285,
      "v": 127
    },
    {
      "midi": 59,
      "hit": false,
      "t": 85250.00000000006,
      "d": 255.20833333332848,
      "v": 127
    },
    {
      "midi": 62,
      "hit": false,
      "t": 85500.00000000006,
      "d": 522.9166666666715,
      "v": 127
    },
    {
      "midi": 59,
      "hit": false,
      "t": 85750.00000000006,
      "d": 250,
      "v": 127
    },
    {
      "midi": 57,
      "hit": false,
      "t": 86000.00000000006,
      "d": 781.25,
      "v": 127
    },
    {
      "midi": 62,
      "hit": false,
      "t": 86250.00000000006,
      "d": 272.9166666666715,
      "v": 127
    },
    {
      "midi": 65,
      "hit": false,
      "t": 86500.00000000006,
      "d": 413.5416666666715,
      "v": 127
    },
    {
      "midi": 62,
      "hit": false,
      "t": 86875.00000000006,
      "d": 111.45833333334303,
      "v": 127
    },
    {
      "midi": 55,
      "hit": false,
      "t": 87000.00000000007,
      "d": 833.3333333333285,
      "v": 127
    },
    {
      "midi": 59,
      "hit": false,
      "t": 87250.00000000007,
      "d": 229.16666666667152,
      "v": 127
    },
    {
      "midi": 62,
      "hit": false,
      "t": 87500.00000000007,
      "d": 552.0833333333285,
      "v": 127
    },
    {
      "midi": 59,
      "hit": false,
      "t": 87750.00000000007,
      "d": 231.25,
      "v": 127
    },
    {
      "midi": 57,
      "hit": false,
      "t": 88000.00000000007,
      "d": 845.8333333333285,
      "v": 127
    },
    {
      "midi": 62,
      "hit": false,
      "t": 88250.00000000007,
      "d": 278.125,
      "v": 127
    },
    {
      "midi": 65,
      "hit": false,
      "t": 88500.00000000007,
      "d": 434.375,
      "v": 127
    },
    {
      "midi": 62,
      "hit": false,
      "t": 88875.00000000007,
      "d": 111.45833333332848,
      "v": 127
    },
    {
      "midi": 55,
      "hit": false,
      "t": 89000.00000000007,
      "d": 848.9583333333285,
      "v": 127
    },
    {
      "midi": 59,
      "hit": false,
      "t": 89250.00000000007,
      "d": 278.125,
      "v": 127
    },
    {
      "midi": 62,
      "hit": false,
      "t": 89500.00000000007,
      "d": 479.16666666665697,
      "v": 127
    },
    {
      "midi": 59,
      "hit": false,
      "t": 89750.00000000007,
      "d": 114.58333333332848,
      "v": 127
    },
    {
      "midi": 60,
      "hit": false,
      "t": 90000.00000000006,
      "d": 781.25,
      "v": 127
    },
    {
      "midi": 64,
      "hit": false,
      "t": 90250.00000000006,
      "d": 319.7916666666715,
      "v": 127
    },
    {
      "midi": 67,
      "hit": false,
      "t": 90500.00000000006,
      "d": 528.125,
      "v": 127
    },
    {
      "midi": 64,
      "hit": false,
      "t": 90750.00000000006,
      "d": 252.08333333332848,
      "v": 127
    },
    {
      "midi": 57,
      "hit": false,
      "t": 91000.00000000006,
      "d": 755.2083333333285,
      "v": 127
    },
    {
      "midi": 60,
      "hit": false,
      "t": 91250.00000000006,
      "d": 281.25,
      "v": 127
    },
    {
      "midi": 64,
      "hit": false,
      "t": 91500.00000000006,
      "d": 502.08333333331393,
      "v": 127
    },
    {
      "midi": 60,
      "hit": false,
      "t": 91750.00000000006,
      "d": 226.04166666665697,
      "v": 127
    },
    {
      "midi": 53,
      "hit": false,
      "t": 92000.00000000004,
      "d": 833.3333333333285,
      "v": 127
    },
    {
      "midi": 57,
      "hit": false,
      "t": 92250.00000000004,
      "d": 314.5833333333285,
      "v": 127
    },
    {
      "midi": 60,
      "hit": false,
      "t": 92500.00000000004,
      "d": 531.25,
      "v": 127
    },
    {
      "midi": 57,
      "hit": false,
      "t": 92750.00000000004,
      "d": 272.9166666666715,
      "v": 127
    },
    {
      "midi": 55,
      "hit": false,
      "t": 93000.00000000004,
      "d": 807.2916666666715,
      "v": 127
    },
    {
      "midi": 59,
      "hit": false,
      "t": 93250.00000000004,
      "d": 325,
      "v": 127
    },
    {
      "midi": 62,
      "hit": false,
      "t": 93500.00000000004,
      "d": 484.375,
      "v": 127
    },
    {
      "midi": 59,
      "hit": false,
      "t": 93750.00000000004,
      "d": 119.79166666667152,
      "v": 127
    },
    {
      "midi": 60,
      "hit": false,
      "t": 94000.00000000004,
      "d": 408.3333333333285,
      "v": 127
    },
    {
      "midi": 64,
      "hit": false,
      "t": 94250.00000000004,
      "d": 205.20833333332848,
      "v": 127
    },
    {
      "midi": 60,
      "hit": false,
      "t": 94500.00000000004,
      "d": 356.25,
      "v": 127
    },
    {
      "midi": 64,
      "hit": false,
      "t": 94500.00000000004,
      "d": 392.7083333333285,
      "v": 127
    },
    {
      "midi": 67,
      "hit": false,
      "t": 94500.00000000004,
      "d": 421.875,
      "v": 127
    },
    {
      "midi": 60,
      "hit": false,
      "t": 95000.00000000004,
      "d": 208.33333333332848,
      "v": 127
    },
    {
      "midi": 65,
      "hit": false,
      "t": 95000.00000000004,
      "d": 223.95833333332848,
      "v": 127
    },
    {
      "midi": 69,
      "hit": false,
      "t": 95000.00000000004,
      "d": 236.45833333332848,
      "v": 127
    },
    {
      "midi": 65,
      "hit": false,
      "t": 95250.00000000004,
      "d": 390.625,
      "v": 127
    },
    {
      "midi": 60,
      "hit": false,
      "t": 95250.00000000004,
      "d": 411.4583333333285,
      "v": 127
    },
    {
      "midi": 69,
      "hit": false,
      "t": 95250.00000000004,
      "d": 413.54166666665697,
      "v": 127
    },
    {
      "midi": 60,
      "hit": false,
      "t": 95750.00000000003,
      "d": 272.9166666666715,
      "v": 127
    },
    {
      "midi": 64,
      "hit": false,
      "t": 95750.00000000003,
      "d": 319.7916666666715,
      "v": 127
    },
    {
      "midi": 67,
      "hit": false,
      "t": 95750.00000000003,
      "d": 319.7916666666715,
      "v": 127
    },
    {
      "midi": 62,
      "hit": false,
      "t": 96250.00000000003,
      "d": 52.08333333332848,
      "v": 127
    },
    {
      "midi": 67,
      "hit": false,
      "t": 96250.00000000003,
      "d": 90.625,
      "v": 127
    },
    {
      "midi": 59,
      "hit": false,
      "t": 96250.00000000003,
      "d": 114.58333333332848,
      "v": 127
    },
    {
      "midi": 59,
      "hit": false,
      "t": 96500.00000000003,
      "d": 90.625,
      "v": 127
    },
    {
      "midi": 62,
      "hit": false,
      "t": 96500.00000000003,
      "d": 119.79166666667152,
      "v": 127
    },
    {
      "midi": 67,
      "hit": false,
      "t": 96500.00000000003,
      "d": 121.875,
      "v": 127
    },
    {
      "midi": 59,
      "hit": false,
      "t": 96750.00000000003,
      "d": 130.20833333332848,
      "v": 127
    },
    {
      "midi": 62,
      "hit": false,
      "t": 96750.00000000003,
      "d": 135.41666666665697,
      "v": 127
    },
    {
      "midi": 67,
      "hit": false,
      "t": 96750.00000000003,
      "d": 166.66666666665697,
      "v": 127
    },
    {
      "midi": 59,
      "hit": false,
      "t": 97000.00000000001,
      "d": 147.91666666667152,
      "v": 127
    },
    {
      "midi": 62,
      "hit": false,
      "t": 97000.00000000001,
      "d": 161.45833333334303,
      "v": 127
    },
    {
      "midi": 67,
      "hit": false,
      "t": 97000.00000000001,
      "d": 163.54166666667152,
      "v": 127
    },
    {
      "midi": 59,
      "hit": false,
      "t": 97250.00000000001,
      "d": 132.29166666667152,
      "v": 127
    },
    {
      "midi": 62,
      "hit": false,
      "t": 97250.00000000001,
      "d": 161.45833333334303,
      "v": 127
    },
    {
      "midi": 67,
      "hit": false,
      "t": 97250.00000000001,
      "d": 163.54166666667152,
      "v": 127
    },
    {
      "midi": 59,
      "hit": false,
      "t": 97500.00000000001,
      "d": 161.45833333332848,
      "v": 127
    },
    {
      "midi": 67,
      "hit": false,
      "t": 97500.00000000001,
      "d": 166.66666666665697,
      "v": 127
    },
    {
      "midi": 62,
      "hit": false,
      "t": 97500.00000000001,
      "d": 192.70833333332848,
      "v": 127
    },
    {
      "midi": 59,
      "hit": false,
      "t": 97750.00000000001,
      "d": 67.70833333332848,
      "v": 127
    },
    {
      "midi": 62,
      "hit": false,
      "t": 97750.00000000001,
      "d": 101.04166666665697,
      "v": 127
    },
    {
      "midi": 67,
      "hit": false,
      "t": 97750.00000000001,
      "d": 101.04166666665697,
      "v": 127
    },
    {
      "midi": 57,
      "hit": false,
      "t": 118000,
      "d": 869.7916666666715,
      "v": 127
    },
    {
      "midi": 62,
      "hit": false,
      "t": 118250,
      "d": 293.75,
      "v": 127
    },
    {
      "midi": 65,
      "hit": false,
      "t": 118500,
      "d": 416.6666666666715,
      "v": 127
    },
    {
      "midi": 62,
      "hit": false,
      "t": 118875,
      "d": 75,
      "v": 127
    },
    {
      "midi": 55,
      "hit": false,
      "t": 119000,
      "d": 830.2083333333285,
      "v": 127
    },
    {
      "midi": 59,
      "hit": false,
      "t": 119250,
      "d": 213.54166666667152,
      "v": 127
    },
    {
      "midi": 62,
      "hit": false,
      "t": 119500,
      "d": 494.79166666665697,
      "v": 127
    },
    {
      "midi": 59,
      "hit": false,
      "t": 119750,
      "d": 205.20833333332848,
      "v": 127
    },
    {
      "midi": 57,
      "hit": false,
      "t": 119999.99999999999,
      "d": 869.7916666666715,
      "v": 127
    },
    {
      "midi": 62,
      "hit": false,
      "t": 120249.99999999999,
      "d": 257.2916666666715,
      "v": 127
    },
    {
      "midi": 65,
      "hit": false,
      "t": 120499.99999999999,
      "d": 432.2916666666715,
      "v": 127
    },
    {
      "midi": 62,
      "hit": false,
      "t": 120874.99999999999,
      "d": 93.75,
      "v": 127
    },
    {
      "midi": 55,
      "hit": false,
      "t": 120999.99999999999,
      "d": 854.1666666666715,
      "v": 127
    },
    {
      "midi": 59,
      "hit": false,
      "t": 121249.99999999999,
      "d": 231.25,
      "v": 127
    },
    {
      "midi": 62,
      "hit": false,
      "t": 121499.99999999999,
      "d": 507.2916666666715,
      "v": 127
    },
    {
      "midi": 59,
      "hit": false,
      "t": 121749.99999999999,
      "d": 231.25,
      "v": 127
    },
    {
      "midi": 57,
      "hit": false,
      "t": 121999.99999999999,
      "d": 825,
      "v": 127
    },
    {
      "midi": 62,
      "hit": false,
      "t": 122249.99999999999,
      "d": 231.25,
      "v": 127
    },
    {
      "midi": 65,
      "hit": false,
      "t": 122499.99999999999,
      "d": 434.375,
      "v": 127
    },
    {
      "midi": 62,
      "hit": false,
      "t": 122874.99999999999,
      "d": 93.75,
      "v": 127
    },
    {
      "midi": 55,
      "hit": false,
      "t": 122999.99999999999,
      "d": 854.1666666666715,
      "v": 127
    },
    {
      "midi": 59,
      "hit": false,
      "t": 123249.99999999999,
      "d": 252.08333333332848,
      "v": 127
    },
    {
      "midi": 62,
      "hit": false,
      "t": 123499.99999999999,
      "d": 502.08333333334303,
      "v": 127
    },
    {
      "midi": 59,
      "hit": false,
      "t": 123749.99999999999,
      "d": 223.95833333334303,
      "v": 127
    },
    {
      "midi": 57,
      "hit": false,
      "t": 124000,
      "d": 825,
      "v": 127
    },
    {
      "midi": 62,
      "hit": false,
      "t": 124250,
      "d": 220.83333333332848,
      "v": 127
    },
    {
      "midi": 65,
      "hit": false,
      "t": 124500,
      "d": 413.5416666666715,
      "v": 127
    },
    {
      "midi": 62,
      "hit": false,
      "t": 124875,
      "d": 111.45833333334303,
      "v": 127
    },
    {
      "midi": 55,
      "hit": false,
      "t": 125000.00000000001,
      "d": 822.9166666666715,
      "v": 127
    },
    {
      "midi": 59,
      "hit": false,
      "t": 125250.00000000001,
      "d": 220.83333333332848,
      "v": 127
    },
    {
      "midi": 62,
      "hit": false,
      "t": 125500.00000000001,
      "d": 479.1666666666715,
      "v": 127
    },
    {
      "midi": 59,
      "hit": false,
      "t": 125750.00000000001,
      "d": 114.58333333334303,
      "v": 127
    },
    {
      "midi": 60,
      "hit": false,
      "t": 126000.00000000001,
      "d": 765.625,
      "v": 127
    },
    {
      "midi": 64,
      "hit": false,
      "t": 126250.00000000001,
      "d": 302.0833333333285,
      "v": 127
    },
    {
      "midi": 67,
      "hit": false,
      "t": 126500.00000000001,
      "d": 543.75,
      "v": 127
    },
    {
      "midi": 64,
      "hit": false,
      "t": 126750.00000000001,
      "d": 255.20833333332848,
      "v": 127
    },
    {
      "midi": 57,
      "hit": false,
      "t": 127000.00000000001,
      "d": 812.5,
      "v": 127
    },
    {
      "midi": 60,
      "hit": false,
      "t": 127250.00000000001,
      "d": 304.1666666666715,
      "v": 127
    },
    {
      "midi": 64,
      "hit": false,
      "t": 127500.00000000001,
      "d": 562.5,
      "v": 127
    },
    {
      "midi": 60,
      "hit": false,
      "t": 127750.00000000001,
      "d": 250,
      "v": 127
    },
    {
      "midi": 53,
      "hit": false,
      "t": 128000.00000000001,
      "d": 869.7916666666715,
      "v": 127
    },
    {
      "midi": 57,
      "hit": false,
      "t": 128250.00000000001,
      "d": 296.875,
      "v": 127
    },
    {
      "midi": 60,
      "hit": false,
      "t": 128500.00000000001,
      "d": 562.5,
      "v": 127
    },
    {
      "midi": 57,
      "hit": false,
      "t": 128750.00000000001,
      "d": 276.0416666666715,
      "v": 127
    },
    {
      "midi": 55,
      "hit": false,
      "t": 129000.00000000001,
      "d": 809.375,
      "v": 127
    },
    {
      "midi": 59,
      "hit": false,
      "t": 129250.00000000001,
      "d": 281.25,
      "v": 127
    },
    {
      "midi": 62,
      "hit": false,
      "t": 129500.00000000001,
      "d": 484.375,
      "v": 127
    },
    {
      "midi": 59,
      "hit": false,
      "t": 129750.00000000001,
      "d": 140.625,
      "v": 127
    },
    {
      "midi": 60,
      "hit": false,
      "t": 130000.00000000001,
      "d": 470.8333333333285,
      "v": 127
    },
    {
      "midi": 64,
      "hit": false,
      "t": 130250.00000000001,
      "d": 205.20833333332848,
      "v": 127
    },
    {
      "midi": 60,
      "hit": false,
      "t": 130500.00000000001,
      "d": 382.2916666666715,
      "v": 127
    },
    {
      "midi": 64,
      "hit": false,
      "t": 130500.00000000001,
      "d": 406.25,
      "v": 127
    },
    {
      "midi": 67,
      "hit": false,
      "t": 130500.00000000001,
      "d": 416.6666666666715,
      "v": 127
    },
    {
      "midi": 60,
      "hit": false,
      "t": 131000.00000000001,
      "d": 187.49999999998545,
      "v": 127
    },
    {
      "midi": 65,
      "hit": false,
      "t": 131000.00000000001,
      "d": 210.4166666666424,
      "v": 127
    },
    {
      "midi": 69,
      "hit": false,
      "t": 131000.00000000001,
      "d": 236.45833333329938,
      "v": 127
    },
    {
      "midi": 60,
      "hit": false,
      "t": 131249.99999999997,
      "d": 369.79166666665697,
      "v": 127
    },
    {
      "midi": 65,
      "hit": false,
      "t": 131249.99999999997,
      "d": 397.91666666665697,
      "v": 127
    },
    {
      "midi": 69,
      "hit": false,
      "t": 131249.99999999997,
      "d": 427.08333333331393,
      "v": 127
    },
    {
      "midi": 62,
      "hit": false,
      "t": 131749.99999999994,
      "d": 296.875,
      "v": 127
    },
    {
      "midi": 67,
      "hit": false,
      "t": 131749.99999999994,
      "d": 319.79166666665697,
      "v": 127
    },
    {
      "midi": 71,
      "hit": false,
      "t": 131749.99999999994,
      "d": 325,
      "v": 127
    },
    {
      "midi": 62,
      "hit": false,
      "t": 132249.99999999994,
      "d": 88.54166666665697,
      "v": 127
    },
    {
      "midi": 67,
      "hit": false,
      "t": 132249.99999999994,
      "d": 90.625,
      "v": 127
    },
    {
      "midi": 71,
      "hit": false,
      "t": 132249.99999999994,
      "d": 111.45833333334303,
      "v": 127
    },
    {
      "midi": 67,
      "hit": false,
      "t": 132499.99999999994,
      "d": 93.75,
      "v": 127
    },
    {
      "midi": 62,
      "hit": false,
      "t": 132499.99999999994,
      "d": 106.25,
      "v": 127
    },
    {
      "midi": 71,
      "hit": false,
      "t": 132499.99999999994,
      "d": 114.58333333334303,
      "v": 127
    },
    {
      "midi": 62,
      "hit": false,
      "t": 132749.99999999994,
      "d": 75,
      "v": 127
    },
    {
      "midi": 67,
      "hit": false,
      "t": 132749.99999999994,
      "d": 101.04166666665697,
      "v": 127
    },
    {
      "midi": 71,
      "hit": false,
      "t": 132749.99999999994,
      "d": 101.04166666665697,
      "v": 127
    },
    {
      "midi": 62,
      "hit": false,
      "t": 132999.99999999994,
      "d": 80.20833333334303,
      "v": 127
    },
    {
      "midi": 67,
      "hit": false,
      "t": 132999.99999999994,
      "d": 104.16666666668607,
      "v": 127
    },
    {
      "midi": 71,
      "hit": false,
      "t": 132999.99999999994,
      "d": 104.16666666668607,
      "v": 127
    },
    {
      "midi": 67,
      "hit": false,
      "t": 133249.99999999997,
      "d": 78.125,
      "v": 127
    },
    {
      "midi": 71,
      "hit": false,
      "t": 133249.99999999997,
      "d": 80.20833333334303,
      "v": 127
    },
    {
      "midi": 62,
      "hit": false,
      "t": 133249.99999999997,
      "d": 90.625,
      "v": 127
    },
    {
      "midi": 62,
      "hit": false,
      "t": 133499.99999999997,
      "d": 121.875,
      "v": 127
    },
    {
      "midi": 67,
      "hit": false,
      "t": 133499.99999999997,
      "d": 121.875,
      "v": 127
    },
    {
      "midi": 71,
      "hit": false,
      "t": 133499.99999999997,
      "d": 121.875,
      "v": 127
    },
    {
      "midi": 62,
      "hit": false,
      "t": 133749.99999999997,
      "d": 121.875,
      "v": 127
    },
    {
      "midi": 67,
      "hit": false,
      "t": 133749.99999999997,
      "d": 121.875,
      "v": 127
    },
    {
      "midi": 71,
      "hit": false,
      "t": 133749.99999999997,
      "d": 121.875,
      "v": 127
    },
    {
      "midi": 60,
      "hit": false,
      "t": 133999.99999999997,
      "d": 765.625,
      "v": 127
    },
    {
      "midi": 64,
      "hit": false,
      "t": 134249.99999999997,
      "d": 302.08333333334303,
      "v": 127
    },
    {
      "midi": 67,
      "hit": false,
      "t": 134499.99999999997,
      "d": 543.75,
      "v": 127
    },
    {
      "midi": 64,
      "hit": false,
      "t": 134749.99999999997,
      "d": 255.20833333334303,
      "v": 127
    },
    {
      "midi": 57,
      "hit": false,
      "t": 134999.99999999997,
      "d": 812.5,
      "v": 127
    },
    {
      "midi": 60,
      "hit": false,
      "t": 135249.99999999997,
      "d": 304.16666666665697,
      "v": 127
    },
    {
      "midi": 64,
      "hit": false,
      "t": 135499.99999999997,
      "d": 562.5,
      "v": 127
    },
    {
      "midi": 60,
      "hit": false,
      "t": 135749.99999999997,
      "d": 250,
      "v": 127
    },
    {
      "midi": 53,
      "hit": false,
      "t": 135999.99999999997,
      "d": 869.791666666657,
      "v": 127
    },
    {
      "midi": 57,
      "hit": false,
      "t": 136249.99999999997,
      "d": 296.875,
      "v": 127
    },
    {
      "midi": 60,
      "hit": false,
      "t": 136499.99999999997,
      "d": 562.5,
      "v": 127
    },
    {
      "midi": 57,
      "hit": false,
      "t": 136749.99999999997,
      "d": 276.04166666665697,
      "v": 127
    },
    {
      "midi": 55,
      "hit": false,
      "t": 136999.99999999997,
      "d": 809.375,
      "v": 127
    },
    {
      "midi": 59,
      "hit": false,
      "t": 137249.99999999997,
      "d": 281.25,
      "v": 127
    },
    {
      "midi": 62,
      "hit": false,
      "t": 137499.99999999997,
      "d": 484.375,
      "v": 127
    },
    {
      "midi": 59,
      "hit": false,
      "t": 137749.99999999997,
      "d": 140.625,
      "v": 127
    },
    {
      "midi": 60,
      "hit": false,
      "t": 137999.99999999997,
      "d": 470.83333333334303,
      "v": 127
    },
    {
      "midi": 64,
      "hit": false,
      "t": 138249.99999999997,
      "d": 205.20833333334303,
      "v": 127
    },
    {
      "midi": 60,
      "hit": false,
      "t": 138499.99999999997,
      "d": 382.29166666665697,
      "v": 127
    },
    {
      "midi": 64,
      "hit": false,
      "t": 138499.99999999997,
      "d": 406.25,
      "v": 127
    },
    {
      "midi": 67,
      "hit": false,
      "t": 138499.99999999997,
      "d": 416.66666666665697,
      "v": 127
    },
    {
      "midi": 60,
      "hit": false,
      "t": 138999.99999999997,
      "d": 187.5,
      "v": 127
    },
    {
      "midi": 65,
      "hit": false,
      "t": 138999.99999999997,
      "d": 210.41666666665697,
      "v": 127
    },
    {
      "midi": 69,
      "hit": false,
      "t": 138999.99999999997,
      "d": 236.45833333331393,
      "v": 127
    },
    {
      "midi": 60,
      "hit": false,
      "t": 139249.99999999994,
      "d": 369.79166666665697,
      "v": 127
    },
    {
      "midi": 65,
      "hit": false,
      "t": 139249.99999999994,
      "d": 397.91666666665697,
      "v": 127
    },
    {
      "midi": 69,
      "hit": false,
      "t": 139249.99999999994,
      "d": 427.08333333331393,
      "v": 127
    },
    {
      "midi": 62,
      "hit": false,
      "t": 139749.9999999999,
      "d": 296.875,
      "v": 127
    },
    {
      "midi": 67,
      "hit": false,
      "t": 139749.9999999999,
      "d": 319.79166666665697,
      "v": 127
    },
    {
      "midi": 71,
      "hit": false,
      "t": 139749.9999999999,
      "d": 325,
      "v": 127
    },
    {
      "midi": 62,
      "hit": false,
      "t": 140249.9999999999,
      "d": 88.54166666665697,
      "v": 127
    },
    {
      "midi": 67,
      "hit": false,
      "t": 140249.9999999999,
      "d": 90.625,
      "v": 127
    },
    {
      "midi": 71,
      "hit": false,
      "t": 140249.9999999999,
      "d": 111.45833333334303,
      "v": 127
    },
    {
      "midi": 67,
      "hit": false,
      "t": 140499.9999999999,
      "d": 93.75,
      "v": 127
    },
    {
      "midi": 62,
      "hit": false,
      "t": 140499.9999999999,
      "d": 106.25,
      "v": 127
    },
    {
      "midi": 71,
      "hit": false,
      "t": 140499.9999999999,
      "d": 114.58333333334303,
      "v": 127
    },
    {
      "midi": 62,
      "hit": false,
      "t": 140749.9999999999,
      "d": 75,
      "v": 127
    },
    {
      "midi": 67,
      "hit": false,
      "t": 140749.9999999999,
      "d": 101.04166666665697,
      "v": 127
    },
    {
      "midi": 71,
      "hit": false,
      "t": 140749.9999999999,
      "d": 101.04166666665697,
      "v": 127
    },
    {
      "midi": 62,
      "hit": false,
      "t": 140999.9999999999,
      "d": 80.20833333334303,
      "v": 127
    },
    {
      "midi": 67,
      "hit": false,
      "t": 140999.9999999999,
      "d": 104.16666666668607,
      "v": 127
    },
    {
      "midi": 71,
      "hit": false,
      "t": 140999.9999999999,
      "d": 104.16666666668607,
      "v": 127
    },
    {
      "midi": 67,
      "hit": false,
      "t": 141249.99999999994,
      "d": 78.125,
      "v": 127
    },
    {
      "midi": 71,
      "hit": false,
      "t": 141249.99999999994,
      "d": 80.20833333334303,
      "v": 127
    },
    {
      "midi": 62,
      "hit": false,
      "t": 141249.99999999994,
      "d": 90.625,
      "v": 127
    },
    {
      "midi": 62,
      "hit": false,
      "t": 141499.99999999994,
      "d": 114.58333333334303,
      "v": 127
    },
    {
      "midi": 67,
      "hit": false,
      "t": 141499.99999999994,
      "d": 121.875,
      "v": 127
    },
    {
      "midi": 71,
      "hit": false,
      "t": 141499.99999999994,
      "d": 121.875,
      "v": 127
    },
    {
      "midi": 62,
      "hit": false,
      "t": 141749.99999999994,
      "d": 104.16666666665697,
      "v": 127
    },
    {
      "midi": 67,
      "hit": false,
      "t": 141749.99999999994,
      "d": 121.875,
      "v": 127
    },
    {
      "midi": 71,
      "hit": false,
      "t": 141749.99999999994,
      "d": 121.875,
      "v": 127
    },
    {
      "midi": 60,
      "hit": false,
      "t": 141999.99999999994,
      "d": 765.625,
      "v": 127
    },
    {
      "midi": 64,
      "hit": false,
      "t": 142249.99999999994,
      "d": 302.08333333334303,
      "v": 127
    },
    {
      "midi": 67,
      "hit": false,
      "t": 142499.99999999994,
      "d": 543.75,
      "v": 127
    },
    {
      "midi": 64,
      "hit": false,
      "t": 142749.99999999994,
      "d": 255.20833333334303,
      "v": 127
    },
    {
      "midi": 57,
      "hit": false,
      "t": 142999.99999999994,
      "d": 812.5,
      "v": 127
    },
    {
      "midi": 60,
      "hit": false,
      "t": 143249.99999999994,
      "d": 304.16666666665697,
      "v": 127
    },
    {
      "midi": 64,
      "hit": false,
      "t": 143499.99999999994,
      "d": 562.5,
      "v": 127
    },
    {
      "midi": 60,
      "hit": false,
      "t": 143749.99999999994,
      "d": 250,
      "v": 127
    },
    {
      "midi": 53,
      "hit": false,
      "t": 143999.99999999994,
      "d": 869.791666666657,
      "v": 127
    },
    {
      "midi": 57,
      "hit": false,
      "t": 144249.99999999994,
      "d": 296.875,
      "v": 127
    },
    {
      "midi": 60,
      "hit": false,
      "t": 144499.99999999994,
      "d": 562.5,
      "v": 127
    },
    {
      "midi": 57,
      "hit": false,
      "t": 144749.99999999994,
      "d": 276.04166666665697,
      "v": 127
    },
    {
      "midi": 55,
      "hit": false,
      "t": 144999.99999999994,
      "d": 809.375,
      "v": 127
    },
    {
      "midi": 59,
      "hit": false,
      "t": 145249.99999999994,
      "d": 281.25,
      "v": 127
    },
    {
      "midi": 62,
      "hit": false,
      "t": 145499.99999999994,
      "d": 484.375,
      "v": 127
    },
    {
      "midi": 59,
      "hit": false,
      "t": 145749.99999999994,
      "d": 140.625,
      "v": 127
    },
    {
      "midi": 60,
      "hit": false,
      "t": 145999.99999999994,
      "d": 470.83333333334303,
      "v": 127
    },
    {
      "midi": 64,
      "hit": false,
      "t": 146249.99999999994,
      "d": 205.20833333334303,
      "v": 127
    },
    {
      "midi": 60,
      "hit": false,
      "t": 146499.99999999994,
      "d": 382.29166666665697,
      "v": 127
    },
    {
      "midi": 64,
      "hit": false,
      "t": 146499.99999999994,
      "d": 406.25,
      "v": 127
    },
    {
      "midi": 67,
      "hit": false,
      "t": 146499.99999999994,
      "d": 416.66666666665697,
      "v": 127
    },
    {
      "midi": 60,
      "hit": false,
      "t": 146999.99999999994,
      "d": 187.5,
      "v": 127
    },
    {
      "midi": 65,
      "hit": false,
      "t": 146999.99999999994,
      "d": 210.41666666665697,
      "v": 127
    },
    {
      "midi": 69,
      "hit": false,
      "t": 146999.99999999994,
      "d": 236.45833333331393,
      "v": 127
    },
    {
      "midi": 60,
      "hit": false,
      "t": 147249.9999999999,
      "d": 369.79166666665697,
      "v": 127
    },
    {
      "midi": 65,
      "hit": false,
      "t": 147249.9999999999,
      "d": 397.91666666665697,
      "v": 127
    },
    {
      "midi": 69,
      "hit": false,
      "t": 147249.9999999999,
      "d": 427.08333333331393,
      "v": 127
    },
    {
      "midi": 62,
      "hit": false,
      "t": 147749.99999999988,
      "d": 296.875,
      "v": 127
    },
    {
      "midi": 67,
      "hit": false,
      "t": 147749.99999999988,
      "d": 319.79166666665697,
      "v": 127
    },
    {
      "midi": 71,
      "hit": false,
      "t": 147749.99999999988,
      "d": 325,
      "v": 127
    },
    {
      "midi": 62,
      "hit": false,
      "t": 148249.99999999988,
      "d": 88.54166666665697,
      "v": 127
    },
    {
      "midi": 67,
      "hit": false,
      "t": 148249.99999999988,
      "d": 90.625,
      "v": 127
    },
    {
      "midi": 71,
      "hit": false,
      "t": 148249.99999999988,
      "d": 111.45833333334303,
      "v": 127
    },
    {
      "midi": 67,
      "hit": false,
      "t": 148499.99999999988,
      "d": 93.75,
      "v": 127
    },
    {
      "midi": 62,
      "hit": false,
      "t": 148499.99999999988,
      "d": 106.25,
      "v": 127
    },
    {
      "midi": 71,
      "hit": false,
      "t": 148499.99999999988,
      "d": 114.58333333334303,
      "v": 127
    },
    {
      "midi": 62,
      "hit": false,
      "t": 148749.99999999988,
      "d": 75,
      "v": 127
    },
    {
      "midi": 67,
      "hit": false,
      "t": 148749.99999999988,
      "d": 101.04166666665697,
      "v": 127
    },
    {
      "midi": 71,
      "hit": false,
      "t": 148749.99999999988,
      "d": 101.04166666665697,
      "v": 127
    },
    {
      "midi": 62,
      "hit": false,
      "t": 148999.99999999988,
      "d": 80.20833333334303,
      "v": 127
    },
    {
      "midi": 67,
      "hit": false,
      "t": 148999.99999999988,
      "d": 104.16666666668607,
      "v": 127
    },
    {
      "midi": 71,
      "hit": false,
      "t": 148999.99999999988,
      "d": 104.16666666668607,
      "v": 127
    },
    {
      "midi": 67,
      "hit": false,
      "t": 149249.9999999999,
      "d": 78.125,
      "v": 127
    },
    {
      "midi": 71,
      "hit": false,
      "t": 149249.9999999999,
      "d": 80.20833333334303,
      "v": 127
    },
    {
      "midi": 62,
      "hit": false,
      "t": 149249.9999999999,
      "d": 90.625,
      "v": 127
    },
    {
      "midi": 62,
      "hit": false,
      "t": 149499.9999999999,
      "d": 114.58333333334303,
      "v": 127
    },
    {
      "midi": 67,
      "hit": false,
      "t": 149499.9999999999,
      "d": 121.875,
      "v": 127
    },
    {
      "midi": 71,
      "hit": false,
      "t": 149499.9999999999,
      "d": 121.875,
      "v": 127
    },
    {
      "midi": 62,
      "hit": false,
      "t": 149749.9999999999,
      "d": 104.16666666665697,
      "v": 127
    },
    {
      "midi": 67,
      "hit": false,
      "t": 149749.9999999999,
      "d": 121.875,
      "v": 127
    },
    {
      "midi": 71,
      "hit": false,
      "t": 149749.9999999999,
      "d": 121.875,
      "v": 127
    },
    {
      "midi": 60,
      "hit": false,
      "t": 149999.9999999999,
      "d": 765.625,
      "v": 127
    },
    {
      "midi": 64,
      "hit": false,
      "t": 150249.9999999999,
      "d": 302.08333333334303,
      "v": 127
    },
    {
      "midi": 67,
      "hit": false,
      "t": 150499.9999999999,
      "d": 543.75,
      "v": 127
    },
    {
      "midi": 64,
      "hit": false,
      "t": 150749.9999999999,
      "d": 255.20833333334303,
      "v": 127
    },
    {
      "midi": 57,
      "hit": false,
      "t": 150999.9999999999,
      "d": 812.5,
      "v": 127
    },
    {
      "midi": 60,
      "hit": false,
      "t": 151249.9999999999,
      "d": 304.16666666665697,
      "v": 127
    },
    {
      "midi": 64,
      "hit": false,
      "t": 151499.9999999999,
      "d": 562.5,
      "v": 127
    },
    {
      "midi": 60,
      "hit": false,
      "t": 151749.9999999999,
      "d": 250,
      "v": 127
    },
    {
      "midi": 53,
      "hit": false,
      "t": 151999.9999999999,
      "d": 869.791666666657,
      "v": 127
    },
    {
      "midi": 57,
      "hit": false,
      "t": 152249.9999999999,
      "d": 296.875,
      "v": 127
    },
    {
      "midi": 60,
      "hit": false,
      "t": 152499.9999999999,
      "d": 562.5,
      "v": 127
    },
    {
      "midi": 57,
      "hit": false,
      "t": 152749.9999999999,
      "d": 276.04166666665697,
      "v": 127
    },
    {
      "midi": 55,
      "hit": false,
      "t": 152999.9999999999,
      "d": 809.375,
      "v": 127
    },
    {
      "midi": 59,
      "hit": false,
      "t": 153249.9999999999,
      "d": 281.25,
      "v": 127
    },
    {
      "midi": 62,
      "hit": false,
      "t": 153499.9999999999,
      "d": 484.375,
      "v": 127
    },
    {
      "midi": 59,
      "hit": false,
      "t": 153749.9999999999,
      "d": 140.625,
      "v": 127
    },
    {
      "midi": 60,
      "hit": false,
      "t": 153999.9999999999,
      "d": 470.83333333334303,
      "v": 127
    },
    {
      "midi": 64,
      "hit": false,
      "t": 154249.9999999999,
      "d": 205.20833333334303,
      "v": 127
    },
    {
      "midi": 60,
      "hit": false,
      "t": 154499.9999999999,
      "d": 382.29166666665697,
      "v": 127
    },
    {
      "midi": 64,
      "hit": false,
      "t": 154499.9999999999,
      "d": 406.25,
      "v": 127
    },
    {
      "midi": 67,
      "hit": false,
      "t": 154499.9999999999,
      "d": 416.66666666665697,
      "v": 127
    },
    {
      "midi": 60,
      "hit": false,
      "t": 154999.9999999999,
      "d": 187.5,
      "v": 127
    },
    {
      "midi": 65,
      "hit": false,
      "t": 154999.9999999999,
      "d": 210.41666666665697,
      "v": 127
    },
    {
      "midi": 69,
      "hit": false,
      "t": 154999.9999999999,
      "d": 236.45833333331393,
      "v": 127
    },
    {
      "midi": 60,
      "hit": false,
      "t": 155249.99999999988,
      "d": 369.79166666665697,
      "v": 127
    },
    {
      "midi": 65,
      "hit": false,
      "t": 155249.99999999988,
      "d": 397.91666666665697,
      "v": 127
    },
    {
      "midi": 69,
      "hit": false,
      "t": 155249.99999999988,
      "d": 427.08333333331393,
      "v": 127
    },
    {
      "midi": 62,
      "hit": false,
      "t": 155749.99999999985,
      "d": 296.875,
      "v": 127
    },
    {
      "midi": 67,
      "hit": false,
      "t": 155749.99999999985,
      "d": 319.79166666665697,
      "v": 127
    },
    {
      "midi": 71,
      "hit": false,
      "t": 155749.99999999985,
      "d": 325,
      "v": 127
    },
    {
      "midi": 62,
      "hit": false,
      "t": 156249.99999999985,
      "d": 88.54166666665697,
      "v": 127
    },
    {
      "midi": 67,
      "hit": false,
      "t": 156249.99999999985,
      "d": 90.625,
      "v": 127
    },
    {
      "midi": 71,
      "hit": false,
      "t": 156249.99999999985,
      "d": 111.45833333334303,
      "v": 127
    },
    {
      "midi": 67,
      "hit": false,
      "t": 156499.99999999985,
      "d": 93.75,
      "v": 127
    },
    {
      "midi": 62,
      "hit": false,
      "t": 156499.99999999985,
      "d": 106.25,
      "v": 127
    },
    {
      "midi": 71,
      "hit": false,
      "t": 156499.99999999985,
      "d": 114.58333333334303,
      "v": 127
    },
    {
      "midi": 62,
      "hit": false,
      "t": 156749.99999999985,
      "d": 75,
      "v": 127
    },
    {
      "midi": 67,
      "hit": false,
      "t": 156749.99999999985,
      "d": 101.04166666665697,
      "v": 127
    },
    {
      "midi": 71,
      "hit": false,
      "t": 156749.99999999985,
      "d": 101.04166666665697,
      "v": 127
    },
    {
      "midi": 62,
      "hit": false,
      "t": 156999.99999999985,
      "d": 80.20833333334303,
      "v": 127
    },
    {
      "midi": 67,
      "hit": false,
      "t": 156999.99999999985,
      "d": 104.16666666668607,
      "v": 127
    },
    {
      "midi": 71,
      "hit": false,
      "t": 156999.99999999985,
      "d": 104.16666666668607,
      "v": 127
    },
    {
      "midi": 67,
      "hit": false,
      "t": 157249.99999999988,
      "d": 78.125,
      "v": 127
    },
    {
      "midi": 71,
      "hit": false,
      "t": 157249.99999999988,
      "d": 80.20833333334303,
      "v": 127
    },
    {
      "midi": 62,
      "hit": false,
      "t": 157249.99999999988,
      "d": 90.625,
      "v": 127
    },
    {
      "midi": 62,
      "hit": false,
      "t": 157499.99999999988,
      "d": 121.875,
      "v": 127
    },
    {
      "midi": 67,
      "hit": false,
      "t": 157499.99999999988,
      "d": 121.875,
      "v": 127
    },
    {
      "midi": 71,
      "hit": false,
      "t": 157499.99999999988,
      "d": 121.875,
      "v": 127
    },
    {
      "midi": 62,
      "hit": false,
      "t": 157749.99999999988,
      "d": 121.875,
      "v": 127
    },
    {
      "midi": 67,
      "hit": false,
      "t": 157749.99999999988,
      "d": 121.875,
      "v": 127
    },
    {
      "midi": 71,
      "hit": false,
      "t": 157749.99999999988,
      "d": 121.875,
      "v": 127
    },
    {
      "midi": 48,
      "hit": false,
      "t": 157999.99999999988,
      "d": 996.875,
      "v": 127
    },
    {
      "midi": 55,
      "hit": false,
      "t": 157999.99999999988,
      "d": 996.875,
      "v": 127
    },
    {
      "midi": 60,
      "hit": false,
      "t": 157999.99999999988,
      "d": 996.875,
      "v": 127
    },
    {
      "midi": 72,
      "hit": false,
      "t": 157999.99999999988,
      "d": 996.875,
      "v": 127
    }
  ]
}