{
  "jsonPath": "Jazz/Reggae Fusion/Inner Circle/big-tings-a-gwaan.json",
  "path": "Jazz\\Reggae Fusion\\Inner Circle\\Big Tings A Gwaan.mid",
  "name": "Big Tings A Gwaan",
  "difficulty": "Advanced",
  "bpm": 98.00014373354415,
  "notes": [
    {
      "midi": 53,
      "hit": false,
      "t": 2433.0321458333333,
      "d": 2423.465833333333,
      "v": 111
    },
    {
      "midi": 57,
      "hit": false,
      "t": 2436.2209166666667,
      "d": 2423.465833333333,
      "v": 110
    },
    {
      "midi": 60,
      "hit": false,
      "t": 2436.2209166666667,
      "d": 2423.465833333333,
      "v": 111
    },
    {
      "midi": 65,
      "hit": false,
      "t": 2436.2209166666667,
      "d": 2423.465833333333,
      "v": 111
    },
    {
      "midi": 53,
      "hit": false,
      "t": 2471.297395833333,
      "d": 2423.4658333333336,
      "v": 111
    },
    {
      "midi": 57,
      "hit": false,
      "t": 2474.4861666666666,
      "d": 2423.4658333333336,
      "v": 110
    },
    {
      "midi": 60,
      "hit": false,
      "t": 2474.4861666666666,
      "d": 2423.4658333333336,
      "v": 111
    },
    {
      "midi": 65,
      "hit": false,
      "t": 2474.4861666666666,
      "d": 2423.4658333333336,
      "v": 111
    },
    {
      "midi": 45,
      "hit": false,
      "t": 4885.196916666667,
      "d": 2423.4658333333327,
      "v": 110
    },
    {
      "midi": 55,
      "hit": false,
      "t": 4885.196916666667,
      "d": 2423.4658333333327,
      "v": 110
    },
    {
      "midi": 60,
      "hit": false,
      "t": 4885.196916666667,
      "d": 2423.4658333333327,
      "v": 111
    },
    {
      "midi": 64,
      "hit": false,
      "t": 4885.196916666667,
      "d": 2423.4658333333327,
      "v": 110
    },
    {
      "midi": 45,
      "hit": false,
      "t": 4923.462166666667,
      "d": 2423.4658333333327,
      "v": 110
    },
    {
      "midi": 55,
      "hit": false,
      "t": 4923.462166666667,
      "d": 2423.4658333333327,
      "v": 110
    },
    {
      "midi": 60,
      "hit": false,
      "t": 4923.462166666667,
      "d": 2423.4658333333327,
      "v": 111
    },
    {
      "midi": 64,
      "hit": false,
      "t": 4923.462166666667,
      "d": 2423.4658333333327,
      "v": 110
    },
    {
      "midi": 57,
      "hit": false,
      "t": 7330.984145833333,
      "d": 2423.4658333333346,
      "v": 111
    },
    {
      "midi": 46,
      "hit": false,
      "t": 7334.172916666666,
      "d": 2423.4658333333336,
      "v": 111
    },
    {
      "midi": 53,
      "hit": false,
      "t": 7334.172916666666,
      "d": 2423.4658333333336,
      "v": 110
    },
    {
      "midi": 62,
      "hit": false,
      "t": 7337.3616875,
      "d": 2423.4658333333327,
      "v": 110
    },
    {
      "midi": 57,
      "hit": false,
      "t": 7369.249395833333,
      "d": 2423.4658333333346,
      "v": 111
    },
    {
      "midi": 46,
      "hit": false,
      "t": 7372.438166666667,
      "d": 2423.4658333333336,
      "v": 111
    },
    {
      "midi": 53,
      "hit": false,
      "t": 7372.438166666667,
      "d": 2423.4658333333336,
      "v": 110
    },
    {
      "midi": 62,
      "hit": false,
      "t": 7375.6269375,
      "d": 2423.4658333333327,
      "v": 110
    },
    {
      "midi": 48,
      "hit": false,
      "t": 9779.960145833333,
      "d": 1785.7116666666661,
      "v": 111
    },
    {
      "midi": 58,
      "hit": false,
      "t": 9779.960145833333,
      "d": 1785.7116666666661,
      "v": 111
    },
    {
      "midi": 53,
      "hit": false,
      "t": 9783.148916666665,
      "d": 1785.7116666666661,
      "v": 110
    },
    {
      "midi": 62,
      "hit": false,
      "t": 9783.148916666665,
      "d": 1785.7116666666661,
      "v": 110
    },
    {
      "midi": 48,
      "hit": false,
      "t": 9818.225395833333,
      "d": 1785.7116666666661,
      "v": 111
    },
    {
      "midi": 58,
      "hit": false,
      "t": 9818.225395833333,
      "d": 1785.7116666666661,
      "v": 111
    },
    {
      "midi": 53,
      "hit": false,
      "t": 9821.414166666666,
      "d": 1785.7116666666661,
      "v": 110
    },
    {
      "midi": 62,
      "hit": false,
      "t": 9821.414166666666,
      "d": 1785.7116666666661,
      "v": 110
    },
    {
      "midi": 53,
      "hit": false,
      "t": 11616.69214583333,
      "d": 280.61183333333247,
      "v": 110
    },
    {
      "midi": 58,
      "hit": false,
      "t": 11616.69214583333,
      "d": 280.61183333333247,
      "v": 111
    },
    {
      "midi": 62,
      "hit": false,
      "t": 11619.880916666663,
      "d": 586.7338333333319,
      "v": 111
    },
    {
      "midi": 48,
      "hit": false,
      "t": 11623.069687499996,
      "d": 586.7338333333319,
      "v": 111
    },
    {
      "midi": 53,
      "hit": false,
      "t": 11654.957395833331,
      "d": 280.61183333333247,
      "v": 110
    },
    {
      "midi": 58,
      "hit": false,
      "t": 11654.957395833331,
      "d": 280.61183333333247,
      "v": 111
    },
    {
      "midi": 62,
      "hit": false,
      "t": 11658.146166666664,
      "d": 586.7338333333319,
      "v": 111
    },
    {
      "midi": 48,
      "hit": false,
      "t": 11661.334937499996,
      "d": 586.7338333333319,
      "v": 111
    },
    {
      "midi": 65,
      "hit": false,
      "t": 11922.81414583333,
      "d": 280.61183333333247,
      "v": 110
    },
    {
      "midi": 58,
      "hit": false,
      "t": 11926.002916666663,
      "d": 280.61183333333247,
      "v": 111
    },
    {
      "midi": 65,
      "hit": false,
      "t": 11961.07939583333,
      "d": 280.61183333333247,
      "v": 110
    },
    {
      "midi": 58,
      "hit": false,
      "t": 11964.268166666663,
      "d": 280.61183333333247,
      "v": 111
    },
    {
      "midi": 53,
      "hit": false,
      "t": 12232.12491666666,
      "d": 2423.4658333333336,
      "v": 111
    },
    {
      "midi": 57,
      "hit": false,
      "t": 12232.12491666666,
      "d": 2423.4658333333336,
      "v": 110
    },
    {
      "midi": 60,
      "hit": false,
      "t": 12232.12491666666,
      "d": 2423.4658333333336,
      "v": 110
    },
    {
      "midi": 65,
      "hit": false,
      "t": 12232.12491666666,
      "d": 2423.4658333333336,
      "v": 111
    },
    {
      "midi": 53,
      "hit": false,
      "t": 12270.39016666666,
      "d": 2423.4658333333336,
      "v": 111
    },
    {
      "midi": 57,
      "hit": false,
      "t": 12270.39016666666,
      "d": 2423.4658333333336,
      "v": 110
    },
    {
      "midi": 60,
      "hit": false,
      "t": 12270.39016666666,
      "d": 2423.4658333333336,
      "v": 110
    },
    {
      "midi": 65,
      "hit": false,
      "t": 12270.39016666666,
      "d": 2423.4658333333336,
      "v": 111
    },
    {
      "midi": 60,
      "hit": false,
      "t": 14677.912145833327,
      "d": 2423.4658333333336,
      "v": 110
    },
    {
      "midi": 55,
      "hit": false,
      "t": 14681.100916666659,
      "d": 2423.4658333333355,
      "v": 110
    },
    {
      "midi": 64,
      "hit": false,
      "t": 14681.100916666659,
      "d": 2423.4658333333355,
      "v": 111
    },
    {
      "midi": 45,
      "hit": false,
      "t": 14684.289687499991,
      "d": 2423.4658333333373,
      "v": 111
    },
    {
      "midi": 60,
      "hit": false,
      "t": 14716.177395833327,
      "d": 2423.46583333333,
      "v": 110
    },
    {
      "midi": 55,
      "hit": false,
      "t": 14719.36616666666,
      "d": 2423.465833333332,
      "v": 110
    },
    {
      "midi": 64,
      "hit": false,
      "t": 14719.36616666666,
      "d": 2423.465833333332,
      "v": 111
    },
    {
      "midi": 45,
      "hit": false,
      "t": 14722.554937499992,
      "d": 2423.4658333333336,
      "v": 111
    },
    {
      "midi": 57,
      "hit": false,
      "t": 17126.888145833327,
      "d": 2423.4658333333355,
      "v": 110
    },
    {
      "midi": 62,
      "hit": false,
      "t": 17126.888145833327,
      "d": 2423.4658333333355,
      "v": 110
    },
    {
      "midi": 46,
      "hit": false,
      "t": 17130.07691666666,
      "d": 2423.4658333333355,
      "v": 111
    },
    {
      "midi": 53,
      "hit": false,
      "t": 17130.07691666666,
      "d": 2423.4658333333355,
      "v": 110
    },
    {
      "midi": 57,
      "hit": false,
      "t": 17165.153395833324,
      "d": 2423.4658333333355,
      "v": 110
    },
    {
      "midi": 62,
      "hit": false,
      "t": 17165.153395833324,
      "d": 2423.4658333333355,
      "v": 110
    },
    {
      "midi": 46,
      "hit": false,
      "t": 17168.342166666658,
      "d": 2423.4658333333355,
      "v": 111
    },
    {
      "midi": 53,
      "hit": false,
      "t": 17168.342166666658,
      "d": 2423.4658333333355,
      "v": 110
    },
    {
      "midi": 53,
      "hit": false,
      "t": 19572.675374999995,
      "d": 1785.7116666666698,
      "v": 111
    },
    {
      "midi": 58,
      "hit": false,
      "t": 19575.86414583333,
      "d": 1785.7116666666698,
      "v": 111
    },
    {
      "midi": 48,
      "hit": false,
      "t": 19579.052916666664,
      "d": 1785.7116666666698,
      "v": 110
    },
    {
      "midi": 62,
      "hit": false,
      "t": 19579.052916666664,
      "d": 1785.7116666666698,
      "v": 111
    },
    {
      "midi": 53,
      "hit": false,
      "t": 19610.940624999992,
      "d": 1785.7116666666698,
      "v": 111
    },
    {
      "midi": 58,
      "hit": false,
      "t": 19614.129395833326,
      "d": 1785.7116666666698,
      "v": 111
    },
    {
      "midi": 48,
      "hit": false,
      "t": 19617.31816666666,
      "d": 1785.7116666666698,
      "v": 110
    },
    {
      "midi": 62,
      "hit": false,
      "t": 19617.31816666666,
      "d": 1785.7116666666698,
      "v": 111
    },
    {
      "midi": 53,
      "hit": false,
      "t": 21412.596145833333,
      "d": 280.6118333333361,
      "v": 111
    },
    {
      "midi": 48,
      "hit": false,
      "t": 21412.596145833333,
      "d": 586.7338333333355,
      "v": 110
    },
    {
      "midi": 62,
      "hit": false,
      "t": 21412.596145833333,
      "d": 586.7338333333355,
      "v": 110
    },
    {
      "midi": 58,
      "hit": false,
      "t": 21415.784916666667,
      "d": 280.6118333333361,
      "v": 111
    },
    {
      "midi": 53,
      "hit": false,
      "t": 21450.86139583333,
      "d": 280.6118333333361,
      "v": 111
    },
    {
      "midi": 48,
      "hit": false,
      "t": 21450.86139583333,
      "d": 586.7338333333355,
      "v": 110
    },
    {
      "midi": 62,
      "hit": false,
      "t": 21450.86139583333,
      "d": 586.7338333333355,
      "v": 110
    },
    {
      "midi": 58,
      "hit": false,
      "t": 21454.050166666664,
      "d": 280.6118333333361,
      "v": 111
    },
    {
      "midi": 65,
      "hit": false,
      "t": 21715.529375000002,
      "d": 280.61183333333247,
      "v": 110
    },
    {
      "midi": 58,
      "hit": false,
      "t": 21718.718145833336,
      "d": 280.61183333333247,
      "v": 110
    },
    {
      "midi": 65,
      "hit": false,
      "t": 21753.794625,
      "d": 280.61183333333247,
      "v": 110
    },
    {
      "midi": 58,
      "hit": false,
      "t": 21756.983395833333,
      "d": 280.61183333333247,
      "v": 110
    },
    {
      "midi": 65,
      "hit": false,
      "t": 22021.651375,
      "d": 2423.465833333332,
      "v": 111
    },
    {
      "midi": 53,
      "hit": false,
      "t": 22028.028916666666,
      "d": 2423.465833333332,
      "v": 111
    },
    {
      "midi": 57,
      "hit": false,
      "t": 22028.028916666666,
      "d": 2423.465833333332,
      "v": 110
    },
    {
      "midi": 60,
      "hit": false,
      "t": 22028.028916666666,
      "d": 2423.465833333332,
      "v": 110
    },
    {
      "midi": 65,
      "hit": false,
      "t": 22059.916624999998,
      "d": 2423.465833333332,
      "v": 111
    },
    {
      "midi": 53,
      "hit": false,
      "t": 22066.294166666663,
      "d": 2423.465833333332,
      "v": 111
    },
    {
      "midi": 57,
      "hit": false,
      "t": 22066.294166666663,
      "d": 2423.465833333332,
      "v": 110
    },
    {
      "midi": 60,
      "hit": false,
      "t": 22066.294166666663,
      "d": 2423.465833333332,
      "v": 110
    },
    {
      "midi": 60,
      "hit": false,
      "t": 24473.81614583333,
      "d": 2423.4658333333355,
      "v": 111
    },
    {
      "midi": 55,
      "hit": false,
      "t": 24477.004916666665,
      "d": 2423.4658333333355,
      "v": 110
    },
    {
      "midi": 64,
      "hit": false,
      "t": 24477.004916666665,
      "d": 2423.4658333333355,
      "v": 111
    },
    {
      "midi": 45,
      "hit": false,
      "t": 24480.1936875,
      "d": 2423.4658333333355,
      "v": 111
    },
    {
      "midi": 60,
      "hit": false,
      "t": 24512.081395833327,
      "d": 2423.4658333333355,
      "v": 111
    },
    {
      "midi": 55,
      "hit": false,
      "t": 24515.27016666666,
      "d": 2423.4658333333355,
      "v": 110
    },
    {
      "midi": 64,
      "hit": false,
      "t": 24515.27016666666,
      "d": 2423.4658333333355,
      "v": 111
    },
    {
      "midi": 45,
      "hit": false,
      "t": 24518.458937499996,
      "d": 2423.4658333333355,
      "v": 111
    },
    {
      "midi": 53,
      "hit": false,
      "t": 26919.603375000002,
      "d": 2423.465833333332,
      "v": 110
    },
    {
      "midi": 46,
      "hit": false,
      "t": 26925.980916666667,
      "d": 2423.465833333332,
      "v": 110
    },
    {
      "midi": 57,
      "hit": false,
      "t": 26925.980916666667,
      "d": 2423.465833333332,
      "v": 111
    },
    {
      "midi": 62,
      "hit": false,
      "t": 26929.1696875,
      "d": 2423.465833333332,
      "v": 110
    },
    {
      "midi": 53,
      "hit": false,
      "t": 26957.868625,
      "d": 2423.465833333332,
      "v": 110
    },
    {
      "midi": 46,
      "hit": false,
      "t": 26964.246166666664,
      "d": 2423.465833333332,
      "v": 110
    },
    {
      "midi": 57,
      "hit": false,
      "t": 26964.246166666664,
      "d": 2423.465833333332,
      "v": 111
    },
    {
      "midi": 62,
      "hit": false,
      "t": 26967.4349375,
      "d": 2423.465833333332,
      "v": 110
    },
    {
      "midi": 65,
      "hit": false,
      "t": 31817.555375,
      "d": 2423.465833333332,
      "v": 111
    },
    {
      "midi": 53,
      "hit": false,
      "t": 31823.932916666665,
      "d": 2423.4658333333355,
      "v": 111
    },
    {
      "midi": 57,
      "hit": false,
      "t": 31827.1216875,
      "d": 2423.465833333332,
      "v": 110
    },
    {
      "midi": 60,
      "hit": false,
      "t": 31827.1216875,
      "d": 2423.465833333332,
      "v": 110
    },
    {
      "midi": 65,
      "hit": false,
      "t": 31855.820624999997,
      "d": 2423.465833333332,
      "v": 111
    },
    {
      "midi": 53,
      "hit": false,
      "t": 31862.19816666666,
      "d": 2423.4658333333355,
      "v": 111
    },
    {
      "midi": 57,
      "hit": false,
      "t": 31865.386937499996,
      "d": 2423.465833333332,
      "v": 110
    },
    {
      "midi": 60,
      "hit": false,
      "t": 31865.386937499996,
      "d": 2423.465833333332,
      "v": 110
    },
    {
      "midi": 45,
      "hit": false,
      "t": 34266.531375,
      "d": 2423.4658333333355,
      "v": 111
    },
    {
      "midi": 55,
      "hit": false,
      "t": 34269.72014583333,
      "d": 2423.4658333333355,
      "v": 110
    },
    {
      "midi": 60,
      "hit": false,
      "t": 34269.72014583333,
      "d": 2423.4658333333355,
      "v": 111
    },
    {
      "midi": 64,
      "hit": false,
      "t": 34276.0976875,
      "d": 2423.4658333333355,
      "v": 110
    },
    {
      "midi": 45,
      "hit": false,
      "t": 34304.796624999995,
      "d": 2423.4658333333355,
      "v": 111
    },
    {
      "midi": 55,
      "hit": false,
      "t": 34307.985395833326,
      "d": 2423.4658333333355,
      "v": 110
    },
    {
      "midi": 60,
      "hit": false,
      "t": 34307.985395833326,
      "d": 2423.4658333333355,
      "v": 111
    },
    {
      "midi": 64,
      "hit": false,
      "t": 34314.362937499995,
      "d": 2423.4658333333355,
      "v": 110
    },
    {
      "midi": 57,
      "hit": false,
      "t": 36715.507375,
      "d": 2423.465833333328,
      "v": 111
    },
    {
      "midi": 62,
      "hit": false,
      "t": 36715.507375,
      "d": 2423.465833333328,
      "v": 110
    },
    {
      "midi": 53,
      "hit": false,
      "t": 36718.69614583333,
      "d": 2423.465833333328,
      "v": 111
    },
    {
      "midi": 46,
      "hit": false,
      "t": 36721.88491666666,
      "d": 2423.465833333328,
      "v": 111
    },
    {
      "midi": 57,
      "hit": false,
      "t": 36753.772625,
      "d": 2423.465833333328,
      "v": 111
    },
    {
      "midi": 62,
      "hit": false,
      "t": 36753.772625,
      "d": 2423.465833333328,
      "v": 110
    },
    {
      "midi": 53,
      "hit": false,
      "t": 36756.96139583333,
      "d": 2423.465833333328,
      "v": 111
    },
    {
      "midi": 46,
      "hit": false,
      "t": 36760.15016666666,
      "d": 2423.465833333328,
      "v": 111
    },
    {
      "midi": 58,
      "hit": false,
      "t": 39164.48337499999,
      "d": 1785.7116666666625,
      "v": 110
    },
    {
      "midi": 48,
      "hit": false,
      "t": 39170.86091666666,
      "d": 1785.7116666666625,
      "v": 111
    },
    {
      "midi": 53,
      "hit": false,
      "t": 39174.04968749999,
      "d": 1785.7116666666625,
      "v": 110
    },
    {
      "midi": 62,
      "hit": false,
      "t": 39174.04968749999,
      "d": 1785.7116666666625,
      "v": 110
    },
    {
      "midi": 58,
      "hit": false,
      "t": 39202.748624999986,
      "d": 1785.7116666666625,
      "v": 110
    },
    {
      "midi": 48,
      "hit": false,
      "t": 39209.126166666654,
      "d": 1785.7116666666625,
      "v": 111
    },
    {
      "midi": 53,
      "hit": false,
      "t": 39212.314937499985,
      "d": 1785.7116666666625,
      "v": 110
    },
    {
      "midi": 62,
      "hit": false,
      "t": 39212.314937499985,
      "d": 1785.7116666666625,
      "v": 110
    },
    {
      "midi": 53,
      "hit": false,
      "t": 41007.592916666654,
      "d": 280.61183333332883,
      "v": 110
    },
    {
      "midi": 48,
      "hit": false,
      "t": 41007.592916666654,
      "d": 586.7338333333246,
      "v": 111
    },
    {
      "midi": 62,
      "hit": false,
      "t": 41007.592916666654,
      "d": 586.7338333333246,
      "v": 111
    },
    {
      "midi": 58,
      "hit": false,
      "t": 41010.781687499984,
      "d": 280.61183333332883,
      "v": 110
    },
    {
      "midi": 53,
      "hit": false,
      "t": 41045.85816666665,
      "d": 280.61183333332883,
      "v": 110
    },
    {
      "midi": 48,
      "hit": false,
      "t": 41045.85816666665,
      "d": 586.7338333333246,
      "v": 111
    },
    {
      "midi": 62,
      "hit": false,
      "t": 41045.85816666665,
      "d": 586.7338333333246,
      "v": 111
    },
    {
      "midi": 58,
      "hit": false,
      "t": 41049.04693749998,
      "d": 280.61183333332883,
      "v": 110
    },
    {
      "midi": 58,
      "hit": false,
      "t": 41316.90368749998,
      "d": 280.61183333332883,
      "v": 111
    },
    {
      "midi": 65,
      "hit": false,
      "t": 41316.90368749998,
      "d": 280.61183333332883,
      "v": 111
    },
    {
      "midi": 58,
      "hit": false,
      "t": 41355.16893749998,
      "d": 280.61183333332883,
      "v": 111
    },
    {
      "midi": 65,
      "hit": false,
      "t": 41355.16893749998,
      "d": 280.61183333332883,
      "v": 111
    },
    {
      "midi": 60,
      "hit": false,
      "t": 41613.45937499998,
      "d": 2423.465833333328,
      "v": 110
    },
    {
      "midi": 53,
      "hit": false,
      "t": 41616.64814583331,
      "d": 2423.465833333328,
      "v": 110
    },
    {
      "midi": 65,
      "hit": false,
      "t": 41619.83691666664,
      "d": 2423.465833333328,
      "v": 111
    },
    {
      "midi": 57,
      "hit": false,
      "t": 41623.02568749997,
      "d": 2423.465833333328,
      "v": 110
    },
    {
      "midi": 60,
      "hit": false,
      "t": 41651.72462499997,
      "d": 2423.465833333328,
      "v": 110
    },
    {
      "midi": 53,
      "hit": false,
      "t": 41654.913395833304,
      "d": 2423.465833333328,
      "v": 110
    },
    {
      "midi": 65,
      "hit": false,
      "t": 41658.102166666635,
      "d": 2423.465833333328,
      "v": 111
    },
    {
      "midi": 57,
      "hit": false,
      "t": 41661.290937499965,
      "d": 2423.465833333328,
      "v": 110
    },
    {
      "midi": 55,
      "hit": false,
      "t": 44065.624145833295,
      "d": 2423.465833333328,
      "v": 111
    },
    {
      "midi": 60,
      "hit": false,
      "t": 44065.624145833295,
      "d": 2423.465833333328,
      "v": 111
    },
    {
      "midi": 45,
      "hit": false,
      "t": 44068.812916666626,
      "d": 2423.465833333328,
      "v": 110
    },
    {
      "midi": 64,
      "hit": false,
      "t": 44072.00168749996,
      "d": 2423.465833333328,
      "v": 111
    },
    {
      "midi": 55,
      "hit": false,
      "t": 44103.88939583329,
      "d": 2423.465833333328,
      "v": 111
    },
    {
      "midi": 60,
      "hit": false,
      "t": 44103.88939583329,
      "d": 2423.465833333328,
      "v": 111
    },
    {
      "midi": 45,
      "hit": false,
      "t": 44107.07816666662,
      "d": 2423.465833333328,
      "v": 110
    },
    {
      "midi": 64,
      "hit": false,
      "t": 44110.26693749995,
      "d": 2423.465833333328,
      "v": 111
    },
    {
      "midi": 46,
      "hit": false,
      "t": 46514.60014583328,
      "d": 2423.465833333328,
      "v": 110
    },
    {
      "midi": 57,
      "hit": false,
      "t": 46514.60014583328,
      "d": 2423.465833333328,
      "v": 110
    },
    {
      "midi": 53,
      "hit": false,
      "t": 46517.788916666614,
      "d": 2423.465833333328,
      "v": 111
    },
    {
      "midi": 62,
      "hit": false,
      "t": 46517.788916666614,
      "d": 2423.465833333328,
      "v": 111
    },
    {
      "midi": 46,
      "hit": false,
      "t": 46552.86539583328,
      "d": 2423.465833333328,
      "v": 110
    },
    {
      "midi": 57,
      "hit": false,
      "t": 46552.86539583328,
      "d": 2423.465833333328,
      "v": 110
    },
    {
      "midi": 53,
      "hit": false,
      "t": 46556.05416666661,
      "d": 2423.465833333328,
      "v": 111
    },
    {
      "midi": 62,
      "hit": false,
      "t": 46556.05416666661,
      "d": 2423.465833333328,
      "v": 111
    },
    {
      "midi": 58,
      "hit": false,
      "t": 48963.57614583328,
      "d": 1785.7116666666625,
      "v": 110
    },
    {
      "midi": 48,
      "hit": false,
      "t": 48966.76491666661,
      "d": 1785.7116666666625,
      "v": 111
    },
    {
      "midi": 53,
      "hit": false,
      "t": 48966.76491666661,
      "d": 1785.7116666666625,
      "v": 110
    },
    {
      "midi": 62,
      "hit": false,
      "t": 48969.95368749994,
      "d": 1785.7116666666625,
      "v": 111
    },
    {
      "midi": 58,
      "hit": false,
      "t": 49001.841395833275,
      "d": 1785.7116666666625,
      "v": 110
    },
    {
      "midi": 48,
      "hit": false,
      "t": 49005.030166666606,
      "d": 1785.7116666666625,
      "v": 111
    },
    {
      "midi": 53,
      "hit": false,
      "t": 49005.030166666606,
      "d": 1785.7116666666625,
      "v": 110
    },
    {
      "midi": 62,
      "hit": false,
      "t": 49008.218937499936,
      "d": 1785.7116666666625,
      "v": 111
    },
    {
      "midi": 53,
      "hit": false,
      "t": 50803.496916666605,
      "d": 280.61183333332883,
      "v": 110
    },
    {
      "midi": 58,
      "hit": false,
      "t": 50806.685687499936,
      "d": 280.61183333332883,
      "v": 111
    },
    {
      "midi": 48,
      "hit": false,
      "t": 50806.685687499936,
      "d": 586.7338333333319,
      "v": 110
    },
    {
      "midi": 62,
      "hit": false,
      "t": 50806.685687499936,
      "d": 586.7338333333319,
      "v": 110
    },
    {
      "midi": 53,
      "hit": false,
      "t": 50841.7621666666,
      "d": 280.61183333332883,
      "v": 110
    },
    {
      "midi": 58,
      "hit": false,
      "t": 50844.95093749993,
      "d": 280.61183333332883,
      "v": 111
    },
    {
      "midi": 48,
      "hit": false,
      "t": 50844.95093749993,
      "d": 586.7338333333319,
      "v": 110
    },
    {
      "midi": 62,
      "hit": false,
      "t": 50844.95093749993,
      "d": 586.7338333333319,
      "v": 110
    },
    {
      "midi": 58,
      "hit": false,
      "t": 51103.24137499993,
      "d": 280.6118333333361,
      "v": 111
    },
    {
      "midi": 65,
      "hit": false,
      "t": 51103.24137499993,
      "d": 280.6118333333361,
      "v": 111
    },
    {
      "midi": 58,
      "hit": false,
      "t": 51141.50662499993,
      "d": 280.6118333333361,
      "v": 111
    },
    {
      "midi": 65,
      "hit": false,
      "t": 51141.50662499993,
      "d": 280.6118333333361,
      "v": 111
    },
    {
      "midi": 53,
      "hit": false,
      "t": 51415.740916666604,
      "d": 2423.4658333333355,
      "v": 110
    },
    {
      "midi": 57,
      "hit": false,
      "t": 51415.740916666604,
      "d": 2423.4658333333355,
      "v": 111
    },
    {
      "midi": 60,
      "hit": false,
      "t": 51415.740916666604,
      "d": 2423.4658333333355,
      "v": 110
    },
    {
      "midi": 65,
      "hit": false,
      "t": 51415.740916666604,
      "d": 2423.4658333333355,
      "v": 110
    },
    {
      "midi": 53,
      "hit": false,
      "t": 51454.0061666666,
      "d": 2423.4658333333355,
      "v": 110
    },
    {
      "midi": 57,
      "hit": false,
      "t": 51454.0061666666,
      "d": 2423.4658333333355,
      "v": 111
    },
    {
      "midi": 60,
      "hit": false,
      "t": 51454.0061666666,
      "d": 2423.4658333333355,
      "v": 110
    },
    {
      "midi": 65,
      "hit": false,
      "t": 51454.0061666666,
      "d": 2423.4658333333355,
      "v": 110
    },
    {
      "midi": 55,
      "hit": false,
      "t": 53858.33937499994,
      "d": 2423.465833333328,
      "v": 111
    },
    {
      "midi": 64,
      "hit": false,
      "t": 53861.52814583327,
      "d": 2423.465833333328,
      "v": 111
    },
    {
      "midi": 60,
      "hit": false,
      "t": 53864.7169166666,
      "d": 2423.465833333328,
      "v": 110
    },
    {
      "midi": 45,
      "hit": false,
      "t": 53867.90568749993,
      "d": 2423.465833333328,
      "v": 110
    },
    {
      "midi": 55,
      "hit": false,
      "t": 53896.604624999934,
      "d": 2423.465833333328,
      "v": 111
    },
    {
      "midi": 64,
      "hit": false,
      "t": 53899.793395833265,
      "d": 2423.465833333328,
      "v": 111
    },
    {
      "midi": 60,
      "hit": false,
      "t": 53902.982166666596,
      "d": 2423.465833333328,
      "v": 110
    },
    {
      "midi": 45,
      "hit": false,
      "t": 53906.17093749993,
      "d": 2423.465833333328,
      "v": 110
    },
    {
      "midi": 53,
      "hit": false,
      "t": 56310.504145833256,
      "d": 2423.465833333328,
      "v": 111
    },
    {
      "midi": 46,
      "hit": false,
      "t": 56313.69291666659,
      "d": 2423.465833333328,
      "v": 111
    },
    {
      "midi": 57,
      "hit": false,
      "t": 56313.69291666659,
      "d": 2423.465833333328,
      "v": 110
    },
    {
      "midi": 62,
      "hit": false,
      "t": 56313.69291666659,
      "d": 2423.465833333328,
      "v": 110
    },
    {
      "midi": 53,
      "hit": false,
      "t": 56348.76939583325,
      "d": 2423.465833333328,
      "v": 111
    },
    {
      "midi": 46,
      "hit": false,
      "t": 56351.95816666658,
      "d": 2423.465833333328,
      "v": 111
    },
    {
      "midi": 57,
      "hit": false,
      "t": 56351.95816666658,
      "d": 2423.465833333328,
      "v": 110
    },
    {
      "midi": 62,
      "hit": false,
      "t": 56351.95816666658,
      "d": 2423.465833333328,
      "v": 110
    },
    {
      "midi": 48,
      "hit": false,
      "t": 58756.29137499991,
      "d": 1785.7116666666698,
      "v": 111
    },
    {
      "midi": 53,
      "hit": false,
      "t": 58762.66891666658,
      "d": 1785.7116666666698,
      "v": 111
    },
    {
      "midi": 58,
      "hit": false,
      "t": 58762.66891666658,
      "d": 1785.7116666666698,
      "v": 110
    },
    {
      "midi": 62,
      "hit": false,
      "t": 58762.66891666658,
      "d": 1785.7116666666698,
      "v": 111
    },
    {
      "midi": 48,
      "hit": false,
      "t": 58794.55662499991,
      "d": 1785.7116666666698,
      "v": 111
    },
    {
      "midi": 53,
      "hit": false,
      "t": 58800.93416666658,
      "d": 1785.7116666666698,
      "v": 111
    },
    {
      "midi": 58,
      "hit": false,
      "t": 58800.93416666658,
      "d": 1785.7116666666698,
      "v": 110
    },
    {
      "midi": 62,
      "hit": false,
      "t": 58800.93416666658,
      "d": 1785.7116666666698,
      "v": 111
    },
    {
      "midi": 48,
      "hit": false,
      "t": 60593.02337499992,
      "d": 586.7338333333246,
      "v": 110
    },
    {
      "midi": 58,
      "hit": false,
      "t": 60599.400916666586,
      "d": 280.61183333332883,
      "v": 111
    },
    {
      "midi": 62,
      "hit": false,
      "t": 60599.400916666586,
      "d": 586.7338333333173,
      "v": 110
    },
    {
      "midi": 53,
      "hit": false,
      "t": 60602.589687499916,
      "d": 280.61183333332883,
      "v": 110
    },
    {
      "midi": 48,
      "hit": false,
      "t": 60631.288624999914,
      "d": 586.7338333333246,
      "v": 110
    },
    {
      "midi": 58,
      "hit": false,
      "t": 60637.66616666658,
      "d": 280.61183333332883,
      "v": 111
    },
    {
      "midi": 62,
      "hit": false,
      "t": 60637.66616666658,
      "d": 586.7338333333173,
      "v": 110
    },
    {
      "midi": 53,
      "hit": false,
      "t": 60640.85493749991,
      "d": 280.61183333332883,
      "v": 110
    },
    {
      "midi": 58,
      "hit": false,
      "t": 60902.33414583324,
      "d": 280.61183333332883,
      "v": 111
    },
    {
      "midi": 65,
      "hit": false,
      "t": 60905.522916666574,
      "d": 280.61183333332883,
      "v": 111
    },
    {
      "midi": 58,
      "hit": false,
      "t": 60940.59939583324,
      "d": 280.61183333332883,
      "v": 111
    },
    {
      "midi": 65,
      "hit": false,
      "t": 60943.78816666657,
      "d": 280.61183333332883,
      "v": 111
    },
    {
      "midi": 57,
      "hit": false,
      "t": 61211.64491666657,
      "d": 2423.465833333328,
      "v": 110
    },
    {
      "midi": 60,
      "hit": false,
      "t": 61211.64491666657,
      "d": 2423.465833333328,
      "v": 110
    },
    {
      "midi": 65,
      "hit": false,
      "t": 61211.64491666657,
      "d": 2423.465833333328,
      "v": 111
    },
    {
      "midi": 53,
      "hit": false,
      "t": 61214.8336874999,
      "d": 2423.465833333328,
      "v": 111
    },
    {
      "midi": 57,
      "hit": false,
      "t": 61249.91016666657,
      "d": 2423.465833333328,
      "v": 110
    },
    {
      "midi": 60,
      "hit": false,
      "t": 61249.91016666657,
      "d": 2423.465833333328,
      "v": 110
    },
    {
      "midi": 65,
      "hit": false,
      "t": 61249.91016666657,
      "d": 2423.465833333328,
      "v": 111
    },
    {
      "midi": 53,
      "hit": false,
      "t": 61253.0989374999,
      "d": 2423.465833333328,
      "v": 111
    },
    {
      "midi": 45,
      "hit": false,
      "t": 63657.43214583323,
      "d": 2423.4658333333355,
      "v": 110
    },
    {
      "midi": 64,
      "hit": false,
      "t": 63657.43214583323,
      "d": 2423.4658333333355,
      "v": 110
    },
    {
      "midi": 55,
      "hit": false,
      "t": 63660.62091666656,
      "d": 2423.4658333333427,
      "v": 110
    },
    {
      "midi": 60,
      "hit": false,
      "t": 63660.62091666656,
      "d": 2423.4658333333427,
      "v": 111
    },
    {
      "midi": 45,
      "hit": false,
      "t": 63695.697395833224,
      "d": 2423.4658333333355,
      "v": 110
    },
    {
      "midi": 64,
      "hit": false,
      "t": 63695.697395833224,
      "d": 2423.4658333333355,
      "v": 110
    },
    {
      "midi": 55,
      "hit": false,
      "t": 63698.886166666554,
      "d": 2423.4658333333427,
      "v": 110
    },
    {
      "midi": 60,
      "hit": false,
      "t": 63698.886166666554,
      "d": 2423.4658333333427,
      "v": 111
    },
    {
      "midi": 57,
      "hit": false,
      "t": 66106.40814583324,
      "d": 2423.46583333335,
      "v": 111
    },
    {
      "midi": 62,
      "hit": false,
      "t": 66106.40814583324,
      "d": 2423.46583333335,
      "v": 111
    },
    {
      "midi": 53,
      "hit": false,
      "t": 66109.59691666657,
      "d": 2423.46583333335,
      "v": 110
    },
    {
      "midi": 46,
      "hit": false,
      "t": 66112.78568749991,
      "d": 2423.46583333335,
      "v": 111
    },
    {
      "midi": 57,
      "hit": false,
      "t": 66144.67339583323,
      "d": 2423.46583333335,
      "v": 111
    },
    {
      "midi": 62,
      "hit": false,
      "t": 66144.67339583323,
      "d": 2423.46583333335,
      "v": 111
    },
    {
      "midi": 53,
      "hit": false,
      "t": 66147.86216666657,
      "d": 2423.46583333335,
      "v": 110
    },
    {
      "midi": 46,
      "hit": false,
      "t": 66151.05093749991,
      "d": 2423.46583333335,
      "v": 111
    },
    {
      "midi": 53,
      "hit": false,
      "t": 68552.19537499992,
      "d": 2372.4455000000016,
      "v": 110
    },
    {
      "midi": 58,
      "hit": false,
      "t": 68555.38414583326,
      "d": 2372.4455000000016,
      "v": 110
    },
    {
      "midi": 48,
      "hit": false,
      "t": 68561.76168749992,
      "d": 2372.4455000000016,
      "v": 111
    },
    {
      "midi": 62,
      "hit": false,
      "t": 68561.76168749992,
      "d": 2397.9556666666613,
      "v": 111
    },
    {
      "midi": 53,
      "hit": false,
      "t": 68590.46062499992,
      "d": 2372.4455000000016,
      "v": 110
    },
    {
      "midi": 58,
      "hit": false,
      "t": 68593.64939583326,
      "d": 2372.4455000000016,
      "v": 110
    },
    {
      "midi": 48,
      "hit": false,
      "t": 68600.02693749992,
      "d": 2372.4455000000016,
      "v": 111
    },
    {
      "midi": 62,
      "hit": false,
      "t": 68600.02693749992,
      "d": 2397.9556666666613,
      "v": 111
    },
    {
      "midi": 46,
      "hit": false,
      "t": 71007.54891666658,
      "d": 2423.4658333333355,
      "v": 110
    },
    {
      "midi": 65,
      "hit": false,
      "t": 71007.54891666658,
      "d": 2423.4658333333355,
      "v": 110
    },
    {
      "midi": 69,
      "hit": false,
      "t": 71007.54891666658,
      "d": 2423.4658333333355,
      "v": 111
    },
    {
      "midi": 62,
      "hit": false,
      "t": 71010.73768749992,
      "d": 2423.4658333333355,
      "v": 111
    },
    {
      "midi": 46,
      "hit": false,
      "t": 71045.81416666658,
      "d": 2423.4658333333355,
      "v": 110
    },
    {
      "midi": 65,
      "hit": false,
      "t": 71045.81416666658,
      "d": 2423.4658333333355,
      "v": 110
    },
    {
      "midi": 69,
      "hit": false,
      "t": 71045.81416666658,
      "d": 2423.4658333333355,
      "v": 111
    },
    {
      "midi": 62,
      "hit": false,
      "t": 71049.00293749991,
      "d": 2423.4658333333355,
      "v": 111
    },
    {
      "midi": 67,
      "hit": false,
      "t": 73453.33614583325,
      "d": 2423.46583333335,
      "v": 110
    },
    {
      "midi": 61,
      "hit": false,
      "t": 73456.52491666659,
      "d": 2423.46583333335,
      "v": 110
    },
    {
      "midi": 64,
      "hit": false,
      "t": 73456.52491666659,
      "d": 2423.46583333335,
      "v": 111
    },
    {
      "midi": 45,
      "hit": false,
      "t": 73459.71368749993,
      "d": 2423.46583333335,
      "v": 110
    },
    {
      "midi": 67,
      "hit": false,
      "t": 73491.60139583325,
      "d": 2423.46583333335,
      "v": 110
    },
    {
      "midi": 61,
      "hit": false,
      "t": 73494.79016666659,
      "d": 2423.46583333335,
      "v": 110
    },
    {
      "midi": 64,
      "hit": false,
      "t": 73494.79016666659,
      "d": 2423.46583333335,
      "v": 111
    },
    {
      "midi": 45,
      "hit": false,
      "t": 73497.97893749992,
      "d": 2423.46583333335,
      "v": 110
    },
    {
      "midi": 62,
      "hit": false,
      "t": 75899.12337499994,
      "d": 2423.46583333335,
      "v": 111
    },
    {
      "midi": 65,
      "hit": false,
      "t": 75899.12337499994,
      "d": 2423.46583333335,
      "v": 111
    },
    {
      "midi": 69,
      "hit": false,
      "t": 75902.31214583328,
      "d": 2423.46583333335,
      "v": 110
    },
    {
      "midi": 50,
      "hit": false,
      "t": 75905.50091666661,
      "d": 2423.46583333335,
      "v": 111
    },
    {
      "midi": 62,
      "hit": false,
      "t": 75937.38862499993,
      "d": 2423.46583333335,
      "v": 111
    },
    {
      "midi": 65,
      "hit": false,
      "t": 75937.38862499993,
      "d": 2423.46583333335,
      "v": 111
    },
    {
      "midi": 69,
      "hit": false,
      "t": 75940.57739583327,
      "d": 2423.46583333335,
      "v": 110
    },
    {
      "midi": 50,
      "hit": false,
      "t": 75943.76616666661,
      "d": 2423.46583333335,
      "v": 111
    },
    {
      "midi": 67,
      "hit": false,
      "t": 78351.2881458333,
      "d": 2372.445500000016,
      "v": 110
    },
    {
      "midi": 55,
      "hit": false,
      "t": 78354.47691666664,
      "d": 2372.445500000016,
      "v": 110
    },
    {
      "midi": 59,
      "hit": false,
      "t": 78354.47691666664,
      "d": 2372.445500000016,
      "v": 111
    },
    {
      "midi": 62,
      "hit": false,
      "t": 78357.66568749998,
      "d": 2372.445500000016,
      "v": 111
    },
    {
      "midi": 67,
      "hit": false,
      "t": 78389.5533958333,
      "d": 2372.445500000016,
      "v": 110
    },
    {
      "midi": 55,
      "hit": false,
      "t": 78392.74216666663,
      "d": 2372.445500000016,
      "v": 110
    },
    {
      "midi": 59,
      "hit": false,
      "t": 78392.74216666663,
      "d": 2372.445500000016,
      "v": 111
    },
    {
      "midi": 62,
      "hit": false,
      "t": 78395.93093749997,
      "d": 2372.445500000016,
      "v": 111
    },
    {
      "midi": 58,
      "hit": false,
      "t": 80800.26414583332,
      "d": 2423.4658333333355,
      "v": 110
    },
    {
      "midi": 62,
      "hit": false,
      "t": 80800.26414583332,
      "d": 2423.4658333333355,
      "v": 110
    },
    {
      "midi": 43,
      "hit": false,
      "t": 80803.45291666666,
      "d": 2423.4658333333355,
      "v": 111
    },
    {
      "midi": 65,
      "hit": false,
      "t": 80803.45291666666,
      "d": 2423.4658333333355,
      "v": 111
    },
    {
      "midi": 58,
      "hit": false,
      "t": 80838.52939583332,
      "d": 2423.4658333333355,
      "v": 110
    },
    {
      "midi": 62,
      "hit": false,
      "t": 80838.52939583332,
      "d": 2423.4658333333355,
      "v": 110
    },
    {
      "midi": 43,
      "hit": false,
      "t": 80841.71816666666,
      "d": 2423.4658333333355,
      "v": 111
    },
    {
      "midi": 65,
      "hit": false,
      "t": 80841.71816666666,
      "d": 2423.4658333333355,
      "v": 111
    },
    {
      "midi": 67,
      "hit": false,
      "t": 83249.24014583333,
      "d": 2423.4658333333355,
      "v": 110
    },
    {
      "midi": 45,
      "hit": false,
      "t": 83252.42891666667,
      "d": 2423.4658333333355,
      "v": 110
    },
    {
      "midi": 59,
      "hit": false,
      "t": 83252.42891666667,
      "d": 2423.4658333333355,
      "v": 111
    },
    {
      "midi": 64,
      "hit": false,
      "t": 83252.42891666667,
      "d": 2423.4658333333355,
      "v": 110
    },
    {
      "midi": 60,
      "hit": false,
      "t": 83255.61768750001,
      "d": 2423.4658333333355,
      "v": 111
    },
    {
      "midi": 67,
      "hit": false,
      "t": 83287.50539583333,
      "d": 2423.4658333333355,
      "v": 110
    },
    {
      "midi": 45,
      "hit": false,
      "t": 83290.69416666667,
      "d": 2423.4658333333355,
      "v": 110
    },
    {
      "midi": 59,
      "hit": false,
      "t": 83290.69416666667,
      "d": 2423.4658333333355,
      "v": 111
    },
    {
      "midi": 64,
      "hit": false,
      "t": 83290.69416666667,
      "d": 2423.4658333333355,
      "v": 110
    },
    {
      "midi": 60,
      "hit": false,
      "t": 83293.8829375,
      "d": 2423.4658333333355,
      "v": 111
    },
    {
      "midi": 65,
      "hit": false,
      "t": 85695.027375,
      "d": 2423.46583333335,
      "v": 111
    },
    {
      "midi": 60,
      "hit": false,
      "t": 85698.21614583334,
      "d": 1811.221833333344,
      "v": 110
    },
    {
      "midi": 46,
      "hit": false,
      "t": 85698.21614583334,
      "d": 2423.46583333335,
      "v": 111
    },
    {
      "midi": 69,
      "hit": false,
      "t": 85698.21614583334,
      "d": 2423.46583333335,
      "v": 110
    },
    {
      "midi": 62,
      "hit": false,
      "t": 85701.40491666668,
      "d": 2423.46583333335,
      "v": 110
    },
    {
      "midi": 65,
      "hit": false,
      "t": 85733.292625,
      "d": 2423.46583333335,
      "v": 111
    },
    {
      "midi": 60,
      "hit": false,
      "t": 85736.48139583334,
      "d": 1811.221833333344,
      "v": 110
    },
    {
      "midi": 46,
      "hit": false,
      "t": 85736.48139583334,
      "d": 2423.46583333335,
      "v": 111
    },
    {
      "midi": 69,
      "hit": false,
      "t": 85736.48139583334,
      "d": 2423.46583333335,
      "v": 110
    },
    {
      "midi": 62,
      "hit": false,
      "t": 85739.67016666668,
      "d": 2423.46583333335,
      "v": 110
    },
    {
      "midi": 48,
      "hit": false,
      "t": 88144.00337500003,
      "d": 2423.46583333335,
      "v": 111
    },
    {
      "midi": 69,
      "hit": false,
      "t": 88147.19214583337,
      "d": 2423.46583333335,
      "v": 111
    },
    {
      "midi": 58,
      "hit": false,
      "t": 88150.3809166667,
      "d": 2423.46583333335,
      "v": 110
    },
    {
      "midi": 62,
      "hit": false,
      "t": 88153.56968750004,
      "d": 2423.46583333335,
      "v": 110
    },
    {
      "midi": 65,
      "hit": false,
      "t": 88153.56968750004,
      "d": 2423.46583333335,
      "v": 111
    },
    {
      "midi": 48,
      "hit": false,
      "t": 88182.26862500003,
      "d": 2423.46583333335,
      "v": 111
    },
    {
      "midi": 69,
      "hit": false,
      "t": 88185.45739583336,
      "d": 2423.46583333335,
      "v": 111
    },
    {
      "midi": 58,
      "hit": false,
      "t": 88188.6461666667,
      "d": 2423.46583333335,
      "v": 110
    },
    {
      "midi": 62,
      "hit": false,
      "t": 88191.83493750004,
      "d": 2423.46583333335,
      "v": 110
    },
    {
      "midi": 65,
      "hit": false,
      "t": 88191.83493750004,
      "d": 2423.46583333335,
      "v": 111
    },
    {
      "midi": 53,
      "hit": false,
      "t": 90599.35691666673,
      "d": 2423.4658333333355,
      "v": 111
    },
    {
      "midi": 57,
      "hit": false,
      "t": 90599.35691666673,
      "d": 2423.4658333333355,
      "v": 110
    },
    {
      "midi": 60,
      "hit": false,
      "t": 90599.35691666673,
      "d": 2423.4658333333355,
      "v": 110
    },
    {
      "midi": 65,
      "hit": false,
      "t": 90602.54568750007,
      "d": 2423.4658333333355,
      "v": 111
    },
    {
      "midi": 53,
      "hit": false,
      "t": 90637.62216666673,
      "d": 2423.4658333333355,
      "v": 111
    },
    {
      "midi": 57,
      "hit": false,
      "t": 90637.62216666673,
      "d": 2423.4658333333355,
      "v": 110
    },
    {
      "midi": 60,
      "hit": false,
      "t": 90637.62216666673,
      "d": 2423.4658333333355,
      "v": 110
    },
    {
      "midi": 65,
      "hit": false,
      "t": 90640.81093750006,
      "d": 2423.4658333333355,
      "v": 111
    },
    {
      "midi": 60,
      "hit": false,
      "t": 93041.95537500006,
      "d": 2423.4658333333355,
      "v": 110
    },
    {
      "midi": 55,
      "hit": false,
      "t": 93045.1441458334,
      "d": 2423.4658333333355,
      "v": 111
    },
    {
      "midi": 45,
      "hit": false,
      "t": 93048.33291666674,
      "d": 2423.4658333333355,
      "v": 111
    },
    {
      "midi": 64,
      "hit": false,
      "t": 93048.33291666674,
      "d": 2423.4658333333355,
      "v": 110
    },
    {
      "midi": 60,
      "hit": false,
      "t": 93080.22062500006,
      "d": 2423.4658333333355,
      "v": 110
    },
    {
      "midi": 55,
      "hit": false,
      "t": 93083.4093958334,
      "d": 2423.4658333333355,
      "v": 111
    },
    {
      "midi": 45,
      "hit": false,
      "t": 93086.59816666674,
      "d": 2423.4658333333355,
      "v": 111
    },
    {
      "midi": 64,
      "hit": false,
      "t": 93086.59816666674,
      "d": 2423.4658333333355,
      "v": 110
    },
    {
      "midi": 53,
      "hit": false,
      "t": 95490.93137500007,
      "d": 2423.4658333333355,
      "v": 111
    },
    {
      "midi": 57,
      "hit": false,
      "t": 95494.12014583341,
      "d": 2423.4658333333355,
      "v": 110
    },
    {
      "midi": 62,
      "hit": false,
      "t": 95494.12014583341,
      "d": 2423.4658333333355,
      "v": 110
    },
    {
      "midi": 46,
      "hit": false,
      "t": 95500.49768750007,
      "d": 2423.4658333333355,
      "v": 111
    },
    {
      "midi": 53,
      "hit": false,
      "t": 95529.19662500007,
      "d": 2423.4658333333355,
      "v": 111
    },
    {
      "midi": 57,
      "hit": false,
      "t": 95532.38539583341,
      "d": 2423.4658333333355,
      "v": 110
    },
    {
      "midi": 62,
      "hit": false,
      "t": 95532.38539583341,
      "d": 2423.4658333333355,
      "v": 110
    },
    {
      "midi": 46,
      "hit": false,
      "t": 95538.76293750007,
      "d": 2423.4658333333355,
      "v": 111
    },
    {
      "midi": 62,
      "hit": false,
      "t": 97943.0961458334,
      "d": 1785.7116666666698,
      "v": 111
    },
    {
      "midi": 48,
      "hit": false,
      "t": 97946.28491666674,
      "d": 1785.7116666666698,
      "v": 110
    },
    {
      "midi": 53,
      "hit": false,
      "t": 97946.28491666674,
      "d": 1785.7116666666698,
      "v": 110
    },
    {
      "midi": 58,
      "hit": false,
      "t": 97946.28491666674,
      "d": 1785.7116666666698,
      "v": 111
    },
    {
      "midi": 62,
      "hit": false,
      "t": 97981.3613958334,
      "d": 1785.7116666666698,
      "v": 111
    },
    {
      "midi": 48,
      "hit": false,
      "t": 97984.55016666674,
      "d": 1785.7116666666698,
      "v": 110
    },
    {
      "midi": 53,
      "hit": false,
      "t": 97984.55016666674,
      "d": 1785.7116666666698,
      "v": 110
    },
    {
      "midi": 58,
      "hit": false,
      "t": 97984.55016666674,
      "d": 1785.7116666666698,
      "v": 111
    },
    {
      "midi": 58,
      "hit": false,
      "t": 99779.82814583341,
      "d": 280.6118333333434,
      "v": 111
    },
    {
      "midi": 53,
      "hit": false,
      "t": 99783.01691666675,
      "d": 280.6118333333434,
      "v": 110
    },
    {
      "midi": 62,
      "hit": false,
      "t": 99783.01691666675,
      "d": 586.7338333333464,
      "v": 110
    },
    {
      "midi": 48,
      "hit": false,
      "t": 99786.20568750009,
      "d": 586.7338333333464,
      "v": 111
    },
    {
      "midi": 58,
      "hit": false,
      "t": 99818.0933958334,
      "d": 280.6118333333434,
      "v": 111
    },
    {
      "midi": 53,
      "hit": false,
      "t": 99821.28216666674,
      "d": 280.6118333333434,
      "v": 110
    },
    {
      "midi": 62,
      "hit": false,
      "t": 99821.28216666674,
      "d": 586.7338333333464,
      "v": 110
    },
    {
      "midi": 48,
      "hit": false,
      "t": 99824.47093750008,
      "d": 586.7338333333464,
      "v": 111
    },
    {
      "midi": 58,
      "hit": false,
      "t": 100085.95014583343,
      "d": 280.61183333332883,
      "v": 111
    },
    {
      "midi": 65,
      "hit": false,
      "t": 100085.95014583343,
      "d": 280.61183333332883,
      "v": 110
    },
    {
      "midi": 58,
      "hit": false,
      "t": 100124.21539583342,
      "d": 280.61183333332883,
      "v": 111
    },
    {
      "midi": 65,
      "hit": false,
      "t": 100124.21539583342,
      "d": 280.61183333332883,
      "v": 110
    },
    {
      "midi": 57,
      "hit": false,
      "t": 100392.07214583343,
      "d": 2423.4658333333355,
      "v": 110
    },
    {
      "midi": 65,
      "hit": false,
      "t": 100392.07214583343,
      "d": 2423.4658333333355,
      "v": 111
    },
    {
      "midi": 53,
      "hit": false,
      "t": 100395.26091666677,
      "d": 2423.4658333333355,
      "v": 110
    },
    {
      "midi": 60,
      "hit": false,
      "t": 100395.26091666677,
      "d": 2423.4658333333355,
      "v": 111
    },
    {
      "midi": 57,
      "hit": false,
      "t": 100430.33739583343,
      "d": 2423.4658333333355,
      "v": 110
    },
    {
      "midi": 65,
      "hit": false,
      "t": 100430.33739583343,
      "d": 2423.4658333333355,
      "v": 111
    },
    {
      "midi": 53,
      "hit": false,
      "t": 100433.52616666676,
      "d": 2423.4658333333355,
      "v": 110
    },
    {
      "midi": 60,
      "hit": false,
      "t": 100433.52616666676,
      "d": 2423.4658333333355,
      "v": 111
    },
    {
      "midi": 55,
      "hit": false,
      "t": 102841.04814583344,
      "d": 2423.4658333333355,
      "v": 110
    },
    {
      "midi": 60,
      "hit": false,
      "t": 102841.04814583344,
      "d": 2423.4658333333355,
      "v": 111
    },
    {
      "midi": 45,
      "hit": false,
      "t": 102844.23691666678,
      "d": 2423.4658333333355,
      "v": 111
    },
    {
      "midi": 64,
      "hit": false,
      "t": 102847.42568750012,
      "d": 2423.4658333333355,
      "v": 110
    },
    {
      "midi": 55,
      "hit": false,
      "t": 102879.31339583344,
      "d": 2423.4658333333355,
      "v": 110
    },
    {
      "midi": 60,
      "hit": false,
      "t": 102879.31339583344,
      "d": 2423.4658333333355,
      "v": 111
    },
    {
      "midi": 45,
      "hit": false,
      "t": 102882.50216666677,
      "d": 2423.4658333333355,
      "v": 111
    },
    {
      "midi": 64,
      "hit": false,
      "t": 102885.69093750011,
      "d": 2423.4658333333355,
      "v": 110
    },
    {
      "midi": 46,
      "hit": false,
      "t": 105286.83537500011,
      "d": 2423.46583333335,
      "v": 110
    },
    {
      "midi": 62,
      "hit": false,
      "t": 105290.02414583345,
      "d": 2423.46583333335,
      "v": 111
    },
    {
      "midi": 53,
      "hit": false,
      "t": 105293.21291666679,
      "d": 2423.46583333335,
      "v": 111
    },
    {
      "midi": 57,
      "hit": false,
      "t": 105293.21291666679,
      "d": 2423.46583333335,
      "v": 110
    },
    {
      "midi": 46,
      "hit": false,
      "t": 105325.10062500011,
      "d": 2423.46583333335,
      "v": 110
    },
    {
      "midi": 62,
      "hit": false,
      "t": 105328.28939583345,
      "d": 2423.46583333335,
      "v": 111
    },
    {
      "midi": 53,
      "hit": false,
      "t": 105331.47816666678,
      "d": 2423.46583333335,
      "v": 111
    },
    {
      "midi": 57,
      "hit": false,
      "t": 105331.47816666678,
      "d": 2423.46583333335,
      "v": 110
    },
    {
      "midi": 48,
      "hit": false,
      "t": 107735.81137500014,
      "d": 1785.7116666666698,
      "v": 110
    },
    {
      "midi": 58,
      "hit": false,
      "t": 107742.1889166668,
      "d": 1785.7116666666698,
      "v": 111
    },
    {
      "midi": 62,
      "hit": false,
      "t": 107742.1889166668,
      "d": 1785.7116666666698,
      "v": 110
    },
    {
      "midi": 53,
      "hit": false,
      "t": 107745.37768750013,
      "d": 1785.7116666666698,
      "v": 111
    },
    {
      "midi": 48,
      "hit": false,
      "t": 107774.07662500013,
      "d": 1785.7116666666698,
      "v": 110
    },
    {
      "midi": 58,
      "hit": false,
      "t": 107780.4541666668,
      "d": 1785.7116666666698,
      "v": 111
    },
    {
      "midi": 62,
      "hit": false,
      "t": 107780.4541666668,
      "d": 1785.7116666666698,
      "v": 110
    },
    {
      "midi": 53,
      "hit": false,
      "t": 107783.64293750013,
      "d": 1785.7116666666698,
      "v": 111
    },
    {
      "midi": 58,
      "hit": false,
      "t": 109575.73214583348,
      "d": 280.6118333333434,
      "v": 110
    },
    {
      "midi": 62,
      "hit": false,
      "t": 109575.73214583348,
      "d": 586.733833333361,
      "v": 111
    },
    {
      "midi": 53,
      "hit": false,
      "t": 109578.92091666682,
      "d": 280.6118333333434,
      "v": 111
    },
    {
      "midi": 48,
      "hit": false,
      "t": 109578.92091666682,
      "d": 586.733833333361,
      "v": 110
    },
    {
      "midi": 58,
      "hit": false,
      "t": 109613.99739583347,
      "d": 280.6118333333434,
      "v": 110
    },
    {
      "midi": 62,
      "hit": false,
      "t": 109613.99739583347,
      "d": 586.733833333361,
      "v": 111
    },
    {
      "midi": 53,
      "hit": false,
      "t": 109617.18616666681,
      "d": 280.6118333333434,
      "v": 111
    },
    {
      "midi": 48,
      "hit": false,
      "t": 109617.18616666681,
      "d": 586.733833333361,
      "v": 110
    },
    {
      "midi": 65,
      "hit": false,
      "t": 109878.66537500016,
      "d": 280.6118333333434,
      "v": 110
    },
    {
      "midi": 58,
      "hit": false,
      "t": 109881.8541458335,
      "d": 280.6118333333434,
      "v": 111
    },
    {
      "midi": 65,
      "hit": false,
      "t": 109916.93062500015,
      "d": 280.6118333333434,
      "v": 110
    },
    {
      "midi": 58,
      "hit": false,
      "t": 109920.11939583349,
      "d": 280.6118333333434,
      "v": 111
    },
    {
      "midi": 53,
      "hit": false,
      "t": 115085.92814583352,
      "d": 2423.4658333333355,
      "v": 111
    },
    {
      "midi": 46,
      "hit": false,
      "t": 115089.11691666686,
      "d": 2423.4658333333355,
      "v": 110
    },
    {
      "midi": 57,
      "hit": false,
      "t": 115089.11691666686,
      "d": 2423.4658333333355,
      "v": 110
    },
    {
      "midi": 62,
      "hit": false,
      "t": 115089.11691666686,
      "d": 2423.4658333333355,
      "v": 111
    },
    {
      "midi": 53,
      "hit": false,
      "t": 115124.19339583351,
      "d": 2423.4658333333355,
      "v": 111
    },
    {
      "midi": 46,
      "hit": false,
      "t": 115127.38216666685,
      "d": 2423.4658333333355,
      "v": 110
    },
    {
      "midi": 57,
      "hit": false,
      "t": 115127.38216666685,
      "d": 2423.4658333333355,
      "v": 110
    },
    {
      "midi": 62,
      "hit": false,
      "t": 115127.38216666685,
      "d": 2423.4658333333355,
      "v": 111
    },
    {
      "midi": 62,
      "hit": false,
      "t": 117534.90414583353,
      "d": 1785.7116666666698,
      "v": 111
    },
    {
      "midi": 48,
      "hit": false,
      "t": 117538.09291666686,
      "d": 1785.7116666666698,
      "v": 111
    },
    {
      "midi": 53,
      "hit": false,
      "t": 117538.09291666686,
      "d": 1785.7116666666698,
      "v": 110
    },
    {
      "midi": 58,
      "hit": false,
      "t": 117538.09291666686,
      "d": 1785.7116666666698,
      "v": 110
    },
    {
      "midi": 62,
      "hit": false,
      "t": 117573.16939583352,
      "d": 1785.7116666666698,
      "v": 111
    },
    {
      "midi": 48,
      "hit": false,
      "t": 117576.35816666686,
      "d": 1785.7116666666698,
      "v": 111
    },
    {
      "midi": 53,
      "hit": false,
      "t": 117576.35816666686,
      "d": 1785.7116666666698,
      "v": 110
    },
    {
      "midi": 58,
      "hit": false,
      "t": 117576.35816666686,
      "d": 1785.7116666666698,
      "v": 110
    },
    {
      "midi": 58,
      "hit": false,
      "t": 119371.63614583353,
      "d": 280.6118333333434,
      "v": 110
    },
    {
      "midi": 48,
      "hit": false,
      "t": 119374.82491666687,
      "d": 586.7338333333319,
      "v": 111
    },
    {
      "midi": 62,
      "hit": false,
      "t": 119374.82491666687,
      "d": 586.7338333333319,
      "v": 111
    },
    {
      "midi": 53,
      "hit": false,
      "t": 119378.0136875002,
      "d": 280.61183333332883,
      "v": 110
    },
    {
      "midi": 58,
      "hit": false,
      "t": 119409.90139583353,
      "d": 280.6118333333434,
      "v": 110
    },
    {
      "midi": 48,
      "hit": false,
      "t": 119413.09016666687,
      "d": 586.7338333333319,
      "v": 111
    },
    {
      "midi": 62,
      "hit": false,
      "t": 119413.09016666687,
      "d": 586.7338333333319,
      "v": 111
    },
    {
      "midi": 53,
      "hit": false,
      "t": 119416.2789375002,
      "d": 280.61183333332883,
      "v": 110
    },
    {
      "midi": 58,
      "hit": false,
      "t": 119680.94691666687,
      "d": 280.61183333332883,
      "v": 110
    },
    {
      "midi": 65,
      "hit": false,
      "t": 119680.94691666687,
      "d": 280.61183333332883,
      "v": 111
    },
    {
      "midi": 58,
      "hit": false,
      "t": 119719.21216666687,
      "d": 280.61183333332883,
      "v": 110
    },
    {
      "midi": 65,
      "hit": false,
      "t": 119719.21216666687,
      "d": 280.61183333332883,
      "v": 111
    },
    {
      "midi": 53,
      "hit": false,
      "t": 119983.88014583354,
      "d": 2423.46583333335,
      "v": 110
    },
    {
      "midi": 60,
      "hit": false,
      "t": 119987.06891666687,
      "d": 2423.46583333335,
      "v": 111
    },
    {
      "midi": 65,
      "hit": false,
      "t": 119987.06891666687,
      "d": 2423.46583333335,
      "v": 111
    },
    {
      "midi": 57,
      "hit": false,
      "t": 119990.25768750021,
      "d": 2423.46583333335,
      "v": 110
    },
    {
      "midi": 53,
      "hit": false,
      "t": 120022.14539583353,
      "d": 2423.46583333335,
      "v": 110
    },
    {
      "midi": 60,
      "hit": false,
      "t": 120025.33416666687,
      "d": 2423.46583333335,
      "v": 111
    },
    {
      "midi": 65,
      "hit": false,
      "t": 120025.33416666687,
      "d": 2423.46583333335,
      "v": 111
    },
    {
      "midi": 57,
      "hit": false,
      "t": 120028.52293750021,
      "d": 2423.46583333335,
      "v": 110
    },
    {
      "midi": 64,
      "hit": false,
      "t": 122429.66737500022,
      "d": 2423.46583333335,
      "v": 110
    },
    {
      "midi": 60,
      "hit": false,
      "t": 122432.85614583356,
      "d": 2423.46583333335,
      "v": 111
    },
    {
      "midi": 55,
      "hit": false,
      "t": 122436.0449166669,
      "d": 2423.46583333335,
      "v": 111
    },
    {
      "midi": 45,
      "hit": false,
      "t": 122439.23368750024,
      "d": 2423.46583333335,
      "v": 110
    },
    {
      "midi": 64,
      "hit": false,
      "t": 122467.93262500022,
      "d": 2423.46583333335,
      "v": 110
    },
    {
      "midi": 60,
      "hit": false,
      "t": 122471.12139583356,
      "d": 2423.46583333335,
      "v": 111
    },
    {
      "midi": 55,
      "hit": false,
      "t": 122474.3101666669,
      "d": 2423.46583333335,
      "v": 111
    },
    {
      "midi": 45,
      "hit": false,
      "t": 122477.49893750023,
      "d": 2423.46583333335,
      "v": 110
    },
    {
      "midi": 53,
      "hit": false,
      "t": 124878.64337500025,
      "d": 2423.46583333335,
      "v": 110
    },
    {
      "midi": 62,
      "hit": false,
      "t": 124881.83214583358,
      "d": 2423.46583333335,
      "v": 111
    },
    {
      "midi": 57,
      "hit": false,
      "t": 124885.02091666692,
      "d": 2423.46583333335,
      "v": 110
    },
    {
      "midi": 46,
      "hit": false,
      "t": 124888.20968750026,
      "d": 2423.46583333335,
      "v": 111
    },
    {
      "midi": 53,
      "hit": false,
      "t": 124916.90862500024,
      "d": 2423.46583333335,
      "v": 110
    },
    {
      "midi": 62,
      "hit": false,
      "t": 124920.09739583358,
      "d": 2423.46583333335,
      "v": 111
    },
    {
      "midi": 57,
      "hit": false,
      "t": 124923.28616666692,
      "d": 2423.46583333335,
      "v": 110
    },
    {
      "midi": 46,
      "hit": false,
      "t": 124926.47493750026,
      "d": 2423.46583333335,
      "v": 111
    },
    {
      "midi": 58,
      "hit": false,
      "t": 127327.61937500027,
      "d": 2372.4455000000016,
      "v": 111
    },
    {
      "midi": 62,
      "hit": false,
      "t": 127327.61937500027,
      "d": 2397.9556666666613,
      "v": 110
    },
    {
      "midi": 48,
      "hit": false,
      "t": 127330.80814583361,
      "d": 2372.4455000000016,
      "v": 111
    },
    {
      "midi": 53,
      "hit": false,
      "t": 127337.18568750027,
      "d": 2372.4455000000016,
      "v": 110
    },
    {
      "midi": 58,
      "hit": false,
      "t": 127365.88462500027,
      "d": 2372.4455000000016,
      "v": 111
    },
    {
      "midi": 62,
      "hit": false,
      "t": 127365.88462500027,
      "d": 2397.9556666666613,
      "v": 110
    },
    {
      "midi": 48,
      "hit": false,
      "t": 127369.0733958336,
      "d": 2372.4455000000016,
      "v": 111
    },
    {
      "midi": 53,
      "hit": false,
      "t": 127375.45093750027,
      "d": 2372.4455000000016,
      "v": 110
    },
    {
      "midi": 46,
      "hit": false,
      "t": 129782.97291666693,
      "d": 2423.4658333333355,
      "v": 110
    },
    {
      "midi": 62,
      "hit": false,
      "t": 129782.97291666693,
      "d": 2423.4658333333355,
      "v": 111
    },
    {
      "midi": 65,
      "hit": false,
      "t": 129782.97291666693,
      "d": 2423.4658333333355,
      "v": 111
    },
    {
      "midi": 69,
      "hit": false,
      "t": 129782.97291666693,
      "d": 2423.4658333333355,
      "v": 110
    },
    {
      "midi": 46,
      "hit": false,
      "t": 129821.23816666692,
      "d": 2423.4658333333355,
      "v": 110
    },
    {
      "midi": 62,
      "hit": false,
      "t": 129821.23816666692,
      "d": 2423.4658333333355,
      "v": 111
    },
    {
      "midi": 65,
      "hit": false,
      "t": 129821.23816666692,
      "d": 2423.4658333333355,
      "v": 111
    },
    {
      "midi": 69,
      "hit": false,
      "t": 129821.23816666692,
      "d": 2423.4658333333355,
      "v": 110
    },
    {
      "midi": 61,
      "hit": false,
      "t": 132228.7601458336,
      "d": 2423.46583333335,
      "v": 111
    },
    {
      "midi": 64,
      "hit": false,
      "t": 132228.7601458336,
      "d": 2423.46583333335,
      "v": 110
    },
    {
      "midi": 67,
      "hit": false,
      "t": 132231.94891666694,
      "d": 2423.46583333335,
      "v": 111
    },
    {
      "midi": 45,
      "hit": false,
      "t": 132235.13768750028,
      "d": 2423.46583333335,
      "v": 110
    },
    {
      "midi": 61,
      "hit": false,
      "t": 132267.0253958336,
      "d": 2423.46583333335,
      "v": 111
    },
    {
      "midi": 64,
      "hit": false,
      "t": 132267.0253958336,
      "d": 2423.46583333335,
      "v": 110
    },
    {
      "midi": 67,
      "hit": false,
      "t": 132270.21416666693,
      "d": 2423.46583333335,
      "v": 111
    },
    {
      "midi": 45,
      "hit": false,
      "t": 132273.40293750027,
      "d": 2423.46583333335,
      "v": 110
    },
    {
      "midi": 50,
      "hit": false,
      "t": 134674.5473750003,
      "d": 2423.46583333335,
      "v": 110
    },
    {
      "midi": 62,
      "hit": false,
      "t": 134680.92491666696,
      "d": 2423.46583333335,
      "v": 110
    },
    {
      "midi": 65,
      "hit": false,
      "t": 134680.92491666696,
      "d": 2423.46583333335,
      "v": 111
    },
    {
      "midi": 69,
      "hit": false,
      "t": 134680.92491666696,
      "d": 2423.46583333335,
      "v": 111
    },
    {
      "midi": 50,
      "hit": false,
      "t": 134712.81262500028,
      "d": 2423.46583333335,
      "v": 110
    },
    {
      "midi": 62,
      "hit": false,
      "t": 134719.19016666696,
      "d": 2423.46583333335,
      "v": 110
    },
    {
      "midi": 65,
      "hit": false,
      "t": 134719.19016666696,
      "d": 2423.46583333335,
      "v": 111
    },
    {
      "midi": 69,
      "hit": false,
      "t": 134719.19016666696,
      "d": 2423.46583333335,
      "v": 111
    },
    {
      "midi": 59,
      "hit": false,
      "t": 137126.71214583365,
      "d": 2372.4455000000016,
      "v": 111
    },
    {
      "midi": 62,
      "hit": false,
      "t": 137126.71214583365,
      "d": 2372.4455000000016,
      "v": 110
    },
    {
      "midi": 55,
      "hit": false,
      "t": 137129.900916667,
      "d": 2372.4455000000016,
      "v": 110
    },
    {
      "midi": 67,
      "hit": false,
      "t": 137129.900916667,
      "d": 2372.4455000000016,
      "v": 111
    },
    {
      "midi": 59,
      "hit": false,
      "t": 137164.97739583364,
      "d": 2372.4455000000016,
      "v": 111
    },
    {
      "midi": 62,
      "hit": false,
      "t": 137164.97739583364,
      "d": 2372.4455000000016,
      "v": 110
    },
    {
      "midi": 55,
      "hit": false,
      "t": 137168.16616666698,
      "d": 2372.4455000000016,
      "v": 110
    },
    {
      "midi": 67,
      "hit": false,
      "t": 137168.16616666698,
      "d": 2372.4455000000016,
      "v": 111
    },
    {
      "midi": 65,
      "hit": false,
      "t": 139572.49937500033,
      "d": 2423.46583333335,
      "v": 110
    },
    {
      "midi": 43,
      "hit": false,
      "t": 139575.68814583367,
      "d": 2423.46583333335,
      "v": 111
    },
    {
      "midi": 58,
      "hit": false,
      "t": 139578.876916667,
      "d": 2423.46583333335,
      "v": 111
    },
    {
      "midi": 62,
      "hit": false,
      "t": 139578.876916667,
      "d": 2423.46583333335,
      "v": 110
    },
    {
      "midi": 65,
      "hit": false,
      "t": 139610.76462500033,
      "d": 2423.46583333335,
      "v": 110
    },
    {
      "midi": 43,
      "hit": false,
      "t": 139613.95339583367,
      "d": 2423.46583333335,
      "v": 111
    },
    {
      "midi": 58,
      "hit": false,
      "t": 139617.142166667,
      "d": 2423.46583333335,
      "v": 111
    },
    {
      "midi": 62,
      "hit": false,
      "t": 139617.142166667,
      "d": 2423.46583333335,
      "v": 110
    },
    {
      "midi": 60,
      "hit": false,
      "t": 142021.47537500036,
      "d": 2423.46583333335,
      "v": 110
    },
    {
      "midi": 45,
      "hit": false,
      "t": 142024.6641458337,
      "d": 2423.46583333335,
      "v": 111
    },
    {
      "midi": 64,
      "hit": false,
      "t": 142024.6641458337,
      "d": 2423.46583333335,
      "v": 111
    },
    {
      "midi": 59,
      "hit": false,
      "t": 142027.85291666703,
      "d": 2423.46583333335,
      "v": 110
    },
    {
      "midi": 67,
      "hit": false,
      "t": 142031.04168750037,
      "d": 2423.46583333335,
      "v": 110
    },
    {
      "midi": 60,
      "hit": false,
      "t": 142059.74062500036,
      "d": 2423.46583333335,
      "v": 110
    },
    {
      "midi": 45,
      "hit": false,
      "t": 142062.9293958337,
      "d": 2423.46583333335,
      "v": 111
    },
    {
      "midi": 64,
      "hit": false,
      "t": 142062.9293958337,
      "d": 2423.46583333335,
      "v": 111
    },
    {
      "midi": 59,
      "hit": false,
      "t": 142066.11816666703,
      "d": 2423.46583333335,
      "v": 110
    },
    {
      "midi": 67,
      "hit": false,
      "t": 142069.30693750037,
      "d": 2423.46583333335,
      "v": 110
    },
    {
      "midi": 65,
      "hit": false,
      "t": 144470.45137500038,
      "d": 2423.46583333335,
      "v": 111
    },
    {
      "midi": 46,
      "hit": false,
      "t": 144473.64014583372,
      "d": 2423.46583333335,
      "v": 110
    },
    {
      "midi": 62,
      "hit": false,
      "t": 144476.82891666706,
      "d": 2423.46583333335,
      "v": 111
    },
    {
      "midi": 69,
      "hit": false,
      "t": 144476.82891666706,
      "d": 2423.46583333335,
      "v": 111
    },
    {
      "midi": 60,
      "hit": false,
      "t": 144480.0176875004,
      "d": 1811.221833333344,
      "v": 110
    },
    {
      "midi": 65,
      "hit": false,
      "t": 144508.71662500038,
      "d": 2423.46583333335,
      "v": 111
    },
    {
      "midi": 46,
      "hit": false,
      "t": 144511.90539583372,
      "d": 2423.46583333335,
      "v": 110
    },
    {
      "midi": 62,
      "hit": false,
      "t": 144515.09416666706,
      "d": 2423.46583333335,
      "v": 111
    },
    {
      "midi": 69,
      "hit": false,
      "t": 144515.09416666706,
      "d": 2423.46583333335,
      "v": 111
    },
    {
      "midi": 60,
      "hit": false,
      "t": 144518.2829375004,
      "d": 1811.221833333344,
      "v": 110
    },
    {
      "midi": 65,
      "hit": false,
      "t": 146919.4273750004,
      "d": 2423.46583333335,
      "v": 111
    },
    {
      "midi": 62,
      "hit": false,
      "t": 146922.61614583374,
      "d": 2423.46583333335,
      "v": 110
    },
    {
      "midi": 58,
      "hit": false,
      "t": 146925.80491666708,
      "d": 2423.46583333335,
      "v": 110
    },
    {
      "midi": 69,
      "hit": false,
      "t": 146925.80491666708,
      "d": 2423.46583333335,
      "v": 111
    },
    {
      "midi": 48,
      "hit": false,
      "t": 146928.99368750042,
      "d": 2423.46583333335,
      "v": 111
    },
    {
      "midi": 65,
      "hit": false,
      "t": 146957.6926250004,
      "d": 2423.46583333335,
      "v": 111
    },
    {
      "midi": 62,
      "hit": false,
      "t": 146960.88139583374,
      "d": 2423.46583333335,
      "v": 110
    },
    {
      "midi": 58,
      "hit": false,
      "t": 146964.07016666708,
      "d": 2423.46583333335,
      "v": 110
    },
    {
      "midi": 69,
      "hit": false,
      "t": 146964.07016666708,
      "d": 2423.46583333335,
      "v": 111
    },
    {
      "midi": 48,
      "hit": false,
      "t": 146967.25893750042,
      "d": 2423.46583333335,
      "v": 111
    },
    {
      "midi": 53,
      "hit": false,
      "t": 149374.7809166671,
      "d": 2423.465833333321,
      "v": 110
    },
    {
      "midi": 57,
      "hit": false,
      "t": 149374.7809166671,
      "d": 2423.465833333321,
      "v": 110
    },
    {
      "midi": 60,
      "hit": false,
      "t": 149374.7809166671,
      "d": 2423.465833333321,
      "v": 111
    },
    {
      "midi": 65,
      "hit": false,
      "t": 149374.7809166671,
      "d": 2423.465833333321,
      "v": 111
    },
    {
      "midi": 53,
      "hit": false,
      "t": 149413.0461666671,
      "d": 2423.465833333321,
      "v": 110
    },
    {
      "midi": 57,
      "hit": false,
      "t": 149413.0461666671,
      "d": 2423.465833333321,
      "v": 110
    },
    {
      "midi": 60,
      "hit": false,
      "t": 149413.0461666671,
      "d": 2423.465833333321,
      "v": 111
    },
    {
      "midi": 65,
      "hit": false,
      "t": 149413.0461666671,
      "d": 2423.465833333321,
      "v": 111
    },
    {
      "midi": 60,
      "hit": false,
      "t": 151817.37937500043,
      "d": 2423.46583333335,
      "v": 110
    },
    {
      "midi": 45,
      "hit": false,
      "t": 151823.7569166671,
      "d": 2423.46583333335,
      "v": 110
    },
    {
      "midi": 55,
      "hit": false,
      "t": 151823.7569166671,
      "d": 2423.46583333335,
      "v": 110
    },
    {
      "midi": 64,
      "hit": false,
      "t": 151823.7569166671,
      "d": 2423.46583333335,
      "v": 111
    },
    {
      "midi": 60,
      "hit": false,
      "t": 151855.64462500042,
      "d": 2423.46583333335,
      "v": 110
    },
    {
      "midi": 45,
      "hit": false,
      "t": 151862.0221666671,
      "d": 2423.46583333335,
      "v": 110
    },
    {
      "midi": 55,
      "hit": false,
      "t": 151862.0221666671,
      "d": 2423.46583333335,
      "v": 110
    },
    {
      "midi": 64,
      "hit": false,
      "t": 151862.0221666671,
      "d": 2423.46583333335,
      "v": 111
    },
    {
      "midi": 46,
      "hit": false,
      "t": 154269.5441458338,
      "d": 2423.46583333335,
      "v": 111
    },
    {
      "midi": 53,
      "hit": false,
      "t": 154269.5441458338,
      "d": 2423.46583333335,
      "v": 110
    },
    {
      "midi": 57,
      "hit": false,
      "t": 154269.5441458338,
      "d": 2423.46583333335,
      "v": 111
    },
    {
      "midi": 62,
      "hit": false,
      "t": 154275.92168750046,
      "d": 2423.46583333335,
      "v": 111
    },
    {
      "midi": 46,
      "hit": false,
      "t": 154307.80939583378,
      "d": 2423.46583333335,
      "v": 111
    },
    {
      "midi": 53,
      "hit": false,
      "t": 154307.80939583378,
      "d": 2423.46583333335,
      "v": 110
    },
    {
      "midi": 57,
      "hit": false,
      "t": 154307.80939583378,
      "d": 2423.46583333335,
      "v": 111
    },
    {
      "midi": 62,
      "hit": false,
      "t": 154314.18693750046,
      "d": 2423.46583333335,
      "v": 111
    },
    {
      "midi": 58,
      "hit": false,
      "t": 156718.5201458338,
      "d": 1785.7116666666698,
      "v": 110
    },
    {
      "midi": 48,
      "hit": false,
      "t": 156721.70891666715,
      "d": 1785.7116666666698,
      "v": 111
    },
    {
      "midi": 62,
      "hit": false,
      "t": 156721.70891666715,
      "d": 1785.7116666666698,
      "v": 110
    },
    {
      "midi": 53,
      "hit": false,
      "t": 156724.8976875005,
      "d": 1785.7116666666698,
      "v": 111
    },
    {
      "midi": 58,
      "hit": false,
      "t": 156756.7853958338,
      "d": 1785.7116666666698,
      "v": 110
    },
    {
      "midi": 48,
      "hit": false,
      "t": 156759.97416666715,
      "d": 1785.7116666666698,
      "v": 111
    },
    {
      "midi": 62,
      "hit": false,
      "t": 156759.97416666715,
      "d": 1785.7116666666698,
      "v": 110
    },
    {
      "midi": 53,
      "hit": false,
      "t": 156763.16293750048,
      "d": 1785.7116666666698,
      "v": 111
    },
    {
      "midi": 58,
      "hit": false,
      "t": 158555.25214583383,
      "d": 280.61183333332883,
      "v": 110
    },
    {
      "midi": 48,
      "hit": false,
      "t": 158555.25214583383,
      "d": 586.7338333333319,
      "v": 110
    },
    {
      "midi": 53,
      "hit": false,
      "t": 158558.44091666717,
      "d": 280.61183333332883,
      "v": 111
    },
    {
      "midi": 62,
      "hit": false,
      "t": 158558.44091666717,
      "d": 586.7338333333319,
      "v": 111
    },
    {
      "midi": 58,
      "hit": false,
      "t": 158593.51739583383,
      "d": 280.61183333332883,
      "v": 110
    },
    {
      "midi": 48,
      "hit": false,
      "t": 158593.51739583383,
      "d": 586.7338333333319,
      "v": 110
    },
    {
      "midi": 53,
      "hit": false,
      "t": 158596.70616666717,
      "d": 280.61183333332883,
      "v": 111
    },
    {
      "midi": 62,
      "hit": false,
      "t": 158596.70616666717,
      "d": 586.7338333333319,
      "v": 111
    },
    {
      "midi": 58,
      "hit": false,
      "t": 158864.56291666717,
      "d": 280.61183333332883,
      "v": 110
    },
    {
      "midi": 65,
      "hit": false,
      "t": 158864.56291666717,
      "d": 280.61183333332883,
      "v": 110
    },
    {
      "midi": 58,
      "hit": false,
      "t": 158902.82816666717,
      "d": 280.61183333332883,
      "v": 110
    },
    {
      "midi": 65,
      "hit": false,
      "t": 158902.82816666717,
      "d": 280.61183333332883,
      "v": 110
    },
    {
      "midi": 57,
      "hit": false,
      "t": 159167.49614583384,
      "d": 2423.46583333335,
      "v": 110
    },
    {
      "midi": 60,
      "hit": false,
      "t": 159167.49614583384,
      "d": 2423.46583333335,
      "v": 111
    },
    {
      "midi": 65,
      "hit": false,
      "t": 159170.68491666717,
      "d": 2423.46583333335,
      "v": 111
    },
    {
      "midi": 53,
      "hit": false,
      "t": 159173.8736875005,
      "d": 2423.46583333335,
      "v": 111
    },
    {
      "midi": 57,
      "hit": false,
      "t": 159205.76139583383,
      "d": 2423.46583333335,
      "v": 110
    },
    {
      "midi": 60,
      "hit": false,
      "t": 159205.76139583383,
      "d": 2423.46583333335,
      "v": 111
    },
    {
      "midi": 65,
      "hit": false,
      "t": 159208.95016666717,
      "d": 2423.46583333335,
      "v": 111
    },
    {
      "midi": 53,
      "hit": false,
      "t": 159212.1389375005,
      "d": 2423.46583333335,
      "v": 111
    },
    {
      "midi": 60,
      "hit": false,
      "t": 161616.47214583386,
      "d": 2423.46583333335,
      "v": 111
    },
    {
      "midi": 64,
      "hit": false,
      "t": 161616.47214583386,
      "d": 2423.46583333335,
      "v": 110
    },
    {
      "midi": 45,
      "hit": false,
      "t": 161622.84968750054,
      "d": 2423.46583333335,
      "v": 110
    },
    {
      "midi": 55,
      "hit": false,
      "t": 161622.84968750054,
      "d": 2423.46583333335,
      "v": 110
    },
    {
      "midi": 60,
      "hit": false,
      "t": 161654.73739583386,
      "d": 2423.46583333335,
      "v": 111
    },
    {
      "midi": 64,
      "hit": false,
      "t": 161654.73739583386,
      "d": 2423.46583333335,
      "v": 110
    },
    {
      "midi": 45,
      "hit": false,
      "t": 161661.11493750053,
      "d": 2423.46583333335,
      "v": 110
    },
    {
      "midi": 55,
      "hit": false,
      "t": 161661.11493750053,
      "d": 2423.46583333335,
      "v": 110
    },
    {
      "midi": 62,
      "hit": false,
      "t": 164062.25937500055,
      "d": 2423.46583333335,
      "v": 111
    },
    {
      "midi": 57,
      "hit": false,
      "t": 164065.44814583389,
      "d": 2423.46583333335,
      "v": 111
    },
    {
      "midi": 53,
      "hit": false,
      "t": 164068.63691666722,
      "d": 2423.46583333335,
      "v": 110
    },
    {
      "midi": 46,
      "hit": false,
      "t": 164071.82568750056,
      "d": 2423.46583333335,
      "v": 110
    },
    {
      "midi": 62,
      "hit": false,
      "t": 164100.52462500054,
      "d": 2423.46583333335,
      "v": 111
    },
    {
      "midi": 57,
      "hit": false,
      "t": 164103.71339583388,
      "d": 2423.46583333335,
      "v": 111
    },
    {
      "midi": 53,
      "hit": false,
      "t": 164106.90216666722,
      "d": 2423.46583333335,
      "v": 110
    },
    {
      "midi": 46,
      "hit": false,
      "t": 164110.09093750056,
      "d": 2423.46583333335,
      "v": 110
    },
    {
      "midi": 58,
      "hit": false,
      "t": 166514.4241458339,
      "d": 1505.099833333341,
      "v": 111
    },
    {
      "midi": 48,
      "hit": false,
      "t": 166517.61291666725,
      "d": 1505.099833333341,
      "v": 110
    },
    {
      "midi": 53,
      "hit": false,
      "t": 166517.61291666725,
      "d": 1505.099833333341,
      "v": 111
    },
    {
      "midi": 62,
      "hit": false,
      "t": 166517.61291666725,
      "d": 1505.099833333341,
      "v": 110
    },
    {
      "midi": 58,
      "hit": false,
      "t": 166552.6893958339,
      "d": 1505.099833333341,
      "v": 111
    },
    {
      "midi": 48,
      "hit": false,
      "t": 166555.87816666724,
      "d": 1505.099833333341,
      "v": 110
    },
    {
      "midi": 53,
      "hit": false,
      "t": 166555.87816666724,
      "d": 1505.099833333341,
      "v": 111
    },
    {
      "midi": 62,
      "hit": false,
      "t": 166555.87816666724,
      "d": 1505.099833333341,
      "v": 110
    },
    {
      "midi": 65,
      "hit": false,
      "t": 168041.8453750006,
      "d": 561.2236666666868,
      "v": 110
    },
    {
      "midi": 48,
      "hit": false,
      "t": 168041.8453750006,
      "d": 892.8558333333931,
      "v": 111
    },
    {
      "midi": 69,
      "hit": false,
      "t": 168045.03414583392,
      "d": 561.2236666666868,
      "v": 111
    },
    {
      "midi": 58,
      "hit": false,
      "t": 168048.22291666726,
      "d": 561.2236666666868,
      "v": 111
    },
    {
      "midi": 62,
      "hit": false,
      "t": 168051.4116875006,
      "d": 561.2236666666868,
      "v": 110
    },
    {
      "midi": 65,
      "hit": false,
      "t": 168080.11062500058,
      "d": 561.2236666666868,
      "v": 110
    },
    {
      "midi": 48,
      "hit": false,
      "t": 168080.11062500058,
      "d": 892.8558333333931,
      "v": 111
    },
    {
      "midi": 69,
      "hit": false,
      "t": 168083.29939583392,
      "d": 561.2236666666868,
      "v": 111
    },
    {
      "midi": 58,
      "hit": false,
      "t": 168086.48816666726,
      "d": 561.2236666666868,
      "v": 111
    },
    {
      "midi": 62,
      "hit": false,
      "t": 168089.6769375006,
      "d": 561.2236666666868,
      "v": 110
    },
    {
      "midi": 65,
      "hit": false,
      "t": 168654.08937500062,
      "d": 280.61183333335794,
      "v": 111
    },
    {
      "midi": 58,
      "hit": false,
      "t": 168657.27814583396,
      "d": 280.61183333335794,
      "v": 110
    },
    {
      "midi": 62,
      "hit": false,
      "t": 168660.4669166673,
      "d": 280.61183333335794,
      "v": 110
    },
    {
      "midi": 69,
      "hit": false,
      "t": 168663.65568750064,
      "d": 280.61183333335794,
      "v": 111
    },
    {
      "midi": 65,
      "hit": false,
      "t": 168692.35462500062,
      "d": 280.61183333335794,
      "v": 111
    },
    {
      "midi": 58,
      "hit": false,
      "t": 168695.54339583396,
      "d": 280.61183333335794,
      "v": 110
    },
    {
      "midi": 62,
      "hit": false,
      "t": 168698.7321666673,
      "d": 280.61183333335794,
      "v": 110
    },
    {
      "midi": 69,
      "hit": false,
      "t": 168701.92093750063,
      "d": 280.61183333335794,
      "v": 111
    },
    {
      "midi": 57,
      "hit": false,
      "t": 168966.58891666733,
      "d": 2423.46583333335,
      "v": 111
    },
    {
      "midi": 60,
      "hit": false,
      "t": 168966.58891666733,
      "d": 2423.46583333335,
      "v": 110
    },
    {
      "midi": 65,
      "hit": false,
      "t": 168966.58891666733,
      "d": 2423.46583333335,
      "v": 110
    },
    {
      "midi": 53,
      "hit": false,
      "t": 168969.77768750067,
      "d": 2423.46583333335,
      "v": 111
    },
    {
      "midi": 57,
      "hit": false,
      "t": 169004.85416666733,
      "d": 2423.46583333335,
      "v": 111
    },
    {
      "midi": 60,
      "hit": false,
      "t": 169004.85416666733,
      "d": 2423.46583333335,
      "v": 110
    },
    {
      "midi": 65,
      "hit": false,
      "t": 169004.85416666733,
      "d": 2423.46583333335,
      "v": 110
    },
    {
      "midi": 53,
      "hit": false,
      "t": 169008.04293750066,
      "d": 2423.46583333335,
      "v": 111
    },
    {
      "midi": 45,
      "hit": false,
      "t": 171412.37614583402,
      "d": 2423.46583333335,
      "v": 111
    },
    {
      "midi": 60,
      "hit": false,
      "t": 171415.56491666735,
      "d": 2423.46583333335,
      "v": 110
    },
    {
      "midi": 64,
      "hit": false,
      "t": 171415.56491666735,
      "d": 2423.46583333335,
      "v": 110
    },
    {
      "midi": 55,
      "hit": false,
      "t": 171418.7536875007,
      "d": 2423.46583333335,
      "v": 111
    },
    {
      "midi": 45,
      "hit": false,
      "t": 171450.641395834,
      "d": 2423.46583333335,
      "v": 111
    },
    {
      "midi": 60,
      "hit": false,
      "t": 171453.83016666735,
      "d": 2423.46583333335,
      "v": 110
    },
    {
      "midi": 64,
      "hit": false,
      "t": 171453.83016666735,
      "d": 2423.46583333335,
      "v": 110
    },
    {
      "midi": 55,
      "hit": false,
      "t": 171457.0189375007,
      "d": 2423.46583333335,
      "v": 111
    },
    {
      "midi": 53,
      "hit": false,
      "t": 173858.1633750007,
      "d": 2423.46583333335,
      "v": 110
    },
    {
      "midi": 46,
      "hit": false,
      "t": 173861.35214583404,
      "d": 2423.46583333335,
      "v": 111
    },
    {
      "midi": 62,
      "hit": false,
      "t": 173861.35214583404,
      "d": 2423.46583333335,
      "v": 111
    },
    {
      "midi": 57,
      "hit": false,
      "t": 173867.72968750072,
      "d": 2423.46583333335,
      "v": 110
    },
    {
      "midi": 53,
      "hit": false,
      "t": 173896.4286250007,
      "d": 2423.46583333335,
      "v": 110
    },
    {
      "midi": 46,
      "hit": false,
      "t": 173899.61739583404,
      "d": 2423.46583333335,
      "v": 111
    },
    {
      "midi": 62,
      "hit": false,
      "t": 173899.61739583404,
      "d": 2423.46583333335,
      "v": 111
    },
    {
      "midi": 57,
      "hit": false,
      "t": 173905.9949375007,
      "d": 2423.46583333335,
      "v": 110
    },
    {
      "midi": 48,
      "hit": false,
      "t": 176310.32814583406,
      "d": 1785.7116666666698,
      "v": 111
    },
    {
      "midi": 53,
      "hit": false,
      "t": 176313.5169166674,
      "d": 1785.7116666666698,
      "v": 110
    },
    {
      "midi": 62,
      "hit": false,
      "t": 176313.5169166674,
      "d": 1785.7116666666698,
      "v": 110
    },
    {
      "midi": 58,
      "hit": false,
      "t": 176316.70568750074,
      "d": 1785.7116666666698,
      "v": 111
    },
    {
      "midi": 48,
      "hit": false,
      "t": 176348.59339583406,
      "d": 1785.7116666666698,
      "v": 111
    },
    {
      "midi": 53,
      "hit": false,
      "t": 176351.7821666674,
      "d": 1785.7116666666698,
      "v": 110
    },
    {
      "midi": 62,
      "hit": false,
      "t": 176351.7821666674,
      "d": 1785.7116666666698,
      "v": 110
    },
    {
      "midi": 58,
      "hit": false,
      "t": 176354.97093750074,
      "d": 1785.7116666666698,
      "v": 111
    },
    {
      "midi": 53,
      "hit": false,
      "t": 178147.06014583408,
      "d": 280.61183333332883,
      "v": 111
    },
    {
      "midi": 58,
      "hit": false,
      "t": 178147.06014583408,
      "d": 280.61183333332883,
      "v": 110
    },
    {
      "midi": 62,
      "hit": false,
      "t": 178147.06014583408,
      "d": 586.7338333333319,
      "v": 110
    },
    {
      "midi": 48,
      "hit": false,
      "t": 178153.43768750076,
      "d": 586.7338333333319,
      "v": 111
    },
    {
      "midi": 53,
      "hit": false,
      "t": 178185.32539583408,
      "d": 280.61183333332883,
      "v": 111
    },
    {
      "midi": 58,
      "hit": false,
      "t": 178185.32539583408,
      "d": 280.61183333332883,
      "v": 110
    },
    {
      "midi": 62,
      "hit": false,
      "t": 178185.32539583408,
      "d": 586.7338333333319,
      "v": 110
    },
    {
      "midi": 48,
      "hit": false,
      "t": 178191.70293750076,
      "d": 586.7338333333319,
      "v": 111
    },
    {
      "midi": 65,
      "hit": false,
      "t": 178453.1821458341,
      "d": 280.61183333332883,
      "v": 111
    },
    {
      "midi": 58,
      "hit": false,
      "t": 178456.37091666742,
      "d": 280.61183333332883,
      "v": 110
    },
    {
      "midi": 65,
      "hit": false,
      "t": 178491.44739583408,
      "d": 280.61183333332883,
      "v": 111
    },
    {
      "midi": 58,
      "hit": false,
      "t": 178494.63616666742,
      "d": 280.61183333332883,
      "v": 110
    },
    {
      "midi": 53,
      "hit": false,
      "t": 178759.3041458341,
      "d": 2423.46583333335,
      "v": 110
    },
    {
      "midi": 60,
      "hit": false,
      "t": 178759.3041458341,
      "d": 2423.46583333335,
      "v": 111
    },
    {
      "midi": 65,
      "hit": false,
      "t": 178759.3041458341,
      "d": 2423.46583333335,
      "v": 110
    },
    {
      "midi": 57,
      "hit": false,
      "t": 178762.49291666743,
      "d": 2423.46583333335,
      "v": 111
    },
    {
      "midi": 53,
      "hit": false,
      "t": 178797.56939583409,
      "d": 2423.46583333335,
      "v": 110
    },
    {
      "midi": 60,
      "hit": false,
      "t": 178797.56939583409,
      "d": 2423.46583333335,
      "v": 111
    },
    {
      "midi": 65,
      "hit": false,
      "t": 178797.56939583409,
      "d": 2423.46583333335,
      "v": 110
    },
    {
      "midi": 57,
      "hit": false,
      "t": 178800.75816666742,
      "d": 2423.46583333335,
      "v": 111
    },
    {
      "midi": 60,
      "hit": false,
      "t": 181208.2801458341,
      "d": 2423.46583333335,
      "v": 111
    },
    {
      "midi": 45,
      "hit": false,
      "t": 181211.46891666745,
      "d": 2423.46583333335,
      "v": 110
    },
    {
      "midi": 55,
      "hit": false,
      "t": 181211.46891666745,
      "d": 2423.46583333335,
      "v": 111
    },
    {
      "midi": 64,
      "hit": false,
      "t": 181211.46891666745,
      "d": 2423.46583333335,
      "v": 110
    },
    {
      "midi": 60,
      "hit": false,
      "t": 181246.5453958341,
      "d": 2423.46583333335,
      "v": 111
    },
    {
      "midi": 45,
      "hit": false,
      "t": 181249.73416666745,
      "d": 2423.46583333335,
      "v": 110
    },
    {
      "midi": 55,
      "hit": false,
      "t": 181249.73416666745,
      "d": 2423.46583333335,
      "v": 111
    },
    {
      "midi": 64,
      "hit": false,
      "t": 181249.73416666745,
      "d": 2423.46583333335,
      "v": 110
    },
    {
      "midi": 46,
      "hit": false,
      "t": 183660.44491666747,
      "d": 2423.465833333321,
      "v": 110
    },
    {
      "midi": 53,
      "hit": false,
      "t": 183660.44491666747,
      "d": 2423.465833333321,
      "v": 111
    },
    {
      "midi": 57,
      "hit": false,
      "t": 183660.44491666747,
      "d": 2423.465833333321,
      "v": 111
    },
    {
      "midi": 62,
      "hit": false,
      "t": 183660.44491666747,
      "d": 2423.465833333321,
      "v": 110
    },
    {
      "midi": 46,
      "hit": false,
      "t": 183698.71016666747,
      "d": 2423.465833333321,
      "v": 110
    },
    {
      "midi": 53,
      "hit": false,
      "t": 183698.71016666747,
      "d": 2423.465833333321,
      "v": 111
    },
    {
      "midi": 57,
      "hit": false,
      "t": 183698.71016666747,
      "d": 2423.465833333321,
      "v": 111
    },
    {
      "midi": 62,
      "hit": false,
      "t": 183698.71016666747,
      "d": 2423.465833333321,
      "v": 110
    },
    {
      "midi": 58,
      "hit": false,
      "t": 186106.23214583413,
      "d": 1505.099833333341,
      "v": 110
    },
    {
      "midi": 48,
      "hit": false,
      "t": 186109.42091666747,
      "d": 1505.099833333341,
      "v": 111
    },
    {
      "midi": 53,
      "hit": false,
      "t": 186109.42091666747,
      "d": 1505.099833333341,
      "v": 111
    },
    {
      "midi": 62,
      "hit": false,
      "t": 186112.6096875008,
      "d": 1505.099833333341,
      "v": 110
    },
    {
      "midi": 58,
      "hit": false,
      "t": 186144.49739583413,
      "d": 1505.099833333341,
      "v": 110
    },
    {
      "midi": 48,
      "hit": false,
      "t": 186147.68616666747,
      "d": 1505.099833333341,
      "v": 111
    },
    {
      "midi": 53,
      "hit": false,
      "t": 186147.68616666747,
      "d": 1505.099833333341,
      "v": 111
    },
    {
      "midi": 62,
      "hit": false,
      "t": 186150.8749375008,
      "d": 1505.099833333341,
      "v": 110
    },
    {
      "midi": 65,
      "hit": false,
      "t": 187633.6533750008,
      "d": 561.2236666666868,
      "v": 110
    },
    {
      "midi": 58,
      "hit": false,
      "t": 187636.84214583415,
      "d": 561.2236666666868,
      "v": 111
    },
    {
      "midi": 62,
      "hit": false,
      "t": 187640.03091666749,
      "d": 561.2236666666868,
      "v": 110
    },
    {
      "midi": 69,
      "hit": false,
      "t": 187640.03091666749,
      "d": 561.2236666666868,
      "v": 111
    },
    {
      "midi": 48,
      "hit": false,
      "t": 187643.21968750082,
      "d": 892.855833333364,
      "v": 111
    },
    {
      "midi": 65,
      "hit": false,
      "t": 187671.9186250008,
      "d": 561.2236666666868,
      "v": 110
    },
    {
      "midi": 58,
      "hit": false,
      "t": 187675.10739583414,
      "d": 561.2236666666868,
      "v": 111
    },
    {
      "midi": 62,
      "hit": false,
      "t": 187678.29616666748,
      "d": 561.2236666666868,
      "v": 110
    },
    {
      "midi": 69,
      "hit": false,
      "t": 187678.29616666748,
      "d": 561.2236666666868,
      "v": 111
    },
    {
      "midi": 48,
      "hit": false,
      "t": 187681.48493750082,
      "d": 892.855833333364,
      "v": 111
    },
    {
      "midi": 69,
      "hit": false,
      "t": 188249.08614583418,
      "d": 280.61183333332883,
      "v": 110
    },
    {
      "midi": 58,
      "hit": false,
      "t": 188252.27491666752,
      "d": 280.61183333332883,
      "v": 111
    },
    {
      "midi": 62,
      "hit": false,
      "t": 188252.27491666752,
      "d": 280.61183333332883,
      "v": 110
    },
    {
      "midi": 65,
      "hit": false,
      "t": 188252.27491666752,
      "d": 280.61183333332883,
      "v": 110
    },
    {
      "midi": 69,
      "hit": false,
      "t": 188287.35139583418,
      "d": 280.61183333332883,
      "v": 110
    },
    {
      "midi": 58,
      "hit": false,
      "t": 188290.54016666752,
      "d": 280.61183333332883,
      "v": 111
    },
    {
      "midi": 62,
      "hit": false,
      "t": 188290.54016666752,
      "d": 280.61183333332883,
      "v": 110
    },
    {
      "midi": 65,
      "hit": false,
      "t": 188290.54016666752,
      "d": 280.61183333332883,
      "v": 110
    },
    {
      "midi": 53,
      "hit": false,
      "t": 188558.39691666752,
      "d": 2423.465833333321,
      "v": 110
    },
    {
      "midi": 57,
      "hit": false,
      "t": 188558.39691666752,
      "d": 2423.465833333321,
      "v": 111
    },
    {
      "midi": 60,
      "hit": false,
      "t": 188558.39691666752,
      "d": 2423.465833333321,
      "v": 110
    },
    {
      "midi": 65,
      "hit": false,
      "t": 188558.39691666752,
      "d": 2423.465833333321,
      "v": 111
    },
    {
      "midi": 53,
      "hit": false,
      "t": 188596.66216666752,
      "d": 2423.465833333321,
      "v": 110
    },
    {
      "midi": 57,
      "hit": false,
      "t": 188596.66216666752,
      "d": 2423.465833333321,
      "v": 111
    },
    {
      "midi": 60,
      "hit": false,
      "t": 188596.66216666752,
      "d": 2423.465833333321,
      "v": 110
    },
    {
      "midi": 65,
      "hit": false,
      "t": 188596.66216666752,
      "d": 2423.465833333321,
      "v": 111
    },
    {
      "midi": 60,
      "hit": false,
      "t": 191004.18414583418,
      "d": 2423.46583333335,
      "v": 111
    },
    {
      "midi": 45,
      "hit": false,
      "t": 191007.37291666752,
      "d": 2423.46583333335,
      "v": 110
    },
    {
      "midi": 55,
      "hit": false,
      "t": 191007.37291666752,
      "d": 2423.46583333335,
      "v": 111
    },
    {
      "midi": 64,
      "hit": false,
      "t": 191007.37291666752,
      "d": 2423.46583333335,
      "v": 110
    },
    {
      "midi": 60,
      "hit": false,
      "t": 191042.44939583418,
      "d": 2423.46583333335,
      "v": 111
    },
    {
      "midi": 45,
      "hit": false,
      "t": 191045.63816666752,
      "d": 2423.46583333335,
      "v": 110
    },
    {
      "midi": 55,
      "hit": false,
      "t": 191045.63816666752,
      "d": 2423.46583333335,
      "v": 111
    },
    {
      "midi": 64,
      "hit": false,
      "t": 191045.63816666752,
      "d": 2423.46583333335,
      "v": 110
    },
    {
      "midi": 57,
      "hit": false,
      "t": 193453.1601458342,
      "d": 2423.46583333335,
      "v": 111
    },
    {
      "midi": 62,
      "hit": false,
      "t": 193453.1601458342,
      "d": 2423.46583333335,
      "v": 110
    },
    {
      "midi": 46,
      "hit": false,
      "t": 193456.34891666754,
      "d": 2423.46583333335,
      "v": 111
    },
    {
      "midi": 53,
      "hit": false,
      "t": 193456.34891666754,
      "d": 2423.46583333335,
      "v": 111
    },
    {
      "midi": 57,
      "hit": false,
      "t": 193491.4253958342,
      "d": 2423.46583333335,
      "v": 111
    },
    {
      "midi": 62,
      "hit": false,
      "t": 193491.4253958342,
      "d": 2423.46583333335,
      "v": 110
    },
    {
      "midi": 46,
      "hit": false,
      "t": 193494.61416666754,
      "d": 2423.46583333335,
      "v": 111
    },
    {
      "midi": 53,
      "hit": false,
      "t": 193494.61416666754,
      "d": 2423.46583333335,
      "v": 111
    },
    {
      "midi": 58,
      "hit": false,
      "t": 195902.13614583423,
      "d": 1785.7116666666698,
      "v": 110
    },
    {
      "midi": 48,
      "hit": false,
      "t": 195905.32491666757,
      "d": 1785.7116666666698,
      "v": 111
    },
    {
      "midi": 53,
      "hit": false,
      "t": 195905.32491666757,
      "d": 1785.7116666666698,
      "v": 110
    },
    {
      "midi": 62,
      "hit": false,
      "t": 195905.32491666757,
      "d": 1785.7116666666698,
      "v": 110
    },
    {
      "midi": 58,
      "hit": false,
      "t": 195940.40139583423,
      "d": 1785.7116666666698,
      "v": 110
    },
    {
      "midi": 48,
      "hit": false,
      "t": 195943.59016666756,
      "d": 1785.7116666666698,
      "v": 111
    },
    {
      "midi": 53,
      "hit": false,
      "t": 195943.59016666756,
      "d": 1785.7116666666698,
      "v": 110
    },
    {
      "midi": 62,
      "hit": false,
      "t": 195943.59016666756,
      "d": 1785.7116666666698,
      "v": 110
    },
    {
      "midi": 48,
      "hit": false,
      "t": 197738.86814583425,
      "d": 586.7338333333319,
      "v": 111
    },
    {
      "midi": 53,
      "hit": false,
      "t": 197742.05691666759,
      "d": 280.61183333332883,
      "v": 110
    },
    {
      "midi": 58,
      "hit": false,
      "t": 197742.05691666759,
      "d": 280.61183333332883,
      "v": 111
    },
    {
      "midi": 62,
      "hit": false,
      "t": 197742.05691666759,
      "d": 586.7338333333319,
      "v": 110
    },
    {
      "midi": 48,
      "hit": false,
      "t": 197777.13339583424,
      "d": 586.7338333333319,
      "v": 111
    },
    {
      "midi": 53,
      "hit": false,
      "t": 197780.32216666758,
      "d": 280.61183333332883,
      "v": 110
    },
    {
      "midi": 58,
      "hit": false,
      "t": 197780.32216666758,
      "d": 280.61183333332883,
      "v": 111
    },
    {
      "midi": 62,
      "hit": false,
      "t": 197780.32216666758,
      "d": 586.7338333333319,
      "v": 110
    },
    {
      "midi": 58,
      "hit": false,
      "t": 198041.8013750009,
      "d": 280.61183333332883,
      "v": 111
    },
    {
      "midi": 65,
      "hit": false,
      "t": 198048.1789166676,
      "d": 280.61183333332883,
      "v": 111
    },
    {
      "midi": 58,
      "hit": false,
      "t": 198080.0666250009,
      "d": 280.61183333332883,
      "v": 111
    },
    {
      "midi": 65,
      "hit": false,
      "t": 198086.44416666758,
      "d": 280.61183333332883,
      "v": 111
    },
    {
      "midi": 65,
      "hit": false,
      "t": 198351.11214583425,
      "d": 2423.46583333335,
      "v": 110
    },
    {
      "midi": 53,
      "hit": false,
      "t": 198354.3009166676,
      "d": 2423.46583333335,
      "v": 110
    },
    {
      "midi": 57,
      "hit": false,
      "t": 198354.3009166676,
      "d": 2423.46583333335,
      "v": 110
    },
    {
      "midi": 60,
      "hit": false,
      "t": 198354.3009166676,
      "d": 2423.46583333335,
      "v": 111
    },
    {
      "midi": 65,
      "hit": false,
      "t": 198389.37739583425,
      "d": 2423.46583333335,
      "v": 110
    },
    {
      "midi": 53,
      "hit": false,
      "t": 198392.5661666676,
      "d": 2423.46583333335,
      "v": 110
    },
    {
      "midi": 57,
      "hit": false,
      "t": 198392.5661666676,
      "d": 2423.46583333335,
      "v": 110
    },
    {
      "midi": 60,
      "hit": false,
      "t": 198392.5661666676,
      "d": 2423.46583333335,
      "v": 111
    },
    {
      "midi": 55,
      "hit": false,
      "t": 200800.08814583428,
      "d": 2423.46583333335,
      "v": 111
    },
    {
      "midi": 60,
      "hit": false,
      "t": 200800.08814583428,
      "d": 2423.46583333335,
      "v": 111
    },
    {
      "midi": 45,
      "hit": false,
      "t": 200803.27691666762,
      "d": 2423.46583333335,
      "v": 110
    },
    {
      "midi": 64,
      "hit": false,
      "t": 200803.27691666762,
      "d": 2423.46583333335,
      "v": 111
    },
    {
      "midi": 55,
      "hit": false,
      "t": 200838.35339583427,
      "d": 2423.46583333335,
      "v": 111
    },
    {
      "midi": 60,
      "hit": false,
      "t": 200838.35339583427,
      "d": 2423.46583333335,
      "v": 111
    },
    {
      "midi": 45,
      "hit": false,
      "t": 200841.5421666676,
      "d": 2423.46583333335,
      "v": 110
    },
    {
      "midi": 64,
      "hit": false,
      "t": 200841.5421666676,
      "d": 2423.46583333335,
      "v": 111
    },
    {
      "midi": 46,
      "hit": false,
      "t": 203245.87537500096,
      "d": 2423.46583333335,
      "v": 110
    },
    {
      "midi": 53,
      "hit": false,
      "t": 203245.87537500096,
      "d": 2423.46583333335,
      "v": 110
    },
    {
      "midi": 57,
      "hit": false,
      "t": 203249.0641458343,
      "d": 2423.46583333335,
      "v": 111
    },
    {
      "midi": 62,
      "hit": false,
      "t": 203252.25291666764,
      "d": 2423.46583333335,
      "v": 111
    },
    {
      "midi": 46,
      "hit": false,
      "t": 203284.14062500096,
      "d": 2423.46583333335,
      "v": 110
    },
    {
      "midi": 53,
      "hit": false,
      "t": 203284.14062500096,
      "d": 2423.46583333335,
      "v": 110
    },
    {
      "midi": 57,
      "hit": false,
      "t": 203287.3293958343,
      "d": 2423.46583333335,
      "v": 111
    },
    {
      "midi": 62,
      "hit": false,
      "t": 203290.51816666764,
      "d": 2423.46583333335,
      "v": 111
    },
    {
      "midi": 62,
      "hit": false,
      "t": 205694.851375001,
      "d": 1505.099833333341,
      "v": 110
    },
    {
      "midi": 48,
      "hit": false,
      "t": 205701.22891666766,
      "d": 1505.099833333341,
      "v": 111
    },
    {
      "midi": 53,
      "hit": false,
      "t": 205701.22891666766,
      "d": 1505.099833333341,
      "v": 110
    },
    {
      "midi": 58,
      "hit": false,
      "t": 205704.417687501,
      "d": 1505.099833333341,
      "v": 111
    },
    {
      "midi": 62,
      "hit": false,
      "t": 205733.11662500098,
      "d": 1505.099833333341,
      "v": 110
    },
    {
      "midi": 48,
      "hit": false,
      "t": 205739.49416666766,
      "d": 1505.099833333341,
      "v": 111
    },
    {
      "midi": 53,
      "hit": false,
      "t": 205739.49416666766,
      "d": 1505.099833333341,
      "v": 110
    },
    {
      "midi": 58,
      "hit": false,
      "t": 205742.682937501,
      "d": 1505.099833333341,
      "v": 111
    },
    {
      "midi": 58,
      "hit": false,
      "t": 207225.461375001,
      "d": 561.2236666666868,
      "v": 110
    },
    {
      "midi": 69,
      "hit": false,
      "t": 207225.461375001,
      "d": 561.2236666666868,
      "v": 110
    },
    {
      "midi": 62,
      "hit": false,
      "t": 207231.83891666768,
      "d": 561.2236666666868,
      "v": 111
    },
    {
      "midi": 65,
      "hit": false,
      "t": 207231.83891666768,
      "d": 561.2236666666868,
      "v": 111
    },
    {
      "midi": 48,
      "hit": false,
      "t": 207231.83891666768,
      "d": 892.855833333364,
      "v": 110
    },
    {
      "midi": 58,
      "hit": false,
      "t": 207263.726625001,
      "d": 561.2236666666868,
      "v": 110
    },
    {
      "midi": 69,
      "hit": false,
      "t": 207263.726625001,
      "d": 561.2236666666868,
      "v": 110
    },
    {
      "midi": 62,
      "hit": false,
      "t": 207270.10416666768,
      "d": 561.2236666666868,
      "v": 111
    },
    {
      "midi": 65,
      "hit": false,
      "t": 207270.10416666768,
      "d": 561.2236666666868,
      "v": 111
    },
    {
      "midi": 48,
      "hit": false,
      "t": 207270.10416666768,
      "d": 892.855833333364,
      "v": 110
    },
    {
      "midi": 58,
      "hit": false,
      "t": 207840.89414583438,
      "d": 280.61183333332883,
      "v": 111
    },
    {
      "midi": 62,
      "hit": false,
      "t": 207840.89414583438,
      "d": 280.61183333332883,
      "v": 110
    },
    {
      "midi": 65,
      "hit": false,
      "t": 207844.0829166677,
      "d": 280.61183333332883,
      "v": 111
    },
    {
      "midi": 69,
      "hit": false,
      "t": 207844.0829166677,
      "d": 280.61183333332883,
      "v": 110
    },
    {
      "midi": 58,
      "hit": false,
      "t": 207879.15939583437,
      "d": 280.61183333332883,
      "v": 111
    },
    {
      "midi": 62,
      "hit": false,
      "t": 207879.15939583437,
      "d": 280.61183333332883,
      "v": 110
    },
    {
      "midi": 65,
      "hit": false,
      "t": 207882.3481666677,
      "d": 280.61183333332883,
      "v": 111
    },
    {
      "midi": 69,
      "hit": false,
      "t": 207882.3481666677,
      "d": 280.61183333332883,
      "v": 110
    },
    {
      "midi": 65,
      "hit": false,
      "t": 208150.20491666772,
      "d": 2423.46583333335,
      "v": 110
    },
    {
      "midi": 53,
      "hit": false,
      "t": 208153.39368750105,
      "d": 2423.46583333335,
      "v": 111
    },
    {
      "midi": 57,
      "hit": false,
      "t": 208153.39368750105,
      "d": 2423.46583333335,
      "v": 111
    },
    {
      "midi": 60,
      "hit": false,
      "t": 208153.39368750105,
      "d": 2423.46583333335,
      "v": 110
    },
    {
      "midi": 65,
      "hit": false,
      "t": 208188.4701666677,
      "d": 2423.46583333335,
      "v": 110
    },
    {
      "midi": 53,
      "hit": false,
      "t": 208191.65893750105,
      "d": 2423.46583333335,
      "v": 111
    },
    {
      "midi": 57,
      "hit": false,
      "t": 208191.65893750105,
      "d": 2423.46583333335,
      "v": 111
    },
    {
      "midi": 60,
      "hit": false,
      "t": 208191.65893750105,
      "d": 2423.46583333335,
      "v": 110
    },
    {
      "midi": 45,
      "hit": false,
      "t": 210595.9921458344,
      "d": 2423.46583333335,
      "v": 110
    },
    {
      "midi": 60,
      "hit": false,
      "t": 210595.9921458344,
      "d": 2423.46583333335,
      "v": 111
    },
    {
      "midi": 55,
      "hit": false,
      "t": 210602.36968750108,
      "d": 2423.46583333335,
      "v": 111
    },
    {
      "midi": 64,
      "hit": false,
      "t": 210602.36968750108,
      "d": 2423.46583333335,
      "v": 110
    },
    {
      "midi": 45,
      "hit": false,
      "t": 210634.2573958344,
      "d": 2423.46583333335,
      "v": 110
    },
    {
      "midi": 60,
      "hit": false,
      "t": 210634.2573958344,
      "d": 2423.46583333335,
      "v": 111
    },
    {
      "midi": 55,
      "hit": false,
      "t": 210640.63493750108,
      "d": 2423.46583333335,
      "v": 111
    },
    {
      "midi": 64,
      "hit": false,
      "t": 210640.63493750108,
      "d": 2423.46583333335,
      "v": 110
    },
    {
      "midi": 62,
      "hit": false,
      "t": 213041.7793750011,
      "d": 2423.46583333335,
      "v": 110
    },
    {
      "midi": 46,
      "hit": false,
      "t": 213044.96814583443,
      "d": 2423.46583333335,
      "v": 111
    },
    {
      "midi": 53,
      "hit": false,
      "t": 213048.15691666777,
      "d": 2423.46583333335,
      "v": 110
    },
    {
      "midi": 57,
      "hit": false,
      "t": 213051.3456875011,
      "d": 2423.46583333335,
      "v": 111
    },
    {
      "midi": 62,
      "hit": false,
      "t": 213080.0446250011,
      "d": 2423.46583333335,
      "v": 110
    },
    {
      "midi": 46,
      "hit": false,
      "t": 213083.23339583442,
      "d": 2423.46583333335,
      "v": 111
    },
    {
      "midi": 53,
      "hit": false,
      "t": 213086.42216666776,
      "d": 2423.46583333335,
      "v": 110
    },
    {
      "midi": 57,
      "hit": false,
      "t": 213089.6109375011,
      "d": 2423.46583333335,
      "v": 111
    },
    {
      "midi": 53,
      "hit": false,
      "t": 215493.94414583445,
      "d": 1785.7116666666698,
      "v": 111
    },
    {
      "midi": 58,
      "hit": false,
      "t": 215493.94414583445,
      "d": 1785.7116666666698,
      "v": 110
    },
    {
      "midi": 48,
      "hit": false,
      "t": 215497.1329166678,
      "d": 1785.7116666666698,
      "v": 111
    },
    {
      "midi": 62,
      "hit": false,
      "t": 215497.1329166678,
      "d": 1785.7116666666698,
      "v": 110
    },
    {
      "midi": 53,
      "hit": false,
      "t": 215532.20939583445,
      "d": 1785.7116666666698,
      "v": 111
    },
    {
      "midi": 58,
      "hit": false,
      "t": 215532.20939583445,
      "d": 1785.7116666666698,
      "v": 110
    },
    {
      "midi": 48,
      "hit": false,
      "t": 215535.3981666678,
      "d": 1785.7116666666698,
      "v": 111
    },
    {
      "midi": 62,
      "hit": false,
      "t": 215535.3981666678,
      "d": 1785.7116666666698,
      "v": 110
    },
    {
      "midi": 58,
      "hit": false,
      "t": 217333.86491666778,
      "d": 280.61183333332883,
      "v": 111
    },
    {
      "midi": 48,
      "hit": false,
      "t": 217333.86491666778,
      "d": 586.7338333333319,
      "v": 110
    },
    {
      "midi": 62,
      "hit": false,
      "t": 217333.86491666778,
      "d": 586.7338333333319,
      "v": 111
    },
    {
      "midi": 53,
      "hit": false,
      "t": 217337.05368750112,
      "d": 280.61183333332883,
      "v": 110
    },
    {
      "midi": 58,
      "hit": false,
      "t": 217372.13016666778,
      "d": 280.61183333332883,
      "v": 111
    },
    {
      "midi": 48,
      "hit": false,
      "t": 217372.13016666778,
      "d": 586.7338333333319,
      "v": 110
    },
    {
      "midi": 62,
      "hit": false,
      "t": 217372.13016666778,
      "d": 586.7338333333319,
      "v": 111
    },
    {
      "midi": 53,
      "hit": false,
      "t": 217375.3189375011,
      "d": 280.61183333332883,
      "v": 110
    },
    {
      "midi": 58,
      "hit": false,
      "t": 217636.79814583444,
      "d": 280.61183333332883,
      "v": 110
    },
    {
      "midi": 65,
      "hit": false,
      "t": 217636.79814583444,
      "d": 280.61183333332883,
      "v": 111
    },
    {
      "midi": 58,
      "hit": false,
      "t": 217675.06339583444,
      "d": 280.61183333332883,
      "v": 110
    },
    {
      "midi": 65,
      "hit": false,
      "t": 217675.06339583444,
      "d": 280.61183333332883,
      "v": 111
    },
    {
      "midi": 65,
      "hit": false,
      "t": 217942.92014583445,
      "d": 2423.46583333335,
      "v": 111
    },
    {
      "midi": 57,
      "hit": false,
      "t": 217946.10891666778,
      "d": 2423.46583333335,
      "v": 110
    },
    {
      "midi": 60,
      "hit": false,
      "t": 217946.10891666778,
      "d": 2423.46583333335,
      "v": 110
    },
    {
      "midi": 53,
      "hit": false,
      "t": 217949.29768750112,
      "d": 2423.46583333335,
      "v": 111
    },
    {
      "midi": 65,
      "hit": false,
      "t": 217981.18539583444,
      "d": 2423.46583333335,
      "v": 111
    },
    {
      "midi": 57,
      "hit": false,
      "t": 217984.37416666778,
      "d": 2423.46583333335,
      "v": 110
    },
    {
      "midi": 60,
      "hit": false,
      "t": 217984.37416666778,
      "d": 2423.46583333335,
      "v": 110
    },
    {
      "midi": 53,
      "hit": false,
      "t": 217987.56293750112,
      "d": 2423.46583333335,
      "v": 111
    },
    {
      "midi": 60,
      "hit": false,
      "t": 220388.70737500113,
      "d": 2423.46583333335,
      "v": 110
    },
    {
      "midi": 45,
      "hit": false,
      "t": 220391.89614583447,
      "d": 2423.46583333335,
      "v": 111
    },
    {
      "midi": 55,
      "hit": false,
      "t": 220395.0849166678,
      "d": 2423.46583333335,
      "v": 111
    },
    {
      "midi": 64,
      "hit": false,
      "t": 220395.0849166678,
      "d": 2423.46583333335,
      "v": 110
    },
    {
      "midi": 60,
      "hit": false,
      "t": 220426.97262500113,
      "d": 2423.46583333335,
      "v": 110
    },
    {
      "midi": 45,
      "hit": false,
      "t": 220430.16139583447,
      "d": 2423.46583333335,
      "v": 111
    },
    {
      "midi": 55,
      "hit": false,
      "t": 220433.3501666678,
      "d": 2423.46583333335,
      "v": 111
    },
    {
      "midi": 64,
      "hit": false,
      "t": 220433.3501666678,
      "d": 2423.46583333335,
      "v": 110
    },
    {
      "midi": 46,
      "hit": false,
      "t": 222840.8721458345,
      "d": 2423.46583333335,
      "v": 111
    },
    {
      "midi": 53,
      "hit": false,
      "t": 222844.06091666783,
      "d": 2423.46583333335,
      "v": 110
    },
    {
      "midi": 57,
      "hit": false,
      "t": 222844.06091666783,
      "d": 2423.46583333335,
      "v": 110
    },
    {
      "midi": 62,
      "hit": false,
      "t": 222844.06091666783,
      "d": 2423.46583333335,
      "v": 111
    },
    {
      "midi": 46,
      "hit": false,
      "t": 222879.1373958345,
      "d": 2423.46583333335,
      "v": 111
    },
    {
      "midi": 53,
      "hit": false,
      "t": 222882.32616666783,
      "d": 2423.46583333335,
      "v": 110
    },
    {
      "midi": 57,
      "hit": false,
      "t": 222882.32616666783,
      "d": 2423.46583333335,
      "v": 110
    },
    {
      "midi": 62,
      "hit": false,
      "t": 222882.32616666783,
      "d": 2423.46583333335,
      "v": 111
    },
    {
      "midi": 48,
      "hit": false,
      "t": 225286.65937500118,
      "d": 1505.099833333341,
      "v": 111
    },
    {
      "midi": 58,
      "hit": false,
      "t": 225289.84814583452,
      "d": 1505.099833333341,
      "v": 110
    },
    {
      "midi": 62,
      "hit": false,
      "t": 225289.84814583452,
      "d": 1505.099833333341,
      "v": 110
    },
    {
      "midi": 53,
      "hit": false,
      "t": 225293.03691666786,
      "d": 1505.099833333341,
      "v": 111
    },
    {
      "midi": 48,
      "hit": false,
      "t": 225324.92462500118,
      "d": 1505.099833333341,
      "v": 111
    },
    {
      "midi": 58,
      "hit": false,
      "t": 225328.11339583452,
      "d": 1505.099833333341,
      "v": 110
    },
    {
      "midi": 62,
      "hit": false,
      "t": 225328.11339583452,
      "d": 1505.099833333341,
      "v": 110
    },
    {
      "midi": 53,
      "hit": false,
      "t": 225331.30216666785,
      "d": 1505.099833333341,
      "v": 111
    },
    {
      "midi": 62,
      "hit": false,
      "t": 226820.45814583453,
      "d": 561.2236666666868,
      "v": 111
    },
    {
      "midi": 65,
      "hit": false,
      "t": 226820.45814583453,
      "d": 561.2236666666868,
      "v": 110
    },
    {
      "midi": 58,
      "hit": false,
      "t": 226823.64691666787,
      "d": 561.2236666666868,
      "v": 110
    },
    {
      "midi": 69,
      "hit": false,
      "t": 226823.64691666787,
      "d": 561.2236666666868,
      "v": 111
    },
    {
      "midi": 48,
      "hit": false,
      "t": 226826.8356875012,
      "d": 892.855833333364,
      "v": 110
    },
    {
      "midi": 62,
      "hit": false,
      "t": 226858.72339583453,
      "d": 561.2236666666868,
      "v": 111
    },
    {
      "midi": 65,
      "hit": false,
      "t": 226858.72339583453,
      "d": 561.2236666666868,
      "v": 110
    },
    {
      "midi": 58,
      "hit": false,
      "t": 226861.91216666787,
      "d": 561.2236666666868,
      "v": 110
    },
    {
      "midi": 69,
      "hit": false,
      "t": 226861.91216666787,
      "d": 561.2236666666868,
      "v": 111
    },
    {
      "midi": 48,
      "hit": false,
      "t": 226865.1009375012,
      "d": 892.855833333364,
      "v": 110
    },
    {
      "midi": 58,
      "hit": false,
      "t": 227432.70214583457,
      "d": 280.61183333332883,
      "v": 111
    },
    {
      "midi": 62,
      "hit": false,
      "t": 227435.8909166679,
      "d": 280.61183333332883,
      "v": 111
    },
    {
      "midi": 65,
      "hit": false,
      "t": 227435.8909166679,
      "d": 280.61183333332883,
      "v": 110
    },
    {
      "midi": 69,
      "hit": false,
      "t": 227435.8909166679,
      "d": 280.61183333332883,
      "v": 111
    },
    {
      "midi": 58,
      "hit": false,
      "t": 227470.96739583457,
      "d": 280.61183333332883,
      "v": 111
    },
    {
      "midi": 62,
      "hit": false,
      "t": 227474.1561666679,
      "d": 280.61183333332883,
      "v": 111
    },
    {
      "midi": 65,
      "hit": false,
      "t": 227474.1561666679,
      "d": 280.61183333332883,
      "v": 110
    },
    {
      "midi": 69,
      "hit": false,
      "t": 227474.1561666679,
      "d": 280.61183333332883,
      "v": 111
    }
  ]
}