{
  "jsonPath": "Unknown/Unknown/Sweet/love-is-like-oxygen.json",
  "path": "Unknown\\Unknown\\Sweet\\Love Is Like Oxygen.mid",
  "name": "Love Is Like Oxygen",
  "difficulty": "Advanced",
  "bpm": 105.99995053335641,
  "notes": [
    {
      "midi": 52,
      "hit": false,
      "t": 73981.35280000001,
      "d": 2135.5152999999846,
      "v": 79
    },
    {
      "midi": 57,
      "hit": false,
      "t": 73995.37150000001,
      "d": 1948.5992999999871,
      "v": 79
    },
    {
      "midi": 84,
      "hit": false,
      "t": 74009.3902,
      "d": 1018.692200000005,
      "v": 87
    },
    {
      "midi": 60,
      "hit": false,
      "t": 74018.736,
      "d": 1799.0665000000008,
      "v": 82
    },
    {
      "midi": 69,
      "hit": false,
      "t": 74056.1192,
      "d": 1799.0665000000008,
      "v": 78
    },
    {
      "midi": 79,
      "hit": false,
      "t": 75668.2697,
      "d": 79.43929999999818,
      "v": 96
    },
    {
      "midi": 81,
      "hit": false,
      "t": 75705.6529,
      "d": 369.1591000000044,
      "v": 96
    },
    {
      "midi": 55,
      "hit": false,
      "t": 76205.65319999999,
      "d": 2172.8984999999957,
      "v": 63
    },
    {
      "midi": 59,
      "hit": false,
      "t": 76247.70929999999,
      "d": 2135.515299999999,
      "v": 66
    },
    {
      "midi": 83,
      "hit": false,
      "t": 76261.728,
      "d": 640.187300000005,
      "v": 96
    },
    {
      "midi": 62,
      "hit": false,
      "t": 76275.74669999999,
      "d": 2107.477899999998,
      "v": 72
    },
    {
      "midi": 67,
      "hit": false,
      "t": 76285.09249999998,
      "d": 1799.0665000000008,
      "v": 70
    },
    {
      "midi": 74,
      "hit": false,
      "t": 76308.45699999998,
      "d": 1799.0665000000008,
      "v": 64
    },
    {
      "midi": 79,
      "hit": false,
      "t": 77378.55110000001,
      "d": 528.0377000000008,
      "v": 96
    },
    {
      "midi": 81,
      "hit": false,
      "t": 77929.95330000001,
      "d": 528.0377000000008,
      "v": 96
    },
    {
      "midi": 53,
      "hit": false,
      "t": 78434.62649999998,
      "d": 2107.4778999999835,
      "v": 66
    },
    {
      "midi": 57,
      "hit": false,
      "t": 78476.68259999999,
      "d": 2107.4778999999835,
      "v": 68
    },
    {
      "midi": 60,
      "hit": false,
      "t": 78504.71999999999,
      "d": 2107.4778999999835,
      "v": 83
    },
    {
      "midi": 81,
      "hit": false,
      "t": 78514.06579999998,
      "d": 841.1219999999885,
      "v": 64
    },
    {
      "midi": 81,
      "hit": false,
      "t": 78514.06580000001,
      "d": 738.3181999999942,
      "v": 53
    },
    {
      "midi": 76,
      "hit": false,
      "t": 78794.43979999998,
      "d": 785.0471999999863,
      "v": 49
    },
    {
      "midi": 72,
      "hit": false,
      "t": 79065.46799999998,
      "d": 803.7387999999919,
      "v": 49
    },
    {
      "midi": 69,
      "hit": false,
      "t": 79345.84199999998,
      "d": 1238.318499999994,
      "v": 49
    },
    {
      "midi": 93,
      "hit": false,
      "t": 80163.59950000001,
      "d": 79.43929999999818,
      "v": 79
    },
    {
      "midi": 94,
      "hit": false,
      "t": 80205.65560000001,
      "d": 271.02820000000065,
      "v": 79
    },
    {
      "midi": 57,
      "hit": false,
      "t": 80686.96429999996,
      "d": 1742.9917000000132,
      "v": 54
    },
    {
      "midi": 62,
      "hit": false,
      "t": 80700.98299999996,
      "d": 1355.1410000000178,
      "v": 62
    },
    {
      "midi": 81,
      "hit": false,
      "t": 80747.71199999997,
      "d": 1238.3185000000085,
      "v": 64
    },
    {
      "midi": 86,
      "hit": false,
      "t": 80747.71200000001,
      "d": 1112.1502000000037,
      "v": 79
    },
    {
      "midi": 66,
      "hit": false,
      "t": 80757.05779999997,
      "d": 1112.1502000000182,
      "v": 72
    },
    {
      "midi": 78,
      "hit": false,
      "t": 81004.72149999997,
      "d": 1238.3185000000085,
      "v": 51
    },
    {
      "midi": 74,
      "hit": false,
      "t": 81308.45999999998,
      "d": 1238.318499999994,
      "v": 50
    },
    {
      "midi": 69,
      "hit": false,
      "t": 81542.10499999998,
      "d": 1238.318499999994,
      "v": 41
    },
    {
      "midi": 66,
      "hit": false,
      "t": 81878.55379999998,
      "d": 1098.1314999999886,
      "v": 43
    },
    {
      "midi": 62,
      "hit": false,
      "t": 82126.21749999998,
      "d": 864.4864999999845,
      "v": 44
    },
    {
      "midi": 57,
      "hit": false,
      "t": 82429.95599999998,
      "d": 523.3647999999957,
      "v": 44
    },
    {
      "midi": 93,
      "hit": false,
      "t": 82429.95600000002,
      "d": 570.0938000000024,
      "v": 79
    },
    {
      "midi": 52,
      "hit": false,
      "t": 82953.32079999997,
      "d": 2135.5153000000137,
      "v": 52
    },
    {
      "midi": 57,
      "hit": false,
      "t": 82967.33949999997,
      "d": 1948.5993000000017,
      "v": 58
    },
    {
      "midi": 84,
      "hit": false,
      "t": 83000.04980000002,
      "d": 570.0938000000024,
      "v": 79
    },
    {
      "midi": 60,
      "hit": false,
      "t": 83271.07799999996,
      "d": 1799.0665000000154,
      "v": 62
    },
    {
      "midi": 64,
      "hit": false,
      "t": 83560.79779999997,
      "d": 1658.87950000001,
      "v": 62
    },
    {
      "midi": 69,
      "hit": false,
      "t": 83831.82599999997,
      "d": 1425.234500000006,
      "v": 47
    },
    {
      "midi": 76,
      "hit": false,
      "t": 83864.53629999998,
      "d": 1392.5241999999998,
      "v": 47
    },
    {
      "midi": 81,
      "hit": false,
      "t": 84682.29380000003,
      "d": 570.0938000000024,
      "v": 80
    },
    {
      "midi": 55,
      "hit": false,
      "t": 85177.62119999998,
      "d": 2172.898499999981,
      "v": 63
    },
    {
      "midi": 59,
      "hit": false,
      "t": 85219.67729999998,
      "d": 2135.5152999999846,
      "v": 66
    },
    {
      "midi": 67,
      "hit": false,
      "t": 85233.69599999998,
      "d": 2107.4778999999835,
      "v": 55
    },
    {
      "midi": 83,
      "hit": false,
      "t": 85243.04180000004,
      "d": 570.0938000000024,
      "v": 80
    },
    {
      "midi": 62,
      "hit": false,
      "t": 85247.71469999998,
      "d": 2107.4778999999835,
      "v": 72
    },
    {
      "midi": 71,
      "hit": false,
      "t": 85523.41579999997,
      "d": 1976.6366999999882,
      "v": 57
    },
    {
      "midi": 74,
      "hit": false,
      "t": 85803.78979999997,
      "d": 1672.898199999996,
      "v": 55
    },
    {
      "midi": 93,
      "hit": false,
      "t": 86915.94000000003,
      "d": 570.0938000000024,
      "v": 80
    },
    {
      "midi": 53,
      "hit": false,
      "t": 87406.59449999996,
      "d": 2107.477899999998,
      "v": 66
    },
    {
      "midi": 57,
      "hit": false,
      "t": 87448.65059999996,
      "d": 2107.477899999998,
      "v": 68
    },
    {
      "midi": 60,
      "hit": false,
      "t": 87476.68799999997,
      "d": 2107.477899999998,
      "v": 83
    },
    {
      "midi": 81,
      "hit": false,
      "t": 87486.03380000003,
      "d": 700.9349999999977,
      "v": 80
    },
    {
      "midi": 64,
      "hit": false,
      "t": 87490.70669999997,
      "d": 855.140699999989,
      "v": 47
    },
    {
      "midi": 69,
      "hit": false,
      "t": 87766.40779999996,
      "d": 855.1407000000036,
      "v": 47
    },
    {
      "midi": 72,
      "hit": false,
      "t": 88037.43599999996,
      "d": 855.1407000000036,
      "v": 49
    },
    {
      "midi": 76,
      "hit": false,
      "t": 88303.79129999995,
      "d": 855.1407000000036,
      "v": 49
    },
    {
      "midi": 93,
      "hit": false,
      "t": 89158.93200000003,
      "d": 570.0938000000024,
      "v": 77
    },
    {
      "midi": 57,
      "hit": false,
      "t": 89658.93229999996,
      "d": 2135.515300000028,
      "v": 54
    },
    {
      "midi": 62,
      "hit": false,
      "t": 89672.95099999996,
      "d": 2135.515300000028,
      "v": 62
    },
    {
      "midi": 81,
      "hit": false,
      "t": 89719.68000000004,
      "d": 570.0938000000024,
      "v": 77
    },
    {
      "midi": 66,
      "hit": false,
      "t": 89729.02579999996,
      "d": 1869.160000000018,
      "v": 72
    },
    {
      "midi": 90,
      "hit": false,
      "t": 89733.69869999996,
      "d": 677.5705000000016,
      "v": 32
    },
    {
      "midi": 86,
      "hit": false,
      "t": 90009.39979999997,
      "d": 677.5705000000016,
      "v": 30
    },
    {
      "midi": 81,
      "hit": false,
      "t": 90280.42799999997,
      "d": 677.5705000000016,
      "v": 29
    },
    {
      "midi": 78,
      "hit": false,
      "t": 90546.78329999997,
      "d": 677.5705000000162,
      "v": 30
    },
    {
      "midi": 76,
      "hit": false,
      "t": 90827.15729999998,
      "d": 677.5705000000016,
      "v": 28
    },
    {
      "midi": 74,
      "hit": false,
      "t": 91098.18549999998,
      "d": 677.5705000000016,
      "v": 29
    },
    {
      "midi": 69,
      "hit": false,
      "t": 91401.92399999998,
      "d": 500.0002999999997,
      "v": 28
    },
    {
      "midi": 66,
      "hit": false,
      "t": 91696.31669999998,
      "d": 313.08430000000226,
      "v": 27
    },
    {
      "midi": 57,
      "hit": false,
      "t": 91962.67200000004,
      "d": 2242.9919999999984,
      "v": 127
    },
    {
      "midi": 62,
      "hit": false,
      "t": 91962.67200000004,
      "d": 2242.9919999999984,
      "v": 127
    },
    {
      "midi": 65,
      "hit": false,
      "t": 91962.67200000004,
      "d": 2242.9919999999984,
      "v": 127
    },
    {
      "midi": 60,
      "hit": false,
      "t": 94205.66400000003,
      "d": 2242.9919999999984,
      "v": 127
    },
    {
      "midi": 67,
      "hit": false,
      "t": 94205.66400000003,
      "d": 2242.9919999999984,
      "v": 127
    },
    {
      "midi": 72,
      "hit": false,
      "t": 94205.66400000003,
      "d": 2242.9919999999984,
      "v": 127
    },
    {
      "midi": 57,
      "hit": false,
      "t": 96448.65600000003,
      "d": 1121.4959999999992,
      "v": 127
    },
    {
      "midi": 65,
      "hit": false,
      "t": 96448.65600000003,
      "d": 1121.4959999999992,
      "v": 127
    },
    {
      "midi": 69,
      "hit": false,
      "t": 96448.65600000003,
      "d": 1121.4959999999992,
      "v": 127
    },
    {
      "midi": 65,
      "hit": false,
      "t": 97570.15200000003,
      "d": 1121.4959999999992,
      "v": 127
    },
    {
      "midi": 72,
      "hit": false,
      "t": 97570.15200000003,
      "d": 1121.4959999999992,
      "v": 127
    },
    {
      "midi": 64,
      "hit": false,
      "t": 98691.64800000003,
      "d": 1121.4959999999992,
      "v": 127
    },
    {
      "midi": 60,
      "hit": false,
      "t": 98691.64800000003,
      "d": 2242.992000000013,
      "v": 127
    },
    {
      "midi": 64,
      "hit": false,
      "t": 99813.14400000003,
      "d": 560.7480000000069,
      "v": 127
    },
    {
      "midi": 67,
      "hit": false,
      "t": 100373.89200000004,
      "d": 560.7480000000069,
      "v": 127
    },
    {
      "midi": 53,
      "hit": false,
      "t": 100934.64000000004,
      "d": 2242.9919999999984,
      "v": 127
    },
    {
      "midi": 62,
      "hit": false,
      "t": 100934.64000000004,
      "d": 2242.9919999999984,
      "v": 127
    },
    {
      "midi": 65,
      "hit": false,
      "t": 100934.64000000004,
      "d": 2242.9919999999984,
      "v": 127
    },
    {
      "midi": 84,
      "hit": false,
      "t": 103177.63200000004,
      "d": 1682.244000000006,
      "v": 127
    },
    {
      "midi": 60,
      "hit": false,
      "t": 103177.63200000004,
      "d": 2242.992000000013,
      "v": 127
    },
    {
      "midi": 67,
      "hit": false,
      "t": 103177.63200000004,
      "d": 2242.992000000013,
      "v": 127
    },
    {
      "midi": 83,
      "hit": false,
      "t": 104859.87600000005,
      "d": 560.7480000000069,
      "v": 127
    },
    {
      "midi": 57,
      "hit": false,
      "t": 105420.62400000005,
      "d": 1121.4959999999992,
      "v": 127
    },
    {
      "midi": 60,
      "hit": false,
      "t": 105420.62400000005,
      "d": 1121.4959999999992,
      "v": 127
    },
    {
      "midi": 65,
      "hit": false,
      "t": 105420.62400000005,
      "d": 1121.4959999999992,
      "v": 127
    },
    {
      "midi": 81,
      "hit": false,
      "t": 105420.62400000005,
      "d": 1121.4959999999992,
      "v": 127
    },
    {
      "midi": 60,
      "hit": false,
      "t": 106542.12000000005,
      "d": 1121.4959999999992,
      "v": 127
    },
    {
      "midi": 69,
      "hit": false,
      "t": 106542.12000000005,
      "d": 1121.4959999999992,
      "v": 127
    },
    {
      "midi": 72,
      "hit": false,
      "t": 106542.12000000005,
      "d": 1121.4959999999992,
      "v": 127
    },
    {
      "midi": 65,
      "hit": false,
      "t": 107663.61600000005,
      "d": 163.5515000000014,
      "v": 96
    },
    {
      "midi": 62,
      "hit": false,
      "t": 107663.61600000005,
      "d": 186.91599999999744,
      "v": 96
    },
    {
      "midi": 70,
      "hit": false,
      "t": 107663.61600000005,
      "d": 196.26179999999295,
      "v": 96
    },
    {
      "midi": 62,
      "hit": false,
      "t": 107943.99000000005,
      "d": 98.13090000000375,
      "v": 102
    },
    {
      "midi": 70,
      "hit": false,
      "t": 107943.99000000005,
      "d": 112.14960000000428,
      "v": 102
    },
    {
      "midi": 65,
      "hit": false,
      "t": 107943.99000000005,
      "d": 116.82250000000931,
      "v": 102
    },
    {
      "midi": 70,
      "hit": false,
      "t": 108224.36400000006,
      "d": 84.11220000000321,
      "v": 105
    },
    {
      "midi": 62,
      "hit": false,
      "t": 108224.36400000006,
      "d": 102.80380000000878,
      "v": 105
    },
    {
      "midi": 65,
      "hit": false,
      "t": 108224.36400000006,
      "d": 116.82250000000931,
      "v": 105
    },
    {
      "midi": 62,
      "hit": false,
      "t": 108504.73800000007,
      "d": 140.18700000000536,
      "v": 107
    },
    {
      "midi": 65,
      "hit": false,
      "t": 108504.73800000007,
      "d": 149.53280000000086,
      "v": 107
    },
    {
      "midi": 70,
      "hit": false,
      "t": 108504.73800000007,
      "d": 163.5515000000014,
      "v": 107
    },
    {
      "midi": 70,
      "hit": false,
      "t": 108785.11200000007,
      "d": 79.43929999999818,
      "v": 107
    },
    {
      "midi": 62,
      "hit": false,
      "t": 108785.11200000007,
      "d": 88.78509999999369,
      "v": 107
    },
    {
      "midi": 65,
      "hit": false,
      "t": 108785.11200000007,
      "d": 116.82249999999476,
      "v": 107
    },
    {
      "midi": 62,
      "hit": false,
      "t": 109065.48600000006,
      "d": 74.76639999999315,
      "v": 108
    },
    {
      "midi": 70,
      "hit": false,
      "t": 109065.48600000006,
      "d": 88.78509999999369,
      "v": 108
    },
    {
      "midi": 65,
      "hit": false,
      "t": 109065.48600000006,
      "d": 116.82249999999476,
      "v": 108
    },
    {
      "midi": 62,
      "hit": false,
      "t": 109345.86000000006,
      "d": 74.76639999999315,
      "v": 108
    },
    {
      "midi": 70,
      "hit": false,
      "t": 109345.86000000006,
      "d": 84.11219999998866,
      "v": 108
    },
    {
      "midi": 65,
      "hit": false,
      "t": 109345.86000000006,
      "d": 116.82249999999476,
      "v": 108
    },
    {
      "midi": 62,
      "hit": false,
      "t": 109626.23400000005,
      "d": 74.76639999999315,
      "v": 108
    },
    {
      "midi": 70,
      "hit": false,
      "t": 109626.23400000005,
      "d": 88.78509999999369,
      "v": 108
    },
    {
      "midi": 65,
      "hit": false,
      "t": 109626.23400000005,
      "d": 116.82249999999476,
      "v": 108
    },
    {
      "midi": 71,
      "hit": false,
      "t": 109906.60800000005,
      "d": 79.43929999999818,
      "v": 127
    },
    {
      "midi": 64,
      "hit": false,
      "t": 109906.60800000005,
      "d": 88.78509999999369,
      "v": 127
    },
    {
      "midi": 76,
      "hit": false,
      "t": 109906.60800000005,
      "d": 116.82249999999476,
      "v": 127
    },
    {
      "midi": 88,
      "hit": false,
      "t": 109906.60800000005,
      "d": 116.82249999999476,
      "v": 127
    },
    {
      "midi": 83,
      "hit": false,
      "t": 110186.98200000005,
      "d": 116.82249999999476,
      "v": 127
    },
    {
      "midi": 64,
      "hit": false,
      "t": 110186.98200000005,
      "d": 140.1869999999908,
      "v": 110
    },
    {
      "midi": 71,
      "hit": false,
      "t": 110186.98200000005,
      "d": 140.1869999999908,
      "v": 110
    },
    {
      "midi": 76,
      "hit": false,
      "t": 110186.98200000005,
      "d": 140.1869999999908,
      "v": 53
    },
    {
      "midi": 64,
      "hit": false,
      "t": 110467.35600000004,
      "d": 93.45799999999872,
      "v": 110
    },
    {
      "midi": 71,
      "hit": false,
      "t": 110467.35600000004,
      "d": 140.18700000000536,
      "v": 110
    },
    {
      "midi": 76,
      "hit": false,
      "t": 110467.35600000004,
      "d": 280.3740000000107,
      "v": 53
    },
    {
      "midi": 64,
      "hit": false,
      "t": 110747.73000000005,
      "d": 65.42059999999765,
      "v": 108
    },
    {
      "midi": 76,
      "hit": false,
      "t": 110747.73000000005,
      "d": 116.82249999999476,
      "v": 53
    },
    {
      "midi": 71,
      "hit": false,
      "t": 110747.73000000005,
      "d": 280.37399999999616,
      "v": 108
    },
    {
      "midi": 71,
      "hit": false,
      "t": 111028.10400000005,
      "d": 79.43929999999818,
      "v": 106
    },
    {
      "midi": 76,
      "hit": false,
      "t": 111028.10400000005,
      "d": 116.82249999999476,
      "v": 53
    },
    {
      "midi": 64,
      "hit": false,
      "t": 111028.10400000005,
      "d": 280.37399999999616,
      "v": 106
    },
    {
      "midi": 64,
      "hit": false,
      "t": 111308.47800000005,
      "d": 60.74770000000717,
      "v": 106
    },
    {
      "midi": 76,
      "hit": false,
      "t": 111308.47800000005,
      "d": 116.82250000000931,
      "v": 53
    },
    {
      "midi": 71,
      "hit": false,
      "t": 111308.47800000005,
      "d": 280.3740000000107,
      "v": 106
    },
    {
      "midi": 64,
      "hit": false,
      "t": 111588.85200000006,
      "d": 70.09350000000268,
      "v": 106
    },
    {
      "midi": 71,
      "hit": false,
      "t": 111588.85200000006,
      "d": 74.7664000000077,
      "v": 106
    },
    {
      "midi": 76,
      "hit": false,
      "t": 111588.85200000006,
      "d": 280.3740000000107,
      "v": 53
    },
    {
      "midi": 64,
      "hit": false,
      "t": 111869.22600000007,
      "d": 42.05610000000161,
      "v": 106
    },
    {
      "midi": 76,
      "hit": false,
      "t": 111869.22600000007,
      "d": 116.82249999999476,
      "v": 53
    },
    {
      "midi": 71,
      "hit": false,
      "t": 111869.22600000007,
      "d": 280.37399999999616,
      "v": 106
    },
    {
      "midi": 52,
      "hit": false,
      "t": 112149.60000000006,
      "d": 107.47669999999925,
      "v": 127
    },
    {
      "midi": 64,
      "hit": false,
      "t": 112149.60000000006,
      "d": 107.47669999999925,
      "v": 127
    },
    {
      "midi": 72,
      "hit": false,
      "t": 112149.60000000006,
      "d": 112.14960000000428,
      "v": 104
    },
    {
      "midi": 64,
      "hit": false,
      "t": 112429.97400000007,
      "d": 88.78509999999369,
      "v": 127
    },
    {
      "midi": 52,
      "hit": false,
      "t": 112429.97400000007,
      "d": 107.47669999999925,
      "v": 127
    },
    {
      "midi": 72,
      "hit": false,
      "t": 112429.97400000007,
      "d": 112.14960000000428,
      "v": 104
    },
    {
      "midi": 64,
      "hit": false,
      "t": 112710.34800000009,
      "d": 102.80379999999423,
      "v": 127
    },
    {
      "midi": 52,
      "hit": false,
      "t": 112710.34800000009,
      "d": 107.47669999999925,
      "v": 127
    },
    {
      "midi": 72,
      "hit": false,
      "t": 112710.34800000009,
      "d": 112.14960000000428,
      "v": 104
    },
    {
      "midi": 64,
      "hit": false,
      "t": 112990.7220000001,
      "d": 102.80379999999423,
      "v": 127
    },
    {
      "midi": 52,
      "hit": false,
      "t": 112990.7220000001,
      "d": 107.47669999999925,
      "v": 127
    },
    {
      "midi": 72,
      "hit": false,
      "t": 112990.7220000001,
      "d": 112.14960000000428,
      "v": 104
    },
    {
      "midi": 64,
      "hit": false,
      "t": 113271.0960000001,
      "d": 98.13090000000375,
      "v": 127
    },
    {
      "midi": 52,
      "hit": false,
      "t": 113271.0960000001,
      "d": 107.47669999999925,
      "v": 127
    },
    {
      "midi": 72,
      "hit": false,
      "t": 113271.0960000001,
      "d": 112.14960000000428,
      "v": 104
    },
    {
      "midi": 52,
      "hit": false,
      "t": 113551.47000000012,
      "d": 107.47669999999925,
      "v": 127
    },
    {
      "midi": 64,
      "hit": false,
      "t": 113551.47000000012,
      "d": 107.47669999999925,
      "v": 127
    },
    {
      "midi": 72,
      "hit": false,
      "t": 113551.47000000012,
      "d": 112.14960000000428,
      "v": 104
    },
    {
      "midi": 52,
      "hit": false,
      "t": 113831.84400000013,
      "d": 107.47669999999925,
      "v": 127
    },
    {
      "midi": 72,
      "hit": false,
      "t": 113831.84400000013,
      "d": 112.14960000000428,
      "v": 104
    },
    {
      "midi": 64,
      "hit": false,
      "t": 113831.84400000013,
      "d": 116.82250000000931,
      "v": 127
    },
    {
      "midi": 52,
      "hit": false,
      "t": 114112.21800000014,
      "d": 107.47669999999925,
      "v": 127
    },
    {
      "midi": 72,
      "hit": false,
      "t": 114112.21800000014,
      "d": 112.14960000000428,
      "v": 104
    },
    {
      "midi": 64,
      "hit": false,
      "t": 114112.21800000014,
      "d": 130.84120000000985,
      "v": 127
    },
    {
      "midi": 74,
      "hit": false,
      "t": 114392.59200000015,
      "d": 93.45799999999872,
      "v": 102
    },
    {
      "midi": 62,
      "hit": false,
      "t": 114392.59200000015,
      "d": 107.47669999999925,
      "v": 102
    },
    {
      "midi": 67,
      "hit": false,
      "t": 114392.59200000015,
      "d": 107.47669999999925,
      "v": 102
    },
    {
      "midi": 67,
      "hit": false,
      "t": 114672.96600000015,
      "d": 84.11220000000321,
      "v": 102
    },
    {
      "midi": 74,
      "hit": false,
      "t": 114672.96600000015,
      "d": 93.45799999999872,
      "v": 102
    },
    {
      "midi": 62,
      "hit": false,
      "t": 114672.96600000015,
      "d": 107.47669999999925,
      "v": 102
    },
    {
      "midi": 67,
      "hit": false,
      "t": 114953.34000000014,
      "d": 93.45799999999872,
      "v": 102
    },
    {
      "midi": 74,
      "hit": false,
      "t": 114953.34000000014,
      "d": 93.45799999999872,
      "v": 102
    },
    {
      "midi": 62,
      "hit": false,
      "t": 114953.34000000014,
      "d": 107.47669999999925,
      "v": 102
    },
    {
      "midi": 67,
      "hit": false,
      "t": 115233.71400000014,
      "d": 88.78509999999369,
      "v": 102
    },
    {
      "midi": 74,
      "hit": false,
      "t": 115233.71400000014,
      "d": 93.45799999999872,
      "v": 102
    },
    {
      "midi": 62,
      "hit": false,
      "t": 115233.71400000014,
      "d": 107.47669999999925,
      "v": 102
    },
    {
      "midi": 74,
      "hit": false,
      "t": 115514.08800000013,
      "d": 93.45799999999872,
      "v": 103
    },
    {
      "midi": 67,
      "hit": false,
      "t": 115514.08800000013,
      "d": 98.13090000000375,
      "v": 103
    },
    {
      "midi": 62,
      "hit": false,
      "t": 115514.08800000013,
      "d": 107.47669999999925,
      "v": 103
    },
    {
      "midi": 74,
      "hit": false,
      "t": 115794.46200000013,
      "d": 93.45799999999872,
      "v": 103
    },
    {
      "midi": 62,
      "hit": false,
      "t": 115794.46200000013,
      "d": 107.47669999999925,
      "v": 103
    },
    {
      "midi": 67,
      "hit": false,
      "t": 115794.46200000013,
      "d": 107.47669999999925,
      "v": 103
    },
    {
      "midi": 74,
      "hit": false,
      "t": 116074.83600000013,
      "d": 93.45799999999872,
      "v": 103
    },
    {
      "midi": 62,
      "hit": false,
      "t": 116074.83600000013,
      "d": 107.47669999999925,
      "v": 103
    },
    {
      "midi": 67,
      "hit": false,
      "t": 116074.83600000013,
      "d": 112.14960000000428,
      "v": 103
    },
    {
      "midi": 74,
      "hit": false,
      "t": 116355.21000000014,
      "d": 93.45799999999872,
      "v": 103
    },
    {
      "midi": 62,
      "hit": false,
      "t": 116355.21000000014,
      "d": 107.47669999999925,
      "v": 103
    },
    {
      "midi": 67,
      "hit": false,
      "t": 116355.21000000014,
      "d": 116.82249999999476,
      "v": 103
    },
    {
      "midi": 52,
      "hit": false,
      "t": 116635.58400000013,
      "d": 107.47669999999925,
      "v": 127
    },
    {
      "midi": 64,
      "hit": false,
      "t": 116635.58400000013,
      "d": 107.47669999999925,
      "v": 127
    },
    {
      "midi": 72,
      "hit": false,
      "t": 116635.58400000013,
      "d": 112.14960000000428,
      "v": 104
    },
    {
      "midi": 64,
      "hit": false,
      "t": 116915.95800000014,
      "d": 102.80379999999423,
      "v": 127
    },
    {
      "midi": 52,
      "hit": false,
      "t": 116915.95800000014,
      "d": 107.47669999999925,
      "v": 127
    },
    {
      "midi": 72,
      "hit": false,
      "t": 116915.95800000014,
      "d": 112.14960000000428,
      "v": 104
    },
    {
      "midi": 64,
      "hit": false,
      "t": 117196.33200000015,
      "d": 84.11220000000321,
      "v": 127
    },
    {
      "midi": 52,
      "hit": false,
      "t": 117196.33200000015,
      "d": 107.47669999999925,
      "v": 127
    },
    {
      "midi": 72,
      "hit": false,
      "t": 117196.33200000015,
      "d": 112.14960000000428,
      "v": 104
    },
    {
      "midi": 64,
      "hit": false,
      "t": 117476.70600000017,
      "d": 102.80379999999423,
      "v": 127
    },
    {
      "midi": 52,
      "hit": false,
      "t": 117476.70600000017,
      "d": 107.47669999999925,
      "v": 127
    },
    {
      "midi": 72,
      "hit": false,
      "t": 117476.70600000017,
      "d": 112.14960000000428,
      "v": 104
    },
    {
      "midi": 52,
      "hit": false,
      "t": 117757.08000000018,
      "d": 107.47669999999925,
      "v": 127
    },
    {
      "midi": 64,
      "hit": false,
      "t": 117757.08000000018,
      "d": 107.47669999999925,
      "v": 127
    },
    {
      "midi": 72,
      "hit": false,
      "t": 117757.08000000018,
      "d": 112.14960000000428,
      "v": 104
    },
    {
      "midi": 64,
      "hit": false,
      "t": 118037.45400000019,
      "d": 98.13090000000375,
      "v": 127
    },
    {
      "midi": 52,
      "hit": false,
      "t": 118037.45400000019,
      "d": 107.47669999999925,
      "v": 127
    },
    {
      "midi": 72,
      "hit": false,
      "t": 118037.45400000019,
      "d": 112.14960000000428,
      "v": 104
    },
    {
      "midi": 52,
      "hit": false,
      "t": 118317.8280000002,
      "d": 107.47669999999925,
      "v": 127
    },
    {
      "midi": 72,
      "hit": false,
      "t": 118317.8280000002,
      "d": 112.14960000000428,
      "v": 104
    },
    {
      "midi": 64,
      "hit": false,
      "t": 118317.8280000002,
      "d": 121.49539999999979,
      "v": 127
    },
    {
      "midi": 72,
      "hit": false,
      "t": 118598.2020000002,
      "d": 79.43929999999818,
      "v": 104
    },
    {
      "midi": 64,
      "hit": false,
      "t": 118598.2020000002,
      "d": 93.45799999999872,
      "v": 127
    },
    {
      "midi": 52,
      "hit": false,
      "t": 118598.2020000002,
      "d": 107.47669999999925,
      "v": 127
    },
    {
      "midi": 67,
      "hit": false,
      "t": 118878.57600000019,
      "d": 102.80379999999423,
      "v": 94
    },
    {
      "midi": 74,
      "hit": false,
      "t": 118878.57600000019,
      "d": 107.47669999999925,
      "v": 94
    },
    {
      "midi": 79,
      "hit": false,
      "t": 118878.57600000019,
      "d": 107.47669999999925,
      "v": 94
    },
    {
      "midi": 74,
      "hit": false,
      "t": 119158.95000000019,
      "d": 84.11220000000321,
      "v": 94
    },
    {
      "midi": 67,
      "hit": false,
      "t": 119158.95000000019,
      "d": 102.80380000000878,
      "v": 94
    },
    {
      "midi": 79,
      "hit": false,
      "t": 119158.95000000019,
      "d": 107.4767000000138,
      "v": 94
    },
    {
      "midi": 74,
      "hit": false,
      "t": 119439.3240000002,
      "d": 93.45799999999872,
      "v": 94
    },
    {
      "midi": 67,
      "hit": false,
      "t": 119439.3240000002,
      "d": 98.13090000000375,
      "v": 94
    },
    {
      "midi": 79,
      "hit": false,
      "t": 119439.3240000002,
      "d": 107.47669999999925,
      "v": 94
    },
    {
      "midi": 67,
      "hit": false,
      "t": 119719.6980000002,
      "d": 88.78509999999369,
      "v": 94
    },
    {
      "midi": 74,
      "hit": false,
      "t": 119719.6980000002,
      "d": 88.78509999999369,
      "v": 94
    },
    {
      "midi": 79,
      "hit": false,
      "t": 119719.6980000002,
      "d": 107.47669999999925,
      "v": 94
    },
    {
      "midi": 67,
      "hit": false,
      "t": 120000.07200000019,
      "d": 88.78509999999369,
      "v": 94
    },
    {
      "midi": 74,
      "hit": false,
      "t": 120000.07200000019,
      "d": 98.1308999999892,
      "v": 94
    },
    {
      "midi": 79,
      "hit": false,
      "t": 120000.07200000019,
      "d": 107.4766999999847,
      "v": 94
    },
    {
      "midi": 67,
      "hit": false,
      "t": 120280.44600000017,
      "d": 84.11220000000321,
      "v": 94
    },
    {
      "midi": 74,
      "hit": false,
      "t": 120280.44600000017,
      "d": 107.47669999999925,
      "v": 94
    },
    {
      "midi": 79,
      "hit": false,
      "t": 120280.44600000017,
      "d": 107.47669999999925,
      "v": 94
    },
    {
      "midi": 67,
      "hit": false,
      "t": 120560.82000000017,
      "d": 102.80379999999423,
      "v": 94
    },
    {
      "midi": 79,
      "hit": false,
      "t": 120560.82000000017,
      "d": 107.47669999999925,
      "v": 94
    },
    {
      "midi": 74,
      "hit": false,
      "t": 120560.82000000017,
      "d": 112.14960000000428,
      "v": 94
    },
    {
      "midi": 79,
      "hit": false,
      "t": 120841.19400000018,
      "d": 107.47669999999925,
      "v": 94
    },
    {
      "midi": 67,
      "hit": false,
      "t": 120841.19400000018,
      "d": 112.14960000000428,
      "v": 94
    },
    {
      "midi": 74,
      "hit": false,
      "t": 120841.19400000018,
      "d": 116.82250000000931,
      "v": 94
    },
    {
      "midi": 57,
      "hit": false,
      "t": 121121.56800000019,
      "d": 107.47669999999925,
      "v": 127
    },
    {
      "midi": 62,
      "hit": false,
      "t": 121121.56800000019,
      "d": 107.47669999999925,
      "v": 127
    },
    {
      "midi": 69,
      "hit": false,
      "t": 121121.56800000019,
      "d": 112.14960000000428,
      "v": 104
    },
    {
      "midi": 62,
      "hit": false,
      "t": 121401.9420000002,
      "d": 88.78509999999369,
      "v": 127
    },
    {
      "midi": 57,
      "hit": false,
      "t": 121401.9420000002,
      "d": 107.47669999999925,
      "v": 127
    },
    {
      "midi": 69,
      "hit": false,
      "t": 121401.9420000002,
      "d": 112.14960000000428,
      "v": 104
    },
    {
      "midi": 62,
      "hit": false,
      "t": 121682.31600000021,
      "d": 102.80379999999423,
      "v": 127
    },
    {
      "midi": 57,
      "hit": false,
      "t": 121682.31600000021,
      "d": 107.47669999999925,
      "v": 127
    },
    {
      "midi": 69,
      "hit": false,
      "t": 121682.31600000021,
      "d": 112.14960000000428,
      "v": 104
    },
    {
      "midi": 62,
      "hit": false,
      "t": 121962.69000000022,
      "d": 102.80379999999423,
      "v": 127
    },
    {
      "midi": 57,
      "hit": false,
      "t": 121962.69000000022,
      "d": 107.47669999999925,
      "v": 127
    },
    {
      "midi": 69,
      "hit": false,
      "t": 121962.69000000022,
      "d": 112.14960000000428,
      "v": 104
    },
    {
      "midi": 62,
      "hit": false,
      "t": 122243.06400000023,
      "d": 98.13090000000375,
      "v": 127
    },
    {
      "midi": 57,
      "hit": false,
      "t": 122243.06400000023,
      "d": 107.47669999999925,
      "v": 127
    },
    {
      "midi": 69,
      "hit": false,
      "t": 122243.06400000023,
      "d": 112.14960000000428,
      "v": 104
    },
    {
      "midi": 57,
      "hit": false,
      "t": 122523.43800000024,
      "d": 107.47669999999925,
      "v": 127
    },
    {
      "midi": 62,
      "hit": false,
      "t": 122523.43800000024,
      "d": 107.47669999999925,
      "v": 127
    },
    {
      "midi": 69,
      "hit": false,
      "t": 122523.43800000024,
      "d": 112.14960000000428,
      "v": 104
    },
    {
      "midi": 69,
      "hit": false,
      "t": 122803.81200000025,
      "d": 112.14960000000428,
      "v": 104
    },
    {
      "midi": 62,
      "hit": false,
      "t": 122803.81200000025,
      "d": 116.82250000000931,
      "v": 127
    },
    {
      "midi": 57,
      "hit": false,
      "t": 122803.81200000025,
      "d": 140.18700000000536,
      "v": 127
    },
    {
      "midi": 57,
      "hit": false,
      "t": 123084.18600000026,
      "d": 107.47669999999925,
      "v": 127
    },
    {
      "midi": 69,
      "hit": false,
      "t": 123084.18600000026,
      "d": 112.14960000000428,
      "v": 104
    },
    {
      "midi": 62,
      "hit": false,
      "t": 123084.18600000026,
      "d": 130.84120000000985,
      "v": 127
    },
    {
      "midi": 72,
      "hit": false,
      "t": 123364.56000000027,
      "d": 93.45799999999872,
      "v": 102
    },
    {
      "midi": 60,
      "hit": false,
      "t": 123364.56000000027,
      "d": 107.47669999999925,
      "v": 102
    },
    {
      "midi": 64,
      "hit": false,
      "t": 123364.56000000027,
      "d": 107.47669999999925,
      "v": 102
    },
    {
      "midi": 64,
      "hit": false,
      "t": 123644.93400000027,
      "d": 84.11220000000321,
      "v": 102
    },
    {
      "midi": 72,
      "hit": false,
      "t": 123644.93400000027,
      "d": 93.45799999999872,
      "v": 102
    },
    {
      "midi": 60,
      "hit": false,
      "t": 123644.93400000027,
      "d": 107.47669999999925,
      "v": 102
    },
    {
      "midi": 64,
      "hit": false,
      "t": 123925.30800000027,
      "d": 93.45799999999872,
      "v": 102
    },
    {
      "midi": 72,
      "hit": false,
      "t": 123925.30800000027,
      "d": 93.45799999999872,
      "v": 102
    },
    {
      "midi": 60,
      "hit": false,
      "t": 123925.30800000027,
      "d": 107.47669999999925,
      "v": 102
    },
    {
      "midi": 64,
      "hit": false,
      "t": 124205.68200000026,
      "d": 88.78509999999369,
      "v": 102
    },
    {
      "midi": 72,
      "hit": false,
      "t": 124205.68200000026,
      "d": 93.45799999999872,
      "v": 102
    },
    {
      "midi": 60,
      "hit": false,
      "t": 124205.68200000026,
      "d": 107.47669999999925,
      "v": 102
    },
    {
      "midi": 72,
      "hit": false,
      "t": 124486.05600000026,
      "d": 93.45799999999872,
      "v": 103
    },
    {
      "midi": 64,
      "hit": false,
      "t": 124486.05600000026,
      "d": 98.13090000000375,
      "v": 103
    },
    {
      "midi": 60,
      "hit": false,
      "t": 124486.05600000026,
      "d": 107.47669999999925,
      "v": 103
    },
    {
      "midi": 72,
      "hit": false,
      "t": 124766.43000000025,
      "d": 93.45799999999872,
      "v": 103
    },
    {
      "midi": 60,
      "hit": false,
      "t": 124766.43000000025,
      "d": 107.47669999999925,
      "v": 103
    },
    {
      "midi": 64,
      "hit": false,
      "t": 124766.43000000025,
      "d": 107.47669999999925,
      "v": 103
    },
    {
      "midi": 72,
      "hit": false,
      "t": 125046.80400000025,
      "d": 93.45799999999872,
      "v": 103
    },
    {
      "midi": 60,
      "hit": false,
      "t": 125046.80400000025,
      "d": 107.47669999999925,
      "v": 103
    },
    {
      "midi": 64,
      "hit": false,
      "t": 125046.80400000025,
      "d": 112.14960000000428,
      "v": 103
    },
    {
      "midi": 72,
      "hit": false,
      "t": 125327.17800000026,
      "d": 93.45799999999872,
      "v": 103
    },
    {
      "midi": 60,
      "hit": false,
      "t": 125327.17800000026,
      "d": 107.47669999999925,
      "v": 103
    },
    {
      "midi": 64,
      "hit": false,
      "t": 125327.17800000026,
      "d": 116.82249999999476,
      "v": 103
    },
    {
      "midi": 77,
      "hit": false,
      "t": 125607.55200000026,
      "d": 93.45799999999872,
      "v": 102
    },
    {
      "midi": 65,
      "hit": false,
      "t": 125607.55200000026,
      "d": 107.47669999999925,
      "v": 102
    },
    {
      "midi": 69,
      "hit": false,
      "t": 125607.55200000026,
      "d": 107.47669999999925,
      "v": 102
    },
    {
      "midi": 69,
      "hit": false,
      "t": 125887.92600000025,
      "d": 70.09350000000268,
      "v": 102
    },
    {
      "midi": 65,
      "hit": false,
      "t": 125887.92600000025,
      "d": 102.80380000000878,
      "v": 102
    },
    {
      "midi": 77,
      "hit": false,
      "t": 125887.92600000025,
      "d": 112.14960000000428,
      "v": 102
    },
    {
      "midi": 65,
      "hit": false,
      "t": 126168.30000000026,
      "d": 84.11220000000321,
      "v": 102
    },
    {
      "midi": 69,
      "hit": false,
      "t": 126168.30000000026,
      "d": 107.47669999999925,
      "v": 102
    },
    {
      "midi": 77,
      "hit": false,
      "t": 126168.30000000026,
      "d": 112.14960000000428,
      "v": 102
    },
    {
      "midi": 65,
      "hit": false,
      "t": 126448.67400000028,
      "d": 102.80379999999423,
      "v": 102
    },
    {
      "midi": 69,
      "hit": false,
      "t": 126448.67400000028,
      "d": 107.47669999999925,
      "v": 102
    },
    {
      "midi": 77,
      "hit": false,
      "t": 126448.67400000028,
      "d": 112.14960000000428,
      "v": 102
    },
    {
      "midi": 65,
      "hit": false,
      "t": 126729.04800000029,
      "d": 107.47669999999925,
      "v": 102
    },
    {
      "midi": 69,
      "hit": false,
      "t": 126729.04800000029,
      "d": 107.47669999999925,
      "v": 102
    },
    {
      "midi": 77,
      "hit": false,
      "t": 126729.04800000029,
      "d": 112.14960000000428,
      "v": 102
    },
    {
      "midi": 69,
      "hit": false,
      "t": 127009.4220000003,
      "d": 107.47669999999925,
      "v": 102
    },
    {
      "midi": 77,
      "hit": false,
      "t": 127009.4220000003,
      "d": 112.14960000000428,
      "v": 102
    },
    {
      "midi": 65,
      "hit": false,
      "t": 127009.4220000003,
      "d": 140.18700000000536,
      "v": 102
    },
    {
      "midi": 69,
      "hit": false,
      "t": 127289.79600000031,
      "d": 107.47669999999925,
      "v": 103
    },
    {
      "midi": 77,
      "hit": false,
      "t": 127289.79600000031,
      "d": 112.14960000000428,
      "v": 103
    },
    {
      "midi": 65,
      "hit": false,
      "t": 127289.79600000031,
      "d": 121.49539999999979,
      "v": 103
    },
    {
      "midi": 77,
      "hit": false,
      "t": 127570.1700000003,
      "d": 79.43929999999818,
      "v": 103
    },
    {
      "midi": 65,
      "hit": false,
      "t": 127570.1700000003,
      "d": 93.45799999999872,
      "v": 103
    },
    {
      "midi": 69,
      "hit": false,
      "t": 127570.1700000003,
      "d": 107.47669999999925,
      "v": 103
    },
    {
      "midi": 62,
      "hit": false,
      "t": 127850.5440000003,
      "d": 93.45799999999872,
      "v": 103
    },
    {
      "midi": 66,
      "hit": false,
      "t": 127850.5440000003,
      "d": 93.45799999999872,
      "v": 103
    },
    {
      "midi": 74,
      "hit": false,
      "t": 127850.5440000003,
      "d": 93.45799999999872,
      "v": 103
    },
    {
      "midi": 62,
      "hit": false,
      "t": 128130.9180000003,
      "d": 93.45799999999872,
      "v": 103
    },
    {
      "midi": 66,
      "hit": false,
      "t": 128130.9180000003,
      "d": 93.45799999999872,
      "v": 103
    },
    {
      "midi": 74,
      "hit": false,
      "t": 128130.9180000003,
      "d": 93.45799999999872,
      "v": 103
    },
    {
      "midi": 62,
      "hit": false,
      "t": 128411.29200000029,
      "d": 93.45799999999872,
      "v": 103
    },
    {
      "midi": 66,
      "hit": false,
      "t": 128411.29200000029,
      "d": 93.45799999999872,
      "v": 103
    },
    {
      "midi": 74,
      "hit": false,
      "t": 128411.29200000029,
      "d": 93.45799999999872,
      "v": 103
    },
    {
      "midi": 62,
      "hit": false,
      "t": 128691.66600000029,
      "d": 93.45799999999872,
      "v": 103
    },
    {
      "midi": 66,
      "hit": false,
      "t": 128691.66600000029,
      "d": 93.45799999999872,
      "v": 104
    },
    {
      "midi": 74,
      "hit": false,
      "t": 128691.66600000029,
      "d": 93.45799999999872,
      "v": 104
    },
    {
      "midi": 68,
      "hit": false,
      "t": 128972.04000000028,
      "d": 93.45799999999872,
      "v": 104
    },
    {
      "midi": 76,
      "hit": false,
      "t": 128972.04000000028,
      "d": 93.45799999999872,
      "v": 104
    },
    {
      "midi": 68,
      "hit": false,
      "t": 129252.41400000028,
      "d": 93.45799999999872,
      "v": 104
    },
    {
      "midi": 76,
      "hit": false,
      "t": 129252.41400000028,
      "d": 93.45799999999872,
      "v": 104
    },
    {
      "midi": 68,
      "hit": false,
      "t": 129532.78800000028,
      "d": 93.45799999999872,
      "v": 104
    },
    {
      "midi": 76,
      "hit": false,
      "t": 129532.78800000028,
      "d": 93.45799999999872,
      "v": 104
    },
    {
      "midi": 68,
      "hit": false,
      "t": 129813.16200000027,
      "d": 93.45799999999872,
      "v": 104
    },
    {
      "midi": 76,
      "hit": false,
      "t": 129813.16200000027,
      "d": 93.45799999999872,
      "v": 104
    },
    {
      "midi": 52,
      "hit": false,
      "t": 130093.53600000027,
      "d": 107.47669999999925,
      "v": 127
    },
    {
      "midi": 64,
      "hit": false,
      "t": 130093.53600000027,
      "d": 107.47669999999925,
      "v": 127
    },
    {
      "midi": 72,
      "hit": false,
      "t": 130093.53600000027,
      "d": 112.14960000000428,
      "v": 104
    },
    {
      "midi": 64,
      "hit": false,
      "t": 130373.91000000028,
      "d": 88.78509999999369,
      "v": 127
    },
    {
      "midi": 52,
      "hit": false,
      "t": 130373.91000000028,
      "d": 107.47669999999925,
      "v": 127
    },
    {
      "midi": 72,
      "hit": false,
      "t": 130373.91000000028,
      "d": 112.14960000000428,
      "v": 104
    },
    {
      "midi": 64,
      "hit": false,
      "t": 130654.28400000029,
      "d": 102.80379999999423,
      "v": 127
    },
    {
      "midi": 52,
      "hit": false,
      "t": 130654.28400000029,
      "d": 107.47669999999925,
      "v": 127
    },
    {
      "midi": 72,
      "hit": false,
      "t": 130654.28400000029,
      "d": 112.14960000000428,
      "v": 104
    },
    {
      "midi": 64,
      "hit": false,
      "t": 130934.6580000003,
      "d": 102.80379999999423,
      "v": 127
    },
    {
      "midi": 52,
      "hit": false,
      "t": 130934.6580000003,
      "d": 107.47669999999925,
      "v": 127
    },
    {
      "midi": 72,
      "hit": false,
      "t": 130934.6580000003,
      "d": 112.14960000000428,
      "v": 104
    },
    {
      "midi": 64,
      "hit": false,
      "t": 131215.0320000003,
      "d": 98.1308999999892,
      "v": 127
    },
    {
      "midi": 52,
      "hit": false,
      "t": 131215.0320000003,
      "d": 107.47669999999925,
      "v": 127
    },
    {
      "midi": 72,
      "hit": false,
      "t": 131215.0320000003,
      "d": 112.14960000000428,
      "v": 104
    },
    {
      "midi": 52,
      "hit": false,
      "t": 131495.4060000003,
      "d": 107.47669999999925,
      "v": 127
    },
    {
      "midi": 64,
      "hit": false,
      "t": 131495.4060000003,
      "d": 107.47669999999925,
      "v": 127
    },
    {
      "midi": 72,
      "hit": false,
      "t": 131495.4060000003,
      "d": 112.14960000000428,
      "v": 104
    },
    {
      "midi": 52,
      "hit": false,
      "t": 131775.78000000032,
      "d": 107.47669999999925,
      "v": 127
    },
    {
      "midi": 72,
      "hit": false,
      "t": 131775.78000000032,
      "d": 112.14960000000428,
      "v": 104
    },
    {
      "midi": 64,
      "hit": false,
      "t": 131775.78000000032,
      "d": 116.82250000000931,
      "v": 127
    },
    {
      "midi": 52,
      "hit": false,
      "t": 132056.15400000033,
      "d": 107.47669999999925,
      "v": 127
    },
    {
      "midi": 72,
      "hit": false,
      "t": 132056.15400000033,
      "d": 112.14960000000428,
      "v": 104
    },
    {
      "midi": 64,
      "hit": false,
      "t": 132056.15400000033,
      "d": 130.8411999999953,
      "v": 127
    },
    {
      "midi": 74,
      "hit": false,
      "t": 132336.5280000003,
      "d": 93.45800000001327,
      "v": 102
    },
    {
      "midi": 62,
      "hit": false,
      "t": 132336.5280000003,
      "d": 107.47669999999925,
      "v": 102
    },
    {
      "midi": 67,
      "hit": false,
      "t": 132336.5280000003,
      "d": 107.47669999999925,
      "v": 102
    },
    {
      "midi": 67,
      "hit": false,
      "t": 132616.90200000032,
      "d": 84.11220000000321,
      "v": 102
    },
    {
      "midi": 74,
      "hit": false,
      "t": 132616.90200000032,
      "d": 93.45800000001327,
      "v": 102
    },
    {
      "midi": 62,
      "hit": false,
      "t": 132616.90200000032,
      "d": 107.47669999999925,
      "v": 102
    },
    {
      "midi": 67,
      "hit": false,
      "t": 132897.27600000033,
      "d": 93.45800000001327,
      "v": 102
    },
    {
      "midi": 74,
      "hit": false,
      "t": 132897.27600000033,
      "d": 93.45800000001327,
      "v": 102
    },
    {
      "midi": 62,
      "hit": false,
      "t": 132897.27600000033,
      "d": 107.47669999999925,
      "v": 102
    },
    {
      "midi": 67,
      "hit": false,
      "t": 133177.65000000034,
      "d": 88.78510000000824,
      "v": 102
    },
    {
      "midi": 74,
      "hit": false,
      "t": 133177.65000000034,
      "d": 93.45800000001327,
      "v": 102
    },
    {
      "midi": 62,
      "hit": false,
      "t": 133177.65000000034,
      "d": 107.47669999999925,
      "v": 102
    },
    {
      "midi": 74,
      "hit": false,
      "t": 133458.02400000035,
      "d": 93.45800000001327,
      "v": 103
    },
    {
      "midi": 67,
      "hit": false,
      "t": 133458.02400000035,
      "d": 98.1309000000183,
      "v": 103
    },
    {
      "midi": 62,
      "hit": false,
      "t": 133458.02400000035,
      "d": 107.47670000002836,
      "v": 103
    },
    {
      "midi": 74,
      "hit": false,
      "t": 133738.3980000004,
      "d": 93.45800000001327,
      "v": 103
    },
    {
      "midi": 62,
      "hit": false,
      "t": 133738.3980000004,
      "d": 107.47669999999925,
      "v": 103
    },
    {
      "midi": 67,
      "hit": false,
      "t": 133738.3980000004,
      "d": 107.47669999999925,
      "v": 103
    },
    {
      "midi": 74,
      "hit": false,
      "t": 134018.7720000004,
      "d": 93.45800000001327,
      "v": 103
    },
    {
      "midi": 62,
      "hit": false,
      "t": 134018.7720000004,
      "d": 107.47669999999925,
      "v": 103
    },
    {
      "midi": 67,
      "hit": false,
      "t": 134018.7720000004,
      "d": 112.14960000000428,
      "v": 103
    },
    {
      "midi": 74,
      "hit": false,
      "t": 134299.14600000042,
      "d": 93.45800000001327,
      "v": 103
    },
    {
      "midi": 62,
      "hit": false,
      "t": 134299.14600000042,
      "d": 107.47669999999925,
      "v": 103
    },
    {
      "midi": 67,
      "hit": false,
      "t": 134299.14600000042,
      "d": 116.82250000000931,
      "v": 103
    },
    {
      "midi": 52,
      "hit": false,
      "t": 134579.52000000043,
      "d": 107.47669999999925,
      "v": 127
    },
    {
      "midi": 64,
      "hit": false,
      "t": 134579.52000000043,
      "d": 107.47669999999925,
      "v": 127
    },
    {
      "midi": 72,
      "hit": false,
      "t": 134579.52000000043,
      "d": 112.14960000000428,
      "v": 104
    },
    {
      "midi": 64,
      "hit": false,
      "t": 134859.89400000044,
      "d": 102.80379999999423,
      "v": 127
    },
    {
      "midi": 52,
      "hit": false,
      "t": 134859.89400000044,
      "d": 107.47669999999925,
      "v": 127
    },
    {
      "midi": 72,
      "hit": false,
      "t": 134859.89400000044,
      "d": 112.14960000000428,
      "v": 104
    },
    {
      "midi": 64,
      "hit": false,
      "t": 135140.26800000045,
      "d": 84.11220000000321,
      "v": 127
    },
    {
      "midi": 52,
      "hit": false,
      "t": 135140.26800000045,
      "d": 107.47669999999925,
      "v": 127
    },
    {
      "midi": 72,
      "hit": false,
      "t": 135140.26800000045,
      "d": 112.14960000000428,
      "v": 104
    },
    {
      "midi": 64,
      "hit": false,
      "t": 135420.64200000046,
      "d": 102.80379999999423,
      "v": 127
    },
    {
      "midi": 52,
      "hit": false,
      "t": 135420.64200000046,
      "d": 107.47669999999925,
      "v": 127
    },
    {
      "midi": 72,
      "hit": false,
      "t": 135420.64200000046,
      "d": 112.14960000000428,
      "v": 104
    },
    {
      "midi": 52,
      "hit": false,
      "t": 135701.01600000047,
      "d": 107.47669999999925,
      "v": 127
    },
    {
      "midi": 64,
      "hit": false,
      "t": 135701.01600000047,
      "d": 107.47669999999925,
      "v": 127
    },
    {
      "midi": 72,
      "hit": false,
      "t": 135701.01600000047,
      "d": 112.14960000000428,
      "v": 104
    },
    {
      "midi": 64,
      "hit": false,
      "t": 135981.39000000048,
      "d": 98.1308999999892,
      "v": 127
    },
    {
      "midi": 52,
      "hit": false,
      "t": 135981.39000000048,
      "d": 107.47669999999925,
      "v": 127
    },
    {
      "midi": 72,
      "hit": false,
      "t": 135981.39000000048,
      "d": 112.14960000000428,
      "v": 104
    },
    {
      "midi": 52,
      "hit": false,
      "t": 136261.7640000005,
      "d": 107.47669999999925,
      "v": 127
    },
    {
      "midi": 72,
      "hit": false,
      "t": 136261.7640000005,
      "d": 112.14960000000428,
      "v": 104
    },
    {
      "midi": 64,
      "hit": false,
      "t": 136261.7640000005,
      "d": 121.49540000001434,
      "v": 127
    },
    {
      "midi": 72,
      "hit": false,
      "t": 136542.1380000005,
      "d": 79.43929999999818,
      "v": 104
    },
    {
      "midi": 64,
      "hit": false,
      "t": 136542.1380000005,
      "d": 93.45799999998417,
      "v": 127
    },
    {
      "midi": 52,
      "hit": false,
      "t": 136542.1380000005,
      "d": 107.47669999997015,
      "v": 127
    },
    {
      "midi": 67,
      "hit": false,
      "t": 136822.51200000048,
      "d": 102.80379999999423,
      "v": 94
    },
    {
      "midi": 74,
      "hit": false,
      "t": 136822.51200000048,
      "d": 107.47669999999925,
      "v": 94
    },
    {
      "midi": 79,
      "hit": false,
      "t": 136822.51200000048,
      "d": 107.47669999999925,
      "v": 94
    },
    {
      "midi": 74,
      "hit": false,
      "t": 137102.8860000005,
      "d": 84.11220000000321,
      "v": 94
    },
    {
      "midi": 67,
      "hit": false,
      "t": 137102.8860000005,
      "d": 102.80379999999423,
      "v": 94
    },
    {
      "midi": 79,
      "hit": false,
      "t": 137102.8860000005,
      "d": 107.47669999999925,
      "v": 94
    },
    {
      "midi": 74,
      "hit": false,
      "t": 137383.2600000005,
      "d": 93.45800000001327,
      "v": 94
    },
    {
      "midi": 67,
      "hit": false,
      "t": 137383.2600000005,
      "d": 98.1309000000183,
      "v": 94
    },
    {
      "midi": 79,
      "hit": false,
      "t": 137383.2600000005,
      "d": 107.47670000002836,
      "v": 94
    },
    {
      "midi": 67,
      "hit": false,
      "t": 137663.63400000054,
      "d": 88.78510000000824,
      "v": 94
    },
    {
      "midi": 74,
      "hit": false,
      "t": 137663.63400000054,
      "d": 88.78510000000824,
      "v": 94
    },
    {
      "midi": 79,
      "hit": false,
      "t": 137663.63400000054,
      "d": 107.47669999999925,
      "v": 94
    },
    {
      "midi": 67,
      "hit": false,
      "t": 137944.00800000055,
      "d": 88.78510000000824,
      "v": 94
    },
    {
      "midi": 74,
      "hit": false,
      "t": 137944.00800000055,
      "d": 98.1309000000183,
      "v": 94
    },
    {
      "midi": 79,
      "hit": false,
      "t": 137944.00800000055,
      "d": 107.47670000002836,
      "v": 94
    },
    {
      "midi": 67,
      "hit": false,
      "t": 138224.3820000006,
      "d": 84.11220000000321,
      "v": 94
    },
    {
      "midi": 74,
      "hit": false,
      "t": 138224.3820000006,
      "d": 107.47669999999925,
      "v": 94
    },
    {
      "midi": 79,
      "hit": false,
      "t": 138224.3820000006,
      "d": 107.47669999999925,
      "v": 94
    },
    {
      "midi": 67,
      "hit": false,
      "t": 138504.7560000006,
      "d": 102.80379999999423,
      "v": 94
    },
    {
      "midi": 79,
      "hit": false,
      "t": 138504.7560000006,
      "d": 107.47669999999925,
      "v": 94
    },
    {
      "midi": 74,
      "hit": false,
      "t": 138504.7560000006,
      "d": 112.14960000000428,
      "v": 94
    },
    {
      "midi": 79,
      "hit": false,
      "t": 138785.13000000062,
      "d": 107.47669999999925,
      "v": 94
    },
    {
      "midi": 67,
      "hit": false,
      "t": 138785.13000000062,
      "d": 112.14960000000428,
      "v": 94
    },
    {
      "midi": 74,
      "hit": false,
      "t": 138785.13000000062,
      "d": 116.82250000000931,
      "v": 94
    },
    {
      "midi": 57,
      "hit": false,
      "t": 139065.50400000063,
      "d": 107.47669999999925,
      "v": 127
    },
    {
      "midi": 62,
      "hit": false,
      "t": 139065.50400000063,
      "d": 107.47669999999925,
      "v": 127
    },
    {
      "midi": 69,
      "hit": false,
      "t": 139065.50400000063,
      "d": 112.14960000000428,
      "v": 104
    },
    {
      "midi": 62,
      "hit": false,
      "t": 139345.87800000064,
      "d": 88.78510000000824,
      "v": 127
    },
    {
      "midi": 57,
      "hit": false,
      "t": 139345.87800000064,
      "d": 107.47669999999925,
      "v": 127
    },
    {
      "midi": 69,
      "hit": false,
      "t": 139345.87800000064,
      "d": 112.14960000000428,
      "v": 104
    },
    {
      "midi": 62,
      "hit": false,
      "t": 139626.25200000065,
      "d": 102.80379999999423,
      "v": 127
    },
    {
      "midi": 57,
      "hit": false,
      "t": 139626.25200000065,
      "d": 107.47669999999925,
      "v": 127
    },
    {
      "midi": 69,
      "hit": false,
      "t": 139626.25200000065,
      "d": 112.14960000000428,
      "v": 104
    },
    {
      "midi": 62,
      "hit": false,
      "t": 139906.62600000066,
      "d": 102.80379999999423,
      "v": 127
    },
    {
      "midi": 57,
      "hit": false,
      "t": 139906.62600000066,
      "d": 107.47669999999925,
      "v": 127
    },
    {
      "midi": 69,
      "hit": false,
      "t": 139906.62600000066,
      "d": 112.14960000000428,
      "v": 104
    },
    {
      "midi": 62,
      "hit": false,
      "t": 140187.00000000067,
      "d": 98.1308999999892,
      "v": 127
    },
    {
      "midi": 57,
      "hit": false,
      "t": 140187.00000000067,
      "d": 107.47669999999925,
      "v": 127
    },
    {
      "midi": 69,
      "hit": false,
      "t": 140187.00000000067,
      "d": 112.14960000000428,
      "v": 104
    },
    {
      "midi": 57,
      "hit": false,
      "t": 140467.37400000068,
      "d": 107.47669999999925,
      "v": 127
    },
    {
      "midi": 62,
      "hit": false,
      "t": 140467.37400000068,
      "d": 107.47669999999925,
      "v": 127
    },
    {
      "midi": 69,
      "hit": false,
      "t": 140467.37400000068,
      "d": 112.14960000000428,
      "v": 104
    },
    {
      "midi": 69,
      "hit": false,
      "t": 140747.7480000007,
      "d": 112.14960000000428,
      "v": 104
    },
    {
      "midi": 62,
      "hit": false,
      "t": 140747.7480000007,
      "d": 116.82250000000931,
      "v": 127
    },
    {
      "midi": 57,
      "hit": false,
      "t": 140747.7480000007,
      "d": 140.18700000000536,
      "v": 127
    },
    {
      "midi": 57,
      "hit": false,
      "t": 141028.1220000007,
      "d": 107.47669999999925,
      "v": 127
    },
    {
      "midi": 69,
      "hit": false,
      "t": 141028.1220000007,
      "d": 112.14960000000428,
      "v": 104
    },
    {
      "midi": 62,
      "hit": false,
      "t": 141028.1220000007,
      "d": 130.8411999999953,
      "v": 127
    },
    {
      "midi": 72,
      "hit": false,
      "t": 141308.49600000068,
      "d": 93.45800000001327,
      "v": 102
    },
    {
      "midi": 60,
      "hit": false,
      "t": 141308.49600000068,
      "d": 107.47669999999925,
      "v": 102
    },
    {
      "midi": 64,
      "hit": false,
      "t": 141308.49600000068,
      "d": 107.47669999999925,
      "v": 102
    },
    {
      "midi": 64,
      "hit": false,
      "t": 141588.8700000007,
      "d": 84.11220000000321,
      "v": 102
    },
    {
      "midi": 72,
      "hit": false,
      "t": 141588.8700000007,
      "d": 93.45800000001327,
      "v": 102
    },
    {
      "midi": 60,
      "hit": false,
      "t": 141588.8700000007,
      "d": 107.47669999999925,
      "v": 102
    },
    {
      "midi": 64,
      "hit": false,
      "t": 141869.2440000007,
      "d": 93.45800000001327,
      "v": 102
    },
    {
      "midi": 72,
      "hit": false,
      "t": 141869.2440000007,
      "d": 93.45800000001327,
      "v": 102
    },
    {
      "midi": 60,
      "hit": false,
      "t": 141869.2440000007,
      "d": 107.47669999999925,
      "v": 102
    },
    {
      "midi": 64,
      "hit": false,
      "t": 142149.61800000072,
      "d": 88.78510000000824,
      "v": 102
    },
    {
      "midi": 72,
      "hit": false,
      "t": 142149.61800000072,
      "d": 93.45800000001327,
      "v": 102
    },
    {
      "midi": 60,
      "hit": false,
      "t": 142149.61800000072,
      "d": 107.47669999999925,
      "v": 102
    },
    {
      "midi": 72,
      "hit": false,
      "t": 142429.99200000073,
      "d": 93.45800000001327,
      "v": 103
    },
    {
      "midi": 64,
      "hit": false,
      "t": 142429.99200000073,
      "d": 98.1309000000183,
      "v": 103
    },
    {
      "midi": 60,
      "hit": false,
      "t": 142429.99200000073,
      "d": 107.47670000002836,
      "v": 103
    },
    {
      "midi": 72,
      "hit": false,
      "t": 142710.36600000077,
      "d": 93.45800000001327,
      "v": 103
    },
    {
      "midi": 60,
      "hit": false,
      "t": 142710.36600000077,
      "d": 107.47669999999925,
      "v": 103
    },
    {
      "midi": 64,
      "hit": false,
      "t": 142710.36600000077,
      "d": 107.47669999999925,
      "v": 103
    },
    {
      "midi": 72,
      "hit": false,
      "t": 142990.74000000078,
      "d": 93.45800000001327,
      "v": 103
    },
    {
      "midi": 60,
      "hit": false,
      "t": 142990.74000000078,
      "d": 107.47669999999925,
      "v": 103
    },
    {
      "midi": 64,
      "hit": false,
      "t": 142990.74000000078,
      "d": 112.14960000000428,
      "v": 103
    },
    {
      "midi": 72,
      "hit": false,
      "t": 143271.1140000008,
      "d": 93.45800000001327,
      "v": 103
    },
    {
      "midi": 60,
      "hit": false,
      "t": 143271.1140000008,
      "d": 107.47669999999925,
      "v": 103
    },
    {
      "midi": 64,
      "hit": false,
      "t": 143271.1140000008,
      "d": 116.82250000000931,
      "v": 103
    },
    {
      "midi": 77,
      "hit": false,
      "t": 143551.4880000008,
      "d": 93.45800000001327,
      "v": 102
    },
    {
      "midi": 65,
      "hit": false,
      "t": 143551.4880000008,
      "d": 107.47669999999925,
      "v": 102
    },
    {
      "midi": 69,
      "hit": false,
      "t": 143551.4880000008,
      "d": 107.47669999999925,
      "v": 102
    },
    {
      "midi": 69,
      "hit": false,
      "t": 143831.8620000008,
      "d": 70.09349999998813,
      "v": 102
    },
    {
      "midi": 65,
      "hit": false,
      "t": 143831.8620000008,
      "d": 102.80379999999423,
      "v": 102
    },
    {
      "midi": 77,
      "hit": false,
      "t": 143831.8620000008,
      "d": 112.14960000000428,
      "v": 102
    },
    {
      "midi": 65,
      "hit": false,
      "t": 144112.23600000082,
      "d": 84.11220000000321,
      "v": 102
    },
    {
      "midi": 69,
      "hit": false,
      "t": 144112.23600000082,
      "d": 107.47669999999925,
      "v": 102
    },
    {
      "midi": 77,
      "hit": false,
      "t": 144112.23600000082,
      "d": 112.14960000000428,
      "v": 102
    },
    {
      "midi": 65,
      "hit": false,
      "t": 144392.61000000083,
      "d": 102.80379999999423,
      "v": 102
    },
    {
      "midi": 69,
      "hit": false,
      "t": 144392.61000000083,
      "d": 107.47669999999925,
      "v": 102
    },
    {
      "midi": 77,
      "hit": false,
      "t": 144392.61000000083,
      "d": 112.14960000000428,
      "v": 102
    },
    {
      "midi": 65,
      "hit": false,
      "t": 144672.98400000084,
      "d": 107.47669999999925,
      "v": 102
    },
    {
      "midi": 69,
      "hit": false,
      "t": 144672.98400000084,
      "d": 107.47669999999925,
      "v": 102
    },
    {
      "midi": 77,
      "hit": false,
      "t": 144672.98400000084,
      "d": 112.14960000000428,
      "v": 102
    },
    {
      "midi": 69,
      "hit": false,
      "t": 144953.35800000085,
      "d": 107.47669999999925,
      "v": 102
    },
    {
      "midi": 77,
      "hit": false,
      "t": 144953.35800000085,
      "d": 112.14960000000428,
      "v": 102
    },
    {
      "midi": 65,
      "hit": false,
      "t": 144953.35800000085,
      "d": 140.18700000000536,
      "v": 102
    },
    {
      "midi": 69,
      "hit": false,
      "t": 145233.73200000086,
      "d": 107.47669999999925,
      "v": 103
    },
    {
      "midi": 77,
      "hit": false,
      "t": 145233.73200000086,
      "d": 112.14960000000428,
      "v": 103
    },
    {
      "midi": 65,
      "hit": false,
      "t": 145233.73200000086,
      "d": 121.49540000001434,
      "v": 103
    },
    {
      "midi": 77,
      "hit": false,
      "t": 145514.10600000087,
      "d": 79.43929999999818,
      "v": 103
    },
    {
      "midi": 65,
      "hit": false,
      "t": 145514.10600000087,
      "d": 93.45799999998417,
      "v": 103
    },
    {
      "midi": 69,
      "hit": false,
      "t": 145514.10600000087,
      "d": 107.47669999997015,
      "v": 103
    },
    {
      "midi": 62,
      "hit": false,
      "t": 145794.48000000085,
      "d": 93.45800000001327,
      "v": 103
    },
    {
      "midi": 66,
      "hit": false,
      "t": 145794.48000000085,
      "d": 93.45800000001327,
      "v": 103
    },
    {
      "midi": 74,
      "hit": false,
      "t": 145794.48000000085,
      "d": 93.45800000001327,
      "v": 103
    },
    {
      "midi": 62,
      "hit": false,
      "t": 146074.85400000087,
      "d": 93.45800000001327,
      "v": 103
    },
    {
      "midi": 66,
      "hit": false,
      "t": 146074.85400000087,
      "d": 93.45800000001327,
      "v": 103
    },
    {
      "midi": 74,
      "hit": false,
      "t": 146074.85400000087,
      "d": 93.45800000001327,
      "v": 103
    },
    {
      "midi": 62,
      "hit": false,
      "t": 146355.22800000088,
      "d": 93.45800000001327,
      "v": 103
    },
    {
      "midi": 66,
      "hit": false,
      "t": 146355.22800000088,
      "d": 93.45800000001327,
      "v": 103
    },
    {
      "midi": 74,
      "hit": false,
      "t": 146355.22800000088,
      "d": 93.45800000001327,
      "v": 103
    },
    {
      "midi": 62,
      "hit": false,
      "t": 146635.6020000009,
      "d": 93.45800000001327,
      "v": 103
    },
    {
      "midi": 66,
      "hit": false,
      "t": 146635.6020000009,
      "d": 93.45800000001327,
      "v": 104
    },
    {
      "midi": 74,
      "hit": false,
      "t": 146635.6020000009,
      "d": 93.45800000001327,
      "v": 104
    },
    {
      "midi": 68,
      "hit": false,
      "t": 146915.9760000009,
      "d": 93.45800000001327,
      "v": 104
    },
    {
      "midi": 76,
      "hit": false,
      "t": 146915.9760000009,
      "d": 93.45800000001327,
      "v": 104
    },
    {
      "midi": 68,
      "hit": false,
      "t": 147196.3500000009,
      "d": 93.45800000001327,
      "v": 104
    },
    {
      "midi": 76,
      "hit": false,
      "t": 147196.3500000009,
      "d": 93.45800000001327,
      "v": 104
    },
    {
      "midi": 68,
      "hit": false,
      "t": 147476.72400000092,
      "d": 93.45800000001327,
      "v": 104
    },
    {
      "midi": 76,
      "hit": false,
      "t": 147476.72400000092,
      "d": 93.45800000001327,
      "v": 104
    },
    {
      "midi": 68,
      "hit": false,
      "t": 147757.09800000093,
      "d": 93.45800000001327,
      "v": 104
    },
    {
      "midi": 76,
      "hit": false,
      "t": 147757.09800000093,
      "d": 93.45800000001327,
      "v": 104
    },
    {
      "midi": 57,
      "hit": false,
      "t": 148014.10749999998,
      "d": 1948.5993000000308,
      "v": 59
    },
    {
      "midi": 84,
      "hit": false,
      "t": 148028.12620000093,
      "d": 1018.6922000000195,
      "v": 96
    },
    {
      "midi": 60,
      "hit": false,
      "t": 148037.47199999998,
      "d": 1799.0665000000154,
      "v": 70
    },
    {
      "midi": 69,
      "hit": false,
      "t": 148074.8552,
      "d": 1799.0665000000154,
      "v": 70
    },
    {
      "midi": 79,
      "hit": false,
      "t": 149687.00570000094,
      "d": 79.43929999999818,
      "v": 96
    },
    {
      "midi": 81,
      "hit": false,
      "t": 149724.38890000095,
      "d": 369.15909999998985,
      "v": 96
    },
    {
      "midi": 55,
      "hit": false,
      "t": 150224.3892,
      "d": 2172.898499999981,
      "v": 63
    },
    {
      "midi": 59,
      "hit": false,
      "t": 150266.4453,
      "d": 2135.515299999999,
      "v": 66
    },
    {
      "midi": 83,
      "hit": false,
      "t": 150280.46400000094,
      "d": 640.1872999999905,
      "v": 96
    },
    {
      "midi": 62,
      "hit": false,
      "t": 150294.4827,
      "d": 2107.477899999998,
      "v": 72
    },
    {
      "midi": 67,
      "hit": false,
      "t": 150303.8285,
      "d": 1799.0664999999863,
      "v": 70
    },
    {
      "midi": 74,
      "hit": false,
      "t": 150327.193,
      "d": 1799.0664999999863,
      "v": 64
    },
    {
      "midi": 79,
      "hit": false,
      "t": 151397.28710000092,
      "d": 528.0376999999862,
      "v": 96
    },
    {
      "midi": 81,
      "hit": false,
      "t": 151948.6893000009,
      "d": 528.0376999999862,
      "v": 96
    },
    {
      "midi": 53,
      "hit": false,
      "t": 152453.3625,
      "d": 2107.477900000027,
      "v": 66
    },
    {
      "midi": 57,
      "hit": false,
      "t": 152495.41859999998,
      "d": 2107.477900000027,
      "v": 68
    },
    {
      "midi": 60,
      "hit": false,
      "t": 152523.45599999998,
      "d": 2107.477900000027,
      "v": 83
    },
    {
      "midi": 81,
      "hit": false,
      "t": 152532.8018,
      "d": 841.1220000000321,
      "v": 64
    },
    {
      "midi": 81,
      "hit": false,
      "t": 152532.8018000009,
      "d": 738.3182000000088,
      "v": 53
    },
    {
      "midi": 76,
      "hit": false,
      "t": 152813.1758,
      "d": 785.04720000003,
      "v": 49
    },
    {
      "midi": 72,
      "hit": false,
      "t": 153084.204,
      "d": 803.738800000021,
      "v": 49
    },
    {
      "midi": 69,
      "hit": false,
      "t": 153364.578,
      "d": 1238.318499999994,
      "v": 49
    },
    {
      "midi": 93,
      "hit": false,
      "t": 154182.3355000009,
      "d": 79.43929999999818,
      "v": 79
    },
    {
      "midi": 94,
      "hit": false,
      "t": 154224.39160000088,
      "d": 271.02820000000065,
      "v": 79
    },
    {
      "midi": 57,
      "hit": false,
      "t": 154705.7003,
      "d": 1742.9916999999841,
      "v": 54
    },
    {
      "midi": 62,
      "hit": false,
      "t": 154719.71899999998,
      "d": 1355.1410000000033,
      "v": 62
    },
    {
      "midi": 81,
      "hit": false,
      "t": 154766.44799999997,
      "d": 1238.318500000023,
      "v": 64
    },
    {
      "midi": 86,
      "hit": false,
      "t": 154766.44800000088,
      "d": 1112.1502000000037,
      "v": 79
    },
    {
      "midi": 66,
      "hit": false,
      "t": 154775.79379999998,
      "d": 1112.1502000000037,
      "v": 72
    },
    {
      "midi": 78,
      "hit": false,
      "t": 155023.4575,
      "d": 1238.318499999994,
      "v": 51
    },
    {
      "midi": 74,
      "hit": false,
      "t": 155327.196,
      "d": 1238.318499999994,
      "v": 50
    },
    {
      "midi": 69,
      "hit": false,
      "t": 155560.841,
      "d": 1238.318499999994,
      "v": 41
    },
    {
      "midi": 66,
      "hit": false,
      "t": 155897.2898,
      "d": 1098.1314999999886,
      "v": 43
    },
    {
      "midi": 62,
      "hit": false,
      "t": 156144.95349999997,
      "d": 864.4864999999991,
      "v": 44
    },
    {
      "midi": 57,
      "hit": false,
      "t": 156448.69199999998,
      "d": 523.3648000000103,
      "v": 44
    },
    {
      "midi": 93,
      "hit": false,
      "t": 156448.69200000088,
      "d": 570.0938000000024,
      "v": 79
    },
    {
      "midi": 52,
      "hit": false,
      "t": 156972.0568,
      "d": 2135.51529999997,
      "v": 52
    },
    {
      "midi": 57,
      "hit": false,
      "t": 156986.07549999998,
      "d": 1948.5993000000017,
      "v": 58
    },
    {
      "midi": 84,
      "hit": false,
      "t": 157018.7858000009,
      "d": 570.0938000000024,
      "v": 79
    },
    {
      "midi": 60,
      "hit": false,
      "t": 157289.81399999998,
      "d": 1799.0664999999863,
      "v": 62
    },
    {
      "midi": 64,
      "hit": false,
      "t": 157579.53379999998,
      "d": 1658.879499999981,
      "v": 62
    },
    {
      "midi": 69,
      "hit": false,
      "t": 157850.56199999998,
      "d": 1425.2344999999623,
      "v": 47
    },
    {
      "midi": 76,
      "hit": false,
      "t": 157883.27229999998,
      "d": 1392.5241999999562,
      "v": 47
    },
    {
      "midi": 81,
      "hit": false,
      "t": 158701.0298000009,
      "d": 570.0938000000024,
      "v": 80
    },
    {
      "midi": 55,
      "hit": false,
      "t": 159196.35719999997,
      "d": 2172.898499999981,
      "v": 63
    },
    {
      "midi": 59,
      "hit": false,
      "t": 159238.41329999996,
      "d": 2135.515299999999,
      "v": 66
    },
    {
      "midi": 67,
      "hit": false,
      "t": 159252.43199999994,
      "d": 2107.477899999998,
      "v": 55
    },
    {
      "midi": 83,
      "hit": false,
      "t": 159261.77780000088,
      "d": 570.0938000000024,
      "v": 80
    },
    {
      "midi": 62,
      "hit": false,
      "t": 159266.45069999993,
      "d": 2107.477900000027,
      "v": 72
    },
    {
      "midi": 71,
      "hit": false,
      "t": 159542.15179999993,
      "d": 1976.6367000000027,
      "v": 57
    },
    {
      "midi": 74,
      "hit": false,
      "t": 159822.52579999994,
      "d": 1672.898199999996,
      "v": 55
    },
    {
      "midi": 93,
      "hit": false,
      "t": 160934.67600000088,
      "d": 570.0938000000024,
      "v": 80
    },
    {
      "midi": 53,
      "hit": false,
      "t": 161425.33049999995,
      "d": 2107.477899999969,
      "v": 66
    },
    {
      "midi": 57,
      "hit": false,
      "t": 161467.38659999994,
      "d": 2107.477899999969,
      "v": 68
    },
    {
      "midi": 60,
      "hit": false,
      "t": 161495.42399999994,
      "d": 2107.477899999969,
      "v": 83
    },
    {
      "midi": 81,
      "hit": false,
      "t": 161504.76980000088,
      "d": 570.0938000000024,
      "v": 80
    },
    {
      "midi": 64,
      "hit": false,
      "t": 161509.44269999993,
      "d": 855.140699999989,
      "v": 47
    },
    {
      "midi": 69,
      "hit": false,
      "t": 161785.14379999993,
      "d": 855.140699999989,
      "v": 47
    },
    {
      "midi": 72,
      "hit": false,
      "t": 162056.17199999993,
      "d": 855.140699999989,
      "v": 49
    },
    {
      "midi": 76,
      "hit": false,
      "t": 162322.52729999993,
      "d": 855.140699999989,
      "v": 49
    },
    {
      "midi": 93,
      "hit": false,
      "t": 163177.66800000088,
      "d": 570.0938000000024,
      "v": 77
    },
    {
      "midi": 57,
      "hit": false,
      "t": 163677.6682999999,
      "d": 2135.51529999997,
      "v": 54
    },
    {
      "midi": 62,
      "hit": false,
      "t": 163691.6869999999,
      "d": 2135.51529999997,
      "v": 62
    },
    {
      "midi": 81,
      "hit": false,
      "t": 163738.41600000087,
      "d": 570.0938000000024,
      "v": 77
    },
    {
      "midi": 66,
      "hit": false,
      "t": 163747.7617999999,
      "d": 1869.1600000000035,
      "v": 72
    },
    {
      "midi": 90,
      "hit": false,
      "t": 163752.4346999999,
      "d": 677.5705000000016,
      "v": 32
    },
    {
      "midi": 86,
      "hit": false,
      "t": 164028.1357999999,
      "d": 677.5705000000016,
      "v": 30
    },
    {
      "midi": 81,
      "hit": false,
      "t": 164299.1639999999,
      "d": 677.5705000000016,
      "v": 29
    },
    {
      "midi": 78,
      "hit": false,
      "t": 164565.5192999999,
      "d": 677.5705000000016,
      "v": 30
    },
    {
      "midi": 76,
      "hit": false,
      "t": 164845.8932999999,
      "d": 677.5704999999725,
      "v": 28
    },
    {
      "midi": 74,
      "hit": false,
      "t": 165116.9214999999,
      "d": 677.5704999999725,
      "v": 29
    },
    {
      "midi": 69,
      "hit": false,
      "t": 165420.6599999999,
      "d": 500.00029999998515,
      "v": 28
    },
    {
      "midi": 66,
      "hit": false,
      "t": 165715.05269999988,
      "d": 313.0842999999877,
      "v": 27
    },
    {
      "midi": 57,
      "hit": false,
      "t": 165981.40800000087,
      "d": 2242.9919999999984,
      "v": 100
    },
    {
      "midi": 62,
      "hit": false,
      "t": 165981.40800000087,
      "d": 2242.9919999999984,
      "v": 100
    },
    {
      "midi": 65,
      "hit": false,
      "t": 165981.40800000087,
      "d": 2242.9919999999984,
      "v": 100
    },
    {
      "midi": 60,
      "hit": false,
      "t": 168224.40000000087,
      "d": 2242.9919999999984,
      "v": 100
    },
    {
      "midi": 67,
      "hit": false,
      "t": 168224.40000000087,
      "d": 2242.9919999999984,
      "v": 100
    },
    {
      "midi": 72,
      "hit": false,
      "t": 168224.40000000087,
      "d": 2242.9919999999984,
      "v": 100
    },
    {
      "midi": 57,
      "hit": false,
      "t": 170467.39200000087,
      "d": 1121.4960000000137,
      "v": 100
    },
    {
      "midi": 65,
      "hit": false,
      "t": 170467.39200000087,
      "d": 1121.4960000000137,
      "v": 100
    },
    {
      "midi": 69,
      "hit": false,
      "t": 170467.39200000087,
      "d": 1121.4960000000137,
      "v": 100
    },
    {
      "midi": 65,
      "hit": false,
      "t": 171588.88800000088,
      "d": 1121.4960000000137,
      "v": 100
    },
    {
      "midi": 72,
      "hit": false,
      "t": 171588.88800000088,
      "d": 1121.4960000000137,
      "v": 100
    },
    {
      "midi": 64,
      "hit": false,
      "t": 172710.3840000009,
      "d": 1121.4960000000137,
      "v": 100
    },
    {
      "midi": 60,
      "hit": false,
      "t": 172710.3840000009,
      "d": 2242.9919999999984,
      "v": 100
    },
    {
      "midi": 64,
      "hit": false,
      "t": 173831.8800000009,
      "d": 560.7479999999923,
      "v": 86
    },
    {
      "midi": 67,
      "hit": false,
      "t": 174392.6280000009,
      "d": 560.7479999999923,
      "v": 82
    },
    {
      "midi": 53,
      "hit": false,
      "t": 174953.3760000009,
      "d": 2242.9919999999984,
      "v": 100
    },
    {
      "midi": 62,
      "hit": false,
      "t": 174953.3760000009,
      "d": 2242.9919999999984,
      "v": 100
    },
    {
      "midi": 65,
      "hit": false,
      "t": 174953.3760000009,
      "d": 2242.9919999999984,
      "v": 100
    },
    {
      "midi": 84,
      "hit": false,
      "t": 177196.3680000009,
      "d": 1682.244000000006,
      "v": 100
    },
    {
      "midi": 60,
      "hit": false,
      "t": 177196.3680000009,
      "d": 2242.9919999999984,
      "v": 100
    },
    {
      "midi": 67,
      "hit": false,
      "t": 177196.3680000009,
      "d": 2242.9919999999984,
      "v": 100
    },
    {
      "midi": 83,
      "hit": false,
      "t": 178878.6120000009,
      "d": 560.7479999999923,
      "v": 82
    },
    {
      "midi": 57,
      "hit": false,
      "t": 179439.3600000009,
      "d": 1121.4960000000137,
      "v": 100
    },
    {
      "midi": 60,
      "hit": false,
      "t": 179439.3600000009,
      "d": 1121.4960000000137,
      "v": 100
    },
    {
      "midi": 65,
      "hit": false,
      "t": 179439.3600000009,
      "d": 1121.4960000000137,
      "v": 100
    },
    {
      "midi": 81,
      "hit": false,
      "t": 179439.3600000009,
      "d": 1121.4960000000137,
      "v": 82
    },
    {
      "midi": 60,
      "hit": false,
      "t": 180560.8560000009,
      "d": 1121.4960000000137,
      "v": 82
    },
    {
      "midi": 69,
      "hit": false,
      "t": 180560.8560000009,
      "d": 1121.4960000000137,
      "v": 82
    },
    {
      "midi": 72,
      "hit": false,
      "t": 180560.8560000009,
      "d": 1121.4960000000137,
      "v": 82
    },
    {
      "midi": 65,
      "hit": false,
      "t": 181682.35200000092,
      "d": 163.5515000000014,
      "v": 96
    },
    {
      "midi": 62,
      "hit": false,
      "t": 181682.35200000092,
      "d": 186.91599999999744,
      "v": 96
    },
    {
      "midi": 70,
      "hit": false,
      "t": 181682.35200000092,
      "d": 196.2618000000075,
      "v": 96
    },
    {
      "midi": 62,
      "hit": false,
      "t": 181962.72600000093,
      "d": 98.1308999999892,
      "v": 102
    },
    {
      "midi": 70,
      "hit": false,
      "t": 181962.72600000093,
      "d": 112.14959999997518,
      "v": 102
    },
    {
      "midi": 65,
      "hit": false,
      "t": 181962.72600000093,
      "d": 116.82249999998021,
      "v": 102
    },
    {
      "midi": 70,
      "hit": false,
      "t": 182243.1000000009,
      "d": 84.11220000000321,
      "v": 105
    },
    {
      "midi": 62,
      "hit": false,
      "t": 182243.1000000009,
      "d": 102.80379999999423,
      "v": 105
    },
    {
      "midi": 65,
      "hit": false,
      "t": 182243.1000000009,
      "d": 116.82249999998021,
      "v": 105
    },
    {
      "midi": 62,
      "hit": false,
      "t": 182523.4740000009,
      "d": 140.18700000000536,
      "v": 107
    },
    {
      "midi": 65,
      "hit": false,
      "t": 182523.4740000009,
      "d": 149.5328000000154,
      "v": 107
    },
    {
      "midi": 70,
      "hit": false,
      "t": 182523.4740000009,
      "d": 163.5515000000014,
      "v": 107
    },
    {
      "midi": 70,
      "hit": false,
      "t": 182803.8480000009,
      "d": 79.43929999999818,
      "v": 107
    },
    {
      "midi": 62,
      "hit": false,
      "t": 182803.8480000009,
      "d": 88.78510000000824,
      "v": 107
    },
    {
      "midi": 65,
      "hit": false,
      "t": 182803.8480000009,
      "d": 116.82250000000931,
      "v": 107
    },
    {
      "midi": 62,
      "hit": false,
      "t": 183084.2220000009,
      "d": 74.76639999999315,
      "v": 108
    },
    {
      "midi": 70,
      "hit": false,
      "t": 183084.2220000009,
      "d": 88.78509999997914,
      "v": 108
    },
    {
      "midi": 65,
      "hit": false,
      "t": 183084.2220000009,
      "d": 116.82249999998021,
      "v": 108
    },
    {
      "midi": 62,
      "hit": false,
      "t": 183364.5960000009,
      "d": 74.76639999999315,
      "v": 108
    },
    {
      "midi": 70,
      "hit": false,
      "t": 183364.5960000009,
      "d": 84.11220000000321,
      "v": 108
    },
    {
      "midi": 65,
      "hit": false,
      "t": 183364.5960000009,
      "d": 116.82250000000931,
      "v": 108
    },
    {
      "midi": 62,
      "hit": false,
      "t": 183644.9700000009,
      "d": 74.76639999999315,
      "v": 108
    },
    {
      "midi": 70,
      "hit": false,
      "t": 183644.9700000009,
      "d": 88.78509999997914,
      "v": 108
    },
    {
      "midi": 65,
      "hit": false,
      "t": 183644.9700000009,
      "d": 116.82249999998021,
      "v": 108
    },
    {
      "midi": 65,
      "hit": false,
      "t": 183925.34400000088,
      "d": 163.5515000000014,
      "v": 96
    },
    {
      "midi": 82,
      "hit": false,
      "t": 183925.34400000088,
      "d": 163.5515000000014,
      "v": 107
    },
    {
      "midi": 62,
      "hit": false,
      "t": 183925.34400000088,
      "d": 186.91599999999744,
      "v": 96
    },
    {
      "midi": 70,
      "hit": false,
      "t": 183925.34400000088,
      "d": 196.2618000000075,
      "v": 96
    },
    {
      "midi": 62,
      "hit": false,
      "t": 184205.7180000009,
      "d": 98.1308999999892,
      "v": 102
    },
    {
      "midi": 70,
      "hit": false,
      "t": 184205.7180000009,
      "d": 112.14959999997518,
      "v": 102
    },
    {
      "midi": 65,
      "hit": false,
      "t": 184205.7180000009,
      "d": 116.82249999998021,
      "v": 102
    },
    {
      "midi": 77,
      "hit": false,
      "t": 184205.7180000009,
      "d": 163.5514999999723,
      "v": 107
    },
    {
      "midi": 70,
      "hit": false,
      "t": 184486.09200000088,
      "d": 84.11220000000321,
      "v": 105
    },
    {
      "midi": 62,
      "hit": false,
      "t": 184486.09200000088,
      "d": 102.80379999999423,
      "v": 105
    },
    {
      "midi": 65,
      "hit": false,
      "t": 184486.09200000088,
      "d": 116.82249999998021,
      "v": 105
    },
    {
      "midi": 74,
      "hit": false,
      "t": 184486.09200000088,
      "d": 163.5514999999723,
      "v": 107
    },
    {
      "midi": 62,
      "hit": false,
      "t": 184766.46600000086,
      "d": 140.18700000000536,
      "v": 107
    },
    {
      "midi": 65,
      "hit": false,
      "t": 184766.46600000086,
      "d": 149.5328000000154,
      "v": 107
    },
    {
      "midi": 70,
      "hit": false,
      "t": 184766.46600000086,
      "d": 163.5515000000014,
      "v": 107
    },
    {
      "midi": 77,
      "hit": false,
      "t": 184766.46600000086,
      "d": 163.5515000000014,
      "v": 107
    },
    {
      "midi": 70,
      "hit": false,
      "t": 185046.84000000087,
      "d": 79.43929999999818,
      "v": 107
    },
    {
      "midi": 62,
      "hit": false,
      "t": 185046.84000000087,
      "d": 88.78510000000824,
      "v": 107
    },
    {
      "midi": 65,
      "hit": false,
      "t": 185046.84000000087,
      "d": 116.82250000000931,
      "v": 107
    },
    {
      "midi": 82,
      "hit": false,
      "t": 185046.84000000087,
      "d": 163.5515000000014,
      "v": 107
    },
    {
      "midi": 62,
      "hit": false,
      "t": 185327.21400000088,
      "d": 74.76639999999315,
      "v": 108
    },
    {
      "midi": 70,
      "hit": false,
      "t": 185327.21400000088,
      "d": 88.78509999997914,
      "v": 108
    },
    {
      "midi": 65,
      "hit": false,
      "t": 185327.21400000088,
      "d": 116.82249999998021,
      "v": 108
    },
    {
      "midi": 77,
      "hit": false,
      "t": 185327.21400000088,
      "d": 163.5514999999723,
      "v": 107
    },
    {
      "midi": 62,
      "hit": false,
      "t": 185607.58800000086,
      "d": 74.76639999999315,
      "v": 108
    },
    {
      "midi": 70,
      "hit": false,
      "t": 185607.58800000086,
      "d": 84.11220000000321,
      "v": 108
    },
    {
      "midi": 65,
      "hit": false,
      "t": 185607.58800000086,
      "d": 116.82250000000931,
      "v": 108
    },
    {
      "midi": 62,
      "hit": false,
      "t": 185887.96200000087,
      "d": 74.76639999999315,
      "v": 108
    },
    {
      "midi": 70,
      "hit": false,
      "t": 185887.96200000087,
      "d": 88.78509999997914,
      "v": 108
    },
    {
      "midi": 65,
      "hit": false,
      "t": 185887.96200000087,
      "d": 116.82249999998021,
      "v": 108
    },
    {
      "midi": 71,
      "hit": false,
      "t": 186168.33600000085,
      "d": 79.43929999999818,
      "v": 127
    },
    {
      "midi": 64,
      "hit": false,
      "t": 186168.33600000085,
      "d": 88.78510000000824,
      "v": 127
    },
    {
      "midi": 76,
      "hit": false,
      "t": 186168.33600000085,
      "d": 116.82250000000931,
      "v": 127
    },
    {
      "midi": 88,
      "hit": false,
      "t": 186168.33600000085,
      "d": 116.82250000000931,
      "v": 127
    },
    {
      "midi": 83,
      "hit": false,
      "t": 186448.71000000086,
      "d": 116.82250000000931,
      "v": 127
    },
    {
      "midi": 64,
      "hit": false,
      "t": 186448.71000000086,
      "d": 140.18700000000536,
      "v": 110
    },
    {
      "midi": 71,
      "hit": false,
      "t": 186448.71000000086,
      "d": 140.18700000000536,
      "v": 110
    },
    {
      "midi": 76,
      "hit": false,
      "t": 186448.71000000086,
      "d": 140.18700000000536,
      "v": 53
    },
    {
      "midi": 64,
      "hit": false,
      "t": 186729.08400000088,
      "d": 93.45800000001327,
      "v": 110
    },
    {
      "midi": 80,
      "hit": false,
      "t": 186729.08400000088,
      "d": 116.82250000000931,
      "v": 127
    },
    {
      "midi": 71,
      "hit": false,
      "t": 186729.08400000088,
      "d": 140.18700000000536,
      "v": 110
    },
    {
      "midi": 76,
      "hit": false,
      "t": 186729.08400000088,
      "d": 280.3740000000107,
      "v": 53
    },
    {
      "midi": 64,
      "hit": false,
      "t": 187009.4580000009,
      "d": 65.4206000000122,
      "v": 108
    },
    {
      "midi": 76,
      "hit": false,
      "t": 187009.4580000009,
      "d": 116.82250000000931,
      "v": 53
    },
    {
      "midi": 71,
      "hit": false,
      "t": 187009.4580000009,
      "d": 280.3740000000107,
      "v": 108
    },
    {
      "midi": 71,
      "hit": false,
      "t": 187289.8320000009,
      "d": 79.43929999999818,
      "v": 106
    },
    {
      "midi": 76,
      "hit": false,
      "t": 187289.8320000009,
      "d": 116.82250000000931,
      "v": 53
    },
    {
      "midi": 64,
      "hit": false,
      "t": 187289.8320000009,
      "d": 280.3740000000107,
      "v": 106
    },
    {
      "midi": 64,
      "hit": false,
      "t": 187570.2060000009,
      "d": 60.74770000000717,
      "v": 106
    },
    {
      "midi": 76,
      "hit": false,
      "t": 187570.2060000009,
      "d": 116.82250000000931,
      "v": 53
    },
    {
      "midi": 71,
      "hit": false,
      "t": 187570.2060000009,
      "d": 280.3740000000107,
      "v": 106
    },
    {
      "midi": 64,
      "hit": false,
      "t": 187850.58000000092,
      "d": 70.09349999998813,
      "v": 106
    },
    {
      "midi": 71,
      "hit": false,
      "t": 187850.58000000092,
      "d": 74.76639999999315,
      "v": 106
    },
    {
      "midi": 76,
      "hit": false,
      "t": 187850.58000000092,
      "d": 280.3739999999816,
      "v": 53
    },
    {
      "midi": 64,
      "hit": false,
      "t": 188130.9540000009,
      "d": 42.056099999987055,
      "v": 106
    },
    {
      "midi": 76,
      "hit": false,
      "t": 188130.9540000009,
      "d": 116.82249999998021,
      "v": 53
    },
    {
      "midi": 71,
      "hit": false,
      "t": 188130.9540000009,
      "d": 280.3739999999816,
      "v": 106
    },
    {
      "midi": 71,
      "hit": false,
      "t": 188411.32800000088,
      "d": 79.43929999999818,
      "v": 127
    },
    {
      "midi": 64,
      "hit": false,
      "t": 188411.32800000088,
      "d": 88.78510000000824,
      "v": 127
    },
    {
      "midi": 76,
      "hit": false,
      "t": 188411.32800000088,
      "d": 116.82250000000931,
      "v": 127
    },
    {
      "midi": 80,
      "hit": false,
      "t": 188691.7020000009,
      "d": 116.82250000000931,
      "v": 127
    },
    {
      "midi": 64,
      "hit": false,
      "t": 188691.7020000009,
      "d": 140.18700000000536,
      "v": 110
    },
    {
      "midi": 71,
      "hit": false,
      "t": 188691.7020000009,
      "d": 140.18700000000536,
      "v": 110
    },
    {
      "midi": 76,
      "hit": false,
      "t": 188691.7020000009,
      "d": 140.18700000000536,
      "v": 53
    },
    {
      "midi": 64,
      "hit": false,
      "t": 188972.0760000009,
      "d": 93.45800000001327,
      "v": 110
    },
    {
      "midi": 83,
      "hit": false,
      "t": 188972.0760000009,
      "d": 116.82250000000931,
      "v": 127
    },
    {
      "midi": 71,
      "hit": false,
      "t": 188972.0760000009,
      "d": 140.18700000000536,
      "v": 110
    },
    {
      "midi": 76,
      "hit": false,
      "t": 188972.0760000009,
      "d": 280.3740000000107,
      "v": 53
    },
    {
      "midi": 64,
      "hit": false,
      "t": 189252.4500000009,
      "d": 65.4206000000122,
      "v": 108
    },
    {
      "midi": 76,
      "hit": false,
      "t": 189252.4500000009,
      "d": 116.82250000000931,
      "v": 53
    },
    {
      "midi": 71,
      "hit": false,
      "t": 189252.4500000009,
      "d": 280.3740000000107,
      "v": 108
    },
    {
      "midi": 71,
      "hit": false,
      "t": 189532.82400000092,
      "d": 79.43929999999818,
      "v": 106
    },
    {
      "midi": 76,
      "hit": false,
      "t": 189532.82400000092,
      "d": 116.82250000000931,
      "v": 53
    },
    {
      "midi": 80,
      "hit": false,
      "t": 189532.82400000092,
      "d": 116.82250000000931,
      "v": 127
    },
    {
      "midi": 64,
      "hit": false,
      "t": 189532.82400000092,
      "d": 280.3740000000107,
      "v": 106
    },
    {
      "midi": 64,
      "hit": false,
      "t": 189813.19800000094,
      "d": 60.74770000000717,
      "v": 106
    },
    {
      "midi": 76,
      "hit": false,
      "t": 189813.19800000094,
      "d": 116.82250000000931,
      "v": 53
    },
    {
      "midi": 83,
      "hit": false,
      "t": 189813.19800000094,
      "d": 116.82250000000931,
      "v": 127
    },
    {
      "midi": 71,
      "hit": false,
      "t": 189813.19800000094,
      "d": 280.3740000000107,
      "v": 106
    },
    {
      "midi": 64,
      "hit": false,
      "t": 190093.57200000095,
      "d": 70.09349999998813,
      "v": 106
    },
    {
      "midi": 71,
      "hit": false,
      "t": 190093.57200000095,
      "d": 74.76639999999315,
      "v": 106
    },
    {
      "midi": 88,
      "hit": false,
      "t": 190093.57200000095,
      "d": 116.82249999998021,
      "v": 127
    },
    {
      "midi": 92,
      "hit": false,
      "t": 190093.57200000095,
      "d": 116.82249999998021,
      "v": 127
    },
    {
      "midi": 76,
      "hit": false,
      "t": 190093.57200000095,
      "d": 280.3739999999816,
      "v": 53
    },
    {
      "midi": 64,
      "hit": false,
      "t": 190373.94600000093,
      "d": 42.056099999987055,
      "v": 106
    },
    {
      "midi": 76,
      "hit": false,
      "t": 190373.94600000093,
      "d": 116.82249999998021,
      "v": 53
    },
    {
      "midi": 71,
      "hit": false,
      "t": 190373.94600000093,
      "d": 280.3739999999816,
      "v": 106
    },
    {
      "midi": 45,
      "hit": false,
      "t": 210243.1168000009,
      "d": 6168.227999999974,
      "v": 127
    },
    {
      "midi": 52,
      "hit": false,
      "t": 210257.13550000088,
      "d": 6168.227999999974,
      "v": 127
    },
    {
      "midi": 57,
      "hit": false,
      "t": 210257.13550000088,
      "d": 6168.227999999974,
      "v": 127
    },
    {
      "midi": 59,
      "hit": false,
      "t": 210266.4813000009,
      "d": 6168.227999999974,
      "v": 127
    },
    {
      "midi": 64,
      "hit": false,
      "t": 210280.50000000087,
      "d": 6168.227999999974,
      "v": 127
    },
    {
      "midi": 71,
      "hit": false,
      "t": 210280.50000000087,
      "d": 6168.227999999974,
      "v": 127
    },
    {
      "midi": 76,
      "hit": false,
      "t": 210280.50000000087,
      "d": 6168.227999999974,
      "v": 127
    },
    {
      "midi": 76,
      "hit": false,
      "t": 215327.23199999987,
      "d": 359.813300000038,
      "v": 37
    },
    {
      "midi": 57,
      "hit": false,
      "t": 215336.57779999988,
      "d": 2219.6275000000023,
      "v": 19
    },
    {
      "midi": 52,
      "hit": false,
      "t": 215341.2506999999,
      "d": 2219.6275000000023,
      "v": 19
    },
    {
      "midi": 76,
      "hit": false,
      "t": 215359.9423,
      "d": 359.813300000038,
      "v": 37
    },
    {
      "midi": 57,
      "hit": false,
      "t": 215369.2881,
      "d": 2219.6275000000023,
      "v": 19
    },
    {
      "midi": 52,
      "hit": false,
      "t": 215373.961,
      "d": 2219.6275000000023,
      "v": 19
    },
    {
      "midi": 69,
      "hit": false,
      "t": 215514.1479999999,
      "d": 383.17780000000494,
      "v": 21
    },
    {
      "midi": 69,
      "hit": false,
      "t": 215546.85830000002,
      "d": 383.17780000000494,
      "v": 21
    },
    {
      "midi": 64,
      "hit": false,
      "t": 215701.0639999999,
      "d": 373.8319999999949,
      "v": 21
    },
    {
      "midi": 64,
      "hit": false,
      "t": 215733.77430000002,
      "d": 373.8319999999949,
      "v": 21
    },
    {
      "midi": 74,
      "hit": false,
      "t": 215887.9799999999,
      "d": 336.44879999998375,
      "v": 39
    },
    {
      "midi": 74,
      "hit": false,
      "t": 215920.69030000002,
      "d": 336.44879999998375,
      "v": 39
    },
    {
      "midi": 69,
      "hit": false,
      "t": 216074.8959999999,
      "d": 350.46749999999884,
      "v": 21
    },
    {
      "midi": 69,
      "hit": false,
      "t": 216107.6063,
      "d": 350.46749999999884,
      "v": 21
    },
    {
      "midi": 64,
      "hit": false,
      "t": 216261.8119999999,
      "d": 383.17780000000494,
      "v": 21
    },
    {
      "midi": 64,
      "hit": false,
      "t": 216294.5223,
      "d": 383.17780000000494,
      "v": 21
    },
    {
      "midi": 72,
      "hit": false,
      "t": 216448.7279999999,
      "d": 327.1030000000028,
      "v": 40
    },
    {
      "midi": 72,
      "hit": false,
      "t": 216481.4383,
      "d": 327.1030000000028,
      "v": 40
    },
    {
      "midi": 69,
      "hit": false,
      "t": 216635.64399999988,
      "d": 359.8133000000089,
      "v": 21
    },
    {
      "midi": 69,
      "hit": false,
      "t": 216668.3543,
      "d": 359.8133000000089,
      "v": 21
    },
    {
      "midi": 64,
      "hit": false,
      "t": 216822.55999999988,
      "d": 327.1030000000028,
      "v": 21
    },
    {
      "midi": 64,
      "hit": false,
      "t": 216855.2703,
      "d": 327.1030000000028,
      "v": 21
    },
    {
      "midi": 69,
      "hit": false,
      "t": 217009.47599999988,
      "d": 327.1030000000028,
      "v": 38
    },
    {
      "midi": 69,
      "hit": false,
      "t": 217042.1863,
      "d": 327.1030000000028,
      "v": 38
    },
    {
      "midi": 64,
      "hit": false,
      "t": 217196.39199999988,
      "d": 443.9255000000412,
      "v": 21
    },
    {
      "midi": 64,
      "hit": false,
      "t": 217229.1023,
      "d": 443.9255000000412,
      "v": 21
    },
    {
      "midi": 69,
      "hit": false,
      "t": 217383.30799999987,
      "d": 383.17780000006314,
      "v": 21
    },
    {
      "midi": 69,
      "hit": false,
      "t": 217416.0183,
      "d": 383.17780000006314,
      "v": 21
    },
    {
      "midi": 74,
      "hit": false,
      "t": 217570.2239999999,
      "d": 420.56100000001607,
      "v": 38
    },
    {
      "midi": 59,
      "hit": false,
      "t": 217579.5697999999,
      "d": 2219.6275000000023,
      "v": 19
    },
    {
      "midi": 74,
      "hit": false,
      "t": 217602.93430000002,
      "d": 420.56100000001607,
      "v": 38
    },
    {
      "midi": 59,
      "hit": false,
      "t": 217612.28010000003,
      "d": 2219.6275000000023,
      "v": 19
    },
    {
      "midi": 67,
      "hit": false,
      "t": 217757.13999999993,
      "d": 429.906799999997,
      "v": 21
    },
    {
      "midi": 67,
      "hit": false,
      "t": 217789.85030000005,
      "d": 429.906799999997,
      "v": 21
    },
    {
      "midi": 64,
      "hit": false,
      "t": 217944.05599999992,
      "d": 383.17780000000494,
      "v": 21
    },
    {
      "midi": 64,
      "hit": false,
      "t": 217976.76630000005,
      "d": 383.17780000000494,
      "v": 21
    },
    {
      "midi": 72,
      "hit": false,
      "t": 218130.97199999992,
      "d": 406.542300000001,
      "v": 37
    },
    {
      "midi": 72,
      "hit": false,
      "t": 218163.68230000004,
      "d": 406.542300000001,
      "v": 37
    },
    {
      "midi": 67,
      "hit": false,
      "t": 218317.88799999992,
      "d": 443.925499999983,
      "v": 21
    },
    {
      "midi": 67,
      "hit": false,
      "t": 218350.59830000004,
      "d": 443.925499999983,
      "v": 21
    },
    {
      "midi": 64,
      "hit": false,
      "t": 218504.80399999992,
      "d": 383.17780000000494,
      "v": 21
    },
    {
      "midi": 64,
      "hit": false,
      "t": 218537.51430000004,
      "d": 383.17780000000494,
      "v": 21
    },
    {
      "midi": 71,
      "hit": false,
      "t": 218691.7199999999,
      "d": 443.925499999983,
      "v": 38
    },
    {
      "midi": 71,
      "hit": false,
      "t": 218724.43030000004,
      "d": 443.925499999983,
      "v": 38
    },
    {
      "midi": 67,
      "hit": false,
      "t": 218878.6359999999,
      "d": 350.46749999999884,
      "v": 21
    },
    {
      "midi": 67,
      "hit": false,
      "t": 218911.34630000003,
      "d": 350.46749999999884,
      "v": 21
    },
    {
      "midi": 64,
      "hit": false,
      "t": 219065.5519999999,
      "d": 350.46749999999884,
      "v": 21
    },
    {
      "midi": 64,
      "hit": false,
      "t": 219098.26230000003,
      "d": 350.46749999999884,
      "v": 21
    },
    {
      "midi": 71,
      "hit": false,
      "t": 219252.4679999999,
      "d": 313.0842999999877,
      "v": 38
    },
    {
      "midi": 71,
      "hit": false,
      "t": 219285.17830000003,
      "d": 313.0842999999877,
      "v": 38
    },
    {
      "midi": 72,
      "hit": false,
      "t": 219439.3839999999,
      "d": 280.3740000000107,
      "v": 21
    },
    {
      "midi": 72,
      "hit": false,
      "t": 219472.09430000003,
      "d": 280.3740000000107,
      "v": 21
    },
    {
      "midi": 74,
      "hit": false,
      "t": 219626.2999999999,
      "d": 336.44880000001285,
      "v": 21
    },
    {
      "midi": 74,
      "hit": false,
      "t": 219659.01030000002,
      "d": 336.44880000001285,
      "v": 21
    },
    {
      "midi": 76,
      "hit": false,
      "t": 219813.2159999999,
      "d": 359.813300000038,
      "v": 38
    },
    {
      "midi": 52,
      "hit": false,
      "t": 219822.5617999999,
      "d": 2219.6275000000023,
      "v": 17
    },
    {
      "midi": 57,
      "hit": false,
      "t": 219822.5617999999,
      "d": 2219.6275000000023,
      "v": 17
    },
    {
      "midi": 76,
      "hit": false,
      "t": 219845.92630000002,
      "d": 359.813300000038,
      "v": 38
    },
    {
      "midi": 52,
      "hit": false,
      "t": 219855.27210000003,
      "d": 2219.6275000000023,
      "v": 17
    },
    {
      "midi": 57,
      "hit": false,
      "t": 219855.27210000003,
      "d": 2219.6275000000023,
      "v": 17
    },
    {
      "midi": 69,
      "hit": false,
      "t": 220000.13199999993,
      "d": 383.17780000000494,
      "v": 20
    },
    {
      "midi": 69,
      "hit": false,
      "t": 220032.84230000005,
      "d": 383.17780000000494,
      "v": 20
    },
    {
      "midi": 64,
      "hit": false,
      "t": 220187.04799999992,
      "d": 373.8319999999949,
      "v": 20
    },
    {
      "midi": 64,
      "hit": false,
      "t": 220219.75830000004,
      "d": 373.8319999999949,
      "v": 20
    },
    {
      "midi": 74,
      "hit": false,
      "t": 220373.96399999992,
      "d": 336.44879999998375,
      "v": 41
    },
    {
      "midi": 74,
      "hit": false,
      "t": 220406.67430000004,
      "d": 336.44879999998375,
      "v": 41
    },
    {
      "midi": 69,
      "hit": false,
      "t": 220560.87999999992,
      "d": 350.46749999999884,
      "v": 21
    },
    {
      "midi": 69,
      "hit": false,
      "t": 220593.59030000004,
      "d": 350.46749999999884,
      "v": 21
    },
    {
      "midi": 64,
      "hit": false,
      "t": 220747.79599999991,
      "d": 383.17780000000494,
      "v": 23
    },
    {
      "midi": 64,
      "hit": false,
      "t": 220780.50630000004,
      "d": 383.17780000000494,
      "v": 23
    },
    {
      "midi": 72,
      "hit": false,
      "t": 220934.7119999999,
      "d": 327.1030000000028,
      "v": 42
    },
    {
      "midi": 72,
      "hit": false,
      "t": 220967.42230000003,
      "d": 327.1030000000028,
      "v": 42
    },
    {
      "midi": 69,
      "hit": false,
      "t": 221121.6279999999,
      "d": 359.8133000000089,
      "v": 22
    },
    {
      "midi": 69,
      "hit": false,
      "t": 221154.33830000003,
      "d": 359.8133000000089,
      "v": 22
    },
    {
      "midi": 64,
      "hit": false,
      "t": 221308.5439999999,
      "d": 327.1030000000028,
      "v": 22
    },
    {
      "midi": 64,
      "hit": false,
      "t": 221341.25430000003,
      "d": 327.1030000000028,
      "v": 22
    },
    {
      "midi": 69,
      "hit": false,
      "t": 221495.4599999999,
      "d": 327.1030000000028,
      "v": 41
    },
    {
      "midi": 69,
      "hit": false,
      "t": 221528.17030000003,
      "d": 327.1030000000028,
      "v": 41
    },
    {
      "midi": 64,
      "hit": false,
      "t": 221682.3759999999,
      "d": 443.925499999983,
      "v": 24
    },
    {
      "midi": 64,
      "hit": false,
      "t": 221715.08630000002,
      "d": 443.925499999983,
      "v": 24
    },
    {
      "midi": 69,
      "hit": false,
      "t": 221869.2919999999,
      "d": 359.8132999999798,
      "v": 23
    },
    {
      "midi": 69,
      "hit": false,
      "t": 221902.00230000002,
      "d": 359.8132999999798,
      "v": 23
    },
    {
      "midi": 74,
      "hit": false,
      "t": 222056.2079999999,
      "d": 420.56099999995786,
      "v": 41
    },
    {
      "midi": 59,
      "hit": false,
      "t": 222079.5724999999,
      "d": 2219.627499999944,
      "v": 21
    },
    {
      "midi": 74,
      "hit": false,
      "t": 222088.91830000002,
      "d": 420.56099999995786,
      "v": 41
    },
    {
      "midi": 59,
      "hit": false,
      "t": 222112.28280000002,
      "d": 2219.627499999944,
      "v": 21
    },
    {
      "midi": 62,
      "hit": false,
      "t": 222243.12399999987,
      "d": 359.8132999999798,
      "v": 25
    },
    {
      "midi": 62,
      "hit": false,
      "t": 222275.8343,
      "d": 359.8132999999798,
      "v": 25
    },
    {
      "midi": 67,
      "hit": false,
      "t": 222430.03999999986,
      "d": 359.8132999999798,
      "v": 25
    },
    {
      "midi": 67,
      "hit": false,
      "t": 222462.75029999999,
      "d": 359.8132999999798,
      "v": 25
    },
    {
      "midi": 71,
      "hit": false,
      "t": 222616.95599999983,
      "d": 420.56099999998696,
      "v": 43
    },
    {
      "midi": 71,
      "hit": false,
      "t": 222649.66629999995,
      "d": 420.56099999998696,
      "v": 43
    },
    {
      "midi": 62,
      "hit": false,
      "t": 222803.87199999983,
      "d": 1495.3280000000086,
      "v": 28
    },
    {
      "midi": 62,
      "hit": false,
      "t": 222836.58229999995,
      "d": 1495.3280000000086,
      "v": 28
    },
    {
      "midi": 67,
      "hit": false,
      "t": 222990.78799999983,
      "d": 186.91599999999744,
      "v": 28
    },
    {
      "midi": 67,
      "hit": false,
      "t": 223023.49829999995,
      "d": 186.91599999999744,
      "v": 28
    },
    {
      "midi": 67,
      "hit": false,
      "t": 223177.70399999982,
      "d": 1121.4960000000137,
      "v": 44
    },
    {
      "midi": 67,
      "hit": false,
      "t": 223210.41429999995,
      "d": 1121.4960000000137,
      "v": 44
    },
    {
      "midi": 41,
      "hit": false,
      "t": 224299.19999999984,
      "d": 2219.627499999973,
      "v": 19
    },
    {
      "midi": 76,
      "hit": false,
      "t": 224308.54579999985,
      "d": 397.1964999999909,
      "v": 44
    },
    {
      "midi": 41,
      "hit": false,
      "t": 224331.91029999996,
      "d": 2219.627499999973,
      "v": 19
    },
    {
      "midi": 76,
      "hit": false,
      "t": 224341.25609999997,
      "d": 397.1964999999909,
      "v": 44
    },
    {
      "midi": 69,
      "hit": false,
      "t": 224486.11599999983,
      "d": 397.1964999999909,
      "v": 27
    },
    {
      "midi": 69,
      "hit": false,
      "t": 224518.82629999996,
      "d": 397.1964999999909,
      "v": 27
    },
    {
      "midi": 64,
      "hit": false,
      "t": 224673.03199999983,
      "d": 397.1964999999909,
      "v": 26
    },
    {
      "midi": 64,
      "hit": false,
      "t": 224705.74229999995,
      "d": 397.1964999999909,
      "v": 26
    },
    {
      "midi": 74,
      "hit": false,
      "t": 224859.94799999983,
      "d": 397.1964999999909,
      "v": 42
    },
    {
      "midi": 74,
      "hit": false,
      "t": 224892.65829999995,
      "d": 397.1964999999909,
      "v": 42
    },
    {
      "midi": 69,
      "hit": false,
      "t": 225046.86399999983,
      "d": 397.1964999999909,
      "v": 25
    },
    {
      "midi": 69,
      "hit": false,
      "t": 225079.57429999995,
      "d": 397.1964999999909,
      "v": 25
    },
    {
      "midi": 64,
      "hit": false,
      "t": 225233.77999999982,
      "d": 397.1964999999909,
      "v": 26
    },
    {
      "midi": 64,
      "hit": false,
      "t": 225266.49029999995,
      "d": 397.1964999999909,
      "v": 26
    },
    {
      "midi": 72,
      "hit": false,
      "t": 225420.69599999982,
      "d": 397.1964999999909,
      "v": 43
    },
    {
      "midi": 72,
      "hit": false,
      "t": 225453.40629999994,
      "d": 397.1964999999909,
      "v": 43
    },
    {
      "midi": 69,
      "hit": false,
      "t": 225607.61199999982,
      "d": 373.8319999999949,
      "v": 26
    },
    {
      "midi": 69,
      "hit": false,
      "t": 225640.32229999994,
      "d": 373.8319999999949,
      "v": 26
    },
    {
      "midi": 64,
      "hit": false,
      "t": 225794.52799999982,
      "d": 397.1964999999909,
      "v": 26
    },
    {
      "midi": 64,
      "hit": false,
      "t": 225827.23829999994,
      "d": 397.1964999999909,
      "v": 26
    },
    {
      "midi": 69,
      "hit": false,
      "t": 225981.4439999998,
      "d": 186.91599999999744,
      "v": 43
    },
    {
      "midi": 69,
      "hit": false,
      "t": 226014.15429999994,
      "d": 186.91599999999744,
      "v": 43
    },
    {
      "midi": 69,
      "hit": false,
      "t": 226168.3599999998,
      "d": 397.1964999999909,
      "v": 26
    },
    {
      "midi": 69,
      "hit": false,
      "t": 226201.07029999993,
      "d": 397.1964999999909,
      "v": 26
    },
    {
      "midi": 64,
      "hit": false,
      "t": 226355.2759999998,
      "d": 397.1964999999909,
      "v": 26
    },
    {
      "midi": 64,
      "hit": false,
      "t": 226387.98629999993,
      "d": 397.1964999999909,
      "v": 26
    },
    {
      "midi": 74,
      "hit": false,
      "t": 226542.1919999998,
      "d": 397.1964999999909,
      "v": 44
    },
    {
      "midi": 43,
      "hit": false,
      "t": 226542.1919999998,
      "d": 2219.627499999973,
      "v": 19
    },
    {
      "midi": 50,
      "hit": false,
      "t": 226551.53779999982,
      "d": 2219.627499999973,
      "v": 19
    },
    {
      "midi": 74,
      "hit": false,
      "t": 226574.90229999993,
      "d": 397.1964999999909,
      "v": 44
    },
    {
      "midi": 43,
      "hit": false,
      "t": 226574.90229999993,
      "d": 2219.627499999973,
      "v": 19
    },
    {
      "midi": 50,
      "hit": false,
      "t": 226584.24809999994,
      "d": 2219.627499999973,
      "v": 19
    },
    {
      "midi": 67,
      "hit": false,
      "t": 226729.1079999998,
      "d": 443.925499999983,
      "v": 21
    },
    {
      "midi": 67,
      "hit": false,
      "t": 226761.81829999993,
      "d": 443.925499999983,
      "v": 21
    },
    {
      "midi": 64,
      "hit": false,
      "t": 226916.0239999998,
      "d": 443.925499999983,
      "v": 21
    },
    {
      "midi": 64,
      "hit": false,
      "t": 226948.73429999992,
      "d": 443.925499999983,
      "v": 21
    },
    {
      "midi": 72,
      "hit": false,
      "t": 227102.9399999998,
      "d": 397.1964999999909,
      "v": 44
    },
    {
      "midi": 72,
      "hit": false,
      "t": 227135.65029999992,
      "d": 397.1964999999909,
      "v": 44
    },
    {
      "midi": 67,
      "hit": false,
      "t": 227289.8559999998,
      "d": 443.925499999983,
      "v": 21
    },
    {
      "midi": 67,
      "hit": false,
      "t": 227322.56629999992,
      "d": 443.925499999983,
      "v": 21
    },
    {
      "midi": 64,
      "hit": false,
      "t": 227476.7719999998,
      "d": 443.925499999983,
      "v": 21
    },
    {
      "midi": 64,
      "hit": false,
      "t": 227509.48229999992,
      "d": 443.925499999983,
      "v": 21
    },
    {
      "midi": 71,
      "hit": false,
      "t": 227663.6879999998,
      "d": 397.1964999999909,
      "v": 45
    },
    {
      "midi": 71,
      "hit": false,
      "t": 227696.3982999999,
      "d": 397.1964999999909,
      "v": 45
    },
    {
      "midi": 67,
      "hit": false,
      "t": 227850.6039999998,
      "d": 373.8319999999949,
      "v": 21
    },
    {
      "midi": 67,
      "hit": false,
      "t": 227883.3142999999,
      "d": 373.8319999999949,
      "v": 21
    },
    {
      "midi": 64,
      "hit": false,
      "t": 228037.5199999998,
      "d": 373.8319999999949,
      "v": 21
    },
    {
      "midi": 64,
      "hit": false,
      "t": 228070.2302999999,
      "d": 373.8319999999949,
      "v": 21
    },
    {
      "midi": 67,
      "hit": false,
      "t": 228224.43599999978,
      "d": 186.91599999999744,
      "v": 45
    },
    {
      "midi": 67,
      "hit": false,
      "t": 228257.1462999999,
      "d": 186.91599999999744,
      "v": 45
    },
    {
      "midi": 67,
      "hit": false,
      "t": 228411.35199999978,
      "d": 373.8319999999949,
      "v": 21
    },
    {
      "midi": 67,
      "hit": false,
      "t": 228444.0622999999,
      "d": 373.8319999999949,
      "v": 21
    },
    {
      "midi": 64,
      "hit": false,
      "t": 228598.26799999978,
      "d": 186.91599999999744,
      "v": 21
    },
    {
      "midi": 64,
      "hit": false,
      "t": 228630.9782999999,
      "d": 186.91599999999744,
      "v": 21
    },
    {
      "midi": 62,
      "hit": false,
      "t": 228785.18399999978,
      "d": 373.832000000024,
      "v": 21
    },
    {
      "midi": 67,
      "hit": false,
      "t": 228785.18399999978,
      "d": 373.832000000024,
      "v": 27
    },
    {
      "midi": 57,
      "hit": false,
      "t": 228785.18399999978,
      "d": 2056.076000000001,
      "v": 19
    },
    {
      "midi": 45,
      "hit": false,
      "t": 228794.5297999998,
      "d": 2056.076000000001,
      "v": 19
    },
    {
      "midi": 62,
      "hit": false,
      "t": 228817.8942999999,
      "d": 373.832000000024,
      "v": 21
    },
    {
      "midi": 67,
      "hit": false,
      "t": 228817.8942999999,
      "d": 373.832000000024,
      "v": 27
    },
    {
      "midi": 57,
      "hit": false,
      "t": 228817.8942999999,
      "d": 2056.076000000001,
      "v": 19
    },
    {
      "midi": 45,
      "hit": false,
      "t": 228827.2400999999,
      "d": 2056.076000000001,
      "v": 19
    },
    {
      "midi": 69,
      "hit": false,
      "t": 229159.0159999998,
      "d": 1294.393299999996,
      "v": 27
    },
    {
      "midi": 64,
      "hit": false,
      "t": 229159.0159999998,
      "d": 1457.9447999999684,
      "v": 21
    },
    {
      "midi": 69,
      "hit": false,
      "t": 229191.72629999992,
      "d": 1294.393299999996,
      "v": 27
    },
    {
      "midi": 64,
      "hit": false,
      "t": 229191.72629999992,
      "d": 1457.9447999999684,
      "v": 21
    },
    {
      "midi": 69,
      "hit": false,
      "t": 230467.42799999978,
      "d": 1308.411999999982,
      "v": 27
    },
    {
      "midi": 69,
      "hit": false,
      "t": 230500.1382999999,
      "d": 1308.411999999982,
      "v": 27
    },
    {
      "midi": 64,
      "hit": false,
      "t": 230654.34399999978,
      "d": 1682.243999999977,
      "v": 27
    },
    {
      "midi": 64,
      "hit": false,
      "t": 230687.0542999999,
      "d": 1682.243999999977,
      "v": 27
    },
    {
      "midi": 57,
      "hit": false,
      "t": 230841.25999999978,
      "d": 2242.9919999999693,
      "v": 27
    },
    {
      "midi": 57,
      "hit": false,
      "t": 230873.9702999999,
      "d": 2242.9919999999693,
      "v": 27
    },
    {
      "midi": 52,
      "hit": false,
      "t": 231028.17599999977,
      "d": 1308.411999999982,
      "v": 27
    },
    {
      "midi": 52,
      "hit": false,
      "t": 231060.8862999999,
      "d": 1308.411999999982,
      "v": 27
    },
    {
      "midi": 48,
      "hit": false,
      "t": 231215.09199999977,
      "d": 1308.411999999982,
      "v": 19
    },
    {
      "midi": 48,
      "hit": false,
      "t": 231247.8022999999,
      "d": 1308.411999999982,
      "v": 19
    },
    {
      "midi": 45,
      "hit": false,
      "t": 231402.00799999977,
      "d": 1869.1599999999744,
      "v": 19
    },
    {
      "midi": 45,
      "hit": false,
      "t": 231434.7182999999,
      "d": 1869.1599999999744,
      "v": 19
    },
    {
      "midi": 69,
      "hit": false,
      "t": 231775.83999999976,
      "d": 1121.4959999999846,
      "v": 19
    },
    {
      "midi": 69,
      "hit": false,
      "t": 231808.5502999999,
      "d": 1121.4959999999846,
      "v": 19
    },
    {
      "midi": 76,
      "hit": false,
      "t": 233271.16799999974,
      "d": 359.813300000038,
      "v": 37
    },
    {
      "midi": 72,
      "hit": false,
      "t": 233275.84089999998,
      "d": 476.6357999999891,
      "v": 31
    },
    {
      "midi": 57,
      "hit": false,
      "t": 233280.51379999975,
      "d": 2219.6275000000023,
      "v": 19
    },
    {
      "midi": 52,
      "hit": false,
      "t": 233285.18669999976,
      "d": 2219.6275000000023,
      "v": 19
    },
    {
      "midi": 76,
      "hit": false,
      "t": 233303.87829999987,
      "d": 359.813300000038,
      "v": 37
    },
    {
      "midi": 57,
      "hit": false,
      "t": 233313.22409999988,
      "d": 2219.6275000000023,
      "v": 19
    },
    {
      "midi": 52,
      "hit": false,
      "t": 233317.89699999988,
      "d": 2219.6275000000023,
      "v": 19
    },
    {
      "midi": 69,
      "hit": false,
      "t": 233458.08399999977,
      "d": 383.17780000000494,
      "v": 21
    },
    {
      "midi": 69,
      "hit": false,
      "t": 233490.7942999999,
      "d": 383.17780000000494,
      "v": 21
    },
    {
      "midi": 64,
      "hit": false,
      "t": 233644.99999999977,
      "d": 373.8319999999949,
      "v": 21
    },
    {
      "midi": 64,
      "hit": false,
      "t": 233677.7102999999,
      "d": 373.8319999999949,
      "v": 21
    },
    {
      "midi": 71,
      "hit": false,
      "t": 233822.57019999996,
      "d": 518.6919000000053,
      "v": 31
    },
    {
      "midi": 74,
      "hit": false,
      "t": 233831.91599999976,
      "d": 336.44879999998375,
      "v": 39
    },
    {
      "midi": 74,
      "hit": false,
      "t": 233864.6262999999,
      "d": 336.44879999998375,
      "v": 39
    },
    {
      "midi": 69,
      "hit": false,
      "t": 234018.83199999976,
      "d": 350.46749999999884,
      "v": 21
    },
    {
      "midi": 69,
      "hit": false,
      "t": 234051.54229999988,
      "d": 350.46749999999884,
      "v": 21
    },
    {
      "midi": 64,
      "hit": false,
      "t": 234205.74799999976,
      "d": 383.17780000000494,
      "v": 21
    },
    {
      "midi": 64,
      "hit": false,
      "t": 234238.45829999988,
      "d": 383.17780000000494,
      "v": 21
    },
    {
      "midi": 72,
      "hit": false,
      "t": 234392.66399999976,
      "d": 327.1030000000028,
      "v": 40
    },
    {
      "midi": 69,
      "hit": false,
      "t": 234402.00979999997,
      "d": 542.0564000000013,
      "v": 31
    },
    {
      "midi": 72,
      "hit": false,
      "t": 234425.37429999988,
      "d": 327.1030000000028,
      "v": 40
    },
    {
      "midi": 69,
      "hit": false,
      "t": 234579.57999999975,
      "d": 359.8133000000089,
      "v": 21
    },
    {
      "midi": 69,
      "hit": false,
      "t": 234612.29029999988,
      "d": 359.8133000000089,
      "v": 21
    },
    {
      "midi": 64,
      "hit": false,
      "t": 234766.49599999975,
      "d": 327.1030000000028,
      "v": 21
    },
    {
      "midi": 64,
      "hit": false,
      "t": 234799.20629999987,
      "d": 327.1030000000028,
      "v": 21
    },
    {
      "midi": 69,
      "hit": false,
      "t": 234953.41199999975,
      "d": 327.1030000000028,
      "v": 38
    },
    {
      "midi": 69,
      "hit": false,
      "t": 234986.12229999987,
      "d": 327.1030000000028,
      "v": 38
    },
    {
      "midi": 72,
      "hit": false,
      "t": 234986.12229999996,
      "d": 518.6919000000053,
      "v": 32
    },
    {
      "midi": 64,
      "hit": false,
      "t": 235140.32799999975,
      "d": 443.9255000000412,
      "v": 21
    },
    {
      "midi": 64,
      "hit": false,
      "t": 235173.03829999987,
      "d": 443.9255000000412,
      "v": 21
    },
    {
      "midi": 69,
      "hit": false,
      "t": 235327.24399999974,
      "d": 383.17780000006314,
      "v": 21
    },
    {
      "midi": 69,
      "hit": false,
      "t": 235359.95429999987,
      "d": 383.17780000006314,
      "v": 21
    },
    {
      "midi": 74,
      "hit": false,
      "t": 235514.15999999977,
      "d": 420.56100000001607,
      "v": 38
    },
    {
      "midi": 59,
      "hit": false,
      "t": 235523.50579999978,
      "d": 2219.6275000000023,
      "v": 19
    },
    {
      "midi": 71,
      "hit": false,
      "t": 235528.17869999996,
      "d": 495.3274000000092,
      "v": 32
    },
    {
      "midi": 74,
      "hit": false,
      "t": 235546.8702999999,
      "d": 420.56100000001607,
      "v": 38
    },
    {
      "midi": 59,
      "hit": false,
      "t": 235556.2160999999,
      "d": 2219.6275000000023,
      "v": 19
    },
    {
      "midi": 67,
      "hit": false,
      "t": 235701.0759999998,
      "d": 429.906799999997,
      "v": 21
    },
    {
      "midi": 67,
      "hit": false,
      "t": 235733.78629999992,
      "d": 429.906799999997,
      "v": 21
    },
    {
      "midi": 64,
      "hit": false,
      "t": 235887.9919999998,
      "d": 383.17780000000494,
      "v": 21
    },
    {
      "midi": 64,
      "hit": false,
      "t": 235920.70229999992,
      "d": 383.17780000000494,
      "v": 21
    },
    {
      "midi": 69,
      "hit": false,
      "t": 236070.23509999996,
      "d": 537.3834999999963,
      "v": 33
    },
    {
      "midi": 72,
      "hit": false,
      "t": 236074.9079999998,
      "d": 406.542300000001,
      "v": 37
    },
    {
      "midi": 72,
      "hit": false,
      "t": 236107.61829999991,
      "d": 406.542300000001,
      "v": 37
    },
    {
      "midi": 67,
      "hit": false,
      "t": 236261.8239999998,
      "d": 443.925499999983,
      "v": 21
    },
    {
      "midi": 67,
      "hit": false,
      "t": 236294.5342999999,
      "d": 443.925499999983,
      "v": 21
    },
    {
      "midi": 64,
      "hit": false,
      "t": 236448.7399999998,
      "d": 383.17780000000494,
      "v": 21
    },
    {
      "midi": 64,
      "hit": false,
      "t": 236481.4502999999,
      "d": 383.17780000000494,
      "v": 21
    },
    {
      "midi": 71,
      "hit": false,
      "t": 236635.65599999978,
      "d": 443.925499999983,
      "v": 38
    },
    {
      "midi": 67,
      "hit": false,
      "t": 236645.00179999997,
      "d": 528.0376999999862,
      "v": 33
    },
    {
      "midi": 71,
      "hit": false,
      "t": 236668.3662999999,
      "d": 443.925499999983,
      "v": 38
    },
    {
      "midi": 67,
      "hit": false,
      "t": 236822.57199999978,
      "d": 350.46749999999884,
      "v": 21
    },
    {
      "midi": 67,
      "hit": false,
      "t": 236855.2822999999,
      "d": 350.46749999999884,
      "v": 21
    },
    {
      "midi": 64,
      "hit": false,
      "t": 237009.48799999978,
      "d": 350.46749999999884,
      "v": 21
    },
    {
      "midi": 64,
      "hit": false,
      "t": 237042.1982999999,
      "d": 350.46749999999884,
      "v": 21
    },
    {
      "midi": 71,
      "hit": false,
      "t": 237196.40399999978,
      "d": 313.0842999999877,
      "v": 38
    },
    {
      "midi": 67,
      "hit": false,
      "t": 237196.40399999995,
      "d": 186.91599999999744,
      "v": 31
    },
    {
      "midi": 71,
      "hit": false,
      "t": 237229.1142999999,
      "d": 313.0842999999877,
      "v": 38
    },
    {
      "midi": 72,
      "hit": false,
      "t": 237383.31999999977,
      "d": 280.3740000000107,
      "v": 21
    },
    {
      "midi": 69,
      "hit": false,
      "t": 237383.31999999995,
      "d": 186.91599999999744,
      "v": 31
    },
    {
      "midi": 72,
      "hit": false,
      "t": 237416.0302999999,
      "d": 280.3740000000107,
      "v": 21
    },
    {
      "midi": 74,
      "hit": false,
      "t": 237570.23599999977,
      "d": 336.44880000001285,
      "v": 21
    },
    {
      "midi": 71,
      "hit": false,
      "t": 237570.23599999995,
      "d": 186.91599999999744,
      "v": 31
    },
    {
      "midi": 74,
      "hit": false,
      "t": 237602.9462999999,
      "d": 336.44880000001285,
      "v": 21
    },
    {
      "midi": 76,
      "hit": false,
      "t": 237757.15199999977,
      "d": 359.813300000038,
      "v": 38
    },
    {
      "midi": 72,
      "hit": false,
      "t": 237757.15199999994,
      "d": 560.7479999999923,
      "v": 31
    },
    {
      "midi": 52,
      "hit": false,
      "t": 237766.49779999978,
      "d": 2219.6275000000023,
      "v": 17
    },
    {
      "midi": 57,
      "hit": false,
      "t": 237766.49779999978,
      "d": 2219.6275000000023,
      "v": 17
    },
    {
      "midi": 76,
      "hit": false,
      "t": 237789.8622999999,
      "d": 359.813300000038,
      "v": 38
    },
    {
      "midi": 52,
      "hit": false,
      "t": 237799.2080999999,
      "d": 2219.6275000000023,
      "v": 17
    },
    {
      "midi": 57,
      "hit": false,
      "t": 237799.2080999999,
      "d": 2219.6275000000023,
      "v": 17
    },
    {
      "midi": 69,
      "hit": false,
      "t": 237944.0679999998,
      "d": 383.17780000000494,
      "v": 20
    },
    {
      "midi": 69,
      "hit": false,
      "t": 237976.77829999992,
      "d": 383.17780000000494,
      "v": 20
    },
    {
      "midi": 64,
      "hit": false,
      "t": 238130.9839999998,
      "d": 373.8319999999949,
      "v": 20
    },
    {
      "midi": 64,
      "hit": false,
      "t": 238163.69429999992,
      "d": 373.8319999999949,
      "v": 20
    },
    {
      "midi": 74,
      "hit": false,
      "t": 238317.8999999998,
      "d": 336.44879999998375,
      "v": 41
    },
    {
      "midi": 71,
      "hit": false,
      "t": 238317.89999999994,
      "d": 560.7479999999923,
      "v": 31
    },
    {
      "midi": 74,
      "hit": false,
      "t": 238350.6102999999,
      "d": 336.44879999998375,
      "v": 41
    },
    {
      "midi": 69,
      "hit": false,
      "t": 238504.8159999998,
      "d": 350.46749999999884,
      "v": 21
    },
    {
      "midi": 69,
      "hit": false,
      "t": 238537.5262999999,
      "d": 350.46749999999884,
      "v": 21
    },
    {
      "midi": 64,
      "hit": false,
      "t": 238691.73199999979,
      "d": 383.17780000000494,
      "v": 23
    },
    {
      "midi": 64,
      "hit": false,
      "t": 238724.4422999999,
      "d": 383.17780000000494,
      "v": 23
    },
    {
      "midi": 72,
      "hit": false,
      "t": 238878.64799999978,
      "d": 327.1030000000028,
      "v": 42
    },
    {
      "midi": 69,
      "hit": false,
      "t": 238878.64799999993,
      "d": 560.7479999999923,
      "v": 31
    },
    {
      "midi": 72,
      "hit": false,
      "t": 238911.3582999999,
      "d": 327.1030000000028,
      "v": 42
    },
    {
      "midi": 69,
      "hit": false,
      "t": 239065.56399999978,
      "d": 359.8133000000089,
      "v": 22
    },
    {
      "midi": 69,
      "hit": false,
      "t": 239098.2742999999,
      "d": 359.8133000000089,
      "v": 22
    },
    {
      "midi": 64,
      "hit": false,
      "t": 239252.47999999978,
      "d": 327.1030000000028,
      "v": 22
    },
    {
      "midi": 64,
      "hit": false,
      "t": 239285.1902999999,
      "d": 327.1030000000028,
      "v": 22
    },
    {
      "midi": 69,
      "hit": false,
      "t": 239439.39599999978,
      "d": 327.1030000000028,
      "v": 41
    },
    {
      "midi": 72,
      "hit": false,
      "t": 239439.39599999992,
      "d": 560.7479999999923,
      "v": 31
    },
    {
      "midi": 69,
      "hit": false,
      "t": 239472.1062999999,
      "d": 327.1030000000028,
      "v": 41
    },
    {
      "midi": 64,
      "hit": false,
      "t": 239626.31199999977,
      "d": 443.925499999983,
      "v": 24
    },
    {
      "midi": 64,
      "hit": false,
      "t": 239659.0222999999,
      "d": 443.925499999983,
      "v": 24
    },
    {
      "midi": 69,
      "hit": false,
      "t": 239813.22799999977,
      "d": 359.8132999999798,
      "v": 23
    },
    {
      "midi": 69,
      "hit": false,
      "t": 239845.9382999999,
      "d": 359.8132999999798,
      "v": 23
    },
    {
      "midi": 74,
      "hit": false,
      "t": 240000.14399999977,
      "d": 420.56099999995786,
      "v": 41
    },
    {
      "midi": 71,
      "hit": false,
      "t": 240000.1439999999,
      "d": 560.7479999999923,
      "v": 31
    },
    {
      "midi": 59,
      "hit": false,
      "t": 240023.50849999976,
      "d": 2219.627499999944,
      "v": 21
    },
    {
      "midi": 74,
      "hit": false,
      "t": 240032.8542999999,
      "d": 420.56099999995786,
      "v": 41
    },
    {
      "midi": 59,
      "hit": false,
      "t": 240056.2187999999,
      "d": 2219.627499999944,
      "v": 21
    },
    {
      "midi": 62,
      "hit": false,
      "t": 240187.05999999974,
      "d": 359.8132999999798,
      "v": 25
    },
    {
      "midi": 62,
      "hit": false,
      "t": 240219.77029999986,
      "d": 359.8132999999798,
      "v": 25
    },
    {
      "midi": 67,
      "hit": false,
      "t": 240373.97599999973,
      "d": 359.8132999999798,
      "v": 25
    },
    {
      "midi": 67,
      "hit": false,
      "t": 240406.68629999986,
      "d": 359.8132999999798,
      "v": 25
    },
    {
      "midi": 71,
      "hit": false,
      "t": 240560.8919999997,
      "d": 420.56099999998696,
      "v": 43
    },
    {
      "midi": 67,
      "hit": false,
      "t": 240560.8919999999,
      "d": 560.7479999999923,
      "v": 31
    },
    {
      "midi": 71,
      "hit": false,
      "t": 240593.60229999982,
      "d": 420.56099999998696,
      "v": 43
    },
    {
      "midi": 62,
      "hit": false,
      "t": 240747.8079999997,
      "d": 1495.3280000000086,
      "v": 28
    },
    {
      "midi": 62,
      "hit": false,
      "t": 240780.51829999982,
      "d": 1495.3280000000086,
      "v": 28
    },
    {
      "midi": 67,
      "hit": false,
      "t": 240934.7239999997,
      "d": 186.91599999999744,
      "v": 28
    },
    {
      "midi": 67,
      "hit": false,
      "t": 240967.43429999982,
      "d": 186.91599999999744,
      "v": 28
    },
    {
      "midi": 67,
      "hit": false,
      "t": 241121.6399999997,
      "d": 1121.4960000000137,
      "v": 44
    },
    {
      "midi": 62,
      "hit": false,
      "t": 241121.6399999999,
      "d": 1121.4960000000137,
      "v": 31
    },
    {
      "midi": 67,
      "hit": false,
      "t": 241154.35029999982,
      "d": 1121.4960000000137,
      "v": 44
    },
    {
      "midi": 41,
      "hit": false,
      "t": 242243.1359999997,
      "d": 2219.627499999973,
      "v": 19
    },
    {
      "midi": 72,
      "hit": false,
      "t": 242243.1359999999,
      "d": 560.7479999999923,
      "v": 31
    },
    {
      "midi": 76,
      "hit": false,
      "t": 242252.48179999972,
      "d": 397.1964999999909,
      "v": 44
    },
    {
      "midi": 41,
      "hit": false,
      "t": 242275.84629999983,
      "d": 2219.627499999973,
      "v": 19
    },
    {
      "midi": 76,
      "hit": false,
      "t": 242285.19209999984,
      "d": 397.1964999999909,
      "v": 44
    },
    {
      "midi": 69,
      "hit": false,
      "t": 242430.0519999997,
      "d": 397.1964999999909,
      "v": 27
    },
    {
      "midi": 69,
      "hit": false,
      "t": 242462.76229999983,
      "d": 397.1964999999909,
      "v": 27
    },
    {
      "midi": 64,
      "hit": false,
      "t": 242616.9679999997,
      "d": 397.1964999999909,
      "v": 26
    },
    {
      "midi": 64,
      "hit": false,
      "t": 242649.67829999982,
      "d": 397.1964999999909,
      "v": 26
    },
    {
      "midi": 74,
      "hit": false,
      "t": 242803.8839999997,
      "d": 397.1964999999909,
      "v": 42
    },
    {
      "midi": 71,
      "hit": false,
      "t": 242803.8839999999,
      "d": 560.7479999999923,
      "v": 31
    },
    {
      "midi": 74,
      "hit": false,
      "t": 242836.59429999982,
      "d": 397.1964999999909,
      "v": 42
    },
    {
      "midi": 69,
      "hit": false,
      "t": 242990.7999999997,
      "d": 397.1964999999909,
      "v": 25
    },
    {
      "midi": 69,
      "hit": false,
      "t": 243023.51029999982,
      "d": 397.1964999999909,
      "v": 25
    },
    {
      "midi": 64,
      "hit": false,
      "t": 243177.7159999997,
      "d": 397.1964999999909,
      "v": 26
    },
    {
      "midi": 64,
      "hit": false,
      "t": 243210.42629999982,
      "d": 397.1964999999909,
      "v": 26
    },
    {
      "midi": 72,
      "hit": false,
      "t": 243364.6319999997,
      "d": 397.1964999999909,
      "v": 43
    },
    {
      "midi": 69,
      "hit": false,
      "t": 243364.6319999999,
      "d": 560.7479999999923,
      "v": 31
    },
    {
      "midi": 72,
      "hit": false,
      "t": 243397.34229999981,
      "d": 397.1964999999909,
      "v": 43
    },
    {
      "midi": 69,
      "hit": false,
      "t": 243551.5479999997,
      "d": 373.8319999999949,
      "v": 26
    },
    {
      "midi": 69,
      "hit": false,
      "t": 243584.2582999998,
      "d": 373.8319999999949,
      "v": 26
    },
    {
      "midi": 64,
      "hit": false,
      "t": 243738.4639999997,
      "d": 397.1964999999909,
      "v": 26
    },
    {
      "midi": 64,
      "hit": false,
      "t": 243771.1742999998,
      "d": 397.1964999999909,
      "v": 26
    },
    {
      "midi": 69,
      "hit": false,
      "t": 243925.37999999968,
      "d": 186.91599999999744,
      "v": 43
    },
    {
      "midi": 72,
      "hit": false,
      "t": 243925.3799999999,
      "d": 560.7479999999923,
      "v": 31
    },
    {
      "midi": 69,
      "hit": false,
      "t": 243958.0902999998,
      "d": 186.91599999999744,
      "v": 43
    },
    {
      "midi": 69,
      "hit": false,
      "t": 244112.29599999968,
      "d": 397.1964999999909,
      "v": 26
    },
    {
      "midi": 69,
      "hit": false,
      "t": 244145.0062999998,
      "d": 397.1964999999909,
      "v": 26
    },
    {
      "midi": 64,
      "hit": false,
      "t": 244299.21199999968,
      "d": 397.1964999999909,
      "v": 26
    },
    {
      "midi": 64,
      "hit": false,
      "t": 244331.9222999998,
      "d": 397.1964999999909,
      "v": 26
    },
    {
      "midi": 74,
      "hit": false,
      "t": 244486.12799999968,
      "d": 397.1964999999909,
      "v": 44
    },
    {
      "midi": 43,
      "hit": false,
      "t": 244486.12799999968,
      "d": 2219.627499999973,
      "v": 19
    },
    {
      "midi": 71,
      "hit": false,
      "t": 244486.12799999988,
      "d": 560.7479999999923,
      "v": 31
    },
    {
      "midi": 50,
      "hit": false,
      "t": 244495.4737999997,
      "d": 2219.627499999973,
      "v": 19
    },
    {
      "midi": 74,
      "hit": false,
      "t": 244518.8382999998,
      "d": 397.1964999999909,
      "v": 44
    },
    {
      "midi": 43,
      "hit": false,
      "t": 244518.8382999998,
      "d": 2219.627499999973,
      "v": 19
    },
    {
      "midi": 50,
      "hit": false,
      "t": 244528.1840999998,
      "d": 2219.627499999973,
      "v": 19
    },
    {
      "midi": 67,
      "hit": false,
      "t": 244673.04399999967,
      "d": 443.925499999983,
      "v": 21
    },
    {
      "midi": 67,
      "hit": false,
      "t": 244705.7542999998,
      "d": 443.925499999983,
      "v": 21
    },
    {
      "midi": 64,
      "hit": false,
      "t": 244859.95999999967,
      "d": 443.925499999983,
      "v": 21
    },
    {
      "midi": 64,
      "hit": false,
      "t": 244892.6702999998,
      "d": 443.925499999983,
      "v": 21
    },
    {
      "midi": 72,
      "hit": false,
      "t": 245046.87599999967,
      "d": 397.1964999999909,
      "v": 44
    },
    {
      "midi": 69,
      "hit": false,
      "t": 245046.87599999987,
      "d": 560.7479999999923,
      "v": 31
    },
    {
      "midi": 72,
      "hit": false,
      "t": 245079.5862999998,
      "d": 397.1964999999909,
      "v": 44
    },
    {
      "midi": 67,
      "hit": false,
      "t": 245233.79199999967,
      "d": 443.925499999983,
      "v": 21
    },
    {
      "midi": 67,
      "hit": false,
      "t": 245266.5022999998,
      "d": 443.925499999983,
      "v": 21
    },
    {
      "midi": 64,
      "hit": false,
      "t": 245420.70799999966,
      "d": 443.925499999983,
      "v": 21
    },
    {
      "midi": 64,
      "hit": false,
      "t": 245453.4182999998,
      "d": 443.925499999983,
      "v": 21
    },
    {
      "midi": 71,
      "hit": false,
      "t": 245607.62399999966,
      "d": 397.1964999999909,
      "v": 45
    },
    {
      "midi": 67,
      "hit": false,
      "t": 245607.62399999987,
      "d": 560.7479999999923,
      "v": 31
    },
    {
      "midi": 71,
      "hit": false,
      "t": 245640.33429999978,
      "d": 397.1964999999909,
      "v": 45
    },
    {
      "midi": 67,
      "hit": false,
      "t": 245794.53999999966,
      "d": 373.8319999999949,
      "v": 21
    },
    {
      "midi": 67,
      "hit": false,
      "t": 245827.25029999978,
      "d": 373.8319999999949,
      "v": 21
    },
    {
      "midi": 64,
      "hit": false,
      "t": 245981.45599999966,
      "d": 373.8319999999949,
      "v": 21
    },
    {
      "midi": 64,
      "hit": false,
      "t": 246014.16629999978,
      "d": 373.8319999999949,
      "v": 21
    },
    {
      "midi": 67,
      "hit": false,
      "t": 246168.37199999965,
      "d": 186.91599999999744,
      "v": 45
    },
    {
      "midi": 62,
      "hit": false,
      "t": 246168.37199999986,
      "d": 560.7479999999923,
      "v": 31
    },
    {
      "midi": 67,
      "hit": false,
      "t": 246201.08229999978,
      "d": 186.91599999999744,
      "v": 45
    },
    {
      "midi": 67,
      "hit": false,
      "t": 246355.28799999965,
      "d": 373.8319999999949,
      "v": 21
    },
    {
      "midi": 67,
      "hit": false,
      "t": 246387.99829999977,
      "d": 373.8319999999949,
      "v": 21
    },
    {
      "midi": 64,
      "hit": false,
      "t": 246542.20399999965,
      "d": 186.91599999999744,
      "v": 21
    },
    {
      "midi": 64,
      "hit": false,
      "t": 246574.91429999977,
      "d": 186.91599999999744,
      "v": 21
    },
    {
      "midi": 62,
      "hit": false,
      "t": 246729.11999999965,
      "d": 373.832000000024,
      "v": 21
    },
    {
      "midi": 67,
      "hit": false,
      "t": 246729.11999999965,
      "d": 373.832000000024,
      "v": 27
    },
    {
      "midi": 57,
      "hit": false,
      "t": 246729.11999999965,
      "d": 2056.076000000001,
      "v": 19
    },
    {
      "midi": 62,
      "hit": false,
      "t": 246729.11999999985,
      "d": 257.00949999998556,
      "v": 31
    },
    {
      "midi": 45,
      "hit": false,
      "t": 246738.46579999966,
      "d": 2056.076000000001,
      "v": 19
    },
    {
      "midi": 62,
      "hit": false,
      "t": 246761.83029999977,
      "d": 373.832000000024,
      "v": 21
    },
    {
      "midi": 67,
      "hit": false,
      "t": 246761.83029999977,
      "d": 373.832000000024,
      "v": 27
    },
    {
      "midi": 57,
      "hit": false,
      "t": 246761.83029999977,
      "d": 2056.076000000001,
      "v": 19
    },
    {
      "midi": 45,
      "hit": false,
      "t": 246771.17609999978,
      "d": 2056.076000000001,
      "v": 19
    },
    {
      "midi": 64,
      "hit": false,
      "t": 246962.76499999984,
      "d": 2056.076000000001,
      "v": 31
    },
    {
      "midi": 69,
      "hit": false,
      "t": 247102.95199999967,
      "d": 1294.393299999996,
      "v": 27
    },
    {
      "midi": 64,
      "hit": false,
      "t": 247102.95199999967,
      "d": 1457.9447999999684,
      "v": 21
    },
    {
      "midi": 69,
      "hit": false,
      "t": 247135.6622999998,
      "d": 1294.393299999996,
      "v": 27
    },
    {
      "midi": 64,
      "hit": false,
      "t": 247135.6622999998,
      "d": 1457.9447999999684,
      "v": 21
    },
    {
      "midi": 69,
      "hit": false,
      "t": 248411.36399999965,
      "d": 1308.411999999982,
      "v": 27
    },
    {
      "midi": 69,
      "hit": false,
      "t": 248444.07429999977,
      "d": 1308.411999999982,
      "v": 27
    },
    {
      "midi": 64,
      "hit": false,
      "t": 248598.27999999965,
      "d": 1682.243999999977,
      "v": 27
    },
    {
      "midi": 64,
      "hit": false,
      "t": 248630.99029999977,
      "d": 1682.243999999977,
      "v": 27
    },
    {
      "midi": 57,
      "hit": false,
      "t": 248785.19599999965,
      "d": 1495.3279999999795,
      "v": 27
    },
    {
      "midi": 57,
      "hit": false,
      "t": 248817.90629999977,
      "d": 1495.3279999999795,
      "v": 27
    },
    {
      "midi": 52,
      "hit": false,
      "t": 248972.11199999964,
      "d": 747.6639999999898,
      "v": 27
    },
    {
      "midi": 52,
      "hit": false,
      "t": 249004.82229999977,
      "d": 747.6639999999898,
      "v": 27
    },
    {
      "midi": 48,
      "hit": false,
      "t": 249159.02799999964,
      "d": 546.7293000000063,
      "v": 19
    },
    {
      "midi": 48,
      "hit": false,
      "t": 249191.73829999976,
      "d": 546.7293000000063,
      "v": 19
    },
    {
      "midi": 45,
      "hit": false,
      "t": 249345.94399999964,
      "d": 1869.1599999999744,
      "v": 19
    },
    {
      "midi": 45,
      "hit": false,
      "t": 249378.65429999976,
      "d": 1869.1599999999744,
      "v": 19
    },
    {
      "midi": 48,
      "hit": false,
      "t": 249719.77599999963,
      "d": 546.7293000000063,
      "v": 19
    },
    {
      "midi": 69,
      "hit": false,
      "t": 249719.77599999963,
      "d": 1121.4959999999846,
      "v": 19
    },
    {
      "midi": 48,
      "hit": false,
      "t": 249752.48629999976,
      "d": 546.7293000000063,
      "v": 19
    },
    {
      "midi": 69,
      "hit": false,
      "t": 249752.48629999976,
      "d": 1121.4959999999846,
      "v": 19
    },
    {
      "midi": 52,
      "hit": false,
      "t": 249906.69199999963,
      "d": 747.6639999999898,
      "v": 27
    },
    {
      "midi": 52,
      "hit": false,
      "t": 249939.40229999975,
      "d": 747.6639999999898,
      "v": 27
    },
    {
      "midi": 57,
      "hit": false,
      "t": 250280.52399999963,
      "d": 747.6639999999898,
      "v": 27
    },
    {
      "midi": 57,
      "hit": false,
      "t": 250313.23429999975,
      "d": 747.6639999999898,
      "v": 27
    },
    {
      "midi": 64,
      "hit": false,
      "t": 250467.43999999962,
      "d": 2990.655999999988,
      "v": 27
    },
    {
      "midi": 64,
      "hit": false,
      "t": 250500.15029999975,
      "d": 2990.655999999988,
      "v": 27
    },
    {
      "midi": 76,
      "hit": false,
      "t": 250654.35599999962,
      "d": 2803.7399999999907,
      "v": 27
    },
    {
      "midi": 76,
      "hit": false,
      "t": 250687.06629999974,
      "d": 2803.7399999999907,
      "v": 27
    },
    {
      "midi": 81,
      "hit": false,
      "t": 250841.27199999962,
      "d": 747.6639999999898,
      "v": 27
    },
    {
      "midi": 81,
      "hit": false,
      "t": 250873.98229999974,
      "d": 747.6639999999898,
      "v": 27
    },
    {
      "midi": 88,
      "hit": false,
      "t": 251028.18799999962,
      "d": 2242.9919999999984,
      "v": 27
    },
    {
      "midi": 88,
      "hit": false,
      "t": 251060.89829999974,
      "d": 2242.9919999999984,
      "v": 27
    },
    {
      "midi": 93,
      "hit": false,
      "t": 251215.1039999996,
      "d": 2242.9919999999984,
      "v": 44
    },
    {
      "midi": 93,
      "hit": false,
      "t": 251247.81429999974,
      "d": 2242.9919999999984,
      "v": 44
    },
    {
      "midi": 77,
      "hit": false,
      "t": 253458.0960000008,
      "d": 313.0842999999877,
      "v": 43
    },
    {
      "midi": 65,
      "hit": false,
      "t": 253462.76889999962,
      "d": 2196.2630000000063,
      "v": 46
    },
    {
      "midi": 65,
      "hit": false,
      "t": 253495.47919999974,
      "d": 2196.2630000000063,
      "v": 46
    },
    {
      "midi": 80,
      "hit": false,
      "t": 253645.0120000008,
      "d": 289.71979999999166,
      "v": 43
    },
    {
      "midi": 77,
      "hit": false,
      "t": 253831.9280000008,
      "d": 289.71979999999166,
      "v": 43
    },
    {
      "midi": 84,
      "hit": false,
      "t": 254018.8440000008,
      "d": 280.3740000000107,
      "v": 43
    },
    {
      "midi": 80,
      "hit": false,
      "t": 254205.7600000008,
      "d": 266.3553000000247,
      "v": 43
    },
    {
      "midi": 77,
      "hit": false,
      "t": 254392.67600000082,
      "d": 186.91599999999744,
      "v": 43
    },
    {
      "midi": 77,
      "hit": false,
      "t": 254579.59200000082,
      "d": 280.3740000000107,
      "v": 43
    },
    {
      "midi": 84,
      "hit": false,
      "t": 254766.50800000082,
      "d": 289.71980000002077,
      "v": 43
    },
    {
      "midi": 77,
      "hit": false,
      "t": 254953.42400000084,
      "d": 196.2618000000075,
      "v": 43
    },
    {
      "midi": 77,
      "hit": false,
      "t": 255149.68580000085,
      "d": 336.44879999998375,
      "v": 43
    },
    {
      "midi": 80,
      "hit": false,
      "t": 255336.60180000085,
      "d": 336.44879999998375,
      "v": 43
    },
    {
      "midi": 84,
      "hit": false,
      "t": 255514.17200000084,
      "d": 336.44879999998375,
      "v": 43
    },
    {
      "midi": 96,
      "hit": false,
      "t": 255701.0879999996,
      "d": 1168.2250000000058,
      "v": 46
    },
    {
      "midi": 77,
      "hit": false,
      "t": 255701.08800000083,
      "d": 313.0842999999877,
      "v": 43
    },
    {
      "midi": 60,
      "hit": false,
      "t": 255710.43379999962,
      "d": 2196.2630000000063,
      "v": 46
    },
    {
      "midi": 60,
      "hit": false,
      "t": 255743.14409999974,
      "d": 2196.2630000000063,
      "v": 40
    },
    {
      "midi": 80,
      "hit": false,
      "t": 255888.00400000083,
      "d": 289.71979999999166,
      "v": 43
    },
    {
      "midi": 77,
      "hit": false,
      "t": 256074.92000000083,
      "d": 289.71979999999166,
      "v": 43
    },
    {
      "midi": 84,
      "hit": false,
      "t": 256261.83600000083,
      "d": 280.3740000000107,
      "v": 43
    },
    {
      "midi": 80,
      "hit": false,
      "t": 256448.75200000082,
      "d": 266.3553000000247,
      "v": 43
    },
    {
      "midi": 77,
      "hit": false,
      "t": 256635.66800000085,
      "d": 186.91599999999744,
      "v": 43
    },
    {
      "midi": 77,
      "hit": false,
      "t": 256822.58400000085,
      "d": 280.3740000000107,
      "v": 43
    },
    {
      "midi": 84,
      "hit": false,
      "t": 257009.50000000084,
      "d": 289.71980000002077,
      "v": 43
    },
    {
      "midi": 77,
      "hit": false,
      "t": 257196.41600000087,
      "d": 196.2618000000075,
      "v": 43
    },
    {
      "midi": 77,
      "hit": false,
      "t": 257392.67780000088,
      "d": 336.44879999998375,
      "v": 43
    },
    {
      "midi": 80,
      "hit": false,
      "t": 257579.59380000088,
      "d": 336.44879999998375,
      "v": 43
    },
    {
      "midi": 84,
      "hit": false,
      "t": 257757.16400000086,
      "d": 336.44879999998375,
      "v": 43
    },
    {
      "midi": 63,
      "hit": false,
      "t": 257944.07999999964,
      "d": 1682.244000000006,
      "v": 46
    },
    {
      "midi": 77,
      "hit": false,
      "t": 257944.08000000086,
      "d": 313.0842999999877,
      "v": 43
    },
    {
      "midi": 63,
      "hit": false,
      "t": 257976.79029999976,
      "d": 1682.244000000006,
      "v": 46
    },
    {
      "midi": 80,
      "hit": false,
      "t": 258130.99600000086,
      "d": 289.71979999999166,
      "v": 43
    },
    {
      "midi": 77,
      "hit": false,
      "t": 258317.91200000086,
      "d": 289.71979999999166,
      "v": 43
    },
    {
      "midi": 84,
      "hit": false,
      "t": 258504.82800000085,
      "d": 280.3740000000107,
      "v": 43
    },
    {
      "midi": 80,
      "hit": false,
      "t": 258691.74400000085,
      "d": 266.3553000000247,
      "v": 43
    },
    {
      "midi": 77,
      "hit": false,
      "t": 258878.66000000088,
      "d": 186.91599999999744,
      "v": 43
    },
    {
      "midi": 77,
      "hit": false,
      "t": 259065.57600000087,
      "d": 280.3740000000107,
      "v": 43
    },
    {
      "midi": 84,
      "hit": false,
      "t": 259252.49200000087,
      "d": 289.71980000002077,
      "v": 43
    },
    {
      "midi": 77,
      "hit": false,
      "t": 259439.4080000009,
      "d": 196.2618000000075,
      "v": 43
    },
    {
      "midi": 92,
      "hit": false,
      "t": 259626.32399999964,
      "d": 560.7479999999923,
      "v": 35
    },
    {
      "midi": 77,
      "hit": false,
      "t": 259635.6698000009,
      "d": 336.44879999998375,
      "v": 43
    },
    {
      "midi": 92,
      "hit": false,
      "t": 259659.03429999977,
      "d": 560.7479999999923,
      "v": 16
    },
    {
      "midi": 80,
      "hit": false,
      "t": 259822.5858000009,
      "d": 336.44879999998375,
      "v": 43
    },
    {
      "midi": 84,
      "hit": false,
      "t": 260000.1560000009,
      "d": 336.44879999998375,
      "v": 43
    },
    {
      "midi": 94,
      "hit": false,
      "t": 260187.07199999964,
      "d": 2196.262999999977,
      "v": 37
    },
    {
      "midi": 77,
      "hit": false,
      "t": 260187.0720000009,
      "d": 313.0842999999877,
      "v": 43
    },
    {
      "midi": 94,
      "hit": false,
      "t": 260219.78229999976,
      "d": 2196.2630000000063,
      "v": 20
    },
    {
      "midi": 80,
      "hit": false,
      "t": 260373.98800000089,
      "d": 289.71979999999166,
      "v": 43
    },
    {
      "midi": 77,
      "hit": false,
      "t": 260560.90400000088,
      "d": 289.71979999999166,
      "v": 43
    },
    {
      "midi": 84,
      "hit": false,
      "t": 260747.82000000088,
      "d": 280.3740000000107,
      "v": 43
    },
    {
      "midi": 80,
      "hit": false,
      "t": 260934.73600000088,
      "d": 266.3553000000247,
      "v": 43
    },
    {
      "midi": 77,
      "hit": false,
      "t": 261121.6520000009,
      "d": 186.91599999999744,
      "v": 43
    },
    {
      "midi": 77,
      "hit": false,
      "t": 261308.5680000009,
      "d": 280.3740000000107,
      "v": 43
    },
    {
      "midi": 84,
      "hit": false,
      "t": 261495.4840000009,
      "d": 289.71980000002077,
      "v": 44
    },
    {
      "midi": 77,
      "hit": false,
      "t": 261682.40000000093,
      "d": 196.2618000000075,
      "v": 44
    },
    {
      "midi": 92,
      "hit": false,
      "t": 261869.31599999964,
      "d": 560.7479999999632,
      "v": 34
    },
    {
      "midi": 77,
      "hit": false,
      "t": 261878.66180000093,
      "d": 336.44880000001285,
      "v": 44
    },
    {
      "midi": 92,
      "hit": false,
      "t": 261902.02629999976,
      "d": 560.7479999999923,
      "v": 21
    },
    {
      "midi": 80,
      "hit": false,
      "t": 262065.57780000093,
      "d": 336.44879999998375,
      "v": 44
    },
    {
      "midi": 87,
      "hit": false,
      "t": 262430.0639999996,
      "d": 1869.1600000000326,
      "v": 33
    },
    {
      "midi": 84,
      "hit": false,
      "t": 262430.0640000009,
      "d": 149.5327999999863,
      "v": 44
    },
    {
      "midi": 87,
      "hit": false,
      "t": 262462.77429999976,
      "d": 1869.1600000000326,
      "v": 20
    },
    {
      "midi": 80,
      "hit": false,
      "t": 262616.98000000085,
      "d": 266.35530000005383,
      "v": 44
    },
    {
      "midi": 77,
      "hit": false,
      "t": 262803.8960000009,
      "d": 186.91600000002654,
      "v": 44
    },
    {
      "midi": 77,
      "hit": false,
      "t": 262990.8120000009,
      "d": 280.3740000000107,
      "v": 44
    },
    {
      "midi": 84,
      "hit": false,
      "t": 263177.72800000093,
      "d": 289.71979999996256,
      "v": 44
    },
    {
      "midi": 77,
      "hit": false,
      "t": 263364.6440000009,
      "d": 196.2617999999784,
      "v": 44
    },
    {
      "midi": 77,
      "hit": false,
      "t": 263560.9058000009,
      "d": 336.44880000001285,
      "v": 44
    },
    {
      "midi": 80,
      "hit": false,
      "t": 263747.8218000009,
      "d": 336.44879999995464,
      "v": 44
    },
    {
      "midi": 84,
      "hit": false,
      "t": 263925.39200000087,
      "d": 336.44879999995464,
      "v": 44
    },
    {
      "midi": 92,
      "hit": false,
      "t": 264112.3079999996,
      "d": 560.7480000000214,
      "v": 34
    },
    {
      "midi": 77,
      "hit": false,
      "t": 264112.30800000083,
      "d": 313.0842999999877,
      "v": 44
    },
    {
      "midi": 92,
      "hit": false,
      "t": 264145.01829999976,
      "d": 560.7480000000214,
      "v": 21
    },
    {
      "midi": 80,
      "hit": false,
      "t": 264299.2240000008,
      "d": 289.71980000002077,
      "v": 44
    },
    {
      "midi": 77,
      "hit": false,
      "t": 264486.1400000008,
      "d": 289.71979999996256,
      "v": 44
    },
    {
      "midi": 94,
      "hit": false,
      "t": 264673.05599999963,
      "d": 1121.4959999999846,
      "v": 37
    },
    {
      "midi": 84,
      "hit": false,
      "t": 264673.0560000008,
      "d": 280.3739999999525,
      "v": 44
    },
    {
      "midi": 94,
      "hit": false,
      "t": 264705.7662999998,
      "d": 1121.4959999999846,
      "v": 24
    },
    {
      "midi": 80,
      "hit": false,
      "t": 264859.97200000077,
      "d": 266.3552999999956,
      "v": 44
    },
    {
      "midi": 77,
      "hit": false,
      "t": 265046.88800000073,
      "d": 186.91600000002654,
      "v": 44
    },
    {
      "midi": 77,
      "hit": false,
      "t": 265233.80400000076,
      "d": 280.3740000000107,
      "v": 44
    },
    {
      "midi": 84,
      "hit": false,
      "t": 265420.7200000008,
      "d": 289.71979999996256,
      "v": 44
    },
    {
      "midi": 77,
      "hit": false,
      "t": 265607.63600000076,
      "d": 196.2617999999784,
      "v": 44
    },
    {
      "midi": 77,
      "hit": false,
      "t": 265803.89780000073,
      "d": 336.44880000001285,
      "v": 44
    },
    {
      "midi": 80,
      "hit": false,
      "t": 265990.81380000076,
      "d": 336.44879999995464,
      "v": 44
    },
    {
      "midi": 84,
      "hit": false,
      "t": 266168.3840000007,
      "d": 336.44879999995464,
      "v": 44
    },
    {
      "midi": 77,
      "hit": false,
      "t": 266364.6458000007,
      "d": 280.3739999999525,
      "v": 44
    },
    {
      "midi": 80,
      "hit": false,
      "t": 266542.21600000066,
      "d": 280.3739999999525,
      "v": 44
    },
    {
      "midi": 77,
      "hit": false,
      "t": 266729.1320000006,
      "d": 280.3739999999525,
      "v": 44
    },
    {
      "midi": 89,
      "hit": false,
      "t": 266916.0479999996,
      "d": 1691.589800000016,
      "v": 20
    },
    {
      "midi": 89,
      "hit": false,
      "t": 266916.0480000006,
      "d": 420.56099999998696,
      "v": 63
    },
    {
      "midi": 89,
      "hit": false,
      "t": 266948.75829999975,
      "d": 1691.589800000016,
      "v": 20
    },
    {
      "midi": 84,
      "hit": false,
      "t": 267102.96400000056,
      "d": 429.906799999997,
      "v": 44
    },
    {
      "midi": 80,
      "hit": false,
      "t": 267289.8800000006,
      "d": 420.56099999998696,
      "v": 44
    },
    {
      "midi": 77,
      "hit": false,
      "t": 267476.79600000056,
      "d": 397.19650000002,
      "v": 44
    },
    {
      "midi": 79,
      "hit": false,
      "t": 267663.7120000006,
      "d": 406.5422999999719,
      "v": 44
    },
    {
      "midi": 80,
      "hit": false,
      "t": 267850.62800000055,
      "d": 490.6545000000042,
      "v": 44
    },
    {
      "midi": 77,
      "hit": false,
      "t": 268037.5440000006,
      "d": 467.28999999997905,
      "v": 44
    },
    {
      "midi": 72,
      "hit": false,
      "t": 268224.46000000054,
      "d": 514.0189999999711,
      "v": 44
    },
    {
      "midi": 68,
      "hit": false,
      "t": 268411.3760000006,
      "d": 476.6357999999309,
      "v": 44
    },
    {
      "midi": 65,
      "hit": false,
      "t": 268598.29200000054,
      "d": 476.6357999999309,
      "v": 44
    },
    {
      "midi": 60,
      "hit": false,
      "t": 268785.2080000005,
      "d": 453.27129999996396,
      "v": 44
    },
    {
      "midi": 56,
      "hit": false,
      "t": 268972.1240000005,
      "d": 359.8132999999798,
      "v": 44
    },
    {
      "midi": 53,
      "hit": false,
      "t": 269159.04000000044,
      "d": 359.813300000038,
      "v": 44
    },
    {
      "midi": 89,
      "hit": false,
      "t": 269168.38579999964,
      "d": 2140.188199999975,
      "v": 48
    },
    {
      "midi": 89,
      "hit": false,
      "t": 269201.0960999998,
      "d": 2140.188199999975,
      "v": 26
    },
    {
      "midi": 56,
      "hit": false,
      "t": 269345.9560000005,
      "d": 453.2713000000804,
      "v": 44
    },
    {
      "midi": 53,
      "hit": false,
      "t": 269532.8720000005,
      "d": 397.19650000007823,
      "v": 44
    },
    {
      "midi": 48,
      "hit": false,
      "t": 269719.7880000005,
      "d": 397.19650000007823,
      "v": 44
    },
    {
      "midi": 44,
      "hit": false,
      "t": 269906.70400000055,
      "d": 420.56100000004517,
      "v": 44
    },
    {
      "midi": 43,
      "hit": false,
      "t": 270093.6200000006,
      "d": 420.56100000004517,
      "v": 44
    },
    {
      "midi": 41,
      "hit": false,
      "t": 270280.5360000006,
      "d": 1121.4960000000428,
      "v": 44
    },
    {
      "midi": 51,
      "hit": false,
      "t": 271402.03200000065,
      "d": 1401.8699999997625,
      "v": 45
    },
    {
      "midi": 56,
      "hit": false,
      "t": 271542.2190000006,
      "d": 1261.6829999997863,
      "v": 45
    },
    {
      "midi": 59,
      "hit": false,
      "t": 271682.4060000006,
      "d": 1121.49599999981,
      "v": 41
    },
    {
      "midi": 63,
      "hit": false,
      "t": 271822.5930000006,
      "d": 560.747999999905,
      "v": 40
    },
    {
      "midi": 68,
      "hit": false,
      "t": 271962.78000000055,
      "d": 560.747999999905,
      "v": 42
    },
    {
      "midi": 75,
      "hit": false,
      "t": 272102.9670000005,
      "d": 560.747999999905,
      "v": 47
    },
    {
      "midi": 80,
      "hit": false,
      "t": 272243.1540000005,
      "d": 420.56099999992875,
      "v": 65
    },
    {
      "midi": 87,
      "hit": false,
      "t": 272383.3410000005,
      "d": 280.3739999999525,
      "v": 65
    },
    {
      "midi": 92,
      "hit": false,
      "t": 272523.52800000046,
      "d": 317.7571999999345,
      "v": 80
    },
    {
      "midi": 75,
      "hit": false,
      "t": 272663.71500000043,
      "d": 495.327399999951,
      "v": 66
    },
    {
      "midi": 71,
      "hit": false,
      "t": 272803.9020000004,
      "d": 420.56099999998696,
      "v": 60
    },
    {
      "midi": 70,
      "hit": false,
      "t": 272944.0890000004,
      "d": 383.17780000000494,
      "v": 40
    },
    {
      "midi": 68,
      "hit": false,
      "t": 273084.27600000036,
      "d": 560.7479999999632,
      "v": 38
    },
    {
      "midi": 63,
      "hit": false,
      "t": 273224.4630000004,
      "d": 420.56099999992875,
      "v": 38
    },
    {
      "midi": 59,
      "hit": false,
      "t": 273364.6500000004,
      "d": 280.3739999999525,
      "v": 38
    },
    {
      "midi": 56,
      "hit": false,
      "t": 273504.83700000035,
      "d": 140.18699999997625,
      "v": 38
    },
    {
      "midi": 56,
      "hit": false,
      "t": 273645.0240000003,
      "d": 1261.6829999997863,
      "v": 47
    },
    {
      "midi": 59,
      "hit": false,
      "t": 273785.2110000003,
      "d": 1261.6829999997863,
      "v": 45
    },
    {
      "midi": 63,
      "hit": false,
      "t": 273925.3980000003,
      "d": 981.3089999998338,
      "v": 43
    },
    {
      "midi": 68,
      "hit": false,
      "t": 274065.58500000025,
      "d": 841.1219999998575,
      "v": 41
    },
    {
      "midi": 75,
      "hit": false,
      "t": 274205.77200000023,
      "d": 700.9349999998813,
      "v": 42
    },
    {
      "midi": 82,
      "hit": false,
      "t": 274345.9590000002,
      "d": 560.747999999905,
      "v": 47
    },
    {
      "midi": 85,
      "hit": false,
      "t": 274486.1460000002,
      "d": 420.56099999992875,
      "v": 65
    },
    {
      "midi": 90,
      "hit": false,
      "t": 274626.33300000016,
      "d": 280.3739999999525,
      "v": 65
    },
    {
      "midi": 94,
      "hit": false,
      "t": 274766.52000000014,
      "d": 350.46749999996973,
      "v": 80
    },
    {
      "midi": 90,
      "hit": false,
      "t": 274906.7070000001,
      "d": 495.3274000000092,
      "v": 66
    },
    {
      "midi": 85,
      "hit": false,
      "t": 275046.8940000001,
      "d": 420.56100000004517,
      "v": 60
    },
    {
      "midi": 82,
      "hit": false,
      "t": 275187.0810000001,
      "d": 443.9255000000121,
      "v": 40
    },
    {
      "midi": 78,
      "hit": false,
      "t": 275327.2680000001,
      "d": 560.7480000000214,
      "v": 38
    },
    {
      "midi": 73,
      "hit": false,
      "t": 275467.45500000013,
      "d": 476.6357999999891,
      "v": 38
    },
    {
      "midi": 70,
      "hit": false,
      "t": 275607.6420000001,
      "d": 406.5423000000301,
      "v": 38
    },
    {
      "midi": 66,
      "hit": false,
      "t": 275747.82900000014,
      "d": 350.46750000002794,
      "v": 38
    },
    {
      "midi": 44,
      "hit": false,
      "t": 275888.0160000001,
      "d": 1261.6829999999027,
      "v": 47
    },
    {
      "midi": 51,
      "hit": false,
      "t": 276028.20300000015,
      "d": 981.308999999892,
      "v": 45
    },
    {
      "midi": 59,
      "hit": false,
      "t": 276168.3900000002,
      "d": 841.1219999998575,
      "v": 38
    },
    {
      "midi": 63,
      "hit": false,
      "t": 276308.57700000016,
      "d": 700.9349999998813,
      "v": 41
    },
    {
      "midi": 68,
      "hit": false,
      "t": 276448.76400000014,
      "d": 560.747999999905,
      "v": 42
    },
    {
      "midi": 75,
      "hit": false,
      "t": 276588.9510000001,
      "d": 560.747999999905,
      "v": 47
    },
    {
      "midi": 80,
      "hit": false,
      "t": 276729.1380000001,
      "d": 420.56099999992875,
      "v": 65
    },
    {
      "midi": 87,
      "hit": false,
      "t": 276869.32500000007,
      "d": 280.3739999999525,
      "v": 65
    },
    {
      "midi": 92,
      "hit": false,
      "t": 277009.51200000005,
      "d": 387.85069999995176,
      "v": 80
    },
    {
      "midi": 75,
      "hit": false,
      "t": 277149.699,
      "d": 495.327399999951,
      "v": 66
    },
    {
      "midi": 71,
      "hit": false,
      "t": 277289.886,
      "d": 420.56099999998696,
      "v": 60
    },
    {
      "midi": 70,
      "hit": false,
      "t": 277430.073,
      "d": 420.56099999998696,
      "v": 40
    },
    {
      "midi": 68,
      "hit": false,
      "t": 277570.25999999995,
      "d": 560.7479999999632,
      "v": 38
    },
    {
      "midi": 63,
      "hit": false,
      "t": 277710.447,
      "d": 420.56099999992875,
      "v": 38
    },
    {
      "midi": 59,
      "hit": false,
      "t": 277850.63399999996,
      "d": 280.3739999999525,
      "v": 38
    },
    {
      "midi": 56,
      "hit": false,
      "t": 277990.82099999994,
      "d": 140.18699999997625,
      "v": 38
    },
    {
      "midi": 54,
      "hit": false,
      "t": 278131.0079999999,
      "d": 1495.327999999805,
      "v": 45
    },
    {
      "midi": 58,
      "hit": false,
      "t": 278271.1949999999,
      "d": 1364.4867999998387,
      "v": 43
    },
    {
      "midi": 63,
      "hit": false,
      "t": 278411.38199999987,
      "d": 841.1219999998575,
      "v": 43
    },
    {
      "midi": 68,
      "hit": false,
      "t": 278551.56899999984,
      "d": 700.9349999998813,
      "v": 41
    },
    {
      "midi": 75,
      "hit": false,
      "t": 278691.7559999998,
      "d": 710.2807999998913,
      "v": 42
    },
    {
      "midi": 82,
      "hit": false,
      "t": 278831.9429999998,
      "d": 560.747999999905,
      "v": 47
    },
    {
      "midi": 85,
      "hit": false,
      "t": 278972.1299999998,
      "d": 420.56099999992875,
      "v": 65
    },
    {
      "midi": 90,
      "hit": false,
      "t": 279112.31699999975,
      "d": 280.3739999999525,
      "v": 65
    },
    {
      "midi": 94,
      "hit": false,
      "t": 279252.5039999997,
      "d": 397.19650000002,
      "v": 80
    },
    {
      "midi": 90,
      "hit": false,
      "t": 279392.6909999997,
      "d": 495.3274000000674,
      "v": 66
    },
    {
      "midi": 85,
      "hit": false,
      "t": 279532.87799999974,
      "d": 467.29000000003725,
      "v": 60
    },
    {
      "midi": 82,
      "hit": false,
      "t": 279673.06499999977,
      "d": 523.3647999999812,
      "v": 40
    },
    {
      "midi": 78,
      "hit": false,
      "t": 279813.25199999975,
      "d": 560.7479999999632,
      "v": 38
    },
    {
      "midi": 73,
      "hit": false,
      "t": 279953.4389999998,
      "d": 420.56099999992875,
      "v": 38
    },
    {
      "midi": 70,
      "hit": false,
      "t": 280093.62599999976,
      "d": 280.3739999999525,
      "v": 38
    },
    {
      "midi": 66,
      "hit": false,
      "t": 280233.81299999973,
      "d": 140.18699999997625,
      "v": 38
    },
    {
      "midi": 51,
      "hit": false,
      "t": 280373.9999999997,
      "d": 1401.8699999997625,
      "v": 45
    },
    {
      "midi": 56,
      "hit": false,
      "t": 280514.1869999997,
      "d": 1261.6829999997863,
      "v": 45
    },
    {
      "midi": 59,
      "hit": false,
      "t": 280654.37399999966,
      "d": 1121.49599999981,
      "v": 41
    },
    {
      "midi": 63,
      "hit": false,
      "t": 280794.56099999964,
      "d": 560.747999999905,
      "v": 40
    },
    {
      "midi": 68,
      "hit": false,
      "t": 280934.7479999996,
      "d": 560.747999999905,
      "v": 42
    },
    {
      "midi": 75,
      "hit": false,
      "t": 281074.9349999996,
      "d": 560.747999999905,
      "v": 47
    },
    {
      "midi": 80,
      "hit": false,
      "t": 281215.12199999957,
      "d": 420.56099999992875,
      "v": 65
    },
    {
      "midi": 87,
      "hit": false,
      "t": 281355.30899999954,
      "d": 280.3739999999525,
      "v": 65
    },
    {
      "midi": 92,
      "hit": false,
      "t": 281495.4959999995,
      "d": 317.7571999999345,
      "v": 80
    },
    {
      "midi": 75,
      "hit": false,
      "t": 281635.6829999995,
      "d": 495.327399999951,
      "v": 66
    },
    {
      "midi": 71,
      "hit": false,
      "t": 281775.8699999995,
      "d": 420.56099999998696,
      "v": 60
    },
    {
      "midi": 70,
      "hit": false,
      "t": 281916.05699999945,
      "d": 383.17780000000494,
      "v": 40
    },
    {
      "midi": 68,
      "hit": false,
      "t": 282056.2439999994,
      "d": 560.7479999999632,
      "v": 38
    },
    {
      "midi": 63,
      "hit": false,
      "t": 282196.43099999946,
      "d": 420.56099999992875,
      "v": 38
    },
    {
      "midi": 59,
      "hit": false,
      "t": 282336.61799999943,
      "d": 280.3739999999525,
      "v": 38
    },
    {
      "midi": 56,
      "hit": false,
      "t": 282476.8049999994,
      "d": 140.18699999997625,
      "v": 38
    },
    {
      "midi": 54,
      "hit": false,
      "t": 282616.9919999994,
      "d": 1261.6829999997863,
      "v": 47
    },
    {
      "midi": 58,
      "hit": false,
      "t": 282757.17899999936,
      "d": 1261.6829999997863,
      "v": 45
    },
    {
      "midi": 61,
      "hit": false,
      "t": 282897.36599999934,
      "d": 981.3089999998338,
      "v": 43
    },
    {
      "midi": 66,
      "hit": false,
      "t": 283037.5529999993,
      "d": 841.1219999998575,
      "v": 41
    },
    {
      "midi": 70,
      "hit": false,
      "t": 283177.7399999993,
      "d": 700.9349999998813,
      "v": 42
    },
    {
      "midi": 73,
      "hit": false,
      "t": 283317.92699999927,
      "d": 560.747999999905,
      "v": 47
    },
    {
      "midi": 78,
      "hit": false,
      "t": 283458.11399999924,
      "d": 420.56099999992875,
      "v": 65
    },
    {
      "midi": 83,
      "hit": false,
      "t": 283598.3009999992,
      "d": 280.3739999999525,
      "v": 65
    },
    {
      "midi": 90,
      "hit": false,
      "t": 283738.4879999992,
      "d": 350.46749999996973,
      "v": 80
    },
    {
      "midi": 85,
      "hit": false,
      "t": 283878.6749999992,
      "d": 495.3274000000092,
      "v": 66
    },
    {
      "midi": 82,
      "hit": false,
      "t": 284018.86199999915,
      "d": 420.56100000004517,
      "v": 60
    },
    {
      "midi": 78,
      "hit": false,
      "t": 284159.0489999992,
      "d": 443.9255000000121,
      "v": 40
    },
    {
      "midi": 73,
      "hit": false,
      "t": 284299.23599999916,
      "d": 560.7480000000214,
      "v": 38
    },
    {
      "midi": 70,
      "hit": false,
      "t": 284439.4229999992,
      "d": 476.6357999999891,
      "v": 38
    },
    {
      "midi": 66,
      "hit": false,
      "t": 284579.6099999992,
      "d": 406.5423000000301,
      "v": 38
    },
    {
      "midi": 61,
      "hit": false,
      "t": 284719.7969999992,
      "d": 350.46750000002794,
      "v": 38
    },
    {
      "midi": 52,
      "hit": false,
      "t": 284859.9839999992,
      "d": 1261.6829999999027,
      "v": 47
    },
    {
      "midi": 56,
      "hit": false,
      "t": 285000.1709999992,
      "d": 1261.6829999998445,
      "v": 45
    },
    {
      "midi": 59,
      "hit": false,
      "t": 285140.35799999925,
      "d": 981.3089999998338,
      "v": 43
    },
    {
      "midi": 64,
      "hit": false,
      "t": 285280.5449999992,
      "d": 841.1219999998575,
      "v": 41
    },
    {
      "midi": 68,
      "hit": false,
      "t": 285420.7319999992,
      "d": 700.9349999998813,
      "v": 42
    },
    {
      "midi": 71,
      "hit": false,
      "t": 285560.9189999992,
      "d": 560.747999999905,
      "v": 47
    },
    {
      "midi": 76,
      "hit": false,
      "t": 285701.10599999916,
      "d": 420.56099999992875,
      "v": 65
    },
    {
      "midi": 88,
      "hit": false,
      "t": 285981.4799999991,
      "d": 495.327399999951,
      "v": 75
    },
    {
      "midi": 83,
      "hit": false,
      "t": 286074.9379999991,
      "d": 46.728999999992084,
      "v": 60
    },
    {
      "midi": 80,
      "hit": false,
      "t": 286168.3959999991,
      "d": 420.56099999998696,
      "v": 60
    },
    {
      "midi": 76,
      "hit": false,
      "t": 286261.85399999906,
      "d": 443.9255000000121,
      "v": 49
    },
    {
      "midi": 71,
      "hit": false,
      "t": 286448.7699999991,
      "d": 560.7479999999632,
      "v": 50
    },
    {
      "midi": 68,
      "hit": false,
      "t": 286542.2279999991,
      "d": 406.5422999999719,
      "v": 38
    },
    {
      "midi": 64,
      "hit": false,
      "t": 286635.68599999906,
      "d": 350.46749999996973,
      "v": 48
    },
    {
      "midi": 88,
      "hit": false,
      "t": 286729.1439999991,
      "d": 280.3739999999525,
      "v": 50
    },
    {
      "midi": 83,
      "hit": false,
      "t": 286822.6019999991,
      "d": 186.91599999996834,
      "v": 44
    },
    {
      "midi": 80,
      "hit": false,
      "t": 286916.05999999907,
      "d": 186.91599999996834,
      "v": 48
    },
    {
      "midi": 83,
      "hit": false,
      "t": 287009.51799999905,
      "d": 186.91599999996834,
      "v": 44
    },
    {
      "midi": 80,
      "hit": false,
      "t": 287102.97599999903,
      "d": 186.91599999996834,
      "v": 58
    },
    {
      "midi": 76,
      "hit": false,
      "t": 287196.433999999,
      "d": 186.91599999996834,
      "v": 57
    },
    {
      "midi": 80,
      "hit": false,
      "t": 287289.891999999,
      "d": 186.91599999996834,
      "v": 54
    },
    {
      "midi": 76,
      "hit": false,
      "t": 287383.349999999,
      "d": 186.91599999996834,
      "v": 52
    },
    {
      "midi": 71,
      "hit": false,
      "t": 287476.807999999,
      "d": 186.91599999996834,
      "v": 51
    },
    {
      "midi": 76,
      "hit": false,
      "t": 287570.26599999896,
      "d": 186.91599999996834,
      "v": 51
    },
    {
      "midi": 71,
      "hit": false,
      "t": 287663.72399999894,
      "d": 186.91599999996834,
      "v": 51
    },
    {
      "midi": 68,
      "hit": false,
      "t": 287757.1819999989,
      "d": 186.91599999996834,
      "v": 51
    },
    {
      "midi": 71,
      "hit": false,
      "t": 287850.6399999989,
      "d": 186.91599999996834,
      "v": 51
    },
    {
      "midi": 68,
      "hit": false,
      "t": 287944.0979999989,
      "d": 186.91599999996834,
      "v": 51
    },
    {
      "midi": 64,
      "hit": false,
      "t": 288037.5559999989,
      "d": 186.91599999996834,
      "v": 51
    },
    {
      "midi": 68,
      "hit": false,
      "t": 288131.01399999886,
      "d": 186.91599999996834,
      "v": 50
    },
    {
      "midi": 64,
      "hit": false,
      "t": 288224.47199999884,
      "d": 186.91599999996834,
      "v": 49
    },
    {
      "midi": 59,
      "hit": false,
      "t": 288317.9299999988,
      "d": 186.91599999996834,
      "v": 47
    },
    {
      "midi": 64,
      "hit": false,
      "t": 288411.3879999988,
      "d": 186.91599999996834,
      "v": 44
    },
    {
      "midi": 59,
      "hit": false,
      "t": 288504.8459999988,
      "d": 186.91599999996834,
      "v": 43
    },
    {
      "midi": 56,
      "hit": false,
      "t": 288598.3039999988,
      "d": 186.91599999996834,
      "v": 43
    },
    {
      "midi": 52,
      "hit": false,
      "t": 288691.76199999877,
      "d": 186.91599999996834,
      "v": 42
    },
    {
      "midi": 56,
      "hit": false,
      "t": 288785.21999999875,
      "d": 186.91599999996834,
      "v": 40
    },
    {
      "midi": 52,
      "hit": false,
      "t": 288878.67799999873,
      "d": 186.91599999996834,
      "v": 39
    },
    {
      "midi": 47,
      "hit": false,
      "t": 289065.5939999987,
      "d": 186.91600000002654,
      "v": 39
    }
  ]
}