{
  "jsonPath": "Unknown/Unknown/Vusi Mahlasela  Ladysmith Black Mambazo/heaven-in-my-heart-featuring-ladysmith-black-mambazo.json",
  "path": "Unknown\\Unknown\\Vusi Mahlasela  Ladysmith Black Mambazo\\Heaven In My Heart featuring Ladysmith Black Mambazo.mid",
  "name": "Heaven In My Heart featuring Ladysmith Black Mambazo",
  "difficulty": "Advanced",
  "bpm": 69.99998833333528,
  "notes": [
    {
      "midi": 62,
      "hit": false,
      "t": 3428.5719999999997,
      "d": 214.28575,
      "v": 95
    },
    {
      "midi": 48,
      "hit": false,
      "t": 3428.5719999999997,
      "d": 1714.2859999999996,
      "v": 83
    },
    {
      "midi": 64,
      "hit": false,
      "t": 3857.1434999999997,
      "d": 214.28575,
      "v": 91
    },
    {
      "midi": 55,
      "hit": false,
      "t": 3857.1434999999997,
      "d": 1285.7144999999996,
      "v": 88
    },
    {
      "midi": 62,
      "hit": false,
      "t": 4285.714999999999,
      "d": 214.28575,
      "v": 98
    },
    {
      "midi": 64,
      "hit": false,
      "t": 4714.286499999999,
      "d": 428.5715,
      "v": 113
    },
    {
      "midi": 55,
      "hit": false,
      "t": 6000.000999999999,
      "d": 214.28575,
      "v": 94
    },
    {
      "midi": 57,
      "hit": false,
      "t": 6428.572499999999,
      "d": 857.143,
      "v": 87
    },
    {
      "midi": 41,
      "hit": false,
      "t": 6857.143999999999,
      "d": 2571.428999999999,
      "v": 84
    },
    {
      "midi": 48,
      "hit": false,
      "t": 7285.715499999999,
      "d": 2142.857499999999,
      "v": 54
    },
    {
      "midi": 53,
      "hit": false,
      "t": 7500.001249999999,
      "d": 1928.5717499999992,
      "v": 27
    },
    {
      "midi": 57,
      "hit": false,
      "t": 7714.286999999999,
      "d": 428.5715,
      "v": 57
    },
    {
      "midi": 60,
      "hit": false,
      "t": 7928.572749999999,
      "d": 428.5715,
      "v": 72
    },
    {
      "midi": 57,
      "hit": false,
      "t": 8571.429999999998,
      "d": 857.143,
      "v": 45
    },
    {
      "midi": 64,
      "hit": false,
      "t": 8571.429999999998,
      "d": 857.143,
      "v": 84
    },
    {
      "midi": 62,
      "hit": false,
      "t": 10285.716,
      "d": 214.2857499999991,
      "v": 105
    },
    {
      "midi": 48,
      "hit": false,
      "t": 10285.716,
      "d": 1928.5717499999937,
      "v": 90
    },
    {
      "midi": 64,
      "hit": false,
      "t": 10714.287499999999,
      "d": 214.2857499999991,
      "v": 105
    },
    {
      "midi": 55,
      "hit": false,
      "t": 10714.287499999999,
      "d": 1285.7144999999964,
      "v": 81
    },
    {
      "midi": 62,
      "hit": false,
      "t": 11142.858999999997,
      "d": 214.2857499999991,
      "v": 101
    },
    {
      "midi": 64,
      "hit": false,
      "t": 11571.430499999995,
      "d": 642.8572499999991,
      "v": 112
    },
    {
      "midi": 67,
      "hit": false,
      "t": 12428.573499999993,
      "d": 428.5715,
      "v": 107
    },
    {
      "midi": 60,
      "hit": false,
      "t": 13714.287999999993,
      "d": 214.2857499999991,
      "v": 101
    },
    {
      "midi": 67,
      "hit": false,
      "t": 13714.287999999993,
      "d": 428.5714999999982,
      "v": 112
    },
    {
      "midi": 43,
      "hit": false,
      "t": 13714.287999999993,
      "d": 642.8572499999973,
      "v": 88
    },
    {
      "midi": 55,
      "hit": false,
      "t": 13714.287999999993,
      "d": 642.8572499999973,
      "v": 97
    },
    {
      "midi": 60,
      "hit": false,
      "t": 14142.859499999991,
      "d": 214.2857499999991,
      "v": 73
    },
    {
      "midi": 65,
      "hit": false,
      "t": 14142.859499999991,
      "d": 214.2857499999991,
      "v": 74
    },
    {
      "midi": 60,
      "hit": false,
      "t": 14571.43099999999,
      "d": 214.2857499999991,
      "v": 56
    },
    {
      "midi": 55,
      "hit": false,
      "t": 15000.002499999988,
      "d": 1285.7145,
      "v": 72
    },
    {
      "midi": 62,
      "hit": false,
      "t": 15000.002499999988,
      "d": 1500.000250000001,
      "v": 87
    },
    {
      "midi": 60,
      "hit": false,
      "t": 17142.85999999999,
      "d": 428.5714999999982,
      "v": 57
    },
    {
      "midi": 62,
      "hit": false,
      "t": 17142.85999999999,
      "d": 428.5714999999982,
      "v": 76
    },
    {
      "midi": 64,
      "hit": false,
      "t": 17142.85999999999,
      "d": 428.5714999999982,
      "v": 83
    },
    {
      "midi": 48,
      "hit": false,
      "t": 17142.85999999999,
      "d": 2785.7147499999883,
      "v": 76
    },
    {
      "midi": 60,
      "hit": false,
      "t": 18000.002999999986,
      "d": 428.5714999999982,
      "v": 64
    },
    {
      "midi": 62,
      "hit": false,
      "t": 18000.002999999986,
      "d": 428.5714999999982,
      "v": 77
    },
    {
      "midi": 64,
      "hit": false,
      "t": 18000.002999999986,
      "d": 428.5714999999982,
      "v": 75
    },
    {
      "midi": 64,
      "hit": false,
      "t": 18857.145999999982,
      "d": 357.14291666666395,
      "v": 100
    },
    {
      "midi": 60,
      "hit": false,
      "t": 18871.431716666648,
      "d": 328.57148333333316,
      "v": 100
    },
    {
      "midi": 62,
      "hit": false,
      "t": 18871.431716666648,
      "d": 328.57148333333316,
      "v": 100
    },
    {
      "midi": 64,
      "hit": false,
      "t": 19714.28899999998,
      "d": 214.2857499999991,
      "v": 117
    },
    {
      "midi": 62,
      "hit": false,
      "t": 19928.574749999978,
      "d": 214.2857499999991,
      "v": 80
    },
    {
      "midi": 60,
      "hit": false,
      "t": 20142.860499999977,
      "d": 214.2857499999991,
      "v": 91
    },
    {
      "midi": 55,
      "hit": false,
      "t": 20571.431999999975,
      "d": 428.5714999999982,
      "v": 62
    },
    {
      "midi": 59,
      "hit": false,
      "t": 20571.431999999975,
      "d": 428.5714999999982,
      "v": 80
    },
    {
      "midi": 62,
      "hit": false,
      "t": 20571.431999999975,
      "d": 428.5714999999982,
      "v": 88
    },
    {
      "midi": 40,
      "hit": false,
      "t": 20571.431999999975,
      "d": 3000.000499999991,
      "v": 82
    },
    {
      "midi": 52,
      "hit": false,
      "t": 21000.003499999973,
      "d": 428.5714999999982,
      "v": 55
    },
    {
      "midi": 55,
      "hit": false,
      "t": 21214.289249999973,
      "d": 214.2857499999991,
      "v": 73
    },
    {
      "midi": 59,
      "hit": false,
      "t": 21428.57499999997,
      "d": 214.2857499999991,
      "v": 76
    },
    {
      "midi": 62,
      "hit": false,
      "t": 21642.86074999997,
      "d": 214.2857499999991,
      "v": 98
    },
    {
      "midi": 52,
      "hit": false,
      "t": 21857.14649999997,
      "d": 1500.0002499999973,
      "v": 60
    },
    {
      "midi": 62,
      "hit": false,
      "t": 22285.717999999968,
      "d": 642.8572500000009,
      "v": 71
    },
    {
      "midi": 71,
      "hit": false,
      "t": 22285.717999999968,
      "d": 642.8572500000009,
      "v": 79
    },
    {
      "midi": 62,
      "hit": false,
      "t": 23142.860999999968,
      "d": 214.2857499999991,
      "v": 94
    },
    {
      "midi": 67,
      "hit": false,
      "t": 23142.860999999968,
      "d": 214.2857499999991,
      "v": 102
    },
    {
      "midi": 52,
      "hit": false,
      "t": 23571.432499999966,
      "d": 214.2857499999991,
      "v": 76
    },
    {
      "midi": 55,
      "hit": false,
      "t": 24000.003999999964,
      "d": 428.5714999999982,
      "v": 68
    },
    {
      "midi": 58,
      "hit": false,
      "t": 24000.003999999964,
      "d": 428.5714999999982,
      "v": 90
    },
    {
      "midi": 62,
      "hit": false,
      "t": 24000.003999999964,
      "d": 428.5714999999982,
      "v": 94
    },
    {
      "midi": 43,
      "hit": false,
      "t": 24000.003999999964,
      "d": 1500.0002499999937,
      "v": 90
    },
    {
      "midi": 50,
      "hit": false,
      "t": 24428.575499999963,
      "d": 428.5714999999982,
      "v": 81
    },
    {
      "midi": 55,
      "hit": false,
      "t": 24642.86124999996,
      "d": 214.2857499999991,
      "v": 65
    },
    {
      "midi": 58,
      "hit": false,
      "t": 24857.14699999996,
      "d": 214.2857499999991,
      "v": 115
    },
    {
      "midi": 62,
      "hit": false,
      "t": 25071.43274999996,
      "d": 214.2857499999991,
      "v": 120
    },
    {
      "midi": 50,
      "hit": false,
      "t": 25285.71849999996,
      "d": 214.2857499999991,
      "v": 96
    },
    {
      "midi": 57,
      "hit": false,
      "t": 25500.004249999958,
      "d": 214.2857499999991,
      "v": 94
    },
    {
      "midi": 57,
      "hit": false,
      "t": 25714.289999999957,
      "d": 428.57150000000183,
      "v": 91
    },
    {
      "midi": 61,
      "hit": false,
      "t": 25714.289999999957,
      "d": 428.57150000000183,
      "v": 105
    },
    {
      "midi": 64,
      "hit": false,
      "t": 25714.289999999957,
      "d": 428.57150000000183,
      "v": 105
    },
    {
      "midi": 45,
      "hit": false,
      "t": 25714.289999999957,
      "d": 857.143,
      "v": 93
    },
    {
      "midi": 52,
      "hit": false,
      "t": 26142.86149999996,
      "d": 428.5714999999982,
      "v": 67
    },
    {
      "midi": 61,
      "hit": false,
      "t": 26571.432999999957,
      "d": 214.2857499999991,
      "v": 98
    },
    {
      "midi": 64,
      "hit": false,
      "t": 26571.432999999957,
      "d": 214.2857499999991,
      "v": 91
    },
    {
      "midi": 57,
      "hit": false,
      "t": 26571.432999999957,
      "d": 428.5714999999982,
      "v": 89
    },
    {
      "midi": 45,
      "hit": false,
      "t": 27000.004499999955,
      "d": 214.2857499999991,
      "v": 83
    },
    {
      "midi": 38,
      "hit": false,
      "t": 27428.575999999957,
      "d": 214.2857499999991,
      "v": 83
    },
    {
      "midi": 57,
      "hit": false,
      "t": 27428.575999999957,
      "d": 214.2857499999991,
      "v": 78
    },
    {
      "midi": 60,
      "hit": false,
      "t": 27428.575999999957,
      "d": 428.5714999999982,
      "v": 70
    },
    {
      "midi": 62,
      "hit": false,
      "t": 27428.575999999957,
      "d": 428.5714999999982,
      "v": 94
    },
    {
      "midi": 50,
      "hit": false,
      "t": 27857.147499999955,
      "d": 2142.857499999991,
      "v": 76
    },
    {
      "midi": 57,
      "hit": false,
      "t": 28071.433249999955,
      "d": 428.5714999999982,
      "v": 82
    },
    {
      "midi": 62,
      "hit": false,
      "t": 28285.718999999954,
      "d": 214.2857499999991,
      "v": 95
    },
    {
      "midi": 64,
      "hit": false,
      "t": 28500.004749999953,
      "d": 214.2857499999991,
      "v": 83
    },
    {
      "midi": 57,
      "hit": false,
      "t": 28714.290499999952,
      "d": 428.5714999999982,
      "v": 71
    },
    {
      "midi": 62,
      "hit": false,
      "t": 28928.57624999995,
      "d": 214.2857499999991,
      "v": 71
    },
    {
      "midi": 62,
      "hit": false,
      "t": 29142.86199999995,
      "d": 214.2857499999991,
      "v": 74
    },
    {
      "midi": 69,
      "hit": false,
      "t": 29142.86199999995,
      "d": 428.5714999999982,
      "v": 94
    },
    {
      "midi": 57,
      "hit": false,
      "t": 29571.43349999995,
      "d": 428.5714999999982,
      "v": 45
    },
    {
      "midi": 62,
      "hit": false,
      "t": 30000.004999999946,
      "d": 214.2857499999991,
      "v": 88
    },
    {
      "midi": 65,
      "hit": false,
      "t": 30000.004999999946,
      "d": 214.2857499999991,
      "v": 94
    },
    {
      "midi": 50,
      "hit": false,
      "t": 30428.576499999945,
      "d": 214.2857499999991,
      "v": 80
    },
    {
      "midi": 58,
      "hit": false,
      "t": 30857.147999999943,
      "d": 428.5714999999982,
      "v": 90
    },
    {
      "midi": 62,
      "hit": false,
      "t": 30857.147999999943,
      "d": 428.5714999999982,
      "v": 107
    },
    {
      "midi": 65,
      "hit": false,
      "t": 30857.147999999943,
      "d": 428.5714999999982,
      "v": 99
    },
    {
      "midi": 46,
      "hit": false,
      "t": 30857.147999999943,
      "d": 2785.714749999999,
      "v": 80
    },
    {
      "midi": 58,
      "hit": false,
      "t": 31714.29099999994,
      "d": 428.5714999999982,
      "v": 73
    },
    {
      "midi": 62,
      "hit": false,
      "t": 31714.29099999994,
      "d": 428.5714999999982,
      "v": 101
    },
    {
      "midi": 65,
      "hit": false,
      "t": 31714.29099999994,
      "d": 428.5714999999982,
      "v": 84
    },
    {
      "midi": 58,
      "hit": false,
      "t": 32571.433999999936,
      "d": 214.28575000000274,
      "v": 59
    },
    {
      "midi": 62,
      "hit": false,
      "t": 32571.433999999936,
      "d": 214.28575000000274,
      "v": 91
    },
    {
      "midi": 65,
      "hit": false,
      "t": 32571.433999999936,
      "d": 214.28575000000274,
      "v": 76
    },
    {
      "midi": 58,
      "hit": false,
      "t": 33428.57699999994,
      "d": 214.28575000000274,
      "v": 82
    },
    {
      "midi": 65,
      "hit": false,
      "t": 33428.57699999994,
      "d": 214.28575000000274,
      "v": 100
    },
    {
      "midi": 46,
      "hit": false,
      "t": 33857.148499999945,
      "d": 214.28575000000274,
      "v": 72
    },
    {
      "midi": 55,
      "hit": false,
      "t": 34285.71999999995,
      "d": 428.5714999999982,
      "v": 68
    },
    {
      "midi": 59,
      "hit": false,
      "t": 34285.71999999995,
      "d": 428.5714999999982,
      "v": 84
    },
    {
      "midi": 62,
      "hit": false,
      "t": 34285.71999999995,
      "d": 428.5714999999982,
      "v": 84
    },
    {
      "midi": 43,
      "hit": false,
      "t": 34285.71999999995,
      "d": 2785.714750000021,
      "v": 95
    },
    {
      "midi": 50,
      "hit": false,
      "t": 34714.29149999995,
      "d": 642.8572500000082,
      "v": 70
    },
    {
      "midi": 55,
      "hit": false,
      "t": 34928.57724999995,
      "d": 214.28575000000274,
      "v": 79
    },
    {
      "midi": 57,
      "hit": false,
      "t": 35142.862999999954,
      "d": 214.28575000000274,
      "v": 98
    },
    {
      "midi": 59,
      "hit": false,
      "t": 35357.14874999996,
      "d": 214.28575000000274,
      "v": 117
    },
    {
      "midi": 50,
      "hit": false,
      "t": 35571.43449999996,
      "d": 642.8572500000082,
      "v": 69
    },
    {
      "midi": 55,
      "hit": false,
      "t": 35785.72024999996,
      "d": 428.57150000000547,
      "v": 73
    },
    {
      "midi": 62,
      "hit": false,
      "t": 36000.005999999965,
      "d": 428.57150000000547,
      "v": 94
    },
    {
      "midi": 71,
      "hit": false,
      "t": 36000.005999999965,
      "d": 428.57150000000547,
      "v": 94
    },
    {
      "midi": 55,
      "hit": false,
      "t": 36428.57749999997,
      "d": 642.8572500000009,
      "v": 50
    },
    {
      "midi": 62,
      "hit": false,
      "t": 36857.14899999997,
      "d": 428.57150000000547,
      "v": 99
    },
    {
      "midi": 69,
      "hit": false,
      "t": 36857.14899999997,
      "d": 428.57150000000547,
      "v": 115
    },
    {
      "midi": 55,
      "hit": false,
      "t": 37285.720499999974,
      "d": 428.5714999999982,
      "v": 77
    },
    {
      "midi": 60,
      "hit": false,
      "t": 37714.29199999997,
      "d": 428.5714999999982,
      "v": 59
    },
    {
      "midi": 62,
      "hit": false,
      "t": 37714.29199999997,
      "d": 428.5714999999982,
      "v": 81
    },
    {
      "midi": 64,
      "hit": false,
      "t": 37714.29199999997,
      "d": 428.5714999999982,
      "v": 94
    },
    {
      "midi": 48,
      "hit": false,
      "t": 37714.29199999997,
      "d": 2571.429000000011,
      "v": 85
    },
    {
      "midi": 55,
      "hit": false,
      "t": 38142.86349999997,
      "d": 428.57150000000547,
      "v": 62
    },
    {
      "midi": 60,
      "hit": false,
      "t": 38357.14924999997,
      "d": 214.28575000000274,
      "v": 76
    },
    {
      "midi": 62,
      "hit": false,
      "t": 38571.434999999976,
      "d": 214.28575000000274,
      "v": 89
    },
    {
      "midi": 64,
      "hit": false,
      "t": 38785.72074999998,
      "d": 214.28575000000274,
      "v": 108
    },
    {
      "midi": 55,
      "hit": false,
      "t": 39000.00649999998,
      "d": 428.57150000000547,
      "v": 45
    },
    {
      "midi": 60,
      "hit": false,
      "t": 39214.292249999984,
      "d": 214.28575000000274,
      "v": 79
    },
    {
      "midi": 60,
      "hit": false,
      "t": 39428.57799999999,
      "d": 428.5714999999982,
      "v": 98
    },
    {
      "midi": 67,
      "hit": false,
      "t": 39428.57799999999,
      "d": 428.5714999999982,
      "v": 104
    },
    {
      "midi": 55,
      "hit": false,
      "t": 39857.149499999985,
      "d": 428.5714999999982,
      "v": 68
    },
    {
      "midi": 60,
      "hit": false,
      "t": 40285.72099999998,
      "d": 214.28575000000274,
      "v": 102
    },
    {
      "midi": 65,
      "hit": false,
      "t": 40285.72099999998,
      "d": 428.57150000000547,
      "v": 113
    },
    {
      "midi": 60,
      "hit": false,
      "t": 40714.29249999999,
      "d": 214.28575000000274,
      "v": 83
    },
    {
      "midi": 60,
      "hit": false,
      "t": 41142.86399999999,
      "d": 428.57150000000547,
      "v": 103
    },
    {
      "midi": 65,
      "hit": false,
      "t": 41142.86399999999,
      "d": 428.57150000000547,
      "v": 98
    },
    {
      "midi": 57,
      "hit": false,
      "t": 41142.86399999999,
      "d": 642.8572500000082,
      "v": 96
    },
    {
      "midi": 43,
      "hit": false,
      "t": 41142.86399999999,
      "d": 1071.4287500000137,
      "v": 94
    },
    {
      "midi": 50,
      "hit": false,
      "t": 41571.43549999999,
      "d": 428.57150000000547,
      "v": 82
    },
    {
      "midi": 55,
      "hit": false,
      "t": 41785.721249999995,
      "d": 214.28575000000274,
      "v": 84
    },
    {
      "midi": 57,
      "hit": false,
      "t": 42000.007,
      "d": 214.28575000000274,
      "v": 106
    },
    {
      "midi": 60,
      "hit": false,
      "t": 42214.29275,
      "d": 214.28575000000274,
      "v": 114
    },
    {
      "midi": 43,
      "hit": false,
      "t": 42428.5785,
      "d": 214.28575000000274,
      "v": 87
    },
    {
      "midi": 55,
      "hit": false,
      "t": 42642.864250000006,
      "d": 214.28575000000274,
      "v": 56
    },
    {
      "midi": 55,
      "hit": false,
      "t": 42857.15000000001,
      "d": 428.5714999999982,
      "v": 94
    },
    {
      "midi": 59,
      "hit": false,
      "t": 42857.15000000001,
      "d": 428.5714999999982,
      "v": 98
    },
    {
      "midi": 62,
      "hit": false,
      "t": 42857.15000000001,
      "d": 428.5714999999982,
      "v": 108
    },
    {
      "midi": 43,
      "hit": false,
      "t": 42857.15000000001,
      "d": 857.1430000000037,
      "v": 97
    },
    {
      "midi": 50,
      "hit": false,
      "t": 43285.72150000001,
      "d": 214.28575000000274,
      "v": 82
    },
    {
      "midi": 55,
      "hit": false,
      "t": 43500.00725000001,
      "d": 214.28575000000274,
      "v": 95
    },
    {
      "midi": 55,
      "hit": false,
      "t": 43714.29300000001,
      "d": 214.28575000000274,
      "v": 105
    },
    {
      "midi": 59,
      "hit": false,
      "t": 43714.29300000001,
      "d": 214.28575000000274,
      "v": 109
    },
    {
      "midi": 62,
      "hit": false,
      "t": 43714.29300000001,
      "d": 214.28575000000274,
      "v": 114
    },
    {
      "midi": 43,
      "hit": false,
      "t": 43928.578750000015,
      "d": 214.28575000000274,
      "v": 89
    },
    {
      "midi": 55,
      "hit": false,
      "t": 44142.86450000002,
      "d": 214.28575000000274,
      "v": 108
    },
    {
      "midi": 60,
      "hit": false,
      "t": 44571.436000000016,
      "d": 214.28574999999546,
      "v": 94
    },
    {
      "midi": 55,
      "hit": false,
      "t": 44571.436000000016,
      "d": 428.5714999999982,
      "v": 79
    },
    {
      "midi": 64,
      "hit": false,
      "t": 44571.436000000016,
      "d": 428.5714999999982,
      "v": 107
    },
    {
      "midi": 36,
      "hit": false,
      "t": 44571.436000000016,
      "d": 2785.7147500000065,
      "v": 89
    },
    {
      "midi": 48,
      "hit": false,
      "t": 45000.007500000014,
      "d": 1285.7145000000019,
      "v": 42
    },
    {
      "midi": 55,
      "hit": false,
      "t": 45428.57900000001,
      "d": 428.5714999999982,
      "v": 81
    },
    {
      "midi": 60,
      "hit": false,
      "t": 45857.15050000001,
      "d": 214.28575000000274,
      "v": 94
    },
    {
      "midi": 55,
      "hit": false,
      "t": 46285.722000000016,
      "d": 428.5714999999982,
      "v": 81
    },
    {
      "midi": 62,
      "hit": false,
      "t": 46285.722000000016,
      "d": 428.5714999999982,
      "v": 96
    },
    {
      "midi": 48,
      "hit": false,
      "t": 46714.293500000014,
      "d": 428.57150000000547,
      "v": 47
    },
    {
      "midi": 55,
      "hit": false,
      "t": 46928.57925000002,
      "d": 214.28575000000274,
      "v": 84
    },
    {
      "midi": 55,
      "hit": false,
      "t": 47142.86500000002,
      "d": 214.28575000000274,
      "v": 95
    },
    {
      "midi": 64,
      "hit": false,
      "t": 47142.86500000002,
      "d": 428.57150000000547,
      "v": 114
    },
    {
      "midi": 48,
      "hit": false,
      "t": 47357.15075000002,
      "d": 214.28575000000274,
      "v": 79
    },
    {
      "midi": 55,
      "hit": false,
      "t": 47571.436500000025,
      "d": 214.28575000000274,
      "v": 92
    },
    {
      "midi": 55,
      "hit": false,
      "t": 48000.00800000003,
      "d": 428.5714999999982,
      "v": 79
    },
    {
      "midi": 59,
      "hit": false,
      "t": 48000.00800000003,
      "d": 428.5714999999982,
      "v": 81
    },
    {
      "midi": 62,
      "hit": false,
      "t": 48000.00800000003,
      "d": 428.5714999999982,
      "v": 98
    },
    {
      "midi": 40,
      "hit": false,
      "t": 48000.00800000003,
      "d": 2785.714750000021,
      "v": 81
    },
    {
      "midi": 52,
      "hit": false,
      "t": 48428.57950000003,
      "d": 428.57150000000547,
      "v": 66
    },
    {
      "midi": 55,
      "hit": false,
      "t": 48642.86525000003,
      "d": 214.28575000000274,
      "v": 80
    },
    {
      "midi": 59,
      "hit": false,
      "t": 48857.151000000034,
      "d": 214.28575000000274,
      "v": 94
    },
    {
      "midi": 62,
      "hit": false,
      "t": 49071.43675000004,
      "d": 214.28575000000274,
      "v": 105
    },
    {
      "midi": 52,
      "hit": false,
      "t": 49285.72250000004,
      "d": 428.57150000000547,
      "v": 75
    },
    {
      "midi": 62,
      "hit": false,
      "t": 49500.00825000004,
      "d": 428.57150000000547,
      "v": 76
    },
    {
      "midi": 71,
      "hit": false,
      "t": 49714.294000000045,
      "d": 214.28575000000274,
      "v": 94
    },
    {
      "midi": 52,
      "hit": false,
      "t": 50142.86550000005,
      "d": 428.5714999999982,
      "v": 56
    },
    {
      "midi": 55,
      "hit": false,
      "t": 50571.43700000005,
      "d": 214.28575000000274,
      "v": 90
    },
    {
      "midi": 59,
      "hit": false,
      "t": 50571.43700000005,
      "d": 214.28575000000274,
      "v": 94
    },
    {
      "midi": 62,
      "hit": false,
      "t": 50571.43700000005,
      "d": 214.28575000000274,
      "v": 94
    },
    {
      "midi": 52,
      "hit": false,
      "t": 51000.008500000054,
      "d": 214.28575000000274,
      "v": 84
    },
    {
      "midi": 55,
      "hit": false,
      "t": 51428.58000000005,
      "d": 428.5714999999982,
      "v": 76
    },
    {
      "midi": 58,
      "hit": false,
      "t": 51428.58000000005,
      "d": 428.5714999999982,
      "v": 78
    },
    {
      "midi": 62,
      "hit": false,
      "t": 51428.58000000005,
      "d": 642.8572500000009,
      "v": 91
    },
    {
      "midi": 43,
      "hit": false,
      "t": 51428.58000000005,
      "d": 857.1430000000037,
      "v": 93
    },
    {
      "midi": 50,
      "hit": false,
      "t": 51857.15150000005,
      "d": 428.57150000000547,
      "v": 81
    },
    {
      "midi": 55,
      "hit": false,
      "t": 52071.43725000005,
      "d": 214.28575000000274,
      "v": 79
    },
    {
      "midi": 55,
      "hit": false,
      "t": 52285.723000000056,
      "d": 214.28575000000274,
      "v": 92
    },
    {
      "midi": 58,
      "hit": false,
      "t": 52285.723000000056,
      "d": 214.28575000000274,
      "v": 79
    },
    {
      "midi": 62,
      "hit": false,
      "t": 52285.723000000056,
      "d": 214.28575000000274,
      "v": 98
    },
    {
      "midi": 65,
      "hit": false,
      "t": 52285.723000000056,
      "d": 214.28575000000274,
      "v": 97
    },
    {
      "midi": 43,
      "hit": false,
      "t": 52500.00875000006,
      "d": 214.28575000000274,
      "v": 92
    },
    {
      "midi": 55,
      "hit": false,
      "t": 52714.29450000006,
      "d": 214.28575000000274,
      "v": 84
    },
    {
      "midi": 57,
      "hit": false,
      "t": 53142.86600000007,
      "d": 428.57150000000547,
      "v": 92
    },
    {
      "midi": 61,
      "hit": false,
      "t": 53142.86600000007,
      "d": 428.57150000000547,
      "v": 93
    },
    {
      "midi": 64,
      "hit": false,
      "t": 53142.86600000007,
      "d": 428.57150000000547,
      "v": 101
    },
    {
      "midi": 45,
      "hit": false,
      "t": 53142.86600000007,
      "d": 1285.7145000000164,
      "v": 97
    },
    {
      "midi": 52,
      "hit": false,
      "t": 53571.43750000007,
      "d": 428.57150000000547,
      "v": 81
    },
    {
      "midi": 57,
      "hit": false,
      "t": 53785.723250000075,
      "d": 214.28575000000274,
      "v": 77
    },
    {
      "midi": 57,
      "hit": false,
      "t": 54000.00900000008,
      "d": 214.28575000000274,
      "v": 89
    },
    {
      "midi": 61,
      "hit": false,
      "t": 54000.00900000008,
      "d": 214.28575000000274,
      "v": 78
    },
    {
      "midi": 64,
      "hit": false,
      "t": 54000.00900000008,
      "d": 214.28575000000274,
      "v": 87
    },
    {
      "midi": 69,
      "hit": false,
      "t": 54000.00900000008,
      "d": 214.28575000000274,
      "v": 81
    },
    {
      "midi": 57,
      "hit": false,
      "t": 54642.86625000009,
      "d": 642.8572500000009,
      "v": 64
    },
    {
      "midi": 62,
      "hit": false,
      "t": 54857.15200000009,
      "d": 214.28574999999546,
      "v": 84
    },
    {
      "midi": 38,
      "hit": false,
      "t": 54857.15200000009,
      "d": 428.5714999999982,
      "v": 87
    },
    {
      "midi": 65,
      "hit": false,
      "t": 54857.15200000009,
      "d": 428.5714999999982,
      "v": 92
    },
    {
      "midi": 50,
      "hit": false,
      "t": 55285.72350000009,
      "d": 214.28575000000274,
      "v": 77
    },
    {
      "midi": 57,
      "hit": false,
      "t": 55500.00925000009,
      "d": 214.28575000000274,
      "v": 85
    },
    {
      "midi": 62,
      "hit": false,
      "t": 55714.29500000009,
      "d": 214.28575000000274,
      "v": 89
    },
    {
      "midi": 64,
      "hit": false,
      "t": 55928.580750000096,
      "d": 214.28575000000274,
      "v": 94
    },
    {
      "midi": 50,
      "hit": false,
      "t": 55928.580750000096,
      "d": 1500.0002500000046,
      "v": 72
    },
    {
      "midi": 57,
      "hit": false,
      "t": 56357.1522500001,
      "d": 214.28575000000274,
      "v": 70
    },
    {
      "midi": 65,
      "hit": false,
      "t": 56571.438000000104,
      "d": 428.5714999999982,
      "v": 98
    },
    {
      "midi": 57,
      "hit": false,
      "t": 57000.0095000001,
      "d": 428.5714999999982,
      "v": 48
    },
    {
      "midi": 62,
      "hit": false,
      "t": 57428.5810000001,
      "d": 214.28575000000274,
      "v": 90
    },
    {
      "midi": 65,
      "hit": false,
      "t": 57428.5810000001,
      "d": 214.28575000000274,
      "v": 94
    },
    {
      "midi": 50,
      "hit": false,
      "t": 57857.152500000106,
      "d": 214.28575000000274,
      "v": 78
    },
    {
      "midi": 58,
      "hit": false,
      "t": 58285.72400000011,
      "d": 428.57150000000547,
      "v": 78
    },
    {
      "midi": 62,
      "hit": false,
      "t": 58285.72400000011,
      "d": 428.57150000000547,
      "v": 92
    },
    {
      "midi": 65,
      "hit": false,
      "t": 58285.72400000011,
      "d": 428.57150000000547,
      "v": 91
    },
    {
      "midi": 46,
      "hit": false,
      "t": 58285.72400000011,
      "d": 2785.714749999999,
      "v": 82
    },
    {
      "midi": 58,
      "hit": false,
      "t": 59142.867000000115,
      "d": 428.5714999999982,
      "v": 84
    },
    {
      "midi": 62,
      "hit": false,
      "t": 59142.867000000115,
      "d": 428.5714999999982,
      "v": 107
    },
    {
      "midi": 65,
      "hit": false,
      "t": 59142.867000000115,
      "d": 428.5714999999982,
      "v": 94
    },
    {
      "midi": 58,
      "hit": false,
      "t": 60000.01000000011,
      "d": 428.5714999999982,
      "v": 81
    },
    {
      "midi": 62,
      "hit": false,
      "t": 60000.01000000011,
      "d": 428.5714999999982,
      "v": 104
    },
    {
      "midi": 65,
      "hit": false,
      "t": 60000.01000000011,
      "d": 428.5714999999982,
      "v": 94
    },
    {
      "midi": 58,
      "hit": false,
      "t": 60857.15300000011,
      "d": 214.28575000000274,
      "v": 90
    },
    {
      "midi": 62,
      "hit": false,
      "t": 60857.15300000011,
      "d": 214.28575000000274,
      "v": 109
    },
    {
      "midi": 65,
      "hit": false,
      "t": 60857.15300000011,
      "d": 214.28575000000274,
      "v": 100
    },
    {
      "midi": 46,
      "hit": false,
      "t": 61285.72450000011,
      "d": 214.28575000000274,
      "v": 75
    },
    {
      "midi": 55,
      "hit": false,
      "t": 61714.29600000012,
      "d": 428.57150000000547,
      "v": 91
    },
    {
      "midi": 59,
      "hit": false,
      "t": 61714.29600000012,
      "d": 428.57150000000547,
      "v": 98
    },
    {
      "midi": 62,
      "hit": false,
      "t": 61714.29600000012,
      "d": 428.57150000000547,
      "v": 98
    },
    {
      "midi": 43,
      "hit": false,
      "t": 61714.29600000012,
      "d": 1285.7145000000164,
      "v": 91
    },
    {
      "midi": 50,
      "hit": false,
      "t": 62142.867500000124,
      "d": 428.57150000000547,
      "v": 80
    },
    {
      "midi": 55,
      "hit": false,
      "t": 62357.15325000013,
      "d": 214.28575000000274,
      "v": 90
    },
    {
      "midi": 57,
      "hit": false,
      "t": 62571.43900000013,
      "d": 214.28575000000274,
      "v": 94
    },
    {
      "midi": 59,
      "hit": false,
      "t": 62785.72475000013,
      "d": 214.28575000000274,
      "v": 109
    },
    {
      "midi": 50,
      "hit": false,
      "t": 63000.010500000135,
      "d": 428.5714999999982,
      "v": 83
    },
    {
      "midi": 55,
      "hit": false,
      "t": 63214.29625000014,
      "d": 214.28574999999546,
      "v": 87
    },
    {
      "midi": 55,
      "hit": false,
      "t": 63428.58200000013,
      "d": 428.5714999999982,
      "v": 94
    },
    {
      "midi": 59,
      "hit": false,
      "t": 63428.58200000013,
      "d": 428.5714999999982,
      "v": 101
    },
    {
      "midi": 62,
      "hit": false,
      "t": 63428.58200000013,
      "d": 428.5714999999982,
      "v": 107
    },
    {
      "midi": 43,
      "hit": false,
      "t": 63428.58200000013,
      "d": 857.1429999999964,
      "v": 97
    },
    {
      "midi": 50,
      "hit": false,
      "t": 63857.15350000013,
      "d": 428.5714999999982,
      "v": 53
    },
    {
      "midi": 55,
      "hit": false,
      "t": 64285.72500000013,
      "d": 428.5714999999982,
      "v": 99
    },
    {
      "midi": 59,
      "hit": false,
      "t": 64285.72500000013,
      "d": 428.5714999999982,
      "v": 100
    },
    {
      "midi": 62,
      "hit": false,
      "t": 64285.72500000013,
      "d": 428.5714999999982,
      "v": 104
    },
    {
      "midi": 43,
      "hit": false,
      "t": 64714.29650000013,
      "d": 214.28575000000274,
      "v": 84
    },
    {
      "midi": 55,
      "hit": false,
      "t": 65142.86800000013,
      "d": 428.57150000000547,
      "v": 94
    },
    {
      "midi": 60,
      "hit": false,
      "t": 65142.86800000013,
      "d": 428.57150000000547,
      "v": 95
    },
    {
      "midi": 64,
      "hit": false,
      "t": 65142.86800000013,
      "d": 428.57150000000547,
      "v": 94
    },
    {
      "midi": 48,
      "hit": false,
      "t": 65142.86800000013,
      "d": 2142.8575000000274,
      "v": 92
    },
    {
      "midi": 55,
      "hit": false,
      "t": 66000.01100000014,
      "d": 428.57150000000547,
      "v": 95
    },
    {
      "midi": 60,
      "hit": false,
      "t": 66000.01100000014,
      "d": 428.57150000000547,
      "v": 103
    },
    {
      "midi": 64,
      "hit": false,
      "t": 66000.01100000014,
      "d": 428.57150000000547,
      "v": 95
    },
    {
      "midi": 55,
      "hit": false,
      "t": 66857.15400000016,
      "d": 428.57150000000547,
      "v": 107
    },
    {
      "midi": 60,
      "hit": false,
      "t": 66857.15400000016,
      "d": 428.57150000000547,
      "v": 114
    },
    {
      "midi": 64,
      "hit": false,
      "t": 66857.15400000016,
      "d": 428.57150000000547,
      "v": 102
    },
    {
      "midi": 48,
      "hit": false,
      "t": 67285.72550000016,
      "d": 428.57150000000547,
      "v": 65
    },
    {
      "midi": 55,
      "hit": false,
      "t": 67714.29700000017,
      "d": 428.57150000000547,
      "v": 108
    },
    {
      "midi": 60,
      "hit": false,
      "t": 67714.29700000017,
      "d": 428.57150000000547,
      "v": 113
    },
    {
      "midi": 64,
      "hit": false,
      "t": 67714.29700000017,
      "d": 428.57150000000547,
      "v": 108
    },
    {
      "midi": 48,
      "hit": false,
      "t": 68142.86850000017,
      "d": 214.28574999999546,
      "v": 91
    },
    {
      "midi": 55,
      "hit": false,
      "t": 68571.44000000018,
      "d": 214.28574999999546,
      "v": 109
    },
    {
      "midi": 58,
      "hit": false,
      "t": 68571.44000000018,
      "d": 428.5714999999909,
      "v": 124
    },
    {
      "midi": 62,
      "hit": false,
      "t": 68571.44000000018,
      "d": 428.5714999999909,
      "v": 117
    },
    {
      "midi": 43,
      "hit": false,
      "t": 68571.44000000018,
      "d": 857.1429999999818,
      "v": 98
    },
    {
      "midi": 55,
      "hit": false,
      "t": 69000.01150000017,
      "d": 428.5714999999909,
      "v": 89
    },
    {
      "midi": 58,
      "hit": false,
      "t": 69214.29725000016,
      "d": 214.28574999999546,
      "v": 117
    },
    {
      "midi": 55,
      "hit": false,
      "t": 69428.58300000016,
      "d": 214.28574999999546,
      "v": 98
    },
    {
      "midi": 58,
      "hit": false,
      "t": 69428.58300000016,
      "d": 214.28574999999546,
      "v": 105
    },
    {
      "midi": 62,
      "hit": false,
      "t": 69428.58300000016,
      "d": 214.28574999999546,
      "v": 126
    },
    {
      "midi": 43,
      "hit": false,
      "t": 69642.86875000015,
      "d": 214.28574999999546,
      "v": 100
    },
    {
      "midi": 55,
      "hit": false,
      "t": 69857.15450000015,
      "d": 214.28574999999546,
      "v": 106
    },
    {
      "midi": 60,
      "hit": false,
      "t": 70071.44025000015,
      "d": 214.28575000001,
      "v": 98
    },
    {
      "midi": 36,
      "hit": false,
      "t": 70285.72600000016,
      "d": 428.57150000000547,
      "v": 98
    },
    {
      "midi": 55,
      "hit": false,
      "t": 70285.72600000016,
      "d": 428.57150000000547,
      "v": 112
    },
    {
      "midi": 64,
      "hit": false,
      "t": 70285.72600000016,
      "d": 428.57150000000547,
      "v": 117
    },
    {
      "midi": 48,
      "hit": false,
      "t": 70714.29750000016,
      "d": 428.5714999999909,
      "v": 74
    },
    {
      "midi": 55,
      "hit": false,
      "t": 70928.58325000016,
      "d": 214.28574999999546,
      "v": 103
    },
    {
      "midi": 55,
      "hit": false,
      "t": 71142.86900000015,
      "d": 214.28574999999546,
      "v": 108
    },
    {
      "midi": 62,
      "hit": false,
      "t": 71142.86900000015,
      "d": 214.28574999999546,
      "v": 124
    },
    {
      "midi": 38,
      "hit": false,
      "t": 71357.15475000015,
      "d": 214.28574999999546,
      "v": 98
    },
    {
      "midi": 55,
      "hit": false,
      "t": 71571.44050000014,
      "d": 214.28574999999546,
      "v": 87
    },
    {
      "midi": 60,
      "hit": false,
      "t": 71571.44050000014,
      "d": 214.28574999999546,
      "v": 113
    },
    {
      "midi": 57,
      "hit": false,
      "t": 72000.01200000013,
      "d": 428.57150000000547,
      "v": 108
    },
    {
      "midi": 60,
      "hit": false,
      "t": 72000.01200000013,
      "d": 428.57150000000547,
      "v": 115
    },
    {
      "midi": 65,
      "hit": false,
      "t": 72000.01200000013,
      "d": 428.57150000000547,
      "v": 98
    },
    {
      "midi": 41,
      "hit": false,
      "t": 72000.01200000013,
      "d": 857.1430000000109,
      "v": 94
    },
    {
      "midi": 53,
      "hit": false,
      "t": 72428.58350000014,
      "d": 428.57150000000547,
      "v": 64
    },
    {
      "midi": 57,
      "hit": false,
      "t": 72857.15500000014,
      "d": 428.57150000000547,
      "v": 109
    },
    {
      "midi": 60,
      "hit": false,
      "t": 72857.15500000014,
      "d": 428.57150000000547,
      "v": 114
    },
    {
      "midi": 65,
      "hit": false,
      "t": 72857.15500000014,
      "d": 428.57150000000547,
      "v": 98
    },
    {
      "midi": 41,
      "hit": false,
      "t": 73285.72650000015,
      "d": 214.28574999999546,
      "v": 94
    },
    {
      "midi": 41,
      "hit": false,
      "t": 73714.29800000016,
      "d": 214.28574999999546,
      "v": 87
    },
    {
      "midi": 53,
      "hit": false,
      "t": 73714.29800000016,
      "d": 214.28574999999546,
      "v": 103
    },
    {
      "midi": 55,
      "hit": false,
      "t": 73714.29800000016,
      "d": 428.5714999999909,
      "v": 107
    },
    {
      "midi": 59,
      "hit": false,
      "t": 73714.29800000016,
      "d": 428.5714999999909,
      "v": 113
    },
    {
      "midi": 62,
      "hit": false,
      "t": 73714.29800000016,
      "d": 428.5714999999909,
      "v": 107
    },
    {
      "midi": 55,
      "hit": false,
      "t": 74142.86950000015,
      "d": 214.28574999999546,
      "v": 65
    },
    {
      "midi": 55,
      "hit": false,
      "t": 74571.44100000014,
      "d": 214.28574999999546,
      "v": 104
    },
    {
      "midi": 59,
      "hit": false,
      "t": 74571.44100000014,
      "d": 428.5714999999909,
      "v": 112
    },
    {
      "midi": 62,
      "hit": false,
      "t": 74571.44100000014,
      "d": 428.5714999999909,
      "v": 106
    },
    {
      "midi": 52,
      "hit": false,
      "t": 75428.58400000013,
      "d": 214.28574999999546,
      "v": 94
    },
    {
      "midi": 55,
      "hit": false,
      "t": 75428.58400000013,
      "d": 428.5714999999909,
      "v": 97
    },
    {
      "midi": 59,
      "hit": false,
      "t": 75428.58400000013,
      "d": 428.5714999999909,
      "v": 98
    },
    {
      "midi": 64,
      "hit": false,
      "t": 75428.58400000013,
      "d": 428.5714999999909,
      "v": 98
    },
    {
      "midi": 40,
      "hit": false,
      "t": 75428.58400000013,
      "d": 1071.4287499999919,
      "v": 87
    },
    {
      "midi": 52,
      "hit": false,
      "t": 75857.15550000012,
      "d": 428.57150000000547,
      "v": 70
    },
    {
      "midi": 55,
      "hit": false,
      "t": 76285.72700000013,
      "d": 214.28574999999546,
      "v": 103
    },
    {
      "midi": 59,
      "hit": false,
      "t": 76285.72700000013,
      "d": 428.5714999999909,
      "v": 109
    },
    {
      "midi": 64,
      "hit": false,
      "t": 76285.72700000013,
      "d": 428.5714999999909,
      "v": 98
    },
    {
      "midi": 52,
      "hit": false,
      "t": 76714.29850000012,
      "d": 214.28574999999546,
      "v": 87
    },
    {
      "midi": 57,
      "hit": false,
      "t": 77142.87000000011,
      "d": 214.28574999999546,
      "v": 91
    },
    {
      "midi": 60,
      "hit": false,
      "t": 77142.87000000011,
      "d": 428.5714999999909,
      "v": 99
    },
    {
      "midi": 64,
      "hit": false,
      "t": 77142.87000000011,
      "d": 428.5714999999909,
      "v": 97
    },
    {
      "midi": 45,
      "hit": false,
      "t": 77142.87000000011,
      "d": 857.1429999999818,
      "v": 89
    },
    {
      "midi": 52,
      "hit": false,
      "t": 77571.4415000001,
      "d": 428.5714999999909,
      "v": 74
    },
    {
      "midi": 57,
      "hit": false,
      "t": 77785.7272500001,
      "d": 214.28574999999546,
      "v": 68
    },
    {
      "midi": 60,
      "hit": false,
      "t": 77785.7272500001,
      "d": 214.28574999999546,
      "v": 60
    },
    {
      "midi": 57,
      "hit": false,
      "t": 78000.0130000001,
      "d": 214.28574999999546,
      "v": 94
    },
    {
      "midi": 60,
      "hit": false,
      "t": 78000.0130000001,
      "d": 214.28574999999546,
      "v": 96
    },
    {
      "midi": 67,
      "hit": false,
      "t": 78000.0130000001,
      "d": 214.28574999999546,
      "v": 96
    },
    {
      "midi": 45,
      "hit": false,
      "t": 78214.29875000009,
      "d": 214.28574999999546,
      "v": 90
    },
    {
      "midi": 57,
      "hit": false,
      "t": 78428.58450000008,
      "d": 214.28574999999546,
      "v": 93
    },
    {
      "midi": 57,
      "hit": false,
      "t": 78857.15600000009,
      "d": 428.57150000000547,
      "v": 95
    },
    {
      "midi": 60,
      "hit": false,
      "t": 78857.15600000009,
      "d": 428.57150000000547,
      "v": 98
    },
    {
      "midi": 62,
      "hit": false,
      "t": 78857.15600000009,
      "d": 428.57150000000547,
      "v": 101
    },
    {
      "midi": 38,
      "hit": false,
      "t": 78857.15600000009,
      "d": 1285.7145000000164,
      "v": 93
    },
    {
      "midi": 50,
      "hit": false,
      "t": 79285.7275000001,
      "d": 428.57150000000547,
      "v": 68
    },
    {
      "midi": 57,
      "hit": false,
      "t": 79714.2990000001,
      "d": 428.57150000000547,
      "v": 88
    },
    {
      "midi": 60,
      "hit": false,
      "t": 79714.2990000001,
      "d": 428.57150000000547,
      "v": 96
    },
    {
      "midi": 64,
      "hit": false,
      "t": 79714.2990000001,
      "d": 428.57150000000547,
      "v": 89
    },
    {
      "midi": 50,
      "hit": false,
      "t": 80142.8705000001,
      "d": 428.5714999999909,
      "v": 84
    },
    {
      "midi": 55,
      "hit": false,
      "t": 80571.4420000001,
      "d": 428.5714999999909,
      "v": 72
    },
    {
      "midi": 59,
      "hit": false,
      "t": 80571.4420000001,
      "d": 428.5714999999909,
      "v": 87
    },
    {
      "midi": 62,
      "hit": false,
      "t": 80571.4420000001,
      "d": 428.5714999999909,
      "v": 107
    },
    {
      "midi": 43,
      "hit": false,
      "t": 80571.4420000001,
      "d": 857.1429999999818,
      "v": 91
    },
    {
      "midi": 50,
      "hit": false,
      "t": 81000.01350000009,
      "d": 214.28574999999546,
      "v": 58
    },
    {
      "midi": 55,
      "hit": false,
      "t": 81214.29925000008,
      "d": 214.28574999999546,
      "v": 84
    },
    {
      "midi": 57,
      "hit": false,
      "t": 81428.58500000008,
      "d": 214.28574999999546,
      "v": 112
    },
    {
      "midi": 59,
      "hit": false,
      "t": 81642.87075000007,
      "d": 214.28574999999546,
      "v": 113
    },
    {
      "midi": 55,
      "hit": false,
      "t": 81857.15650000007,
      "d": 214.28574999999546,
      "v": 94
    },
    {
      "midi": 55,
      "hit": false,
      "t": 82285.72800000008,
      "d": 428.57150000000547,
      "v": 74
    },
    {
      "midi": 60,
      "hit": false,
      "t": 82285.72800000008,
      "d": 428.57150000000547,
      "v": 89
    },
    {
      "midi": 64,
      "hit": false,
      "t": 82285.72800000008,
      "d": 428.57150000000547,
      "v": 99
    },
    {
      "midi": 36,
      "hit": false,
      "t": 82285.72800000008,
      "d": 1071.4287500000064,
      "v": 91
    },
    {
      "midi": 48,
      "hit": false,
      "t": 82714.29950000008,
      "d": 428.57150000000547,
      "v": 46
    },
    {
      "midi": 55,
      "hit": false,
      "t": 83142.87100000009,
      "d": 214.28574999999546,
      "v": 102
    },
    {
      "midi": 60,
      "hit": false,
      "t": 83142.87100000009,
      "d": 428.5714999999909,
      "v": 101
    },
    {
      "midi": 64,
      "hit": false,
      "t": 83142.87100000009,
      "d": 428.5714999999909,
      "v": 96
    },
    {
      "midi": 36,
      "hit": false,
      "t": 83571.44250000008,
      "d": 214.28574999999546,
      "v": 80
    },
    {
      "midi": 55,
      "hit": false,
      "t": 84000.01400000007,
      "d": 428.5714999999909,
      "v": 95
    },
    {
      "midi": 60,
      "hit": false,
      "t": 84000.01400000007,
      "d": 428.5714999999909,
      "v": 98
    },
    {
      "midi": 64,
      "hit": false,
      "t": 84000.01400000007,
      "d": 428.5714999999909,
      "v": 94
    },
    {
      "midi": 36,
      "hit": false,
      "t": 84000.01400000007,
      "d": 857.1429999999818,
      "v": 92
    },
    {
      "midi": 48,
      "hit": false,
      "t": 84428.58550000006,
      "d": 428.5714999999909,
      "v": 63
    },
    {
      "midi": 55,
      "hit": false,
      "t": 84642.87125000005,
      "d": 214.28574999999546,
      "v": 93
    },
    {
      "midi": 55,
      "hit": false,
      "t": 84857.15700000005,
      "d": 214.28574999999546,
      "v": 106
    },
    {
      "midi": 60,
      "hit": false,
      "t": 84857.15700000005,
      "d": 214.28574999999546,
      "v": 115
    },
    {
      "midi": 64,
      "hit": false,
      "t": 84857.15700000005,
      "d": 214.28574999999546,
      "v": 108
    },
    {
      "midi": 48,
      "hit": false,
      "t": 85071.44275000005,
      "d": 214.28574999999546,
      "v": 98
    },
    {
      "midi": 55,
      "hit": false,
      "t": 85285.72850000004,
      "d": 214.28574999999546,
      "v": 94
    },
    {
      "midi": 57,
      "hit": false,
      "t": 85714.30000000005,
      "d": 428.57150000000547,
      "v": 99
    },
    {
      "midi": 60,
      "hit": false,
      "t": 85714.30000000005,
      "d": 428.57150000000547,
      "v": 114
    },
    {
      "midi": 65,
      "hit": false,
      "t": 85714.30000000005,
      "d": 428.57150000000547,
      "v": 98
    },
    {
      "midi": 41,
      "hit": false,
      "t": 85714.30000000005,
      "d": 857.1430000000109,
      "v": 95
    },
    {
      "midi": 53,
      "hit": false,
      "t": 86142.87150000005,
      "d": 428.57150000000547,
      "v": 60
    },
    {
      "midi": 57,
      "hit": false,
      "t": 86571.44300000006,
      "d": 214.28574999999546,
      "v": 105
    },
    {
      "midi": 60,
      "hit": false,
      "t": 86571.44300000006,
      "d": 214.28574999999546,
      "v": 108
    },
    {
      "midi": 65,
      "hit": false,
      "t": 86571.44300000006,
      "d": 214.28574999999546,
      "v": 92
    },
    {
      "midi": 41,
      "hit": false,
      "t": 87000.01450000005,
      "d": 214.28574999999546,
      "v": 80
    },
    {
      "midi": 52,
      "hit": false,
      "t": 87428.58600000004,
      "d": 214.28574999999546,
      "v": 89
    },
    {
      "midi": 56,
      "hit": false,
      "t": 87428.58600000004,
      "d": 428.5714999999909,
      "v": 107
    },
    {
      "midi": 59,
      "hit": false,
      "t": 87428.58600000004,
      "d": 428.5714999999909,
      "v": 109
    },
    {
      "midi": 64,
      "hit": false,
      "t": 87428.58600000004,
      "d": 428.5714999999909,
      "v": 108
    },
    {
      "midi": 40,
      "hit": false,
      "t": 87428.58600000004,
      "d": 1071.4287499999919,
      "v": 92
    },
    {
      "midi": 52,
      "hit": false,
      "t": 87857.15750000003,
      "d": 642.8572500000009,
      "v": 67
    },
    {
      "midi": 56,
      "hit": false,
      "t": 88285.72900000004,
      "d": 214.28574999999546,
      "v": 96
    },
    {
      "midi": 59,
      "hit": false,
      "t": 88285.72900000004,
      "d": 214.28574999999546,
      "v": 109
    },
    {
      "midi": 64,
      "hit": false,
      "t": 88285.72900000004,
      "d": 214.28574999999546,
      "v": 104
    },
    {
      "midi": 52,
      "hit": false,
      "t": 88714.30050000003,
      "d": 428.5714999999909,
      "v": 80
    },
    {
      "midi": 57,
      "hit": false,
      "t": 89142.87200000002,
      "d": 428.57150000000547,
      "v": 92
    },
    {
      "midi": 60,
      "hit": false,
      "t": 89142.87200000002,
      "d": 428.57150000000547,
      "v": 102
    },
    {
      "midi": 64,
      "hit": false,
      "t": 89142.87200000002,
      "d": 428.57150000000547,
      "v": 98
    },
    {
      "midi": 45,
      "hit": false,
      "t": 89142.87200000002,
      "d": 2785.7147500000137,
      "v": 91
    },
    {
      "midi": 52,
      "hit": false,
      "t": 89571.44350000002,
      "d": 428.57150000000547,
      "v": 61
    },
    {
      "midi": 57,
      "hit": false,
      "t": 90000.01500000003,
      "d": 428.57150000000547,
      "v": 93
    },
    {
      "midi": 60,
      "hit": false,
      "t": 90000.01500000003,
      "d": 428.57150000000547,
      "v": 101
    },
    {
      "midi": 64,
      "hit": false,
      "t": 90000.01500000003,
      "d": 428.57150000000547,
      "v": 94
    },
    {
      "midi": 52,
      "hit": false,
      "t": 90428.58650000003,
      "d": 428.57150000000547,
      "v": 33
    },
    {
      "midi": 57,
      "hit": false,
      "t": 90857.15800000004,
      "d": 428.57150000000547,
      "v": 80
    },
    {
      "midi": 60,
      "hit": false,
      "t": 90857.15800000004,
      "d": 428.57150000000547,
      "v": 92
    },
    {
      "midi": 64,
      "hit": false,
      "t": 90857.15800000004,
      "d": 428.57150000000547,
      "v": 84
    },
    {
      "midi": 52,
      "hit": false,
      "t": 91285.72950000004,
      "d": 428.5714999999909,
      "v": 36
    },
    {
      "midi": 57,
      "hit": false,
      "t": 91500.01525000004,
      "d": 214.28574999999546,
      "v": 103
    },
    {
      "midi": 57,
      "hit": false,
      "t": 91714.30100000004,
      "d": 214.28574999999546,
      "v": 75
    },
    {
      "midi": 60,
      "hit": false,
      "t": 91714.30100000004,
      "d": 214.28574999999546,
      "v": 117
    },
    {
      "midi": 64,
      "hit": false,
      "t": 91928.58675000003,
      "d": 214.28574999999546,
      "v": 120
    },
    {
      "midi": 57,
      "hit": false,
      "t": 92142.87250000003,
      "d": 214.28574999999546,
      "v": 107
    },
    {
      "midi": 50,
      "hit": false,
      "t": 92571.44400000003,
      "d": 214.28574999999546,
      "v": 89
    },
    {
      "midi": 57,
      "hit": false,
      "t": 92571.44400000003,
      "d": 428.5714999999909,
      "v": 107
    },
    {
      "midi": 60,
      "hit": false,
      "t": 92571.44400000003,
      "d": 428.5714999999909,
      "v": 112
    },
    {
      "midi": 64,
      "hit": false,
      "t": 92571.44400000003,
      "d": 428.5714999999909,
      "v": 104
    },
    {
      "midi": 38,
      "hit": false,
      "t": 92571.44400000003,
      "d": 857.1429999999964,
      "v": 87
    },
    {
      "midi": 50,
      "hit": false,
      "t": 93000.01550000002,
      "d": 428.57150000000547,
      "v": 73
    },
    {
      "midi": 57,
      "hit": false,
      "t": 93428.58700000003,
      "d": 214.28574999999546,
      "v": 106
    },
    {
      "midi": 60,
      "hit": false,
      "t": 93428.58700000003,
      "d": 214.28574999999546,
      "v": 114
    },
    {
      "midi": 64,
      "hit": false,
      "t": 93428.58700000003,
      "d": 214.28574999999546,
      "v": 108
    },
    {
      "midi": 38,
      "hit": false,
      "t": 93857.15850000002,
      "d": 214.28574999999546,
      "v": 89
    },
    {
      "midi": 54,
      "hit": false,
      "t": 94285.73000000003,
      "d": 428.5714999999909,
      "v": 113
    },
    {
      "midi": 57,
      "hit": false,
      "t": 94285.73000000003,
      "d": 428.5714999999909,
      "v": 109
    },
    {
      "midi": 62,
      "hit": false,
      "t": 94285.73000000003,
      "d": 428.5714999999909,
      "v": 110
    },
    {
      "midi": 38,
      "hit": false,
      "t": 94285.73000000003,
      "d": 1071.4287499999773,
      "v": 93
    },
    {
      "midi": 50,
      "hit": false,
      "t": 94714.30150000002,
      "d": 428.5714999999909,
      "v": 76
    },
    {
      "midi": 54,
      "hit": false,
      "t": 94928.58725000001,
      "d": 214.28574999999546,
      "v": 86
    },
    {
      "midi": 54,
      "hit": false,
      "t": 95142.873,
      "d": 214.28574999999546,
      "v": 113
    },
    {
      "midi": 57,
      "hit": false,
      "t": 95142.873,
      "d": 214.28574999999546,
      "v": 103
    },
    {
      "midi": 62,
      "hit": false,
      "t": 95142.873,
      "d": 214.28574999999546,
      "v": 110
    },
    {
      "midi": 50,
      "hit": false,
      "t": 95357.15875,
      "d": 428.5714999999909,
      "v": 92
    },
    {
      "midi": 54,
      "hit": false,
      "t": 95571.4445,
      "d": 214.28574999999546,
      "v": 110
    },
    {
      "midi": 55,
      "hit": false,
      "t": 96000.016,
      "d": 428.57150000000547,
      "v": 94
    },
    {
      "midi": 57,
      "hit": false,
      "t": 96000.016,
      "d": 428.57150000000547,
      "v": 96
    },
    {
      "midi": 59,
      "hit": false,
      "t": 96000.016,
      "d": 428.57150000000547,
      "v": 94
    },
    {
      "midi": 43,
      "hit": false,
      "t": 96000.016,
      "d": 1071.4287499999919,
      "v": 94
    },
    {
      "midi": 50,
      "hit": false,
      "t": 96428.58750000001,
      "d": 428.5714999999909,
      "v": 79
    },
    {
      "midi": 55,
      "hit": false,
      "t": 96642.87325,
      "d": 214.28574999999546,
      "v": 79
    },
    {
      "midi": 57,
      "hit": false,
      "t": 96857.159,
      "d": 214.28574999999546,
      "v": 105
    },
    {
      "midi": 59,
      "hit": false,
      "t": 97071.44475,
      "d": 214.28574999999546,
      "v": 112
    },
    {
      "midi": 50,
      "hit": false,
      "t": 97285.73049999999,
      "d": 214.28574999999546,
      "v": 91
    },
    {
      "midi": 55,
      "hit": false,
      "t": 97500.01624999999,
      "d": 214.28574999999546,
      "v": 89
    },
    {
      "midi": 55,
      "hit": false,
      "t": 97714.30199999998,
      "d": 428.57150000000547,
      "v": 103
    },
    {
      "midi": 59,
      "hit": false,
      "t": 97714.30199999998,
      "d": 428.57150000000547,
      "v": 103
    },
    {
      "midi": 62,
      "hit": false,
      "t": 97714.30199999998,
      "d": 428.57150000000547,
      "v": 102
    },
    {
      "midi": 43,
      "hit": false,
      "t": 97714.30199999998,
      "d": 857.1429999999964,
      "v": 94
    },
    {
      "midi": 50,
      "hit": false,
      "t": 98142.87349999999,
      "d": 428.5714999999909,
      "v": 83
    },
    {
      "midi": 55,
      "hit": false,
      "t": 98357.15924999998,
      "d": 214.28574999999546,
      "v": 94
    },
    {
      "midi": 55,
      "hit": false,
      "t": 98571.44499999998,
      "d": 214.28574999999546,
      "v": 97
    },
    {
      "midi": 59,
      "hit": false,
      "t": 98571.44499999998,
      "d": 214.28574999999546,
      "v": 117
    },
    {
      "midi": 43,
      "hit": false,
      "t": 98785.73074999997,
      "d": 214.28574999999546,
      "v": 95
    },
    {
      "midi": 55,
      "hit": false,
      "t": 99000.01649999997,
      "d": 214.28574999999546,
      "v": 102
    },
    {
      "midi": 57,
      "hit": false,
      "t": 99428.58799999996,
      "d": 428.57150000000547,
      "v": 102
    },
    {
      "midi": 60,
      "hit": false,
      "t": 99428.58799999996,
      "d": 428.57150000000547,
      "v": 105
    },
    {
      "midi": 65,
      "hit": false,
      "t": 99428.58799999996,
      "d": 428.57150000000547,
      "v": 100
    },
    {
      "midi": 41,
      "hit": false,
      "t": 99428.58799999996,
      "d": 857.1430000000109,
      "v": 91
    },
    {
      "midi": 53,
      "hit": false,
      "t": 99857.15949999997,
      "d": 428.57150000000547,
      "v": 61
    },
    {
      "midi": 65,
      "hit": false,
      "t": 100285.73099999997,
      "d": 214.28574999999546,
      "v": 99
    },
    {
      "midi": 57,
      "hit": false,
      "t": 100285.73099999997,
      "d": 428.5714999999909,
      "v": 110
    },
    {
      "midi": 60,
      "hit": false,
      "t": 100285.73099999997,
      "d": 428.5714999999909,
      "v": 115
    },
    {
      "midi": 41,
      "hit": false,
      "t": 100714.30249999996,
      "d": 214.28574999999546,
      "v": 85
    },
    {
      "midi": 55,
      "hit": false,
      "t": 101142.87399999995,
      "d": 428.5714999999909,
      "v": 103
    },
    {
      "midi": 59,
      "hit": false,
      "t": 101142.87399999995,
      "d": 428.5714999999909,
      "v": 107
    },
    {
      "midi": 62,
      "hit": false,
      "t": 101142.87399999995,
      "d": 428.5714999999909,
      "v": 106
    },
    {
      "midi": 41,
      "hit": false,
      "t": 101142.87399999995,
      "d": 857.1429999999818,
      "v": 97
    },
    {
      "midi": 53,
      "hit": false,
      "t": 101571.44549999994,
      "d": 428.5714999999909,
      "v": 62
    },
    {
      "midi": 55,
      "hit": false,
      "t": 101785.73124999994,
      "d": 214.28574999999546,
      "v": 81
    },
    {
      "midi": 55,
      "hit": false,
      "t": 102000.01699999993,
      "d": 214.28574999999546,
      "v": 106
    },
    {
      "midi": 59,
      "hit": false,
      "t": 102000.01699999993,
      "d": 428.5714999999909,
      "v": 109
    },
    {
      "midi": 62,
      "hit": false,
      "t": 102000.01699999993,
      "d": 428.5714999999909,
      "v": 104
    },
    {
      "midi": 41,
      "hit": false,
      "t": 102214.30274999993,
      "d": 214.28574999999546,
      "v": 93
    },
    {
      "midi": 55,
      "hit": false,
      "t": 102428.58849999993,
      "d": 214.28574999999546,
      "v": 94
    },
    {
      "midi": 52,
      "hit": false,
      "t": 102857.15999999992,
      "d": 214.28574999999546,
      "v": 97
    },
    {
      "midi": 55,
      "hit": false,
      "t": 102857.15999999992,
      "d": 428.5714999999909,
      "v": 105
    },
    {
      "midi": 59,
      "hit": false,
      "t": 102857.15999999992,
      "d": 428.5714999999909,
      "v": 105
    },
    {
      "midi": 64,
      "hit": false,
      "t": 102857.15999999992,
      "d": 428.5714999999909,
      "v": 97
    },
    {
      "midi": 40,
      "hit": false,
      "t": 102857.15999999992,
      "d": 1285.7144999999728,
      "v": 93
    },
    {
      "midi": 52,
      "hit": false,
      "t": 103285.7314999999,
      "d": 642.8572499999864,
      "v": 66
    },
    {
      "midi": 55,
      "hit": false,
      "t": 103500.0172499999,
      "d": 214.28574999999546,
      "v": 94
    },
    {
      "midi": 55,
      "hit": false,
      "t": 103714.3029999999,
      "d": 214.28574999999546,
      "v": 85
    },
    {
      "midi": 59,
      "hit": false,
      "t": 103714.3029999999,
      "d": 214.28574999999546,
      "v": 120
    },
    {
      "midi": 55,
      "hit": false,
      "t": 103928.5887499999,
      "d": 214.28574999999546,
      "v": 88
    },
    {
      "midi": 64,
      "hit": false,
      "t": 103928.5887499999,
      "d": 214.28574999999546,
      "v": 114
    },
    {
      "midi": 47,
      "hit": false,
      "t": 104142.87449999989,
      "d": 428.5714999999909,
      "v": 81
    },
    {
      "midi": 57,
      "hit": false,
      "t": 104571.44599999988,
      "d": 428.5714999999909,
      "v": 81
    },
    {
      "midi": 60,
      "hit": false,
      "t": 104571.44599999988,
      "d": 428.5714999999909,
      "v": 91
    },
    {
      "midi": 64,
      "hit": false,
      "t": 104571.44599999988,
      "d": 428.5714999999909,
      "v": 98
    },
    {
      "midi": 45,
      "hit": false,
      "t": 104571.44599999988,
      "d": 857.1429999999964,
      "v": 98
    },
    {
      "midi": 57,
      "hit": false,
      "t": 105428.58899999988,
      "d": 428.57150000000547,
      "v": 101
    },
    {
      "midi": 60,
      "hit": false,
      "t": 105428.58899999988,
      "d": 428.57150000000547,
      "v": 105
    },
    {
      "midi": 64,
      "hit": false,
      "t": 105428.58899999988,
      "d": 428.57150000000547,
      "v": 98
    },
    {
      "midi": 45,
      "hit": false,
      "t": 105857.16049999988,
      "d": 214.28574999999546,
      "v": 97
    },
    {
      "midi": 57,
      "hit": false,
      "t": 106285.73199999987,
      "d": 428.57150000000547,
      "v": 104
    },
    {
      "midi": 62,
      "hit": false,
      "t": 106285.73199999987,
      "d": 428.57150000000547,
      "v": 105
    },
    {
      "midi": 65,
      "hit": false,
      "t": 106285.73199999987,
      "d": 428.57150000000547,
      "v": 94
    },
    {
      "midi": 38,
      "hit": false,
      "t": 106285.73199999987,
      "d": 1285.7145000000164,
      "v": 88
    },
    {
      "midi": 50,
      "hit": false,
      "t": 106714.30349999988,
      "d": 428.57150000000547,
      "v": 54
    },
    {
      "midi": 57,
      "hit": false,
      "t": 107142.87499999988,
      "d": 428.57150000000547,
      "v": 108
    },
    {
      "midi": 62,
      "hit": false,
      "t": 107142.87499999988,
      "d": 428.57150000000547,
      "v": 113
    },
    {
      "midi": 65,
      "hit": false,
      "t": 107142.87499999988,
      "d": 428.57150000000547,
      "v": 100
    },
    {
      "midi": 50,
      "hit": false,
      "t": 107571.44649999989,
      "d": 214.28574999999546,
      "v": 88
    },
    {
      "midi": 55,
      "hit": false,
      "t": 108000.0179999999,
      "d": 428.5714999999909,
      "v": 77
    },
    {
      "midi": 59,
      "hit": false,
      "t": 108000.0179999999,
      "d": 428.5714999999909,
      "v": 90
    },
    {
      "midi": 62,
      "hit": false,
      "t": 108000.0179999999,
      "d": 428.5714999999909,
      "v": 97
    },
    {
      "midi": 43,
      "hit": false,
      "t": 108000.0179999999,
      "d": 857.1429999999818,
      "v": 98
    },
    {
      "midi": 50,
      "hit": false,
      "t": 108428.58949999989,
      "d": 428.5714999999909,
      "v": 80
    },
    {
      "midi": 55,
      "hit": false,
      "t": 108642.87524999988,
      "d": 214.28574999999546,
      "v": 78
    },
    {
      "midi": 57,
      "hit": false,
      "t": 108857.16099999988,
      "d": 214.28574999999546,
      "v": 105
    },
    {
      "midi": 59,
      "hit": false,
      "t": 109071.44674999987,
      "d": 214.28574999999546,
      "v": 118
    },
    {
      "midi": 55,
      "hit": false,
      "t": 109285.73249999987,
      "d": 214.28574999999546,
      "v": 99
    },
    {
      "midi": 55,
      "hit": false,
      "t": 109714.30399999986,
      "d": 428.57150000000547,
      "v": 71
    },
    {
      "midi": 60,
      "hit": false,
      "t": 109714.30399999986,
      "d": 428.57150000000547,
      "v": 91
    },
    {
      "midi": 64,
      "hit": false,
      "t": 109714.30399999986,
      "d": 428.57150000000547,
      "v": 96
    },
    {
      "midi": 36,
      "hit": false,
      "t": 109714.30399999986,
      "d": 857.1430000000109,
      "v": 95
    },
    {
      "midi": 48,
      "hit": false,
      "t": 110142.87549999986,
      "d": 428.57150000000547,
      "v": 56
    },
    {
      "midi": 55,
      "hit": false,
      "t": 110571.44699999987,
      "d": 428.57150000000547,
      "v": 95
    },
    {
      "midi": 60,
      "hit": false,
      "t": 110571.44699999987,
      "d": 428.57150000000547,
      "v": 102
    },
    {
      "midi": 64,
      "hit": false,
      "t": 110571.44699999987,
      "d": 428.57150000000547,
      "v": 98
    },
    {
      "midi": 36,
      "hit": false,
      "t": 111000.01849999987,
      "d": 214.28574999999546,
      "v": 73
    },
    {
      "midi": 55,
      "hit": false,
      "t": 111428.58999999987,
      "d": 428.57150000000547,
      "v": 97
    },
    {
      "midi": 60,
      "hit": false,
      "t": 111428.58999999987,
      "d": 428.57150000000547,
      "v": 105
    },
    {
      "midi": 64,
      "hit": false,
      "t": 111428.58999999987,
      "d": 428.57150000000547,
      "v": 100
    },
    {
      "midi": 36,
      "hit": false,
      "t": 111428.58999999987,
      "d": 857.1429999999964,
      "v": 95
    },
    {
      "midi": 48,
      "hit": false,
      "t": 111857.16149999987,
      "d": 428.5714999999909,
      "v": 77
    },
    {
      "midi": 55,
      "hit": false,
      "t": 112071.44724999987,
      "d": 214.28574999999546,
      "v": 95
    },
    {
      "midi": 55,
      "hit": false,
      "t": 112285.73299999986,
      "d": 214.28574999999546,
      "v": 106
    },
    {
      "midi": 60,
      "hit": false,
      "t": 112285.73299999986,
      "d": 214.28574999999546,
      "v": 114
    },
    {
      "midi": 64,
      "hit": false,
      "t": 112285.73299999986,
      "d": 214.28574999999546,
      "v": 112
    },
    {
      "midi": 48,
      "hit": false,
      "t": 112500.01874999986,
      "d": 214.28574999999546,
      "v": 89
    },
    {
      "midi": 55,
      "hit": false,
      "t": 112714.30449999985,
      "d": 214.28574999999546,
      "v": 98
    },
    {
      "midi": 57,
      "hit": false,
      "t": 113142.87599999986,
      "d": 428.5714999999909,
      "v": 108
    },
    {
      "midi": 60,
      "hit": false,
      "t": 113142.87599999986,
      "d": 428.5714999999909,
      "v": 110
    },
    {
      "midi": 65,
      "hit": false,
      "t": 113142.87599999986,
      "d": 428.5714999999909,
      "v": 98
    },
    {
      "midi": 41,
      "hit": false,
      "t": 113142.87599999986,
      "d": 857.1429999999964,
      "v": 94
    },
    {
      "midi": 53,
      "hit": false,
      "t": 113571.44749999985,
      "d": 428.57150000000547,
      "v": 67
    },
    {
      "midi": 60,
      "hit": false,
      "t": 114000.01899999985,
      "d": 214.28574999999546,
      "v": 113
    },
    {
      "midi": 65,
      "hit": false,
      "t": 114000.01899999985,
      "d": 214.28574999999546,
      "v": 99
    },
    {
      "midi": 57,
      "hit": false,
      "t": 114000.01899999985,
      "d": 428.5714999999909,
      "v": 109
    },
    {
      "midi": 41,
      "hit": false,
      "t": 114428.59049999985,
      "d": 214.28574999999546,
      "v": 91
    },
    {
      "midi": 55,
      "hit": false,
      "t": 114857.16199999984,
      "d": 428.5714999999909,
      "v": 105
    },
    {
      "midi": 59,
      "hit": false,
      "t": 114857.16199999984,
      "d": 428.5714999999909,
      "v": 110
    },
    {
      "midi": 62,
      "hit": false,
      "t": 114857.16199999984,
      "d": 428.5714999999909,
      "v": 110
    },
    {
      "midi": 41,
      "hit": false,
      "t": 114857.16199999984,
      "d": 857.1429999999818,
      "v": 100
    },
    {
      "midi": 53,
      "hit": false,
      "t": 115285.73349999983,
      "d": 428.5714999999909,
      "v": 38
    },
    {
      "midi": 55,
      "hit": false,
      "t": 115500.01924999982,
      "d": 214.28574999999546,
      "v": 87
    },
    {
      "midi": 55,
      "hit": false,
      "t": 115714.30499999982,
      "d": 214.28574999999546,
      "v": 109
    },
    {
      "midi": 59,
      "hit": false,
      "t": 115714.30499999982,
      "d": 214.28574999999546,
      "v": 103
    },
    {
      "midi": 62,
      "hit": false,
      "t": 115714.30499999982,
      "d": 214.28574999999546,
      "v": 103
    },
    {
      "midi": 41,
      "hit": false,
      "t": 115928.59074999981,
      "d": 214.28574999999546,
      "v": 94
    },
    {
      "midi": 55,
      "hit": false,
      "t": 116142.87649999981,
      "d": 214.28574999999546,
      "v": 104
    },
    {
      "midi": 52,
      "hit": false,
      "t": 116571.44799999981,
      "d": 214.28574999999546,
      "v": 105
    },
    {
      "midi": 55,
      "hit": false,
      "t": 116571.44799999981,
      "d": 428.5714999999909,
      "v": 110
    },
    {
      "midi": 59,
      "hit": false,
      "t": 116571.44799999981,
      "d": 428.5714999999909,
      "v": 114
    },
    {
      "midi": 62,
      "hit": false,
      "t": 116571.44799999981,
      "d": 428.5714999999909,
      "v": 109
    },
    {
      "midi": 40,
      "hit": false,
      "t": 116571.44799999981,
      "d": 1285.7145000000019,
      "v": 88
    },
    {
      "midi": 52,
      "hit": false,
      "t": 117000.0194999998,
      "d": 428.57150000000547,
      "v": 77
    },
    {
      "midi": 55,
      "hit": false,
      "t": 117428.59099999981,
      "d": 428.57150000000547,
      "v": 106
    },
    {
      "midi": 59,
      "hit": false,
      "t": 117428.59099999981,
      "d": 428.57150000000547,
      "v": 110
    },
    {
      "midi": 62,
      "hit": false,
      "t": 117428.59099999981,
      "d": 428.57150000000547,
      "v": 107
    },
    {
      "midi": 52,
      "hit": false,
      "t": 117857.16249999982,
      "d": 214.28574999999546,
      "v": 76
    },
    {
      "midi": 55,
      "hit": false,
      "t": 118285.73399999982,
      "d": 428.5714999999909,
      "v": 90
    },
    {
      "midi": 60,
      "hit": false,
      "t": 118285.73399999982,
      "d": 428.5714999999909,
      "v": 98
    },
    {
      "midi": 64,
      "hit": false,
      "t": 118285.73399999982,
      "d": 428.5714999999909,
      "v": 112
    },
    {
      "midi": 45,
      "hit": false,
      "t": 118285.73399999982,
      "d": 857.1429999999818,
      "v": 96
    },
    {
      "midi": 52,
      "hit": false,
      "t": 118714.30549999981,
      "d": 642.8572499999864,
      "v": 85
    },
    {
      "midi": 55,
      "hit": false,
      "t": 118928.59124999981,
      "d": 214.28574999999546,
      "v": 94
    },
    {
      "midi": 55,
      "hit": false,
      "t": 119142.8769999998,
      "d": 214.28574999999546,
      "v": 84
    },
    {
      "midi": 60,
      "hit": false,
      "t": 119142.8769999998,
      "d": 214.28574999999546,
      "v": 124
    },
    {
      "midi": 60,
      "hit": false,
      "t": 119357.1627499998,
      "d": 214.28574999999546,
      "v": 91
    },
    {
      "midi": 64,
      "hit": false,
      "t": 119357.1627499998,
      "d": 214.28574999999546,
      "v": 124
    },
    {
      "midi": 45,
      "hit": false,
      "t": 119571.4484999998,
      "d": 214.28574999999546,
      "v": 87
    },
    {
      "midi": 65,
      "hit": false,
      "t": 120000.01999999979,
      "d": 214.28574999999546,
      "v": 100
    },
    {
      "midi": 57,
      "hit": false,
      "t": 120000.01999999979,
      "d": 428.5714999999909,
      "v": 104
    },
    {
      "midi": 62,
      "hit": false,
      "t": 120000.01999999979,
      "d": 428.5714999999909,
      "v": 113
    },
    {
      "midi": 38,
      "hit": false,
      "t": 120000.01999999979,
      "d": 1285.7145000000019,
      "v": 98
    },
    {
      "midi": 50,
      "hit": false,
      "t": 120428.59149999978,
      "d": 428.57150000000547,
      "v": 75
    },
    {
      "midi": 57,
      "hit": false,
      "t": 120857.16299999978,
      "d": 428.57150000000547,
      "v": 99
    },
    {
      "midi": 60,
      "hit": false,
      "t": 120857.16299999978,
      "d": 428.57150000000547,
      "v": 103
    },
    {
      "midi": 62,
      "hit": false,
      "t": 120857.16299999978,
      "d": 428.57150000000547,
      "v": 104
    },
    {
      "midi": 65,
      "hit": false,
      "t": 120857.16299999978,
      "d": 428.57150000000547,
      "v": 97
    },
    {
      "midi": 50,
      "hit": false,
      "t": 121285.73449999979,
      "d": 428.57150000000547,
      "v": 92
    },
    {
      "midi": 55,
      "hit": false,
      "t": 121714.3059999998,
      "d": 428.5714999999909,
      "v": 78
    },
    {
      "midi": 59,
      "hit": false,
      "t": 121714.3059999998,
      "d": 428.5714999999909,
      "v": 82
    },
    {
      "midi": 62,
      "hit": false,
      "t": 121714.3059999998,
      "d": 428.5714999999909,
      "v": 115
    },
    {
      "midi": 43,
      "hit": false,
      "t": 121714.3059999998,
      "d": 857.1429999999818,
      "v": 94
    },
    {
      "midi": 50,
      "hit": false,
      "t": 122142.87749999978,
      "d": 214.28574999999546,
      "v": 83
    },
    {
      "midi": 55,
      "hit": false,
      "t": 122357.16324999978,
      "d": 214.28574999999546,
      "v": 93
    },
    {
      "midi": 57,
      "hit": false,
      "t": 122571.44899999977,
      "d": 214.28574999999546,
      "v": 104
    },
    {
      "midi": 59,
      "hit": false,
      "t": 122785.73474999977,
      "d": 214.28574999999546,
      "v": 120
    },
    {
      "midi": 55,
      "hit": false,
      "t": 123000.02049999977,
      "d": 214.28574999999546,
      "v": 95
    },
    {
      "midi": 55,
      "hit": false,
      "t": 123214.30624999976,
      "d": 642.8572500000009,
      "v": 70
    },
    {
      "midi": 60,
      "hit": false,
      "t": 123214.30624999976,
      "d": 642.8572500000009,
      "v": 89
    },
    {
      "midi": 64,
      "hit": false,
      "t": 123428.59199999976,
      "d": 428.57150000000547,
      "v": 110
    },
    {
      "midi": 36,
      "hit": false,
      "t": 123428.59199999976,
      "d": 2142.857500000013,
      "v": 91
    },
    {
      "midi": 48,
      "hit": false,
      "t": 123857.16349999976,
      "d": 1714.2860000000073,
      "v": 70
    },
    {
      "midi": 55,
      "hit": false,
      "t": 124285.73499999977,
      "d": 1285.7145000000019,
      "v": 81
    },
    {
      "midi": 60,
      "hit": false,
      "t": 124714.30649999977,
      "d": 214.28574999999546,
      "v": 80
    },
    {
      "midi": 64,
      "hit": false,
      "t": 125142.87799999976,
      "d": 857.1430000000109,
      "v": 89
    },
    {
      "midi": 74,
      "hit": false,
      "t": 126857.16399999977,
      "d": 428.5714999999909,
      "v": 106
    },
    {
      "midi": 48,
      "hit": false,
      "t": 126857.16399999977,
      "d": 2357.143249999979,
      "v": 87
    },
    {
      "midi": 76,
      "hit": false,
      "t": 127285.73549999976,
      "d": 214.28574999999546,
      "v": 99
    },
    {
      "midi": 55,
      "hit": false,
      "t": 127285.73549999976,
      "d": 1928.5717499999882,
      "v": 84
    },
    {
      "midi": 74,
      "hit": false,
      "t": 127714.30699999975,
      "d": 214.28574999999546,
      "v": 98
    },
    {
      "midi": 60,
      "hit": false,
      "t": 127714.30699999975,
      "d": 1714.2859999999928,
      "v": 73
    },
    {
      "midi": 76,
      "hit": false,
      "t": 128142.87849999974,
      "d": 642.8572500000009,
      "v": 113
    },
    {
      "midi": 67,
      "hit": false,
      "t": 129428.59299999975,
      "d": 214.28574999999546,
      "v": 85
    },
    {
      "midi": 65,
      "hit": false,
      "t": 130285.73599999974,
      "d": 428.5714999999909,
      "v": 62
    },
    {
      "midi": 67,
      "hit": false,
      "t": 130285.73599999974,
      "d": 428.5714999999909,
      "v": 76
    },
    {
      "midi": 69,
      "hit": false,
      "t": 130285.73599999974,
      "d": 428.5714999999909,
      "v": 81
    },
    {
      "midi": 53,
      "hit": false,
      "t": 130285.73599999974,
      "d": 2571.429000000033,
      "v": 87
    },
    {
      "midi": 60,
      "hit": false,
      "t": 130714.30749999973,
      "d": 428.5714999999909,
      "v": 62
    },
    {
      "midi": 65,
      "hit": false,
      "t": 130928.59324999973,
      "d": 214.28574999999546,
      "v": 75
    },
    {
      "midi": 67,
      "hit": false,
      "t": 131142.87899999972,
      "d": 214.28575000001,
      "v": 83
    },
    {
      "midi": 69,
      "hit": false,
      "t": 131357.16474999973,
      "d": 214.28575000001,
      "v": 109
    },
    {
      "midi": 60,
      "hit": false,
      "t": 131571.45049999974,
      "d": 1285.714500000031,
      "v": 77
    },
    {
      "midi": 65,
      "hit": false,
      "t": 131785.73624999975,
      "d": 1071.428750000021,
      "v": 67
    },
    {
      "midi": 69,
      "hit": false,
      "t": 132000.02199999976,
      "d": 1071.428750000021,
      "v": 84
    },
    {
      "midi": 77,
      "hit": false,
      "t": 132000.02199999976,
      "d": 1071.428750000021,
      "v": 87
    },
    {
      "midi": 67,
      "hit": false,
      "t": 133714.3079999998,
      "d": 214.28575000001,
      "v": 84
    },
    {
      "midi": 74,
      "hit": false,
      "t": 133714.3079999998,
      "d": 214.28575000001,
      "v": 92
    },
    {
      "midi": 48,
      "hit": false,
      "t": 133714.3079999998,
      "d": 428.57150000002,
      "v": 92
    },
    {
      "midi": 67,
      "hit": false,
      "t": 134142.8794999998,
      "d": 214.28575000001,
      "v": 90
    },
    {
      "midi": 76,
      "hit": false,
      "t": 134142.8794999998,
      "d": 214.28575000001,
      "v": 102
    },
    {
      "midi": 60,
      "hit": false,
      "t": 134142.8794999998,
      "d": 428.57150000002,
      "v": 80
    },
    {
      "midi": 67,
      "hit": false,
      "t": 134571.45099999983,
      "d": 214.28575000001,
      "v": 87
    },
    {
      "midi": 74,
      "hit": false,
      "t": 134571.45099999983,
      "d": 214.28575000001,
      "v": 97
    },
    {
      "midi": 64,
      "hit": false,
      "t": 134571.45099999983,
      "d": 1285.714500000031,
      "v": 88
    },
    {
      "midi": 76,
      "hit": false,
      "t": 135000.02249999985,
      "d": 214.28575000001,
      "v": 98
    },
    {
      "midi": 67,
      "hit": false,
      "t": 135000.02249999985,
      "d": 642.8572500000009,
      "v": 98
    },
    {
      "midi": 67,
      "hit": false,
      "t": 135857.16549999986,
      "d": 214.28575000001,
      "v": 77
    },
    {
      "midi": 79,
      "hit": false,
      "t": 135857.16549999986,
      "d": 214.28575000001,
      "v": 94
    },
    {
      "midi": 72,
      "hit": false,
      "t": 137142.87999999986,
      "d": 214.28575000001,
      "v": 101
    },
    {
      "midi": 79,
      "hit": false,
      "t": 137142.87999999986,
      "d": 428.57150000002,
      "v": 109
    },
    {
      "midi": 55,
      "hit": false,
      "t": 137142.87999999986,
      "d": 2142.857500000071,
      "v": 91
    },
    {
      "midi": 72,
      "hit": false,
      "t": 137571.45149999988,
      "d": 214.28575000001,
      "v": 84
    },
    {
      "midi": 77,
      "hit": false,
      "t": 137571.45149999988,
      "d": 214.28575000001,
      "v": 88
    },
    {
      "midi": 62,
      "hit": false,
      "t": 137571.45149999988,
      "d": 1071.42875000005,
      "v": 89
    },
    {
      "midi": 67,
      "hit": false,
      "t": 138000.0229999999,
      "d": 214.28575000001,
      "v": 71
    },
    {
      "midi": 72,
      "hit": false,
      "t": 138000.0229999999,
      "d": 214.28575000001,
      "v": 80
    },
    {
      "midi": 76,
      "hit": false,
      "t": 138000.0229999999,
      "d": 214.28575000001,
      "v": 87
    },
    {
      "midi": 67,
      "hit": false,
      "t": 138428.59449999992,
      "d": 1285.7145000000019,
      "v": 75
    },
    {
      "midi": 71,
      "hit": false,
      "t": 138428.59449999992,
      "d": 1285.7145000000019,
      "v": 79
    },
    {
      "midi": 74,
      "hit": false,
      "t": 138428.59449999992,
      "d": 1285.7145000000019,
      "v": 77
    },
    {
      "midi": 64,
      "hit": false,
      "t": 140571.4519999999,
      "d": 428.5714999999909,
      "v": 85
    },
    {
      "midi": 55,
      "hit": false,
      "t": 140571.4519999999,
      "d": 642.8572500000009,
      "v": 60
    },
    {
      "midi": 36,
      "hit": false,
      "t": 140571.4519999999,
      "d": 2785.714750000043,
      "v": 81
    },
    {
      "midi": 60,
      "hit": false,
      "t": 140585.73771666657,
      "d": 428.5714999999909,
      "v": 74
    },
    {
      "midi": 48,
      "hit": false,
      "t": 141000.0234999999,
      "d": 1285.714500000031,
      "v": 36
    },
    {
      "midi": 55,
      "hit": false,
      "t": 141428.5949999999,
      "d": 642.8572500000009,
      "v": 49
    },
    {
      "midi": 60,
      "hit": false,
      "t": 141857.1664999999,
      "d": 428.57150000002,
      "v": 67
    },
    {
      "midi": 55,
      "hit": false,
      "t": 142285.73799999992,
      "d": 428.5714999999909,
      "v": 69
    },
    {
      "midi": 64,
      "hit": false,
      "t": 142285.73799999992,
      "d": 428.5714999999909,
      "v": 87
    },
    {
      "midi": 48,
      "hit": false,
      "t": 142714.30949999992,
      "d": 642.85725000003,
      "v": 36
    },
    {
      "midi": 55,
      "hit": false,
      "t": 142928.59524999993,
      "d": 214.28575000001,
      "v": 81
    },
    {
      "midi": 55,
      "hit": false,
      "t": 143142.88099999994,
      "d": 214.28575000001,
      "v": 89
    },
    {
      "midi": 62,
      "hit": false,
      "t": 143142.88099999994,
      "d": 214.28575000001,
      "v": 118
    },
    {
      "midi": 60,
      "hit": false,
      "t": 143357.16674999995,
      "d": 214.28575000001,
      "v": 62
    },
    {
      "midi": 55,
      "hit": false,
      "t": 143571.45249999996,
      "d": 214.28575000001,
      "v": 93
    },
    {
      "midi": 59,
      "hit": false,
      "t": 144000.02399999998,
      "d": 428.5714999999909,
      "v": 75
    },
    {
      "midi": 62,
      "hit": false,
      "t": 144000.02399999998,
      "d": 428.5714999999909,
      "v": 88
    },
    {
      "midi": 55,
      "hit": false,
      "t": 144000.02399999998,
      "d": 642.8572500000009,
      "v": 64
    },
    {
      "midi": 40,
      "hit": false,
      "t": 144000.02399999998,
      "d": 3000.000500000053,
      "v": 84
    },
    {
      "midi": 52,
      "hit": false,
      "t": 144428.59549999997,
      "d": 642.85725000003,
      "v": 58
    },
    {
      "midi": 55,
      "hit": false,
      "t": 144857.167,
      "d": 428.57150000002,
      "v": 81
    },
    {
      "midi": 59,
      "hit": false,
      "t": 144857.167,
      "d": 428.57150000002,
      "v": 82
    },
    {
      "midi": 62,
      "hit": false,
      "t": 144857.167,
      "d": 428.57150000002,
      "v": 89
    },
    {
      "midi": 52,
      "hit": false,
      "t": 145285.7385,
      "d": 428.5714999999909,
      "v": 39
    },
    {
      "midi": 55,
      "hit": false,
      "t": 145714.31,
      "d": 428.5714999999909,
      "v": 67
    },
    {
      "midi": 59,
      "hit": false,
      "t": 145714.31,
      "d": 428.5714999999909,
      "v": 77
    },
    {
      "midi": 62,
      "hit": false,
      "t": 145714.31,
      "d": 428.5714999999909,
      "v": 72
    },
    {
      "midi": 52,
      "hit": false,
      "t": 146142.8815,
      "d": 428.57150000002,
      "v": 66
    },
    {
      "midi": 55,
      "hit": false,
      "t": 146357.16725,
      "d": 214.28575000001,
      "v": 104
    },
    {
      "midi": 55,
      "hit": false,
      "t": 146571.453,
      "d": 214.28575000001,
      "v": 91
    },
    {
      "midi": 59,
      "hit": false,
      "t": 146571.453,
      "d": 214.28575000001,
      "v": 126
    },
    {
      "midi": 62,
      "hit": false,
      "t": 146785.73875000002,
      "d": 214.28575000001,
      "v": 127
    },
    {
      "midi": 52,
      "hit": false,
      "t": 147000.02450000003,
      "d": 214.28575000001,
      "v": 94
    },
    {
      "midi": 55,
      "hit": false,
      "t": 147214.31025000004,
      "d": 214.2857499999809,
      "v": 91
    },
    {
      "midi": 45,
      "hit": false,
      "t": 147428.59600000002,
      "d": 214.28575000001,
      "v": 89
    },
    {
      "midi": 55,
      "hit": false,
      "t": 147428.59600000002,
      "d": 428.57150000002,
      "v": 95
    },
    {
      "midi": 58,
      "hit": false,
      "t": 147428.59600000002,
      "d": 428.57150000002,
      "v": 105
    },
    {
      "midi": 62,
      "hit": false,
      "t": 147428.59600000002,
      "d": 428.57150000002,
      "v": 109
    },
    {
      "midi": 43,
      "hit": false,
      "t": 147428.59600000002,
      "d": 1071.42875000005,
      "v": 84
    },
    {
      "midi": 50,
      "hit": false,
      "t": 147857.16750000004,
      "d": 428.57150000002,
      "v": 81
    },
    {
      "midi": 55,
      "hit": false,
      "t": 148071.45325000005,
      "d": 214.28575000001,
      "v": 93
    },
    {
      "midi": 55,
      "hit": false,
      "t": 148285.73900000006,
      "d": 214.28575000001,
      "v": 98
    },
    {
      "midi": 58,
      "hit": false,
      "t": 148285.73900000006,
      "d": 214.28575000001,
      "v": 110
    },
    {
      "midi": 62,
      "hit": false,
      "t": 148285.73900000006,
      "d": 214.28575000001,
      "v": 107
    },
    {
      "midi": 50,
      "hit": false,
      "t": 148500.02475000007,
      "d": 214.28575000001,
      "v": 87
    },
    {
      "midi": 55,
      "hit": false,
      "t": 148714.31050000008,
      "d": 214.28575000001,
      "v": 105
    },
    {
      "midi": 57,
      "hit": false,
      "t": 149142.88200000007,
      "d": 428.5714999999909,
      "v": 105
    },
    {
      "midi": 61,
      "hit": false,
      "t": 149142.88200000007,
      "d": 428.5714999999909,
      "v": 113
    },
    {
      "midi": 64,
      "hit": false,
      "t": 149142.88200000007,
      "d": 428.5714999999909,
      "v": 107
    },
    {
      "midi": 45,
      "hit": false,
      "t": 149142.88200000007,
      "d": 857.1429999999818,
      "v": 94
    },
    {
      "midi": 52,
      "hit": false,
      "t": 149571.45350000006,
      "d": 428.5714999999909,
      "v": 61
    },
    {
      "midi": 57,
      "hit": false,
      "t": 150000.02500000005,
      "d": 214.28575000001,
      "v": 106
    },
    {
      "midi": 61,
      "hit": false,
      "t": 150000.02500000005,
      "d": 214.28575000001,
      "v": 121
    },
    {
      "midi": 64,
      "hit": false,
      "t": 150000.02500000005,
      "d": 428.57150000002,
      "v": 108
    },
    {
      "midi": 45,
      "hit": false,
      "t": 150428.59650000007,
      "d": 214.28575000001,
      "v": 84
    },
    {
      "midi": 38,
      "hit": false,
      "t": 150857.16800000006,
      "d": 428.5714999999909,
      "v": 93
    },
    {
      "midi": 57,
      "hit": false,
      "t": 150857.16800000006,
      "d": 428.5714999999909,
      "v": 103
    },
    {
      "midi": 62,
      "hit": false,
      "t": 150857.16800000006,
      "d": 428.5714999999909,
      "v": 108
    },
    {
      "midi": 65,
      "hit": false,
      "t": 150857.16800000006,
      "d": 428.5714999999909,
      "v": 100
    },
    {
      "midi": 50,
      "hit": false,
      "t": 151285.73950000005,
      "d": 428.57150000002,
      "v": 53
    },
    {
      "midi": 53,
      "hit": false,
      "t": 151500.02525000006,
      "d": 428.57150000002,
      "v": 71
    },
    {
      "midi": 57,
      "hit": false,
      "t": 151714.31100000007,
      "d": 214.28575000001,
      "v": 91
    },
    {
      "midi": 62,
      "hit": false,
      "t": 151928.59675000008,
      "d": 214.28575000001,
      "v": 87
    },
    {
      "midi": 53,
      "hit": false,
      "t": 152142.8825000001,
      "d": 428.57150000002,
      "v": 72
    },
    {
      "midi": 57,
      "hit": false,
      "t": 152357.1682500001,
      "d": 214.28575000001,
      "v": 49
    },
    {
      "midi": 57,
      "hit": false,
      "t": 152571.4540000001,
      "d": 428.5714999999909,
      "v": 76
    },
    {
      "midi": 62,
      "hit": false,
      "t": 152571.4540000001,
      "d": 428.5714999999909,
      "v": 82
    },
    {
      "midi": 69,
      "hit": false,
      "t": 152571.4540000001,
      "d": 428.5714999999909,
      "v": 80
    },
    {
      "midi": 53,
      "hit": false,
      "t": 153000.0255000001,
      "d": 428.57150000002,
      "v": 41
    },
    {
      "midi": 57,
      "hit": false,
      "t": 153214.31125000012,
      "d": 214.28575000001,
      "v": 74
    },
    {
      "midi": 57,
      "hit": false,
      "t": 153428.59700000013,
      "d": 214.28575000001,
      "v": 94
    },
    {
      "midi": 65,
      "hit": false,
      "t": 153428.59700000013,
      "d": 214.28575000001,
      "v": 105
    },
    {
      "midi": 53,
      "hit": false,
      "t": 153642.88275000014,
      "d": 214.28575000001,
      "v": 83
    },
    {
      "midi": 57,
      "hit": false,
      "t": 153857.16850000015,
      "d": 214.28575000001,
      "v": 89
    },
    {
      "midi": 58,
      "hit": false,
      "t": 154285.74000000017,
      "d": 428.5714999999909,
      "v": 86
    },
    {
      "midi": 62,
      "hit": false,
      "t": 154285.74000000017,
      "d": 428.5714999999909,
      "v": 106
    },
    {
      "midi": 65,
      "hit": false,
      "t": 154285.74000000017,
      "d": 428.5714999999909,
      "v": 87
    },
    {
      "midi": 46,
      "hit": false,
      "t": 154285.74000000017,
      "d": 2571.4290000000037,
      "v": 79
    },
    {
      "midi": 62,
      "hit": false,
      "t": 155142.88300000015,
      "d": 214.28575000001,
      "v": 106
    },
    {
      "midi": 58,
      "hit": false,
      "t": 155142.88300000015,
      "d": 428.57150000002,
      "v": 87
    },
    {
      "midi": 65,
      "hit": false,
      "t": 155142.88300000015,
      "d": 428.57150000002,
      "v": 90
    },
    {
      "midi": 62,
      "hit": false,
      "t": 156000.02600000016,
      "d": 214.28575000001,
      "v": 105
    },
    {
      "midi": 58,
      "hit": false,
      "t": 156000.02600000016,
      "d": 428.57150000002,
      "v": 85
    },
    {
      "midi": 65,
      "hit": false,
      "t": 156000.02600000016,
      "d": 428.57150000002,
      "v": 96
    },
    {
      "midi": 58,
      "hit": false,
      "t": 156857.16900000017,
      "d": 214.28575000001,
      "v": 105
    },
    {
      "midi": 62,
      "hit": false,
      "t": 156857.16900000017,
      "d": 214.28575000001,
      "v": 107
    },
    {
      "midi": 65,
      "hit": false,
      "t": 156857.16900000017,
      "d": 214.28575000001,
      "v": 100
    },
    {
      "midi": 46,
      "hit": false,
      "t": 157285.7405000002,
      "d": 214.28575000001,
      "v": 77
    },
    {
      "midi": 55,
      "hit": false,
      "t": 157714.31200000018,
      "d": 428.5714999999909,
      "v": 83
    },
    {
      "midi": 59,
      "hit": false,
      "t": 157714.31200000018,
      "d": 428.5714999999909,
      "v": 94
    },
    {
      "midi": 62,
      "hit": false,
      "t": 157714.31200000018,
      "d": 428.5714999999909,
      "v": 87
    },
    {
      "midi": 43,
      "hit": false,
      "t": 157714.31200000018,
      "d": 2785.7147500000137,
      "v": 89
    },
    {
      "midi": 55,
      "hit": false,
      "t": 158571.45500000016,
      "d": 214.28575000001,
      "v": 87
    },
    {
      "midi": 59,
      "hit": false,
      "t": 158571.45500000016,
      "d": 428.57150000002,
      "v": 93
    },
    {
      "midi": 62,
      "hit": false,
      "t": 158571.45500000016,
      "d": 428.57150000002,
      "v": 94
    },
    {
      "midi": 55,
      "hit": false,
      "t": 159428.59800000017,
      "d": 214.28575000001,
      "v": 89
    },
    {
      "midi": 59,
      "hit": false,
      "t": 159428.59800000017,
      "d": 214.28575000001,
      "v": 95
    },
    {
      "midi": 62,
      "hit": false,
      "t": 159428.59800000017,
      "d": 214.28575000001,
      "v": 91
    },
    {
      "midi": 55,
      "hit": false,
      "t": 160285.74100000018,
      "d": 214.28575000001,
      "v": 99
    },
    {
      "midi": 59,
      "hit": false,
      "t": 160285.74100000018,
      "d": 428.57150000002,
      "v": 95
    },
    {
      "midi": 62,
      "hit": false,
      "t": 160285.74100000018,
      "d": 428.57150000002,
      "v": 95
    },
    {
      "midi": 43,
      "hit": false,
      "t": 160714.3125000002,
      "d": 428.5714999999909,
      "v": 80
    },
    {
      "midi": 55,
      "hit": false,
      "t": 161142.8840000002,
      "d": 214.28575000001,
      "v": 81
    },
    {
      "midi": 60,
      "hit": false,
      "t": 161142.8840000002,
      "d": 214.28575000001,
      "v": 94
    },
    {
      "midi": 64,
      "hit": false,
      "t": 161142.8840000002,
      "d": 428.57150000002,
      "v": 92
    },
    {
      "midi": 48,
      "hit": false,
      "t": 161142.8840000002,
      "d": 2785.714750000043,
      "v": 84
    },
    {
      "midi": 55,
      "hit": false,
      "t": 162000.0270000002,
      "d": 428.5714999999909,
      "v": 85
    },
    {
      "midi": 60,
      "hit": false,
      "t": 162000.0270000002,
      "d": 428.5714999999909,
      "v": 85
    },
    {
      "midi": 64,
      "hit": false,
      "t": 162000.0270000002,
      "d": 428.5714999999909,
      "v": 91
    },
    {
      "midi": 55,
      "hit": false,
      "t": 162857.1700000002,
      "d": 214.28575000001,
      "v": 99
    },
    {
      "midi": 64,
      "hit": false,
      "t": 162857.1700000002,
      "d": 214.28575000001,
      "v": 108
    },
    {
      "midi": 55,
      "hit": false,
      "t": 163285.7415000002,
      "d": 214.28575000001,
      "v": 92
    },
    {
      "midi": 62,
      "hit": false,
      "t": 163285.7415000002,
      "d": 214.28575000001,
      "v": 113
    },
    {
      "midi": 55,
      "hit": false,
      "t": 163714.31300000023,
      "d": 214.28575000001,
      "v": 108
    },
    {
      "midi": 60,
      "hit": false,
      "t": 163714.31300000023,
      "d": 214.28575000001,
      "v": 122
    },
    {
      "midi": 60,
      "hit": false,
      "t": 164142.88450000025,
      "d": 214.28575000001,
      "v": 73
    },
    {
      "midi": 57,
      "hit": false,
      "t": 164571.45600000024,
      "d": 428.5714999999909,
      "v": 109
    },
    {
      "midi": 60,
      "hit": false,
      "t": 164571.45600000024,
      "d": 428.5714999999909,
      "v": 117
    },
    {
      "midi": 65,
      "hit": false,
      "t": 164571.45600000024,
      "d": 428.5714999999909,
      "v": 102
    },
    {
      "midi": 43,
      "hit": false,
      "t": 164571.45600000024,
      "d": 857.1430000000109,
      "v": 91
    },
    {
      "midi": 50,
      "hit": false,
      "t": 165000.02750000023,
      "d": 214.28575000001,
      "v": 77
    },
    {
      "midi": 55,
      "hit": false,
      "t": 165214.31325000024,
      "d": 214.28575000001,
      "v": 83
    },
    {
      "midi": 57,
      "hit": false,
      "t": 165428.59900000025,
      "d": 214.28575000001,
      "v": 107
    },
    {
      "midi": 60,
      "hit": false,
      "t": 165428.59900000025,
      "d": 214.28575000001,
      "v": 110
    },
    {
      "midi": 65,
      "hit": false,
      "t": 165428.59900000025,
      "d": 214.28575000001,
      "v": 98
    },
    {
      "midi": 43,
      "hit": false,
      "t": 165642.88475000026,
      "d": 214.28575000001,
      "v": 90
    },
    {
      "midi": 57,
      "hit": false,
      "t": 165857.17050000027,
      "d": 214.28575000001,
      "v": 98
    },
    {
      "midi": 43,
      "hit": false,
      "t": 166285.74200000026,
      "d": 428.5714999999909,
      "v": 91
    },
    {
      "midi": 55,
      "hit": false,
      "t": 166285.74200000026,
      "d": 428.5714999999909,
      "v": 87
    },
    {
      "midi": 59,
      "hit": false,
      "t": 166285.74200000026,
      "d": 428.5714999999909,
      "v": 95
    },
    {
      "midi": 62,
      "hit": false,
      "t": 166285.74200000026,
      "d": 428.5714999999909,
      "v": 115
    },
    {
      "midi": 50,
      "hit": false,
      "t": 166714.31350000025,
      "d": 214.28575000001,
      "v": 79
    },
    {
      "midi": 55,
      "hit": false,
      "t": 166928.59925000026,
      "d": 214.28575000001,
      "v": 94
    },
    {
      "midi": 55,
      "hit": false,
      "t": 167142.88500000027,
      "d": 214.28575000001,
      "v": 93
    },
    {
      "midi": 59,
      "hit": false,
      "t": 167142.88500000027,
      "d": 214.28575000001,
      "v": 102
    },
    {
      "midi": 62,
      "hit": false,
      "t": 167142.88500000027,
      "d": 214.28575000001,
      "v": 109
    },
    {
      "midi": 38,
      "hit": false,
      "t": 167357.17075000028,
      "d": 214.28575000001,
      "v": 94
    },
    {
      "midi": 55,
      "hit": false,
      "t": 167571.4565000003,
      "d": 214.28575000001,
      "v": 104
    },
    {
      "midi": 55,
      "hit": false,
      "t": 168000.02800000028,
      "d": 428.5714999999909,
      "v": 94
    },
    {
      "midi": 60,
      "hit": false,
      "t": 168000.02800000028,
      "d": 428.5714999999909,
      "v": 95
    },
    {
      "midi": 64,
      "hit": false,
      "t": 168000.02800000028,
      "d": 428.5714999999909,
      "v": 98
    },
    {
      "midi": 36,
      "hit": false,
      "t": 168000.02800000028,
      "d": 2571.4289999999746,
      "v": 90
    },
    {
      "midi": 48,
      "hit": false,
      "t": 168428.59950000027,
      "d": 428.5714999999909,
      "v": 36
    },
    {
      "midi": 55,
      "hit": false,
      "t": 168857.17100000026,
      "d": 428.5714999999909,
      "v": 99
    },
    {
      "midi": 60,
      "hit": false,
      "t": 168857.17100000026,
      "d": 428.5714999999909,
      "v": 101
    },
    {
      "midi": 64,
      "hit": false,
      "t": 168857.17100000026,
      "d": 428.5714999999909,
      "v": 98
    },
    {
      "midi": 48,
      "hit": false,
      "t": 169285.74250000025,
      "d": 428.5714999999909,
      "v": 60
    },
    {
      "midi": 55,
      "hit": false,
      "t": 169714.31400000025,
      "d": 428.5714999999909,
      "v": 87
    },
    {
      "midi": 60,
      "hit": false,
      "t": 169714.31400000025,
      "d": 428.5714999999909,
      "v": 91
    },
    {
      "midi": 64,
      "hit": false,
      "t": 169714.31400000025,
      "d": 428.5714999999909,
      "v": 91
    },
    {
      "midi": 48,
      "hit": false,
      "t": 170142.88550000024,
      "d": 428.57150000002,
      "v": 68
    },
    {
      "midi": 55,
      "hit": false,
      "t": 170357.17125000025,
      "d": 214.28575000001,
      "v": 85
    },
    {
      "midi": 55,
      "hit": false,
      "t": 170571.45700000026,
      "d": 214.28575000001,
      "v": 100
    },
    {
      "midi": 60,
      "hit": false,
      "t": 170571.45700000026,
      "d": 214.28575000001,
      "v": 107
    },
    {
      "midi": 64,
      "hit": false,
      "t": 170571.45700000026,
      "d": 214.28575000001,
      "v": 102
    },
    {
      "midi": 38,
      "hit": false,
      "t": 170785.74275000027,
      "d": 214.28575000001,
      "v": 90
    },
    {
      "midi": 55,
      "hit": false,
      "t": 171000.02850000028,
      "d": 214.28575000001,
      "v": 102
    },
    {
      "midi": 55,
      "hit": false,
      "t": 171428.60000000027,
      "d": 428.5714999999909,
      "v": 107
    },
    {
      "midi": 59,
      "hit": false,
      "t": 171428.60000000027,
      "d": 428.5714999999909,
      "v": 107
    },
    {
      "midi": 62,
      "hit": false,
      "t": 171428.60000000027,
      "d": 428.5714999999909,
      "v": 105
    },
    {
      "midi": 40,
      "hit": false,
      "t": 171428.60000000027,
      "d": 2785.714750000072,
      "v": 90
    },
    {
      "midi": 52,
      "hit": false,
      "t": 171857.17150000026,
      "d": 642.85725000003,
      "v": 49
    },
    {
      "midi": 55,
      "hit": false,
      "t": 172071.45725000027,
      "d": 214.28575000001,
      "v": 72
    },
    {
      "midi": 55,
      "hit": false,
      "t": 172285.74300000028,
      "d": 214.28575000001,
      "v": 80
    },
    {
      "midi": 59,
      "hit": false,
      "t": 172285.74300000028,
      "d": 214.28575000001,
      "v": 99
    },
    {
      "midi": 59,
      "hit": false,
      "t": 172500.0287500003,
      "d": 214.28575000001,
      "v": 87
    },
    {
      "midi": 62,
      "hit": false,
      "t": 172500.0287500003,
      "d": 214.28575000001,
      "v": 114
    },
    {
      "midi": 52,
      "hit": false,
      "t": 172714.3145000003,
      "d": 428.57150000002,
      "v": 80
    },
    {
      "midi": 55,
      "hit": false,
      "t": 172928.6002500003,
      "d": 214.28575000001,
      "v": 79
    },
    {
      "midi": 55,
      "hit": false,
      "t": 173142.88600000032,
      "d": 428.5714999999909,
      "v": 97
    },
    {
      "midi": 59,
      "hit": false,
      "t": 173142.88600000032,
      "d": 428.5714999999909,
      "v": 93
    },
    {
      "midi": 62,
      "hit": false,
      "t": 173142.88600000032,
      "d": 428.5714999999909,
      "v": 91
    },
    {
      "midi": 52,
      "hit": false,
      "t": 173571.4575000003,
      "d": 428.57150000002,
      "v": 49
    },
    {
      "midi": 55,
      "hit": false,
      "t": 173785.74325000032,
      "d": 214.28575000001,
      "v": 79
    },
    {
      "midi": 55,
      "hit": false,
      "t": 174000.02900000033,
      "d": 214.28575000001,
      "v": 106
    },
    {
      "midi": 59,
      "hit": false,
      "t": 174000.02900000033,
      "d": 214.28575000001,
      "v": 105
    },
    {
      "midi": 62,
      "hit": false,
      "t": 174000.02900000033,
      "d": 214.28575000001,
      "v": 108
    },
    {
      "midi": 52,
      "hit": false,
      "t": 174214.31475000034,
      "d": 214.28575000001,
      "v": 89
    },
    {
      "midi": 55,
      "hit": false,
      "t": 174428.60050000035,
      "d": 214.28575000001,
      "v": 98
    },
    {
      "midi": 55,
      "hit": false,
      "t": 174857.17200000034,
      "d": 428.5714999999909,
      "v": 104
    },
    {
      "midi": 58,
      "hit": false,
      "t": 174857.17200000034,
      "d": 428.5714999999909,
      "v": 115
    },
    {
      "midi": 62,
      "hit": false,
      "t": 174857.17200000034,
      "d": 428.5714999999909,
      "v": 102
    },
    {
      "midi": 43,
      "hit": false,
      "t": 174857.17200000034,
      "d": 857.1429999999818,
      "v": 93
    },
    {
      "midi": 50,
      "hit": false,
      "t": 175285.74350000033,
      "d": 428.5714999999909,
      "v": 70
    },
    {
      "midi": 55,
      "hit": false,
      "t": 175714.31500000032,
      "d": 214.28575000001,
      "v": 106
    },
    {
      "midi": 58,
      "hit": false,
      "t": 175714.31500000032,
      "d": 214.28575000001,
      "v": 117
    },
    {
      "midi": 62,
      "hit": false,
      "t": 175714.31500000032,
      "d": 428.57150000002,
      "v": 112
    },
    {
      "midi": 43,
      "hit": false,
      "t": 176142.88650000034,
      "d": 214.28575000001,
      "v": 94
    },
    {
      "midi": 57,
      "hit": false,
      "t": 176571.45800000033,
      "d": 428.5714999999909,
      "v": 104
    },
    {
      "midi": 61,
      "hit": false,
      "t": 176571.45800000033,
      "d": 428.5714999999909,
      "v": 115
    },
    {
      "midi": 64,
      "hit": false,
      "t": 176571.45800000033,
      "d": 428.5714999999909,
      "v": 102
    },
    {
      "midi": 45,
      "hit": false,
      "t": 176571.45800000033,
      "d": 857.1430000000109,
      "v": 91
    },
    {
      "midi": 52,
      "hit": false,
      "t": 177000.02950000032,
      "d": 428.57150000002,
      "v": 73
    },
    {
      "midi": 57,
      "hit": false,
      "t": 177214.31525000033,
      "d": 214.28575000001,
      "v": 85
    },
    {
      "midi": 57,
      "hit": false,
      "t": 177428.60100000034,
      "d": 214.28575000001,
      "v": 93
    },
    {
      "midi": 61,
      "hit": false,
      "t": 177428.60100000034,
      "d": 214.28575000001,
      "v": 113
    },
    {
      "midi": 64,
      "hit": false,
      "t": 177428.60100000034,
      "d": 214.28575000001,
      "v": 109
    },
    {
      "midi": 45,
      "hit": false,
      "t": 177642.88675000035,
      "d": 214.28575000001,
      "v": 94
    },
    {
      "midi": 57,
      "hit": false,
      "t": 177857.17250000036,
      "d": 214.28575000001,
      "v": 95
    },
    {
      "midi": 57,
      "hit": false,
      "t": 178285.74400000036,
      "d": 428.5714999999909,
      "v": 98
    },
    {
      "midi": 60,
      "hit": false,
      "t": 178285.74400000036,
      "d": 428.5714999999909,
      "v": 99
    },
    {
      "midi": 62,
      "hit": false,
      "t": 178285.74400000036,
      "d": 428.5714999999909,
      "v": 98
    },
    {
      "midi": 38,
      "hit": false,
      "t": 178285.74400000036,
      "d": 3428.572000000073,
      "v": 91
    },
    {
      "midi": 50,
      "hit": false,
      "t": 178714.31550000035,
      "d": 428.57150000002,
      "v": 73
    },
    {
      "midi": 57,
      "hit": false,
      "t": 178928.60125000036,
      "d": 214.28575000001,
      "v": 76
    },
    {
      "midi": 57,
      "hit": false,
      "t": 179142.88700000037,
      "d": 214.28575000001,
      "v": 98
    },
    {
      "midi": 60,
      "hit": false,
      "t": 179142.88700000037,
      "d": 214.28575000001,
      "v": 103
    },
    {
      "midi": 62,
      "hit": false,
      "t": 179142.88700000037,
      "d": 214.28575000001,
      "v": 94
    },
    {
      "midi": 65,
      "hit": false,
      "t": 179142.88700000037,
      "d": 214.28575000001,
      "v": 94
    },
    {
      "midi": 50,
      "hit": false,
      "t": 179357.17275000038,
      "d": 642.85725000003,
      "v": 82
    },
    {
      "midi": 57,
      "hit": false,
      "t": 179571.4585000004,
      "d": 214.28575000001,
      "v": 85
    },
    {
      "midi": 57,
      "hit": false,
      "t": 179785.7442500004,
      "d": 214.28575000001,
      "v": 65
    },
    {
      "midi": 60,
      "hit": false,
      "t": 179785.7442500004,
      "d": 214.28575000001,
      "v": 79
    },
    {
      "midi": 57,
      "hit": false,
      "t": 180000.0300000004,
      "d": 214.28575000001,
      "v": 108
    },
    {
      "midi": 65,
      "hit": false,
      "t": 180000.0300000004,
      "d": 428.57150000002,
      "v": 100
    },
    {
      "midi": 50,
      "hit": false,
      "t": 180428.60150000043,
      "d": 642.8572500000009,
      "v": 72
    },
    {
      "midi": 57,
      "hit": false,
      "t": 180857.17300000042,
      "d": 214.28575000001,
      "v": 105
    },
    {
      "midi": 62,
      "hit": false,
      "t": 180857.17300000042,
      "d": 428.57150000002,
      "v": 115
    },
    {
      "midi": 50,
      "hit": false,
      "t": 181285.74450000044,
      "d": 428.5714999999909,
      "v": 78
    },
    {
      "midi": 58,
      "hit": false,
      "t": 181714.31600000043,
      "d": 428.5714999999909,
      "v": 97
    },
    {
      "midi": 62,
      "hit": false,
      "t": 181714.31600000043,
      "d": 428.5714999999909,
      "v": 112
    },
    {
      "midi": 65,
      "hit": false,
      "t": 181714.31600000043,
      "d": 428.5714999999909,
      "v": 101
    },
    {
      "midi": 46,
      "hit": false,
      "t": 181714.31600000043,
      "d": 2785.7147499999555,
      "v": 90
    },
    {
      "midi": 58,
      "hit": false,
      "t": 182571.4590000004,
      "d": 428.5714999999909,
      "v": 98
    },
    {
      "midi": 62,
      "hit": false,
      "t": 182571.4590000004,
      "d": 428.5714999999909,
      "v": 109
    },
    {
      "midi": 65,
      "hit": false,
      "t": 182571.4590000004,
      "d": 428.5714999999909,
      "v": 98
    },
    {
      "midi": 58,
      "hit": false,
      "t": 183428.6020000004,
      "d": 428.5714999999909,
      "v": 96
    },
    {
      "midi": 62,
      "hit": false,
      "t": 183428.6020000004,
      "d": 428.5714999999909,
      "v": 110
    },
    {
      "midi": 65,
      "hit": false,
      "t": 183428.6020000004,
      "d": 428.5714999999909,
      "v": 103
    },
    {
      "midi": 58,
      "hit": false,
      "t": 184285.74500000037,
      "d": 214.28575000001,
      "v": 89
    },
    {
      "midi": 62,
      "hit": false,
      "t": 184285.74500000037,
      "d": 214.28575000001,
      "v": 110
    },
    {
      "midi": 65,
      "hit": false,
      "t": 184285.74500000037,
      "d": 214.28575000001,
      "v": 97
    },
    {
      "midi": 46,
      "hit": false,
      "t": 184714.3165000004,
      "d": 214.28575000001,
      "v": 81
    },
    {
      "midi": 55,
      "hit": false,
      "t": 185142.88800000038,
      "d": 428.5714999999909,
      "v": 98
    },
    {
      "midi": 59,
      "hit": false,
      "t": 185142.88800000038,
      "d": 428.5714999999909,
      "v": 98
    },
    {
      "midi": 62,
      "hit": false,
      "t": 185142.88800000038,
      "d": 428.5714999999909,
      "v": 98
    },
    {
      "midi": 43,
      "hit": false,
      "t": 185142.88800000038,
      "d": 1285.714500000031,
      "v": 99
    },
    {
      "midi": 50,
      "hit": false,
      "t": 185571.45950000038,
      "d": 428.57150000002,
      "v": 85
    },
    {
      "midi": 55,
      "hit": false,
      "t": 185785.7452500004,
      "d": 214.28575000001,
      "v": 85
    },
    {
      "midi": 57,
      "hit": false,
      "t": 186000.0310000004,
      "d": 214.28575000001,
      "v": 98
    },
    {
      "midi": 59,
      "hit": false,
      "t": 186214.3167500004,
      "d": 214.28575000001,
      "v": 118
    },
    {
      "midi": 50,
      "hit": false,
      "t": 186428.60250000042,
      "d": 214.28575000001,
      "v": 90
    },
    {
      "midi": 55,
      "hit": false,
      "t": 186642.88825000043,
      "d": 214.2857499999809,
      "v": 91
    },
    {
      "midi": 55,
      "hit": false,
      "t": 186857.1740000004,
      "d": 428.5714999999909,
      "v": 96
    },
    {
      "midi": 59,
      "hit": false,
      "t": 186857.1740000004,
      "d": 428.5714999999909,
      "v": 102
    },
    {
      "midi": 62,
      "hit": false,
      "t": 186857.1740000004,
      "d": 428.5714999999909,
      "v": 106
    },
    {
      "midi": 43,
      "hit": false,
      "t": 186857.1740000004,
      "d": 857.1429999999818,
      "v": 94
    },
    {
      "midi": 50,
      "hit": false,
      "t": 187285.7455000004,
      "d": 428.5714999999909,
      "v": 43
    },
    {
      "midi": 55,
      "hit": false,
      "t": 187714.3170000004,
      "d": 214.28575000001,
      "v": 101
    },
    {
      "midi": 59,
      "hit": false,
      "t": 187714.3170000004,
      "d": 428.57150000002,
      "v": 100
    },
    {
      "midi": 62,
      "hit": false,
      "t": 187714.3170000004,
      "d": 428.57150000002,
      "v": 104
    },
    {
      "midi": 43,
      "hit": false,
      "t": 188142.8885000004,
      "d": 214.28575000001,
      "v": 85
    },
    {
      "midi": 55,
      "hit": false,
      "t": 188571.46000000043,
      "d": 428.5714999999909,
      "v": 53
    },
    {
      "midi": 60,
      "hit": false,
      "t": 188571.46000000043,
      "d": 428.5714999999909,
      "v": 85
    },
    {
      "midi": 64,
      "hit": false,
      "t": 188571.46000000043,
      "d": 428.5714999999909,
      "v": 101
    },
    {
      "midi": 36,
      "hit": false,
      "t": 188571.46000000043,
      "d": 2785.7147499999846,
      "v": 89
    },
    {
      "midi": 48,
      "hit": false,
      "t": 189000.03150000042,
      "d": 428.5714999999909,
      "v": 31
    },
    {
      "midi": 55,
      "hit": false,
      "t": 189428.6030000004,
      "d": 428.5714999999909,
      "v": 87
    },
    {
      "midi": 60,
      "hit": false,
      "t": 189428.6030000004,
      "d": 428.5714999999909,
      "v": 89
    },
    {
      "midi": 64,
      "hit": false,
      "t": 189428.6030000004,
      "d": 428.5714999999909,
      "v": 91
    },
    {
      "midi": 48,
      "hit": false,
      "t": 189857.1745000004,
      "d": 428.5714999999909,
      "v": 62
    },
    {
      "midi": 55,
      "hit": false,
      "t": 190285.7460000004,
      "d": 428.5714999999909,
      "v": 97
    },
    {
      "midi": 60,
      "hit": false,
      "t": 190285.7460000004,
      "d": 428.5714999999909,
      "v": 97
    },
    {
      "midi": 64,
      "hit": false,
      "t": 190285.7460000004,
      "d": 428.5714999999909,
      "v": 97
    },
    {
      "midi": 48,
      "hit": false,
      "t": 190714.31750000038,
      "d": 428.57150000002,
      "v": 79
    },
    {
      "midi": 55,
      "hit": false,
      "t": 190928.6032500004,
      "d": 214.28575000001,
      "v": 94
    },
    {
      "midi": 55,
      "hit": false,
      "t": 191142.8890000004,
      "d": 214.28575000001,
      "v": 105
    },
    {
      "midi": 60,
      "hit": false,
      "t": 191142.8890000004,
      "d": 214.28575000001,
      "v": 114
    },
    {
      "midi": 62,
      "hit": false,
      "t": 191142.8890000004,
      "d": 214.28575000001,
      "v": 98
    },
    {
      "midi": 64,
      "hit": false,
      "t": 191142.8890000004,
      "d": 214.28575000001,
      "v": 110
    },
    {
      "midi": 48,
      "hit": false,
      "t": 191357.1747500004,
      "d": 214.28575000001,
      "v": 100
    },
    {
      "midi": 55,
      "hit": false,
      "t": 191571.46050000042,
      "d": 214.28575000001,
      "v": 112
    },
    {
      "midi": 55,
      "hit": false,
      "t": 192000.0320000004,
      "d": 428.5714999999909,
      "v": 112
    },
    {
      "midi": 58,
      "hit": false,
      "t": 192000.0320000004,
      "d": 428.5714999999909,
      "v": 121
    },
    {
      "midi": 62,
      "hit": false,
      "t": 192000.0320000004,
      "d": 428.5714999999909,
      "v": 110
    },
    {
      "midi": 43,
      "hit": false,
      "t": 192000.0320000004,
      "d": 857.1430000000109,
      "v": 98
    },
    {
      "midi": 50,
      "hit": false,
      "t": 192428.6035000004,
      "d": 428.57150000002,
      "v": 85
    },
    {
      "midi": 55,
      "hit": false,
      "t": 192642.88925000041,
      "d": 214.28575000001,
      "v": 101
    },
    {
      "midi": 55,
      "hit": false,
      "t": 192857.17500000042,
      "d": 214.28575000001,
      "v": 73
    },
    {
      "midi": 58,
      "hit": false,
      "t": 192857.17500000042,
      "d": 214.28575000001,
      "v": 126
    },
    {
      "midi": 55,
      "hit": false,
      "t": 193071.46075000043,
      "d": 214.28575000001,
      "v": 76
    },
    {
      "midi": 62,
      "hit": false,
      "t": 193071.46075000043,
      "d": 214.28575000001,
      "v": 120
    },
    {
      "midi": 43,
      "hit": false,
      "t": 193285.74650000044,
      "d": 214.28575000001,
      "v": 94
    },
    {
      "midi": 55,
      "hit": false,
      "t": 193500.03225000045,
      "d": 214.2857499999809,
      "v": 94
    },
    {
      "midi": 55,
      "hit": false,
      "t": 193714.31800000044,
      "d": 428.5714999999909,
      "v": 113
    },
    {
      "midi": 64,
      "hit": false,
      "t": 193714.31800000044,
      "d": 428.5714999999909,
      "v": 118
    },
    {
      "midi": 36,
      "hit": false,
      "t": 193714.31800000044,
      "d": 642.8572500000009,
      "v": 94
    },
    {
      "midi": 48,
      "hit": false,
      "t": 194142.88950000043,
      "d": 214.28575000001,
      "v": 74
    },
    {
      "midi": 55,
      "hit": false,
      "t": 194357.17525000044,
      "d": 214.28575000001,
      "v": 95
    },
    {
      "midi": 38,
      "hit": false,
      "t": 194571.46100000045,
      "d": 214.28575000001,
      "v": 101
    },
    {
      "midi": 55,
      "hit": false,
      "t": 194571.46100000045,
      "d": 214.28575000001,
      "v": 109
    },
    {
      "midi": 62,
      "hit": false,
      "t": 194571.46100000045,
      "d": 214.28575000001,
      "v": 127
    },
    {
      "midi": 60,
      "hit": false,
      "t": 195000.03250000047,
      "d": 214.28575000001,
      "v": 112
    },
    {
      "midi": 57,
      "hit": false,
      "t": 195428.60400000046,
      "d": 428.5714999999909,
      "v": 105
    },
    {
      "midi": 60,
      "hit": false,
      "t": 195428.60400000046,
      "d": 428.5714999999909,
      "v": 113
    },
    {
      "midi": 65,
      "hit": false,
      "t": 195428.60400000046,
      "d": 428.5714999999909,
      "v": 99
    },
    {
      "midi": 41,
      "hit": false,
      "t": 195428.60400000046,
      "d": 857.1429999999818,
      "v": 98
    },
    {
      "midi": 53,
      "hit": false,
      "t": 195857.17550000045,
      "d": 428.5714999999909,
      "v": 37
    },
    {
      "midi": 57,
      "hit": false,
      "t": 196285.74700000044,
      "d": 428.5714999999909,
      "v": 109
    },
    {
      "midi": 60,
      "hit": false,
      "t": 196285.74700000044,
      "d": 428.5714999999909,
      "v": 115
    },
    {
      "midi": 65,
      "hit": false,
      "t": 196285.74700000044,
      "d": 428.5714999999909,
      "v": 102
    },
    {
      "midi": 41,
      "hit": false,
      "t": 196714.31850000043,
      "d": 214.28575000001,
      "v": 72
    },
    {
      "midi": 53,
      "hit": false,
      "t": 196714.31850000043,
      "d": 214.28575000001,
      "v": 83
    },
    {
      "midi": 41,
      "hit": false,
      "t": 197142.89000000045,
      "d": 214.28575000001,
      "v": 95
    },
    {
      "midi": 53,
      "hit": false,
      "t": 197142.89000000045,
      "d": 214.28575000001,
      "v": 93
    },
    {
      "midi": 55,
      "hit": false,
      "t": 197142.89000000045,
      "d": 428.57150000002,
      "v": 112
    },
    {
      "midi": 59,
      "hit": false,
      "t": 197142.89000000045,
      "d": 428.57150000002,
      "v": 113
    },
    {
      "midi": 62,
      "hit": false,
      "t": 197142.89000000045,
      "d": 428.57150000002,
      "v": 105
    },
    {
      "midi": 55,
      "hit": false,
      "t": 198000.03300000046,
      "d": 214.28575000001,
      "v": 108
    },
    {
      "midi": 59,
      "hit": false,
      "t": 198000.03300000046,
      "d": 428.57150000002,
      "v": 114
    },
    {
      "midi": 62,
      "hit": false,
      "t": 198000.03300000046,
      "d": 428.57150000002,
      "v": 108
    },
    {
      "midi": 55,
      "hit": false,
      "t": 198857.17600000047,
      "d": 428.5714999999909,
      "v": 94
    },
    {
      "midi": 59,
      "hit": false,
      "t": 198857.17600000047,
      "d": 428.5714999999909,
      "v": 99
    },
    {
      "midi": 64,
      "hit": false,
      "t": 198857.17600000047,
      "d": 428.5714999999909,
      "v": 98
    },
    {
      "midi": 40,
      "hit": false,
      "t": 198857.17600000047,
      "d": 1285.714500000031,
      "v": 91
    },
    {
      "midi": 52,
      "hit": false,
      "t": 199285.74750000046,
      "d": 428.57150000002,
      "v": 65
    },
    {
      "midi": 55,
      "hit": false,
      "t": 199500.03325000047,
      "d": 214.28575000001,
      "v": 84
    },
    {
      "midi": 55,
      "hit": false,
      "t": 199714.31900000048,
      "d": 214.28575000001,
      "v": 85
    },
    {
      "midi": 59,
      "hit": false,
      "t": 199714.31900000048,
      "d": 214.28575000001,
      "v": 122
    },
    {
      "midi": 64,
      "hit": false,
      "t": 199928.6047500005,
      "d": 214.28575000001,
      "v": 110
    },
    {
      "midi": 52,
      "hit": false,
      "t": 200142.8905000005,
      "d": 214.28575000001,
      "v": 83
    },
    {
      "midi": 57,
      "hit": false,
      "t": 200571.4620000005,
      "d": 428.5714999999909,
      "v": 81
    },
    {
      "midi": 60,
      "hit": false,
      "t": 200571.4620000005,
      "d": 428.5714999999909,
      "v": 98
    },
    {
      "midi": 64,
      "hit": false,
      "t": 200571.4620000005,
      "d": 428.5714999999909,
      "v": 103
    },
    {
      "midi": 45,
      "hit": false,
      "t": 200571.4620000005,
      "d": 857.1430000000109,
      "v": 93
    },
    {
      "midi": 52,
      "hit": false,
      "t": 201000.03350000049,
      "d": 428.57150000002,
      "v": 63
    },
    {
      "midi": 57,
      "hit": false,
      "t": 201214.3192500005,
      "d": 214.28575000001,
      "v": 91
    },
    {
      "midi": 57,
      "hit": false,
      "t": 201428.6050000005,
      "d": 214.28575000001,
      "v": 67
    },
    {
      "midi": 60,
      "hit": false,
      "t": 201428.6050000005,
      "d": 214.28575000001,
      "v": 118
    },
    {
      "midi": 64,
      "hit": false,
      "t": 201642.89075000052,
      "d": 214.28575000001,
      "v": 120
    },
    {
      "midi": 57,
      "hit": false,
      "t": 201857.17650000053,
      "d": 214.28575000001,
      "v": 102
    },
    {
      "midi": 57,
      "hit": false,
      "t": 202285.74800000052,
      "d": 428.5714999999909,
      "v": 103
    },
    {
      "midi": 62,
      "hit": false,
      "t": 202285.74800000052,
      "d": 428.5714999999909,
      "v": 114
    },
    {
      "midi": 65,
      "hit": false,
      "t": 202285.74800000052,
      "d": 428.5714999999909,
      "v": 107
    },
    {
      "midi": 38,
      "hit": false,
      "t": 202285.74800000052,
      "d": 1285.7145000000019,
      "v": 91
    },
    {
      "midi": 50,
      "hit": false,
      "t": 202714.3195000005,
      "d": 428.5714999999909,
      "v": 64
    },
    {
      "midi": 62,
      "hit": false,
      "t": 203142.8910000005,
      "d": 214.28575000001,
      "v": 114
    },
    {
      "midi": 65,
      "hit": false,
      "t": 203142.8910000005,
      "d": 214.28575000001,
      "v": 108
    },
    {
      "midi": 57,
      "hit": false,
      "t": 203142.8910000005,
      "d": 428.57150000002,
      "v": 105
    },
    {
      "midi": 50,
      "hit": false,
      "t": 203571.46250000052,
      "d": 214.28575000001,
      "v": 83
    },
    {
      "midi": 41,
      "hit": false,
      "t": 204000.0340000005,
      "d": 428.5714999999909,
      "v": 84
    },
    {
      "midi": 43,
      "hit": false,
      "t": 204000.0340000005,
      "d": 428.5714999999909,
      "v": 87
    },
    {
      "midi": 55,
      "hit": false,
      "t": 204000.0340000005,
      "d": 428.5714999999909,
      "v": 100
    },
    {
      "midi": 59,
      "hit": false,
      "t": 204000.0340000005,
      "d": 428.5714999999909,
      "v": 112
    },
    {
      "midi": 62,
      "hit": false,
      "t": 204000.0340000005,
      "d": 428.5714999999909,
      "v": 100
    },
    {
      "midi": 43,
      "hit": false,
      "t": 204428.6055000005,
      "d": 642.8572500000009,
      "v": 90
    },
    {
      "midi": 55,
      "hit": false,
      "t": 204857.1770000005,
      "d": 428.57150000002,
      "v": 110
    },
    {
      "midi": 59,
      "hit": false,
      "t": 204857.1770000005,
      "d": 428.57150000002,
      "v": 112
    },
    {
      "midi": 62,
      "hit": false,
      "t": 204857.1770000005,
      "d": 428.57150000002,
      "v": 110
    },
    {
      "midi": 43,
      "hit": false,
      "t": 205285.7485000005,
      "d": 214.28575000001,
      "v": 87
    },
    {
      "midi": 55,
      "hit": false,
      "t": 205714.3200000005,
      "d": 428.5714999999909,
      "v": 98
    },
    {
      "midi": 60,
      "hit": false,
      "t": 205714.3200000005,
      "d": 428.5714999999909,
      "v": 109
    },
    {
      "midi": 64,
      "hit": false,
      "t": 205714.3200000005,
      "d": 428.5714999999909,
      "v": 103
    },
    {
      "midi": 36,
      "hit": false,
      "t": 205714.3200000005,
      "d": 857.1429999999818,
      "v": 91
    },
    {
      "midi": 48,
      "hit": false,
      "t": 206142.8915000005,
      "d": 642.8572500000009,
      "v": 59
    },
    {
      "midi": 55,
      "hit": false,
      "t": 206571.46300000048,
      "d": 214.28575000001,
      "v": 102
    },
    {
      "midi": 60,
      "hit": false,
      "t": 206571.46300000048,
      "d": 428.57150000002,
      "v": 109
    },
    {
      "midi": 64,
      "hit": false,
      "t": 206571.46300000048,
      "d": 428.57150000002,
      "v": 99
    },
    {
      "midi": 36,
      "hit": false,
      "t": 207000.0345000005,
      "d": 214.28575000001,
      "v": 83
    },
    {
      "midi": 55,
      "hit": false,
      "t": 207214.3202500005,
      "d": 214.2857499999809,
      "v": 81
    },
    {
      "midi": 36,
      "hit": false,
      "t": 207428.6060000005,
      "d": 428.5714999999909,
      "v": 92
    },
    {
      "midi": 55,
      "hit": false,
      "t": 207428.6060000005,
      "d": 428.5714999999909,
      "v": 105
    },
    {
      "midi": 64,
      "hit": false,
      "t": 207428.6060000005,
      "d": 428.5714999999909,
      "v": 113
    },
    {
      "midi": 48,
      "hit": false,
      "t": 207857.1775000005,
      "d": 214.28575000001,
      "v": 79
    },
    {
      "midi": 55,
      "hit": false,
      "t": 208071.4632500005,
      "d": 214.28575000001,
      "v": 91
    },
    {
      "midi": 38,
      "hit": false,
      "t": 208285.7490000005,
      "d": 214.28575000001,
      "v": 98
    },
    {
      "midi": 55,
      "hit": false,
      "t": 208285.7490000005,
      "d": 214.28575000001,
      "v": 112
    },
    {
      "midi": 62,
      "hit": false,
      "t": 208285.7490000005,
      "d": 428.57150000002,
      "v": 122
    },
    {
      "midi": 60,
      "hit": false,
      "t": 208714.32050000053,
      "d": 214.28575000001,
      "v": 115
    },
    {
      "midi": 57,
      "hit": false,
      "t": 209142.89200000052,
      "d": 428.5714999999909,
      "v": 107
    },
    {
      "midi": 60,
      "hit": false,
      "t": 209142.89200000052,
      "d": 428.5714999999909,
      "v": 115
    },
    {
      "midi": 65,
      "hit": false,
      "t": 209142.89200000052,
      "d": 428.5714999999909,
      "v": 98
    },
    {
      "midi": 41,
      "hit": false,
      "t": 209142.89200000052,
      "d": 857.1429999999818,
      "v": 96
    },
    {
      "midi": 53,
      "hit": false,
      "t": 209571.4635000005,
      "d": 428.5714999999909,
      "v": 68
    },
    {
      "midi": 57,
      "hit": false,
      "t": 210000.0350000005,
      "d": 214.28575000001,
      "v": 109
    },
    {
      "midi": 60,
      "hit": false,
      "t": 210000.0350000005,
      "d": 214.28575000001,
      "v": 98
    },
    {
      "midi": 62,
      "hit": false,
      "t": 210000.0350000005,
      "d": 214.28575000001,
      "v": 102
    },
    {
      "midi": 65,
      "hit": false,
      "t": 210000.0350000005,
      "d": 214.28575000001,
      "v": 103
    },
    {
      "midi": 41,
      "hit": false,
      "t": 210428.60650000052,
      "d": 214.28575000001,
      "v": 96
    },
    {
      "midi": 52,
      "hit": false,
      "t": 210857.17800000054,
      "d": 214.28575000001,
      "v": 93
    },
    {
      "midi": 56,
      "hit": false,
      "t": 210857.17800000054,
      "d": 428.57150000002,
      "v": 110
    },
    {
      "midi": 59,
      "hit": false,
      "t": 210857.17800000054,
      "d": 428.57150000002,
      "v": 109
    },
    {
      "midi": 64,
      "hit": false,
      "t": 210857.17800000054,
      "d": 428.57150000002,
      "v": 110
    },
    {
      "midi": 40,
      "hit": false,
      "t": 210857.17800000054,
      "d": 1071.428750000021,
      "v": 94
    },
    {
      "midi": 52,
      "hit": false,
      "t": 211285.74950000056,
      "d": 642.8572500000009,
      "v": 75
    },
    {
      "midi": 56,
      "hit": false,
      "t": 211714.32100000055,
      "d": 214.28575000001,
      "v": 113
    },
    {
      "midi": 59,
      "hit": false,
      "t": 211714.32100000055,
      "d": 214.28575000001,
      "v": 109
    },
    {
      "midi": 64,
      "hit": false,
      "t": 211714.32100000055,
      "d": 428.57150000002,
      "v": 106
    },
    {
      "midi": 52,
      "hit": false,
      "t": 212142.89250000057,
      "d": 214.28575000001,
      "v": 85
    },
    {
      "midi": 57,
      "hit": false,
      "t": 212571.46400000056,
      "d": 428.5714999999909,
      "v": 98
    },
    {
      "midi": 60,
      "hit": false,
      "t": 212571.46400000056,
      "d": 428.5714999999909,
      "v": 103
    },
    {
      "midi": 64,
      "hit": false,
      "t": 212571.46400000056,
      "d": 428.5714999999909,
      "v": 96
    },
    {
      "midi": 45,
      "hit": false,
      "t": 212571.46400000056,
      "d": 2571.4289999999746,
      "v": 98
    },
    {
      "midi": 52,
      "hit": false,
      "t": 213000.03550000055,
      "d": 428.5714999999909,
      "v": 61
    },
    {
      "midi": 57,
      "hit": false,
      "t": 213428.60700000054,
      "d": 428.5714999999909,
      "v": 102
    },
    {
      "midi": 60,
      "hit": false,
      "t": 213428.60700000054,
      "d": 428.5714999999909,
      "v": 104
    },
    {
      "midi": 64,
      "hit": false,
      "t": 213428.60700000054,
      "d": 428.5714999999909,
      "v": 98
    },
    {
      "midi": 52,
      "hit": false,
      "t": 213857.17850000053,
      "d": 428.5714999999909,
      "v": 59
    },
    {
      "midi": 57,
      "hit": false,
      "t": 214285.75000000052,
      "d": 428.5714999999909,
      "v": 104
    },
    {
      "midi": 60,
      "hit": false,
      "t": 214285.75000000052,
      "d": 428.5714999999909,
      "v": 105
    },
    {
      "midi": 64,
      "hit": false,
      "t": 214285.75000000052,
      "d": 428.5714999999909,
      "v": 98
    },
    {
      "midi": 52,
      "hit": false,
      "t": 214714.32150000051,
      "d": 428.57150000002,
      "v": 80
    },
    {
      "midi": 57,
      "hit": false,
      "t": 214928.60725000052,
      "d": 214.28575000001,
      "v": 80
    },
    {
      "midi": 57,
      "hit": false,
      "t": 215142.89300000053,
      "d": 214.28575000001,
      "v": 101
    },
    {
      "midi": 60,
      "hit": false,
      "t": 215142.89300000053,
      "d": 214.28575000001,
      "v": 106
    },
    {
      "midi": 64,
      "hit": false,
      "t": 215142.89300000053,
      "d": 214.28575000001,
      "v": 105
    },
    {
      "midi": 45,
      "hit": false,
      "t": 215357.17875000054,
      "d": 214.28575000001,
      "v": 89
    },
    {
      "midi": 57,
      "hit": false,
      "t": 215571.46450000055,
      "d": 214.28575000001,
      "v": 103
    },
    {
      "midi": 57,
      "hit": false,
      "t": 216000.03600000055,
      "d": 428.5714999999909,
      "v": 110
    },
    {
      "midi": 60,
      "hit": false,
      "t": 216000.03600000055,
      "d": 428.5714999999909,
      "v": 115
    },
    {
      "midi": 64,
      "hit": false,
      "t": 216000.03600000055,
      "d": 428.5714999999909,
      "v": 109
    },
    {
      "midi": 38,
      "hit": false,
      "t": 216000.03600000055,
      "d": 857.1429999999818,
      "v": 95
    },
    {
      "midi": 50,
      "hit": false,
      "t": 216428.60750000054,
      "d": 428.5714999999909,
      "v": 76
    },
    {
      "midi": 57,
      "hit": false,
      "t": 216857.17900000053,
      "d": 214.28575000001,
      "v": 112
    },
    {
      "midi": 60,
      "hit": false,
      "t": 216857.17900000053,
      "d": 214.28575000001,
      "v": 118
    },
    {
      "midi": 64,
      "hit": false,
      "t": 216857.17900000053,
      "d": 214.28575000001,
      "v": 109
    },
    {
      "midi": 38,
      "hit": false,
      "t": 217285.75050000055,
      "d": 214.28575000001,
      "v": 91
    },
    {
      "midi": 54,
      "hit": false,
      "t": 217714.32200000054,
      "d": 428.5714999999909,
      "v": 112
    },
    {
      "midi": 57,
      "hit": false,
      "t": 217714.32200000054,
      "d": 428.5714999999909,
      "v": 112
    },
    {
      "midi": 62,
      "hit": false,
      "t": 217714.32200000054,
      "d": 428.5714999999909,
      "v": 112
    },
    {
      "midi": 38,
      "hit": false,
      "t": 217714.32200000054,
      "d": 857.1430000000109,
      "v": 98
    },
    {
      "midi": 50,
      "hit": false,
      "t": 218142.89350000053,
      "d": 428.57150000002,
      "v": 77
    },
    {
      "midi": 54,
      "hit": false,
      "t": 218357.17925000054,
      "d": 214.28575000001,
      "v": 97
    },
    {
      "midi": 54,
      "hit": false,
      "t": 218571.46500000055,
      "d": 214.28575000001,
      "v": 113
    },
    {
      "midi": 57,
      "hit": false,
      "t": 218571.46500000055,
      "d": 214.28575000001,
      "v": 113
    },
    {
      "midi": 62,
      "hit": false,
      "t": 218571.46500000055,
      "d": 214.28575000001,
      "v": 107
    },
    {
      "midi": 50,
      "hit": false,
      "t": 218785.75075000056,
      "d": 428.57150000002,
      "v": 100
    },
    {
      "midi": 54,
      "hit": false,
      "t": 219000.03650000057,
      "d": 214.28575000001,
      "v": 107
    },
    {
      "midi": 57,
      "hit": false,
      "t": 219000.03650000057,
      "d": 214.28575000001,
      "v": 98
    },
    {
      "midi": 55,
      "hit": false,
      "t": 219428.60800000056,
      "d": 428.5714999999909,
      "v": 98
    },
    {
      "midi": 57,
      "hit": false,
      "t": 219428.60800000056,
      "d": 428.5714999999909,
      "v": 99
    },
    {
      "midi": 59,
      "hit": false,
      "t": 219428.60800000056,
      "d": 428.5714999999909,
      "v": 98
    },
    {
      "midi": 43,
      "hit": false,
      "t": 219428.60800000056,
      "d": 2571.429000000062,
      "v": 91
    },
    {
      "midi": 50,
      "hit": false,
      "t": 219857.17950000055,
      "d": 428.57150000002,
      "v": 75
    },
    {
      "midi": 55,
      "hit": false,
      "t": 220071.46525000056,
      "d": 214.28575000001,
      "v": 91
    },
    {
      "midi": 55,
      "hit": false,
      "t": 220285.75100000057,
      "d": 214.28575000001,
      "v": 64
    },
    {
      "midi": 59,
      "hit": false,
      "t": 220285.75100000057,
      "d": 214.28575000001,
      "v": 112
    },
    {
      "midi": 62,
      "hit": false,
      "t": 220500.03675000058,
      "d": 214.28575000001,
      "v": 121
    },
    {
      "midi": 50,
      "hit": false,
      "t": 220714.3225000006,
      "d": 428.57150000002,
      "v": 76
    },
    {
      "midi": 55,
      "hit": false,
      "t": 220928.6082500006,
      "d": 214.28575000001,
      "v": 85
    },
    {
      "midi": 55,
      "hit": false,
      "t": 221142.8940000006,
      "d": 428.5714999999909,
      "v": 112
    },
    {
      "midi": 62,
      "hit": false,
      "t": 221142.8940000006,
      "d": 428.5714999999909,
      "v": 115
    },
    {
      "midi": 50,
      "hit": false,
      "t": 221571.4655000006,
      "d": 428.57150000002,
      "v": 59
    },
    {
      "midi": 55,
      "hit": false,
      "t": 221785.7512500006,
      "d": 214.28575000001,
      "v": 85
    },
    {
      "midi": 55,
      "hit": false,
      "t": 222000.03700000062,
      "d": 214.28575000001,
      "v": 107
    },
    {
      "midi": 62,
      "hit": false,
      "t": 222000.03700000062,
      "d": 214.28575000001,
      "v": 112
    },
    {
      "midi": 43,
      "hit": false,
      "t": 222214.32275000063,
      "d": 214.28575000001,
      "v": 90
    },
    {
      "midi": 59,
      "hit": false,
      "t": 222428.60850000064,
      "d": 214.28575000001,
      "v": 98
    },
    {
      "midi": 57,
      "hit": false,
      "t": 222857.18000000063,
      "d": 428.5714999999909,
      "v": 107
    },
    {
      "midi": 60,
      "hit": false,
      "t": 222857.18000000063,
      "d": 428.5714999999909,
      "v": 109
    },
    {
      "midi": 65,
      "hit": false,
      "t": 222857.18000000063,
      "d": 428.5714999999909,
      "v": 93
    },
    {
      "midi": 41,
      "hit": false,
      "t": 222857.18000000063,
      "d": 857.1429999999818,
      "v": 96
    },
    {
      "midi": 53,
      "hit": false,
      "t": 223285.75150000062,
      "d": 428.5714999999909,
      "v": 62
    },
    {
      "midi": 57,
      "hit": false,
      "t": 223714.32300000062,
      "d": 428.5714999999909,
      "v": 112
    },
    {
      "midi": 60,
      "hit": false,
      "t": 223714.32300000062,
      "d": 428.5714999999909,
      "v": 115
    },
    {
      "midi": 65,
      "hit": false,
      "t": 223714.32300000062,
      "d": 428.5714999999909,
      "v": 96
    },
    {
      "midi": 41,
      "hit": false,
      "t": 224142.8945000006,
      "d": 214.28575000001,
      "v": 83
    },
    {
      "midi": 53,
      "hit": false,
      "t": 224142.8945000006,
      "d": 214.28575000001,
      "v": 98
    },
    {
      "midi": 53,
      "hit": false,
      "t": 224571.46600000063,
      "d": 214.2857499999809,
      "v": 98
    },
    {
      "midi": 55,
      "hit": false,
      "t": 224571.46600000063,
      "d": 428.5714999999909,
      "v": 108
    },
    {
      "midi": 59,
      "hit": false,
      "t": 224571.46600000063,
      "d": 428.5714999999909,
      "v": 108
    },
    {
      "midi": 62,
      "hit": false,
      "t": 224571.46600000063,
      "d": 428.5714999999909,
      "v": 108
    },
    {
      "midi": 41,
      "hit": false,
      "t": 224571.46600000063,
      "d": 857.1430000000109,
      "v": 87
    },
    {
      "midi": 53,
      "hit": false,
      "t": 225000.03750000062,
      "d": 428.57150000002,
      "v": 85
    },
    {
      "midi": 55,
      "hit": false,
      "t": 225214.32325000063,
      "d": 214.28575000001,
      "v": 79
    },
    {
      "midi": 55,
      "hit": false,
      "t": 225428.60900000064,
      "d": 214.28575000001,
      "v": 107
    },
    {
      "midi": 59,
      "hit": false,
      "t": 225428.60900000064,
      "d": 214.28575000001,
      "v": 110
    },
    {
      "midi": 62,
      "hit": false,
      "t": 225428.60900000064,
      "d": 214.28575000001,
      "v": 108
    },
    {
      "midi": 41,
      "hit": false,
      "t": 225642.89475000065,
      "d": 214.28575000001,
      "v": 83
    },
    {
      "midi": 53,
      "hit": false,
      "t": 225642.89475000065,
      "d": 214.28575000001,
      "v": 84
    },
    {
      "midi": 55,
      "hit": false,
      "t": 225857.18050000066,
      "d": 214.28575000001,
      "v": 92
    },
    {
      "midi": 55,
      "hit": false,
      "t": 226071.46625000067,
      "d": 214.28575000001,
      "v": 60
    },
    {
      "midi": 59,
      "hit": false,
      "t": 226071.46625000067,
      "d": 214.28575000001,
      "v": 91
    },
    {
      "midi": 52,
      "hit": false,
      "t": 226285.75200000068,
      "d": 214.2857499999809,
      "v": 94
    },
    {
      "midi": 55,
      "hit": false,
      "t": 226285.75200000068,
      "d": 642.8572499999718,
      "v": 114
    },
    {
      "midi": 59,
      "hit": false,
      "t": 226285.75200000068,
      "d": 642.8572499999718,
      "v": 117
    },
    {
      "midi": 62,
      "hit": false,
      "t": 226285.75200000068,
      "d": 642.8572499999718,
      "v": 114
    },
    {
      "midi": 40,
      "hit": false,
      "t": 226285.75200000068,
      "d": 1285.7145000000019,
      "v": 91
    },
    {
      "midi": 55,
      "hit": false,
      "t": 226928.60925000065,
      "d": 214.28575000001,
      "v": 84
    },
    {
      "midi": 52,
      "hit": false,
      "t": 226928.60925000065,
      "d": 428.57150000002,
      "v": 85
    },
    {
      "midi": 55,
      "hit": false,
      "t": 227142.89500000066,
      "d": 214.28575000001,
      "v": 84
    },
    {
      "midi": 59,
      "hit": false,
      "t": 227142.89500000066,
      "d": 428.57150000002,
      "v": 118
    },
    {
      "midi": 62,
      "hit": false,
      "t": 227357.18075000067,
      "d": 428.57150000002,
      "v": 117
    },
    {
      "midi": 52,
      "hit": false,
      "t": 227571.46650000068,
      "d": 428.5714999999909,
      "v": 91
    },
    {
      "midi": 55,
      "hit": false,
      "t": 227785.7522500007,
      "d": 214.2857499999809,
      "v": 91
    },
    {
      "midi": 55,
      "hit": false,
      "t": 228000.03800000067,
      "d": 428.5714999999909,
      "v": 98
    },
    {
      "midi": 60,
      "hit": false,
      "t": 228000.03800000067,
      "d": 428.5714999999909,
      "v": 102
    },
    {
      "midi": 64,
      "hit": false,
      "t": 228000.03800000067,
      "d": 428.5714999999909,
      "v": 103
    },
    {
      "midi": 45,
      "hit": false,
      "t": 228000.03800000067,
      "d": 857.1430000000109,
      "v": 98
    },
    {
      "midi": 52,
      "hit": false,
      "t": 228642.89525000067,
      "d": 214.28575000001,
      "v": 31
    },
    {
      "midi": 64,
      "hit": false,
      "t": 228857.18100000068,
      "d": 214.28575000001,
      "v": 107
    },
    {
      "midi": 55,
      "hit": false,
      "t": 228857.18100000068,
      "d": 428.57150000002,
      "v": 110
    },
    {
      "midi": 60,
      "hit": false,
      "t": 228857.18100000068,
      "d": 428.57150000002,
      "v": 115
    },
    {
      "midi": 45,
      "hit": false,
      "t": 229285.7525000007,
      "d": 214.28575000001,
      "v": 94
    },
    {
      "midi": 57,
      "hit": false,
      "t": 229714.3240000007,
      "d": 428.5714999999909,
      "v": 94
    },
    {
      "midi": 60,
      "hit": false,
      "t": 229714.3240000007,
      "d": 428.5714999999909,
      "v": 103
    },
    {
      "midi": 62,
      "hit": false,
      "t": 229714.3240000007,
      "d": 428.5714999999909,
      "v": 101
    },
    {
      "midi": 38,
      "hit": false,
      "t": 229714.3240000007,
      "d": 1071.428750000021,
      "v": 92
    },
    {
      "midi": 50,
      "hit": false,
      "t": 230142.89550000068,
      "d": 428.57150000002,
      "v": 71
    },
    {
      "midi": 57,
      "hit": false,
      "t": 230357.1812500007,
      "d": 214.28575000001,
      "v": 72
    },
    {
      "midi": 57,
      "hit": false,
      "t": 230571.4670000007,
      "d": 214.28575000001,
      "v": 105
    },
    {
      "midi": 60,
      "hit": false,
      "t": 230571.4670000007,
      "d": 214.28575000001,
      "v": 112
    },
    {
      "midi": 62,
      "hit": false,
      "t": 230571.4670000007,
      "d": 214.28575000001,
      "v": 105
    },
    {
      "midi": 65,
      "hit": false,
      "t": 230571.4670000007,
      "d": 214.28575000001,
      "v": 95
    },
    {
      "midi": 50,
      "hit": false,
      "t": 230785.7527500007,
      "d": 428.57150000002,
      "v": 98
    },
    {
      "midi": 57,
      "hit": false,
      "t": 231000.03850000072,
      "d": 214.28575000001,
      "v": 112
    },
    {
      "midi": 55,
      "hit": false,
      "t": 231428.6100000007,
      "d": 428.5714999999909,
      "v": 87
    },
    {
      "midi": 59,
      "hit": false,
      "t": 231428.6100000007,
      "d": 428.5714999999909,
      "v": 98
    },
    {
      "midi": 62,
      "hit": false,
      "t": 231428.6100000007,
      "d": 428.5714999999909,
      "v": 105
    },
    {
      "midi": 43,
      "hit": false,
      "t": 231428.6100000007,
      "d": 857.1430000000109,
      "v": 94
    },
    {
      "midi": 50,
      "hit": false,
      "t": 231857.1815000007,
      "d": 428.57150000002,
      "v": 62
    },
    {
      "midi": 55,
      "hit": false,
      "t": 232071.46725000071,
      "d": 214.28575000001,
      "v": 91
    },
    {
      "midi": 55,
      "hit": false,
      "t": 232285.75300000072,
      "d": 214.28575000001,
      "v": 76
    },
    {
      "midi": 59,
      "hit": false,
      "t": 232285.75300000072,
      "d": 428.57150000002,
      "v": 120
    },
    {
      "midi": 43,
      "hit": false,
      "t": 232500.03875000073,
      "d": 214.28575000001,
      "v": 98
    },
    {
      "midi": 55,
      "hit": false,
      "t": 232714.32450000074,
      "d": 214.28575000001,
      "v": 101
    },
    {
      "midi": 36,
      "hit": false,
      "t": 233142.89600000074,
      "d": 428.5714999999909,
      "v": 84
    },
    {
      "midi": 55,
      "hit": false,
      "t": 233142.89600000074,
      "d": 428.5714999999909,
      "v": 84
    },
    {
      "midi": 60,
      "hit": false,
      "t": 233142.89600000074,
      "d": 428.5714999999909,
      "v": 97
    },
    {
      "midi": 64,
      "hit": false,
      "t": 233142.89600000074,
      "d": 428.5714999999909,
      "v": 100
    },
    {
      "midi": 48,
      "hit": false,
      "t": 233571.46750000073,
      "d": 428.5714999999909,
      "v": 45
    },
    {
      "midi": 55,
      "hit": false,
      "t": 234000.03900000072,
      "d": 214.28575000001,
      "v": 104
    },
    {
      "midi": 60,
      "hit": false,
      "t": 234000.03900000072,
      "d": 214.28575000001,
      "v": 112
    },
    {
      "midi": 64,
      "hit": false,
      "t": 234000.03900000072,
      "d": 214.28575000001,
      "v": 96
    },
    {
      "midi": 55,
      "hit": false,
      "t": 234428.61050000074,
      "d": 214.28575000001,
      "v": 87
    },
    {
      "midi": 60,
      "hit": false,
      "t": 234857.18200000073,
      "d": 214.28575000001,
      "v": 108
    },
    {
      "midi": 55,
      "hit": false,
      "t": 234857.18200000073,
      "d": 428.57150000002,
      "v": 109
    },
    {
      "midi": 64,
      "hit": false,
      "t": 234857.18200000073,
      "d": 428.57150000002,
      "v": 114
    },
    {
      "midi": 36,
      "hit": false,
      "t": 234857.18200000073,
      "d": 642.85725000003,
      "v": 96
    },
    {
      "midi": 48,
      "hit": false,
      "t": 235285.75350000075,
      "d": 428.57150000002,
      "v": 80
    },
    {
      "midi": 55,
      "hit": false,
      "t": 235500.03925000076,
      "d": 214.28575000001,
      "v": 94
    },
    {
      "midi": 55,
      "hit": false,
      "t": 235714.32500000077,
      "d": 214.28575000001,
      "v": 107
    },
    {
      "midi": 62,
      "hit": false,
      "t": 235714.32500000077,
      "d": 214.28575000001,
      "v": 124
    },
    {
      "midi": 38,
      "hit": false,
      "t": 235928.61075000078,
      "d": 214.28575000001,
      "v": 98
    },
    {
      "midi": 60,
      "hit": false,
      "t": 236142.8965000008,
      "d": 214.28575000001,
      "v": 115
    },
    {
      "midi": 60,
      "hit": false,
      "t": 236571.46800000078,
      "d": 214.28575000001,
      "v": 118
    },
    {
      "midi": 57,
      "hit": false,
      "t": 236571.46800000078,
      "d": 428.57150000002,
      "v": 109
    },
    {
      "midi": 65,
      "hit": false,
      "t": 236571.46800000078,
      "d": 428.57150000002,
      "v": 100
    },
    {
      "midi": 41,
      "hit": false,
      "t": 236571.46800000078,
      "d": 857.1430000000109,
      "v": 95
    },
    {
      "midi": 53,
      "hit": false,
      "t": 237000.0395000008,
      "d": 428.5714999999909,
      "v": 35
    },
    {
      "midi": 57,
      "hit": false,
      "t": 237428.6110000008,
      "d": 214.28575000001,
      "v": 113
    },
    {
      "midi": 60,
      "hit": false,
      "t": 237428.6110000008,
      "d": 214.28575000001,
      "v": 118
    },
    {
      "midi": 65,
      "hit": false,
      "t": 237428.6110000008,
      "d": 214.28575000001,
      "v": 102
    },
    {
      "midi": 41,
      "hit": false,
      "t": 237857.1825000008,
      "d": 214.28575000001,
      "v": 86
    },
    {
      "midi": 55,
      "hit": false,
      "t": 238285.7540000008,
      "d": 428.5714999999909,
      "v": 108
    },
    {
      "midi": 59,
      "hit": false,
      "t": 238285.7540000008,
      "d": 428.5714999999909,
      "v": 114
    },
    {
      "midi": 62,
      "hit": false,
      "t": 238285.7540000008,
      "d": 428.5714999999909,
      "v": 112
    },
    {
      "midi": 41,
      "hit": false,
      "t": 238285.7540000008,
      "d": 857.1430000000109,
      "v": 102
    },
    {
      "midi": 53,
      "hit": false,
      "t": 238714.3255000008,
      "d": 428.57150000002,
      "v": 75
    },
    {
      "midi": 55,
      "hit": false,
      "t": 238928.6112500008,
      "d": 214.28575000001,
      "v": 89
    },
    {
      "midi": 55,
      "hit": false,
      "t": 239142.8970000008,
      "d": 214.28575000001,
      "v": 113
    },
    {
      "midi": 59,
      "hit": false,
      "t": 239142.8970000008,
      "d": 428.57150000002,
      "v": 114
    },
    {
      "midi": 62,
      "hit": false,
      "t": 239142.8970000008,
      "d": 428.57150000002,
      "v": 113
    },
    {
      "midi": 41,
      "hit": false,
      "t": 239357.18275000082,
      "d": 214.28575000001,
      "v": 98
    },
    {
      "midi": 55,
      "hit": false,
      "t": 239571.46850000083,
      "d": 214.28575000001,
      "v": 102
    },
    {
      "midi": 52,
      "hit": false,
      "t": 240000.04000000082,
      "d": 214.28575000001,
      "v": 97
    },
    {
      "midi": 55,
      "hit": false,
      "t": 240000.04000000082,
      "d": 428.57150000002,
      "v": 110
    },
    {
      "midi": 59,
      "hit": false,
      "t": 240000.04000000082,
      "d": 428.57150000002,
      "v": 114
    },
    {
      "midi": 62,
      "hit": false,
      "t": 240000.04000000082,
      "d": 428.57150000002,
      "v": 110
    },
    {
      "midi": 40,
      "hit": false,
      "t": 240000.04000000082,
      "d": 1500.0002500000119,
      "v": 90
    },
    {
      "midi": 52,
      "hit": false,
      "t": 240428.61150000084,
      "d": 428.5714999999909,
      "v": 73
    },
    {
      "midi": 55,
      "hit": false,
      "t": 240857.18300000083,
      "d": 428.5714999999909,
      "v": 101
    },
    {
      "midi": 59,
      "hit": false,
      "t": 240857.18300000083,
      "d": 428.5714999999909,
      "v": 109
    },
    {
      "midi": 62,
      "hit": false,
      "t": 240857.18300000083,
      "d": 428.5714999999909,
      "v": 107
    },
    {
      "midi": 52,
      "hit": false,
      "t": 241285.75450000082,
      "d": 214.28575000001,
      "v": 92
    },
    {
      "midi": 55,
      "hit": false,
      "t": 241714.32600000082,
      "d": 428.5714999999909,
      "v": 83
    },
    {
      "midi": 60,
      "hit": false,
      "t": 241714.32600000082,
      "d": 428.5714999999909,
      "v": 93
    },
    {
      "midi": 64,
      "hit": false,
      "t": 241714.32600000082,
      "d": 428.5714999999909,
      "v": 115
    },
    {
      "midi": 45,
      "hit": false,
      "t": 241714.32600000082,
      "d": 857.1430000000109,
      "v": 96
    },
    {
      "midi": 55,
      "hit": false,
      "t": 242142.8975000008,
      "d": 214.28575000001,
      "v": 85
    },
    {
      "midi": 55,
      "hit": false,
      "t": 242357.18325000082,
      "d": 214.28575000001,
      "v": 84
    },
    {
      "midi": 55,
      "hit": false,
      "t": 242571.46900000083,
      "d": 214.28575000001,
      "v": 103
    },
    {
      "midi": 62,
      "hit": false,
      "t": 242571.46900000083,
      "d": 428.57150000002,
      "v": 121
    },
    {
      "midi": 40,
      "hit": false,
      "t": 242785.75475000084,
      "d": 214.28575000001,
      "v": 98
    },
    {
      "midi": 60,
      "hit": false,
      "t": 243000.04050000085,
      "d": 214.28575000001,
      "v": 109
    },
    {
      "midi": 57,
      "hit": false,
      "t": 243428.61200000084,
      "d": 428.5714999999909,
      "v": 112
    },
    {
      "midi": 60,
      "hit": false,
      "t": 243428.61200000084,
      "d": 428.5714999999909,
      "v": 120
    },
    {
      "midi": 65,
      "hit": false,
      "t": 243428.61200000084,
      "d": 428.5714999999909,
      "v": 101
    },
    {
      "midi": 38,
      "hit": false,
      "t": 243428.61200000084,
      "d": 1285.7144999999728,
      "v": 94
    },
    {
      "midi": 50,
      "hit": false,
      "t": 243857.18350000083,
      "d": 428.5714999999909,
      "v": 62
    },
    {
      "midi": 57,
      "hit": false,
      "t": 244285.75500000082,
      "d": 428.5714999999909,
      "v": 117
    },
    {
      "midi": 60,
      "hit": false,
      "t": 244285.75500000082,
      "d": 428.5714999999909,
      "v": 122
    },
    {
      "midi": 65,
      "hit": false,
      "t": 244285.75500000082,
      "d": 428.5714999999909,
      "v": 106
    },
    {
      "midi": 50,
      "hit": false,
      "t": 244714.3265000008,
      "d": 428.5714999999909,
      "v": 88
    },
    {
      "midi": 55,
      "hit": false,
      "t": 245142.8980000008,
      "d": 428.5714999999909,
      "v": 91
    },
    {
      "midi": 59,
      "hit": false,
      "t": 245142.8980000008,
      "d": 428.5714999999909,
      "v": 102
    },
    {
      "midi": 62,
      "hit": false,
      "t": 245142.8980000008,
      "d": 428.5714999999909,
      "v": 110
    },
    {
      "midi": 43,
      "hit": false,
      "t": 245142.8980000008,
      "d": 857.1430000000109,
      "v": 96
    },
    {
      "midi": 50,
      "hit": false,
      "t": 245571.4695000008,
      "d": 214.28575000001,
      "v": 78
    },
    {
      "midi": 55,
      "hit": false,
      "t": 245785.7552500008,
      "d": 214.28575000001,
      "v": 94
    },
    {
      "midi": 57,
      "hit": false,
      "t": 246000.0410000008,
      "d": 214.28575000001,
      "v": 114
    },
    {
      "midi": 59,
      "hit": false,
      "t": 246214.32675000082,
      "d": 214.28575000001,
      "v": 122
    },
    {
      "midi": 55,
      "hit": false,
      "t": 246428.61250000083,
      "d": 214.28575000001,
      "v": 110
    },
    {
      "midi": 55,
      "hit": false,
      "t": 246857.18400000082,
      "d": 428.5714999999909,
      "v": 85
    },
    {
      "midi": 60,
      "hit": false,
      "t": 246857.18400000082,
      "d": 428.5714999999909,
      "v": 90
    },
    {
      "midi": 64,
      "hit": false,
      "t": 246857.18400000082,
      "d": 428.5714999999909,
      "v": 100
    },
    {
      "midi": 36,
      "hit": false,
      "t": 246857.18400000082,
      "d": 3000.0004999999364,
      "v": 94
    },
    {
      "midi": 48,
      "hit": false,
      "t": 247285.7555000008,
      "d": 428.5714999999909,
      "v": 37
    },
    {
      "midi": 55,
      "hit": false,
      "t": 247714.3270000008,
      "d": 428.5714999999909,
      "v": 97
    },
    {
      "midi": 60,
      "hit": false,
      "t": 247714.3270000008,
      "d": 428.5714999999909,
      "v": 103
    },
    {
      "midi": 64,
      "hit": false,
      "t": 247714.3270000008,
      "d": 428.5714999999909,
      "v": 98
    },
    {
      "midi": 48,
      "hit": false,
      "t": 248142.8985000008,
      "d": 428.5714999999909,
      "v": 54
    },
    {
      "midi": 55,
      "hit": false,
      "t": 248571.4700000008,
      "d": 428.5714999999909,
      "v": 99
    },
    {
      "midi": 60,
      "hit": false,
      "t": 248571.4700000008,
      "d": 428.5714999999909,
      "v": 107
    },
    {
      "midi": 64,
      "hit": false,
      "t": 248571.4700000008,
      "d": 428.5714999999909,
      "v": 100
    },
    {
      "midi": 48,
      "hit": false,
      "t": 249000.04150000078,
      "d": 428.5714999999909,
      "v": 58
    },
    {
      "midi": 55,
      "hit": false,
      "t": 249428.61300000077,
      "d": 428.5714999999909,
      "v": 112
    },
    {
      "midi": 60,
      "hit": false,
      "t": 249428.61300000077,
      "d": 428.5714999999909,
      "v": 117
    },
    {
      "midi": 64,
      "hit": false,
      "t": 249428.61300000077,
      "d": 428.5714999999909,
      "v": 112
    },
    {
      "midi": 48,
      "hit": false,
      "t": 249857.18450000076,
      "d": 214.28575000001,
      "v": 98
    },
    {
      "midi": 57,
      "hit": false,
      "t": 250285.75600000078,
      "d": 428.5714999999909,
      "v": 114
    },
    {
      "midi": 62,
      "hit": false,
      "t": 250285.75600000078,
      "d": 428.5714999999909,
      "v": 120
    },
    {
      "midi": 65,
      "hit": false,
      "t": 250285.75600000078,
      "d": 428.5714999999909,
      "v": 109
    },
    {
      "midi": 38,
      "hit": false,
      "t": 250285.75600000078,
      "d": 1285.7145000000019,
      "v": 94
    },
    {
      "midi": 50,
      "hit": false,
      "t": 250714.32750000077,
      "d": 642.8572500000009,
      "v": 63
    },
    {
      "midi": 57,
      "hit": false,
      "t": 251142.89900000076,
      "d": 428.57150000002,
      "v": 112
    },
    {
      "midi": 62,
      "hit": false,
      "t": 251142.89900000076,
      "d": 428.57150000002,
      "v": 118
    },
    {
      "midi": 65,
      "hit": false,
      "t": 251142.89900000076,
      "d": 428.57150000002,
      "v": 112
    },
    {
      "midi": 50,
      "hit": false,
      "t": 251571.47050000078,
      "d": 428.5714999999909,
      "v": 77
    },
    {
      "midi": 55,
      "hit": false,
      "t": 252000.04200000077,
      "d": 428.5714999999909,
      "v": 98
    },
    {
      "midi": 57,
      "hit": false,
      "t": 252000.04200000077,
      "d": 428.5714999999909,
      "v": 109
    },
    {
      "midi": 43,
      "hit": false,
      "t": 252000.04200000077,
      "d": 857.1430000000109,
      "v": 93
    },
    {
      "midi": 59,
      "hit": false,
      "t": 252214.32775000075,
      "d": 214.28575000001,
      "v": 30
    },
    {
      "midi": 50,
      "hit": false,
      "t": 252428.61350000076,
      "d": 214.28575000001,
      "v": 80
    },
    {
      "midi": 55,
      "hit": false,
      "t": 252642.89925000077,
      "d": 214.28575000001,
      "v": 98
    },
    {
      "midi": 57,
      "hit": false,
      "t": 252857.18500000078,
      "d": 214.28575000001,
      "v": 110
    },
    {
      "midi": 59,
      "hit": false,
      "t": 253071.4707500008,
      "d": 214.28575000001,
      "v": 124
    },
    {
      "midi": 55,
      "hit": false,
      "t": 253285.7565000008,
      "d": 214.28575000001,
      "v": 104
    },
    {
      "midi": 60,
      "hit": false,
      "t": 253714.3280000008,
      "d": 214.2857499999809,
      "v": 84
    },
    {
      "midi": 36,
      "hit": false,
      "t": 253714.3280000008,
      "d": 428.5714999999909,
      "v": 96
    },
    {
      "midi": 55,
      "hit": false,
      "t": 253714.3280000008,
      "d": 642.8572500000009,
      "v": 66
    },
    {
      "midi": 64,
      "hit": false,
      "t": 253714.3280000008,
      "d": 642.8572500000009,
      "v": 114
    },
    {
      "midi": 48,
      "hit": false,
      "t": 254142.89950000079,
      "d": 214.28575000001,
      "v": 76
    },
    {
      "midi": 52,
      "hit": false,
      "t": 254357.1852500008,
      "d": 428.57150000002,
      "v": 76
    },
    {
      "midi": 55,
      "hit": false,
      "t": 254571.4710000008,
      "d": 428.57150000002,
      "v": 101
    },
    {
      "midi": 64,
      "hit": false,
      "t": 254785.75675000082,
      "d": 214.28575000001,
      "v": 120
    },
    {
      "midi": 47,
      "hit": false,
      "t": 255000.04250000083,
      "d": 214.28575000001,
      "v": 95
    },
    {
      "midi": 62,
      "hit": false,
      "t": 255214.32825000084,
      "d": 214.2857499999809,
      "v": 83
    },
    {
      "midi": 55,
      "hit": false,
      "t": 255428.61400000082,
      "d": 428.5714999999909,
      "v": 107
    },
    {
      "midi": 62,
      "hit": false,
      "t": 255428.61400000082,
      "d": 428.5714999999909,
      "v": 112
    },
    {
      "midi": 45,
      "hit": false,
      "t": 255428.61400000082,
      "d": 857.1430000000109,
      "v": 106
    },
    {
      "midi": 52,
      "hit": false,
      "t": 255857.1855000008,
      "d": 428.57150000002,
      "v": 71
    },
    {
      "midi": 57,
      "hit": false,
      "t": 256071.47125000082,
      "d": 214.28575000001,
      "v": 75
    },
    {
      "midi": 57,
      "hit": false,
      "t": 256285.75700000083,
      "d": 214.28575000001,
      "v": 110
    },
    {
      "midi": 59,
      "hit": false,
      "t": 256285.75700000083,
      "d": 214.28575000001,
      "v": 108
    },
    {
      "midi": 60,
      "hit": false,
      "t": 256285.75700000083,
      "d": 214.28575000001,
      "v": 103
    },
    {
      "midi": 45,
      "hit": false,
      "t": 256500.04275000084,
      "d": 214.28575000001,
      "v": 98
    },
    {
      "midi": 57,
      "hit": false,
      "t": 256714.32850000085,
      "d": 214.28575000001,
      "v": 108
    },
    {
      "midi": 38,
      "hit": false,
      "t": 257142.90000000084,
      "d": 214.28575000001,
      "v": 101
    },
    {
      "midi": 57,
      "hit": false,
      "t": 257142.90000000084,
      "d": 214.28575000001,
      "v": 107
    },
    {
      "midi": 62,
      "hit": false,
      "t": 257142.90000000084,
      "d": 214.28575000001,
      "v": 114
    },
    {
      "midi": 50,
      "hit": false,
      "t": 257571.47150000086,
      "d": 214.28575000001,
      "v": 92
    },
    {
      "midi": 57,
      "hit": false,
      "t": 257571.47150000086,
      "d": 214.28575000001,
      "v": 106
    },
    {
      "midi": 62,
      "hit": false,
      "t": 257571.47150000086,
      "d": 214.28575000001,
      "v": 108
    },
    {
      "midi": 53,
      "hit": false,
      "t": 258000.04300000088,
      "d": 214.28575000001,
      "v": 94
    },
    {
      "midi": 57,
      "hit": false,
      "t": 258000.04300000088,
      "d": 214.28575000001,
      "v": 108
    },
    {
      "midi": 64,
      "hit": false,
      "t": 258000.04300000088,
      "d": 214.28575000001,
      "v": 112
    },
    {
      "midi": 57,
      "hit": false,
      "t": 258428.6145000009,
      "d": 214.28575000001,
      "v": 108
    },
    {
      "midi": 65,
      "hit": false,
      "t": 258428.6145000009,
      "d": 214.28575000001,
      "v": 118
    },
    {
      "midi": 57,
      "hit": false,
      "t": 258857.1860000009,
      "d": 642.8572500000009,
      "v": 115
    },
    {
      "midi": 65,
      "hit": false,
      "t": 258857.1860000009,
      "d": 642.8572500000009,
      "v": 122
    },
    {
      "midi": 43,
      "hit": false,
      "t": 258857.1860000009,
      "d": 857.1430000000109,
      "v": 98
    },
    {
      "midi": 50,
      "hit": false,
      "t": 259285.75750000088,
      "d": 214.28575000001,
      "v": 44
    },
    {
      "midi": 55,
      "hit": false,
      "t": 259500.0432500009,
      "d": 214.28575000001,
      "v": 85
    },
    {
      "midi": 57,
      "hit": false,
      "t": 259714.3290000009,
      "d": 214.28575000001,
      "v": 108
    },
    {
      "midi": 64,
      "hit": false,
      "t": 259714.3290000009,
      "d": 214.28575000001,
      "v": 124
    },
    {
      "midi": 43,
      "hit": false,
      "t": 259928.6147500009,
      "d": 214.28575000001,
      "v": 91
    },
    {
      "midi": 57,
      "hit": false,
      "t": 260142.90050000092,
      "d": 214.28575000001,
      "v": 92
    },
    {
      "midi": 55,
      "hit": false,
      "t": 260571.4720000009,
      "d": 428.5714999999909,
      "v": 98
    },
    {
      "midi": 60,
      "hit": false,
      "t": 260571.4720000009,
      "d": 428.5714999999909,
      "v": 104
    },
    {
      "midi": 64,
      "hit": false,
      "t": 260571.4720000009,
      "d": 428.5714999999909,
      "v": 109
    },
    {
      "midi": 36,
      "hit": false,
      "t": 260571.4720000009,
      "d": 2571.4289999999746,
      "v": 94
    },
    {
      "midi": 48,
      "hit": false,
      "t": 261214.3292500009,
      "d": 214.28575000001,
      "v": 19
    },
    {
      "midi": 55,
      "hit": false,
      "t": 261428.61500000092,
      "d": 428.5714999999909,
      "v": 91
    },
    {
      "midi": 60,
      "hit": false,
      "t": 261428.61500000092,
      "d": 428.5714999999909,
      "v": 98
    },
    {
      "midi": 64,
      "hit": false,
      "t": 261428.61500000092,
      "d": 428.5714999999909,
      "v": 96
    },
    {
      "midi": 48,
      "hit": false,
      "t": 262071.47225000092,
      "d": 214.2857499999809,
      "v": 15
    },
    {
      "midi": 55,
      "hit": false,
      "t": 262285.7580000009,
      "d": 428.57150000002,
      "v": 98
    },
    {
      "midi": 60,
      "hit": false,
      "t": 262285.7580000009,
      "d": 428.57150000002,
      "v": 107
    },
    {
      "midi": 64,
      "hit": false,
      "t": 262285.7580000009,
      "d": 428.57150000002,
      "v": 99
    },
    {
      "midi": 48,
      "hit": false,
      "t": 262714.3295000009,
      "d": 428.5714999999618,
      "v": 67
    },
    {
      "midi": 55,
      "hit": false,
      "t": 262928.6152500009,
      "d": 214.2857499999809,
      "v": 91
    },
    {
      "midi": 55,
      "hit": false,
      "t": 263142.9010000009,
      "d": 214.2857499999809,
      "v": 105
    },
    {
      "midi": 64,
      "hit": false,
      "t": 263142.9010000009,
      "d": 214.2857499999809,
      "v": 113
    },
    {
      "midi": 43,
      "hit": false,
      "t": 263357.18675000087,
      "d": 214.2857499999809,
      "v": 107
    },
    {
      "midi": 60,
      "hit": false,
      "t": 263571.47250000085,
      "d": 214.2857499999809,
      "v": 121
    },
    {
      "midi": 57,
      "hit": false,
      "t": 264000.04400000087,
      "d": 428.57150000002,
      "v": 118
    },
    {
      "midi": 60,
      "hit": false,
      "t": 264000.04400000087,
      "d": 428.57150000002,
      "v": 122
    },
    {
      "midi": 65,
      "hit": false,
      "t": 264000.04400000087,
      "d": 428.57150000002,
      "v": 102
    },
    {
      "midi": 36,
      "hit": false,
      "t": 264000.04400000087,
      "d": 2571.428999999829,
      "v": 95
    },
    {
      "midi": 48,
      "hit": false,
      "t": 264428.6155000009,
      "d": 428.5714999999618,
      "v": 71
    },
    {
      "midi": 57,
      "hit": false,
      "t": 264642.90125000087,
      "d": 214.2857499999809,
      "v": 81
    },
    {
      "midi": 57,
      "hit": false,
      "t": 264857.18700000085,
      "d": 214.2857499999809,
      "v": 87
    },
    {
      "midi": 60,
      "hit": false,
      "t": 264857.18700000085,
      "d": 214.2857499999809,
      "v": 103
    },
    {
      "midi": 48,
      "hit": false,
      "t": 265071.47275000083,
      "d": 642.8572499999427,
      "v": 72
    },
    {
      "midi": 57,
      "hit": false,
      "t": 265285.7585000008,
      "d": 214.2857499999809,
      "v": 82
    },
    {
      "midi": 60,
      "hit": false,
      "t": 265500.0442500008,
      "d": 214.2857499999809,
      "v": 85
    },
    {
      "midi": 57,
      "hit": false,
      "t": 265714.3300000008,
      "d": 214.2857499999809,
      "v": 113
    },
    {
      "midi": 60,
      "hit": false,
      "t": 265714.3300000008,
      "d": 428.5714999999618,
      "v": 112
    },
    {
      "midi": 65,
      "hit": false,
      "t": 265714.3300000008,
      "d": 428.5714999999618,
      "v": 102
    },
    {
      "midi": 48,
      "hit": false,
      "t": 266142.90150000073,
      "d": 428.5714999999618,
      "v": 79
    },
    {
      "midi": 56,
      "hit": false,
      "t": 266357.1872500007,
      "d": 214.2857499999809,
      "v": 82
    },
    {
      "midi": 56,
      "hit": false,
      "t": 266571.4730000007,
      "d": 214.2857499999809,
      "v": 113
    },
    {
      "midi": 60,
      "hit": false,
      "t": 266571.4730000007,
      "d": 214.2857499999809,
      "v": 113
    },
    {
      "midi": 65,
      "hit": false,
      "t": 266571.4730000007,
      "d": 214.2857499999809,
      "v": 107
    },
    {
      "midi": 36,
      "hit": false,
      "t": 266785.7587500007,
      "d": 214.2857499999809,
      "v": 94
    },
    {
      "midi": 56,
      "hit": false,
      "t": 267000.04450000066,
      "d": 214.2857499999809,
      "v": 96
    },
    {
      "midi": 60,
      "hit": false,
      "t": 267214.33025000064,
      "d": 214.2857499999809,
      "v": 78
    },
    {
      "midi": 55,
      "hit": false,
      "t": 267428.6160000006,
      "d": 428.57150000002,
      "v": 98
    },
    {
      "midi": 60,
      "hit": false,
      "t": 267428.6160000006,
      "d": 428.57150000002,
      "v": 98
    },
    {
      "midi": 64,
      "hit": false,
      "t": 267428.6160000006,
      "d": 428.57150000002,
      "v": 102
    },
    {
      "midi": 36,
      "hit": false,
      "t": 267428.6160000006,
      "d": 2571.42900000012,
      "v": 98
    },
    {
      "midi": 48,
      "hit": false,
      "t": 267857.18750000064,
      "d": 428.57150000002,
      "v": 58
    },
    {
      "midi": 55,
      "hit": false,
      "t": 268285.75900000066,
      "d": 428.57150000002,
      "v": 84
    },
    {
      "midi": 60,
      "hit": false,
      "t": 268285.75900000066,
      "d": 428.57150000002,
      "v": 91
    },
    {
      "midi": 64,
      "hit": false,
      "t": 268285.75900000066,
      "d": 428.57150000002,
      "v": 87
    },
    {
      "midi": 48,
      "hit": false,
      "t": 268714.3305000007,
      "d": 428.57150000002,
      "v": 49
    },
    {
      "midi": 55,
      "hit": false,
      "t": 269142.9020000007,
      "d": 428.57150000002,
      "v": 83
    },
    {
      "midi": 60,
      "hit": false,
      "t": 269142.9020000007,
      "d": 428.57150000002,
      "v": 91
    },
    {
      "midi": 64,
      "hit": false,
      "t": 269142.9020000007,
      "d": 428.57150000002,
      "v": 82
    },
    {
      "midi": 48,
      "hit": false,
      "t": 269571.4735000007,
      "d": 428.57150000002,
      "v": 43
    },
    {
      "midi": 55,
      "hit": false,
      "t": 270000.04500000074,
      "d": 214.2857499999809,
      "v": 84
    },
    {
      "midi": 60,
      "hit": false,
      "t": 270000.04500000074,
      "d": 214.2857499999809,
      "v": 94
    },
    {
      "midi": 64,
      "hit": false,
      "t": 270000.04500000074,
      "d": 214.2857499999809,
      "v": 90
    },
    {
      "midi": 36,
      "hit": false,
      "t": 270428.6165000007,
      "d": 214.2857499999809,
      "v": 85
    },
    {
      "midi": 36,
      "hit": false,
      "t": 270857.18800000066,
      "d": 642.8572500000009,
      "v": 91
    },
    {
      "midi": 84,
      "hit": false,
      "t": 270857.18800000066,
      "d": 857.1429999999818,
      "v": 57
    },
    {
      "midi": 91,
      "hit": false,
      "t": 270857.18800000066,
      "d": 857.1429999999818,
      "v": 98
    }
  ]
}