{
  "jsonPath": "Animes/Noir MIDI Collection/chloe-2.json",
  "path": "Animes\\Noir MIDI Collection\\Chloe 2.mid",
  "name": "Chloe 2",
  "difficulty": "Intermediate",
  "bpm": 160,
  "notes": [
    {
      "midi": 71,
      "hit": false,
      "t": 0,
      "d": 375,
      "v": 64
    },
    {
      "midi": 66,
      "hit": false,
      "t": 375,
      "d": 375,
      "v": 64
    },
    {
      "midi": 71,
      "hit": false,
      "t": 750,
      "d": 375,
      "v": 64
    },
    {
      "midi": 73,
      "hit": false,
      "t": 1125,
      "d": 375,
      "v": 64
    },
    {
      "midi": 74,
      "hit": false,
      "t": 1500,
      "d": 375,
      "v": 64
    },
    {
      "midi": 76,
      "hit": false,
      "t": 1875,
      "d": 187.5,
      "v": 64
    },
    {
      "midi": 74,
      "hit": false,
      "t": 2062.5,
      "d": 187.5,
      "v": 64
    },
    {
      "midi": 73,
      "hit": false,
      "t": 2250,
      "d": 375,
      "v": 64
    },
    {
      "midi": 69,
      "hit": false,
      "t": 2625,
      "d": 375,
      "v": 64
    },
    {
      "midi": 71,
      "hit": false,
      "t": 3000,
      "d": 187.5,
      "v": 64
    },
    {
      "midi": 73,
      "hit": false,
      "t": 3187.5,
      "d": 187.5,
      "v": 64
    },
    {
      "midi": 74,
      "hit": false,
      "t": 3375,
      "d": 375,
      "v": 64
    },
    {
      "midi": 73,
      "hit": false,
      "t": 3750,
      "d": 375,
      "v": 64
    },
    {
      "midi": 71,
      "hit": false,
      "t": 4125,
      "d": 375,
      "v": 64
    },
    {
      "midi": 69,
      "hit": false,
      "t": 4500,
      "d": 375,
      "v": 64
    },
    {
      "midi": 71,
      "hit": false,
      "t": 4875,
      "d": 375,
      "v": 64
    },
    {
      "midi": 73,
      "hit": false,
      "t": 5250,
      "d": 375,
      "v": 64
    },
    {
      "midi": 74,
      "hit": false,
      "t": 5625,
      "d": 187.5,
      "v": 64
    },
    {
      "midi": 73,
      "hit": false,
      "t": 5812.5,
      "d": 187.5,
      "v": 64
    },
    {
      "midi": 71,
      "hit": false,
      "t": 6000,
      "d": 375,
      "v": 64
    },
    {
      "midi": 66,
      "hit": false,
      "t": 6375,
      "d": 375,
      "v": 64
    },
    {
      "midi": 69,
      "hit": false,
      "t": 6750,
      "d": 375,
      "v": 64
    },
    {
      "midi": 71,
      "hit": false,
      "t": 7125,
      "d": 375,
      "v": 64
    },
    {
      "midi": 73,
      "hit": false,
      "t": 7500,
      "d": 375,
      "v": 64
    },
    {
      "midi": 64,
      "hit": false,
      "t": 7875,
      "d": 375,
      "v": 64
    },
    {
      "midi": 69,
      "hit": false,
      "t": 8250,
      "d": 375,
      "v": 64
    },
    {
      "midi": 71,
      "hit": false,
      "t": 8625,
      "d": 187.5,
      "v": 64
    },
    {
      "midi": 73,
      "hit": false,
      "t": 8812.5,
      "d": 187.5,
      "v": 64
    },
    {
      "midi": 74,
      "hit": false,
      "t": 9000,
      "d": 375,
      "v": 64
    },
    {
      "midi": 73,
      "hit": false,
      "t": 9375,
      "d": 375,
      "v": 64
    },
    {
      "midi": 71,
      "hit": false,
      "t": 9750,
      "d": 375,
      "v": 64
    },
    {
      "midi": 71,
      "hit": false,
      "t": 12000,
      "d": 375,
      "v": 64
    },
    {
      "midi": 66,
      "hit": false,
      "t": 12375,
      "d": 375,
      "v": 64
    },
    {
      "midi": 73,
      "hit": false,
      "t": 12750,
      "d": 375,
      "v": 64
    },
    {
      "midi": 74,
      "hit": false,
      "t": 13125,
      "d": 375,
      "v": 64
    },
    {
      "midi": 76,
      "hit": false,
      "t": 13500,
      "d": 375,
      "v": 64
    },
    {
      "midi": 74,
      "hit": false,
      "t": 14250,
      "d": 375,
      "v": 64
    },
    {
      "midi": 73,
      "hit": false,
      "t": 14625,
      "d": 375,
      "v": 64
    },
    {
      "midi": 71,
      "hit": false,
      "t": 15000,
      "d": 187.5,
      "v": 64
    },
    {
      "midi": 73,
      "hit": false,
      "t": 15187.5,
      "d": 187.5,
      "v": 64
    },
    {
      "midi": 74,
      "hit": false,
      "t": 15375,
      "d": 375,
      "v": 64
    },
    {
      "midi": 73,
      "hit": false,
      "t": 15750,
      "d": 375,
      "v": 64
    },
    {
      "midi": 71,
      "hit": false,
      "t": 16125,
      "d": 375,
      "v": 64
    },
    {
      "midi": 69,
      "hit": false,
      "t": 16500,
      "d": 375,
      "v": 64
    },
    {
      "midi": 73,
      "hit": false,
      "t": 16875,
      "d": 375,
      "v": 64
    },
    {
      "midi": 76,
      "hit": false,
      "t": 17250,
      "d": 375,
      "v": 64
    },
    {
      "midi": 74,
      "hit": false,
      "t": 17625,
      "d": 187.5,
      "v": 64
    },
    {
      "midi": 73,
      "hit": false,
      "t": 17812.5,
      "d": 187.5,
      "v": 64
    },
    {
      "midi": 73,
      "hit": false,
      "t": 18000,
      "d": 187.5,
      "v": 64
    },
    {
      "midi": 74,
      "hit": false,
      "t": 18187.5,
      "d": 187.5,
      "v": 64
    },
    {
      "midi": 78,
      "hit": false,
      "t": 18375,
      "d": 375,
      "v": 64
    },
    {
      "midi": 74,
      "hit": false,
      "t": 18750,
      "d": 375,
      "v": 64
    },
    {
      "midi": 71,
      "hit": false,
      "t": 19125,
      "d": 375,
      "v": 64
    },
    {
      "midi": 73,
      "hit": false,
      "t": 19500,
      "d": 375,
      "v": 64
    },
    {
      "midi": 76,
      "hit": false,
      "t": 20250,
      "d": 375,
      "v": 64
    },
    {
      "midi": 74,
      "hit": false,
      "t": 20625,
      "d": 375,
      "v": 64
    },
    {
      "midi": 73,
      "hit": false,
      "t": 21000,
      "d": 375,
      "v": 64
    },
    {
      "midi": 74,
      "hit": false,
      "t": 21375,
      "d": 375,
      "v": 64
    },
    {
      "midi": 71,
      "hit": false,
      "t": 21750,
      "d": 375,
      "v": 64
    },
    {
      "midi": 71,
      "hit": false,
      "t": 23250,
      "d": 187.5,
      "v": 64
    },
    {
      "midi": 73,
      "hit": false,
      "t": 23437.5,
      "d": 187.5,
      "v": 64
    },
    {
      "midi": 74,
      "hit": false,
      "t": 23625,
      "d": 187.5,
      "v": 64
    },
    {
      "midi": 76,
      "hit": false,
      "t": 23812.5,
      "d": 187.5,
      "v": 64
    },
    {
      "midi": 78,
      "hit": false,
      "t": 24000,
      "d": 375,
      "v": 64
    },
    {
      "midi": 79,
      "hit": false,
      "t": 24750,
      "d": 375,
      "v": 64
    },
    {
      "midi": 78,
      "hit": false,
      "t": 25125,
      "d": 375,
      "v": 64
    },
    {
      "midi": 76,
      "hit": false,
      "t": 25500,
      "d": 375,
      "v": 64
    },
    {
      "midi": 78,
      "hit": false,
      "t": 26250,
      "d": 375,
      "v": 64
    },
    {
      "midi": 76,
      "hit": false,
      "t": 26625,
      "d": 375,
      "v": 64
    },
    {
      "midi": 74,
      "hit": false,
      "t": 27000,
      "d": 375,
      "v": 64
    },
    {
      "midi": 71,
      "hit": false,
      "t": 27375,
      "d": 375,
      "v": 64
    },
    {
      "midi": 73,
      "hit": false,
      "t": 27750,
      "d": 375,
      "v": 64
    },
    {
      "midi": 74,
      "hit": false,
      "t": 28125,
      "d": 187.5,
      "v": 64
    },
    {
      "midi": 76,
      "hit": false,
      "t": 28312.5,
      "d": 187.5,
      "v": 64
    },
    {
      "midi": 78,
      "hit": false,
      "t": 28500,
      "d": 375,
      "v": 64
    },
    {
      "midi": 81,
      "hit": false,
      "t": 29250,
      "d": 375,
      "v": 64
    },
    {
      "midi": 78,
      "hit": false,
      "t": 29625,
      "d": 375,
      "v": 64
    },
    {
      "midi": 79,
      "hit": false,
      "t": 30000,
      "d": 375,
      "v": 64
    },
    {
      "midi": 79,
      "hit": false,
      "t": 30375,
      "d": 187.5,
      "v": 64
    },
    {
      "midi": 78,
      "hit": false,
      "t": 30562.5,
      "d": 187.5,
      "v": 64
    },
    {
      "midi": 76,
      "hit": false,
      "t": 30750,
      "d": 375,
      "v": 64
    },
    {
      "midi": 74,
      "hit": false,
      "t": 31125,
      "d": 375,
      "v": 64
    },
    {
      "midi": 73,
      "hit": false,
      "t": 31500,
      "d": 375,
      "v": 64
    },
    {
      "midi": 76,
      "hit": false,
      "t": 31875,
      "d": 375,
      "v": 64
    },
    {
      "midi": 74,
      "hit": false,
      "t": 32250,
      "d": 375,
      "v": 64
    },
    {
      "midi": 73,
      "hit": false,
      "t": 32625,
      "d": 375,
      "v": 64
    },
    {
      "midi": 74,
      "hit": false,
      "t": 33000,
      "d": 375,
      "v": 64
    },
    {
      "midi": 71,
      "hit": false,
      "t": 33375,
      "d": 375,
      "v": 64
    },
    {
      "midi": 78,
      "hit": false,
      "t": 33750,
      "d": 375,
      "v": 64
    },
    {
      "midi": 71,
      "hit": false,
      "t": 35250,
      "d": 375,
      "v": 64
    },
    {
      "midi": 73,
      "hit": false,
      "t": 35625,
      "d": 375,
      "v": 64
    },
    {
      "midi": 74,
      "hit": false,
      "t": 36000,
      "d": 375,
      "v": 64
    },
    {
      "midi": 78,
      "hit": false,
      "t": 36750,
      "d": 375,
      "v": 64
    },
    {
      "midi": 81,
      "hit": false,
      "t": 37125,
      "d": 375,
      "v": 64
    },
    {
      "midi": 81,
      "hit": false,
      "t": 37500,
      "d": 375,
      "v": 64
    },
    {
      "midi": 79,
      "hit": false,
      "t": 38250,
      "d": 375,
      "v": 64
    },
    {
      "midi": 78,
      "hit": false,
      "t": 38625,
      "d": 375,
      "v": 64
    },
    {
      "midi": 78,
      "hit": false,
      "t": 39000,
      "d": 375,
      "v": 64
    },
    {
      "midi": 79,
      "hit": false,
      "t": 39375,
      "d": 187.5,
      "v": 64
    },
    {
      "midi": 78,
      "hit": false,
      "t": 39562.5,
      "d": 187.5,
      "v": 64
    },
    {
      "midi": 76,
      "hit": false,
      "t": 39750,
      "d": 375,
      "v": 64
    },
    {
      "midi": 73,
      "hit": false,
      "t": 40125,
      "d": 375,
      "v": 64
    },
    {
      "midi": 74,
      "hit": false,
      "t": 40500,
      "d": 375,
      "v": 64
    },
    {
      "midi": 76,
      "hit": false,
      "t": 40875,
      "d": 375,
      "v": 64
    },
    {
      "midi": 79,
      "hit": false,
      "t": 41250,
      "d": 375,
      "v": 64
    },
    {
      "midi": 78,
      "hit": false,
      "t": 41625,
      "d": 375,
      "v": 64
    },
    {
      "midi": 78,
      "hit": false,
      "t": 42000,
      "d": 375,
      "v": 64
    },
    {
      "midi": 71,
      "hit": false,
      "t": 42375,
      "d": 375,
      "v": 64
    },
    {
      "midi": 74,
      "hit": false,
      "t": 42750,
      "d": 375,
      "v": 64
    },
    {
      "midi": 78,
      "hit": false,
      "t": 43125,
      "d": 375,
      "v": 64
    },
    {
      "midi": 76,
      "hit": false,
      "t": 43500,
      "d": 375,
      "v": 64
    },
    {
      "midi": 74,
      "hit": false,
      "t": 43875,
      "d": 375,
      "v": 64
    },
    {
      "midi": 73,
      "hit": false,
      "t": 44250,
      "d": 375,
      "v": 64
    },
    {
      "midi": 69,
      "hit": false,
      "t": 44625,
      "d": 375,
      "v": 64
    },
    {
      "midi": 73,
      "hit": false,
      "t": 45000,
      "d": 375,
      "v": 64
    },
    {
      "midi": 74,
      "hit": false,
      "t": 45375,
      "d": 375,
      "v": 64
    },
    {
      "midi": 71,
      "hit": false,
      "t": 45750,
      "d": 375,
      "v": 64
    },
    {
      "midi": 71,
      "hit": false,
      "t": 48000,
      "d": 375,
      "v": 64
    },
    {
      "midi": 47,
      "hit": false,
      "t": 48000,
      "d": 4500,
      "v": 64
    },
    {
      "midi": 66,
      "hit": false,
      "t": 48375,
      "d": 375,
      "v": 64
    },
    {
      "midi": 71,
      "hit": false,
      "t": 48750,
      "d": 375,
      "v": 64
    },
    {
      "midi": 73,
      "hit": false,
      "t": 49125,
      "d": 375,
      "v": 64
    },
    {
      "midi": 74,
      "hit": false,
      "t": 49500,
      "d": 375,
      "v": 64
    },
    {
      "midi": 76,
      "hit": false,
      "t": 49875,
      "d": 187.5,
      "v": 64
    },
    {
      "midi": 74,
      "hit": false,
      "t": 50062.5,
      "d": 187.5,
      "v": 64
    },
    {
      "midi": 73,
      "hit": false,
      "t": 50250,
      "d": 375,
      "v": 64
    },
    {
      "midi": 69,
      "hit": false,
      "t": 50625,
      "d": 375,
      "v": 64
    },
    {
      "midi": 71,
      "hit": false,
      "t": 51000,
      "d": 187.5,
      "v": 64
    },
    {
      "midi": 73,
      "hit": false,
      "t": 51187.5,
      "d": 187.5,
      "v": 64
    },
    {
      "midi": 74,
      "hit": false,
      "t": 51375,
      "d": 375,
      "v": 64
    },
    {
      "midi": 73,
      "hit": false,
      "t": 51750,
      "d": 375,
      "v": 64
    },
    {
      "midi": 71,
      "hit": false,
      "t": 52125,
      "d": 375,
      "v": 64
    },
    {
      "midi": 69,
      "hit": false,
      "t": 52500,
      "d": 375,
      "v": 64
    },
    {
      "midi": 71,
      "hit": false,
      "t": 52875,
      "d": 375,
      "v": 64
    },
    {
      "midi": 73,
      "hit": false,
      "t": 53250,
      "d": 375,
      "v": 64
    },
    {
      "midi": 74,
      "hit": false,
      "t": 53625,
      "d": 187.5,
      "v": 64
    },
    {
      "midi": 73,
      "hit": false,
      "t": 53812.5,
      "d": 187.5,
      "v": 64
    },
    {
      "midi": 71,
      "hit": false,
      "t": 54000,
      "d": 375,
      "v": 64
    },
    {
      "midi": 43,
      "hit": false,
      "t": 54000,
      "d": 1500,
      "v": 64
    },
    {
      "midi": 66,
      "hit": false,
      "t": 54375,
      "d": 375,
      "v": 64
    },
    {
      "midi": 69,
      "hit": false,
      "t": 54750,
      "d": 375,
      "v": 64
    },
    {
      "midi": 71,
      "hit": false,
      "t": 55125,
      "d": 375,
      "v": 64
    },
    {
      "midi": 73,
      "hit": false,
      "t": 55500,
      "d": 375,
      "v": 64
    },
    {
      "midi": 45,
      "hit": false,
      "t": 55500,
      "d": 1500,
      "v": 64
    },
    {
      "midi": 64,
      "hit": false,
      "t": 55875,
      "d": 375,
      "v": 64
    },
    {
      "midi": 69,
      "hit": false,
      "t": 56250,
      "d": 375,
      "v": 64
    },
    {
      "midi": 71,
      "hit": false,
      "t": 56625,
      "d": 187.5,
      "v": 64
    },
    {
      "midi": 73,
      "hit": false,
      "t": 56812.5,
      "d": 187.5,
      "v": 64
    },
    {
      "midi": 74,
      "hit": false,
      "t": 57000,
      "d": 375,
      "v": 64
    },
    {
      "midi": 47,
      "hit": false,
      "t": 57000,
      "d": 1500,
      "v": 64
    },
    {
      "midi": 73,
      "hit": false,
      "t": 57375,
      "d": 375,
      "v": 64
    },
    {
      "midi": 71,
      "hit": false,
      "t": 57750,
      "d": 375,
      "v": 64
    },
    {
      "midi": 71,
      "hit": false,
      "t": 60000,
      "d": 375,
      "v": 64
    },
    {
      "midi": 47,
      "hit": false,
      "t": 60000,
      "d": 1500,
      "v": 64
    },
    {
      "midi": 66,
      "hit": false,
      "t": 60375,
      "d": 375,
      "v": 64
    },
    {
      "midi": 73,
      "hit": false,
      "t": 60750,
      "d": 375,
      "v": 64
    },
    {
      "midi": 74,
      "hit": false,
      "t": 61125,
      "d": 375,
      "v": 64
    },
    {
      "midi": 76,
      "hit": false,
      "t": 61500,
      "d": 375,
      "v": 64
    },
    {
      "midi": 52,
      "hit": false,
      "t": 61500,
      "d": 1500,
      "v": 64
    },
    {
      "midi": 74,
      "hit": false,
      "t": 62250,
      "d": 375,
      "v": 64
    },
    {
      "midi": 73,
      "hit": false,
      "t": 62625,
      "d": 375,
      "v": 64
    },
    {
      "midi": 71,
      "hit": false,
      "t": 63000,
      "d": 187.5,
      "v": 64
    },
    {
      "midi": 54,
      "hit": false,
      "t": 63000,
      "d": 3000,
      "v": 64
    },
    {
      "midi": 73,
      "hit": false,
      "t": 63187.5,
      "d": 187.5,
      "v": 64
    },
    {
      "midi": 74,
      "hit": false,
      "t": 63375,
      "d": 375,
      "v": 64
    },
    {
      "midi": 73,
      "hit": false,
      "t": 63750,
      "d": 375,
      "v": 64
    },
    {
      "midi": 71,
      "hit": false,
      "t": 64125,
      "d": 375,
      "v": 64
    },
    {
      "midi": 69,
      "hit": false,
      "t": 64500,
      "d": 375,
      "v": 64
    },
    {
      "midi": 73,
      "hit": false,
      "t": 64875,
      "d": 375,
      "v": 64
    },
    {
      "midi": 76,
      "hit": false,
      "t": 65250,
      "d": 375,
      "v": 64
    },
    {
      "midi": 74,
      "hit": false,
      "t": 65625,
      "d": 187.5,
      "v": 64
    },
    {
      "midi": 73,
      "hit": false,
      "t": 65812.5,
      "d": 187.5,
      "v": 64
    },
    {
      "midi": 73,
      "hit": false,
      "t": 66000,
      "d": 187.5,
      "v": 64
    },
    {
      "midi": 43,
      "hit": false,
      "t": 66000,
      "d": 1500,
      "v": 64
    },
    {
      "midi": 74,
      "hit": false,
      "t": 66187.5,
      "d": 187.5,
      "v": 64
    },
    {
      "midi": 78,
      "hit": false,
      "t": 66375,
      "d": 375,
      "v": 64
    },
    {
      "midi": 74,
      "hit": false,
      "t": 66750,
      "d": 375,
      "v": 64
    },
    {
      "midi": 71,
      "hit": false,
      "t": 67125,
      "d": 375,
      "v": 64
    },
    {
      "midi": 73,
      "hit": false,
      "t": 67500,
      "d": 375,
      "v": 64
    },
    {
      "midi": 45,
      "hit": false,
      "t": 67500,
      "d": 1500,
      "v": 64
    },
    {
      "midi": 76,
      "hit": false,
      "t": 68250,
      "d": 375,
      "v": 64
    },
    {
      "midi": 74,
      "hit": false,
      "t": 68625,
      "d": 375,
      "v": 64
    },
    {
      "midi": 73,
      "hit": false,
      "t": 69000,
      "d": 375,
      "v": 64
    },
    {
      "midi": 47,
      "hit": false,
      "t": 69000,
      "d": 3000,
      "v": 64
    },
    {
      "midi": 74,
      "hit": false,
      "t": 69375,
      "d": 375,
      "v": 64
    },
    {
      "midi": 71,
      "hit": false,
      "t": 69750,
      "d": 375,
      "v": 64
    },
    {
      "midi": 71,
      "hit": false,
      "t": 71250,
      "d": 187.5,
      "v": 64
    },
    {
      "midi": 73,
      "hit": false,
      "t": 71437.5,
      "d": 187.5,
      "v": 64
    },
    {
      "midi": 74,
      "hit": false,
      "t": 71625,
      "d": 187.5,
      "v": 64
    },
    {
      "midi": 76,
      "hit": false,
      "t": 71812.5,
      "d": 187.5,
      "v": 64
    },
    {
      "midi": 78,
      "hit": false,
      "t": 72000,
      "d": 375,
      "v": 64
    },
    {
      "midi": 50,
      "hit": false,
      "t": 72000,
      "d": 1500,
      "v": 64
    },
    {
      "midi": 79,
      "hit": false,
      "t": 72750,
      "d": 375,
      "v": 64
    },
    {
      "midi": 78,
      "hit": false,
      "t": 73125,
      "d": 375,
      "v": 64
    },
    {
      "midi": 76,
      "hit": false,
      "t": 73500,
      "d": 375,
      "v": 64
    },
    {
      "midi": 45,
      "hit": false,
      "t": 73500,
      "d": 1500,
      "v": 64
    },
    {
      "midi": 78,
      "hit": false,
      "t": 74250,
      "d": 375,
      "v": 64
    },
    {
      "midi": 76,
      "hit": false,
      "t": 74625,
      "d": 375,
      "v": 64
    },
    {
      "midi": 74,
      "hit": false,
      "t": 75000,
      "d": 375,
      "v": 64
    },
    {
      "midi": 43,
      "hit": false,
      "t": 75000,
      "d": 750,
      "v": 64
    },
    {
      "midi": 71,
      "hit": false,
      "t": 75375,
      "d": 375,
      "v": 64
    },
    {
      "midi": 73,
      "hit": false,
      "t": 75750,
      "d": 375,
      "v": 64
    },
    {
      "midi": 45,
      "hit": false,
      "t": 75750,
      "d": 750,
      "v": 64
    },
    {
      "midi": 74,
      "hit": false,
      "t": 76125,
      "d": 187.5,
      "v": 64
    },
    {
      "midi": 76,
      "hit": false,
      "t": 76312.5,
      "d": 187.5,
      "v": 64
    },
    {
      "midi": 78,
      "hit": false,
      "t": 76500,
      "d": 375,
      "v": 64
    },
    {
      "midi": 50,
      "hit": false,
      "t": 76500,
      "d": 1500,
      "v": 64
    },
    {
      "midi": 81,
      "hit": false,
      "t": 77250,
      "d": 375,
      "v": 64
    },
    {
      "midi": 78,
      "hit": false,
      "t": 77625,
      "d": 375,
      "v": 64
    },
    {
      "midi": 79,
      "hit": false,
      "t": 78000,
      "d": 375,
      "v": 64
    },
    {
      "midi": 43,
      "hit": false,
      "t": 78000,
      "d": 1500,
      "v": 64
    },
    {
      "midi": 79,
      "hit": false,
      "t": 78375,
      "d": 187.5,
      "v": 64
    },
    {
      "midi": 78,
      "hit": false,
      "t": 78562.5,
      "d": 187.5,
      "v": 64
    },
    {
      "midi": 76,
      "hit": false,
      "t": 78750,
      "d": 375,
      "v": 64
    },
    {
      "midi": 74,
      "hit": false,
      "t": 79125,
      "d": 375,
      "v": 64
    },
    {
      "midi": 73,
      "hit": false,
      "t": 79500,
      "d": 375,
      "v": 64
    },
    {
      "midi": 42,
      "hit": false,
      "t": 79500,
      "d": 1500,
      "v": 64
    },
    {
      "midi": 76,
      "hit": false,
      "t": 79875,
      "d": 375,
      "v": 64
    },
    {
      "midi": 74,
      "hit": false,
      "t": 80250,
      "d": 375,
      "v": 64
    },
    {
      "midi": 73,
      "hit": false,
      "t": 80625,
      "d": 375,
      "v": 64
    },
    {
      "midi": 74,
      "hit": false,
      "t": 81000,
      "d": 375,
      "v": 64
    },
    {
      "midi": 47,
      "hit": false,
      "t": 81000,
      "d": 3000,
      "v": 64
    },
    {
      "midi": 71,
      "hit": false,
      "t": 81375,
      "d": 375,
      "v": 64
    },
    {
      "midi": 78,
      "hit": false,
      "t": 81750,
      "d": 375,
      "v": 64
    },
    {
      "midi": 59,
      "hit": false,
      "t": 82125,
      "d": 187.5,
      "v": 64
    },
    {
      "midi": 61,
      "hit": false,
      "t": 82312.5,
      "d": 187.5,
      "v": 64
    },
    {
      "midi": 62,
      "hit": false,
      "t": 82500,
      "d": 187.5,
      "v": 64
    },
    {
      "midi": 71,
      "hit": false,
      "t": 83250,
      "d": 375,
      "v": 64
    },
    {
      "midi": 73,
      "hit": false,
      "t": 83625,
      "d": 375,
      "v": 64
    },
    {
      "midi": 74,
      "hit": false,
      "t": 84000,
      "d": 375,
      "v": 64
    },
    {
      "midi": 50,
      "hit": false,
      "t": 84000,
      "d": 1500,
      "v": 64
    },
    {
      "midi": 78,
      "hit": false,
      "t": 84750,
      "d": 375,
      "v": 64
    },
    {
      "midi": 81,
      "hit": false,
      "t": 85125,
      "d": 375,
      "v": 64
    },
    {
      "midi": 81,
      "hit": false,
      "t": 85500,
      "d": 375,
      "v": 64
    },
    {
      "midi": 45,
      "hit": false,
      "t": 85500,
      "d": 1500,
      "v": 64
    },
    {
      "midi": 79,
      "hit": false,
      "t": 86250,
      "d": 375,
      "v": 64
    },
    {
      "midi": 78,
      "hit": false,
      "t": 86625,
      "d": 375,
      "v": 64
    },
    {
      "midi": 78,
      "hit": false,
      "t": 87000,
      "d": 375,
      "v": 64
    },
    {
      "midi": 43,
      "hit": false,
      "t": 87000,
      "d": 750,
      "v": 64
    },
    {
      "midi": 79,
      "hit": false,
      "t": 87375,
      "d": 187.5,
      "v": 64
    },
    {
      "midi": 78,
      "hit": false,
      "t": 87562.5,
      "d": 187.5,
      "v": 64
    },
    {
      "midi": 76,
      "hit": false,
      "t": 87750,
      "d": 375,
      "v": 64
    },
    {
      "midi": 45,
      "hit": false,
      "t": 87750,
      "d": 750,
      "v": 64
    },
    {
      "midi": 73,
      "hit": false,
      "t": 88125,
      "d": 375,
      "v": 64
    },
    {
      "midi": 74,
      "hit": false,
      "t": 88500,
      "d": 375,
      "v": 64
    },
    {
      "midi": 50,
      "hit": false,
      "t": 88500,
      "d": 1500,
      "v": 64
    },
    {
      "midi": 76,
      "hit": false,
      "t": 88875,
      "d": 375,
      "v": 64
    },
    {
      "midi": 79,
      "hit": false,
      "t": 89250,
      "d": 375,
      "v": 64
    },
    {
      "midi": 78,
      "hit": false,
      "t": 89625,
      "d": 375,
      "v": 64
    },
    {
      "midi": 78,
      "hit": false,
      "t": 90000,
      "d": 375,
      "v": 64
    },
    {
      "midi": 43,
      "hit": false,
      "t": 90000,
      "d": 1500,
      "v": 64
    },
    {
      "midi": 71,
      "hit": false,
      "t": 90375,
      "d": 375,
      "v": 64
    },
    {
      "midi": 74,
      "hit": false,
      "t": 90750,
      "d": 375,
      "v": 64
    },
    {
      "midi": 78,
      "hit": false,
      "t": 91125,
      "d": 375,
      "v": 64
    },
    {
      "midi": 76,
      "hit": false,
      "t": 91500,
      "d": 375,
      "v": 64
    },
    {
      "midi": 42,
      "hit": false,
      "t": 91500,
      "d": 1500,
      "v": 64
    },
    {
      "midi": 74,
      "hit": false,
      "t": 91875,
      "d": 375,
      "v": 64
    },
    {
      "midi": 73,
      "hit": false,
      "t": 92250,
      "d": 375,
      "v": 64
    },
    {
      "midi": 69,
      "hit": false,
      "t": 92625,
      "d": 375,
      "v": 64
    },
    {
      "midi": 73,
      "hit": false,
      "t": 93000,
      "d": 375,
      "v": 64
    },
    {
      "midi": 47,
      "hit": false,
      "t": 93000,
      "d": 3000,
      "v": 64
    },
    {
      "midi": 74,
      "hit": false,
      "t": 93375,
      "d": 375,
      "v": 64
    },
    {
      "midi": 71,
      "hit": false,
      "t": 93750,
      "d": 375,
      "v": 64
    }
  ]
}