{
  "jsonPath": "Animes/Noir MIDI Collection/sorrow.json",
  "path": "Animes\\Noir MIDI Collection\\Sorrow.mid",
  "name": "Sorrow",
  "difficulty": "Beginner",
  "bpm": 96,
  "notes": [
    {
      "midi": 40,
      "hit": false,
      "t": 1250,
      "d": 625,
      "v": 64
    },
    {
      "midi": 45,
      "hit": false,
      "t": 1875,
      "d": 625,
      "v": 64
    },
    {
      "midi": 48,
      "hit": false,
      "t": 2500,
      "d": 625,
      "v": 64
    },
    {
      "midi": 52,
      "hit": false,
      "t": 3125,
      "d": 625,
      "v": 64
    },
    {
      "midi": 53,
      "hit": false,
      "t": 3750,
      "d": 625,
      "v": 64
    },
    {
      "midi": 52,
      "hit": false,
      "t": 4375,
      "d": 625,
      "v": 64
    },
    {
      "midi": 50,
      "hit": false,
      "t": 5000,
      "d": 312.5,
      "v": 64
    },
    {
      "midi": 48,
      "hit": false,
      "t": 5312.5,
      "d": 312.5,
      "v": 64
    },
    {
      "midi": 47,
      "hit": false,
      "t": 5625,
      "d": 3125,
      "v": 64
    },
    {
      "midi": 40,
      "hit": false,
      "t": 8750,
      "d": 625,
      "v": 64
    },
    {
      "midi": 44,
      "hit": false,
      "t": 9375,
      "d": 625,
      "v": 64
    },
    {
      "midi": 47,
      "hit": false,
      "t": 10000,
      "d": 625,
      "v": 64
    },
    {
      "midi": 50,
      "hit": false,
      "t": 10625,
      "d": 625,
      "v": 64
    },
    {
      "midi": 52,
      "hit": false,
      "t": 11250,
      "d": 1250,
      "v": 64
    },
    {
      "midi": 53,
      "hit": false,
      "t": 12500,
      "d": 625,
      "v": 64
    },
    {
      "midi": 52,
      "hit": false,
      "t": 13125,
      "d": 3125,
      "v": 64
    },
    {
      "midi": 40,
      "hit": false,
      "t": 16250,
      "d": 625,
      "v": 64
    },
    {
      "midi": 45,
      "hit": false,
      "t": 16875,
      "d": 625,
      "v": 64
    },
    {
      "midi": 48,
      "hit": false,
      "t": 17500,
      "d": 625,
      "v": 64
    },
    {
      "midi": 52,
      "hit": false,
      "t": 18125,
      "d": 625,
      "v": 64
    },
    {
      "midi": 53,
      "hit": false,
      "t": 18750,
      "d": 625,
      "v": 64
    },
    {
      "midi": 52,
      "hit": false,
      "t": 19375,
      "d": 625,
      "v": 64
    },
    {
      "midi": 50,
      "hit": false,
      "t": 20000,
      "d": 312.5,
      "v": 64
    },
    {
      "midi": 48,
      "hit": false,
      "t": 20312.5,
      "d": 312.5,
      "v": 64
    },
    {
      "midi": 47,
      "hit": false,
      "t": 20625,
      "d": 3125,
      "v": 64
    },
    {
      "midi": 47,
      "hit": false,
      "t": 23750,
      "d": 625,
      "v": 64
    },
    {
      "midi": 48,
      "hit": false,
      "t": 24375,
      "d": 625,
      "v": 64
    },
    {
      "midi": 50,
      "hit": false,
      "t": 25000,
      "d": 625,
      "v": 64
    },
    {
      "midi": 53,
      "hit": false,
      "t": 25625,
      "d": 625,
      "v": 64
    },
    {
      "midi": 52,
      "hit": false,
      "t": 26250,
      "d": 1250,
      "v": 64
    },
    {
      "midi": 51,
      "hit": false,
      "t": 27500,
      "d": 625,
      "v": 64
    },
    {
      "midi": 52,
      "hit": false,
      "t": 28125,
      "d": 3750,
      "v": 64
    },
    {
      "midi": 50,
      "hit": false,
      "t": 31875,
      "d": 1250,
      "v": 64
    },
    {
      "midi": 52,
      "hit": false,
      "t": 33125,
      "d": 625,
      "v": 64
    },
    {
      "midi": 53,
      "hit": false,
      "t": 33750,
      "d": 625,
      "v": 64
    },
    {
      "midi": 57,
      "hit": false,
      "t": 34375,
      "d": 625,
      "v": 64
    },
    {
      "midi": 56,
      "hit": false,
      "t": 35000,
      "d": 625,
      "v": 64
    },
    {
      "midi": 53,
      "hit": false,
      "t": 35625,
      "d": 1250,
      "v": 64
    },
    {
      "midi": 52,
      "hit": false,
      "t": 36875,
      "d": 312.5,
      "v": 64
    },
    {
      "midi": 51,
      "hit": false,
      "t": 37187.5,
      "d": 312.5,
      "v": 64
    },
    {
      "midi": 52,
      "hit": false,
      "t": 37500,
      "d": 3750,
      "v": 64
    },
    {
      "midi": 50,
      "hit": false,
      "t": 41250,
      "d": 625,
      "v": 64
    },
    {
      "midi": 48,
      "hit": false,
      "t": 41875,
      "d": 625,
      "v": 64
    },
    {
      "midi": 50,
      "hit": false,
      "t": 42500,
      "d": 625,
      "v": 64
    },
    {
      "midi": 47,
      "hit": false,
      "t": 43125,
      "d": 625,
      "v": 64
    },
    {
      "midi": 48,
      "hit": false,
      "t": 43750,
      "d": 625,
      "v": 64
    },
    {
      "midi": 50,
      "hit": false,
      "t": 44375,
      "d": 625,
      "v": 64
    },
    {
      "midi": 52,
      "hit": false,
      "t": 45000,
      "d": 3750,
      "v": 64
    },
    {
      "midi": 40,
      "hit": false,
      "t": 50000,
      "d": 625,
      "v": 64
    },
    {
      "midi": 45,
      "hit": false,
      "t": 50625,
      "d": 625,
      "v": 64
    },
    {
      "midi": 48,
      "hit": false,
      "t": 51250,
      "d": 625,
      "v": 64
    },
    {
      "midi": 52,
      "hit": false,
      "t": 51875,
      "d": 625,
      "v": 64
    },
    {
      "midi": 53,
      "hit": false,
      "t": 52500,
      "d": 625,
      "v": 64
    },
    {
      "midi": 52,
      "hit": false,
      "t": 53125,
      "d": 625,
      "v": 64
    },
    {
      "midi": 50,
      "hit": false,
      "t": 53750,
      "d": 312.5,
      "v": 64
    },
    {
      "midi": 48,
      "hit": false,
      "t": 54062.5,
      "d": 312.5,
      "v": 64
    },
    {
      "midi": 47,
      "hit": false,
      "t": 54375,
      "d": 3125,
      "v": 64
    },
    {
      "midi": 47,
      "hit": false,
      "t": 57500,
      "d": 625,
      "v": 64
    },
    {
      "midi": 47,
      "hit": false,
      "t": 58125,
      "d": 625,
      "v": 64
    },
    {
      "midi": 48,
      "hit": false,
      "t": 58750,
      "d": 625,
      "v": 64
    },
    {
      "midi": 47,
      "hit": false,
      "t": 59375,
      "d": 625,
      "v": 64
    },
    {
      "midi": 50,
      "hit": false,
      "t": 60000,
      "d": 625,
      "v": 64
    },
    {
      "midi": 48,
      "hit": false,
      "t": 60625,
      "d": 937.5,
      "v": 64
    },
    {
      "midi": 47,
      "hit": false,
      "t": 61562.5,
      "d": 312.5,
      "v": 64
    },
    {
      "midi": 45,
      "hit": false,
      "t": 61875,
      "d": 3750,
      "v": 64
    },
    {
      "midi": 40,
      "hit": false,
      "t": 66875,
      "d": 625,
      "v": 64
    },
    {
      "midi": 45,
      "hit": false,
      "t": 67500,
      "d": 625,
      "v": 64
    },
    {
      "midi": 48,
      "hit": false,
      "t": 68125,
      "d": 625,
      "v": 64
    },
    {
      "midi": 52,
      "hit": false,
      "t": 68750,
      "d": 625,
      "v": 64
    },
    {
      "midi": 53,
      "hit": false,
      "t": 69375,
      "d": 625,
      "v": 64
    },
    {
      "midi": 52,
      "hit": false,
      "t": 70000,
      "d": 625,
      "v": 64
    },
    {
      "midi": 50,
      "hit": false,
      "t": 70625,
      "d": 312.5,
      "v": 64
    },
    {
      "midi": 48,
      "hit": false,
      "t": 70937.5,
      "d": 312.5,
      "v": 64
    },
    {
      "midi": 47,
      "hit": false,
      "t": 71250,
      "d": 3125,
      "v": 64
    },
    {
      "midi": 40,
      "hit": false,
      "t": 74375,
      "d": 625,
      "v": 64
    },
    {
      "midi": 44,
      "hit": false,
      "t": 75000,
      "d": 625,
      "v": 64
    },
    {
      "midi": 47,
      "hit": false,
      "t": 75625,
      "d": 625,
      "v": 64
    },
    {
      "midi": 50,
      "hit": false,
      "t": 76250,
      "d": 625,
      "v": 64
    },
    {
      "midi": 52,
      "hit": false,
      "t": 76875,
      "d": 1250,
      "v": 64
    },
    {
      "midi": 53,
      "hit": false,
      "t": 78125,
      "d": 625,
      "v": 64
    },
    {
      "midi": 52,
      "hit": false,
      "t": 78750,
      "d": 3125,
      "v": 64
    },
    {
      "midi": 40,
      "hit": false,
      "t": 81875,
      "d": 625,
      "v": 64
    },
    {
      "midi": 45,
      "hit": false,
      "t": 82500,
      "d": 625,
      "v": 64
    },
    {
      "midi": 48,
      "hit": false,
      "t": 83125,
      "d": 625,
      "v": 64
    },
    {
      "midi": 52,
      "hit": false,
      "t": 83750,
      "d": 625,
      "v": 64
    },
    {
      "midi": 53,
      "hit": false,
      "t": 84375,
      "d": 625,
      "v": 64
    },
    {
      "midi": 52,
      "hit": false,
      "t": 85000,
      "d": 625,
      "v": 64
    },
    {
      "midi": 50,
      "hit": false,
      "t": 85625,
      "d": 312.5,
      "v": 64
    },
    {
      "midi": 48,
      "hit": false,
      "t": 85937.5,
      "d": 312.5,
      "v": 64
    },
    {
      "midi": 47,
      "hit": false,
      "t": 86250,
      "d": 3125,
      "v": 64
    },
    {
      "midi": 47,
      "hit": false,
      "t": 89375,
      "d": 625,
      "v": 64
    },
    {
      "midi": 48,
      "hit": false,
      "t": 90000,
      "d": 625,
      "v": 64
    },
    {
      "midi": 50,
      "hit": false,
      "t": 90625,
      "d": 625,
      "v": 64
    },
    {
      "midi": 53,
      "hit": false,
      "t": 91250,
      "d": 625,
      "v": 64
    },
    {
      "midi": 52,
      "hit": false,
      "t": 91875,
      "d": 1250,
      "v": 64
    },
    {
      "midi": 51,
      "hit": false,
      "t": 93125,
      "d": 625,
      "v": 64
    },
    {
      "midi": 52,
      "hit": false,
      "t": 93750,
      "d": 3750,
      "v": 64
    },
    {
      "midi": 50,
      "hit": false,
      "t": 97500,
      "d": 1250,
      "v": 64
    },
    {
      "midi": 52,
      "hit": false,
      "t": 98750,
      "d": 625,
      "v": 64
    },
    {
      "midi": 53,
      "hit": false,
      "t": 99375,
      "d": 625,
      "v": 64
    },
    {
      "midi": 57,
      "hit": false,
      "t": 100000,
      "d": 625,
      "v": 64
    },
    {
      "midi": 56,
      "hit": false,
      "t": 100625,
      "d": 625,
      "v": 64
    },
    {
      "midi": 53,
      "hit": false,
      "t": 101250,
      "d": 1250,
      "v": 64
    },
    {
      "midi": 52,
      "hit": false,
      "t": 102500,
      "d": 312.5,
      "v": 64
    },
    {
      "midi": 51,
      "hit": false,
      "t": 102812.5,
      "d": 312.5,
      "v": 64
    },
    {
      "midi": 52,
      "hit": false,
      "t": 103125,
      "d": 3750,
      "v": 64
    },
    {
      "midi": 50,
      "hit": false,
      "t": 106875,
      "d": 625,
      "v": 64
    },
    {
      "midi": 48,
      "hit": false,
      "t": 107500,
      "d": 625,
      "v": 64
    },
    {
      "midi": 50,
      "hit": false,
      "t": 108125,
      "d": 625,
      "v": 64
    },
    {
      "midi": 47,
      "hit": false,
      "t": 108750,
      "d": 625,
      "v": 64
    },
    {
      "midi": 48,
      "hit": false,
      "t": 109375,
      "d": 625,
      "v": 64
    },
    {
      "midi": 50,
      "hit": false,
      "t": 110000,
      "d": 625,
      "v": 64
    },
    {
      "midi": 52,
      "hit": false,
      "t": 110625,
      "d": 3750,
      "v": 64
    },
    {
      "midi": 40,
      "hit": false,
      "t": 115625,
      "d": 625,
      "v": 64
    },
    {
      "midi": 45,
      "hit": false,
      "t": 116250,
      "d": 625,
      "v": 64
    },
    {
      "midi": 48,
      "hit": false,
      "t": 116875,
      "d": 625,
      "v": 64
    },
    {
      "midi": 52,
      "hit": false,
      "t": 117500,
      "d": 625,
      "v": 64
    },
    {
      "midi": 53,
      "hit": false,
      "t": 118125,
      "d": 625,
      "v": 64
    },
    {
      "midi": 52,
      "hit": false,
      "t": 118750,
      "d": 625,
      "v": 64
    },
    {
      "midi": 50,
      "hit": false,
      "t": 119375,
      "d": 312.5,
      "v": 64
    },
    {
      "midi": 48,
      "hit": false,
      "t": 119687.5,
      "d": 312.5,
      "v": 64
    },
    {
      "midi": 47,
      "hit": false,
      "t": 120000,
      "d": 3125,
      "v": 64
    },
    {
      "midi": 47,
      "hit": false,
      "t": 123125,
      "d": 625,
      "v": 64
    },
    {
      "midi": 45,
      "hit": false,
      "t": 123750,
      "d": 625,
      "v": 64
    },
    {
      "midi": 47,
      "hit": false,
      "t": 124375,
      "d": 625,
      "v": 64
    },
    {
      "midi": 43,
      "hit": false,
      "t": 125000,
      "d": 625,
      "v": 64
    },
    {
      "midi": 45,
      "hit": false,
      "t": 125625,
      "d": 625,
      "v": 64
    },
    {
      "midi": 47,
      "hit": false,
      "t": 126250,
      "d": 1250,
      "v": 64
    },
    {
      "midi": 45,
      "hit": false,
      "t": 127500,
      "d": 3750,
      "v": 64
    }
  ]
}