{
  "jsonPath": "Soundtracks/Classic Soundtrack/Max Steiner/taras-theme.json",
  "path": "Soundtracks\\Classic Soundtrack\\Max Steiner\\Taras Theme.mid",
  "name": "Taras Theme",
  "difficulty": "Advanced",
  "bpm": 100,
  "notes": [
    {
      "midi": 41,
      "hit": false,
      "t": 0,
      "d": 300,
      "v": 70
    },
    {
      "midi": 48,
      "hit": false,
      "t": 300,
      "d": 300,
      "v": 69
    },
    {
      "midi": 60,
      "hit": false,
      "t": 600,
      "d": 600,
      "v": 64
    },
    {
      "midi": 65,
      "hit": false,
      "t": 600,
      "d": 600,
      "v": 64
    },
    {
      "midi": 69,
      "hit": false,
      "t": 600,
      "d": 600,
      "v": 64
    },
    {
      "midi": 72,
      "hit": false,
      "t": 600,
      "d": 600,
      "v": 64
    },
    {
      "midi": 53,
      "hit": false,
      "t": 600,
      "d": 300,
      "v": 80
    },
    {
      "midi": 57,
      "hit": false,
      "t": 600,
      "d": 300,
      "v": 80
    },
    {
      "midi": 48,
      "hit": false,
      "t": 900,
      "d": 300,
      "v": 71
    },
    {
      "midi": 72,
      "hit": false,
      "t": 1200,
      "d": 900,
      "v": 96
    },
    {
      "midi": 77,
      "hit": false,
      "t": 1200,
      "d": 900,
      "v": 96
    },
    {
      "midi": 81,
      "hit": false,
      "t": 1200,
      "d": 900,
      "v": 96
    },
    {
      "midi": 84,
      "hit": false,
      "t": 1200,
      "d": 900,
      "v": 96
    },
    {
      "midi": 57,
      "hit": false,
      "t": 1200,
      "d": 300,
      "v": 95
    },
    {
      "midi": 60,
      "hit": false,
      "t": 1200,
      "d": 300,
      "v": 95
    },
    {
      "midi": 53,
      "hit": false,
      "t": 1500,
      "d": 300,
      "v": 73
    },
    {
      "midi": 60,
      "hit": false,
      "t": 1800,
      "d": 300,
      "v": 96
    },
    {
      "midi": 65,
      "hit": false,
      "t": 1800,
      "d": 300,
      "v": 96
    },
    {
      "midi": 69,
      "hit": false,
      "t": 2100,
      "d": 300,
      "v": 75
    },
    {
      "midi": 74,
      "hit": false,
      "t": 2100,
      "d": 300,
      "v": 75
    },
    {
      "midi": 77,
      "hit": false,
      "t": 2100,
      "d": 300,
      "v": 75
    },
    {
      "midi": 81,
      "hit": false,
      "t": 2100,
      "d": 300,
      "v": 75
    },
    {
      "midi": 57,
      "hit": false,
      "t": 2100,
      "d": 300,
      "v": 74
    },
    {
      "midi": 67,
      "hit": false,
      "t": 2400,
      "d": 2400,
      "v": 70
    },
    {
      "midi": 70,
      "hit": false,
      "t": 2400,
      "d": 2400,
      "v": 70
    },
    {
      "midi": 74,
      "hit": false,
      "t": 2400,
      "d": 2400,
      "v": 70
    },
    {
      "midi": 79,
      "hit": false,
      "t": 2400,
      "d": 2400,
      "v": 70
    },
    {
      "midi": 34,
      "hit": false,
      "t": 2400,
      "d": 300,
      "v": 66
    },
    {
      "midi": 46,
      "hit": false,
      "t": 2400,
      "d": 300,
      "v": 66
    },
    {
      "midi": 50,
      "hit": false,
      "t": 2700,
      "d": 300,
      "v": 69
    },
    {
      "midi": 55,
      "hit": false,
      "t": 3000,
      "d": 300,
      "v": 83
    },
    {
      "midi": 58,
      "hit": false,
      "t": 3000,
      "d": 300,
      "v": 83
    },
    {
      "midi": 50,
      "hit": false,
      "t": 3300,
      "d": 300,
      "v": 66
    },
    {
      "midi": 58,
      "hit": false,
      "t": 3600,
      "d": 300,
      "v": 96
    },
    {
      "midi": 62,
      "hit": false,
      "t": 3600,
      "d": 300,
      "v": 96
    },
    {
      "midi": 55,
      "hit": false,
      "t": 3900,
      "d": 300,
      "v": 77
    },
    {
      "midi": 62,
      "hit": false,
      "t": 4200,
      "d": 300,
      "v": 97
    },
    {
      "midi": 67,
      "hit": false,
      "t": 4200,
      "d": 300,
      "v": 97
    },
    {
      "midi": 58,
      "hit": false,
      "t": 4500,
      "d": 300,
      "v": 69
    },
    {
      "midi": 36,
      "hit": false,
      "t": 4800,
      "d": 300,
      "v": 77
    },
    {
      "midi": 43,
      "hit": false,
      "t": 5100,
      "d": 300,
      "v": 68
    },
    {
      "midi": 60,
      "hit": false,
      "t": 5400,
      "d": 600,
      "v": 69
    },
    {
      "midi": 64,
      "hit": false,
      "t": 5400,
      "d": 600,
      "v": 69
    },
    {
      "midi": 67,
      "hit": false,
      "t": 5400,
      "d": 600,
      "v": 69
    },
    {
      "midi": 72,
      "hit": false,
      "t": 5400,
      "d": 600,
      "v": 69
    },
    {
      "midi": 52,
      "hit": false,
      "t": 5400,
      "d": 300,
      "v": 89
    },
    {
      "midi": 55,
      "hit": false,
      "t": 5400,
      "d": 300,
      "v": 89
    },
    {
      "midi": 48,
      "hit": false,
      "t": 5700,
      "d": 300,
      "v": 71
    },
    {
      "midi": 72,
      "hit": false,
      "t": 6000,
      "d": 900,
      "v": 96
    },
    {
      "midi": 76,
      "hit": false,
      "t": 6000,
      "d": 900,
      "v": 96
    },
    {
      "midi": 79,
      "hit": false,
      "t": 6000,
      "d": 900,
      "v": 96
    },
    {
      "midi": 84,
      "hit": false,
      "t": 6000,
      "d": 900,
      "v": 96
    },
    {
      "midi": 55,
      "hit": false,
      "t": 6000,
      "d": 300,
      "v": 96
    },
    {
      "midi": 60,
      "hit": false,
      "t": 6000,
      "d": 300,
      "v": 96
    },
    {
      "midi": 52,
      "hit": false,
      "t": 6300,
      "d": 300,
      "v": 76
    },
    {
      "midi": 60,
      "hit": false,
      "t": 6600,
      "d": 300,
      "v": 97
    },
    {
      "midi": 64,
      "hit": false,
      "t": 6600,
      "d": 300,
      "v": 97
    },
    {
      "midi": 67,
      "hit": false,
      "t": 6900,
      "d": 300,
      "v": 72
    },
    {
      "midi": 72,
      "hit": false,
      "t": 6900,
      "d": 300,
      "v": 72
    },
    {
      "midi": 76,
      "hit": false,
      "t": 6900,
      "d": 300,
      "v": 72
    },
    {
      "midi": 79,
      "hit": false,
      "t": 6900,
      "d": 300,
      "v": 72
    },
    {
      "midi": 55,
      "hit": false,
      "t": 6900,
      "d": 300,
      "v": 72
    },
    {
      "midi": 65,
      "hit": false,
      "t": 7200,
      "d": 1200,
      "v": 57
    },
    {
      "midi": 72,
      "hit": false,
      "t": 7200,
      "d": 1200,
      "v": 66
    },
    {
      "midi": 41,
      "hit": false,
      "t": 7200,
      "d": 300,
      "v": 81
    },
    {
      "midi": 48,
      "hit": false,
      "t": 7500,
      "d": 300,
      "v": 66
    },
    {
      "midi": 53,
      "hit": false,
      "t": 7800,
      "d": 300,
      "v": 82
    },
    {
      "midi": 57,
      "hit": false,
      "t": 7800,
      "d": 300,
      "v": 82
    },
    {
      "midi": 48,
      "hit": false,
      "t": 8100,
      "d": 300,
      "v": 69
    },
    {
      "midi": 57,
      "hit": false,
      "t": 8400,
      "d": 300,
      "v": 93
    },
    {
      "midi": 60,
      "hit": false,
      "t": 8400,
      "d": 300,
      "v": 93
    },
    {
      "midi": 53,
      "hit": false,
      "t": 8700,
      "d": 300,
      "v": 76
    },
    {
      "midi": 60,
      "hit": false,
      "t": 9000,
      "d": 300,
      "v": 97
    },
    {
      "midi": 65,
      "hit": false,
      "t": 9000,
      "d": 300,
      "v": 97
    },
    {
      "midi": 57,
      "hit": false,
      "t": 9300,
      "d": 300,
      "v": 76
    },
    {
      "midi": 33,
      "hit": false,
      "t": 9600,
      "d": 300,
      "v": 73
    },
    {
      "midi": 45,
      "hit": false,
      "t": 9600,
      "d": 300,
      "v": 73
    },
    {
      "midi": 48,
      "hit": false,
      "t": 9900,
      "d": 300,
      "v": 71
    },
    {
      "midi": 65,
      "hit": false,
      "t": 10200,
      "d": 600,
      "v": 68
    },
    {
      "midi": 69,
      "hit": false,
      "t": 10200,
      "d": 600,
      "v": 68
    },
    {
      "midi": 72,
      "hit": false,
      "t": 10200,
      "d": 600,
      "v": 68
    },
    {
      "midi": 77,
      "hit": false,
      "t": 10200,
      "d": 600,
      "v": 68
    },
    {
      "midi": 53,
      "hit": false,
      "t": 10200,
      "d": 300,
      "v": 81
    },
    {
      "midi": 57,
      "hit": false,
      "t": 10200,
      "d": 300,
      "v": 81
    },
    {
      "midi": 48,
      "hit": false,
      "t": 10500,
      "d": 300,
      "v": 68
    },
    {
      "midi": 77,
      "hit": false,
      "t": 10800,
      "d": 900,
      "v": 97
    },
    {
      "midi": 81,
      "hit": false,
      "t": 10800,
      "d": 900,
      "v": 97
    },
    {
      "midi": 84,
      "hit": false,
      "t": 10800,
      "d": 900,
      "v": 97
    },
    {
      "midi": 89,
      "hit": false,
      "t": 10800,
      "d": 900,
      "v": 97
    },
    {
      "midi": 57,
      "hit": false,
      "t": 10800,
      "d": 300,
      "v": 99
    },
    {
      "midi": 60,
      "hit": false,
      "t": 10800,
      "d": 300,
      "v": 99
    },
    {
      "midi": 53,
      "hit": false,
      "t": 11100,
      "d": 300,
      "v": 70
    },
    {
      "midi": 60,
      "hit": false,
      "t": 11400,
      "d": 300,
      "v": 99
    },
    {
      "midi": 65,
      "hit": false,
      "t": 11400,
      "d": 300,
      "v": 99
    },
    {
      "midi": 76,
      "hit": false,
      "t": 11700,
      "d": 300,
      "v": 77
    },
    {
      "midi": 81,
      "hit": false,
      "t": 11700,
      "d": 300,
      "v": 77
    },
    {
      "midi": 84,
      "hit": false,
      "t": 11700,
      "d": 300,
      "v": 77
    },
    {
      "midi": 88,
      "hit": false,
      "t": 11700,
      "d": 300,
      "v": 77
    },
    {
      "midi": 57,
      "hit": false,
      "t": 11700,
      "d": 300,
      "v": 75
    },
    {
      "midi": 76,
      "hit": false,
      "t": 12000,
      "d": 1200,
      "v": 76
    },
    {
      "midi": 81,
      "hit": false,
      "t": 12000,
      "d": 1200,
      "v": 76
    },
    {
      "midi": 84,
      "hit": false,
      "t": 12000,
      "d": 1200,
      "v": 76
    },
    {
      "midi": 88,
      "hit": false,
      "t": 12000,
      "d": 1200,
      "v": 76
    },
    {
      "midi": 34,
      "hit": false,
      "t": 12000,
      "d": 300,
      "v": 77
    },
    {
      "midi": 46,
      "hit": false,
      "t": 12000,
      "d": 300,
      "v": 77
    },
    {
      "midi": 50,
      "hit": false,
      "t": 12300,
      "d": 300,
      "v": 67
    },
    {
      "midi": 53,
      "hit": false,
      "t": 12600,
      "d": 300,
      "v": 84
    },
    {
      "midi": 58,
      "hit": false,
      "t": 12600,
      "d": 300,
      "v": 84
    },
    {
      "midi": 50,
      "hit": false,
      "t": 12900,
      "d": 300,
      "v": 71
    },
    {
      "midi": 74,
      "hit": false,
      "t": 13200,
      "d": 1200,
      "v": 72
    },
    {
      "midi": 77,
      "hit": false,
      "t": 13200,
      "d": 1200,
      "v": 72
    },
    {
      "midi": 82,
      "hit": false,
      "t": 13200,
      "d": 1200,
      "v": 72
    },
    {
      "midi": 86,
      "hit": false,
      "t": 13200,
      "d": 1200,
      "v": 72
    },
    {
      "midi": 58,
      "hit": false,
      "t": 13200,
      "d": 300,
      "v": 96
    },
    {
      "midi": 62,
      "hit": false,
      "t": 13200,
      "d": 300,
      "v": 96
    },
    {
      "midi": 53,
      "hit": false,
      "t": 13500,
      "d": 300,
      "v": 73
    },
    {
      "midi": 62,
      "hit": false,
      "t": 13800,
      "d": 300,
      "v": 97
    },
    {
      "midi": 65,
      "hit": false,
      "t": 13800,
      "d": 300,
      "v": 97
    },
    {
      "midi": 58,
      "hit": false,
      "t": 14100,
      "d": 300,
      "v": 76
    },
    {
      "midi": 36,
      "hit": false,
      "t": 14400,
      "d": 300,
      "v": 78
    },
    {
      "midi": 41,
      "hit": false,
      "t": 14700,
      "d": 300,
      "v": 68
    },
    {
      "midi": 60,
      "hit": false,
      "t": 15000,
      "d": 600,
      "v": 68
    },
    {
      "midi": 65,
      "hit": false,
      "t": 15000,
      "d": 600,
      "v": 68
    },
    {
      "midi": 69,
      "hit": false,
      "t": 15000,
      "d": 600,
      "v": 68
    },
    {
      "midi": 72,
      "hit": false,
      "t": 15000,
      "d": 600,
      "v": 68
    },
    {
      "midi": 53,
      "hit": false,
      "t": 15000,
      "d": 300,
      "v": 89
    },
    {
      "midi": 57,
      "hit": false,
      "t": 15000,
      "d": 300,
      "v": 89
    },
    {
      "midi": 48,
      "hit": false,
      "t": 15300,
      "d": 300,
      "v": 64
    },
    {
      "midi": 72,
      "hit": false,
      "t": 15600,
      "d": 900,
      "v": 93
    },
    {
      "midi": 77,
      "hit": false,
      "t": 15600,
      "d": 900,
      "v": 93
    },
    {
      "midi": 81,
      "hit": false,
      "t": 15600,
      "d": 900,
      "v": 93
    },
    {
      "midi": 84,
      "hit": false,
      "t": 15600,
      "d": 900,
      "v": 93
    },
    {
      "midi": 57,
      "hit": false,
      "t": 15600,
      "d": 300,
      "v": 99
    },
    {
      "midi": 60,
      "hit": false,
      "t": 15600,
      "d": 300,
      "v": 99
    },
    {
      "midi": 53,
      "hit": false,
      "t": 15900,
      "d": 300,
      "v": 73
    },
    {
      "midi": 60,
      "hit": false,
      "t": 16200,
      "d": 300,
      "v": 94
    },
    {
      "midi": 65,
      "hit": false,
      "t": 16200,
      "d": 300,
      "v": 94
    },
    {
      "midi": 69,
      "hit": false,
      "t": 16500,
      "d": 300,
      "v": 75
    },
    {
      "midi": 74,
      "hit": false,
      "t": 16500,
      "d": 300,
      "v": 75
    },
    {
      "midi": 77,
      "hit": false,
      "t": 16500,
      "d": 300,
      "v": 75
    },
    {
      "midi": 81,
      "hit": false,
      "t": 16500,
      "d": 300,
      "v": 75
    },
    {
      "midi": 57,
      "hit": false,
      "t": 16500,
      "d": 300,
      "v": 76
    },
    {
      "midi": 72,
      "hit": false,
      "t": 16800,
      "d": 1200,
      "v": 63
    },
    {
      "midi": 36,
      "hit": false,
      "t": 16800,
      "d": 300,
      "v": 76
    },
    {
      "midi": 43,
      "hit": false,
      "t": 17100,
      "d": 300,
      "v": 69
    },
    {
      "midi": 52,
      "hit": false,
      "t": 17400,
      "d": 300,
      "v": 86
    },
    {
      "midi": 55,
      "hit": false,
      "t": 17400,
      "d": 300,
      "v": 86
    },
    {
      "midi": 48,
      "hit": false,
      "t": 17700,
      "d": 300,
      "v": 74
    },
    {
      "midi": 55,
      "hit": false,
      "t": 18000,
      "d": 300,
      "v": 103
    },
    {
      "midi": 60,
      "hit": false,
      "t": 18000,
      "d": 300,
      "v": 103
    },
    {
      "midi": 52,
      "hit": false,
      "t": 18300,
      "d": 300,
      "v": 73
    },
    {
      "midi": 60,
      "hit": false,
      "t": 18600,
      "d": 300,
      "v": 100
    },
    {
      "midi": 64,
      "hit": false,
      "t": 18600,
      "d": 300,
      "v": 100
    },
    {
      "midi": 55,
      "hit": false,
      "t": 18900,
      "d": 300,
      "v": 67
    },
    {
      "midi": 41,
      "hit": false,
      "t": 19200,
      "d": 300,
      "v": 85
    },
    {
      "midi": 48,
      "hit": false,
      "t": 19500,
      "d": 300,
      "v": 69
    },
    {
      "midi": 60,
      "hit": false,
      "t": 19800,
      "d": 600,
      "v": 67
    },
    {
      "midi": 65,
      "hit": false,
      "t": 19800,
      "d": 600,
      "v": 67
    },
    {
      "midi": 69,
      "hit": false,
      "t": 19800,
      "d": 600,
      "v": 67
    },
    {
      "midi": 72,
      "hit": false,
      "t": 19800,
      "d": 600,
      "v": 67
    },
    {
      "midi": 53,
      "hit": false,
      "t": 19800,
      "d": 300,
      "v": 85
    },
    {
      "midi": 57,
      "hit": false,
      "t": 19800,
      "d": 300,
      "v": 85
    },
    {
      "midi": 48,
      "hit": false,
      "t": 20100,
      "d": 300,
      "v": 69
    },
    {
      "midi": 72,
      "hit": false,
      "t": 20400,
      "d": 900,
      "v": 97
    },
    {
      "midi": 77,
      "hit": false,
      "t": 20400,
      "d": 900,
      "v": 97
    },
    {
      "midi": 81,
      "hit": false,
      "t": 20400,
      "d": 900,
      "v": 97
    },
    {
      "midi": 84,
      "hit": false,
      "t": 20400,
      "d": 900,
      "v": 97
    },
    {
      "midi": 57,
      "hit": false,
      "t": 20400,
      "d": 300,
      "v": 100
    },
    {
      "midi": 60,
      "hit": false,
      "t": 20400,
      "d": 300,
      "v": 100
    },
    {
      "midi": 53,
      "hit": false,
      "t": 20700,
      "d": 300,
      "v": 72
    },
    {
      "midi": 60,
      "hit": false,
      "t": 21000,
      "d": 300,
      "v": 96
    },
    {
      "midi": 65,
      "hit": false,
      "t": 21000,
      "d": 300,
      "v": 96
    },
    {
      "midi": 69,
      "hit": false,
      "t": 21300,
      "d": 300,
      "v": 71
    },
    {
      "midi": 74,
      "hit": false,
      "t": 21300,
      "d": 300,
      "v": 71
    },
    {
      "midi": 77,
      "hit": false,
      "t": 21300,
      "d": 300,
      "v": 71
    },
    {
      "midi": 81,
      "hit": false,
      "t": 21300,
      "d": 300,
      "v": 71
    },
    {
      "midi": 57,
      "hit": false,
      "t": 21300,
      "d": 300,
      "v": 70
    },
    {
      "midi": 67,
      "hit": false,
      "t": 21600,
      "d": 2400,
      "v": 69
    },
    {
      "midi": 70,
      "hit": false,
      "t": 21600,
      "d": 2400,
      "v": 69
    },
    {
      "midi": 74,
      "hit": false,
      "t": 21600,
      "d": 2400,
      "v": 69
    },
    {
      "midi": 79,
      "hit": false,
      "t": 21600,
      "d": 2400,
      "v": 69
    },
    {
      "midi": 34,
      "hit": false,
      "t": 21600,
      "d": 300,
      "v": 71
    },
    {
      "midi": 46,
      "hit": false,
      "t": 21600,
      "d": 300,
      "v": 71
    },
    {
      "midi": 50,
      "hit": false,
      "t": 21900,
      "d": 300,
      "v": 71
    },
    {
      "midi": 55,
      "hit": false,
      "t": 22200,
      "d": 300,
      "v": 81
    },
    {
      "midi": 58,
      "hit": false,
      "t": 22200,
      "d": 300,
      "v": 81
    },
    {
      "midi": 50,
      "hit": false,
      "t": 22500,
      "d": 300,
      "v": 69
    },
    {
      "midi": 58,
      "hit": false,
      "t": 22800,
      "d": 300,
      "v": 91
    },
    {
      "midi": 62,
      "hit": false,
      "t": 22800,
      "d": 300,
      "v": 91
    },
    {
      "midi": 55,
      "hit": false,
      "t": 23100,
      "d": 300,
      "v": 71
    },
    {
      "midi": 62,
      "hit": false,
      "t": 23400,
      "d": 300,
      "v": 95
    },
    {
      "midi": 67,
      "hit": false,
      "t": 23400,
      "d": 300,
      "v": 95
    },
    {
      "midi": 58,
      "hit": false,
      "t": 23700,
      "d": 300,
      "v": 71
    },
    {
      "midi": 36,
      "hit": false,
      "t": 24000,
      "d": 300,
      "v": 80
    },
    {
      "midi": 43,
      "hit": false,
      "t": 24300,
      "d": 300,
      "v": 66
    },
    {
      "midi": 60,
      "hit": false,
      "t": 24600,
      "d": 600,
      "v": 68
    },
    {
      "midi": 64,
      "hit": false,
      "t": 24600,
      "d": 600,
      "v": 68
    },
    {
      "midi": 67,
      "hit": false,
      "t": 24600,
      "d": 600,
      "v": 68
    },
    {
      "midi": 72,
      "hit": false,
      "t": 24600,
      "d": 600,
      "v": 68
    },
    {
      "midi": 52,
      "hit": false,
      "t": 24600,
      "d": 300,
      "v": 86
    },
    {
      "midi": 55,
      "hit": false,
      "t": 24600,
      "d": 300,
      "v": 86
    },
    {
      "midi": 48,
      "hit": false,
      "t": 24900,
      "d": 300,
      "v": 72
    },
    {
      "midi": 72,
      "hit": false,
      "t": 25200,
      "d": 900,
      "v": 100
    },
    {
      "midi": 76,
      "hit": false,
      "t": 25200,
      "d": 900,
      "v": 100
    },
    {
      "midi": 79,
      "hit": false,
      "t": 25200,
      "d": 900,
      "v": 100
    },
    {
      "midi": 84,
      "hit": false,
      "t": 25200,
      "d": 900,
      "v": 100
    },
    {
      "midi": 55,
      "hit": false,
      "t": 25200,
      "d": 300,
      "v": 99
    },
    {
      "midi": 60,
      "hit": false,
      "t": 25200,
      "d": 300,
      "v": 99
    },
    {
      "midi": 52,
      "hit": false,
      "t": 25500,
      "d": 300,
      "v": 78
    },
    {
      "midi": 60,
      "hit": false,
      "t": 25800,
      "d": 300,
      "v": 98
    },
    {
      "midi": 64,
      "hit": false,
      "t": 25800,
      "d": 300,
      "v": 98
    },
    {
      "midi": 67,
      "hit": false,
      "t": 26100,
      "d": 300,
      "v": 69
    },
    {
      "midi": 72,
      "hit": false,
      "t": 26100,
      "d": 300,
      "v": 69
    },
    {
      "midi": 76,
      "hit": false,
      "t": 26100,
      "d": 300,
      "v": 69
    },
    {
      "midi": 79,
      "hit": false,
      "t": 26100,
      "d": 300,
      "v": 69
    },
    {
      "midi": 55,
      "hit": false,
      "t": 26100,
      "d": 300,
      "v": 68
    },
    {
      "midi": 65,
      "hit": false,
      "t": 26400,
      "d": 2400,
      "v": 73
    },
    {
      "midi": 69,
      "hit": false,
      "t": 26400,
      "d": 2400,
      "v": 73
    },
    {
      "midi": 72,
      "hit": false,
      "t": 26400,
      "d": 2400,
      "v": 73
    },
    {
      "midi": 77,
      "hit": false,
      "t": 26400,
      "d": 2400,
      "v": 73
    },
    {
      "midi": 41,
      "hit": false,
      "t": 26400,
      "d": 300,
      "v": 80
    },
    {
      "midi": 48,
      "hit": false,
      "t": 26700,
      "d": 300,
      "v": 67
    },
    {
      "midi": 53,
      "hit": false,
      "t": 27000,
      "d": 300,
      "v": 85
    },
    {
      "midi": 57,
      "hit": false,
      "t": 27000,
      "d": 300,
      "v": 85
    },
    {
      "midi": 48,
      "hit": false,
      "t": 27300,
      "d": 300,
      "v": 70
    },
    {
      "midi": 57,
      "hit": false,
      "t": 27600,
      "d": 300,
      "v": 95
    },
    {
      "midi": 60,
      "hit": false,
      "t": 27600,
      "d": 300,
      "v": 95
    },
    {
      "midi": 53,
      "hit": false,
      "t": 27900,
      "d": 300,
      "v": 70
    },
    {
      "midi": 60,
      "hit": false,
      "t": 28200,
      "d": 300,
      "v": 94
    },
    {
      "midi": 65,
      "hit": false,
      "t": 28200,
      "d": 300,
      "v": 94
    },
    {
      "midi": 57,
      "hit": false,
      "t": 28500,
      "d": 300,
      "v": 73
    },
    {
      "midi": 33,
      "hit": false,
      "t": 28800,
      "d": 300,
      "v": 67
    },
    {
      "midi": 45,
      "hit": false,
      "t": 28800,
      "d": 300,
      "v": 67
    },
    {
      "midi": 48,
      "hit": false,
      "t": 29100,
      "d": 300,
      "v": 65
    },
    {
      "midi": 65,
      "hit": false,
      "t": 29400,
      "d": 600,
      "v": 68
    },
    {
      "midi": 69,
      "hit": false,
      "t": 29400,
      "d": 600,
      "v": 68
    },
    {
      "midi": 72,
      "hit": false,
      "t": 29400,
      "d": 600,
      "v": 68
    },
    {
      "midi": 77,
      "hit": false,
      "t": 29400,
      "d": 600,
      "v": 68
    },
    {
      "midi": 53,
      "hit": false,
      "t": 29400,
      "d": 300,
      "v": 86
    },
    {
      "midi": 57,
      "hit": false,
      "t": 29400,
      "d": 300,
      "v": 86
    },
    {
      "midi": 48,
      "hit": false,
      "t": 29700,
      "d": 300,
      "v": 67
    },
    {
      "midi": 77,
      "hit": false,
      "t": 30000,
      "d": 900,
      "v": 98
    },
    {
      "midi": 81,
      "hit": false,
      "t": 30000,
      "d": 900,
      "v": 98
    },
    {
      "midi": 84,
      "hit": false,
      "t": 30000,
      "d": 900,
      "v": 98
    },
    {
      "midi": 89,
      "hit": false,
      "t": 30000,
      "d": 900,
      "v": 98
    },
    {
      "midi": 57,
      "hit": false,
      "t": 30000,
      "d": 300,
      "v": 99
    },
    {
      "midi": 60,
      "hit": false,
      "t": 30000,
      "d": 300,
      "v": 99
    },
    {
      "midi": 53,
      "hit": false,
      "t": 30300,
      "d": 300,
      "v": 69
    },
    {
      "midi": 60,
      "hit": false,
      "t": 30600,
      "d": 300,
      "v": 101
    },
    {
      "midi": 65,
      "hit": false,
      "t": 30600,
      "d": 300,
      "v": 101
    },
    {
      "midi": 76,
      "hit": false,
      "t": 30900,
      "d": 300,
      "v": 72
    },
    {
      "midi": 81,
      "hit": false,
      "t": 30900,
      "d": 300,
      "v": 72
    },
    {
      "midi": 84,
      "hit": false,
      "t": 30900,
      "d": 300,
      "v": 72
    },
    {
      "midi": 88,
      "hit": false,
      "t": 30900,
      "d": 300,
      "v": 72
    },
    {
      "midi": 57,
      "hit": false,
      "t": 30900,
      "d": 300,
      "v": 70
    },
    {
      "midi": 76,
      "hit": false,
      "t": 31200,
      "d": 1200,
      "v": 73
    },
    {
      "midi": 81,
      "hit": false,
      "t": 31200,
      "d": 1200,
      "v": 73
    },
    {
      "midi": 84,
      "hit": false,
      "t": 31200,
      "d": 1200,
      "v": 73
    },
    {
      "midi": 88,
      "hit": false,
      "t": 31200,
      "d": 1200,
      "v": 73
    },
    {
      "midi": 34,
      "hit": false,
      "t": 31200,
      "d": 300,
      "v": 81
    },
    {
      "midi": 46,
      "hit": false,
      "t": 31200,
      "d": 300,
      "v": 81
    },
    {
      "midi": 50,
      "hit": false,
      "t": 31500,
      "d": 300,
      "v": 64
    },
    {
      "midi": 53,
      "hit": false,
      "t": 31800,
      "d": 300,
      "v": 87
    },
    {
      "midi": 58,
      "hit": false,
      "t": 31800,
      "d": 300,
      "v": 87
    },
    {
      "midi": 50,
      "hit": false,
      "t": 32100,
      "d": 300,
      "v": 72
    },
    {
      "midi": 74,
      "hit": false,
      "t": 32400,
      "d": 1200,
      "v": 72
    },
    {
      "midi": 77,
      "hit": false,
      "t": 32400,
      "d": 1200,
      "v": 72
    },
    {
      "midi": 82,
      "hit": false,
      "t": 32400,
      "d": 1200,
      "v": 72
    },
    {
      "midi": 86,
      "hit": false,
      "t": 32400,
      "d": 1200,
      "v": 72
    },
    {
      "midi": 58,
      "hit": false,
      "t": 32400,
      "d": 300,
      "v": 93
    },
    {
      "midi": 62,
      "hit": false,
      "t": 32400,
      "d": 300,
      "v": 93
    },
    {
      "midi": 53,
      "hit": false,
      "t": 32700,
      "d": 300,
      "v": 72
    },
    {
      "midi": 62,
      "hit": false,
      "t": 33000,
      "d": 300,
      "v": 95
    },
    {
      "midi": 65,
      "hit": false,
      "t": 33000,
      "d": 300,
      "v": 95
    },
    {
      "midi": 58,
      "hit": false,
      "t": 33300,
      "d": 300,
      "v": 74
    },
    {
      "midi": 43,
      "hit": false,
      "t": 33900,
      "d": 300,
      "v": 72
    },
    {
      "midi": 72,
      "hit": false,
      "t": 34200,
      "d": 600,
      "v": 68
    },
    {
      "midi": 76,
      "hit": false,
      "t": 34200,
      "d": 600,
      "v": 68
    },
    {
      "midi": 79,
      "hit": false,
      "t": 34200,
      "d": 600,
      "v": 68
    },
    {
      "midi": 84,
      "hit": false,
      "t": 34200,
      "d": 600,
      "v": 68
    },
    {
      "midi": 52,
      "hit": false,
      "t": 34200,
      "d": 300,
      "v": 86
    },
    {
      "midi": 55,
      "hit": false,
      "t": 34200,
      "d": 300,
      "v": 86
    },
    {
      "midi": 48,
      "hit": false,
      "t": 34500,
      "d": 300,
      "v": 68
    },
    {
      "midi": 81,
      "hit": false,
      "t": 34800,
      "d": 900,
      "v": 90
    },
    {
      "midi": 84,
      "hit": false,
      "t": 34800,
      "d": 900,
      "v": 90
    },
    {
      "midi": 88,
      "hit": false,
      "t": 34800,
      "d": 900,
      "v": 90
    },
    {
      "midi": 93,
      "hit": false,
      "t": 34800,
      "d": 900,
      "v": 90
    },
    {
      "midi": 55,
      "hit": false,
      "t": 34800,
      "d": 300,
      "v": 98
    },
    {
      "midi": 60,
      "hit": false,
      "t": 34800,
      "d": 300,
      "v": 98
    },
    {
      "midi": 52,
      "hit": false,
      "t": 35100,
      "d": 300,
      "v": 72
    },
    {
      "midi": 60,
      "hit": false,
      "t": 35400,
      "d": 300,
      "v": 96
    },
    {
      "midi": 64,
      "hit": false,
      "t": 35400,
      "d": 300,
      "v": 96
    },
    {
      "midi": 79,
      "hit": false,
      "t": 35700,
      "d": 300,
      "v": 71
    },
    {
      "midi": 84,
      "hit": false,
      "t": 35700,
      "d": 300,
      "v": 71
    },
    {
      "midi": 88,
      "hit": false,
      "t": 35700,
      "d": 300,
      "v": 71
    },
    {
      "midi": 91,
      "hit": false,
      "t": 35700,
      "d": 300,
      "v": 71
    },
    {
      "midi": 55,
      "hit": false,
      "t": 35700,
      "d": 300,
      "v": 71
    },
    {
      "midi": 77,
      "hit": false,
      "t": 36000,
      "d": 1200,
      "v": 71
    },
    {
      "midi": 81,
      "hit": false,
      "t": 36000,
      "d": 1200,
      "v": 71
    },
    {
      "midi": 84,
      "hit": false,
      "t": 36000,
      "d": 1200,
      "v": 71
    },
    {
      "midi": 89,
      "hit": false,
      "t": 36000,
      "d": 1200,
      "v": 71
    },
    {
      "midi": 41,
      "hit": false,
      "t": 36000,
      "d": 600,
      "v": 72
    },
    {
      "midi": 53,
      "hit": false,
      "t": 36000,
      "d": 600,
      "v": 72
    },
    {
      "midi": 48,
      "hit": false,
      "t": 36600,
      "d": 300,
      "v": 73
    },
    {
      "midi": 53,
      "hit": false,
      "t": 36900,
      "d": 300,
      "v": 84
    },
    {
      "midi": 57,
      "hit": false,
      "t": 37200,
      "d": 1200,
      "v": 51
    },
    {
      "midi": 60,
      "hit": false,
      "t": 37200,
      "d": 1200,
      "v": 51
    },
    {
      "midi": 65,
      "hit": false,
      "t": 37200,
      "d": 1200,
      "v": 51
    },
    {
      "midi": 53,
      "hit": false,
      "t": 37200,
      "d": 1200,
      "v": 78
    },
    {
      "midi": 46,
      "hit": false,
      "t": 38400,
      "d": 300,
      "v": 73
    },
    {
      "midi": 53,
      "hit": false,
      "t": 38700,
      "d": 300,
      "v": 68
    },
    {
      "midi": 65,
      "hit": false,
      "t": 39000,
      "d": 600,
      "v": 64
    },
    {
      "midi": 58,
      "hit": false,
      "t": 39000,
      "d": 300,
      "v": 83
    },
    {
      "midi": 53,
      "hit": false,
      "t": 39300,
      "d": 300,
      "v": 72
    },
    {
      "midi": 77,
      "hit": false,
      "t": 39600,
      "d": 900,
      "v": 95
    },
    {
      "midi": 58,
      "hit": false,
      "t": 39600,
      "d": 600,
      "v": 91
    },
    {
      "midi": 62,
      "hit": false,
      "t": 39600,
      "d": 600,
      "v": 91
    },
    {
      "midi": 58,
      "hit": false,
      "t": 40200,
      "d": 600,
      "v": 81
    },
    {
      "midi": 62,
      "hit": false,
      "t": 40200,
      "d": 600,
      "v": 81
    },
    {
      "midi": 76,
      "hit": false,
      "t": 40500,
      "d": 300,
      "v": 75
    },
    {
      "midi": 65,
      "hit": false,
      "t": 40800,
      "d": 600,
      "v": 68
    },
    {
      "midi": 70,
      "hit": false,
      "t": 40800,
      "d": 600,
      "v": 68
    },
    {
      "midi": 74,
      "hit": false,
      "t": 40800,
      "d": 600,
      "v": 68
    },
    {
      "midi": 70,
      "hit": false,
      "t": 41400,
      "d": 600,
      "v": 79
    },
    {
      "midi": 74,
      "hit": false,
      "t": 41400,
      "d": 600,
      "v": 79
    },
    {
      "midi": 53,
      "hit": false,
      "t": 41400,
      "d": 600,
      "v": 65
    },
    {
      "midi": 70,
      "hit": false,
      "t": 42000,
      "d": 600,
      "v": 79
    },
    {
      "midi": 74,
      "hit": false,
      "t": 42000,
      "d": 600,
      "v": 79
    },
    {
      "midi": 64,
      "hit": false,
      "t": 42000,
      "d": 900,
      "v": 95
    },
    {
      "midi": 70,
      "hit": false,
      "t": 42600,
      "d": 600,
      "v": 74
    },
    {
      "midi": 74,
      "hit": false,
      "t": 42600,
      "d": 600,
      "v": 74
    },
    {
      "midi": 62,
      "hit": false,
      "t": 42900,
      "d": 300,
      "v": 72
    },
    {
      "midi": 60,
      "hit": false,
      "t": 43200,
      "d": 600,
      "v": 56
    },
    {
      "midi": 45,
      "hit": false,
      "t": 43200,
      "d": 300,
      "v": 72
    },
    {
      "midi": 52,
      "hit": false,
      "t": 43500,
      "d": 300,
      "v": 62
    },
    {
      "midi": 64,
      "hit": false,
      "t": 43800,
      "d": 600,
      "v": 82
    },
    {
      "midi": 57,
      "hit": false,
      "t": 43800,
      "d": 300,
      "v": 81
    },
    {
      "midi": 52,
      "hit": false,
      "t": 44100,
      "d": 300,
      "v": 73
    },
    {
      "midi": 76,
      "hit": false,
      "t": 44400,
      "d": 900,
      "v": 95
    },
    {
      "midi": 57,
      "hit": false,
      "t": 44400,
      "d": 600,
      "v": 92
    },
    {
      "midi": 60,
      "hit": false,
      "t": 44400,
      "d": 600,
      "v": 92
    },
    {
      "midi": 57,
      "hit": false,
      "t": 45000,
      "d": 600,
      "v": 74
    },
    {
      "midi": 60,
      "hit": false,
      "t": 45000,
      "d": 600,
      "v": 74
    },
    {
      "midi": 74,
      "hit": false,
      "t": 45300,
      "d": 300,
      "v": 78
    },
    {
      "midi": 64,
      "hit": false,
      "t": 45600,
      "d": 600,
      "v": 70
    },
    {
      "midi": 69,
      "hit": false,
      "t": 45600,
      "d": 600,
      "v": 70
    },
    {
      "midi": 72,
      "hit": false,
      "t": 45600,
      "d": 600,
      "v": 70
    },
    {
      "midi": 69,
      "hit": false,
      "t": 46200,
      "d": 600,
      "v": 78
    },
    {
      "midi": 72,
      "hit": false,
      "t": 46200,
      "d": 600,
      "v": 78
    },
    {
      "midi": 52,
      "hit": false,
      "t": 46200,
      "d": 600,
      "v": 69
    },
    {
      "midi": 69,
      "hit": false,
      "t": 46800,
      "d": 600,
      "v": 74
    },
    {
      "midi": 72,
      "hit": false,
      "t": 46800,
      "d": 600,
      "v": 74
    },
    {
      "midi": 62,
      "hit": false,
      "t": 46800,
      "d": 900,
      "v": 94
    },
    {
      "midi": 69,
      "hit": false,
      "t": 47400,
      "d": 600,
      "v": 78
    },
    {
      "midi": 72,
      "hit": false,
      "t": 47400,
      "d": 600,
      "v": 78
    },
    {
      "midi": 60,
      "hit": false,
      "t": 47700,
      "d": 300,
      "v": 78
    },
    {
      "midi": 58,
      "hit": false,
      "t": 48000,
      "d": 600,
      "v": 65
    },
    {
      "midi": 43,
      "hit": false,
      "t": 48000,
      "d": 300,
      "v": 78
    },
    {
      "midi": 50,
      "hit": false,
      "t": 48300,
      "d": 300,
      "v": 69
    },
    {
      "midi": 62,
      "hit": false,
      "t": 48600,
      "d": 600,
      "v": 83
    },
    {
      "midi": 55,
      "hit": false,
      "t": 48600,
      "d": 300,
      "v": 76
    },
    {
      "midi": 50,
      "hit": false,
      "t": 48900,
      "d": 300,
      "v": 71
    },
    {
      "midi": 74,
      "hit": false,
      "t": 49200,
      "d": 900,
      "v": 96
    },
    {
      "midi": 58,
      "hit": false,
      "t": 49200,
      "d": 600,
      "v": 95
    },
    {
      "midi": 62,
      "hit": false,
      "t": 49200,
      "d": 600,
      "v": 95
    },
    {
      "midi": 58,
      "hit": false,
      "t": 49800,
      "d": 600,
      "v": 80
    },
    {
      "midi": 62,
      "hit": false,
      "t": 49800,
      "d": 600,
      "v": 80
    },
    {
      "midi": 72,
      "hit": false,
      "t": 50100,
      "d": 300,
      "v": 71
    },
    {
      "midi": 70,
      "hit": false,
      "t": 50400,
      "d": 1200,
      "v": 68
    },
    {
      "midi": 41,
      "hit": false,
      "t": 50400,
      "d": 300,
      "v": 87
    },
    {
      "midi": 53,
      "hit": false,
      "t": 50700,
      "d": 300,
      "v": 70
    },
    {
      "midi": 58,
      "hit": false,
      "t": 51000,
      "d": 300,
      "v": 95
    },
    {
      "midi": 62,
      "hit": false,
      "t": 51000,
      "d": 300,
      "v": 95
    },
    {
      "midi": 53,
      "hit": false,
      "t": 51300,
      "d": 300,
      "v": 69
    },
    {
      "midi": 74,
      "hit": false,
      "t": 51600,
      "d": 1200,
      "v": 80
    },
    {
      "midi": 58,
      "hit": false,
      "t": 51600,
      "d": 300,
      "v": 93
    },
    {
      "midi": 62,
      "hit": false,
      "t": 51600,
      "d": 300,
      "v": 93
    },
    {
      "midi": 53,
      "hit": false,
      "t": 51900,
      "d": 300,
      "v": 69
    },
    {
      "midi": 58,
      "hit": false,
      "t": 52200,
      "d": 300,
      "v": 89
    },
    {
      "midi": 62,
      "hit": false,
      "t": 52200,
      "d": 300,
      "v": 89
    },
    {
      "midi": 53,
      "hit": false,
      "t": 52500,
      "d": 300,
      "v": 69
    },
    {
      "midi": 69,
      "hit": false,
      "t": 52800,
      "d": 300,
      "v": 64
    },
    {
      "midi": 36,
      "hit": false,
      "t": 52800,
      "d": 2400,
      "v": 71
    },
    {
      "midi": 48,
      "hit": false,
      "t": 52800,
      "d": 2400,
      "v": 71
    },
    {
      "midi": 57,
      "hit": false,
      "t": 53100,
      "d": 150,
      "v": 68
    },
    {
      "midi": 58,
      "hit": false,
      "t": 53250,
      "d": 150,
      "v": 82
    },
    {
      "midi": 60,
      "hit": false,
      "t": 53400,
      "d": 150,
      "v": 85
    },
    {
      "midi": 62,
      "hit": false,
      "t": 53550,
      "d": 150,
      "v": 86
    },
    {
      "midi": 64,
      "hit": false,
      "t": 53700,
      "d": 150,
      "v": 82
    },
    {
      "midi": 65,
      "hit": false,
      "t": 53850,
      "d": 150,
      "v": 81
    },
    {
      "midi": 67,
      "hit": false,
      "t": 54000,
      "d": 150,
      "v": 77
    },
    {
      "midi": 69,
      "hit": false,
      "t": 54150,
      "d": 150,
      "v": 81
    },
    {
      "midi": 70,
      "hit": false,
      "t": 54300,
      "d": 150,
      "v": 79
    },
    {
      "midi": 72,
      "hit": false,
      "t": 54450,
      "d": 150,
      "v": 80
    },
    {
      "midi": 74,
      "hit": false,
      "t": 54600,
      "d": 150,
      "v": 86
    },
    {
      "midi": 76,
      "hit": false,
      "t": 54750,
      "d": 150,
      "v": 86
    },
    {
      "midi": 77,
      "hit": false,
      "t": 54900,
      "d": 150,
      "v": 81
    },
    {
      "midi": 79,
      "hit": false,
      "t": 55050,
      "d": 150,
      "v": 84
    },
    {
      "midi": 72,
      "hit": false,
      "t": 55200,
      "d": 1200,
      "v": 84
    },
    {
      "midi": 77,
      "hit": false,
      "t": 55200,
      "d": 1200,
      "v": 84
    },
    {
      "midi": 81,
      "hit": false,
      "t": 55200,
      "d": 1200,
      "v": 84
    },
    {
      "midi": 36,
      "hit": false,
      "t": 55200,
      "d": 300,
      "v": 75
    },
    {
      "midi": 48,
      "hit": false,
      "t": 55200,
      "d": 300,
      "v": 75
    },
    {
      "midi": 57,
      "hit": false,
      "t": 55500,
      "d": 600,
      "v": 73
    },
    {
      "midi": 60,
      "hit": false,
      "t": 55500,
      "d": 600,
      "v": 73
    },
    {
      "midi": 65,
      "hit": false,
      "t": 55500,
      "d": 600,
      "v": 73
    },
    {
      "midi": 57,
      "hit": false,
      "t": 56100,
      "d": 300,
      "v": 75
    },
    {
      "midi": 60,
      "hit": false,
      "t": 56100,
      "d": 300,
      "v": 75
    },
    {
      "midi": 65,
      "hit": false,
      "t": 56100,
      "d": 300,
      "v": 75
    },
    {
      "midi": 72,
      "hit": false,
      "t": 56400,
      "d": 1200,
      "v": 72
    },
    {
      "midi": 76,
      "hit": false,
      "t": 56400,
      "d": 1200,
      "v": 72
    },
    {
      "midi": 79,
      "hit": false,
      "t": 56400,
      "d": 1200,
      "v": 72
    },
    {
      "midi": 36,
      "hit": false,
      "t": 56400,
      "d": 300,
      "v": 78
    },
    {
      "midi": 48,
      "hit": false,
      "t": 56400,
      "d": 300,
      "v": 78
    },
    {
      "midi": 55,
      "hit": false,
      "t": 56700,
      "d": 300,
      "v": 71
    },
    {
      "midi": 60,
      "hit": false,
      "t": 56700,
      "d": 300,
      "v": 71
    },
    {
      "midi": 64,
      "hit": false,
      "t": 56700,
      "d": 300,
      "v": 71
    },
    {
      "midi": 55,
      "hit": false,
      "t": 57000,
      "d": 300,
      "v": 77
    },
    {
      "midi": 60,
      "hit": false,
      "t": 57000,
      "d": 300,
      "v": 77
    },
    {
      "midi": 64,
      "hit": false,
      "t": 57000,
      "d": 300,
      "v": 77
    },
    {
      "midi": 36,
      "hit": false,
      "t": 57300,
      "d": 300,
      "v": 77
    },
    {
      "midi": 48,
      "hit": false,
      "t": 57300,
      "d": 300,
      "v": 77
    },
    {
      "midi": 41,
      "hit": false,
      "t": 57600,
      "d": 300,
      "v": 74
    },
    {
      "midi": 48,
      "hit": false,
      "t": 57900,
      "d": 300,
      "v": 67
    },
    {
      "midi": 60,
      "hit": false,
      "t": 58200,
      "d": 900,
      "v": 68
    },
    {
      "midi": 53,
      "hit": false,
      "t": 58200,
      "d": 1200,
      "v": 83
    },
    {
      "midi": 72,
      "hit": false,
      "t": 59100,
      "d": 600,
      "v": 97
    },
    {
      "midi": 69,
      "hit": false,
      "t": 59700,
      "d": 300,
      "v": 71
    },
    {
      "midi": 67,
      "hit": false,
      "t": 60000,
      "d": 1200,
      "v": 68
    },
    {
      "midi": 46,
      "hit": false,
      "t": 60000,
      "d": 300,
      "v": 77
    },
    {
      "midi": 55,
      "hit": false,
      "t": 60300,
      "d": 300,
      "v": 68
    },
    {
      "midi": 58,
      "hit": false,
      "t": 60600,
      "d": 1200,
      "v": 78
    },
    {
      "midi": 62,
      "hit": false,
      "t": 61200,
      "d": 600,
      "v": 69
    },
    {
      "midi": 58,
      "hit": false,
      "t": 61800,
      "d": 600,
      "v": 76
    },
    {
      "midi": 48,
      "hit": false,
      "t": 62400,
      "d": 300,
      "v": 81
    },
    {
      "midi": 55,
      "hit": false,
      "t": 62700,
      "d": 300,
      "v": 66
    },
    {
      "midi": 60,
      "hit": false,
      "t": 63000,
      "d": 600,
      "v": 67
    },
    {
      "midi": 60,
      "hit": false,
      "t": 63000,
      "d": 1200,
      "v": 84
    },
    {
      "midi": 72,
      "hit": false,
      "t": 63600,
      "d": 900,
      "v": 96
    },
    {
      "midi": 67,
      "hit": false,
      "t": 64500,
      "d": 300,
      "v": 71
    },
    {
      "midi": 65,
      "hit": false,
      "t": 64800,
      "d": 1200,
      "v": 69
    },
    {
      "midi": 41,
      "hit": false,
      "t": 64800,
      "d": 300,
      "v": 69
    },
    {
      "midi": 48,
      "hit": false,
      "t": 65100,
      "d": 300,
      "v": 70
    },
    {
      "midi": 53,
      "hit": false,
      "t": 65400,
      "d": 1200,
      "v": 81
    },
    {
      "midi": 57,
      "hit": false,
      "t": 66000,
      "d": 600,
      "v": 65
    },
    {
      "midi": 60,
      "hit": false,
      "t": 66600,
      "d": 600,
      "v": 80
    },
    {
      "midi": 33,
      "hit": false,
      "t": 67200,
      "d": 300,
      "v": 74
    },
    {
      "midi": 45,
      "hit": false,
      "t": 67200,
      "d": 300,
      "v": 74
    },
    {
      "midi": 48,
      "hit": false,
      "t": 67500,
      "d": 300,
      "v": 70
    },
    {
      "midi": 65,
      "hit": false,
      "t": 67800,
      "d": 600,
      "v": 65
    },
    {
      "midi": 69,
      "hit": false,
      "t": 67800,
      "d": 600,
      "v": 65
    },
    {
      "midi": 72,
      "hit": false,
      "t": 67800,
      "d": 600,
      "v": 65
    },
    {
      "midi": 77,
      "hit": false,
      "t": 67800,
      "d": 600,
      "v": 65
    },
    {
      "midi": 53,
      "hit": false,
      "t": 67800,
      "d": 300,
      "v": 81
    },
    {
      "midi": 57,
      "hit": false,
      "t": 67800,
      "d": 300,
      "v": 81
    },
    {
      "midi": 48,
      "hit": false,
      "t": 68100,
      "d": 300,
      "v": 74
    },
    {
      "midi": 77,
      "hit": false,
      "t": 68400,
      "d": 900,
      "v": 96
    },
    {
      "midi": 81,
      "hit": false,
      "t": 68400,
      "d": 900,
      "v": 96
    },
    {
      "midi": 84,
      "hit": false,
      "t": 68400,
      "d": 900,
      "v": 96
    },
    {
      "midi": 89,
      "hit": false,
      "t": 68400,
      "d": 900,
      "v": 96
    },
    {
      "midi": 57,
      "hit": false,
      "t": 68400,
      "d": 300,
      "v": 97
    },
    {
      "midi": 60,
      "hit": false,
      "t": 68400,
      "d": 300,
      "v": 97
    },
    {
      "midi": 53,
      "hit": false,
      "t": 68700,
      "d": 300,
      "v": 74
    },
    {
      "midi": 60,
      "hit": false,
      "t": 69000,
      "d": 300,
      "v": 94
    },
    {
      "midi": 65,
      "hit": false,
      "t": 69000,
      "d": 300,
      "v": 94
    },
    {
      "midi": 76,
      "hit": false,
      "t": 69300,
      "d": 300,
      "v": 80
    },
    {
      "midi": 81,
      "hit": false,
      "t": 69300,
      "d": 300,
      "v": 80
    },
    {
      "midi": 84,
      "hit": false,
      "t": 69300,
      "d": 300,
      "v": 80
    },
    {
      "midi": 88,
      "hit": false,
      "t": 69300,
      "d": 300,
      "v": 80
    },
    {
      "midi": 57,
      "hit": false,
      "t": 69300,
      "d": 300,
      "v": 75
    },
    {
      "midi": 76,
      "hit": false,
      "t": 69600,
      "d": 1200,
      "v": 78
    },
    {
      "midi": 81,
      "hit": false,
      "t": 69600,
      "d": 1200,
      "v": 78
    },
    {
      "midi": 84,
      "hit": false,
      "t": 69600,
      "d": 1200,
      "v": 78
    },
    {
      "midi": 88,
      "hit": false,
      "t": 69600,
      "d": 1200,
      "v": 78
    },
    {
      "midi": 34,
      "hit": false,
      "t": 69600,
      "d": 300,
      "v": 81
    },
    {
      "midi": 46,
      "hit": false,
      "t": 69600,
      "d": 300,
      "v": 81
    },
    {
      "midi": 50,
      "hit": false,
      "t": 69900,
      "d": 300,
      "v": 69
    },
    {
      "midi": 53,
      "hit": false,
      "t": 70200,
      "d": 300,
      "v": 81
    },
    {
      "midi": 58,
      "hit": false,
      "t": 70200,
      "d": 300,
      "v": 81
    },
    {
      "midi": 50,
      "hit": false,
      "t": 70500,
      "d": 300,
      "v": 75
    },
    {
      "midi": 74,
      "hit": false,
      "t": 70800,
      "d": 1200,
      "v": 76
    },
    {
      "midi": 77,
      "hit": false,
      "t": 70800,
      "d": 1200,
      "v": 76
    },
    {
      "midi": 82,
      "hit": false,
      "t": 70800,
      "d": 1200,
      "v": 76
    },
    {
      "midi": 86,
      "hit": false,
      "t": 70800,
      "d": 1200,
      "v": 76
    },
    {
      "midi": 58,
      "hit": false,
      "t": 70800,
      "d": 300,
      "v": 97
    },
    {
      "midi": 62,
      "hit": false,
      "t": 70800,
      "d": 300,
      "v": 97
    },
    {
      "midi": 53,
      "hit": false,
      "t": 71100,
      "d": 300,
      "v": 74
    },
    {
      "midi": 62,
      "hit": false,
      "t": 71400,
      "d": 300,
      "v": 94
    },
    {
      "midi": 65,
      "hit": false,
      "t": 71400,
      "d": 300,
      "v": 94
    },
    {
      "midi": 58,
      "hit": false,
      "t": 71700,
      "d": 300,
      "v": 70
    },
    {
      "midi": 36,
      "hit": false,
      "t": 72000,
      "d": 300,
      "v": 76
    },
    {
      "midi": 43,
      "hit": false,
      "t": 72300,
      "d": 300,
      "v": 69
    },
    {
      "midi": 72,
      "hit": false,
      "t": 72600,
      "d": 600,
      "v": 66
    },
    {
      "midi": 76,
      "hit": false,
      "t": 72600,
      "d": 600,
      "v": 66
    },
    {
      "midi": 79,
      "hit": false,
      "t": 72600,
      "d": 600,
      "v": 66
    },
    {
      "midi": 84,
      "hit": false,
      "t": 72600,
      "d": 600,
      "v": 66
    },
    {
      "midi": 52,
      "hit": false,
      "t": 72600,
      "d": 300,
      "v": 87
    },
    {
      "midi": 55,
      "hit": false,
      "t": 72600,
      "d": 300,
      "v": 87
    },
    {
      "midi": 48,
      "hit": false,
      "t": 72900,
      "d": 300,
      "v": 70
    },
    {
      "midi": 81,
      "hit": false,
      "t": 73200,
      "d": 900,
      "v": 89
    },
    {
      "midi": 84,
      "hit": false,
      "t": 73200,
      "d": 900,
      "v": 89
    },
    {
      "midi": 88,
      "hit": false,
      "t": 73200,
      "d": 900,
      "v": 89
    },
    {
      "midi": 93,
      "hit": false,
      "t": 73200,
      "d": 900,
      "v": 89
    },
    {
      "midi": 55,
      "hit": false,
      "t": 73200,
      "d": 300,
      "v": 96
    },
    {
      "midi": 60,
      "hit": false,
      "t": 73200,
      "d": 300,
      "v": 96
    },
    {
      "midi": 52,
      "hit": false,
      "t": 73500,
      "d": 300,
      "v": 69
    },
    {
      "midi": 60,
      "hit": false,
      "t": 73800,
      "d": 300,
      "v": 96
    },
    {
      "midi": 64,
      "hit": false,
      "t": 73800,
      "d": 300,
      "v": 96
    },
    {
      "midi": 79,
      "hit": false,
      "t": 74100,
      "d": 300,
      "v": 76
    },
    {
      "midi": 84,
      "hit": false,
      "t": 74100,
      "d": 300,
      "v": 76
    },
    {
      "midi": 88,
      "hit": false,
      "t": 74100,
      "d": 300,
      "v": 76
    },
    {
      "midi": 91,
      "hit": false,
      "t": 74100,
      "d": 300,
      "v": 76
    },
    {
      "midi": 55,
      "hit": false,
      "t": 74100,
      "d": 300,
      "v": 76
    },
    {
      "midi": 77,
      "hit": false,
      "t": 74400,
      "d": 1200,
      "v": 73
    },
    {
      "midi": 81,
      "hit": false,
      "t": 74400,
      "d": 1200,
      "v": 73
    },
    {
      "midi": 84,
      "hit": false,
      "t": 74400,
      "d": 1200,
      "v": 73
    },
    {
      "midi": 89,
      "hit": false,
      "t": 74400,
      "d": 1200,
      "v": 73
    },
    {
      "midi": 41,
      "hit": false,
      "t": 74400,
      "d": 600,
      "v": 73
    },
    {
      "midi": 53,
      "hit": false,
      "t": 74400,
      "d": 600,
      "v": 73
    },
    {
      "midi": 48,
      "hit": false,
      "t": 75000,
      "d": 300,
      "v": 73
    },
    {
      "midi": 53,
      "hit": false,
      "t": 75300,
      "d": 300,
      "v": 83
    },
    {
      "midi": 57,
      "hit": false,
      "t": 75600,
      "d": 1200,
      "v": 53
    },
    {
      "midi": 60,
      "hit": false,
      "t": 75600,
      "d": 1200,
      "v": 53
    },
    {
      "midi": 65,
      "hit": false,
      "t": 75600,
      "d": 1200,
      "v": 53
    },
    {
      "midi": 53,
      "hit": false,
      "t": 75600,
      "d": 1200,
      "v": 78
    },
    {
      "midi": 65,
      "hit": false,
      "t": 76800,
      "d": 1200,
      "v": 87
    },
    {
      "midi": 69,
      "hit": false,
      "t": 76800,
      "d": 1200,
      "v": 87
    },
    {
      "midi": 74,
      "hit": false,
      "t": 76800,
      "d": 1200,
      "v": 87
    },
    {
      "midi": 38,
      "hit": false,
      "t": 76800,
      "d": 600,
      "v": 78
    },
    {
      "midi": 50,
      "hit": false,
      "t": 76800,
      "d": 600,
      "v": 78
    },
    {
      "midi": 53,
      "hit": false,
      "t": 77400,
      "d": 150,
      "v": 66
    },
    {
      "midi": 57,
      "hit": false,
      "t": 77400,
      "d": 150,
      "v": 66
    },
    {
      "midi": 62,
      "hit": false,
      "t": 77400,
      "d": 150,
      "v": 66
    },
    {
      "midi": 53,
      "hit": false,
      "t": 77550,
      "d": 150,
      "v": 74
    },
    {
      "midi": 57,
      "hit": false,
      "t": 77550,
      "d": 150,
      "v": 74
    },
    {
      "midi": 62,
      "hit": false,
      "t": 77550,
      "d": 150,
      "v": 74
    },
    {
      "midi": 53,
      "hit": false,
      "t": 77700,
      "d": 300,
      "v": 79
    },
    {
      "midi": 57,
      "hit": false,
      "t": 77700,
      "d": 300,
      "v": 79
    },
    {
      "midi": 62,
      "hit": false,
      "t": 77700,
      "d": 300,
      "v": 79
    },
    {
      "midi": 69,
      "hit": false,
      "t": 78000,
      "d": 1200,
      "v": 83
    },
    {
      "midi": 72,
      "hit": false,
      "t": 78000,
      "d": 1200,
      "v": 83
    },
    {
      "midi": 76,
      "hit": false,
      "t": 78000,
      "d": 1200,
      "v": 83
    },
    {
      "midi": 53,
      "hit": false,
      "t": 78000,
      "d": 600,
      "v": 75
    },
    {
      "midi": 57,
      "hit": false,
      "t": 78000,
      "d": 600,
      "v": 75
    },
    {
      "midi": 62,
      "hit": false,
      "t": 78000,
      "d": 600,
      "v": 75
    },
    {
      "midi": 53,
      "hit": false,
      "t": 78600,
      "d": 600,
      "v": 75
    },
    {
      "midi": 57,
      "hit": false,
      "t": 78600,
      "d": 600,
      "v": 75
    },
    {
      "midi": 62,
      "hit": false,
      "t": 78600,
      "d": 600,
      "v": 75
    },
    {
      "midi": 65,
      "hit": false,
      "t": 79200,
      "d": 199.21875,
      "v": 100
    },
    {
      "midi": 69,
      "hit": false,
      "t": 79200,
      "d": 199.21875,
      "v": 100
    },
    {
      "midi": 74,
      "hit": false,
      "t": 79200,
      "d": 199.21875,
      "v": 100
    },
    {
      "midi": 38,
      "hit": false,
      "t": 79200,
      "d": 600,
      "v": 80
    },
    {
      "midi": 50,
      "hit": false,
      "t": 79200,
      "d": 600,
      "v": 80
    },
    {
      "midi": 65,
      "hit": false,
      "t": 79399.21875,
      "d": 199.21875,
      "v": 100
    },
    {
      "midi": 69,
      "hit": false,
      "t": 79399.21875,
      "d": 199.21875,
      "v": 100
    },
    {
      "midi": 74,
      "hit": false,
      "t": 79399.21875,
      "d": 199.21875,
      "v": 100
    },
    {
      "midi": 65,
      "hit": false,
      "t": 79598.4375,
      "d": 201.5625,
      "v": 100
    },
    {
      "midi": 69,
      "hit": false,
      "t": 79598.4375,
      "d": 201.5625,
      "v": 100
    },
    {
      "midi": 74,
      "hit": false,
      "t": 79598.4375,
      "d": 201.5625,
      "v": 100
    },
    {
      "midi": 69,
      "hit": false,
      "t": 79800,
      "d": 300,
      "v": 79
    },
    {
      "midi": 74,
      "hit": false,
      "t": 79800,
      "d": 300,
      "v": 79
    },
    {
      "midi": 77,
      "hit": false,
      "t": 79800,
      "d": 300,
      "v": 79
    },
    {
      "midi": 53,
      "hit": false,
      "t": 79800,
      "d": 150,
      "v": 67
    },
    {
      "midi": 57,
      "hit": false,
      "t": 79800,
      "d": 150,
      "v": 67
    },
    {
      "midi": 62,
      "hit": false,
      "t": 79800,
      "d": 150,
      "v": 67
    },
    {
      "midi": 53,
      "hit": false,
      "t": 79950,
      "d": 150,
      "v": 74
    },
    {
      "midi": 57,
      "hit": false,
      "t": 79950,
      "d": 150,
      "v": 74
    },
    {
      "midi": 62,
      "hit": false,
      "t": 79950,
      "d": 150,
      "v": 74
    },
    {
      "midi": 69,
      "hit": false,
      "t": 80100,
      "d": 300,
      "v": 75
    },
    {
      "midi": 72,
      "hit": false,
      "t": 80100,
      "d": 300,
      "v": 75
    },
    {
      "midi": 76,
      "hit": false,
      "t": 80100,
      "d": 300,
      "v": 75
    },
    {
      "midi": 53,
      "hit": false,
      "t": 80100,
      "d": 300,
      "v": 74
    },
    {
      "midi": 57,
      "hit": false,
      "t": 80100,
      "d": 300,
      "v": 74
    },
    {
      "midi": 62,
      "hit": false,
      "t": 80100,
      "d": 300,
      "v": 74
    },
    {
      "midi": 65,
      "hit": false,
      "t": 80400,
      "d": 300,
      "v": 65
    },
    {
      "midi": 69,
      "hit": false,
      "t": 80400,
      "d": 300,
      "v": 65
    },
    {
      "midi": 72,
      "hit": false,
      "t": 80400,
      "d": 300,
      "v": 65
    },
    {
      "midi": 53,
      "hit": false,
      "t": 80400,
      "d": 600,
      "v": 71
    },
    {
      "midi": 57,
      "hit": false,
      "t": 80400,
      "d": 600,
      "v": 71
    },
    {
      "midi": 62,
      "hit": false,
      "t": 80400,
      "d": 600,
      "v": 71
    },
    {
      "midi": 65,
      "hit": false,
      "t": 80700,
      "d": 900,
      "v": 79
    },
    {
      "midi": 69,
      "hit": false,
      "t": 80700,
      "d": 900,
      "v": 79
    },
    {
      "midi": 74,
      "hit": false,
      "t": 80700,
      "d": 900,
      "v": 79
    },
    {
      "midi": 53,
      "hit": false,
      "t": 81000,
      "d": 600,
      "v": 77
    },
    {
      "midi": 57,
      "hit": false,
      "t": 81000,
      "d": 600,
      "v": 77
    },
    {
      "midi": 62,
      "hit": false,
      "t": 81000,
      "d": 600,
      "v": 77
    },
    {
      "midi": 38,
      "hit": false,
      "t": 81600,
      "d": 600,
      "v": 78
    },
    {
      "midi": 50,
      "hit": false,
      "t": 81600,
      "d": 600,
      "v": 78
    },
    {
      "midi": 69,
      "hit": false,
      "t": 82200,
      "d": 600,
      "v": 67
    },
    {
      "midi": 74,
      "hit": false,
      "t": 82200,
      "d": 600,
      "v": 67
    },
    {
      "midi": 77,
      "hit": false,
      "t": 82200,
      "d": 600,
      "v": 67
    },
    {
      "midi": 53,
      "hit": false,
      "t": 82200,
      "d": 150,
      "v": 66
    },
    {
      "midi": 57,
      "hit": false,
      "t": 82200,
      "d": 150,
      "v": 66
    },
    {
      "midi": 62,
      "hit": false,
      "t": 82200,
      "d": 150,
      "v": 66
    },
    {
      "midi": 53,
      "hit": false,
      "t": 82350,
      "d": 150,
      "v": 74
    },
    {
      "midi": 57,
      "hit": false,
      "t": 82350,
      "d": 150,
      "v": 74
    },
    {
      "midi": 62,
      "hit": false,
      "t": 82350,
      "d": 150,
      "v": 74
    },
    {
      "midi": 53,
      "hit": false,
      "t": 82500,
      "d": 300,
      "v": 76
    },
    {
      "midi": 57,
      "hit": false,
      "t": 82500,
      "d": 300,
      "v": 76
    },
    {
      "midi": 62,
      "hit": false,
      "t": 82500,
      "d": 300,
      "v": 76
    },
    {
      "midi": 69,
      "hit": false,
      "t": 82800,
      "d": 600,
      "v": 74
    },
    {
      "midi": 72,
      "hit": false,
      "t": 82800,
      "d": 600,
      "v": 74
    },
    {
      "midi": 76,
      "hit": false,
      "t": 82800,
      "d": 600,
      "v": 74
    },
    {
      "midi": 53,
      "hit": false,
      "t": 82800,
      "d": 600,
      "v": 73
    },
    {
      "midi": 57,
      "hit": false,
      "t": 82800,
      "d": 600,
      "v": 73
    },
    {
      "midi": 62,
      "hit": false,
      "t": 82800,
      "d": 600,
      "v": 73
    },
    {
      "midi": 65,
      "hit": false,
      "t": 83400,
      "d": 600,
      "v": 67
    },
    {
      "midi": 69,
      "hit": false,
      "t": 83400,
      "d": 600,
      "v": 67
    },
    {
      "midi": 72,
      "hit": false,
      "t": 83400,
      "d": 600,
      "v": 67
    },
    {
      "midi": 53,
      "hit": false,
      "t": 83400,
      "d": 600,
      "v": 78
    },
    {
      "midi": 57,
      "hit": false,
      "t": 83400,
      "d": 600,
      "v": 78
    },
    {
      "midi": 62,
      "hit": false,
      "t": 83400,
      "d": 600,
      "v": 78
    },
    {
      "midi": 65,
      "hit": false,
      "t": 84000,
      "d": 199.21875,
      "v": 100
    },
    {
      "midi": 69,
      "hit": false,
      "t": 84000,
      "d": 199.21875,
      "v": 100
    },
    {
      "midi": 74,
      "hit": false,
      "t": 84000,
      "d": 199.21875,
      "v": 100
    },
    {
      "midi": 38,
      "hit": false,
      "t": 84000,
      "d": 600,
      "v": 74
    },
    {
      "midi": 50,
      "hit": false,
      "t": 84000,
      "d": 600,
      "v": 74
    },
    {
      "midi": 65,
      "hit": false,
      "t": 84199.21875,
      "d": 199.21875,
      "v": 100
    },
    {
      "midi": 69,
      "hit": false,
      "t": 84199.21875,
      "d": 199.21875,
      "v": 100
    },
    {
      "midi": 74,
      "hit": false,
      "t": 84199.21875,
      "d": 199.21875,
      "v": 100
    },
    {
      "midi": 65,
      "hit": false,
      "t": 84398.4375,
      "d": 201.5625,
      "v": 100
    },
    {
      "midi": 69,
      "hit": false,
      "t": 84398.4375,
      "d": 201.5625,
      "v": 100
    },
    {
      "midi": 74,
      "hit": false,
      "t": 84398.4375,
      "d": 201.5625,
      "v": 100
    },
    {
      "midi": 69,
      "hit": false,
      "t": 84600,
      "d": 300,
      "v": 87
    },
    {
      "midi": 74,
      "hit": false,
      "t": 84600,
      "d": 300,
      "v": 87
    },
    {
      "midi": 77,
      "hit": false,
      "t": 84600,
      "d": 300,
      "v": 87
    },
    {
      "midi": 53,
      "hit": false,
      "t": 84600,
      "d": 150,
      "v": 67
    },
    {
      "midi": 57,
      "hit": false,
      "t": 84600,
      "d": 150,
      "v": 67
    },
    {
      "midi": 62,
      "hit": false,
      "t": 84600,
      "d": 150,
      "v": 67
    },
    {
      "midi": 53,
      "hit": false,
      "t": 84750,
      "d": 150,
      "v": 72
    },
    {
      "midi": 57,
      "hit": false,
      "t": 84750,
      "d": 150,
      "v": 72
    },
    {
      "midi": 62,
      "hit": false,
      "t": 84750,
      "d": 150,
      "v": 72
    },
    {
      "midi": 69,
      "hit": false,
      "t": 84900,
      "d": 300,
      "v": 74
    },
    {
      "midi": 72,
      "hit": false,
      "t": 84900,
      "d": 300,
      "v": 74
    },
    {
      "midi": 76,
      "hit": false,
      "t": 84900,
      "d": 300,
      "v": 74
    },
    {
      "midi": 53,
      "hit": false,
      "t": 84900,
      "d": 300,
      "v": 78
    },
    {
      "midi": 57,
      "hit": false,
      "t": 84900,
      "d": 300,
      "v": 78
    },
    {
      "midi": 62,
      "hit": false,
      "t": 84900,
      "d": 300,
      "v": 78
    },
    {
      "midi": 65,
      "hit": false,
      "t": 85200,
      "d": 300,
      "v": 65
    },
    {
      "midi": 69,
      "hit": false,
      "t": 85200,
      "d": 300,
      "v": 65
    },
    {
      "midi": 72,
      "hit": false,
      "t": 85200,
      "d": 300,
      "v": 65
    },
    {
      "midi": 53,
      "hit": false,
      "t": 85200,
      "d": 600,
      "v": 79
    },
    {
      "midi": 57,
      "hit": false,
      "t": 85200,
      "d": 600,
      "v": 79
    },
    {
      "midi": 62,
      "hit": false,
      "t": 85200,
      "d": 600,
      "v": 79
    },
    {
      "midi": 65,
      "hit": false,
      "t": 85500,
      "d": 900,
      "v": 81
    },
    {
      "midi": 69,
      "hit": false,
      "t": 85500,
      "d": 900,
      "v": 81
    },
    {
      "midi": 74,
      "hit": false,
      "t": 85500,
      "d": 900,
      "v": 81
    },
    {
      "midi": 53,
      "hit": false,
      "t": 85800,
      "d": 600,
      "v": 78
    },
    {
      "midi": 57,
      "hit": false,
      "t": 85800,
      "d": 600,
      "v": 78
    },
    {
      "midi": 62,
      "hit": false,
      "t": 85800,
      "d": 600,
      "v": 78
    },
    {
      "midi": 79,
      "hit": false,
      "t": 86400,
      "d": 600,
      "v": 90
    },
    {
      "midi": 78,
      "hit": false,
      "t": 87000,
      "d": 300,
      "v": 70
    },
    {
      "midi": 74,
      "hit": false,
      "t": 87300,
      "d": 300,
      "v": 60
    },
    {
      "midi": 76,
      "hit": false,
      "t": 87600,
      "d": 300,
      "v": 77
    },
    {
      "midi": 40,
      "hit": false,
      "t": 87600,
      "d": 1200,
      "v": 74
    },
    {
      "midi": 52,
      "hit": false,
      "t": 87600,
      "d": 1200,
      "v": 74
    },
    {
      "midi": 79,
      "hit": false,
      "t": 87900,
      "d": 150,
      "v": 85
    },
    {
      "midi": 78,
      "hit": false,
      "t": 88050,
      "d": 150,
      "v": 75
    },
    {
      "midi": 74,
      "hit": false,
      "t": 88200,
      "d": 300,
      "v": 67
    },
    {
      "midi": 76,
      "hit": false,
      "t": 88500,
      "d": 300,
      "v": 81
    },
    {
      "midi": 38,
      "hit": false,
      "t": 88800,
      "d": 1200,
      "v": 76
    },
    {
      "midi": 50,
      "hit": false,
      "t": 88800,
      "d": 1200,
      "v": 76
    },
    {
      "midi": 79,
      "hit": false,
      "t": 89100,
      "d": 300,
      "v": 65
    },
    {
      "midi": 78,
      "hit": false,
      "t": 89400,
      "d": 300,
      "v": 73
    },
    {
      "midi": 74,
      "hit": false,
      "t": 89700,
      "d": 300,
      "v": 65
    },
    {
      "midi": 76,
      "hit": false,
      "t": 90000,
      "d": 300,
      "v": 84
    },
    {
      "midi": 37,
      "hit": false,
      "t": 90000,
      "d": 1200,
      "v": 74
    },
    {
      "midi": 49,
      "hit": false,
      "t": 90000,
      "d": 1200,
      "v": 74
    },
    {
      "midi": 79,
      "hit": false,
      "t": 90300,
      "d": 150,
      "v": 86
    },
    {
      "midi": 78,
      "hit": false,
      "t": 90450,
      "d": 150,
      "v": 77
    },
    {
      "midi": 79,
      "hit": false,
      "t": 90600,
      "d": 300,
      "v": 79
    },
    {
      "midi": 81,
      "hit": false,
      "t": 90900,
      "d": 300,
      "v": 85
    },
    {
      "midi": 38,
      "hit": false,
      "t": 91200,
      "d": 2400,
      "v": 80
    },
    {
      "midi": 50,
      "hit": false,
      "t": 91200,
      "d": 2400,
      "v": 80
    },
    {
      "midi": 83,
      "hit": false,
      "t": 91500,
      "d": 300,
      "v": 67
    },
    {
      "midi": 81,
      "hit": false,
      "t": 91800,
      "d": 300,
      "v": 72
    },
    {
      "midi": 78,
      "hit": false,
      "t": 92100,
      "d": 150,
      "v": 69
    },
    {
      "midi": 79,
      "hit": false,
      "t": 92250,
      "d": 150,
      "v": 75
    },
    {
      "midi": 81,
      "hit": false,
      "t": 92400,
      "d": 300,
      "v": 81
    },
    {
      "midi": 79,
      "hit": false,
      "t": 92700,
      "d": 300,
      "v": 67
    },
    {
      "midi": 81,
      "hit": false,
      "t": 93300,
      "d": 300,
      "v": 68
    },
    {
      "midi": 38,
      "hit": false,
      "t": 93600,
      "d": 7200,
      "v": 74
    },
    {
      "midi": 50,
      "hit": false,
      "t": 93600,
      "d": 7200,
      "v": 74
    },
    {
      "midi": 79,
      "hit": false,
      "t": 93900,
      "d": 300,
      "v": 65
    },
    {
      "midi": 81,
      "hit": false,
      "t": 94200,
      "d": 300,
      "v": 82
    },
    {
      "midi": 83,
      "hit": false,
      "t": 94500,
      "d": 150,
      "v": 82
    },
    {
      "midi": 78,
      "hit": false,
      "t": 94650,
      "d": 150,
      "v": 65
    },
    {
      "midi": 79,
      "hit": false,
      "t": 94800,
      "d": 300,
      "v": 74
    },
    {
      "midi": 81,
      "hit": false,
      "t": 95100,
      "d": 900,
      "v": 82
    },
    {
      "midi": 81,
      "hit": false,
      "t": 96000,
      "d": 4800,
      "v": 77
    },
    {
      "midi": 43,
      "hit": false,
      "t": 100800,
      "d": 300,
      "v": 69
    },
    {
      "midi": 50,
      "hit": false,
      "t": 101100,
      "d": 300,
      "v": 67
    },
    {
      "midi": 62,
      "hit": false,
      "t": 101400,
      "d": 600,
      "v": 71
    },
    {
      "midi": 55,
      "hit": false,
      "t": 101400,
      "d": 300,
      "v": 82
    },
    {
      "midi": 57,
      "hit": false,
      "t": 101700,
      "d": 300,
      "v": 78
    },
    {
      "midi": 74,
      "hit": false,
      "t": 102000,
      "d": 900,
      "v": 95
    },
    {
      "midi": 55,
      "hit": false,
      "t": 102000,
      "d": 600,
      "v": 79
    },
    {
      "midi": 59,
      "hit": false,
      "t": 102000,
      "d": 600,
      "v": 79
    },
    {
      "midi": 55,
      "hit": false,
      "t": 102600,
      "d": 600,
      "v": 79
    },
    {
      "midi": 59,
      "hit": false,
      "t": 102600,
      "d": 600,
      "v": 79
    },
    {
      "midi": 71,
      "hit": false,
      "t": 102900,
      "d": 300,
      "v": 72
    },
    {
      "midi": 69,
      "hit": false,
      "t": 103200,
      "d": 2400,
      "v": 71
    },
    {
      "midi": 43,
      "hit": false,
      "t": 103200,
      "d": 300,
      "v": 73
    },
    {
      "midi": 52,
      "hit": false,
      "t": 103500,
      "d": 300,
      "v": 73
    },
    {
      "midi": 57,
      "hit": false,
      "t": 103800,
      "d": 300,
      "v": 79
    },
    {
      "midi": 59,
      "hit": false,
      "t": 104100,
      "d": 300,
      "v": 80
    },
    {
      "midi": 57,
      "hit": false,
      "t": 104400,
      "d": 600,
      "v": 80
    },
    {
      "midi": 60,
      "hit": false,
      "t": 104400,
      "d": 600,
      "v": 80
    },
    {
      "midi": 57,
      "hit": false,
      "t": 105000,
      "d": 600,
      "v": 77
    },
    {
      "midi": 60,
      "hit": false,
      "t": 105000,
      "d": 600,
      "v": 77
    },
    {
      "midi": 38,
      "hit": false,
      "t": 105600,
      "d": 300,
      "v": 71
    },
    {
      "midi": 50,
      "hit": false,
      "t": 105900,
      "d": 300,
      "v": 69
    },
    {
      "midi": 62,
      "hit": false,
      "t": 106200,
      "d": 600,
      "v": 73
    },
    {
      "midi": 54,
      "hit": false,
      "t": 106200,
      "d": 300,
      "v": 77
    },
    {
      "midi": 55,
      "hit": false,
      "t": 106500,
      "d": 300,
      "v": 82
    },
    {
      "midi": 74,
      "hit": false,
      "t": 106800,
      "d": 900,
      "v": 96
    },
    {
      "midi": 54,
      "hit": false,
      "t": 106800,
      "d": 600,
      "v": 76
    },
    {
      "midi": 57,
      "hit": false,
      "t": 106800,
      "d": 600,
      "v": 76
    },
    {
      "midi": 54,
      "hit": false,
      "t": 107400,
      "d": 600,
      "v": 76
    },
    {
      "midi": 57,
      "hit": false,
      "t": 107400,
      "d": 600,
      "v": 76
    },
    {
      "midi": 69,
      "hit": false,
      "t": 107700,
      "d": 300,
      "v": 70
    },
    {
      "midi": 67,
      "hit": false,
      "t": 108000,
      "d": 2400,
      "v": 66
    },
    {
      "midi": 43,
      "hit": false,
      "t": 108000,
      "d": 300,
      "v": 80
    },
    {
      "midi": 50,
      "hit": false,
      "t": 108300,
      "d": 300,
      "v": 70
    },
    {
      "midi": 55,
      "hit": false,
      "t": 108600,
      "d": 300,
      "v": 78
    },
    {
      "midi": 57,
      "hit": false,
      "t": 108900,
      "d": 300,
      "v": 81
    },
    {
      "midi": 55,
      "hit": false,
      "t": 109200,
      "d": 600,
      "v": 81
    },
    {
      "midi": 59,
      "hit": false,
      "t": 109200,
      "d": 600,
      "v": 81
    },
    {
      "midi": 55,
      "hit": false,
      "t": 109800,
      "d": 600,
      "v": 74
    },
    {
      "midi": 59,
      "hit": false,
      "t": 109800,
      "d": 600,
      "v": 74
    },
    {
      "midi": 47,
      "hit": false,
      "t": 110400,
      "d": 300,
      "v": 79
    },
    {
      "midi": 55,
      "hit": false,
      "t": 110700,
      "d": 300,
      "v": 66
    },
    {
      "midi": 67,
      "hit": false,
      "t": 111000,
      "d": 600,
      "v": 68
    },
    {
      "midi": 59,
      "hit": false,
      "t": 111000,
      "d": 300,
      "v": 79
    },
    {
      "midi": 62,
      "hit": false,
      "t": 111300,
      "d": 300,
      "v": 85
    },
    {
      "midi": 79,
      "hit": false,
      "t": 111600,
      "d": 900,
      "v": 96
    },
    {
      "midi": 59,
      "hit": false,
      "t": 111600,
      "d": 600,
      "v": 87
    },
    {
      "midi": 62,
      "hit": false,
      "t": 111600,
      "d": 600,
      "v": 87
    },
    {
      "midi": 67,
      "hit": false,
      "t": 111600,
      "d": 600,
      "v": 87
    },
    {
      "midi": 59,
      "hit": false,
      "t": 112200,
      "d": 600,
      "v": 79
    },
    {
      "midi": 62,
      "hit": false,
      "t": 112200,
      "d": 600,
      "v": 79
    },
    {
      "midi": 67,
      "hit": false,
      "t": 112200,
      "d": 600,
      "v": 79
    },
    {
      "midi": 78,
      "hit": false,
      "t": 112500,
      "d": 300,
      "v": 76
    },
    {
      "midi": 78,
      "hit": false,
      "t": 112800,
      "d": 1200,
      "v": 79
    },
    {
      "midi": 36,
      "hit": false,
      "t": 112800,
      "d": 300,
      "v": 68
    },
    {
      "midi": 55,
      "hit": false,
      "t": 113100,
      "d": 300,
      "v": 69
    },
    {
      "midi": 60,
      "hit": false,
      "t": 113400,
      "d": 300,
      "v": 85
    },
    {
      "midi": 62,
      "hit": false,
      "t": 113700,
      "d": 300,
      "v": 77
    },
    {
      "midi": 76,
      "hit": false,
      "t": 114000,
      "d": 1200,
      "v": 76
    },
    {
      "midi": 60,
      "hit": false,
      "t": 114000,
      "d": 600,
      "v": 81
    },
    {
      "midi": 64,
      "hit": false,
      "t": 114000,
      "d": 600,
      "v": 81
    },
    {
      "midi": 60,
      "hit": false,
      "t": 114600,
      "d": 600,
      "v": 77
    },
    {
      "midi": 64,
      "hit": false,
      "t": 114600,
      "d": 600,
      "v": 77
    },
    {
      "midi": 38,
      "hit": false,
      "t": 115200,
      "d": 300,
      "v": 80
    },
    {
      "midi": 50,
      "hit": false,
      "t": 115500,
      "d": 300,
      "v": 65
    },
    {
      "midi": 74,
      "hit": false,
      "t": 115800,
      "d": 600,
      "v": 64
    },
    {
      "midi": 57,
      "hit": false,
      "t": 115800,
      "d": 300,
      "v": 84
    },
    {
      "midi": 50,
      "hit": false,
      "t": 116100,
      "d": 300,
      "v": 67
    },
    {
      "midi": 74,
      "hit": false,
      "t": 116400,
      "d": 900,
      "v": 91
    },
    {
      "midi": 83,
      "hit": false,
      "t": 116400,
      "d": 900,
      "v": 91
    },
    {
      "midi": 50,
      "hit": false,
      "t": 116400,
      "d": 600,
      "v": 92
    },
    {
      "midi": 57,
      "hit": false,
      "t": 116400,
      "d": 600,
      "v": 92
    },
    {
      "midi": 60,
      "hit": false,
      "t": 116400,
      "d": 600,
      "v": 92
    },
    {
      "midi": 50,
      "hit": false,
      "t": 117000,
      "d": 600,
      "v": 79
    },
    {
      "midi": 57,
      "hit": false,
      "t": 117000,
      "d": 600,
      "v": 79
    },
    {
      "midi": 60,
      "hit": false,
      "t": 117000,
      "d": 600,
      "v": 79
    },
    {
      "midi": 72,
      "hit": false,
      "t": 117300,
      "d": 300,
      "v": 74
    },
    {
      "midi": 81,
      "hit": false,
      "t": 117300,
      "d": 300,
      "v": 74
    },
    {
      "midi": 71,
      "hit": false,
      "t": 117600,
      "d": 2400,
      "v": 72
    },
    {
      "midi": 74,
      "hit": false,
      "t": 117600,
      "d": 2400,
      "v": 72
    },
    {
      "midi": 79,
      "hit": false,
      "t": 117600,
      "d": 2400,
      "v": 72
    },
    {
      "midi": 43,
      "hit": false,
      "t": 117600,
      "d": 300,
      "v": 84
    },
    {
      "midi": 50,
      "hit": false,
      "t": 117900,
      "d": 300,
      "v": 69
    },
    {
      "midi": 55,
      "hit": false,
      "t": 118200,
      "d": 300,
      "v": 80
    },
    {
      "midi": 57,
      "hit": false,
      "t": 118500,
      "d": 300,
      "v": 82
    },
    {
      "midi": 55,
      "hit": false,
      "t": 118800,
      "d": 1200,
      "v": 75
    },
    {
      "midi": 59,
      "hit": false,
      "t": 118800,
      "d": 1200,
      "v": 75
    },
    {
      "midi": 48,
      "hit": false,
      "t": 120000,
      "d": 300,
      "v": 70
    },
    {
      "midi": 55,
      "hit": false,
      "t": 120300,
      "d": 300,
      "v": 69
    },
    {
      "midi": 67,
      "hit": false,
      "t": 120600,
      "d": 600,
      "v": 67
    },
    {
      "midi": 60,
      "hit": false,
      "t": 120600,
      "d": 300,
      "v": 86
    },
    {
      "midi": 55,
      "hit": false,
      "t": 120900,
      "d": 300,
      "v": 70
    },
    {
      "midi": 79,
      "hit": false,
      "t": 121200,
      "d": 900,
      "v": 94
    },
    {
      "midi": 60,
      "hit": false,
      "t": 121200,
      "d": 600,
      "v": 92
    },
    {
      "midi": 64,
      "hit": false,
      "t": 121200,
      "d": 600,
      "v": 92
    },
    {
      "midi": 60,
      "hit": false,
      "t": 121800,
      "d": 600,
      "v": 77
    },
    {
      "midi": 64,
      "hit": false,
      "t": 121800,
      "d": 600,
      "v": 77
    },
    {
      "midi": 78,
      "hit": false,
      "t": 122100,
      "d": 300,
      "v": 81
    },
    {
      "midi": 67,
      "hit": false,
      "t": 122400,
      "d": 600,
      "v": 69
    },
    {
      "midi": 72,
      "hit": false,
      "t": 122400,
      "d": 600,
      "v": 69
    },
    {
      "midi": 76,
      "hit": false,
      "t": 122400,
      "d": 600,
      "v": 69
    },
    {
      "midi": 72,
      "hit": false,
      "t": 123000,
      "d": 600,
      "v": 78
    },
    {
      "midi": 76,
      "hit": false,
      "t": 123000,
      "d": 600,
      "v": 78
    },
    {
      "midi": 55,
      "hit": false,
      "t": 123000,
      "d": 600,
      "v": 68
    },
    {
      "midi": 72,
      "hit": false,
      "t": 123600,
      "d": 600,
      "v": 77
    },
    {
      "midi": 76,
      "hit": false,
      "t": 123600,
      "d": 600,
      "v": 77
    },
    {
      "midi": 66,
      "hit": false,
      "t": 123600,
      "d": 900,
      "v": 94
    },
    {
      "midi": 72,
      "hit": false,
      "t": 124200,
      "d": 600,
      "v": 78
    },
    {
      "midi": 76,
      "hit": false,
      "t": 124200,
      "d": 600,
      "v": 78
    },
    {
      "midi": 64,
      "hit": false,
      "t": 124500,
      "d": 300,
      "v": 73
    },
    {
      "midi": 62,
      "hit": false,
      "t": 124800,
      "d": 600,
      "v": 58
    },
    {
      "midi": 47,
      "hit": false,
      "t": 124800,
      "d": 300,
      "v": 79
    },
    {
      "midi": 54,
      "hit": false,
      "t": 125100,
      "d": 300,
      "v": 67
    },
    {
      "midi": 66,
      "hit": false,
      "t": 125400,
      "d": 600,
      "v": 86
    },
    {
      "midi": 59,
      "hit": false,
      "t": 125400,
      "d": 300,
      "v": 76
    },
    {
      "midi": 54,
      "hit": false,
      "t": 125700,
      "d": 300,
      "v": 73
    },
    {
      "midi": 78,
      "hit": false,
      "t": 126000,
      "d": 900,
      "v": 94
    },
    {
      "midi": 59,
      "hit": false,
      "t": 126000,
      "d": 600,
      "v": 92
    },
    {
      "midi": 62,
      "hit": false,
      "t": 126000,
      "d": 600,
      "v": 92
    },
    {
      "midi": 59,
      "hit": false,
      "t": 126600,
      "d": 600,
      "v": 77
    },
    {
      "midi": 62,
      "hit": false,
      "t": 126600,
      "d": 600,
      "v": 77
    },
    {
      "midi": 76,
      "hit": false,
      "t": 126900,
      "d": 300,
      "v": 73
    },
    {
      "midi": 66,
      "hit": false,
      "t": 127200,
      "d": 600,
      "v": 75
    },
    {
      "midi": 71,
      "hit": false,
      "t": 127200,
      "d": 600,
      "v": 75
    },
    {
      "midi": 74,
      "hit": false,
      "t": 127200,
      "d": 600,
      "v": 75
    },
    {
      "midi": 71,
      "hit": false,
      "t": 127800,
      "d": 600,
      "v": 81
    },
    {
      "midi": 74,
      "hit": false,
      "t": 127800,
      "d": 600,
      "v": 81
    },
    {
      "midi": 54,
      "hit": false,
      "t": 127800,
      "d": 600,
      "v": 69
    },
    {
      "midi": 71,
      "hit": false,
      "t": 128400,
      "d": 600,
      "v": 78
    },
    {
      "midi": 74,
      "hit": false,
      "t": 128400,
      "d": 600,
      "v": 78
    },
    {
      "midi": 64,
      "hit": false,
      "t": 128400,
      "d": 900,
      "v": 97
    },
    {
      "midi": 71,
      "hit": false,
      "t": 129000,
      "d": 600,
      "v": 73
    },
    {
      "midi": 74,
      "hit": false,
      "t": 129000,
      "d": 600,
      "v": 73
    },
    {
      "midi": 62,
      "hit": false,
      "t": 129300,
      "d": 300,
      "v": 74
    },
    {
      "midi": 60,
      "hit": false,
      "t": 129600,
      "d": 600,
      "v": 55
    },
    {
      "midi": 45,
      "hit": false,
      "t": 129600,
      "d": 300,
      "v": 70
    },
    {
      "midi": 52,
      "hit": false,
      "t": 129900,
      "d": 300,
      "v": 69
    },
    {
      "midi": 64,
      "hit": false,
      "t": 130200,
      "d": 600,
      "v": 75
    },
    {
      "midi": 57,
      "hit": false,
      "t": 130200,
      "d": 300,
      "v": 79
    },
    {
      "midi": 52,
      "hit": false,
      "t": 130500,
      "d": 300,
      "v": 73
    },
    {
      "midi": 76,
      "hit": false,
      "t": 130800,
      "d": 900,
      "v": 98
    },
    {
      "midi": 60,
      "hit": false,
      "t": 130800,
      "d": 600,
      "v": 94
    },
    {
      "midi": 64,
      "hit": false,
      "t": 130800,
      "d": 600,
      "v": 94
    },
    {
      "midi": 60,
      "hit": false,
      "t": 131400,
      "d": 600,
      "v": 80
    },
    {
      "midi": 64,
      "hit": false,
      "t": 131400,
      "d": 600,
      "v": 80
    },
    {
      "midi": 74,
      "hit": false,
      "t": 131700,
      "d": 300,
      "v": 79
    },
    {
      "midi": 72,
      "hit": false,
      "t": 132000,
      "d": 1200,
      "v": 70
    },
    {
      "midi": 43,
      "hit": false,
      "t": 132000,
      "d": 300,
      "v": 90
    },
    {
      "midi": 55,
      "hit": false,
      "t": 132300,
      "d": 300,
      "v": 68
    },
    {
      "midi": 60,
      "hit": false,
      "t": 132600,
      "d": 300,
      "v": 92
    },
    {
      "midi": 64,
      "hit": false,
      "t": 132600,
      "d": 300,
      "v": 92
    },
    {
      "midi": 55,
      "hit": false,
      "t": 132900,
      "d": 300,
      "v": 68
    },
    {
      "midi": 76,
      "hit": false,
      "t": 133200,
      "d": 1200,
      "v": 85
    },
    {
      "midi": 60,
      "hit": false,
      "t": 133200,
      "d": 300,
      "v": 92
    },
    {
      "midi": 64,
      "hit": false,
      "t": 133200,
      "d": 300,
      "v": 92
    },
    {
      "midi": 55,
      "hit": false,
      "t": 133500,
      "d": 300,
      "v": 73
    },
    {
      "midi": 60,
      "hit": false,
      "t": 133800,
      "d": 300,
      "v": 89
    },
    {
      "midi": 64,
      "hit": false,
      "t": 133800,
      "d": 300,
      "v": 89
    },
    {
      "midi": 55,
      "hit": false,
      "t": 134100,
      "d": 300,
      "v": 70
    },
    {
      "midi": 71,
      "hit": false,
      "t": 134400,
      "d": 300,
      "v": 91
    },
    {
      "midi": 83,
      "hit": false,
      "t": 134400,
      "d": 300,
      "v": 91
    },
    {
      "midi": 38,
      "hit": false,
      "t": 134400,
      "d": 2400,
      "v": 73
    },
    {
      "midi": 50,
      "hit": false,
      "t": 134400,
      "d": 2400,
      "v": 73
    },
    {
      "midi": 74,
      "hit": false,
      "t": 134700,
      "d": 300,
      "v": 85
    },
    {
      "midi": 86,
      "hit": false,
      "t": 134700,
      "d": 300,
      "v": 85
    },
    {
      "midi": 74,
      "hit": false,
      "t": 135000,
      "d": 300,
      "v": 76
    },
    {
      "midi": 86,
      "hit": false,
      "t": 135000,
      "d": 300,
      "v": 76
    },
    {
      "midi": 78,
      "hit": false,
      "t": 135300,
      "d": 300,
      "v": 86
    },
    {
      "midi": 90,
      "hit": false,
      "t": 135300,
      "d": 300,
      "v": 86
    },
    {
      "midi": 74,
      "hit": false,
      "t": 135600,
      "d": 300,
      "v": 67
    },
    {
      "midi": 86,
      "hit": false,
      "t": 135600,
      "d": 300,
      "v": 67
    },
    {
      "midi": 78,
      "hit": false,
      "t": 135900,
      "d": 300,
      "v": 83
    },
    {
      "midi": 90,
      "hit": false,
      "t": 135900,
      "d": 300,
      "v": 83
    },
    {
      "midi": 78,
      "hit": false,
      "t": 136200,
      "d": 300,
      "v": 74
    },
    {
      "midi": 90,
      "hit": false,
      "t": 136200,
      "d": 300,
      "v": 74
    },
    {
      "midi": 83,
      "hit": false,
      "t": 136500,
      "d": 300,
      "v": 91
    },
    {
      "midi": 95,
      "hit": false,
      "t": 136500,
      "d": 300,
      "v": 91
    },
    {
      "midi": 83,
      "hit": false,
      "t": 136800,
      "d": 1200,
      "v": 77
    },
    {
      "midi": 95,
      "hit": false,
      "t": 136800,
      "d": 1200,
      "v": 77
    },
    {
      "midi": 38,
      "hit": false,
      "t": 136800,
      "d": 300,
      "v": 69
    },
    {
      "midi": 50,
      "hit": false,
      "t": 136800,
      "d": 300,
      "v": 69
    },
    {
      "midi": 59,
      "hit": false,
      "t": 137100,
      "d": 600,
      "v": 70
    },
    {
      "midi": 62,
      "hit": false,
      "t": 137100,
      "d": 600,
      "v": 70
    },
    {
      "midi": 67,
      "hit": false,
      "t": 137100,
      "d": 600,
      "v": 70
    },
    {
      "midi": 59,
      "hit": false,
      "t": 137700,
      "d": 300,
      "v": 77
    },
    {
      "midi": 62,
      "hit": false,
      "t": 137700,
      "d": 300,
      "v": 77
    },
    {
      "midi": 67,
      "hit": false,
      "t": 137700,
      "d": 300,
      "v": 77
    },
    {
      "midi": 81,
      "hit": false,
      "t": 138000,
      "d": 1200,
      "v": 73
    },
    {
      "midi": 86,
      "hit": false,
      "t": 138000,
      "d": 1200,
      "v": 73
    },
    {
      "midi": 90,
      "hit": false,
      "t": 138000,
      "d": 1200,
      "v": 73
    },
    {
      "midi": 93,
      "hit": false,
      "t": 138000,
      "d": 1200,
      "v": 73
    },
    {
      "midi": 38,
      "hit": false,
      "t": 138000,
      "d": 300,
      "v": 78
    },
    {
      "midi": 50,
      "hit": false,
      "t": 138000,
      "d": 300,
      "v": 78
    },
    {
      "midi": 57,
      "hit": false,
      "t": 138300,
      "d": 300,
      "v": 77
    },
    {
      "midi": 62,
      "hit": false,
      "t": 138300,
      "d": 300,
      "v": 77
    },
    {
      "midi": 66,
      "hit": false,
      "t": 138300,
      "d": 300,
      "v": 77
    },
    {
      "midi": 57,
      "hit": false,
      "t": 138600,
      "d": 300,
      "v": 77
    },
    {
      "midi": 62,
      "hit": false,
      "t": 138600,
      "d": 300,
      "v": 77
    },
    {
      "midi": 66,
      "hit": false,
      "t": 138600,
      "d": 300,
      "v": 77
    },
    {
      "midi": 38,
      "hit": false,
      "t": 138900,
      "d": 300,
      "v": 80
    },
    {
      "midi": 50,
      "hit": false,
      "t": 138900,
      "d": 300,
      "v": 80
    },
    {
      "midi": 43,
      "hit": false,
      "t": 139200,
      "d": 300,
      "v": 77
    },
    {
      "midi": 50,
      "hit": false,
      "t": 139500,
      "d": 300,
      "v": 65
    },
    {
      "midi": 62,
      "hit": false,
      "t": 139800,
      "d": 600,
      "v": 68
    },
    {
      "midi": 67,
      "hit": false,
      "t": 139800,
      "d": 600,
      "v": 68
    },
    {
      "midi": 71,
      "hit": false,
      "t": 139800,
      "d": 600,
      "v": 68
    },
    {
      "midi": 74,
      "hit": false,
      "t": 139800,
      "d": 600,
      "v": 68
    },
    {
      "midi": 55,
      "hit": false,
      "t": 139800,
      "d": 300,
      "v": 86
    },
    {
      "midi": 59,
      "hit": false,
      "t": 139800,
      "d": 300,
      "v": 86
    },
    {
      "midi": 50,
      "hit": false,
      "t": 140100,
      "d": 300,
      "v": 68
    },
    {
      "midi": 74,
      "hit": false,
      "t": 140400,
      "d": 900,
      "v": 94
    },
    {
      "midi": 79,
      "hit": false,
      "t": 140400,
      "d": 900,
      "v": 94
    },
    {
      "midi": 83,
      "hit": false,
      "t": 140400,
      "d": 900,
      "v": 94
    },
    {
      "midi": 86,
      "hit": false,
      "t": 140400,
      "d": 900,
      "v": 94
    },
    {
      "midi": 59,
      "hit": false,
      "t": 140400,
      "d": 300,
      "v": 99
    },
    {
      "midi": 62,
      "hit": false,
      "t": 140400,
      "d": 300,
      "v": 99
    },
    {
      "midi": 55,
      "hit": false,
      "t": 140700,
      "d": 300,
      "v": 76
    },
    {
      "midi": 62,
      "hit": false,
      "t": 141000,
      "d": 300,
      "v": 99
    },
    {
      "midi": 67,
      "hit": false,
      "t": 141000,
      "d": 300,
      "v": 99
    },
    {
      "midi": 71,
      "hit": false,
      "t": 141300,
      "d": 300,
      "v": 75
    },
    {
      "midi": 76,
      "hit": false,
      "t": 141300,
      "d": 300,
      "v": 75
    },
    {
      "midi": 79,
      "hit": false,
      "t": 141300,
      "d": 300,
      "v": 75
    },
    {
      "midi": 83,
      "hit": false,
      "t": 141300,
      "d": 300,
      "v": 75
    },
    {
      "midi": 59,
      "hit": false,
      "t": 141300,
      "d": 300,
      "v": 74
    },
    {
      "midi": 69,
      "hit": false,
      "t": 141600,
      "d": 1200,
      "v": 58
    },
    {
      "midi": 76,
      "hit": false,
      "t": 141600,
      "d": 1200,
      "v": 92
    },
    {
      "midi": 36,
      "hit": false,
      "t": 141600,
      "d": 300,
      "v": 69
    },
    {
      "midi": 48,
      "hit": false,
      "t": 141600,
      "d": 300,
      "v": 69
    },
    {
      "midi": 52,
      "hit": false,
      "t": 141900,
      "d": 300,
      "v": 66
    },
    {
      "midi": 57,
      "hit": false,
      "t": 142200,
      "d": 300,
      "v": 88
    },
    {
      "midi": 60,
      "hit": false,
      "t": 142200,
      "d": 300,
      "v": 88
    },
    {
      "midi": 52,
      "hit": false,
      "t": 142500,
      "d": 300,
      "v": 75
    },
    {
      "midi": 60,
      "hit": false,
      "t": 142800,
      "d": 300,
      "v": 96
    },
    {
      "midi": 64,
      "hit": false,
      "t": 142800,
      "d": 300,
      "v": 96
    },
    {
      "midi": 57,
      "hit": false,
      "t": 143100,
      "d": 300,
      "v": 77
    },
    {
      "midi": 64,
      "hit": false,
      "t": 143400,
      "d": 300,
      "v": 103
    },
    {
      "midi": 69,
      "hit": false,
      "t": 143400,
      "d": 300,
      "v": 103
    },
    {
      "midi": 60,
      "hit": false,
      "t": 143700,
      "d": 300,
      "v": 65
    },
    {
      "midi": 38,
      "hit": false,
      "t": 144000,
      "d": 300,
      "v": 79
    },
    {
      "midi": 45,
      "hit": false,
      "t": 144300,
      "d": 300,
      "v": 67
    },
    {
      "midi": 62,
      "hit": false,
      "t": 144600,
      "d": 600,
      "v": 68
    },
    {
      "midi": 66,
      "hit": false,
      "t": 144600,
      "d": 600,
      "v": 68
    },
    {
      "midi": 69,
      "hit": false,
      "t": 144600,
      "d": 600,
      "v": 68
    },
    {
      "midi": 74,
      "hit": false,
      "t": 144600,
      "d": 600,
      "v": 68
    },
    {
      "midi": 54,
      "hit": false,
      "t": 144600,
      "d": 300,
      "v": 81
    },
    {
      "midi": 57,
      "hit": false,
      "t": 144600,
      "d": 300,
      "v": 81
    },
    {
      "midi": 50,
      "hit": false,
      "t": 144900,
      "d": 300,
      "v": 72
    },
    {
      "midi": 74,
      "hit": false,
      "t": 145200,
      "d": 900,
      "v": 97
    },
    {
      "midi": 78,
      "hit": false,
      "t": 145200,
      "d": 900,
      "v": 97
    },
    {
      "midi": 81,
      "hit": false,
      "t": 145200,
      "d": 900,
      "v": 97
    },
    {
      "midi": 86,
      "hit": false,
      "t": 145200,
      "d": 900,
      "v": 97
    },
    {
      "midi": 57,
      "hit": false,
      "t": 145200,
      "d": 300,
      "v": 100
    },
    {
      "midi": 62,
      "hit": false,
      "t": 145200,
      "d": 300,
      "v": 100
    },
    {
      "midi": 54,
      "hit": false,
      "t": 145500,
      "d": 300,
      "v": 74
    },
    {
      "midi": 62,
      "hit": false,
      "t": 145800,
      "d": 300,
      "v": 93
    },
    {
      "midi": 66,
      "hit": false,
      "t": 145800,
      "d": 300,
      "v": 93
    },
    {
      "midi": 69,
      "hit": false,
      "t": 146100,
      "d": 300,
      "v": 68
    },
    {
      "midi": 74,
      "hit": false,
      "t": 146100,
      "d": 300,
      "v": 68
    },
    {
      "midi": 78,
      "hit": false,
      "t": 146100,
      "d": 300,
      "v": 68
    },
    {
      "midi": 81,
      "hit": false,
      "t": 146100,
      "d": 300,
      "v": 68
    },
    {
      "midi": 57,
      "hit": false,
      "t": 146100,
      "d": 300,
      "v": 73
    },
    {
      "midi": 67,
      "hit": false,
      "t": 146400,
      "d": 2400,
      "v": 68
    },
    {
      "midi": 71,
      "hit": false,
      "t": 146400,
      "d": 2400,
      "v": 68
    },
    {
      "midi": 74,
      "hit": false,
      "t": 146400,
      "d": 2400,
      "v": 68
    },
    {
      "midi": 79,
      "hit": false,
      "t": 146400,
      "d": 2400,
      "v": 68
    },
    {
      "midi": 43,
      "hit": false,
      "t": 146400,
      "d": 300,
      "v": 79
    },
    {
      "midi": 50,
      "hit": false,
      "t": 146700,
      "d": 300,
      "v": 67
    },
    {
      "midi": 55,
      "hit": false,
      "t": 147000,
      "d": 300,
      "v": 84
    },
    {
      "midi": 59,
      "hit": false,
      "t": 147000,
      "d": 300,
      "v": 84
    },
    {
      "midi": 50,
      "hit": false,
      "t": 147300,
      "d": 300,
      "v": 71
    },
    {
      "midi": 59,
      "hit": false,
      "t": 147600,
      "d": 300,
      "v": 94
    },
    {
      "midi": 62,
      "hit": false,
      "t": 147600,
      "d": 300,
      "v": 94
    },
    {
      "midi": 55,
      "hit": false,
      "t": 147900,
      "d": 300,
      "v": 73
    },
    {
      "midi": 62,
      "hit": false,
      "t": 148200,
      "d": 300,
      "v": 99
    },
    {
      "midi": 67,
      "hit": false,
      "t": 148200,
      "d": 300,
      "v": 99
    },
    {
      "midi": 59,
      "hit": false,
      "t": 148500,
      "d": 300,
      "v": 71
    },
    {
      "midi": 35,
      "hit": false,
      "t": 148800,
      "d": 300,
      "v": 67
    },
    {
      "midi": 47,
      "hit": false,
      "t": 148800,
      "d": 300,
      "v": 67
    },
    {
      "midi": 50,
      "hit": false,
      "t": 149100,
      "d": 300,
      "v": 66
    },
    {
      "midi": 67,
      "hit": false,
      "t": 149400,
      "d": 600,
      "v": 68
    },
    {
      "midi": 71,
      "hit": false,
      "t": 149400,
      "d": 600,
      "v": 68
    },
    {
      "midi": 74,
      "hit": false,
      "t": 149400,
      "d": 600,
      "v": 68
    },
    {
      "midi": 79,
      "hit": false,
      "t": 149400,
      "d": 600,
      "v": 68
    },
    {
      "midi": 55,
      "hit": false,
      "t": 149400,
      "d": 300,
      "v": 87
    },
    {
      "midi": 59,
      "hit": false,
      "t": 149400,
      "d": 300,
      "v": 87
    },
    {
      "midi": 50,
      "hit": false,
      "t": 149700,
      "d": 300,
      "v": 68
    },
    {
      "midi": 79,
      "hit": false,
      "t": 150000,
      "d": 900,
      "v": 99
    },
    {
      "midi": 83,
      "hit": false,
      "t": 150000,
      "d": 900,
      "v": 99
    },
    {
      "midi": 86,
      "hit": false,
      "t": 150000,
      "d": 900,
      "v": 99
    },
    {
      "midi": 91,
      "hit": false,
      "t": 150000,
      "d": 900,
      "v": 99
    },
    {
      "midi": 59,
      "hit": false,
      "t": 150000,
      "d": 300,
      "v": 95
    },
    {
      "midi": 62,
      "hit": false,
      "t": 150000,
      "d": 300,
      "v": 95
    },
    {
      "midi": 55,
      "hit": false,
      "t": 150300,
      "d": 300,
      "v": 74
    },
    {
      "midi": 62,
      "hit": false,
      "t": 150600,
      "d": 300,
      "v": 95
    },
    {
      "midi": 67,
      "hit": false,
      "t": 150600,
      "d": 300,
      "v": 95
    },
    {
      "midi": 78,
      "hit": false,
      "t": 150900,
      "d": 300,
      "v": 79
    },
    {
      "midi": 83,
      "hit": false,
      "t": 150900,
      "d": 300,
      "v": 79
    },
    {
      "midi": 86,
      "hit": false,
      "t": 150900,
      "d": 300,
      "v": 79
    },
    {
      "midi": 90,
      "hit": false,
      "t": 150900,
      "d": 300,
      "v": 79
    },
    {
      "midi": 59,
      "hit": false,
      "t": 150900,
      "d": 300,
      "v": 71
    },
    {
      "midi": 78,
      "hit": false,
      "t": 151200,
      "d": 1200,
      "v": 76
    },
    {
      "midi": 83,
      "hit": false,
      "t": 151200,
      "d": 1200,
      "v": 76
    },
    {
      "midi": 86,
      "hit": false,
      "t": 151200,
      "d": 1200,
      "v": 76
    },
    {
      "midi": 90,
      "hit": false,
      "t": 151200,
      "d": 1200,
      "v": 76
    },
    {
      "midi": 36,
      "hit": false,
      "t": 151200,
      "d": 300,
      "v": 81
    },
    {
      "midi": 48,
      "hit": false,
      "t": 151200,
      "d": 300,
      "v": 81
    },
    {
      "midi": 52,
      "hit": false,
      "t": 151500,
      "d": 300,
      "v": 63
    },
    {
      "midi": 55,
      "hit": false,
      "t": 151800,
      "d": 300,
      "v": 90
    },
    {
      "midi": 60,
      "hit": false,
      "t": 151800,
      "d": 300,
      "v": 90
    },
    {
      "midi": 52,
      "hit": false,
      "t": 152100,
      "d": 300,
      "v": 75
    },
    {
      "midi": 76,
      "hit": false,
      "t": 152400,
      "d": 1200,
      "v": 71
    },
    {
      "midi": 79,
      "hit": false,
      "t": 152400,
      "d": 1200,
      "v": 71
    },
    {
      "midi": 84,
      "hit": false,
      "t": 152400,
      "d": 1200,
      "v": 71
    },
    {
      "midi": 88,
      "hit": false,
      "t": 152400,
      "d": 1200,
      "v": 71
    },
    {
      "midi": 60,
      "hit": false,
      "t": 152400,
      "d": 300,
      "v": 102
    },
    {
      "midi": 64,
      "hit": false,
      "t": 152400,
      "d": 300,
      "v": 102
    },
    {
      "midi": 55,
      "hit": false,
      "t": 152700,
      "d": 300,
      "v": 71
    },
    {
      "midi": 64,
      "hit": false,
      "t": 153000,
      "d": 300,
      "v": 95
    },
    {
      "midi": 67,
      "hit": false,
      "t": 153000,
      "d": 300,
      "v": 95
    },
    {
      "midi": 60,
      "hit": false,
      "t": 153300,
      "d": 300,
      "v": 65
    },
    {
      "midi": 38,
      "hit": false,
      "t": 153600,
      "d": 300,
      "v": 75
    },
    {
      "midi": 50,
      "hit": false,
      "t": 153600,
      "d": 300,
      "v": 75
    },
    {
      "midi": 55,
      "hit": false,
      "t": 153900,
      "d": 300,
      "v": 68
    },
    {
      "midi": 74,
      "hit": false,
      "t": 154200,
      "d": 600,
      "v": 70
    },
    {
      "midi": 79,
      "hit": false,
      "t": 154200,
      "d": 600,
      "v": 70
    },
    {
      "midi": 83,
      "hit": false,
      "t": 154200,
      "d": 600,
      "v": 70
    },
    {
      "midi": 86,
      "hit": false,
      "t": 154200,
      "d": 600,
      "v": 70
    },
    {
      "midi": 59,
      "hit": false,
      "t": 154200,
      "d": 300,
      "v": 95
    },
    {
      "midi": 62,
      "hit": false,
      "t": 154200,
      "d": 300,
      "v": 95
    },
    {
      "midi": 67,
      "hit": false,
      "t": 154200,
      "d": 300,
      "v": 95
    },
    {
      "midi": 55,
      "hit": false,
      "t": 154500,
      "d": 300,
      "v": 73
    },
    {
      "midi": 83,
      "hit": false,
      "t": 154800,
      "d": 1200,
      "v": 97
    },
    {
      "midi": 86,
      "hit": false,
      "t": 154800,
      "d": 1200,
      "v": 97
    },
    {
      "midi": 91,
      "hit": false,
      "t": 154800,
      "d": 1200,
      "v": 97
    },
    {
      "midi": 95,
      "hit": false,
      "t": 154800,
      "d": 1200,
      "v": 97
    },
    {
      "midi": 59,
      "hit": false,
      "t": 154800,
      "d": 1200,
      "v": 96
    },
    {
      "midi": 62,
      "hit": false,
      "t": 154800,
      "d": 1200,
      "v": 96
    },
    {
      "midi": 67,
      "hit": false,
      "t": 154800,
      "d": 1200,
      "v": 96
    },
    {
      "midi": 86,
      "hit": false,
      "t": 156000,
      "d": 1200,
      "v": 63
    },
    {
      "midi": 93,
      "hit": false,
      "t": 156000,
      "d": 1200,
      "v": 69
    },
    {
      "midi": 38,
      "hit": false,
      "t": 156000,
      "d": 300,
      "v": 70
    },
    {
      "midi": 50,
      "hit": false,
      "t": 156000,
      "d": 300,
      "v": 70
    },
    {
      "midi": 54,
      "hit": false,
      "t": 156300,
      "d": 300,
      "v": 66
    },
    {
      "midi": 57,
      "hit": false,
      "t": 156600,
      "d": 300,
      "v": 98
    },
    {
      "midi": 62,
      "hit": false,
      "t": 156600,
      "d": 300,
      "v": 98
    },
    {
      "midi": 66,
      "hit": false,
      "t": 156600,
      "d": 300,
      "v": 98
    },
    {
      "midi": 54,
      "hit": false,
      "t": 156900,
      "d": 300,
      "v": 70
    },
    {
      "midi": 57,
      "hit": false,
      "t": 157200,
      "d": 300,
      "v": 101
    },
    {
      "midi": 62,
      "hit": false,
      "t": 157200,
      "d": 300,
      "v": 101
    },
    {
      "midi": 66,
      "hit": false,
      "t": 157200,
      "d": 300,
      "v": 101
    },
    {
      "midi": 54,
      "hit": false,
      "t": 157500,
      "d": 300,
      "v": 68
    },
    {
      "midi": 38,
      "hit": false,
      "t": 157800,
      "d": 600,
      "v": 75
    },
    {
      "midi": 50,
      "hit": false,
      "t": 157800,
      "d": 600,
      "v": 75
    },
    {
      "midi": 83,
      "hit": false,
      "t": 158400,
      "d": 600,
      "v": 67
    },
    {
      "midi": 86,
      "hit": false,
      "t": 158400,
      "d": 600,
      "v": 67
    },
    {
      "midi": 91,
      "hit": false,
      "t": 158400,
      "d": 600,
      "v": 67
    },
    {
      "midi": 31,
      "hit": false,
      "t": 158400,
      "d": 600,
      "v": 72
    },
    {
      "midi": 59,
      "hit": false,
      "t": 159000,
      "d": 300,
      "v": 53
    },
    {
      "midi": 62,
      "hit": false,
      "t": 159000,
      "d": 300,
      "v": 53
    },
    {
      "midi": 67,
      "hit": false,
      "t": 159000,
      "d": 300,
      "v": 53
    },
    {
      "midi": 43,
      "hit": false,
      "t": 159000,
      "d": 300,
      "v": 70
    },
    {
      "midi": 50,
      "hit": false,
      "t": 159000,
      "d": 300,
      "v": 70
    },
    {
      "midi": 55,
      "hit": false,
      "t": 159000,
      "d": 300,
      "v": 70
    },
    {
      "midi": 59,
      "hit": false,
      "t": 159300,
      "d": 1200,
      "v": 72
    },
    {
      "midi": 62,
      "hit": false,
      "t": 159300,
      "d": 1200,
      "v": 72
    },
    {
      "midi": 67,
      "hit": false,
      "t": 159300,
      "d": 1200,
      "v": 72
    },
    {
      "midi": 43,
      "hit": false,
      "t": 159300,
      "d": 1200,
      "v": 74
    },
    {
      "midi": 50,
      "hit": false,
      "t": 159300,
      "d": 1200,
      "v": 74
    },
    {
      "midi": 55,
      "hit": false,
      "t": 159300,
      "d": 1200,
      "v": 74
    }
  ]
}