{
  "jsonPath": "Soundtracks/Video Game Music/Legend of Zelda Oracle of Seasons/legend-of-zelda-oracle-of-ages-lynnacitypresent.json",
  "path": "Soundtracks\\Video Game Music\\Legend of Zelda Oracle of Seasons\\Legend_of_Zelda_Oracle_of_Ages_LynnaCityPresent.mid",
  "name": "Legend_of_Zelda_Oracle_of_Ages_LynnaCityPresent",
  "difficulty": "Intermediate",
  "bpm": 98.99993565004183,
  "notes": [
    {
      "midi": 52,
      "hit": false,
      "t": 0,
      "d": 606.0609999999999,
      "v": 127
    },
    {
      "midi": 67,
      "hit": false,
      "t": 0,
      "d": 606.0609999999999,
      "v": 127
    },
    {
      "midi": 48,
      "hit": false,
      "t": 606.0609999999999,
      "d": 606.0609999999999,
      "v": 127
    },
    {
      "midi": 72,
      "hit": false,
      "t": 606.0609999999999,
      "d": 606.0609999999999,
      "v": 127
    },
    {
      "midi": 53,
      "hit": false,
      "t": 1212.1219999999998,
      "d": 606.0609999999999,
      "v": 127
    },
    {
      "midi": 69,
      "hit": false,
      "t": 1212.1219999999998,
      "d": 606.0609999999999,
      "v": 127
    },
    {
      "midi": 50,
      "hit": false,
      "t": 1818.1829999999998,
      "d": 606.0609999999999,
      "v": 127
    },
    {
      "midi": 71,
      "hit": false,
      "t": 2121.2135,
      "d": 151.51524999999992,
      "v": 127
    },
    {
      "midi": 72,
      "hit": false,
      "t": 2272.7287499999998,
      "d": 151.51524999999992,
      "v": 127
    },
    {
      "midi": 55,
      "hit": false,
      "t": 2424.2439999999997,
      "d": 303.03049999999985,
      "v": 127
    },
    {
      "midi": 71,
      "hit": false,
      "t": 2424.2439999999997,
      "d": 303.03049999999985,
      "v": 127
    },
    {
      "midi": 53,
      "hit": false,
      "t": 2727.2744999999995,
      "d": 303.03049999999985,
      "v": 127
    },
    {
      "midi": 69,
      "hit": false,
      "t": 2727.2744999999995,
      "d": 303.03049999999985,
      "v": 127
    },
    {
      "midi": 52,
      "hit": false,
      "t": 3030.3049999999994,
      "d": 303.03049999999985,
      "v": 127
    },
    {
      "midi": 67,
      "hit": false,
      "t": 3030.3049999999994,
      "d": 303.03049999999985,
      "v": 127
    },
    {
      "midi": 50,
      "hit": false,
      "t": 3333.3354999999992,
      "d": 303.03049999999985,
      "v": 127
    },
    {
      "midi": 65,
      "hit": false,
      "t": 3333.3354999999992,
      "d": 303.03049999999985,
      "v": 127
    },
    {
      "midi": 48,
      "hit": false,
      "t": 3636.365999999999,
      "d": 303.03049999999985,
      "v": 127
    },
    {
      "midi": 64,
      "hit": false,
      "t": 3636.365999999999,
      "d": 303.03049999999985,
      "v": 127
    },
    {
      "midi": 50,
      "hit": false,
      "t": 3939.396499999999,
      "d": 303.03049999999985,
      "v": 127
    },
    {
      "midi": 65,
      "hit": false,
      "t": 3939.396499999999,
      "d": 303.03049999999985,
      "v": 127
    },
    {
      "midi": 52,
      "hit": false,
      "t": 4242.426999999999,
      "d": 606.0609999999997,
      "v": 127
    },
    {
      "midi": 67,
      "hit": false,
      "t": 4242.426999999999,
      "d": 303.03049999999985,
      "v": 127
    },
    {
      "midi": 53,
      "hit": false,
      "t": 4848.4879999999985,
      "d": 606.0609999999997,
      "v": 127
    },
    {
      "midi": 69,
      "hit": false,
      "t": 4848.4879999999985,
      "d": 303.03049999999985,
      "v": 127
    },
    {
      "midi": 76,
      "hit": false,
      "t": 5151.518499999998,
      "d": 303.03049999999985,
      "v": 127
    },
    {
      "midi": 50,
      "hit": false,
      "t": 5454.548999999998,
      "d": 606.0609999999997,
      "v": 127
    },
    {
      "midi": 76,
      "hit": false,
      "t": 5454.548999999998,
      "d": 303.03049999999985,
      "v": 127
    },
    {
      "midi": 54,
      "hit": false,
      "t": 6060.609999999998,
      "d": 606.0609999999997,
      "v": 127
    },
    {
      "midi": 50,
      "hit": false,
      "t": 6666.670999999998,
      "d": 606.0609999999997,
      "v": 127
    },
    {
      "midi": 74,
      "hit": false,
      "t": 6666.670999999998,
      "d": 151.51525000000038,
      "v": 127
    },
    {
      "midi": 72,
      "hit": false,
      "t": 6818.186249999998,
      "d": 151.51525000000038,
      "v": 127
    },
    {
      "midi": 71,
      "hit": false,
      "t": 6969.701499999998,
      "d": 151.51525000000038,
      "v": 127
    },
    {
      "midi": 69,
      "hit": false,
      "t": 7121.216749999999,
      "d": 151.51525000000038,
      "v": 127
    },
    {
      "midi": 47,
      "hit": false,
      "t": 7272.731999999997,
      "d": 303.03049999999985,
      "v": 127
    },
    {
      "midi": 67,
      "hit": false,
      "t": 7272.731999999999,
      "d": 303.03049999999985,
      "v": 127
    },
    {
      "midi": 48,
      "hit": false,
      "t": 7575.762499999997,
      "d": 303.03049999999985,
      "v": 127
    },
    {
      "midi": 69,
      "hit": false,
      "t": 7575.762499999999,
      "d": 303.03049999999985,
      "v": 127
    },
    {
      "midi": 47,
      "hit": false,
      "t": 7878.792999999997,
      "d": 303.03049999999985,
      "v": 127
    },
    {
      "midi": 67,
      "hit": false,
      "t": 7878.792999999999,
      "d": 303.03049999999985,
      "v": 127
    },
    {
      "midi": 50,
      "hit": false,
      "t": 8181.823499999997,
      "d": 303.03050000000076,
      "v": 127
    },
    {
      "midi": 69,
      "hit": false,
      "t": 8181.823499999999,
      "d": 303.03050000000076,
      "v": 127
    },
    {
      "midi": 55,
      "hit": false,
      "t": 8484.853999999998,
      "d": 303.03050000000076,
      "v": 127
    },
    {
      "midi": 67,
      "hit": false,
      "t": 8484.854,
      "d": 303.03050000000076,
      "v": 127
    },
    {
      "midi": 50,
      "hit": false,
      "t": 8787.884499999998,
      "d": 303.03050000000076,
      "v": 127
    },
    {
      "midi": 47,
      "hit": false,
      "t": 9090.914999999999,
      "d": 606.0609999999997,
      "v": 127
    },
    {
      "midi": 65,
      "hit": false,
      "t": 9090.915,
      "d": 303.03050000000076,
      "v": 127
    },
    {
      "midi": 67,
      "hit": false,
      "t": 9393.945500000002,
      "d": 303.03050000000076,
      "v": 127
    },
    {
      "midi": 53,
      "hit": false,
      "t": 9696.975999999999,
      "d": 606.0609999999997,
      "v": 127
    },
    {
      "midi": 69,
      "hit": false,
      "t": 9696.976000000002,
      "d": 606.0609999999997,
      "v": 127
    },
    {
      "midi": 50,
      "hit": false,
      "t": 10303.036999999998,
      "d": 606.0609999999997,
      "v": 127
    },
    {
      "midi": 65,
      "hit": false,
      "t": 10303.037000000002,
      "d": 606.0609999999997,
      "v": 127
    },
    {
      "midi": 55,
      "hit": false,
      "t": 10909.097999999998,
      "d": 606.0609999999997,
      "v": 127
    },
    {
      "midi": 71,
      "hit": false,
      "t": 10909.098000000002,
      "d": 606.0609999999997,
      "v": 127
    },
    {
      "midi": 53,
      "hit": false,
      "t": 11515.158999999998,
      "d": 606.0609999999997,
      "v": 127
    },
    {
      "midi": 69,
      "hit": false,
      "t": 11818.189500000002,
      "d": 303.03050000000076,
      "v": 127
    },
    {
      "midi": 52,
      "hit": false,
      "t": 12121.219999999998,
      "d": 606.0609999999997,
      "v": 127
    },
    {
      "midi": 67,
      "hit": false,
      "t": 12121.220000000003,
      "d": 606.0609999999997,
      "v": 127
    },
    {
      "midi": 50,
      "hit": false,
      "t": 12727.280999999997,
      "d": 606.0609999999997,
      "v": 127
    },
    {
      "midi": 64,
      "hit": false,
      "t": 12727.281000000003,
      "d": 303.03050000000076,
      "v": 127
    },
    {
      "midi": 67,
      "hit": false,
      "t": 13030.311500000003,
      "d": 303.03050000000076,
      "v": 127
    },
    {
      "midi": 48,
      "hit": false,
      "t": 13333.341999999997,
      "d": 606.0609999999997,
      "v": 127
    },
    {
      "midi": 72,
      "hit": false,
      "t": 13333.342000000004,
      "d": 606.0609999999997,
      "v": 127
    },
    {
      "midi": 47,
      "hit": false,
      "t": 13939.402999999997,
      "d": 606.0609999999997,
      "v": 127
    },
    {
      "midi": 69,
      "hit": false,
      "t": 14242.433500000005,
      "d": 151.51525000000038,
      "v": 127
    },
    {
      "midi": 67,
      "hit": false,
      "t": 14393.948750000005,
      "d": 151.51525000000038,
      "v": 127
    },
    {
      "midi": 45,
      "hit": false,
      "t": 14545.463999999996,
      "d": 303.03050000000076,
      "v": 127
    },
    {
      "midi": 66,
      "hit": false,
      "t": 14545.464000000005,
      "d": 303.03050000000076,
      "v": 127
    },
    {
      "midi": 50,
      "hit": false,
      "t": 14848.494499999997,
      "d": 303.03050000000076,
      "v": 127
    },
    {
      "midi": 67,
      "hit": false,
      "t": 14848.494500000006,
      "d": 303.03050000000076,
      "v": 127
    },
    {
      "midi": 50,
      "hit": false,
      "t": 15151.524999999998,
      "d": 606.0609999999997,
      "v": 127
    },
    {
      "midi": 69,
      "hit": false,
      "t": 15151.525000000007,
      "d": 303.03050000000076,
      "v": 127
    },
    {
      "midi": 71,
      "hit": false,
      "t": 15454.555500000008,
      "d": 303.03050000000076,
      "v": 127
    },
    {
      "midi": 48,
      "hit": false,
      "t": 15757.585999999998,
      "d": 303.03050000000076,
      "v": 127
    },
    {
      "midi": 72,
      "hit": false,
      "t": 15757.586000000008,
      "d": 303.03050000000076,
      "v": 127
    },
    {
      "midi": 50,
      "hit": false,
      "t": 16060.616499999998,
      "d": 303.03050000000076,
      "v": 127
    },
    {
      "midi": 71,
      "hit": false,
      "t": 16060.61650000001,
      "d": 303.03050000000076,
      "v": 127
    },
    {
      "midi": 50,
      "hit": false,
      "t": 16363.646999999999,
      "d": 606.0609999999997,
      "v": 127
    },
    {
      "midi": 72,
      "hit": false,
      "t": 16363.64700000001,
      "d": 303.03049999999894,
      "v": 127
    },
    {
      "midi": 69,
      "hit": false,
      "t": 16666.67750000001,
      "d": 303.03050000000076,
      "v": 127
    },
    {
      "midi": 47,
      "hit": false,
      "t": 16969.708,
      "d": 606.0610000000015,
      "v": 127
    },
    {
      "midi": 74,
      "hit": false,
      "t": 16969.70800000001,
      "d": 303.03050000000076,
      "v": 127
    },
    {
      "midi": 55,
      "hit": false,
      "t": 17575.769,
      "d": 606.0610000000015,
      "v": 127
    },
    {
      "midi": 67,
      "hit": false,
      "t": 17575.76900000001,
      "d": 303.03050000000076,
      "v": 127
    },
    {
      "midi": 71,
      "hit": false,
      "t": 17878.799500000012,
      "d": 151.51525000000038,
      "v": 127
    },
    {
      "midi": 69,
      "hit": false,
      "t": 18030.314750000012,
      "d": 151.51525000000038,
      "v": 127
    },
    {
      "midi": 55,
      "hit": false,
      "t": 18181.83,
      "d": 303.03050000000076,
      "v": 127
    },
    {
      "midi": 67,
      "hit": false,
      "t": 18181.830000000013,
      "d": 909.0914999999986,
      "v": 127
    },
    {
      "midi": 53,
      "hit": false,
      "t": 18484.860500000003,
      "d": 303.03050000000076,
      "v": 127
    },
    {
      "midi": 52,
      "hit": false,
      "t": 18787.891000000003,
      "d": 303.03050000000076,
      "v": 127
    },
    {
      "midi": 50,
      "hit": false,
      "t": 19090.921500000004,
      "d": 303.03050000000076,
      "v": 127
    },
    {
      "midi": 67,
      "hit": false,
      "t": 19090.92150000001,
      "d": 303.03050000000076,
      "v": 127
    },
    {
      "midi": 52,
      "hit": false,
      "t": 19393.952000000005,
      "d": 606.0610000000015,
      "v": 127
    },
    {
      "midi": 67,
      "hit": false,
      "t": 19393.952000000012,
      "d": 606.0610000000015,
      "v": 127
    },
    {
      "midi": 48,
      "hit": false,
      "t": 20000.013000000006,
      "d": 606.0610000000015,
      "v": 127
    },
    {
      "midi": 72,
      "hit": false,
      "t": 20000.013000000014,
      "d": 606.0610000000015,
      "v": 127
    },
    {
      "midi": 53,
      "hit": false,
      "t": 20606.074000000008,
      "d": 606.0610000000015,
      "v": 127
    },
    {
      "midi": 69,
      "hit": false,
      "t": 20606.074000000015,
      "d": 606.0610000000015,
      "v": 127
    },
    {
      "midi": 50,
      "hit": false,
      "t": 21212.13500000001,
      "d": 606.0610000000015,
      "v": 127
    },
    {
      "midi": 71,
      "hit": false,
      "t": 21515.165500000017,
      "d": 151.51525000000038,
      "v": 127
    },
    {
      "midi": 72,
      "hit": false,
      "t": 21666.680750000018,
      "d": 151.51525000000038,
      "v": 127
    },
    {
      "midi": 55,
      "hit": false,
      "t": 21818.19600000001,
      "d": 303.03050000000076,
      "v": 127
    },
    {
      "midi": 71,
      "hit": false,
      "t": 21818.196000000018,
      "d": 303.03050000000076,
      "v": 127
    },
    {
      "midi": 53,
      "hit": false,
      "t": 22121.22650000001,
      "d": 303.03050000000076,
      "v": 127
    },
    {
      "midi": 69,
      "hit": false,
      "t": 22121.22650000002,
      "d": 303.03050000000076,
      "v": 127
    },
    {
      "midi": 52,
      "hit": false,
      "t": 22424.257000000012,
      "d": 303.03050000000076,
      "v": 127
    },
    {
      "midi": 67,
      "hit": false,
      "t": 22424.25700000002,
      "d": 303.03050000000076,
      "v": 127
    },
    {
      "midi": 50,
      "hit": false,
      "t": 22727.287500000013,
      "d": 303.03050000000076,
      "v": 127
    },
    {
      "midi": 65,
      "hit": false,
      "t": 22727.28750000002,
      "d": 303.03050000000076,
      "v": 127
    },
    {
      "midi": 48,
      "hit": false,
      "t": 23030.318000000014,
      "d": 303.03050000000076,
      "v": 127
    },
    {
      "midi": 64,
      "hit": false,
      "t": 23030.31800000002,
      "d": 303.03050000000076,
      "v": 127
    },
    {
      "midi": 50,
      "hit": false,
      "t": 23333.348500000015,
      "d": 303.03050000000076,
      "v": 127
    },
    {
      "midi": 65,
      "hit": false,
      "t": 23333.348500000022,
      "d": 303.03050000000076,
      "v": 127
    },
    {
      "midi": 52,
      "hit": false,
      "t": 23636.379000000015,
      "d": 606.0610000000015,
      "v": 127
    },
    {
      "midi": 67,
      "hit": false,
      "t": 23636.379000000023,
      "d": 303.03050000000076,
      "v": 127
    },
    {
      "midi": 53,
      "hit": false,
      "t": 24242.440000000017,
      "d": 606.0610000000015,
      "v": 127
    },
    {
      "midi": 69,
      "hit": false,
      "t": 24242.440000000024,
      "d": 303.03050000000076,
      "v": 127
    },
    {
      "midi": 76,
      "hit": false,
      "t": 24545.470500000025,
      "d": 303.03050000000076,
      "v": 127
    },
    {
      "midi": 50,
      "hit": false,
      "t": 24848.50100000002,
      "d": 606.0610000000015,
      "v": 127
    },
    {
      "midi": 76,
      "hit": false,
      "t": 24848.501000000026,
      "d": 303.03050000000076,
      "v": 127
    },
    {
      "midi": 54,
      "hit": false,
      "t": 25454.56200000002,
      "d": 606.0610000000015,
      "v": 127
    },
    {
      "midi": 50,
      "hit": false,
      "t": 26060.62300000002,
      "d": 606.0610000000015,
      "v": 127
    },
    {
      "midi": 74,
      "hit": false,
      "t": 26060.623000000025,
      "d": 151.51525000000038,
      "v": 127
    },
    {
      "midi": 72,
      "hit": false,
      "t": 26212.138250000025,
      "d": 151.51525000000038,
      "v": 127
    },
    {
      "midi": 71,
      "hit": false,
      "t": 26363.653500000026,
      "d": 151.51525000000038,
      "v": 127
    },
    {
      "midi": 69,
      "hit": false,
      "t": 26515.168750000026,
      "d": 151.51525000000038,
      "v": 127
    },
    {
      "midi": 47,
      "hit": false,
      "t": 26666.684000000023,
      "d": 303.03050000000076,
      "v": 127
    },
    {
      "midi": 67,
      "hit": false,
      "t": 26666.684000000027,
      "d": 303.03050000000076,
      "v": 127
    },
    {
      "midi": 48,
      "hit": false,
      "t": 26969.714500000024,
      "d": 303.03050000000076,
      "v": 127
    },
    {
      "midi": 69,
      "hit": false,
      "t": 26969.714500000027,
      "d": 303.03050000000076,
      "v": 127
    },
    {
      "midi": 47,
      "hit": false,
      "t": 27272.745000000024,
      "d": 303.03050000000076,
      "v": 127
    },
    {
      "midi": 67,
      "hit": false,
      "t": 27272.745000000028,
      "d": 303.03050000000076,
      "v": 127
    },
    {
      "midi": 50,
      "hit": false,
      "t": 27575.775500000025,
      "d": 303.03050000000076,
      "v": 127
    },
    {
      "midi": 69,
      "hit": false,
      "t": 27575.77550000003,
      "d": 303.03050000000076,
      "v": 127
    },
    {
      "midi": 55,
      "hit": false,
      "t": 27878.806000000026,
      "d": 303.03050000000076,
      "v": 127
    },
    {
      "midi": 67,
      "hit": false,
      "t": 27878.80600000003,
      "d": 303.03050000000076,
      "v": 127
    },
    {
      "midi": 50,
      "hit": false,
      "t": 28181.836500000027,
      "d": 303.03050000000076,
      "v": 127
    },
    {
      "midi": 47,
      "hit": false,
      "t": 28484.867000000027,
      "d": 606.0610000000015,
      "v": 127
    },
    {
      "midi": 65,
      "hit": false,
      "t": 28484.86700000003,
      "d": 303.03050000000076,
      "v": 127
    },
    {
      "midi": 67,
      "hit": false,
      "t": 28787.897500000032,
      "d": 303.03050000000076,
      "v": 127
    },
    {
      "midi": 53,
      "hit": false,
      "t": 29090.92800000003,
      "d": 606.0610000000015,
      "v": 127
    },
    {
      "midi": 69,
      "hit": false,
      "t": 29090.928000000033,
      "d": 606.0610000000015,
      "v": 127
    },
    {
      "midi": 50,
      "hit": false,
      "t": 29696.98900000003,
      "d": 606.0610000000015,
      "v": 127
    },
    {
      "midi": 65,
      "hit": false,
      "t": 29696.989000000034,
      "d": 606.0610000000015,
      "v": 127
    },
    {
      "midi": 55,
      "hit": false,
      "t": 30303.050000000032,
      "d": 606.0610000000015,
      "v": 127
    },
    {
      "midi": 71,
      "hit": false,
      "t": 30303.050000000036,
      "d": 606.0610000000015,
      "v": 127
    },
    {
      "midi": 53,
      "hit": false,
      "t": 30909.111000000034,
      "d": 606.0610000000015,
      "v": 127
    },
    {
      "midi": 69,
      "hit": false,
      "t": 31212.141500000038,
      "d": 303.03050000000076,
      "v": 127
    },
    {
      "midi": 52,
      "hit": false,
      "t": 31515.172000000035,
      "d": 606.0610000000015,
      "v": 127
    },
    {
      "midi": 67,
      "hit": false,
      "t": 31515.17200000004,
      "d": 606.0610000000015,
      "v": 127
    },
    {
      "midi": 50,
      "hit": false,
      "t": 32121.233000000037,
      "d": 606.0610000000015,
      "v": 127
    },
    {
      "midi": 64,
      "hit": false,
      "t": 32121.23300000004,
      "d": 303.03050000000076,
      "v": 127
    },
    {
      "midi": 67,
      "hit": false,
      "t": 32424.26350000004,
      "d": 303.03050000000076,
      "v": 127
    },
    {
      "midi": 48,
      "hit": false,
      "t": 32727.294000000038,
      "d": 606.0610000000015,
      "v": 127
    },
    {
      "midi": 72,
      "hit": false,
      "t": 32727.29400000004,
      "d": 606.0609999999979,
      "v": 127
    },
    {
      "midi": 47,
      "hit": false,
      "t": 33333.35500000004,
      "d": 606.0610000000015,
      "v": 127
    },
    {
      "midi": 69,
      "hit": false,
      "t": 33636.38550000004,
      "d": 151.51524999999674,
      "v": 127
    },
    {
      "midi": 67,
      "hit": false,
      "t": 33787.90075000004,
      "d": 151.51524999999674,
      "v": 127
    },
    {
      "midi": 66,
      "hit": false,
      "t": 33939.416000000034,
      "d": 303.03050000000076,
      "v": 127
    },
    {
      "midi": 45,
      "hit": false,
      "t": 33939.41600000004,
      "d": 303.03050000000076,
      "v": 127
    },
    {
      "midi": 67,
      "hit": false,
      "t": 34242.446500000035,
      "d": 303.03050000000076,
      "v": 127
    },
    {
      "midi": 50,
      "hit": false,
      "t": 34242.44650000004,
      "d": 303.03050000000076,
      "v": 127
    },
    {
      "midi": 69,
      "hit": false,
      "t": 34545.477000000035,
      "d": 303.03050000000076,
      "v": 127
    },
    {
      "midi": 50,
      "hit": false,
      "t": 34545.47700000004,
      "d": 606.0610000000015,
      "v": 127
    },
    {
      "midi": 71,
      "hit": false,
      "t": 34848.507500000036,
      "d": 303.03050000000076,
      "v": 127
    },
    {
      "midi": 72,
      "hit": false,
      "t": 35151.53800000004,
      "d": 303.03050000000076,
      "v": 127
    },
    {
      "midi": 48,
      "hit": false,
      "t": 35151.538000000044,
      "d": 303.03050000000076,
      "v": 127
    },
    {
      "midi": 71,
      "hit": false,
      "t": 35454.56850000004,
      "d": 303.03050000000076,
      "v": 127
    },
    {
      "midi": 50,
      "hit": false,
      "t": 35454.568500000045,
      "d": 303.03050000000076,
      "v": 127
    },
    {
      "midi": 72,
      "hit": false,
      "t": 35757.59900000004,
      "d": 303.03050000000076,
      "v": 127
    },
    {
      "midi": 50,
      "hit": false,
      "t": 35757.599000000046,
      "d": 606.0610000000015,
      "v": 127
    },
    {
      "midi": 69,
      "hit": false,
      "t": 36060.62950000004,
      "d": 303.03050000000076,
      "v": 127
    },
    {
      "midi": 74,
      "hit": false,
      "t": 36363.66000000004,
      "d": 303.03050000000076,
      "v": 127
    },
    {
      "midi": 47,
      "hit": false,
      "t": 36363.66000000005,
      "d": 606.0610000000015,
      "v": 127
    },
    {
      "midi": 67,
      "hit": false,
      "t": 36969.72100000004,
      "d": 303.03050000000076,
      "v": 127
    },
    {
      "midi": 55,
      "hit": false,
      "t": 36969.72100000005,
      "d": 606.0610000000015,
      "v": 127
    },
    {
      "midi": 71,
      "hit": false,
      "t": 37272.75150000004,
      "d": 151.51524999999674,
      "v": 127
    },
    {
      "midi": 69,
      "hit": false,
      "t": 37424.26675000004,
      "d": 151.51524999999674,
      "v": 127
    },
    {
      "midi": 67,
      "hit": false,
      "t": 37575.782000000036,
      "d": 909.0915000000023,
      "v": 127
    },
    {
      "midi": 55,
      "hit": false,
      "t": 37575.78200000005,
      "d": 303.03050000000076,
      "v": 127
    },
    {
      "midi": 53,
      "hit": false,
      "t": 37878.81250000005,
      "d": 303.03050000000076,
      "v": 127
    },
    {
      "midi": 52,
      "hit": false,
      "t": 38181.84300000005,
      "d": 303.03050000000076,
      "v": 127
    },
    {
      "midi": 67,
      "hit": false,
      "t": 38484.87350000004,
      "d": 303.03050000000076,
      "v": 127
    },
    {
      "midi": 50,
      "hit": false,
      "t": 38484.87350000005,
      "d": 303.03050000000076,
      "v": 127
    },
    {
      "midi": 67,
      "hit": false,
      "t": 38787.90400000004,
      "d": 606.0610000000015,
      "v": 127
    },
    {
      "midi": 52,
      "hit": false,
      "t": 38787.90400000005,
      "d": 606.0610000000015,
      "v": 127
    },
    {
      "midi": 72,
      "hit": false,
      "t": 39393.96500000004,
      "d": 606.0610000000015,
      "v": 127
    },
    {
      "midi": 48,
      "hit": false,
      "t": 39393.965000000055,
      "d": 606.0610000000015,
      "v": 127
    },
    {
      "midi": 69,
      "hit": false,
      "t": 40000.02600000004,
      "d": 606.0610000000015,
      "v": 127
    },
    {
      "midi": 53,
      "hit": false,
      "t": 40000.026000000056,
      "d": 606.0610000000015,
      "v": 127
    },
    {
      "midi": 50,
      "hit": false,
      "t": 40606.08700000006,
      "d": 606.0610000000015,
      "v": 127
    },
    {
      "midi": 71,
      "hit": false,
      "t": 40909.117500000044,
      "d": 151.51524999999674,
      "v": 127
    },
    {
      "midi": 72,
      "hit": false,
      "t": 41060.63275000004,
      "d": 151.51524999999674,
      "v": 127
    },
    {
      "midi": 71,
      "hit": false,
      "t": 41212.14800000004,
      "d": 303.03050000000076,
      "v": 127
    },
    {
      "midi": 55,
      "hit": false,
      "t": 41212.14800000006,
      "d": 303.03050000000076,
      "v": 127
    },
    {
      "midi": 69,
      "hit": false,
      "t": 41515.17850000004,
      "d": 303.03050000000076,
      "v": 127
    },
    {
      "midi": 53,
      "hit": false,
      "t": 41515.17850000006,
      "d": 303.03050000000076,
      "v": 127
    },
    {
      "midi": 67,
      "hit": false,
      "t": 41818.20900000004,
      "d": 303.03050000000076,
      "v": 127
    },
    {
      "midi": 52,
      "hit": false,
      "t": 41818.20900000006,
      "d": 303.03050000000076,
      "v": 127
    },
    {
      "midi": 65,
      "hit": false,
      "t": 42121.23950000004,
      "d": 303.03050000000076,
      "v": 127
    },
    {
      "midi": 50,
      "hit": false,
      "t": 42121.23950000006,
      "d": 303.03050000000076,
      "v": 127
    },
    {
      "midi": 64,
      "hit": false,
      "t": 42424.27000000004,
      "d": 303.03050000000076,
      "v": 127
    },
    {
      "midi": 48,
      "hit": false,
      "t": 42424.27000000006,
      "d": 303.03050000000076,
      "v": 127
    },
    {
      "midi": 65,
      "hit": false,
      "t": 42727.30050000004,
      "d": 303.03050000000076,
      "v": 127
    },
    {
      "midi": 50,
      "hit": false,
      "t": 42727.30050000006,
      "d": 303.03050000000076,
      "v": 127
    },
    {
      "midi": 67,
      "hit": false,
      "t": 43030.33100000004,
      "d": 303.03050000000076,
      "v": 127
    },
    {
      "midi": 52,
      "hit": false,
      "t": 43030.331000000064,
      "d": 606.0610000000015,
      "v": 127
    },
    {
      "midi": 69,
      "hit": false,
      "t": 43636.39200000004,
      "d": 303.03050000000076,
      "v": 127
    },
    {
      "midi": 53,
      "hit": false,
      "t": 43636.392000000065,
      "d": 606.0610000000015,
      "v": 127
    },
    {
      "midi": 76,
      "hit": false,
      "t": 43939.422500000044,
      "d": 303.03050000000076,
      "v": 127
    },
    {
      "midi": 76,
      "hit": false,
      "t": 44242.453000000045,
      "d": 303.03050000000076,
      "v": 127
    },
    {
      "midi": 50,
      "hit": false,
      "t": 44242.45300000007,
      "d": 606.0610000000015,
      "v": 127
    },
    {
      "midi": 54,
      "hit": false,
      "t": 44848.51400000007,
      "d": 606.0610000000015,
      "v": 127
    },
    {
      "midi": 74,
      "hit": false,
      "t": 45454.57500000005,
      "d": 151.51524999999674,
      "v": 127
    },
    {
      "midi": 50,
      "hit": false,
      "t": 45454.57500000007,
      "d": 606.0610000000015,
      "v": 127
    },
    {
      "midi": 72,
      "hit": false,
      "t": 45606.090250000045,
      "d": 151.51524999999674,
      "v": 127
    },
    {
      "midi": 71,
      "hit": false,
      "t": 45757.60550000004,
      "d": 151.51524999999674,
      "v": 127
    },
    {
      "midi": 69,
      "hit": false,
      "t": 45909.12075000004,
      "d": 151.51524999999674,
      "v": 127
    },
    {
      "midi": 67,
      "hit": false,
      "t": 46060.636000000035,
      "d": 303.03050000000076,
      "v": 127
    },
    {
      "midi": 47,
      "hit": false,
      "t": 46060.63600000007,
      "d": 303.03050000000076,
      "v": 127
    },
    {
      "midi": 69,
      "hit": false,
      "t": 46363.666500000036,
      "d": 303.03050000000076,
      "v": 127
    },
    {
      "midi": 48,
      "hit": false,
      "t": 46363.66650000007,
      "d": 303.03050000000076,
      "v": 127
    },
    {
      "midi": 67,
      "hit": false,
      "t": 46666.69700000004,
      "d": 303.03050000000076,
      "v": 127
    },
    {
      "midi": 47,
      "hit": false,
      "t": 46666.69700000007,
      "d": 303.03050000000076,
      "v": 127
    },
    {
      "midi": 69,
      "hit": false,
      "t": 46969.72750000004,
      "d": 303.03050000000076,
      "v": 127
    },
    {
      "midi": 50,
      "hit": false,
      "t": 46969.72750000007,
      "d": 303.03050000000076,
      "v": 127
    },
    {
      "midi": 67,
      "hit": false,
      "t": 47272.75800000004,
      "d": 303.03050000000076,
      "v": 127
    },
    {
      "midi": 55,
      "hit": false,
      "t": 47272.758000000074,
      "d": 303.03050000000076,
      "v": 127
    },
    {
      "midi": 50,
      "hit": false,
      "t": 47575.788500000075,
      "d": 303.03050000000076,
      "v": 127
    },
    {
      "midi": 65,
      "hit": false,
      "t": 47878.81900000004,
      "d": 303.03050000000076,
      "v": 127
    },
    {
      "midi": 47,
      "hit": false,
      "t": 47878.819000000076,
      "d": 606.0610000000015,
      "v": 127
    },
    {
      "midi": 67,
      "hit": false,
      "t": 48181.84950000004,
      "d": 303.03050000000076,
      "v": 127
    },
    {
      "midi": 69,
      "hit": false,
      "t": 48484.88000000004,
      "d": 606.0610000000015,
      "v": 127
    },
    {
      "midi": 53,
      "hit": false,
      "t": 48484.88000000008,
      "d": 606.0610000000015,
      "v": 127
    },
    {
      "midi": 65,
      "hit": false,
      "t": 49090.94100000004,
      "d": 606.0610000000015,
      "v": 127
    },
    {
      "midi": 50,
      "hit": false,
      "t": 49090.94100000008,
      "d": 606.0610000000015,
      "v": 127
    },
    {
      "midi": 71,
      "hit": false,
      "t": 49697.002000000044,
      "d": 606.0610000000015,
      "v": 127
    },
    {
      "midi": 55,
      "hit": false,
      "t": 49697.00200000008,
      "d": 606.0610000000015,
      "v": 127
    },
    {
      "midi": 53,
      "hit": false,
      "t": 50303.06300000008,
      "d": 606.0610000000015,
      "v": 127
    },
    {
      "midi": 69,
      "hit": false,
      "t": 50606.093500000046,
      "d": 303.03050000000076,
      "v": 127
    },
    {
      "midi": 67,
      "hit": false,
      "t": 50909.12400000005,
      "d": 606.0610000000015,
      "v": 127
    },
    {
      "midi": 52,
      "hit": false,
      "t": 50909.12400000008,
      "d": 606.0610000000015,
      "v": 127
    },
    {
      "midi": 64,
      "hit": false,
      "t": 51515.18500000005,
      "d": 303.03050000000076,
      "v": 127
    },
    {
      "midi": 50,
      "hit": false,
      "t": 51515.185000000085,
      "d": 606.0610000000015,
      "v": 127
    },
    {
      "midi": 67,
      "hit": false,
      "t": 51818.21550000005,
      "d": 303.03050000000076,
      "v": 127
    },
    {
      "midi": 72,
      "hit": false,
      "t": 52121.24600000005,
      "d": 606.0610000000015,
      "v": 127
    },
    {
      "midi": 48,
      "hit": false,
      "t": 52121.24600000009,
      "d": 606.0610000000015,
      "v": 127
    },
    {
      "midi": 47,
      "hit": false,
      "t": 52727.30700000009,
      "d": 606.0610000000015,
      "v": 127
    },
    {
      "midi": 69,
      "hit": false,
      "t": 53030.33750000005,
      "d": 151.51524999999674,
      "v": 127
    },
    {
      "midi": 67,
      "hit": false,
      "t": 53181.85275000005,
      "d": 151.51524999999674,
      "v": 127
    },
    {
      "midi": 66,
      "hit": false,
      "t": 53333.368000000046,
      "d": 303.03050000000076,
      "v": 127
    },
    {
      "midi": 45,
      "hit": false,
      "t": 53333.36800000009,
      "d": 303.03050000000076,
      "v": 127
    },
    {
      "midi": 67,
      "hit": false,
      "t": 53636.39850000005,
      "d": 303.03050000000076,
      "v": 127
    },
    {
      "midi": 50,
      "hit": false,
      "t": 53636.39850000009,
      "d": 303.03050000000076,
      "v": 127
    },
    {
      "midi": 69,
      "hit": false,
      "t": 53939.42900000005,
      "d": 303.03050000000076,
      "v": 127
    },
    {
      "midi": 50,
      "hit": false,
      "t": 53939.42900000009,
      "d": 606.0610000000015,
      "v": 127
    },
    {
      "midi": 71,
      "hit": false,
      "t": 54242.45950000005,
      "d": 303.03050000000076,
      "v": 127
    },
    {
      "midi": 72,
      "hit": false,
      "t": 54545.49000000005,
      "d": 303.03050000000076,
      "v": 127
    },
    {
      "midi": 48,
      "hit": false,
      "t": 54545.49000000009,
      "d": 303.03050000000076,
      "v": 127
    },
    {
      "midi": 71,
      "hit": false,
      "t": 54848.52050000005,
      "d": 303.03050000000076,
      "v": 127
    },
    {
      "midi": 50,
      "hit": false,
      "t": 54848.52050000009,
      "d": 303.03050000000076,
      "v": 127
    },
    {
      "midi": 72,
      "hit": false,
      "t": 55151.55100000005,
      "d": 303.03050000000076,
      "v": 127
    },
    {
      "midi": 50,
      "hit": false,
      "t": 55151.551000000094,
      "d": 606.0610000000015,
      "v": 127
    },
    {
      "midi": 69,
      "hit": false,
      "t": 55454.58150000005,
      "d": 303.03050000000076,
      "v": 127
    },
    {
      "midi": 74,
      "hit": false,
      "t": 55757.61200000005,
      "d": 303.03050000000076,
      "v": 127
    },
    {
      "midi": 47,
      "hit": false,
      "t": 55757.612000000096,
      "d": 606.0610000000015,
      "v": 127
    },
    {
      "midi": 67,
      "hit": false,
      "t": 56363.67300000005,
      "d": 303.03050000000076,
      "v": 127
    },
    {
      "midi": 55,
      "hit": false,
      "t": 56363.6730000001,
      "d": 606.0610000000015,
      "v": 127
    },
    {
      "midi": 71,
      "hit": false,
      "t": 56666.703500000054,
      "d": 151.51524999999674,
      "v": 127
    },
    {
      "midi": 69,
      "hit": false,
      "t": 56818.21875000005,
      "d": 151.51524999999674,
      "v": 127
    },
    {
      "midi": 67,
      "hit": false,
      "t": 56969.73400000005,
      "d": 909.0915000000023,
      "v": 127
    },
    {
      "midi": 55,
      "hit": false,
      "t": 56969.7340000001,
      "d": 303.03050000000076,
      "v": 127
    },
    {
      "midi": 53,
      "hit": false,
      "t": 57272.7645000001,
      "d": 303.03050000000076,
      "v": 127
    },
    {
      "midi": 52,
      "hit": false,
      "t": 57575.7950000001,
      "d": 303.03050000000076,
      "v": 127
    },
    {
      "midi": 67,
      "hit": false,
      "t": 57878.82550000005,
      "d": 303.03050000000076,
      "v": 127
    },
    {
      "midi": 50,
      "hit": false,
      "t": 57878.8255000001,
      "d": 303.03050000000076,
      "v": 127
    },
    {
      "midi": 67,
      "hit": false,
      "t": 58181.85600000005,
      "d": 606.0610000000015,
      "v": 127
    },
    {
      "midi": 52,
      "hit": false,
      "t": 58181.8560000001,
      "d": 606.0610000000015,
      "v": 127
    },
    {
      "midi": 72,
      "hit": false,
      "t": 58787.91700000005,
      "d": 606.0610000000015,
      "v": 127
    },
    {
      "midi": 48,
      "hit": false,
      "t": 58787.9170000001,
      "d": 606.0610000000015,
      "v": 127
    },
    {
      "midi": 69,
      "hit": false,
      "t": 59393.978000000054,
      "d": 606.0610000000015,
      "v": 127
    },
    {
      "midi": 53,
      "hit": false,
      "t": 59393.978000000105,
      "d": 606.0610000000015,
      "v": 127
    },
    {
      "midi": 50,
      "hit": false,
      "t": 60000.039000000106,
      "d": 606.0610000000015,
      "v": 127
    },
    {
      "midi": 71,
      "hit": false,
      "t": 60303.069500000056,
      "d": 151.51524999999674,
      "v": 127
    },
    {
      "midi": 72,
      "hit": false,
      "t": 60454.58475000005,
      "d": 151.51524999999674,
      "v": 127
    },
    {
      "midi": 71,
      "hit": false,
      "t": 60606.10000000005,
      "d": 303.03050000000076,
      "v": 127
    },
    {
      "midi": 55,
      "hit": false,
      "t": 60606.10000000011,
      "d": 303.03050000000076,
      "v": 127
    },
    {
      "midi": 69,
      "hit": false,
      "t": 60909.13050000005,
      "d": 303.03050000000076,
      "v": 127
    },
    {
      "midi": 53,
      "hit": false,
      "t": 60909.13050000011,
      "d": 303.03050000000076,
      "v": 127
    },
    {
      "midi": 67,
      "hit": false,
      "t": 61212.16100000005,
      "d": 303.03050000000076,
      "v": 127
    },
    {
      "midi": 52,
      "hit": false,
      "t": 61212.16100000011,
      "d": 303.03050000000076,
      "v": 127
    },
    {
      "midi": 65,
      "hit": false,
      "t": 61515.19150000005,
      "d": 303.03050000000076,
      "v": 127
    },
    {
      "midi": 50,
      "hit": false,
      "t": 61515.19150000011,
      "d": 303.03050000000076,
      "v": 127
    },
    {
      "midi": 64,
      "hit": false,
      "t": 61818.22200000005,
      "d": 303.03050000000076,
      "v": 127
    },
    {
      "midi": 48,
      "hit": false,
      "t": 61818.22200000011,
      "d": 303.03050000000076,
      "v": 127
    },
    {
      "midi": 65,
      "hit": false,
      "t": 62121.25250000005,
      "d": 303.03050000000076,
      "v": 127
    },
    {
      "midi": 50,
      "hit": false,
      "t": 62121.25250000011,
      "d": 303.03050000000076,
      "v": 127
    },
    {
      "midi": 67,
      "hit": false,
      "t": 62424.283000000054,
      "d": 303.03050000000076,
      "v": 127
    },
    {
      "midi": 52,
      "hit": false,
      "t": 62424.28300000011,
      "d": 606.0610000000015,
      "v": 127
    },
    {
      "midi": 69,
      "hit": false,
      "t": 63030.344000000056,
      "d": 303.03050000000076,
      "v": 127
    },
    {
      "midi": 53,
      "hit": false,
      "t": 63030.344000000114,
      "d": 606.0610000000015,
      "v": 127
    },
    {
      "midi": 76,
      "hit": false,
      "t": 63333.374500000056,
      "d": 303.03050000000076,
      "v": 127
    },
    {
      "midi": 76,
      "hit": false,
      "t": 63636.40500000006,
      "d": 303.03050000000076,
      "v": 127
    },
    {
      "midi": 50,
      "hit": false,
      "t": 63636.405000000115,
      "d": 606.0610000000015,
      "v": 127
    },
    {
      "midi": 54,
      "hit": false,
      "t": 64242.46600000012,
      "d": 606.0610000000015,
      "v": 127
    },
    {
      "midi": 74,
      "hit": false,
      "t": 64848.52700000006,
      "d": 151.51524999999674,
      "v": 127
    },
    {
      "midi": 50,
      "hit": false,
      "t": 64848.52700000012,
      "d": 606.0610000000015,
      "v": 127
    },
    {
      "midi": 72,
      "hit": false,
      "t": 65000.04225000006,
      "d": 151.51524999999674,
      "v": 127
    },
    {
      "midi": 71,
      "hit": false,
      "t": 65151.55750000005,
      "d": 151.51524999999674,
      "v": 127
    },
    {
      "midi": 69,
      "hit": false,
      "t": 65303.07275000005,
      "d": 151.51524999999674,
      "v": 127
    },
    {
      "midi": 67,
      "hit": false,
      "t": 65454.58800000005,
      "d": 303.0304999999935,
      "v": 127
    },
    {
      "midi": 47,
      "hit": false,
      "t": 65454.58800000012,
      "d": 303.0304999999935,
      "v": 127
    },
    {
      "midi": 69,
      "hit": false,
      "t": 65757.61850000004,
      "d": 303.0304999999935,
      "v": 127
    },
    {
      "midi": 48,
      "hit": false,
      "t": 65757.61850000011,
      "d": 303.0304999999935,
      "v": 127
    },
    {
      "midi": 67,
      "hit": false,
      "t": 66060.64900000003,
      "d": 303.0304999999935,
      "v": 127
    },
    {
      "midi": 47,
      "hit": false,
      "t": 66060.6490000001,
      "d": 303.0304999999935,
      "v": 127
    },
    {
      "midi": 69,
      "hit": false,
      "t": 66363.67950000003,
      "d": 303.0304999999935,
      "v": 127
    },
    {
      "midi": 50,
      "hit": false,
      "t": 66363.6795000001,
      "d": 303.0304999999935,
      "v": 127
    },
    {
      "midi": 67,
      "hit": false,
      "t": 66666.71000000002,
      "d": 303.0304999999935,
      "v": 127
    },
    {
      "midi": 55,
      "hit": false,
      "t": 66666.7100000001,
      "d": 303.0304999999935,
      "v": 127
    },
    {
      "midi": 50,
      "hit": false,
      "t": 66969.74050000009,
      "d": 303.0304999999935,
      "v": 127
    },
    {
      "midi": 65,
      "hit": false,
      "t": 67272.77100000001,
      "d": 303.0304999999935,
      "v": 127
    },
    {
      "midi": 47,
      "hit": false,
      "t": 67272.77100000008,
      "d": 606.0610000000015,
      "v": 127
    },
    {
      "midi": 67,
      "hit": false,
      "t": 67575.8015,
      "d": 303.0304999999935,
      "v": 127
    },
    {
      "midi": 69,
      "hit": false,
      "t": 67878.832,
      "d": 606.0610000000015,
      "v": 127
    },
    {
      "midi": 53,
      "hit": false,
      "t": 67878.83200000008,
      "d": 606.0610000000015,
      "v": 127
    },
    {
      "midi": 65,
      "hit": false,
      "t": 68484.893,
      "d": 606.0610000000015,
      "v": 127
    },
    {
      "midi": 50,
      "hit": false,
      "t": 68484.89300000008,
      "d": 606.0610000000015,
      "v": 127
    },
    {
      "midi": 71,
      "hit": false,
      "t": 69090.954,
      "d": 606.0610000000015,
      "v": 127
    },
    {
      "midi": 55,
      "hit": false,
      "t": 69090.95400000009,
      "d": 606.0610000000015,
      "v": 127
    },
    {
      "midi": 53,
      "hit": false,
      "t": 69697.01500000009,
      "d": 606.0610000000015,
      "v": 127
    },
    {
      "midi": 69,
      "hit": false,
      "t": 70000.0455,
      "d": 303.0304999999935,
      "v": 127
    },
    {
      "midi": 67,
      "hit": false,
      "t": 70303.07599999999,
      "d": 606.0610000000015,
      "v": 127
    },
    {
      "midi": 52,
      "hit": false,
      "t": 70303.07600000009,
      "d": 606.0610000000015,
      "v": 127
    },
    {
      "midi": 64,
      "hit": false,
      "t": 70909.13699999999,
      "d": 303.0304999999935,
      "v": 127
    },
    {
      "midi": 50,
      "hit": false,
      "t": 70909.13700000009,
      "d": 606.0610000000015,
      "v": 127
    },
    {
      "midi": 67,
      "hit": false,
      "t": 71212.16749999998,
      "d": 303.0304999999935,
      "v": 127
    },
    {
      "midi": 72,
      "hit": false,
      "t": 71515.19799999997,
      "d": 606.0610000000015,
      "v": 127
    },
    {
      "midi": 48,
      "hit": false,
      "t": 71515.19800000009,
      "d": 606.0610000000015,
      "v": 127
    },
    {
      "midi": 47,
      "hit": false,
      "t": 72121.2590000001,
      "d": 606.0610000000015,
      "v": 127
    },
    {
      "midi": 69,
      "hit": false,
      "t": 72424.28949999997,
      "d": 151.51524999999674,
      "v": 127
    },
    {
      "midi": 67,
      "hit": false,
      "t": 72575.80474999997,
      "d": 151.51524999999674,
      "v": 127
    },
    {
      "midi": 66,
      "hit": false,
      "t": 72727.31999999996,
      "d": 303.0304999999935,
      "v": 127
    },
    {
      "midi": 45,
      "hit": false,
      "t": 72727.3200000001,
      "d": 303.0304999999935,
      "v": 127
    },
    {
      "midi": 67,
      "hit": false,
      "t": 73030.35049999996,
      "d": 303.0304999999935,
      "v": 127
    },
    {
      "midi": 50,
      "hit": false,
      "t": 73030.35050000009,
      "d": 303.0304999999935,
      "v": 127
    },
    {
      "midi": 69,
      "hit": false,
      "t": 73333.38099999995,
      "d": 303.0304999999935,
      "v": 127
    },
    {
      "midi": 50,
      "hit": false,
      "t": 73333.38100000008,
      "d": 606.0610000000015,
      "v": 127
    },
    {
      "midi": 71,
      "hit": false,
      "t": 73636.41149999994,
      "d": 303.0304999999935,
      "v": 127
    },
    {
      "midi": 72,
      "hit": false,
      "t": 73939.44199999994,
      "d": 303.0304999999935,
      "v": 127
    },
    {
      "midi": 48,
      "hit": false,
      "t": 73939.44200000008,
      "d": 303.0304999999935,
      "v": 127
    },
    {
      "midi": 71,
      "hit": false,
      "t": 74242.47249999993,
      "d": 303.0304999999935,
      "v": 127
    },
    {
      "midi": 50,
      "hit": false,
      "t": 74242.47250000008,
      "d": 303.0304999999935,
      "v": 127
    },
    {
      "midi": 72,
      "hit": false,
      "t": 74545.50299999992,
      "d": 303.0304999999935,
      "v": 127
    },
    {
      "midi": 50,
      "hit": false,
      "t": 74545.50300000007,
      "d": 606.0610000000015,
      "v": 127
    },
    {
      "midi": 69,
      "hit": false,
      "t": 74848.53349999992,
      "d": 303.0304999999935,
      "v": 127
    },
    {
      "midi": 74,
      "hit": false,
      "t": 75151.56399999991,
      "d": 303.0304999999935,
      "v": 127
    },
    {
      "midi": 47,
      "hit": false,
      "t": 75151.56400000007,
      "d": 606.0610000000015,
      "v": 127
    },
    {
      "midi": 67,
      "hit": false,
      "t": 75757.6249999999,
      "d": 303.0304999999935,
      "v": 127
    },
    {
      "midi": 55,
      "hit": false,
      "t": 75757.62500000007,
      "d": 606.0610000000015,
      "v": 127
    },
    {
      "midi": 71,
      "hit": false,
      "t": 76060.65549999989,
      "d": 151.51524999999674,
      "v": 127
    },
    {
      "midi": 69,
      "hit": false,
      "t": 76212.17074999989,
      "d": 151.51524999999674,
      "v": 127
    },
    {
      "midi": 67,
      "hit": false,
      "t": 76363.68599999989,
      "d": 909.091499999995,
      "v": 127
    },
    {
      "midi": 55,
      "hit": false,
      "t": 76363.68600000007,
      "d": 303.0304999999935,
      "v": 127
    },
    {
      "midi": 53,
      "hit": false,
      "t": 76666.71650000007,
      "d": 303.0304999999935,
      "v": 127
    },
    {
      "midi": 52,
      "hit": false,
      "t": 76969.74700000006,
      "d": 303.0304999999935,
      "v": 127
    },
    {
      "midi": 67,
      "hit": false,
      "t": 77272.77749999988,
      "d": 303.0304999999935,
      "v": 127
    },
    {
      "midi": 50,
      "hit": false,
      "t": 77272.77750000005,
      "d": 303.0304999999935,
      "v": 127
    }
  ]
}