{
  "jsonPath": "Soundtracks/Video Game Music/Legend of Zelda Oracle of Seasons/legend-of-zelda-oracle-of-seasons-dinsdance.json",
  "path": "Soundtracks\\Video Game Music\\Legend of Zelda Oracle of Seasons\\Legend_of_Zelda_Oracle_of_Seasons_DinsDance.mid",
  "name": "Legend_of_Zelda_Oracle_of_Seasons_DinsDance",
  "difficulty": "Advanced",
  "bpm": 129.00007740004645,
  "notes": [
    {
      "midi": 67,
      "hit": false,
      "t": 0,
      "d": 232.55799999999996,
      "v": 127
    },
    {
      "midi": 48,
      "hit": false,
      "t": 0,
      "d": 232.55799999999996,
      "v": 127
    },
    {
      "midi": 64,
      "hit": false,
      "t": 232.55799999999996,
      "d": 348.837,
      "v": 127
    },
    {
      "midi": 52,
      "hit": false,
      "t": 232.55799999999996,
      "d": 232.55799999999996,
      "v": 127
    },
    {
      "midi": 43,
      "hit": false,
      "t": 465.11599999999993,
      "d": 232.55799999999994,
      "v": 127
    },
    {
      "midi": 52,
      "hit": false,
      "t": 697.6739999999999,
      "d": 232.558,
      "v": 127
    },
    {
      "midi": 67,
      "hit": false,
      "t": 697.674,
      "d": 232.558,
      "v": 127
    },
    {
      "midi": 47,
      "hit": false,
      "t": 930.2319999999999,
      "d": 232.55799999999988,
      "v": 127
    },
    {
      "midi": 63,
      "hit": false,
      "t": 930.232,
      "d": 232.558,
      "v": 127
    },
    {
      "midi": 51,
      "hit": false,
      "t": 1162.7899999999997,
      "d": 232.558,
      "v": 127
    },
    {
      "midi": 71,
      "hit": false,
      "t": 1162.79,
      "d": 348.837,
      "v": 127
    },
    {
      "midi": 42,
      "hit": false,
      "t": 1395.3479999999997,
      "d": 232.558,
      "v": 127
    },
    {
      "midi": 51,
      "hit": false,
      "t": 1627.9059999999997,
      "d": 232.558,
      "v": 127
    },
    {
      "midi": 69,
      "hit": false,
      "t": 1627.906,
      "d": 232.558,
      "v": 127
    },
    {
      "midi": 48,
      "hit": false,
      "t": 1860.4639999999997,
      "d": 232.55799999999977,
      "v": 127
    },
    {
      "midi": 67,
      "hit": false,
      "t": 1860.464,
      "d": 232.558,
      "v": 127
    },
    {
      "midi": 52,
      "hit": false,
      "t": 2093.0219999999995,
      "d": 232.558,
      "v": 127
    },
    {
      "midi": 64,
      "hit": false,
      "t": 2093.022,
      "d": 348.837,
      "v": 127
    },
    {
      "midi": 43,
      "hit": false,
      "t": 2325.5799999999995,
      "d": 232.558,
      "v": 127
    },
    {
      "midi": 52,
      "hit": false,
      "t": 2558.1379999999995,
      "d": 232.558,
      "v": 127
    },
    {
      "midi": 60,
      "hit": false,
      "t": 2558.138,
      "d": 232.558,
      "v": 127
    },
    {
      "midi": 47,
      "hit": false,
      "t": 2790.6959999999995,
      "d": 232.558,
      "v": 127
    },
    {
      "midi": 59,
      "hit": false,
      "t": 2790.696,
      "d": 232.558,
      "v": 127
    },
    {
      "midi": 51,
      "hit": false,
      "t": 3023.2539999999995,
      "d": 232.558,
      "v": 127
    },
    {
      "midi": 63,
      "hit": false,
      "t": 3023.254,
      "d": 116.279,
      "v": 127
    },
    {
      "midi": 66,
      "hit": false,
      "t": 3139.533,
      "d": 116.279,
      "v": 127
    },
    {
      "midi": 42,
      "hit": false,
      "t": 3255.8119999999994,
      "d": 232.558,
      "v": 127
    },
    {
      "midi": 71,
      "hit": false,
      "t": 3255.812,
      "d": 232.558,
      "v": 127
    },
    {
      "midi": 51,
      "hit": false,
      "t": 3488.3699999999994,
      "d": 232.558,
      "v": 127
    },
    {
      "midi": 69,
      "hit": false,
      "t": 3488.37,
      "d": 232.558,
      "v": 127
    },
    {
      "midi": 48,
      "hit": false,
      "t": 3720.9279999999994,
      "d": 232.558,
      "v": 127
    },
    {
      "midi": 67,
      "hit": false,
      "t": 3720.928,
      "d": 348.837,
      "v": 127
    },
    {
      "midi": 52,
      "hit": false,
      "t": 3953.4859999999994,
      "d": 232.55799999999954,
      "v": 127
    },
    {
      "midi": 43,
      "hit": false,
      "t": 4186.043999999999,
      "d": 232.558,
      "v": 127
    },
    {
      "midi": 69,
      "hit": false,
      "t": 4186.044,
      "d": 232.558,
      "v": 127
    },
    {
      "midi": 52,
      "hit": false,
      "t": 4418.601999999999,
      "d": 232.558,
      "v": 127
    },
    {
      "midi": 71,
      "hit": false,
      "t": 4418.602,
      "d": 232.558,
      "v": 127
    },
    {
      "midi": 45,
      "hit": false,
      "t": 4651.159999999999,
      "d": 232.558,
      "v": 127
    },
    {
      "midi": 72,
      "hit": false,
      "t": 4651.16,
      "d": 232.558,
      "v": 127
    },
    {
      "midi": 52,
      "hit": false,
      "t": 4883.717999999999,
      "d": 232.558,
      "v": 127
    },
    {
      "midi": 74,
      "hit": false,
      "t": 4883.718,
      "d": 232.558,
      "v": 127
    },
    {
      "midi": 48,
      "hit": false,
      "t": 5116.275999999999,
      "d": 232.558,
      "v": 127
    },
    {
      "midi": 76,
      "hit": false,
      "t": 5116.276,
      "d": 232.558,
      "v": 127
    },
    {
      "midi": 52,
      "hit": false,
      "t": 5348.833999999999,
      "d": 232.558,
      "v": 127
    },
    {
      "midi": 77,
      "hit": false,
      "t": 5348.834,
      "d": 232.558,
      "v": 127
    },
    {
      "midi": 50,
      "hit": false,
      "t": 5581.391999999999,
      "d": 232.558,
      "v": 127
    },
    {
      "midi": 79,
      "hit": false,
      "t": 5581.392,
      "d": 348.83699999999953,
      "v": 127
    },
    {
      "midi": 53,
      "hit": false,
      "t": 5813.949999999999,
      "d": 232.558,
      "v": 127
    },
    {
      "midi": 77,
      "hit": false,
      "t": 6046.507999999999,
      "d": 232.558,
      "v": 127
    },
    {
      "midi": 45,
      "hit": false,
      "t": 6046.507999999999,
      "d": 232.558,
      "v": 127
    },
    {
      "midi": 73,
      "hit": false,
      "t": 6279.065999999999,
      "d": 232.558,
      "v": 127
    },
    {
      "midi": 53,
      "hit": false,
      "t": 6279.065999999999,
      "d": 232.558,
      "v": 127
    },
    {
      "midi": 76,
      "hit": false,
      "t": 6511.623999999999,
      "d": 348.83700000000044,
      "v": 127
    },
    {
      "midi": 43,
      "hit": false,
      "t": 6511.623999999999,
      "d": 232.558,
      "v": 127
    },
    {
      "midi": 45,
      "hit": false,
      "t": 6744.181999999999,
      "d": 232.558,
      "v": 127
    },
    {
      "midi": 74,
      "hit": false,
      "t": 6976.739999999999,
      "d": 348.83700000000044,
      "v": 127
    },
    {
      "midi": 47,
      "hit": false,
      "t": 6976.739999999999,
      "d": 232.558,
      "v": 127
    },
    {
      "midi": 43,
      "hit": false,
      "t": 7209.297999999999,
      "d": 232.558,
      "v": 127
    },
    {
      "midi": 81,
      "hit": false,
      "t": 7441.855999999999,
      "d": 232.558,
      "v": 127
    },
    {
      "midi": 53,
      "hit": false,
      "t": 7441.855999999999,
      "d": 232.558,
      "v": 127
    },
    {
      "midi": 77,
      "hit": false,
      "t": 7674.413999999999,
      "d": 348.83699999999953,
      "v": 127
    },
    {
      "midi": 57,
      "hit": false,
      "t": 7674.413999999999,
      "d": 232.558,
      "v": 127
    },
    {
      "midi": 48,
      "hit": false,
      "t": 7906.971999999999,
      "d": 232.558,
      "v": 127
    },
    {
      "midi": 76,
      "hit": false,
      "t": 8139.529999999998,
      "d": 232.558,
      "v": 127
    },
    {
      "midi": 57,
      "hit": false,
      "t": 8139.529999999999,
      "d": 232.55799999999908,
      "v": 127
    },
    {
      "midi": 75,
      "hit": false,
      "t": 8372.087999999998,
      "d": 232.55799999999908,
      "v": 127
    },
    {
      "midi": 47,
      "hit": false,
      "t": 8372.087999999998,
      "d": 232.55799999999908,
      "v": 127
    },
    {
      "midi": 83,
      "hit": false,
      "t": 8604.645999999997,
      "d": 116.27900000000045,
      "v": 127
    },
    {
      "midi": 54,
      "hit": false,
      "t": 8604.645999999997,
      "d": 232.55799999999908,
      "v": 127
    },
    {
      "midi": 84,
      "hit": false,
      "t": 8720.924999999997,
      "d": 116.27900000000045,
      "v": 127
    },
    {
      "midi": 51,
      "hit": false,
      "t": 8837.203999999996,
      "d": 232.55799999999908,
      "v": 127
    },
    {
      "midi": 83,
      "hit": false,
      "t": 8837.203999999998,
      "d": 232.55799999999908,
      "v": 127
    },
    {
      "midi": 54,
      "hit": false,
      "t": 9069.761999999995,
      "d": 232.55799999999908,
      "v": 127
    },
    {
      "midi": 81,
      "hit": false,
      "t": 9069.761999999997,
      "d": 232.55799999999908,
      "v": 127
    },
    {
      "midi": 52,
      "hit": false,
      "t": 9302.319999999994,
      "d": 232.55799999999908,
      "v": 127
    },
    {
      "midi": 79,
      "hit": false,
      "t": 9302.319999999996,
      "d": 232.55799999999908,
      "v": 127
    },
    {
      "midi": 55,
      "hit": false,
      "t": 9534.877999999993,
      "d": 232.55799999999908,
      "v": 127
    },
    {
      "midi": 76,
      "hit": false,
      "t": 9534.877999999995,
      "d": 348.83699999999953,
      "v": 127
    },
    {
      "midi": 47,
      "hit": false,
      "t": 9767.435999999992,
      "d": 232.55799999999908,
      "v": 127
    },
    {
      "midi": 55,
      "hit": false,
      "t": 9999.993999999992,
      "d": 232.55799999999908,
      "v": 127
    },
    {
      "midi": 79,
      "hit": false,
      "t": 9999.993999999995,
      "d": 232.55799999999908,
      "v": 127
    },
    {
      "midi": 45,
      "hit": false,
      "t": 10232.55199999999,
      "d": 232.55799999999908,
      "v": 127
    },
    {
      "midi": 73,
      "hit": false,
      "t": 10232.551999999994,
      "d": 232.55799999999908,
      "v": 127
    },
    {
      "midi": 52,
      "hit": false,
      "t": 10465.10999999999,
      "d": 232.55799999999908,
      "v": 127
    },
    {
      "midi": 81,
      "hit": false,
      "t": 10465.109999999993,
      "d": 116.27900000000045,
      "v": 127
    },
    {
      "midi": 82,
      "hit": false,
      "t": 10581.388999999994,
      "d": 116.27900000000045,
      "v": 127
    },
    {
      "midi": 49,
      "hit": false,
      "t": 10697.667999999989,
      "d": 232.55799999999908,
      "v": 127
    },
    {
      "midi": 81,
      "hit": false,
      "t": 10697.667999999994,
      "d": 232.55799999999908,
      "v": 127
    },
    {
      "midi": 52,
      "hit": false,
      "t": 10930.225999999988,
      "d": 232.55799999999908,
      "v": 127
    },
    {
      "midi": 79,
      "hit": false,
      "t": 10930.225999999993,
      "d": 232.55799999999908,
      "v": 127
    },
    {
      "midi": 50,
      "hit": false,
      "t": 11162.783999999987,
      "d": 232.55799999999908,
      "v": 127
    },
    {
      "midi": 79,
      "hit": false,
      "t": 11162.783999999992,
      "d": 232.55799999999908,
      "v": 127
    },
    {
      "midi": 53,
      "hit": false,
      "t": 11395.341999999986,
      "d": 232.55799999999908,
      "v": 127
    },
    {
      "midi": 77,
      "hit": false,
      "t": 11395.341999999991,
      "d": 232.55799999999908,
      "v": 127
    },
    {
      "midi": 45,
      "hit": false,
      "t": 11627.899999999985,
      "d": 232.55799999999908,
      "v": 127
    },
    {
      "midi": 76,
      "hit": false,
      "t": 11627.89999999999,
      "d": 232.55799999999908,
      "v": 127
    },
    {
      "midi": 53,
      "hit": false,
      "t": 11860.457999999984,
      "d": 232.55799999999908,
      "v": 127
    },
    {
      "midi": 77,
      "hit": false,
      "t": 11860.45799999999,
      "d": 232.55799999999908,
      "v": 127
    },
    {
      "midi": 50,
      "hit": false,
      "t": 12093.015999999983,
      "d": 232.55799999999908,
      "v": 127
    },
    {
      "midi": 79,
      "hit": false,
      "t": 12093.015999999989,
      "d": 232.55799999999908,
      "v": 127
    },
    {
      "midi": 53,
      "hit": false,
      "t": 12325.573999999982,
      "d": 232.55799999999908,
      "v": 127
    },
    {
      "midi": 77,
      "hit": false,
      "t": 12325.573999999988,
      "d": 232.55799999999908,
      "v": 127
    },
    {
      "midi": 45,
      "hit": false,
      "t": 12558.131999999981,
      "d": 232.55799999999908,
      "v": 127
    },
    {
      "midi": 81,
      "hit": false,
      "t": 12558.131999999987,
      "d": 232.55799999999908,
      "v": 127
    },
    {
      "midi": 44,
      "hit": false,
      "t": 12790.68999999998,
      "d": 232.55799999999908,
      "v": 127
    },
    {
      "midi": 84,
      "hit": false,
      "t": 12790.689999999986,
      "d": 232.55799999999908,
      "v": 127
    },
    {
      "midi": 43,
      "hit": false,
      "t": 13023.24799999998,
      "d": 232.55799999999908,
      "v": 127
    },
    {
      "midi": 88,
      "hit": false,
      "t": 13023.247999999985,
      "d": 232.55799999999908,
      "v": 127
    },
    {
      "midi": 50,
      "hit": false,
      "t": 13255.805999999979,
      "d": 232.55799999999908,
      "v": 127
    },
    {
      "midi": 86,
      "hit": false,
      "t": 13255.805999999984,
      "d": 232.55799999999908,
      "v": 127
    },
    {
      "midi": 38,
      "hit": false,
      "t": 13488.363999999978,
      "d": 232.55799999999908,
      "v": 127
    },
    {
      "midi": 84,
      "hit": false,
      "t": 13488.363999999983,
      "d": 232.55799999999908,
      "v": 127
    },
    {
      "midi": 50,
      "hit": false,
      "t": 13720.921999999977,
      "d": 232.55799999999908,
      "v": 127
    },
    {
      "midi": 88,
      "hit": false,
      "t": 13720.921999999982,
      "d": 232.55799999999908,
      "v": 127
    },
    {
      "midi": 43,
      "hit": false,
      "t": 13953.479999999976,
      "d": 232.55799999999908,
      "v": 127
    },
    {
      "midi": 86,
      "hit": false,
      "t": 13953.479999999981,
      "d": 348.83699999999953,
      "v": 127
    },
    {
      "midi": 43,
      "hit": false,
      "t": 14186.037999999975,
      "d": 232.55799999999908,
      "v": 127
    },
    {
      "midi": 45,
      "hit": false,
      "t": 14418.595999999974,
      "d": 232.55799999999908,
      "v": 127
    },
    {
      "midi": 47,
      "hit": false,
      "t": 14651.153999999973,
      "d": 232.55799999999908,
      "v": 127
    },
    {
      "midi": 48,
      "hit": false,
      "t": 14883.711999999972,
      "d": 232.55799999999908,
      "v": 127
    },
    {
      "midi": 67,
      "hit": false,
      "t": 14883.711999999981,
      "d": 232.55799999999908,
      "v": 127
    },
    {
      "midi": 52,
      "hit": false,
      "t": 15116.269999999971,
      "d": 232.55799999999908,
      "v": 127
    },
    {
      "midi": 64,
      "hit": false,
      "t": 15116.26999999998,
      "d": 348.83699999999953,
      "v": 127
    },
    {
      "midi": 43,
      "hit": false,
      "t": 15348.82799999997,
      "d": 232.55799999999908,
      "v": 127
    },
    {
      "midi": 52,
      "hit": false,
      "t": 15581.38599999997,
      "d": 232.55799999999908,
      "v": 127
    },
    {
      "midi": 67,
      "hit": false,
      "t": 15581.38599999998,
      "d": 232.55799999999908,
      "v": 127
    },
    {
      "midi": 47,
      "hit": false,
      "t": 15813.943999999969,
      "d": 232.55799999999908,
      "v": 127
    },
    {
      "midi": 63,
      "hit": false,
      "t": 15813.94399999998,
      "d": 232.55799999999908,
      "v": 127
    },
    {
      "midi": 51,
      "hit": false,
      "t": 16046.501999999968,
      "d": 232.55799999999908,
      "v": 127
    },
    {
      "midi": 71,
      "hit": false,
      "t": 16046.501999999979,
      "d": 348.83699999999953,
      "v": 127
    },
    {
      "midi": 42,
      "hit": false,
      "t": 16279.059999999967,
      "d": 232.55799999999908,
      "v": 127
    },
    {
      "midi": 51,
      "hit": false,
      "t": 16511.617999999966,
      "d": 232.5580000000009,
      "v": 127
    },
    {
      "midi": 69,
      "hit": false,
      "t": 16511.617999999977,
      "d": 232.5580000000009,
      "v": 127
    },
    {
      "midi": 48,
      "hit": false,
      "t": 16744.175999999967,
      "d": 232.5580000000009,
      "v": 127
    },
    {
      "midi": 67,
      "hit": false,
      "t": 16744.175999999978,
      "d": 232.5580000000009,
      "v": 127
    },
    {
      "midi": 52,
      "hit": false,
      "t": 16976.733999999968,
      "d": 232.5580000000009,
      "v": 127
    },
    {
      "midi": 64,
      "hit": false,
      "t": 16976.73399999998,
      "d": 348.83699999999953,
      "v": 127
    },
    {
      "midi": 43,
      "hit": false,
      "t": 17209.29199999997,
      "d": 232.5580000000009,
      "v": 127
    },
    {
      "midi": 52,
      "hit": false,
      "t": 17441.84999999997,
      "d": 232.5580000000009,
      "v": 127
    },
    {
      "midi": 60,
      "hit": false,
      "t": 17441.849999999977,
      "d": 232.5580000000009,
      "v": 127
    },
    {
      "midi": 47,
      "hit": false,
      "t": 17674.40799999997,
      "d": 232.5580000000009,
      "v": 127
    },
    {
      "midi": 59,
      "hit": false,
      "t": 17674.407999999978,
      "d": 232.5580000000009,
      "v": 127
    },
    {
      "midi": 51,
      "hit": false,
      "t": 17906.96599999997,
      "d": 232.5580000000009,
      "v": 127
    },
    {
      "midi": 63,
      "hit": false,
      "t": 17906.96599999998,
      "d": 116.27899999999863,
      "v": 127
    },
    {
      "midi": 66,
      "hit": false,
      "t": 18023.244999999977,
      "d": 116.27899999999863,
      "v": 127
    },
    {
      "midi": 42,
      "hit": false,
      "t": 18139.523999999972,
      "d": 232.5580000000009,
      "v": 127
    },
    {
      "midi": 71,
      "hit": false,
      "t": 18139.523999999976,
      "d": 232.5580000000009,
      "v": 127
    },
    {
      "midi": 51,
      "hit": false,
      "t": 18372.081999999973,
      "d": 232.5580000000009,
      "v": 127
    },
    {
      "midi": 69,
      "hit": false,
      "t": 18372.081999999977,
      "d": 232.5580000000009,
      "v": 127
    },
    {
      "midi": 48,
      "hit": false,
      "t": 18604.639999999974,
      "d": 232.5580000000009,
      "v": 127
    },
    {
      "midi": 67,
      "hit": false,
      "t": 18604.639999999978,
      "d": 348.83699999999953,
      "v": 127
    },
    {
      "midi": 52,
      "hit": false,
      "t": 18837.197999999975,
      "d": 232.5580000000009,
      "v": 127
    },
    {
      "midi": 69,
      "hit": false,
      "t": 19069.755999999976,
      "d": 232.5580000000009,
      "v": 127
    },
    {
      "midi": 43,
      "hit": false,
      "t": 19069.755999999976,
      "d": 232.5580000000009,
      "v": 127
    },
    {
      "midi": 71,
      "hit": false,
      "t": 19302.313999999977,
      "d": 232.5580000000009,
      "v": 127
    },
    {
      "midi": 52,
      "hit": false,
      "t": 19302.313999999977,
      "d": 232.5580000000009,
      "v": 127
    },
    {
      "midi": 72,
      "hit": false,
      "t": 19534.871999999978,
      "d": 232.5580000000009,
      "v": 127
    },
    {
      "midi": 45,
      "hit": false,
      "t": 19534.871999999978,
      "d": 232.5580000000009,
      "v": 127
    },
    {
      "midi": 74,
      "hit": false,
      "t": 19767.42999999998,
      "d": 232.5580000000009,
      "v": 127
    },
    {
      "midi": 52,
      "hit": false,
      "t": 19767.42999999998,
      "d": 232.5580000000009,
      "v": 127
    },
    {
      "midi": 76,
      "hit": false,
      "t": 19999.98799999998,
      "d": 232.5580000000009,
      "v": 127
    },
    {
      "midi": 48,
      "hit": false,
      "t": 19999.98799999998,
      "d": 232.5580000000009,
      "v": 127
    },
    {
      "midi": 77,
      "hit": false,
      "t": 20232.54599999998,
      "d": 232.5580000000009,
      "v": 127
    },
    {
      "midi": 52,
      "hit": false,
      "t": 20232.54599999998,
      "d": 232.5580000000009,
      "v": 127
    },
    {
      "midi": 79,
      "hit": false,
      "t": 20465.10399999998,
      "d": 348.83699999999953,
      "v": 127
    },
    {
      "midi": 50,
      "hit": false,
      "t": 20465.10399999998,
      "d": 232.5580000000009,
      "v": 127
    },
    {
      "midi": 53,
      "hit": false,
      "t": 20697.661999999982,
      "d": 232.5580000000009,
      "v": 127
    },
    {
      "midi": 77,
      "hit": false,
      "t": 20930.21999999998,
      "d": 232.5580000000009,
      "v": 127
    },
    {
      "midi": 45,
      "hit": false,
      "t": 20930.219999999983,
      "d": 232.5580000000009,
      "v": 127
    },
    {
      "midi": 73,
      "hit": false,
      "t": 21162.77799999998,
      "d": 232.5580000000009,
      "v": 127
    },
    {
      "midi": 53,
      "hit": false,
      "t": 21162.777999999984,
      "d": 232.5580000000009,
      "v": 127
    },
    {
      "midi": 76,
      "hit": false,
      "t": 21395.33599999998,
      "d": 348.83699999999953,
      "v": 127
    },
    {
      "midi": 43,
      "hit": false,
      "t": 21395.335999999985,
      "d": 232.5580000000009,
      "v": 127
    },
    {
      "midi": 45,
      "hit": false,
      "t": 21627.893999999986,
      "d": 232.5580000000009,
      "v": 127
    },
    {
      "midi": 74,
      "hit": false,
      "t": 21860.45199999998,
      "d": 348.83699999999953,
      "v": 127
    },
    {
      "midi": 47,
      "hit": false,
      "t": 21860.451999999987,
      "d": 232.5580000000009,
      "v": 127
    },
    {
      "midi": 43,
      "hit": false,
      "t": 22093.009999999987,
      "d": 232.5580000000009,
      "v": 127
    },
    {
      "midi": 81,
      "hit": false,
      "t": 22325.567999999977,
      "d": 232.5580000000009,
      "v": 127
    },
    {
      "midi": 53,
      "hit": false,
      "t": 22325.56799999999,
      "d": 232.5580000000009,
      "v": 127
    },
    {
      "midi": 77,
      "hit": false,
      "t": 22558.12599999998,
      "d": 348.83699999999953,
      "v": 127
    },
    {
      "midi": 57,
      "hit": false,
      "t": 22558.12599999999,
      "d": 232.5580000000009,
      "v": 127
    },
    {
      "midi": 48,
      "hit": false,
      "t": 22790.68399999999,
      "d": 232.5580000000009,
      "v": 127
    },
    {
      "midi": 76,
      "hit": false,
      "t": 23023.241999999977,
      "d": 232.5580000000009,
      "v": 127
    },
    {
      "midi": 57,
      "hit": false,
      "t": 23023.24199999999,
      "d": 232.5580000000009,
      "v": 127
    },
    {
      "midi": 75,
      "hit": false,
      "t": 23255.799999999977,
      "d": 232.5580000000009,
      "v": 127
    },
    {
      "midi": 47,
      "hit": false,
      "t": 23255.799999999992,
      "d": 232.5580000000009,
      "v": 127
    },
    {
      "midi": 83,
      "hit": false,
      "t": 23488.35799999998,
      "d": 116.27899999999863,
      "v": 127
    },
    {
      "midi": 54,
      "hit": false,
      "t": 23488.357999999993,
      "d": 232.5580000000009,
      "v": 127
    },
    {
      "midi": 84,
      "hit": false,
      "t": 23604.636999999977,
      "d": 116.27899999999863,
      "v": 127
    },
    {
      "midi": 83,
      "hit": false,
      "t": 23720.915999999976,
      "d": 232.5580000000009,
      "v": 127
    },
    {
      "midi": 51,
      "hit": false,
      "t": 23720.915999999994,
      "d": 232.5580000000009,
      "v": 127
    },
    {
      "midi": 81,
      "hit": false,
      "t": 23953.473999999977,
      "d": 232.5580000000009,
      "v": 127
    },
    {
      "midi": 54,
      "hit": false,
      "t": 23953.473999999995,
      "d": 232.5580000000009,
      "v": 127
    },
    {
      "midi": 79,
      "hit": false,
      "t": 24186.031999999977,
      "d": 232.5580000000009,
      "v": 127
    },
    {
      "midi": 52,
      "hit": false,
      "t": 24186.031999999996,
      "d": 232.5580000000009,
      "v": 127
    },
    {
      "midi": 76,
      "hit": false,
      "t": 24418.58999999998,
      "d": 348.83699999999953,
      "v": 127
    },
    {
      "midi": 55,
      "hit": false,
      "t": 24418.589999999997,
      "d": 232.5580000000009,
      "v": 127
    },
    {
      "midi": 47,
      "hit": false,
      "t": 24651.147999999997,
      "d": 232.5580000000009,
      "v": 127
    },
    {
      "midi": 79,
      "hit": false,
      "t": 24883.705999999976,
      "d": 232.5580000000009,
      "v": 127
    },
    {
      "midi": 55,
      "hit": false,
      "t": 24883.706,
      "d": 232.5580000000009,
      "v": 127
    },
    {
      "midi": 73,
      "hit": false,
      "t": 25116.263999999977,
      "d": 232.5580000000009,
      "v": 127
    },
    {
      "midi": 45,
      "hit": false,
      "t": 25116.264,
      "d": 232.5580000000009,
      "v": 127
    },
    {
      "midi": 81,
      "hit": false,
      "t": 25348.82199999998,
      "d": 116.27899999999863,
      "v": 127
    },
    {
      "midi": 52,
      "hit": false,
      "t": 25348.822,
      "d": 232.5580000000009,
      "v": 127
    },
    {
      "midi": 82,
      "hit": false,
      "t": 25465.100999999977,
      "d": 116.27899999999863,
      "v": 127
    },
    {
      "midi": 81,
      "hit": false,
      "t": 25581.379999999976,
      "d": 232.5580000000009,
      "v": 127
    },
    {
      "midi": 49,
      "hit": false,
      "t": 25581.38,
      "d": 232.5580000000009,
      "v": 127
    },
    {
      "midi": 79,
      "hit": false,
      "t": 25813.937999999976,
      "d": 232.5580000000009,
      "v": 127
    },
    {
      "midi": 52,
      "hit": false,
      "t": 25813.938000000002,
      "d": 232.5580000000009,
      "v": 127
    },
    {
      "midi": 79,
      "hit": false,
      "t": 26046.495999999977,
      "d": 232.5580000000009,
      "v": 127
    },
    {
      "midi": 50,
      "hit": false,
      "t": 26046.496000000003,
      "d": 232.5580000000009,
      "v": 127
    },
    {
      "midi": 77,
      "hit": false,
      "t": 26279.05399999998,
      "d": 232.5580000000009,
      "v": 127
    },
    {
      "midi": 53,
      "hit": false,
      "t": 26279.054000000004,
      "d": 232.5580000000009,
      "v": 127
    },
    {
      "midi": 76,
      "hit": false,
      "t": 26511.61199999998,
      "d": 232.5580000000009,
      "v": 127
    },
    {
      "midi": 45,
      "hit": false,
      "t": 26511.612000000005,
      "d": 232.5580000000009,
      "v": 127
    },
    {
      "midi": 77,
      "hit": false,
      "t": 26744.16999999998,
      "d": 232.5580000000009,
      "v": 127
    },
    {
      "midi": 53,
      "hit": false,
      "t": 26744.170000000006,
      "d": 232.5580000000009,
      "v": 127
    },
    {
      "midi": 79,
      "hit": false,
      "t": 26976.72799999998,
      "d": 232.5580000000009,
      "v": 127
    },
    {
      "midi": 50,
      "hit": false,
      "t": 26976.728000000006,
      "d": 232.5580000000009,
      "v": 127
    },
    {
      "midi": 77,
      "hit": false,
      "t": 27209.285999999982,
      "d": 232.5580000000009,
      "v": 127
    },
    {
      "midi": 53,
      "hit": false,
      "t": 27209.286000000007,
      "d": 232.5580000000009,
      "v": 127
    },
    {
      "midi": 81,
      "hit": false,
      "t": 27441.843999999983,
      "d": 232.5580000000009,
      "v": 127
    },
    {
      "midi": 45,
      "hit": false,
      "t": 27441.84400000001,
      "d": 232.5580000000009,
      "v": 127
    },
    {
      "midi": 84,
      "hit": false,
      "t": 27674.401999999984,
      "d": 232.5580000000009,
      "v": 127
    },
    {
      "midi": 44,
      "hit": false,
      "t": 27674.40200000001,
      "d": 232.5580000000009,
      "v": 127
    },
    {
      "midi": 88,
      "hit": false,
      "t": 27906.959999999985,
      "d": 232.5580000000009,
      "v": 127
    },
    {
      "midi": 43,
      "hit": false,
      "t": 27906.96000000001,
      "d": 232.5580000000009,
      "v": 127
    },
    {
      "midi": 86,
      "hit": false,
      "t": 28139.517999999985,
      "d": 232.5580000000009,
      "v": 127
    },
    {
      "midi": 50,
      "hit": false,
      "t": 28139.51800000001,
      "d": 232.5580000000009,
      "v": 127
    },
    {
      "midi": 84,
      "hit": false,
      "t": 28372.075999999986,
      "d": 232.5580000000009,
      "v": 127
    },
    {
      "midi": 38,
      "hit": false,
      "t": 28372.076000000012,
      "d": 232.5580000000009,
      "v": 127
    },
    {
      "midi": 88,
      "hit": false,
      "t": 28604.633999999987,
      "d": 232.5580000000009,
      "v": 127
    },
    {
      "midi": 50,
      "hit": false,
      "t": 28604.634000000013,
      "d": 232.5580000000009,
      "v": 127
    },
    {
      "midi": 86,
      "hit": false,
      "t": 28837.19199999999,
      "d": 348.83699999999953,
      "v": 127
    },
    {
      "midi": 43,
      "hit": false,
      "t": 28837.192000000014,
      "d": 232.5580000000009,
      "v": 127
    },
    {
      "midi": 43,
      "hit": false,
      "t": 29069.750000000015,
      "d": 232.5580000000009,
      "v": 127
    },
    {
      "midi": 45,
      "hit": false,
      "t": 29302.308000000015,
      "d": 232.5580000000009,
      "v": 127
    },
    {
      "midi": 47,
      "hit": false,
      "t": 29534.866000000016,
      "d": 232.5580000000009,
      "v": 127
    },
    {
      "midi": 67,
      "hit": false,
      "t": 29767.423999999988,
      "d": 232.5580000000009,
      "v": 127
    },
    {
      "midi": 48,
      "hit": false,
      "t": 29767.424000000017,
      "d": 232.5580000000009,
      "v": 127
    },
    {
      "midi": 64,
      "hit": false,
      "t": 29999.98199999999,
      "d": 348.83699999999953,
      "v": 127
    },
    {
      "midi": 52,
      "hit": false,
      "t": 29999.982000000018,
      "d": 232.5580000000009,
      "v": 127
    },
    {
      "midi": 43,
      "hit": false,
      "t": 30232.54000000002,
      "d": 232.5580000000009,
      "v": 127
    },
    {
      "midi": 67,
      "hit": false,
      "t": 30465.097999999987,
      "d": 232.5580000000009,
      "v": 127
    },
    {
      "midi": 52,
      "hit": false,
      "t": 30465.09800000002,
      "d": 232.5580000000009,
      "v": 127
    },
    {
      "midi": 63,
      "hit": false,
      "t": 30697.655999999988,
      "d": 232.5580000000009,
      "v": 127
    },
    {
      "midi": 47,
      "hit": false,
      "t": 30697.65600000002,
      "d": 232.5580000000009,
      "v": 127
    },
    {
      "midi": 71,
      "hit": false,
      "t": 30930.21399999999,
      "d": 348.83699999999953,
      "v": 127
    },
    {
      "midi": 51,
      "hit": false,
      "t": 30930.21400000002,
      "d": 232.5580000000009,
      "v": 127
    },
    {
      "midi": 42,
      "hit": false,
      "t": 31162.772000000023,
      "d": 232.5580000000009,
      "v": 127
    },
    {
      "midi": 69,
      "hit": false,
      "t": 31395.329999999987,
      "d": 232.5580000000009,
      "v": 127
    },
    {
      "midi": 51,
      "hit": false,
      "t": 31395.330000000024,
      "d": 232.5580000000009,
      "v": 127
    },
    {
      "midi": 67,
      "hit": false,
      "t": 31627.887999999988,
      "d": 232.5580000000009,
      "v": 127
    },
    {
      "midi": 48,
      "hit": false,
      "t": 31627.888000000024,
      "d": 232.5580000000009,
      "v": 127
    },
    {
      "midi": 64,
      "hit": false,
      "t": 31860.44599999999,
      "d": 348.83699999999953,
      "v": 127
    },
    {
      "midi": 52,
      "hit": false,
      "t": 31860.446000000025,
      "d": 232.5580000000009,
      "v": 127
    },
    {
      "midi": 43,
      "hit": false,
      "t": 32093.004000000026,
      "d": 232.5580000000009,
      "v": 127
    },
    {
      "midi": 60,
      "hit": false,
      "t": 32325.561999999987,
      "d": 232.5580000000009,
      "v": 127
    },
    {
      "midi": 52,
      "hit": false,
      "t": 32325.562000000027,
      "d": 232.5580000000009,
      "v": 127
    },
    {
      "midi": 59,
      "hit": false,
      "t": 32558.119999999988,
      "d": 232.55799999999726,
      "v": 127
    },
    {
      "midi": 47,
      "hit": false,
      "t": 32558.120000000028,
      "d": 232.5580000000009,
      "v": 127
    },
    {
      "midi": 63,
      "hit": false,
      "t": 32790.677999999985,
      "d": 116.27900000000227,
      "v": 127
    },
    {
      "midi": 51,
      "hit": false,
      "t": 32790.67800000003,
      "d": 232.55799999999726,
      "v": 127
    },
    {
      "midi": 66,
      "hit": false,
      "t": 32906.95699999999,
      "d": 116.27900000000227,
      "v": 127
    },
    {
      "midi": 71,
      "hit": false,
      "t": 33023.23599999999,
      "d": 232.55799999999726,
      "v": 127
    },
    {
      "midi": 42,
      "hit": false,
      "t": 33023.236000000026,
      "d": 232.55799999999726,
      "v": 127
    },
    {
      "midi": 69,
      "hit": false,
      "t": 33255.79399999999,
      "d": 232.55799999999726,
      "v": 127
    },
    {
      "midi": 51,
      "hit": false,
      "t": 33255.79400000002,
      "d": 232.55799999999726,
      "v": 127
    },
    {
      "midi": 67,
      "hit": false,
      "t": 33488.351999999984,
      "d": 348.83699999999953,
      "v": 127
    },
    {
      "midi": 48,
      "hit": false,
      "t": 33488.35200000002,
      "d": 232.55799999999726,
      "v": 127
    },
    {
      "midi": 52,
      "hit": false,
      "t": 33720.91000000002,
      "d": 232.55799999999726,
      "v": 127
    },
    {
      "midi": 69,
      "hit": false,
      "t": 33953.467999999986,
      "d": 232.55799999999726,
      "v": 127
    },
    {
      "midi": 43,
      "hit": false,
      "t": 33953.468000000015,
      "d": 232.55799999999726,
      "v": 127
    },
    {
      "midi": 71,
      "hit": false,
      "t": 34186.02599999998,
      "d": 232.55799999999726,
      "v": 127
    },
    {
      "midi": 52,
      "hit": false,
      "t": 34186.02600000001,
      "d": 232.55799999999726,
      "v": 127
    },
    {
      "midi": 72,
      "hit": false,
      "t": 34418.58399999998,
      "d": 232.55799999999726,
      "v": 127
    },
    {
      "midi": 45,
      "hit": false,
      "t": 34418.58400000001,
      "d": 232.55799999999726,
      "v": 127
    },
    {
      "midi": 74,
      "hit": false,
      "t": 34651.14199999998,
      "d": 232.55799999999726,
      "v": 127
    },
    {
      "midi": 52,
      "hit": false,
      "t": 34651.14200000001,
      "d": 232.55799999999726,
      "v": 127
    },
    {
      "midi": 76,
      "hit": false,
      "t": 34883.699999999975,
      "d": 232.55799999999726,
      "v": 127
    },
    {
      "midi": 48,
      "hit": false,
      "t": 34883.700000000004,
      "d": 232.55799999999726,
      "v": 127
    },
    {
      "midi": 77,
      "hit": false,
      "t": 35116.25799999997,
      "d": 232.55799999999726,
      "v": 127
    },
    {
      "midi": 52,
      "hit": false,
      "t": 35116.258,
      "d": 232.55799999999726,
      "v": 127
    },
    {
      "midi": 79,
      "hit": false,
      "t": 35348.81599999997,
      "d": 348.83699999999953,
      "v": 127
    },
    {
      "midi": 50,
      "hit": false,
      "t": 35348.816,
      "d": 232.55799999999726,
      "v": 127
    },
    {
      "midi": 53,
      "hit": false,
      "t": 35581.373999999996,
      "d": 232.55799999999726,
      "v": 127
    },
    {
      "midi": 77,
      "hit": false,
      "t": 35813.93199999997,
      "d": 232.55799999999726,
      "v": 127
    },
    {
      "midi": 45,
      "hit": false,
      "t": 35813.93199999999,
      "d": 232.55799999999726,
      "v": 127
    },
    {
      "midi": 73,
      "hit": false,
      "t": 36046.48999999997,
      "d": 232.55799999999726,
      "v": 127
    },
    {
      "midi": 53,
      "hit": false,
      "t": 36046.48999999999,
      "d": 232.55799999999726,
      "v": 127
    },
    {
      "midi": 76,
      "hit": false,
      "t": 36279.047999999966,
      "d": 348.83699999999953,
      "v": 127
    },
    {
      "midi": 43,
      "hit": false,
      "t": 36279.04799999999,
      "d": 232.55799999999726,
      "v": 127
    },
    {
      "midi": 45,
      "hit": false,
      "t": 36511.605999999985,
      "d": 232.55799999999726,
      "v": 127
    },
    {
      "midi": 74,
      "hit": false,
      "t": 36744.16399999997,
      "d": 348.83699999999953,
      "v": 127
    },
    {
      "midi": 47,
      "hit": false,
      "t": 36744.16399999998,
      "d": 232.55799999999726,
      "v": 127
    },
    {
      "midi": 43,
      "hit": false,
      "t": 36976.72199999998,
      "d": 232.55799999999726,
      "v": 127
    },
    {
      "midi": 81,
      "hit": false,
      "t": 37209.27999999997,
      "d": 232.55799999999726,
      "v": 127
    },
    {
      "midi": 53,
      "hit": false,
      "t": 37209.27999999998,
      "d": 232.55799999999726,
      "v": 127
    },
    {
      "midi": 77,
      "hit": false,
      "t": 37441.83799999997,
      "d": 348.83699999999953,
      "v": 127
    },
    {
      "midi": 57,
      "hit": false,
      "t": 37441.837999999974,
      "d": 232.55799999999726,
      "v": 127
    },
    {
      "midi": 48,
      "hit": false,
      "t": 37674.39599999997,
      "d": 232.55799999999726,
      "v": 127
    },
    {
      "midi": 76,
      "hit": false,
      "t": 37906.95399999997,
      "d": 232.55799999999726,
      "v": 127
    },
    {
      "midi": 57,
      "hit": false,
      "t": 37906.95399999997,
      "d": 232.55799999999726,
      "v": 127
    },
    {
      "midi": 75,
      "hit": false,
      "t": 38139.511999999966,
      "d": 232.55799999999726,
      "v": 127
    },
    {
      "midi": 47,
      "hit": false,
      "t": 38139.511999999966,
      "d": 232.55799999999726,
      "v": 127
    },
    {
      "midi": 83,
      "hit": false,
      "t": 38372.06999999996,
      "d": 116.27900000000227,
      "v": 127
    },
    {
      "midi": 54,
      "hit": false,
      "t": 38372.06999999996,
      "d": 232.55799999999726,
      "v": 127
    },
    {
      "midi": 84,
      "hit": false,
      "t": 38488.348999999966,
      "d": 116.27900000000227,
      "v": 127
    },
    {
      "midi": 51,
      "hit": false,
      "t": 38604.62799999996,
      "d": 232.55799999999726,
      "v": 127
    },
    {
      "midi": 83,
      "hit": false,
      "t": 38604.62799999997,
      "d": 232.55799999999726,
      "v": 127
    },
    {
      "midi": 54,
      "hit": false,
      "t": 38837.18599999996,
      "d": 232.55799999999726,
      "v": 127
    },
    {
      "midi": 81,
      "hit": false,
      "t": 38837.185999999965,
      "d": 232.55799999999726,
      "v": 127
    },
    {
      "midi": 52,
      "hit": false,
      "t": 39069.743999999955,
      "d": 232.55799999999726,
      "v": 127
    },
    {
      "midi": 79,
      "hit": false,
      "t": 39069.74399999996,
      "d": 232.55799999999726,
      "v": 127
    },
    {
      "midi": 55,
      "hit": false,
      "t": 39302.30199999995,
      "d": 232.55799999999726,
      "v": 127
    },
    {
      "midi": 76,
      "hit": false,
      "t": 39302.30199999996,
      "d": 348.83699999999953,
      "v": 127
    },
    {
      "midi": 47,
      "hit": false,
      "t": 39534.85999999995,
      "d": 232.55799999999726,
      "v": 127
    },
    {
      "midi": 55,
      "hit": false,
      "t": 39767.41799999995,
      "d": 232.55799999999726,
      "v": 127
    },
    {
      "midi": 79,
      "hit": false,
      "t": 39767.41799999996,
      "d": 232.55799999999726,
      "v": 127
    },
    {
      "midi": 45,
      "hit": false,
      "t": 39999.975999999944,
      "d": 232.55799999999726,
      "v": 127
    },
    {
      "midi": 73,
      "hit": false,
      "t": 39999.97599999996,
      "d": 232.55799999999726,
      "v": 127
    },
    {
      "midi": 52,
      "hit": false,
      "t": 40232.53399999994,
      "d": 232.55799999999726,
      "v": 127
    },
    {
      "midi": 81,
      "hit": false,
      "t": 40232.533999999956,
      "d": 116.27900000000227,
      "v": 127
    },
    {
      "midi": 82,
      "hit": false,
      "t": 40348.81299999996,
      "d": 116.27900000000227,
      "v": 127
    },
    {
      "midi": 49,
      "hit": false,
      "t": 40465.09199999994,
      "d": 232.55799999999726,
      "v": 127
    },
    {
      "midi": 81,
      "hit": false,
      "t": 40465.09199999996,
      "d": 232.55799999999726,
      "v": 127
    },
    {
      "midi": 52,
      "hit": false,
      "t": 40697.649999999936,
      "d": 232.55799999999726,
      "v": 127
    },
    {
      "midi": 79,
      "hit": false,
      "t": 40697.64999999996,
      "d": 232.55799999999726,
      "v": 127
    },
    {
      "midi": 50,
      "hit": false,
      "t": 40930.20799999993,
      "d": 232.55799999999726,
      "v": 127
    },
    {
      "midi": 79,
      "hit": false,
      "t": 40930.207999999955,
      "d": 232.55799999999726,
      "v": 127
    },
    {
      "midi": 53,
      "hit": false,
      "t": 41162.76599999993,
      "d": 232.55799999999726,
      "v": 127
    },
    {
      "midi": 77,
      "hit": false,
      "t": 41162.76599999995,
      "d": 232.55799999999726,
      "v": 127
    },
    {
      "midi": 45,
      "hit": false,
      "t": 41395.32399999993,
      "d": 232.55799999999726,
      "v": 127
    },
    {
      "midi": 76,
      "hit": false,
      "t": 41395.32399999995,
      "d": 232.55799999999726,
      "v": 127
    },
    {
      "midi": 53,
      "hit": false,
      "t": 41627.881999999925,
      "d": 232.55799999999726,
      "v": 127
    },
    {
      "midi": 77,
      "hit": false,
      "t": 41627.88199999995,
      "d": 232.55799999999726,
      "v": 127
    },
    {
      "midi": 50,
      "hit": false,
      "t": 41860.43999999992,
      "d": 232.55799999999726,
      "v": 127
    },
    {
      "midi": 79,
      "hit": false,
      "t": 41860.439999999944,
      "d": 232.55799999999726,
      "v": 127
    },
    {
      "midi": 53,
      "hit": false,
      "t": 42092.99799999992,
      "d": 232.55799999999726,
      "v": 127
    },
    {
      "midi": 77,
      "hit": false,
      "t": 42092.99799999994,
      "d": 232.55799999999726,
      "v": 127
    },
    {
      "midi": 45,
      "hit": false,
      "t": 42325.55599999992,
      "d": 232.55799999999726,
      "v": 127
    },
    {
      "midi": 81,
      "hit": false,
      "t": 42325.55599999994,
      "d": 232.55799999999726,
      "v": 127
    },
    {
      "midi": 44,
      "hit": false,
      "t": 42558.113999999914,
      "d": 232.55799999999726,
      "v": 127
    },
    {
      "midi": 84,
      "hit": false,
      "t": 42558.113999999936,
      "d": 232.55799999999726,
      "v": 127
    },
    {
      "midi": 43,
      "hit": false,
      "t": 42790.67199999991,
      "d": 232.55799999999726,
      "v": 127
    },
    {
      "midi": 88,
      "hit": false,
      "t": 42790.67199999993,
      "d": 232.55799999999726,
      "v": 127
    },
    {
      "midi": 50,
      "hit": false,
      "t": 43023.22999999991,
      "d": 232.55799999999726,
      "v": 127
    },
    {
      "midi": 86,
      "hit": false,
      "t": 43023.22999999993,
      "d": 232.55799999999726,
      "v": 127
    },
    {
      "midi": 38,
      "hit": false,
      "t": 43255.787999999906,
      "d": 232.55799999999726,
      "v": 127
    },
    {
      "midi": 84,
      "hit": false,
      "t": 43255.78799999993,
      "d": 232.55799999999726,
      "v": 127
    },
    {
      "midi": 50,
      "hit": false,
      "t": 43488.3459999999,
      "d": 232.55799999999726,
      "v": 127
    },
    {
      "midi": 88,
      "hit": false,
      "t": 43488.345999999925,
      "d": 232.55799999999726,
      "v": 127
    },
    {
      "midi": 43,
      "hit": false,
      "t": 43720.9039999999,
      "d": 232.55799999999726,
      "v": 127
    },
    {
      "midi": 86,
      "hit": false,
      "t": 43720.90399999992,
      "d": 348.83699999999953,
      "v": 127
    },
    {
      "midi": 43,
      "hit": false,
      "t": 43953.4619999999,
      "d": 232.55799999999726,
      "v": 127
    },
    {
      "midi": 45,
      "hit": false,
      "t": 44186.019999999895,
      "d": 232.55799999999726,
      "v": 127
    },
    {
      "midi": 47,
      "hit": false,
      "t": 44418.57799999989,
      "d": 232.55799999999726,
      "v": 127
    }
  ]
}