{
  "jsonPath": "Soul/Funk/Booker T  The MGs/green-onions-singlelp-version.json",
  "path": "Soul\\Funk\\Booker T  The MGs\\Green Onions (SingleLP Version).mid",
  "name": "Green Onions (SingleLP Version)",
  "difficulty": "Advanced",
  "bpm": 127.00025400050801,
  "notes": [
    {
      "midi": 77,
      "hit": false,
      "t": 71810.87999999999,
      "d": 354.3299999999872,
      "v": 115
    },
    {
      "midi": 77,
      "hit": false,
      "t": 72283.31999999998,
      "d": 354.33000000000175,
      "v": 115
    },
    {
      "midi": 77,
      "hit": false,
      "t": 72755.75999999998,
      "d": 354.3299999999872,
      "v": 115
    },
    {
      "midi": 77,
      "hit": false,
      "t": 73228.19999999997,
      "d": 236.22000000000116,
      "v": 115
    },
    {
      "midi": 75,
      "hit": false,
      "t": 73582.52999999997,
      "d": 118.11000000000058,
      "v": 115
    },
    {
      "midi": 68,
      "hit": false,
      "t": 73700.63999999997,
      "d": 236.22000000000116,
      "v": 115
    },
    {
      "midi": 77,
      "hit": false,
      "t": 73700.63999999997,
      "d": 236.22000000000116,
      "v": 115
    },
    {
      "midi": 77,
      "hit": false,
      "t": 74054.96999999997,
      "d": 118.11000000000058,
      "v": 115
    },
    {
      "midi": 60,
      "hit": false,
      "t": 76889.60999999997,
      "d": 118.11000000000058,
      "v": 115
    },
    {
      "midi": 59,
      "hit": false,
      "t": 77007.71999999997,
      "d": 236.22000000000116,
      "v": 115
    },
    {
      "midi": 58,
      "hit": false,
      "t": 77362.04999999997,
      "d": 118.11000000000058,
      "v": 115
    },
    {
      "midi": 56,
      "hit": false,
      "t": 77480.15999999997,
      "d": 236.22000000000116,
      "v": 115
    },
    {
      "midi": 53,
      "hit": false,
      "t": 77716.37999999998,
      "d": 236.22000000000116,
      "v": 115
    },
    {
      "midi": 60,
      "hit": false,
      "t": 78779.36999999998,
      "d": 118.11000000000058,
      "v": 115
    },
    {
      "midi": 59,
      "hit": false,
      "t": 78897.47999999998,
      "d": 236.22000000000116,
      "v": 115
    },
    {
      "midi": 58,
      "hit": false,
      "t": 79251.80999999998,
      "d": 118.11000000000058,
      "v": 115
    },
    {
      "midi": 56,
      "hit": false,
      "t": 79369.91999999998,
      "d": 354.33000000000175,
      "v": 115
    },
    {
      "midi": 60,
      "hit": false,
      "t": 80669.12999999999,
      "d": 118.11000000000058,
      "v": 115
    },
    {
      "midi": 59,
      "hit": false,
      "t": 80787.23999999999,
      "d": 236.22000000000116,
      "v": 115
    },
    {
      "midi": 58,
      "hit": false,
      "t": 81141.56999999999,
      "d": 118.11000000000058,
      "v": 115
    },
    {
      "midi": 56,
      "hit": false,
      "t": 81259.68,
      "d": 236.22000000000116,
      "v": 115
    },
    {
      "midi": 53,
      "hit": false,
      "t": 81495.9,
      "d": 236.22000000000116,
      "v": 115
    },
    {
      "midi": 60,
      "hit": false,
      "t": 82558.89,
      "d": 118.11000000000058,
      "v": 115
    },
    {
      "midi": 59,
      "hit": false,
      "t": 82677,
      "d": 236.22000000000116,
      "v": 115
    },
    {
      "midi": 58,
      "hit": false,
      "t": 83031.33,
      "d": 118.11000000000058,
      "v": 115
    },
    {
      "midi": 56,
      "hit": false,
      "t": 83149.44,
      "d": 354.33000000000175,
      "v": 115
    },
    {
      "midi": 65,
      "hit": false,
      "t": 84448.65000000001,
      "d": 118.11000000000058,
      "v": 115
    },
    {
      "midi": 65,
      "hit": false,
      "t": 84566.76000000001,
      "d": 236.22000000000116,
      "v": 115
    },
    {
      "midi": 63,
      "hit": false,
      "t": 84921.09000000001,
      "d": 118.11000000000058,
      "v": 115
    },
    {
      "midi": 65,
      "hit": false,
      "t": 85039.20000000001,
      "d": 354.33000000000175,
      "v": 115
    },
    {
      "midi": 77,
      "hit": false,
      "t": 86338.41000000002,
      "d": 118.11000000000058,
      "v": 115
    },
    {
      "midi": 77,
      "hit": false,
      "t": 86456.52000000002,
      "d": 236.22000000000116,
      "v": 115
    },
    {
      "midi": 75,
      "hit": false,
      "t": 86810.85000000002,
      "d": 118.11000000000058,
      "v": 115
    },
    {
      "midi": 77,
      "hit": false,
      "t": 86928.96000000002,
      "d": 354.33000000000175,
      "v": 115
    },
    {
      "midi": 60,
      "hit": false,
      "t": 88228.17000000003,
      "d": 118.11000000000058,
      "v": 115
    },
    {
      "midi": 59,
      "hit": false,
      "t": 88346.28000000003,
      "d": 236.22000000000116,
      "v": 115
    },
    {
      "midi": 58,
      "hit": false,
      "t": 88700.61000000003,
      "d": 118.11000000000058,
      "v": 115
    },
    {
      "midi": 56,
      "hit": false,
      "t": 88818.72000000003,
      "d": 236.22000000000116,
      "v": 115
    },
    {
      "midi": 53,
      "hit": false,
      "t": 89054.94000000003,
      "d": 236.22000000000116,
      "v": 115
    },
    {
      "midi": 72,
      "hit": false,
      "t": 90117.93000000004,
      "d": 118.11000000000058,
      "v": 115
    },
    {
      "midi": 71,
      "hit": false,
      "t": 90236.04000000004,
      "d": 236.22000000000116,
      "v": 115
    },
    {
      "midi": 70,
      "hit": false,
      "t": 90590.37000000004,
      "d": 118.11000000000058,
      "v": 115
    },
    {
      "midi": 68,
      "hit": false,
      "t": 90708.48000000004,
      "d": 236.22000000000116,
      "v": 115
    },
    {
      "midi": 65,
      "hit": false,
      "t": 90944.70000000004,
      "d": 236.22000000000116,
      "v": 115
    },
    {
      "midi": 65,
      "hit": false,
      "t": 92007.69000000005,
      "d": 118.11000000000058,
      "v": 115
    },
    {
      "midi": 65,
      "hit": false,
      "t": 92125.80000000005,
      "d": 236.22000000000116,
      "v": 115
    },
    {
      "midi": 63,
      "hit": false,
      "t": 92480.13000000005,
      "d": 118.11000000000058,
      "v": 115
    },
    {
      "midi": 65,
      "hit": false,
      "t": 92598.24000000005,
      "d": 354.33000000000175,
      "v": 115
    },
    {
      "midi": 77,
      "hit": false,
      "t": 93897.45000000006,
      "d": 118.11000000000058,
      "v": 115
    },
    {
      "midi": 77,
      "hit": false,
      "t": 94015.56000000006,
      "d": 236.22000000000116,
      "v": 115
    },
    {
      "midi": 75,
      "hit": false,
      "t": 94369.89000000006,
      "d": 118.11000000000058,
      "v": 115
    },
    {
      "midi": 77,
      "hit": false,
      "t": 94488.00000000006,
      "d": 354.33000000000175,
      "v": 115
    },
    {
      "midi": 60,
      "hit": false,
      "t": 95787.21000000006,
      "d": 118.11000000000058,
      "v": 115
    },
    {
      "midi": 59,
      "hit": false,
      "t": 95905.32000000007,
      "d": 236.22000000000116,
      "v": 115
    },
    {
      "midi": 58,
      "hit": false,
      "t": 96259.65000000007,
      "d": 118.11000000000058,
      "v": 115
    },
    {
      "midi": 56,
      "hit": false,
      "t": 96377.76000000007,
      "d": 236.22000000000116,
      "v": 115
    },
    {
      "midi": 53,
      "hit": false,
      "t": 96613.98000000007,
      "d": 236.22000000000116,
      "v": 115
    },
    {
      "midi": 60,
      "hit": false,
      "t": 97676.97000000007,
      "d": 118.11000000000058,
      "v": 115
    },
    {
      "midi": 59,
      "hit": false,
      "t": 97795.08000000007,
      "d": 236.22000000000116,
      "v": 115
    },
    {
      "midi": 58,
      "hit": false,
      "t": 98149.41000000008,
      "d": 118.11000000000058,
      "v": 115
    },
    {
      "midi": 56,
      "hit": false,
      "t": 98267.52000000008,
      "d": 236.22000000000116,
      "v": 115
    },
    {
      "midi": 53,
      "hit": false,
      "t": 98503.74000000008,
      "d": 236.22000000000116,
      "v": 115
    },
    {
      "midi": 65,
      "hit": false,
      "t": 100157.28,
      "d": 236.22000000000116,
      "v": 115
    },
    {
      "midi": 65,
      "hit": false,
      "t": 100157.28000000009,
      "d": 236.22000000000116,
      "v": 115
    },
    {
      "midi": 65,
      "hit": false,
      "t": 100511.61,
      "d": 118.11000000000058,
      "v": 115
    },
    {
      "midi": 65,
      "hit": false,
      "t": 100511.61000000009,
      "d": 118.11000000000058,
      "v": 115
    },
    {
      "midi": 65,
      "hit": false,
      "t": 102401.37,
      "d": 118.11000000000058,
      "v": 115
    },
    {
      "midi": 65,
      "hit": false,
      "t": 102401.37000000008,
      "d": 118.11000000000058,
      "v": 115
    },
    {
      "midi": 68,
      "hit": false,
      "t": 102519.48,
      "d": 236.22000000000116,
      "v": 115
    },
    {
      "midi": 68,
      "hit": false,
      "t": 102519.48000000008,
      "d": 236.22000000000116,
      "v": 115
    },
    {
      "midi": 70,
      "hit": false,
      "t": 102873.81,
      "d": 118.11000000000058,
      "v": 115
    },
    {
      "midi": 70,
      "hit": false,
      "t": 102873.81000000008,
      "d": 118.11000000000058,
      "v": 115
    },
    {
      "midi": 70,
      "hit": false,
      "t": 102991.92,
      "d": 236.22000000000116,
      "v": 115
    },
    {
      "midi": 70,
      "hit": false,
      "t": 102991.92000000009,
      "d": 236.22000000000116,
      "v": 115
    },
    {
      "midi": 68,
      "hit": false,
      "t": 103346.25,
      "d": 118.11000000000058,
      "v": 115
    },
    {
      "midi": 68,
      "hit": false,
      "t": 103346.25000000009,
      "d": 118.11000000000058,
      "v": 115
    },
    {
      "midi": 70,
      "hit": false,
      "t": 103464.36,
      "d": 236.22000000000116,
      "v": 115
    },
    {
      "midi": 70,
      "hit": false,
      "t": 103464.36000000009,
      "d": 236.22000000000116,
      "v": 115
    },
    {
      "midi": 68,
      "hit": false,
      "t": 103818.69,
      "d": 118.11000000000058,
      "v": 115
    },
    {
      "midi": 68,
      "hit": false,
      "t": 103818.69000000009,
      "d": 118.11000000000058,
      "v": 115
    },
    {
      "midi": 72,
      "hit": false,
      "t": 103936.8,
      "d": 944.8800000000047,
      "v": 115
    },
    {
      "midi": 72,
      "hit": false,
      "t": 103936.80000000009,
      "d": 944.8800000000047,
      "v": 115
    },
    {
      "midi": 77,
      "hit": false,
      "t": 106299.00000000001,
      "d": 354.33000000000175,
      "v": 115
    },
    {
      "midi": 77,
      "hit": false,
      "t": 106299.0000000001,
      "d": 354.33000000000175,
      "v": 115
    },
    {
      "midi": 77,
      "hit": false,
      "t": 106771.44000000002,
      "d": 354.33000000000175,
      "v": 115
    },
    {
      "midi": 77,
      "hit": false,
      "t": 106771.4400000001,
      "d": 354.33000000000175,
      "v": 115
    },
    {
      "midi": 77,
      "hit": false,
      "t": 107243.88000000002,
      "d": 354.33000000000175,
      "v": 115
    },
    {
      "midi": 77,
      "hit": false,
      "t": 107243.8800000001,
      "d": 354.33000000000175,
      "v": 115
    },
    {
      "midi": 72,
      "hit": false,
      "t": 107716.32000000002,
      "d": 354.33000000000175,
      "v": 115
    },
    {
      "midi": 72,
      "hit": false,
      "t": 107716.32000000011,
      "d": 354.33000000000175,
      "v": 115
    },
    {
      "midi": 72,
      "hit": false,
      "t": 108188.76000000002,
      "d": 354.33000000000175,
      "v": 115
    },
    {
      "midi": 72,
      "hit": false,
      "t": 108188.76000000011,
      "d": 354.33000000000175,
      "v": 115
    },
    {
      "midi": 65,
      "hit": false,
      "t": 108661.20000000003,
      "d": 354.33000000000175,
      "v": 115
    },
    {
      "midi": 65,
      "hit": false,
      "t": 108661.20000000011,
      "d": 354.33000000000175,
      "v": 115
    },
    {
      "midi": 70,
      "hit": false,
      "t": 109133.64000000003,
      "d": 354.33000000000175,
      "v": 115
    },
    {
      "midi": 70,
      "hit": false,
      "t": 109133.64000000012,
      "d": 354.33000000000175,
      "v": 115
    },
    {
      "midi": 70,
      "hit": false,
      "t": 109606.08000000003,
      "d": 354.33000000000175,
      "v": 115
    },
    {
      "midi": 70,
      "hit": false,
      "t": 109606.08000000012,
      "d": 354.33000000000175,
      "v": 115
    },
    {
      "midi": 70,
      "hit": false,
      "t": 110078.52000000003,
      "d": 354.33000000000175,
      "v": 115
    },
    {
      "midi": 70,
      "hit": false,
      "t": 110078.52000000012,
      "d": 354.33000000000175,
      "v": 115
    },
    {
      "midi": 65,
      "hit": false,
      "t": 110550.96000000004,
      "d": 354.33000000000175,
      "v": 115
    },
    {
      "midi": 65,
      "hit": false,
      "t": 110550.96000000012,
      "d": 354.33000000000175,
      "v": 115
    },
    {
      "midi": 65,
      "hit": false,
      "t": 111023.40000000004,
      "d": 236.22000000000116,
      "v": 115
    },
    {
      "midi": 65,
      "hit": false,
      "t": 111023.40000000013,
      "d": 236.22000000000116,
      "v": 115
    },
    {
      "midi": 63,
      "hit": false,
      "t": 111377.73000000004,
      "d": 118.11000000000058,
      "v": 115
    },
    {
      "midi": 63,
      "hit": false,
      "t": 111377.73000000013,
      "d": 118.11000000000058,
      "v": 115
    },
    {
      "midi": 60,
      "hit": false,
      "t": 111495.84000000004,
      "d": 354.33000000000175,
      "v": 115
    },
    {
      "midi": 60,
      "hit": false,
      "t": 111495.84000000013,
      "d": 354.33000000000175,
      "v": 115
    },
    {
      "midi": 63,
      "hit": false,
      "t": 112795.05000000005,
      "d": 118.11000000000058,
      "v": 115
    },
    {
      "midi": 63,
      "hit": false,
      "t": 112795.05000000013,
      "d": 118.11000000000058,
      "v": 115
    },
    {
      "midi": 65,
      "hit": false,
      "t": 112913.16000000005,
      "d": 236.22000000000116,
      "v": 115
    },
    {
      "midi": 65,
      "hit": false,
      "t": 112913.16000000013,
      "d": 236.22000000000116,
      "v": 115
    },
    {
      "midi": 63,
      "hit": false,
      "t": 113267.49000000005,
      "d": 118.11000000000058,
      "v": 115
    },
    {
      "midi": 63,
      "hit": false,
      "t": 113267.49000000014,
      "d": 118.11000000000058,
      "v": 115
    },
    {
      "midi": 65,
      "hit": false,
      "t": 113385.60000000005,
      "d": 236.22000000000116,
      "v": 115
    },
    {
      "midi": 65,
      "hit": false,
      "t": 113385.60000000014,
      "d": 236.22000000000116,
      "v": 115
    },
    {
      "midi": 65,
      "hit": false,
      "t": 113739.93000000005,
      "d": 118.11000000000058,
      "v": 115
    },
    {
      "midi": 65,
      "hit": false,
      "t": 113739.93000000014,
      "d": 118.11000000000058,
      "v": 115
    },
    {
      "midi": 60,
      "hit": false,
      "t": 115157.25000000006,
      "d": 118.11000000000058,
      "v": 115
    },
    {
      "midi": 60,
      "hit": false,
      "t": 115157.25000000015,
      "d": 118.11000000000058,
      "v": 115
    },
    {
      "midi": 67,
      "hit": false,
      "t": 115275.36000000006,
      "d": 354.33000000000175,
      "v": 115
    },
    {
      "midi": 60,
      "hit": false,
      "t": 115275.36000000006,
      "d": 826.7700000000041,
      "v": 115
    },
    {
      "midi": 67,
      "hit": false,
      "t": 115275.36000000015,
      "d": 354.33000000000175,
      "v": 115
    },
    {
      "midi": 60,
      "hit": false,
      "t": 115275.36000000015,
      "d": 826.7700000000041,
      "v": 115
    },
    {
      "midi": 67,
      "hit": false,
      "t": 115747.80000000006,
      "d": 354.33000000000175,
      "v": 115
    },
    {
      "midi": 67,
      "hit": false,
      "t": 115747.80000000015,
      "d": 354.33000000000175,
      "v": 115
    },
    {
      "midi": 63,
      "hit": false,
      "t": 116220.24000000006,
      "d": 118.11000000000058,
      "v": 115
    },
    {
      "midi": 63,
      "hit": false,
      "t": 116220.24000000015,
      "d": 118.11000000000058,
      "v": 115
    },
    {
      "midi": 60,
      "hit": false,
      "t": 116338.35000000006,
      "d": 236.22000000000116,
      "v": 115
    },
    {
      "midi": 60,
      "hit": false,
      "t": 116338.35000000015,
      "d": 236.22000000000116,
      "v": 115
    },
    {
      "midi": 65,
      "hit": false,
      "t": 116692.68000000007,
      "d": 354.33000000000175,
      "v": 115
    },
    {
      "midi": 65,
      "hit": false,
      "t": 116692.68000000015,
      "d": 354.33000000000175,
      "v": 115
    },
    {
      "midi": 65,
      "hit": false,
      "t": 117165.12000000007,
      "d": 354.33000000000175,
      "v": 115
    },
    {
      "midi": 58,
      "hit": false,
      "t": 117165.12000000007,
      "d": 1771.6500000000087,
      "v": 115
    },
    {
      "midi": 61,
      "hit": false,
      "t": 117165.12000000007,
      "d": 1771.6500000000087,
      "v": 115
    },
    {
      "midi": 65,
      "hit": false,
      "t": 117165.12000000016,
      "d": 354.33000000000175,
      "v": 115
    },
    {
      "midi": 58,
      "hit": false,
      "t": 117165.12000000016,
      "d": 1771.6500000000087,
      "v": 115
    },
    {
      "midi": 61,
      "hit": false,
      "t": 117165.12000000016,
      "d": 1771.6500000000087,
      "v": 115
    },
    {
      "midi": 65,
      "hit": false,
      "t": 117637.56000000007,
      "d": 354.33000000000175,
      "v": 115
    },
    {
      "midi": 65,
      "hit": false,
      "t": 117637.56000000016,
      "d": 354.33000000000175,
      "v": 115
    },
    {
      "midi": 65,
      "hit": false,
      "t": 118110.00000000007,
      "d": 354.33000000000175,
      "v": 115
    },
    {
      "midi": 65,
      "hit": false,
      "t": 118110.00000000016,
      "d": 354.33000000000175,
      "v": 115
    },
    {
      "midi": 65,
      "hit": false,
      "t": 118582.44000000008,
      "d": 236.22000000000116,
      "v": 115
    },
    {
      "midi": 65,
      "hit": false,
      "t": 118582.44000000016,
      "d": 236.22000000000116,
      "v": 115
    },
    {
      "midi": 63,
      "hit": false,
      "t": 118818.66000000008,
      "d": 118.11000000000058,
      "v": 115
    },
    {
      "midi": 63,
      "hit": false,
      "t": 118818.66000000016,
      "d": 118.11000000000058,
      "v": 115
    },
    {
      "midi": 56,
      "hit": false,
      "t": 119054.88000000008,
      "d": 236.22000000000116,
      "v": 115
    },
    {
      "midi": 65,
      "hit": false,
      "t": 119054.88000000008,
      "d": 236.22000000000116,
      "v": 115
    },
    {
      "midi": 56,
      "hit": false,
      "t": 119054.88000000016,
      "d": 236.22000000000116,
      "v": 115
    },
    {
      "midi": 65,
      "hit": false,
      "t": 119054.88000000016,
      "d": 236.22000000000116,
      "v": 115
    },
    {
      "midi": 65,
      "hit": false,
      "t": 119409.21000000008,
      "d": 118.11000000000058,
      "v": 115
    },
    {
      "midi": 65,
      "hit": false,
      "t": 119409.21000000017,
      "d": 118.11000000000058,
      "v": 115
    },
    {
      "midi": 65,
      "hit": false,
      "t": 121298.97000000007,
      "d": 118.11000000000058,
      "v": 115
    },
    {
      "midi": 65,
      "hit": false,
      "t": 121298.97000000016,
      "d": 118.11000000000058,
      "v": 115
    },
    {
      "midi": 70,
      "hit": false,
      "t": 121417.08000000007,
      "d": 354.3299999999872,
      "v": 115
    },
    {
      "midi": 70,
      "hit": false,
      "t": 121417.08000000016,
      "d": 354.3299999999872,
      "v": 115
    },
    {
      "midi": 70,
      "hit": false,
      "t": 121889.52000000006,
      "d": 354.33000000000175,
      "v": 115
    },
    {
      "midi": 70,
      "hit": false,
      "t": 121889.52000000015,
      "d": 354.33000000000175,
      "v": 115
    },
    {
      "midi": 70,
      "hit": false,
      "t": 122361.96000000006,
      "d": 354.3299999999872,
      "v": 115
    },
    {
      "midi": 70,
      "hit": false,
      "t": 122361.96000000015,
      "d": 354.3299999999872,
      "v": 115
    },
    {
      "midi": 65,
      "hit": false,
      "t": 122863.92750000005,
      "d": 354.33000000000175,
      "v": 115
    },
    {
      "midi": 65,
      "hit": false,
      "t": 122863.92750000014,
      "d": 354.33000000000175,
      "v": 115
    },
    {
      "midi": 65,
      "hit": false,
      "t": 125117.86000000004,
      "d": 118.11000000000058,
      "v": 115
    },
    {
      "midi": 65,
      "hit": false,
      "t": 125117.86000000013,
      "d": 118.11000000000058,
      "v": 115
    },
    {
      "midi": 68,
      "hit": false,
      "t": 125231.04875000005,
      "d": 118.11000000000058,
      "v": 115
    },
    {
      "midi": 68,
      "hit": false,
      "t": 125231.04875000013,
      "d": 118.11000000000058,
      "v": 115
    },
    {
      "midi": 70,
      "hit": false,
      "t": 125560.77250000005,
      "d": 113.18875000000116,
      "v": 115
    },
    {
      "midi": 70,
      "hit": false,
      "t": 125560.77250000014,
      "d": 113.18875000000116,
      "v": 115
    },
    {
      "midi": 70,
      "hit": false,
      "t": 125673.96125000005,
      "d": 354.33000000000175,
      "v": 115
    },
    {
      "midi": 70,
      "hit": false,
      "t": 125673.96125000014,
      "d": 354.33000000000175,
      "v": 115
    },
    {
      "midi": 68,
      "hit": false,
      "t": 126023.37000000005,
      "d": 118.11000000000058,
      "v": 115
    },
    {
      "midi": 68,
      "hit": false,
      "t": 126023.37000000014,
      "d": 118.11000000000058,
      "v": 115
    },
    {
      "midi": 70,
      "hit": false,
      "t": 126146.40125000005,
      "d": 354.33000000000175,
      "v": 115
    },
    {
      "midi": 70,
      "hit": false,
      "t": 126146.40125000014,
      "d": 354.33000000000175,
      "v": 115
    },
    {
      "midi": 68,
      "hit": false,
      "t": 126500.73125000006,
      "d": 118.11000000000058,
      "v": 115
    },
    {
      "midi": 68,
      "hit": false,
      "t": 126500.73125000014,
      "d": 118.11000000000058,
      "v": 115
    },
    {
      "midi": 70,
      "hit": false,
      "t": 126613.92000000006,
      "d": 118.11000000000058,
      "v": 115
    },
    {
      "midi": 70,
      "hit": false,
      "t": 126613.92000000014,
      "d": 118.11000000000058,
      "v": 115
    },
    {
      "midi": 72,
      "hit": false,
      "t": 126653.29000000005,
      "d": 354.33000000000175,
      "v": 115
    },
    {
      "midi": 72,
      "hit": false,
      "t": 126653.29000000014,
      "d": 354.33000000000175,
      "v": 115
    },
    {
      "midi": 71,
      "hit": false,
      "t": 126953.48625000006,
      "d": 118.10999999998603,
      "v": 115
    },
    {
      "midi": 71,
      "hit": false,
      "t": 126953.48625000015,
      "d": 118.10999999998603,
      "v": 115
    },
    {
      "midi": 70,
      "hit": false,
      "t": 126992.85625000006,
      "d": 118.10999999998603,
      "v": 115
    },
    {
      "midi": 70,
      "hit": false,
      "t": 126992.85625000014,
      "d": 118.10999999998603,
      "v": 115
    },
    {
      "midi": 68,
      "hit": false,
      "t": 127061.75375000005,
      "d": 118.10999999998603,
      "v": 115
    },
    {
      "midi": 68,
      "hit": false,
      "t": 127061.75375000013,
      "d": 118.10999999998603,
      "v": 115
    },
    {
      "midi": 65,
      "hit": false,
      "t": 127130.65125000004,
      "d": 354.3299999999872,
      "v": 115
    },
    {
      "midi": 65,
      "hit": false,
      "t": 127130.65125000013,
      "d": 354.3299999999872,
      "v": 115
    },
    {
      "midi": 77,
      "hit": false,
      "t": 128981.04125000002,
      "d": 354.33000000000175,
      "v": 115
    },
    {
      "midi": 77,
      "hit": false,
      "t": 128981.04125000011,
      "d": 354.33000000000175,
      "v": 115
    },
    {
      "midi": 75,
      "hit": false,
      "t": 129423.95375000003,
      "d": 118.11000000000058,
      "v": 115
    },
    {
      "midi": 75,
      "hit": false,
      "t": 129423.95375000012,
      "d": 118.11000000000058,
      "v": 115
    },
    {
      "midi": 77,
      "hit": false,
      "t": 129468.24500000002,
      "d": 472.4400000000023,
      "v": 115
    },
    {
      "midi": 77,
      "hit": false,
      "t": 129468.24500000011,
      "d": 472.4400000000023,
      "v": 115
    },
    {
      "midi": 75,
      "hit": false,
      "t": 129896.39375000003,
      "d": 118.11000000000058,
      "v": 115
    },
    {
      "midi": 75,
      "hit": false,
      "t": 129896.39375000012,
      "d": 118.11000000000058,
      "v": 115
    },
    {
      "midi": 77,
      "hit": false,
      "t": 129950.52750000003,
      "d": 354.33000000000175,
      "v": 115
    },
    {
      "midi": 77,
      "hit": false,
      "t": 129950.52750000011,
      "d": 354.33000000000175,
      "v": 115
    },
    {
      "midi": 75,
      "hit": false,
      "t": 130418.04625000003,
      "d": 118.11000000000058,
      "v": 115
    },
    {
      "midi": 75,
      "hit": false,
      "t": 130418.04625000012,
      "d": 118.11000000000058,
      "v": 115
    },
    {
      "midi": 72,
      "hit": false,
      "t": 130457.41625000002,
      "d": 354.33000000000175,
      "v": 115
    },
    {
      "midi": 72,
      "hit": false,
      "t": 130457.41625000011,
      "d": 354.33000000000175,
      "v": 115
    },
    {
      "midi": 73,
      "hit": false,
      "t": 130462.33750000002,
      "d": 118.11000000000058,
      "v": 115
    },
    {
      "midi": 73,
      "hit": false,
      "t": 130462.33750000011,
      "d": 118.11000000000058,
      "v": 115
    },
    {
      "midi": 72,
      "hit": false,
      "t": 130865.88000000002,
      "d": 472.4399999999878,
      "v": 115
    },
    {
      "midi": 72,
      "hit": false,
      "t": 130865.8800000001,
      "d": 472.4399999999878,
      "v": 115
    },
    {
      "midi": 70,
      "hit": false,
      "t": 131308.7925,
      "d": 118.10999999998603,
      "v": 115
    },
    {
      "midi": 70,
      "hit": false,
      "t": 131308.7925000001,
      "d": 118.10999999998603,
      "v": 115
    },
    {
      "midi": 68,
      "hit": false,
      "t": 131358.005,
      "d": 118.11000000001513,
      "v": 115
    },
    {
      "midi": 68,
      "hit": false,
      "t": 131358.0050000001,
      "d": 118.11000000001513,
      "v": 115
    },
    {
      "midi": 65,
      "hit": false,
      "t": 131431.82375,
      "d": 354.3300000000163,
      "v": 115
    },
    {
      "midi": 65,
      "hit": false,
      "t": 131431.8237500001,
      "d": 354.3300000000163,
      "v": 115
    },
    {
      "midi": 70,
      "hit": false,
      "t": 131795.99625000003,
      "d": 472.4400000000023,
      "v": 115
    },
    {
      "midi": 70,
      "hit": false,
      "t": 131795.9962500001,
      "d": 472.4400000000023,
      "v": 115
    },
    {
      "midi": 68,
      "hit": false,
      "t": 132273.35750000004,
      "d": 118.11000000001513,
      "v": 115
    },
    {
      "midi": 68,
      "hit": false,
      "t": 132273.35750000013,
      "d": 118.11000000001513,
      "v": 115
    },
    {
      "midi": 70,
      "hit": false,
      "t": 132317.64875000005,
      "d": 354.3300000000163,
      "v": 115
    },
    {
      "midi": 70,
      "hit": false,
      "t": 132317.64875000014,
      "d": 354.3300000000163,
      "v": 115
    },
    {
      "midi": 68,
      "hit": false,
      "t": 132740.87625000006,
      "d": 118.10999999998603,
      "v": 115
    },
    {
      "midi": 68,
      "hit": false,
      "t": 132740.87625000015,
      "d": 118.10999999998603,
      "v": 115
    },
    {
      "midi": 70,
      "hit": false,
      "t": 132799.93125000005,
      "d": 472.4400000000023,
      "v": 115
    },
    {
      "midi": 70,
      "hit": false,
      "t": 132799.93125000014,
      "d": 472.4400000000023,
      "v": 115
    },
    {
      "midi": 68,
      "hit": false,
      "t": 133247.76500000004,
      "d": 118.11000000001513,
      "v": 115
    },
    {
      "midi": 68,
      "hit": false,
      "t": 133247.76500000013,
      "d": 118.11000000001513,
      "v": 115
    },
    {
      "midi": 65,
      "hit": false,
      "t": 133306.82000000007,
      "d": 354.3299999999872,
      "v": 115
    },
    {
      "midi": 65,
      "hit": false,
      "t": 133306.82000000015,
      "d": 354.3299999999872,
      "v": 115
    },
    {
      "midi": 65,
      "hit": false,
      "t": 133730.04750000004,
      "d": 472.4400000000023,
      "v": 115
    },
    {
      "midi": 65,
      "hit": false,
      "t": 133730.04750000013,
      "d": 472.4400000000023,
      "v": 115
    },
    {
      "midi": 63,
      "hit": false,
      "t": 134168.03875000004,
      "d": 118.11000000001513,
      "v": 115
    },
    {
      "midi": 63,
      "hit": false,
      "t": 134168.03875000012,
      "d": 118.11000000001513,
      "v": 115
    },
    {
      "midi": 60,
      "hit": false,
      "t": 134227.09375000006,
      "d": 236.22000000000116,
      "v": 115
    },
    {
      "midi": 60,
      "hit": false,
      "t": 134227.09375000015,
      "d": 236.22000000000116,
      "v": 115
    },
    {
      "midi": 63,
      "hit": false,
      "t": 135501.69750000007,
      "d": 118.10999999998603,
      "v": 115
    },
    {
      "midi": 63,
      "hit": false,
      "t": 135501.69750000015,
      "d": 118.10999999998603,
      "v": 115
    },
    {
      "midi": 65,
      "hit": false,
      "t": 135619.80750000005,
      "d": 118.10999999998603,
      "v": 115
    },
    {
      "midi": 65,
      "hit": false,
      "t": 135619.80750000014,
      "d": 118.10999999998603,
      "v": 115
    },
    {
      "midi": 63,
      "hit": false,
      "t": 135939.68875000003,
      "d": 118.10999999998603,
      "v": 115
    },
    {
      "midi": 63,
      "hit": false,
      "t": 135939.68875000012,
      "d": 118.10999999998603,
      "v": 115
    },
    {
      "midi": 65,
      "hit": false,
      "t": 136077.48375,
      "d": 236.22000000000116,
      "v": 115
    },
    {
      "midi": 65,
      "hit": false,
      "t": 136077.4837500001,
      "d": 236.22000000000116,
      "v": 115
    },
    {
      "midi": 65,
      "hit": false,
      "t": 136421.97125,
      "d": 118.10999999998603,
      "v": 115
    },
    {
      "midi": 65,
      "hit": false,
      "t": 136421.9712500001,
      "d": 118.10999999998603,
      "v": 115
    },
    {
      "midi": 60,
      "hit": false,
      "t": 137504.64625,
      "d": 118.10999999998603,
      "v": 115
    },
    {
      "midi": 60,
      "hit": false,
      "t": 137504.64625000008,
      "d": 118.10999999998603,
      "v": 115
    },
    {
      "midi": 60,
      "hit": false,
      "t": 137834.36999999997,
      "d": 118.11000000001513,
      "v": 115
    },
    {
      "midi": 60,
      "hit": false,
      "t": 137834.37000000005,
      "d": 118.11000000001513,
      "v": 115
    },
    {
      "midi": 66,
      "hit": false,
      "t": 137937.71624999997,
      "d": 118.11000000001513,
      "v": 115
    },
    {
      "midi": 66,
      "hit": false,
      "t": 137937.71625000006,
      "d": 118.11000000001513,
      "v": 115
    },
    {
      "midi": 67,
      "hit": false,
      "t": 137977.08625,
      "d": 472.4399999999732,
      "v": 115
    },
    {
      "midi": 67,
      "hit": false,
      "t": 137977.08625000008,
      "d": 472.4399999999732,
      "v": 115
    },
    {
      "midi": 66,
      "hit": false,
      "t": 138400.31374999997,
      "d": 118.10999999998603,
      "v": 115
    },
    {
      "midi": 66,
      "hit": false,
      "t": 138400.31375000006,
      "d": 118.10999999998603,
      "v": 115
    },
    {
      "midi": 67,
      "hit": false,
      "t": 138459.36874999997,
      "d": 354.3299999999872,
      "v": 115
    },
    {
      "midi": 67,
      "hit": false,
      "t": 138459.36875000005,
      "d": 354.3299999999872,
      "v": 115
    },
    {
      "midi": 63,
      "hit": false,
      "t": 138892.43874999994,
      "d": 118.11000000001513,
      "v": 115
    },
    {
      "midi": 63,
      "hit": false,
      "t": 138892.43875000003,
      "d": 118.11000000001513,
      "v": 115
    },
    {
      "midi": 60,
      "hit": false,
      "t": 138956.41499999995,
      "d": 354.3300000000163,
      "v": 115
    },
    {
      "midi": 60,
      "hit": false,
      "t": 138956.41500000004,
      "d": 354.3300000000163,
      "v": 115
    },
    {
      "midi": 63,
      "hit": false,
      "t": 139374.72124999997,
      "d": 118.10999999998603,
      "v": 115
    },
    {
      "midi": 63,
      "hit": false,
      "t": 139374.72125000006,
      "d": 118.10999999998603,
      "v": 115
    },
    {
      "midi": 65,
      "hit": false,
      "t": 139414.09124999997,
      "d": 354.3299999999872,
      "v": 115
    },
    {
      "midi": 65,
      "hit": false,
      "t": 139414.09125000006,
      "d": 354.3299999999872,
      "v": 115
    },
    {
      "midi": 63,
      "hit": false,
      "t": 139837.31874999995,
      "d": 118.11000000001513,
      "v": 115
    },
    {
      "midi": 63,
      "hit": false,
      "t": 139837.31875000003,
      "d": 118.11000000001513,
      "v": 115
    },
    {
      "midi": 65,
      "hit": false,
      "t": 139871.76749999996,
      "d": 472.44000000003143,
      "v": 115
    },
    {
      "midi": 65,
      "hit": false,
      "t": 139871.76750000005,
      "d": 472.44000000003143,
      "v": 115
    },
    {
      "midi": 63,
      "hit": false,
      "t": 140339.28624999998,
      "d": 118.11000000001513,
      "v": 115
    },
    {
      "midi": 63,
      "hit": false,
      "t": 140339.28625000006,
      "d": 118.11000000001513,
      "v": 115
    },
    {
      "midi": 65,
      "hit": false,
      "t": 140378.65625,
      "d": 354.3299999999872,
      "v": 115
    },
    {
      "midi": 65,
      "hit": false,
      "t": 140378.6562500001,
      "d": 354.3299999999872,
      "v": 115
    },
    {
      "midi": 63,
      "hit": false,
      "t": 140806.805,
      "d": 118.10999999998603,
      "v": 115
    },
    {
      "midi": 63,
      "hit": false,
      "t": 140806.80500000008,
      "d": 118.10999999998603,
      "v": 115
    },
    {
      "midi": 65,
      "hit": false,
      "t": 140836.3325,
      "d": 354.3299999999872,
      "v": 115
    },
    {
      "midi": 65,
      "hit": false,
      "t": 140836.33250000008,
      "d": 354.3299999999872,
      "v": 115
    },
    {
      "midi": 63,
      "hit": false,
      "t": 141244.79624999998,
      "d": 118.10999999998603,
      "v": 115
    },
    {
      "midi": 63,
      "hit": false,
      "t": 141244.79625000007,
      "d": 118.10999999998603,
      "v": 115
    },
    {
      "midi": 65,
      "hit": false,
      "t": 141294.00874999998,
      "d": 118.10999999998603,
      "v": 115
    },
    {
      "midi": 65,
      "hit": false,
      "t": 141294.00875000007,
      "d": 118.10999999998603,
      "v": 115
    },
    {
      "midi": 63,
      "hit": false,
      "t": 141604.04749999996,
      "d": 118.10999999998603,
      "v": 115
    },
    {
      "midi": 63,
      "hit": false,
      "t": 141604.04750000004,
      "d": 118.10999999998603,
      "v": 115
    },
    {
      "midi": 63,
      "hit": false,
      "t": 141761.52749999994,
      "d": 118.11000000001513,
      "v": 115
    },
    {
      "midi": 63,
      "hit": false,
      "t": 141761.52750000003,
      "d": 118.11000000001513,
      "v": 115
    },
    {
      "midi": 65,
      "hit": false,
      "t": 141825.50374999995,
      "d": 236.22000000000116,
      "v": 115
    },
    {
      "midi": 65,
      "hit": false,
      "t": 141825.50375000003,
      "d": 236.22000000000116,
      "v": 115
    },
    {
      "midi": 65,
      "hit": false,
      "t": 142076.48749999996,
      "d": 118.10999999998603,
      "v": 115
    },
    {
      "midi": 65,
      "hit": false,
      "t": 142076.48750000005,
      "d": 118.10999999998603,
      "v": 115
    },
    {
      "midi": 65,
      "hit": false,
      "t": 143966.24749999994,
      "d": 118.10999999998603,
      "v": 115
    },
    {
      "midi": 65,
      "hit": false,
      "t": 143966.24750000003,
      "d": 118.10999999998603,
      "v": 115
    },
    {
      "midi": 68,
      "hit": false,
      "t": 144099.12124999994,
      "d": 118.11000000001513,
      "v": 115
    },
    {
      "midi": 68,
      "hit": false,
      "t": 144099.12125000003,
      "d": 118.11000000001513,
      "v": 115
    },
    {
      "midi": 70,
      "hit": false,
      "t": 144143.41249999995,
      "d": 354.3300000000163,
      "v": 115
    },
    {
      "midi": 70,
      "hit": false,
      "t": 144143.41250000003,
      "d": 354.3300000000163,
      "v": 115
    },
    {
      "midi": 68,
      "hit": false,
      "t": 144537.11249999996,
      "d": 118.10999999998603,
      "v": 115
    },
    {
      "midi": 68,
      "hit": false,
      "t": 144537.11250000005,
      "d": 118.10999999998603,
      "v": 115
    },
    {
      "midi": 70,
      "hit": false,
      "t": 144586.32499999995,
      "d": 354.3299999999872,
      "v": 115
    },
    {
      "midi": 70,
      "hit": false,
      "t": 144586.32500000004,
      "d": 354.3299999999872,
      "v": 115
    },
    {
      "midi": 68,
      "hit": false,
      "t": 144994.78874999995,
      "d": 118.11000000001513,
      "v": 115
    },
    {
      "midi": 68,
      "hit": false,
      "t": 144994.78875000004,
      "d": 118.11000000001513,
      "v": 115
    },
    {
      "midi": 70,
      "hit": false,
      "t": 145039.07999999996,
      "d": 236.22000000000116,
      "v": 115
    },
    {
      "midi": 70,
      "hit": false,
      "t": 145039.08000000005,
      "d": 236.22000000000116,
      "v": 115
    },
    {
      "midi": 68,
      "hit": false,
      "t": 145358.96124999996,
      "d": 118.10999999998603,
      "v": 115
    },
    {
      "midi": 68,
      "hit": false,
      "t": 145358.96125000005,
      "d": 118.10999999998603,
      "v": 115
    },
    {
      "midi": 70,
      "hit": false,
      "t": 145477.07124999995,
      "d": 118.11000000001513,
      "v": 115
    },
    {
      "midi": 70,
      "hit": false,
      "t": 145477.07125000004,
      "d": 118.11000000001513,
      "v": 115
    },
    {
      "midi": 72,
      "hit": false,
      "t": 145531.20499999996,
      "d": 354.3300000000163,
      "v": 115
    },
    {
      "midi": 72,
      "hit": false,
      "t": 145531.20500000005,
      "d": 354.3300000000163,
      "v": 115
    },
    {
      "midi": 68,
      "hit": false,
      "t": 145856.00749999998,
      "d": 118.11000000001513,
      "v": 115
    },
    {
      "midi": 68,
      "hit": false,
      "t": 145856.00750000007,
      "d": 118.11000000001513,
      "v": 115
    },
    {
      "midi": 65,
      "hit": false,
      "t": 145949.51124999998,
      "d": 118.11000000001513,
      "v": 115
    },
    {
      "midi": 65,
      "hit": false,
      "t": 145949.51125000007,
      "d": 118.11000000001513,
      "v": 115
    },
    {
      "midi": 65,
      "hit": false,
      "t": 147745.7675,
      "d": 118.11000000001513,
      "v": 115
    },
    {
      "midi": 65,
      "hit": false,
      "t": 147745.76750000007,
      "d": 118.11000000001513,
      "v": 115
    },
    {
      "midi": 68,
      "hit": false,
      "t": 147849.11375,
      "d": 118.11000000001513,
      "v": 115
    },
    {
      "midi": 68,
      "hit": false,
      "t": 147849.11375000008,
      "d": 118.11000000001513,
      "v": 115
    },
    {
      "midi": 70,
      "hit": false,
      "t": 147873.72,
      "d": 354.3300000000163,
      "v": 115
    },
    {
      "midi": 70,
      "hit": false,
      "t": 147873.7200000001,
      "d": 354.3300000000163,
      "v": 115
    },
    {
      "midi": 68,
      "hit": false,
      "t": 148292.02625000002,
      "d": 118.11000000001513,
      "v": 115
    },
    {
      "midi": 68,
      "hit": false,
      "t": 148292.0262500001,
      "d": 118.11000000001513,
      "v": 115
    },
    {
      "midi": 70,
      "hit": false,
      "t": 148336.31750000003,
      "d": 354.3300000000163,
      "v": 115
    },
    {
      "midi": 70,
      "hit": false,
      "t": 148336.31750000012,
      "d": 354.3300000000163,
      "v": 115
    },
    {
      "midi": 70,
      "hit": false,
      "t": 148803.83625000005,
      "d": 354.3300000000163,
      "v": 115
    },
    {
      "midi": 70,
      "hit": false,
      "t": 148803.83625000014,
      "d": 354.3300000000163,
      "v": 115
    },
    {
      "midi": 68,
      "hit": false,
      "t": 148808.75750000007,
      "d": 118.10999999998603,
      "v": 115
    },
    {
      "midi": 68,
      "hit": false,
      "t": 148808.75750000015,
      "d": 118.10999999998603,
      "v": 115
    },
    {
      "midi": 68,
      "hit": false,
      "t": 149143.40250000005,
      "d": 118.11000000001513,
      "v": 115
    },
    {
      "midi": 68,
      "hit": false,
      "t": 149143.40250000014,
      "d": 118.11000000001513,
      "v": 115
    },
    {
      "midi": 70,
      "hit": false,
      "t": 149261.51250000007,
      "d": 118.10999999998603,
      "v": 115
    },
    {
      "midi": 70,
      "hit": false,
      "t": 149261.51250000016,
      "d": 118.10999999998603,
      "v": 115
    },
    {
      "midi": 72,
      "hit": false,
      "t": 149310.72500000006,
      "d": 354.3299999999872,
      "v": 115
    },
    {
      "midi": 72,
      "hit": false,
      "t": 149310.72500000015,
      "d": 354.3299999999872,
      "v": 115
    },
    {
      "midi": 70,
      "hit": false,
      "t": 149601.07875000004,
      "d": 118.11000000001513,
      "v": 115
    },
    {
      "midi": 70,
      "hit": false,
      "t": 149601.07875000013,
      "d": 118.11000000001513,
      "v": 115
    },
    {
      "midi": 68,
      "hit": false,
      "t": 149674.89750000005,
      "d": 118.11000000001513,
      "v": 115
    },
    {
      "midi": 68,
      "hit": false,
      "t": 149674.89750000014,
      "d": 118.11000000001513,
      "v": 115
    },
    {
      "midi": 65,
      "hit": false,
      "t": 149719.18875000006,
      "d": 354.3300000000163,
      "v": 115
    },
    {
      "midi": 65,
      "hit": false,
      "t": 149719.18875000015,
      "d": 354.3300000000163,
      "v": 115
    },
    {
      "midi": 63,
      "hit": false,
      "t": 151166.03625000006,
      "d": 118.11000000001513,
      "v": 115
    },
    {
      "midi": 63,
      "hit": false,
      "t": 151166.03625000015,
      "d": 118.11000000001513,
      "v": 115
    },
    {
      "midi": 65,
      "hit": false,
      "t": 151210.32750000007,
      "d": 354.3300000000163,
      "v": 115
    },
    {
      "midi": 65,
      "hit": false,
      "t": 151210.32750000016,
      "d": 354.3300000000163,
      "v": 115
    },
    {
      "midi": 60,
      "hit": false,
      "t": 151638.4762500001,
      "d": 236.22000000000116,
      "v": 115
    },
    {
      "midi": 60,
      "hit": false,
      "t": 151638.47625000018,
      "d": 236.22000000000116,
      "v": 115
    },
    {
      "midi": 58,
      "hit": false,
      "t": 152622.7262500001,
      "d": 118.11000000001513,
      "v": 115
    },
    {
      "midi": 58,
      "hit": false,
      "t": 152622.72625000018,
      "d": 118.11000000001513,
      "v": 115
    },
    {
      "midi": 60,
      "hit": false,
      "t": 152627.6475000001,
      "d": 472.4400000000023,
      "v": 115
    },
    {
      "midi": 60,
      "hit": false,
      "t": 152627.6475000002,
      "d": 472.4400000000023,
      "v": 115
    },
    {
      "midi": 58,
      "hit": false,
      "t": 153100.0875000001,
      "d": 118.10999999998603,
      "v": 115
    },
    {
      "midi": 58,
      "hit": false,
      "t": 153100.0875000002,
      "d": 118.10999999998603,
      "v": 115
    },
    {
      "midi": 58,
      "hit": false,
      "t": 153572.52750000008,
      "d": 354.3300000000163,
      "v": 115
    },
    {
      "midi": 58,
      "hit": false,
      "t": 153572.52750000017,
      "d": 354.3300000000163,
      "v": 115
    },
    {
      "midi": 56,
      "hit": false,
      "t": 153892.4087500001,
      "d": 118.11000000001513,
      "v": 115
    },
    {
      "midi": 56,
      "hit": false,
      "t": 153892.40875000018,
      "d": 118.11000000001513,
      "v": 115
    },
    {
      "midi": 58,
      "hit": false,
      "t": 154000.6762500001,
      "d": 118.10999999998603,
      "v": 115
    },
    {
      "midi": 58,
      "hit": false,
      "t": 154000.6762500002,
      "d": 118.10999999998603,
      "v": 115
    },
    {
      "midi": 58,
      "hit": false,
      "t": 154482.95875000008,
      "d": 354.3299999999872,
      "v": 115
    },
    {
      "midi": 58,
      "hit": false,
      "t": 154482.95875000017,
      "d": 354.3299999999872,
      "v": 115
    },
    {
      "midi": 56,
      "hit": false,
      "t": 154847.13125000006,
      "d": 118.11000000001513,
      "v": 115
    },
    {
      "midi": 56,
      "hit": false,
      "t": 154847.13125000015,
      "d": 118.11000000001513,
      "v": 115
    },
    {
      "midi": 58,
      "hit": false,
      "t": 154950.47750000007,
      "d": 118.11000000001513,
      "v": 115
    },
    {
      "midi": 58,
      "hit": false,
      "t": 154950.47750000015,
      "d": 118.11000000001513,
      "v": 115
    },
    {
      "midi": 58,
      "hit": false,
      "t": 155422.91750000007,
      "d": 354.3299999999872,
      "v": 115
    },
    {
      "midi": 58,
      "hit": false,
      "t": 155422.91750000016,
      "d": 354.3299999999872,
      "v": 115
    },
    {
      "midi": 56,
      "hit": false,
      "t": 155796.93250000005,
      "d": 118.10999999998603,
      "v": 115
    },
    {
      "midi": 56,
      "hit": false,
      "t": 155796.93250000014,
      "d": 118.10999999998603,
      "v": 115
    },
    {
      "midi": 58,
      "hit": false,
      "t": 155875.67250000004,
      "d": 118.10999999998603,
      "v": 115
    },
    {
      "midi": 58,
      "hit": false,
      "t": 155875.67250000013,
      "d": 118.10999999998603,
      "v": 115
    },
    {
      "midi": 70,
      "hit": false,
      "t": 156362.87625000003,
      "d": 354.3299999999872,
      "v": 115
    },
    {
      "midi": 70,
      "hit": false,
      "t": 156362.87625000012,
      "d": 354.3299999999872,
      "v": 115
    },
    {
      "midi": 68,
      "hit": false,
      "t": 156727.04875000002,
      "d": 118.10999999998603,
      "v": 115
    },
    {
      "midi": 68,
      "hit": false,
      "t": 156727.0487500001,
      "d": 118.10999999998603,
      "v": 115
    },
    {
      "midi": 65,
      "hit": false,
      "t": 156835.31625,
      "d": 354.3299999999872,
      "v": 115
    },
    {
      "midi": 65,
      "hit": false,
      "t": 156835.3162500001,
      "d": 354.3299999999872,
      "v": 115
    },
    {
      "midi": 65,
      "hit": false,
      "t": 157238.85874999998,
      "d": 118.10999999998603,
      "v": 115
    },
    {
      "midi": 65,
      "hit": false,
      "t": 157238.85875000007,
      "d": 118.10999999998603,
      "v": 115
    },
    {
      "midi": 56,
      "hit": false,
      "t": 158296.92749999996,
      "d": 118.11000000001513,
      "v": 115
    },
    {
      "midi": 56,
      "hit": false,
      "t": 158296.92750000005,
      "d": 118.11000000001513,
      "v": 115
    },
    {
      "midi": 58,
      "hit": false,
      "t": 158390.43124999997,
      "d": 354.3300000000163,
      "v": 115
    },
    {
      "midi": 58,
      "hit": false,
      "t": 158390.43125000005,
      "d": 354.3300000000163,
      "v": 115
    },
    {
      "midi": 56,
      "hit": false,
      "t": 158764.44624999998,
      "d": 118.11000000001513,
      "v": 115
    },
    {
      "midi": 56,
      "hit": false,
      "t": 158764.44625000007,
      "d": 118.11000000001513,
      "v": 115
    },
    {
      "midi": 53,
      "hit": false,
      "t": 158857.94999999998,
      "d": 354.3300000000163,
      "v": 115
    },
    {
      "midi": 53,
      "hit": false,
      "t": 158857.95000000007,
      "d": 354.3300000000163,
      "v": 115
    },
    {
      "midi": 60,
      "hit": false,
      "t": 160555.78125,
      "d": 118.11000000001513,
      "v": 115
    },
    {
      "midi": 60,
      "hit": false,
      "t": 160555.7812500001,
      "d": 118.11000000001513,
      "v": 115
    },
    {
      "midi": 66,
      "hit": false,
      "t": 160624.67875,
      "d": 118.11000000001513,
      "v": 115
    },
    {
      "midi": 66,
      "hit": false,
      "t": 160624.67875000008,
      "d": 118.11000000001513,
      "v": 115
    },
    {
      "midi": 67,
      "hit": false,
      "t": 160659.1275,
      "d": 472.4400000000023,
      "v": 115
    },
    {
      "midi": 67,
      "hit": false,
      "t": 160659.1275000001,
      "d": 472.4400000000023,
      "v": 115
    },
    {
      "midi": 66,
      "hit": false,
      "t": 161106.96125,
      "d": 118.11000000001513,
      "v": 115
    },
    {
      "midi": 66,
      "hit": false,
      "t": 161106.96125000008,
      "d": 118.11000000001513,
      "v": 115
    },
    {
      "midi": 67,
      "hit": false,
      "t": 161136.48875000002,
      "d": 472.4400000000023,
      "v": 115
    },
    {
      "midi": 67,
      "hit": false,
      "t": 161136.4887500001,
      "d": 472.4400000000023,
      "v": 115
    },
    {
      "midi": 63,
      "hit": false,
      "t": 161599.08625000002,
      "d": 118.10999999998603,
      "v": 115
    },
    {
      "midi": 63,
      "hit": false,
      "t": 161599.0862500001,
      "d": 118.10999999998603,
      "v": 115
    },
    {
      "midi": 60,
      "hit": false,
      "t": 161658.14125000002,
      "d": 354.3299999999872,
      "v": 115
    },
    {
      "midi": 60,
      "hit": false,
      "t": 161658.1412500001,
      "d": 354.3299999999872,
      "v": 115
    },
    {
      "midi": 63,
      "hit": false,
      "t": 162076.4475,
      "d": 118.11000000001513,
      "v": 115
    },
    {
      "midi": 63,
      "hit": false,
      "t": 162076.4475000001,
      "d": 118.11000000001513,
      "v": 115
    },
    {
      "midi": 65,
      "hit": false,
      "t": 162101.05375000002,
      "d": 354.3300000000163,
      "v": 115
    },
    {
      "midi": 65,
      "hit": false,
      "t": 162101.0537500001,
      "d": 354.3300000000163,
      "v": 115
    },
    {
      "midi": 63,
      "hit": false,
      "t": 162548.88750000004,
      "d": 118.11000000001513,
      "v": 115
    },
    {
      "midi": 63,
      "hit": false,
      "t": 162548.88750000013,
      "d": 118.11000000001513,
      "v": 115
    },
    {
      "midi": 65,
      "hit": false,
      "t": 162563.65125000005,
      "d": 472.4400000000023,
      "v": 115
    },
    {
      "midi": 65,
      "hit": false,
      "t": 162563.65125000014,
      "d": 472.4400000000023,
      "v": 115
    },
    {
      "midi": 63,
      "hit": false,
      "t": 163021.32750000004,
      "d": 118.11000000001513,
      "v": 115
    },
    {
      "midi": 63,
      "hit": false,
      "t": 163021.32750000013,
      "d": 118.11000000001513,
      "v": 115
    },
    {
      "midi": 65,
      "hit": false,
      "t": 163045.93375000005,
      "d": 354.3300000000163,
      "v": 115
    },
    {
      "midi": 65,
      "hit": false,
      "t": 163045.93375000014,
      "d": 354.3300000000163,
      "v": 115
    },
    {
      "midi": 63,
      "hit": false,
      "t": 163459.31875000006,
      "d": 118.10999999998603,
      "v": 115
    },
    {
      "midi": 63,
      "hit": false,
      "t": 163459.31875000015,
      "d": 118.10999999998603,
      "v": 115
    },
    {
      "midi": 65,
      "hit": false,
      "t": 163498.68875000006,
      "d": 354.3299999999872,
      "v": 115
    },
    {
      "midi": 65,
      "hit": false,
      "t": 163498.68875000015,
      "d": 354.3299999999872,
      "v": 115
    },
    {
      "midi": 63,
      "hit": false,
      "t": 163926.83750000005,
      "d": 118.10999999998603,
      "v": 115
    },
    {
      "midi": 63,
      "hit": false,
      "t": 163926.83750000014,
      "d": 118.10999999998603,
      "v": 115
    },
    {
      "midi": 65,
      "hit": false,
      "t": 163966.20750000005,
      "d": 118.10999999998603,
      "v": 115
    },
    {
      "midi": 65,
      "hit": false,
      "t": 163966.20750000014,
      "d": 118.10999999998603,
      "v": 115
    },
    {
      "midi": 63,
      "hit": false,
      "t": 164286.08875000002,
      "d": 118.10999999998603,
      "v": 115
    },
    {
      "midi": 63,
      "hit": false,
      "t": 164286.0887500001,
      "d": 118.10999999998603,
      "v": 115
    },
    {
      "midi": 65,
      "hit": false,
      "t": 164404.19875,
      "d": 354.3299999999872,
      "v": 115
    },
    {
      "midi": 65,
      "hit": false,
      "t": 164404.1987500001,
      "d": 354.3299999999872,
      "v": 115
    },
    {
      "midi": 65,
      "hit": false,
      "t": 175747.68,
      "d": 472.4400000000023,
      "v": 100
    },
    {
      "midi": 65,
      "hit": false,
      "t": 175747.68,
      "d": 472.4400000000023,
      "v": 100
    },
    {
      "midi": 75,
      "hit": false,
      "t": 176102.01,
      "d": 118.10999999998603,
      "v": 100
    },
    {
      "midi": 80,
      "hit": false,
      "t": 176102.01,
      "d": 118.10999999998603,
      "v": 100
    },
    {
      "midi": 84,
      "hit": false,
      "t": 176102.01,
      "d": 118.10999999998603,
      "v": 100
    },
    {
      "midi": 75,
      "hit": false,
      "t": 176102.01,
      "d": 118.10999999998603,
      "v": 100
    },
    {
      "midi": 80,
      "hit": false,
      "t": 176102.01,
      "d": 118.10999999998603,
      "v": 100
    },
    {
      "midi": 84,
      "hit": false,
      "t": 176102.01,
      "d": 118.10999999998603,
      "v": 100
    },
    {
      "midi": 53,
      "hit": false,
      "t": 176123.6635,
      "d": 118.11000000001513,
      "v": 90
    },
    {
      "midi": 53,
      "hit": false,
      "t": 176495.71000000002,
      "d": 118.10999999998603,
      "v": 90
    },
    {
      "midi": 63,
      "hit": false,
      "t": 177396.29875,
      "d": 118.11000000001513,
      "v": 90
    },
    {
      "midi": 65,
      "hit": false,
      "t": 177506.53475,
      "d": 118.11000000001513,
      "v": 90
    },
    {
      "midi": 53,
      "hit": false,
      "t": 177875.62850000002,
      "d": 118.10999999998603,
      "v": 90
    },
    {
      "midi": 53,
      "hit": false,
      "t": 178215.19475,
      "d": 118.10999999998603,
      "v": 90
    },
    {
      "midi": 53,
      "hit": false,
      "t": 178602.00499999998,
      "d": 236.22000000000116,
      "v": 90
    },
    {
      "midi": 53,
      "hit": false,
      "t": 178931.72874999998,
      "d": 118.10999999998603,
      "v": 90
    },
    {
      "midi": 55,
      "hit": false,
      "t": 179273.26349999997,
      "d": 118.10999999998603,
      "v": 90
    },
    {
      "midi": 53,
      "hit": false,
      "t": 179396.29474999997,
      "d": 118.10999999998603,
      "v": 90
    },
    {
      "midi": 53,
      "hit": false,
      "t": 179527.19999999995,
      "d": 354.3299999999872,
      "v": 90
    },
    {
      "midi": 65,
      "hit": false,
      "t": 179881.52999999994,
      "d": 118.10999999998603,
      "v": 90
    },
    {
      "midi": 65,
      "hit": false,
      "t": 180117.7499999999,
      "d": 118.10999999998603,
      "v": 90
    },
    {
      "midi": 63,
      "hit": false,
      "t": 180235.8599999999,
      "d": 118.10999999998603,
      "v": 90
    },
    {
      "midi": 65,
      "hit": false,
      "t": 180472.07999999987,
      "d": 118.10999999998603,
      "v": 90
    },
    {
      "midi": 65,
      "hit": false,
      "t": 180826.40999999986,
      "d": 118.10999999998603,
      "v": 90
    },
    {
      "midi": 63,
      "hit": false,
      "t": 180944.51999999984,
      "d": 236.22000000000116,
      "v": 90
    },
    {
      "midi": 65,
      "hit": false,
      "t": 181180.73999999985,
      "d": 118.10999999998603,
      "v": 90
    },
    {
      "midi": 53,
      "hit": false,
      "t": 181653.17999999982,
      "d": 118.10999999998603,
      "v": 90
    },
    {
      "midi": 53,
      "hit": false,
      "t": 182007.5099999998,
      "d": 118.10999999998603,
      "v": 90
    },
    {
      "midi": 53,
      "hit": false,
      "t": 182361.8399999998,
      "d": 354.3299999999872,
      "v": 90
    },
    {
      "midi": 53,
      "hit": false,
      "t": 182716.16999999978,
      "d": 118.10999999998603,
      "v": 90
    },
    {
      "midi": 44,
      "hit": false,
      "t": 182834.27999999977,
      "d": 118.10999999998603,
      "v": 90
    },
    {
      "midi": 53,
      "hit": false,
      "t": 183070.49999999974,
      "d": 118.10999999998603,
      "v": 90
    },
    {
      "midi": 46,
      "hit": false,
      "t": 183308.68849999973,
      "d": 118.10999999998603,
      "v": 90
    },
    {
      "midi": 46,
      "hit": false,
      "t": 183682.7034999997,
      "d": 118.10999999998603,
      "v": 90
    },
    {
      "midi": 46,
      "hit": false,
      "t": 184054.7499999997,
      "d": 118.10999999998603,
      "v": 90
    },
    {
      "midi": 56,
      "hit": false,
      "t": 184955.3387499997,
      "d": 118.11000000001513,
      "v": 90
    },
    {
      "midi": 58,
      "hit": false,
      "t": 185065.5747499997,
      "d": 118.11000000001513,
      "v": 90
    },
    {
      "midi": 46,
      "hit": false,
      "t": 185434.66849999974,
      "d": 118.10999999998603,
      "v": 90
    },
    {
      "midi": 46,
      "hit": false,
      "t": 185774.2347499997,
      "d": 118.10999999998603,
      "v": 90
    },
    {
      "midi": 46,
      "hit": false,
      "t": 186161.0449999997,
      "d": 236.22000000000116,
      "v": 90
    },
    {
      "midi": 46,
      "hit": false,
      "t": 186490.7687499997,
      "d": 118.10999999998603,
      "v": 90
    },
    {
      "midi": 49,
      "hit": false,
      "t": 186832.3034999997,
      "d": 118.10999999998603,
      "v": 90
    },
    {
      "midi": 53,
      "hit": false,
      "t": 186955.3347499997,
      "d": 118.10999999998603,
      "v": 90
    },
    {
      "midi": 53,
      "hit": false,
      "t": 187088.2084999997,
      "d": 118.10999999998603,
      "v": 90
    },
    {
      "midi": 53,
      "hit": false,
      "t": 187462.22349999967,
      "d": 118.10999999998603,
      "v": 90
    },
    {
      "midi": 53,
      "hit": false,
      "t": 187834.26999999967,
      "d": 118.10999999998603,
      "v": 90
    },
    {
      "midi": 63,
      "hit": false,
      "t": 188734.85874999966,
      "d": 118.11000000001513,
      "v": 90
    },
    {
      "midi": 65,
      "hit": false,
      "t": 188845.09474999967,
      "d": 118.11000000001513,
      "v": 90
    },
    {
      "midi": 53,
      "hit": false,
      "t": 189214.1884999997,
      "d": 118.10999999998603,
      "v": 90
    },
    {
      "midi": 53,
      "hit": false,
      "t": 189553.75474999967,
      "d": 118.10999999998603,
      "v": 90
    },
    {
      "midi": 53,
      "hit": false,
      "t": 189940.56499999965,
      "d": 236.22000000000116,
      "v": 90
    },
    {
      "midi": 53,
      "hit": false,
      "t": 190270.28874999966,
      "d": 118.10999999998603,
      "v": 90
    },
    {
      "midi": 44,
      "hit": false,
      "t": 190611.82349999965,
      "d": 118.10999999998603,
      "v": 90
    },
    {
      "midi": 48,
      "hit": false,
      "t": 190734.85474999965,
      "d": 118.10999999998603,
      "v": 90
    },
    {
      "midi": 48,
      "hit": false,
      "t": 190865.75999999963,
      "d": 236.22000000000116,
      "v": 90
    },
    {
      "midi": 48,
      "hit": false,
      "t": 191220.08999999962,
      "d": 118.10999999998603,
      "v": 90
    },
    {
      "midi": 58,
      "hit": false,
      "t": 191574.4199999996,
      "d": 236.22000000000116,
      "v": 90
    },
    {
      "midi": 60,
      "hit": false,
      "t": 191810.6399999996,
      "d": 236.22000000000116,
      "v": 90
    },
    {
      "midi": 60,
      "hit": false,
      "t": 192164.9699999996,
      "d": 118.10999999998603,
      "v": 90
    },
    {
      "midi": 58,
      "hit": false,
      "t": 192283.07999999958,
      "d": 236.22000000000116,
      "v": 90
    },
    {
      "midi": 60,
      "hit": false,
      "t": 192519.29999999958,
      "d": 118.10999999998603,
      "v": 90
    },
    {
      "midi": 46,
      "hit": false,
      "t": 192777.17349999957,
      "d": 354.3299999999872,
      "v": 90
    },
    {
      "midi": 58,
      "hit": false,
      "t": 193129.53499999957,
      "d": 118.10999999998603,
      "v": 90
    },
    {
      "midi": 58,
      "hit": false,
      "t": 193360.83374999955,
      "d": 118.10999999998603,
      "v": 90
    },
    {
      "midi": 56,
      "hit": false,
      "t": 193589.17974999954,
      "d": 118.11000000001513,
      "v": 90
    },
    {
      "midi": 58,
      "hit": false,
      "t": 193682.68349999955,
      "d": 472.4400000000023,
      "v": 90
    },
    {
      "midi": 56,
      "hit": false,
      "t": 194179.72974999956,
      "d": 236.22000000000116,
      "v": 90
    },
    {
      "midi": 58,
      "hit": false,
      "t": 194435.63474999956,
      "d": 118.10999999998603,
      "v": 90
    },
    {
      "midi": 53,
      "hit": false,
      "t": 194666.93349999955,
      "d": 354.3299999999872,
      "v": 90
    },
    {
      "midi": 65,
      "hit": false,
      "t": 195019.29499999955,
      "d": 118.10999999998603,
      "v": 90
    },
    {
      "midi": 65,
      "hit": false,
      "t": 195250.59374999953,
      "d": 118.10999999998603,
      "v": 90
    },
    {
      "midi": 63,
      "hit": false,
      "t": 195478.93974999952,
      "d": 118.11000000001513,
      "v": 90
    },
    {
      "midi": 65,
      "hit": false,
      "t": 195572.44349999953,
      "d": 472.4400000000023,
      "v": 90
    },
    {
      "midi": 63,
      "hit": false,
      "t": 196069.48974999954,
      "d": 236.22000000000116,
      "v": 90
    },
    {
      "midi": 65,
      "hit": false,
      "t": 196325.39474999954,
      "d": 118.10999999998603,
      "v": 90
    },
    {
      "midi": 53,
      "hit": false,
      "t": 196537.00849999953,
      "d": 118.10999999998603,
      "v": 90
    },
    {
      "midi": 53,
      "hit": false,
      "t": 196911.02349999952,
      "d": 118.10999999998603,
      "v": 90
    },
    {
      "midi": 53,
      "hit": false,
      "t": 197283.0699999995,
      "d": 118.10999999998603,
      "v": 90
    },
    {
      "midi": 63,
      "hit": false,
      "t": 198183.6587499995,
      "d": 118.11000000001513,
      "v": 90
    },
    {
      "midi": 65,
      "hit": false,
      "t": 198293.8947499995,
      "d": 118.11000000001513,
      "v": 90
    },
    {
      "midi": 53,
      "hit": false,
      "t": 198662.98849999954,
      "d": 118.10999999998603,
      "v": 90
    },
    {
      "midi": 53,
      "hit": false,
      "t": 199002.55474999952,
      "d": 118.10999999998603,
      "v": 90
    },
    {
      "midi": 53,
      "hit": false,
      "t": 199389.3649999995,
      "d": 236.22000000000116,
      "v": 90
    },
    {
      "midi": 53,
      "hit": false,
      "t": 199719.0887499995,
      "d": 118.10999999998603,
      "v": 90
    },
    {
      "midi": 55,
      "hit": false,
      "t": 200060.6234999995,
      "d": 118.10999999998603,
      "v": 90
    },
    {
      "midi": 53,
      "hit": false,
      "t": 200183.6547499995,
      "d": 118.10999999998603,
      "v": 90
    },
    {
      "midi": 53,
      "hit": false,
      "t": 200314.55999999947,
      "d": 354.3299999999872,
      "v": 90
    },
    {
      "midi": 65,
      "hit": false,
      "t": 200668.88999999946,
      "d": 118.10999999998603,
      "v": 90
    },
    {
      "midi": 65,
      "hit": false,
      "t": 200905.10999999943,
      "d": 118.10999999998603,
      "v": 90
    },
    {
      "midi": 63,
      "hit": false,
      "t": 201023.21999999942,
      "d": 118.10999999998603,
      "v": 90
    },
    {
      "midi": 65,
      "hit": false,
      "t": 201259.4399999994,
      "d": 118.10999999998603,
      "v": 90
    },
    {
      "midi": 65,
      "hit": false,
      "t": 201613.76999999938,
      "d": 118.10999999998603,
      "v": 90
    },
    {
      "midi": 63,
      "hit": false,
      "t": 201731.87999999936,
      "d": 236.22000000000116,
      "v": 90
    },
    {
      "midi": 65,
      "hit": false,
      "t": 201968.09999999937,
      "d": 118.10999999998603,
      "v": 90
    },
    {
      "midi": 53,
      "hit": false,
      "t": 202440.53999999934,
      "d": 118.10999999998603,
      "v": 90
    },
    {
      "midi": 53,
      "hit": false,
      "t": 202794.86999999933,
      "d": 118.10999999998603,
      "v": 90
    },
    {
      "midi": 53,
      "hit": false,
      "t": 203149.1999999993,
      "d": 354.3299999999872,
      "v": 90
    },
    {
      "midi": 53,
      "hit": false,
      "t": 203503.5299999993,
      "d": 118.10999999998603,
      "v": 90
    },
    {
      "midi": 44,
      "hit": false,
      "t": 203621.6399999993,
      "d": 118.10999999998603,
      "v": 90
    },
    {
      "midi": 53,
      "hit": false,
      "t": 203857.85999999926,
      "d": 118.10999999998603,
      "v": 90
    },
    {
      "midi": 46,
      "hit": false,
      "t": 204096.04849999925,
      "d": 118.10999999998603,
      "v": 90
    },
    {
      "midi": 46,
      "hit": false,
      "t": 204470.06349999923,
      "d": 118.10999999998603,
      "v": 90
    },
    {
      "midi": 46,
      "hit": false,
      "t": 204842.10999999923,
      "d": 118.10999999998603,
      "v": 90
    },
    {
      "midi": 56,
      "hit": false,
      "t": 205742.69874999922,
      "d": 118.11000000001513,
      "v": 90
    },
    {
      "midi": 58,
      "hit": false,
      "t": 205852.93474999923,
      "d": 118.11000000001513,
      "v": 90
    },
    {
      "midi": 46,
      "hit": false,
      "t": 206222.02849999926,
      "d": 118.10999999998603,
      "v": 90
    },
    {
      "midi": 46,
      "hit": false,
      "t": 206561.59474999923,
      "d": 118.10999999998603,
      "v": 90
    },
    {
      "midi": 46,
      "hit": false,
      "t": 206948.4049999992,
      "d": 236.22000000000116,
      "v": 90
    },
    {
      "midi": 46,
      "hit": false,
      "t": 207278.12874999922,
      "d": 118.10999999998603,
      "v": 90
    },
    {
      "midi": 49,
      "hit": false,
      "t": 207619.6634999992,
      "d": 118.10999999998603,
      "v": 90
    },
    {
      "midi": 53,
      "hit": false,
      "t": 207742.6947499992,
      "d": 118.10999999998603,
      "v": 90
    },
    {
      "midi": 53,
      "hit": false,
      "t": 207875.5684999992,
      "d": 118.10999999998603,
      "v": 90
    },
    {
      "midi": 53,
      "hit": false,
      "t": 208249.5834999992,
      "d": 118.10999999998603,
      "v": 90
    },
    {
      "midi": 53,
      "hit": false,
      "t": 208621.6299999992,
      "d": 118.10999999998603,
      "v": 90
    },
    {
      "midi": 63,
      "hit": false,
      "t": 209522.21874999919,
      "d": 118.11000000001513,
      "v": 90
    },
    {
      "midi": 65,
      "hit": false,
      "t": 209632.4547499992,
      "d": 118.11000000001513,
      "v": 90
    },
    {
      "midi": 53,
      "hit": false,
      "t": 210001.54849999922,
      "d": 118.10999999998603,
      "v": 90
    },
    {
      "midi": 53,
      "hit": false,
      "t": 210341.1147499992,
      "d": 118.10999999998603,
      "v": 90
    },
    {
      "midi": 53,
      "hit": false,
      "t": 210727.92499999917,
      "d": 236.22000000000116,
      "v": 90
    },
    {
      "midi": 53,
      "hit": false,
      "t": 211057.64874999918,
      "d": 118.10999999998603,
      "v": 90
    },
    {
      "midi": 44,
      "hit": false,
      "t": 211399.18349999917,
      "d": 118.10999999998603,
      "v": 90
    },
    {
      "midi": 48,
      "hit": false,
      "t": 211522.21474999917,
      "d": 118.10999999998603,
      "v": 90
    },
    {
      "midi": 48,
      "hit": false,
      "t": 211653.11999999915,
      "d": 236.22000000000116,
      "v": 90
    },
    {
      "midi": 48,
      "hit": false,
      "t": 212007.44999999914,
      "d": 118.10999999998603,
      "v": 90
    },
    {
      "midi": 58,
      "hit": false,
      "t": 212361.77999999913,
      "d": 236.22000000000116,
      "v": 90
    },
    {
      "midi": 60,
      "hit": false,
      "t": 212597.99999999913,
      "d": 236.22000000000116,
      "v": 90
    },
    {
      "midi": 60,
      "hit": false,
      "t": 212952.3299999991,
      "d": 118.10999999998603,
      "v": 90
    },
    {
      "midi": 58,
      "hit": false,
      "t": 213070.4399999991,
      "d": 236.22000000000116,
      "v": 90
    },
    {
      "midi": 60,
      "hit": false,
      "t": 213306.6599999991,
      "d": 118.10999999998603,
      "v": 90
    },
    {
      "midi": 46,
      "hit": false,
      "t": 213564.5334999991,
      "d": 354.3299999999872,
      "v": 90
    },
    {
      "midi": 58,
      "hit": false,
      "t": 213916.8949999991,
      "d": 118.10999999998603,
      "v": 90
    },
    {
      "midi": 58,
      "hit": false,
      "t": 214148.19374999907,
      "d": 118.10999999998603,
      "v": 90
    },
    {
      "midi": 56,
      "hit": false,
      "t": 214376.53974999906,
      "d": 118.11000000001513,
      "v": 90
    },
    {
      "midi": 58,
      "hit": false,
      "t": 214470.04349999907,
      "d": 472.4400000000023,
      "v": 90
    },
    {
      "midi": 56,
      "hit": false,
      "t": 214967.08974999908,
      "d": 236.22000000000116,
      "v": 90
    },
    {
      "midi": 58,
      "hit": false,
      "t": 215222.99474999908,
      "d": 118.10999999998603,
      "v": 90
    },
    {
      "midi": 53,
      "hit": false,
      "t": 215454.29349999907,
      "d": 354.3299999999872,
      "v": 90
    },
    {
      "midi": 65,
      "hit": false,
      "t": 215806.65499999907,
      "d": 118.10999999998603,
      "v": 90
    },
    {
      "midi": 65,
      "hit": false,
      "t": 216037.95374999905,
      "d": 118.10999999998603,
      "v": 90
    },
    {
      "midi": 63,
      "hit": false,
      "t": 216266.29974999905,
      "d": 118.11000000001513,
      "v": 90
    },
    {
      "midi": 65,
      "hit": false,
      "t": 216359.80349999905,
      "d": 472.4400000000023,
      "v": 90
    },
    {
      "midi": 63,
      "hit": false,
      "t": 216856.84974999906,
      "d": 236.22000000000116,
      "v": 90
    },
    {
      "midi": 65,
      "hit": false,
      "t": 217112.75474999906,
      "d": 118.10999999998603,
      "v": 90
    },
    {
      "midi": 53,
      "hit": false,
      "t": 217344.05349999905,
      "d": 354.3299999999872,
      "v": 90
    },
    {
      "midi": 65,
      "hit": false,
      "t": 217696.41499999905,
      "d": 118.10999999998603,
      "v": 90
    },
    {
      "midi": 65,
      "hit": false,
      "t": 217927.71374999903,
      "d": 118.10999999998603,
      "v": 90
    },
    {
      "midi": 63,
      "hit": false,
      "t": 218156.05974999903,
      "d": 118.11000000001513,
      "v": 90
    },
    {
      "midi": 65,
      "hit": false,
      "t": 218249.56349999903,
      "d": 472.4400000000023,
      "v": 90
    },
    {
      "midi": 63,
      "hit": false,
      "t": 218746.60974999904,
      "d": 236.22000000000116,
      "v": 90
    },
    {
      "midi": 65,
      "hit": false,
      "t": 219002.51474999904,
      "d": 118.10999999998603,
      "v": 90
    },
    {
      "midi": 53,
      "hit": false,
      "t": 219214.12849999903,
      "d": 118.10999999998603,
      "v": 90
    },
    {
      "midi": 53,
      "hit": false,
      "t": 219588.14349999902,
      "d": 118.10999999998603,
      "v": 90
    },
    {
      "midi": 53,
      "hit": false,
      "t": 219960.189999999,
      "d": 118.10999999998603,
      "v": 90
    },
    {
      "midi": 63,
      "hit": false,
      "t": 220860.778749999,
      "d": 118.11000000001513,
      "v": 90
    },
    {
      "midi": 65,
      "hit": false,
      "t": 220971.014749999,
      "d": 118.11000000001513,
      "v": 90
    },
    {
      "midi": 53,
      "hit": false,
      "t": 221340.10849999904,
      "d": 118.10999999998603,
      "v": 90
    },
    {
      "midi": 53,
      "hit": false,
      "t": 221679.67474999902,
      "d": 118.10999999998603,
      "v": 90
    },
    {
      "midi": 53,
      "hit": false,
      "t": 222066.484999999,
      "d": 236.22000000000116,
      "v": 90
    },
    {
      "midi": 53,
      "hit": false,
      "t": 222396.208749999,
      "d": 118.10999999998603,
      "v": 90
    },
    {
      "midi": 55,
      "hit": false,
      "t": 222737.743499999,
      "d": 118.10999999998603,
      "v": 90
    },
    {
      "midi": 53,
      "hit": false,
      "t": 222860.774749999,
      "d": 118.10999999998603,
      "v": 90
    },
    {
      "midi": 53,
      "hit": false,
      "t": 222993.648499999,
      "d": 118.10999999998603,
      "v": 90
    },
    {
      "midi": 53,
      "hit": false,
      "t": 223367.66349999898,
      "d": 118.10999999998603,
      "v": 90
    },
    {
      "midi": 53,
      "hit": false,
      "t": 223739.70999999897,
      "d": 118.10999999998603,
      "v": 90
    },
    {
      "midi": 63,
      "hit": false,
      "t": 224640.29874999897,
      "d": 118.11000000001513,
      "v": 90
    },
    {
      "midi": 65,
      "hit": false,
      "t": 224750.53474999897,
      "d": 118.11000000001513,
      "v": 90
    },
    {
      "midi": 53,
      "hit": false,
      "t": 225119.628499999,
      "d": 118.10999999998603,
      "v": 90
    },
    {
      "midi": 53,
      "hit": false,
      "t": 225459.19474999898,
      "d": 118.10999999998603,
      "v": 90
    },
    {
      "midi": 53,
      "hit": false,
      "t": 225846.00499999896,
      "d": 236.22000000000116,
      "v": 90
    },
    {
      "midi": 53,
      "hit": false,
      "t": 226175.72874999896,
      "d": 118.10999999998603,
      "v": 90
    },
    {
      "midi": 44,
      "hit": false,
      "t": 226517.26349999895,
      "d": 118.10999999998603,
      "v": 90
    },
    {
      "midi": 46,
      "hit": false,
      "t": 226640.29474999895,
      "d": 118.10999999998603,
      "v": 90
    },
    {
      "midi": 46,
      "hit": false,
      "t": 226773.16849999895,
      "d": 118.10999999998603,
      "v": 90
    },
    {
      "midi": 46,
      "hit": false,
      "t": 227147.18349999894,
      "d": 118.10999999998603,
      "v": 90
    },
    {
      "midi": 46,
      "hit": false,
      "t": 227519.22999999893,
      "d": 118.10999999998603,
      "v": 90
    },
    {
      "midi": 56,
      "hit": false,
      "t": 228419.81874999893,
      "d": 118.11000000001513,
      "v": 90
    },
    {
      "midi": 58,
      "hit": false,
      "t": 228530.05474999893,
      "d": 118.11000000001513,
      "v": 90
    },
    {
      "midi": 46,
      "hit": false,
      "t": 228899.14849999896,
      "d": 118.10999999998603,
      "v": 90
    },
    {
      "midi": 46,
      "hit": false,
      "t": 229238.71474999894,
      "d": 118.10999999998603,
      "v": 90
    },
    {
      "midi": 46,
      "hit": false,
      "t": 229625.52499999892,
      "d": 236.22000000000116,
      "v": 90
    },
    {
      "midi": 46,
      "hit": false,
      "t": 229955.24874999892,
      "d": 118.10999999998603,
      "v": 90
    },
    {
      "midi": 51,
      "hit": false,
      "t": 230296.7834999989,
      "d": 118.10999999998603,
      "v": 90
    },
    {
      "midi": 53,
      "hit": false,
      "t": 230419.8147499989,
      "d": 118.10999999998603,
      "v": 90
    },
    {
      "midi": 53,
      "hit": false,
      "t": 230550.7199999989,
      "d": 354.3299999999872,
      "v": 90
    },
    {
      "midi": 65,
      "hit": false,
      "t": 230905.04999999888,
      "d": 118.10999999998603,
      "v": 90
    },
    {
      "midi": 65,
      "hit": false,
      "t": 231141.26999999885,
      "d": 118.10999999998603,
      "v": 90
    },
    {
      "midi": 63,
      "hit": false,
      "t": 231259.37999999884,
      "d": 118.10999999998603,
      "v": 90
    },
    {
      "midi": 65,
      "hit": false,
      "t": 231495.5999999988,
      "d": 118.10999999998603,
      "v": 90
    },
    {
      "midi": 65,
      "hit": false,
      "t": 231849.9299999988,
      "d": 118.10999999998603,
      "v": 90
    },
    {
      "midi": 63,
      "hit": false,
      "t": 231968.0399999988,
      "d": 236.22000000000116,
      "v": 90
    },
    {
      "midi": 65,
      "hit": false,
      "t": 232204.2599999988,
      "d": 118.10999999998603,
      "v": 90
    },
    {
      "midi": 53,
      "hit": false,
      "t": 232676.69999999876,
      "d": 118.10999999998603,
      "v": 90
    },
    {
      "midi": 53,
      "hit": false,
      "t": 233031.02999999875,
      "d": 118.10999999998603,
      "v": 90
    },
    {
      "midi": 53,
      "hit": false,
      "t": 233385.35999999873,
      "d": 354.3299999999872,
      "v": 90
    },
    {
      "midi": 53,
      "hit": false,
      "t": 233739.68999999872,
      "d": 118.10999999998603,
      "v": 90
    },
    {
      "midi": 41,
      "hit": false,
      "t": 233857.7999999987,
      "d": 118.10999999998603,
      "v": 90
    },
    {
      "midi": 53,
      "hit": false,
      "t": 234094.01999999868,
      "d": 118.10999999998603,
      "v": 90
    },
    {
      "midi": 48,
      "hit": false,
      "t": 234330.23999999865,
      "d": 236.22000000000116,
      "v": 90
    },
    {
      "midi": 48,
      "hit": false,
      "t": 234684.56999999864,
      "d": 118.10999999998603,
      "v": 90
    },
    {
      "midi": 55,
      "hit": false,
      "t": 234920.7899999986,
      "d": 118.10999999998603,
      "v": 90
    },
    {
      "midi": 58,
      "hit": false,
      "t": 235038.8999999986,
      "d": 118.10999999998603,
      "v": 90
    },
    {
      "midi": 60,
      "hit": false,
      "t": 235157.00999999858,
      "d": 118.10999999998603,
      "v": 90
    },
    {
      "midi": 60,
      "hit": false,
      "t": 235393.22999999856,
      "d": 118.10999999998603,
      "v": 90
    },
    {
      "midi": 58,
      "hit": false,
      "t": 235629.44999999853,
      "d": 118.10999999998603,
      "v": 90
    },
    {
      "midi": 60,
      "hit": false,
      "t": 235747.5599999985,
      "d": 118.10999999998603,
      "v": 90
    },
    {
      "midi": 58,
      "hit": false,
      "t": 235865.6699999985,
      "d": 118.10999999998603,
      "v": 90
    },
    {
      "midi": 55,
      "hit": false,
      "t": 235983.77999999849,
      "d": 118.10999999998603,
      "v": 90
    },
    {
      "midi": 46,
      "hit": false,
      "t": 236219.99999999846,
      "d": 236.22000000000116,
      "v": 90
    },
    {
      "midi": 46,
      "hit": false,
      "t": 236574.32999999844,
      "d": 118.10999999998603,
      "v": 90
    },
    {
      "midi": 56,
      "hit": false,
      "t": 236928.65999999843,
      "d": 236.22000000000116,
      "v": 90
    },
    {
      "midi": 58,
      "hit": false,
      "t": 237164.87999999843,
      "d": 236.22000000000116,
      "v": 90
    },
    {
      "midi": 58,
      "hit": false,
      "t": 237519.20999999842,
      "d": 118.10999999998603,
      "v": 90
    },
    {
      "midi": 56,
      "hit": false,
      "t": 237637.3199999984,
      "d": 236.22000000000116,
      "v": 90
    },
    {
      "midi": 58,
      "hit": false,
      "t": 237873.5399999984,
      "d": 118.10999999998603,
      "v": 90
    },
    {
      "midi": 53,
      "hit": false,
      "t": 238111.7284999984,
      "d": 118.10999999998603,
      "v": 90
    },
    {
      "midi": 53,
      "hit": false,
      "t": 238485.74349999838,
      "d": 118.10999999998603,
      "v": 90
    },
    {
      "midi": 53,
      "hit": false,
      "t": 238857.78999999838,
      "d": 118.10999999998603,
      "v": 90
    },
    {
      "midi": 63,
      "hit": false,
      "t": 239758.37874999837,
      "d": 118.11000000001513,
      "v": 90
    },
    {
      "midi": 65,
      "hit": false,
      "t": 239868.61474999838,
      "d": 118.11000000001513,
      "v": 90
    },
    {
      "midi": 60,
      "hit": false,
      "t": 239999.5199999984,
      "d": 708.6599999999453,
      "v": 90
    },
    {
      "midi": 53,
      "hit": false,
      "t": 240237.70849999838,
      "d": 118.10999999998603,
      "v": 90
    },
    {
      "midi": 53,
      "hit": false,
      "t": 240577.27474999835,
      "d": 118.10999999998603,
      "v": 90
    },
    {
      "midi": 60,
      "hit": false,
      "t": 240826.28999999832,
      "d": 118.10999999998603,
      "v": 90
    },
    {
      "midi": 53,
      "hit": false,
      "t": 240964.0849999983,
      "d": 236.22000000000116,
      "v": 90
    },
    {
      "midi": 58,
      "hit": false,
      "t": 241180.6199999983,
      "d": 118.11000000001513,
      "v": 90
    },
    {
      "midi": 62,
      "hit": false,
      "t": 241180.6199999983,
      "d": 118.11000000001513,
      "v": 90
    },
    {
      "midi": 53,
      "hit": false,
      "t": 241293.8087499983,
      "d": 118.11000000001513,
      "v": 90
    },
    {
      "midi": 60,
      "hit": false,
      "t": 241416.83999999834,
      "d": 118.10999999998603,
      "v": 90
    },
    {
      "midi": 61,
      "hit": false,
      "t": 241416.83999999834,
      "d": 118.10999999998603,
      "v": 90
    },
    {
      "midi": 53,
      "hit": false,
      "t": 241635.34349999833,
      "d": 118.10999999998603,
      "v": 90
    },
    {
      "midi": 53,
      "hit": false,
      "t": 241758.37474999833,
      "d": 118.10999999998603,
      "v": 90
    },
    {
      "midi": 53,
      "hit": false,
      "t": 241889.2799999983,
      "d": 354.3299999999872,
      "v": 90
    },
    {
      "midi": 60,
      "hit": false,
      "t": 242243.6099999983,
      "d": 118.10999999998603,
      "v": 90
    },
    {
      "midi": 65,
      "hit": false,
      "t": 242243.6099999983,
      "d": 118.10999999998603,
      "v": 90
    },
    {
      "midi": 65,
      "hit": false,
      "t": 242479.82999999827,
      "d": 118.10999999998603,
      "v": 90
    },
    {
      "midi": 58,
      "hit": false,
      "t": 242597.93999999826,
      "d": 118.10999999998603,
      "v": 90
    },
    {
      "midi": 62,
      "hit": false,
      "t": 242597.93999999826,
      "d": 118.10999999998603,
      "v": 90
    },
    {
      "midi": 63,
      "hit": false,
      "t": 242597.93999999826,
      "d": 118.10999999998603,
      "v": 90
    },
    {
      "midi": 65,
      "hit": false,
      "t": 242834.15999999823,
      "d": 118.10999999998603,
      "v": 90
    },
    {
      "midi": 60,
      "hit": false,
      "t": 242834.15999999823,
      "d": 354.3299999999872,
      "v": 90
    },
    {
      "midi": 63,
      "hit": false,
      "t": 242834.15999999823,
      "d": 354.3299999999872,
      "v": 90
    },
    {
      "midi": 65,
      "hit": false,
      "t": 243188.48999999822,
      "d": 118.10999999998603,
      "v": 90
    },
    {
      "midi": 58,
      "hit": false,
      "t": 243306.5999999982,
      "d": 118.10999999998603,
      "v": 90
    },
    {
      "midi": 62,
      "hit": false,
      "t": 243306.5999999982,
      "d": 118.10999999998603,
      "v": 90
    },
    {
      "midi": 63,
      "hit": false,
      "t": 243306.5999999982,
      "d": 236.21999999997206,
      "v": 90
    },
    {
      "midi": 60,
      "hit": false,
      "t": 243542.81999999817,
      "d": 118.10999999998603,
      "v": 90
    },
    {
      "midi": 61,
      "hit": false,
      "t": 243542.81999999817,
      "d": 118.10999999998603,
      "v": 90
    },
    {
      "midi": 65,
      "hit": false,
      "t": 243542.81999999817,
      "d": 118.10999999998603,
      "v": 90
    },
    {
      "midi": 60,
      "hit": false,
      "t": 243779.03999999815,
      "d": 708.6599999999744,
      "v": 90
    },
    {
      "midi": 53,
      "hit": false,
      "t": 244015.25999999815,
      "d": 118.10999999998603,
      "v": 90
    },
    {
      "midi": 53,
      "hit": false,
      "t": 244369.58999999813,
      "d": 118.10999999998603,
      "v": 90
    },
    {
      "midi": 60,
      "hit": false,
      "t": 244605.8099999981,
      "d": 118.10999999998603,
      "v": 90
    },
    {
      "midi": 53,
      "hit": false,
      "t": 244723.9199999981,
      "d": 354.3299999999872,
      "v": 90
    },
    {
      "midi": 58,
      "hit": false,
      "t": 244960.1399999981,
      "d": 118.10999999998603,
      "v": 90
    },
    {
      "midi": 62,
      "hit": false,
      "t": 244960.1399999981,
      "d": 118.10999999998603,
      "v": 90
    },
    {
      "midi": 53,
      "hit": false,
      "t": 245078.24999999808,
      "d": 118.10999999998603,
      "v": 90
    },
    {
      "midi": 55,
      "hit": false,
      "t": 245196.35999999807,
      "d": 118.10999999998603,
      "v": 90
    },
    {
      "midi": 60,
      "hit": false,
      "t": 245196.35999999807,
      "d": 118.10999999998603,
      "v": 90
    },
    {
      "midi": 61,
      "hit": false,
      "t": 245196.35999999807,
      "d": 118.10999999998603,
      "v": 90
    },
    {
      "midi": 53,
      "hit": false,
      "t": 245432.57999999804,
      "d": 118.10999999998603,
      "v": 90
    },
    {
      "midi": 53,
      "hit": false,
      "t": 245670.76849999803,
      "d": 118.10999999998603,
      "v": 90
    },
    {
      "midi": 60,
      "hit": false,
      "t": 246023.12999999803,
      "d": 118.10999999998603,
      "v": 90
    },
    {
      "midi": 53,
      "hit": false,
      "t": 246044.783499998,
      "d": 118.10999999998603,
      "v": 90
    },
    {
      "midi": 58,
      "hit": false,
      "t": 246377.45999999798,
      "d": 118.10999999998603,
      "v": 90
    },
    {
      "midi": 62,
      "hit": false,
      "t": 246377.45999999798,
      "d": 118.10999999998603,
      "v": 90
    },
    {
      "midi": 53,
      "hit": false,
      "t": 246416.82999999798,
      "d": 118.10999999998603,
      "v": 90
    },
    {
      "midi": 60,
      "hit": false,
      "t": 246613.67999999796,
      "d": 354.3299999999872,
      "v": 90
    },
    {
      "midi": 63,
      "hit": false,
      "t": 246613.67999999796,
      "d": 354.3299999999872,
      "v": 90
    },
    {
      "midi": 58,
      "hit": false,
      "t": 247086.11999999793,
      "d": 118.10999999998603,
      "v": 90
    },
    {
      "midi": 62,
      "hit": false,
      "t": 247086.11999999793,
      "d": 118.10999999998603,
      "v": 90
    },
    {
      "midi": 63,
      "hit": false,
      "t": 247317.41874999792,
      "d": 118.11000000001513,
      "v": 90
    },
    {
      "midi": 60,
      "hit": false,
      "t": 247322.33999999793,
      "d": 118.11000000001513,
      "v": 90
    },
    {
      "midi": 61,
      "hit": false,
      "t": 247322.33999999793,
      "d": 118.11000000001513,
      "v": 90
    },
    {
      "midi": 65,
      "hit": false,
      "t": 247427.65474999792,
      "d": 118.11000000001513,
      "v": 90
    },
    {
      "midi": 58,
      "hit": false,
      "t": 247565.44974999793,
      "d": 944.8799999999756,
      "v": 90
    },
    {
      "midi": 53,
      "hit": false,
      "t": 247796.74849999792,
      "d": 118.10999999998603,
      "v": 90
    },
    {
      "midi": 53,
      "hit": false,
      "t": 248136.3147499979,
      "d": 118.11000000001513,
      "v": 90
    },
    {
      "midi": 70,
      "hit": false,
      "t": 248190.4484999979,
      "d": 118.11000000001513,
      "v": 90
    },
    {
      "midi": 72,
      "hit": false,
      "t": 248288.87349999792,
      "d": 118.10999999998603,
      "v": 90
    },
    {
      "midi": 65,
      "hit": false,
      "t": 248406.9834999979,
      "d": 236.22000000000116,
      "v": 90
    },
    {
      "midi": 68,
      "hit": false,
      "t": 248411.90474999792,
      "d": 236.22000000000116,
      "v": 90
    },
    {
      "midi": 73,
      "hit": false,
      "t": 248414.85749999792,
      "d": 236.22000000000116,
      "v": 90
    },
    {
      "midi": 70,
      "hit": false,
      "t": 248424.69999999792,
      "d": 118.10999999998603,
      "v": 90
    },
    {
      "midi": 53,
      "hit": false,
      "t": 248523.1249999979,
      "d": 236.22000000003027,
      "v": 90
    },
    {
      "midi": 58,
      "hit": false,
      "t": 248636.3137499979,
      "d": 118.11000000001513,
      "v": 90
    },
    {
      "midi": 72,
      "hit": false,
      "t": 248761.31349999792,
      "d": 118.11000000001513,
      "v": 90
    },
    {
      "midi": 63,
      "hit": false,
      "t": 248769.18749999793,
      "d": 118.11000000001513,
      "v": 90
    },
    {
      "midi": 53,
      "hit": false,
      "t": 248852.84874999794,
      "d": 118.11000000001513,
      "v": 90
    },
    {
      "midi": 70,
      "hit": false,
      "t": 249005.40749999796,
      "d": 944.8799999999756,
      "v": 90
    },
    {
      "midi": 61,
      "hit": false,
      "t": 249010.32874999798,
      "d": 944.8799999999756,
      "v": 90
    },
    {
      "midi": 65,
      "hit": false,
      "t": 249010.32874999798,
      "d": 944.8799999999756,
      "v": 90
    },
    {
      "midi": 50,
      "hit": false,
      "t": 249194.383499998,
      "d": 118.10999999998603,
      "v": 90
    },
    {
      "midi": 46,
      "hit": false,
      "t": 249317.414749998,
      "d": 118.10999999998603,
      "v": 90
    },
    {
      "midi": 46,
      "hit": false,
      "t": 249448.31999999797,
      "d": 354.3299999999872,
      "v": 90
    },
    {
      "midi": 58,
      "hit": false,
      "t": 249802.64999999796,
      "d": 118.10999999998603,
      "v": 90
    },
    {
      "midi": 58,
      "hit": false,
      "t": 250038.86999999796,
      "d": 118.10999999998603,
      "v": 90
    },
    {
      "midi": 65,
      "hit": false,
      "t": 250088.08249999795,
      "d": 118.10999999998603,
      "v": 90
    },
    {
      "midi": 56,
      "hit": false,
      "t": 250156.97999999794,
      "d": 118.10999999998603,
      "v": 90
    },
    {
      "midi": 67,
      "hit": false,
      "t": 250166.82249999794,
      "d": 118.10999999998603,
      "v": 90
    },
    {
      "midi": 65,
      "hit": false,
      "t": 250294.77499999793,
      "d": 236.21999999997206,
      "v": 90
    },
    {
      "midi": 68,
      "hit": false,
      "t": 250294.77499999793,
      "d": 236.21999999997206,
      "v": 90
    },
    {
      "midi": 60,
      "hit": false,
      "t": 250296.74349999792,
      "d": 236.21999999997206,
      "v": 90
    },
    {
      "midi": 58,
      "hit": false,
      "t": 250393.19999999792,
      "d": 118.10999999998603,
      "v": 90
    },
    {
      "midi": 58,
      "hit": false,
      "t": 250639.2624999979,
      "d": 118.11000000001513,
      "v": 90
    },
    {
      "midi": 63,
      "hit": false,
      "t": 250644.1837499979,
      "d": 118.11000000001513,
      "v": 90
    },
    {
      "midi": 67,
      "hit": false,
      "t": 250644.1837499979,
      "d": 118.11000000001513,
      "v": 90
    },
    {
      "midi": 56,
      "hit": false,
      "t": 250865.63999999792,
      "d": 236.21999999997206,
      "v": 90
    },
    {
      "midi": 65,
      "hit": false,
      "t": 250885.32499999792,
      "d": 236.21999999997206,
      "v": 90
    },
    {
      "midi": 61,
      "hit": false,
      "t": 250887.2934999979,
      "d": 118.10999999998603,
      "v": 90
    },
    {
      "midi": 58,
      "hit": false,
      "t": 251101.8599999979,
      "d": 118.10999999998603,
      "v": 90
    },
    {
      "midi": 46,
      "hit": false,
      "t": 251574.29999999786,
      "d": 118.10999999998603,
      "v": 90
    },
    {
      "midi": 46,
      "hit": false,
      "t": 251928.62999999785,
      "d": 118.11000000001513,
      "v": 90
    },
    {
      "midi": 65,
      "hit": false,
      "t": 251969.96849999786,
      "d": 118.10999999998603,
      "v": 90
    },
    {
      "midi": 67,
      "hit": false,
      "t": 252068.39349999785,
      "d": 118.10999999998603,
      "v": 90
    },
    {
      "midi": 60,
      "hit": false,
      "t": 252186.50349999784,
      "d": 236.22000000000116,
      "v": 90
    },
    {
      "midi": 63,
      "hit": false,
      "t": 252191.42474999785,
      "d": 236.22000000000116,
      "v": 90
    },
    {
      "midi": 68,
      "hit": false,
      "t": 252194.37749999785,
      "d": 236.22000000000116,
      "v": 90
    },
    {
      "midi": 65,
      "hit": false,
      "t": 252204.21999999785,
      "d": 118.10999999998603,
      "v": 90
    },
    {
      "midi": 46,
      "hit": false,
      "t": 252282.95999999784,
      "d": 354.3300000000163,
      "v": 90
    },
    {
      "midi": 67,
      "hit": false,
      "t": 252540.83349999785,
      "d": 118.10999999998603,
      "v": 90
    },
    {
      "midi": 58,
      "hit": false,
      "t": 252548.70749999786,
      "d": 118.10999999998603,
      "v": 90
    },
    {
      "midi": 46,
      "hit": false,
      "t": 252637.28999999785,
      "d": 118.10999999998603,
      "v": 90
    },
    {
      "midi": 51,
      "hit": false,
      "t": 252755.39999999784,
      "d": 118.11000000001513,
      "v": 90
    },
    {
      "midi": 65,
      "hit": false,
      "t": 252784.92749999784,
      "d": 944.8799999999756,
      "v": 90
    },
    {
      "midi": 60,
      "hit": false,
      "t": 252789.84874999785,
      "d": 944.8799999999756,
      "v": 90
    },
    {
      "midi": 46,
      "hit": false,
      "t": 252991.61999999784,
      "d": 118.10999999998603,
      "v": 90
    },
    {
      "midi": 53,
      "hit": false,
      "t": 253229.80849999783,
      "d": 118.10999999998603,
      "v": 90
    },
    {
      "midi": 53,
      "hit": false,
      "t": 253603.82349999782,
      "d": 118.10999999998603,
      "v": 90
    },
    {
      "midi": 60,
      "hit": false,
      "t": 253867.60249999783,
      "d": 118.10999999998603,
      "v": 90
    },
    {
      "midi": 62,
      "hit": false,
      "t": 253946.34249999782,
      "d": 118.10999999998603,
      "v": 90
    },
    {
      "midi": 53,
      "hit": false,
      "t": 253975.8699999978,
      "d": 118.10999999998603,
      "v": 90
    },
    {
      "midi": 60,
      "hit": false,
      "t": 254074.2949999978,
      "d": 236.22000000000116,
      "v": 90
    },
    {
      "midi": 63,
      "hit": false,
      "t": 254074.2949999978,
      "d": 236.22000000000116,
      "v": 90
    },
    {
      "midi": 58,
      "hit": false,
      "t": 254423.7037499978,
      "d": 118.10999999998603,
      "v": 90
    },
    {
      "midi": 62,
      "hit": false,
      "t": 254423.7037499978,
      "d": 118.10999999998603,
      "v": 90
    },
    {
      "midi": 60,
      "hit": false,
      "t": 254664.8449999978,
      "d": 236.22000000000116,
      "v": 90
    },
    {
      "midi": 63,
      "hit": false,
      "t": 254876.45874999778,
      "d": 118.11000000001513,
      "v": 90
    },
    {
      "midi": 65,
      "hit": false,
      "t": 254986.69474999778,
      "d": 118.11000000001513,
      "v": 90
    },
    {
      "midi": 53,
      "hit": false,
      "t": 255355.7884999978,
      "d": 118.10999999998603,
      "v": 90
    },
    {
      "midi": 59,
      "hit": false,
      "t": 255590.0399999978,
      "d": 118.10999999998603,
      "v": 90
    },
    {
      "midi": 65,
      "hit": false,
      "t": 255590.0399999978,
      "d": 118.10999999998603,
      "v": 90
    },
    {
      "midi": 70,
      "hit": false,
      "t": 255590.0399999978,
      "d": 118.10999999998603,
      "v": 90
    },
    {
      "midi": 53,
      "hit": false,
      "t": 255695.3547499978,
      "d": 118.10999999998603,
      "v": 90
    },
    {
      "midi": 53,
      "hit": false,
      "t": 256082.16499999777,
      "d": 236.22000000000116,
      "v": 90
    },
    {
      "midi": 53,
      "hit": false,
      "t": 256411.88874999777,
      "d": 118.10999999998603,
      "v": 90
    },
    {
      "midi": 59,
      "hit": false,
      "t": 256534.91999999777,
      "d": 118.10999999998603,
      "v": 90
    },
    {
      "midi": 65,
      "hit": false,
      "t": 256534.91999999777,
      "d": 118.10999999998603,
      "v": 90
    },
    {
      "midi": 70,
      "hit": false,
      "t": 256534.91999999777,
      "d": 236.22000000000116,
      "v": 90
    },
    {
      "midi": 44,
      "hit": false,
      "t": 256753.42349999776,
      "d": 118.11000000001513,
      "v": 90
    },
    {
      "midi": 48,
      "hit": false,
      "t": 256876.4547499978,
      "d": 118.10999999998603,
      "v": 90
    },
    {
      "midi": 48,
      "hit": false,
      "t": 257007.35999999777,
      "d": 236.22000000000116,
      "v": 90
    },
    {
      "midi": 48,
      "hit": false,
      "t": 257361.68999999776,
      "d": 118.10999999998603,
      "v": 90
    },
    {
      "midi": 58,
      "hit": false,
      "t": 257479.79999999775,
      "d": 118.10999999998603,
      "v": 90
    },
    {
      "midi": 61,
      "hit": false,
      "t": 257479.79999999775,
      "d": 118.10999999998603,
      "v": 90
    },
    {
      "midi": 65,
      "hit": false,
      "t": 257479.79999999775,
      "d": 118.10999999998603,
      "v": 90
    },
    {
      "midi": 55,
      "hit": false,
      "t": 257597.90999999773,
      "d": 118.10999999998603,
      "v": 90
    },
    {
      "midi": 58,
      "hit": false,
      "t": 257716.01999999772,
      "d": 118.10999999998603,
      "v": 90
    },
    {
      "midi": 60,
      "hit": false,
      "t": 257834.1299999977,
      "d": 118.10999999998603,
      "v": 90
    },
    {
      "midi": 60,
      "hit": false,
      "t": 258070.34999999768,
      "d": 118.10999999998603,
      "v": 90
    },
    {
      "midi": 58,
      "hit": false,
      "t": 258306.56999999765,
      "d": 118.10999999998603,
      "v": 90
    },
    {
      "midi": 58,
      "hit": false,
      "t": 258424.67999999764,
      "d": 118.10999999998603,
      "v": 90
    },
    {
      "midi": 60,
      "hit": false,
      "t": 258424.67999999764,
      "d": 118.10999999998603,
      "v": 90
    },
    {
      "midi": 61,
      "hit": false,
      "t": 258424.67999999764,
      "d": 118.10999999998603,
      "v": 90
    },
    {
      "midi": 65,
      "hit": false,
      "t": 258424.67999999764,
      "d": 236.21999999997206,
      "v": 90
    },
    {
      "midi": 58,
      "hit": false,
      "t": 258542.78999999762,
      "d": 118.10999999998603,
      "v": 90
    },
    {
      "midi": 55,
      "hit": false,
      "t": 258660.8999999976,
      "d": 118.10999999998603,
      "v": 90
    },
    {
      "midi": 46,
      "hit": false,
      "t": 258897.11999999758,
      "d": 236.22000000000116,
      "v": 90
    },
    {
      "midi": 60,
      "hit": false,
      "t": 258897.11999999758,
      "d": 708.6599999999744,
      "v": 90
    },
    {
      "midi": 46,
      "hit": false,
      "t": 259251.44999999757,
      "d": 118.10999999998603,
      "v": 90
    },
    {
      "midi": 56,
      "hit": false,
      "t": 259605.77999999755,
      "d": 236.21999999997206,
      "v": 90
    },
    {
      "midi": 60,
      "hit": false,
      "t": 259723.88999999754,
      "d": 118.10999999998603,
      "v": 90
    },
    {
      "midi": 58,
      "hit": false,
      "t": 259841.99999999753,
      "d": 236.22000000000116,
      "v": 90
    },
    {
      "midi": 58,
      "hit": false,
      "t": 260078.21999999753,
      "d": 118.10999999998603,
      "v": 90
    },
    {
      "midi": 62,
      "hit": false,
      "t": 260078.21999999753,
      "d": 118.10999999998603,
      "v": 90
    },
    {
      "midi": 58,
      "hit": false,
      "t": 260196.3299999975,
      "d": 118.10999999998603,
      "v": 90
    },
    {
      "midi": 60,
      "hit": false,
      "t": 260314.4399999975,
      "d": 118.10999999998603,
      "v": 90
    },
    {
      "midi": 61,
      "hit": false,
      "t": 260314.4399999975,
      "d": 118.10999999998603,
      "v": 90
    },
    {
      "midi": 56,
      "hit": false,
      "t": 260314.4399999975,
      "d": 236.21999999997206,
      "v": 90
    },
    {
      "midi": 58,
      "hit": false,
      "t": 260550.65999999747,
      "d": 118.10999999998603,
      "v": 90
    },
    {
      "midi": 53,
      "hit": false,
      "t": 260786.87999999744,
      "d": 354.3299999999872,
      "v": 90
    },
    {
      "midi": 60,
      "hit": false,
      "t": 261141.20999999743,
      "d": 118.10999999998603,
      "v": 90
    },
    {
      "midi": 65,
      "hit": false,
      "t": 261141.20999999743,
      "d": 118.10999999998603,
      "v": 90
    },
    {
      "midi": 65,
      "hit": false,
      "t": 261377.4299999974,
      "d": 118.10999999998603,
      "v": 90
    },
    {
      "midi": 58,
      "hit": false,
      "t": 261495.5399999974,
      "d": 118.10999999998603,
      "v": 90
    },
    {
      "midi": 62,
      "hit": false,
      "t": 261495.5399999974,
      "d": 118.10999999998603,
      "v": 90
    },
    {
      "midi": 63,
      "hit": false,
      "t": 261495.5399999974,
      "d": 118.10999999998603,
      "v": 90
    },
    {
      "midi": 65,
      "hit": false,
      "t": 261731.75999999736,
      "d": 118.10999999998603,
      "v": 90
    },
    {
      "midi": 60,
      "hit": false,
      "t": 261731.75999999736,
      "d": 354.3299999999872,
      "v": 90
    },
    {
      "midi": 63,
      "hit": false,
      "t": 261731.75999999736,
      "d": 354.3299999999872,
      "v": 90
    },
    {
      "midi": 65,
      "hit": false,
      "t": 262086.08999999735,
      "d": 118.10999999998603,
      "v": 90
    },
    {
      "midi": 58,
      "hit": false,
      "t": 262204.19999999733,
      "d": 118.10999999998603,
      "v": 90
    },
    {
      "midi": 62,
      "hit": false,
      "t": 262204.19999999733,
      "d": 118.10999999998603,
      "v": 90
    },
    {
      "midi": 63,
      "hit": false,
      "t": 262204.19999999733,
      "d": 236.21999999997206,
      "v": 90
    },
    {
      "midi": 60,
      "hit": false,
      "t": 262440.4199999973,
      "d": 118.10999999998603,
      "v": 90
    },
    {
      "midi": 61,
      "hit": false,
      "t": 262440.4199999973,
      "d": 118.10999999998603,
      "v": 90
    },
    {
      "midi": 65,
      "hit": false,
      "t": 262440.4199999973,
      "d": 118.10999999998603,
      "v": 90
    },
    {
      "midi": 53,
      "hit": false,
      "t": 262912.8599999973,
      "d": 118.10999999998603,
      "v": 90
    },
    {
      "midi": 60,
      "hit": false,
      "t": 263030.9699999973,
      "d": 118.10999999998603,
      "v": 90
    },
    {
      "midi": 53,
      "hit": false,
      "t": 263267.18999999727,
      "d": 118.10999999998603,
      "v": 90
    },
    {
      "midi": 60,
      "hit": false,
      "t": 263503.40999999724,
      "d": 118.10999999998603,
      "v": 90
    },
    {
      "midi": 53,
      "hit": false,
      "t": 263621.5199999972,
      "d": 354.3299999999581,
      "v": 90
    },
    {
      "midi": 60,
      "hit": false,
      "t": 263857.7399999972,
      "d": 118.10999999998603,
      "v": 90
    },
    {
      "midi": 53,
      "hit": false,
      "t": 263975.8499999972,
      "d": 118.10999999998603,
      "v": 90
    },
    {
      "midi": 53,
      "hit": false,
      "t": 264093.95999999717,
      "d": 118.10999999998603,
      "v": 90
    },
    {
      "midi": 64,
      "hit": false,
      "t": 264093.95999999717,
      "d": 118.10999999998603,
      "v": 90
    },
    {
      "midi": 58,
      "hit": false,
      "t": 264093.95999999717,
      "d": 472.4399999999441,
      "v": 90
    },
    {
      "midi": 62,
      "hit": false,
      "t": 264093.95999999717,
      "d": 472.4399999999441,
      "v": 90
    },
    {
      "midi": 53,
      "hit": false,
      "t": 264330.17999999714,
      "d": 118.10999999998603,
      "v": 90
    },
    {
      "midi": 53,
      "hit": false,
      "t": 264566.3999999971,
      "d": 354.3300000000163,
      "v": 90
    },
    {
      "midi": 65,
      "hit": false,
      "t": 264920.72999999713,
      "d": 118.10999999998603,
      "v": 90
    },
    {
      "midi": 65,
      "hit": false,
      "t": 265156.9499999971,
      "d": 118.10999999998603,
      "v": 90
    },
    {
      "midi": 63,
      "hit": false,
      "t": 265275.0599999971,
      "d": 118.10999999998603,
      "v": 90
    },
    {
      "midi": 65,
      "hit": false,
      "t": 265511.27999999706,
      "d": 118.10999999998603,
      "v": 90
    },
    {
      "midi": 65,
      "hit": false,
      "t": 265865.609999997,
      "d": 118.10999999998603,
      "v": 90
    },
    {
      "midi": 63,
      "hit": false,
      "t": 265983.719999997,
      "d": 236.21999999997206,
      "v": 90
    },
    {
      "midi": 65,
      "hit": false,
      "t": 266219.939999997,
      "d": 118.10999999998603,
      "v": 90
    },
    {
      "midi": 53,
      "hit": false,
      "t": 266692.379999997,
      "d": 118.10999999998603,
      "v": 90
    },
    {
      "midi": 53,
      "hit": false,
      "t": 267046.70999999694,
      "d": 118.10999999998603,
      "v": 90
    },
    {
      "midi": 53,
      "hit": false,
      "t": 267401.0399999969,
      "d": 354.3300000000163,
      "v": 90
    },
    {
      "midi": 53,
      "hit": false,
      "t": 267755.3699999969,
      "d": 118.10999999998603,
      "v": 90
    },
    {
      "midi": 50,
      "hit": false,
      "t": 267873.4799999969,
      "d": 118.10999999998603,
      "v": 90
    },
    {
      "midi": 51,
      "hit": false,
      "t": 268109.69999999687,
      "d": 118.10999999998603,
      "v": 90
    },
    {
      "midi": 53,
      "hit": false,
      "t": 268601.82499999687,
      "d": 118.10999999998603,
      "v": 90
    },
    {
      "midi": 53,
      "hit": false,
      "t": 268943.35974999686,
      "d": 118.10999999998603,
      "v": 90
    },
    {
      "midi": 53,
      "hit": false,
      "t": 269292.76849999686,
      "d": 354.3300000000163,
      "v": 90
    },
    {
      "midi": 63,
      "hit": false,
      "t": 269994.53874999686,
      "d": 118.10999999998603,
      "v": 90
    },
    {
      "midi": 65,
      "hit": false,
      "t": 270466.97874999687,
      "d": 118.10999999998603,
      "v": 90
    },
    {
      "midi": 65,
      "hit": false,
      "t": 270821.3087499968,
      "d": 118.10999999998603,
      "v": 90
    },
    {
      "midi": 63,
      "hit": false,
      "t": 271062.4499999968,
      "d": 118.10999999998603,
      "v": 90
    },
    {
      "midi": 65,
      "hit": false,
      "t": 271180.5599999968,
      "d": 472.4400000000023,
      "v": 90
    },
    {
      "midi": 63,
      "hit": false,
      "t": 271674.6534999968,
      "d": 236.22000000003027,
      "v": 90
    },
    {
      "midi": 65,
      "hit": false,
      "t": 271908.9049999968,
      "d": 118.11000000004424,
      "v": 90
    },
    {
      "midi": 46,
      "hit": false,
      "t": 272127.4084999969,
      "d": 118.10999999998603,
      "v": 90
    },
    {
      "midi": 46,
      "hit": false,
      "t": 272501.4234999969,
      "d": 118.10999999998603,
      "v": 90
    },
    {
      "midi": 46,
      "hit": false,
      "t": 272873.4699999969,
      "d": 118.10999999998603,
      "v": 90
    },
    {
      "midi": 56,
      "hit": false,
      "t": 273774.0587499969,
      "d": 118.10999999998603,
      "v": 90
    },
    {
      "midi": 58,
      "hit": false,
      "t": 273884.29474999686,
      "d": 118.10999999998603,
      "v": 90
    },
    {
      "midi": 46,
      "hit": false,
      "t": 274253.38849999686,
      "d": 118.10999999998603,
      "v": 90
    },
    {
      "midi": 46,
      "hit": false,
      "t": 274592.95474999683,
      "d": 118.10999999998603,
      "v": 90
    },
    {
      "midi": 46,
      "hit": false,
      "t": 274979.7649999968,
      "d": 236.21999999997206,
      "v": 90
    },
    {
      "midi": 46,
      "hit": false,
      "t": 275309.48874999676,
      "d": 118.10999999998603,
      "v": 90
    },
    {
      "midi": 46,
      "hit": false,
      "t": 275651.02349999675,
      "d": 118.10999999998603,
      "v": 90
    },
    {
      "midi": 53,
      "hit": false,
      "t": 275774.05474999675,
      "d": 118.10999999998603,
      "v": 90
    },
    {
      "midi": 53,
      "hit": false,
      "t": 275906.9284999967,
      "d": 118.10999999998603,
      "v": 90
    },
    {
      "midi": 53,
      "hit": false,
      "t": 276280.94349999673,
      "d": 118.10999999998603,
      "v": 90
    },
    {
      "midi": 53,
      "hit": false,
      "t": 276652.98999999673,
      "d": 118.10999999998603,
      "v": 90
    },
    {
      "midi": 63,
      "hit": false,
      "t": 277553.5787499967,
      "d": 118.10999999998603,
      "v": 90
    },
    {
      "midi": 65,
      "hit": false,
      "t": 277663.8147499967,
      "d": 118.10999999998603,
      "v": 90
    },
    {
      "midi": 53,
      "hit": false,
      "t": 278032.9084999967,
      "d": 118.10999999998603,
      "v": 90
    },
    {
      "midi": 53,
      "hit": false,
      "t": 278372.4747499967,
      "d": 118.10999999998603,
      "v": 90
    },
    {
      "midi": 53,
      "hit": false,
      "t": 278759.28499999666,
      "d": 236.21999999997206,
      "v": 90
    },
    {
      "midi": 53,
      "hit": false,
      "t": 279089.0087499966,
      "d": 118.10999999998603,
      "v": 90
    },
    {
      "midi": 44,
      "hit": false,
      "t": 279430.5434999966,
      "d": 118.10999999998603,
      "v": 90
    },
    {
      "midi": 48,
      "hit": false,
      "t": 279553.5747499966,
      "d": 118.10999999998603,
      "v": 90
    },
    {
      "midi": 48,
      "hit": false,
      "t": 279684.4799999966,
      "d": 236.21999999997206,
      "v": 90
    },
    {
      "midi": 48,
      "hit": false,
      "t": 280038.80999999656,
      "d": 118.10999999998603,
      "v": 90
    },
    {
      "midi": 55,
      "hit": false,
      "t": 280275.02999999654,
      "d": 118.10999999998603,
      "v": 90
    },
    {
      "midi": 58,
      "hit": false,
      "t": 280393.1399999965,
      "d": 118.10999999998603,
      "v": 90
    },
    {
      "midi": 60,
      "hit": false,
      "t": 280511.2499999965,
      "d": 118.10999999998603,
      "v": 90
    },
    {
      "midi": 60,
      "hit": false,
      "t": 280747.4699999965,
      "d": 118.10999999998603,
      "v": 90
    },
    {
      "midi": 58,
      "hit": false,
      "t": 280983.68999999645,
      "d": 118.10999999998603,
      "v": 90
    },
    {
      "midi": 60,
      "hit": false,
      "t": 281101.79999999644,
      "d": 118.10999999998603,
      "v": 90
    },
    {
      "midi": 58,
      "hit": false,
      "t": 281219.9099999964,
      "d": 118.10999999998603,
      "v": 90
    },
    {
      "midi": 55,
      "hit": false,
      "t": 281338.0199999964,
      "d": 118.10999999998603,
      "v": 90
    },
    {
      "midi": 53,
      "hit": false,
      "t": 285353.7599999964,
      "d": 236.21999999997206,
      "v": 90
    },
    {
      "midi": 53,
      "hit": false,
      "t": 285708.08999999636,
      "d": 118.10999999998603,
      "v": 90
    },
    {
      "midi": 63,
      "hit": false,
      "t": 286062.4199999963,
      "d": 236.21999999997206,
      "v": 90
    },
    {
      "midi": 65,
      "hit": false,
      "t": 286298.6399999963,
      "d": 236.21999999997206,
      "v": 90
    },
    {
      "midi": 65,
      "hit": false,
      "t": 286652.96999999625,
      "d": 118.10999999998603,
      "v": 90
    },
    {
      "midi": 63,
      "hit": false,
      "t": 286771.07999999623,
      "d": 236.21999999997206,
      "v": 90
    },
    {
      "midi": 65,
      "hit": false,
      "t": 287007.2999999962,
      "d": 118.10999999998603,
      "v": 90
    },
    {
      "midi": 53,
      "hit": false,
      "t": 287245.4884999962,
      "d": 118.10999999998603,
      "v": 90
    },
    {
      "midi": 53,
      "hit": false,
      "t": 287619.5034999962,
      "d": 118.10999999998603,
      "v": 90
    },
    {
      "midi": 53,
      "hit": false,
      "t": 287991.5499999962,
      "d": 118.10999999998603,
      "v": 90
    },
    {
      "midi": 63,
      "hit": false,
      "t": 288892.1387499962,
      "d": 118.10999999998603,
      "v": 90
    },
    {
      "midi": 65,
      "hit": false,
      "t": 289002.3747499962,
      "d": 118.10999999998603,
      "v": 90
    },
    {
      "midi": 53,
      "hit": false,
      "t": 289371.4684999962,
      "d": 118.10999999998603,
      "v": 90
    },
    {
      "midi": 53,
      "hit": false,
      "t": 289711.03474999615,
      "d": 118.10999999998603,
      "v": 90
    },
    {
      "midi": 53,
      "hit": false,
      "t": 290097.84499999613,
      "d": 236.21999999997206,
      "v": 90
    },
    {
      "midi": 53,
      "hit": false,
      "t": 290427.5687499961,
      "d": 118.10999999998603,
      "v": 90
    },
    {
      "midi": 55,
      "hit": false,
      "t": 290769.10349999607,
      "d": 118.10999999998603,
      "v": 90
    },
    {
      "midi": 53,
      "hit": false,
      "t": 290892.13474999607,
      "d": 118.10999999998603,
      "v": 90
    },
    {
      "midi": 53,
      "hit": false,
      "t": 291025.00849999604,
      "d": 118.10999999998603,
      "v": 90
    },
    {
      "midi": 53,
      "hit": false,
      "t": 291399.02349999605,
      "d": 118.10999999998603,
      "v": 90
    },
    {
      "midi": 53,
      "hit": false,
      "t": 291771.06999999605,
      "d": 118.10999999998603,
      "v": 90
    },
    {
      "midi": 63,
      "hit": false,
      "t": 292671.65874999604,
      "d": 118.10999999998603,
      "v": 90
    },
    {
      "midi": 65,
      "hit": false,
      "t": 292781.894749996,
      "d": 118.10999999998603,
      "v": 90
    },
    {
      "midi": 53,
      "hit": false,
      "t": 293150.988499996,
      "d": 118.10999999998603,
      "v": 90
    },
    {
      "midi": 53,
      "hit": false,
      "t": 293490.554749996,
      "d": 118.10999999998603,
      "v": 90
    },
    {
      "midi": 53,
      "hit": false,
      "t": 293877.364999996,
      "d": 236.21999999997206,
      "v": 90
    },
    {
      "midi": 53,
      "hit": false,
      "t": 294207.0887499959,
      "d": 118.10999999998603,
      "v": 90
    },
    {
      "midi": 44,
      "hit": false,
      "t": 294548.6234999959,
      "d": 118.10999999998603,
      "v": 90
    },
    {
      "midi": 46,
      "hit": false,
      "t": 294671.6547499959,
      "d": 118.10999999998603,
      "v": 90
    },
    {
      "midi": 46,
      "hit": false,
      "t": 294804.5284999959,
      "d": 118.10999999998603,
      "v": 90
    },
    {
      "midi": 46,
      "hit": false,
      "t": 295178.5434999959,
      "d": 118.10999999998603,
      "v": 90
    },
    {
      "midi": 46,
      "hit": false,
      "t": 295550.5899999959,
      "d": 118.10999999998603,
      "v": 90
    },
    {
      "midi": 56,
      "hit": false,
      "t": 296451.1787499959,
      "d": 118.10999999998603,
      "v": 90
    },
    {
      "midi": 58,
      "hit": false,
      "t": 296561.41474999586,
      "d": 118.10999999998603,
      "v": 90
    },
    {
      "midi": 46,
      "hit": false,
      "t": 296930.50849999586,
      "d": 118.10999999998603,
      "v": 90
    },
    {
      "midi": 46,
      "hit": false,
      "t": 297270.07474999584,
      "d": 118.10999999998603,
      "v": 90
    },
    {
      "midi": 46,
      "hit": false,
      "t": 297656.8849999958,
      "d": 236.21999999997206,
      "v": 90
    },
    {
      "midi": 46,
      "hit": false,
      "t": 297986.60874999576,
      "d": 118.10999999998603,
      "v": 90
    },
    {
      "midi": 51,
      "hit": false,
      "t": 298328.14349999576,
      "d": 118.10999999998603,
      "v": 90
    },
    {
      "midi": 53,
      "hit": false,
      "t": 298451.17474999576,
      "d": 118.10999999998603,
      "v": 90
    },
    {
      "midi": 46,
      "hit": false,
      "t": 304251.35999999574,
      "d": 236.21999999997206,
      "v": 90
    },
    {
      "midi": 46,
      "hit": false,
      "t": 304605.6899999957,
      "d": 118.10999999998603,
      "v": 90
    },
    {
      "midi": 56,
      "hit": false,
      "t": 304960.01999999565,
      "d": 236.21999999997206,
      "v": 90
    },
    {
      "midi": 58,
      "hit": false,
      "t": 305196.2399999956,
      "d": 236.21999999997206,
      "v": 90
    },
    {
      "midi": 58,
      "hit": false,
      "t": 305550.5699999956,
      "d": 118.10999999998603,
      "v": 90
    },
    {
      "midi": 56,
      "hit": false,
      "t": 305668.67999999557,
      "d": 236.21999999997206,
      "v": 90
    },
    {
      "midi": 58,
      "hit": false,
      "t": 305904.89999999554,
      "d": 118.10999999998603,
      "v": 90
    },
    {
      "midi": 53,
      "hit": false,
      "t": 306141.1199999955,
      "d": 236.21999999997206,
      "v": 90
    },
    {
      "midi": 53,
      "hit": false,
      "t": 306495.4499999955,
      "d": 118.10999999998603,
      "v": 90
    }
  ]
}