{
  "jsonPath": "Rock/Suomi Rock/Paula Koivuniemi/taa-hetki-hiljainen.json",
  "path": "Rock\\Suomi Rock\\Paula Koivuniemi\\Tää Hetki Hiljainen.mid",
  "name": "Tää Hetki Hiljainen",
  "difficulty": "Advanced",
  "bpm": 105.000105000105,
  "notes": [
    {
      "midi": 74,
      "hit": false,
      "t": 5714.274,
      "d": 496.0307291666659,
      "v": 99
    },
    {
      "midi": 75,
      "hit": false,
      "t": 6180.542885416667,
      "d": 724.2048645833329,
      "v": 84
    },
    {
      "midi": 77,
      "hit": false,
      "t": 6646.811770833333,
      "d": 456.3482708333331,
      "v": 80
    },
    {
      "midi": 79,
      "hit": false,
      "t": 7053.556968749999,
      "d": 525.7925729166664,
      "v": 93
    },
    {
      "midi": 67,
      "hit": false,
      "t": 7420.619708333333,
      "d": 4523.800249999999,
      "v": 44
    },
    {
      "midi": 70,
      "hit": false,
      "t": 7549.587697916666,
      "d": 4355.149802083333,
      "v": 90
    },
    {
      "midi": 75,
      "hit": false,
      "t": 7599.190770833332,
      "d": 4295.626114583333,
      "v": 67
    },
    {
      "midi": 74,
      "hit": false,
      "t": 12738.069124999998,
      "d": 337.3008958333339,
      "v": 117
    },
    {
      "midi": 75,
      "hit": false,
      "t": 13303.544156249998,
      "d": 436.5070416666658,
      "v": 121
    },
    {
      "midi": 74,
      "hit": false,
      "t": 13740.051197916664,
      "d": 525.7925729166673,
      "v": 109
    },
    {
      "midi": 72,
      "hit": false,
      "t": 14265.843770833331,
      "d": 168.65044791666696,
      "v": 99
    },
    {
      "midi": 70,
      "hit": false,
      "t": 14732.112656249998,
      "d": 337.3008958333339,
      "v": 103
    },
    {
      "midi": 70,
      "hit": false,
      "t": 15238.063999999998,
      "d": 5615.067854166664,
      "v": 94
    },
    {
      "midi": 62,
      "hit": false,
      "t": 16626.950041666663,
      "d": 4226.181812499999,
      "v": 33
    },
    {
      "midi": 48,
      "hit": false,
      "t": 22767.810468749994,
      "d": 1259.9180520833324,
      "v": 44
    },
    {
      "midi": 55,
      "hit": false,
      "t": 22767.810468749994,
      "d": 2400.7887291666666,
      "v": 43
    },
    {
      "midi": 58,
      "hit": false,
      "t": 22807.492927083327,
      "d": 3621.0243229166663,
      "v": 70
    },
    {
      "midi": 60,
      "hit": false,
      "t": 22817.41354166666,
      "d": 3759.9129270833328,
      "v": 57
    },
    {
      "midi": 63,
      "hit": false,
      "t": 22946.381531249994,
      "d": 6805.541604166665,
      "v": 64
    },
    {
      "midi": 48,
      "hit": false,
      "t": 24226.140812499994,
      "d": 6190.463499999998,
      "v": 37
    },
    {
      "midi": 55,
      "hit": false,
      "t": 25297.567187499993,
      "d": 624.998718750001,
      "v": 43
    },
    {
      "midi": 55,
      "hit": false,
      "t": 26279.708031249993,
      "d": 3343.2471145833333,
      "v": 21
    },
    {
      "midi": 60,
      "hit": false,
      "t": 26795.579989583326,
      "d": 3482.13571875,
      "v": 48
    },
    {
      "midi": 58,
      "hit": false,
      "t": 26815.421218749994,
      "d": 3075.390520833331,
      "v": 61
    },
    {
      "midi": 53,
      "hit": false,
      "t": 30257.874479166658,
      "d": 3224.199739583335,
      "v": 46
    },
    {
      "midi": 58,
      "hit": false,
      "t": 30307.477552083325,
      "d": 2113.0909062499995,
      "v": 91
    },
    {
      "midi": 46,
      "hit": false,
      "t": 30456.286770833325,
      "d": 3581.3418645833335,
      "v": 63
    },
    {
      "midi": 62,
      "hit": false,
      "t": 30486.048614583324,
      "d": 3611.103708333332,
      "v": 97
    },
    {
      "midi": 57,
      "hit": false,
      "t": 32390.806614583325,
      "d": 525.7925729166636,
      "v": 99
    },
    {
      "midi": 58,
      "hit": false,
      "t": 33005.88471874999,
      "d": 744.0460937500029,
      "v": 94
    },
    {
      "midi": 57,
      "hit": false,
      "t": 33620.96282291666,
      "d": 585.3162604166646,
      "v": 87
    },
    {
      "midi": 55,
      "hit": false,
      "t": 34116.993552083324,
      "d": 3650.786166666672,
      "v": 38
    },
    {
      "midi": 58,
      "hit": false,
      "t": 34305.48522916666,
      "d": 3501.9769479166716,
      "v": 76
    },
    {
      "midi": 43,
      "hit": false,
      "t": 34315.40584374999,
      "d": 3551.5800208333385,
      "v": 22
    },
    {
      "midi": 62,
      "hit": false,
      "t": 34355.08830208333,
      "d": 3551.5800208333385,
      "v": 58
    },
    {
      "midi": 55,
      "hit": false,
      "t": 38065.39815625,
      "d": 6855.144677083321,
      "v": 50
    },
    {
      "midi": 60,
      "hit": false,
      "t": 38075.31877083333,
      "d": 3908.7221458333297,
      "v": 58
    },
    {
      "midi": 63,
      "hit": false,
      "t": 38075.31877083333,
      "d": 7301.572333333323,
      "v": 72
    },
    {
      "midi": 48,
      "hit": false,
      "t": 38095.159999999996,
      "d": 3888.8809166666615,
      "v": 49
    },
    {
      "midi": 58,
      "hit": false,
      "t": 38105.08061458333,
      "d": 6785.700374999993,
      "v": 65
    },
    {
      "midi": 51,
      "hit": false,
      "t": 41954.27907291666,
      "d": 2748.010239583331,
      "v": 55
    },
    {
      "midi": 57,
      "hit": false,
      "t": 45406.65294791665,
      "d": 3234.120354166669,
      "v": 49
    },
    {
      "midi": 53,
      "hit": false,
      "t": 45545.54155208332,
      "d": 3164.676052083334,
      "v": 27
    },
    {
      "midi": 60,
      "hit": false,
      "t": 45555.46216666665,
      "d": 3164.676052083334,
      "v": 48
    },
    {
      "midi": 63,
      "hit": false,
      "t": 45575.30339583332,
      "d": 3164.676052083334,
      "v": 46
    },
    {
      "midi": 41,
      "hit": false,
      "t": 45644.74769791665,
      "d": 3591.2624791666676,
      "v": 16
    },
    {
      "midi": 65,
      "hit": false,
      "t": 45724.11261458332,
      "d": 3779.7541562500046,
      "v": 71
    },
    {
      "midi": 53,
      "hit": false,
      "t": 49325.295708333324,
      "d": 3105.1523645833295,
      "v": 31
    },
    {
      "midi": 58,
      "hit": false,
      "t": 49454.26369791666,
      "d": 3025.787447916664,
      "v": 49
    },
    {
      "midi": 46,
      "hit": false,
      "t": 49513.787385416654,
      "d": 3571.4212499999994,
      "v": 65
    },
    {
      "midi": 62,
      "hit": false,
      "t": 49553.46984374999,
      "d": 2827.3751562499965,
      "v": 67
    },
    {
      "midi": 48,
      "hit": false,
      "t": 53273.70031249999,
      "d": 3333.32650000001,
      "v": 40
    },
    {
      "midi": 55,
      "hit": false,
      "t": 53303.46215624999,
      "d": 1249.997437500002,
      "v": 35
    },
    {
      "midi": 60,
      "hit": false,
      "t": 53303.46215624999,
      "d": 1527.7746458333422,
      "v": 64
    },
    {
      "midi": 58,
      "hit": false,
      "t": 53323.30338541666,
      "d": 1488.0921875000058,
      "v": 64
    },
    {
      "midi": 63,
      "hit": false,
      "t": 53422.50953124999,
      "d": 1448.4097291666767,
      "v": 68
    },
    {
      "midi": 55,
      "hit": false,
      "t": 54722.11004166666,
      "d": 1865.0755416666725,
      "v": 86
    },
    {
      "midi": 58,
      "hit": false,
      "t": 55753.85395833333,
      "d": 823.4110104166684,
      "v": 115
    },
    {
      "midi": 60,
      "hit": false,
      "t": 56487.9794375,
      "d": 942.4583854166631,
      "v": 83
    },
    {
      "midi": 48,
      "hit": false,
      "t": 56944.32770833333,
      "d": 3948.404604166666,
      "v": 51
    },
    {
      "midi": 55,
      "hit": false,
      "t": 56984.01016666667,
      "d": 2420.629958333331,
      "v": 51
    },
    {
      "midi": 58,
      "hit": false,
      "t": 57033.613239583334,
      "d": 5882.924447916666,
      "v": 77
    },
    {
      "midi": 63,
      "hit": false,
      "t": 57142.74,
      "d": 3015.8668333333335,
      "v": 81
    },
    {
      "midi": 55,
      "hit": false,
      "t": 59533.60811458333,
      "d": 1001.9820729166677,
      "v": 52
    },
    {
      "midi": 63,
      "hit": false,
      "t": 60307.41605208333,
      "d": 624.998718750001,
      "v": 87
    },
    {
      "midi": 53,
      "hit": false,
      "t": 60783.60555208333,
      "d": 3174.596666666672,
      "v": 47
    },
    {
      "midi": 46,
      "hit": false,
      "t": 60882.811697916666,
      "d": 3531.7387916666776,
      "v": 65
    },
    {
      "midi": 62,
      "hit": false,
      "t": 60962.17661458333,
      "d": 3154.755437500011,
      "v": 78
    },
    {
      "midi": 58,
      "hit": false,
      "t": 63333.2035,
      "d": 694.443020833336,
      "v": 119
    },
    {
      "midi": 57,
      "hit": false,
      "t": 64067.328979166676,
      "d": 496.0307291666686,
      "v": 105
    },
    {
      "midi": 55,
      "hit": false,
      "t": 64464.15356250001,
      "d": 3611.103708333336,
      "v": 49
    },
    {
      "midi": 57,
      "hit": false,
      "t": 64672.48646875001,
      "d": 198.41229166666744,
      "v": 75
    },
    {
      "midi": 43,
      "hit": false,
      "t": 64692.32769791668,
      "d": 3630.944937500004,
      "v": 23
    },
    {
      "midi": 58,
      "hit": false,
      "t": 64741.93077083334,
      "d": 3462.2944895833425,
      "v": 66
    },
    {
      "midi": 62,
      "hit": false,
      "t": 64791.53384375001,
      "d": 3571.4212500000067,
      "v": 82
    },
    {
      "midi": 60,
      "hit": false,
      "t": 68482.00246875001,
      "d": 3809.5160000000033,
      "v": 56
    },
    {
      "midi": 55,
      "hit": false,
      "t": 68521.68492708335,
      "d": 3244.0409687499923,
      "v": 37
    },
    {
      "midi": 48,
      "hit": false,
      "t": 68521.68492708335,
      "d": 3690.468624999994,
      "v": 54
    },
    {
      "midi": 58,
      "hit": false,
      "t": 68531.60554166668,
      "d": 3353.1677291666565,
      "v": 68
    },
    {
      "midi": 63,
      "hit": false,
      "t": 68531.60554166668,
      "d": 3581.34186458333,
      "v": 79
    },
    {
      "midi": 55,
      "hit": false,
      "t": 72033.58248958334,
      "d": 3621.024322916681,
      "v": 17
    },
    {
      "midi": 58,
      "hit": false,
      "t": 72182.39170833334,
      "d": 9275.774635416674,
      "v": 70
    },
    {
      "midi": 63,
      "hit": false,
      "t": 72291.51846875002,
      "d": 3799.595385416673,
      "v": 76
    },
    {
      "midi": 51,
      "hit": false,
      "t": 72341.12154166668,
      "d": 1924.5992291666626,
      "v": 53
    },
    {
      "midi": 53,
      "hit": false,
      "t": 75962.14586458335,
      "d": 1488.0921874999913,
      "v": 40
    },
    {
      "midi": 62,
      "hit": false,
      "t": 76101.03446875002,
      "d": 5486.0998645833315,
      "v": 73
    },
    {
      "midi": 46,
      "hit": false,
      "t": 76120.87569791668,
      "d": 7083.318812500016,
      "v": 54
    },
    {
      "midi": 53,
      "hit": false,
      "t": 77618.8885,
      "d": 853.1728541666671,
      "v": 46
    },
    {
      "midi": 53,
      "hit": false,
      "t": 78610.94995833334,
      "d": 2569.4391770833317,
      "v": 41
    },
    {
      "midi": 65,
      "hit": false,
      "t": 79603.01141666668,
      "d": 1884.9167708333407,
      "v": 50
    },
    {
      "midi": 53,
      "hit": false,
      "t": 81378.80142708334,
      "d": 2103.170291666698,
      "v": 82
    },
    {
      "midi": 58,
      "hit": false,
      "t": 81924.43522916669,
      "d": 1091.267604166671,
      "v": 84
    },
    {
      "midi": 60,
      "hit": false,
      "t": 82400.62472916668,
      "d": 565.4750312500109,
      "v": 75
    },
    {
      "midi": 62,
      "hit": false,
      "t": 82837.13177083335,
      "d": 694.4430208333506,
      "v": 92
    },
    {
      "midi": 60,
      "hit": false,
      "t": 83303.40065625003,
      "d": 406.74519791666535,
      "v": 74
    },
    {
      "midi": 53,
      "hit": false,
      "t": 83591.0984791667,
      "d": 2440.471187499992,
      "v": 58
    },
    {
      "midi": 58,
      "hit": false,
      "t": 83700.22523958336,
      "d": 2539.677333333326,
      "v": 98
    },
    {
      "midi": 46,
      "hit": false,
      "t": 83769.66954166669,
      "d": 1249.9974374999874,
      "v": 77
    },
    {
      "midi": 62,
      "hit": false,
      "t": 83839.11384375002,
      "d": 2966.2637604166666,
      "v": 109
    },
    {
      "midi": 46,
      "hit": false,
      "t": 85128.79373958334,
      "d": 277.77720833334024,
      "v": 73
    },
    {
      "midi": 46,
      "hit": false,
      "t": 85694.26877083335,
      "d": 1775.790010416662,
      "v": 78
    },
    {
      "midi": 53,
      "hit": false,
      "t": 86190.29950000002,
      "d": 3154.755437499989,
      "v": 78
    },
    {
      "midi": 62,
      "hit": false,
      "t": 86964.10743750002,
      "d": 525.79257291666,
      "v": 109
    },
    {
      "midi": 58,
      "hit": false,
      "t": 86974.02805208335,
      "d": 2529.7567187499953,
      "v": 105
    },
    {
      "midi": 60,
      "hit": false,
      "t": 87380.77325000001,
      "d": 396.8245833333349,
      "v": 78
    },
    {
      "midi": 46,
      "hit": false,
      "t": 87628.78861458335,
      "d": 3571.421249999985,
      "v": 48
    },
    {
      "midi": 62,
      "hit": false,
      "t": 87658.55045833335,
      "d": 1984.1229166666599,
      "v": 71
    },
    {
      "midi": 53,
      "hit": false,
      "t": 89493.86415625001,
      "d": 1269.838666666663,
      "v": 93
    },
    {
      "midi": 58,
      "hit": false,
      "t": 90039.49795833335,
      "d": 615.0781041666633,
      "v": 113
    },
    {
      "midi": 65,
      "hit": false,
      "t": 90614.89360416667,
      "d": 704.3636354166665,
      "v": 121
    },
    {
      "midi": 55,
      "hit": false,
      "t": 91130.7655625,
      "d": 4702.371312499992,
      "v": 57
    },
    {
      "midi": 48,
      "hit": false,
      "t": 91239.89232291667,
      "d": 3085.3111354166613,
      "v": 64
    },
    {
      "midi": 60,
      "hit": false,
      "t": 91269.65416666667,
      "d": 3214.279125000001,
      "v": 80
    },
    {
      "midi": 63,
      "hit": false,
      "t": 91339.09846875,
      "d": 1329.3623541666602,
      "v": 95
    },
    {
      "midi": 63,
      "hit": false,
      "t": 92787.50819791666,
      "d": 942.4583854166704,
      "v": 97
    },
    {
      "midi": 62,
      "hit": false,
      "t": 93739.88719791666,
      "d": 714.2842500000115,
      "v": 113
    },
    {
      "midi": 48,
      "hit": false,
      "t": 94702.1868125,
      "d": 3849.198458333325,
      "v": 53
    },
    {
      "midi": 63,
      "hit": false,
      "t": 94761.7105,
      "d": 2003.9641458333208,
      "v": 86
    },
    {
      "midi": 60,
      "hit": false,
      "t": 94781.55172916666,
      "d": 2876.9782291666634,
      "v": 71
    },
    {
      "midi": 55,
      "hit": false,
      "t": 96249.80268749999,
      "d": 1011.9026874999981,
      "v": 34
    },
    {
      "midi": 67,
      "hit": false,
      "t": 96696.23034375,
      "d": 1031.743916666659,
      "v": 115
    },
    {
      "midi": 55,
      "hit": false,
      "t": 97599.00627083333,
      "d": 2579.359791666662,
      "v": 101
    },
    {
      "midi": 60,
      "hit": false,
      "t": 98065.27515624999,
      "d": 654.7605624999997,
      "v": 89
    },
    {
      "midi": 67,
      "hit": false,
      "t": 98462.09973958333,
      "d": 744.0460937500029,
      "v": 77
    },
    {
      "midi": 48,
      "hit": false,
      "t": 99027.57477083332,
      "d": 3749.9923124999914,
      "v": 57
    },
    {
      "midi": 63,
      "hit": false,
      "t": 99067.25722916666,
      "d": 1696.4250937500037,
      "v": 76
    },
    {
      "midi": 60,
      "hit": false,
      "t": 99067.25722916666,
      "d": 2589.2804062499927,
      "v": 58
    },
    {
      "midi": 55,
      "hit": false,
      "t": 100436.30204166665,
      "d": 1964.2816874999844,
      "v": 60
    },
    {
      "midi": 63,
      "hit": false,
      "t": 100972.01522916666,
      "d": 575.3956458333269,
      "v": 109
    },
    {
      "midi": 62,
      "hit": false,
      "t": 101557.33148958332,
      "d": 605.1574895833328,
      "v": 107
    },
    {
      "midi": 60,
      "hit": false,
      "t": 102182.33020833331,
      "d": 505.95134374999907,
      "v": 97
    },
    {
      "midi": 57,
      "hit": false,
      "t": 102658.5197083333,
      "d": 1557.5364895833482,
      "v": 71
    },
    {
      "midi": 60,
      "hit": false,
      "t": 102797.40831249997,
      "d": 3343.247114583355,
      "v": 56
    },
    {
      "midi": 41,
      "hit": false,
      "t": 102827.17015624998,
      "d": 2549.597947916671,
      "v": 40
    },
    {
      "midi": 63,
      "hit": false,
      "t": 102827.17015624998,
      "d": 2589.280406250007,
      "v": 85
    },
    {
      "midi": 65,
      "hit": false,
      "t": 102866.85261458332,
      "d": 3720.2304687500146,
      "v": 74
    },
    {
      "midi": 54,
      "hit": false,
      "t": 105178.35581249998,
      "d": 1061.5057604166795,
      "v": 109
    },
    {
      "midi": 41,
      "hit": false,
      "t": 105962.08436458332,
      "d": 505.9513437500136,
      "v": 51
    },
    {
      "midi": 53,
      "hit": false,
      "t": 106279.54403125,
      "d": 1894.8373854166566,
      "v": 45
    },
    {
      "midi": 46,
      "hit": false,
      "t": 106468.03570833334,
      "d": 3541.6594062499935,
      "v": 70
    },
    {
      "midi": 62,
      "hit": false,
      "t": 106537.48001041666,
      "d": 1220.235593749996,
      "v": 73
    },
    {
      "midi": 58,
      "hit": false,
      "t": 106557.32123958333,
      "d": 1200.3943645833351,
      "v": 73
    },
    {
      "midi": 62,
      "hit": false,
      "t": 107847.00113541666,
      "d": 505.95134374999907,
      "v": 87
    },
    {
      "midi": 58,
      "hit": false,
      "t": 107856.92175,
      "d": 496.0307291666686,
      "v": 86
    },
    {
      "midi": 55,
      "hit": false,
      "t": 108432.31739583334,
      "d": 1587.298333333325,
      "v": 74
    },
    {
      "midi": 58,
      "hit": false,
      "t": 108521.60292708334,
      "d": 505.95134374999907,
      "v": 94
    },
    {
      "midi": 63,
      "hit": false,
      "t": 108531.52354166667,
      "d": 496.0307291666686,
      "v": 109
    },
    {
      "midi": 63,
      "hit": false,
      "t": 109176.36348958334,
      "d": 416.6658124999958,
      "v": 115
    },
    {
      "midi": 58,
      "hit": false,
      "t": 109176.36348958334,
      "d": 426.58642708332627,
      "v": 98
    },
    {
      "midi": 63,
      "hit": false,
      "t": 109771.60036458333,
      "d": 525.7925729166745,
      "v": 117
    },
    {
      "midi": 58,
      "hit": false,
      "t": 109781.52097916666,
      "d": 555.5544166666659,
      "v": 102
    },
    {
      "midi": 53,
      "hit": false,
      "t": 110317.23416666666,
      "d": 1755.9487812499865,
      "v": 47
    },
    {
      "midi": 58,
      "hit": false,
      "t": 110426.36092708333,
      "d": 1696.4250937499892,
      "v": 81
    },
    {
      "midi": 46,
      "hit": false,
      "t": 110436.28154166666,
      "d": 1914.678614583332,
      "v": 77
    },
    {
      "midi": 62,
      "hit": false,
      "t": 110446.20215624999,
      "d": 1676.5838645833282,
      "v": 93
    },
    {
      "midi": 63,
      "hit": false,
      "t": 112301.35708333332,
      "d": 347.221510416668,
      "v": 115
    },
    {
      "midi": 58,
      "hit": false,
      "t": 112321.19831249998,
      "d": 317.45966666667664,
      "v": 111
    },
    {
      "midi": 55,
      "hit": false,
      "t": 112321.19831249998,
      "d": 396.8245833333349,
      "v": 93
    },
    {
      "midi": 57,
      "hit": false,
      "t": 113233.89485416665,
      "d": 456.3482708333322,
      "v": 109
    },
    {
      "midi": 53,
      "hit": false,
      "t": 113243.81546874998,
      "d": 744.0460937500029,
      "v": 99
    },
    {
      "midi": 62,
      "hit": false,
      "t": 113243.81546874998,
      "d": 793.6491666666698,
      "v": 109
    },
    {
      "midi": 45,
      "hit": false,
      "t": 113729.92558333332,
      "d": 525.79257291666,
      "v": 71
    },
    {
      "midi": 43,
      "hit": false,
      "t": 114235.87692708331,
      "d": 1279.7592812499934,
      "v": 76
    },
    {
      "midi": 62,
      "hit": false,
      "t": 114235.87692708331,
      "d": 2569.439177083317,
      "v": 101
    },
    {
      "midi": 55,
      "hit": false,
      "t": 114245.79754166664,
      "d": 2291.6619687499915,
      "v": 90
    },
    {
      "midi": 58,
      "hit": false,
      "t": 114245.79754166664,
      "d": 2619.042249999984,
      "v": 105
    },
    {
      "midi": 43,
      "hit": false,
      "t": 115773.57218749997,
      "d": 5386.893718749998,
      "v": 31
    },
    {
      "midi": 55,
      "hit": false,
      "t": 116805.31610416663,
      "d": 1230.156208333341,
      "v": 105
    },
    {
      "midi": 58,
      "hit": false,
      "t": 117460.07666666663,
      "d": 545.6338020833355,
      "v": 115
    },
    {
      "midi": 58,
      "hit": false,
      "t": 118104.9166145833,
      "d": 2946.422531249991,
      "v": 91
    },
    {
      "midi": 62,
      "hit": false,
      "t": 118114.83722916663,
      "d": 2966.2637604166666,
      "v": 87
    },
    {
      "midi": 55,
      "hit": false,
      "t": 118124.75784374996,
      "d": 3005.946218750003,
      "v": 66
    },
    {
      "midi": 62,
      "hit": false,
      "t": 121200.1483645833,
      "d": 466.26888541666267,
      "v": 92
    },
    {
      "midi": 58,
      "hit": false,
      "t": 121219.98959374997,
      "d": 436.5070416666713,
      "v": 102
    },
    {
      "midi": 55,
      "hit": false,
      "t": 121219.98959374997,
      "d": 446.42765625000175,
      "v": 72
    },
    {
      "midi": 62,
      "hit": false,
      "t": 121805.30585416664,
      "d": 575.3956458333269,
      "v": 103
    },
    {
      "midi": 58,
      "hit": false,
      "t": 121825.1470833333,
      "d": 505.95134374999907,
      "v": 92
    },
    {
      "midi": 55,
      "hit": false,
      "t": 121825.1470833333,
      "d": 5605.147239583326,
      "v": 89
    },
    {
      "midi": 60,
      "hit": false,
      "t": 122390.6221145833,
      "d": 2480.1536458333285,
      "v": 83
    },
    {
      "midi": 58,
      "hit": false,
      "t": 122400.54272916663,
      "d": 2529.7567187499953,
      "v": 79
    },
    {
      "midi": 63,
      "hit": false,
      "t": 122410.46334374996,
      "d": 5178.5608125,
      "v": 94
    },
    {
      "midi": 60,
      "hit": false,
      "t": 125049.34682291662,
      "d": 287.6978229166707,
      "v": 80
    },
    {
      "midi": 58,
      "hit": false,
      "t": 125247.75911458328,
      "d": 307.5390520833316,
      "v": 86
    },
    {
      "midi": 60,
      "hit": false,
      "t": 125644.58369791662,
      "d": 2003.9641458333354,
      "v": 73
    },
    {
      "midi": 58,
      "hit": false,
      "t": 125684.26615624996,
      "d": 1954.3610729166685,
      "v": 91
    },
    {
      "midi": 55,
      "hit": false,
      "t": 127618.78599999996,
      "d": 1706.3457083333196,
      "v": 111
    },
    {
      "midi": 58,
      "hit": false,
      "t": 128214.02287499995,
      "d": 684.5224062500056,
      "v": 113
    },
    {
      "midi": 63,
      "hit": false,
      "t": 128809.25974999995,
      "d": 605.1574895833328,
      "v": 117
    },
    {
      "midi": 62,
      "hit": false,
      "t": 129464.02031249995,
      "d": 2599.2010208333086,
      "v": 99
    },
    {
      "midi": 55,
      "hit": false,
      "t": 129464.02031249995,
      "d": 3244.0409687499923,
      "v": 86
    },
    {
      "midi": 58,
      "hit": false,
      "t": 129473.94092708328,
      "d": 2162.693979166652,
      "v": 94
    },
    {
      "midi": 60,
      "hit": false,
      "t": 131874.72965624993,
      "d": 773.8079375000088,
      "v": 113
    },
    {
      "midi": 58,
      "hit": false,
      "t": 132559.25206249993,
      "d": 386.9039687500044,
      "v": 113
    },
    {
      "midi": 53,
      "hit": false,
      "t": 132975.91787499993,
      "d": 3363.088343749987,
      "v": 58
    },
    {
      "midi": 57,
      "hit": false,
      "t": 133214.01262499992,
      "d": 3105.1523645833367,
      "v": 77
    },
    {
      "midi": 60,
      "hit": false,
      "t": 133273.53631249993,
      "d": 3075.3905208333163,
      "v": 78
    },
    {
      "midi": 60,
      "hit": false,
      "t": 136458.0535937499,
      "d": 545.6338020833209,
      "v": 85
    },
    {
      "midi": 57,
      "hit": false,
      "t": 136477.89482291657,
      "d": 347.2215104166535,
      "v": 92
    },
    {
      "midi": 53,
      "hit": false,
      "t": 136477.89482291657,
      "d": 1994.0435312499758,
      "v": 76
    },
    {
      "midi": 58,
      "hit": false,
      "t": 137003.68739583323,
      "d": 2728.169010416663,
      "v": 84
    },
    {
      "midi": 57,
      "hit": false,
      "t": 137033.44923958322,
      "d": 59.52368749998277,
      "v": 53
    },
    {
      "midi": 62,
      "hit": false,
      "t": 137073.13169791654,
      "d": 3660.7067812500172,
      "v": 86
    },
    {
      "midi": 53,
      "hit": false,
      "t": 138561.22388541655,
      "d": 763.8873229166784,
      "v": 51
    },
    {
      "midi": 53,
      "hit": false,
      "t": 139563.20595833322,
      "d": 4910.704218749976,
      "v": 56
    },
    {
      "midi": 58,
      "hit": false,
      "t": 140376.69635416655,
      "d": 476.1895000000077,
      "v": 119
    },
    {
      "midi": 60,
      "hit": false,
      "t": 140981.85384374988,
      "d": 644.8399479166546,
      "v": 109
    },
    {
      "midi": 62,
      "hit": false,
      "t": 141577.09071874988,
      "d": 2916.6606874999707,
      "v": 111
    },
    {
      "midi": 58,
      "hit": false,
      "t": 141606.85256249987,
      "d": 2857.136999999988,
      "v": 85
    },
    {
      "midi": 63,
      "hit": false,
      "t": 144850.89353124987,
      "d": 6805.541604166676,
      "v": 64
    },
    {
      "midi": 48,
      "hit": false,
      "t": 146130.65281249987,
      "d": 6190.4634999999835,
      "v": 37
    },
    {
      "midi": 55,
      "hit": false,
      "t": 147202.07918749988,
      "d": 624.9987187499937,
      "v": 43
    },
    {
      "midi": 55,
      "hit": false,
      "t": 148184.2200312499,
      "d": 3343.247114583326,
      "v": 21
    },
    {
      "midi": 60,
      "hit": false,
      "t": 148700.09198958322,
      "d": 3482.1357187499816,
      "v": 48
    },
    {
      "midi": 58,
      "hit": false,
      "t": 148719.93321874988,
      "d": 3075.3905208333163,
      "v": 61
    },
    {
      "midi": 53,
      "hit": false,
      "t": 152162.38647916654,
      "d": 3224.1997395833023,
      "v": 46
    },
    {
      "midi": 58,
      "hit": false,
      "t": 152211.9895520832,
      "d": 2113.0909062499704,
      "v": 91
    },
    {
      "midi": 46,
      "hit": false,
      "t": 152360.79877083318,
      "d": 3581.3418645833153,
      "v": 63
    },
    {
      "midi": 62,
      "hit": false,
      "t": 152390.56061458317,
      "d": 3611.103708333336,
      "v": 97
    },
    {
      "midi": 57,
      "hit": false,
      "t": 154295.31861458317,
      "d": 525.79257291666,
      "v": 99
    },
    {
      "midi": 58,
      "hit": false,
      "t": 154910.39671874983,
      "d": 744.0460937499884,
      "v": 94
    },
    {
      "midi": 57,
      "hit": false,
      "t": 155525.4748229165,
      "d": 585.3162604166719,
      "v": 87
    },
    {
      "midi": 55,
      "hit": false,
      "t": 156021.50555208317,
      "d": 3650.7861666666577,
      "v": 38
    },
    {
      "midi": 58,
      "hit": false,
      "t": 156209.9972291665,
      "d": 3501.9769479166425,
      "v": 76
    },
    {
      "midi": 43,
      "hit": false,
      "t": 156219.91784374983,
      "d": 3551.580020833324,
      "v": 22
    },
    {
      "midi": 62,
      "hit": false,
      "t": 156259.60030208316,
      "d": 3551.580020833324,
      "v": 58
    },
    {
      "midi": 55,
      "hit": false,
      "t": 159969.91015624983,
      "d": 6855.144677083299,
      "v": 50
    },
    {
      "midi": 60,
      "hit": false,
      "t": 159979.83077083316,
      "d": 3908.722145833308,
      "v": 58
    },
    {
      "midi": 63,
      "hit": false,
      "t": 159979.83077083316,
      "d": 7301.572333333315,
      "v": 72
    },
    {
      "midi": 48,
      "hit": false,
      "t": 159999.67199999982,
      "d": 3888.880916666647,
      "v": 49
    },
    {
      "midi": 58,
      "hit": false,
      "t": 160009.59261458315,
      "d": 6785.700374999986,
      "v": 65
    },
    {
      "midi": 51,
      "hit": false,
      "t": 163858.79107291647,
      "d": 2748.0102395833237,
      "v": 55
    },
    {
      "midi": 57,
      "hit": false,
      "t": 167311.16494791646,
      "d": 3234.120354166662,
      "v": 49
    },
    {
      "midi": 53,
      "hit": false,
      "t": 167450.05355208312,
      "d": 3164.6760520833486,
      "v": 27
    },
    {
      "midi": 60,
      "hit": false,
      "t": 167459.97416666645,
      "d": 3164.6760520833486,
      "v": 48
    },
    {
      "midi": 63,
      "hit": false,
      "t": 167479.8153958331,
      "d": 3164.6760520833486,
      "v": 46
    },
    {
      "midi": 41,
      "hit": false,
      "t": 167549.25969791645,
      "d": 3591.262479166675,
      "v": 16
    },
    {
      "midi": 65,
      "hit": false,
      "t": 167628.62461458312,
      "d": 3779.7541562499828,
      "v": 71
    },
    {
      "midi": 53,
      "hit": false,
      "t": 171229.80770833313,
      "d": 3105.1523645832785,
      "v": 31
    },
    {
      "midi": 58,
      "hit": false,
      "t": 171358.77569791646,
      "d": 3025.7874479166057,
      "v": 49
    },
    {
      "midi": 46,
      "hit": false,
      "t": 171418.29938541644,
      "d": 3571.4212499999558,
      "v": 65
    },
    {
      "midi": 62,
      "hit": false,
      "t": 171457.98184374976,
      "d": 2827.3751562499965,
      "v": 67
    },
    {
      "midi": 48,
      "hit": false,
      "t": 175178.21231249973,
      "d": 3333.3264999999665,
      "v": 40
    },
    {
      "midi": 55,
      "hit": false,
      "t": 175207.97415624972,
      "d": 1249.9974374999874,
      "v": 35
    },
    {
      "midi": 60,
      "hit": false,
      "t": 175207.97415624972,
      "d": 1527.7746458333277,
      "v": 64
    },
    {
      "midi": 58,
      "hit": false,
      "t": 175227.81538541638,
      "d": 1488.0921875000058,
      "v": 64
    },
    {
      "midi": 63,
      "hit": false,
      "t": 175327.02153124972,
      "d": 1448.4097291666549,
      "v": 68
    },
    {
      "midi": 55,
      "hit": false,
      "t": 176626.6220416664,
      "d": 1865.0755416666507,
      "v": 86
    },
    {
      "midi": 58,
      "hit": false,
      "t": 177658.36595833304,
      "d": 823.4110104166612,
      "v": 115
    },
    {
      "midi": 60,
      "hit": false,
      "t": 178392.4914374997,
      "d": 942.4583854166267,
      "v": 83
    },
    {
      "midi": 48,
      "hit": false,
      "t": 178848.83970833302,
      "d": 3948.4046041666006,
      "v": 51
    },
    {
      "midi": 55,
      "hit": false,
      "t": 178888.52216666634,
      "d": 2420.629958333331,
      "v": 51
    },
    {
      "midi": 58,
      "hit": false,
      "t": 178938.125239583,
      "d": 5882.924447916594,
      "v": 77
    },
    {
      "midi": 63,
      "hit": false,
      "t": 179047.25199999966,
      "d": 3015.8668333333335,
      "v": 81
    },
    {
      "midi": 55,
      "hit": false,
      "t": 181438.120114583,
      "d": 1001.9820729166386,
      "v": 52
    },
    {
      "midi": 63,
      "hit": false,
      "t": 182211.92805208298,
      "d": 624.9987187499646,
      "v": 87
    },
    {
      "midi": 53,
      "hit": false,
      "t": 182688.11755208296,
      "d": 3174.596666666621,
      "v": 47
    },
    {
      "midi": 46,
      "hit": false,
      "t": 182787.3236979163,
      "d": 3531.738791666605,
      "v": 65
    },
    {
      "midi": 62,
      "hit": false,
      "t": 182866.68861458293,
      "d": 3154.75543749996,
      "v": 78
    },
    {
      "midi": 58,
      "hit": false,
      "t": 185237.71549999958,
      "d": 694.443020833336,
      "v": 119
    },
    {
      "midi": 57,
      "hit": false,
      "t": 185971.84097916624,
      "d": 496.0307291666395,
      "v": 105
    },
    {
      "midi": 55,
      "hit": false,
      "t": 186368.66556249955,
      "d": 3611.1037083333067,
      "v": 49
    },
    {
      "midi": 57,
      "hit": false,
      "t": 186576.99846874955,
      "d": 198.41229166663834,
      "v": 75
    },
    {
      "midi": 43,
      "hit": false,
      "t": 186596.8396979162,
      "d": 3630.9449374999676,
      "v": 23
    },
    {
      "midi": 58,
      "hit": false,
      "t": 186646.44277083286,
      "d": 3462.2944895833207,
      "v": 66
    },
    {
      "midi": 62,
      "hit": false,
      "t": 186696.0458437495,
      "d": 3571.421249999985,
      "v": 82
    },
    {
      "midi": 60,
      "hit": false,
      "t": 190386.5144687495,
      "d": 3809.515999999974,
      "v": 56
    },
    {
      "midi": 55,
      "hit": false,
      "t": 190426.1969270828,
      "d": 3244.0409687499923,
      "v": 37
    },
    {
      "midi": 48,
      "hit": false,
      "t": 190426.1969270828,
      "d": 3690.4686249999795,
      "v": 54
    },
    {
      "midi": 58,
      "hit": false,
      "t": 190436.11754166614,
      "d": 3353.1677291666565,
      "v": 68
    },
    {
      "midi": 63,
      "hit": false,
      "t": 190436.11754166614,
      "d": 3581.3418645833153,
      "v": 79
    },
    {
      "midi": 55,
      "hit": false,
      "t": 193938.09448958279,
      "d": 3621.0243229166663,
      "v": 17
    },
    {
      "midi": 58,
      "hit": false,
      "t": 194086.9037083328,
      "d": 9275.77463541663,
      "v": 70
    },
    {
      "midi": 63,
      "hit": false,
      "t": 194196.03046874946,
      "d": 3799.5953854166437,
      "v": 76
    },
    {
      "midi": 51,
      "hit": false,
      "t": 194245.63354166612,
      "d": 1924.5992291666626,
      "v": 53
    },
    {
      "midi": 53,
      "hit": false,
      "t": 197866.65786458278,
      "d": 1488.0921874999767,
      "v": 40
    },
    {
      "midi": 62,
      "hit": false,
      "t": 198005.54646874944,
      "d": 5486.099864583317,
      "v": 73
    },
    {
      "midi": 46,
      "hit": false,
      "t": 198025.3876979161,
      "d": 7083.318812499958,
      "v": 54
    },
    {
      "midi": 53,
      "hit": false,
      "t": 199523.40049999944,
      "d": 853.1728541666525,
      "v": 46
    },
    {
      "midi": 53,
      "hit": false,
      "t": 200515.46195833274,
      "d": 2569.4391770833463,
      "v": 41
    },
    {
      "midi": 65,
      "hit": false,
      "t": 201507.52341666608,
      "d": 1884.9167708333407,
      "v": 50
    },
    {
      "midi": 53,
      "hit": false,
      "t": 203283.31342708276,
      "d": 2103.17029166664,
      "v": 82
    },
    {
      "midi": 58,
      "hit": false,
      "t": 203828.94722916608,
      "d": 1091.2676041666418,
      "v": 84
    },
    {
      "midi": 60,
      "hit": false,
      "t": 204305.1367291661,
      "d": 565.4750312499818,
      "v": 75
    },
    {
      "midi": 62,
      "hit": false,
      "t": 204741.64377083274,
      "d": 694.443020833307,
      "v": 92
    },
    {
      "midi": 60,
      "hit": false,
      "t": 205207.9126562494,
      "d": 406.74519791666535,
      "v": 74
    },
    {
      "midi": 53,
      "hit": false,
      "t": 205495.61047916606,
      "d": 2440.471187500021,
      "v": 58
    },
    {
      "midi": 58,
      "hit": false,
      "t": 205604.73723958273,
      "d": 2539.677333333355,
      "v": 98
    },
    {
      "midi": 46,
      "hit": false,
      "t": 205674.18154166607,
      "d": 1249.9974375000165,
      "v": 77
    },
    {
      "midi": 62,
      "hit": false,
      "t": 205743.6258437494,
      "d": 2966.263760416681,
      "v": 109
    },
    {
      "midi": 46,
      "hit": false,
      "t": 207033.30573958275,
      "d": 277.77720833334024,
      "v": 73
    },
    {
      "midi": 46,
      "hit": false,
      "t": 207598.78077083276,
      "d": 1775.7900104166765,
      "v": 78
    },
    {
      "midi": 53,
      "hit": false,
      "t": 208094.81149999943,
      "d": 3154.755437499989,
      "v": 78
    },
    {
      "midi": 62,
      "hit": false,
      "t": 208868.61943749944,
      "d": 525.79257291666,
      "v": 109
    },
    {
      "midi": 58,
      "hit": false,
      "t": 208878.54005208277,
      "d": 2529.7567187499662,
      "v": 105
    },
    {
      "midi": 60,
      "hit": false,
      "t": 209285.28524999943,
      "d": 396.8245833333058,
      "v": 78
    },
    {
      "midi": 46,
      "hit": false,
      "t": 209533.30061458275,
      "d": 3571.421249999985,
      "v": 48
    },
    {
      "midi": 62,
      "hit": false,
      "t": 209563.06245833274,
      "d": 1984.1229166666453,
      "v": 71
    },
    {
      "midi": 53,
      "hit": false,
      "t": 211398.3761562494,
      "d": 1269.8386666666484,
      "v": 93
    },
    {
      "midi": 58,
      "hit": false,
      "t": 211944.00995833272,
      "d": 615.0781041666633,
      "v": 113
    },
    {
      "midi": 65,
      "hit": false,
      "t": 212519.40560416607,
      "d": 704.3636354166374,
      "v": 121
    },
    {
      "midi": 55,
      "hit": false,
      "t": 213035.2775624994,
      "d": 4702.371312499919,
      "v": 57
    },
    {
      "midi": 48,
      "hit": false,
      "t": 213144.40432291606,
      "d": 3085.3111354166176,
      "v": 64
    },
    {
      "midi": 60,
      "hit": false,
      "t": 213174.16616666605,
      "d": 3214.2791249999427,
      "v": 80
    },
    {
      "midi": 63,
      "hit": false,
      "t": 213243.61046874936,
      "d": 1329.3623541666602,
      "v": 95
    },
    {
      "midi": 63,
      "hit": false,
      "t": 214692.02019791602,
      "d": 942.4583854166558,
      "v": 97
    },
    {
      "midi": 62,
      "hit": false,
      "t": 215644.399197916,
      "d": 714.284249999997,
      "v": 113
    },
    {
      "midi": 48,
      "hit": false,
      "t": 216606.69881249932,
      "d": 3849.198458333325,
      "v": 53
    },
    {
      "midi": 63,
      "hit": false,
      "t": 216666.22249999933,
      "d": 2003.9641458333062,
      "v": 86
    },
    {
      "midi": 60,
      "hit": false,
      "t": 216686.063729166,
      "d": 2876.978229166649,
      "v": 71
    },
    {
      "midi": 55,
      "hit": false,
      "t": 218154.3146874993,
      "d": 1011.9026874999981,
      "v": 34
    },
    {
      "midi": 67,
      "hit": false,
      "t": 218600.7423437493,
      "d": 1031.7439166666882,
      "v": 115
    },
    {
      "midi": 55,
      "hit": false,
      "t": 219503.51827083263,
      "d": 2579.3597916666768,
      "v": 101
    },
    {
      "midi": 60,
      "hit": false,
      "t": 219969.7871562493,
      "d": 654.7605625000142,
      "v": 89
    },
    {
      "midi": 67,
      "hit": false,
      "t": 220366.61173958264,
      "d": 744.0460937499884,
      "v": 77
    },
    {
      "midi": 48,
      "hit": false,
      "t": 220932.08677083266,
      "d": 3749.9923124999914,
      "v": 57
    },
    {
      "midi": 63,
      "hit": false,
      "t": 220971.76922916598,
      "d": 1696.4250937500037,
      "v": 76
    },
    {
      "midi": 60,
      "hit": false,
      "t": 220971.76922916598,
      "d": 2589.280406250007,
      "v": 58
    },
    {
      "midi": 55,
      "hit": false,
      "t": 222340.814041666,
      "d": 1964.2816874999844,
      "v": 60
    },
    {
      "midi": 63,
      "hit": false,
      "t": 222876.52722916598,
      "d": 575.3956458333414,
      "v": 109
    },
    {
      "midi": 62,
      "hit": false,
      "t": 223461.84348958265,
      "d": 605.1574895833328,
      "v": 107
    },
    {
      "midi": 60,
      "hit": false,
      "t": 224086.84220833264,
      "d": 505.95134374999907,
      "v": 97
    },
    {
      "midi": 57,
      "hit": false,
      "t": 224563.03170833265,
      "d": 1557.53648958329,
      "v": 71
    },
    {
      "midi": 60,
      "hit": false,
      "t": 224701.9203124993,
      "d": 3343.247114583297,
      "v": 56
    },
    {
      "midi": 41,
      "hit": false,
      "t": 224731.6821562493,
      "d": 2549.5979479166563,
      "v": 40
    },
    {
      "midi": 63,
      "hit": false,
      "t": 224731.6821562493,
      "d": 2589.280406249978,
      "v": 85
    },
    {
      "midi": 65,
      "hit": false,
      "t": 224771.36461458262,
      "d": 3720.230468749971,
      "v": 74
    },
    {
      "midi": 54,
      "hit": false,
      "t": 227082.8678124993,
      "d": 1061.5057604166504,
      "v": 109
    },
    {
      "midi": 41,
      "hit": false,
      "t": 227866.5963645826,
      "d": 505.95134374999907,
      "v": 51
    },
    {
      "midi": 53,
      "hit": false,
      "t": 228184.05603124926,
      "d": 1894.8373854166712,
      "v": 45
    },
    {
      "midi": 46,
      "hit": false,
      "t": 228372.5477083326,
      "d": 3541.6594062499935,
      "v": 70
    },
    {
      "midi": 62,
      "hit": false,
      "t": 228441.99201041594,
      "d": 1220.235593749996,
      "v": 73
    },
    {
      "midi": 58,
      "hit": false,
      "t": 228461.8332395826,
      "d": 1200.3943645833351,
      "v": 73
    },
    {
      "midi": 62,
      "hit": false,
      "t": 229751.51313541594,
      "d": 505.95134374999907,
      "v": 87
    },
    {
      "midi": 58,
      "hit": false,
      "t": 229761.43374999927,
      "d": 496.0307291666686,
      "v": 86
    },
    {
      "midi": 55,
      "hit": false,
      "t": 230336.8293958326,
      "d": 1587.2983333333104,
      "v": 74
    },
    {
      "midi": 58,
      "hit": false,
      "t": 230426.1149270826,
      "d": 505.95134374999907,
      "v": 94
    },
    {
      "midi": 63,
      "hit": false,
      "t": 230436.03554166594,
      "d": 496.0307291666686,
      "v": 109
    },
    {
      "midi": 63,
      "hit": false,
      "t": 231080.8754895826,
      "d": 416.6658124999958,
      "v": 115
    },
    {
      "midi": 58,
      "hit": false,
      "t": 231080.8754895826,
      "d": 426.58642708332627,
      "v": 98
    },
    {
      "midi": 63,
      "hit": false,
      "t": 231676.1123645826,
      "d": 525.79257291666,
      "v": 117
    },
    {
      "midi": 58,
      "hit": false,
      "t": 231686.03297916593,
      "d": 555.5544166666514,
      "v": 102
    },
    {
      "midi": 53,
      "hit": false,
      "t": 232221.74616666592,
      "d": 1755.9487812499865,
      "v": 47
    },
    {
      "midi": 58,
      "hit": false,
      "t": 232330.8729270826,
      "d": 1696.4250937499746,
      "v": 81
    },
    {
      "midi": 46,
      "hit": false,
      "t": 232340.79354166592,
      "d": 1914.678614583303,
      "v": 77
    },
    {
      "midi": 62,
      "hit": false,
      "t": 232350.71415624925,
      "d": 1676.5838645833137,
      "v": 93
    },
    {
      "midi": 63,
      "hit": false,
      "t": 234205.86908333257,
      "d": 347.2215104166535,
      "v": 115
    },
    {
      "midi": 58,
      "hit": false,
      "t": 234225.71031249923,
      "d": 317.4596666666621,
      "v": 111
    },
    {
      "midi": 55,
      "hit": false,
      "t": 234225.71031249923,
      "d": 396.8245833333349,
      "v": 93
    },
    {
      "midi": 57,
      "hit": false,
      "t": 235138.4068541659,
      "d": 456.34827083331766,
      "v": 109
    },
    {
      "midi": 53,
      "hit": false,
      "t": 235148.32746874922,
      "d": 744.0460937499884,
      "v": 99
    },
    {
      "midi": 62,
      "hit": false,
      "t": 235148.32746874922,
      "d": 793.6491666666407,
      "v": 109
    },
    {
      "midi": 45,
      "hit": false,
      "t": 235634.43758333253,
      "d": 525.79257291666,
      "v": 71
    },
    {
      "midi": 43,
      "hit": false,
      "t": 236140.38892708253,
      "d": 1279.759281250008,
      "v": 76
    },
    {
      "midi": 62,
      "hit": false,
      "t": 236140.38892708253,
      "d": 2569.4391770833754,
      "v": 101
    },
    {
      "midi": 55,
      "hit": false,
      "t": 236150.30954166586,
      "d": 2291.661968750035,
      "v": 90
    },
    {
      "midi": 58,
      "hit": false,
      "t": 236150.30954166586,
      "d": 2619.042250000057,
      "v": 105
    },
    {
      "midi": 43,
      "hit": false,
      "t": 237678.08418749922,
      "d": 5386.893718749983,
      "v": 31
    },
    {
      "midi": 55,
      "hit": false,
      "t": 238709.8281041659,
      "d": 1230.1562083333265,
      "v": 105
    },
    {
      "midi": 58,
      "hit": false,
      "t": 239364.58866666592,
      "d": 545.6338020833209,
      "v": 115
    },
    {
      "midi": 58,
      "hit": false,
      "t": 240009.42861458258,
      "d": 2946.422531249991,
      "v": 91
    },
    {
      "midi": 62,
      "hit": false,
      "t": 240019.3492291659,
      "d": 2966.263760416652,
      "v": 87
    },
    {
      "midi": 55,
      "hit": false,
      "t": 240029.26984374924,
      "d": 3005.946218749974,
      "v": 66
    },
    {
      "midi": 62,
      "hit": false,
      "t": 243104.66036458252,
      "d": 466.2688854166481,
      "v": 92
    },
    {
      "midi": 58,
      "hit": false,
      "t": 243124.50159374918,
      "d": 436.50704166665673,
      "v": 102
    },
    {
      "midi": 55,
      "hit": false,
      "t": 243124.50159374918,
      "d": 446.4276562499872,
      "v": 72
    },
    {
      "midi": 62,
      "hit": false,
      "t": 243709.81785416583,
      "d": 575.3956458333123,
      "v": 103
    },
    {
      "midi": 58,
      "hit": false,
      "t": 243729.6590833325,
      "d": 505.95134374999907,
      "v": 92
    },
    {
      "midi": 55,
      "hit": false,
      "t": 243729.6590833325,
      "d": 5605.1472395832825,
      "v": 89
    },
    {
      "midi": 60,
      "hit": false,
      "t": 244295.13411458247,
      "d": 2480.153645833314,
      "v": 83
    },
    {
      "midi": 58,
      "hit": false,
      "t": 244305.0547291658,
      "d": 2529.7567187499953,
      "v": 79
    },
    {
      "midi": 63,
      "hit": false,
      "t": 244314.97534374913,
      "d": 5178.560812499985,
      "v": 94
    },
    {
      "midi": 60,
      "hit": false,
      "t": 246953.8588229158,
      "d": 287.6978229166707,
      "v": 80
    },
    {
      "midi": 58,
      "hit": false,
      "t": 247152.27111458246,
      "d": 307.5390520833316,
      "v": 86
    },
    {
      "midi": 60,
      "hit": false,
      "t": 247549.0956979158,
      "d": 2003.9641458333062,
      "v": 73
    },
    {
      "midi": 58,
      "hit": false,
      "t": 247588.7781562491,
      "d": 1954.361072916654,
      "v": 91
    },
    {
      "midi": 55,
      "hit": false,
      "t": 249523.2979999991,
      "d": 1706.3457083333342,
      "v": 111
    },
    {
      "midi": 58,
      "hit": false,
      "t": 250118.5348749991,
      "d": 684.5224062500056,
      "v": 113
    },
    {
      "midi": 63,
      "hit": false,
      "t": 250713.7717499991,
      "d": 605.1574895833328,
      "v": 117
    },
    {
      "midi": 62,
      "hit": false,
      "t": 251368.5323124991,
      "d": 2599.2010208333377,
      "v": 99
    },
    {
      "midi": 55,
      "hit": false,
      "t": 251368.5323124991,
      "d": 3244.0409687500214,
      "v": 86
    },
    {
      "midi": 58,
      "hit": false,
      "t": 251378.45292708243,
      "d": 2162.693979166681,
      "v": 94
    },
    {
      "midi": 60,
      "hit": false,
      "t": 253779.2416562491,
      "d": 773.8079375000088,
      "v": 113
    },
    {
      "midi": 58,
      "hit": false,
      "t": 254463.7640624991,
      "d": 386.9039687500044,
      "v": 113
    },
    {
      "midi": 53,
      "hit": false,
      "t": 254880.4298749991,
      "d": 3363.088343749987,
      "v": 58
    },
    {
      "midi": 57,
      "hit": false,
      "t": 255118.5246249991,
      "d": 3105.1523645833367,
      "v": 77
    },
    {
      "midi": 60,
      "hit": false,
      "t": 255178.0483124991,
      "d": 3075.3905208333163,
      "v": 78
    },
    {
      "midi": 60,
      "hit": false,
      "t": 258362.56559374908,
      "d": 545.6338020833209,
      "v": 85
    },
    {
      "midi": 57,
      "hit": false,
      "t": 258382.40682291574,
      "d": 347.2215104166535,
      "v": 92
    },
    {
      "midi": 53,
      "hit": false,
      "t": 258382.40682291574,
      "d": 1994.0435312499758,
      "v": 76
    },
    {
      "midi": 58,
      "hit": false,
      "t": 258908.1993958324,
      "d": 2728.169010416663,
      "v": 84
    },
    {
      "midi": 57,
      "hit": false,
      "t": 258937.9612395824,
      "d": 59.52368749998277,
      "v": 53
    },
    {
      "midi": 62,
      "hit": false,
      "t": 258977.64369791572,
      "d": 3660.7067812500172,
      "v": 86
    },
    {
      "midi": 53,
      "hit": false,
      "t": 260465.73588541572,
      "d": 763.8873229166784,
      "v": 51
    },
    {
      "midi": 53,
      "hit": false,
      "t": 261467.7179583324,
      "d": 4910.704218750063,
      "v": 56
    },
    {
      "midi": 58,
      "hit": false,
      "t": 262281.2083541657,
      "d": 476.1895000000368,
      "v": 119
    },
    {
      "midi": 62,
      "hit": false,
      "t": 266695.88184374914,
      "d": 2966.263760416594,
      "v": 109
    },
    {
      "midi": 46,
      "hit": false,
      "t": 267985.56173958245,
      "d": 277.77720833331114,
      "v": 73
    },
    {
      "midi": 46,
      "hit": false,
      "t": 268551.03677083243,
      "d": 1775.7900104167056,
      "v": 78
    },
    {
      "midi": 53,
      "hit": false,
      "t": 269047.0674999991,
      "d": 3154.7554375001346,
      "v": 78
    },
    {
      "midi": 62,
      "hit": false,
      "t": 269820.8754374991,
      "d": 525.7925729167182,
      "v": 109
    },
    {
      "midi": 58,
      "hit": false,
      "t": 269830.79605208244,
      "d": 2529.7567187501118,
      "v": 105
    },
    {
      "midi": 60,
      "hit": false,
      "t": 270237.54124999914,
      "d": 396.8245833333931,
      "v": 78
    },
    {
      "midi": 46,
      "hit": false,
      "t": 270485.5566145825,
      "d": 3571.421250000072,
      "v": 48
    },
    {
      "midi": 62,
      "hit": false,
      "t": 270515.3184583325,
      "d": 1984.1229166667326,
      "v": 71
    },
    {
      "midi": 53,
      "hit": false,
      "t": 272350.6321562492,
      "d": 1269.8386666667066,
      "v": 93
    },
    {
      "midi": 58,
      "hit": false,
      "t": 272896.2659583326,
      "d": 615.0781041666633,
      "v": 113
    },
    {
      "midi": 65,
      "hit": false,
      "t": 273471.6616041659,
      "d": 704.3636354166665,
      "v": 121
    },
    {
      "midi": 55,
      "hit": false,
      "t": 273987.5335624992,
      "d": 4702.371312500036,
      "v": 57
    },
    {
      "midi": 48,
      "hit": false,
      "t": 274096.6603229159,
      "d": 3085.311135416734,
      "v": 64
    },
    {
      "midi": 60,
      "hit": false,
      "t": 274126.4221666659,
      "d": 3214.279125000059,
      "v": 80
    },
    {
      "midi": 63,
      "hit": false,
      "t": 274195.86646874924,
      "d": 1329.3623541666893,
      "v": 95
    },
    {
      "midi": 63,
      "hit": false,
      "t": 275644.27619791595,
      "d": 942.4583854166558,
      "v": 97
    },
    {
      "midi": 62,
      "hit": false,
      "t": 276596.65519791597,
      "d": 714.2842499999679,
      "v": 113
    },
    {
      "midi": 48,
      "hit": false,
      "t": 277558.9548124993,
      "d": 3849.198458333325,
      "v": 53
    },
    {
      "midi": 63,
      "hit": false,
      "t": 277618.47849999927,
      "d": 2003.9641458333354,
      "v": 86
    },
    {
      "midi": 60,
      "hit": false,
      "t": 277638.31972916593,
      "d": 2876.978229166649,
      "v": 71
    },
    {
      "midi": 55,
      "hit": false,
      "t": 279106.57068749925,
      "d": 1011.9026874999981,
      "v": 34
    },
    {
      "midi": 67,
      "hit": false,
      "t": 279552.99834374926,
      "d": 1031.743916666659,
      "v": 115
    },
    {
      "midi": 55,
      "hit": false,
      "t": 280455.7742708326,
      "d": 2579.3597916666768,
      "v": 101
    },
    {
      "midi": 60,
      "hit": false,
      "t": 280922.0431562493,
      "d": 654.7605624999851,
      "v": 89
    },
    {
      "midi": 67,
      "hit": false,
      "t": 281318.8677395826,
      "d": 744.0460937499884,
      "v": 77
    },
    {
      "midi": 48,
      "hit": false,
      "t": 281884.3427708326,
      "d": 3749.9923125000205,
      "v": 57
    },
    {
      "midi": 63,
      "hit": false,
      "t": 281924.0252291659,
      "d": 1696.4250937500037,
      "v": 76
    },
    {
      "midi": 60,
      "hit": false,
      "t": 281924.0252291659,
      "d": 2589.2804062500363,
      "v": 58
    },
    {
      "midi": 55,
      "hit": false,
      "t": 283293.0700416659,
      "d": 1964.2816875000135,
      "v": 60
    },
    {
      "midi": 63,
      "hit": false,
      "t": 283828.78322916594,
      "d": 575.3956458333414,
      "v": 109
    },
    {
      "midi": 62,
      "hit": false,
      "t": 284414.09948958264,
      "d": 605.1574895833037,
      "v": 107
    },
    {
      "midi": 60,
      "hit": false,
      "t": 285039.0982083326,
      "d": 505.95134374999907,
      "v": 97
    },
    {
      "midi": 57,
      "hit": false,
      "t": 285515.2877083326,
      "d": 1557.5364895833773,
      "v": 71
    },
    {
      "midi": 60,
      "hit": false,
      "t": 285654.1763124993,
      "d": 3343.247114583326,
      "v": 56
    },
    {
      "midi": 41,
      "hit": false,
      "t": 285683.9381562493,
      "d": 2549.5979479166563,
      "v": 40
    },
    {
      "midi": 63,
      "hit": false,
      "t": 285683.9381562493,
      "d": 2589.280406249978,
      "v": 85
    },
    {
      "midi": 65,
      "hit": false,
      "t": 285723.6206145826,
      "d": 3720.230468749942,
      "v": 74
    },
    {
      "midi": 54,
      "hit": false,
      "t": 288035.1238124993,
      "d": 1061.5057604166213,
      "v": 109
    },
    {
      "midi": 41,
      "hit": false,
      "t": 288818.8523645826,
      "d": 505.95134374994086,
      "v": 51
    },
    {
      "midi": 53,
      "hit": false,
      "t": 289136.3120312492,
      "d": 1894.8373854167294,
      "v": 45
    },
    {
      "midi": 46,
      "hit": false,
      "t": 289324.80370833253,
      "d": 3541.65940625011,
      "v": 70
    },
    {
      "midi": 62,
      "hit": false,
      "t": 289394.2480104159,
      "d": 1220.2355937500251,
      "v": 73
    },
    {
      "midi": 58,
      "hit": false,
      "t": 289414.08923958254,
      "d": 1200.3943645833642,
      "v": 73
    },
    {
      "midi": 62,
      "hit": false,
      "t": 290703.7691354159,
      "d": 505.9513437500573,
      "v": 87
    },
    {
      "midi": 58,
      "hit": false,
      "t": 290713.68974999926,
      "d": 496.0307291666977,
      "v": 86
    },
    {
      "midi": 55,
      "hit": false,
      "t": 291289.0853958326,
      "d": 1587.2983333333977,
      "v": 74
    },
    {
      "midi": 58,
      "hit": false,
      "t": 291378.3709270826,
      "d": 505.95134374999907,
      "v": 94
    },
    {
      "midi": 63,
      "hit": false,
      "t": 291388.29154166597,
      "d": 496.0307291666395,
      "v": 109
    },
    {
      "midi": 63,
      "hit": false,
      "t": 292033.1314895826,
      "d": 416.6658124999958,
      "v": 115
    },
    {
      "midi": 58,
      "hit": false,
      "t": 292033.1314895826,
      "d": 426.5864270833554,
      "v": 98
    },
    {
      "midi": 63,
      "hit": false,
      "t": 292628.3683645826,
      "d": 525.7925729167182,
      "v": 117
    },
    {
      "midi": 58,
      "hit": false,
      "t": 292638.28897916595,
      "d": 555.5544166666805,
      "v": 102
    },
    {
      "midi": 53,
      "hit": false,
      "t": 293174.002166666,
      "d": 1755.9487812500447,
      "v": 47
    },
    {
      "midi": 58,
      "hit": false,
      "t": 293283.12892708264,
      "d": 1696.425093750062,
      "v": 81
    },
    {
      "midi": 46,
      "hit": false,
      "t": 293293.049541666,
      "d": 1914.6786145833903,
      "v": 77
    },
    {
      "midi": 62,
      "hit": false,
      "t": 293302.97015624936,
      "d": 1676.5838645833428,
      "v": 93
    },
    {
      "midi": 63,
      "hit": false,
      "t": 295158.1250833327,
      "d": 347.2215104167117,
      "v": 115
    },
    {
      "midi": 58,
      "hit": false,
      "t": 295177.96631249937,
      "d": 317.4596666666912,
      "v": 111
    },
    {
      "midi": 55,
      "hit": false,
      "t": 295177.96631249937,
      "d": 396.8245833333931,
      "v": 93
    },
    {
      "midi": 57,
      "hit": false,
      "t": 296090.6628541661,
      "d": 456.34827083337586,
      "v": 109
    },
    {
      "midi": 53,
      "hit": false,
      "t": 296100.5834687495,
      "d": 744.0460937499884,
      "v": 99
    },
    {
      "midi": 62,
      "hit": false,
      "t": 296100.5834687495,
      "d": 793.6491666666698,
      "v": 109
    },
    {
      "midi": 45,
      "hit": false,
      "t": 296586.6935833328,
      "d": 525.7925729167182,
      "v": 71
    },
    {
      "midi": 43,
      "hit": false,
      "t": 297092.6449270828,
      "d": 1279.7592812500661,
      "v": 76
    },
    {
      "midi": 62,
      "hit": false,
      "t": 297092.6449270828,
      "d": 2569.4391770833754,
      "v": 101
    },
    {
      "midi": 55,
      "hit": false,
      "t": 297102.5655416662,
      "d": 2291.661968750006,
      "v": 90
    },
    {
      "midi": 58,
      "hit": false,
      "t": 297102.5655416662,
      "d": 2619.0422499999986,
      "v": 105
    },
    {
      "midi": 43,
      "hit": false,
      "t": 298630.34018749953,
      "d": 5386.8937187501,
      "v": 31
    },
    {
      "midi": 55,
      "hit": false,
      "t": 299662.0841041662,
      "d": 1230.1562083333265,
      "v": 105
    },
    {
      "midi": 58,
      "hit": false,
      "t": 300316.8446666662,
      "d": 545.6338020833209,
      "v": 115
    },
    {
      "midi": 58,
      "hit": false,
      "t": 300961.68461458286,
      "d": 2946.4225312500494,
      "v": 91
    },
    {
      "midi": 62,
      "hit": false,
      "t": 300971.6052291662,
      "d": 2966.2637604167103,
      "v": 87
    },
    {
      "midi": 55,
      "hit": false,
      "t": 300981.5258437496,
      "d": 3005.946218750032,
      "v": 66
    },
    {
      "midi": 62,
      "hit": false,
      "t": 304056.91636458295,
      "d": 466.2688854166772,
      "v": 92
    },
    {
      "midi": 58,
      "hit": false,
      "t": 304076.7575937496,
      "d": 436.50704166665673,
      "v": 102
    },
    {
      "midi": 55,
      "hit": false,
      "t": 304076.7575937496,
      "d": 446.4276562500163,
      "v": 72
    },
    {
      "midi": 62,
      "hit": false,
      "t": 304662.0738541663,
      "d": 575.3956458333414,
      "v": 103
    },
    {
      "midi": 58,
      "hit": false,
      "t": 304681.915083333,
      "d": 505.95134374999907,
      "v": 92
    },
    {
      "midi": 55,
      "hit": false,
      "t": 304681.915083333,
      "d": 5605.147239583428,
      "v": 89
    },
    {
      "midi": 60,
      "hit": false,
      "t": 305247.390114583,
      "d": 2480.153645833372,
      "v": 83
    },
    {
      "midi": 58,
      "hit": false,
      "t": 305257.3107291664,
      "d": 2529.7567187499953,
      "v": 79
    },
    {
      "midi": 63,
      "hit": false,
      "t": 305267.23134374974,
      "d": 5178.560812500014,
      "v": 94
    },
    {
      "midi": 60,
      "hit": false,
      "t": 307906.1148229164,
      "d": 287.6978229166707,
      "v": 80
    },
    {
      "midi": 58,
      "hit": false,
      "t": 308104.52711458306,
      "d": 307.5390520833316,
      "v": 86
    },
    {
      "midi": 60,
      "hit": false,
      "t": 308501.3516979164,
      "d": 2003.9641458333936,
      "v": 73
    },
    {
      "midi": 58,
      "hit": false,
      "t": 308541.0341562497,
      "d": 1954.3610729167121,
      "v": 91
    },
    {
      "midi": 55,
      "hit": false,
      "t": 310475.55399999977,
      "d": 1706.3457083333633,
      "v": 111
    },
    {
      "midi": 58,
      "hit": false,
      "t": 311070.7908749998,
      "d": 684.5224062500056,
      "v": 113
    },
    {
      "midi": 63,
      "hit": false,
      "t": 311666.0277499998,
      "d": 605.1574895833619,
      "v": 117
    },
    {
      "midi": 62,
      "hit": false,
      "t": 312320.7883124998,
      "d": 2599.201020833396,
      "v": 99
    },
    {
      "midi": 55,
      "hit": false,
      "t": 312320.7883124998,
      "d": 3244.0409687500796,
      "v": 86
    },
    {
      "midi": 58,
      "hit": false,
      "t": 312330.7089270832,
      "d": 2162.693979166681,
      "v": 94
    }
  ]
}