{
  "jsonPath": "Jazz/Smooth Jazz/Kenny G/beautiful-love.json",
  "path": "Jazz\\Smooth Jazz\\Kenny G\\Beautiful Love.mid",
  "name": "Beautiful Love",
  "difficulty": "Advanced",
  "bpm": 122.99996925000768,
  "notes": [
    {
      "midi": 62,
      "hit": false,
      "t": 2247.968041666667,
      "d": 569.1058333333335,
      "v": 82
    },
    {
      "midi": 50,
      "hit": false,
      "t": 2260.163166666667,
      "d": 609.7562499999999,
      "v": 68
    },
    {
      "midi": 64,
      "hit": false,
      "t": 2906.504791666667,
      "d": 60.975625000000036,
      "v": 38
    },
    {
      "midi": 52,
      "hit": false,
      "t": 2922.7649583333337,
      "d": 40.65041666666684,
      "v": 35
    },
    {
      "midi": 53,
      "hit": false,
      "t": 3406.504916666667,
      "d": 28.455291666666653,
      "v": 46
    },
    {
      "midi": 65,
      "hit": false,
      "t": 3406.504916666667,
      "d": 48.78049999999985,
      "v": 51
    },
    {
      "midi": 62,
      "hit": false,
      "t": 3882.114791666667,
      "d": 378.0488750000013,
      "v": 32
    },
    {
      "midi": 66,
      "hit": false,
      "t": 3886.1798333333336,
      "d": 369.91879166666786,
      "v": 44
    },
    {
      "midi": 69,
      "hit": false,
      "t": 3890.2448750000003,
      "d": 723.5774166666679,
      "v": 56
    },
    {
      "midi": 58,
      "hit": false,
      "t": 3898.374958333334,
      "d": 337.398458333334,
      "v": 19
    },
    {
      "midi": 57,
      "hit": false,
      "t": 3910.570083333334,
      "d": 353.65862500000094,
      "v": 31
    },
    {
      "midi": 55,
      "hit": false,
      "t": 3910.570083333334,
      "d": 491.87004166666793,
      "v": 35
    },
    {
      "midi": 66,
      "hit": false,
      "t": 4707.318250000001,
      "d": 211.3821666666663,
      "v": 44
    },
    {
      "midi": 62,
      "hit": false,
      "t": 4711.383291666668,
      "d": 162.60166666666646,
      "v": 41
    },
    {
      "midi": 58,
      "hit": false,
      "t": 4715.448333333335,
      "d": 593.4960833333334,
      "v": 21
    },
    {
      "midi": 57,
      "hit": false,
      "t": 4719.513375000001,
      "d": 565.0407916666663,
      "v": 34
    },
    {
      "midi": 55,
      "hit": false,
      "t": 4723.578416666668,
      "d": 597.5611250000002,
      "v": 40
    },
    {
      "midi": 79,
      "hit": false,
      "t": 5227.643583333334,
      "d": 56.91058333333331,
      "v": 99
    },
    {
      "midi": 79,
      "hit": false,
      "t": 5365.855000000001,
      "d": 56.91058333333331,
      "v": 95
    },
    {
      "midi": 79,
      "hit": false,
      "t": 5524.391625000001,
      "d": 73.17075000000023,
      "v": 90
    },
    {
      "midi": 76,
      "hit": false,
      "t": 5662.603041666668,
      "d": 32.52033333333293,
      "v": 45
    },
    {
      "midi": 55,
      "hit": false,
      "t": 5804.879500000001,
      "d": 329.26837500000056,
      "v": 68
    },
    {
      "midi": 77,
      "hit": false,
      "t": 5804.879500000001,
      "d": 1329.2686250000015,
      "v": 84
    },
    {
      "midi": 66,
      "hit": false,
      "t": 5808.944541666668,
      "d": 308.9431666666669,
      "v": 49
    },
    {
      "midi": 61,
      "hit": false,
      "t": 5817.074625000001,
      "d": 325.20333333333383,
      "v": 53
    },
    {
      "midi": 45,
      "hit": false,
      "t": 6670.733375000002,
      "d": 174.79679166666665,
      "v": 77
    },
    {
      "midi": 52,
      "hit": false,
      "t": 6670.733375000002,
      "d": 203.25208333333376,
      "v": 84
    },
    {
      "midi": 76,
      "hit": false,
      "t": 7182.928625000002,
      "d": 292.683,
      "v": 88
    },
    {
      "midi": 74,
      "hit": false,
      "t": 7512.197000000002,
      "d": 73.17075000000023,
      "v": 44
    },
    {
      "midi": 76,
      "hit": false,
      "t": 7642.2783333333355,
      "d": 65.04066666666677,
      "v": 58
    },
    {
      "midi": 77,
      "hit": false,
      "t": 7796.7499166666685,
      "d": 268.2927500000005,
      "v": 62
    },
    {
      "midi": 69,
      "hit": false,
      "t": 7804.880000000002,
      "d": 288.6179583333342,
      "v": 48
    },
    {
      "midi": 72,
      "hit": false,
      "t": 7813.010083333335,
      "d": 243.90250000000015,
      "v": 52
    },
    {
      "midi": 61,
      "hit": false,
      "t": 7821.140166666669,
      "d": 288.6179583333342,
      "v": 35
    },
    {
      "midi": 76,
      "hit": false,
      "t": 8296.75004166667,
      "d": 207.31712499999958,
      "v": 49
    },
    {
      "midi": 65,
      "hit": false,
      "t": 8313.010208333337,
      "d": 239.83745833333342,
      "v": 34
    },
    {
      "midi": 69,
      "hit": false,
      "t": 8317.075250000004,
      "d": 215.44720833333304,
      "v": 48
    },
    {
      "midi": 60,
      "hit": false,
      "t": 8321.14029166667,
      "d": 300.81308333333254,
      "v": 42
    },
    {
      "midi": 57,
      "hit": false,
      "t": 8813.010333333335,
      "d": 97.56100000000151,
      "v": 31
    },
    {
      "midi": 69,
      "hit": false,
      "t": 8813.010333333335,
      "d": 121.95125000000189,
      "v": 33
    },
    {
      "midi": 72,
      "hit": false,
      "t": 8813.010333333335,
      "d": 126.01629166666862,
      "v": 25
    },
    {
      "midi": 65,
      "hit": false,
      "t": 8817.075375000002,
      "d": 126.01629166666862,
      "v": 30
    },
    {
      "midi": 62,
      "hit": false,
      "t": 8821.140416666669,
      "d": 109.7561250000017,
      "v": 17
    },
    {
      "midi": 64,
      "hit": false,
      "t": 8825.205458333336,
      "d": 126.01629166666862,
      "v": 16
    },
    {
      "midi": 57,
      "hit": false,
      "t": 9495.937333333337,
      "d": 138.211416666667,
      "v": 68
    },
    {
      "midi": 56,
      "hit": false,
      "t": 9626.01866666667,
      "d": 113.82116666666661,
      "v": 36
    },
    {
      "midi": 55,
      "hit": false,
      "t": 9707.319500000003,
      "d": 85.36587500000132,
      "v": 49
    },
    {
      "midi": 54,
      "hit": false,
      "t": 9792.685375000005,
      "d": 154.4715833333339,
      "v": 43
    },
    {
      "midi": 38,
      "hit": false,
      "t": 9800.815458333338,
      "d": 231.70737499999996,
      "v": 35
    },
    {
      "midi": 26,
      "hit": false,
      "t": 9808.945541666671,
      "d": 199.18704166666612,
      "v": 32
    },
    {
      "midi": 65,
      "hit": false,
      "t": 10569.108333333337,
      "d": 93.49595833333478,
      "v": 67
    },
    {
      "midi": 56,
      "hit": false,
      "t": 10569.108333333337,
      "d": 150.406541666669,
      "v": 73
    },
    {
      "midi": 61,
      "hit": false,
      "t": 10573.173375000004,
      "d": 130.08133333333535,
      "v": 67
    },
    {
      "midi": 51,
      "hit": false,
      "t": 10581.303458333337,
      "d": 304.8781250000029,
      "v": 62
    },
    {
      "midi": 67,
      "hit": false,
      "t": 10845.531166666673,
      "d": 146.34150000000227,
      "v": 65
    },
    {
      "midi": 58,
      "hit": false,
      "t": 10853.661250000006,
      "d": 186.99191666666957,
      "v": 60
    },
    {
      "midi": 63,
      "hit": false,
      "t": 10853.661250000006,
      "d": 195.12200000000303,
      "v": 67
    },
    {
      "midi": 53,
      "hit": false,
      "t": 10869.921416666673,
      "d": 227.64233333333686,
      "v": 53
    },
    {
      "midi": 69,
      "hit": false,
      "t": 11227.645083333344,
      "d": 174.79679166666938,
      "v": 68
    },
    {
      "midi": 60,
      "hit": false,
      "t": 11231.71012500001,
      "d": 126.01629166666862,
      "v": 71
    },
    {
      "midi": 65,
      "hit": false,
      "t": 11231.71012500001,
      "d": 154.47158333333573,
      "v": 66
    },
    {
      "midi": 55,
      "hit": false,
      "t": 11247.970291666677,
      "d": 146.34150000000227,
      "v": 53
    },
    {
      "midi": 62,
      "hit": false,
      "t": 11569.108583333347,
      "d": 373.9838333333337,
      "v": 74
    },
    {
      "midi": 58,
      "hit": false,
      "t": 11569.108583333347,
      "d": 394.3090416666673,
      "v": 64
    },
    {
      "midi": 69,
      "hit": false,
      "t": 11569.108583333347,
      "d": 630.081458333334,
      "v": 82
    },
    {
      "midi": 72,
      "hit": false,
      "t": 11569.108583333347,
      "d": 1739.8378333333367,
      "v": 79
    },
    {
      "midi": 60,
      "hit": false,
      "t": 11573.173625000014,
      "d": 361.7887083333335,
      "v": 73
    },
    {
      "midi": 65,
      "hit": false,
      "t": 11573.173625000014,
      "d": 613.8212916666671,
      "v": 83
    },
    {
      "midi": 43,
      "hit": false,
      "t": 12195.125000000015,
      "d": 24.39025000000038,
      "v": 47
    },
    {
      "midi": 65,
      "hit": false,
      "t": 12508.13320833335,
      "d": 878.0490000000009,
      "v": 45
    },
    {
      "midi": 62,
      "hit": false,
      "t": 12512.198250000016,
      "d": 882.1140416666676,
      "v": 54
    },
    {
      "midi": 57,
      "hit": false,
      "t": 12524.393375000016,
      "d": 743.9026250000006,
      "v": 40
    },
    {
      "midi": 70,
      "hit": false,
      "t": 13479.678166666683,
      "d": 69.10570833333259,
      "v": 59
    },
    {
      "midi": 55,
      "hit": false,
      "t": 13987.808375000017,
      "d": 32.52033333333384,
      "v": 40
    },
    {
      "midi": 69,
      "hit": false,
      "t": 14012.198625000017,
      "d": 524.3903750000009,
      "v": 68
    },
    {
      "midi": 61,
      "hit": false,
      "t": 14016.263666666684,
      "d": 528.4554166666676,
      "v": 67
    },
    {
      "midi": 58,
      "hit": false,
      "t": 14020.32870833335,
      "d": 532.5204583333343,
      "v": 52
    },
    {
      "midi": 64,
      "hit": false,
      "t": 14024.393750000017,
      "d": 483.73995833333356,
      "v": 53
    },
    {
      "midi": 57,
      "hit": false,
      "t": 14028.458791666684,
      "d": 508.13020833333394,
      "v": 48
    },
    {
      "midi": 48,
      "hit": false,
      "t": 14504.068666666684,
      "d": 621.9513750000042,
      "v": 36
    },
    {
      "midi": 58,
      "hit": false,
      "t": 14678.865458333352,
      "d": 182.92687500000102,
      "v": 39
    },
    {
      "midi": 61,
      "hit": false,
      "t": 14678.865458333352,
      "d": 203.25208333333467,
      "v": 46
    },
    {
      "midi": 67,
      "hit": false,
      "t": 14695.125625000019,
      "d": 227.64233333333505,
      "v": 39
    },
    {
      "midi": 55,
      "hit": false,
      "t": 14695.125625000019,
      "d": 243.90250000000196,
      "v": 35
    },
    {
      "midi": 65,
      "hit": false,
      "t": 14991.873666666688,
      "d": 89.43091666666623,
      "v": 46
    },
    {
      "midi": 58,
      "hit": false,
      "t": 15138.215166666689,
      "d": 203.25208333333467,
      "v": 40
    },
    {
      "midi": 67,
      "hit": false,
      "t": 15150.410291666689,
      "d": 199.18704166666794,
      "v": 35
    },
    {
      "midi": 61,
      "hit": false,
      "t": 15150.410291666689,
      "d": 203.25208333333467,
      "v": 18
    },
    {
      "midi": 55,
      "hit": false,
      "t": 15154.475333333356,
      "d": 36.58537500000057,
      "v": 30
    },
    {
      "midi": 48,
      "hit": false,
      "t": 15447.158333333356,
      "d": 191.05695833333448,
      "v": 34
    },
    {
      "midi": 57,
      "hit": false,
      "t": 15597.564875000024,
      "d": 56.910583333334216,
      "v": 45
    },
    {
      "midi": 64,
      "hit": false,
      "t": 15609.760000000024,
      "d": 73.17075000000114,
      "v": 40
    },
    {
      "midi": 69,
      "hit": false,
      "t": 15609.760000000024,
      "d": 134.14637500000026,
      "v": 39
    },
    {
      "midi": 41,
      "hit": false,
      "t": 15617.890083333357,
      "d": 32.52033333333384,
      "v": 41
    },
    {
      "midi": 76,
      "hit": false,
      "t": 16386.182958333357,
      "d": 182.92687499999374,
      "v": 88
    },
    {
      "midi": 57,
      "hit": false,
      "t": 16390.24800000002,
      "d": 134.14637499999662,
      "v": 68
    },
    {
      "midi": 67,
      "hit": false,
      "t": 16394.313041666686,
      "d": 174.79679166666392,
      "v": 62
    },
    {
      "midi": 72,
      "hit": false,
      "t": 16394.313041666686,
      "d": 186.9919166666623,
      "v": 79
    },
    {
      "midi": 62,
      "hit": false,
      "t": 16398.37808333335,
      "d": 158.53662500000064,
      "v": 54
    },
    {
      "midi": 73,
      "hit": false,
      "t": 16666.670833333348,
      "d": 223.57729166665376,
      "v": 71
    },
    {
      "midi": 77,
      "hit": false,
      "t": 16666.670833333348,
      "d": 256.0976249999876,
      "v": 67
    },
    {
      "midi": 58,
      "hit": false,
      "t": 16670.735875000013,
      "d": 195.1219999999921,
      "v": 61
    },
    {
      "midi": 68,
      "hit": false,
      "t": 16674.800916666678,
      "d": 186.9919166666623,
      "v": 65
    },
    {
      "midi": 63,
      "hit": false,
      "t": 16682.931000000008,
      "d": 203.2520833333292,
      "v": 55
    },
    {
      "midi": 72,
      "hit": false,
      "t": 16995.939208333333,
      "d": 93.49595833332933,
      "v": 49
    },
    {
      "midi": 62,
      "hit": false,
      "t": 17004.069291666667,
      "d": 89.43091666666078,
      "v": 43
    },
    {
      "midi": 76,
      "hit": false,
      "t": 17004.069291666667,
      "d": 284.55291666666017,
      "v": 45
    },
    {
      "midi": 67,
      "hit": false,
      "t": 17008.13433333333,
      "d": 89.43091666666078,
      "v": 24
    },
    {
      "midi": 57,
      "hit": false,
      "t": 17012.199374999997,
      "d": 109.75612499999625,
      "v": 31
    },
    {
      "midi": 70,
      "hit": false,
      "t": 17337.402708333328,
      "d": 85.36587499999587,
      "v": 44
    },
    {
      "midi": 60,
      "hit": false,
      "t": 17349.597833333326,
      "d": 36.58537499999875,
      "v": 43
    },
    {
      "midi": 74,
      "hit": false,
      "t": 17353.66287499999,
      "d": 69.10570833333259,
      "v": 32
    },
    {
      "midi": 55,
      "hit": false,
      "t": 17361.792958333324,
      "d": 24.39025000000038,
      "v": 22
    },
    {
      "midi": 65,
      "hit": false,
      "t": 17361.792958333324,
      "d": 48.78050000000076,
      "v": 19
    },
    {
      "midi": 67,
      "hit": false,
      "t": 17540.654791666657,
      "d": 44.71545833332857,
      "v": 37
    },
    {
      "midi": 57,
      "hit": false,
      "t": 17544.71983333332,
      "d": 65.04066666666404,
      "v": 36
    },
    {
      "midi": 72,
      "hit": false,
      "t": 17548.784874999987,
      "d": 36.58537499999875,
      "v": 44
    },
    {
      "midi": 76,
      "hit": false,
      "t": 17548.784874999987,
      "d": 44.71545833333221,
      "v": 54
    },
    {
      "midi": 62,
      "hit": false,
      "t": 17552.84991666665,
      "d": 24.39025000000038,
      "v": 42
    },
    {
      "midi": 62,
      "hit": false,
      "t": 17873.988208333318,
      "d": 426.8293749999939,
      "v": 60
    },
    {
      "midi": 58,
      "hit": false,
      "t": 17873.988208333318,
      "d": 434.95945833332735,
      "v": 56
    },
    {
      "midi": 64,
      "hit": false,
      "t": 17873.988208333318,
      "d": 439.02449999999226,
      "v": 55
    },
    {
      "midi": 69,
      "hit": false,
      "t": 17878.053249999983,
      "d": 459.3497083333277,
      "v": 57
    },
    {
      "midi": 57,
      "hit": false,
      "t": 17882.118291666648,
      "d": 540.6505416666623,
      "v": 40
    },
    {
      "midi": 66,
      "hit": false,
      "t": 18532.52495833331,
      "d": 162.60166666666555,
      "v": 53
    },
    {
      "midi": 71,
      "hit": false,
      "t": 18532.52495833331,
      "d": 178.86183333333247,
      "v": 57
    },
    {
      "midi": 63,
      "hit": false,
      "t": 18536.589999999975,
      "d": 158.53662500000064,
      "v": 49
    },
    {
      "midi": 59,
      "hit": false,
      "t": 18544.720083333308,
      "d": 89.43091666666805,
      "v": 39
    },
    {
      "midi": 60,
      "hit": false,
      "t": 18544.720083333308,
      "d": 121.95125000000189,
      "v": 43
    },
    {
      "midi": 73,
      "hit": false,
      "t": 19012.199874999973,
      "d": 85.36587499999587,
      "v": 56
    },
    {
      "midi": 68,
      "hit": false,
      "t": 19020.329958333306,
      "d": 69.10570833332895,
      "v": 50
    },
    {
      "midi": 64,
      "hit": false,
      "t": 19024.39499999997,
      "d": 44.71545833333221,
      "v": 46
    },
    {
      "midi": 70,
      "hit": false,
      "t": 19024.39499999997,
      "d": 60.97562499999913,
      "v": 50
    },
    {
      "midi": 51,
      "hit": false,
      "t": 19040.65516666664,
      "d": 20.32520833333183,
      "v": 28
    },
    {
      "midi": 76,
      "hit": false,
      "t": 19325.208083333302,
      "d": 117.8862083333297,
      "v": 70
    },
    {
      "midi": 61,
      "hit": false,
      "t": 19329.273124999967,
      "d": 113.8211666666648,
      "v": 60
    },
    {
      "midi": 51,
      "hit": false,
      "t": 19333.338166666632,
      "d": 117.8862083333297,
      "v": 53
    },
    {
      "midi": 70,
      "hit": false,
      "t": 19337.403208333297,
      "d": 109.75612499999988,
      "v": 64
    },
    {
      "midi": 79,
      "hit": false,
      "t": 19495.939833333294,
      "d": 170.73174999999537,
      "v": 66
    },
    {
      "midi": 60,
      "hit": false,
      "t": 19508.134958333292,
      "d": 117.88620833333334,
      "v": 54
    },
    {
      "midi": 69,
      "hit": false,
      "t": 19512.199999999957,
      "d": 215.44720833333122,
      "v": 71
    },
    {
      "midi": 50,
      "hit": false,
      "t": 19512.199999999957,
      "d": 703.2522083333279,
      "v": 53
    },
    {
      "midi": 77,
      "hit": false,
      "t": 19638.216291666624,
      "d": 69.10570833333259,
      "v": 4
    },
    {
      "midi": 77,
      "hit": false,
      "t": 19808.948041666623,
      "d": 65.04066666666404,
      "v": 64
    },
    {
      "midi": 61,
      "hit": false,
      "t": 19813.013083333288,
      "d": 109.75612499999988,
      "v": 53
    },
    {
      "midi": 69,
      "hit": false,
      "t": 19825.208208333286,
      "d": 65.04066666666768,
      "v": 67
    },
    {
      "midi": 69,
      "hit": false,
      "t": 20000.004999999954,
      "d": 252.03258333332997,
      "v": 44
    },
    {
      "midi": 60,
      "hit": false,
      "t": 20000.004999999954,
      "d": 321.13829166666255,
      "v": 40
    },
    {
      "midi": 65,
      "hit": false,
      "t": 20004.07004166662,
      "d": 410.5692083333306,
      "v": 32
    },
    {
      "midi": 50,
      "hit": false,
      "t": 20308.948166666618,
      "d": 768.2928749999883,
      "v": 38
    },
    {
      "midi": 67,
      "hit": false,
      "t": 20451.224624999948,
      "d": 101.62604166666642,
      "v": 30
    },
    {
      "midi": 60,
      "hit": false,
      "t": 20483.744958333282,
      "d": 231.70737499999814,
      "v": 29
    },
    {
      "midi": 68,
      "hit": false,
      "t": 20512.200249999947,
      "d": 52.84554166666567,
      "v": 34
    },
    {
      "midi": 69,
      "hit": false,
      "t": 20581.30595833328,
      "d": 36.58537499999875,
      "v": 58
    },
    {
      "midi": 74,
      "hit": false,
      "t": 20658.541749999946,
      "d": 126.0162916666668,
      "v": 87
    },
    {
      "midi": 68,
      "hit": false,
      "t": 20934.96458333328,
      "d": 40.65041666666366,
      "v": 60
    },
    {
      "midi": 60,
      "hit": false,
      "t": 20947.159708333278,
      "d": 32.5203333333302,
      "v": 36
    },
    {
      "midi": 67,
      "hit": false,
      "t": 21004.07029166661,
      "d": 52.84554166666567,
      "v": 33
    },
    {
      "midi": 65,
      "hit": false,
      "t": 21077.241041666606,
      "d": 81.3008333333346,
      "v": 43
    },
    {
      "midi": 62,
      "hit": false,
      "t": 21178.867083333273,
      "d": 28.45529166666529,
      "v": 33
    },
    {
      "midi": 65,
      "hit": false,
      "t": 21264.232958333272,
      "d": 65.04066666666404,
      "v": 60
    },
    {
      "midi": 67,
      "hit": false,
      "t": 21361.79395833327,
      "d": 77.23579166666605,
      "v": 58
    },
    {
      "midi": 50,
      "hit": false,
      "t": 21475.615124999935,
      "d": 138.21141666666517,
      "v": 46
    },
    {
      "midi": 65,
      "hit": false,
      "t": 21475.615124999935,
      "d": 142.27645833333008,
      "v": 51
    },
    {
      "midi": 43,
      "hit": false,
      "t": 21483.74520833327,
      "d": 121.95124999999825,
      "v": 43
    },
    {
      "midi": 62,
      "hit": false,
      "t": 21776.428208333266,
      "d": 341.463499999998,
      "v": 77
    },
    {
      "midi": 58,
      "hit": false,
      "t": 21776.428208333266,
      "d": 430.89441666666244,
      "v": 60
    },
    {
      "midi": 65,
      "hit": false,
      "t": 21776.428208333266,
      "d": 500.000124999995,
      "v": 81
    },
    {
      "midi": 69,
      "hit": false,
      "t": 21776.428208333266,
      "d": 504.06516666665993,
      "v": 82
    },
    {
      "midi": 60,
      "hit": false,
      "t": 21780.49324999993,
      "d": 373.98383333333186,
      "v": 67
    },
    {
      "midi": 72,
      "hit": false,
      "t": 21780.49324999993,
      "d": 569.1058333333276,
      "v": 76
    },
    {
      "midi": 70,
      "hit": false,
      "t": 22430.899916666593,
      "d": 182.92687499999738,
      "v": 57
    },
    {
      "midi": 57,
      "hit": false,
      "t": 22439.029999999926,
      "d": 130.0813333333317,
      "v": 47
    },
    {
      "midi": 67,
      "hit": false,
      "t": 22447.16008333326,
      "d": 134.14637499999662,
      "v": 38
    },
    {
      "midi": 62,
      "hit": false,
      "t": 22447.16008333326,
      "d": 223.57729166666468,
      "v": 31
    },
    {
      "midi": 62,
      "hit": false,
      "t": 22898.379708333257,
      "d": 126.0162916666668,
      "v": 59
    },
    {
      "midi": 34,
      "hit": false,
      "t": 23378.054624999924,
      "d": 73.17074999999386,
      "v": 52
    },
    {
      "midi": 55,
      "hit": false,
      "t": 23382.11966666659,
      "d": 24.39024999999674,
      "v": 52
    },
    {
      "midi": 64,
      "hit": false,
      "t": 23382.11966666659,
      "d": 65.04066666666404,
      "v": 51
    },
    {
      "midi": 60,
      "hit": false,
      "t": 23394.314791666588,
      "d": 20.32520833333183,
      "v": 44
    },
    {
      "midi": 46,
      "hit": false,
      "t": 23394.314791666588,
      "d": 60.97562499999549,
      "v": 26
    },
    {
      "midi": 67,
      "hit": false,
      "t": 23569.11158333325,
      "d": 40.6504166666673,
      "v": 32
    },
    {
      "midi": 72,
      "hit": false,
      "t": 23699.192916666587,
      "d": 81.3008333333346,
      "v": 58
    },
    {
      "midi": 79,
      "hit": false,
      "t": 23837.404333333256,
      "d": 52.84554166666567,
      "v": 74
    },
    {
      "midi": 84,
      "hit": false,
      "t": 24000.00599999992,
      "d": 20.32520833333183,
      "v": 65
    },
    {
      "midi": 88,
      "hit": false,
      "t": 24150.412541666585,
      "d": 52.84554166666567,
      "v": 83
    },
    {
      "midi": 67,
      "hit": false,
      "t": 24308.949166666585,
      "d": 40.65041666666366,
      "v": 57
    },
    {
      "midi": 91,
      "hit": false,
      "t": 24308.949166666585,
      "d": 44.71545833332857,
      "v": 87
    },
    {
      "midi": 56,
      "hit": false,
      "t": 24308.949166666585,
      "d": 56.91058333332694,
      "v": 54
    },
    {
      "midi": 62,
      "hit": false,
      "t": 24313.01420833325,
      "d": 40.65041666666366,
      "v": 54
    },
    {
      "midi": 79,
      "hit": false,
      "t": 24313.01420833325,
      "d": 40.65041666666366,
      "v": 76
    },
    {
      "midi": 67,
      "hit": false,
      "t": 24487.81099999991,
      "d": 142.27645833333008,
      "v": 60
    },
    {
      "midi": 56,
      "hit": false,
      "t": 24487.81099999991,
      "d": 150.40654166666354,
      "v": 69
    },
    {
      "midi": 91,
      "hit": false,
      "t": 24491.876041666575,
      "d": 134.14637500000026,
      "v": 83
    },
    {
      "midi": 79,
      "hit": false,
      "t": 24495.94108333324,
      "d": 113.82116666666843,
      "v": 72
    },
    {
      "midi": 62,
      "hit": false,
      "t": 24495.94108333324,
      "d": 142.27645833333372,
      "v": 46
    },
    {
      "midi": 56,
      "hit": false,
      "t": 24686.998041666575,
      "d": 349.59358333332784,
      "v": 59
    },
    {
      "midi": 67,
      "hit": false,
      "t": 24686.998041666575,
      "d": 548.7806249999921,
      "v": 54
    },
    {
      "midi": 62,
      "hit": false,
      "t": 24691.06308333324,
      "d": 540.6505416666623,
      "v": 70
    },
    {
      "midi": 88,
      "hit": false,
      "t": 24711.38829166657,
      "d": 495.9350833333301,
      "v": 38
    },
    {
      "midi": 76,
      "hit": false,
      "t": 24719.518374999905,
      "d": 451.2196249999979,
      "v": 46
    },
    {
      "midi": 86,
      "hit": false,
      "t": 24723.58341666657,
      "d": 89.43091666666442,
      "v": 36
    },
    {
      "midi": 56,
      "hit": false,
      "t": 25186.99816666657,
      "d": 126.01629166666316,
      "v": 38
    },
    {
      "midi": 89,
      "hit": false,
      "t": 25365.8599999999,
      "d": 113.82116666665752,
      "v": 68
    },
    {
      "midi": 81,
      "hit": false,
      "t": 25369.925041666564,
      "d": 121.95124999998734,
      "v": 45
    },
    {
      "midi": 65,
      "hit": false,
      "t": 25373.99008333323,
      "d": 85.36587499999587,
      "v": 50
    },
    {
      "midi": 55,
      "hit": false,
      "t": 25373.99008333323,
      "d": 109.75612499999261,
      "v": 58
    },
    {
      "midi": 77,
      "hit": false,
      "t": 25373.99008333323,
      "d": 134.14637499998935,
      "v": 45
    },
    {
      "midi": 61,
      "hit": false,
      "t": 25382.12016666656,
      "d": 105.6910833333277,
      "v": 51
    },
    {
      "midi": 45,
      "hit": false,
      "t": 25695.128374999884,
      "d": 65.04066666666768,
      "v": 66
    },
    {
      "midi": 64,
      "hit": false,
      "t": 26199.19354166655,
      "d": 56.91058333332694,
      "v": 62
    },
    {
      "midi": 45,
      "hit": false,
      "t": 26203.258583333216,
      "d": 691.057083333315,
      "v": 51
    },
    {
      "midi": 61,
      "hit": false,
      "t": 26207.32362499988,
      "d": 77.23579166666241,
      "v": 59
    },
    {
      "midi": 55,
      "hit": false,
      "t": 26207.32362499988,
      "d": 93.49595833332933,
      "v": 65
    },
    {
      "midi": 58,
      "hit": false,
      "t": 26211.388666666546,
      "d": 89.43091666666442,
      "v": 48
    },
    {
      "midi": 52,
      "hit": false,
      "t": 26223.583791666544,
      "d": 130.0813333333317,
      "v": 30
    },
    {
      "midi": 58,
      "hit": false,
      "t": 26382.12041666654,
      "d": 231.70737499999086,
      "v": 51
    },
    {
      "midi": 65,
      "hit": false,
      "t": 26386.185458333206,
      "d": 223.57729166666104,
      "v": 58
    },
    {
      "midi": 55,
      "hit": false,
      "t": 26390.25049999987,
      "d": 195.12199999999575,
      "v": 64
    },
    {
      "midi": 61,
      "hit": false,
      "t": 26390.25049999987,
      "d": 219.51224999999613,
      "v": 59
    },
    {
      "midi": 53,
      "hit": false,
      "t": 26394.315541666536,
      "d": 227.6423333333296,
      "v": 57
    },
    {
      "midi": 58,
      "hit": false,
      "t": 26829.274999999863,
      "d": 162.60166666666555,
      "v": 59
    },
    {
      "midi": 67,
      "hit": false,
      "t": 26829.274999999863,
      "d": 170.731749999999,
      "v": 53
    },
    {
      "midi": 61,
      "hit": false,
      "t": 26837.405083333197,
      "d": 174.79679166666392,
      "v": 60
    },
    {
      "midi": 64,
      "hit": false,
      "t": 26845.53516666653,
      "d": 142.27645833333372,
      "v": 43
    },
    {
      "midi": 55,
      "hit": false,
      "t": 26853.665249999864,
      "d": 109.75612499999988,
      "v": 49
    },
    {
      "midi": 69,
      "hit": false,
      "t": 27300.819833333193,
      "d": 154.47158333332845,
      "v": 69
    },
    {
      "midi": 64,
      "hit": false,
      "t": 27308.949916666526,
      "d": 97.56099999999788,
      "v": 46
    },
    {
      "midi": 65,
      "hit": false,
      "t": 27317.07999999986,
      "d": 126.01629166666316,
      "v": 51
    },
    {
      "midi": 61,
      "hit": false,
      "t": 27321.145041666525,
      "d": 138.21141666666153,
      "v": 51
    },
    {
      "midi": 60,
      "hit": false,
      "t": 27479.681666666518,
      "d": 243.90250000000015,
      "v": 58
    },
    {
      "midi": 76,
      "hit": false,
      "t": 27796.75491666652,
      "d": 272.3577916666618,
      "v": 67
    },
    {
      "midi": 69,
      "hit": false,
      "t": 27813.015083333186,
      "d": 243.9024999999965,
      "v": 59
    },
    {
      "midi": 65,
      "hit": false,
      "t": 27813.015083333186,
      "d": 268.29274999999325,
      "v": 47
    },
    {
      "midi": 59,
      "hit": false,
      "t": 27817.08012499985,
      "d": 930.8945416666647,
      "v": 54
    },
    {
      "midi": 60,
      "hit": false,
      "t": 28288.62495833318,
      "d": 479.67491666666683,
      "v": 51
    },
    {
      "midi": 65,
      "hit": false,
      "t": 28288.62495833318,
      "d": 532.5204583333325,
      "v": 57
    },
    {
      "midi": 57,
      "hit": false,
      "t": 28760.169791666514,
      "d": 65.04066666666404,
      "v": 50
    },
    {
      "midi": 50,
      "hit": false,
      "t": 29077.243041666512,
      "d": 247.96754166666142,
      "v": 47
    },
    {
      "midi": 69,
      "hit": false,
      "t": 29235.77966666651,
      "d": 150.40654166666354,
      "v": 66
    },
    {
      "midi": 64,
      "hit": false,
      "t": 29243.909749999842,
      "d": 97.56099999999788,
      "v": 64
    },
    {
      "midi": 43,
      "hit": false,
      "t": 29247.974791666507,
      "d": 52.84554166666567,
      "v": 55
    },
    {
      "midi": 73,
      "hit": false,
      "t": 29394.316291666506,
      "d": 44.71545833333221,
      "v": 57
    },
    {
      "midi": 83,
      "hit": false,
      "t": 29544.722833333173,
      "d": 40.65041666666366,
      "v": 60
    },
    {
      "midi": 88,
      "hit": false,
      "t": 29544.722833333173,
      "d": 126.01629166666316,
      "v": 81
    },
    {
      "midi": 81,
      "hit": false,
      "t": 29552.852916666507,
      "d": 20.32520833333183,
      "v": 64
    },
    {
      "midi": 81,
      "hit": false,
      "t": 29634.153749999838,
      "d": 105.6910833333277,
      "v": 20
    },
    {
      "midi": 85,
      "hit": false,
      "t": 29699.1944166665,
      "d": 97.56099999999788,
      "v": 39
    },
    {
      "midi": 76,
      "hit": false,
      "t": 29727.649708333167,
      "d": 81.30083333333096,
      "v": 25
    },
    {
      "midi": 64,
      "hit": false,
      "t": 29861.796083333164,
      "d": 65.04066666666404,
      "v": 46
    },
    {
      "midi": 59,
      "hit": false,
      "t": 29865.86112499983,
      "d": 52.84554166666567,
      "v": 51
    },
    {
      "midi": 76,
      "hit": false,
      "t": 29865.86112499983,
      "d": 52.84554166666567,
      "v": 45
    },
    {
      "midi": 81,
      "hit": false,
      "t": 29882.121291666495,
      "d": 36.58537499999875,
      "v": 36
    },
    {
      "midi": 53,
      "hit": false,
      "t": 29886.18633333316,
      "d": 44.71545833333221,
      "v": 30
    },
    {
      "midi": 64,
      "hit": false,
      "t": 30211.38966666649,
      "d": 97.56099999999424,
      "v": 39
    },
    {
      "midi": 59,
      "hit": false,
      "t": 30215.454708333156,
      "d": 101.62604166665915,
      "v": 47
    },
    {
      "midi": 76,
      "hit": false,
      "t": 30215.454708333156,
      "d": 109.75612499999261,
      "v": 34
    },
    {
      "midi": 81,
      "hit": false,
      "t": 30219.51974999982,
      "d": 121.95124999999462,
      "v": 53
    },
    {
      "midi": 53,
      "hit": false,
      "t": 30223.584791666486,
      "d": 89.43091666666442,
      "v": 38
    },
    {
      "midi": 76,
      "hit": false,
      "t": 30560.983249999816,
      "d": 73.17074999999386,
      "v": 51
    },
    {
      "midi": 59,
      "hit": false,
      "t": 30573.178374999814,
      "d": 81.30083333332732,
      "v": 49
    },
    {
      "midi": 81,
      "hit": false,
      "t": 30573.178374999814,
      "d": 89.43091666666078,
      "v": 57
    },
    {
      "midi": 64,
      "hit": false,
      "t": 30577.24341666648,
      "d": 52.84554166666567,
      "v": 33
    },
    {
      "midi": 53,
      "hit": false,
      "t": 30585.373499999812,
      "d": 52.84554166666203,
      "v": 35
    },
    {
      "midi": 53,
      "hit": false,
      "t": 30743.91012499981,
      "d": 121.95124999999825,
      "v": 68
    },
    {
      "midi": 59,
      "hit": false,
      "t": 30743.91012499981,
      "d": 154.4715833333321,
      "v": 73
    },
    {
      "midi": 64,
      "hit": false,
      "t": 30743.91012499981,
      "d": 166.66670833333046,
      "v": 71
    },
    {
      "midi": 86,
      "hit": false,
      "t": 30747.975166666474,
      "d": 158.53662500000064,
      "v": 65
    },
    {
      "midi": 74,
      "hit": false,
      "t": 30747.975166666474,
      "d": 166.66670833333046,
      "v": 74
    },
    {
      "midi": 84,
      "hit": false,
      "t": 30752.04020833314,
      "d": 48.78050000000076,
      "v": 71
    },
    {
      "midi": 74,
      "hit": false,
      "t": 31060.983374999803,
      "d": 52.84554166666203,
      "v": 62
    },
    {
      "midi": 86,
      "hit": false,
      "t": 31065.04841666647,
      "d": 60.97562499999549,
      "v": 54
    },
    {
      "midi": 64,
      "hit": false,
      "t": 31069.113458333133,
      "d": 60.97562499999549,
      "v": 32
    },
    {
      "midi": 59,
      "hit": false,
      "t": 31077.243541666467,
      "d": 28.45529166666529,
      "v": 34
    },
    {
      "midi": 88,
      "hit": false,
      "t": 31227.65008333313,
      "d": 199.1870416666643,
      "v": 85
    },
    {
      "midi": 67,
      "hit": false,
      "t": 31227.65008333313,
      "d": 203.2520833333292,
      "v": 80
    },
    {
      "midi": 56,
      "hit": false,
      "t": 31227.65008333313,
      "d": 207.31712499999412,
      "v": 80
    },
    {
      "midi": 76,
      "hit": false,
      "t": 31231.715124999795,
      "d": 182.92687500000102,
      "v": 83
    },
    {
      "midi": 84,
      "hit": false,
      "t": 31231.715124999795,
      "d": 195.1219999999994,
      "v": 85
    },
    {
      "midi": 62,
      "hit": false,
      "t": 31231.715124999795,
      "d": 215.44720833332758,
      "v": 74
    },
    {
      "midi": 76,
      "hit": false,
      "t": 31548.78837499979,
      "d": 109.75612499999625,
      "v": 59
    },
    {
      "midi": 88,
      "hit": false,
      "t": 31548.78837499979,
      "d": 121.95124999999462,
      "v": 59
    },
    {
      "midi": 84,
      "hit": false,
      "t": 31552.853416666454,
      "d": 121.95124999999462,
      "v": 61
    },
    {
      "midi": 56,
      "hit": false,
      "t": 31556.91845833312,
      "d": 130.08133333332808,
      "v": 68
    },
    {
      "midi": 67,
      "hit": false,
      "t": 31560.983499999784,
      "d": 113.8211666666648,
      "v": 62
    },
    {
      "midi": 62,
      "hit": false,
      "t": 31560.983499999784,
      "d": 134.14637499999662,
      "v": 71
    },
    {
      "midi": 56,
      "hit": false,
      "t": 31739.845333333113,
      "d": 109.75612499999261,
      "v": 47
    },
    {
      "midi": 67,
      "hit": false,
      "t": 31743.910374999778,
      "d": 105.6910833333277,
      "v": 39
    },
    {
      "midi": 76,
      "hit": false,
      "t": 31747.975416666442,
      "d": 60.97562499999913,
      "v": 58
    },
    {
      "midi": 88,
      "hit": false,
      "t": 31747.975416666442,
      "d": 97.56099999999788,
      "v": 60
    },
    {
      "midi": 84,
      "hit": false,
      "t": 31752.040458333107,
      "d": 65.04066666666768,
      "v": 54
    },
    {
      "midi": 62,
      "hit": false,
      "t": 31752.040458333107,
      "d": 73.17075000000114,
      "v": 67
    },
    {
      "midi": 68,
      "hit": false,
      "t": 32032.528333333106,
      "d": 105.6910833333277,
      "v": 74
    },
    {
      "midi": 57,
      "hit": false,
      "t": 32036.59337499977,
      "d": 81.30083333333096,
      "v": 66
    },
    {
      "midi": 89,
      "hit": false,
      "t": 32036.59337499977,
      "d": 81.30083333333096,
      "v": 73
    },
    {
      "midi": 63,
      "hit": false,
      "t": 32036.59337499977,
      "d": 138.2114166666579,
      "v": 59
    },
    {
      "midi": 85,
      "hit": false,
      "t": 32040.658416666436,
      "d": 121.95124999999462,
      "v": 71
    },
    {
      "midi": 77,
      "hit": false,
      "t": 32044.7234583331,
      "d": 97.56099999999788,
      "v": 68
    },
    {
      "midi": 88,
      "hit": false,
      "t": 32223.58529166643,
      "d": 65.04066666665676,
      "v": 61
    },
    {
      "midi": 67,
      "hit": false,
      "t": 32227.650333333095,
      "d": 32.5203333333302,
      "v": 36
    },
    {
      "midi": 62,
      "hit": false,
      "t": 32227.650333333095,
      "d": 56.91058333332694,
      "v": 55
    },
    {
      "midi": 76,
      "hit": false,
      "t": 32231.71537499976,
      "d": 69.10570833332531,
      "v": 38
    },
    {
      "midi": 56,
      "hit": false,
      "t": 32231.71537499976,
      "d": 101.62604166665915,
      "v": 46
    },
    {
      "midi": 84,
      "hit": false,
      "t": 32239.845458333093,
      "d": 32.5203333333302,
      "v": 47
    },
    {
      "midi": 74,
      "hit": false,
      "t": 32378.05687499975,
      "d": 28.45529166666529,
      "v": 32
    },
    {
      "midi": 86,
      "hit": false,
      "t": 32382.121916666416,
      "d": 40.6504166666673,
      "v": 32
    },
    {
      "midi": 67,
      "hit": false,
      "t": 32516.268291666416,
      "d": 154.47158333332845,
      "v": 63
    },
    {
      "midi": 88,
      "hit": false,
      "t": 32516.268291666416,
      "d": 162.6016666666619,
      "v": 72
    },
    {
      "midi": 76,
      "hit": false,
      "t": 32516.268291666416,
      "d": 215.44720833332758,
      "v": 64
    },
    {
      "midi": 62,
      "hit": false,
      "t": 32520.33333333308,
      "d": 170.73174999999537,
      "v": 56
    },
    {
      "midi": 56,
      "hit": false,
      "t": 32520.33333333308,
      "d": 203.2520833333292,
      "v": 56
    },
    {
      "midi": 84,
      "hit": false,
      "t": 32524.398374999746,
      "d": 182.92687499999738,
      "v": 64
    },
    {
      "midi": 46,
      "hit": false,
      "t": 33004.07329166641,
      "d": 81.3008333333346,
      "v": 52
    },
    {
      "midi": 45,
      "hit": false,
      "t": 33178.87008333308,
      "d": 418.69929166666407,
      "v": 47
    },
    {
      "midi": 86,
      "hit": false,
      "t": 34121.95974999974,
      "d": 174.79679166666756,
      "v": 88
    },
    {
      "midi": 74,
      "hit": false,
      "t": 34126.02479166641,
      "d": 166.66670833333046,
      "v": 91
    },
    {
      "midi": 60,
      "hit": false,
      "t": 34126.02479166641,
      "d": 182.92687499999738,
      "v": 75
    },
    {
      "midi": 65,
      "hit": false,
      "t": 34130.08983333308,
      "d": 170.731749999999,
      "v": 80
    },
    {
      "midi": 81,
      "hit": false,
      "t": 34130.08983333308,
      "d": 186.99191666666593,
      "v": 81
    },
    {
      "midi": 61,
      "hit": false,
      "t": 34130.08983333308,
      "d": 191.05695833333448,
      "v": 64
    },
    {
      "midi": 55,
      "hit": false,
      "t": 34134.154874999746,
      "d": 158.53662499999336,
      "v": 75
    },
    {
      "midi": 58,
      "hit": false,
      "t": 34142.284958333075,
      "d": 170.731749999999,
      "v": 46
    },
    {
      "midi": 65,
      "hit": false,
      "t": 34434.96795833308,
      "d": 48.78050000000076,
      "v": 66
    },
    {
      "midi": 61,
      "hit": false,
      "t": 34434.96795833308,
      "d": 85.36587500000314,
      "v": 54
    },
    {
      "midi": 60,
      "hit": false,
      "t": 34439.03299999975,
      "d": 52.845541666669305,
      "v": 57
    },
    {
      "midi": 76,
      "hit": false,
      "t": 34439.03299999975,
      "d": 52.845541666669305,
      "v": 66
    },
    {
      "midi": 88,
      "hit": false,
      "t": 34439.03299999975,
      "d": 77.23579166666605,
      "v": 76
    },
    {
      "midi": 81,
      "hit": false,
      "t": 34443.09804166642,
      "d": 44.71545833333221,
      "v": 67
    },
    {
      "midi": 55,
      "hit": false,
      "t": 34447.163083333086,
      "d": 28.45529166666529,
      "v": 51
    },
    {
      "midi": 58,
      "hit": false,
      "t": 34451.228124999754,
      "d": 36.58537499999511,
      "v": 35
    },
    {
      "midi": 61,
      "hit": false,
      "t": 34601.63466666642,
      "d": 146.341499999995,
      "v": 64
    },
    {
      "midi": 60,
      "hit": false,
      "t": 34605.699708333086,
      "d": 126.01629166665953,
      "v": 57
    },
    {
      "midi": 65,
      "hit": false,
      "t": 34605.699708333086,
      "d": 126.01629166665953,
      "v": 74
    },
    {
      "midi": 77,
      "hit": false,
      "t": 34609.764749999755,
      "d": 138.2114166666579,
      "v": 76
    },
    {
      "midi": 89,
      "hit": false,
      "t": 34609.764749999755,
      "d": 170.73174999999173,
      "v": 82
    },
    {
      "midi": 55,
      "hit": false,
      "t": 34617.894833333085,
      "d": 142.27645833332645,
      "v": 66
    },
    {
      "midi": 58,
      "hit": false,
      "t": 34630.08995833308,
      "d": 134.14637499999662,
      "v": 33
    },
    {
      "midi": 93,
      "hit": false,
      "t": 35097.56974999975,
      "d": 597.5611250000075,
      "v": 99
    },
    {
      "midi": 86,
      "hit": false,
      "t": 35101.634791666416,
      "d": 601.6261666666687,
      "v": 88
    },
    {
      "midi": 57,
      "hit": false,
      "t": 35101.634791666416,
      "d": 609.7562499999985,
      "v": 81
    },
    {
      "midi": 81,
      "hit": false,
      "t": 35101.634791666416,
      "d": 674.796916666659,
      "v": 92
    },
    {
      "midi": 58,
      "hit": false,
      "t": 35105.699833333085,
      "d": 613.8212916666598,
      "v": 70
    },
    {
      "midi": 62,
      "hit": false,
      "t": 35105.699833333085,
      "d": 630.0814583333267,
      "v": 82
    },
    {
      "midi": 52,
      "hit": false,
      "t": 35109.76487499975,
      "d": 593.4960833333316,
      "v": 78
    },
    {
      "midi": 67,
      "hit": false,
      "t": 36105.700083333075,
      "d": 780.4879999999903,
      "v": 70
    },
    {
      "midi": 62,
      "hit": false,
      "t": 36105.700083333075,
      "d": 837.3985833333209,
      "v": 72
    },
    {
      "midi": 56,
      "hit": false,
      "t": 36113.830166666405,
      "d": 914.6343749999942,
      "v": 68
    },
    {
      "midi": 65,
      "hit": false,
      "t": 37089.4401666664,
      "d": 451.2196250000052,
      "v": 58
    },
    {
      "midi": 55,
      "hit": false,
      "t": 37089.4401666664,
      "d": 500.00012499999866,
      "v": 61
    },
    {
      "midi": 61,
      "hit": false,
      "t": 37093.50520833307,
      "d": 487.8050000000003,
      "v": 56
    },
    {
      "midi": 79,
      "hit": false,
      "t": 37430.9036666664,
      "d": 150.40654166666354,
      "v": 101
    },
    {
      "midi": 77,
      "hit": false,
      "t": 37617.89558333306,
      "d": 280.4878749999989,
      "v": 64
    },
    {
      "midi": 45,
      "hit": false,
      "t": 37890.25337499973,
      "d": 24.39024999999674,
      "v": 58
    },
    {
      "midi": 69,
      "hit": false,
      "t": 38345.5380416664,
      "d": 182.9268749999901,
      "v": 55
    },
    {
      "midi": 61,
      "hit": false,
      "t": 38345.5380416664,
      "d": 402.4391249999826,
      "v": 43
    },
    {
      "midi": 65,
      "hit": false,
      "t": 38349.603083333066,
      "d": 138.2114166666579,
      "v": 43
    },
    {
      "midi": 55,
      "hit": false,
      "t": 38357.733166666396,
      "d": 361.78870833331894,
      "v": 50
    },
    {
      "midi": 72,
      "hit": false,
      "t": 38483.749458333055,
      "d": 69.10570833332895,
      "v": 60
    },
    {
      "midi": 76,
      "hit": false,
      "t": 38646.35112499972,
      "d": 81.30083333332732,
      "v": 72
    },
    {
      "midi": 79,
      "hit": false,
      "t": 38784.56254166638,
      "d": 69.10570833333622,
      "v": 83
    },
    {
      "midi": 77,
      "hit": false,
      "t": 38934.96908333305,
      "d": 77.23579166666605,
      "v": 67
    },
    {
      "midi": 69,
      "hit": false,
      "t": 38939.03412499972,
      "d": 89.43091666666442,
      "v": 46
    },
    {
      "midi": 50,
      "hit": false,
      "t": 38939.03412499972,
      "d": 1121.9514999999883,
      "v": 45
    },
    {
      "midi": 57,
      "hit": false,
      "t": 38955.29429166639,
      "d": 443.08954166665353,
      "v": 36
    },
    {
      "midi": 76,
      "hit": false,
      "t": 39134.15612499972,
      "d": 268.29274999999325,
      "v": 57
    },
    {
      "midi": 69,
      "hit": false,
      "t": 39146.351249999716,
      "d": 227.6423333333296,
      "v": 51
    },
    {
      "midi": 65,
      "hit": false,
      "t": 39146.351249999716,
      "d": 235.7724166666594,
      "v": 40
    },
    {
      "midi": 61,
      "hit": false,
      "t": 39154.481333333046,
      "d": 227.6423333333296,
      "v": 37
    },
    {
      "midi": 65,
      "hit": false,
      "t": 39447.16433333304,
      "d": 150.40654166666354,
      "v": 45
    },
    {
      "midi": 60,
      "hit": false,
      "t": 39451.22937499971,
      "d": 304.87812499999563,
      "v": 46
    },
    {
      "midi": 74,
      "hit": false,
      "t": 39455.29441666638,
      "d": 97.56099999999424,
      "v": 40
    },
    {
      "midi": 69,
      "hit": false,
      "t": 39463.42449999971,
      "d": 93.49595833333296,
      "v": 49
    },
    {
      "midi": 69,
      "hit": false,
      "t": 39792.69287499971,
      "d": 231.7073750000054,
      "v": 57
    },
    {
      "midi": 64,
      "hit": false,
      "t": 39792.69287499971,
      "d": 284.55291666666744,
      "v": 42
    },
    {
      "midi": 57,
      "hit": false,
      "t": 39813.018083333045,
      "d": 199.18704166667158,
      "v": 34
    },
    {
      "midi": 65,
      "hit": false,
      "t": 39813.018083333045,
      "d": 239.83745833333523,
      "v": 52
    },
    {
      "midi": 50,
      "hit": false,
      "t": 40308.953166666375,
      "d": 613.8212916666671,
      "v": 44
    },
    {
      "midi": 49,
      "hit": false,
      "t": 40313.018208333044,
      "d": 32.52033333333384,
      "v": 36
    },
    {
      "midi": 55,
      "hit": false,
      "t": 40479.684916666374,
      "d": 52.84554166666203,
      "v": 42
    },
    {
      "midi": 57,
      "hit": false,
      "t": 40491.88004166637,
      "d": 20.32520833332819,
      "v": 24
    },
    {
      "midi": 45,
      "hit": false,
      "t": 40800.82320833304,
      "d": 89.43091666667169,
      "v": 41
    },
    {
      "midi": 38,
      "hit": false,
      "t": 40967.489916666374,
      "d": 24.39024999999674,
      "v": 55
    },
    {
      "midi": 54,
      "hit": false,
      "t": 40975.619999999704,
      "d": 32.52033333333384,
      "v": 42
    },
    {
      "midi": 50,
      "hit": false,
      "t": 41329.27862499971,
      "d": 276.4228333333376,
      "v": 37
    },
    {
      "midi": 60,
      "hit": false,
      "t": 41475.62012499971,
      "d": 117.88620833333698,
      "v": 44
    },
    {
      "midi": 61,
      "hit": false,
      "t": 41634.15674999971,
      "d": 85.36587500000314,
      "v": 56
    },
    {
      "midi": 56,
      "hit": false,
      "t": 41987.815374999715,
      "d": 211.38216666667722,
      "v": 53
    },
    {
      "midi": 61,
      "hit": false,
      "t": 41995.945458333044,
      "d": 182.92687500001193,
      "v": 53
    },
    {
      "midi": 65,
      "hit": false,
      "t": 42000.01049999971,
      "d": 126.01629166667408,
      "v": 41
    },
    {
      "midi": 50,
      "hit": false,
      "t": 42000.01049999971,
      "d": 284.552916666682,
      "v": 36
    },
    {
      "midi": 67,
      "hit": false,
      "t": 42308.95366666639,
      "d": 89.43091666665714,
      "v": 63
    },
    {
      "midi": 58,
      "hit": false,
      "t": 42317.08374999972,
      "d": 101.62604166666279,
      "v": 60
    },
    {
      "midi": 61,
      "hit": false,
      "t": 42321.14879166639,
      "d": 101.62604166666279,
      "v": 58
    },
    {
      "midi": 52,
      "hit": false,
      "t": 42329.27887499972,
      "d": 158.53662500000064,
      "v": 60
    },
    {
      "midi": 64,
      "hit": false,
      "t": 42341.47399999972,
      "d": 73.1707499999975,
      "v": 34
    },
    {
      "midi": 60,
      "hit": false,
      "t": 42508.140708333056,
      "d": 56.9105833333233,
      "v": 58
    },
    {
      "midi": 65,
      "hit": false,
      "t": 42516.270791666386,
      "d": 56.91058333333058,
      "v": 31
    },
    {
      "midi": 69,
      "hit": false,
      "t": 42520.335833333054,
      "d": 60.97562499999185,
      "v": 40
    },
    {
      "midi": 62,
      "hit": false,
      "t": 42528.465916666384,
      "d": 28.45529166666529,
      "v": 38
    },
    {
      "midi": 53,
      "hit": false,
      "t": 42528.465916666384,
      "d": 40.65041666666366,
      "v": 40
    },
    {
      "midi": 72,
      "hit": false,
      "t": 42666.67733333304,
      "d": 24.390250000004016,
      "v": 73
    },
    {
      "midi": 54,
      "hit": false,
      "t": 42666.67733333304,
      "d": 203.25208333334012,
      "v": 63
    },
    {
      "midi": 44,
      "hit": false,
      "t": 42817.08387499971,
      "d": 73.17075000000477,
      "v": 49
    },
    {
      "midi": 43,
      "hit": false,
      "t": 42967.490416666384,
      "d": 28.45529166666529,
      "v": 54
    },
    {
      "midi": 62,
      "hit": false,
      "t": 43247.97829166638,
      "d": 357.72366666665766,
      "v": 40
    },
    {
      "midi": 60,
      "hit": false,
      "t": 43256.10837499971,
      "d": 260.1626666666634,
      "v": 55
    },
    {
      "midi": 58,
      "hit": false,
      "t": 43256.10837499971,
      "d": 378.04887499999313,
      "v": 31
    },
    {
      "midi": 69,
      "hit": false,
      "t": 43439.03524999971,
      "d": 52.845541666669305,
      "v": 35
    },
    {
      "midi": 70,
      "hit": false,
      "t": 43528.466166666374,
      "d": 36.58537500000239,
      "v": 64
    },
    {
      "midi": 74,
      "hit": false,
      "t": 43630.09220833304,
      "d": 60.97562499999913,
      "v": 79
    },
    {
      "midi": 77,
      "hit": false,
      "t": 43752.043458333035,
      "d": 73.1707499999975,
      "v": 90
    },
    {
      "midi": 62,
      "hit": false,
      "t": 43865.8646249997,
      "d": 345.52854166666657,
      "v": 49
    },
    {
      "midi": 84,
      "hit": false,
      "t": 43869.929666666365,
      "d": 126.0162916666668,
      "v": 95
    },
    {
      "midi": 57,
      "hit": false,
      "t": 43869.929666666365,
      "d": 369.9187916666633,
      "v": 42
    },
    {
      "midi": 58,
      "hit": false,
      "t": 43869.929666666365,
      "d": 418.69929166666407,
      "v": 44
    },
    {
      "midi": 82,
      "hit": false,
      "t": 44028.466291666366,
      "d": 565.0407916666591,
      "v": 53
    },
    {
      "midi": 62,
      "hit": false,
      "t": 44361.79970833303,
      "d": 369.9187916666633,
      "v": 35
    },
    {
      "midi": 58,
      "hit": false,
      "t": 44369.929791666356,
      "d": 422.7643333333326,
      "v": 14
    },
    {
      "midi": 55,
      "hit": false,
      "t": 44378.059874999686,
      "d": 292.68300000000454,
      "v": 42
    },
    {
      "midi": 53,
      "hit": false,
      "t": 44691.068083333026,
      "d": 73.1707499999975,
      "v": 45
    },
    {
      "midi": 58,
      "hit": false,
      "t": 44869.929916666355,
      "d": 235.7724166666667,
      "v": 27
    },
    {
      "midi": 69,
      "hit": false,
      "t": 44869.929916666355,
      "d": 235.7724166666667,
      "v": 51
    },
    {
      "midi": 62,
      "hit": false,
      "t": 44869.929916666355,
      "d": 243.9024999999965,
      "v": 38
    },
    {
      "midi": 81,
      "hit": false,
      "t": 44869.929916666355,
      "d": 252.03258333332633,
      "v": 46
    },
    {
      "midi": 73,
      "hit": false,
      "t": 44873.99495833302,
      "d": 308.9431666666569,
      "v": 43
    },
    {
      "midi": 52,
      "hit": false,
      "t": 44878.05999999969,
      "d": 195.12199999999575,
      "v": 50
    },
    {
      "midi": 76,
      "hit": false,
      "t": 44890.25512499969,
      "d": 272.3577916666545,
      "v": 50
    },
    {
      "midi": 81,
      "hit": false,
      "t": 45369.93004166635,
      "d": 219.51225000000704,
      "v": 85
    },
    {
      "midi": 70,
      "hit": false,
      "t": 45369.93004166635,
      "d": 223.5772916666756,
      "v": 87
    },
    {
      "midi": 73,
      "hit": false,
      "t": 45369.93004166635,
      "d": 223.5772916666756,
      "v": 79
    },
    {
      "midi": 69,
      "hit": false,
      "t": 45373.995083333015,
      "d": 219.51225000000704,
      "v": 74
    },
    {
      "midi": 76,
      "hit": false,
      "t": 45373.995083333015,
      "d": 227.64233333333686,
      "v": 74
    },
    {
      "midi": 79,
      "hit": false,
      "t": 45687.003291666355,
      "d": 85.36587499999587,
      "v": 66
    },
    {
      "midi": 70,
      "hit": false,
      "t": 45687.003291666355,
      "d": 142.27645833332645,
      "v": 75
    },
    {
      "midi": 67,
      "hit": false,
      "t": 45687.003291666355,
      "d": 158.53662499999336,
      "v": 61
    },
    {
      "midi": 76,
      "hit": false,
      "t": 45691.06833333302,
      "d": 89.43091666665714,
      "v": 60
    },
    {
      "midi": 73,
      "hit": false,
      "t": 45691.06833333302,
      "d": 113.82116666666116,
      "v": 67
    },
    {
      "midi": 77,
      "hit": false,
      "t": 46552.85716666635,
      "d": 48.78050000000076,
      "v": 54
    },
    {
      "midi": 79,
      "hit": false,
      "t": 46699.19866666635,
      "d": 36.58537500000239,
      "v": 65
    },
    {
      "midi": 81,
      "hit": false,
      "t": 46845.54016666635,
      "d": 182.92687499999738,
      "v": 56
    },
    {
      "midi": 64,
      "hit": false,
      "t": 46857.73529166635,
      "d": 89.43091666666442,
      "v": 19
    },
    {
      "midi": 74,
      "hit": false,
      "t": 46857.73529166635,
      "d": 191.05695833333448,
      "v": 43
    },
    {
      "midi": 76,
      "hit": false,
      "t": 46861.80033333302,
      "d": 191.05695833333448,
      "v": 42
    },
    {
      "midi": 69,
      "hit": false,
      "t": 46861.80033333302,
      "d": 207.3171250000014,
      "v": 34
    },
    {
      "midi": 60,
      "hit": false,
      "t": 46873.99545833302,
      "d": 73.1707499999975,
      "v": 28
    },
    {
      "midi": 48,
      "hit": false,
      "t": 47170.74349999969,
      "d": 77.23579166666605,
      "v": 41
    },
    {
      "midi": 51,
      "hit": false,
      "t": 47634.15824999969,
      "d": 126.01629166665953,
      "v": 43
    },
    {
      "midi": 56,
      "hit": false,
      "t": 47634.15824999969,
      "d": 142.27645833332645,
      "v": 48
    },
    {
      "midi": 61,
      "hit": false,
      "t": 47642.28833333302,
      "d": 121.95124999999825,
      "v": 52
    },
    {
      "midi": 67,
      "hit": false,
      "t": 47650.41841666635,
      "d": 48.78050000000076,
      "v": 26
    },
    {
      "midi": 55,
      "hit": false,
      "t": 47833.345291666345,
      "d": 231.70737499999814,
      "v": 60
    },
    {
      "midi": 60,
      "hit": false,
      "t": 47841.475374999674,
      "d": 272.3577916666691,
      "v": 45
    },
    {
      "midi": 50,
      "hit": false,
      "t": 47841.475374999674,
      "d": 284.55291666666744,
      "v": 38
    },
    {
      "midi": 65,
      "hit": false,
      "t": 47841.475374999674,
      "d": 321.13829166666983,
      "v": 36
    },
    {
      "midi": 41,
      "hit": false,
      "t": 48121.96324999967,
      "d": 207.3171250000014,
      "v": 66
    },
    {
      "midi": 69,
      "hit": false,
      "t": 48589.44304166634,
      "d": 138.21141666667245,
      "v": 78
    },
    {
      "midi": 40,
      "hit": false,
      "t": 48593.50808333301,
      "d": 101.62604166667006,
      "v": 69
    },
    {
      "midi": 58,
      "hit": false,
      "t": 48597.573124999675,
      "d": 69.10570833333622,
      "v": 74
    },
    {
      "midi": 62,
      "hit": false,
      "t": 48597.573124999675,
      "d": 93.49595833333296,
      "v": 74
    },
    {
      "midi": 64,
      "hit": false,
      "t": 48601.638166666344,
      "d": 121.95124999999825,
      "v": 69
    },
    {
      "midi": 52,
      "hit": false,
      "t": 48601.638166666344,
      "d": 126.0162916666668,
      "v": 76
    },
    {
      "midi": 57,
      "hit": false,
      "t": 49065.05291666635,
      "d": 357.7236666666722,
      "v": 68
    },
    {
      "midi": 81,
      "hit": false,
      "t": 49065.05291666635,
      "d": 410.56920833333425,
      "v": 82
    },
    {
      "midi": 62,
      "hit": false,
      "t": 49069.117958333016,
      "d": 390.2439999999988,
      "v": 75
    },
    {
      "midi": 76,
      "hit": false,
      "t": 49069.117958333016,
      "d": 422.7643333333326,
      "v": 83
    },
    {
      "midi": 69,
      "hit": false,
      "t": 49073.182999999684,
      "d": 361.7887083333335,
      "v": 78
    },
    {
      "midi": 58,
      "hit": false,
      "t": 49073.182999999684,
      "d": 373.98383333333186,
      "v": 58
    },
    {
      "midi": 83,
      "hit": false,
      "t": 49715.45958333302,
      "d": 150.40654166666354,
      "v": 59
    },
    {
      "midi": 55,
      "hit": false,
      "t": 49719.524624999685,
      "d": 65.04066666666768,
      "v": 49
    },
    {
      "midi": 65,
      "hit": false,
      "t": 49723.589666666354,
      "d": 44.71545833333221,
      "v": 32
    },
    {
      "midi": 61,
      "hit": false,
      "t": 49723.589666666354,
      "d": 93.49595833332569,
      "v": 47
    },
    {
      "midi": 76,
      "hit": false,
      "t": 49723.589666666354,
      "d": 97.56099999999424,
      "v": 50
    },
    {
      "midi": 71,
      "hit": false,
      "t": 49731.719749999684,
      "d": 77.23579166666605,
      "v": 35
    },
    {
      "midi": 66,
      "hit": false,
      "t": 50199.19954166635,
      "d": 81.3008333333346,
      "v": 44
    },
    {
      "midi": 61,
      "hit": false,
      "t": 50203.26458333302,
      "d": 97.56099999999424,
      "v": 43
    },
    {
      "midi": 85,
      "hit": false,
      "t": 50207.329624999686,
      "d": 138.2114166666579,
      "v": 57
    },
    {
      "midi": 55,
      "hit": false,
      "t": 50211.394666666354,
      "d": 77.23579166665877,
      "v": 47
    },
    {
      "midi": 73,
      "hit": false,
      "t": 50219.524749999684,
      "d": 105.69108333332406,
      "v": 37
    },
    {
      "midi": 80,
      "hit": false,
      "t": 50227.654833333014,
      "d": 126.01629166665953,
      "v": 42
    },
    {
      "midi": 88,
      "hit": false,
      "t": 50691.06958333301,
      "d": 134.1463750000039,
      "v": 78
    },
    {
      "midi": 50,
      "hit": false,
      "t": 50695.13462499968,
      "d": 1593.4963333333362,
      "v": 53
    },
    {
      "midi": 81,
      "hit": false,
      "t": 50703.26470833301,
      "d": 150.40654166667082,
      "v": 66
    },
    {
      "midi": 76,
      "hit": false,
      "t": 50703.26470833301,
      "d": 186.9919166666732,
      "v": 49
    },
    {
      "midi": 61,
      "hit": false,
      "t": 50707.32974999968,
      "d": 353.65862500000367,
      "v": 57
    },
    {
      "midi": 65,
      "hit": false,
      "t": 51207.32987499968,
      "d": 239.83745833333523,
      "v": 46
    },
    {
      "midi": 69,
      "hit": false,
      "t": 51219.52499999968,
      "d": 227.64233333333686,
      "v": 46
    },
    {
      "midi": 60,
      "hit": false,
      "t": 51219.52499999968,
      "d": 288.617958333336,
      "v": 35
    },
    {
      "midi": 76,
      "hit": false,
      "t": 51512.207999999686,
      "d": 121.95125000000553,
      "v": 59
    },
    {
      "midi": 69,
      "hit": false,
      "t": 51516.273041666354,
      "d": 170.7317500000063,
      "v": 72
    },
    {
      "midi": 65,
      "hit": false,
      "t": 51516.273041666354,
      "d": 174.79679166667484,
      "v": 40
    },
    {
      "midi": 57,
      "hit": false,
      "t": 51516.273041666354,
      "d": 394.3090416666746,
      "v": 44
    },
    {
      "midi": 74,
      "hit": false,
      "t": 51890.25687499969,
      "d": 81.30083333332732,
      "v": 79
    },
    {
      "midi": 65,
      "hit": false,
      "t": 51910.58208333303,
      "d": 48.78049999999348,
      "v": 55
    },
    {
      "midi": 60,
      "hit": false,
      "t": 51922.77720833303,
      "d": 24.39024999999674,
      "v": 32
    },
    {
      "midi": 68,
      "hit": false,
      "t": 52044.72845833302,
      "d": 105.69108333333133,
      "v": 80
    },
    {
      "midi": 69,
      "hit": false,
      "t": 52195.13499999968,
      "d": 93.49595833333296,
      "v": 62
    },
    {
      "midi": 60,
      "hit": false,
      "t": 52199.20004166635,
      "d": 28.45529166666529,
      "v": 49
    },
    {
      "midi": 65,
      "hit": false,
      "t": 52353.67162499968,
      "d": 97.56100000000151,
      "v": 52
    },
    {
      "midi": 62,
      "hit": false,
      "t": 52491.88304166635,
      "d": 142.27645833332645,
      "v": 51
    },
    {
      "midi": 54,
      "hit": false,
      "t": 52516.273291666344,
      "d": 56.91058333333058,
      "v": 33
    },
    {
      "midi": 44,
      "hit": false,
      "t": 52516.273291666344,
      "d": 73.1707499999975,
      "v": 44
    },
    {
      "midi": 53,
      "hit": false,
      "t": 52682.939999999675,
      "d": 182.92687499999738,
      "v": 41
    },
    {
      "midi": 43,
      "hit": false,
      "t": 52695.13512499967,
      "d": 142.27645833333372,
      "v": 35
    },
    {
      "midi": 56,
      "hit": false,
      "t": 52979.68804166634,
      "d": 48.78050000000076,
      "v": 37
    },
    {
      "midi": 57,
      "hit": false,
      "t": 53004.07829166634,
      "d": 552.8456666666607,
      "v": 54
    },
    {
      "midi": 72,
      "hit": false,
      "t": 53008.143333333006,
      "d": 508.1302083333285,
      "v": 69
    },
    {
      "midi": 62,
      "hit": false,
      "t": 53012.208374999675,
      "d": 504.06516666665993,
      "v": 71
    },
    {
      "midi": 69,
      "hit": false,
      "t": 53016.27341666634,
      "d": 471.5448333333261,
      "v": 66
    },
    {
      "midi": 65,
      "hit": false,
      "t": 53016.27341666634,
      "d": 495.93508333332284,
      "v": 70
    },
    {
      "midi": 70,
      "hit": false,
      "t": 53658.54999999967,
      "d": 199.1870416666643,
      "v": 51
    },
    {
      "midi": 55,
      "hit": false,
      "t": 53666.680083333,
      "d": 174.79679166666756,
      "v": 46
    },
    {
      "midi": 62,
      "hit": false,
      "t": 53670.74512499967,
      "d": 142.27645833333372,
      "v": 32
    },
    {
      "midi": 65,
      "hit": false,
      "t": 53682.940249999665,
      "d": 130.08133333333535,
      "v": 33
    },
    {
      "midi": 50,
      "hit": false,
      "t": 54142.289958333,
      "d": 89.43091666667169,
      "v": 43
    },
    {
      "midi": 62,
      "hit": false,
      "t": 54142.289958333,
      "d": 231.7073750000054,
      "v": 43
    },
    {
      "midi": 60,
      "hit": false,
      "t": 54634.15999999967,
      "d": 256.09762500000215,
      "v": 47
    },
    {
      "midi": 64,
      "hit": false,
      "t": 54638.22504166634,
      "d": 256.09762500000215,
      "v": 55
    },
    {
      "midi": 28,
      "hit": false,
      "t": 54926.84299999967,
      "d": 20.325208333335468,
      "v": 53
    },
    {
      "midi": 56,
      "hit": false,
      "t": 55187.005666666344,
      "d": 707.3172499999928,
      "v": 67
    },
    {
      "midi": 76,
      "hit": false,
      "t": 55195.135749999674,
      "d": 154.47158333333937,
      "v": 74
    },
    {
      "midi": 67,
      "hit": false,
      "t": 55199.20079166634,
      "d": 73.17075000000477,
      "v": 67
    },
    {
      "midi": 72,
      "hit": false,
      "t": 55203.26583333301,
      "d": 109.75612499999988,
      "v": 71
    },
    {
      "midi": 84,
      "hit": false,
      "t": 55471.55858333301,
      "d": 191.05695833333448,
      "v": 76
    },
    {
      "midi": 91,
      "hit": false,
      "t": 55471.55858333301,
      "d": 223.57729166666832,
      "v": 77
    },
    {
      "midi": 62,
      "hit": false,
      "t": 55475.62362499968,
      "d": 601.6261666666614,
      "v": 42
    },
    {
      "midi": 88,
      "hit": false,
      "t": 55735.78629166634,
      "d": 60.97562499999185,
      "v": 55
    },
    {
      "midi": 79,
      "hit": false,
      "t": 55739.85133333301,
      "d": 48.78049999999348,
      "v": 44
    },
    {
      "midi": 67,
      "hit": false,
      "t": 55739.85133333301,
      "d": 317.073249999994,
      "v": 41
    },
    {
      "midi": 84,
      "hit": false,
      "t": 55747.98141666634,
      "d": 24.39024999999674,
      "v": 24
    },
    {
      "midi": 56,
      "hit": false,
      "t": 56060.989624999675,
      "d": 69.10570833333622,
      "v": 46
    },
    {
      "midi": 45,
      "hit": false,
      "t": 56386.19295833301,
      "d": 101.62604166667006,
      "v": 59
    },
    {
      "midi": 52,
      "hit": false,
      "t": 56386.19295833301,
      "d": 126.0162916666668,
      "v": 51
    },
    {
      "midi": 60,
      "hit": false,
      "t": 56873.99795833301,
      "d": 300.81308333333436,
      "v": 35
    },
    {
      "midi": 65,
      "hit": false,
      "t": 56878.06299999968,
      "d": 186.99191666666593,
      "v": 43
    },
    {
      "midi": 61,
      "hit": false,
      "t": 56882.12804166635,
      "d": 272.3577916666618,
      "v": 34
    },
    {
      "midi": 55,
      "hit": false,
      "t": 56906.51829166635,
      "d": 634.1464999999953,
      "v": 34
    },
    {
      "midi": 64,
      "hit": false,
      "t": 57373.99808333301,
      "d": 56.91058333333058,
      "v": 65
    },
    {
      "midi": 76,
      "hit": false,
      "t": 57373.99808333301,
      "d": 77.23579166666605,
      "v": 62
    },
    {
      "midi": 65,
      "hit": false,
      "t": 57556.92495833301,
      "d": 24.39024999999674,
      "v": 56
    },
    {
      "midi": 77,
      "hit": false,
      "t": 57556.92495833301,
      "d": 32.52033333332656,
      "v": 57
    },
    {
      "midi": 65,
      "hit": false,
      "t": 57873.998208333,
      "d": 52.845541666669305,
      "v": 58
    },
    {
      "midi": 77,
      "hit": false,
      "t": 57873.998208333,
      "d": 60.97562499999913,
      "v": 64
    },
    {
      "midi": 79,
      "hit": false,
      "t": 58040.664916666334,
      "d": 170.7317500000063,
      "v": 61
    },
    {
      "midi": 67,
      "hit": false,
      "t": 58044.729958333,
      "d": 130.08133333333535,
      "v": 53
    },
    {
      "midi": 81,
      "hit": false,
      "t": 58532.53495833301,
      "d": 191.05695833334175,
      "v": 60
    },
    {
      "midi": 69,
      "hit": false,
      "t": 58536.59999999968,
      "d": 199.18704166667158,
      "v": 58
    },
    {
      "midi": 57,
      "hit": false,
      "t": 58540.66504166635,
      "d": 203.25208333333285,
      "v": 31
    },
    {
      "midi": 77,
      "hit": false,
      "t": 58540.66504166635,
      "d": 203.25208333333285,
      "v": 45
    },
    {
      "midi": 60,
      "hit": false,
      "t": 58540.66504166635,
      "d": 207.3171250000014,
      "v": 38
    },
    {
      "midi": 50,
      "hit": false,
      "t": 58544.730083333016,
      "d": 235.7724166666667,
      "v": 38
    },
    {
      "midi": 73,
      "hit": false,
      "t": 59508.14495833302,
      "d": 434.95945833333826,
      "v": 87
    },
    {
      "midi": 68,
      "hit": false,
      "t": 59512.209999999686,
      "d": 410.5692083333415,
      "v": 75
    },
    {
      "midi": 57,
      "hit": false,
      "t": 59516.275041666355,
      "d": 386.1789583333375,
      "v": 68
    },
    {
      "midi": 63,
      "hit": false,
      "t": 59516.275041666355,
      "d": 418.69929166667134,
      "v": 62
    },
    {
      "midi": 68,
      "hit": false,
      "t": 60000.014999999694,
      "d": 321.13829166666255,
      "v": 73
    },
    {
      "midi": 57,
      "hit": false,
      "t": 60004.08004166636,
      "d": 304.87812499999563,
      "v": 62
    },
    {
      "midi": 63,
      "hit": false,
      "t": 60004.08004166636,
      "d": 422.76433333332534,
      "v": 50
    },
    {
      "midi": 74,
      "hit": false,
      "t": 60008.14508333303,
      "d": 211.38216666666267,
      "v": 89
    },
    {
      "midi": 77,
      "hit": false,
      "t": 60487.81999999969,
      "d": 552.845666666668,
      "v": 80
    },
    {
      "midi": 74,
      "hit": false,
      "t": 60487.81999999969,
      "d": 597.5611250000002,
      "v": 84
    },
    {
      "midi": 67,
      "hit": false,
      "t": 60491.885041666355,
      "d": 491.87004166666884,
      "v": 65
    },
    {
      "midi": 62,
      "hit": false,
      "t": 60491.885041666355,
      "d": 516.2602916666656,
      "v": 55
    },
    {
      "midi": 56,
      "hit": false,
      "t": 60491.885041666355,
      "d": 597.5611250000002,
      "v": 62
    },
    {
      "midi": 76,
      "hit": false,
      "t": 61292.69824999969,
      "d": 150.40654166667082,
      "v": 63
    },
    {
      "midi": 65,
      "hit": false,
      "t": 61300.82833333302,
      "d": 243.90250000001106,
      "v": 42
    },
    {
      "midi": 61,
      "hit": false,
      "t": 61300.82833333302,
      "d": 463.41475000000355,
      "v": 39
    },
    {
      "midi": 55,
      "hit": false,
      "t": 61300.82833333302,
      "d": 520.3253333333341,
      "v": 48
    },
    {
      "midi": 67,
      "hit": false,
      "t": 61304.89337499969,
      "d": 126.01629166667408,
      "v": 46
    },
    {
      "midi": 73,
      "hit": false,
      "t": 61304.89337499969,
      "d": 134.1463750000039,
      "v": 52
    },
    {
      "midi": 70,
      "hit": false,
      "t": 61308.958416666355,
      "d": 134.1463750000039,
      "v": 53
    },
    {
      "midi": 74,
      "hit": false,
      "t": 61650.42191666636,
      "d": 89.43091666666442,
      "v": 89
    },
    {
      "midi": 68,
      "hit": false,
      "t": 61776.43820833302,
      "d": 126.0162916666668,
      "v": 75
    },
    {
      "midi": 67,
      "hit": false,
      "t": 61930.90979166635,
      "d": 117.8862083333297,
      "v": 52
    },
    {
      "midi": 62,
      "hit": false,
      "t": 62097.57649999968,
      "d": 73.1707499999975,
      "v": 37
    },
    {
      "midi": 67,
      "hit": false,
      "t": 62235.78791666635,
      "d": 130.08133333333535,
      "v": 64
    },
    {
      "midi": 26,
      "hit": false,
      "t": 62398.38958333302,
      "d": 105.69108333333133,
      "v": 54
    },
    {
      "midi": 38,
      "hit": false,
      "t": 62398.38958333302,
      "d": 109.75612499999988,
      "v": 51
    },
    {
      "midi": 65,
      "hit": false,
      "t": 62410.584708333015,
      "d": 32.52033333333384,
      "v": 69
    },
    {
      "midi": 56,
      "hit": false,
      "t": 62918.71491666635,
      "d": 162.6016666666692,
      "v": 57
    },
    {
      "midi": 55,
      "hit": false,
      "t": 63386.19470833302,
      "d": 150.40654166666354,
      "v": 80
    },
    {
      "midi": 56,
      "hit": false,
      "t": 63560.99149999968,
      "d": 134.1463750000039,
      "v": 42
    },
    {
      "midi": 55,
      "hit": false,
      "t": 63642.29233333302,
      "d": 93.49595833333296,
      "v": 41
    },
    {
      "midi": 53,
      "hit": false,
      "t": 63756.11349999969,
      "d": 65.04066666666768,
      "v": 62
    },
    {
      "midi": 52,
      "hit": false,
      "t": 63890.25987499969,
      "d": 284.55291666666744,
      "v": 58
    },
    {
      "midi": 55,
      "hit": false,
      "t": 64207.33312499969,
      "d": 105.69108333333133,
      "v": 64
    },
    {
      "midi": 53,
      "hit": false,
      "t": 64365.86974999969,
      "d": 296.7480416666658,
      "v": 41
    },
    {
      "midi": 50,
      "hit": false,
      "t": 64674.81291666636,
      "d": 1686.9922916666692,
      "v": 44
    },
    {
      "midi": 44,
      "hit": false,
      "t": 66195.1384999997,
      "d": 121.95124999999825,
      "v": 64
    },
    {
      "midi": 45,
      "hit": false,
      "t": 66365.87024999969,
      "d": 593.4960833333316,
      "v": 47
    },
    {
      "midi": 69,
      "hit": false,
      "t": 66853.67524999968,
      "d": 573.1708749999962,
      "v": 52
    },
    {
      "midi": 58,
      "hit": false,
      "t": 66853.67524999968,
      "d": 577.2359166666574,
      "v": 53
    },
    {
      "midi": 62,
      "hit": false,
      "t": 66861.80533333302,
      "d": 487.804999999993,
      "v": 50
    },
    {
      "midi": 64,
      "hit": false,
      "t": 66869.93541666635,
      "d": 569.1058333333203,
      "v": 50
    },
    {
      "midi": 57,
      "hit": false,
      "t": 67182.94362499968,
      "d": 845.5286666666361,
      "v": 88
    },
    {
      "midi": 58,
      "hit": false,
      "t": 67487.82174999967,
      "d": 215.44720833332394,
      "v": 44
    },
    {
      "midi": 69,
      "hit": false,
      "t": 67495.951833333,
      "d": 243.90249999998196,
      "v": 53
    },
    {
      "midi": 62,
      "hit": false,
      "t": 67500.01687499967,
      "d": 178.86183333332883,
      "v": 48
    },
    {
      "midi": 64,
      "hit": false,
      "t": 67512.21199999966,
      "d": 211.38216666666267,
      "v": 27
    },
    {
      "midi": 45,
      "hit": false,
      "t": 67821.15516666631,
      "d": 581.3009583333333,
      "v": 47
    },
    {
      "midi": 61,
      "hit": false,
      "t": 68113.83816666632,
      "d": 199.18704166667885,
      "v": 59
    },
    {
      "midi": 70,
      "hit": false,
      "t": 68113.83816666632,
      "d": 252.0325833333336,
      "v": 60
    },
    {
      "midi": 66,
      "hit": false,
      "t": 68121.96824999966,
      "d": 239.83745833333523,
      "v": 56
    },
    {
      "midi": 55,
      "hit": false,
      "t": 68130.098333333,
      "d": 630.0814583333267,
      "v": 45
    },
    {
      "midi": 45,
      "hit": false,
      "t": 68605.70820833299,
      "d": 117.88620833333698,
      "v": 65
    },
    {
      "midi": 84,
      "hit": false,
      "t": 68800.83020833299,
      "d": 215.4472083333385,
      "v": 110
    },
    {
      "midi": 60,
      "hit": false,
      "t": 69085.38312499966,
      "d": 235.7724166666594,
      "v": 51
    },
    {
      "midi": 65,
      "hit": false,
      "t": 69089.44816666632,
      "d": 215.4472083333385,
      "v": 66
    },
    {
      "midi": 61,
      "hit": false,
      "t": 69089.44816666632,
      "d": 243.9024999999965,
      "v": 51
    },
    {
      "midi": 82,
      "hit": false,
      "t": 69097.57824999966,
      "d": 182.92687500000466,
      "v": 82
    },
    {
      "midi": 55,
      "hit": false,
      "t": 69105.708333333,
      "d": 252.03258333331905,
      "v": 51
    },
    {
      "midi": 81,
      "hit": false,
      "t": 69333.35066666632,
      "d": 191.0569583333272,
      "v": 62
    },
    {
      "midi": 52,
      "hit": false,
      "t": 69569.12308333298,
      "d": 73.17074999999022,
      "v": 58
    },
    {
      "midi": 45,
      "hit": false,
      "t": 69577.25316666631,
      "d": 81.30083333331277,
      "v": 49
    },
    {
      "midi": 77,
      "hit": false,
      "t": 69593.51333333297,
      "d": 146.34149999998044,
      "v": 60
    },
    {
      "midi": 73,
      "hit": false,
      "t": 69784.57029166628,
      "d": 101.62604166666279,
      "v": 50
    },
    {
      "midi": 76,
      "hit": false,
      "t": 70073.18824999961,
      "d": 142.27645833333372,
      "v": 89
    },
    {
      "midi": 38,
      "hit": false,
      "t": 70211.39966666629,
      "d": 146.34149999998044,
      "v": 40
    },
    {
      "midi": 45,
      "hit": false,
      "t": 70227.65983333295,
      "d": 146.34149999998044,
      "v": 29
    },
    {
      "midi": 53,
      "hit": false,
      "t": 70239.85495833294,
      "d": 191.05695833331265,
      "v": 44
    },
    {
      "midi": 74,
      "hit": false,
      "t": 70264.24520833294,
      "d": 89.43091666666442,
      "v": 60
    },
    {
      "midi": 69,
      "hit": false,
      "t": 70394.32654166626,
      "d": 77.23579166666605,
      "v": 53
    },
    {
      "midi": 68,
      "hit": false,
      "t": 70548.7981249996,
      "d": 117.88620833333698,
      "v": 74
    },
    {
      "midi": 74,
      "hit": false,
      "t": 70548.7981249996,
      "d": 215.44720833332394,
      "v": 66
    },
    {
      "midi": 67,
      "hit": false,
      "t": 70695.13962499959,
      "d": 117.88620833332243,
      "v": 40
    },
    {
      "midi": 65,
      "hit": false,
      "t": 70837.41608333291,
      "d": 101.62604166666279,
      "v": 47
    },
    {
      "midi": 64,
      "hit": false,
      "t": 70987.82262499956,
      "d": 101.62604166666279,
      "v": 54
    },
    {
      "midi": 67,
      "hit": false,
      "t": 71113.83891666622,
      "d": 89.43091666666442,
      "v": 64
    },
    {
      "midi": 60,
      "hit": false,
      "t": 71207.33487499955,
      "d": 65.04066666665312,
      "v": 37
    },
    {
      "midi": 57,
      "hit": false,
      "t": 71227.66008333288,
      "d": 56.910583333316026,
      "v": 31
    },
    {
      "midi": 50,
      "hit": false,
      "t": 71231.72512499955,
      "d": 93.49595833332569,
      "v": 30
    },
    {
      "midi": 53,
      "hit": false,
      "t": 71243.92024999954,
      "d": 36.58537499999511,
      "v": 33
    },
    {
      "midi": 65,
      "hit": false,
      "t": 71247.9852916662,
      "d": 97.56100000000151,
      "v": 57
    },
    {
      "midi": 59,
      "hit": false,
      "t": 71382.1316666662,
      "d": 995.9352083333215,
      "v": 45
    },
    {
      "midi": 50,
      "hit": false,
      "t": 71699.2049166662,
      "d": 24.39024999999674,
      "v": 33
    },
    {
      "midi": 45,
      "hit": false,
      "t": 72020.34320833287,
      "d": 24.39024999999674,
      "v": 52
    },
    {
      "midi": 38,
      "hit": false,
      "t": 72178.87983333286,
      "d": 24.39024999999674,
      "v": 53
    },
    {
      "midi": 60,
      "hit": false,
      "t": 72495.95308333286,
      "d": 483.7399583333463,
      "v": 54
    },
    {
      "midi": 54,
      "hit": false,
      "t": 72516.2782916662,
      "d": 443.08954166667536,
      "v": 37
    },
    {
      "midi": 50,
      "hit": false,
      "t": 72524.40837499953,
      "d": 414.6342500000028,
      "v": 36
    },
    {
      "midi": 62,
      "hit": false,
      "t": 72674.81491666619,
      "d": 77.23579166666605,
      "v": 57
    },
    {
      "midi": 63,
      "hit": false,
      "t": 72788.63608333285,
      "d": 60.9756250000064,
      "v": 60
    },
    {
      "midi": 65,
      "hit": false,
      "t": 72910.58733333286,
      "d": 73.17075000000477,
      "v": 57
    },
    {
      "midi": 66,
      "hit": false,
      "t": 73032.53858333286,
      "d": 89.43091666666442,
      "v": 64
    },
    {
      "midi": 68,
      "hit": false,
      "t": 73154.48983333286,
      "d": 48.78049999999348,
      "v": 60
    },
    {
      "midi": 60,
      "hit": false,
      "t": 73166.68495833286,
      "d": 134.14637499999662,
      "v": 37
    },
    {
      "midi": 54,
      "hit": false,
      "t": 73166.68495833286,
      "d": 178.86183333332883,
      "v": 34
    },
    {
      "midi": 75,
      "hit": false,
      "t": 73398.39233333286,
      "d": 77.23579166666605,
      "v": 64
    },
    {
      "midi": 77,
      "hit": false,
      "t": 73512.21349999952,
      "d": 77.23579166666605,
      "v": 69
    },
    {
      "midi": 80,
      "hit": false,
      "t": 73621.96962499952,
      "d": 81.30083333332732,
      "v": 69
    },
    {
      "midi": 60,
      "hit": false,
      "t": 73626.03466666618,
      "d": 24.39024999999674,
      "v": 52
    },
    {
      "midi": 54,
      "hit": false,
      "t": 73638.22979166618,
      "d": 65.04066666666768,
      "v": 35
    },
    {
      "midi": 50,
      "hit": false,
      "t": 73646.35987499951,
      "d": 60.97562499999185,
      "v": 34
    },
    {
      "midi": 82,
      "hit": false,
      "t": 73756.1159999995,
      "d": 56.91058333333058,
      "v": 59
    },
    {
      "midi": 84,
      "hit": false,
      "t": 73869.93716666616,
      "d": 69.10570833332895,
      "v": 74
    },
    {
      "midi": 86,
      "hit": false,
      "t": 73991.88841666616,
      "d": 81.30083333332732,
      "v": 88
    },
    {
      "midi": 43,
      "hit": false,
      "t": 74101.64454166616,
      "d": 73.17074999999022,
      "v": 53
    },
    {
      "midi": 84,
      "hit": false,
      "t": 74109.77462499948,
      "d": 81.30083333334187,
      "v": 77
    },
    {
      "midi": 50,
      "hit": false,
      "t": 74109.77462499948,
      "d": 89.43091666667897,
      "v": 42
    },
    {
      "midi": 81,
      "hit": false,
      "t": 74239.85595833283,
      "d": 69.10570833332895,
      "v": 71
    },
    {
      "midi": 77,
      "hit": false,
      "t": 74361.80720833283,
      "d": 69.10570833332895,
      "v": 55
    },
    {
      "midi": 74,
      "hit": false,
      "t": 74475.62837499949,
      "d": 69.10570833332895,
      "v": 49
    },
    {
      "midi": 62,
      "hit": false,
      "t": 74597.57962499949,
      "d": 329.26837499997055,
      "v": 33
    },
    {
      "midi": 58,
      "hit": false,
      "t": 74609.77474999949,
      "d": 357.7236666666431,
      "v": 31
    },
    {
      "midi": 60,
      "hit": false,
      "t": 74617.90483333281,
      "d": 162.60166666665464,
      "v": 29
    },
    {
      "midi": 70,
      "hit": false,
      "t": 74621.96987499947,
      "d": 113.82116666666116,
      "v": 30
    },
    {
      "midi": 69,
      "hit": false,
      "t": 74752.05120833279,
      "d": 32.52033333333384,
      "v": 31
    },
    {
      "midi": 74,
      "hit": false,
      "t": 74853.67724999945,
      "d": 105.69108333333861,
      "v": 84
    },
    {
      "midi": 72,
      "hit": false,
      "t": 74991.88866666613,
      "d": 73.17075000000477,
      "v": 65
    },
    {
      "midi": 62,
      "hit": false,
      "t": 75077.25454166613,
      "d": 121.9512499999837,
      "v": 30
    },
    {
      "midi": 58,
      "hit": false,
      "t": 75093.51470833279,
      "d": 142.27645833331917,
      "v": 21
    },
    {
      "midi": 57,
      "hit": false,
      "t": 75097.57974999945,
      "d": 117.88620833332243,
      "v": 22
    },
    {
      "midi": 69,
      "hit": false,
      "t": 75121.96999999945,
      "d": 170.73174999999173,
      "v": 46
    },
    {
      "midi": 65,
      "hit": false,
      "t": 75317.09199999944,
      "d": 284.5529166666529,
      "v": 53
    },
    {
      "midi": 58,
      "hit": false,
      "t": 75585.38474999943,
      "d": 902.4392500000104,
      "v": 36
    },
    {
      "midi": 62,
      "hit": false,
      "t": 75597.57987499943,
      "d": 170.73174999999173,
      "v": 36
    },
    {
      "midi": 50,
      "hit": false,
      "t": 75605.70995833275,
      "d": 398.37408333334315,
      "v": 31
    },
    {
      "midi": 63,
      "hit": false,
      "t": 75747.98641666608,
      "d": 109.75612499999988,
      "v": 61
    },
    {
      "midi": 64,
      "hit": false,
      "t": 75902.45799999942,
      "d": 605.6912083333591,
      "v": 57
    },
    {
      "midi": 51,
      "hit": false,
      "t": 75930.91329166609,
      "d": 105.69108333333861,
      "v": 33
    },
    {
      "midi": 52,
      "hit": false,
      "t": 76130.10033333277,
      "d": 272.3577916666691,
      "v": 24
    },
    {
      "midi": 48,
      "hit": false,
      "t": 76414.65324999944,
      "d": 44.71545833333221,
      "v": 64
    },
    {
      "midi": 58,
      "hit": false,
      "t": 76577.2549166661,
      "d": 247.96754166667233,
      "v": 70
    },
    {
      "midi": 72,
      "hit": false,
      "t": 76581.31995833277,
      "d": 215.4472083333385,
      "v": 79
    },
    {
      "midi": 68,
      "hit": false,
      "t": 76585.38499999943,
      "d": 191.05695833334175,
      "v": 76
    },
    {
      "midi": 64,
      "hit": false,
      "t": 76585.38499999943,
      "d": 260.16266666668525,
      "v": 74
    },
    {
      "midi": 58,
      "hit": false,
      "t": 76902.45824999944,
      "d": 117.88620833333698,
      "v": 68
    },
    {
      "midi": 73,
      "hit": false,
      "t": 76902.45824999944,
      "d": 126.01629166665953,
      "v": 74
    },
    {
      "midi": 64,
      "hit": false,
      "t": 76910.58833333278,
      "d": 105.69108333333861,
      "v": 66
    },
    {
      "midi": 68,
      "hit": false,
      "t": 76910.58833333278,
      "d": 113.82116666666116,
      "v": 69
    },
    {
      "midi": 70,
      "hit": false,
      "t": 76910.58833333278,
      "d": 130.0813333333208,
      "v": 70
    },
    {
      "midi": 61,
      "hit": false,
      "t": 77093.51520833277,
      "d": 235.7724166666594,
      "v": 51
    },
    {
      "midi": 70,
      "hit": false,
      "t": 77093.51520833277,
      "d": 235.7724166666594,
      "v": 62
    },
    {
      "midi": 68,
      "hit": false,
      "t": 77097.58024999943,
      "d": 211.38216666666267,
      "v": 69
    },
    {
      "midi": 75,
      "hit": false,
      "t": 77097.58024999943,
      "d": 260.1626666666707,
      "v": 77
    },
    {
      "midi": 64,
      "hit": false,
      "t": 77101.6452916661,
      "d": 227.64233333333686,
      "v": 68
    },
    {
      "midi": 73,
      "hit": false,
      "t": 77394.3282916661,
      "d": 81.30083333332732,
      "v": 59
    },
    {
      "midi": 70,
      "hit": false,
      "t": 77394.3282916661,
      "d": 126.01629166665953,
      "v": 47
    },
    {
      "midi": 64,
      "hit": false,
      "t": 77398.39333333276,
      "d": 105.69108333333861,
      "v": 46
    },
    {
      "midi": 58,
      "hit": false,
      "t": 77398.39333333276,
      "d": 117.88620833333698,
      "v": 53
    },
    {
      "midi": 68,
      "hit": false,
      "t": 77406.5234166661,
      "d": 105.69108333333861,
      "v": 57
    },
    {
      "midi": 57,
      "hit": false,
      "t": 77560.99499999941,
      "d": 32.52033333333384,
      "v": 35
    },
    {
      "midi": 72,
      "hit": false,
      "t": 77560.99499999941,
      "d": 97.56100000000151,
      "v": 51
    },
    {
      "midi": 64,
      "hit": false,
      "t": 77569.12508333275,
      "d": 77.23579166666605,
      "v": 40
    },
    {
      "midi": 70,
      "hit": false,
      "t": 77715.46658333275,
      "d": 97.56100000000151,
      "v": 54
    },
    {
      "midi": 72,
      "hit": false,
      "t": 77874.00320833275,
      "d": 430.8944166666479,
      "v": 68
    },
    {
      "midi": 64,
      "hit": false,
      "t": 77878.06824999941,
      "d": 199.18704166664975,
      "v": 60
    },
    {
      "midi": 69,
      "hit": false,
      "t": 77882.13329166608,
      "d": 378.04887499999313,
      "v": 60
    },
    {
      "midi": 48,
      "hit": false,
      "t": 78036.60487499941,
      "d": 93.49595833332569,
      "v": 36
    },
    {
      "midi": 41,
      "hit": false,
      "t": 78040.66991666607,
      "d": 60.97562499999185,
      "v": 42
    },
    {
      "midi": 64,
      "hit": false,
      "t": 78304.8976249994,
      "d": 60.9756250000064,
      "v": 43
    },
    {
      "midi": 65,
      "hit": false,
      "t": 78430.91391666608,
      "d": 56.91058333333058,
      "v": 60
    },
    {
      "midi": 53,
      "hit": false,
      "t": 78544.73508333274,
      "d": 154.4715833333321,
      "v": 46
    },
    {
      "midi": 64,
      "hit": false,
      "t": 78544.73508333274,
      "d": 203.25208333332557,
      "v": 41
    },
    {
      "midi": 69,
      "hit": false,
      "t": 78548.8001249994,
      "d": 93.49595833334024,
      "v": 74
    },
    {
      "midi": 59,
      "hit": false,
      "t": 78548.8001249994,
      "d": 146.34150000000955,
      "v": 41
    },
    {
      "midi": 72,
      "hit": false,
      "t": 78678.88145833275,
      "d": 52.84554166665475,
      "v": 68
    },
    {
      "midi": 68,
      "hit": false,
      "t": 78796.76766666606,
      "d": 65.04066666666768,
      "v": 74
    },
    {
      "midi": 69,
      "hit": false,
      "t": 78918.71891666605,
      "d": 73.17075000000477,
      "v": 70
    },
    {
      "midi": 73,
      "hit": false,
      "t": 79024.40999999939,
      "d": 105.69108333333861,
      "v": 69
    },
    {
      "midi": 65,
      "hit": false,
      "t": 79032.54008333273,
      "d": 239.83745833333523,
      "v": 53
    },
    {
      "midi": 54,
      "hit": false,
      "t": 79040.67016666607,
      "d": 158.53662500000792,
      "v": 49
    },
    {
      "midi": 60,
      "hit": false,
      "t": 79040.67016666607,
      "d": 174.79679166666756,
      "v": 52
    },
    {
      "midi": 76,
      "hit": false,
      "t": 79170.7514999994,
      "d": 56.91058333333058,
      "v": 69
    },
    {
      "midi": 72,
      "hit": false,
      "t": 79280.5076249994,
      "d": 77.23579166666605,
      "v": 49
    },
    {
      "midi": 73,
      "hit": false,
      "t": 79390.2637499994,
      "d": 162.6016666666692,
      "v": 62
    },
    {
      "midi": 77,
      "hit": false,
      "t": 79516.28004166608,
      "d": 93.49595833332569,
      "v": 32
    },
    {
      "midi": 66,
      "hit": false,
      "t": 79524.41012499941,
      "d": 247.96754166665778,
      "v": 47
    },
    {
      "midi": 76,
      "hit": false,
      "t": 79528.47516666607,
      "d": 28.455291666658013,
      "v": 32
    },
    {
      "midi": 56,
      "hit": false,
      "t": 79528.47516666607,
      "d": 223.57729166666104,
      "v": 39
    },
    {
      "midi": 61,
      "hit": false,
      "t": 79536.60524999941,
      "d": 239.83745833332068,
      "v": 45
    },
    {
      "midi": 80,
      "hit": false,
      "t": 79638.23129166607,
      "d": 69.10570833332895,
      "v": 60
    },
    {
      "midi": 76,
      "hit": false,
      "t": 79747.98741666607,
      "d": 77.2357916666515,
      "v": 36
    },
    {
      "midi": 77,
      "hit": false,
      "t": 79861.80858333272,
      "d": 162.60166666665464,
      "v": 62
    },
    {
      "midi": 81,
      "hit": false,
      "t": 79987.82487499938,
      "d": 101.62604166666279,
      "v": 55
    },
    {
      "midi": 67,
      "hit": false,
      "t": 79991.88991666604,
      "d": 52.845541666669305,
      "v": 28
    },
    {
      "midi": 62,
      "hit": false,
      "t": 79991.88991666604,
      "d": 73.17075000000477,
      "v": 36
    },
    {
      "midi": 57,
      "hit": false,
      "t": 80004.08504166604,
      "d": 93.49595833334024,
      "v": 26
    },
    {
      "midi": 84,
      "hit": false,
      "t": 80113.84116666604,
      "d": 81.30083333332732,
      "v": 68
    },
    {
      "midi": 81,
      "hit": false,
      "t": 80227.6623333327,
      "d": 101.62604166666279,
      "v": 60
    },
    {
      "midi": 82,
      "hit": false,
      "t": 80333.35341666602,
      "d": 85.36587500000314,
      "v": 69
    },
    {
      "midi": 57,
      "hit": false,
      "t": 80443.10954166602,
      "d": 130.0813333333208,
      "v": 37
    },
    {
      "midi": 62,
      "hit": false,
      "t": 80447.17458333269,
      "d": 113.82116666666116,
      "v": 40
    },
    {
      "midi": 58,
      "hit": false,
      "t": 80447.17458333269,
      "d": 130.0813333333208,
      "v": 38
    },
    {
      "midi": 84,
      "hit": false,
      "t": 80455.30466666601,
      "d": 93.49595833334024,
      "v": 65
    },
    {
      "midi": 52,
      "hit": false,
      "t": 80467.499791666,
      "d": 126.01629166665953,
      "v": 38
    },
    {
      "midi": 85,
      "hit": false,
      "t": 80565.06079166601,
      "d": 69.10570833332895,
      "v": 69
    },
    {
      "midi": 87,
      "hit": false,
      "t": 80687.012041666,
      "d": 69.10570833332895,
      "v": 67
    },
    {
      "midi": 88,
      "hit": false,
      "t": 80813.02833333267,
      "d": 81.30083333334187,
      "v": 73
    },
    {
      "midi": 52,
      "hit": false,
      "t": 80821.158416666,
      "d": 138.21141666667245,
      "v": 62
    },
    {
      "midi": 90,
      "hit": false,
      "t": 80934.97958333268,
      "d": 73.17075000000477,
      "v": 62
    },
    {
      "midi": 45,
      "hit": false,
      "t": 80939.04462499934,
      "d": 28.455291666672565,
      "v": 67
    },
    {
      "midi": 91,
      "hit": false,
      "t": 81073.19099999935,
      "d": 60.9756250000064,
      "v": 66
    },
    {
      "midi": 93,
      "hit": false,
      "t": 81191.07720833269,
      "d": 73.17075000000477,
      "v": 75
    },
    {
      "midi": 94,
      "hit": false,
      "t": 81313.02845833269,
      "d": 77.23579166666605,
      "v": 69
    },
    {
      "midi": 61,
      "hit": false,
      "t": 81439.04474999935,
      "d": 166.66670833333046,
      "v": 44
    },
    {
      "midi": 96,
      "hit": false,
      "t": 81443.10979166601,
      "d": 52.845541666669305,
      "v": 75
    },
    {
      "midi": 58,
      "hit": false,
      "t": 81443.10979166601,
      "d": 186.99191666666593,
      "v": 42
    },
    {
      "midi": 64,
      "hit": false,
      "t": 81455.304916666,
      "d": 130.08133333333535,
      "v": 34
    },
    {
      "midi": 55,
      "hit": false,
      "t": 81455.304916666,
      "d": 170.7317500000063,
      "v": 38
    },
    {
      "midi": 97,
      "hit": false,
      "t": 81565.061041666,
      "d": 69.10570833332895,
      "v": 59
    },
    {
      "midi": 99,
      "hit": false,
      "t": 81678.88220833267,
      "d": 69.10570833332895,
      "v": 72
    },
    {
      "midi": 100,
      "hit": false,
      "t": 81804.89849999933,
      "d": 77.23579166666605,
      "v": 88
    },
    {
      "midi": 57,
      "hit": false,
      "t": 81922.78470833265,
      "d": 1528.455666666603,
      "v": 64
    },
    {
      "midi": 103,
      "hit": false,
      "t": 81930.91479166599,
      "d": 89.43091666666442,
      "v": 95
    },
    {
      "midi": 50,
      "hit": false,
      "t": 81930.91479166599,
      "d": 434.9594583333237,
      "v": 65
    },
    {
      "midi": 101,
      "hit": false,
      "t": 82060.99612499932,
      "d": 85.36587500000314,
      "v": 77
    },
    {
      "midi": 97,
      "hit": false,
      "t": 82182.94737499932,
      "d": 69.10570833332895,
      "v": 62
    },
    {
      "midi": 100,
      "hit": false,
      "t": 82300.83358333264,
      "d": 207.3171250000014,
      "v": 91
    },
    {
      "midi": 98,
      "hit": false,
      "t": 82410.58970833264,
      "d": 113.82116666666116,
      "v": 76
    },
    {
      "midi": 61,
      "hit": false,
      "t": 82418.71979166598,
      "d": 252.03258333331905,
      "v": 55
    },
    {
      "midi": 50,
      "hit": false,
      "t": 82430.91491666598,
      "d": 613.8212916666234,
      "v": 14
    },
    {
      "midi": 95,
      "hit": false,
      "t": 82536.6059999993,
      "d": 52.845541666669305,
      "v": 62
    },
    {
      "midi": 93,
      "hit": false,
      "t": 82674.81741666596,
      "d": 77.23579166666605,
      "v": 36
    },
    {
      "midi": 91,
      "hit": false,
      "t": 82687.01254166596,
      "d": 65.04066666666768,
      "v": 25
    },
    {
      "midi": 60,
      "hit": false,
      "t": 82894.32966666594,
      "d": 540.6505416666478,
      "v": 51
    },
    {
      "midi": 93,
      "hit": false,
      "t": 82910.5898333326,
      "d": 162.60166666665464,
      "v": 66
    },
    {
      "midi": 89,
      "hit": false,
      "t": 83089.45166666592,
      "d": 40.650416666670935,
      "v": 66
    },
    {
      "midi": 50,
      "hit": false,
      "t": 83390.26474999926,
      "d": 109.75612499998533,
      "v": 49
    },
    {
      "midi": 50,
      "hit": false,
      "t": 83731.72824999926,
      "d": 117.88620833333698,
      "v": 64
    },
    {
      "midi": 43,
      "hit": false,
      "t": 83902.45999999925,
      "d": 28.455291666672565,
      "v": 57
    },
    {
      "midi": 74,
      "hit": false,
      "t": 84247.98854166592,
      "d": 117.88620833333698,
      "v": 99
    },
    {
      "midi": 62,
      "hit": false,
      "t": 84394.33004166593,
      "d": 268.29274999996414,
      "v": 32
    },
    {
      "midi": 69,
      "hit": false,
      "t": 84398.3950833326,
      "d": 138.2114166666579,
      "v": 57
    },
    {
      "midi": 60,
      "hit": false,
      "t": 84398.3950833326,
      "d": 223.5772916666465,
      "v": 36
    },
    {
      "midi": 58,
      "hit": false,
      "t": 84406.52516666593,
      "d": 264.22770833330287,
      "v": 31
    },
    {
      "midi": 72,
      "hit": false,
      "t": 84552.86666666591,
      "d": 105.69108333332406,
      "v": 74
    },
    {
      "midi": 70,
      "hit": false,
      "t": 84711.4032916659,
      "d": 101.62604166666279,
      "v": 63
    },
    {
      "midi": 62,
      "hit": false,
      "t": 84865.87487499924,
      "d": 333.3334166666755,
      "v": 35
    },
    {
      "midi": 58,
      "hit": false,
      "t": 84874.00495833257,
      "d": 552.8456666666607,
      "v": 33
    },
    {
      "midi": 57,
      "hit": false,
      "t": 84878.06999999924,
      "d": 426.82937500000116,
      "v": 25
    },
    {
      "midi": 65,
      "hit": false,
      "t": 85073.19199999924,
      "d": 40.650416666670935,
      "v": 38
    },
    {
      "midi": 69,
      "hit": false,
      "t": 85219.53349999925,
      "d": 134.14637499998207,
      "v": 83
    },
    {
      "midi": 62,
      "hit": false,
      "t": 85361.80995833257,
      "d": 32.52033333333384,
      "v": 45
    },
    {
      "midi": 67,
      "hit": false,
      "t": 85386.20020833256,
      "d": 117.88620833333698,
      "v": 59
    },
    {
      "midi": 55,
      "hit": false,
      "t": 85398.39533333256,
      "d": 36.58537500000966,
      "v": 32
    },
    {
      "midi": 62,
      "hit": false,
      "t": 85548.80187499923,
      "d": 81.30083333332732,
      "v": 33
    },
    {
      "midi": 53,
      "hit": false,
      "t": 85682.94824999923,
      "d": 154.47158333331754,
      "v": 29
    },
    {
      "midi": 63,
      "hit": false,
      "t": 85695.14337499923,
      "d": 126.01629166665953,
      "v": 49
    },
    {
      "midi": 46,
      "hit": false,
      "t": 85853.6799999992,
      "d": 227.64233333333686,
      "v": 34
    },
    {
      "midi": 56,
      "hit": false,
      "t": 85869.94016666587,
      "d": 239.8374583333498,
      "v": 15
    },
    {
      "midi": 64,
      "hit": false,
      "t": 85874.00520833253,
      "d": 178.86183333334338,
      "v": 34
    },
    {
      "midi": 67,
      "hit": false,
      "t": 86174.81829166588,
      "d": 28.455291666672565,
      "v": 37
    },
    {
      "midi": 68,
      "hit": false,
      "t": 86243.92399999923,
      "d": 60.97562499999185,
      "v": 50
    },
    {
      "midi": 70,
      "hit": false,
      "t": 86300.83458333256,
      "d": 28.455291666658013,
      "v": 62
    },
    {
      "midi": 71,
      "hit": false,
      "t": 86382.13541666587,
      "d": 36.58537499999511,
      "v": 32
    },
    {
      "midi": 73,
      "hit": false,
      "t": 86455.30616666586,
      "d": 40.650416666670935,
      "v": 59
    },
    {
      "midi": 74,
      "hit": false,
      "t": 86536.6069999992,
      "d": 60.9756250000064,
      "v": 55
    },
    {
      "midi": 76,
      "hit": false,
      "t": 86617.90783333255,
      "d": 44.71545833333221,
      "v": 56
    },
    {
      "midi": 77,
      "hit": false,
      "t": 86695.14362499921,
      "d": 24.39024999999674,
      "v": 50
    },
    {
      "midi": 79,
      "hit": false,
      "t": 86776.44445833254,
      "d": 52.845541666669305,
      "v": 63
    },
    {
      "midi": 67,
      "hit": false,
      "t": 86837.42008333254,
      "d": 65.04066666668223,
      "v": 22
    },
    {
      "midi": 56,
      "hit": false,
      "t": 86837.42008333254,
      "d": 121.9512500000128,
      "v": 32
    },
    {
      "midi": 62,
      "hit": false,
      "t": 86845.55016666588,
      "d": 73.17075000000477,
      "v": 29
    },
    {
      "midi": 80,
      "hit": false,
      "t": 86874.00545833255,
      "d": 52.845541666669305,
      "v": 62
    },
    {
      "midi": 46,
      "hit": false,
      "t": 87166.68845833256,
      "d": 81.30083333332732,
      "v": 71
    },
    {
      "midi": 56,
      "hit": false,
      "t": 87524.41212499922,
      "d": 69.10570833332895,
      "v": 74
    },
    {
      "midi": 52,
      "hit": false,
      "t": 87662.62354166587,
      "d": 109.75612499999988,
      "v": 63
    },
    {
      "midi": 45,
      "hit": false,
      "t": 87813.03008333255,
      "d": 44.71545833333221,
      "v": 70
    },
    {
      "midi": 84,
      "hit": false,
      "t": 88500.0221249992,
      "d": 73.17074999999022,
      "v": 84
    },
    {
      "midi": 76,
      "hit": false,
      "t": 88500.0221249992,
      "d": 81.30083333331277,
      "v": 83
    },
    {
      "midi": 72,
      "hit": false,
      "t": 88500.0221249992,
      "d": 85.36587499997404,
      "v": 81
    },
    {
      "midi": 73,
      "hit": false,
      "t": 88500.0221249992,
      "d": 130.08133333330625,
      "v": 83
    },
    {
      "midi": 82,
      "hit": false,
      "t": 88512.2172499992,
      "d": 65.04066666665312,
      "v": 54
    },
    {
      "midi": 79,
      "hit": false,
      "t": 88516.28229166586,
      "d": 56.91058333333058,
      "v": 57
    },
    {
      "midi": 80,
      "hit": false,
      "t": 88528.47741666586,
      "d": 36.58537499999511,
      "v": 31
    },
    {
      "midi": 81,
      "hit": false,
      "t": 88756.11974999917,
      "d": 89.43091666664986,
      "v": 74
    },
    {
      "midi": 69,
      "hit": false,
      "t": 88764.24983333249,
      "d": 89.43091666666442,
      "v": 65
    },
    {
      "midi": 73,
      "hit": false,
      "t": 88764.24983333249,
      "d": 109.75612499999988,
      "v": 69
    },
    {
      "midi": 70,
      "hit": false,
      "t": 88764.24983333249,
      "d": 113.82116666666116,
      "v": 71
    },
    {
      "midi": 76,
      "hit": false,
      "t": 88768.31487499915,
      "d": 93.49595833334024,
      "v": 69
    },
    {
      "midi": 78,
      "hit": false,
      "t": 89077.25804166582,
      "d": 134.14637499999662,
      "v": 68
    },
    {
      "midi": 64,
      "hit": false,
      "t": 89081.32308333248,
      "d": 154.4715833333321,
      "v": 55
    },
    {
      "midi": 73,
      "hit": false,
      "t": 89089.45316666581,
      "d": 109.75612499999988,
      "v": 67
    },
    {
      "midi": 67,
      "hit": false,
      "t": 89093.51820833248,
      "d": 109.75612499999988,
      "v": 57
    },
    {
      "midi": 70,
      "hit": false,
      "t": 89093.51820833248,
      "d": 117.88620833333698,
      "v": 64
    },
    {
      "midi": 76,
      "hit": false,
      "t": 89252.05483333247,
      "d": 215.44720833332394,
      "v": 32
    },
    {
      "midi": 61,
      "hit": false,
      "t": 89256.11987499913,
      "d": 73.17074999999022,
      "v": 50
    },
    {
      "midi": 67,
      "hit": false,
      "t": 89260.18491666579,
      "d": 223.57729166666104,
      "v": 25
    },
    {
      "midi": 73,
      "hit": false,
      "t": 89268.31499999913,
      "d": 268.2927499999787,
      "v": 51
    },
    {
      "midi": 70,
      "hit": false,
      "t": 89272.38004166579,
      "d": 260.16266666665615,
      "v": 53
    },
    {
      "midi": 51,
      "hit": false,
      "t": 89581.32320833244,
      "d": 105.69108333333861,
      "v": 42
    },
    {
      "midi": 61,
      "hit": false,
      "t": 89589.45329166578,
      "d": 52.845541666669305,
      "v": 30
    },
    {
      "midi": 77,
      "hit": false,
      "t": 89739.85983333245,
      "d": 203.25208333332557,
      "v": 66
    },
    {
      "midi": 69,
      "hit": false,
      "t": 89739.85983333245,
      "d": 252.03258333331905,
      "v": 58
    },
    {
      "midi": 65,
      "hit": false,
      "t": 89743.92487499911,
      "d": 231.70737499999814,
      "v": 53
    },
    {
      "midi": 60,
      "hit": false,
      "t": 89752.05495833245,
      "d": 158.53662499999336,
      "v": 36
    },
    {
      "midi": 72,
      "hit": false,
      "t": 89756.11999999911,
      "d": 252.03258333331905,
      "v": 51
    },
    {
      "midi": 50,
      "hit": false,
      "t": 89756.11999999911,
      "d": 865.8538749999279,
      "v": 50
    },
    {
      "midi": 61,
      "hit": false,
      "t": 90048.80299999908,
      "d": 117.88620833333698,
      "v": 64
    },
    {
      "midi": 76,
      "hit": false,
      "t": 90056.93308333242,
      "d": 146.341499999995,
      "v": 66
    },
    {
      "midi": 69,
      "hit": false,
      "t": 90065.06316666576,
      "d": 130.0813333333208,
      "v": 57
    },
    {
      "midi": 65,
      "hit": false,
      "t": 90069.12820833242,
      "d": 109.75612499999988,
      "v": 54
    },
    {
      "midi": 74,
      "hit": false,
      "t": 90219.53474999907,
      "d": 154.471583333303,
      "v": 44
    },
    {
      "midi": 60,
      "hit": false,
      "t": 90235.79491666573,
      "d": 252.0325833333045,
      "v": 48
    },
    {
      "midi": 69,
      "hit": false,
      "t": 90239.8599583324,
      "d": 97.56099999998696,
      "v": 30
    },
    {
      "midi": 65,
      "hit": false,
      "t": 90239.8599583324,
      "d": 146.34149999998044,
      "v": 33
    },
    {
      "midi": 57,
      "hit": false,
      "t": 90573.19337499904,
      "d": 60.97562499999185,
      "v": 33
    },
    {
      "midi": 64,
      "hit": false,
      "t": 90743.92512499903,
      "d": 162.60166666665464,
      "v": 75
    },
    {
      "midi": 65,
      "hit": false,
      "t": 90747.9901666657,
      "d": 154.4715833333321,
      "v": 73
    },
    {
      "midi": 50,
      "hit": false,
      "t": 90756.12024999903,
      "d": 186.99191666665138,
      "v": 58
    },
    {
      "midi": 60,
      "hit": false,
      "t": 90760.1852916657,
      "d": 150.40654166665627,
      "v": 59
    },
    {
      "midi": 57,
      "hit": false,
      "t": 90760.1852916657,
      "d": 170.73174999999173,
      "v": 54
    },
    {
      "midi": 68,
      "hit": false,
      "t": 90768.31537499903,
      "d": 32.52033333333384,
      "v": 26
    },
    {
      "midi": 64,
      "hit": false,
      "t": 91052.86829166568,
      "d": 134.14637499999662,
      "v": 63
    },
    {
      "midi": 60,
      "hit": false,
      "t": 91056.93333333234,
      "d": 69.10570833332895,
      "v": 48
    },
    {
      "midi": 50,
      "hit": false,
      "t": 91056.93333333234,
      "d": 195.12200000000303,
      "v": 45
    },
    {
      "midi": 65,
      "hit": false,
      "t": 91056.93333333234,
      "d": 1154.471833333344,
      "v": 70
    },
    {
      "midi": 57,
      "hit": false,
      "t": 91060.998374999,
      "d": 500.00012500000594,
      "v": 41
    },
    {
      "midi": 62,
      "hit": false,
      "t": 91243.92524999901,
      "d": 276.42283333333035,
      "v": 50
    },
    {
      "midi": 50,
      "hit": false,
      "t": 91540.67329166568,
      "d": 65.04066666666768,
      "v": 44
    },
    {
      "midi": 47,
      "hit": false,
      "t": 91723.60016666568,
      "d": 215.4472083333385,
      "v": 39
    },
    {
      "midi": 47,
      "hit": false,
      "t": 92032.54333333236,
      "d": 833.3335416666669,
      "v": 59
    },
    {
      "midi": 61,
      "hit": false,
      "t": 92199.21004166569,
      "d": 422.76433333335444,
      "v": 59
    },
    {
      "midi": 59,
      "hit": false,
      "t": 92211.40516666569,
      "d": 382.1139166666835,
      "v": 48
    },
    {
      "midi": 57,
      "hit": false,
      "t": 92219.53524999903,
      "d": 321.1382916666771,
      "v": 34
    },
    {
      "midi": 62,
      "hit": false,
      "t": 92678.88495833238,
      "d": 357.72366666665766,
      "v": 62
    },
    {
      "midi": 59,
      "hit": false,
      "t": 92682.94999999904,
      "d": 260.16266666665615,
      "v": 57
    },
    {
      "midi": 57,
      "hit": false,
      "t": 92682.94999999904,
      "d": 536.5854999999865,
      "v": 48
    },
    {
      "midi": 63,
      "hit": false,
      "t": 92995.95820833236,
      "d": 162.6016666666692,
      "v": 75
    },
    {
      "midi": 59,
      "hit": false,
      "t": 93008.15333333236,
      "d": 81.30083333334187,
      "v": 10
    },
    {
      "midi": 47,
      "hit": false,
      "t": 93170.75499999903,
      "d": 81.30083333332732,
      "v": 51
    },
    {
      "midi": 62,
      "hit": false,
      "t": 93174.82004166569,
      "d": 182.92687500000466,
      "v": 49
    },
    {
      "midi": 64,
      "hit": false,
      "t": 93626.0396666657,
      "d": 93.49595833334024,
      "v": 64
    },
    {
      "midi": 55,
      "hit": false,
      "t": 93630.10470833236,
      "d": 28.455291666672565,
      "v": 58
    },
    {
      "midi": 40,
      "hit": false,
      "t": 93630.10470833236,
      "d": 56.91058333334513,
      "v": 61
    },
    {
      "midi": 60,
      "hit": false,
      "t": 93630.10470833236,
      "d": 56.91058333334513,
      "v": 70
    },
    {
      "midi": 77,
      "hit": false,
      "t": 93849.61695833238,
      "d": 77.23579166666605,
      "v": 82
    },
    {
      "midi": 67,
      "hit": false,
      "t": 94008.15358333237,
      "d": 280.48787499997707,
      "v": 68
    },
    {
      "midi": 75,
      "hit": false,
      "t": 94012.21862499903,
      "d": 40.65041666665638,
      "v": 52
    },
    {
      "midi": 62,
      "hit": false,
      "t": 94016.2836666657,
      "d": 361.78870833331894,
      "v": 67
    },
    {
      "midi": 56,
      "hit": false,
      "t": 94020.34870833236,
      "d": 1048.7807499999908,
      "v": 53
    },
    {
      "midi": 72,
      "hit": false,
      "t": 94325.22683333234,
      "d": 101.62604166666279,
      "v": 67
    },
    {
      "midi": 79,
      "hit": false,
      "t": 94459.37320833234,
      "d": 48.78050000000803,
      "v": 72
    },
    {
      "midi": 62,
      "hit": false,
      "t": 94467.50329166568,
      "d": 113.82116666667571,
      "v": 47
    },
    {
      "midi": 62,
      "hit": false,
      "t": 94613.84479166569,
      "d": 126.01629166667408,
      "v": 31
    },
    {
      "midi": 67,
      "hit": false,
      "t": 94621.97487499902,
      "d": 89.43091666666442,
      "v": 55
    },
    {
      "midi": 91,
      "hit": false,
      "t": 94626.03991666569,
      "d": 134.14637499999662,
      "v": 88
    },
    {
      "midi": 84,
      "hit": false,
      "t": 94630.10495833235,
      "d": 113.82116666667571,
      "v": 88
    },
    {
      "midi": 79,
      "hit": false,
      "t": 94784.57654166568,
      "d": 69.10570833332895,
      "v": 38
    },
    {
      "midi": 88,
      "hit": false,
      "t": 94804.90174999902,
      "d": 77.23579166666605,
      "v": 35
    },
    {
      "midi": 91,
      "hit": false,
      "t": 94943.11316666569,
      "d": 105.69108333333861,
      "v": 80
    },
    {
      "midi": 84,
      "hit": false,
      "t": 94943.11316666569,
      "d": 109.75612499999988,
      "v": 74
    },
    {
      "midi": 67,
      "hit": false,
      "t": 94943.11316666569,
      "d": 512.1952499999752,
      "v": 56
    },
    {
      "midi": 62,
      "hit": false,
      "t": 94943.11316666569,
      "d": 532.5204583333107,
      "v": 54
    },
    {
      "midi": 79,
      "hit": false,
      "t": 95105.71483333234,
      "d": 48.78050000000803,
      "v": 31
    },
    {
      "midi": 88,
      "hit": false,
      "t": 95126.04004166568,
      "d": 56.91058333334513,
      "v": 28
    },
    {
      "midi": 56,
      "hit": false,
      "t": 95276.44658333236,
      "d": 48.78049999997893,
      "v": 42
    },
    {
      "midi": 84,
      "hit": false,
      "t": 95280.51162499902,
      "d": 40.65041666665638,
      "v": 60
    },
    {
      "midi": 79,
      "hit": false,
      "t": 95284.57666666569,
      "d": 56.910583333316026,
      "v": 33
    },
    {
      "midi": 56,
      "hit": false,
      "t": 95426.853124999,
      "d": 89.43091666666442,
      "v": 47
    },
    {
      "midi": 88,
      "hit": false,
      "t": 95430.91816666567,
      "d": 101.62604166666279,
      "v": 55
    },
    {
      "midi": 60,
      "hit": false,
      "t": 95593.51983333234,
      "d": 138.21141666664334,
      "v": 62
    },
    {
      "midi": 65,
      "hit": false,
      "t": 95597.584874999,
      "d": 117.88620833332243,
      "v": 66
    },
    {
      "midi": 91,
      "hit": false,
      "t": 95597.584874999,
      "d": 117.88620833332243,
      "v": 73
    },
    {
      "midi": 61,
      "hit": false,
      "t": 95601.64991666566,
      "d": 142.27645833331917,
      "v": 63
    },
    {
      "midi": 79,
      "hit": false,
      "t": 95609.779999999,
      "d": 117.88620833332243,
      "v": 54
    },
    {
      "midi": 84,
      "hit": false,
      "t": 95609.779999999,
      "d": 121.9512499999837,
      "v": 58
    },
    {
      "midi": 88,
      "hit": false,
      "t": 95613.84504166566,
      "d": 109.75612499999988,
      "v": 43
    },
    {
      "midi": 55,
      "hit": false,
      "t": 95626.04016666565,
      "d": 101.62604166666279,
      "v": 38
    },
    {
      "midi": 86,
      "hit": false,
      "t": 95934.9833333323,
      "d": 105.69108333332406,
      "v": 83
    },
    {
      "midi": 61,
      "hit": false,
      "t": 95934.9833333323,
      "d": 113.82116666666116,
      "v": 63
    },
    {
      "midi": 74,
      "hit": false,
      "t": 95934.9833333323,
      "d": 113.82116666666116,
      "v": 89
    },
    {
      "midi": 60,
      "hit": false,
      "t": 95934.9833333323,
      "d": 121.95124999999825,
      "v": 81
    },
    {
      "midi": 65,
      "hit": false,
      "t": 95939.04837499897,
      "d": 101.62604166666279,
      "v": 80
    },
    {
      "midi": 55,
      "hit": false,
      "t": 95947.1784583323,
      "d": 89.43091666666442,
      "v": 68
    },
    {
      "midi": 58,
      "hit": false,
      "t": 95947.1784583323,
      "d": 109.75612499999988,
      "v": 44
    },
    {
      "midi": 65,
      "hit": false,
      "t": 96109.78012499897,
      "d": 44.715458333317656,
      "v": 52
    },
    {
      "midi": 61,
      "hit": false,
      "t": 96109.78012499897,
      "d": 65.04066666665312,
      "v": 42
    },
    {
      "midi": 60,
      "hit": false,
      "t": 96113.84516666563,
      "d": 52.84554166665475,
      "v": 54
    },
    {
      "midi": 86,
      "hit": false,
      "t": 96113.84516666563,
      "d": 65.04066666665312,
      "v": 45
    },
    {
      "midi": 55,
      "hit": false,
      "t": 96117.9102083323,
      "d": 44.71545833333221,
      "v": 39
    },
    {
      "midi": 74,
      "hit": false,
      "t": 96121.97524999896,
      "d": 44.71545833333221,
      "v": 47
    },
    {
      "midi": 58,
      "hit": false,
      "t": 96134.17037499895,
      "d": 28.455291666672565,
      "v": 29
    },
    {
      "midi": 60,
      "hit": false,
      "t": 96418.72329166562,
      "d": 69.10570833332895,
      "v": 64
    },
    {
      "midi": 86,
      "hit": false,
      "t": 96418.72329166562,
      "d": 85.36587499998859,
      "v": 74
    },
    {
      "midi": 65,
      "hit": false,
      "t": 96422.78833333228,
      "d": 44.71545833333221,
      "v": 65
    },
    {
      "midi": 74,
      "hit": false,
      "t": 96422.78833333228,
      "d": 65.04066666666768,
      "v": 73
    },
    {
      "midi": 61,
      "hit": false,
      "t": 96422.78833333228,
      "d": 97.56099999998696,
      "v": 49
    },
    {
      "midi": 58,
      "hit": false,
      "t": 96439.04849999894,
      "d": 69.10570833332895,
      "v": 29
    },
    {
      "midi": 55,
      "hit": false,
      "t": 96447.17858333228,
      "d": 28.455291666672565,
      "v": 36
    },
    {
      "midi": 65,
      "hit": false,
      "t": 96585.38999999892,
      "d": 337.39845833330764,
      "v": 71
    },
    {
      "midi": 60,
      "hit": false,
      "t": 96585.38999999892,
      "d": 345.52854166664474,
      "v": 64
    },
    {
      "midi": 61,
      "hit": false,
      "t": 96585.38999999892,
      "d": 345.52854166664474,
      "v": 51
    },
    {
      "midi": 76,
      "hit": false,
      "t": 96585.38999999892,
      "d": 361.7887083333044,
      "v": 78
    },
    {
      "midi": 88,
      "hit": false,
      "t": 96589.45504166558,
      "d": 317.07324999998673,
      "v": 84
    },
    {
      "midi": 55,
      "hit": false,
      "t": 96593.52008333225,
      "d": 308.9431666666642,
      "v": 66
    },
    {
      "midi": 58,
      "hit": false,
      "t": 96597.5851249989,
      "d": 345.5285416666593,
      "v": 35
    },
    {
      "midi": 65,
      "hit": false,
      "t": 97073.19499999889,
      "d": 65.04066666666768,
      "v": 62
    },
    {
      "midi": 61,
      "hit": false,
      "t": 97073.19499999889,
      "d": 93.49595833334024,
      "v": 52
    },
    {
      "midi": 60,
      "hit": false,
      "t": 97077.26004166555,
      "d": 60.9756250000064,
      "v": 38
    },
    {
      "midi": 86,
      "hit": false,
      "t": 97077.26004166555,
      "d": 784.5530416666734,
      "v": 66
    },
    {
      "midi": 55,
      "hit": false,
      "t": 97085.39012499888,
      "d": 101.62604166667734,
      "v": 55
    },
    {
      "midi": 74,
      "hit": false,
      "t": 97085.39012499888,
      "d": 784.5530416666734,
      "v": 58
    },
    {
      "midi": 58,
      "hit": false,
      "t": 97101.65029166554,
      "d": 93.49595833335479,
      "v": 28
    },
    {
      "midi": 40,
      "hit": false,
      "t": 97857.74804166556,
      "d": 142.27645833333372,
      "v": 85
    },
    {
      "midi": 62,
      "hit": false,
      "t": 98357.74816666557,
      "d": 902.4392499999958,
      "v": 84
    },
    {
      "midi": 57,
      "hit": false,
      "t": 98357.74816666557,
      "d": 906.5042916666571,
      "v": 74
    },
    {
      "midi": 58,
      "hit": false,
      "t": 98361.81320833223,
      "d": 914.6343749999942,
      "v": 67
    },
    {
      "midi": 52,
      "hit": false,
      "t": 98361.81320833223,
      "d": 939.0246249999909,
      "v": 72
    },
    {
      "midi": 79,
      "hit": false,
      "t": 98573.1953749989,
      "d": 60.97562499999185,
      "v": 69
    },
    {
      "midi": 80,
      "hit": false,
      "t": 98597.5856249989,
      "d": 44.71545833333221,
      "v": 65
    },
    {
      "midi": 81,
      "hit": false,
      "t": 98634.1709999989,
      "d": 77.23579166666605,
      "v": 72
    },
    {
      "midi": 84,
      "hit": false,
      "t": 98906.52879166557,
      "d": 73.17074999999022,
      "v": 108
    },
    {
      "midi": 80,
      "hit": false,
      "t": 99065.06541666556,
      "d": 36.58537500000966,
      "v": 59
    },
    {
      "midi": 79,
      "hit": false,
      "t": 99117.91095833223,
      "d": 77.23579166666605,
      "v": 52
    },
    {
      "midi": 77,
      "hit": false,
      "t": 99223.60204166557,
      "d": 60.97562499999185,
      "v": 44
    },
    {
      "midi": 74,
      "hit": false,
      "t": 99300.83783333222,
      "d": 40.650416666670935,
      "v": 51
    },
    {
      "midi": 77,
      "hit": false,
      "t": 99402.4638749989,
      "d": 65.04066666666768,
      "v": 84
    },
    {
      "midi": 79,
      "hit": false,
      "t": 99495.95983333224,
      "d": 85.36587499998859,
      "v": 81
    },
    {
      "midi": 45,
      "hit": false,
      "t": 99601.65091666556,
      "d": 52.845541666669305,
      "v": 66
    },
    {
      "midi": 77,
      "hit": false,
      "t": 99609.7809999989,
      "d": 617.8863333333284,
      "v": 74
    },
    {
      "midi": 65,
      "hit": false,
      "t": 99878.07374999889,
      "d": 601.6261666666687,
      "v": 54
    },
    {
      "midi": 60,
      "hit": false,
      "t": 99890.26887499889,
      "d": 577.235916666672,
      "v": 37
    },
    {
      "midi": 61,
      "hit": false,
      "t": 99898.39895833223,
      "d": 593.4960833333316,
      "v": 34
    },
    {
      "midi": 55,
      "hit": false,
      "t": 99898.39895833223,
      "d": 605.69120833333,
      "v": 48
    },
    {
      "midi": 84,
      "hit": false,
      "t": 100260.18766666556,
      "d": 89.43091666666442,
      "v": 87
    },
    {
      "midi": 81,
      "hit": false,
      "t": 100394.33404166556,
      "d": 77.23579166666605,
      "v": 66
    },
    {
      "midi": 72,
      "hit": false,
      "t": 100536.61049999889,
      "d": 65.04066666666768,
      "v": 34
    },
    {
      "midi": 66,
      "hit": false,
      "t": 100821.16341666556,
      "d": 126.01629166667408,
      "v": 52
    },
    {
      "midi": 61,
      "hit": false,
      "t": 100829.2934999989,
      "d": 142.27645833333372,
      "v": 29
    },
    {
      "midi": 55,
      "hit": false,
      "t": 100837.42358333223,
      "d": 130.08133333333535,
      "v": 55
    },
    {
      "midi": 69,
      "hit": false,
      "t": 101150.43179166556,
      "d": 48.78049999999348,
      "v": 71
    },
    {
      "midi": 72,
      "hit": false,
      "t": 101280.51312499888,
      "d": 56.91058333333058,
      "v": 80
    },
    {
      "midi": 38,
      "hit": false,
      "t": 101426.85462499887,
      "d": 24.39024999998219,
      "v": 52
    },
    {
      "midi": 45,
      "hit": false,
      "t": 101430.91966666553,
      "d": 48.78049999997893,
      "v": 52
    },
    {
      "midi": 76,
      "hit": false,
      "t": 101434.9847083322,
      "d": 97.56099999998696,
      "v": 82
    },
    {
      "midi": 70,
      "hit": false,
      "t": 101447.1798333322,
      "d": 20.325208333320916,
      "v": 51
    },
    {
      "midi": 79,
      "hit": false,
      "t": 101747.99291666552,
      "d": 117.88620833333698,
      "v": 66
    },
    {
      "midi": 73,
      "hit": false,
      "t": 101756.12299999886,
      "d": 142.27645833333372,
      "v": 73
    },
    {
      "midi": 69,
      "hit": false,
      "t": 101756.12299999886,
      "d": 158.53662499999336,
      "v": 66
    },
    {
      "midi": 64,
      "hit": false,
      "t": 101764.2530833322,
      "d": 260.16266666665615,
      "v": 63
    },
    {
      "midi": 77,
      "hit": false,
      "t": 102089.45641666552,
      "d": 182.9268749999901,
      "v": 71
    },
    {
      "midi": 69,
      "hit": false,
      "t": 102101.65154166552,
      "d": 207.31712499998685,
      "v": 51
    },
    {
      "midi": 62,
      "hit": false,
      "t": 102105.71658333218,
      "d": 304.87812499998836,
      "v": 54
    },
    {
      "midi": 72,
      "hit": false,
      "t": 102109.78162499884,
      "d": 166.66670833333046,
      "v": 59
    },
    {
      "midi": 76,
      "hit": false,
      "t": 102414.65974999883,
      "d": 113.8211666666466,
      "v": 65
    },
    {
      "midi": 61,
      "hit": false,
      "t": 102414.65974999883,
      "d": 117.88620833330788,
      "v": 57
    },
    {
      "midi": 69,
      "hit": false,
      "t": 102426.85487499883,
      "d": 97.56099999998696,
      "v": 55
    },
    {
      "midi": 65,
      "hit": false,
      "t": 102426.85487499883,
      "d": 138.21141666664334,
      "v": 44
    },
    {
      "midi": 72,
      "hit": false,
      "t": 102739.86308333214,
      "d": 146.341499999995,
      "v": 62
    },
    {
      "midi": 57,
      "hit": false,
      "t": 102743.9281249988,
      "d": 174.79679166666756,
      "v": 47
    },
    {
      "midi": 62,
      "hit": false,
      "t": 102747.99316666546,
      "d": 97.56100000000151,
      "v": 37
    },
    {
      "midi": 69,
      "hit": false,
      "t": 102894.33466666547,
      "d": 101.62604166666279,
      "v": 57
    },
    {
      "midi": 65,
      "hit": false,
      "t": 103028.48104166547,
      "d": 89.43091666666442,
      "v": 52
    },
    {
      "midi": 62,
      "hit": false,
      "t": 103146.3672499988,
      "d": 81.30083333332732,
      "v": 52
    },
    {
      "midi": 45,
      "hit": false,
      "t": 103256.1233749988,
      "d": 105.69108333332406,
      "v": 37
    },
    {
      "midi": 63,
      "hit": false,
      "t": 103272.38354166546,
      "d": 138.2114166666579,
      "v": 62
    },
    {
      "midi": 38,
      "hit": false,
      "t": 103398.39983333212,
      "d": 93.49595833332569,
      "v": 54
    },
    {
      "midi": 60,
      "hit": false,
      "t": 103617.9120833321,
      "d": 36.58537499999511,
      "v": 63
    },
    {
      "midi": 62,
      "hit": false,
      "t": 103699.21291666543,
      "d": 56.91058333333058,
      "v": 40
    },
    {
      "midi": 63,
      "hit": false,
      "t": 103764.2535833321,
      "d": 36.58537499999511,
      "v": 56
    },
    {
      "midi": 65,
      "hit": false,
      "t": 103829.29424999877,
      "d": 52.84554166665475,
      "v": 58
    },
    {
      "midi": 50,
      "hit": false,
      "t": 103878.07474999876,
      "d": 227.64233333330776,
      "v": 32
    },
    {
      "midi": 60,
      "hit": false,
      "t": 103878.07474999876,
      "d": 264.22770833330287,
      "v": 33
    },
    {
      "midi": 54,
      "hit": false,
      "t": 103890.26987499876,
      "d": 235.77241666664486,
      "v": 31
    },
    {
      "midi": 66,
      "hit": false,
      "t": 103894.33491666542,
      "d": 56.91058333333058,
      "v": 51
    },
    {
      "midi": 68,
      "hit": false,
      "t": 103975.63574999875,
      "d": 32.52033333333384,
      "v": 40
    },
    {
      "midi": 69,
      "hit": false,
      "t": 104056.93658333208,
      "d": 48.78049999999348,
      "v": 55
    },
    {
      "midi": 71,
      "hit": false,
      "t": 104162.6276666654,
      "d": 24.39024999999674,
      "v": 65
    },
    {
      "midi": 72,
      "hit": false,
      "t": 104264.25370833206,
      "d": 40.650416666670935,
      "v": 68
    },
    {
      "midi": 74,
      "hit": false,
      "t": 104353.68462499873,
      "d": 32.520333333319286,
      "v": 71
    },
    {
      "midi": 65,
      "hit": false,
      "t": 104365.87974999873,
      "d": 126.01629166665953,
      "v": 45
    },
    {
      "midi": 54,
      "hit": false,
      "t": 104378.07487499873,
      "d": 195.12199999998847,
      "v": 29
    },
    {
      "midi": 60,
      "hit": false,
      "t": 104382.13991666539,
      "d": 130.0813333333208,
      "v": 31
    },
    {
      "midi": 75,
      "hit": false,
      "t": 104463.44074999871,
      "d": 44.71545833333221,
      "v": 57
    },
    {
      "midi": 76,
      "hit": false,
      "t": 104573.19687499871,
      "d": 28.455291666672565,
      "v": 31
    },
    {
      "midi": 78,
      "hit": false,
      "t": 104662.62779166539,
      "d": 52.845541666669305,
      "v": 67
    },
    {
      "midi": 80,
      "hit": false,
      "t": 104764.25383333206,
      "d": 65.04066666666768,
      "v": 71
    },
    {
      "midi": 82,
      "hit": false,
      "t": 104869.9449166654,
      "d": 44.715458333317656,
      "v": 64
    },
    {
      "midi": 60,
      "hit": false,
      "t": 104874.00995833206,
      "d": 48.78049999999348,
      "v": 36
    },
    {
      "midi": 50,
      "hit": false,
      "t": 104878.07499999872,
      "d": 121.95124999999825,
      "v": 36
    },
    {
      "midi": 54,
      "hit": false,
      "t": 104882.14004166538,
      "d": 105.69108333333861,
      "v": 34
    },
    {
      "midi": 84,
      "hit": false,
      "t": 104983.76608333206,
      "d": 60.97562499999185,
      "v": 52
    },
    {
      "midi": 86,
      "hit": false,
      "t": 105085.39212499872,
      "d": 56.91058333333058,
      "v": 43
    },
    {
      "midi": 87,
      "hit": false,
      "t": 105158.56287499871,
      "d": 48.78049999999348,
      "v": 53
    },
    {
      "midi": 88,
      "hit": false,
      "t": 105235.79866666537,
      "d": 44.71545833333221,
      "v": 36
    },
    {
      "midi": 89,
      "hit": false,
      "t": 105308.96941666538,
      "d": 56.91058333333058,
      "v": 55
    },
    {
      "midi": 43,
      "hit": false,
      "t": 105333.35966666538,
      "d": 48.78049999999348,
      "v": 49
    },
    {
      "midi": 86,
      "hit": false,
      "t": 105398.40033333203,
      "d": 101.62604166667734,
      "v": 57
    },
    {
      "midi": 81,
      "hit": false,
      "t": 105540.67679166538,
      "d": 44.71545833333221,
      "v": 45
    },
    {
      "midi": 84,
      "hit": false,
      "t": 105650.43291666538,
      "d": 89.43091666666442,
      "v": 87
    },
    {
      "midi": 82,
      "hit": false,
      "t": 105768.31912499871,
      "d": 60.9756250000064,
      "v": 75
    },
    {
      "midi": 62,
      "hit": false,
      "t": 105882.14029166539,
      "d": 329.26837499999965,
      "v": 40
    },
    {
      "midi": 58,
      "hit": false,
      "t": 105890.27037499873,
      "d": 353.6586249999964,
      "v": 36
    },
    {
      "midi": 60,
      "hit": false,
      "t": 105894.33541666539,
      "d": 207.3171250000014,
      "v": 36
    },
    {
      "midi": 78,
      "hit": false,
      "t": 105918.72566666538,
      "d": 85.36587500000314,
      "v": 31
    },
    {
      "midi": 81,
      "hit": false,
      "t": 106032.54683333206,
      "d": 101.62604166666279,
      "v": 68
    },
    {
      "midi": 79,
      "hit": false,
      "t": 106146.36799999872,
      "d": 85.36587500000314,
      "v": 58
    },
    {
      "midi": 74,
      "hit": false,
      "t": 106264.25420833206,
      "d": 56.91058333333058,
      "v": 49
    },
    {
      "midi": 76,
      "hit": false,
      "t": 106268.31924999872,
      "d": 24.39024999999674,
      "v": 40
    },
    {
      "midi": 62,
      "hit": false,
      "t": 106386.20545833206,
      "d": 341.46349999998347,
      "v": 34
    },
    {
      "midi": 57,
      "hit": false,
      "t": 106398.40058333206,
      "d": 394.3090416666528,
      "v": 31
    },
    {
      "midi": 58,
      "hit": false,
      "t": 106398.40058333206,
      "d": 829.2684999999619,
      "v": 25
    },
    {
      "midi": 72,
      "hit": false,
      "t": 106406.53066666538,
      "d": 560.9757499999832,
      "v": 25
    },
    {
      "midi": 70,
      "hit": false,
      "t": 106861.81533333204,
      "d": 313.0082083333109,
      "v": 53
    },
    {
      "midi": 62,
      "hit": false,
      "t": 106865.8803749987,
      "d": 321.138291666648,
      "v": 29
    },
    {
      "midi": 55,
      "hit": false,
      "t": 106874.01045833204,
      "d": 256.0976249999803,
      "v": 44
    },
    {
      "midi": 53,
      "hit": false,
      "t": 107166.69345833201,
      "d": 65.04066666666768,
      "v": 35
    },
    {
      "midi": 69,
      "hit": false,
      "t": 107329.29512499868,
      "d": 154.47158333331754,
      "v": 58
    },
    {
      "midi": 52,
      "hit": false,
      "t": 107333.36016666534,
      "d": 138.2114166666579,
      "v": 41
    },
    {
      "midi": 64,
      "hit": false,
      "t": 107333.36016666534,
      "d": 195.12199999998847,
      "v": 36
    },
    {
      "midi": 60,
      "hit": false,
      "t": 107337.425208332,
      "d": 101.62604166666279,
      "v": 24
    },
    {
      "midi": 58,
      "hit": false,
      "t": 107341.49024999866,
      "d": 121.95124999999825,
      "v": 21
    },
    {
      "midi": 55,
      "hit": false,
      "t": 107764.25458333199,
      "d": 36.58537499999511,
      "v": 32
    },
    {
      "midi": 58,
      "hit": false,
      "t": 107792.70987499866,
      "d": 357.72366666665766,
      "v": 51
    },
    {
      "midi": 67,
      "hit": false,
      "t": 107796.77491666532,
      "d": 426.8293749999866,
      "v": 46
    },
    {
      "midi": 57,
      "hit": false,
      "t": 107800.83995833198,
      "d": 317.0732500000013,
      "v": 45
    },
    {
      "midi": 64,
      "hit": false,
      "t": 107804.90499999865,
      "d": 292.68300000000454,
      "v": 55
    },
    {
      "midi": 61,
      "hit": false,
      "t": 107804.90499999865,
      "d": 369.9187916666706,
      "v": 61
    },
    {
      "midi": 48,
      "hit": false,
      "t": 108138.23841666532,
      "d": 1016.2604166666279,
      "v": 58
    },
    {
      "midi": 55,
      "hit": false,
      "t": 108296.7750416653,
      "d": 77.2357916666515,
      "v": 43
    },
    {
      "midi": 65,
      "hit": false,
      "t": 108296.7750416653,
      "d": 280.4878749999916,
      "v": 57
    },
    {
      "midi": 58,
      "hit": false,
      "t": 108300.84008333196,
      "d": 313.00820833332546,
      "v": 32
    },
    {
      "midi": 61,
      "hit": false,
      "t": 108304.90512499862,
      "d": 231.70737499999814,
      "v": 38
    },
    {
      "midi": 58,
      "hit": false,
      "t": 108743.92962499862,
      "d": 134.14637499999662,
      "v": 61
    },
    {
      "midi": 56,
      "hit": false,
      "t": 108747.99466666528,
      "d": 32.52033333333384,
      "v": 40
    },
    {
      "midi": 68,
      "hit": false,
      "t": 108747.99466666528,
      "d": 195.12200000000303,
      "v": 52
    },
    {
      "midi": 63,
      "hit": false,
      "t": 108752.05970833194,
      "d": 191.05695833334175,
      "v": 50
    },
    {
      "midi": 61,
      "hit": false,
      "t": 108760.18979166528,
      "d": 130.08133333333535,
      "v": 49
    },
    {
      "midi": 57,
      "hit": false,
      "t": 109073.19799999862,
      "d": 28.455291666658013,
      "v": 55
    },
    {
      "midi": 60,
      "hit": false,
      "t": 109073.19799999862,
      "d": 1589.4312916666677,
      "v": 61
    },
    {
      "midi": 64,
      "hit": false,
      "t": 109073.19799999862,
      "d": 1638.2117916666612,
      "v": 58
    },
    {
      "midi": 69,
      "hit": false,
      "t": 109077.26304166528,
      "d": 1658.5369999999966,
      "v": 56
    },
    {
      "midi": 47,
      "hit": false,
      "t": 109410.59645833194,
      "d": 93.49595833334024,
      "v": 47
    },
    {
      "midi": 48,
      "hit": false,
      "t": 109561.00299999861,
      "d": 121.95124999999825,
      "v": 65
    },
    {
      "midi": 48,
      "hit": false,
      "t": 109739.86483333194,
      "d": 544.7155833333381,
      "v": 50
    },
    {
      "midi": 36,
      "hit": false,
      "t": 110056.93808333194,
      "d": 56.91058333333058,
      "v": 48
    },
    {
      "midi": 36,
      "hit": false,
      "t": 110239.86495833195,
      "d": 73.17075000000477,
      "v": 56
    },
    {
      "midi": 48,
      "hit": false,
      "t": 110548.80812499863,
      "d": 162.60166666665464,
      "v": 68
    },
    {
      "midi": 36,
      "hit": false,
      "t": 110723.60491666528,
      "d": 20.325208333335468,
      "v": 67
    },
    {
      "midi": 76,
      "hit": false,
      "t": 111040.67816666528,
      "d": 276.42283333330124,
      "v": 87
    },
    {
      "midi": 84,
      "hit": false,
      "t": 111040.67816666528,
      "d": 308.9431666666351,
      "v": 84
    },
    {
      "midi": 79,
      "hit": false,
      "t": 111044.74320833194,
      "d": 296.7480416666367,
      "v": 77
    },
    {
      "midi": 72,
      "hit": false,
      "t": 111048.8082499986,
      "d": 247.96754166664323,
      "v": 82
    },
    {
      "midi": 67,
      "hit": false,
      "t": 111052.87329166527,
      "d": 317.07324999998673,
      "v": 88
    },
    {
      "midi": 62,
      "hit": false,
      "t": 111052.87329166527,
      "d": 333.3334166666464,
      "v": 81
    },
    {
      "midi": 56,
      "hit": false,
      "t": 111052.87329166527,
      "d": 357.7236666666431,
      "v": 82
    },
    {
      "midi": 83,
      "hit": false,
      "t": 111073.19849999859,
      "d": 268.29274999999325,
      "v": 34
    },
    {
      "midi": 90,
      "hit": false,
      "t": 111475.63762499858,
      "d": 20.325208333335468,
      "v": 25
    },
    {
      "midi": 93,
      "hit": false,
      "t": 111536.61324999858,
      "d": 483.7399583333172,
      "v": 91
    },
    {
      "midi": 56,
      "hit": false,
      "t": 111536.61324999858,
      "d": 565.0407916666591,
      "v": 85
    },
    {
      "midi": 62,
      "hit": false,
      "t": 111540.67829166524,
      "d": 455.2846666666592,
      "v": 89
    },
    {
      "midi": 67,
      "hit": false,
      "t": 111540.67829166524,
      "d": 479.6749166666559,
      "v": 92
    },
    {
      "midi": 81,
      "hit": false,
      "t": 111540.67829166524,
      "d": 508.1302083333285,
      "v": 85
    },
    {
      "midi": 88,
      "hit": false,
      "t": 111540.67829166524,
      "d": 520.3253333333269,
      "v": 84
    },
    {
      "midi": 65,
      "hit": false,
      "t": 112195.14999999858,
      "d": 146.3414999999659,
      "v": 57
    },
    {
      "midi": 60,
      "hit": false,
      "t": 112199.21504166524,
      "d": 138.21141666664334,
      "v": 46
    },
    {
      "midi": 95,
      "hit": false,
      "t": 112199.21504166524,
      "d": 178.86183333329973,
      "v": 66
    },
    {
      "midi": 83,
      "hit": false,
      "t": 112203.2800833319,
      "d": 150.40654166664171,
      "v": 53
    },
    {
      "midi": 61,
      "hit": false,
      "t": 112203.2800833319,
      "d": 154.471583333303,
      "v": 35
    },
    {
      "midi": 88,
      "hit": false,
      "t": 112211.41016666523,
      "d": 138.2114166666579,
      "v": 58
    },
    {
      "midi": 55,
      "hit": false,
      "t": 112215.47520833189,
      "d": 121.95124999999825,
      "v": 45
    },
    {
      "midi": 58,
      "hit": false,
      "t": 112227.67033333189,
      "d": 138.2114166666579,
      "v": 25
    },
    {
      "midi": 65,
      "hit": false,
      "t": 112666.69483333187,
      "d": 85.36587500000314,
      "v": 49
    },
    {
      "midi": 60,
      "hit": false,
      "t": 112666.69483333187,
      "d": 97.56100000000151,
      "v": 37
    },
    {
      "midi": 61,
      "hit": false,
      "t": 112666.69483333187,
      "d": 113.82116666666116,
      "v": 46
    },
    {
      "midi": 97,
      "hit": false,
      "t": 112674.82491666521,
      "d": 162.60166666665464,
      "v": 58
    },
    {
      "midi": 85,
      "hit": false,
      "t": 112678.88995833187,
      "d": 150.40654166665627,
      "v": 46
    },
    {
      "midi": 55,
      "hit": false,
      "t": 112687.02004166521,
      "d": 117.88620833332243,
      "v": 41
    },
    {
      "midi": 92,
      "hit": false,
      "t": 112687.02004166521,
      "d": 150.40654166665627,
      "v": 53
    },
    {
      "midi": 100,
      "hit": false,
      "t": 113174.8250416652,
      "d": 81.30083333332732,
      "v": 70
    },
    {
      "midi": 50,
      "hit": false,
      "t": 113182.95512499854,
      "d": 646.3416249999864,
      "v": 64
    },
    {
      "midi": 88,
      "hit": false,
      "t": 113187.0201666652,
      "d": 101.62604166664823,
      "v": 52
    },
    {
      "midi": 93,
      "hit": false,
      "t": 113191.08520833186,
      "d": 81.30083333332732,
      "v": 56
    },
    {
      "midi": 61,
      "hit": false,
      "t": 113504.09341666519,
      "d": 126.01629166665953,
      "v": 71
    },
    {
      "midi": 76,
      "hit": false,
      "t": 113504.09341666519,
      "d": 162.6016666666692,
      "v": 64
    },
    {
      "midi": 65,
      "hit": false,
      "t": 113516.28854166518,
      "d": 121.95124999999825,
      "v": 58
    },
    {
      "midi": 69,
      "hit": false,
      "t": 113516.28854166518,
      "d": 142.27645833333372,
      "v": 57
    },
    {
      "midi": 74,
      "hit": false,
      "t": 113699.21541666519,
      "d": 130.08133333333535,
      "v": 43
    },
    {
      "midi": 60,
      "hit": false,
      "t": 113707.34549999853,
      "d": 142.27645833333372,
      "v": 36
    },
    {
      "midi": 65,
      "hit": false,
      "t": 113711.41054166519,
      "d": 81.30083333332732,
      "v": 31
    },
    {
      "midi": 69,
      "hit": false,
      "t": 113711.41054166519,
      "d": 89.43091666666442,
      "v": 34
    },
    {
      "midi": 79,
      "hit": false,
      "t": 114004.09354166519,
      "d": 203.25208333331102,
      "v": 65
    },
    {
      "midi": 76,
      "hit": false,
      "t": 114008.15858333185,
      "d": 207.31712499998685,
      "v": 54
    },
    {
      "midi": 69,
      "hit": false,
      "t": 114008.15858333185,
      "d": 211.38216666664812,
      "v": 62
    },
    {
      "midi": 72,
      "hit": false,
      "t": 114012.22362499851,
      "d": 215.44720833332394,
      "v": 62
    },
    {
      "midi": 64,
      "hit": false,
      "t": 114020.35370833185,
      "d": 195.12199999998847,
      "v": 36
    },
    {
      "midi": 62,
      "hit": false,
      "t": 114028.48379166517,
      "d": 32.52033333333384,
      "v": 34
    },
    {
      "midi": 77,
      "hit": false,
      "t": 114284.58141666517,
      "d": 126.01629166667408,
      "v": 57
    },
    {
      "midi": 72,
      "hit": false,
      "t": 114292.7114999985,
      "d": 121.95124999999825,
      "v": 52
    },
    {
      "midi": 62,
      "hit": false,
      "t": 114292.7114999985,
      "d": 154.4715833333321,
      "v": 46
    },
    {
      "midi": 69,
      "hit": false,
      "t": 114292.7114999985,
      "d": 154.4715833333321,
      "v": 48
    },
    {
      "midi": 60,
      "hit": false,
      "t": 114621.9798749985,
      "d": 73.17074999999022,
      "v": 38
    },
    {
      "midi": 69,
      "hit": false,
      "t": 114630.10995833183,
      "d": 146.341499999995,
      "v": 45
    },
    {
      "midi": 65,
      "hit": false,
      "t": 114634.17499999849,
      "d": 186.99191666666593,
      "v": 30
    },
    {
      "midi": 50,
      "hit": false,
      "t": 114943.11816666515,
      "d": 93.49595833334024,
      "v": 46
    },
    {
      "midi": 43,
      "hit": false,
      "t": 115113.84991666516,
      "d": 24.39024999999674,
      "v": 45
    },
    {
      "midi": 69,
      "hit": false,
      "t": 115434.98820833182,
      "d": 150.40654166665627,
      "v": 62
    },
    {
      "midi": 62,
      "hit": false,
      "t": 115443.11829166516,
      "d": 386.1789583333157,
      "v": 38
    },
    {
      "midi": 58,
      "hit": false,
      "t": 115447.18333333182,
      "d": 398.3740833333286,
      "v": 30
    },
    {
      "midi": 57,
      "hit": false,
      "t": 115451.24837499848,
      "d": 1166.6669583333132,
      "v": 25
    },
    {
      "midi": 70,
      "hit": false,
      "t": 115585.39474999848,
      "d": 52.845541666669305,
      "v": 51
    },
    {
      "midi": 74,
      "hit": false,
      "t": 115715.47608333181,
      "d": 56.91058333333058,
      "v": 66
    },
    {
      "midi": 77,
      "hit": false,
      "t": 115837.42733333181,
      "d": 60.9756250000064,
      "v": 68
    },
    {
      "midi": 81,
      "hit": false,
      "t": 115955.31354166515,
      "d": 73.17075000000477,
      "v": 94
    },
    {
      "midi": 84,
      "hit": false,
      "t": 116069.13470833181,
      "d": 101.62604166666279,
      "v": 94
    },
    {
      "midi": 62,
      "hit": false,
      "t": 116073.19974999847,
      "d": 203.25208333334012,
      "v": 39
    },
    {
      "midi": 58,
      "hit": false,
      "t": 116073.19974999847,
      "d": 288.61795833334327,
      "v": 40
    },
    {
      "midi": 82,
      "hit": false,
      "t": 116199.21604166515,
      "d": 85.36587500000314,
      "v": 62
    },
    {
      "midi": 77,
      "hit": false,
      "t": 116337.42745833182,
      "d": 73.17074999999022,
      "v": 34
    },
    {
      "midi": 81,
      "hit": false,
      "t": 116439.05349999848,
      "d": 97.56100000000151,
      "v": 87
    },
    {
      "midi": 62,
      "hit": false,
      "t": 116561.00474999848,
      "d": 40.65041666665638,
      "v": 40
    },
    {
      "midi": 79,
      "hit": false,
      "t": 116565.06979166514,
      "d": 97.56099999998696,
      "v": 69
    },
    {
      "midi": 58,
      "hit": false,
      "t": 116569.1348333318,
      "d": 65.04066666665312,
      "v": 38
    },
    {
      "midi": 74,
      "hit": false,
      "t": 116687.02104166512,
      "d": 60.9756250000064,
      "v": 60
    },
    {
      "midi": 72,
      "hit": false,
      "t": 116808.97229166514,
      "d": 101.62604166666279,
      "v": 48
    },
    {
      "midi": 69,
      "hit": false,
      "t": 116943.11866666513,
      "d": 48.78049999999348,
      "v": 49
    },
    {
      "midi": 76,
      "hit": false,
      "t": 117052.87479166513,
      "d": 223.57729166666104,
      "v": 62
    },
    {
      "midi": 62,
      "hit": false,
      "t": 117052.87479166513,
      "d": 373.98383333333186,
      "v": 30
    },
    {
      "midi": 72,
      "hit": false,
      "t": 117061.00487499846,
      "d": 146.341499999995,
      "v": 58
    },
    {
      "midi": 56,
      "hit": false,
      "t": 117065.06991666512,
      "d": 853.6587500000169,
      "v": 52
    },
    {
      "midi": 67,
      "hit": false,
      "t": 117199.21629166511,
      "d": 97.56100000001607,
      "v": 34
    },
    {
      "midi": 79,
      "hit": false,
      "t": 117544.7448333318,
      "d": 101.62604166666279,
      "v": 74
    },
    {
      "midi": 67,
      "hit": false,
      "t": 117548.80987499846,
      "d": 28.455291666658013,
      "v": 49
    },
    {
      "midi": 72,
      "hit": false,
      "t": 117556.9399583318,
      "d": 81.30083333332732,
      "v": 71
    },
    {
      "midi": 62,
      "hit": false,
      "t": 117573.20012499846,
      "d": 36.58537499999511,
      "v": 34
    },
    {
      "midi": 67,
      "hit": false,
      "t": 117699.21641666513,
      "d": 154.4715833333321,
      "v": 48
    },
    {
      "midi": 76,
      "hit": false,
      "t": 117699.21641666513,
      "d": 841.4636249999894,
      "v": 45
    },
    {
      "midi": 56,
      "hit": false,
      "t": 118365.88324999847,
      "d": 93.49595833332569,
      "v": 47
    },
    {
      "midi": 67,
      "hit": false,
      "t": 118374.01333333181,
      "d": 56.91058333333058,
      "v": 34
    },
    {
      "midi": 62,
      "hit": false,
      "t": 118378.07837499847,
      "d": 65.04066666666768,
      "v": 40
    },
    {
      "midi": 56,
      "hit": false,
      "t": 118548.81012499846,
      "d": 191.0569583333272,
      "v": 43
    },
    {
      "midi": 67,
      "hit": false,
      "t": 118552.87516666512,
      "d": 134.14637499999662,
      "v": 36
    },
    {
      "midi": 62,
      "hit": false,
      "t": 118565.07029166512,
      "d": 121.95124999999825,
      "v": 34
    },
    {
      "midi": 65,
      "hit": false,
      "t": 118804.90774999846,
      "d": 577.2359166666429,
      "v": 57
    },
    {
      "midi": 84,
      "hit": false,
      "t": 118808.97279166512,
      "d": 93.49595833332569,
      "v": 91
    },
    {
      "midi": 60,
      "hit": false,
      "t": 118808.97279166512,
      "d": 585.36599999998,
      "v": 55
    },
    {
      "midi": 77,
      "hit": false,
      "t": 118813.03783333178,
      "d": 105.69108333333861,
      "v": 90
    },
    {
      "midi": 61,
      "hit": false,
      "t": 118813.03783333178,
      "d": 434.9594583333237,
      "v": 52
    },
    {
      "midi": 55,
      "hit": false,
      "t": 118817.10287499844,
      "d": 1126.0165416666568,
      "v": 53
    },
    {
      "midi": 72,
      "hit": false,
      "t": 118930.92404166512,
      "d": 93.49595833332569,
      "v": 48
    },
    {
      "midi": 82,
      "hit": false,
      "t": 118934.98908333178,
      "d": 93.49595833332569,
      "v": 47
    },
    {
      "midi": 84,
      "hit": false,
      "t": 119073.20049999843,
      "d": 97.56100000000151,
      "v": 77
    },
    {
      "midi": 77,
      "hit": false,
      "t": 119073.20049999843,
      "d": 121.95124999999825,
      "v": 66
    },
    {
      "midi": 82,
      "hit": false,
      "t": 119207.34687499843,
      "d": 455.2846666666592,
      "v": 50
    },
    {
      "midi": 72,
      "hit": false,
      "t": 119219.54199999843,
      "d": 479.6749166666559,
      "v": 44
    },
    {
      "midi": 80,
      "hit": false,
      "t": 119520.35508333176,
      "d": 134.14637499999662,
      "v": 14
    },
    {
      "midi": 65,
      "hit": false,
      "t": 119532.55020833176,
      "d": 247.96754166665778,
      "v": 37
    },
    {
      "midi": 60,
      "hit": false,
      "t": 119536.61524999842,
      "d": 272.3577916666691,
      "v": 35
    },
    {
      "midi": 61,
      "hit": false,
      "t": 119544.74533333175,
      "d": 304.8781250000029,
      "v": 35
    },
    {
      "midi": 76,
      "hit": false,
      "t": 120024.42024999842,
      "d": 60.9756249999773,
      "v": 49
    },
    {
      "midi": 55,
      "hit": false,
      "t": 120024.42024999842,
      "d": 69.10570833329984,
      "v": 30
    },
    {
      "midi": 60,
      "hit": false,
      "t": 120028.48529166509,
      "d": 60.9756249999773,
      "v": 37
    },
    {
      "midi": 64,
      "hit": false,
      "t": 120032.55033333175,
      "d": 48.78049999999348,
      "v": 35
    },
    {
      "midi": 61,
      "hit": false,
      "t": 120032.55033333175,
      "d": 65.04066666663857,
      "v": 25
    },
    {
      "midi": 77,
      "hit": false,
      "t": 120166.69670833171,
      "d": 239.83745833332068,
      "v": 78
    },
    {
      "midi": 61,
      "hit": false,
      "t": 120166.69670833171,
      "d": 268.29274999999325,
      "v": 50
    },
    {
      "midi": 65,
      "hit": false,
      "t": 120170.76174999838,
      "d": 219.51224999999977,
      "v": 70
    },
    {
      "midi": 60,
      "hit": false,
      "t": 120170.76174999838,
      "d": 243.9024999999965,
      "v": 53
    },
    {
      "midi": 55,
      "hit": false,
      "t": 120174.82679166504,
      "d": 239.83745833333523,
      "v": 54
    },
    {
      "midi": 55,
      "hit": false,
      "t": 120495.96508333171,
      "d": 186.99191666665138,
      "v": 38
    },
    {
      "midi": 61,
      "hit": false,
      "t": 120500.03012499837,
      "d": 158.53662499999336,
      "v": 37
    },
    {
      "midi": 79,
      "hit": false,
      "t": 120500.03012499837,
      "d": 280.48787499997707,
      "v": 60
    },
    {
      "midi": 67,
      "hit": false,
      "t": 120504.09516666504,
      "d": 227.6423333333223,
      "v": 52
    },
    {
      "midi": 65,
      "hit": false,
      "t": 120508.1602083317,
      "d": 130.08133333333535,
      "v": 42
    },
    {
      "midi": 60,
      "hit": false,
      "t": 120508.1602083317,
      "d": 142.27645833333372,
      "v": 37
    },
    {
      "midi": 57,
      "hit": false,
      "t": 120841.49362499836,
      "d": 36.58537499999511,
      "v": 35
    },
    {
      "midi": 60,
      "hit": false,
      "t": 120995.96520833169,
      "d": 235.77241666664486,
      "v": 64
    },
    {
      "midi": 81,
      "hit": false,
      "t": 120995.96520833169,
      "d": 280.4878749999625,
      "v": 66
    },
    {
      "midi": 77,
      "hit": false,
      "t": 121000.03024999835,
      "d": 260.1626666666416,
      "v": 65
    },
    {
      "midi": 57,
      "hit": false,
      "t": 121004.09529166501,
      "d": 182.9268749999901,
      "v": 42
    },
    {
      "midi": 69,
      "hit": false,
      "t": 121004.09529166501,
      "d": 252.03258333331905,
      "v": 62
    },
    {
      "midi": 50,
      "hit": false,
      "t": 121008.16033333167,
      "d": 613.8212916666525,
      "v": 36
    },
    {
      "midi": 53,
      "hit": false,
      "t": 121016.29041666501,
      "d": 203.25208333332557,
      "v": 37
    },
    {
      "midi": 60,
      "hit": false,
      "t": 121491.90029166499,
      "d": 150.40654166667082,
      "v": 56
    },
    {
      "midi": 57,
      "hit": false,
      "t": 121508.16045833165,
      "d": 93.49595833334024,
      "v": 36
    },
    {
      "midi": 53,
      "hit": false,
      "t": 121516.29054166499,
      "d": 85.36587500000314,
      "v": 34
    },
    {
      "midi": 68,
      "hit": false,
      "t": 121951.24999999833,
      "d": 398.37408333331405,
      "v": 75
    },
    {
      "midi": 57,
      "hit": false,
      "t": 121955.31504166499,
      "d": 373.9838333333173,
      "v": 60
    },
    {
      "midi": 73,
      "hit": false,
      "t": 121955.31504166499,
      "d": 414.63424999998824,
      "v": 98
    },
    {
      "midi": 63,
      "hit": false,
      "t": 121959.38008333165,
      "d": 365.85374999999476,
      "v": 58
    },
    {
      "midi": 61,
      "hit": false,
      "t": 121959.38008333165,
      "d": 382.1139166666544,
      "v": 53
    },
    {
      "midi": 68,
      "hit": false,
      "t": 122447.18508333164,
      "d": 252.0325833333045,
      "v": 72
    },
    {
      "midi": 74,
      "hit": false,
      "t": 122451.2501249983,
      "d": 223.5772916666465,
      "v": 96
    },
    {
      "midi": 61,
      "hit": false,
      "t": 122455.31516666496,
      "d": 430.8944166666479,
      "v": 50
    },
    {
      "midi": 63,
      "hit": false,
      "t": 122455.31516666496,
      "d": 434.95945833330916,
      "v": 54
    },
    {
      "midi": 57,
      "hit": false,
      "t": 122459.38020833163,
      "d": 256.0976249999803,
      "v": 53
    },
    {
      "midi": 67,
      "hit": false,
      "t": 122918.72991666495,
      "d": 280.48787499997707,
      "v": 68
    },
    {
      "midi": 77,
      "hit": false,
      "t": 122918.72991666495,
      "d": 321.138291666648,
      "v": 90
    },
    {
      "midi": 62,
      "hit": false,
      "t": 122922.79495833161,
      "d": 410.5692083333124,
      "v": 48
    },
    {
      "midi": 56,
      "hit": false,
      "t": 122922.79495833161,
      "d": 422.7643333333108,
      "v": 54
    },
    {
      "midi": 76,
      "hit": false,
      "t": 123109.78687499827,
      "d": 85.36587499998859,
      "v": 48
    },
    {
      "midi": 75,
      "hit": false,
      "t": 123158.56737499827,
      "d": 81.30083333332732,
      "v": 44
    },
    {
      "midi": 74,
      "hit": false,
      "t": 123243.93324999826,
      "d": 73.17075000000477,
      "v": 35
    },
    {
      "midi": 56,
      "hit": false,
      "t": 123459.3804583316,
      "d": 272.3577916666545,
      "v": 37
    },
    {
      "midi": 67,
      "hit": false,
      "t": 123463.44549999826,
      "d": 186.99191666666593,
      "v": 34
    },
    {
      "midi": 62,
      "hit": false,
      "t": 123463.44549999826,
      "d": 191.0569583333272,
      "v": 37
    },
    {
      "midi": 60,
      "hit": false,
      "t": 123784.58379166492,
      "d": 548.7806249999849,
      "v": 53
    },
    {
      "midi": 65,
      "hit": false,
      "t": 123788.64883333158,
      "d": 524.3903749999881,
      "v": 68
    },
    {
      "midi": 61,
      "hit": false,
      "t": 123788.64883333158,
      "d": 556.910708333322,
      "v": 60
    },
    {
      "midi": 55,
      "hit": false,
      "t": 123792.71387499824,
      "d": 597.5611249999929,
      "v": 68
    },
    {
      "midi": 58,
      "hit": false,
      "t": 123813.03908333158,
      "d": 565.0407916666591,
      "v": 27
    },
    {
      "midi": 88,
      "hit": false,
      "t": 124113.8521666649,
      "d": 73.17074999999022,
      "v": 79
    },
    {
      "midi": 76,
      "hit": false,
      "t": 124117.91720833156,
      "d": 56.91058333333058,
      "v": 71
    },
    {
      "midi": 87,
      "hit": false,
      "t": 124272.3887916649,
      "d": 48.78050000000803,
      "v": 42
    },
    {
      "midi": 88,
      "hit": false,
      "t": 124406.5351666649,
      "d": 203.25208333334012,
      "v": 83
    },
    {
      "midi": 76,
      "hit": false,
      "t": 124414.66524999823,
      "d": 142.27645833333372,
      "v": 69
    },
    {
      "midi": 45,
      "hit": false,
      "t": 124691.08808333156,
      "d": 186.99191666666593,
      "v": 91
    },
    {
      "midi": 38,
      "hit": false,
      "t": 124699.2181666649,
      "d": 158.53662499999336,
      "v": 85
    },
    {
      "midi": 60,
      "hit": false,
      "t": 125382.1451666649,
      "d": 552.8456666666607,
      "v": 80
    },
    {
      "midi": 55,
      "hit": false,
      "t": 125382.1451666649,
      "d": 577.2359166666574,
      "v": 87
    },
    {
      "midi": 65,
      "hit": false,
      "t": 125386.21020833155,
      "d": 532.5204583333398,
      "v": 82
    },
    {
      "midi": 45,
      "hit": false,
      "t": 126296.77954166487,
      "d": 89.43091666664986,
      "v": 81
    },
    {
      "midi": 38,
      "hit": false,
      "t": 126300.84458333153,
      "d": 60.97562499999185,
      "v": 80
    },
    {
      "midi": 85,
      "hit": false,
      "t": 126613.85279166486,
      "d": 28.455291666672565,
      "v": 33
    },
    {
      "midi": 74,
      "hit": false,
      "t": 126817.1048749982,
      "d": 203.25208333331102,
      "v": 92
    },
    {
      "midi": 86,
      "hit": false,
      "t": 126817.1048749982,
      "d": 211.38216666663357,
      "v": 88
    },
    {
      "midi": 55,
      "hit": false,
      "t": 126821.16991666486,
      "d": 203.25208333331102,
      "v": 92
    },
    {
      "midi": 81,
      "hit": false,
      "t": 126821.16991666486,
      "d": 219.51224999997066,
      "v": 78
    },
    {
      "midi": 65,
      "hit": false,
      "t": 126821.16991666486,
      "d": 227.64233333330776,
      "v": 89
    },
    {
      "midi": 60,
      "hit": false,
      "t": 126825.23495833152,
      "d": 191.0569583333272,
      "v": 77
    },
    {
      "midi": 88,
      "hit": false,
      "t": 127146.37324999817,
      "d": 126.01629166665953,
      "v": 91
    },
    {
      "midi": 76,
      "hit": false,
      "t": 127150.43829166483,
      "d": 126.01629166665953,
      "v": 85
    },
    {
      "midi": 57,
      "hit": false,
      "t": 127150.43829166483,
      "d": 130.0813333333208,
      "v": 83
    },
    {
      "midi": 81,
      "hit": false,
      "t": 127154.5033333315,
      "d": 117.88620833333698,
      "v": 83
    },
    {
      "midi": 67,
      "hit": false,
      "t": 127154.5033333315,
      "d": 134.14637499999662,
      "v": 84
    },
    {
      "midi": 62,
      "hit": false,
      "t": 127154.5033333315,
      "d": 154.4715833333321,
      "v": 83
    },
    {
      "midi": 57,
      "hit": false,
      "t": 127325.23508333148,
      "d": 178.86183333332883,
      "v": 68
    },
    {
      "midi": 88,
      "hit": false,
      "t": 127329.30012499815,
      "d": 142.27645833333372,
      "v": 71
    },
    {
      "midi": 62,
      "hit": false,
      "t": 127329.30012499815,
      "d": 150.40654166667082,
      "v": 43
    },
    {
      "midi": 67,
      "hit": false,
      "t": 127333.36516666481,
      "d": 174.79679166666756,
      "v": 79
    },
    {
      "midi": 76,
      "hit": false,
      "t": 127333.36516666481,
      "d": 195.12200000000303,
      "v": 68
    },
    {
      "midi": 81,
      "hit": false,
      "t": 127337.43020833147,
      "d": 191.05695833334175,
      "v": 74
    },
    {
      "midi": 55,
      "hit": false,
      "t": 127642.30833333147,
      "d": 69.1057083333144,
      "v": 62
    },
    {
      "midi": 65,
      "hit": false,
      "t": 127642.30833333147,
      "d": 69.1057083333144,
      "v": 65
    },
    {
      "midi": 86,
      "hit": false,
      "t": 127642.30833333147,
      "d": 73.17074999997567,
      "v": 70
    },
    {
      "midi": 74,
      "hit": false,
      "t": 127646.37337499813,
      "d": 48.78049999999348,
      "v": 66
    },
    {
      "midi": 60,
      "hit": false,
      "t": 127646.37337499813,
      "d": 77.2357916666515,
      "v": 61
    },
    {
      "midi": 81,
      "hit": false,
      "t": 127650.4384166648,
      "d": 65.04066666665312,
      "v": 66
    },
    {
      "midi": 88,
      "hit": false,
      "t": 127813.04008333145,
      "d": 182.92687499997555,
      "v": 84
    },
    {
      "midi": 67,
      "hit": false,
      "t": 127817.10512499811,
      "d": 142.27645833333372,
      "v": 82
    },
    {
      "midi": 62,
      "hit": false,
      "t": 127817.10512499811,
      "d": 146.341499999995,
      "v": 85
    },
    {
      "midi": 76,
      "hit": false,
      "t": 127817.10512499811,
      "d": 150.40654166665627,
      "v": 78
    },
    {
      "midi": 81,
      "hit": false,
      "t": 127817.10512499811,
      "d": 150.40654166665627,
      "v": 83
    },
    {
      "midi": 57,
      "hit": false,
      "t": 127825.23520833145,
      "d": 146.34149999998044,
      "v": 78
    },
    {
      "midi": 55,
      "hit": false,
      "t": 128121.98324999808,
      "d": 109.75612499998533,
      "v": 80
    },
    {
      "midi": 65,
      "hit": false,
      "t": 128121.98324999808,
      "d": 109.75612499998533,
      "v": 74
    },
    {
      "midi": 89,
      "hit": false,
      "t": 128121.98324999808,
      "d": 117.88620833332243,
      "v": 81
    },
    {
      "midi": 77,
      "hit": false,
      "t": 128126.04829166475,
      "d": 85.36587499998859,
      "v": 81
    },
    {
      "midi": 60,
      "hit": false,
      "t": 128126.04829166475,
      "d": 117.88620833332243,
      "v": 77
    },
    {
      "midi": 84,
      "hit": false,
      "t": 128130.1133333314,
      "d": 101.62604166666279,
      "v": 75
    },
    {
      "midi": 55,
      "hit": false,
      "t": 128292.71499999806,
      "d": 101.62604166664823,
      "v": 68
    },
    {
      "midi": 60,
      "hit": false,
      "t": 128296.78004166472,
      "d": 77.23579166666605,
      "v": 75
    },
    {
      "midi": 65,
      "hit": false,
      "t": 128300.84508333138,
      "d": 60.9756250000064,
      "v": 64
    },
    {
      "midi": 91,
      "hit": false,
      "t": 128300.84508333138,
      "d": 113.82116666666116,
      "v": 78
    },
    {
      "midi": 79,
      "hit": false,
      "t": 128308.97516666472,
      "d": 81.30083333332732,
      "v": 69
    },
    {
      "midi": 86,
      "hit": false,
      "t": 128308.97516666472,
      "d": 105.69108333332406,
      "v": 73
    },
    {
      "midi": 93,
      "hit": false,
      "t": 128609.78824999805,
      "d": 215.44720833332394,
      "v": 94
    },
    {
      "midi": 57,
      "hit": false,
      "t": 128609.78824999805,
      "d": 317.07324999998673,
      "v": 82
    },
    {
      "midi": 58,
      "hit": false,
      "t": 128609.78824999805,
      "d": 333.3334166666464,
      "v": 77
    },
    {
      "midi": 62,
      "hit": false,
      "t": 128609.78824999805,
      "d": 349.593583333306,
      "v": 95
    },
    {
      "midi": 86,
      "hit": false,
      "t": 128613.85329166471,
      "d": 231.70737499999814,
      "v": 88
    },
    {
      "midi": 81,
      "hit": false,
      "t": 128613.85329166471,
      "d": 272.3577916666691,
      "v": 94
    },
    {
      "midi": 52,
      "hit": false,
      "t": 128613.85329166471,
      "d": 308.9431666666642,
      "v": 85
    },
    {
      "midi": 81,
      "hit": false,
      "t": 129093.52820833135,
      "d": 105.6910833333095,
      "v": 82
    },
    {
      "midi": 70,
      "hit": false,
      "t": 129097.59324999801,
      "d": 105.6910833333095,
      "v": 88
    },
    {
      "midi": 69,
      "hit": false,
      "t": 129101.65829166467,
      "d": 113.8211666666466,
      "v": 94
    },
    {
      "midi": 74,
      "hit": false,
      "t": 129101.65829166467,
      "d": 113.8211666666466,
      "v": 81
    },
    {
      "midi": 76,
      "hit": false,
      "t": 129105.72333333133,
      "d": 109.75612499998533,
      "v": 71
    },
    {
      "midi": 69,
      "hit": false,
      "t": 129243.93474999799,
      "d": 97.56099999998696,
      "v": 68
    },
    {
      "midi": 81,
      "hit": false,
      "t": 129247.99979166465,
      "d": 101.62604166666279,
      "v": 71
    },
    {
      "midi": 70,
      "hit": false,
      "t": 129256.12987499798,
      "d": 85.36587500000314,
      "v": 52
    },
    {
      "midi": 74,
      "hit": false,
      "t": 129264.25995833131,
      "d": 69.10570833332895,
      "v": 76
    },
    {
      "midi": 76,
      "hit": false,
      "t": 129268.32499999797,
      "d": 65.04066666666768,
      "v": 64
    },
    {
      "midi": 70,
      "hit": false,
      "t": 129443.12179166466,
      "d": 56.910583333316026,
      "v": 62
    },
    {
      "midi": 76,
      "hit": false,
      "t": 129451.251874998,
      "d": 56.910583333316026,
      "v": 57
    },
    {
      "midi": 74,
      "hit": false,
      "t": 129455.31691666465,
      "d": 28.455291666658013,
      "v": 54
    },
    {
      "midi": 70,
      "hit": false,
      "t": 129601.65841666465,
      "d": 69.10570833332895,
      "v": 63
    },
    {
      "midi": 74,
      "hit": false,
      "t": 129605.72345833131,
      "d": 93.49595833334024,
      "v": 76
    },
    {
      "midi": 70,
      "hit": false,
      "t": 129752.06495833132,
      "d": 134.14637499998207,
      "v": 86
    },
    {
      "midi": 69,
      "hit": false,
      "t": 129752.06495833132,
      "d": 207.31712499998685,
      "v": 78
    },
    {
      "midi": 79,
      "hit": false,
      "t": 129756.12999999798,
      "d": 113.82116666666116,
      "v": 79
    },
    {
      "midi": 74,
      "hit": false,
      "t": 129756.12999999798,
      "d": 146.34149999998044,
      "v": 72
    },
    {
      "midi": 70,
      "hit": false,
      "t": 129922.7967083313,
      "d": 65.04066666668223,
      "v": 45
    },
    {
      "midi": 79,
      "hit": false,
      "t": 129930.92679166463,
      "d": 28.455291666672565,
      "v": 53
    },
    {
      "midi": 74,
      "hit": false,
      "t": 129939.05687499797,
      "d": 28.455291666672565,
      "v": 27
    },
    {
      "midi": 62,
      "hit": false,
      "t": 130113.85366666464,
      "d": 32.52033333333384,
      "v": 37
    },
    {
      "midi": 67,
      "hit": false,
      "t": 130272.39029166463,
      "d": 65.04066666666768,
      "v": 49
    },
    {
      "midi": 74,
      "hit": false,
      "t": 130276.4553333313,
      "d": 89.43091666667897,
      "v": 44
    },
    {
      "midi": 62,
      "hit": false,
      "t": 130276.4553333313,
      "d": 101.62604166667734,
      "v": 41
    },
    {
      "midi": 65,
      "hit": false,
      "t": 130439.05699999798,
      "d": 60.9756249999773,
      "v": 66
    },
    {
      "midi": 74,
      "hit": false,
      "t": 130443.12204166464,
      "d": 93.49595833332569,
      "v": 65
    },
    {
      "midi": 70,
      "hit": false,
      "t": 130447.1870833313,
      "d": 73.17074999999022,
      "v": 71
    },
    {
      "midi": 67,
      "hit": false,
      "t": 130447.1870833313,
      "d": 81.30083333332732,
      "v": 81
    },
    {
      "midi": 77,
      "hit": false,
      "t": 130451.25212499796,
      "d": 89.43091666666442,
      "v": 72
    },
    {
      "midi": 77,
      "hit": false,
      "t": 130601.65866666463,
      "d": 48.78050000000803,
      "v": 54
    },
    {
      "midi": 67,
      "hit": false,
      "t": 130609.78874999797,
      "d": 56.91058333333058,
      "v": 44
    },
    {
      "midi": 70,
      "hit": false,
      "t": 130609.78874999797,
      "d": 69.10570833332895,
      "v": 57
    },
    {
      "midi": 61,
      "hit": false,
      "t": 130756.13024999796,
      "d": 65.04066666665312,
      "v": 58
    },
    {
      "midi": 55,
      "hit": false,
      "t": 130756.13024999796,
      "d": 89.43091666664986,
      "v": 62
    },
    {
      "midi": 67,
      "hit": false,
      "t": 130768.32537499796,
      "d": 56.910583333316026,
      "v": 35
    },
    {
      "midi": 70,
      "hit": false,
      "t": 130772.39041666462,
      "d": 48.78049999999348,
      "v": 36
    },
    {
      "midi": 73,
      "hit": false,
      "t": 130772.39041666462,
      "d": 73.17074999999022,
      "v": 40
    },
    {
      "midi": 73,
      "hit": false,
      "t": 130926.86199999794,
      "d": 60.9756250000064,
      "v": 31
    },
    {
      "midi": 76,
      "hit": false,
      "t": 131073.20349999794,
      "d": 85.3658750000177,
      "v": 84
    },
    {
      "midi": 67,
      "hit": false,
      "t": 131077.2685416646,
      "d": 77.23579166666605,
      "v": 80
    },
    {
      "midi": 45,
      "hit": false,
      "t": 131077.2685416646,
      "d": 89.43091666666442,
      "v": 68
    },
    {
      "midi": 70,
      "hit": false,
      "t": 131077.2685416646,
      "d": 93.49595833334024,
      "v": 80
    },
    {
      "midi": 55,
      "hit": false,
      "t": 131089.4636666646,
      "d": 113.82116666666116,
      "v": 62
    },
    {
      "midi": 67,
      "hit": false,
      "t": 131248.00029166462,
      "d": 44.71545833334676,
      "v": 57
    },
    {
      "midi": 76,
      "hit": false,
      "t": 131252.0653333313,
      "d": 24.39024999999674,
      "v": 25
    },
    {
      "midi": 69,
      "hit": false,
      "t": 131410.6019583313,
      "d": 105.69108333336771,
      "v": 68
    },
    {
      "midi": 61,
      "hit": false,
      "t": 131414.66699999798,
      "d": 85.3658750000177,
      "v": 67
    },
    {
      "midi": 65,
      "hit": false,
      "t": 131418.73204166465,
      "d": 93.49595833334024,
      "v": 68
    },
    {
      "midi": 57,
      "hit": false,
      "t": 131430.92716666465,
      "d": 199.18704166670796,
      "v": 38
    },
    {
      "midi": 69,
      "hit": false,
      "t": 131573.20362499802,
      "d": 40.650416666670935,
      "v": 54
    },
    {
      "midi": 61,
      "hit": false,
      "t": 131577.2686666647,
      "d": 56.91058333334513,
      "v": 52
    },
    {
      "midi": 65,
      "hit": false,
      "t": 131585.398749998,
      "d": 28.455291666672565,
      "v": 38
    },
    {
      "midi": 72,
      "hit": false,
      "t": 131719.54512499803,
      "d": 89.43091666669352,
      "v": 71
    },
    {
      "midi": 61,
      "hit": false,
      "t": 131723.6101666647,
      "d": 97.56100000001607,
      "v": 72
    },
    {
      "midi": 65,
      "hit": false,
      "t": 131727.67520833138,
      "d": 89.43091666666442,
      "v": 70
    },
    {
      "midi": 55,
      "hit": false,
      "t": 131727.67520833138,
      "d": 284.55291666666744,
      "v": 57
    },
    {
      "midi": 69,
      "hit": false,
      "t": 131731.74024999805,
      "d": 85.36587499998859,
      "v": 65
    },
    {
      "midi": 72,
      "hit": false,
      "t": 131882.1467916647,
      "d": 24.39024999999674,
      "v": 32
    },
    {
      "midi": 61,
      "hit": false,
      "t": 131886.21183333138,
      "d": 56.910583333316026,
      "v": 37
    },
    {
      "midi": 61,
      "hit": false,
      "t": 132032.55333333137,
      "d": 93.49595833336934,
      "v": 60
    },
    {
      "midi": 58,
      "hit": false,
      "t": 132036.61837499804,
      "d": 109.75612500001444,
      "v": 53
    },
    {
      "midi": 64,
      "hit": false,
      "t": 132040.68341666472,
      "d": 85.3658750000177,
      "v": 60
    },
    {
      "midi": 45,
      "hit": false,
      "t": 132044.7484583314,
      "d": 154.4715833333321,
      "v": 47
    },
    {
      "midi": 58,
      "hit": false,
      "t": 132203.2850833314,
      "d": 56.910583333316026,
      "v": 38
    },
    {
      "midi": 64,
      "hit": false,
      "t": 132215.4802083314,
      "d": 77.23579166663694,
      "v": 43
    },
    {
      "midi": 61,
      "hit": false,
      "t": 132223.61029166472,
      "d": 24.39024999999674,
      "v": 35
    },
    {
      "midi": 58,
      "hit": false,
      "t": 132374.01683333138,
      "d": 93.49595833336934,
      "v": 63
    },
    {
      "midi": 67,
      "hit": false,
      "t": 132378.08187499805,
      "d": 69.1057083333726,
      "v": 54
    },
    {
      "midi": 61,
      "hit": false,
      "t": 132382.14691666473,
      "d": 93.49595833336934,
      "v": 61
    },
    {
      "midi": 64,
      "hit": false,
      "t": 132386.2119583314,
      "d": 85.3658750000177,
      "v": 46
    },
    {
      "midi": 49,
      "hit": false,
      "t": 132390.27699999808,
      "d": 60.975625000020955,
      "v": 54
    },
    {
      "midi": 58,
      "hit": false,
      "t": 132528.48841666477,
      "d": 69.1057083333435,
      "v": 44
    },
    {
      "midi": 67,
      "hit": false,
      "t": 132532.55345833144,
      "d": 32.52033333334839,
      "v": 39
    },
    {
      "midi": 61,
      "hit": false,
      "t": 132536.61849999812,
      "d": 73.17074999999022,
      "v": 55
    },
    {
      "midi": 50,
      "hit": false,
      "t": 132687.02504166478,
      "d": 56.91058333334513,
      "v": 34
    },
    {
      "midi": 38,
      "hit": false,
      "t": 132687.02504166478,
      "d": 983.7400833333377,
      "v": 47
    },
    {
      "midi": 60,
      "hit": false,
      "t": 132699.22016666477,
      "d": 60.975625000020955,
      "v": 43
    },
    {
      "midi": 57,
      "hit": false,
      "t": 132703.28520833145,
      "d": 36.58537499999511,
      "v": 29
    },
    {
      "midi": 45,
      "hit": false,
      "t": 132703.28520833145,
      "d": 239.83745833332068,
      "v": 27
    },
    {
      "midi": 60,
      "hit": false,
      "t": 132865.88687499813,
      "d": 20.325208333320916,
      "v": 48
    },
    {
      "midi": 57,
      "hit": false,
      "t": 132865.88687499813,
      "d": 40.65041666664183,
      "v": 39
    },
    {
      "midi": 64,
      "hit": false,
      "t": 133024.4234999981,
      "d": 93.49595833334024,
      "v": 75
    },
    {
      "midi": 49,
      "hit": false,
      "t": 133024.4234999981,
      "d": 247.96754166667233,
      "v": 52
    },
    {
      "midi": 57,
      "hit": false,
      "t": 133028.4885416648,
      "d": 97.56099999998696,
      "v": 67
    },
    {
      "midi": 53,
      "hit": false,
      "t": 133028.4885416648,
      "d": 101.62604166666279,
      "v": 72
    },
    {
      "midi": 64,
      "hit": false,
      "t": 133182.96012499812,
      "d": 85.36587499998859,
      "v": 48
    },
    {
      "midi": 57,
      "hit": false,
      "t": 133341.4967499981,
      "d": 81.30083333331277,
      "v": 54
    },
    {
      "midi": 53,
      "hit": false,
      "t": 133345.56179166478,
      "d": 56.910583333316026,
      "v": 45
    },
    {
      "midi": 48,
      "hit": false,
      "t": 133357.75691666477,
      "d": 243.9024999999965,
      "v": 49
    },
    {
      "midi": 57,
      "hit": false,
      "t": 133491.90329166476,
      "d": 69.1057083333435,
      "v": 43
    },
    {
      "midi": 53,
      "hit": false,
      "t": 133646.37487499812,
      "d": 77.23579166666605,
      "v": 48
    },
    {
      "midi": 62,
      "hit": false,
      "t": 133646.37487499812,
      "d": 77.23579166666605,
      "v": 51
    },
    {
      "midi": 57,
      "hit": false,
      "t": 133646.37487499812,
      "d": 85.36587499998859,
      "v": 54
    },
    {
      "midi": 45,
      "hit": false,
      "t": 133650.4399166648,
      "d": 357.72366666668677,
      "v": 46
    },
    {
      "midi": 62,
      "hit": false,
      "t": 133788.65133333145,
      "d": 97.56100000001607,
      "v": 38
    },
    {
      "midi": 38,
      "hit": false,
      "t": 133947.18795833146,
      "d": 109.75612500004354,
      "v": 71
    },
    {
      "midi": 53,
      "hit": false,
      "t": 133951.25299999813,
      "d": 65.04066666669678,
      "v": 48
    },
    {
      "midi": 57,
      "hit": false,
      "t": 133963.44812499813,
      "d": 48.780500000022585,
      "v": 43
    },
    {
      "midi": 57,
      "hit": false,
      "t": 134109.78962499817,
      "d": 85.36587499998859,
      "v": 51
    },
    {
      "midi": 58,
      "hit": false,
      "t": 134272.39129166483,
      "d": 97.56099999998696,
      "v": 60
    },
    {
      "midi": 60,
      "hit": false,
      "t": 134410.60270833148,
      "d": 130.08133333333535,
      "v": 64
    },
    {
      "midi": 62,
      "hit": false,
      "t": 134581.33445833146,
      "d": 93.49595833334024,
      "v": 62
    },
    {
      "midi": 50,
      "hit": false,
      "t": 134589.46454166478,
      "d": 268.29274999999325,
      "v": 41
    },
    {
      "midi": 54,
      "hit": false,
      "t": 134593.52958333146,
      "d": 288.61795833331416,
      "v": 46
    },
    {
      "midi": 60,
      "hit": false,
      "t": 134593.52958333146,
      "d": 321.13829166666255,
      "v": 26
    },
    {
      "midi": 63,
      "hit": false,
      "t": 134699.2206666648,
      "d": 44.715458333317656,
      "v": 57
    },
    {
      "midi": 65,
      "hit": false,
      "t": 134788.65158333143,
      "d": 36.58537499999511,
      "v": 50
    },
    {
      "midi": 66,
      "hit": false,
      "t": 134853.6922499981,
      "d": 44.71545833334676,
      "v": 49
    },
    {
      "midi": 68,
      "hit": false,
      "t": 134910.60283333145,
      "d": 20.32520833335002,
      "v": 49
    },
    {
      "midi": 69,
      "hit": false,
      "t": 134963.44837499812,
      "d": 44.71545833334676,
      "v": 50
    },
    {
      "midi": 71,
      "hit": false,
      "t": 135044.74920833146,
      "d": 20.325208333320916,
      "v": 55
    },
    {
      "midi": 72,
      "hit": false,
      "t": 135170.76549999812,
      "d": 20.325208333320916,
      "v": 68
    },
    {
      "midi": 74,
      "hit": false,
      "t": 135304.9118749981,
      "d": 44.71545833334676,
      "v": 74
    },
    {
      "midi": 75,
      "hit": false,
      "t": 135414.6679999981,
      "d": 48.78049999999348,
      "v": 72
    },
    {
      "midi": 77,
      "hit": false,
      "t": 135524.4241249981,
      "d": 48.78049999999348,
      "v": 77
    },
    {
      "midi": 78,
      "hit": false,
      "t": 135642.31033333144,
      "d": 69.1057083333435,
      "v": 74
    },
    {
      "midi": 65,
      "hit": false,
      "t": 135658.5704999981,
      "d": 191.0569583333272,
      "v": 48
    },
    {
      "midi": 60,
      "hit": false,
      "t": 135666.70058333143,
      "d": 524.3903750000172,
      "v": 52
    },
    {
      "midi": 54,
      "hit": false,
      "t": 135666.70058333143,
      "d": 536.5855000000156,
      "v": 36
    },
    {
      "midi": 80,
      "hit": false,
      "t": 135772.39166666477,
      "d": 69.1057083333435,
      "v": 59
    },
    {
      "midi": 81,
      "hit": false,
      "t": 135882.1477916648,
      "d": 65.04066666666768,
      "v": 60
    },
    {
      "midi": 82,
      "hit": false,
      "t": 135991.9039166648,
      "d": 60.97562499999185,
      "v": 57
    },
    {
      "midi": 83,
      "hit": false,
      "t": 136101.66004166479,
      "d": 65.04066666666768,
      "v": 63
    },
    {
      "midi": 64,
      "hit": false,
      "t": 136117.92020833146,
      "d": 48.78049999999348,
      "v": 49
    },
    {
      "midi": 84,
      "hit": false,
      "t": 136219.54624999812,
      "d": 56.91058333334513,
      "v": 64
    },
    {
      "midi": 85,
      "hit": false,
      "t": 136329.30237499814,
      "d": 52.845541666669305,
      "v": 69
    },
    {
      "midi": 86,
      "hit": false,
      "t": 136447.18858333147,
      "d": 65.04066666666768,
      "v": 68
    },
    {
      "midi": 43,
      "hit": false,
      "t": 136565.0747916648,
      "d": 44.71545833334676,
      "v": 60
    },
    {
      "midi": 50,
      "hit": false,
      "t": 136569.1398333315,
      "d": 73.17074999999022,
      "v": 43
    },
    {
      "midi": 89,
      "hit": false,
      "t": 136569.1398333315,
      "d": 109.75612499998533,
      "v": 83
    },
    {
      "midi": 84,
      "hit": false,
      "t": 136719.54637499814,
      "d": 40.650416666670935,
      "v": 34
    },
    {
      "midi": 86,
      "hit": false,
      "t": 136829.30249999816,
      "d": 280.4878750000207,
      "v": 87
    },
    {
      "midi": 65,
      "hit": false,
      "t": 136845.56266666483,
      "d": 439.02449999999953,
      "v": 70
    },
    {
      "midi": 55,
      "hit": false,
      "t": 136849.6277083315,
      "d": 479.67491666664137,
      "v": 63
    },
    {
      "midi": 60,
      "hit": false,
      "t": 136857.75779166483,
      "d": 439.02449999999953,
      "v": 54
    },
    {
      "midi": 81,
      "hit": false,
      "t": 137105.7253333315,
      "d": 211.38216666664812,
      "v": 63
    },
    {
      "midi": 84,
      "hit": false,
      "t": 137394.34329166482,
      "d": 97.56099999998696,
      "v": 75
    },
    {
      "midi": 43,
      "hit": false,
      "t": 137561.00999999812,
      "d": 77.23579166666605,
      "v": 55
    },
    {
      "midi": 82,
      "hit": false,
      "t": 137561.00999999812,
      "d": 89.43091666666442,
      "v": 59
    },
    {
      "midi": 50,
      "hit": false,
      "t": 137565.0750416648,
      "d": 105.6910833333095,
      "v": 42
    },
    {
      "midi": 72,
      "hit": false,
      "t": 137569.14008333147,
      "d": 109.75612499995623,
      "v": 41
    },
    {
      "midi": 70,
      "hit": false,
      "t": 137849.62795833143,
      "d": 134.14637500001118,
      "v": 68
    },
    {
      "midi": 74,
      "hit": false,
      "t": 137849.62795833143,
      "d": 166.66670833333046,
      "v": 76
    },
    {
      "midi": 65,
      "hit": false,
      "t": 137853.6929999981,
      "d": 109.75612500001444,
      "v": 65
    },
    {
      "midi": 55,
      "hit": false,
      "t": 137857.75804166478,
      "d": 77.23579166666605,
      "v": 64
    },
    {
      "midi": 60,
      "hit": false,
      "t": 137861.82308333146,
      "d": 73.17074999999022,
      "v": 58
    },
    {
      "midi": 57,
      "hit": false,
      "t": 138048.81499999808,
      "d": 130.08133333336446,
      "v": 61
    },
    {
      "midi": 76,
      "hit": false,
      "t": 138052.88004166476,
      "d": 191.0569583333563,
      "v": 68
    },
    {
      "midi": 67,
      "hit": false,
      "t": 138056.94508333143,
      "d": 162.60166666668374,
      "v": 41
    },
    {
      "midi": 72,
      "hit": false,
      "t": 138056.94508333143,
      "d": 191.0569583333563,
      "v": 68
    },
    {
      "midi": 62,
      "hit": false,
      "t": 138061.0101249981,
      "d": 130.08133333333535,
      "v": 48
    },
    {
      "midi": 58,
      "hit": false,
      "t": 138333.36791666478,
      "d": 138.211416666687,
      "v": 54
    },
    {
      "midi": 73,
      "hit": false,
      "t": 138341.4979999981,
      "d": 113.82116666669026,
      "v": 73
    },
    {
      "midi": 77,
      "hit": false,
      "t": 138345.56304166478,
      "d": 97.56100000001607,
      "v": 67
    },
    {
      "midi": 68,
      "hit": false,
      "t": 138349.62808333145,
      "d": 178.86183333335794,
      "v": 47
    },
    {
      "midi": 63,
      "hit": false,
      "t": 138353.69312499813,
      "d": 130.08133333333535,
      "v": 49
    },
    {
      "midi": 79,
      "hit": false,
      "t": 138658.57124999815,
      "d": 113.82116666669026,
      "v": 68
    },
    {
      "midi": 75,
      "hit": false,
      "t": 138662.63629166482,
      "d": 105.69108333333861,
      "v": 68
    },
    {
      "midi": 60,
      "hit": false,
      "t": 138662.63629166482,
      "d": 130.08133333333535,
      "v": 55
    },
    {
      "midi": 70,
      "hit": false,
      "t": 138666.7013333315,
      "d": 170.7317500000063,
      "v": 55
    },
    {
      "midi": 65,
      "hit": false,
      "t": 138674.83141666482,
      "d": 97.56100000001607,
      "v": 51
    },
    {
      "midi": 76,
      "hit": false,
      "t": 138971.5794583315,
      "d": 182.92687500000466,
      "v": 54
    },
    {
      "midi": 80,
      "hit": false,
      "t": 138971.5794583315,
      "d": 235.77241666667396,
      "v": 62
    },
    {
      "midi": 71,
      "hit": false,
      "t": 138979.7095416648,
      "d": 113.82116666669026,
      "v": 54
    },
    {
      "midi": 66,
      "hit": false,
      "t": 138987.83962499813,
      "d": 101.62604166669189,
      "v": 47
    },
    {
      "midi": 61,
      "hit": false,
      "t": 138991.9046666648,
      "d": 97.56100000001607,
      "v": 31
    },
    {
      "midi": 73,
      "hit": false,
      "t": 139276.4575833315,
      "d": 191.0569583333272,
      "v": 46
    },
    {
      "midi": 63,
      "hit": false,
      "t": 139280.52262499818,
      "d": 134.14637499998207,
      "v": 51
    },
    {
      "midi": 82,
      "hit": false,
      "t": 139284.58766666485,
      "d": 170.73174999997718,
      "v": 56
    },
    {
      "midi": 68,
      "hit": false,
      "t": 139292.71774999818,
      "d": 121.9512499999837,
      "v": 50
    },
    {
      "midi": 78,
      "hit": false,
      "t": 139292.71774999818,
      "d": 158.5366249999788,
      "v": 52
    },
    {
      "midi": 75,
      "hit": false,
      "t": 139581.3357083315,
      "d": 52.845541666669305,
      "v": 52
    },
    {
      "midi": 64,
      "hit": false,
      "t": 139593.5308333315,
      "d": 81.30083333334187,
      "v": 36
    },
    {
      "midi": 84,
      "hit": false,
      "t": 139593.5308333315,
      "d": 93.49595833334024,
      "v": 64
    },
    {
      "midi": 80,
      "hit": false,
      "t": 139593.5308333315,
      "d": 101.62604166666279,
      "v": 56
    },
    {
      "midi": 70,
      "hit": false,
      "t": 139601.6609166648,
      "d": 44.71545833334676,
      "v": 46
    },
    {
      "midi": 85,
      "hit": false,
      "t": 139922.79920833147,
      "d": 89.43091666672262,
      "v": 59
    },
    {
      "midi": 42,
      "hit": false,
      "t": 139926.86424999815,
      "d": 65.04066666672588,
      "v": 45
    },
    {
      "midi": 49,
      "hit": false,
      "t": 139930.92929166483,
      "d": 40.65041666670004,
      "v": 33
    },
    {
      "midi": 52,
      "hit": false,
      "t": 139934.9943333315,
      "d": 52.84554166669841,
      "v": 27
    },
    {
      "midi": 80,
      "hit": false,
      "t": 139934.9943333315,
      "d": 97.56100000001607,
      "v": 40
    },
    {
      "midi": 82,
      "hit": false,
      "t": 139951.25449999818,
      "d": 69.1057083333435,
      "v": 36
    },
    {
      "midi": 41,
      "hit": false,
      "t": 140227.67733333152,
      "d": 138.211416666687,
      "v": 34
    },
    {
      "midi": 48,
      "hit": false,
      "t": 140235.80741666484,
      "d": 146.34150000003865,
      "v": 30
    },
    {
      "midi": 88,
      "hit": false,
      "t": 140248.00254166484,
      "d": 146.34150000003865,
      "v": 52
    },
    {
      "midi": 76,
      "hit": false,
      "t": 140252.06758333152,
      "d": 105.69108333336771,
      "v": 59
    },
    {
      "midi": 81,
      "hit": false,
      "t": 140256.1326249982,
      "d": 113.82116666669026,
      "v": 59
    },
    {
      "midi": 84,
      "hit": false,
      "t": 140256.1326249982,
      "d": 117.88620833336608,
      "v": 58
    },
    {
      "midi": 57,
      "hit": false,
      "t": 140272.39279166487,
      "d": 146.34150000000955,
      "v": 41
    },
    {
      "midi": 91,
      "hit": false,
      "t": 140548.8156249982,
      "d": 109.75612500001444,
      "v": 68
    },
    {
      "midi": 64,
      "hit": false,
      "t": 140552.8806666649,
      "d": 154.4715833333321,
      "v": 63
    },
    {
      "midi": 88,
      "hit": false,
      "t": 140561.0107499982,
      "d": 81.30083333334187,
      "v": 61
    },
    {
      "midi": 84,
      "hit": false,
      "t": 140561.0107499982,
      "d": 97.56100000001607,
      "v": 57
    },
    {
      "midi": 79,
      "hit": false,
      "t": 140561.0107499982,
      "d": 121.9512500000128,
      "v": 54
    },
    {
      "midi": 60,
      "hit": false,
      "t": 140561.0107499982,
      "d": 138.211416666687,
      "v": 43
    },
    {
      "midi": 57,
      "hit": false,
      "t": 140565.0757916649,
      "d": 162.60166666665464,
      "v": 44
    },
    {
      "midi": 53,
      "hit": false,
      "t": 140565.0757916649,
      "d": 1032.520583333302,
      "v": 49
    },
    {
      "midi": 88,
      "hit": false,
      "t": 140959.38483333154,
      "d": 170.7317500000354,
      "v": 55
    },
    {
      "midi": 76,
      "hit": false,
      "t": 140963.44987499822,
      "d": 231.70737499999814,
      "v": 55
    },
    {
      "midi": 64,
      "hit": false,
      "t": 140967.5149166649,
      "d": 207.3171250000014,
      "v": 47
    },
    {
      "midi": 84,
      "hit": false,
      "t": 140971.57995833157,
      "d": 170.7317500000063,
      "v": 52
    },
    {
      "midi": 81,
      "hit": false,
      "t": 140971.57995833157,
      "d": 191.0569583333272,
      "v": 54
    },
    {
      "midi": 57,
      "hit": false,
      "t": 140971.57995833157,
      "d": 304.87812499998836,
      "v": 38
    },
    {
      "midi": 60,
      "hit": false,
      "t": 140975.64499999824,
      "d": 300.81308333331253,
      "v": 40
    },
    {
      "midi": 84,
      "hit": false,
      "t": 141451.2548749982,
      "d": 109.75612499998533,
      "v": 55
    },
    {
      "midi": 81,
      "hit": false,
      "t": 141455.31991666488,
      "d": 134.14637499998207,
      "v": 54
    },
    {
      "midi": 72,
      "hit": false,
      "t": 141455.31991666488,
      "d": 178.86183333329973,
      "v": 49
    },
    {
      "midi": 64,
      "hit": false,
      "t": 141455.31991666488,
      "d": 817.0733749999781,
      "v": 47
    },
    {
      "midi": 57,
      "hit": false,
      "t": 141463.4499999982,
      "d": 630.0814583333267,
      "v": 33
    },
    {
      "midi": 60,
      "hit": false,
      "t": 141463.4499999982,
      "d": 776.4229583333363,
      "v": 40
    },
    {
      "midi": 53,
      "hit": false,
      "t": 141788.65333333152,
      "d": 247.96754166667233,
      "v": 58
    },
    {
      "midi": 53,
      "hit": false,
      "t": 142252.06808333154,
      "d": 65.04066666666768,
      "v": 41
    },
    {
      "midi": 62,
      "hit": false,
      "t": 142414.6697499982,
      "d": 252.03258333337726,
      "v": 49
    },
    {
      "midi": 57,
      "hit": false,
      "t": 142414.6697499982,
      "d": 406.50416666670935,
      "v": 42
    },
    {
      "midi": 69,
      "hit": false,
      "t": 142418.73479166487,
      "d": 126.01629166668863,
      "v": 79
    },
    {
      "midi": 58,
      "hit": false,
      "t": 142422.79983333155,
      "d": 272.3577916666982,
      "v": 31
    },
    {
      "midi": 52,
      "hit": false,
      "t": 142426.86487499822,
      "d": 540.6505416666623,
      "v": 50
    },
    {
      "midi": 70,
      "hit": false,
      "t": 142552.88116666488,
      "d": 73.17075000001932,
      "v": 57
    },
    {
      "midi": 69,
      "hit": false,
      "t": 142621.98687499823,
      "d": 69.1057083333435,
      "v": 49
    },
    {
      "midi": 67,
      "hit": false,
      "t": 142719.54787499824,
      "d": 69.1057083333435,
      "v": 24
    },
    {
      "midi": 62,
      "hit": false,
      "t": 142886.21458333157,
      "d": 36.58537499999511,
      "v": 33
    },
    {
      "midi": 58,
      "hit": false,
      "t": 142890.27962499825,
      "d": 69.1057083333144,
      "v": 37
    },
    {
      "midi": 69,
      "hit": false,
      "t": 142902.47474999825,
      "d": 77.23579166663694,
      "v": 68
    },
    {
      "midi": 70,
      "hit": false,
      "t": 142979.71054166488,
      "d": 117.88620833330788,
      "v": 60
    },
    {
      "midi": 69,
      "hit": false,
      "t": 143065.07641666487,
      "d": 85.36587499998859,
      "v": 40
    },
    {
      "midi": 67,
      "hit": false,
      "t": 143182.96262499818,
      "d": 69.1057083333435,
      "v": 46
    },
    {
      "midi": 52,
      "hit": false,
      "t": 143235.80816666485,
      "d": 69.1057083333435,
      "v": 34
    },
    {
      "midi": 55,
      "hit": false,
      "t": 143349.62933333154,
      "d": 36.58537499999511,
      "v": 55
    },
    {
      "midi": 69,
      "hit": false,
      "t": 143349.62933333154,
      "d": 117.88620833333698,
      "v": 68
    },
    {
      "midi": 70,
      "hit": false,
      "t": 143491.90579166487,
      "d": 69.1057083333435,
      "v": 59
    },
    {
      "midi": 72,
      "hit": false,
      "t": 143613.8570416649,
      "d": 77.23579166666605,
      "v": 60
    },
    {
      "midi": 73,
      "hit": false,
      "t": 143748.0034166649,
      "d": 97.56099999998696,
      "v": 60
    },
    {
      "midi": 55,
      "hit": false,
      "t": 143853.6944999982,
      "d": 69.1057083333144,
      "v": 45
    },
    {
      "midi": 61,
      "hit": false,
      "t": 143861.82458333153,
      "d": 73.17074999999022,
      "v": 36
    },
    {
      "midi": 75,
      "hit": false,
      "t": 143869.95466666485,
      "d": 69.1057083333435,
      "v": 55
    },
    {
      "midi": 76,
      "hit": false,
      "t": 144000.0359999982,
      "d": 81.30083333334187,
      "v": 50
    },
    {
      "midi": 77,
      "hit": false,
      "t": 144126.05229166488,
      "d": 81.30083333334187,
      "v": 49
    },
    {
      "midi": 61,
      "hit": false,
      "t": 144243.9384999982,
      "d": 69.1057083333144,
      "v": 46
    },
    {
      "midi": 51,
      "hit": false,
      "t": 144243.9384999982,
      "d": 105.6910833333095,
      "v": 54
    },
    {
      "midi": 79,
      "hit": false,
      "t": 144272.3937916649,
      "d": 32.520333333319286,
      "v": 54
    },
    {
      "midi": 86,
      "hit": false,
      "t": 144398.41008333152,
      "d": 85.36587499998859,
      "v": 84
    },
    {
      "midi": 57,
      "hit": false,
      "t": 144410.60520833152,
      "d": 158.53662500000792,
      "v": 35
    },
    {
      "midi": 50,
      "hit": false,
      "t": 144414.6702499982,
      "d": 634.1465000000026,
      "v": 43
    },
    {
      "midi": 60,
      "hit": false,
      "t": 144422.8003333315,
      "d": 28.455291666672565,
      "v": 24
    },
    {
      "midi": 80,
      "hit": false,
      "t": 144540.68654166485,
      "d": 60.97562499999185,
      "v": 56
    },
    {
      "midi": 79,
      "hit": false,
      "t": 144678.8979583315,
      "d": 69.1057083333435,
      "v": 59
    },
    {
      "midi": 74,
      "hit": false,
      "t": 144796.78416666485,
      "d": 32.520333333319286,
      "v": 51
    },
    {
      "midi": 57,
      "hit": false,
      "t": 144874.0199583315,
      "d": 345.5285416667175,
      "v": 24
    },
    {
      "midi": 60,
      "hit": false,
      "t": 144890.2801249982,
      "d": 158.53662500000792,
      "v": 13
    },
    {
      "midi": 77,
      "hit": false,
      "t": 144918.73541666486,
      "d": 105.69108333333861,
      "v": 80
    },
    {
      "midi": 79,
      "hit": false,
      "t": 145052.88179166487,
      "d": 85.3658750000177,
      "v": 55
    },
    {
      "midi": 77,
      "hit": false,
      "t": 145097.59724999822,
      "d": 93.49595833334024,
      "v": 50
    },
    {
      "midi": 74,
      "hit": false,
      "t": 145195.15824999823,
      "d": 109.75612499998533,
      "v": 44
    },
    {
      "midi": 50,
      "hit": false,
      "t": 145378.08512499824,
      "d": 581.300958333275,
      "v": 45
    },
    {
      "midi": 60,
      "hit": false,
      "t": 145386.21520833156,
      "d": 134.14637499998207,
      "v": 36
    },
    {
      "midi": 57,
      "hit": false,
      "t": 145386.21520833156,
      "d": 504.0651666666381,
      "v": 35
    },
    {
      "midi": 72,
      "hit": false,
      "t": 145394.34529166488,
      "d": 268.29274999999325,
      "v": 49
    },
    {
      "midi": 69,
      "hit": false,
      "t": 145670.7681249982,
      "d": 304.87812499998836,
      "v": 55
    },
    {
      "midi": 61,
      "hit": false,
      "t": 145841.4998749982,
      "d": 60.97562499999185,
      "v": 60
    },
    {
      "midi": 68,
      "hit": false,
      "t": 146000.03649999818,
      "d": 60.97562499999185,
      "v": 63
    },
    {
      "midi": 67,
      "hit": false,
      "t": 146138.24791666484,
      "d": 146.34149999998044,
      "v": 53
    },
    {
      "midi": 50,
      "hit": false,
      "t": 146146.37799999816,
      "d": 223.5772916666465,
      "v": 45
    },
    {
      "midi": 43,
      "hit": false,
      "t": 146304.91462499814,
      "d": 32.52033333334839,
      "v": 47
    },
    {
      "midi": 65,
      "hit": false,
      "t": 146321.17479166482,
      "d": 784.5530416666879,
      "v": 54
    },
    {
      "midi": 62,
      "hit": false,
      "t": 146638.2480416648,
      "d": 219.51225000002887,
      "v": 51
    },
    {
      "midi": 58,
      "hit": false,
      "t": 146642.31308333148,
      "d": 260.1626666666998,
      "v": 48
    },
    {
      "midi": 57,
      "hit": false,
      "t": 146646.37812499815,
      "d": 268.29275000002235,
      "v": 47
    },
    {
      "midi": 56,
      "hit": false,
      "t": 147150.44329166485,
      "d": 117.88620833333698,
      "v": 46
    },
    {
      "midi": 62,
      "hit": false,
      "t": 147154.50833333153,
      "d": 24.39024999999674,
      "v": 44
    },
    {
      "midi": 57,
      "hit": false,
      "t": 147308.97991666486,
      "d": 178.86183333329973,
      "v": 73
    },
    {
      "midi": 72,
      "hit": false,
      "t": 147313.04495833153,
      "d": 134.14637499998207,
      "v": 80
    },
    {
      "midi": 65,
      "hit": false,
      "t": 147313.04495833153,
      "d": 146.34149999998044,
      "v": 85
    },
    {
      "midi": 62,
      "hit": false,
      "t": 147313.04495833153,
      "d": 182.92687499994645,
      "v": 84
    },
    {
      "midi": 69,
      "hit": false,
      "t": 147317.1099999982,
      "d": 109.75612499998533,
      "v": 66
    },
    {
      "midi": 56,
      "hit": false,
      "t": 147467.51654166484,
      "d": 97.56099999998696,
      "v": 42
    },
    {
      "midi": 55,
      "hit": false,
      "t": 147597.59787499814,
      "d": 40.650416666670935,
      "v": 43
    },
    {
      "midi": 54,
      "hit": false,
      "t": 147642.3133333315,
      "d": 48.78049999999348,
      "v": 39
    },
    {
      "midi": 62,
      "hit": false,
      "t": 147727.67920833148,
      "d": 280.4878750000207,
      "v": 68
    },
    {
      "midi": 58,
      "hit": false,
      "t": 147727.67920833148,
      "d": 313.00820833334,
      "v": 68
    },
    {
      "midi": 69,
      "hit": false,
      "t": 147731.74424999816,
      "d": 333.3334166666609,
      "v": 72
    },
    {
      "midi": 53,
      "hit": false,
      "t": 147735.80929166483,
      "d": 365.8537499999802,
      "v": 63
    },
    {
      "midi": 65,
      "hit": false,
      "t": 147735.80929166483,
      "d": 402.4391249999753,
      "v": 60
    },
    {
      "midi": 62,
      "hit": false,
      "t": 148065.07766666482,
      "d": 130.08133333330625,
      "v": 57
    },
    {
      "midi": 58,
      "hit": false,
      "t": 148187.0289166648,
      "d": 56.910583333316026,
      "v": 49
    },
    {
      "midi": 64,
      "hit": false,
      "t": 148329.30537499813,
      "d": 117.88620833333698,
      "v": 48
    },
    {
      "midi": 55,
      "hit": false,
      "t": 148337.43545833146,
      "d": 40.650416666670935,
      "v": 41
    },
    {
      "midi": 46,
      "hit": false,
      "t": 148337.43545833146,
      "d": 56.91058333334513,
      "v": 49
    },
    {
      "midi": 60,
      "hit": false,
      "t": 148341.50049999813,
      "d": 65.04066666666768,
      "v": 55
    },
    {
      "midi": 56,
      "hit": false,
      "t": 148638.2485416648,
      "d": 386.17895833335933,
      "v": 45
    },
    {
      "midi": 72,
      "hit": false,
      "t": 148642.31358333147,
      "d": 117.88620833333698,
      "v": 66
    },
    {
      "midi": 79,
      "hit": false,
      "t": 148642.31358333147,
      "d": 121.9512500000128,
      "v": 69
    },
    {
      "midi": 76,
      "hit": false,
      "t": 148808.98029166483,
      "d": 97.56100000001607,
      "v": 49
    },
    {
      "midi": 67,
      "hit": false,
      "t": 148813.0453333315,
      "d": 48.78049999999348,
      "v": 34
    },
    {
      "midi": 72,
      "hit": false,
      "t": 148825.2404583315,
      "d": 32.520333333319286,
      "v": 32
    },
    {
      "midi": 62,
      "hit": false,
      "t": 148825.2404583315,
      "d": 178.86183333332883,
      "v": 34
    },
    {
      "midi": 84,
      "hit": false,
      "t": 149081.3380833315,
      "d": 231.70737500002724,
      "v": 80
    },
    {
      "midi": 91,
      "hit": false,
      "t": 149085.40312499818,
      "d": 207.3171250000305,
      "v": 77
    },
    {
      "midi": 56,
      "hit": false,
      "t": 149089.46816666485,
      "d": 345.5285416666884,
      "v": 39
    },
    {
      "midi": 67,
      "hit": false,
      "t": 149093.53320833153,
      "d": 345.5285416666884,
      "v": 55
    },
    {
      "midi": 62,
      "hit": false,
      "t": 149105.72833333153,
      "d": 325.2033333333384,
      "v": 46
    },
    {
      "midi": 84,
      "hit": false,
      "t": 149739.87483333156,
      "d": 73.17075000001932,
      "v": 46
    },
    {
      "midi": 56,
      "hit": false,
      "t": 149739.87483333156,
      "d": 89.43091666669352,
      "v": 42
    },
    {
      "midi": 62,
      "hit": false,
      "t": 149743.93987499824,
      "d": 40.650416666670935,
      "v": 40
    },
    {
      "midi": 79,
      "hit": false,
      "t": 149748.0049166649,
      "d": 81.30083333334187,
      "v": 42
    },
    {
      "midi": 74,
      "hit": false,
      "t": 149764.2650833316,
      "d": 52.845541666669305,
      "v": 24
    },
    {
      "midi": 52,
      "hit": false,
      "t": 150048.81799999825,
      "d": 85.36587499998859,
      "v": 65
    },
    {
      "midi": 45,
      "hit": false,
      "t": 150223.6147916649,
      "d": 40.650416666670935,
      "v": 36
    },
    {
      "midi": 45,
      "hit": false,
      "t": 150593.53358333156,
      "d": 150.40654166668537,
      "v": 39
    },
    {
      "midi": 49,
      "hit": false,
      "t": 150597.59862499824,
      "d": 121.9512500000128,
      "v": 65
    },
    {
      "midi": 46,
      "hit": false,
      "t": 150748.00516666492,
      "d": 113.82116666666116,
      "v": 43
    },
    {
      "midi": 51,
      "hit": false,
      "t": 150752.0702083316,
      "d": 97.56099999998696,
      "v": 51
    },
    {
      "midi": 52,
      "hit": false,
      "t": 150886.21658333158,
      "d": 56.910583333316026,
      "v": 55
    },
    {
      "midi": 48,
      "hit": false,
      "t": 150894.3466666649,
      "d": 89.43091666666442,
      "v": 40
    },
    {
      "midi": 54,
      "hit": false,
      "t": 151044.75320833156,
      "d": 89.43091666666442,
      "v": 51
    },
    {
      "midi": 49,
      "hit": false,
      "t": 151052.88329166488,
      "d": 227.64233333335142,
      "v": 38
    },
    {
      "midi": 55,
      "hit": false,
      "t": 151178.89958333157,
      "d": 73.17074999999022,
      "v": 56
    },
    {
      "midi": 51,
      "hit": false,
      "t": 151211.4199166649,
      "d": 85.3658750000177,
      "v": 27
    },
    {
      "midi": 57,
      "hit": false,
      "t": 151333.3711666649,
      "d": 81.30083333334187,
      "v": 62
    },
    {
      "midi": 52,
      "hit": false,
      "t": 151337.43620833158,
      "d": 65.04066666666768,
      "v": 37
    },
    {
      "midi": 58,
      "hit": false,
      "t": 151463.45249999824,
      "d": 85.36587499998859,
      "v": 57
    },
    {
      "midi": 55,
      "hit": false,
      "t": 151495.97283333156,
      "d": 69.1057083333435,
      "v": 24
    },
    {
      "midi": 60,
      "hit": false,
      "t": 151589.4687916649,
      "d": 60.97562499999185,
      "v": 68
    },
    {
      "midi": 57,
      "hit": false,
      "t": 151597.59887499822,
      "d": 60.97562499999185,
      "v": 50
    },
    {
      "midi": 61,
      "hit": false,
      "t": 151707.3549999982,
      "d": 81.30083333331277,
      "v": 72
    },
    {
      "midi": 57,
      "hit": false,
      "t": 151739.87533333153,
      "d": 199.18704166664975,
      "v": 31
    },
    {
      "midi": 63,
      "hit": false,
      "t": 151829.3062499982,
      "d": 44.715458333317656,
      "v": 53
    },
    {
      "midi": 51,
      "hit": false,
      "t": 151865.89162499818,
      "d": 182.92687499997555,
      "v": 30
    },
    {
      "midi": 61,
      "hit": false,
      "t": 151922.8022083315,
      "d": 113.82116666666116,
      "v": 8
    },
    {
      "midi": 64,
      "hit": false,
      "t": 151951.25749999817,
      "d": 60.97562499999185,
      "v": 66
    },
    {
      "midi": 67,
      "hit": false,
      "t": 152065.07866666483,
      "d": 69.1057083333435,
      "v": 74
    },
    {
      "midi": 57,
      "hit": false,
      "t": 152121.98924999818,
      "d": 601.6261666666833,
      "v": 22
    },
    {
      "midi": 50,
      "hit": false,
      "t": 152150.44454166485,
      "d": 857.7237916666782,
      "v": 45
    },
    {
      "midi": 65,
      "hit": false,
      "t": 152191.09495833152,
      "d": 81.30083333334187,
      "v": 51
    },
    {
      "midi": 60,
      "hit": false,
      "t": 152321.1762916649,
      "d": 32.520333333319286,
      "v": 44
    },
    {
      "midi": 69,
      "hit": false,
      "t": 152455.32266666487,
      "d": 113.82116666666116,
      "v": 75
    },
    {
      "midi": 62,
      "hit": false,
      "t": 152670.7698749982,
      "d": 260.1626666666707,
      "v": 50
    },
    {
      "midi": 65,
      "hit": false,
      "t": 152792.7211249982,
      "d": 73.17074999999022,
      "v": 53
    },
    {
      "midi": 69,
      "hit": false,
      "t": 152955.32279166486,
      "d": 77.23579166666605,
      "v": 72
    },
    {
      "midi": 57,
      "hit": false,
      "t": 152971.58295833154,
      "d": 60.97562499999185,
      "v": 41
    },
    {
      "midi": 79,
      "hit": false,
      "t": 153130.1195833315,
      "d": 353.65862499998184,
      "v": 82
    },
    {
      "midi": 72,
      "hit": false,
      "t": 153130.1195833315,
      "d": 418.6992916666495,
      "v": 71
    },
    {
      "midi": 64,
      "hit": false,
      "t": 153134.1846249982,
      "d": 406.50416666665114,
      "v": 65
    },
    {
      "midi": 69,
      "hit": false,
      "t": 153134.1846249982,
      "d": 406.50416666665114,
      "v": 66
    },
    {
      "midi": 77,
      "hit": false,
      "t": 153621.98962499815,
      "d": 272.3577916666691,
      "v": 57
    },
    {
      "midi": 69,
      "hit": false,
      "t": 153626.05466666483,
      "d": 231.70737499999814,
      "v": 57
    },
    {
      "midi": 72,
      "hit": false,
      "t": 153630.1197083315,
      "d": 235.77241666664486,
      "v": 57
    },
    {
      "midi": 62,
      "hit": false,
      "t": 153638.24979166483,
      "d": 154.4715833333321,
      "v": 50
    },
    {
      "midi": 43,
      "hit": false,
      "t": 154134.18487499814,
      "d": 219.51224999999977,
      "v": 78
    },
    {
      "midi": 64,
      "hit": false,
      "t": 154325.24183333147,
      "d": 113.82116666666116,
      "v": 80
    },
    {
      "midi": 53,
      "hit": false,
      "t": 154337.43695833147,
      "d": 24.39024999999674,
      "v": 49
    },
    {
      "midi": 69,
      "hit": false,
      "t": 154459.38820833145,
      "d": 142.27645833333372,
      "v": 77
    },
    {
      "midi": 73,
      "hit": false,
      "t": 154601.6646666648,
      "d": 48.780500000022585,
      "v": 74
    },
    {
      "midi": 64,
      "hit": false,
      "t": 154605.72970833146,
      "d": 28.455291666672565,
      "v": 40
    },
    {
      "midi": 53,
      "hit": false,
      "t": 154617.92483333146,
      "d": 36.585375000024214,
      "v": 31
    },
    {
      "midi": 59,
      "hit": false,
      "t": 154630.11995833146,
      "d": 32.52033333334839,
      "v": 35
    },
    {
      "midi": 81,
      "hit": false,
      "t": 154776.46145833147,
      "d": 60.97562499999185,
      "v": 57
    },
    {
      "midi": 79,
      "hit": false,
      "t": 154780.52649999814,
      "d": 20.325208333320916,
      "v": 69
    },
    {
      "midi": 59,
      "hit": false,
      "t": 154792.72162499814,
      "d": 40.65041666664183,
      "v": 42
    },
    {
      "midi": 85,
      "hit": false,
      "t": 154914.67287499813,
      "d": 142.27645833336283,
      "v": 64
    },
    {
      "midi": 59,
      "hit": false,
      "t": 154926.86799999813,
      "d": 126.01629166668863,
      "v": 55
    },
    {
      "midi": 64,
      "hit": false,
      "t": 154930.9330416648,
      "d": 73.17074999999022,
      "v": 54
    },
    {
      "midi": 53,
      "hit": false,
      "t": 154930.9330416648,
      "d": 77.23579166666605,
      "v": 55
    },
    {
      "midi": 59,
      "hit": false,
      "t": 155101.66479166484,
      "d": 313.00820833334,
      "v": 68
    },
    {
      "midi": 88,
      "hit": false,
      "t": 155101.66479166484,
      "d": 451.2196249999979,
      "v": 82
    },
    {
      "midi": 64,
      "hit": false,
      "t": 155105.7298333315,
      "d": 256.0976249999949,
      "v": 69
    },
    {
      "midi": 53,
      "hit": false,
      "t": 155105.7298333315,
      "d": 284.55291666666744,
      "v": 75
    },
    {
      "midi": 76,
      "hit": false,
      "t": 155105.7298333315,
      "d": 414.6342500000028,
      "v": 75
    },
    {
      "midi": 81,
      "hit": false,
      "t": 155113.85991666483,
      "d": 321.13829166666255,
      "v": 66
    },
    {
      "midi": 85,
      "hit": false,
      "t": 155121.98999999816,
      "d": 353.65862500001094,
      "v": 29
    },
    {
      "midi": 53,
      "hit": false,
      "t": 155922.8032083315,
      "d": 44.71545833334676,
      "v": 54
    },
    {
      "midi": 64,
      "hit": false,
      "t": 155922.8032083315,
      "d": 117.88620833333698,
      "v": 54
    },
    {
      "midi": 59,
      "hit": false,
      "t": 155926.86824999817,
      "d": 69.1057083333435,
      "v": 56
    },
    {
      "midi": 86,
      "hit": false,
      "t": 155926.86824999817,
      "d": 105.69108333333861,
      "v": 74
    },
    {
      "midi": 74,
      "hit": false,
      "t": 155930.93329166484,
      "d": 65.04066666666768,
      "v": 66
    },
    {
      "midi": 81,
      "hit": false,
      "t": 155934.99833333152,
      "d": 97.56099999998696,
      "v": 68
    },
    {
      "midi": 67,
      "hit": false,
      "t": 156654.51070833148,
      "d": 182.92687500000466,
      "v": 75
    },
    {
      "midi": 84,
      "hit": false,
      "t": 156654.51070833148,
      "d": 182.92687500000466,
      "v": 85
    },
    {
      "midi": 88,
      "hit": false,
      "t": 156654.51070833148,
      "d": 186.99191666668048,
      "v": 83
    },
    {
      "midi": 56,
      "hit": false,
      "t": 156654.51070833148,
      "d": 191.0569583333563,
      "v": 73
    },
    {
      "midi": 76,
      "hit": false,
      "t": 156658.57574999816,
      "d": 162.60166666665464,
      "v": 80
    },
    {
      "midi": 62,
      "hit": false,
      "t": 156658.57574999816,
      "d": 203.25208333335468,
      "v": 68
    },
    {
      "midi": 60,
      "hit": false,
      "t": 156670.77087499815,
      "d": 24.39024999999674,
      "v": 58
    },
    {
      "midi": 56,
      "hit": false,
      "t": 156943.12866666485,
      "d": 113.82116666669026,
      "v": 75
    },
    {
      "midi": 67,
      "hit": false,
      "t": 156943.12866666485,
      "d": 117.88620833336608,
      "v": 79
    },
    {
      "midi": 88,
      "hit": false,
      "t": 156943.12866666485,
      "d": 117.88620833336608,
      "v": 78
    },
    {
      "midi": 76,
      "hit": false,
      "t": 156947.19370833153,
      "d": 105.69108333333861,
      "v": 77
    },
    {
      "midi": 84,
      "hit": false,
      "t": 156947.19370833153,
      "d": 126.01629166668863,
      "v": 79
    },
    {
      "midi": 62,
      "hit": false,
      "t": 156947.19370833153,
      "d": 138.211416666687,
      "v": 61
    },
    {
      "midi": 67,
      "hit": false,
      "t": 157134.1856249982,
      "d": 117.88620833336608,
      "v": 44
    },
    {
      "midi": 88,
      "hit": false,
      "t": 157134.1856249982,
      "d": 126.01629166668863,
      "v": 71
    },
    {
      "midi": 56,
      "hit": false,
      "t": 157134.1856249982,
      "d": 130.08133333336446,
      "v": 67
    },
    {
      "midi": 76,
      "hit": false,
      "t": 157138.25066666488,
      "d": 85.3658750000177,
      "v": 64
    },
    {
      "midi": 84,
      "hit": false,
      "t": 157138.25066666488,
      "d": 89.43091666669352,
      "v": 57
    },
    {
      "midi": 62,
      "hit": false,
      "t": 157142.31570833156,
      "d": 117.88620833333698,
      "v": 65
    },
    {
      "midi": 89,
      "hit": false,
      "t": 157422.80358333158,
      "d": 73.17075000001932,
      "v": 74
    },
    {
      "midi": 56,
      "hit": false,
      "t": 157426.86862499826,
      "d": 73.17075000001932,
      "v": 65
    },
    {
      "midi": 67,
      "hit": false,
      "t": 157430.93366666493,
      "d": 48.78049999999348,
      "v": 54
    },
    {
      "midi": 62,
      "hit": false,
      "t": 157430.93366666493,
      "d": 81.30083333334187,
      "v": 62
    },
    {
      "midi": 77,
      "hit": false,
      "t": 157430.93366666493,
      "d": 81.30083333334187,
      "v": 66
    },
    {
      "midi": 84,
      "hit": false,
      "t": 157439.06374999825,
      "d": 77.23579166669515,
      "v": 65
    },
    {
      "midi": 56,
      "hit": false,
      "t": 157597.6003749983,
      "d": 150.40654166671447,
      "v": 53
    },
    {
      "midi": 62,
      "hit": false,
      "t": 157601.66541666497,
      "d": 60.975625000020955,
      "v": 50
    },
    {
      "midi": 67,
      "hit": false,
      "t": 157605.73045833164,
      "d": 52.845541666669305,
      "v": 29
    },
    {
      "midi": 88,
      "hit": false,
      "t": 157605.73045833164,
      "d": 73.17075000001932,
      "v": 64
    },
    {
      "midi": 76,
      "hit": false,
      "t": 157613.86054166497,
      "d": 48.780500000022585,
      "v": 54
    },
    {
      "midi": 61,
      "hit": false,
      "t": 157898.41345833166,
      "d": 126.01629166668863,
      "v": 69
    },
    {
      "midi": 55,
      "hit": false,
      "t": 157902.47849999834,
      "d": 121.9512500000128,
      "v": 75
    },
    {
      "midi": 65,
      "hit": false,
      "t": 157906.543541665,
      "d": 77.23579166666605,
      "v": 48
    },
    {
      "midi": 45,
      "hit": false,
      "t": 158345.568041665,
      "d": 32.520333333319286,
      "v": 66
    },
    {
      "midi": 61,
      "hit": false,
      "t": 158874.02345833168,
      "d": 101.62604166666279,
      "v": 73
    },
    {
      "midi": 74,
      "hit": false,
      "t": 158878.08849999835,
      "d": 69.1057083333144,
      "v": 90
    },
    {
      "midi": 65,
      "hit": false,
      "t": 158878.08849999835,
      "d": 77.23579166663694,
      "v": 83
    },
    {
      "midi": 86,
      "hit": false,
      "t": 158878.08849999835,
      "d": 93.49595833331114,
      "v": 87
    },
    {
      "midi": 60,
      "hit": false,
      "t": 158878.08849999835,
      "d": 105.6910833333095,
      "v": 81
    },
    {
      "midi": 58,
      "hit": false,
      "t": 158886.21858333168,
      "d": 81.30083333331277,
      "v": 47
    },
    {
      "midi": 55,
      "hit": false,
      "t": 158890.28362499835,
      "d": 20.325208333320916,
      "v": 68
    },
    {
      "midi": 60,
      "hit": false,
      "t": 159048.82024999833,
      "d": 48.780500000022585,
      "v": 56
    },
    {
      "midi": 61,
      "hit": false,
      "t": 159048.82024999833,
      "d": 56.910583333374234,
      "v": 54
    },
    {
      "midi": 88,
      "hit": false,
      "t": 159052.885291665,
      "d": 52.84554166669841,
      "v": 77
    },
    {
      "midi": 65,
      "hit": false,
      "t": 159056.95033333168,
      "d": 20.32520833335002,
      "v": 68
    },
    {
      "midi": 76,
      "hit": false,
      "t": 159056.95033333168,
      "d": 44.71545833334676,
      "v": 71
    },
    {
      "midi": 55,
      "hit": false,
      "t": 159061.01537499836,
      "d": 24.39024999999674,
      "v": 62
    },
    {
      "midi": 60,
      "hit": false,
      "t": 159361.8284583317,
      "d": 52.8455416666402,
      "v": 74
    },
    {
      "midi": 61,
      "hit": false,
      "t": 159361.8284583317,
      "d": 60.97562499999185,
      "v": 61
    },
    {
      "midi": 65,
      "hit": false,
      "t": 159369.95854166502,
      "d": 20.325208333320916,
      "v": 68
    },
    {
      "midi": 76,
      "hit": false,
      "t": 159369.95854166502,
      "d": 48.78049999999348,
      "v": 73
    },
    {
      "midi": 88,
      "hit": false,
      "t": 159369.95854166502,
      "d": 73.17074999999022,
      "v": 79
    },
    {
      "midi": 55,
      "hit": false,
      "t": 159398.41383333167,
      "d": 24.390250000025844,
      "v": 22
    },
    {
      "midi": 60,
      "hit": false,
      "t": 159528.49516666503,
      "d": 113.82116666669026,
      "v": 74
    },
    {
      "midi": 65,
      "hit": false,
      "t": 159532.5602083317,
      "d": 105.69108333333861,
      "v": 75
    },
    {
      "midi": 61,
      "hit": false,
      "t": 159532.5602083317,
      "d": 121.9512500000128,
      "v": 67
    },
    {
      "midi": 55,
      "hit": false,
      "t": 159536.62524999838,
      "d": 134.14637500001118,
      "v": 75
    },
    {
      "midi": 77,
      "hit": false,
      "t": 159536.62524999838,
      "d": 142.27645833336283,
      "v": 79
    },
    {
      "midi": 89,
      "hit": false,
      "t": 159536.62524999838,
      "d": 170.7317500000354,
      "v": 82
    },
    {
      "midi": 58,
      "hit": false,
      "t": 159544.7553333317,
      "d": 130.08133333336446,
      "v": 42
    },
    {
      "midi": 81,
      "hit": false,
      "t": 160032.56033333173,
      "d": 40.650416666670935,
      "v": 94
    },
    {
      "midi": 86,
      "hit": false,
      "t": 160032.56033333173,
      "d": 81.30083333334187,
      "v": 94
    },
    {
      "midi": 89,
      "hit": false,
      "t": 160032.56033333173,
      "d": 97.56100000001607,
      "v": 83
    },
    {
      "midi": 93,
      "hit": false,
      "t": 160032.56033333173,
      "d": 174.796791666653,
      "v": 95
    },
    {
      "midi": 57,
      "hit": false,
      "t": 160036.6253749984,
      "d": 130.08133333333535,
      "v": 83
    },
    {
      "midi": 58,
      "hit": false,
      "t": 160040.69041666508,
      "d": 121.9512499999837,
      "v": 74
    },
    {
      "midi": 62,
      "hit": false,
      "t": 160040.69041666508,
      "d": 357.72366666665766,
      "v": 91
    },
    {
      "midi": 52,
      "hit": false,
      "t": 160048.8204999984,
      "d": 337.39845833333675,
      "v": 73
    },
    {
      "midi": 81,
      "hit": false,
      "t": 160154.51158333174,
      "d": 69.1057083333144,
      "v": 60
    },
    {
      "midi": 89,
      "hit": false,
      "t": 160187.03191666506,
      "d": 121.9512499999837,
      "v": 62
    },
    {
      "midi": 86,
      "hit": false,
      "t": 160284.59291666505,
      "d": 32.520333333319286,
      "v": 31
    },
    {
      "midi": 81,
      "hit": false,
      "t": 160308.98316666504,
      "d": 73.17075000001932,
      "v": 63
    },
    {
      "midi": 58,
      "hit": false,
      "t": 160321.17829166504,
      "d": 77.23579166669515,
      "v": 33
    },
    {
      "midi": 93,
      "hit": false,
      "t": 160325.24333333172,
      "d": 81.30083333334187,
      "v": 56
    },
    {
      "midi": 57,
      "hit": false,
      "t": 160325.24333333172,
      "d": 97.56100000001607,
      "v": 36
    },
    {
      "midi": 86,
      "hit": false,
      "t": 160382.15391666506,
      "d": 256.097625000024,
      "v": 51
    },
    {
      "midi": 89,
      "hit": false,
      "t": 160390.2839999984,
      "d": 36.58537499999511,
      "v": 55
    },
    {
      "midi": 57,
      "hit": false,
      "t": 160479.71491666508,
      "d": 117.88620833333698,
      "v": 50
    },
    {
      "midi": 58,
      "hit": false,
      "t": 160487.8449999984,
      "d": 105.69108333333861,
      "v": 54
    },
    {
      "midi": 62,
      "hit": false,
      "t": 160487.8449999984,
      "d": 113.82116666669026,
      "v": 50
    },
    {
      "midi": 79,
      "hit": false,
      "t": 160487.8449999984,
      "d": 126.01629166668863,
      "v": 58
    },
    {
      "midi": 91,
      "hit": false,
      "t": 160491.91004166508,
      "d": 109.75612500001444,
      "v": 49
    },
    {
      "midi": 52,
      "hit": false,
      "t": 160491.91004166508,
      "d": 113.82116666669026,
      "v": 60
    },
    {
      "midi": 62,
      "hit": false,
      "t": 160780.52799999842,
      "d": 97.56100000001607,
      "v": 80
    },
    {
      "midi": 57,
      "hit": false,
      "t": 160784.5930416651,
      "d": 113.82116666669026,
      "v": 63
    },
    {
      "midi": 58,
      "hit": false,
      "t": 160784.5930416651,
      "d": 126.01629166668863,
      "v": 62
    },
    {
      "midi": 52,
      "hit": false,
      "t": 160788.65808333177,
      "d": 97.56099999998696,
      "v": 66
    },
    {
      "midi": 81,
      "hit": false,
      "t": 160792.72312499845,
      "d": 85.36587499998859,
      "v": 75
    },
    {
      "midi": 86,
      "hit": false,
      "t": 160792.72312499845,
      "d": 93.49595833331114,
      "v": 66
    },
    {
      "midi": 93,
      "hit": false,
      "t": 160792.72312499845,
      "d": 97.56099999998696,
      "v": 80
    },
    {
      "midi": 89,
      "hit": false,
      "t": 160792.72312499845,
      "d": 101.62604166666279,
      "v": 69
    },
    {
      "midi": 62,
      "hit": false,
      "t": 161146.38174999846,
      "d": 56.910583333374234,
      "v": 68
    },
    {
      "midi": 57,
      "hit": false,
      "t": 161146.38174999846,
      "d": 69.1057083333726,
      "v": 64
    },
    {
      "midi": 58,
      "hit": false,
      "t": 161150.44679166513,
      "d": 60.975625000020955,
      "v": 45
    },
    {
      "midi": 91,
      "hit": false,
      "t": 161154.5118333318,
      "d": 56.91058333334513,
      "v": 74
    },
    {
      "midi": 79,
      "hit": false,
      "t": 161158.57687499849,
      "d": 40.650416666670935,
      "v": 68
    },
    {
      "midi": 86,
      "hit": false,
      "t": 161158.57687499849,
      "d": 52.845541666669305,
      "v": 66
    },
    {
      "midi": 52,
      "hit": false,
      "t": 161174.83704166516,
      "d": 36.58537499999511,
      "v": 36
    },
    {
      "midi": 62,
      "hit": false,
      "t": 161276.46308333182,
      "d": 65.04066666672588,
      "v": 60
    },
    {
      "midi": 57,
      "hit": false,
      "t": 161280.5281249985,
      "d": 73.17075000004843,
      "v": 53
    },
    {
      "midi": 58,
      "hit": false,
      "t": 161284.59316666517,
      "d": 77.23579166669515,
      "v": 54
    },
    {
      "midi": 91,
      "hit": false,
      "t": 161284.59316666517,
      "d": 77.23579166669515,
      "v": 69
    },
    {
      "midi": 79,
      "hit": false,
      "t": 161288.65820833185,
      "d": 48.780500000022585,
      "v": 71
    },
    {
      "midi": 86,
      "hit": false,
      "t": 161288.65820833185,
      "d": 77.23579166669515,
      "v": 62
    },
    {
      "midi": 52,
      "hit": false,
      "t": 161292.72324999853,
      "d": 56.91058333334513,
      "v": 60
    },
    {
      "midi": 62,
      "hit": false,
      "t": 161434.9997083319,
      "d": 89.43091666669352,
      "v": 74
    },
    {
      "midi": 52,
      "hit": false,
      "t": 161439.06474999856,
      "d": 203.25208333338378,
      "v": 74
    },
    {
      "midi": 57,
      "hit": false,
      "t": 161443.12979166524,
      "d": 77.23579166666605,
      "v": 60
    },
    {
      "midi": 93,
      "hit": false,
      "t": 161443.12979166524,
      "d": 89.43091666666442,
      "v": 84
    },
    {
      "midi": 58,
      "hit": false,
      "t": 161443.12979166524,
      "d": 93.49595833334024,
      "v": 59
    },
    {
      "midi": 86,
      "hit": false,
      "t": 161447.19483333192,
      "d": 93.49595833334024,
      "v": 68
    },
    {
      "midi": 81,
      "hit": false,
      "t": 161451.2598749986,
      "d": 69.1057083333144,
      "v": 66
    },
    {
      "midi": 89,
      "hit": false,
      "t": 161459.3899583319,
      "d": 73.17074999999022,
      "v": 54
    },
    {
      "midi": 62,
      "hit": false,
      "t": 161597.6013749986,
      "d": 52.845541666669305,
      "v": 59
    },
    {
      "midi": 91,
      "hit": false,
      "t": 161597.6013749986,
      "d": 65.04066666666768,
      "v": 66
    },
    {
      "midi": 86,
      "hit": false,
      "t": 161601.66641666528,
      "d": 48.78049999999348,
      "v": 54
    },
    {
      "midi": 58,
      "hit": false,
      "t": 161601.66641666528,
      "d": 56.910583333316026,
      "v": 49
    },
    {
      "midi": 57,
      "hit": false,
      "t": 161605.73145833195,
      "d": 24.39024999999674,
      "v": 48
    },
    {
      "midi": 79,
      "hit": false,
      "t": 161605.73145833195,
      "d": 24.39024999999674,
      "v": 61
    },
    {
      "midi": 61,
      "hit": false,
      "t": 161926.86974999862,
      "d": 154.4715833334485,
      "v": 71
    },
    {
      "midi": 65,
      "hit": false,
      "t": 161930.9347916653,
      "d": 126.01629166671773,
      "v": 85
    },
    {
      "midi": 60,
      "hit": false,
      "t": 161930.9347916653,
      "d": 134.14637500006938,
      "v": 80
    },
    {
      "midi": 55,
      "hit": false,
      "t": 161934.99983333197,
      "d": 126.01629166671773,
      "v": 78
    },
    {
      "midi": 58,
      "hit": false,
      "t": 161934.99983333197,
      "d": 134.14637500006938,
      "v": 50
    },
    {
      "midi": 84,
      "hit": false,
      "t": 161939.06487499864,
      "d": 105.69108333336771,
      "v": 92
    },
    {
      "midi": 96,
      "hit": false,
      "t": 161939.06487499864,
      "d": 113.82116666669026,
      "v": 94
    },
    {
      "midi": 93,
      "hit": false,
      "t": 161943.12991666532,
      "d": 130.08133333339356,
      "v": 74
    },
    {
      "midi": 89,
      "hit": false,
      "t": 161947.194958332,
      "d": 69.1057083333435,
      "v": 79
    },
    {
      "midi": 96,
      "hit": false,
      "t": 162130.12183333206,
      "d": 81.30083333331277,
      "v": 76
    },
    {
      "midi": 65,
      "hit": false,
      "t": 162134.18687499873,
      "d": 97.56099999998696,
      "v": 67
    },
    {
      "midi": 60,
      "hit": false,
      "t": 162134.18687499873,
      "d": 105.6910833333095,
      "v": 60
    },
    {
      "midi": 61,
      "hit": false,
      "t": 162134.18687499873,
      "d": 113.82116666663205,
      "v": 49
    },
    {
      "midi": 84,
      "hit": false,
      "t": 162142.31695833206,
      "d": 60.97562499999185,
      "v": 64
    },
    {
      "midi": 55,
      "hit": false,
      "t": 162142.31695833206,
      "d": 85.36587499998859,
      "v": 58
    },
    {
      "midi": 58,
      "hit": false,
      "t": 162150.44704166538,
      "d": 89.43091666666442,
      "v": 33
    },
    {
      "midi": 89,
      "hit": false,
      "t": 162154.51208333205,
      "d": 73.17074999999022,
      "v": 64
    },
    {
      "midi": 93,
      "hit": false,
      "t": 162162.64216666538,
      "d": 28.455291666672565,
      "v": 31
    },
    {
      "midi": 65,
      "hit": false,
      "t": 162304.9186249987,
      "d": 52.845541666669305,
      "v": 55
    },
    {
      "midi": 60,
      "hit": false,
      "t": 162304.9186249987,
      "d": 60.97562499999185,
      "v": 62
    },
    {
      "midi": 61,
      "hit": false,
      "t": 162308.9836666654,
      "d": 73.17074999999022,
      "v": 39
    },
    {
      "midi": 81,
      "hit": false,
      "t": 162313.04870833206,
      "d": 32.520333333319286,
      "v": 42
    },
    {
      "midi": 95,
      "hit": false,
      "t": 162313.04870833206,
      "d": 52.8455416666402,
      "v": 45
    },
    {
      "midi": 93,
      "hit": false,
      "t": 162313.04870833206,
      "d": 65.04066666663857,
      "v": 43
    },
    {
      "midi": 65,
      "hit": false,
      "t": 162483.78045833204,
      "d": 56.91058333340334,
      "v": 73
    },
    {
      "midi": 60,
      "hit": false,
      "t": 162483.78045833204,
      "d": 60.97562500007916,
      "v": 68
    },
    {
      "midi": 84,
      "hit": false,
      "t": 162483.78045833204,
      "d": 69.10570833340171,
      "v": 66
    },
    {
      "midi": 96,
      "hit": false,
      "t": 162487.84549999872,
      "d": 69.10570833340171,
      "v": 68
    },
    {
      "midi": 61,
      "hit": false,
      "t": 162487.84549999872,
      "d": 77.23579166672425,
      "v": 53
    },
    {
      "midi": 55,
      "hit": false,
      "t": 162504.1056666654,
      "d": 24.390250000025844,
      "v": 49
    },
    {
      "midi": 93,
      "hit": false,
      "t": 162504.1056666654,
      "d": 48.78050000005169,
      "v": 35
    },
    {
      "midi": 58,
      "hit": false,
      "t": 162508.17070833207,
      "d": 24.390250000025844,
      "v": 23
    },
    {
      "midi": 89,
      "hit": false,
      "t": 162512.23574999874,
      "d": 24.390250000025844,
      "v": 26
    },
    {
      "midi": 84,
      "hit": false,
      "t": 162780.52849999876,
      "d": 48.78049999999348,
      "v": 74
    },
    {
      "midi": 96,
      "hit": false,
      "t": 162780.52849999876,
      "d": 65.04066666666768,
      "v": 77
    },
    {
      "midi": 60,
      "hit": false,
      "t": 162788.6585833321,
      "d": 52.845541666669305,
      "v": 73
    },
    {
      "midi": 61,
      "hit": false,
      "t": 162788.6585833321,
      "d": 77.23579166669515,
      "v": 62
    },
    {
      "midi": 65,
      "hit": false,
      "t": 162792.72362499876,
      "d": 20.325208333320916,
      "v": 70
    },
    {
      "midi": 89,
      "hit": false,
      "t": 162796.78866666544,
      "d": 20.325208333320916,
      "v": 51
    },
    {
      "midi": 58,
      "hit": false,
      "t": 162804.91874999876,
      "d": 44.71545833334676,
      "v": 33
    },
    {
      "midi": 55,
      "hit": false,
      "t": 162813.04883333208,
      "d": 24.39024999999674,
      "v": 38
    },
    {
      "midi": 60,
      "hit": false,
      "t": 162971.58545833212,
      "d": 304.87812500001746,
      "v": 66
    },
    {
      "midi": 65,
      "hit": false,
      "t": 162979.71554166544,
      "d": 243.9025000000256,
      "v": 66
    },
    {
      "midi": 61,
      "hit": false,
      "t": 162979.71554166544,
      "d": 272.3577916666982,
      "v": 60
    },
    {
      "midi": 55,
      "hit": false,
      "t": 162983.78058333212,
      "d": 548.7806250000431,
      "v": 66
    },
    {
      "midi": 58,
      "hit": false,
      "t": 163000.0407499988,
      "d": 528.455416666693,
      "v": 28
    },
    {
      "midi": 101,
      "hit": false,
      "t": 163195.1627499988,
      "d": 97.56100000001607,
      "v": 94
    },
    {
      "midi": 96,
      "hit": false,
      "t": 163341.5042499988,
      "d": 117.88620833333698,
      "v": 88
    },
    {
      "midi": 61,
      "hit": false,
      "t": 163463.45549999882,
      "d": 44.71545833334676,
      "v": 46
    },
    {
      "midi": 93,
      "hit": false,
      "t": 163479.7156666655,
      "d": 130.08133333333535,
      "v": 77
    },
    {
      "midi": 89,
      "hit": false,
      "t": 163642.31733333215,
      "d": 36.58537499999511,
      "v": 58
    },
    {
      "midi": 57,
      "hit": false,
      "t": 163800.85395833215,
      "d": 252.03258333331905,
      "v": 76
    },
    {
      "midi": 50,
      "hit": false,
      "t": 163804.91899999883,
      "d": 227.6423333333223,
      "v": 74
    },
    {
      "midi": 100,
      "hit": false,
      "t": 164000.04099999883,
      "d": 93.49595833331114,
      "v": 94
    },
    {
      "midi": 97,
      "hit": false,
      "t": 164146.3824999988,
      "d": 117.88620833333698,
      "v": 77
    },
    {
      "midi": 93,
      "hit": false,
      "t": 164300.85408333215,
      "d": 93.49595833334024,
      "v": 74
    },
    {
      "midi": 93,
      "hit": false,
      "t": 164654.51270833216,
      "d": 85.36587499998859,
      "v": 84
    },
    {
      "midi": 89,
      "hit": false,
      "t": 164788.65908333214,
      "d": 101.62604166666279,
      "v": 68
    },
    {
      "midi": 60,
      "hit": false,
      "t": 164939.0656249988,
      "d": 178.86183333329973,
      "v": 51
    },
    {
      "midi": 50,
      "hit": false,
      "t": 164939.0656249988,
      "d": 325.2033333333093,
      "v": 53
    },
    {
      "midi": 83,
      "hit": false,
      "t": 165085.40712499878,
      "d": 48.78049999999348,
      "v": 47
    },
    {
      "midi": 88,
      "hit": false,
      "t": 165239.8787083321,
      "d": 113.82116666666116,
      "v": 91
    },
    {
      "midi": 91,
      "hit": false,
      "t": 165406.54541666544,
      "d": 101.62604166666279,
      "v": 87
    },
    {
      "midi": 89,
      "hit": false,
      "t": 165540.69179166542,
      "d": 93.49595833334024,
      "v": 75
    },
    {
      "midi": 87,
      "hit": false,
      "t": 165699.22841666543,
      "d": 1032.5205833333603,
      "v": 70
    },
    {
      "midi": 65,
      "hit": false,
      "t": 165703.2934583321,
      "d": 215.44720833332394,
      "v": 56
    },
    {
      "midi": 54,
      "hit": false,
      "t": 165703.2934583321,
      "d": 268.29274999999325,
      "v": 50
    },
    {
      "midi": 60,
      "hit": false,
      "t": 165707.35849999878,
      "d": 211.38216666664812,
      "v": 49
    },
    {
      "midi": 54,
      "hit": false,
      "t": 166390.28549999878,
      "d": 215.44720833332394,
      "v": 40
    },
    {
      "midi": 60,
      "hit": false,
      "t": 166398.4155833321,
      "d": 223.5772916666756,
      "v": 36
    },
    {
      "midi": 50,
      "hit": false,
      "t": 166406.54566666542,
      "d": 182.92687500000466,
      "v": 35
    },
    {
      "midi": 65,
      "hit": false,
      "t": 166861.83033333212,
      "d": 56.91058333334513,
      "v": 44
    },
    {
      "midi": 86,
      "hit": false,
      "t": 166865.8953749988,
      "d": 48.78049999999348,
      "v": 66
    },
    {
      "midi": 54,
      "hit": false,
      "t": 166865.8953749988,
      "d": 662.601791666646,
      "v": 43
    },
    {
      "midi": 60,
      "hit": false,
      "t": 166869.96041666548,
      "d": 304.87812499995925,
      "v": 46
    },
    {
      "midi": 87,
      "hit": false,
      "t": 166918.74091666547,
      "d": 109.75612499998533,
      "v": 67
    },
    {
      "midi": 86,
      "hit": false,
      "t": 166979.71654166546,
      "d": 69.1057083333144,
      "v": 45
    },
    {
      "midi": 84,
      "hit": false,
      "t": 167052.88729166545,
      "d": 48.78049999999348,
      "v": 63
    },
    {
      "midi": 83,
      "hit": false,
      "t": 167187.03366666543,
      "d": 60.975625000020955,
      "v": 53
    },
    {
      "midi": 81,
      "hit": false,
      "t": 167191.0987083321,
      "d": 28.455291666672565,
      "v": 45
    },
    {
      "midi": 81,
      "hit": false,
      "t": 167296.78979166545,
      "d": 56.910583333316026,
      "v": 55
    },
    {
      "midi": 64,
      "hit": false,
      "t": 167317.11499999877,
      "d": 134.14637500001118,
      "v": 31
    },
    {
      "midi": 60,
      "hit": false,
      "t": 167321.18004166544,
      "d": 134.14637500001118,
      "v": 37
    },
    {
      "midi": 80,
      "hit": false,
      "t": 167422.8060833321,
      "d": 93.49595833334024,
      "v": 52
    },
    {
      "midi": 78,
      "hit": false,
      "t": 167548.82237499877,
      "d": 109.75612499998533,
      "v": 47
    },
    {
      "midi": 77,
      "hit": false,
      "t": 167662.64354166543,
      "d": 77.23579166666605,
      "v": 58
    },
    {
      "midi": 62,
      "hit": false,
      "t": 167776.4647083321,
      "d": 28.455291666672565,
      "v": 32
    },
    {
      "midi": 75,
      "hit": false,
      "t": 167776.4647083321,
      "d": 85.3658750000177,
      "v": 54
    },
    {
      "midi": 58,
      "hit": false,
      "t": 167780.52974999876,
      "d": 52.845541666669305,
      "v": 36
    },
    {
      "midi": 74,
      "hit": false,
      "t": 167926.87124999877,
      "d": 65.04066666666768,
      "v": 50
    },
    {
      "midi": 77,
      "hit": false,
      "t": 168032.5623333321,
      "d": 93.49595833334024,
      "v": 72
    },
    {
      "midi": 72,
      "hit": false,
      "t": 168174.83879166545,
      "d": 56.91058333334513,
      "v": 50
    },
    {
      "midi": 74,
      "hit": false,
      "t": 168276.46483333214,
      "d": 109.75612500001444,
      "v": 66
    },
    {
      "midi": 50,
      "hit": false,
      "t": 168292.7249999988,
      "d": 85.3658750000177,
      "v": 26
    },
    {
      "midi": 43,
      "hit": false,
      "t": 168296.7900416655,
      "d": 40.650416666670935,
      "v": 27
    },
    {
      "midi": 72,
      "hit": false,
      "t": 168532.56245833216,
      "d": 93.49595833334024,
      "v": 66
    },
    {
      "midi": 70,
      "hit": false,
      "t": 168682.96899999885,
      "d": 97.56099999998696,
      "v": 58
    },
    {
      "midi": 62,
      "hit": false,
      "t": 168796.7901666655,
      "d": 134.14637500001118,
      "v": 36
    },
    {
      "midi": 58,
      "hit": false,
      "t": 168800.85520833218,
      "d": 195.12200000000303,
      "v": 37
    },
    {
      "midi": 65,
      "hit": false,
      "t": 168808.9852916655,
      "d": 150.40654166668537,
      "v": 32
    },
    {
      "midi": 65,
      "hit": false,
      "t": 169089.47316666553,
      "d": 203.25208333335468,
      "v": 71
    },
    {
      "midi": 60,
      "hit": false,
      "t": 169093.5382083322,
      "d": 219.51224999999977,
      "v": 65
    },
    {
      "midi": 55,
      "hit": false,
      "t": 169097.60324999888,
      "d": 235.77241666664486,
      "v": 68
    },
    {
      "midi": 69,
      "hit": false,
      "t": 169406.54641666551,
      "d": 77.23579166666605,
      "v": 67
    },
    {
      "midi": 65,
      "hit": false,
      "t": 169552.88791666552,
      "d": 138.2114166666579,
      "v": 56
    },
    {
      "midi": 58,
      "hit": false,
      "t": 169711.4245416655,
      "d": 426.82937500003027,
      "v": 47
    },
    {
      "midi": 48,
      "hit": false,
      "t": 169719.55462499885,
      "d": 678.8619583333493,
      "v": 53
    },
    {
      "midi": 67,
      "hit": false,
      "t": 169731.74974999885,
      "d": 934.9595833333733,
      "v": 50
    },
    {
      "midi": 63,
      "hit": false,
      "t": 170231.74987499887,
      "d": 365.8537500000093,
      "v": 69
    },
    {
      "midi": 58,
      "hit": false,
      "t": 170239.8799583322,
      "d": 357.72366666668677,
      "v": 43
    },
    {
      "midi": 48,
      "hit": false,
      "t": 170544.7580833322,
      "d": 272.3577916666982,
      "v": 60
    },
    {
      "midi": 58,
      "hit": false,
      "t": 170715.48983333222,
      "d": 150.40654166668537,
      "v": 40
    },
    {
      "midi": 64,
      "hit": false,
      "t": 170719.5548749989,
      "d": 81.30083333334187,
      "v": 51
    },
    {
      "midi": 60,
      "hit": false,
      "t": 170723.61991666557,
      "d": 60.97562499999185,
      "v": 48
    },
    {
      "midi": 63,
      "hit": false,
      "t": 171020.36795833224,
      "d": 97.56099999998696,
      "v": 61
    },
    {
      "midi": 75,
      "hit": false,
      "t": 171020.36795833224,
      "d": 109.75612499998533,
      "v": 74
    },
    {
      "midi": 68,
      "hit": false,
      "t": 171024.4329999989,
      "d": 219.51224999999977,
      "v": 71
    },
    {
      "midi": 64,
      "hit": false,
      "t": 171028.4980416656,
      "d": 105.6910833333095,
      "v": 74
    },
    {
      "midi": 72,
      "hit": false,
      "t": 171036.6281249989,
      "d": 73.17074999999022,
      "v": 57
    },
    {
      "midi": 73,
      "hit": false,
      "t": 171162.64441666557,
      "d": 85.3658750000177,
      "v": 68
    },
    {
      "midi": 61,
      "hit": false,
      "t": 171162.64441666557,
      "d": 105.69108333333861,
      "v": 49
    },
    {
      "midi": 64,
      "hit": false,
      "t": 171174.83954166557,
      "d": 65.04066666666768,
      "v": 26
    },
    {
      "midi": 60,
      "hit": false,
      "t": 171313.05095833226,
      "d": 28.455291666672565,
      "v": 53
    },
    {
      "midi": 72,
      "hit": false,
      "t": 171325.24608333225,
      "d": 52.845541666669305,
      "v": 55
    },
    {
      "midi": 62,
      "hit": false,
      "t": 171333.37616666558,
      "d": 65.04066666669678,
      "v": 48
    },
    {
      "midi": 67,
      "hit": false,
      "t": 171337.44120833225,
      "d": 44.71545833334676,
      "v": 43
    },
    {
      "midi": 58,
      "hit": false,
      "t": 171451.26237499894,
      "d": 150.40654166668537,
      "v": 32
    },
    {
      "midi": 70,
      "hit": false,
      "t": 171455.32741666562,
      "d": 89.43091666666442,
      "v": 38
    },
    {
      "midi": 72,
      "hit": false,
      "t": 171613.86404166563,
      "d": 93.49595833336934,
      "v": 67
    },
    {
      "midi": 62,
      "hit": false,
      "t": 171617.9290833323,
      "d": 142.27645833336283,
      "v": 53
    },
    {
      "midi": 67,
      "hit": false,
      "t": 171621.99412499898,
      "d": 93.49595833334024,
      "v": 58
    },
    {
      "midi": 57,
      "hit": false,
      "t": 171638.25429166565,
      "d": 69.1057083333435,
      "v": 47
    },
    {
      "midi": 69,
      "hit": false,
      "t": 171898.41695833232,
      "d": 142.27645833333372,
      "v": 64
    },
    {
      "midi": 60,
      "hit": false,
      "t": 171902.481999999,
      "d": 207.3171250000014,
      "v": 60
    },
    {
      "midi": 64,
      "hit": false,
      "t": 171906.54704166568,
      "d": 158.5366249999788,
      "v": 60
    },
    {
      "midi": 52,
      "hit": false,
      "t": 171914.677124999,
      "d": 215.44720833332394,
      "v": 38
    },
    {
      "midi": 62,
      "hit": false,
      "t": 172215.4902083323,
      "d": 138.2114166666288,
      "v": 45
    },
    {
      "midi": 57,
      "hit": false,
      "t": 172223.62029166563,
      "d": 170.73174999997718,
      "v": 36
    },
    {
      "midi": 48,
      "hit": false,
      "t": 172231.75037499896,
      "d": 219.51224999999977,
      "v": 48
    },
    {
      "midi": 64,
      "hit": false,
      "t": 172508.1732083323,
      "d": 195.12200000000303,
      "v": 48
    },
    {
      "midi": 67,
      "hit": false,
      "t": 172512.23824999898,
      "d": 223.5772916666465,
      "v": 52
    },
    {
      "midi": 57,
      "hit": false,
      "t": 172512.23824999898,
      "d": 239.83745833332068,
      "v": 57
    },
    {
      "midi": 52,
      "hit": false,
      "t": 172516.30329166565,
      "d": 264.2277083333174,
      "v": 58
    },
    {
      "midi": 60,
      "hit": false,
      "t": 172524.43337499897,
      "d": 223.5772916666465,
      "v": 66
    },
    {
      "midi": 60,
      "hit": false,
      "t": 172853.70174999896,
      "d": 109.75612500004354,
      "v": 56
    },
    {
      "midi": 65,
      "hit": false,
      "t": 172853.70174999896,
      "d": 126.01629166671773,
      "v": 48
    },
    {
      "midi": 57,
      "hit": false,
      "t": 172861.8318333323,
      "d": 117.88620833336608,
      "v": 36
    },
    {
      "midi": 50,
      "hit": false,
      "t": 172865.896874999,
      "d": 178.86183333335794,
      "v": 42
    },
    {
      "midi": 60,
      "hit": false,
      "t": 173178.90508333236,
      "d": 97.56100000001607,
      "v": 41
    },
    {
      "midi": 53,
      "hit": false,
      "t": 173182.97012499903,
      "d": 85.36587499998859,
      "v": 30
    },
    {
      "midi": 57,
      "hit": false,
      "t": 173182.97012499903,
      "d": 89.43091666666442,
      "v": 33
    },
    {
      "midi": 48,
      "hit": false,
      "t": 173187.0351666657,
      "d": 81.30083333331277,
      "v": 29
    },
    {
      "midi": 41,
      "hit": false,
      "t": 173195.16524999903,
      "d": 97.56100000001607,
      "v": 32
    },
    {
      "midi": 58,
      "hit": false,
      "t": 173491.91329166573,
      "d": 174.7967916666821,
      "v": 50
    },
    {
      "midi": 40,
      "hit": false,
      "t": 173504.10841666572,
      "d": 186.99191666668048,
      "v": 51
    },
    {
      "midi": 62,
      "hit": false,
      "t": 173508.1734583324,
      "d": 280.4878750000207,
      "v": 46
    },
    {
      "midi": 64,
      "hit": false,
      "t": 173508.1734583324,
      "d": 402.4391250000335,
      "v": 55
    },
    {
      "midi": 47,
      "hit": false,
      "t": 173520.3685833324,
      "d": 186.99191666668048,
      "v": 33
    },
    {
      "midi": 69,
      "hit": false,
      "t": 174691.10058333242,
      "d": 138.211416666687,
      "v": 74
    },
    {
      "midi": 65,
      "hit": false,
      "t": 174691.10058333242,
      "d": 146.34150000000955,
      "v": 73
    },
    {
      "midi": 60,
      "hit": false,
      "t": 174695.1656249991,
      "d": 113.82116666669026,
      "v": 78
    },
    {
      "midi": 55,
      "hit": false,
      "t": 174699.23066666577,
      "d": 313.0082083333109,
      "v": 77
    },
    {
      "midi": 71,
      "hit": false,
      "t": 175016.30391666575,
      "d": 85.3658750000177,
      "v": 71
    },
    {
      "midi": 62,
      "hit": false,
      "t": 175020.36895833243,
      "d": 60.975625000020955,
      "v": 74
    },
    {
      "midi": 67,
      "hit": false,
      "t": 175024.4339999991,
      "d": 52.845541666669305,
      "v": 62
    },
    {
      "midi": 57,
      "hit": false,
      "t": 175024.4339999991,
      "d": 284.55291666666744,
      "v": 62
    },
    {
      "midi": 73,
      "hit": false,
      "t": 175296.79179166578,
      "d": 166.66670833333046,
      "v": 67
    },
    {
      "midi": 69,
      "hit": false,
      "t": 175304.9218749991,
      "d": 117.88620833333698,
      "v": 66
    },
    {
      "midi": 64,
      "hit": false,
      "t": 175308.98691666577,
      "d": 85.36587499998859,
      "v": 56
    },
    {
      "midi": 59,
      "hit": false,
      "t": 175308.98691666577,
      "d": 215.44720833332394,
      "v": 56
    },
    {
      "midi": 61,
      "hit": false,
      "t": 175593.53983333244,
      "d": 170.7317500000063,
      "v": 58
    },
    {
      "midi": 76,
      "hit": false,
      "t": 175597.60487499912,
      "d": 138.2114166666579,
      "v": 73
    },
    {
      "midi": 69,
      "hit": false,
      "t": 175601.6699166658,
      "d": 105.6910833333095,
      "v": 70
    },
    {
      "midi": 65,
      "hit": false,
      "t": 175609.79999999912,
      "d": 85.36587499998859,
      "v": 53
    },
    {
      "midi": 79,
      "hit": false,
      "t": 175918.74316666578,
      "d": 174.79679166671121,
      "v": 67
    },
    {
      "midi": 73,
      "hit": false,
      "t": 175922.80820833246,
      "d": 227.64233333338052,
      "v": 67
    },
    {
      "midi": 64,
      "hit": false,
      "t": 175926.87324999913,
      "d": 235.77241666670307,
      "v": 62
    },
    {
      "midi": 69,
      "hit": false,
      "t": 175930.9382916658,
      "d": 223.5772916667047,
      "v": 60
    },
    {
      "midi": 77,
      "hit": false,
      "t": 176239.8814583325,
      "d": 126.01629166668863,
      "v": 61
    },
    {
      "midi": 69,
      "hit": false,
      "t": 176243.94649999918,
      "d": 174.7967916666821,
      "v": 50
    },
    {
      "midi": 62,
      "hit": false,
      "t": 176248.01154166585,
      "d": 186.99191666668048,
      "v": 40
    },
    {
      "midi": 72,
      "hit": false,
      "t": 176252.07658333253,
      "d": 126.01629166665953,
      "v": 59
    },
    {
      "midi": 65,
      "hit": false,
      "t": 176569.14983333254,
      "d": 386.17895833333023,
      "v": 41
    },
    {
      "midi": 60,
      "hit": false,
      "t": 176573.21487499922,
      "d": 260.1626666666707,
      "v": 55
    },
    {
      "midi": 69,
      "hit": false,
      "t": 176573.21487499922,
      "d": 361.7887083333335,
      "v": 66
    },
    {
      "midi": 57,
      "hit": false,
      "t": 176890.28812499924,
      "d": 32.520333333319286,
      "v": 59
    },
    {
      "midi": 44,
      "hit": false,
      "t": 177056.95483333254,
      "d": 219.51224999999977,
      "v": 53
    },
    {
      "midi": 54,
      "hit": false,
      "t": 177065.08491666586,
      "d": 186.99191666668048,
      "v": 35
    },
    {
      "midi": 58,
      "hit": false,
      "t": 177365.8979999992,
      "d": 130.08133333336446,
      "v": 53
    },
    {
      "midi": 43,
      "hit": false,
      "t": 177369.96304166588,
      "d": 162.60166666668374,
      "v": 48
    },
    {
      "midi": 57,
      "hit": false,
      "t": 177374.02808333255,
      "d": 81.30083333334187,
      "v": 40
    },
    {
      "midi": 50,
      "hit": false,
      "t": 177398.41833333255,
      "d": 130.08133333333535,
      "v": 34
    },
    {
      "midi": 53,
      "hit": false,
      "t": 177398.41833333255,
      "d": 154.4715833333321,
      "v": 30
    },
    {
      "midi": 84,
      "hit": false,
      "t": 177772.40216666588,
      "d": 77.23579166663694,
      "v": 81
    },
    {
      "midi": 72,
      "hit": false,
      "t": 177780.5322499992,
      "d": 48.78049999999348,
      "v": 68
    },
    {
      "midi": 81,
      "hit": false,
      "t": 177930.93879166586,
      "d": 32.520333333319286,
      "v": 33
    },
    {
      "midi": 62,
      "hit": false,
      "t": 178056.9550833325,
      "d": 276.4228333333158,
      "v": 37
    },
    {
      "midi": 84,
      "hit": false,
      "t": 178065.0851666658,
      "d": 256.0976249999949,
      "v": 80
    },
    {
      "midi": 58,
      "hit": false,
      "t": 178073.21524999914,
      "d": 313.00820833334,
      "v": 32
    },
    {
      "midi": 72,
      "hit": false,
      "t": 178077.2802916658,
      "d": 410.56920833332697,
      "v": 64
    },
    {
      "midi": 57,
      "hit": false,
      "t": 178081.3453333325,
      "d": 280.4878749999916,
      "v": 18
    },
    {
      "midi": 82,
      "hit": false,
      "t": 178402.48362499915,
      "d": 752.0327083332522,
      "v": 65
    },
    {
      "midi": 62,
      "hit": false,
      "t": 178540.6950416658,
      "d": 195.12199999997392,
      "v": 26
    },
    {
      "midi": 55,
      "hit": false,
      "t": 178548.82512499913,
      "d": 247.96754166664323,
      "v": 43
    },
    {
      "midi": 58,
      "hit": false,
      "t": 178548.82512499913,
      "d": 386.1789583333011,
      "v": 25
    },
    {
      "midi": 54,
      "hit": false,
      "t": 179024.4349999991,
      "d": 231.70737499996903,
      "v": 36
    },
    {
      "midi": 58,
      "hit": false,
      "t": 179032.56508333242,
      "d": 256.0976249999949,
      "v": 26
    },
    {
      "midi": 62,
      "hit": false,
      "t": 179056.95533333241,
      "d": 203.25208333332557,
      "v": 16
    },
    {
      "midi": 74,
      "hit": false,
      "t": 179333.37816666576,
      "d": 105.69108333333861,
      "v": 52
    },
    {
      "midi": 76,
      "hit": false,
      "t": 179508.17495833244,
      "d": 280.4878750000207,
      "v": 56
    },
    {
      "midi": 62,
      "hit": false,
      "t": 179512.23999999912,
      "d": 105.69108333333861,
      "v": 45
    },
    {
      "midi": 52,
      "hit": false,
      "t": 179524.43512499912,
      "d": 36.58537499999511,
      "v": 34
    },
    {
      "midi": 56,
      "hit": false,
      "t": 179524.43512499912,
      "d": 77.23579166666605,
      "v": 28
    },
    {
      "midi": 67,
      "hit": false,
      "t": 179987.84987499914,
      "d": 191.0569583333563,
      "v": 43
    },
    {
      "midi": 56,
      "hit": false,
      "t": 179991.91491666582,
      "d": 146.34150000000955,
      "v": 48
    },
    {
      "midi": 62,
      "hit": false,
      "t": 179995.9799583325,
      "d": 117.88620833333698,
      "v": 37
    },
    {
      "midi": 69,
      "hit": false,
      "t": 180467.52479166584,
      "d": 150.40654166665627,
      "v": 53
    },
    {
      "midi": 64,
      "hit": false,
      "t": 180508.1752083325,
      "d": 93.49595833331114,
      "v": 19
    },
    {
      "midi": 58,
      "hit": false,
      "t": 180516.30529166583,
      "d": 146.34150000000955,
      "v": 34
    },
    {
      "midi": 91,
      "hit": false,
      "t": 180796.79316666586,
      "d": 113.82116666669026,
      "v": 92
    },
    {
      "midi": 79,
      "hit": false,
      "t": 180800.85820833253,
      "d": 138.211416666687,
      "v": 90
    },
    {
      "midi": 67,
      "hit": false,
      "t": 180926.87449999922,
      "d": 268.29275000002235,
      "v": 32
    },
    {
      "midi": 62,
      "hit": false,
      "t": 180935.00458333254,
      "d": 252.03258333334816,
      "v": 32
    },
    {
      "midi": 56,
      "hit": false,
      "t": 180939.06962499922,
      "d": 337.39845833333675,
      "v": 27
    },
    {
      "midi": 91,
      "hit": false,
      "t": 181126.0615416659,
      "d": 101.62604166666279,
      "v": 72
    },
    {
      "midi": 79,
      "hit": false,
      "t": 181134.19162499922,
      "d": 56.91058333334513,
      "v": 60
    },
    {
      "midi": 91,
      "hit": false,
      "t": 181422.80958333256,
      "d": 105.6910833333095,
      "v": 70
    },
    {
      "midi": 66,
      "hit": false,
      "t": 181430.9396666659,
      "d": 56.910583333316026,
      "v": 55
    },
    {
      "midi": 85,
      "hit": false,
      "t": 181430.9396666659,
      "d": 85.36587499998859,
      "v": 59
    },
    {
      "midi": 88,
      "hit": false,
      "t": 181430.9396666659,
      "d": 93.49595833331114,
      "v": 46
    },
    {
      "midi": 79,
      "hit": false,
      "t": 181439.0697499992,
      "d": 73.17074999999022,
      "v": 47
    },
    {
      "midi": 61,
      "hit": false,
      "t": 181447.19983333253,
      "d": 48.78049999999348,
      "v": 36
    },
    {
      "midi": 55,
      "hit": false,
      "t": 181451.2648749992,
      "d": 48.78049999999348,
      "v": 36
    },
    {
      "midi": 45,
      "hit": false,
      "t": 181764.27308333255,
      "d": 239.83745833332068,
      "v": 58
    },
    {
      "midi": 88,
      "hit": false,
      "t": 181939.0698749992,
      "d": 73.17074999999022,
      "v": 68
    },
    {
      "midi": 85,
      "hit": false,
      "t": 181939.0698749992,
      "d": 77.23579166666605,
      "v": 62
    },
    {
      "midi": 82,
      "hit": false,
      "t": 181943.13491666588,
      "d": 85.36587499998859,
      "v": 62
    },
    {
      "midi": 76,
      "hit": false,
      "t": 181943.13491666588,
      "d": 101.62604166663368,
      "v": 65
    },
    {
      "midi": 55,
      "hit": false,
      "t": 181951.2649999992,
      "d": 85.36587499998859,
      "v": 56
    },
    {
      "midi": 79,
      "hit": false,
      "t": 182268.3382499992,
      "d": 243.9024999999965,
      "v": 82
    },
    {
      "midi": 70,
      "hit": false,
      "t": 182272.40329166586,
      "d": 272.35779166663997,
      "v": 86
    },
    {
      "midi": 73,
      "hit": false,
      "t": 182276.46833333254,
      "d": 284.55291666663834,
      "v": 73
    },
    {
      "midi": 64,
      "hit": false,
      "t": 182276.46833333254,
      "d": 670.7318749999977,
      "v": 80
    },
    {
      "midi": 76,
      "hit": false,
      "t": 182292.7284999992,
      "d": 178.86183333329973,
      "v": 35
    },
    {
      "midi": 76,
      "hit": false,
      "t": 182930.94004166583,
      "d": 1239.8377083333908,
      "v": 58
    },
    {
      "midi": 61,
      "hit": false,
      "t": 182935.0050833325,
      "d": 89.43091666669352,
      "v": 53
    },
    {
      "midi": 73,
      "hit": false,
      "t": 182939.07012499918,
      "d": 430.894416666677,
      "v": 55
    },
    {
      "midi": 67,
      "hit": false,
      "t": 182943.13516666586,
      "d": 264.2277083333465,
      "v": 46
    },
    {
      "midi": 70,
      "hit": false,
      "t": 182943.13516666586,
      "d": 406.50416666668025,
      "v": 53
    },
    {
      "midi": 69,
      "hit": false,
      "t": 183414.6799999992,
      "d": 768.2928750000137,
      "v": 57
    },
    {
      "midi": 65,
      "hit": false,
      "t": 183418.74504166588,
      "d": 792.6831250000105,
      "v": 45
    },
    {
      "midi": 60,
      "hit": false,
      "t": 183439.0702499992,
      "d": 617.8863333333575,
      "v": 32
    },
    {
      "midi": 50,
      "hit": false,
      "t": 183752.07845833251,
      "d": 121.9512500000128,
      "v": 71
    },
    {
      "midi": 50,
      "hit": false,
      "t": 183959.39558333255,
      "d": 73.17075000001932,
      "v": 56
    },
    {
      "midi": 50,
      "hit": false,
      "t": 184243.9484999992,
      "d": 73.17074999999022,
      "v": 64
    },
    {
      "midi": 47,
      "hit": false,
      "t": 184439.07049999922,
      "d": 512.1952499999607,
      "v": 46
    },
    {
      "midi": 61,
      "hit": false,
      "t": 184731.7534999992,
      "d": 117.88620833330788,
      "v": 55
    },
    {
      "midi": 54,
      "hit": false,
      "t": 184739.88358333253,
      "d": 516.2602916666365,
      "v": 37
    },
    {
      "midi": 57,
      "hit": false,
      "t": 184743.9486249992,
      "d": 121.9512499999837,
      "v": 40
    },
    {
      "midi": 62,
      "hit": false,
      "t": 184918.74541666586,
      "d": 138.2114166666579,
      "v": 36
    },
    {
      "midi": 47,
      "hit": false,
      "t": 185203.2983333325,
      "d": 60.97562499999185,
      "v": 41
    },
    {
      "midi": 56,
      "hit": false,
      "t": 185365.89999999915,
      "d": 130.08133333333535,
      "v": 37
    },
    {
      "midi": 65,
      "hit": false,
      "t": 185374.03008333247,
      "d": 609.7562500000058,
      "v": 49
    },
    {
      "midi": 60,
      "hit": false,
      "t": 185378.09512499915,
      "d": 345.5285416666593,
      "v": 55
    },
    {
      "midi": 46,
      "hit": false,
      "t": 185382.16016666582,
      "d": 414.6342499999737,
      "v": 46
    },
    {
      "midi": 62,
      "hit": false,
      "t": 185390.29024999915,
      "d": 613.8212916666525,
      "v": 41
    },
    {
      "midi": 56,
      "hit": false,
      "t": 185703.2984583325,
      "d": 439.02449999997043,
      "v": 60
    },
    {
      "midi": 46,
      "hit": false,
      "t": 186195.16849999913,
      "d": 77.23579166666605,
      "v": 33
    },
    {
      "midi": 61,
      "hit": false,
      "t": 186349.64008333246,
      "d": 97.56099999998696,
      "v": 42
    },
    {
      "midi": 45,
      "hit": false,
      "t": 186349.64008333246,
      "d": 565.0407916666591,
      "v": 38
    },
    {
      "midi": 55,
      "hit": false,
      "t": 186353.70512499913,
      "d": 48.78049999999348,
      "v": 33
    },
    {
      "midi": 64,
      "hit": false,
      "t": 186357.7701666658,
      "d": 93.49595833331114,
      "v": 43
    },
    {
      "midi": 58,
      "hit": false,
      "t": 186365.90024999913,
      "d": 69.1057083333144,
      "v": 35
    },
    {
      "midi": 74,
      "hit": false,
      "t": 186678.90845833244,
      "d": 81.30083333334187,
      "v": 91
    },
    {
      "midi": 68,
      "hit": false,
      "t": 186833.38004166578,
      "d": 77.23579166666605,
      "v": 48
    },
    {
      "midi": 67,
      "hit": false,
      "t": 186930.9410416658,
      "d": 44.71545833334676,
      "v": 33
    },
    {
      "midi": 65,
      "hit": false,
      "t": 186979.72154166581,
      "d": 93.49595833334024,
      "v": 51
    },
    {
      "midi": 62,
      "hit": false,
      "t": 187085.41262499915,
      "d": 28.455291666672565,
      "v": 47
    },
    {
      "midi": 65,
      "hit": false,
      "t": 187203.2988333325,
      "d": 77.23579166666605,
      "v": 76
    },
    {
      "midi": 67,
      "hit": false,
      "t": 187325.2500833325,
      "d": 77.23579166666605,
      "v": 68
    },
    {
      "midi": 65,
      "hit": false,
      "t": 187451.26637499916,
      "d": 166.66670833333046,
      "v": 66
    },
    {
      "midi": 62,
      "hit": false,
      "t": 187601.67291666582,
      "d": 52.845541666669305,
      "v": 68
    },
    {
      "midi": 56,
      "hit": false,
      "t": 187817.12012499914,
      "d": 40.650416666670935,
      "v": 75
    },
    {
      "midi": 62,
      "hit": false,
      "t": 187817.12012499914,
      "d": 378.0488750000077,
      "v": 62
    },
    {
      "midi": 55,
      "hit": false,
      "t": 187878.09574999913,
      "d": 300.81308333334164,
      "v": 45
    },
    {
      "midi": 62,
      "hit": false,
      "t": 188256.14462499914,
      "d": 280.4878749999916,
      "v": 41
    },
    {
      "midi": 55,
      "hit": false,
      "t": 188256.14462499914,
      "d": 325.2033333333384,
      "v": 71
    },
    {
      "midi": 53,
      "hit": false,
      "t": 188585.41299999916,
      "d": 113.82116666666116,
      "v": 64
    },
    {
      "midi": 50,
      "hit": false,
      "t": 188772.4049166658,
      "d": 256.0976249999949,
      "v": 39
    },
    {
      "midi": 50,
      "hit": false,
      "t": 189073.21799999915,
      "d": 44.71545833334676,
      "v": 74
    },
    {
      "midi": 50,
      "hit": false,
      "t": 189561.02299999917,
      "d": 130.08133333336446,
      "v": 74
    },
    {
      "midi": 74,
      "hit": false,
      "t": 189565.08804166585,
      "d": 97.56100000001607,
      "v": 76
    },
    {
      "midi": 62,
      "hit": false,
      "t": 189569.15308333252,
      "d": 109.75612500001444,
      "v": 58
    },
    {
      "midi": 64,
      "hit": false,
      "t": 189585.4132499992,
      "d": 24.39024999999674,
      "v": 44
    },
    {
      "midi": 74,
      "hit": false,
      "t": 189739.88483333253,
      "d": 317.07325000001583,
      "v": 33
    },
    {
      "midi": 62,
      "hit": false,
      "t": 189743.9498749992,
      "d": 353.65862500001094,
      "v": 44
    },
    {
      "midi": 50,
      "hit": false,
      "t": 189748.01491666588,
      "d": 500.0001249999914,
      "v": 50
    },
    {
      "midi": 64,
      "hit": false,
      "t": 190248.01504166587,
      "d": 130.08133333336446,
      "v": 52
    },
    {
      "midi": 52,
      "hit": false,
      "t": 190252.08008333255,
      "d": 109.75612500001444,
      "v": 60
    },
    {
      "midi": 76,
      "hit": false,
      "t": 190252.08008333255,
      "d": 130.08133333336446,
      "v": 46
    },
    {
      "midi": 53,
      "hit": false,
      "t": 190743.95012499925,
      "d": 56.910583333316026,
      "v": 49
    },
    {
      "midi": 77,
      "hit": false,
      "t": 190752.08020833257,
      "d": 150.40654166665627,
      "v": 60
    },
    {
      "midi": 65,
      "hit": false,
      "t": 190760.2102916659,
      "d": 69.1057083333435,
      "v": 43
    },
    {
      "midi": 57,
      "hit": false,
      "t": 191223.62504166592,
      "d": 65.04066666666768,
      "v": 33
    },
    {
      "midi": 81,
      "hit": false,
      "t": 191223.62504166592,
      "d": 1272.3580416666518,
      "v": 54
    },
    {
      "midi": 74,
      "hit": false,
      "t": 191227.6900833326,
      "d": 1304.8783749999711,
      "v": 49
    },
    {
      "midi": 62,
      "hit": false,
      "t": 191231.75512499927,
      "d": 48.78049999999348,
      "v": 39
    },
    {
      "midi": 52,
      "hit": false,
      "t": 191231.75512499927,
      "d": 89.43091666663531,
      "v": 43
    },
    {
      "midi": 69,
      "hit": false,
      "t": 191231.75512499927,
      "d": 1252.0328333333018,
      "v": 43
    },
    {
      "midi": 77,
      "hit": false,
      "t": 191231.75512499927,
      "d": 1280.4881249999744,
      "v": 50
    },
    {
      "midi": 58,
      "hit": false,
      "t": 191243.95024999927,
      "d": 56.910583333316026,
      "v": 33
    },
    {
      "midi": 45,
      "hit": false,
      "t": 192016.3081666659,
      "d": 459.34970833334955,
      "v": 83
    },
    {
      "midi": 52,
      "hit": false,
      "t": 192020.37320833257,
      "d": 491.87004166666884,
      "v": 88
    },
    {
      "midi": 79,
      "hit": false,
      "t": 192666.71483333257,
      "d": 126.01629166668863,
      "v": 60
    },
    {
      "midi": 67,
      "hit": false,
      "t": 192670.77987499925,
      "d": 121.9512500000128,
      "v": 51
    },
    {
      "midi": 74,
      "hit": false,
      "t": 192674.84491666593,
      "d": 101.62604166666279,
      "v": 64
    },
    {
      "midi": 77,
      "hit": false,
      "t": 192971.5929583326,
      "d": 1247.9677916667133,
      "v": 68
    },
    {
      "midi": 69,
      "hit": false,
      "t": 192971.5929583326,
      "d": 1382.1141666667245,
      "v": 69
    },
    {
      "midi": 66,
      "hit": false,
      "t": 192975.65799999927,
      "d": 247.96754166670144,
      "v": 74
    },
    {
      "midi": 61,
      "hit": false,
      "t": 192975.65799999927,
      "d": 276.422833333374,
      "v": 72
    },
    {
      "midi": 72,
      "hit": false,
      "t": 192975.65799999927,
      "d": 1398.3743333333696,
      "v": 66
    },
    {
      "midi": 55,
      "hit": false,
      "t": 192979.72304166594,
      "d": 260.1626666666998,
      "v": 78
    },
    {
      "midi": 67,
      "hit": false,
      "t": 192983.78808333262,
      "d": 146.34150000000955,
      "v": 62
    },
    {
      "midi": 65,
      "hit": false,
      "t": 192983.78808333262,
      "d": 1313.0084583333519,
      "v": 63
    },
    {
      "midi": 45,
      "hit": false,
      "t": 193666.71508333265,
      "d": 195.12200000000303,
      "v": 58
    },
    {
      "midi": 52,
      "hit": false,
      "t": 193678.91020833264,
      "d": 191.0569583333272,
      "v": 55
    },
    {
      "midi": 52,
      "hit": false,
      "t": 193963.4631249993,
      "d": 182.92687500000466,
      "v": 90
    },
    {
      "midi": 45,
      "hit": false,
      "t": 193967.528166666,
      "d": 150.40654166665627,
      "v": 89
    },
    {
      "midi": 55,
      "hit": false,
      "t": 194463.4632499993,
      "d": 304.87812499998836,
      "v": 74
    },
    {
      "midi": 61,
      "hit": false,
      "t": 194463.4632499993,
      "d": 329.2683749999851,
      "v": 73
    },
    {
      "midi": 76,
      "hit": false,
      "t": 194475.6583749993,
      "d": 121.9512500000128,
      "v": 74
    },
    {
      "midi": 64,
      "hit": false,
      "t": 194479.72341666598,
      "d": 126.01629166665953,
      "v": 70
    },
    {
      "midi": 69,
      "hit": false,
      "t": 194479.72341666598,
      "d": 170.73174999997718,
      "v": 77
    },
    {
      "midi": 72,
      "hit": false,
      "t": 194483.78845833265,
      "d": 130.08133333330625,
      "v": 69
    },
    {
      "midi": 74,
      "hit": false,
      "t": 194674.84541666595,
      "d": 77.23579166666605,
      "v": 38
    },
    {
      "midi": 62,
      "hit": false,
      "t": 194687.04054166595,
      "d": 65.04066666666768,
      "v": 55
    },
    {
      "midi": 69,
      "hit": false,
      "t": 194699.23566666595,
      "d": 97.56100000001607,
      "v": 18
    },
    {
      "midi": 55,
      "hit": false,
      "t": 194979.72354166597,
      "d": 24.39024999999674,
      "v": 50
    },
    {
      "midi": 76,
      "hit": false,
      "t": 194979.72354166597,
      "d": 52.845541666669305,
      "v": 60
    },
    {
      "midi": 64,
      "hit": false,
      "t": 194987.8536249993,
      "d": 48.780500000022585,
      "v": 57
    },
    {
      "midi": 69,
      "hit": false,
      "t": 194991.91866666597,
      "d": 69.1057083333435,
      "v": 48
    },
    {
      "midi": 69,
      "hit": false,
      "t": 195146.3902499993,
      "d": 678.8619583333493,
      "v": 56
    },
    {
      "midi": 77,
      "hit": false,
      "t": 195154.52033333262,
      "d": 597.5611250000366,
      "v": 51
    },
    {
      "midi": 65,
      "hit": false,
      "t": 195154.52033333262,
      "d": 646.34162500003,
      "v": 53
    },
    {
      "midi": 72,
      "hit": false,
      "t": 195154.52033333262,
      "d": 670.7318750000268,
      "v": 54
    },
    {
      "midi": 76,
      "hit": false,
      "t": 195162.65041666594,
      "d": 565.0407916667173,
      "v": 38
    },
    {
      "midi": 45,
      "hit": false,
      "t": 195455.33341666596,
      "d": 130.08133333333535,
      "v": 58
    },
    {
      "midi": 52,
      "hit": false,
      "t": 195463.46349999928,
      "d": 146.34150000000955,
      "v": 60
    },
    {
      "midi": 45,
      "hit": false,
      "t": 195646.3903749993,
      "d": 60.975625000020955,
      "v": 56
    },
    {
      "midi": 52,
      "hit": false,
      "t": 195662.65054166596,
      "d": 60.975625000020955,
      "v": 61
    },
    {
      "midi": 65,
      "hit": false,
      "t": 195947.20345833266,
      "d": 268.29275000002235,
      "v": 55
    },
    {
      "midi": 69,
      "hit": false,
      "t": 195947.20345833266,
      "d": 325.2033333333675,
      "v": 64
    },
    {
      "midi": 50,
      "hit": false,
      "t": 195947.20345833266,
      "d": 715.4473333333735,
      "v": 51
    },
    {
      "midi": 60,
      "hit": false,
      "t": 195951.26849999934,
      "d": 752.0327083333686,
      "v": 49
    },
    {
      "midi": 57,
      "hit": false,
      "t": 195975.65874999933,
      "d": 48.780500000022585,
      "v": 22
    },
    {
      "midi": 57,
      "hit": false,
      "t": 196272.40679166603,
      "d": 378.0488750000077,
      "v": 54
    },
    {
      "midi": 65,
      "hit": false,
      "t": 196890.29312499939,
      "d": 434.9594583333528,
      "v": 60
    },
    {
      "midi": 54,
      "hit": false,
      "t": 196890.29312499939,
      "d": 495.93508333334466,
      "v": 60
    },
    {
      "midi": 60,
      "hit": false,
      "t": 196894.35816666606,
      "d": 439.02449999999953,
      "v": 62
    },
    {
      "midi": 89,
      "hit": false,
      "t": 197243.9517499994,
      "d": 813.0083333333605,
      "v": 92
    },
    {
      "midi": 60,
      "hit": false,
      "t": 197585.4152499994,
      "d": 20.32520833335002,
      "v": 64
    },
    {
      "midi": 50,
      "hit": false,
      "t": 197589.48029166608,
      "d": 36.58537499999511,
      "v": 55
    },
    {
      "midi": 54,
      "hit": false,
      "t": 197593.54533333276,
      "d": 73.17074999999022,
      "v": 34
    },
    {
      "midi": 65,
      "hit": false,
      "t": 197910.61858333275,
      "d": 414.6342500000319,
      "v": 70
    },
    {
      "midi": 60,
      "hit": false,
      "t": 197910.61858333275,
      "d": 752.0327083333686,
      "v": 64
    },
    {
      "midi": 54,
      "hit": false,
      "t": 197910.61858333275,
      "d": 800.8132083333912,
      "v": 69
    },
    {
      "midi": 78,
      "hit": false,
      "t": 198085.41537499943,
      "d": 77.23579166666605,
      "v": 50
    },
    {
      "midi": 77,
      "hit": false,
      "t": 198231.75687499944,
      "d": 77.23579166666605,
      "v": 53
    },
    {
      "midi": 75,
      "hit": false,
      "t": 198581.35045833277,
      "d": 85.3658750000177,
      "v": 72
    },
    {
      "midi": 74,
      "hit": false,
      "t": 198711.43179166614,
      "d": 60.97562499999185,
      "v": 62
    },
    {
      "midi": 73,
      "hit": false,
      "t": 198825.2529583328,
      "d": 81.30083333334187,
      "v": 53
    },
    {
      "midi": 72,
      "hit": false,
      "t": 199073.22049999947,
      "d": 219.51224999999977,
      "v": 57
    },
    {
      "midi": 43,
      "hit": false,
      "t": 199077.28554166615,
      "d": 28.455291666672565,
      "v": 58
    },
    {
      "midi": 62,
      "hit": false,
      "t": 199565.09054166614,
      "d": 191.0569583333272,
      "v": 29
    },
    {
      "midi": 65,
      "hit": false,
      "t": 199565.09054166614,
      "d": 195.12200000000303,
      "v": 33
    },
    {
      "midi": 58,
      "hit": false,
      "t": 199804.9279999995,
      "d": 24.39024999999674,
      "v": 19
    },
    {
      "midi": 59,
      "hit": false,
      "t": 199829.3182499995,
      "d": 69.1057083333435,
      "v": 71
    },
    {
      "midi": 62,
      "hit": false,
      "t": 199853.70849999948,
      "d": 471.5448333333479,
      "v": 66
    },
    {
      "midi": 65,
      "hit": false,
      "t": 199853.70849999948,
      "d": 487.8050000000221,
      "v": 67
    },
    {
      "midi": 72,
      "hit": false,
      "t": 199853.70849999948,
      "d": 536.5855000000156,
      "v": 67
    },
    {
      "midi": 69,
      "hit": false,
      "t": 199857.77354166616,
      "d": 500.0001250000205,
      "v": 63
    },
    {
      "midi": 60,
      "hit": false,
      "t": 199861.83858333284,
      "d": 569.1058333333349,
      "v": 64
    },
    {
      "midi": 62,
      "hit": false,
      "t": 200435.00945833285,
      "d": 203.25208333332557,
      "v": 69
    },
    {
      "midi": 65,
      "hit": false,
      "t": 200435.00945833285,
      "d": 231.70737499999814,
      "v": 57
    },
    {
      "midi": 70,
      "hit": false,
      "t": 200435.00945833285,
      "d": 252.03258333331905,
      "v": 79
    },
    {
      "midi": 58,
      "hit": false,
      "t": 200435.00945833285,
      "d": 308.9431666666642,
      "v": 60
    },
    {
      "midi": 69,
      "hit": false,
      "t": 200756.1477499995,
      "d": 32.520333333319286,
      "v": 17
    },
    {
      "midi": 70,
      "hit": false,
      "t": 200861.83883333282,
      "d": 20.32520833335002,
      "v": 36
    },
    {
      "midi": 62,
      "hit": false,
      "t": 200861.83883333282,
      "d": 52.845541666669305,
      "v": 54
    },
    {
      "midi": 58,
      "hit": false,
      "t": 200865.9038749995,
      "d": 97.56099999998696,
      "v": 56
    },
    {
      "midi": 58,
      "hit": false,
      "t": 201008.18033333283,
      "d": 260.1626666666998,
      "v": 59
    },
    {
      "midi": 69,
      "hit": false,
      "t": 201020.37545833283,
      "d": 219.51225000002887,
      "v": 54
    },
    {
      "midi": 61,
      "hit": false,
      "t": 201020.37545833283,
      "d": 288.61795833337237,
      "v": 47
    },
    {
      "midi": 57,
      "hit": false,
      "t": 201024.4404999995,
      "d": 308.9431666666933,
      "v": 45
    },
    {
      "midi": 64,
      "hit": false,
      "t": 201044.76570833285,
      "d": 260.1626666666707,
      "v": 20
    },
    {
      "midi": 48,
      "hit": false,
      "t": 201276.47308333285,
      "d": 24.39024999999674,
      "v": 68
    },
    {
      "midi": 81,
      "hit": false,
      "t": 201654.52195833286,
      "d": 69.1057083333144,
      "v": 79
    },
    {
      "midi": 70,
      "hit": false,
      "t": 201662.65204166618,
      "d": 48.78049999999348,
      "v": 72
    },
    {
      "midi": 73,
      "hit": false,
      "t": 201666.71708333286,
      "d": 60.97562499999185,
      "v": 69
    },
    {
      "midi": 76,
      "hit": false,
      "t": 201666.71708333286,
      "d": 81.30083333331277,
      "v": 69
    },
    {
      "midi": 69,
      "hit": false,
      "t": 201678.91220833285,
      "d": 85.36587499998859,
      "v": 70
    },
    {
      "midi": 68,
      "hit": false,
      "t": 201804.9284999995,
      "d": 81.30083333334187,
      "v": 45
    },
    {
      "midi": 79,
      "hit": false,
      "t": 201926.87974999953,
      "d": 162.60166666668374,
      "v": 68
    },
    {
      "midi": 70,
      "hit": false,
      "t": 201930.9447916662,
      "d": 186.99191666668048,
      "v": 65
    },
    {
      "midi": 67,
      "hit": false,
      "t": 201935.00983333288,
      "d": 195.12200000000303,
      "v": 47
    },
    {
      "midi": 73,
      "hit": false,
      "t": 201935.00983333288,
      "d": 195.12200000000303,
      "v": 63
    },
    {
      "midi": 76,
      "hit": false,
      "t": 201947.20495833288,
      "d": 130.08133333333535,
      "v": 39
    },
    {
      "midi": 77,
      "hit": false,
      "t": 202243.95299999954,
      "d": 280.4878750000498,
      "v": 66
    },
    {
      "midi": 70,
      "hit": false,
      "t": 202243.95299999954,
      "d": 296.748041666724,
      "v": 63
    },
    {
      "midi": 67,
      "hit": false,
      "t": 202248.01804166622,
      "d": 247.96754166670144,
      "v": 52
    },
    {
      "midi": 74,
      "hit": false,
      "t": 202252.0830833329,
      "d": 223.5772916667047,
      "v": 55
    },
    {
      "midi": 65,
      "hit": false,
      "t": 202256.14812499957,
      "d": 333.33341666669,
      "v": 61
    },
    {
      "midi": 76,
      "hit": false,
      "t": 202593.54658333294,
      "d": 73.17075000001932,
      "v": 42
    },
    {
      "midi": 64,
      "hit": false,
      "t": 202597.6116249996,
      "d": 97.56100000001607,
      "v": 48
    },
    {
      "midi": 77,
      "hit": false,
      "t": 202719.56287499962,
      "d": 69.1057083333435,
      "v": 57
    },
    {
      "midi": 70,
      "hit": false,
      "t": 202723.6279166663,
      "d": 32.52033333334839,
      "v": 33
    },
    {
      "midi": 65,
      "hit": false,
      "t": 202735.8230416663,
      "d": 28.455291666672565,
      "v": 47
    },
    {
      "midi": 67,
      "hit": false,
      "t": 202739.88808333297,
      "d": 24.39024999999674,
      "v": 22
    },
    {
      "midi": 81,
      "hit": false,
      "t": 202886.22958333298,
      "d": 215.44720833335305,
      "v": 71
    },
    {
      "midi": 74,
      "hit": false,
      "t": 202894.3596666663,
      "d": 264.2277083333465,
      "v": 47
    },
    {
      "midi": 76,
      "hit": false,
      "t": 202894.3596666663,
      "d": 272.3577916666691,
      "v": 37
    },
    {
      "midi": 64,
      "hit": false,
      "t": 202898.42470833298,
      "d": 223.5772916666756,
      "v": 43
    },
    {
      "midi": 69,
      "hit": false,
      "t": 202910.61983333298,
      "d": 223.5772916666756,
      "v": 20
    },
    {
      "midi": 63,
      "hit": false,
      "t": 203662.65254166632,
      "d": 113.82116666666116,
      "v": 53
    },
    {
      "midi": 69,
      "hit": false,
      "t": 203674.84766666632,
      "d": 121.9512499999837,
      "v": 49
    },
    {
      "midi": 53,
      "hit": false,
      "t": 203682.97774999964,
      "d": 24.39024999999674,
      "v": 39
    },
    {
      "midi": 72,
      "hit": false,
      "t": 203682.97774999964,
      "d": 134.14637499998207,
      "v": 44
    },
    {
      "midi": 58,
      "hit": false,
      "t": 203691.10783333296,
      "d": 81.30083333334187,
      "v": 33
    },
    {
      "midi": 70,
      "hit": false,
      "t": 203857.7745416663,
      "d": 235.77241666667396,
      "v": 64
    },
    {
      "midi": 65,
      "hit": false,
      "t": 203861.83958333297,
      "d": 158.53662500000792,
      "v": 55
    },
    {
      "midi": 74,
      "hit": false,
      "t": 203861.83958333297,
      "d": 211.38216666667722,
      "v": 60
    },
    {
      "midi": 55,
      "hit": false,
      "t": 203865.90462499965,
      "d": 121.9512500000128,
      "v": 60
    },
    {
      "midi": 60,
      "hit": false,
      "t": 203878.09974999964,
      "d": 146.34150000000955,
      "v": 42
    },
    {
      "midi": 69,
      "hit": false,
      "t": 204182.97787499963,
      "d": 36.585375000024214,
      "v": 50
    },
    {
      "midi": 53,
      "hit": false,
      "t": 204187.0429166663,
      "d": 28.455291666672565,
      "v": 56
    },
    {
      "midi": 63,
      "hit": false,
      "t": 204191.10795833298,
      "d": 20.325208333320916,
      "v": 42
    },
    {
      "midi": 72,
      "hit": false,
      "t": 204191.10795833298,
      "d": 28.455291666672565,
      "v": 47
    },
    {
      "midi": 69,
      "hit": false,
      "t": 204548.83162499964,
      "d": 24.390250000025844,
      "v": 49
    },
    {
      "midi": 65,
      "hit": false,
      "t": 204552.89666666632,
      "d": 32.52033333334839,
      "v": 46
    },
    {
      "midi": 48,
      "hit": false,
      "t": 204569.156833333,
      "d": 81.30083333334187,
      "v": 47
    },
    {
      "midi": 41,
      "hit": false,
      "t": 204695.17312499968,
      "d": 24.39024999999674,
      "v": 51
    },
    {
      "midi": 58,
      "hit": false,
      "t": 204853.7097499997,
      "d": 219.51224999999977,
      "v": 40
    },
    {
      "midi": 67,
      "hit": false,
      "t": 204853.7097499997,
      "d": 256.0976249999949,
      "v": 44
    },
    {
      "midi": 57,
      "hit": false,
      "t": 204861.839833333,
      "d": 300.81308333334164,
      "v": 35
    },
    {
      "midi": 62,
      "hit": false,
      "t": 204869.96991666633,
      "d": 199.18704166667885,
      "v": 41
    },
    {
      "midi": 64,
      "hit": false,
      "t": 204874.034958333,
      "d": 219.51224999999977,
      "v": 40
    },
    {
      "midi": 58,
      "hit": false,
      "t": 205162.65291666635,
      "d": 97.56100000001607,
      "v": 57
    },
    {
      "midi": 69,
      "hit": false,
      "t": 205166.71795833303,
      "d": 105.69108333333861,
      "v": 44
    },
    {
      "midi": 55,
      "hit": false,
      "t": 205170.7829999997,
      "d": 20.32520833335002,
      "v": 51
    },
    {
      "midi": 64,
      "hit": false,
      "t": 205170.7829999997,
      "d": 146.34149999998044,
      "v": 60
    },
    {
      "midi": 62,
      "hit": false,
      "t": 205174.84804166638,
      "d": 117.88620833330788,
      "v": 44
    },
    {
      "midi": 46,
      "hit": false,
      "t": 205341.51474999968,
      "d": 113.82116666666116,
      "v": 44
    },
    {
      "midi": 45,
      "hit": false,
      "t": 205646.39287499967,
      "d": 20.325208333320916,
      "v": 64
    },
    {
      "midi": 83,
      "hit": false,
      "t": 205829.31974999967,
      "d": 182.92687500000466,
      "v": 78
    },
    {
      "midi": 55,
      "hit": false,
      "t": 205829.31974999967,
      "d": 252.03258333331905,
      "v": 45
    },
    {
      "midi": 71,
      "hit": false,
      "t": 205837.449833333,
      "d": 162.60166666668374,
      "v": 71
    },
    {
      "midi": 61,
      "hit": false,
      "t": 205841.51487499967,
      "d": 231.70737499999814,
      "v": 46
    },
    {
      "midi": 57,
      "hit": false,
      "t": 205845.57991666635,
      "d": 40.650416666670935,
      "v": 31
    },
    {
      "midi": 65,
      "hit": false,
      "t": 205849.64495833302,
      "d": 199.18704166664975,
      "v": 41
    },
    {
      "midi": 85,
      "hit": false,
      "t": 206138.26291666634,
      "d": 77.23579166669515,
      "v": 62
    },
    {
      "midi": 55,
      "hit": false,
      "t": 206142.32795833301,
      "d": 52.84554166669841,
      "v": 66
    },
    {
      "midi": 61,
      "hit": false,
      "t": 206142.32795833301,
      "d": 85.3658750000177,
      "v": 44
    },
    {
      "midi": 73,
      "hit": false,
      "t": 206146.3929999997,
      "d": 60.975625000020955,
      "v": 33
    },
    {
      "midi": 64,
      "hit": false,
      "t": 206150.45804166637,
      "d": 36.58537499999511,
      "v": 44
    },
    {
      "midi": 75,
      "hit": false,
      "t": 206162.65316666636,
      "d": 24.39024999999674,
      "v": 28
    },
    {
      "midi": 86,
      "hit": false,
      "t": 206166.71820833304,
      "d": 24.39024999999674,
      "v": 36
    },
    {
      "midi": 51,
      "hit": false,
      "t": 206313.05970833302,
      "d": 422.76433333335444,
      "v": 57
    },
    {
      "midi": 61,
      "hit": false,
      "t": 206317.1247499997,
      "d": 361.7887083333335,
      "v": 32
    },
    {
      "midi": 86,
      "hit": false,
      "t": 206337.44995833302,
      "d": 32.520333333319286,
      "v": 34
    },
    {
      "midi": 74,
      "hit": false,
      "t": 206341.5149999997,
      "d": 20.325208333320916,
      "v": 26
    },
    {
      "midi": 57,
      "hit": false,
      "t": 206630.132958333,
      "d": 406.50416666670935,
      "v": 51
    },
    {
      "midi": 91,
      "hit": false,
      "t": 206646.39312499968,
      "d": 48.780500000022585,
      "v": 73
    },
    {
      "midi": 89,
      "hit": false,
      "t": 206646.39312499968,
      "d": 89.43091666669352,
      "v": 78
    },
    {
      "midi": 77,
      "hit": false,
      "t": 206646.39312499968,
      "d": 117.88620833336608,
      "v": 77
    },
    {
      "midi": 79,
      "hit": false,
      "t": 206650.45816666636,
      "d": 24.39024999999674,
      "v": 72
    },
    {
      "midi": 50,
      "hit": false,
      "t": 206800.86470833304,
      "d": 227.64233333335142,
      "v": 29
    },
    {
      "midi": 53,
      "hit": false,
      "t": 206825.25495833304,
      "d": 191.0569583333563,
      "v": 42
    },
    {
      "midi": 60,
      "hit": false,
      "t": 206829.31999999972,
      "d": 20.32520833335002,
      "v": 31
    },
    {
      "midi": 89,
      "hit": false,
      "t": 206845.5801666664,
      "d": 52.845541666669305,
      "v": 44
    },
    {
      "midi": 77,
      "hit": false,
      "t": 206869.9704166664,
      "d": 36.58537499999511,
      "v": 17
    },
    {
      "midi": 88,
      "hit": false,
      "t": 207308.9949166664,
      "d": 235.77241666667396,
      "v": 71
    },
    {
      "midi": 76,
      "hit": false,
      "t": 207321.19004166638,
      "d": 239.8374583333498,
      "v": 58
    },
    {
      "midi": 84,
      "hit": false,
      "t": 207325.25508333306,
      "d": 247.96754166667233,
      "v": 48
    },
    {
      "midi": 81,
      "hit": false,
      "t": 207325.25508333306,
      "d": 317.07325000001583,
      "v": 52
    },
    {
      "midi": 64,
      "hit": false,
      "t": 207333.38516666638,
      "d": 162.60166666668374,
      "v": 42
    },
    {
      "midi": 86,
      "hit": false,
      "t": 207792.73487499973,
      "d": 93.49595833331114,
      "v": 46
    },
    {
      "midi": 60,
      "hit": false,
      "t": 207800.86495833306,
      "d": 158.53662500000792,
      "v": 36
    },
    {
      "midi": 81,
      "hit": false,
      "t": 207804.92999999973,
      "d": 97.56099999998696,
      "v": 40
    },
    {
      "midi": 57,
      "hit": false,
      "t": 207804.92999999973,
      "d": 142.27645833333372,
      "v": 25
    },
    {
      "midi": 74,
      "hit": false,
      "t": 207804.92999999973,
      "d": 158.53662500000792,
      "v": 36
    },
    {
      "midi": 50,
      "hit": false,
      "t": 207813.06008333305,
      "d": 186.99191666668048,
      "v": 28
    },
    {
      "midi": 50,
      "hit": false,
      "t": 208154.52358333307,
      "d": 166.66670833333046,
      "v": 37
    },
    {
      "midi": 44,
      "hit": false,
      "t": 208272.4097916664,
      "d": 373.98383333333186,
      "v": 46
    },
    {
      "midi": 54,
      "hit": false,
      "t": 208276.47483333308,
      "d": 333.3334166666609,
      "v": 36
    },
    {
      "midi": 69,
      "hit": false,
      "t": 208284.6049166664,
      "d": 162.60166666665464,
      "v": 54
    },
    {
      "midi": 62,
      "hit": false,
      "t": 208284.6049166664,
      "d": 203.25208333332557,
      "v": 42
    },
    {
      "midi": 65,
      "hit": false,
      "t": 208308.9951666664,
      "d": 121.9512499999837,
      "v": 28
    },
    {
      "midi": 50,
      "hit": false,
      "t": 208642.32858333306,
      "d": 81.30083333334187,
      "v": 36
    },
    {
      "midi": 43,
      "hit": false,
      "t": 208784.6050416664,
      "d": 73.17074999999022,
      "v": 39
    },
    {
      "midi": 62,
      "hit": false,
      "t": 208792.73512499972,
      "d": 81.30083333334187,
      "v": 48
    },
    {
      "midi": 58,
      "hit": false,
      "t": 208800.86520833304,
      "d": 73.17075000001932,
      "v": 36
    },
    {
      "midi": 53,
      "hit": false,
      "t": 208804.9302499997,
      "d": 89.43091666666442,
      "v": 26
    },
    {
      "midi": 72,
      "hit": false,
      "t": 209109.8083749997,
      "d": 154.4715833333321,
      "v": 85
    },
    {
      "midi": 65,
      "hit": false,
      "t": 209113.87341666638,
      "d": 138.2114166666579,
      "v": 88
    },
    {
      "midi": 62,
      "hit": false,
      "t": 209284.60516666638,
      "d": 174.7967916666821,
      "v": 57
    },
    {
      "midi": 58,
      "hit": false,
      "t": 209288.67020833306,
      "d": 89.43091666666442,
      "v": 33
    },
    {
      "midi": 69,
      "hit": false,
      "t": 209296.80029166638,
      "d": 101.62604166666279,
      "v": 46
    },
    {
      "midi": 65,
      "hit": false,
      "t": 209296.80029166638,
      "d": 117.88620833333698,
      "v": 24
    },
    {
      "midi": 70,
      "hit": false,
      "t": 209589.4832916664,
      "d": 1500.0003750000033,
      "v": 72
    },
    {
      "midi": 58,
      "hit": false,
      "t": 209593.54833333308,
      "d": 1402.4393749999872,
      "v": 65
    },
    {
      "midi": 62,
      "hit": false,
      "t": 209593.54833333308,
      "d": 1430.8946666666598,
      "v": 69
    },
    {
      "midi": 65,
      "hit": false,
      "t": 209605.74345833308,
      "d": 1373.9840833333146,
      "v": 55
    },
    {
      "midi": 57,
      "hit": false,
      "t": 209955.3370416664,
      "d": 60.97562499999185,
      "v": 69
    },
    {
      "midi": 56,
      "hit": false,
      "t": 210113.8736666664,
      "d": 126.01629166665953,
      "v": 63
    },
    {
      "midi": 55,
      "hit": false,
      "t": 210296.8005416664,
      "d": 256.0976249999949,
      "v": 47
    },
    {
      "midi": 54,
      "hit": false,
      "t": 210565.0932916664,
      "d": 69.1057083333435,
      "v": 64
    },
    {
      "midi": 53,
      "hit": false,
      "t": 210687.0445416664,
      "d": 60.97562499999185,
      "v": 63
    },
    {
      "midi": 52,
      "hit": false,
      "t": 210825.25595833306,
      "d": 394.3090416666819,
      "v": 62
    },
    {
      "midi": 67,
      "hit": false,
      "t": 211406.55691666642,
      "d": 77.23579166666605,
      "v": 67
    },
    {
      "midi": 72,
      "hit": false,
      "t": 211524.44312499976,
      "d": 56.91058333334513,
      "v": 76
    },
    {
      "midi": 79,
      "hit": false,
      "t": 211654.5244583331,
      "d": 166.66670833333046,
      "v": 90
    },
    {
      "midi": 56,
      "hit": false,
      "t": 211776.4757083331,
      "d": 186.99191666665138,
      "v": 42
    },
    {
      "midi": 76,
      "hit": false,
      "t": 211788.6708333331,
      "d": 369.91879166665603,
      "v": 71
    },
    {
      "midi": 62,
      "hit": false,
      "t": 211800.8659583331,
      "d": 113.82116666666116,
      "v": 14
    },
    {
      "midi": 67,
      "hit": false,
      "t": 211804.93099999978,
      "d": 272.35779166663997,
      "v": 43
    },
    {
      "midi": 69,
      "hit": false,
      "t": 211813.0610833331,
      "d": 24.39024999999674,
      "v": 37
    },
    {
      "midi": 67,
      "hit": false,
      "t": 212195.17499999976,
      "d": 93.49595833334024,
      "v": 53
    },
    {
      "midi": 56,
      "hit": false,
      "t": 212199.24004166643,
      "d": 227.6423333333223,
      "v": 33
    },
    {
      "midi": 46,
      "hit": false,
      "t": 212199.24004166643,
      "d": 268.29274999999325,
      "v": 37
    },
    {
      "midi": 61,
      "hit": false,
      "t": 212495.9880833331,
      "d": 178.86183333332883,
      "v": 56
    },
    {
      "midi": 64,
      "hit": false,
      "t": 212516.31329166642,
      "d": 199.18704166667885,
      "v": 57
    },
    {
      "midi": 55,
      "hit": false,
      "t": 212528.50841666642,
      "d": 219.51224999999977,
      "v": 51
    },
    {
      "midi": 45,
      "hit": false,
      "t": 212540.70354166641,
      "d": 170.7317500000063,
      "v": 46
    },
    {
      "midi": 76,
      "hit": false,
      "t": 213178.9150833331,
      "d": 317.07325000001583,
      "v": 84
    },
    {
      "midi": 73,
      "hit": false,
      "t": 213178.9150833331,
      "d": 357.72366666668677,
      "v": 77
    },
    {
      "midi": 70,
      "hit": false,
      "t": 213178.9150833331,
      "d": 365.8537500000093,
      "v": 87
    },
    {
      "midi": 64,
      "hit": false,
      "t": 213182.98012499977,
      "d": 313.00820833334,
      "v": 89
    },
    {
      "midi": 67,
      "hit": false,
      "t": 213182.98012499977,
      "d": 378.0488750000077,
      "v": 84
    },
    {
      "midi": 63,
      "hit": false,
      "t": 213479.72816666643,
      "d": 186.99191666668048,
      "v": 74
    },
    {
      "midi": 67,
      "hit": false,
      "t": 213670.7851249998,
      "d": 239.8374583333498,
      "v": 71
    },
    {
      "midi": 70,
      "hit": false,
      "t": 213674.85016666647,
      "d": 227.64233333335142,
      "v": 68
    },
    {
      "midi": 73,
      "hit": false,
      "t": 213674.85016666647,
      "d": 239.8374583333498,
      "v": 67
    },
    {
      "midi": 77,
      "hit": false,
      "t": 213674.85016666647,
      "d": 268.29275000002235,
      "v": 67
    },
    {
      "midi": 62,
      "hit": false,
      "t": 213682.98024999982,
      "d": 475.60987499999464,
      "v": 64
    },
    {
      "midi": 79,
      "hit": false,
      "t": 214126.06979166646,
      "d": 284.55291666669655,
      "v": 63
    },
    {
      "midi": 76,
      "hit": false,
      "t": 214130.13483333314,
      "d": 304.87812500001746,
      "v": 58
    },
    {
      "midi": 73,
      "hit": false,
      "t": 214130.13483333314,
      "d": 317.07325000001583,
      "v": 59
    },
    {
      "midi": 67,
      "hit": false,
      "t": 214134.19987499982,
      "d": 239.8374583333498,
      "v": 56
    },
    {
      "midi": 61,
      "hit": false,
      "t": 214134.19987499982,
      "d": 463.4147499999963,
      "v": 62
    },
    {
      "midi": 81,
      "hit": false,
      "t": 214605.74470833314,
      "d": 162.60166666671284,
      "v": 62
    },
    {
      "midi": 62,
      "hit": false,
      "t": 214609.8097499998,
      "d": 166.66670833335957,
      "v": 64
    },
    {
      "midi": 69,
      "hit": false,
      "t": 214613.8747916665,
      "d": 195.12200000003213,
      "v": 51
    },
    {
      "midi": 77,
      "hit": false,
      "t": 214617.93983333316,
      "d": 158.53662500000792,
      "v": 49
    },
    {
      "midi": 50,
      "hit": false,
      "t": 214780.54149999985,
      "d": 1020.3254583333619,
      "v": 46
    },
    {
      "midi": 61,
      "hit": false,
      "t": 214943.14316666653,
      "d": 142.27645833333372,
      "v": 63
    },
    {
      "midi": 76,
      "hit": false,
      "t": 215109.80987499986,
      "d": 195.12199999997392,
      "v": 51
    },
    {
      "midi": 69,
      "hit": false,
      "t": 215117.93995833318,
      "d": 215.44720833332394,
      "v": 58
    },
    {
      "midi": 65,
      "hit": false,
      "t": 215117.93995833318,
      "d": 243.9024999999965,
      "v": 44
    },
    {
      "midi": 60,
      "hit": false,
      "t": 215126.0700416665,
      "d": 300.81308333334164,
      "v": 57
    },
    {
      "midi": 60,
      "hit": false,
      "t": 215593.54983333318,
      "d": 406.50416666673846,
      "v": 51
    },
    {
      "midi": 69,
      "hit": false,
      "t": 215597.61487499985,
      "d": 508.13020833340124,
      "v": 52
    },
    {
      "midi": 65,
      "hit": false,
      "t": 215601.67991666653,
      "d": 455.28466666673194,
      "v": 50
    },
    {
      "midi": 57,
      "hit": false,
      "t": 215605.7449583332,
      "d": 642.2765833333833,
      "v": 37
    },
    {
      "midi": 50,
      "hit": false,
      "t": 215910.62308333322,
      "d": 325.2033333333675,
      "v": 80
    },
    {
      "midi": 43,
      "hit": false,
      "t": 216569.15983333325,
      "d": 77.23579166666605,
      "v": 70
    },
    {
      "midi": 73,
      "hit": false,
      "t": 216569.15983333325,
      "d": 565.0407916666591,
      "v": 68
    },
    {
      "midi": 71,
      "hit": false,
      "t": 216573.22487499993,
      "d": 500.0001249999914,
      "v": 74
    },
    {
      "midi": 65,
      "hit": false,
      "t": 216577.2899166666,
      "d": 422.76433333332534,
      "v": 48
    },
    {
      "midi": 53,
      "hit": false,
      "t": 216898.42820833327,
      "d": 1300.8133333332953,
      "v": 53
    },
    {
      "midi": 59,
      "hit": false,
      "t": 216906.5582916666,
      "d": 1325.2035833333211,
      "v": 38
    },
    {
      "midi": 65,
      "hit": false,
      "t": 217276.47708333324,
      "d": 32.520333333319286,
      "v": 54
    },
    {
      "midi": 71,
      "hit": false,
      "t": 217394.36329166655,
      "d": 97.56099999998696,
      "v": 67
    },
    {
      "midi": 73,
      "hit": false,
      "t": 217516.31454166654,
      "d": 24.39024999999674,
      "v": 34
    },
    {
      "midi": 88,
      "hit": false,
      "t": 217646.39587499987,
      "d": 227.6423333333223,
      "v": 88
    },
    {
      "midi": 85,
      "hit": false,
      "t": 217804.93249999988,
      "d": 97.56099999998696,
      "v": 64
    },
    {
      "midi": 87,
      "hit": false,
      "t": 217829.32274999988,
      "d": 24.39024999999674,
      "v": 30
    },
    {
      "midi": 63,
      "hit": false,
      "t": 218024.44474999988,
      "d": 195.12200000003213,
      "v": 43
    },
    {
      "midi": 81,
      "hit": false,
      "t": 218028.50979166655,
      "d": 101.62604166666279,
      "v": 71
    },
    {
      "midi": 79,
      "hit": false,
      "t": 218203.30658333324,
      "d": 73.17075000001932,
      "v": 17
    },
    {
      "midi": 76,
      "hit": false,
      "t": 218487.85949999993,
      "d": 386.17895833335933,
      "v": 49
    },
    {
      "midi": 52,
      "hit": false,
      "t": 218491.9245416666,
      "d": 81.30083333334187,
      "v": 55
    },
    {
      "midi": 62,
      "hit": false,
      "t": 218500.05462499993,
      "d": 150.40654166668537,
      "v": 34
    },
    {
      "midi": 67,
      "hit": false,
      "t": 218804.93274999995,
      "d": 207.3171250000014,
      "v": 46
    },
    {
      "midi": 56,
      "hit": false,
      "t": 218804.93274999995,
      "d": 280.4878749999916,
      "v": 43
    },
    {
      "midi": 62,
      "hit": false,
      "t": 218808.99779166662,
      "d": 235.77241666664486,
      "v": 38
    },
    {
      "midi": 62,
      "hit": false,
      "t": 219491.92479166662,
      "d": 24.39024999999674,
      "v": 48
    },
    {
      "midi": 67,
      "hit": false,
      "t": 219500.05487499994,
      "d": 36.58537499999511,
      "v": 51
    },
    {
      "midi": 72,
      "hit": false,
      "t": 219504.11991666662,
      "d": 28.45529166664346,
      "v": 48
    },
    {
      "midi": 64,
      "hit": false,
      "t": 219813.06308333325,
      "d": 101.62604166669189,
      "v": 64
    },
    {
      "midi": 62,
      "hit": false,
      "t": 219817.12812499993,
      "d": 81.30083333334187,
      "v": 58
    },
    {
      "midi": 56,
      "hit": false,
      "t": 219971.59970833326,
      "d": 227.6423333333223,
      "v": 32
    },
    {
      "midi": 46,
      "hit": false,
      "t": 219971.59970833326,
      "d": 361.7887083333335,
      "v": 35
    },
    {
      "midi": 52,
      "hit": false,
      "t": 220288.67295833325,
      "d": 81.30083333334187,
      "v": 48
    },
    {
      "midi": 61,
      "hit": false,
      "t": 220443.14454166658,
      "d": 81.30083333331277,
      "v": 57
    },
    {
      "midi": 45,
      "hit": false,
      "t": 220455.33966666658,
      "d": 32.520333333319286,
      "v": 39
    },
    {
      "midi": 45,
      "hit": false,
      "t": 220752.08770833322,
      "d": 146.34150000003865,
      "v": 47
    },
    {
      "midi": 61,
      "hit": false,
      "t": 220760.21779166657,
      "d": 113.82116666669026,
      "v": 52
    },
    {
      "midi": 55,
      "hit": false,
      "t": 220776.47795833324,
      "d": 69.1057083333435,
      "v": 49
    },
    {
      "midi": 47,
      "hit": false,
      "t": 220935.01458333325,
      "d": 504.0651666666381,
      "v": 48
    },
    {
      "midi": 55,
      "hit": false,
      "t": 220939.07962499993,
      "d": 313.0082083333109,
      "v": 44
    },
    {
      "midi": 62,
      "hit": false,
      "t": 220939.07962499993,
      "d": 349.593583333306,
      "v": 49
    },
    {
      "midi": 63,
      "hit": false,
      "t": 221451.2748749999,
      "d": 443.08954166667536,
      "v": 57
    },
    {
      "midi": 55,
      "hit": false,
      "t": 221459.40495833324,
      "d": 341.46349999998347,
      "v": 53
    },
    {
      "midi": 48,
      "hit": false,
      "t": 221467.53504166656,
      "d": 443.08954166667536,
      "v": 39
    },
    {
      "midi": 55,
      "hit": false,
      "t": 221939.0798749999,
      "d": 292.6830000000191,
      "v": 54
    },
    {
      "midi": 49,
      "hit": false,
      "t": 221943.14491666658,
      "d": 178.86183333332883,
      "v": 37
    },
    {
      "midi": 64,
      "hit": false,
      "t": 221943.14491666658,
      "d": 317.07325000001583,
      "v": 59
    },
    {
      "midi": 50,
      "hit": false,
      "t": 222256.15312499992,
      "d": 65.04066666666768,
      "v": 55
    },
    {
      "midi": 51,
      "hit": false,
      "t": 222349.64908333326,
      "d": 48.78049999999348,
      "v": 74
    },
    {
      "midi": 52,
      "hit": false,
      "t": 222447.21008333325,
      "d": 333.33341666669,
      "v": 68
    },
    {
      "midi": 58,
      "hit": false,
      "t": 222455.34016666657,
      "d": 345.5285416666884,
      "v": 75
    },
    {
      "midi": 69,
      "hit": false,
      "t": 222459.40520833325,
      "d": 882.1140416666749,
      "v": 71
    },
    {
      "midi": 62,
      "hit": false,
      "t": 222463.47024999993,
      "d": 304.87812500001746,
      "v": 63
    },
    {
      "midi": 64,
      "hit": false,
      "t": 222471.60033333328,
      "d": 304.87812499998836,
      "v": 56
    },
    {
      "midi": 58,
      "hit": false,
      "t": 222926.88499999992,
      "d": 365.8537500000093,
      "v": 47
    },
    {
      "midi": 62,
      "hit": false,
      "t": 222939.08012499992,
      "d": 317.07325000001583,
      "v": 40
    },
    {
      "midi": 64,
      "hit": false,
      "t": 222947.21020833324,
      "d": 365.8537500000093,
      "v": 36
    },
    {
      "midi": 57,
      "hit": false,
      "t": 223093.55170833325,
      "d": 878.0489999999991,
      "v": 91
    },
    {
      "midi": 58,
      "hit": false,
      "t": 223414.68999999992,
      "d": 410.56920833332697,
      "v": 34
    },
    {
      "midi": 69,
      "hit": false,
      "t": 223414.68999999992,
      "d": 922.7644583333167,
      "v": 50
    },
    {
      "midi": 62,
      "hit": false,
      "t": 223426.8851249999,
      "d": 373.98383333333186,
      "v": 36
    },
    {
      "midi": 64,
      "hit": false,
      "t": 223443.1452916666,
      "d": 390.24399999997695,
      "v": 33
    },
    {
      "midi": 45,
      "hit": false,
      "t": 223723.63316666658,
      "d": 357.72366666668677,
      "v": 61
    },
    {
      "midi": 58,
      "hit": false,
      "t": 223930.95029166658,
      "d": 373.98383333333186,
      "v": 50
    },
    {
      "midi": 62,
      "hit": false,
      "t": 223935.01533333326,
      "d": 333.3334166666609,
      "v": 51
    },
    {
      "midi": 64,
      "hit": false,
      "t": 223943.14541666658,
      "d": 373.98383333333186,
      "v": 37
    },
    {
      "midi": 57,
      "hit": false,
      "t": 224089.4869166666,
      "d": 800.8132083333039,
      "v": 90
    },
    {
      "midi": 58,
      "hit": false,
      "t": 224398.43008333325,
      "d": 252.03258333331905,
      "v": 43
    },
    {
      "midi": 62,
      "hit": false,
      "t": 224406.56016666658,
      "d": 260.1626666666707,
      "v": 55
    },
    {
      "midi": 67,
      "hit": false,
      "t": 224406.56016666658,
      "d": 434.9594583333237,
      "v": 46
    },
    {
      "midi": 45,
      "hit": false,
      "t": 224687.04804166657,
      "d": 739.8375833333121,
      "v": 80
    },
    {
      "midi": 62,
      "hit": false,
      "t": 224898.43020833321,
      "d": 211.38216666667722,
      "v": 26
    },
    {
      "midi": 65,
      "hit": false,
      "t": 224898.43020833321,
      "d": 296.7480416666658,
      "v": 49
    },
    {
      "midi": 58,
      "hit": false,
      "t": 224898.43020833321,
      "d": 357.72366666665766,
      "v": 25
    },
    {
      "midi": 57,
      "hit": false,
      "t": 225052.90179166655,
      "d": 739.8375833333412,
      "v": 99
    },
    {
      "midi": 58,
      "hit": false,
      "t": 225337.4547083332,
      "d": 373.98383333333186,
      "v": 36
    },
    {
      "midi": 61,
      "hit": false,
      "t": 225345.58479166654,
      "d": 361.7887083333335,
      "v": 46
    },
    {
      "midi": 64,
      "hit": false,
      "t": 225357.77991666654,
      "d": 406.50416666668025,
      "v": 40
    },
    {
      "midi": 45,
      "hit": false,
      "t": 225634.20274999988,
      "d": 776.4229583333654,
      "v": 74
    },
    {
      "midi": 58,
      "hit": false,
      "t": 225808.99954166656,
      "d": 93.49595833331114,
      "v": 28
    },
    {
      "midi": 62,
      "hit": false,
      "t": 225817.12962499988,
      "d": 113.82116666666116,
      "v": 46
    },
    {
      "midi": 64,
      "hit": false,
      "t": 225963.47112499987,
      "d": 784.5530416666879,
      "v": 62
    },
    {
      "midi": 58,
      "hit": false,
      "t": 225967.53616666654,
      "d": 93.49595833334024,
      "v": 49
    },
    {
      "midi": 57,
      "hit": false,
      "t": 226105.74758333323,
      "d": 447.1545833333512,
      "v": 85
    },
    {
      "midi": 60,
      "hit": false,
      "t": 226288.67445833323,
      "d": 402.4391250000044,
      "v": 68
    },
    {
      "midi": 65,
      "hit": false,
      "t": 226288.67445833323,
      "d": 451.2196249999979,
      "v": 66
    },
    {
      "midi": 45,
      "hit": false,
      "t": 226577.29241666658,
      "d": 719.512374999962,
      "v": 62
    },
    {
      "midi": 57,
      "hit": false,
      "t": 226764.28433333323,
      "d": 32.520333333319286,
      "v": 50
    },
    {
      "midi": 62,
      "hit": false,
      "t": 226764.28433333323,
      "d": 85.36587499998859,
      "v": 50
    },
    {
      "midi": 57,
      "hit": false,
      "t": 227077.29254166654,
      "d": 455.28466666667373,
      "v": 89
    },
    {
      "midi": 76,
      "hit": false,
      "t": 227239.8942083332,
      "d": 126.01629166668863,
      "v": 60
    },
    {
      "midi": 65,
      "hit": false,
      "t": 227252.0893333332,
      "d": 48.780500000022585,
      "v": 38
    },
    {
      "midi": 69,
      "hit": false,
      "t": 227256.15437499987,
      "d": 65.04066666666768,
      "v": 57
    },
    {
      "midi": 45,
      "hit": false,
      "t": 227398.4308333332,
      "d": 1231.707624999981,
      "v": 64
    },
    {
      "midi": 79,
      "hit": false,
      "t": 227561.03249999988,
      "d": 284.55291666663834,
      "v": 78
    },
    {
      "midi": 72,
      "hit": false,
      "t": 227569.1625833332,
      "d": 300.81308333331253,
      "v": 82
    },
    {
      "midi": 69,
      "hit": false,
      "t": 227569.1625833332,
      "d": 357.72366666665766,
      "v": 75
    },
    {
      "midi": 76,
      "hit": false,
      "t": 228073.22774999987,
      "d": 77.23579166666605,
      "v": 40
    },
    {
      "midi": 65,
      "hit": false,
      "t": 228085.42287499987,
      "d": 109.75612499998533,
      "v": 47
    },
    {
      "midi": 72,
      "hit": false,
      "t": 228097.61799999987,
      "d": 48.78049999999348,
      "v": 36
    },
    {
      "midi": 69,
      "hit": false,
      "t": 228097.61799999987,
      "d": 65.04066666666768,
      "v": 49
    },
    {
      "midi": 57,
      "hit": false,
      "t": 228565.0977916665,
      "d": 117.88620833333698,
      "v": 50
    },
    {
      "midi": 65,
      "hit": false,
      "t": 228569.1628333332,
      "d": 418.6992916667077,
      "v": 63
    },
    {
      "midi": 60,
      "hit": false,
      "t": 228581.3579583332,
      "d": 260.1626666666998,
      "v": 49
    },
    {
      "midi": 45,
      "hit": false,
      "t": 228727.6994583332,
      "d": 69.1057083333435,
      "v": 54
    },
    {
      "midi": 26,
      "hit": false,
      "t": 229223.63454166654,
      "d": 56.91058333334513,
      "v": 45
    },
    {
      "midi": 63,
      "hit": false,
      "t": 229223.63454166654,
      "d": 166.66670833335957,
      "v": 40
    },
    {
      "midi": 54,
      "hit": false,
      "t": 229227.69958333322,
      "d": 81.30083333334187,
      "v": 45
    },
    {
      "midi": 60,
      "hit": false,
      "t": 229235.82966666654,
      "d": 101.62604166669189,
      "v": 51
    },
    {
      "midi": 56,
      "hit": false,
      "t": 229235.82966666654,
      "d": 105.69108333336771,
      "v": 42
    },
    {
      "midi": 72,
      "hit": false,
      "t": 229731.76474999991,
      "d": 138.2114166666579,
      "v": 64
    },
    {
      "midi": 54,
      "hit": false,
      "t": 229739.89483333324,
      "d": 73.17074999999022,
      "v": 46
    },
    {
      "midi": 68,
      "hit": false,
      "t": 229739.89483333324,
      "d": 154.4715833333321,
      "v": 47
    },
    {
      "midi": 66,
      "hit": false,
      "t": 229748.02491666656,
      "d": 142.27645833333372,
      "v": 50
    },
    {
      "midi": 60,
      "hit": false,
      "t": 229752.08995833324,
      "d": 24.39024999999674,
      "v": 40
    },
    {
      "midi": 64,
      "hit": false,
      "t": 229752.08995833324,
      "d": 162.60166666665464,
      "v": 34
    },
    {
      "midi": 50,
      "hit": false,
      "t": 230077.29329166654,
      "d": 36.58537499999511,
      "v": 42
    },
    {
      "midi": 43,
      "hit": false,
      "t": 230239.8949583332,
      "d": 52.8455416666111,
      "v": 55
    },
    {
      "midi": 62,
      "hit": false,
      "t": 230248.02504166652,
      "d": 36.58537499996601,
      "v": 35
    },
    {
      "midi": 65,
      "hit": false,
      "t": 230248.02504166652,
      "d": 44.71545833328855,
      "v": 45
    },
    {
      "midi": 58,
      "hit": false,
      "t": 230256.15512499984,
      "d": 20.325208333320916,
      "v": 23
    },
    {
      "midi": 72,
      "hit": false,
      "t": 230585.4234999998,
      "d": 65.04066666666768,
      "v": 79
    },
    {
      "midi": 84,
      "hit": false,
      "t": 230585.4234999998,
      "d": 73.17074999999022,
      "v": 75
    },
    {
      "midi": 78,
      "hit": false,
      "t": 230589.48854166648,
      "d": 20.325208333320916,
      "v": 50
    },
    {
      "midi": 86,
      "hit": false,
      "t": 230589.48854166648,
      "d": 20.325208333320916,
      "v": 71
    },
    {
      "midi": 84,
      "hit": false,
      "t": 230752.09020833313,
      "d": 85.36587499998859,
      "v": 74
    },
    {
      "midi": 62,
      "hit": false,
      "t": 230752.09020833313,
      "d": 369.91879166662693,
      "v": 51
    },
    {
      "midi": 72,
      "hit": false,
      "t": 230760.22029166645,
      "d": 56.91058333334513,
      "v": 57
    },
    {
      "midi": 60,
      "hit": false,
      "t": 230764.28533333313,
      "d": 174.796791666653,
      "v": 39
    },
    {
      "midi": 58,
      "hit": false,
      "t": 230768.3503749998,
      "d": 349.5935833332769,
      "v": 37
    },
    {
      "midi": 82,
      "hit": false,
      "t": 230922.8219583331,
      "d": 65.04066666666768,
      "v": 38
    },
    {
      "midi": 84,
      "hit": false,
      "t": 231081.3585833331,
      "d": 81.30083333334187,
      "v": 80
    },
    {
      "midi": 72,
      "hit": false,
      "t": 231085.42362499976,
      "d": 65.04066666666768,
      "v": 68
    },
    {
      "midi": 84,
      "hit": false,
      "t": 231239.8952083331,
      "d": 89.43091666669352,
      "v": 73
    },
    {
      "midi": 55,
      "hit": false,
      "t": 231243.96024999977,
      "d": 357.72366666665766,
      "v": 51
    },
    {
      "midi": 62,
      "hit": false,
      "t": 231248.02529166645,
      "d": 239.83745833332068,
      "v": 44
    },
    {
      "midi": 72,
      "hit": false,
      "t": 231252.09033333312,
      "d": 60.97562499999185,
      "v": 59
    },
    {
      "midi": 58,
      "hit": false,
      "t": 231252.09033333312,
      "d": 439.02449999997043,
      "v": 37
    },
    {
      "midi": 82,
      "hit": false,
      "t": 231418.75704166645,
      "d": 32.520333333319286,
      "v": 30
    },
    {
      "midi": 84,
      "hit": false,
      "t": 231561.03349999976,
      "d": 126.01629166665953,
      "v": 80
    },
    {
      "midi": 72,
      "hit": false,
      "t": 231565.09854166643,
      "d": 178.86183333332883,
      "v": 72
    },
    {
      "midi": 54,
      "hit": false,
      "t": 231719.57012499977,
      "d": 317.07325000001583,
      "v": 63
    },
    {
      "midi": 62,
      "hit": false,
      "t": 231727.7002083331,
      "d": 304.87812500001746,
      "v": 50
    },
    {
      "midi": 58,
      "hit": false,
      "t": 231739.8953333331,
      "d": 345.5285416666884,
      "v": 27
    },
    {
      "midi": 82,
      "hit": false,
      "t": 231886.2368333331,
      "d": 117.88620833333698,
      "v": 70
    },
    {
      "midi": 70,
      "hit": false,
      "t": 231890.30187499977,
      "d": 113.82116666666116,
      "v": 67
    },
    {
      "midi": 81,
      "hit": false,
      "t": 232211.44016666643,
      "d": 134.14637499998207,
      "v": 59
    },
    {
      "midi": 53,
      "hit": false,
      "t": 232219.57024999976,
      "d": 85.3658750000177,
      "v": 46
    },
    {
      "midi": 76,
      "hit": false,
      "t": 232219.57024999976,
      "d": 146.34149999998044,
      "v": 46
    },
    {
      "midi": 69,
      "hit": false,
      "t": 232219.57024999976,
      "d": 170.73174999997718,
      "v": 47
    },
    {
      "midi": 62,
      "hit": false,
      "t": 232223.63529166643,
      "d": 81.30083333334187,
      "v": 44
    },
    {
      "midi": 58,
      "hit": false,
      "t": 232223.63529166643,
      "d": 113.82116666666116,
      "v": 38
    },
    {
      "midi": 73,
      "hit": false,
      "t": 232223.63529166643,
      "d": 166.66670833330136,
      "v": 43
    },
    {
      "midi": 64,
      "hit": false,
      "t": 232703.31020833307,
      "d": 349.5935833333351,
      "v": 47
    },
    {
      "midi": 58,
      "hit": false,
      "t": 232707.37524999975,
      "d": 288.61795833331416,
      "v": 35
    },
    {
      "midi": 61,
      "hit": false,
      "t": 232707.37524999975,
      "d": 333.3334166666609,
      "v": 50
    },
    {
      "midi": 57,
      "hit": false,
      "t": 232715.50533333307,
      "d": 272.3577916666691,
      "v": 35
    },
    {
      "midi": 48,
      "hit": false,
      "t": 232719.57037499975,
      "d": 1032.520583333302,
      "v": 32
    },
    {
      "midi": 55,
      "hit": false,
      "t": 233134.20462499975,
      "d": 32.520333333319286,
      "v": 52
    },
    {
      "midi": 57,
      "hit": false,
      "t": 233199.2452916664,
      "d": 231.70737499999814,
      "v": 71
    },
    {
      "midi": 58,
      "hit": false,
      "t": 233199.2452916664,
      "d": 239.83745833332068,
      "v": 81
    },
    {
      "midi": 69,
      "hit": false,
      "t": 233203.31033333307,
      "d": 235.77241666664486,
      "v": 77
    },
    {
      "midi": 61,
      "hit": false,
      "t": 233203.31033333307,
      "d": 239.83745833332068,
      "v": 74
    },
    {
      "midi": 64,
      "hit": false,
      "t": 233203.31033333307,
      "d": 268.29274999999325,
      "v": 66
    },
    {
      "midi": 61,
      "hit": false,
      "t": 233520.38358333305,
      "d": 109.75612500001444,
      "v": 49
    },
    {
      "midi": 58,
      "hit": false,
      "t": 233520.38358333305,
      "d": 113.82116666669026,
      "v": 59
    },
    {
      "midi": 67,
      "hit": false,
      "t": 233520.38358333305,
      "d": 150.40654166668537,
      "v": 56
    },
    {
      "midi": 55,
      "hit": false,
      "t": 233520.38358333305,
      "d": 158.53662500000792,
      "v": 52
    },
    {
      "midi": 65,
      "hit": false,
      "t": 233715.50558333306,
      "d": 85.36587499998859,
      "v": 47
    },
    {
      "midi": 67,
      "hit": false,
      "t": 233853.7169999997,
      "d": 93.49595833334024,
      "v": 37
    },
    {
      "midi": 58,
      "hit": false,
      "t": 233857.7820416664,
      "d": 105.69108333333861,
      "v": 31
    },
    {
      "midi": 48,
      "hit": false,
      "t": 234000.05849999972,
      "d": 32.520333333319286,
      "v": 44
    },
    {
      "midi": 57,
      "hit": false,
      "t": 234170.7902499997,
      "d": 56.910583333316026,
      "v": 53
    },
    {
      "midi": 41,
      "hit": false,
      "t": 234178.92033333302,
      "d": 48.78049999999348,
      "v": 55
    },
    {
      "midi": 64,
      "hit": false,
      "t": 234178.92033333302,
      "d": 85.36587499998859,
      "v": 48
    },
    {
      "midi": 69,
      "hit": false,
      "t": 234178.92033333302,
      "d": 121.9512499999837,
      "v": 43
    },
    {
      "midi": 48,
      "hit": false,
      "t": 234187.05041666634,
      "d": 65.04066666666768,
      "v": 34
    },
    {
      "midi": 69,
      "hit": false,
      "t": 234508.188708333,
      "d": 500.0001250000205,
      "v": 76
    },
    {
      "midi": 72,
      "hit": false,
      "t": 234508.188708333,
      "d": 516.2602916666947,
      "v": 78
    },
    {
      "midi": 53,
      "hit": false,
      "t": 234520.383833333,
      "d": 414.6342500000028,
      "v": 64
    },
    {
      "midi": 63,
      "hit": false,
      "t": 234524.44887499968,
      "d": 459.34970833334955,
      "v": 64
    },
    {
      "midi": 58,
      "hit": false,
      "t": 234528.51391666636,
      "d": 451.2196249999979,
      "v": 58
    },
    {
      "midi": 65,
      "hit": false,
      "t": 235146.40024999972,
      "d": 178.86183333329973,
      "v": 53
    },
    {
      "midi": 55,
      "hit": false,
      "t": 235158.5953749997,
      "d": 89.43091666666442,
      "v": 44
    },
    {
      "midi": 60,
      "hit": false,
      "t": 235166.72545833304,
      "d": 24.39024999999674,
      "v": 46
    },
    {
      "midi": 69,
      "hit": false,
      "t": 235178.92058333303,
      "d": 126.01629166665953,
      "v": 47
    },
    {
      "midi": 66,
      "hit": false,
      "t": 235467.53854166635,
      "d": 36.58537499999511,
      "v": 25
    },
    {
      "midi": 48,
      "hit": false,
      "t": 235475.66862499967,
      "d": 36.58537499999511,
      "v": 46
    },
    {
      "midi": 57,
      "hit": false,
      "t": 235638.27029166633,
      "d": 239.83745833332068,
      "v": 36
    },
    {
      "midi": 52,
      "hit": false,
      "t": 235642.335333333,
      "d": 227.6423333333223,
      "v": 47
    },
    {
      "midi": 62,
      "hit": false,
      "t": 235642.335333333,
      "d": 268.29274999996414,
      "v": 37
    },
    {
      "midi": 41,
      "hit": false,
      "t": 235926.88824999964,
      "d": 56.91058333334513,
      "v": 58
    },
    {
      "midi": 57,
      "hit": false,
      "t": 236105.750083333,
      "d": 260.1626666666998,
      "v": 78
    },
    {
      "midi": 58,
      "hit": false,
      "t": 236109.81512499967,
      "d": 247.96754166670144,
      "v": 76
    },
    {
      "midi": 69,
      "hit": false,
      "t": 236109.81512499967,
      "d": 256.097625000024,
      "v": 76
    },
    {
      "midi": 62,
      "hit": false,
      "t": 236113.88016666635,
      "d": 268.29275000002235,
      "v": 66
    },
    {
      "midi": 64,
      "hit": false,
      "t": 236117.94520833303,
      "d": 280.4878750000207,
      "v": 64
    },
    {
      "midi": 57,
      "hit": false,
      "t": 236422.82333333304,
      "d": 101.62604166666279,
      "v": 62
    },
    {
      "midi": 69,
      "hit": false,
      "t": 236422.82333333304,
      "d": 109.75612499998533,
      "v": 76
    },
    {
      "midi": 58,
      "hit": false,
      "t": 236426.88837499972,
      "d": 93.49595833331114,
      "v": 67
    },
    {
      "midi": 62,
      "hit": false,
      "t": 236435.01845833304,
      "d": 105.6910833333095,
      "v": 74
    },
    {
      "midi": 64,
      "hit": false,
      "t": 236435.01845833304,
      "d": 117.88620833330788,
      "v": 46
    },
    {
      "midi": 57,
      "hit": false,
      "t": 236617.94533333302,
      "d": 40.65041666670004,
      "v": 48
    },
    {
      "midi": 62,
      "hit": false,
      "t": 236622.0103749997,
      "d": 40.65041666670004,
      "v": 35
    },
    {
      "midi": 69,
      "hit": false,
      "t": 236622.0103749997,
      "d": 40.65041666670004,
      "v": 34
    },
    {
      "midi": 64,
      "hit": false,
      "t": 236626.07541666637,
      "d": 32.52033333334839,
      "v": 40
    },
    {
      "midi": 62,
      "hit": false,
      "t": 236886.23808333307,
      "d": 44.71545833334676,
      "v": 64
    },
    {
      "midi": 58,
      "hit": false,
      "t": 236890.30312499974,
      "d": 28.455291666672565,
      "v": 52
    },
    {
      "midi": 57,
      "hit": false,
      "t": 236898.43320833307,
      "d": 65.04066666666768,
      "v": 64
    },
    {
      "midi": 69,
      "hit": false,
      "t": 236902.49824999974,
      "d": 40.650416666670935,
      "v": 35
    },
    {
      "midi": 59,
      "hit": false,
      "t": 237081.36008333307,
      "d": 105.6910833333095,
      "v": 66
    },
    {
      "midi": 71,
      "hit": false,
      "t": 237081.36008333307,
      "d": 146.34149999998044,
      "v": 47
    },
    {
      "midi": 64,
      "hit": false,
      "t": 237101.6852916664,
      "d": 89.43091666666442,
      "v": 36
    },
    {
      "midi": 67,
      "hit": false,
      "t": 237101.6852916664,
      "d": 97.56099999998696,
      "v": 32
    },
    {
      "midi": 60,
      "hit": false,
      "t": 237113.8804166664,
      "d": 24.39024999999674,
      "v": 24
    },
    {
      "midi": 73,
      "hit": false,
      "t": 237536.64474999972,
      "d": 426.82937500000116,
      "v": 57
    },
    {
      "midi": 64,
      "hit": false,
      "t": 237544.77483333304,
      "d": 182.92687500000466,
      "v": 41
    },
    {
      "midi": 51,
      "hit": false,
      "t": 237548.8398749997,
      "d": 117.88620833333698,
      "v": 53
    },
    {
      "midi": 69,
      "hit": false,
      "t": 237552.9049166664,
      "d": 239.83745833332068,
      "v": 40
    },
    {
      "midi": 76,
      "hit": false,
      "t": 238036.64487499974,
      "d": 451.2196249999979,
      "v": 45
    },
    {
      "midi": 60,
      "hit": false,
      "t": 238044.77495833306,
      "d": 252.03258333334816,
      "v": 45
    },
    {
      "midi": 65,
      "hit": false,
      "t": 238044.77495833306,
      "d": 341.4635000000126,
      "v": 29
    },
    {
      "midi": 69,
      "hit": false,
      "t": 238048.83999999973,
      "d": 341.4635000000126,
      "v": 43
    },
    {
      "midi": 50,
      "hit": false,
      "t": 238069.16520833306,
      "d": 674.7969166666444,
      "v": 44
    },
    {
      "midi": 74,
      "hit": false,
      "t": 238536.64499999973,
      "d": 97.56099999998696,
      "v": 45
    },
    {
      "midi": 65,
      "hit": false,
      "t": 238536.64499999973,
      "d": 109.75612499998533,
      "v": 36
    },
    {
      "midi": 60,
      "hit": false,
      "t": 238536.64499999973,
      "d": 142.27645833330462,
      "v": 40
    },
    {
      "midi": 69,
      "hit": false,
      "t": 238544.77508333305,
      "d": 77.23579166666605,
      "v": 44
    },
    {
      "midi": 69,
      "hit": false,
      "t": 239040.71016666637,
      "d": 182.92687500003376,
      "v": 42
    },
    {
      "midi": 65,
      "hit": false,
      "t": 239040.71016666637,
      "d": 207.3171250000305,
      "v": 41
    },
    {
      "midi": 57,
      "hit": false,
      "t": 239044.77520833304,
      "d": 487.8050000000221,
      "v": 36
    },
    {
      "midi": 60,
      "hit": false,
      "t": 239048.84024999972,
      "d": 223.5772916666756,
      "v": 34
    },
    {
      "midi": 50,
      "hit": false,
      "t": 239052.9052916664,
      "d": 532.5204583333398,
      "v": 34
    },
    {
      "midi": 62,
      "hit": false,
      "t": 239528.5151666664,
      "d": 276.4228333333449,
      "v": 89
    },
    {
      "midi": 61,
      "hit": false,
      "t": 239772.4176666664,
      "d": 101.62604166663368,
      "v": 45
    },
    {
      "midi": 60,
      "hit": false,
      "t": 239841.52337499973,
      "d": 77.23579166666605,
      "v": 53
    },
    {
      "midi": 59,
      "hit": false,
      "t": 239926.88924999972,
      "d": 73.17074999999022,
      "v": 44
    },
    {
      "midi": 53,
      "hit": false,
      "t": 240016.32016666638,
      "d": 268.29275000002235,
      "v": 39
    },
    {
      "midi": 43,
      "hit": false,
      "t": 240020.38520833306,
      "d": 239.8374583333498,
      "v": 37
    },
    {
      "midi": 58,
      "hit": false,
      "t": 240024.45024999973,
      "d": 239.8374583333498,
      "v": 53
    },
    {
      "midi": 72,
      "hit": false,
      "t": 240731.76749999973,
      "d": 170.7317500000063,
      "v": 66
    },
    {
      "midi": 65,
      "hit": false,
      "t": 240739.89758333305,
      "d": 126.01629166668863,
      "v": 79
    },
    {
      "midi": 69,
      "hit": false,
      "t": 240743.96262499972,
      "d": 170.7317500000063,
      "v": 55
    },
    {
      "midi": 62,
      "hit": false,
      "t": 240748.0276666664,
      "d": 142.27645833333372,
      "v": 78
    },
    {
      "midi": 57,
      "hit": false,
      "t": 240748.0276666664,
      "d": 231.70737499999814,
      "v": 60
    },
    {
      "midi": 70,
      "hit": false,
      "t": 240983.80008333307,
      "d": 772.3579166666314,
      "v": 60
    },
    {
      "midi": 62,
      "hit": false,
      "t": 240987.86512499975,
      "d": 174.796791666653,
      "v": 32
    },
    {
      "midi": 65,
      "hit": false,
      "t": 240995.99520833307,
      "d": 272.35779166663997,
      "v": 44
    },
    {
      "midi": 55,
      "hit": false,
      "t": 241000.06024999975,
      "d": 247.96754166664323,
      "v": 51
    },
    {
      "midi": 62,
      "hit": false,
      "t": 241731.7677499997,
      "d": 65.04066666666768,
      "v": 44
    },
    {
      "midi": 46,
      "hit": false,
      "t": 241939.0848749997,
      "d": 170.73174999997718,
      "v": 37
    },
    {
      "midi": 60,
      "hit": false,
      "t": 241947.21495833303,
      "d": 52.8455416666402,
      "v": 52
    },
    {
      "midi": 56,
      "hit": false,
      "t": 241955.34504166635,
      "d": 105.6910833333095,
      "v": 45
    },
    {
      "midi": 64,
      "hit": false,
      "t": 241991.93041666635,
      "d": 69.1057083333144,
      "v": 31
    },
    {
      "midi": 60,
      "hit": false,
      "t": 242065.10116666634,
      "d": 48.780500000022585,
      "v": 47
    },
    {
      "midi": 64,
      "hit": false,
      "t": 242138.27191666636,
      "d": 40.650416666670935,
      "v": 36
    },
    {
      "midi": 60,
      "hit": false,
      "t": 242182.9873749997,
      "d": 56.910583333316026,
      "v": 42
    },
    {
      "midi": 46,
      "hit": false,
      "t": 242207.3776249997,
      "d": 81.30083333331277,
      "v": 32
    },
    {
      "midi": 64,
      "hit": false,
      "t": 242272.41829166634,
      "d": 36.58537499999511,
      "v": 30
    },
    {
      "midi": 60,
      "hit": false,
      "t": 242309.00366666634,
      "d": 56.910583333316026,
      "v": 48
    },
    {
      "midi": 56,
      "hit": false,
      "t": 242329.32887499966,
      "d": 36.58537499999511,
      "v": 21
    },
    {
      "midi": 46,
      "hit": false,
      "t": 242378.10937499965,
      "d": 69.10570833328529,
      "v": 46
    },
    {
      "midi": 64,
      "hit": false,
      "t": 242398.43458333297,
      "d": 32.520333333319286,
      "v": 36
    },
    {
      "midi": 60,
      "hit": false,
      "t": 242439.0849999996,
      "d": 56.91058333334513,
      "v": 51
    },
    {
      "midi": 56,
      "hit": false,
      "t": 242451.2801249996,
      "d": 56.91058333334513,
      "v": 33
    },
    {
      "midi": 64,
      "hit": false,
      "t": 242520.38583333296,
      "d": 32.52033333334839,
      "v": 50
    },
    {
      "midi": 46,
      "hit": false,
      "t": 242524.45087499963,
      "d": 73.17074999999022,
      "v": 54
    },
    {
      "midi": 60,
      "hit": false,
      "t": 242556.97120833298,
      "d": 60.97562499996275,
      "v": 53
    },
    {
      "midi": 56,
      "hit": false,
      "t": 242589.4915416663,
      "d": 60.97562499999185,
      "v": 40
    },
    {
      "midi": 64,
      "hit": false,
      "t": 242634.20699999962,
      "d": 44.71545833334676,
      "v": 54
    },
    {
      "midi": 46,
      "hit": false,
      "t": 242674.8574166663,
      "d": 69.1057083333435,
      "v": 56
    },
    {
      "midi": 60,
      "hit": false,
      "t": 242678.92245833296,
      "d": 56.91058333334513,
      "v": 53
    },
    {
      "midi": 56,
      "hit": false,
      "t": 242731.76799999963,
      "d": 89.43091666666442,
      "v": 43
    },
    {
      "midi": 64,
      "hit": false,
      "t": 242748.0281666663,
      "d": 48.78049999999348,
      "v": 51
    },
    {
      "midi": 60,
      "hit": false,
      "t": 242796.8086666663,
      "d": 73.17074999999022,
      "v": 57
    },
    {
      "midi": 46,
      "hit": false,
      "t": 242829.32899999962,
      "d": 77.23579166669515,
      "v": 67
    },
    {
      "midi": 64,
      "hit": false,
      "t": 242874.04445833297,
      "d": 40.650416666670935,
      "v": 49
    },
    {
      "midi": 56,
      "hit": false,
      "t": 242890.30462499964,
      "d": 101.62604166663368,
      "v": 45
    },
    {
      "midi": 60,
      "hit": false,
      "t": 242922.82495833296,
      "d": 52.845541666669305,
      "v": 64
    },
    {
      "midi": 64,
      "hit": false,
      "t": 242983.80058333295,
      "d": 48.78049999999348,
      "v": 54
    },
    {
      "midi": 46,
      "hit": false,
      "t": 242991.93066666627,
      "d": 105.69108333333861,
      "v": 52
    },
    {
      "midi": 60,
      "hit": false,
      "t": 243032.58108333295,
      "d": 56.91058333334513,
      "v": 57
    },
    {
      "midi": 64,
      "hit": false,
      "t": 243105.75183333294,
      "d": 24.39024999999674,
      "v": 36
    },
    {
      "midi": 56,
      "hit": false,
      "t": 243122.0119999996,
      "d": 36.58537499999511,
      "v": 13
    },
    {
      "midi": 64,
      "hit": false,
      "t": 243695.18287499962,
      "d": 32.520333333319286,
      "v": 43
    },
    {
      "midi": 46,
      "hit": false,
      "t": 243695.18287499962,
      "d": 126.01629166665953,
      "v": 35
    },
    {
      "midi": 56,
      "hit": false,
      "t": 243703.31295833294,
      "d": 69.1057083333435,
      "v": 32
    },
    {
      "midi": 58,
      "hit": false,
      "t": 243894.36991666627,
      "d": 231.70737499996903,
      "v": 46
    },
    {
      "midi": 64,
      "hit": false,
      "t": 243894.36991666627,
      "d": 243.9024999999674,
      "v": 47
    },
    {
      "midi": 45,
      "hit": false,
      "t": 243902.4999999996,
      "d": 215.44720833332394,
      "v": 49
    },
    {
      "midi": 55,
      "hit": false,
      "t": 243910.63008333292,
      "d": 138.2114166666579,
      "v": 45
    },
    {
      "midi": 61,
      "hit": false,
      "t": 243918.76016666624,
      "d": 211.38216666667722,
      "v": 36
    },
    {
      "midi": 45,
      "hit": false,
      "t": 244211.44316666623,
      "d": 113.82116666669026,
      "v": 73
    },
    {
      "midi": 64,
      "hit": false,
      "t": 244211.44316666623,
      "d": 126.01629166668863,
      "v": 67
    },
    {
      "midi": 55,
      "hit": false,
      "t": 244215.5082083329,
      "d": 101.62604166669189,
      "v": 80
    },
    {
      "midi": 58,
      "hit": false,
      "t": 244219.57324999958,
      "d": 117.88620833333698,
      "v": 62
    },
    {
      "midi": 61,
      "hit": false,
      "t": 244219.57324999958,
      "d": 138.2114166666579,
      "v": 63
    },
    {
      "midi": 45,
      "hit": false,
      "t": 244410.6302083329,
      "d": 77.23579166669515,
      "v": 40
    },
    {
      "midi": 55,
      "hit": false,
      "t": 244422.8253333329,
      "d": 60.975625000020955,
      "v": 48
    },
    {
      "midi": 64,
      "hit": false,
      "t": 244422.8253333329,
      "d": 81.30083333337097,
      "v": 47
    },
    {
      "midi": 58,
      "hit": false,
      "t": 244426.89037499958,
      "d": 52.845541666669305,
      "v": 36
    },
    {
      "midi": 61,
      "hit": false,
      "t": 244426.89037499958,
      "d": 56.91058333334513,
      "v": 37
    },
    {
      "midi": 64,
      "hit": false,
      "t": 244703.31320833295,
      "d": 101.62604166669189,
      "v": 55
    },
    {
      "midi": 45,
      "hit": false,
      "t": 244703.31320833295,
      "d": 150.40654166668537,
      "v": 57
    },
    {
      "midi": 55,
      "hit": false,
      "t": 244707.37824999963,
      "d": 81.30083333334187,
      "v": 60
    },
    {
      "midi": 58,
      "hit": false,
      "t": 244711.4432916663,
      "d": 60.97562499999185,
      "v": 36
    },
    {
      "midi": 58,
      "hit": false,
      "t": 244906.56529166628,
      "d": 170.7317500000063,
      "v": 44
    },
    {
      "midi": 65,
      "hit": false,
      "t": 244910.63033333296,
      "d": 121.9512500000128,
      "v": 49
    },
    {
      "midi": 55,
      "hit": false,
      "t": 244910.63033333296,
      "d": 130.08133333333535,
      "v": 54
    },
    {
      "midi": 61,
      "hit": false,
      "t": 244914.69537499963,
      "d": 158.5366249999788,
      "v": 43
    },
    {
      "midi": 49,
      "hit": false,
      "t": 244918.7604166663,
      "d": 512.1952499999607,
      "v": 45
    },
    {
      "midi": 67,
      "hit": false,
      "t": 245369.98004166628,
      "d": 142.27645833333372,
      "v": 49
    },
    {
      "midi": 58,
      "hit": false,
      "t": 245378.1101249996,
      "d": 130.08133333333535,
      "v": 47
    },
    {
      "midi": 61,
      "hit": false,
      "t": 245378.1101249996,
      "d": 166.66670833333046,
      "v": 55
    },
    {
      "midi": 52,
      "hit": false,
      "t": 245382.17516666627,
      "d": 73.17074999999022,
      "v": 54
    },
    {
      "midi": 64,
      "hit": false,
      "t": 245398.43533333295,
      "d": 97.56099999998696,
      "v": 30
    },
    {
      "midi": 69,
      "hit": false,
      "t": 245857.78504166624,
      "d": 467.4797916667012,
      "v": 46
    },
    {
      "midi": 50,
      "hit": false,
      "t": 245861.85008333292,
      "d": 410.5692083333561,
      "v": 46
    },
    {
      "midi": 60,
      "hit": false,
      "t": 245861.85008333292,
      "d": 479.6749166666996,
      "v": 49
    },
    {
      "midi": 65,
      "hit": false,
      "t": 245861.85008333292,
      "d": 483.7399583333754,
      "v": 48
    },
    {
      "midi": 62,
      "hit": false,
      "t": 245861.85008333292,
      "d": 495.93508333337377,
      "v": 49
    },
    {
      "midi": 57,
      "hit": false,
      "t": 245865.9151249996,
      "d": 337.39845833333675,
      "v": 36
    },
    {
      "midi": 47,
      "hit": false,
      "t": 246857.7852916663,
      "d": 252.03258333334816,
      "v": 55
    },
    {
      "midi": 61,
      "hit": false,
      "t": 246857.7852916663,
      "d": 296.7480416666658,
      "v": 48
    },
    {
      "midi": 59,
      "hit": false,
      "t": 246861.850333333,
      "d": 296.7480416666658,
      "v": 56
    },
    {
      "midi": 57,
      "hit": false,
      "t": 246865.91537499966,
      "d": 256.0976249999949,
      "v": 50
    },
    {
      "midi": 54,
      "hit": false,
      "t": 246865.91537499966,
      "d": 268.29274999999325,
      "v": 37
    },
    {
      "midi": 62,
      "hit": false,
      "t": 247170.79349999965,
      "d": 150.40654166665627,
      "v": 64
    },
    {
      "midi": 47,
      "hit": false,
      "t": 247187.05366666632,
      "d": 85.36587499998859,
      "v": 43
    },
    {
      "midi": 54,
      "hit": false,
      "t": 247187.05366666632,
      "d": 109.75612499998533,
      "v": 27
    },
    {
      "midi": 56,
      "hit": false,
      "t": 247650.46841666632,
      "d": 703.252208333317,
      "v": 54
    },
    {
      "midi": 65,
      "hit": false,
      "t": 247654.533458333,
      "d": 906.5042916666425,
      "v": 53
    },
    {
      "midi": 46,
      "hit": false,
      "t": 247658.59849999967,
      "d": 666.6668333333218,
      "v": 42
    },
    {
      "midi": 34,
      "hit": false,
      "t": 247662.66354166635,
      "d": 682.9269999999669,
      "v": 44
    },
    {
      "midi": 62,
      "hit": false,
      "t": 247670.79362499967,
      "d": 674.7969166666444,
      "v": 44
    },
    {
      "midi": 60,
      "hit": false,
      "t": 247670.79362499967,
      "d": 695.1221249999653,
      "v": 55
    },
    {
      "midi": 64,
      "hit": false,
      "t": 248800.87520833296,
      "d": 93.49595833336934,
      "v": 28
    },
    {
      "midi": 61,
      "hit": false,
      "t": 248804.94024999964,
      "d": 73.17075000001932,
      "v": 35
    },
    {
      "midi": 45,
      "hit": false,
      "t": 248804.94024999964,
      "d": 373.98383333336096,
      "v": 36
    },
    {
      "midi": 55,
      "hit": false,
      "t": 248809.0052916663,
      "d": 32.52033333334839,
      "v": 36
    },
    {
      "midi": 58,
      "hit": false,
      "t": 248813.070333333,
      "d": 56.91058333334513,
      "v": 31
    },
    {
      "midi": 33,
      "hit": false,
      "t": 248813.070333333,
      "d": 329.2683750000142,
      "v": 34
    },
    {
      "midi": 74,
      "hit": false,
      "t": 249130.143583333,
      "d": 81.30083333331277,
      "v": 87
    },
    {
      "midi": 67,
      "hit": false,
      "t": 249288.68020833298,
      "d": 40.65041666664183,
      "v": 24
    },
    {
      "midi": 68,
      "hit": false,
      "t": 249296.8102916663,
      "d": 56.910583333316026,
      "v": 56
    },
    {
      "midi": 69,
      "hit": false,
      "t": 249365.91599999962,
      "d": 28.455291666672565,
      "v": 53
    },
    {
      "midi": 62,
      "hit": false,
      "t": 249597.62337499962,
      "d": 113.82116666666116,
      "v": 38
    },
    {
      "midi": 65,
      "hit": false,
      "t": 249845.5909166663,
      "d": 199.18704166667885,
      "v": 53
    },
    {
      "midi": 62,
      "hit": false,
      "t": 252032.58333333296,
      "d": 621.9513750000042,
      "v": 74
    },
    {
      "midi": 50,
      "hit": false,
      "t": 252056.97358333296,
      "d": 585.3660000000091,
      "v": 53
    },
    {
      "midi": 52,
      "hit": false,
      "t": 252678.92495833297,
      "d": 130.08133333333535,
      "v": 43
    },
    {
      "midi": 64,
      "hit": false,
      "t": 252691.12008333296,
      "d": 138.2114166666579,
      "v": 50
    },
    {
      "midi": 53,
      "hit": false,
      "t": 253162.66491666628,
      "d": 36.58537499999511,
      "v": 41
    },
    {
      "midi": 65,
      "hit": false,
      "t": 253162.66491666628,
      "d": 101.62604166666279,
      "v": 53
    },
    {
      "midi": 62,
      "hit": false,
      "t": 253658.5999999996,
      "d": 1065.0409166666504,
      "v": 51
    },
    {
      "midi": 66,
      "hit": false,
      "t": 253658.5999999996,
      "d": 1130.0815833333181,
      "v": 56
    },
    {
      "midi": 69,
      "hit": false,
      "t": 253666.73008333292,
      "d": 1162.6019166666665,
      "v": 58
    },
    {
      "midi": 57,
      "hit": false,
      "t": 253666.73008333292,
      "d": 1321.1385416666744,
      "v": 47
    },
    {
      "midi": 58,
      "hit": false,
      "t": 253678.92520833292,
      "d": 1345.5287916666712,
      "v": 33
    },
    {
      "midi": 55,
      "hit": false,
      "t": 253703.31545833292,
      "d": 1313.0084583333519,
      "v": 32
    },
    {
      "midi": 67,
      "hit": false,
      "t": 255426.8931249996,
      "d": 186.99191666668048,
      "v": 78
    },
    {
      "midi": 61,
      "hit": false,
      "t": 255674.8606666663,
      "d": 569.1058333333349,
      "v": 37
    },
    {
      "midi": 65,
      "hit": false,
      "t": 255691.12083333297,
      "d": 382.1139166666835,
      "v": 32
    },
    {
      "midi": 55,
      "hit": false,
      "t": 255691.12083333297,
      "d": 467.4797916666721,
      "v": 36
    },
    {
      "midi": 77,
      "hit": false,
      "t": 255995.998958333,
      "d": 154.4715833333321,
      "v": 67
    },
    {
      "midi": 88,
      "hit": false,
      "t": 256894.3731666663,
      "d": 191.0569583333563,
      "v": 79
    },
    {
      "midi": 76,
      "hit": false,
      "t": 256898.43820833298,
      "d": 219.51224999999977,
      "v": 71
    },
    {
      "midi": 55,
      "hit": false,
      "t": 256902.50324999966,
      "d": 231.70737499999814,
      "v": 52
    },
    {
      "midi": 61,
      "hit": false,
      "t": 256902.50324999966,
      "d": 260.1626666666707,
      "v": 49
    },
    {
      "midi": 66,
      "hit": false,
      "t": 256906.56829166634,
      "d": 211.38216666664812,
      "v": 48
    },
    {
      "midi": 86,
      "hit": false,
      "t": 257243.96674999967,
      "d": 117.88620833333698,
      "v": 61
    },
    {
      "midi": 74,
      "hit": false,
      "t": 257248.03179166635,
      "d": 81.30083333334187,
      "v": 58
    },
    {
      "midi": 60,
      "hit": false,
      "t": 257577.30016666633,
      "d": 540.6505416666623,
      "v": 32
    },
    {
      "midi": 91,
      "hit": false,
      "t": 257585.43024999966,
      "d": 520.3253333333414,
      "v": 44
    },
    {
      "midi": 57,
      "hit": false,
      "t": 257585.43024999966,
      "d": 581.3009583333333,
      "v": 33
    },
    {
      "midi": 50,
      "hit": false,
      "t": 257585.43024999966,
      "d": 1455.2849166666565,
      "v": 30
    },
    {
      "midi": 79,
      "hit": false,
      "t": 257593.56033333298,
      "d": 536.5855000000156,
      "v": 53
    },
    {
      "midi": 53,
      "hit": false,
      "t": 257597.62537499965,
      "d": 560.9757500000123,
      "v": 36
    },
    {
      "midi": 89,
      "hit": false,
      "t": 258374.048333333,
      "d": 560.9757499999832,
      "v": 48
    },
    {
      "midi": 60,
      "hit": false,
      "t": 258386.243458333,
      "d": 727.6424583333428,
      "v": 40
    },
    {
      "midi": 57,
      "hit": false,
      "t": 258394.3735416663,
      "d": 642.2765833333251,
      "v": 31
    },
    {
      "midi": 77,
      "hit": false,
      "t": 258394.3735416663,
      "d": 703.2522083333461,
      "v": 35
    },
    {
      "midi": 53,
      "hit": false,
      "t": 258406.5686666663,
      "d": 597.5611250000075,
      "v": 27
    },
    {
      "midi": 65,
      "hit": false,
      "t": 260833.39854166633,
      "d": 121.9512500000128,
      "v": 68
    },
    {
      "midi": 56,
      "hit": false,
      "t": 260837.463583333,
      "d": 162.60166666668374,
      "v": 67
    },
    {
      "midi": 61,
      "hit": false,
      "t": 260837.463583333,
      "d": 174.7967916666821,
      "v": 67
    },
    {
      "midi": 49,
      "hit": false,
      "t": 260849.658708333,
      "d": 256.097625000024,
      "v": 56
    },
    {
      "midi": 58,
      "hit": false,
      "t": 261105.75633333303,
      "d": 150.40654166665627,
      "v": 63
    },
    {
      "midi": 67,
      "hit": false,
      "t": 261109.8213749997,
      "d": 109.75612499998533,
      "v": 66
    },
    {
      "midi": 63,
      "hit": false,
      "t": 261122.0164999997,
      "d": 150.40654166665627,
      "v": 42
    },
    {
      "midi": 51,
      "hit": false,
      "t": 261122.0164999997,
      "d": 292.68299999999,
      "v": 56
    },
    {
      "midi": 63,
      "hit": false,
      "t": 261353.7238749997,
      "d": 73.17074999999022,
      "v": 15
    },
    {
      "midi": 68,
      "hit": false,
      "t": 261361.85395833303,
      "d": 117.88620833333698,
      "v": 62
    },
    {
      "midi": 59,
      "hit": false,
      "t": 261369.98404166635,
      "d": 60.975625000020955,
      "v": 58
    },
    {
      "midi": 64,
      "hit": false,
      "t": 261382.17916666635,
      "d": 60.975625000020955,
      "v": 60
    },
    {
      "midi": 53,
      "hit": false,
      "t": 261398.43933333302,
      "d": 89.43091666666442,
      "v": 59
    },
    {
      "midi": 62,
      "hit": false,
      "t": 261695.1873749997,
      "d": 256.0976249999949,
      "v": 51
    },
    {
      "midi": 65,
      "hit": false,
      "t": 261699.25241666636,
      "d": 223.5772916666465,
      "v": 60
    },
    {
      "midi": 72,
      "hit": false,
      "t": 261699.25241666636,
      "d": 264.2277083333174,
      "v": 54
    },
    {
      "midi": 69,
      "hit": false,
      "t": 261703.31745833304,
      "d": 243.9024999999674,
      "v": 60
    },
    {
      "midi": 57,
      "hit": false,
      "t": 261711.44754166636,
      "d": 341.4635000000126,
      "v": 62
    },
    {
      "midi": 70,
      "hit": false,
      "t": 262036.6508749997,
      "d": 81.30083333334187,
      "v": 55
    },
    {
      "midi": 62,
      "hit": false,
      "t": 262040.71591666638,
      "d": 89.43091666666442,
      "v": 46
    },
    {
      "midi": 65,
      "hit": false,
      "t": 262056.97608333305,
      "d": 36.58537499999511,
      "v": 28
    },
    {
      "midi": 55,
      "hit": false,
      "t": 262069.17120833305,
      "d": 191.0569583332981,
      "v": 48
    },
    {
      "midi": 58,
      "hit": false,
      "t": 262349.65908333304,
      "d": 548.7806250000722,
      "v": 56
    },
    {
      "midi": 62,
      "hit": false,
      "t": 262357.7891666664,
      "d": 524.3903750000754,
      "v": 41
    },
    {
      "midi": 53,
      "hit": false,
      "t": 262365.91924999974,
      "d": 471.54483333340613,
      "v": 46
    },
    {
      "midi": 65,
      "hit": false,
      "t": 262369.9842916664,
      "d": 556.9107083333656,
      "v": 45
    },
    {
      "midi": 70,
      "hit": false,
      "t": 263243.9682499998,
      "d": 93.49595833331114,
      "v": 74
    },
    {
      "midi": 58,
      "hit": false,
      "t": 263447.2203333331,
      "d": 508.13020833337214,
      "v": 48
    },
    {
      "midi": 69,
      "hit": false,
      "t": 263451.2853749998,
      "d": 654.4717083334108,
      "v": 55
    },
    {
      "midi": 48,
      "hit": false,
      "t": 263451.2853749998,
      "d": 1077.2360416668234,
      "v": 49
    },
    {
      "midi": 61,
      "hit": false,
      "t": 263455.3504166665,
      "d": 613.8212916667107,
      "v": 49
    },
    {
      "midi": 64,
      "hit": false,
      "t": 263467.5455416665,
      "d": 544.7155833333381,
      "v": 45
    },
    {
      "midi": 57,
      "hit": false,
      "t": 263491.9357916665,
      "d": 463.4147499999963,
      "v": 24
    },
    {
      "midi": 68,
      "hit": false,
      "t": 263951.2854999998,
      "d": 174.79679166671121,
      "v": 9
    },
    {
      "midi": 67,
      "hit": false,
      "t": 264239.9034583332,
      "d": 747.9676666666637,
      "v": 44
    },
    {
      "midi": 61,
      "hit": false,
      "t": 264248.0335416666,
      "d": 613.8212916666525,
      "v": 44
    },
    {
      "midi": 55,
      "hit": false,
      "t": 264252.09858333325,
      "d": 349.5935833333642,
      "v": 52
    },
    {
      "midi": 64,
      "hit": false,
      "t": 264256.1636249999,
      "d": 540.6505416666623,
      "v": 48
    },
    {
      "midi": 58,
      "hit": false,
      "t": 264260.2286666666,
      "d": 487.804999999993,
      "v": 29
    },
    {
      "midi": 54,
      "hit": false,
      "t": 264268.35874999996,
      "d": 81.30083333334187,
      "v": 9
    },
    {
      "midi": 41,
      "hit": false,
      "t": 265317.1394999999,
      "d": 430.8944166666479,
      "v": 26
    },
    {
      "midi": 48,
      "hit": false,
      "t": 265333.3996666665,
      "d": 459.34970833332045,
      "v": 29
    },
    {
      "midi": 69,
      "hit": false,
      "t": 265357.7899166665,
      "d": 215.44720833335305,
      "v": 41
    },
    {
      "midi": 62,
      "hit": false,
      "t": 265361.8549583332,
      "d": 162.60166666668374,
      "v": 45
    },
    {
      "midi": 57,
      "hit": false,
      "t": 265361.8549583332,
      "d": 495.93508333328646,
      "v": 44
    },
    {
      "midi": 81,
      "hit": false,
      "t": 266170.7982499998,
      "d": 886.1790833335253,
      "v": 56
    },
    {
      "midi": 74,
      "hit": false,
      "t": 266182.99337499985,
      "d": 678.861958333524,
      "v": 50
    },
    {
      "midi": 64,
      "hit": false,
      "t": 266195.1884999999,
      "d": 585.3660000000964,
      "v": 30
    },
    {
      "midi": 69,
      "hit": false,
      "t": 266199.25354166655,
      "d": 638.2115416668239,
      "v": 40
    },
    {
      "midi": 60,
      "hit": false,
      "t": 266207.3836249999,
      "d": 528.4554166667513,
      "v": 32
    },
    {
      "midi": 57,
      "hit": false,
      "t": 266215.51370833325,
      "d": 577.2359166667447,
      "v": 33
    },
    {
      "midi": 53,
      "hit": false,
      "t": 266227.7088333333,
      "d": 597.5611250000657,
      "v": 34
    },
    {
      "midi": 76,
      "hit": false,
      "t": 266439.09099999996,
      "d": 650.406666666735,
      "v": 53
    },
    {
      "midi": 69,
      "hit": false,
      "t": 267158.603375,
      "d": 491.87004166672705,
      "v": 45
    },
    {
      "midi": 62,
      "hit": false,
      "t": 267166.73345833336,
      "d": 605.6912083333591,
      "v": 31
    },
    {
      "midi": 58,
      "hit": false,
      "t": 267170.79850000003,
      "d": 601.6261666666833,
      "v": 32
    },
    {
      "midi": 74,
      "hit": false,
      "t": 267174.8635416667,
      "d": 520.3253333333414,
      "v": 34
    },
    {
      "midi": 57,
      "hit": false,
      "t": 267178.9285833334,
      "d": 552.8456666666898,
      "v": 29
    },
    {
      "midi": 52,
      "hit": false,
      "t": 267219.5790000001,
      "d": 487.804999999993,
      "v": 48
    },
    {
      "midi": 84,
      "hit": false,
      "t": 267825.2702083334,
      "d": 121.9512499999837,
      "v": 62
    },
    {
      "midi": 73,
      "hit": false,
      "t": 268195.189,
      "d": 666.66683333338,
      "v": 69
    },
    {
      "midi": 66,
      "hit": false,
      "t": 268219.57925,
      "d": 540.6505416667205,
      "v": 58
    },
    {
      "midi": 61,
      "hit": false,
      "t": 268231.77437500004,
      "d": 605.6912083333591,
      "v": 55
    },
    {
      "midi": 55,
      "hit": false,
      "t": 268243.96950000006,
      "d": 556.9107083333074,
      "v": 49
    },
    {
      "midi": 72,
      "hit": false,
      "t": 268975.6770000001,
      "d": 93.49595833331114,
      "v": 46
    },
    {
      "midi": 70,
      "hit": false,
      "t": 269138.2786666667,
      "d": 28.455291666672565,
      "v": 27
    },
    {
      "midi": 69,
      "hit": false,
      "t": 269199.25429166673,
      "d": 28.455291666672565,
      "v": 45
    },
    {
      "midi": 60,
      "hit": false,
      "t": 269280.5551250001,
      "d": 516.2602916667238,
      "v": 34
    },
    {
      "midi": 57,
      "hit": false,
      "t": 269284.62016666675,
      "d": 943.089666666754,
      "v": 34
    },
    {
      "midi": 76,
      "hit": false,
      "t": 269288.6852083334,
      "d": 601.6261666666833,
      "v": 60
    },
    {
      "midi": 50,
      "hit": false,
      "t": 269288.6852083334,
      "d": 1479.6751666667988,
      "v": 32
    },
    {
      "midi": 53,
      "hit": false,
      "t": 269300.88033333345,
      "d": 833.3335416666814,
      "v": 35
    },
    {
      "midi": 61,
      "hit": false,
      "t": 270077.3032916668,
      "d": 154.4715833333903,
      "v": 51
    },
    {
      "midi": 74,
      "hit": false,
      "t": 270081.36833333346,
      "d": 215.44720833335305,
      "v": 53
    },
    {
      "midi": 65,
      "hit": false,
      "t": 270117.9537083335,
      "d": 105.69108333333861,
      "v": 27
    },
    {
      "midi": 65,
      "hit": false,
      "t": 270317.1407500002,
      "d": 609.7562500000349,
      "v": 31
    },
    {
      "midi": 60,
      "hit": false,
      "t": 270325.27083333355,
      "d": 491.87004166666884,
      "v": 32
    },
    {
      "midi": 69,
      "hit": false,
      "t": 270329.3358750002,
      "d": 605.6912083333591,
      "v": 42
    },
    {
      "midi": 72,
      "hit": false,
      "t": 271239.90520833357,
      "d": 552.8456666666316,
      "v": 82
    },
    {
      "midi": 58,
      "hit": false,
      "t": 271248.0352916669,
      "d": 882.1140416666167,
      "v": 35
    },
    {
      "midi": 60,
      "hit": false,
      "t": 271268.36050000024,
      "d": 817.0733749999781,
      "v": 57
    },
    {
      "midi": 65,
      "hit": false,
      "t": 271284.6206666669,
      "d": 715.4473333333153,
      "v": 67
    },
    {
      "midi": 69,
      "hit": false,
      "t": 271288.68570833356,
      "d": 471.5448333333479,
      "v": 62
    },
    {
      "midi": 62,
      "hit": false,
      "t": 271313.07595833356,
      "d": 463.4147499999963,
      "v": 65
    },
    {
      "midi": 70,
      "hit": false,
      "t": 272052.9135416669,
      "d": 524.390374999959,
      "v": 71
    },
    {
      "midi": 62,
      "hit": false,
      "t": 272378.1168750002,
      "d": 195.12199999997392,
      "v": 57
    },
    {
      "midi": 62,
      "hit": false,
      "t": 272727.7104583335,
      "d": 105.69108333333861,
      "v": 43
    },
    {
      "midi": 60,
      "hit": false,
      "t": 273073.2390000002,
      "d": 158.53662500000792,
      "v": 37
    },
    {
      "midi": 64,
      "hit": false,
      "t": 273077.30404166685,
      "d": 182.92687500000466,
      "v": 44
    },
    {
      "midi": 56,
      "hit": false,
      "t": 273085.4341250002,
      "d": 495.93508333334466,
      "v": 27
    },
    {
      "midi": 46,
      "hit": false,
      "t": 273101.69429166685,
      "d": 422.76433333335444,
      "v": 29
    },
    {
      "midi": 67,
      "hit": false,
      "t": 274142.34495833353,
      "d": 430.8944166667061,
      "v": 35
    },
    {
      "midi": 56,
      "hit": false,
      "t": 274154.54008333356,
      "d": 569.1058333333349,
      "v": 32
    },
    {
      "midi": 62,
      "hit": false,
      "t": 274166.7352083336,
      "d": 414.6342500000028,
      "v": 33
    },
    {
      "midi": 76,
      "hit": false,
      "t": 275430.9631666669,
      "d": 154.4715833333321,
      "v": 80
    },
    {
      "midi": 64,
      "hit": false,
      "t": 275435.0282083336,
      "d": 81.30083333334187,
      "v": 72
    },
    {
      "midi": 77,
      "hit": false,
      "t": 276069.17470833356,
      "d": 451.2196250000852,
      "v": 80
    },
    {
      "midi": 72,
      "hit": false,
      "t": 276097.63000000024,
      "d": 398.3740833334159,
      "v": 74
    },
    {
      "midi": 69,
      "hit": false,
      "t": 276105.7600833336,
      "d": 378.0488750000368,
      "v": 75
    },
    {
      "midi": 55,
      "hit": false,
      "t": 276105.7600833336,
      "d": 426.8293750000885,
      "v": 61
    },
    {
      "midi": 61,
      "hit": false,
      "t": 276105.7600833336,
      "d": 479.6749166667578,
      "v": 58
    },
    {
      "midi": 76,
      "hit": false,
      "t": 276109.82512500026,
      "d": 414.634250000061,
      "v": 53
    },
    {
      "midi": 66,
      "hit": false,
      "t": 276126.08529166697,
      "d": 373.98383333336096,
      "v": 58
    },
    {
      "midi": 65,
      "hit": false,
      "t": 276154.54058333364,
      "d": 304.87812499998836,
      "v": 36
    },
    {
      "midi": 79,
      "hit": false,
      "t": 276792.75212500035,
      "d": 211.38216666667722,
      "v": 62
    },
    {
      "midi": 76,
      "hit": false,
      "t": 276821.207416667,
      "d": 170.73174999997718,
      "v": 62
    },
    {
      "midi": 72,
      "hit": false,
      "t": 276841.53262500034,
      "d": 101.62604166666279,
      "v": 58
    },
    {
      "midi": 67,
      "hit": false,
      "t": 276865.92287500034,
      "d": 56.91058333334513,
      "v": 33
    },
    {
      "midi": 81,
      "hit": false,
      "t": 277105.7603333337,
      "d": 995.9352083333652,
      "v": 68
    },
    {
      "midi": 77,
      "hit": false,
      "t": 277134.21562500036,
      "d": 1024.3905000000377,
      "v": 56
    },
    {
      "midi": 74,
      "hit": false,
      "t": 277158.60587500036,
      "d": 1069.1059583333554,
      "v": 51
    },
    {
      "midi": 50,
      "hit": false,
      "t": 277158.60587500036,
      "d": 1126.0165416667005,
      "v": 35
    },
    {
      "midi": 57,
      "hit": false,
      "t": 277162.67091666703,
      "d": 536.5855000000447,
      "v": 29
    },
    {
      "midi": 60,
      "hit": false,
      "t": 277162.67091666703,
      "d": 1186.9921666666633,
      "v": 37
    },
    {
      "midi": 53,
      "hit": false,
      "t": 277174.86604166706,
      "d": 1077.2360416666488,
      "v": 34
    },
    {
      "midi": 69,
      "hit": false,
      "t": 277195.1912500004,
      "d": 967.4799166666926,
      "v": 32
    },
    {
      "midi": 71,
      "hit": false,
      "t": 279020.3949583337,
      "d": 130.08133333333535,
      "v": 70
    },
    {
      "midi": 73,
      "hit": false,
      "t": 279020.3949583337,
      "d": 138.211416666687,
      "v": 55
    },
    {
      "midi": 63,
      "hit": false,
      "t": 279032.5900833337,
      "d": 1483.7402083333582,
      "v": 36
    },
    {
      "midi": 59,
      "hit": false,
      "t": 279048.85025000037,
      "d": 1386.1792083333712,
      "v": 38
    },
    {
      "midi": 53,
      "hit": false,
      "t": 279056.9803333337,
      "d": 1398.3743333333405,
      "v": 35
    },
    {
      "midi": 69,
      "hit": false,
      "t": 279166.73645833373,
      "d": 85.3658750000177,
      "v": 45
    },
    {
      "midi": 71,
      "hit": false,
      "t": 279325.27308333374,
      "d": 121.9512499999837,
      "v": 54
    },
    {
      "midi": 73,
      "hit": false,
      "t": 279325.27308333374,
      "d": 126.01629166665953,
      "v": 59
    },
    {
      "midi": 69,
      "hit": false,
      "t": 279504.13491666707,
      "d": 65.04066666663857,
      "v": 28
    },
    {
      "midi": 73,
      "hit": false,
      "t": 279638.281291667,
      "d": 117.88620833336608,
      "v": 42
    },
    {
      "midi": 71,
      "hit": false,
      "t": 279642.3463333337,
      "d": 101.62604166666279,
      "v": 36
    },
    {
      "midi": 69,
      "hit": false,
      "t": 279792.7528750004,
      "d": 126.01629166665953,
      "v": 32
    },
    {
      "midi": 73,
      "hit": false,
      "t": 279971.61470833374,
      "d": 991.8701666666893,
      "v": 46
    },
    {
      "midi": 71,
      "hit": false,
      "t": 279987.8748750004,
      "d": 902.439250000054,
      "v": 36
    },
    {
      "midi": 56,
      "hit": false,
      "t": 280963.48487500043,
      "d": 1849.593958333542,
      "v": 33
    },
    {
      "midi": 67,
      "hit": false,
      "t": 280975.68000000046,
      "d": 597.5611250000657,
      "v": 28
    },
    {
      "midi": 62,
      "hit": false,
      "t": 280979.74504166713,
      "d": 1585.3662500001956,
      "v": 34
    },
    {
      "midi": 74,
      "hit": false,
      "t": 281455.35491666716,
      "d": 130.08133333339356,
      "v": 47
    },
    {
      "midi": 70,
      "hit": false,
      "t": 281467.5500416672,
      "d": 113.82116666669026,
      "v": 38
    },
    {
      "midi": 72,
      "hit": false,
      "t": 281471.61508333386,
      "d": 101.62604166666279,
      "v": 36
    },
    {
      "midi": 68,
      "hit": false,
      "t": 281609.82650000055,
      "d": 81.30083333334187,
      "v": 46
    },
    {
      "midi": 70,
      "hit": false,
      "t": 281748.03791666724,
      "d": 146.34150000003865,
      "v": 61
    },
    {
      "midi": 74,
      "hit": false,
      "t": 281756.1680000006,
      "d": 130.08133333333535,
      "v": 66
    },
    {
      "midi": 72,
      "hit": false,
      "t": 281760.23304166726,
      "d": 126.01629166665953,
      "v": 55
    },
    {
      "midi": 68,
      "hit": false,
      "t": 281890.3143750006,
      "d": 73.17074999999022,
      "v": 47
    },
    {
      "midi": 70,
      "hit": false,
      "t": 282032.5908333339,
      "d": 142.27645833336283,
      "v": 56
    },
    {
      "midi": 74,
      "hit": false,
      "t": 282036.6558750006,
      "d": 117.88620833336608,
      "v": 58
    },
    {
      "midi": 72,
      "hit": false,
      "t": 282048.8510000006,
      "d": 109.75612500001444,
      "v": 53
    },
    {
      "midi": 68,
      "hit": false,
      "t": 282187.0624166673,
      "d": 81.30083333334187,
      "v": 55
    },
    {
      "midi": 70,
      "hit": false,
      "t": 282365.9242500006,
      "d": 426.82937500003027,
      "v": 47
    },
    {
      "midi": 74,
      "hit": false,
      "t": 282365.9242500006,
      "d": 524.3903750000172,
      "v": 48
    },
    {
      "midi": 72,
      "hit": false,
      "t": 282378.11937500065,
      "d": 231.70737499999814,
      "v": 44
    },
    {
      "midi": 73,
      "hit": false,
      "t": 282943.1601666673,
      "d": 487.8050000000512,
      "v": 42
    },
    {
      "midi": 61,
      "hit": false,
      "t": 282951.29025000066,
      "d": 430.8944166667061,
      "v": 34
    },
    {
      "midi": 64,
      "hit": false,
      "t": 282955.35529166734,
      "d": 390.24400000000605,
      "v": 26
    },
    {
      "midi": 55,
      "hit": false,
      "t": 282955.35529166734,
      "d": 475.60987500002375,
      "v": 33
    },
    {
      "midi": 69,
      "hit": false,
      "t": 282959.420333334,
      "d": 418.6992916666786,
      "v": 25
    },
    {
      "midi": 50,
      "hit": false,
      "t": 283768.3636250007,
      "d": 170.7317500000354,
      "v": 55
    },
    {
      "midi": 62,
      "hit": false,
      "t": 283772.4286666674,
      "d": 89.43091666669352,
      "v": 67
    },
    {
      "midi": 74,
      "hit": false,
      "t": 283772.4286666674,
      "d": 93.49595833336934,
      "v": 62
    },
    {
      "midi": 64,
      "hit": false,
      "t": 283955.3555416674,
      "d": 288.61795833334327,
      "v": 80
    },
    {
      "midi": 76,
      "hit": false,
      "t": 283959.42058333405,
      "d": 300.81308333331253,
      "v": 82
    },
    {
      "midi": 52,
      "hit": false,
      "t": 283959.42058333405,
      "d": 471.5448333332897,
      "v": 87
    },
    {
      "midi": 53,
      "hit": false,
      "t": 284406.57516666735,
      "d": 69.1057083333144,
      "v": 71
    },
    {
      "midi": 65,
      "hit": false,
      "t": 284410.640208334,
      "d": 150.40654166659806,
      "v": 79
    },
    {
      "midi": 77,
      "hit": false,
      "t": 284410.640208334,
      "d": 195.12199999991572,
      "v": 79
    },
    {
      "midi": 57,
      "hit": false,
      "t": 284882.18504166725,
      "d": 1422.7645833333954,
      "v": 53
    },
    {
      "midi": 58,
      "hit": false,
      "t": 284902.5102500006,
      "d": 626.01641666668,
      "v": 69
    },
    {
      "midi": 77,
      "hit": false,
      "t": 284902.5102500006,
      "d": 951.2197500000475,
      "v": 76
    },
    {
      "midi": 81,
      "hit": false,
      "t": 284902.5102500006,
      "d": 1077.2360416667652,
      "v": 88
    },
    {
      "midi": 52,
      "hit": false,
      "t": 284902.5102500006,
      "d": 1349.5938333334052,
      "v": 64
    },
    {
      "midi": 74,
      "hit": false,
      "t": 284906.57529166725,
      "d": 727.6424583333428,
      "v": 81
    },
    {
      "midi": 69,
      "hit": false,
      "t": 284922.8354583339,
      "d": 739.8375833333703,
      "v": 75
    },
    {
      "midi": 62,
      "hit": false,
      "t": 284926.9005000006,
      "d": 658.5367500000284,
      "v": 75
    },
    {
      "midi": 62,
      "hit": false,
      "t": 285853.7300000006,
      "d": 524.3903750000172,
      "v": 26
    },
    {
      "midi": 69,
      "hit": false,
      "t": 285853.7300000006,
      "d": 686.992041666701,
      "v": 44
    },
    {
      "midi": 58,
      "hit": false,
      "t": 285865.92512500065,
      "d": 487.804999999993,
      "v": 27
    },
    {
      "midi": 74,
      "hit": false,
      "t": 285869.9901666673,
      "d": 699.1871666666702,
      "v": 36
    },
    {
      "midi": 79,
      "hit": false,
      "t": 286703.323708334,
      "d": 105.69108333333861,
      "v": 60
    },
    {
      "midi": 77,
      "hit": false,
      "t": 286869.99041666737,
      "d": 491.87004166672705,
      "v": 46
    },
    {
      "midi": 69,
      "hit": false,
      "t": 286878.1205000007,
      "d": 369.91879166668514,
      "v": 38
    },
    {
      "midi": 72,
      "hit": false,
      "t": 286886.25058333407,
      "d": 418.6992916666786,
      "v": 36
    },
    {
      "midi": 66,
      "hit": false,
      "t": 286886.25058333407,
      "d": 443.08954166667536,
      "v": 35
    },
    {
      "midi": 61,
      "hit": false,
      "t": 286890.31562500075,
      "d": 491.87004166666884,
      "v": 35
    },
    {
      "midi": 55,
      "hit": false,
      "t": 286894.3806666674,
      "d": 426.82937499997206,
      "v": 44
    },
    {
      "midi": 61,
      "hit": false,
      "t": 287788.68983333407,
      "d": 296.74804166681133,
      "v": 54
    },
    {
      "midi": 55,
      "hit": false,
      "t": 287792.75487500074,
      "d": 247.96754166675964,
      "v": 68
    },
    {
      "midi": 88,
      "hit": false,
      "t": 287796.8199166674,
      "d": 227.64233333338052,
      "v": 84
    },
    {
      "midi": 64,
      "hit": false,
      "t": 287796.8199166674,
      "d": 256.0976250001113,
      "v": 60
    },
    {
      "midi": 76,
      "hit": false,
      "t": 287804.95000000077,
      "d": 223.5772916667047,
      "v": 74
    },
    {
      "midi": 83,
      "hit": false,
      "t": 287809.01504166744,
      "d": 211.38216666667722,
      "v": 69
    },
    {
      "midi": 61,
      "hit": false,
      "t": 288162.67366666754,
      "d": 130.08133333339356,
      "v": 45
    },
    {
      "midi": 86,
      "hit": false,
      "t": 288162.67366666754,
      "d": 138.2114166667452,
      "v": 55
    },
    {
      "midi": 55,
      "hit": false,
      "t": 288166.7387083342,
      "d": 105.69108333339682,
      "v": 60
    },
    {
      "midi": 64,
      "hit": false,
      "t": 288178.93383333425,
      "d": 73.17074999999022,
      "v": 48
    },
    {
      "midi": 74,
      "hit": false,
      "t": 288178.93383333425,
      "d": 73.17074999999022,
      "v": 50
    },
    {
      "midi": 81,
      "hit": false,
      "t": 288178.93383333425,
      "d": 97.56100000004517,
      "v": 61
    },
    {
      "midi": 61,
      "hit": false,
      "t": 288487.87700000097,
      "d": 60.97562500007916,
      "v": 51
    },
    {
      "midi": 55,
      "hit": false,
      "t": 288491.94204166764,
      "d": 36.585375000024214,
      "v": 54
    },
    {
      "midi": 88,
      "hit": false,
      "t": 288496.0070833343,
      "d": 113.82116666669026,
      "v": 46
    },
    {
      "midi": 76,
      "hit": false,
      "t": 288500.072125001,
      "d": 77.23579166672425,
      "v": 45
    },
    {
      "midi": 64,
      "hit": false,
      "t": 288504.1371666677,
      "d": 36.585375000024214,
      "v": 29
    },
    {
      "midi": 83,
      "hit": false,
      "t": 288504.1371666677,
      "d": 89.43091666669352,
      "v": 49
    },
    {
      "midi": 50,
      "hit": false,
      "t": 288813.08033333434,
      "d": 646.3416250000591,
      "v": 35
    },
    {
      "midi": 60,
      "hit": false,
      "t": 288813.08033333434,
      "d": 686.992041666701,
      "v": 42
    },
    {
      "midi": 89,
      "hit": false,
      "t": 288817.145375001,
      "d": 252.03258333337726,
      "v": 44
    },
    {
      "midi": 77,
      "hit": false,
      "t": 288821.2104166677,
      "d": 369.91879166668514,
      "v": 35
    },
    {
      "midi": 57,
      "hit": false,
      "t": 288821.2104166677,
      "d": 638.2115416667075,
      "v": 36
    },
    {
      "midi": 84,
      "hit": false,
      "t": 288825.27545833436,
      "d": 284.55291666666744,
      "v": 53
    },
    {
      "midi": 53,
      "hit": false,
      "t": 288825.27545833436,
      "d": 601.6261666666833,
      "v": 56
    },
    {
      "midi": 69,
      "hit": false,
      "t": 289910.6415833344,
      "d": 89.43091666663531,
      "v": 67
    },
    {
      "midi": 76,
      "hit": false,
      "t": 289910.6415833344,
      "d": 130.08133333327714,
      "v": 66
    },
    {
      "midi": 61,
      "hit": false,
      "t": 289910.6415833344,
      "d": 178.86183333332883,
      "v": 58
    },
    {
      "midi": 73,
      "hit": false,
      "t": 289926.90175000107,
      "d": 117.88620833330788,
      "v": 56
    },
    {
      "midi": 64,
      "hit": false,
      "t": 290081.3733333344,
      "d": 101.626041666721,
      "v": 64
    },
    {
      "midi": 79,
      "hit": false,
      "t": 290081.3733333344,
      "d": 113.82116666674847,
      "v": 81
    },
    {
      "midi": 69,
      "hit": false,
      "t": 290089.50341666775,
      "d": 105.69108333339682,
      "v": 61
    },
    {
      "midi": 73,
      "hit": false,
      "t": 290089.50341666775,
      "d": 121.95125000004191,
      "v": 56
    },
    {
      "midi": 77,
      "hit": false,
      "t": 290268.36525000114,
      "d": 203.25208333338378,
      "v": 80
    },
    {
      "midi": 69,
      "hit": false,
      "t": 290272.4302916678,
      "d": 195.12200000003213,
      "v": 71
    },
    {
      "midi": 62,
      "hit": false,
      "t": 290272.4302916678,
      "d": 223.5772916667047,
      "v": 66
    },
    {
      "midi": 72,
      "hit": false,
      "t": 290577.30841666786,
      "d": 142.27645833336283,
      "v": 59
    },
    {
      "midi": 65,
      "hit": false,
      "t": 290593.5685833345,
      "d": 158.53662500006612,
      "v": 55
    },
    {
      "midi": 60,
      "hit": false,
      "t": 290597.6336250012,
      "d": 231.70737500005635,
      "v": 56
    },
    {
      "midi": 69,
      "hit": false,
      "t": 290613.8937916679,
      "d": 101.62604166666279,
      "v": 53
    },
    {
      "midi": 69,
      "hit": false,
      "t": 290898.44670833455,
      "d": 121.9512499999837,
      "v": 52
    },
    {
      "midi": 66,
      "hit": false,
      "t": 290906.5767916679,
      "d": 146.34149999998044,
      "v": 43
    },
    {
      "midi": 64,
      "hit": false,
      "t": 290910.6418333346,
      "d": 166.66670833330136,
      "v": 34
    },
    {
      "midi": 57,
      "hit": false,
      "t": 290926.9020000012,
      "d": 272.35779166663997,
      "v": 41
    },
    {
      "midi": 66,
      "hit": false,
      "t": 291231.7801250012,
      "d": 154.4715833334485,
      "v": 46
    },
    {
      "midi": 60,
      "hit": false,
      "t": 291239.91020833456,
      "d": 191.0569583334145,
      "v": 31
    },
    {
      "midi": 54,
      "hit": false,
      "t": 291252.1053333346,
      "d": 77.23579166672425,
      "v": 45
    },
    {
      "midi": 64,
      "hit": false,
      "t": 291264.3004583346,
      "d": 89.43091666669352,
      "v": 28
    },
    {
      "midi": 50,
      "hit": false,
      "t": 291593.56883333466,
      "d": 731.7074999999604,
      "v": 48
    },
    {
      "midi": 65,
      "hit": false,
      "t": 291646.41437500133,
      "d": 174.796791666653,
      "v": 12
    },
    {
      "midi": 54,
      "hit": false,
      "t": 291874.05670833465,
      "d": 211.38216666667722,
      "v": 35
    },
    {
      "midi": 60,
      "hit": false,
      "t": 291906.577041668,
      "d": 121.9512499999837,
      "v": 46
    },
    {
      "midi": 62,
      "hit": false,
      "t": 291930.967291668,
      "d": 48.78049999999348,
      "v": 16
    },
    {
      "midi": 54,
      "hit": false,
      "t": 292203.32508333464,
      "d": 182.92687500000466,
      "v": 27
    },
    {
      "midi": 61,
      "hit": false,
      "t": 292219.5852500013,
      "d": 186.99191666668048,
      "v": 37
    },
    {
      "midi": 44,
      "hit": false,
      "t": 292235.84541666793,
      "d": 219.51225000002887,
      "v": 34
    },
    {
      "midi": 58,
      "hit": false,
      "t": 292239.9104583346,
      "d": 170.7317500000354,
      "v": 31
    },
    {
      "midi": 60,
      "hit": false,
      "t": 292565.113791668,
      "d": 150.40654166665627,
      "v": 49
    },
    {
      "midi": 43,
      "hit": false,
      "t": 292585.4390000013,
      "d": 174.79679166671121,
      "v": 41
    },
    {
      "midi": 57,
      "hit": false,
      "t": 292589.50404166797,
      "d": 101.62604166666279,
      "v": 34
    },
    {
      "midi": 53,
      "hit": false,
      "t": 292593.56908333465,
      "d": 77.23579166666605,
      "v": 29
    },
    {
      "midi": 50,
      "hit": false,
      "t": 292597.6341250013,
      "d": 158.53662500000792,
      "v": 28
    },
    {
      "midi": 84,
      "hit": false,
      "t": 293398.44733333465,
      "d": 40.65041666675825,
      "v": 67
    },
    {
      "midi": 72,
      "hit": false,
      "t": 293410.6424583347,
      "d": 32.5203333334066,
      "v": 47
    },
    {
      "midi": 62,
      "hit": false,
      "t": 293410.6424583347,
      "d": 48.78050000005169,
      "v": 55
    },
    {
      "midi": 58,
      "hit": false,
      "t": 293422.8375833347,
      "d": 60.975625000020955,
      "v": 36
    },
    {
      "midi": 60,
      "hit": false,
      "t": 293430.96766666806,
      "d": 28.455291666672565,
      "v": 41
    },
    {
      "midi": 84,
      "hit": false,
      "t": 293528.52866666805,
      "d": 81.30083333345829,
      "v": 65
    },
    {
      "midi": 72,
      "hit": false,
      "t": 293532.5937083347,
      "d": 69.10570833343081,
      "v": 48
    },
    {
      "midi": 58,
      "hit": false,
      "t": 293536.6587500014,
      "d": 93.49595833342755,
      "v": 27
    },
    {
      "midi": 62,
      "hit": false,
      "t": 293540.7237916681,
      "d": 65.04066666675499,
      "v": 59
    },
    {
      "midi": 60,
      "hit": false,
      "t": 293548.8538750014,
      "d": 36.585375000024214,
      "v": 40
    },
    {
      "midi": 77,
      "hit": false,
      "t": 293548.8538750014,
      "d": 36.585375000024214,
      "v": 48
    },
    {
      "midi": 81,
      "hit": false,
      "t": 293552.9189166681,
      "d": 40.65041666670004,
      "v": 36
    },
    {
      "midi": 84,
      "hit": false,
      "t": 293695.19537500147,
      "d": 154.4715833333903,
      "v": 78
    },
    {
      "midi": 72,
      "hit": false,
      "t": 293707.3905000015,
      "d": 138.211416666687,
      "v": 77
    },
    {
      "midi": 62,
      "hit": false,
      "t": 293707.3905000015,
      "d": 158.53662500006612,
      "v": 72
    },
    {
      "midi": 58,
      "hit": false,
      "t": 293707.3905000015,
      "d": 308.9431666667224,
      "v": 71
    },
    {
      "midi": 77,
      "hit": false,
      "t": 293711.45554166817,
      "d": 126.01629166665953,
      "v": 78
    },
    {
      "midi": 60,
      "hit": false,
      "t": 293711.45554166817,
      "d": 150.40654166671447,
      "v": 80
    },
    {
      "midi": 81,
      "hit": false,
      "t": 293715.52058333484,
      "d": 146.34150000003865,
      "v": 72
    },
    {
      "midi": 62,
      "hit": false,
      "t": 293890.31737500156,
      "d": 109.75612500001444,
      "v": 48
    },
    {
      "midi": 84,
      "hit": false,
      "t": 293890.31737500156,
      "d": 109.75612500001444,
      "v": 58
    },
    {
      "midi": 72,
      "hit": false,
      "t": 293906.5775416682,
      "d": 69.1057083333726,
      "v": 64
    },
    {
      "midi": 77,
      "hit": false,
      "t": 293906.5775416682,
      "d": 69.1057083333726,
      "v": 71
    },
    {
      "midi": 60,
      "hit": false,
      "t": 293906.5775416682,
      "d": 89.43091666669352,
      "v": 65
    },
    {
      "midi": 81,
      "hit": false,
      "t": 293914.70762500155,
      "d": 81.30083333334187,
      "v": 58
    },
    {
      "midi": 62,
      "hit": false,
      "t": 294223.6507916682,
      "d": 73.17075000010664,
      "v": 73
    },
    {
      "midi": 58,
      "hit": false,
      "t": 294223.6507916682,
      "d": 130.08133333350997,
      "v": 63
    },
    {
      "midi": 60,
      "hit": false,
      "t": 294227.7158333349,
      "d": 85.36587500013411,
      "v": 68
    },
    {
      "midi": 72,
      "hit": false,
      "t": 294235.84591666824,
      "d": 69.10570833343081,
      "v": 74
    },
    {
      "midi": 84,
      "hit": false,
      "t": 294235.84591666824,
      "d": 85.36587500013411,
      "v": 77
    },
    {
      "midi": 81,
      "hit": false,
      "t": 294243.9760000016,
      "d": 40.65041666670004,
      "v": 52
    },
    {
      "midi": 77,
      "hit": false,
      "t": 294248.0410416683,
      "d": 40.65041666670004,
      "v": 53
    },
    {
      "midi": 82,
      "hit": false,
      "t": 294536.65900000173,
      "d": 105.69108333345503,
      "v": 73
    },
    {
      "midi": 70,
      "hit": false,
      "t": 294544.7890833351,
      "d": 89.43091666675173,
      "v": 69
    },
    {
      "midi": 58,
      "hit": false,
      "t": 294548.85412500176,
      "d": 97.56100000010338,
      "v": 59
    },
    {
      "midi": 62,
      "hit": false,
      "t": 294556.9842083351,
      "d": 40.65041666670004,
      "v": 55
    },
    {
      "midi": 75,
      "hit": false,
      "t": 294565.11429166846,
      "d": 32.52033333334839,
      "v": 34
    },
    {
      "midi": 60,
      "hit": false,
      "t": 294569.17933333514,
      "d": 28.455291666672565,
      "v": 48
    },
    {
      "midi": 81,
      "hit": false,
      "t": 294809.01679166855,
      "d": 170.7317500000354,
      "v": 64
    },
    {
      "midi": 69,
      "hit": false,
      "t": 294813.0818333352,
      "d": 174.79679166671121,
      "v": 61
    },
    {
      "midi": 73,
      "hit": false,
      "t": 294825.27695833525,
      "d": 191.0569583334145,
      "v": 39
    },
    {
      "midi": 62,
      "hit": false,
      "t": 294829.3420000019,
      "d": 154.4715833333321,
      "v": 54
    },
    {
      "midi": 58,
      "hit": false,
      "t": 294829.3420000019,
      "d": 162.60166666668374,
      "v": 43
    },
    {
      "midi": 76,
      "hit": false,
      "t": 294833.4070416686,
      "d": 166.66670833335957,
      "v": 44
    },
    {
      "midi": 52,
      "hit": false,
      "t": 294833.4070416686,
      "d": 170.7317500000354,
      "v": 58
    },
    {
      "midi": 73,
      "hit": false,
      "t": 295138.2851666687,
      "d": 524.3903750000754,
      "v": 55
    },
    {
      "midi": 79,
      "hit": false,
      "t": 295146.41525000206,
      "d": 508.13020833337214,
      "v": 45
    },
    {
      "midi": 67,
      "hit": false,
      "t": 295154.5453333354,
      "d": 524.3903750000754,
      "v": 44
    },
    {
      "midi": 58,
      "hit": false,
      "t": 295154.5453333354,
      "d": 621.9513750001206,
      "v": 39
    },
    {
      "midi": 76,
      "hit": false,
      "t": 295158.6103750021,
      "d": 479.6749166666996,
      "v": 44
    },
    {
      "midi": 52,
      "hit": false,
      "t": 295158.6103750021,
      "d": 532.5204583334271,
      "v": 49
    },
    {
      "midi": 62,
      "hit": false,
      "t": 295166.74045833544,
      "d": 500.0001250000205,
      "v": 39
    },
    {
      "midi": 73,
      "hit": false,
      "t": 295918.77316666883,
      "d": 105.69108333345503,
      "v": 30
    },
    {
      "midi": 77,
      "hit": false,
      "t": 295922.8382083355,
      "d": 138.2114166667452,
      "v": 36
    },
    {
      "midi": 65,
      "hit": false,
      "t": 295935.03333333554,
      "d": 85.3658750000759,
      "v": 35
    },
    {
      "midi": 52,
      "hit": false,
      "t": 295935.03333333554,
      "d": 105.69108333339682,
      "v": 37
    },
    {
      "midi": 58,
      "hit": false,
      "t": 295935.03333333554,
      "d": 134.14637500006938,
      "v": 31
    },
    {
      "midi": 70,
      "hit": false,
      "t": 295939.0983750022,
      "d": 69.1057083333726,
      "v": 39
    },
    {
      "midi": 60,
      "hit": false,
      "t": 295947.22845833556,
      "d": 77.23579166672425,
      "v": 34
    },
    {
      "midi": 58,
      "hit": false,
      "t": 296239.91145833564,
      "d": 36.58537499996601,
      "v": 35
    },
    {
      "midi": 67,
      "hit": false,
      "t": 296260.23666666896,
      "d": 36.58537499996601,
      "v": 36
    },
    {
      "midi": 58,
      "hit": false,
      "t": 296374.0578333356,
      "d": 101.6260416667792,
      "v": 43
    },
    {
      "midi": 80,
      "hit": false,
      "t": 296382.18791666895,
      "d": 109.75612500007264,
      "v": 71
    },
    {
      "midi": 68,
      "hit": false,
      "t": 296386.2529583356,
      "d": 81.30083333340008,
      "v": 67
    },
    {
      "midi": 52,
      "hit": false,
      "t": 296390.3180000023,
      "d": 36.585375000024214,
      "v": 36
    },
    {
      "midi": 60,
      "hit": false,
      "t": 296390.3180000023,
      "d": 69.1057083333726,
      "v": 48
    },
    {
      "midi": 77,
      "hit": false,
      "t": 296573.24487500236,
      "d": 601.6261666667415,
      "v": 62
    },
    {
      "midi": 69,
      "hit": false,
      "t": 296577.30991666904,
      "d": 605.6912083334173,
      "v": 67
    },
    {
      "midi": 81,
      "hit": false,
      "t": 296581.3749583357,
      "d": 585.3660000000382,
      "v": 60
    },
    {
      "midi": 53,
      "hit": false,
      "t": 296581.3749583357,
      "d": 621.9513750001206,
      "v": 44
    },
    {
      "midi": 74,
      "hit": false,
      "t": 296581.3749583357,
      "d": 621.9513750001206,
      "v": 56
    },
    {
      "midi": 57,
      "hit": false,
      "t": 296585.4400000024,
      "d": 609.7562500000931,
      "v": 42
    },
    {
      "midi": 60,
      "hit": false,
      "t": 296589.50504166906,
      "d": 605.6912083334173,
      "v": 53
    },
    {
      "midi": 64,
      "hit": false,
      "t": 296589.50504166906,
      "d": 621.9513750001206,
      "v": 43
    },
    {
      "midi": 76,
      "hit": false,
      "t": 298410.6437083359,
      "d": 361.7887083333335,
      "v": 84
    },
    {
      "midi": 72,
      "hit": false,
      "t": 298414.70875000255,
      "d": 317.07325000001583,
      "v": 85
    },
    {
      "midi": 62,
      "hit": false,
      "t": 298430.9689166692,
      "d": 292.6830000000191,
      "v": 73
    },
    {
      "midi": 67,
      "hit": false,
      "t": 298435.0339583359,
      "d": 235.77241666667396,
      "v": 74
    },
    {
      "midi": 57,
      "hit": false,
      "t": 298439.09900000255,
      "d": 235.77241666667396,
      "v": 70
    },
    {
      "midi": 58,
      "hit": false,
      "t": 298874.0584583359,
      "d": 162.60166666668374,
      "v": 60
    },
    {
      "midi": 77,
      "hit": false,
      "t": 298882.1885416692,
      "d": 154.4715833333321,
      "v": 75
    },
    {
      "midi": 73,
      "hit": false,
      "t": 298890.3186250026,
      "d": 166.66670833335957,
      "v": 77
    },
    {
      "midi": 63,
      "hit": false,
      "t": 298894.38366666925,
      "d": 154.4715833333321,
      "v": 57
    },
    {
      "midi": 68,
      "hit": false,
      "t": 298902.5137500026,
      "d": 69.1057083333144,
      "v": 48
    },
    {
      "midi": 67,
      "hit": false,
      "t": 299105.7658333359,
      "d": 40.65041666670004,
      "v": 41
    },
    {
      "midi": 72,
      "hit": false,
      "t": 299113.8959166693,
      "d": 69.1057083333726,
      "v": 33
    },
    {
      "midi": 62,
      "hit": false,
      "t": 299122.02600000263,
      "d": 36.585375000024214,
      "v": 39
    },
    {
      "midi": 76,
      "hit": false,
      "t": 299126.0910416693,
      "d": 48.78049999999348,
      "v": 47
    },
    {
      "midi": 57,
      "hit": false,
      "t": 299130.156083336,
      "d": 48.78049999999348,
      "v": 30
    },
    {
      "midi": 70,
      "hit": false,
      "t": 299402.5138750027,
      "d": 73.17074999999022,
      "v": 59
    },
    {
      "midi": 74,
      "hit": false,
      "t": 299402.5138750027,
      "d": 97.56099999998696,
      "v": 57
    },
    {
      "midi": 60,
      "hit": false,
      "t": 299426.9041250027,
      "d": 32.52033333334839,
      "v": 28
    },
    {
      "midi": 61,
      "hit": false,
      "t": 299565.1155416693,
      "d": 52.84554166672751,
      "v": 51
    },
    {
      "midi": 76,
      "hit": false,
      "t": 299573.24562500266,
      "d": 475.6098750001984,
      "v": 62
    },
    {
      "midi": 72,
      "hit": false,
      "t": 299585.4407500027,
      "d": 178.86183333338704,
      "v": 60
    },
    {
      "midi": 65,
      "hit": false,
      "t": 299609.8310000027,
      "d": 32.52033333334839,
      "v": 31
    },
    {
      "midi": 70,
      "hit": false,
      "t": 300016.33516666945,
      "d": 207.3171250001178,
      "v": 56
    },
    {
      "midi": 62,
      "hit": false,
      "t": 300024.4652500028,
      "d": 48.78050000005169,
      "v": 38
    },
    {
      "midi": 58,
      "hit": false,
      "t": 300036.66037500283,
      "d": 73.17075000004843,
      "v": 30
    },
    {
      "midi": 65,
      "hit": false,
      "t": 300040.7254166695,
      "d": 211.38216666673543,
      "v": 40
    },
    {
      "midi": 52,
      "hit": false,
      "t": 300048.85550000286,
      "d": 65.04066666669678,
      "v": 29
    },
    {
      "midi": 69,
      "hit": false,
      "t": 300483.81495833624,
      "d": 483.7399583333754,
      "v": 45
    },
    {
      "midi": 65,
      "hit": false,
      "t": 300496.01008333627,
      "d": 516.2602916666656,
      "v": 35
    },
    {
      "midi": 57,
      "hit": false,
      "t": 300504.1401666696,
      "d": 808.9432916666847,
      "v": 27
    },
    {
      "midi": 60,
      "hit": false,
      "t": 300508.2052083363,
      "d": 516.2602916666656,
      "v": 29
    },
    {
      "midi": 50,
      "hit": false,
      "t": 301260.23791666963,
      "d": 93.49595833331114,
      "v": 61
    },
    {
      "midi": 76,
      "hit": false,
      "t": 301524.4656250029,
      "d": 235.77241666667396,
      "v": 87
    },
    {
      "midi": 61,
      "hit": false,
      "t": 301528.5306666696,
      "d": 317.07325000001583,
      "v": 77
    },
    {
      "midi": 65,
      "hit": false,
      "t": 301532.5957083363,
      "d": 284.55291666666744,
      "v": 80
    },
    {
      "midi": 69,
      "hit": false,
      "t": 301532.5957083363,
      "d": 524.390374999959,
      "v": 80
    },
    {
      "midi": 74,
      "hit": false,
      "t": 301869.9941666696,
      "d": 256.0976249999949,
      "v": 65
    },
    {
      "midi": 60,
      "hit": false,
      "t": 301886.25433333626,
      "d": 207.3171250000014,
      "v": 59
    },
    {
      "midi": 65,
      "hit": false,
      "t": 301886.25433333626,
      "d": 219.51225000002887,
      "v": 64
    },
    {
      "midi": 67,
      "hit": false,
      "t": 302199.2625416696,
      "d": 85.3658750000177,
      "v": 40
    },
    {
      "midi": 57,
      "hit": false,
      "t": 302203.3275833363,
      "d": 85.3658750000177,
      "v": 31
    },
    {
      "midi": 65,
      "hit": false,
      "t": 302207.39262500295,
      "d": 73.17074999999022,
      "v": 60
    },
    {
      "midi": 72,
      "hit": false,
      "t": 302471.6203333363,
      "d": 260.1626666667289,
      "v": 76
    },
    {
      "midi": 65,
      "hit": false,
      "t": 302475.68537500297,
      "d": 418.6992916666786,
      "v": 71
    },
    {
      "midi": 62,
      "hit": false,
      "t": 302483.8154583363,
      "d": 256.0976250000531,
      "v": 63
    },
    {
      "midi": 58,
      "hit": false,
      "t": 302496.01058333635,
      "d": 292.6830000000191,
      "v": 39
    },
    {
      "midi": 70,
      "hit": false,
      "t": 302809.0187916697,
      "d": 109.75612500001444,
      "v": 61
    },
    {
      "midi": 62,
      "hit": false,
      "t": 302825.27895833633,
      "d": 146.34150000003865,
      "v": 44
    },
    {
      "midi": 57,
      "hit": false,
      "t": 302825.27895833633,
      "d": 182.92687500006286,
      "v": 44
    },
    {
      "midi": 61,
      "hit": false,
      "t": 303097.6367500031,
      "d": 32.52033333334839,
      "v": 33
    },
    {
      "midi": 52,
      "hit": false,
      "t": 303150.48229166976,
      "d": 73.17074999999022,
      "v": 54
    },
    {
      "midi": 62,
      "hit": false,
      "t": 303154.54733333644,
      "d": 146.34149999998044,
      "v": 34
    },
    {
      "midi": 69,
      "hit": false,
      "t": 303443.1652916697,
      "d": 272.3577916667564,
      "v": 59
    },
    {
      "midi": 58,
      "hit": false,
      "t": 303459.4254583364,
      "d": 268.29275000008056,
      "v": 39
    },
    {
      "midi": 62,
      "hit": false,
      "t": 303459.4254583364,
      "d": 544.7155833334546,
      "v": 50
    },
    {
      "midi": 54,
      "hit": false,
      "t": 303463.4905000031,
      "d": 239.8374583333498,
      "v": 34
    },
    {
      "midi": 58,
      "hit": false,
      "t": 303780.5637500032,
      "d": 451.2196250000852,
      "v": 27
    },
    {
      "midi": 67,
      "hit": false,
      "t": 303788.6938333365,
      "d": 308.9431666667224,
      "v": 50
    },
    {
      "midi": 53,
      "hit": false,
      "t": 303821.2141666699,
      "d": 195.12200000003213,
      "v": 33
    },
    {
      "midi": 62,
      "hit": false,
      "t": 304101.7020416699,
      "d": 130.08133333333535,
      "v": 47
    },
    {
      "midi": 46,
      "hit": false,
      "t": 304703.32820833655,
      "d": 365.8537500000093,
      "v": 45
    },
    {
      "midi": 55,
      "hit": false,
      "t": 304930.97054166987,
      "d": 28.455291666672565,
      "v": 40
    },
    {
      "midi": 60,
      "hit": false,
      "t": 305081.3770833366,
      "d": 89.43091666669352,
      "v": 54
    },
    {
      "midi": 64,
      "hit": false,
      "t": 305207.3933750033,
      "d": 44.715458333317656,
      "v": 66
    },
    {
      "midi": 72,
      "hit": false,
      "t": 305378.1251250033,
      "d": 32.52033333334839,
      "v": 54
    },
    {
      "midi": 76,
      "hit": false,
      "t": 305528.53166666994,
      "d": 73.17074999999022,
      "v": 68
    },
    {
      "midi": 79,
      "hit": false,
      "t": 305674.8731666699,
      "d": 158.53662500006612,
      "v": 85
    },
    {
      "midi": 56,
      "hit": false,
      "t": 305678.9382083366,
      "d": 512.1952500001062,
      "v": 49
    },
    {
      "midi": 67,
      "hit": false,
      "t": 305687.06829166994,
      "d": 117.88620833336608,
      "v": 34
    },
    {
      "midi": 72,
      "hit": false,
      "t": 305687.06829166994,
      "d": 121.95125000004191,
      "v": 80
    },
    {
      "midi": 62,
      "hit": false,
      "t": 305687.06829166994,
      "d": 154.4715833333903,
      "v": 49
    },
    {
      "midi": 77,
      "hit": false,
      "t": 305857.80004167,
      "d": 394.3090416667401,
      "v": 62
    },
    {
      "midi": 62,
      "hit": false,
      "t": 305914.7106250033,
      "d": 158.53662500006612,
      "v": 42
    },
    {
      "midi": 67,
      "hit": false,
      "t": 305922.8407083367,
      "d": 60.975625000020955,
      "v": 19
    },
    {
      "midi": 72,
      "hit": false,
      "t": 306292.75950000336,
      "d": 459.34970833337866,
      "v": 49
    },
    {
      "midi": 55,
      "hit": false,
      "t": 306304.9546250034,
      "d": 674.7969166666735,
      "v": 32
    },
    {
      "midi": 65,
      "hit": false,
      "t": 306309.01966667006,
      "d": 430.8944166666479,
      "v": 33
    },
    {
      "midi": 61,
      "hit": false,
      "t": 306325.2798333367,
      "d": 609.7562500000349,
      "v": 46
    },
    {
      "midi": 67,
      "hit": false,
      "t": 306333.40991667006,
      "d": 398.3740833332995,
      "v": 25
    },
    {
      "midi": 86,
      "hit": false,
      "t": 308162.67866667005,
      "d": 93.49595833331114,
      "v": 80
    },
    {
      "midi": 80,
      "hit": false,
      "t": 308317.1502500034,
      "d": 44.715458333375864,
      "v": 54
    },
    {
      "midi": 60,
      "hit": false,
      "t": 308345.60554167005,
      "d": 817.0733749999781,
      "v": 29
    },
    {
      "midi": 57,
      "hit": false,
      "t": 308349.67058333673,
      "d": 772.3579166666605,
      "v": 24
    },
    {
      "midi": 50,
      "hit": false,
      "t": 308361.86570833676,
      "d": 739.8375833333121,
      "v": 25
    },
    {
      "midi": 53,
      "hit": false,
      "t": 308361.86570833676,
      "d": 739.8375833333121,
      "v": 35
    },
    {
      "midi": 79,
      "hit": false,
      "t": 308386.25595833675,
      "d": 117.88620833330788,
      "v": 41
    },
    {
      "midi": 77,
      "hit": false,
      "t": 308556.98770833673,
      "d": 105.69108333333861,
      "v": 36
    },
    {
      "midi": 74,
      "hit": false,
      "t": 308687.06904167007,
      "d": 48.78049999999348,
      "v": 41
    },
    {
      "midi": 77,
      "hit": false,
      "t": 308833.41054167005,
      "d": 256.0976249999949,
      "v": 73
    },
    {
      "midi": 79,
      "hit": false,
      "t": 309117.9634583367,
      "d": 121.9512499999837,
      "v": 65
    },
    {
      "midi": 77,
      "hit": false,
      "t": 309296.82529167004,
      "d": 369.91879166668514,
      "v": 48
    },
    {
      "midi": 74,
      "hit": false,
      "t": 309605.7684583367,
      "d": 565.0407916667173,
      "v": 58
    },
    {
      "midi": 63,
      "hit": false,
      "t": 309609.8335000034,
      "d": 548.780625000014,
      "v": 48
    },
    {
      "midi": 68,
      "hit": false,
      "t": 309613.89854167006,
      "d": 451.219625000027,
      "v": 48
    },
    {
      "midi": 57,
      "hit": false,
      "t": 309617.96358333674,
      "d": 398.3740833333577,
      "v": 44
    },
    {
      "midi": 77,
      "hit": false,
      "t": 310243.9800000034,
      "d": 284.55291666672565,
      "v": 45
    },
    {
      "midi": 62,
      "hit": false,
      "t": 310252.11008333677,
      "d": 516.2602916667238,
      "v": 38
    },
    {
      "midi": 67,
      "hit": false,
      "t": 310252.11008333677,
      "d": 569.1058333333931,
      "v": 37
    },
    {
      "midi": 56,
      "hit": false,
      "t": 310260.2401666701,
      "d": 760.1627916666912,
      "v": 30
    },
    {
      "midi": 79,
      "hit": false,
      "t": 310565.11829167017,
      "d": 97.56099999998696,
      "v": 44
    },
    {
      "midi": 77,
      "hit": false,
      "t": 310638.28904167016,
      "d": 130.08133333333535,
      "v": 43
    },
    {
      "midi": 74,
      "hit": false,
      "t": 310756.17525000346,
      "d": 166.66670833335957,
      "v": 32
    },
    {
      "midi": 77,
      "hit": false,
      "t": 311065.1184166701,
      "d": 410.5692083333852,
      "v": 75
    },
    {
      "midi": 65,
      "hit": false,
      "t": 311077.31354167016,
      "d": 483.7399583333754,
      "v": 40
    },
    {
      "midi": 55,
      "hit": false,
      "t": 311077.31354167016,
      "d": 613.821291666769,
      "v": 47
    },
    {
      "midi": 61,
      "hit": false,
      "t": 311081.37858333683,
      "d": 560.9757500000414,
      "v": 44
    },
    {
      "midi": 79,
      "hit": false,
      "t": 311524.4681250035,
      "d": 69.1057083333726,
      "v": 43
    },
    {
      "midi": 77,
      "hit": false,
      "t": 311589.5087916702,
      "d": 89.43091666669352,
      "v": 38
    },
    {
      "midi": 74,
      "hit": false,
      "t": 311678.9397083369,
      "d": 73.17075000004843,
      "v": 53
    },
    {
      "midi": 77,
      "hit": false,
      "t": 311841.54137500364,
      "d": 272.35779166663997,
      "v": 36
    },
    {
      "midi": 49,
      "hit": false,
      "t": 312187.06991667027,
      "d": 32.52033333334839,
      "v": 50
    },
    {
      "midi": 79,
      "hit": false,
      "t": 312223.6552916703,
      "d": 24.39024999999674,
      "v": 60
    },
    {
      "midi": 50,
      "hit": false,
      "t": 312227.72033333697,
      "d": 215.44720833329484,
      "v": 50
    },
    {
      "midi": 65,
      "hit": false,
      "t": 312540.72854167025,
      "d": 40.65041666664183,
      "v": 53
    },
    {
      "midi": 74,
      "hit": false,
      "t": 312683.00500000356,
      "d": 121.9512499999837,
      "v": 51
    },
    {
      "midi": 68,
      "hit": false,
      "t": 312683.00500000356,
      "d": 134.14637500001118,
      "v": 55
    },
    {
      "midi": 67,
      "hit": false,
      "t": 313170.81000000355,
      "d": 313.00820833334,
      "v": 67
    },
    {
      "midi": 74,
      "hit": false,
      "t": 313174.8750416702,
      "d": 211.38216666667722,
      "v": 68
    },
    {
      "midi": 62,
      "hit": false,
      "t": 313987.8833750035,
      "d": 32.52033333334839,
      "v": 58
    },
    {
      "midi": 65,
      "hit": false,
      "t": 314150.4850416702,
      "d": 77.23579166666605,
      "v": 64
    },
    {
      "midi": 67,
      "hit": false,
      "t": 314268.3712500035,
      "d": 126.01629166665953,
      "v": 45
    },
    {
      "midi": 65,
      "hit": false,
      "t": 314386.2574583368,
      "d": 97.56100000004517,
      "v": 38
    },
    {
      "midi": 62,
      "hit": false,
      "t": 314512.27375000354,
      "d": 73.17074999999022,
      "v": 42
    },
    {
      "midi": 61,
      "hit": false,
      "t": 314654.55020833685,
      "d": 268.29275000002235,
      "v": 38
    },
    {
      "midi": 64,
      "hit": false,
      "t": 314963.4933750035,
      "d": 109.75612500001444,
      "v": 78
    },
    {
      "midi": 62,
      "hit": false,
      "t": 315158.61537500354,
      "d": 243.9025000000256,
      "v": 33
    },
    {
      "midi": 57,
      "hit": false,
      "t": 315430.97316667024,
      "d": 85.3658750000177,
      "v": 54
    },
    {
      "midi": 55,
      "hit": false,
      "t": 315609.8350000036,
      "d": 313.00820833334,
      "v": 47
    },
    {
      "midi": 52,
      "hit": false,
      "t": 315975.6887500036,
      "d": 28.455291666672565,
      "v": 26
    },
    {
      "midi": 55,
      "hit": false,
      "t": 316105.7700833369,
      "d": 235.77241666667396,
      "v": 60
    },
    {
      "midi": 57,
      "hit": false,
      "t": 316382.19291667023,
      "d": 73.17074999999022,
      "v": 38
    },
    {
      "midi": 55,
      "hit": false,
      "t": 316487.88400000357,
      "d": 32.52033333334839,
      "v": 49
    },
    {
      "midi": 54,
      "hit": false,
      "t": 316512.27425000357,
      "d": 44.715458333375864,
      "v": 53
    },
    {
      "midi": 55,
      "hit": false,
      "t": 316609.8352500036,
      "d": 1284.5531666666502,
      "v": 62
    },
    {
      "midi": 52,
      "hit": false,
      "t": 318028.5347916702,
      "d": 32.52033333334839,
      "v": 22
    },
    {
      "midi": 58,
      "hit": false,
      "t": 318105.7705833369,
      "d": 93.49595833331114,
      "v": 67
    },
    {
      "midi": 57,
      "hit": false,
      "t": 318231.78687500354,
      "d": 73.17074999999022,
      "v": 46
    },
    {
      "midi": 58,
      "hit": false,
      "t": 318349.67308333685,
      "d": 85.3658750000177,
      "v": 47
    },
    {
      "midi": 60,
      "hit": false,
      "t": 318496.0145833369,
      "d": 65.04066666663857,
      "v": 55
    },
    {
      "midi": 61,
      "hit": false,
      "t": 318593.5755833369,
      "d": 121.9512499999837,
      "v": 56
    },
    {
      "midi": 63,
      "hit": false,
      "t": 318760.2422916702,
      "d": 36.585375000024214,
      "v": 50
    },
    {
      "midi": 64,
      "hit": false,
      "t": 318845.6081666702,
      "d": 81.30083333334187,
      "v": 58
    },
    {
      "midi": 66,
      "hit": false,
      "t": 318987.88462500356,
      "d": 28.455291666672565,
      "v": 45
    },
    {
      "midi": 67,
      "hit": false,
      "t": 319061.05537500355,
      "d": 85.3658750000177,
      "v": 56
    },
    {
      "midi": 69,
      "hit": false,
      "t": 319187.0716666702,
      "d": 85.3658750000177,
      "v": 73
    },
    {
      "midi": 70,
      "hit": false,
      "t": 319325.2830833369,
      "d": 52.845541666669305,
      "v": 74
    },
    {
      "midi": 72,
      "hit": false,
      "t": 319447.2343333369,
      "d": 73.17074999999022,
      "v": 68
    },
    {
      "midi": 61,
      "hit": false,
      "t": 319524.47012500354,
      "d": 247.96754166675964,
      "v": 51
    },
    {
      "midi": 66,
      "hit": false,
      "t": 319532.6002083369,
      "d": 191.0569583333563,
      "v": 53
    },
    {
      "midi": 55,
      "hit": false,
      "t": 319552.9254166702,
      "d": 215.44720833341125,
      "v": 44
    },
    {
      "midi": 73,
      "hit": false,
      "t": 319565.12054167024,
      "d": 109.75612500001444,
      "v": 54
    },
    {
      "midi": 75,
      "hit": false,
      "t": 319699.26691667025,
      "d": 32.52033333334839,
      "v": 49
    },
    {
      "midi": 76,
      "hit": false,
      "t": 319780.56775000365,
      "d": 85.3658750000177,
      "v": 62
    },
    {
      "midi": 78,
      "hit": false,
      "t": 319902.5190000037,
      "d": 81.30083333334187,
      "v": 53
    },
    {
      "midi": 57,
      "hit": false,
      "t": 320016.3401666704,
      "d": 73.17074999999022,
      "v": 41
    },
    {
      "midi": 60,
      "hit": false,
      "t": 320020.40520833706,
      "d": 32.52033333334839,
      "v": 20
    },
    {
      "midi": 50,
      "hit": false,
      "t": 320028.5352916704,
      "d": 69.1057083333144,
      "v": 25
    },
    {
      "midi": 53,
      "hit": false,
      "t": 320036.66537500377,
      "d": 36.58537499996601,
      "v": 47
    },
    {
      "midi": 79,
      "hit": false,
      "t": 320036.66537500377,
      "d": 93.49595833331114,
      "v": 47
    },
    {
      "midi": 81,
      "hit": false,
      "t": 320158.61662500375,
      "d": 113.82116666669026,
      "v": 71
    },
    {
      "midi": 76,
      "hit": false,
      "t": 320325.2833333371,
      "d": 65.04066666663857,
      "v": 78
    },
    {
      "midi": 79,
      "hit": false,
      "t": 320471.6248333371,
      "d": 101.62604166666279,
      "v": 85
    },
    {
      "midi": 77,
      "hit": false,
      "t": 320650.4866666704,
      "d": 69.1057083333144,
      "v": 74
    },
    {
      "midi": 73,
      "hit": false,
      "t": 320817.1533750037,
      "d": 85.3658750000177,
      "v": 69
    },
    {
      "midi": 76,
      "hit": false,
      "t": 320975.6900000037,
      "d": 97.56099999998696,
      "v": 77
    },
    {
      "midi": 74,
      "hit": false,
      "t": 321142.356708337,
      "d": 93.49595833331114,
      "v": 71
    },
    {
      "midi": 69,
      "hit": false,
      "t": 321296.82829167036,
      "d": 89.43091666669352,
      "v": 58
    },
    {
      "midi": 60,
      "hit": false,
      "t": 321325.28358333703,
      "d": 36.585375000024214,
      "v": 37
    },
    {
      "midi": 57,
      "hit": false,
      "t": 321345.60879167035,
      "d": 60.975625000020955,
      "v": 29
    },
    {
      "midi": 53,
      "hit": false,
      "t": 321357.8039166704,
      "d": 56.91058333334513,
      "v": 29
    },
    {
      "midi": 67,
      "hit": false,
      "t": 321475.6901250037,
      "d": 272.3577916666982,
      "v": 55
    },
    {
      "midi": 65,
      "hit": false,
      "t": 321788.69833333703,
      "d": 682.9270000000834,
      "v": 55
    },
    {
      "midi": 60,
      "hit": false,
      "t": 321939.1048750037,
      "d": 544.7155833334546,
      "v": 36
    },
    {
      "midi": 54,
      "hit": false,
      "t": 321951.3000000037,
      "d": 508.13020833337214,
      "v": 42
    },
    {
      "midi": 50,
      "hit": false,
      "t": 321963.49512500374,
      "d": 459.34970833332045,
      "v": 22
    },
    {
      "midi": 66,
      "hit": false,
      "t": 322422.84483333706,
      "d": 117.88620833342429,
      "v": 37
    },
    {
      "midi": 68,
      "hit": false,
      "t": 322556.99120833713,
      "d": 105.69108333333861,
      "v": 58
    },
    {
      "midi": 70,
      "hit": false,
      "t": 322691.13758333714,
      "d": 32.52033333334839,
      "v": 67
    },
    {
      "midi": 72,
      "hit": false,
      "t": 322813.0888333372,
      "d": 73.17075000004843,
      "v": 57
    },
    {
      "midi": 60,
      "hit": false,
      "t": 322849.6742083372,
      "d": 565.0407916667173,
      "v": 45
    },
    {
      "midi": 54,
      "hit": false,
      "t": 322853.7392500039,
      "d": 764.2278333334252,
      "v": 35
    },
    {
      "midi": 75,
      "hit": false,
      "t": 322935.0400833372,
      "d": 44.715458333317656,
      "v": 37
    },
    {
      "midi": 77,
      "hit": false,
      "t": 323048.86125000386,
      "d": 81.30083333334187,
      "v": 55
    },
    {
      "midi": 80,
      "hit": false,
      "t": 323166.7474583372,
      "d": 109.75612500001444,
      "v": 59
    },
    {
      "midi": 64,
      "hit": false,
      "t": 323296.82879167056,
      "d": 93.49595833336934,
      "v": 30
    },
    {
      "midi": 82,
      "hit": false,
      "t": 323300.89383333724,
      "d": 89.43091666669352,
      "v": 67
    },
    {
      "midi": 84,
      "hit": false,
      "t": 323422.8450833373,
      "d": 85.3658750000177,
      "v": 76
    },
    {
      "midi": 80,
      "hit": false,
      "t": 323565.12154167064,
      "d": 134.14637500001118,
      "v": 72
    },
    {
      "midi": 81,
      "hit": false,
      "t": 323699.26791667065,
      "d": 85.3658750000177,
      "v": 80
    },
    {
      "midi": 82,
      "hit": false,
      "t": 323825.2842083373,
      "d": 126.01629166660132,
      "v": 77
    },
    {
      "midi": 62,
      "hit": false,
      "t": 323890.32487500395,
      "d": 601.6261666666251,
      "v": 42
    },
    {
      "midi": 57,
      "hit": false,
      "t": 323894.3899166706,
      "d": 695.1221249999362,
      "v": 36
    },
    {
      "midi": 58,
      "hit": false,
      "t": 323910.65008333727,
      "d": 630.0814583332976,
      "v": 33
    },
    {
      "midi": 81,
      "hit": false,
      "t": 323967.56066667056,
      "d": 142.27645833330462,
      "v": 60
    },
    {
      "midi": 55,
      "hit": false,
      "t": 324191.1379583372,
      "d": 1308.9434166667052,
      "v": 1
    },
    {
      "midi": 77,
      "hit": false,
      "t": 324243.9835000039,
      "d": 81.30083333334187,
      "v": 58
    },
    {
      "midi": 74,
      "hit": false,
      "t": 324435.04045833723,
      "d": 219.51224999997066,
      "v": 44
    },
    {
      "midi": 77,
      "hit": false,
      "t": 324760.24379167054,
      "d": 89.43091666663531,
      "v": 66
    },
    {
      "midi": 62,
      "hit": false,
      "t": 324780.56900000386,
      "d": 81.30083333334187,
      "v": 34
    },
    {
      "midi": 58,
      "hit": false,
      "t": 324796.8291666705,
      "d": 101.626041666721,
      "v": 26
    },
    {
      "midi": 70,
      "hit": false,
      "t": 324935.04058333725,
      "d": 154.4715833333321,
      "v": 43
    },
    {
      "midi": 74,
      "hit": false,
      "t": 325739.91883333726,
      "d": 126.01629166665953,
      "v": 88
    },
    {
      "midi": 52,
      "hit": false,
      "t": 325833.41479167057,
      "d": 691.057083333435,
      "v": 37
    },
    {
      "midi": 58,
      "hit": false,
      "t": 325837.47983333725,
      "d": 365.8537500000093,
      "v": 18
    },
    {
      "midi": 69,
      "hit": false,
      "t": 325930.97579167056,
      "d": 219.51225000002887,
      "v": 55
    },
    {
      "midi": 72,
      "hit": false,
      "t": 326215.5287083373,
      "d": 150.40654166671447,
      "v": 74
    },
    {
      "midi": 58,
      "hit": false,
      "t": 326333.41491667065,
      "d": 247.96754166670144,
      "v": 19
    },
    {
      "midi": 70,
      "hit": false,
      "t": 326426.910875004,
      "d": 260.1626666666707,
      "v": 46
    },
    {
      "midi": 66,
      "hit": false,
      "t": 326727.72395833733,
      "d": 81.30083333334187,
      "v": 37
    },
    {
      "midi": 58,
      "hit": false,
      "t": 326829.350000004,
      "d": 223.5772916666465,
      "v": 23
    },
    {
      "midi": 69,
      "hit": false,
      "t": 326878.130500004,
      "d": 373.98383333336096,
      "v": 85
    },
    {
      "midi": 58,
      "hit": false,
      "t": 327207.398875004,
      "d": 32.52033333334839,
      "v": 32
    },
    {
      "midi": 52,
      "hit": false,
      "t": 327219.594000004,
      "d": 44.715458333375864,
      "v": 31
    },
    {
      "midi": 67,
      "hit": false,
      "t": 327382.19566667074,
      "d": 52.845541666669305,
      "v": 45
    },
    {
      "midi": 69,
      "hit": false,
      "t": 327459.4314583374,
      "d": 117.88620833336608,
      "v": 54
    },
    {
      "midi": 67,
      "hit": false,
      "t": 327569.1875833374,
      "d": 101.62604166666279,
      "v": 42
    },
    {
      "midi": 66,
      "hit": false,
      "t": 327678.94370833744,
      "d": 97.56100000004517,
      "v": 42
    },
    {
      "midi": 64,
      "hit": false,
      "t": 327817.1551250041,
      "d": 97.56099999998696,
      "v": 42
    },
    {
      "midi": 63,
      "hit": false,
      "t": 328150.4885416708,
      "d": 121.9512499999837,
      "v": 56
    },
    {
      "midi": 48,
      "hit": false,
      "t": 328215.5292083374,
      "d": 73.17074999999022,
      "v": 18
    },
    {
      "midi": 61,
      "hit": false,
      "t": 328374.06583333743,
      "d": 142.27645833330462,
      "v": 31
    },
    {
      "midi": 60,
      "hit": false,
      "t": 328662.6837916707,
      "d": 85.3658750000177,
      "v": 56
    },
    {
      "midi": 48,
      "hit": false,
      "t": 328674.87891667074,
      "d": 32.52033333334839,
      "v": 51
    },
    {
      "midi": 58,
      "hit": false,
      "t": 328861.8708333374,
      "d": 239.8374583333498,
      "v": 46
    },
    {
      "midi": 56,
      "hit": false,
      "t": 329134.2286250041,
      "d": 105.69108333333861,
      "v": 45
    },
    {
      "midi": 57,
      "hit": false,
      "t": 329300.8953333375,
      "d": 134.14637500001118,
      "v": 50
    },
    {
      "midi": 48,
      "hit": false,
      "t": 329609.83850000415,
      "d": 36.585375000024214,
      "v": 66
    },
    {
      "midi": 62,
      "hit": false,
      "t": 330109.83862500417,
      "d": 28.455291666672565,
      "v": 59
    },
    {
      "midi": 58,
      "hit": false,
      "t": 330109.83862500417,
      "d": 60.975625000020955,
      "v": 42
    },
    {
      "midi": 57,
      "hit": false,
      "t": 330122.0337500042,
      "d": 40.65041666664183,
      "v": 51
    },
    {
      "midi": 67,
      "hit": false,
      "t": 330300.8955833375,
      "d": 32.52033333334839,
      "v": 58
    },
    {
      "midi": 61,
      "hit": false,
      "t": 330601.7086666709,
      "d": 65.04066666669678,
      "v": 72
    },
    {
      "midi": 55,
      "hit": false,
      "t": 330605.77370833757,
      "d": 32.52033333334839,
      "v": 66
    },
    {
      "midi": 65,
      "hit": false,
      "t": 330613.9037916709,
      "d": 24.39024999999674,
      "v": 62
    },
    {
      "midi": 58,
      "hit": false,
      "t": 330613.9037916709,
      "d": 28.455291666672565,
      "v": 39
    },
    {
      "midi": 69,
      "hit": false,
      "t": 330617.9688333376,
      "d": 28.455291666672565,
      "v": 78
    },
    {
      "midi": 81,
      "hit": false,
      "t": 330617.9688333376,
      "d": 32.52033333334839,
      "v": 74
    },
    {
      "midi": 80,
      "hit": false,
      "t": 330642.3590833376,
      "d": 32.52033333334839,
      "v": 37
    },
    {
      "midi": 70,
      "hit": false,
      "t": 330768.37537500425,
      "d": 28.455291666730773,
      "v": 56
    },
    {
      "midi": 61,
      "hit": false,
      "t": 330776.5054583376,
      "d": 36.585375000024214,
      "v": 65
    },
    {
      "midi": 82,
      "hit": false,
      "t": 330780.5705000043,
      "d": 32.52033333334839,
      "v": 47
    },
    {
      "midi": 58,
      "hit": false,
      "t": 330792.7656250043,
      "d": 32.52033333334839,
      "v": 31
    },
    {
      "midi": 61,
      "hit": false,
      "t": 331093.5787083377,
      "d": 65.0406666668132,
      "v": 71
    },
    {
      "midi": 55,
      "hit": false,
      "t": 331105.7738333377,
      "d": 32.5203333334066,
      "v": 61
    },
    {
      "midi": 84,
      "hit": false,
      "t": 331109.8388750044,
      "d": 32.5203333334066,
      "v": 64
    },
    {
      "midi": 64,
      "hit": false,
      "t": 331113.90391667106,
      "d": 36.58537500008242,
      "v": 39
    },
    {
      "midi": 86,
      "hit": false,
      "t": 331113.90391667106,
      "d": 36.58537500008242,
      "v": 48
    },
    {
      "midi": 72,
      "hit": false,
      "t": 331126.0990416711,
      "d": 32.5203333334066,
      "v": 32
    },
    {
      "midi": 70,
      "hit": false,
      "t": 331248.0502916712,
      "d": 313.0082083333982,
      "v": 62
    },
    {
      "midi": 61,
      "hit": false,
      "t": 331252.11533333786,
      "d": 89.43091666669352,
      "v": 49
    },
    {
      "midi": 55,
      "hit": false,
      "t": 331256.18037500454,
      "d": 93.49595833336934,
      "v": 53
    },
    {
      "midi": 64,
      "hit": false,
      "t": 331264.3104583379,
      "d": 36.585375000024214,
      "v": 39
    },
    {
      "midi": 82,
      "hit": false,
      "t": 331264.3104583379,
      "d": 256.0976250000531,
      "v": 35
    },
    {
      "midi": 58,
      "hit": false,
      "t": 331272.44054167124,
      "d": 81.30083333334187,
      "v": 37
    },
    {
      "midi": 50,
      "hit": false,
      "t": 331719.5951250046,
      "d": 422.76433333335444,
      "v": 36
    },
    {
      "midi": 53,
      "hit": false,
      "t": 331723.66016667127,
      "d": 390.24400000000605,
      "v": 42
    },
    {
      "midi": 60,
      "hit": false,
      "t": 331723.66016667127,
      "d": 390.24400000000605,
      "v": 43
    },
    {
      "midi": 81,
      "hit": false,
      "t": 331723.66016667127,
      "d": 398.3740833333577,
      "v": 52
    },
    {
      "midi": 69,
      "hit": false,
      "t": 331727.72520833794,
      "d": 284.55291666666744,
      "v": 40
    },
    {
      "midi": 57,
      "hit": false,
      "t": 331727.72520833794,
      "d": 398.3740833333577,
      "v": 34
    },
    {
      "midi": 64,
      "hit": false,
      "t": 332565.1237916713,
      "d": 36.58537500008242,
      "v": 57
    },
    {
      "midi": 60,
      "hit": false,
      "t": 332565.1237916713,
      "d": 65.04066666675499,
      "v": 57
    },
    {
      "midi": 57,
      "hit": false,
      "t": 332577.3189166713,
      "d": 81.30083333345829,
      "v": 52
    },
    {
      "midi": 76,
      "hit": false,
      "t": 332581.383958338,
      "d": 32.5203333334066,
      "v": 72
    },
    {
      "midi": 88,
      "hit": false,
      "t": 332581.383958338,
      "d": 69.10570833343081,
      "v": 76
    },
    {
      "midi": 83,
      "hit": false,
      "t": 332593.57908333803,
      "d": 36.585375000024214,
      "v": 46
    },
    {
      "midi": 53,
      "hit": false,
      "t": 332605.77420833806,
      "d": 32.52033333334839,
      "v": 19
    },
    {
      "midi": 57,
      "hit": false,
      "t": 332760.24579167145,
      "d": 268.29275000008056,
      "v": 58
    },
    {
      "midi": 91,
      "hit": false,
      "t": 332764.3108333381,
      "d": 227.64233333338052,
      "v": 83
    },
    {
      "midi": 64,
      "hit": false,
      "t": 332764.3108333381,
      "d": 235.77241666673217,
      "v": 75
    },
    {
      "midi": 53,
      "hit": false,
      "t": 332764.3108333381,
      "d": 239.837458333408,
      "v": 71
    },
    {
      "midi": 60,
      "hit": false,
      "t": 332764.3108333381,
      "d": 264.22770833340473,
      "v": 70
    },
    {
      "midi": 79,
      "hit": false,
      "t": 332768.3758750048,
      "d": 223.5772916667047,
      "v": 75
    },
    {
      "midi": 93,
      "hit": false,
      "t": 332772.4409166715,
      "d": 24.39024999999674,
      "v": 64
    },
    {
      "midi": 86,
      "hit": false,
      "t": 332772.4409166715,
      "d": 227.64233333338052,
      "v": 62
    },
    {
      "midi": 81,
      "hit": false,
      "t": 332780.5710000048,
      "d": 28.455291666672565,
      "v": 62
    },
    {
      "midi": 89,
      "hit": false,
      "t": 333089.51416667155,
      "d": 231.70737500005635,
      "v": 63
    },
    {
      "midi": 53,
      "hit": false,
      "t": 333093.5792083382,
      "d": 418.6992916667368,
      "v": 57
    },
    {
      "midi": 57,
      "hit": false,
      "t": 333097.6442500049,
      "d": 321.13829166674986,
      "v": 57
    },
    {
      "midi": 64,
      "hit": false,
      "t": 333101.7092916716,
      "d": 304.87812500004657,
      "v": 54
    },
    {
      "midi": 84,
      "hit": false,
      "t": 333105.77433333825,
      "d": 243.9025000000256,
      "v": 72
    },
    {
      "midi": 60,
      "hit": false,
      "t": 333105.77433333825,
      "d": 268.29275000002235,
      "v": 67
    },
    {
      "midi": 77,
      "hit": false,
      "t": 333109.8393750049,
      "d": 247.96754166670144,
      "v": 58
    },
    {
      "midi": 62,
      "hit": false,
      "t": 333670.8151250049,
      "d": 89.43091666669352,
      "v": 38
    },
    {
      "midi": 53,
      "hit": false,
      "t": 333678.94520833826,
      "d": 89.43091666669352,
      "v": 24
    },
    {
      "midi": 58,
      "hit": false,
      "t": 333678.94520833826,
      "d": 101.626041666721,
      "v": 38
    },
    {
      "midi": 57,
      "hit": false,
      "t": 333687.0752916716,
      "d": 73.17074999999022,
      "v": 31
    },
    {
      "midi": 72,
      "hit": false,
      "t": 333687.0752916716,
      "d": 85.3658750000177,
      "v": 47
    },
    {
      "midi": 84,
      "hit": false,
      "t": 333687.0752916716,
      "d": 121.95125000004191,
      "v": 57
    },
    {
      "midi": 79,
      "hit": false,
      "t": 333715.5305833383,
      "d": 73.17075000004843,
      "v": 36
    },
    {
      "midi": 86,
      "hit": false,
      "t": 333991.95341667166,
      "d": 113.82116666674847,
      "v": 61
    },
    {
      "midi": 62,
      "hit": false,
      "t": 334000.083500005,
      "d": 97.56100000004517,
      "v": 68
    },
    {
      "midi": 58,
      "hit": false,
      "t": 334000.083500005,
      "d": 142.27645833342103,
      "v": 58
    },
    {
      "midi": 53,
      "hit": false,
      "t": 334004.1485416717,
      "d": 117.88620833336608,
      "v": 64
    },
    {
      "midi": 57,
      "hit": false,
      "t": 334008.21358333837,
      "d": 113.82116666669026,
      "v": 52
    },
    {
      "midi": 74,
      "hit": false,
      "t": 334008.21358333837,
      "d": 121.95125000004191,
      "v": 58
    },
    {
      "midi": 79,
      "hit": false,
      "t": 334008.21358333837,
      "d": 134.14637500006938,
      "v": 54
    },
    {
      "midi": 84,
      "hit": false,
      "t": 334207.40062500513,
      "d": 93.49595833336934,
      "v": 51
    },
    {
      "midi": 62,
      "hit": false,
      "t": 334211.4656666718,
      "d": 158.53662500000792,
      "v": 33
    },
    {
      "midi": 53,
      "hit": false,
      "t": 334211.4656666718,
      "d": 207.3171250000014,
      "v": 20
    },
    {
      "midi": 58,
      "hit": false,
      "t": 334219.59575000516,
      "d": 170.73174999997718,
      "v": 37
    },
    {
      "midi": 57,
      "hit": false,
      "t": 334223.66079167183,
      "d": 191.0569583332981,
      "v": 25
    },
    {
      "midi": 79,
      "hit": false,
      "t": 334239.9209583385,
      "d": 73.17075000004843,
      "v": 36
    },
    {
      "midi": 72,
      "hit": false,
      "t": 334252.1160833385,
      "d": 77.23579166666605,
      "v": 29
    },
    {
      "midi": 81,
      "hit": false,
      "t": 334504.1486666718,
      "d": 1146.3417500000214,
      "v": 53
    },
    {
      "midi": 69,
      "hit": false,
      "t": 334520.4088333385,
      "d": 1032.5205833333894,
      "v": 50
    },
    {
      "midi": 58,
      "hit": false,
      "t": 334536.6690000051,
      "d": 658.5367500000866,
      "v": 37
    },
    {
      "midi": 62,
      "hit": false,
      "t": 334536.6690000051,
      "d": 674.7969166667317,
      "v": 31
    },
    {
      "midi": 53,
      "hit": false,
      "t": 334544.79908333847,
      "d": 613.8212916667107,
      "v": 30
    },
    {
      "midi": 57,
      "hit": false,
      "t": 334548.86412500514,
      "d": 613.8212916667107,
      "v": 26
    },
    {
      "midi": 67,
      "hit": false,
      "t": 335617.9700833385,
      "d": 609.7562500000349,
      "v": 39
    },
    {
      "midi": 56,
      "hit": false,
      "t": 335626.10016667185,
      "d": 1768.2931249999674,
      "v": 36
    },
    {
      "midi": 62,
      "hit": false,
      "t": 335634.2302500052,
      "d": 219.51224999997066,
      "v": 34
    },
    {
      "midi": 62,
      "hit": false,
      "t": 335959.4335833385,
      "d": 268.29275000002235,
      "v": 24
    },
    {
      "midi": 88,
      "hit": false,
      "t": 335967.56366667186,
      "d": 81.30083333334187,
      "v": 59
    },
    {
      "midi": 91,
      "hit": false,
      "t": 336150.49054167187,
      "d": 77.23579166666605,
      "v": 70
    },
    {
      "midi": 89,
      "hit": false,
      "t": 336317.1572500052,
      "d": 101.62604166666279,
      "v": 75
    },
    {
      "midi": 85,
      "hit": false,
      "t": 336471.62883333856,
      "d": 101.62604166660458,
      "v": 64
    },
    {
      "midi": 62,
      "hit": false,
      "t": 336491.9540416719,
      "d": 260.1626666665543,
      "v": 42
    },
    {
      "midi": 67,
      "hit": false,
      "t": 336508.2142083385,
      "d": 81.30083333328366,
      "v": 18
    },
    {
      "midi": 88,
      "hit": false,
      "t": 336634.2305000051,
      "d": 117.88620833330788,
      "v": 69
    },
    {
      "midi": 86,
      "hit": false,
      "t": 336943.1736666718,
      "d": 130.08133333333535,
      "v": 74
    },
    {
      "midi": 62,
      "hit": false,
      "t": 336955.3687916718,
      "d": 207.3171249999432,
      "v": 40
    },
    {
      "midi": 67,
      "hit": false,
      "t": 336963.49887500517,
      "d": 93.49595833331114,
      "v": 29
    },
    {
      "midi": 81,
      "hit": false,
      "t": 337142.36070833844,
      "d": 239.8374583333498,
      "v": 46
    },
    {
      "midi": 84,
      "hit": false,
      "t": 337426.91362500517,
      "d": 117.88620833330788,
      "v": 72
    },
    {
      "midi": 66,
      "hit": false,
      "t": 337548.86487500515,
      "d": 284.55291666666744,
      "v": 38
    },
    {
      "midi": 61,
      "hit": false,
      "t": 337565.1250416718,
      "d": 207.3171250000014,
      "v": 34
    },
    {
      "midi": 55,
      "hit": false,
      "t": 337593.58033333847,
      "d": 1455.2849166668602,
      "v": 38
    },
    {
      "midi": 82,
      "hit": false,
      "t": 337670.81612500513,
      "d": 44.715458333317656,
      "v": 30
    },
    {
      "midi": 84,
      "hit": false,
      "t": 337752.1169583385,
      "d": 105.69108333339682,
      "v": 58
    },
    {
      "midi": 82,
      "hit": false,
      "t": 337845.61291667185,
      "d": 89.43091666669352,
      "v": 39
    },
    {
      "midi": 81,
      "hit": false,
      "t": 337951.3040000052,
      "d": 89.43091666669352,
      "v": 60
    },
    {
      "midi": 61,
      "hit": false,
      "t": 337963.4991250052,
      "d": 264.2277083333465,
      "v": 25
    },
    {
      "midi": 79,
      "hit": false,
      "t": 338122.0357500052,
      "d": 288.61795833334327,
      "v": 58
    },
    {
      "midi": 77,
      "hit": false,
      "t": 338418.7837916719,
      "d": 117.88620833336608,
      "v": 65
    },
    {
      "midi": 61,
      "hit": false,
      "t": 338426.91387500527,
      "d": 138.211416666687,
      "v": 32
    },
    {
      "midi": 76,
      "hit": false,
      "t": 338626.100916672,
      "d": 284.55291666666744,
      "v": 18
    },
    {
      "midi": 74,
      "hit": false,
      "t": 338906.58879167197,
      "d": 142.27645833336283,
      "v": 57
    },
    {
      "midi": 61,
      "hit": false,
      "t": 338926.9140000053,
      "d": 85.3658750000177,
      "v": 33
    },
    {
      "midi": 73,
      "hit": false,
      "t": 339101.710791672,
      "d": 239.8374583333498,
      "v": 49
    },
    {
      "midi": 60,
      "hit": false,
      "t": 339386.26370833867,
      "d": 32.5203333334066,
      "v": 55
    },
    {
      "midi": 76,
      "hit": false,
      "t": 339390.32875000534,
      "d": 134.14637500006938,
      "v": 74
    },
    {
      "midi": 57,
      "hit": false,
      "t": 339402.52387500537,
      "d": 73.17074999999022,
      "v": 46
    },
    {
      "midi": 53,
      "hit": false,
      "t": 339410.6539583387,
      "d": 85.3658750000177,
      "v": 55
    },
    {
      "midi": 50,
      "hit": false,
      "t": 339435.0442083387,
      "d": 48.78049999999348,
      "v": 20
    },
    {
      "midi": 74,
      "hit": false,
      "t": 339585.45075000543,
      "d": 260.1626666666707,
      "v": 42
    },
    {
      "midi": 69,
      "hit": false,
      "t": 339878.13375000545,
      "d": 85.3658750000177,
      "v": 65
    },
    {
      "midi": 67,
      "hit": false,
      "t": 340040.73541667213,
      "d": 313.00820833334,
      "v": 54
    },
    {
      "midi": 65,
      "hit": false,
      "t": 340475.69487500546,
      "d": 211.38216666667722,
      "v": 69
    },
    {
      "midi": 67,
      "hit": false,
      "t": 340743.9876250055,
      "d": 97.56099999998696,
      "v": 38
    },
    {
      "midi": 65,
      "hit": false,
      "t": 340821.22341667215,
      "d": 85.36587499995949,
      "v": 49
    },
    {
      "midi": 64,
      "hit": false,
      "t": 340930.9795416721,
      "d": 292.6830000000191,
      "v": 41
    },
    {
      "midi": 65,
      "hit": false,
      "t": 341313.0934583388,
      "d": 292.6830000000191,
      "v": 79
    },
    {
      "midi": 67,
      "hit": false,
      "t": 341638.2967916722,
      "d": 117.88620833336608,
      "v": 36
    },
    {
      "midi": 65,
      "hit": false,
      "t": 341752.1179583389,
      "d": 97.56099999998696,
      "v": 49
    },
    {
      "midi": 64,
      "hit": false,
      "t": 341861.8740833389,
      "d": 52.845541666669305,
      "v": 53
    },
    {
      "midi": 65,
      "hit": false,
      "t": 341996.02045833884,
      "d": 252.03258333331905,
      "v": 80
    },
    {
      "midi": 67,
      "hit": false,
      "t": 342268.3782500055,
      "d": 130.08133333339356,
      "v": 44
    },
    {
      "midi": 65,
      "hit": false,
      "t": 342353.7441250055,
      "d": 126.01629166671773,
      "v": 46
    },
    {
      "midi": 47,
      "hit": false,
      "t": 342390.3295000055,
      "d": 105.69108333333861,
      "v": 35
    },
    {
      "midi": 57,
      "hit": false,
      "t": 342410.6547083389,
      "d": 85.36587499995949,
      "v": 29
    },
    {
      "midi": 64,
      "hit": false,
      "t": 342516.3457916722,
      "d": 256.0976249999949,
      "v": 34
    },
    {
      "midi": 65,
      "hit": false,
      "t": 342821.22391667217,
      "d": 243.9025000000256,
      "v": 58
    },
    {
      "midi": 67,
      "hit": false,
      "t": 343101.71179167216,
      "d": 109.75612500001444,
      "v": 38
    },
    {
      "midi": 65,
      "hit": false,
      "t": 343207.4028750055,
      "d": 97.56099999998696,
      "v": 39
    },
    {
      "midi": 64,
      "hit": false,
      "t": 343325.2890833388,
      "d": 81.30083333334187,
      "v": 34
    },
    {
      "midi": 56,
      "hit": false,
      "t": 343398.4598333388,
      "d": 65.04066666669678,
      "v": 42
    },
    {
      "midi": 46,
      "hit": false,
      "t": 343406.58991667215,
      "d": 36.585375000024214,
      "v": 34
    },
    {
      "midi": 65,
      "hit": false,
      "t": 343467.5655416722,
      "d": 235.77241666667396,
      "v": 58
    },
    {
      "midi": 67,
      "hit": false,
      "t": 343780.5737500055,
      "d": 117.88620833342429,
      "v": 58
    },
    {
      "midi": 62,
      "hit": false,
      "t": 343792.76887500554,
      "d": 73.17075000004843,
      "v": 36
    },
    {
      "midi": 56,
      "hit": false,
      "t": 343796.8339166722,
      "d": 65.04066666669678,
      "v": 25
    },
    {
      "midi": 56,
      "hit": false,
      "t": 343959.43558333896,
      "d": 101.62604166666279,
      "v": 32
    },
    {
      "midi": 68,
      "hit": false,
      "t": 343983.82583333895,
      "d": 186.99191666662227,
      "v": 56
    },
    {
      "midi": 62,
      "hit": false,
      "t": 343991.9559166723,
      "d": 134.14637499995297,
      "v": 32
    },
    {
      "midi": 70,
      "hit": false,
      "t": 344264.3137083389,
      "d": 93.49595833331114,
      "v": 58
    },
    {
      "midi": 56,
      "hit": false,
      "t": 344264.3137083389,
      "d": 117.88620833336608,
      "v": 54
    },
    {
      "midi": 67,
      "hit": false,
      "t": 344268.37875000556,
      "d": 52.845541666669305,
      "v": 55
    },
    {
      "midi": 62,
      "hit": false,
      "t": 344272.44379167224,
      "d": 89.43091666663531,
      "v": 48
    },
    {
      "midi": 68,
      "hit": false,
      "t": 344300.8990833389,
      "d": 40.65041666664183,
      "v": 29
    },
    {
      "midi": 56,
      "hit": false,
      "t": 344447.2405833389,
      "d": 166.66670833330136,
      "v": 23
    },
    {
      "midi": 74,
      "hit": false,
      "t": 344451.30562500557,
      "d": 52.845541666669305,
      "v": 43
    },
    {
      "midi": 62,
      "hit": false,
      "t": 344471.6308333389,
      "d": 121.9512499999837,
      "v": 46
    },
    {
      "midi": 67,
      "hit": false,
      "t": 344479.76091667224,
      "d": 69.1057083333144,
      "v": 27
    },
    {
      "midi": 74,
      "hit": false,
      "t": 344548.86662500555,
      "d": 109.75612499995623,
      "v": 16
    },
    {
      "midi": 77,
      "hit": false,
      "t": 344739.92358333885,
      "d": 93.49595833342755,
      "v": 65
    },
    {
      "midi": 62,
      "hit": false,
      "t": 344764.31383333885,
      "d": 73.17075000010664,
      "v": 58
    },
    {
      "midi": 56,
      "hit": false,
      "t": 344772.4439166722,
      "d": 36.585375000024214,
      "v": 39
    },
    {
      "midi": 67,
      "hit": false,
      "t": 344784.6390416722,
      "d": 32.52033333334839,
      "v": 30
    },
    {
      "midi": 81,
      "hit": false,
      "t": 344910.65533333895,
      "d": 105.69108333339682,
      "v": 72
    },
    {
      "midi": 62,
      "hit": false,
      "t": 344914.7203750056,
      "d": 154.4715833333903,
      "v": 60
    },
    {
      "midi": 56,
      "hit": false,
      "t": 344922.850458339,
      "d": 97.56100000004517,
      "v": 44
    },
    {
      "midi": 67,
      "hit": false,
      "t": 344930.9805416723,
      "d": 60.975625000020955,
      "v": 20
    },
    {
      "midi": 62,
      "hit": false,
      "t": 345199.27329167235,
      "d": 44.715458333317656,
      "v": 41
    },
    {
      "midi": 56,
      "hit": false,
      "t": 345199.27329167235,
      "d": 121.9512499999837,
      "v": 60
    },
    {
      "midi": 84,
      "hit": false,
      "t": 345219.59850000567,
      "d": 65.04066666663857,
      "v": 77
    },
    {
      "midi": 72,
      "hit": false,
      "t": 345223.66354167234,
      "d": 69.1057083333144,
      "v": 68
    },
    {
      "midi": 55,
      "hit": false,
      "t": 345402.5253750057,
      "d": 203.25208333338378,
      "v": 66
    },
    {
      "midi": 65,
      "hit": false,
      "t": 345410.655458339,
      "d": 207.3171250000596,
      "v": 52
    },
    {
      "midi": 85,
      "hit": false,
      "t": 345414.7205000057,
      "d": 199.18704166670796,
      "v": 74
    },
    {
      "midi": 73,
      "hit": false,
      "t": 345418.7855416724,
      "d": 186.99191666668048,
      "v": 65
    },
    {
      "midi": 61,
      "hit": false,
      "t": 345418.7855416724,
      "d": 235.77241666673217,
      "v": 57
    },
    {
      "midi": 75,
      "hit": false,
      "t": 345711.46854167245,
      "d": 97.56100000004517,
      "v": 64
    },
    {
      "midi": 87,
      "hit": false,
      "t": 345711.46854167245,
      "d": 105.69108333339682,
      "v": 75
    },
    {
      "midi": 61,
      "hit": false,
      "t": 345719.5986250058,
      "d": 89.43091666669352,
      "v": 58
    },
    {
      "midi": 55,
      "hit": false,
      "t": 345723.6636666725,
      "d": 65.04066666669678,
      "v": 66
    },
    {
      "midi": 65,
      "hit": false,
      "t": 345731.79375000583,
      "d": 32.52033333334839,
      "v": 55
    },
    {
      "midi": 55,
      "hit": false,
      "t": 345874.0702083392,
      "d": 150.40654166677268,
      "v": 61
    },
    {
      "midi": 88,
      "hit": false,
      "t": 345886.2653333392,
      "d": 130.08133333339356,
      "v": 66
    },
    {
      "midi": 76,
      "hit": false,
      "t": 345894.3954166726,
      "d": 97.56100000004517,
      "v": 42
    },
    {
      "midi": 61,
      "hit": false,
      "t": 345894.3954166726,
      "d": 195.12200000003213,
      "v": 38
    },
    {
      "midi": 65,
      "hit": false,
      "t": 345902.5255000059,
      "d": 105.69108333333861,
      "v": 61
    },
    {
      "midi": 90,
      "hit": false,
      "t": 346195.20850000595,
      "d": 227.64233333338052,
      "v": 77
    },
    {
      "midi": 78,
      "hit": false,
      "t": 346199.2735416726,
      "d": 207.3171250000014,
      "v": 74
    },
    {
      "midi": 61,
      "hit": false,
      "t": 346223.6637916726,
      "d": 182.92687500000466,
      "v": 70
    },
    {
      "midi": 58,
      "hit": false,
      "t": 346227.7288333393,
      "d": 182.92687500000466,
      "v": 60
    },
    {
      "midi": 55,
      "hit": false,
      "t": 346235.85891667265,
      "d": 146.34149999998044,
      "v": 71
    },
    {
      "midi": 64,
      "hit": false,
      "t": 346235.85891667265,
      "d": 146.34149999998044,
      "v": 66
    },
    {
      "midi": 55,
      "hit": false,
      "t": 346512.281750006,
      "d": 182.92687500006286,
      "v": 64
    },
    {
      "midi": 61,
      "hit": false,
      "t": 346512.281750006,
      "d": 231.70737500011455,
      "v": 54
    },
    {
      "midi": 64,
      "hit": false,
      "t": 346516.3467916727,
      "d": 178.86183333338704,
      "v": 62
    },
    {
      "midi": 91,
      "hit": false,
      "t": 346520.41183333937,
      "d": 178.86183333338704,
      "v": 68
    },
    {
      "midi": 58,
      "hit": false,
      "t": 346524.47687500605,
      "d": 211.38216666673543,
      "v": 51
    },
    {
      "midi": 79,
      "hit": false,
      "t": 346528.5419166727,
      "d": 162.60166666668374,
      "v": 70
    },
    {
      "midi": 61,
      "hit": false,
      "t": 346837.4850833395,
      "d": 77.23579166672425,
      "v": 53
    },
    {
      "midi": 64,
      "hit": false,
      "t": 346849.68020833953,
      "d": 36.585375000024214,
      "v": 58
    },
    {
      "midi": 55,
      "hit": false,
      "t": 346849.68020833953,
      "d": 73.17075000004843,
      "v": 62
    },
    {
      "midi": 58,
      "hit": false,
      "t": 346849.68020833953,
      "d": 101.626041666721,
      "v": 57
    },
    {
      "midi": 81,
      "hit": false,
      "t": 346853.7452500062,
      "d": 134.14637500006938,
      "v": 82
    },
    {
      "midi": 93,
      "hit": false,
      "t": 346857.8102916729,
      "d": 121.95125000004191,
      "v": 83
    },
    {
      "midi": 62,
      "hit": false,
      "t": 347191.1437083396,
      "d": 166.66670833330136,
      "v": 65
    },
    {
      "midi": 82,
      "hit": false,
      "t": 347191.1437083396,
      "d": 170.73174999997718,
      "v": 80
    },
    {
      "midi": 58,
      "hit": false,
      "t": 347191.1437083396,
      "d": 174.796791666653,
      "v": 48
    },
    {
      "midi": 57,
      "hit": false,
      "t": 347191.1437083396,
      "d": 178.86183333332883,
      "v": 57
    },
    {
      "midi": 94,
      "hit": false,
      "t": 347191.1437083396,
      "d": 191.0569583333563,
      "v": 80
    },
    {
      "midi": 52,
      "hit": false,
      "t": 347211.4689166729,
      "d": 142.27645833330462,
      "v": 58
    },
    {
      "midi": 96,
      "hit": false,
      "t": 347500.08687500627,
      "d": 170.7317500000354,
      "v": 80
    },
    {
      "midi": 84,
      "hit": false,
      "t": 347500.08687500627,
      "d": 178.86183333338704,
      "v": 75
    },
    {
      "midi": 57,
      "hit": false,
      "t": 347508.2169583396,
      "d": 195.12200000009034,
      "v": 56
    },
    {
      "midi": 58,
      "hit": false,
      "t": 347512.2820000063,
      "d": 182.92687500006286,
      "v": 49
    },
    {
      "midi": 62,
      "hit": false,
      "t": 347516.34704167297,
      "d": 158.53662500000792,
      "v": 66
    },
    {
      "midi": 52,
      "hit": false,
      "t": 347520.41208333964,
      "d": 166.66670833335957,
      "v": 55
    },
    {
      "midi": 57,
      "hit": false,
      "t": 347792.7698750064,
      "d": 235.77241666673217,
      "v": 52
    },
    {
      "midi": 62,
      "hit": false,
      "t": 347796.8349166731,
      "d": 215.44720833341125,
      "v": 58
    },
    {
      "midi": 58,
      "hit": false,
      "t": 347800.89995833975,
      "d": 231.70737500005635,
      "v": 57
    },
    {
      "midi": 98,
      "hit": false,
      "t": 347804.9650000064,
      "d": 182.92687500000466,
      "v": 73
    },
    {
      "midi": 52,
      "hit": false,
      "t": 347804.9650000064,
      "d": 195.12200000003213,
      "v": 62
    },
    {
      "midi": 86,
      "hit": false,
      "t": 347821.2251666731,
      "d": 162.60166666668374,
      "v": 63
    },
    {
      "midi": 62,
      "hit": false,
      "t": 348134.2333750065,
      "d": 113.82116666674847,
      "v": 67
    },
    {
      "midi": 100,
      "hit": false,
      "t": 348142.3634583398,
      "d": 81.30083333340008,
      "v": 77
    },
    {
      "midi": 57,
      "hit": false,
      "t": 348142.3634583398,
      "d": 142.27645833342103,
      "v": 58
    },
    {
      "midi": 58,
      "hit": false,
      "t": 348142.3634583398,
      "d": 142.27645833342103,
      "v": 61
    },
    {
      "midi": 88,
      "hit": false,
      "t": 348150.4935416732,
      "d": 36.585375000024214,
      "v": 44
    },
    {
      "midi": 89,
      "hit": false,
      "t": 348154.55858333985,
      "d": 32.52033333334839,
      "v": 53
    },
    {
      "midi": 52,
      "hit": false,
      "t": 348158.6236250065,
      "d": 32.52033333334839,
      "v": 57
    },
    {
      "midi": 72,
      "hit": false,
      "t": 349134.2336250066,
      "d": 121.95125000004191,
      "v": 64
    },
    {
      "midi": 65,
      "hit": false,
      "t": 349138.29866667325,
      "d": 126.01629166671773,
      "v": 70
    },
    {
      "midi": 60,
      "hit": false,
      "t": 349142.3637083399,
      "d": 89.43091666669352,
      "v": 76
    },
    {
      "midi": 69,
      "hit": false,
      "t": 349146.4287500066,
      "d": 101.62604166666279,
      "v": 57
    },
    {
      "midi": 61,
      "hit": false,
      "t": 349150.4937916733,
      "d": 162.60166666668374,
      "v": 82
    },
    {
      "midi": 71,
      "hit": false,
      "t": 349178.94908333995,
      "d": 40.65041666664183,
      "v": 36
    },
    {
      "midi": 69,
      "hit": false,
      "t": 349418.7865416733,
      "d": 256.0976249999949,
      "v": 75
    },
    {
      "midi": 58,
      "hit": false,
      "t": 349430.9816666733,
      "d": 252.03258333331905,
      "v": 55
    },
    {
      "midi": 57,
      "hit": false,
      "t": 349435.04670834,
      "d": 174.796791666653,
      "v": 44
    },
    {
      "midi": 61,
      "hit": false,
      "t": 349451.30687500664,
      "d": 199.18704166664975,
      "v": 36
    },
    {
      "midi": 64,
      "hit": false,
      "t": 349752.11995833996,
      "d": 227.64233333338052,
      "v": 39
    },
    {
      "midi": 58,
      "hit": false,
      "t": 349760.2500416733,
      "d": 191.0569583333563,
      "v": 42
    },
    {
      "midi": 61,
      "hit": false,
      "t": 349784.64029167336,
      "d": 146.34149999998044,
      "v": 31
    },
    {
      "midi": 61,
      "hit": false,
      "t": 350109.8436250067,
      "d": 219.51225000008708,
      "v": 55
    },
    {
      "midi": 67,
      "hit": false,
      "t": 350113.90866667335,
      "d": 162.60166666674195,
      "v": 54
    },
    {
      "midi": 58,
      "hit": false,
      "t": 350122.0387500067,
      "d": 186.9919166667387,
      "v": 51
    },
    {
      "midi": 52,
      "hit": false,
      "t": 350130.16883334005,
      "d": 296.7480416666949,
      "v": 49
    },
    {
      "midi": 64,
      "hit": false,
      "t": 350142.3639583401,
      "d": 121.9512499999837,
      "v": 32
    },
    {
      "midi": 66,
      "hit": false,
      "t": 350410.6567083401,
      "d": 256.0976250000531,
      "v": 54
    },
    {
      "midi": 61,
      "hit": false,
      "t": 350426.91687500675,
      "d": 227.64233333338052,
      "v": 39
    },
    {
      "midi": 58,
      "hit": false,
      "t": 350430.9819166734,
      "d": 170.7317500000354,
      "v": 34
    },
    {
      "midi": 51,
      "hit": false,
      "t": 350439.1120000068,
      "d": 276.422833333374,
      "v": 44
    },
    {
      "midi": 63,
      "hit": false,
      "t": 350463.5022500068,
      "d": 146.34150000003865,
      "v": 35
    },
    {
      "midi": 58,
      "hit": false,
      "t": 350752.1202083402,
      "d": 77.23579166666605,
      "v": 37
    },
    {
      "midi": 49,
      "hit": false,
      "t": 350776.51045834017,
      "d": 272.3577916666982,
      "v": 36
    },
    {
      "midi": 65,
      "hit": false,
      "t": 351077.32354167354,
      "d": 134.14637500006938,
      "v": 53
    },
    {
      "midi": 57,
      "hit": false,
      "t": 351085.4536250069,
      "d": 186.9919166667387,
      "v": 43
    },
    {
      "midi": 60,
      "hit": false,
      "t": 351089.51866667357,
      "d": 182.92687500006286,
      "v": 52
    },
    {
      "midi": 50,
      "hit": false,
      "t": 351089.51866667357,
      "d": 227.64233333338052,
      "v": 46
    },
    {
      "midi": 38,
      "hit": false,
      "t": 351353.746375007,
      "d": 727.642458333401,
      "v": 48
    },
    {
      "midi": 64,
      "hit": false,
      "t": 351365.941500007,
      "d": 215.44720833335305,
      "v": 40
    },
    {
      "midi": 49,
      "hit": false,
      "t": 351715.5350833403,
      "d": 117.88620833336608,
      "v": 39
    },
    {
      "midi": 57,
      "hit": false,
      "t": 351727.73020834033,
      "d": 138.211416666687,
      "v": 26
    },
    {
      "midi": 62,
      "hit": false,
      "t": 352048.868500007,
      "d": 463.4147500000545,
      "v": 37
    },
    {
      "midi": 57,
      "hit": false,
      "t": 352061.06362500705,
      "d": 304.87812500004657,
      "v": 44
    },
    {
      "midi": 53,
      "hit": false,
      "t": 352065.1286666737,
      "d": 162.60166666668374,
      "v": 41
    },
    {
      "midi": 48,
      "hit": false,
      "t": 352085.45387500705,
      "d": 504.0651666666963,
      "v": 46
    },
    {
      "midi": 38,
      "hit": false,
      "t": 352528.5434166737,
      "d": 32.52033333334839,
      "v": 60
    },
    {
      "midi": 60,
      "hit": false,
      "t": 353174.8850416737,
      "d": 536.5854999999865,
      "v": 30
    },
    {
      "midi": 50,
      "hit": false,
      "t": 353178.9500833404,
      "d": 447.1545833333512,
      "v": 31
    },
    {
      "midi": 54,
      "hit": false,
      "t": 353187.08016667375,
      "d": 459.34970833332045,
      "v": 33
    },
    {
      "midi": 62,
      "hit": false,
      "t": 353357.81191667373,
      "d": 56.91058333334513,
      "v": 54
    },
    {
      "midi": 63,
      "hit": false,
      "t": 353512.28350000706,
      "d": 93.49595833336934,
      "v": 55
    },
    {
      "midi": 65,
      "hit": false,
      "t": 353666.7550833404,
      "d": 77.23579166666605,
      "v": 51
    },
    {
      "midi": 66,
      "hit": false,
      "t": 353833.42179167375,
      "d": 77.23579166666605,
      "v": 59
    },
    {
      "midi": 68,
      "hit": false,
      "t": 353991.95841667376,
      "d": 117.88620833336608,
      "v": 82
    },
    {
      "midi": 54,
      "hit": false,
      "t": 353996.02345834044,
      "d": 300.81308333331253,
      "v": 57
    },
    {
      "midi": 60,
      "hit": false,
      "t": 354004.1535416738,
      "d": 113.82116666669026,
      "v": 57
    },
    {
      "midi": 65,
      "hit": false,
      "t": 354008.21858334047,
      "d": 36.585375000024214,
      "v": 51
    },
    {
      "midi": 69,
      "hit": false,
      "t": 354183.0153750071,
      "d": 65.04066666663857,
      "v": 37
    },
    {
      "midi": 70,
      "hit": false,
      "t": 354337.4869583404,
      "d": 89.43091666669352,
      "v": 68
    },
    {
      "midi": 72,
      "hit": false,
      "t": 354487.8935000071,
      "d": 81.30083333334187,
      "v": 73
    },
    {
      "midi": 54,
      "hit": false,
      "t": 354491.9585416738,
      "d": 178.86183333332883,
      "v": 58
    },
    {
      "midi": 60,
      "hit": false,
      "t": 354500.08862500713,
      "d": 85.3658750000177,
      "v": 58
    },
    {
      "midi": 75,
      "hit": false,
      "t": 354650.4951666738,
      "d": 28.455291666672565,
      "v": 38
    },
    {
      "midi": 76,
      "hit": false,
      "t": 354678.95045834046,
      "d": 36.585375000024214,
      "v": 45
    },
    {
      "midi": 80,
      "hit": false,
      "t": 354796.83666667383,
      "d": 113.82116666669026,
      "v": 55
    },
    {
      "midi": 84,
      "hit": false,
      "t": 354979.7635416739,
      "d": 142.27645833342103,
      "v": 87
    },
    {
      "midi": 72,
      "hit": false,
      "t": 354996.02370834054,
      "d": 113.82116666674847,
      "v": 89
    },
    {
      "midi": 83,
      "hit": false,
      "t": 355008.21883334056,
      "d": 97.56100000004517,
      "v": 55
    },
    {
      "midi": 62,
      "hit": false,
      "t": 355056.99933334056,
      "d": 337.39845833339496,
      "v": 20
    },
    {
      "midi": 57,
      "hit": false,
      "t": 355056.99933334056,
      "d": 349.59358333342243,
      "v": 32
    },
    {
      "midi": 58,
      "hit": false,
      "t": 355081.38958334055,
      "d": 268.29275000008056,
      "v": 23
    },
    {
      "midi": 55,
      "hit": false,
      "t": 355089.5196666739,
      "d": 353.65862500009825,
      "v": 37
    },
    {
      "midi": 81,
      "hit": false,
      "t": 355203.34083334066,
      "d": 191.0569583332981,
      "v": 57
    },
    {
      "midi": 84,
      "hit": false,
      "t": 355471.6335833407,
      "d": 134.14637500006938,
      "v": 82
    },
    {
      "midi": 72,
      "hit": false,
      "t": 355479.763666674,
      "d": 121.95125000004191,
      "v": 70
    },
    {
      "midi": 62,
      "hit": false,
      "t": 355500.08887500735,
      "d": 280.4878750000498,
      "v": 31
    },
    {
      "midi": 58,
      "hit": false,
      "t": 355504.153916674,
      "d": 321.13829166674986,
      "v": 36
    },
    {
      "midi": 55,
      "hit": false,
      "t": 355516.34904167405,
      "d": 325.2033333333675,
      "v": 18
    },
    {
      "midi": 57,
      "hit": false,
      "t": 355524.4791250074,
      "d": 300.81308333337074,
      "v": 20
    },
    {
      "midi": 81,
      "hit": false,
      "t": 355670.8206250074,
      "d": 142.27645833336283,
      "v": 48
    },
    {
      "midi": 84,
      "hit": false,
      "t": 355967.5686666741,
      "d": 65.04066666669678,
      "v": 73
    },
    {
      "midi": 62,
      "hit": false,
      "t": 355983.8288333407,
      "d": 60.97562500007916,
      "v": 37
    },
    {
      "midi": 58,
      "hit": false,
      "t": 355983.8288333407,
      "d": 105.69108333345503,
      "v": 42
    },
    {
      "midi": 72,
      "hit": false,
      "t": 355991.9589166741,
      "d": 28.455291666672565,
      "v": 68
    },
    {
      "midi": 57,
      "hit": false,
      "t": 355996.02395834075,
      "d": 52.84554166672751,
      "v": 34
    },
    {
      "midi": 55,
      "hit": false,
      "t": 356012.2841250074,
      "d": 44.71545833343407,
      "v": 33
    },
    {
      "midi": 68,
      "hit": false,
      "t": 356162.69066667417,
      "d": 134.14637500006938,
      "v": 53
    },
    {
      "midi": 80,
      "hit": false,
      "t": 356166.75570834085,
      "d": 154.4715833334485,
      "v": 36
    },
    {
      "midi": 62,
      "hit": false,
      "t": 356166.75570834085,
      "d": 276.4228333334322,
      "v": 27
    },
    {
      "midi": 58,
      "hit": false,
      "t": 356178.9508333409,
      "d": 203.25208333338378,
      "v": 39
    },
    {
      "midi": 57,
      "hit": false,
      "t": 356195.2110000075,
      "d": 223.5772916667629,
      "v": 22
    },
    {
      "midi": 55,
      "hit": false,
      "t": 356203.34108334087,
      "d": 243.90250000008382,
      "v": 33
    },
    {
      "midi": 81,
      "hit": false,
      "t": 356284.6419166742,
      "d": 126.01629166671773,
      "v": 17
    },
    {
      "midi": 69,
      "hit": false,
      "t": 356309.03216667427,
      "d": 130.08133333333535,
      "v": 37
    },
    {
      "midi": 74,
      "hit": false,
      "t": 356349.68258334097,
      "d": 105.69108333333861,
      "v": 24
    },
    {
      "midi": 77,
      "hit": false,
      "t": 356613.9102916743,
      "d": 195.12200000014855,
      "v": 51
    },
    {
      "midi": 62,
      "hit": false,
      "t": 356622.04037500767,
      "d": 158.53662500012433,
      "v": 25
    },
    {
      "midi": 65,
      "hit": false,
      "t": 356630.170458341,
      "d": 126.01629166671773,
      "v": 39
    },
    {
      "midi": 55,
      "hit": false,
      "t": 356634.2355000077,
      "d": 203.252083333442,
      "v": 32
    },
    {
      "midi": 58,
      "hit": false,
      "t": 356638.30054167437,
      "d": 142.27645833342103,
      "v": 28
    },
    {
      "midi": 57,
      "hit": false,
      "t": 356646.4306250077,
      "d": 121.95125000004191,
      "v": 26
    },
    {
      "midi": 64,
      "hit": false,
      "t": 357455.37391667446,
      "d": 85.3658750000177,
      "v": 54
    },
    {
      "midi": 88,
      "hit": false,
      "t": 357455.37391667446,
      "d": 97.56100000004517,
      "v": 87
    },
    {
      "midi": 58,
      "hit": false,
      "t": 357455.37391667446,
      "d": 162.60166666674195,
      "v": 59
    },
    {
      "midi": 76,
      "hit": false,
      "t": 357459.43895834114,
      "d": 101.626041666721,
      "v": 74
    },
    {
      "midi": 87,
      "hit": false,
      "t": 357556.9999583412,
      "d": 28.455291666672565,
      "v": 25
    },
    {
      "midi": 85,
      "hit": false,
      "t": 357707.4065000079,
      "d": 199.18704166676616,
      "v": 63
    },
    {
      "midi": 58,
      "hit": false,
      "t": 357715.53658334125,
      "d": 186.9919166667387,
      "v": 35
    },
    {
      "midi": 73,
      "hit": false,
      "t": 357719.6016250079,
      "d": 162.60166666668374,
      "v": 57
    },
    {
      "midi": 61,
      "hit": false,
      "t": 357731.79675000795,
      "d": 162.60166666668374,
      "v": 35
    },
    {
      "midi": 87,
      "hit": false,
      "t": 358544.80508334126,
      "d": 77.23579166672425,
      "v": 79
    },
    {
      "midi": 61,
      "hit": false,
      "t": 358548.87012500793,
      "d": 69.1057083333726,
      "v": 47
    },
    {
      "midi": 64,
      "hit": false,
      "t": 358552.9351666746,
      "d": 44.715458333375864,
      "v": 50
    },
    {
      "midi": 75,
      "hit": false,
      "t": 358552.9351666746,
      "d": 65.04066666669678,
      "v": 62
    },
    {
      "midi": 58,
      "hit": false,
      "t": 358561.06525000796,
      "d": 60.975625000020955,
      "v": 34
    },
    {
      "midi": 85,
      "hit": false,
      "t": 358719.60187500797,
      "d": 40.65041666664183,
      "v": 53
    },
    {
      "midi": 87,
      "hit": false,
      "t": 358870.0084166746,
      "d": 178.86183333344525,
      "v": 79
    },
    {
      "midi": 61,
      "hit": false,
      "t": 358870.0084166746,
      "d": 288.6179583334597,
      "v": 59
    },
    {
      "midi": 58,
      "hit": false,
      "t": 358874.0734583413,
      "d": 264.22770833346294,
      "v": 44
    },
    {
      "midi": 75,
      "hit": false,
      "t": 358882.20354167465,
      "d": 174.79679166676942,
      "v": 72
    },
    {
      "midi": 64,
      "hit": false,
      "t": 358890.333625008,
      "d": 146.34150000003865,
      "v": 56
    },
    {
      "midi": 88,
      "hit": false,
      "t": 359223.6670416747,
      "d": 73.17074999999022,
      "v": 69
    },
    {
      "midi": 76,
      "hit": false,
      "t": 359223.6670416747,
      "d": 85.3658750000177,
      "v": 68
    },
    {
      "midi": 64,
      "hit": false,
      "t": 359239.92720834137,
      "d": 166.66670833341777,
      "v": 38
    },
    {
      "midi": 60,
      "hit": false,
      "t": 359248.0572916747,
      "d": 146.34150000003865,
      "v": 40
    },
    {
      "midi": 53,
      "hit": false,
      "t": 359248.0572916747,
      "d": 158.53662500006612,
      "v": 39
    },
    {
      "midi": 57,
      "hit": false,
      "t": 359252.1223333414,
      "d": 158.53662500006612,
      "v": 37
    },
    {
      "midi": 84,
      "hit": false,
      "t": 359414.72400000814,
      "d": 65.04066666663857,
      "v": 36
    },
    {
      "midi": 64,
      "hit": false,
      "t": 359544.8053333414,
      "d": 211.38216666673543,
      "v": 55
    },
    {
      "midi": 88,
      "hit": false,
      "t": 359548.8703750081,
      "d": 239.837458333408,
      "v": 81
    },
    {
      "midi": 60,
      "hit": false,
      "t": 359552.93541667477,
      "d": 142.27645833336283,
      "v": 43
    },
    {
      "midi": 53,
      "hit": false,
      "t": 359557.00045834144,
      "d": 117.88620833336608,
      "v": 51
    },
    {
      "midi": 57,
      "hit": false,
      "t": 359557.00045834144,
      "d": 142.27645833336283,
      "v": 45
    },
    {
      "midi": 76,
      "hit": false,
      "t": 359557.00045834144,
      "d": 170.7317500000354,
      "v": 66
    },
    {
      "midi": 67,
      "hit": false,
      "t": 360004.15504167485,
      "d": 48.78050000005169,
      "v": 42
    },
    {
      "midi": 57,
      "hit": false,
      "t": 360008.2200833415,
      "d": 48.78050000005169,
      "v": 41
    },
    {
      "midi": 62,
      "hit": false,
      "t": 360008.2200833415,
      "d": 48.78050000005169,
      "v": 46
    },
    {
      "midi": 91,
      "hit": false,
      "t": 360016.3501666749,
      "d": 81.30083333334187,
      "v": 62
    },
    {
      "midi": 79,
      "hit": false,
      "t": 360024.48025000823,
      "d": 56.91058333334513,
      "v": 51
    },
    {
      "midi": 88,
      "hit": false,
      "t": 360183.0168750082,
      "d": 93.49595833331114,
      "v": 32
    },
    {
      "midi": 62,
      "hit": false,
      "t": 360341.5535000081,
      "d": 109.75612500001444,
      "v": 56
    },
    {
      "midi": 57,
      "hit": false,
      "t": 360345.6185416748,
      "d": 146.34149999998044,
      "v": 63
    },
    {
      "midi": 67,
      "hit": false,
      "t": 360349.6835833415,
      "d": 77.23579166666605,
      "v": 58
    },
    {
      "midi": 91,
      "hit": false,
      "t": 360349.6835833415,
      "d": 191.0569583332981,
      "v": 80
    },
    {
      "midi": 79,
      "hit": false,
      "t": 360357.81366667483,
      "d": 178.86183333327062,
      "v": 74
    },
    {
      "midi": 93,
      "hit": false,
      "t": 360707.40725000814,
      "d": 85.3658750000759,
      "v": 73
    },
    {
      "midi": 62,
      "hit": false,
      "t": 360719.60237500817,
      "d": 77.23579166672425,
      "v": 52
    },
    {
      "midi": 81,
      "hit": false,
      "t": 360719.60237500817,
      "d": 77.23579166672425,
      "v": 62
    },
    {
      "midi": 57,
      "hit": false,
      "t": 360723.66741667484,
      "d": 85.3658750000759,
      "v": 46
    },
    {
      "midi": 91,
      "hit": false,
      "t": 360727.7324583415,
      "d": 36.585375000024214,
      "v": 42
    },
    {
      "midi": 58,
      "hit": false,
      "t": 360727.7324583415,
      "d": 93.49595833342755,
      "v": 35
    },
    {
      "midi": 62,
      "hit": false,
      "t": 361004.15529167495,
      "d": 528.455416666693,
      "v": 44
    },
    {
      "midi": 57,
      "hit": false,
      "t": 361012.2853750083,
      "d": 487.804999999993,
      "v": 45
    },
    {
      "midi": 58,
      "hit": false,
      "t": 361024.4805000083,
      "d": 142.27645833336283,
      "v": 45
    },
    {
      "midi": 52,
      "hit": false,
      "t": 361032.6105833417,
      "d": 418.6992916666204,
      "v": 39
    },
    {
      "midi": 81,
      "hit": false,
      "t": 361036.67562500836,
      "d": 52.845541666669305,
      "v": 58
    },
    {
      "midi": 93,
      "hit": false,
      "t": 361040.74066667503,
      "d": 44.715458333317656,
      "v": 68
    },
    {
      "midi": 58,
      "hit": false,
      "t": 361353.7488750083,
      "d": 178.86183333332883,
      "v": 38
    },
    {
      "midi": 96,
      "hit": false,
      "t": 361467.57004167495,
      "d": 81.30083333334187,
      "v": 91
    },
    {
      "midi": 94,
      "hit": false,
      "t": 361613.9115416749,
      "d": 69.1057083333144,
      "v": 55
    },
    {
      "midi": 96,
      "hit": false,
      "t": 361739.9278333416,
      "d": 170.7317500000354,
      "v": 87
    },
    {
      "midi": 94,
      "hit": false,
      "t": 361853.7490000083,
      "d": 166.66670833335957,
      "v": 69
    },
    {
      "midi": 66,
      "hit": false,
      "t": 361882.20429167495,
      "d": 134.14637500001118,
      "v": 48
    },
    {
      "midi": 61,
      "hit": false,
      "t": 361886.2693333416,
      "d": 605.6912083333009,
      "v": 46
    },
    {
      "midi": 89,
      "hit": false,
      "t": 361983.8303333416,
      "d": 121.95125000004191,
      "v": 66
    },
    {
      "midi": 55,
      "hit": false,
      "t": 362032.61083334166,
      "d": 451.2196249999106,
      "v": 1
    },
    {
      "midi": 85,
      "hit": false,
      "t": 362122.0417500083,
      "d": 65.04066666663857,
      "v": 57
    },
    {
      "midi": 84,
      "hit": false,
      "t": 362223.66779167496,
      "d": 126.01629166665953,
      "v": 46
    },
    {
      "midi": 82,
      "hit": false,
      "t": 362390.33450000826,
      "d": 73.17074999999022,
      "v": 50
    },
    {
      "midi": 84,
      "hit": false,
      "t": 362524.4808750083,
      "d": 174.796791666653,
      "v": 68
    },
    {
      "midi": 81,
      "hit": false,
      "t": 362780.57850000827,
      "d": 32.52033333334839,
      "v": 28
    },
    {
      "midi": 57,
      "hit": false,
      "t": 362800.9037083416,
      "d": 195.12200000003213,
      "v": 27
    },
    {
      "midi": 53,
      "hit": false,
      "t": 362800.9037083416,
      "d": 203.25208333338378,
      "v": 34
    },
    {
      "midi": 50,
      "hit": false,
      "t": 362817.1638750083,
      "d": 528.4554166667513,
      "v": 20
    },
    {
      "midi": 81,
      "hit": false,
      "t": 362967.57041667495,
      "d": 203.25208333338378,
      "v": 55
    },
    {
      "midi": 76,
      "hit": false,
      "t": 363284.643666675,
      "d": 69.1057083333726,
      "v": 52
    },
    {
      "midi": 79,
      "hit": false,
      "t": 363443.1802916751,
      "d": 219.51225000002887,
      "v": 76
    },
    {
      "midi": 79,
      "hit": false,
      "t": 363772.44866667513,
      "d": 121.9512499999837,
      "v": 80
    },
    {
      "midi": 57,
      "hit": false,
      "t": 363800.9039583418,
      "d": 121.9512499999837,
      "v": 32
    },
    {
      "midi": 79,
      "hit": false,
      "t": 364077.3267916751,
      "d": 130.08133333333535,
      "v": 66
    },
    {
      "midi": 77,
      "hit": false,
      "t": 364178.9528333418,
      "d": 138.211416666687,
      "v": 57
    },
    {
      "midi": 76,
      "hit": false,
      "t": 364309.0341666751,
      "d": 89.43091666669352,
      "v": 51
    },
    {
      "midi": 57,
      "hit": false,
      "t": 364361.8797083418,
      "d": 97.56100000004517,
      "v": 28
    },
    {
      "midi": 73,
      "hit": false,
      "t": 364491.9610416752,
      "d": 264.2277083333465,
      "v": 42
    },
    {
      "midi": 76,
      "hit": false,
      "t": 364780.5790000085,
      "d": 138.211416666687,
      "v": 66
    },
    {
      "midi": 62,
      "hit": false,
      "t": 364784.6440416752,
      "d": 113.82116666669026,
      "v": 38
    },
    {
      "midi": 58,
      "hit": false,
      "t": 364784.6440416752,
      "d": 166.66670833335957,
      "v": 37
    },
    {
      "midi": 57,
      "hit": false,
      "t": 364809.0342916752,
      "d": 260.1626666667289,
      "v": 34
    },
    {
      "midi": 53,
      "hit": false,
      "t": 364849.68470834184,
      "d": 52.84554166672751,
      "v": 18
    },
    {
      "midi": 74,
      "hit": false,
      "t": 364983.8310833419,
      "d": 256.0976249999949,
      "v": 40
    },
    {
      "midi": 76,
      "hit": false,
      "t": 365016.35141667526,
      "d": 231.70737499999814,
      "v": 24
    },
    {
      "midi": 69,
      "hit": false,
      "t": 365272.44904167525,
      "d": 117.88620833330788,
      "v": 63
    },
    {
      "midi": 58,
      "hit": false,
      "t": 365317.16450000857,
      "d": 81.30083333334187,
      "v": 25
    },
    {
      "midi": 67,
      "hit": false,
      "t": 365455.37591667526,
      "d": 276.4228333333158,
      "v": 31
    },
    {
      "midi": 65,
      "hit": false,
      "t": 365776.5142083419,
      "d": 40.65041666670004,
      "v": 36
    },
    {
      "midi": 58,
      "hit": false,
      "t": 365825.29470834194,
      "d": 89.43091666669352,
      "v": 30
    },
    {
      "midi": 67,
      "hit": false,
      "t": 365939.11587500863,
      "d": 170.73174999997718,
      "v": 51
    },
    {
      "midi": 69,
      "hit": false,
      "t": 366154.5630833419,
      "d": 109.75612500001444,
      "v": 42
    },
    {
      "midi": 67,
      "hit": false,
      "t": 366231.7988750086,
      "d": 113.82116666669026,
      "v": 34
    },
    {
      "midi": 65,
      "hit": false,
      "t": 366382.2054166753,
      "d": 235.77241666667396,
      "v": 30
    },
    {
      "midi": 67,
      "hit": false,
      "t": 366699.2786666753,
      "d": 186.99191666668048,
      "v": 62
    },
    {
      "midi": 62,
      "hit": false,
      "t": 366723.6689166753,
      "d": 77.23579166666605,
      "v": 25
    },
    {
      "midi": 56,
      "hit": false,
      "t": 366723.6689166753,
      "d": 89.43091666669352,
      "v": 30
    },
    {
      "midi": 68,
      "hit": false,
      "t": 366963.50637500867,
      "d": 223.5772916666465,
      "v": 56
    },
    {
      "midi": 70,
      "hit": false,
      "t": 367223.66904167534,
      "d": 113.82116666669026,
      "v": 61
    },
    {
      "midi": 62,
      "hit": false,
      "t": 367260.25441667537,
      "d": 284.55291666666744,
      "v": 35
    },
    {
      "midi": 56,
      "hit": false,
      "t": 367304.9698750087,
      "d": 65.04066666669678,
      "v": 20
    },
    {
      "midi": 68,
      "hit": false,
      "t": 367418.7910416754,
      "d": 247.96754166664323,
      "v": 38
    },
    {
      "midi": 65,
      "hit": false,
      "t": 367711.47404167533,
      "d": 40.65041666664183,
      "v": 30
    },
    {
      "midi": 67,
      "hit": false,
      "t": 367861.880583342,
      "d": 223.5772916666465,
      "v": 44
    },
    {
      "midi": 62,
      "hit": false,
      "t": 368166.758708342,
      "d": 32.52033333334839,
      "v": 54
    },
    {
      "midi": 56,
      "hit": false,
      "t": 368187.0839166753,
      "d": 65.04066666669678,
      "v": 26
    },
    {
      "midi": 56,
      "hit": false,
      "t": 368658.6287500087,
      "d": 69.1057083333726,
      "v": 59
    },
    {
      "midi": 62,
      "hit": false,
      "t": 368666.75883334206,
      "d": 24.39024999999674,
      "v": 63
    },
    {
      "midi": 69,
      "hit": false,
      "t": 368666.75883334206,
      "d": 28.455291666672565,
      "v": 64
    },
    {
      "midi": 81,
      "hit": false,
      "t": 368670.82387500873,
      "d": 36.585375000024214,
      "v": 69
    },
    {
      "midi": 60,
      "hit": false,
      "t": 369126.10854167544,
      "d": 28.455291666730773,
      "v": 71
    },
    {
      "midi": 61,
      "hit": false,
      "t": 369126.10854167544,
      "d": 36.58537500008242,
      "v": 58
    },
    {
      "midi": 65,
      "hit": false,
      "t": 369134.2386250088,
      "d": 32.5203333334066,
      "v": 56
    },
    {
      "midi": 72,
      "hit": false,
      "t": 369138.30366667546,
      "d": 32.5203333334066,
      "v": 66
    },
    {
      "midi": 84,
      "hit": false,
      "t": 369142.36870834214,
      "d": 28.455291666730773,
      "v": 68
    },
    {
      "midi": 58,
      "hit": false,
      "t": 369146.4337500088,
      "d": 32.5203333334066,
      "v": 26
    },
    {
      "midi": 61,
      "hit": false,
      "t": 369284.64516667556,
      "d": 243.90250000014203,
      "v": 58
    },
    {
      "midi": 60,
      "hit": false,
      "t": 369288.71020834224,
      "d": 260.1626666668453,
      "v": 58
    },
    {
      "midi": 85,
      "hit": false,
      "t": 369292.7752500089,
      "d": 223.5772916667629,
      "v": 77
    },
    {
      "midi": 73,
      "hit": false,
      "t": 369292.7752500089,
      "d": 227.64233333343873,
      "v": 67
    },
    {
      "midi": 65,
      "hit": false,
      "t": 369296.8402916756,
      "d": 207.3171250000596,
      "v": 64
    },
    {
      "midi": 55,
      "hit": false,
      "t": 369300.90533334226,
      "d": 207.3171250000596,
      "v": 58
    },
    {
      "midi": 58,
      "hit": false,
      "t": 369313.1004583423,
      "d": 227.64233333343873,
      "v": 33
    },
    {
      "midi": 87,
      "hit": false,
      "t": 369626.10866667575,
      "d": 77.23579166666605,
      "v": 74
    },
    {
      "midi": 60,
      "hit": false,
      "t": 369626.10866667575,
      "d": 117.88620833330788,
      "v": 71
    },
    {
      "midi": 75,
      "hit": false,
      "t": 369630.1737083424,
      "d": 69.1057083333144,
      "v": 71
    },
    {
      "midi": 65,
      "hit": false,
      "t": 369646.43387500907,
      "d": 32.52033333334839,
      "v": 52
    },
    {
      "midi": 61,
      "hit": false,
      "t": 369646.43387500907,
      "d": 73.17074999999022,
      "v": 50
    },
    {
      "midi": 58,
      "hit": false,
      "t": 369658.6290000091,
      "d": 60.97562499996275,
      "v": 25
    },
    {
      "midi": 85,
      "hit": false,
      "t": 369780.5802500091,
      "d": 239.837458333408,
      "v": 60
    },
    {
      "midi": 73,
      "hit": false,
      "t": 369788.71033334243,
      "d": 260.1626666667289,
      "v": 51
    },
    {
      "midi": 60,
      "hit": false,
      "t": 369788.71033334243,
      "d": 272.3577916667564,
      "v": 18
    },
    {
      "midi": 65,
      "hit": false,
      "t": 369796.8404166758,
      "d": 211.38216666667722,
      "v": 37
    },
    {
      "midi": 61,
      "hit": false,
      "t": 369796.8404166758,
      "d": 272.3577916667564,
      "v": 56
    },
    {
      "midi": 55,
      "hit": false,
      "t": 369809.0355416758,
      "d": 215.44720833335305,
      "v": 38
    },
    {
      "midi": 61,
      "hit": false,
      "t": 370215.5397083425,
      "d": 105.69108333339682,
      "v": 48
    },
    {
      "midi": 65,
      "hit": false,
      "t": 370239.9299583425,
      "d": 32.52033333334839,
      "v": 32
    },
    {
      "midi": 84,
      "hit": false,
      "t": 370239.9299583425,
      "d": 97.56100000004517,
      "v": 64
    },
    {
      "midi": 72,
      "hit": false,
      "t": 370252.12508334254,
      "d": 158.53662500000792,
      "v": 57
    },
    {
      "midi": 55,
      "hit": false,
      "t": 370256.1901250092,
      "d": 60.975625000020955,
      "v": 25
    },
    {
      "midi": 60,
      "hit": false,
      "t": 370743.99512500927,
      "d": 276.422833333374,
      "v": 35
    },
    {
      "midi": 76,
      "hit": false,
      "t": 370748.06016667595,
      "d": 97.56100000004517,
      "v": 42
    },
    {
      "midi": 81,
      "hit": false,
      "t": 370748.06016667595,
      "d": 97.56100000004517,
      "v": 48
    },
    {
      "midi": 57,
      "hit": false,
      "t": 370752.1252083426,
      "d": 528.455416666693,
      "v": 29
    },
    {
      "midi": 69,
      "hit": false,
      "t": 370756.1902500093,
      "d": 142.27645833336283,
      "v": 44
    },
    {
      "midi": 50,
      "hit": false,
      "t": 370756.1902500093,
      "d": 528.455416666693,
      "v": 30
    },
    {
      "midi": 53,
      "hit": false,
      "t": 370760.255291676,
      "d": 520.3253333333414,
      "v": 41
    },
    {
      "midi": 60,
      "hit": false,
      "t": 371207.40987500927,
      "d": 154.4715833333903,
      "v": 10
    },
    {
      "midi": 77,
      "hit": false,
      "t": 371231.80012500926,
      "d": 1479.6751666667988,
      "v": 58
    },
    {
      "midi": 65,
      "hit": false,
      "t": 371239.9302083426,
      "d": 650.4066666666768,
      "v": 42
    },
    {
      "midi": 72,
      "hit": false,
      "t": 371248.06029167597,
      "d": 1422.7645833333954,
      "v": 48
    },
    {
      "midi": 68,
      "hit": false,
      "t": 372203.34508334263,
      "d": 410.5692083333852,
      "v": 74
    },
    {
      "midi": 61,
      "hit": false,
      "t": 372207.4101250093,
      "d": 467.4797916667303,
      "v": 51
    },
    {
      "midi": 63,
      "hit": false,
      "t": 372215.54020834266,
      "d": 426.82937500003027,
      "v": 55
    },
    {
      "midi": 57,
      "hit": false,
      "t": 372219.60525000934,
      "d": 321.13829166669166,
      "v": 50
    },
    {
      "midi": 67,
      "hit": false,
      "t": 372703.3452083427,
      "d": 414.6342500000028,
      "v": 55
    },
    {
      "midi": 56,
      "hit": false,
      "t": 372723.6704166761,
      "d": 760.1627916666912,
      "v": 40
    },
    {
      "midi": 62,
      "hit": false,
      "t": 372727.73545834277,
      "d": 195.12199999997392,
      "v": 41
    },
    {
      "midi": 62,
      "hit": false,
      "t": 373077.3290416761,
      "d": 158.53662500000792,
      "v": 30
    },
    {
      "midi": 72,
      "hit": false,
      "t": 373150.49979167606,
      "d": 154.4715833333903,
      "v": 38
    },
    {
      "midi": 73,
      "hit": false,
      "t": 373243.99575000943,
      "d": 56.91058333334513,
      "v": 46
    },
    {
      "midi": 74,
      "hit": false,
      "t": 373329.36162500945,
      "d": 138.211416666687,
      "v": 41
    },
    {
      "midi": 65,
      "hit": false,
      "t": 373532.6137083428,
      "d": 317.07325000001583,
      "v": 54
    },
    {
      "midi": 77,
      "hit": false,
      "t": 373536.67875000945,
      "d": 142.27645833336283,
      "v": 85
    },
    {
      "midi": 61,
      "hit": false,
      "t": 373540.7437916761,
      "d": 357.72366666665766,
      "v": 53
    },
    {
      "midi": 55,
      "hit": false,
      "t": 373540.7437916761,
      "d": 646.3416249999427,
      "v": 61
    },
    {
      "midi": 74,
      "hit": false,
      "t": 373861.8820833428,
      "d": 130.08133333327714,
      "v": 73
    },
    {
      "midi": 61,
      "hit": false,
      "t": 374036.6788750094,
      "d": 77.23579166666605,
      "v": 53
    },
    {
      "midi": 65,
      "hit": false,
      "t": 374166.76020834275,
      "d": 276.4228333333158,
      "v": 57
    },
    {
      "midi": 68,
      "hit": false,
      "t": 374479.7684166761,
      "d": 117.88620833336608,
      "v": 69
    },
    {
      "midi": 74,
      "hit": false,
      "t": 374483.83345834276,
      "d": 101.62604166666279,
      "v": 65
    },
    {
      "midi": 50,
      "hit": false,
      "t": 374500.0936250094,
      "d": 2455.2851666667266,
      "v": 66
    },
    {
      "midi": 49,
      "hit": false,
      "t": 374508.22370834276,
      "d": 36.585375000024214,
      "v": 44
    },
    {
      "midi": 67,
      "hit": false,
      "t": 374809.03679167613,
      "d": 158.53662500000792,
      "v": 58
    },
    {
      "midi": 74,
      "hit": false,
      "t": 374809.03679167613,
      "d": 178.86183333332883,
      "v": 68
    },
    {
      "midi": 65,
      "hit": false,
      "t": 375158.63037500944,
      "d": 247.96754166664323,
      "v": 60
    },
    {
      "midi": 62,
      "hit": false,
      "t": 375483.83370834275,
      "d": 93.49595833331114,
      "v": 66
    },
    {
      "midi": 57,
      "hit": false,
      "t": 375650.50041667605,
      "d": 227.6423333333223,
      "v": 47
    },
    {
      "midi": 57,
      "hit": false,
      "t": 375963.5086250094,
      "d": 85.3658750000177,
      "v": 48
    },
    {
      "midi": 55,
      "hit": false,
      "t": 376191.1509583427,
      "d": 191.0569583333563,
      "v": 75
    },
    {
      "midi": 49,
      "hit": false,
      "t": 376418.7932916761,
      "d": 32.52033333334839,
      "v": 35
    },
    {
      "midi": 53,
      "hit": false,
      "t": 376589.5250416761,
      "d": 239.8374583333498,
      "v": 70
    },
    {
      "midi": 53,
      "hit": false,
      "t": 376926.92350000946,
      "d": 77.23579166666605,
      "v": 53
    },
    {
      "midi": 50,
      "hit": false,
      "t": 377089.52516667615,
      "d": 406.50416666665114,
      "v": 32
    },
    {
      "midi": 48,
      "hit": false,
      "t": 377109.85037500947,
      "d": 28.455291666672565,
      "v": 27
    },
    {
      "midi": 49,
      "hit": false,
      "t": 377410.6634583428,
      "d": 28.455291666672565,
      "v": 39
    },
    {
      "midi": 52,
      "hit": false,
      "t": 377548.87487500947,
      "d": 272.35779166663997,
      "v": 66
    },
    {
      "midi": 53,
      "hit": false,
      "t": 377874.0782083428,
      "d": 146.34149999998044,
      "v": 67
    },
    {
      "midi": 50,
      "hit": false,
      "t": 377878.14325000945,
      "d": 40.65041666664183,
      "v": 47
    },
    {
      "midi": 55,
      "hit": false,
      "t": 378101.7205416761,
      "d": 227.6423333333223,
      "v": 50
    },
    {
      "midi": 57,
      "hit": false,
      "t": 378374.07833334274,
      "d": 134.14637500001118,
      "v": 65
    },
    {
      "midi": 58,
      "hit": false,
      "t": 378589.5255416761,
      "d": 191.0569583333563,
      "v": 51
    },
    {
      "midi": 62,
      "hit": false,
      "t": 378878.14350000944,
      "d": 109.75612499995623,
      "v": 71
    },
    {
      "midi": 57,
      "hit": false,
      "t": 378922.85895834275,
      "d": 44.715458333317656,
      "v": 30
    },
    {
      "midi": 57,
      "hit": false,
      "t": 379065.13541667606,
      "d": 109.75612500007264,
      "v": 35
    },
    {
      "midi": 65,
      "hit": false,
      "t": 379065.13541667606,
      "d": 223.5772916667629,
      "v": 50
    },
    {
      "midi": 58,
      "hit": false,
      "t": 379097.6557500094,
      "d": 36.585375000024214,
      "v": 25
    },
    {
      "midi": 69,
      "hit": false,
      "t": 379361.8834583428,
      "d": 113.82116666669026,
      "v": 78
    },
    {
      "midi": 57,
      "hit": false,
      "t": 379378.14362500946,
      "d": 48.78049999999348,
      "v": 39
    },
    {
      "midi": 62,
      "hit": false,
      "t": 379382.20866667613,
      "d": 40.65041666664183,
      "v": 39
    },
    {
      "midi": 58,
      "hit": false,
      "t": 379382.20866667613,
      "d": 73.17074999999022,
      "v": 42
    },
    {
      "midi": 57,
      "hit": false,
      "t": 379520.4200833428,
      "d": 589.4310416667722,
      "v": 65
    },
    {
      "midi": 58,
      "hit": false,
      "t": 379528.55016667617,
      "d": 247.96754166670144,
      "v": 71
    },
    {
      "midi": 62,
      "hit": false,
      "t": 379528.55016667617,
      "d": 247.96754166670144,
      "v": 68
    },
    {
      "midi": 70,
      "hit": false,
      "t": 379532.61520834285,
      "d": 223.5772916667047,
      "v": 88
    },
    {
      "midi": 69,
      "hit": false,
      "t": 379577.33066667616,
      "d": 166.66670833335957,
      "v": 68
    },
    {
      "midi": 72,
      "hit": false,
      "t": 379849.68845834286,
      "d": 126.01629166671773,
      "v": 83
    },
    {
      "midi": 62,
      "hit": false,
      "t": 379861.8835833429,
      "d": 65.04066666669678,
      "v": 62
    },
    {
      "midi": 58,
      "hit": false,
      "t": 379865.94862500957,
      "d": 272.3577916666982,
      "v": 69
    },
    {
      "midi": 70,
      "hit": false,
      "t": 380036.6803750096,
      "d": 252.03258333331905,
      "v": 63
    },
    {
      "midi": 62,
      "hit": false,
      "t": 380036.6803750096,
      "d": 268.29274999996414,
      "v": 44
    },
    {
      "midi": 61,
      "hit": false,
      "t": 380341.5585000096,
      "d": 329.2683749999851,
      "v": 58
    },
    {
      "midi": 55,
      "hit": false,
      "t": 380345.62354167626,
      "d": 300.81308333331253,
      "v": 56
    },
    {
      "midi": 69,
      "hit": false,
      "t": 380345.62354167626,
      "d": 422.76433333329624,
      "v": 70
    },
    {
      "midi": 61,
      "hit": false,
      "t": 380837.4935833429,
      "d": 73.17074999999022,
      "v": 50
    },
    {
      "midi": 54,
      "hit": false,
      "t": 380971.6399583428,
      "d": 44.715458333375864,
      "v": 63
    },
    {
      "midi": 61,
      "hit": false,
      "t": 380979.7700416762,
      "d": 268.29275000002235,
      "v": 57
    },
    {
      "midi": 73,
      "hit": false,
      "t": 380987.90012500953,
      "d": 288.61795833334327,
      "v": 81
    },
    {
      "midi": 66,
      "hit": false,
      "t": 380996.0302083429,
      "d": 231.70737499999814,
      "v": 73
    },
    {
      "midi": 55,
      "hit": false,
      "t": 381069.2009583429,
      "d": 105.69108333333861,
      "v": 19
    },
    {
      "midi": 75,
      "hit": false,
      "t": 381304.97337500955,
      "d": 227.64233333338052,
      "v": 78
    },
    {
      "midi": 66,
      "hit": false,
      "t": 381313.1034583429,
      "d": 81.30083333334187,
      "v": 46
    },
    {
      "midi": 61,
      "hit": false,
      "t": 381321.23354167625,
      "d": 121.9512499999837,
      "v": 53
    },
    {
      "midi": 55,
      "hit": false,
      "t": 381333.4286666763,
      "d": 44.715458333317656,
      "v": 51
    },
    {
      "midi": 66,
      "hit": false,
      "t": 381491.9652916762,
      "d": 166.66670833335957,
      "v": 46
    },
    {
      "midi": 61,
      "hit": false,
      "t": 381491.9652916762,
      "d": 203.25208333338378,
      "v": 37
    },
    {
      "midi": 73,
      "hit": false,
      "t": 381500.0953750096,
      "d": 256.0976250000531,
      "v": 56
    },
    {
      "midi": 55,
      "hit": false,
      "t": 381508.22545834293,
      "d": 89.43091666663531,
      "v": 47
    },
    {
      "midi": 61,
      "hit": false,
      "t": 381796.8434166763,
      "d": 288.61795833328506,
      "v": 45
    },
    {
      "midi": 55,
      "hit": false,
      "t": 381813.1035833429,
      "d": 247.96754166664323,
      "v": 60
    },
    {
      "midi": 72,
      "hit": false,
      "t": 381813.1035833429,
      "d": 353.65862499998184,
      "v": 58
    },
    {
      "midi": 67,
      "hit": false,
      "t": 382430.98991667625,
      "d": 174.79679166671121,
      "v": 58
    },
    {
      "midi": 72,
      "hit": false,
      "t": 382430.98991667625,
      "d": 239.837458333408,
      "v": 56
    },
    {
      "midi": 61,
      "hit": false,
      "t": 382430.98991667625,
      "d": 243.90250000008382,
      "v": 67
    },
    {
      "midi": 79,
      "hit": false,
      "t": 382435.0549583429,
      "d": 199.18704166670796,
      "v": 65
    },
    {
      "midi": 76,
      "hit": false,
      "t": 382439.1200000096,
      "d": 264.22770833340473,
      "v": 49
    },
    {
      "midi": 81,
      "hit": false,
      "t": 382772.4534166763,
      "d": 89.43091666675173,
      "v": 79
    },
    {
      "midi": 72,
      "hit": false,
      "t": 382784.64854167635,
      "d": 69.1057083333726,
      "v": 37
    },
    {
      "midi": 60,
      "hit": false,
      "t": 382784.64854167635,
      "d": 77.23579166672425,
      "v": 54
    },
    {
      "midi": 76,
      "hit": false,
      "t": 382784.64854167635,
      "d": 93.49595833336934,
      "v": 55
    },
    {
      "midi": 69,
      "hit": false,
      "t": 382792.7786250097,
      "d": 52.845541666669305,
      "v": 46
    },
    {
      "midi": 71,
      "hit": false,
      "t": 382809.03879167634,
      "d": 28.455291666672565,
      "v": 45
    },
    {
      "midi": 79,
      "hit": false,
      "t": 382939.12012500974,
      "d": 109.75612499995623,
      "v": 37
    },
    {
      "midi": 60,
      "hit": false,
      "t": 382943.1851666764,
      "d": 235.77241666661575,
      "v": 13
    },
    {
      "midi": 57,
      "hit": false,
      "t": 382947.2502083431,
      "d": 410.5692083333852,
      "v": 40
    },
    {
      "midi": 67,
      "hit": false,
      "t": 383032.61608334305,
      "d": 77.23579166666605,
      "v": 15
    },
    {
      "midi": 77,
      "hit": false,
      "t": 383264.32345834305,
      "d": 508.13020833337214,
      "v": 52
    },
    {
      "midi": 72,
      "hit": false,
      "t": 383276.5185833431,
      "d": 398.3740833333577,
      "v": 57
    },
    {
      "midi": 65,
      "hit": false,
      "t": 383280.58362500975,
      "d": 276.422833333374,
      "v": 52
    },
    {
      "midi": 50,
      "hit": false,
      "t": 383284.6486666764,
      "d": 560.975749999925,
      "v": 43
    },
    {
      "midi": 60,
      "hit": false,
      "t": 383296.84379167645,
      "d": 528.4554166665766,
      "v": 40
    },
    {
      "midi": 57,
      "hit": false,
      "t": 383723.6731666764,
      "d": 130.08133333327714,
      "v": 66
    },
    {
      "midi": 65,
      "hit": false,
      "t": 384402.5351250097,
      "d": 634.1465000000317,
      "v": 44
    },
    {
      "midi": 60,
      "hit": false,
      "t": 384406.6001666764,
      "d": 719.5123749999912,
      "v": 45
    },
    {
      "midi": 54,
      "hit": false,
      "t": 384414.73025000974,
      "d": 1540.650791666645,
      "v": 35
    },
    {
      "midi": 58,
      "hit": false,
      "t": 384422.8603333431,
      "d": 849.5937083332683,
      "v": 34
    },
    {
      "midi": 95,
      "hit": false,
      "t": 384930.9905416764,
      "d": 85.3658750000177,
      "v": 80
    },
    {
      "midi": 98,
      "hit": false,
      "t": 385085.46212500974,
      "d": 134.14637499995297,
      "v": 89
    },
    {
      "midi": 96,
      "hit": false,
      "t": 385272.45404167636,
      "d": 126.01629166665953,
      "v": 80
    },
    {
      "midi": 64,
      "hit": false,
      "t": 385304.9743750097,
      "d": 219.51224999997066,
      "v": 40
    },
    {
      "midi": 60,
      "hit": false,
      "t": 385304.9743750097,
      "d": 524.3903750000172,
      "v": 38
    },
    {
      "midi": 92,
      "hit": false,
      "t": 385459.44595834304,
      "d": 735.7725416666945,
      "v": 68
    },
    {
      "midi": 64,
      "hit": false,
      "t": 385760.25904167636,
      "d": 56.91058333334513,
      "v": 40
    },
    {
      "midi": 58,
      "hit": false,
      "t": 386187.0884166764,
      "d": 808.9432916666847,
      "v": 45
    },
    {
      "midi": 88,
      "hit": false,
      "t": 386191.15345834306,
      "d": 150.40654166671447,
      "v": 59
    },
    {
      "midi": 62,
      "hit": false,
      "t": 386195.21850000974,
      "d": 699.1871666666702,
      "v": 51
    },
    {
      "midi": 53,
      "hit": false,
      "t": 386195.21850000974,
      "d": 760.1627916666912,
      "v": 51
    },
    {
      "midi": 57,
      "hit": false,
      "t": 386203.3485833431,
      "d": 666.6668333333218,
      "v": 36
    },
    {
      "midi": 85,
      "hit": false,
      "t": 386435.0559583431,
      "d": 117.88620833330788,
      "v": 35
    },
    {
      "midi": 86,
      "hit": false,
      "t": 386581.39745834307,
      "d": 105.69108333333861,
      "v": 51
    },
    {
      "midi": 89,
      "hit": false,
      "t": 386719.60887500976,
      "d": 109.75612500001444,
      "v": 74
    },
    {
      "midi": 86,
      "hit": false,
      "t": 386898.4707083431,
      "d": 264.2277083333465,
      "v": 64
    },
    {
      "midi": 81,
      "hit": false,
      "t": 387211.4789166764,
      "d": 73.17074999999022,
      "v": 52
    },
    {
      "midi": 58,
      "hit": false,
      "t": 387211.4789166764,
      "d": 300.81308333331253,
      "v": 29
    },
    {
      "midi": 62,
      "hit": false,
      "t": 387211.4789166764,
      "d": 487.804999999993,
      "v": 40
    },
    {
      "midi": 84,
      "hit": false,
      "t": 387370.01554167643,
      "d": 268.29274999996414,
      "v": 76
    },
    {
      "midi": 55,
      "hit": false,
      "t": 387496.0318333431,
      "d": 382.1139166667126,
      "v": 1
    },
    {
      "midi": 57,
      "hit": false,
      "t": 387711.47904167644,
      "d": 113.82116666669026,
      "v": 16
    },
    {
      "midi": 82,
      "hit": false,
      "t": 387817.1701250098,
      "d": 260.1626666666707,
      "v": 74
    },
    {
      "midi": 78,
      "hit": false,
      "t": 388142.3734583431,
      "d": 36.585375000024214,
      "v": 27
    },
    {
      "midi": 58,
      "hit": false,
      "t": 388166.7637083431,
      "d": 199.18704166670796,
      "v": 28
    },
    {
      "midi": 79,
      "hit": false,
      "t": 388317.1702500098,
      "d": 65.04066666663857,
      "v": 68
    },
    {
      "midi": 81,
      "hit": false,
      "t": 388410.6662083431,
      "d": 121.9512499999837,
      "v": 47
    },
    {
      "midi": 79,
      "hit": false,
      "t": 388512.2922500098,
      "d": 105.69108333333861,
      "v": 48
    },
    {
      "midi": 78,
      "hit": false,
      "t": 388634.24350000976,
      "d": 105.69108333333861,
      "v": 38
    },
    {
      "midi": 76,
      "hit": false,
      "t": 388776.5199583431,
      "d": 93.49595833331114,
      "v": 26
    },
    {
      "midi": 61,
      "hit": false,
      "t": 389138.30866667646,
      "d": 36.585375000024214,
      "v": 46
    },
    {
      "midi": 58,
      "hit": false,
      "t": 389142.37370834313,
      "d": 89.43091666669352,
      "v": 49
    },
    {
      "midi": 87,
      "hit": false,
      "t": 389264.3249583432,
      "d": 126.01629166665953,
      "v": 65
    },
    {
      "midi": 85,
      "hit": false,
      "t": 389337.49570834317,
      "d": 113.82116666669026,
      "v": 55
    },
    {
      "midi": 82,
      "hit": false,
      "t": 389378.1461250098,
      "d": 121.95125000004191,
      "v": 56
    },
    {
      "midi": 80,
      "hit": false,
      "t": 389443.1867916765,
      "d": 101.62604166666279,
      "v": 40
    },
    {
      "midi": 76,
      "hit": false,
      "t": 389589.5282916765,
      "d": 40.65041666664183,
      "v": 24
    },
    {
      "midi": 75,
      "hit": false,
      "t": 389666.76408334315,
      "d": 93.49595833336934,
      "v": 52
    },
    {
      "midi": 58,
      "hit": false,
      "t": 389719.6096250098,
      "d": 288.6179583334015,
      "v": 30
    },
    {
      "midi": 52,
      "hit": false,
      "t": 389723.6746666765,
      "d": 219.51225000002887,
      "v": 34
    },
    {
      "midi": 73,
      "hit": false,
      "t": 389837.4958333432,
      "d": 113.82116666669026,
      "v": 54
    },
    {
      "midi": 72,
      "hit": false,
      "t": 389971.6422083432,
      "d": 40.65041666670004,
      "v": 40
    },
    {
      "midi": 70,
      "hit": false,
      "t": 390073.2682500099,
      "d": 60.975625000020955,
      "v": 54
    },
    {
      "midi": 69,
      "hit": false,
      "t": 390162.6991666766,
      "d": 60.975625000020955,
      "v": 40
    },
    {
      "midi": 68,
      "hit": false,
      "t": 390264.3252083433,
      "d": 73.17074999999022,
      "v": 55
    },
    {
      "midi": 53,
      "hit": false,
      "t": 390296.8455416766,
      "d": 85.36587499995949,
      "v": 24
    },
    {
      "midi": 70,
      "hit": false,
      "t": 390378.1463750099,
      "d": 134.14637500001118,
      "v": 74
    },
    {
      "midi": 68,
      "hit": false,
      "t": 390528.55291667656,
      "d": 32.52033333334839,
      "v": 56
    },
    {
      "midi": 69,
      "hit": false,
      "t": 390622.04887500993,
      "d": 113.82116666669026,
      "v": 71
    },
    {
      "midi": 64,
      "hit": false,
      "t": 390813.1058333433,
      "d": 56.91058333334513,
      "v": 67
    },
    {
      "midi": 60,
      "hit": false,
      "t": 391024.48800000997,
      "d": 48.78049999999348,
      "v": 55
    },
    {
      "midi": 58,
      "hit": false,
      "t": 391178.9595833433,
      "d": 89.43091666669352,
      "v": 47
    },
    {
      "midi": 57,
      "hit": false,
      "t": 391313.1059583433,
      "d": 146.34149999998044,
      "v": 37
    },
    {
      "midi": 57,
      "hit": false,
      "t": 391601.7239166766,
      "d": 73.17074999999022,
      "v": 71
    },
    {
      "midi": 57,
      "hit": false,
      "t": 391809.0410416766,
      "d": 89.43091666669352,
      "v": 57
    },
    {
      "midi": 57,
      "hit": false,
      "t": 392089.52891667665,
      "d": 81.30083333334187,
      "v": 70
    },
    {
      "midi": 76,
      "hit": false,
      "t": 392918.79741667665,
      "d": 73.17075000004843,
      "v": 80
    },
    {
      "midi": 84,
      "hit": false,
      "t": 392918.79741667665,
      "d": 77.23579166672425,
      "v": 78
    },
    {
      "midi": 73,
      "hit": false,
      "t": 392930.9925416767,
      "d": 113.82116666674847,
      "v": 70
    },
    {
      "midi": 82,
      "hit": false,
      "t": 392935.05758334335,
      "d": 77.23579166672425,
      "v": 48
    },
    {
      "midi": 72,
      "hit": false,
      "t": 392939.12262501003,
      "d": 65.04066666669678,
      "v": 78
    },
    {
      "midi": 79,
      "hit": false,
      "t": 392955.3827916767,
      "d": 36.585375000024214,
      "v": 37
    },
    {
      "midi": 82,
      "hit": false,
      "t": 393146.4397500101,
      "d": 32.52033333334839,
      "v": 30
    },
    {
      "midi": 70,
      "hit": false,
      "t": 393219.6105000101,
      "d": 199.18704166670796,
      "v": 73
    },
    {
      "midi": 81,
      "hit": false,
      "t": 393223.67554167676,
      "d": 130.08133333333535,
      "v": 60
    },
    {
      "midi": 73,
      "hit": false,
      "t": 393223.67554167676,
      "d": 178.86183333338704,
      "v": 63
    },
    {
      "midi": 76,
      "hit": false,
      "t": 393239.9357083434,
      "d": 150.40654166671447,
      "v": 60
    },
    {
      "midi": 69,
      "hit": false,
      "t": 393239.9357083434,
      "d": 215.44720833341125,
      "v": 64
    },
    {
      "midi": 78,
      "hit": false,
      "t": 393524.4886250101,
      "d": 178.86183333332883,
      "v": 70
    },
    {
      "midi": 66,
      "hit": false,
      "t": 393544.81383334345,
      "d": 130.08133333333535,
      "v": 47
    },
    {
      "midi": 70,
      "hit": false,
      "t": 393548.8788750101,
      "d": 105.69108333333861,
      "v": 67
    },
    {
      "midi": 67,
      "hit": false,
      "t": 393552.9439166768,
      "d": 117.88620833330788,
      "v": 45
    },
    {
      "midi": 69,
      "hit": false,
      "t": 393569.20408334344,
      "d": 28.455291666672565,
      "v": 49
    },
    {
      "midi": 63,
      "hit": false,
      "t": 393723.6756666768,
      "d": 284.55291666666744,
      "v": 30
    },
    {
      "midi": 67,
      "hit": false,
      "t": 393764.3260833434,
      "d": 36.585375000024214,
      "v": 26
    },
    {
      "midi": 79,
      "hit": false,
      "t": 394024.4887500101,
      "d": 101.626041666721,
      "v": 71
    },
    {
      "midi": 64,
      "hit": false,
      "t": 394028.55379167676,
      "d": 89.43091666669352,
      "v": 60
    },
    {
      "midi": 69,
      "hit": false,
      "t": 394032.61883334344,
      "d": 117.88620833336608,
      "v": 71
    },
    {
      "midi": 73,
      "hit": false,
      "t": 394032.61883334344,
      "d": 134.14637500001118,
      "v": 71
    },
    {
      "midi": 77,
      "hit": false,
      "t": 394219.6107500101,
      "d": 121.95125000004191,
      "v": 51
    },
    {
      "midi": 69,
      "hit": false,
      "t": 394231.80587501015,
      "d": 170.7317500000354,
      "v": 39
    },
    {
      "midi": 72,
      "hit": false,
      "t": 394239.9359583435,
      "d": 113.82116666669026,
      "v": 52
    },
    {
      "midi": 62,
      "hit": false,
      "t": 394239.9359583435,
      "d": 280.4878749999916,
      "v": 36
    },
    {
      "midi": 76,
      "hit": false,
      "t": 394528.55391667684,
      "d": 117.88620833336608,
      "v": 69
    },
    {
      "midi": 61,
      "hit": false,
      "t": 394548.87912501016,
      "d": 142.27645833336283,
      "v": 47
    },
    {
      "midi": 69,
      "hit": false,
      "t": 394552.94416667684,
      "d": 113.82116666669026,
      "v": 62
    },
    {
      "midi": 65,
      "hit": false,
      "t": 394557.0092083435,
      "d": 81.30083333334187,
      "v": 49
    },
    {
      "midi": 74,
      "hit": false,
      "t": 394719.6108750102,
      "d": 93.49595833331114,
      "v": 38
    },
    {
      "midi": 60,
      "hit": false,
      "t": 394719.6108750102,
      "d": 235.77241666661575,
      "v": 40
    },
    {
      "midi": 65,
      "hit": false,
      "t": 394760.26129167684,
      "d": 97.56099999998696,
      "v": 32
    },
    {
      "midi": 57,
      "hit": false,
      "t": 395004.1637916768,
      "d": 146.34150000003865,
      "v": 40
    },
    {
      "midi": 69,
      "hit": false,
      "t": 395012.29387501016,
      "d": 195.12199999997392,
      "v": 55
    },
    {
      "midi": 62,
      "hit": false,
      "t": 395020.4239583435,
      "d": 101.62604166666279,
      "v": 50
    },
    {
      "midi": 65,
      "hit": false,
      "t": 395024.4890000102,
      "d": 89.43091666663531,
      "v": 51
    },
    {
      "midi": 53,
      "hit": false,
      "t": 395191.1557083435,
      "d": 85.3658750000177,
      "v": 40
    },
    {
      "midi": 62,
      "hit": false,
      "t": 395215.5459583435,
      "d": 239.8374583333498,
      "v": 36
    },
    {
      "midi": 65,
      "hit": false,
      "t": 395235.8711666768,
      "d": 93.49595833336934,
      "v": 16
    },
    {
      "midi": 50,
      "hit": false,
      "t": 395516.35904167686,
      "d": 219.51225000002887,
      "v": 38
    },
    {
      "midi": 54,
      "hit": false,
      "t": 395638.31029167684,
      "d": 252.03258333337726,
      "v": 44
    },
    {
      "midi": 44,
      "hit": false,
      "t": 395650.50541667687,
      "d": 272.3577916666982,
      "v": 38
    },
    {
      "midi": 59,
      "hit": false,
      "t": 395658.6355000102,
      "d": 215.44720833335305,
      "v": 43
    },
    {
      "midi": 50,
      "hit": false,
      "t": 395914.7331250102,
      "d": 89.43091666669352,
      "v": 44
    },
    {
      "midi": 58,
      "hit": false,
      "t": 395951.31850001024,
      "d": 467.4797916666721,
      "v": 56
    },
    {
      "midi": 53,
      "hit": false,
      "t": 396012.29412501026,
      "d": 487.804999999993,
      "v": 32
    },
    {
      "midi": 43,
      "hit": false,
      "t": 396024.4892500103,
      "d": 451.2196249999688,
      "v": 38
    },
    {
      "midi": 57,
      "hit": false,
      "t": 396426.92837501026,
      "d": 85.3658750000177,
      "v": 57
    },
    {
      "midi": 50,
      "hit": false,
      "t": 396447.2535833436,
      "d": 73.17075000004843,
      "v": 36
    },
    {
      "midi": 58,
      "hit": false,
      "t": 396605.79020834365,
      "d": 32.52033333334839,
      "v": 34
    },
    {
      "midi": 62,
      "hit": false,
      "t": 396748.066666677,
      "d": 81.30083333334187,
      "v": 54
    },
    {
      "midi": 65,
      "hit": false,
      "t": 396902.53825001034,
      "d": 85.3658750000177,
      "v": 66
    },
    {
      "midi": 57,
      "hit": false,
      "t": 396959.4488333437,
      "d": 231.70737500005635,
      "v": 31
    },
    {
      "midi": 69,
      "hit": false,
      "t": 397081.4000833437,
      "d": 77.23579166672425,
      "v": 79
    },
    {
      "midi": 62,
      "hit": false,
      "t": 397089.530166677,
      "d": 52.845541666669305,
      "v": 40
    },
    {
      "midi": 58,
      "hit": false,
      "t": 397117.9854583437,
      "d": 32.52033333334839,
      "v": 25
    },
    {
      "midi": 70,
      "hit": false,
      "t": 397227.74158334377,
      "d": 93.49595833336934,
      "v": 76
    },
    {
      "midi": 57,
      "hit": false,
      "t": 397231.80662501045,
      "d": 292.6830000000191,
      "v": 17
    },
    {
      "midi": 62,
      "hit": false,
      "t": 397239.9367083438,
      "d": 77.23579166666605,
      "v": 43
    },
    {
      "midi": 69,
      "hit": false,
      "t": 397398.4733333438,
      "d": 109.75612500001444,
      "v": 74
    },
    {
      "midi": 62,
      "hit": false,
      "t": 397406.60341667716,
      "d": 69.1057083333144,
      "v": 44
    },
    {
      "midi": 58,
      "hit": false,
      "t": 397435.05870834383,
      "d": 40.65041666664183,
      "v": 30
    },
    {
      "midi": 57,
      "hit": false,
      "t": 397585.4652500105,
      "d": 178.86183333332883,
      "v": 24
    },
    {
      "midi": 65,
      "hit": false,
      "t": 397593.59533334384,
      "d": 284.55291666666744,
      "v": 53
    },
    {
      "midi": 58,
      "hit": false,
      "t": 397609.8555000105,
      "d": 52.845541666669305,
      "v": 31
    },
    {
      "midi": 57,
      "hit": false,
      "t": 397898.4734583438,
      "d": 56.91058333340334,
      "v": 36
    },
    {
      "midi": 62,
      "hit": false,
      "t": 397910.66858334385,
      "d": 32.52033333334839,
      "v": 51
    },
    {
      "midi": 67,
      "hit": false,
      "t": 398552.94516667724,
      "d": 73.17074999999022,
      "v": 59
    },
    {
      "midi": 62,
      "hit": false,
      "t": 398552.94516667724,
      "d": 105.69108333333861,
      "v": 57
    },
    {
      "midi": 72,
      "hit": false,
      "t": 398557.0102083439,
      "d": 105.69108333333861,
      "v": 83
    },
    {
      "midi": 56,
      "hit": false,
      "t": 398557.0102083439,
      "d": 235.77241666667396,
      "v": 53
    },
    {
      "midi": 74,
      "hit": false,
      "t": 398707.41675001057,
      "d": 113.82116666669026,
      "v": 74
    },
    {
      "midi": 62,
      "hit": false,
      "t": 398744.0021250106,
      "d": 48.78049999999348,
      "v": 24
    },
    {
      "midi": 56,
      "hit": false,
      "t": 398870.01841667725,
      "d": 81.30083333334187,
      "v": 36
    },
    {
      "midi": 72,
      "hit": false,
      "t": 398870.01841667725,
      "d": 109.75612500007264,
      "v": 68
    },
    {
      "midi": 62,
      "hit": false,
      "t": 398874.0834583439,
      "d": 89.43091666669352,
      "v": 57
    },
    {
      "midi": 67,
      "hit": false,
      "t": 398882.2135416773,
      "d": 40.65041666664183,
      "v": 35
    },
    {
      "midi": 62,
      "hit": false,
      "t": 399057.010333344,
      "d": 117.88620833336608,
      "v": 39
    },
    {
      "midi": 56,
      "hit": false,
      "t": 399065.14041667734,
      "d": 130.08133333333535,
      "v": 31
    },
    {
      "midi": 70,
      "hit": false,
      "t": 399065.14041667734,
      "d": 321.13829166669166,
      "v": 56
    },
    {
      "midi": 67,
      "hit": false,
      "t": 399089.53066667734,
      "d": 44.715458333317656,
      "v": 24
    },
    {
      "midi": 68,
      "hit": false,
      "t": 399374.083583344,
      "d": 60.975625000020955,
      "v": 62
    },
    {
      "midi": 62,
      "hit": false,
      "t": 399378.1486250107,
      "d": 85.3658750000177,
      "v": 49
    },
    {
      "midi": 56,
      "hit": false,
      "t": 399386.27870834403,
      "d": 333.3334166666609,
      "v": 46
    },
    {
      "midi": 76,
      "hit": false,
      "t": 399800.91295834404,
      "d": 101.626041666721,
      "v": 92
    },
    {
      "midi": 61,
      "hit": false,
      "t": 399804.9780000107,
      "d": 264.2277083333465,
      "v": 72
    },
    {
      "midi": 66,
      "hit": false,
      "t": 399804.9780000107,
      "d": 524.3903750000754,
      "v": 74
    },
    {
      "midi": 55,
      "hit": false,
      "t": 399809.0430416774,
      "d": 256.0976249999949,
      "v": 74
    },
    {
      "midi": 77,
      "hit": false,
      "t": 399947.2544583441,
      "d": 142.27645833330462,
      "v": 80
    },
    {
      "midi": 76,
      "hit": false,
      "t": 400117.98620834405,
      "d": 207.3171250000596,
      "v": 69
    },
    {
      "midi": 55,
      "hit": false,
      "t": 400130.1813333441,
      "d": 203.25208333338378,
      "v": 20
    },
    {
      "midi": 61,
      "hit": false,
      "t": 400134.24637501076,
      "d": 154.4715833333321,
      "v": 55
    },
    {
      "midi": 61,
      "hit": false,
      "t": 400382.21391667746,
      "d": 345.5285416666884,
      "v": 37
    },
    {
      "midi": 55,
      "hit": false,
      "t": 400382.21391667746,
      "d": 634.1465000000899,
      "v": 22
    },
    {
      "midi": 73,
      "hit": false,
      "t": 400390.3440000108,
      "d": 166.66670833335957,
      "v": 75
    },
    {
      "midi": 64,
      "hit": false,
      "t": 400581.40095834417,
      "d": 89.43091666663531,
      "v": 37
    },
    {
      "midi": 72,
      "hit": false,
      "t": 400605.79120834416,
      "d": 191.0569583332981,
      "v": 28
    },
    {
      "midi": 70,
      "hit": false,
      "t": 400874.0839583441,
      "d": 121.95125000004191,
      "v": 72
    },
    {
      "midi": 61,
      "hit": false,
      "t": 400878.1490000108,
      "d": 130.08133333339356,
      "v": 51
    },
    {
      "midi": 64,
      "hit": false,
      "t": 400890.34412501083,
      "d": 44.715458333317656,
      "v": 48
    },
    {
      "midi": 69,
      "hit": false,
      "t": 401073.2710000109,
      "d": 227.6423333333223,
      "v": 48
    },
    {
      "midi": 67,
      "hit": false,
      "t": 401337.49870834424,
      "d": 154.4715833333321,
      "v": 60
    },
    {
      "midi": 57,
      "hit": false,
      "t": 401357.82391667756,
      "d": 308.9431666667224,
      "v": 15
    },
    {
      "midi": 65,
      "hit": false,
      "t": 401524.4906250109,
      "d": 264.2277083333465,
      "v": 34
    },
    {
      "midi": 51,
      "hit": false,
      "t": 401581.40120834426,
      "d": 313.0082083333982,
      "v": 28
    },
    {
      "midi": 61,
      "hit": false,
      "t": 401589.5312916776,
      "d": 223.5772916666465,
      "v": 12
    },
    {
      "midi": 64,
      "hit": false,
      "t": 401825.3037083443,
      "d": 89.43091666669352,
      "v": 38
    },
    {
      "midi": 57,
      "hit": false,
      "t": 401837.4988333443,
      "d": 77.23579166666605,
      "v": 32
    },
    {
      "midi": 67,
      "hit": false,
      "t": 401967.58016667765,
      "d": 365.8537500000675,
      "v": 66
    },
    {
      "midi": 60,
      "hit": false,
      "t": 401971.64520834433,
      "d": 65.04066666669678,
      "v": 38
    },
    {
      "midi": 50,
      "hit": false,
      "t": 402024.490750011,
      "d": 52.845541666669305,
      "v": 20
    },
    {
      "midi": 64,
      "hit": false,
      "t": 402325.30383334437,
      "d": 73.17074999999022,
      "v": 58
    },
    {
      "midi": 65,
      "hit": false,
      "t": 402479.7754166777,
      "d": 577.2359166667447,
      "v": 56
    },
    {
      "midi": 45,
      "hit": false,
      "t": 402796.8486666777,
      "d": 48.78050000005169,
      "v": 38
    },
    {
      "midi": 57,
      "hit": false,
      "t": 402804.97875001107,
      "d": 394.3090416666819,
      "v": 57
    },
    {
      "midi": 38,
      "hit": false,
      "t": 402817.1738750111,
      "d": 32.52033333334839,
      "v": 36
    },
    {
      "midi": 62,
      "hit": false,
      "t": 403276.5235833444,
      "d": 89.43091666669352,
      "v": 53
    },
    {
      "midi": 65,
      "hit": false,
      "t": 403447.25533334445,
      "d": 219.51225000002887,
      "v": 54
    },
    {
      "midi": 70,
      "hit": false,
      "t": 403788.71883334446,
      "d": 154.4715833333321,
      "v": 67
    },
    {
      "midi": 71,
      "hit": false,
      "t": 404061.0766250111,
      "d": 195.12199999997392,
      "v": 51
    },
    {
      "midi": 63,
      "hit": false,
      "t": 404268.3937500111,
      "d": 93.49595833336934,
      "v": 62
    },
    {
      "midi": 59,
      "hit": false,
      "t": 404276.52383334446,
      "d": 40.65041666670004,
      "v": 59
    },
    {
      "midi": 73,
      "hit": false,
      "t": 404280.58887501113,
      "d": 130.08133333333535,
      "v": 69
    },
    {
      "midi": 53,
      "hit": false,
      "t": 404292.78400001116,
      "d": 40.65041666664183,
      "v": 48
    },
    {
      "midi": 76,
      "hit": false,
      "t": 404512.29625001113,
      "d": 158.53662500000792,
      "v": 44
    },
    {
      "midi": 81,
      "hit": false,
      "t": 404752.1337083445,
      "d": 174.796791666653,
      "v": 70
    },
    {
      "midi": 85,
      "hit": false,
      "t": 404959.4508333445,
      "d": 101.62604166666279,
      "v": 56
    },
    {
      "midi": 59,
      "hit": false,
      "t": 405223.67854167783,
      "d": 117.88620833336608,
      "v": 50
    },
    {
      "midi": 63,
      "hit": false,
      "t": 405227.7435833445,
      "d": 77.23579166666605,
      "v": 56
    },
    {
      "midi": 88,
      "hit": false,
      "t": 405231.8086250112,
      "d": 239.8374583333498,
      "v": 61
    },
    {
      "midi": 53,
      "hit": false,
      "t": 405414.7355000112,
      "d": 60.975625000020955,
      "v": 24
    },
    {
      "midi": 93,
      "hit": false,
      "t": 405426.9306250112,
      "d": 207.3171250000014,
      "v": 47
    },
    {
      "midi": 97,
      "hit": false,
      "t": 405723.6786666779,
      "d": 81.30083333334187,
      "v": 52
    },
    {
      "midi": 103,
      "hit": false,
      "t": 406382.21541667794,
      "d": 146.34150000003865,
      "v": 84
    },
    {
      "midi": 91,
      "hit": false,
      "t": 406390.3455000113,
      "d": 97.56100000004517,
      "v": 75
    },
    {
      "midi": 67,
      "hit": false,
      "t": 406394.41054167796,
      "d": 150.40654166671447,
      "v": 73
    },
    {
      "midi": 56,
      "hit": false,
      "t": 406398.47558334464,
      "d": 134.14637500001118,
      "v": 71
    },
    {
      "midi": 96,
      "hit": false,
      "t": 406402.5406250113,
      "d": 28.455291666672565,
      "v": 66
    },
    {
      "midi": 62,
      "hit": false,
      "t": 406418.80079167796,
      "d": 109.75612500001444,
      "v": 64
    },
    {
      "midi": 100,
      "hit": false,
      "t": 406552.94716667803,
      "d": 81.30083333334187,
      "v": 50
    },
    {
      "midi": 103,
      "hit": false,
      "t": 406707.41875001136,
      "d": 178.86183333338704,
      "v": 81
    },
    {
      "midi": 56,
      "hit": false,
      "t": 406715.5488333447,
      "d": 260.1626666666707,
      "v": 74
    },
    {
      "midi": 67,
      "hit": false,
      "t": 406715.5488333447,
      "d": 260.1626666666707,
      "v": 78
    },
    {
      "midi": 96,
      "hit": false,
      "t": 406719.6138750114,
      "d": 186.99191666668048,
      "v": 77
    },
    {
      "midi": 91,
      "hit": false,
      "t": 406719.6138750114,
      "d": 211.38216666667722,
      "v": 74
    },
    {
      "midi": 62,
      "hit": false,
      "t": 406719.6138750114,
      "d": 268.29275000002235,
      "v": 68
    },
    {
      "midi": 100,
      "hit": false,
      "t": 407048.88225001143,
      "d": 138.2114166667452,
      "v": 71
    },
    {
      "midi": 67,
      "hit": false,
      "t": 407057.0123333448,
      "d": 117.88620833336608,
      "v": 43
    },
    {
      "midi": 62,
      "hit": false,
      "t": 407061.07737501146,
      "d": 142.27645833336283,
      "v": 68
    },
    {
      "midi": 56,
      "hit": false,
      "t": 407061.07737501146,
      "d": 174.79679166671121,
      "v": 55
    },
    {
      "midi": 88,
      "hit": false,
      "t": 407065.14241667814,
      "d": 166.66670833335957,
      "v": 60
    },
    {
      "midi": 96,
      "hit": false,
      "t": 407231.8091250115,
      "d": 77.23579166666605,
      "v": 57
    },
    {
      "midi": 56,
      "hit": false,
      "t": 407353.7603750115,
      "d": 272.3577916668146,
      "v": 67
    },
    {
      "midi": 62,
      "hit": false,
      "t": 407357.82541667816,
      "d": 223.5772916667629,
      "v": 66
    },
    {
      "midi": 67,
      "hit": false,
      "t": 407361.89045834483,
      "d": 219.51225000008708,
      "v": 62
    },
    {
      "midi": 100,
      "hit": false,
      "t": 407365.9555000115,
      "d": 178.86183333338704,
      "v": 74
    },
    {
      "midi": 88,
      "hit": false,
      "t": 407378.15062501153,
      "d": 235.77241666673217,
      "v": 74
    },
    {
      "midi": 94,
      "hit": false,
      "t": 407398.47583334486,
      "d": 32.52033333334839,
      "v": 29
    },
    {
      "midi": 60,
      "hit": false,
      "t": 407670.8336250116,
      "d": 126.01629166671773,
      "v": 56
    },
    {
      "midi": 98,
      "hit": false,
      "t": 407674.8986666783,
      "d": 32.52033333334839,
      "v": 64
    },
    {
      "midi": 65,
      "hit": false,
      "t": 407674.8986666783,
      "d": 109.75612500001444,
      "v": 66
    },
    {
      "midi": 96,
      "hit": false,
      "t": 407674.8986666783,
      "d": 130.08133333339356,
      "v": 74
    },
    {
      "midi": 61,
      "hit": false,
      "t": 407683.02875001164,
      "d": 142.27645833336283,
      "v": 53
    },
    {
      "midi": 84,
      "hit": false,
      "t": 407691.158833345,
      "d": 134.14637500001118,
      "v": 69
    },
    {
      "midi": 55,
      "hit": false,
      "t": 407715.549083345,
      "d": 109.75612500001444,
      "v": 43
    },
    {
      "midi": 58,
      "hit": false,
      "t": 407715.549083345,
      "d": 126.01629166665953,
      "v": 27
    },
    {
      "midi": 93,
      "hit": false,
      "t": 407861.89058334497,
      "d": 56.91058333334513,
      "v": 46
    },
    {
      "midi": 96,
      "hit": false,
      "t": 408000.10200001166,
      "d": 154.4715833333903,
      "v": 88
    },
    {
      "midi": 61,
      "hit": false,
      "t": 408000.10200001166,
      "d": 247.96754166681785,
      "v": 61
    },
    {
      "midi": 65,
      "hit": false,
      "t": 408004.16704167833,
      "d": 219.51225000008708,
      "v": 74
    },
    {
      "midi": 60,
      "hit": false,
      "t": 408004.16704167833,
      "d": 243.90250000014203,
      "v": 50
    },
    {
      "midi": 84,
      "hit": false,
      "t": 408008.232083345,
      "d": 203.25208333338378,
      "v": 77
    },
    {
      "midi": 55,
      "hit": false,
      "t": 408020.42720834503,
      "d": 182.92687500000466,
      "v": 67
    },
    {
      "midi": 58,
      "hit": false,
      "t": 408028.5572916784,
      "d": 207.3171250000596,
      "v": 37
    },
    {
      "midi": 93,
      "hit": false,
      "t": 408313.1102083451,
      "d": 142.27645833336283,
      "v": 69
    },
    {
      "midi": 65,
      "hit": false,
      "t": 408313.1102083451,
      "d": 186.99191666668048,
      "v": 58
    },
    {
      "midi": 61,
      "hit": false,
      "t": 408313.1102083451,
      "d": 264.22770833340473,
      "v": 58
    },
    {
      "midi": 60,
      "hit": false,
      "t": 408329.37037501176,
      "d": 73.17075000004843,
      "v": 47
    },
    {
      "midi": 81,
      "hit": false,
      "t": 408333.43541667843,
      "d": 162.60166666668374,
      "v": 58
    },
    {
      "midi": 55,
      "hit": false,
      "t": 408345.63054167846,
      "d": 182.92687500000466,
      "v": 57
    },
    {
      "midi": 58,
      "hit": false,
      "t": 408353.7606250118,
      "d": 203.25208333332557,
      "v": 29
    },
    {
      "midi": 88,
      "hit": false,
      "t": 408516.36229167844,
      "d": 52.84554166672751,
      "v": 28
    },
    {
      "midi": 55,
      "hit": false,
      "t": 408654.5737083452,
      "d": 227.64233333343873,
      "v": 66
    },
    {
      "midi": 61,
      "hit": false,
      "t": 408654.5737083452,
      "d": 227.64233333343873,
      "v": 58
    },
    {
      "midi": 93,
      "hit": false,
      "t": 408662.70379167853,
      "d": 178.86183333338704,
      "v": 88
    },
    {
      "midi": 81,
      "hit": false,
      "t": 408666.7688333452,
      "d": 182.92687500006286,
      "v": 83
    },
    {
      "midi": 64,
      "hit": false,
      "t": 408666.7688333452,
      "d": 186.9919166667387,
      "v": 70
    },
    {
      "midi": 88,
      "hit": false,
      "t": 408703.35420834523,
      "d": 162.60166666674195,
      "v": 40
    },
    {
      "midi": 91,
      "hit": false,
      "t": 408951.32175001194,
      "d": 170.7317500000354,
      "v": 54
    },
    {
      "midi": 79,
      "hit": false,
      "t": 408963.51687501196,
      "d": 182.92687500000466,
      "v": 64
    },
    {
      "midi": 55,
      "hit": false,
      "t": 408963.51687501196,
      "d": 219.51225000002887,
      "v": 66
    },
    {
      "midi": 61,
      "hit": false,
      "t": 408971.6469583453,
      "d": 243.9025000000256,
      "v": 53
    },
    {
      "midi": 64,
      "hit": false,
      "t": 408975.712000012,
      "d": 178.86183333332883,
      "v": 62
    },
    {
      "midi": 88,
      "hit": false,
      "t": 409130.1835833453,
      "d": 89.43091666669352,
      "v": 33
    },
    {
      "midi": 61,
      "hit": false,
      "t": 409284.65516667865,
      "d": 158.53662500000792,
      "v": 69
    },
    {
      "midi": 55,
      "hit": false,
      "t": 409288.72020834533,
      "d": 138.211416666687,
      "v": 68
    },
    {
      "midi": 64,
      "hit": false,
      "t": 409296.8502916787,
      "d": 105.69108333333861,
      "v": 68
    },
    {
      "midi": 91,
      "hit": false,
      "t": 409296.8502916787,
      "d": 227.6423333333223,
      "v": 84
    },
    {
      "midi": 85,
      "hit": false,
      "t": 409304.98037501203,
      "d": 231.70737499999814,
      "v": 73
    },
    {
      "midi": 79,
      "hit": false,
      "t": 409304.98037501203,
      "d": 235.77241666667396,
      "v": 77
    },
    {
      "midi": 89,
      "hit": false,
      "t": 409597.66337501205,
      "d": 146.34150000003865,
      "v": 63
    },
    {
      "midi": 91,
      "hit": false,
      "t": 409609.8585000121,
      "d": 36.585375000024214,
      "v": 49
    },
    {
      "midi": 62,
      "hit": false,
      "t": 409609.8585000121,
      "d": 93.49595833336934,
      "v": 62
    },
    {
      "midi": 77,
      "hit": false,
      "t": 409613.92354167876,
      "d": 186.99191666668048,
      "v": 59
    },
    {
      "midi": 79,
      "hit": false,
      "t": 409630.1837083454,
      "d": 36.585375000024214,
      "v": 47
    },
    {
      "midi": 60,
      "hit": false,
      "t": 409634.2487500121,
      "d": 32.52033333334839,
      "v": 52
    },
    {
      "midi": 52,
      "hit": false,
      "t": 409638.31379167875,
      "d": 32.52033333334839,
      "v": 58
    },
    {
      "midi": 86,
      "hit": false,
      "t": 409800.91545834544,
      "d": 52.845541666669305,
      "v": 29
    },
    {
      "midi": 89,
      "hit": false,
      "t": 409943.1919166788,
      "d": 154.4715833333321,
      "v": 84
    },
    {
      "midi": 52,
      "hit": false,
      "t": 409955.3870416788,
      "d": 191.0569583332981,
      "v": 71
    },
    {
      "midi": 77,
      "hit": false,
      "t": 409955.3870416788,
      "d": 191.0569583332981,
      "v": 81
    },
    {
      "midi": 62,
      "hit": false,
      "t": 409955.3870416788,
      "d": 207.3171249999432,
      "v": 68
    },
    {
      "midi": 58,
      "hit": false,
      "t": 409955.3870416788,
      "d": 227.6423333332641,
      "v": 62
    },
    {
      "midi": 86,
      "hit": false,
      "t": 410231.8098750121,
      "d": 146.34150000003865,
      "v": 64
    },
    {
      "midi": 62,
      "hit": false,
      "t": 410244.0050000121,
      "d": 109.75612500001444,
      "v": 58
    },
    {
      "midi": 58,
      "hit": false,
      "t": 410252.13508334546,
      "d": 158.5366249999497,
      "v": 39
    },
    {
      "midi": 74,
      "hit": false,
      "t": 410256.20012501214,
      "d": 138.2114166666288,
      "v": 59
    },
    {
      "midi": 52,
      "hit": false,
      "t": 410260.2651666788,
      "d": 65.04066666663857,
      "v": 34
    },
    {
      "midi": 82,
      "hit": false,
      "t": 410435.0619583454,
      "d": 44.715458333317656,
      "v": 37
    },
    {
      "midi": 62,
      "hit": false,
      "t": 410561.07825001207,
      "d": 243.9025000000256,
      "v": 66
    },
    {
      "midi": 86,
      "hit": false,
      "t": 410565.14329167875,
      "d": 130.08133333333535,
      "v": 74
    },
    {
      "midi": 58,
      "hit": false,
      "t": 410565.14329167875,
      "d": 247.96754166670144,
      "v": 62
    },
    {
      "midi": 52,
      "hit": false,
      "t": 410569.2083333454,
      "d": 215.44720833335305,
      "v": 71
    },
    {
      "midi": 74,
      "hit": false,
      "t": 410573.2733750121,
      "d": 158.53662500000792,
      "v": 78
    },
    {
      "midi": 82,
      "hit": false,
      "t": 410857.82629167876,
      "d": 142.27645833336283,
      "v": 60
    },
    {
      "midi": 70,
      "hit": false,
      "t": 410878.1515000121,
      "d": 109.75612500001444,
      "v": 64
    },
    {
      "midi": 62,
      "hit": false,
      "t": 410886.28158334544,
      "d": 158.53662500006612,
      "v": 55
    },
    {
      "midi": 52,
      "hit": false,
      "t": 410890.3466250121,
      "d": 231.70737500005635,
      "v": 36
    },
    {
      "midi": 58,
      "hit": false,
      "t": 410894.4116666788,
      "d": 117.88620833336608,
      "v": 53
    },
    {
      "midi": 79,
      "hit": false,
      "t": 411052.94829167885,
      "d": 89.43091666663531,
      "v": 36
    },
    {
      "midi": 52,
      "hit": false,
      "t": 411195.22475001216,
      "d": 142.27645833336283,
      "v": 32
    },
    {
      "midi": 82,
      "hit": false,
      "t": 411203.3548333455,
      "d": 199.18704166664975,
      "v": 69
    },
    {
      "midi": 58,
      "hit": false,
      "t": 411203.3548333455,
      "d": 207.3171250000014,
      "v": 64
    },
    {
      "midi": 70,
      "hit": false,
      "t": 411215.54995834554,
      "d": 211.382166666619,
      "v": 77
    },
    {
      "midi": 62,
      "hit": false,
      "t": 411219.6150000122,
      "d": 223.57729166658828,
      "v": 63
    },
    {
      "midi": 81,
      "hit": false,
      "t": 411540.7532916788,
      "d": 126.01629166671773,
      "v": 71
    },
    {
      "midi": 55,
      "hit": false,
      "t": 411544.81833334547,
      "d": 918.6994166667573,
      "v": 73
    },
    {
      "midi": 61,
      "hit": false,
      "t": 411552.9484166788,
      "d": 695.1221250001108,
      "v": 56
    },
    {
      "midi": 64,
      "hit": false,
      "t": 411561.07850001217,
      "d": 36.585375000024214,
      "v": 46
    },
    {
      "midi": 69,
      "hit": false,
      "t": 411561.07850001217,
      "d": 134.14637500001118,
      "v": 62
    },
    {
      "midi": 76,
      "hit": false,
      "t": 411573.2736250122,
      "d": 134.14637500001118,
      "v": 49
    },
    {
      "midi": 79,
      "hit": false,
      "t": 411825.3062083455,
      "d": 215.44720833335305,
      "v": 69
    },
    {
      "midi": 73,
      "hit": false,
      "t": 411829.3712500122,
      "d": 235.77241666667396,
      "v": 68
    },
    {
      "midi": 69,
      "hit": false,
      "t": 411829.3712500122,
      "d": 280.4878749999916,
      "v": 68
    },
    {
      "midi": 67,
      "hit": false,
      "t": 411833.43629167887,
      "d": 65.04066666669678,
      "v": 40
    },
    {
      "midi": 65,
      "hit": false,
      "t": 411837.50133334554,
      "d": 170.73174999997718,
      "v": 44
    },
    {
      "midi": 76,
      "hit": false,
      "t": 411837.50133334554,
      "d": 207.3171250000014,
      "v": 57
    },
    {
      "midi": 77,
      "hit": false,
      "t": 412215.5502083455,
      "d": 146.34150000003865,
      "v": 69
    },
    {
      "midi": 69,
      "hit": false,
      "t": 412219.6152500122,
      "d": 186.99191666668048,
      "v": 74
    },
    {
      "midi": 64,
      "hit": false,
      "t": 412227.74533334555,
      "d": 178.86183333332883,
      "v": 63
    },
    {
      "midi": 73,
      "hit": false,
      "t": 412235.8754166789,
      "d": 109.75612500001444,
      "v": 59
    },
    {
      "midi": 76,
      "hit": false,
      "t": 412561.0787500122,
      "d": 203.25208333338378,
      "v": 66
    },
    {
      "midi": 63,
      "hit": false,
      "t": 412569.20883334556,
      "d": 150.40654166671447,
      "v": 75
    },
    {
      "midi": 73,
      "hit": false,
      "t": 412573.27387501224,
      "d": 146.34150000003865,
      "v": 61
    },
    {
      "midi": 67,
      "hit": false,
      "t": 412577.3389166789,
      "d": 142.27645833336283,
      "v": 55
    },
    {
      "midi": 70,
      "hit": false,
      "t": 412577.3389166789,
      "d": 142.27645833336283,
      "v": 65
    },
    {
      "midi": 62,
      "hit": false,
      "t": 412788.72108334565,
      "d": 276.4228333333158,
      "v": 58
    },
    {
      "midi": 67,
      "hit": false,
      "t": 412813.11133334565,
      "d": 203.25208333332557,
      "v": 43
    },
    {
      "midi": 74,
      "hit": false,
      "t": 412813.11133334565,
      "d": 296.7480416666367,
      "v": 36
    },
    {
      "midi": 57,
      "hit": false,
      "t": 413109.8593750123,
      "d": 243.90250000008382,
      "v": 31
    },
    {
      "midi": 61,
      "hit": false,
      "t": 413187.09516667895,
      "d": 235.77241666679038,
      "v": 51
    },
    {
      "midi": 68,
      "hit": false,
      "t": 413187.09516667895,
      "d": 247.96754166681785,
      "v": 52
    },
    {
      "midi": 65,
      "hit": false,
      "t": 413199.290291679,
      "d": 215.44720833341125,
      "v": 40
    },
    {
      "midi": 51,
      "hit": false,
      "t": 413211.485416679,
      "d": 284.55291666678386,
      "v": 35
    },
    {
      "midi": 60,
      "hit": false,
      "t": 413524.49362501246,
      "d": 117.88620833330788,
      "v": 57
    },
    {
      "midi": 65,
      "hit": false,
      "t": 413540.7537916791,
      "d": 73.17074999999022,
      "v": 49
    },
    {
      "midi": 69,
      "hit": false,
      "t": 413544.8188333458,
      "d": 85.36587499995949,
      "v": 60
    },
    {
      "midi": 50,
      "hit": false,
      "t": 413544.8188333458,
      "d": 910.5693333333475,
      "v": 46
    },
    {
      "midi": 64,
      "hit": false,
      "t": 413744.00587501243,
      "d": 256.0976250000531,
      "v": 34
    },
    {
      "midi": 57,
      "hit": false,
      "t": 413748.0709166791,
      "d": 207.3171250000596,
      "v": 43
    },
    {
      "midi": 67,
      "hit": false,
      "t": 413752.1359583458,
      "d": 272.3577916666982,
      "v": 55
    },
    {
      "midi": 57,
      "hit": false,
      "t": 414150.51004167914,
      "d": 243.9024999999674,
      "v": 41
    },
    {
      "midi": 62,
      "hit": false,
      "t": 414150.51004167914,
      "d": 272.35779166663997,
      "v": 44
    },
    {
      "midi": 65,
      "hit": false,
      "t": 414162.70516667917,
      "d": 211.382166666619,
      "v": 41
    },
    {
      "midi": 64,
      "hit": false,
      "t": 414500.10362501245,
      "d": 97.56100000004517,
      "v": 39
    },
    {
      "midi": 61,
      "hit": false,
      "t": 414508.2337083458,
      "d": 97.56100000004517,
      "v": 52
    },
    {
      "midi": 50,
      "hit": false,
      "t": 414516.36379167915,
      "d": 552.8456666666898,
      "v": 30
    },
    {
      "midi": 57,
      "hit": false,
      "t": 414520.4288333458,
      "d": 308.9431666666642,
      "v": 42
    },
    {
      "midi": 65,
      "hit": false,
      "t": 414699.29066667915,
      "d": 81.30083333334187,
      "v": 35
    },
    {
      "midi": 57,
      "hit": false,
      "t": 415008.2338333458,
      "d": 56.91058333334513,
      "v": 34
    },
    {
      "midi": 64,
      "hit": false,
      "t": 415158.64037501253,
      "d": 292.6830000000191,
      "v": 50
    },
    {
      "midi": 50,
      "hit": false,
      "t": 415170.83550001256,
      "d": 162.60166666668374,
      "v": 34
    },
    {
      "midi": 57,
      "hit": false,
      "t": 415178.9655833459,
      "d": 707.3172499999055,
      "v": 24
    },
    {
      "midi": 60,
      "hit": false,
      "t": 415467.5835416792,
      "d": 113.82116666663205,
      "v": 57
    },
    {
      "midi": 50,
      "hit": false,
      "t": 415483.84370834584,
      "d": 556.9107083333074,
      "v": 45
    },
    {
      "midi": 62,
      "hit": false,
      "t": 415772.4616666792,
      "d": 69.1057083333144,
      "v": 32
    },
    {
      "midi": 63,
      "hit": false,
      "t": 415861.8925833458,
      "d": 36.585375000024214,
      "v": 57
    },
    {
      "midi": 60,
      "hit": false,
      "t": 415918.80316667916,
      "d": 178.86183333332883,
      "v": 24
    },
    {
      "midi": 65,
      "hit": false,
      "t": 415947.25845834584,
      "d": 60.975625000020955,
      "v": 62
    },
    {
      "midi": 66,
      "hit": false,
      "t": 416024.4942500125,
      "d": 60.97562499996275,
      "v": 51
    },
    {
      "midi": 68,
      "hit": false,
      "t": 416081.4048333458,
      "d": 28.455291666730773,
      "v": 53
    },
    {
      "midi": 69,
      "hit": false,
      "t": 416162.7056666792,
      "d": 85.3658750000177,
      "v": 59
    },
    {
      "midi": 71,
      "hit": false,
      "t": 416276.5268333459,
      "d": 40.65041666664183,
      "v": 32
    },
    {
      "midi": 72,
      "hit": false,
      "t": 416333.43741667917,
      "d": 40.65041666664183,
      "v": 57
    },
    {
      "midi": 74,
      "hit": false,
      "t": 416455.38866667915,
      "d": 77.23579166666605,
      "v": 72
    },
    {
      "midi": 75,
      "hit": false,
      "t": 416593.60008334584,
      "d": 85.3658750000177,
      "v": 65
    },
    {
      "midi": 77,
      "hit": false,
      "t": 416723.6814166792,
      "d": 81.30083333334187,
      "v": 62
    },
    {
      "midi": 78,
      "hit": false,
      "t": 416853.7627500125,
      "d": 138.211416666687,
      "v": 68
    },
    {
      "midi": 80,
      "hit": false,
      "t": 417004.1692916792,
      "d": 81.30083333334187,
      "v": 57
    },
    {
      "midi": 60,
      "hit": false,
      "t": 417073.27500001254,
      "d": 77.23579166666605,
      "v": 32
    },
    {
      "midi": 54,
      "hit": false,
      "t": 417073.27500001254,
      "d": 199.18704166664975,
      "v": 43
    },
    {
      "midi": 81,
      "hit": false,
      "t": 417134.25062501256,
      "d": 65.04066666663857,
      "v": 57
    },
    {
      "midi": 82,
      "hit": false,
      "t": 417284.6571666792,
      "d": 73.17074999999022,
      "v": 26
    },
    {
      "midi": 83,
      "hit": false,
      "t": 417386.2832083459,
      "d": 69.1057083333144,
      "v": 54
    },
    {
      "midi": 84,
      "hit": false,
      "t": 417512.29950001254,
      "d": 56.91058333334513,
      "v": 66
    },
    {
      "midi": 55,
      "hit": false,
      "t": 417605.7954583459,
      "d": 65.04066666663857,
      "v": 39
    },
    {
      "midi": 81,
      "hit": false,
      "t": 417825.3077083459,
      "d": 109.75612500001444,
      "v": 71
    },
    {
      "midi": 43,
      "hit": false,
      "t": 417975.71425001253,
      "d": 40.65041666670004,
      "v": 33
    },
    {
      "midi": 77,
      "hit": false,
      "t": 417979.7792916792,
      "d": 60.975625000020955,
      "v": 61
    },
    {
      "midi": 50,
      "hit": false,
      "t": 417991.97441667924,
      "d": 126.01629166665953,
      "v": 24
    },
    {
      "midi": 74,
      "hit": false,
      "t": 418117.9907083459,
      "d": 134.14637500001118,
      "v": 47
    },
    {
      "midi": 70,
      "hit": false,
      "t": 418374.0883333459,
      "d": 138.2114166666288,
      "v": 67
    },
    {
      "midi": 58,
      "hit": false,
      "t": 418418.8037916792,
      "d": 154.4715833333321,
      "v": 45
    },
    {
      "midi": 69,
      "hit": false,
      "t": 418585.47050001257,
      "d": 113.82116666669026,
      "v": 31
    },
    {
      "midi": 74,
      "hit": false,
      "t": 418874.0884583459,
      "d": 97.56099999998696,
      "v": 75
    },
    {
      "midi": 62,
      "hit": false,
      "t": 418890.34862501256,
      "d": 36.58537499996601,
      "v": 46
    },
    {
      "midi": 58,
      "hit": false,
      "t": 418910.6738333459,
      "d": 48.78049999999348,
      "v": 26
    },
    {
      "midi": 72,
      "hit": false,
      "t": 419065.1454166792,
      "d": 150.40654166665627,
      "v": 64
    },
    {
      "midi": 58,
      "hit": false,
      "t": 419370.0235416792,
      "d": 130.08133333333535,
      "v": 49
    },
    {
      "midi": 70,
      "hit": false,
      "t": 419374.0885833459,
      "d": 73.17074999999022,
      "v": 71
    },
    {
      "midi": 52,
      "hit": false,
      "t": 419402.54387501255,
      "d": 44.715458333317656,
      "v": 36
    },
    {
      "midi": 69,
      "hit": false,
      "t": 419683.03175001254,
      "d": 117.88620833330788,
      "v": 57
    },
    {
      "midi": 70,
      "hit": false,
      "t": 419833.4382916792,
      "d": 93.49595833336934,
      "v": 43
    },
    {
      "midi": 69,
      "hit": false,
      "t": 419914.73912501254,
      "d": 117.88620833336608,
      "v": 54
    },
    {
      "midi": 58,
      "hit": false,
      "t": 420008.2350833459,
      "d": 89.43091666669352,
      "v": 35
    },
    {
      "midi": 48,
      "hit": false,
      "t": 420028.5602916792,
      "d": 146.34150000003865,
      "v": 27
    },
    {
      "midi": 67,
      "hit": false,
      "t": 420065.14566667925,
      "d": 219.51225000002887,
      "v": 37
    },
    {
      "midi": 65,
      "hit": false,
      "t": 420374.088833346,
      "d": 142.27645833330462,
      "v": 66
    },
    {
      "midi": 64,
      "hit": false,
      "t": 420581.4059583459,
      "d": 272.3577916666982,
      "v": 38
    },
    {
      "midi": 58,
      "hit": false,
      "t": 420845.63366667926,
      "d": 52.845541666669305,
      "v": 35
    },
    {
      "midi": 52,
      "hit": false,
      "t": 420845.63366667926,
      "d": 56.91058333334513,
      "v": 35
    },
    {
      "midi": 67,
      "hit": false,
      "t": 420849.69870834594,
      "d": 97.56099999998696,
      "v": 52
    },
    {
      "midi": 68,
      "hit": false,
      "t": 421032.62558334594,
      "d": 215.44720833335305,
      "v": 59
    },
    {
      "midi": 69,
      "hit": false,
      "t": 421321.2435416793,
      "d": 516.2602916666656,
      "v": 60
    },
    {
      "midi": 41,
      "hit": false,
      "t": 421325.30858334596,
      "d": 101.62604166666279,
      "v": 55
    },
    {
      "midi": 48,
      "hit": false,
      "t": 421329.37362501264,
      "d": 146.34149999998044,
      "v": 49
    },
    {
      "midi": 62,
      "hit": false,
      "t": 421813.11358334596,
      "d": 609.7562499999767,
      "v": 60
    },
    {
      "midi": 52,
      "hit": false,
      "t": 421829.3737500126,
      "d": 727.6424583333428,
      "v": 48
    },
    {
      "midi": 57,
      "hit": false,
      "t": 421833.4387916793,
      "d": 719.5123749999912,
      "v": 48
    },
    {
      "midi": 64,
      "hit": false,
      "t": 422467.58529167925,
      "d": 32.52033333334839,
      "v": 48
    },
    {
      "midi": 69,
      "hit": false,
      "t": 422585.4715000126,
      "d": 73.17074999999022,
      "v": 65
    },
    {
      "midi": 74,
      "hit": false,
      "t": 422723.68291667924,
      "d": 85.3658750000177,
      "v": 68
    },
    {
      "midi": 76,
      "hit": false,
      "t": 422857.82929167926,
      "d": 126.01629166665953,
      "v": 83
    },
    {
      "midi": 48,
      "hit": false,
      "t": 422943.1951666793,
      "d": 382.1139166667126,
      "v": 44
    },
    {
      "midi": 47,
      "hit": false,
      "t": 422959.4553333459,
      "d": 36.585375000024214,
      "v": 27
    },
    {
      "midi": 74,
      "hit": false,
      "t": 422987.9106250126,
      "d": 207.3171250000014,
      "v": 62
    },
    {
      "midi": 36,
      "hit": false,
      "t": 423280.5936250126,
      "d": 32.52033333334839,
      "v": 32
    },
    {
      "midi": 62,
      "hit": false,
      "t": 423752.13845834596,
      "d": 24.39024999999674,
      "v": 57
    },
    {
      "midi": 58,
      "hit": false,
      "t": 423752.13845834596,
      "d": 65.04066666669678,
      "v": 39
    },
    {
      "midi": 57,
      "hit": false,
      "t": 423756.20350001263,
      "d": 52.845541666669305,
      "v": 44
    },
    {
      "midi": 72,
      "hit": false,
      "t": 423931.00029167935,
      "d": 48.78049999999348,
      "v": 61
    },
    {
      "midi": 77,
      "hit": false,
      "t": 424069.21170834603,
      "d": 60.975625000020955,
      "v": 60
    },
    {
      "midi": 82,
      "hit": false,
      "t": 424203.35808334604,
      "d": 93.49595833336934,
      "v": 86
    },
    {
      "midi": 61,
      "hit": false,
      "t": 424227.74833334604,
      "d": 455.28466666676104,
      "v": 72
    },
    {
      "midi": 66,
      "hit": false,
      "t": 424235.8784166794,
      "d": 48.78049999999348,
      "v": 71
    },
    {
      "midi": 55,
      "hit": false,
      "t": 424239.94345834607,
      "d": 28.455291666672565,
      "v": 76
    },
    {
      "midi": 55,
      "hit": false,
      "t": 424345.6345416794,
      "d": 536.5855000000447,
      "v": 36
    },
    {
      "midi": 84,
      "hit": false,
      "t": 424357.82966667943,
      "d": 203.25208333332557,
      "v": 95
    },
    {
      "midi": 66,
      "hit": false,
      "t": 424361.8947083461,
      "d": 308.9431666666642,
      "v": 61
    },
    {
      "midi": 82,
      "hit": false,
      "t": 424500.10612501274,
      "d": 369.91879166668514,
      "v": 71
    },
    {
      "midi": 77,
      "hit": false,
      "t": 424739.94358334615,
      "d": 146.34149999998044,
      "v": 79
    },
    {
      "midi": 80,
      "hit": false,
      "t": 424756.2037500128,
      "d": 32.52033333334839,
      "v": 38
    },
    {
      "midi": 61,
      "hit": false,
      "t": 424760.26879167947,
      "d": 121.9512499999837,
      "v": 52
    },
    {
      "midi": 65,
      "hit": false,
      "t": 424764.33383334614,
      "d": 40.65041666664183,
      "v": 46
    },
    {
      "midi": 72,
      "hit": false,
      "t": 424935.0655833461,
      "d": 195.12199999997392,
      "v": 40
    },
    {
      "midi": 73,
      "hit": false,
      "t": 425207.42337501276,
      "d": 109.75612499995623,
      "v": 70
    },
    {
      "midi": 57,
      "hit": false,
      "t": 425227.7485833461,
      "d": 93.49595833331114,
      "v": 34
    },
    {
      "midi": 60,
      "hit": false,
      "t": 425244.0087500127,
      "d": 32.52033333334839,
      "v": 42
    },
    {
      "midi": 50,
      "hit": false,
      "t": 425256.20387501275,
      "d": 902.439250000054,
      "v": 31
    },
    {
      "midi": 60,
      "hit": false,
      "t": 425382.2201666794,
      "d": 272.35779166663997,
      "v": 33
    },
    {
      "midi": 76,
      "hit": false,
      "t": 425382.2201666794,
      "d": 308.9431666666642,
      "v": 72
    },
    {
      "midi": 73,
      "hit": false,
      "t": 425711.4885416794,
      "d": 48.78049999999348,
      "v": 37
    },
    {
      "midi": 57,
      "hit": false,
      "t": 425711.4885416794,
      "d": 56.91058333334513,
      "v": 36
    },
    {
      "midi": 74,
      "hit": false,
      "t": 425845.6349166794,
      "d": 304.87812500004657,
      "v": 72
    },
    {
      "midi": 60,
      "hit": false,
      "t": 425853.76500001276,
      "d": 247.96754166670144,
      "v": 55
    },
    {
      "midi": 69,
      "hit": false,
      "t": 426199.29354167945,
      "d": 101.62604166666279,
      "v": 62
    },
    {
      "midi": 65,
      "hit": false,
      "t": 426390.3505000128,
      "d": 207.3171250000014,
      "v": 36
    },
    {
      "midi": 65,
      "hit": false,
      "t": 426699.29366667947,
      "d": 93.49595833331114,
      "v": 40
    },
    {
      "midi": 67,
      "hit": false,
      "t": 426853.7652500128,
      "d": 292.6830000000191,
      "v": 65
    },
    {
      "midi": 58,
      "hit": false,
      "t": 427195.2287500128,
      "d": 89.43091666669352,
      "v": 37
    },
    {
      "midi": 62,
      "hit": false,
      "t": 427199.2937916795,
      "d": 32.52033333334839,
      "v": 40
    },
    {
      "midi": 64,
      "hit": false,
      "t": 427199.2937916795,
      "d": 36.585375000024214,
      "v": 41
    },
    {
      "midi": 57,
      "hit": false,
      "t": 427211.4889166795,
      "d": 44.715458333317656,
      "v": 26
    },
    {
      "midi": 67,
      "hit": false,
      "t": 427329.3751250128,
      "d": 101.62604166666279,
      "v": 46
    },
    {
      "midi": 68,
      "hit": false,
      "t": 427382.2206666795,
      "d": 105.69108333333861,
      "v": 48
    },
    {
      "midi": 69,
      "hit": false,
      "t": 427512.30200001283,
      "d": 138.211416666687,
      "v": 38
    },
    {
      "midi": 58,
      "hit": false,
      "t": 427699.2939166795,
      "d": 32.52033333334839,
      "v": 25
    },
    {
      "midi": 57,
      "hit": false,
      "t": 427699.2939166795,
      "d": 113.82116666669026,
      "v": 27
    },
    {
      "midi": 67,
      "hit": false,
      "t": 427817.1801250129,
      "d": 121.9512499999837,
      "v": 53
    },
    {
      "midi": 68,
      "hit": false,
      "t": 427870.02566667955,
      "d": 162.60166666662553,
      "v": 40
    },
    {
      "midi": 69,
      "hit": false,
      "t": 428040.7574166795,
      "d": 113.82116666669026,
      "v": 42
    },
    {
      "midi": 62,
      "hit": false,
      "t": 428174.90379167954,
      "d": 32.52033333334839,
      "v": 24
    },
    {
      "midi": 57,
      "hit": false,
      "t": 428174.90379167954,
      "d": 60.975625000020955,
      "v": 37
    },
    {
      "midi": 58,
      "hit": false,
      "t": 428195.22900001286,
      "d": 28.455291666672565,
      "v": 33
    },
    {
      "midi": 67,
      "hit": false,
      "t": 428292.7900000129,
      "d": 126.01629166665953,
      "v": 51
    },
    {
      "midi": 68,
      "hit": false,
      "t": 428361.8957083462,
      "d": 65.04066666669678,
      "v": 33
    },
    {
      "midi": 69,
      "hit": false,
      "t": 428508.23720834625,
      "d": 56.91058333334513,
      "v": 28
    },
    {
      "midi": 74,
      "hit": false,
      "t": 428622.05837501294,
      "d": 126.01629166665953,
      "v": 80
    },
    {
      "midi": 56,
      "hit": false,
      "t": 428695.22912501293,
      "d": 44.715458333317656,
      "v": 25
    },
    {
      "midi": 62,
      "hit": false,
      "t": 429101.7332916796,
      "d": 48.78049999999348,
      "v": 64
    },
    {
      "midi": 56,
      "hit": false,
      "t": 429130.18858334626,
      "d": 44.715458333317656,
      "v": 31
    },
    {
      "midi": 74,
      "hit": false,
      "t": 429613.9285416796,
      "d": 491.87004166666884,
      "v": 77
    },
    {
      "midi": 68,
      "hit": false,
      "t": 429622.0586250129,
      "d": 138.2114166666288,
      "v": 79
    },
    {
      "midi": 62,
      "hit": false,
      "t": 429642.38383334625,
      "d": 48.78049999999348,
      "v": 36
    },
    {
      "midi": 56,
      "hit": false,
      "t": 429670.8391250129,
      "d": 40.65041666664183,
      "v": 18
    },
    {
      "midi": 62,
      "hit": false,
      "t": 429780.5952500129,
      "d": 134.14637500001118,
      "v": 16
    },
    {
      "midi": 67,
      "hit": false,
      "t": 429817.1806250129,
      "d": 284.55291666666744,
      "v": 27
    },
    {
      "midi": 65,
      "hit": false,
      "t": 430150.51404167956,
      "d": 36.585375000024214,
      "v": 36
    },
    {
      "midi": 67,
      "hit": false,
      "t": 430272.4652916796,
      "d": 235.77241666667396,
      "v": 60
    },
    {
      "midi": 74,
      "hit": false,
      "t": 430284.66041667963,
      "d": 256.0976249999949,
      "v": 68
    },
    {
      "midi": 68,
      "hit": false,
      "t": 430552.95316667965,
      "d": 97.56099999998696,
      "v": 43
    },
    {
      "midi": 67,
      "hit": false,
      "t": 430654.5792083463,
      "d": 109.75612500001444,
      "v": 48
    },
    {
      "midi": 56,
      "hit": false,
      "t": 430715.55483334634,
      "d": 219.51224999997066,
      "v": 23
    },
    {
      "midi": 65,
      "hit": false,
      "t": 430784.66054167965,
      "d": 219.51224999997066,
      "v": 38
    },
    {
      "midi": 67,
      "hit": false,
      "t": 431081.4085833463,
      "d": 182.92687499994645,
      "v": 68
    },
    {
      "midi": 61,
      "hit": false,
      "t": 431097.66875001293,
      "d": 85.3658750000177,
      "v": 51
    },
    {
      "midi": 55,
      "hit": false,
      "t": 431109.86387501296,
      "d": 113.82116666663205,
      "v": 54
    },
    {
      "midi": 69,
      "hit": false,
      "t": 431313.1159583462,
      "d": 121.9512499999837,
      "v": 50
    },
    {
      "midi": 67,
      "hit": false,
      "t": 431410.6769583462,
      "d": 97.56099999998696,
      "v": 33
    },
    {
      "midi": 65,
      "hit": false,
      "t": 431520.43308334623,
      "d": 77.23579166666605,
      "v": 62
    },
    {
      "midi": 64,
      "hit": false,
      "t": 431674.90466667956,
      "d": 138.211416666687,
      "v": 58
    },
    {
      "midi": 62,
      "hit": false,
      "t": 431971.65270834626,
      "d": 117.88620833330788,
      "v": 55
    },
    {
      "midi": 61,
      "hit": false,
      "t": 432264.3357083462,
      "d": 77.23579166666605,
      "v": 64
    },
    {
      "midi": 64,
      "hit": false,
      "t": 432394.41704167955,
      "d": 146.34149999998044,
      "v": 53
    },
    {
      "midi": 55,
      "hit": false,
      "t": 432577.34391667956,
      "d": 36.585375000024214,
      "v": 35
    },
    {
      "midi": 57,
      "hit": false,
      "t": 432695.2301250129,
      "d": 231.70737499999814,
      "v": 45
    },
    {
      "midi": 57,
      "hit": false,
      "t": 433000.1082500129,
      "d": 182.92687500000466,
      "v": 54
    },
    {
      "midi": 62,
      "hit": false,
      "t": 433187.1001666796,
      "d": 121.9512499999837,
      "v": 59
    },
    {
      "midi": 38,
      "hit": false,
      "t": 433512.3035000129,
      "d": 40.65041666664183,
      "v": 43
    },
    {
      "midi": 65,
      "hit": false,
      "t": 433512.3035000129,
      "d": 93.49595833331114,
      "v": 62
    },
    {
      "midi": 67,
      "hit": false,
      "t": 433670.84012501285,
      "d": 276.4228333333158,
      "v": 40
    },
    {
      "midi": 65,
      "hit": false,
      "t": 434016.3686666795,
      "d": 36.585375000024214,
      "v": 37
    },
    {
      "midi": 68,
      "hit": false,
      "t": 434166.7752083462,
      "d": 337.39845833333675,
      "v": 67
    },
    {
      "midi": 67,
      "hit": false,
      "t": 434642.3850833462,
      "d": 418.6992916666786,
      "v": 68
    },
    {
      "midi": 56,
      "hit": false,
      "t": 435117.99495834624,
      "d": 85.3658750000177,
      "v": 37
    },
    {
      "midi": 65,
      "hit": false,
      "t": 435117.99495834624,
      "d": 227.6423333333223,
      "v": 62
    },
    {
      "midi": 46,
      "hit": false,
      "t": 435142.38520834624,
      "d": 36.585375000024214,
      "v": 21
    },
    {
      "midi": 67,
      "hit": false,
      "t": 435426.9381250129,
      "d": 117.88620833330788,
      "v": 24
    },
    {
      "midi": 65,
      "hit": false,
      "t": 435479.7836666796,
      "d": 117.88620833330788,
      "v": 38
    },
    {
      "midi": 62,
      "hit": false,
      "t": 435695.2308750129,
      "d": 93.49595833331114,
      "v": 25
    },
    {
      "midi": 65,
      "hit": false,
      "t": 435935.06833334616,
      "d": 150.40654166665627,
      "v": 69
    },
    {
      "midi": 55,
      "hit": false,
      "t": 435955.3935416795,
      "d": 36.585375000024214,
      "v": 46
    },
    {
      "midi": 45,
      "hit": false,
      "t": 435959.45858334616,
      "d": 60.975625000020955,
      "v": 45
    },
    {
      "midi": 64,
      "hit": false,
      "t": 436211.4911666795,
      "d": 239.8374583333498,
      "v": 33
    },
    {
      "midi": 61,
      "hit": false,
      "t": 436581.40995834616,
      "d": 109.75612500001444,
      "v": 44
    },
    {
      "midi": 49,
      "hit": false,
      "t": 436605.80020834616,
      "d": 296.7480416666949,
      "v": 25
    },
    {
      "midi": 67,
      "hit": false,
      "t": 436922.8734583462,
      "d": 89.43091666669352,
      "v": 54
    },
    {
      "midi": 52,
      "hit": false,
      "t": 436922.8734583462,
      "d": 97.56100000004517,
      "v": 56
    },
    {
      "midi": 61,
      "hit": false,
      "t": 436926.93850001285,
      "d": 138.211416666687,
      "v": 60
    },
    {
      "midi": 57,
      "hit": false,
      "t": 436939.1336250129,
      "d": 121.9512499999837,
      "v": 45
    },
    {
      "midi": 57,
      "hit": false,
      "t": 437126.12554167956,
      "d": 353.65862499998184,
      "v": 28
    },
    {
      "midi": 65,
      "hit": false,
      "t": 437126.12554167956,
      "d": 369.91879166662693,
      "v": 44
    },
    {
      "midi": 50,
      "hit": false,
      "t": 437142.3857083462,
      "d": 434.9594583333237,
      "v": 33
    },
    {
      "midi": 60,
      "hit": false,
      "t": 437150.51579167956,
      "d": 313.00820833334,
      "v": 37
    },
    {
      "midi": 57,
      "hit": false,
      "t": 437585.4752500129,
      "d": 215.44720833335305,
      "v": 32
    },
    {
      "midi": 49,
      "hit": false,
      "t": 437597.6703750129,
      "d": 321.13829166669166,
      "v": 32
    },
    {
      "midi": 64,
      "hit": false,
      "t": 437609.86550001294,
      "d": 215.44720833329484,
      "v": 26
    },
    {
      "midi": 65,
      "hit": false,
      "t": 437906.6135416796,
      "d": 528.4554166667513,
      "v": 55
    },
    {
      "midi": 57,
      "hit": false,
      "t": 437910.67858334625,
      "d": 491.87004166672705,
      "v": 50
    },
    {
      "midi": 50,
      "hit": false,
      "t": 437935.0688333463,
      "d": 528.455416666693,
      "v": 41
    },
    {
      "midi": 49,
      "hit": false,
      "t": 438516.36979167967,
      "d": 353.65862500004005,
      "v": 29
    },
    {
      "midi": 64,
      "hit": false,
      "t": 438557.02020834637,
      "d": 101.62604166666279,
      "v": 19
    },
    {
      "midi": 57,
      "hit": false,
      "t": 438870.0284166797,
      "d": 89.43091666669352,
      "v": 63
    },
    {
      "midi": 65,
      "hit": false,
      "t": 438870.0284166797,
      "d": 162.60166666668374,
      "v": 66
    },
    {
      "midi": 50,
      "hit": false,
      "t": 438874.0934583464,
      "d": 89.43091666669352,
      "v": 51
    },
    {
      "midi": 61,
      "hit": false,
      "t": 438882.22354167973,
      "d": 134.14637500001118,
      "v": 49
    },
    {
      "midi": 74,
      "hit": false,
      "t": 439386.2887083464,
      "d": 483.7399583333172,
      "v": 87
    },
    {
      "midi": 65,
      "hit": false,
      "t": 439390.35375001305,
      "d": 512.1952499999898,
      "v": 89
    },
    {
      "midi": 69,
      "hit": false,
      "t": 439394.4187916797,
      "d": 544.7155833333381,
      "v": 88
    },
    {
      "midi": 64,
      "hit": false,
      "t": 439398.4838333464,
      "d": 325.2033333333093,
      "v": 80
    },
    {
      "midi": 63,
      "hit": false,
      "t": 439666.77658334636,
      "d": 365.8537500000675,
      "v": 83
    },
    {
      "midi": 76,
      "hit": false,
      "t": 440004.1750416797,
      "d": 455.28466666670283,
      "v": 83
    },
    {
      "midi": 69,
      "hit": false,
      "t": 440008.2400833464,
      "d": 426.82937500003027,
      "v": 68
    },
    {
      "midi": 65,
      "hit": false,
      "t": 440012.30512501305,
      "d": 483.7399583333754,
      "v": 69
    },
    {
      "midi": 62,
      "hit": false,
      "t": 440020.4352083464,
      "d": 369.91879166668514,
      "v": 68
    },
    {
      "midi": 61,
      "hit": false,
      "t": 440349.70358334645,
      "d": 288.61795833328506,
      "v": 80
    },
    {
      "midi": 60,
      "hit": false,
      "t": 440658.64675001305,
      "d": 227.64233333338052,
      "v": 65
    },
    {
      "midi": 77,
      "hit": false,
      "t": 440666.7768333464,
      "d": 101.626041666721,
      "v": 62
    },
    {
      "midi": 65,
      "hit": false,
      "t": 440674.90691667976,
      "d": 56.91058333334513,
      "v": 53
    },
    {
      "midi": 72,
      "hit": false,
      "t": 440678.97195834643,
      "d": 85.3658750000177,
      "v": 53
    },
    {
      "midi": 58,
      "hit": false,
      "t": 440841.5736250131,
      "d": 117.88620833330788,
      "v": 46
    },
    {
      "midi": 57,
      "hit": false,
      "t": 441057.0208333464,
      "d": 382.1139166666544,
      "v": 51
    },
    {
      "midi": 81,
      "hit": false,
      "t": 441065.15091667976,
      "d": 861.788833333354,
      "v": 62
    },
    {
      "midi": 69,
      "hit": false,
      "t": 441069.21595834644,
      "d": 621.951374999946,
      "v": 58
    },
    {
      "midi": 74,
      "hit": false,
      "t": 441073.2810000131,
      "d": 577.2359166666283,
      "v": 60
    },
    {
      "midi": 62,
      "hit": false,
      "t": 441837.50883334636,
      "d": 162.60166666674195,
      "v": 38
    },
    {
      "midi": 57,
      "hit": false,
      "t": 441845.6389166797,
      "d": 162.60166666674195,
      "v": 29
    },
    {
      "midi": 69,
      "hit": false,
      "t": 441849.7039583464,
      "d": 158.53662500006612,
      "v": 44
    },
    {
      "midi": 74,
      "hit": false,
      "t": 441853.76900001307,
      "d": 121.95125000004191,
      "v": 34
    },
    {
      "midi": 52,
      "hit": false,
      "t": 441865.9641250131,
      "d": 272.3577916666982,
      "v": 31
    },
    {
      "midi": 58,
      "hit": false,
      "t": 442418.8097916798,
      "d": 430.8944166666479,
      "v": 53
    },
    {
      "midi": 62,
      "hit": false,
      "t": 442426.93987501314,
      "d": 430.8944166666479,
      "v": 71
    },
    {
      "midi": 69,
      "hit": false,
      "t": 442431.0049166798,
      "d": 313.00820833334,
      "v": 73
    },
    {
      "midi": 66,
      "hit": false,
      "t": 442431.0049166798,
      "d": 479.67491666664137,
      "v": 68
    },
    {
      "midi": 57,
      "hit": false,
      "t": 442439.13500001316,
      "d": 418.6992916666204,
      "v": 47
    },
    {
      "midi": 55,
      "hit": false,
      "t": 442443.20004167984,
      "d": 422.76433333329624,
      "v": 58
    },
    {
      "midi": 70,
      "hit": false,
      "t": 442784.6635416798,
      "d": 134.14637500001118,
      "v": 64
    },
    {
      "midi": 72,
      "hit": false,
      "t": 443130.1920833465,
      "d": 166.66670833335957,
      "v": 70
    },
    {
      "midi": 65,
      "hit": false,
      "t": 443138.32216667983,
      "d": 138.211416666687,
      "v": 69
    },
    {
      "midi": 61,
      "hit": false,
      "t": 443142.3872083465,
      "d": 150.40654166665627,
      "v": 64
    },
    {
      "midi": 69,
      "hit": false,
      "t": 443146.4522500132,
      "d": 162.60166666668374,
      "v": 57
    },
    {
      "midi": 60,
      "hit": false,
      "t": 443158.6473750132,
      "d": 325.2033333333093,
      "v": 69
    },
    {
      "midi": 76,
      "hit": false,
      "t": 443512.3060000132,
      "d": 60.975625000020955,
      "v": 53
    },
    {
      "midi": 74,
      "hit": false,
      "t": 443520.43608334655,
      "d": 32.52033333334839,
      "v": 50
    },
    {
      "midi": 79,
      "hit": false,
      "t": 443845.6394166799,
      "d": 138.211416666687,
      "v": 59
    },
    {
      "midi": 76,
      "hit": false,
      "t": 443849.7044583466,
      "d": 150.40654166665627,
      "v": 55
    },
    {
      "midi": 73,
      "hit": false,
      "t": 443849.7044583466,
      "d": 174.796791666653,
      "v": 57
    },
    {
      "midi": 67,
      "hit": false,
      "t": 443853.76950001327,
      "d": 105.69108333333861,
      "v": 54
    },
    {
      "midi": 61,
      "hit": false,
      "t": 443861.8995833466,
      "d": 203.25208333326736,
      "v": 55
    },
    {
      "midi": 55,
      "hit": false,
      "t": 443861.8995833466,
      "d": 361.7887083333917,
      "v": 60
    },
    {
      "midi": 81,
      "hit": false,
      "t": 444150.5175416799,
      "d": 97.56100000010338,
      "v": 68
    },
    {
      "midi": 69,
      "hit": false,
      "t": 444158.64762501325,
      "d": 56.91058333340334,
      "v": 58
    },
    {
      "midi": 61,
      "hit": false,
      "t": 444158.64762501325,
      "d": 89.43091666675173,
      "v": 37
    },
    {
      "midi": 64,
      "hit": false,
      "t": 444170.8427500133,
      "d": 36.585375000024214,
      "v": 33
    },
    {
      "midi": 51,
      "hit": false,
      "t": 444451.33062501333,
      "d": 191.05695833347272,
      "v": 46
    },
    {
      "midi": 61,
      "hit": false,
      "t": 444459.4607083467,
      "d": 85.3658750000759,
      "v": 37
    },
    {
      "midi": 84,
      "hit": false,
      "t": 444467.59079168004,
      "d": 85.3658750000759,
      "v": 66
    },
    {
      "midi": 58,
      "hit": false,
      "t": 444471.6558333467,
      "d": 219.51225000008708,
      "v": 44
    },
    {
      "midi": 72,
      "hit": false,
      "t": 444475.7208750134,
      "d": 32.52033333334839,
      "v": 45
    },
    {
      "midi": 91,
      "hit": false,
      "t": 444764.3388333468,
      "d": 113.82116666680668,
      "v": 62
    },
    {
      "midi": 60,
      "hit": false,
      "t": 444764.3388333468,
      "d": 134.1463750001276,
      "v": 45
    },
    {
      "midi": 79,
      "hit": false,
      "t": 444768.40387501346,
      "d": 97.56100000010338,
      "v": 66
    },
    {
      "midi": 57,
      "hit": false,
      "t": 444776.5339583468,
      "d": 126.01629166677594,
      "v": 37
    },
    {
      "midi": 88,
      "hit": false,
      "t": 444788.72908334684,
      "d": 40.65041666670004,
      "v": 52
    },
    {
      "midi": 53,
      "hit": false,
      "t": 444796.8591666802,
      "d": 109.75612500007264,
      "v": 34
    },
    {
      "midi": 50,
      "hit": false,
      "t": 444800.92420834687,
      "d": 101.626041666721,
      "v": 36
    },
    {
      "midi": 88,
      "hit": false,
      "t": 445052.95679168025,
      "d": 130.08133333333535,
      "v": 57
    },
    {
      "midi": 76,
      "hit": false,
      "t": 445061.0868750136,
      "d": 162.60166666668374,
      "v": 50
    },
    {
      "midi": 84,
      "hit": false,
      "t": 445065.1519166803,
      "d": 121.9512499999837,
      "v": 56
    },
    {
      "midi": 60,
      "hit": false,
      "t": 445069.21695834695,
      "d": 166.66670833335957,
      "v": 42
    },
    {
      "midi": 57,
      "hit": false,
      "t": 445069.21695834695,
      "d": 195.12200000003213,
      "v": 35
    },
    {
      "midi": 50,
      "hit": false,
      "t": 445073.2820000136,
      "d": 166.66670833335957,
      "v": 33
    },
    {
      "midi": 53,
      "hit": false,
      "t": 445089.5421666803,
      "d": 166.66670833335957,
      "v": 33
    },
    {
      "midi": 84,
      "hit": false,
      "t": 445374.095083347,
      "d": 101.6260416667792,
      "v": 54
    },
    {
      "midi": 81,
      "hit": false,
      "t": 445382.22516668035,
      "d": 85.3658750000759,
      "v": 57
    },
    {
      "midi": 60,
      "hit": false,
      "t": 445386.290208347,
      "d": 130.08133333339356,
      "v": 45
    },
    {
      "midi": 72,
      "hit": false,
      "t": 445398.48533334705,
      "d": 97.56100000004517,
      "v": 44
    },
    {
      "midi": 57,
      "hit": false,
      "t": 445398.48533334705,
      "d": 134.14637500001118,
      "v": 30
    },
    {
      "midi": 53,
      "hit": false,
      "t": 445406.6154166804,
      "d": 130.08133333333535,
      "v": 36
    },
    {
      "midi": 50,
      "hit": false,
      "t": 445406.6154166804,
      "d": 154.4715833333321,
      "v": 28
    },
    {
      "midi": 81,
      "hit": false,
      "t": 445707.4285000137,
      "d": 703.2522083334043,
      "v": 49
    },
    {
      "midi": 76,
      "hit": false,
      "t": 445723.68866668036,
      "d": 691.057083333435,
      "v": 50
    },
    {
      "midi": 69,
      "hit": false,
      "t": 445727.75370834704,
      "d": 739.8375833334285,
      "v": 45
    },
    {
      "midi": 60,
      "hit": false,
      "t": 445735.8837916804,
      "d": 707.3172500000801,
      "v": 37
    },
    {
      "midi": 57,
      "hit": false,
      "t": 445744.01387501374,
      "d": 686.992041666701,
      "v": 36
    },
    {
      "midi": 50,
      "hit": false,
      "t": 445748.0789166804,
      "d": 650.4066666666768,
      "v": 26
    },
    {
      "midi": 53,
      "hit": false,
      "t": 445752.1439583471,
      "d": 662.6017916667042,
      "v": 36
    },
    {
      "midi": 74,
      "hit": false,
      "t": 446870.03041668044,
      "d": 219.51225000002887,
      "v": 78
    },
    {
      "midi": 70,
      "hit": false,
      "t": 446886.2905833471,
      "d": 199.18704166670796,
      "v": 82
    },
    {
      "midi": 60,
      "hit": false,
      "t": 446890.35562501376,
      "d": 707.3172500000801,
      "v": 51
    },
    {
      "midi": 54,
      "hit": false,
      "t": 446894.42066668044,
      "d": 1089.4311666667927,
      "v": 53
    },
    {
      "midi": 73,
      "hit": false,
      "t": 446898.4857083471,
      "d": 32.52033333334839,
      "v": 52
    },
    {
      "midi": 65,
      "hit": false,
      "t": 446955.3962916805,
      "d": 93.49595833331114,
      "v": 14
    },
    {
      "midi": 86,
      "hit": false,
      "t": 447227.75408334716,
      "d": 447.1545833333512,
      "v": 83
    },
    {
      "midi": 60,
      "hit": false,
      "t": 447703.3639583472,
      "d": 166.66670833335957,
      "v": 13
    },
    {
      "midi": 54,
      "hit": false,
      "t": 448126.12829168054,
      "d": 154.4715833333903,
      "v": 38
    },
    {
      "midi": 60,
      "hit": false,
      "t": 448134.2583750139,
      "d": 117.88620833336608,
      "v": 43
    },
    {
      "midi": 64,
      "hit": false,
      "t": 448138.32341668056,
      "d": 81.30083333334187,
      "v": 36
    },
    {
      "midi": 81,
      "hit": false,
      "t": 448500.11212501395,
      "d": 40.65041666664183,
      "v": 35
    },
    {
      "midi": 84,
      "hit": false,
      "t": 448617.99833334726,
      "d": 126.01629166665953,
      "v": 80
    },
    {
      "midi": 77,
      "hit": false,
      "t": 448788.73008334724,
      "d": 56.91058333334513,
      "v": 37
    },
    {
      "midi": 62,
      "hit": false,
      "t": 448792.7951250139,
      "d": 73.17074999999022,
      "v": 37
    },
    {
      "midi": 81,
      "hit": false,
      "t": 448796.8601666806,
      "d": 77.23579166666605,
      "v": 68
    },
    {
      "midi": 58,
      "hit": false,
      "t": 448796.8601666806,
      "d": 105.69108333333861,
      "v": 42
    },
    {
      "midi": 60,
      "hit": false,
      "t": 448804.99025001394,
      "d": 40.65041666664183,
      "v": 40
    },
    {
      "midi": 65,
      "hit": false,
      "t": 449122.06350001396,
      "d": 69.1057083333726,
      "v": 44
    },
    {
      "midi": 72,
      "hit": false,
      "t": 449122.06350001396,
      "d": 85.3658750000177,
      "v": 59
    },
    {
      "midi": 69,
      "hit": false,
      "t": 449138.3236666806,
      "d": 32.52033333334839,
      "v": 42
    },
    {
      "midi": 60,
      "hit": false,
      "t": 449142.3887083473,
      "d": 32.52033333334839,
      "v": 49
    },
    {
      "midi": 58,
      "hit": false,
      "t": 449142.3887083473,
      "d": 73.17075000004843,
      "v": 38
    },
    {
      "midi": 62,
      "hit": false,
      "t": 449146.45375001396,
      "d": 40.65041666670004,
      "v": 40
    },
    {
      "midi": 62,
      "hit": false,
      "t": 449329.380625014,
      "d": 52.84554166672751,
      "v": 34
    },
    {
      "midi": 65,
      "hit": false,
      "t": 449329.380625014,
      "d": 52.84554166672751,
      "v": 48
    },
    {
      "midi": 72,
      "hit": false,
      "t": 449329.380625014,
      "d": 65.04066666675499,
      "v": 44
    },
    {
      "midi": 58,
      "hit": false,
      "t": 449337.51070834737,
      "d": 60.97562500007916,
      "v": 25
    },
    {
      "midi": 60,
      "hit": false,
      "t": 449341.57575001405,
      "d": 28.455291666672565,
      "v": 42
    },
    {
      "midi": 69,
      "hit": false,
      "t": 449341.57575001405,
      "d": 36.585375000024214,
      "v": 42
    },
    {
      "midi": 58,
      "hit": false,
      "t": 449630.19370834745,
      "d": 85.3658750000759,
      "v": 55
    },
    {
      "midi": 60,
      "hit": false,
      "t": 449642.3888333475,
      "d": 32.52033333334839,
      "v": 54
    },
    {
      "midi": 65,
      "hit": false,
      "t": 449642.3888333475,
      "d": 44.715458333375864,
      "v": 65
    },
    {
      "midi": 72,
      "hit": false,
      "t": 449642.3888333475,
      "d": 56.91058333340334,
      "v": 65
    },
    {
      "midi": 69,
      "hit": false,
      "t": 449646.45387501415,
      "d": 36.585375000024214,
      "v": 66
    },
    {
      "midi": 62,
      "hit": false,
      "t": 449650.5189166808,
      "d": 36.585375000024214,
      "v": 33
    },
    {
      "midi": 58,
      "hit": false,
      "t": 449821.25066668086,
      "d": 73.17075000004843,
      "v": 48
    },
    {
      "midi": 62,
      "hit": false,
      "t": 449841.5758750142,
      "d": 28.455291666672565,
      "v": 45
    },
    {
      "midi": 72,
      "hit": false,
      "t": 449841.5758750142,
      "d": 36.585375000024214,
      "v": 60
    },
    {
      "midi": 69,
      "hit": false,
      "t": 449849.70595834753,
      "d": 32.52033333334839,
      "v": 48
    },
    {
      "midi": 66,
      "hit": false,
      "t": 450109.86862501426,
      "d": 69.10570833343081,
      "v": 75
    },
    {
      "midi": 70,
      "hit": false,
      "t": 450113.93366668094,
      "d": 73.17075000010664,
      "v": 69
    },
    {
      "midi": 73,
      "hit": false,
      "t": 450117.9987083476,
      "d": 85.3658750000759,
      "v": 55
    },
    {
      "midi": 62,
      "hit": false,
      "t": 450126.12879168097,
      "d": 40.65041666670004,
      "v": 35
    },
    {
      "midi": 58,
      "hit": false,
      "t": 450126.12879168097,
      "d": 81.30083333340008,
      "v": 40
    },
    {
      "midi": 61,
      "hit": false,
      "t": 450138.323916681,
      "d": 36.585375000024214,
      "v": 27
    },
    {
      "midi": 69,
      "hit": false,
      "t": 450296.86054168106,
      "d": 256.0976249999949,
      "v": 63
    },
    {
      "midi": 65,
      "hit": false,
      "t": 450300.92558334774,
      "d": 284.55291666666744,
      "v": 60
    },
    {
      "midi": 58,
      "hit": false,
      "t": 450304.9906250144,
      "d": 154.4715833333321,
      "v": 43
    },
    {
      "midi": 72,
      "hit": false,
      "t": 450309.0556666811,
      "d": 398.3740833332995,
      "v": 56
    },
    {
      "midi": 62,
      "hit": false,
      "t": 450313.12070834776,
      "d": 73.17074999999022,
      "v": 40
    },
    {
      "midi": 60,
      "hit": false,
      "t": 450337.51095834776,
      "d": 32.52033333334839,
      "v": 33
    },
    {
      "midi": 58,
      "hit": false,
      "t": 450768.4053750144,
      "d": 430.8944166667061,
      "v": 47
    },
    {
      "midi": 68,
      "hit": false,
      "t": 450772.4704166811,
      "d": 308.9431666667224,
      "v": 56
    },
    {
      "midi": 52,
      "hit": false,
      "t": 450792.7956250144,
      "d": 333.33341666671913,
      "v": 49
    },
    {
      "midi": 64,
      "hit": false,
      "t": 450804.99075001443,
      "d": 191.0569583333563,
      "v": 26
    },
    {
      "midi": 87,
      "hit": false,
      "t": 451756.2105000144,
      "d": 138.2114166666288,
      "v": 80
    },
    {
      "midi": 75,
      "hit": false,
      "t": 451772.47066668107,
      "d": 117.88620833330788,
      "v": 59
    },
    {
      "midi": 85,
      "hit": false,
      "t": 451894.42191668105,
      "d": 97.56099999998696,
      "v": 58
    },
    {
      "midi": 87,
      "hit": false,
      "t": 452048.8935000144,
      "d": 223.5772916666465,
      "v": 83
    },
    {
      "midi": 75,
      "hit": false,
      "t": 452069.2187083477,
      "d": 109.75612500001444,
      "v": 52
    },
    {
      "midi": 63,
      "hit": false,
      "t": 452077.34879168106,
      "d": 32.52033333334839,
      "v": 39
    },
    {
      "midi": 58,
      "hit": false,
      "t": 452085.4788750144,
      "d": 73.17074999999022,
      "v": 36
    },
    {
      "midi": 52,
      "hit": false,
      "t": 452089.5439166811,
      "d": 105.6910833332804,
      "v": 37
    },
    {
      "midi": 85,
      "hit": false,
      "t": 452203.3650833477,
      "d": 223.5772916666465,
      "v": 62
    },
    {
      "midi": 75,
      "hit": false,
      "t": 452524.50337501435,
      "d": 69.1057083333144,
      "v": 43
    },
    {
      "midi": 48,
      "hit": false,
      "t": 452617.99933334766,
      "d": 48.78049999999348,
      "v": 40
    },
    {
      "midi": 41,
      "hit": false,
      "t": 452638.324541681,
      "d": 36.585375000024214,
      "v": 33
    },
    {
      "midi": 88,
      "hit": false,
      "t": 452723.690416681,
      "d": 105.69108333333861,
      "v": 82
    },
    {
      "midi": 76,
      "hit": false,
      "t": 452731.82050001435,
      "d": 77.23579166666605,
      "v": 62
    },
    {
      "midi": 86,
      "hit": false,
      "t": 452894.422166681,
      "d": 81.30083333334187,
      "v": 62
    },
    {
      "midi": 88,
      "hit": false,
      "t": 453044.82870834763,
      "d": 239.83745833329158,
      "v": 87
    },
    {
      "midi": 76,
      "hit": false,
      "t": 453048.8937500143,
      "d": 121.9512499999837,
      "v": 74
    },
    {
      "midi": 57,
      "hit": false,
      "t": 453069.2189583476,
      "d": 495.93508333334466,
      "v": 64
    },
    {
      "midi": 62,
      "hit": false,
      "t": 453073.2840000143,
      "d": 451.2196249999688,
      "v": 62
    },
    {
      "midi": 67,
      "hit": false,
      "t": 453077.349041681,
      "d": 451.2196249999688,
      "v": 53
    },
    {
      "midi": 86,
      "hit": false,
      "t": 453235.88566668093,
      "d": 158.53662500000792,
      "v": 64
    },
    {
      "midi": 81,
      "hit": false,
      "t": 453390.35725001426,
      "d": 130.08133333333535,
      "v": 64
    },
    {
      "midi": 76,
      "hit": false,
      "t": 453561.0890000143,
      "d": 48.78049999999348,
      "v": 50
    },
    {
      "midi": 86,
      "hit": false,
      "t": 453707.4305000143,
      "d": 247.96754166670144,
      "v": 63
    },
    {
      "midi": 64,
      "hit": false,
      "t": 453707.4305000143,
      "d": 402.4391250000335,
      "v": 30
    },
    {
      "midi": 74,
      "hit": false,
      "t": 453715.56058334763,
      "d": 264.2277083333465,
      "v": 60
    },
    {
      "midi": 53,
      "hit": false,
      "t": 453723.690666681,
      "d": 422.76433333335444,
      "v": 18
    },
    {
      "midi": 60,
      "hit": false,
      "t": 453731.82075001433,
      "d": 495.93508333334466,
      "v": 52
    },
    {
      "midi": 84,
      "hit": false,
      "t": 454187.105416681,
      "d": 89.43091666669352,
      "v": 58
    },
    {
      "midi": 72,
      "hit": false,
      "t": 454199.300541681,
      "d": 113.82116666669026,
      "v": 44
    },
    {
      "midi": 53,
      "hit": false,
      "t": 454467.593291681,
      "d": 56.91058333334513,
      "v": 54
    },
    {
      "midi": 57,
      "hit": false,
      "t": 454959.4633333477,
      "d": 382.1139166667126,
      "v": 75
    },
    {
      "midi": 81,
      "hit": false,
      "t": 454959.4633333477,
      "d": 390.24400000006426,
      "v": 79
    },
    {
      "midi": 74,
      "hit": false,
      "t": 454963.5283750144,
      "d": 345.5285416666884,
      "v": 80
    },
    {
      "midi": 58,
      "hit": false,
      "t": 454963.5283750144,
      "d": 406.50416666670935,
      "v": 67
    },
    {
      "midi": 77,
      "hit": false,
      "t": 454967.59341668105,
      "d": 349.5935833333642,
      "v": 70
    },
    {
      "midi": 62,
      "hit": false,
      "t": 454967.59341668105,
      "d": 398.3740833333577,
      "v": 81
    },
    {
      "midi": 69,
      "hit": false,
      "t": 454971.6584583477,
      "d": 325.2033333333093,
      "v": 80
    },
    {
      "midi": 52,
      "hit": false,
      "t": 454971.6584583477,
      "d": 341.4635000000126,
      "v": 76
    },
    {
      "midi": 66,
      "hit": false,
      "t": 455618.0000833478,
      "d": 158.53662500006612,
      "v": 70
    },
    {
      "midi": 75,
      "hit": false,
      "t": 455618.0000833478,
      "d": 170.7317500000936,
      "v": 60
    },
    {
      "midi": 78,
      "hit": false,
      "t": 455622.06512501446,
      "d": 170.7317500000936,
      "v": 57
    },
    {
      "midi": 83,
      "hit": false,
      "t": 455622.06512501446,
      "d": 195.12200000009034,
      "v": 66
    },
    {
      "midi": 61,
      "hit": false,
      "t": 455626.13016668113,
      "d": 203.252083333442,
      "v": 57
    },
    {
      "midi": 71,
      "hit": false,
      "t": 455630.1952083478,
      "d": 134.14637500001118,
      "v": 66
    },
    {
      "midi": 55,
      "hit": false,
      "t": 455630.1952083478,
      "d": 178.86183333338704,
      "v": 67
    },
    {
      "midi": 73,
      "hit": false,
      "t": 456093.6099583479,
      "d": 134.14637500006938,
      "v": 56
    },
    {
      "midi": 85,
      "hit": false,
      "t": 456093.6099583479,
      "d": 146.34150000009686,
      "v": 67
    },
    {
      "midi": 55,
      "hit": false,
      "t": 456109.87012501457,
      "d": 101.626041666721,
      "v": 62
    },
    {
      "midi": 80,
      "hit": false,
      "t": 456109.87012501457,
      "d": 121.95125000010012,
      "v": 47
    },
    {
      "midi": 64,
      "hit": false,
      "t": 456113.93516668124,
      "d": 56.91058333334513,
      "v": 56
    },
    {
      "midi": 61,
      "hit": false,
      "t": 456118.0002083479,
      "d": 85.3658750000177,
      "v": 40
    },
    {
      "midi": 58,
      "hit": false,
      "t": 456130.19533334795,
      "d": 85.3658750000177,
      "v": 34
    },
    {
      "midi": 76,
      "hit": false,
      "t": 456646.45562501467,
      "d": 678.8619583333493,
      "v": 84
    },
    {
      "midi": 64,
      "hit": false,
      "t": 456646.45562501467,
      "d": 735.7725416666945,
      "v": 78
    },
    {
      "midi": 69,
      "hit": false,
      "t": 456654.585708348,
      "d": 528.4554166666348,
      "v": 73
    },
    {
      "midi": 65,
      "hit": false,
      "t": 456654.585708348,
      "d": 589.4310416666558,
      "v": 61
    },
    {
      "midi": 67,
      "hit": false,
      "t": 456678.975958348,
      "d": 32.52033333334839,
      "v": 35
    },
    {
      "midi": 73,
      "hit": false,
      "t": 457390.3582500147,
      "d": 85.36587499995949,
      "v": 55
    },
    {
      "midi": 61,
      "hit": false,
      "t": 457406.61841668136,
      "d": 126.01629166665953,
      "v": 44
    },
    {
      "midi": 65,
      "hit": false,
      "t": 457410.68345834804,
      "d": 73.17074999999022,
      "v": 30
    },
    {
      "midi": 62,
      "hit": false,
      "t": 457561.0900000147,
      "d": 93.49595833342755,
      "v": 55
    },
    {
      "midi": 74,
      "hit": false,
      "t": 457573.2851250147,
      "d": 69.1057083333726,
      "v": 60
    },
    {
      "midi": 65,
      "hit": false,
      "t": 457585.48025001475,
      "d": 52.845541666669305,
      "v": 38
    },
    {
      "midi": 65,
      "hit": false,
      "t": 457760.27704168146,
      "d": 235.77241666667396,
      "v": 62
    },
    {
      "midi": 72,
      "hit": false,
      "t": 457760.27704168146,
      "d": 268.29275000002235,
      "v": 60
    },
    {
      "midi": 60,
      "hit": false,
      "t": 457764.34208334814,
      "d": 252.03258333331905,
      "v": 60
    },
    {
      "midi": 62,
      "hit": false,
      "t": 458032.63483334816,
      "d": 178.86183333332883,
      "v": 46
    },
    {
      "midi": 65,
      "hit": false,
      "t": 458044.8299583482,
      "d": 109.75612499995623,
      "v": 24
    },
    {
      "midi": 69,
      "hit": false,
      "t": 458061.09012501483,
      "d": 93.49595833331114,
      "v": 49
    },
    {
      "midi": 57,
      "hit": false,
      "t": 458061.09012501483,
      "d": 182.92687500000466,
      "v": 41
    },
    {
      "midi": 53,
      "hit": false,
      "t": 458313.12270834815,
      "d": 28.455291666672565,
      "v": 47
    },
    {
      "midi": 62,
      "hit": false,
      "t": 458313.12270834815,
      "d": 81.30083333334187,
      "v": 51
    },
    {
      "midi": 54,
      "hit": false,
      "t": 458463.5292500148,
      "d": 36.585375000024214,
      "v": 55
    },
    {
      "midi": 58,
      "hit": false,
      "t": 458601.7406666815,
      "d": 394.3090416666819,
      "v": 61
    },
    {
      "midi": 53,
      "hit": false,
      "t": 458630.19595834817,
      "d": 398.3740833333577,
      "v": 50
    },
    {
      "midi": 43,
      "hit": false,
      "t": 458662.7162916815,
      "d": 308.9431666666642,
      "v": 41
    },
    {
      "midi": 57,
      "hit": false,
      "t": 459365.96850001486,
      "d": 260.1626666667289,
      "v": 72
    },
    {
      "midi": 65,
      "hit": false,
      "t": 459370.03354168154,
      "d": 191.0569583333563,
      "v": 82
    },
    {
      "midi": 72,
      "hit": false,
      "t": 459374.0985833482,
      "d": 199.18704166670796,
      "v": 80
    },
    {
      "midi": 62,
      "hit": false,
      "t": 459378.1636250149,
      "d": 142.27645833330462,
      "v": 79
    },
    {
      "midi": 70,
      "hit": false,
      "t": 459642.39133334823,
      "d": 170.7317500000936,
      "v": 60
    },
    {
      "midi": 62,
      "hit": false,
      "t": 459650.5214166816,
      "d": 223.5772916667629,
      "v": 41
    },
    {
      "midi": 55,
      "hit": false,
      "t": 459654.58645834826,
      "d": 300.81308333342895,
      "v": 49
    },
    {
      "midi": 65,
      "hit": false,
      "t": 459666.7815833483,
      "d": 85.3658750000177,
      "v": 24
    },
    {
      "midi": 50,
      "hit": false,
      "t": 460048.895500015,
      "d": 48.78049999999348,
      "v": 30
    },
    {
      "midi": 55,
      "hit": false,
      "t": 460386.29395834834,
      "d": 134.14637500001118,
      "v": 40
    },
    {
      "midi": 60,
      "hit": false,
      "t": 460390.359000015,
      "d": 191.0569583333563,
      "v": 52
    },
    {
      "midi": 64,
      "hit": false,
      "t": 460390.359000015,
      "d": 223.5772916667047,
      "v": 43
    },
    {
      "midi": 56,
      "hit": false,
      "t": 460406.61916668166,
      "d": 313.0082083333982,
      "v": 37
    },
    {
      "midi": 46,
      "hit": false,
      "t": 460414.749250015,
      "d": 260.1626666667289,
      "v": 33
    },
    {
      "midi": 79,
      "hit": false,
      "t": 460829.3835000151,
      "d": 150.40654166671447,
      "v": 49
    },
    {
      "midi": 72,
      "hit": false,
      "t": 460841.5786250151,
      "d": 77.23579166666605,
      "v": 41
    },
    {
      "midi": 76,
      "hit": false,
      "t": 461016.3754166818,
      "d": 288.6179583334015,
      "v": 34
    },
    {
      "midi": 67,
      "hit": false,
      "t": 461028.57054168184,
      "d": 215.44720833335305,
      "v": 37
    },
    {
      "midi": 72,
      "hit": false,
      "t": 461057.0258333485,
      "d": 191.0569583333563,
      "v": 12
    },
    {
      "midi": 79,
      "hit": false,
      "t": 461333.4486666819,
      "d": 126.01629166665953,
      "v": 48
    },
    {
      "midi": 72,
      "hit": false,
      "t": 461365.96900001523,
      "d": 85.36587499995949,
      "v": 51
    },
    {
      "midi": 76,
      "hit": false,
      "t": 461508.24545834854,
      "d": 235.77241666673217,
      "v": 33
    },
    {
      "midi": 56,
      "hit": false,
      "t": 461508.24545834854,
      "d": 252.03258333337726,
      "v": 30
    },
    {
      "midi": 67,
      "hit": false,
      "t": 461536.7007500152,
      "d": 170.7317500000354,
      "v": 25
    },
    {
      "midi": 79,
      "hit": false,
      "t": 461821.25366668194,
      "d": 166.66670833335957,
      "v": 70
    },
    {
      "midi": 72,
      "hit": false,
      "t": 461845.64391668193,
      "d": 313.00820833334,
      "v": 49
    },
    {
      "midi": 62,
      "hit": false,
      "t": 461849.7089583486,
      "d": 386.17895833333023,
      "v": 33
    },
    {
      "midi": 56,
      "hit": false,
      "t": 462065.15616668196,
      "d": 191.0569583332981,
      "v": 25
    },
    {
      "midi": 79,
      "hit": false,
      "t": 462325.3188333486,
      "d": 52.84554166672751,
      "v": 57
    },
    {
      "midi": 72,
      "hit": false,
      "t": 462337.5139583486,
      "d": 32.52033333334839,
      "v": 51
    },
    {
      "midi": 67,
      "hit": false,
      "t": 462337.5139583486,
      "d": 40.65041666670004,
      "v": 44
    },
    {
      "midi": 61,
      "hit": false,
      "t": 462357.8391666819,
      "d": 44.715458333375864,
      "v": 45
    },
    {
      "midi": 55,
      "hit": false,
      "t": 462386.29445834865,
      "d": 36.58537499996601,
      "v": 24
    },
    {
      "midi": 64,
      "hit": false,
      "t": 463280.6036250153,
      "d": 85.3658750000177,
      "v": 48
    },
    {
      "midi": 49,
      "hit": false,
      "t": 463280.6036250153,
      "d": 146.34150000009686,
      "v": 51
    },
    {
      "midi": 58,
      "hit": false,
      "t": 463292.7987500153,
      "d": 105.69108333339682,
      "v": 47
    },
    {
      "midi": 61,
      "hit": false,
      "t": 463296.863791682,
      "d": 89.43091666669352,
      "v": 44
    },
    {
      "midi": 55,
      "hit": false,
      "t": 463300.9288333487,
      "d": 73.17074999999022,
      "v": 53
    },
    {
      "midi": 58,
      "hit": false,
      "t": 463500.1158750154,
      "d": 97.56100000004517,
      "v": 23
    },
    {
      "midi": 61,
      "hit": false,
      "t": 463504.18091668206,
      "d": 97.56100000004517,
      "v": 33
    },
    {
      "midi": 65,
      "hit": false,
      "t": 463508.24595834874,
      "d": 101.626041666721,
      "v": 37
    },
    {
      "midi": 50,
      "hit": false,
      "t": 463508.24595834874,
      "d": 126.01629166671773,
      "v": 34
    },
    {
      "midi": 55,
      "hit": false,
      "t": 463512.3110000154,
      "d": 48.78049999999348,
      "v": 30
    },
    {
      "midi": 58,
      "hit": false,
      "t": 463914.75012501545,
      "d": 130.08133333345177,
      "v": 45
    },
    {
      "midi": 67,
      "hit": false,
      "t": 463922.8802083488,
      "d": 101.626041666721,
      "v": 34
    },
    {
      "midi": 61,
      "hit": false,
      "t": 463922.8802083488,
      "d": 178.86183333344525,
      "v": 45
    },
    {
      "midi": 64,
      "hit": false,
      "t": 463926.9452500155,
      "d": 109.75612500007264,
      "v": 35
    },
    {
      "midi": 52,
      "hit": false,
      "t": 463935.0753333488,
      "d": 142.27645833342103,
      "v": 33
    },
    {
      "midi": 69,
      "hit": false,
      "t": 464402.55512501555,
      "d": 1357.7239166666986,
      "v": 52
    },
    {
      "midi": 60,
      "hit": false,
      "t": 464406.62016668223,
      "d": 1036.585625000007,
      "v": 49
    },
    {
      "midi": 65,
      "hit": false,
      "t": 464406.62016668223,
      "d": 1097.561250000028,
      "v": 50
    },
    {
      "midi": 53,
      "hit": false,
      "t": 464414.7502500156,
      "d": 1134.146624999994,
      "v": 31
    },
    {
      "midi": 63,
      "hit": false,
      "t": 466345.64504168223,
      "d": 719.5123750000494,
      "v": 46
    },
    {
      "midi": 73,
      "hit": false,
      "t": 466349.7100833489,
      "d": 869.9189166667056,
      "v": 62
    },
    {
      "midi": 59,
      "hit": false,
      "t": 466357.84016668226,
      "d": 565.0407916666591,
      "v": 52
    },
    {
      "midi": 71,
      "hit": false,
      "t": 466357.84016668226,
      "d": 922.7644583333749,
      "v": 67
    },
    {
      "midi": 53,
      "hit": false,
      "t": 466361.90520834894,
      "d": 691.0570833333186,
      "v": 41
    },
    {
      "midi": 63,
      "hit": false,
      "t": 467296.8647916823,
      "d": 422.76433333335444,
      "v": 43
    },
    {
      "midi": 74,
      "hit": false,
      "t": 467321.2550416823,
      "d": 508.13020833337214,
      "v": 53
    },
    {
      "midi": 59,
      "hit": false,
      "t": 467333.4501666823,
      "d": 223.5772916666465,
      "v": 40
    },
    {
      "midi": 76,
      "hit": false,
      "t": 468122.06825001567,
      "d": 186.9919166667387,
      "v": 66
    },
    {
      "midi": 62,
      "hit": false,
      "t": 468130.198333349,
      "d": 520.3253333333996,
      "v": 49
    },
    {
      "midi": 67,
      "hit": false,
      "t": 468134.2633750157,
      "d": 93.49595833331114,
      "v": 53
    },
    {
      "midi": 72,
      "hit": false,
      "t": 468134.2633750157,
      "d": 126.01629166665953,
      "v": 61
    },
    {
      "midi": 56,
      "hit": false,
      "t": 468142.39345834905,
      "d": 479.6749166666996,
      "v": 46
    },
    {
      "midi": 84,
      "hit": false,
      "t": 468422.8813333491,
      "d": 317.07325000001583,
      "v": 81
    },
    {
      "midi": 79,
      "hit": false,
      "t": 468764.3448333491,
      "d": 548.7806250000722,
      "v": 60
    },
    {
      "midi": 76,
      "hit": false,
      "t": 468772.47491668246,
      "d": 512.195250000048,
      "v": 54
    },
    {
      "midi": 62,
      "hit": false,
      "t": 468772.47491668246,
      "d": 626.0164166667382,
      "v": 45
    },
    {
      "midi": 67,
      "hit": false,
      "t": 468776.53995834914,
      "d": 617.8863333333866,
      "v": 40
    },
    {
      "midi": 56,
      "hit": false,
      "t": 468784.6700416825,
      "d": 695.1221250000526,
      "v": 39
    },
    {
      "midi": 93,
      "hit": false,
      "t": 469922.8817083492,
      "d": 73.17075000004843,
      "v": 76
    },
    {
      "midi": 81,
      "hit": false,
      "t": 469935.07683334925,
      "d": 32.52033333334839,
      "v": 65
    },
    {
      "midi": 82,
      "hit": false,
      "t": 470081.4183333493,
      "d": 56.91058333334513,
      "v": 70
    },
    {
      "midi": 94,
      "hit": false,
      "t": 470085.48337501596,
      "d": 69.1057083333726,
      "v": 77
    },
    {
      "midi": 61,
      "hit": false,
      "t": 470105.8085833493,
      "d": 36.585375000024214,
      "v": 34
    },
    {
      "midi": 65,
      "hit": false,
      "t": 470239.9549583493,
      "d": 77.23579166672425,
      "v": 58
    },
    {
      "midi": 60,
      "hit": false,
      "t": 470239.9549583493,
      "d": 81.30083333340008,
      "v": 62
    },
    {
      "midi": 61,
      "hit": false,
      "t": 470239.9549583493,
      "d": 81.30083333340008,
      "v": 51
    },
    {
      "midi": 55,
      "hit": false,
      "t": 470252.1500833493,
      "d": 48.78049999999348,
      "v": 66
    },
    {
      "midi": 83,
      "hit": false,
      "t": 470256.215125016,
      "d": 36.58537499996601,
      "v": 71
    },
    {
      "midi": 95,
      "hit": false,
      "t": 470256.215125016,
      "d": 65.04066666669678,
      "v": 76
    },
    {
      "midi": 58,
      "hit": false,
      "t": 470272.47529168264,
      "d": 32.52033333334839,
      "v": 28
    },
    {
      "midi": 96,
      "hit": false,
      "t": 470410.6867083494,
      "d": 227.64233333338052,
      "v": 88
    },
    {
      "midi": 61,
      "hit": false,
      "t": 470410.6867083494,
      "d": 252.03258333343547,
      "v": 61
    },
    {
      "midi": 60,
      "hit": false,
      "t": 470410.6867083494,
      "d": 260.1626666667871,
      "v": 67
    },
    {
      "midi": 55,
      "hit": false,
      "t": 470414.75175001606,
      "d": 227.64233333338052,
      "v": 63
    },
    {
      "midi": 84,
      "hit": false,
      "t": 470414.75175001606,
      "d": 243.90250000008382,
      "v": 81
    },
    {
      "midi": 65,
      "hit": false,
      "t": 470418.81679168274,
      "d": 223.5772916667047,
      "v": 66
    },
    {
      "midi": 58,
      "hit": false,
      "t": 470439.14200001606,
      "d": 211.38216666673543,
      "v": 44
    },
    {
      "midi": 65,
      "hit": false,
      "t": 470735.8900416828,
      "d": 349.5935833333642,
      "v": 59
    },
    {
      "midi": 61,
      "hit": false,
      "t": 470735.8900416828,
      "d": 402.4391250000335,
      "v": 64
    },
    {
      "midi": 60,
      "hit": false,
      "t": 470739.9550833495,
      "d": 361.7887083333335,
      "v": 58
    },
    {
      "midi": 55,
      "hit": false,
      "t": 470744.02012501616,
      "d": 325.2033333333675,
      "v": 53
    },
    {
      "midi": 95,
      "hit": false,
      "t": 470752.1502083495,
      "d": 32.52033333334839,
      "v": 65
    },
    {
      "midi": 93,
      "hit": false,
      "t": 470752.1502083495,
      "d": 211.38216666667722,
      "v": 68
    },
    {
      "midi": 81,
      "hit": false,
      "t": 470756.2152500162,
      "d": 268.29275000002235,
      "v": 69
    },
    {
      "midi": 58,
      "hit": false,
      "t": 470764.34533334954,
      "d": 337.39845833327854,
      "v": 31
    },
    {
      "midi": 83,
      "hit": false,
      "t": 470768.4103750162,
      "d": 32.52033333329018,
      "v": 53
    },
    {
      "midi": 87,
      "hit": false,
      "t": 471524.5081250162,
      "d": 247.96754166670144,
      "v": 60
    },
    {
      "midi": 75,
      "hit": false,
      "t": 471528.57316668285,
      "d": 239.8374583333498,
      "v": 57
    },
    {
      "midi": 61,
      "hit": false,
      "t": 471532.6382083495,
      "d": 256.0976249999949,
      "v": 48
    },
    {
      "midi": 65,
      "hit": false,
      "t": 471540.7682916829,
      "d": 215.44720833329484,
      "v": 49
    },
    {
      "midi": 60,
      "hit": false,
      "t": 471548.89837501623,
      "d": 215.44720833329484,
      "v": 30
    },
    {
      "midi": 55,
      "hit": false,
      "t": 471565.1585416829,
      "d": 182.92687499994645,
      "v": 33
    },
    {
      "midi": 88,
      "hit": false,
      "t": 471849.71145834954,
      "d": 40.65041666670004,
      "v": 61
    },
    {
      "midi": 76,
      "hit": false,
      "t": 471853.7765000162,
      "d": 32.52033333334839,
      "v": 57
    },
    {
      "midi": 61,
      "hit": false,
      "t": 471987.92287501623,
      "d": 60.975625000020955,
      "v": 40
    },
    {
      "midi": 89,
      "hit": false,
      "t": 472012.3131250162,
      "d": 69.1057083333726,
      "v": 71
    },
    {
      "midi": 77,
      "hit": false,
      "t": 472016.3781666829,
      "d": 40.65041666670004,
      "v": 59
    },
    {
      "midi": 55,
      "hit": false,
      "t": 472024.50825001625,
      "d": 32.52033333334839,
      "v": 30
    },
    {
      "midi": 57,
      "hit": false,
      "t": 472447.2725833496,
      "d": 60.975625000020955,
      "v": 37
    },
    {
      "midi": 62,
      "hit": false,
      "t": 472447.2725833496,
      "d": 60.975625000020955,
      "v": 37
    },
    {
      "midi": 93,
      "hit": false,
      "t": 472447.2725833496,
      "d": 60.975625000020955,
      "v": 68
    },
    {
      "midi": 58,
      "hit": false,
      "t": 472451.3376250163,
      "d": 60.975625000020955,
      "v": 26
    },
    {
      "midi": 81,
      "hit": false,
      "t": 472459.46770834964,
      "d": 40.65041666664183,
      "v": 50
    },
    {
      "midi": 62,
      "hit": false,
      "t": 472597.6791250163,
      "d": 40.65041666670004,
      "v": 36
    },
    {
      "midi": 57,
      "hit": false,
      "t": 472605.8092083497,
      "d": 44.715458333375864,
      "v": 38
    },
    {
      "midi": 93,
      "hit": false,
      "t": 472756.2157500164,
      "d": 272.3577916667564,
      "v": 83
    },
    {
      "midi": 62,
      "hit": false,
      "t": 472760.28079168306,
      "d": 264.22770833340473,
      "v": 72
    },
    {
      "midi": 58,
      "hit": false,
      "t": 472768.4108750164,
      "d": 239.8374583333498,
      "v": 60
    },
    {
      "midi": 57,
      "hit": false,
      "t": 472768.4108750164,
      "d": 252.03258333337726,
      "v": 62
    },
    {
      "midi": 81,
      "hit": false,
      "t": 472768.4108750164,
      "d": 252.03258333337726,
      "v": 68
    },
    {
      "midi": 86,
      "hit": false,
      "t": 472776.54095834977,
      "d": 231.70737499999814,
      "v": 55
    },
    {
      "midi": 52,
      "hit": false,
      "t": 472776.54095834977,
      "d": 239.8374583333498,
      "v": 55
    },
    {
      "midi": 89,
      "hit": false,
      "t": 472813.1263333498,
      "d": 48.78049999999348,
      "v": 24
    },
    {
      "midi": 62,
      "hit": false,
      "t": 473154.5898333498,
      "d": 36.585375000024214,
      "v": 45
    },
    {
      "midi": 58,
      "hit": false,
      "t": 473154.5898333498,
      "d": 56.91058333340334,
      "v": 44
    },
    {
      "midi": 57,
      "hit": false,
      "t": 473162.71991668316,
      "d": 40.65041666670004,
      "v": 35
    },
    {
      "midi": 81,
      "hit": false,
      "t": 473178.9800833498,
      "d": 32.5203333334066,
      "v": 34
    },
    {
      "midi": 93,
      "hit": false,
      "t": 473178.9800833498,
      "d": 32.5203333334066,
      "v": 30
    },
    {
      "midi": 79,
      "hit": false,
      "t": 473337.51670834987,
      "d": 32.52033333334839,
      "v": 36
    },
    {
      "midi": 58,
      "hit": false,
      "t": 473349.7118333499,
      "d": 32.52033333334839,
      "v": 26
    },
    {
      "midi": 93,
      "hit": false,
      "t": 473467.59804168326,
      "d": 235.77241666673217,
      "v": 88
    },
    {
      "midi": 62,
      "hit": false,
      "t": 473467.59804168326,
      "d": 260.1626666667871,
      "v": 77
    },
    {
      "midi": 81,
      "hit": false,
      "t": 473471.66308334994,
      "d": 235.77241666673217,
      "v": 78
    },
    {
      "midi": 58,
      "hit": false,
      "t": 473471.66308334994,
      "d": 252.03258333343547,
      "v": 69
    },
    {
      "midi": 57,
      "hit": false,
      "t": 473479.7931666833,
      "d": 247.96754166675964,
      "v": 57
    },
    {
      "midi": 86,
      "hit": false,
      "t": 473479.7931666833,
      "d": 247.96754166675964,
      "v": 66
    },
    {
      "midi": 52,
      "hit": false,
      "t": 473487.92325001664,
      "d": 227.64233333338052,
      "v": 70
    },
    {
      "midi": 89,
      "hit": false,
      "t": 473487.92325001664,
      "d": 235.77241666673217,
      "v": 54
    },
    {
      "midi": 91,
      "hit": false,
      "t": 473841.58187501674,
      "d": 186.9919166667387,
      "v": 69
    },
    {
      "midi": 58,
      "hit": false,
      "t": 473853.77700001677,
      "d": 178.86183333338704,
      "v": 56
    },
    {
      "midi": 62,
      "hit": false,
      "t": 473853.77700001677,
      "d": 186.9919166667387,
      "v": 61
    },
    {
      "midi": 86,
      "hit": false,
      "t": 473857.84204168344,
      "d": 142.27645833336283,
      "v": 69
    },
    {
      "midi": 57,
      "hit": false,
      "t": 473861.9070833501,
      "d": 154.4715833333321,
      "v": 61
    },
    {
      "midi": 79,
      "hit": false,
      "t": 473861.9070833501,
      "d": 186.9919166667387,
      "v": 65
    },
    {
      "midi": 52,
      "hit": false,
      "t": 473870.03716668347,
      "d": 130.08133333333535,
      "v": 45
    },
    {
      "midi": 89,
      "hit": false,
      "t": 474170.85025001684,
      "d": 475.60987500002375,
      "v": 74
    },
    {
      "midi": 55,
      "hit": false,
      "t": 474170.85025001684,
      "d": 601.6261666666833,
      "v": 76
    },
    {
      "midi": 77,
      "hit": false,
      "t": 474178.9803333502,
      "d": 443.08954166667536,
      "v": 56
    },
    {
      "midi": 61,
      "hit": false,
      "t": 474183.04537501687,
      "d": 540.6505416666623,
      "v": 59
    },
    {
      "midi": 65,
      "hit": false,
      "t": 474187.11041668354,
      "d": 455.2846666666446,
      "v": 56
    },
    {
      "midi": 85,
      "hit": false,
      "t": 474187.11041668354,
      "d": 560.9757499999832,
      "v": 62
    },
    {
      "midi": 58,
      "hit": false,
      "t": 474187.11041668354,
      "d": 581.3009583333042,
      "v": 56
    },
    {
      "midi": 82,
      "hit": false,
      "t": 474187.11041668354,
      "d": 581.3009583333042,
      "v": 60
    },
    {
      "midi": 64,
      "hit": false,
      "t": 474211.50066668354,
      "d": 32.52033333334839,
      "v": 31
    },
    {
      "midi": 88,
      "hit": false,
      "t": 474959.4683333502,
      "d": 81.30083333340008,
      "v": 66
    },
    {
      "midi": 61,
      "hit": false,
      "t": 474963.5333750169,
      "d": 101.6260416667792,
      "v": 57
    },
    {
      "midi": 82,
      "hit": false,
      "t": 474963.5333750169,
      "d": 142.27645833342103,
      "v": 67
    },
    {
      "midi": 55,
      "hit": false,
      "t": 474971.66345835023,
      "d": 40.65041666670004,
      "v": 53
    },
    {
      "midi": 65,
      "hit": false,
      "t": 474971.66345835023,
      "d": 40.65041666670004,
      "v": 55
    },
    {
      "midi": 58,
      "hit": false,
      "t": 474971.66345835023,
      "d": 81.30083333340008,
      "v": 42
    },
    {
      "midi": 76,
      "hit": false,
      "t": 474975.7285000169,
      "d": 77.23579166672425,
      "v": 63
    },
    {
      "midi": 85,
      "hit": false,
      "t": 475004.1837916836,
      "d": 28.455291666672565,
      "v": 25
    },
    {
      "midi": 55,
      "hit": false,
      "t": 475154.5903333503,
      "d": 215.44720833341125,
      "v": 46
    },
    {
      "midi": 61,
      "hit": false,
      "t": 475154.5903333503,
      "d": 284.55291666678386,
      "v": 38
    },
    {
      "midi": 58,
      "hit": false,
      "t": 475162.72041668365,
      "d": 219.51225000008708,
      "v": 35
    },
    {
      "midi": 86,
      "hit": false,
      "t": 475166.7854583503,
      "d": 178.86183333338704,
      "v": 41
    },
    {
      "midi": 74,
      "hit": false,
      "t": 475174.9155416837,
      "d": 162.60166666668374,
      "v": 53
    },
    {
      "midi": 65,
      "hit": false,
      "t": 475178.98058335035,
      "d": 170.7317500000354,
      "v": 30
    },
    {
      "midi": 61,
      "hit": false,
      "t": 475565.15954168374,
      "d": 85.3658750000759,
      "v": 45
    },
    {
      "midi": 58,
      "hit": false,
      "t": 475597.6798750171,
      "d": 44.715458333375864,
      "v": 35
    },
    {
      "midi": 76,
      "hit": false,
      "t": 475626.13516668376,
      "d": 48.78050000005169,
      "v": 57
    },
    {
      "midi": 88,
      "hit": false,
      "t": 475630.20020835043,
      "d": 77.23579166672425,
      "v": 41
    },
    {
      "midi": 86,
      "hit": false,
      "t": 475642.39533335046,
      "d": 56.91058333334513,
      "v": 35
    },
    {
      "midi": 50,
      "hit": false,
      "t": 475935.0783333505,
      "d": 215.44720833341125,
      "v": 36
    },
    {
      "midi": 89,
      "hit": false,
      "t": 475943.20841668383,
      "d": 715.4473333333735,
      "v": 51
    },
    {
      "midi": 77,
      "hit": false,
      "t": 475947.2734583505,
      "d": 1024.3904999999795,
      "v": 40
    },
    {
      "midi": 57,
      "hit": false,
      "t": 475951.3385000172,
      "d": 130.08133333339356,
      "v": 30
    },
    {
      "midi": 53,
      "hit": false,
      "t": 475951.3385000172,
      "d": 150.40654166671447,
      "v": 48
    },
    {
      "midi": 86,
      "hit": false,
      "t": 475959.46858335054,
      "d": 837.398583333299,
      "v": 46
    },
    {
      "midi": 60,
      "hit": false,
      "t": 475963.5336250172,
      "d": 97.56100000004517,
      "v": 39
    },
    {
      "midi": 49,
      "hit": false,
      "t": 476398.49308335054,
      "d": 150.40654166665627,
      "v": 59
    },
    {
      "midi": 50,
      "hit": false,
      "t": 476597.6801250172,
      "d": 1422.7645833333954,
      "v": 69
    },
    {
      "midi": 38,
      "hit": false,
      "t": 476898.4932083505,
      "d": 313.00820833334,
      "v": 85
    },
    {
      "midi": 38,
      "hit": false,
      "t": 477378.1681250172,
      "d": 178.86183333332883,
      "v": 84
    },
    {
      "midi": 38,
      "hit": false,
      "t": 477853.7780000172,
      "d": 130.08133333333535,
      "v": 89
    },
    {
      "midi": 77,
      "hit": false,
      "t": 478357.8431666839,
      "d": 353.65862500004005,
      "v": 89
    },
    {
      "midi": 73,
      "hit": false,
      "t": 478361.9082083506,
      "d": 418.6992916666786,
      "v": 86
    },
    {
      "midi": 68,
      "hit": false,
      "t": 478361.9082083506,
      "d": 434.9594583333237,
      "v": 97
    },
    {
      "midi": 63,
      "hit": false,
      "t": 478370.03829168394,
      "d": 727.6424583333428,
      "v": 82
    },
    {
      "midi": 79,
      "hit": false,
      "t": 479016.37991668395,
      "d": 138.211416666687,
      "v": 77
    },
    {
      "midi": 75,
      "hit": false,
      "t": 479020.4449583506,
      "d": 195.12200000003213,
      "v": 76
    },
    {
      "midi": 70,
      "hit": false,
      "t": 479024.5100000173,
      "d": 186.99191666668048,
      "v": 81
    },
    {
      "midi": 65,
      "hit": false,
      "t": 479040.77016668394,
      "d": 463.4147500001127,
      "v": 74
    },
    {
      "midi": 67,
      "hit": false,
      "t": 479483.8597083507,
      "d": 65.04066666669678,
      "v": 69
    },
    {
      "midi": 81,
      "hit": false,
      "t": 479496.0548333507,
      "d": 207.3171250000014,
      "v": 78
    },
    {
      "midi": 77,
      "hit": false,
      "t": 479500.1198750174,
      "d": 203.25208333332557,
      "v": 79
    },
    {
      "midi": 72,
      "hit": false,
      "t": 479504.18491668405,
      "d": 191.0569583332981,
      "v": 80
    },
    {
      "midi": 84,
      "hit": false,
      "t": 479983.8598333507,
      "d": 650.4066666666768,
      "v": 83
    },
    {
      "midi": 57,
      "hit": false,
      "t": 479983.8598333507,
      "d": 756.0977499999572,
      "v": 54
    },
    {
      "midi": 77,
      "hit": false,
      "t": 479991.98991668405,
      "d": 764.2278333332506,
      "v": 72
    },
    {
      "midi": 72,
      "hit": false,
      "t": 479996.0549583507,
      "d": 678.8619583332911,
      "v": 66
    },
    {
      "midi": 81,
      "hit": false,
      "t": 480000.1200000174,
      "d": 650.4066666666185,
      "v": 66
    },
    {
      "midi": 62,
      "hit": false,
      "t": 480000.1200000174,
      "d": 666.6668333332636,
      "v": 59
    },
    {
      "midi": 58,
      "hit": false,
      "t": 480000.1200000174,
      "d": 764.2278333332506,
      "v": 62
    },
    {
      "midi": 82,
      "hit": false,
      "t": 480979.795041684,
      "d": 556.9107083333656,
      "v": 56
    },
    {
      "midi": 70,
      "hit": false,
      "t": 480996.05520835065,
      "d": 520.3253333333996,
      "v": 50
    },
    {
      "midi": 62,
      "hit": false,
      "t": 481000.1202500173,
      "d": 495.9350833334029,
      "v": 40
    },
    {
      "midi": 57,
      "hit": false,
      "t": 481008.2503333507,
      "d": 451.219625000027,
      "v": 32
    },
    {
      "midi": 77,
      "hit": false,
      "t": 481020.4454583507,
      "d": 475.60987500002375,
      "v": 49
    },
    {
      "midi": 58,
      "hit": false,
      "t": 481020.4454583507,
      "d": 520.3253333333414,
      "v": 35
    },
    {
      "midi": 55,
      "hit": false,
      "t": 481024.5105000174,
      "d": 459.34970833332045,
      "v": 48
    },
    {
      "midi": 58,
      "hit": false,
      "t": 481922.8847083507,
      "d": 589.4310416666558,
      "v": 50
    },
    {
      "midi": 69,
      "hit": false,
      "t": 481979.79529168404,
      "d": 585.3660000000382,
      "v": 68
    },
    {
      "midi": 73,
      "hit": false,
      "t": 481996.0554583507,
      "d": 621.9513750000624,
      "v": 73
    },
    {
      "midi": 61,
      "hit": false,
      "t": 482000.12050001736,
      "d": 556.9107083333656,
      "v": 51
    },
    {
      "midi": 76,
      "hit": false,
      "t": 482020.4457083507,
      "d": 642.2765833333833,
      "v": 66
    },
    {
      "midi": 64,
      "hit": false,
      "t": 482032.6408333507,
      "d": 487.804999999993,
      "v": 60
    },
    {
      "midi": 81,
      "hit": false,
      "t": 482048.90100001736,
      "d": 471.5448333333479,
      "v": 74
    },
    {
      "midi": 58,
      "hit": false,
      "t": 482833.45404168405,
      "d": 808.9432916666265,
      "v": 50
    },
    {
      "midi": 67,
      "hit": false,
      "t": 482898.4947083507,
      "d": 654.4717083333526,
      "v": 66
    },
    {
      "midi": 73,
      "hit": false,
      "t": 482922.8849583507,
      "d": 735.7725416666945,
      "v": 74
    },
    {
      "midi": 61,
      "hit": false,
      "t": 482931.01504168403,
      "d": 666.6668333333218,
      "v": 44
    },
    {
      "midi": 76,
      "hit": false,
      "t": 482951.34025001735,
      "d": 703.2522083333461,
      "v": 62
    },
    {
      "midi": 64,
      "hit": false,
      "t": 482963.5353750174,
      "d": 556.9107083333074,
      "v": 66
    },
    {
      "midi": 79,
      "hit": false,
      "t": 483012.3158750174,
      "d": 589.4310416666558,
      "v": 65
    },
    {
      "midi": 53,
      "hit": false,
      "t": 483809.06404168403,
      "d": 528.4554166666348,
      "v": 36
    },
    {
      "midi": 57,
      "hit": false,
      "t": 483857.844541684,
      "d": 491.87004166666884,
      "v": 36
    },
    {
      "midi": 69,
      "hit": false,
      "t": 483874.1047083507,
      "d": 483.7399583333754,
      "v": 45
    },
    {
      "midi": 72,
      "hit": false,
      "t": 483914.7551250173,
      "d": 500.0001250000787,
      "v": 62
    },
    {
      "midi": 60,
      "hit": false,
      "t": 483922.88520835066,
      "d": 398.3740833333577,
      "v": 35
    },
    {
      "midi": 76,
      "hit": false,
      "t": 483931.015291684,
      "d": 447.1545833333512,
      "v": 48
    },
    {
      "midi": 64,
      "hit": false,
      "t": 483951.34050001734,
      "d": 430.8944166667061,
      "v": 50
    },
    {
      "midi": 81,
      "hit": false,
      "t": 483991.990916684,
      "d": 317.07325000001583,
      "v": 66
    },
    {
      "midi": 76,
      "hit": false,
      "t": 484861.90983335074,
      "d": 682.9270000000834,
      "v": 74
    },
    {
      "midi": 72,
      "hit": false,
      "t": 484874.10495835077,
      "d": 662.6017916667042,
      "v": 75
    },
    {
      "midi": 67,
      "hit": false,
      "t": 484882.2350416841,
      "d": 556.9107083333656,
      "v": 62
    },
    {
      "midi": 62,
      "hit": false,
      "t": 484890.3651250175,
      "d": 544.7155833333381,
      "v": 56
    },
    {
      "midi": 57,
      "hit": false,
      "t": 484890.3651250175,
      "d": 597.5611250000075,
      "v": 53
    },
    {
      "midi": 74,
      "hit": false,
      "t": 486183.0483750175,
      "d": 304.87812499998836,
      "v": 82
    },
    {
      "midi": 69,
      "hit": false,
      "t": 486516.38179168414,
      "d": 121.9512499999837,
      "v": 60
    },
    {
      "midi": 62,
      "hit": false,
      "t": 486841.58512501745,
      "d": 308.9431666666642,
      "v": 40
    },
    {
      "midi": 57,
      "hit": false,
      "t": 486841.58512501745,
      "d": 337.39845833333675,
      "v": 29
    },
    {
      "midi": 70,
      "hit": false,
      "t": 486841.58512501745,
      "d": 337.39845833333675,
      "v": 71
    },
    {
      "midi": 58,
      "hit": false,
      "t": 486845.6501666841,
      "d": 349.593583333306,
      "v": 33
    },
    {
      "midi": 52,
      "hit": false,
      "t": 486853.7802500175,
      "d": 373.98383333330275,
      "v": 46
    },
    {
      "midi": 67,
      "hit": false,
      "t": 487223.6990416841,
      "d": 89.43091666669352,
      "v": 42
    },
    {
      "midi": 66,
      "hit": false,
      "t": 487540.7722916841,
      "d": 235.77241666673217,
      "v": 40
    },
    {
      "midi": 61,
      "hit": false,
      "t": 487548.90237501747,
      "d": 243.9025000000256,
      "v": 46
    },
    {
      "midi": 55,
      "hit": false,
      "t": 487552.96741668414,
      "d": 117.88620833336608,
      "v": 36
    },
    {
      "midi": 45,
      "hit": false,
      "t": 487565.16254168417,
      "d": 239.8374583333498,
      "v": 31
    },
    {
      "midi": 60,
      "hit": false,
      "t": 487865.9756250175,
      "d": 292.6830000000191,
      "v": 47
    },
    {
      "midi": 50,
      "hit": false,
      "t": 487870.04066668416,
      "d": 398.3740833333577,
      "v": 41
    },
    {
      "midi": 65,
      "hit": false,
      "t": 487874.10570835083,
      "d": 341.4635000000126,
      "v": 41
    },
    {
      "midi": 76,
      "hit": false,
      "t": 488597.6831250175,
      "d": 223.5772916667047,
      "v": 81
    },
    {
      "midi": 64,
      "hit": false,
      "t": 488605.81320835085,
      "d": 231.70737499999814,
      "v": 60
    },
    {
      "midi": 69,
      "hit": false,
      "t": 488609.87825001753,
      "d": 247.96754166670144,
      "v": 77
    },
    {
      "midi": 65,
      "hit": false,
      "t": 488613.9432916842,
      "d": 235.77241666667396,
      "v": 70
    },
    {
      "midi": 74,
      "hit": false,
      "t": 488935.0815833509,
      "d": 252.03258333337726,
      "v": 64
    },
    {
      "midi": 69,
      "hit": false,
      "t": 488943.21166668425,
      "d": 109.75612500001444,
      "v": 48
    },
    {
      "midi": 65,
      "hit": false,
      "t": 488943.21166668425,
      "d": 170.7317500000354,
      "v": 44
    },
    {
      "midi": 62,
      "hit": false,
      "t": 488947.2767083509,
      "d": 247.96754166670144,
      "v": 44
    },
    {
      "midi": 60,
      "hit": false,
      "t": 489288.74020835094,
      "d": 28.455291666672565,
      "v": 26
    },
    {
      "midi": 65,
      "hit": false,
      "t": 489288.74020835094,
      "d": 56.91058333334513,
      "v": 44
    },
    {
      "midi": 69,
      "hit": false,
      "t": 489292.8052500176,
      "d": 44.715458333317656,
      "v": 40
    },
    {
      "midi": 72,
      "hit": false,
      "t": 489630.20370835095,
      "d": 215.44720833335305,
      "v": 63
    },
    {
      "midi": 65,
      "hit": false,
      "t": 489642.398833351,
      "d": 199.18704166664975,
      "v": 53
    },
    {
      "midi": 60,
      "hit": false,
      "t": 489650.5289166843,
      "d": 211.382166666619,
      "v": 55
    },
    {
      "midi": 50,
      "hit": false,
      "t": 489666.789083351,
      "d": 630.0814583332976,
      "v": 40
    },
    {
      "midi": 43,
      "hit": false,
      "t": 489683.0492500176,
      "d": 158.53662500000792,
      "v": 40
    },
    {
      "midi": 62,
      "hit": false,
      "t": 490126.1387916843,
      "d": 292.6830000000191,
      "v": 56
    },
    {
      "midi": 58,
      "hit": false,
      "t": 490130.20383335097,
      "d": 280.4878749999916,
      "v": 47
    },
    {
      "midi": 57,
      "hit": false,
      "t": 490150.5290416843,
      "d": 264.2277083333465,
      "v": 38
    },
    {
      "midi": 70,
      "hit": false,
      "t": 490605.813708351,
      "d": 138.211416666687,
      "v": 68
    },
    {
      "midi": 58,
      "hit": false,
      "t": 490613.94379168435,
      "d": 138.211416666687,
      "v": 56
    },
    {
      "midi": 62,
      "hit": false,
      "t": 490618.008833351,
      "d": 130.08133333333535,
      "v": 50
    },
    {
      "midi": 57,
      "hit": false,
      "t": 490626.1389166844,
      "d": 85.36587499995949,
      "v": 54
    },
    {
      "midi": 65,
      "hit": false,
      "t": 490646.4641250177,
      "d": 113.82116666669026,
      "v": 36
    },
    {
      "midi": 58,
      "hit": false,
      "t": 490829.3910000177,
      "d": 288.61795833334327,
      "v": 35
    },
    {
      "midi": 69,
      "hit": false,
      "t": 490833.4560416844,
      "d": 292.6830000000191,
      "v": 49
    },
    {
      "midi": 55,
      "hit": false,
      "t": 490833.4560416844,
      "d": 378.0488750000368,
      "v": 41
    },
    {
      "midi": 62,
      "hit": false,
      "t": 490845.6511666844,
      "d": 256.0976249999949,
      "v": 40
    },
    {
      "midi": 65,
      "hit": false,
      "t": 490874.1064583511,
      "d": 325.2033333333093,
      "v": 24
    },
    {
      "midi": 50,
      "hit": false,
      "t": 491248.09029168444,
      "d": 77.23579166666605,
      "v": 43
    },
    {
      "midi": 62,
      "hit": false,
      "t": 491252.1553333511,
      "d": 166.66670833330136,
      "v": 43
    },
    {
      "midi": 58,
      "hit": false,
      "t": 491256.2203750178,
      "d": 121.9512499999837,
      "v": 34
    },
    {
      "midi": 53,
      "hit": false,
      "t": 491626.1391666844,
      "d": 52.845541666669305,
      "v": 26
    },
    {
      "midi": 67,
      "hit": false,
      "t": 491731.83025001775,
      "d": 308.9431666667224,
      "v": 44
    },
    {
      "midi": 64,
      "hit": false,
      "t": 491739.9603333511,
      "d": 235.77241666673217,
      "v": 50
    },
    {
      "midi": 46,
      "hit": false,
      "t": 491739.9603333511,
      "d": 1113.8214166669059,
      "v": 31
    },
    {
      "midi": 60,
      "hit": false,
      "t": 491744.0253750178,
      "d": 256.0976250000531,
      "v": 39
    },
    {
      "midi": 56,
      "hit": false,
      "t": 491756.2205000178,
      "d": 288.61795833334327,
      "v": 23
    },
    {
      "midi": 53,
      "hit": false,
      "t": 492093.61895835114,
      "d": 109.75612500001444,
      "v": 37
    },
    {
      "midi": 56,
      "hit": false,
      "t": 492227.76533335116,
      "d": 308.9431666667806,
      "v": 38
    },
    {
      "midi": 60,
      "hit": false,
      "t": 492239.9604583512,
      "d": 272.3577916666982,
      "v": 37
    },
    {
      "midi": 67,
      "hit": false,
      "t": 492239.9604583512,
      "d": 284.55291666672565,
      "v": 37
    },
    {
      "midi": 64,
      "hit": false,
      "t": 492244.02550001786,
      "d": 288.6179583334015,
      "v": 47
    },
    {
      "midi": 56,
      "hit": false,
      "t": 492695.24512501794,
      "d": 166.66670833341777,
      "v": 34
    },
    {
      "midi": 67,
      "hit": false,
      "t": 492699.3101666846,
      "d": 93.49595833336934,
      "v": 41
    },
    {
      "midi": 64,
      "hit": false,
      "t": 492723.7004166846,
      "d": 121.95125000004191,
      "v": 36
    },
    {
      "midi": 60,
      "hit": false,
      "t": 492731.83050001797,
      "d": 89.43091666669352,
      "v": 31
    },
    {
      "midi": 68,
      "hit": false,
      "t": 493024.51350001805,
      "d": 134.14637500001118,
      "v": 60
    },
    {
      "midi": 61,
      "hit": false,
      "t": 493032.6435833514,
      "d": 138.211416666687,
      "v": 49
    },
    {
      "midi": 46,
      "hit": false,
      "t": 493052.9687916847,
      "d": 479.6749166666996,
      "v": 43
    },
    {
      "midi": 56,
      "hit": false,
      "t": 493235.8956666847,
      "d": 223.5772916667047,
      "v": 28
    },
    {
      "midi": 67,
      "hit": false,
      "t": 493244.0257500181,
      "d": 142.27645833336283,
      "v": 33
    },
    {
      "midi": 60,
      "hit": false,
      "t": 493280.6111250181,
      "d": 48.78049999999348,
      "v": 27
    },
    {
      "midi": 58,
      "hit": false,
      "t": 493552.96891668474,
      "d": 471.54483333340613,
      "v": 33
    },
    {
      "midi": 61,
      "hit": false,
      "t": 493552.96891668474,
      "d": 512.195250000048,
      "v": 49
    },
    {
      "midi": 64,
      "hit": false,
      "t": 493552.96891668474,
      "d": 520.3253333333996,
      "v": 47
    },
    {
      "midi": 55,
      "hit": false,
      "t": 493573.29412501806,
      "d": 841.4636250000913,
      "v": 32
    },
    {
      "midi": 45,
      "hit": false,
      "t": 493581.4242083514,
      "d": 894.3091666667606,
      "v": 40
    },
    {
      "midi": 76,
      "hit": false,
      "t": 494491.9935416848,
      "d": 60.975625000020955,
      "v": 55
    },
    {
      "midi": 64,
      "hit": false,
      "t": 494496.0585833515,
      "d": 32.52033333334839,
      "v": 62
    },
    {
      "midi": 65,
      "hit": false,
      "t": 494658.6602500182,
      "d": 32.52033333334839,
      "v": 57
    },
    {
      "midi": 77,
      "hit": false,
      "t": 494662.72529168485,
      "d": 44.715458333317656,
      "v": 51
    },
    {
      "midi": 65,
      "hit": false,
      "t": 494991.99366668484,
      "d": 32.52033333334839,
      "v": 55
    },
    {
      "midi": 77,
      "hit": false,
      "t": 494991.99366668484,
      "d": 40.65041666670004,
      "v": 58
    },
    {
      "midi": 67,
      "hit": false,
      "t": 495142.40020835155,
      "d": 81.30083333334187,
      "v": 51
    },
    {
      "midi": 79,
      "hit": false,
      "t": 495146.4652500182,
      "d": 117.88620833330788,
      "v": 58
    },
    {
      "midi": 60,
      "hit": false,
      "t": 495642.4003333515,
      "d": 369.91879166668514,
      "v": 38
    },
    {
      "midi": 81,
      "hit": false,
      "t": 495646.4653750182,
      "d": 621.9513750000042,
      "v": 59
    },
    {
      "midi": 50,
      "hit": false,
      "t": 495654.59545835154,
      "d": 308.9431666666642,
      "v": 29
    },
    {
      "midi": 57,
      "hit": false,
      "t": 495654.59545835154,
      "d": 313.00820833334,
      "v": 31
    },
    {
      "midi": 69,
      "hit": false,
      "t": 495658.6605000182,
      "d": 609.7562499999767,
      "v": 40
    },
    {
      "midi": 67,
      "hit": false,
      "t": 496589.5550416849,
      "d": 560.9757499999832,
      "v": 37
    },
    {
      "midi": 62,
      "hit": false,
      "t": 496597.68512501824,
      "d": 577.2359166666283,
      "v": 35
    },
    {
      "midi": 56,
      "hit": false,
      "t": 496605.8152083516,
      "d": 719.5123749999912,
      "v": 34
    },
    {
      "midi": 73,
      "hit": false,
      "t": 496918.8234166849,
      "d": 89.43091666663531,
      "v": 53
    },
    {
      "midi": 74,
      "hit": false,
      "t": 497081.42508335155,
      "d": 130.08133333333535,
      "v": 64
    },
    {
      "midi": 77,
      "hit": false,
      "t": 497410.6934583516,
      "d": 1097.5612500000861,
      "v": 108
    },
    {
      "midi": 66,
      "hit": false,
      "t": 497418.82354168495,
      "d": 813.0083333333605,
      "v": 76
    },
    {
      "midi": 55,
      "hit": false,
      "t": 497422.8885833516,
      "d": 735.7725416666945,
      "v": 74
    },
    {
      "midi": 61,
      "hit": false,
      "t": 497422.8885833516,
      "d": 894.3091666667024,
      "v": 62
    },
    {
      "midi": 61,
      "hit": false,
      "t": 498540.77504168503,
      "d": 483.7399583333754,
      "v": 38
    },
    {
      "midi": 65,
      "hit": false,
      "t": 498548.9051250184,
      "d": 398.3740833333577,
      "v": 40
    },
    {
      "midi": 55,
      "hit": false,
      "t": 498548.9051250184,
      "d": 491.87004166666884,
      "v": 48
    },
    {
      "midi": 76,
      "hit": false,
      "t": 498561.1002500184,
      "d": 430.8944166666479,
      "v": 50
    },
    {
      "midi": 74,
      "hit": false,
      "t": 499382.23866668507,
      "d": 101.626041666721,
      "v": 81
    },
    {
      "midi": 50,
      "hit": false,
      "t": 499471.66958335176,
      "d": 52.845541666669305,
      "v": 32
    },
    {
      "midi": 68,
      "hit": false,
      "t": 499532.6452083518,
      "d": 130.08133333333535,
      "v": 50
    },
    {
      "midi": 67,
      "hit": false,
      "t": 499715.5720833518,
      "d": 117.88620833330788,
      "v": 24
    },
    {
      "midi": 65,
      "hit": false,
      "t": 499874.10870835173,
      "d": 73.17074999999022,
      "v": 49
    },
    {
      "midi": 62,
      "hit": false,
      "t": 500012.32012501836,
      "d": 178.86183333332883,
      "v": 41
    },
    {
      "midi": 60,
      "hit": false,
      "t": 500496.0600833517,
      "d": 113.82116666669026,
      "v": 48
    },
    {
      "midi": 62,
      "hit": false,
      "t": 501004.19029168505,
      "d": 215.44720833335305,
      "v": 61
    },
    {
      "midi": 56,
      "hit": false,
      "t": 501016.3854166851,
      "d": 105.69108333333861,
      "v": 62
    },
    {
      "midi": 55,
      "hit": false,
      "t": 501170.8570000184,
      "d": 134.14637500001118,
      "v": 43
    },
    {
      "midi": 53,
      "hit": false,
      "t": 501357.8489166851,
      "d": 81.30083333334187,
      "v": 27
    },
    {
      "midi": 50,
      "hit": false,
      "t": 501500.12537501846,
      "d": 308.9431666666642,
      "v": 45
    },
    {
      "midi": 53,
      "hit": false,
      "t": 501996.0604583518,
      "d": 195.12199999997392,
      "v": 45
    },
    {
      "midi": 43,
      "hit": false,
      "t": 502455.4101666851,
      "d": 203.25208333332557,
      "v": 40
    },
    {
      "midi": 55,
      "hit": false,
      "t": 502471.67033335177,
      "d": 264.2277083333465,
      "v": 68
    },
    {
      "midi": 38,
      "hit": false,
      "t": 502837.5240833518,
      "d": 56.91058333334513,
      "v": 50
    },
    {
      "midi": 53,
      "hit": false,
      "t": 502951.34525001846,
      "d": 138.2114166666288,
      "v": 57
    },
    {
      "midi": 41,
      "hit": false,
      "t": 502967.6054166851,
      "d": 195.12199999997392,
      "v": 36
    },
    {
      "midi": 37,
      "hit": false,
      "t": 503276.5485833518,
      "d": 81.30083333334187,
      "v": 32
    },
    {
      "midi": 49,
      "hit": false,
      "t": 503284.6786666851,
      "d": 65.04066666663857,
      "v": 39
    },
    {
      "midi": 40,
      "hit": false,
      "t": 503418.82504168514,
      "d": 284.55291666666744,
      "v": 30
    },
    {
      "midi": 52,
      "hit": false,
      "t": 503439.15025001846,
      "d": 235.77241666667396,
      "v": 53
    },
    {
      "midi": 49,
      "hit": false,
      "t": 503739.9633333518,
      "d": 77.23579166666605,
      "v": 29
    },
    {
      "midi": 37,
      "hit": false,
      "t": 503739.9633333518,
      "d": 97.56099999998696,
      "v": 35
    },
    {
      "midi": 38,
      "hit": false,
      "t": 503894.43491668516,
      "d": 300.81308333337074,
      "v": 26
    },
    {
      "midi": 50,
      "hit": false,
      "t": 503898.49995835184,
      "d": 260.1626666666707,
      "v": 40
    },
    {
      "midi": 33,
      "hit": false,
      "t": 504239.96345835185,
      "d": 1577.2361666666693,
      "v": 36
    },
    {
      "midi": 45,
      "hit": false,
      "t": 504248.0935416852,
      "d": 1138.2116666666698,
      "v": 24
    },
    {
      "midi": 62,
      "hit": false,
      "t": 505723.7036666852,
      "d": 89.43091666663531,
      "v": 62
    },
    {
      "midi": 56,
      "hit": false,
      "t": 505882.24029168516,
      "d": 81.30083333334187,
      "v": 51
    },
    {
      "midi": 55,
      "hit": false,
      "t": 506020.45170835184,
      "d": 138.211416666687,
      "v": 36
    },
    {
      "midi": 53,
      "hit": false,
      "t": 506223.70379168517,
      "d": 77.23579166666605,
      "v": 46
    },
    {
      "midi": 55,
      "hit": false,
      "t": 506402.5656250185,
      "d": 186.99191666668048,
      "v": 62
    },
    {
      "midi": 53,
      "hit": false,
      "t": 506674.9234166852,
      "d": 113.82116666669026,
      "v": 55
    },
    {
      "midi": 50,
      "hit": false,
      "t": 506853.7852500185,
      "d": 247.96754166664323,
      "v": 32
    },
    {
      "midi": 49,
      "hit": false,
      "t": 507154.59833335184,
      "d": 85.3658750000177,
      "v": 28
    },
    {
      "midi": 52,
      "hit": false,
      "t": 507305.0048750185,
      "d": 325.2033333333093,
      "v": 53
    },
    {
      "midi": 50,
      "hit": false,
      "t": 507813.1350833518,
      "d": 995.935208333307,
      "v": 39
    },
    {
      "midi": 26,
      "hit": false,
      "t": 508187.1189166851,
      "d": 617.8863333333284,
      "v": 41
    },
    {
      "midi": 57,
      "hit": false,
      "t": 509622.0786250185,
      "d": 2617.8868333334685,
      "v": 35
    },
    {
      "midi": 61,
      "hit": false,
      "t": 509768.42012501846,
      "d": 861.7888333334704,
      "v": 46
    },
    {
      "midi": 64,
      "hit": false,
      "t": 509829.3957500185,
      "d": 93.49595833331114,
      "v": 36
    },
    {
      "midi": 69,
      "hit": false,
      "t": 509935.0868333518,
      "d": 85.3658750000177,
      "v": 49
    },
    {
      "midi": 73,
      "hit": false,
      "t": 510032.64783335186,
      "d": 28.455291666672565,
      "v": 52
    },
    {
      "midi": 74,
      "hit": false,
      "t": 510146.46900001855,
      "d": 40.65041666670004,
      "v": 34
    },
    {
      "midi": 76,
      "hit": false,
      "t": 510154.5990833519,
      "d": 48.78049999999348,
      "v": 38
    },
    {
      "midi": 81,
      "hit": false,
      "t": 510264.3552083519,
      "d": 77.23579166666605,
      "v": 44
    },
    {
      "midi": 88,
      "hit": false,
      "t": 510398.5015833519,
      "d": 28.455291666672565,
      "v": 28
    },
    {
      "midi": 88,
      "hit": false,
      "t": 510483.86745835195,
      "d": 191.0569583332981,
      "v": 46
    },
    {
      "midi": 93,
      "hit": false,
      "t": 510581.42845835193,
      "d": 215.44720833329484,
      "v": 49
    },
    {
      "midi": 100,
      "hit": false,
      "t": 510715.5748333519,
      "d": 182.92687500000466,
      "v": 62
    },
    {
      "midi": 97,
      "hit": false,
      "t": 510898.5017083519,
      "d": 97.56099999998696,
      "v": 50
    },
    {
      "midi": 105,
      "hit": false,
      "t": 511089.5586666852,
      "d": 199.18704166670796,
      "v": 57
    },
    {
      "midi": 103,
      "hit": false,
      "t": 511097.68875001854,
      "d": 199.18704166670796,
      "v": 50
    },
    {
      "midi": 100,
      "hit": false,
      "t": 511333.4611666853,
      "d": 146.34149999998044,
      "v": 51
    },
    {
      "midi": 107,
      "hit": false,
      "t": 511569.23358335195,
      "d": 138.211416666687,
      "v": 67
    },
    {
      "midi": 108,
      "hit": false,
      "t": 511829.3962500186,
      "d": 40.65041666664183,
      "v": 46
    }
  ]
}