{
  "jsonPath": "Jazz/Smooth Jazz/Kenny G/in-the-rain.json",
  "path": "Jazz\\Smooth Jazz\\Kenny G\\In The Rain.mid",
  "name": "In The Rain",
  "difficulty": "Advanced",
  "bpm": 126.00039060121087,
  "notes": [
    {
      "midi": 62,
      "hit": false,
      "t": 0,
      "d": 476.189,
      "v": 73
    },
    {
      "midi": 58,
      "hit": false,
      "t": 0,
      "d": 488.5897552083334,
      "v": 64
    },
    {
      "midi": 46,
      "hit": false,
      "t": 0,
      "d": 510.91111458333336,
      "v": 73
    },
    {
      "midi": 53,
      "hit": false,
      "t": 476.189,
      "d": 146.32891145833338,
      "v": 52
    },
    {
      "midi": 65,
      "hit": false,
      "t": 952.3780000000002,
      "d": 186.0113281250001,
      "v": 69
    },
    {
      "midi": 53,
      "hit": false,
      "t": 1428.5670000000002,
      "d": 151.28921354166664,
      "v": 56
    },
    {
      "midi": 50,
      "hit": false,
      "t": 1904.7560000000003,
      "d": 503.4706614583333,
      "v": 73
    },
    {
      "midi": 57,
      "hit": false,
      "t": 1904.7560000000003,
      "d": 510.91111458333353,
      "v": 73
    },
    {
      "midi": 53,
      "hit": false,
      "t": 2380.945,
      "d": 233.13419791666684,
      "v": 52
    },
    {
      "midi": 65,
      "hit": false,
      "t": 2857.1340000000005,
      "d": 255.45555729166654,
      "v": 64
    },
    {
      "midi": 53,
      "hit": false,
      "t": 3333.3230000000003,
      "d": 151.28921354166687,
      "v": 48
    },
    {
      "midi": 48,
      "hit": false,
      "t": 3809.5120000000006,
      "d": 391.86386458333345,
      "v": 73
    },
    {
      "midi": 58,
      "hit": false,
      "t": 3809.5120000000006,
      "d": 411.7050729166667,
      "v": 60
    },
    {
      "midi": 55,
      "hit": false,
      "t": 4285.701000000001,
      "d": 233.13419791666638,
      "v": 40
    },
    {
      "midi": 65,
      "hit": false,
      "t": 4761.89,
      "d": 151.28921354166687,
      "v": 69
    },
    {
      "midi": 55,
      "hit": false,
      "t": 5238.079000000001,
      "d": 106.64649479166656,
      "v": 56
    },
    {
      "midi": 41,
      "hit": false,
      "t": 5714.268000000001,
      "d": 486.10960416666694,
      "v": 73
    },
    {
      "midi": 62,
      "hit": false,
      "t": 5714.268000000001,
      "d": 498.510359375,
      "v": 73
    },
    {
      "midi": 53,
      "hit": false,
      "t": 6190.457000000001,
      "d": 195.93193229166627,
      "v": 48
    },
    {
      "midi": 60,
      "hit": false,
      "t": 6666.646000000001,
      "d": 431.54628125,
      "v": 60
    },
    {
      "midi": 53,
      "hit": false,
      "t": 7142.835000000001,
      "d": 476.1890000000003,
      "v": 56
    },
    {
      "midi": 62,
      "hit": false,
      "t": 7619.024000000001,
      "d": 476.1890000000003,
      "v": 73
    },
    {
      "midi": 58,
      "hit": false,
      "t": 7619.024000000001,
      "d": 488.5897552083334,
      "v": 64
    },
    {
      "midi": 46,
      "hit": false,
      "t": 7619.024000000001,
      "d": 510.9111145833331,
      "v": 73
    },
    {
      "midi": 53,
      "hit": false,
      "t": 8095.213000000002,
      "d": 146.3289114583331,
      "v": 52
    },
    {
      "midi": 65,
      "hit": false,
      "t": 8571.402000000002,
      "d": 186.01132812499964,
      "v": 72
    },
    {
      "midi": 53,
      "hit": false,
      "t": 9047.591000000002,
      "d": 151.28921354166596,
      "v": 56
    },
    {
      "midi": 50,
      "hit": false,
      "t": 9523.78,
      "d": 503.4706614583338,
      "v": 73
    },
    {
      "midi": 57,
      "hit": false,
      "t": 9523.78,
      "d": 510.911114583334,
      "v": 73
    },
    {
      "midi": 53,
      "hit": false,
      "t": 9999.969000000001,
      "d": 233.13419791666638,
      "v": 52
    },
    {
      "midi": 65,
      "hit": false,
      "t": 10476.158000000001,
      "d": 255.455557291667,
      "v": 78
    },
    {
      "midi": 53,
      "hit": false,
      "t": 10952.347000000002,
      "d": 151.28921354166596,
      "v": 48
    },
    {
      "midi": 48,
      "hit": false,
      "t": 11428.536,
      "d": 391.86386458333254,
      "v": 73
    },
    {
      "midi": 58,
      "hit": false,
      "t": 11428.536,
      "d": 411.7050729166658,
      "v": 60
    },
    {
      "midi": 55,
      "hit": false,
      "t": 11904.724999999999,
      "d": 233.13419791666638,
      "v": 40
    },
    {
      "midi": 65,
      "hit": false,
      "t": 12380.913999999999,
      "d": 151.28921354166596,
      "v": 72
    },
    {
      "midi": 55,
      "hit": false,
      "t": 12857.102999999997,
      "d": 106.64649479166656,
      "v": 56
    },
    {
      "midi": 63,
      "hit": false,
      "t": 13333.291999999998,
      "d": 448.90733854166683,
      "v": 64
    },
    {
      "midi": 41,
      "hit": false,
      "t": 13333.291999999998,
      "d": 463.78824479166724,
      "v": 82
    },
    {
      "midi": 58,
      "hit": false,
      "t": 13333.291999999998,
      "d": 473.7088489583348,
      "v": 64
    },
    {
      "midi": 55,
      "hit": false,
      "t": 13809.481,
      "d": 173.61057291666657,
      "v": 52
    },
    {
      "midi": 65,
      "hit": false,
      "t": 14285.67,
      "d": 190.9716302083325,
      "v": 75
    },
    {
      "midi": 55,
      "hit": false,
      "t": 14761.858999999999,
      "d": 91.76558854166615,
      "v": 72
    },
    {
      "midi": 62,
      "hit": false,
      "t": 15238.047999999997,
      "d": 476.1890000000003,
      "v": 73
    },
    {
      "midi": 58,
      "hit": false,
      "t": 15238.047999999997,
      "d": 488.5897552083334,
      "v": 64
    },
    {
      "midi": 46,
      "hit": false,
      "t": 15238.047999999997,
      "d": 510.911114583334,
      "v": 73
    },
    {
      "midi": 70,
      "hit": false,
      "t": 15240.528151041666,
      "d": 1165.670989583332,
      "v": 82
    },
    {
      "midi": 53,
      "hit": false,
      "t": 15714.236999999997,
      "d": 146.3289114583331,
      "v": 52
    },
    {
      "midi": 65,
      "hit": false,
      "t": 16190.425999999998,
      "d": 186.01132812499964,
      "v": 82
    },
    {
      "midi": 70,
      "hit": false,
      "t": 16654.214244791663,
      "d": 99.20604166666817,
      "v": 91
    },
    {
      "midi": 53,
      "hit": false,
      "t": 16666.614999999998,
      "d": 151.28921354166596,
      "v": 56
    },
    {
      "midi": 70,
      "hit": false,
      "t": 16887.34844270833,
      "d": 220.7334427083333,
      "v": 82
    },
    {
      "midi": 60,
      "hit": false,
      "t": 17142.803999999996,
      "d": 468.7485468749983,
      "v": 64
    },
    {
      "midi": 50,
      "hit": false,
      "t": 17142.803999999996,
      "d": 503.47066145833014,
      "v": 73
    },
    {
      "midi": 57,
      "hit": false,
      "t": 17142.803999999996,
      "d": 510.91111458333035,
      "v": 73
    },
    {
      "midi": 69,
      "hit": false,
      "t": 17147.76430208333,
      "d": 448.90733854166683,
      "v": 73
    },
    {
      "midi": 70,
      "hit": false,
      "t": 17589.231187499998,
      "d": 265.37616145833454,
      "v": 60
    },
    {
      "midi": 53,
      "hit": false,
      "t": 17618.992999999995,
      "d": 233.13419791666456,
      "v": 52
    },
    {
      "midi": 69,
      "hit": false,
      "t": 17867.008104166667,
      "d": 468.7485468749983,
      "v": 73
    },
    {
      "midi": 65,
      "hit": false,
      "t": 18095.181999999993,
      "d": 255.45555729166517,
      "v": 82
    },
    {
      "midi": 65,
      "hit": false,
      "t": 18345.67725520833,
      "d": 456.34779166666704,
      "v": 73
    },
    {
      "midi": 53,
      "hit": false,
      "t": 18571.370999999992,
      "d": 151.28921354166596,
      "v": 48
    },
    {
      "midi": 67,
      "hit": false,
      "t": 18836.74716145833,
      "d": 310.0188802083321,
      "v": 73
    },
    {
      "midi": 48,
      "hit": false,
      "t": 19047.55999999999,
      "d": 391.86386458333436,
      "v": 73
    },
    {
      "midi": 63,
      "hit": false,
      "t": 19047.55999999999,
      "d": 401.7844687500001,
      "v": 60
    },
    {
      "midi": 58,
      "hit": false,
      "t": 19047.55999999999,
      "d": 411.7050729166658,
      "v": 60
    },
    {
      "midi": 67,
      "hit": false,
      "t": 19298.055255208328,
      "d": 285.217369791666,
      "v": 64
    },
    {
      "midi": 55,
      "hit": false,
      "t": 19523.74899999999,
      "d": 233.1341979166682,
      "v": 40
    },
    {
      "midi": 65,
      "hit": false,
      "t": 19999.93799999999,
      "d": 151.28921354166596,
      "v": 82
    },
    {
      "midi": 70,
      "hit": false,
      "t": 20458.765942708327,
      "d": 106.64649479166837,
      "v": 100
    },
    {
      "midi": 55,
      "hit": false,
      "t": 20476.12699999999,
      "d": 106.64649479166837,
      "v": 56
    },
    {
      "midi": 70,
      "hit": false,
      "t": 20694.38029166666,
      "d": 146.32891145833491,
      "v": 73
    },
    {
      "midi": 69,
      "hit": false,
      "t": 20947.355697916664,
      "d": 438.9867343750011,
      "v": 73
    },
    {
      "midi": 41,
      "hit": false,
      "t": 20952.31599999999,
      "d": 486.1096041666642,
      "v": 73
    },
    {
      "midi": 62,
      "hit": false,
      "t": 20952.31599999999,
      "d": 498.5103593749991,
      "v": 73
    },
    {
      "midi": 57,
      "hit": false,
      "t": 20952.31599999999,
      "d": 503.4706614583338,
      "v": 73
    },
    {
      "midi": 67,
      "hit": false,
      "t": 21403.70348958333,
      "d": 116.5670989583341,
      "v": 73
    },
    {
      "midi": 53,
      "hit": false,
      "t": 21428.50499999999,
      "d": 195.93193229166718,
      "v": 48
    },
    {
      "midi": 67,
      "hit": false,
      "t": 21646.758291666665,
      "d": 434.0264322916664,
      "v": 82
    },
    {
      "midi": 60,
      "hit": false,
      "t": 21904.693999999992,
      "d": 431.5462812500009,
      "v": 60
    },
    {
      "midi": 65,
      "hit": false,
      "t": 22137.828197916664,
      "d": 324.8997864583325,
      "v": 64
    },
    {
      "midi": 53,
      "hit": false,
      "t": 22380.882999999994,
      "d": 148.80906250000044,
      "v": 56
    },
    {
      "midi": 65,
      "hit": false,
      "t": 22609.05689583333,
      "d": 295.1379739583317,
      "v": 52
    },
    {
      "midi": 62,
      "hit": false,
      "t": 22857.071999999996,
      "d": 476.1889999999985,
      "v": 73
    },
    {
      "midi": 58,
      "hit": false,
      "t": 22857.071999999996,
      "d": 488.5897552083334,
      "v": 64
    },
    {
      "midi": 46,
      "hit": false,
      "t": 22857.071999999996,
      "d": 510.911114583334,
      "v": 73
    },
    {
      "midi": 65,
      "hit": false,
      "t": 23082.765744791664,
      "d": 133.92815625000003,
      "v": 60
    },
    {
      "midi": 53,
      "hit": false,
      "t": 23333.260999999995,
      "d": 146.32891145833491,
      "v": 52
    },
    {
      "midi": 65,
      "hit": false,
      "t": 23809.449999999997,
      "d": 186.01132812500146,
      "v": 82
    },
    {
      "midi": 53,
      "hit": false,
      "t": 24285.639,
      "d": 151.28921354166596,
      "v": 56
    },
    {
      "midi": 70,
      "hit": false,
      "t": 24305.48020833333,
      "d": 106.64649479166837,
      "v": 82
    },
    {
      "midi": 70,
      "hit": false,
      "t": 24523.7335,
      "d": 133.92815625000003,
      "v": 60
    },
    {
      "midi": 60,
      "hit": false,
      "t": 24761.827999999998,
      "d": 468.7485468749983,
      "v": 64
    },
    {
      "midi": 50,
      "hit": false,
      "t": 24761.827999999998,
      "d": 503.47066145833014,
      "v": 73
    },
    {
      "midi": 57,
      "hit": false,
      "t": 24761.827999999998,
      "d": 510.91111458333035,
      "v": 73
    },
    {
      "midi": 69,
      "hit": false,
      "t": 24771.748604166663,
      "d": 374.50280729166843,
      "v": 73
    },
    {
      "midi": 70,
      "hit": false,
      "t": 25225.616244791665,
      "d": 158.72966666666616,
      "v": 64
    },
    {
      "midi": 53,
      "hit": false,
      "t": 25238.016999999996,
      "d": 233.13419791666456,
      "v": 52
    },
    {
      "midi": 69,
      "hit": false,
      "t": 25476.1115,
      "d": 342.26084374999846,
      "v": 73
    },
    {
      "midi": 65,
      "hit": false,
      "t": 25714.205999999995,
      "d": 255.45555729166517,
      "v": 82
    },
    {
      "midi": 65,
      "hit": false,
      "t": 25944.860046874997,
      "d": 213.2929895833331,
      "v": 73
    },
    {
      "midi": 53,
      "hit": false,
      "t": 26190.394999999993,
      "d": 151.28921354166596,
      "v": 48
    },
    {
      "midi": 67,
      "hit": false,
      "t": 26207.756057291663,
      "d": 595.2362500000017,
      "v": 82
    },
    {
      "midi": 48,
      "hit": false,
      "t": 26666.58399999999,
      "d": 391.86386458333436,
      "v": 73
    },
    {
      "midi": 63,
      "hit": false,
      "t": 26666.58399999999,
      "d": 401.7844687500001,
      "v": 60
    },
    {
      "midi": 58,
      "hit": false,
      "t": 26666.58399999999,
      "d": 411.7050729166658,
      "v": 60
    },
    {
      "midi": 55,
      "hit": false,
      "t": 27142.77299999999,
      "d": 233.1341979166682,
      "v": 40
    },
    {
      "midi": 65,
      "hit": false,
      "t": 27618.961999999992,
      "d": 151.28921354166596,
      "v": 82
    },
    {
      "midi": 55,
      "hit": false,
      "t": 28095.15099999999,
      "d": 106.64649479166837,
      "v": 56
    },
    {
      "midi": 63,
      "hit": false,
      "t": 28571.339999999993,
      "d": 448.90733854166683,
      "v": 64
    },
    {
      "midi": 41,
      "hit": false,
      "t": 28571.339999999993,
      "d": 463.78824479166724,
      "v": 82
    },
    {
      "midi": 58,
      "hit": false,
      "t": 28571.339999999993,
      "d": 473.70884895833296,
      "v": 64
    },
    {
      "midi": 55,
      "hit": false,
      "t": 29047.52899999999,
      "d": 173.61057291666657,
      "v": 52
    },
    {
      "midi": 65,
      "hit": false,
      "t": 29523.71799999999,
      "d": 190.9716302083325,
      "v": 82
    },
    {
      "midi": 55,
      "hit": false,
      "t": 29999.90699999999,
      "d": 91.76558854166797,
      "v": 60
    },
    {
      "midi": 62,
      "hit": false,
      "t": 30476.09599999999,
      "d": 476.1889999999985,
      "v": 73
    },
    {
      "midi": 58,
      "hit": false,
      "t": 30476.09599999999,
      "d": 488.5897552083334,
      "v": 64
    },
    {
      "midi": 46,
      "hit": false,
      "t": 30476.09599999999,
      "d": 510.911114583334,
      "v": 73
    },
    {
      "midi": 70,
      "hit": false,
      "t": 30478.576151041663,
      "d": 1165.6709895833337,
      "v": 82
    },
    {
      "midi": 53,
      "hit": false,
      "t": 30952.28499999999,
      "d": 146.32891145833491,
      "v": 52
    },
    {
      "midi": 65,
      "hit": false,
      "t": 31428.47399999999,
      "d": 186.01132812500146,
      "v": 82
    },
    {
      "midi": 70,
      "hit": false,
      "t": 31892.262244791662,
      "d": 99.20604166666817,
      "v": 91
    },
    {
      "midi": 53,
      "hit": false,
      "t": 31904.662999999993,
      "d": 151.28921354166596,
      "v": 56
    },
    {
      "midi": 70,
      "hit": false,
      "t": 32125.39644270833,
      "d": 220.7334427083333,
      "v": 82
    },
    {
      "midi": 60,
      "hit": false,
      "t": 32380.85199999999,
      "d": 468.7485468750019,
      "v": 64
    },
    {
      "midi": 50,
      "hit": false,
      "t": 32380.85199999999,
      "d": 503.4706614583338,
      "v": 73
    },
    {
      "midi": 57,
      "hit": false,
      "t": 32380.85199999999,
      "d": 510.91111458333035,
      "v": 73
    },
    {
      "midi": 69,
      "hit": false,
      "t": 32385.81230208333,
      "d": 448.9073385416632,
      "v": 73
    },
    {
      "midi": 70,
      "hit": false,
      "t": 32827.2791875,
      "d": 265.37616145832726,
      "v": 60
    },
    {
      "midi": 53,
      "hit": false,
      "t": 32857.04099999999,
      "d": 233.1341979166682,
      "v": 52
    },
    {
      "midi": 69,
      "hit": false,
      "t": 33105.05610416666,
      "d": 468.7485468750019,
      "v": 73
    },
    {
      "midi": 65,
      "hit": false,
      "t": 33333.22999999999,
      "d": 255.45555729166517,
      "v": 82
    },
    {
      "midi": 65,
      "hit": false,
      "t": 33583.72525520833,
      "d": 456.34779166666704,
      "v": 73
    },
    {
      "midi": 53,
      "hit": false,
      "t": 33809.41899999999,
      "d": 151.2892135416696,
      "v": 48
    },
    {
      "midi": 67,
      "hit": false,
      "t": 34074.79516145833,
      "d": 310.01888020833576,
      "v": 73
    },
    {
      "midi": 48,
      "hit": false,
      "t": 34285.60799999999,
      "d": 391.86386458333436,
      "v": 73
    },
    {
      "midi": 63,
      "hit": false,
      "t": 34285.60799999999,
      "d": 401.7844687500037,
      "v": 60
    },
    {
      "midi": 58,
      "hit": false,
      "t": 34285.60799999999,
      "d": 411.7050729166731,
      "v": 60
    },
    {
      "midi": 67,
      "hit": false,
      "t": 34536.103255208334,
      "d": 285.217369791666,
      "v": 64
    },
    {
      "midi": 55,
      "hit": false,
      "t": 34761.797,
      "d": 233.1341979166682,
      "v": 40
    },
    {
      "midi": 65,
      "hit": false,
      "t": 35237.986,
      "d": 151.2892135416696,
      "v": 82
    },
    {
      "midi": 70,
      "hit": false,
      "t": 35696.81394270834,
      "d": 106.64649479166837,
      "v": 100
    },
    {
      "midi": 55,
      "hit": false,
      "t": 35714.175,
      "d": 106.64649479166837,
      "v": 56
    },
    {
      "midi": 70,
      "hit": false,
      "t": 35932.42829166667,
      "d": 146.32891145833128,
      "v": 73
    },
    {
      "midi": 69,
      "hit": false,
      "t": 36185.40369791667,
      "d": 438.9867343750011,
      "v": 73
    },
    {
      "midi": 41,
      "hit": false,
      "t": 36190.364,
      "d": 486.10960416666785,
      "v": 73
    },
    {
      "midi": 62,
      "hit": false,
      "t": 36190.364,
      "d": 498.51035937500274,
      "v": 73
    },
    {
      "midi": 57,
      "hit": false,
      "t": 36190.364,
      "d": 503.4706614583338,
      "v": 73
    },
    {
      "midi": 67,
      "hit": false,
      "t": 36641.75148958334,
      "d": 116.56709895833046,
      "v": 73
    },
    {
      "midi": 53,
      "hit": false,
      "t": 36666.553,
      "d": 195.93193229167082,
      "v": 48
    },
    {
      "midi": 67,
      "hit": false,
      "t": 36884.80629166667,
      "d": 434.02643229167006,
      "v": 82
    },
    {
      "midi": 60,
      "hit": false,
      "t": 37142.742000000006,
      "d": 431.54628124999726,
      "v": 60
    },
    {
      "midi": 65,
      "hit": false,
      "t": 37375.876197916674,
      "d": 324.89978645833617,
      "v": 64
    },
    {
      "midi": 53,
      "hit": false,
      "t": 37618.931000000004,
      "d": 148.8090624999968,
      "v": 56
    },
    {
      "midi": 65,
      "hit": false,
      "t": 37847.10489583334,
      "d": 295.13797395833535,
      "v": 52
    },
    {
      "midi": 62,
      "hit": false,
      "t": 38095.12,
      "d": 476.1889999999985,
      "v": 73
    },
    {
      "midi": 58,
      "hit": false,
      "t": 38095.12,
      "d": 488.5897552083334,
      "v": 64
    },
    {
      "midi": 46,
      "hit": false,
      "t": 38095.12,
      "d": 510.91111458333035,
      "v": 73
    },
    {
      "midi": 65,
      "hit": false,
      "t": 38320.813744791674,
      "d": 133.9281562499964,
      "v": 60
    },
    {
      "midi": 53,
      "hit": false,
      "t": 38571.309,
      "d": 146.32891145833128,
      "v": 52
    },
    {
      "midi": 65,
      "hit": false,
      "t": 39047.498,
      "d": 186.01132812500146,
      "v": 82
    },
    {
      "midi": 53,
      "hit": false,
      "t": 39523.687,
      "d": 151.2892135416696,
      "v": 56
    },
    {
      "midi": 70,
      "hit": false,
      "t": 39543.52820833334,
      "d": 106.64649479166837,
      "v": 82
    },
    {
      "midi": 70,
      "hit": false,
      "t": 39761.781500000005,
      "d": 133.9281562499964,
      "v": 60
    },
    {
      "midi": 60,
      "hit": false,
      "t": 39999.876000000004,
      "d": 468.7485468750019,
      "v": 64
    },
    {
      "midi": 50,
      "hit": false,
      "t": 39999.876000000004,
      "d": 503.4706614583338,
      "v": 73
    },
    {
      "midi": 57,
      "hit": false,
      "t": 39999.876000000004,
      "d": 510.91111458333035,
      "v": 73
    },
    {
      "midi": 69,
      "hit": false,
      "t": 40009.796604166666,
      "d": 374.50280729166843,
      "v": 73
    },
    {
      "midi": 70,
      "hit": false,
      "t": 40463.66424479167,
      "d": 158.72966666666616,
      "v": 64
    },
    {
      "midi": 53,
      "hit": false,
      "t": 40476.065,
      "d": 233.1341979166682,
      "v": 52
    },
    {
      "midi": 69,
      "hit": false,
      "t": 40714.1595,
      "d": 342.2608437500021,
      "v": 73
    },
    {
      "midi": 65,
      "hit": false,
      "t": 40952.254,
      "d": 255.45555729166517,
      "v": 82
    },
    {
      "midi": 65,
      "hit": false,
      "t": 41182.908046875,
      "d": 213.29298958333675,
      "v": 73
    },
    {
      "midi": 53,
      "hit": false,
      "t": 41428.443,
      "d": 151.2892135416696,
      "v": 48
    },
    {
      "midi": 67,
      "hit": false,
      "t": 41445.80405729167,
      "d": 595.2362500000017,
      "v": 82
    },
    {
      "midi": 48,
      "hit": false,
      "t": 41904.632000000005,
      "d": 391.86386458333436,
      "v": 73
    },
    {
      "midi": 63,
      "hit": false,
      "t": 41904.632000000005,
      "d": 401.7844687500037,
      "v": 60
    },
    {
      "midi": 58,
      "hit": false,
      "t": 41904.632000000005,
      "d": 411.7050729166731,
      "v": 60
    },
    {
      "midi": 55,
      "hit": false,
      "t": 42380.82100000001,
      "d": 233.1341979166682,
      "v": 40
    },
    {
      "midi": 65,
      "hit": false,
      "t": 42857.01000000001,
      "d": 151.2892135416696,
      "v": 82
    },
    {
      "midi": 70,
      "hit": false,
      "t": 43315.83794270834,
      "d": 94.24573958333349,
      "v": 64
    },
    {
      "midi": 55,
      "hit": false,
      "t": 43333.199000000015,
      "d": 106.64649479166837,
      "v": 56
    },
    {
      "midi": 70,
      "hit": false,
      "t": 43551.452291666676,
      "d": 208.33268749999843,
      "v": 73
    },
    {
      "midi": 57,
      "hit": false,
      "t": 43809.38800000001,
      "d": 441.4668854166666,
      "v": 73
    },
    {
      "midi": 60,
      "hit": false,
      "t": 43809.38800000001,
      "d": 453.8676406250015,
      "v": 73
    },
    {
      "midi": 41,
      "hit": false,
      "t": 43809.38800000001,
      "d": 468.7485468750019,
      "v": 82
    },
    {
      "midi": 69,
      "hit": false,
      "t": 43811.86815104167,
      "d": 414.18522395833133,
      "v": 73
    },
    {
      "midi": 70,
      "hit": false,
      "t": 44263.255640625,
      "d": 228.17389583332988,
      "v": 60
    },
    {
      "midi": 53,
      "hit": false,
      "t": 44285.57700000001,
      "d": 210.81283854166395,
      "v": 52
    },
    {
      "midi": 72,
      "hit": false,
      "t": 44498.86998958333,
      "d": 488.5897552083334,
      "v": 73
    },
    {
      "midi": 65,
      "hit": false,
      "t": 44761.76600000001,
      "d": 255.45555729166517,
      "v": 73
    },
    {
      "midi": 69,
      "hit": false,
      "t": 45012.26125520833,
      "d": 220.7334427083333,
      "v": 56
    },
    {
      "midi": 53,
      "hit": false,
      "t": 45237.95500000001,
      "d": 153.76936458333512,
      "v": 56
    },
    {
      "midi": 74,
      "hit": false,
      "t": 45245.395453125,
      "d": 572.9148906249975,
      "v": 73
    },
    {
      "midi": 42,
      "hit": false,
      "t": 45714.14400000001,
      "d": 384.4234114583305,
      "v": 73
    },
    {
      "midi": 62,
      "hit": false,
      "t": 45714.14400000001,
      "d": 486.10960416666785,
      "v": 73
    },
    {
      "midi": 74,
      "hit": false,
      "t": 45934.877442708326,
      "d": 186.01132812500146,
      "v": 73
    },
    {
      "midi": 57,
      "hit": false,
      "t": 46190.333000000006,
      "d": 178.5708750000049,
      "v": 60
    },
    {
      "midi": 74,
      "hit": false,
      "t": 46644.20064062499,
      "d": 300.0982760416664,
      "v": 73
    },
    {
      "midi": 69,
      "hit": false,
      "t": 46666.52200000001,
      "d": 119.04725000000326,
      "v": 73
    },
    {
      "midi": 74,
      "hit": false,
      "t": 47120.38964062499,
      "d": 106.64649479166837,
      "v": 82
    },
    {
      "midi": 74,
      "hit": false,
      "t": 47373.36504687499,
      "d": 662.2003281249999,
      "v": 82
    },
    {
      "midi": 75,
      "hit": false,
      "t": 48050.44628124999,
      "d": 205.8525364583329,
      "v": 73
    },
    {
      "midi": 74,
      "hit": false,
      "t": 48305.90183854166,
      "d": 471.22869791666744,
      "v": 91
    },
    {
      "midi": 72,
      "hit": false,
      "t": 48794.49159374999,
      "d": 195.93193229166354,
      "v": 73
    },
    {
      "midi": 70,
      "hit": false,
      "t": 49010.264734374985,
      "d": 662.2003281249999,
      "v": 64
    },
    {
      "midi": 43,
      "hit": false,
      "t": 49523.65600000002,
      "d": 419.14552604166965,
      "v": 73
    },
    {
      "midi": 62,
      "hit": false,
      "t": 49523.65600000002,
      "d": 461.30809375000536,
      "v": 73
    },
    {
      "midi": 70,
      "hit": false,
      "t": 49766.71080208332,
      "d": 203.37238541666738,
      "v": 73
    },
    {
      "midi": 58,
      "hit": false,
      "t": 49999.84500000002,
      "d": 287.6975208333315,
      "v": 40
    },
    {
      "midi": 70,
      "hit": false,
      "t": 50476.03400000002,
      "d": 126.48770312499983,
      "v": 64
    },
    {
      "midi": 76,
      "hit": false,
      "t": 50905.10013020832,
      "d": 114.08694791666494,
      "v": 91
    },
    {
      "midi": 76,
      "hit": false,
      "t": 51143.194630208316,
      "d": 99.20604166666453,
      "v": 91
    },
    {
      "midi": 76,
      "hit": false,
      "t": 51401.13033854165,
      "d": 396.8241666666654,
      "v": 100
    },
    {
      "midi": 44,
      "hit": false,
      "t": 51428.41200000002,
      "d": 317.4593333333323,
      "v": 73
    },
    {
      "midi": 64,
      "hit": false,
      "t": 51428.41200000002,
      "d": 414.18522395833133,
      "v": 91
    },
    {
      "midi": 77,
      "hit": false,
      "t": 51879.79948958331,
      "d": 131.44800520833087,
      "v": 91
    },
    {
      "midi": 59,
      "hit": false,
      "t": 51904.60100000002,
      "d": 195.93193229166354,
      "v": 60
    },
    {
      "midi": 76,
      "hit": false,
      "t": 52125.33444270831,
      "d": 458.82794270833256,
      "v": 91
    },
    {
      "midi": 71,
      "hit": false,
      "t": 52380.790000000015,
      "d": 101.68619270833005,
      "v": 82
    },
    {
      "midi": 74,
      "hit": false,
      "t": 52623.84480208331,
      "d": 235.61434895833372,
      "v": 73
    },
    {
      "midi": 72,
      "hit": false,
      "t": 52861.93930208331,
      "d": 396.8241666666654,
      "v": 82
    },
    {
      "midi": 45,
      "hit": false,
      "t": 53333.16800000001,
      "d": 347.22114583333314,
      "v": 68
    },
    {
      "midi": 64,
      "hit": false,
      "t": 53333.16800000001,
      "d": 448.9073385416632,
      "v": 68
    },
    {
      "midi": 60,
      "hit": false,
      "t": 53809.35700000001,
      "d": 262.896010416669,
      "v": 53
    },
    {
      "midi": 72,
      "hit": false,
      "t": 54285.54600000002,
      "d": 99.20604166666453,
      "v": 38
    },
    {
      "midi": 74,
      "hit": false,
      "t": 54766.69530208331,
      "d": 96.72589062499901,
      "v": 91
    },
    {
      "midi": 74,
      "hit": false,
      "t": 54994.86919791664,
      "d": 91.76558854166797,
      "v": 82
    },
    {
      "midi": 74,
      "hit": false,
      "t": 55245.364453124974,
      "d": 322.41963541666337,
      "v": 91
    },
    {
      "midi": 74,
      "hit": false,
      "t": 55733.95420833331,
      "d": 138.8884583333347,
      "v": 91
    },
    {
      "midi": 76,
      "hit": false,
      "t": 55981.969312499976,
      "d": 307.53872916667024,
      "v": 82
    },
    {
      "midi": 77,
      "hit": false,
      "t": 56443.27740624998,
      "d": 151.2892135416696,
      "v": 64
    },
    {
      "midi": 72,
      "hit": false,
      "t": 56688.812359374984,
      "d": 411.7050729166658,
      "v": 82
    },
    {
      "midi": 76,
      "hit": false,
      "t": 58558.84624479165,
      "d": 109.1266458333339,
      "v": 82
    },
    {
      "midi": 76,
      "hit": false,
      "t": 58787.02014062499,
      "d": 91.76558854166797,
      "v": 73
    },
    {
      "midi": 76,
      "hit": false,
      "t": 59027.594791666656,
      "d": 334.82039062499825,
      "v": 91
    },
    {
      "midi": 76,
      "hit": false,
      "t": 59513.70439583332,
      "d": 94.24573958333349,
      "v": 82
    },
    {
      "midi": 76,
      "hit": false,
      "t": 59766.67980208332,
      "d": 332.34023958333273,
      "v": 82
    },
    {
      "midi": 79,
      "hit": false,
      "t": 60245.34895312499,
      "d": 131.44800520833087,
      "v": 82
    },
    {
      "midi": 77,
      "hit": false,
      "t": 60488.40375520832,
      "d": 558.0339843749971,
      "v": 91
    },
    {
      "midi": 77,
      "hit": false,
      "t": 61158.044536458314,
      "d": 111.60679687499942,
      "v": 73
    },
    {
      "midi": 77,
      "hit": false,
      "t": 62368.35824479165,
      "d": 114.08694791666494,
      "v": 91
    },
    {
      "midi": 77,
      "hit": false,
      "t": 62603.97259374998,
      "d": 104.16634375000285,
      "v": 73
    },
    {
      "midi": 77,
      "hit": false,
      "t": 62856.94799999998,
      "d": 307.53872916667024,
      "v": 82
    },
    {
      "midi": 77,
      "hit": false,
      "t": 63320.73624479165,
      "d": 104.16634375000285,
      "v": 82
    },
    {
      "midi": 77,
      "hit": false,
      "t": 63571.23149999999,
      "d": 287.6975208333315,
      "v": 82
    },
    {
      "midi": 77,
      "hit": false,
      "t": 64017.658687499985,
      "d": 106.64649479166837,
      "v": 82
    },
    {
      "midi": 77,
      "hit": false,
      "t": 64260.71348958332,
      "d": 205.8525364583329,
      "v": 82
    },
    {
      "midi": 76,
      "hit": false,
      "t": 64436.804213541654,
      "d": 188.49147916666698,
      "v": 52
    },
    {
      "midi": 74,
      "hit": false,
      "t": 64635.21629687499,
      "d": 329.8600885416672,
      "v": 64
    },
    {
      "midi": 74,
      "hit": false,
      "t": 66192.75115104165,
      "d": 148.80906250000407,
      "v": 82
    },
    {
      "midi": 76,
      "hit": false,
      "t": 66415.96474479165,
      "d": 128.96785416666535,
      "v": 73
    },
    {
      "midi": 77,
      "hit": false,
      "t": 66649.09894270831,
      "d": 297.6181249999936,
      "v": 91
    },
    {
      "midi": 77,
      "hit": false,
      "t": 67122.80779166664,
      "d": 141.36860937500023,
      "v": 91
    },
    {
      "midi": 76,
      "hit": false,
      "t": 67383.22365104164,
      "d": 381.943260416665,
      "v": 91
    },
    {
      "midi": 74,
      "hit": false,
      "t": 67844.53174479165,
      "d": 141.36860937500023,
      "v": 73
    },
    {
      "midi": 72,
      "hit": false,
      "t": 68075.18579166665,
      "d": 357.1417499999952,
      "v": 82
    },
    {
      "midi": 72,
      "hit": false,
      "t": 68593.53735937498,
      "d": 213.29298958333675,
      "v": 82
    },
    {
      "midi": 69,
      "hit": false,
      "t": 70017.14405729165,
      "d": 101.68619270833733,
      "v": 91
    },
    {
      "midi": 69,
      "hit": false,
      "t": 70267.63931249999,
      "d": 81.8449843749986,
      "v": 82
    },
    {
      "midi": 69,
      "hit": false,
      "t": 70523.09486979166,
      "d": 352.1814479166642,
      "v": 91
    },
    {
      "midi": 70,
      "hit": false,
      "t": 70976.96251041666,
      "d": 128.96785416666535,
      "v": 64
    },
    {
      "midi": 72,
      "hit": false,
      "t": 71210.09670833332,
      "d": 389.38371354166884,
      "v": 82
    },
    {
      "midi": 74,
      "hit": false,
      "t": 71686.28570833332,
      "d": 334.82039062499825,
      "v": 73
    },
    {
      "midi": 65,
      "hit": false,
      "t": 72164.954859375,
      "d": 250.49525520832685,
      "v": 82
    },
    {
      "midi": 43,
      "hit": false,
      "t": 72385.68830208335,
      "d": 396.8241666666727,
      "v": 82
    },
    {
      "midi": 59,
      "hit": false,
      "t": 72385.68830208335,
      "d": 419.14552604166965,
      "v": 64
    },
    {
      "midi": 62,
      "hit": false,
      "t": 72385.68830208335,
      "d": 436.5065833333356,
      "v": 64
    },
    {
      "midi": 65,
      "hit": false,
      "t": 72633.70340624999,
      "d": 171.13042187500105,
      "v": 82
    },
    {
      "midi": 53,
      "hit": false,
      "t": 72856.91700000002,
      "d": 163.6899687499972,
      "v": 60
    },
    {
      "midi": 65,
      "hit": false,
      "t": 73323.18539583335,
      "d": 163.6899687499972,
      "v": 73
    },
    {
      "midi": 53,
      "hit": false,
      "t": 73804.33469791668,
      "d": 168.65027083332825,
      "v": 56
    },
    {
      "midi": 65,
      "hit": false,
      "t": 73821.69575520832,
      "d": 116.56709895833046,
      "v": 82
    },
    {
      "midi": 65,
      "hit": false,
      "t": 74057.31010416665,
      "d": 91.76558854166069,
      "v": 73
    },
    {
      "midi": 65,
      "hit": false,
      "t": 74287.96415104164,
      "d": 354.661598958337,
      "v": 73
    },
    {
      "midi": 59,
      "hit": false,
      "t": 74292.92445312502,
      "d": 448.90733854167047,
      "v": 73
    },
    {
      "midi": 62,
      "hit": false,
      "t": 74292.92445312502,
      "d": 463.7882447916636,
      "v": 64
    },
    {
      "midi": 53,
      "hit": false,
      "t": 74756.71269791668,
      "d": 225.69374479167163,
      "v": 52
    },
    {
      "midi": 67,
      "hit": false,
      "t": 74771.59360416664,
      "d": 116.56709895833046,
      "v": 73
    },
    {
      "midi": 69,
      "hit": false,
      "t": 75022.08885937497,
      "d": 282.73721875000047,
      "v": 91
    },
    {
      "midi": 65,
      "hit": false,
      "t": 75227.94139583335,
      "d": 163.6899687499972,
      "v": 73
    },
    {
      "midi": 70,
      "hit": false,
      "t": 75483.39695312497,
      "d": 166.17011979167,
      "v": 73
    },
    {
      "midi": 53,
      "hit": false,
      "t": 75699.17009375001,
      "d": 119.04725000000326,
      "v": 52
    },
    {
      "midi": 67,
      "hit": false,
      "t": 75733.89220833332,
      "d": 369.5425052083301,
      "v": 73
    },
    {
      "midi": 58,
      "hit": false,
      "t": 76187.75984895835,
      "d": 466.2683958333364,
      "v": 60
    },
    {
      "midi": 43,
      "hit": false,
      "t": 76192.72015104169,
      "d": 431.54628124999,
      "v": 82
    },
    {
      "midi": 62,
      "hit": false,
      "t": 76192.72015104169,
      "d": 458.827942708318,
      "v": 64
    },
    {
      "midi": 53,
      "hit": false,
      "t": 76673.86945312502,
      "d": 166.17011979167,
      "v": 60
    },
    {
      "midi": 65,
      "hit": false,
      "t": 77140.13784895836,
      "d": 161.20981770833896,
      "v": 73
    },
    {
      "midi": 53,
      "hit": false,
      "t": 77616.32684895836,
      "d": 106.64649479166837,
      "v": 64
    },
    {
      "midi": 64,
      "hit": false,
      "t": 78092.51584895836,
      "d": 456.3477916666743,
      "v": 64
    },
    {
      "midi": 58,
      "hit": false,
      "t": 78097.47615104169,
      "d": 491.0699062500207,
      "v": 64
    },
    {
      "midi": 48,
      "hit": false,
      "t": 78099.95630208336,
      "d": 468.7485468750092,
      "v": 73
    },
    {
      "midi": 55,
      "hit": false,
      "t": 78576.14530208337,
      "d": 163.6899687499972,
      "v": 52
    },
    {
      "midi": 65,
      "hit": false,
      "t": 78816.71995312498,
      "d": 200.89223437500186,
      "v": 82
    },
    {
      "midi": 67,
      "hit": false,
      "t": 79037.45339583336,
      "d": 143.84876041667303,
      "v": 64
    },
    {
      "midi": 69,
      "hit": false,
      "t": 79052.33430208331,
      "d": 198.41208333332906,
      "v": 73
    },
    {
      "midi": 72,
      "hit": false,
      "t": 79297.86925520831,
      "d": 168.65027083332825,
      "v": 82
    },
    {
      "midi": 55,
      "hit": false,
      "t": 79518.6026979167,
      "d": 91.76558854166069,
      "v": 56
    },
    {
      "midi": 41,
      "hit": false,
      "t": 79989.83139583336,
      "d": 3759.9089791666775,
      "v": 56
    },
    {
      "midi": 60,
      "hit": false,
      "t": 79997.27184895836,
      "d": 3762.3891302083357,
      "v": 56
    },
    {
      "midi": 57,
      "hit": false,
      "t": 80004.71230208337,
      "d": 3779.7501875000016,
      "v": 40
    },
    {
      "midi": 65,
      "hit": false,
      "t": 80009.6726041667,
      "d": 3754.948677083332,
      "v": 52
    },
    {
      "midi": 65,
      "hit": false,
      "t": 80019.5932083333,
      "d": 302.5784270833392,
      "v": 64
    },
    {
      "midi": 70,
      "hit": false,
      "t": 83809.26399999998,
      "d": 1165.6709895833337,
      "v": 82
    },
    {
      "midi": 62,
      "hit": false,
      "t": 83809.26400000004,
      "d": 476.1889999999985,
      "v": 73
    },
    {
      "midi": 58,
      "hit": false,
      "t": 83809.26400000004,
      "d": 488.5897552083334,
      "v": 64
    },
    {
      "midi": 46,
      "hit": false,
      "t": 83809.26400000004,
      "d": 510.91111458333035,
      "v": 73
    },
    {
      "midi": 53,
      "hit": false,
      "t": 84285.45300000004,
      "d": 146.32891145833128,
      "v": 52
    },
    {
      "midi": 65,
      "hit": false,
      "t": 84761.64200000004,
      "d": 186.01132812499418,
      "v": 78
    },
    {
      "midi": 70,
      "hit": false,
      "t": 85237.83099999998,
      "d": 99.20604166666453,
      "v": 91
    },
    {
      "midi": 53,
      "hit": false,
      "t": 85237.83100000003,
      "d": 151.28921354166232,
      "v": 56
    },
    {
      "midi": 70,
      "hit": false,
      "t": 85475.92549999997,
      "d": 220.7334427083406,
      "v": 82
    },
    {
      "midi": 69,
      "hit": false,
      "t": 85714.01999999997,
      "d": 448.90733854167047,
      "v": 73
    },
    {
      "midi": 60,
      "hit": false,
      "t": 85714.02000000003,
      "d": 468.74854687499464,
      "v": 64
    },
    {
      "midi": 50,
      "hit": false,
      "t": 85714.02000000003,
      "d": 503.4706614583265,
      "v": 73
    },
    {
      "midi": 57,
      "hit": false,
      "t": 85714.02000000003,
      "d": 510.91111458333035,
      "v": 73
    },
    {
      "midi": 70,
      "hit": false,
      "t": 86190.20899999997,
      "d": 265.37616145833454,
      "v": 60
    },
    {
      "midi": 53,
      "hit": false,
      "t": 86190.20900000003,
      "d": 233.13419791666092,
      "v": 52
    },
    {
      "midi": 69,
      "hit": false,
      "t": 86428.30349999998,
      "d": 468.74854687499464,
      "v": 73
    },
    {
      "midi": 65,
      "hit": false,
      "t": 86666.39800000003,
      "d": 255.45555729167245,
      "v": 75
    },
    {
      "midi": 65,
      "hit": false,
      "t": 86904.49249999998,
      "d": 453.8676406250015,
      "v": 73
    },
    {
      "midi": 53,
      "hit": false,
      "t": 87142.58700000004,
      "d": 151.28921354166232,
      "v": 48
    },
    {
      "midi": 67,
      "hit": false,
      "t": 87380.68149999998,
      "d": 310.0188802083285,
      "v": 73
    },
    {
      "midi": 48,
      "hit": false,
      "t": 87618.77600000004,
      "d": 391.86386458334164,
      "v": 73
    },
    {
      "midi": 63,
      "hit": false,
      "t": 87618.77600000004,
      "d": 401.7844687500037,
      "v": 60
    },
    {
      "midi": 58,
      "hit": false,
      "t": 87618.77600000004,
      "d": 411.7050729166658,
      "v": 60
    },
    {
      "midi": 67,
      "hit": false,
      "t": 87856.87049999998,
      "d": 285.21736979167326,
      "v": 64
    },
    {
      "midi": 55,
      "hit": false,
      "t": 88094.96500000004,
      "d": 233.13419791666092,
      "v": 40
    },
    {
      "midi": 65,
      "hit": false,
      "t": 88571.15400000004,
      "d": 151.28921354166232,
      "v": 72
    },
    {
      "midi": 70,
      "hit": false,
      "t": 89047.34299999998,
      "d": 104.16634374999558,
      "v": 100
    },
    {
      "midi": 55,
      "hit": false,
      "t": 89047.34300000004,
      "d": 106.64649479166837,
      "v": 56
    },
    {
      "midi": 70,
      "hit": false,
      "t": 89285.43749999997,
      "d": 143.84876041667303,
      "v": 73
    },
    {
      "midi": 69,
      "hit": false,
      "t": 89523.53199999998,
      "d": 438.98673437499383,
      "v": 73
    },
    {
      "midi": 41,
      "hit": false,
      "t": 89523.53200000004,
      "d": 486.1096041666751,
      "v": 73
    },
    {
      "midi": 62,
      "hit": false,
      "t": 89523.53200000004,
      "d": 498.51035937501,
      "v": 73
    },
    {
      "midi": 57,
      "hit": false,
      "t": 89523.53200000004,
      "d": 503.47066145834106,
      "v": 73
    },
    {
      "midi": 67,
      "hit": false,
      "t": 89999.72099999998,
      "d": 116.56709895833046,
      "v": 73
    },
    {
      "midi": 53,
      "hit": false,
      "t": 89999.72100000005,
      "d": 195.93193229165627,
      "v": 48
    },
    {
      "midi": 67,
      "hit": false,
      "t": 90237.81549999997,
      "d": 431.54628125000454,
      "v": 82
    },
    {
      "midi": 60,
      "hit": false,
      "t": 90475.91000000003,
      "d": 431.54628125000454,
      "v": 60
    },
    {
      "midi": 65,
      "hit": false,
      "t": 90714.00449999997,
      "d": 322.41963541666337,
      "v": 64
    },
    {
      "midi": 53,
      "hit": false,
      "t": 90952.09900000003,
      "d": 148.80906250000407,
      "v": 56
    },
    {
      "midi": 65,
      "hit": false,
      "t": 91190.19349999996,
      "d": 295.13797395833535,
      "v": 52
    },
    {
      "midi": 62,
      "hit": false,
      "t": 91428.28800000003,
      "d": 476.1889999999985,
      "v": 73
    },
    {
      "midi": 58,
      "hit": false,
      "t": 91428.28800000003,
      "d": 488.5897552083334,
      "v": 64
    },
    {
      "midi": 46,
      "hit": false,
      "t": 91428.28800000003,
      "d": 510.91111458333035,
      "v": 73
    },
    {
      "midi": 65,
      "hit": false,
      "t": 91666.38249999996,
      "d": 133.9281562499964,
      "v": 60
    },
    {
      "midi": 53,
      "hit": false,
      "t": 91904.47700000003,
      "d": 146.32891145833128,
      "v": 52
    },
    {
      "midi": 65,
      "hit": false,
      "t": 92380.66600000003,
      "d": 186.01132812499418,
      "v": 66
    },
    {
      "midi": 70,
      "hit": false,
      "t": 92856.85499999997,
      "d": 106.64649479166837,
      "v": 82
    },
    {
      "midi": 53,
      "hit": false,
      "t": 92856.85500000003,
      "d": 151.28921354166232,
      "v": 56
    },
    {
      "midi": 70,
      "hit": false,
      "t": 93094.94949999997,
      "d": 133.9281562499964,
      "v": 60
    },
    {
      "midi": 69,
      "hit": false,
      "t": 93333.04399999997,
      "d": 374.50280729166116,
      "v": 73
    },
    {
      "midi": 60,
      "hit": false,
      "t": 93333.04400000002,
      "d": 468.74854687499464,
      "v": 64
    },
    {
      "midi": 50,
      "hit": false,
      "t": 93333.04400000002,
      "d": 503.4706614583265,
      "v": 73
    },
    {
      "midi": 57,
      "hit": false,
      "t": 93333.04400000002,
      "d": 510.91111458333035,
      "v": 73
    },
    {
      "midi": 70,
      "hit": false,
      "t": 93809.23299999996,
      "d": 158.72966666666616,
      "v": 64
    },
    {
      "midi": 53,
      "hit": false,
      "t": 93809.23300000002,
      "d": 233.13419791666092,
      "v": 52
    },
    {
      "midi": 69,
      "hit": false,
      "t": 94047.32749999997,
      "d": 342.2608437500021,
      "v": 73
    },
    {
      "midi": 65,
      "hit": false,
      "t": 94285.42200000002,
      "d": 255.45555729167245,
      "v": 66
    },
    {
      "midi": 65,
      "hit": false,
      "t": 94523.51649999997,
      "d": 210.81283854166395,
      "v": 73
    },
    {
      "midi": 67,
      "hit": false,
      "t": 94761.61099999996,
      "d": 595.2362500000017,
      "v": 82
    },
    {
      "midi": 53,
      "hit": false,
      "t": 94761.61100000003,
      "d": 151.28921354166232,
      "v": 48
    },
    {
      "midi": 48,
      "hit": false,
      "t": 95237.80000000003,
      "d": 391.86386458334164,
      "v": 73
    },
    {
      "midi": 63,
      "hit": false,
      "t": 95237.80000000003,
      "d": 401.7844687500037,
      "v": 60
    },
    {
      "midi": 58,
      "hit": false,
      "t": 95237.80000000003,
      "d": 411.7050729166658,
      "v": 60
    },
    {
      "midi": 55,
      "hit": false,
      "t": 95713.98900000003,
      "d": 233.13419791666092,
      "v": 40
    },
    {
      "midi": 65,
      "hit": false,
      "t": 96190.17800000003,
      "d": 151.28921354166232,
      "v": 66
    },
    {
      "midi": 55,
      "hit": false,
      "t": 96666.36700000003,
      "d": 106.64649479166837,
      "v": 56
    },
    {
      "midi": 63,
      "hit": false,
      "t": 97142.55600000003,
      "d": 448.90733854167047,
      "v": 64
    },
    {
      "midi": 41,
      "hit": false,
      "t": 97142.55600000003,
      "d": 463.7882447916636,
      "v": 82
    },
    {
      "midi": 58,
      "hit": false,
      "t": 97142.55600000003,
      "d": 473.7088489583257,
      "v": 64
    },
    {
      "midi": 55,
      "hit": false,
      "t": 97618.74500000002,
      "d": 173.61057291667385,
      "v": 52
    },
    {
      "midi": 65,
      "hit": false,
      "t": 98094.93400000004,
      "d": 190.97163020833977,
      "v": 66
    },
    {
      "midi": 55,
      "hit": false,
      "t": 98571.12300000005,
      "d": 91.76558854166069,
      "v": 60
    },
    {
      "midi": 70,
      "hit": false,
      "t": 99047.31199999996,
      "d": 1165.6709895833337,
      "v": 82
    },
    {
      "midi": 62,
      "hit": false,
      "t": 99047.31200000003,
      "d": 476.1889999999985,
      "v": 73
    },
    {
      "midi": 58,
      "hit": false,
      "t": 99047.31200000003,
      "d": 488.5897552083334,
      "v": 64
    },
    {
      "midi": 46,
      "hit": false,
      "t": 99047.31200000003,
      "d": 510.91111458333035,
      "v": 73
    },
    {
      "midi": 53,
      "hit": false,
      "t": 99523.50100000003,
      "d": 146.32891145833128,
      "v": 52
    },
    {
      "midi": 65,
      "hit": false,
      "t": 99999.69000000003,
      "d": 186.01132812499418,
      "v": 78
    },
    {
      "midi": 70,
      "hit": false,
      "t": 100475.87899999996,
      "d": 99.20604166666453,
      "v": 91
    },
    {
      "midi": 53,
      "hit": false,
      "t": 100475.87900000003,
      "d": 151.28921354166232,
      "v": 56
    },
    {
      "midi": 70,
      "hit": false,
      "t": 100713.97349999995,
      "d": 220.7334427083406,
      "v": 82
    },
    {
      "midi": 69,
      "hit": false,
      "t": 100952.06799999996,
      "d": 448.90733854167047,
      "v": 73
    },
    {
      "midi": 60,
      "hit": false,
      "t": 100952.06800000003,
      "d": 468.74854687499464,
      "v": 64
    },
    {
      "midi": 50,
      "hit": false,
      "t": 100952.06800000003,
      "d": 503.4706614583265,
      "v": 73
    },
    {
      "midi": 57,
      "hit": false,
      "t": 100952.06800000003,
      "d": 510.91111458333035,
      "v": 73
    },
    {
      "midi": 70,
      "hit": false,
      "t": 101428.25699999995,
      "d": 265.37616145833454,
      "v": 60
    },
    {
      "midi": 53,
      "hit": false,
      "t": 101428.25700000003,
      "d": 233.13419791666092,
      "v": 52
    },
    {
      "midi": 69,
      "hit": false,
      "t": 101666.35149999996,
      "d": 468.74854687499464,
      "v": 73
    },
    {
      "midi": 65,
      "hit": false,
      "t": 101904.44600000003,
      "d": 255.45555729167245,
      "v": 75
    },
    {
      "midi": 65,
      "hit": false,
      "t": 102142.54049999996,
      "d": 453.8676406250015,
      "v": 73
    },
    {
      "midi": 53,
      "hit": false,
      "t": 102380.63500000004,
      "d": 151.28921354166232,
      "v": 48
    },
    {
      "midi": 67,
      "hit": false,
      "t": 102618.72949999996,
      "d": 310.0188802083285,
      "v": 73
    },
    {
      "midi": 48,
      "hit": false,
      "t": 102856.82400000004,
      "d": 391.86386458334164,
      "v": 73
    },
    {
      "midi": 63,
      "hit": false,
      "t": 102856.82400000004,
      "d": 401.7844687500037,
      "v": 60
    },
    {
      "midi": 58,
      "hit": false,
      "t": 102856.82400000004,
      "d": 411.7050729166658,
      "v": 60
    },
    {
      "midi": 55,
      "hit": false,
      "t": 103333.01300000004,
      "d": 233.13419791666092,
      "v": 40
    },
    {
      "midi": 65,
      "hit": false,
      "t": 103809.20200000003,
      "d": 151.28921354166232,
      "v": 72
    },
    {
      "midi": 70,
      "hit": false,
      "t": 104285.39099999996,
      "d": 104.16634374999558,
      "v": 100
    },
    {
      "midi": 55,
      "hit": false,
      "t": 104285.39100000003,
      "d": 106.64649479166837,
      "v": 56
    },
    {
      "midi": 70,
      "hit": false,
      "t": 104523.48549999995,
      "d": 143.84876041667303,
      "v": 73
    },
    {
      "midi": 69,
      "hit": false,
      "t": 104761.57999999996,
      "d": 438.98673437499383,
      "v": 73
    },
    {
      "midi": 41,
      "hit": false,
      "t": 104761.58000000003,
      "d": 486.1096041666751,
      "v": 73
    },
    {
      "midi": 62,
      "hit": false,
      "t": 104761.58000000003,
      "d": 498.51035937501,
      "v": 73
    },
    {
      "midi": 57,
      "hit": false,
      "t": 104761.58000000003,
      "d": 503.47066145834106,
      "v": 73
    },
    {
      "midi": 67,
      "hit": false,
      "t": 105237.76899999996,
      "d": 116.56709895833046,
      "v": 73
    },
    {
      "midi": 53,
      "hit": false,
      "t": 105237.76900000004,
      "d": 195.93193229165627,
      "v": 48
    },
    {
      "midi": 67,
      "hit": false,
      "t": 105475.86349999995,
      "d": 431.54628125000454,
      "v": 82
    },
    {
      "midi": 60,
      "hit": false,
      "t": 105713.95800000003,
      "d": 431.54628125000454,
      "v": 60
    },
    {
      "midi": 65,
      "hit": false,
      "t": 105952.05249999995,
      "d": 322.41963541666337,
      "v": 64
    },
    {
      "midi": 53,
      "hit": false,
      "t": 106190.14700000003,
      "d": 148.80906250000407,
      "v": 56
    },
    {
      "midi": 65,
      "hit": false,
      "t": 106428.24149999995,
      "d": 295.13797395833535,
      "v": 52
    },
    {
      "midi": 62,
      "hit": false,
      "t": 106666.33600000002,
      "d": 476.1889999999985,
      "v": 73
    },
    {
      "midi": 58,
      "hit": false,
      "t": 106666.33600000002,
      "d": 488.5897552083334,
      "v": 64
    },
    {
      "midi": 46,
      "hit": false,
      "t": 106666.33600000002,
      "d": 510.91111458333035,
      "v": 73
    },
    {
      "midi": 65,
      "hit": false,
      "t": 106904.43049999994,
      "d": 133.9281562499964,
      "v": 60
    },
    {
      "midi": 53,
      "hit": false,
      "t": 107142.52500000002,
      "d": 146.32891145833128,
      "v": 52
    },
    {
      "midi": 65,
      "hit": false,
      "t": 107618.71400000002,
      "d": 186.01132812499418,
      "v": 66
    },
    {
      "midi": 70,
      "hit": false,
      "t": 108094.90299999995,
      "d": 106.64649479166837,
      "v": 82
    },
    {
      "midi": 53,
      "hit": false,
      "t": 108094.90300000002,
      "d": 151.28921354166232,
      "v": 56
    },
    {
      "midi": 70,
      "hit": false,
      "t": 108332.99749999995,
      "d": 133.9281562499964,
      "v": 60
    },
    {
      "midi": 69,
      "hit": false,
      "t": 108571.09199999995,
      "d": 374.50280729166116,
      "v": 73
    },
    {
      "midi": 60,
      "hit": false,
      "t": 108571.09200000002,
      "d": 468.74854687499464,
      "v": 64
    },
    {
      "midi": 50,
      "hit": false,
      "t": 108571.09200000002,
      "d": 503.4706614583265,
      "v": 73
    },
    {
      "midi": 57,
      "hit": false,
      "t": 108571.09200000002,
      "d": 510.91111458333035,
      "v": 73
    },
    {
      "midi": 70,
      "hit": false,
      "t": 109047.28099999994,
      "d": 158.72966666666616,
      "v": 64
    },
    {
      "midi": 53,
      "hit": false,
      "t": 109047.28100000002,
      "d": 233.13419791666092,
      "v": 52
    },
    {
      "midi": 69,
      "hit": false,
      "t": 109285.37549999995,
      "d": 342.2608437500021,
      "v": 73
    },
    {
      "midi": 65,
      "hit": false,
      "t": 109523.47000000002,
      "d": 255.45555729167245,
      "v": 66
    },
    {
      "midi": 65,
      "hit": false,
      "t": 109761.56449999995,
      "d": 210.81283854166395,
      "v": 73
    },
    {
      "midi": 67,
      "hit": false,
      "t": 109999.65899999994,
      "d": 595.2362500000017,
      "v": 82
    },
    {
      "midi": 53,
      "hit": false,
      "t": 109999.65900000003,
      "d": 151.28921354166232,
      "v": 48
    },
    {
      "midi": 48,
      "hit": false,
      "t": 110475.84800000003,
      "d": 391.86386458334164,
      "v": 73
    },
    {
      "midi": 63,
      "hit": false,
      "t": 110475.84800000003,
      "d": 401.7844687500037,
      "v": 60
    },
    {
      "midi": 58,
      "hit": false,
      "t": 110475.84800000003,
      "d": 411.7050729166658,
      "v": 60
    },
    {
      "midi": 55,
      "hit": false,
      "t": 110952.03700000003,
      "d": 233.13419791666092,
      "v": 40
    },
    {
      "midi": 65,
      "hit": false,
      "t": 111428.22600000002,
      "d": 151.28921354166232,
      "v": 66
    },
    {
      "midi": 70,
      "hit": false,
      "t": 111904.41499999995,
      "d": 94.24573958333349,
      "v": 64
    },
    {
      "midi": 55,
      "hit": false,
      "t": 111904.41500000002,
      "d": 106.64649479166837,
      "v": 56
    },
    {
      "midi": 70,
      "hit": false,
      "t": 112142.50949999996,
      "d": 208.3326875000057,
      "v": 73
    },
    {
      "midi": 69,
      "hit": false,
      "t": 112380.60399999996,
      "d": 414.1852239583386,
      "v": 73
    },
    {
      "midi": 63,
      "hit": false,
      "t": 112380.60400000002,
      "d": 448.90733854167047,
      "v": 64
    },
    {
      "midi": 41,
      "hit": false,
      "t": 112380.60400000002,
      "d": 463.7882447916636,
      "v": 82
    },
    {
      "midi": 58,
      "hit": false,
      "t": 112380.60400000002,
      "d": 473.7088489583257,
      "v": 64
    },
    {
      "midi": 70,
      "hit": false,
      "t": 112856.79299999996,
      "d": 228.17389583332988,
      "v": 60
    },
    {
      "midi": 55,
      "hit": false,
      "t": 112856.79300000002,
      "d": 173.61057291667385,
      "v": 52
    },
    {
      "midi": 72,
      "hit": false,
      "t": 113094.88749999995,
      "d": 488.5897552083334,
      "v": 73
    },
    {
      "midi": 65,
      "hit": false,
      "t": 113332.98200000003,
      "d": 190.97163020833977,
      "v": 66
    },
    {
      "midi": 69,
      "hit": false,
      "t": 113571.07649999995,
      "d": 220.7334427083406,
      "v": 56
    },
    {
      "midi": 74,
      "hit": false,
      "t": 113809.17099999996,
      "d": 572.9148906250048,
      "v": 73
    },
    {
      "midi": 55,
      "hit": false,
      "t": 113809.17100000005,
      "d": 91.76558854166069,
      "v": 60
    },
    {
      "midi": 42,
      "hit": false,
      "t": 114285.36000000003,
      "d": 384.4234114583378,
      "v": 73
    },
    {
      "midi": 62,
      "hit": false,
      "t": 114285.36000000003,
      "d": 486.1096041666606,
      "v": 73
    },
    {
      "midi": 74,
      "hit": false,
      "t": 114523.45449999996,
      "d": 183.53117708333593,
      "v": 73
    },
    {
      "midi": 57,
      "hit": false,
      "t": 114761.54900000003,
      "d": 178.57087499999034,
      "v": 60
    },
    {
      "midi": 69,
      "hit": false,
      "t": 115237.73800000001,
      "d": 119.04725000000326,
      "v": 73
    },
    {
      "midi": 74,
      "hit": false,
      "t": 115713.92699999997,
      "d": 91.76558854166069,
      "v": 73
    },
    {
      "midi": 74,
      "hit": false,
      "t": 115952.02149999996,
      "d": 94.24573958333349,
      "v": 64
    },
    {
      "midi": 74,
      "hit": false,
      "t": 116190.11599999997,
      "d": 453.8676406250015,
      "v": 82
    },
    {
      "midi": 75,
      "hit": false,
      "t": 116666.30499999996,
      "d": 218.2532916666678,
      "v": 73
    },
    {
      "midi": 74,
      "hit": false,
      "t": 116904.39949999997,
      "d": 429.06613020833174,
      "v": 82
    },
    {
      "midi": 72,
      "hit": false,
      "t": 117380.58849999997,
      "d": 215.773140624995,
      "v": 64
    },
    {
      "midi": 70,
      "hit": false,
      "t": 117618.68299999996,
      "d": 352.1814479166642,
      "v": 73
    },
    {
      "midi": 70,
      "hit": false,
      "t": 118094.87199999996,
      "d": 310.0188802083285,
      "v": 73
    },
    {
      "midi": 43,
      "hit": false,
      "t": 118094.87200000002,
      "d": 419.14552604166965,
      "v": 73
    },
    {
      "midi": 62,
      "hit": false,
      "t": 118094.87200000002,
      "d": 461.30809375000536,
      "v": 73
    },
    {
      "midi": 58,
      "hit": false,
      "t": 118571.06100000002,
      "d": 287.6975208333315,
      "v": 40
    },
    {
      "midi": 70,
      "hit": false,
      "t": 119047.25000000001,
      "d": 126.4877031250071,
      "v": 64
    },
    {
      "midi": 76,
      "hit": false,
      "t": 119523.43899999995,
      "d": 114.08694791667222,
      "v": 91
    },
    {
      "midi": 76,
      "hit": false,
      "t": 119761.53349999996,
      "d": 96.72589062500629,
      "v": 91
    },
    {
      "midi": 76,
      "hit": false,
      "t": 119999.62799999997,
      "d": 394.3440156249999,
      "v": 100
    },
    {
      "midi": 44,
      "hit": false,
      "t": 119999.62800000003,
      "d": 317.4593333333323,
      "v": 73
    },
    {
      "midi": 64,
      "hit": false,
      "t": 119999.62800000003,
      "d": 414.1852239583386,
      "v": 91
    },
    {
      "midi": 77,
      "hit": false,
      "t": 120475.81699999997,
      "d": 131.44800520833815,
      "v": 91
    },
    {
      "midi": 59,
      "hit": false,
      "t": 120475.81700000002,
      "d": 195.93193229167082,
      "v": 60
    },
    {
      "midi": 76,
      "hit": false,
      "t": 120713.91149999997,
      "d": 456.34779166665976,
      "v": 91
    },
    {
      "midi": 71,
      "hit": false,
      "t": 120952.00600000002,
      "d": 101.68619270833733,
      "v": 82
    },
    {
      "midi": 74,
      "hit": false,
      "t": 121190.10049999997,
      "d": 235.61434895833372,
      "v": 73
    },
    {
      "midi": 72,
      "hit": false,
      "t": 121666.28949999997,
      "d": 396.8241666666727,
      "v": 82
    },
    {
      "midi": 45,
      "hit": false,
      "t": 121904.38400000002,
      "d": 347.22114583333314,
      "v": 68
    },
    {
      "midi": 64,
      "hit": false,
      "t": 121904.38400000002,
      "d": 448.90733854167047,
      "v": 68
    },
    {
      "midi": 60,
      "hit": false,
      "t": 122380.57300000002,
      "d": 262.89601041666174,
      "v": 53
    },
    {
      "midi": 74,
      "hit": false,
      "t": 122856.76199999997,
      "d": 667.1606302083383,
      "v": 91
    },
    {
      "midi": 62,
      "hit": false,
      "t": 122856.76200000002,
      "d": 2348.7030364583334,
      "v": 91
    },
    {
      "midi": 58,
      "hit": false,
      "t": 122856.76200000002,
      "d": 2827.3721875000047,
      "v": 82
    },
    {
      "midi": 53,
      "hit": false,
      "t": 122856.76200000002,
      "d": 3301.081036458345,
      "v": 82
    },
    {
      "midi": 46,
      "hit": false,
      "t": 122856.76200000002,
      "d": 3789.6707916666783,
      "v": 91
    },
    {
      "midi": 74,
      "hit": false,
      "t": 125237.70699999998,
      "d": 94.24573958333349,
      "v": 91
    },
    {
      "midi": 74,
      "hit": false,
      "t": 125475.80149999999,
      "d": 89.28543750000244,
      "v": 82
    },
    {
      "midi": 74,
      "hit": false,
      "t": 125713.896,
      "d": 322.41963541666337,
      "v": 91
    },
    {
      "midi": 74,
      "hit": false,
      "t": 126190.08499999999,
      "d": 138.88845833332743,
      "v": 91
    },
    {
      "midi": 76,
      "hit": false,
      "t": 126428.17949999998,
      "d": 307.53872916667024,
      "v": 82
    },
    {
      "midi": 77,
      "hit": false,
      "t": 126904.36849999998,
      "d": 151.28921354166232,
      "v": 64
    },
    {
      "midi": 72,
      "hit": false,
      "t": 127142.46299999997,
      "d": 411.7050729166658,
      "v": 82
    },
    {
      "midi": 72,
      "hit": false,
      "t": 127618.65199999997,
      "d": 119.04725000000326,
      "v": 32
    },
    {
      "midi": 76,
      "hit": false,
      "t": 129047.21899999998,
      "d": 106.64649479166837,
      "v": 82
    },
    {
      "midi": 76,
      "hit": false,
      "t": 129285.31349999999,
      "d": 89.28543750000244,
      "v": 73
    },
    {
      "midi": 76,
      "hit": false,
      "t": 129523.408,
      "d": 334.82039062499825,
      "v": 91
    },
    {
      "midi": 76,
      "hit": false,
      "t": 129999.597,
      "d": 91.76558854166069,
      "v": 82
    },
    {
      "midi": 76,
      "hit": false,
      "t": 130237.69149999999,
      "d": 329.8600885416672,
      "v": 82
    },
    {
      "midi": 79,
      "hit": false,
      "t": 130713.88049999998,
      "d": 131.44800520833815,
      "v": 82
    },
    {
      "midi": 77,
      "hit": false,
      "t": 130951.97499999999,
      "d": 357.1417499999952,
      "v": 91
    },
    {
      "midi": 77,
      "hit": false,
      "t": 131428.164,
      "d": 111.60679687501397,
      "v": 73
    },
    {
      "midi": 77,
      "hit": false,
      "t": 132856.731,
      "d": 114.08694791665766,
      "v": 91
    },
    {
      "midi": 77,
      "hit": false,
      "t": 133094.82549999998,
      "d": 104.16634374999558,
      "v": 73
    },
    {
      "midi": 77,
      "hit": false,
      "t": 133332.91999999998,
      "d": 307.53872916667024,
      "v": 82
    },
    {
      "midi": 77,
      "hit": false,
      "t": 133809.109,
      "d": 104.16634374999558,
      "v": 82
    },
    {
      "midi": 77,
      "hit": false,
      "t": 134047.2035,
      "d": 287.69752083334606,
      "v": 82
    },
    {
      "midi": 77,
      "hit": false,
      "t": 134523.39250000002,
      "d": 104.16634374999558,
      "v": 82
    },
    {
      "midi": 77,
      "hit": false,
      "t": 134761.48700000002,
      "d": 205.85253645834746,
      "v": 82
    },
    {
      "midi": 77,
      "hit": false,
      "t": 134999.58150000003,
      "d": 188.49147916666698,
      "v": 52
    },
    {
      "midi": 74,
      "hit": false,
      "t": 136666.24300000002,
      "d": 146.32891145834583,
      "v": 82
    },
    {
      "midi": 76,
      "hit": false,
      "t": 136904.33750000002,
      "d": 128.96785416666535,
      "v": 73
    },
    {
      "midi": 77,
      "hit": false,
      "t": 137142.43200000003,
      "d": 295.13797395833535,
      "v": 91
    },
    {
      "midi": 77,
      "hit": false,
      "t": 137618.62100000004,
      "d": 138.88845833332743,
      "v": 91
    },
    {
      "midi": 76,
      "hit": false,
      "t": 137856.71550000005,
      "d": 381.94326041667955,
      "v": 91
    },
    {
      "midi": 74,
      "hit": false,
      "t": 138332.90450000006,
      "d": 138.88845833332743,
      "v": 73
    },
    {
      "midi": 72,
      "hit": false,
      "t": 138570.99900000007,
      "d": 357.1417500000098,
      "v": 82
    },
    {
      "midi": 72,
      "hit": false,
      "t": 139047.18800000008,
      "d": 213.29298958333675,
      "v": 82
    },
    {
      "midi": 69,
      "hit": false,
      "t": 140475.7550000001,
      "d": 101.68619270832278,
      "v": 91
    },
    {
      "midi": 69,
      "hit": false,
      "t": 140713.84950000007,
      "d": 81.8449843749986,
      "v": 82
    },
    {
      "midi": 69,
      "hit": false,
      "t": 140951.94400000008,
      "d": 352.1814479166642,
      "v": 91
    },
    {
      "midi": 70,
      "hit": false,
      "t": 141428.13300000006,
      "d": 128.96785416666535,
      "v": 64
    },
    {
      "midi": 72,
      "hit": false,
      "t": 141666.22750000007,
      "d": 389.38371354166884,
      "v": 82
    },
    {
      "midi": 74,
      "hit": false,
      "t": 142142.41650000008,
      "d": 332.34023958334,
      "v": 73
    },
    {
      "midi": 65,
      "hit": false,
      "t": 142618.6055000001,
      "d": 250.4952552083414,
      "v": 82
    },
    {
      "midi": 43,
      "hit": false,
      "t": 142861.6603020834,
      "d": 396.82416666665813,
      "v": 82
    },
    {
      "midi": 59,
      "hit": false,
      "t": 142861.6603020834,
      "d": 419.1455260416551,
      "v": 64
    },
    {
      "midi": 62,
      "hit": false,
      "t": 142861.6603020834,
      "d": 436.5065833333356,
      "v": 64
    },
    {
      "midi": 65,
      "hit": false,
      "t": 143094.7945000001,
      "d": 168.6502708333428,
      "v": 82
    },
    {
      "midi": 53,
      "hit": false,
      "t": 143332.88900000005,
      "d": 163.6899687499972,
      "v": 60
    },
    {
      "midi": 65,
      "hit": false,
      "t": 143799.15739583338,
      "d": 163.6899687499972,
      "v": 61
    },
    {
      "midi": 74,
      "hit": false,
      "t": 144285.2670000001,
      "d": 101.68619270832278,
      "v": 73
    },
    {
      "midi": 74,
      "hit": false,
      "t": 144523.3615000001,
      "d": 91.76558854166069,
      "v": 73
    },
    {
      "midi": 74,
      "hit": false,
      "t": 144761.4560000001,
      "d": 290.17767187498976,
      "v": 100
    },
    {
      "midi": 59,
      "hit": false,
      "t": 144768.89645312505,
      "d": 448.90733854167047,
      "v": 73
    },
    {
      "midi": 62,
      "hit": false,
      "t": 144768.89645312505,
      "d": 463.78824479167815,
      "v": 64
    },
    {
      "midi": 53,
      "hit": false,
      "t": 145232.68469791673,
      "d": 225.69374479167163,
      "v": 52
    },
    {
      "midi": 74,
      "hit": false,
      "t": 145237.64500000008,
      "d": 148.80906249998952,
      "v": 91
    },
    {
      "midi": 76,
      "hit": false,
      "t": 145475.73950000005,
      "d": 265.37616145832,
      "v": 82
    },
    {
      "midi": 65,
      "hit": false,
      "t": 145703.9133958334,
      "d": 163.6899687499972,
      "v": 61
    },
    {
      "midi": 77,
      "hit": false,
      "t": 145951.92850000004,
      "d": 114.08694791665766,
      "v": 73
    },
    {
      "midi": 77,
      "hit": false,
      "t": 146190.02300000002,
      "d": 272.8166145833384,
      "v": 91
    },
    {
      "midi": 58,
      "hit": false,
      "t": 146663.73184895838,
      "d": 466.26839583338005,
      "v": 60
    },
    {
      "midi": 77,
      "hit": false,
      "t": 146666.21200000003,
      "d": 178.5708750000049,
      "v": 73
    },
    {
      "midi": 43,
      "hit": false,
      "t": 146668.69215104173,
      "d": 431.5462812500191,
      "v": 82
    },
    {
      "midi": 62,
      "hit": false,
      "t": 146668.69215104173,
      "d": 458.82794270836166,
      "v": 64
    },
    {
      "midi": 53,
      "hit": false,
      "t": 147149.8414531251,
      "d": 166.17011979167,
      "v": 60
    },
    {
      "midi": 65,
      "hit": false,
      "t": 147616.10984895844,
      "d": 161.2098177083244,
      "v": 64
    },
    {
      "midi": 65,
      "hit": false,
      "t": 148094.77900000004,
      "d": 126.48770312499255,
      "v": 73
    },
    {
      "midi": 65,
      "hit": false,
      "t": 148332.87350000005,
      "d": 195.93193229165627,
      "v": 91
    },
    {
      "midi": 64,
      "hit": false,
      "t": 148568.48784895844,
      "d": 456.34779166668886,
      "v": 64
    },
    {
      "midi": 69,
      "hit": false,
      "t": 148570.96800000002,
      "d": 372.02265624998836,
      "v": 91
    },
    {
      "midi": 58,
      "hit": false,
      "t": 148573.44815104178,
      "d": 491.0699062499916,
      "v": 64
    },
    {
      "midi": 48,
      "hit": false,
      "t": 148575.92830208346,
      "d": 468.74854687499464,
      "v": 73
    },
    {
      "midi": 72,
      "hit": false,
      "t": 149047.157,
      "d": 178.5708750000049,
      "v": 82
    },
    {
      "midi": 55,
      "hit": false,
      "t": 149052.11730208344,
      "d": 163.6899687499972,
      "v": 52
    },
    {
      "midi": 69,
      "hit": false,
      "t": 149285.2515,
      "d": 312.49903124998673,
      "v": 82
    },
    {
      "midi": 67,
      "hit": false,
      "t": 149513.42539583344,
      "d": 143.84876041667303,
      "v": 55
    },
    {
      "midi": 67,
      "hit": false,
      "t": 149761.4405,
      "d": 416.6653750000114,
      "v": 82
    },
    {
      "midi": 55,
      "hit": false,
      "t": 149994.57469791677,
      "d": 91.76558854166069,
      "v": 56
    },
    {
      "midi": 41,
      "hit": false,
      "t": 150465.80339583344,
      "d": 3759.9089791666484,
      "v": 41
    },
    {
      "midi": 60,
      "hit": false,
      "t": 150473.24384895843,
      "d": 3762.389130208321,
      "v": 41
    },
    {
      "midi": 65,
      "hit": false,
      "t": 150475.72400000002,
      "d": 620.037760416657,
      "v": 64
    },
    {
      "midi": 57,
      "hit": false,
      "t": 150480.68430208342,
      "d": 3779.7501875000016,
      "v": 40
    },
    {
      "midi": 65,
      "hit": false,
      "t": 150485.64460416677,
      "d": 3754.948677083332,
      "v": 52
    },
    {
      "midi": 41,
      "hit": false,
      "t": 154285.236,
      "d": 153.76936458333512,
      "v": 66
    },
    {
      "midi": 62,
      "hit": false,
      "t": 154285.2360000001,
      "d": 476.18900000001304,
      "v": 73
    },
    {
      "midi": 58,
      "hit": false,
      "t": 154285.2360000001,
      "d": 488.5897552083479,
      "v": 64
    },
    {
      "midi": 46,
      "hit": false,
      "t": 154285.2360000001,
      "d": 510.9111145833449,
      "v": 73
    },
    {
      "midi": 53,
      "hit": false,
      "t": 154761.4250000001,
      "d": 146.32891145834583,
      "v": 52
    },
    {
      "midi": 65,
      "hit": false,
      "t": 155237.61400000012,
      "d": 186.01132812499418,
      "v": 69
    },
    {
      "midi": 53,
      "hit": false,
      "t": 155713.8030000001,
      "d": 151.28921354166232,
      "v": 56
    },
    {
      "midi": 50,
      "hit": false,
      "t": 156189.9920000001,
      "d": 503.4706614583556,
      "v": 73
    },
    {
      "midi": 57,
      "hit": false,
      "t": 156189.9920000001,
      "d": 510.9111145833449,
      "v": 73
    },
    {
      "midi": 53,
      "hit": false,
      "t": 156666.1810000001,
      "d": 233.13419791666092,
      "v": 52
    },
    {
      "midi": 65,
      "hit": false,
      "t": 157142.37000000008,
      "d": 255.4555572916579,
      "v": 64
    },
    {
      "midi": 53,
      "hit": false,
      "t": 157618.55900000007,
      "d": 151.28921354166232,
      "v": 48
    },
    {
      "midi": 41,
      "hit": false,
      "t": 158094.748,
      "d": 153.76936458333512,
      "v": 66
    },
    {
      "midi": 48,
      "hit": false,
      "t": 158094.74800000005,
      "d": 391.86386458334164,
      "v": 73
    },
    {
      "midi": 58,
      "hit": false,
      "t": 158094.74800000005,
      "d": 411.7050729166658,
      "v": 60
    },
    {
      "midi": 55,
      "hit": false,
      "t": 158570.93700000006,
      "d": 233.13419791666092,
      "v": 40
    },
    {
      "midi": 65,
      "hit": false,
      "t": 159047.12600000005,
      "d": 151.28921354166232,
      "v": 69
    },
    {
      "midi": 55,
      "hit": false,
      "t": 159523.31500000003,
      "d": 106.64649479166837,
      "v": 56
    },
    {
      "midi": 41,
      "hit": false,
      "t": 159999.50400000004,
      "d": 486.1096041666751,
      "v": 73
    },
    {
      "midi": 62,
      "hit": false,
      "t": 159999.50400000004,
      "d": 498.51035937501,
      "v": 73
    },
    {
      "midi": 53,
      "hit": false,
      "t": 160475.69300000006,
      "d": 195.93193229165627,
      "v": 48
    },
    {
      "midi": 60,
      "hit": false,
      "t": 160951.88200000004,
      "d": 431.54628124999,
      "v": 60
    },
    {
      "midi": 53,
      "hit": false,
      "t": 161428.07100000003,
      "d": 476.18900000001304,
      "v": 56
    },
    {
      "midi": 41,
      "hit": false,
      "t": 161904.25999999998,
      "d": 153.76936458333512,
      "v": 66
    },
    {
      "midi": 62,
      "hit": false,
      "t": 161904.26000000004,
      "d": 476.18900000001304,
      "v": 73
    },
    {
      "midi": 58,
      "hit": false,
      "t": 161904.26000000004,
      "d": 488.5897552083479,
      "v": 64
    },
    {
      "midi": 46,
      "hit": false,
      "t": 161904.26000000004,
      "d": 510.9111145833449,
      "v": 73
    },
    {
      "midi": 53,
      "hit": false,
      "t": 162380.44900000005,
      "d": 146.32891145834583,
      "v": 52
    },
    {
      "midi": 65,
      "hit": false,
      "t": 162856.63800000006,
      "d": 186.01132812499418,
      "v": 72
    },
    {
      "midi": 53,
      "hit": false,
      "t": 163332.82700000005,
      "d": 151.28921354166232,
      "v": 56
    },
    {
      "midi": 50,
      "hit": false,
      "t": 163809.01600000003,
      "d": 503.4706614583556,
      "v": 73
    },
    {
      "midi": 57,
      "hit": false,
      "t": 163809.01600000003,
      "d": 510.9111145833449,
      "v": 73
    },
    {
      "midi": 53,
      "hit": false,
      "t": 164285.20500000005,
      "d": 233.13419791666092,
      "v": 52
    },
    {
      "midi": 65,
      "hit": false,
      "t": 164761.39400000003,
      "d": 255.4555572916579,
      "v": 78
    },
    {
      "midi": 53,
      "hit": false,
      "t": 165237.583,
      "d": 151.28921354166232,
      "v": 48
    },
    {
      "midi": 41,
      "hit": false,
      "t": 165713.77199999997,
      "d": 153.76936458333512,
      "v": 66
    },
    {
      "midi": 48,
      "hit": false,
      "t": 165713.772,
      "d": 391.86386458334164,
      "v": 73
    },
    {
      "midi": 58,
      "hit": false,
      "t": 165713.772,
      "d": 411.7050729166658,
      "v": 60
    },
    {
      "midi": 55,
      "hit": false,
      "t": 166189.961,
      "d": 233.13419791666092,
      "v": 40
    },
    {
      "midi": 65,
      "hit": false,
      "t": 166666.15,
      "d": 151.28921354166232,
      "v": 72
    },
    {
      "midi": 55,
      "hit": false,
      "t": 167142.33899999998,
      "d": 106.64649479166837,
      "v": 56
    },
    {
      "midi": 63,
      "hit": false,
      "t": 167618.528,
      "d": 448.90733854167047,
      "v": 64
    },
    {
      "midi": 41,
      "hit": false,
      "t": 167618.528,
      "d": 463.78824479167815,
      "v": 82
    },
    {
      "midi": 58,
      "hit": false,
      "t": 167618.528,
      "d": 473.70884895834024,
      "v": 64
    },
    {
      "midi": 55,
      "hit": false,
      "t": 168094.717,
      "d": 173.6105729166593,
      "v": 52
    },
    {
      "midi": 65,
      "hit": false,
      "t": 168570.906,
      "d": 190.97163020833977,
      "v": 75
    },
    {
      "midi": 55,
      "hit": false,
      "t": 169047.095,
      "d": 91.76558854166069,
      "v": 72
    },
    {
      "midi": 41,
      "hit": false,
      "t": 169523.28399999996,
      "d": 153.76936458333512,
      "v": 66
    },
    {
      "midi": 62,
      "hit": false,
      "t": 169523.28399999999,
      "d": 476.18900000001304,
      "v": 73
    },
    {
      "midi": 58,
      "hit": false,
      "t": 169523.28399999999,
      "d": 488.5897552083479,
      "v": 64
    },
    {
      "midi": 46,
      "hit": false,
      "t": 169523.28399999999,
      "d": 510.9111145833449,
      "v": 73
    },
    {
      "midi": 53,
      "hit": false,
      "t": 169999.473,
      "d": 146.32891145834583,
      "v": 52
    },
    {
      "midi": 65,
      "hit": false,
      "t": 170475.662,
      "d": 186.01132812499418,
      "v": 69
    },
    {
      "midi": 53,
      "hit": false,
      "t": 170951.851,
      "d": 151.28921354166232,
      "v": 56
    },
    {
      "midi": 50,
      "hit": false,
      "t": 171428.03999999998,
      "d": 503.4706614583556,
      "v": 73
    },
    {
      "midi": 57,
      "hit": false,
      "t": 171428.03999999998,
      "d": 510.9111145833449,
      "v": 73
    },
    {
      "midi": 53,
      "hit": false,
      "t": 171904.229,
      "d": 233.13419791666092,
      "v": 52
    },
    {
      "midi": 65,
      "hit": false,
      "t": 172380.41799999998,
      "d": 255.4555572916579,
      "v": 64
    },
    {
      "midi": 53,
      "hit": false,
      "t": 172856.60699999996,
      "d": 151.28921354166232,
      "v": 48
    },
    {
      "midi": 41,
      "hit": false,
      "t": 173332.79599999994,
      "d": 153.76936458333512,
      "v": 66
    },
    {
      "midi": 48,
      "hit": false,
      "t": 173332.79599999994,
      "d": 391.86386458334164,
      "v": 73
    },
    {
      "midi": 58,
      "hit": false,
      "t": 173332.79599999994,
      "d": 411.7050729166658,
      "v": 60
    },
    {
      "midi": 55,
      "hit": false,
      "t": 173808.98499999996,
      "d": 233.13419791666092,
      "v": 40
    },
    {
      "midi": 65,
      "hit": false,
      "t": 174285.17399999994,
      "d": 151.28921354166232,
      "v": 69
    },
    {
      "midi": 55,
      "hit": false,
      "t": 174761.36299999992,
      "d": 106.64649479166837,
      "v": 56
    },
    {
      "midi": 41,
      "hit": false,
      "t": 175237.55199999994,
      "d": 486.1096041666751,
      "v": 73
    },
    {
      "midi": 62,
      "hit": false,
      "t": 175237.55199999994,
      "d": 498.51035937501,
      "v": 73
    },
    {
      "midi": 53,
      "hit": false,
      "t": 175713.74099999995,
      "d": 195.93193229165627,
      "v": 48
    },
    {
      "midi": 60,
      "hit": false,
      "t": 176189.92999999993,
      "d": 431.54628124999,
      "v": 60
    },
    {
      "midi": 53,
      "hit": false,
      "t": 176666.11899999992,
      "d": 476.18900000001304,
      "v": 56
    },
    {
      "midi": 41,
      "hit": false,
      "t": 177142.30799999993,
      "d": 153.76936458333512,
      "v": 66
    },
    {
      "midi": 62,
      "hit": false,
      "t": 177142.30799999993,
      "d": 476.18900000001304,
      "v": 73
    },
    {
      "midi": 58,
      "hit": false,
      "t": 177142.30799999993,
      "d": 488.5897552083479,
      "v": 64
    },
    {
      "midi": 46,
      "hit": false,
      "t": 177142.30799999993,
      "d": 510.9111145833449,
      "v": 73
    },
    {
      "midi": 53,
      "hit": false,
      "t": 177618.49699999994,
      "d": 146.32891145834583,
      "v": 52
    },
    {
      "midi": 65,
      "hit": false,
      "t": 178094.68599999996,
      "d": 186.01132812499418,
      "v": 82
    },
    {
      "midi": 53,
      "hit": false,
      "t": 178570.87499999994,
      "d": 151.28921354166232,
      "v": 56
    },
    {
      "midi": 60,
      "hit": false,
      "t": 179047.06399999993,
      "d": 468.74854687499464,
      "v": 64
    },
    {
      "midi": 50,
      "hit": false,
      "t": 179047.06399999993,
      "d": 503.4706614583265,
      "v": 73
    },
    {
      "midi": 57,
      "hit": false,
      "t": 179047.06399999993,
      "d": 510.9111145833158,
      "v": 73
    },
    {
      "midi": 53,
      "hit": false,
      "t": 179523.2529999999,
      "d": 233.13419791666092,
      "v": 52
    },
    {
      "midi": 65,
      "hit": false,
      "t": 179999.4419999999,
      "d": 255.4555572916579,
      "v": 82
    },
    {
      "midi": 53,
      "hit": false,
      "t": 180475.63099999988,
      "d": 151.28921354166232,
      "v": 48
    },
    {
      "midi": 48,
      "hit": false,
      "t": 180951.81999999986,
      "d": 3809.511999999988,
      "v": 73
    },
    {
      "midi": 55,
      "hit": false,
      "t": 181428.00899999987,
      "d": 233.13419791666092,
      "v": 40
    },
    {
      "midi": 65,
      "hit": false,
      "t": 181904.19799999986,
      "d": 151.28921354166232,
      "v": 82
    },
    {
      "midi": 55,
      "hit": false,
      "t": 182380.38699999984,
      "d": 106.64649479166837,
      "v": 56
    },
    {
      "midi": 63,
      "hit": false,
      "t": 182856.57599999986,
      "d": 448.90733854167047,
      "v": 64
    },
    {
      "midi": 58,
      "hit": false,
      "t": 182856.57599999986,
      "d": 473.70884895834024,
      "v": 64
    },
    {
      "midi": 55,
      "hit": false,
      "t": 183332.76499999987,
      "d": 173.6105729166593,
      "v": 52
    },
    {
      "midi": 65,
      "hit": false,
      "t": 183808.95399999985,
      "d": 190.97163020833977,
      "v": 82
    },
    {
      "midi": 55,
      "hit": false,
      "t": 184285.14299999987,
      "d": 91.76558854166069,
      "v": 60
    },
    {
      "midi": 41,
      "hit": false,
      "t": 184761.33199999985,
      "d": 3809.511999999988,
      "v": 73
    },
    {
      "midi": 41,
      "hit": false,
      "t": 184761.33199999994,
      "d": 153.76936458333512,
      "v": 66
    },
    {
      "midi": 55,
      "hit": false,
      "t": 185237.52099999986,
      "d": 233.13419791666092,
      "v": 40
    },
    {
      "midi": 65,
      "hit": false,
      "t": 185713.70999999985,
      "d": 151.28921354166232,
      "v": 82
    },
    {
      "midi": 55,
      "hit": false,
      "t": 186189.89899999983,
      "d": 106.64649479166837,
      "v": 56
    },
    {
      "midi": 63,
      "hit": false,
      "t": 186666.08799999984,
      "d": 448.90733854167047,
      "v": 64
    },
    {
      "midi": 58,
      "hit": false,
      "t": 186666.08799999984,
      "d": 473.70884895834024,
      "v": 64
    },
    {
      "midi": 55,
      "hit": false,
      "t": 187142.27699999986,
      "d": 173.6105729166593,
      "v": 52
    },
    {
      "midi": 65,
      "hit": false,
      "t": 187618.46599999984,
      "d": 190.97163020833977,
      "v": 82
    },
    {
      "midi": 55,
      "hit": false,
      "t": 188094.65499999985,
      "d": 91.76558854166069,
      "v": 60
    },
    {
      "midi": 46,
      "hit": false,
      "t": 188422.03493749985,
      "d": 3948.4004583333153,
      "v": 82
    },
    {
      "midi": 58,
      "hit": false,
      "t": 188459.23720312485,
      "d": 151.28921354166232,
      "v": 60
    },
    {
      "midi": 62,
      "hit": false,
      "t": 188513.8005260415,
      "d": 3804.5516979166714,
      "v": 64
    },
    {
      "midi": 41,
      "hit": false,
      "t": 188570.84399999992,
      "d": 153.76936458333512,
      "v": 66
    },
    {
      "midi": 65,
      "hit": false,
      "t": 188585.72490624984,
      "d": 3745.0280729166698,
      "v": 73
    },
    {
      "midi": 70,
      "hit": false,
      "t": 188707.25230729152,
      "d": 3633.421276041656,
      "v": 73
    }
  ]
}