{
  "jsonPath": "Rock/Alternative Rock/Kaiser Chiefs/i-predict-a-riot.json",
  "path": "Rock\\Alternative Rock\\Kaiser Chiefs\\I Predict A Riot.mid",
  "name": "I Predict A Riot",
  "difficulty": "Advanced",
  "bpm": 156.00056160202178,
  "notes": [
    {
      "midi": 36,
      "hit": false,
      "t": 18461.471999999998,
      "d": 96.15350000000035,
      "v": 102
    },
    {
      "midi": 36,
      "hit": false,
      "t": 18653.779,
      "d": 96.15350000000035,
      "v": 101
    },
    {
      "midi": 36,
      "hit": false,
      "t": 18846.086,
      "d": 92.1471041666664,
      "v": 101
    },
    {
      "midi": 36,
      "hit": false,
      "t": 19038.393,
      "d": 96.15350000000035,
      "v": 118
    },
    {
      "midi": 36,
      "hit": false,
      "t": 19230.7,
      "d": 96.15350000000035,
      "v": 116
    },
    {
      "midi": 36,
      "hit": false,
      "t": 19423.007,
      "d": 96.15350000000035,
      "v": 111
    },
    {
      "midi": 36,
      "hit": false,
      "t": 19615.314000000002,
      "d": 96.15350000000035,
      "v": 102
    },
    {
      "midi": 36,
      "hit": false,
      "t": 19807.621000000003,
      "d": 96.15350000000035,
      "v": 116
    },
    {
      "midi": 39,
      "hit": false,
      "t": 19999.928000000004,
      "d": 92.1471041666664,
      "v": 117
    },
    {
      "midi": 39,
      "hit": false,
      "t": 20192.235000000004,
      "d": 92.1471041666664,
      "v": 111
    },
    {
      "midi": 39,
      "hit": false,
      "t": 20384.542000000005,
      "d": 96.15350000000035,
      "v": 120
    },
    {
      "midi": 39,
      "hit": false,
      "t": 20572.84260416667,
      "d": 96.15350000000035,
      "v": 100
    },
    {
      "midi": 38,
      "hit": false,
      "t": 20765.149604166672,
      "d": 96.15350000000035,
      "v": 109
    },
    {
      "midi": 38,
      "hit": false,
      "t": 20957.456604166673,
      "d": 96.15350000000035,
      "v": 112
    },
    {
      "midi": 38,
      "hit": false,
      "t": 21149.763604166674,
      "d": 96.15350000000035,
      "v": 112
    },
    {
      "midi": 38,
      "hit": false,
      "t": 21342.070604166674,
      "d": 96.15350000000035,
      "v": 105
    },
    {
      "midi": 36,
      "hit": false,
      "t": 21538.38400000001,
      "d": 96.15350000000035,
      "v": 109
    },
    {
      "midi": 36,
      "hit": false,
      "t": 21730.69100000001,
      "d": 96.15350000000035,
      "v": 102
    },
    {
      "midi": 36,
      "hit": false,
      "t": 21922.99800000001,
      "d": 92.1471041666664,
      "v": 114
    },
    {
      "midi": 36,
      "hit": false,
      "t": 22115.30500000001,
      "d": 96.15350000000035,
      "v": 101
    },
    {
      "midi": 36,
      "hit": false,
      "t": 22307.612000000012,
      "d": 96.15350000000035,
      "v": 110
    },
    {
      "midi": 36,
      "hit": false,
      "t": 22499.919000000013,
      "d": 96.15350000000035,
      "v": 104
    },
    {
      "midi": 36,
      "hit": false,
      "t": 22692.226000000013,
      "d": 96.15350000000035,
      "v": 105
    },
    {
      "midi": 36,
      "hit": false,
      "t": 22884.533000000014,
      "d": 96.15350000000035,
      "v": 107
    },
    {
      "midi": 39,
      "hit": false,
      "t": 23076.840000000015,
      "d": 92.1471041666664,
      "v": 116
    },
    {
      "midi": 39,
      "hit": false,
      "t": 23269.147000000015,
      "d": 92.1471041666664,
      "v": 100
    },
    {
      "midi": 39,
      "hit": false,
      "t": 23461.454000000016,
      "d": 96.15350000000035,
      "v": 107
    },
    {
      "midi": 39,
      "hit": false,
      "t": 23649.754604166683,
      "d": 96.15350000000035,
      "v": 121
    },
    {
      "midi": 38,
      "hit": false,
      "t": 23842.061604166684,
      "d": 96.15350000000035,
      "v": 102
    },
    {
      "midi": 38,
      "hit": false,
      "t": 24034.368604166684,
      "d": 96.15350000000035,
      "v": 102
    },
    {
      "midi": 38,
      "hit": false,
      "t": 24226.675604166685,
      "d": 96.15350000000035,
      "v": 102
    },
    {
      "midi": 38,
      "hit": false,
      "t": 24418.982604166686,
      "d": 96.15350000000035,
      "v": 119
    },
    {
      "midi": 44,
      "hit": false,
      "t": 24615.29600000002,
      "d": 96.15350000000035,
      "v": 110
    },
    {
      "midi": 44,
      "hit": false,
      "t": 24807.60300000002,
      "d": 96.15350000000035,
      "v": 113
    },
    {
      "midi": 44,
      "hit": false,
      "t": 24999.91000000002,
      "d": 96.15350000000035,
      "v": 117
    },
    {
      "midi": 44,
      "hit": false,
      "t": 25192.217000000022,
      "d": 96.15350000000035,
      "v": 112
    },
    {
      "midi": 44,
      "hit": false,
      "t": 25384.524000000023,
      "d": 96.15350000000035,
      "v": 114
    },
    {
      "midi": 44,
      "hit": false,
      "t": 25576.831000000024,
      "d": 92.1471041666664,
      "v": 101
    },
    {
      "midi": 44,
      "hit": false,
      "t": 25765.13160416669,
      "d": 96.15350000000035,
      "v": 115
    },
    {
      "midi": 44,
      "hit": false,
      "t": 25961.445000000025,
      "d": 92.1471041666664,
      "v": 110
    },
    {
      "midi": 43,
      "hit": false,
      "t": 26153.752000000026,
      "d": 96.15350000000035,
      "v": 113
    },
    {
      "midi": 43,
      "hit": false,
      "t": 26346.059000000027,
      "d": 96.15350000000035,
      "v": 115
    },
    {
      "midi": 43,
      "hit": false,
      "t": 26538.366000000027,
      "d": 96.15350000000035,
      "v": 106
    },
    {
      "midi": 43,
      "hit": false,
      "t": 26730.673000000028,
      "d": 96.15350000000035,
      "v": 101
    },
    {
      "midi": 43,
      "hit": false,
      "t": 26918.973604166695,
      "d": 96.15350000000035,
      "v": 111
    },
    {
      "midi": 43,
      "hit": false,
      "t": 27111.280604166695,
      "d": 96.15350000000035,
      "v": 100
    },
    {
      "midi": 43,
      "hit": false,
      "t": 27303.587604166696,
      "d": 96.15350000000035,
      "v": 102
    },
    {
      "midi": 43,
      "hit": false,
      "t": 27495.894604166697,
      "d": 96.15350000000035,
      "v": 111
    },
    {
      "midi": 41,
      "hit": false,
      "t": 27692.20800000003,
      "d": 96.15350000000035,
      "v": 114
    },
    {
      "midi": 41,
      "hit": false,
      "t": 27884.515000000032,
      "d": 96.15350000000035,
      "v": 106
    },
    {
      "midi": 41,
      "hit": false,
      "t": 28076.822000000033,
      "d": 96.15350000000035,
      "v": 109
    },
    {
      "midi": 41,
      "hit": false,
      "t": 28269.129000000034,
      "d": 92.1471041666664,
      "v": 115
    },
    {
      "midi": 41,
      "hit": false,
      "t": 28461.436000000034,
      "d": 92.1471041666664,
      "v": 116
    },
    {
      "midi": 41,
      "hit": false,
      "t": 28653.743000000035,
      "d": 92.1471041666664,
      "v": 118
    },
    {
      "midi": 41,
      "hit": false,
      "t": 28846.050000000036,
      "d": 92.1471041666664,
      "v": 119
    },
    {
      "midi": 41,
      "hit": false,
      "t": 29038.357000000036,
      "d": 92.1471041666664,
      "v": 116
    },
    {
      "midi": 39,
      "hit": false,
      "t": 29226.657604166703,
      "d": 96.15350000000035,
      "v": 100
    },
    {
      "midi": 39,
      "hit": false,
      "t": 29418.964604166704,
      "d": 96.15350000000035,
      "v": 115
    },
    {
      "midi": 39,
      "hit": false,
      "t": 29611.271604166704,
      "d": 96.15350000000035,
      "v": 121
    },
    {
      "midi": 39,
      "hit": false,
      "t": 29803.578604166705,
      "d": 96.15350000000035,
      "v": 106
    },
    {
      "midi": 38,
      "hit": false,
      "t": 29995.885604166706,
      "d": 96.15350000000035,
      "v": 106
    },
    {
      "midi": 38,
      "hit": false,
      "t": 30188.192604166707,
      "d": 96.15350000000035,
      "v": 107
    },
    {
      "midi": 38,
      "hit": false,
      "t": 30380.499604166707,
      "d": 96.15350000000035,
      "v": 106
    },
    {
      "midi": 38,
      "hit": false,
      "t": 30572.806604166708,
      "d": 96.15350000000035,
      "v": 118
    },
    {
      "midi": 36,
      "hit": false,
      "t": 30769.120000000043,
      "d": 96.15350000000035,
      "v": 107
    },
    {
      "midi": 36,
      "hit": false,
      "t": 30961.427000000043,
      "d": 96.15350000000035,
      "v": 101
    },
    {
      "midi": 36,
      "hit": false,
      "t": 31145.721208333376,
      "d": 96.15350000000035,
      "v": 114
    },
    {
      "midi": 36,
      "hit": false,
      "t": 31338.028208333377,
      "d": 96.15350000000035,
      "v": 114
    },
    {
      "midi": 36,
      "hit": false,
      "t": 31538.348000000045,
      "d": 96.15350000000035,
      "v": 115
    },
    {
      "midi": 36,
      "hit": false,
      "t": 31730.655000000046,
      "d": 96.15350000000035,
      "v": 101
    },
    {
      "midi": 36,
      "hit": false,
      "t": 31914.94920833338,
      "d": 96.15350000000035,
      "v": 118
    },
    {
      "midi": 36,
      "hit": false,
      "t": 32107.25620833338,
      "d": 96.15350000000035,
      "v": 114
    },
    {
      "midi": 36,
      "hit": false,
      "t": 32307.57600000005,
      "d": 96.15350000000035,
      "v": 114
    },
    {
      "midi": 36,
      "hit": false,
      "t": 32499.88300000005,
      "d": 96.15350000000035,
      "v": 111
    },
    {
      "midi": 36,
      "hit": false,
      "t": 32684.17720833338,
      "d": 96.15349999999671,
      "v": 118
    },
    {
      "midi": 36,
      "hit": false,
      "t": 32876.48420833338,
      "d": 96.15350000000035,
      "v": 121
    },
    {
      "midi": 36,
      "hit": false,
      "t": 33076.80400000005,
      "d": 92.1471041666664,
      "v": 111
    },
    {
      "midi": 36,
      "hit": false,
      "t": 33269.11100000005,
      "d": 92.1471041666664,
      "v": 108
    },
    {
      "midi": 36,
      "hit": false,
      "t": 33453.40520833338,
      "d": 92.1471041666664,
      "v": 102
    },
    {
      "midi": 36,
      "hit": false,
      "t": 33645.71220833338,
      "d": 92.1471041666664,
      "v": 111
    },
    {
      "midi": 39,
      "hit": false,
      "t": 33846.03200000005,
      "d": 92.1471041666664,
      "v": 117
    },
    {
      "midi": 39,
      "hit": false,
      "t": 34034.33260416672,
      "d": 96.15350000000035,
      "v": 112
    },
    {
      "midi": 39,
      "hit": false,
      "t": 34226.63960416672,
      "d": 92.1471041666664,
      "v": 113
    },
    {
      "midi": 39,
      "hit": false,
      "t": 34414.940208333384,
      "d": 96.15350000000035,
      "v": 117
    },
    {
      "midi": 39,
      "hit": false,
      "t": 34611.25360416672,
      "d": 96.15350000000035,
      "v": 112
    },
    {
      "midi": 39,
      "hit": false,
      "t": 34807.567000000054,
      "d": 92.1471041666664,
      "v": 101
    },
    {
      "midi": 39,
      "hit": false,
      "t": 34991.86120833339,
      "d": 96.15350000000035,
      "v": 113
    },
    {
      "midi": 39,
      "hit": false,
      "t": 35188.17460416672,
      "d": 92.1471041666664,
      "v": 120
    },
    {
      "midi": 41,
      "hit": false,
      "t": 35384.488000000056,
      "d": 92.1471041666664,
      "v": 114
    },
    {
      "midi": 41,
      "hit": false,
      "t": 35576.79500000006,
      "d": 92.1471041666664,
      "v": 105
    },
    {
      "midi": 41,
      "hit": false,
      "t": 35765.09560416672,
      "d": 92.1471041666664,
      "v": 116
    },
    {
      "midi": 41,
      "hit": false,
      "t": 35957.402604166724,
      "d": 92.1471041666664,
      "v": 104
    },
    {
      "midi": 41,
      "hit": false,
      "t": 36153.71600000006,
      "d": 96.15350000000035,
      "v": 101
    },
    {
      "midi": 41,
      "hit": false,
      "t": 36346.02300000006,
      "d": 96.15350000000035,
      "v": 103
    },
    {
      "midi": 41,
      "hit": false,
      "t": 36534.323604166726,
      "d": 96.15350000000035,
      "v": 104
    },
    {
      "midi": 41,
      "hit": false,
      "t": 36726.63060416673,
      "d": 96.15350000000035,
      "v": 116
    },
    {
      "midi": 36,
      "hit": false,
      "t": 36922.94400000006,
      "d": 96.15350000000035,
      "v": 111
    },
    {
      "midi": 36,
      "hit": false,
      "t": 37115.25100000006,
      "d": 96.15350000000035,
      "v": 102
    },
    {
      "midi": 36,
      "hit": false,
      "t": 37299.545208333395,
      "d": 96.15350000000035,
      "v": 104
    },
    {
      "midi": 36,
      "hit": false,
      "t": 37491.852208333396,
      "d": 96.15350000000035,
      "v": 113
    },
    {
      "midi": 36,
      "hit": false,
      "t": 37692.172000000064,
      "d": 96.15350000000035,
      "v": 119
    },
    {
      "midi": 36,
      "hit": false,
      "t": 37884.479000000065,
      "d": 96.15350000000035,
      "v": 104
    },
    {
      "midi": 36,
      "hit": false,
      "t": 38068.7732083334,
      "d": 96.15350000000035,
      "v": 116
    },
    {
      "midi": 36,
      "hit": false,
      "t": 38261.0802083334,
      "d": 96.15350000000035,
      "v": 103
    },
    {
      "midi": 36,
      "hit": false,
      "t": 38461.40000000007,
      "d": 96.15350000000035,
      "v": 114
    },
    {
      "midi": 36,
      "hit": false,
      "t": 38653.70700000007,
      "d": 96.15350000000035,
      "v": 108
    },
    {
      "midi": 36,
      "hit": false,
      "t": 38838.0012083334,
      "d": 96.15350000000035,
      "v": 119
    },
    {
      "midi": 36,
      "hit": false,
      "t": 39030.3082083334,
      "d": 96.15350000000035,
      "v": 107
    },
    {
      "midi": 36,
      "hit": false,
      "t": 39230.62800000007,
      "d": 92.1471041666664,
      "v": 102
    },
    {
      "midi": 36,
      "hit": false,
      "t": 39422.93500000007,
      "d": 92.1471041666664,
      "v": 100
    },
    {
      "midi": 36,
      "hit": false,
      "t": 39607.2292083334,
      "d": 92.1471041666664,
      "v": 101
    },
    {
      "midi": 36,
      "hit": false,
      "t": 39799.536208333404,
      "d": 92.1471041666664,
      "v": 119
    },
    {
      "midi": 39,
      "hit": false,
      "t": 39999.85600000007,
      "d": 92.1471041666664,
      "v": 104
    },
    {
      "midi": 39,
      "hit": false,
      "t": 40188.15660416674,
      "d": 96.15350000000035,
      "v": 100
    },
    {
      "midi": 39,
      "hit": false,
      "t": 40380.46360416674,
      "d": 92.1471041666664,
      "v": 108
    },
    {
      "midi": 39,
      "hit": false,
      "t": 40568.76420833341,
      "d": 96.15350000000035,
      "v": 101
    },
    {
      "midi": 39,
      "hit": false,
      "t": 40765.07760416674,
      "d": 96.15350000000035,
      "v": 110
    },
    {
      "midi": 39,
      "hit": false,
      "t": 40961.391000000076,
      "d": 92.1471041666664,
      "v": 115
    },
    {
      "midi": 39,
      "hit": false,
      "t": 41145.68520833341,
      "d": 96.15350000000035,
      "v": 119
    },
    {
      "midi": 39,
      "hit": false,
      "t": 41341.99860416674,
      "d": 92.1471041666664,
      "v": 102
    },
    {
      "midi": 41,
      "hit": false,
      "t": 41538.31200000008,
      "d": 92.1471041666664,
      "v": 102
    },
    {
      "midi": 41,
      "hit": false,
      "t": 41730.61900000008,
      "d": 92.1471041666664,
      "v": 103
    },
    {
      "midi": 41,
      "hit": false,
      "t": 41918.919604166746,
      "d": 92.1471041666664,
      "v": 117
    },
    {
      "midi": 41,
      "hit": false,
      "t": 42111.226604166746,
      "d": 92.1471041666664,
      "v": 116
    },
    {
      "midi": 41,
      "hit": false,
      "t": 42307.54000000008,
      "d": 96.15350000000035,
      "v": 105
    },
    {
      "midi": 41,
      "hit": false,
      "t": 42499.84700000008,
      "d": 96.15350000000035,
      "v": 117
    },
    {
      "midi": 41,
      "hit": false,
      "t": 42688.14760416675,
      "d": 96.15350000000035,
      "v": 104
    },
    {
      "midi": 41,
      "hit": false,
      "t": 42880.45460416675,
      "d": 96.15350000000035,
      "v": 113
    },
    {
      "midi": 36,
      "hit": false,
      "t": 43076.768000000084,
      "d": 96.15350000000035,
      "v": 107
    },
    {
      "midi": 36,
      "hit": false,
      "t": 43269.075000000084,
      "d": 96.15350000000035,
      "v": 104
    },
    {
      "midi": 36,
      "hit": false,
      "t": 43453.36920833342,
      "d": 96.15350000000035,
      "v": 110
    },
    {
      "midi": 36,
      "hit": false,
      "t": 43645.67620833342,
      "d": 96.15350000000035,
      "v": 101
    },
    {
      "midi": 36,
      "hit": false,
      "t": 43845.99600000009,
      "d": 96.15350000000035,
      "v": 102
    },
    {
      "midi": 36,
      "hit": false,
      "t": 44038.30300000009,
      "d": 96.15350000000035,
      "v": 108
    },
    {
      "midi": 36,
      "hit": false,
      "t": 44222.59720833342,
      "d": 96.15350000000035,
      "v": 115
    },
    {
      "midi": 36,
      "hit": false,
      "t": 44414.90420833342,
      "d": 96.15350000000035,
      "v": 107
    },
    {
      "midi": 36,
      "hit": false,
      "t": 44615.22400000009,
      "d": 96.15350000000035,
      "v": 108
    },
    {
      "midi": 36,
      "hit": false,
      "t": 44807.53100000009,
      "d": 96.15350000000035,
      "v": 110
    },
    {
      "midi": 36,
      "hit": false,
      "t": 44991.82520833342,
      "d": 96.15350000000035,
      "v": 107
    },
    {
      "midi": 36,
      "hit": false,
      "t": 45184.13220833342,
      "d": 96.15350000000035,
      "v": 112
    },
    {
      "midi": 36,
      "hit": false,
      "t": 45384.45200000009,
      "d": 92.1471041666664,
      "v": 112
    },
    {
      "midi": 36,
      "hit": false,
      "t": 45576.75900000009,
      "d": 92.1471041666664,
      "v": 121
    },
    {
      "midi": 36,
      "hit": false,
      "t": 45761.053208333426,
      "d": 92.1471041666664,
      "v": 109
    },
    {
      "midi": 36,
      "hit": false,
      "t": 45953.360208333426,
      "d": 92.1471041666664,
      "v": 104
    },
    {
      "midi": 39,
      "hit": false,
      "t": 46153.680000000095,
      "d": 92.1471041666664,
      "v": 112
    },
    {
      "midi": 39,
      "hit": false,
      "t": 46341.98060416676,
      "d": 96.15350000000035,
      "v": 119
    },
    {
      "midi": 39,
      "hit": false,
      "t": 46534.28760416676,
      "d": 92.1471041666664,
      "v": 100
    },
    {
      "midi": 39,
      "hit": false,
      "t": 46722.58820833343,
      "d": 96.15350000000035,
      "v": 116
    },
    {
      "midi": 39,
      "hit": false,
      "t": 46918.901604166764,
      "d": 96.15350000000035,
      "v": 113
    },
    {
      "midi": 39,
      "hit": false,
      "t": 47115.2150000001,
      "d": 92.1471041666664,
      "v": 115
    },
    {
      "midi": 39,
      "hit": false,
      "t": 47299.50920833343,
      "d": 96.15350000000035,
      "v": 114
    },
    {
      "midi": 39,
      "hit": false,
      "t": 47495.822604166766,
      "d": 92.1471041666664,
      "v": 100
    },
    {
      "midi": 41,
      "hit": false,
      "t": 47692.1360000001,
      "d": 92.1471041666664,
      "v": 119
    },
    {
      "midi": 41,
      "hit": false,
      "t": 47884.4430000001,
      "d": 92.1471041666664,
      "v": 115
    },
    {
      "midi": 41,
      "hit": false,
      "t": 48072.74360416677,
      "d": 92.1471041666664,
      "v": 120
    },
    {
      "midi": 41,
      "hit": false,
      "t": 48265.05060416677,
      "d": 92.1471041666664,
      "v": 108
    },
    {
      "midi": 41,
      "hit": false,
      "t": 48461.3640000001,
      "d": 96.15350000000035,
      "v": 114
    },
    {
      "midi": 41,
      "hit": false,
      "t": 48653.671000000104,
      "d": 96.15350000000035,
      "v": 103
    },
    {
      "midi": 41,
      "hit": false,
      "t": 48841.97160416677,
      "d": 96.15350000000035,
      "v": 120
    },
    {
      "midi": 41,
      "hit": false,
      "t": 49034.27860416677,
      "d": 96.15350000000035,
      "v": 117
    },
    {
      "midi": 36,
      "hit": false,
      "t": 49230.592000000106,
      "d": 96.15350000000035,
      "v": 107
    },
    {
      "midi": 36,
      "hit": false,
      "t": 49422.89900000011,
      "d": 96.15350000000035,
      "v": 100
    },
    {
      "midi": 36,
      "hit": false,
      "t": 49607.19320833344,
      "d": 96.15350000000035,
      "v": 108
    },
    {
      "midi": 36,
      "hit": false,
      "t": 49799.50020833344,
      "d": 96.15350000000035,
      "v": 109
    },
    {
      "midi": 36,
      "hit": false,
      "t": 49999.82000000011,
      "d": 96.15350000000035,
      "v": 109
    },
    {
      "midi": 36,
      "hit": false,
      "t": 50192.12700000011,
      "d": 96.15350000000035,
      "v": 120
    },
    {
      "midi": 36,
      "hit": false,
      "t": 50376.42120833344,
      "d": 96.15350000000035,
      "v": 105
    },
    {
      "midi": 36,
      "hit": false,
      "t": 50568.72820833344,
      "d": 96.15350000000035,
      "v": 103
    },
    {
      "midi": 36,
      "hit": false,
      "t": 50769.04800000011,
      "d": 96.15350000000035,
      "v": 100
    },
    {
      "midi": 36,
      "hit": false,
      "t": 50961.35500000011,
      "d": 96.15350000000035,
      "v": 115
    },
    {
      "midi": 36,
      "hit": false,
      "t": 51145.649208333445,
      "d": 96.15350000000035,
      "v": 103
    },
    {
      "midi": 36,
      "hit": false,
      "t": 51337.956208333446,
      "d": 96.15350000000035,
      "v": 100
    },
    {
      "midi": 36,
      "hit": false,
      "t": 51538.276000000114,
      "d": 92.1471041666664,
      "v": 100
    },
    {
      "midi": 36,
      "hit": false,
      "t": 51730.583000000115,
      "d": 92.1471041666664,
      "v": 103
    },
    {
      "midi": 36,
      "hit": false,
      "t": 51914.87720833345,
      "d": 92.1471041666664,
      "v": 100
    },
    {
      "midi": 36,
      "hit": false,
      "t": 52107.18420833345,
      "d": 92.1471041666664,
      "v": 110
    },
    {
      "midi": 39,
      "hit": false,
      "t": 52307.50400000012,
      "d": 92.1471041666664,
      "v": 105
    },
    {
      "midi": 39,
      "hit": false,
      "t": 52495.804604166784,
      "d": 96.15350000000035,
      "v": 111
    },
    {
      "midi": 39,
      "hit": false,
      "t": 52688.111604166785,
      "d": 92.1471041666664,
      "v": 112
    },
    {
      "midi": 39,
      "hit": false,
      "t": 52876.41220833345,
      "d": 96.15350000000035,
      "v": 120
    },
    {
      "midi": 39,
      "hit": false,
      "t": 53072.725604166786,
      "d": 96.15350000000035,
      "v": 105
    },
    {
      "midi": 39,
      "hit": false,
      "t": 53269.03900000012,
      "d": 92.1471041666664,
      "v": 108
    },
    {
      "midi": 39,
      "hit": false,
      "t": 53453.33320833345,
      "d": 96.15350000000035,
      "v": 102
    },
    {
      "midi": 39,
      "hit": false,
      "t": 53649.64660416679,
      "d": 92.1471041666664,
      "v": 101
    },
    {
      "midi": 41,
      "hit": false,
      "t": 53845.96000000012,
      "d": 92.1471041666664,
      "v": 115
    },
    {
      "midi": 41,
      "hit": false,
      "t": 54038.26700000012,
      "d": 92.1471041666664,
      "v": 118
    },
    {
      "midi": 41,
      "hit": false,
      "t": 54226.56760416679,
      "d": 92.1471041666664,
      "v": 108
    },
    {
      "midi": 41,
      "hit": false,
      "t": 54418.87460416679,
      "d": 92.1471041666664,
      "v": 107
    },
    {
      "midi": 41,
      "hit": false,
      "t": 54615.188000000126,
      "d": 96.15350000000035,
      "v": 104
    },
    {
      "midi": 41,
      "hit": false,
      "t": 54807.495000000126,
      "d": 96.15350000000035,
      "v": 106
    },
    {
      "midi": 41,
      "hit": false,
      "t": 54995.79560416679,
      "d": 96.15350000000035,
      "v": 101
    },
    {
      "midi": 41,
      "hit": false,
      "t": 55188.102604166794,
      "d": 96.15350000000035,
      "v": 117
    },
    {
      "midi": 60,
      "hit": false,
      "t": 55384.41600000013,
      "d": 981.566979166666,
      "v": 104
    },
    {
      "midi": 48,
      "hit": false,
      "t": 55384.41600000013,
      "d": 1005.6053541666624,
      "v": 116
    },
    {
      "midi": 48,
      "hit": false,
      "t": 56534.25160416679,
      "d": 196.31339583333465,
      "v": 103
    },
    {
      "midi": 60,
      "hit": false,
      "t": 56534.25160416679,
      "d": 212.33897916667047,
      "v": 115
    },
    {
      "midi": 59,
      "hit": false,
      "t": 56922.87200000013,
      "d": 1045.669312500002,
      "v": 100
    },
    {
      "midi": 47,
      "hit": false,
      "t": 56922.87200000013,
      "d": 1049.675708333336,
      "v": 112
    },
    {
      "midi": 47,
      "hit": false,
      "t": 58076.71400000013,
      "d": 232.37095833333296,
      "v": 116
    },
    {
      "midi": 59,
      "hit": false,
      "t": 58076.71400000013,
      "d": 232.37095833333296,
      "v": 103
    },
    {
      "midi": 58,
      "hit": false,
      "t": 58461.32800000013,
      "d": 961.5350000000035,
      "v": 104
    },
    {
      "midi": 46,
      "hit": false,
      "t": 58461.32800000013,
      "d": 973.5541875000054,
      "v": 121
    },
    {
      "midi": 46,
      "hit": false,
      "t": 59615.17000000014,
      "d": 216.34537499999715,
      "v": 117
    },
    {
      "midi": 58,
      "hit": false,
      "t": 59615.17000000014,
      "d": 216.34537499999715,
      "v": 106
    },
    {
      "midi": 53,
      "hit": false,
      "t": 59999.78400000013,
      "d": 865.3815000000031,
      "v": 100
    },
    {
      "midi": 41,
      "hit": false,
      "t": 59999.78400000013,
      "d": 905.4454583333354,
      "v": 113
    },
    {
      "midi": 41,
      "hit": false,
      "t": 61153.626000000135,
      "d": 192.3070000000007,
      "v": 113
    },
    {
      "midi": 53,
      "hit": false,
      "t": 61153.626000000135,
      "d": 192.3070000000007,
      "v": 120
    },
    {
      "midi": 60,
      "hit": false,
      "t": 61538.240000000136,
      "d": 981.566979166666,
      "v": 109
    },
    {
      "midi": 48,
      "hit": false,
      "t": 61538.240000000136,
      "d": 1005.6053541666624,
      "v": 113
    },
    {
      "midi": 48,
      "hit": false,
      "t": 62688.0756041668,
      "d": 196.31339583333465,
      "v": 101
    },
    {
      "midi": 60,
      "hit": false,
      "t": 62688.0756041668,
      "d": 212.33897916667047,
      "v": 114
    },
    {
      "midi": 59,
      "hit": false,
      "t": 63076.696000000135,
      "d": 1045.669312500002,
      "v": 114
    },
    {
      "midi": 47,
      "hit": false,
      "t": 63076.696000000135,
      "d": 1049.675708333336,
      "v": 113
    },
    {
      "midi": 47,
      "hit": false,
      "t": 64230.53800000014,
      "d": 232.37095833333296,
      "v": 119
    },
    {
      "midi": 59,
      "hit": false,
      "t": 64230.53800000014,
      "d": 232.37095833333296,
      "v": 102
    },
    {
      "midi": 58,
      "hit": false,
      "t": 64615.15200000014,
      "d": 961.5349999999962,
      "v": 102
    },
    {
      "midi": 46,
      "hit": false,
      "t": 64615.15200000014,
      "d": 973.5541874999981,
      "v": 100
    },
    {
      "midi": 46,
      "hit": false,
      "t": 65768.99400000014,
      "d": 216.34537500000442,
      "v": 119
    },
    {
      "midi": 58,
      "hit": false,
      "t": 65768.99400000014,
      "d": 216.34537500000442,
      "v": 113
    },
    {
      "midi": 41,
      "hit": false,
      "t": 66153.60800000014,
      "d": 476.7611041666678,
      "v": 108
    },
    {
      "midi": 53,
      "hit": false,
      "t": 66153.60800000014,
      "d": 476.7611041666678,
      "v": 100
    },
    {
      "midi": 41,
      "hit": false,
      "t": 66730.52900000014,
      "d": 60.09593749999476,
      "v": 109
    },
    {
      "midi": 53,
      "hit": false,
      "t": 66730.52900000014,
      "d": 64.10233333332872,
      "v": 102
    },
    {
      "midi": 41,
      "hit": false,
      "t": 66922.83600000014,
      "d": 400.6395833333372,
      "v": 111
    },
    {
      "midi": 53,
      "hit": false,
      "t": 66922.83600000014,
      "d": 400.6395833333372,
      "v": 102
    },
    {
      "midi": 41,
      "hit": false,
      "t": 67499.75700000014,
      "d": 204.32618750000256,
      "v": 114
    },
    {
      "midi": 53,
      "hit": false,
      "t": 67499.75700000014,
      "d": 208.33258333333652,
      "v": 119
    },
    {
      "midi": 53,
      "hit": false,
      "t": 67884.37100000014,
      "d": 220.35177083333838,
      "v": 111
    },
    {
      "midi": 41,
      "hit": false,
      "t": 67884.37100000014,
      "d": 224.35816666667233,
      "v": 100
    },
    {
      "midi": 41,
      "hit": false,
      "t": 68268.98500000015,
      "d": 56.08954166666081,
      "v": 104
    },
    {
      "midi": 53,
      "hit": false,
      "t": 68268.98500000015,
      "d": 56.08954166666081,
      "v": 104
    },
    {
      "midi": 53,
      "hit": false,
      "t": 68461.29200000015,
      "d": 424.6779583333264,
      "v": 111
    },
    {
      "midi": 41,
      "hit": false,
      "t": 68461.29200000015,
      "d": 428.68435416666034,
      "v": 101
    },
    {
      "midi": 36,
      "hit": false,
      "t": 81538.16800000014,
      "d": 96.15350000000035,
      "v": 120
    },
    {
      "midi": 36,
      "hit": false,
      "t": 81730.47500000014,
      "d": 96.15350000000035,
      "v": 112
    },
    {
      "midi": 36,
      "hit": false,
      "t": 81914.76920833347,
      "d": 96.15350000000035,
      "v": 111
    },
    {
      "midi": 36,
      "hit": false,
      "t": 82107.07620833347,
      "d": 96.15350000000035,
      "v": 117
    },
    {
      "midi": 36,
      "hit": false,
      "t": 82307.39600000014,
      "d": 96.15350000000035,
      "v": 100
    },
    {
      "midi": 36,
      "hit": false,
      "t": 82499.70300000014,
      "d": 96.15350000000035,
      "v": 114
    },
    {
      "midi": 36,
      "hit": false,
      "t": 82683.99720833347,
      "d": 96.15350000000035,
      "v": 100
    },
    {
      "midi": 36,
      "hit": false,
      "t": 82876.30420833347,
      "d": 96.15350000000035,
      "v": 101
    },
    {
      "midi": 36,
      "hit": false,
      "t": 83076.62400000014,
      "d": 96.15350000000035,
      "v": 112
    },
    {
      "midi": 36,
      "hit": false,
      "t": 83268.93100000014,
      "d": 96.15350000000035,
      "v": 113
    },
    {
      "midi": 36,
      "hit": false,
      "t": 83453.22520833348,
      "d": 96.15350000000035,
      "v": 109
    },
    {
      "midi": 36,
      "hit": false,
      "t": 83645.53220833348,
      "d": 96.15350000000035,
      "v": 114
    },
    {
      "midi": 36,
      "hit": false,
      "t": 83845.85200000014,
      "d": 92.1471041666664,
      "v": 100
    },
    {
      "midi": 36,
      "hit": false,
      "t": 84038.15900000015,
      "d": 92.1471041666664,
      "v": 117
    },
    {
      "midi": 36,
      "hit": false,
      "t": 84222.45320833348,
      "d": 92.1471041666664,
      "v": 115
    },
    {
      "midi": 36,
      "hit": false,
      "t": 84414.76020833348,
      "d": 92.1471041666664,
      "v": 114
    },
    {
      "midi": 39,
      "hit": false,
      "t": 84615.08000000015,
      "d": 92.1471041666664,
      "v": 111
    },
    {
      "midi": 39,
      "hit": false,
      "t": 84803.38060416681,
      "d": 96.15350000000035,
      "v": 103
    },
    {
      "midi": 39,
      "hit": false,
      "t": 84995.68760416681,
      "d": 92.1471041666664,
      "v": 102
    },
    {
      "midi": 39,
      "hit": false,
      "t": 85183.98820833348,
      "d": 96.15350000000035,
      "v": 103
    },
    {
      "midi": 39,
      "hit": false,
      "t": 85380.30160416682,
      "d": 96.15350000000035,
      "v": 107
    },
    {
      "midi": 39,
      "hit": false,
      "t": 85576.61500000015,
      "d": 92.1471041666664,
      "v": 102
    },
    {
      "midi": 39,
      "hit": false,
      "t": 85760.90920833348,
      "d": 96.15350000000035,
      "v": 104
    },
    {
      "midi": 39,
      "hit": false,
      "t": 85957.22260416682,
      "d": 92.1471041666664,
      "v": 121
    },
    {
      "midi": 41,
      "hit": false,
      "t": 86153.53600000015,
      "d": 92.1471041666664,
      "v": 104
    },
    {
      "midi": 41,
      "hit": false,
      "t": 86345.84300000015,
      "d": 92.1471041666664,
      "v": 112
    },
    {
      "midi": 41,
      "hit": false,
      "t": 86534.14360416682,
      "d": 92.1471041666664,
      "v": 119
    },
    {
      "midi": 41,
      "hit": false,
      "t": 86726.45060416682,
      "d": 92.1471041666664,
      "v": 105
    },
    {
      "midi": 41,
      "hit": false,
      "t": 86922.76400000016,
      "d": 96.15350000000035,
      "v": 108
    },
    {
      "midi": 41,
      "hit": false,
      "t": 87115.07100000016,
      "d": 96.15350000000035,
      "v": 104
    },
    {
      "midi": 41,
      "hit": false,
      "t": 87303.37160416682,
      "d": 96.15350000000035,
      "v": 105
    },
    {
      "midi": 41,
      "hit": false,
      "t": 87495.67860416682,
      "d": 96.15350000000035,
      "v": 100
    },
    {
      "midi": 36,
      "hit": false,
      "t": 87691.99200000016,
      "d": 96.15350000000035,
      "v": 102
    },
    {
      "midi": 36,
      "hit": false,
      "t": 87884.29900000016,
      "d": 96.15350000000035,
      "v": 117
    },
    {
      "midi": 36,
      "hit": false,
      "t": 88068.59320833349,
      "d": 96.15350000000035,
      "v": 119
    },
    {
      "midi": 36,
      "hit": false,
      "t": 88260.90020833349,
      "d": 96.15350000000035,
      "v": 108
    },
    {
      "midi": 36,
      "hit": false,
      "t": 88461.22000000016,
      "d": 96.15350000000035,
      "v": 100
    },
    {
      "midi": 36,
      "hit": false,
      "t": 88653.52700000016,
      "d": 96.15350000000035,
      "v": 113
    },
    {
      "midi": 36,
      "hit": false,
      "t": 88837.8212083335,
      "d": 96.15350000000035,
      "v": 106
    },
    {
      "midi": 36,
      "hit": false,
      "t": 89030.1282083335,
      "d": 96.15350000000035,
      "v": 104
    },
    {
      "midi": 36,
      "hit": false,
      "t": 89230.44800000016,
      "d": 96.15350000000035,
      "v": 119
    },
    {
      "midi": 36,
      "hit": false,
      "t": 89422.75500000016,
      "d": 96.15350000000035,
      "v": 113
    },
    {
      "midi": 36,
      "hit": false,
      "t": 89607.0492083335,
      "d": 96.15350000000035,
      "v": 102
    },
    {
      "midi": 36,
      "hit": false,
      "t": 89799.3562083335,
      "d": 96.15350000000035,
      "v": 104
    },
    {
      "midi": 36,
      "hit": false,
      "t": 89999.67600000017,
      "d": 92.1471041666664,
      "v": 111
    },
    {
      "midi": 36,
      "hit": false,
      "t": 90191.98300000017,
      "d": 92.1471041666664,
      "v": 115
    },
    {
      "midi": 36,
      "hit": false,
      "t": 90376.2772083335,
      "d": 92.1471041666664,
      "v": 110
    },
    {
      "midi": 36,
      "hit": false,
      "t": 90568.5842083335,
      "d": 92.1471041666664,
      "v": 112
    },
    {
      "midi": 39,
      "hit": false,
      "t": 90768.90400000017,
      "d": 92.1471041666664,
      "v": 118
    },
    {
      "midi": 39,
      "hit": false,
      "t": 90957.20460416684,
      "d": 96.15350000000035,
      "v": 121
    },
    {
      "midi": 39,
      "hit": false,
      "t": 91149.51160416684,
      "d": 92.1471041666664,
      "v": 114
    },
    {
      "midi": 39,
      "hit": false,
      "t": 91337.8122083335,
      "d": 96.15350000000035,
      "v": 105
    },
    {
      "midi": 39,
      "hit": false,
      "t": 91534.12560416684,
      "d": 96.15350000000035,
      "v": 113
    },
    {
      "midi": 39,
      "hit": false,
      "t": 91730.43900000017,
      "d": 92.1471041666664,
      "v": 118
    },
    {
      "midi": 39,
      "hit": false,
      "t": 91914.7332083335,
      "d": 96.15350000000035,
      "v": 114
    },
    {
      "midi": 39,
      "hit": false,
      "t": 92111.04660416684,
      "d": 92.1471041666664,
      "v": 117
    },
    {
      "midi": 41,
      "hit": false,
      "t": 92307.36000000018,
      "d": 92.1471041666664,
      "v": 107
    },
    {
      "midi": 41,
      "hit": false,
      "t": 92499.66700000018,
      "d": 92.1471041666664,
      "v": 102
    },
    {
      "midi": 41,
      "hit": false,
      "t": 92687.96760416684,
      "d": 92.1471041666664,
      "v": 111
    },
    {
      "midi": 41,
      "hit": false,
      "t": 92880.27460416684,
      "d": 92.1471041666664,
      "v": 107
    },
    {
      "midi": 41,
      "hit": false,
      "t": 93076.58800000018,
      "d": 96.15350000000035,
      "v": 104
    },
    {
      "midi": 41,
      "hit": false,
      "t": 93268.89500000018,
      "d": 96.15350000000035,
      "v": 119
    },
    {
      "midi": 41,
      "hit": false,
      "t": 93457.19560416685,
      "d": 96.15350000000035,
      "v": 115
    },
    {
      "midi": 41,
      "hit": false,
      "t": 93649.50260416685,
      "d": 96.15350000000035,
      "v": 116
    },
    {
      "midi": 36,
      "hit": false,
      "t": 93845.81600000018,
      "d": 96.15350000000035,
      "v": 116
    },
    {
      "midi": 36,
      "hit": false,
      "t": 94038.12300000018,
      "d": 96.15350000000035,
      "v": 101
    },
    {
      "midi": 36,
      "hit": false,
      "t": 94222.41720833351,
      "d": 96.15350000000035,
      "v": 108
    },
    {
      "midi": 36,
      "hit": false,
      "t": 94414.72420833351,
      "d": 96.15350000000035,
      "v": 100
    },
    {
      "midi": 36,
      "hit": false,
      "t": 94615.04400000018,
      "d": 96.15350000000035,
      "v": 115
    },
    {
      "midi": 36,
      "hit": false,
      "t": 94807.35100000018,
      "d": 96.15350000000035,
      "v": 119
    },
    {
      "midi": 36,
      "hit": false,
      "t": 94991.64520833352,
      "d": 96.15350000000035,
      "v": 110
    },
    {
      "midi": 36,
      "hit": false,
      "t": 95183.95220833352,
      "d": 96.15350000000035,
      "v": 110
    },
    {
      "midi": 36,
      "hit": false,
      "t": 95384.27200000019,
      "d": 96.15350000000035,
      "v": 119
    },
    {
      "midi": 36,
      "hit": false,
      "t": 95576.57900000019,
      "d": 96.15350000000035,
      "v": 104
    },
    {
      "midi": 36,
      "hit": false,
      "t": 95760.87320833352,
      "d": 96.15350000000035,
      "v": 112
    },
    {
      "midi": 36,
      "hit": false,
      "t": 95953.18020833352,
      "d": 96.15350000000035,
      "v": 111
    },
    {
      "midi": 36,
      "hit": false,
      "t": 96153.50000000019,
      "d": 92.1471041666664,
      "v": 101
    },
    {
      "midi": 36,
      "hit": false,
      "t": 96345.80700000019,
      "d": 92.1471041666664,
      "v": 118
    },
    {
      "midi": 36,
      "hit": false,
      "t": 96530.10120833352,
      "d": 92.1471041666664,
      "v": 114
    },
    {
      "midi": 36,
      "hit": false,
      "t": 96722.40820833352,
      "d": 92.1471041666664,
      "v": 103
    },
    {
      "midi": 39,
      "hit": false,
      "t": 96922.72800000019,
      "d": 92.1471041666664,
      "v": 116
    },
    {
      "midi": 39,
      "hit": false,
      "t": 97111.02860416686,
      "d": 96.15350000000035,
      "v": 106
    },
    {
      "midi": 39,
      "hit": false,
      "t": 97303.33560416686,
      "d": 92.1471041666664,
      "v": 101
    },
    {
      "midi": 39,
      "hit": false,
      "t": 97491.63620833353,
      "d": 96.15350000000035,
      "v": 103
    },
    {
      "midi": 39,
      "hit": false,
      "t": 97687.94960416686,
      "d": 96.15350000000035,
      "v": 120
    },
    {
      "midi": 39,
      "hit": false,
      "t": 97884.2630000002,
      "d": 92.1471041666664,
      "v": 120
    },
    {
      "midi": 39,
      "hit": false,
      "t": 98068.55720833353,
      "d": 96.15350000000035,
      "v": 103
    },
    {
      "midi": 39,
      "hit": false,
      "t": 98264.87060416686,
      "d": 92.1471041666664,
      "v": 115
    },
    {
      "midi": 41,
      "hit": false,
      "t": 98461.1840000002,
      "d": 92.1471041666664,
      "v": 120
    },
    {
      "midi": 41,
      "hit": false,
      "t": 98653.4910000002,
      "d": 92.1471041666664,
      "v": 118
    },
    {
      "midi": 41,
      "hit": false,
      "t": 98841.79160416686,
      "d": 92.1471041666664,
      "v": 118
    },
    {
      "midi": 41,
      "hit": false,
      "t": 99034.09860416687,
      "d": 92.1471041666664,
      "v": 113
    },
    {
      "midi": 41,
      "hit": false,
      "t": 99230.4120000002,
      "d": 96.15350000000035,
      "v": 106
    },
    {
      "midi": 41,
      "hit": false,
      "t": 99422.7190000002,
      "d": 96.15350000000035,
      "v": 117
    },
    {
      "midi": 41,
      "hit": false,
      "t": 99611.01960416687,
      "d": 96.15350000000035,
      "v": 109
    },
    {
      "midi": 41,
      "hit": false,
      "t": 99803.32660416687,
      "d": 96.15350000000035,
      "v": 112
    },
    {
      "midi": 36,
      "hit": false,
      "t": 99999.6400000002,
      "d": 96.15350000000035,
      "v": 110
    },
    {
      "midi": 36,
      "hit": false,
      "t": 100191.9470000002,
      "d": 96.15350000000035,
      "v": 117
    },
    {
      "midi": 36,
      "hit": false,
      "t": 100376.24120833354,
      "d": 96.15350000000035,
      "v": 117
    },
    {
      "midi": 36,
      "hit": false,
      "t": 100568.54820833354,
      "d": 96.15350000000035,
      "v": 112
    },
    {
      "midi": 36,
      "hit": false,
      "t": 100768.8680000002,
      "d": 96.15350000000035,
      "v": 115
    },
    {
      "midi": 36,
      "hit": false,
      "t": 100961.1750000002,
      "d": 96.15350000000035,
      "v": 103
    },
    {
      "midi": 36,
      "hit": false,
      "t": 101145.46920833354,
      "d": 96.15350000000035,
      "v": 112
    },
    {
      "midi": 36,
      "hit": false,
      "t": 101337.77620833354,
      "d": 96.15350000000035,
      "v": 115
    },
    {
      "midi": 36,
      "hit": false,
      "t": 101538.09600000021,
      "d": 96.15350000000035,
      "v": 101
    },
    {
      "midi": 36,
      "hit": false,
      "t": 101730.40300000021,
      "d": 96.15350000000035,
      "v": 114
    },
    {
      "midi": 36,
      "hit": false,
      "t": 101914.69720833354,
      "d": 96.15350000000035,
      "v": 120
    },
    {
      "midi": 36,
      "hit": false,
      "t": 102107.00420833354,
      "d": 96.15350000000035,
      "v": 113
    },
    {
      "midi": 36,
      "hit": false,
      "t": 102307.32400000021,
      "d": 92.1471041666664,
      "v": 112
    },
    {
      "midi": 36,
      "hit": false,
      "t": 102499.63100000021,
      "d": 92.1471041666664,
      "v": 108
    },
    {
      "midi": 36,
      "hit": false,
      "t": 102683.92520833355,
      "d": 92.1471041666664,
      "v": 117
    },
    {
      "midi": 36,
      "hit": false,
      "t": 102876.23220833355,
      "d": 92.1471041666664,
      "v": 113
    },
    {
      "midi": 39,
      "hit": false,
      "t": 103076.55200000021,
      "d": 92.1471041666664,
      "v": 110
    },
    {
      "midi": 39,
      "hit": false,
      "t": 103264.85260416688,
      "d": 96.15350000000035,
      "v": 118
    },
    {
      "midi": 39,
      "hit": false,
      "t": 103457.15960416688,
      "d": 92.1471041666664,
      "v": 107
    },
    {
      "midi": 39,
      "hit": false,
      "t": 103645.46020833355,
      "d": 96.15350000000035,
      "v": 110
    },
    {
      "midi": 39,
      "hit": false,
      "t": 103841.77360416688,
      "d": 96.15350000000035,
      "v": 116
    },
    {
      "midi": 39,
      "hit": false,
      "t": 104038.08700000022,
      "d": 92.1471041666664,
      "v": 113
    },
    {
      "midi": 39,
      "hit": false,
      "t": 104222.38120833355,
      "d": 96.15350000000035,
      "v": 111
    },
    {
      "midi": 39,
      "hit": false,
      "t": 104418.69460416689,
      "d": 92.1471041666664,
      "v": 116
    },
    {
      "midi": 41,
      "hit": false,
      "t": 104615.00800000022,
      "d": 92.1471041666664,
      "v": 104
    },
    {
      "midi": 41,
      "hit": false,
      "t": 104807.31500000022,
      "d": 92.1471041666664,
      "v": 121
    },
    {
      "midi": 41,
      "hit": false,
      "t": 104995.61560416689,
      "d": 92.1471041666664,
      "v": 102
    },
    {
      "midi": 41,
      "hit": false,
      "t": 105187.92260416689,
      "d": 92.1471041666664,
      "v": 102
    },
    {
      "midi": 41,
      "hit": false,
      "t": 105384.23600000022,
      "d": 96.15350000000035,
      "v": 101
    },
    {
      "midi": 41,
      "hit": false,
      "t": 105576.54300000022,
      "d": 96.15350000000035,
      "v": 115
    },
    {
      "midi": 41,
      "hit": false,
      "t": 105764.84360416689,
      "d": 96.15350000000035,
      "v": 120
    },
    {
      "midi": 41,
      "hit": false,
      "t": 105957.15060416689,
      "d": 96.15350000000035,
      "v": 112
    },
    {
      "midi": 60,
      "hit": false,
      "t": 106153.46400000023,
      "d": 981.5669791666733,
      "v": 109
    },
    {
      "midi": 48,
      "hit": false,
      "t": 106153.46400000023,
      "d": 1005.605354166677,
      "v": 111
    },
    {
      "midi": 48,
      "hit": false,
      "t": 107303.2996041669,
      "d": 196.31339583333465,
      "v": 120
    },
    {
      "midi": 60,
      "hit": false,
      "t": 107303.2996041669,
      "d": 212.33897916667047,
      "v": 102
    },
    {
      "midi": 59,
      "hit": false,
      "t": 107691.92000000023,
      "d": 1045.669312500002,
      "v": 109
    },
    {
      "midi": 47,
      "hit": false,
      "t": 107691.92000000023,
      "d": 1049.675708333336,
      "v": 118
    },
    {
      "midi": 47,
      "hit": false,
      "t": 108845.76200000024,
      "d": 232.37095833334024,
      "v": 107
    },
    {
      "midi": 59,
      "hit": false,
      "t": 108845.76200000024,
      "d": 232.37095833334024,
      "v": 108
    },
    {
      "midi": 58,
      "hit": false,
      "t": 109230.37600000024,
      "d": 961.5350000000035,
      "v": 102
    },
    {
      "midi": 46,
      "hit": false,
      "t": 109230.37600000024,
      "d": 973.5541875000054,
      "v": 109
    },
    {
      "midi": 46,
      "hit": false,
      "t": 110384.21800000024,
      "d": 216.34537500000442,
      "v": 106
    },
    {
      "midi": 58,
      "hit": false,
      "t": 110384.21800000024,
      "d": 216.34537500000442,
      "v": 103
    },
    {
      "midi": 53,
      "hit": false,
      "t": 110768.83200000024,
      "d": 865.3815000000031,
      "v": 101
    },
    {
      "midi": 41,
      "hit": false,
      "t": 110768.83200000024,
      "d": 905.4454583333427,
      "v": 106
    },
    {
      "midi": 41,
      "hit": false,
      "t": 111922.67400000025,
      "d": 192.3070000000007,
      "v": 103
    },
    {
      "midi": 53,
      "hit": false,
      "t": 111922.67400000025,
      "d": 192.3070000000007,
      "v": 111
    },
    {
      "midi": 60,
      "hit": false,
      "t": 112307.28800000025,
      "d": 981.5669791666733,
      "v": 104
    },
    {
      "midi": 48,
      "hit": false,
      "t": 112307.28800000025,
      "d": 1005.605354166677,
      "v": 111
    },
    {
      "midi": 48,
      "hit": false,
      "t": 113457.12360416692,
      "d": 196.31339583333465,
      "v": 109
    },
    {
      "midi": 60,
      "hit": false,
      "t": 113457.12360416692,
      "d": 212.33897916667047,
      "v": 100
    },
    {
      "midi": 59,
      "hit": false,
      "t": 113845.74400000025,
      "d": 1045.669312500002,
      "v": 120
    },
    {
      "midi": 47,
      "hit": false,
      "t": 113845.74400000025,
      "d": 1049.675708333336,
      "v": 111
    },
    {
      "midi": 47,
      "hit": false,
      "t": 114999.58600000026,
      "d": 232.37095833334024,
      "v": 102
    },
    {
      "midi": 59,
      "hit": false,
      "t": 114999.58600000026,
      "d": 232.37095833334024,
      "v": 120
    },
    {
      "midi": 58,
      "hit": false,
      "t": 115384.20000000026,
      "d": 961.5350000000035,
      "v": 119
    },
    {
      "midi": 46,
      "hit": false,
      "t": 115384.20000000026,
      "d": 973.5541875000054,
      "v": 113
    },
    {
      "midi": 46,
      "hit": false,
      "t": 116538.04200000026,
      "d": 216.34537500000442,
      "v": 104
    },
    {
      "midi": 58,
      "hit": false,
      "t": 116538.04200000026,
      "d": 216.34537500000442,
      "v": 106
    },
    {
      "midi": 41,
      "hit": false,
      "t": 116922.65600000026,
      "d": 476.7611041666678,
      "v": 106
    },
    {
      "midi": 53,
      "hit": false,
      "t": 116922.65600000026,
      "d": 476.7611041666678,
      "v": 113
    },
    {
      "midi": 41,
      "hit": false,
      "t": 117499.57700000027,
      "d": 60.09593749999476,
      "v": 114
    },
    {
      "midi": 53,
      "hit": false,
      "t": 117499.57700000027,
      "d": 64.10233333332872,
      "v": 117
    },
    {
      "midi": 41,
      "hit": false,
      "t": 117691.88400000027,
      "d": 400.6395833333372,
      "v": 118
    },
    {
      "midi": 53,
      "hit": false,
      "t": 117691.88400000027,
      "d": 400.6395833333372,
      "v": 105
    },
    {
      "midi": 41,
      "hit": false,
      "t": 118268.80500000027,
      "d": 204.32618750000256,
      "v": 111
    },
    {
      "midi": 53,
      "hit": false,
      "t": 118268.80500000027,
      "d": 208.33258333333652,
      "v": 116
    },
    {
      "midi": 53,
      "hit": false,
      "t": 118653.41900000027,
      "d": 220.35177083333838,
      "v": 120
    },
    {
      "midi": 41,
      "hit": false,
      "t": 118653.41900000027,
      "d": 224.35816666667233,
      "v": 116
    },
    {
      "midi": 41,
      "hit": false,
      "t": 119038.03300000027,
      "d": 56.08954166666081,
      "v": 105
    },
    {
      "midi": 53,
      "hit": false,
      "t": 119038.03300000027,
      "d": 56.08954166666081,
      "v": 105
    },
    {
      "midi": 53,
      "hit": false,
      "t": 119230.34000000027,
      "d": 424.6779583333264,
      "v": 104
    },
    {
      "midi": 41,
      "hit": false,
      "t": 119230.34000000027,
      "d": 428.68435416666034,
      "v": 108
    },
    {
      "midi": 74,
      "hit": false,
      "t": 132307.21600000028,
      "d": 1049.6757083333214,
      "v": 113
    },
    {
      "midi": 86,
      "hit": false,
      "t": 132307.21600000028,
      "d": 1049.6757083333214,
      "v": 119
    },
    {
      "midi": 74,
      "hit": false,
      "t": 133461.05800000025,
      "d": 308.49247916665627,
      "v": 106
    },
    {
      "midi": 86,
      "hit": false,
      "t": 133461.05800000025,
      "d": 308.49247916665627,
      "v": 102
    },
    {
      "midi": 72,
      "hit": false,
      "t": 133845.67200000025,
      "d": 997.5925625000091,
      "v": 121
    },
    {
      "midi": 84,
      "hit": false,
      "t": 133845.67200000025,
      "d": 997.5925625000091,
      "v": 102
    },
    {
      "midi": 72,
      "hit": false,
      "t": 134995.50760416692,
      "d": 332.53085416666,
      "v": 114
    },
    {
      "midi": 84,
      "hit": false,
      "t": 134995.50760416692,
      "d": 332.53085416666,
      "v": 115
    },
    {
      "midi": 70,
      "hit": false,
      "t": 135384.12800000026,
      "d": 1085.733270833327,
      "v": 107
    },
    {
      "midi": 82,
      "hit": false,
      "t": 135384.12800000026,
      "d": 1085.733270833327,
      "v": 100
    },
    {
      "midi": 70,
      "hit": false,
      "t": 136537.97000000026,
      "d": 176.28141666666488,
      "v": 121
    },
    {
      "midi": 82,
      "hit": false,
      "t": 136537.97000000026,
      "d": 176.28141666666488,
      "v": 102
    },
    {
      "midi": 69,
      "hit": false,
      "t": 136730.27700000026,
      "d": 192.3070000000007,
      "v": 113
    },
    {
      "midi": 81,
      "hit": false,
      "t": 136730.27700000026,
      "d": 192.3070000000007,
      "v": 102
    },
    {
      "midi": 68,
      "hit": false,
      "t": 136922.58400000026,
      "d": 2956.7201249999925,
      "v": 103
    },
    {
      "midi": 80,
      "hit": false,
      "t": 136922.58400000026,
      "d": 2956.7201249999925,
      "v": 107
    },
    {
      "midi": 72,
      "hit": false,
      "t": 169234.1663958336,
      "d": 544.8698333333305,
      "v": 74
    },
    {
      "midi": 75,
      "hit": false,
      "t": 169234.1663958336,
      "d": 544.8698333333305,
      "v": 71
    },
    {
      "midi": 84,
      "hit": false,
      "t": 169234.1663958336,
      "d": 544.8698333333305,
      "v": 77
    },
    {
      "midi": 75,
      "hit": false,
      "t": 170371.98281250027,
      "d": 232.37095833334024,
      "v": 88
    },
    {
      "midi": 72,
      "hit": false,
      "t": 170375.9892083336,
      "d": 228.3645625000063,
      "v": 87
    },
    {
      "midi": 84,
      "hit": false,
      "t": 170375.9892083336,
      "d": 228.3645625000063,
      "v": 80
    },
    {
      "midi": 70,
      "hit": false,
      "t": 170772.6223958336,
      "d": 641.0233333333454,
      "v": 86
    },
    {
      "midi": 75,
      "hit": false,
      "t": 170772.6223958336,
      "d": 641.0233333333454,
      "v": 71
    },
    {
      "midi": 82,
      "hit": false,
      "t": 170772.6223958336,
      "d": 641.0233333333454,
      "v": 74
    },
    {
      "midi": 82,
      "hit": false,
      "t": 171910.43881250027,
      "d": 232.37095833334024,
      "v": 79
    },
    {
      "midi": 70,
      "hit": false,
      "t": 171914.4452083336,
      "d": 228.3645625000063,
      "v": 88
    },
    {
      "midi": 75,
      "hit": false,
      "t": 171914.4452083336,
      "d": 228.3645625000063,
      "v": 80
    },
    {
      "midi": 72,
      "hit": false,
      "t": 172311.0783958336,
      "d": 544.8698333333305,
      "v": 84
    },
    {
      "midi": 77,
      "hit": false,
      "t": 172311.0783958336,
      "d": 544.8698333333305,
      "v": 73
    },
    {
      "midi": 89,
      "hit": false,
      "t": 172311.0783958336,
      "d": 544.8698333333305,
      "v": 80
    },
    {
      "midi": 77,
      "hit": false,
      "t": 173448.89481250028,
      "d": 232.37095833334024,
      "v": 81
    },
    {
      "midi": 72,
      "hit": false,
      "t": 173452.9012083336,
      "d": 228.3645625000063,
      "v": 74
    },
    {
      "midi": 89,
      "hit": false,
      "t": 173452.9012083336,
      "d": 228.3645625000063,
      "v": 73
    },
    {
      "midi": 84,
      "hit": false,
      "t": 173849.53439583362,
      "d": 1189.8995625000098,
      "v": 70
    },
    {
      "midi": 72,
      "hit": false,
      "t": 173849.53439583362,
      "d": 1193.9059583333437,
      "v": 73
    },
    {
      "midi": 75,
      "hit": false,
      "t": 173849.53439583362,
      "d": 1197.9123541666777,
      "v": 86
    },
    {
      "midi": 72,
      "hit": false,
      "t": 175387.99039583362,
      "d": 544.8698333333305,
      "v": 72
    },
    {
      "midi": 75,
      "hit": false,
      "t": 175387.99039583362,
      "d": 544.8698333333305,
      "v": 73
    },
    {
      "midi": 84,
      "hit": false,
      "t": 175387.99039583362,
      "d": 544.8698333333305,
      "v": 81
    },
    {
      "midi": 75,
      "hit": false,
      "t": 176525.8068125003,
      "d": 232.37095833334024,
      "v": 68
    },
    {
      "midi": 72,
      "hit": false,
      "t": 176529.81320833362,
      "d": 228.3645625000063,
      "v": 80
    },
    {
      "midi": 84,
      "hit": false,
      "t": 176529.81320833362,
      "d": 228.3645625000063,
      "v": 87
    },
    {
      "midi": 70,
      "hit": false,
      "t": 176926.44639583363,
      "d": 641.0233333333454,
      "v": 87
    },
    {
      "midi": 75,
      "hit": false,
      "t": 176926.44639583363,
      "d": 641.0233333333454,
      "v": 86
    },
    {
      "midi": 82,
      "hit": false,
      "t": 176926.44639583363,
      "d": 641.0233333333454,
      "v": 74
    },
    {
      "midi": 82,
      "hit": false,
      "t": 178064.2628125003,
      "d": 232.37095833334024,
      "v": 88
    },
    {
      "midi": 70,
      "hit": false,
      "t": 178068.26920833363,
      "d": 228.3645625000063,
      "v": 74
    },
    {
      "midi": 75,
      "hit": false,
      "t": 178068.26920833363,
      "d": 228.3645625000063,
      "v": 87
    },
    {
      "midi": 72,
      "hit": false,
      "t": 178464.90239583363,
      "d": 544.8698333333305,
      "v": 70
    },
    {
      "midi": 77,
      "hit": false,
      "t": 178464.90239583363,
      "d": 544.8698333333305,
      "v": 85
    },
    {
      "midi": 89,
      "hit": false,
      "t": 178464.90239583363,
      "d": 544.8698333333305,
      "v": 89
    },
    {
      "midi": 77,
      "hit": false,
      "t": 179602.7188125003,
      "d": 232.37095833334024,
      "v": 80
    },
    {
      "midi": 72,
      "hit": false,
      "t": 179606.72520833364,
      "d": 228.3645625000063,
      "v": 79
    },
    {
      "midi": 89,
      "hit": false,
      "t": 179606.72520833364,
      "d": 228.3645625000063,
      "v": 83
    },
    {
      "midi": 72,
      "hit": false,
      "t": 180003.35839583364,
      "d": 168.26862499999697,
      "v": 83
    },
    {
      "midi": 84,
      "hit": false,
      "t": 180003.35839583364,
      "d": 188.30060416666674,
      "v": 72
    },
    {
      "midi": 72,
      "hit": false,
      "t": 180387.97239583364,
      "d": 200.3197916666686,
      "v": 75
    },
    {
      "midi": 84,
      "hit": false,
      "t": 180387.97239583364,
      "d": 216.34537500000442,
      "v": 86
    },
    {
      "midi": 84,
      "hit": false,
      "t": 180772.58639583364,
      "d": 260.4157291666779,
      "v": 81
    },
    {
      "midi": 72,
      "hit": false,
      "t": 180772.58639583364,
      "d": 264.4221250000119,
      "v": 89
    },
    {
      "midi": 84,
      "hit": false,
      "t": 181157.20039583364,
      "d": 260.4157291666779,
      "v": 84
    },
    {
      "midi": 72,
      "hit": false,
      "t": 181157.20039583364,
      "d": 264.4221250000119,
      "v": 78
    },
    {
      "midi": 71,
      "hit": false,
      "t": 181541.81439583364,
      "d": 196.31339583333465,
      "v": 72
    },
    {
      "midi": 83,
      "hit": false,
      "t": 181541.81439583364,
      "d": 196.31339583333465,
      "v": 79
    },
    {
      "midi": 83,
      "hit": false,
      "t": 181926.42839583365,
      "d": 192.3070000000007,
      "v": 84
    },
    {
      "midi": 71,
      "hit": false,
      "t": 181926.42839583365,
      "d": 196.31339583333465,
      "v": 77
    },
    {
      "midi": 83,
      "hit": false,
      "t": 182311.04239583365,
      "d": 208.33258333333652,
      "v": 76
    },
    {
      "midi": 71,
      "hit": false,
      "t": 182311.04239583365,
      "d": 220.35177083333838,
      "v": 73
    },
    {
      "midi": 83,
      "hit": false,
      "t": 182695.65639583365,
      "d": 208.33258333333652,
      "v": 70
    },
    {
      "midi": 71,
      "hit": false,
      "t": 182695.65639583365,
      "d": 220.35177083333838,
      "v": 87
    },
    {
      "midi": 70,
      "hit": false,
      "t": 183080.27039583365,
      "d": 204.32618750000256,
      "v": 70
    },
    {
      "midi": 82,
      "hit": false,
      "t": 183080.27039583365,
      "d": 204.32618750000256,
      "v": 74
    },
    {
      "midi": 70,
      "hit": false,
      "t": 183460.87800000032,
      "d": 204.32618750000256,
      "v": 75
    },
    {
      "midi": 82,
      "hit": false,
      "t": 183460.87800000032,
      "d": 204.32618750000256,
      "v": 77
    },
    {
      "midi": 70,
      "hit": false,
      "t": 183845.49200000032,
      "d": 208.33258333333652,
      "v": 80
    },
    {
      "midi": 82,
      "hit": false,
      "t": 183845.49200000032,
      "d": 208.33258333333652,
      "v": 84
    },
    {
      "midi": 70,
      "hit": false,
      "t": 184234.11239583365,
      "d": 204.32618750000256,
      "v": 73
    },
    {
      "midi": 82,
      "hit": false,
      "t": 184234.11239583365,
      "d": 204.32618750000256,
      "v": 76
    },
    {
      "midi": 69,
      "hit": false,
      "t": 184618.72639583366,
      "d": 204.32618750000256,
      "v": 76
    },
    {
      "midi": 81,
      "hit": false,
      "t": 184618.72639583366,
      "d": 204.32618750000256,
      "v": 73
    },
    {
      "midi": 69,
      "hit": false,
      "t": 184999.33400000032,
      "d": 208.33258333333652,
      "v": 84
    },
    {
      "midi": 81,
      "hit": false,
      "t": 184999.33400000032,
      "d": 208.33258333333652,
      "v": 77
    },
    {
      "midi": 69,
      "hit": false,
      "t": 185387.95439583366,
      "d": 204.32618750000256,
      "v": 81
    },
    {
      "midi": 81,
      "hit": false,
      "t": 185387.95439583366,
      "d": 204.32618750000256,
      "v": 76
    },
    {
      "midi": 69,
      "hit": false,
      "t": 185772.56839583366,
      "d": 204.32618750000256,
      "v": 79
    },
    {
      "midi": 81,
      "hit": false,
      "t": 185772.56839583366,
      "d": 204.32618750000256,
      "v": 86
    },
    {
      "midi": 72,
      "hit": false,
      "t": 186157.18239583366,
      "d": 168.26862499999697,
      "v": 82
    },
    {
      "midi": 84,
      "hit": false,
      "t": 186157.18239583366,
      "d": 188.30060416666674,
      "v": 84
    },
    {
      "midi": 72,
      "hit": false,
      "t": 186541.79639583366,
      "d": 200.3197916666686,
      "v": 85
    },
    {
      "midi": 84,
      "hit": false,
      "t": 186541.79639583366,
      "d": 216.34537500000442,
      "v": 88
    },
    {
      "midi": 84,
      "hit": false,
      "t": 186926.41039583366,
      "d": 260.4157291666779,
      "v": 85
    },
    {
      "midi": 72,
      "hit": false,
      "t": 186926.41039583366,
      "d": 264.4221250000119,
      "v": 77
    },
    {
      "midi": 84,
      "hit": false,
      "t": 187311.02439583367,
      "d": 260.4157291666779,
      "v": 88
    },
    {
      "midi": 72,
      "hit": false,
      "t": 187311.02439583367,
      "d": 264.4221250000119,
      "v": 88
    },
    {
      "midi": 71,
      "hit": false,
      "t": 187695.63839583367,
      "d": 196.31339583333465,
      "v": 69
    },
    {
      "midi": 83,
      "hit": false,
      "t": 187695.63839583367,
      "d": 196.31339583333465,
      "v": 85
    },
    {
      "midi": 83,
      "hit": false,
      "t": 188080.25239583367,
      "d": 192.3070000000007,
      "v": 78
    },
    {
      "midi": 71,
      "hit": false,
      "t": 188080.25239583367,
      "d": 196.31339583333465,
      "v": 77
    },
    {
      "midi": 83,
      "hit": false,
      "t": 188464.86639583367,
      "d": 208.33258333333652,
      "v": 72
    },
    {
      "midi": 71,
      "hit": false,
      "t": 188464.86639583367,
      "d": 220.35177083333838,
      "v": 83
    },
    {
      "midi": 83,
      "hit": false,
      "t": 188849.48039583367,
      "d": 208.33258333333652,
      "v": 75
    },
    {
      "midi": 71,
      "hit": false,
      "t": 188849.48039583367,
      "d": 220.35177083333838,
      "v": 73
    },
    {
      "midi": 70,
      "hit": false,
      "t": 189234.09439583367,
      "d": 180.28781249999884,
      "v": 70
    },
    {
      "midi": 82,
      "hit": false,
      "t": 189234.09439583367,
      "d": 196.31339583333465,
      "v": 88
    },
    {
      "midi": 70,
      "hit": false,
      "t": 189618.70839583367,
      "d": 192.3070000000007,
      "v": 80
    },
    {
      "midi": 82,
      "hit": false,
      "t": 189618.70839583367,
      "d": 200.3197916666686,
      "v": 83
    },
    {
      "midi": 70,
      "hit": false,
      "t": 190003.32239583367,
      "d": 196.31339583333465,
      "v": 70
    },
    {
      "midi": 82,
      "hit": false,
      "t": 190003.32239583367,
      "d": 200.3197916666686,
      "v": 69
    },
    {
      "midi": 70,
      "hit": false,
      "t": 190387.93639583368,
      "d": 128.20466666665743,
      "v": 70
    },
    {
      "midi": 82,
      "hit": false,
      "t": 190387.93639583368,
      "d": 132.21106249999139,
      "v": 87
    },
    {
      "midi": 69,
      "hit": false,
      "t": 190772.55039583368,
      "d": 152.24304166666116,
      "v": 75
    },
    {
      "midi": 81,
      "hit": false,
      "t": 190772.55039583368,
      "d": 156.2494374999951,
      "v": 88
    },
    {
      "midi": 69,
      "hit": false,
      "t": 191157.16439583368,
      "d": 128.20466666665743,
      "v": 86
    },
    {
      "midi": 81,
      "hit": false,
      "t": 191157.16439583368,
      "d": 136.21745833332534,
      "v": 74
    },
    {
      "midi": 81,
      "hit": false,
      "t": 191541.77839583368,
      "d": 408.6523750000051,
      "v": 77
    },
    {
      "midi": 69,
      "hit": false,
      "t": 191541.77839583368,
      "d": 416.66516666667303,
      "v": 85
    },
    {
      "midi": 81,
      "hit": false,
      "t": 192118.69939583368,
      "d": 200.3197916666686,
      "v": 88
    },
    {
      "midi": 69,
      "hit": false,
      "t": 192118.69939583368,
      "d": 204.32618750000256,
      "v": 78
    },
    {
      "midi": 81,
      "hit": false,
      "t": 192503.31339583368,
      "d": 196.31339583333465,
      "v": 81
    },
    {
      "midi": 69,
      "hit": false,
      "t": 192503.31339583368,
      "d": 208.33258333333652,
      "v": 78
    },
    {
      "midi": 81,
      "hit": false,
      "t": 192887.92739583369,
      "d": 68.10872916667722,
      "v": 77
    },
    {
      "midi": 69,
      "hit": false,
      "t": 192887.92739583369,
      "d": 80.12791666667908,
      "v": 82
    },
    {
      "midi": 69,
      "hit": false,
      "t": 193080.2343958337,
      "d": 272.4349166666798,
      "v": 81
    },
    {
      "midi": 81,
      "hit": false,
      "t": 193080.2343958337,
      "d": 272.4349166666798,
      "v": 88
    },
    {
      "midi": 81,
      "hit": false,
      "t": 193464.8483958337,
      "d": 220.35177083333838,
      "v": 88
    },
    {
      "midi": 69,
      "hit": false,
      "t": 193464.8483958337,
      "d": 232.37095833334024,
      "v": 71
    },
    {
      "midi": 81,
      "hit": false,
      "t": 193849.4623958337,
      "d": 200.3197916666686,
      "v": 71
    },
    {
      "midi": 69,
      "hit": false,
      "t": 193849.4623958337,
      "d": 216.34537500000442,
      "v": 86
    },
    {
      "midi": 81,
      "hit": false,
      "t": 194234.0763958337,
      "d": 192.3070000000007,
      "v": 86
    },
    {
      "midi": 69,
      "hit": false,
      "t": 194234.0763958337,
      "d": 212.33897916667047,
      "v": 86
    },
    {
      "midi": 81,
      "hit": false,
      "t": 194618.6903958337,
      "d": 412.6587708333391,
      "v": 79
    },
    {
      "midi": 69,
      "hit": false,
      "t": 194618.6903958337,
      "d": 432.69075000000885,
      "v": 86
    },
    {
      "midi": 69,
      "hit": false,
      "t": 195195.6113958337,
      "d": 196.31339583333465,
      "v": 71
    },
    {
      "midi": 81,
      "hit": false,
      "t": 195195.6113958337,
      "d": 200.3197916666686,
      "v": 87
    },
    {
      "midi": 81,
      "hit": false,
      "t": 195580.2253958337,
      "d": 204.32618750000256,
      "v": 70
    },
    {
      "midi": 69,
      "hit": false,
      "t": 195580.2253958337,
      "d": 216.34537500000442,
      "v": 76
    },
    {
      "midi": 81,
      "hit": false,
      "t": 195964.8393958337,
      "d": 52.083145833341405,
      "v": 77
    },
    {
      "midi": 69,
      "hit": false,
      "t": 195964.8393958337,
      "d": 64.10233333334327,
      "v": 71
    },
    {
      "midi": 81,
      "hit": false,
      "t": 196157.1463958337,
      "d": 256.40933333334397,
      "v": 84
    },
    {
      "midi": 69,
      "hit": false,
      "t": 196157.1463958337,
      "d": 264.4221250000119,
      "v": 89
    },
    {
      "midi": 69,
      "hit": false,
      "t": 196541.7603958337,
      "d": 244.3901458333421,
      "v": 71
    },
    {
      "midi": 81,
      "hit": false,
      "t": 196541.7603958337,
      "d": 244.3901458333421,
      "v": 78
    },
    {
      "midi": 81,
      "hit": false,
      "t": 196926.3743958337,
      "d": 200.3197916666686,
      "v": 77
    },
    {
      "midi": 69,
      "hit": false,
      "t": 196926.3743958337,
      "d": 216.34537500000442,
      "v": 89
    },
    {
      "midi": 81,
      "hit": false,
      "t": 197310.9883958337,
      "d": 192.3070000000007,
      "v": 80
    },
    {
      "midi": 69,
      "hit": false,
      "t": 197310.9883958337,
      "d": 212.33897916667047,
      "v": 72
    },
    {
      "midi": 81,
      "hit": false,
      "t": 197695.6023958337,
      "d": 412.6587708333391,
      "v": 84
    },
    {
      "midi": 69,
      "hit": false,
      "t": 197695.6023958337,
      "d": 432.69075000000885,
      "v": 83
    },
    {
      "midi": 69,
      "hit": false,
      "t": 198272.5233958337,
      "d": 196.31339583333465,
      "v": 78
    },
    {
      "midi": 81,
      "hit": false,
      "t": 198272.5233958337,
      "d": 200.3197916666686,
      "v": 77
    },
    {
      "midi": 81,
      "hit": false,
      "t": 198657.1373958337,
      "d": 204.32618750000256,
      "v": 80
    },
    {
      "midi": 69,
      "hit": false,
      "t": 198657.1373958337,
      "d": 216.34537500000442,
      "v": 75
    },
    {
      "midi": 81,
      "hit": false,
      "t": 199041.7513958337,
      "d": 52.083145833341405,
      "v": 88
    },
    {
      "midi": 69,
      "hit": false,
      "t": 199041.7513958337,
      "d": 64.10233333334327,
      "v": 73
    },
    {
      "midi": 81,
      "hit": false,
      "t": 199234.0583958337,
      "d": 256.40933333334397,
      "v": 84
    },
    {
      "midi": 69,
      "hit": false,
      "t": 199234.0583958337,
      "d": 264.4221250000119,
      "v": 78
    },
    {
      "midi": 69,
      "hit": false,
      "t": 199618.6723958337,
      "d": 244.3901458333421,
      "v": 87
    },
    {
      "midi": 81,
      "hit": false,
      "t": 199618.6723958337,
      "d": 244.3901458333421,
      "v": 85
    },
    {
      "midi": 81,
      "hit": false,
      "t": 200003.2863958337,
      "d": 200.3197916666686,
      "v": 70
    },
    {
      "midi": 69,
      "hit": false,
      "t": 200003.2863958337,
      "d": 216.34537500000442,
      "v": 68
    },
    {
      "midi": 81,
      "hit": false,
      "t": 200387.9003958337,
      "d": 192.3070000000007,
      "v": 89
    },
    {
      "midi": 69,
      "hit": false,
      "t": 200387.9003958337,
      "d": 212.33897916667047,
      "v": 86
    },
    {
      "midi": 81,
      "hit": false,
      "t": 200772.5143958337,
      "d": 412.6587708333391,
      "v": 73
    },
    {
      "midi": 69,
      "hit": false,
      "t": 200772.5143958337,
      "d": 432.69075000000885,
      "v": 86
    },
    {
      "midi": 69,
      "hit": false,
      "t": 201349.43539583372,
      "d": 196.31339583333465,
      "v": 81
    },
    {
      "midi": 81,
      "hit": false,
      "t": 201349.43539583372,
      "d": 200.3197916666686,
      "v": 88
    },
    {
      "midi": 81,
      "hit": false,
      "t": 201734.04939583372,
      "d": 204.32618750000256,
      "v": 84
    },
    {
      "midi": 69,
      "hit": false,
      "t": 201734.04939583372,
      "d": 216.34537500000442,
      "v": 89
    },
    {
      "midi": 81,
      "hit": false,
      "t": 202118.66339583372,
      "d": 52.083145833341405,
      "v": 78
    },
    {
      "midi": 69,
      "hit": false,
      "t": 202118.66339583372,
      "d": 64.10233333334327,
      "v": 81
    },
    {
      "midi": 81,
      "hit": false,
      "t": 202310.97039583372,
      "d": 256.40933333334397,
      "v": 78
    },
    {
      "midi": 69,
      "hit": false,
      "t": 202310.97039583372,
      "d": 264.4221250000119,
      "v": 84
    },
    {
      "midi": 69,
      "hit": false,
      "t": 202695.58439583372,
      "d": 244.3901458333421,
      "v": 78
    },
    {
      "midi": 81,
      "hit": false,
      "t": 202695.58439583372,
      "d": 244.3901458333421,
      "v": 77
    },
    {
      "midi": 74,
      "hit": false,
      "t": 215387.84639583374,
      "d": 1049.6757083333214,
      "v": 107
    },
    {
      "midi": 86,
      "hit": false,
      "t": 215387.84639583374,
      "d": 1049.6757083333214,
      "v": 109
    },
    {
      "midi": 74,
      "hit": false,
      "t": 216541.6883958337,
      "d": 308.49247916665627,
      "v": 100
    },
    {
      "midi": 86,
      "hit": false,
      "t": 216541.6883958337,
      "d": 308.49247916665627,
      "v": 104
    },
    {
      "midi": 72,
      "hit": false,
      "t": 216926.3023958337,
      "d": 997.5925625000091,
      "v": 103
    },
    {
      "midi": 84,
      "hit": false,
      "t": 216926.3023958337,
      "d": 997.5925625000091,
      "v": 117
    },
    {
      "midi": 72,
      "hit": false,
      "t": 218076.13800000038,
      "d": 332.53085416666,
      "v": 117
    },
    {
      "midi": 84,
      "hit": false,
      "t": 218076.13800000038,
      "d": 332.53085416666,
      "v": 112
    },
    {
      "midi": 70,
      "hit": false,
      "t": 218464.75839583372,
      "d": 1085.733270833327,
      "v": 116
    },
    {
      "midi": 82,
      "hit": false,
      "t": 218464.75839583372,
      "d": 1085.733270833327,
      "v": 103
    },
    {
      "midi": 70,
      "hit": false,
      "t": 219618.60039583372,
      "d": 176.28141666666488,
      "v": 109
    },
    {
      "midi": 82,
      "hit": false,
      "t": 219618.60039583372,
      "d": 176.28141666666488,
      "v": 101
    },
    {
      "midi": 69,
      "hit": false,
      "t": 219810.90739583372,
      "d": 192.3070000000007,
      "v": 112
    },
    {
      "midi": 81,
      "hit": false,
      "t": 219810.90739583372,
      "d": 192.3070000000007,
      "v": 100
    },
    {
      "midi": 68,
      "hit": false,
      "t": 220003.21439583373,
      "d": 1506.404833333334,
      "v": 110
    },
    {
      "midi": 80,
      "hit": false,
      "t": 220003.21439583373,
      "d": 1514.4176250000019,
      "v": 109
    }
  ]
}