{
  "jsonPath": "Unknown/Unknown/Blowing Free/bridge-over-troubled-water.json",
  "path": "Unknown\\Unknown\\Blowing Free\\Bridge Over Troubled Water.mid",
  "name": "Bridge Over Troubled Water",
  "difficulty": "Advanced",
  "bpm": 94.00012846684224,
  "notes": [
    {
      "midi": 65,
      "hit": false,
      "t": 14117.64,
      "d": 1948.528437500001,
      "v": 77
    },
    {
      "midi": 69,
      "hit": false,
      "t": 14117.64,
      "d": 1948.528437500001,
      "v": 79
    },
    {
      "midi": 72,
      "hit": false,
      "t": 14117.64,
      "d": 1948.528437500001,
      "v": 86
    },
    {
      "midi": 48,
      "hit": false,
      "t": 14117.640000000001,
      "d": 1801.4696875000009,
      "v": 90
    },
    {
      "midi": 53,
      "hit": false,
      "t": 15863.962656250002,
      "d": 3455.8806250000016,
      "v": 86
    },
    {
      "midi": 69,
      "hit": false,
      "t": 16746.31515625,
      "d": 827.2054687499985,
      "v": 74
    },
    {
      "midi": 65,
      "hit": false,
      "t": 16746.31515625,
      "d": 937.4995312499959,
      "v": 75
    },
    {
      "midi": 72,
      "hit": false,
      "t": 16746.31515625,
      "d": 1121.3229687499952,
      "v": 98
    },
    {
      "midi": 71,
      "hit": false,
      "t": 17628.667656249996,
      "d": 1746.3226562499985,
      "v": 102
    },
    {
      "midi": 67,
      "hit": false,
      "t": 17647.049999999996,
      "d": 1470.5874999999978,
      "v": 79
    },
    {
      "midi": 54,
      "hit": false,
      "t": 19374.990312500002,
      "d": 1856.6167187499996,
      "v": 81
    },
    {
      "midi": 69,
      "hit": false,
      "t": 19393.372656249994,
      "d": 1305.1464062500017,
      "v": 106
    },
    {
      "midi": 63,
      "hit": false,
      "t": 19393.372656249994,
      "d": 1323.5287500000013,
      "v": 69
    },
    {
      "midi": 64,
      "hit": false,
      "t": 21158.077656249996,
      "d": 937.4995312499996,
      "v": 86
    },
    {
      "midi": 69,
      "hit": false,
      "t": 21158.077656249996,
      "d": 1102.9406249999993,
      "v": 92
    },
    {
      "midi": 55,
      "hit": false,
      "t": 21158.077656250003,
      "d": 2095.5871874999975,
      "v": 79
    },
    {
      "midi": 67,
      "hit": false,
      "t": 22040.430156249997,
      "d": 2408.0870312499974,
      "v": 77
    },
    {
      "midi": 60,
      "hit": false,
      "t": 22922.78265625,
      "d": 1838.2343749999964,
      "v": 96
    },
    {
      "midi": 72,
      "hit": false,
      "t": 24687.487656249996,
      "d": 1066.1759375000001,
      "v": 96
    },
    {
      "midi": 67,
      "hit": false,
      "t": 24687.487656249996,
      "d": 2720.586875000001,
      "v": 83
    },
    {
      "midi": 64,
      "hit": false,
      "t": 24687.48765625,
      "d": 2040.4401562499988,
      "v": 96
    },
    {
      "midi": 76,
      "hit": false,
      "t": 25569.840156249997,
      "d": 2610.2928125,
      "v": 79
    },
    {
      "midi": 60,
      "hit": false,
      "t": 26452.192656249998,
      "d": 1415.4404687499991,
      "v": 86
    },
    {
      "midi": 60,
      "hit": false,
      "t": 28235.279999999995,
      "d": 6121.32046875,
      "v": 85
    },
    {
      "midi": 50,
      "hit": false,
      "t": 28235.279999999995,
      "d": 7095.5846875000025,
      "v": 79
    },
    {
      "midi": 65,
      "hit": false,
      "t": 29981.602656249997,
      "d": 1011.0289062500015,
      "v": 70
    },
    {
      "midi": 69,
      "hit": false,
      "t": 29981.602656249997,
      "d": 1011.0289062500015,
      "v": 92
    },
    {
      "midi": 72,
      "hit": false,
      "t": 30845.5728125,
      "d": 1066.1759375000001,
      "v": 100
    },
    {
      "midi": 74,
      "hit": false,
      "t": 31746.30765625,
      "d": 1893.3814062500023,
      "v": 92
    },
    {
      "midi": 69,
      "hit": false,
      "t": 31746.30765625,
      "d": 2242.645937500005,
      "v": 94
    },
    {
      "midi": 65,
      "hit": false,
      "t": 31746.30765625,
      "d": 2279.410625000004,
      "v": 72
    },
    {
      "midi": 76,
      "hit": false,
      "t": 33511.01265625,
      "d": 2077.2048437500052,
      "v": 94
    },
    {
      "midi": 60,
      "hit": false,
      "t": 35275.717656249995,
      "d": 1746.3226562500058,
      "v": 87
    },
    {
      "midi": 69,
      "hit": false,
      "t": 35275.71765625,
      "d": 1029.4112500000047,
      "v": 73
    },
    {
      "midi": 65,
      "hit": false,
      "t": 35275.71765625,
      "d": 2022.057812500003,
      "v": 61
    },
    {
      "midi": 55,
      "hit": false,
      "t": 35294.1,
      "d": 3235.292500000003,
      "v": 79
    },
    {
      "midi": 74,
      "hit": false,
      "t": 35294.100000000006,
      "d": 2610.292812499996,
      "v": 85
    },
    {
      "midi": 59,
      "hit": false,
      "t": 37022.0403125,
      "d": 3088.2337499999994,
      "v": 81
    },
    {
      "midi": 67,
      "hit": false,
      "t": 37058.80500000001,
      "d": 2242.6459374999977,
      "v": 71
    },
    {
      "midi": 65,
      "hit": false,
      "t": 40569.83265625001,
      "d": 496.3232812499991,
      "v": 83
    },
    {
      "midi": 65,
      "hit": false,
      "t": 41452.18515625001,
      "d": 937.4995312499959,
      "v": 86
    },
    {
      "midi": 48,
      "hit": false,
      "t": 42352.92,
      "d": 3455.880624999998,
      "v": 77
    },
    {
      "midi": 64,
      "hit": false,
      "t": 42352.920000000006,
      "d": 1783.0873437499977,
      "v": 79
    },
    {
      "midi": 55,
      "hit": false,
      "t": 42352.920000000006,
      "d": 1893.3814062500023,
      "v": 57
    },
    {
      "midi": 60,
      "hit": false,
      "t": 42352.920000000006,
      "d": 3419.115937499999,
      "v": 58
    },
    {
      "midi": 64,
      "hit": false,
      "t": 42352.920000000006,
      "d": 3566.1746874999953,
      "v": 76
    },
    {
      "midi": 55,
      "hit": false,
      "t": 42371.30234375,
      "d": 1654.410937499997,
      "v": 85
    },
    {
      "midi": 53,
      "hit": false,
      "t": 44080.8603125,
      "d": 937.4995312499959,
      "v": 86
    },
    {
      "midi": 62,
      "hit": false,
      "t": 44099.242656250004,
      "d": 827.2054687499985,
      "v": 81
    },
    {
      "midi": 52,
      "hit": false,
      "t": 44944.83046875,
      "d": 2922.7926562499997,
      "v": 85
    },
    {
      "midi": 55,
      "hit": false,
      "t": 44944.830468750006,
      "d": 330.8821874999994,
      "v": 78
    },
    {
      "midi": 60,
      "hit": false,
      "t": 44981.595156250005,
      "d": 9908.083281250001,
      "v": 75
    },
    {
      "midi": 55,
      "hit": false,
      "t": 45808.800625,
      "d": 3272.0571875000023,
      "v": 70
    },
    {
      "midi": 60,
      "hit": false,
      "t": 46672.77078125,
      "d": 974.2642187500023,
      "v": 76
    },
    {
      "midi": 64,
      "hit": false,
      "t": 47555.12328125,
      "d": 1139.705312500002,
      "v": 91
    },
    {
      "midi": 48,
      "hit": false,
      "t": 47610.2703125,
      "d": 1801.4696875000009,
      "v": 82
    },
    {
      "midi": 60,
      "hit": false,
      "t": 48419.09343750001,
      "d": 441.1762499999968,
      "v": 70
    },
    {
      "midi": 57,
      "hit": false,
      "t": 49356.592968749996,
      "d": 1764.705000000009,
      "v": 75
    },
    {
      "midi": 53,
      "hit": false,
      "t": 49374.9753125,
      "d": 1746.3226562500058,
      "v": 81
    },
    {
      "midi": 65,
      "hit": false,
      "t": 49374.975312500006,
      "d": 4430.14484375,
      "v": 74
    },
    {
      "midi": 53,
      "hit": false,
      "t": 49393.35765625001,
      "d": 1727.9403125000026,
      "v": 58
    },
    {
      "midi": 57,
      "hit": false,
      "t": 49411.74000000001,
      "d": 1911.7637499999983,
      "v": 39
    },
    {
      "midi": 48,
      "hit": false,
      "t": 51102.915625,
      "d": 1856.6167187500032,
      "v": 78
    },
    {
      "midi": 53,
      "hit": false,
      "t": 51930.12109375001,
      "d": 349.2645312500026,
      "v": 76
    },
    {
      "midi": 53,
      "hit": false,
      "t": 52812.47359375001,
      "d": 2794.116249999999,
      "v": 85
    },
    {
      "midi": 53,
      "hit": false,
      "t": 52886.00296875001,
      "d": 2738.969218749997,
      "v": 78
    },
    {
      "midi": 57,
      "hit": false,
      "t": 52886.00296875001,
      "d": 3786.7628125000047,
      "v": 73
    },
    {
      "midi": 60,
      "hit": false,
      "t": 53713.208437500005,
      "d": 1029.4112500000047,
      "v": 89
    },
    {
      "midi": 65,
      "hit": false,
      "t": 54613.94328125001,
      "d": 1323.5287499999977,
      "v": 74
    },
    {
      "midi": 65,
      "hit": false,
      "t": 54687.47265625001,
      "d": 661.7643749999988,
      "v": 81
    },
    {
      "midi": 57,
      "hit": false,
      "t": 55459.53109375001,
      "d": 863.9701562499977,
      "v": 72
    },
    {
      "midi": 65,
      "hit": false,
      "t": 55569.82515625001,
      "d": 1286.7640624999985,
      "v": 89
    },
    {
      "midi": 55,
      "hit": false,
      "t": 56452.17765625001,
      "d": 1930.1460937500015,
      "v": 66
    },
    {
      "midi": 55,
      "hit": false,
      "t": 56470.560000000005,
      "d": 2922.792656250007,
      "v": 77
    },
    {
      "midi": 48,
      "hit": false,
      "t": 56488.94234375001,
      "d": 2518.381093750002,
      "v": 78
    },
    {
      "midi": 67,
      "hit": false,
      "t": 56488.94234375001,
      "d": 1911.7637499999983,
      "v": 86
    },
    {
      "midi": 64,
      "hit": false,
      "t": 56488.94234375001,
      "d": 3474.262968750001,
      "v": 85
    },
    {
      "midi": 60,
      "hit": false,
      "t": 56580.85406250001,
      "d": 3363.9689062499965,
      "v": 37
    },
    {
      "midi": 64,
      "hit": false,
      "t": 58216.88265625,
      "d": 7003.672968750005,
      "v": 73
    },
    {
      "midi": 55,
      "hit": false,
      "t": 59080.85281250001,
      "d": 330.8821874999994,
      "v": 80
    },
    {
      "midi": 55,
      "hit": false,
      "t": 59944.822968750006,
      "d": 1948.5284374999974,
      "v": 74
    },
    {
      "midi": 55,
      "hit": false,
      "t": 59944.82296875001,
      "d": 1084.5582812499997,
      "v": 82
    },
    {
      "midi": 60,
      "hit": false,
      "t": 60790.41078125001,
      "d": 974.264218749995,
      "v": 82
    },
    {
      "midi": 60,
      "hit": false,
      "t": 60845.55781250001,
      "d": 992.6465625000055,
      "v": 78
    },
    {
      "midi": 64,
      "hit": false,
      "t": 61654.380937500006,
      "d": 3566.1746875000026,
      "v": 82
    },
    {
      "midi": 55,
      "hit": false,
      "t": 61746.292656250014,
      "d": 1893.3814062500023,
      "v": 77
    },
    {
      "midi": 55,
      "hit": false,
      "t": 62518.35109375,
      "d": 183.8234375000029,
      "v": 63
    },
    {
      "midi": 60,
      "hit": false,
      "t": 62518.35109375,
      "d": 459.55859375,
      "v": 72
    },
    {
      "midi": 60,
      "hit": false,
      "t": 63437.46828125,
      "d": 2003.675468750007,
      "v": 72
    },
    {
      "midi": 65,
      "hit": false,
      "t": 63437.46828125,
      "d": 7297.7904687500195,
      "v": 82
    },
    {
      "midi": 53,
      "hit": false,
      "t": 63510.997656250016,
      "d": 7187.49640625,
      "v": 79
    },
    {
      "midi": 69,
      "hit": false,
      "t": 65275.70265625001,
      "d": 1911.7637499999983,
      "v": 94
    },
    {
      "midi": 60,
      "hit": false,
      "t": 65275.70265625001,
      "d": 1930.1460937499942,
      "v": 82
    },
    {
      "midi": 60,
      "hit": false,
      "t": 66047.76109375001,
      "d": 1102.940625000003,
      "v": 76
    },
    {
      "midi": 53,
      "hit": false,
      "t": 66084.52578125002,
      "d": 1084.5582812499924,
      "v": 68
    },
    {
      "midi": 58,
      "hit": false,
      "t": 67003.64296875002,
      "d": 1819.8520312499895,
      "v": 61
    },
    {
      "midi": 62,
      "hit": false,
      "t": 67003.64296875002,
      "d": 1874.9990624999919,
      "v": 87
    },
    {
      "midi": 62,
      "hit": false,
      "t": 67040.40765625001,
      "d": 1930.1460937499942,
      "v": 83
    },
    {
      "midi": 70,
      "hit": false,
      "t": 67040.40765625001,
      "d": 2003.6754687499924,
      "v": 85
    },
    {
      "midi": 60,
      "hit": false,
      "t": 68713.20093750002,
      "d": 1654.410937499997,
      "v": 70
    },
    {
      "midi": 57,
      "hit": false,
      "t": 68731.58328125002,
      "d": 1433.8228125000023,
      "v": 63
    },
    {
      "midi": 69,
      "hit": false,
      "t": 68805.11265625,
      "d": 1727.94031250001,
      "v": 86
    },
    {
      "midi": 60,
      "hit": false,
      "t": 68805.11265625,
      "d": 1819.8520312500186,
      "v": 72
    },
    {
      "midi": 52,
      "hit": false,
      "t": 70533.05296875002,
      "d": 3345.5865625000006,
      "v": 85
    },
    {
      "midi": 48,
      "hit": false,
      "t": 70551.43531250002,
      "d": 2095.5871874999866,
      "v": 81
    },
    {
      "midi": 60,
      "hit": false,
      "t": 70551.43531250002,
      "d": 73.52937499999825,
      "v": 80
    },
    {
      "midi": 67,
      "hit": false,
      "t": 70569.81765625002,
      "d": 5330.879687499997,
      "v": 85
    },
    {
      "midi": 64,
      "hit": false,
      "t": 70588.20000000001,
      "d": 4246.321406250005,
      "v": 73
    },
    {
      "midi": 55,
      "hit": false,
      "t": 70661.72937500002,
      "d": 1783.0873437499977,
      "v": 49
    },
    {
      "midi": 55,
      "hit": false,
      "t": 72297.75796875001,
      "d": 955.8818749999919,
      "v": 70
    },
    {
      "midi": 57,
      "hit": false,
      "t": 73180.11046875,
      "d": 1102.940625000003,
      "v": 69
    },
    {
      "midi": 55,
      "hit": false,
      "t": 73180.11046875002,
      "d": 312.4998437500035,
      "v": 82
    },
    {
      "midi": 55,
      "hit": false,
      "t": 74007.31593750003,
      "d": 1764.7049999999872,
      "v": 76
    },
    {
      "midi": 55,
      "hit": false,
      "t": 74080.84531250001,
      "d": 3455.8806250000052,
      "v": 83
    },
    {
      "midi": 60,
      "hit": false,
      "t": 74889.66843750002,
      "d": 1066.1759374999965,
      "v": 78
    },
    {
      "midi": 64,
      "hit": false,
      "t": 75790.40328125001,
      "d": 1213.2346875000076,
      "v": 76
    },
    {
      "midi": 72,
      "hit": false,
      "t": 75845.55031250001,
      "d": 882.3524999999936,
      "v": 98
    },
    {
      "midi": 64,
      "hit": false,
      "t": 75863.93265625,
      "d": 790.4407812499994,
      "v": 68
    },
    {
      "midi": 60,
      "hit": false,
      "t": 76654.37343750002,
      "d": 459.55859375,
      "v": 74
    },
    {
      "midi": 69,
      "hit": false,
      "t": 76727.9028125,
      "d": 5808.820625000008,
      "v": 87
    },
    {
      "midi": 65,
      "hit": false,
      "t": 76727.9028125,
      "d": 5827.2029687500035,
      "v": 70
    },
    {
      "midi": 65,
      "hit": false,
      "t": 77518.34359375002,
      "d": 5036.762187500004,
      "v": 80
    },
    {
      "midi": 60,
      "hit": false,
      "t": 77536.72593750001,
      "d": 3933.821562500001,
      "v": 72
    },
    {
      "midi": 53,
      "hit": false,
      "t": 77555.10828125001,
      "d": 2352.9400000000023,
      "v": 68
    },
    {
      "midi": 53,
      "hit": false,
      "t": 77591.87296875002,
      "d": 2316.175312499996,
      "v": 80
    },
    {
      "midi": 60,
      "hit": false,
      "t": 79374.96031250001,
      "d": 863.9701562499977,
      "v": 86
    },
    {
      "midi": 53,
      "hit": false,
      "t": 80202.16578125,
      "d": 312.4998437500035,
      "v": 80
    },
    {
      "midi": 62,
      "hit": false,
      "t": 80238.93046875001,
      "d": 1066.175937500011,
      "v": 79
    },
    {
      "midi": 53,
      "hit": false,
      "t": 81084.51828125001,
      "d": 2886.027968750015,
      "v": 74
    },
    {
      "midi": 60,
      "hit": false,
      "t": 81139.66531250002,
      "d": 3566.17468750001,
      "v": 78
    },
    {
      "midi": 60,
      "hit": false,
      "t": 81966.87078125002,
      "d": 2095.587187500001,
      "v": 74
    },
    {
      "midi": 65,
      "hit": false,
      "t": 82830.84093750002,
      "d": 1452.2051562499983,
      "v": 72
    },
    {
      "midi": 65,
      "hit": false,
      "t": 82941.13500000001,
      "d": 1011.0289062499942,
      "v": 73
    },
    {
      "midi": 69,
      "hit": false,
      "t": 82941.13500000001,
      "d": 1966.910781249986,
      "v": 89
    },
    {
      "midi": 57,
      "hit": false,
      "t": 83731.57578125002,
      "d": 1029.41124999999,
      "v": 63
    },
    {
      "midi": 55,
      "hit": false,
      "t": 84669.07531250002,
      "d": 1838.234375,
      "v": 89
    },
    {
      "midi": 67,
      "hit": false,
      "t": 84687.45765625,
      "d": 441.1762499999895,
      "v": 94
    },
    {
      "midi": 60,
      "hit": false,
      "t": 84705.84000000001,
      "d": 3363.968906250011,
      "v": 59
    },
    {
      "midi": 55,
      "hit": false,
      "t": 84724.22234375,
      "d": 2040.4401562500134,
      "v": 74
    },
    {
      "midi": 64,
      "hit": false,
      "t": 84724.22234375,
      "d": 3345.586562500015,
      "v": 87
    },
    {
      "midi": 64,
      "hit": false,
      "t": 85330.83968749999,
      "d": 386.02921875000175,
      "v": 81
    },
    {
      "midi": 62,
      "hit": false,
      "t": 85863.92765624999,
      "d": 551.4703124999942,
      "v": 83
    },
    {
      "midi": 52,
      "hit": false,
      "t": 86415.39796875003,
      "d": 1838.234375,
      "v": 61
    },
    {
      "midi": 60,
      "hit": false,
      "t": 86470.54499999998,
      "d": 4466.909531249999,
      "v": 86
    },
    {
      "midi": 55,
      "hit": false,
      "t": 87334.51515625003,
      "d": 294.117499999993,
      "v": 70
    },
    {
      "midi": 53,
      "hit": false,
      "t": 88198.48531250002,
      "d": 1764.7050000000017,
      "v": 79
    },
    {
      "midi": 57,
      "hit": false,
      "t": 88198.48531250002,
      "d": 1985.2931249999965,
      "v": 64
    },
    {
      "midi": 53,
      "hit": false,
      "t": 88253.63234375003,
      "d": 1966.9107812500006,
      "v": 89
    },
    {
      "midi": 65,
      "hit": false,
      "t": 88308.77937500003,
      "d": 3272.0571875000023,
      "v": 60
    },
    {
      "midi": 60,
      "hit": false,
      "t": 88327.16171875002,
      "d": 2830.880937500013,
      "v": 74
    },
    {
      "midi": 48,
      "hit": false,
      "t": 89963.19031250002,
      "d": 1139.7053124999948,
      "v": 66
    },
    {
      "midi": 53,
      "hit": false,
      "t": 90790.39578125003,
      "d": 882.3524999999936,
      "v": 80
    },
    {
      "midi": 62,
      "hit": false,
      "t": 90937.45453124998,
      "d": 404.4115624999977,
      "v": 74
    },
    {
      "midi": 64,
      "hit": false,
      "t": 91066.13093749998,
      "d": 404.4115624999977,
      "v": 74
    },
    {
      "midi": 65,
      "hit": false,
      "t": 91194.80734374998,
      "d": 147.0587499999965,
      "v": 74
    },
    {
      "midi": 67,
      "hit": false,
      "t": 91323.48374999998,
      "d": 147.0587499999965,
      "v": 74
    },
    {
      "midi": 69,
      "hit": false,
      "t": 91433.77781249997,
      "d": 220.5881250000093,
      "v": 78
    },
    {
      "midi": 71,
      "hit": false,
      "t": 91599.21890624998,
      "d": 238.9704687499907,
      "v": 84
    },
    {
      "midi": 55,
      "hit": false,
      "t": 91635.98359375003,
      "d": 588.234999999986,
      "v": 60
    },
    {
      "midi": 60,
      "hit": false,
      "t": 91635.98359375003,
      "d": 1323.5287499999831,
      "v": 72
    },
    {
      "midi": 64,
      "hit": false,
      "t": 91654.36593750003,
      "d": 1378.6757812499854,
      "v": 78
    },
    {
      "midi": 52,
      "hit": false,
      "t": 91727.89531250003,
      "d": 1948.5284375000047,
      "v": 78
    },
    {
      "midi": 48,
      "hit": false,
      "t": 91727.89531250003,
      "d": 2316.1753125000105,
      "v": 65
    },
    {
      "midi": 72,
      "hit": false,
      "t": 91746.27765624998,
      "d": 5900.732343750002,
      "v": 94
    },
    {
      "midi": 55,
      "hit": false,
      "t": 92536.71843750002,
      "d": 2775.7339062499814,
      "v": 70
    },
    {
      "midi": 60,
      "hit": false,
      "t": 93437.45328125001,
      "d": 1231.6170312500035,
      "v": 85
    },
    {
      "midi": 55,
      "hit": false,
      "t": 93492.60031250003,
      "d": 1911.7637499999983,
      "v": 80
    },
    {
      "midi": 64,
      "hit": false,
      "t": 94283.04109375001,
      "d": 1121.3229687499843,
      "v": 78
    },
    {
      "midi": 60,
      "hit": false,
      "t": 95202.15828125001,
      "d": 2297.7929687499854,
      "v": 68
    },
    {
      "midi": 53,
      "hit": false,
      "t": 95220.54062500001,
      "d": 2077.2048437499907,
      "v": 66
    },
    {
      "midi": 65,
      "hit": false,
      "t": 95220.54062500001,
      "d": 2352.939999999988,
      "v": 76
    },
    {
      "midi": 57,
      "hit": false,
      "t": 95257.30531250003,
      "d": 1084.5582812499924,
      "v": 81
    },
    {
      "midi": 60,
      "hit": false,
      "t": 95275.68765625003,
      "d": 1176.4700000000012,
      "v": 74
    },
    {
      "midi": 55,
      "hit": false,
      "t": 96158.04015625002,
      "d": 1011.0289062500087,
      "v": 75
    },
    {
      "midi": 53,
      "hit": false,
      "t": 97040.39265625003,
      "d": 1856.6167187500105,
      "v": 85
    },
    {
      "midi": 65,
      "hit": false,
      "t": 97830.8334375,
      "d": 1194.8523437499825,
      "v": 62
    },
    {
      "midi": 60,
      "hit": false,
      "t": 97849.21578125,
      "d": 4705.87999999999,
      "v": 68
    },
    {
      "midi": 53,
      "hit": false,
      "t": 97867.59812499999,
      "d": 808.8231249999953,
      "v": 64
    },
    {
      "midi": 64,
      "hit": false,
      "t": 98786.71531249999,
      "d": 3878.674531249999,
      "v": 80
    },
    {
      "midi": 55,
      "hit": false,
      "t": 98786.71531250003,
      "d": 5128.673906249998,
      "v": 85
    },
    {
      "midi": 48,
      "hit": false,
      "t": 98786.71531250003,
      "d": 7113.967031249995,
      "v": 74
    },
    {
      "midi": 60,
      "hit": false,
      "t": 100569.80265624999,
      "d": 1746.3226562500058,
      "v": 72
    },
    {
      "midi": 64,
      "hit": false,
      "t": 100569.80265624999,
      "d": 1911.7637500000128,
      "v": 89
    },
    {
      "midi": 55,
      "hit": false,
      "t": 101433.77281249998,
      "d": 330.8821874999994,
      "v": 68
    },
    {
      "midi": 55,
      "hit": false,
      "t": 102316.12531249998,
      "d": 1599.2639062500093,
      "v": 72
    },
    {
      "midi": 62,
      "hit": false,
      "t": 102352.89,
      "d": 1764.7050000000017,
      "v": 80
    },
    {
      "midi": 59,
      "hit": false,
      "t": 102352.89,
      "d": 1819.852031250004,
      "v": 79
    },
    {
      "midi": 62,
      "hit": false,
      "t": 103124.94843749999,
      "d": 1047.7935937500006,
      "v": 60
    },
    {
      "midi": 67,
      "hit": false,
      "t": 104044.06562499999,
      "d": 1819.8520312499895,
      "v": 80
    },
    {
      "midi": 60,
      "hit": false,
      "t": 104099.21265625,
      "d": 955.8818749999919,
      "v": 83
    },
    {
      "midi": 57,
      "hit": false,
      "t": 104117.595,
      "d": 1011.0289062499942,
      "v": 81
    },
    {
      "midi": 60,
      "hit": false,
      "t": 104926.41812499998,
      "d": 937.4995312499959,
      "v": 61
    },
    {
      "midi": 62,
      "hit": false,
      "t": 104981.56515625,
      "d": 6764.702499999999,
      "v": 82
    },
    {
      "midi": 59,
      "hit": false,
      "t": 104981.56515625,
      "d": 6819.849531250002,
      "v": 82
    },
    {
      "midi": 43,
      "hit": false,
      "t": 105845.53531250003,
      "d": 4742.6446874999965,
      "v": 77
    },
    {
      "midi": 55,
      "hit": false,
      "t": 105882.29999999997,
      "d": 2022.057812500003,
      "v": 52
    },
    {
      "midi": 59,
      "hit": false,
      "t": 105882.29999999997,
      "d": 3437.4982812500093,
      "v": 55
    },
    {
      "midi": 62,
      "hit": false,
      "t": 105882.29999999997,
      "d": 3511.0276562500076,
      "v": 60
    },
    {
      "midi": 67,
      "hit": false,
      "t": 105882.29999999997,
      "d": 3584.557031250006,
      "v": 62
    },
    {
      "midi": 50,
      "hit": false,
      "t": 107610.24031250003,
      "d": 937.4995312499959,
      "v": 79
    },
    {
      "midi": 55,
      "hit": false,
      "t": 108400.68109374998,
      "d": 349.26453124999534,
      "v": 82
    },
    {
      "midi": 52,
      "hit": false,
      "t": 108492.59281250002,
      "d": 1121.3229687499988,
      "v": 71
    },
    {
      "midi": 50,
      "hit": false,
      "t": 109411.71000000002,
      "d": 1249.9993749999994,
      "v": 80
    },
    {
      "midi": 55,
      "hit": false,
      "t": 109448.47468749998,
      "d": 3069.8514062500035,
      "v": 85
    },
    {
      "midi": 59,
      "hit": false,
      "t": 110275.68015624997,
      "d": 2334.5576562500064,
      "v": 74
    },
    {
      "midi": 62,
      "hit": false,
      "t": 111121.26796874998,
      "d": 1397.0581250000105,
      "v": 78
    },
    {
      "midi": 50,
      "hit": false,
      "t": 111139.65031250002,
      "d": 2150.734218749989,
      "v": 85
    },
    {
      "midi": 67,
      "hit": false,
      "t": 112022.00281249998,
      "d": 643.3820312500029,
      "v": 68
    },
    {
      "midi": 62,
      "hit": false,
      "t": 112812.44359374998,
      "d": 2775.733906249996,
      "v": 62
    },
    {
      "midi": 59,
      "hit": false,
      "t": 112830.82593749998,
      "d": 2775.733906249996,
      "v": 61
    },
    {
      "midi": 67,
      "hit": false,
      "t": 112830.82593749998,
      "d": 3970.586249999993,
      "v": 74
    },
    {
      "midi": 55,
      "hit": false,
      "t": 112849.20828124997,
      "d": 1286.7640625000058,
      "v": 60
    },
    {
      "midi": 67,
      "hit": false,
      "t": 112941.12,
      "d": 2150.7342187500035,
      "v": 89
    },
    {
      "midi": 59,
      "hit": false,
      "t": 112941.12,
      "d": 3841.9098437499924,
      "v": 81
    },
    {
      "midi": 55,
      "hit": false,
      "t": 112996.26703125001,
      "d": 1158.0876562499907,
      "v": 79
    },
    {
      "midi": 55,
      "hit": false,
      "t": 114558.76624999997,
      "d": 459.55859375,
      "v": 91
    },
    {
      "midi": 55,
      "hit": false,
      "t": 114724.20734375001,
      "d": 1066.1759374999965,
      "v": 80
    },
    {
      "midi": 55,
      "hit": false,
      "t": 115422.73640624997,
      "d": 900.7348437500041,
      "v": 76
    },
    {
      "midi": 67,
      "hit": false,
      "t": 115569.79515625,
      "d": 1323.5287499999977,
      "v": 100
    },
    {
      "midi": 59,
      "hit": false,
      "t": 116341.85359374997,
      "d": 1268.3817187499953,
      "v": 66
    },
    {
      "midi": 62,
      "hit": false,
      "t": 116378.61828124998,
      "d": 1360.2934374999895,
      "v": 87
    },
    {
      "midi": 55,
      "hit": false,
      "t": 116433.7653125,
      "d": 1341.9110937499936,
      "v": 83
    },
    {
      "midi": 59,
      "hit": false,
      "t": 116452.14765625,
      "d": 1378.67578125,
      "v": 87
    },
    {
      "midi": 64,
      "hit": false,
      "t": 116488.91234375,
      "d": 1286.7640624999913,
      "v": 98
    },
    {
      "midi": 57,
      "hit": false,
      "t": 117573.47062499997,
      "d": 937.4995312499814,
      "v": 70
    },
    {
      "midi": 60,
      "hit": false,
      "t": 117591.85296874997,
      "d": 1011.0289062499796,
      "v": 68
    },
    {
      "midi": 62,
      "hit": false,
      "t": 117646.99999999999,
      "d": 1176.4700000000012,
      "v": 86
    },
    {
      "midi": 53,
      "hit": false,
      "t": 117647,
      "d": 772.0584375000035,
      "v": 79
    },
    {
      "midi": 57,
      "hit": false,
      "t": 117665.38234375,
      "d": 827.2054687500058,
      "v": 82
    },
    {
      "midi": 67,
      "hit": false,
      "t": 117683.76468749996,
      "d": 275.7351562499971,
      "v": 42
    },
    {
      "midi": 57,
      "hit": false,
      "t": 118841.85234375,
      "d": 1213.2346875000076,
      "v": 92
    },
    {
      "midi": 53,
      "hit": false,
      "t": 118841.85234375,
      "d": 1268.38171875001,
      "v": 80
    },
    {
      "midi": 60,
      "hit": false,
      "t": 118878.61703124999,
      "d": 808.8231249999953,
      "v": 79
    },
    {
      "midi": 60,
      "hit": false,
      "t": 118915.38171874995,
      "d": 698.5290625000052,
      "v": 85
    },
    {
      "midi": 57,
      "hit": false,
      "t": 118952.14640624996,
      "d": 772.0584375000035,
      "v": 60
    },
    {
      "midi": 60,
      "hit": false,
      "t": 119908.02828124996,
      "d": 3584.557031250006,
      "v": 76
    },
    {
      "midi": 52,
      "hit": false,
      "t": 119926.41062499996,
      "d": 3529.4100000000035,
      "v": 85
    },
    {
      "midi": 55,
      "hit": false,
      "t": 119963.17531249997,
      "d": 2371.3223437499983,
      "v": 85
    },
    {
      "midi": 60,
      "hit": false,
      "t": 120018.32234374998,
      "d": 992.6465624999983,
      "v": 98
    },
    {
      "midi": 52,
      "hit": false,
      "t": 120018.32234375,
      "d": 1580.8815625000134,
      "v": 79
    },
    {
      "midi": 55,
      "hit": false,
      "t": 120018.32234375,
      "d": 1801.4696875000081,
      "v": 79
    },
    {
      "midi": 62,
      "hit": false,
      "t": 120882.29249999998,
      "d": 955.8818749999919,
      "v": 86
    },
    {
      "midi": 48,
      "hit": false,
      "t": 121727.88031250001,
      "d": 1948.52843749999,
      "v": 73
    },
    {
      "midi": 64,
      "hit": false,
      "t": 121764.64499999997,
      "d": 4632.350624999992,
      "v": 86
    },
    {
      "midi": 55,
      "hit": false,
      "t": 122481.55640624996,
      "d": 477.9409374999959,
      "v": 93
    },
    {
      "midi": 55,
      "hit": false,
      "t": 123455.82062499996,
      "d": 3602.9393750000017,
      "v": 85
    },
    {
      "midi": 59,
      "hit": false,
      "t": 123492.5853125,
      "d": 2205.881250000006,
      "v": 81
    },
    {
      "midi": 55,
      "hit": false,
      "t": 123510.96765625,
      "d": 1874.9990625000064,
      "v": 61
    },
    {
      "midi": 60,
      "hit": false,
      "t": 124356.55546874997,
      "d": 2738.969218750004,
      "v": 72
    },
    {
      "midi": 64,
      "hit": false,
      "t": 125165.37859374996,
      "d": 1066.1759374999965,
      "v": 74
    },
    {
      "midi": 48,
      "hit": false,
      "t": 125257.2903125,
      "d": 2022.0578124999884,
      "v": 77
    },
    {
      "midi": 67,
      "hit": false,
      "t": 126176.40749999996,
      "d": 624.999687500007,
      "v": 68
    },
    {
      "midi": 62,
      "hit": false,
      "t": 126930.08359374997,
      "d": 3713.2334375000064,
      "v": 74
    },
    {
      "midi": 67,
      "hit": false,
      "t": 126948.46593749996,
      "d": 2334.5576562500064,
      "v": 80
    },
    {
      "midi": 58,
      "hit": false,
      "t": 127040.37765625,
      "d": 3676.4687499999854,
      "v": 74
    },
    {
      "midi": 55,
      "hit": false,
      "t": 127058.76,
      "d": 2371.3223437499983,
      "v": 75
    },
    {
      "midi": 67,
      "hit": false,
      "t": 128805.08265624997,
      "d": 1433.8228125000023,
      "v": 98
    },
    {
      "midi": 58,
      "hit": false,
      "t": 129632.28812499996,
      "d": 367.6468750000058,
      "v": 63
    },
    {
      "midi": 58,
      "hit": false,
      "t": 130459.49359374997,
      "d": 257.35281250000116,
      "v": 66
    },
    {
      "midi": 67,
      "hit": false,
      "t": 130569.78765624997,
      "d": 1764.7049999999872,
      "v": 75
    },
    {
      "midi": 76,
      "hit": false,
      "t": 130569.78765624997,
      "d": 1911.7637499999837,
      "v": 100
    },
    {
      "midi": 55,
      "hit": false,
      "t": 130569.78765624999,
      "d": 3419.1159374999843,
      "v": 78
    },
    {
      "midi": 48,
      "hit": false,
      "t": 130569.78765624999,
      "d": 3621.321718749983,
      "v": 86
    },
    {
      "midi": 62,
      "hit": false,
      "t": 131286.69906249997,
      "d": 2738.9692187499895,
      "v": 85
    },
    {
      "midi": 67,
      "hit": false,
      "t": 132205.81624999997,
      "d": 1213.234687499993,
      "v": 72
    },
    {
      "midi": 70,
      "hit": false,
      "t": 132334.49265624996,
      "d": 1856.6167187500105,
      "v": 81
    },
    {
      "midi": 74,
      "hit": false,
      "t": 132334.49265624996,
      "d": 1856.6167187500105,
      "v": 104
    },
    {
      "midi": 58,
      "hit": false,
      "t": 132959.49234374997,
      "d": 1102.9406249999884,
      "v": 62
    },
    {
      "midi": 57,
      "hit": false,
      "t": 133970.52124999996,
      "d": 1636.0285937500012,
      "v": 68
    },
    {
      "midi": 60,
      "hit": false,
      "t": 133970.52124999996,
      "d": 3566.1746875000536,
      "v": 70
    },
    {
      "midi": 65,
      "hit": false,
      "t": 133988.90359374997,
      "d": 2555.145781250001,
      "v": 91
    },
    {
      "midi": 53,
      "hit": false,
      "t": 134080.81531249997,
      "d": 1783.0873437500268,
      "v": 86
    },
    {
      "midi": 72,
      "hit": false,
      "t": 134080.81531249997,
      "d": 3731.6157812500314,
      "v": 100
    },
    {
      "midi": 69,
      "hit": false,
      "t": 134099.19765624998,
      "d": 4136.027343750029,
      "v": 75
    },
    {
      "midi": 55,
      "hit": false,
      "t": 134981.55015624998,
      "d": 808.8231249999953,
      "v": 85
    },
    {
      "midi": 57,
      "hit": false,
      "t": 135882.285,
      "d": 1856.6167187500105,
      "v": 75
    },
    {
      "midi": 57,
      "hit": false,
      "t": 136544.04937499997,
      "d": 790.440781250014,
      "v": 72
    },
    {
      "midi": 66,
      "hit": false,
      "t": 137444.78421875,
      "d": 1911.7637500000128,
      "v": 60
    },
    {
      "midi": 62,
      "hit": false,
      "t": 137463.1665625,
      "d": 1911.7637500000128,
      "v": 74
    },
    {
      "midi": 57,
      "hit": false,
      "t": 137481.54890625,
      "d": 606.6173437499965,
      "v": 74
    },
    {
      "midi": 74,
      "hit": false,
      "t": 137628.60765624998,
      "d": 2371.322343750013,
      "v": 94
    },
    {
      "midi": 50,
      "hit": false,
      "t": 137628.60765625,
      "d": 1985.2931250000256,
      "v": 63
    },
    {
      "midi": 66,
      "hit": false,
      "t": 137646.99,
      "d": 2720.586875000008,
      "v": 73
    },
    {
      "midi": 57,
      "hit": false,
      "t": 138290.37203125,
      "d": 441.1762499999895,
      "v": 72
    },
    {
      "midi": 57,
      "hit": false,
      "t": 139209.48921875,
      "d": 1930.1460937500233,
      "v": 74
    },
    {
      "midi": 60,
      "hit": false,
      "t": 139393.31265625003,
      "d": 1819.8520312500186,
      "v": 72
    },
    {
      "midi": 62,
      "hit": false,
      "t": 139650.66546875003,
      "d": 753.676093749993,
      "v": 74
    },
    {
      "midi": 66,
      "hit": false,
      "t": 140202.13578125002,
      "d": 1047.793593749986,
      "v": 52
    },
    {
      "midi": 71,
      "hit": false,
      "t": 140275.66515625,
      "d": 4430.144843749993,
      "v": 79
    },
    {
      "midi": 74,
      "hit": false,
      "t": 140275.66515625,
      "d": 4466.909531249985,
      "v": 96
    },
    {
      "midi": 59,
      "hit": false,
      "t": 141139.63531250003,
      "d": 937.4995312500396,
      "v": 81
    },
    {
      "midi": 67,
      "hit": false,
      "t": 141176.40000000002,
      "d": 2352.9400000000023,
      "v": 72
    },
    {
      "midi": 59,
      "hit": false,
      "t": 141213.16468750002,
      "d": 2334.557656250021,
      "v": 49
    },
    {
      "midi": 62,
      "hit": false,
      "t": 141249.929375,
      "d": 2481.6164062500466,
      "v": 60
    },
    {
      "midi": 55,
      "hit": false,
      "t": 141360.2234375,
      "d": 1488.9698437500047,
      "v": 54
    },
    {
      "midi": 57,
      "hit": false,
      "t": 142003.60546875006,
      "d": 1084.558281250007,
      "v": 77
    },
    {
      "midi": 55,
      "hit": false,
      "t": 142904.34031250008,
      "d": 1323.5287499999977,
      "v": 77
    },
    {
      "midi": 55,
      "hit": false,
      "t": 143566.10468750005,
      "d": 1029.4112500000047,
      "v": 66
    },
    {
      "midi": 60,
      "hit": false,
      "t": 144430.07484375004,
      "d": 1819.8520312499895,
      "v": 48
    },
    {
      "midi": 67,
      "hit": false,
      "t": 144448.45718750005,
      "d": 3511.027656249993,
      "v": 63
    },
    {
      "midi": 64,
      "hit": false,
      "t": 144466.83953125007,
      "d": 3584.5570312499767,
      "v": 63
    },
    {
      "midi": 48,
      "hit": false,
      "t": 144669.04531250006,
      "d": 3069.8514062500035,
      "v": 71
    },
    {
      "midi": 55,
      "hit": false,
      "t": 144669.04531250006,
      "d": 3455.8806249999907,
      "v": 69
    },
    {
      "midi": 70,
      "hit": false,
      "t": 144687.42765625,
      "d": 1139.7053125000093,
      "v": 74
    },
    {
      "midi": 67,
      "hit": false,
      "t": 144687.42765625,
      "d": 1415.440468750021,
      "v": 65
    },
    {
      "midi": 76,
      "hit": false,
      "t": 144687.42765625,
      "d": 2224.2635937500163,
      "v": 94
    },
    {
      "midi": 58,
      "hit": false,
      "t": 146158.01515625004,
      "d": 2169.116562499985,
      "v": 60
    },
    {
      "midi": 70,
      "hit": false,
      "t": 146452.13265625,
      "d": 1874.999062500021,
      "v": 77
    },
    {
      "midi": 74,
      "hit": false,
      "t": 146452.13265625,
      "d": 1930.1460937500233,
      "v": 98
    },
    {
      "midi": 67,
      "hit": false,
      "t": 146470.515,
      "d": 1691.1756250000035,
      "v": 70
    },
    {
      "midi": 53,
      "hit": false,
      "t": 148198.45531250007,
      "d": 955.8818749999919,
      "v": 67
    },
    {
      "midi": 69,
      "hit": false,
      "t": 148216.83765625002,
      "d": 3382.351250000007,
      "v": 74
    },
    {
      "midi": 72,
      "hit": false,
      "t": 148216.83765625002,
      "d": 3841.909843750007,
      "v": 89
    },
    {
      "midi": 65,
      "hit": false,
      "t": 148235.22000000003,
      "d": 2794.116249999992,
      "v": 69
    },
    {
      "midi": 53,
      "hit": false,
      "t": 148235.22000000003,
      "d": 2481.6164062499884,
      "v": 58
    },
    {
      "midi": 60,
      "hit": false,
      "t": 148235.22000000003,
      "d": 3382.351250000007,
      "v": 61
    },
    {
      "midi": 65,
      "hit": false,
      "t": 148235.22000000003,
      "d": 3437.4982812500093,
      "v": 72
    },
    {
      "midi": 55,
      "hit": false,
      "t": 149062.42546875007,
      "d": 900.7348437499895,
      "v": 79
    },
    {
      "midi": 57,
      "hit": false,
      "t": 149981.54265625007,
      "d": 1856.6167187499814,
      "v": 72
    },
    {
      "midi": 57,
      "hit": false,
      "t": 150790.36578125003,
      "d": 477.9409375000105,
      "v": 59
    },
    {
      "midi": 57,
      "hit": false,
      "t": 151433.74781250005,
      "d": 2426.469374999957,
      "v": 72
    },
    {
      "midi": 53,
      "hit": false,
      "t": 151709.48296875006,
      "d": 1801.469687499979,
      "v": 76
    },
    {
      "midi": 71,
      "hit": false,
      "t": 151746.24765625002,
      "d": 1838.234375000029,
      "v": 96
    },
    {
      "midi": 65,
      "hit": false,
      "t": 151764.63000000003,
      "d": 1672.793281249993,
      "v": 79
    },
    {
      "midi": 60,
      "hit": false,
      "t": 152536.68843750004,
      "d": 1029.4112499999756,
      "v": 80
    },
    {
      "midi": 65,
      "hit": false,
      "t": 153437.42328125003,
      "d": 1029.4112500000047,
      "v": 85
    },
    {
      "midi": 54,
      "hit": false,
      "t": 153474.18796875005,
      "d": 1838.234375,
      "v": 74
    },
    {
      "midi": 69,
      "hit": false,
      "t": 153510.95265625004,
      "d": 1397.0581250000105,
      "v": 89
    },
    {
      "midi": 63,
      "hit": false,
      "t": 153510.95265625004,
      "d": 1930.1460937500233,
      "v": 73
    },
    {
      "midi": 57,
      "hit": false,
      "t": 154338.15812500002,
      "d": 1047.7935937500442,
      "v": 56
    },
    {
      "midi": 63,
      "hit": false,
      "t": 154338.15812500002,
      "d": 1102.9406250000466,
      "v": 68
    },
    {
      "midi": 54,
      "hit": false,
      "t": 154356.54046875003,
      "d": 955.881875000021,
      "v": 56
    },
    {
      "midi": 55,
      "hit": false,
      "t": 155257.27531250005,
      "d": 1930.1460937500233,
      "v": 70
    },
    {
      "midi": 64,
      "hit": false,
      "t": 155275.65765625003,
      "d": 2720.586875000008,
      "v": 76
    },
    {
      "midi": 69,
      "hit": false,
      "t": 155275.65765625006,
      "d": 1029.4112500000047,
      "v": 89
    },
    {
      "midi": 64,
      "hit": false,
      "t": 155275.65765625006,
      "d": 2720.586875000008,
      "v": 74
    },
    {
      "midi": 55,
      "hit": false,
      "t": 155294.04000000004,
      "d": 1268.3817187500244,
      "v": 62
    },
    {
      "midi": 67,
      "hit": false,
      "t": 156158.01015625006,
      "d": 2904.4103124999965,
      "v": 78
    },
    {
      "midi": 55,
      "hit": false,
      "t": 156948.45093750005,
      "d": 1746.3226562499767,
      "v": 76
    },
    {
      "midi": 60,
      "hit": false,
      "t": 157021.98031250006,
      "d": 1783.0873437500268,
      "v": 64
    },
    {
      "midi": 60,
      "hit": false,
      "t": 157904.33281250004,
      "d": 386.0292187499872,
      "v": 58
    },
    {
      "midi": 57,
      "hit": false,
      "t": 158676.39125000002,
      "d": 753.6760937500221,
      "v": 57
    },
    {
      "midi": 64,
      "hit": false,
      "t": 158694.77359375003,
      "d": 1231.6170312500035,
      "v": 68
    },
    {
      "midi": 67,
      "hit": false,
      "t": 158694.77359375003,
      "d": 2261.028281249979,
      "v": 74
    },
    {
      "midi": 61,
      "hit": false,
      "t": 158713.15593750004,
      "d": 1121.3229687499988,
      "v": 60
    },
    {
      "midi": 61,
      "hit": false,
      "t": 158786.68531250008,
      "d": 2150.7342187500035,
      "v": 72
    },
    {
      "midi": 64,
      "hit": false,
      "t": 158841.83234375005,
      "d": 1231.6170312500035,
      "v": 74
    },
    {
      "midi": 67,
      "hit": false,
      "t": 159687.42015625007,
      "d": 3124.9984374999767,
      "v": 82
    },
    {
      "midi": 57,
      "hit": false,
      "t": 159742.56718750004,
      "d": 2757.3515625,
      "v": 62
    },
    {
      "midi": 61,
      "hit": false,
      "t": 160514.62562500002,
      "d": 919.1171875,
      "v": 70
    },
    {
      "midi": 57,
      "hit": false,
      "t": 160569.77265625008,
      "d": 1930.1460937499942,
      "v": 67
    },
    {
      "midi": 67,
      "hit": false,
      "t": 161433.74281250002,
      "d": 1378.675781250029,
      "v": 85
    },
    {
      "midi": 60,
      "hit": false,
      "t": 162260.94828125002,
      "d": 3731.6157812500605,
      "v": 66
    },
    {
      "midi": 65,
      "hit": false,
      "t": 162279.33062500003,
      "d": 3437.4982812500093,
      "v": 78
    },
    {
      "midi": 53,
      "hit": false,
      "t": 162316.09531250008,
      "d": 3639.704062499979,
      "v": 80
    },
    {
      "midi": 60,
      "hit": false,
      "t": 162316.09531250008,
      "d": 3676.468749999971,
      "v": 70
    },
    {
      "midi": 69,
      "hit": false,
      "t": 164099.18265625005,
      "d": 919.1171875,
      "v": 94
    },
    {
      "midi": 53,
      "hit": false,
      "t": 164852.85875000004,
      "d": 992.6465625000419,
      "v": 74
    },
    {
      "midi": 72,
      "hit": false,
      "t": 164963.15281250005,
      "d": 1121.3229687499988,
      "v": 111
    },
    {
      "midi": 64,
      "hit": false,
      "t": 165735.21125000005,
      "d": 2058.8225000000384,
      "v": 70
    },
    {
      "midi": 59,
      "hit": false,
      "t": 165753.59359375006,
      "d": 1452.205156250042,
      "v": 61
    },
    {
      "midi": 56,
      "hit": false,
      "t": 165771.97593750007,
      "d": 937.4995312500105,
      "v": 61
    },
    {
      "midi": 74,
      "hit": false,
      "t": 165863.88765625004,
      "d": 1966.9107812500151,
      "v": 98
    },
    {
      "midi": 68,
      "hit": false,
      "t": 165863.88765625004,
      "d": 3584.557031250006,
      "v": 74
    },
    {
      "midi": 62,
      "hit": false,
      "t": 165863.88765625007,
      "d": 3639.704062499979,
      "v": 81
    },
    {
      "midi": 52,
      "hit": false,
      "t": 165863.88765625007,
      "d": 3952.2039062499825,
      "v": 74
    },
    {
      "midi": 56,
      "hit": false,
      "t": 166727.8578125001,
      "d": 2389.704687499994,
      "v": 80
    },
    {
      "midi": 59,
      "hit": false,
      "t": 167610.2103125001,
      "d": 772.0584374999744,
      "v": 74
    },
    {
      "midi": 76,
      "hit": false,
      "t": 167628.59265625005,
      "d": 1856.6167187499814,
      "v": 96
    },
    {
      "midi": 64,
      "hit": false,
      "t": 168455.7981250001,
      "d": 367.6468750000058,
      "v": 72
    },
    {
      "midi": 60,
      "hit": false,
      "t": 169319.7682812501,
      "d": 1084.558281250007,
      "v": 70
    },
    {
      "midi": 57,
      "hit": false,
      "t": 169319.7682812501,
      "d": 1305.1464062500163,
      "v": 60
    },
    {
      "midi": 64,
      "hit": false,
      "t": 169319.7682812501,
      "d": 1856.6167187500105,
      "v": 82
    },
    {
      "midi": 60,
      "hit": false,
      "t": 169374.91531250006,
      "d": 1029.4112499999756,
      "v": 87
    },
    {
      "midi": 69,
      "hit": false,
      "t": 169393.29765625004,
      "d": 3621.3217187499977,
      "v": 73
    },
    {
      "midi": 72,
      "hit": false,
      "t": 169393.29765625004,
      "d": 3713.233437499992,
      "v": 89
    },
    {
      "midi": 59,
      "hit": false,
      "t": 170257.26781250004,
      "d": 1066.1759374999965,
      "v": 84
    },
    {
      "midi": 57,
      "hit": false,
      "t": 171139.6203125001,
      "d": 1893.3814062499732,
      "v": 72
    },
    {
      "midi": 57,
      "hit": false,
      "t": 171158.00265625003,
      "d": 1874.999062500021,
      "v": 75
    },
    {
      "midi": 60,
      "hit": false,
      "t": 171580.7965625001,
      "d": 606.6173437499965,
      "v": 76
    },
    {
      "midi": 64,
      "hit": false,
      "t": 172058.7375000001,
      "d": 441.1762499999895,
      "v": 74
    },
    {
      "midi": 65,
      "hit": false,
      "t": 172463.1490625001,
      "d": 441.1762499999895,
      "v": 62
    },
    {
      "midi": 55,
      "hit": false,
      "t": 172904.3253125001,
      "d": 1599.2639062499802,
      "v": 66
    },
    {
      "midi": 60,
      "hit": false,
      "t": 172922.70765625004,
      "d": 3492.6453125000116,
      "v": 77
    },
    {
      "midi": 67,
      "hit": false,
      "t": 172941.09000000003,
      "d": 1893.3814062500023,
      "v": 69
    },
    {
      "midi": 76,
      "hit": false,
      "t": 172941.09000000003,
      "d": 1948.5284375000047,
      "v": 90
    },
    {
      "midi": 64,
      "hit": false,
      "t": 172941.09000000008,
      "d": 3676.46875,
      "v": 87
    },
    {
      "midi": 55,
      "hit": false,
      "t": 174632.26562500006,
      "d": 1874.999062500021,
      "v": 62
    },
    {
      "midi": 58,
      "hit": false,
      "t": 174650.64796875007,
      "d": 753.676093749993,
      "v": 60
    },
    {
      "midi": 70,
      "hit": false,
      "t": 174687.41265625003,
      "d": 1691.1756250000035,
      "v": 80
    },
    {
      "midi": 74,
      "hit": false,
      "t": 174687.41265625003,
      "d": 1893.3814062500314,
      "v": 92
    },
    {
      "midi": 65,
      "hit": false,
      "t": 176378.58828125006,
      "d": 2536.76343750002,
      "v": 72
    },
    {
      "midi": 57,
      "hit": false,
      "t": 176396.97062500007,
      "d": 1452.2051562500128,
      "v": 53
    },
    {
      "midi": 60,
      "hit": false,
      "t": 176396.97062500007,
      "d": 2113.9695312500116,
      "v": 66
    },
    {
      "midi": 53,
      "hit": false,
      "t": 176452.11765625005,
      "d": 1525.7345312499965,
      "v": 67
    },
    {
      "midi": 69,
      "hit": false,
      "t": 176452.11765625005,
      "d": 3566.1746875000244,
      "v": 78
    },
    {
      "midi": 65,
      "hit": false,
      "t": 176470.50000000006,
      "d": 3547.792343750014,
      "v": 68
    },
    {
      "midi": 72,
      "hit": false,
      "t": 176470.50000000006,
      "d": 3988.9685937500035,
      "v": 92
    },
    {
      "midi": 53,
      "hit": false,
      "t": 177279.32312500008,
      "d": 514.7056250000023,
      "v": 70
    },
    {
      "midi": 55,
      "hit": false,
      "t": 177316.08781250005,
      "d": 882.3525000000081,
      "v": 75
    },
    {
      "midi": 53,
      "hit": false,
      "t": 178143.29328125008,
      "d": 3639.704062500008,
      "v": 72
    },
    {
      "midi": 57,
      "hit": false,
      "t": 178198.44031250005,
      "d": 1746.3226562500058,
      "v": 75
    },
    {
      "midi": 57,
      "hit": false,
      "t": 178602.85187500008,
      "d": 2757.3515625,
      "v": 61
    },
    {
      "midi": 60,
      "hit": false,
      "t": 179007.26343750008,
      "d": 2683.8221875000163,
      "v": 82
    },
    {
      "midi": 65,
      "hit": false,
      "t": 179485.2043750001,
      "d": 2316.1753125000105,
      "v": 78
    },
    {
      "midi": 53,
      "hit": false,
      "t": 179963.14531250007,
      "d": 1856.6167187499814,
      "v": 76
    },
    {
      "midi": 67,
      "hit": false,
      "t": 179999.91000000006,
      "d": 1819.8520312500186,
      "v": 76
    },
    {
      "midi": 71,
      "hit": false,
      "t": 179999.91000000006,
      "d": 1819.8520312500186,
      "v": 94
    },
    {
      "midi": 54,
      "hit": false,
      "t": 181727.85031250006,
      "d": 1783.0873437499977,
      "v": 74
    },
    {
      "midi": 54,
      "hit": false,
      "t": 181727.8503125001,
      "d": 1636.0285937500012,
      "v": 60
    },
    {
      "midi": 57,
      "hit": false,
      "t": 181727.8503125001,
      "d": 1654.4109375000116,
      "v": 57
    },
    {
      "midi": 63,
      "hit": false,
      "t": 181727.8503125001,
      "d": 1709.557968750014,
      "v": 59
    },
    {
      "midi": 69,
      "hit": false,
      "t": 181746.23265625007,
      "d": 1415.440468750021,
      "v": 89
    },
    {
      "midi": 63,
      "hit": false,
      "t": 181746.23265625007,
      "d": 2058.8225000000384,
      "v": 73
    },
    {
      "midi": 60,
      "hit": false,
      "t": 181746.2326562501,
      "d": 1525.7345312499965,
      "v": 68
    },
    {
      "midi": 55,
      "hit": false,
      "t": 183492.55531250004,
      "d": 2242.6459374999977,
      "v": 79
    },
    {
      "midi": 69,
      "hit": false,
      "t": 183510.93765625008,
      "d": 1139.7053125000093,
      "v": 89
    },
    {
      "midi": 64,
      "hit": false,
      "t": 183529.3200000001,
      "d": 2169.116562499985,
      "v": 86
    },
    {
      "midi": 55,
      "hit": false,
      "t": 183547.7023437501,
      "d": 1323.5287499999977,
      "v": 55
    },
    {
      "midi": 60,
      "hit": false,
      "t": 183547.7023437501,
      "d": 1709.5579687499849,
      "v": 57
    },
    {
      "midi": 64,
      "hit": false,
      "t": 183547.7023437501,
      "d": 1948.5284375000047,
      "v": 59
    },
    {
      "midi": 67,
      "hit": false,
      "t": 183547.7023437501,
      "d": 2077.2048437499907,
      "v": 70
    },
    {
      "midi": 67,
      "hit": false,
      "t": 184411.6725000001,
      "d": 2702.2045312499977,
      "v": 78
    },
    {
      "midi": 60,
      "hit": false,
      "t": 185275.64265625004,
      "d": 1911.7637499999837,
      "v": 73
    },
    {
      "midi": 55,
      "hit": false,
      "t": 185330.7896875001,
      "d": 1985.2931249999965,
      "v": 66
    },
    {
      "midi": 60,
      "hit": false,
      "t": 186194.7598437501,
      "d": 772.0584375000035,
      "v": 76
    },
    {
      "midi": 64,
      "hit": false,
      "t": 187040.3476562501,
      "d": 1801.4696875000081,
      "v": 80
    },
    {
      "midi": 61,
      "hit": false,
      "t": 187058.73000000004,
      "d": 1893.3814062499732,
      "v": 81
    },
    {
      "midi": 64,
      "hit": false,
      "t": 187058.7300000001,
      "d": 1378.67578125,
      "v": 70
    },
    {
      "midi": 61,
      "hit": false,
      "t": 187058.7300000001,
      "d": 1507.352187499986,
      "v": 59
    },
    {
      "midi": 67,
      "hit": false,
      "t": 187058.7300000001,
      "d": 1544.1168749999779,
      "v": 72
    },
    {
      "midi": 57,
      "hit": false,
      "t": 187077.1123437501,
      "d": 1011.0289062499942,
      "v": 47
    },
    {
      "midi": 67,
      "hit": false,
      "t": 187922.7001562501,
      "d": 2886.027968749986,
      "v": 79
    },
    {
      "midi": 57,
      "hit": false,
      "t": 188786.67031250006,
      "d": 1819.8520312500186,
      "v": 64
    },
    {
      "midi": 57,
      "hit": false,
      "t": 188805.05265625002,
      "d": 1801.4696875000081,
      "v": 77
    },
    {
      "midi": 61,
      "hit": false,
      "t": 189209.46421875007,
      "d": 735.2937500000116,
      "v": 66
    },
    {
      "midi": 64,
      "hit": false,
      "t": 189632.25812500008,
      "d": 716.9114062500012,
      "v": 70
    },
    {
      "midi": 67,
      "hit": false,
      "t": 190091.81671875008,
      "d": 716.9114062500303,
      "v": 74
    },
    {
      "midi": 60,
      "hit": false,
      "t": 190569.75765625,
      "d": 3621.321718750027,
      "v": 83
    },
    {
      "midi": 53,
      "hit": false,
      "t": 190588.14,
      "d": 3547.792343750014,
      "v": 72
    },
    {
      "midi": 53,
      "hit": false,
      "t": 190624.9046875001,
      "d": 1378.675781250029,
      "v": 37
    },
    {
      "midi": 60,
      "hit": false,
      "t": 190624.9046875001,
      "d": 1893.3814062500314,
      "v": 60
    },
    {
      "midi": 65,
      "hit": false,
      "t": 190643.2870312501,
      "d": 2003.675468750007,
      "v": 82
    },
    {
      "midi": 69,
      "hit": false,
      "t": 192352.8450000001,
      "d": 882.3525000000081,
      "v": 94
    },
    {
      "midi": 65,
      "hit": false,
      "t": 192371.2273437501,
      "d": 1286.7640625000058,
      "v": 70
    },
    {
      "midi": 53,
      "hit": false,
      "t": 192371.22734375013,
      "d": 2022.0578125000175,
      "v": 89
    },
    {
      "midi": 60,
      "hit": false,
      "t": 193180.05046875012,
      "d": 349.26453124999534,
      "v": 72
    },
    {
      "midi": 72,
      "hit": false,
      "t": 193216.8151562501,
      "d": 1121.322968750028,
      "v": 100
    },
    {
      "midi": 55,
      "hit": false,
      "t": 194080.7853125001,
      "d": 1268.3817187500244,
      "v": 61
    },
    {
      "midi": 74,
      "hit": false,
      "t": 194099.1676562501,
      "d": 1948.5284375000629,
      "v": 100
    },
    {
      "midi": 65,
      "hit": false,
      "t": 194099.16765625012,
      "d": 1599.2639062500384,
      "v": 70
    },
    {
      "midi": 65,
      "hit": false,
      "t": 194117.5500000001,
      "d": 1856.6167187500396,
      "v": 98
    },
    {
      "midi": 59,
      "hit": false,
      "t": 194117.55000000013,
      "d": 1507.3521875000151,
      "v": 60
    },
    {
      "midi": 62,
      "hit": false,
      "t": 194117.55000000013,
      "d": 1599.2639062500384,
      "v": 68
    },
    {
      "midi": 59,
      "hit": false,
      "t": 194135.93234375003,
      "d": 3455.8806249999907,
      "v": 62
    },
    {
      "midi": 55,
      "hit": false,
      "t": 194135.93234375003,
      "d": 3713.233437499992,
      "v": 62
    },
    {
      "midi": 55,
      "hit": false,
      "t": 195808.72562500017,
      "d": 1066.1759374999965,
      "v": 70
    },
    {
      "midi": 76,
      "hit": false,
      "t": 195882.25500000012,
      "d": 1801.4696875000373,
      "v": 96
    },
    {
      "midi": 67,
      "hit": false,
      "t": 195900.63734375013,
      "d": 1727.9403125000244,
      "v": 71
    },
    {
      "midi": 59,
      "hit": false,
      "t": 196213.13718750016,
      "d": 772.0584375000035,
      "v": 66
    },
    {
      "midi": 62,
      "hit": false,
      "t": 196580.78406250017,
      "d": 606.6173437499965,
      "v": 74
    },
    {
      "midi": 65,
      "hit": false,
      "t": 197095.48968750017,
      "d": 698.5290624999907,
      "v": 78
    },
    {
      "midi": 72,
      "hit": false,
      "t": 197628.57765625016,
      "d": 3841.909843750007,
      "v": 90
    },
    {
      "midi": 64,
      "hit": false,
      "t": 197646.96000000017,
      "d": 2794.116249999992,
      "v": 81
    },
    {
      "midi": 60,
      "hit": false,
      "t": 197665.34234375003,
      "d": 2518.38109374998,
      "v": 55
    },
    {
      "midi": 55,
      "hit": false,
      "t": 197665.34234375018,
      "d": 2003.6754687499779,
      "v": 47
    },
    {
      "midi": 60,
      "hit": false,
      "t": 197665.34234375018,
      "d": 2959.5573437499697,
      "v": 51
    },
    {
      "midi": 64,
      "hit": false,
      "t": 197665.34234375018,
      "d": 2977.93968749998,
      "v": 59
    },
    {
      "midi": 48,
      "hit": false,
      "t": 197665.34234375018,
      "d": 8051.46656250002,
      "v": 55
    },
    {
      "midi": 55,
      "hit": false,
      "t": 199374.90031250002,
      "d": 827.2054687500058,
      "v": 70
    },
    {
      "midi": 57,
      "hit": false,
      "t": 200238.87046875,
      "d": 955.8818749999919,
      "v": 78
    },
    {
      "midi": 55,
      "hit": false,
      "t": 200275.63515625015,
      "d": 238.9704687499907,
      "v": 56
    },
    {
      "midi": 55,
      "hit": false,
      "t": 201121.22296875017,
      "d": 3437.4982812500093,
      "v": 53
    },
    {
      "midi": 55,
      "hit": false,
      "t": 201139.6053125,
      "d": 4669.115312499984,
      "v": 76
    },
    {
      "midi": 67,
      "hit": false,
      "t": 201157.98765625016,
      "d": 1580.881562500028,
      "v": 79
    },
    {
      "midi": 64,
      "hit": false,
      "t": 201176.37000000017,
      "d": 1084.558281250007,
      "v": 79
    },
    {
      "midi": 60,
      "hit": false,
      "t": 201985.19312500017,
      "d": 937.4995312500105,
      "v": 62
    },
    {
      "midi": 64,
      "hit": false,
      "t": 202867.54562500017,
      "d": 1746.3226562500058,
      "v": 70
    },
    {
      "midi": 67,
      "hit": false,
      "t": 202922.69265625018,
      "d": 1783.0873437499977,
      "v": 78
    },
    {
      "midi": 72,
      "hit": false,
      "t": 202922.69265625018,
      "d": 1911.7637499999837,
      "v": 92
    },
    {
      "midi": 64,
      "hit": false,
      "t": 202941.0750000002,
      "d": 1617.6462499999907,
      "v": 73
    },
    {
      "midi": 60,
      "hit": false,
      "t": 203749.89812500018,
      "d": 4761.027031250007,
      "v": 63
    },
    {
      "midi": 65,
      "hit": false,
      "t": 204669.01531250018,
      "d": 4448.5271875000035,
      "v": 58
    },
    {
      "midi": 69,
      "hit": false,
      "t": 204687.39765625016,
      "d": 3988.9685937500035,
      "v": 86
    },
    {
      "midi": 57,
      "hit": false,
      "t": 204687.3976562502,
      "d": 3713.233437499992,
      "v": 46
    },
    {
      "midi": 65,
      "hit": false,
      "t": 204705.78000000017,
      "d": 2352.939999999973,
      "v": 68
    },
    {
      "midi": 60,
      "hit": false,
      "t": 204705.78000000017,
      "d": 2702.2045312499686,
      "v": 75
    },
    {
      "midi": 53,
      "hit": false,
      "t": 204705.7800000002,
      "d": 2169.116562499985,
      "v": 49
    },
    {
      "midi": 57,
      "hit": false,
      "t": 205569.75015625,
      "d": 1011.0289062499651,
      "v": 81
    },
    {
      "midi": 55,
      "hit": false,
      "t": 206452.10265624998,
      "d": 6176.467499999999,
      "v": 74
    },
    {
      "midi": 53,
      "hit": false,
      "t": 207334.4551562502,
      "d": 330.88218750001397,
      "v": 72
    },
    {
      "midi": 60,
      "hit": false,
      "t": 208235.19000000015,
      "d": 1176.4700000000303,
      "v": 60
    },
    {
      "midi": 62,
      "hit": false,
      "t": 208253.57234375016,
      "d": 1139.7053125000093,
      "v": 79
    },
    {
      "midi": 65,
      "hit": false,
      "t": 208253.57234375016,
      "d": 1231.6170312500326,
      "v": 64
    },
    {
      "midi": 53,
      "hit": false,
      "t": 208253.5723437502,
      "d": 3768.3804687500233,
      "v": 68
    },
    {
      "midi": 57,
      "hit": false,
      "t": 209117.54250000019,
      "d": 1121.3229687499988,
      "v": 66
    },
    {
      "midi": 65,
      "hit": false,
      "t": 209981.51265625018,
      "d": 1856.6167187500396,
      "v": 71
    },
    {
      "midi": 60,
      "hit": false,
      "t": 209999.8950000002,
      "d": 1286.7640625000058,
      "v": 62
    },
    {
      "midi": 62,
      "hit": false,
      "t": 209999.8950000002,
      "d": 1323.5287499999977,
      "v": 70
    },
    {
      "midi": 60,
      "hit": false,
      "t": 209999.8950000002,
      "d": 992.6465624999837,
      "v": 76
    },
    {
      "midi": 65,
      "hit": false,
      "t": 210827.10046875017,
      "d": 1011.0289062500233,
      "v": 60
    },
    {
      "midi": 67,
      "hit": false,
      "t": 211746.2176562502,
      "d": 2886.027968750015,
      "v": 73
    },
    {
      "midi": 64,
      "hit": false,
      "t": 211764.6000000002,
      "d": 2426.469375000015,
      "v": 73
    },
    {
      "midi": 60,
      "hit": false,
      "t": 211764.6000000002,
      "d": 3988.9685937500035,
      "v": 68
    },
    {
      "midi": 64,
      "hit": false,
      "t": 211819.74703125018,
      "d": 2867.6456250000338,
      "v": 70
    },
    {
      "midi": 55,
      "hit": false,
      "t": 211838.1293750002,
      "d": 1874.999062500021,
      "v": 49
    },
    {
      "midi": 60,
      "hit": false,
      "t": 211838.1293750002,
      "d": 2261.028281250008,
      "v": 58
    },
    {
      "midi": 48,
      "hit": false,
      "t": 211856.5117187502,
      "d": 7058.820000000007,
      "v": 53
    },
    {
      "midi": 57,
      "hit": false,
      "t": 212610.18781249996,
      "d": 992.6465625000128,
      "v": 71
    },
    {
      "midi": 55,
      "hit": false,
      "t": 213492.54031249997,
      "d": 6323.526249999995,
      "v": 57
    },
    {
      "midi": 55,
      "hit": false,
      "t": 214430.03984375022,
      "d": 294.117499999993,
      "v": 59
    },
    {
      "midi": 67,
      "hit": false,
      "t": 215294.0100000002,
      "d": 1544.116875000007,
      "v": 79
    },
    {
      "midi": 55,
      "hit": false,
      "t": 215294.0100000002,
      "d": 3419.1159374999697,
      "v": 59
    },
    {
      "midi": 64,
      "hit": false,
      "t": 215312.39234375022,
      "d": 992.6465624999837,
      "v": 73
    },
    {
      "midi": 60,
      "hit": false,
      "t": 216139.5978125002,
      "d": 955.8818749999919,
      "v": 56
    },
    {
      "midi": 72,
      "hit": false,
      "t": 217040.33265625022,
      "d": 1783.0873437499977,
      "v": 87
    },
    {
      "midi": 67,
      "hit": false,
      "t": 217058.7150000002,
      "d": 1764.7049999999872,
      "v": 72
    },
    {
      "midi": 67,
      "hit": false,
      "t": 217058.71500000023,
      "d": 1727.9403124999953,
      "v": 70
    },
    {
      "midi": 64,
      "hit": false,
      "t": 217058.71500000023,
      "d": 1893.3814062500023,
      "v": 70
    },
    {
      "midi": 60,
      "hit": false,
      "t": 217867.5381250002,
      "d": 202.20578124999884,
      "v": 58
    },
    {
      "midi": 65,
      "hit": false,
      "t": 218805.03765625018,
      "d": 2904.4103125000256,
      "v": 70
    },
    {
      "midi": 57,
      "hit": false,
      "t": 218823.4200000002,
      "d": 3235.2925000000105,
      "v": 52
    },
    {
      "midi": 69,
      "hit": false,
      "t": 218823.42000000022,
      "d": 3602.9393750000163,
      "v": 81
    },
    {
      "midi": 53,
      "hit": false,
      "t": 218841.8023437502,
      "d": 2132.351875000022,
      "v": 54
    },
    {
      "midi": 60,
      "hit": false,
      "t": 218841.8023437502,
      "d": 2812.4985937500023,
      "v": 52
    },
    {
      "midi": 60,
      "hit": false,
      "t": 218841.80234375023,
      "d": 3749.998125000013,
      "v": 77
    },
    {
      "midi": 65,
      "hit": false,
      "t": 218841.80234375023,
      "d": 3805.145156250015,
      "v": 72
    },
    {
      "midi": 57,
      "hit": false,
      "t": 219669.00781249997,
      "d": 900.7348437500186,
      "v": 70
    },
    {
      "midi": 55,
      "hit": false,
      "t": 220551.36031249998,
      "d": 3584.557031250006,
      "v": 60
    },
    {
      "midi": 53,
      "hit": false,
      "t": 221470.4775000002,
      "d": 2647.0574999999953,
      "v": 70
    },
    {
      "midi": 65,
      "hit": false,
      "t": 222334.4476562502,
      "d": 3547.792343749985,
      "v": 78
    },
    {
      "midi": 60,
      "hit": false,
      "t": 223198.4178125002,
      "d": 1819.8520312499895,
      "v": 56
    },
    {
      "midi": 57,
      "hit": false,
      "t": 224062.3879687502,
      "d": 1617.6462499999907,
      "v": 70
    },
    {
      "midi": 65,
      "hit": false,
      "t": 224080.77031250024,
      "d": 533.0879687500128,
      "v": 77
    },
    {
      "midi": 53,
      "hit": false,
      "t": 224963.1228125002,
      "d": 1084.558281250007,
      "v": 68
    },
    {
      "midi": 65,
      "hit": false,
      "t": 224981.50515625026,
      "d": 937.4995312500105,
      "v": 79
    },
    {
      "midi": 55,
      "hit": false,
      "t": 225900.62234374997,
      "d": 1672.793281249993,
      "v": 97
    },
    {
      "midi": 48,
      "hit": false,
      "t": 225900.62234374997,
      "d": 3455.88062500002,
      "v": 89
    },
    {
      "midi": 55,
      "hit": false,
      "t": 225900.6223437502,
      "d": 1893.3814062500023,
      "v": 57
    },
    {
      "midi": 60,
      "hit": false,
      "t": 225900.6223437502,
      "d": 3419.115937500028,
      "v": 58
    },
    {
      "midi": 64,
      "hit": false,
      "t": 225900.6223437502,
      "d": 3566.1746875000244,
      "v": 76
    },
    {
      "midi": 64,
      "hit": false,
      "t": 225900.62234375026,
      "d": 1764.7050000000163,
      "v": 91
    },
    {
      "midi": 53,
      "hit": false,
      "t": 227628.56265624997,
      "d": 937.4995312500105,
      "v": 98
    },
    {
      "midi": 62,
      "hit": false,
      "t": 227646.94500000027,
      "d": 827.2054687500058,
      "v": 93
    },
    {
      "midi": 52,
      "hit": false,
      "t": 228492.53281249997,
      "d": 2904.4103125000256,
      "v": 97
    },
    {
      "midi": 55,
      "hit": false,
      "t": 228510.9151562502,
      "d": 330.88218750001397,
      "v": 78
    },
    {
      "midi": 60,
      "hit": false,
      "t": 228510.91515625027,
      "d": 9926.465625000012,
      "v": 87
    },
    {
      "midi": 55,
      "hit": false,
      "t": 229374.88531250024,
      "d": 3272.0571875000314,
      "v": 70
    },
    {
      "midi": 60,
      "hit": false,
      "t": 230257.23781250024,
      "d": 974.2642187500023,
      "v": 76
    },
    {
      "midi": 64,
      "hit": false,
      "t": 231121.20796875024,
      "d": 1158.0876562500198,
      "v": 91
    },
    {
      "midi": 48,
      "hit": false,
      "t": 231157.97265625,
      "d": 1783.0873437499686,
      "v": 94
    },
    {
      "midi": 60,
      "hit": false,
      "t": 232003.56046875025,
      "d": 441.1762500000186,
      "v": 70
    },
    {
      "midi": 53,
      "hit": false,
      "t": 232904.29531249998,
      "d": 1764.7050000000163,
      "v": 93
    },
    {
      "midi": 57,
      "hit": false,
      "t": 232904.29531249998,
      "d": 1764.7050000000163,
      "v": 87
    },
    {
      "midi": 65,
      "hit": false,
      "t": 232922.67765625028,
      "d": 4448.527187500033,
      "v": 74
    },
    {
      "midi": 53,
      "hit": false,
      "t": 232941.0600000003,
      "d": 1801.4696875000081,
      "v": 58
    },
    {
      "midi": 57,
      "hit": false,
      "t": 232941.0600000003,
      "d": 1930.1460937499942,
      "v": 39
    },
    {
      "midi": 48,
      "hit": false,
      "t": 234650.61796874998,
      "d": 1856.6167187500396,
      "v": 90
    },
    {
      "midi": 53,
      "hit": false,
      "t": 235532.97046875028,
      "d": 349.26453124999534,
      "v": 76
    },
    {
      "midi": 57,
      "hit": false,
      "t": 236415.32296875,
      "d": 3786.7628125000047,
      "v": 85
    },
    {
      "midi": 53,
      "hit": false,
      "t": 236415.3229687503,
      "d": 2794.116250000021,
      "v": 85
    },
    {
      "midi": 53,
      "hit": false,
      "t": 236433.7053125,
      "d": 2720.586875000008,
      "v": 90
    },
    {
      "midi": 60,
      "hit": false,
      "t": 237297.6754687503,
      "d": 1029.4112500000047,
      "v": 89
    },
    {
      "midi": 65,
      "hit": false,
      "t": 238198.41031250032,
      "d": 1323.5287499999977,
      "v": 74
    },
    {
      "midi": 65,
      "hit": false,
      "t": 238235.17500000028,
      "d": 661.7643749999988,
      "v": 93
    },
    {
      "midi": 57,
      "hit": false,
      "t": 239062.3804687503,
      "d": 863.9701562499977,
      "v": 72
    },
    {
      "midi": 65,
      "hit": false,
      "t": 239117.5275000003,
      "d": 1268.3817187499953,
      "v": 101
    },
    {
      "midi": 55,
      "hit": false,
      "t": 239999.88000000032,
      "d": 1930.1460937500233,
      "v": 66
    },
    {
      "midi": 48,
      "hit": false,
      "t": 240018.26234375002,
      "d": 2536.7634374999907,
      "v": 90
    },
    {
      "midi": 55,
      "hit": false,
      "t": 240018.26234375002,
      "d": 2922.792656249978,
      "v": 89
    },
    {
      "midi": 67,
      "hit": false,
      "t": 240018.26234375028,
      "d": 1930.1460937499942,
      "v": 98
    },
    {
      "midi": 64,
      "hit": false,
      "t": 240018.26234375034,
      "d": 3492.6453125000407,
      "v": 85
    },
    {
      "midi": 60,
      "hit": false,
      "t": 240073.40937500034,
      "d": 3363.9689062500256,
      "v": 37
    },
    {
      "midi": 64,
      "hit": false,
      "t": 241764.58500000028,
      "d": 7003.672968749976,
      "v": 85
    },
    {
      "midi": 55,
      "hit": false,
      "t": 242646.93750000035,
      "d": 312.4998437500035,
      "v": 80
    },
    {
      "midi": 55,
      "hit": false,
      "t": 243492.5253125,
      "d": 1084.5582812499779,
      "v": 94
    },
    {
      "midi": 55,
      "hit": false,
      "t": 243510.90765625038,
      "d": 1966.910781249986,
      "v": 74
    },
    {
      "midi": 60,
      "hit": false,
      "t": 244374.87781250037,
      "d": 974.2642187500023,
      "v": 82
    },
    {
      "midi": 60,
      "hit": false,
      "t": 244393.26015624998,
      "d": 992.6465624999837,
      "v": 90
    },
    {
      "midi": 64,
      "hit": false,
      "t": 245257.23031250038,
      "d": 3511.027656249964,
      "v": 82
    },
    {
      "midi": 55,
      "hit": false,
      "t": 245293.99499999997,
      "d": 1893.3814062499732,
      "v": 89
    },
    {
      "midi": 55,
      "hit": false,
      "t": 246121.20046875035,
      "d": 202.20578124999884,
      "v": 63
    },
    {
      "midi": 60,
      "hit": false,
      "t": 246121.20046875035,
      "d": 459.55859375,
      "v": 72
    },
    {
      "midi": 60,
      "hit": false,
      "t": 247021.93531250034,
      "d": 1985.2931249999965,
      "v": 72
    },
    {
      "midi": 65,
      "hit": false,
      "t": 247021.93531250034,
      "d": 7297.7904687499395,
      "v": 82
    },
    {
      "midi": 53,
      "hit": false,
      "t": 247040.31765625035,
      "d": 1819.8520312499895,
      "v": 76
    },
    {
      "midi": 53,
      "hit": false,
      "t": 247058.69999999995,
      "d": 7187.496406249993,
      "v": 91
    },
    {
      "midi": 69,
      "hit": false,
      "t": 248805.02265625025,
      "d": 1930.1460937499942,
      "v": 106
    },
    {
      "midi": 60,
      "hit": false,
      "t": 248823.40500000026,
      "d": 1930.1460937499942,
      "v": 94
    },
    {
      "midi": 60,
      "hit": false,
      "t": 249650.61046875032,
      "d": 1102.9406249999884,
      "v": 76
    },
    {
      "midi": 53,
      "hit": false,
      "t": 249668.99281250034,
      "d": 1084.5582812499779,
      "v": 68
    },
    {
      "midi": 58,
      "hit": false,
      "t": 250569.72765625032,
      "d": 1838.234374999971,
      "v": 61
    },
    {
      "midi": 62,
      "hit": false,
      "t": 250569.72765625032,
      "d": 1874.9990624999627,
      "v": 87
    },
    {
      "midi": 62,
      "hit": false,
      "t": 250588.11000000025,
      "d": 1930.1460937500233,
      "v": 95
    },
    {
      "midi": 70,
      "hit": false,
      "t": 250588.11000000025,
      "d": 2003.675468750036,
      "v": 97
    },
    {
      "midi": 57,
      "hit": false,
      "t": 252316.0503125003,
      "d": 1433.8228124999732,
      "v": 63
    },
    {
      "midi": 60,
      "hit": false,
      "t": 252316.0503125003,
      "d": 1654.4109374999825,
      "v": 70
    },
    {
      "midi": 69,
      "hit": false,
      "t": 252352.81500000026,
      "d": 1727.9403125000244,
      "v": 98
    },
    {
      "midi": 60,
      "hit": false,
      "t": 252352.81500000026,
      "d": 1819.8520312500186,
      "v": 84
    },
    {
      "midi": 48,
      "hit": false,
      "t": 254099.13765624995,
      "d": 2095.587187500001,
      "v": 93
    },
    {
      "midi": 52,
      "hit": false,
      "t": 254099.13765625027,
      "d": 3345.5865625000442,
      "v": 85
    },
    {
      "midi": 64,
      "hit": false,
      "t": 254117.52000000028,
      "d": 4264.703750000015,
      "v": 85
    },
    {
      "midi": 67,
      "hit": false,
      "t": 254117.52000000028,
      "d": 5330.879687500012,
      "v": 97
    },
    {
      "midi": 60,
      "hit": false,
      "t": 254117.52000000028,
      "d": 3308.8218750000233,
      "v": 80
    },
    {
      "midi": 55,
      "hit": false,
      "t": 254172.66703125028,
      "d": 1783.0873437499977,
      "v": 49
    },
    {
      "midi": 55,
      "hit": false,
      "t": 255845.46031249996,
      "d": 955.881875000021,
      "v": 82
    },
    {
      "midi": 57,
      "hit": false,
      "t": 256727.81281249996,
      "d": 1102.9406250000175,
      "v": 81
    },
    {
      "midi": 55,
      "hit": false,
      "t": 256746.1951562503,
      "d": 312.4998437500035,
      "v": 82
    },
    {
      "midi": 55,
      "hit": false,
      "t": 257610.16531250032,
      "d": 1764.7050000000163,
      "v": 76
    },
    {
      "midi": 55,
      "hit": false,
      "t": 257628.54765624998,
      "d": 3455.8806249999907,
      "v": 95
    },
    {
      "midi": 60,
      "hit": false,
      "t": 258492.51781250033,
      "d": 1066.1759374999965,
      "v": 78
    },
    {
      "midi": 64,
      "hit": false,
      "t": 259374.87031250034,
      "d": 1231.6170312499744,
      "v": 76
    },
    {
      "midi": 72,
      "hit": false,
      "t": 259393.2526562503,
      "d": 882.3525000000081,
      "v": 110
    },
    {
      "midi": 64,
      "hit": false,
      "t": 259411.6350000003,
      "d": 790.4407812499849,
      "v": 80
    },
    {
      "midi": 60,
      "hit": false,
      "t": 260257.22281250032,
      "d": 441.1762499999895,
      "v": 74
    },
    {
      "midi": 69,
      "hit": false,
      "t": 260275.6051562503,
      "d": 5808.820624999993,
      "v": 99
    },
    {
      "midi": 65,
      "hit": false,
      "t": 260275.6051562503,
      "d": 5827.202968749974,
      "v": 82
    },
    {
      "midi": 65,
      "hit": false,
      "t": 261121.1929687503,
      "d": 4981.615156250016,
      "v": 80
    },
    {
      "midi": 53,
      "hit": false,
      "t": 261139.57531249998,
      "d": 2316.1753125000105,
      "v": 92
    },
    {
      "midi": 53,
      "hit": false,
      "t": 261139.57531250032,
      "d": 2316.1753125000105,
      "v": 68
    },
    {
      "midi": 60,
      "hit": false,
      "t": 261139.57531250032,
      "d": 3933.821562500001,
      "v": 72
    },
    {
      "midi": 60,
      "hit": false,
      "t": 262904.28031249996,
      "d": 882.3525000000373,
      "v": 98
    },
    {
      "midi": 62,
      "hit": false,
      "t": 263786.6328125,
      "d": 1047.7935937500442,
      "v": 91
    },
    {
      "midi": 53,
      "hit": false,
      "t": 263786.63281250035,
      "d": 312.4998437499744,
      "v": 80
    },
    {
      "midi": 53,
      "hit": false,
      "t": 264668.9853125003,
      "d": 2886.027968749986,
      "v": 74
    },
    {
      "midi": 60,
      "hit": false,
      "t": 264687.36765625,
      "d": 3566.1746875000536,
      "v": 90
    },
    {
      "midi": 60,
      "hit": false,
      "t": 265551.3378125003,
      "d": 2113.9695312500116,
      "v": 74
    },
    {
      "midi": 65,
      "hit": false,
      "t": 266433.69031250034,
      "d": 1452.2051562499837,
      "v": 72
    },
    {
      "midi": 69,
      "hit": false,
      "t": 266470.45500000025,
      "d": 1985.2931250000256,
      "v": 101
    },
    {
      "midi": 65,
      "hit": false,
      "t": 266488.83734375023,
      "d": 1011.0289062500233,
      "v": 85
    },
    {
      "midi": 57,
      "hit": false,
      "t": 267316.0428125003,
      "d": 1029.4112499999464,
      "v": 63
    },
    {
      "midi": 55,
      "hit": false,
      "t": 268216.77765625005,
      "d": 1819.8520312500186,
      "v": 101
    },
    {
      "midi": 67,
      "hit": false,
      "t": 268235.16000000027,
      "d": 441.1762500000186,
      "v": 106
    },
    {
      "midi": 64,
      "hit": false,
      "t": 268253.5423437503,
      "d": 3345.586562499928,
      "v": 87
    },
    {
      "midi": 60,
      "hit": false,
      "t": 268253.5423437503,
      "d": 3363.968906249909,
      "v": 59
    },
    {
      "midi": 55,
      "hit": false,
      "t": 268271.9246875003,
      "d": 2022.0578124999884,
      "v": 74
    },
    {
      "midi": 64,
      "hit": false,
      "t": 268860.1596875003,
      "d": 386.0292187500163,
      "v": 93
    },
    {
      "midi": 62,
      "hit": false,
      "t": 269430.0123437503,
      "d": 551.4703125000233,
      "v": 95
    },
    {
      "midi": 52,
      "hit": false,
      "t": 269944.71796875005,
      "d": 1856.6167187499814,
      "v": 73
    },
    {
      "midi": 60,
      "hit": false,
      "t": 270055.0120312503,
      "d": 4393.380156249972,
      "v": 98
    },
    {
      "midi": 55,
      "hit": false,
      "t": 270882.21750000026,
      "d": 294.117499999993,
      "v": 70
    },
    {
      "midi": 57,
      "hit": false,
      "t": 271727.80531250004,
      "d": 1985.2931249999674,
      "v": 76
    },
    {
      "midi": 53,
      "hit": false,
      "t": 271746.18765625,
      "d": 1764.704999999958,
      "v": 91
    },
    {
      "midi": 53,
      "hit": false,
      "t": 271782.9523437502,
      "d": 1985.2931250000256,
      "v": 89
    },
    {
      "midi": 60,
      "hit": false,
      "t": 271819.71703125024,
      "d": 2849.2632812500233,
      "v": 74
    },
    {
      "midi": 65,
      "hit": false,
      "t": 271819.71703125024,
      "d": 3272.0571875000023,
      "v": 60
    },
    {
      "midi": 48,
      "hit": false,
      "t": 273492.5103125,
      "d": 1158.0876562499907,
      "v": 78
    },
    {
      "midi": 53,
      "hit": false,
      "t": 274374.8628125003,
      "d": 882.352499999979,
      "v": 80
    },
    {
      "midi": 62,
      "hit": false,
      "t": 274448.39218750026,
      "d": 202.20578124996973,
      "v": 74
    },
    {
      "midi": 64,
      "hit": false,
      "t": 274577.06859375024,
      "d": 202.20578124996973,
      "v": 84
    },
    {
      "midi": 65,
      "hit": false,
      "t": 274705.7450000002,
      "d": 202.20578124996973,
      "v": 84
    },
    {
      "midi": 67,
      "hit": false,
      "t": 274834.4214062502,
      "d": 183.82343749998836,
      "v": 84
    },
    {
      "midi": 69,
      "hit": false,
      "t": 274963.0978125002,
      "d": 147.0587499999674,
      "v": 84
    },
    {
      "midi": 71,
      "hit": false,
      "t": 275091.7742187502,
      "d": 202.20578124996973,
      "v": 94
    },
    {
      "midi": 55,
      "hit": false,
      "t": 275238.83296875027,
      "d": 588.234999999986,
      "v": 60
    },
    {
      "midi": 60,
      "hit": false,
      "t": 275238.83296875027,
      "d": 1323.5287499999395,
      "v": 72
    },
    {
      "midi": 48,
      "hit": false,
      "t": 275257.2153125,
      "d": 2334.5576562499627,
      "v": 77
    },
    {
      "midi": 64,
      "hit": false,
      "t": 275257.21531250025,
      "d": 1378.6757812499418,
      "v": 78
    },
    {
      "midi": 52,
      "hit": false,
      "t": 275275.59765625,
      "d": 1930.146093749965,
      "v": 90
    },
    {
      "midi": 72,
      "hit": false,
      "t": 275293.98000000016,
      "d": 5900.732343750016,
      "v": 106
    },
    {
      "midi": 55,
      "hit": false,
      "t": 276139.56781250023,
      "d": 2757.351562499942,
      "v": 70
    },
    {
      "midi": 55,
      "hit": false,
      "t": 277021.9203125,
      "d": 1930.1460937500233,
      "v": 92
    },
    {
      "midi": 60,
      "hit": false,
      "t": 277021.9203125002,
      "d": 1231.6170312499744,
      "v": 85
    },
    {
      "midi": 64,
      "hit": false,
      "t": 277885.8904687502,
      "d": 1121.3229687499697,
      "v": 78
    },
    {
      "midi": 53,
      "hit": false,
      "t": 278786.62531250017,
      "d": 2095.5871875000303,
      "v": 66
    },
    {
      "midi": 60,
      "hit": false,
      "t": 278786.62531250017,
      "d": 2297.792968750058,
      "v": 68
    },
    {
      "midi": 57,
      "hit": false,
      "t": 278805.00765625,
      "d": 1066.1759375000256,
      "v": 93
    },
    {
      "midi": 60,
      "hit": false,
      "t": 278805.00765625,
      "d": 1194.8523437500116,
      "v": 86
    },
    {
      "midi": 65,
      "hit": false,
      "t": 278805.00765625015,
      "d": 2352.9400000000605,
      "v": 76
    },
    {
      "midi": 55,
      "hit": false,
      "t": 279705.7425,
      "d": 1011.0289062499651,
      "v": 87
    },
    {
      "midi": 53,
      "hit": false,
      "t": 280588.095,
      "d": 1856.6167187499814,
      "v": 97
    },
    {
      "midi": 65,
      "hit": false,
      "t": 281433.6828125002,
      "d": 1194.8523437500116,
      "v": 62
    },
    {
      "midi": 60,
      "hit": false,
      "t": 281433.6828125002,
      "d": 4705.880000000005,
      "v": 68
    },
    {
      "midi": 53,
      "hit": false,
      "t": 281452.0651562502,
      "d": 808.8231249999953,
      "v": 64
    },
    {
      "midi": 55,
      "hit": false,
      "t": 282334.41765624995,
      "d": 5128.673906249984,
      "v": 97
    },
    {
      "midi": 48,
      "hit": false,
      "t": 282334.41765624995,
      "d": 7113.967031250009,
      "v": 86
    },
    {
      "midi": 55,
      "hit": false,
      "t": 282352.8000000002,
      "d": 2132.351874999993,
      "v": 52
    },
    {
      "midi": 64,
      "hit": false,
      "t": 282352.8000000002,
      "d": 3878.674531250028,
      "v": 80
    },
    {
      "midi": 60,
      "hit": false,
      "t": 284117.5050000002,
      "d": 1746.3226562499767,
      "v": 84
    },
    {
      "midi": 64,
      "hit": false,
      "t": 284117.5050000002,
      "d": 1893.3814062499441,
      "v": 101
    },
    {
      "midi": 55,
      "hit": false,
      "t": 284981.47515625024,
      "d": 349.26453124999534,
      "v": 68
    },
    {
      "midi": 55,
      "hit": false,
      "t": 285863.8276562502,
      "d": 2371.3223437501,
      "v": 72
    },
    {
      "midi": 62,
      "hit": false,
      "t": 285882.21000000014,
      "d": 1764.704999999958,
      "v": 92
    },
    {
      "midi": 59,
      "hit": false,
      "t": 285882.21000000014,
      "d": 1838.2343749999418,
      "v": 91
    },
    {
      "midi": 62,
      "hit": false,
      "t": 286727.79781250027,
      "d": 1047.7935937500442,
      "v": 60
    },
    {
      "midi": 67,
      "hit": false,
      "t": 287628.5326562503,
      "d": 1783.0873437500559,
      "v": 80
    },
    {
      "midi": 60,
      "hit": false,
      "t": 287646.9150000001,
      "d": 937.4995312499814,
      "v": 95
    },
    {
      "midi": 57,
      "hit": false,
      "t": 287646.9150000001,
      "d": 1029.4112500000047,
      "v": 93
    },
    {
      "midi": 60,
      "hit": false,
      "t": 288510.8851562503,
      "d": 937.4995312499814,
      "v": 61
    },
    {
      "midi": 62,
      "hit": false,
      "t": 288529.2675000001,
      "d": 6764.702500000014,
      "v": 94
    },
    {
      "midi": 59,
      "hit": false,
      "t": 288529.2675000001,
      "d": 6819.849531250016,
      "v": 94
    },
    {
      "midi": 43,
      "hit": false,
      "t": 289393.23765624996,
      "d": 2352.9400000000023,
      "v": 89
    },
    {
      "midi": 55,
      "hit": false,
      "t": 289430.0023437503,
      "d": 2022.0578124999884,
      "v": 52
    },
    {
      "midi": 59,
      "hit": false,
      "t": 289430.0023437503,
      "d": 3419.115937500028,
      "v": 55
    },
    {
      "midi": 62,
      "hit": false,
      "t": 289430.0023437503,
      "d": 3511.027656249993,
      "v": 60
    },
    {
      "midi": 67,
      "hit": false,
      "t": 289430.0023437503,
      "d": 3566.1746874999953,
      "v": 62
    },
    {
      "midi": 50,
      "hit": false,
      "t": 291157.94265625,
      "d": 937.4995312499814,
      "v": 91
    },
    {
      "midi": 55,
      "hit": false,
      "t": 292003.53046875034,
      "d": 349.26453124999534,
      "v": 82
    },
    {
      "midi": 52,
      "hit": false,
      "t": 292040.29515624995,
      "d": 1102.9406250000466,
      "v": 83
    },
    {
      "midi": 55,
      "hit": false,
      "t": 292867.50062500034,
      "d": 3051.469062499993,
      "v": 85
    },
    {
      "midi": 50,
      "hit": false,
      "t": 292941.02999999997,
      "d": 1268.3817187500536,
      "v": 92
    },
    {
      "midi": 59,
      "hit": false,
      "t": 293657.94140625035,
      "d": 2334.5576562499627,
      "v": 74
    },
    {
      "midi": 62,
      "hit": false,
      "t": 294577.05859375035,
      "d": 1397.0581249999814,
      "v": 78
    },
    {
      "midi": 50,
      "hit": false,
      "t": 294687.35265625,
      "d": 2132.351874999993,
      "v": 97
    },
    {
      "midi": 67,
      "hit": false,
      "t": 295496.17578125035,
      "d": 643.3820312499884,
      "v": 68
    },
    {
      "midi": 62,
      "hit": false,
      "t": 296415.29296875035,
      "d": 2775.7339062499814,
      "v": 62
    },
    {
      "midi": 67,
      "hit": false,
      "t": 296415.29296875035,
      "d": 3988.9685937499744,
      "v": 74
    },
    {
      "midi": 55,
      "hit": false,
      "t": 296433.67531250033,
      "d": 1286.7640624999767,
      "v": 60
    },
    {
      "midi": 59,
      "hit": false,
      "t": 296433.67531250033,
      "d": 2757.3515625,
      "v": 61
    },
    {
      "midi": 67,
      "hit": false,
      "t": 296470.4400000001,
      "d": 2150.7342187499744,
      "v": 101
    },
    {
      "midi": 59,
      "hit": false,
      "t": 296470.4400000001,
      "d": 3235.2924999999814,
      "v": 93
    },
    {
      "midi": 55,
      "hit": false,
      "t": 296525.58703125,
      "d": 1176.469999999972,
      "v": 91
    },
    {
      "midi": 55,
      "hit": false,
      "t": 298179.9979687503,
      "d": 441.1762500000186,
      "v": 91
    },
    {
      "midi": 55,
      "hit": false,
      "t": 298253.52734375,
      "d": 1066.1759375000256,
      "v": 92
    },
    {
      "midi": 55,
      "hit": false,
      "t": 299043.9681250003,
      "d": 900.7348437500186,
      "v": 76
    },
    {
      "midi": 67,
      "hit": false,
      "t": 299117.4975000001,
      "d": 1305.1464062500163,
      "v": 112
    },
    {
      "midi": 59,
      "hit": false,
      "t": 299944.7029687503,
      "d": 1268.3817187500536,
      "v": 66
    },
    {
      "midi": 62,
      "hit": false,
      "t": 299963.0853125003,
      "d": 1360.2934375000768,
      "v": 87
    },
    {
      "midi": 55,
      "hit": false,
      "t": 299981.46765625005,
      "d": 1323.5287499999395,
      "v": 95
    },
    {
      "midi": 59,
      "hit": false,
      "t": 299999.85000000003,
      "d": 1397.0581249999814,
      "v": 99
    },
    {
      "midi": 64,
      "hit": false,
      "t": 300036.6146875001,
      "d": 1286.7640624999767,
      "v": 110
    },
    {
      "midi": 57,
      "hit": false,
      "t": 301010.87890625035,
      "d": 937.4995312500396,
      "v": 70
    },
    {
      "midi": 62,
      "hit": false,
      "t": 301139.5553125001,
      "d": 1194.8523437500116,
      "v": 98
    },
    {
      "midi": 53,
      "hit": false,
      "t": 301231.46703125,
      "d": 772.0584375000326,
      "v": 91
    },
    {
      "midi": 57,
      "hit": false,
      "t": 301231.46703125,
      "d": 845.5878125000163,
      "v": 94
    },
    {
      "midi": 60,
      "hit": false,
      "t": 301231.46703125036,
      "d": 1011.0289062500233,
      "v": 68
    },
    {
      "midi": 67,
      "hit": false,
      "t": 301268.2317187504,
      "d": 275.73515625001164,
      "v": 42
    },
    {
      "midi": 60,
      "hit": false,
      "t": 302371.17234375014,
      "d": 808.8231249999953,
      "v": 91
    },
    {
      "midi": 57,
      "hit": false,
      "t": 302389.5546875,
      "d": 1231.6170312499744,
      "v": 104
    },
    {
      "midi": 53,
      "hit": false,
      "t": 302389.5546875,
      "d": 1286.7640624999767,
      "v": 92
    },
    {
      "midi": 60,
      "hit": false,
      "t": 302554.99578125036,
      "d": 698.5290624999907,
      "v": 85
    },
    {
      "midi": 57,
      "hit": false,
      "t": 302573.37812500034,
      "d": 772.0584375000326,
      "v": 60
    },
    {
      "midi": 60,
      "hit": false,
      "t": 303492.4953125004,
      "d": 3584.5570312499767,
      "v": 76
    },
    {
      "midi": 52,
      "hit": false,
      "t": 303510.8776562504,
      "d": 3511.027656249993,
      "v": 85
    },
    {
      "midi": 55,
      "hit": false,
      "t": 303529.26000000036,
      "d": 2352.9400000000023,
      "v": 85
    },
    {
      "midi": 60,
      "hit": false,
      "t": 303547.6423437501,
      "d": 1011.0289062500233,
      "v": 110
    },
    {
      "midi": 52,
      "hit": false,
      "t": 303566.0246875,
      "d": 1580.881562500028,
      "v": 91
    },
    {
      "midi": 55,
      "hit": false,
      "t": 303566.0246875,
      "d": 1783.0873437499977,
      "v": 91
    },
    {
      "midi": 62,
      "hit": false,
      "t": 304411.6125000001,
      "d": 955.881875000021,
      "v": 98
    },
    {
      "midi": 48,
      "hit": false,
      "t": 305275.58265625,
      "d": 1930.146093749965,
      "v": 85
    },
    {
      "midi": 64,
      "hit": false,
      "t": 305293.96500000014,
      "d": 4632.350624999963,
      "v": 98
    },
    {
      "midi": 55,
      "hit": false,
      "t": 306102.78812500037,
      "d": 477.9409374999814,
      "v": 93
    },
    {
      "midi": 55,
      "hit": false,
      "t": 306966.75828125037,
      "d": 3621.3217187499395,
      "v": 85
    },
    {
      "midi": 59,
      "hit": false,
      "t": 307021.90531249996,
      "d": 2224.2635937500163,
      "v": 93
    },
    {
      "midi": 55,
      "hit": false,
      "t": 307040.28765624994,
      "d": 1893.3814062500605,
      "v": 73
    },
    {
      "midi": 60,
      "hit": false,
      "t": 307849.11078125035,
      "d": 2720.586874999979,
      "v": 72
    },
    {
      "midi": 64,
      "hit": false,
      "t": 308731.4632812503,
      "d": 1047.7935937500442,
      "v": 74
    },
    {
      "midi": 48,
      "hit": false,
      "t": 308786.6103125,
      "d": 2040.4401562499697,
      "v": 89
    },
    {
      "midi": 67,
      "hit": false,
      "t": 309687.34515625035,
      "d": 624.999687500007,
      "v": 68
    },
    {
      "midi": 58,
      "hit": false,
      "t": 310532.93296875036,
      "d": 2316.175312499923,
      "v": 53
    },
    {
      "midi": 62,
      "hit": false,
      "t": 310532.93296875036,
      "d": 3713.2334374999627,
      "v": 74
    },
    {
      "midi": 67,
      "hit": false,
      "t": 310551.31531250034,
      "d": 2334.5576562499627,
      "v": 80
    },
    {
      "midi": 55,
      "hit": false,
      "t": 310588.07999999996,
      "d": 2389.704687499965,
      "v": 87
    },
    {
      "midi": 58,
      "hit": false,
      "t": 310588.07999999996,
      "d": 3676.46875,
      "v": 86
    },
    {
      "midi": 67,
      "hit": false,
      "t": 312352.7850000001,
      "d": 1433.8228125000023,
      "v": 110
    },
    {
      "midi": 58,
      "hit": false,
      "t": 313216.7551562503,
      "d": 349.26453124999534,
      "v": 63
    },
    {
      "midi": 58,
      "hit": false,
      "t": 314062.34296875034,
      "d": 1966.910781249986,
      "v": 66
    },
    {
      "midi": 48,
      "hit": false,
      "t": 314099.10765624995,
      "d": 3639.7040625000373,
      "v": 98
    },
    {
      "midi": 55,
      "hit": false,
      "t": 314117.48999999993,
      "d": 3419.115937500028,
      "v": 90
    },
    {
      "midi": 67,
      "hit": false,
      "t": 314117.4900000001,
      "d": 1746.3226562499767,
      "v": 87
    },
    {
      "midi": 76,
      "hit": false,
      "t": 314117.4900000001,
      "d": 1911.7637499999837,
      "v": 112
    },
    {
      "midi": 62,
      "hit": false,
      "t": 314926.31312500034,
      "d": 2738.9692187499604,
      "v": 85
    },
    {
      "midi": 67,
      "hit": false,
      "t": 315753.5185937503,
      "d": 1213.234687499993,
      "v": 72
    },
    {
      "midi": 70,
      "hit": false,
      "t": 315863.8126562501,
      "d": 1856.6167187500396,
      "v": 93
    },
    {
      "midi": 74,
      "hit": false,
      "t": 315863.8126562501,
      "d": 1856.6167187500396,
      "v": 116
    },
    {
      "midi": 58,
      "hit": false,
      "t": 316672.6357812503,
      "d": 1084.558281250007,
      "v": 62
    },
    {
      "midi": 60,
      "hit": false,
      "t": 317573.37062500033,
      "d": 3584.5570312499767,
      "v": 70
    },
    {
      "midi": 57,
      "hit": false,
      "t": 317591.7529687503,
      "d": 1636.0285937500303,
      "v": 68
    },
    {
      "midi": 65,
      "hit": false,
      "t": 317591.7529687503,
      "d": 2555.1457812500303,
      "v": 91
    },
    {
      "midi": 53,
      "hit": false,
      "t": 317628.51765625,
      "d": 1783.0873437500559,
      "v": 98
    },
    {
      "midi": 72,
      "hit": false,
      "t": 317628.5176562501,
      "d": 3731.6157812500023,
      "v": 112
    },
    {
      "midi": 69,
      "hit": false,
      "t": 317628.5176562501,
      "d": 4136.02734375,
      "v": 87
    },
    {
      "midi": 55,
      "hit": false,
      "t": 318529.2525,
      "d": 790.440781250014,
      "v": 97
    },
    {
      "midi": 57,
      "hit": false,
      "t": 319411.60500000004,
      "d": 1856.6167187499814,
      "v": 87
    },
    {
      "midi": 57,
      "hit": false,
      "t": 319981.45765625034,
      "d": 790.440781250014,
      "v": 72
    },
    {
      "midi": 66,
      "hit": false,
      "t": 321084.3982812503,
      "d": 1911.763750000042,
      "v": 60
    },
    {
      "midi": 62,
      "hit": false,
      "t": 321084.3982812503,
      "d": 1930.1460937500233,
      "v": 74
    },
    {
      "midi": 57,
      "hit": false,
      "t": 321102.7806250003,
      "d": 606.6173437500256,
      "v": 74
    },
    {
      "midi": 50,
      "hit": false,
      "t": 321157.92765625,
      "d": 2003.675468750007,
      "v": 75
    },
    {
      "midi": 74,
      "hit": false,
      "t": 321176.3100000001,
      "d": 2352.9400000000023,
      "v": 106
    },
    {
      "midi": 66,
      "hit": false,
      "t": 321194.6923437501,
      "d": 2720.5868750000373,
      "v": 85
    },
    {
      "midi": 57,
      "hit": false,
      "t": 321727.7803125003,
      "d": 441.1762500000186,
      "v": 72
    },
    {
      "midi": 57,
      "hit": false,
      "t": 322849.10328125034,
      "d": 1930.146093749965,
      "v": 74
    },
    {
      "midi": 60,
      "hit": false,
      "t": 322941.015,
      "d": 1819.8520312500186,
      "v": 84
    },
    {
      "midi": 62,
      "hit": false,
      "t": 323290.27953125036,
      "d": 753.676093749993,
      "v": 74
    },
    {
      "midi": 66,
      "hit": false,
      "t": 323786.6028125004,
      "d": 1047.7935937499278,
      "v": 52
    },
    {
      "midi": 71,
      "hit": false,
      "t": 323823.3675000001,
      "d": 4430.144843749993,
      "v": 91
    },
    {
      "midi": 74,
      "hit": false,
      "t": 323823.3675000001,
      "d": 4466.909531250014,
      "v": 108
    },
    {
      "midi": 59,
      "hit": false,
      "t": 324668.9553125,
      "d": 955.881875000021,
      "v": 93
    },
    {
      "midi": 67,
      "hit": false,
      "t": 324724.10234375036,
      "d": 2334.5576562499627,
      "v": 72
    },
    {
      "midi": 59,
      "hit": false,
      "t": 324742.48468750034,
      "d": 2334.5576562499627,
      "v": 49
    },
    {
      "midi": 62,
      "hit": false,
      "t": 324760.8670312503,
      "d": 2481.6164062499884,
      "v": 60
    },
    {
      "midi": 55,
      "hit": false,
      "t": 324816.0140625003,
      "d": 1488.9698437500047,
      "v": 54
    },
    {
      "midi": 57,
      "hit": false,
      "t": 325532.92546875,
      "d": 1102.9406250000466,
      "v": 89
    },
    {
      "midi": 55,
      "hit": false,
      "t": 326433.6603125,
      "d": 1323.5287500000559,
      "v": 89
    },
    {
      "midi": 55,
      "hit": false,
      "t": 327021.8953125003,
      "d": 1011.0289062500233,
      "v": 66
    },
    {
      "midi": 60,
      "hit": false,
      "t": 328179.98296875035,
      "d": 1819.8520312499604,
      "v": 48
    },
    {
      "midi": 67,
      "hit": false,
      "t": 328179.98296875035,
      "d": 3529.4099999999744,
      "v": 63
    },
    {
      "midi": 64,
      "hit": false,
      "t": 328198.36531250033,
      "d": 3584.5570312499767,
      "v": 63
    },
    {
      "midi": 48,
      "hit": false,
      "t": 328216.7476562501,
      "d": 3069.8514062499744,
      "v": 83
    },
    {
      "midi": 55,
      "hit": false,
      "t": 328216.7476562501,
      "d": 3455.8806249999907,
      "v": 81
    },
    {
      "midi": 76,
      "hit": false,
      "t": 328216.74765625014,
      "d": 2224.2635937500163,
      "v": 106
    },
    {
      "midi": 70,
      "hit": false,
      "t": 328235.1300000001,
      "d": 1139.7053125000093,
      "v": 86
    },
    {
      "midi": 67,
      "hit": false,
      "t": 328235.1300000001,
      "d": 1415.440468750021,
      "v": 77
    },
    {
      "midi": 58,
      "hit": false,
      "t": 329632.18812500034,
      "d": 2169.1165624999558,
      "v": 60
    },
    {
      "midi": 74,
      "hit": false,
      "t": 329981.45265625016,
      "d": 1948.5284375000047,
      "v": 110
    },
    {
      "midi": 67,
      "hit": false,
      "t": 329999.83500000014,
      "d": 1709.557968750014,
      "v": 82
    },
    {
      "midi": 70,
      "hit": false,
      "t": 329999.83500000014,
      "d": 1856.6167187500396,
      "v": 89
    },
    {
      "midi": 53,
      "hit": false,
      "t": 331746.15765625006,
      "d": 937.4995312499814,
      "v": 79
    },
    {
      "midi": 65,
      "hit": false,
      "t": 331764.54000000015,
      "d": 2812.4985937500023,
      "v": 81
    },
    {
      "midi": 69,
      "hit": false,
      "t": 331764.54000000015,
      "d": 3382.351250000007,
      "v": 86
    },
    {
      "midi": 72,
      "hit": false,
      "t": 331764.54000000015,
      "d": 3823.5275000000256,
      "v": 101
    },
    {
      "midi": 53,
      "hit": false,
      "t": 331782.9223437503,
      "d": 2481.6164062499884,
      "v": 58
    },
    {
      "midi": 60,
      "hit": false,
      "t": 331782.9223437503,
      "d": 3363.9689062499674,
      "v": 61
    },
    {
      "midi": 65,
      "hit": false,
      "t": 331782.9223437503,
      "d": 3437.498281249951,
      "v": 72
    },
    {
      "midi": 55,
      "hit": false,
      "t": 332610.12781250005,
      "d": 882.352499999979,
      "v": 91
    },
    {
      "midi": 57,
      "hit": false,
      "t": 333510.86265625,
      "d": 1856.6167187499814,
      "v": 84
    },
    {
      "midi": 57,
      "hit": false,
      "t": 334319.6857812503,
      "d": 477.9409374999814,
      "v": 59
    },
    {
      "midi": 53,
      "hit": false,
      "t": 335257.1853125,
      "d": 1783.0873437499977,
      "v": 88
    },
    {
      "midi": 57,
      "hit": false,
      "t": 335257.1853125003,
      "d": 2444.8517187499674,
      "v": 72
    },
    {
      "midi": 65,
      "hit": false,
      "t": 335293.9500000002,
      "d": 1672.793281249993,
      "v": 91
    },
    {
      "midi": 71,
      "hit": false,
      "t": 335293.9500000002,
      "d": 1819.8520312499604,
      "v": 108
    },
    {
      "midi": 60,
      "hit": false,
      "t": 336139.53781250026,
      "d": 1011.0289062499651,
      "v": 80
    },
    {
      "midi": 65,
      "hit": false,
      "t": 336966.74328125024,
      "d": 1029.4112500000047,
      "v": 85
    },
    {
      "midi": 54,
      "hit": false,
      "t": 337021.8903125,
      "d": 1838.234375,
      "v": 86
    },
    {
      "midi": 63,
      "hit": false,
      "t": 337040.27265625016,
      "d": 1948.5284374999464,
      "v": 85
    },
    {
      "midi": 69,
      "hit": false,
      "t": 337058.65500000014,
      "d": 1397.0581249999814,
      "v": 101
    },
    {
      "midi": 63,
      "hit": false,
      "t": 337867.47812500026,
      "d": 1121.3229687499697,
      "v": 68
    },
    {
      "midi": 54,
      "hit": false,
      "t": 337885.86046875024,
      "d": 974.2642187500023,
      "v": 56
    },
    {
      "midi": 57,
      "hit": false,
      "t": 337885.86046875024,
      "d": 1029.4112500000047,
      "v": 56
    },
    {
      "midi": 55,
      "hit": false,
      "t": 338804.97765625,
      "d": 1911.763750000042,
      "v": 82
    },
    {
      "midi": 64,
      "hit": false,
      "t": 338804.97765625024,
      "d": 2352.939999999944,
      "v": 76
    },
    {
      "midi": 69,
      "hit": false,
      "t": 338823.3600000001,
      "d": 1011.0289062499651,
      "v": 101
    },
    {
      "midi": 64,
      "hit": false,
      "t": 338823.3600000001,
      "d": 2720.586874999979,
      "v": 86
    },
    {
      "midi": 55,
      "hit": false,
      "t": 338823.3600000002,
      "d": 1268.3817187499953,
      "v": 62
    },
    {
      "midi": 67,
      "hit": false,
      "t": 339705.7125000001,
      "d": 2904.4103124999674,
      "v": 90
    },
    {
      "midi": 55,
      "hit": false,
      "t": 340496.1532812502,
      "d": 1746.3226562499185,
      "v": 76
    },
    {
      "midi": 60,
      "hit": false,
      "t": 340569.68265625,
      "d": 1783.0873437499977,
      "v": 76
    },
    {
      "midi": 60,
      "hit": false,
      "t": 341084.3882812502,
      "d": 386.0292187499581,
      "v": 58
    },
    {
      "midi": 57,
      "hit": false,
      "t": 342297.62296875013,
      "d": 753.676093749993,
      "v": 57
    },
    {
      "midi": 67,
      "hit": false,
      "t": 342297.62296875013,
      "d": 2279.4106250000186,
      "v": 74
    },
    {
      "midi": 61,
      "hit": false,
      "t": 342316.0053125001,
      "d": 1121.322968750028,
      "v": 60
    },
    {
      "midi": 64,
      "hit": false,
      "t": 342316.0053125001,
      "d": 1231.6170312500326,
      "v": 68
    },
    {
      "midi": 61,
      "hit": false,
      "t": 342334.38765625004,
      "d": 2132.351874999935,
      "v": 84
    },
    {
      "midi": 64,
      "hit": false,
      "t": 342371.15234375006,
      "d": 1231.6170312499744,
      "v": 86
    },
    {
      "midi": 57,
      "hit": false,
      "t": 343143.21078125015,
      "d": 2867.6456250000047,
      "v": 62
    },
    {
      "midi": 67,
      "hit": false,
      "t": 343235.12250000006,
      "d": 3106.6160937499953,
      "v": 94
    },
    {
      "midi": 61,
      "hit": false,
      "t": 343988.79859375017,
      "d": 919.1171875,
      "v": 70
    },
    {
      "midi": 57,
      "hit": false,
      "t": 344099.09265625,
      "d": 1911.7637499999837,
      "v": 79
    },
    {
      "midi": 67,
      "hit": false,
      "t": 344907.91578125017,
      "d": 1433.8228125000023,
      "v": 85
    },
    {
      "midi": 60,
      "hit": false,
      "t": 345808.6506250002,
      "d": 3713.233437500021,
      "v": 66
    },
    {
      "midi": 65,
      "hit": false,
      "t": 345827.03296875017,
      "d": 3400.7335937500466,
      "v": 78
    },
    {
      "midi": 60,
      "hit": false,
      "t": 345845.4153125,
      "d": 3676.468750000058,
      "v": 82
    },
    {
      "midi": 53,
      "hit": false,
      "t": 345863.79765624995,
      "d": 3621.321718750056,
      "v": 92
    },
    {
      "midi": 69,
      "hit": false,
      "t": 347628.50265625,
      "d": 900.7348437500186,
      "v": 106
    },
    {
      "midi": 53,
      "hit": false,
      "t": 348382.1787500002,
      "d": 974.2642187500023,
      "v": 74
    },
    {
      "midi": 72,
      "hit": false,
      "t": 348492.4728125,
      "d": 1121.322968750028,
      "v": 123
    },
    {
      "midi": 59,
      "hit": false,
      "t": 349301.2959375002,
      "d": 1452.2051562499837,
      "v": 61
    },
    {
      "midi": 64,
      "hit": false,
      "t": 349301.2959375002,
      "d": 2058.822499999951,
      "v": 70
    },
    {
      "midi": 56,
      "hit": false,
      "t": 349319.6782812502,
      "d": 955.881875000021,
      "v": 61
    },
    {
      "midi": 62,
      "hit": false,
      "t": 349393.20765625,
      "d": 3639.7040625000373,
      "v": 93
    },
    {
      "midi": 52,
      "hit": false,
      "t": 349393.20765625,
      "d": 3933.8215625000303,
      "v": 86
    },
    {
      "midi": 74,
      "hit": false,
      "t": 349393.20765625004,
      "d": 1966.9107812500442,
      "v": 110
    },
    {
      "midi": 68,
      "hit": false,
      "t": 349393.20765625004,
      "d": 3584.557031250035,
      "v": 86
    },
    {
      "midi": 56,
      "hit": false,
      "t": 350293.9425000002,
      "d": 2389.704687499965,
      "v": 80
    },
    {
      "midi": 59,
      "hit": false,
      "t": 351121.14796875016,
      "d": 790.440781250014,
      "v": 74
    },
    {
      "midi": 76,
      "hit": false,
      "t": 351139.5303125001,
      "d": 1874.999062500021,
      "v": 108
    },
    {
      "midi": 64,
      "hit": false,
      "t": 351985.11812500015,
      "d": 349.26453124999534,
      "v": 72
    },
    {
      "midi": 60,
      "hit": false,
      "t": 352830.70593750017,
      "d": 1102.9406249999884,
      "v": 70
    },
    {
      "midi": 57,
      "hit": false,
      "t": 352849.08828125015,
      "d": 1305.1464062500163,
      "v": 60
    },
    {
      "midi": 64,
      "hit": false,
      "t": 352849.08828125015,
      "d": 1838.2343750000582,
      "v": 82
    },
    {
      "midi": 60,
      "hit": false,
      "t": 352904.23531250004,
      "d": 1029.4112500000047,
      "v": 99
    },
    {
      "midi": 72,
      "hit": false,
      "t": 352904.2353125001,
      "d": 3731.6157812500023,
      "v": 101
    },
    {
      "midi": 69,
      "hit": false,
      "t": 352922.6176562501,
      "d": 3621.3217187499977,
      "v": 85
    },
    {
      "midi": 59,
      "hit": false,
      "t": 353786.5878125,
      "d": 1047.7935937500442,
      "v": 96
    },
    {
      "midi": 57,
      "hit": false,
      "t": 354595.4109375002,
      "d": 1874.9990625000792,
      "v": 72
    },
    {
      "midi": 57,
      "hit": false,
      "t": 354687.32265625003,
      "d": 1874.999062500021,
      "v": 87
    },
    {
      "midi": 60,
      "hit": false,
      "t": 355073.3518750002,
      "d": 606.6173437500256,
      "v": 76
    },
    {
      "midi": 64,
      "hit": false,
      "t": 355477.7634375002,
      "d": 349.26453125005355,
      "v": 74
    },
    {
      "midi": 65,
      "hit": false,
      "t": 355845.41031250026,
      "d": 533.0879687499837,
      "v": 62
    },
    {
      "midi": 55,
      "hit": false,
      "t": 356360.11593750026,
      "d": 1599.2639062500093,
      "v": 66
    },
    {
      "midi": 64,
      "hit": false,
      "t": 356360.11593750026,
      "d": 3658.0864062499604,
      "v": 87
    },
    {
      "midi": 60,
      "hit": false,
      "t": 356452.02765625005,
      "d": 3492.6453125000116,
      "v": 89
    },
    {
      "midi": 67,
      "hit": false,
      "t": 356452.0276562501,
      "d": 1893.3814062500023,
      "v": 81
    },
    {
      "midi": 76,
      "hit": false,
      "t": 356470.4100000001,
      "d": 1930.1460937500233,
      "v": 102
    },
    {
      "midi": 58,
      "hit": false,
      "t": 358161.5856250003,
      "d": 772.0584374999744,
      "v": 60
    },
    {
      "midi": 55,
      "hit": false,
      "t": 358161.5856250003,
      "d": 1856.6167187499232,
      "v": 62
    },
    {
      "midi": 70,
      "hit": false,
      "t": 358216.7326562501,
      "d": 1691.1756249999744,
      "v": 92
    },
    {
      "midi": 74,
      "hit": false,
      "t": 358216.7326562501,
      "d": 1893.3814062499441,
      "v": 104
    },
    {
      "midi": 60,
      "hit": false,
      "t": 359907.9082812503,
      "d": 2132.3518749998766,
      "v": 66
    },
    {
      "midi": 65,
      "hit": false,
      "t": 359907.9082812503,
      "d": 2536.7634374998743,
      "v": 72
    },
    {
      "midi": 57,
      "hit": false,
      "t": 359926.29062500026,
      "d": 1452.2051562499255,
      "v": 53
    },
    {
      "midi": 53,
      "hit": false,
      "t": 359963.05531250004,
      "d": 1544.116875000007,
      "v": 79
    },
    {
      "midi": 65,
      "hit": false,
      "t": 359981.4376562501,
      "d": 3547.7923437499558,
      "v": 80
    },
    {
      "midi": 69,
      "hit": false,
      "t": 359981.4376562501,
      "d": 3566.174687499937,
      "v": 90
    },
    {
      "midi": 72,
      "hit": false,
      "t": 359981.4376562501,
      "d": 3988.968593749916,
      "v": 104
    },
    {
      "midi": 53,
      "hit": false,
      "t": 360790.2607812502,
      "d": 533.0879687499837,
      "v": 70
    },
    {
      "midi": 55,
      "hit": false,
      "t": 360845.4078125,
      "d": 882.3525000000373,
      "v": 87
    },
    {
      "midi": 53,
      "hit": false,
      "t": 361672.6132812502,
      "d": 3253.6748437499627,
      "v": 72
    },
    {
      "midi": 57,
      "hit": false,
      "t": 361727.76031250006,
      "d": 1746.3226562499767,
      "v": 87
    },
    {
      "midi": 57,
      "hit": false,
      "t": 362168.93656250014,
      "d": 2886.027968749986,
      "v": 61
    },
    {
      "midi": 60,
      "hit": false,
      "t": 362573.34812500014,
      "d": 2647.0574999999953,
      "v": 82
    },
    {
      "midi": 65,
      "hit": false,
      "t": 363051.2890625001,
      "d": 2297.79296875,
      "v": 78
    },
    {
      "midi": 53,
      "hit": false,
      "t": 363474.08296875004,
      "d": 1874.999062500021,
      "v": 88
    },
    {
      "midi": 67,
      "hit": false,
      "t": 363510.84765625006,
      "d": 1819.8520312499022,
      "v": 88
    },
    {
      "midi": 71,
      "hit": false,
      "t": 363529.23000000004,
      "d": 1819.8520312499022,
      "v": 106
    },
    {
      "midi": 63,
      "hit": false,
      "t": 365220.40562500013,
      "d": 1378.67578125,
      "v": 66
    },
    {
      "midi": 54,
      "hit": false,
      "t": 365220.40562500013,
      "d": 1525.7345312500256,
      "v": 60
    },
    {
      "midi": 60,
      "hit": false,
      "t": 365238.7879687501,
      "d": 1452.205156250042,
      "v": 72
    },
    {
      "midi": 57,
      "hit": false,
      "t": 365238.7879687501,
      "d": 1525.7345312500256,
      "v": 60
    },
    {
      "midi": 69,
      "hit": false,
      "t": 365257.1703125,
      "d": 1433.8228124999441,
      "v": 101
    },
    {
      "midi": 54,
      "hit": false,
      "t": 365257.17031250003,
      "d": 1764.7050000000163,
      "v": 86
    },
    {
      "midi": 63,
      "hit": false,
      "t": 365275.55265624996,
      "d": 2040.4401562499115,
      "v": 85
    },
    {
      "midi": 69,
      "hit": false,
      "t": 367058.6399999999,
      "d": 790.4407812499558,
      "v": 92
    },
    {
      "midi": 64,
      "hit": false,
      "t": 367058.6399999999,
      "d": 2426.469374999928,
      "v": 80
    },
    {
      "midi": 55,
      "hit": false,
      "t": 367058.6400000001,
      "d": 2518.3810937500093,
      "v": 75
    },
    {
      "midi": 55,
      "hit": false,
      "t": 367058.64000000013,
      "d": 2095.587187499972,
      "v": 49
    },
    {
      "midi": 64,
      "hit": false,
      "t": 367058.64000000013,
      "d": 2867.6456250000047,
      "v": 53
    },
    {
      "midi": 60,
      "hit": false,
      "t": 367077.0223437501,
      "d": 2812.4985937500023,
      "v": 51
    },
    {
      "midi": 67,
      "hit": false,
      "t": 367922.61015624984,
      "d": 2481.6164062499884,
      "v": 84
    },
    {
      "midi": 60,
      "hit": false,
      "t": 368786.58031250007,
      "d": 1727.9403124999953,
      "v": 90
    },
    {
      "midi": 55,
      "hit": false,
      "t": 369595.4034375001,
      "d": 863.9701562499977,
      "v": 76
    },
    {
      "midi": 64,
      "hit": false,
      "t": 370440.99125000014,
      "d": 1213.2346874999348,
      "v": 66
    },
    {
      "midi": 57,
      "hit": false,
      "t": 370459.3735937501,
      "d": 551.4703124999651,
      "v": 50
    },
    {
      "midi": 60,
      "hit": false,
      "t": 370477.7559375001,
      "d": 1121.3229687499697,
      "v": 57
    },
    {
      "midi": 72,
      "hit": false,
      "t": 370532.9029687498,
      "d": 698.5290624999907,
      "v": 102
    },
    {
      "midi": 69,
      "hit": false,
      "t": 370551.2853124998,
      "d": 772.0584375000326,
      "v": 102
    },
    {
      "midi": 64,
      "hit": false,
      "t": 370551.2853125001,
      "d": 1856.6167187500396,
      "v": 85
    },
    {
      "midi": 57,
      "hit": false,
      "t": 371360.1084375001,
      "d": 2187.498906249937,
      "v": 66
    },
    {
      "midi": 72,
      "hit": false,
      "t": 371433.63781249983,
      "d": 3437.4982812500093,
      "v": 102
    },
    {
      "midi": 76,
      "hit": false,
      "t": 371433.63781249983,
      "d": 4687.497656249965,
      "v": 108
    },
    {
      "midi": 60,
      "hit": false,
      "t": 372187.31390625006,
      "d": 1102.9406249999884,
      "v": 76
    },
    {
      "midi": 60,
      "hit": false,
      "t": 372315.9903125001,
      "d": 1305.1464062500163,
      "v": 82
    },
    {
      "midi": 64,
      "hit": false,
      "t": 373124.81343750004,
      "d": 1029.4112499999464,
      "v": 74
    },
    {
      "midi": 65,
      "hit": false,
      "t": 374043.93062500004,
      "d": 2113.9695312500116,
      "v": 78
    },
    {
      "midi": 57,
      "hit": false,
      "t": 374062.31296875,
      "d": 772.0584374999744,
      "v": 59
    },
    {
      "midi": 53,
      "hit": false,
      "t": 374080.6953125,
      "d": 569.8526562500047,
      "v": 60
    },
    {
      "midi": 60,
      "hit": false,
      "t": 374080.6953125001,
      "d": 2904.4103124999674,
      "v": 87
    },
    {
      "midi": 53,
      "hit": false,
      "t": 374099.0776562501,
      "d": 3658.0864062499604,
      "v": 88
    },
    {
      "midi": 53,
      "hit": false,
      "t": 374944.66546875,
      "d": 330.88218750001397,
      "v": 62
    },
    {
      "midi": 53,
      "hit": false,
      "t": 375827.01796875003,
      "d": 1378.67578125,
      "v": 68
    },
    {
      "midi": 72,
      "hit": false,
      "t": 375863.7826562498,
      "d": 919.1171875,
      "v": 110
    },
    {
      "midi": 69,
      "hit": false,
      "t": 375863.7826562498,
      "d": 1231.6170312499744,
      "v": 89
    },
    {
      "midi": 57,
      "hit": false,
      "t": 376286.57656250003,
      "d": 919.1171875,
      "v": 68
    },
    {
      "midi": 60,
      "hit": false,
      "t": 376654.2234375,
      "d": 330.88218750001397,
      "v": 74
    },
    {
      "midi": 74,
      "hit": false,
      "t": 376727.7528124998,
      "d": 1066.1759374999674,
      "v": 110
    },
    {
      "midi": 65,
      "hit": false,
      "t": 377021.87031250005,
      "d": 569.8526562500047,
      "v": 74
    },
    {
      "midi": 60,
      "hit": false,
      "t": 377591.72296875005,
      "d": 1084.558281250007,
      "v": 68
    },
    {
      "midi": 57,
      "hit": false,
      "t": 377591.72296875005,
      "d": 1838.234375,
      "v": 60
    },
    {
      "midi": 64,
      "hit": false,
      "t": 377591.72296875005,
      "d": 1856.6167187499814,
      "v": 82
    },
    {
      "midi": 72,
      "hit": false,
      "t": 377610.1053124998,
      "d": 1911.763750000042,
      "v": 125
    },
    {
      "midi": 69,
      "hit": false,
      "t": 377628.4876562498,
      "d": 1801.4696875000373,
      "v": 96
    },
    {
      "midi": 60,
      "hit": false,
      "t": 377628.4876562501,
      "d": 1948.5284375000047,
      "v": 95
    },
    {
      "midi": 52,
      "hit": false,
      "t": 377628.4876562501,
      "d": 2169.116562500014,
      "v": 81
    },
    {
      "midi": 62,
      "hit": false,
      "t": 379356.42796875007,
      "d": 937.4995312499814,
      "v": 85
    },
    {
      "midi": 59,
      "hit": false,
      "t": 379374.81031250005,
      "d": 1047.793593749986,
      "v": 70
    },
    {
      "midi": 56,
      "hit": false,
      "t": 379374.81031250005,
      "d": 1783.0873437499395,
      "v": 60
    },
    {
      "midi": 71,
      "hit": false,
      "t": 379393.1926562498,
      "d": 1672.7932812500512,
      "v": 94
    },
    {
      "midi": 68,
      "hit": false,
      "t": 379393.1926562498,
      "d": 1874.9990625000792,
      "v": 80
    },
    {
      "midi": 62,
      "hit": false,
      "t": 379411.57500000007,
      "d": 1783.0873437499977,
      "v": 95
    },
    {
      "midi": 60,
      "hit": false,
      "t": 381139.5153125,
      "d": 919.1171874999418,
      "v": 70
    },
    {
      "midi": 60,
      "hit": false,
      "t": 381139.51531250007,
      "d": 919.1171875,
      "v": 94
    },
    {
      "midi": 72,
      "hit": false,
      "t": 381157.8976562499,
      "d": 3639.704062499979,
      "v": 108
    },
    {
      "midi": 69,
      "hit": false,
      "t": 381157.8976562499,
      "d": 5202.203281249967,
      "v": 91
    },
    {
      "midi": 64,
      "hit": false,
      "t": 381157.89765625,
      "d": 1047.793593749986,
      "v": 78
    },
    {
      "midi": 57,
      "hit": false,
      "t": 381176.27999999997,
      "d": 1029.4112500000047,
      "v": 57
    },
    {
      "midi": 59,
      "hit": false,
      "t": 381948.33843749994,
      "d": 808.8231250000536,
      "v": 74
    },
    {
      "midi": 62,
      "hit": false,
      "t": 381948.33843749994,
      "d": 882.3525000000373,
      "v": 85
    },
    {
      "midi": 59,
      "hit": false,
      "t": 382003.48546875006,
      "d": 937.4995312499814,
      "v": 92
    },
    {
      "midi": 60,
      "hit": false,
      "t": 382775.54390625,
      "d": 4503.674218749977,
      "v": 89
    },
    {
      "midi": 57,
      "hit": false,
      "t": 382793.92624999996,
      "d": 4540.438906249998,
      "v": 60
    },
    {
      "midi": 57,
      "hit": false,
      "t": 382885.83796875004,
      "d": 1838.234375,
      "v": 85
    },
    {
      "midi": 45,
      "hit": false,
      "t": 383713.04343749996,
      "d": 294.117499999993,
      "v": 89
    },
    {
      "midi": 52,
      "hit": false,
      "t": 384668.92531250004,
      "d": 3455.8806249999907,
      "v": 71
    },
    {
      "midi": 45,
      "hit": false,
      "t": 384760.83703124995,
      "d": 2886.027968749986,
      "v": 85
    },
    {
      "midi": 72,
      "hit": false,
      "t": 386452.01265624986,
      "d": 1158.0876562499907,
      "v": 95
    },
    {
      "midi": 76,
      "hit": false,
      "t": 386452.01265624986,
      "d": 1930.1460937500233,
      "v": 94
    },
    {
      "midi": 52,
      "hit": false,
      "t": 387260.83578125,
      "d": 955.8818749999627,
      "v": 80
    },
    {
      "midi": 57,
      "hit": false,
      "t": 388143.18828124995,
      "d": 845.5878124999581,
      "v": 58
    },
    {
      "midi": 60,
      "hit": false,
      "t": 388161.57062499993,
      "d": 1158.0876562499325,
      "v": 72
    },
    {
      "midi": 53,
      "hit": false,
      "t": 388179.95296875003,
      "d": 2610.2928124999744,
      "v": 89
    },
    {
      "midi": 72,
      "hit": false,
      "t": 388216.7176562499,
      "d": 5257.35031249997,
      "v": 93
    },
    {
      "midi": 69,
      "hit": false,
      "t": 388235.09999999986,
      "d": 3897.0568750000093,
      "v": 84
    },
    {
      "midi": 59,
      "hit": false,
      "t": 389043.9231249999,
      "d": 992.6465624999255,
      "v": 58
    },
    {
      "midi": 55,
      "hit": false,
      "t": 389062.3054687499,
      "d": 698.5290624999907,
      "v": 53
    },
    {
      "midi": 57,
      "hit": false,
      "t": 389889.5109374999,
      "d": 5257.3503124999115,
      "v": 74
    },
    {
      "midi": 53,
      "hit": false,
      "t": 389907.89328124985,
      "d": 882.352499999979,
      "v": 47
    },
    {
      "midi": 60,
      "hit": false,
      "t": 389963.04031250003,
      "d": 919.1171875,
      "v": 96
    },
    {
      "midi": 41,
      "hit": false,
      "t": 390808.6281249998,
      "d": 257.35281249997206,
      "v": 64
    },
    {
      "midi": 59,
      "hit": false,
      "t": 390827.01046875,
      "d": 1047.793593749986,
      "v": 96
    },
    {
      "midi": 41,
      "hit": false,
      "t": 391709.3629687498,
      "d": 1727.9403124999953,
      "v": 89
    },
    {
      "midi": 57,
      "hit": false,
      "t": 391746.12765625,
      "d": 1930.146093749965,
      "v": 90
    },
    {
      "midi": 69,
      "hit": false,
      "t": 393510.83265624987,
      "d": 569.8526562500629,
      "v": 97
    },
    {
      "midi": 53,
      "hit": false,
      "t": 393510.83265625,
      "d": 1801.469687499979,
      "v": 78
    },
    {
      "midi": 43,
      "hit": false,
      "t": 393529.2149999998,
      "d": 1562.4992187499884,
      "v": 85
    },
    {
      "midi": 65,
      "hit": false,
      "t": 393547.5973437499,
      "d": 386.0292187500163,
      "v": 46
    },
    {
      "midi": 69,
      "hit": false,
      "t": 394393.1851562499,
      "d": 1011.0289062499651,
      "v": 106
    },
    {
      "midi": 65,
      "hit": false,
      "t": 394411.5674999999,
      "d": 330.88218750001397,
      "v": 82
    },
    {
      "midi": 67,
      "hit": false,
      "t": 395275.5376562499,
      "d": 772.0584374999744,
      "v": 96
    },
    {
      "midi": 55,
      "hit": false,
      "t": 395275.53765625,
      "d": 2702.2045312499395,
      "v": 84
    },
    {
      "midi": 55,
      "hit": false,
      "t": 395293.9199999998,
      "d": 1893.3814062500023,
      "v": 57
    },
    {
      "midi": 72,
      "hit": false,
      "t": 395293.9199999998,
      "d": 3658.086406250077,
      "v": 70
    },
    {
      "midi": 48,
      "hit": false,
      "t": 395293.92,
      "d": 3511.027656249935,
      "v": 89
    },
    {
      "midi": 60,
      "hit": false,
      "t": 395312.3023437498,
      "d": 3419.115937500028,
      "v": 58
    },
    {
      "midi": 64,
      "hit": false,
      "t": 395312.3023437498,
      "d": 3547.792343750072,
      "v": 76
    },
    {
      "midi": 65,
      "hit": false,
      "t": 396157.89015624986,
      "d": 882.352499999979,
      "v": 88
    },
    {
      "midi": 64,
      "hit": false,
      "t": 397040.24265624984,
      "d": 5496.320781250019,
      "v": 80
    },
    {
      "midi": 55,
      "hit": false,
      "t": 397885.8304687498,
      "d": 330.88218750001397,
      "v": 78
    },
    {
      "midi": 55,
      "hit": false,
      "t": 398768.18296874984,
      "d": 3253.674843750021,
      "v": 70
    },
    {
      "midi": 55,
      "hit": false,
      "t": 398804.9476562499,
      "d": 753.676093749993,
      "v": 90
    },
    {
      "midi": 60,
      "hit": false,
      "t": 399613.7707812499,
      "d": 992.6465624999837,
      "v": 76
    },
    {
      "midi": 57,
      "hit": false,
      "t": 399650.53546874993,
      "d": 900.7348437499604,
      "v": 89
    },
    {
      "midi": 64,
      "hit": false,
      "t": 400477.7409374999,
      "d": 1158.0876562499325,
      "v": 91
    },
    {
      "midi": 55,
      "hit": false,
      "t": 400532.8879687499,
      "d": 955.8818749999627,
      "v": 89
    },
    {
      "midi": 60,
      "hit": false,
      "t": 401378.4757812499,
      "d": 441.1762499999604,
      "v": 70
    },
    {
      "midi": 57,
      "hit": false,
      "t": 401415.2404687499,
      "d": 533.0879687499837,
      "v": 96
    },
    {
      "midi": 57,
      "hit": false,
      "t": 402315.97531249985,
      "d": 772.0584374999744,
      "v": 90
    },
    {
      "midi": 60,
      "hit": false,
      "t": 402315.97531249985,
      "d": 1838.234375,
      "v": 96
    },
    {
      "midi": 60,
      "hit": false,
      "t": 402315.97531249985,
      "d": 1838.2343749999418,
      "v": 63
    },
    {
      "midi": 65,
      "hit": false,
      "t": 402315.97531249985,
      "d": 4430.144843749935,
      "v": 74
    },
    {
      "midi": 53,
      "hit": false,
      "t": 402334.35765624983,
      "d": 1819.8520312499604,
      "v": 58
    },
    {
      "midi": 57,
      "hit": false,
      "t": 402352.7399999998,
      "d": 1911.7637499999837,
      "v": 39
    },
    {
      "midi": 55,
      "hit": false,
      "t": 403179.94546874985,
      "d": 1102.9406249999884,
      "v": 91
    },
    {
      "midi": 53,
      "hit": false,
      "t": 404080.68031249987,
      "d": 1709.5579687499558,
      "v": 91
    },
    {
      "midi": 53,
      "hit": false,
      "t": 404871.1210937498,
      "d": 367.6468749999767,
      "v": 76
    },
    {
      "midi": 53,
      "hit": false,
      "t": 405771.8559374998,
      "d": 2794.1162499999627,
      "v": 85
    },
    {
      "midi": 48,
      "hit": false,
      "t": 405845.3853124998,
      "d": 3805.145156249986,
      "v": 78
    },
    {
      "midi": 60,
      "hit": false,
      "t": 406672.5907812498,
      "d": 1011.0289062499651,
      "v": 89
    },
    {
      "midi": 65,
      "hit": false,
      "t": 407554.9432812498,
      "d": 1341.911093749979,
      "v": 74
    },
    {
      "midi": 65,
      "hit": false,
      "t": 407628.4726562499,
      "d": 790.440781250014,
      "v": 78
    },
    {
      "midi": 69,
      "hit": false,
      "t": 407628.4726562499,
      "d": 808.8231249999953,
      "v": 91
    },
    {
      "midi": 57,
      "hit": false,
      "t": 408400.53109374974,
      "d": 863.9701562499977,
      "v": 72
    },
    {
      "midi": 71,
      "hit": false,
      "t": 408492.4428124999,
      "d": 1194.8523437499534,
      "v": 97
    },
    {
      "midi": 67,
      "hit": false,
      "t": 408510.82515624986,
      "d": 477.9409374999814,
      "v": 72
    },
    {
      "midi": 55,
      "hit": false,
      "t": 409393.17765624984,
      "d": 1691.1756249999744,
      "v": 82
    },
    {
      "midi": 67,
      "hit": false,
      "t": 409393.17765624984,
      "d": 5863.967656249995,
      "v": 85
    },
    {
      "midi": 55,
      "hit": false,
      "t": 409411.55999999976,
      "d": 1911.7637499999837,
      "v": 66
    },
    {
      "midi": 64,
      "hit": false,
      "t": 409411.5599999998,
      "d": 5937.497031250037,
      "v": 81
    },
    {
      "midi": 64,
      "hit": false,
      "t": 409429.94234374975,
      "d": 3492.6453125000116,
      "v": 85
    },
    {
      "midi": 60,
      "hit": false,
      "t": 409521.85406249977,
      "d": 3363.9689062499674,
      "v": 37
    },
    {
      "midi": 48,
      "hit": false,
      "t": 411139.5003124998,
      "d": 2867.6456250000047,
      "v": 84
    },
    {
      "midi": 55,
      "hit": false,
      "t": 412021.85281249974,
      "d": 330.88218750001397,
      "v": 80
    },
    {
      "midi": 55,
      "hit": false,
      "t": 412885.82296874974,
      "d": 1966.9107812500442,
      "v": 74
    },
    {
      "midi": 55,
      "hit": false,
      "t": 412904.20531249983,
      "d": 845.5878125000163,
      "v": 84
    },
    {
      "midi": 60,
      "hit": false,
      "t": 413749.79312499973,
      "d": 955.881875000021,
      "v": 82
    },
    {
      "midi": 57,
      "hit": false,
      "t": 413749.79312499985,
      "d": 974.2642187499441,
      "v": 84
    },
    {
      "midi": 64,
      "hit": false,
      "t": 414595.38093749975,
      "d": 1948.5284375000629,
      "v": 82
    },
    {
      "midi": 55,
      "hit": false,
      "t": 414650.5279687498,
      "d": 827.2054687499767,
      "v": 87
    },
    {
      "midi": 55,
      "hit": false,
      "t": 415459.3510937498,
      "d": 202.20578124996973,
      "v": 63
    },
    {
      "midi": 60,
      "hit": false,
      "t": 415477.7334374998,
      "d": 459.55859375,
      "v": 72
    },
    {
      "midi": 57,
      "hit": false,
      "t": 415514.4981249998,
      "d": 919.1171875,
      "v": 85
    },
    {
      "midi": 65,
      "hit": false,
      "t": 416378.4682812498,
      "d": 7297.790468749998,
      "v": 82
    },
    {
      "midi": 53,
      "hit": false,
      "t": 416396.8506249998,
      "d": 1838.234375,
      "v": 76
    },
    {
      "midi": 60,
      "hit": false,
      "t": 416396.8506249998,
      "d": 1985.2931250000256,
      "v": 72
    },
    {
      "midi": 53,
      "hit": false,
      "t": 416451.9976562498,
      "d": 6948.525937500002,
      "v": 77
    },
    {
      "midi": 69,
      "hit": false,
      "t": 418216.70265624986,
      "d": 1856.6167187500396,
      "v": 96
    },
    {
      "midi": 60,
      "hit": false,
      "t": 418216.70265624986,
      "d": 1966.9107812500442,
      "v": 75
    },
    {
      "midi": 60,
      "hit": false,
      "t": 419007.1434374998,
      "d": 1084.558281250007,
      "v": 76
    },
    {
      "midi": 53,
      "hit": false,
      "t": 419043.90812499984,
      "d": 1066.1759374999674,
      "v": 68
    },
    {
      "midi": 62,
      "hit": false,
      "t": 419926.2606249998,
      "d": 1893.3814062500023,
      "v": 87
    },
    {
      "midi": 58,
      "hit": false,
      "t": 419944.6429687498,
      "d": 1838.234375,
      "v": 61
    },
    {
      "midi": 62,
      "hit": false,
      "t": 419981.4076562499,
      "d": 1801.4696875000373,
      "v": 85
    },
    {
      "midi": 70,
      "hit": false,
      "t": 419981.4076562499,
      "d": 1801.4696875000373,
      "v": 90
    },
    {
      "midi": 57,
      "hit": false,
      "t": 421672.5832812498,
      "d": 1433.8228125000023,
      "v": 63
    },
    {
      "midi": 60,
      "hit": false,
      "t": 421672.5832812498,
      "d": 1654.4109375000116,
      "v": 70
    },
    {
      "midi": 69,
      "hit": false,
      "t": 421727.7303124999,
      "d": 1819.8520312500186,
      "v": 93
    },
    {
      "midi": 60,
      "hit": false,
      "t": 421746.1126562499,
      "d": 1819.8520312500186,
      "v": 82
    },
    {
      "midi": 52,
      "hit": false,
      "t": 423474.05296874983,
      "d": 3345.586562499986,
      "v": 85
    },
    {
      "midi": 60,
      "hit": false,
      "t": 423492.4353124998,
      "d": 73.5293749999837,
      "v": 80
    },
    {
      "midi": 48,
      "hit": false,
      "t": 423510.8176562498,
      "d": 1507.352187499986,
      "v": 60
    },
    {
      "midi": 64,
      "hit": false,
      "t": 423510.8176562499,
      "d": 4154.409687499981,
      "v": 80
    },
    {
      "midi": 67,
      "hit": false,
      "t": 423510.8176562499,
      "d": 5294.114999999991,
      "v": 84
    },
    {
      "midi": 55,
      "hit": false,
      "t": 423602.7293749998,
      "d": 1783.0873437499977,
      "v": 49
    },
    {
      "midi": 55,
      "hit": false,
      "t": 425275.52265624976,
      "d": 790.440781250014,
      "v": 90
    },
    {
      "midi": 55,
      "hit": false,
      "t": 426121.11046874983,
      "d": 312.4998437499744,
      "v": 82
    },
    {
      "midi": 57,
      "hit": false,
      "t": 426139.49281249975,
      "d": 863.9701562499977,
      "v": 102
    },
    {
      "midi": 55,
      "hit": false,
      "t": 426948.3159374998,
      "d": 1764.704999999958,
      "v": 76
    },
    {
      "midi": 55,
      "hit": false,
      "t": 427040.2276562498,
      "d": 3363.9689062500256,
      "v": 76
    },
    {
      "midi": 60,
      "hit": false,
      "t": 427830.6684374998,
      "d": 1084.5582812499488,
      "v": 78
    },
    {
      "midi": 64,
      "hit": false,
      "t": 428731.40328124975,
      "d": 1231.6170312499744,
      "v": 76
    },
    {
      "midi": 64,
      "hit": false,
      "t": 428804.9326562499,
      "d": 643.3820312499884,
      "v": 80
    },
    {
      "midi": 72,
      "hit": false,
      "t": 428804.9326562499,
      "d": 882.352499999979,
      "v": 110
    },
    {
      "midi": 60,
      "hit": false,
      "t": 429613.7557812497,
      "d": 441.1762500000186,
      "v": 74
    },
    {
      "midi": 65,
      "hit": false,
      "t": 429687.2851562499,
      "d": 5698.526562499988,
      "v": 74
    },
    {
      "midi": 69,
      "hit": false,
      "t": 429687.2851562499,
      "d": 5698.526562499988,
      "v": 95
    },
    {
      "midi": 60,
      "hit": false,
      "t": 430477.7259374997,
      "d": 3933.821562499972,
      "v": 72
    },
    {
      "midi": 65,
      "hit": false,
      "t": 430477.7259374997,
      "d": 4908.085781249974,
      "v": 80
    },
    {
      "midi": 53,
      "hit": false,
      "t": 430496.1082812497,
      "d": 2187.4989062499953,
      "v": 68
    },
    {
      "midi": 53,
      "hit": false,
      "t": 430532.8729687498,
      "d": 2150.7342187499744,
      "v": 91
    },
    {
      "midi": 60,
      "hit": false,
      "t": 432315.9603124998,
      "d": 900.7348437499604,
      "v": 95
    },
    {
      "midi": 53,
      "hit": false,
      "t": 433143.1657812497,
      "d": 312.4998437499744,
      "v": 80
    },
    {
      "midi": 62,
      "hit": false,
      "t": 433198.31281249976,
      "d": 845.5878124999581,
      "v": 88
    },
    {
      "midi": 53,
      "hit": false,
      "t": 434025.5182812497,
      "d": 2886.0279687500442,
      "v": 74
    },
    {
      "midi": 60,
      "hit": false,
      "t": 434080.66531249974,
      "d": 3658.0864062500186,
      "v": 88
    },
    {
      "midi": 60,
      "hit": false,
      "t": 434907.8707812497,
      "d": 2113.9695312500116,
      "v": 74
    },
    {
      "midi": 65,
      "hit": false,
      "t": 435771.8409374997,
      "d": 1452.205156250042,
      "v": 72
    },
    {
      "midi": 65,
      "hit": false,
      "t": 435882.1349999999,
      "d": 294.117499999993,
      "v": 90
    },
    {
      "midi": 69,
      "hit": false,
      "t": 435882.1349999999,
      "d": 349.26453124999534,
      "v": 108
    },
    {
      "midi": 57,
      "hit": false,
      "t": 436690.9581249997,
      "d": 1011.0289062500233,
      "v": 63
    },
    {
      "midi": 65,
      "hit": false,
      "t": 436746.1051562499,
      "d": 919.1171874999418,
      "v": 88
    },
    {
      "midi": 69,
      "hit": false,
      "t": 436746.1051562499,
      "d": 937.4995312499232,
      "v": 108
    },
    {
      "midi": 55,
      "hit": false,
      "t": 437628.45765624975,
      "d": 937.4995312499814,
      "v": 95
    },
    {
      "midi": 67,
      "hit": false,
      "t": 437628.45765624987,
      "d": 1231.6170312499162,
      "v": 93
    },
    {
      "midi": 64,
      "hit": false,
      "t": 437646.83999999985,
      "d": 1378.6757812499418,
      "v": 84
    },
    {
      "midi": 60,
      "hit": false,
      "t": 437665.2223437498,
      "d": 3345.586562499986,
      "v": 59
    },
    {
      "midi": 64,
      "hit": false,
      "t": 437665.2223437498,
      "d": 3345.586562499986,
      "v": 87
    },
    {
      "midi": 55,
      "hit": false,
      "t": 437683.60468749976,
      "d": 2022.0578124999884,
      "v": 74
    },
    {
      "midi": 53,
      "hit": false,
      "t": 438492.42781249975,
      "d": 772.0584374999744,
      "v": 95
    },
    {
      "midi": 69,
      "hit": false,
      "t": 438547.5748437498,
      "d": 863.9701562499977,
      "v": 84
    },
    {
      "midi": 52,
      "hit": false,
      "t": 439356.39796874975,
      "d": 1819.8520312500186,
      "v": 89
    },
    {
      "midi": 67,
      "hit": false,
      "t": 439411.5449999998,
      "d": 624.999687500007,
      "v": 94
    },
    {
      "midi": 64,
      "hit": false,
      "t": 440054.9270312498,
      "d": 588.234999999986,
      "v": 96
    },
    {
      "midi": 55,
      "hit": false,
      "t": 440275.51515624975,
      "d": 294.117499999993,
      "v": 70
    },
    {
      "midi": 62,
      "hit": false,
      "t": 440569.6326562498,
      "d": 588.234999999986,
      "v": 96
    },
    {
      "midi": 57,
      "hit": false,
      "t": 441139.48531249975,
      "d": 1709.557968750014,
      "v": 94
    },
    {
      "midi": 53,
      "hit": false,
      "t": 441139.48531249975,
      "d": 1746.322656250035,
      "v": 84
    },
    {
      "midi": 60,
      "hit": false,
      "t": 441176.24999999977,
      "d": 3382.351250000007,
      "v": 95
    },
    {
      "midi": 53,
      "hit": false,
      "t": 441194.63234374975,
      "d": 1966.910781249986,
      "v": 89
    },
    {
      "midi": 65,
      "hit": false,
      "t": 441249.77937499975,
      "d": 3272.0571875000023,
      "v": 60
    },
    {
      "midi": 60,
      "hit": false,
      "t": 441268.16171874973,
      "d": 2849.2632812500233,
      "v": 74
    },
    {
      "midi": 48,
      "hit": false,
      "t": 442885.8079687498,
      "d": 1158.0876562499907,
      "v": 82
    },
    {
      "midi": 53,
      "hit": false,
      "t": 443731.39578124974,
      "d": 882.352499999979,
      "v": 80
    },
    {
      "midi": 55,
      "hit": false,
      "t": 444576.98359374976,
      "d": 588.234999999986,
      "v": 60
    },
    {
      "midi": 60,
      "hit": false,
      "t": 444595.36593749974,
      "d": 1323.5287499999977,
      "v": 72
    },
    {
      "midi": 64,
      "hit": false,
      "t": 444595.36593749974,
      "d": 1397.0581249999814,
      "v": 78
    },
    {
      "midi": 52,
      "hit": false,
      "t": 444613.7482812498,
      "d": 3731.6157812500023,
      "v": 84
    },
    {
      "midi": 48,
      "hit": false,
      "t": 444632.13062499976,
      "d": 3970.586249999993,
      "v": 84
    },
    {
      "midi": 67,
      "hit": false,
      "t": 444705.6599999998,
      "d": 808.8231249999953,
      "v": 91
    },
    {
      "midi": 55,
      "hit": false,
      "t": 445477.7184374997,
      "d": 2775.7339062500396,
      "v": 70
    },
    {
      "midi": 64,
      "hit": false,
      "t": 445569.6301562498,
      "d": 827.2054687499767,
      "v": 91
    },
    {
      "midi": 60,
      "hit": false,
      "t": 446378.45328124973,
      "d": 1231.6170312500326,
      "v": 85
    },
    {
      "midi": 62,
      "hit": false,
      "t": 446451.9826562498,
      "d": 827.2054687499767,
      "v": 91
    },
    {
      "midi": 64,
      "hit": false,
      "t": 447224.04109374975,
      "d": 1121.322968750028,
      "v": 78
    },
    {
      "midi": 60,
      "hit": false,
      "t": 447334.33515624976,
      "d": 6580.879062499967,
      "v": 90
    },
    {
      "midi": 60,
      "hit": false,
      "t": 448143.15828124975,
      "d": 2297.792968750058,
      "v": 68
    },
    {
      "midi": 53,
      "hit": false,
      "t": 448161.54062499973,
      "d": 2077.204843750049,
      "v": 66
    },
    {
      "midi": 65,
      "hit": false,
      "t": 448161.54062499973,
      "d": 2352.9400000000605,
      "v": 76
    },
    {
      "midi": 57,
      "hit": false,
      "t": 448235.0699999998,
      "d": 2040.440156250028,
      "v": 98
    },
    {
      "midi": 53,
      "hit": false,
      "t": 448253.45234374976,
      "d": 1819.8520312500186,
      "v": 91
    },
    {
      "midi": 48,
      "hit": false,
      "t": 449981.39265624975,
      "d": 1856.6167187500396,
      "v": 71
    },
    {
      "midi": 65,
      "hit": false,
      "t": 450790.2157812498,
      "d": 1194.8523437499534,
      "v": 62
    },
    {
      "midi": 53,
      "hit": false,
      "t": 450808.5981249998,
      "d": 808.8231249999953,
      "v": 64
    },
    {
      "midi": 60,
      "hit": false,
      "t": 450808.5981249998,
      "d": 3106.6160937499953,
      "v": 68
    },
    {
      "midi": 52,
      "hit": false,
      "t": 451727.7153124998,
      "d": 1746.3226562499767,
      "v": 81
    },
    {
      "midi": 55,
      "hit": false,
      "t": 451727.7153124998,
      "d": 1838.234375,
      "v": 88
    },
    {
      "midi": 55,
      "hit": false,
      "t": 451746.09765624977,
      "d": 2132.351874999993,
      "v": 52
    },
    {
      "midi": 64,
      "hit": false,
      "t": 451746.09765624977,
      "d": 3860.2921875000466,
      "v": 80
    },
    {
      "midi": 48,
      "hit": false,
      "t": 453474.03796874976,
      "d": 1764.7050000000163,
      "v": 97
    },
    {
      "midi": 64,
      "hit": false,
      "t": 453492.42031249974,
      "d": 1930.1460937500233,
      "v": 96
    },
    {
      "midi": 55,
      "hit": false,
      "t": 453510.8026562497,
      "d": 2077.204843750049,
      "v": 71
    },
    {
      "midi": 55,
      "hit": false,
      "t": 454374.7728124998,
      "d": 330.88218750001397,
      "v": 68
    },
    {
      "midi": 47,
      "hit": false,
      "t": 455257.12531249976,
      "d": 1966.9107812500442,
      "v": 94
    },
    {
      "midi": 55,
      "hit": false,
      "t": 455257.1253124998,
      "d": 2352.9400000000023,
      "v": 72
    },
    {
      "midi": 62,
      "hit": false,
      "t": 455275.50765624974,
      "d": 1727.9403125000536,
      "v": 104
    },
    {
      "midi": 62,
      "hit": false,
      "t": 456065.9484374998,
      "d": 1066.1759375000256,
      "v": 60
    },
    {
      "midi": 67,
      "hit": false,
      "t": 456985.0656249998,
      "d": 1838.234375,
      "v": 80
    },
    {
      "midi": 45,
      "hit": false,
      "t": 457021.8303124998,
      "d": 2040.440156250028,
      "v": 91
    },
    {
      "midi": 60,
      "hit": false,
      "t": 457021.8303124998,
      "d": 1930.1460937500233,
      "v": 97
    },
    {
      "midi": 57,
      "hit": false,
      "t": 457040.21265624976,
      "d": 955.881875000021,
      "v": 91
    },
    {
      "midi": 60,
      "hit": false,
      "t": 457867.4181249998,
      "d": 1084.558281250007,
      "v": 61
    },
    {
      "midi": 59,
      "hit": false,
      "t": 458804.9176562498,
      "d": 4761.027031250007,
      "v": 98
    },
    {
      "midi": 62,
      "hit": false,
      "t": 458804.9176562498,
      "d": 7113.967031250009,
      "v": 104
    },
    {
      "midi": 59,
      "hit": false,
      "t": 458823.2999999998,
      "d": 3437.498281249951,
      "v": 55
    },
    {
      "midi": 43,
      "hit": false,
      "t": 458841.6823437498,
      "d": 1856.6167187499814,
      "v": 91
    },
    {
      "midi": 55,
      "hit": false,
      "t": 458841.6823437498,
      "d": 2022.0578124999884,
      "v": 52
    },
    {
      "midi": 62,
      "hit": false,
      "t": 458841.6823437498,
      "d": 3492.6453124999534,
      "v": 60
    },
    {
      "midi": 67,
      "hit": false,
      "t": 458841.6823437498,
      "d": 3566.174687499937,
      "v": 62
    },
    {
      "midi": 50,
      "hit": false,
      "t": 460569.6226562498,
      "d": 1102.9406249999884,
      "v": 83
    },
    {
      "midi": 55,
      "hit": false,
      "t": 461341.68109374976,
      "d": 349.26453124999534,
      "v": 82
    },
    {
      "midi": 47,
      "hit": false,
      "t": 461433.5928124998,
      "d": 808.8231249999953,
      "v": 84
    },
    {
      "midi": 55,
      "hit": false,
      "t": 462168.88656249974,
      "d": 3069.8514062500326,
      "v": 85
    },
    {
      "midi": 43,
      "hit": false,
      "t": 462315.94531249977,
      "d": 1911.763750000042,
      "v": 83
    },
    {
      "midi": 59,
      "hit": false,
      "t": 462996.0920312497,
      "d": 2334.557656250079,
      "v": 74
    },
    {
      "midi": 62,
      "hit": false,
      "t": 463841.67984374973,
      "d": 1397.0581250000396,
      "v": 78
    },
    {
      "midi": 53,
      "hit": false,
      "t": 464080.6503124998,
      "d": 919.1171875,
      "v": 90
    },
    {
      "midi": 67,
      "hit": false,
      "t": 464742.41468749975,
      "d": 643.3820312500466,
      "v": 68
    },
    {
      "midi": 50,
      "hit": false,
      "t": 464944.6204687498,
      "d": 974.2642187500023,
      "v": 84
    },
    {
      "midi": 62,
      "hit": false,
      "t": 465753.4435937498,
      "d": 165.44109374994878,
      "v": 62
    },
    {
      "midi": 59,
      "hit": false,
      "t": 465771.82593749976,
      "d": 2775.7339062499814,
      "v": 61
    },
    {
      "midi": 67,
      "hit": false,
      "t": 465771.82593749976,
      "d": 3970.586249999935,
      "v": 74
    },
    {
      "midi": 55,
      "hit": false,
      "t": 465790.20828124974,
      "d": 1286.7640624999767,
      "v": 60
    },
    {
      "midi": 43,
      "hit": false,
      "t": 465863.7376562498,
      "d": 1856.6167187499814,
      "v": 82
    },
    {
      "midi": 67,
      "hit": false,
      "t": 465863.7376562498,
      "d": 4191.174375000002,
      "v": 97
    },
    {
      "midi": 59,
      "hit": false,
      "t": 465863.7376562498,
      "d": 6158.08515624993,
      "v": 84
    },
    {
      "midi": 55,
      "hit": false,
      "t": 467518.14859374973,
      "d": 441.1762500000186,
      "v": 91
    },
    {
      "midi": 55,
      "hit": false,
      "t": 467591.6779687498,
      "d": 900.7348437500186,
      "v": 90
    },
    {
      "midi": 55,
      "hit": false,
      "t": 468382.11874999973,
      "d": 882.352499999979,
      "v": 76
    },
    {
      "midi": 53,
      "hit": false,
      "t": 468455.6481249998,
      "d": 992.6465624999837,
      "v": 88
    },
    {
      "midi": 59,
      "hit": false,
      "t": 469282.8535937497,
      "d": 1268.3817187499371,
      "v": 66
    },
    {
      "midi": 62,
      "hit": false,
      "t": 469319.6182812497,
      "d": 1360.2934374999022,
      "v": 87
    },
    {
      "midi": 52,
      "hit": false,
      "t": 469374.7653124998,
      "d": 1801.469687499979,
      "v": 88
    },
    {
      "midi": 57,
      "hit": false,
      "t": 470514.47062499967,
      "d": 937.4995312499814,
      "v": 70
    },
    {
      "midi": 60,
      "hit": false,
      "t": 470532.85296874965,
      "d": 1011.0289062500233,
      "v": 68
    },
    {
      "midi": 67,
      "hit": false,
      "t": 470624.7646874996,
      "d": 275.73515625001164,
      "v": 42
    },
    {
      "midi": 50,
      "hit": false,
      "t": 471139.47031249973,
      "d": 1930.1460937500233,
      "v": 80
    },
    {
      "midi": 67,
      "hit": false,
      "t": 471157.8526562498,
      "d": 422.79390624997905,
      "v": 94
    },
    {
      "midi": 65,
      "hit": false,
      "t": 471157.8526562498,
      "d": 441.1762499999604,
      "v": 100
    },
    {
      "midi": 60,
      "hit": false,
      "t": 471856.38171874965,
      "d": 698.5290625000489,
      "v": 85
    },
    {
      "midi": 57,
      "hit": false,
      "t": 471893.14640624967,
      "d": 772.0584375000326,
      "v": 60
    },
    {
      "midi": 65,
      "hit": false,
      "t": 472040.2051562497,
      "d": 441.1762500000186,
      "v": 104
    },
    {
      "midi": 67,
      "hit": false,
      "t": 472040.2051562497,
      "d": 533.0879687500419,
      "v": 100
    },
    {
      "midi": 60,
      "hit": false,
      "t": 472849.0282812497,
      "d": 3584.557031250035,
      "v": 76
    },
    {
      "midi": 52,
      "hit": false,
      "t": 472885.7929687497,
      "d": 3511.027656249993,
      "v": 85
    },
    {
      "midi": 55,
      "hit": false,
      "t": 472904.1753124997,
      "d": 2371.3223437499837,
      "v": 85
    },
    {
      "midi": 67,
      "hit": false,
      "t": 472922.55765624973,
      "d": 2922.792656249949,
      "v": 96
    },
    {
      "midi": 64,
      "hit": false,
      "t": 472940.9399999997,
      "d": 2518.3810937500093,
      "v": 100
    },
    {
      "midi": 48,
      "hit": false,
      "t": 472940.93999999977,
      "d": 1084.558281250007,
      "v": 80
    },
    {
      "midi": 48,
      "hit": false,
      "t": 474724.02734374977,
      "d": 3290.4395312499837,
      "v": 87
    },
    {
      "midi": 55,
      "hit": false,
      "t": 475440.9387499997,
      "d": 459.55859375,
      "v": 93
    },
    {
      "midi": 65,
      "hit": false,
      "t": 475587.9974999997,
      "d": 974.2642187499441,
      "v": 87
    },
    {
      "midi": 62,
      "hit": false,
      "t": 475587.9974999997,
      "d": 1158.0876562499325,
      "v": 76
    },
    {
      "midi": 55,
      "hit": false,
      "t": 476286.5265624997,
      "d": 3602.939374999958,
      "v": 85
    },
    {
      "midi": 60,
      "hit": false,
      "t": 476488.73234374967,
      "d": 3161.7631249999977,
      "v": 75
    },
    {
      "midi": 64,
      "hit": false,
      "t": 476507.11468749965,
      "d": 3786.7628125000047,
      "v": 74
    },
    {
      "midi": 60,
      "hit": false,
      "t": 477242.4084374997,
      "d": 2738.969218749902,
      "v": 72
    },
    {
      "midi": 64,
      "hit": false,
      "t": 478051.2315624997,
      "d": 1066.1759375000256,
      "v": 74
    },
    {
      "midi": 43,
      "hit": false,
      "t": 478198.29031249974,
      "d": 1838.234375,
      "v": 91
    },
    {
      "midi": 67,
      "hit": false,
      "t": 478970.3487499997,
      "d": 624.999687500007,
      "v": 68
    },
    {
      "midi": 58,
      "hit": false,
      "t": 479852.7012499997,
      "d": 2316.175312499923,
      "v": 53
    },
    {
      "midi": 62,
      "hit": false,
      "t": 479871.0835937497,
      "d": 3713.2334374999045,
      "v": 74
    },
    {
      "midi": 67,
      "hit": false,
      "t": 479907.84828124964,
      "d": 2316.1753124999814,
      "v": 80
    },
    {
      "midi": 48,
      "hit": false,
      "t": 479962.99531249976,
      "d": 202.20578124996973,
      "v": 88
    },
    {
      "midi": 58,
      "hit": false,
      "t": 481727.7003124997,
      "d": 3400.7335937499884,
      "v": 84
    },
    {
      "midi": 55,
      "hit": false,
      "t": 481727.7003124997,
      "d": 3474.262968749972,
      "v": 82
    },
    {
      "midi": 64,
      "hit": false,
      "t": 481746.08265624964,
      "d": 2812.4985937500023,
      "v": 81
    },
    {
      "midi": 67,
      "hit": false,
      "t": 481764.4649999996,
      "d": 1470.5875000000233,
      "v": 102
    },
    {
      "midi": 58,
      "hit": false,
      "t": 482573.2881249996,
      "d": 367.6468749999767,
      "v": 63
    },
    {
      "midi": 58,
      "hit": false,
      "t": 483400.4935937496,
      "d": 1966.910781249986,
      "v": 66
    },
    {
      "midi": 76,
      "hit": false,
      "t": 483510.78765624965,
      "d": 1985.2931249999674,
      "v": 121
    },
    {
      "midi": 67,
      "hit": false,
      "t": 483529.16999999963,
      "d": 3455.8806249999907,
      "v": 82
    },
    {
      "midi": 62,
      "hit": false,
      "t": 484227.69906249957,
      "d": 2738.9692187500186,
      "v": 85
    },
    {
      "midi": 67,
      "hit": false,
      "t": 485073.2868749996,
      "d": 1213.234687499993,
      "v": 72
    },
    {
      "midi": 52,
      "hit": false,
      "t": 485238.7279687497,
      "d": 2113.9695312499534,
      "v": 84
    },
    {
      "midi": 70,
      "hit": false,
      "t": 485275.4926562496,
      "d": 1948.5284375000047,
      "v": 80
    },
    {
      "midi": 74,
      "hit": false,
      "t": 485275.4926562496,
      "d": 1966.910781249986,
      "v": 108
    },
    {
      "midi": 58,
      "hit": false,
      "t": 485900.49234374956,
      "d": 1102.9406250000466,
      "v": 62
    },
    {
      "midi": 60,
      "hit": false,
      "t": 486911.5212499996,
      "d": 3566.1746874999953,
      "v": 70
    },
    {
      "midi": 57,
      "hit": false,
      "t": 486929.90359374956,
      "d": 1617.646250000049,
      "v": 68
    },
    {
      "midi": 65,
      "hit": false,
      "t": 486929.90359374956,
      "d": 2555.1457812500303,
      "v": 91
    },
    {
      "midi": 69,
      "hit": false,
      "t": 487040.1976562496,
      "d": 3621.3217187499977,
      "v": 92
    },
    {
      "midi": 72,
      "hit": false,
      "t": 487040.1976562496,
      "d": 3639.704062499979,
      "v": 94
    },
    {
      "midi": 53,
      "hit": false,
      "t": 487040.1976562497,
      "d": 1231.6170312499744,
      "v": 85
    },
    {
      "midi": 53,
      "hit": false,
      "t": 488786.52031249966,
      "d": 1268.3817187499953,
      "v": 91
    },
    {
      "midi": 57,
      "hit": false,
      "t": 489485.0493749996,
      "d": 790.440781250014,
      "v": 72
    },
    {
      "midi": 52,
      "hit": false,
      "t": 489668.87281249964,
      "d": 790.440781250014,
      "v": 86
    },
    {
      "midi": 66,
      "hit": false,
      "t": 490385.7842187496,
      "d": 1911.763750000042,
      "v": 60
    },
    {
      "midi": 62,
      "hit": false,
      "t": 490404.1665624996,
      "d": 1911.763750000042,
      "v": 74
    },
    {
      "midi": 57,
      "hit": false,
      "t": 490422.5489062496,
      "d": 606.6173437500256,
      "v": 74
    },
    {
      "midi": 74,
      "hit": false,
      "t": 490569.6076562496,
      "d": 1966.910781249986,
      "v": 110
    },
    {
      "midi": 66,
      "hit": false,
      "t": 490569.6076562496,
      "d": 2591.910468749993,
      "v": 80
    },
    {
      "midi": 50,
      "hit": false,
      "t": 490569.60765624966,
      "d": 1874.999062500021,
      "v": 75
    },
    {
      "midi": 57,
      "hit": false,
      "t": 491231.37203124963,
      "d": 441.1762500000186,
      "v": 72
    },
    {
      "midi": 57,
      "hit": false,
      "t": 492150.48921874963,
      "d": 1930.1460937500815,
      "v": 74
    },
    {
      "midi": 57,
      "hit": false,
      "t": 492297.54796874966,
      "d": 1985.2931250000256,
      "v": 89
    },
    {
      "midi": 62,
      "hit": false,
      "t": 492591.66546874965,
      "d": 753.6760937500512,
      "v": 74
    },
    {
      "midi": 66,
      "hit": false,
      "t": 493143.1357812497,
      "d": 1047.7935937501024,
      "v": 52
    },
    {
      "midi": 74,
      "hit": false,
      "t": 493216.6651562496,
      "d": 4908.085781249974,
      "v": 114
    },
    {
      "midi": 71,
      "hit": false,
      "t": 493235.0474999996,
      "d": 4595.5859375,
      "v": 102
    },
    {
      "midi": 55,
      "hit": false,
      "t": 494080.63531249965,
      "d": 1323.5287500000559,
      "v": 89
    },
    {
      "midi": 67,
      "hit": false,
      "t": 494117.39999999973,
      "d": 2352.9400000000605,
      "v": 72
    },
    {
      "midi": 59,
      "hit": false,
      "t": 494154.16468749975,
      "d": 2334.557656250021,
      "v": 49
    },
    {
      "midi": 62,
      "hit": false,
      "t": 494190.9293749998,
      "d": 2481.6164062499884,
      "v": 60
    },
    {
      "midi": 55,
      "hit": false,
      "t": 494301.2234374998,
      "d": 1488.9698437500047,
      "v": 54
    },
    {
      "midi": 55,
      "hit": false,
      "t": 495863.7226562497,
      "d": 1066.1759375000256,
      "v": 90
    },
    {
      "midi": 55,
      "hit": false,
      "t": 496507.10468749976,
      "d": 1029.4112499999464,
      "v": 66
    },
    {
      "midi": 60,
      "hit": false,
      "t": 497371.07484374975,
      "d": 1819.8520312499604,
      "v": 48
    },
    {
      "midi": 67,
      "hit": false,
      "t": 497389.45718749973,
      "d": 3511.027656249993,
      "v": 63
    },
    {
      "midi": 64,
      "hit": false,
      "t": 497407.8395312497,
      "d": 3584.557031250035,
      "v": 63
    },
    {
      "midi": 67,
      "hit": false,
      "t": 497646.8099999996,
      "d": 1360.2934374999604,
      "v": 78
    },
    {
      "midi": 70,
      "hit": false,
      "t": 497646.8099999996,
      "d": 1636.028593749972,
      "v": 87
    },
    {
      "midi": 76,
      "hit": false,
      "t": 497646.8099999996,
      "d": 2187.498906249937,
      "v": 114
    },
    {
      "midi": 48,
      "hit": false,
      "t": 497646.8099999997,
      "d": 3419.115937500028,
      "v": 72
    },
    {
      "midi": 55,
      "hit": false,
      "t": 497646.8099999997,
      "d": 3492.6453125000116,
      "v": 86
    },
    {
      "midi": 58,
      "hit": false,
      "t": 499099.0151562497,
      "d": 2169.116562500014,
      "v": 60
    },
    {
      "midi": 74,
      "hit": false,
      "t": 499393.13265624957,
      "d": 1819.8520312499604,
      "v": 112
    },
    {
      "midi": 67,
      "hit": false,
      "t": 499411.51499999955,
      "d": 1838.234375,
      "v": 81
    },
    {
      "midi": 70,
      "hit": false,
      "t": 499411.51499999955,
      "d": 1893.3814062500023,
      "v": 64
    },
    {
      "midi": 69,
      "hit": false,
      "t": 501157.8376562495,
      "d": 2591.910468750051,
      "v": 83
    },
    {
      "midi": 72,
      "hit": false,
      "t": 501157.8376562495,
      "d": 3768.3804687500233,
      "v": 104
    },
    {
      "midi": 53,
      "hit": false,
      "t": 501157.8376562497,
      "d": 900.7348437500186,
      "v": 80
    },
    {
      "midi": 53,
      "hit": false,
      "t": 501176.21999999974,
      "d": 2481.6164062499884,
      "v": 58
    },
    {
      "midi": 65,
      "hit": false,
      "t": 501194.60234374955,
      "d": 2738.9692187500186,
      "v": 65
    },
    {
      "midi": 60,
      "hit": false,
      "t": 501194.6023437497,
      "d": 3363.9689062499674,
      "v": 61
    },
    {
      "midi": 65,
      "hit": false,
      "t": 501194.6023437497,
      "d": 3419.1159374999697,
      "v": 72
    },
    {
      "midi": 55,
      "hit": false,
      "t": 502003.4254687497,
      "d": 863.9701562499977,
      "v": 88
    },
    {
      "midi": 57,
      "hit": false,
      "t": 502904.16031249973,
      "d": 1893.3814062500023,
      "v": 88
    },
    {
      "midi": 57,
      "hit": false,
      "t": 503731.3657812497,
      "d": 477.9409374999814,
      "v": 59
    },
    {
      "midi": 57,
      "hit": false,
      "t": 504448.2771874997,
      "d": 1911.7637499999837,
      "v": 72
    },
    {
      "midi": 53,
      "hit": false,
      "t": 504668.86531249975,
      "d": 1819.8520312500186,
      "v": 89
    },
    {
      "midi": 71,
      "hit": false,
      "t": 504687.24765624956,
      "d": 1819.8520312499604,
      "v": 100
    },
    {
      "midi": 65,
      "hit": false,
      "t": 504687.24765624956,
      "d": 1856.6167187499814,
      "v": 89
    },
    {
      "midi": 60,
      "hit": false,
      "t": 505477.6884374997,
      "d": 1029.4112499999464,
      "v": 80
    },
    {
      "midi": 63,
      "hit": false,
      "t": 506360.04093749967,
      "d": 1470.587499999965,
      "v": 68
    },
    {
      "midi": 54,
      "hit": false,
      "t": 506378.42328124965,
      "d": 1544.116875000007,
      "v": 56
    },
    {
      "midi": 57,
      "hit": false,
      "t": 506378.42328124965,
      "d": 1562.4992187499884,
      "v": 56
    },
    {
      "midi": 63,
      "hit": false,
      "t": 506433.57031249953,
      "d": 1966.910781249986,
      "v": 87
    },
    {
      "midi": 69,
      "hit": false,
      "t": 506451.9526562495,
      "d": 1341.9110937500373,
      "v": 87
    },
    {
      "midi": 54,
      "hit": false,
      "t": 506451.95265624975,
      "d": 1856.6167187500396,
      "v": 73
    },
    {
      "midi": 55,
      "hit": false,
      "t": 508198.2753124998,
      "d": 1746.3226562499767,
      "v": 83
    },
    {
      "midi": 69,
      "hit": false,
      "t": 508216.65765624953,
      "d": 919.1171875,
      "v": 97
    },
    {
      "midi": 64,
      "hit": false,
      "t": 508216.65765624953,
      "d": 2444.8517187500256,
      "v": 83
    },
    {
      "midi": 64,
      "hit": false,
      "t": 508216.65765624965,
      "d": 2352.9400000000023,
      "v": 76
    },
    {
      "midi": 55,
      "hit": false,
      "t": 508235.03999999963,
      "d": 1268.3817187499953,
      "v": 62
    },
    {
      "midi": 67,
      "hit": false,
      "t": 509099.0101562495,
      "d": 2720.5868750000373,
      "v": 89
    },
    {
      "midi": 55,
      "hit": false,
      "t": 509889.45093749964,
      "d": 1764.7050000000163,
      "v": 76
    },
    {
      "midi": 60,
      "hit": false,
      "t": 509981.3626562498,
      "d": 3694.8510937499814,
      "v": 87
    },
    {
      "midi": 60,
      "hit": false,
      "t": 511635.7735937497,
      "d": 1121.3229687499697,
      "v": 60
    },
    {
      "midi": 57,
      "hit": false,
      "t": 511635.7735937497,
      "d": 1672.793281249993,
      "v": 57
    },
    {
      "midi": 64,
      "hit": false,
      "t": 511654.15593749966,
      "d": 1213.234687499993,
      "v": 68
    },
    {
      "midi": 69,
      "hit": false,
      "t": 511727.6853124996,
      "d": 716.9114062499721,
      "v": 106
    },
    {
      "midi": 64,
      "hit": false,
      "t": 511746.06765624956,
      "d": 900.7348437499604,
      "v": 82
    },
    {
      "midi": 69,
      "hit": false,
      "t": 512628.42015624954,
      "d": 3786.7628125000047,
      "v": 78
    },
    {
      "midi": 72,
      "hit": false,
      "t": 512628.42015624954,
      "d": 4044.1156249999767,
      "v": 106
    },
    {
      "midi": 57,
      "hit": false,
      "t": 513492.3903124998,
      "d": 1856.6167187499814,
      "v": 89
    },
    {
      "midi": 60,
      "hit": false,
      "t": 513510.7726562497,
      "d": 919.1171875,
      "v": 70
    },
    {
      "midi": 64,
      "hit": false,
      "t": 514337.9781249997,
      "d": 1066.1759374999674,
      "v": 85
    },
    {
      "midi": 60,
      "hit": false,
      "t": 515201.9482812497,
      "d": 2610.2928124999744,
      "v": 66
    },
    {
      "midi": 53,
      "hit": false,
      "t": 515220.33062499965,
      "d": 1838.234375,
      "v": 59
    },
    {
      "midi": 65,
      "hit": false,
      "t": 515220.33062499965,
      "d": 3437.4982812500093,
      "v": 78
    },
    {
      "midi": 60,
      "hit": false,
      "t": 515275.4776562498,
      "d": 2738.9692187499604,
      "v": 92
    },
    {
      "midi": 53,
      "hit": false,
      "t": 515293.85999999975,
      "d": 3602.939374999958,
      "v": 78
    },
    {
      "midi": 72,
      "hit": false,
      "t": 517058.56499999954,
      "d": 955.8818749999627,
      "v": 123
    },
    {
      "midi": 69,
      "hit": false,
      "t": 517076.9473437495,
      "d": 753.676093749993,
      "v": 93
    },
    {
      "midi": 53,
      "hit": false,
      "t": 517812.24109374965,
      "d": 974.2642187500023,
      "v": 74
    },
    {
      "midi": 74,
      "hit": false,
      "t": 517940.9174999995,
      "d": 1249.9993749999558,
      "v": 106
    },
    {
      "midi": 59,
      "hit": false,
      "t": 518694.5935937497,
      "d": 1452.2051562499837,
      "v": 61
    },
    {
      "midi": 64,
      "hit": false,
      "t": 518694.5935937497,
      "d": 2058.8225000000093,
      "v": 70
    },
    {
      "midi": 56,
      "hit": false,
      "t": 518712.97593749966,
      "d": 1727.9403124999953,
      "v": 61
    },
    {
      "midi": 69,
      "hit": false,
      "t": 518804.8876562495,
      "d": 1893.3814062499441,
      "v": 88
    },
    {
      "midi": 52,
      "hit": false,
      "t": 518804.88765624975,
      "d": 3014.704374999972,
      "v": 85
    },
    {
      "midi": 72,
      "hit": false,
      "t": 518823.2699999995,
      "d": 1930.146093749965,
      "v": 125
    },
    {
      "midi": 60,
      "hit": false,
      "t": 518823.2699999997,
      "d": 1893.3814062500023,
      "v": 88
    },
    {
      "midi": 59,
      "hit": false,
      "t": 520551.21031249966,
      "d": 772.0584375000326,
      "v": 74
    },
    {
      "midi": 71,
      "hit": false,
      "t": 520569.5926562495,
      "d": 1966.9107812500442,
      "v": 93
    },
    {
      "midi": 62,
      "hit": false,
      "t": 520569.5926562497,
      "d": 1856.6167187500396,
      "v": 96
    },
    {
      "midi": 68,
      "hit": false,
      "t": 520587.97499999945,
      "d": 1911.763750000042,
      "v": 79
    },
    {
      "midi": 64,
      "hit": false,
      "t": 521396.7981249997,
      "d": 367.6468749999767,
      "v": 72
    },
    {
      "midi": 60,
      "hit": false,
      "t": 522260.7682812497,
      "d": 1066.1759374999674,
      "v": 70
    },
    {
      "midi": 64,
      "hit": false,
      "t": 522260.7682812497,
      "d": 1856.6167187499814,
      "v": 82
    },
    {
      "midi": 57,
      "hit": false,
      "t": 522279.15062499966,
      "d": 1286.7640624999767,
      "v": 60
    },
    {
      "midi": 60,
      "hit": false,
      "t": 522315.91531249974,
      "d": 1011.0289062500233,
      "v": 95
    },
    {
      "midi": 69,
      "hit": false,
      "t": 522334.2976562495,
      "d": 3511.027656250051,
      "v": 87
    },
    {
      "midi": 72,
      "hit": false,
      "t": 522352.67999999947,
      "d": 3749.998125000042,
      "v": 110
    },
    {
      "midi": 59,
      "hit": false,
      "t": 523179.88546874974,
      "d": 1011.0289062500233,
      "v": 97
    },
    {
      "midi": 57,
      "hit": false,
      "t": 524025.47328124964,
      "d": 1874.9990624999627,
      "v": 72
    },
    {
      "midi": 57,
      "hit": false,
      "t": 524099.00265624974,
      "d": 1727.9403125000536,
      "v": 90
    },
    {
      "midi": 60,
      "hit": false,
      "t": 524576.9435937497,
      "d": 606.6173437499674,
      "v": 76
    },
    {
      "midi": 64,
      "hit": false,
      "t": 524907.8257812497,
      "d": 753.6760937499348,
      "v": 74
    },
    {
      "midi": 65,
      "hit": false,
      "t": 525459.2960937496,
      "d": 533.0879687500419,
      "v": 62
    },
    {
      "midi": 55,
      "hit": false,
      "t": 525643.1195312496,
      "d": 1580.881562500028,
      "v": 66
    },
    {
      "midi": 64,
      "hit": false,
      "t": 525790.1782812496,
      "d": 3658.0864062500186,
      "v": 87
    },
    {
      "midi": 60,
      "hit": false,
      "t": 525863.7076562498,
      "d": 3014.704374999972,
      "v": 90
    },
    {
      "midi": 70,
      "hit": false,
      "t": 525882.0899999995,
      "d": 1433.8228125000605,
      "v": 85
    },
    {
      "midi": 67,
      "hit": false,
      "t": 525882.0899999995,
      "d": 1507.3521875001024,
      "v": 92
    },
    {
      "midi": 76,
      "hit": false,
      "t": 525882.0899999995,
      "d": 2003.6754687500652,
      "v": 106
    },
    {
      "midi": 58,
      "hit": false,
      "t": 527591.6479687496,
      "d": 772.0584375000326,
      "v": 60
    },
    {
      "midi": 55,
      "hit": false,
      "t": 527591.6479687496,
      "d": 1856.6167187499814,
      "v": 62
    },
    {
      "midi": 67,
      "hit": false,
      "t": 527646.7949999996,
      "d": 1562.4992187500466,
      "v": 86
    },
    {
      "midi": 70,
      "hit": false,
      "t": 527646.7949999996,
      "d": 1966.9107812501024,
      "v": 84
    },
    {
      "midi": 74,
      "hit": false,
      "t": 527646.7949999996,
      "d": 2040.4401562501444,
      "v": 110
    },
    {
      "midi": 65,
      "hit": false,
      "t": 529319.5882812496,
      "d": 2555.145781249972,
      "v": 72
    },
    {
      "midi": 57,
      "hit": false,
      "t": 529337.9706249996,
      "d": 1452.2051562499255,
      "v": 53
    },
    {
      "midi": 60,
      "hit": false,
      "t": 529337.9706249996,
      "d": 2132.351874999935,
      "v": 66
    },
    {
      "midi": 53,
      "hit": false,
      "t": 529356.3529687496,
      "d": 643.3820312500466,
      "v": 57
    },
    {
      "midi": 77,
      "hit": false,
      "t": 529411.4999999997,
      "d": 3805.145156249986,
      "v": 97
    },
    {
      "midi": 60,
      "hit": false,
      "t": 529411.4999999998,
      "d": 1856.6167187499814,
      "v": 95
    },
    {
      "midi": 69,
      "hit": false,
      "t": 529429.8823437496,
      "d": 3014.7043750000885,
      "v": 92
    },
    {
      "midi": 53,
      "hit": false,
      "t": 529429.8823437497,
      "d": 1948.5284375000047,
      "v": 67
    },
    {
      "midi": 53,
      "hit": false,
      "t": 530220.3231249996,
      "d": 514.7056249999441,
      "v": 70
    },
    {
      "midi": 53,
      "hit": false,
      "t": 531084.2932812496,
      "d": 3639.704062499921,
      "v": 72
    },
    {
      "midi": 57,
      "hit": false,
      "t": 531157.8226562497,
      "d": 900.7348437500186,
      "v": 87
    },
    {
      "midi": 57,
      "hit": false,
      "t": 531562.2342187496,
      "d": 2738.9692187500186,
      "v": 61
    },
    {
      "midi": 60,
      "hit": false,
      "t": 531966.6457812496,
      "d": 2665.4398437499767,
      "v": 82
    },
    {
      "midi": 55,
      "hit": false,
      "t": 532021.7928124998,
      "d": 974.2642187500605,
      "v": 89
    },
    {
      "midi": 65,
      "hit": false,
      "t": 532444.5867187496,
      "d": 2297.7929687498836,
      "v": 78
    },
    {
      "midi": 53,
      "hit": false,
      "t": 532922.5276562498,
      "d": 1856.6167187500978,
      "v": 93
    },
    {
      "midi": 69,
      "hit": false,
      "t": 532940.9099999997,
      "d": 1286.7640624999767,
      "v": 89
    },
    {
      "midi": 76,
      "hit": false,
      "t": 532940.9099999997,
      "d": 1893.3814062499441,
      "v": 100
    },
    {
      "midi": 61,
      "hit": false,
      "t": 534650.4679687496,
      "d": 1525.734531249851,
      "v": 68
    },
    {
      "midi": 54,
      "hit": false,
      "t": 534668.8503124999,
      "d": 2003.6754687500652,
      "v": 83
    },
    {
      "midi": 57,
      "hit": false,
      "t": 534687.2326562495,
      "d": 1636.0285937498556,
      "v": 57
    },
    {
      "midi": 66,
      "hit": false,
      "t": 534687.2326562495,
      "d": 1636.0285937498556,
      "v": 60
    },
    {
      "midi": 74,
      "hit": false,
      "t": 534687.2326562497,
      "d": 2095.5871874998556,
      "v": 108
    },
    {
      "midi": 69,
      "hit": false,
      "t": 534705.6149999996,
      "d": 1819.8520312499022,
      "v": 91
    },
    {
      "midi": 55,
      "hit": false,
      "t": 536451.93765625,
      "d": 3676.46875,
      "v": 89
    },
    {
      "midi": 76,
      "hit": false,
      "t": 536470.3199999996,
      "d": 1654.4109374999534,
      "v": 102
    },
    {
      "midi": 55,
      "hit": false,
      "t": 536488.7023437493,
      "d": 1525.7345312499674,
      "v": 70
    },
    {
      "midi": 64,
      "hit": false,
      "t": 536488.7023437493,
      "d": 1525.7345312499674,
      "v": 59
    },
    {
      "midi": 60,
      "hit": false,
      "t": 536488.7023437493,
      "d": 1727.9403124999953,
      "v": 57
    },
    {
      "midi": 67,
      "hit": false,
      "t": 536488.7023437496,
      "d": 1654.4109374999534,
      "v": 67
    },
    {
      "midi": 69,
      "hit": false,
      "t": 538253.4073437495,
      "d": 1084.5582812500652,
      "v": 85
    },
    {
      "midi": 77,
      "hit": false,
      "t": 538253.4073437495,
      "d": 1231.6170312500326,
      "v": 100
    },
    {
      "midi": 55,
      "hit": false,
      "t": 538271.7896874993,
      "d": 2003.6754687499488,
      "v": 66
    },
    {
      "midi": 60,
      "hit": false,
      "t": 539135.7598437493,
      "d": 790.440781250014,
      "v": 76
    },
    {
      "midi": 67,
      "hit": false,
      "t": 539154.1421874996,
      "d": 753.6760937500512,
      "v": 85
    },
    {
      "midi": 76,
      "hit": false,
      "t": 539154.1421874996,
      "d": 937.4995312500978,
      "v": 114
    },
    {
      "midi": 60,
      "hit": false,
      "t": 539981.3476562493,
      "d": 1507.352187499986,
      "v": 59
    },
    {
      "midi": 69,
      "hit": false,
      "t": 539981.3476562497,
      "d": 698.5290624999907,
      "v": 89
    },
    {
      "midi": 74,
      "hit": false,
      "t": 539981.3476562497,
      "d": 1268.3817187499953,
      "v": 100
    },
    {
      "midi": 57,
      "hit": false,
      "t": 539981.34765625,
      "d": 1323.5287499999395,
      "v": 86
    },
    {
      "midi": 57,
      "hit": false,
      "t": 540018.1123437493,
      "d": 1029.4112500000047,
      "v": 47
    },
    {
      "midi": 64,
      "hit": false,
      "t": 540018.1123437493,
      "d": 1378.67578125,
      "v": 70
    },
    {
      "midi": 69,
      "hit": false,
      "t": 540882.0824999997,
      "d": 3419.115937500028,
      "v": 87
    },
    {
      "midi": 72,
      "hit": false,
      "t": 540882.0824999997,
      "d": 4448.527187500033,
      "v": 110
    },
    {
      "midi": 57,
      "hit": false,
      "t": 541709.28796875,
      "d": 2169.116562500014,
      "v": 85
    },
    {
      "midi": 57,
      "hit": false,
      "t": 541727.6703124993,
      "d": 1470.5875000000233,
      "v": 64
    },
    {
      "midi": 60,
      "hit": false,
      "t": 542168.8465624993,
      "d": 735.2937500000698,
      "v": 66
    },
    {
      "midi": 64,
      "hit": false,
      "t": 542573.2581249994,
      "d": 716.9114062499721,
      "v": 70
    },
    {
      "midi": 67,
      "hit": false,
      "t": 543032.8167187494,
      "d": 790.4407812498976,
      "v": 74
    },
    {
      "midi": 60,
      "hit": false,
      "t": 543529.14,
      "d": 3529.4100000000326,
      "v": 98
    },
    {
      "midi": 53,
      "hit": false,
      "t": 543547.5223437493,
      "d": 1121.3229687499115,
      "v": 60
    },
    {
      "midi": 57,
      "hit": false,
      "t": 543547.5223437493,
      "d": 1783.0873437499395,
      "v": 60
    },
    {
      "midi": 60,
      "hit": false,
      "t": 543547.5223437493,
      "d": 1874.9990624999627,
      "v": 72
    },
    {
      "midi": 65,
      "hit": false,
      "t": 543547.5223437493,
      "d": 1911.7637499999255,
      "v": 85
    },
    {
      "midi": 53,
      "hit": false,
      "t": 543547.52234375,
      "d": 3529.4100000000326,
      "v": 78
    },
    {
      "midi": 69,
      "hit": false,
      "t": 545293.8449999997,
      "d": 533.0879687499255,
      "v": 89
    },
    {
      "midi": 77,
      "hit": false,
      "t": 545293.8449999997,
      "d": 661.7643749999115,
      "v": 96
    },
    {
      "midi": 53,
      "hit": false,
      "t": 545348.9920312492,
      "d": 1305.146406249958,
      "v": 91
    },
    {
      "midi": 57,
      "hit": false,
      "t": 545698.2565624992,
      "d": 606.6173437499674,
      "v": 74
    },
    {
      "midi": 60,
      "hit": false,
      "t": 546047.5210937492,
      "d": 624.9996874999488,
      "v": 91
    },
    {
      "midi": 77,
      "hit": false,
      "t": 546157.8151562497,
      "d": 1102.9406249999302,
      "v": 99
    },
    {
      "midi": 69,
      "hit": false,
      "t": 546176.1974999997,
      "d": 919.1171875,
      "v": 91
    },
    {
      "midi": 65,
      "hit": false,
      "t": 546378.4032812492,
      "d": 827.2054687498603,
      "v": 87
    },
    {
      "midi": 59,
      "hit": false,
      "t": 547040.1676562491,
      "d": 1948.5284374998882,
      "v": 74
    },
    {
      "midi": 62,
      "hit": false,
      "t": 547040.1676562501,
      "d": 3621.3217187499395,
      "v": 91
    },
    {
      "midi": 76,
      "hit": false,
      "t": 547058.5499999997,
      "d": 1819.8520312497858,
      "v": 112
    },
    {
      "midi": 64,
      "hit": false,
      "t": 547076.9323437491,
      "d": 1783.0873437499395,
      "v": 93
    },
    {
      "midi": 52,
      "hit": false,
      "t": 547076.9323437491,
      "d": 3658.086406249902,
      "v": 74
    },
    {
      "midi": 68,
      "hit": false,
      "t": 547076.9323437497,
      "d": 1801.4696874998044,
      "v": 77
    },
    {
      "midi": 52,
      "hit": false,
      "t": 547076.93234375,
      "d": 3272.057187499944,
      "v": 66
    },
    {
      "midi": 56,
      "hit": false,
      "t": 547113.6970312491,
      "d": 3713.2334374999627,
      "v": 60
    },
    {
      "midi": 62,
      "hit": false,
      "t": 548731.343281249,
      "d": 1930.1460937499069,
      "v": 72
    },
    {
      "midi": 74,
      "hit": false,
      "t": 548804.8726562496,
      "d": 882.3524999999208,
      "v": 106
    },
    {
      "midi": 71,
      "hit": false,
      "t": 548823.2549999995,
      "d": 919.1171874998836,
      "v": 89
    },
    {
      "midi": 69,
      "hit": false,
      "t": 549687.2251562495,
      "d": 11470.582499999902,
      "v": 89
    },
    {
      "midi": 72,
      "hit": false,
      "t": 549705.6074999995,
      "d": 11452.20015624992,
      "v": 114
    },
    {
      "midi": 76,
      "hit": false,
      "t": 549705.6074999995,
      "d": 13216.905156249879,
      "v": 108
    },
    {
      "midi": 60,
      "hit": false,
      "t": 550569.57765625,
      "d": 1360.2934375000186,
      "v": 93
    },
    {
      "midi": 57,
      "hit": false,
      "t": 550569.57765625,
      "d": 1985.2931250000838,
      "v": 71
    },
    {
      "midi": 64,
      "hit": false,
      "t": 550606.342343749,
      "d": 1194.8523437499534,
      "v": 82
    },
    {
      "midi": 57,
      "hit": false,
      "t": 550624.724687499,
      "d": 6176.4674999999115,
      "v": 60
    },
    {
      "midi": 60,
      "hit": false,
      "t": 550643.107031249,
      "d": 1176.469999999972,
      "v": 80
    },
    {
      "midi": 60,
      "hit": false,
      "t": 552334.28265625,
      "d": 900.7348437500186,
      "v": 94
    },
    {
      "midi": 64,
      "hit": false,
      "t": 552371.047343749,
      "d": 937.4995312499814,
      "v": 84
    },
    {
      "midi": 62,
      "hit": false,
      "t": 553179.870468749,
      "d": 974.2642187499441,
      "v": 94
    },
    {
      "midi": 59,
      "hit": false,
      "t": 553198.2528125001,
      "d": 992.6465625000419,
      "v": 90
    },
    {
      "midi": 60,
      "hit": false,
      "t": 554043.8406249989,
      "d": 1452.205156250042,
      "v": 105
    },
    {
      "midi": 57,
      "hit": false,
      "t": 554098.9876562501,
      "d": 1268.3817187499953,
      "v": 88
    },
    {
      "midi": 60,
      "hit": false,
      "t": 555863.6926562489,
      "d": 937.4995312499814,
      "v": 80
    },
    {
      "midi": 57,
      "hit": false,
      "t": 555863.6926562501,
      "d": 937.4995312500978,
      "v": 93
    },
    {
      "midi": 59,
      "hit": false,
      "t": 556598.9864062489,
      "d": 1084.5582812500652,
      "v": 84
    },
    {
      "midi": 55,
      "hit": false,
      "t": 556727.6628125001,
      "d": 937.4995312499814,
      "v": 89
    },
    {
      "midi": 57,
      "hit": false,
      "t": 557554.868281249,
      "d": 919.1171875,
      "v": 89
    },
    {
      "midi": 50,
      "hit": false,
      "t": 557591.6329687489,
      "d": 3786.7628124998882,
      "v": 89
    },
    {
      "midi": 54,
      "hit": false,
      "t": 557628.3976562502,
      "d": 955.8818749999627,
      "v": 83
    },
    {
      "midi": 55,
      "hit": false,
      "t": 558437.220781249,
      "d": 900.7348437499022,
      "v": 94
    },
    {
      "midi": 52,
      "hit": false,
      "t": 558492.3678125001,
      "d": 845.5878125000745,
      "v": 80
    },
    {
      "midi": 54,
      "hit": false,
      "t": 559319.5732812489,
      "d": 1636.028593749972,
      "v": 98
    },
    {
      "midi": 50,
      "hit": false,
      "t": 559374.7203125001,
      "d": 2003.6754687500652,
      "v": 66
    },
    {
      "midi": 64,
      "hit": false,
      "t": 561047.5135937489,
      "d": 1746.3226562498603,
      "v": 80
    },
    {
      "midi": 59,
      "hit": false,
      "t": 561065.8959374989,
      "d": 3639.7040624998044,
      "v": 80
    },
    {
      "midi": 55,
      "hit": false,
      "t": 561121.0429687488,
      "d": 3841.9098437498324,
      "v": 82
    },
    {
      "midi": 71,
      "hit": false,
      "t": 561157.8076562494,
      "d": 2683.822187499958,
      "v": 82
    },
    {
      "midi": 55,
      "hit": false,
      "t": 561157.8076562502,
      "d": 3805.145156249986,
      "v": 70
    },
    {
      "midi": 67,
      "hit": false,
      "t": 561176.1899999994,
      "d": 2518.3810937500093,
      "v": 68
    },
    {
      "midi": 62,
      "hit": false,
      "t": 562922.5126562488,
      "d": 1525.7345312499674,
      "v": 57
    },
    {
      "midi": 76,
      "hit": false,
      "t": 563823.2474999994,
      "d": 1047.793593749986,
      "v": 92
    },
    {
      "midi": 64,
      "hit": false,
      "t": 564650.4529687488,
      "d": 2518.381093749893,
      "v": 59
    },
    {
      "midi": 60,
      "hit": false,
      "t": 564668.8353124987,
      "d": 2463.234062499949,
      "v": 60
    },
    {
      "midi": 48,
      "hit": false,
      "t": 564687.2176562487,
      "d": 6746.320156249916,
      "v": 53
    },
    {
      "midi": 60,
      "hit": false,
      "t": 564687.2176562502,
      "d": 2812.498593749944,
      "v": 79
    },
    {
      "midi": 74,
      "hit": false,
      "t": 564705.5999999994,
      "d": 955.8818749999627,
      "v": 96
    },
    {
      "midi": 67,
      "hit": false,
      "t": 564705.5999999994,
      "d": 3566.1746874999953,
      "v": 84
    },
    {
      "midi": 64,
      "hit": false,
      "t": 564705.6000000002,
      "d": 3474.262968749972,
      "v": 83
    },
    {
      "midi": 72,
      "hit": false,
      "t": 565569.5701562493,
      "d": 11470.582500000135,
      "v": 95
    },
    {
      "midi": 60,
      "hit": false,
      "t": 568179.8629687487,
      "d": 3529.409999999916,
      "v": 57
    },
    {
      "midi": 65,
      "hit": false,
      "t": 568198.2453124986,
      "d": 3768.380468749907,
      "v": 60
    },
    {
      "midi": 57,
      "hit": false,
      "t": 568235.0100000001,
      "d": 863.9701562500559,
      "v": 85
    },
    {
      "midi": 60,
      "hit": false,
      "t": 568235.0100000001,
      "d": 1029.4112500000047,
      "v": 74
    },
    {
      "midi": 65,
      "hit": false,
      "t": 568253.3923437494,
      "d": 3180.1454687500373,
      "v": 92
    },
    {
      "midi": 55,
      "hit": false,
      "t": 569098.9801562502,
      "d": 863.9701562499395,
      "v": 95
    },
    {
      "midi": 53,
      "hit": false,
      "t": 569981.3326562501,
      "d": 1838.234375,
      "v": 80
    },
    {
      "midi": 48,
      "hit": false,
      "t": 571746.0376562485,
      "d": 5294.114999999991,
      "v": 53
    },
    {
      "midi": 60,
      "hit": false,
      "t": 571764.4199999985,
      "d": 5275.732656250009,
      "v": 45
    },
    {
      "midi": 64,
      "hit": false,
      "t": 571764.4199999995,
      "d": 5275.732656250009,
      "v": 89
    },
    {
      "midi": 55,
      "hit": false,
      "t": 571764.4200000002,
      "d": 1746.3226562499767,
      "v": 78
    },
    {
      "midi": 64,
      "hit": false,
      "t": 571782.8023437485,
      "d": 5257.350312500028,
      "v": 55
    },
    {
      "midi": 48,
      "hit": false,
      "t": 573492.3603125002,
      "d": 3547.792343750014,
      "v": 98
    }
  ]
}