{
  "jsonPath": "Rock/Album Rock/Pink Floyd/lost-for-words.json",
  "path": "Rock\\Album Rock\\Pink Floyd\\Lost For Words.mid",
  "name": "Lost For Words",
  "difficulty": "Advanced",
  "bpm": 96,
  "notes": [
    {
      "midi": 36,
      "hit": false,
      "t": 7500,
      "d": 47496.744791666664,
      "v": 64
    },
    {
      "midi": 53,
      "hit": false,
      "t": 25000,
      "d": 2496.744791666668,
      "v": 64
    },
    {
      "midi": 57,
      "hit": false,
      "t": 25000,
      "d": 2496.744791666668,
      "v": 64
    },
    {
      "midi": 60,
      "hit": false,
      "t": 25000,
      "d": 2496.744791666668,
      "v": 64
    },
    {
      "midi": 52,
      "hit": false,
      "t": 27500,
      "d": 7496.744791666664,
      "v": 64
    },
    {
      "midi": 55,
      "hit": false,
      "t": 27500,
      "d": 7496.744791666664,
      "v": 64
    },
    {
      "midi": 60,
      "hit": false,
      "t": 27500,
      "d": 7496.744791666664,
      "v": 64
    },
    {
      "midi": 53,
      "hit": false,
      "t": 35000,
      "d": 2496.7447916666642,
      "v": 64
    },
    {
      "midi": 57,
      "hit": false,
      "t": 35000,
      "d": 2496.7447916666642,
      "v": 64
    },
    {
      "midi": 60,
      "hit": false,
      "t": 35000,
      "d": 2496.7447916666642,
      "v": 64
    },
    {
      "midi": 52,
      "hit": false,
      "t": 37500,
      "d": 7496.744791666664,
      "v": 64
    },
    {
      "midi": 55,
      "hit": false,
      "t": 37500,
      "d": 7496.744791666664,
      "v": 64
    },
    {
      "midi": 60,
      "hit": false,
      "t": 37500,
      "d": 7496.744791666664,
      "v": 64
    },
    {
      "midi": 53,
      "hit": false,
      "t": 45000,
      "d": 2496.7447916666642,
      "v": 64
    },
    {
      "midi": 57,
      "hit": false,
      "t": 45000,
      "d": 2496.7447916666642,
      "v": 64
    },
    {
      "midi": 60,
      "hit": false,
      "t": 45000,
      "d": 2496.7447916666642,
      "v": 64
    },
    {
      "midi": 52,
      "hit": false,
      "t": 47500,
      "d": 2496.7447916666642,
      "v": 64
    },
    {
      "midi": 55,
      "hit": false,
      "t": 47500,
      "d": 2496.7447916666642,
      "v": 64
    },
    {
      "midi": 60,
      "hit": false,
      "t": 47500,
      "d": 2496.7447916666642,
      "v": 64
    },
    {
      "midi": 53,
      "hit": false,
      "t": 50000,
      "d": 2496.7447916666642,
      "v": 64
    },
    {
      "midi": 57,
      "hit": false,
      "t": 50000,
      "d": 2496.7447916666642,
      "v": 64
    },
    {
      "midi": 60,
      "hit": false,
      "t": 50000,
      "d": 2496.7447916666642,
      "v": 64
    },
    {
      "midi": 52,
      "hit": false,
      "t": 52500,
      "d": 2496.7447916666642,
      "v": 64
    },
    {
      "midi": 55,
      "hit": false,
      "t": 52500,
      "d": 2496.7447916666642,
      "v": 64
    },
    {
      "midi": 48,
      "hit": false,
      "t": 54062.5,
      "d": 309.24479166666424,
      "v": 64
    },
    {
      "midi": 60,
      "hit": false,
      "t": 54375,
      "d": 152.99479166666424,
      "v": 64
    },
    {
      "midi": 64,
      "hit": false,
      "t": 54531.25,
      "d": 152.99479166666424,
      "v": 64
    },
    {
      "midi": 67,
      "hit": false,
      "t": 54687.5,
      "d": 309.24479166666424,
      "v": 64
    },
    {
      "midi": 41,
      "hit": false,
      "t": 55000,
      "d": 934.2447916666642,
      "v": 64
    },
    {
      "midi": 60,
      "hit": false,
      "t": 55000,
      "d": 934.2447916666642,
      "v": 64
    },
    {
      "midi": 65,
      "hit": false,
      "t": 55000,
      "d": 934.2447916666642,
      "v": 64
    },
    {
      "midi": 69,
      "hit": false,
      "t": 55000,
      "d": 934.2447916666642,
      "v": 64
    },
    {
      "midi": 41,
      "hit": false,
      "t": 55937.5,
      "d": 309.24479166666424,
      "v": 64
    },
    {
      "midi": 60,
      "hit": false,
      "t": 55937.5,
      "d": 309.24479166666424,
      "v": 64
    },
    {
      "midi": 65,
      "hit": false,
      "t": 55937.5,
      "d": 309.24479166666424,
      "v": 64
    },
    {
      "midi": 69,
      "hit": false,
      "t": 55937.5,
      "d": 309.24479166666424,
      "v": 64
    },
    {
      "midi": 60,
      "hit": false,
      "t": 56250,
      "d": 621.7447916666642,
      "v": 64
    },
    {
      "midi": 65,
      "hit": false,
      "t": 56250,
      "d": 621.7447916666642,
      "v": 64
    },
    {
      "midi": 69,
      "hit": false,
      "t": 56250,
      "d": 621.7447916666642,
      "v": 64
    },
    {
      "midi": 41,
      "hit": false,
      "t": 56250,
      "d": 1246.7447916666642,
      "v": 64
    },
    {
      "midi": 67,
      "hit": false,
      "t": 56875,
      "d": 621.7447916666642,
      "v": 64
    },
    {
      "midi": 36,
      "hit": false,
      "t": 57500,
      "d": 934.2447916666642,
      "v": 64
    },
    {
      "midi": 55,
      "hit": false,
      "t": 57500,
      "d": 934.2447916666642,
      "v": 64
    },
    {
      "midi": 60,
      "hit": false,
      "t": 57500,
      "d": 934.2447916666642,
      "v": 64
    },
    {
      "midi": 64,
      "hit": false,
      "t": 57500,
      "d": 934.2447916666642,
      "v": 64
    },
    {
      "midi": 36,
      "hit": false,
      "t": 58437.5,
      "d": 309.24479166666424,
      "v": 64
    },
    {
      "midi": 55,
      "hit": false,
      "t": 58437.5,
      "d": 934.2447916666642,
      "v": 64
    },
    {
      "midi": 60,
      "hit": false,
      "t": 58437.5,
      "d": 934.2447916666642,
      "v": 64
    },
    {
      "midi": 64,
      "hit": false,
      "t": 58437.5,
      "d": 934.2447916666642,
      "v": 64
    },
    {
      "midi": 36,
      "hit": false,
      "t": 58750,
      "d": 1246.7447916666642,
      "v": 64
    },
    {
      "midi": 48,
      "hit": false,
      "t": 59062.5,
      "d": 309.24479166666424,
      "v": 64
    },
    {
      "midi": 60,
      "hit": false,
      "t": 59375,
      "d": 152.99479166666424,
      "v": 64
    },
    {
      "midi": 64,
      "hit": false,
      "t": 59531.25,
      "d": 152.99479166666424,
      "v": 64
    },
    {
      "midi": 67,
      "hit": false,
      "t": 59687.5,
      "d": 309.24479166666424,
      "v": 64
    },
    {
      "midi": 41,
      "hit": false,
      "t": 60000,
      "d": 934.2447916666642,
      "v": 64
    },
    {
      "midi": 60,
      "hit": false,
      "t": 60000,
      "d": 934.2447916666642,
      "v": 64
    },
    {
      "midi": 65,
      "hit": false,
      "t": 60000,
      "d": 934.2447916666642,
      "v": 64
    },
    {
      "midi": 69,
      "hit": false,
      "t": 60000,
      "d": 934.2447916666642,
      "v": 64
    },
    {
      "midi": 41,
      "hit": false,
      "t": 60937.5,
      "d": 309.24479166666424,
      "v": 64
    },
    {
      "midi": 60,
      "hit": false,
      "t": 60937.5,
      "d": 309.24479166666424,
      "v": 64
    },
    {
      "midi": 65,
      "hit": false,
      "t": 60937.5,
      "d": 309.24479166666424,
      "v": 64
    },
    {
      "midi": 69,
      "hit": false,
      "t": 60937.5,
      "d": 309.24479166666424,
      "v": 64
    },
    {
      "midi": 60,
      "hit": false,
      "t": 61250,
      "d": 621.7447916666642,
      "v": 64
    },
    {
      "midi": 65,
      "hit": false,
      "t": 61250,
      "d": 621.7447916666642,
      "v": 64
    },
    {
      "midi": 69,
      "hit": false,
      "t": 61250,
      "d": 621.7447916666642,
      "v": 64
    },
    {
      "midi": 41,
      "hit": false,
      "t": 61250,
      "d": 1246.7447916666642,
      "v": 64
    },
    {
      "midi": 67,
      "hit": false,
      "t": 61875,
      "d": 621.7447916666642,
      "v": 64
    },
    {
      "midi": 36,
      "hit": false,
      "t": 62500,
      "d": 934.2447916666642,
      "v": 64
    },
    {
      "midi": 55,
      "hit": false,
      "t": 62500,
      "d": 934.2447916666642,
      "v": 64
    },
    {
      "midi": 60,
      "hit": false,
      "t": 62500,
      "d": 934.2447916666642,
      "v": 64
    },
    {
      "midi": 64,
      "hit": false,
      "t": 62500,
      "d": 934.2447916666642,
      "v": 64
    },
    {
      "midi": 36,
      "hit": false,
      "t": 63437.5,
      "d": 309.24479166666424,
      "v": 64
    },
    {
      "midi": 55,
      "hit": false,
      "t": 63437.5,
      "d": 934.2447916666642,
      "v": 64
    },
    {
      "midi": 60,
      "hit": false,
      "t": 63437.5,
      "d": 934.2447916666642,
      "v": 64
    },
    {
      "midi": 64,
      "hit": false,
      "t": 63437.5,
      "d": 934.2447916666642,
      "v": 64
    },
    {
      "midi": 36,
      "hit": false,
      "t": 63750,
      "d": 1246.7447916666642,
      "v": 64
    },
    {
      "midi": 48,
      "hit": false,
      "t": 64062.5,
      "d": 309.24479166666424,
      "v": 64
    },
    {
      "midi": 60,
      "hit": false,
      "t": 64375,
      "d": 152.99479166666424,
      "v": 64
    },
    {
      "midi": 64,
      "hit": false,
      "t": 64531.25,
      "d": 152.99479166666424,
      "v": 64
    },
    {
      "midi": 67,
      "hit": false,
      "t": 64687.5,
      "d": 309.24479166666424,
      "v": 64
    },
    {
      "midi": 41,
      "hit": false,
      "t": 65000,
      "d": 934.2447916666715,
      "v": 64
    },
    {
      "midi": 60,
      "hit": false,
      "t": 65000,
      "d": 934.2447916666715,
      "v": 64
    },
    {
      "midi": 65,
      "hit": false,
      "t": 65000,
      "d": 934.2447916666715,
      "v": 64
    },
    {
      "midi": 69,
      "hit": false,
      "t": 65000,
      "d": 934.2447916666715,
      "v": 64
    },
    {
      "midi": 41,
      "hit": false,
      "t": 65937.5,
      "d": 309.2447916666715,
      "v": 64
    },
    {
      "midi": 60,
      "hit": false,
      "t": 65937.5,
      "d": 309.2447916666715,
      "v": 64
    },
    {
      "midi": 65,
      "hit": false,
      "t": 65937.5,
      "d": 309.2447916666715,
      "v": 64
    },
    {
      "midi": 69,
      "hit": false,
      "t": 65937.5,
      "d": 309.2447916666715,
      "v": 64
    },
    {
      "midi": 60,
      "hit": false,
      "t": 66250,
      "d": 621.7447916666715,
      "v": 64
    },
    {
      "midi": 65,
      "hit": false,
      "t": 66250,
      "d": 621.7447916666715,
      "v": 64
    },
    {
      "midi": 69,
      "hit": false,
      "t": 66250,
      "d": 621.7447916666715,
      "v": 64
    },
    {
      "midi": 41,
      "hit": false,
      "t": 66250,
      "d": 1246.7447916666715,
      "v": 64
    },
    {
      "midi": 67,
      "hit": false,
      "t": 66875,
      "d": 621.7447916666715,
      "v": 64
    },
    {
      "midi": 71,
      "hit": false,
      "t": 66875,
      "d": 621.7447916666715,
      "v": 64
    },
    {
      "midi": 45,
      "hit": false,
      "t": 67500,
      "d": 934.2447916666715,
      "v": 64
    },
    {
      "midi": 64,
      "hit": false,
      "t": 67500,
      "d": 934.2447916666715,
      "v": 64
    },
    {
      "midi": 67,
      "hit": false,
      "t": 67500,
      "d": 934.2447916666715,
      "v": 64
    },
    {
      "midi": 72,
      "hit": false,
      "t": 67500,
      "d": 934.2447916666715,
      "v": 64
    },
    {
      "midi": 45,
      "hit": false,
      "t": 68437.5,
      "d": 309.2447916666715,
      "v": 64
    },
    {
      "midi": 64,
      "hit": false,
      "t": 68437.5,
      "d": 309.2447916666715,
      "v": 64
    },
    {
      "midi": 67,
      "hit": false,
      "t": 68437.5,
      "d": 309.2447916666715,
      "v": 64
    },
    {
      "midi": 72,
      "hit": false,
      "t": 68437.5,
      "d": 309.2447916666715,
      "v": 64
    },
    {
      "midi": 45,
      "hit": false,
      "t": 68750,
      "d": 1246.7447916666715,
      "v": 64
    },
    {
      "midi": 64,
      "hit": false,
      "t": 68750,
      "d": 1246.7447916666715,
      "v": 64
    },
    {
      "midi": 67,
      "hit": false,
      "t": 68750,
      "d": 1246.7447916666715,
      "v": 64
    },
    {
      "midi": 72,
      "hit": false,
      "t": 68750,
      "d": 1246.7447916666715,
      "v": 64
    },
    {
      "midi": 43,
      "hit": false,
      "t": 70000,
      "d": 934.2447916666715,
      "v": 64
    },
    {
      "midi": 62,
      "hit": false,
      "t": 70000,
      "d": 934.2447916666715,
      "v": 64
    },
    {
      "midi": 67,
      "hit": false,
      "t": 70000,
      "d": 934.2447916666715,
      "v": 64
    },
    {
      "midi": 71,
      "hit": false,
      "t": 70000,
      "d": 934.2447916666715,
      "v": 64
    },
    {
      "midi": 43,
      "hit": false,
      "t": 70937.5,
      "d": 309.2447916666715,
      "v": 64
    },
    {
      "midi": 62,
      "hit": false,
      "t": 70937.5,
      "d": 309.2447916666715,
      "v": 64
    },
    {
      "midi": 67,
      "hit": false,
      "t": 70937.5,
      "d": 309.2447916666715,
      "v": 64
    },
    {
      "midi": 71,
      "hit": false,
      "t": 70937.5,
      "d": 309.2447916666715,
      "v": 64
    },
    {
      "midi": 62,
      "hit": false,
      "t": 71250,
      "d": 621.7447916666715,
      "v": 64
    },
    {
      "midi": 67,
      "hit": false,
      "t": 71250,
      "d": 621.7447916666715,
      "v": 64
    },
    {
      "midi": 71,
      "hit": false,
      "t": 71250,
      "d": 621.7447916666715,
      "v": 64
    },
    {
      "midi": 43,
      "hit": false,
      "t": 71250,
      "d": 1246.7447916666715,
      "v": 64
    },
    {
      "midi": 72,
      "hit": false,
      "t": 71875,
      "d": 621.7447916666715,
      "v": 64
    },
    {
      "midi": 41,
      "hit": false,
      "t": 72500,
      "d": 934.2447916666715,
      "v": 64
    },
    {
      "midi": 60,
      "hit": false,
      "t": 72500,
      "d": 934.2447916666715,
      "v": 64
    },
    {
      "midi": 65,
      "hit": false,
      "t": 72500,
      "d": 934.2447916666715,
      "v": 64
    },
    {
      "midi": 69,
      "hit": false,
      "t": 72500,
      "d": 934.2447916666715,
      "v": 64
    },
    {
      "midi": 41,
      "hit": false,
      "t": 73437.5,
      "d": 309.2447916666715,
      "v": 64
    },
    {
      "midi": 60,
      "hit": false,
      "t": 73437.5,
      "d": 934.2447916666715,
      "v": 64
    },
    {
      "midi": 65,
      "hit": false,
      "t": 73437.5,
      "d": 934.2447916666715,
      "v": 64
    },
    {
      "midi": 69,
      "hit": false,
      "t": 73437.5,
      "d": 934.2447916666715,
      "v": 64
    },
    {
      "midi": 41,
      "hit": false,
      "t": 73750,
      "d": 1246.7447916666715,
      "v": 64
    },
    {
      "midi": 48,
      "hit": false,
      "t": 74062.5,
      "d": 309.2447916666715,
      "v": 64
    },
    {
      "midi": 60,
      "hit": false,
      "t": 74375,
      "d": 152.99479166667152,
      "v": 64
    },
    {
      "midi": 64,
      "hit": false,
      "t": 74531.25,
      "d": 152.99479166667152,
      "v": 64
    },
    {
      "midi": 67,
      "hit": false,
      "t": 74687.5,
      "d": 309.2447916666715,
      "v": 64
    },
    {
      "midi": 41,
      "hit": false,
      "t": 75000,
      "d": 934.2447916666715,
      "v": 64
    },
    {
      "midi": 60,
      "hit": false,
      "t": 75000,
      "d": 934.2447916666715,
      "v": 64
    },
    {
      "midi": 65,
      "hit": false,
      "t": 75000,
      "d": 934.2447916666715,
      "v": 64
    },
    {
      "midi": 69,
      "hit": false,
      "t": 75000,
      "d": 934.2447916666715,
      "v": 64
    },
    {
      "midi": 41,
      "hit": false,
      "t": 75937.5,
      "d": 309.2447916666715,
      "v": 64
    },
    {
      "midi": 60,
      "hit": false,
      "t": 75937.5,
      "d": 309.2447916666715,
      "v": 64
    },
    {
      "midi": 65,
      "hit": false,
      "t": 75937.5,
      "d": 309.2447916666715,
      "v": 64
    },
    {
      "midi": 69,
      "hit": false,
      "t": 75937.5,
      "d": 309.2447916666715,
      "v": 64
    },
    {
      "midi": 60,
      "hit": false,
      "t": 76250,
      "d": 621.7447916666715,
      "v": 64
    },
    {
      "midi": 65,
      "hit": false,
      "t": 76250,
      "d": 621.7447916666715,
      "v": 64
    },
    {
      "midi": 69,
      "hit": false,
      "t": 76250,
      "d": 621.7447916666715,
      "v": 64
    },
    {
      "midi": 41,
      "hit": false,
      "t": 76250,
      "d": 1246.7447916666715,
      "v": 64
    },
    {
      "midi": 67,
      "hit": false,
      "t": 76875,
      "d": 621.7447916666715,
      "v": 64
    },
    {
      "midi": 36,
      "hit": false,
      "t": 77500,
      "d": 934.2447916666715,
      "v": 64
    },
    {
      "midi": 55,
      "hit": false,
      "t": 77500,
      "d": 934.2447916666715,
      "v": 64
    },
    {
      "midi": 60,
      "hit": false,
      "t": 77500,
      "d": 934.2447916666715,
      "v": 64
    },
    {
      "midi": 64,
      "hit": false,
      "t": 77500,
      "d": 934.2447916666715,
      "v": 64
    },
    {
      "midi": 36,
      "hit": false,
      "t": 78437.5,
      "d": 309.2447916666715,
      "v": 64
    },
    {
      "midi": 55,
      "hit": false,
      "t": 78437.5,
      "d": 934.2447916666715,
      "v": 64
    },
    {
      "midi": 60,
      "hit": false,
      "t": 78437.5,
      "d": 934.2447916666715,
      "v": 64
    },
    {
      "midi": 64,
      "hit": false,
      "t": 78437.5,
      "d": 934.2447916666715,
      "v": 64
    },
    {
      "midi": 36,
      "hit": false,
      "t": 78750,
      "d": 1246.7447916666715,
      "v": 64
    },
    {
      "midi": 48,
      "hit": false,
      "t": 79062.5,
      "d": 309.2447916666715,
      "v": 64
    },
    {
      "midi": 60,
      "hit": false,
      "t": 79375,
      "d": 152.99479166667152,
      "v": 64
    },
    {
      "midi": 64,
      "hit": false,
      "t": 79531.25,
      "d": 152.99479166667152,
      "v": 64
    },
    {
      "midi": 67,
      "hit": false,
      "t": 79687.5,
      "d": 309.2447916666715,
      "v": 64
    },
    {
      "midi": 41,
      "hit": false,
      "t": 80000,
      "d": 934.2447916666715,
      "v": 64
    },
    {
      "midi": 60,
      "hit": false,
      "t": 80000,
      "d": 934.2447916666715,
      "v": 64
    },
    {
      "midi": 65,
      "hit": false,
      "t": 80000,
      "d": 934.2447916666715,
      "v": 64
    },
    {
      "midi": 69,
      "hit": false,
      "t": 80000,
      "d": 934.2447916666715,
      "v": 64
    },
    {
      "midi": 41,
      "hit": false,
      "t": 80937.5,
      "d": 309.2447916666715,
      "v": 64
    },
    {
      "midi": 60,
      "hit": false,
      "t": 80937.5,
      "d": 309.2447916666715,
      "v": 64
    },
    {
      "midi": 65,
      "hit": false,
      "t": 80937.5,
      "d": 309.2447916666715,
      "v": 64
    },
    {
      "midi": 69,
      "hit": false,
      "t": 80937.5,
      "d": 309.2447916666715,
      "v": 64
    },
    {
      "midi": 60,
      "hit": false,
      "t": 81250,
      "d": 621.7447916666715,
      "v": 64
    },
    {
      "midi": 65,
      "hit": false,
      "t": 81250,
      "d": 621.7447916666715,
      "v": 64
    },
    {
      "midi": 69,
      "hit": false,
      "t": 81250,
      "d": 621.7447916666715,
      "v": 64
    },
    {
      "midi": 41,
      "hit": false,
      "t": 81250,
      "d": 1246.7447916666715,
      "v": 64
    },
    {
      "midi": 67,
      "hit": false,
      "t": 81875,
      "d": 621.7447916666715,
      "v": 64
    },
    {
      "midi": 36,
      "hit": false,
      "t": 82500,
      "d": 934.2447916666715,
      "v": 64
    },
    {
      "midi": 55,
      "hit": false,
      "t": 82500,
      "d": 934.2447916666715,
      "v": 64
    },
    {
      "midi": 60,
      "hit": false,
      "t": 82500,
      "d": 934.2447916666715,
      "v": 64
    },
    {
      "midi": 64,
      "hit": false,
      "t": 82500,
      "d": 934.2447916666715,
      "v": 64
    },
    {
      "midi": 36,
      "hit": false,
      "t": 83437.5,
      "d": 309.2447916666715,
      "v": 64
    },
    {
      "midi": 55,
      "hit": false,
      "t": 83437.5,
      "d": 934.2447916666715,
      "v": 64
    },
    {
      "midi": 60,
      "hit": false,
      "t": 83437.5,
      "d": 934.2447916666715,
      "v": 64
    },
    {
      "midi": 64,
      "hit": false,
      "t": 83437.5,
      "d": 934.2447916666715,
      "v": 64
    },
    {
      "midi": 36,
      "hit": false,
      "t": 83750,
      "d": 1246.7447916666715,
      "v": 64
    },
    {
      "midi": 48,
      "hit": false,
      "t": 84062.5,
      "d": 309.2447916666715,
      "v": 64
    },
    {
      "midi": 60,
      "hit": false,
      "t": 84375,
      "d": 152.99479166667152,
      "v": 64
    },
    {
      "midi": 64,
      "hit": false,
      "t": 84531.25,
      "d": 152.99479166667152,
      "v": 64
    },
    {
      "midi": 67,
      "hit": false,
      "t": 84687.5,
      "d": 309.2447916666715,
      "v": 64
    },
    {
      "midi": 41,
      "hit": false,
      "t": 85000,
      "d": 934.2447916666715,
      "v": 64
    },
    {
      "midi": 60,
      "hit": false,
      "t": 85000,
      "d": 934.2447916666715,
      "v": 64
    },
    {
      "midi": 65,
      "hit": false,
      "t": 85000,
      "d": 934.2447916666715,
      "v": 64
    },
    {
      "midi": 69,
      "hit": false,
      "t": 85000,
      "d": 934.2447916666715,
      "v": 64
    },
    {
      "midi": 41,
      "hit": false,
      "t": 85937.5,
      "d": 309.2447916666715,
      "v": 64
    },
    {
      "midi": 60,
      "hit": false,
      "t": 85937.5,
      "d": 309.2447916666715,
      "v": 64
    },
    {
      "midi": 65,
      "hit": false,
      "t": 85937.5,
      "d": 309.2447916666715,
      "v": 64
    },
    {
      "midi": 69,
      "hit": false,
      "t": 85937.5,
      "d": 309.2447916666715,
      "v": 64
    },
    {
      "midi": 60,
      "hit": false,
      "t": 86250,
      "d": 621.7447916666715,
      "v": 64
    },
    {
      "midi": 65,
      "hit": false,
      "t": 86250,
      "d": 621.7447916666715,
      "v": 64
    },
    {
      "midi": 69,
      "hit": false,
      "t": 86250,
      "d": 621.7447916666715,
      "v": 64
    },
    {
      "midi": 41,
      "hit": false,
      "t": 86250,
      "d": 1246.7447916666715,
      "v": 64
    },
    {
      "midi": 67,
      "hit": false,
      "t": 86875,
      "d": 621.7447916666715,
      "v": 64
    },
    {
      "midi": 71,
      "hit": false,
      "t": 86875,
      "d": 621.7447916666715,
      "v": 64
    },
    {
      "midi": 45,
      "hit": false,
      "t": 87500,
      "d": 934.2447916666715,
      "v": 64
    },
    {
      "midi": 64,
      "hit": false,
      "t": 87500,
      "d": 934.2447916666715,
      "v": 64
    },
    {
      "midi": 67,
      "hit": false,
      "t": 87500,
      "d": 934.2447916666715,
      "v": 64
    },
    {
      "midi": 72,
      "hit": false,
      "t": 87500,
      "d": 934.2447916666715,
      "v": 64
    },
    {
      "midi": 45,
      "hit": false,
      "t": 88437.5,
      "d": 309.2447916666715,
      "v": 64
    },
    {
      "midi": 64,
      "hit": false,
      "t": 88437.5,
      "d": 309.2447916666715,
      "v": 64
    },
    {
      "midi": 67,
      "hit": false,
      "t": 88437.5,
      "d": 309.2447916666715,
      "v": 64
    },
    {
      "midi": 72,
      "hit": false,
      "t": 88437.5,
      "d": 309.2447916666715,
      "v": 64
    },
    {
      "midi": 45,
      "hit": false,
      "t": 88750,
      "d": 1246.7447916666715,
      "v": 64
    },
    {
      "midi": 64,
      "hit": false,
      "t": 88750,
      "d": 1246.7447916666715,
      "v": 64
    },
    {
      "midi": 67,
      "hit": false,
      "t": 88750,
      "d": 1246.7447916666715,
      "v": 64
    },
    {
      "midi": 72,
      "hit": false,
      "t": 88750,
      "d": 1246.7447916666715,
      "v": 64
    },
    {
      "midi": 43,
      "hit": false,
      "t": 90000,
      "d": 934.2447916666715,
      "v": 64
    },
    {
      "midi": 62,
      "hit": false,
      "t": 90000,
      "d": 934.2447916666715,
      "v": 64
    },
    {
      "midi": 67,
      "hit": false,
      "t": 90000,
      "d": 934.2447916666715,
      "v": 64
    },
    {
      "midi": 71,
      "hit": false,
      "t": 90000,
      "d": 934.2447916666715,
      "v": 64
    },
    {
      "midi": 43,
      "hit": false,
      "t": 90937.5,
      "d": 309.2447916666715,
      "v": 64
    },
    {
      "midi": 62,
      "hit": false,
      "t": 90937.5,
      "d": 309.2447916666715,
      "v": 64
    },
    {
      "midi": 67,
      "hit": false,
      "t": 90937.5,
      "d": 309.2447916666715,
      "v": 64
    },
    {
      "midi": 71,
      "hit": false,
      "t": 90937.5,
      "d": 309.2447916666715,
      "v": 64
    },
    {
      "midi": 62,
      "hit": false,
      "t": 91250,
      "d": 621.7447916666715,
      "v": 64
    },
    {
      "midi": 67,
      "hit": false,
      "t": 91250,
      "d": 621.7447916666715,
      "v": 64
    },
    {
      "midi": 71,
      "hit": false,
      "t": 91250,
      "d": 621.7447916666715,
      "v": 64
    },
    {
      "midi": 43,
      "hit": false,
      "t": 91250,
      "d": 1246.7447916666715,
      "v": 64
    },
    {
      "midi": 72,
      "hit": false,
      "t": 91875,
      "d": 621.7447916666715,
      "v": 64
    },
    {
      "midi": 41,
      "hit": false,
      "t": 92500,
      "d": 934.2447916666715,
      "v": 64
    },
    {
      "midi": 60,
      "hit": false,
      "t": 92500,
      "d": 934.2447916666715,
      "v": 64
    },
    {
      "midi": 65,
      "hit": false,
      "t": 92500,
      "d": 934.2447916666715,
      "v": 64
    },
    {
      "midi": 69,
      "hit": false,
      "t": 92500,
      "d": 934.2447916666715,
      "v": 64
    },
    {
      "midi": 41,
      "hit": false,
      "t": 93437.5,
      "d": 309.2447916666715,
      "v": 64
    },
    {
      "midi": 60,
      "hit": false,
      "t": 93437.5,
      "d": 309.2447916666715,
      "v": 64
    },
    {
      "midi": 65,
      "hit": false,
      "t": 93437.5,
      "d": 309.2447916666715,
      "v": 64
    },
    {
      "midi": 69,
      "hit": false,
      "t": 93437.5,
      "d": 309.2447916666715,
      "v": 64
    },
    {
      "midi": 60,
      "hit": false,
      "t": 93750,
      "d": 621.7447916666715,
      "v": 64
    },
    {
      "midi": 65,
      "hit": false,
      "t": 93750,
      "d": 621.7447916666715,
      "v": 64
    },
    {
      "midi": 69,
      "hit": false,
      "t": 93750,
      "d": 621.7447916666715,
      "v": 64
    },
    {
      "midi": 41,
      "hit": false,
      "t": 93750,
      "d": 1246.7447916666715,
      "v": 64
    },
    {
      "midi": 64,
      "hit": false,
      "t": 94375,
      "d": 309.2447916666715,
      "v": 64
    },
    {
      "midi": 67,
      "hit": false,
      "t": 94687.5,
      "d": 309.2447916666715,
      "v": 64
    },
    {
      "midi": 41,
      "hit": false,
      "t": 95000,
      "d": 934.2447916666715,
      "v": 64
    },
    {
      "midi": 60,
      "hit": false,
      "t": 95000,
      "d": 934.2447916666715,
      "v": 64
    },
    {
      "midi": 65,
      "hit": false,
      "t": 95000,
      "d": 934.2447916666715,
      "v": 64
    },
    {
      "midi": 69,
      "hit": false,
      "t": 95000,
      "d": 934.2447916666715,
      "v": 64
    },
    {
      "midi": 41,
      "hit": false,
      "t": 95937.5,
      "d": 309.2447916666715,
      "v": 64
    },
    {
      "midi": 60,
      "hit": false,
      "t": 95937.5,
      "d": 309.2447916666715,
      "v": 64
    },
    {
      "midi": 65,
      "hit": false,
      "t": 95937.5,
      "d": 309.2447916666715,
      "v": 64
    },
    {
      "midi": 69,
      "hit": false,
      "t": 95937.5,
      "d": 309.2447916666715,
      "v": 64
    },
    {
      "midi": 60,
      "hit": false,
      "t": 96250,
      "d": 309.2447916666715,
      "v": 64
    },
    {
      "midi": 65,
      "hit": false,
      "t": 96250,
      "d": 309.2447916666715,
      "v": 64
    },
    {
      "midi": 69,
      "hit": false,
      "t": 96250,
      "d": 309.2447916666715,
      "v": 64
    },
    {
      "midi": 41,
      "hit": false,
      "t": 96250,
      "d": 621.7447916666715,
      "v": 64
    },
    {
      "midi": 60,
      "hit": false,
      "t": 96562.5,
      "d": 309.2447916666715,
      "v": 64
    },
    {
      "midi": 64,
      "hit": false,
      "t": 96875,
      "d": 309.2447916666715,
      "v": 64
    },
    {
      "midi": 36,
      "hit": false,
      "t": 96875,
      "d": 621.7447916666715,
      "v": 64
    },
    {
      "midi": 67,
      "hit": false,
      "t": 97187.5,
      "d": 309.2447916666715,
      "v": 64
    },
    {
      "midi": 60,
      "hit": false,
      "t": 97500,
      "d": 309.2447916666715,
      "v": 64
    },
    {
      "midi": 65,
      "hit": false,
      "t": 97500,
      "d": 309.2447916666715,
      "v": 64
    },
    {
      "midi": 69,
      "hit": false,
      "t": 97500,
      "d": 309.2447916666715,
      "v": 64
    },
    {
      "midi": 41,
      "hit": false,
      "t": 97500,
      "d": 934.2447916666715,
      "v": 64
    },
    {
      "midi": 60,
      "hit": false,
      "t": 97812.5,
      "d": 621.7447916666715,
      "v": 64
    },
    {
      "midi": 65,
      "hit": false,
      "t": 97812.5,
      "d": 621.7447916666715,
      "v": 64
    },
    {
      "midi": 69,
      "hit": false,
      "t": 97812.5,
      "d": 621.7447916666715,
      "v": 64
    },
    {
      "midi": 41,
      "hit": false,
      "t": 98437.5,
      "d": 309.2447916666715,
      "v": 64
    },
    {
      "midi": 60,
      "hit": false,
      "t": 98437.5,
      "d": 309.2447916666715,
      "v": 64
    },
    {
      "midi": 65,
      "hit": false,
      "t": 98437.5,
      "d": 309.2447916666715,
      "v": 64
    },
    {
      "midi": 69,
      "hit": false,
      "t": 98437.5,
      "d": 309.2447916666715,
      "v": 64
    },
    {
      "midi": 60,
      "hit": false,
      "t": 98750,
      "d": 621.7447916666715,
      "v": 64
    },
    {
      "midi": 65,
      "hit": false,
      "t": 98750,
      "d": 621.7447916666715,
      "v": 64
    },
    {
      "midi": 69,
      "hit": false,
      "t": 98750,
      "d": 621.7447916666715,
      "v": 64
    },
    {
      "midi": 41,
      "hit": false,
      "t": 98750,
      "d": 1246.7447916666715,
      "v": 64
    },
    {
      "midi": 67,
      "hit": false,
      "t": 99375,
      "d": 309.2447916666715,
      "v": 64
    },
    {
      "midi": 64,
      "hit": false,
      "t": 99687.5,
      "d": 309.2447916666715,
      "v": 64
    },
    {
      "midi": 36,
      "hit": false,
      "t": 100000,
      "d": 934.2447916666715,
      "v": 64
    },
    {
      "midi": 60,
      "hit": false,
      "t": 100000,
      "d": 1559.2447916666715,
      "v": 64
    },
    {
      "midi": 64,
      "hit": false,
      "t": 100000,
      "d": 1559.2447916666715,
      "v": 64
    },
    {
      "midi": 67,
      "hit": false,
      "t": 100000,
      "d": 1559.2447916666715,
      "v": 64
    },
    {
      "midi": 36,
      "hit": false,
      "t": 100937.5,
      "d": 309.2447916666715,
      "v": 64
    },
    {
      "midi": 36,
      "hit": false,
      "t": 101250,
      "d": 1246.7447916666715,
      "v": 64
    },
    {
      "midi": 60,
      "hit": false,
      "t": 101562.5,
      "d": 309.2447916666715,
      "v": 64
    },
    {
      "midi": 64,
      "hit": false,
      "t": 101875,
      "d": 309.2447916666715,
      "v": 64
    },
    {
      "midi": 67,
      "hit": false,
      "t": 102187.5,
      "d": 309.2447916666715,
      "v": 64
    },
    {
      "midi": 60,
      "hit": false,
      "t": 102500,
      "d": 309.2447916666715,
      "v": 64
    },
    {
      "midi": 65,
      "hit": false,
      "t": 102500,
      "d": 309.2447916666715,
      "v": 64
    },
    {
      "midi": 69,
      "hit": false,
      "t": 102500,
      "d": 309.2447916666715,
      "v": 64
    },
    {
      "midi": 41,
      "hit": false,
      "t": 102500,
      "d": 934.2447916666715,
      "v": 64
    },
    {
      "midi": 60,
      "hit": false,
      "t": 102812.5,
      "d": 309.2447916666715,
      "v": 64
    },
    {
      "midi": 65,
      "hit": false,
      "t": 102812.5,
      "d": 309.2447916666715,
      "v": 64
    },
    {
      "midi": 69,
      "hit": false,
      "t": 102812.5,
      "d": 309.2447916666715,
      "v": 64
    },
    {
      "midi": 60,
      "hit": false,
      "t": 103125,
      "d": 309.2447916666715,
      "v": 64
    },
    {
      "midi": 65,
      "hit": false,
      "t": 103125,
      "d": 309.2447916666715,
      "v": 64
    },
    {
      "midi": 69,
      "hit": false,
      "t": 103125,
      "d": 309.2447916666715,
      "v": 64
    },
    {
      "midi": 41,
      "hit": false,
      "t": 103437.5,
      "d": 309.2447916666715,
      "v": 64
    },
    {
      "midi": 60,
      "hit": false,
      "t": 103437.5,
      "d": 621.7447916666715,
      "v": 64
    },
    {
      "midi": 65,
      "hit": false,
      "t": 103437.5,
      "d": 621.7447916666715,
      "v": 64
    },
    {
      "midi": 69,
      "hit": false,
      "t": 103437.5,
      "d": 621.7447916666715,
      "v": 64
    },
    {
      "midi": 41,
      "hit": false,
      "t": 103750,
      "d": 1246.7447916666715,
      "v": 64
    },
    {
      "midi": 69,
      "hit": false,
      "t": 104062.5,
      "d": 309.2447916666715,
      "v": 64
    },
    {
      "midi": 67,
      "hit": false,
      "t": 104375,
      "d": 309.2447916666715,
      "v": 64
    },
    {
      "midi": 65,
      "hit": false,
      "t": 104687.5,
      "d": 309.2447916666715,
      "v": 64
    },
    {
      "midi": 36,
      "hit": false,
      "t": 105000,
      "d": 934.2447916666715,
      "v": 64
    },
    {
      "midi": 36,
      "hit": false,
      "t": 105937.5,
      "d": 309.2447916666715,
      "v": 64
    },
    {
      "midi": 60,
      "hit": false,
      "t": 105937.5,
      "d": 309.2447916666715,
      "v": 64
    },
    {
      "midi": 64,
      "hit": false,
      "t": 105937.5,
      "d": 309.2447916666715,
      "v": 64
    },
    {
      "midi": 67,
      "hit": false,
      "t": 105937.5,
      "d": 309.2447916666715,
      "v": 64
    },
    {
      "midi": 60,
      "hit": false,
      "t": 106250,
      "d": 309.2447916666715,
      "v": 64
    },
    {
      "midi": 64,
      "hit": false,
      "t": 106250,
      "d": 309.2447916666715,
      "v": 64
    },
    {
      "midi": 67,
      "hit": false,
      "t": 106250,
      "d": 309.2447916666715,
      "v": 64
    },
    {
      "midi": 36,
      "hit": false,
      "t": 106250,
      "d": 1246.7447916666715,
      "v": 64
    },
    {
      "midi": 60,
      "hit": false,
      "t": 106562.5,
      "d": 309.2447916666715,
      "v": 64
    },
    {
      "midi": 64,
      "hit": false,
      "t": 106875,
      "d": 309.2447916666715,
      "v": 64
    },
    {
      "midi": 67,
      "hit": false,
      "t": 107187.5,
      "d": 309.2447916666715,
      "v": 64
    },
    {
      "midi": 60,
      "hit": false,
      "t": 107500,
      "d": 309.2447916666715,
      "v": 64
    },
    {
      "midi": 65,
      "hit": false,
      "t": 107500,
      "d": 309.2447916666715,
      "v": 64
    },
    {
      "midi": 69,
      "hit": false,
      "t": 107500,
      "d": 309.2447916666715,
      "v": 64
    },
    {
      "midi": 41,
      "hit": false,
      "t": 107500,
      "d": 934.2447916666715,
      "v": 64
    },
    {
      "midi": 60,
      "hit": false,
      "t": 107812.5,
      "d": 621.7447916666715,
      "v": 64
    },
    {
      "midi": 65,
      "hit": false,
      "t": 107812.5,
      "d": 621.7447916666715,
      "v": 64
    },
    {
      "midi": 69,
      "hit": false,
      "t": 107812.5,
      "d": 621.7447916666715,
      "v": 64
    },
    {
      "midi": 41,
      "hit": false,
      "t": 108437.5,
      "d": 309.2447916666715,
      "v": 64
    },
    {
      "midi": 60,
      "hit": false,
      "t": 108437.5,
      "d": 309.2447916666715,
      "v": 64
    },
    {
      "midi": 65,
      "hit": false,
      "t": 108437.5,
      "d": 309.2447916666715,
      "v": 64
    },
    {
      "midi": 69,
      "hit": false,
      "t": 108437.5,
      "d": 309.2447916666715,
      "v": 64
    },
    {
      "midi": 60,
      "hit": false,
      "t": 108750,
      "d": 621.7447916666715,
      "v": 64
    },
    {
      "midi": 65,
      "hit": false,
      "t": 108750,
      "d": 621.7447916666715,
      "v": 64
    },
    {
      "midi": 69,
      "hit": false,
      "t": 108750,
      "d": 621.7447916666715,
      "v": 64
    },
    {
      "midi": 41,
      "hit": false,
      "t": 108750,
      "d": 1246.7447916666715,
      "v": 64
    },
    {
      "midi": 67,
      "hit": false,
      "t": 109375,
      "d": 309.2447916666715,
      "v": 64
    },
    {
      "midi": 64,
      "hit": false,
      "t": 109687.5,
      "d": 309.2447916666715,
      "v": 64
    },
    {
      "midi": 45,
      "hit": false,
      "t": 110000,
      "d": 934.2447916666715,
      "v": 64
    },
    {
      "midi": 57,
      "hit": false,
      "t": 110000,
      "d": 934.2447916666715,
      "v": 64
    },
    {
      "midi": 60,
      "hit": false,
      "t": 110000,
      "d": 934.2447916666715,
      "v": 64
    },
    {
      "midi": 64,
      "hit": false,
      "t": 110000,
      "d": 934.2447916666715,
      "v": 64
    },
    {
      "midi": 45,
      "hit": false,
      "t": 110937.5,
      "d": 309.2447916666715,
      "v": 64
    },
    {
      "midi": 57,
      "hit": false,
      "t": 110937.5,
      "d": 309.2447916666715,
      "v": 64
    },
    {
      "midi": 60,
      "hit": false,
      "t": 110937.5,
      "d": 309.2447916666715,
      "v": 64
    },
    {
      "midi": 64,
      "hit": false,
      "t": 110937.5,
      "d": 309.2447916666715,
      "v": 64
    },
    {
      "midi": 67,
      "hit": false,
      "t": 111250,
      "d": 309.2447916666715,
      "v": 64
    },
    {
      "midi": 57,
      "hit": false,
      "t": 111250,
      "d": 621.7447916666715,
      "v": 64
    },
    {
      "midi": 60,
      "hit": false,
      "t": 111250,
      "d": 621.7447916666715,
      "v": 64
    },
    {
      "midi": 45,
      "hit": false,
      "t": 111250,
      "d": 1246.7447916666715,
      "v": 64
    },
    {
      "midi": 64,
      "hit": false,
      "t": 111562.5,
      "d": 309.2447916666715,
      "v": 64
    },
    {
      "midi": 57,
      "hit": false,
      "t": 111875,
      "d": 621.7447916666715,
      "v": 64
    },
    {
      "midi": 60,
      "hit": false,
      "t": 111875,
      "d": 621.7447916666715,
      "v": 64
    },
    {
      "midi": 64,
      "hit": false,
      "t": 111875,
      "d": 621.7447916666715,
      "v": 64
    },
    {
      "midi": 62,
      "hit": false,
      "t": 112500,
      "d": 621.7447916666715,
      "v": 64
    },
    {
      "midi": 67,
      "hit": false,
      "t": 112500,
      "d": 621.7447916666715,
      "v": 64
    },
    {
      "midi": 71,
      "hit": false,
      "t": 112500,
      "d": 621.7447916666715,
      "v": 64
    },
    {
      "midi": 43,
      "hit": false,
      "t": 112500,
      "d": 934.2447916666715,
      "v": 64
    },
    {
      "midi": 62,
      "hit": false,
      "t": 113125,
      "d": 621.7447916666715,
      "v": 64
    },
    {
      "midi": 67,
      "hit": false,
      "t": 113125,
      "d": 621.7447916666715,
      "v": 64
    },
    {
      "midi": 71,
      "hit": false,
      "t": 113125,
      "d": 621.7447916666715,
      "v": 64
    },
    {
      "midi": 43,
      "hit": false,
      "t": 113437.5,
      "d": 309.2447916666715,
      "v": 64
    },
    {
      "midi": 72,
      "hit": false,
      "t": 113750,
      "d": 413.4114583333285,
      "v": 64
    },
    {
      "midi": 43,
      "hit": false,
      "t": 113750,
      "d": 1246.7447916666424,
      "v": 64
    },
    {
      "midi": 62,
      "hit": false,
      "t": 113750,
      "d": 1246.7447916666424,
      "v": 64
    },
    {
      "midi": 71,
      "hit": false,
      "t": 114166.66666666666,
      "d": 413.4114583333285,
      "v": 64
    },
    {
      "midi": 67,
      "hit": false,
      "t": 114583.33333333331,
      "d": 413.4114583333285,
      "v": 64
    },
    {
      "midi": 41,
      "hit": false,
      "t": 114999.99999999997,
      "d": 934.2447916666715,
      "v": 64
    },
    {
      "midi": 60,
      "hit": false,
      "t": 114999.99999999997,
      "d": 934.2447916666715,
      "v": 64
    },
    {
      "midi": 65,
      "hit": false,
      "t": 114999.99999999997,
      "d": 934.2447916666715,
      "v": 64
    },
    {
      "midi": 69,
      "hit": false,
      "t": 114999.99999999997,
      "d": 934.2447916666715,
      "v": 64
    },
    {
      "midi": 41,
      "hit": false,
      "t": 115937.49999999997,
      "d": 309.2447916666715,
      "v": 64
    },
    {
      "midi": 60,
      "hit": false,
      "t": 115937.49999999997,
      "d": 309.2447916666715,
      "v": 64
    },
    {
      "midi": 65,
      "hit": false,
      "t": 115937.49999999997,
      "d": 309.2447916666715,
      "v": 64
    },
    {
      "midi": 69,
      "hit": false,
      "t": 115937.49999999997,
      "d": 309.2447916666715,
      "v": 64
    },
    {
      "midi": 41,
      "hit": false,
      "t": 116249.99999999997,
      "d": 621.7447916666715,
      "v": 64
    },
    {
      "midi": 60,
      "hit": false,
      "t": 116249.99999999997,
      "d": 621.7447916666715,
      "v": 64
    },
    {
      "midi": 65,
      "hit": false,
      "t": 116249.99999999997,
      "d": 621.7447916666715,
      "v": 64
    },
    {
      "midi": 69,
      "hit": false,
      "t": 116249.99999999997,
      "d": 621.7447916666715,
      "v": 64
    },
    {
      "midi": 64,
      "hit": false,
      "t": 116874.99999999997,
      "d": 309.2447916666715,
      "v": 64
    },
    {
      "midi": 36,
      "hit": false,
      "t": 116874.99999999997,
      "d": 621.7447916666715,
      "v": 64
    },
    {
      "midi": 67,
      "hit": false,
      "t": 117187.49999999997,
      "d": 309.2447916666715,
      "v": 64
    },
    {
      "midi": 41,
      "hit": false,
      "t": 117499.99999999997,
      "d": 934.2447916666715,
      "v": 64
    },
    {
      "midi": 60,
      "hit": false,
      "t": 117499.99999999997,
      "d": 934.2447916666715,
      "v": 64
    },
    {
      "midi": 65,
      "hit": false,
      "t": 117499.99999999997,
      "d": 934.2447916666715,
      "v": 64
    },
    {
      "midi": 69,
      "hit": false,
      "t": 117499.99999999997,
      "d": 934.2447916666715,
      "v": 64
    },
    {
      "midi": 41,
      "hit": false,
      "t": 118437.49999999997,
      "d": 309.2447916666715,
      "v": 64
    },
    {
      "midi": 60,
      "hit": false,
      "t": 118437.49999999997,
      "d": 309.2447916666715,
      "v": 64
    },
    {
      "midi": 65,
      "hit": false,
      "t": 118437.49999999997,
      "d": 309.2447916666715,
      "v": 64
    },
    {
      "midi": 69,
      "hit": false,
      "t": 118437.49999999997,
      "d": 309.2447916666715,
      "v": 64
    },
    {
      "midi": 60,
      "hit": false,
      "t": 118749.99999999997,
      "d": 309.2447916666715,
      "v": 64
    },
    {
      "midi": 65,
      "hit": false,
      "t": 118749.99999999997,
      "d": 309.2447916666715,
      "v": 64
    },
    {
      "midi": 69,
      "hit": false,
      "t": 118749.99999999997,
      "d": 309.2447916666715,
      "v": 64
    },
    {
      "midi": 41,
      "hit": false,
      "t": 118749.99999999997,
      "d": 621.7447916666715,
      "v": 64
    },
    {
      "midi": 60,
      "hit": false,
      "t": 119062.49999999997,
      "d": 309.2447916666715,
      "v": 64
    },
    {
      "midi": 64,
      "hit": false,
      "t": 119374.99999999997,
      "d": 309.2447916666715,
      "v": 64
    },
    {
      "midi": 36,
      "hit": false,
      "t": 119374.99999999997,
      "d": 621.7447916666715,
      "v": 64
    },
    {
      "midi": 67,
      "hit": false,
      "t": 119687.49999999997,
      "d": 309.2447916666715,
      "v": 64
    },
    {
      "midi": 60,
      "hit": false,
      "t": 119999.99999999997,
      "d": 309.2447916666715,
      "v": 64
    },
    {
      "midi": 65,
      "hit": false,
      "t": 119999.99999999997,
      "d": 309.2447916666715,
      "v": 64
    },
    {
      "midi": 69,
      "hit": false,
      "t": 119999.99999999997,
      "d": 309.2447916666715,
      "v": 64
    },
    {
      "midi": 41,
      "hit": false,
      "t": 119999.99999999997,
      "d": 934.2447916666715,
      "v": 64
    },
    {
      "midi": 60,
      "hit": false,
      "t": 120312.49999999997,
      "d": 621.7447916666715,
      "v": 64
    },
    {
      "midi": 65,
      "hit": false,
      "t": 120312.49999999997,
      "d": 621.7447916666715,
      "v": 64
    },
    {
      "midi": 69,
      "hit": false,
      "t": 120312.49999999997,
      "d": 621.7447916666715,
      "v": 64
    },
    {
      "midi": 41,
      "hit": false,
      "t": 120937.49999999997,
      "d": 309.2447916666715,
      "v": 64
    },
    {
      "midi": 60,
      "hit": false,
      "t": 120937.49999999997,
      "d": 309.2447916666715,
      "v": 64
    },
    {
      "midi": 65,
      "hit": false,
      "t": 120937.49999999997,
      "d": 309.2447916666715,
      "v": 64
    },
    {
      "midi": 69,
      "hit": false,
      "t": 120937.49999999997,
      "d": 309.2447916666715,
      "v": 64
    },
    {
      "midi": 60,
      "hit": false,
      "t": 121249.99999999997,
      "d": 621.7447916666715,
      "v": 64
    },
    {
      "midi": 65,
      "hit": false,
      "t": 121249.99999999997,
      "d": 621.7447916666715,
      "v": 64
    },
    {
      "midi": 69,
      "hit": false,
      "t": 121249.99999999997,
      "d": 621.7447916666715,
      "v": 64
    },
    {
      "midi": 41,
      "hit": false,
      "t": 121249.99999999997,
      "d": 1246.7447916666715,
      "v": 64
    },
    {
      "midi": 67,
      "hit": false,
      "t": 121874.99999999997,
      "d": 309.2447916666715,
      "v": 64
    },
    {
      "midi": 64,
      "hit": false,
      "t": 122187.49999999997,
      "d": 309.2447916666715,
      "v": 64
    },
    {
      "midi": 36,
      "hit": false,
      "t": 122499.99999999997,
      "d": 934.2447916666715,
      "v": 64
    },
    {
      "midi": 60,
      "hit": false,
      "t": 122499.99999999997,
      "d": 1559.2447916666715,
      "v": 64
    },
    {
      "midi": 64,
      "hit": false,
      "t": 122499.99999999997,
      "d": 1559.2447916666715,
      "v": 64
    },
    {
      "midi": 67,
      "hit": false,
      "t": 122499.99999999997,
      "d": 1559.2447916666715,
      "v": 64
    },
    {
      "midi": 36,
      "hit": false,
      "t": 123437.49999999997,
      "d": 309.2447916666715,
      "v": 64
    },
    {
      "midi": 36,
      "hit": false,
      "t": 123749.99999999997,
      "d": 1246.7447916666715,
      "v": 64
    },
    {
      "midi": 60,
      "hit": false,
      "t": 124062.49999999997,
      "d": 309.2447916666715,
      "v": 64
    },
    {
      "midi": 64,
      "hit": false,
      "t": 124374.99999999997,
      "d": 309.2447916666715,
      "v": 64
    },
    {
      "midi": 67,
      "hit": false,
      "t": 124687.49999999997,
      "d": 309.2447916666715,
      "v": 64
    },
    {
      "midi": 60,
      "hit": false,
      "t": 124999.99999999997,
      "d": 309.2447916666715,
      "v": 64
    },
    {
      "midi": 65,
      "hit": false,
      "t": 124999.99999999997,
      "d": 309.2447916666715,
      "v": 64
    },
    {
      "midi": 69,
      "hit": false,
      "t": 124999.99999999997,
      "d": 309.2447916666715,
      "v": 64
    },
    {
      "midi": 41,
      "hit": false,
      "t": 124999.99999999997,
      "d": 934.2447916666715,
      "v": 64
    },
    {
      "midi": 60,
      "hit": false,
      "t": 125312.49999999997,
      "d": 309.2447916666715,
      "v": 64
    },
    {
      "midi": 65,
      "hit": false,
      "t": 125312.49999999997,
      "d": 309.2447916666715,
      "v": 64
    },
    {
      "midi": 69,
      "hit": false,
      "t": 125312.49999999997,
      "d": 309.2447916666715,
      "v": 64
    },
    {
      "midi": 60,
      "hit": false,
      "t": 125624.99999999997,
      "d": 309.2447916666715,
      "v": 64
    },
    {
      "midi": 65,
      "hit": false,
      "t": 125624.99999999997,
      "d": 309.2447916666715,
      "v": 64
    },
    {
      "midi": 69,
      "hit": false,
      "t": 125624.99999999997,
      "d": 309.2447916666715,
      "v": 64
    },
    {
      "midi": 41,
      "hit": false,
      "t": 125937.49999999997,
      "d": 309.2447916666715,
      "v": 64
    },
    {
      "midi": 60,
      "hit": false,
      "t": 125937.49999999997,
      "d": 621.7447916666715,
      "v": 64
    },
    {
      "midi": 65,
      "hit": false,
      "t": 125937.49999999997,
      "d": 621.7447916666715,
      "v": 64
    },
    {
      "midi": 69,
      "hit": false,
      "t": 125937.49999999997,
      "d": 621.7447916666715,
      "v": 64
    },
    {
      "midi": 41,
      "hit": false,
      "t": 126249.99999999997,
      "d": 1246.7447916666715,
      "v": 64
    },
    {
      "midi": 69,
      "hit": false,
      "t": 126562.49999999997,
      "d": 309.2447916666715,
      "v": 64
    },
    {
      "midi": 67,
      "hit": false,
      "t": 126874.99999999997,
      "d": 309.2447916666715,
      "v": 64
    },
    {
      "midi": 65,
      "hit": false,
      "t": 127187.49999999997,
      "d": 309.2447916666715,
      "v": 64
    },
    {
      "midi": 36,
      "hit": false,
      "t": 127499.99999999997,
      "d": 934.2447916666715,
      "v": 64
    },
    {
      "midi": 36,
      "hit": false,
      "t": 128437.49999999997,
      "d": 309.2447916666715,
      "v": 64
    },
    {
      "midi": 60,
      "hit": false,
      "t": 128437.49999999997,
      "d": 309.2447916666715,
      "v": 64
    },
    {
      "midi": 64,
      "hit": false,
      "t": 128437.49999999997,
      "d": 309.2447916666715,
      "v": 64
    },
    {
      "midi": 67,
      "hit": false,
      "t": 128437.49999999997,
      "d": 309.2447916666715,
      "v": 64
    },
    {
      "midi": 60,
      "hit": false,
      "t": 128749.99999999997,
      "d": 309.2447916666715,
      "v": 64
    },
    {
      "midi": 64,
      "hit": false,
      "t": 128749.99999999997,
      "d": 309.2447916666715,
      "v": 64
    },
    {
      "midi": 67,
      "hit": false,
      "t": 128749.99999999997,
      "d": 309.2447916666715,
      "v": 64
    },
    {
      "midi": 36,
      "hit": false,
      "t": 128749.99999999997,
      "d": 1246.7447916666715,
      "v": 64
    },
    {
      "midi": 60,
      "hit": false,
      "t": 129062.49999999997,
      "d": 309.2447916666715,
      "v": 64
    },
    {
      "midi": 64,
      "hit": false,
      "t": 129374.99999999997,
      "d": 309.2447916666715,
      "v": 64
    },
    {
      "midi": 67,
      "hit": false,
      "t": 129687.49999999997,
      "d": 309.2447916666715,
      "v": 64
    },
    {
      "midi": 60,
      "hit": false,
      "t": 129999.99999999997,
      "d": 309.2447916666715,
      "v": 64
    },
    {
      "midi": 65,
      "hit": false,
      "t": 129999.99999999997,
      "d": 309.2447916666715,
      "v": 64
    },
    {
      "midi": 69,
      "hit": false,
      "t": 129999.99999999997,
      "d": 309.2447916666715,
      "v": 64
    },
    {
      "midi": 41,
      "hit": false,
      "t": 129999.99999999997,
      "d": 934.2447916666715,
      "v": 64
    },
    {
      "midi": 60,
      "hit": false,
      "t": 130312.49999999997,
      "d": 621.7447916666715,
      "v": 64
    },
    {
      "midi": 65,
      "hit": false,
      "t": 130312.49999999997,
      "d": 621.7447916666715,
      "v": 64
    },
    {
      "midi": 69,
      "hit": false,
      "t": 130312.49999999997,
      "d": 621.7447916666715,
      "v": 64
    },
    {
      "midi": 41,
      "hit": false,
      "t": 130937.49999999997,
      "d": 309.24479166665697,
      "v": 64
    },
    {
      "midi": 60,
      "hit": false,
      "t": 130937.49999999997,
      "d": 309.24479166665697,
      "v": 64
    },
    {
      "midi": 65,
      "hit": false,
      "t": 130937.49999999997,
      "d": 309.24479166665697,
      "v": 64
    },
    {
      "midi": 69,
      "hit": false,
      "t": 130937.49999999997,
      "d": 309.24479166665697,
      "v": 64
    },
    {
      "midi": 60,
      "hit": false,
      "t": 131249.99999999997,
      "d": 621.744791666657,
      "v": 64
    },
    {
      "midi": 65,
      "hit": false,
      "t": 131249.99999999997,
      "d": 621.744791666657,
      "v": 64
    },
    {
      "midi": 69,
      "hit": false,
      "t": 131249.99999999997,
      "d": 621.744791666657,
      "v": 64
    },
    {
      "midi": 41,
      "hit": false,
      "t": 131249.99999999997,
      "d": 1246.744791666657,
      "v": 64
    },
    {
      "midi": 67,
      "hit": false,
      "t": 131874.99999999997,
      "d": 309.24479166665697,
      "v": 64
    },
    {
      "midi": 64,
      "hit": false,
      "t": 132187.49999999997,
      "d": 309.24479166665697,
      "v": 64
    },
    {
      "midi": 45,
      "hit": false,
      "t": 132499.99999999997,
      "d": 934.244791666657,
      "v": 64
    },
    {
      "midi": 57,
      "hit": false,
      "t": 132499.99999999997,
      "d": 934.244791666657,
      "v": 64
    },
    {
      "midi": 60,
      "hit": false,
      "t": 132499.99999999997,
      "d": 934.244791666657,
      "v": 64
    },
    {
      "midi": 64,
      "hit": false,
      "t": 132499.99999999997,
      "d": 934.244791666657,
      "v": 64
    },
    {
      "midi": 45,
      "hit": false,
      "t": 133437.49999999997,
      "d": 309.24479166665697,
      "v": 64
    },
    {
      "midi": 57,
      "hit": false,
      "t": 133437.49999999997,
      "d": 309.24479166665697,
      "v": 64
    },
    {
      "midi": 60,
      "hit": false,
      "t": 133437.49999999997,
      "d": 309.24479166665697,
      "v": 64
    },
    {
      "midi": 64,
      "hit": false,
      "t": 133437.49999999997,
      "d": 309.24479166665697,
      "v": 64
    },
    {
      "midi": 67,
      "hit": false,
      "t": 133749.99999999997,
      "d": 309.24479166665697,
      "v": 64
    },
    {
      "midi": 57,
      "hit": false,
      "t": 133749.99999999997,
      "d": 621.744791666657,
      "v": 64
    },
    {
      "midi": 60,
      "hit": false,
      "t": 133749.99999999997,
      "d": 621.744791666657,
      "v": 64
    },
    {
      "midi": 45,
      "hit": false,
      "t": 133749.99999999997,
      "d": 1246.744791666657,
      "v": 64
    },
    {
      "midi": 64,
      "hit": false,
      "t": 134062.49999999997,
      "d": 309.24479166665697,
      "v": 64
    },
    {
      "midi": 57,
      "hit": false,
      "t": 134374.99999999997,
      "d": 621.744791666657,
      "v": 64
    },
    {
      "midi": 60,
      "hit": false,
      "t": 134374.99999999997,
      "d": 621.744791666657,
      "v": 64
    },
    {
      "midi": 64,
      "hit": false,
      "t": 134374.99999999997,
      "d": 621.744791666657,
      "v": 64
    },
    {
      "midi": 62,
      "hit": false,
      "t": 134999.99999999997,
      "d": 621.744791666657,
      "v": 64
    },
    {
      "midi": 67,
      "hit": false,
      "t": 134999.99999999997,
      "d": 621.744791666657,
      "v": 64
    },
    {
      "midi": 71,
      "hit": false,
      "t": 134999.99999999997,
      "d": 621.744791666657,
      "v": 64
    },
    {
      "midi": 43,
      "hit": false,
      "t": 134999.99999999997,
      "d": 934.244791666657,
      "v": 64
    },
    {
      "midi": 62,
      "hit": false,
      "t": 135624.99999999997,
      "d": 621.744791666657,
      "v": 64
    },
    {
      "midi": 67,
      "hit": false,
      "t": 135624.99999999997,
      "d": 621.744791666657,
      "v": 64
    },
    {
      "midi": 71,
      "hit": false,
      "t": 135624.99999999997,
      "d": 621.744791666657,
      "v": 64
    },
    {
      "midi": 43,
      "hit": false,
      "t": 135937.49999999997,
      "d": 309.24479166665697,
      "v": 64
    },
    {
      "midi": 72,
      "hit": false,
      "t": 136249.99999999997,
      "d": 413.41145833334303,
      "v": 64
    },
    {
      "midi": 43,
      "hit": false,
      "t": 136249.99999999997,
      "d": 1246.7447916667152,
      "v": 64
    },
    {
      "midi": 62,
      "hit": false,
      "t": 136249.99999999997,
      "d": 1246.7447916667152,
      "v": 64
    },
    {
      "midi": 71,
      "hit": false,
      "t": 136666.66666666666,
      "d": 413.41145833334303,
      "v": 64
    },
    {
      "midi": 67,
      "hit": false,
      "t": 137083.33333333334,
      "d": 413.41145833334303,
      "v": 64
    },
    {
      "midi": 41,
      "hit": false,
      "t": 137500.00000000003,
      "d": 934.244791666657,
      "v": 64
    },
    {
      "midi": 60,
      "hit": false,
      "t": 137500.00000000003,
      "d": 934.244791666657,
      "v": 64
    },
    {
      "midi": 65,
      "hit": false,
      "t": 137500.00000000003,
      "d": 934.244791666657,
      "v": 64
    },
    {
      "midi": 69,
      "hit": false,
      "t": 137500.00000000003,
      "d": 934.244791666657,
      "v": 64
    },
    {
      "midi": 41,
      "hit": false,
      "t": 138437.50000000003,
      "d": 309.24479166665697,
      "v": 64
    },
    {
      "midi": 60,
      "hit": false,
      "t": 138437.50000000003,
      "d": 309.24479166665697,
      "v": 64
    },
    {
      "midi": 65,
      "hit": false,
      "t": 138437.50000000003,
      "d": 309.24479166665697,
      "v": 64
    },
    {
      "midi": 69,
      "hit": false,
      "t": 138437.50000000003,
      "d": 309.24479166665697,
      "v": 64
    },
    {
      "midi": 41,
      "hit": false,
      "t": 138750.00000000003,
      "d": 621.744791666657,
      "v": 64
    },
    {
      "midi": 60,
      "hit": false,
      "t": 138750.00000000003,
      "d": 621.744791666657,
      "v": 64
    },
    {
      "midi": 65,
      "hit": false,
      "t": 138750.00000000003,
      "d": 621.744791666657,
      "v": 64
    },
    {
      "midi": 69,
      "hit": false,
      "t": 138750.00000000003,
      "d": 621.744791666657,
      "v": 64
    },
    {
      "midi": 64,
      "hit": false,
      "t": 139375.00000000003,
      "d": 309.24479166665697,
      "v": 64
    },
    {
      "midi": 36,
      "hit": false,
      "t": 139375.00000000003,
      "d": 621.744791666657,
      "v": 64
    },
    {
      "midi": 67,
      "hit": false,
      "t": 139687.50000000003,
      "d": 309.24479166665697,
      "v": 64
    },
    {
      "midi": 41,
      "hit": false,
      "t": 140000.00000000003,
      "d": 934.244791666657,
      "v": 64
    },
    {
      "midi": 60,
      "hit": false,
      "t": 140000.00000000003,
      "d": 934.244791666657,
      "v": 64
    },
    {
      "midi": 65,
      "hit": false,
      "t": 140000.00000000003,
      "d": 934.244791666657,
      "v": 64
    },
    {
      "midi": 69,
      "hit": false,
      "t": 140000.00000000003,
      "d": 934.244791666657,
      "v": 64
    },
    {
      "midi": 41,
      "hit": false,
      "t": 140937.50000000003,
      "d": 309.24479166665697,
      "v": 64
    },
    {
      "midi": 60,
      "hit": false,
      "t": 140937.50000000003,
      "d": 309.24479166665697,
      "v": 64
    },
    {
      "midi": 65,
      "hit": false,
      "t": 140937.50000000003,
      "d": 309.24479166665697,
      "v": 64
    },
    {
      "midi": 69,
      "hit": false,
      "t": 140937.50000000003,
      "d": 309.24479166665697,
      "v": 64
    },
    {
      "midi": 60,
      "hit": false,
      "t": 141250.00000000003,
      "d": 309.24479166665697,
      "v": 64
    },
    {
      "midi": 65,
      "hit": false,
      "t": 141250.00000000003,
      "d": 309.24479166665697,
      "v": 64
    },
    {
      "midi": 69,
      "hit": false,
      "t": 141250.00000000003,
      "d": 309.24479166665697,
      "v": 64
    },
    {
      "midi": 41,
      "hit": false,
      "t": 141250.00000000003,
      "d": 621.744791666657,
      "v": 64
    },
    {
      "midi": 60,
      "hit": false,
      "t": 141562.50000000003,
      "d": 309.24479166665697,
      "v": 64
    },
    {
      "midi": 64,
      "hit": false,
      "t": 141875.00000000003,
      "d": 309.24479166665697,
      "v": 64
    },
    {
      "midi": 36,
      "hit": false,
      "t": 141875.00000000003,
      "d": 621.744791666657,
      "v": 64
    },
    {
      "midi": 67,
      "hit": false,
      "t": 142187.50000000003,
      "d": 309.24479166665697,
      "v": 64
    },
    {
      "midi": 60,
      "hit": false,
      "t": 142500.00000000003,
      "d": 309.24479166665697,
      "v": 64
    },
    {
      "midi": 65,
      "hit": false,
      "t": 142500.00000000003,
      "d": 309.24479166665697,
      "v": 64
    },
    {
      "midi": 69,
      "hit": false,
      "t": 142500.00000000003,
      "d": 309.24479166665697,
      "v": 64
    },
    {
      "midi": 41,
      "hit": false,
      "t": 142500.00000000003,
      "d": 934.244791666657,
      "v": 64
    },
    {
      "midi": 60,
      "hit": false,
      "t": 142812.50000000003,
      "d": 621.744791666657,
      "v": 64
    },
    {
      "midi": 65,
      "hit": false,
      "t": 142812.50000000003,
      "d": 621.744791666657,
      "v": 64
    },
    {
      "midi": 69,
      "hit": false,
      "t": 142812.50000000003,
      "d": 621.744791666657,
      "v": 64
    },
    {
      "midi": 41,
      "hit": false,
      "t": 143437.50000000003,
      "d": 309.24479166665697,
      "v": 64
    },
    {
      "midi": 60,
      "hit": false,
      "t": 143437.50000000003,
      "d": 309.24479166665697,
      "v": 64
    },
    {
      "midi": 65,
      "hit": false,
      "t": 143437.50000000003,
      "d": 309.24479166665697,
      "v": 64
    },
    {
      "midi": 69,
      "hit": false,
      "t": 143437.50000000003,
      "d": 309.24479166665697,
      "v": 64
    },
    {
      "midi": 60,
      "hit": false,
      "t": 143750.00000000003,
      "d": 621.744791666657,
      "v": 64
    },
    {
      "midi": 65,
      "hit": false,
      "t": 143750.00000000003,
      "d": 621.744791666657,
      "v": 64
    },
    {
      "midi": 69,
      "hit": false,
      "t": 143750.00000000003,
      "d": 621.744791666657,
      "v": 64
    },
    {
      "midi": 41,
      "hit": false,
      "t": 143750.00000000003,
      "d": 1246.744791666657,
      "v": 64
    },
    {
      "midi": 67,
      "hit": false,
      "t": 144375.00000000003,
      "d": 309.24479166665697,
      "v": 64
    },
    {
      "midi": 64,
      "hit": false,
      "t": 144687.50000000003,
      "d": 309.24479166665697,
      "v": 64
    },
    {
      "midi": 36,
      "hit": false,
      "t": 145000.00000000003,
      "d": 934.244791666657,
      "v": 64
    },
    {
      "midi": 60,
      "hit": false,
      "t": 145000.00000000003,
      "d": 1559.244791666657,
      "v": 64
    },
    {
      "midi": 64,
      "hit": false,
      "t": 145000.00000000003,
      "d": 1559.244791666657,
      "v": 64
    },
    {
      "midi": 67,
      "hit": false,
      "t": 145000.00000000003,
      "d": 1559.244791666657,
      "v": 64
    },
    {
      "midi": 36,
      "hit": false,
      "t": 145937.50000000003,
      "d": 309.24479166665697,
      "v": 64
    },
    {
      "midi": 36,
      "hit": false,
      "t": 146250.00000000003,
      "d": 1246.744791666657,
      "v": 64
    },
    {
      "midi": 60,
      "hit": false,
      "t": 146562.50000000003,
      "d": 309.24479166665697,
      "v": 64
    },
    {
      "midi": 64,
      "hit": false,
      "t": 146875.00000000003,
      "d": 309.24479166665697,
      "v": 64
    },
    {
      "midi": 67,
      "hit": false,
      "t": 147187.50000000003,
      "d": 309.24479166665697,
      "v": 64
    },
    {
      "midi": 60,
      "hit": false,
      "t": 147500.00000000003,
      "d": 309.24479166665697,
      "v": 64
    },
    {
      "midi": 65,
      "hit": false,
      "t": 147500.00000000003,
      "d": 309.24479166665697,
      "v": 64
    },
    {
      "midi": 69,
      "hit": false,
      "t": 147500.00000000003,
      "d": 309.24479166665697,
      "v": 64
    },
    {
      "midi": 41,
      "hit": false,
      "t": 147500.00000000003,
      "d": 934.244791666657,
      "v": 64
    },
    {
      "midi": 60,
      "hit": false,
      "t": 147812.50000000003,
      "d": 309.24479166665697,
      "v": 64
    },
    {
      "midi": 65,
      "hit": false,
      "t": 147812.50000000003,
      "d": 309.24479166665697,
      "v": 64
    },
    {
      "midi": 69,
      "hit": false,
      "t": 147812.50000000003,
      "d": 309.24479166665697,
      "v": 64
    },
    {
      "midi": 60,
      "hit": false,
      "t": 148125.00000000003,
      "d": 309.24479166665697,
      "v": 64
    },
    {
      "midi": 65,
      "hit": false,
      "t": 148125.00000000003,
      "d": 309.24479166665697,
      "v": 64
    },
    {
      "midi": 69,
      "hit": false,
      "t": 148125.00000000003,
      "d": 309.24479166665697,
      "v": 64
    },
    {
      "midi": 41,
      "hit": false,
      "t": 148437.50000000003,
      "d": 309.24479166665697,
      "v": 64
    },
    {
      "midi": 60,
      "hit": false,
      "t": 148437.50000000003,
      "d": 621.744791666657,
      "v": 64
    },
    {
      "midi": 65,
      "hit": false,
      "t": 148437.50000000003,
      "d": 621.744791666657,
      "v": 64
    },
    {
      "midi": 69,
      "hit": false,
      "t": 148437.50000000003,
      "d": 621.744791666657,
      "v": 64
    },
    {
      "midi": 41,
      "hit": false,
      "t": 148750.00000000003,
      "d": 1246.744791666657,
      "v": 64
    },
    {
      "midi": 69,
      "hit": false,
      "t": 149062.50000000003,
      "d": 309.24479166665697,
      "v": 64
    },
    {
      "midi": 67,
      "hit": false,
      "t": 149375.00000000003,
      "d": 309.24479166665697,
      "v": 64
    },
    {
      "midi": 65,
      "hit": false,
      "t": 149687.50000000003,
      "d": 309.24479166665697,
      "v": 64
    },
    {
      "midi": 36,
      "hit": false,
      "t": 150000.00000000003,
      "d": 934.244791666657,
      "v": 64
    },
    {
      "midi": 36,
      "hit": false,
      "t": 150937.50000000003,
      "d": 309.24479166665697,
      "v": 64
    },
    {
      "midi": 60,
      "hit": false,
      "t": 150937.50000000003,
      "d": 309.24479166665697,
      "v": 64
    },
    {
      "midi": 64,
      "hit": false,
      "t": 150937.50000000003,
      "d": 309.24479166665697,
      "v": 64
    },
    {
      "midi": 67,
      "hit": false,
      "t": 150937.50000000003,
      "d": 309.24479166665697,
      "v": 64
    },
    {
      "midi": 60,
      "hit": false,
      "t": 151250.00000000003,
      "d": 309.24479166665697,
      "v": 64
    },
    {
      "midi": 64,
      "hit": false,
      "t": 151250.00000000003,
      "d": 309.24479166665697,
      "v": 64
    },
    {
      "midi": 67,
      "hit": false,
      "t": 151250.00000000003,
      "d": 309.24479166665697,
      "v": 64
    },
    {
      "midi": 36,
      "hit": false,
      "t": 151250.00000000003,
      "d": 1246.744791666657,
      "v": 64
    },
    {
      "midi": 60,
      "hit": false,
      "t": 151562.50000000003,
      "d": 309.24479166665697,
      "v": 64
    },
    {
      "midi": 64,
      "hit": false,
      "t": 151875.00000000003,
      "d": 309.24479166665697,
      "v": 64
    },
    {
      "midi": 67,
      "hit": false,
      "t": 152187.50000000003,
      "d": 309.24479166665697,
      "v": 64
    },
    {
      "midi": 60,
      "hit": false,
      "t": 152500.00000000003,
      "d": 309.24479166665697,
      "v": 64
    },
    {
      "midi": 65,
      "hit": false,
      "t": 152500.00000000003,
      "d": 309.24479166665697,
      "v": 64
    },
    {
      "midi": 69,
      "hit": false,
      "t": 152500.00000000003,
      "d": 309.24479166665697,
      "v": 64
    },
    {
      "midi": 41,
      "hit": false,
      "t": 152500.00000000003,
      "d": 934.244791666657,
      "v": 64
    },
    {
      "midi": 60,
      "hit": false,
      "t": 152812.50000000003,
      "d": 621.744791666657,
      "v": 64
    },
    {
      "midi": 65,
      "hit": false,
      "t": 152812.50000000003,
      "d": 621.744791666657,
      "v": 64
    },
    {
      "midi": 69,
      "hit": false,
      "t": 152812.50000000003,
      "d": 621.744791666657,
      "v": 64
    },
    {
      "midi": 41,
      "hit": false,
      "t": 153437.50000000003,
      "d": 309.24479166665697,
      "v": 64
    },
    {
      "midi": 60,
      "hit": false,
      "t": 153437.50000000003,
      "d": 309.24479166665697,
      "v": 64
    },
    {
      "midi": 65,
      "hit": false,
      "t": 153437.50000000003,
      "d": 309.24479166665697,
      "v": 64
    },
    {
      "midi": 69,
      "hit": false,
      "t": 153437.50000000003,
      "d": 309.24479166665697,
      "v": 64
    },
    {
      "midi": 60,
      "hit": false,
      "t": 153750.00000000003,
      "d": 621.744791666657,
      "v": 64
    },
    {
      "midi": 65,
      "hit": false,
      "t": 153750.00000000003,
      "d": 621.744791666657,
      "v": 64
    },
    {
      "midi": 69,
      "hit": false,
      "t": 153750.00000000003,
      "d": 621.744791666657,
      "v": 64
    },
    {
      "midi": 41,
      "hit": false,
      "t": 153750.00000000003,
      "d": 1246.744791666657,
      "v": 64
    },
    {
      "midi": 67,
      "hit": false,
      "t": 154375.00000000003,
      "d": 309.24479166665697,
      "v": 64
    },
    {
      "midi": 64,
      "hit": false,
      "t": 154687.50000000003,
      "d": 309.24479166665697,
      "v": 64
    },
    {
      "midi": 45,
      "hit": false,
      "t": 155000.00000000003,
      "d": 934.244791666657,
      "v": 64
    },
    {
      "midi": 57,
      "hit": false,
      "t": 155000.00000000003,
      "d": 934.244791666657,
      "v": 64
    },
    {
      "midi": 60,
      "hit": false,
      "t": 155000.00000000003,
      "d": 934.244791666657,
      "v": 64
    },
    {
      "midi": 64,
      "hit": false,
      "t": 155000.00000000003,
      "d": 934.244791666657,
      "v": 64
    },
    {
      "midi": 45,
      "hit": false,
      "t": 155937.50000000003,
      "d": 309.24479166665697,
      "v": 64
    },
    {
      "midi": 57,
      "hit": false,
      "t": 155937.50000000003,
      "d": 309.24479166665697,
      "v": 64
    },
    {
      "midi": 60,
      "hit": false,
      "t": 155937.50000000003,
      "d": 309.24479166665697,
      "v": 64
    },
    {
      "midi": 64,
      "hit": false,
      "t": 155937.50000000003,
      "d": 309.24479166665697,
      "v": 64
    },
    {
      "midi": 67,
      "hit": false,
      "t": 156250.00000000003,
      "d": 309.24479166665697,
      "v": 64
    },
    {
      "midi": 57,
      "hit": false,
      "t": 156250.00000000003,
      "d": 621.744791666657,
      "v": 64
    },
    {
      "midi": 60,
      "hit": false,
      "t": 156250.00000000003,
      "d": 621.744791666657,
      "v": 64
    },
    {
      "midi": 45,
      "hit": false,
      "t": 156250.00000000003,
      "d": 1246.744791666657,
      "v": 64
    },
    {
      "midi": 64,
      "hit": false,
      "t": 156562.50000000003,
      "d": 309.24479166665697,
      "v": 64
    },
    {
      "midi": 57,
      "hit": false,
      "t": 156875.00000000003,
      "d": 621.744791666657,
      "v": 64
    },
    {
      "midi": 60,
      "hit": false,
      "t": 156875.00000000003,
      "d": 621.744791666657,
      "v": 64
    },
    {
      "midi": 64,
      "hit": false,
      "t": 156875.00000000003,
      "d": 621.744791666657,
      "v": 64
    },
    {
      "midi": 62,
      "hit": false,
      "t": 157500.00000000003,
      "d": 621.744791666657,
      "v": 64
    },
    {
      "midi": 67,
      "hit": false,
      "t": 157500.00000000003,
      "d": 621.744791666657,
      "v": 64
    },
    {
      "midi": 71,
      "hit": false,
      "t": 157500.00000000003,
      "d": 621.744791666657,
      "v": 64
    },
    {
      "midi": 43,
      "hit": false,
      "t": 157500.00000000003,
      "d": 934.244791666657,
      "v": 64
    },
    {
      "midi": 62,
      "hit": false,
      "t": 158125.00000000003,
      "d": 621.744791666657,
      "v": 64
    },
    {
      "midi": 67,
      "hit": false,
      "t": 158125.00000000003,
      "d": 621.744791666657,
      "v": 64
    },
    {
      "midi": 71,
      "hit": false,
      "t": 158125.00000000003,
      "d": 621.744791666657,
      "v": 64
    },
    {
      "midi": 43,
      "hit": false,
      "t": 158437.50000000003,
      "d": 309.24479166665697,
      "v": 64
    },
    {
      "midi": 72,
      "hit": false,
      "t": 158750.00000000003,
      "d": 413.41145833334303,
      "v": 64
    },
    {
      "midi": 43,
      "hit": false,
      "t": 158750.00000000003,
      "d": 1246.7447916667152,
      "v": 64
    },
    {
      "midi": 62,
      "hit": false,
      "t": 158750.00000000003,
      "d": 1246.7447916667152,
      "v": 64
    },
    {
      "midi": 71,
      "hit": false,
      "t": 159166.66666666672,
      "d": 413.41145833334303,
      "v": 64
    },
    {
      "midi": 67,
      "hit": false,
      "t": 159583.3333333334,
      "d": 413.41145833334303,
      "v": 64
    },
    {
      "midi": 41,
      "hit": false,
      "t": 160000.0000000001,
      "d": 934.244791666657,
      "v": 64
    },
    {
      "midi": 60,
      "hit": false,
      "t": 160000.0000000001,
      "d": 934.244791666657,
      "v": 64
    },
    {
      "midi": 65,
      "hit": false,
      "t": 160000.0000000001,
      "d": 934.244791666657,
      "v": 64
    },
    {
      "midi": 69,
      "hit": false,
      "t": 160000.0000000001,
      "d": 934.244791666657,
      "v": 64
    },
    {
      "midi": 41,
      "hit": false,
      "t": 160937.5000000001,
      "d": 309.24479166665697,
      "v": 64
    },
    {
      "midi": 60,
      "hit": false,
      "t": 160937.5000000001,
      "d": 309.24479166665697,
      "v": 64
    },
    {
      "midi": 65,
      "hit": false,
      "t": 160937.5000000001,
      "d": 309.24479166665697,
      "v": 64
    },
    {
      "midi": 69,
      "hit": false,
      "t": 160937.5000000001,
      "d": 309.24479166665697,
      "v": 64
    },
    {
      "midi": 41,
      "hit": false,
      "t": 161250.0000000001,
      "d": 621.744791666657,
      "v": 64
    },
    {
      "midi": 60,
      "hit": false,
      "t": 161250.0000000001,
      "d": 621.744791666657,
      "v": 64
    },
    {
      "midi": 65,
      "hit": false,
      "t": 161250.0000000001,
      "d": 621.744791666657,
      "v": 64
    },
    {
      "midi": 69,
      "hit": false,
      "t": 161250.0000000001,
      "d": 621.744791666657,
      "v": 64
    },
    {
      "midi": 64,
      "hit": false,
      "t": 161875.0000000001,
      "d": 309.24479166665697,
      "v": 64
    },
    {
      "midi": 36,
      "hit": false,
      "t": 161875.0000000001,
      "d": 621.744791666657,
      "v": 64
    },
    {
      "midi": 67,
      "hit": false,
      "t": 162187.5000000001,
      "d": 309.24479166665697,
      "v": 64
    },
    {
      "midi": 41,
      "hit": false,
      "t": 162500.0000000001,
      "d": 934.244791666657,
      "v": 64
    },
    {
      "midi": 60,
      "hit": false,
      "t": 162500.0000000001,
      "d": 934.244791666657,
      "v": 64
    },
    {
      "midi": 65,
      "hit": false,
      "t": 162500.0000000001,
      "d": 934.244791666657,
      "v": 64
    },
    {
      "midi": 69,
      "hit": false,
      "t": 162500.0000000001,
      "d": 934.244791666657,
      "v": 64
    },
    {
      "midi": 41,
      "hit": false,
      "t": 163437.5000000001,
      "d": 309.24479166665697,
      "v": 64
    },
    {
      "midi": 60,
      "hit": false,
      "t": 163437.5000000001,
      "d": 309.24479166665697,
      "v": 64
    },
    {
      "midi": 65,
      "hit": false,
      "t": 163437.5000000001,
      "d": 309.24479166665697,
      "v": 64
    },
    {
      "midi": 69,
      "hit": false,
      "t": 163437.5000000001,
      "d": 309.24479166665697,
      "v": 64
    },
    {
      "midi": 41,
      "hit": false,
      "t": 163750.0000000001,
      "d": 1246.744791666657,
      "v": 64
    },
    {
      "midi": 60,
      "hit": false,
      "t": 163750.0000000001,
      "d": 1246.744791666657,
      "v": 64
    },
    {
      "midi": 65,
      "hit": false,
      "t": 163750.0000000001,
      "d": 1246.744791666657,
      "v": 64
    },
    {
      "midi": 69,
      "hit": false,
      "t": 163750.0000000001,
      "d": 1246.744791666657,
      "v": 64
    },
    {
      "midi": 38,
      "hit": false,
      "t": 165000.0000000001,
      "d": 4996.744791666657,
      "v": 64
    },
    {
      "midi": 54,
      "hit": false,
      "t": 165000.0000000001,
      "d": 4996.744791666657,
      "v": 64
    },
    {
      "midi": 57,
      "hit": false,
      "t": 165000.0000000001,
      "d": 4996.744791666657,
      "v": 64
    },
    {
      "midi": 62,
      "hit": false,
      "t": 165000.0000000001,
      "d": 4996.744791666657,
      "v": 64
    },
    {
      "midi": 41,
      "hit": false,
      "t": 170000.0000000001,
      "d": 4996.744791666657,
      "v": 64
    },
    {
      "midi": 53,
      "hit": false,
      "t": 170000.0000000001,
      "d": 4996.744791666657,
      "v": 64
    },
    {
      "midi": 57,
      "hit": false,
      "t": 170000.0000000001,
      "d": 4996.744791666657,
      "v": 64
    },
    {
      "midi": 60,
      "hit": false,
      "t": 170000.0000000001,
      "d": 4996.744791666657,
      "v": 64
    },
    {
      "midi": 46,
      "hit": false,
      "t": 175000.0000000001,
      "d": 4996.744791666657,
      "v": 64
    },
    {
      "midi": 53,
      "hit": false,
      "t": 175000.0000000001,
      "d": 4996.744791666657,
      "v": 64
    },
    {
      "midi": 58,
      "hit": false,
      "t": 175000.0000000001,
      "d": 4996.744791666657,
      "v": 64
    },
    {
      "midi": 62,
      "hit": false,
      "t": 175000.0000000001,
      "d": 4996.744791666657,
      "v": 64
    },
    {
      "midi": 45,
      "hit": false,
      "t": 180000.0000000001,
      "d": 4996.744791666657,
      "v": 64
    },
    {
      "midi": 52,
      "hit": false,
      "t": 180000.0000000001,
      "d": 4996.744791666657,
      "v": 64
    },
    {
      "midi": 57,
      "hit": false,
      "t": 180000.0000000001,
      "d": 4996.744791666657,
      "v": 64
    },
    {
      "midi": 60,
      "hit": false,
      "t": 180000.0000000001,
      "d": 4996.744791666657,
      "v": 64
    },
    {
      "midi": 46,
      "hit": false,
      "t": 185000.0000000001,
      "d": 4371.744791666657,
      "v": 64
    },
    {
      "midi": 53,
      "hit": false,
      "t": 185000.0000000001,
      "d": 4996.744791666657,
      "v": 64
    },
    {
      "midi": 58,
      "hit": false,
      "t": 185000.0000000001,
      "d": 4996.744791666657,
      "v": 64
    },
    {
      "midi": 62,
      "hit": false,
      "t": 185000.0000000001,
      "d": 4996.744791666657,
      "v": 64
    },
    {
      "midi": 48,
      "hit": false,
      "t": 189375.0000000001,
      "d": 621.744791666657,
      "v": 64
    },
    {
      "midi": 50,
      "hit": false,
      "t": 190000.0000000001,
      "d": 4996.744791666657,
      "v": 64
    },
    {
      "midi": 57,
      "hit": false,
      "t": 190000.0000000001,
      "d": 4996.744791666657,
      "v": 64
    },
    {
      "midi": 62,
      "hit": false,
      "t": 190000.0000000001,
      "d": 4996.744791666657,
      "v": 64
    },
    {
      "midi": 65,
      "hit": false,
      "t": 190000.0000000001,
      "d": 4996.744791666657,
      "v": 64
    },
    {
      "midi": 41,
      "hit": false,
      "t": 195000.0000000001,
      "d": 4996.744791666657,
      "v": 64
    },
    {
      "midi": 57,
      "hit": false,
      "t": 195000.0000000001,
      "d": 4996.744791666657,
      "v": 64
    },
    {
      "midi": 60,
      "hit": false,
      "t": 195000.0000000001,
      "d": 4996.744791666657,
      "v": 64
    },
    {
      "midi": 65,
      "hit": false,
      "t": 195000.0000000001,
      "d": 4996.744791666657,
      "v": 64
    },
    {
      "midi": 50,
      "hit": false,
      "t": 200000.0000000001,
      "d": 4996.744791666657,
      "v": 64
    },
    {
      "midi": 57,
      "hit": false,
      "t": 200000.0000000001,
      "d": 4996.744791666657,
      "v": 64
    },
    {
      "midi": 62,
      "hit": false,
      "t": 200000.0000000001,
      "d": 4996.744791666657,
      "v": 64
    },
    {
      "midi": 66,
      "hit": false,
      "t": 200000.0000000001,
      "d": 4996.744791666657,
      "v": 64
    },
    {
      "midi": 67,
      "hit": false,
      "t": 205000.0000000001,
      "d": 309.24479166665697,
      "v": 64
    },
    {
      "midi": 72,
      "hit": false,
      "t": 205000.0000000001,
      "d": 309.24479166665697,
      "v": 64
    },
    {
      "midi": 76,
      "hit": false,
      "t": 205000.0000000001,
      "d": 309.24479166665697,
      "v": 64
    },
    {
      "midi": 48,
      "hit": false,
      "t": 205000.0000000001,
      "d": 934.244791666657,
      "v": 64
    },
    {
      "midi": 67,
      "hit": false,
      "t": 205312.5000000001,
      "d": 621.744791666657,
      "v": 64
    },
    {
      "midi": 72,
      "hit": false,
      "t": 205312.5000000001,
      "d": 621.744791666657,
      "v": 64
    },
    {
      "midi": 76,
      "hit": false,
      "t": 205312.5000000001,
      "d": 621.744791666657,
      "v": 64
    },
    {
      "midi": 48,
      "hit": false,
      "t": 205937.5000000001,
      "d": 309.24479166665697,
      "v": 64
    },
    {
      "midi": 67,
      "hit": false,
      "t": 205937.5000000001,
      "d": 309.24479166665697,
      "v": 64
    },
    {
      "midi": 72,
      "hit": false,
      "t": 205937.5000000001,
      "d": 309.24479166665697,
      "v": 64
    },
    {
      "midi": 76,
      "hit": false,
      "t": 205937.5000000001,
      "d": 309.24479166665697,
      "v": 64
    },
    {
      "midi": 67,
      "hit": false,
      "t": 206250.0000000001,
      "d": 621.744791666657,
      "v": 64
    },
    {
      "midi": 72,
      "hit": false,
      "t": 206250.0000000001,
      "d": 621.744791666657,
      "v": 64
    },
    {
      "midi": 76,
      "hit": false,
      "t": 206250.0000000001,
      "d": 621.744791666657,
      "v": 64
    },
    {
      "midi": 48,
      "hit": false,
      "t": 206250.0000000001,
      "d": 1246.744791666657,
      "v": 64
    },
    {
      "midi": 74,
      "hit": false,
      "t": 206875.0000000001,
      "d": 309.24479166665697,
      "v": 64
    },
    {
      "midi": 71,
      "hit": false,
      "t": 207187.5000000001,
      "d": 309.24479166665697,
      "v": 64
    },
    {
      "midi": 43,
      "hit": false,
      "t": 207500.0000000001,
      "d": 934.244791666657,
      "v": 64
    },
    {
      "midi": 67,
      "hit": false,
      "t": 207500.0000000001,
      "d": 1559.244791666657,
      "v": 64
    },
    {
      "midi": 71,
      "hit": false,
      "t": 207500.0000000001,
      "d": 1559.244791666657,
      "v": 64
    },
    {
      "midi": 74,
      "hit": false,
      "t": 207500.0000000001,
      "d": 1559.244791666657,
      "v": 64
    },
    {
      "midi": 43,
      "hit": false,
      "t": 208437.5000000001,
      "d": 309.24479166665697,
      "v": 64
    },
    {
      "midi": 47,
      "hit": false,
      "t": 208750.0000000001,
      "d": 309.24479166665697,
      "v": 64
    },
    {
      "midi": 45,
      "hit": false,
      "t": 209062.5000000001,
      "d": 309.24479166665697,
      "v": 64
    },
    {
      "midi": 67,
      "hit": false,
      "t": 209062.5000000001,
      "d": 309.24479166665697,
      "v": 64
    },
    {
      "midi": 45,
      "hit": false,
      "t": 209375.0000000001,
      "d": 309.24479166665697,
      "v": 64
    },
    {
      "midi": 71,
      "hit": false,
      "t": 209375.0000000001,
      "d": 309.24479166665697,
      "v": 64
    },
    {
      "midi": 43,
      "hit": false,
      "t": 209687.5000000001,
      "d": 309.24479166665697,
      "v": 64
    },
    {
      "midi": 74,
      "hit": false,
      "t": 209687.5000000001,
      "d": 309.24479166665697,
      "v": 64
    },
    {
      "midi": 67,
      "hit": false,
      "t": 210000.0000000001,
      "d": 309.24479166665697,
      "v": 64
    },
    {
      "midi": 72,
      "hit": false,
      "t": 210000.0000000001,
      "d": 309.24479166665697,
      "v": 64
    },
    {
      "midi": 76,
      "hit": false,
      "t": 210000.0000000001,
      "d": 309.24479166665697,
      "v": 64
    },
    {
      "midi": 48,
      "hit": false,
      "t": 210000.0000000001,
      "d": 934.244791666657,
      "v": 64
    },
    {
      "midi": 67,
      "hit": false,
      "t": 210312.5000000001,
      "d": 309.24479166665697,
      "v": 64
    },
    {
      "midi": 72,
      "hit": false,
      "t": 210312.5000000001,
      "d": 309.24479166665697,
      "v": 64
    },
    {
      "midi": 76,
      "hit": false,
      "t": 210312.5000000001,
      "d": 309.24479166665697,
      "v": 64
    },
    {
      "midi": 67,
      "hit": false,
      "t": 210625.0000000001,
      "d": 309.24479166665697,
      "v": 64
    },
    {
      "midi": 72,
      "hit": false,
      "t": 210625.0000000001,
      "d": 309.24479166665697,
      "v": 64
    },
    {
      "midi": 76,
      "hit": false,
      "t": 210625.0000000001,
      "d": 309.24479166665697,
      "v": 64
    },
    {
      "midi": 48,
      "hit": false,
      "t": 210937.5000000001,
      "d": 309.24479166665697,
      "v": 64
    },
    {
      "midi": 67,
      "hit": false,
      "t": 210937.5000000001,
      "d": 934.244791666657,
      "v": 64
    },
    {
      "midi": 72,
      "hit": false,
      "t": 210937.5000000001,
      "d": 934.244791666657,
      "v": 64
    },
    {
      "midi": 76,
      "hit": false,
      "t": 210937.5000000001,
      "d": 934.244791666657,
      "v": 64
    },
    {
      "midi": 48,
      "hit": false,
      "t": 211250.0000000001,
      "d": 1246.744791666657,
      "v": 64
    },
    {
      "midi": 74,
      "hit": false,
      "t": 211875.0000000001,
      "d": 309.24479166665697,
      "v": 64
    },
    {
      "midi": 74,
      "hit": false,
      "t": 212187.5000000001,
      "d": 309.24479166665697,
      "v": 64
    },
    {
      "midi": 43,
      "hit": false,
      "t": 212500.0000000001,
      "d": 934.244791666657,
      "v": 64
    },
    {
      "midi": 67,
      "hit": false,
      "t": 212500.0000000001,
      "d": 934.244791666657,
      "v": 64
    },
    {
      "midi": 71,
      "hit": false,
      "t": 212500.0000000001,
      "d": 934.244791666657,
      "v": 64
    },
    {
      "midi": 74,
      "hit": false,
      "t": 212500.0000000001,
      "d": 934.244791666657,
      "v": 64
    },
    {
      "midi": 43,
      "hit": false,
      "t": 213437.5000000001,
      "d": 309.24479166665697,
      "v": 64
    },
    {
      "midi": 67,
      "hit": false,
      "t": 213437.5000000001,
      "d": 309.24479166665697,
      "v": 64
    },
    {
      "midi": 71,
      "hit": false,
      "t": 213437.5000000001,
      "d": 309.24479166665697,
      "v": 64
    },
    {
      "midi": 74,
      "hit": false,
      "t": 213437.5000000001,
      "d": 309.24479166665697,
      "v": 64
    },
    {
      "midi": 47,
      "hit": false,
      "t": 213750.0000000001,
      "d": 309.24479166665697,
      "v": 64
    },
    {
      "midi": 67,
      "hit": false,
      "t": 213750.0000000001,
      "d": 1246.744791666657,
      "v": 64
    },
    {
      "midi": 71,
      "hit": false,
      "t": 213750.0000000001,
      "d": 1246.744791666657,
      "v": 64
    },
    {
      "midi": 74,
      "hit": false,
      "t": 213750.0000000001,
      "d": 1246.744791666657,
      "v": 64
    },
    {
      "midi": 50,
      "hit": false,
      "t": 214062.5000000001,
      "d": 309.24479166665697,
      "v": 64
    },
    {
      "midi": 50,
      "hit": false,
      "t": 214375.0000000001,
      "d": 309.24479166665697,
      "v": 64
    },
    {
      "midi": 45,
      "hit": false,
      "t": 214687.5000000001,
      "d": 309.24479166665697,
      "v": 64
    },
    {
      "midi": 67,
      "hit": false,
      "t": 215000.0000000001,
      "d": 309.24479166665697,
      "v": 64
    },
    {
      "midi": 72,
      "hit": false,
      "t": 215000.0000000001,
      "d": 309.24479166665697,
      "v": 64
    },
    {
      "midi": 76,
      "hit": false,
      "t": 215000.0000000001,
      "d": 309.24479166665697,
      "v": 64
    },
    {
      "midi": 48,
      "hit": false,
      "t": 215000.0000000001,
      "d": 934.244791666657,
      "v": 64
    },
    {
      "midi": 67,
      "hit": false,
      "t": 215312.5000000001,
      "d": 621.744791666657,
      "v": 64
    },
    {
      "midi": 72,
      "hit": false,
      "t": 215312.5000000001,
      "d": 621.744791666657,
      "v": 64
    },
    {
      "midi": 76,
      "hit": false,
      "t": 215312.5000000001,
      "d": 621.744791666657,
      "v": 64
    },
    {
      "midi": 48,
      "hit": false,
      "t": 215937.5000000001,
      "d": 309.24479166665697,
      "v": 64
    },
    {
      "midi": 67,
      "hit": false,
      "t": 215937.5000000001,
      "d": 309.24479166665697,
      "v": 64
    },
    {
      "midi": 72,
      "hit": false,
      "t": 215937.5000000001,
      "d": 309.24479166665697,
      "v": 64
    },
    {
      "midi": 76,
      "hit": false,
      "t": 215937.5000000001,
      "d": 309.24479166665697,
      "v": 64
    },
    {
      "midi": 67,
      "hit": false,
      "t": 216250.0000000001,
      "d": 621.744791666657,
      "v": 64
    },
    {
      "midi": 72,
      "hit": false,
      "t": 216250.0000000001,
      "d": 621.744791666657,
      "v": 64
    },
    {
      "midi": 76,
      "hit": false,
      "t": 216250.0000000001,
      "d": 621.744791666657,
      "v": 64
    },
    {
      "midi": 48,
      "hit": false,
      "t": 216250.0000000001,
      "d": 1246.744791666657,
      "v": 64
    },
    {
      "midi": 74,
      "hit": false,
      "t": 216875.0000000001,
      "d": 309.24479166665697,
      "v": 64
    },
    {
      "midi": 71,
      "hit": false,
      "t": 217187.5000000001,
      "d": 309.24479166665697,
      "v": 64
    },
    {
      "midi": 40,
      "hit": false,
      "t": 217500.0000000001,
      "d": 934.244791666657,
      "v": 64
    },
    {
      "midi": 59,
      "hit": false,
      "t": 217500.0000000001,
      "d": 934.244791666657,
      "v": 64
    },
    {
      "midi": 64,
      "hit": false,
      "t": 217500.0000000001,
      "d": 934.244791666657,
      "v": 64
    },
    {
      "midi": 67,
      "hit": false,
      "t": 217500.0000000001,
      "d": 934.244791666657,
      "v": 64
    },
    {
      "midi": 40,
      "hit": false,
      "t": 218437.5000000001,
      "d": 309.24479166665697,
      "v": 64
    },
    {
      "midi": 59,
      "hit": false,
      "t": 218437.5000000001,
      "d": 309.24479166665697,
      "v": 64
    },
    {
      "midi": 64,
      "hit": false,
      "t": 218437.5000000001,
      "d": 309.24479166665697,
      "v": 64
    },
    {
      "midi": 67,
      "hit": false,
      "t": 218437.5000000001,
      "d": 309.24479166665697,
      "v": 64
    },
    {
      "midi": 67,
      "hit": false,
      "t": 218750.0000000001,
      "d": 465.49479166665697,
      "v": 64
    },
    {
      "midi": 40,
      "hit": false,
      "t": 218750.0000000001,
      "d": 1246.744791666657,
      "v": 64
    },
    {
      "midi": 59,
      "hit": false,
      "t": 218750.0000000001,
      "d": 1246.744791666657,
      "v": 64
    },
    {
      "midi": 64,
      "hit": false,
      "t": 219218.7500000001,
      "d": 465.49479166665697,
      "v": 64
    },
    {
      "midi": 62,
      "hit": false,
      "t": 219687.5000000001,
      "d": 309.24479166665697,
      "v": 64
    },
    {
      "midi": 38,
      "hit": false,
      "t": 220000.0000000001,
      "d": 934.244791666657,
      "v": 64
    },
    {
      "midi": 57,
      "hit": false,
      "t": 220000.0000000001,
      "d": 1246.744791666657,
      "v": 64
    },
    {
      "midi": 62,
      "hit": false,
      "t": 220000.0000000001,
      "d": 1246.744791666657,
      "v": 64
    },
    {
      "midi": 66,
      "hit": false,
      "t": 220000.0000000001,
      "d": 1246.744791666657,
      "v": 64
    },
    {
      "midi": 38,
      "hit": false,
      "t": 220937.5000000001,
      "d": 309.24479166665697,
      "v": 64
    },
    {
      "midi": 66,
      "hit": false,
      "t": 221250.0000000001,
      "d": 621.744791666657,
      "v": 64
    },
    {
      "midi": 38,
      "hit": false,
      "t": 221250.0000000001,
      "d": 1246.744791666657,
      "v": 64
    },
    {
      "midi": 57,
      "hit": false,
      "t": 221250.0000000001,
      "d": 1246.744791666657,
      "v": 64
    },
    {
      "midi": 62,
      "hit": false,
      "t": 221250.0000000001,
      "d": 1246.744791666657,
      "v": 64
    },
    {
      "midi": 67,
      "hit": false,
      "t": 221875.0000000001,
      "d": 621.744791666657,
      "v": 64
    },
    {
      "midi": 48,
      "hit": false,
      "t": 222500.0000000001,
      "d": 934.244791666657,
      "v": 64
    },
    {
      "midi": 55,
      "hit": false,
      "t": 222500.0000000001,
      "d": 934.244791666657,
      "v": 64
    },
    {
      "midi": 60,
      "hit": false,
      "t": 222500.0000000001,
      "d": 934.244791666657,
      "v": 64
    },
    {
      "midi": 64,
      "hit": false,
      "t": 222500.0000000001,
      "d": 934.244791666657,
      "v": 64
    },
    {
      "midi": 48,
      "hit": false,
      "t": 223437.5000000001,
      "d": 309.24479166665697,
      "v": 64
    },
    {
      "midi": 55,
      "hit": false,
      "t": 223437.5000000001,
      "d": 309.24479166665697,
      "v": 64
    },
    {
      "midi": 60,
      "hit": false,
      "t": 223437.5000000001,
      "d": 309.24479166665697,
      "v": 64
    },
    {
      "midi": 64,
      "hit": false,
      "t": 223437.5000000001,
      "d": 309.24479166665697,
      "v": 64
    },
    {
      "midi": 48,
      "hit": false,
      "t": 223750.0000000001,
      "d": 621.744791666657,
      "v": 64
    },
    {
      "midi": 55,
      "hit": false,
      "t": 223750.0000000001,
      "d": 621.744791666657,
      "v": 64
    },
    {
      "midi": 60,
      "hit": false,
      "t": 223750.0000000001,
      "d": 621.744791666657,
      "v": 64
    },
    {
      "midi": 64,
      "hit": false,
      "t": 223750.0000000001,
      "d": 621.744791666657,
      "v": 64
    },
    {
      "midi": 43,
      "hit": false,
      "t": 224375.0000000001,
      "d": 621.744791666657,
      "v": 64
    },
    {
      "midi": 62,
      "hit": false,
      "t": 224375.0000000001,
      "d": 621.744791666657,
      "v": 64
    },
    {
      "midi": 48,
      "hit": false,
      "t": 225000.0000000001,
      "d": 934.244791666657,
      "v": 64
    },
    {
      "midi": 55,
      "hit": false,
      "t": 225000.0000000001,
      "d": 934.244791666657,
      "v": 64
    },
    {
      "midi": 60,
      "hit": false,
      "t": 225000.0000000001,
      "d": 934.244791666657,
      "v": 64
    },
    {
      "midi": 64,
      "hit": false,
      "t": 225000.0000000001,
      "d": 934.244791666657,
      "v": 64
    },
    {
      "midi": 48,
      "hit": false,
      "t": 225937.5000000001,
      "d": 309.24479166665697,
      "v": 64
    },
    {
      "midi": 55,
      "hit": false,
      "t": 225937.5000000001,
      "d": 309.24479166665697,
      "v": 64
    },
    {
      "midi": 60,
      "hit": false,
      "t": 225937.5000000001,
      "d": 309.24479166665697,
      "v": 64
    },
    {
      "midi": 64,
      "hit": false,
      "t": 225937.5000000001,
      "d": 309.24479166665697,
      "v": 64
    },
    {
      "midi": 55,
      "hit": false,
      "t": 226250.0000000001,
      "d": 309.24479166665697,
      "v": 64
    },
    {
      "midi": 60,
      "hit": false,
      "t": 226250.0000000001,
      "d": 309.24479166665697,
      "v": 64
    },
    {
      "midi": 64,
      "hit": false,
      "t": 226250.0000000001,
      "d": 309.24479166665697,
      "v": 64
    },
    {
      "midi": 48,
      "hit": false,
      "t": 226250.0000000001,
      "d": 621.744791666657,
      "v": 64
    },
    {
      "midi": 67,
      "hit": false,
      "t": 226562.5000000001,
      "d": 309.24479166665697,
      "v": 64
    },
    {
      "midi": 71,
      "hit": false,
      "t": 226875.0000000001,
      "d": 309.24479166665697,
      "v": 64
    },
    {
      "midi": 43,
      "hit": false,
      "t": 226875.0000000001,
      "d": 621.744791666657,
      "v": 64
    },
    {
      "midi": 74,
      "hit": false,
      "t": 227187.5000000001,
      "d": 309.24479166665697,
      "v": 64
    },
    {
      "midi": 67,
      "hit": false,
      "t": 227500.0000000001,
      "d": 309.24479166665697,
      "v": 64
    },
    {
      "midi": 72,
      "hit": false,
      "t": 227500.0000000001,
      "d": 309.24479166665697,
      "v": 64
    },
    {
      "midi": 76,
      "hit": false,
      "t": 227500.0000000001,
      "d": 309.24479166665697,
      "v": 64
    },
    {
      "midi": 48,
      "hit": false,
      "t": 227500.0000000001,
      "d": 934.244791666657,
      "v": 64
    },
    {
      "midi": 67,
      "hit": false,
      "t": 227812.5000000001,
      "d": 621.744791666657,
      "v": 64
    },
    {
      "midi": 72,
      "hit": false,
      "t": 227812.5000000001,
      "d": 621.744791666657,
      "v": 64
    },
    {
      "midi": 76,
      "hit": false,
      "t": 227812.5000000001,
      "d": 621.744791666657,
      "v": 64
    },
    {
      "midi": 48,
      "hit": false,
      "t": 228437.5000000001,
      "d": 309.24479166665697,
      "v": 64
    },
    {
      "midi": 67,
      "hit": false,
      "t": 228437.5000000001,
      "d": 309.24479166665697,
      "v": 64
    },
    {
      "midi": 72,
      "hit": false,
      "t": 228437.5000000001,
      "d": 309.24479166665697,
      "v": 64
    },
    {
      "midi": 76,
      "hit": false,
      "t": 228437.5000000001,
      "d": 309.24479166665697,
      "v": 64
    },
    {
      "midi": 67,
      "hit": false,
      "t": 228750.0000000001,
      "d": 621.744791666657,
      "v": 64
    },
    {
      "midi": 72,
      "hit": false,
      "t": 228750.0000000001,
      "d": 621.744791666657,
      "v": 64
    },
    {
      "midi": 76,
      "hit": false,
      "t": 228750.0000000001,
      "d": 621.744791666657,
      "v": 64
    },
    {
      "midi": 48,
      "hit": false,
      "t": 228750.0000000001,
      "d": 1246.744791666657,
      "v": 64
    },
    {
      "midi": 74,
      "hit": false,
      "t": 229375.0000000001,
      "d": 309.24479166665697,
      "v": 64
    },
    {
      "midi": 71,
      "hit": false,
      "t": 229687.5000000001,
      "d": 309.24479166665697,
      "v": 64
    },
    {
      "midi": 43,
      "hit": false,
      "t": 230000.0000000001,
      "d": 934.244791666657,
      "v": 64
    },
    {
      "midi": 67,
      "hit": false,
      "t": 230000.0000000001,
      "d": 1559.244791666657,
      "v": 64
    },
    {
      "midi": 71,
      "hit": false,
      "t": 230000.0000000001,
      "d": 1559.244791666657,
      "v": 64
    },
    {
      "midi": 74,
      "hit": false,
      "t": 230000.0000000001,
      "d": 1559.244791666657,
      "v": 64
    },
    {
      "midi": 43,
      "hit": false,
      "t": 230937.5000000001,
      "d": 309.24479166665697,
      "v": 64
    },
    {
      "midi": 47,
      "hit": false,
      "t": 231250.0000000001,
      "d": 309.24479166665697,
      "v": 64
    },
    {
      "midi": 45,
      "hit": false,
      "t": 231562.5000000001,
      "d": 309.24479166665697,
      "v": 64
    },
    {
      "midi": 67,
      "hit": false,
      "t": 231562.5000000001,
      "d": 309.24479166665697,
      "v": 64
    },
    {
      "midi": 45,
      "hit": false,
      "t": 231875.0000000001,
      "d": 309.24479166665697,
      "v": 64
    },
    {
      "midi": 71,
      "hit": false,
      "t": 231875.0000000001,
      "d": 309.24479166665697,
      "v": 64
    },
    {
      "midi": 43,
      "hit": false,
      "t": 232187.5000000001,
      "d": 309.24479166665697,
      "v": 64
    },
    {
      "midi": 74,
      "hit": false,
      "t": 232187.5000000001,
      "d": 309.24479166665697,
      "v": 64
    },
    {
      "midi": 67,
      "hit": false,
      "t": 232500.0000000001,
      "d": 309.24479166665697,
      "v": 64
    },
    {
      "midi": 72,
      "hit": false,
      "t": 232500.0000000001,
      "d": 309.24479166665697,
      "v": 64
    },
    {
      "midi": 76,
      "hit": false,
      "t": 232500.0000000001,
      "d": 309.24479166665697,
      "v": 64
    },
    {
      "midi": 48,
      "hit": false,
      "t": 232500.0000000001,
      "d": 934.244791666657,
      "v": 64
    },
    {
      "midi": 67,
      "hit": false,
      "t": 232812.5000000001,
      "d": 309.24479166665697,
      "v": 64
    },
    {
      "midi": 72,
      "hit": false,
      "t": 232812.5000000001,
      "d": 309.24479166665697,
      "v": 64
    },
    {
      "midi": 76,
      "hit": false,
      "t": 232812.5000000001,
      "d": 309.24479166665697,
      "v": 64
    },
    {
      "midi": 67,
      "hit": false,
      "t": 233125.0000000001,
      "d": 309.24479166665697,
      "v": 64
    },
    {
      "midi": 72,
      "hit": false,
      "t": 233125.0000000001,
      "d": 309.24479166665697,
      "v": 64
    },
    {
      "midi": 76,
      "hit": false,
      "t": 233125.0000000001,
      "d": 309.24479166665697,
      "v": 64
    },
    {
      "midi": 48,
      "hit": false,
      "t": 233437.5000000001,
      "d": 309.24479166665697,
      "v": 64
    },
    {
      "midi": 67,
      "hit": false,
      "t": 233437.5000000001,
      "d": 934.244791666657,
      "v": 64
    },
    {
      "midi": 72,
      "hit": false,
      "t": 233437.5000000001,
      "d": 934.244791666657,
      "v": 64
    },
    {
      "midi": 76,
      "hit": false,
      "t": 233437.5000000001,
      "d": 934.244791666657,
      "v": 64
    },
    {
      "midi": 48,
      "hit": false,
      "t": 233750.0000000001,
      "d": 1246.744791666657,
      "v": 64
    },
    {
      "midi": 74,
      "hit": false,
      "t": 234375.0000000001,
      "d": 309.24479166665697,
      "v": 64
    },
    {
      "midi": 74,
      "hit": false,
      "t": 234687.5000000001,
      "d": 309.24479166665697,
      "v": 64
    },
    {
      "midi": 43,
      "hit": false,
      "t": 235000.0000000001,
      "d": 934.244791666657,
      "v": 64
    },
    {
      "midi": 67,
      "hit": false,
      "t": 235000.0000000001,
      "d": 934.244791666657,
      "v": 64
    },
    {
      "midi": 71,
      "hit": false,
      "t": 235000.0000000001,
      "d": 934.244791666657,
      "v": 64
    },
    {
      "midi": 74,
      "hit": false,
      "t": 235000.0000000001,
      "d": 934.244791666657,
      "v": 64
    },
    {
      "midi": 43,
      "hit": false,
      "t": 235937.5000000001,
      "d": 309.24479166665697,
      "v": 64
    },
    {
      "midi": 67,
      "hit": false,
      "t": 235937.5000000001,
      "d": 309.24479166665697,
      "v": 64
    },
    {
      "midi": 71,
      "hit": false,
      "t": 235937.5000000001,
      "d": 309.24479166665697,
      "v": 64
    },
    {
      "midi": 74,
      "hit": false,
      "t": 235937.5000000001,
      "d": 309.24479166665697,
      "v": 64
    },
    {
      "midi": 47,
      "hit": false,
      "t": 236250.0000000001,
      "d": 309.24479166665697,
      "v": 64
    },
    {
      "midi": 67,
      "hit": false,
      "t": 236250.0000000001,
      "d": 1246.744791666657,
      "v": 64
    },
    {
      "midi": 71,
      "hit": false,
      "t": 236250.0000000001,
      "d": 1246.744791666657,
      "v": 64
    },
    {
      "midi": 74,
      "hit": false,
      "t": 236250.0000000001,
      "d": 1246.744791666657,
      "v": 64
    },
    {
      "midi": 50,
      "hit": false,
      "t": 236562.5000000001,
      "d": 309.24479166665697,
      "v": 64
    },
    {
      "midi": 50,
      "hit": false,
      "t": 236875.0000000001,
      "d": 309.24479166665697,
      "v": 64
    },
    {
      "midi": 45,
      "hit": false,
      "t": 237187.5000000001,
      "d": 309.24479166665697,
      "v": 64
    },
    {
      "midi": 67,
      "hit": false,
      "t": 237500.0000000001,
      "d": 309.24479166665697,
      "v": 64
    },
    {
      "midi": 72,
      "hit": false,
      "t": 237500.0000000001,
      "d": 309.24479166665697,
      "v": 64
    },
    {
      "midi": 76,
      "hit": false,
      "t": 237500.0000000001,
      "d": 309.24479166665697,
      "v": 64
    },
    {
      "midi": 48,
      "hit": false,
      "t": 237500.0000000001,
      "d": 934.244791666657,
      "v": 64
    },
    {
      "midi": 67,
      "hit": false,
      "t": 237812.5000000001,
      "d": 621.744791666657,
      "v": 64
    },
    {
      "midi": 72,
      "hit": false,
      "t": 237812.5000000001,
      "d": 621.744791666657,
      "v": 64
    },
    {
      "midi": 76,
      "hit": false,
      "t": 237812.5000000001,
      "d": 621.744791666657,
      "v": 64
    },
    {
      "midi": 48,
      "hit": false,
      "t": 238437.5000000001,
      "d": 309.24479166665697,
      "v": 64
    },
    {
      "midi": 67,
      "hit": false,
      "t": 238437.5000000001,
      "d": 309.24479166665697,
      "v": 64
    },
    {
      "midi": 72,
      "hit": false,
      "t": 238437.5000000001,
      "d": 309.24479166665697,
      "v": 64
    },
    {
      "midi": 76,
      "hit": false,
      "t": 238437.5000000001,
      "d": 309.24479166665697,
      "v": 64
    },
    {
      "midi": 67,
      "hit": false,
      "t": 238750.0000000001,
      "d": 621.744791666657,
      "v": 64
    },
    {
      "midi": 72,
      "hit": false,
      "t": 238750.0000000001,
      "d": 621.744791666657,
      "v": 64
    },
    {
      "midi": 76,
      "hit": false,
      "t": 238750.0000000001,
      "d": 621.744791666657,
      "v": 64
    },
    {
      "midi": 48,
      "hit": false,
      "t": 238750.0000000001,
      "d": 1246.744791666657,
      "v": 64
    },
    {
      "midi": 74,
      "hit": false,
      "t": 239375.0000000001,
      "d": 309.24479166665697,
      "v": 64
    },
    {
      "midi": 71,
      "hit": false,
      "t": 239687.5000000001,
      "d": 309.24479166665697,
      "v": 64
    },
    {
      "midi": 40,
      "hit": false,
      "t": 240000.0000000001,
      "d": 934.244791666657,
      "v": 64
    },
    {
      "midi": 59,
      "hit": false,
      "t": 240000.0000000001,
      "d": 934.244791666657,
      "v": 64
    },
    {
      "midi": 64,
      "hit": false,
      "t": 240000.0000000001,
      "d": 934.244791666657,
      "v": 64
    },
    {
      "midi": 67,
      "hit": false,
      "t": 240000.0000000001,
      "d": 934.244791666657,
      "v": 64
    },
    {
      "midi": 40,
      "hit": false,
      "t": 240937.5000000001,
      "d": 309.24479166665697,
      "v": 64
    },
    {
      "midi": 59,
      "hit": false,
      "t": 240937.5000000001,
      "d": 309.24479166665697,
      "v": 64
    },
    {
      "midi": 64,
      "hit": false,
      "t": 240937.5000000001,
      "d": 309.24479166665697,
      "v": 64
    },
    {
      "midi": 67,
      "hit": false,
      "t": 240937.5000000001,
      "d": 309.24479166665697,
      "v": 64
    },
    {
      "midi": 67,
      "hit": false,
      "t": 241250.0000000001,
      "d": 465.49479166665697,
      "v": 64
    },
    {
      "midi": 40,
      "hit": false,
      "t": 241250.0000000001,
      "d": 1246.744791666657,
      "v": 64
    },
    {
      "midi": 59,
      "hit": false,
      "t": 241250.0000000001,
      "d": 1246.744791666657,
      "v": 64
    },
    {
      "midi": 64,
      "hit": false,
      "t": 241718.7500000001,
      "d": 465.49479166665697,
      "v": 64
    },
    {
      "midi": 62,
      "hit": false,
      "t": 242187.5000000001,
      "d": 309.24479166665697,
      "v": 64
    },
    {
      "midi": 38,
      "hit": false,
      "t": 242500.0000000001,
      "d": 934.244791666657,
      "v": 64
    },
    {
      "midi": 57,
      "hit": false,
      "t": 242500.0000000001,
      "d": 1246.744791666657,
      "v": 64
    },
    {
      "midi": 62,
      "hit": false,
      "t": 242500.0000000001,
      "d": 1246.744791666657,
      "v": 64
    },
    {
      "midi": 66,
      "hit": false,
      "t": 242500.0000000001,
      "d": 1246.744791666657,
      "v": 64
    },
    {
      "midi": 38,
      "hit": false,
      "t": 243437.5000000001,
      "d": 309.24479166665697,
      "v": 64
    },
    {
      "midi": 66,
      "hit": false,
      "t": 243750.0000000001,
      "d": 621.744791666657,
      "v": 64
    },
    {
      "midi": 38,
      "hit": false,
      "t": 243750.0000000001,
      "d": 1246.744791666657,
      "v": 64
    },
    {
      "midi": 57,
      "hit": false,
      "t": 243750.0000000001,
      "d": 1246.744791666657,
      "v": 64
    },
    {
      "midi": 62,
      "hit": false,
      "t": 243750.0000000001,
      "d": 1246.744791666657,
      "v": 64
    },
    {
      "midi": 67,
      "hit": false,
      "t": 244375.0000000001,
      "d": 621.744791666657,
      "v": 64
    },
    {
      "midi": 48,
      "hit": false,
      "t": 245000.0000000001,
      "d": 934.244791666657,
      "v": 64
    },
    {
      "midi": 55,
      "hit": false,
      "t": 245000.0000000001,
      "d": 934.244791666657,
      "v": 64
    },
    {
      "midi": 60,
      "hit": false,
      "t": 245000.0000000001,
      "d": 934.244791666657,
      "v": 64
    },
    {
      "midi": 64,
      "hit": false,
      "t": 245000.0000000001,
      "d": 934.244791666657,
      "v": 64
    },
    {
      "midi": 48,
      "hit": false,
      "t": 245937.5000000001,
      "d": 309.24479166665697,
      "v": 64
    },
    {
      "midi": 55,
      "hit": false,
      "t": 245937.5000000001,
      "d": 309.24479166665697,
      "v": 64
    },
    {
      "midi": 60,
      "hit": false,
      "t": 245937.5000000001,
      "d": 309.24479166665697,
      "v": 64
    },
    {
      "midi": 64,
      "hit": false,
      "t": 245937.5000000001,
      "d": 309.24479166665697,
      "v": 64
    },
    {
      "midi": 48,
      "hit": false,
      "t": 246250.0000000001,
      "d": 621.744791666657,
      "v": 64
    },
    {
      "midi": 55,
      "hit": false,
      "t": 246250.0000000001,
      "d": 621.744791666657,
      "v": 64
    },
    {
      "midi": 60,
      "hit": false,
      "t": 246250.0000000001,
      "d": 621.744791666657,
      "v": 64
    },
    {
      "midi": 64,
      "hit": false,
      "t": 246250.0000000001,
      "d": 621.744791666657,
      "v": 64
    },
    {
      "midi": 43,
      "hit": false,
      "t": 246875.0000000001,
      "d": 621.744791666657,
      "v": 64
    },
    {
      "midi": 62,
      "hit": false,
      "t": 246875.0000000001,
      "d": 621.744791666657,
      "v": 64
    },
    {
      "midi": 48,
      "hit": false,
      "t": 247500.0000000001,
      "d": 934.244791666657,
      "v": 64
    },
    {
      "midi": 55,
      "hit": false,
      "t": 247500.0000000001,
      "d": 934.244791666657,
      "v": 64
    },
    {
      "midi": 60,
      "hit": false,
      "t": 247500.0000000001,
      "d": 934.244791666657,
      "v": 64
    },
    {
      "midi": 64,
      "hit": false,
      "t": 247500.0000000001,
      "d": 934.244791666657,
      "v": 64
    },
    {
      "midi": 48,
      "hit": false,
      "t": 248437.5000000001,
      "d": 309.24479166665697,
      "v": 64
    },
    {
      "midi": 55,
      "hit": false,
      "t": 248437.5000000001,
      "d": 309.24479166665697,
      "v": 64
    },
    {
      "midi": 60,
      "hit": false,
      "t": 248437.5000000001,
      "d": 309.24479166665697,
      "v": 64
    },
    {
      "midi": 64,
      "hit": false,
      "t": 248437.5000000001,
      "d": 309.24479166665697,
      "v": 64
    },
    {
      "midi": 55,
      "hit": false,
      "t": 248750.0000000001,
      "d": 309.24479166665697,
      "v": 64
    },
    {
      "midi": 60,
      "hit": false,
      "t": 248750.0000000001,
      "d": 309.24479166665697,
      "v": 64
    },
    {
      "midi": 64,
      "hit": false,
      "t": 248750.0000000001,
      "d": 309.24479166665697,
      "v": 64
    },
    {
      "midi": 48,
      "hit": false,
      "t": 248750.0000000001,
      "d": 621.744791666657,
      "v": 64
    },
    {
      "midi": 67,
      "hit": false,
      "t": 249062.5000000001,
      "d": 309.24479166665697,
      "v": 64
    },
    {
      "midi": 71,
      "hit": false,
      "t": 249375.0000000001,
      "d": 309.24479166665697,
      "v": 64
    },
    {
      "midi": 43,
      "hit": false,
      "t": 249375.0000000001,
      "d": 621.744791666657,
      "v": 64
    },
    {
      "midi": 74,
      "hit": false,
      "t": 249687.5000000001,
      "d": 309.24479166665697,
      "v": 64
    },
    {
      "midi": 48,
      "hit": false,
      "t": 250000.0000000001,
      "d": 934.244791666657,
      "v": 64
    },
    {
      "midi": 67,
      "hit": false,
      "t": 250000.0000000001,
      "d": 934.244791666657,
      "v": 64
    },
    {
      "midi": 72,
      "hit": false,
      "t": 250000.0000000001,
      "d": 934.244791666657,
      "v": 64
    },
    {
      "midi": 76,
      "hit": false,
      "t": 250000.0000000001,
      "d": 934.244791666657,
      "v": 64
    },
    {
      "midi": 48,
      "hit": false,
      "t": 250937.5000000001,
      "d": 309.24479166665697,
      "v": 64
    },
    {
      "midi": 67,
      "hit": false,
      "t": 250937.5000000001,
      "d": 309.24479166665697,
      "v": 64
    },
    {
      "midi": 72,
      "hit": false,
      "t": 250937.5000000001,
      "d": 309.24479166665697,
      "v": 64
    },
    {
      "midi": 76,
      "hit": false,
      "t": 250937.5000000001,
      "d": 309.24479166665697,
      "v": 64
    },
    {
      "midi": 67,
      "hit": false,
      "t": 251250.0000000001,
      "d": 621.744791666657,
      "v": 64
    },
    {
      "midi": 72,
      "hit": false,
      "t": 251250.0000000001,
      "d": 621.744791666657,
      "v": 64
    },
    {
      "midi": 76,
      "hit": false,
      "t": 251250.0000000001,
      "d": 621.744791666657,
      "v": 64
    },
    {
      "midi": 48,
      "hit": false,
      "t": 251250.0000000001,
      "d": 1246.744791666657,
      "v": 64
    },
    {
      "midi": 74,
      "hit": false,
      "t": 251875.0000000001,
      "d": 309.24479166665697,
      "v": 64
    },
    {
      "midi": 71,
      "hit": false,
      "t": 252187.5000000001,
      "d": 309.24479166665697,
      "v": 64
    },
    {
      "midi": 43,
      "hit": false,
      "t": 252500.0000000001,
      "d": 934.244791666657,
      "v": 64
    },
    {
      "midi": 67,
      "hit": false,
      "t": 252500.0000000001,
      "d": 1559.244791666657,
      "v": 64
    },
    {
      "midi": 71,
      "hit": false,
      "t": 252500.0000000001,
      "d": 1559.244791666657,
      "v": 64
    },
    {
      "midi": 74,
      "hit": false,
      "t": 252500.0000000001,
      "d": 1559.244791666657,
      "v": 64
    },
    {
      "midi": 43,
      "hit": false,
      "t": 253437.5000000001,
      "d": 309.24479166665697,
      "v": 64
    },
    {
      "midi": 43,
      "hit": false,
      "t": 253750.0000000001,
      "d": 1246.744791666657,
      "v": 64
    },
    {
      "midi": 67,
      "hit": false,
      "t": 254062.5000000001,
      "d": 309.24479166665697,
      "v": 64
    },
    {
      "midi": 71,
      "hit": false,
      "t": 254375.0000000001,
      "d": 309.24479166665697,
      "v": 64
    },
    {
      "midi": 74,
      "hit": false,
      "t": 254687.5000000001,
      "d": 309.24479166665697,
      "v": 64
    },
    {
      "midi": 48,
      "hit": false,
      "t": 255000.0000000001,
      "d": 934.244791666657,
      "v": 64
    },
    {
      "midi": 67,
      "hit": false,
      "t": 255000.0000000001,
      "d": 934.244791666657,
      "v": 64
    },
    {
      "midi": 72,
      "hit": false,
      "t": 255000.0000000001,
      "d": 934.244791666657,
      "v": 64
    },
    {
      "midi": 76,
      "hit": false,
      "t": 255000.0000000001,
      "d": 934.244791666657,
      "v": 64
    },
    {
      "midi": 48,
      "hit": false,
      "t": 255937.5000000001,
      "d": 309.24479166665697,
      "v": 64
    },
    {
      "midi": 67,
      "hit": false,
      "t": 255937.5000000001,
      "d": 309.24479166665697,
      "v": 64
    },
    {
      "midi": 72,
      "hit": false,
      "t": 255937.5000000001,
      "d": 309.24479166665697,
      "v": 64
    },
    {
      "midi": 76,
      "hit": false,
      "t": 255937.5000000001,
      "d": 309.24479166665697,
      "v": 64
    },
    {
      "midi": 67,
      "hit": false,
      "t": 256250.0000000001,
      "d": 621.744791666657,
      "v": 64
    },
    {
      "midi": 72,
      "hit": false,
      "t": 256250.0000000001,
      "d": 621.744791666657,
      "v": 64
    },
    {
      "midi": 76,
      "hit": false,
      "t": 256250.0000000001,
      "d": 621.744791666657,
      "v": 64
    },
    {
      "midi": 48,
      "hit": false,
      "t": 256250.0000000001,
      "d": 1246.744791666657,
      "v": 64
    },
    {
      "midi": 74,
      "hit": false,
      "t": 256875.0000000001,
      "d": 309.24479166665697,
      "v": 64
    },
    {
      "midi": 71,
      "hit": false,
      "t": 257187.5000000001,
      "d": 309.24479166665697,
      "v": 64
    },
    {
      "midi": 43,
      "hit": false,
      "t": 257500.0000000001,
      "d": 934.244791666657,
      "v": 64
    },
    {
      "midi": 67,
      "hit": false,
      "t": 257500.0000000001,
      "d": 1559.244791666657,
      "v": 64
    },
    {
      "midi": 71,
      "hit": false,
      "t": 257500.0000000001,
      "d": 1559.244791666657,
      "v": 64
    },
    {
      "midi": 74,
      "hit": false,
      "t": 257500.0000000001,
      "d": 1559.244791666657,
      "v": 64
    },
    {
      "midi": 43,
      "hit": false,
      "t": 258437.5000000001,
      "d": 309.24479166665697,
      "v": 64
    },
    {
      "midi": 43,
      "hit": false,
      "t": 258750.0000000001,
      "d": 1246.744791666657,
      "v": 64
    },
    {
      "midi": 64,
      "hit": false,
      "t": 259062.5000000001,
      "d": 309.24479166665697,
      "v": 64
    },
    {
      "midi": 67,
      "hit": false,
      "t": 259375.0000000001,
      "d": 309.24479166665697,
      "v": 64
    },
    {
      "midi": 66,
      "hit": false,
      "t": 259687.5000000001,
      "d": 309.24479166665697,
      "v": 64
    },
    {
      "midi": 48,
      "hit": false,
      "t": 260000.0000000001,
      "d": 934.244791666657,
      "v": 64
    },
    {
      "midi": 55,
      "hit": false,
      "t": 260000.0000000001,
      "d": 934.244791666657,
      "v": 64
    },
    {
      "midi": 60,
      "hit": false,
      "t": 260000.0000000001,
      "d": 934.244791666657,
      "v": 64
    },
    {
      "midi": 64,
      "hit": false,
      "t": 260000.0000000001,
      "d": 934.244791666657,
      "v": 64
    },
    {
      "midi": 48,
      "hit": false,
      "t": 260937.5000000001,
      "d": 309.24479166665697,
      "v": 64
    },
    {
      "midi": 55,
      "hit": false,
      "t": 260937.5000000001,
      "d": 309.24479166665697,
      "v": 64
    },
    {
      "midi": 60,
      "hit": false,
      "t": 260937.5000000001,
      "d": 309.24479166665697,
      "v": 64
    },
    {
      "midi": 64,
      "hit": false,
      "t": 260937.5000000001,
      "d": 309.24479166665697,
      "v": 64
    },
    {
      "midi": 55,
      "hit": false,
      "t": 261250.0000000001,
      "d": 309.24479166665697,
      "v": 64
    },
    {
      "midi": 60,
      "hit": false,
      "t": 261250.0000000001,
      "d": 309.24479166665697,
      "v": 64
    },
    {
      "midi": 64,
      "hit": false,
      "t": 261250.0000000001,
      "d": 309.24479166665697,
      "v": 64
    },
    {
      "midi": 48,
      "hit": false,
      "t": 261250.0000000001,
      "d": 1246.744791666657,
      "v": 64
    },
    {
      "midi": 62,
      "hit": false,
      "t": 261562.5000000001,
      "d": 309.24479166665697,
      "v": 64
    },
    {
      "midi": 59,
      "hit": false,
      "t": 261875.0000000001,
      "d": 152.99479166665697,
      "v": 64
    },
    {
      "midi": 57,
      "hit": false,
      "t": 262031.2500000001,
      "d": 152.99479166665697,
      "v": 64
    },
    {
      "midi": 55,
      "hit": false,
      "t": 262187.50000000006,
      "d": 309.24479166668607,
      "v": 64
    },
    {
      "midi": 40,
      "hit": false,
      "t": 262500.00000000006,
      "d": 934.2447916666861,
      "v": 64
    },
    {
      "midi": 55,
      "hit": false,
      "t": 262500.00000000006,
      "d": 1559.244791666686,
      "v": 64
    },
    {
      "midi": 59,
      "hit": false,
      "t": 262500.00000000006,
      "d": 1559.244791666686,
      "v": 64
    },
    {
      "midi": 64,
      "hit": false,
      "t": 262500.00000000006,
      "d": 1559.244791666686,
      "v": 64
    },
    {
      "midi": 40,
      "hit": false,
      "t": 263437.50000000006,
      "d": 309.24479166668607,
      "v": 64
    },
    {
      "midi": 40,
      "hit": false,
      "t": 263750.00000000006,
      "d": 1246.744791666686,
      "v": 64
    },
    {
      "midi": 52,
      "hit": false,
      "t": 264062.50000000006,
      "d": 309.24479166668607,
      "v": 64
    },
    {
      "midi": 54,
      "hit": false,
      "t": 264375.00000000006,
      "d": 309.24479166668607,
      "v": 64
    },
    {
      "midi": 55,
      "hit": false,
      "t": 264687.50000000006,
      "d": 309.24479166668607,
      "v": 64
    },
    {
      "midi": 54,
      "hit": false,
      "t": 265000.00000000006,
      "d": 621.7447916666861,
      "v": 64
    },
    {
      "midi": 57,
      "hit": false,
      "t": 265000.00000000006,
      "d": 2496.7447916665697,
      "v": 64
    },
    {
      "midi": 62,
      "hit": false,
      "t": 265000.00000000006,
      "d": 2496.7447916665697,
      "v": 64
    },
    {
      "midi": 55,
      "hit": false,
      "t": 265625.00000000006,
      "d": 621.7447916666861,
      "v": 64
    },
    {
      "midi": 54,
      "hit": false,
      "t": 266250.00000000006,
      "d": 413.41145833331393,
      "v": 64
    },
    {
      "midi": 52,
      "hit": false,
      "t": 266666.6666666667,
      "d": 413.41145833331393,
      "v": 64
    },
    {
      "midi": 50,
      "hit": false,
      "t": 267083.3333333333,
      "d": 413.41145833331393,
      "v": 64
    },
    {
      "midi": 48,
      "hit": false,
      "t": 267499.99999999994,
      "d": 413.41145833331393,
      "v": 64
    },
    {
      "midi": 55,
      "hit": false,
      "t": 267499.99999999994,
      "d": 2496.7447916665697,
      "v": 64
    },
    {
      "midi": 60,
      "hit": false,
      "t": 267499.99999999994,
      "d": 2496.7447916665697,
      "v": 64
    },
    {
      "midi": 64,
      "hit": false,
      "t": 267499.99999999994,
      "d": 2496.7447916665697,
      "v": 64
    },
    {
      "midi": 48,
      "hit": false,
      "t": 267916.66666666657,
      "d": 413.41145833331393,
      "v": 64
    },
    {
      "midi": 47,
      "hit": false,
      "t": 268333.3333333332,
      "d": 413.41145833331393,
      "v": 64
    },
    {
      "midi": 43,
      "hit": false,
      "t": 268749.9999999998,
      "d": 1246.744791666686,
      "v": 64
    },
    {
      "midi": 48,
      "hit": false,
      "t": 269999.9999999998,
      "d": 934.2447916666861,
      "v": 64
    },
    {
      "midi": 67,
      "hit": false,
      "t": 269999.9999999998,
      "d": 934.2447916666861,
      "v": 64
    },
    {
      "midi": 72,
      "hit": false,
      "t": 269999.9999999998,
      "d": 934.2447916666861,
      "v": 64
    },
    {
      "midi": 76,
      "hit": false,
      "t": 269999.9999999998,
      "d": 934.2447916666861,
      "v": 64
    },
    {
      "midi": 48,
      "hit": false,
      "t": 270937.4999999998,
      "d": 309.24479166668607,
      "v": 64
    },
    {
      "midi": 67,
      "hit": false,
      "t": 270937.4999999998,
      "d": 309.24479166668607,
      "v": 64
    },
    {
      "midi": 72,
      "hit": false,
      "t": 270937.4999999998,
      "d": 309.24479166668607,
      "v": 64
    },
    {
      "midi": 76,
      "hit": false,
      "t": 270937.4999999998,
      "d": 309.24479166668607,
      "v": 64
    },
    {
      "midi": 67,
      "hit": false,
      "t": 271249.9999999998,
      "d": 621.7447916666861,
      "v": 64
    },
    {
      "midi": 72,
      "hit": false,
      "t": 271249.9999999998,
      "d": 621.7447916666861,
      "v": 64
    },
    {
      "midi": 76,
      "hit": false,
      "t": 271249.9999999998,
      "d": 621.7447916666861,
      "v": 64
    },
    {
      "midi": 48,
      "hit": false,
      "t": 271249.9999999998,
      "d": 1246.744791666686,
      "v": 64
    },
    {
      "midi": 74,
      "hit": false,
      "t": 271874.9999999998,
      "d": 309.24479166668607,
      "v": 64
    },
    {
      "midi": 71,
      "hit": false,
      "t": 272187.4999999998,
      "d": 309.24479166668607,
      "v": 64
    },
    {
      "midi": 43,
      "hit": false,
      "t": 272499.9999999998,
      "d": 934.2447916666861,
      "v": 64
    },
    {
      "midi": 67,
      "hit": false,
      "t": 272499.9999999998,
      "d": 1559.244791666686,
      "v": 64
    },
    {
      "midi": 71,
      "hit": false,
      "t": 272499.9999999998,
      "d": 1559.244791666686,
      "v": 64
    },
    {
      "midi": 74,
      "hit": false,
      "t": 272499.9999999998,
      "d": 1559.244791666686,
      "v": 64
    },
    {
      "midi": 43,
      "hit": false,
      "t": 273437.4999999998,
      "d": 309.24479166668607,
      "v": 64
    },
    {
      "midi": 43,
      "hit": false,
      "t": 273749.9999999998,
      "d": 1246.744791666686,
      "v": 64
    },
    {
      "midi": 67,
      "hit": false,
      "t": 274062.4999999998,
      "d": 309.24479166668607,
      "v": 64
    },
    {
      "midi": 71,
      "hit": false,
      "t": 274374.9999999998,
      "d": 309.24479166668607,
      "v": 64
    },
    {
      "midi": 74,
      "hit": false,
      "t": 274687.4999999998,
      "d": 309.24479166668607,
      "v": 64
    },
    {
      "midi": 48,
      "hit": false,
      "t": 274999.9999999998,
      "d": 934.2447916666861,
      "v": 64
    },
    {
      "midi": 67,
      "hit": false,
      "t": 274999.9999999998,
      "d": 934.2447916666861,
      "v": 64
    },
    {
      "midi": 72,
      "hit": false,
      "t": 274999.9999999998,
      "d": 934.2447916666861,
      "v": 64
    },
    {
      "midi": 76,
      "hit": false,
      "t": 274999.9999999998,
      "d": 934.2447916666861,
      "v": 64
    },
    {
      "midi": 48,
      "hit": false,
      "t": 275937.4999999998,
      "d": 309.24479166668607,
      "v": 64
    },
    {
      "midi": 67,
      "hit": false,
      "t": 275937.4999999998,
      "d": 309.24479166668607,
      "v": 64
    },
    {
      "midi": 72,
      "hit": false,
      "t": 275937.4999999998,
      "d": 309.24479166668607,
      "v": 64
    },
    {
      "midi": 76,
      "hit": false,
      "t": 275937.4999999998,
      "d": 309.24479166668607,
      "v": 64
    },
    {
      "midi": 67,
      "hit": false,
      "t": 276249.9999999998,
      "d": 621.7447916666861,
      "v": 64
    },
    {
      "midi": 72,
      "hit": false,
      "t": 276249.9999999998,
      "d": 621.7447916666861,
      "v": 64
    },
    {
      "midi": 76,
      "hit": false,
      "t": 276249.9999999998,
      "d": 621.7447916666861,
      "v": 64
    },
    {
      "midi": 48,
      "hit": false,
      "t": 276249.9999999998,
      "d": 1246.744791666686,
      "v": 64
    },
    {
      "midi": 74,
      "hit": false,
      "t": 276874.9999999998,
      "d": 309.24479166668607,
      "v": 64
    },
    {
      "midi": 71,
      "hit": false,
      "t": 277187.4999999998,
      "d": 309.24479166668607,
      "v": 64
    },
    {
      "midi": 43,
      "hit": false,
      "t": 277499.9999999998,
      "d": 934.2447916666861,
      "v": 64
    },
    {
      "midi": 67,
      "hit": false,
      "t": 277499.9999999998,
      "d": 1559.244791666686,
      "v": 64
    },
    {
      "midi": 71,
      "hit": false,
      "t": 277499.9999999998,
      "d": 1559.244791666686,
      "v": 64
    },
    {
      "midi": 74,
      "hit": false,
      "t": 277499.9999999998,
      "d": 1559.244791666686,
      "v": 64
    },
    {
      "midi": 43,
      "hit": false,
      "t": 278437.4999999998,
      "d": 309.24479166668607,
      "v": 64
    },
    {
      "midi": 43,
      "hit": false,
      "t": 278749.9999999998,
      "d": 1246.744791666686,
      "v": 64
    },
    {
      "midi": 64,
      "hit": false,
      "t": 279062.4999999998,
      "d": 309.24479166668607,
      "v": 64
    },
    {
      "midi": 67,
      "hit": false,
      "t": 279374.9999999998,
      "d": 309.24479166668607,
      "v": 64
    },
    {
      "midi": 66,
      "hit": false,
      "t": 279687.4999999998,
      "d": 309.24479166668607,
      "v": 64
    },
    {
      "midi": 48,
      "hit": false,
      "t": 279999.9999999998,
      "d": 934.2447916666861,
      "v": 64
    },
    {
      "midi": 55,
      "hit": false,
      "t": 279999.9999999998,
      "d": 934.2447916666861,
      "v": 64
    },
    {
      "midi": 60,
      "hit": false,
      "t": 279999.9999999998,
      "d": 934.2447916666861,
      "v": 64
    },
    {
      "midi": 64,
      "hit": false,
      "t": 279999.9999999998,
      "d": 934.2447916666861,
      "v": 64
    },
    {
      "midi": 48,
      "hit": false,
      "t": 280937.4999999998,
      "d": 309.24479166668607,
      "v": 64
    },
    {
      "midi": 55,
      "hit": false,
      "t": 280937.4999999998,
      "d": 309.24479166668607,
      "v": 64
    },
    {
      "midi": 60,
      "hit": false,
      "t": 280937.4999999998,
      "d": 309.24479166668607,
      "v": 64
    },
    {
      "midi": 64,
      "hit": false,
      "t": 280937.4999999998,
      "d": 309.24479166668607,
      "v": 64
    },
    {
      "midi": 55,
      "hit": false,
      "t": 281249.9999999998,
      "d": 309.24479166668607,
      "v": 64
    },
    {
      "midi": 60,
      "hit": false,
      "t": 281249.9999999998,
      "d": 309.24479166668607,
      "v": 64
    },
    {
      "midi": 64,
      "hit": false,
      "t": 281249.9999999998,
      "d": 309.24479166668607,
      "v": 64
    },
    {
      "midi": 48,
      "hit": false,
      "t": 281249.9999999998,
      "d": 1246.744791666686,
      "v": 64
    },
    {
      "midi": 62,
      "hit": false,
      "t": 281562.4999999998,
      "d": 309.24479166668607,
      "v": 64
    },
    {
      "midi": 59,
      "hit": false,
      "t": 281874.9999999998,
      "d": 152.99479166668607,
      "v": 64
    },
    {
      "midi": 57,
      "hit": false,
      "t": 282031.2499999998,
      "d": 152.99479166668607,
      "v": 64
    },
    {
      "midi": 55,
      "hit": false,
      "t": 282187.4999999998,
      "d": 309.24479166668607,
      "v": 64
    },
    {
      "midi": 40,
      "hit": false,
      "t": 282499.9999999998,
      "d": 934.2447916666861,
      "v": 64
    },
    {
      "midi": 55,
      "hit": false,
      "t": 282499.9999999998,
      "d": 1559.244791666686,
      "v": 64
    },
    {
      "midi": 59,
      "hit": false,
      "t": 282499.9999999998,
      "d": 1559.244791666686,
      "v": 64
    },
    {
      "midi": 64,
      "hit": false,
      "t": 282499.9999999998,
      "d": 1559.244791666686,
      "v": 64
    },
    {
      "midi": 40,
      "hit": false,
      "t": 283437.4999999998,
      "d": 309.24479166668607,
      "v": 64
    },
    {
      "midi": 40,
      "hit": false,
      "t": 283749.9999999998,
      "d": 1246.744791666686,
      "v": 64
    },
    {
      "midi": 52,
      "hit": false,
      "t": 284062.4999999998,
      "d": 309.24479166668607,
      "v": 64
    },
    {
      "midi": 54,
      "hit": false,
      "t": 284374.9999999998,
      "d": 309.24479166668607,
      "v": 64
    },
    {
      "midi": 55,
      "hit": false,
      "t": 284687.4999999998,
      "d": 309.24479166668607,
      "v": 64
    },
    {
      "midi": 54,
      "hit": false,
      "t": 284999.9999999998,
      "d": 621.7447916666861,
      "v": 64
    },
    {
      "midi": 57,
      "hit": false,
      "t": 284999.9999999998,
      "d": 2496.7447916665697,
      "v": 64
    },
    {
      "midi": 62,
      "hit": false,
      "t": 284999.9999999998,
      "d": 2496.7447916665697,
      "v": 64
    },
    {
      "midi": 55,
      "hit": false,
      "t": 285624.9999999998,
      "d": 621.7447916666861,
      "v": 64
    },
    {
      "midi": 54,
      "hit": false,
      "t": 286249.9999999998,
      "d": 413.41145833331393,
      "v": 64
    },
    {
      "midi": 52,
      "hit": false,
      "t": 286666.66666666645,
      "d": 413.41145833331393,
      "v": 64
    },
    {
      "midi": 50,
      "hit": false,
      "t": 287083.3333333331,
      "d": 413.41145833331393,
      "v": 64
    },
    {
      "midi": 48,
      "hit": false,
      "t": 287499.9999999997,
      "d": 413.41145833331393,
      "v": 64
    },
    {
      "midi": 55,
      "hit": false,
      "t": 287499.9999999997,
      "d": 2496.7447916665697,
      "v": 64
    },
    {
      "midi": 60,
      "hit": false,
      "t": 287499.9999999997,
      "d": 2496.7447916665697,
      "v": 64
    },
    {
      "midi": 64,
      "hit": false,
      "t": 287499.9999999997,
      "d": 2496.7447916665697,
      "v": 64
    },
    {
      "midi": 48,
      "hit": false,
      "t": 287916.66666666634,
      "d": 413.41145833331393,
      "v": 64
    },
    {
      "midi": 47,
      "hit": false,
      "t": 288333.33333333296,
      "d": 413.41145833331393,
      "v": 64
    },
    {
      "midi": 43,
      "hit": false,
      "t": 288749.9999999996,
      "d": 1246.744791666686,
      "v": 64
    },
    {
      "midi": 48,
      "hit": false,
      "t": 289999.9999999996,
      "d": 934.2447916666861,
      "v": 64
    },
    {
      "midi": 60,
      "hit": false,
      "t": 289999.9999999996,
      "d": 1559.244791666686,
      "v": 64
    },
    {
      "midi": 64,
      "hit": false,
      "t": 289999.9999999996,
      "d": 1559.244791666686,
      "v": 64
    },
    {
      "midi": 67,
      "hit": false,
      "t": 289999.9999999996,
      "d": 1559.244791666686,
      "v": 64
    },
    {
      "midi": 48,
      "hit": false,
      "t": 290937.4999999996,
      "d": 309.24479166668607,
      "v": 64
    },
    {
      "midi": 48,
      "hit": false,
      "t": 291249.9999999996,
      "d": 621.7447916666861,
      "v": 64
    },
    {
      "midi": 67,
      "hit": false,
      "t": 291562.4999999996,
      "d": 309.24479166668607,
      "v": 64
    },
    {
      "midi": 71,
      "hit": false,
      "t": 291874.9999999996,
      "d": 309.24479166668607,
      "v": 64
    },
    {
      "midi": 43,
      "hit": false,
      "t": 291874.9999999996,
      "d": 621.7447916666861,
      "v": 64
    },
    {
      "midi": 74,
      "hit": false,
      "t": 292187.4999999996,
      "d": 309.24479166668607,
      "v": 64
    },
    {
      "midi": 48,
      "hit": false,
      "t": 292499.9999999996,
      "d": 934.2447916666861,
      "v": 64
    },
    {
      "midi": 67,
      "hit": false,
      "t": 292499.9999999996,
      "d": 934.2447916666861,
      "v": 64
    },
    {
      "midi": 72,
      "hit": false,
      "t": 292499.9999999996,
      "d": 934.2447916666861,
      "v": 64
    },
    {
      "midi": 76,
      "hit": false,
      "t": 292499.9999999996,
      "d": 934.2447916666861,
      "v": 64
    },
    {
      "midi": 48,
      "hit": false,
      "t": 293437.4999999996,
      "d": 309.24479166668607,
      "v": 64
    },
    {
      "midi": 67,
      "hit": false,
      "t": 293437.4999999996,
      "d": 309.24479166668607,
      "v": 64
    },
    {
      "midi": 72,
      "hit": false,
      "t": 293437.4999999996,
      "d": 309.24479166668607,
      "v": 64
    },
    {
      "midi": 76,
      "hit": false,
      "t": 293437.4999999996,
      "d": 309.24479166668607,
      "v": 64
    },
    {
      "midi": 67,
      "hit": false,
      "t": 293749.9999999996,
      "d": 621.7447916666861,
      "v": 64
    },
    {
      "midi": 72,
      "hit": false,
      "t": 293749.9999999996,
      "d": 621.7447916666861,
      "v": 64
    },
    {
      "midi": 76,
      "hit": false,
      "t": 293749.9999999996,
      "d": 621.7447916666861,
      "v": 64
    },
    {
      "midi": 48,
      "hit": false,
      "t": 293749.9999999996,
      "d": 1246.744791666686,
      "v": 64
    },
    {
      "midi": 74,
      "hit": false,
      "t": 294374.9999999996,
      "d": 309.24479166668607,
      "v": 64
    },
    {
      "midi": 71,
      "hit": false,
      "t": 294687.4999999996,
      "d": 309.24479166668607,
      "v": 64
    },
    {
      "midi": 43,
      "hit": false,
      "t": 294999.9999999996,
      "d": 934.2447916666861,
      "v": 64
    },
    {
      "midi": 67,
      "hit": false,
      "t": 294999.9999999996,
      "d": 1559.244791666686,
      "v": 64
    },
    {
      "midi": 71,
      "hit": false,
      "t": 294999.9999999996,
      "d": 1559.244791666686,
      "v": 64
    },
    {
      "midi": 74,
      "hit": false,
      "t": 294999.9999999996,
      "d": 1559.244791666686,
      "v": 64
    },
    {
      "midi": 43,
      "hit": false,
      "t": 295937.4999999996,
      "d": 309.24479166668607,
      "v": 64
    },
    {
      "midi": 43,
      "hit": false,
      "t": 296249.9999999996,
      "d": 1246.744791666686,
      "v": 64
    },
    {
      "midi": 67,
      "hit": false,
      "t": 296562.4999999996,
      "d": 309.24479166668607,
      "v": 64
    },
    {
      "midi": 71,
      "hit": false,
      "t": 296874.9999999996,
      "d": 309.24479166668607,
      "v": 64
    },
    {
      "midi": 74,
      "hit": false,
      "t": 297187.4999999996,
      "d": 309.24479166668607,
      "v": 64
    },
    {
      "midi": 48,
      "hit": false,
      "t": 297499.9999999996,
      "d": 934.2447916666861,
      "v": 64
    },
    {
      "midi": 67,
      "hit": false,
      "t": 297499.9999999996,
      "d": 934.2447916666861,
      "v": 64
    },
    {
      "midi": 72,
      "hit": false,
      "t": 297499.9999999996,
      "d": 934.2447916666861,
      "v": 64
    },
    {
      "midi": 76,
      "hit": false,
      "t": 297499.9999999996,
      "d": 934.2447916666861,
      "v": 64
    },
    {
      "midi": 48,
      "hit": false,
      "t": 298437.4999999996,
      "d": 309.24479166668607,
      "v": 64
    },
    {
      "midi": 67,
      "hit": false,
      "t": 298437.4999999996,
      "d": 309.24479166668607,
      "v": 64
    },
    {
      "midi": 72,
      "hit": false,
      "t": 298437.4999999996,
      "d": 309.24479166668607,
      "v": 64
    },
    {
      "midi": 76,
      "hit": false,
      "t": 298437.4999999996,
      "d": 309.24479166668607,
      "v": 64
    },
    {
      "midi": 67,
      "hit": false,
      "t": 298749.9999999996,
      "d": 621.7447916666861,
      "v": 64
    },
    {
      "midi": 72,
      "hit": false,
      "t": 298749.9999999996,
      "d": 621.7447916666861,
      "v": 64
    },
    {
      "midi": 76,
      "hit": false,
      "t": 298749.9999999996,
      "d": 621.7447916666861,
      "v": 64
    },
    {
      "midi": 48,
      "hit": false,
      "t": 298749.9999999996,
      "d": 1246.744791666686,
      "v": 64
    },
    {
      "midi": 74,
      "hit": false,
      "t": 299374.9999999996,
      "d": 309.24479166668607,
      "v": 64
    },
    {
      "midi": 71,
      "hit": false,
      "t": 299687.4999999996,
      "d": 309.24479166668607,
      "v": 64
    },
    {
      "midi": 43,
      "hit": false,
      "t": 299999.9999999996,
      "d": 934.2447916666861,
      "v": 64
    },
    {
      "midi": 67,
      "hit": false,
      "t": 299999.9999999996,
      "d": 1559.244791666686,
      "v": 64
    },
    {
      "midi": 71,
      "hit": false,
      "t": 299999.9999999996,
      "d": 1559.244791666686,
      "v": 64
    },
    {
      "midi": 74,
      "hit": false,
      "t": 299999.9999999996,
      "d": 1559.244791666686,
      "v": 64
    },
    {
      "midi": 43,
      "hit": false,
      "t": 300937.4999999996,
      "d": 309.24479166668607,
      "v": 64
    },
    {
      "midi": 43,
      "hit": false,
      "t": 301249.9999999996,
      "d": 1246.744791666686,
      "v": 64
    },
    {
      "midi": 64,
      "hit": false,
      "t": 301562.4999999996,
      "d": 309.24479166668607,
      "v": 64
    },
    {
      "midi": 67,
      "hit": false,
      "t": 301874.9999999996,
      "d": 309.24479166668607,
      "v": 64
    },
    {
      "midi": 66,
      "hit": false,
      "t": 302187.4999999996,
      "d": 309.24479166668607,
      "v": 64
    },
    {
      "midi": 48,
      "hit": false,
      "t": 302499.9999999996,
      "d": 934.2447916666861,
      "v": 64
    },
    {
      "midi": 55,
      "hit": false,
      "t": 302499.9999999996,
      "d": 934.2447916666861,
      "v": 64
    },
    {
      "midi": 60,
      "hit": false,
      "t": 302499.9999999996,
      "d": 934.2447916666861,
      "v": 64
    },
    {
      "midi": 64,
      "hit": false,
      "t": 302499.9999999996,
      "d": 934.2447916666861,
      "v": 64
    },
    {
      "midi": 48,
      "hit": false,
      "t": 303437.4999999996,
      "d": 309.24479166668607,
      "v": 64
    },
    {
      "midi": 55,
      "hit": false,
      "t": 303437.4999999996,
      "d": 309.24479166668607,
      "v": 64
    },
    {
      "midi": 60,
      "hit": false,
      "t": 303437.4999999996,
      "d": 309.24479166668607,
      "v": 64
    },
    {
      "midi": 64,
      "hit": false,
      "t": 303437.4999999996,
      "d": 309.24479166668607,
      "v": 64
    },
    {
      "midi": 55,
      "hit": false,
      "t": 303749.9999999996,
      "d": 309.24479166668607,
      "v": 64
    },
    {
      "midi": 60,
      "hit": false,
      "t": 303749.9999999996,
      "d": 309.24479166668607,
      "v": 64
    },
    {
      "midi": 64,
      "hit": false,
      "t": 303749.9999999996,
      "d": 309.24479166668607,
      "v": 64
    },
    {
      "midi": 48,
      "hit": false,
      "t": 303749.9999999996,
      "d": 1246.744791666686,
      "v": 64
    },
    {
      "midi": 62,
      "hit": false,
      "t": 304062.4999999996,
      "d": 309.24479166668607,
      "v": 64
    },
    {
      "midi": 59,
      "hit": false,
      "t": 304374.9999999996,
      "d": 152.99479166668607,
      "v": 64
    },
    {
      "midi": 57,
      "hit": false,
      "t": 304531.2499999996,
      "d": 152.99479166668607,
      "v": 64
    },
    {
      "midi": 55,
      "hit": false,
      "t": 304687.4999999996,
      "d": 309.24479166668607,
      "v": 64
    },
    {
      "midi": 40,
      "hit": false,
      "t": 304999.9999999996,
      "d": 934.2447916666861,
      "v": 64
    },
    {
      "midi": 55,
      "hit": false,
      "t": 304999.9999999996,
      "d": 1559.244791666686,
      "v": 64
    },
    {
      "midi": 59,
      "hit": false,
      "t": 304999.9999999996,
      "d": 1559.244791666686,
      "v": 64
    },
    {
      "midi": 64,
      "hit": false,
      "t": 304999.9999999996,
      "d": 1559.244791666686,
      "v": 64
    },
    {
      "midi": 40,
      "hit": false,
      "t": 305937.4999999996,
      "d": 309.24479166668607,
      "v": 64
    },
    {
      "midi": 40,
      "hit": false,
      "t": 306249.9999999996,
      "d": 1246.744791666686,
      "v": 64
    },
    {
      "midi": 52,
      "hit": false,
      "t": 306562.4999999996,
      "d": 309.24479166668607,
      "v": 64
    },
    {
      "midi": 54,
      "hit": false,
      "t": 306874.9999999996,
      "d": 309.24479166668607,
      "v": 64
    },
    {
      "midi": 55,
      "hit": false,
      "t": 307187.4999999996,
      "d": 309.24479166668607,
      "v": 64
    },
    {
      "midi": 54,
      "hit": false,
      "t": 307499.9999999996,
      "d": 621.7447916666861,
      "v": 64
    },
    {
      "midi": 57,
      "hit": false,
      "t": 307499.9999999996,
      "d": 2496.7447916665697,
      "v": 64
    },
    {
      "midi": 62,
      "hit": false,
      "t": 307499.9999999996,
      "d": 2496.7447916665697,
      "v": 64
    },
    {
      "midi": 55,
      "hit": false,
      "t": 308124.9999999996,
      "d": 621.7447916666861,
      "v": 64
    },
    {
      "midi": 54,
      "hit": false,
      "t": 308749.9999999996,
      "d": 413.41145833331393,
      "v": 64
    },
    {
      "midi": 52,
      "hit": false,
      "t": 309166.6666666662,
      "d": 413.41145833331393,
      "v": 64
    },
    {
      "midi": 50,
      "hit": false,
      "t": 309583.33333333285,
      "d": 413.41145833331393,
      "v": 64
    },
    {
      "midi": 48,
      "hit": false,
      "t": 309999.9999999995,
      "d": 413.41145833331393,
      "v": 64
    },
    {
      "midi": 55,
      "hit": false,
      "t": 309999.9999999995,
      "d": 2496.7447916665697,
      "v": 64
    },
    {
      "midi": 60,
      "hit": false,
      "t": 309999.9999999995,
      "d": 2496.7447916665697,
      "v": 64
    },
    {
      "midi": 64,
      "hit": false,
      "t": 309999.9999999995,
      "d": 2496.7447916665697,
      "v": 64
    },
    {
      "midi": 48,
      "hit": false,
      "t": 310416.6666666661,
      "d": 413.41145833331393,
      "v": 64
    },
    {
      "midi": 47,
      "hit": false,
      "t": 310833.33333333273,
      "d": 413.41145833331393,
      "v": 64
    },
    {
      "midi": 43,
      "hit": false,
      "t": 311249.99999999936,
      "d": 1246.744791666686,
      "v": 64
    },
    {
      "midi": 36,
      "hit": false,
      "t": 312499.99999999936,
      "d": 9996.744791666686,
      "v": 64
    },
    {
      "midi": 48,
      "hit": false,
      "t": 312499.99999999936,
      "d": 9996.744791666686,
      "v": 64
    },
    {
      "midi": 55,
      "hit": false,
      "t": 312499.99999999936,
      "d": 9996.744791666686,
      "v": 64
    },
    {
      "midi": 60,
      "hit": false,
      "t": 312499.99999999936,
      "d": 9996.744791666686,
      "v": 64
    },
    {
      "midi": 64,
      "hit": false,
      "t": 312499.99999999936,
      "d": 9996.744791666686,
      "v": 64
    }
  ]
}