{
  "jsonPath": "Soundtracks/German Soundtrack/Klaus Badelt/rain.json",
  "path": "Soundtracks\\German Soundtrack\\Klaus Badelt\\Rain.mid",
  "name": "Rain",
  "difficulty": "Advanced",
  "bpm": 77.99997660000702,
  "notes": [
    {
      "midi": 50,
      "hit": false,
      "t": 33569.721609375,
      "d": 3325.321510416681,
      "v": 103
    },
    {
      "midi": 57,
      "hit": false,
      "t": 33637.83060416667,
      "d": 3173.0778750000027,
      "v": 109
    },
    {
      "midi": 62,
      "hit": false,
      "t": 33701.933187500006,
      "d": 3189.1035208333415,
      "v": 109
    },
    {
      "midi": 64,
      "hit": false,
      "t": 33750.01012500001,
      "d": 3100.9624687500036,
      "v": 109
    },
    {
      "midi": 65,
      "hit": false,
      "t": 33826.13194270834,
      "d": 3024.840651041668,
      "v": 109
    },
    {
      "midi": 38,
      "hit": false,
      "t": 33846.16400000001,
      "d": 3068.9111770833406,
      "v": 109
    },
    {
      "midi": 69,
      "hit": false,
      "t": 33890.23452604168,
      "d": 2952.725244791669,
      "v": 109
    },
    {
      "midi": 38,
      "hit": false,
      "t": 36955.13929166669,
      "d": 2772.4367291666713,
      "v": 114
    },
    {
      "midi": 77,
      "hit": false,
      "t": 36967.15852604169,
      "d": 2940.706010416674,
      "v": 114
    },
    {
      "midi": 57,
      "hit": false,
      "t": 39823.72989583336,
      "d": 3221.154812499997,
      "v": 104
    },
    {
      "midi": 61,
      "hit": false,
      "t": 39895.84530208336,
      "d": 3165.065052083337,
      "v": 104
    },
    {
      "midi": 64,
      "hit": false,
      "t": 39939.915828125035,
      "d": 3108.975291666662,
      "v": 104
    },
    {
      "midi": 37,
      "hit": false,
      "t": 40000.01200000003,
      "d": 2704.327734374994,
      "v": 104
    },
    {
      "midi": 69,
      "hit": false,
      "t": 40024.05046875003,
      "d": 3048.8791197916726,
      "v": 104
    },
    {
      "midi": 37,
      "hit": false,
      "t": 43076.93600000004,
      "d": 2932.693187500001,
      "v": 114
    },
    {
      "midi": 81,
      "hit": false,
      "t": 43121.0065260417,
      "d": 2940.7060104166667,
      "v": 114
    },
    {
      "midi": 65,
      "hit": false,
      "t": 46017.642010416705,
      "d": 3012.821416666673,
      "v": 101
    },
    {
      "midi": 69,
      "hit": false,
      "t": 46073.73177083337,
      "d": 2940.7060104166667,
      "v": 101
    },
    {
      "midi": 72,
      "hit": false,
      "t": 46133.82794270837,
      "d": 2884.6162500000064,
      "v": 101
    },
    {
      "midi": 36,
      "hit": false,
      "t": 46153.86000000004,
      "d": 2856.5713697916653,
      "v": 101
    },
    {
      "midi": 75,
      "hit": false,
      "t": 46217.96258333337,
      "d": 2800.481609375005,
      "v": 101
    },
    {
      "midi": 69,
      "hit": false,
      "t": 49242.803234375046,
      "d": 2748.3982604166667,
      "v": 103
    },
    {
      "midi": 65,
      "hit": false,
      "t": 49242.803234375046,
      "d": 2756.41108333334,
      "v": 103
    },
    {
      "midi": 41,
      "hit": false,
      "t": 49246.80964583338,
      "d": 2748.3982604166667,
      "v": 103
    },
    {
      "midi": 60,
      "hit": false,
      "t": 49246.80964583338,
      "d": 2756.41108333334,
      "v": 103
    },
    {
      "midi": 58,
      "hit": false,
      "t": 52139.438718750054,
      "d": 3120.9945260416716,
      "v": 105
    },
    {
      "midi": 62,
      "hit": false,
      "t": 52215.56053645839,
      "d": 3056.8919427083383,
      "v": 105
    },
    {
      "midi": 65,
      "hit": false,
      "t": 52267.64388541672,
      "d": 3004.8085937500073,
      "v": 105
    },
    {
      "midi": 34,
      "hit": false,
      "t": 52307.70800000006,
      "d": 2640.225151041668,
      "v": 105
    },
    {
      "midi": 67,
      "hit": false,
      "t": 52355.78493750006,
      "d": 2916.6675416666694,
      "v": 105
    },
    {
      "midi": 34,
      "hit": false,
      "t": 55384.63200000006,
      "d": 324.5193281250031,
      "v": 111
    },
    {
      "midi": 74,
      "hit": false,
      "t": 55432.708937500065,
      "d": 2788.462375000003,
      "v": 109
    },
    {
      "midi": 40,
      "hit": false,
      "t": 58461.55600000007,
      "d": 1101.7631510416686,
      "v": 107
    },
    {
      "midi": 58,
      "hit": false,
      "t": 58461.55600000007,
      "d": 1778.8466875000013,
      "v": 115
    },
    {
      "midi": 67,
      "hit": false,
      "t": 58461.55600000007,
      "d": 1915.0646770833337,
      "v": 125
    },
    {
      "midi": 52,
      "hit": false,
      "t": 59583.351208333406,
      "d": 1542.4684114583288,
      "v": 114
    },
    {
      "midi": 58,
      "hit": false,
      "t": 60368.60785416674,
      "d": 1153.8464999999997,
      "v": 101
    },
    {
      "midi": 64,
      "hit": false,
      "t": 60753.22335416674,
      "d": 400.6411458333314,
      "v": 112
    },
    {
      "midi": 67,
      "hit": false,
      "t": 61157.870911458405,
      "d": 368.5898541666684,
      "v": 111
    },
    {
      "midi": 45,
      "hit": false,
      "t": 61570.53129166674,
      "d": 1410.2568333333256,
      "v": 120
    },
    {
      "midi": 57,
      "hit": false,
      "t": 61935.11473437507,
      "d": 881.4105208333276,
      "v": 125
    },
    {
      "midi": 61,
      "hit": false,
      "t": 62319.73023437507,
      "d": 580.9296614583291,
      "v": 108
    },
    {
      "midi": 64,
      "hit": false,
      "t": 62664.281619791735,
      "d": 324.5193281249958,
      "v": 107
    },
    {
      "midi": 57,
      "hit": false,
      "t": 63024.85865104173,
      "d": 1262.0196093750055,
      "v": 97
    },
    {
      "midi": 52,
      "hit": false,
      "t": 63028.86506250007,
      "d": 1262.0196093750055,
      "v": 78
    },
    {
      "midi": 61,
      "hit": false,
      "t": 63048.897119791734,
      "d": 1233.9747291666645,
      "v": 103
    },
    {
      "midi": 67,
      "hit": false,
      "t": 63100.980468750065,
      "d": 1197.9170260416722,
      "v": 109
    },
    {
      "midi": 62,
      "hit": false,
      "t": 64615.40400000007,
      "d": 625.0001875000089,
      "v": 120
    },
    {
      "midi": 50,
      "hit": false,
      "t": 64619.410411458404,
      "d": 2652.2443854166777,
      "v": 107
    },
    {
      "midi": 57,
      "hit": false,
      "t": 64971.97461979174,
      "d": 1786.8595104166889,
      "v": 115
    },
    {
      "midi": 62,
      "hit": false,
      "t": 65344.570885416746,
      "d": 1037.6605677083426,
      "v": 91
    },
    {
      "midi": 65,
      "hit": false,
      "t": 65737.19920833342,
      "d": 813.3015260416723,
      "v": 119
    },
    {
      "midi": 69,
      "hit": false,
      "t": 66538.48150000008,
      "d": 729.1668854166637,
      "v": 122
    },
    {
      "midi": 62,
      "hit": false,
      "t": 66542.48791145842,
      "d": 568.9104270833341,
      "v": 111
    },
    {
      "midi": 57,
      "hit": false,
      "t": 66935.11623437509,
      "d": 833.3335833333258,
      "v": 127
    },
    {
      "midi": 60,
      "hit": false,
      "t": 67279.66761979175,
      "d": 2215.545536458332,
      "v": 127
    },
    {
      "midi": 48,
      "hit": false,
      "t": 67684.31517708342,
      "d": 2852.5649583333434,
      "v": 114
    },
    {
      "midi": 57,
      "hit": false,
      "t": 68068.93067708342,
      "d": 1005.609276041665,
      "v": 112
    },
    {
      "midi": 65,
      "hit": false,
      "t": 68818.12961979175,
      "d": 805.2887031249993,
      "v": 122
    },
    {
      "midi": 57,
      "hit": false,
      "t": 69198.73870833342,
      "d": 608.9745416666701,
      "v": 95
    },
    {
      "midi": 69,
      "hit": false,
      "t": 69615.40550000008,
      "d": 921.4746354166855,
      "v": 120
    },
    {
      "midi": 60,
      "hit": false,
      "t": 69615.40550000008,
      "d": 933.4938697916805,
      "v": 111
    },
    {
      "midi": 57,
      "hit": false,
      "t": 70000.0210000001,
      "d": 568.9104270833341,
      "v": 110
    },
    {
      "midi": 69,
      "hit": false,
      "t": 70769.2520000001,
      "d": 741.1861197916733,
      "v": 117
    },
    {
      "midi": 47,
      "hit": false,
      "t": 70769.2520000001,
      "d": 2884.6162500000064,
      "v": 100
    },
    {
      "midi": 59,
      "hit": false,
      "t": 70773.25841145843,
      "d": 544.8719583333295,
      "v": 109
    },
    {
      "midi": 53,
      "hit": false,
      "t": 71113.80338541676,
      "d": 965.5451614583435,
      "v": 110
    },
    {
      "midi": 59,
      "hit": false,
      "t": 71510.43811979177,
      "d": 645.0322447916697,
      "v": 112
    },
    {
      "midi": 62,
      "hit": false,
      "t": 71907.07285416676,
      "d": 749.1989427083463,
      "v": 115
    },
    {
      "midi": 53,
      "hit": false,
      "t": 72299.70117708344,
      "d": 1358.1734843750019,
      "v": 103
    },
    {
      "midi": 69,
      "hit": false,
      "t": 72676.30385416678,
      "d": 961.5387499999924,
      "v": 113
    },
    {
      "midi": 59,
      "hit": false,
      "t": 72692.32950000011,
      "d": 961.5387499999924,
      "v": 115
    },
    {
      "midi": 64,
      "hit": false,
      "t": 73846.17600000011,
      "d": 620.9937760416651,
      "v": 119
    },
    {
      "midi": 52,
      "hit": false,
      "t": 73846.17600000011,
      "d": 2804.4880208333343,
      "v": 103
    },
    {
      "midi": 59,
      "hit": false,
      "t": 74198.74020833345,
      "d": 941.5066927083244,
      "v": 113
    },
    {
      "midi": 64,
      "hit": false,
      "t": 74583.35570833345,
      "d": 408.6539687499899,
      "v": 109
    },
    {
      "midi": 68,
      "hit": false,
      "t": 74979.99044270844,
      "d": 384.61549999998533,
      "v": 109
    },
    {
      "midi": 59,
      "hit": false,
      "t": 75352.58670833343,
      "d": 608.9745416666701,
      "v": 90
    },
    {
      "midi": 64,
      "hit": false,
      "t": 75364.60594270843,
      "d": 1298.077312500027,
      "v": 103
    },
    {
      "midi": 71,
      "hit": false,
      "t": 75368.61235416676,
      "d": 1286.0580781250173,
      "v": 110
    },
    {
      "midi": 59,
      "hit": false,
      "t": 76113.80488541677,
      "d": 544.8719583333441,
      "v": 98
    },
    {
      "midi": 45,
      "hit": false,
      "t": 76923.10000000012,
      "d": 3036.8598854166776,
      "v": 113
    },
    {
      "midi": 57,
      "hit": false,
      "t": 77275.66420833346,
      "d": 416.6667916666629,
      "v": 122
    },
    {
      "midi": 61,
      "hit": false,
      "t": 77660.27970833346,
      "d": 300.48085937499127,
      "v": 105
    },
    {
      "midi": 64,
      "hit": false,
      "t": 78044.89520833344,
      "d": 805.2887031250139,
      "v": 116
    },
    {
      "midi": 57,
      "hit": false,
      "t": 78048.90161979178,
      "d": 673.0771249999962,
      "v": 112
    },
    {
      "midi": 55,
      "hit": false,
      "t": 78461.5620000001,
      "d": 608.9745416666847,
      "v": 87
    },
    {
      "midi": 67,
      "hit": false,
      "t": 78838.16467708345,
      "d": 785.2566458333458,
      "v": 119
    },
    {
      "midi": 57,
      "hit": false,
      "t": 78846.17750000012,
      "d": 1121.7952083333512,
      "v": 116
    },
    {
      "midi": 55,
      "hit": false,
      "t": 79230.79300000012,
      "d": 729.1668854166783,
      "v": 94
    },
    {
      "midi": 64,
      "hit": false,
      "t": 79599.38285416679,
      "d": 356.5706197916734,
      "v": 108
    },
    {
      "midi": 40,
      "hit": false,
      "t": 80000.02400000014,
      "d": 352.56420833333686,
      "v": 105
    },
    {
      "midi": 67,
      "hit": false,
      "t": 80000.02400000014,
      "d": 785.2566458333458,
      "v": 120
    },
    {
      "midi": 52,
      "hit": false,
      "t": 80344.5753854168,
      "d": 1157.8529114583362,
      "v": 106
    },
    {
      "midi": 59,
      "hit": false,
      "t": 80741.21011979181,
      "d": 420.6732031249994,
      "v": 117
    },
    {
      "midi": 64,
      "hit": false,
      "t": 81133.83844270848,
      "d": 396.6347343749949,
      "v": 115
    },
    {
      "midi": 61,
      "hit": false,
      "t": 81522.4603541668,
      "d": 1250.0003750000033,
      "v": 106
    },
    {
      "midi": 45,
      "hit": false,
      "t": 81522.4603541668,
      "d": 1254.0067864583398,
      "v": 95
    },
    {
      "midi": 65,
      "hit": false,
      "t": 83076.94800000015,
      "d": 741.1861197916587,
      "v": 120
    },
    {
      "midi": 50,
      "hit": false,
      "t": 83076.94800000015,
      "d": 2355.769937499994,
      "v": 110
    },
    {
      "midi": 57,
      "hit": false,
      "t": 83421.49938541681,
      "d": 2011.21855208333,
      "v": 109
    },
    {
      "midi": 62,
      "hit": false,
      "t": 83806.11488541681,
      "d": 416.6667916666629,
      "v": 98
    },
    {
      "midi": 65,
      "hit": false,
      "t": 84198.74320833347,
      "d": 1314.1029583333438,
      "v": 105
    },
    {
      "midi": 53,
      "hit": false,
      "t": 85416.69229166681,
      "d": 697.1155937500298,
      "v": 106
    },
    {
      "midi": 62,
      "hit": false,
      "t": 85576.94875000016,
      "d": 288.4616250000108,
      "v": 116
    },
    {
      "midi": 65,
      "hit": false,
      "t": 85749.2244427085,
      "d": 196.31416145834373,
      "v": 106
    },
    {
      "midi": 69,
      "hit": false,
      "t": 85941.5321927085,
      "d": 176.2821041666757,
      "v": 98
    },
    {
      "midi": 50,
      "hit": false,
      "t": 86125.82711979185,
      "d": 1895.032619791702,
      "v": 107
    },
    {
      "midi": 62,
      "hit": false,
      "t": 86145.85917708352,
      "d": 985.5772187500115,
      "v": 113
    },
    {
      "midi": 74,
      "hit": false,
      "t": 86153.87200000019,
      "d": 1446.314536458347,
      "v": 117
    },
    {
      "midi": 57,
      "hit": false,
      "t": 86923.10300000019,
      "d": 2183.4942447916837,
      "v": 109
    },
    {
      "midi": 62,
      "hit": false,
      "t": 87267.65438541687,
      "d": 1838.9428593750054,
      "v": 106
    },
    {
      "midi": 69,
      "hit": false,
      "t": 87664.28911979188,
      "d": 737.1797083333367,
      "v": 120
    },
    {
      "midi": 53,
      "hit": false,
      "t": 88024.86615104189,
      "d": 1057.6926249999815,
      "v": 98
    },
    {
      "midi": 65,
      "hit": false,
      "t": 88413.48806250021,
      "d": 689.1027708333277,
      "v": 114
    },
    {
      "midi": 61,
      "hit": false,
      "t": 89230.7960000002,
      "d": 2363.782760416667,
      "v": 121
    },
    {
      "midi": 49,
      "hit": false,
      "t": 89230.7960000002,
      "d": 2692.3084999999846,
      "v": 101
    },
    {
      "midi": 57,
      "hit": false,
      "t": 89587.36661979188,
      "d": 1754.8082187499967,
      "v": 111
    },
    {
      "midi": 64,
      "hit": false,
      "t": 89951.95006250021,
      "d": 1722.7569270833192,
      "v": 108
    },
    {
      "midi": 69,
      "hit": false,
      "t": 90368.61685416687,
      "d": 1294.0709010416613,
      "v": 98
    },
    {
      "midi": 57,
      "hit": false,
      "t": 91538.4890000002,
      "d": 737.1797083333222,
      "v": 117
    },
    {
      "midi": 61,
      "hit": false,
      "t": 91702.75186979186,
      "d": 420.6732031249994,
      "v": 103
    },
    {
      "midi": 64,
      "hit": false,
      "t": 91895.05961979186,
      "d": 196.31416145832918,
      "v": 108
    },
    {
      "midi": 69,
      "hit": false,
      "t": 92083.36095833352,
      "d": 204.3269843750022,
      "v": 102
    },
    {
      "midi": 73,
      "hit": false,
      "t": 92287.68794270852,
      "d": 1125.8016197916731,
      "v": 112
    },
    {
      "midi": 61,
      "hit": false,
      "t": 92291.69435416686,
      "d": 929.4874583333294,
      "v": 113
    },
    {
      "midi": 49,
      "hit": false,
      "t": 92291.69435416686,
      "d": 2083.3339583333145,
      "v": 108
    },
    {
      "midi": 57,
      "hit": false,
      "t": 93044.89970833353,
      "d": 1426.2824791666499,
      "v": 114
    },
    {
      "midi": 61,
      "hit": false,
      "t": 93409.48315104186,
      "d": 428.6860260416579,
      "v": 109
    },
    {
      "midi": 69,
      "hit": false,
      "t": 93826.14994270852,
      "d": 388.62191145832185,
      "v": 110
    },
    {
      "midi": 64,
      "hit": false,
      "t": 94214.77185416684,
      "d": 356.5706197916734,
      "v": 113
    },
    {
      "midi": 61,
      "hit": false,
      "t": 94575.34888541685,
      "d": 396.6347343749949,
      "v": 108
    },
    {
      "midi": 57,
      "hit": false,
      "t": 94992.01567708352,
      "d": 376.60267708332685,
      "v": 117
    },
    {
      "midi": 48,
      "hit": false,
      "t": 95384.64400000017,
      "d": 737.1797083333367,
      "v": 102
    },
    {
      "midi": 60,
      "hit": false,
      "t": 95384.64400000017,
      "d": 1169.8721458333312,
      "v": 122
    },
    {
      "midi": 55,
      "hit": false,
      "t": 95717.17615104184,
      "d": 1682.6928124999977,
      "v": 107
    },
    {
      "midi": 51,
      "hit": false,
      "t": 96101.79165104184,
      "d": 1682.6928124999977,
      "v": 96
    },
    {
      "midi": 63,
      "hit": false,
      "t": 96506.43920833351,
      "d": 833.3335833333258,
      "v": 113
    },
    {
      "midi": 67,
      "hit": false,
      "t": 97307.72150000017,
      "d": 1209.9362604166818,
      "v": 114
    },
    {
      "midi": 55,
      "hit": false,
      "t": 97684.3241770835,
      "d": 492.78860937501304,
      "v": 98
    },
    {
      "midi": 41,
      "hit": false,
      "t": 98453.55517708352,
      "d": 2952.7252447916835,
      "v": 116
    },
    {
      "midi": 48,
      "hit": false,
      "t": 98669.90139583353,
      "d": 160.25645833332965,
      "v": 101
    },
    {
      "midi": 53,
      "hit": false,
      "t": 98850.18991145852,
      "d": 364.58344270833186,
      "v": 105
    },
    {
      "midi": 57,
      "hit": false,
      "t": 99030.47842708352,
      "d": 196.31416145832918,
      "v": 113
    },
    {
      "midi": 60,
      "hit": false,
      "t": 99210.76694270852,
      "d": 324.5193281249958,
      "v": 110
    },
    {
      "midi": 53,
      "hit": false,
      "t": 99395.06186979185,
      "d": 1201.9234375000087,
      "v": 111
    },
    {
      "midi": 57,
      "hit": false,
      "t": 99583.36320833351,
      "d": 224.35904166667024,
      "v": 114
    },
    {
      "midi": 60,
      "hit": false,
      "t": 99775.67095833352,
      "d": 184.2949270833342,
      "v": 101
    },
    {
      "midi": 65,
      "hit": false,
      "t": 100024.06846875019,
      "d": 1410.256833333333,
      "v": 125
    },
    {
      "midi": 53,
      "hit": false,
      "t": 100813.33152604186,
      "d": 625.0001875000016,
      "v": 97
    },
    {
      "midi": 46,
      "hit": false,
      "t": 101542.49841145852,
      "d": 2888.6226614583575,
      "v": 113
    },
    {
      "midi": 53,
      "hit": false,
      "t": 101915.09467708353,
      "d": 352.56420833333686,
      "v": 100
    },
    {
      "midi": 58,
      "hit": false,
      "t": 102291.69735416687,
      "d": 600.9617187500116,
      "v": 98
    },
    {
      "midi": 77,
      "hit": false,
      "t": 102676.31285416687,
      "d": 408.6539687500044,
      "v": 127
    },
    {
      "midi": 65,
      "hit": false,
      "t": 102684.32567708354,
      "d": 364.58344270833186,
      "v": 116
    },
    {
      "midi": 58,
      "hit": false,
      "t": 103056.92194270855,
      "d": 588.9424843750021,
      "v": 90
    },
    {
      "midi": 79,
      "hit": false,
      "t": 103445.54385416687,
      "d": 376.6026770833414,
      "v": 120
    },
    {
      "midi": 67,
      "hit": false,
      "t": 103453.55667708354,
      "d": 364.58344270833186,
      "v": 109
    },
    {
      "midi": 58,
      "hit": false,
      "t": 103806.12088541688,
      "d": 729.1668854166637,
      "v": 102
    },
    {
      "midi": 74,
      "hit": false,
      "t": 104210.76844270855,
      "d": 464.743729166672,
      "v": 120
    },
    {
      "midi": 62,
      "hit": false,
      "t": 104214.77485416688,
      "d": 400.6411458333314,
      "v": 112
    },
    {
      "midi": 46,
      "hit": false,
      "t": 104595.38394270855,
      "d": 3004.808593750029,
      "v": 107
    },
    {
      "midi": 77,
      "hit": false,
      "t": 105000.03150000022,
      "d": 817.3079375000088,
      "v": 127
    },
    {
      "midi": 65,
      "hit": false,
      "t": 105004.03791145855,
      "d": 865.3848750000034,
      "v": 113
    },
    {
      "midi": 53,
      "hit": false,
      "t": 105761.24967708356,
      "d": 364.58344270833186,
      "v": 107
    },
    {
      "midi": 58,
      "hit": false,
      "t": 106133.84594270856,
      "d": 432.69243750000896,
      "v": 107
    },
    {
      "midi": 62,
      "hit": false,
      "t": 106326.15369270857,
      "d": 184.2949270833342,
      "v": 105
    },
    {
      "midi": 65,
      "hit": false,
      "t": 106530.48067708357,
      "d": 292.4680364583328,
      "v": 112
    },
    {
      "midi": 58,
      "hit": false,
      "t": 106710.76919270857,
      "d": 889.4233437500079,
      "v": 94
    },
    {
      "midi": 70,
      "hit": false,
      "t": 106915.09617708357,
      "d": 697.1155937500007,
      "v": 115
    },
    {
      "midi": 55,
      "hit": false,
      "t": 107692.34000000024,
      "d": 1410.2568333333475,
      "v": 113
    },
    {
      "midi": 62,
      "hit": false,
      "t": 107692.34000000024,
      "d": 1466.346593750015,
      "v": 122
    },
    {
      "midi": 46,
      "hit": false,
      "t": 108429.51970833358,
      "d": 1522.4363541666826,
      "v": 104
    },
    {
      "midi": 52,
      "hit": false,
      "t": 108838.17367708359,
      "d": 941.506692708339,
      "v": 115
    },
    {
      "midi": 55,
      "hit": false,
      "t": 109230.80200000026,
      "d": 324.5193281249958,
      "v": 113
    },
    {
      "midi": 62,
      "hit": false,
      "t": 109619.4239114586,
      "d": 657.0514791666646,
      "v": 122
    },
    {
      "midi": 55,
      "hit": false,
      "t": 109631.44314583359,
      "d": 721.1540625000052,
      "v": 109
    },
    {
      "midi": 52,
      "hit": false,
      "t": 109980.00094270859,
      "d": 753.2053541666828,
      "v": 106
    },
    {
      "midi": 61,
      "hit": false,
      "t": 110368.62285416693,
      "d": 1530.4491770833556,
      "v": 114
    },
    {
      "midi": 57,
      "hit": false,
      "t": 110376.6356770836,
      "d": 1390.2247760416794,
      "v": 122
    },
    {
      "midi": 45,
      "hit": false,
      "t": 110769.26400000027,
      "d": 2952.725244791698,
      "v": 113
    },
    {
      "midi": 52,
      "hit": false,
      "t": 111542.50141145861,
      "d": 817.3079375000234,
      "v": 107
    },
    {
      "midi": 57,
      "hit": false,
      "t": 111907.08485416695,
      "d": 280.4488020833378,
      "v": 109
    },
    {
      "midi": 62,
      "hit": false,
      "t": 112287.69394270863,
      "d": 653.0450677083281,
      "v": 119
    },
    {
      "midi": 57,
      "hit": false,
      "t": 112291.70035416697,
      "d": 657.0514791666646,
      "v": 122
    },
    {
      "midi": 52,
      "hit": false,
      "t": 112652.27738541696,
      "d": 1081.7310937500006,
      "v": 101
    },
    {
      "midi": 64,
      "hit": false,
      "t": 113056.92494270863,
      "d": 677.0835364583327,
      "v": 126
    },
    {
      "midi": 57,
      "hit": false,
      "t": 113060.93135416697,
      "d": 677.0835364583327,
      "v": 119
    },
    {
      "midi": 64,
      "hit": false,
      "t": 113846.1880000003,
      "d": 1145.8336770833266,
      "v": 116
    },
    {
      "midi": 38,
      "hit": false,
      "t": 113846.1880000003,
      "d": 2852.564958333329,
      "v": 108
    },
    {
      "midi": 65,
      "hit": false,
      "t": 113846.1880000003,
      "d": 3157.052229166671,
      "v": 113
    },
    {
      "midi": 50,
      "hit": false,
      "t": 114214.77785416697,
      "d": 1422.276067708328,
      "v": 101
    },
    {
      "midi": 57,
      "hit": false,
      "t": 114615.4190000003,
      "d": 1426.2824791666644,
      "v": 102
    },
    {
      "midi": 62,
      "hit": false,
      "t": 115000.0345000003,
      "d": 1133.8144427083316,
      "v": 114
    },
    {
      "midi": 50,
      "hit": false,
      "t": 115753.23985416697,
      "d": 929.4874583333294,
      "v": 109
    },
    {
      "midi": 57,
      "hit": false,
      "t": 116145.86817708363,
      "d": 793.2694687500043,
      "v": 116
    },
    {
      "midi": 62,
      "hit": false,
      "t": 116510.45161979196,
      "d": 432.69243750000896,
      "v": 106
    },
    {
      "midi": 36,
      "hit": false,
      "t": 116915.09917708363,
      "d": 3068.9111770833697,
      "v": 126
    },
    {
      "midi": 48,
      "hit": false,
      "t": 117299.71467708364,
      "d": 408.653968750019,
      "v": 101
    },
    {
      "midi": 57,
      "hit": false,
      "t": 117471.99036979198,
      "d": 452.724494791677,
      "v": 103
    },
    {
      "midi": 62,
      "hit": false,
      "t": 117664.29811979199,
      "d": 384.6154999999999,
      "v": 115
    },
    {
      "midi": 48,
      "hit": false,
      "t": 117852.59945833366,
      "d": 785.2566458333313,
      "v": 98
    },
    {
      "midi": 57,
      "hit": false,
      "t": 118048.91361979199,
      "d": 336.53856250000536,
      "v": 109
    },
    {
      "midi": 62,
      "hit": false,
      "t": 118253.24060416699,
      "d": 941.506692708339,
      "v": 98
    },
    {
      "midi": 57,
      "hit": false,
      "t": 118441.54194270866,
      "d": 641.0258333333331,
      "v": 102
    },
    {
      "midi": 65,
      "hit": false,
      "t": 118441.54194270866,
      "d": 749.1989427083317,
      "v": 119
    },
    {
      "midi": 48,
      "hit": false,
      "t": 118806.12538541699,
      "d": 1165.8657343750092,
      "v": 97
    },
    {
      "midi": 57,
      "hit": false,
      "t": 119210.77294270866,
      "d": 753.2053541666683,
      "v": 116
    },
    {
      "midi": 62,
      "hit": false,
      "t": 119583.36920833366,
      "d": 384.6154999999999,
      "v": 113
    },
    {
      "midi": 57,
      "hit": false,
      "t": 120000.03600000033,
      "d": 1029.6477447916695,
      "v": 109
    },
    {
      "midi": 59,
      "hit": false,
      "t": 120000.03600000033,
      "d": 1125.8016197916731,
      "v": 120
    },
    {
      "midi": 35,
      "hit": false,
      "t": 120000.03600000033,
      "d": 1153.8464999999997,
      "v": 105
    },
    {
      "midi": 62,
      "hit": false,
      "t": 120000.03600000033,
      "d": 1518.4299427083315,
      "v": 112
    },
    {
      "midi": 47,
      "hit": false,
      "t": 120785.29264583366,
      "d": 641.0258333333331,
      "v": 116
    },
    {
      "midi": 57,
      "hit": false,
      "t": 121125.837619792,
      "d": 304.4872708333278,
      "v": 107
    },
    {
      "midi": 59,
      "hit": false,
      "t": 121538.49800000033,
      "d": 697.1155937500007,
      "v": 116
    },
    {
      "midi": 52,
      "hit": false,
      "t": 121907.087854167,
      "d": 1165.8657343749946,
      "v": 113
    },
    {
      "midi": 56,
      "hit": false,
      "t": 122255.645651042,
      "d": 781.2502343749948,
      "v": 115
    },
    {
      "midi": 59,
      "hit": false,
      "t": 122660.29320833366,
      "d": 400.6411458333314,
      "v": 114
    },
    {
      "midi": 40,
      "hit": false,
      "t": 123076.96000000033,
      "d": 4.006411458336515,
      "v": 108
    },
    {
      "midi": 62,
      "hit": false,
      "t": 123080.96641145866,
      "d": 1113.7823854166636,
      "v": 127
    },
    {
      "midi": 67,
      "hit": false,
      "t": 123080.96641145866,
      "d": 1133.8144427083316,
      "v": 127
    },
    {
      "midi": 52,
      "hit": false,
      "t": 123441.54344270866,
      "d": 344.55138541666383,
      "v": 99
    },
    {
      "midi": 47,
      "hit": false,
      "t": 123818.14611979199,
      "d": 356.5706197916734,
      "v": 99
    },
    {
      "midi": 52,
      "hit": false,
      "t": 124198.75520833366,
      "d": 388.6219114583364,
      "v": 98
    },
    {
      "midi": 45,
      "hit": false,
      "t": 124583.37070833366,
      "d": 1446.314536458347,
      "v": 104
    },
    {
      "midi": 61,
      "hit": false,
      "t": 124607.40917708367,
      "d": 1426.282479166679,
      "v": 115
    },
    {
      "midi": 67,
      "hit": false,
      "t": 124615.42200000034,
      "d": 1426.282479166679,
      "v": 123
    },
    {
      "midi": 52,
      "hit": false,
      "t": 125000.03750000034,
      "d": 1037.6605677083426,
      "v": 101
    },
    {
      "midi": 48,
      "hit": false,
      "t": 126153.88400000035,
      "d": 2596.1546250000247,
      "v": 111
    },
    {
      "midi": 58,
      "hit": false,
      "t": 126326.1596927087,
      "d": 833.3335833333549,
      "v": 108
    },
    {
      "midi": 60,
      "hit": false,
      "t": 126518.4674427087,
      "d": 1089.7439166666736,
      "v": 105
    },
    {
      "midi": 63,
      "hit": false,
      "t": 126710.77519270871,
      "d": 224.35904166667024,
      "v": 100
    },
    {
      "midi": 70,
      "hit": false,
      "t": 126955.16629166705,
      "d": 857.3720520833303,
      "v": 117
    },
    {
      "midi": 58,
      "hit": false,
      "t": 127319.74973437538,
      "d": 785.2566458333313,
      "v": 101
    },
    {
      "midi": 60,
      "hit": false,
      "t": 127716.38446875037,
      "d": 260.41674479166977,
      "v": 95
    },
    {
      "midi": 63,
      "hit": false,
      "t": 128088.98073437538,
      "d": 420.6732031249994,
      "v": 121
    },
    {
      "midi": 60,
      "hit": false,
      "t": 128088.98073437538,
      "d": 512.8206666666665,
      "v": 115
    },
    {
      "midi": 58,
      "hit": false,
      "t": 128429.5257083337,
      "d": 140.22440104167617,
      "v": 117
    },
    {
      "midi": 69,
      "hit": false,
      "t": 128826.16044270871,
      "d": 3092.9496458333306,
      "v": 127
    },
    {
      "midi": 60,
      "hit": false,
      "t": 128826.16044270871,
      "d": 3100.9624687500036,
      "v": 122
    },
    {
      "midi": 41,
      "hit": false,
      "t": 129214.78235416705,
      "d": 1121.7952083333366,
      "v": 126
    },
    {
      "midi": 53,
      "hit": false,
      "t": 130368.62885416705,
      "d": 749.1989427083317,
      "v": 119
    },
    {
      "midi": 48,
      "hit": false,
      "t": 131157.89191145872,
      "d": 769.2309999999998,
      "v": 114
    },
    {
      "midi": 34,
      "hit": false,
      "t": 132307.7320000004,
      "d": 773.2374114583363,
      "v": 102
    },
    {
      "midi": 58,
      "hit": false,
      "t": 132307.7320000004,
      "d": 825.3207604166819,
      "v": 114
    },
    {
      "midi": 69,
      "hit": false,
      "t": 132307.7320000004,
      "d": 1157.8529114583798,
      "v": 122
    },
    {
      "midi": 46,
      "hit": false,
      "t": 133068.95017708372,
      "d": 400.6411458333896,
      "v": 99
    },
    {
      "midi": 58,
      "hit": false,
      "t": 133261.25792708376,
      "d": 408.6539687500044,
      "v": 96
    },
    {
      "midi": 62,
      "hit": false,
      "t": 133461.57850000044,
      "d": 364.58344270833186,
      "v": 105
    },
    {
      "midi": 46,
      "hit": false,
      "t": 133637.8606041671,
      "d": 420.67320312498487,
      "v": 104
    },
    {
      "midi": 58,
      "hit": false,
      "t": 133826.16194270877,
      "d": 240.3846874999872,
      "v": 97
    },
    {
      "midi": 62,
      "hit": false,
      "t": 134038.50175000043,
      "d": 332.53215104163974,
      "v": 109
    },
    {
      "midi": 46,
      "hit": false,
      "t": 134234.81591145875,
      "d": 408.6539687499753,
      "v": 102
    },
    {
      "midi": 58,
      "hit": false,
      "t": 134391.06595833373,
      "d": 216.3462187499972,
      "v": 100
    },
    {
      "midi": 69,
      "hit": false,
      "t": 134595.3929427087,
      "d": 376.6026770833414,
      "v": 125
    },
    {
      "midi": 46,
      "hit": false,
      "t": 134767.66863541707,
      "d": 576.9232499999634,
      "v": 92
    },
    {
      "midi": 62,
      "hit": false,
      "t": 135000.04050000038,
      "d": 132.2115781249886,
      "v": 95
    },
    {
      "midi": 58,
      "hit": false,
      "t": 135160.2969583337,
      "d": 172.27569270832464,
      "v": 94
    },
    {
      "midi": 70,
      "hit": false,
      "t": 135396.67523437538,
      "d": 1137.8208541666681,
      "v": 119
    },
    {
      "midi": 62,
      "hit": false,
      "t": 135416.70729166703,
      "d": 889.4233437500079,
      "v": 99
    },
    {
      "midi": 55,
      "hit": false,
      "t": 136145.8741770837,
      "d": 737.1797083333659,
      "v": 111
    },
    {
      "midi": 62,
      "hit": false,
      "t": 136538.50250000038,
      "d": 344.5513854166784,
      "v": 107
    },
    {
      "midi": 69,
      "hit": false,
      "t": 136915.10517708372,
      "d": 705.1284166666737,
      "v": 119
    },
    {
      "midi": 45,
      "hit": false,
      "t": 136923.1180000004,
      "d": 1506.4107083333365,
      "v": 108
    },
    {
      "midi": 57,
      "hit": false,
      "t": 137275.68220833372,
      "d": 1165.8657343750237,
      "v": 113
    },
    {
      "midi": 61,
      "hit": false,
      "t": 137632.2528281254,
      "d": 785.2566458333167,
      "v": 106
    },
    {
      "midi": 64,
      "hit": false,
      "t": 138028.8875625004,
      "d": 396.6347343749949,
      "v": 110
    },
    {
      "midi": 50,
      "hit": false,
      "t": 138465.58641145873,
      "d": 1390.2247760416649,
      "v": 120
    },
    {
      "midi": 57,
      "hit": false,
      "t": 138830.16985416706,
      "d": 817.3079375000088,
      "v": 113
    },
    {
      "midi": 62,
      "hit": false,
      "t": 139202.76611979207,
      "d": 400.6411458333314,
      "v": 125
    },
    {
      "midi": 65,
      "hit": false,
      "t": 139595.39444270873,
      "d": 268.4295677083428,
      "v": 116
    },
    {
      "midi": 62,
      "hit": false,
      "t": 139887.86247916706,
      "d": 961.538750000007,
      "v": 104
    },
    {
      "midi": 57,
      "hit": false,
      "t": 139903.8881250004,
      "d": 685.0963593750203,
      "v": 101
    },
    {
      "midi": 65,
      "hit": false,
      "t": 139951.9650625004,
      "d": 1133.8144427083316,
      "v": 104
    },
    {
      "midi": 74,
      "hit": false,
      "t": 140036.09970312542,
      "d": 793.2694687499898,
      "v": 111
    },
    {
      "midi": 57,
      "hit": false,
      "t": 140721.1960625004,
      "d": 773.2374114583363,
      "v": 127
    },
    {
      "midi": 62,
      "hit": false,
      "t": 141121.83720833375,
      "d": 480.7693750000035,
      "v": 117
    },
    {
      "midi": 48,
      "hit": false,
      "t": 141518.47194270874,
      "d": 2331.7314687499893,
      "v": 109
    },
    {
      "midi": 57,
      "hit": false,
      "t": 141915.10667708374,
      "d": 2171.475010416674,
      "v": 119
    },
    {
      "midi": 62,
      "hit": false,
      "t": 142287.70294270874,
      "d": 420.67320312498487,
      "v": 120
    },
    {
      "midi": 65,
      "hit": false,
      "t": 142676.32485416706,
      "d": 384.61550000001444,
      "v": 116
    },
    {
      "midi": 74,
      "hit": false,
      "t": 143048.92111979207,
      "d": 384.61550000001444,
      "v": 117
    },
    {
      "midi": 69,
      "hit": false,
      "t": 143441.54944270875,
      "d": 364.58344270833186,
      "v": 109
    },
    {
      "midi": 65,
      "hit": false,
      "t": 143826.16494270874,
      "d": 384.61550000001444,
      "v": 117
    },
    {
      "midi": 62,
      "hit": false,
      "t": 144222.79967708376,
      "d": 388.62191145832185,
      "v": 109
    },
    {
      "midi": 65,
      "hit": false,
      "t": 144615.42800000042,
      "d": 1530.4491770833265,
      "v": 117
    },
    {
      "midi": 59,
      "hit": false,
      "t": 144615.42800000042,
      "d": 1554.4876458333165,
      "v": 120
    },
    {
      "midi": 47,
      "hit": false,
      "t": 144615.42800000042,
      "d": 1570.5132916666626,
      "v": 98
    },
    {
      "midi": 40,
      "hit": false,
      "t": 146185.94129166708,
      "d": 1486.378651041683,
      "v": 108
    },
    {
      "midi": 64,
      "hit": false,
      "t": 146189.94770312542,
      "d": 1458.3337708333565,
      "v": 116
    },
    {
      "midi": 56,
      "hit": false,
      "t": 146197.9605260421,
      "d": 1446.314536458347,
      "v": 110
    },
    {
      "midi": 58,
      "hit": false,
      "t": 147692.35200000042,
      "d": 548.878369791666,
      "v": 110
    },
    {
      "midi": 67,
      "hit": false,
      "t": 147692.35200000042,
      "d": 717.1476510416542,
      "v": 120
    },
    {
      "midi": 55,
      "hit": false,
      "t": 148068.95467708376,
      "d": 1153.846499999985,
      "v": 109
    },
    {
      "midi": 58,
      "hit": false,
      "t": 148433.53811979207,
      "d": 344.5513854166784,
      "v": 107
    },
    {
      "midi": 62,
      "hit": false,
      "t": 148826.16644270875,
      "d": 396.6347343749949,
      "v": 112
    },
    {
      "midi": 45,
      "hit": false,
      "t": 149230.81400000042,
      "d": 364.58344270833186,
      "v": 100
    },
    {
      "midi": 61,
      "hit": false,
      "t": 149242.83323437543,
      "d": 813.3015260416723,
      "v": 108
    },
    {
      "midi": 52,
      "hit": false,
      "t": 149607.41667708376,
      "d": 368.5898541666684,
      "v": 102
    },
    {
      "midi": 57,
      "hit": false,
      "t": 149992.03217708378,
      "d": 677.0835364583181,
      "v": 108
    },
    {
      "midi": 50,
      "hit": false,
      "t": 150769.27600000042,
      "d": 2920.6739531249914,
      "v": 123
    },
    {
      "midi": 57,
      "hit": false,
      "t": 151157.89791145874,
      "d": 344.5513854166784,
      "v": 109
    },
    {
      "midi": 62,
      "hit": false,
      "t": 151538.50700000042,
      "d": 2099.359604166675,
      "v": 106
    },
    {
      "midi": 65,
      "hit": false,
      "t": 151915.10967708376,
      "d": 1742.7889843749872,
      "v": 103
    },
    {
      "midi": 74,
      "hit": false,
      "t": 152291.7123541671,
      "d": 1370.1927187499823,
      "v": 101
    },
    {
      "midi": 50,
      "hit": false,
      "t": 153830.17435416707,
      "d": 2852.564958333358,
      "v": 114
    },
    {
      "midi": 57,
      "hit": false,
      "t": 154266.8732031254,
      "d": 1089.7439166666882,
      "v": 111
    },
    {
      "midi": 62,
      "hit": false,
      "t": 154647.48229166708,
      "d": 2043.2698437500221,
      "v": 102
    },
    {
      "midi": 65,
      "hit": false,
      "t": 155012.0657343754,
      "d": 1658.6543437500077,
      "v": 114
    },
    {
      "midi": 74,
      "hit": false,
      "t": 155376.64917708375,
      "d": 1286.0580781250028,
      "v": 103
    },
    {
      "midi": 46,
      "hit": false,
      "t": 156923.12400000045,
      "d": 3024.8406510416244,
      "v": 110
    },
    {
      "midi": 53,
      "hit": false,
      "t": 157131.45739583377,
      "d": 2824.520078124973,
      "v": 106
    },
    {
      "midi": 58,
      "hit": false,
      "t": 157311.74591145877,
      "d": 544.8719583333295,
      "v": 99
    },
    {
      "midi": 61,
      "hit": false,
      "t": 157484.0216041671,
      "d": 576.9232499999925,
      "v": 108
    },
    {
      "midi": 65,
      "hit": false,
      "t": 157684.34217708377,
      "d": 480.7693749999744,
      "v": 103
    },
    {
      "midi": 68,
      "hit": false,
      "t": 157852.61145833376,
      "d": 320.5129166666593,
      "v": 99
    },
    {
      "midi": 58,
      "hit": false,
      "t": 158036.9063854171,
      "d": 965.5451614583144,
      "v": 104
    },
    {
      "midi": 61,
      "hit": false,
      "t": 158237.22695833375,
      "d": 1057.692624999996,
      "v": 100
    },
    {
      "midi": 65,
      "hit": false,
      "t": 158421.52188541708,
      "d": 1185.8977916666772,
      "v": 71
    },
    {
      "midi": 73,
      "hit": false,
      "t": 158429.53470833375,
      "d": 993.59004166667,
      "v": 107
    },
    {
      "midi": 58,
      "hit": false,
      "t": 159198.76570833375,
      "d": 761.2181770833267,
      "v": 98
    },
    {
      "midi": 61,
      "hit": false,
      "t": 159631.45814583375,
      "d": 324.5193281249958,
      "v": 112
    },
    {
      "midi": 61,
      "hit": false,
      "t": 160000.04800000042,
      "d": 1410.2568333333184,
      "v": 109
    },
    {
      "midi": 70,
      "hit": false,
      "t": 160000.04800000042,
      "d": 1478.365828124981,
      "v": 115
    },
    {
      "midi": 42,
      "hit": false,
      "t": 160000.04800000042,
      "d": 3076.923999999999,
      "v": 101
    },
    {
      "midi": 54,
      "hit": false,
      "t": 161121.84320833374,
      "d": 741.1861197916733,
      "v": 92
    },
    {
      "midi": 61,
      "hit": false,
      "t": 161478.4138281254,
      "d": 304.48727083334234,
      "v": 93
    },
    {
      "midi": 65,
      "hit": false,
      "t": 161863.0293281254,
      "d": 396.6347343749949,
      "v": 117
    },
    {
      "midi": 61,
      "hit": false,
      "t": 162267.67688541708,
      "d": 785.2566458333458,
      "v": 105
    },
    {
      "midi": 40,
      "hit": false,
      "t": 163101.0104687504,
      "d": 2980.77012500001,
      "v": 106
    },
    {
      "midi": 62,
      "hit": false,
      "t": 163109.02329166708,
      "d": 2996.795770833356,
      "v": 117
    },
    {
      "midi": 55,
      "hit": false,
      "t": 163109.02329166708,
      "d": 3004.808593750029,
      "v": 116
    },
    {
      "midi": 61,
      "hit": false,
      "t": 166093.79982812543,
      "d": 1638.6222864583833,
      "v": 106
    },
    {
      "midi": 45,
      "hit": false,
      "t": 166113.8318854171,
      "d": 1073.718270833342,
      "v": 98
    },
    {
      "midi": 57,
      "hit": false,
      "t": 166121.84470833378,
      "d": 1538.4620000000286,
      "v": 114
    },
    {
      "midi": 45,
      "hit": false,
      "t": 167351.81302604213,
      "d": 945.5131041666609,
      "v": 101
    },
    {
      "midi": 57,
      "hit": false,
      "t": 167756.4605833338,
      "d": 1394.2311875000014,
      "v": 120
    },
    {
      "midi": 61,
      "hit": false,
      "t": 168113.03120312546,
      "d": 1029.6477447916695,
      "v": 109
    },
    {
      "midi": 45,
      "hit": false,
      "t": 168485.62746875046,
      "d": 673.0771250000107,
      "v": 103
    },
    {
      "midi": 50,
      "hit": false,
      "t": 169230.82000000047,
      "d": 2928.6867760416644,
      "v": 116
    },
    {
      "midi": 57,
      "hit": false,
      "t": 169583.3842083338,
      "d": 1746.7953958333528,
      "v": 114
    },
    {
      "midi": 62,
      "hit": false,
      "t": 169959.98688541714,
      "d": 1862.9813281250244,
      "v": 114
    },
    {
      "midi": 69,
      "hit": false,
      "t": 170364.6344427088,
      "d": 1690.7056354166707,
      "v": 116
    },
    {
      "midi": 57,
      "hit": false,
      "t": 171554.53864583382,
      "d": 773.2374114583363,
      "v": 94
    },
    {
      "midi": 62,
      "hit": false,
      "t": 171923.1285000005,
      "d": 472.75655208333046,
      "v": 86
    },
    {
      "midi": 50,
      "hit": false,
      "t": 172307.74400000047,
      "d": 2532.0520416666986,
      "v": 105
    },
    {
      "midi": 74,
      "hit": false,
      "t": 172311.7504114588,
      "d": 1125.8016197916877,
      "v": 125
    },
    {
      "midi": 57,
      "hit": false,
      "t": 172692.3595000005,
      "d": 913.461812500027,
      "v": 99
    },
    {
      "midi": 62,
      "hit": false,
      "t": 173060.94935416715,
      "d": 1037.6605677083717,
      "v": 105
    },
    {
      "midi": 65,
      "hit": false,
      "t": 173453.57767708384,
      "d": 1510.417119791673,
      "v": 119
    },
    {
      "midi": 57,
      "hit": false,
      "t": 173838.19317708386,
      "d": 544.8719583333295,
      "v": 101
    },
    {
      "midi": 62,
      "hit": false,
      "t": 174202.7766197922,
      "d": 612.9809531249921,
      "v": 95
    },
    {
      "midi": 57,
      "hit": false,
      "t": 174607.42417708386,
      "d": 753.2053541666828,
      "v": 108
    },
    {
      "midi": 62,
      "hit": false,
      "t": 174980.02044270886,
      "d": 204.32698437498766,
      "v": 90
    },
    {
      "midi": 49,
      "hit": false,
      "t": 175344.6038854172,
      "d": 2992.7893593750196,
      "v": 100
    },
    {
      "midi": 61,
      "hit": false,
      "t": 175364.63594270888,
      "d": 2375.801994791662,
      "v": 125
    },
    {
      "midi": 64,
      "hit": false,
      "t": 175749.2514427089,
      "d": 785.2566458333167,
      "v": 103
    },
    {
      "midi": 69,
      "hit": false,
      "t": 176121.8477083339,
      "d": 388.62191145832185,
      "v": 105
    },
    {
      "midi": 73,
      "hit": false,
      "t": 176530.50167708387,
      "d": 1294.0709010416758,
      "v": 113
    },
    {
      "midi": 57,
      "hit": false,
      "t": 177692.36100000053,
      "d": 729.1668854166928,
      "v": 117
    },
    {
      "midi": 61,
      "hit": false,
      "t": 177852.61745833387,
      "d": 216.3462187499972,
      "v": 103
    },
    {
      "midi": 64,
      "hit": false,
      "t": 178048.93161979222,
      "d": 172.27569270832464,
      "v": 97
    },
    {
      "midi": 69,
      "hit": false,
      "t": 178285.30989583387,
      "d": 88.14105208334513,
      "v": 49
    },
    {
      "midi": 73,
      "hit": false,
      "t": 178441.55994270887,
      "d": 801.2822916666919,
      "v": 113
    },
    {
      "midi": 49,
      "hit": false,
      "t": 178441.55994270887,
      "d": 2259.6160625001066,
      "v": 96
    },
    {
      "midi": 61,
      "hit": false,
      "t": 178445.5663541672,
      "d": 496.79502083334955,
      "v": 113
    },
    {
      "midi": 57,
      "hit": false,
      "t": 178830.18185416723,
      "d": 420.67320312501397,
      "v": 100
    },
    {
      "midi": 61,
      "hit": false,
      "t": 179030.5024270839,
      "d": 396.6347343749949,
      "v": 95
    },
    {
      "midi": 64,
      "hit": false,
      "t": 179242.84223437557,
      "d": 368.5898541666684,
      "v": 105
    },
    {
      "midi": 57,
      "hit": false,
      "t": 179423.13075000056,
      "d": 400.6411458333605,
      "v": 101
    },
    {
      "midi": 61,
      "hit": false,
      "t": 179599.41285416723,
      "d": 256.41033333336236,
      "v": 107
    },
    {
      "midi": 69,
      "hit": false,
      "t": 179807.74625000058,
      "d": 492.78860937501304,
      "v": 111
    },
    {
      "midi": 57,
      "hit": false,
      "t": 179992.0411770839,
      "d": 408.6539687500335,
      "v": 105
    },
    {
      "midi": 61,
      "hit": false,
      "t": 180184.34892708392,
      "d": 228.36545312503586,
      "v": 102
    },
    {
      "midi": 64,
      "hit": false,
      "t": 180388.67591145894,
      "d": 384.61550000004354,
      "v": 113
    },
    {
      "midi": 57,
      "hit": false,
      "t": 180576.97725000064,
      "d": 384.61550000001444,
      "v": 113
    },
    {
      "midi": 61,
      "hit": false,
      "t": 180761.27217708397,
      "d": 216.3462187500263,
      "v": 104
    },
    {
      "midi": 64,
      "hit": false,
      "t": 180961.59275000065,
      "d": 228.36545312500675,
      "v": 110
    },
    {
      "midi": 57,
      "hit": false,
      "t": 181125.85561979233,
      "d": 368.5898541666684,
      "v": 114
    },
    {
      "midi": 60,
      "hit": false,
      "t": 181538.51600000067,
      "d": 612.9809531249921,
      "v": 112
    },
    {
      "midi": 67,
      "hit": false,
      "t": 181538.51600000067,
      "d": 785.2566458333167,
      "v": 114
    },
    {
      "midi": 69,
      "hit": false,
      "t": 181538.51600000067,
      "d": 1125.8016197916586,
      "v": 112
    },
    {
      "midi": 36,
      "hit": false,
      "t": 181538.51600000067,
      "d": 2387.8212291666714,
      "v": 103
    },
    {
      "midi": 60,
      "hit": false,
      "t": 182259.67006250066,
      "d": 1093.7503281250247,
      "v": 97
    },
    {
      "midi": 67,
      "hit": false,
      "t": 182676.33685416734,
      "d": 1506.4107083333365,
      "v": 115
    },
    {
      "midi": 60,
      "hit": false,
      "t": 183461.5935000007,
      "d": 1518.429942708346,
      "v": 106
    },
    {
      "midi": 48,
      "hit": false,
      "t": 183858.22823437568,
      "d": 729.1668854166637,
      "v": 96
    },
    {
      "midi": 65,
      "hit": false,
      "t": 184230.8245000007,
      "d": 1137.8208541666681,
      "v": 123
    },
    {
      "midi": 41,
      "hit": false,
      "t": 184599.41435416735,
      "d": 1318.1093697916658,
      "v": 112
    },
    {
      "midi": 48,
      "hit": false,
      "t": 185000.0555000007,
      "d": 336.53856250000536,
      "v": 103
    },
    {
      "midi": 53,
      "hit": false,
      "t": 185376.65817708403,
      "d": 388.62191145832185,
      "v": 113
    },
    {
      "midi": 57,
      "hit": false,
      "t": 185548.93386979235,
      "d": 144.23081249999814,
      "v": 106
    },
    {
      "midi": 60,
      "hit": false,
      "t": 185753.26085416734,
      "d": 344.5513854166784,
      "v": 111
    },
    {
      "midi": 53,
      "hit": false,
      "t": 185921.53013541736,
      "d": 1702.7248697916802,
      "v": 109
    },
    {
      "midi": 57,
      "hit": false,
      "t": 186137.87635416735,
      "d": 785.2566458333458,
      "v": 114
    },
    {
      "midi": 65,
      "hit": false,
      "t": 186137.87635416735,
      "d": 801.2822916666919,
      "v": 117
    },
    {
      "midi": 60,
      "hit": false,
      "t": 186923.1330000007,
      "d": 673.0771250000107,
      "v": 109
    },
    {
      "midi": 58,
      "hit": false,
      "t": 187692.3640000007,
      "d": 608.9745416666556,
      "v": 112
    },
    {
      "midi": 67,
      "hit": false,
      "t": 187692.3640000007,
      "d": 1157.8529114583216,
      "v": 120
    },
    {
      "midi": 46,
      "hit": false,
      "t": 187692.3640000007,
      "d": 2972.757302083337,
      "v": 102
    },
    {
      "midi": 53,
      "hit": false,
      "t": 188048.93461979236,
      "d": 1298.0773124999832,
      "v": 100
    },
    {
      "midi": 58,
      "hit": false,
      "t": 188433.55011979234,
      "d": 1314.1029583333584,
      "v": 98
    },
    {
      "midi": 62,
      "hit": false,
      "t": 188850.21691145902,
      "d": 1923.077500000014,
      "v": 113
    },
    {
      "midi": 53,
      "hit": false,
      "t": 189583.39020833402,
      "d": 528.8463125000126,
      "v": 91
    },
    {
      "midi": 58,
      "hit": false,
      "t": 189927.9415937507,
      "d": 560.8976041666756,
      "v": 92
    },
    {
      "midi": 53,
      "hit": false,
      "t": 190368.64685416737,
      "d": 901.4425781250175,
      "v": 97
    },
    {
      "midi": 46,
      "hit": false,
      "t": 190761.27517708403,
      "d": 801.2822916666919,
      "v": 98
    },
    {
      "midi": 58,
      "hit": false,
      "t": 190769.2880000007,
      "d": 272.4359791666793,
      "v": 97
    },
    {
      "midi": 58,
      "hit": false,
      "t": 191153.9035000007,
      "d": 673.0771250000107,
      "v": 115
    },
    {
      "midi": 65,
      "hit": false,
      "t": 191153.9035000007,
      "d": 785.2566458333458,
      "v": 115
    },
    {
      "midi": 53,
      "hit": false,
      "t": 191522.49335416738,
      "d": 977.564395833353,
      "v": 104
    },
    {
      "midi": 58,
      "hit": false,
      "t": 191923.1345000007,
      "d": 997.5964531250065,
      "v": 100
    },
    {
      "midi": 62,
      "hit": false,
      "t": 192307.75000000073,
      "d": 717.1476510416542,
      "v": 112
    },
    {
      "midi": 53,
      "hit": false,
      "t": 192672.33344270906,
      "d": 1101.7631510416395,
      "v": 107
    },
    {
      "midi": 58,
      "hit": false,
      "t": 193048.93611979237,
      "d": 697.1155937500007,
      "v": 104
    },
    {
      "midi": 70,
      "hit": false,
      "t": 193846.2120000007,
      "d": 769.2309999999998,
      "v": 115
    },
    {
      "midi": 74,
      "hit": false,
      "t": 193846.2120000007,
      "d": 801.2822916666628,
      "v": 113
    },
    {
      "midi": 40,
      "hit": false,
      "t": 193846.2120000007,
      "d": 2371.7955833333544,
      "v": 106
    },
    {
      "midi": 52,
      "hit": false,
      "t": 194190.76338541738,
      "d": 1698.7184583333437,
      "v": 96
    },
    {
      "midi": 67,
      "hit": false,
      "t": 194619.44941145903,
      "d": 300.4808593750058,
      "v": 108
    },
    {
      "midi": 70,
      "hit": false,
      "t": 195004.06491145905,
      "d": 492.78860937501304,
      "v": 117
    },
    {
      "midi": 67,
      "hit": false,
      "t": 195004.06491145905,
      "d": 504.8078437500226,
      "v": 103
    },
    {
      "midi": 70,
      "hit": false,
      "t": 195749.25744270906,
      "d": 665.0643020833377,
      "v": 123
    },
    {
      "midi": 74,
      "hit": false,
      "t": 195753.2638541674,
      "d": 689.1027708333277,
      "v": 120
    },
    {
      "midi": 52,
      "hit": false,
      "t": 196145.89217708405,
      "d": 472.75655208335957,
      "v": 97
    },
    {
      "midi": 69,
      "hit": false,
      "t": 196490.44356250073,
      "d": 845.3528177083645,
      "v": 114
    },
    {
      "midi": 73,
      "hit": false,
      "t": 196506.46920833408,
      "d": 869.3912864583544,
      "v": 107
    },
    {
      "midi": 45,
      "hit": false,
      "t": 196891.0847083341,
      "d": 1530.4491770833556,
      "v": 112
    },
    {
      "midi": 57,
      "hit": false,
      "t": 197307.75150000077,
      "d": 913.4618124999979,
      "v": 112
    },
    {
      "midi": 61,
      "hit": false,
      "t": 197672.3349427091,
      "d": 368.5898541666684,
      "v": 110
    },
    {
      "midi": 64,
      "hit": false,
      "t": 198044.9312083341,
      "d": 400.6411458333314,
      "v": 113
    },
    {
      "midi": 57,
      "hit": false,
      "t": 198441.5659427091,
      "d": 1378.2055416666844,
      "v": 103
    },
    {
      "midi": 61,
      "hit": false,
      "t": 198445.57235416744,
      "d": 1326.1221927083388,
      "v": 108
    },
    {
      "midi": 67,
      "hit": false,
      "t": 198453.5851770841,
      "d": 1314.1029583333293,
      "v": 114
    },
    {
      "midi": 74,
      "hit": false,
      "t": 200000.06000000078,
      "d": 420.67320312498487,
      "v": 127
    },
    {
      "midi": 62,
      "hit": false,
      "t": 200000.06000000078,
      "d": 993.5900416666409,
      "v": 112
    },
    {
      "midi": 50,
      "hit": false,
      "t": 200000.06000000078,
      "d": 2928.6867760416353,
      "v": 114
    },
    {
      "midi": 69,
      "hit": false,
      "t": 200356.63061979244,
      "d": 753.2053541666537,
      "v": 109
    },
    {
      "midi": 57,
      "hit": false,
      "t": 200737.2397083341,
      "d": 1029.6477447916695,
      "v": 117
    },
    {
      "midi": 62,
      "hit": false,
      "t": 201121.8552083341,
      "d": 1025.641333333333,
      "v": 109
    },
    {
      "midi": 65,
      "hit": false,
      "t": 201518.4899427091,
      "d": 1378.2055416666553,
      "v": 123
    },
    {
      "midi": 57,
      "hit": false,
      "t": 201895.09261979244,
      "d": 897.4361666666518,
      "v": 98
    },
    {
      "midi": 62,
      "hit": false,
      "t": 202287.7209427091,
      "d": 512.8206666666665,
      "v": 98
    },
    {
      "midi": 60,
      "hit": false,
      "t": 202832.59290104243,
      "d": 204.32698437501676,
      "v": 36
    },
    {
      "midi": 65,
      "hit": false,
      "t": 202980.83012500076,
      "d": 100.16028645835468,
      "v": 93
    },
    {
      "midi": 62,
      "hit": false,
      "t": 202984.8365364591,
      "d": 721.1540624999907,
      "v": 81
    },
    {
      "midi": 48,
      "hit": false,
      "t": 203048.93911979246,
      "d": 3024.8406510416244,
      "v": 116
    },
    {
      "midi": 74,
      "hit": false,
      "t": 203056.95194270913,
      "d": 1105.769562499947,
      "v": 127
    },
    {
      "midi": 60,
      "hit": false,
      "t": 203429.5482083341,
      "d": 1041.66697916665,
      "v": 102
    },
    {
      "midi": 62,
      "hit": false,
      "t": 203826.1829427091,
      "d": 312.50009374998626,
      "v": 98
    },
    {
      "midi": 62,
      "hit": false,
      "t": 204230.83050000074,
      "d": 641.0258333333477,
      "v": 103
    },
    {
      "midi": 69,
      "hit": false,
      "t": 204234.83691145908,
      "d": 737.1797083333367,
      "v": 127
    },
    {
      "midi": 60,
      "hit": false,
      "t": 204627.46523437576,
      "d": 568.9104270833195,
      "v": 100
    },
    {
      "midi": 65,
      "hit": false,
      "t": 204992.04867708407,
      "d": 1073.718270833342,
      "v": 115
    },
    {
      "midi": 62,
      "hit": false,
      "t": 205000.06150000074,
      "d": 1073.718270833342,
      "v": 107
    },
    {
      "midi": 60,
      "hit": false,
      "t": 205364.64494270907,
      "d": 729.1668854166637,
      "v": 106
    },
    {
      "midi": 47,
      "hit": false,
      "t": 206153.90800000072,
      "d": 1017.62851041666,
      "v": 101
    },
    {
      "midi": 59,
      "hit": false,
      "t": 206153.90800000072,
      "d": 1282.0516666666663,
      "v": 117
    },
    {
      "midi": 57,
      "hit": false,
      "t": 206153.90800000072,
      "d": 1294.0709010416758,
      "v": 115
    },
    {
      "midi": 65,
      "hit": false,
      "t": 206153.90800000072,
      "d": 1550.481234375009,
      "v": 126
    },
    {
      "midi": 47,
      "hit": false,
      "t": 207279.70961979238,
      "d": 400.6411458333605,
      "v": 95
    },
    {
      "midi": 59,
      "hit": false,
      "t": 207708.39564583407,
      "d": 1294.0709010416758,
      "v": 123
    },
    {
      "midi": 64,
      "hit": false,
      "t": 207708.39564583407,
      "d": 1298.0773125000123,
      "v": 115
    },
    {
      "midi": 52,
      "hit": false,
      "t": 207716.40846875074,
      "d": 1314.1029583333293,
      "v": 101
    },
    {
      "midi": 67,
      "hit": false,
      "t": 209230.83200000075,
      "d": 1510.417119791673,
      "v": 122
    },
    {
      "midi": 46,
      "hit": false,
      "t": 209230.83200000075,
      "d": 1538.4619999999995,
      "v": 96
    },
    {
      "midi": 64,
      "hit": false,
      "t": 209230.83200000075,
      "d": 1550.481234375009,
      "v": 123
    },
    {
      "midi": 69,
      "hit": false,
      "t": 210769.29400000075,
      "d": 1402.2440104166744,
      "v": 116
    },
    {
      "midi": 61,
      "hit": false,
      "t": 210773.3004114591,
      "d": 1402.2440104166744,
      "v": 105
    },
    {
      "midi": 45,
      "hit": false,
      "t": 210781.31323437576,
      "d": 1402.2440104166744,
      "v": 101
    },
    {
      "midi": 60,
      "hit": false,
      "t": 212307.75600000078,
      "d": 625.0001875000016,
      "v": 110
    },
    {
      "midi": 70,
      "hit": false,
      "t": 212307.75600000078,
      "d": 1157.8529114583507,
      "v": 123
    },
    {
      "midi": 36,
      "hit": false,
      "t": 212307.75600000078,
      "d": 2387.8212291667005,
      "v": 109
    },
    {
      "midi": 48,
      "hit": false,
      "t": 212672.3394427091,
      "d": 1666.6671666666807,
      "v": 99
    },
    {
      "midi": 60,
      "hit": false,
      "t": 213060.96135416746,
      "d": 1017.62851041666,
      "v": 101
    },
    {
      "midi": 63,
      "hit": false,
      "t": 213461.6025000008,
      "d": 741.1861197916733,
      "v": 113
    },
    {
      "midi": 60,
      "hit": false,
      "t": 214230.8335000008,
      "d": 484.77578645834,
      "v": 116
    },
    {
      "midi": 70,
      "hit": false,
      "t": 214234.83991145913,
      "d": 460.73731770835,
      "v": 125
    },
    {
      "midi": 48,
      "hit": false,
      "t": 214607.43617708414,
      "d": 496.79502083332045,
      "v": 109
    },
    {
      "midi": 69,
      "hit": false,
      "t": 215000.0645000008,
      "d": 1145.833677083312,
      "v": 127
    },
    {
      "midi": 60,
      "hit": false,
      "t": 215000.0645000008,
      "d": 1294.0709010416467,
      "v": 114
    },
    {
      "midi": 41,
      "hit": false,
      "t": 215384.68000000078,
      "d": 2980.770124999981,
      "v": 126
    },
    {
      "midi": 53,
      "hit": false,
      "t": 216121.85970833412,
      "d": 396.6347343749658,
      "v": 115
    },
    {
      "midi": 57,
      "hit": false,
      "t": 216314.1674583341,
      "d": 172.27569270832464,
      "v": 107
    },
    {
      "midi": 60,
      "hit": false,
      "t": 216506.47520833407,
      "d": 304.48727083334234,
      "v": 116
    },
    {
      "midi": 53,
      "hit": false,
      "t": 216678.75090104243,
      "d": 1710.7376927083242,
      "v": 103
    },
    {
      "midi": 65,
      "hit": false,
      "t": 216903.10994270907,
      "d": 785.2566458333458,
      "v": 119
    },
    {
      "midi": 57,
      "hit": false,
      "t": 216907.1163541674,
      "d": 1454.32735937502,
      "v": 120
    },
    {
      "midi": 60,
      "hit": false,
      "t": 217684.36017708408,
      "d": 673.0771250000107,
      "v": 112
    },
    {
      "midi": 69,
      "hit": false,
      "t": 218461.60400000075,
      "d": 2980.77012500001,
      "v": 125
    },
    {
      "midi": 58,
      "hit": false,
      "t": 218461.60400000075,
      "d": 3048.8791197916726,
      "v": 114
    },
    {
      "midi": 46,
      "hit": false,
      "t": 218461.60400000075,
      "d": 3076.924000000028,
      "v": 100
    },
    {
      "midi": 63,
      "hit": false,
      "t": 221522.50235416743,
      "d": 112.17952083333512,
      "v": 108
    },
    {
      "midi": 40,
      "hit": false,
      "t": 221530.5151770841,
      "d": 2876.603427083348,
      "v": 105
    },
    {
      "midi": 67,
      "hit": false,
      "t": 221538.52800000078,
      "d": 2856.5713697916653,
      "v": 116
    },
    {
      "midi": 64,
      "hit": false,
      "t": 221542.5344114591,
      "d": 2868.590604166675,
      "v": 119
    },
    {
      "midi": 62,
      "hit": false,
      "t": 224615.45200000078,
      "d": 645.0322447916551,
      "v": 119
    },
    {
      "midi": 72,
      "hit": false,
      "t": 224615.45200000078,
      "d": 1145.833677083312,
      "v": 125
    },
    {
      "midi": 50,
      "hit": false,
      "t": 224615.45200000078,
      "d": 2780.4495520833007,
      "v": 109
    },
    {
      "midi": 62,
      "hit": false,
      "t": 225352.63170833408,
      "d": 2179.487833333318,
      "v": 90
    },
    {
      "midi": 65,
      "hit": false,
      "t": 225737.2472083341,
      "d": 1810.8979791666497,
      "v": 117
    },
    {
      "midi": 69,
      "hit": false,
      "t": 225741.25361979243,
      "d": 1786.8595104166307,
      "v": 112
    },
    {
      "midi": 65,
      "hit": false,
      "t": 227672.3439427091,
      "d": 769.2310000000289,
      "v": 120
    },
    {
      "midi": 62,
      "hit": false,
      "t": 227676.35035416743,
      "d": 548.8783697916951,
      "v": 108
    },
    {
      "midi": 69,
      "hit": false,
      "t": 227676.35035416743,
      "d": 705.1284166667028,
      "v": 115
    },
    {
      "midi": 48,
      "hit": false,
      "t": 227684.3631770841,
      "d": 2884.61625000005,
      "v": 109
    },
    {
      "midi": 60,
      "hit": false,
      "t": 228060.96585416744,
      "d": 2524.0392187500547,
      "v": 98
    },
    {
      "midi": 62,
      "hit": false,
      "t": 228441.57494270912,
      "d": 408.6539687500044,
      "v": 114
    },
    {
      "midi": 65,
      "hit": false,
      "t": 228826.19044270914,
      "d": 420.67320312501397,
      "v": 117
    },
    {
      "midi": 69,
      "hit": false,
      "t": 229230.8380000008,
      "d": 1330.1286041666754,
      "v": 117
    },
    {
      "midi": 59,
      "hit": false,
      "t": 230769.30000000083,
      "d": 428.6860260416579,
      "v": 115
    },
    {
      "midi": 69,
      "hit": false,
      "t": 230769.30000000083,
      "d": 528.8463124999835,
      "v": 126
    },
    {
      "midi": 35,
      "hit": false,
      "t": 230769.30000000083,
      "d": 845.3528177083062,
      "v": 108
    },
    {
      "midi": 47,
      "hit": false,
      "t": 231125.8706197925,
      "d": 673.0771250000107,
      "v": 113
    },
    {
      "midi": 59,
      "hit": false,
      "t": 231330.19760416748,
      "d": 216.3462187499972,
      "v": 114
    },
    {
      "midi": 65,
      "hit": false,
      "t": 231522.5053541675,
      "d": 176.28210416666116,
      "v": 110
    },
    {
      "midi": 69,
      "hit": false,
      "t": 231714.8131041675,
      "d": 120.19234375000815,
      "v": 109
    },
    {
      "midi": 40,
      "hit": false,
      "t": 231907.1208541675,
      "d": 1850.962093750044,
      "v": 112
    },
    {
      "midi": 68,
      "hit": false,
      "t": 231923.14650000085,
      "d": 1810.8979791666789,
      "v": 113
    },
    {
      "midi": 64,
      "hit": false,
      "t": 231923.14650000085,
      "d": 1818.9108020833519,
      "v": 116
    },
    {
      "midi": 52,
      "hit": false,
      "t": 233076.99300000086,
      "d": 705.1284166666737,
      "v": 109
    },
    {
      "midi": 50,
      "hit": false,
      "t": 238337.41124479254,
      "d": 2772.4367291666567,
      "v": 104
    },
    {
      "midi": 57,
      "hit": false,
      "t": 238401.51382812587,
      "d": 2728.366203124984,
      "v": 105
    },
    {
      "midi": 62,
      "hit": false,
      "t": 238465.6164114592,
      "d": 2664.263619791658,
      "v": 105
    },
    {
      "midi": 65,
      "hit": false,
      "t": 238537.7318177092,
      "d": 2596.1546249999956,
      "v": 106
    },
    {
      "midi": 46,
      "hit": false,
      "t": 241414.3352447925,
      "d": 3076.923999999999,
      "v": 105
    },
    {
      "midi": 53,
      "hit": false,
      "t": 241478.43782812584,
      "d": 2948.718833333318,
      "v": 106
    },
    {
      "midi": 60,
      "hit": false,
      "t": 241506.48270833417,
      "d": 2980.77012500001,
      "v": 106
    },
    {
      "midi": 62,
      "hit": false,
      "t": 241538.53400000083,
      "d": 2888.6226614583284,
      "v": 107
    },
    {
      "midi": 65,
      "hit": false,
      "t": 241586.61093750084,
      "d": 2852.564958333329,
      "v": 108
    },
    {
      "midi": 69,
      "hit": false,
      "t": 244743.6631666675,
      "d": 6217.950583333353,
      "v": 114
    },
    {
      "midi": 65,
      "hit": false,
      "t": 244779.7208697925,
      "d": 6185.89929166669,
      "v": 114
    },
    {
      "midi": 64,
      "hit": false,
      "t": 244843.82345312583,
      "d": 6121.796708333364,
      "v": 114
    },
    {
      "midi": 62,
      "hit": false,
      "t": 244927.95809375084,
      "d": 6037.662067708356,
      "v": 114
    },
    {
      "midi": 38,
      "hit": false,
      "t": 244980.0414427092,
      "d": 5977.565895833337,
      "v": 114
    }
  ]
}