{
  "jsonPath": "Rap/German Hip Hop/Rapsoul/erste-liebe-first-time.json",
  "path": "Rap\\German Hip Hop\\Rapsoul\\Erste Liebe (First Time).mid",
  "name": "Erste Liebe (First Time)",
  "difficulty": "Advanced",
  "bpm": 99.000099000099,
  "notes": [
    {
      "midi": 45,
      "hit": false,
      "t": 3428.568,
      "d": 1196.4273750000002,
      "v": 95
    },
    {
      "midi": 64,
      "hit": false,
      "t": 3428.568,
      "d": 1205.3559375000004,
      "v": 104
    },
    {
      "midi": 57,
      "hit": false,
      "t": 3861.6032812500002,
      "d": 736.6064062500004,
      "v": 97
    },
    {
      "midi": 60,
      "hit": false,
      "t": 4281.24571875,
      "d": 392.8567499999999,
      "v": 96
    },
    {
      "midi": 53,
      "hit": false,
      "t": 4705.352437500001,
      "d": 1709.8197187499982,
      "v": 75
    },
    {
      "midi": 41,
      "hit": false,
      "t": 4709.81671875,
      "d": 852.6777187499993,
      "v": 95
    },
    {
      "midi": 57,
      "hit": false,
      "t": 4709.81671875,
      "d": 852.6777187499993,
      "v": 81
    },
    {
      "midi": 60,
      "hit": false,
      "t": 4714.281,
      "d": 852.6777187499993,
      "v": 75
    },
    {
      "midi": 65,
      "hit": false,
      "t": 4718.74528125,
      "d": 1691.9625937499995,
      "v": 105
    },
    {
      "midi": 57,
      "hit": false,
      "t": 5571.422999999999,
      "d": 816.9634687500002,
      "v": 92
    },
    {
      "midi": 60,
      "hit": false,
      "t": 5999.993999999999,
      "d": 397.3210312500005,
      "v": 93
    },
    {
      "midi": 55,
      "hit": false,
      "t": 6415.172156249999,
      "d": 3732.1391249999997,
      "v": 85
    },
    {
      "midi": 67,
      "hit": false,
      "t": 6419.6364374999985,
      "d": 1584.8198437500005,
      "v": 98
    },
    {
      "midi": 60,
      "hit": false,
      "t": 6428.564999999999,
      "d": 1803.569625,
      "v": 72
    },
    {
      "midi": 62,
      "hit": false,
      "t": 6437.493562499999,
      "d": 1861.6052812499993,
      "v": 102
    },
    {
      "midi": 43,
      "hit": false,
      "t": 6437.493562499999,
      "d": 3821.424749999999,
      "v": 95
    },
    {
      "midi": 67,
      "hit": false,
      "t": 8169.634687499999,
      "d": 241.0711874999988,
      "v": 82
    },
    {
      "midi": 62,
      "hit": false,
      "t": 8299.098843749998,
      "d": 236.60690625000097,
      "v": 93
    },
    {
      "midi": 60,
      "hit": false,
      "t": 8459.812968749999,
      "d": 209.8212187499994,
      "v": 98
    },
    {
      "midi": 59,
      "hit": false,
      "t": 8558.027156249998,
      "d": 857.1419999999998,
      "v": 107
    },
    {
      "midi": 67,
      "hit": false,
      "t": 8571.419999999998,
      "d": 870.5348437499997,
      "v": 66
    },
    {
      "midi": 60,
      "hit": false,
      "t": 9419.633437499999,
      "d": 464.285249999999,
      "v": 97
    },
    {
      "midi": 62,
      "hit": false,
      "t": 9852.668718749997,
      "d": 450.89240625000093,
      "v": 93
    },
    {
      "midi": 64,
      "hit": false,
      "t": 10285.703999999998,
      "d": 1205.3559374999986,
      "v": 110
    },
    {
      "midi": 45,
      "hit": false,
      "t": 10290.168281249998,
      "d": 1205.3559374999986,
      "v": 95
    },
    {
      "midi": 57,
      "hit": false,
      "t": 10714.274999999998,
      "d": 736.606406249999,
      "v": 97
    },
    {
      "midi": 60,
      "hit": false,
      "t": 11151.774562499997,
      "d": 392.85675000000083,
      "v": 96
    },
    {
      "midi": 41,
      "hit": false,
      "t": 11562.488437499998,
      "d": 852.6777187500011,
      "v": 95
    },
    {
      "midi": 57,
      "hit": false,
      "t": 11571.416999999998,
      "d": 843.7491562500018,
      "v": 81
    },
    {
      "midi": 65,
      "hit": false,
      "t": 11575.881281249998,
      "d": 1691.9625937500005,
      "v": 105
    },
    {
      "midi": 60,
      "hit": false,
      "t": 11580.345562499999,
      "d": 852.6777187500011,
      "v": 75
    },
    {
      "midi": 53,
      "hit": false,
      "t": 11584.80984375,
      "d": 1709.819718750001,
      "v": 75
    },
    {
      "midi": 57,
      "hit": false,
      "t": 12415.16615625,
      "d": 816.9634687500002,
      "v": 92
    },
    {
      "midi": 60,
      "hit": false,
      "t": 12848.2014375,
      "d": 397.3210312499996,
      "v": 93
    },
    {
      "midi": 60,
      "hit": false,
      "t": 13281.236718749999,
      "d": 1803.569625000002,
      "v": 72
    },
    {
      "midi": 62,
      "hit": false,
      "t": 13281.236718749999,
      "d": 1870.5338437500013,
      "v": 102
    },
    {
      "midi": 67,
      "hit": false,
      "t": 13285.701,
      "d": 1584.8198437500014,
      "v": 98
    },
    {
      "midi": 55,
      "hit": false,
      "t": 13290.16528125,
      "d": 3732.139124999998,
      "v": 85
    },
    {
      "midi": 43,
      "hit": false,
      "t": 13290.16528125,
      "d": 3821.4247499999983,
      "v": 95
    },
    {
      "midi": 67,
      "hit": false,
      "t": 15017.842125000001,
      "d": 241.0711874999979,
      "v": 82
    },
    {
      "midi": 62,
      "hit": false,
      "t": 15160.699125,
      "d": 236.60690625000097,
      "v": 93
    },
    {
      "midi": 60,
      "hit": false,
      "t": 15308.02040625,
      "d": 209.8212187499994,
      "v": 98
    },
    {
      "midi": 59,
      "hit": false,
      "t": 15419.6274375,
      "d": 857.1419999999998,
      "v": 107
    },
    {
      "midi": 67,
      "hit": false,
      "t": 15433.02028125,
      "d": 870.5348437499997,
      "v": 66
    },
    {
      "midi": 60,
      "hit": false,
      "t": 16285.697999999999,
      "d": 464.285249999999,
      "v": 98
    },
    {
      "midi": 62,
      "hit": false,
      "t": 16709.804718749998,
      "d": 450.89240625000093,
      "v": 97
    },
    {
      "midi": 41,
      "hit": false,
      "t": 17133.9114375,
      "d": 1281.2487187499974,
      "v": 96
    },
    {
      "midi": 57,
      "hit": false,
      "t": 17138.375718749998,
      "d": 1267.855875000001,
      "v": 90
    },
    {
      "midi": 53,
      "hit": false,
      "t": 17151.768562499998,
      "d": 1258.9273125,
      "v": 90
    },
    {
      "midi": 60,
      "hit": false,
      "t": 17151.768562499998,
      "d": 1258.9273125,
      "v": 106
    },
    {
      "midi": 67,
      "hit": false,
      "t": 18406.23159375,
      "d": 1191.963093749997,
      "v": 100
    },
    {
      "midi": 57,
      "hit": false,
      "t": 18410.695874999998,
      "d": 8.928562499997497,
      "v": 97
    },
    {
      "midi": 53,
      "hit": false,
      "t": 18415.160156249996,
      "d": 17.857124999998632,
      "v": 97
    },
    {
      "midi": 60,
      "hit": false,
      "t": 18415.160156249996,
      "d": 17.857124999998632,
      "v": 98
    },
    {
      "midi": 67,
      "hit": false,
      "t": 19691.944593749995,
      "d": 839.2848750000012,
      "v": 103
    },
    {
      "midi": 57,
      "hit": false,
      "t": 19696.408874999994,
      "d": 781.2492187500029,
      "v": 100
    },
    {
      "midi": 60,
      "hit": false,
      "t": 19696.408874999994,
      "d": 808.0349062500027,
      "v": 100
    },
    {
      "midi": 53,
      "hit": false,
      "t": 19705.337437499995,
      "d": 781.2492187500029,
      "v": 100
    },
    {
      "midi": 67,
      "hit": false,
      "t": 20598.193687499996,
      "d": 1223.2130624999954,
      "v": 109
    },
    {
      "midi": 55,
      "hit": false,
      "t": 20602.657968749994,
      "d": 3343.746656249994,
      "v": 104
    },
    {
      "midi": 62,
      "hit": false,
      "t": 20602.657968749994,
      "d": 3370.5323437499937,
      "v": 104
    },
    {
      "midi": 59,
      "hit": false,
      "t": 20607.122249999993,
      "d": 3308.0324062499967,
      "v": 97
    },
    {
      "midi": 43,
      "hit": false,
      "t": 20611.586531249992,
      "d": 3357.1394999999975,
      "v": 93
    },
    {
      "midi": 67,
      "hit": false,
      "t": 21883.90668749999,
      "d": 2062.4979374999966,
      "v": 91
    },
    {
      "midi": 74,
      "hit": false,
      "t": 22089.263624999992,
      "d": 1901.7838124999944,
      "v": 93
    },
    {
      "midi": 79,
      "hit": false,
      "t": 22290.15628124999,
      "d": 1696.4268749999974,
      "v": 102
    },
    {
      "midi": 64,
      "hit": false,
      "t": 23999.975999999988,
      "d": 1205.3559375000004,
      "v": 110
    },
    {
      "midi": 60,
      "hit": false,
      "t": 24004.440281249987,
      "d": 848.2134375000023,
      "v": 95
    },
    {
      "midi": 45,
      "hit": false,
      "t": 24004.440281249987,
      "d": 1205.3559375000004,
      "v": 95
    },
    {
      "midi": 57,
      "hit": false,
      "t": 24428.546999999988,
      "d": 736.6064062500009,
      "v": 97
    },
    {
      "midi": 60,
      "hit": false,
      "t": 24866.04656249999,
      "d": 343.7496562499982,
      "v": 96
    },
    {
      "midi": 41,
      "hit": false,
      "t": 25276.760437499986,
      "d": 852.6777187499974,
      "v": 95
    },
    {
      "midi": 57,
      "hit": false,
      "t": 25285.688999999988,
      "d": 843.7491562499963,
      "v": 81
    },
    {
      "midi": 65,
      "hit": false,
      "t": 25290.153281249986,
      "d": 1691.9625937499986,
      "v": 105
    },
    {
      "midi": 60,
      "hit": false,
      "t": 25294.617562499985,
      "d": 852.6777187499974,
      "v": 75
    },
    {
      "midi": 53,
      "hit": false,
      "t": 25299.081843749984,
      "d": 1709.8197187499973,
      "v": 75
    },
    {
      "midi": 57,
      "hit": false,
      "t": 26129.438156249984,
      "d": 816.9634687500002,
      "v": 92
    },
    {
      "midi": 60,
      "hit": false,
      "t": 26562.473437499983,
      "d": 397.3210312500014,
      "v": 93
    },
    {
      "midi": 60,
      "hit": false,
      "t": 26995.508718749985,
      "d": 1803.5696249999928,
      "v": 86
    },
    {
      "midi": 62,
      "hit": false,
      "t": 26995.508718749985,
      "d": 1870.5338437499922,
      "v": 104
    },
    {
      "midi": 67,
      "hit": false,
      "t": 26999.972999999984,
      "d": 1584.819843749996,
      "v": 110
    },
    {
      "midi": 55,
      "hit": false,
      "t": 27004.437281249982,
      "d": 3732.1391250000015,
      "v": 96
    },
    {
      "midi": 43,
      "hit": false,
      "t": 27004.437281249982,
      "d": 3821.424750000002,
      "v": 101
    },
    {
      "midi": 67,
      "hit": false,
      "t": 28732.11412499998,
      "d": 241.07118750000154,
      "v": 82
    },
    {
      "midi": 62,
      "hit": false,
      "t": 28874.97112499998,
      "d": 236.6069062500028,
      "v": 93
    },
    {
      "midi": 60,
      "hit": false,
      "t": 29022.29240624998,
      "d": 209.82121875000303,
      "v": 98
    },
    {
      "midi": 59,
      "hit": false,
      "t": 29133.899437499982,
      "d": 857.1419999999998,
      "v": 107
    },
    {
      "midi": 67,
      "hit": false,
      "t": 29147.292281249982,
      "d": 1683.0340312500011,
      "v": 72
    },
    {
      "midi": 57,
      "hit": false,
      "t": 29999.969999999983,
      "d": 843.7491562499999,
      "v": 86
    },
    {
      "midi": 45,
      "hit": false,
      "t": 30857.111999999983,
      "d": 1196.4273749999957,
      "v": 80
    },
    {
      "midi": 64,
      "hit": false,
      "t": 30857.111999999983,
      "d": 1205.3559374999968,
      "v": 89
    },
    {
      "midi": 57,
      "hit": false,
      "t": 31290.14728124998,
      "d": 736.6064062499972,
      "v": 82
    },
    {
      "midi": 60,
      "hit": false,
      "t": 31709.78971874998,
      "d": 392.856749999999,
      "v": 81
    },
    {
      "midi": 53,
      "hit": false,
      "t": 32133.896437499978,
      "d": 1709.8197187500045,
      "v": 60
    },
    {
      "midi": 41,
      "hit": false,
      "t": 32138.360718749977,
      "d": 852.6777187500011,
      "v": 80
    },
    {
      "midi": 57,
      "hit": false,
      "t": 32138.360718749977,
      "d": 852.6777187500011,
      "v": 66
    },
    {
      "midi": 60,
      "hit": false,
      "t": 32142.824999999975,
      "d": 852.6777187500047,
      "v": 60
    },
    {
      "midi": 65,
      "hit": false,
      "t": 32147.289281249974,
      "d": 1691.962593750006,
      "v": 90
    },
    {
      "midi": 57,
      "hit": false,
      "t": 32999.96699999998,
      "d": 816.9634687500002,
      "v": 77
    },
    {
      "midi": 60,
      "hit": false,
      "t": 33428.537999999986,
      "d": 397.3210312499941,
      "v": 78
    },
    {
      "midi": 55,
      "hit": false,
      "t": 33843.71615624998,
      "d": 3732.1391249999942,
      "v": 70
    },
    {
      "midi": 67,
      "hit": false,
      "t": 33848.180437499985,
      "d": 1584.819843749996,
      "v": 87
    },
    {
      "midi": 60,
      "hit": false,
      "t": 33857.10899999998,
      "d": 1803.5696249999964,
      "v": 57
    },
    {
      "midi": 62,
      "hit": false,
      "t": 33866.03756249998,
      "d": 1861.6052812499984,
      "v": 78
    },
    {
      "midi": 43,
      "hit": false,
      "t": 33866.03756249998,
      "d": 3821.4247499999983,
      "v": 80
    },
    {
      "midi": 67,
      "hit": false,
      "t": 35598.17868749998,
      "d": 241.0711874999979,
      "v": 67
    },
    {
      "midi": 62,
      "hit": false,
      "t": 35727.64284374998,
      "d": 236.60690624999552,
      "v": 78
    },
    {
      "midi": 60,
      "hit": false,
      "t": 35888.35696874998,
      "d": 209.82121874999575,
      "v": 83
    },
    {
      "midi": 59,
      "hit": false,
      "t": 35986.57115624997,
      "d": 857.1419999999998,
      "v": 92
    },
    {
      "midi": 67,
      "hit": false,
      "t": 35999.96399999997,
      "d": 870.5348437499997,
      "v": 51
    },
    {
      "midi": 60,
      "hit": false,
      "t": 36848.17743749997,
      "d": 464.2852500000008,
      "v": 82
    },
    {
      "midi": 62,
      "hit": false,
      "t": 37281.21271874997,
      "d": 450.8924062500082,
      "v": 78
    },
    {
      "midi": 64,
      "hit": false,
      "t": 37714.24799999998,
      "d": 1205.355937500004,
      "v": 95
    },
    {
      "midi": 45,
      "hit": false,
      "t": 37718.71228124998,
      "d": 1205.355937500004,
      "v": 80
    },
    {
      "midi": 57,
      "hit": false,
      "t": 38142.81899999998,
      "d": 736.6064062500009,
      "v": 82
    },
    {
      "midi": 60,
      "hit": false,
      "t": 38580.31856249998,
      "d": 392.856749999999,
      "v": 81
    },
    {
      "midi": 41,
      "hit": false,
      "t": 38991.032437499984,
      "d": 852.6777187500047,
      "v": 80
    },
    {
      "midi": 57,
      "hit": false,
      "t": 38999.96099999998,
      "d": 843.7491562500072,
      "v": 66
    },
    {
      "midi": 65,
      "hit": false,
      "t": 39004.42528124998,
      "d": 1691.9625937500095,
      "v": 90
    },
    {
      "midi": 60,
      "hit": false,
      "t": 39008.889562499986,
      "d": 852.6777187500047,
      "v": 60
    },
    {
      "midi": 53,
      "hit": false,
      "t": 39013.35384374999,
      "d": 1709.8197187500118,
      "v": 60
    },
    {
      "midi": 57,
      "hit": false,
      "t": 39843.71015624999,
      "d": 816.9634687500075,
      "v": 77
    },
    {
      "midi": 60,
      "hit": false,
      "t": 40276.745437499994,
      "d": 397.3210312500014,
      "v": 78
    },
    {
      "midi": 60,
      "hit": false,
      "t": 40709.78071874999,
      "d": 1803.5696250000037,
      "v": 57
    },
    {
      "midi": 62,
      "hit": false,
      "t": 40709.78071874999,
      "d": 1870.5338437500031,
      "v": 87
    },
    {
      "midi": 67,
      "hit": false,
      "t": 40714.244999999995,
      "d": 1584.8198437500032,
      "v": 83
    },
    {
      "midi": 55,
      "hit": false,
      "t": 40718.70928125,
      "d": 3732.139124999987,
      "v": 70
    },
    {
      "midi": 43,
      "hit": false,
      "t": 40718.70928125,
      "d": 3821.4247499999838,
      "v": 80
    },
    {
      "midi": 67,
      "hit": false,
      "t": 42446.386125,
      "d": 241.0711874999979,
      "v": 67
    },
    {
      "midi": 62,
      "hit": false,
      "t": 42589.24312499999,
      "d": 236.60690624999552,
      "v": 78
    },
    {
      "midi": 60,
      "hit": false,
      "t": 42736.56440624999,
      "d": 209.82121874999575,
      "v": 83
    },
    {
      "midi": 59,
      "hit": false,
      "t": 42848.17143749999,
      "d": 1714.2839999999924,
      "v": 92
    },
    {
      "midi": 67,
      "hit": false,
      "t": 42861.56428124999,
      "d": 1705.3554374999949,
      "v": 51
    },
    {
      "midi": 60,
      "hit": false,
      "t": 44566.91971874998,
      "d": 803.5706250000076,
      "v": 92
    },
    {
      "midi": 62,
      "hit": false,
      "t": 44566.91971874998,
      "d": 803.5706250000076,
      "v": 92
    },
    {
      "midi": 67,
      "hit": false,
      "t": 44571.383999999984,
      "d": 803.5706250000076,
      "v": 112
    },
    {
      "midi": 55,
      "hit": false,
      "t": 44575.848281249986,
      "d": 803.5706250000076,
      "v": 108
    },
    {
      "midi": 43,
      "hit": false,
      "t": 44575.848281249986,
      "d": 1660.712625000022,
      "v": 108
    },
    {
      "midi": 59,
      "hit": false,
      "t": 45424.061718749996,
      "d": 803.5706250000076,
      "v": 112
    },
    {
      "midi": 62,
      "hit": false,
      "t": 45424.061718749996,
      "d": 803.5706250000076,
      "v": 113
    },
    {
      "midi": 67,
      "hit": false,
      "t": 45428.526,
      "d": 803.5706250000076,
      "v": 113
    },
    {
      "midi": 55,
      "hit": false,
      "t": 45432.99028125,
      "d": 803.5706250000076,
      "v": 113
    },
    {
      "midi": 53,
      "hit": false,
      "t": 46285.668000000005,
      "d": 1031.2489687499983,
      "v": 100
    },
    {
      "midi": 57,
      "hit": false,
      "t": 46285.668000000005,
      "d": 1040.1775312499958,
      "v": 105
    },
    {
      "midi": 60,
      "hit": false,
      "t": 46285.668000000005,
      "d": 1075.891781249993,
      "v": 102
    },
    {
      "midi": 60,
      "hit": false,
      "t": 47571.381,
      "d": 1812.4981875000012,
      "v": 103
    },
    {
      "midi": 57,
      "hit": false,
      "t": 47571.381,
      "d": 1874.9981249999983,
      "v": 102
    },
    {
      "midi": 64,
      "hit": false,
      "t": 47575.84528125,
      "d": 1861.6052812499984,
      "v": 105
    },
    {
      "midi": 59,
      "hit": false,
      "t": 49709.77171875,
      "d": 991.0704375000059,
      "v": 100
    },
    {
      "midi": 62,
      "hit": false,
      "t": 49709.77171875,
      "d": 1031.2489687500056,
      "v": 93
    },
    {
      "midi": 55,
      "hit": false,
      "t": 49714.236000000004,
      "d": 982.1418750000012,
      "v": 102
    },
    {
      "midi": 62,
      "hit": false,
      "t": 50982.091875000006,
      "d": 2004.462281250002,
      "v": 98
    },
    {
      "midi": 59,
      "hit": false,
      "t": 50986.55615625001,
      "d": 2004.462281250002,
      "v": 105
    },
    {
      "midi": 67,
      "hit": false,
      "t": 50986.55615625001,
      "d": 2004.462281250002,
      "v": 102
    },
    {
      "midi": 57,
      "hit": false,
      "t": 53124.94687500001,
      "d": 1053.570375000003,
      "v": 100
    },
    {
      "midi": 60,
      "hit": false,
      "t": 53124.94687500001,
      "d": 1080.3560625000027,
      "v": 96
    },
    {
      "midi": 53,
      "hit": false,
      "t": 53129.41115625001,
      "d": 1017.8561249999984,
      "v": 100
    },
    {
      "midi": 57,
      "hit": false,
      "t": 54406.19559375001,
      "d": 1683.0340312499975,
      "v": 100
    },
    {
      "midi": 60,
      "hit": false,
      "t": 54406.19559375001,
      "d": 1696.4268749999974,
      "v": 96
    },
    {
      "midi": 64,
      "hit": false,
      "t": 54410.65987500001,
      "d": 1642.8554999999978,
      "v": 100
    },
    {
      "midi": 57,
      "hit": false,
      "t": 56557.97915625001,
      "d": 723.213562500001,
      "v": 107
    },
    {
      "midi": 62,
      "hit": false,
      "t": 56557.97915625001,
      "d": 732.1421249999985,
      "v": 96
    },
    {
      "midi": 53,
      "hit": false,
      "t": 56562.44343750001,
      "d": 1075.891781249993,
      "v": 107
    },
    {
      "midi": 67,
      "hit": false,
      "t": 56571.37200000001,
      "d": 424.10671875000116,
      "v": 97
    },
    {
      "midi": 65,
      "hit": false,
      "t": 56999.943000000014,
      "d": 312.49968749999243,
      "v": 97
    },
    {
      "midi": 57,
      "hit": false,
      "t": 57401.7283125,
      "d": 299.1068437499998,
      "v": 82
    },
    {
      "midi": 64,
      "hit": false,
      "t": 57406.192593750005,
      "d": 272.32115625000006,
      "v": 88
    },
    {
      "midi": 59,
      "hit": false,
      "t": 57843.69215625001,
      "d": 1254.4630312500012,
      "v": 107
    },
    {
      "midi": 62,
      "hit": false,
      "t": 57843.69215625001,
      "d": 1258.9273125000036,
      "v": 109
    },
    {
      "midi": 67,
      "hit": false,
      "t": 57843.69215625001,
      "d": 1276.7844375000059,
      "v": 100
    },
    {
      "midi": 62,
      "hit": false,
      "t": 59129.40515625001,
      "d": 732.1421250000058,
      "v": 107
    },
    {
      "midi": 67,
      "hit": false,
      "t": 59129.40515625001,
      "d": 732.1421250000058,
      "v": 96
    },
    {
      "midi": 59,
      "hit": false,
      "t": 59133.86943750001,
      "d": 732.1421250000058,
      "v": 107
    },
    {
      "midi": 60,
      "hit": false,
      "t": 60008.86856250002,
      "d": 874.9991250000021,
      "v": 105
    },
    {
      "midi": 67,
      "hit": false,
      "t": 60013.332843750024,
      "d": 1075.8917812500003,
      "v": 105
    },
    {
      "midi": 64,
      "hit": false,
      "t": 60013.332843750024,
      "d": 1142.8559999999998,
      "v": 108
    },
    {
      "midi": 65,
      "hit": false,
      "t": 61272.26015625002,
      "d": 892.8562500000044,
      "v": 106
    },
    {
      "midi": 69,
      "hit": false,
      "t": 61272.26015625002,
      "d": 1227.6773437500015,
      "v": 108
    },
    {
      "midi": 60,
      "hit": false,
      "t": 61276.72443750002,
      "d": 571.4279999999999,
      "v": 108
    },
    {
      "midi": 60,
      "hit": false,
      "t": 62107.08075000002,
      "d": 946.4276249999966,
      "v": 106
    },
    {
      "midi": 65,
      "hit": false,
      "t": 62557.973156250024,
      "d": 486.6066562499982,
      "v": 106
    },
    {
      "midi": 69,
      "hit": false,
      "t": 62982.079875000025,
      "d": 334.8210937499971,
      "v": 105
    },
    {
      "midi": 69,
      "hit": false,
      "t": 63397.25803125002,
      "d": 1071.427499999998,
      "v": 108
    },
    {
      "midi": 66,
      "hit": false,
      "t": 63397.25803125002,
      "d": 1116.0703125,
      "v": 106
    },
    {
      "midi": 60,
      "hit": false,
      "t": 63397.25803125002,
      "d": 1124.9988749999975,
      "v": 98
    },
    {
      "midi": 62,
      "hit": false,
      "t": 64696.36387500002,
      "d": 535.7137500000026,
      "v": 94
    },
    {
      "midi": 71,
      "hit": false,
      "t": 64700.82815625002,
      "d": 1022.3204062500008,
      "v": 110
    },
    {
      "midi": 67,
      "hit": false,
      "t": 64700.82815625002,
      "d": 1066.9632187499956,
      "v": 108
    },
    {
      "midi": 62,
      "hit": false,
      "t": 65557.97015625003,
      "d": 544.6423124999856,
      "v": 99
    },
    {
      "midi": 67,
      "hit": false,
      "t": 65982.07687500001,
      "d": 455.35668749999604,
      "v": 105
    },
    {
      "midi": 69,
      "hit": false,
      "t": 66401.71931250002,
      "d": 977.6775937499915,
      "v": 105
    },
    {
      "midi": 64,
      "hit": false,
      "t": 66406.18359375001,
      "d": 691.9635937499988,
      "v": 108
    },
    {
      "midi": 72,
      "hit": false,
      "t": 66406.18359375001,
      "d": 1580.3555625000008,
      "v": 103
    },
    {
      "midi": 64,
      "hit": false,
      "t": 67263.32559375,
      "d": 589.2851250000094,
      "v": 103
    },
    {
      "midi": 69,
      "hit": false,
      "t": 67691.89659375002,
      "d": 334.8210937499971,
      "v": 99
    },
    {
      "midi": 60,
      "hit": false,
      "t": 68120.46759375001,
      "d": 696.427874999994,
      "v": 106
    },
    {
      "midi": 65,
      "hit": false,
      "t": 68120.46759375001,
      "d": 696.427874999994,
      "v": 106
    },
    {
      "midi": 69,
      "hit": false,
      "t": 68120.46759375001,
      "d": 1294.6415624999936,
      "v": 106
    },
    {
      "midi": 72,
      "hit": false,
      "t": 68120.46759375001,
      "d": 1544.6413124999963,
      "v": 105
    },
    {
      "midi": 65,
      "hit": false,
      "t": 68999.93100000001,
      "d": 495.5352187499957,
      "v": 103
    },
    {
      "midi": 69,
      "hit": false,
      "t": 69432.96628125,
      "d": 397.3210312500014,
      "v": 103
    },
    {
      "midi": 69,
      "hit": false,
      "t": 69839.21587500001,
      "d": 2107.1407499999914,
      "v": 106
    },
    {
      "midi": 72,
      "hit": false,
      "t": 69839.21587500001,
      "d": 2107.1407499999914,
      "v": 106
    },
    {
      "midi": 62,
      "hit": false,
      "t": 69843.68015625,
      "d": 1209.8202187499992,
      "v": 98
    },
    {
      "midi": 65,
      "hit": false,
      "t": 69843.68015625,
      "d": 1464.284249999997,
      "v": 101
    },
    {
      "midi": 62,
      "hit": false,
      "t": 71156.17884375,
      "d": 410.71387499998673,
      "v": 95
    },
    {
      "midi": 65,
      "hit": false,
      "t": 71566.89271875,
      "d": 459.8209687500057,
      "v": 87
    },
    {
      "midi": 62,
      "hit": false,
      "t": 71999.928,
      "d": 1665.1769062499952,
      "v": 99
    },
    {
      "midi": 67,
      "hit": false,
      "t": 71999.928,
      "d": 1665.1769062499952,
      "v": 108
    },
    {
      "midi": 74,
      "hit": false,
      "t": 71999.928,
      "d": 1665.1769062499952,
      "v": 105
    },
    {
      "midi": 62,
      "hit": false,
      "t": 73714.212,
      "d": 1665.1769062499952,
      "v": 79
    },
    {
      "midi": 67,
      "hit": false,
      "t": 73714.212,
      "d": 1665.1769062499952,
      "v": 79
    },
    {
      "midi": 72,
      "hit": false,
      "t": 73714.212,
      "d": 1665.1769062499952,
      "v": 79
    },
    {
      "midi": 45,
      "hit": false,
      "t": 75428.496,
      "d": 1196.4273750000139,
      "v": 97
    },
    {
      "midi": 64,
      "hit": false,
      "t": 75428.496,
      "d": 1205.3559375000186,
      "v": 106
    },
    {
      "midi": 57,
      "hit": false,
      "t": 75861.53128125,
      "d": 736.6064062500081,
      "v": 99
    },
    {
      "midi": 60,
      "hit": false,
      "t": 76281.17371875001,
      "d": 392.8567500000063,
      "v": 98
    },
    {
      "midi": 53,
      "hit": false,
      "t": 76705.28043750001,
      "d": 1709.8197187499754,
      "v": 77
    },
    {
      "midi": 41,
      "hit": false,
      "t": 76709.74471875001,
      "d": 852.6777187499974,
      "v": 97
    },
    {
      "midi": 57,
      "hit": false,
      "t": 76709.74471875001,
      "d": 852.6777187499974,
      "v": 83
    },
    {
      "midi": 60,
      "hit": false,
      "t": 76714.209,
      "d": 852.6777187499974,
      "v": 77
    },
    {
      "midi": 65,
      "hit": false,
      "t": 76718.67328125,
      "d": 1691.962593749995,
      "v": 107
    },
    {
      "midi": 57,
      "hit": false,
      "t": 77571.351,
      "d": 816.9634687499929,
      "v": 94
    },
    {
      "midi": 60,
      "hit": false,
      "t": 77999.92199999999,
      "d": 397.3210312500014,
      "v": 95
    },
    {
      "midi": 55,
      "hit": false,
      "t": 78415.10015624999,
      "d": 3732.1391250000015,
      "v": 87
    },
    {
      "midi": 67,
      "hit": false,
      "t": 78419.56443749998,
      "d": 1584.8198437500105,
      "v": 100
    },
    {
      "midi": 60,
      "hit": false,
      "t": 78428.49299999999,
      "d": 1803.5696250000037,
      "v": 74
    },
    {
      "midi": 62,
      "hit": false,
      "t": 78437.42156249999,
      "d": 1861.6052812499984,
      "v": 104
    },
    {
      "midi": 43,
      "hit": false,
      "t": 78437.42156249999,
      "d": 3821.424749999991,
      "v": 97
    },
    {
      "midi": 67,
      "hit": false,
      "t": 80169.56268749999,
      "d": 241.0711874999979,
      "v": 84
    },
    {
      "midi": 62,
      "hit": false,
      "t": 80299.02684374999,
      "d": 236.6069062500028,
      "v": 95
    },
    {
      "midi": 60,
      "hit": false,
      "t": 80459.74096874999,
      "d": 209.82121875000303,
      "v": 100
    },
    {
      "midi": 59,
      "hit": false,
      "t": 80557.95515625,
      "d": 857.1419999999925,
      "v": 109
    },
    {
      "midi": 67,
      "hit": false,
      "t": 80571.348,
      "d": 870.5348437499924,
      "v": 68
    },
    {
      "midi": 60,
      "hit": false,
      "t": 81419.56143749999,
      "d": 464.2852500000008,
      "v": 99
    },
    {
      "midi": 62,
      "hit": false,
      "t": 81852.59671874999,
      "d": 450.8924062499864,
      "v": 95
    },
    {
      "midi": 64,
      "hit": false,
      "t": 82285.63199999998,
      "d": 1205.355937500004,
      "v": 112
    },
    {
      "midi": 45,
      "hit": false,
      "t": 82290.09628124998,
      "d": 1205.355937500004,
      "v": 97
    },
    {
      "midi": 57,
      "hit": false,
      "t": 82714.20299999998,
      "d": 736.6064062500081,
      "v": 99
    },
    {
      "midi": 60,
      "hit": false,
      "t": 83151.70256249998,
      "d": 392.8567500000063,
      "v": 98
    },
    {
      "midi": 41,
      "hit": false,
      "t": 83562.41643749998,
      "d": 852.6777187499974,
      "v": 97
    },
    {
      "midi": 57,
      "hit": false,
      "t": 83571.34499999999,
      "d": 843.7491562499927,
      "v": 83
    },
    {
      "midi": 65,
      "hit": false,
      "t": 83575.80928124998,
      "d": 1691.962593749995,
      "v": 107
    },
    {
      "midi": 60,
      "hit": false,
      "t": 83580.27356249998,
      "d": 852.6777187499974,
      "v": 77
    },
    {
      "midi": 53,
      "hit": false,
      "t": 83584.73784374997,
      "d": 1709.81971874999,
      "v": 77
    },
    {
      "midi": 57,
      "hit": false,
      "t": 84415.09415624998,
      "d": 816.9634687499929,
      "v": 94
    },
    {
      "midi": 60,
      "hit": false,
      "t": 84848.12943749997,
      "d": 397.3210312500014,
      "v": 95
    },
    {
      "midi": 60,
      "hit": false,
      "t": 85281.16471874998,
      "d": 1803.5696249999892,
      "v": 74
    },
    {
      "midi": 62,
      "hit": false,
      "t": 85281.16471874998,
      "d": 1870.5338437499886,
      "v": 104
    },
    {
      "midi": 67,
      "hit": false,
      "t": 85285.62899999997,
      "d": 1584.819843749996,
      "v": 100
    },
    {
      "midi": 55,
      "hit": false,
      "t": 85290.09328124997,
      "d": 3732.1391250000015,
      "v": 87
    },
    {
      "midi": 43,
      "hit": false,
      "t": 85290.09328124997,
      "d": 3821.4247500000056,
      "v": 97
    },
    {
      "midi": 67,
      "hit": false,
      "t": 87026.69868749997,
      "d": 1249.9987499999988,
      "v": 93
    },
    {
      "midi": 74,
      "hit": false,
      "t": 87232.05562499996,
      "d": 616.0708124999946,
      "v": 95
    },
    {
      "midi": 59,
      "hit": false,
      "t": 87424.01971874996,
      "d": 1709.8197187500045,
      "v": 74
    },
    {
      "midi": 79,
      "hit": false,
      "t": 87432.94828124996,
      "d": 1696.4268750000047,
      "v": 104
    },
    {
      "midi": 74,
      "hit": false,
      "t": 87857.05499999996,
      "d": 1272.3201562500035,
      "v": 84
    },
    {
      "midi": 67,
      "hit": false,
      "t": 88285.62599999997,
      "d": 803.570624999993,
      "v": 75
    },
    {
      "midi": 45,
      "hit": false,
      "t": 89142.76799999997,
      "d": 1196.4273750000139,
      "v": 82
    },
    {
      "midi": 64,
      "hit": false,
      "t": 89142.76799999997,
      "d": 1205.3559375000186,
      "v": 91
    },
    {
      "midi": 57,
      "hit": false,
      "t": 89575.80328124997,
      "d": 736.6064062500081,
      "v": 84
    },
    {
      "midi": 60,
      "hit": false,
      "t": 89995.44571874998,
      "d": 392.8567500000063,
      "v": 83
    },
    {
      "midi": 53,
      "hit": false,
      "t": 90419.55243749998,
      "d": 1709.8197187499754,
      "v": 62
    },
    {
      "midi": 41,
      "hit": false,
      "t": 90424.01671874998,
      "d": 852.6777187499974,
      "v": 82
    },
    {
      "midi": 57,
      "hit": false,
      "t": 90424.01671874998,
      "d": 852.6777187499974,
      "v": 68
    },
    {
      "midi": 60,
      "hit": false,
      "t": 90428.48099999997,
      "d": 852.6777187499974,
      "v": 62
    },
    {
      "midi": 65,
      "hit": false,
      "t": 90432.94528124997,
      "d": 1691.962593749995,
      "v": 92
    },
    {
      "midi": 57,
      "hit": false,
      "t": 91285.62299999996,
      "d": 816.9634687499929,
      "v": 79
    },
    {
      "midi": 60,
      "hit": false,
      "t": 91714.19399999996,
      "d": 397.3210312500014,
      "v": 80
    },
    {
      "midi": 55,
      "hit": false,
      "t": 92129.37215624996,
      "d": 3732.1391250000015,
      "v": 72
    },
    {
      "midi": 67,
      "hit": false,
      "t": 92133.83643749995,
      "d": 1584.8198437500105,
      "v": 89
    },
    {
      "midi": 60,
      "hit": false,
      "t": 92142.76499999996,
      "d": 1803.5696250000037,
      "v": 59
    },
    {
      "midi": 62,
      "hit": false,
      "t": 92151.69356249996,
      "d": 1861.6052812499984,
      "v": 80
    },
    {
      "midi": 43,
      "hit": false,
      "t": 92151.69356249996,
      "d": 3821.424749999991,
      "v": 82
    },
    {
      "midi": 67,
      "hit": false,
      "t": 93883.83468749996,
      "d": 241.0711874999979,
      "v": 69
    },
    {
      "midi": 62,
      "hit": false,
      "t": 94013.29884374996,
      "d": 236.6069062500028,
      "v": 80
    },
    {
      "midi": 60,
      "hit": false,
      "t": 94174.01296874996,
      "d": 209.82121875000303,
      "v": 85
    },
    {
      "midi": 59,
      "hit": false,
      "t": 94272.22715624997,
      "d": 857.1419999999925,
      "v": 94
    },
    {
      "midi": 67,
      "hit": false,
      "t": 94285.61999999997,
      "d": 870.5348437499924,
      "v": 53
    },
    {
      "midi": 60,
      "hit": false,
      "t": 95133.83343749995,
      "d": 464.2852500000008,
      "v": 84
    },
    {
      "midi": 62,
      "hit": false,
      "t": 95566.86871874996,
      "d": 450.8924062499864,
      "v": 80
    },
    {
      "midi": 64,
      "hit": false,
      "t": 95999.90399999995,
      "d": 1205.355937500004,
      "v": 97
    },
    {
      "midi": 45,
      "hit": false,
      "t": 96004.36828124995,
      "d": 1205.355937500004,
      "v": 82
    },
    {
      "midi": 57,
      "hit": false,
      "t": 96428.47499999995,
      "d": 736.6064062500081,
      "v": 84
    },
    {
      "midi": 60,
      "hit": false,
      "t": 96865.97456249995,
      "d": 392.8567500000063,
      "v": 83
    },
    {
      "midi": 41,
      "hit": false,
      "t": 97276.68843749995,
      "d": 852.6777187499974,
      "v": 82
    },
    {
      "midi": 57,
      "hit": false,
      "t": 97285.61699999995,
      "d": 843.7491562499927,
      "v": 68
    },
    {
      "midi": 65,
      "hit": false,
      "t": 97290.08128124995,
      "d": 1691.962593749995,
      "v": 92
    },
    {
      "midi": 60,
      "hit": false,
      "t": 97294.54556249994,
      "d": 852.6777187499974,
      "v": 62
    },
    {
      "midi": 53,
      "hit": false,
      "t": 97299.00984374994,
      "d": 1709.81971874999,
      "v": 62
    },
    {
      "midi": 57,
      "hit": false,
      "t": 98129.36615624995,
      "d": 816.9634687499929,
      "v": 79
    },
    {
      "midi": 60,
      "hit": false,
      "t": 98562.40143749994,
      "d": 397.3210312500014,
      "v": 80
    },
    {
      "midi": 60,
      "hit": false,
      "t": 98995.43671874994,
      "d": 1803.5696249999892,
      "v": 59
    },
    {
      "midi": 62,
      "hit": false,
      "t": 98995.43671874994,
      "d": 1870.5338437499886,
      "v": 89
    },
    {
      "midi": 67,
      "hit": false,
      "t": 98999.90099999994,
      "d": 1584.819843749996,
      "v": 85
    },
    {
      "midi": 55,
      "hit": false,
      "t": 99004.36528124993,
      "d": 3732.1391250000015,
      "v": 72
    },
    {
      "midi": 43,
      "hit": false,
      "t": 99004.36528124993,
      "d": 3821.4247500000056,
      "v": 82
    },
    {
      "midi": 67,
      "hit": false,
      "t": 100732.04212499993,
      "d": 241.0711874999979,
      "v": 69
    },
    {
      "midi": 62,
      "hit": false,
      "t": 100874.89912499994,
      "d": 236.6069062500028,
      "v": 80
    },
    {
      "midi": 60,
      "hit": false,
      "t": 101022.22040624994,
      "d": 209.82121875000303,
      "v": 85
    },
    {
      "midi": 59,
      "hit": false,
      "t": 101133.82743749995,
      "d": 1714.2839999999997,
      "v": 94
    },
    {
      "midi": 67,
      "hit": false,
      "t": 101147.22028124995,
      "d": 1705.3554374999949,
      "v": 53
    },
    {
      "midi": 60,
      "hit": false,
      "t": 102852.57571874994,
      "d": 803.570624999993,
      "v": 94
    },
    {
      "midi": 62,
      "hit": false,
      "t": 102852.57571874994,
      "d": 803.570624999993,
      "v": 94
    },
    {
      "midi": 67,
      "hit": false,
      "t": 102857.03999999994,
      "d": 803.570624999993,
      "v": 123
    },
    {
      "midi": 55,
      "hit": false,
      "t": 102861.50428124993,
      "d": 803.570624999993,
      "v": 117
    },
    {
      "midi": 43,
      "hit": false,
      "t": 102861.50428124993,
      "d": 1660.712624999971,
      "v": 119
    },
    {
      "midi": 59,
      "hit": false,
      "t": 103709.71771874992,
      "d": 803.570624999993,
      "v": 117
    },
    {
      "midi": 62,
      "hit": false,
      "t": 103709.71771874992,
      "d": 803.570624999993,
      "v": 115
    },
    {
      "midi": 67,
      "hit": false,
      "t": 103714.18199999991,
      "d": 803.570624999993,
      "v": 115
    },
    {
      "midi": 55,
      "hit": false,
      "t": 103718.64628124991,
      "d": 803.570624999993,
      "v": 115
    },
    {
      "midi": 53,
      "hit": false,
      "t": 104571.3239999999,
      "d": 1031.2489687500056,
      "v": 102
    },
    {
      "midi": 57,
      "hit": false,
      "t": 104571.3239999999,
      "d": 1040.1775312500104,
      "v": 107
    },
    {
      "midi": 60,
      "hit": false,
      "t": 104571.3239999999,
      "d": 1075.891781250015,
      "v": 104
    },
    {
      "midi": 60,
      "hit": false,
      "t": 105857.03699999992,
      "d": 1812.498187499994,
      "v": 105
    },
    {
      "midi": 57,
      "hit": false,
      "t": 105857.03699999992,
      "d": 1874.9981249999983,
      "v": 104
    },
    {
      "midi": 64,
      "hit": false,
      "t": 105861.50128124992,
      "d": 1861.6052812499984,
      "v": 107
    },
    {
      "midi": 59,
      "hit": false,
      "t": 107995.42771874992,
      "d": 991.0704374999914,
      "v": 102
    },
    {
      "midi": 62,
      "hit": false,
      "t": 107995.42771874992,
      "d": 1031.248968749991,
      "v": 95
    },
    {
      "midi": 55,
      "hit": false,
      "t": 107999.89199999992,
      "d": 982.1418750000012,
      "v": 104
    },
    {
      "midi": 62,
      "hit": false,
      "t": 109267.74787499991,
      "d": 2004.462281250002,
      "v": 100
    },
    {
      "midi": 59,
      "hit": false,
      "t": 109272.21215624991,
      "d": 2004.462281250002,
      "v": 107
    },
    {
      "midi": 67,
      "hit": false,
      "t": 109272.21215624991,
      "d": 2004.462281250002,
      "v": 104
    },
    {
      "midi": 57,
      "hit": false,
      "t": 111410.60287499991,
      "d": 1053.5703749999957,
      "v": 102
    },
    {
      "midi": 60,
      "hit": false,
      "t": 111410.60287499991,
      "d": 1080.3560624999955,
      "v": 98
    },
    {
      "midi": 53,
      "hit": false,
      "t": 111415.0671562499,
      "d": 1017.8561250000057,
      "v": 102
    },
    {
      "midi": 57,
      "hit": false,
      "t": 112691.8515937499,
      "d": 1683.0340312500048,
      "v": 102
    },
    {
      "midi": 60,
      "hit": false,
      "t": 112691.8515937499,
      "d": 1696.4268750000047,
      "v": 98
    },
    {
      "midi": 64,
      "hit": false,
      "t": 112696.3158749999,
      "d": 1642.8555000000051,
      "v": 102
    },
    {
      "midi": 57,
      "hit": false,
      "t": 114843.6351562499,
      "d": 723.2135624999937,
      "v": 109
    },
    {
      "midi": 62,
      "hit": false,
      "t": 114843.6351562499,
      "d": 732.1421249999985,
      "v": 98
    },
    {
      "midi": 53,
      "hit": false,
      "t": 114848.0994374999,
      "d": 1075.8917812500003,
      "v": 109
    },
    {
      "midi": 67,
      "hit": false,
      "t": 114857.0279999999,
      "d": 424.10671875000116,
      "v": 99
    },
    {
      "midi": 65,
      "hit": false,
      "t": 115285.5989999999,
      "d": 312.499687500007,
      "v": 99
    },
    {
      "midi": 57,
      "hit": false,
      "t": 115687.38431249991,
      "d": 299.10684374999255,
      "v": 84
    },
    {
      "midi": 64,
      "hit": false,
      "t": 115691.8485937499,
      "d": 272.3211562499928,
      "v": 90
    },
    {
      "midi": 59,
      "hit": false,
      "t": 116129.34815624991,
      "d": 1254.463031249994,
      "v": 109
    },
    {
      "midi": 62,
      "hit": false,
      "t": 116129.34815624991,
      "d": 1258.927312499989,
      "v": 111
    },
    {
      "midi": 67,
      "hit": false,
      "t": 116129.34815624991,
      "d": 1276.784437499984,
      "v": 102
    },
    {
      "midi": 62,
      "hit": false,
      "t": 117415.0611562499,
      "d": 732.1421249999985,
      "v": 109
    },
    {
      "midi": 67,
      "hit": false,
      "t": 117415.0611562499,
      "d": 732.1421249999985,
      "v": 98
    },
    {
      "midi": 59,
      "hit": false,
      "t": 117419.52543749989,
      "d": 732.1421249999985,
      "v": 109
    },
    {
      "midi": 60,
      "hit": false,
      "t": 118294.5245624999,
      "d": 874.9991250000021,
      "v": 107
    },
    {
      "midi": 67,
      "hit": false,
      "t": 118298.98884374989,
      "d": 1075.8917812500003,
      "v": 107
    },
    {
      "midi": 64,
      "hit": false,
      "t": 118298.98884374989,
      "d": 1142.8559999999998,
      "v": 110
    },
    {
      "midi": 65,
      "hit": false,
      "t": 119557.91615624989,
      "d": 892.8562499999825,
      "v": 108
    },
    {
      "midi": 69,
      "hit": false,
      "t": 119557.91615624989,
      "d": 1227.6773437499796,
      "v": 110
    },
    {
      "midi": 60,
      "hit": false,
      "t": 119562.38043749989,
      "d": 571.4279999999999,
      "v": 110
    },
    {
      "midi": 60,
      "hit": false,
      "t": 120392.73674999988,
      "d": 946.4276249999966,
      "v": 108
    },
    {
      "midi": 65,
      "hit": false,
      "t": 120843.62915624987,
      "d": 486.60665625000547,
      "v": 108
    },
    {
      "midi": 69,
      "hit": false,
      "t": 121267.73587499987,
      "d": 334.82109375001164,
      "v": 107
    },
    {
      "midi": 69,
      "hit": false,
      "t": 121682.91403124988,
      "d": 1071.4275000000052,
      "v": 110
    },
    {
      "midi": 66,
      "hit": false,
      "t": 121682.91403124988,
      "d": 1116.0703125,
      "v": 108
    },
    {
      "midi": 60,
      "hit": false,
      "t": 121682.91403124988,
      "d": 1124.9988750000048,
      "v": 100
    },
    {
      "midi": 62,
      "hit": false,
      "t": 122982.01987499988,
      "d": 535.7137499999953,
      "v": 96
    },
    {
      "midi": 71,
      "hit": false,
      "t": 122986.48415624988,
      "d": 1022.3204062500008,
      "v": 112
    },
    {
      "midi": 67,
      "hit": false,
      "t": 122986.48415624988,
      "d": 1066.9632187499956,
      "v": 110
    },
    {
      "midi": 62,
      "hit": false,
      "t": 123843.62615624988,
      "d": 544.6423124999856,
      "v": 101
    },
    {
      "midi": 67,
      "hit": false,
      "t": 124267.73287499987,
      "d": 455.35668749999604,
      "v": 107
    },
    {
      "midi": 69,
      "hit": false,
      "t": 124687.37531249988,
      "d": 977.6775937499915,
      "v": 107
    },
    {
      "midi": 64,
      "hit": false,
      "t": 124691.83959374987,
      "d": 691.9635937499988,
      "v": 110
    },
    {
      "midi": 72,
      "hit": false,
      "t": 124691.83959374987,
      "d": 1580.3555625000008,
      "v": 105
    },
    {
      "midi": 64,
      "hit": false,
      "t": 125548.98159374986,
      "d": 589.2851250000094,
      "v": 105
    },
    {
      "midi": 69,
      "hit": false,
      "t": 125977.55259374988,
      "d": 334.8210937499971,
      "v": 101
    },
    {
      "midi": 60,
      "hit": false,
      "t": 126406.12359374987,
      "d": 696.427874999994,
      "v": 108
    },
    {
      "midi": 65,
      "hit": false,
      "t": 126406.12359374987,
      "d": 696.427874999994,
      "v": 108
    },
    {
      "midi": 69,
      "hit": false,
      "t": 126406.12359374987,
      "d": 1294.6415624999936,
      "v": 108
    },
    {
      "midi": 72,
      "hit": false,
      "t": 126406.12359374987,
      "d": 1544.6413124999963,
      "v": 107
    },
    {
      "midi": 65,
      "hit": false,
      "t": 127285.58699999987,
      "d": 495.5352187499957,
      "v": 105
    },
    {
      "midi": 69,
      "hit": false,
      "t": 127718.62228124986,
      "d": 397.3210312500014,
      "v": 105
    },
    {
      "midi": 69,
      "hit": false,
      "t": 128124.87187499987,
      "d": 2107.1407499999914,
      "v": 108
    },
    {
      "midi": 72,
      "hit": false,
      "t": 128124.87187499987,
      "d": 2107.1407499999914,
      "v": 108
    },
    {
      "midi": 62,
      "hit": false,
      "t": 128129.33615624986,
      "d": 1209.8202187499992,
      "v": 100
    },
    {
      "midi": 65,
      "hit": false,
      "t": 128129.33615624986,
      "d": 1464.284249999997,
      "v": 103
    },
    {
      "midi": 62,
      "hit": false,
      "t": 129441.83484374986,
      "d": 410.71387499998673,
      "v": 97
    },
    {
      "midi": 65,
      "hit": false,
      "t": 129852.54871874985,
      "d": 459.8209687500057,
      "v": 89
    },
    {
      "midi": 62,
      "hit": false,
      "t": 130285.58399999986,
      "d": 1665.1769062500098,
      "v": 101
    },
    {
      "midi": 67,
      "hit": false,
      "t": 130285.58399999986,
      "d": 1665.1769062500098,
      "v": 110
    },
    {
      "midi": 71,
      "hit": false,
      "t": 130285.58399999986,
      "d": 1665.1769062500098,
      "v": 107
    },
    {
      "midi": 45,
      "hit": false,
      "t": 131999.86799999987,
      "d": 1196.4273749999993,
      "v": 103
    },
    {
      "midi": 64,
      "hit": false,
      "t": 131999.86799999987,
      "d": 1205.3559374999895,
      "v": 112
    },
    {
      "midi": 57,
      "hit": false,
      "t": 132432.90328124986,
      "d": 736.6064062500081,
      "v": 105
    },
    {
      "midi": 60,
      "hit": false,
      "t": 132852.54571874987,
      "d": 392.8567500000063,
      "v": 104
    },
    {
      "midi": 53,
      "hit": false,
      "t": 133276.65243749987,
      "d": 1709.81971874999,
      "v": 83
    },
    {
      "midi": 41,
      "hit": false,
      "t": 133281.11671874986,
      "d": 852.6777187499974,
      "v": 103
    },
    {
      "midi": 57,
      "hit": false,
      "t": 133281.11671874986,
      "d": 852.6777187499974,
      "v": 89
    },
    {
      "midi": 60,
      "hit": false,
      "t": 133285.58099999986,
      "d": 852.6777187499974,
      "v": 83
    },
    {
      "midi": 65,
      "hit": false,
      "t": 133290.04528124986,
      "d": 1691.9625937500095,
      "v": 113
    },
    {
      "midi": 57,
      "hit": false,
      "t": 134142.72299999985,
      "d": 816.9634687500075,
      "v": 100
    },
    {
      "midi": 60,
      "hit": false,
      "t": 134571.29399999985,
      "d": 397.3210312500014,
      "v": 101
    },
    {
      "midi": 55,
      "hit": false,
      "t": 134986.47215624986,
      "d": 3732.139124999987,
      "v": 93
    },
    {
      "midi": 67,
      "hit": false,
      "t": 134990.93643749985,
      "d": 1584.8198437499814,
      "v": 106
    },
    {
      "midi": 60,
      "hit": false,
      "t": 134999.86499999985,
      "d": 1803.5696249999746,
      "v": 80
    },
    {
      "midi": 62,
      "hit": false,
      "t": 135008.79356249984,
      "d": 1861.6052812499984,
      "v": 110
    },
    {
      "midi": 43,
      "hit": false,
      "t": 135008.79356249984,
      "d": 3821.4247500000056,
      "v": 103
    },
    {
      "midi": 67,
      "hit": false,
      "t": 136740.93468749983,
      "d": 241.0711874999979,
      "v": 90
    },
    {
      "midi": 62,
      "hit": false,
      "t": 136870.39884374983,
      "d": 236.6069062500028,
      "v": 101
    },
    {
      "midi": 60,
      "hit": false,
      "t": 137031.11296874983,
      "d": 209.82121875003213,
      "v": 106
    },
    {
      "midi": 59,
      "hit": false,
      "t": 137129.32715624984,
      "d": 857.1420000000217,
      "v": 115
    },
    {
      "midi": 67,
      "hit": false,
      "t": 137142.71999999986,
      "d": 870.534843750007,
      "v": 74
    },
    {
      "midi": 60,
      "hit": false,
      "t": 137990.93343749986,
      "d": 464.28524999998626,
      "v": 105
    },
    {
      "midi": 62,
      "hit": false,
      "t": 138423.96871874985,
      "d": 450.89240625000093,
      "v": 101
    },
    {
      "midi": 57,
      "hit": false,
      "t": 138857.00399999984,
      "d": 3348.2109375,
      "v": 106
    },
    {
      "midi": 60,
      "hit": false,
      "t": 138857.00399999984,
      "d": 3348.2109375,
      "v": 106
    },
    {
      "midi": 64,
      "hit": false,
      "t": 138857.00399999984,
      "d": 3348.2109375,
      "v": 106
    },
    {
      "midi": 45,
      "hit": false,
      "t": 138861.46828124984,
      "d": 3348.2109375,
      "v": 108
    },
    {
      "midi": 57,
      "hit": false,
      "t": 142285.57199999984,
      "d": 348.213937499997,
      "v": 114
    },
    {
      "midi": 60,
      "hit": false,
      "t": 142285.57199999984,
      "d": 348.213937499997,
      "v": 114
    },
    {
      "midi": 64,
      "hit": false,
      "t": 142285.57199999984,
      "d": 348.213937499997,
      "v": 114
    },
    {
      "midi": 45,
      "hit": false,
      "t": 142290.03628124984,
      "d": 348.213937499997,
      "v": 114
    },
    {
      "midi": 57,
      "hit": false,
      "t": 145714.13999999984,
      "d": 1263.3915937499842,
      "v": 87
    },
    {
      "midi": 53,
      "hit": false,
      "t": 145723.06856249983,
      "d": 1258.927312499989,
      "v": 90
    },
    {
      "midi": 50,
      "hit": false,
      "t": 145723.06856249983,
      "d": 3236.603906250006,
      "v": 80
    },
    {
      "midi": 62,
      "hit": false,
      "t": 146142.71099999984,
      "d": 861.6062812499877,
      "v": 90
    },
    {
      "midi": 65,
      "hit": false,
      "t": 146571.28199999983,
      "d": 1281.2487187499937,
      "v": 88
    },
    {
      "midi": 62,
      "hit": false,
      "t": 147008.78156249982,
      "d": 1263.3915937500133,
      "v": 106
    },
    {
      "midi": 69,
      "hit": false,
      "t": 147008.78156249982,
      "d": 1263.3915937500133,
      "v": 106
    },
    {
      "midi": 65,
      "hit": false,
      "t": 147856.99499999982,
      "d": 767.856375000003,
      "v": 74
    },
    {
      "midi": 69,
      "hit": false,
      "t": 148294.49456249984,
      "d": 1049.106093749986,
      "v": 87
    },
    {
      "midi": 52,
      "hit": false,
      "t": 149151.63656249983,
      "d": 2941.9613437499793,
      "v": 89
    },
    {
      "midi": 55,
      "hit": false,
      "t": 149151.63656249983,
      "d": 3013.3898437499884,
      "v": 92
    },
    {
      "midi": 60,
      "hit": false,
      "t": 149151.63656249983,
      "d": 3267.8538750000007,
      "v": 89
    },
    {
      "midi": 64,
      "hit": false,
      "t": 149575.74328124983,
      "d": 843.7491562499781,
      "v": 73
    },
    {
      "midi": 67,
      "hit": false,
      "t": 150008.77856249982,
      "d": 2446.426124999998,
      "v": 92
    },
    {
      "midi": 72,
      "hit": false,
      "t": 150423.9567187498,
      "d": 2004.4622812500165,
      "v": 110
    },
    {
      "midi": 64,
      "hit": false,
      "t": 150423.9567187498,
      "d": 2102.6764687500254,
      "v": 93
    },
    {
      "midi": 56,
      "hit": false,
      "t": 152562.34743749982,
      "d": 2883.9256874999846,
      "v": 100
    },
    {
      "midi": 52,
      "hit": false,
      "t": 152571.2759999998,
      "d": 2808.0329062499804,
      "v": 93
    },
    {
      "midi": 59,
      "hit": false,
      "t": 152580.2045624998,
      "d": 2781.2472187499807,
      "v": 72
    },
    {
      "midi": 64,
      "hit": false,
      "t": 153004.3112812498,
      "d": 781.2492187499884,
      "v": 92
    },
    {
      "midi": 68,
      "hit": false,
      "t": 153437.3465624998,
      "d": 2044.6408125000016,
      "v": 84
    },
    {
      "midi": 71,
      "hit": false,
      "t": 153861.4532812498,
      "d": 736.6064062500081,
      "v": 109
    },
    {
      "midi": 64,
      "hit": false,
      "t": 153861.4532812498,
      "d": 1593.7484062500007,
      "v": 95
    },
    {
      "midi": 69,
      "hit": false,
      "t": 154714.1309999998,
      "d": 428.5709999999963,
      "v": 92
    },
    {
      "midi": 71,
      "hit": false,
      "t": 155142.7019999998,
      "d": 428.5709999999963,
      "v": 88
    },
    {
      "midi": 72,
      "hit": false,
      "t": 155566.8087187498,
      "d": 473.2138124999765,
      "v": 114
    },
    {
      "midi": 57,
      "hit": false,
      "t": 155575.73728124978,
      "d": 526.7851875000051,
      "v": 102
    },
    {
      "midi": 69,
      "hit": false,
      "t": 155580.20156249977,
      "d": 473.2138125000056,
      "v": 104
    },
    {
      "midi": 71,
      "hit": false,
      "t": 156419.48643749979,
      "d": 401.7853124999965,
      "v": 113
    },
    {
      "midi": 67,
      "hit": false,
      "t": 156423.95071874978,
      "d": 401.7853124999965,
      "v": 100
    },
    {
      "midi": 55,
      "hit": false,
      "t": 156437.3435624998,
      "d": 397.3210312499723,
      "v": 97
    },
    {
      "midi": 65,
      "hit": false,
      "t": 157281.09271874977,
      "d": 2138.3907187499863,
      "v": 100
    },
    {
      "midi": 53,
      "hit": false,
      "t": 157285.55699999977,
      "d": 2124.997875000001,
      "v": 100
    },
    {
      "midi": 69,
      "hit": false,
      "t": 157290.02128124976,
      "d": 2124.997875000001,
      "v": 113
    },
    {
      "midi": 57,
      "hit": false,
      "t": 159428.41199999975,
      "d": 3191.9610937500256,
      "v": 95
    },
    {
      "midi": 50,
      "hit": false,
      "t": 159437.34056249974,
      "d": 3236.603906250035,
      "v": 88
    },
    {
      "midi": 53,
      "hit": false,
      "t": 159437.34056249974,
      "d": 3285.7110000000393,
      "v": 98
    },
    {
      "midi": 62,
      "hit": false,
      "t": 159856.98299999975,
      "d": 812.4991874999832,
      "v": 98
    },
    {
      "midi": 65,
      "hit": false,
      "t": 160285.55399999974,
      "d": 1281.2487187499937,
      "v": 96
    },
    {
      "midi": 62,
      "hit": false,
      "t": 160723.05356249973,
      "d": 1263.3915937500133,
      "v": 98
    },
    {
      "midi": 69,
      "hit": false,
      "t": 160723.05356249973,
      "d": 1263.3915937500133,
      "v": 114
    },
    {
      "midi": 65,
      "hit": false,
      "t": 161571.26699999973,
      "d": 767.8563750000321,
      "v": 82
    },
    {
      "midi": 67,
      "hit": false,
      "t": 161999.83799999976,
      "d": 388.3924687500112,
      "v": 82
    },
    {
      "midi": 69,
      "hit": false,
      "t": 162437.33756249977,
      "d": 834.8205937499879,
      "v": 95
    },
    {
      "midi": 57,
      "hit": false,
      "t": 162856.97999999978,
      "d": 2566.9617187500116,
      "v": 95
    },
    {
      "midi": 50,
      "hit": false,
      "t": 162865.90856249977,
      "d": 2566.9617187500116,
      "v": 88
    },
    {
      "midi": 53,
      "hit": false,
      "t": 162865.90856249977,
      "d": 5857.13699999993,
      "v": 98
    },
    {
      "midi": 62,
      "hit": false,
      "t": 163285.55099999977,
      "d": 767.856375000003,
      "v": 98
    },
    {
      "midi": 65,
      "hit": false,
      "t": 163714.12199999977,
      "d": 1281.2487187500228,
      "v": 96
    },
    {
      "midi": 62,
      "hit": false,
      "t": 164151.6215624998,
      "d": 1263.3915937500133,
      "v": 98
    },
    {
      "midi": 69,
      "hit": false,
      "t": 164151.6215624998,
      "d": 1263.3915937500133,
      "v": 114
    },
    {
      "midi": 65,
      "hit": false,
      "t": 164999.8349999998,
      "d": 388.3924687500112,
      "v": 82
    },
    {
      "midi": 57,
      "hit": false,
      "t": 165428.40599999978,
      "d": 790.1777812499786,
      "v": 95
    },
    {
      "midi": 50,
      "hit": false,
      "t": 165437.33456249977,
      "d": 790.1777812499786,
      "v": 88
    },
    {
      "midi": 65,
      "hit": false,
      "t": 165437.33456249977,
      "d": 790.1777812499786,
      "v": 98
    },
    {
      "midi": 69,
      "hit": false,
      "t": 165437.33456249977,
      "d": 790.1777812499786,
      "v": 95
    },
    {
      "midi": 59,
      "hit": false,
      "t": 166285.54799999975,
      "d": 732.1421249999839,
      "v": 104
    },
    {
      "midi": 52,
      "hit": false,
      "t": 166294.47656249974,
      "d": 732.1421249999839,
      "v": 104
    },
    {
      "midi": 68,
      "hit": false,
      "t": 166294.47656249974,
      "d": 732.1421249999839,
      "v": 104
    },
    {
      "midi": 71,
      "hit": false,
      "t": 166294.47656249974,
      "d": 732.1421249999839,
      "v": 104
    },
    {
      "midi": 59,
      "hit": false,
      "t": 167142.6899999997,
      "d": 2071.4264999999723,
      "v": 104
    },
    {
      "midi": 52,
      "hit": false,
      "t": 167151.6185624997,
      "d": 2071.4264999999723,
      "v": 104
    },
    {
      "midi": 64,
      "hit": false,
      "t": 167151.6185624997,
      "d": 2071.4264999999723,
      "v": 104
    },
    {
      "midi": 71,
      "hit": false,
      "t": 167151.6185624997,
      "d": 2071.4264999999723,
      "v": 104
    },
    {
      "midi": 59,
      "hit": false,
      "t": 169285.54499999966,
      "d": 3785.7104999999865,
      "v": 104
    },
    {
      "midi": 52,
      "hit": false,
      "t": 169294.47356249965,
      "d": 3785.7104999999865,
      "v": 104
    },
    {
      "midi": 68,
      "hit": false,
      "t": 169294.47356249965,
      "d": 3785.7104999999865,
      "v": 104
    },
    {
      "midi": 71,
      "hit": false,
      "t": 169294.47356249965,
      "d": 3785.7104999999865,
      "v": 104
    },
    {
      "midi": 45,
      "hit": false,
      "t": 173142.68399999963,
      "d": 1196.4273749999993,
      "v": 99
    },
    {
      "midi": 64,
      "hit": false,
      "t": 173142.68399999963,
      "d": 1205.3559374999895,
      "v": 108
    },
    {
      "midi": 57,
      "hit": false,
      "t": 173575.71928124962,
      "d": 736.6064062500081,
      "v": 101
    },
    {
      "midi": 60,
      "hit": false,
      "t": 173995.36171874963,
      "d": 392.8567500000063,
      "v": 100
    },
    {
      "midi": 53,
      "hit": false,
      "t": 174419.46843749963,
      "d": 1709.81971874999,
      "v": 79
    },
    {
      "midi": 41,
      "hit": false,
      "t": 174423.93271874962,
      "d": 852.6777187499974,
      "v": 99
    },
    {
      "midi": 57,
      "hit": false,
      "t": 174423.93271874962,
      "d": 852.6777187499974,
      "v": 85
    },
    {
      "midi": 60,
      "hit": false,
      "t": 174428.39699999962,
      "d": 852.6777187499974,
      "v": 79
    },
    {
      "midi": 65,
      "hit": false,
      "t": 174432.8612812496,
      "d": 1691.9625937500095,
      "v": 109
    },
    {
      "midi": 57,
      "hit": false,
      "t": 175285.5389999996,
      "d": 816.9634687500075,
      "v": 96
    },
    {
      "midi": 60,
      "hit": false,
      "t": 175714.1099999996,
      "d": 397.3210312500014,
      "v": 97
    },
    {
      "midi": 55,
      "hit": false,
      "t": 176129.28815624962,
      "d": 3732.139124999987,
      "v": 89
    },
    {
      "midi": 67,
      "hit": false,
      "t": 176133.7524374996,
      "d": 1584.8198437499814,
      "v": 102
    },
    {
      "midi": 60,
      "hit": false,
      "t": 176142.6809999996,
      "d": 1803.5696249999746,
      "v": 76
    },
    {
      "midi": 62,
      "hit": false,
      "t": 176151.6095624996,
      "d": 1861.6052812499984,
      "v": 106
    },
    {
      "midi": 43,
      "hit": false,
      "t": 176151.6095624996,
      "d": 3821.4247500000056,
      "v": 99
    },
    {
      "midi": 67,
      "hit": false,
      "t": 177883.7506874996,
      "d": 241.0711874999979,
      "v": 86
    },
    {
      "midi": 62,
      "hit": false,
      "t": 178013.2148437496,
      "d": 236.6069062500028,
      "v": 92
    },
    {
      "midi": 60,
      "hit": false,
      "t": 178173.9289687496,
      "d": 209.82121875003213,
      "v": 91
    },
    {
      "midi": 59,
      "hit": false,
      "t": 178272.1431562496,
      "d": 857.1420000000217,
      "v": 98
    },
    {
      "midi": 67,
      "hit": false,
      "t": 178285.5359999996,
      "d": 870.534843750007,
      "v": 70
    },
    {
      "midi": 60,
      "hit": false,
      "t": 179133.74943749962,
      "d": 464.28524999998626,
      "v": 101
    },
    {
      "midi": 62,
      "hit": false,
      "t": 179566.7847187496,
      "d": 450.89240625000093,
      "v": 97
    },
    {
      "midi": 64,
      "hit": false,
      "t": 179999.8199999996,
      "d": 1205.3559374999895,
      "v": 114
    },
    {
      "midi": 45,
      "hit": false,
      "t": 180004.2842812496,
      "d": 1205.3559374999895,
      "v": 99
    },
    {
      "midi": 57,
      "hit": false,
      "t": 180428.3909999996,
      "d": 736.606406249979,
      "v": 101
    },
    {
      "midi": 60,
      "hit": false,
      "t": 180865.89056249958,
      "d": 392.8567500000063,
      "v": 100
    },
    {
      "midi": 41,
      "hit": false,
      "t": 181276.6044374996,
      "d": 852.6777187499683,
      "v": 99
    },
    {
      "midi": 57,
      "hit": false,
      "t": 181285.5329999996,
      "d": 843.7491562499781,
      "v": 85
    },
    {
      "midi": 65,
      "hit": false,
      "t": 181289.99728124958,
      "d": 1691.9625937500095,
      "v": 109
    },
    {
      "midi": 60,
      "hit": false,
      "t": 181294.46156249958,
      "d": 852.6777187499974,
      "v": 79
    },
    {
      "midi": 53,
      "hit": false,
      "t": 181298.92584374957,
      "d": 1709.81971874999,
      "v": 79
    },
    {
      "midi": 57,
      "hit": false,
      "t": 182129.28215624957,
      "d": 816.9634687500075,
      "v": 96
    },
    {
      "midi": 60,
      "hit": false,
      "t": 182562.3174374996,
      "d": 397.3210312500014,
      "v": 97
    },
    {
      "midi": 55,
      "hit": false,
      "t": 182986.4241562496,
      "d": 3732.139124999958,
      "v": 89
    },
    {
      "midi": 67,
      "hit": false,
      "t": 182990.88843749958,
      "d": 1584.8198437499814,
      "v": 102
    },
    {
      "midi": 60,
      "hit": false,
      "t": 182999.81699999957,
      "d": 1803.5696249999746,
      "v": 76
    },
    {
      "midi": 62,
      "hit": false,
      "t": 183008.74556249956,
      "d": 1857.1409999999742,
      "v": 106
    },
    {
      "midi": 43,
      "hit": false,
      "t": 183008.74556249956,
      "d": 3821.4247499999765,
      "v": 99
    },
    {
      "midi": 67,
      "hit": false,
      "t": 184740.88668749956,
      "d": 241.0711874999688,
      "v": 86
    },
    {
      "midi": 62,
      "hit": false,
      "t": 184870.35084374953,
      "d": 4.464281249995111,
      "v": 92
    },
    {
      "midi": 60,
      "hit": false,
      "t": 185031.06496874953,
      "d": 209.82121875003213,
      "v": 91
    },
    {
      "midi": 59,
      "hit": false,
      "t": 185129.27915624954,
      "d": 857.1420000000217,
      "v": 98
    },
    {
      "midi": 67,
      "hit": false,
      "t": 185142.67199999955,
      "d": 870.534843750007,
      "v": 70
    },
    {
      "midi": 60,
      "hit": false,
      "t": 185990.88543749956,
      "d": 464.28524999998626,
      "v": 101
    },
    {
      "midi": 62,
      "hit": false,
      "t": 186423.92071874955,
      "d": 450.89240625000093,
      "v": 97
    },
    {
      "midi": 60,
      "hit": false,
      "t": 186856.95599999954,
      "d": 848.2134375000314,
      "v": 96
    },
    {
      "midi": 45,
      "hit": false,
      "t": 186856.95599999954,
      "d": 1196.4273750000284,
      "v": 103
    },
    {
      "midi": 52,
      "hit": false,
      "t": 186856.95599999954,
      "d": 1196.4273750000284,
      "v": 103
    },
    {
      "midi": 64,
      "hit": false,
      "t": 186856.95599999954,
      "d": 1205.3559375000186,
      "v": 112
    },
    {
      "midi": 57,
      "hit": false,
      "t": 187289.99128124956,
      "d": 736.6064062500081,
      "v": 105
    },
    {
      "midi": 60,
      "hit": false,
      "t": 187709.63371874957,
      "d": 379.46390624999185,
      "v": 104
    },
    {
      "midi": 53,
      "hit": false,
      "t": 188133.74043749957,
      "d": 1709.81971874999,
      "v": 83
    },
    {
      "midi": 41,
      "hit": false,
      "t": 188138.20471874956,
      "d": 852.6777187499974,
      "v": 103
    },
    {
      "midi": 57,
      "hit": false,
      "t": 188138.20471874956,
      "d": 852.6777187499974,
      "v": 89
    },
    {
      "midi": 60,
      "hit": false,
      "t": 188142.66899999956,
      "d": 852.6777187499974,
      "v": 83
    },
    {
      "midi": 65,
      "hit": false,
      "t": 188147.13328124955,
      "d": 1691.9625937500095,
      "v": 113
    },
    {
      "midi": 57,
      "hit": false,
      "t": 188999.81099999955,
      "d": 816.9634687500075,
      "v": 100
    },
    {
      "midi": 60,
      "hit": false,
      "t": 189428.38199999955,
      "d": 397.3210312500014,
      "v": 101
    },
    {
      "midi": 55,
      "hit": false,
      "t": 189843.56015624956,
      "d": 1705.3554374999658,
      "v": 93
    },
    {
      "midi": 67,
      "hit": false,
      "t": 189848.02443749955,
      "d": 1584.8198437499814,
      "v": 106
    },
    {
      "midi": 60,
      "hit": false,
      "t": 189856.95299999954,
      "d": 2133.926437499991,
      "v": 90
    },
    {
      "midi": 62,
      "hit": false,
      "t": 189865.88156249953,
      "d": 2075.8907812499965,
      "v": 110
    },
    {
      "midi": 43,
      "hit": false,
      "t": 189865.88156249953,
      "d": 3821.4247500000056,
      "v": 103
    },
    {
      "midi": 55,
      "hit": false,
      "t": 191571.23699999953,
      "d": 374.99962499999674,
      "v": 94
    },
    {
      "midi": 59,
      "hit": false,
      "t": 191986.41515624954,
      "d": 857.1419999999925,
      "v": 99
    },
    {
      "midi": 55,
      "hit": false,
      "t": 191986.41515624954,
      "d": 1705.3554374999949,
      "v": 99
    },
    {
      "midi": 67,
      "hit": false,
      "t": 191999.80799999952,
      "d": 870.534843750007,
      "v": 106
    },
    {
      "midi": 62,
      "hit": false,
      "t": 191999.80799999952,
      "d": 1232.1416250000184,
      "v": 106
    },
    {
      "midi": 60,
      "hit": false,
      "t": 192848.02143749953,
      "d": 464.28525000001537,
      "v": 105
    },
    {
      "midi": 62,
      "hit": false,
      "t": 193281.05671874955,
      "d": 450.89240625000093,
      "v": 101
    },
    {
      "midi": 60,
      "hit": false,
      "t": 193714.09199999954,
      "d": 848.2134375000314,
      "v": 96
    },
    {
      "midi": 45,
      "hit": false,
      "t": 193714.09199999954,
      "d": 1196.4273750000284,
      "v": 103
    },
    {
      "midi": 52,
      "hit": false,
      "t": 193714.09199999954,
      "d": 1196.4273750000284,
      "v": 103
    },
    {
      "midi": 64,
      "hit": false,
      "t": 193714.09199999954,
      "d": 1205.3559375000186,
      "v": 112
    },
    {
      "midi": 57,
      "hit": false,
      "t": 194147.12728124956,
      "d": 736.6064062500081,
      "v": 105
    },
    {
      "midi": 60,
      "hit": false,
      "t": 194566.76971874957,
      "d": 379.46390624999185,
      "v": 104
    },
    {
      "midi": 53,
      "hit": false,
      "t": 194990.87643749957,
      "d": 1709.81971874999,
      "v": 83
    },
    {
      "midi": 41,
      "hit": false,
      "t": 194995.34071874956,
      "d": 852.6777187499974,
      "v": 103
    },
    {
      "midi": 57,
      "hit": false,
      "t": 194995.34071874956,
      "d": 852.6777187499974,
      "v": 89
    },
    {
      "midi": 60,
      "hit": false,
      "t": 194999.80499999956,
      "d": 852.6777187499974,
      "v": 83
    },
    {
      "midi": 65,
      "hit": false,
      "t": 195004.26928124955,
      "d": 1691.9625937500095,
      "v": 113
    },
    {
      "midi": 57,
      "hit": false,
      "t": 195856.94699999955,
      "d": 816.9634687500075,
      "v": 100
    },
    {
      "midi": 60,
      "hit": false,
      "t": 196285.51799999955,
      "d": 397.3210312500014,
      "v": 101
    },
    {
      "midi": 55,
      "hit": false,
      "t": 196700.69615624956,
      "d": 1705.3554374999658,
      "v": 93
    },
    {
      "midi": 67,
      "hit": false,
      "t": 196705.16043749955,
      "d": 1584.8198437499814,
      "v": 106
    },
    {
      "midi": 60,
      "hit": false,
      "t": 196714.08899999954,
      "d": 2133.926437499991,
      "v": 90
    },
    {
      "midi": 62,
      "hit": false,
      "t": 196723.01756249953,
      "d": 2075.8907812499965,
      "v": 110
    },
    {
      "midi": 43,
      "hit": false,
      "t": 196723.01756249953,
      "d": 3821.4247500000056,
      "v": 103
    },
    {
      "midi": 55,
      "hit": false,
      "t": 198428.37299999953,
      "d": 374.99962499999674,
      "v": 94
    },
    {
      "midi": 59,
      "hit": false,
      "t": 198843.55115624954,
      "d": 857.1419999999925,
      "v": 99
    },
    {
      "midi": 55,
      "hit": false,
      "t": 198843.55115624954,
      "d": 1705.3554374999949,
      "v": 99
    },
    {
      "midi": 67,
      "hit": false,
      "t": 198856.94399999952,
      "d": 870.534843750007,
      "v": 106
    },
    {
      "midi": 62,
      "hit": false,
      "t": 198856.94399999952,
      "d": 1232.1416250000184,
      "v": 106
    },
    {
      "midi": 60,
      "hit": false,
      "t": 199705.15743749953,
      "d": 464.28525000001537,
      "v": 105
    },
    {
      "midi": 62,
      "hit": false,
      "t": 200138.19271874955,
      "d": 450.89240625000093,
      "v": 101
    },
    {
      "midi": 60,
      "hit": false,
      "t": 200571.22799999954,
      "d": 848.2134375000314,
      "v": 96
    },
    {
      "midi": 45,
      "hit": false,
      "t": 200571.22799999954,
      "d": 1196.4273750000284,
      "v": 103
    },
    {
      "midi": 52,
      "hit": false,
      "t": 200571.22799999954,
      "d": 1196.4273750000284,
      "v": 103
    },
    {
      "midi": 64,
      "hit": false,
      "t": 200571.22799999954,
      "d": 1205.3559375000186,
      "v": 112
    },
    {
      "midi": 57,
      "hit": false,
      "t": 201004.26328124956,
      "d": 736.6064062500081,
      "v": 105
    },
    {
      "midi": 60,
      "hit": false,
      "t": 201423.90571874956,
      "d": 379.46390624999185,
      "v": 104
    },
    {
      "midi": 53,
      "hit": false,
      "t": 201848.01243749956,
      "d": 1709.81971874999,
      "v": 83
    },
    {
      "midi": 41,
      "hit": false,
      "t": 201852.47671874956,
      "d": 852.6777187499974,
      "v": 103
    },
    {
      "midi": 57,
      "hit": false,
      "t": 201852.47671874956,
      "d": 852.6777187499974,
      "v": 89
    },
    {
      "midi": 60,
      "hit": false,
      "t": 201856.94099999956,
      "d": 852.6777187499974,
      "v": 83
    },
    {
      "midi": 65,
      "hit": false,
      "t": 201861.40528124955,
      "d": 1691.9625937500095,
      "v": 113
    },
    {
      "midi": 57,
      "hit": false,
      "t": 202714.08299999955,
      "d": 816.9634687500075,
      "v": 100
    },
    {
      "midi": 60,
      "hit": false,
      "t": 203142.65399999954,
      "d": 397.3210312500014,
      "v": 101
    },
    {
      "midi": 55,
      "hit": false,
      "t": 203557.83215624955,
      "d": 1705.3554374999658,
      "v": 93
    },
    {
      "midi": 67,
      "hit": false,
      "t": 203562.29643749955,
      "d": 1584.8198437499814,
      "v": 106
    },
    {
      "midi": 60,
      "hit": false,
      "t": 203571.22499999954,
      "d": 2133.926437499991,
      "v": 90
    },
    {
      "midi": 62,
      "hit": false,
      "t": 203580.15356249953,
      "d": 2075.8907812499965,
      "v": 110
    },
    {
      "midi": 43,
      "hit": false,
      "t": 203580.15356249953,
      "d": 3821.4247500000056,
      "v": 103
    },
    {
      "midi": 55,
      "hit": false,
      "t": 205285.50899999953,
      "d": 374.99962499999674,
      "v": 94
    },
    {
      "midi": 59,
      "hit": false,
      "t": 205700.68715624954,
      "d": 857.1419999999925,
      "v": 99
    },
    {
      "midi": 55,
      "hit": false,
      "t": 205700.68715624954,
      "d": 1705.3554374999949,
      "v": 99
    },
    {
      "midi": 67,
      "hit": false,
      "t": 205714.07999999952,
      "d": 870.534843750007,
      "v": 106
    },
    {
      "midi": 62,
      "hit": false,
      "t": 205714.07999999952,
      "d": 1232.1416250000184,
      "v": 106
    },
    {
      "midi": 60,
      "hit": false,
      "t": 206562.29343749952,
      "d": 464.28525000001537,
      "v": 105
    },
    {
      "midi": 62,
      "hit": false,
      "t": 206995.32871874954,
      "d": 450.89240625000093,
      "v": 101
    },
    {
      "midi": 60,
      "hit": false,
      "t": 207428.36399999954,
      "d": 848.2134375000314,
      "v": 96
    },
    {
      "midi": 45,
      "hit": false,
      "t": 207428.36399999954,
      "d": 1196.4273750000284,
      "v": 103
    },
    {
      "midi": 52,
      "hit": false,
      "t": 207428.36399999954,
      "d": 1196.4273750000284,
      "v": 103
    },
    {
      "midi": 64,
      "hit": false,
      "t": 207428.36399999954,
      "d": 1205.3559375000186,
      "v": 112
    },
    {
      "midi": 57,
      "hit": false,
      "t": 207861.39928124956,
      "d": 736.6064062500081,
      "v": 105
    },
    {
      "midi": 60,
      "hit": false,
      "t": 208281.04171874956,
      "d": 379.46390624999185,
      "v": 104
    },
    {
      "midi": 53,
      "hit": false,
      "t": 208705.14843749956,
      "d": 1709.81971874999,
      "v": 83
    },
    {
      "midi": 41,
      "hit": false,
      "t": 208709.61271874956,
      "d": 852.6777187499974,
      "v": 103
    },
    {
      "midi": 57,
      "hit": false,
      "t": 208709.61271874956,
      "d": 852.6777187499974,
      "v": 89
    },
    {
      "midi": 60,
      "hit": false,
      "t": 208714.07699999955,
      "d": 852.6777187499974,
      "v": 83
    },
    {
      "midi": 65,
      "hit": false,
      "t": 208718.54128124955,
      "d": 1691.9625937500095,
      "v": 113
    },
    {
      "midi": 57,
      "hit": false,
      "t": 209571.21899999955,
      "d": 816.9634687500075,
      "v": 100
    },
    {
      "midi": 60,
      "hit": false,
      "t": 209999.78999999954,
      "d": 397.3210312500014,
      "v": 101
    },
    {
      "midi": 55,
      "hit": false,
      "t": 210414.96815624955,
      "d": 1705.3554374999658,
      "v": 93
    },
    {
      "midi": 67,
      "hit": false,
      "t": 210419.43243749955,
      "d": 1584.8198437499814,
      "v": 106
    },
    {
      "midi": 60,
      "hit": false,
      "t": 210428.36099999954,
      "d": 2133.926437499991,
      "v": 90
    },
    {
      "midi": 62,
      "hit": false,
      "t": 210437.28956249953,
      "d": 2075.8907812499965,
      "v": 110
    },
    {
      "midi": 43,
      "hit": false,
      "t": 210437.28956249953,
      "d": 3821.4247500000056,
      "v": 103
    },
    {
      "midi": 55,
      "hit": false,
      "t": 212142.64499999952,
      "d": 374.99962499999674,
      "v": 94
    },
    {
      "midi": 59,
      "hit": false,
      "t": 212557.82315624953,
      "d": 857.1419999999925,
      "v": 99
    },
    {
      "midi": 55,
      "hit": false,
      "t": 212557.82315624953,
      "d": 1705.3554374999949,
      "v": 99
    },
    {
      "midi": 67,
      "hit": false,
      "t": 212571.21599999952,
      "d": 870.534843750007,
      "v": 106
    },
    {
      "midi": 62,
      "hit": false,
      "t": 212571.21599999952,
      "d": 1232.1416250000184,
      "v": 106
    },
    {
      "midi": 60,
      "hit": false,
      "t": 213419.42943749952,
      "d": 464.28525000001537,
      "v": 105
    },
    {
      "midi": 62,
      "hit": false,
      "t": 213852.46471874954,
      "d": 428.57099999996717,
      "v": 101
    },
    {
      "midi": 55,
      "hit": false,
      "t": 214272.10715624952,
      "d": 1705.3554374999658,
      "v": 94
    },
    {
      "midi": 60,
      "hit": false,
      "t": 214272.10715624952,
      "d": 1705.3554374999658,
      "v": 85
    },
    {
      "midi": 62,
      "hit": false,
      "t": 214285.4999999995,
      "d": 1232.1416249999893,
      "v": 94
    },
    {
      "midi": 67,
      "hit": false,
      "t": 214285.4999999995,
      "d": 1705.3554374999949,
      "v": 94
    },
    {
      "midi": 53,
      "hit": false,
      "t": 215999.7839999995,
      "d": 1031.2489687500056,
      "v": 106
    },
    {
      "midi": 57,
      "hit": false,
      "t": 215999.7839999995,
      "d": 1040.1775312499958,
      "v": 111
    },
    {
      "midi": 60,
      "hit": false,
      "t": 215999.7839999995,
      "d": 1075.8917812499858,
      "v": 108
    },
    {
      "midi": 60,
      "hit": false,
      "t": 217285.49699999948,
      "d": 1812.498187499994,
      "v": 109
    },
    {
      "midi": 57,
      "hit": false,
      "t": 217285.49699999948,
      "d": 1874.9981249999837,
      "v": 108
    },
    {
      "midi": 64,
      "hit": false,
      "t": 217289.96128124947,
      "d": 1861.6052812499984,
      "v": 111
    },
    {
      "midi": 59,
      "hit": false,
      "t": 219423.88771874947,
      "d": 991.0704374999914,
      "v": 106
    },
    {
      "midi": 62,
      "hit": false,
      "t": 219423.88771874947,
      "d": 1031.2489687500056,
      "v": 99
    },
    {
      "midi": 55,
      "hit": false,
      "t": 219428.35199999946,
      "d": 982.1418750000012,
      "v": 108
    },
    {
      "midi": 62,
      "hit": false,
      "t": 220696.20787499947,
      "d": 2004.4622812499874,
      "v": 104
    },
    {
      "midi": 59,
      "hit": false,
      "t": 220700.67215624946,
      "d": 2004.4622812499874,
      "v": 111
    },
    {
      "midi": 67,
      "hit": false,
      "t": 220700.67215624946,
      "d": 2004.4622812499874,
      "v": 108
    },
    {
      "midi": 57,
      "hit": false,
      "t": 222839.06287499945,
      "d": 1053.5703749999811,
      "v": 106
    },
    {
      "midi": 60,
      "hit": false,
      "t": 222839.06287499945,
      "d": 1080.356062499981,
      "v": 102
    },
    {
      "midi": 53,
      "hit": false,
      "t": 222843.52715624945,
      "d": 1017.8561249999912,
      "v": 106
    },
    {
      "midi": 57,
      "hit": false,
      "t": 224120.31159374944,
      "d": 1683.0340312499902,
      "v": 106
    },
    {
      "midi": 60,
      "hit": false,
      "t": 224120.31159374944,
      "d": 1696.4268750000047,
      "v": 102
    },
    {
      "midi": 64,
      "hit": false,
      "t": 224124.77587499944,
      "d": 1642.8555000000051,
      "v": 106
    },
    {
      "midi": 57,
      "hit": false,
      "t": 226272.09515624944,
      "d": 723.2135624999937,
      "v": 113
    },
    {
      "midi": 62,
      "hit": false,
      "t": 226272.09515624944,
      "d": 732.1421249999839,
      "v": 102
    },
    {
      "midi": 53,
      "hit": false,
      "t": 226276.55943749944,
      "d": 1075.8917812499858,
      "v": 113
    },
    {
      "midi": 67,
      "hit": false,
      "t": 226285.48799999943,
      "d": 424.10671875000116,
      "v": 103
    },
    {
      "midi": 65,
      "hit": false,
      "t": 226714.05899999943,
      "d": 312.499687500007,
      "v": 103
    },
    {
      "midi": 57,
      "hit": false,
      "t": 227115.84431249942,
      "d": 299.10684375002165,
      "v": 88
    },
    {
      "midi": 64,
      "hit": false,
      "t": 227120.30859374942,
      "d": 272.3211562500219,
      "v": 94
    },
    {
      "midi": 59,
      "hit": false,
      "t": 227557.80815624943,
      "d": 1254.463031249994,
      "v": 113
    },
    {
      "midi": 62,
      "hit": false,
      "t": 227557.80815624943,
      "d": 1258.927312499989,
      "v": 115
    },
    {
      "midi": 67,
      "hit": false,
      "t": 227557.80815624943,
      "d": 1276.7844374999986,
      "v": 106
    },
    {
      "midi": 62,
      "hit": false,
      "t": 228843.52115624942,
      "d": 732.1421249999839,
      "v": 113
    },
    {
      "midi": 67,
      "hit": false,
      "t": 228843.52115624942,
      "d": 732.1421249999839,
      "v": 102
    },
    {
      "midi": 59,
      "hit": false,
      "t": 228847.98543749942,
      "d": 732.1421249999839,
      "v": 113
    },
    {
      "midi": 60,
      "hit": false,
      "t": 229722.9845624994,
      "d": 874.9991250000021,
      "v": 111
    },
    {
      "midi": 67,
      "hit": false,
      "t": 229727.4488437494,
      "d": 1075.891781250015,
      "v": 111
    },
    {
      "midi": 64,
      "hit": false,
      "t": 229727.4488437494,
      "d": 1142.8560000000289,
      "v": 114
    },
    {
      "midi": 65,
      "hit": false,
      "t": 230986.3761562494,
      "d": 892.8562500000116,
      "v": 112
    },
    {
      "midi": 69,
      "hit": false,
      "t": 230986.3761562494,
      "d": 1227.6773437500233,
      "v": 114
    },
    {
      "midi": 60,
      "hit": false,
      "t": 230990.8404374994,
      "d": 571.4280000000144,
      "v": 114
    },
    {
      "midi": 60,
      "hit": false,
      "t": 231821.19674999942,
      "d": 946.4276249999821,
      "v": 112
    },
    {
      "midi": 65,
      "hit": false,
      "t": 232272.08915624942,
      "d": 486.6066562499909,
      "v": 112
    },
    {
      "midi": 69,
      "hit": false,
      "t": 232696.19587499942,
      "d": 334.82109374998254,
      "v": 111
    },
    {
      "midi": 69,
      "hit": false,
      "t": 233111.3740312494,
      "d": 1071.4274999999907,
      "v": 114
    },
    {
      "midi": 66,
      "hit": false,
      "t": 233111.3740312494,
      "d": 1116.0703125,
      "v": 112
    },
    {
      "midi": 60,
      "hit": false,
      "t": 233111.3740312494,
      "d": 1124.9988749999902,
      "v": 104
    },
    {
      "midi": 62,
      "hit": false,
      "t": 234410.4798749994,
      "d": 535.7137499999953,
      "v": 100
    },
    {
      "midi": 71,
      "hit": false,
      "t": 234414.9441562494,
      "d": 1022.3204062499863,
      "v": 116
    },
    {
      "midi": 67,
      "hit": false,
      "t": 234414.9441562494,
      "d": 1066.9632187499956,
      "v": 114
    },
    {
      "midi": 62,
      "hit": false,
      "t": 235272.0861562494,
      "d": 544.6423125000147,
      "v": 105
    },
    {
      "midi": 67,
      "hit": false,
      "t": 235696.1928749994,
      "d": 455.35668749999604,
      "v": 111
    },
    {
      "midi": 69,
      "hit": false,
      "t": 236115.8353124994,
      "d": 977.677593749977,
      "v": 111
    },
    {
      "midi": 64,
      "hit": false,
      "t": 236120.2995937494,
      "d": 691.9635937499988,
      "v": 114
    },
    {
      "midi": 72,
      "hit": false,
      "t": 236120.2995937494,
      "d": 1580.3555624999863,
      "v": 109
    },
    {
      "midi": 64,
      "hit": false,
      "t": 236977.4415937494,
      "d": 589.2851249999949,
      "v": 109
    },
    {
      "midi": 69,
      "hit": false,
      "t": 237406.0125937494,
      "d": 334.82109375001164,
      "v": 105
    },
    {
      "midi": 60,
      "hit": false,
      "t": 237834.5835937494,
      "d": 696.427874999994,
      "v": 112
    },
    {
      "midi": 65,
      "hit": false,
      "t": 237834.5835937494,
      "d": 696.427874999994,
      "v": 112
    },
    {
      "midi": 69,
      "hit": false,
      "t": 237834.5835937494,
      "d": 1294.6415625000081,
      "v": 112
    },
    {
      "midi": 72,
      "hit": false,
      "t": 237834.5835937494,
      "d": 1544.6413124999963,
      "v": 111
    },
    {
      "midi": 65,
      "hit": false,
      "t": 238714.0469999994,
      "d": 495.53521875001024,
      "v": 109
    },
    {
      "midi": 69,
      "hit": false,
      "t": 239147.08228124943,
      "d": 397.3210312499723,
      "v": 109
    },
    {
      "midi": 69,
      "hit": false,
      "t": 239553.3318749994,
      "d": 2107.1407500000205,
      "v": 112
    },
    {
      "midi": 74,
      "hit": false,
      "t": 239553.3318749994,
      "d": 2107.1407500000205,
      "v": 112
    },
    {
      "midi": 62,
      "hit": false,
      "t": 239557.7961562494,
      "d": 1209.8202187500137,
      "v": 104
    },
    {
      "midi": 65,
      "hit": false,
      "t": 239557.7961562494,
      "d": 1464.284250000026,
      "v": 107
    },
    {
      "midi": 62,
      "hit": false,
      "t": 240870.2948437494,
      "d": 410.71387500001583,
      "v": 101
    },
    {
      "midi": 65,
      "hit": false,
      "t": 241281.00871874942,
      "d": 459.82096874999115,
      "v": 93
    },
    {
      "midi": 62,
      "hit": false,
      "t": 241714.0439999994,
      "d": 1665.1769062500098,
      "v": 105
    },
    {
      "midi": 67,
      "hit": false,
      "t": 241714.0439999994,
      "d": 1665.1769062500098,
      "v": 114
    },
    {
      "midi": 72,
      "hit": false,
      "t": 241714.0439999994,
      "d": 1665.1769062500098,
      "v": 111
    },
    {
      "midi": 45,
      "hit": false,
      "t": 243428.32799999943,
      "d": 1196.4273749999993,
      "v": 99
    },
    {
      "midi": 64,
      "hit": false,
      "t": 243428.32799999943,
      "d": 1205.3559374999895,
      "v": 108
    },
    {
      "midi": 57,
      "hit": false,
      "t": 243861.36328124942,
      "d": 736.6064062500081,
      "v": 101
    },
    {
      "midi": 60,
      "hit": false,
      "t": 244281.00571874942,
      "d": 392.8567500000063,
      "v": 100
    },
    {
      "midi": 53,
      "hit": false,
      "t": 244705.11243749943,
      "d": 1709.81971874999,
      "v": 79
    },
    {
      "midi": 41,
      "hit": false,
      "t": 244709.57671874942,
      "d": 852.6777187499974,
      "v": 99
    },
    {
      "midi": 57,
      "hit": false,
      "t": 244709.57671874942,
      "d": 852.6777187499974,
      "v": 85
    },
    {
      "midi": 60,
      "hit": false,
      "t": 244714.04099999942,
      "d": 852.6777187499974,
      "v": 79
    },
    {
      "midi": 65,
      "hit": false,
      "t": 244718.5052812494,
      "d": 1691.9625937500095,
      "v": 109
    },
    {
      "midi": 57,
      "hit": false,
      "t": 245571.1829999994,
      "d": 816.9634687500075,
      "v": 96
    },
    {
      "midi": 60,
      "hit": false,
      "t": 245999.7539999994,
      "d": 397.3210312500014,
      "v": 97
    },
    {
      "midi": 55,
      "hit": false,
      "t": 246414.93215624942,
      "d": 3732.139124999987,
      "v": 89
    },
    {
      "midi": 67,
      "hit": false,
      "t": 246419.3964374994,
      "d": 1584.8198437499814,
      "v": 102
    },
    {
      "midi": 60,
      "hit": false,
      "t": 246428.3249999994,
      "d": 1803.5696249999746,
      "v": 76
    },
    {
      "midi": 62,
      "hit": false,
      "t": 246437.2535624994,
      "d": 1861.6052812499984,
      "v": 106
    },
    {
      "midi": 43,
      "hit": false,
      "t": 246437.2535624994,
      "d": 3821.4247500000056,
      "v": 99
    },
    {
      "midi": 67,
      "hit": false,
      "t": 248169.39468749939,
      "d": 241.0711874999979,
      "v": 86
    },
    {
      "midi": 62,
      "hit": false,
      "t": 248298.8588437494,
      "d": 236.6069062500028,
      "v": 97
    },
    {
      "midi": 60,
      "hit": false,
      "t": 248459.5729687494,
      "d": 209.82121875003213,
      "v": 102
    },
    {
      "midi": 59,
      "hit": false,
      "t": 248557.7871562494,
      "d": 857.1420000000217,
      "v": 111
    },
    {
      "midi": 67,
      "hit": false,
      "t": 248571.1799999994,
      "d": 870.534843750007,
      "v": 70
    },
    {
      "midi": 60,
      "hit": false,
      "t": 249419.3934374994,
      "d": 464.28524999998626,
      "v": 101
    },
    {
      "midi": 62,
      "hit": false,
      "t": 249852.4287187494,
      "d": 450.89240625000093,
      "v": 97
    },
    {
      "midi": 45,
      "hit": false,
      "t": 250285.4639999994,
      "d": 1196.4273750000284,
      "v": 99
    },
    {
      "midi": 64,
      "hit": false,
      "t": 250285.4639999994,
      "d": 1205.3559375000186,
      "v": 108
    },
    {
      "midi": 57,
      "hit": false,
      "t": 250718.49928124942,
      "d": 736.6064062500081,
      "v": 101
    },
    {
      "midi": 60,
      "hit": false,
      "t": 251138.14171874942,
      "d": 392.8567500000063,
      "v": 100
    },
    {
      "midi": 53,
      "hit": false,
      "t": 251562.24843749942,
      "d": 1709.81971874999,
      "v": 79
    },
    {
      "midi": 41,
      "hit": false,
      "t": 251566.71271874942,
      "d": 852.6777187499974,
      "v": 99
    },
    {
      "midi": 57,
      "hit": false,
      "t": 251566.71271874942,
      "d": 852.6777187499974,
      "v": 85
    },
    {
      "midi": 60,
      "hit": false,
      "t": 251571.1769999994,
      "d": 852.6777187499974,
      "v": 79
    },
    {
      "midi": 65,
      "hit": false,
      "t": 251575.6412812494,
      "d": 1691.9625937500095,
      "v": 109
    },
    {
      "midi": 57,
      "hit": false,
      "t": 252428.3189999994,
      "d": 816.9634687500075,
      "v": 96
    },
    {
      "midi": 60,
      "hit": false,
      "t": 252856.8899999994,
      "d": 397.3210312500014,
      "v": 97
    },
    {
      "midi": 55,
      "hit": false,
      "t": 253272.0681562494,
      "d": 3732.139124999987,
      "v": 89
    },
    {
      "midi": 67,
      "hit": false,
      "t": 253276.5324374994,
      "d": 1584.8198437499814,
      "v": 102
    },
    {
      "midi": 60,
      "hit": false,
      "t": 253285.4609999994,
      "d": 1803.5696249999746,
      "v": 76
    },
    {
      "midi": 62,
      "hit": false,
      "t": 253294.3895624994,
      "d": 1861.6052812499984,
      "v": 106
    },
    {
      "midi": 43,
      "hit": false,
      "t": 253294.3895624994,
      "d": 3821.4247500000056,
      "v": 99
    },
    {
      "midi": 67,
      "hit": false,
      "t": 255026.53068749938,
      "d": 241.0711874999979,
      "v": 86
    },
    {
      "midi": 62,
      "hit": false,
      "t": 255155.9948437494,
      "d": 236.6069062500028,
      "v": 97
    },
    {
      "midi": 60,
      "hit": false,
      "t": 255316.7089687494,
      "d": 209.82121875003213,
      "v": 102
    },
    {
      "midi": 59,
      "hit": false,
      "t": 255414.9231562494,
      "d": 857.1420000000217,
      "v": 111
    },
    {
      "midi": 67,
      "hit": false,
      "t": 255428.3159999994,
      "d": 870.534843750007,
      "v": 70
    },
    {
      "midi": 60,
      "hit": false,
      "t": 256276.5294374994,
      "d": 464.28524999998626,
      "v": 101
    },
    {
      "midi": 62,
      "hit": false,
      "t": 256709.5647187494,
      "d": 450.89240625000093,
      "v": 97
    },
    {
      "midi": 45,
      "hit": false,
      "t": 257142.5999999994,
      "d": 1196.4273750000284,
      "v": 99
    },
    {
      "midi": 64,
      "hit": false,
      "t": 257142.5999999994,
      "d": 1205.3559375000186,
      "v": 108
    },
    {
      "midi": 57,
      "hit": false,
      "t": 257575.63528124942,
      "d": 736.6064062500081,
      "v": 101
    },
    {
      "midi": 60,
      "hit": false,
      "t": 257995.27771874942,
      "d": 392.8567500000063,
      "v": 100
    },
    {
      "midi": 53,
      "hit": false,
      "t": 258419.38443749942,
      "d": 1709.81971874999,
      "v": 79
    },
    {
      "midi": 41,
      "hit": false,
      "t": 258423.84871874942,
      "d": 852.6777187499974,
      "v": 99
    },
    {
      "midi": 57,
      "hit": false,
      "t": 258423.84871874942,
      "d": 852.6777187499974,
      "v": 85
    },
    {
      "midi": 60,
      "hit": false,
      "t": 258428.3129999994,
      "d": 852.6777187499974,
      "v": 79
    },
    {
      "midi": 65,
      "hit": false,
      "t": 258432.7772812494,
      "d": 1691.9625937500095,
      "v": 109
    },
    {
      "midi": 57,
      "hit": false,
      "t": 259285.4549999994,
      "d": 816.9634687500075,
      "v": 96
    },
    {
      "midi": 60,
      "hit": false,
      "t": 259714.0259999994,
      "d": 397.3210312500014,
      "v": 97
    },
    {
      "midi": 55,
      "hit": false,
      "t": 260129.2041562494,
      "d": 2999.997000000032,
      "v": 89
    },
    {
      "midi": 67,
      "hit": false,
      "t": 260133.6684374994,
      "d": 1584.8198437499814,
      "v": 102
    },
    {
      "midi": 60,
      "hit": false,
      "t": 260142.5969999994,
      "d": 1803.5696249999746,
      "v": 76
    },
    {
      "midi": 62,
      "hit": false,
      "t": 260151.5255624994,
      "d": 1861.6052812499984,
      "v": 106
    },
    {
      "midi": 43,
      "hit": false,
      "t": 260151.5255624994,
      "d": 3821.424750000093,
      "v": 99
    },
    {
      "midi": 67,
      "hit": false,
      "t": 261883.66668749938,
      "d": 241.0711874999979,
      "v": 86
    },
    {
      "midi": 62,
      "hit": false,
      "t": 262013.1308437494,
      "d": 236.6069062500028,
      "v": 97
    },
    {
      "midi": 60,
      "hit": false,
      "t": 262173.8449687494,
      "d": 209.82121875003213,
      "v": 102
    },
    {
      "midi": 59,
      "hit": false,
      "t": 262272.0591562494,
      "d": 857.1420000000508,
      "v": 111
    },
    {
      "midi": 67,
      "hit": false,
      "t": 262285.4519999994,
      "d": 870.5348437500652,
      "v": 70
    },
    {
      "midi": 55,
      "hit": false,
      "t": 263133.66543749947,
      "d": 843.7491562500363,
      "v": 81
    },
    {
      "midi": 52,
      "hit": false,
      "t": 264191.7000937495,
      "d": 3285.7110000000102,
      "v": 91
    },
    {
      "midi": 57,
      "hit": false,
      "t": 264705.0924374995,
      "d": 3285.7110000000102,
      "v": 53
    },
    {
      "midi": 59,
      "hit": false,
      "t": 265093.4849062495,
      "d": 3285.7110000000102,
      "v": 77
    },
    {
      "midi": 61,
      "hit": false,
      "t": 265530.9844687495,
      "d": 3285.7110000000102,
      "v": 84
    },
    {
      "midi": 64,
      "hit": false,
      "t": 265990.8054374995,
      "d": 3285.7110000000102,
      "v": 81
    },
    {
      "midi": 69,
      "hit": false,
      "t": 266464.0192499995,
      "d": 3285.7110000000102,
      "v": 95
    },
    {
      "midi": 71,
      "hit": false,
      "t": 266937.2330624995,
      "d": 3285.7110000000102,
      "v": 88
    },
    {
      "midi": 73,
      "hit": false,
      "t": 267450.6254062495,
      "d": 3285.7110000000102,
      "v": 91
    },
    {
      "midi": 76,
      "hit": false,
      "t": 267928.3034999995,
      "d": 3285.710999999952,
      "v": 91
    },
    {
      "midi": 83,
      "hit": false,
      "t": 268379.1959062495,
      "d": 3285.710999999952,
      "v": 93
    },
    {
      "midi": 81,
      "hit": false,
      "t": 269048.8380937495,
      "d": 3285.7110000000102,
      "v": 85
    }
  ]
}