{
  "jsonPath": "Unknown/Unknown/Courage of Lassie/city-of-tears.json",
  "path": "Unknown\\Unknown\\Courage of Lassie\\City Of Tears.mid",
  "name": "City Of Tears",
  "difficulty": "Advanced",
  "bpm": 120.78996638012602,
  "notes": [
    {
      "midi": 60,
      "hit": false,
      "t": 2381.188,
      "d": 873.1022666666668,
      "v": 80
    },
    {
      "midi": 72,
      "hit": false,
      "t": 2678.8365,
      "d": 1751.1653416666654,
      "v": 59
    },
    {
      "midi": 84,
      "hit": false,
      "t": 2976.4849999999997,
      "d": 292.6876916666665,
      "v": 74
    },
    {
      "midi": 84,
      "hit": false,
      "t": 3274.1334999999995,
      "d": 1751.1653416666654,
      "v": 75
    },
    {
      "midi": 60,
      "hit": false,
      "t": 3274.1335000000004,
      "d": 858.2198416666665,
      "v": 83
    },
    {
      "midi": 76,
      "hit": false,
      "t": 3869.4304999999995,
      "d": 585.3753833333321,
      "v": 72
    },
    {
      "midi": 60,
      "hit": false,
      "t": 4167.079000000001,
      "d": 565.53215,
      "v": 87
    },
    {
      "midi": 77,
      "hit": false,
      "t": 4464.727499999998,
      "d": 585.375383333333,
      "v": 85
    },
    {
      "midi": 65,
      "hit": false,
      "t": 4762.376,
      "d": 585.3753833333349,
      "v": 66
    },
    {
      "midi": 72,
      "hit": false,
      "t": 5060.024499999998,
      "d": 292.6876916666679,
      "v": 68
    },
    {
      "midi": 77,
      "hit": false,
      "t": 5357.672999999999,
      "d": 292.68769166666607,
      "v": 67
    },
    {
      "midi": 76,
      "hit": false,
      "t": 5655.321499999998,
      "d": 292.68769166666607,
      "v": 66
    },
    {
      "midi": 65,
      "hit": false,
      "t": 5655.321500000001,
      "d": 873.1022666666677,
      "v": 73
    },
    {
      "midi": 77,
      "hit": false,
      "t": 5952.9699999999975,
      "d": 292.68769166666607,
      "v": 76
    },
    {
      "midi": 79,
      "hit": false,
      "t": 6250.618499999997,
      "d": 1165.7899583333328,
      "v": 81
    },
    {
      "midi": 65,
      "hit": false,
      "t": 6548.267000000002,
      "d": 585.3753833333349,
      "v": 64
    },
    {
      "midi": 72,
      "hit": false,
      "t": 6845.915499999996,
      "d": 585.375383333333,
      "v": 71
    },
    {
      "midi": 62,
      "hit": false,
      "t": 7143.564000000003,
      "d": 873.1022666666659,
      "v": 75
    },
    {
      "midi": 72,
      "hit": false,
      "t": 7441.212499999996,
      "d": 585.3753833333321,
      "v": 70
    },
    {
      "midi": 84,
      "hit": false,
      "t": 7738.860999999995,
      "d": 292.68769166666607,
      "v": 83
    },
    {
      "midi": 84,
      "hit": false,
      "t": 8036.509499999995,
      "d": 2043.853033333331,
      "v": 83
    },
    {
      "midi": 62,
      "hit": false,
      "t": 8036.509500000002,
      "d": 873.1022666666668,
      "v": 78
    },
    {
      "midi": 76,
      "hit": false,
      "t": 8631.806499999993,
      "d": 585.3753833333321,
      "v": 66
    },
    {
      "midi": 62,
      "hit": false,
      "t": 8929.455000000002,
      "d": 585.3753833333358,
      "v": 80
    },
    {
      "midi": 77,
      "hit": false,
      "t": 9227.103499999992,
      "d": 873.1022666666668,
      "v": 85
    },
    {
      "midi": 67,
      "hit": false,
      "t": 9524.752000000004,
      "d": 873.1022666666686,
      "v": 87
    },
    {
      "midi": 72,
      "hit": false,
      "t": 9822.40049999999,
      "d": 1458.4776500000062,
      "v": 64
    },
    {
      "midi": 77,
      "hit": false,
      "t": 10120.048999999992,
      "d": 292.6876916666679,
      "v": 66
    },
    {
      "midi": 76,
      "hit": false,
      "t": 10417.697499999993,
      "d": 292.6876916666679,
      "v": 49
    },
    {
      "midi": 67,
      "hit": false,
      "t": 10417.697500000006,
      "d": 873.1022666666686,
      "v": 80
    },
    {
      "midi": 77,
      "hit": false,
      "t": 10715.345999999994,
      "d": 292.6876916666679,
      "v": 71
    },
    {
      "midi": 79,
      "hit": false,
      "t": 11012.994499999995,
      "d": 292.6876916666679,
      "v": 67
    },
    {
      "midi": 77,
      "hit": false,
      "t": 11310.642999999996,
      "d": 292.6876916666679,
      "v": 77
    },
    {
      "midi": 67,
      "hit": false,
      "t": 11310.643000000007,
      "d": 585.3753833333321,
      "v": 86
    },
    {
      "midi": 76,
      "hit": false,
      "t": 11608.291499999998,
      "d": 292.68769166666425,
      "v": 72
    },
    {
      "midi": 64,
      "hit": false,
      "t": 11905.940000000006,
      "d": 585.3753833333321,
      "v": 71
    },
    {
      "midi": 84,
      "hit": false,
      "t": 12203.588499999996,
      "d": 585.3753833333358,
      "v": 64
    },
    {
      "midi": 72,
      "hit": false,
      "t": 12501.236999999997,
      "d": 585.3753833333358,
      "v": 53
    },
    {
      "midi": 84,
      "hit": false,
      "t": 12798.885499999999,
      "d": 1751.1653416666686,
      "v": 80
    },
    {
      "midi": 64,
      "hit": false,
      "t": 12798.885500000006,
      "d": 585.3753833333321,
      "v": 64
    },
    {
      "midi": 72,
      "hit": false,
      "t": 13394.1825,
      "d": 585.3753833333321,
      "v": 71
    },
    {
      "midi": 79,
      "hit": false,
      "t": 13394.1825,
      "d": 1165.7899583333328,
      "v": 81
    },
    {
      "midi": 64,
      "hit": false,
      "t": 13691.831000000006,
      "d": 292.6876916666679,
      "v": 46
    },
    {
      "midi": 72,
      "hit": false,
      "t": 13989.4795,
      "d": 585.375383333334,
      "v": 68
    },
    {
      "midi": 76,
      "hit": false,
      "t": 13989.4795,
      "d": 585.375383333334,
      "v": 72
    },
    {
      "midi": 69,
      "hit": false,
      "t": 14287.127999999999,
      "d": 1165.7899583333383,
      "v": 56
    },
    {
      "midi": 72,
      "hit": false,
      "t": 14584.7765,
      "d": 292.6876916666679,
      "v": 68
    },
    {
      "midi": 76,
      "hit": false,
      "t": 14882.425000000001,
      "d": 292.6876916666679,
      "v": 51
    },
    {
      "midi": 72,
      "hit": false,
      "t": 15180.073500000002,
      "d": 292.6876916666679,
      "v": 66
    },
    {
      "midi": 76,
      "hit": false,
      "t": 15477.722000000003,
      "d": 292.6876916666679,
      "v": 71
    },
    {
      "midi": 72,
      "hit": false,
      "t": 15477.722000000003,
      "d": 585.3753833333358,
      "v": 68
    },
    {
      "midi": 77,
      "hit": false,
      "t": 15775.370500000005,
      "d": 292.6876916666679,
      "v": 68
    },
    {
      "midi": 69,
      "hit": false,
      "t": 16073.019000000006,
      "d": 292.6876916666679,
      "v": 47
    },
    {
      "midi": 79,
      "hit": false,
      "t": 16073.019000000006,
      "d": 292.6876916666679,
      "v": 80
    },
    {
      "midi": 72,
      "hit": false,
      "t": 16370.667500000007,
      "d": 292.68769166666607,
      "v": 63
    },
    {
      "midi": 81,
      "hit": false,
      "t": 16370.667500000007,
      "d": 585.3753833333321,
      "v": 72
    },
    {
      "midi": 62,
      "hit": false,
      "t": 16668.31600000001,
      "d": 585.3753833333358,
      "v": 72
    },
    {
      "midi": 72,
      "hit": false,
      "t": 16965.964500000006,
      "d": 292.68769166666607,
      "v": 83
    },
    {
      "midi": 76,
      "hit": false,
      "t": 17263.613000000005,
      "d": 292.68769166666607,
      "v": 82
    },
    {
      "midi": 72,
      "hit": false,
      "t": 17561.261500000004,
      "d": 585.3753833333358,
      "v": 92
    },
    {
      "midi": 76,
      "hit": false,
      "t": 17561.261500000004,
      "d": 585.3753833333358,
      "v": 71
    },
    {
      "midi": 62,
      "hit": false,
      "t": 17561.26150000001,
      "d": 873.1022666666686,
      "v": 71
    },
    {
      "midi": 72,
      "hit": false,
      "t": 18156.558500000006,
      "d": 585.3753833333358,
      "v": 87
    },
    {
      "midi": 76,
      "hit": false,
      "t": 18156.558500000006,
      "d": 585.3753833333358,
      "v": 80
    },
    {
      "midi": 62,
      "hit": false,
      "t": 18454.207000000013,
      "d": 585.3753833333358,
      "v": 71
    },
    {
      "midi": 72,
      "hit": false,
      "t": 18751.85550000001,
      "d": 585.3753833333285,
      "v": 75
    },
    {
      "midi": 76,
      "hit": false,
      "t": 18751.85550000001,
      "d": 585.3753833333285,
      "v": 71
    },
    {
      "midi": 67,
      "hit": false,
      "t": 19049.504000000015,
      "d": 585.3753833333285,
      "v": 80
    },
    {
      "midi": 74,
      "hit": false,
      "t": 19347.152500000004,
      "d": 292.68769166666607,
      "v": 57
    },
    {
      "midi": 76,
      "hit": false,
      "t": 19644.801000000003,
      "d": 585.3753833333321,
      "v": 75
    },
    {
      "midi": 72,
      "hit": false,
      "t": 19942.449500000002,
      "d": 292.68769166666607,
      "v": 67
    },
    {
      "midi": 79,
      "hit": false,
      "t": 19942.449500000002,
      "d": 585.3753833333321,
      "v": 66
    },
    {
      "midi": 67,
      "hit": false,
      "t": 20240.098000000013,
      "d": 292.68769166666607,
      "v": 65
    },
    {
      "midi": 71,
      "hit": false,
      "t": 20537.7465,
      "d": 292.68769166666607,
      "v": 86
    },
    {
      "midi": 67,
      "hit": false,
      "t": 20835.39500000001,
      "d": 292.68769166666607,
      "v": 58
    },
    {
      "midi": 72,
      "hit": false,
      "t": 21133.0435,
      "d": 585.3753833333321,
      "v": 72
    },
    {
      "midi": 60,
      "hit": false,
      "t": 21430.69200000001,
      "d": 873.102266666665,
      "v": 80
    },
    {
      "midi": 84,
      "hit": false,
      "t": 21728.3405,
      "d": 297.64849999999933,
      "v": 73
    },
    {
      "midi": 72,
      "hit": false,
      "t": 22025.988999999998,
      "d": 292.68769166666607,
      "v": 83
    },
    {
      "midi": 84,
      "hit": false,
      "t": 22323.637499999997,
      "d": 585.3753833333321,
      "v": 75
    },
    {
      "midi": 60,
      "hit": false,
      "t": 22323.637500000008,
      "d": 858.2198416666688,
      "v": 83
    },
    {
      "midi": 72,
      "hit": false,
      "t": 22918.934499999996,
      "d": 580.4145749999989,
      "v": 68
    },
    {
      "midi": 76,
      "hit": false,
      "t": 22918.934499999996,
      "d": 585.3753833333321,
      "v": 72
    },
    {
      "midi": 60,
      "hit": false,
      "t": 23216.58300000001,
      "d": 565.5321500000027,
      "v": 87
    },
    {
      "midi": 72,
      "hit": false,
      "t": 23514.231499999994,
      "d": 585.3753833333321,
      "v": 73
    },
    {
      "midi": 77,
      "hit": false,
      "t": 23514.231499999994,
      "d": 585.3753833333321,
      "v": 85
    },
    {
      "midi": 65,
      "hit": false,
      "t": 23811.880000000012,
      "d": 585.3753833333358,
      "v": 66
    },
    {
      "midi": 72,
      "hit": false,
      "t": 24109.528499999993,
      "d": 292.68769166666607,
      "v": 68
    },
    {
      "midi": 77,
      "hit": false,
      "t": 24407.176999999992,
      "d": 292.68769166666607,
      "v": 67
    },
    {
      "midi": 76,
      "hit": false,
      "t": 24704.82549999999,
      "d": 292.68769166666607,
      "v": 66
    },
    {
      "midi": 65,
      "hit": false,
      "t": 24704.825500000014,
      "d": 873.1022666666686,
      "v": 73
    },
    {
      "midi": 77,
      "hit": false,
      "t": 25002.47399999999,
      "d": 292.68769166666607,
      "v": 76
    },
    {
      "midi": 79,
      "hit": false,
      "t": 25300.12249999999,
      "d": 1165.789958333331,
      "v": 81
    },
    {
      "midi": 65,
      "hit": false,
      "t": 25597.771000000015,
      "d": 585.3753833333285,
      "v": 64
    },
    {
      "midi": 72,
      "hit": false,
      "t": 25895.41949999999,
      "d": 585.3753833333321,
      "v": 71
    },
    {
      "midi": 62,
      "hit": false,
      "t": 26193.06800000001,
      "d": 873.1022666666686,
      "v": 75
    },
    {
      "midi": 72,
      "hit": false,
      "t": 26490.716499999988,
      "d": 585.3753833333321,
      "v": 70
    },
    {
      "midi": 84,
      "hit": false,
      "t": 26788.364999999987,
      "d": 292.68769166666607,
      "v": 83
    },
    {
      "midi": 84,
      "hit": false,
      "t": 27086.013499999986,
      "d": 2043.8530333333292,
      "v": 83
    },
    {
      "midi": 62,
      "hit": false,
      "t": 27086.013500000012,
      "d": 873.102266666665,
      "v": 78
    },
    {
      "midi": 76,
      "hit": false,
      "t": 27681.310499999985,
      "d": 585.3753833333321,
      "v": 66
    },
    {
      "midi": 62,
      "hit": false,
      "t": 27978.95900000001,
      "d": 585.3753833333321,
      "v": 80
    },
    {
      "midi": 72,
      "hit": false,
      "t": 28276.607499999984,
      "d": 585.3753833333321,
      "v": 70
    },
    {
      "midi": 77,
      "hit": false,
      "t": 28276.607499999984,
      "d": 873.102266666665,
      "v": 85
    },
    {
      "midi": 67,
      "hit": false,
      "t": 28574.25600000001,
      "d": 873.1022666666686,
      "v": 87
    },
    {
      "midi": 72,
      "hit": false,
      "t": 28871.904499999982,
      "d": 1458.477649999997,
      "v": 64
    },
    {
      "midi": 77,
      "hit": false,
      "t": 29169.55299999998,
      "d": 292.68769166666607,
      "v": 66
    },
    {
      "midi": 76,
      "hit": false,
      "t": 29467.20149999998,
      "d": 292.68769166666607,
      "v": 49
    },
    {
      "midi": 67,
      "hit": false,
      "t": 29467.20150000001,
      "d": 873.1022666666686,
      "v": 80
    },
    {
      "midi": 77,
      "hit": false,
      "t": 29764.84999999998,
      "d": 292.68769166666607,
      "v": 71
    },
    {
      "midi": 79,
      "hit": false,
      "t": 30062.49849999998,
      "d": 292.68769166666607,
      "v": 67
    },
    {
      "midi": 77,
      "hit": false,
      "t": 30360.14699999998,
      "d": 292.68769166666607,
      "v": 77
    },
    {
      "midi": 67,
      "hit": false,
      "t": 30360.14700000001,
      "d": 585.3753833333321,
      "v": 86
    },
    {
      "midi": 76,
      "hit": false,
      "t": 30657.79549999998,
      "d": 292.68769166666607,
      "v": 72
    },
    {
      "midi": 64,
      "hit": false,
      "t": 30955.44400000001,
      "d": 585.3753833333321,
      "v": 71
    },
    {
      "midi": 84,
      "hit": false,
      "t": 31253.092499999977,
      "d": 585.3753833333321,
      "v": 64
    },
    {
      "midi": 72,
      "hit": false,
      "t": 31550.740999999976,
      "d": 585.3753833333321,
      "v": 53
    },
    {
      "midi": 84,
      "hit": false,
      "t": 31848.389499999976,
      "d": 1751.1653416666595,
      "v": 80
    },
    {
      "midi": 64,
      "hit": false,
      "t": 31848.38950000001,
      "d": 585.3753833333321,
      "v": 64
    },
    {
      "midi": 72,
      "hit": false,
      "t": 32443.686499999974,
      "d": 585.3753833333321,
      "v": 71
    },
    {
      "midi": 79,
      "hit": false,
      "t": 32443.686499999974,
      "d": 1165.7899583333274,
      "v": 81
    },
    {
      "midi": 64,
      "hit": false,
      "t": 32741.335000000006,
      "d": 292.68769166666607,
      "v": 46
    },
    {
      "midi": 72,
      "hit": false,
      "t": 33038.98349999997,
      "d": 585.3753833333321,
      "v": 68
    },
    {
      "midi": 76,
      "hit": false,
      "t": 33038.98349999997,
      "d": 585.3753833333321,
      "v": 72
    },
    {
      "midi": 69,
      "hit": false,
      "t": 33336.63199999997,
      "d": 1165.789958333342,
      "v": 56
    },
    {
      "midi": 72,
      "hit": false,
      "t": 33634.28049999997,
      "d": 292.68769166666607,
      "v": 68
    },
    {
      "midi": 76,
      "hit": false,
      "t": 33931.928999999975,
      "d": 292.68769166666607,
      "v": 51
    },
    {
      "midi": 72,
      "hit": false,
      "t": 34229.57749999998,
      "d": 292.68769166666607,
      "v": 66
    },
    {
      "midi": 76,
      "hit": false,
      "t": 34527.22599999998,
      "d": 292.68769166666607,
      "v": 71
    },
    {
      "midi": 72,
      "hit": false,
      "t": 34527.22599999998,
      "d": 585.3753833333394,
      "v": 68
    },
    {
      "midi": 77,
      "hit": false,
      "t": 34824.87449999998,
      "d": 292.68769166667335,
      "v": 68
    },
    {
      "midi": 69,
      "hit": false,
      "t": 35122.522999999994,
      "d": 292.68769166666607,
      "v": 47
    },
    {
      "midi": 79,
      "hit": false,
      "t": 35122.522999999994,
      "d": 292.68769166666607,
      "v": 80
    },
    {
      "midi": 72,
      "hit": false,
      "t": 35420.1715,
      "d": 292.68769166666607,
      "v": 63
    },
    {
      "midi": 81,
      "hit": false,
      "t": 35420.1715,
      "d": 585.3753833333321,
      "v": 72
    },
    {
      "midi": 62,
      "hit": false,
      "t": 35717.82000000001,
      "d": 585.3753833333394,
      "v": 72
    },
    {
      "midi": 72,
      "hit": false,
      "t": 36015.468499999995,
      "d": 292.68769166666607,
      "v": 83
    },
    {
      "midi": 76,
      "hit": false,
      "t": 36313.117,
      "d": 292.68769166666607,
      "v": 82
    },
    {
      "midi": 72,
      "hit": false,
      "t": 36610.7655,
      "d": 585.3753833333321,
      "v": 92
    },
    {
      "midi": 76,
      "hit": false,
      "t": 36610.7655,
      "d": 585.3753833333321,
      "v": 71
    },
    {
      "midi": 62,
      "hit": false,
      "t": 36610.765500000016,
      "d": 873.1022666666686,
      "v": 71
    },
    {
      "midi": 72,
      "hit": false,
      "t": 37206.0625,
      "d": 585.3753833333321,
      "v": 87
    },
    {
      "midi": 76,
      "hit": false,
      "t": 37206.0625,
      "d": 585.3753833333321,
      "v": 80
    },
    {
      "midi": 62,
      "hit": false,
      "t": 37503.71100000002,
      "d": 585.3753833333394,
      "v": 71
    },
    {
      "midi": 72,
      "hit": false,
      "t": 37801.3595,
      "d": 585.3753833333321,
      "v": 75
    },
    {
      "midi": 76,
      "hit": false,
      "t": 37801.3595,
      "d": 585.3753833333321,
      "v": 71
    },
    {
      "midi": 67,
      "hit": false,
      "t": 38099.00800000002,
      "d": 585.3753833333321,
      "v": 80
    },
    {
      "midi": 74,
      "hit": false,
      "t": 38396.6565,
      "d": 292.68769166666607,
      "v": 57
    },
    {
      "midi": 76,
      "hit": false,
      "t": 38694.305,
      "d": 585.3753833333394,
      "v": 75
    },
    {
      "midi": 72,
      "hit": false,
      "t": 38991.9535,
      "d": 292.68769166667335,
      "v": 67
    },
    {
      "midi": 79,
      "hit": false,
      "t": 38991.9535,
      "d": 585.3753833333394,
      "v": 66
    },
    {
      "midi": 67,
      "hit": false,
      "t": 39289.60200000002,
      "d": 292.68769166666607,
      "v": 65
    },
    {
      "midi": 71,
      "hit": false,
      "t": 39587.25050000001,
      "d": 292.68769166666607,
      "v": 86
    },
    {
      "midi": 67,
      "hit": false,
      "t": 39884.89900000002,
      "d": 292.68769166666607,
      "v": 58
    },
    {
      "midi": 72,
      "hit": false,
      "t": 40182.54750000001,
      "d": 585.3753833333321,
      "v": 72
    },
    {
      "midi": 60,
      "hit": false,
      "t": 40480.19600000002,
      "d": 873.1022666666686,
      "v": 80
    },
    {
      "midi": 84,
      "hit": false,
      "t": 40777.84450000001,
      "d": 297.64850000000297,
      "v": 73
    },
    {
      "midi": 72,
      "hit": false,
      "t": 41075.49300000001,
      "d": 292.68769166666607,
      "v": 83
    },
    {
      "midi": 84,
      "hit": false,
      "t": 41373.14150000001,
      "d": 585.3753833333321,
      "v": 75
    },
    {
      "midi": 60,
      "hit": false,
      "t": 41373.14150000002,
      "d": 858.2198416666652,
      "v": 83
    },
    {
      "midi": 72,
      "hit": false,
      "t": 41968.43850000001,
      "d": 580.4145750000025,
      "v": 68
    },
    {
      "midi": 76,
      "hit": false,
      "t": 41968.43850000001,
      "d": 585.3753833333394,
      "v": 72
    },
    {
      "midi": 60,
      "hit": false,
      "t": 42266.08700000002,
      "d": 565.5321499999991,
      "v": 87
    },
    {
      "midi": 72,
      "hit": false,
      "t": 42563.73550000002,
      "d": 585.3753833333321,
      "v": 73
    },
    {
      "midi": 77,
      "hit": false,
      "t": 42563.73550000002,
      "d": 585.3753833333321,
      "v": 85
    },
    {
      "midi": 65,
      "hit": false,
      "t": 42861.38400000002,
      "d": 585.3753833333321,
      "v": 66
    },
    {
      "midi": 72,
      "hit": false,
      "t": 43159.032500000016,
      "d": 292.68769166666607,
      "v": 68
    },
    {
      "midi": 77,
      "hit": false,
      "t": 43456.68100000002,
      "d": 292.68769166666607,
      "v": 67
    },
    {
      "midi": 76,
      "hit": false,
      "t": 43754.32950000002,
      "d": 292.68769166666607,
      "v": 66
    },
    {
      "midi": 65,
      "hit": false,
      "t": 43754.32950000002,
      "d": 873.1022666666686,
      "v": 73
    },
    {
      "midi": 77,
      "hit": false,
      "t": 44051.978000000025,
      "d": 292.68769166666607,
      "v": 76
    },
    {
      "midi": 79,
      "hit": false,
      "t": 44349.62650000003,
      "d": 1165.7899583333347,
      "v": 81
    },
    {
      "midi": 65,
      "hit": false,
      "t": 44647.27500000002,
      "d": 585.3753833333394,
      "v": 64
    },
    {
      "midi": 72,
      "hit": false,
      "t": 44944.923500000026,
      "d": 585.3753833333394,
      "v": 71
    },
    {
      "midi": 62,
      "hit": false,
      "t": 45242.57200000003,
      "d": 873.1022666666686,
      "v": 75
    },
    {
      "midi": 72,
      "hit": false,
      "t": 45540.22050000003,
      "d": 585.3753833333394,
      "v": 70
    },
    {
      "midi": 84,
      "hit": false,
      "t": 45837.869000000035,
      "d": 292.68769166667335,
      "v": 83
    },
    {
      "midi": 62,
      "hit": false,
      "t": 46135.51750000003,
      "d": 873.1022666666686,
      "v": 78
    },
    {
      "midi": 84,
      "hit": false,
      "t": 46135.517500000045,
      "d": 2043.8530333333329,
      "v": 83
    },
    {
      "midi": 76,
      "hit": false,
      "t": 46730.814500000044,
      "d": 585.3753833333321,
      "v": 66
    },
    {
      "midi": 62,
      "hit": false,
      "t": 47028.46300000003,
      "d": 585.3753833333321,
      "v": 80
    },
    {
      "midi": 72,
      "hit": false,
      "t": 47326.11150000004,
      "d": 585.3753833333321,
      "v": 70
    },
    {
      "midi": 77,
      "hit": false,
      "t": 47326.11150000004,
      "d": 873.1022666666686,
      "v": 85
    },
    {
      "midi": 67,
      "hit": false,
      "t": 47623.76000000003,
      "d": 873.1022666666686,
      "v": 87
    },
    {
      "midi": 72,
      "hit": false,
      "t": 47921.40850000004,
      "d": 1458.4776500000153,
      "v": 64
    },
    {
      "midi": 77,
      "hit": false,
      "t": 48219.057000000044,
      "d": 292.68769166666607,
      "v": 66
    },
    {
      "midi": 67,
      "hit": false,
      "t": 48516.70550000003,
      "d": 873.1022666666686,
      "v": 80
    },
    {
      "midi": 76,
      "hit": false,
      "t": 48516.70550000005,
      "d": 292.68769166666607,
      "v": 49
    },
    {
      "midi": 77,
      "hit": false,
      "t": 48814.35400000005,
      "d": 292.68769166666607,
      "v": 71
    },
    {
      "midi": 79,
      "hit": false,
      "t": 49112.00250000005,
      "d": 292.68769166667335,
      "v": 67
    },
    {
      "midi": 67,
      "hit": false,
      "t": 49409.651000000034,
      "d": 585.3753833333321,
      "v": 86
    },
    {
      "midi": 77,
      "hit": false,
      "t": 49409.65100000006,
      "d": 292.68769166666607,
      "v": 77
    },
    {
      "midi": 76,
      "hit": false,
      "t": 49707.29950000007,
      "d": 292.68769166666607,
      "v": 72
    },
    {
      "midi": 64,
      "hit": false,
      "t": 50004.94800000003,
      "d": 585.3753833333321,
      "v": 71
    },
    {
      "midi": 84,
      "hit": false,
      "t": 50302.596500000065,
      "d": 585.3753833333394,
      "v": 64
    },
    {
      "midi": 72,
      "hit": false,
      "t": 50600.24500000007,
      "d": 585.3753833333394,
      "v": 53
    },
    {
      "midi": 64,
      "hit": false,
      "t": 50897.893500000035,
      "d": 585.3753833333321,
      "v": 64
    },
    {
      "midi": 84,
      "hit": false,
      "t": 50897.89350000007,
      "d": 1751.1653416666668,
      "v": 80
    },
    {
      "midi": 72,
      "hit": false,
      "t": 51493.19050000008,
      "d": 585.3753833333321,
      "v": 71
    },
    {
      "midi": 79,
      "hit": false,
      "t": 51493.19050000008,
      "d": 1165.7899583333274,
      "v": 81
    },
    {
      "midi": 64,
      "hit": false,
      "t": 51790.839000000036,
      "d": 292.68769166666607,
      "v": 46
    },
    {
      "midi": 72,
      "hit": false,
      "t": 52088.487500000076,
      "d": 585.3753833333321,
      "v": 68
    },
    {
      "midi": 76,
      "hit": false,
      "t": 52088.487500000076,
      "d": 585.3753833333321,
      "v": 72
    },
    {
      "midi": 69,
      "hit": false,
      "t": 52386.13600000007,
      "d": 1165.789958333342,
      "v": 56
    },
    {
      "midi": 72,
      "hit": false,
      "t": 52683.784500000074,
      "d": 292.68769166666607,
      "v": 68
    },
    {
      "midi": 76,
      "hit": false,
      "t": 52981.43300000008,
      "d": 292.68769166666607,
      "v": 51
    },
    {
      "midi": 72,
      "hit": false,
      "t": 53279.08150000008,
      "d": 292.68769166666607,
      "v": 66
    },
    {
      "midi": 76,
      "hit": false,
      "t": 53576.73000000008,
      "d": 292.68769166666607,
      "v": 71
    },
    {
      "midi": 72,
      "hit": false,
      "t": 53576.73000000008,
      "d": 585.3753833333394,
      "v": 68
    },
    {
      "midi": 77,
      "hit": false,
      "t": 53874.378500000086,
      "d": 292.68769166667335,
      "v": 68
    },
    {
      "midi": 69,
      "hit": false,
      "t": 54172.0270000001,
      "d": 292.68769166666607,
      "v": 47
    },
    {
      "midi": 79,
      "hit": false,
      "t": 54172.0270000001,
      "d": 292.68769166666607,
      "v": 80
    },
    {
      "midi": 72,
      "hit": false,
      "t": 54469.6755000001,
      "d": 292.68769166666607,
      "v": 63
    },
    {
      "midi": 81,
      "hit": false,
      "t": 54469.6755000001,
      "d": 585.3753833333321,
      "v": 72
    },
    {
      "midi": 62,
      "hit": false,
      "t": 54767.32400000004,
      "d": 585.3753833333321,
      "v": 72
    },
    {
      "midi": 72,
      "hit": false,
      "t": 55064.9725000001,
      "d": 292.68769166666607,
      "v": 83
    },
    {
      "midi": 76,
      "hit": false,
      "t": 55362.6210000001,
      "d": 292.68769166666607,
      "v": 82
    },
    {
      "midi": 62,
      "hit": false,
      "t": 55660.26950000004,
      "d": 873.1022666666686,
      "v": 71
    },
    {
      "midi": 72,
      "hit": false,
      "t": 55660.269500000104,
      "d": 585.3753833333321,
      "v": 92
    },
    {
      "midi": 76,
      "hit": false,
      "t": 55660.269500000104,
      "d": 585.3753833333321,
      "v": 71
    },
    {
      "midi": 72,
      "hit": false,
      "t": 56255.5665000001,
      "d": 585.3753833333321,
      "v": 87
    },
    {
      "midi": 76,
      "hit": false,
      "t": 56255.5665000001,
      "d": 585.3753833333321,
      "v": 80
    },
    {
      "midi": 62,
      "hit": false,
      "t": 56553.21500000004,
      "d": 585.3753833333321,
      "v": 71
    },
    {
      "midi": 72,
      "hit": false,
      "t": 56850.8635000001,
      "d": 585.3753833333321,
      "v": 75
    },
    {
      "midi": 76,
      "hit": false,
      "t": 56850.8635000001,
      "d": 585.3753833333321,
      "v": 71
    },
    {
      "midi": 67,
      "hit": false,
      "t": 57148.51200000004,
      "d": 585.3753833333394,
      "v": 80
    },
    {
      "midi": 74,
      "hit": false,
      "t": 57446.1605000001,
      "d": 292.68769166666607,
      "v": 57
    },
    {
      "midi": 76,
      "hit": false,
      "t": 57743.8090000001,
      "d": 585.3753833333394,
      "v": 75
    },
    {
      "midi": 72,
      "hit": false,
      "t": 58041.457500000106,
      "d": 292.68769166667335,
      "v": 67
    },
    {
      "midi": 79,
      "hit": false,
      "t": 58041.457500000106,
      "d": 585.3753833333394,
      "v": 66
    },
    {
      "midi": 67,
      "hit": false,
      "t": 58339.10600000004,
      "d": 292.68769166666607,
      "v": 65
    },
    {
      "midi": 71,
      "hit": false,
      "t": 58636.75450000011,
      "d": 292.68769166666607,
      "v": 86
    },
    {
      "midi": 67,
      "hit": false,
      "t": 58934.40300000004,
      "d": 292.68769166666607,
      "v": 58
    },
    {
      "midi": 72,
      "hit": false,
      "t": 59232.05150000011,
      "d": 585.3753833333394,
      "v": 72
    },
    {
      "midi": 48,
      "hit": false,
      "t": 59529.70000000011,
      "d": 2331.579916666691,
      "v": 87
    },
    {
      "midi": 60,
      "hit": false,
      "t": 59827.34850000012,
      "d": 1165.789958333342,
      "v": 67
    },
    {
      "midi": 67,
      "hit": false,
      "t": 60124.99700000012,
      "d": 292.68769166666607,
      "v": 68
    },
    {
      "midi": 72,
      "hit": false,
      "t": 60422.64550000012,
      "d": 873.1022666666759,
      "v": 92
    },
    {
      "midi": 67,
      "hit": false,
      "t": 61017.94250000013,
      "d": 292.68769166667335,
      "v": 69
    },
    {
      "midi": 60,
      "hit": false,
      "t": 61315.59100000014,
      "d": 292.68769166666607,
      "v": 64
    },
    {
      "midi": 71,
      "hit": false,
      "t": 61613.23950000014,
      "d": 873.1022666666686,
      "v": 95
    },
    {
      "midi": 55,
      "hit": false,
      "t": 61910.88800000014,
      "d": 873.1022666666831,
      "v": 83
    },
    {
      "midi": 67,
      "hit": false,
      "t": 62208.53650000014,
      "d": 292.68769166667335,
      "v": 64
    },
    {
      "midi": 62,
      "hit": false,
      "t": 62506.18500000015,
      "d": 292.68769166667335,
      "v": 68
    },
    {
      "midi": 53,
      "hit": false,
      "t": 62803.83350000016,
      "d": 1165.7899583333347,
      "v": 55
    },
    {
      "midi": 69,
      "hit": false,
      "t": 62803.83350000016,
      "d": 1165.7899583333347,
      "v": 92
    },
    {
      "midi": 65,
      "hit": false,
      "t": 63399.13050000016,
      "d": 585.3753833333394,
      "v": 64
    },
    {
      "midi": 60,
      "hit": false,
      "t": 63696.77900000016,
      "d": 292.68769166667335,
      "v": 75
    },
    {
      "midi": 48,
      "hit": false,
      "t": 64292.07600000017,
      "d": 2331.579916666662,
      "v": 87
    },
    {
      "midi": 60,
      "hit": false,
      "t": 64589.72450000017,
      "d": 1165.7899583333347,
      "v": 67
    },
    {
      "midi": 67,
      "hit": false,
      "t": 64887.373000000174,
      "d": 292.68769166666607,
      "v": 68
    },
    {
      "midi": 72,
      "hit": false,
      "t": 65185.02150000018,
      "d": 873.102266666654,
      "v": 92
    },
    {
      "midi": 67,
      "hit": false,
      "t": 65780.31850000017,
      "d": 292.68769166666607,
      "v": 69
    },
    {
      "midi": 60,
      "hit": false,
      "t": 66077.96700000016,
      "d": 292.68769166666607,
      "v": 64
    },
    {
      "midi": 71,
      "hit": false,
      "t": 66375.61550000016,
      "d": 873.1022666666686,
      "v": 95
    },
    {
      "midi": 55,
      "hit": false,
      "t": 66673.26400000017,
      "d": 873.102266666654,
      "v": 83
    },
    {
      "midi": 67,
      "hit": false,
      "t": 66970.91250000017,
      "d": 292.68769166666607,
      "v": 64
    },
    {
      "midi": 62,
      "hit": false,
      "t": 67268.56100000016,
      "d": 292.68769166666607,
      "v": 68
    },
    {
      "midi": 53,
      "hit": false,
      "t": 67566.20950000016,
      "d": 1165.7899583333347,
      "v": 55
    },
    {
      "midi": 69,
      "hit": false,
      "t": 67566.20950000016,
      "d": 1165.7899583333347,
      "v": 92
    },
    {
      "midi": 65,
      "hit": false,
      "t": 68161.50650000016,
      "d": 585.3753833333321,
      "v": 64
    },
    {
      "midi": 60,
      "hit": false,
      "t": 68459.15500000016,
      "d": 292.68769166666607,
      "v": 75
    },
    {
      "midi": 48,
      "hit": false,
      "t": 69054.45200000016,
      "d": 2331.57991666664,
      "v": 87
    },
    {
      "midi": 60,
      "hit": false,
      "t": 69352.10050000016,
      "d": 1165.78995833332,
      "v": 67
    },
    {
      "midi": 67,
      "hit": false,
      "t": 69649.74900000016,
      "d": 292.68769166666607,
      "v": 68
    },
    {
      "midi": 72,
      "hit": false,
      "t": 69947.39750000015,
      "d": 873.102266666654,
      "v": 92
    },
    {
      "midi": 67,
      "hit": false,
      "t": 70542.69450000014,
      "d": 292.68769166666607,
      "v": 69
    },
    {
      "midi": 60,
      "hit": false,
      "t": 70840.34300000014,
      "d": 292.68769166666607,
      "v": 64
    },
    {
      "midi": 71,
      "hit": false,
      "t": 71137.99150000013,
      "d": 873.1022666666686,
      "v": 95
    },
    {
      "midi": 55,
      "hit": false,
      "t": 71435.64000000014,
      "d": 873.102266666654,
      "v": 83
    },
    {
      "midi": 67,
      "hit": false,
      "t": 71733.28850000014,
      "d": 292.68769166666607,
      "v": 64
    },
    {
      "midi": 62,
      "hit": false,
      "t": 72030.93700000014,
      "d": 292.68769166666607,
      "v": 68
    },
    {
      "midi": 53,
      "hit": false,
      "t": 72328.58550000013,
      "d": 1165.7899583333347,
      "v": 55
    },
    {
      "midi": 69,
      "hit": false,
      "t": 72328.58550000013,
      "d": 1165.7899583333347,
      "v": 92
    },
    {
      "midi": 65,
      "hit": false,
      "t": 72923.88250000014,
      "d": 585.3753833333321,
      "v": 64
    },
    {
      "midi": 60,
      "hit": false,
      "t": 73221.53100000013,
      "d": 292.68769166666607,
      "v": 75
    },
    {
      "midi": 45,
      "hit": false,
      "t": 73816.82800000014,
      "d": 873.1022666666686,
      "v": 90
    },
    {
      "midi": 57,
      "hit": false,
      "t": 73816.82800000014,
      "d": 873.1022666666686,
      "v": 89
    },
    {
      "midi": 64,
      "hit": false,
      "t": 73816.82800000014,
      "d": 873.1022666666686,
      "v": 95
    },
    {
      "midi": 69,
      "hit": false,
      "t": 73816.82800000014,
      "d": 873.1022666666686,
      "v": 101
    },
    {
      "midi": 72,
      "hit": false,
      "t": 73816.82800000014,
      "d": 873.1022666666686,
      "v": 101
    },
    {
      "midi": 69,
      "hit": false,
      "t": 75007.42200000014,
      "d": 292.68769166666607,
      "v": 93
    },
    {
      "midi": 72,
      "hit": false,
      "t": 75007.42200000014,
      "d": 292.68769166666607,
      "v": 95
    },
    {
      "midi": 55,
      "hit": false,
      "t": 75007.42200000014,
      "d": 585.3753833333321,
      "v": 87
    },
    {
      "midi": 62,
      "hit": false,
      "t": 75007.42200000014,
      "d": 585.3753833333321,
      "v": 92
    },
    {
      "midi": 43,
      "hit": false,
      "t": 75007.42200000014,
      "d": 873.1022666666686,
      "v": 95
    },
    {
      "midi": 71,
      "hit": false,
      "t": 75305.07050000013,
      "d": 585.3753833333467,
      "v": 87
    },
    {
      "midi": 67,
      "hit": false,
      "t": 75602.71900000014,
      "d": 292.68769166666607,
      "v": 82
    },
    {
      "midi": 41,
      "hit": false,
      "t": 75900.36750000014,
      "d": 4668.120641666668,
      "v": 93
    },
    {
      "midi": 53,
      "hit": false,
      "t": 75900.36750000014,
      "d": 4668.120641666668,
      "v": 86
    },
    {
      "midi": 65,
      "hit": false,
      "t": 75900.36750000014,
      "d": 4668.120641666668,
      "v": 97
    },
    {
      "midi": 67,
      "hit": false,
      "t": 75900.36750000014,
      "d": 4668.120641666668,
      "v": 93
    },
    {
      "midi": 72,
      "hit": false,
      "t": 75900.36750000014,
      "d": 4668.120641666668,
      "v": 97
    },
    {
      "midi": 72,
      "hit": false,
      "t": 83346.54080833348,
      "d": 664.7483166666643,
      "v": 89
    },
    {
      "midi": 67,
      "hit": false,
      "t": 83624.34607500014,
      "d": 639.9442750000017,
      "v": 72
    },
    {
      "midi": 60,
      "hit": false,
      "t": 83946.79861666681,
      "d": 381.9822416666575,
      "v": 71
    },
    {
      "midi": 72,
      "hit": false,
      "t": 84249.40792500014,
      "d": 1458.4776500000007,
      "v": 90
    },
    {
      "midi": 60,
      "hit": false,
      "t": 84834.78330833347,
      "d": 362.139008333339,
      "v": 68
    },
    {
      "midi": 67,
      "hit": false,
      "t": 85127.47100000014,
      "d": 575.4537666666729,
      "v": 80
    },
    {
      "midi": 60,
      "hit": false,
      "t": 85420.1586916668,
      "d": 287.72688333333645,
      "v": 69
    },
    {
      "midi": 67,
      "hit": false,
      "t": 86025.37730833347,
      "d": 456.3943666666746,
      "v": 93
    },
    {
      "midi": 72,
      "hit": false,
      "t": 86035.29892500014,
      "d": 431.5903249999974,
      "v": 92
    },
    {
      "midi": 67,
      "hit": false,
      "t": 86610.75269166681,
      "d": 491.1200250000111,
      "v": 83
    },
    {
      "midi": 72,
      "hit": false,
      "t": 86620.67430833349,
      "d": 461.35517500000424,
      "v": 81
    },
    {
      "midi": 62,
      "hit": false,
      "t": 86630.59592500016,
      "d": 471.2767916666635,
      "v": 83
    },
    {
      "midi": 67,
      "hit": false,
      "t": 87220.93211666682,
      "d": 372.0606250000128,
      "v": 89
    },
    {
      "midi": 71,
      "hit": false,
      "t": 87230.8537333335,
      "d": 347.2565833333356,
      "v": 103
    },
    {
      "midi": 62,
      "hit": false,
      "t": 87245.7361583335,
      "d": 352.2173916666652,
      "v": 80
    },
    {
      "midi": 71,
      "hit": false,
      "t": 87682.28729166683,
      "d": 327.4133500000171,
      "v": 103
    },
    {
      "midi": 67,
      "hit": false,
      "t": 87692.2089083335,
      "d": 312.53092500001367,
      "v": 83
    },
    {
      "midi": 62,
      "hit": false,
      "t": 87702.13052500018,
      "d": 312.5309249999991,
      "v": 82
    },
    {
      "midi": 62,
      "hit": false,
      "t": 88108.91680833351,
      "d": 367.0998166666832,
      "v": 81
    },
    {
      "midi": 67,
      "hit": false,
      "t": 88118.83842500018,
      "d": 203.39314166667464,
      "v": 97
    },
    {
      "midi": 71,
      "hit": false,
      "t": 88128.76004166686,
      "d": 421.66870833333815,
      "v": 103
    },
    {
      "midi": 67,
      "hit": false,
      "t": 88401.60450000019,
      "d": 302.60930833333987,
      "v": 82
    },
    {
      "midi": 62,
      "hit": false,
      "t": 88714.1354250002,
      "d": 377.02143333334243,
      "v": 83
    },
    {
      "midi": 67,
      "hit": false,
      "t": 88991.94069166687,
      "d": 699.4739750000153,
      "v": 99
    },
    {
      "midi": 60,
      "hit": false,
      "t": 89001.86230833354,
      "d": 486.1592166666669,
      "v": 101
    },
    {
      "midi": 69,
      "hit": false,
      "t": 89011.78392500021,
      "d": 664.7483166666643,
      "v": 97
    },
    {
      "midi": 60,
      "hit": false,
      "t": 89602.12011666688,
      "d": 391.9038583333313,
      "v": 77
    },
    {
      "midi": 65,
      "hit": false,
      "t": 89894.80780833354,
      "d": 595.2970000000059,
      "v": 74
    },
    {
      "midi": 60,
      "hit": false,
      "t": 90167.65226666688,
      "d": 327.41335000000254,
      "v": 73
    },
    {
      "midi": 67,
      "hit": false,
      "t": 90782.79250000021,
      "d": 436.551133333327,
      "v": 86
    },
    {
      "midi": 72,
      "hit": false,
      "t": 90782.79250000021,
      "d": 436.551133333327,
      "v": 92
    },
    {
      "midi": 67,
      "hit": false,
      "t": 91378.0895000002,
      "d": 436.551133333327,
      "v": 85
    },
    {
      "midi": 72,
      "hit": false,
      "t": 91378.0895000002,
      "d": 436.551133333327,
      "v": 85
    },
    {
      "midi": 67,
      "hit": false,
      "t": 91973.3865000002,
      "d": 436.551133333327,
      "v": 86
    },
    {
      "midi": 71,
      "hit": false,
      "t": 91973.3865000002,
      "d": 436.551133333327,
      "v": 105
    },
    {
      "midi": 67,
      "hit": false,
      "t": 92568.68350000019,
      "d": 585.3753833333321,
      "v": 80
    },
    {
      "midi": 72,
      "hit": false,
      "t": 92568.68350000019,
      "d": 585.3753833333321,
      "v": 86
    },
    {
      "midi": 48,
      "hit": false,
      "t": 92866.33200000018,
      "d": 2043.8530333333474,
      "v": 68
    },
    {
      "midi": 55,
      "hit": false,
      "t": 93163.9805000002,
      "d": 1751.1653416666668,
      "v": 68
    },
    {
      "midi": 60,
      "hit": false,
      "t": 93461.62900000019,
      "d": 873.1022666666686,
      "v": 68
    },
    {
      "midi": 64,
      "hit": false,
      "t": 93759.27750000019,
      "d": 1165.7899583333492,
      "v": 68
    },
    {
      "midi": 60,
      "hit": false,
      "t": 94354.57450000019,
      "d": 873.1022666666686,
      "v": 68
    },
    {
      "midi": 64,
      "hit": false,
      "t": 94949.8715000002,
      "d": 292.68769166666607,
      "v": 68
    },
    {
      "midi": 53,
      "hit": false,
      "t": 95247.5200000002,
      "d": 2043.8530333333329,
      "v": 68
    },
    {
      "midi": 60,
      "hit": false,
      "t": 95545.16850000019,
      "d": 1751.1653416666668,
      "v": 68
    },
    {
      "midi": 65,
      "hit": false,
      "t": 95842.81700000018,
      "d": 873.1022666666686,
      "v": 68
    },
    {
      "midi": 67,
      "hit": false,
      "t": 96140.46550000018,
      "d": 1165.7899583333492,
      "v": 68
    },
    {
      "midi": 65,
      "hit": false,
      "t": 96735.76250000019,
      "d": 585.3753833333467,
      "v": 68
    },
    {
      "midi": 60,
      "hit": false,
      "t": 97628.7080000002,
      "d": 292.68769166666607,
      "v": 68
    },
    {
      "midi": 60,
      "hit": false,
      "t": 97926.3565000002,
      "d": 585.3753833333321,
      "v": 68
    },
    {
      "midi": 72,
      "hit": false,
      "t": 98224.0050000002,
      "d": 292.68769166666607,
      "v": 68
    },
    {
      "midi": 72,
      "hit": false,
      "t": 98521.65350000019,
      "d": 585.3753833333321,
      "v": 68
    },
    {
      "midi": 67,
      "hit": false,
      "t": 99116.9505000002,
      "d": 585.3753833333321,
      "v": 68
    },
    {
      "midi": 55,
      "hit": false,
      "t": 100009.8960000002,
      "d": 2331.5799166666693,
      "v": 68
    },
    {
      "midi": 62,
      "hit": false,
      "t": 100307.5445000002,
      "d": 2331.5799166666693,
      "v": 68
    },
    {
      "midi": 65,
      "hit": false,
      "t": 100605.19300000019,
      "d": 585.3753833333321,
      "v": 68
    },
    {
      "midi": 72,
      "hit": false,
      "t": 100902.84150000018,
      "d": 1458.4776500000153,
      "v": 68
    },
    {
      "midi": 65,
      "hit": false,
      "t": 101498.13850000019,
      "d": 585.3753833333321,
      "v": 68
    },
    {
      "midi": 67,
      "hit": false,
      "t": 102093.4355000002,
      "d": 292.68769166666607,
      "v": 68
    },
    {
      "midi": 52,
      "hit": false,
      "t": 102391.08400000019,
      "d": 2043.8530333333329,
      "v": 68
    },
    {
      "midi": 55,
      "hit": false,
      "t": 102688.7325000002,
      "d": 1751.1653416666522,
      "v": 68
    },
    {
      "midi": 60,
      "hit": false,
      "t": 102986.3810000002,
      "d": 1458.4776499999862,
      "v": 68
    },
    {
      "midi": 64,
      "hit": false,
      "t": 103284.0295000002,
      "d": 1165.78995833332,
      "v": 68
    },
    {
      "midi": 45,
      "hit": false,
      "t": 104772.27200000019,
      "d": 2331.5799166666548,
      "v": 69
    },
    {
      "midi": 52,
      "hit": false,
      "t": 105069.92050000018,
      "d": 2043.8530333333329,
      "v": 69
    },
    {
      "midi": 57,
      "hit": false,
      "t": 105367.56900000018,
      "d": 873.1022666666686,
      "v": 69
    },
    {
      "midi": 64,
      "hit": false,
      "t": 105665.21750000017,
      "d": 1458.4776500000153,
      "v": 69
    },
    {
      "midi": 60,
      "hit": false,
      "t": 106260.51450000018,
      "d": 292.68769166666607,
      "v": 69
    },
    {
      "midi": 57,
      "hit": false,
      "t": 106558.16300000018,
      "d": 585.3753833333467,
      "v": 69
    },
    {
      "midi": 60,
      "hit": false,
      "t": 106855.81150000017,
      "d": 292.6876916666806,
      "v": 69
    },
    {
      "midi": 50,
      "hit": false,
      "t": 107153.46000000018,
      "d": 2331.5799166666693,
      "v": 69
    },
    {
      "midi": 62,
      "hit": false,
      "t": 107451.10850000018,
      "d": 1751.1653416666668,
      "v": 69
    },
    {
      "midi": 65,
      "hit": false,
      "t": 107748.75700000017,
      "d": 873.1022666666686,
      "v": 69
    },
    {
      "midi": 69,
      "hit": false,
      "t": 108046.40550000017,
      "d": 1458.4776500000153,
      "v": 69
    },
    {
      "midi": 65,
      "hit": false,
      "t": 108641.70250000017,
      "d": 873.1022666666831,
      "v": 69
    },
    {
      "midi": 62,
      "hit": false,
      "t": 109236.99950000018,
      "d": 292.6876916666806,
      "v": 69
    },
    {
      "midi": 60,
      "hit": false,
      "t": 110427.59350000019,
      "d": 292.68769166666607,
      "v": 68
    },
    {
      "midi": 67,
      "hit": false,
      "t": 110427.59350000019,
      "d": 292.68769166666607,
      "v": 68
    },
    {
      "midi": 72,
      "hit": false,
      "t": 110427.59350000019,
      "d": 292.68769166666607,
      "v": 68
    },
    {
      "midi": 60,
      "hit": false,
      "t": 110725.24200000019,
      "d": 292.68769166666607,
      "v": 68
    },
    {
      "midi": 67,
      "hit": false,
      "t": 110725.24200000019,
      "d": 292.68769166666607,
      "v": 68
    },
    {
      "midi": 72,
      "hit": false,
      "t": 110725.24200000019,
      "d": 292.68769166666607,
      "v": 68
    },
    {
      "midi": 59,
      "hit": false,
      "t": 111022.89050000018,
      "d": 292.68769166666607,
      "v": 68
    },
    {
      "midi": 67,
      "hit": false,
      "t": 111022.89050000018,
      "d": 292.68769166666607,
      "v": 68
    },
    {
      "midi": 71,
      "hit": false,
      "t": 111022.89050000018,
      "d": 292.68769166666607,
      "v": 68
    },
    {
      "midi": 59,
      "hit": false,
      "t": 111320.53900000018,
      "d": 292.68769166666607,
      "v": 68
    },
    {
      "midi": 67,
      "hit": false,
      "t": 111320.53900000018,
      "d": 292.68769166666607,
      "v": 68
    },
    {
      "midi": 71,
      "hit": false,
      "t": 111320.53900000018,
      "d": 292.68769166666607,
      "v": 68
    },
    {
      "midi": 60,
      "hit": false,
      "t": 111618.18750000017,
      "d": 292.68769166666607,
      "v": 68
    },
    {
      "midi": 67,
      "hit": false,
      "t": 111618.18750000017,
      "d": 292.68769166666607,
      "v": 68
    },
    {
      "midi": 72,
      "hit": false,
      "t": 111618.18750000017,
      "d": 292.68769166666607,
      "v": 68
    },
    {
      "midi": 60,
      "hit": false,
      "t": 111915.83600000017,
      "d": 296.40829791667056,
      "v": 68
    },
    {
      "midi": 72,
      "hit": false,
      "t": 111915.83600000017,
      "d": 296.40829791667056,
      "v": 68
    },
    {
      "midi": 67,
      "hit": false,
      "t": 111915.83600000017,
      "d": 585.3753833333467,
      "v": 68
    },
    {
      "midi": 60,
      "hit": false,
      "t": 112213.48450000018,
      "d": 287.72688333333645,
      "v": 68
    },
    {
      "midi": 72,
      "hit": false,
      "t": 112213.48450000018,
      "d": 287.72688333333645,
      "v": 68
    },
    {
      "midi": 60,
      "hit": false,
      "t": 112808.78150000019,
      "d": 292.68769166666607,
      "v": 68
    },
    {
      "midi": 72,
      "hit": false,
      "t": 112808.78150000019,
      "d": 585.3753833333321,
      "v": 68
    },
    {
      "midi": 64,
      "hit": false,
      "t": 113404.07850000019,
      "d": 585.3753833333321,
      "v": 68
    },
    {
      "midi": 65,
      "hit": false,
      "t": 113999.3755000002,
      "d": 585.3753833333321,
      "v": 68
    },
    {
      "midi": 65,
      "hit": false,
      "t": 114892.3210000002,
      "d": 292.68769166666607,
      "v": 68
    },
    {
      "midi": 64,
      "hit": false,
      "t": 115189.9695000002,
      "d": 292.68769166666607,
      "v": 68
    },
    {
      "midi": 65,
      "hit": false,
      "t": 115487.61800000019,
      "d": 292.68769166666607,
      "v": 68
    },
    {
      "midi": 67,
      "hit": false,
      "t": 115785.26650000019,
      "d": 292.68769166666607,
      "v": 68
    },
    {
      "midi": 64,
      "hit": false,
      "t": 116082.91500000018,
      "d": 292.68769166666607,
      "v": 68
    },
    {
      "midi": 65,
      "hit": false,
      "t": 116380.56350000018,
      "d": 292.68769166666607,
      "v": 68
    },
    {
      "midi": 62,
      "hit": false,
      "t": 116678.21200000017,
      "d": 585.3753833333321,
      "v": 68
    },
    {
      "midi": 60,
      "hit": false,
      "t": 116975.86050000017,
      "d": 292.68769166666607,
      "v": 68
    },
    {
      "midi": 72,
      "hit": false,
      "t": 117273.50900000017,
      "d": 292.68769166666607,
      "v": 68
    },
    {
      "midi": 72,
      "hit": false,
      "t": 117571.15750000016,
      "d": 292.68769166666607,
      "v": 68
    },
    {
      "midi": 67,
      "hit": false,
      "t": 118166.45450000017,
      "d": 292.68769166666607,
      "v": 68
    },
    {
      "midi": 62,
      "hit": false,
      "t": 118761.75150000017,
      "d": 585.3753833333321,
      "v": 68
    },
    {
      "midi": 62,
      "hit": false,
      "t": 119357.04850000018,
      "d": 292.68769166666607,
      "v": 68
    },
    {
      "midi": 72,
      "hit": false,
      "t": 119654.69700000017,
      "d": 292.68769166666607,
      "v": 68
    },
    {
      "midi": 71,
      "hit": false,
      "t": 119952.34550000017,
      "d": 292.68769166666607,
      "v": 68
    },
    {
      "midi": 72,
      "hit": false,
      "t": 120249.99400000017,
      "d": 292.68769166666607,
      "v": 68
    },
    {
      "midi": 71,
      "hit": false,
      "t": 120547.64250000016,
      "d": 292.68769166666607,
      "v": 68
    },
    {
      "midi": 67,
      "hit": false,
      "t": 120845.29100000016,
      "d": 292.68769166666607,
      "v": 68
    },
    {
      "midi": 64,
      "hit": false,
      "t": 121142.93950000015,
      "d": 585.3753833333321,
      "v": 68
    },
    {
      "midi": 72,
      "hit": false,
      "t": 121738.23650000016,
      "d": 292.68769166666607,
      "v": 68
    },
    {
      "midi": 72,
      "hit": false,
      "t": 122333.53350000017,
      "d": 585.3753833333321,
      "v": 68
    },
    {
      "midi": 67,
      "hit": false,
      "t": 122928.83050000017,
      "d": 292.68769166666607,
      "v": 68
    },
    {
      "midi": 57,
      "hit": false,
      "t": 123226.47900000017,
      "d": 292.68769166666607,
      "v": 68
    },
    {
      "midi": 60,
      "hit": false,
      "t": 123524.12750000016,
      "d": 292.68769166666607,
      "v": 68
    },
    {
      "midi": 57,
      "hit": false,
      "t": 123821.77600000016,
      "d": 292.68769166666607,
      "v": 68
    },
    {
      "midi": 60,
      "hit": false,
      "t": 124119.42450000015,
      "d": 292.68769166666607,
      "v": 68
    },
    {
      "midi": 64,
      "hit": false,
      "t": 124417.07300000015,
      "d": 585.3753833333321,
      "v": 68
    },
    {
      "midi": 57,
      "hit": false,
      "t": 124714.72150000015,
      "d": 292.68769166666607,
      "v": 68
    },
    {
      "midi": 62,
      "hit": false,
      "t": 126202.96400000014,
      "d": 1458.4776499999862,
      "v": 68
    },
    {
      "midi": 65,
      "hit": false,
      "t": 126500.61250000013,
      "d": 1751.1653416666668,
      "v": 68
    },
    {
      "midi": 69,
      "hit": false,
      "t": 126798.26100000013,
      "d": 1458.4776500000007,
      "v": 68
    },
    {
      "midi": 72,
      "hit": false,
      "t": 127095.90950000013,
      "d": 1165.7899583333347,
      "v": 68
    },
    {
      "midi": 62,
      "hit": false,
      "t": 127691.20650000013,
      "d": 585.3753833333321,
      "v": 68
    },
    {
      "midi": 62,
      "hit": false,
      "t": 128584.15200000013,
      "d": 873.1022666666686,
      "v": 68
    },
    {
      "midi": 67,
      "hit": false,
      "t": 128881.80050000013,
      "d": 585.3753833333467,
      "v": 68
    },
    {
      "midi": 60,
      "hit": false,
      "t": 129477.09750000015,
      "d": 585.3753833333321,
      "v": 68
    },
    {
      "midi": 72,
      "hit": false,
      "t": 129477.09750000015,
      "d": 585.3753833333321,
      "v": 68
    },
    {
      "midi": 59,
      "hit": false,
      "t": 130072.39450000015,
      "d": 585.3753833333321,
      "v": 68
    },
    {
      "midi": 71,
      "hit": false,
      "t": 130072.39450000015,
      "d": 585.3753833333321,
      "v": 68
    },
    {
      "midi": 60,
      "hit": false,
      "t": 130667.69150000016,
      "d": 585.3753833333321,
      "v": 68
    },
    {
      "midi": 72,
      "hit": false,
      "t": 130667.69150000016,
      "d": 585.3753833333321,
      "v": 68
    },
    {
      "midi": 60,
      "hit": false,
      "t": 131262.98850000015,
      "d": 292.6876916666806,
      "v": 68
    },
    {
      "midi": 72,
      "hit": false,
      "t": 131262.98850000015,
      "d": 292.6876916666806,
      "v": 68
    },
    {
      "midi": 60,
      "hit": false,
      "t": 131858.28550000017,
      "d": 585.3753833333321,
      "v": 68
    },
    {
      "midi": 72,
      "hit": false,
      "t": 131858.28550000017,
      "d": 585.3753833333321,
      "v": 68
    },
    {
      "midi": 60,
      "hit": false,
      "t": 132453.58250000016,
      "d": 292.6876916666806,
      "v": 68
    },
    {
      "midi": 72,
      "hit": false,
      "t": 132453.58250000016,
      "d": 585.3753833333612,
      "v": 68
    },
    {
      "midi": 71,
      "hit": false,
      "t": 133063.7619250002,
      "d": 1240.2020833333372,
      "v": 68
    },
    {
      "midi": 67,
      "hit": false,
      "t": 133673.9413500002,
      "d": 615.140233333339,
      "v": 68
    },
    {
      "midi": 69,
      "hit": false,
      "t": 134259.31673333354,
      "d": 1250.1237000000256,
      "v": 68
    },
    {
      "midi": 65,
      "hit": false,
      "t": 134844.69211666688,
      "d": 644.9050833333458,
      "v": 68
    },
    {
      "midi": 67,
      "hit": false,
      "t": 135454.8715416669,
      "d": 569.2527562500036,
      "v": 68
    },
    {
      "midi": 67,
      "hit": false,
      "t": 136025.36450000023,
      "d": 332.3741583333467,
      "v": 68
    },
    {
      "midi": 72,
      "hit": false,
      "t": 136025.36450000023,
      "d": 585.3753833333612,
      "v": 68
    },
    {
      "midi": 67,
      "hit": false,
      "t": 136620.66150000025,
      "d": 1165.7899583333347,
      "v": 68
    },
    {
      "midi": 72,
      "hit": false,
      "t": 137215.95850000024,
      "d": 585.3753833333321,
      "v": 68
    },
    {
      "midi": 71,
      "hit": false,
      "t": 137826.13792500025,
      "d": 1195.5548083333415,
      "v": 68
    },
    {
      "midi": 67,
      "hit": false,
      "t": 138401.59169166692,
      "d": 615.140233333339,
      "v": 67
    },
    {
      "midi": 69,
      "hit": false,
      "t": 138972.08465000027,
      "d": 664.7483166666352,
      "v": 67
    },
    {
      "midi": 65,
      "hit": false,
      "t": 139582.26407500025,
      "d": 560.5713416666549,
      "v": 68
    },
    {
      "midi": 72,
      "hit": false,
      "t": 140192.44350000023,
      "d": 575.4537666666729,
      "v": 68
    },
    {
      "midi": 64,
      "hit": false,
      "t": 140192.44350000023,
      "d": 585.3753833333321,
      "v": 68
    },
    {
      "midi": 69,
      "hit": false,
      "t": 140192.44350000023,
      "d": 585.3753833333321,
      "v": 68
    },
    {
      "midi": 72,
      "hit": false,
      "t": 140787.74050000022,
      "d": 575.4537666666729,
      "v": 68
    },
    {
      "midi": 64,
      "hit": false,
      "t": 140787.74050000022,
      "d": 585.3753833333321,
      "v": 68
    },
    {
      "midi": 69,
      "hit": false,
      "t": 140787.74050000022,
      "d": 585.3753833333321,
      "v": 68
    },
    {
      "midi": 64,
      "hit": false,
      "t": 141383.0375000002,
      "d": 575.4537666666729,
      "v": 68
    },
    {
      "midi": 72,
      "hit": false,
      "t": 141383.0375000002,
      "d": 575.4537666666729,
      "v": 68
    },
    {
      "midi": 69,
      "hit": false,
      "t": 141383.0375000002,
      "d": 585.3753833333321,
      "v": 68
    },
    {
      "midi": 69,
      "hit": false,
      "t": 141978.3345000002,
      "d": 575.4537666666729,
      "v": 68
    },
    {
      "midi": 72,
      "hit": false,
      "t": 141978.3345000002,
      "d": 575.4537666666729,
      "v": 68
    },
    {
      "midi": 64,
      "hit": false,
      "t": 141978.3345000002,
      "d": 585.3753833333321,
      "v": 68
    },
    {
      "midi": 67,
      "hit": false,
      "t": 142573.6315000002,
      "d": 585.3753833333321,
      "v": 68
    },
    {
      "midi": 71,
      "hit": false,
      "t": 142573.6315000002,
      "d": 585.3753833333321,
      "v": 68
    },
    {
      "midi": 62,
      "hit": false,
      "t": 142588.51392500018,
      "d": 570.4929583333433,
      "v": 68
    },
    {
      "midi": 62,
      "hit": false,
      "t": 143168.92850000018,
      "d": 585.3753833333321,
      "v": 68
    },
    {
      "midi": 67,
      "hit": false,
      "t": 143168.92850000018,
      "d": 585.3753833333321,
      "v": 68
    },
    {
      "midi": 71,
      "hit": false,
      "t": 143168.92850000018,
      "d": 585.3753833333321,
      "v": 68
    },
    {
      "midi": 62,
      "hit": false,
      "t": 143764.22550000018,
      "d": 585.3753833333321,
      "v": 68
    },
    {
      "midi": 67,
      "hit": false,
      "t": 143764.22550000018,
      "d": 585.3753833333321,
      "v": 68
    },
    {
      "midi": 71,
      "hit": false,
      "t": 143764.22550000018,
      "d": 585.3753833333321,
      "v": 68
    },
    {
      "midi": 71,
      "hit": false,
      "t": 144359.52250000017,
      "d": 575.4537666666729,
      "v": 68
    },
    {
      "midi": 62,
      "hit": false,
      "t": 144359.52250000017,
      "d": 585.3753833333321,
      "v": 68
    },
    {
      "midi": 67,
      "hit": false,
      "t": 144359.52250000017,
      "d": 585.3753833333321,
      "v": 68
    },
    {
      "midi": 60,
      "hit": false,
      "t": 144954.81950000016,
      "d": 585.3753833333321,
      "v": 68
    },
    {
      "midi": 67,
      "hit": false,
      "t": 144954.81950000016,
      "d": 585.3753833333321,
      "v": 68
    },
    {
      "midi": 69,
      "hit": false,
      "t": 144954.81950000016,
      "d": 585.3753833333321,
      "v": 68
    },
    {
      "midi": 60,
      "hit": false,
      "t": 145550.11650000015,
      "d": 292.6876916666806,
      "v": 68
    },
    {
      "midi": 65,
      "hit": false,
      "t": 145550.11650000015,
      "d": 292.6876916666806,
      "v": 68
    },
    {
      "midi": 67,
      "hit": false,
      "t": 145847.76500000016,
      "d": 143.8634416666755,
      "v": 68
    },
    {
      "midi": 72,
      "hit": false,
      "t": 145847.76500000016,
      "d": 143.8634416666755,
      "v": 68
    },
    {
      "midi": 76,
      "hit": false,
      "t": 145847.76500000016,
      "d": 143.8634416666755,
      "v": 68
    },
    {
      "midi": 67,
      "hit": false,
      "t": 146145.41350000017,
      "d": 436.551133333327,
      "v": 68
    },
    {
      "midi": 72,
      "hit": false,
      "t": 146145.41350000017,
      "d": 436.551133333327,
      "v": 68
    },
    {
      "midi": 76,
      "hit": false,
      "t": 146145.41350000017,
      "d": 436.551133333327,
      "v": 68
    },
    {
      "midi": 67,
      "hit": false,
      "t": 146740.71050000016,
      "d": 436.551133333327,
      "v": 68
    },
    {
      "midi": 72,
      "hit": false,
      "t": 146740.71050000016,
      "d": 436.551133333327,
      "v": 68
    },
    {
      "midi": 65,
      "hit": false,
      "t": 147336.00750000015,
      "d": 436.551133333327,
      "v": 68
    },
    {
      "midi": 72,
      "hit": false,
      "t": 147336.00750000015,
      "d": 436.551133333327,
      "v": 68
    },
    {
      "midi": 67,
      "hit": false,
      "t": 147931.30450000014,
      "d": 436.551133333327,
      "v": 68
    },
    {
      "midi": 72,
      "hit": false,
      "t": 147931.30450000014,
      "d": 436.551133333327,
      "v": 68
    },
    {
      "midi": 65,
      "hit": false,
      "t": 148526.60150000014,
      "d": 436.551133333327,
      "v": 68
    },
    {
      "midi": 72,
      "hit": false,
      "t": 148526.60150000014,
      "d": 436.551133333327,
      "v": 68
    },
    {
      "midi": 67,
      "hit": false,
      "t": 149121.89850000013,
      "d": 436.551133333327,
      "v": 68
    },
    {
      "midi": 72,
      "hit": false,
      "t": 149121.89850000013,
      "d": 436.551133333327,
      "v": 68
    },
    {
      "midi": 69,
      "hit": false,
      "t": 152098.3835000001,
      "d": 436.551133333327,
      "v": 68
    },
    {
      "midi": 71,
      "hit": false,
      "t": 152098.3835000001,
      "d": 1314.6142083333107,
      "v": 68
    },
    {
      "midi": 69,
      "hit": false,
      "t": 152693.6805000001,
      "d": 436.551133333327,
      "v": 68
    },
    {
      "midi": 67,
      "hit": false,
      "t": 152693.6805000001,
      "d": 585.3753833333321,
      "v": 68
    },
    {
      "midi": 69,
      "hit": false,
      "t": 153288.9775000001,
      "d": 1314.6142083333107,
      "v": 68
    },
    {
      "midi": 65,
      "hit": false,
      "t": 153884.2745000001,
      "d": 729.2388249999785,
      "v": 68
    },
    {
      "midi": 67,
      "hit": false,
      "t": 154479.57150000008,
      "d": 873.102266666654,
      "v": 68
    },
    {
      "midi": 67,
      "hit": false,
      "t": 157014.5445583334,
      "d": 133.94182500001625,
      "v": 68
    },
    {
      "midi": 69,
      "hit": false,
      "t": 157088.9566833334,
      "d": 124.020208333357,
      "v": 68
    },
    {
      "midi": 71,
      "hit": false,
      "t": 157178.25123333343,
      "d": 381.98224166667205,
      "v": 68
    },
    {
      "midi": 69,
      "hit": false,
      "t": 157456.0565000001,
      "d": 337.33496666667634,
      "v": 68
    },
    {
      "midi": 67,
      "hit": false,
      "t": 157768.5874250001,
      "d": 347.2565833333356,
      "v": 68
    },
    {
      "midi": 69,
      "hit": false,
      "t": 158061.27511666677,
      "d": 1140.9859166666574,
      "v": 68
    },
    {
      "midi": 72,
      "hit": false,
      "t": 158641.68969166678,
      "d": 595.2969999999914,
      "v": 68
    },
    {
      "midi": 69,
      "hit": false,
      "t": 159534.63519166678,
      "d": 763.964483333315,
      "v": 67
    },
    {
      "midi": 72,
      "hit": false,
      "t": 159539.5960000001,
      "d": 873.102266666654,
      "v": 67
    },
    {
      "midi": 64,
      "hit": false,
      "t": 159544.55680833344,
      "d": 759.0036749999854,
      "v": 67
    },
    {
      "midi": 72,
      "hit": false,
      "t": 160730.1900000001,
      "d": 292.6876916666806,
      "v": 67
    },
    {
      "midi": 71,
      "hit": false,
      "t": 161027.8385000001,
      "d": 585.3753833333321,
      "v": 67
    },
    {
      "midi": 67,
      "hit": false,
      "t": 161325.4870000001,
      "d": 292.6876916666515,
      "v": 67
    },
    {
      "midi": 65,
      "hit": false,
      "t": 161623.1355000001,
      "d": 2043.8530333333474,
      "v": 67
    },
    {
      "midi": 67,
      "hit": false,
      "t": 161623.1355000001,
      "d": 2043.8530333333474,
      "v": 67
    },
    {
      "midi": 72,
      "hit": false,
      "t": 161623.1355000001,
      "d": 2043.8530333333474,
      "v": 67
    },
    {
      "midi": 72,
      "hit": false,
      "t": 169079.2304250001,
      "d": 610.1794250000094,
      "v": 81
    },
    {
      "midi": 67,
      "hit": false,
      "t": 169366.95730833343,
      "d": 461.35517500003334,
      "v": 65
    },
    {
      "midi": 60,
      "hit": false,
      "t": 169664.60580833344,
      "d": 208.3539500000188,
      "v": 71
    },
    {
      "midi": 65,
      "hit": false,
      "t": 169977.13673333346,
      "d": 1071.5346000000136,
      "v": 83
    },
    {
      "midi": 67,
      "hit": false,
      "t": 169987.05835000012,
      "d": 1106.26025833335,
      "v": 87
    },
    {
      "midi": 60,
      "hit": false,
      "t": 169996.97996666678,
      "d": 569.2527562500036,
      "v": 89
    },
    {
      "midi": 60,
      "hit": false,
      "t": 170567.47292500013,
      "d": 297.64850000001024,
      "v": 77
    },
    {
      "midi": 57,
      "hit": false,
      "t": 170845.2781916668,
      "d": 347.2565833333356,
      "v": 75
    },
    {
      "midi": 60,
      "hit": false,
      "t": 171147.88750000013,
      "d": 322.45254166665836,
      "v": 83
    },
    {
      "midi": 43,
      "hit": false,
      "t": 171485.22246666678,
      "d": 2108.3435416666325,
      "v": 90
    },
    {
      "midi": 50,
      "hit": false,
      "t": 171753.10611666678,
      "d": 1860.3031249999767,
      "v": 86
    },
    {
      "midi": 55,
      "hit": false,
      "t": 172050.7546166668,
      "d": 1567.615433333296,
      "v": 67
    },
    {
      "midi": 71,
      "hit": false,
      "t": 172333.52069166678,
      "d": 535.7672999999777,
      "v": 103
    },
    {
      "midi": 62,
      "hit": false,
      "t": 172343.44230833344,
      "d": 525.8456833333184,
      "v": 92
    },
    {
      "midi": 67,
      "hit": false,
      "t": 172353.3639250001,
      "d": 520.8848749999888,
      "v": 85
    },
    {
      "midi": 62,
      "hit": false,
      "t": 172963.54335000008,
      "d": 709.39559166666,
      "v": 99
    },
    {
      "midi": 67,
      "hit": false,
      "t": 172973.46496666674,
      "d": 699.4739750000008,
      "v": 95
    },
    {
      "midi": 45,
      "hit": false,
      "t": 173851.52804166675,
      "d": 1711.4788750000007,
      "v": 78
    },
    {
      "midi": 67,
      "hit": false,
      "t": 174129.33330833341,
      "d": 446.47275000001537,
      "v": 60
    },
    {
      "midi": 52,
      "hit": false,
      "t": 174129.33330833341,
      "d": 1453.5168416666857,
      "v": 73
    },
    {
      "midi": 64,
      "hit": false,
      "t": 174139.25492500007,
      "d": 446.47275000001537,
      "v": 71
    },
    {
      "midi": 57,
      "hit": false,
      "t": 174431.94261666675,
      "d": 1155.8683416666754,
      "v": 76
    },
    {
      "midi": 64,
      "hit": false,
      "t": 174729.59111666676,
      "d": 942.553583333327,
      "v": 95
    },
    {
      "midi": 67,
      "hit": false,
      "t": 174739.51273333342,
      "d": 972.3184333333338,
      "v": 83
    },
    {
      "midi": 62,
      "hit": false,
      "t": 175910.2635000001,
      "d": 436.551133333327,
      "v": 76
    },
    {
      "midi": 65,
      "hit": false,
      "t": 175910.2635000001,
      "d": 436.551133333327,
      "v": 82
    },
    {
      "midi": 69,
      "hit": false,
      "t": 175910.2635000001,
      "d": 436.551133333327,
      "v": 78
    },
    {
      "midi": 62,
      "hit": false,
      "t": 176505.56050000008,
      "d": 585.3753833333321,
      "v": 78
    },
    {
      "midi": 65,
      "hit": false,
      "t": 176505.56050000008,
      "d": 585.3753833333321,
      "v": 85
    },
    {
      "midi": 69,
      "hit": false,
      "t": 176505.56050000008,
      "d": 585.3753833333321,
      "v": 72
    },
    {
      "midi": 62,
      "hit": false,
      "t": 177100.85750000007,
      "d": 436.5511333333561,
      "v": 60
    },
    {
      "midi": 72,
      "hit": false,
      "t": 177100.85750000007,
      "d": 1021.9265166666883,
      "v": 87
    },
    {
      "midi": 69,
      "hit": false,
      "t": 177249.68175000008,
      "d": 143.8634416666755,
      "v": 35
    },
    {
      "midi": 67,
      "hit": false,
      "t": 177691.19369166676,
      "d": 461.35517500000424,
      "v": 70
    },
    {
      "midi": 67,
      "hit": false,
      "t": 178301.37311666677,
      "d": 317.49173333332874,
      "v": 72
    },
    {
      "midi": 72,
      "hit": false,
      "t": 178574.2175750001,
      "d": 327.413349999988,
      "v": 72
    },
    {
      "midi": 67,
      "hit": false,
      "t": 178856.9836500001,
      "d": 367.0998166666541,
      "v": 60
    },
    {
      "midi": 72,
      "hit": false,
      "t": 179169.5145750001,
      "d": 322.45254166665836,
      "v": 78
    },
    {
      "midi": 67,
      "hit": false,
      "t": 179457.24145833342,
      "d": 362.13900833332445,
      "v": 61
    },
    {
      "midi": 72,
      "hit": false,
      "t": 179764.8115750001,
      "d": 868.1414583333244,
      "v": 75
    },
    {
      "midi": 67,
      "hit": false,
      "t": 180052.5384583334,
      "d": 545.688916666666,
      "v": 69
    },
    {
      "midi": 62,
      "hit": false,
      "t": 180355.14776666675,
      "d": 367.0998166666541,
      "v": 77
    },
    {
      "midi": 62,
      "hit": false,
      "t": 181000.05285000007,
      "d": 744.1212500000256,
      "v": 83
    },
    {
      "midi": 60,
      "hit": false,
      "t": 181292.74054166675,
      "d": 461.35517500000424,
      "v": 80
    },
    {
      "midi": 72,
      "hit": false,
      "t": 181873.15511666675,
      "d": 625.0618499999982,
      "v": 80
    },
    {
      "midi": 71,
      "hit": false,
      "t": 182473.41292500007,
      "d": 605.2186166666797,
      "v": 90
    },
    {
      "midi": 72,
      "hit": false,
      "t": 183053.82750000007,
      "d": 594.0567979166517,
      "v": 83
    },
    {
      "midi": 60,
      "hit": false,
      "t": 183351.47600000005,
      "d": 873.102266666654,
      "v": 80
    },
    {
      "midi": 72,
      "hit": false,
      "t": 183649.12450000006,
      "d": 218.27556666667806,
      "v": 59
    },
    {
      "midi": 84,
      "hit": false,
      "t": 183946.77300000007,
      "d": 292.6876916666806,
      "v": 74
    },
    {
      "midi": 60,
      "hit": false,
      "t": 184244.42150000005,
      "d": 858.2198416666652,
      "v": 83
    },
    {
      "midi": 84,
      "hit": false,
      "t": 184244.42150000008,
      "d": 1751.1653416666668,
      "v": 75
    },
    {
      "midi": 76,
      "hit": false,
      "t": 184839.71850000008,
      "d": 585.3753833333321,
      "v": 72
    },
    {
      "midi": 60,
      "hit": false,
      "t": 185137.36700000006,
      "d": 565.5321499999845,
      "v": 87
    },
    {
      "midi": 77,
      "hit": false,
      "t": 185435.01550000007,
      "d": 585.3753833333612,
      "v": 85
    },
    {
      "midi": 65,
      "hit": false,
      "t": 185732.66400000005,
      "d": 585.3753833333321,
      "v": 66
    },
    {
      "midi": 72,
      "hit": false,
      "t": 186030.3125000001,
      "d": 292.6876916666806,
      "v": 68
    },
    {
      "midi": 77,
      "hit": false,
      "t": 186327.9610000001,
      "d": 292.6876916666806,
      "v": 67
    },
    {
      "midi": 65,
      "hit": false,
      "t": 186625.60950000005,
      "d": 873.102266666654,
      "v": 73
    },
    {
      "midi": 76,
      "hit": false,
      "t": 186625.6095000001,
      "d": 292.6876916666806,
      "v": 66
    },
    {
      "midi": 77,
      "hit": false,
      "t": 186923.25800000012,
      "d": 292.6876916666806,
      "v": 76
    },
    {
      "midi": 79,
      "hit": false,
      "t": 187220.90650000013,
      "d": 1165.7899583333638,
      "v": 81
    },
    {
      "midi": 65,
      "hit": false,
      "t": 187518.55500000005,
      "d": 585.3753833333321,
      "v": 64
    },
    {
      "midi": 72,
      "hit": false,
      "t": 187816.20350000015,
      "d": 585.3753833333321,
      "v": 71
    },
    {
      "midi": 62,
      "hit": false,
      "t": 188113.85200000004,
      "d": 873.102266666654,
      "v": 75
    },
    {
      "midi": 72,
      "hit": false,
      "t": 188411.50050000014,
      "d": 585.3753833333321,
      "v": 70
    },
    {
      "midi": 84,
      "hit": false,
      "t": 188709.14900000015,
      "d": 292.6876916666515,
      "v": 83
    },
    {
      "midi": 62,
      "hit": false,
      "t": 189006.79750000004,
      "d": 873.102266666654,
      "v": 78
    },
    {
      "midi": 84,
      "hit": false,
      "t": 189006.79750000013,
      "d": 2043.8530333333474,
      "v": 83
    },
    {
      "midi": 76,
      "hit": false,
      "t": 189602.09450000012,
      "d": 585.3753833333321,
      "v": 66
    },
    {
      "midi": 62,
      "hit": false,
      "t": 189899.74300000005,
      "d": 585.3753833333321,
      "v": 80
    },
    {
      "midi": 77,
      "hit": false,
      "t": 190197.3915000001,
      "d": 873.1022666667122,
      "v": 85
    },
    {
      "midi": 67,
      "hit": false,
      "t": 190495.04000000004,
      "d": 873.102266666654,
      "v": 87
    },
    {
      "midi": 72,
      "hit": false,
      "t": 190792.68850000013,
      "d": 1458.4776500000735,
      "v": 64
    },
    {
      "midi": 77,
      "hit": false,
      "t": 191090.33700000017,
      "d": 292.6876916666806,
      "v": 66
    },
    {
      "midi": 67,
      "hit": false,
      "t": 191387.98550000004,
      "d": 873.102266666654,
      "v": 80
    },
    {
      "midi": 76,
      "hit": false,
      "t": 191387.98550000018,
      "d": 292.6876916666806,
      "v": 49
    },
    {
      "midi": 77,
      "hit": false,
      "t": 191685.6340000002,
      "d": 292.6876916666806,
      "v": 71
    },
    {
      "midi": 79,
      "hit": false,
      "t": 191983.2825000002,
      "d": 292.6876916666806,
      "v": 67
    },
    {
      "midi": 67,
      "hit": false,
      "t": 192280.93100000004,
      "d": 585.3753833333321,
      "v": 86
    },
    {
      "midi": 72,
      "hit": false,
      "t": 192593.4619250002,
      "d": 600.257808333321,
      "v": 53
    },
    {
      "midi": 60,
      "hit": false,
      "t": 192876.22800000003,
      "d": 873.102266666654,
      "v": 80
    },
    {
      "midi": 84,
      "hit": false,
      "t": 193173.8765000002,
      "d": 297.64850000001024,
      "v": 73
    },
    {
      "midi": 72,
      "hit": false,
      "t": 193471.5250000002,
      "d": 292.6876916666806,
      "v": 83
    },
    {
      "midi": 60,
      "hit": false,
      "t": 193769.17350000003,
      "d": 858.2198416666652,
      "v": 83
    },
    {
      "midi": 84,
      "hit": false,
      "t": 193769.1735000002,
      "d": 585.3753833333321,
      "v": 75
    },
    {
      "midi": 72,
      "hit": false,
      "t": 194364.4705000002,
      "d": 580.4145750000025,
      "v": 68
    },
    {
      "midi": 76,
      "hit": false,
      "t": 194364.4705000002,
      "d": 585.3753833333321,
      "v": 72
    },
    {
      "midi": 60,
      "hit": false,
      "t": 194662.11900000004,
      "d": 565.5321500000136,
      "v": 87
    },
    {
      "midi": 72,
      "hit": false,
      "t": 194959.7675000002,
      "d": 585.3753833333321,
      "v": 73
    },
    {
      "midi": 77,
      "hit": false,
      "t": 194959.7675000002,
      "d": 585.3753833333321,
      "v": 85
    },
    {
      "midi": 65,
      "hit": false,
      "t": 195257.41600000006,
      "d": 585.3753833333321,
      "v": 66
    },
    {
      "midi": 72,
      "hit": false,
      "t": 195555.06450000018,
      "d": 292.6876916666806,
      "v": 68
    },
    {
      "midi": 77,
      "hit": false,
      "t": 195852.7130000002,
      "d": 292.6876916666806,
      "v": 67
    },
    {
      "midi": 65,
      "hit": false,
      "t": 196150.36150000006,
      "d": 873.102266666654,
      "v": 73
    },
    {
      "midi": 76,
      "hit": false,
      "t": 196150.3615000002,
      "d": 292.6876916666806,
      "v": 66
    },
    {
      "midi": 77,
      "hit": false,
      "t": 196448.0100000002,
      "d": 292.6876916666806,
      "v": 76
    },
    {
      "midi": 79,
      "hit": false,
      "t": 196745.65850000022,
      "d": 1165.7899583333347,
      "v": 81
    },
    {
      "midi": 65,
      "hit": false,
      "t": 197043.30700000006,
      "d": 585.3753833333321,
      "v": 64
    },
    {
      "midi": 72,
      "hit": false,
      "t": 197340.95550000021,
      "d": 585.3753833333321,
      "v": 71
    },
    {
      "midi": 62,
      "hit": false,
      "t": 197638.60400000005,
      "d": 873.102266666654,
      "v": 75
    },
    {
      "midi": 72,
      "hit": false,
      "t": 197936.2525000002,
      "d": 585.3753833333321,
      "v": 70
    },
    {
      "midi": 84,
      "hit": false,
      "t": 198233.90100000022,
      "d": 292.6876916666515,
      "v": 83
    },
    {
      "midi": 62,
      "hit": false,
      "t": 198531.54950000005,
      "d": 873.102266666654,
      "v": 78
    },
    {
      "midi": 84,
      "hit": false,
      "t": 198531.5495000002,
      "d": 2043.8530333333183,
      "v": 83
    },
    {
      "midi": 76,
      "hit": false,
      "t": 199126.8465000002,
      "d": 585.3753833333321,
      "v": 66
    },
    {
      "midi": 62,
      "hit": false,
      "t": 199424.49500000005,
      "d": 585.3753833333321,
      "v": 80
    },
    {
      "midi": 72,
      "hit": false,
      "t": 199722.14350000018,
      "d": 585.3753833333321,
      "v": 70
    },
    {
      "midi": 77,
      "hit": false,
      "t": 199722.14350000018,
      "d": 873.1022666666831,
      "v": 85
    },
    {
      "midi": 67,
      "hit": false,
      "t": 200019.79200000004,
      "d": 873.102266666654,
      "v": 87
    },
    {
      "midi": 72,
      "hit": false,
      "t": 200317.44050000017,
      "d": 1458.4776500000735,
      "v": 64
    },
    {
      "midi": 77,
      "hit": false,
      "t": 200615.0890000002,
      "d": 292.6876916666806,
      "v": 66
    },
    {
      "midi": 67,
      "hit": false,
      "t": 200912.73750000005,
      "d": 873.102266666654,
      "v": 80
    },
    {
      "midi": 76,
      "hit": false,
      "t": 200912.73750000022,
      "d": 292.6876916666806,
      "v": 49
    },
    {
      "midi": 77,
      "hit": false,
      "t": 201210.38600000023,
      "d": 292.6876916666806,
      "v": 71
    },
    {
      "midi": 79,
      "hit": false,
      "t": 201508.03450000024,
      "d": 292.6876916666806,
      "v": 67
    },
    {
      "midi": 67,
      "hit": false,
      "t": 201805.68300000005,
      "d": 585.3753833333321,
      "v": 86
    },
    {
      "midi": 77,
      "hit": false,
      "t": 201805.68300000025,
      "d": 292.6876916666806,
      "v": 77
    },
    {
      "midi": 76,
      "hit": false,
      "t": 202103.33150000026,
      "d": 292.6876916666806,
      "v": 72
    },
    {
      "midi": 64,
      "hit": false,
      "t": 202400.98000000004,
      "d": 585.3753833333321,
      "v": 71
    },
    {
      "midi": 84,
      "hit": false,
      "t": 202698.62850000028,
      "d": 585.3753833333321,
      "v": 64
    },
    {
      "midi": 72,
      "hit": false,
      "t": 202996.2770000003,
      "d": 585.375383333303,
      "v": 53
    },
    {
      "midi": 64,
      "hit": false,
      "t": 203293.92550000004,
      "d": 585.3753833333321,
      "v": 64
    },
    {
      "midi": 84,
      "hit": false,
      "t": 203293.92550000027,
      "d": 1751.1653416666668,
      "v": 80
    },
    {
      "midi": 72,
      "hit": false,
      "t": 203889.22250000027,
      "d": 585.3753833333321,
      "v": 71
    },
    {
      "midi": 79,
      "hit": false,
      "t": 203889.22250000027,
      "d": 1165.7899583333347,
      "v": 81
    },
    {
      "midi": 64,
      "hit": false,
      "t": 204186.87100000004,
      "d": 292.6876916666806,
      "v": 46
    },
    {
      "midi": 72,
      "hit": false,
      "t": 204484.51950000026,
      "d": 585.3753833333321,
      "v": 68
    },
    {
      "midi": 76,
      "hit": false,
      "t": 204484.51950000026,
      "d": 585.3753833333321,
      "v": 72
    },
    {
      "midi": 69,
      "hit": false,
      "t": 204782.16800000027,
      "d": 1165.7899583333347,
      "v": 56
    },
    {
      "midi": 72,
      "hit": false,
      "t": 205079.81650000025,
      "d": 292.6876916666806,
      "v": 68
    },
    {
      "midi": 76,
      "hit": false,
      "t": 205377.46500000026,
      "d": 292.6876916666806,
      "v": 51
    },
    {
      "midi": 72,
      "hit": false,
      "t": 205675.11350000027,
      "d": 292.6876916666806,
      "v": 66
    },
    {
      "midi": 76,
      "hit": false,
      "t": 205972.76200000028,
      "d": 292.6876916666806,
      "v": 71
    },
    {
      "midi": 72,
      "hit": false,
      "t": 205972.76200000028,
      "d": 585.3753833333321,
      "v": 68
    },
    {
      "midi": 77,
      "hit": false,
      "t": 206270.4105000003,
      "d": 292.6876916666515,
      "v": 68
    },
    {
      "midi": 69,
      "hit": false,
      "t": 206568.05900000027,
      "d": 292.6876916666806,
      "v": 47
    },
    {
      "midi": 79,
      "hit": false,
      "t": 206568.05900000027,
      "d": 292.6876916666806,
      "v": 80
    },
    {
      "midi": 72,
      "hit": false,
      "t": 206865.70750000028,
      "d": 292.6876916666806,
      "v": 63
    },
    {
      "midi": 81,
      "hit": false,
      "t": 206865.70750000028,
      "d": 585.3753833333612,
      "v": 72
    },
    {
      "midi": 62,
      "hit": false,
      "t": 207163.35600000006,
      "d": 585.3753833333321,
      "v": 72
    },
    {
      "midi": 72,
      "hit": false,
      "t": 207461.0045000003,
      "d": 292.6876916666806,
      "v": 83
    },
    {
      "midi": 76,
      "hit": false,
      "t": 207758.6530000003,
      "d": 292.6876916666806,
      "v": 82
    },
    {
      "midi": 62,
      "hit": false,
      "t": 208056.30150000006,
      "d": 873.102266666654,
      "v": 71
    },
    {
      "midi": 72,
      "hit": false,
      "t": 208056.30150000032,
      "d": 585.3753833333321,
      "v": 92
    },
    {
      "midi": 76,
      "hit": false,
      "t": 208056.30150000032,
      "d": 585.3753833333321,
      "v": 71
    },
    {
      "midi": 72,
      "hit": false,
      "t": 208651.5985000003,
      "d": 585.3753833333321,
      "v": 87
    },
    {
      "midi": 76,
      "hit": false,
      "t": 208651.5985000003,
      "d": 585.3753833333321,
      "v": 80
    },
    {
      "midi": 62,
      "hit": false,
      "t": 208949.24700000006,
      "d": 585.3753833333321,
      "v": 71
    },
    {
      "midi": 72,
      "hit": false,
      "t": 209246.8955000003,
      "d": 585.3753833333321,
      "v": 75
    },
    {
      "midi": 76,
      "hit": false,
      "t": 209246.8955000003,
      "d": 585.3753833333321,
      "v": 71
    },
    {
      "midi": 67,
      "hit": false,
      "t": 209544.54400000005,
      "d": 585.3753833333321,
      "v": 80
    },
    {
      "midi": 74,
      "hit": false,
      "t": 209842.1925000003,
      "d": 292.6876916666806,
      "v": 57
    },
    {
      "midi": 76,
      "hit": false,
      "t": 210139.8410000003,
      "d": 585.3753833333321,
      "v": 75
    },
    {
      "midi": 72,
      "hit": false,
      "t": 210437.48950000032,
      "d": 292.6876916666515,
      "v": 67
    },
    {
      "midi": 79,
      "hit": false,
      "t": 210437.48950000032,
      "d": 585.3753833333321,
      "v": 66
    },
    {
      "midi": 67,
      "hit": false,
      "t": 210735.13800000006,
      "d": 292.6876916666806,
      "v": 65
    },
    {
      "midi": 71,
      "hit": false,
      "t": 211032.7865000003,
      "d": 292.6876916666806,
      "v": 86
    },
    {
      "midi": 67,
      "hit": false,
      "t": 211330.43500000008,
      "d": 292.6876916666806,
      "v": 58
    },
    {
      "midi": 72,
      "hit": false,
      "t": 211628.08350000033,
      "d": 585.3753833333321,
      "v": 72
    },
    {
      "midi": 60,
      "hit": false,
      "t": 212223.38050000032,
      "d": 585.3753833333321,
      "v": 68
    },
    {
      "midi": 67,
      "hit": false,
      "t": 212521.02900000033,
      "d": 585.375383333303,
      "v": 68
    },
    {
      "midi": 72,
      "hit": false,
      "t": 212818.6775000003,
      "d": 1165.7899583333347,
      "v": 68
    },
    {
      "midi": 67,
      "hit": false,
      "t": 213413.9745000003,
      "d": 585.3753833333321,
      "v": 68
    },
    {
      "midi": 71,
      "hit": false,
      "t": 214009.2715000003,
      "d": 585.3753833333321,
      "v": 68
    },
    {
      "midi": 69,
      "hit": false,
      "t": 214604.56850000028,
      "d": 585.3753833333321,
      "v": 68
    },
    {
      "midi": 69,
      "hit": false,
      "t": 215199.86550000028,
      "d": 1458.4776500000153,
      "v": 68
    },
    {
      "midi": 65,
      "hit": false,
      "t": 215795.16250000027,
      "d": 292.6876916666806,
      "v": 68
    },
    {
      "midi": 60,
      "hit": false,
      "t": 216092.81100000028,
      "d": 585.3753833333612,
      "v": 68
    },
    {
      "midi": 65,
      "hit": false,
      "t": 216390.4595000003,
      "d": 292.6876916666806,
      "v": 68
    },
    {
      "midi": 64,
      "hit": false,
      "t": 216688.1080000003,
      "d": 292.6876916666806,
      "v": 68
    },
    {
      "midi": 60,
      "hit": false,
      "t": 216985.7565000003,
      "d": 1165.7899583333347,
      "v": 68
    },
    {
      "midi": 64,
      "hit": false,
      "t": 217283.40500000032,
      "d": 585.3753833333321,
      "v": 68
    },
    {
      "midi": 72,
      "hit": false,
      "t": 217581.05350000033,
      "d": 873.102266666654,
      "v": 68
    },
    {
      "midi": 64,
      "hit": false,
      "t": 218176.35050000032,
      "d": 292.6876916666515,
      "v": 68
    },
    {
      "midi": 60,
      "hit": false,
      "t": 218473.9990000003,
      "d": 585.3753833333321,
      "v": 68
    },
    {
      "midi": 71,
      "hit": false,
      "t": 218771.6475000003,
      "d": 873.102266666654,
      "v": 68
    },
    {
      "midi": 69,
      "hit": false,
      "t": 219366.9445000003,
      "d": 292.6876916666515,
      "v": 68
    },
    {
      "midi": 69,
      "hit": false,
      "t": 219962.2415000003,
      "d": 1165.7899583333347,
      "v": 68
    },
    {
      "midi": 65,
      "hit": false,
      "t": 220557.5385000003,
      "d": 585.3753833333321,
      "v": 68
    },
    {
      "midi": 60,
      "hit": false,
      "t": 220855.1870000003,
      "d": 292.6876916666515,
      "v": 68
    },
    {
      "midi": 60,
      "hit": false,
      "t": 221748.13250000027,
      "d": 873.1022666666831,
      "v": 68
    },
    {
      "midi": 67,
      "hit": false,
      "t": 222045.78100000028,
      "d": 1751.1653416666668,
      "v": 68
    },
    {
      "midi": 72,
      "hit": false,
      "t": 222343.4295000003,
      "d": 873.102266666654,
      "v": 68
    },
    {
      "midi": 60,
      "hit": false,
      "t": 222938.72650000028,
      "d": 2331.57991666664,
      "v": 68
    },
    {
      "midi": 71,
      "hit": false,
      "t": 223534.02350000027,
      "d": 585.3753833333321,
      "v": 68
    },
    {
      "midi": 69,
      "hit": false,
      "t": 224129.32050000026,
      "d": 585.3753833333321,
      "v": 68
    },
    {
      "midi": 69,
      "hit": false,
      "t": 224724.61750000025,
      "d": 1165.7899583333347,
      "v": 68
    },
    {
      "midi": 65,
      "hit": false,
      "t": 225319.91450000025,
      "d": 585.3753833333321,
      "v": 68
    },
    {
      "midi": 60,
      "hit": false,
      "t": 225617.56300000026,
      "d": 585.3753833333321,
      "v": 68
    },
    {
      "midi": 64,
      "hit": false,
      "t": 226212.86000000025,
      "d": 292.6876916666806,
      "v": 68
    },
    {
      "midi": 60,
      "hit": false,
      "t": 226510.50850000026,
      "d": 1165.7899583333347,
      "v": 68
    },
    {
      "midi": 64,
      "hit": false,
      "t": 226808.15700000027,
      "d": 585.3753833333321,
      "v": 68
    },
    {
      "midi": 72,
      "hit": false,
      "t": 227105.80550000028,
      "d": 873.102266666654,
      "v": 68
    },
    {
      "midi": 64,
      "hit": false,
      "t": 227701.10250000027,
      "d": 292.6876916666515,
      "v": 68
    },
    {
      "midi": 60,
      "hit": false,
      "t": 227998.75100000025,
      "d": 585.3753833333321,
      "v": 68
    },
    {
      "midi": 71,
      "hit": false,
      "t": 228296.39950000026,
      "d": 585.3753833333321,
      "v": 68
    },
    {
      "midi": 69,
      "hit": false,
      "t": 228891.69650000025,
      "d": 585.3753833333321,
      "v": 68
    },
    {
      "midi": 69,
      "hit": false,
      "t": 229486.99350000024,
      "d": 1165.7899583333347,
      "v": 68
    },
    {
      "midi": 65,
      "hit": false,
      "t": 230082.29050000024,
      "d": 585.3753833333321,
      "v": 68
    },
    {
      "midi": 60,
      "hit": false,
      "t": 230379.93900000025,
      "d": 292.6876916666515,
      "v": 68
    },
    {
      "midi": 60,
      "hit": false,
      "t": 230975.23600000024,
      "d": 292.6876916666806,
      "v": 68
    },
    {
      "midi": 67,
      "hit": false,
      "t": 230975.23600000024,
      "d": 292.6876916666806,
      "v": 68
    },
    {
      "midi": 60,
      "hit": false,
      "t": 231272.88450000025,
      "d": 585.3753833333321,
      "v": 68
    },
    {
      "midi": 67,
      "hit": false,
      "t": 231272.88450000025,
      "d": 585.3753833333321,
      "v": 68
    },
    {
      "midi": 60,
      "hit": false,
      "t": 231868.18150000024,
      "d": 873.102266666654,
      "v": 68
    },
    {
      "midi": 67,
      "hit": false,
      "t": 231868.18150000024,
      "d": 873.102266666654,
      "v": 68
    },
    {
      "midi": 60,
      "hit": false,
      "t": 232761.12700000024,
      "d": 292.6876916666806,
      "v": 68
    },
    {
      "midi": 67,
      "hit": false,
      "t": 232761.12700000024,
      "d": 292.6876916666806,
      "v": 68
    },
    {
      "midi": 60,
      "hit": false,
      "t": 233058.77550000025,
      "d": 585.3753833333321,
      "v": 68
    },
    {
      "midi": 67,
      "hit": false,
      "t": 233058.77550000025,
      "d": 585.3753833333321,
      "v": 68
    },
    {
      "midi": 60,
      "hit": false,
      "t": 233654.07250000024,
      "d": 292.6876916666806,
      "v": 68
    },
    {
      "midi": 67,
      "hit": false,
      "t": 233654.07250000024,
      "d": 292.6876916666806,
      "v": 68
    },
    {
      "midi": 60,
      "hit": false,
      "t": 234249.36950000026,
      "d": 585.3753833333321,
      "v": 68
    },
    {
      "midi": 59,
      "hit": false,
      "t": 234844.66650000025,
      "d": 873.1022666666831,
      "v": 68
    },
    {
      "midi": 55,
      "hit": false,
      "t": 235142.31500000026,
      "d": 292.6876916666806,
      "v": 68
    },
    {
      "midi": 52,
      "hit": false,
      "t": 235439.96350000027,
      "d": 292.6876916666515,
      "v": 68
    },
    {
      "midi": 60,
      "hit": false,
      "t": 235737.61200000026,
      "d": 292.6876916666806,
      "v": 68
    },
    {
      "midi": 67,
      "hit": false,
      "t": 235737.61200000026,
      "d": 292.6876916666806,
      "v": 68
    },
    {
      "midi": 60,
      "hit": false,
      "t": 236035.26050000027,
      "d": 585.3753833333321,
      "v": 68
    },
    {
      "midi": 67,
      "hit": false,
      "t": 236035.26050000027,
      "d": 585.3753833333321,
      "v": 68
    },
    {
      "midi": 60,
      "hit": false,
      "t": 236630.55750000026,
      "d": 873.102266666654,
      "v": 68
    },
    {
      "midi": 67,
      "hit": false,
      "t": 236630.55750000026,
      "d": 873.102266666654,
      "v": 68
    },
    {
      "midi": 60,
      "hit": false,
      "t": 237523.50300000026,
      "d": 292.6876916666806,
      "v": 68
    },
    {
      "midi": 67,
      "hit": false,
      "t": 237523.50300000026,
      "d": 292.6876916666806,
      "v": 68
    },
    {
      "midi": 60,
      "hit": false,
      "t": 237821.15150000027,
      "d": 585.3753833333321,
      "v": 68
    },
    {
      "midi": 67,
      "hit": false,
      "t": 237821.15150000027,
      "d": 585.3753833333321,
      "v": 68
    },
    {
      "midi": 60,
      "hit": false,
      "t": 238416.44850000026,
      "d": 292.6876916666806,
      "v": 68
    },
    {
      "midi": 67,
      "hit": false,
      "t": 238416.44850000026,
      "d": 292.6876916666806,
      "v": 68
    },
    {
      "midi": 60,
      "hit": false,
      "t": 239011.74550000028,
      "d": 585.3753833333321,
      "v": 68
    },
    {
      "midi": 59,
      "hit": false,
      "t": 239607.04250000027,
      "d": 292.6876916666806,
      "v": 68
    },
    {
      "midi": 53,
      "hit": false,
      "t": 239904.69100000028,
      "d": 292.6876916666806,
      "v": 68
    },
    {
      "midi": 55,
      "hit": false,
      "t": 239904.69100000028,
      "d": 292.6876916666806,
      "v": 68
    },
    {
      "midi": 50,
      "hit": false,
      "t": 240202.3395000003,
      "d": 292.6876916666806,
      "v": 68
    },
    {
      "midi": 60,
      "hit": false,
      "t": 240499.9880000003,
      "d": 292.6876916666806,
      "v": 68
    },
    {
      "midi": 67,
      "hit": false,
      "t": 240499.9880000003,
      "d": 292.6876916666806,
      "v": 68
    },
    {
      "midi": 60,
      "hit": false,
      "t": 240797.6365000003,
      "d": 292.6876916666806,
      "v": 68
    },
    {
      "midi": 67,
      "hit": false,
      "t": 240797.6365000003,
      "d": 292.6876916666806,
      "v": 68
    },
    {
      "midi": 60,
      "hit": false,
      "t": 241392.93350000033,
      "d": 585.3753833333321,
      "v": 68
    },
    {
      "midi": 67,
      "hit": false,
      "t": 241392.93350000033,
      "d": 585.3753833333321,
      "v": 68
    },
    {
      "midi": 60,
      "hit": false,
      "t": 242285.87900000034,
      "d": 292.6876916666806,
      "v": 68
    },
    {
      "midi": 67,
      "hit": false,
      "t": 242285.87900000034,
      "d": 292.6876916666806,
      "v": 68
    },
    {
      "midi": 62,
      "hit": false,
      "t": 242583.52750000035,
      "d": 585.3753833333321,
      "v": 68
    },
    {
      "midi": 67,
      "hit": false,
      "t": 242583.52750000035,
      "d": 585.3753833333321,
      "v": 68
    },
    {
      "midi": 62,
      "hit": false,
      "t": 243178.82450000034,
      "d": 585.3753833333321,
      "v": 68
    },
    {
      "midi": 67,
      "hit": false,
      "t": 243178.82450000034,
      "d": 585.3753833333321,
      "v": 68
    },
    {
      "midi": 60,
      "hit": false,
      "t": 243774.12150000033,
      "d": 292.6876916666806,
      "v": 68
    },
    {
      "midi": 67,
      "hit": false,
      "t": 243774.12150000033,
      "d": 585.3753833333612,
      "v": 68
    },
    {
      "midi": 59,
      "hit": false,
      "t": 244369.41850000035,
      "d": 585.3753833333321,
      "v": 68
    },
    {
      "midi": 67,
      "hit": false,
      "t": 244369.41850000035,
      "d": 585.3753833333321,
      "v": 68
    },
    {
      "midi": 57,
      "hit": false,
      "t": 244964.71550000034,
      "d": 585.3753833333321,
      "v": 68
    },
    {
      "midi": 64,
      "hit": false,
      "t": 244964.71550000034,
      "d": 585.3753833333321,
      "v": 68
    },
    {
      "midi": 67,
      "hit": false,
      "t": 244964.71550000034,
      "d": 585.3753833333321,
      "v": 68
    },
    {
      "midi": 67,
      "hit": false,
      "t": 245560.01250000033,
      "d": 292.6876916666806,
      "v": 68
    },
    {
      "midi": 67,
      "hit": false,
      "t": 245857.66100000034,
      "d": 292.6876916666806,
      "v": 68
    },
    {
      "midi": 72,
      "hit": false,
      "t": 245857.66100000034,
      "d": 292.6876916666806,
      "v": 68
    },
    {
      "midi": 76,
      "hit": false,
      "t": 245857.66100000034,
      "d": 292.6876916666806,
      "v": 68
    },
    {
      "midi": 67,
      "hit": false,
      "t": 246155.30950000035,
      "d": 292.6876916666806,
      "v": 68
    },
    {
      "midi": 72,
      "hit": false,
      "t": 246155.30950000035,
      "d": 585.3753833333612,
      "v": 68
    },
    {
      "midi": 76,
      "hit": false,
      "t": 246155.30950000035,
      "d": 585.3753833333612,
      "v": 68
    },
    {
      "midi": 67,
      "hit": false,
      "t": 246750.60650000037,
      "d": 585.3753833333321,
      "v": 68
    },
    {
      "midi": 72,
      "hit": false,
      "t": 246750.60650000037,
      "d": 585.3753833333321,
      "v": 68
    },
    {
      "midi": 76,
      "hit": false,
      "t": 246750.60650000037,
      "d": 585.3753833333321,
      "v": 68
    },
    {
      "midi": 67,
      "hit": false,
      "t": 247345.90350000036,
      "d": 292.6876916666806,
      "v": 68
    },
    {
      "midi": 72,
      "hit": false,
      "t": 247345.90350000036,
      "d": 292.6876916666806,
      "v": 68
    },
    {
      "midi": 76,
      "hit": false,
      "t": 247345.90350000036,
      "d": 292.6876916666806,
      "v": 68
    },
    {
      "midi": 79,
      "hit": false,
      "t": 247941.20050000038,
      "d": 292.6876916666806,
      "v": 68
    },
    {
      "midi": 72,
      "hit": false,
      "t": 247941.20050000038,
      "d": 585.3753833333612,
      "v": 68
    },
    {
      "midi": 76,
      "hit": false,
      "t": 247941.20050000038,
      "d": 585.3753833333612,
      "v": 68
    },
    {
      "midi": 79,
      "hit": false,
      "t": 248536.4975000004,
      "d": 292.6876916666806,
      "v": 68
    },
    {
      "midi": 72,
      "hit": false,
      "t": 248536.4975000004,
      "d": 585.3753833333612,
      "v": 68
    },
    {
      "midi": 76,
      "hit": false,
      "t": 248536.4975000004,
      "d": 585.3753833333612,
      "v": 68
    },
    {
      "midi": 72,
      "hit": false,
      "t": 249131.79450000043,
      "d": 585.3753833333321,
      "v": 68
    },
    {
      "midi": 72,
      "hit": false,
      "t": 250024.74000000043,
      "d": 585.3753833333321,
      "v": 68
    },
    {
      "midi": 64,
      "hit": false,
      "t": 250024.74000000043,
      "d": 873.102266666654,
      "v": 68
    },
    {
      "midi": 67,
      "hit": false,
      "t": 250024.74000000043,
      "d": 873.102266666654,
      "v": 68
    },
    {
      "midi": 64,
      "hit": false,
      "t": 250917.68550000043,
      "d": 585.3753833333321,
      "v": 68
    },
    {
      "midi": 67,
      "hit": false,
      "t": 250917.68550000043,
      "d": 585.3753833333321,
      "v": 68
    },
    {
      "midi": 72,
      "hit": false,
      "t": 250917.68550000043,
      "d": 873.102266666654,
      "v": 68
    },
    {
      "midi": 64,
      "hit": false,
      "t": 251512.98250000042,
      "d": 585.3753833333321,
      "v": 68
    },
    {
      "midi": 67,
      "hit": false,
      "t": 251810.63100000043,
      "d": 585.375383333303,
      "v": 68
    },
    {
      "midi": 72,
      "hit": false,
      "t": 252108.2795000004,
      "d": 292.6876916666515,
      "v": 68
    },
    {
      "midi": 62,
      "hit": false,
      "t": 252405.9280000004,
      "d": 873.102266666654,
      "v": 68
    },
    {
      "midi": 67,
      "hit": false,
      "t": 252405.9280000004,
      "d": 873.102266666654,
      "v": 68
    },
    {
      "midi": 71,
      "hit": false,
      "t": 252405.9280000004,
      "d": 873.102266666654,
      "v": 68
    },
    {
      "midi": 62,
      "hit": false,
      "t": 253298.8735000004,
      "d": 292.6876916666806,
      "v": 68
    },
    {
      "midi": 67,
      "hit": false,
      "t": 253298.8735000004,
      "d": 585.3753833333612,
      "v": 68
    },
    {
      "midi": 72,
      "hit": false,
      "t": 253298.8735000004,
      "d": 585.3753833333612,
      "v": 68
    },
    {
      "midi": 62,
      "hit": false,
      "t": 253894.17050000041,
      "d": 292.6876916666806,
      "v": 68
    },
    {
      "midi": 67,
      "hit": false,
      "t": 253894.17050000041,
      "d": 873.1022666666831,
      "v": 68
    },
    {
      "midi": 71,
      "hit": false,
      "t": 253894.17050000041,
      "d": 873.1022666666831,
      "v": 68
    },
    {
      "midi": 62,
      "hit": false,
      "t": 254489.46750000044,
      "d": 292.6876916666515,
      "v": 68
    },
    {
      "midi": 72,
      "hit": false,
      "t": 254787.11600000042,
      "d": 585.3753833333321,
      "v": 68
    },
    {
      "midi": 64,
      "hit": false,
      "t": 254787.11600000042,
      "d": 873.102266666654,
      "v": 68
    },
    {
      "midi": 69,
      "hit": false,
      "t": 254787.11600000042,
      "d": 873.102266666654,
      "v": 68
    },
    {
      "midi": 64,
      "hit": false,
      "t": 255680.06150000042,
      "d": 292.6876916666806,
      "v": 68
    },
    {
      "midi": 69,
      "hit": false,
      "t": 255680.06150000042,
      "d": 585.3753833333612,
      "v": 68
    },
    {
      "midi": 72,
      "hit": false,
      "t": 255680.06150000042,
      "d": 873.1022666666831,
      "v": 68
    },
    {
      "midi": 64,
      "hit": false,
      "t": 256275.35850000044,
      "d": 585.3753833333321,
      "v": 68
    },
    {
      "midi": 69,
      "hit": false,
      "t": 256573.00700000045,
      "d": 585.375383333303,
      "v": 68
    },
    {
      "midi": 72,
      "hit": false,
      "t": 256870.65550000043,
      "d": 292.6876916666515,
      "v": 68
    },
    {
      "midi": 65,
      "hit": false,
      "t": 257168.3040000004,
      "d": 873.102266666654,
      "v": 68
    },
    {
      "midi": 67,
      "hit": false,
      "t": 257168.3040000004,
      "d": 873.102266666654,
      "v": 68
    },
    {
      "midi": 72,
      "hit": false,
      "t": 257168.3040000004,
      "d": 873.102266666654,
      "v": 68
    },
    {
      "midi": 65,
      "hit": false,
      "t": 258061.2495000004,
      "d": 585.3753833333321,
      "v": 68
    },
    {
      "midi": 67,
      "hit": false,
      "t": 258061.2495000004,
      "d": 585.3753833333321,
      "v": 68
    },
    {
      "midi": 72,
      "hit": false,
      "t": 258061.2495000004,
      "d": 1165.7899583333347,
      "v": 68
    },
    {
      "midi": 65,
      "hit": false,
      "t": 258656.5465000004,
      "d": 292.6876916666806,
      "v": 68
    },
    {
      "midi": 64,
      "hit": false,
      "t": 259251.84350000042,
      "d": 1165.7899583333347,
      "v": 68
    },
    {
      "midi": 67,
      "hit": false,
      "t": 259251.84350000042,
      "d": 1165.7899583333347,
      "v": 68
    },
    {
      "midi": 72,
      "hit": false,
      "t": 259251.84350000042,
      "d": 1165.7899583333347,
      "v": 68
    },
    {
      "midi": 64,
      "hit": false,
      "t": 260442.43750000044,
      "d": 292.6876916666806,
      "v": 68
    },
    {
      "midi": 67,
      "hit": false,
      "t": 260442.43750000044,
      "d": 585.3753833333612,
      "v": 68
    },
    {
      "midi": 72,
      "hit": false,
      "t": 260442.43750000044,
      "d": 873.1022666666831,
      "v": 68
    },
    {
      "midi": 64,
      "hit": false,
      "t": 261037.73450000046,
      "d": 585.3753833333321,
      "v": 68
    },
    {
      "midi": 67,
      "hit": false,
      "t": 261335.38300000047,
      "d": 292.6876916666515,
      "v": 68
    },
    {
      "midi": 72,
      "hit": false,
      "t": 261633.03150000045,
      "d": 292.6876916666806,
      "v": 68
    },
    {
      "midi": 62,
      "hit": false,
      "t": 261930.68000000046,
      "d": 585.3753833333612,
      "v": 68
    },
    {
      "midi": 71,
      "hit": false,
      "t": 261930.68000000046,
      "d": 585.3753833333612,
      "v": 68
    },
    {
      "midi": 67,
      "hit": false,
      "t": 261930.68000000046,
      "d": 873.1022666667122,
      "v": 68
    },
    {
      "midi": 67,
      "hit": false,
      "t": 262823.6255000005,
      "d": 585.3753833333612,
      "v": 68
    },
    {
      "midi": 72,
      "hit": false,
      "t": 262823.6255000005,
      "d": 585.3753833333612,
      "v": 68
    },
    {
      "midi": 62,
      "hit": false,
      "t": 262823.6255000005,
      "d": 873.1022666667122,
      "v": 68
    },
    {
      "midi": 71,
      "hit": false,
      "t": 263418.9225000005,
      "d": 873.1022666667122,
      "v": 68
    },
    {
      "midi": 67,
      "hit": false,
      "t": 263716.5710000005,
      "d": 585.3753833333612,
      "v": 68
    },
    {
      "midi": 62,
      "hit": false,
      "t": 264014.21950000053,
      "d": 292.6876916667097,
      "v": 68
    },
    {
      "midi": 64,
      "hit": false,
      "t": 264311.8680000006,
      "d": 873.102266666654,
      "v": 68
    },
    {
      "midi": 72,
      "hit": false,
      "t": 264311.8680000006,
      "d": 873.102266666654,
      "v": 68
    },
    {
      "midi": 69,
      "hit": false,
      "t": 264311.8680000006,
      "d": 1165.7899583333055,
      "v": 68
    },
    {
      "midi": 62,
      "hit": false,
      "t": 265502.4620000006,
      "d": 585.3753833333612,
      "v": 68
    },
    {
      "midi": 67,
      "hit": false,
      "t": 265502.4620000006,
      "d": 585.3753833333612,
      "v": 68
    },
    {
      "midi": 71,
      "hit": false,
      "t": 265502.4620000006,
      "d": 585.3753833333612,
      "v": 68
    },
    {
      "midi": 60,
      "hit": false,
      "t": 266395.4075000006,
      "d": 2624.267608333321,
      "v": 68
    },
    {
      "midi": 65,
      "hit": false,
      "t": 266395.4075000006,
      "d": 2624.267608333321,
      "v": 68
    },
    {
      "midi": 69,
      "hit": false,
      "t": 266395.4075000006,
      "d": 2624.267608333321,
      "v": 68
    },
    {
      "midi": 60,
      "hit": false,
      "t": 273836.6200000001,
      "d": 873.102266666654,
      "v": 80
    },
    {
      "midi": 72,
      "hit": false,
      "t": 274134.26850000065,
      "d": 1458.4776500000153,
      "v": 59
    },
    {
      "midi": 84,
      "hit": false,
      "t": 274431.91700000066,
      "d": 292.6876916666515,
      "v": 74
    },
    {
      "midi": 60,
      "hit": false,
      "t": 274729.5655000001,
      "d": 858.2198416666943,
      "v": 83
    },
    {
      "midi": 84,
      "hit": false,
      "t": 274729.56550000067,
      "d": 1751.1653416666668,
      "v": 75
    },
    {
      "midi": 76,
      "hit": false,
      "t": 275324.8625000007,
      "d": 585.375383333303,
      "v": 72
    },
    {
      "midi": 60,
      "hit": false,
      "t": 275622.5110000001,
      "d": 565.5321500000427,
      "v": 87
    },
    {
      "midi": 72,
      "hit": false,
      "t": 275920.15950000065,
      "d": 585.3753833333612,
      "v": 65
    },
    {
      "midi": 77,
      "hit": false,
      "t": 275920.15950000065,
      "d": 585.3753833333612,
      "v": 85
    },
    {
      "midi": 65,
      "hit": false,
      "t": 276217.80800000014,
      "d": 585.375383333303,
      "v": 66
    },
    {
      "midi": 72,
      "hit": false,
      "t": 276515.45650000067,
      "d": 292.6876916666515,
      "v": 68
    },
    {
      "midi": 77,
      "hit": false,
      "t": 276813.1050000007,
      "d": 292.6876916666515,
      "v": 67
    },
    {
      "midi": 65,
      "hit": false,
      "t": 277110.7535000001,
      "d": 873.102266666654,
      "v": 73
    },
    {
      "midi": 76,
      "hit": false,
      "t": 277110.7535000007,
      "d": 292.6876916666515,
      "v": 66
    },
    {
      "midi": 77,
      "hit": false,
      "t": 277408.4020000007,
      "d": 292.6876916666515,
      "v": 76
    },
    {
      "midi": 79,
      "hit": false,
      "t": 277706.0505000007,
      "d": 1165.7899583333055,
      "v": 81
    },
    {
      "midi": 65,
      "hit": false,
      "t": 278003.6990000001,
      "d": 585.3753833333612,
      "v": 64
    },
    {
      "midi": 72,
      "hit": false,
      "t": 278301.3475000007,
      "d": 585.3753833333612,
      "v": 71
    },
    {
      "midi": 62,
      "hit": false,
      "t": 278598.9960000001,
      "d": 873.1022666667122,
      "v": 75
    },
    {
      "midi": 72,
      "hit": false,
      "t": 278896.6445000007,
      "d": 585.3753833333612,
      "v": 70
    },
    {
      "midi": 84,
      "hit": false,
      "t": 279194.2930000007,
      "d": 292.6876916667097,
      "v": 83
    },
    {
      "midi": 62,
      "hit": false,
      "t": 279491.94150000013,
      "d": 873.102266666654,
      "v": 78
    },
    {
      "midi": 84,
      "hit": false,
      "t": 279491.9415000008,
      "d": 2043.8530333333765,
      "v": 83
    },
    {
      "midi": 76,
      "hit": false,
      "t": 280087.2385000008,
      "d": 585.3753833333612,
      "v": 66
    },
    {
      "midi": 62,
      "hit": false,
      "t": 280384.8870000001,
      "d": 585.3753833333612,
      "v": 80
    },
    {
      "midi": 72,
      "hit": false,
      "t": 280682.5355000008,
      "d": 585.3753833333612,
      "v": 71
    },
    {
      "midi": 77,
      "hit": false,
      "t": 280682.5355000008,
      "d": 873.102266666654,
      "v": 85
    },
    {
      "midi": 67,
      "hit": false,
      "t": 280980.1840000001,
      "d": 873.102266666654,
      "v": 87
    },
    {
      "midi": 72,
      "hit": false,
      "t": 281277.83250000083,
      "d": 1458.477649999957,
      "v": 64
    },
    {
      "midi": 77,
      "hit": false,
      "t": 281575.4810000008,
      "d": 292.6876916666515,
      "v": 66
    },
    {
      "midi": 67,
      "hit": false,
      "t": 281873.1295000001,
      "d": 873.102266666654,
      "v": 80
    },
    {
      "midi": 76,
      "hit": false,
      "t": 281873.1295000008,
      "d": 292.6876916666515,
      "v": 49
    },
    {
      "midi": 77,
      "hit": false,
      "t": 282170.7780000008,
      "d": 292.6876916666515,
      "v": 71
    },
    {
      "midi": 79,
      "hit": false,
      "t": 282468.4265000008,
      "d": 3269.1726916666958,
      "v": 67
    }
  ]
}