{
  "jsonPath": "Rock/Hardcore Techno/Urban Cookie Collective/the-key-the-secret.json",
  "path": "Rock\\Hardcore Techno\\Urban Cookie Collective\\The Key The Secret.mid",
  "name": "The Key The Secret",
  "difficulty": "Intermediate",
  "bpm": 130.0026650546336,
  "notes": [
    {
      "midi": 53,
      "hit": false,
      "t": 12922.812,
      "d": 1322.0882812500004,
      "v": 100
    },
    {
      "midi": 60,
      "hit": false,
      "t": 12922.812,
      "d": 1322.0882812500004,
      "v": 100
    },
    {
      "midi": 65,
      "hit": false,
      "t": 12922.812,
      "d": 1322.0882812500004,
      "v": 100
    },
    {
      "midi": 69,
      "hit": false,
      "t": 12922.812,
      "d": 1322.0882812500004,
      "v": 100
    },
    {
      "midi": 60,
      "hit": false,
      "t": 14307.399,
      "d": 221.14931249999972,
      "v": 100
    },
    {
      "midi": 65,
      "hit": false,
      "t": 14307.399,
      "d": 437.49103124999965,
      "v": 100
    },
    {
      "midi": 69,
      "hit": false,
      "t": 14307.399,
      "d": 437.49103124999965,
      "v": 100
    },
    {
      "midi": 53,
      "hit": false,
      "t": 14538.163499999999,
      "d": 211.53412500000013,
      "v": 100
    },
    {
      "midi": 48,
      "hit": false,
      "t": 14768.927999999998,
      "d": 1322.0882812500004,
      "v": 100
    },
    {
      "midi": 60,
      "hit": false,
      "t": 14768.927999999998,
      "d": 1322.0882812500004,
      "v": 100
    },
    {
      "midi": 64,
      "hit": false,
      "t": 14768.927999999998,
      "d": 1322.0882812500004,
      "v": 100
    },
    {
      "midi": 67,
      "hit": false,
      "t": 14768.927999999998,
      "d": 1322.0882812500004,
      "v": 100
    },
    {
      "midi": 60,
      "hit": false,
      "t": 16153.514999999998,
      "d": 221.14931249999972,
      "v": 100
    },
    {
      "midi": 64,
      "hit": false,
      "t": 16153.514999999998,
      "d": 437.49103124999783,
      "v": 100
    },
    {
      "midi": 67,
      "hit": false,
      "t": 16153.514999999998,
      "d": 437.49103124999783,
      "v": 100
    },
    {
      "midi": 48,
      "hit": false,
      "t": 16384.279499999997,
      "d": 211.5341249999983,
      "v": 100
    },
    {
      "midi": 51,
      "hit": false,
      "t": 16615.043999999994,
      "d": 1322.0882812499985,
      "v": 100
    },
    {
      "midi": 58,
      "hit": false,
      "t": 16615.043999999994,
      "d": 1322.0882812499985,
      "v": 100
    },
    {
      "midi": 63,
      "hit": false,
      "t": 16615.043999999994,
      "d": 1322.0882812499985,
      "v": 100
    },
    {
      "midi": 67,
      "hit": false,
      "t": 16615.043999999994,
      "d": 1322.0882812499985,
      "v": 100
    },
    {
      "midi": 58,
      "hit": false,
      "t": 17999.630999999994,
      "d": 221.14931250000154,
      "v": 100
    },
    {
      "midi": 63,
      "hit": false,
      "t": 17999.630999999994,
      "d": 437.49103124999965,
      "v": 100
    },
    {
      "midi": 67,
      "hit": false,
      "t": 17999.630999999994,
      "d": 437.49103124999965,
      "v": 100
    },
    {
      "midi": 51,
      "hit": false,
      "t": 18230.395499999995,
      "d": 211.5341249999983,
      "v": 100
    },
    {
      "midi": 46,
      "hit": false,
      "t": 18461.159999999993,
      "d": 1322.0882812499985,
      "v": 100
    },
    {
      "midi": 58,
      "hit": false,
      "t": 18461.159999999993,
      "d": 1322.0882812499985,
      "v": 100
    },
    {
      "midi": 62,
      "hit": false,
      "t": 18461.159999999993,
      "d": 1322.0882812499985,
      "v": 100
    },
    {
      "midi": 65,
      "hit": false,
      "t": 18461.159999999993,
      "d": 1322.0882812499985,
      "v": 100
    },
    {
      "midi": 58,
      "hit": false,
      "t": 19845.746999999992,
      "d": 221.14931250000154,
      "v": 100
    },
    {
      "midi": 62,
      "hit": false,
      "t": 19845.746999999992,
      "d": 437.49103124999965,
      "v": 100
    },
    {
      "midi": 65,
      "hit": false,
      "t": 19845.746999999992,
      "d": 437.49103124999965,
      "v": 100
    },
    {
      "midi": 45,
      "hit": false,
      "t": 20076.511499999993,
      "d": 211.5341249999983,
      "v": 100
    },
    {
      "midi": 53,
      "hit": false,
      "t": 20307.27599999999,
      "d": 1322.0882812499985,
      "v": 100
    },
    {
      "midi": 60,
      "hit": false,
      "t": 20307.27599999999,
      "d": 1322.0882812499985,
      "v": 100
    },
    {
      "midi": 65,
      "hit": false,
      "t": 20307.27599999999,
      "d": 1322.0882812499985,
      "v": 100
    },
    {
      "midi": 69,
      "hit": false,
      "t": 20307.27599999999,
      "d": 1322.0882812499985,
      "v": 100
    },
    {
      "midi": 60,
      "hit": false,
      "t": 21691.86299999999,
      "d": 221.14931250000154,
      "v": 100
    },
    {
      "midi": 65,
      "hit": false,
      "t": 21691.86299999999,
      "d": 437.49103124999965,
      "v": 100
    },
    {
      "midi": 69,
      "hit": false,
      "t": 21691.86299999999,
      "d": 437.49103124999965,
      "v": 100
    },
    {
      "midi": 53,
      "hit": false,
      "t": 21922.62749999999,
      "d": 211.5341249999983,
      "v": 100
    },
    {
      "midi": 48,
      "hit": false,
      "t": 22153.39199999999,
      "d": 1322.0882812499985,
      "v": 100
    },
    {
      "midi": 60,
      "hit": false,
      "t": 22153.39199999999,
      "d": 1322.0882812499985,
      "v": 100
    },
    {
      "midi": 64,
      "hit": false,
      "t": 22153.39199999999,
      "d": 1322.0882812499985,
      "v": 100
    },
    {
      "midi": 67,
      "hit": false,
      "t": 22153.39199999999,
      "d": 1322.0882812499985,
      "v": 100
    },
    {
      "midi": 60,
      "hit": false,
      "t": 23537.97899999999,
      "d": 221.14931250000154,
      "v": 100
    },
    {
      "midi": 64,
      "hit": false,
      "t": 23537.97899999999,
      "d": 437.49103124999965,
      "v": 100
    },
    {
      "midi": 67,
      "hit": false,
      "t": 23537.97899999999,
      "d": 437.49103124999965,
      "v": 100
    },
    {
      "midi": 48,
      "hit": false,
      "t": 23768.74349999999,
      "d": 211.5341249999983,
      "v": 100
    },
    {
      "midi": 51,
      "hit": false,
      "t": 23999.507999999987,
      "d": 1322.0882812499985,
      "v": 100
    },
    {
      "midi": 58,
      "hit": false,
      "t": 23999.507999999987,
      "d": 1322.0882812499985,
      "v": 100
    },
    {
      "midi": 63,
      "hit": false,
      "t": 23999.507999999987,
      "d": 1322.0882812499985,
      "v": 100
    },
    {
      "midi": 67,
      "hit": false,
      "t": 23999.507999999987,
      "d": 1322.0882812499985,
      "v": 100
    },
    {
      "midi": 58,
      "hit": false,
      "t": 25384.094999999987,
      "d": 221.14931250000154,
      "v": 100
    },
    {
      "midi": 63,
      "hit": false,
      "t": 25384.094999999987,
      "d": 437.49103124999965,
      "v": 100
    },
    {
      "midi": 67,
      "hit": false,
      "t": 25384.094999999987,
      "d": 437.49103124999965,
      "v": 100
    },
    {
      "midi": 51,
      "hit": false,
      "t": 25614.859499999988,
      "d": 211.5341249999983,
      "v": 100
    },
    {
      "midi": 46,
      "hit": false,
      "t": 25845.623999999985,
      "d": 1322.0882812499985,
      "v": 100
    },
    {
      "midi": 58,
      "hit": false,
      "t": 25845.623999999985,
      "d": 1322.0882812499985,
      "v": 100
    },
    {
      "midi": 62,
      "hit": false,
      "t": 25845.623999999985,
      "d": 1322.0882812499985,
      "v": 100
    },
    {
      "midi": 65,
      "hit": false,
      "t": 25845.623999999985,
      "d": 1322.0882812499985,
      "v": 100
    },
    {
      "midi": 58,
      "hit": false,
      "t": 27230.210999999985,
      "d": 221.14931250000154,
      "v": 100
    },
    {
      "midi": 62,
      "hit": false,
      "t": 27230.210999999985,
      "d": 437.49103124999965,
      "v": 100
    },
    {
      "midi": 65,
      "hit": false,
      "t": 27230.210999999985,
      "d": 437.49103124999965,
      "v": 100
    },
    {
      "midi": 46,
      "hit": false,
      "t": 27460.975499999986,
      "d": 211.5341249999983,
      "v": 100
    },
    {
      "midi": 53,
      "hit": false,
      "t": 79382.98799999998,
      "d": 1322.0882812500058,
      "v": 100
    },
    {
      "midi": 60,
      "hit": false,
      "t": 79382.98799999998,
      "d": 1322.0882812500058,
      "v": 100
    },
    {
      "midi": 65,
      "hit": false,
      "t": 79382.98799999998,
      "d": 1322.0882812500058,
      "v": 100
    },
    {
      "midi": 69,
      "hit": false,
      "t": 79382.98799999998,
      "d": 1322.0882812500058,
      "v": 100
    },
    {
      "midi": 60,
      "hit": false,
      "t": 80767.57499999998,
      "d": 221.1493124999979,
      "v": 100
    },
    {
      "midi": 65,
      "hit": false,
      "t": 80767.57499999998,
      "d": 437.49103124999965,
      "v": 100
    },
    {
      "midi": 69,
      "hit": false,
      "t": 80767.57499999998,
      "d": 437.49103124999965,
      "v": 100
    },
    {
      "midi": 53,
      "hit": false,
      "t": 80998.33949999999,
      "d": 211.53412499999104,
      "v": 100
    },
    {
      "midi": 48,
      "hit": false,
      "t": 81229.10399999998,
      "d": 1322.0882812500058,
      "v": 100
    },
    {
      "midi": 60,
      "hit": false,
      "t": 81229.10399999998,
      "d": 1322.0882812500058,
      "v": 100
    },
    {
      "midi": 64,
      "hit": false,
      "t": 81229.10399999998,
      "d": 1322.0882812500058,
      "v": 100
    },
    {
      "midi": 67,
      "hit": false,
      "t": 81229.10399999998,
      "d": 1322.0882812500058,
      "v": 100
    },
    {
      "midi": 60,
      "hit": false,
      "t": 82613.69099999998,
      "d": 221.1493124999979,
      "v": 100
    },
    {
      "midi": 64,
      "hit": false,
      "t": 82613.69099999998,
      "d": 437.49103124999965,
      "v": 100
    },
    {
      "midi": 67,
      "hit": false,
      "t": 82613.69099999998,
      "d": 437.49103124999965,
      "v": 100
    },
    {
      "midi": 48,
      "hit": false,
      "t": 82844.45549999998,
      "d": 211.53412499999104,
      "v": 100
    },
    {
      "midi": 51,
      "hit": false,
      "t": 83075.21999999997,
      "d": 1322.0882812500058,
      "v": 100
    },
    {
      "midi": 58,
      "hit": false,
      "t": 83075.21999999997,
      "d": 1322.0882812500058,
      "v": 100
    },
    {
      "midi": 63,
      "hit": false,
      "t": 83075.21999999997,
      "d": 1322.0882812500058,
      "v": 100
    },
    {
      "midi": 67,
      "hit": false,
      "t": 83075.21999999997,
      "d": 1322.0882812500058,
      "v": 100
    },
    {
      "midi": 58,
      "hit": false,
      "t": 84459.80699999997,
      "d": 221.1493124999979,
      "v": 100
    },
    {
      "midi": 63,
      "hit": false,
      "t": 84459.80699999997,
      "d": 437.49103124999965,
      "v": 100
    },
    {
      "midi": 67,
      "hit": false,
      "t": 84459.80699999997,
      "d": 437.49103124999965,
      "v": 100
    },
    {
      "midi": 51,
      "hit": false,
      "t": 84690.57149999998,
      "d": 211.53412499999104,
      "v": 100
    },
    {
      "midi": 46,
      "hit": false,
      "t": 84921.33599999997,
      "d": 1322.0882812500058,
      "v": 100
    },
    {
      "midi": 58,
      "hit": false,
      "t": 84921.33599999997,
      "d": 1322.0882812500058,
      "v": 100
    },
    {
      "midi": 62,
      "hit": false,
      "t": 84921.33599999997,
      "d": 1322.0882812500058,
      "v": 100
    },
    {
      "midi": 65,
      "hit": false,
      "t": 84921.33599999997,
      "d": 1322.0882812500058,
      "v": 100
    },
    {
      "midi": 58,
      "hit": false,
      "t": 86305.92299999997,
      "d": 221.1493124999979,
      "v": 100
    },
    {
      "midi": 62,
      "hit": false,
      "t": 86305.92299999997,
      "d": 437.49103124999965,
      "v": 100
    },
    {
      "midi": 65,
      "hit": false,
      "t": 86305.92299999997,
      "d": 437.49103124999965,
      "v": 100
    },
    {
      "midi": 45,
      "hit": false,
      "t": 86536.68749999997,
      "d": 211.53412499999104,
      "v": 100
    },
    {
      "midi": 53,
      "hit": false,
      "t": 86767.45199999996,
      "d": 1322.0882812500058,
      "v": 100
    },
    {
      "midi": 60,
      "hit": false,
      "t": 86767.45199999996,
      "d": 1322.0882812500058,
      "v": 100
    },
    {
      "midi": 65,
      "hit": false,
      "t": 86767.45199999996,
      "d": 1322.0882812500058,
      "v": 100
    },
    {
      "midi": 69,
      "hit": false,
      "t": 86767.45199999996,
      "d": 1322.0882812500058,
      "v": 100
    },
    {
      "midi": 60,
      "hit": false,
      "t": 88152.03899999996,
      "d": 221.1493124999979,
      "v": 100
    },
    {
      "midi": 65,
      "hit": false,
      "t": 88152.03899999996,
      "d": 437.49103124999965,
      "v": 100
    },
    {
      "midi": 69,
      "hit": false,
      "t": 88152.03899999996,
      "d": 437.49103124999965,
      "v": 100
    },
    {
      "midi": 53,
      "hit": false,
      "t": 88382.80349999997,
      "d": 211.53412499999104,
      "v": 100
    },
    {
      "midi": 48,
      "hit": false,
      "t": 88613.56799999996,
      "d": 1322.0882812500058,
      "v": 100
    },
    {
      "midi": 60,
      "hit": false,
      "t": 88613.56799999996,
      "d": 1322.0882812500058,
      "v": 100
    },
    {
      "midi": 64,
      "hit": false,
      "t": 88613.56799999996,
      "d": 1322.0882812500058,
      "v": 100
    },
    {
      "midi": 67,
      "hit": false,
      "t": 88613.56799999996,
      "d": 1322.0882812500058,
      "v": 100
    },
    {
      "midi": 60,
      "hit": false,
      "t": 89998.15499999996,
      "d": 221.1493124999979,
      "v": 100
    },
    {
      "midi": 64,
      "hit": false,
      "t": 89998.15499999996,
      "d": 437.49103124999965,
      "v": 100
    },
    {
      "midi": 67,
      "hit": false,
      "t": 89998.15499999996,
      "d": 437.49103124999965,
      "v": 100
    },
    {
      "midi": 48,
      "hit": false,
      "t": 90228.91949999996,
      "d": 211.53412499999104,
      "v": 100
    },
    {
      "midi": 51,
      "hit": false,
      "t": 90459.68399999995,
      "d": 1322.0882812500058,
      "v": 100
    },
    {
      "midi": 58,
      "hit": false,
      "t": 90459.68399999995,
      "d": 1322.0882812500058,
      "v": 100
    },
    {
      "midi": 63,
      "hit": false,
      "t": 90459.68399999995,
      "d": 1322.0882812500058,
      "v": 100
    },
    {
      "midi": 67,
      "hit": false,
      "t": 90459.68399999995,
      "d": 1322.0882812500058,
      "v": 100
    },
    {
      "midi": 58,
      "hit": false,
      "t": 91844.27099999995,
      "d": 221.1493124999979,
      "v": 100
    },
    {
      "midi": 63,
      "hit": false,
      "t": 91844.27099999995,
      "d": 437.49103124999965,
      "v": 100
    },
    {
      "midi": 67,
      "hit": false,
      "t": 91844.27099999995,
      "d": 437.49103124999965,
      "v": 100
    },
    {
      "midi": 51,
      "hit": false,
      "t": 92075.03549999995,
      "d": 211.53412499999104,
      "v": 100
    },
    {
      "midi": 46,
      "hit": false,
      "t": 92305.79999999994,
      "d": 1322.0882812500058,
      "v": 100
    },
    {
      "midi": 58,
      "hit": false,
      "t": 92305.79999999994,
      "d": 1322.0882812500058,
      "v": 100
    },
    {
      "midi": 62,
      "hit": false,
      "t": 92305.79999999994,
      "d": 1322.0882812500058,
      "v": 100
    },
    {
      "midi": 65,
      "hit": false,
      "t": 92305.79999999994,
      "d": 1322.0882812500058,
      "v": 100
    },
    {
      "midi": 58,
      "hit": false,
      "t": 93690.38699999994,
      "d": 221.1493124999979,
      "v": 100
    },
    {
      "midi": 62,
      "hit": false,
      "t": 93690.38699999994,
      "d": 437.49103124999965,
      "v": 100
    },
    {
      "midi": 65,
      "hit": false,
      "t": 93690.38699999994,
      "d": 437.49103124999965,
      "v": 100
    },
    {
      "midi": 46,
      "hit": false,
      "t": 93921.15149999995,
      "d": 211.53412499999104,
      "v": 100
    },
    {
      "midi": 53,
      "hit": false,
      "t": 167996.55599999992,
      "d": 1322.0882812500058,
      "v": 100
    },
    {
      "midi": 60,
      "hit": false,
      "t": 167996.55599999992,
      "d": 1322.0882812500058,
      "v": 100
    },
    {
      "midi": 65,
      "hit": false,
      "t": 167996.55599999992,
      "d": 1322.0882812500058,
      "v": 100
    },
    {
      "midi": 69,
      "hit": false,
      "t": 167996.55599999992,
      "d": 1322.0882812500058,
      "v": 100
    },
    {
      "midi": 60,
      "hit": false,
      "t": 169381.14299999992,
      "d": 221.1493124999979,
      "v": 100
    },
    {
      "midi": 65,
      "hit": false,
      "t": 169381.14299999992,
      "d": 437.4910312499851,
      "v": 100
    },
    {
      "midi": 69,
      "hit": false,
      "t": 169381.14299999992,
      "d": 437.4910312499851,
      "v": 100
    },
    {
      "midi": 53,
      "hit": false,
      "t": 169611.9074999999,
      "d": 211.5341250000056,
      "v": 100
    },
    {
      "midi": 48,
      "hit": false,
      "t": 169842.67199999993,
      "d": 1322.0882812500058,
      "v": 100
    },
    {
      "midi": 60,
      "hit": false,
      "t": 169842.67199999993,
      "d": 1322.0882812500058,
      "v": 100
    },
    {
      "midi": 64,
      "hit": false,
      "t": 169842.67199999993,
      "d": 1322.0882812500058,
      "v": 100
    },
    {
      "midi": 67,
      "hit": false,
      "t": 169842.67199999993,
      "d": 1322.0882812500058,
      "v": 100
    },
    {
      "midi": 60,
      "hit": false,
      "t": 171227.25899999993,
      "d": 221.1493124999979,
      "v": 100
    },
    {
      "midi": 64,
      "hit": false,
      "t": 171227.25899999993,
      "d": 437.4910312499851,
      "v": 100
    },
    {
      "midi": 67,
      "hit": false,
      "t": 171227.25899999993,
      "d": 437.4910312499851,
      "v": 100
    },
    {
      "midi": 48,
      "hit": false,
      "t": 171458.02349999992,
      "d": 211.5341250000056,
      "v": 100
    },
    {
      "midi": 51,
      "hit": false,
      "t": 171688.78799999994,
      "d": 1322.0882812500058,
      "v": 100
    },
    {
      "midi": 58,
      "hit": false,
      "t": 171688.78799999994,
      "d": 1322.0882812500058,
      "v": 100
    },
    {
      "midi": 63,
      "hit": false,
      "t": 171688.78799999994,
      "d": 1322.0882812500058,
      "v": 100
    },
    {
      "midi": 67,
      "hit": false,
      "t": 171688.78799999994,
      "d": 1322.0882812500058,
      "v": 100
    },
    {
      "midi": 58,
      "hit": false,
      "t": 173073.37499999994,
      "d": 221.1493124999979,
      "v": 100
    },
    {
      "midi": 63,
      "hit": false,
      "t": 173073.37499999994,
      "d": 437.4910312499851,
      "v": 100
    },
    {
      "midi": 67,
      "hit": false,
      "t": 173073.37499999994,
      "d": 437.4910312499851,
      "v": 100
    },
    {
      "midi": 51,
      "hit": false,
      "t": 173304.13949999993,
      "d": 211.5341250000056,
      "v": 100
    },
    {
      "midi": 46,
      "hit": false,
      "t": 173534.90399999995,
      "d": 1322.0882812500058,
      "v": 100
    },
    {
      "midi": 58,
      "hit": false,
      "t": 173534.90399999995,
      "d": 1322.0882812500058,
      "v": 100
    },
    {
      "midi": 62,
      "hit": false,
      "t": 173534.90399999995,
      "d": 1322.0882812500058,
      "v": 100
    },
    {
      "midi": 65,
      "hit": false,
      "t": 173534.90399999995,
      "d": 1322.0882812500058,
      "v": 100
    },
    {
      "midi": 58,
      "hit": false,
      "t": 174919.49099999995,
      "d": 221.1493124999979,
      "v": 100
    },
    {
      "midi": 62,
      "hit": false,
      "t": 174919.49099999995,
      "d": 437.4910312499851,
      "v": 100
    },
    {
      "midi": 65,
      "hit": false,
      "t": 174919.49099999995,
      "d": 437.4910312499851,
      "v": 100
    },
    {
      "midi": 45,
      "hit": false,
      "t": 175150.25549999994,
      "d": 211.5341250000056,
      "v": 100
    },
    {
      "midi": 53,
      "hit": false,
      "t": 175381.01999999996,
      "d": 1322.0882812500058,
      "v": 100
    },
    {
      "midi": 60,
      "hit": false,
      "t": 175381.01999999996,
      "d": 1322.0882812500058,
      "v": 100
    },
    {
      "midi": 65,
      "hit": false,
      "t": 175381.01999999996,
      "d": 1322.0882812500058,
      "v": 100
    },
    {
      "midi": 69,
      "hit": false,
      "t": 175381.01999999996,
      "d": 1322.0882812500058,
      "v": 100
    },
    {
      "midi": 60,
      "hit": false,
      "t": 176765.60699999996,
      "d": 221.1493124999979,
      "v": 100
    },
    {
      "midi": 65,
      "hit": false,
      "t": 176765.60699999996,
      "d": 437.4910312499851,
      "v": 100
    },
    {
      "midi": 69,
      "hit": false,
      "t": 176765.60699999996,
      "d": 437.4910312499851,
      "v": 100
    },
    {
      "midi": 53,
      "hit": false,
      "t": 176996.37149999995,
      "d": 211.5341250000056,
      "v": 100
    },
    {
      "midi": 48,
      "hit": false,
      "t": 177227.13599999997,
      "d": 1322.0882812500058,
      "v": 100
    },
    {
      "midi": 60,
      "hit": false,
      "t": 177227.13599999997,
      "d": 1322.0882812500058,
      "v": 100
    },
    {
      "midi": 64,
      "hit": false,
      "t": 177227.13599999997,
      "d": 1322.0882812500058,
      "v": 100
    },
    {
      "midi": 67,
      "hit": false,
      "t": 177227.13599999997,
      "d": 1322.0882812500058,
      "v": 100
    },
    {
      "midi": 60,
      "hit": false,
      "t": 178611.72299999997,
      "d": 221.1493124999979,
      "v": 100
    },
    {
      "midi": 64,
      "hit": false,
      "t": 178611.72299999997,
      "d": 437.4910312499851,
      "v": 100
    },
    {
      "midi": 67,
      "hit": false,
      "t": 178611.72299999997,
      "d": 437.4910312499851,
      "v": 100
    },
    {
      "midi": 48,
      "hit": false,
      "t": 178842.48749999996,
      "d": 211.5341250000056,
      "v": 100
    },
    {
      "midi": 51,
      "hit": false,
      "t": 179073.25199999998,
      "d": 1322.0882812500058,
      "v": 100
    },
    {
      "midi": 58,
      "hit": false,
      "t": 179073.25199999998,
      "d": 1322.0882812500058,
      "v": 100
    },
    {
      "midi": 63,
      "hit": false,
      "t": 179073.25199999998,
      "d": 1322.0882812500058,
      "v": 100
    },
    {
      "midi": 67,
      "hit": false,
      "t": 179073.25199999998,
      "d": 1322.0882812500058,
      "v": 100
    },
    {
      "midi": 58,
      "hit": false,
      "t": 180457.83899999998,
      "d": 221.1493124999979,
      "v": 100
    },
    {
      "midi": 63,
      "hit": false,
      "t": 180457.83899999998,
      "d": 437.4910312499851,
      "v": 100
    },
    {
      "midi": 67,
      "hit": false,
      "t": 180457.83899999998,
      "d": 437.4910312499851,
      "v": 100
    },
    {
      "midi": 51,
      "hit": false,
      "t": 180688.60349999997,
      "d": 211.5341250000056,
      "v": 100
    },
    {
      "midi": 46,
      "hit": false,
      "t": 180919.368,
      "d": 1322.0882812500058,
      "v": 100
    },
    {
      "midi": 58,
      "hit": false,
      "t": 180919.368,
      "d": 1322.0882812500058,
      "v": 100
    },
    {
      "midi": 62,
      "hit": false,
      "t": 180919.368,
      "d": 1322.0882812500058,
      "v": 100
    },
    {
      "midi": 65,
      "hit": false,
      "t": 180919.368,
      "d": 1322.0882812500058,
      "v": 100
    },
    {
      "midi": 58,
      "hit": false,
      "t": 182303.955,
      "d": 221.1493124999979,
      "v": 100
    },
    {
      "midi": 62,
      "hit": false,
      "t": 182303.955,
      "d": 437.4910312499851,
      "v": 100
    },
    {
      "midi": 65,
      "hit": false,
      "t": 182303.955,
      "d": 437.4910312499851,
      "v": 100
    },
    {
      "midi": 46,
      "hit": false,
      "t": 182534.71949999998,
      "d": 211.5341250000056,
      "v": 100
    },
    {
      "midi": 53,
      "hit": false,
      "t": 182765.484,
      "d": 1322.0882812500058,
      "v": 100
    },
    {
      "midi": 60,
      "hit": false,
      "t": 182765.484,
      "d": 1322.0882812500058,
      "v": 100
    },
    {
      "midi": 65,
      "hit": false,
      "t": 182765.484,
      "d": 1322.0882812500058,
      "v": 100
    },
    {
      "midi": 69,
      "hit": false,
      "t": 182765.484,
      "d": 1322.0882812500058,
      "v": 100
    },
    {
      "midi": 60,
      "hit": false,
      "t": 184150.071,
      "d": 221.1493124999979,
      "v": 100
    },
    {
      "midi": 65,
      "hit": false,
      "t": 184150.071,
      "d": 437.4910312499851,
      "v": 100
    },
    {
      "midi": 69,
      "hit": false,
      "t": 184150.071,
      "d": 437.4910312499851,
      "v": 100
    },
    {
      "midi": 53,
      "hit": false,
      "t": 184380.8355,
      "d": 211.5341250000056,
      "v": 100
    },
    {
      "midi": 48,
      "hit": false,
      "t": 184611.6,
      "d": 1322.0882812500058,
      "v": 100
    },
    {
      "midi": 60,
      "hit": false,
      "t": 184611.6,
      "d": 1322.0882812500058,
      "v": 100
    },
    {
      "midi": 64,
      "hit": false,
      "t": 184611.6,
      "d": 1322.0882812500058,
      "v": 100
    },
    {
      "midi": 67,
      "hit": false,
      "t": 184611.6,
      "d": 1322.0882812500058,
      "v": 100
    },
    {
      "midi": 60,
      "hit": false,
      "t": 185996.187,
      "d": 221.1493124999979,
      "v": 100
    },
    {
      "midi": 64,
      "hit": false,
      "t": 185996.187,
      "d": 437.4910312499851,
      "v": 100
    },
    {
      "midi": 67,
      "hit": false,
      "t": 185996.187,
      "d": 437.4910312499851,
      "v": 100
    },
    {
      "midi": 48,
      "hit": false,
      "t": 186226.9515,
      "d": 211.5341250000056,
      "v": 100
    },
    {
      "midi": 51,
      "hit": false,
      "t": 186457.71600000001,
      "d": 1322.0882812500058,
      "v": 100
    },
    {
      "midi": 58,
      "hit": false,
      "t": 186457.71600000001,
      "d": 1322.0882812500058,
      "v": 100
    },
    {
      "midi": 63,
      "hit": false,
      "t": 186457.71600000001,
      "d": 1322.0882812500058,
      "v": 100
    },
    {
      "midi": 67,
      "hit": false,
      "t": 186457.71600000001,
      "d": 1322.0882812500058,
      "v": 100
    },
    {
      "midi": 58,
      "hit": false,
      "t": 187842.303,
      "d": 221.1493124999979,
      "v": 100
    },
    {
      "midi": 63,
      "hit": false,
      "t": 187842.303,
      "d": 437.4910312499851,
      "v": 100
    },
    {
      "midi": 67,
      "hit": false,
      "t": 187842.303,
      "d": 437.4910312499851,
      "v": 100
    },
    {
      "midi": 51,
      "hit": false,
      "t": 188073.0675,
      "d": 211.5341250000056,
      "v": 100
    },
    {
      "midi": 46,
      "hit": false,
      "t": 188303.83200000002,
      "d": 1322.0882812500058,
      "v": 100
    },
    {
      "midi": 58,
      "hit": false,
      "t": 188303.83200000002,
      "d": 1322.0882812500058,
      "v": 100
    },
    {
      "midi": 62,
      "hit": false,
      "t": 188303.83200000002,
      "d": 1322.0882812500058,
      "v": 100
    },
    {
      "midi": 65,
      "hit": false,
      "t": 188303.83200000002,
      "d": 1322.0882812500058,
      "v": 100
    },
    {
      "midi": 58,
      "hit": false,
      "t": 189688.41900000002,
      "d": 221.1493124999979,
      "v": 100
    },
    {
      "midi": 62,
      "hit": false,
      "t": 189688.41900000002,
      "d": 437.4910312499851,
      "v": 100
    },
    {
      "midi": 65,
      "hit": false,
      "t": 189688.41900000002,
      "d": 437.4910312499851,
      "v": 100
    },
    {
      "midi": 45,
      "hit": false,
      "t": 189919.1835,
      "d": 211.5341250000056,
      "v": 100
    },
    {
      "midi": 53,
      "hit": false,
      "t": 190149.94800000003,
      "d": 1322.0882812500058,
      "v": 100
    },
    {
      "midi": 60,
      "hit": false,
      "t": 190149.94800000003,
      "d": 1322.0882812500058,
      "v": 100
    },
    {
      "midi": 65,
      "hit": false,
      "t": 190149.94800000003,
      "d": 1322.0882812500058,
      "v": 100
    },
    {
      "midi": 69,
      "hit": false,
      "t": 190149.94800000003,
      "d": 1322.0882812500058,
      "v": 100
    },
    {
      "midi": 60,
      "hit": false,
      "t": 191534.53500000003,
      "d": 221.1493124999979,
      "v": 100
    },
    {
      "midi": 65,
      "hit": false,
      "t": 191534.53500000003,
      "d": 437.4910312499851,
      "v": 100
    },
    {
      "midi": 69,
      "hit": false,
      "t": 191534.53500000003,
      "d": 437.4910312499851,
      "v": 100
    },
    {
      "midi": 53,
      "hit": false,
      "t": 191765.29950000002,
      "d": 211.5341250000056,
      "v": 100
    },
    {
      "midi": 48,
      "hit": false,
      "t": 191996.06400000004,
      "d": 1322.0882812500058,
      "v": 100
    },
    {
      "midi": 60,
      "hit": false,
      "t": 191996.06400000004,
      "d": 1322.0882812500058,
      "v": 100
    },
    {
      "midi": 64,
      "hit": false,
      "t": 191996.06400000004,
      "d": 1322.0882812500058,
      "v": 100
    },
    {
      "midi": 67,
      "hit": false,
      "t": 191996.06400000004,
      "d": 1322.0882812500058,
      "v": 100
    },
    {
      "midi": 60,
      "hit": false,
      "t": 193380.65100000004,
      "d": 221.1493124999979,
      "v": 100
    },
    {
      "midi": 64,
      "hit": false,
      "t": 193380.65100000004,
      "d": 437.4910312499851,
      "v": 100
    },
    {
      "midi": 67,
      "hit": false,
      "t": 193380.65100000004,
      "d": 437.4910312499851,
      "v": 100
    },
    {
      "midi": 48,
      "hit": false,
      "t": 193611.41550000003,
      "d": 211.5341250000056,
      "v": 100
    },
    {
      "midi": 51,
      "hit": false,
      "t": 193842.18000000005,
      "d": 1322.0882812500058,
      "v": 100
    },
    {
      "midi": 58,
      "hit": false,
      "t": 193842.18000000005,
      "d": 1322.0882812500058,
      "v": 100
    },
    {
      "midi": 63,
      "hit": false,
      "t": 193842.18000000005,
      "d": 1322.0882812500058,
      "v": 100
    },
    {
      "midi": 67,
      "hit": false,
      "t": 193842.18000000005,
      "d": 1322.0882812500058,
      "v": 100
    },
    {
      "midi": 58,
      "hit": false,
      "t": 195226.76700000005,
      "d": 221.1493124999979,
      "v": 100
    },
    {
      "midi": 63,
      "hit": false,
      "t": 195226.76700000005,
      "d": 437.4910312499851,
      "v": 100
    },
    {
      "midi": 67,
      "hit": false,
      "t": 195226.76700000005,
      "d": 437.4910312499851,
      "v": 100
    },
    {
      "midi": 51,
      "hit": false,
      "t": 195457.53150000004,
      "d": 211.5341250000056,
      "v": 100
    },
    {
      "midi": 46,
      "hit": false,
      "t": 195688.29600000006,
      "d": 1322.0882812500058,
      "v": 100
    },
    {
      "midi": 58,
      "hit": false,
      "t": 195688.29600000006,
      "d": 1322.0882812500058,
      "v": 100
    },
    {
      "midi": 62,
      "hit": false,
      "t": 195688.29600000006,
      "d": 1322.0882812500058,
      "v": 100
    },
    {
      "midi": 65,
      "hit": false,
      "t": 195688.29600000006,
      "d": 1322.0882812500058,
      "v": 100
    },
    {
      "midi": 58,
      "hit": false,
      "t": 197072.88300000006,
      "d": 221.1493124999979,
      "v": 100
    },
    {
      "midi": 62,
      "hit": false,
      "t": 197072.88300000006,
      "d": 437.4910312499851,
      "v": 100
    },
    {
      "midi": 65,
      "hit": false,
      "t": 197072.88300000006,
      "d": 437.4910312499851,
      "v": 100
    },
    {
      "midi": 46,
      "hit": false,
      "t": 197303.64750000005,
      "d": 211.5341250000056,
      "v": 100
    },
    {
      "midi": 53,
      "hit": false,
      "t": 197534.41200000007,
      "d": 1322.0882812500058,
      "v": 100
    },
    {
      "midi": 60,
      "hit": false,
      "t": 197534.41200000007,
      "d": 1322.0882812500058,
      "v": 100
    },
    {
      "midi": 65,
      "hit": false,
      "t": 197534.41200000007,
      "d": 1322.0882812500058,
      "v": 100
    },
    {
      "midi": 69,
      "hit": false,
      "t": 197534.41200000007,
      "d": 1322.0882812500058,
      "v": 100
    },
    {
      "midi": 60,
      "hit": false,
      "t": 198918.99900000007,
      "d": 221.1493124999979,
      "v": 100
    },
    {
      "midi": 65,
      "hit": false,
      "t": 198918.99900000007,
      "d": 437.4910312499851,
      "v": 100
    },
    {
      "midi": 69,
      "hit": false,
      "t": 198918.99900000007,
      "d": 437.4910312499851,
      "v": 100
    },
    {
      "midi": 53,
      "hit": false,
      "t": 199149.76350000006,
      "d": 211.5341250000056,
      "v": 100
    },
    {
      "midi": 48,
      "hit": false,
      "t": 199380.52800000008,
      "d": 1322.0882812500058,
      "v": 100
    },
    {
      "midi": 60,
      "hit": false,
      "t": 199380.52800000008,
      "d": 1322.0882812500058,
      "v": 100
    },
    {
      "midi": 64,
      "hit": false,
      "t": 199380.52800000008,
      "d": 1322.0882812500058,
      "v": 100
    },
    {
      "midi": 67,
      "hit": false,
      "t": 199380.52800000008,
      "d": 1322.0882812500058,
      "v": 100
    },
    {
      "midi": 60,
      "hit": false,
      "t": 200765.11500000008,
      "d": 221.1493124999979,
      "v": 100
    },
    {
      "midi": 64,
      "hit": false,
      "t": 200765.11500000008,
      "d": 437.4910312499851,
      "v": 100
    },
    {
      "midi": 67,
      "hit": false,
      "t": 200765.11500000008,
      "d": 437.4910312499851,
      "v": 100
    },
    {
      "midi": 48,
      "hit": false,
      "t": 200995.87950000007,
      "d": 211.5341250000056,
      "v": 100
    },
    {
      "midi": 51,
      "hit": false,
      "t": 201226.6440000001,
      "d": 1322.0882812500058,
      "v": 100
    },
    {
      "midi": 58,
      "hit": false,
      "t": 201226.6440000001,
      "d": 1322.0882812500058,
      "v": 100
    },
    {
      "midi": 63,
      "hit": false,
      "t": 201226.6440000001,
      "d": 1322.0882812500058,
      "v": 100
    },
    {
      "midi": 67,
      "hit": false,
      "t": 201226.6440000001,
      "d": 1322.0882812500058,
      "v": 100
    },
    {
      "midi": 58,
      "hit": false,
      "t": 202611.2310000001,
      "d": 221.1493124999979,
      "v": 100
    },
    {
      "midi": 63,
      "hit": false,
      "t": 202611.2310000001,
      "d": 437.4910312499851,
      "v": 100
    },
    {
      "midi": 67,
      "hit": false,
      "t": 202611.2310000001,
      "d": 437.4910312499851,
      "v": 100
    },
    {
      "midi": 51,
      "hit": false,
      "t": 202841.99550000008,
      "d": 211.5341250000056,
      "v": 100
    },
    {
      "midi": 46,
      "hit": false,
      "t": 203072.7600000001,
      "d": 1322.0882812500058,
      "v": 100
    },
    {
      "midi": 58,
      "hit": false,
      "t": 203072.7600000001,
      "d": 1322.0882812500058,
      "v": 100
    },
    {
      "midi": 62,
      "hit": false,
      "t": 203072.7600000001,
      "d": 1322.0882812500058,
      "v": 100
    },
    {
      "midi": 65,
      "hit": false,
      "t": 203072.7600000001,
      "d": 1322.0882812500058,
      "v": 100
    },
    {
      "midi": 58,
      "hit": false,
      "t": 204457.3470000001,
      "d": 221.1493124999979,
      "v": 100
    },
    {
      "midi": 62,
      "hit": false,
      "t": 204457.3470000001,
      "d": 437.4910312499851,
      "v": 100
    },
    {
      "midi": 65,
      "hit": false,
      "t": 204457.3470000001,
      "d": 437.4910312499851,
      "v": 100
    },
    {
      "midi": 45,
      "hit": false,
      "t": 204688.1115000001,
      "d": 211.5341250000056,
      "v": 100
    },
    {
      "midi": 53,
      "hit": false,
      "t": 204918.8760000001,
      "d": 1322.0882812500058,
      "v": 100
    },
    {
      "midi": 60,
      "hit": false,
      "t": 204918.8760000001,
      "d": 1322.0882812500058,
      "v": 100
    },
    {
      "midi": 65,
      "hit": false,
      "t": 204918.8760000001,
      "d": 1322.0882812500058,
      "v": 100
    },
    {
      "midi": 69,
      "hit": false,
      "t": 204918.8760000001,
      "d": 1322.0882812500058,
      "v": 100
    },
    {
      "midi": 60,
      "hit": false,
      "t": 206303.4630000001,
      "d": 221.1493124999979,
      "v": 100
    },
    {
      "midi": 65,
      "hit": false,
      "t": 206303.4630000001,
      "d": 437.4910312499851,
      "v": 100
    },
    {
      "midi": 69,
      "hit": false,
      "t": 206303.4630000001,
      "d": 437.4910312499851,
      "v": 100
    },
    {
      "midi": 53,
      "hit": false,
      "t": 206534.2275000001,
      "d": 211.5341250000056,
      "v": 100
    },
    {
      "midi": 48,
      "hit": false,
      "t": 206764.99200000011,
      "d": 1322.0882812500058,
      "v": 100
    },
    {
      "midi": 60,
      "hit": false,
      "t": 206764.99200000011,
      "d": 1322.0882812500058,
      "v": 100
    },
    {
      "midi": 64,
      "hit": false,
      "t": 206764.99200000011,
      "d": 1322.0882812500058,
      "v": 100
    },
    {
      "midi": 67,
      "hit": false,
      "t": 206764.99200000011,
      "d": 1322.0882812500058,
      "v": 100
    },
    {
      "midi": 60,
      "hit": false,
      "t": 208149.5790000001,
      "d": 221.1493124999979,
      "v": 100
    },
    {
      "midi": 64,
      "hit": false,
      "t": 208149.5790000001,
      "d": 437.4910312499851,
      "v": 100
    },
    {
      "midi": 67,
      "hit": false,
      "t": 208149.5790000001,
      "d": 437.4910312499851,
      "v": 100
    },
    {
      "midi": 48,
      "hit": false,
      "t": 208380.3435000001,
      "d": 211.5341250000056,
      "v": 100
    },
    {
      "midi": 51,
      "hit": false,
      "t": 208611.10800000012,
      "d": 1322.0882812500058,
      "v": 100
    },
    {
      "midi": 58,
      "hit": false,
      "t": 208611.10800000012,
      "d": 1322.0882812500058,
      "v": 100
    },
    {
      "midi": 63,
      "hit": false,
      "t": 208611.10800000012,
      "d": 1322.0882812500058,
      "v": 100
    },
    {
      "midi": 67,
      "hit": false,
      "t": 208611.10800000012,
      "d": 1322.0882812500058,
      "v": 100
    },
    {
      "midi": 58,
      "hit": false,
      "t": 209995.69500000015,
      "d": 221.1493124999979,
      "v": 100
    },
    {
      "midi": 63,
      "hit": false,
      "t": 209995.69500000015,
      "d": 437.4910312499851,
      "v": 100
    },
    {
      "midi": 67,
      "hit": false,
      "t": 209995.69500000015,
      "d": 437.4910312499851,
      "v": 100
    },
    {
      "midi": 51,
      "hit": false,
      "t": 210226.45950000014,
      "d": 211.5341250000056,
      "v": 100
    },
    {
      "midi": 46,
      "hit": false,
      "t": 210457.22400000016,
      "d": 1322.088281250035,
      "v": 100
    },
    {
      "midi": 58,
      "hit": false,
      "t": 210457.22400000016,
      "d": 1322.088281250035,
      "v": 100
    },
    {
      "midi": 62,
      "hit": false,
      "t": 210457.22400000016,
      "d": 1322.088281250035,
      "v": 100
    },
    {
      "midi": 65,
      "hit": false,
      "t": 210457.22400000016,
      "d": 1322.088281250035,
      "v": 100
    },
    {
      "midi": 58,
      "hit": false,
      "t": 211841.8110000002,
      "d": 221.1493124999979,
      "v": 100
    },
    {
      "midi": 62,
      "hit": false,
      "t": 211841.8110000002,
      "d": 437.4910312499851,
      "v": 100
    },
    {
      "midi": 65,
      "hit": false,
      "t": 211841.8110000002,
      "d": 437.4910312499851,
      "v": 100
    },
    {
      "midi": 46,
      "hit": false,
      "t": 212072.57550000018,
      "d": 211.5341250000056,
      "v": 100
    },
    {
      "midi": 53,
      "hit": false,
      "t": 212303.3400000002,
      "d": 1322.0882812499767,
      "v": 100
    },
    {
      "midi": 60,
      "hit": false,
      "t": 212303.3400000002,
      "d": 1322.0882812499767,
      "v": 100
    },
    {
      "midi": 65,
      "hit": false,
      "t": 212303.3400000002,
      "d": 1322.0882812499767,
      "v": 100
    },
    {
      "midi": 69,
      "hit": false,
      "t": 212303.3400000002,
      "d": 1322.0882812499767,
      "v": 100
    },
    {
      "midi": 60,
      "hit": false,
      "t": 213687.92700000017,
      "d": 221.149312500027,
      "v": 100
    },
    {
      "midi": 65,
      "hit": false,
      "t": 213687.92700000017,
      "d": 437.4910312500433,
      "v": 100
    },
    {
      "midi": 69,
      "hit": false,
      "t": 213687.92700000017,
      "d": 437.4910312500433,
      "v": 100
    },
    {
      "midi": 53,
      "hit": false,
      "t": 213918.6915000002,
      "d": 211.5341250000347,
      "v": 100
    },
    {
      "midi": 48,
      "hit": false,
      "t": 214149.45600000024,
      "d": 1322.088281250035,
      "v": 100
    },
    {
      "midi": 60,
      "hit": false,
      "t": 214149.45600000024,
      "d": 1322.088281250035,
      "v": 100
    },
    {
      "midi": 64,
      "hit": false,
      "t": 214149.45600000024,
      "d": 1322.088281250035,
      "v": 100
    },
    {
      "midi": 67,
      "hit": false,
      "t": 214149.45600000024,
      "d": 1322.088281250035,
      "v": 100
    },
    {
      "midi": 60,
      "hit": false,
      "t": 215534.04300000027,
      "d": 221.1493124999979,
      "v": 100
    },
    {
      "midi": 64,
      "hit": false,
      "t": 215534.04300000027,
      "d": 437.4910312500142,
      "v": 100
    },
    {
      "midi": 67,
      "hit": false,
      "t": 215534.04300000027,
      "d": 437.4910312500142,
      "v": 100
    },
    {
      "midi": 48,
      "hit": false,
      "t": 215764.80750000026,
      "d": 211.5341250000347,
      "v": 100
    },
    {
      "midi": 51,
      "hit": false,
      "t": 215995.5720000003,
      "d": 1322.0882812499767,
      "v": 100
    },
    {
      "midi": 58,
      "hit": false,
      "t": 215995.5720000003,
      "d": 1322.0882812499767,
      "v": 100
    },
    {
      "midi": 63,
      "hit": false,
      "t": 215995.5720000003,
      "d": 1322.0882812499767,
      "v": 100
    },
    {
      "midi": 67,
      "hit": false,
      "t": 215995.5720000003,
      "d": 1322.0882812499767,
      "v": 100
    },
    {
      "midi": 58,
      "hit": false,
      "t": 217380.15900000028,
      "d": 221.1493124999979,
      "v": 100
    },
    {
      "midi": 63,
      "hit": false,
      "t": 217380.15900000028,
      "d": 437.4910312500142,
      "v": 100
    },
    {
      "midi": 67,
      "hit": false,
      "t": 217380.15900000028,
      "d": 437.4910312500142,
      "v": 100
    },
    {
      "midi": 51,
      "hit": false,
      "t": 217610.92350000027,
      "d": 211.5341250000347,
      "v": 100
    },
    {
      "midi": 46,
      "hit": false,
      "t": 217841.68800000031,
      "d": 1322.0882812499767,
      "v": 100
    },
    {
      "midi": 58,
      "hit": false,
      "t": 217841.68800000031,
      "d": 1322.0882812499767,
      "v": 100
    },
    {
      "midi": 62,
      "hit": false,
      "t": 217841.68800000031,
      "d": 1322.0882812499767,
      "v": 100
    },
    {
      "midi": 65,
      "hit": false,
      "t": 217841.68800000031,
      "d": 1322.0882812499767,
      "v": 100
    },
    {
      "midi": 58,
      "hit": false,
      "t": 219226.27500000029,
      "d": 221.1493124999979,
      "v": 100
    },
    {
      "midi": 62,
      "hit": false,
      "t": 219226.27500000029,
      "d": 437.4910312500433,
      "v": 100
    },
    {
      "midi": 65,
      "hit": false,
      "t": 219226.27500000029,
      "d": 437.4910312500433,
      "v": 100
    },
    {
      "midi": 45,
      "hit": false,
      "t": 219457.0395000003,
      "d": 211.5341250000347,
      "v": 100
    },
    {
      "midi": 53,
      "hit": false,
      "t": 219687.80400000035,
      "d": 1322.0882812499476,
      "v": 100
    },
    {
      "midi": 60,
      "hit": false,
      "t": 219687.80400000035,
      "d": 1322.0882812499476,
      "v": 100
    },
    {
      "midi": 65,
      "hit": false,
      "t": 219687.80400000035,
      "d": 1322.0882812499476,
      "v": 100
    },
    {
      "midi": 69,
      "hit": false,
      "t": 219687.80400000035,
      "d": 1322.0882812499476,
      "v": 100
    },
    {
      "midi": 60,
      "hit": false,
      "t": 221072.3910000003,
      "d": 221.1493124999688,
      "v": 100
    },
    {
      "midi": 65,
      "hit": false,
      "t": 221072.3910000003,
      "d": 437.491031249956,
      "v": 100
    },
    {
      "midi": 69,
      "hit": false,
      "t": 221072.3910000003,
      "d": 437.491031249956,
      "v": 100
    },
    {
      "midi": 53,
      "hit": false,
      "t": 221303.15550000026,
      "d": 211.5341250000056,
      "v": 100
    },
    {
      "midi": 48,
      "hit": false,
      "t": 221533.92000000027,
      "d": 1322.0882812499767,
      "v": 100
    },
    {
      "midi": 60,
      "hit": false,
      "t": 221533.92000000027,
      "d": 1322.0882812499767,
      "v": 100
    },
    {
      "midi": 64,
      "hit": false,
      "t": 221533.92000000027,
      "d": 1322.0882812499767,
      "v": 100
    },
    {
      "midi": 67,
      "hit": false,
      "t": 221533.92000000027,
      "d": 1322.0882812499767,
      "v": 100
    },
    {
      "midi": 60,
      "hit": false,
      "t": 222918.50700000025,
      "d": 221.1493124999979,
      "v": 100
    },
    {
      "midi": 64,
      "hit": false,
      "t": 222918.50700000025,
      "d": 437.4910312499851,
      "v": 100
    },
    {
      "midi": 67,
      "hit": false,
      "t": 222918.50700000025,
      "d": 437.4910312499851,
      "v": 100
    },
    {
      "midi": 48,
      "hit": false,
      "t": 223149.27150000024,
      "d": 211.5341250000056,
      "v": 100
    },
    {
      "midi": 58,
      "hit": false,
      "t": 223380.03600000025,
      "d": 76.92149999999674,
      "v": 100
    },
    {
      "midi": 63,
      "hit": false,
      "t": 223380.03600000025,
      "d": 96.15187499998137,
      "v": 100
    },
    {
      "midi": 67,
      "hit": false,
      "t": 223380.03600000025,
      "d": 96.15187499998137,
      "v": 100
    },
    {
      "midi": 51,
      "hit": false,
      "t": 223380.03600000025,
      "d": 115.38224999999511,
      "v": 100
    }
  ]
}