{
  "jsonPath": "Unknown/Unknown/Here  Now/bizarre-love-triangle.json",
  "path": "Unknown\\Unknown\\Here  Now\\Bizarre Love Triangle.mid",
  "name": "Bizarre Love Triangle",
  "difficulty": "Advanced",
  "bpm": 124.00050426871736,
  "notes": [
    {
      "midi": 39,
      "hit": false,
      "t": 7696.573093749999,
      "d": 3898.689776041667,
      "v": 111
    },
    {
      "midi": 63,
      "hit": false,
      "t": 7714.214223958333,
      "d": 3886.0889687499994,
      "v": 100
    },
    {
      "midi": 51,
      "hit": false,
      "t": 7721.7747083333325,
      "d": 3888.609130208333,
      "v": 95
    },
    {
      "midi": 58,
      "hit": false,
      "t": 11610.383838541666,
      "d": 3858.3671927083324,
      "v": 108
    },
    {
      "midi": 62,
      "hit": false,
      "t": 11610.383838541666,
      "d": 3863.4075156249983,
      "v": 99
    },
    {
      "midi": 46,
      "hit": false,
      "t": 11610.383838541666,
      "d": 3868.447838541664,
      "v": 112
    },
    {
      "midi": 49,
      "hit": false,
      "t": 15498.992968749997,
      "d": 3843.246223958333,
      "v": 111
    },
    {
      "midi": 37,
      "hit": false,
      "t": 15498.992968749997,
      "d": 3848.2865468749987,
      "v": 116
    },
    {
      "midi": 61,
      "hit": false,
      "t": 15498.992968749997,
      "d": 3848.2865468749987,
      "v": 100
    },
    {
      "midi": 32,
      "hit": false,
      "t": 19362.400484374997,
      "d": 3870.9680000000008,
      "v": 107
    },
    {
      "midi": 44,
      "hit": false,
      "t": 19364.920645833332,
      "d": 3828.1252552083315,
      "v": 116
    },
    {
      "midi": 56,
      "hit": false,
      "t": 19364.920645833332,
      "d": 3833.1655781249974,
      "v": 109
    },
    {
      "midi": 63,
      "hit": false,
      "t": 19369.960968749998,
      "d": 3810.484124999999,
      "v": 95
    },
    {
      "midi": 63,
      "hit": false,
      "t": 23225.807999999997,
      "d": 1444.0525156250005,
      "v": 103
    },
    {
      "midi": 67,
      "hit": false,
      "t": 23225.807999999997,
      "d": 1449.09283854167,
      "v": 103
    },
    {
      "midi": 70,
      "hit": false,
      "t": 23230.848322916663,
      "d": 1484.3750989583386,
      "v": 113
    },
    {
      "midi": 39,
      "hit": false,
      "t": 23233.368484374998,
      "d": 3724.7986354166715,
      "v": 110
    },
    {
      "midi": 65,
      "hit": false,
      "t": 24669.860515624998,
      "d": 463.7097083333392,
      "v": 83
    },
    {
      "midi": 68,
      "hit": false,
      "t": 24672.380677083333,
      "d": 395.66534895833684,
      "v": 91
    },
    {
      "midi": 53,
      "hit": false,
      "t": 24672.380677083333,
      "d": 478.8306770833369,
      "v": 72
    },
    {
      "midi": 63,
      "hit": false,
      "t": 25146.171031250004,
      "d": 1605.3428489583312,
      "v": 72
    },
    {
      "midi": 51,
      "hit": false,
      "t": 25151.21135416667,
      "d": 1940.5243229166663,
      "v": 67
    },
    {
      "midi": 67,
      "hit": false,
      "t": 25158.77183854167,
      "d": 1877.5202864583334,
      "v": 80
    },
    {
      "midi": 65,
      "hit": false,
      "t": 26605.344515625,
      "d": 282.25808333333407,
      "v": 92
    },
    {
      "midi": 43,
      "hit": false,
      "t": 26615.425161458334,
      "d": 327.62098958333445,
      "v": 110
    },
    {
      "midi": 58,
      "hit": false,
      "t": 26615.425161458334,
      "d": 2142.137239583335,
      "v": 92
    },
    {
      "midi": 44,
      "hit": false,
      "t": 26849.800177083336,
      "d": 350.3024427083328,
      "v": 107
    },
    {
      "midi": 63,
      "hit": false,
      "t": 26854.840500000002,
      "d": 294.85889062500064,
      "v": 88
    },
    {
      "midi": 46,
      "hit": false,
      "t": 27081.655031250004,
      "d": 3883.5688072916637,
      "v": 110
    },
    {
      "midi": 65,
      "hit": false,
      "t": 27086.69535416667,
      "d": 1761.5928593749995,
      "v": 88
    },
    {
      "midi": 60,
      "hit": false,
      "t": 28775.20353125,
      "d": 231.8548541666678,
      "v": 60
    },
    {
      "midi": 63,
      "hit": false,
      "t": 28787.804338541668,
      "d": 282.25808333333407,
      "v": 72
    },
    {
      "midi": 62,
      "hit": false,
      "t": 29019.659192708335,
      "d": 1938.0041614583315,
      "v": 68
    },
    {
      "midi": 58,
      "hit": false,
      "t": 29024.699515625,
      "d": 1950.604968749998,
      "v": 60
    },
    {
      "midi": 61,
      "hit": false,
      "t": 30965.223838541668,
      "d": 3765.1212187500023,
      "v": 80
    },
    {
      "midi": 37,
      "hit": false,
      "t": 30982.86496875,
      "d": 3843.24622395834,
      "v": 80
    },
    {
      "midi": 49,
      "hit": false,
      "t": 32396.675546874998,
      "d": 189.01210937500218,
      "v": 68
    },
    {
      "midi": 54,
      "hit": false,
      "t": 32404.23603125,
      "d": 168.85081770833494,
      "v": 60
    },
    {
      "midi": 49,
      "hit": false,
      "t": 32925.909453125,
      "d": 879.5363489583324,
      "v": 64
    },
    {
      "midi": 53,
      "hit": false,
      "t": 32948.59090625,
      "d": 2074.0928802083436,
      "v": 60
    },
    {
      "midi": 32,
      "hit": false,
      "t": 34846.272484375004,
      "d": 3830.6454166666736,
      "v": 98
    },
    {
      "midi": 63,
      "hit": false,
      "t": 34858.87329166667,
      "d": 3268.64941145834,
      "v": 97
    },
    {
      "midi": 56,
      "hit": false,
      "t": 34861.393453125005,
      "d": 3230.8469895833405,
      "v": 101
    },
    {
      "midi": 44,
      "hit": false,
      "t": 34866.433776041675,
      "d": 3508.0647499999977,
      "v": 110
    },
    {
      "midi": 58,
      "hit": false,
      "t": 37734.37751562501,
      "d": 808.9718281249952,
      "v": 92
    },
    {
      "midi": 60,
      "hit": false,
      "t": 37973.79285416668,
      "d": 307.45969791665993,
      "v": 84
    },
    {
      "midi": 63,
      "hit": false,
      "t": 38210.68803125001,
      "d": 438.50809375000244,
      "v": 101
    },
    {
      "midi": 65,
      "hit": false,
      "t": 38452.62353125001,
      "d": 347.78228125000896,
      "v": 88
    },
    {
      "midi": 39,
      "hit": false,
      "t": 38689.518708333344,
      "d": 4090.2220468750165,
      "v": 88
    },
    {
      "midi": 51,
      "hit": false,
      "t": 38694.55903125001,
      "d": 2379.0324166666687,
      "v": 84
    },
    {
      "midi": 63,
      "hit": false,
      "t": 38697.07919270835,
      "d": 2885.5848697916663,
      "v": 110
    },
    {
      "midi": 58,
      "hit": false,
      "t": 38697.07919270835,
      "d": 3311.4921562500094,
      "v": 92
    },
    {
      "midi": 51,
      "hit": false,
      "t": 41118.95435416668,
      "d": 1517.1371979166797,
      "v": 88
    },
    {
      "midi": 68,
      "hit": false,
      "t": 41602.82535416668,
      "d": 297.3790520833427,
      "v": 101
    },
    {
      "midi": 63,
      "hit": false,
      "t": 41605.34551562501,
      "d": 246.97582291666913,
      "v": 101
    },
    {
      "midi": 63,
      "hit": false,
      "t": 41867.44230729168,
      "d": 743.4476302083422,
      "v": 92
    },
    {
      "midi": 67,
      "hit": false,
      "t": 41869.96246875002,
      "d": 753.528276041674,
      "v": 101
    },
    {
      "midi": 65,
      "hit": false,
      "t": 42560.48670833336,
      "d": 2925.907453125008,
      "v": 88
    },
    {
      "midi": 58,
      "hit": false,
      "t": 42570.56735416669,
      "d": 3288.810703125011,
      "v": 88
    },
    {
      "midi": 46,
      "hit": false,
      "t": 42573.087515625026,
      "d": 1932.9638385416692,
      "v": 92
    },
    {
      "midi": 62,
      "hit": false,
      "t": 42575.60767708336,
      "d": 2968.75019791667,
      "v": 92
    },
    {
      "midi": 46,
      "hit": false,
      "t": 44516.13200000003,
      "d": 718.2460156250017,
      "v": 76
    },
    {
      "midi": 46,
      "hit": false,
      "t": 45252.019145833365,
      "d": 672.883109375005,
      "v": 101
    },
    {
      "midi": 63,
      "hit": false,
      "t": 45468.75303125003,
      "d": 239.41533854166482,
      "v": 101
    },
    {
      "midi": 67,
      "hit": false,
      "t": 45481.3538385417,
      "d": 229.33469270833302,
      "v": 92
    },
    {
      "midi": 62,
      "hit": false,
      "t": 45710.68853125003,
      "d": 735.8871458333451,
      "v": 92
    },
    {
      "midi": 65,
      "hit": false,
      "t": 45713.208692708366,
      "d": 715.7258541666743,
      "v": 110
    },
    {
      "midi": 46,
      "hit": false,
      "t": 45955.14419270837,
      "d": 219.25404687500122,
      "v": 80
    },
    {
      "midi": 46,
      "hit": false,
      "t": 46194.55953125004,
      "d": 229.33469270833302,
      "v": 80
    },
    {
      "midi": 56,
      "hit": false,
      "t": 46426.414385416705,
      "d": 725.806500000006,
      "v": 102
    },
    {
      "midi": 49,
      "hit": false,
      "t": 46436.49503125004,
      "d": 1920.3630312500027,
      "v": 103
    },
    {
      "midi": 53,
      "hit": false,
      "t": 46439.01519270837,
      "d": 715.7258541666743,
      "v": 90
    },
    {
      "midi": 61,
      "hit": false,
      "t": 46441.53535416671,
      "d": 715.7258541666743,
      "v": 94
    },
    {
      "midi": 56,
      "hit": false,
      "t": 47169.86201562505,
      "d": 710.6855312499974,
      "v": 84
    },
    {
      "midi": 53,
      "hit": false,
      "t": 47174.90233854172,
      "d": 685.4839166666643,
      "v": 73
    },
    {
      "midi": 53,
      "hit": false,
      "t": 47880.547546875045,
      "d": 491.4314843749962,
      "v": 59
    },
    {
      "midi": 56,
      "hit": false,
      "t": 47900.70883854171,
      "d": 471.2701927083326,
      "v": 67
    },
    {
      "midi": 49,
      "hit": false,
      "t": 48377.01935416671,
      "d": 483.87100000000646,
      "v": 78
    },
    {
      "midi": 61,
      "hit": false,
      "t": 48379.539515625045,
      "d": 2.520161458334769,
      "v": 76
    },
    {
      "midi": 56,
      "hit": false,
      "t": 48379.539515625045,
      "d": 854.3347343750065,
      "v": 75
    },
    {
      "midi": 53,
      "hit": false,
      "t": 48382.05967708338,
      "d": 1335.685572916671,
      "v": 68
    },
    {
      "midi": 66,
      "hit": false,
      "t": 48860.89035416672,
      "d": 534.2742291666655,
      "v": 107
    },
    {
      "midi": 61,
      "hit": false,
      "t": 48865.93067708339,
      "d": 456.1492239583313,
      "v": 116
    },
    {
      "midi": 49,
      "hit": false,
      "t": 48865.93067708339,
      "d": 483.8709999999992,
      "v": 102
    },
    {
      "midi": 58,
      "hit": false,
      "t": 48868.45083854172,
      "d": 501.512130208328,
      "v": 116
    },
    {
      "midi": 61,
      "hit": false,
      "t": 49347.28151562505,
      "d": 236.89517708333005,
      "v": 107
    },
    {
      "midi": 56,
      "hit": false,
      "t": 49349.801677083386,
      "d": 504.03229166667006,
      "v": 107
    },
    {
      "midi": 65,
      "hit": false,
      "t": 49352.32183854172,
      "d": 483.8709999999992,
      "v": 103
    },
    {
      "midi": 49,
      "hit": false,
      "t": 49362.40248437505,
      "d": 509.0726145833396,
      "v": 84
    },
    {
      "midi": 42,
      "hit": false,
      "t": 49800.91057812505,
      "d": 516.6330989583512,
      "v": 96
    },
    {
      "midi": 61,
      "hit": false,
      "t": 49810.99122395838,
      "d": 498.99196875002235,
      "v": 107
    },
    {
      "midi": 54,
      "hit": false,
      "t": 49816.03154687505,
      "d": 514.1129375000164,
      "v": 107
    },
    {
      "midi": 66,
      "hit": false,
      "t": 49818.55170833338,
      "d": 519.1532604166787,
      "v": 90
    },
    {
      "midi": 60,
      "hit": false,
      "t": 50282.261416666726,
      "d": 748.4879531250044,
      "v": 110
    },
    {
      "midi": 63,
      "hit": false,
      "t": 50287.301739583396,
      "d": 738.4073072916653,
      "v": 110
    },
    {
      "midi": 56,
      "hit": false,
      "t": 50292.342062500065,
      "d": 745.9677916666624,
      "v": 92
    },
    {
      "midi": 44,
      "hit": false,
      "t": 50297.382385416735,
      "d": 461.18954687499354,
      "v": 102
    },
    {
      "midi": 44,
      "hit": false,
      "t": 50783.77354687506,
      "d": 715.725854166667,
      "v": 84
    },
    {
      "midi": 60,
      "hit": false,
      "t": 51053.43082291673,
      "d": 708.16536979167,
      "v": 101
    },
    {
      "midi": 63,
      "hit": false,
      "t": 51053.43082291673,
      "d": 715.725854166667,
      "v": 88
    },
    {
      "midi": 56,
      "hit": false,
      "t": 51058.4711458334,
      "d": 2953.6292291666687,
      "v": 88
    },
    {
      "midi": 44,
      "hit": false,
      "t": 51514.62036979173,
      "d": 2678.931630208346,
      "v": 80
    },
    {
      "midi": 60,
      "hit": false,
      "t": 51769.156677083396,
      "d": 927.4194166666712,
      "v": 72
    },
    {
      "midi": 63,
      "hit": false,
      "t": 51779.23732291673,
      "d": 1073.5887812500077,
      "v": 71
    },
    {
      "midi": 58,
      "hit": false,
      "t": 52270.66880729173,
      "d": 1255.040406250002,
      "v": 104
    },
    {
      "midi": 60,
      "hit": false,
      "t": 52711.69706250007,
      "d": 766.1290833333333,
      "v": 113
    },
    {
      "midi": 63,
      "hit": false,
      "t": 53198.0882239584,
      "d": 468.75003124999785,
      "v": 104
    },
    {
      "midi": 65,
      "hit": false,
      "t": 53455.1446927084,
      "d": 803.9315052083402,
      "v": 95
    },
    {
      "midi": 39,
      "hit": false,
      "t": 54170.87054687507,
      "d": 3896.1696145833484,
      "v": 110
    },
    {
      "midi": 63,
      "hit": false,
      "t": 54178.43103125007,
      "d": 662.8024635416732,
      "v": 101
    },
    {
      "midi": 70,
      "hit": false,
      "t": 54183.47135416674,
      "d": 635.0806875000053,
      "v": 92
    },
    {
      "midi": 67,
      "hit": false,
      "t": 54188.51167708341,
      "d": 619.959718750004,
      "v": 110
    },
    {
      "midi": 67,
      "hit": false,
      "t": 54942.03995312507,
      "d": 572.0766510416652,
      "v": 101
    },
    {
      "midi": 63,
      "hit": false,
      "t": 54944.56011458341,
      "d": 642.641171874995,
      "v": 84
    },
    {
      "midi": 70,
      "hit": false,
      "t": 54954.64076041674,
      "d": 599.7984270833331,
      "v": 84
    },
    {
      "midi": 63,
      "hit": false,
      "t": 55630.04403125007,
      "d": 443.5484166666647,
      "v": 96
    },
    {
      "midi": 68,
      "hit": false,
      "t": 55635.08435416674,
      "d": 496.47180729166575,
      "v": 100
    },
    {
      "midi": 72,
      "hit": false,
      "t": 55645.16500000007,
      "d": 516.6330989583366,
      "v": 104
    },
    {
      "midi": 63,
      "hit": false,
      "t": 56126.51583854174,
      "d": 688.0040781250063,
      "v": 84
    },
    {
      "midi": 70,
      "hit": false,
      "t": 56129.03600000007,
      "d": 776.2097291666796,
      "v": 88
    },
    {
      "midi": 67,
      "hit": false,
      "t": 56131.55616145841,
      "d": 700.6048854166729,
      "v": 101
    },
    {
      "midi": 60,
      "hit": false,
      "t": 56834.681208333415,
      "d": 642.6411718750023,
      "v": 88
    },
    {
      "midi": 63,
      "hit": false,
      "t": 56834.681208333415,
      "d": 1103.8307187500031,
      "v": 92
    },
    {
      "midi": 68,
      "hit": false,
      "t": 56839.721531250085,
      "d": 647.6814947916646,
      "v": 92
    },
    {
      "midi": 58,
      "hit": false,
      "t": 57542.846578125085,
      "d": 493.951645833331,
      "v": 86
    },
    {
      "midi": 67,
      "hit": false,
      "t": 57550.40706250008,
      "d": 496.47180729166575,
      "v": 88
    },
    {
      "midi": 65,
      "hit": false,
      "t": 58061.99983854175,
      "d": 652.7218177083414,
      "v": 101
    },
    {
      "midi": 58,
      "hit": false,
      "t": 58064.520000000084,
      "d": 662.8024635416732,
      "v": 101
    },
    {
      "midi": 62,
      "hit": false,
      "t": 58069.560322916754,
      "d": 670.3629479166702,
      "v": 110
    },
    {
      "midi": 46,
      "hit": false,
      "t": 58074.60064583342,
      "d": 1154.2339479166694,
      "v": 110
    },
    {
      "midi": 65,
      "hit": false,
      "t": 58787.806338541755,
      "d": 632.5605260416705,
      "v": 88
    },
    {
      "midi": 58,
      "hit": false,
      "t": 58792.846661458425,
      "d": 589.7177812500013,
      "v": 84
    },
    {
      "midi": 62,
      "hit": false,
      "t": 58795.36682291676,
      "d": 604.8387500000026,
      "v": 92
    },
    {
      "midi": 46,
      "hit": false,
      "t": 59294.35879166676,
      "d": 630.0403645833285,
      "v": 101
    },
    {
      "midi": 63,
      "hit": false,
      "t": 59511.09267708343,
      "d": 516.6330989583366,
      "v": 101
    },
    {
      "midi": 67,
      "hit": false,
      "t": 59513.61283854176,
      "d": 481.35083854165714,
      "v": 101
    },
    {
      "midi": 60,
      "hit": false,
      "t": 59521.17332291676,
      "d": 488.91132291666145,
      "v": 84
    },
    {
      "midi": 62,
      "hit": false,
      "t": 60015.12496875009,
      "d": 1411.2904166666776,
      "v": 101
    },
    {
      "midi": 46,
      "hit": false,
      "t": 60020.16529166676,
      "d": 675.4032708333398,
      "v": 101
    },
    {
      "midi": 65,
      "hit": false,
      "t": 60025.20561458343,
      "d": 1635.5847864583338,
      "v": 88
    },
    {
      "midi": 58,
      "hit": false,
      "t": 60030.2459375001,
      "d": 1383.5686406250024,
      "v": 88
    },
    {
      "midi": 46,
      "hit": false,
      "t": 60720.77017708343,
      "d": 214.21372395833168,
      "v": 76
    },
    {
      "midi": 46,
      "hit": false,
      "t": 60957.66535416676,
      "d": 194.05243229166808,
      "v": 88
    },
    {
      "midi": 46,
      "hit": false,
      "t": 61176.91940104176,
      "d": 259.5766302083357,
      "v": 101
    },
    {
      "midi": 47,
      "hit": false,
      "t": 61408.77425520843,
      "d": 224.29436979166348,
      "v": 101
    },
    {
      "midi": 58,
      "hit": false,
      "t": 61428.9355468751,
      "d": 163.81049479165813,
      "v": 70
    },
    {
      "midi": 62,
      "hit": false,
      "t": 61444.056515625096,
      "d": 126.0080729166657,
      "v": 80
    },
    {
      "midi": 48,
      "hit": false,
      "t": 61630.54846354176,
      "d": 302.4193749999904,
      "v": 110
    },
    {
      "midi": 60,
      "hit": false,
      "t": 61638.108947916764,
      "d": 126.0080729166657,
      "v": 77
    },
    {
      "midi": 64,
      "hit": false,
      "t": 61640.6291093751,
      "d": 146.1693645833293,
      "v": 80
    },
    {
      "midi": 56,
      "hit": false,
      "t": 61869.963802083425,
      "d": 773.689567708323,
      "v": 93
    },
    {
      "midi": 49,
      "hit": false,
      "t": 61869.963802083425,
      "d": 1756.55253645833,
      "v": 101
    },
    {
      "midi": 61,
      "hit": false,
      "t": 61880.044447916756,
      "d": 773.6895677083303,
      "v": 110
    },
    {
      "midi": 65,
      "hit": false,
      "t": 61887.60493229175,
      "d": 761.0887604166637,
      "v": 110
    },
    {
      "midi": 65,
      "hit": false,
      "t": 62663.81466145842,
      "d": 945.060546875,
      "v": 80
    },
    {
      "midi": 56,
      "hit": false,
      "t": 62663.81466145842,
      "d": 2167.338854166672,
      "v": 80
    },
    {
      "midi": 61,
      "hit": false,
      "t": 62673.89530729175,
      "d": 899.6976406250033,
      "v": 92
    },
    {
      "midi": 65,
      "hit": false,
      "t": 63639.11714583342,
      "d": 688.0040781250063,
      "v": 67
    },
    {
      "midi": 49,
      "hit": false,
      "t": 63644.15746875009,
      "d": 430.94760937499814,
      "v": 87
    },
    {
      "midi": 61,
      "hit": false,
      "t": 63651.71795312509,
      "d": 682.9637552083368,
      "v": 82
    },
    {
      "midi": 49,
      "hit": false,
      "t": 64105.34701562509,
      "d": 725.8064999999988,
      "v": 75
    },
    {
      "midi": 61,
      "hit": false,
      "t": 64347.28251562509,
      "d": 453.6290624999965,
      "v": 81
    },
    {
      "midi": 65,
      "hit": false,
      "t": 64347.28251562509,
      "d": 483.8709999999992,
      "v": 70
    },
    {
      "midi": 49,
      "hit": false,
      "t": 64838.71400000009,
      "d": 967.7420000000056,
      "v": 90
    },
    {
      "midi": 61,
      "hit": false,
      "t": 64843.75432291676,
      "d": 934.9799010416682,
      "v": 101
    },
    {
      "midi": 56,
      "hit": false,
      "t": 64843.75432291676,
      "d": 940.0202239583377,
      "v": 84
    },
    {
      "midi": 66,
      "hit": false,
      "t": 64848.794645833426,
      "d": 297.37905208332813,
      "v": 92
    },
    {
      "midi": 65,
      "hit": false,
      "t": 65098.29063020842,
      "d": 693.0444010416759,
      "v": 101
    },
    {
      "midi": 44,
      "hit": false,
      "t": 65816.53664583343,
      "d": 378.0242187499971,
      "v": 101
    },
    {
      "midi": 60,
      "hit": false,
      "t": 65816.53664583343,
      "d": 657.7621406249964,
      "v": 92
    },
    {
      "midi": 63,
      "hit": false,
      "t": 65816.53664583343,
      "d": 677.92343229166,
      "v": 110
    },
    {
      "midi": 68,
      "hit": false,
      "t": 65819.05680729177,
      "d": 642.6411718749878,
      "v": 101
    },
    {
      "midi": 44,
      "hit": false,
      "t": 66295.36732291676,
      "d": 589.7177812500013,
      "v": 92
    },
    {
      "midi": 60,
      "hit": false,
      "t": 66544.86330729176,
      "d": 617.4395572916692,
      "v": 86
    },
    {
      "midi": 63,
      "hit": false,
      "t": 66544.86330729176,
      "d": 622.4798802083387,
      "v": 104
    },
    {
      "midi": 68,
      "hit": false,
      "t": 66544.86330729176,
      "d": 622.4798802083387,
      "v": 95
    },
    {
      "midi": 44,
      "hit": false,
      "t": 67013.61333854176,
      "d": 572.0766510416724,
      "v": 101
    },
    {
      "midi": 63,
      "hit": false,
      "t": 67255.54883854177,
      "d": 458.66938541666605,
      "v": 101
    },
    {
      "midi": 60,
      "hit": false,
      "t": 67255.54883854177,
      "d": 471.2701927083399,
      "v": 84
    },
    {
      "midi": 68,
      "hit": false,
      "t": 67258.0690000001,
      "d": 448.58873958332697,
      "v": 92
    },
    {
      "midi": 63,
      "hit": false,
      "t": 67734.37951562511,
      "d": 456.14922395834583,
      "v": 104
    },
    {
      "midi": 68,
      "hit": false,
      "t": 67736.89967708345,
      "d": 443.548416666672,
      "v": 95
    },
    {
      "midi": 60,
      "hit": false,
      "t": 67736.89967708345,
      "d": 458.6693854166806,
      "v": 77
    },
    {
      "midi": 44,
      "hit": false,
      "t": 67736.89967708345,
      "d": 1940.52432291671,
      "v": 104
    },
    {
      "midi": 63,
      "hit": false,
      "t": 68215.7303541668,
      "d": 398.1855104166607,
      "v": 95
    },
    {
      "midi": 60,
      "hit": false,
      "t": 68218.25051562513,
      "d": 380.54438020833186,
      "v": 77
    },
    {
      "midi": 68,
      "hit": false,
      "t": 68218.25051562513,
      "d": 380.54438020833186,
      "v": 86
    },
    {
      "midi": 63,
      "hit": false,
      "t": 68699.60135416679,
      "d": 168.85081770834222,
      "v": 95
    },
    {
      "midi": 60,
      "hit": false,
      "t": 68699.60135416679,
      "d": 181.45162500001607,
      "v": 73
    },
    {
      "midi": 68,
      "hit": false,
      "t": 68702.12151562513,
      "d": 158.77017187500314,
      "v": 86
    },
    {
      "midi": 63,
      "hit": false,
      "t": 68944.05701562515,
      "d": 710.685531250012,
      "v": 77
    },
    {
      "midi": 60,
      "hit": false,
      "t": 68944.05701562515,
      "d": 715.7258541666815,
      "v": 73
    },
    {
      "midi": 68,
      "hit": false,
      "t": 68946.57717708348,
      "d": 698.0847239583381,
      "v": 77
    },
    {
      "midi": 51,
      "hit": false,
      "t": 89027.2236770835,
      "d": 2752.0163124999963,
      "v": 88
    },
    {
      "midi": 46,
      "hit": false,
      "t": 89027.2236770835,
      "d": 2757.056635416666,
      "v": 79
    },
    {
      "midi": 51,
      "hit": false,
      "t": 91930.4496770835,
      "d": 801.4113437500055,
      "v": 88
    },
    {
      "midi": 46,
      "hit": false,
      "t": 91930.4496770835,
      "d": 814.0121510416793,
      "v": 79
    },
    {
      "midi": 46,
      "hit": false,
      "t": 92895.67151562517,
      "d": 2746.9759895833413,
      "v": 79
    },
    {
      "midi": 50,
      "hit": false,
      "t": 92898.19167708351,
      "d": 2754.5364739583456,
      "v": 87
    },
    {
      "midi": 46,
      "hit": false,
      "t": 95796.37735416685,
      "d": 788.8105364583316,
      "v": 79
    },
    {
      "midi": 50,
      "hit": false,
      "t": 95796.37735416685,
      "d": 791.3306979166664,
      "v": 86
    },
    {
      "midi": 48,
      "hit": false,
      "t": 96764.11935416685,
      "d": 2837.7018020833348,
      "v": 75
    },
    {
      "midi": 53,
      "hit": false,
      "t": 96769.15967708352,
      "d": 2837.7018020833348,
      "v": 88
    },
    {
      "midi": 53,
      "hit": false,
      "t": 99679.94616145852,
      "d": 766.1290833333333,
      "v": 87
    },
    {
      "midi": 48,
      "hit": false,
      "t": 99679.94616145852,
      "d": 836.6936041666631,
      "v": 75
    },
    {
      "midi": 51,
      "hit": false,
      "t": 100645.16800000018,
      "d": 1776.7138281250081,
      "v": 79
    },
    {
      "midi": 56,
      "hit": false,
      "t": 100650.20832291685,
      "d": 1789.3146354166674,
      "v": 89
    },
    {
      "midi": 53,
      "hit": false,
      "t": 102590.73264583352,
      "d": 1902.7219010416738,
      "v": 80
    },
    {
      "midi": 58,
      "hit": false,
      "t": 102593.25280729185,
      "d": 1892.6412552083348,
      "v": 88
    },
    {
      "midi": 39,
      "hit": false,
      "t": 104516.13600000019,
      "d": 370.46373437500733,
      "v": 110
    },
    {
      "midi": 58,
      "hit": false,
      "t": 104758.0715000002,
      "d": 292.33872916667315,
      "v": 101
    },
    {
      "midi": 51,
      "hit": false,
      "t": 104758.0715000002,
      "d": 299.89921354167745,
      "v": 97
    },
    {
      "midi": 39,
      "hit": false,
      "t": 105000.0070000002,
      "d": 667.84278645835,
      "v": 110
    },
    {
      "midi": 51,
      "hit": false,
      "t": 105120.97475000021,
      "d": 272.17743750000955,
      "v": 93
    },
    {
      "midi": 58,
      "hit": false,
      "t": 105126.01507291688,
      "d": 289.8185677083384,
      "v": 97
    },
    {
      "midi": 51,
      "hit": false,
      "t": 105483.87800000022,
      "d": 309.979859375002,
      "v": 101
    },
    {
      "midi": 58,
      "hit": false,
      "t": 105483.87800000022,
      "d": 309.979859375002,
      "v": 110
    },
    {
      "midi": 39,
      "hit": false,
      "t": 105725.81350000022,
      "d": 327.62098958331626,
      "v": 110
    },
    {
      "midi": 58,
      "hit": false,
      "t": 105887.10383333355,
      "d": 219.25404687499395,
      "v": 97
    },
    {
      "midi": 51,
      "hit": false,
      "t": 105887.10383333355,
      "d": 246.97582291666185,
      "v": 93
    },
    {
      "midi": 39,
      "hit": false,
      "t": 106088.71675000021,
      "d": 632.5605260416633,
      "v": 108
    },
    {
      "midi": 60,
      "hit": false,
      "t": 106209.6845000002,
      "d": 148.68952604166407,
      "v": 89
    },
    {
      "midi": 58,
      "hit": false,
      "t": 106209.6845000002,
      "d": 186.49194791667105,
      "v": 97
    },
    {
      "midi": 51,
      "hit": false,
      "t": 106209.6845000002,
      "d": 209.17340104166942,
      "v": 93
    },
    {
      "midi": 58,
      "hit": false,
      "t": 106451.62000000021,
      "d": 269.6572760416602,
      "v": 93
    },
    {
      "midi": 51,
      "hit": false,
      "t": 106451.62000000021,
      "d": 317.54034374999173,
      "v": 93
    },
    {
      "midi": 61,
      "hit": false,
      "t": 106451.62000000021,
      "d": 317.54034374999173,
      "v": 110
    },
    {
      "midi": 39,
      "hit": false,
      "t": 106774.20066666687,
      "d": 269.6572760416748,
      "v": 101
    },
    {
      "midi": 58,
      "hit": false,
      "t": 106854.84583333354,
      "d": 214.21372395833896,
      "v": 97
    },
    {
      "midi": 61,
      "hit": false,
      "t": 106854.84583333354,
      "d": 249.49598437501118,
      "v": 101
    },
    {
      "midi": 51,
      "hit": false,
      "t": 106862.40631770855,
      "d": 249.49598437501118,
      "v": 93
    },
    {
      "midi": 39,
      "hit": false,
      "t": 107096.78133333355,
      "d": 277.21776041666453,
      "v": 93
    },
    {
      "midi": 58,
      "hit": false,
      "t": 107177.42650000022,
      "d": 292.3387291666586,
      "v": 101
    },
    {
      "midi": 61,
      "hit": false,
      "t": 107177.42650000022,
      "d": 294.85889062499336,
      "v": 93
    },
    {
      "midi": 51,
      "hit": false,
      "t": 107177.42650000022,
      "d": 325.10082812499604,
      "v": 85
    },
    {
      "midi": 39,
      "hit": false,
      "t": 107419.36200000021,
      "d": 947.5807083333493,
      "v": 110
    },
    {
      "midi": 51,
      "hit": false,
      "t": 107540.32975000022,
      "d": 884.5766718750092,
      "v": 93
    },
    {
      "midi": 61,
      "hit": false,
      "t": 107653.73701562523,
      "d": 183.97178645833628,
      "v": 101
    },
    {
      "midi": 58,
      "hit": false,
      "t": 107661.29750000023,
      "d": 131.04839583333523,
      "v": 97
    },
    {
      "midi": 58,
      "hit": false,
      "t": 107903.23300000023,
      "d": 186.49194791667105,
      "v": 101
    },
    {
      "midi": 60,
      "hit": false,
      "t": 107903.23300000023,
      "d": 231.8548541666678,
      "v": 91
    },
    {
      "midi": 58,
      "hit": false,
      "t": 108145.16850000023,
      "d": 340.22179687500466,
      "v": 97
    },
    {
      "midi": 39,
      "hit": false,
      "t": 108387.10400000022,
      "d": 443.548416666672,
      "v": 110
    },
    {
      "midi": 58,
      "hit": false,
      "t": 108629.03950000023,
      "d": 297.37905208332813,
      "v": 101
    },
    {
      "midi": 51,
      "hit": false,
      "t": 108629.03950000023,
      "d": 302.4193749999977,
      "v": 93
    },
    {
      "midi": 39,
      "hit": false,
      "t": 108870.97500000022,
      "d": 330.14115104168013,
      "v": 97
    },
    {
      "midi": 51,
      "hit": false,
      "t": 108991.94275000023,
      "d": 171.37097916666244,
      "v": 89
    },
    {
      "midi": 58,
      "hit": false,
      "t": 108991.94275000023,
      "d": 181.4516250000015,
      "v": 97
    },
    {
      "midi": 39,
      "hit": false,
      "t": 109251.51938020857,
      "d": 287.2984062500036,
      "v": 92
    },
    {
      "midi": 58,
      "hit": false,
      "t": 109354.84600000024,
      "d": 304.939536458347,
      "v": 101
    },
    {
      "midi": 51,
      "hit": false,
      "t": 109354.84600000024,
      "d": 307.45969791668176,
      "v": 101
    },
    {
      "midi": 39,
      "hit": false,
      "t": 109596.78150000024,
      "d": 322.5806666666758,
      "v": 110
    },
    {
      "midi": 51,
      "hit": false,
      "t": 109758.07183333358,
      "d": 236.89517708333733,
      "v": 85
    },
    {
      "midi": 58,
      "hit": false,
      "t": 109758.07183333358,
      "d": 236.89517708333733,
      "v": 89
    },
    {
      "midi": 39,
      "hit": false,
      "t": 109959.68475000025,
      "d": 655.2419791666762,
      "v": 110
    },
    {
      "midi": 58,
      "hit": false,
      "t": 110080.65250000026,
      "d": 115.92742708332662,
      "v": 93
    },
    {
      "midi": 60,
      "hit": false,
      "t": 110080.65250000026,
      "d": 141.12904166665976,
      "v": 97
    },
    {
      "midi": 51,
      "hit": false,
      "t": 110080.65250000026,
      "d": 166.3306562499929,
      "v": 93
    },
    {
      "midi": 61,
      "hit": false,
      "t": 110322.58800000025,
      "d": 309.979859375002,
      "v": 107
    },
    {
      "midi": 51,
      "hit": false,
      "t": 110322.58800000025,
      "d": 315.0201822916715,
      "v": 97
    },
    {
      "midi": 58,
      "hit": false,
      "t": 110322.58800000025,
      "d": 400.70567187501,
      "v": 97
    },
    {
      "midi": 61,
      "hit": false,
      "t": 110685.49125000025,
      "d": 231.85485416668234,
      "v": 97
    },
    {
      "midi": 39,
      "hit": false,
      "t": 110685.49125000025,
      "d": 335.18147395834967,
      "v": 110
    },
    {
      "midi": 58,
      "hit": false,
      "t": 110806.45900000026,
      "d": 151.20968749999884,
      "v": 93
    },
    {
      "midi": 51,
      "hit": false,
      "t": 110806.45900000026,
      "d": 224.29436979167804,
      "v": 89
    },
    {
      "midi": 58,
      "hit": false,
      "t": 111048.39450000027,
      "d": 183.97178645833628,
      "v": 97
    },
    {
      "midi": 51,
      "hit": false,
      "t": 111048.39450000027,
      "d": 201.61291666666511,
      "v": 89
    },
    {
      "midi": 61,
      "hit": false,
      "t": 111048.39450000027,
      "d": 201.61291666666511,
      "v": 97
    },
    {
      "midi": 39,
      "hit": false,
      "t": 111048.39450000027,
      "d": 536.7943906250002,
      "v": 110
    },
    {
      "midi": 58,
      "hit": false,
      "t": 111411.29775000027,
      "d": 267.13711458332546,
      "v": 97
    },
    {
      "midi": 61,
      "hit": false,
      "t": 111411.29775000027,
      "d": 269.6572760416602,
      "v": 101
    },
    {
      "midi": 51,
      "hit": false,
      "t": 111411.29775000027,
      "d": 289.8185677083238,
      "v": 97
    },
    {
      "midi": 39,
      "hit": false,
      "t": 111653.23325000027,
      "d": 514.1129375000019,
      "v": 110
    },
    {
      "midi": 58,
      "hit": false,
      "t": 111774.20100000026,
      "d": 163.81049479167268,
      "v": 97
    },
    {
      "midi": 60,
      "hit": false,
      "t": 111774.20100000026,
      "d": 241.93550000000687,
      "v": 103
    },
    {
      "midi": 51,
      "hit": false,
      "t": 111774.20100000026,
      "d": 403.2258333333448,
      "v": 93
    },
    {
      "midi": 58,
      "hit": false,
      "t": 112016.13650000027,
      "d": 166.33065625000745,
      "v": 101
    },
    {
      "midi": 51,
      "hit": false,
      "t": 112253.0316770836,
      "d": 2752.0163124999963,
      "v": 88
    },
    {
      "midi": 46,
      "hit": false,
      "t": 112253.0316770836,
      "d": 2757.056635416666,
      "v": 79
    },
    {
      "midi": 51,
      "hit": false,
      "t": 115156.2576770836,
      "d": 801.4113437500055,
      "v": 88
    },
    {
      "midi": 46,
      "hit": false,
      "t": 115156.2576770836,
      "d": 814.0121510416793,
      "v": 79
    },
    {
      "midi": 46,
      "hit": false,
      "t": 116121.47951562528,
      "d": 2746.9759895833413,
      "v": 79
    },
    {
      "midi": 50,
      "hit": false,
      "t": 116123.99967708362,
      "d": 2754.5364739583456,
      "v": 87
    },
    {
      "midi": 46,
      "hit": false,
      "t": 119022.18535416696,
      "d": 788.8105364583316,
      "v": 79
    },
    {
      "midi": 50,
      "hit": false,
      "t": 119022.18535416696,
      "d": 791.3306979166664,
      "v": 86
    },
    {
      "midi": 49,
      "hit": false,
      "t": 119989.92735416695,
      "d": 2837.7018020833348,
      "v": 75
    },
    {
      "midi": 53,
      "hit": false,
      "t": 119994.96767708362,
      "d": 2837.7018020833348,
      "v": 88
    },
    {
      "midi": 53,
      "hit": false,
      "t": 122905.75416145862,
      "d": 766.1290833333333,
      "v": 87
    },
    {
      "midi": 49,
      "hit": false,
      "t": 122905.75416145862,
      "d": 836.6936041666631,
      "v": 75
    },
    {
      "midi": 51,
      "hit": false,
      "t": 123870.97600000029,
      "d": 2782.258249999999,
      "v": 79
    },
    {
      "midi": 56,
      "hit": false,
      "t": 123876.01632291696,
      "d": 2777.2179270833294,
      "v": 89
    },
    {
      "midi": 51,
      "hit": false,
      "t": 126774.20200000028,
      "d": 846.7742500000022,
      "v": 80
    },
    {
      "midi": 56,
      "hit": false,
      "t": 126776.72216145862,
      "d": 844.2540885416674,
      "v": 88
    },
    {
      "midi": 51,
      "hit": false,
      "t": 127736.90367708361,
      "d": 2752.0163124999963,
      "v": 88
    },
    {
      "midi": 46,
      "hit": false,
      "t": 127736.90367708361,
      "d": 2757.056635416666,
      "v": 79
    },
    {
      "midi": 51,
      "hit": false,
      "t": 130640.1296770836,
      "d": 801.4113437499909,
      "v": 88
    },
    {
      "midi": 46,
      "hit": false,
      "t": 130640.1296770836,
      "d": 814.0121510416502,
      "v": 79
    },
    {
      "midi": 46,
      "hit": false,
      "t": 131605.35151562525,
      "d": 2746.9759895833267,
      "v": 79
    },
    {
      "midi": 50,
      "hit": false,
      "t": 131607.87167708357,
      "d": 2754.5364739583456,
      "v": 87
    },
    {
      "midi": 46,
      "hit": false,
      "t": 134506.05735416693,
      "d": 788.8105364583316,
      "v": 79
    },
    {
      "midi": 50,
      "hit": false,
      "t": 134506.05735416693,
      "d": 791.3306979166518,
      "v": 86
    },
    {
      "midi": 49,
      "hit": false,
      "t": 135473.79935416693,
      "d": 2837.7018020833493,
      "v": 75
    },
    {
      "midi": 53,
      "hit": false,
      "t": 135478.8396770836,
      "d": 2837.7018020833493,
      "v": 88
    },
    {
      "midi": 53,
      "hit": false,
      "t": 138389.6261614586,
      "d": 766.1290833333333,
      "v": 87
    },
    {
      "midi": 49,
      "hit": false,
      "t": 138389.6261614586,
      "d": 836.6936041666777,
      "v": 75
    },
    {
      "midi": 51,
      "hit": false,
      "t": 139354.8480000003,
      "d": 2782.2582500000135,
      "v": 79
    },
    {
      "midi": 56,
      "hit": false,
      "t": 139359.88832291696,
      "d": 2777.217927083344,
      "v": 89
    },
    {
      "midi": 51,
      "hit": false,
      "t": 142258.0740000003,
      "d": 846.7742499999877,
      "v": 80
    },
    {
      "midi": 56,
      "hit": false,
      "t": 142260.59416145863,
      "d": 844.2540885416674,
      "v": 88
    },
    {
      "midi": 55,
      "hit": false,
      "t": 143230.85632291698,
      "d": 2769.657442708296,
      "v": 106
    },
    {
      "midi": 51,
      "hit": false,
      "t": 143238.41680729197,
      "d": 2799.8993802083132,
      "v": 106
    },
    {
      "midi": 39,
      "hit": false,
      "t": 143240.9369687503,
      "d": 2764.6171197916556,
      "v": 115
    },
    {
      "midi": 51,
      "hit": false,
      "t": 146126.52183854196,
      "d": 453.6290624999965,
      "v": 88
    },
    {
      "midi": 39,
      "hit": false,
      "t": 146126.52183854196,
      "d": 934.9799010416609,
      "v": 97
    },
    {
      "midi": 55,
      "hit": false,
      "t": 146131.56216145863,
      "d": 511.59277604165254,
      "v": 88
    },
    {
      "midi": 51,
      "hit": false,
      "t": 146607.87267708362,
      "d": 483.87100000001374,
      "v": 90
    },
    {
      "midi": 58,
      "hit": false,
      "t": 146615.4331614586,
      "d": 451.1089010416763,
      "v": 95
    },
    {
      "midi": 50,
      "hit": false,
      "t": 147091.74367708364,
      "d": 2782.2582500000135,
      "v": 97
    },
    {
      "midi": 53,
      "hit": false,
      "t": 147091.74367708364,
      "d": 2804.939703125012,
      "v": 106
    },
    {
      "midi": 34,
      "hit": false,
      "t": 147091.74367708364,
      "d": 2860.3832552083477,
      "v": 96
    },
    {
      "midi": 50,
      "hit": false,
      "t": 149992.4495156253,
      "d": 476.3105156249949,
      "v": 88
    },
    {
      "midi": 53,
      "hit": false,
      "t": 149992.4495156253,
      "d": 476.3105156249949,
      "v": 106
    },
    {
      "midi": 34,
      "hit": false,
      "t": 149994.96967708363,
      "d": 967.7419999999984,
      "v": 95
    },
    {
      "midi": 50,
      "hit": false,
      "t": 150488.92132291698,
      "d": 486.39116145827575,
      "v": 84
    },
    {
      "midi": 58,
      "hit": false,
      "t": 150491.4414843753,
      "d": 483.87099999995553,
      "v": 97
    },
    {
      "midi": 37,
      "hit": false,
      "t": 150965.23183854195,
      "d": 2867.9437395833083,
      "v": 107
    },
    {
      "midi": 49,
      "hit": false,
      "t": 150967.75200000027,
      "d": 2852.822770833329,
      "v": 76
    },
    {
      "midi": 53,
      "hit": false,
      "t": 150972.79232291694,
      "d": 2792.3388958333235,
      "v": 97
    },
    {
      "midi": 37,
      "hit": false,
      "t": 153878.53848437525,
      "d": 917.338770833303,
      "v": 100
    },
    {
      "midi": 49,
      "hit": false,
      "t": 153883.57880729192,
      "d": 446.06857812497765,
      "v": 88
    },
    {
      "midi": 53,
      "hit": false,
      "t": 153886.09896875024,
      "d": 456.1492239583167,
      "v": 97
    },
    {
      "midi": 56,
      "hit": false,
      "t": 154349.80867708355,
      "d": 471.27019270835444,
      "v": 97
    },
    {
      "midi": 49,
      "hit": false,
      "t": 154349.80867708355,
      "d": 476.310515625024,
      "v": 88
    },
    {
      "midi": 48,
      "hit": false,
      "t": 154831.15951562524,
      "d": 1902.7219010416593,
      "v": 88
    },
    {
      "midi": 44,
      "hit": false,
      "t": 154833.67967708356,
      "d": 1882.5606093750102,
      "v": 99
    },
    {
      "midi": 51,
      "hit": false,
      "t": 154833.67967708356,
      "d": 1912.8025468749984,
      "v": 97
    },
    {
      "midi": 56,
      "hit": false,
      "t": 154838.72000000023,
      "d": 1917.842869791668,
      "v": 88
    },
    {
      "midi": 53,
      "hit": false,
      "t": 156784.28464583357,
      "d": 1839.7178645833337,
      "v": 106
    },
    {
      "midi": 50,
      "hit": false,
      "t": 156784.28464583357,
      "d": 1844.7581875000033,
      "v": 97
    },
    {
      "midi": 58,
      "hit": false,
      "t": 156784.28464583357,
      "d": 1847.2783489583235,
      "v": 97
    },
    {
      "midi": 46,
      "hit": false,
      "t": 156784.28464583357,
      "d": 1882.5606093749811,
      "v": 103
    },
    {
      "midi": 51,
      "hit": false,
      "t": 158704.64767708356,
      "d": 2752.0163124999963,
      "v": 93
    },
    {
      "midi": 46,
      "hit": false,
      "t": 158704.64767708356,
      "d": 2757.056635416666,
      "v": 84
    },
    {
      "midi": 51,
      "hit": false,
      "t": 161607.87367708355,
      "d": 801.4113437499909,
      "v": 93
    },
    {
      "midi": 46,
      "hit": false,
      "t": 161607.87367708355,
      "d": 814.0121510416502,
      "v": 84
    },
    {
      "midi": 46,
      "hit": false,
      "t": 162573.0955156252,
      "d": 2746.9759895833267,
      "v": 84
    },
    {
      "midi": 50,
      "hit": false,
      "t": 162575.61567708352,
      "d": 2754.5364739583456,
      "v": 92
    },
    {
      "midi": 46,
      "hit": false,
      "t": 165473.80135416688,
      "d": 788.8105364583316,
      "v": 84
    },
    {
      "midi": 50,
      "hit": false,
      "t": 165473.80135416688,
      "d": 791.3306979166518,
      "v": 91
    },
    {
      "midi": 48,
      "hit": false,
      "t": 166441.54335416688,
      "d": 2837.7018020833493,
      "v": 80
    },
    {
      "midi": 53,
      "hit": false,
      "t": 166446.58367708354,
      "d": 2837.7018020833493,
      "v": 93
    },
    {
      "midi": 53,
      "hit": false,
      "t": 169357.37016145856,
      "d": 766.1290833333333,
      "v": 92
    },
    {
      "midi": 48,
      "hit": false,
      "t": 169357.37016145856,
      "d": 836.6936041666777,
      "v": 80
    },
    {
      "midi": 51,
      "hit": false,
      "t": 170322.59200000024,
      "d": 1776.7138281250081,
      "v": 84
    },
    {
      "midi": 56,
      "hit": false,
      "t": 170327.6323229169,
      "d": 1789.3146354166674,
      "v": 94
    },
    {
      "midi": 53,
      "hit": false,
      "t": 172268.15664583357,
      "d": 1902.7219010416302,
      "v": 85
    },
    {
      "midi": 58,
      "hit": false,
      "t": 172270.6768072919,
      "d": 1892.6412552083202,
      "v": 93
    },
    {
      "midi": 39,
      "hit": false,
      "t": 174193.5600000002,
      "d": 370.4637343749928,
      "v": 111
    },
    {
      "midi": 58,
      "hit": false,
      "t": 174435.4955000002,
      "d": 292.3387291666586,
      "v": 102
    },
    {
      "midi": 51,
      "hit": false,
      "t": 174435.4955000002,
      "d": 299.89921354164835,
      "v": 98
    },
    {
      "midi": 39,
      "hit": false,
      "t": 174677.4310000002,
      "d": 667.8427864583209,
      "v": 111
    },
    {
      "midi": 51,
      "hit": false,
      "t": 174798.39875000017,
      "d": 272.17743750000955,
      "v": 94
    },
    {
      "midi": 58,
      "hit": false,
      "t": 174803.43907291684,
      "d": 289.8185677083384,
      "v": 98
    },
    {
      "midi": 51,
      "hit": false,
      "t": 175161.30200000017,
      "d": 309.9798593749874,
      "v": 102
    },
    {
      "midi": 58,
      "hit": false,
      "t": 175161.30200000017,
      "d": 309.9798593749874,
      "v": 111
    },
    {
      "midi": 39,
      "hit": false,
      "t": 175403.23750000016,
      "d": 327.62098958334536,
      "v": 111
    },
    {
      "midi": 58,
      "hit": false,
      "t": 175564.5278333335,
      "d": 219.25404687499395,
      "v": 98
    },
    {
      "midi": 51,
      "hit": false,
      "t": 175564.5278333335,
      "d": 246.97582291666185,
      "v": 94
    },
    {
      "midi": 39,
      "hit": false,
      "t": 175766.14075000017,
      "d": 632.5605260416924,
      "v": 109
    },
    {
      "midi": 60,
      "hit": false,
      "t": 175887.10850000018,
      "d": 148.68952604167862,
      "v": 90
    },
    {
      "midi": 58,
      "hit": false,
      "t": 175887.10850000018,
      "d": 186.4919479166856,
      "v": 98
    },
    {
      "midi": 51,
      "hit": false,
      "t": 175887.10850000018,
      "d": 209.17340104168397,
      "v": 94
    },
    {
      "midi": 58,
      "hit": false,
      "t": 176129.0440000002,
      "d": 269.6572760416602,
      "v": 94
    },
    {
      "midi": 51,
      "hit": false,
      "t": 176129.0440000002,
      "d": 317.5403437500063,
      "v": 94
    },
    {
      "midi": 61,
      "hit": false,
      "t": 176129.0440000002,
      "d": 317.5403437500063,
      "v": 111
    },
    {
      "midi": 39,
      "hit": false,
      "t": 176451.62466666687,
      "d": 269.6572760416311,
      "v": 102
    },
    {
      "midi": 58,
      "hit": false,
      "t": 176532.26983333353,
      "d": 214.2137239583244,
      "v": 98
    },
    {
      "midi": 61,
      "hit": false,
      "t": 176532.26983333353,
      "d": 249.49598437498207,
      "v": 102
    },
    {
      "midi": 51,
      "hit": false,
      "t": 176539.83031770852,
      "d": 249.49598437498207,
      "v": 94
    },
    {
      "midi": 39,
      "hit": false,
      "t": 176774.20533333352,
      "d": 277.21776041665,
      "v": 94
    },
    {
      "midi": 58,
      "hit": false,
      "t": 176854.85050000018,
      "d": 292.3387291666586,
      "v": 102
    },
    {
      "midi": 61,
      "hit": false,
      "t": 176854.85050000018,
      "d": 294.8588906249788,
      "v": 94
    },
    {
      "midi": 51,
      "hit": false,
      "t": 176854.85050000018,
      "d": 325.10082812496694,
      "v": 86
    },
    {
      "midi": 39,
      "hit": false,
      "t": 177096.78600000017,
      "d": 947.5807083332911,
      "v": 111
    },
    {
      "midi": 51,
      "hit": false,
      "t": 177217.75375000015,
      "d": 884.5766718749946,
      "v": 94
    },
    {
      "midi": 61,
      "hit": false,
      "t": 177331.16101562514,
      "d": 183.97178645830718,
      "v": 102
    },
    {
      "midi": 58,
      "hit": false,
      "t": 177338.72150000013,
      "d": 131.04839583332068,
      "v": 98
    },
    {
      "midi": 58,
      "hit": false,
      "t": 177580.65700000012,
      "d": 186.4919479166565,
      "v": 102
    },
    {
      "midi": 60,
      "hit": false,
      "t": 177580.65700000012,
      "d": 231.85485416665324,
      "v": 92
    },
    {
      "midi": 58,
      "hit": false,
      "t": 177822.59250000012,
      "d": 340.22179687503376,
      "v": 98
    },
    {
      "midi": 39,
      "hit": false,
      "t": 178064.52800000014,
      "d": 443.54841666668653,
      "v": 111
    },
    {
      "midi": 58,
      "hit": false,
      "t": 178306.46350000016,
      "d": 297.37905208332813,
      "v": 102
    },
    {
      "midi": 51,
      "hit": false,
      "t": 178306.46350000016,
      "d": 302.4193749999977,
      "v": 94
    },
    {
      "midi": 39,
      "hit": false,
      "t": 178548.39900000015,
      "d": 330.1411510416947,
      "v": 98
    },
    {
      "midi": 51,
      "hit": false,
      "t": 178669.36675000016,
      "d": 171.370979166677,
      "v": 90
    },
    {
      "midi": 58,
      "hit": false,
      "t": 178669.36675000016,
      "d": 181.45162500001607,
      "v": 98
    },
    {
      "midi": 39,
      "hit": false,
      "t": 178928.9433802085,
      "d": 287.29840624998906,
      "v": 93
    },
    {
      "midi": 58,
      "hit": false,
      "t": 179032.27000000016,
      "d": 304.9395364583179,
      "v": 102
    },
    {
      "midi": 51,
      "hit": false,
      "t": 179032.27000000016,
      "d": 307.4596979166381,
      "v": 102
    },
    {
      "midi": 39,
      "hit": false,
      "t": 179274.20550000016,
      "d": 322.5806666666467,
      "v": 111
    },
    {
      "midi": 51,
      "hit": false,
      "t": 179435.49583333347,
      "d": 236.89517708332278,
      "v": 86
    },
    {
      "midi": 58,
      "hit": false,
      "t": 179435.49583333347,
      "d": 236.89517708332278,
      "v": 90
    },
    {
      "midi": 39,
      "hit": false,
      "t": 179637.10875000013,
      "d": 655.2419791666907,
      "v": 111
    },
    {
      "midi": 58,
      "hit": false,
      "t": 179758.0765000001,
      "d": 115.92742708334117,
      "v": 94
    },
    {
      "midi": 60,
      "hit": false,
      "t": 179758.0765000001,
      "d": 141.12904166668886,
      "v": 98
    },
    {
      "midi": 51,
      "hit": false,
      "t": 179758.0765000001,
      "d": 166.33065625003655,
      "v": 94
    },
    {
      "midi": 61,
      "hit": false,
      "t": 180000.01200000016,
      "d": 309.9798593749874,
      "v": 108
    },
    {
      "midi": 51,
      "hit": false,
      "t": 180000.01200000016,
      "d": 315.02018229165697,
      "v": 98
    },
    {
      "midi": 58,
      "hit": false,
      "t": 180000.01200000016,
      "d": 400.70567187501,
      "v": 98
    },
    {
      "midi": 61,
      "hit": false,
      "t": 180362.91525000017,
      "d": 231.85485416668234,
      "v": 98
    },
    {
      "midi": 39,
      "hit": false,
      "t": 180362.91525000017,
      "d": 335.1814739583351,
      "v": 111
    },
    {
      "midi": 58,
      "hit": false,
      "t": 180483.88300000018,
      "d": 151.20968749999884,
      "v": 94
    },
    {
      "midi": 51,
      "hit": false,
      "t": 180483.88300000018,
      "d": 224.29436979166348,
      "v": 90
    },
    {
      "midi": 58,
      "hit": false,
      "t": 180725.81850000017,
      "d": 183.97178645833628,
      "v": 98
    },
    {
      "midi": 51,
      "hit": false,
      "t": 180725.81850000017,
      "d": 201.61291666666511,
      "v": 90
    },
    {
      "midi": 61,
      "hit": false,
      "t": 180725.81850000017,
      "d": 201.61291666666511,
      "v": 98
    },
    {
      "midi": 39,
      "hit": false,
      "t": 180725.81850000017,
      "d": 536.7943906250002,
      "v": 111
    },
    {
      "midi": 58,
      "hit": false,
      "t": 181088.72175000017,
      "d": 267.13711458334,
      "v": 98
    },
    {
      "midi": 61,
      "hit": false,
      "t": 181088.72175000017,
      "d": 269.6572760416602,
      "v": 102
    },
    {
      "midi": 51,
      "hit": false,
      "t": 181088.72175000017,
      "d": 289.8185677083384,
      "v": 98
    },
    {
      "midi": 39,
      "hit": false,
      "t": 181330.65725000016,
      "d": 579.6371354166768,
      "v": 111
    },
    {
      "midi": 58,
      "hit": false,
      "t": 181451.62500000017,
      "d": 163.81049479165813,
      "v": 98
    },
    {
      "midi": 60,
      "hit": false,
      "t": 181451.62500000017,
      "d": 241.93549999999232,
      "v": 104
    },
    {
      "midi": 51,
      "hit": false,
      "t": 181451.62500000017,
      "d": 403.22583333333023,
      "v": 94
    },
    {
      "midi": 58,
      "hit": false,
      "t": 181693.56050000017,
      "d": 166.33065625000745,
      "v": 102
    },
    {
      "midi": 51,
      "hit": false,
      "t": 181930.45567708352,
      "d": 2752.0163124999963,
      "v": 88
    },
    {
      "midi": 46,
      "hit": false,
      "t": 181930.45567708352,
      "d": 2757.056635416666,
      "v": 79
    },
    {
      "midi": 51,
      "hit": false,
      "t": 184833.6816770835,
      "d": 801.4113437499909,
      "v": 88
    },
    {
      "midi": 46,
      "hit": false,
      "t": 184833.6816770835,
      "d": 814.0121510416502,
      "v": 79
    },
    {
      "midi": 46,
      "hit": false,
      "t": 185798.90351562516,
      "d": 2746.9759895833267,
      "v": 79
    },
    {
      "midi": 50,
      "hit": false,
      "t": 185801.42367708348,
      "d": 2754.5364739583456,
      "v": 87
    },
    {
      "midi": 46,
      "hit": false,
      "t": 188699.60935416684,
      "d": 788.8105364583316,
      "v": 79
    },
    {
      "midi": 50,
      "hit": false,
      "t": 188699.60935416684,
      "d": 791.3306979166518,
      "v": 86
    },
    {
      "midi": 49,
      "hit": false,
      "t": 189667.35135416684,
      "d": 2837.7018020833493,
      "v": 75
    },
    {
      "midi": 53,
      "hit": false,
      "t": 189672.3916770835,
      "d": 2837.7018020833493,
      "v": 88
    },
    {
      "midi": 53,
      "hit": false,
      "t": 192583.17816145852,
      "d": 766.1290833333333,
      "v": 87
    },
    {
      "midi": 49,
      "hit": false,
      "t": 192583.17816145852,
      "d": 836.6936041666777,
      "v": 75
    },
    {
      "midi": 51,
      "hit": false,
      "t": 193548.4000000002,
      "d": 2782.2582500000135,
      "v": 79
    },
    {
      "midi": 56,
      "hit": false,
      "t": 193553.44032291687,
      "d": 2777.217927083344,
      "v": 89
    },
    {
      "midi": 51,
      "hit": false,
      "t": 196451.62600000022,
      "d": 846.7742499999877,
      "v": 80
    },
    {
      "midi": 56,
      "hit": false,
      "t": 196454.14616145854,
      "d": 844.2540885416674,
      "v": 88
    },
    {
      "midi": 51,
      "hit": false,
      "t": 197414.32767708355,
      "d": 2752.0163124999963,
      "v": 88
    },
    {
      "midi": 46,
      "hit": false,
      "t": 197414.32767708355,
      "d": 2757.056635416666,
      "v": 79
    },
    {
      "midi": 51,
      "hit": false,
      "t": 200317.55367708355,
      "d": 801.4113437499909,
      "v": 88
    },
    {
      "midi": 46,
      "hit": false,
      "t": 200317.55367708355,
      "d": 814.0121510416502,
      "v": 79
    },
    {
      "midi": 46,
      "hit": false,
      "t": 201282.7755156252,
      "d": 2746.9759895833267,
      "v": 79
    },
    {
      "midi": 50,
      "hit": false,
      "t": 201285.29567708352,
      "d": 2754.5364739583456,
      "v": 87
    },
    {
      "midi": 46,
      "hit": false,
      "t": 204183.48135416687,
      "d": 788.8105364583316,
      "v": 79
    },
    {
      "midi": 50,
      "hit": false,
      "t": 204183.48135416687,
      "d": 791.3306979166518,
      "v": 86
    },
    {
      "midi": 49,
      "hit": false,
      "t": 205151.22335416687,
      "d": 2837.7018020833493,
      "v": 75
    },
    {
      "midi": 53,
      "hit": false,
      "t": 205156.26367708354,
      "d": 2837.7018020833493,
      "v": 88
    },
    {
      "midi": 53,
      "hit": false,
      "t": 208067.05016145855,
      "d": 766.1290833333333,
      "v": 87
    },
    {
      "midi": 49,
      "hit": false,
      "t": 208067.05016145855,
      "d": 836.6936041666777,
      "v": 75
    },
    {
      "midi": 67,
      "hit": false,
      "t": 213387.11100000024,
      "d": 78.12500520833419,
      "v": 61
    },
    {
      "midi": 70,
      "hit": false,
      "t": 213387.11100000024,
      "d": 88.20565104167326,
      "v": 61
    },
    {
      "midi": 67,
      "hit": false,
      "t": 214354.85300000024,
      "d": 78.12500520833419,
      "v": 61
    },
    {
      "midi": 70,
      "hit": false,
      "t": 214354.85300000024,
      "d": 83.16532812500373,
      "v": 61
    },
    {
      "midi": 70,
      "hit": false,
      "t": 215322.59500000023,
      "d": 85.68548958332394,
      "v": 61
    },
    {
      "midi": 67,
      "hit": false,
      "t": 215322.59500000023,
      "d": 95.76613541666302,
      "v": 61
    },
    {
      "midi": 70,
      "hit": false,
      "t": 216290.33700000023,
      "d": 93.2459739583428,
      "v": 61
    },
    {
      "midi": 67,
      "hit": false,
      "t": 216290.33700000023,
      "d": 100.80645833333256,
      "v": 61
    },
    {
      "midi": 65,
      "hit": false,
      "t": 217258.07900000023,
      "d": 93.2459739583428,
      "v": 61
    },
    {
      "midi": 70,
      "hit": false,
      "t": 217258.07900000023,
      "d": 95.76613541666302,
      "v": 61
    },
    {
      "midi": 65,
      "hit": false,
      "t": 218225.82100000023,
      "d": 85.68548958332394,
      "v": 61
    },
    {
      "midi": 70,
      "hit": false,
      "t": 218225.82100000023,
      "d": 98.28629687498324,
      "v": 61
    },
    {
      "midi": 65,
      "hit": false,
      "t": 219193.5630000002,
      "d": 93.2459739583428,
      "v": 61
    },
    {
      "midi": 70,
      "hit": false,
      "t": 219193.5630000002,
      "d": 103.32661979168188,
      "v": 61
    },
    {
      "midi": 65,
      "hit": false,
      "t": 220161.30500000023,
      "d": 95.76613541666302,
      "v": 61
    },
    {
      "midi": 70,
      "hit": false,
      "t": 220161.30500000023,
      "d": 98.28629687498324,
      "v": 61
    },
    {
      "midi": 61,
      "hit": false,
      "t": 221129.0470000002,
      "d": 115.92742708334117,
      "v": 61
    },
    {
      "midi": 68,
      "hit": false,
      "t": 221129.0470000002,
      "d": 126.00807291668025,
      "v": 61
    },
    {
      "midi": 61,
      "hit": false,
      "t": 222096.78900000022,
      "d": 85.68548958332394,
      "v": 61
    },
    {
      "midi": 68,
      "hit": false,
      "t": 222096.78900000022,
      "d": 93.2459739583137,
      "v": 61
    },
    {
      "midi": 61,
      "hit": false,
      "t": 223064.5310000002,
      "d": 88.20565104167326,
      "v": 61
    },
    {
      "midi": 68,
      "hit": false,
      "t": 223064.5310000002,
      "d": 103.32661979168188,
      "v": 61
    },
    {
      "midi": 68,
      "hit": false,
      "t": 224032.27300000022,
      "d": 98.28629687501234,
      "v": 61
    },
    {
      "midi": 61,
      "hit": false,
      "t": 224032.27300000022,
      "d": 100.80645833333256,
      "v": 61
    },
    {
      "midi": 68,
      "hit": false,
      "t": 225000.01500000022,
      "d": 78.12500520833419,
      "v": 61
    },
    {
      "midi": 63,
      "hit": false,
      "t": 225000.01500000022,
      "d": 85.68548958332394,
      "v": 61
    },
    {
      "midi": 68,
      "hit": false,
      "t": 225967.75700000022,
      "d": 80.6451666666544,
      "v": 61
    },
    {
      "midi": 63,
      "hit": false,
      "t": 225967.75700000022,
      "d": 88.20565104164416,
      "v": 61
    },
    {
      "midi": 63,
      "hit": false,
      "t": 226935.49900000019,
      "d": 75.60484375001397,
      "v": 61
    },
    {
      "midi": 68,
      "hit": false,
      "t": 226935.49900000019,
      "d": 93.2459739583428,
      "v": 61
    },
    {
      "midi": 63,
      "hit": false,
      "t": 227903.24100000018,
      "d": 88.20565104167326,
      "v": 61
    },
    {
      "midi": 68,
      "hit": false,
      "t": 227903.24100000018,
      "d": 88.20565104167326,
      "v": 61
    },
    {
      "midi": 51,
      "hit": false,
      "t": 228382.07167708353,
      "d": 2752.0163124999963,
      "v": 88
    },
    {
      "midi": 46,
      "hit": false,
      "t": 228382.07167708353,
      "d": 2757.056635416666,
      "v": 79
    },
    {
      "midi": 51,
      "hit": false,
      "t": 231285.29767708352,
      "d": 801.4113437499909,
      "v": 88
    },
    {
      "midi": 46,
      "hit": false,
      "t": 231285.29767708352,
      "d": 814.0121510416502,
      "v": 79
    },
    {
      "midi": 46,
      "hit": false,
      "t": 232250.51951562517,
      "d": 2746.9759895833267,
      "v": 79
    },
    {
      "midi": 50,
      "hit": false,
      "t": 232253.0396770835,
      "d": 2754.5364739583456,
      "v": 87
    },
    {
      "midi": 46,
      "hit": false,
      "t": 235151.22535416685,
      "d": 788.8105364583316,
      "v": 79
    },
    {
      "midi": 50,
      "hit": false,
      "t": 235151.22535416685,
      "d": 791.3306979166518,
      "v": 86
    },
    {
      "midi": 49,
      "hit": false,
      "t": 236118.96735416685,
      "d": 2837.7018020833493,
      "v": 75
    },
    {
      "midi": 53,
      "hit": false,
      "t": 236124.00767708351,
      "d": 2837.7018020833493,
      "v": 88
    },
    {
      "midi": 53,
      "hit": false,
      "t": 239034.79416145853,
      "d": 766.1290833333333,
      "v": 87
    },
    {
      "midi": 49,
      "hit": false,
      "t": 239034.79416145853,
      "d": 836.6936041666777,
      "v": 75
    },
    {
      "midi": 51,
      "hit": false,
      "t": 240000.0160000002,
      "d": 2782.2582500000135,
      "v": 79
    },
    {
      "midi": 56,
      "hit": false,
      "t": 240005.05632291688,
      "d": 2777.217927083344,
      "v": 89
    },
    {
      "midi": 51,
      "hit": false,
      "t": 242903.24200000023,
      "d": 846.7742499999877,
      "v": 80
    },
    {
      "midi": 56,
      "hit": false,
      "t": 242905.76216145855,
      "d": 844.2540885416674,
      "v": 88
    },
    {
      "midi": 55,
      "hit": false,
      "t": 243876.0243229169,
      "d": 2769.657442708296,
      "v": 105
    },
    {
      "midi": 51,
      "hit": false,
      "t": 243883.5848072919,
      "d": 2799.8993802083132,
      "v": 105
    },
    {
      "midi": 39,
      "hit": false,
      "t": 243886.1049687502,
      "d": 2764.6171197916556,
      "v": 114
    },
    {
      "midi": 51,
      "hit": false,
      "t": 246771.68983854188,
      "d": 453.6290624999965,
      "v": 87
    },
    {
      "midi": 39,
      "hit": false,
      "t": 246771.68983854188,
      "d": 934.9799010416609,
      "v": 96
    },
    {
      "midi": 55,
      "hit": false,
      "t": 246776.73016145854,
      "d": 511.59277604165254,
      "v": 87
    },
    {
      "midi": 51,
      "hit": false,
      "t": 247253.04067708354,
      "d": 483.87100000001374,
      "v": 89
    },
    {
      "midi": 58,
      "hit": false,
      "t": 247260.60116145853,
      "d": 451.1089010416763,
      "v": 94
    },
    {
      "midi": 50,
      "hit": false,
      "t": 247736.91167708355,
      "d": 2782.2582500000135,
      "v": 96
    },
    {
      "midi": 53,
      "hit": false,
      "t": 247736.91167708355,
      "d": 2804.939703125012,
      "v": 105
    },
    {
      "midi": 34,
      "hit": false,
      "t": 247736.91167708355,
      "d": 2860.3832552083477,
      "v": 95
    },
    {
      "midi": 50,
      "hit": false,
      "t": 250637.61751562523,
      "d": 476.3105156249949,
      "v": 87
    },
    {
      "midi": 53,
      "hit": false,
      "t": 250637.61751562523,
      "d": 476.3105156249949,
      "v": 105
    },
    {
      "midi": 34,
      "hit": false,
      "t": 250640.13767708355,
      "d": 967.7419999999984,
      "v": 94
    },
    {
      "midi": 50,
      "hit": false,
      "t": 251134.0893229169,
      "d": 486.39116145827575,
      "v": 83
    },
    {
      "midi": 58,
      "hit": false,
      "t": 251136.60948437522,
      "d": 483.87099999995553,
      "v": 96
    },
    {
      "midi": 37,
      "hit": false,
      "t": 251610.39983854187,
      "d": 2867.9437395833083,
      "v": 106
    },
    {
      "midi": 49,
      "hit": false,
      "t": 251612.9200000002,
      "d": 2852.822770833329,
      "v": 75
    },
    {
      "midi": 53,
      "hit": false,
      "t": 251617.96032291686,
      "d": 2792.3388958333235,
      "v": 96
    },
    {
      "midi": 49,
      "hit": false,
      "t": 254511.1056770835,
      "d": 302.41937499996857,
      "v": 114
    },
    {
      "midi": 56,
      "hit": false,
      "t": 254513.62583854183,
      "d": 297.37905208332813,
      "v": 105
    },
    {
      "midi": 53,
      "hit": false,
      "t": 254513.62583854183,
      "d": 312.50002083330764,
      "v": 114
    },
    {
      "midi": 37,
      "hit": false,
      "t": 254523.70648437517,
      "d": 917.3387708332739,
      "v": 99
    },
    {
      "midi": 56,
      "hit": false,
      "t": 254843.76698958347,
      "d": 277.21776041665,
      "v": 105
    },
    {
      "midi": 49,
      "hit": false,
      "t": 254843.76698958347,
      "d": 289.8185677083093,
      "v": 114
    },
    {
      "midi": 53,
      "hit": false,
      "t": 254846.2871510418,
      "d": 297.37905208332813,
      "v": 114
    },
    {
      "midi": 56,
      "hit": false,
      "t": 255166.34765625012,
      "d": 289.8185677083384,
      "v": 114
    },
    {
      "midi": 49,
      "hit": false,
      "t": 255168.86781770844,
      "d": 307.4596979166963,
      "v": 105
    },
    {
      "midi": 53,
      "hit": false,
      "t": 255168.86781770844,
      "d": 307.4596979166963,
      "v": 112
    },
    {
      "midi": 48,
      "hit": false,
      "t": 255476.32751562513,
      "d": 128.52823437500047,
      "v": 96
    },
    {
      "midi": 44,
      "hit": false,
      "t": 255478.84767708345,
      "d": 126.00807291668025,
      "v": 98
    },
    {
      "midi": 51,
      "hit": false,
      "t": 255478.84767708345,
      "d": 126.00807291668025,
      "v": 96
    },
    {
      "midi": 56,
      "hit": false,
      "t": 255483.88800000012,
      "d": 120.96775000001071,
      "v": 91
    }
  ]
}