{
  "jsonPath": "Classical/Classical/Giuseppe Verdi/aida-triumph-march.json",
  "path": "Classical\\Classical\\Giuseppe Verdi\\Aida Triumph March.mid",
  "name": "Aida Triumph March",
  "difficulty": "Advanced",
  "bpm": 110.00011000011,
  "notes": [
    {
      "midi": 63,
      "hit": false,
      "t": 1636.362,
      "d": 545.4540000000002,
      "v": 64
    },
    {
      "midi": 68,
      "hit": false,
      "t": 2181.8160000000003,
      "d": 1636.362,
      "v": 44
    },
    {
      "midi": 44,
      "hit": false,
      "t": 2181.8160000000003,
      "d": 545.4540000000002,
      "v": 46
    },
    {
      "midi": 48,
      "hit": false,
      "t": 2181.8160000000003,
      "d": 545.4540000000002,
      "v": 46
    },
    {
      "midi": 51,
      "hit": false,
      "t": 2181.8160000000003,
      "d": 545.4540000000002,
      "v": 56
    },
    {
      "midi": 44,
      "hit": false,
      "t": 2727.2700000000004,
      "d": 545.4540000000002,
      "v": 42
    },
    {
      "midi": 48,
      "hit": false,
      "t": 2727.2700000000004,
      "d": 545.4540000000002,
      "v": 42
    },
    {
      "midi": 51,
      "hit": false,
      "t": 2727.2700000000004,
      "d": 545.4540000000002,
      "v": 52
    },
    {
      "midi": 44,
      "hit": false,
      "t": 3272.7240000000006,
      "d": 545.4540000000002,
      "v": 54
    },
    {
      "midi": 48,
      "hit": false,
      "t": 3272.7240000000006,
      "d": 545.4540000000002,
      "v": 54
    },
    {
      "midi": 51,
      "hit": false,
      "t": 3272.7240000000006,
      "d": 545.4540000000002,
      "v": 50
    },
    {
      "midi": 70,
      "hit": false,
      "t": 3818.1780000000003,
      "d": 181.64044335937479,
      "v": 49
    },
    {
      "midi": 43,
      "hit": false,
      "t": 3818.178000000001,
      "d": 545.4539999999997,
      "v": 52
    },
    {
      "midi": 49,
      "hit": false,
      "t": 3818.178000000001,
      "d": 545.4539999999997,
      "v": 53
    },
    {
      "midi": 51,
      "hit": false,
      "t": 3818.178000000001,
      "d": 545.4539999999997,
      "v": 48
    },
    {
      "midi": 63,
      "hit": false,
      "t": 3999.818443359375,
      "d": 181.64044335937524,
      "v": 49
    },
    {
      "midi": 70,
      "hit": false,
      "t": 4181.45888671875,
      "d": 182.17311328125015,
      "v": 49
    },
    {
      "midi": 72,
      "hit": false,
      "t": 4363.6320000000005,
      "d": 545.4539999999997,
      "v": 49
    },
    {
      "midi": 44,
      "hit": false,
      "t": 4363.6320000000005,
      "d": 545.4539999999997,
      "v": 56
    },
    {
      "midi": 48,
      "hit": false,
      "t": 4363.6320000000005,
      "d": 545.4539999999997,
      "v": 56
    },
    {
      "midi": 51,
      "hit": false,
      "t": 4363.6320000000005,
      "d": 545.4539999999997,
      "v": 52
    },
    {
      "midi": 72,
      "hit": false,
      "t": 4909.086,
      "d": 545.4539999999997,
      "v": 49
    },
    {
      "midi": 44,
      "hit": false,
      "t": 4909.086,
      "d": 545.4539999999997,
      "v": 42
    },
    {
      "midi": 48,
      "hit": false,
      "t": 4909.086,
      "d": 545.4539999999997,
      "v": 42
    },
    {
      "midi": 51,
      "hit": false,
      "t": 4909.086,
      "d": 545.4539999999997,
      "v": 52
    },
    {
      "midi": 72,
      "hit": false,
      "t": 5454.54,
      "d": 545.4539999999997,
      "v": 44
    },
    {
      "midi": 44,
      "hit": false,
      "t": 5454.54,
      "d": 545.4539999999997,
      "v": 44
    },
    {
      "midi": 48,
      "hit": false,
      "t": 5454.54,
      "d": 545.4539999999997,
      "v": 44
    },
    {
      "midi": 51,
      "hit": false,
      "t": 5454.54,
      "d": 545.4539999999997,
      "v": 54
    },
    {
      "midi": 72,
      "hit": false,
      "t": 5999.994,
      "d": 181.64044335937524,
      "v": 49
    },
    {
      "midi": 44,
      "hit": false,
      "t": 5999.994,
      "d": 545.4539999999997,
      "v": 52
    },
    {
      "midi": 48,
      "hit": false,
      "t": 5999.994,
      "d": 545.4539999999997,
      "v": 52
    },
    {
      "midi": 51,
      "hit": false,
      "t": 5999.994,
      "d": 545.4539999999997,
      "v": 48
    },
    {
      "midi": 73,
      "hit": false,
      "t": 6181.634443359375,
      "d": 181.64044335937524,
      "v": 49
    },
    {
      "midi": 68,
      "hit": false,
      "t": 6363.27488671875,
      "d": 182.17311328125015,
      "v": 49
    },
    {
      "midi": 43,
      "hit": false,
      "t": 6545.447999999999,
      "d": 545.4539999999997,
      "v": 56
    },
    {
      "midi": 49,
      "hit": false,
      "t": 6545.447999999999,
      "d": 545.4539999999997,
      "v": 57
    },
    {
      "midi": 51,
      "hit": false,
      "t": 6545.447999999999,
      "d": 545.4539999999997,
      "v": 52
    },
    {
      "midi": 72,
      "hit": false,
      "t": 6545.448,
      "d": 818.1810000000005,
      "v": 49
    },
    {
      "midi": 43,
      "hit": false,
      "t": 7090.901999999999,
      "d": 545.4539999999997,
      "v": 52
    },
    {
      "midi": 49,
      "hit": false,
      "t": 7090.901999999999,
      "d": 545.4539999999997,
      "v": 53
    },
    {
      "midi": 51,
      "hit": false,
      "t": 7090.901999999999,
      "d": 545.4539999999997,
      "v": 48
    },
    {
      "midi": 70,
      "hit": false,
      "t": 7363.629000000001,
      "d": 272.72699999999986,
      "v": 49
    },
    {
      "midi": 44,
      "hit": false,
      "t": 7636.355999999999,
      "d": 545.4539999999997,
      "v": 54
    },
    {
      "midi": 48,
      "hit": false,
      "t": 7636.355999999999,
      "d": 545.4539999999997,
      "v": 54
    },
    {
      "midi": 51,
      "hit": false,
      "t": 7636.355999999999,
      "d": 545.4539999999997,
      "v": 50
    },
    {
      "midi": 68,
      "hit": false,
      "t": 7636.356000000001,
      "d": 1090.9080000000004,
      "v": 44
    },
    {
      "midi": 44,
      "hit": false,
      "t": 8181.809999999999,
      "d": 545.4540000000006,
      "v": 52
    },
    {
      "midi": 48,
      "hit": false,
      "t": 8181.809999999999,
      "d": 545.4540000000006,
      "v": 52
    },
    {
      "midi": 51,
      "hit": false,
      "t": 8181.809999999999,
      "d": 545.4540000000006,
      "v": 48
    },
    {
      "midi": 43,
      "hit": false,
      "t": 8727.264,
      "d": 545.4539999999997,
      "v": 56
    },
    {
      "midi": 49,
      "hit": false,
      "t": 8727.264,
      "d": 545.4539999999997,
      "v": 57
    },
    {
      "midi": 51,
      "hit": false,
      "t": 8727.264,
      "d": 545.4539999999997,
      "v": 52
    },
    {
      "midi": 70,
      "hit": false,
      "t": 8727.264000000001,
      "d": 272.72700000000077,
      "v": 49
    },
    {
      "midi": 72,
      "hit": false,
      "t": 8999.991000000002,
      "d": 272.72700000000077,
      "v": 44
    },
    {
      "midi": 43,
      "hit": false,
      "t": 9272.717999999999,
      "d": 545.4539999999997,
      "v": 52
    },
    {
      "midi": 49,
      "hit": false,
      "t": 9272.717999999999,
      "d": 545.4539999999997,
      "v": 53
    },
    {
      "midi": 51,
      "hit": false,
      "t": 9272.717999999999,
      "d": 545.4539999999997,
      "v": 48
    },
    {
      "midi": 72,
      "hit": false,
      "t": 9272.718000000003,
      "d": 409.09050000000025,
      "v": 49
    },
    {
      "midi": 70,
      "hit": false,
      "t": 9681.808500000003,
      "d": 136.36349999999948,
      "v": 49
    },
    {
      "midi": 44,
      "hit": false,
      "t": 9818.171999999999,
      "d": 545.4539999999997,
      "v": 44
    },
    {
      "midi": 48,
      "hit": false,
      "t": 9818.171999999999,
      "d": 545.4539999999997,
      "v": 44
    },
    {
      "midi": 51,
      "hit": false,
      "t": 9818.171999999999,
      "d": 545.4539999999997,
      "v": 58
    },
    {
      "midi": 68,
      "hit": false,
      "t": 9818.172000000002,
      "d": 545.4539999999997,
      "v": 44
    },
    {
      "midi": 58,
      "hit": false,
      "t": 10363.625999999998,
      "d": 545.4539999999997,
      "v": 55
    },
    {
      "midi": 63,
      "hit": false,
      "t": 10363.625999999998,
      "d": 545.4539999999997,
      "v": 50
    },
    {
      "midi": 70,
      "hit": false,
      "t": 10363.626000000002,
      "d": 409.09050000000025,
      "v": 49
    },
    {
      "midi": 72,
      "hit": false,
      "t": 10772.716500000002,
      "d": 136.36349999999948,
      "v": 49
    },
    {
      "midi": 56,
      "hit": false,
      "t": 10909.079999999998,
      "d": 545.4539999999997,
      "v": 36
    },
    {
      "midi": 60,
      "hit": false,
      "t": 10909.079999999998,
      "d": 545.4539999999997,
      "v": 50
    },
    {
      "midi": 72,
      "hit": false,
      "t": 10909.080000000002,
      "d": 545.4539999999997,
      "v": 44
    },
    {
      "midi": 58,
      "hit": false,
      "t": 11454.533999999998,
      "d": 545.4539999999997,
      "v": 55
    },
    {
      "midi": 63,
      "hit": false,
      "t": 11454.533999999998,
      "d": 545.4539999999997,
      "v": 50
    },
    {
      "midi": 70,
      "hit": false,
      "t": 11454.534000000001,
      "d": 409.09050000000025,
      "v": 49
    },
    {
      "midi": 72,
      "hit": false,
      "t": 11863.624500000002,
      "d": 136.36349999999948,
      "v": 49
    },
    {
      "midi": 56,
      "hit": false,
      "t": 11999.987999999998,
      "d": 545.4539999999997,
      "v": 36
    },
    {
      "midi": 60,
      "hit": false,
      "t": 11999.987999999998,
      "d": 545.4539999999997,
      "v": 50
    },
    {
      "midi": 72,
      "hit": false,
      "t": 11999.988000000001,
      "d": 545.4539999999997,
      "v": 44
    },
    {
      "midi": 53,
      "hit": false,
      "t": 12545.441999999997,
      "d": 545.4539999999997,
      "v": 42
    },
    {
      "midi": 56,
      "hit": false,
      "t": 12545.441999999997,
      "d": 545.4539999999997,
      "v": 56
    },
    {
      "midi": 65,
      "hit": false,
      "t": 12545.441999999997,
      "d": 545.4539999999997,
      "v": 50
    },
    {
      "midi": 68,
      "hit": false,
      "t": 12545.442000000001,
      "d": 409.09050000000025,
      "v": 49
    },
    {
      "midi": 70,
      "hit": false,
      "t": 12954.532500000001,
      "d": 136.36349999999948,
      "v": 49
    },
    {
      "midi": 50,
      "hit": false,
      "t": 13090.895999999997,
      "d": 545.4539999999997,
      "v": 46
    },
    {
      "midi": 58,
      "hit": false,
      "t": 13090.895999999997,
      "d": 545.4539999999997,
      "v": 60
    },
    {
      "midi": 70,
      "hit": false,
      "t": 13090.896,
      "d": 1090.9079999999994,
      "v": 44
    },
    {
      "midi": 50,
      "hit": false,
      "t": 13636.349999999997,
      "d": 545.4539999999997,
      "v": 42
    },
    {
      "midi": 58,
      "hit": false,
      "t": 13636.349999999997,
      "d": 545.4539999999997,
      "v": 56
    },
    {
      "midi": 39,
      "hit": false,
      "t": 14181.803999999996,
      "d": 545.4539999999997,
      "v": 43
    },
    {
      "midi": 51,
      "hit": false,
      "t": 14181.803999999996,
      "d": 545.4539999999997,
      "v": 58
    },
    {
      "midi": 61,
      "hit": false,
      "t": 14181.804,
      "d": 545.4539999999997,
      "v": 52
    },
    {
      "midi": 65,
      "hit": false,
      "t": 14181.804,
      "d": 545.4539999999997,
      "v": 52
    },
    {
      "midi": 39,
      "hit": false,
      "t": 14727.257999999996,
      "d": 545.4539999999997,
      "v": 51
    },
    {
      "midi": 51,
      "hit": false,
      "t": 14727.257999999996,
      "d": 545.4539999999997,
      "v": 48
    },
    {
      "midi": 61,
      "hit": false,
      "t": 14727.258,
      "d": 545.4539999999997,
      "v": 50
    },
    {
      "midi": 63,
      "hit": false,
      "t": 14727.258,
      "d": 545.4539999999997,
      "v": 50
    },
    {
      "midi": 44,
      "hit": false,
      "t": 15272.711999999996,
      "d": 545.4539999999997,
      "v": 56
    },
    {
      "midi": 48,
      "hit": false,
      "t": 15272.711999999996,
      "d": 545.4539999999997,
      "v": 56
    },
    {
      "midi": 51,
      "hit": false,
      "t": 15272.711999999996,
      "d": 545.4539999999997,
      "v": 52
    },
    {
      "midi": 68,
      "hit": false,
      "t": 15272.712,
      "d": 1636.362000000001,
      "v": 49
    },
    {
      "midi": 44,
      "hit": false,
      "t": 15818.165999999996,
      "d": 545.4539999999997,
      "v": 42
    },
    {
      "midi": 48,
      "hit": false,
      "t": 15818.165999999996,
      "d": 545.4539999999997,
      "v": 42
    },
    {
      "midi": 51,
      "hit": false,
      "t": 15818.165999999996,
      "d": 545.4539999999997,
      "v": 52
    },
    {
      "midi": 44,
      "hit": false,
      "t": 16363.619999999995,
      "d": 545.4540000000015,
      "v": 54
    },
    {
      "midi": 48,
      "hit": false,
      "t": 16363.619999999995,
      "d": 545.4540000000015,
      "v": 54
    },
    {
      "midi": 51,
      "hit": false,
      "t": 16363.619999999995,
      "d": 545.4540000000015,
      "v": 50
    },
    {
      "midi": 43,
      "hit": false,
      "t": 16909.073999999997,
      "d": 545.4540000000015,
      "v": 52
    },
    {
      "midi": 49,
      "hit": false,
      "t": 16909.073999999997,
      "d": 545.4540000000015,
      "v": 53
    },
    {
      "midi": 51,
      "hit": false,
      "t": 16909.073999999997,
      "d": 545.4540000000015,
      "v": 48
    },
    {
      "midi": 70,
      "hit": false,
      "t": 16909.074,
      "d": 181.64044335937433,
      "v": 49
    },
    {
      "midi": 63,
      "hit": false,
      "t": 17090.714443359375,
      "d": 181.64044335937433,
      "v": 49
    },
    {
      "midi": 70,
      "hit": false,
      "t": 17272.35488671875,
      "d": 182.17311328124924,
      "v": 49
    },
    {
      "midi": 72,
      "hit": false,
      "t": 17454.528,
      "d": 545.4540000000015,
      "v": 49
    },
    {
      "midi": 44,
      "hit": false,
      "t": 17454.528,
      "d": 545.4540000000015,
      "v": 56
    },
    {
      "midi": 48,
      "hit": false,
      "t": 17454.528,
      "d": 545.4540000000015,
      "v": 56
    },
    {
      "midi": 51,
      "hit": false,
      "t": 17454.528,
      "d": 545.4540000000015,
      "v": 52
    },
    {
      "midi": 72,
      "hit": false,
      "t": 17999.982,
      "d": 545.4540000000015,
      "v": 49
    },
    {
      "midi": 44,
      "hit": false,
      "t": 17999.982,
      "d": 545.4540000000015,
      "v": 42
    },
    {
      "midi": 48,
      "hit": false,
      "t": 17999.982,
      "d": 545.4540000000015,
      "v": 42
    },
    {
      "midi": 51,
      "hit": false,
      "t": 17999.982,
      "d": 545.4540000000015,
      "v": 52
    },
    {
      "midi": 72,
      "hit": false,
      "t": 18545.436,
      "d": 545.4540000000015,
      "v": 44
    },
    {
      "midi": 44,
      "hit": false,
      "t": 18545.436,
      "d": 545.4540000000015,
      "v": 44
    },
    {
      "midi": 48,
      "hit": false,
      "t": 18545.436,
      "d": 545.4540000000015,
      "v": 44
    },
    {
      "midi": 51,
      "hit": false,
      "t": 18545.436,
      "d": 545.4540000000015,
      "v": 54
    },
    {
      "midi": 72,
      "hit": false,
      "t": 19090.890000000003,
      "d": 181.64044335937433,
      "v": 49
    },
    {
      "midi": 44,
      "hit": false,
      "t": 19090.890000000003,
      "d": 545.4540000000015,
      "v": 52
    },
    {
      "midi": 48,
      "hit": false,
      "t": 19090.890000000003,
      "d": 545.4540000000015,
      "v": 52
    },
    {
      "midi": 51,
      "hit": false,
      "t": 19090.890000000003,
      "d": 545.4540000000015,
      "v": 48
    },
    {
      "midi": 73,
      "hit": false,
      "t": 19272.530443359377,
      "d": 181.64044335937433,
      "v": 49
    },
    {
      "midi": 68,
      "hit": false,
      "t": 19454.17088671875,
      "d": 182.17311328124924,
      "v": 49
    },
    {
      "midi": 72,
      "hit": false,
      "t": 19636.344,
      "d": 818.1810000000005,
      "v": 49
    },
    {
      "midi": 43,
      "hit": false,
      "t": 19636.344000000005,
      "d": 545.4540000000015,
      "v": 56
    },
    {
      "midi": 49,
      "hit": false,
      "t": 19636.344000000005,
      "d": 545.4540000000015,
      "v": 57
    },
    {
      "midi": 51,
      "hit": false,
      "t": 19636.344000000005,
      "d": 545.4540000000015,
      "v": 52
    },
    {
      "midi": 43,
      "hit": false,
      "t": 20181.798000000006,
      "d": 545.4540000000015,
      "v": 52
    },
    {
      "midi": 49,
      "hit": false,
      "t": 20181.798000000006,
      "d": 545.4540000000015,
      "v": 53
    },
    {
      "midi": 51,
      "hit": false,
      "t": 20181.798000000006,
      "d": 545.4540000000015,
      "v": 48
    },
    {
      "midi": 70,
      "hit": false,
      "t": 20454.525,
      "d": 272.72699999999895,
      "v": 49
    },
    {
      "midi": 68,
      "hit": false,
      "t": 20727.252,
      "d": 1090.9079999999994,
      "v": 44
    },
    {
      "midi": 44,
      "hit": false,
      "t": 20727.252000000008,
      "d": 545.4540000000015,
      "v": 54
    },
    {
      "midi": 48,
      "hit": false,
      "t": 20727.252000000008,
      "d": 545.4540000000015,
      "v": 54
    },
    {
      "midi": 51,
      "hit": false,
      "t": 20727.252000000008,
      "d": 545.4540000000015,
      "v": 50
    },
    {
      "midi": 44,
      "hit": false,
      "t": 21272.70600000001,
      "d": 545.4540000000015,
      "v": 52
    },
    {
      "midi": 48,
      "hit": false,
      "t": 21272.70600000001,
      "d": 545.4540000000015,
      "v": 52
    },
    {
      "midi": 51,
      "hit": false,
      "t": 21272.70600000001,
      "d": 545.4540000000015,
      "v": 48
    },
    {
      "midi": 70,
      "hit": false,
      "t": 21818.16,
      "d": 272.72699999999895,
      "v": 49
    },
    {
      "midi": 43,
      "hit": false,
      "t": 21818.16000000001,
      "d": 545.4540000000015,
      "v": 56
    },
    {
      "midi": 49,
      "hit": false,
      "t": 21818.16000000001,
      "d": 545.4540000000015,
      "v": 57
    },
    {
      "midi": 51,
      "hit": false,
      "t": 21818.16000000001,
      "d": 545.4540000000015,
      "v": 52
    },
    {
      "midi": 72,
      "hit": false,
      "t": 22090.887,
      "d": 272.72699999999895,
      "v": 44
    },
    {
      "midi": 72,
      "hit": false,
      "t": 22363.613999999998,
      "d": 409.0904999999984,
      "v": 49
    },
    {
      "midi": 43,
      "hit": false,
      "t": 22363.614000000012,
      "d": 545.4540000000015,
      "v": 52
    },
    {
      "midi": 49,
      "hit": false,
      "t": 22363.614000000012,
      "d": 545.4540000000015,
      "v": 53
    },
    {
      "midi": 51,
      "hit": false,
      "t": 22363.614000000012,
      "d": 545.4540000000015,
      "v": 48
    },
    {
      "midi": 70,
      "hit": false,
      "t": 22772.704499999996,
      "d": 136.36349999999948,
      "v": 49
    },
    {
      "midi": 68,
      "hit": false,
      "t": 22909.067999999996,
      "d": 545.4540000000015,
      "v": 44
    },
    {
      "midi": 44,
      "hit": false,
      "t": 22909.068000000014,
      "d": 545.4540000000015,
      "v": 44
    },
    {
      "midi": 48,
      "hit": false,
      "t": 22909.068000000014,
      "d": 545.4540000000015,
      "v": 44
    },
    {
      "midi": 51,
      "hit": false,
      "t": 22909.068000000014,
      "d": 545.4540000000015,
      "v": 58
    },
    {
      "midi": 70,
      "hit": false,
      "t": 23454.521999999997,
      "d": 409.0904999999984,
      "v": 49
    },
    {
      "midi": 58,
      "hit": false,
      "t": 23454.522000000015,
      "d": 545.4540000000015,
      "v": 55
    },
    {
      "midi": 63,
      "hit": false,
      "t": 23454.522000000015,
      "d": 545.4540000000015,
      "v": 50
    },
    {
      "midi": 72,
      "hit": false,
      "t": 23863.612499999996,
      "d": 136.36349999999948,
      "v": 49
    },
    {
      "midi": 72,
      "hit": false,
      "t": 23999.975999999995,
      "d": 545.4540000000015,
      "v": 44
    },
    {
      "midi": 56,
      "hit": false,
      "t": 23999.976000000017,
      "d": 545.4540000000015,
      "v": 36
    },
    {
      "midi": 60,
      "hit": false,
      "t": 23999.976000000017,
      "d": 545.4540000000015,
      "v": 50
    },
    {
      "midi": 70,
      "hit": false,
      "t": 24545.429999999997,
      "d": 409.0904999999984,
      "v": 49
    },
    {
      "midi": 58,
      "hit": false,
      "t": 24545.43000000002,
      "d": 545.4540000000015,
      "v": 55
    },
    {
      "midi": 63,
      "hit": false,
      "t": 24545.43000000002,
      "d": 545.4540000000015,
      "v": 50
    },
    {
      "midi": 72,
      "hit": false,
      "t": 24954.520499999995,
      "d": 136.36349999999948,
      "v": 49
    },
    {
      "midi": 72,
      "hit": false,
      "t": 25090.883999999995,
      "d": 545.4540000000015,
      "v": 44
    },
    {
      "midi": 56,
      "hit": false,
      "t": 25090.88400000002,
      "d": 545.4540000000015,
      "v": 36
    },
    {
      "midi": 60,
      "hit": false,
      "t": 25090.88400000002,
      "d": 545.4540000000015,
      "v": 50
    },
    {
      "midi": 70,
      "hit": false,
      "t": 25636.337999999996,
      "d": 181.64044335937433,
      "v": 49
    },
    {
      "midi": 43,
      "hit": false,
      "t": 25636.33800000002,
      "d": 545.4540000000015,
      "v": 42
    },
    {
      "midi": 49,
      "hit": false,
      "t": 25636.33800000002,
      "d": 545.4540000000015,
      "v": 42
    },
    {
      "midi": 51,
      "hit": false,
      "t": 25636.33800000002,
      "d": 545.4540000000015,
      "v": 56
    },
    {
      "midi": 72,
      "hit": false,
      "t": 25817.97844335937,
      "d": 181.64044335937433,
      "v": 49
    },
    {
      "midi": 70,
      "hit": false,
      "t": 25999.618886718745,
      "d": 182.17311328124924,
      "v": 49
    },
    {
      "midi": 68,
      "hit": false,
      "t": 26181.791999999994,
      "d": 1636.362000000001,
      "v": 44
    },
    {
      "midi": 44,
      "hit": false,
      "t": 26181.792000000023,
      "d": 545.4540000000015,
      "v": 56
    },
    {
      "midi": 48,
      "hit": false,
      "t": 26181.792000000023,
      "d": 545.4540000000015,
      "v": 56
    },
    {
      "midi": 51,
      "hit": false,
      "t": 26181.792000000023,
      "d": 545.4540000000015,
      "v": 52
    },
    {
      "midi": 44,
      "hit": false,
      "t": 26727.246000000025,
      "d": 409.0904999999984,
      "v": 42
    },
    {
      "midi": 48,
      "hit": false,
      "t": 26727.246000000025,
      "d": 409.0904999999984,
      "v": 42
    },
    {
      "midi": 51,
      "hit": false,
      "t": 26727.246000000025,
      "d": 409.0904999999984,
      "v": 52
    },
    {
      "midi": 44,
      "hit": false,
      "t": 27136.336500000023,
      "d": 136.36349999999948,
      "v": 41
    },
    {
      "midi": 48,
      "hit": false,
      "t": 27136.336500000023,
      "d": 136.36349999999948,
      "v": 41
    },
    {
      "midi": 51,
      "hit": false,
      "t": 27136.336500000023,
      "d": 136.36349999999948,
      "v": 51
    },
    {
      "midi": 44,
      "hit": false,
      "t": 27272.700000000023,
      "d": 1090.9079999999994,
      "v": 44
    },
    {
      "midi": 48,
      "hit": false,
      "t": 27272.700000000023,
      "d": 1090.9079999999994,
      "v": 44
    },
    {
      "midi": 51,
      "hit": false,
      "t": 27272.700000000023,
      "d": 1090.9079999999994,
      "v": 58
    },
    {
      "midi": 68,
      "hit": false,
      "t": 27818.153999999995,
      "d": 181.64044335937433,
      "v": 49
    },
    {
      "midi": 63,
      "hit": false,
      "t": 27999.79444335937,
      "d": 181.64044335937433,
      "v": 75
    },
    {
      "midi": 68,
      "hit": false,
      "t": 28181.434886718744,
      "d": 182.17311328124924,
      "v": 75
    },
    {
      "midi": 70,
      "hit": false,
      "t": 28363.607999999993,
      "d": 409.0904999999984,
      "v": 49
    },
    {
      "midi": 51,
      "hit": false,
      "t": 28363.608000000022,
      "d": 545.4540000000015,
      "v": 46
    },
    {
      "midi": 55,
      "hit": false,
      "t": 28363.608000000022,
      "d": 545.4540000000015,
      "v": 46
    },
    {
      "midi": 58,
      "hit": false,
      "t": 28363.608000000022,
      "d": 545.4540000000015,
      "v": 60
    },
    {
      "midi": 63,
      "hit": false,
      "t": 28772.69849999999,
      "d": 136.36349999999948,
      "v": 49
    },
    {
      "midi": 63,
      "hit": false,
      "t": 28909.06199999999,
      "d": 1090.9079999999994,
      "v": 44
    },
    {
      "midi": 58,
      "hit": false,
      "t": 28909.062000000024,
      "d": 545.4540000000015,
      "v": 56
    },
    {
      "midi": 51,
      "hit": false,
      "t": 29454.516000000025,
      "d": 545.4540000000015,
      "v": 44
    },
    {
      "midi": 56,
      "hit": false,
      "t": 29454.516000000025,
      "d": 545.4540000000015,
      "v": 44
    },
    {
      "midi": 59,
      "hit": false,
      "t": 29454.516000000025,
      "d": 545.4540000000015,
      "v": 58
    },
    {
      "midi": 68,
      "hit": false,
      "t": 29999.96999999999,
      "d": 181.64044335937433,
      "v": 49
    },
    {
      "midi": 51,
      "hit": false,
      "t": 29999.970000000027,
      "d": 545.4540000000015,
      "v": 42
    },
    {
      "midi": 56,
      "hit": false,
      "t": 29999.970000000027,
      "d": 545.4540000000015,
      "v": 42
    },
    {
      "midi": 59,
      "hit": false,
      "t": 29999.970000000027,
      "d": 545.4540000000015,
      "v": 56
    },
    {
      "midi": 63,
      "hit": false,
      "t": 30181.610443359365,
      "d": 181.64044335937433,
      "v": 49
    },
    {
      "midi": 68,
      "hit": false,
      "t": 30363.25088671874,
      "d": 182.17311328124924,
      "v": 49
    },
    {
      "midi": 70,
      "hit": false,
      "t": 30545.423999999988,
      "d": 409.0904999999984,
      "v": 49
    },
    {
      "midi": 51,
      "hit": false,
      "t": 30545.424000000028,
      "d": 545.4540000000015,
      "v": 46
    },
    {
      "midi": 55,
      "hit": false,
      "t": 30545.424000000028,
      "d": 545.4540000000015,
      "v": 46
    },
    {
      "midi": 58,
      "hit": false,
      "t": 30545.424000000028,
      "d": 545.4540000000015,
      "v": 60
    },
    {
      "midi": 63,
      "hit": false,
      "t": 30954.514499999987,
      "d": 136.36349999999948,
      "v": 49
    },
    {
      "midi": 63,
      "hit": false,
      "t": 31090.877999999986,
      "d": 1090.9079999999994,
      "v": 44
    },
    {
      "midi": 58,
      "hit": false,
      "t": 31090.87800000003,
      "d": 545.4540000000015,
      "v": 56
    },
    {
      "midi": 51,
      "hit": false,
      "t": 31636.33200000003,
      "d": 545.4540000000015,
      "v": 44
    },
    {
      "midi": 56,
      "hit": false,
      "t": 31636.33200000003,
      "d": 545.4540000000015,
      "v": 44
    },
    {
      "midi": 59,
      "hit": false,
      "t": 31636.33200000003,
      "d": 545.4540000000015,
      "v": 58
    },
    {
      "midi": 68,
      "hit": false,
      "t": 32181.785999999986,
      "d": 181.64044335937433,
      "v": 49
    },
    {
      "midi": 51,
      "hit": false,
      "t": 32181.786000000033,
      "d": 545.4540000000015,
      "v": 42
    },
    {
      "midi": 56,
      "hit": false,
      "t": 32181.786000000033,
      "d": 545.4540000000015,
      "v": 42
    },
    {
      "midi": 59,
      "hit": false,
      "t": 32181.786000000033,
      "d": 545.4540000000015,
      "v": 56
    },
    {
      "midi": 63,
      "hit": false,
      "t": 32363.42644335936,
      "d": 181.64044335937433,
      "v": 49
    },
    {
      "midi": 68,
      "hit": false,
      "t": 32545.066886718734,
      "d": 182.17311328124924,
      "v": 49
    },
    {
      "midi": 70,
      "hit": false,
      "t": 32727.239999999983,
      "d": 409.0904999999984,
      "v": 49
    },
    {
      "midi": 51,
      "hit": false,
      "t": 32727.240000000034,
      "d": 1090.908000000003,
      "v": 46
    },
    {
      "midi": 55,
      "hit": false,
      "t": 32727.240000000034,
      "d": 1090.908000000003,
      "v": 46
    },
    {
      "midi": 58,
      "hit": false,
      "t": 32727.240000000034,
      "d": 1090.908000000003,
      "v": 60
    },
    {
      "midi": 75,
      "hit": false,
      "t": 33136.33049999998,
      "d": 136.36349999999948,
      "v": 49
    },
    {
      "midi": 75,
      "hit": false,
      "t": 33272.69399999998,
      "d": 954.5444999999963,
      "v": 49
    },
    {
      "midi": 58,
      "hit": false,
      "t": 33818.14800000004,
      "d": 1090.908000000003,
      "v": 58
    },
    {
      "midi": 70,
      "hit": false,
      "t": 34227.23849999998,
      "d": 136.36349999999948,
      "v": 49
    },
    {
      "midi": 70,
      "hit": false,
      "t": 34363.60199999998,
      "d": 954.5444999999963,
      "v": 50
    },
    {
      "midi": 51,
      "hit": false,
      "t": 34909.05600000004,
      "d": 1090.908000000003,
      "v": 60
    },
    {
      "midi": 63,
      "hit": false,
      "t": 35318.14649999997,
      "d": 136.36349999999948,
      "v": 49
    },
    {
      "midi": 63,
      "hit": false,
      "t": 35454.50999999997,
      "d": 545.4539999999979,
      "v": 49
    },
    {
      "midi": 63,
      "hit": false,
      "t": 35999.96399999997,
      "d": 545.4539999999979,
      "v": 53
    },
    {
      "midi": 43,
      "hit": false,
      "t": 35999.96400000004,
      "d": 545.4539999999979,
      "v": 53
    },
    {
      "midi": 51,
      "hit": false,
      "t": 35999.96400000004,
      "d": 545.4539999999979,
      "v": 64
    },
    {
      "midi": 63,
      "hit": false,
      "t": 36545.41799999997,
      "d": 545.4539999999979,
      "v": 57
    },
    {
      "midi": 43,
      "hit": false,
      "t": 36545.41800000004,
      "d": 545.4539999999979,
      "v": 77
    },
    {
      "midi": 49,
      "hit": false,
      "t": 36545.41800000004,
      "d": 545.4539999999979,
      "v": 78
    },
    {
      "midi": 51,
      "hit": false,
      "t": 36545.41800000004,
      "d": 545.4539999999979,
      "v": 73
    },
    {
      "midi": 68,
      "hit": false,
      "t": 37090.87199999997,
      "d": 1636.362000000001,
      "v": 49
    },
    {
      "midi": 44,
      "hit": false,
      "t": 37090.87200000004,
      "d": 545.4539999999979,
      "v": 56
    },
    {
      "midi": 48,
      "hit": false,
      "t": 37090.87200000004,
      "d": 545.4539999999979,
      "v": 56
    },
    {
      "midi": 51,
      "hit": false,
      "t": 37090.87200000004,
      "d": 545.4539999999979,
      "v": 52
    },
    {
      "midi": 44,
      "hit": false,
      "t": 37636.32600000004,
      "d": 545.4539999999979,
      "v": 42
    },
    {
      "midi": 48,
      "hit": false,
      "t": 37636.32600000004,
      "d": 545.4539999999979,
      "v": 42
    },
    {
      "midi": 51,
      "hit": false,
      "t": 37636.32600000004,
      "d": 545.4539999999979,
      "v": 52
    },
    {
      "midi": 44,
      "hit": false,
      "t": 38181.780000000035,
      "d": 545.4539999999979,
      "v": 54
    },
    {
      "midi": 48,
      "hit": false,
      "t": 38181.780000000035,
      "d": 545.4539999999979,
      "v": 54
    },
    {
      "midi": 51,
      "hit": false,
      "t": 38181.780000000035,
      "d": 545.4539999999979,
      "v": 50
    },
    {
      "midi": 70,
      "hit": false,
      "t": 38727.23399999997,
      "d": 181.64044335937797,
      "v": 49
    },
    {
      "midi": 43,
      "hit": false,
      "t": 38727.23400000003,
      "d": 545.4539999999979,
      "v": 52
    },
    {
      "midi": 49,
      "hit": false,
      "t": 38727.23400000003,
      "d": 545.4539999999979,
      "v": 53
    },
    {
      "midi": 51,
      "hit": false,
      "t": 38727.23400000003,
      "d": 545.4539999999979,
      "v": 48
    },
    {
      "midi": 63,
      "hit": false,
      "t": 38908.874443359346,
      "d": 181.64044335937797,
      "v": 49
    },
    {
      "midi": 70,
      "hit": false,
      "t": 39090.51488671872,
      "d": 182.17311328124924,
      "v": 49
    },
    {
      "midi": 72,
      "hit": false,
      "t": 39272.68799999997,
      "d": 545.4539999999979,
      "v": 49
    },
    {
      "midi": 44,
      "hit": false,
      "t": 39272.68800000003,
      "d": 545.4539999999979,
      "v": 56
    },
    {
      "midi": 48,
      "hit": false,
      "t": 39272.68800000003,
      "d": 545.4539999999979,
      "v": 56
    },
    {
      "midi": 51,
      "hit": false,
      "t": 39272.68800000003,
      "d": 545.4539999999979,
      "v": 52
    },
    {
      "midi": 72,
      "hit": false,
      "t": 39818.14199999997,
      "d": 545.4539999999979,
      "v": 49
    },
    {
      "midi": 44,
      "hit": false,
      "t": 39818.14200000003,
      "d": 545.4539999999979,
      "v": 42
    },
    {
      "midi": 48,
      "hit": false,
      "t": 39818.14200000003,
      "d": 545.4539999999979,
      "v": 42
    },
    {
      "midi": 51,
      "hit": false,
      "t": 39818.14200000003,
      "d": 545.4539999999979,
      "v": 52
    },
    {
      "midi": 72,
      "hit": false,
      "t": 40363.59599999997,
      "d": 545.4539999999979,
      "v": 44
    },
    {
      "midi": 44,
      "hit": false,
      "t": 40363.59600000003,
      "d": 545.4539999999979,
      "v": 44
    },
    {
      "midi": 48,
      "hit": false,
      "t": 40363.59600000003,
      "d": 545.4539999999979,
      "v": 44
    },
    {
      "midi": 51,
      "hit": false,
      "t": 40363.59600000003,
      "d": 545.4539999999979,
      "v": 54
    },
    {
      "midi": 72,
      "hit": false,
      "t": 40909.04999999997,
      "d": 181.64044335937797,
      "v": 49
    },
    {
      "midi": 44,
      "hit": false,
      "t": 40909.050000000025,
      "d": 545.4539999999979,
      "v": 52
    },
    {
      "midi": 48,
      "hit": false,
      "t": 40909.050000000025,
      "d": 545.4539999999979,
      "v": 52
    },
    {
      "midi": 51,
      "hit": false,
      "t": 40909.050000000025,
      "d": 545.4539999999979,
      "v": 48
    },
    {
      "midi": 73,
      "hit": false,
      "t": 41090.690443359344,
      "d": 181.64044335937797,
      "v": 49
    },
    {
      "midi": 68,
      "hit": false,
      "t": 41272.33088671872,
      "d": 182.17311328124924,
      "v": 49
    },
    {
      "midi": 72,
      "hit": false,
      "t": 41454.50399999997,
      "d": 818.1809999999969,
      "v": 49
    },
    {
      "midi": 43,
      "hit": false,
      "t": 41454.50400000002,
      "d": 545.4539999999979,
      "v": 56
    },
    {
      "midi": 49,
      "hit": false,
      "t": 41454.50400000002,
      "d": 545.4539999999979,
      "v": 57
    },
    {
      "midi": 51,
      "hit": false,
      "t": 41454.50400000002,
      "d": 545.4539999999979,
      "v": 52
    },
    {
      "midi": 43,
      "hit": false,
      "t": 41999.95800000002,
      "d": 545.4539999999979,
      "v": 52
    },
    {
      "midi": 49,
      "hit": false,
      "t": 41999.95800000002,
      "d": 545.4539999999979,
      "v": 53
    },
    {
      "midi": 51,
      "hit": false,
      "t": 41999.95800000002,
      "d": 545.4539999999979,
      "v": 48
    },
    {
      "midi": 70,
      "hit": false,
      "t": 42272.68499999997,
      "d": 272.72699999999895,
      "v": 49
    },
    {
      "midi": 68,
      "hit": false,
      "t": 42545.41199999997,
      "d": 1090.908000000003,
      "v": 44
    },
    {
      "midi": 44,
      "hit": false,
      "t": 42545.41200000002,
      "d": 545.4539999999979,
      "v": 54
    },
    {
      "midi": 48,
      "hit": false,
      "t": 42545.41200000002,
      "d": 545.4539999999979,
      "v": 54
    },
    {
      "midi": 51,
      "hit": false,
      "t": 42545.41200000002,
      "d": 545.4539999999979,
      "v": 50
    },
    {
      "midi": 44,
      "hit": false,
      "t": 43090.866000000016,
      "d": 545.4539999999979,
      "v": 52
    },
    {
      "midi": 48,
      "hit": false,
      "t": 43090.866000000016,
      "d": 545.4539999999979,
      "v": 52
    },
    {
      "midi": 51,
      "hit": false,
      "t": 43090.866000000016,
      "d": 545.4539999999979,
      "v": 48
    },
    {
      "midi": 70,
      "hit": false,
      "t": 43636.31999999997,
      "d": 272.72699999999895,
      "v": 49
    },
    {
      "midi": 43,
      "hit": false,
      "t": 43636.320000000014,
      "d": 545.4539999999979,
      "v": 56
    },
    {
      "midi": 49,
      "hit": false,
      "t": 43636.320000000014,
      "d": 545.4539999999979,
      "v": 57
    },
    {
      "midi": 51,
      "hit": false,
      "t": 43636.320000000014,
      "d": 545.4539999999979,
      "v": 52
    },
    {
      "midi": 72,
      "hit": false,
      "t": 43909.04699999997,
      "d": 272.72699999999895,
      "v": 44
    },
    {
      "midi": 72,
      "hit": false,
      "t": 44181.77399999997,
      "d": 409.0904999999984,
      "v": 49
    },
    {
      "midi": 43,
      "hit": false,
      "t": 44181.77400000001,
      "d": 545.4539999999979,
      "v": 52
    },
    {
      "midi": 49,
      "hit": false,
      "t": 44181.77400000001,
      "d": 545.4539999999979,
      "v": 53
    },
    {
      "midi": 51,
      "hit": false,
      "t": 44181.77400000001,
      "d": 545.4539999999979,
      "v": 48
    },
    {
      "midi": 70,
      "hit": false,
      "t": 44590.86449999997,
      "d": 136.36349999999948,
      "v": 49
    },
    {
      "midi": 68,
      "hit": false,
      "t": 44727.22799999997,
      "d": 545.4539999999979,
      "v": 44
    },
    {
      "midi": 44,
      "hit": false,
      "t": 44727.22800000001,
      "d": 545.4539999999979,
      "v": 44
    },
    {
      "midi": 48,
      "hit": false,
      "t": 44727.22800000001,
      "d": 545.4539999999979,
      "v": 44
    },
    {
      "midi": 51,
      "hit": false,
      "t": 44727.22800000001,
      "d": 545.4539999999979,
      "v": 58
    },
    {
      "midi": 70,
      "hit": false,
      "t": 45272.681999999964,
      "d": 409.0904999999984,
      "v": 49
    },
    {
      "midi": 58,
      "hit": false,
      "t": 45272.68200000001,
      "d": 545.4539999999979,
      "v": 55
    },
    {
      "midi": 72,
      "hit": false,
      "t": 45681.77249999996,
      "d": 136.36349999999948,
      "v": 49
    },
    {
      "midi": 72,
      "hit": false,
      "t": 45818.13599999996,
      "d": 545.4539999999979,
      "v": 44
    },
    {
      "midi": 56,
      "hit": false,
      "t": 45818.136000000006,
      "d": 545.4539999999979,
      "v": 36
    },
    {
      "midi": 60,
      "hit": false,
      "t": 45818.136000000006,
      "d": 545.4539999999979,
      "v": 50
    },
    {
      "midi": 70,
      "hit": false,
      "t": 46363.58999999996,
      "d": 409.0904999999984,
      "v": 49
    },
    {
      "midi": 58,
      "hit": false,
      "t": 46363.590000000004,
      "d": 545.4539999999979,
      "v": 55
    },
    {
      "midi": 72,
      "hit": false,
      "t": 46772.68049999996,
      "d": 136.36349999999948,
      "v": 49
    },
    {
      "midi": 72,
      "hit": false,
      "t": 46909.04399999996,
      "d": 545.4539999999979,
      "v": 44
    },
    {
      "midi": 56,
      "hit": false,
      "t": 46909.044,
      "d": 545.4539999999979,
      "v": 36
    },
    {
      "midi": 60,
      "hit": false,
      "t": 46909.044,
      "d": 545.4539999999979,
      "v": 50
    },
    {
      "midi": 70,
      "hit": false,
      "t": 47454.497999999956,
      "d": 181.64044335937797,
      "v": 49
    },
    {
      "midi": 43,
      "hit": false,
      "t": 47454.498,
      "d": 545.4539999999979,
      "v": 42
    },
    {
      "midi": 49,
      "hit": false,
      "t": 47454.498,
      "d": 545.4539999999979,
      "v": 42
    },
    {
      "midi": 51,
      "hit": false,
      "t": 47454.498,
      "d": 545.4539999999979,
      "v": 56
    },
    {
      "midi": 72,
      "hit": false,
      "t": 47636.138443359334,
      "d": 181.64044335937797,
      "v": 49
    },
    {
      "midi": 70,
      "hit": false,
      "t": 47817.77888671871,
      "d": 182.17311328124924,
      "v": 49
    },
    {
      "midi": 68,
      "hit": false,
      "t": 47999.95199999996,
      "d": 1090.908000000003,
      "v": 44
    },
    {
      "midi": 44,
      "hit": false,
      "t": 47999.952,
      "d": 545.4539999999979,
      "v": 56
    },
    {
      "midi": 48,
      "hit": false,
      "t": 47999.952,
      "d": 545.4539999999979,
      "v": 56
    },
    {
      "midi": 51,
      "hit": false,
      "t": 47999.952,
      "d": 545.4539999999979,
      "v": 52
    },
    {
      "midi": 44,
      "hit": false,
      "t": 48545.405999999995,
      "d": 409.0904999999984,
      "v": 42
    },
    {
      "midi": 48,
      "hit": false,
      "t": 48545.405999999995,
      "d": 409.0904999999984,
      "v": 42
    },
    {
      "midi": 51,
      "hit": false,
      "t": 48545.405999999995,
      "d": 409.0904999999984,
      "v": 52
    },
    {
      "midi": 44,
      "hit": false,
      "t": 48954.496499999994,
      "d": 136.36349999999948,
      "v": 41
    },
    {
      "midi": 48,
      "hit": false,
      "t": 48954.496499999994,
      "d": 136.36349999999948,
      "v": 41
    },
    {
      "midi": 51,
      "hit": false,
      "t": 48954.496499999994,
      "d": 136.36349999999948,
      "v": 51
    },
    {
      "midi": 68,
      "hit": false,
      "t": 49090.859999999964,
      "d": 1090.908000000003,
      "v": 56
    },
    {
      "midi": 80,
      "hit": false,
      "t": 49090.859999999964,
      "d": 1090.908000000003,
      "v": 70
    },
    {
      "midi": 44,
      "hit": false,
      "t": 49090.85999999999,
      "d": 1090.908000000003,
      "v": 56
    },
    {
      "midi": 48,
      "hit": false,
      "t": 49090.85999999999,
      "d": 1090.908000000003,
      "v": 56
    },
    {
      "midi": 51,
      "hit": false,
      "t": 49090.85999999999,
      "d": 1090.908000000003,
      "v": 66
    }
  ]
}