{
  "jsonPath": "Classical/Classical/Giuseppe Verdi/la-traviata-n1-introduzione.json",
  "path": "Classical\\Classical\\Giuseppe Verdi\\La Traviata - N1 Introduzione.mid",
  "name": "La Traviata - N1 Introduzione",
  "difficulty": "Advanced",
  "bpm": 60,
  "notes": [
    {
      "midi": 75,
      "hit": false,
      "t": 500,
      "d": 250,
      "v": 127
    },
    {
      "midi": 39,
      "hit": false,
      "t": 500,
      "d": 250,
      "v": 127
    },
    {
      "midi": 76,
      "hit": false,
      "t": 750,
      "d": 250,
      "v": 127
    },
    {
      "midi": 40,
      "hit": false,
      "t": 750,
      "d": 250,
      "v": 127
    },
    {
      "midi": 78,
      "hit": false,
      "t": 1000,
      "d": 500,
      "v": 127
    },
    {
      "midi": 42,
      "hit": false,
      "t": 1000,
      "d": 500,
      "v": 127
    },
    {
      "midi": 79,
      "hit": false,
      "t": 1500,
      "d": 500,
      "v": 127
    },
    {
      "midi": 43,
      "hit": false,
      "t": 1500,
      "d": 500,
      "v": 127
    },
    {
      "midi": 80,
      "hit": false,
      "t": 2000,
      "d": 500,
      "v": 127
    },
    {
      "midi": 44,
      "hit": false,
      "t": 2000,
      "d": 500,
      "v": 127
    },
    {
      "midi": 81,
      "hit": false,
      "t": 2500,
      "d": 500,
      "v": 127
    },
    {
      "midi": 45,
      "hit": false,
      "t": 2500,
      "d": 500,
      "v": 127
    },
    {
      "midi": 82,
      "hit": false,
      "t": 3000,
      "d": 500,
      "v": 127
    },
    {
      "midi": 46,
      "hit": false,
      "t": 3000,
      "d": 500,
      "v": 127
    },
    {
      "midi": 83,
      "hit": false,
      "t": 3500,
      "d": 500,
      "v": 127
    },
    {
      "midi": 47,
      "hit": false,
      "t": 3500,
      "d": 500,
      "v": 127
    },
    {
      "midi": 85,
      "hit": false,
      "t": 4000,
      "d": 1000,
      "v": 127
    },
    {
      "midi": 49,
      "hit": false,
      "t": 4000,
      "d": 1000,
      "v": 127
    },
    {
      "midi": 78,
      "hit": false,
      "t": 8500,
      "d": 250,
      "v": 127
    },
    {
      "midi": 42,
      "hit": false,
      "t": 8500,
      "d": 250,
      "v": 127
    },
    {
      "midi": 80,
      "hit": false,
      "t": 8750,
      "d": 250,
      "v": 127
    },
    {
      "midi": 44,
      "hit": false,
      "t": 8750,
      "d": 250,
      "v": 127
    },
    {
      "midi": 81,
      "hit": false,
      "t": 9000,
      "d": 500,
      "v": 127
    },
    {
      "midi": 45,
      "hit": false,
      "t": 9000,
      "d": 500,
      "v": 127
    },
    {
      "midi": 83,
      "hit": false,
      "t": 9500,
      "d": 500,
      "v": 127
    },
    {
      "midi": 47,
      "hit": false,
      "t": 9500,
      "d": 500,
      "v": 127
    },
    {
      "midi": 85,
      "hit": false,
      "t": 10000,
      "d": 500,
      "v": 127
    },
    {
      "midi": 49,
      "hit": false,
      "t": 10000,
      "d": 500,
      "v": 127
    },
    {
      "midi": 86,
      "hit": false,
      "t": 10500,
      "d": 500,
      "v": 127
    },
    {
      "midi": 50,
      "hit": false,
      "t": 10500,
      "d": 500,
      "v": 127
    },
    {
      "midi": 88,
      "hit": false,
      "t": 11000,
      "d": 500,
      "v": 127
    },
    {
      "midi": 52,
      "hit": false,
      "t": 11000,
      "d": 500,
      "v": 127
    },
    {
      "midi": 89,
      "hit": false,
      "t": 11500,
      "d": 500,
      "v": 127
    },
    {
      "midi": 53,
      "hit": false,
      "t": 11500,
      "d": 500,
      "v": 127
    },
    {
      "midi": 90,
      "hit": false,
      "t": 12000,
      "d": 1000,
      "v": 127
    },
    {
      "midi": 54,
      "hit": false,
      "t": 12000,
      "d": 1000,
      "v": 127
    },
    {
      "midi": 80,
      "hit": false,
      "t": 14000,
      "d": 1000,
      "v": 127
    },
    {
      "midi": 83,
      "hit": false,
      "t": 14000,
      "d": 1000,
      "v": 127
    },
    {
      "midi": 86,
      "hit": false,
      "t": 14000,
      "d": 1000,
      "v": 127
    },
    {
      "midi": 92,
      "hit": false,
      "t": 14000,
      "d": 1000,
      "v": 127
    },
    {
      "midi": 40,
      "hit": false,
      "t": 14000,
      "d": 1000,
      "v": 127
    },
    {
      "midi": 47,
      "hit": false,
      "t": 14000,
      "d": 1000,
      "v": 127
    },
    {
      "midi": 52,
      "hit": false,
      "t": 14000,
      "d": 1000,
      "v": 127
    },
    {
      "midi": 57,
      "hit": false,
      "t": 16000,
      "d": 500,
      "v": 127
    },
    {
      "midi": 61,
      "hit": false,
      "t": 16500,
      "d": 500,
      "v": 127
    },
    {
      "midi": 64,
      "hit": false,
      "t": 16500,
      "d": 500,
      "v": 127
    },
    {
      "midi": 57,
      "hit": false,
      "t": 17000,
      "d": 500,
      "v": 127
    },
    {
      "midi": 61,
      "hit": false,
      "t": 17500,
      "d": 500,
      "v": 127
    },
    {
      "midi": 64,
      "hit": false,
      "t": 17500,
      "d": 500,
      "v": 127
    },
    {
      "midi": 57,
      "hit": false,
      "t": 18000,
      "d": 500,
      "v": 127
    },
    {
      "midi": 61,
      "hit": false,
      "t": 18500,
      "d": 500,
      "v": 127
    },
    {
      "midi": 64,
      "hit": false,
      "t": 18500,
      "d": 500,
      "v": 127
    },
    {
      "midi": 57,
      "hit": false,
      "t": 19000,
      "d": 500,
      "v": 127
    },
    {
      "midi": 61,
      "hit": false,
      "t": 19500,
      "d": 500,
      "v": 127
    },
    {
      "midi": 64,
      "hit": false,
      "t": 19500,
      "d": 500,
      "v": 127
    },
    {
      "midi": 76,
      "hit": false,
      "t": 20000,
      "d": 3000,
      "v": 127
    },
    {
      "midi": 57,
      "hit": false,
      "t": 20000,
      "d": 500,
      "v": 127
    },
    {
      "midi": 61,
      "hit": false,
      "t": 20500,
      "d": 500,
      "v": 127
    },
    {
      "midi": 64,
      "hit": false,
      "t": 20500,
      "d": 500,
      "v": 127
    },
    {
      "midi": 57,
      "hit": false,
      "t": 21000,
      "d": 500,
      "v": 127
    },
    {
      "midi": 61,
      "hit": false,
      "t": 21500,
      "d": 500,
      "v": 127
    },
    {
      "midi": 64,
      "hit": false,
      "t": 21500,
      "d": 500,
      "v": 127
    },
    {
      "midi": 57,
      "hit": false,
      "t": 22000,
      "d": 500,
      "v": 127
    },
    {
      "midi": 61,
      "hit": false,
      "t": 22500,
      "d": 500,
      "v": 127
    },
    {
      "midi": 64,
      "hit": false,
      "t": 22500,
      "d": 500,
      "v": 127
    },
    {
      "midi": 85,
      "hit": false,
      "t": 23000,
      "d": 500,
      "v": 127
    },
    {
      "midi": 57,
      "hit": false,
      "t": 23000,
      "d": 500,
      "v": 127
    },
    {
      "midi": 83,
      "hit": false,
      "t": 23500,
      "d": 500,
      "v": 127
    },
    {
      "midi": 61,
      "hit": false,
      "t": 23500,
      "d": 500,
      "v": 127
    },
    {
      "midi": 64,
      "hit": false,
      "t": 23500,
      "d": 500,
      "v": 127
    },
    {
      "midi": 81,
      "hit": false,
      "t": 24000,
      "d": 1000,
      "v": 127
    },
    {
      "midi": 57,
      "hit": false,
      "t": 24000,
      "d": 500,
      "v": 127
    },
    {
      "midi": 61,
      "hit": false,
      "t": 24500,
      "d": 500,
      "v": 127
    },
    {
      "midi": 64,
      "hit": false,
      "t": 24500,
      "d": 500,
      "v": 127
    },
    {
      "midi": 85,
      "hit": false,
      "t": 25000,
      "d": 500,
      "v": 127
    },
    {
      "midi": 57,
      "hit": false,
      "t": 25000,
      "d": 500,
      "v": 127
    },
    {
      "midi": 90,
      "hit": false,
      "t": 25500,
      "d": 500,
      "v": 127
    },
    {
      "midi": 61,
      "hit": false,
      "t": 25500,
      "d": 500,
      "v": 127
    },
    {
      "midi": 64,
      "hit": false,
      "t": 25500,
      "d": 500,
      "v": 127
    },
    {
      "midi": 88,
      "hit": false,
      "t": 26000,
      "d": 1000,
      "v": 127
    },
    {
      "midi": 57,
      "hit": false,
      "t": 26000,
      "d": 500,
      "v": 127
    },
    {
      "midi": 61,
      "hit": false,
      "t": 26500,
      "d": 500,
      "v": 127
    },
    {
      "midi": 64,
      "hit": false,
      "t": 26500,
      "d": 500,
      "v": 127
    },
    {
      "midi": 93,
      "hit": false,
      "t": 27000,
      "d": 1000,
      "v": 127
    },
    {
      "midi": 57,
      "hit": false,
      "t": 27000,
      "d": 500,
      "v": 127
    },
    {
      "midi": 61,
      "hit": false,
      "t": 27500,
      "d": 500,
      "v": 127
    },
    {
      "midi": 64,
      "hit": false,
      "t": 27500,
      "d": 500,
      "v": 127
    },
    {
      "midi": 92,
      "hit": false,
      "t": 28000,
      "d": 500,
      "v": 127
    },
    {
      "midi": 52,
      "hit": false,
      "t": 28000,
      "d": 500,
      "v": 127
    },
    {
      "midi": 88,
      "hit": false,
      "t": 28500,
      "d": 500,
      "v": 127
    },
    {
      "midi": 56,
      "hit": false,
      "t": 28500,
      "d": 500,
      "v": 127
    },
    {
      "midi": 59,
      "hit": false,
      "t": 28500,
      "d": 500,
      "v": 127
    },
    {
      "midi": 64,
      "hit": false,
      "t": 28500,
      "d": 500,
      "v": 127
    },
    {
      "midi": 90,
      "hit": false,
      "t": 29000,
      "d": 1000,
      "v": 127
    },
    {
      "midi": 92,
      "hit": false,
      "t": 29000,
      "d": 1000,
      "v": 127
    },
    {
      "midi": 52,
      "hit": false,
      "t": 29000,
      "d": 500,
      "v": 127
    },
    {
      "midi": 56,
      "hit": false,
      "t": 29500,
      "d": 500,
      "v": 127
    },
    {
      "midi": 59,
      "hit": false,
      "t": 29500,
      "d": 500,
      "v": 127
    },
    {
      "midi": 64,
      "hit": false,
      "t": 29500,
      "d": 500,
      "v": 127
    },
    {
      "midi": 88,
      "hit": false,
      "t": 30000,
      "d": 500,
      "v": 127
    },
    {
      "midi": 52,
      "hit": false,
      "t": 30000,
      "d": 500,
      "v": 127
    },
    {
      "midi": 85,
      "hit": false,
      "t": 30500,
      "d": 500,
      "v": 127
    },
    {
      "midi": 56,
      "hit": false,
      "t": 30500,
      "d": 500,
      "v": 127
    },
    {
      "midi": 59,
      "hit": false,
      "t": 30500,
      "d": 500,
      "v": 127
    },
    {
      "midi": 64,
      "hit": false,
      "t": 30500,
      "d": 500,
      "v": 127
    },
    {
      "midi": 86,
      "hit": false,
      "t": 31000,
      "d": 1000,
      "v": 127
    },
    {
      "midi": 88,
      "hit": false,
      "t": 31000,
      "d": 1000,
      "v": 127
    },
    {
      "midi": 52,
      "hit": false,
      "t": 31000,
      "d": 500,
      "v": 127
    },
    {
      "midi": 56,
      "hit": false,
      "t": 31500,
      "d": 500,
      "v": 127
    },
    {
      "midi": 59,
      "hit": false,
      "t": 31500,
      "d": 500,
      "v": 127
    },
    {
      "midi": 64,
      "hit": false,
      "t": 31500,
      "d": 500,
      "v": 127
    },
    {
      "midi": 85,
      "hit": false,
      "t": 32000,
      "d": 500,
      "v": 127
    },
    {
      "midi": 57,
      "hit": false,
      "t": 32000,
      "d": 500,
      "v": 127
    },
    {
      "midi": 81,
      "hit": false,
      "t": 32500,
      "d": 500,
      "v": 127
    },
    {
      "midi": 61,
      "hit": false,
      "t": 32500,
      "d": 500,
      "v": 127
    },
    {
      "midi": 64,
      "hit": false,
      "t": 32500,
      "d": 500,
      "v": 127
    },
    {
      "midi": 83,
      "hit": false,
      "t": 33000,
      "d": 500,
      "v": 127
    },
    {
      "midi": 52,
      "hit": false,
      "t": 33000,
      "d": 500,
      "v": 127
    },
    {
      "midi": 76,
      "hit": false,
      "t": 33500,
      "d": 500,
      "v": 127
    },
    {
      "midi": 56,
      "hit": false,
      "t": 33500,
      "d": 500,
      "v": 127
    },
    {
      "midi": 59,
      "hit": false,
      "t": 33500,
      "d": 500,
      "v": 127
    },
    {
      "midi": 64,
      "hit": false,
      "t": 33500,
      "d": 500,
      "v": 127
    },
    {
      "midi": 81,
      "hit": false,
      "t": 34000,
      "d": 1000,
      "v": 127
    },
    {
      "midi": 57,
      "hit": false,
      "t": 34000,
      "d": 500,
      "v": 127
    },
    {
      "midi": 61,
      "hit": false,
      "t": 34500,
      "d": 500,
      "v": 127
    },
    {
      "midi": 64,
      "hit": false,
      "t": 34500,
      "d": 500,
      "v": 127
    },
    {
      "midi": 57,
      "hit": false,
      "t": 35000,
      "d": 500,
      "v": 127
    },
    {
      "midi": 61,
      "hit": false,
      "t": 35500,
      "d": 500,
      "v": 127
    },
    {
      "midi": 64,
      "hit": false,
      "t": 35500,
      "d": 500,
      "v": 127
    },
    {
      "midi": 76,
      "hit": false,
      "t": 36000,
      "d": 3000,
      "v": 127
    },
    {
      "midi": 57,
      "hit": false,
      "t": 36000,
      "d": 500,
      "v": 127
    },
    {
      "midi": 61,
      "hit": false,
      "t": 36500,
      "d": 500,
      "v": 127
    },
    {
      "midi": 64,
      "hit": false,
      "t": 36500,
      "d": 500,
      "v": 127
    },
    {
      "midi": 57,
      "hit": false,
      "t": 37000,
      "d": 500,
      "v": 127
    },
    {
      "midi": 61,
      "hit": false,
      "t": 37500,
      "d": 500,
      "v": 127
    },
    {
      "midi": 64,
      "hit": false,
      "t": 37500,
      "d": 500,
      "v": 127
    },
    {
      "midi": 57,
      "hit": false,
      "t": 38000,
      "d": 500,
      "v": 127
    },
    {
      "midi": 61,
      "hit": false,
      "t": 38500,
      "d": 500,
      "v": 127
    },
    {
      "midi": 64,
      "hit": false,
      "t": 38500,
      "d": 500,
      "v": 127
    },
    {
      "midi": 85,
      "hit": false,
      "t": 39000,
      "d": 500,
      "v": 127
    },
    {
      "midi": 57,
      "hit": false,
      "t": 39000,
      "d": 500,
      "v": 127
    },
    {
      "midi": 83,
      "hit": false,
      "t": 39500,
      "d": 500,
      "v": 127
    },
    {
      "midi": 61,
      "hit": false,
      "t": 39500,
      "d": 500,
      "v": 127
    },
    {
      "midi": 64,
      "hit": false,
      "t": 39500,
      "d": 500,
      "v": 127
    },
    {
      "midi": 81,
      "hit": false,
      "t": 40000,
      "d": 1000,
      "v": 127
    },
    {
      "midi": 57,
      "hit": false,
      "t": 40000,
      "d": 500,
      "v": 127
    },
    {
      "midi": 61,
      "hit": false,
      "t": 40500,
      "d": 500,
      "v": 127
    },
    {
      "midi": 64,
      "hit": false,
      "t": 40500,
      "d": 500,
      "v": 127
    },
    {
      "midi": 85,
      "hit": false,
      "t": 41000,
      "d": 500,
      "v": 127
    },
    {
      "midi": 57,
      "hit": false,
      "t": 41000,
      "d": 500,
      "v": 127
    },
    {
      "midi": 90,
      "hit": false,
      "t": 41500,
      "d": 500,
      "v": 127
    },
    {
      "midi": 61,
      "hit": false,
      "t": 41500,
      "d": 500,
      "v": 127
    },
    {
      "midi": 64,
      "hit": false,
      "t": 41500,
      "d": 500,
      "v": 127
    },
    {
      "midi": 88,
      "hit": false,
      "t": 42000,
      "d": 1000,
      "v": 127
    },
    {
      "midi": 57,
      "hit": false,
      "t": 42000,
      "d": 500,
      "v": 127
    },
    {
      "midi": 61,
      "hit": false,
      "t": 42500,
      "d": 500,
      "v": 127
    },
    {
      "midi": 64,
      "hit": false,
      "t": 42500,
      "d": 500,
      "v": 127
    },
    {
      "midi": 93,
      "hit": false,
      "t": 43000,
      "d": 1000,
      "v": 127
    },
    {
      "midi": 57,
      "hit": false,
      "t": 43000,
      "d": 500,
      "v": 127
    },
    {
      "midi": 61,
      "hit": false,
      "t": 43500,
      "d": 500,
      "v": 127
    },
    {
      "midi": 64,
      "hit": false,
      "t": 43500,
      "d": 500,
      "v": 127
    },
    {
      "midi": 92,
      "hit": false,
      "t": 44000,
      "d": 500,
      "v": 127
    },
    {
      "midi": 52,
      "hit": false,
      "t": 44000,
      "d": 500,
      "v": 127
    },
    {
      "midi": 88,
      "hit": false,
      "t": 44500,
      "d": 500,
      "v": 127
    },
    {
      "midi": 56,
      "hit": false,
      "t": 44500,
      "d": 500,
      "v": 127
    },
    {
      "midi": 59,
      "hit": false,
      "t": 44500,
      "d": 500,
      "v": 127
    },
    {
      "midi": 64,
      "hit": false,
      "t": 44500,
      "d": 500,
      "v": 127
    },
    {
      "midi": 90,
      "hit": false,
      "t": 45000,
      "d": 1000,
      "v": 127
    },
    {
      "midi": 92,
      "hit": false,
      "t": 45000,
      "d": 1000,
      "v": 127
    },
    {
      "midi": 52,
      "hit": false,
      "t": 45000,
      "d": 500,
      "v": 127
    },
    {
      "midi": 56,
      "hit": false,
      "t": 45500,
      "d": 500,
      "v": 127
    },
    {
      "midi": 59,
      "hit": false,
      "t": 45500,
      "d": 500,
      "v": 127
    },
    {
      "midi": 64,
      "hit": false,
      "t": 45500,
      "d": 500,
      "v": 127
    },
    {
      "midi": 88,
      "hit": false,
      "t": 46000,
      "d": 500,
      "v": 127
    },
    {
      "midi": 52,
      "hit": false,
      "t": 46000,
      "d": 500,
      "v": 127
    },
    {
      "midi": 85,
      "hit": false,
      "t": 46500,
      "d": 500,
      "v": 127
    },
    {
      "midi": 56,
      "hit": false,
      "t": 46500,
      "d": 500,
      "v": 127
    },
    {
      "midi": 59,
      "hit": false,
      "t": 46500,
      "d": 500,
      "v": 127
    },
    {
      "midi": 64,
      "hit": false,
      "t": 46500,
      "d": 500,
      "v": 127
    },
    {
      "midi": 86,
      "hit": false,
      "t": 47000,
      "d": 1000,
      "v": 127
    },
    {
      "midi": 88,
      "hit": false,
      "t": 47000,
      "d": 1000,
      "v": 127
    },
    {
      "midi": 52,
      "hit": false,
      "t": 47000,
      "d": 500,
      "v": 127
    },
    {
      "midi": 56,
      "hit": false,
      "t": 47500,
      "d": 500,
      "v": 127
    },
    {
      "midi": 59,
      "hit": false,
      "t": 47500,
      "d": 500,
      "v": 127
    },
    {
      "midi": 64,
      "hit": false,
      "t": 47500,
      "d": 500,
      "v": 127
    },
    {
      "midi": 85,
      "hit": false,
      "t": 48000,
      "d": 500,
      "v": 127
    },
    {
      "midi": 57,
      "hit": false,
      "t": 48000,
      "d": 500,
      "v": 127
    },
    {
      "midi": 88,
      "hit": false,
      "t": 48500,
      "d": 500,
      "v": 127
    },
    {
      "midi": 61,
      "hit": false,
      "t": 48500,
      "d": 500,
      "v": 127
    },
    {
      "midi": 64,
      "hit": false,
      "t": 48500,
      "d": 500,
      "v": 127
    },
    {
      "midi": 83,
      "hit": false,
      "t": 49000,
      "d": 500,
      "v": 127
    },
    {
      "midi": 52,
      "hit": false,
      "t": 49000,
      "d": 500,
      "v": 127
    },
    {
      "midi": 88,
      "hit": false,
      "t": 49500,
      "d": 500,
      "v": 127
    },
    {
      "midi": 56,
      "hit": false,
      "t": 49500,
      "d": 500,
      "v": 127
    },
    {
      "midi": 59,
      "hit": false,
      "t": 49500,
      "d": 500,
      "v": 127
    },
    {
      "midi": 64,
      "hit": false,
      "t": 49500,
      "d": 500,
      "v": 127
    },
    {
      "midi": 81,
      "hit": false,
      "t": 50000,
      "d": 1000,
      "v": 127
    },
    {
      "midi": 57,
      "hit": false,
      "t": 50000,
      "d": 500,
      "v": 127
    },
    {
      "midi": 61,
      "hit": false,
      "t": 50500,
      "d": 500,
      "v": 127
    },
    {
      "midi": 64,
      "hit": false,
      "t": 50500,
      "d": 500,
      "v": 127
    },
    {
      "midi": 57,
      "hit": false,
      "t": 51000,
      "d": 500,
      "v": 127
    },
    {
      "midi": 61,
      "hit": false,
      "t": 51500,
      "d": 500,
      "v": 127
    },
    {
      "midi": 64,
      "hit": false,
      "t": 51500,
      "d": 500,
      "v": 127
    },
    {
      "midi": 85,
      "hit": false,
      "t": 52000,
      "d": 3000,
      "v": 127
    },
    {
      "midi": 54,
      "hit": false,
      "t": 52000,
      "d": 500,
      "v": 127
    },
    {
      "midi": 57,
      "hit": false,
      "t": 52500,
      "d": 500,
      "v": 127
    },
    {
      "midi": 61,
      "hit": false,
      "t": 52500,
      "d": 500,
      "v": 127
    },
    {
      "midi": 66,
      "hit": false,
      "t": 52500,
      "d": 500,
      "v": 127
    },
    {
      "midi": 54,
      "hit": false,
      "t": 53000,
      "d": 500,
      "v": 127
    },
    {
      "midi": 57,
      "hit": false,
      "t": 53500,
      "d": 500,
      "v": 127
    },
    {
      "midi": 61,
      "hit": false,
      "t": 53500,
      "d": 500,
      "v": 127
    },
    {
      "midi": 66,
      "hit": false,
      "t": 53500,
      "d": 500,
      "v": 127
    },
    {
      "midi": 54,
      "hit": false,
      "t": 54000,
      "d": 500,
      "v": 127
    },
    {
      "midi": 57,
      "hit": false,
      "t": 54500,
      "d": 500,
      "v": 127
    },
    {
      "midi": 61,
      "hit": false,
      "t": 54500,
      "d": 500,
      "v": 127
    },
    {
      "midi": 66,
      "hit": false,
      "t": 54500,
      "d": 500,
      "v": 127
    },
    {
      "midi": 90,
      "hit": false,
      "t": 55000,
      "d": 500,
      "v": 127
    },
    {
      "midi": 54,
      "hit": false,
      "t": 55000,
      "d": 500,
      "v": 127
    },
    {
      "midi": 88,
      "hit": false,
      "t": 55500,
      "d": 500,
      "v": 127
    },
    {
      "midi": 57,
      "hit": false,
      "t": 55500,
      "d": 500,
      "v": 127
    },
    {
      "midi": 61,
      "hit": false,
      "t": 55500,
      "d": 500,
      "v": 127
    },
    {
      "midi": 66,
      "hit": false,
      "t": 55500,
      "d": 500,
      "v": 127
    },
    {
      "midi": 86,
      "hit": false,
      "t": 56000,
      "d": 1000,
      "v": 127
    },
    {
      "midi": 59,
      "hit": false,
      "t": 56000,
      "d": 500,
      "v": 127
    },
    {
      "midi": 62,
      "hit": false,
      "t": 56500,
      "d": 500,
      "v": 127
    },
    {
      "midi": 66,
      "hit": false,
      "t": 56500,
      "d": 500,
      "v": 127
    },
    {
      "midi": 85,
      "hit": false,
      "t": 57000,
      "d": 500,
      "v": 127
    },
    {
      "midi": 59,
      "hit": false,
      "t": 57000,
      "d": 500,
      "v": 127
    },
    {
      "midi": 83,
      "hit": false,
      "t": 57500,
      "d": 500,
      "v": 127
    },
    {
      "midi": 62,
      "hit": false,
      "t": 57500,
      "d": 500,
      "v": 127
    },
    {
      "midi": 66,
      "hit": false,
      "t": 57500,
      "d": 500,
      "v": 127
    },
    {
      "midi": 81,
      "hit": false,
      "t": 58000,
      "d": 1000,
      "v": 127
    },
    {
      "midi": 60,
      "hit": false,
      "t": 58000,
      "d": 500,
      "v": 127
    },
    {
      "midi": 63,
      "hit": false,
      "t": 58500,
      "d": 500,
      "v": 127
    },
    {
      "midi": 69,
      "hit": false,
      "t": 58500,
      "d": 500,
      "v": 127
    },
    {
      "midi": 80,
      "hit": false,
      "t": 59000,
      "d": 500,
      "v": 127
    },
    {
      "midi": 60,
      "hit": false,
      "t": 59000,
      "d": 500,
      "v": 127
    },
    {
      "midi": 78,
      "hit": false,
      "t": 59500,
      "d": 500,
      "v": 127
    },
    {
      "midi": 63,
      "hit": false,
      "t": 59500,
      "d": 500,
      "v": 127
    },
    {
      "midi": 69,
      "hit": false,
      "t": 59500,
      "d": 500,
      "v": 127
    },
    {
      "midi": 80,
      "hit": false,
      "t": 60000,
      "d": 500,
      "v": 127
    },
    {
      "midi": 81,
      "hit": false,
      "t": 60000,
      "d": 500,
      "v": 127
    },
    {
      "midi": 61,
      "hit": false,
      "t": 60000,
      "d": 500,
      "v": 127
    },
    {
      "midi": 79,
      "hit": false,
      "t": 60500,
      "d": 500,
      "v": 127
    },
    {
      "midi": 65,
      "hit": false,
      "t": 60500,
      "d": 500,
      "v": 127
    },
    {
      "midi": 68,
      "hit": false,
      "t": 60500,
      "d": 500,
      "v": 127
    },
    {
      "midi": 80,
      "hit": false,
      "t": 61000,
      "d": 500,
      "v": 127
    },
    {
      "midi": 61,
      "hit": false,
      "t": 61000,
      "d": 500,
      "v": 127
    },
    {
      "midi": 79,
      "hit": false,
      "t": 61500,
      "d": 500,
      "v": 127
    },
    {
      "midi": 65,
      "hit": false,
      "t": 61500,
      "d": 500,
      "v": 127
    },
    {
      "midi": 68,
      "hit": false,
      "t": 61500,
      "d": 500,
      "v": 127
    },
    {
      "midi": 80,
      "hit": false,
      "t": 62000,
      "d": 500,
      "v": 127
    },
    {
      "midi": 61,
      "hit": false,
      "t": 62000,
      "d": 500,
      "v": 127
    },
    {
      "midi": 81,
      "hit": false,
      "t": 62500,
      "d": 500,
      "v": 127
    },
    {
      "midi": 65,
      "hit": false,
      "t": 62500,
      "d": 500,
      "v": 127
    },
    {
      "midi": 68,
      "hit": false,
      "t": 62500,
      "d": 500,
      "v": 127
    },
    {
      "midi": 83,
      "hit": false,
      "t": 63000,
      "d": 500,
      "v": 127
    },
    {
      "midi": 61,
      "hit": false,
      "t": 63000,
      "d": 500,
      "v": 127
    },
    {
      "midi": 85,
      "hit": false,
      "t": 63500,
      "d": 500,
      "v": 127
    },
    {
      "midi": 65,
      "hit": false,
      "t": 63500,
      "d": 500,
      "v": 127
    },
    {
      "midi": 68,
      "hit": false,
      "t": 63500,
      "d": 500,
      "v": 127
    },
    {
      "midi": 85,
      "hit": false,
      "t": 64000,
      "d": 250,
      "v": 127
    },
    {
      "midi": 54,
      "hit": false,
      "t": 64000,
      "d": 500,
      "v": 127
    },
    {
      "midi": 83,
      "hit": false,
      "t": 64250,
      "d": 250,
      "v": 127
    },
    {
      "midi": 81,
      "hit": false,
      "t": 64500,
      "d": 250,
      "v": 127
    },
    {
      "midi": 57,
      "hit": false,
      "t": 64500,
      "d": 500,
      "v": 127
    },
    {
      "midi": 61,
      "hit": false,
      "t": 64500,
      "d": 500,
      "v": 127
    },
    {
      "midi": 66,
      "hit": false,
      "t": 64500,
      "d": 500,
      "v": 127
    },
    {
      "midi": 80,
      "hit": false,
      "t": 64750,
      "d": 250,
      "v": 127
    },
    {
      "midi": 78,
      "hit": false,
      "t": 65000,
      "d": 1000,
      "v": 127
    },
    {
      "midi": 54,
      "hit": false,
      "t": 65000,
      "d": 500,
      "v": 127
    },
    {
      "midi": 57,
      "hit": false,
      "t": 65500,
      "d": 500,
      "v": 127
    },
    {
      "midi": 61,
      "hit": false,
      "t": 65500,
      "d": 500,
      "v": 127
    },
    {
      "midi": 66,
      "hit": false,
      "t": 65500,
      "d": 500,
      "v": 127
    },
    {
      "midi": 54,
      "hit": false,
      "t": 66000,
      "d": 500,
      "v": 127
    },
    {
      "midi": 57,
      "hit": false,
      "t": 66500,
      "d": 500,
      "v": 127
    },
    {
      "midi": 61,
      "hit": false,
      "t": 66500,
      "d": 500,
      "v": 127
    },
    {
      "midi": 66,
      "hit": false,
      "t": 66500,
      "d": 500,
      "v": 127
    },
    {
      "midi": 54,
      "hit": false,
      "t": 67000,
      "d": 500,
      "v": 127
    },
    {
      "midi": 57,
      "hit": false,
      "t": 67500,
      "d": 500,
      "v": 127
    },
    {
      "midi": 61,
      "hit": false,
      "t": 67500,
      "d": 500,
      "v": 127
    },
    {
      "midi": 66,
      "hit": false,
      "t": 67500,
      "d": 500,
      "v": 127
    },
    {
      "midi": 85,
      "hit": false,
      "t": 68000,
      "d": 3000,
      "v": 127
    },
    {
      "midi": 54,
      "hit": false,
      "t": 68000,
      "d": 500,
      "v": 127
    },
    {
      "midi": 57,
      "hit": false,
      "t": 68500,
      "d": 500,
      "v": 127
    },
    {
      "midi": 61,
      "hit": false,
      "t": 68500,
      "d": 500,
      "v": 127
    },
    {
      "midi": 66,
      "hit": false,
      "t": 68500,
      "d": 500,
      "v": 127
    },
    {
      "midi": 54,
      "hit": false,
      "t": 69000,
      "d": 500,
      "v": 127
    },
    {
      "midi": 57,
      "hit": false,
      "t": 69500,
      "d": 500,
      "v": 127
    },
    {
      "midi": 61,
      "hit": false,
      "t": 69500,
      "d": 500,
      "v": 127
    },
    {
      "midi": 66,
      "hit": false,
      "t": 69500,
      "d": 500,
      "v": 127
    },
    {
      "midi": 54,
      "hit": false,
      "t": 70000,
      "d": 500,
      "v": 127
    },
    {
      "midi": 57,
      "hit": false,
      "t": 70500,
      "d": 500,
      "v": 127
    },
    {
      "midi": 61,
      "hit": false,
      "t": 70500,
      "d": 500,
      "v": 127
    },
    {
      "midi": 66,
      "hit": false,
      "t": 70500,
      "d": 500,
      "v": 127
    },
    {
      "midi": 90,
      "hit": false,
      "t": 71000,
      "d": 500,
      "v": 127
    },
    {
      "midi": 54,
      "hit": false,
      "t": 71000,
      "d": 500,
      "v": 127
    },
    {
      "midi": 88,
      "hit": false,
      "t": 71500,
      "d": 500,
      "v": 127
    },
    {
      "midi": 57,
      "hit": false,
      "t": 71500,
      "d": 500,
      "v": 127
    },
    {
      "midi": 61,
      "hit": false,
      "t": 71500,
      "d": 500,
      "v": 127
    },
    {
      "midi": 66,
      "hit": false,
      "t": 71500,
      "d": 500,
      "v": 127
    },
    {
      "midi": 86,
      "hit": false,
      "t": 72000,
      "d": 1000,
      "v": 127
    },
    {
      "midi": 59,
      "hit": false,
      "t": 72000,
      "d": 500,
      "v": 127
    },
    {
      "midi": 62,
      "hit": false,
      "t": 72500,
      "d": 500,
      "v": 127
    },
    {
      "midi": 66,
      "hit": false,
      "t": 72500,
      "d": 500,
      "v": 127
    },
    {
      "midi": 85,
      "hit": false,
      "t": 73000,
      "d": 500,
      "v": 127
    },
    {
      "midi": 59,
      "hit": false,
      "t": 73000,
      "d": 500,
      "v": 127
    },
    {
      "midi": 83,
      "hit": false,
      "t": 73500,
      "d": 500,
      "v": 127
    },
    {
      "midi": 62,
      "hit": false,
      "t": 73500,
      "d": 500,
      "v": 127
    },
    {
      "midi": 66,
      "hit": false,
      "t": 73500,
      "d": 500,
      "v": 127
    },
    {
      "midi": 81,
      "hit": false,
      "t": 74000,
      "d": 1000,
      "v": 127
    },
    {
      "midi": 60,
      "hit": false,
      "t": 74000,
      "d": 500,
      "v": 127
    },
    {
      "midi": 63,
      "hit": false,
      "t": 74500,
      "d": 500,
      "v": 127
    },
    {
      "midi": 69,
      "hit": false,
      "t": 74500,
      "d": 500,
      "v": 127
    },
    {
      "midi": 80,
      "hit": false,
      "t": 75000,
      "d": 500,
      "v": 127
    },
    {
      "midi": 60,
      "hit": false,
      "t": 75000,
      "d": 500,
      "v": 127
    },
    {
      "midi": 78,
      "hit": false,
      "t": 75500,
      "d": 500,
      "v": 127
    },
    {
      "midi": 63,
      "hit": false,
      "t": 75500,
      "d": 500,
      "v": 127
    },
    {
      "midi": 69,
      "hit": false,
      "t": 75500,
      "d": 500,
      "v": 127
    },
    {
      "midi": 80,
      "hit": false,
      "t": 76000,
      "d": 500,
      "v": 127
    },
    {
      "midi": 81,
      "hit": false,
      "t": 76000,
      "d": 500,
      "v": 127
    },
    {
      "midi": 61,
      "hit": false,
      "t": 76000,
      "d": 500,
      "v": 127
    },
    {
      "midi": 79,
      "hit": false,
      "t": 76500,
      "d": 500,
      "v": 127
    },
    {
      "midi": 65,
      "hit": false,
      "t": 76500,
      "d": 500,
      "v": 127
    },
    {
      "midi": 68,
      "hit": false,
      "t": 76500,
      "d": 500,
      "v": 127
    },
    {
      "midi": 80,
      "hit": false,
      "t": 77000,
      "d": 500,
      "v": 127
    },
    {
      "midi": 61,
      "hit": false,
      "t": 77000,
      "d": 500,
      "v": 127
    },
    {
      "midi": 79,
      "hit": false,
      "t": 77500,
      "d": 500,
      "v": 127
    },
    {
      "midi": 65,
      "hit": false,
      "t": 77500,
      "d": 500,
      "v": 127
    },
    {
      "midi": 68,
      "hit": false,
      "t": 77500,
      "d": 500,
      "v": 127
    },
    {
      "midi": 80,
      "hit": false,
      "t": 78000,
      "d": 500,
      "v": 127
    },
    {
      "midi": 61,
      "hit": false,
      "t": 78000,
      "d": 500,
      "v": 127
    },
    {
      "midi": 81,
      "hit": false,
      "t": 78500,
      "d": 500,
      "v": 127
    },
    {
      "midi": 65,
      "hit": false,
      "t": 78500,
      "d": 500,
      "v": 127
    },
    {
      "midi": 68,
      "hit": false,
      "t": 78500,
      "d": 500,
      "v": 127
    },
    {
      "midi": 83,
      "hit": false,
      "t": 79000,
      "d": 500,
      "v": 127
    },
    {
      "midi": 61,
      "hit": false,
      "t": 79000,
      "d": 500,
      "v": 127
    },
    {
      "midi": 85,
      "hit": false,
      "t": 79500,
      "d": 500,
      "v": 127
    },
    {
      "midi": 65,
      "hit": false,
      "t": 79500,
      "d": 500,
      "v": 127
    },
    {
      "midi": 68,
      "hit": false,
      "t": 79500,
      "d": 500,
      "v": 127
    },
    {
      "midi": 85,
      "hit": false,
      "t": 80000,
      "d": 250,
      "v": 127
    },
    {
      "midi": 54,
      "hit": false,
      "t": 80000,
      "d": 500,
      "v": 127
    },
    {
      "midi": 83,
      "hit": false,
      "t": 80250,
      "d": 250,
      "v": 127
    },
    {
      "midi": 81,
      "hit": false,
      "t": 80500,
      "d": 250,
      "v": 127
    },
    {
      "midi": 57,
      "hit": false,
      "t": 80500,
      "d": 500,
      "v": 127
    },
    {
      "midi": 61,
      "hit": false,
      "t": 80500,
      "d": 500,
      "v": 127
    },
    {
      "midi": 66,
      "hit": false,
      "t": 80500,
      "d": 500,
      "v": 127
    },
    {
      "midi": 80,
      "hit": false,
      "t": 80750,
      "d": 250,
      "v": 127
    },
    {
      "midi": 78,
      "hit": false,
      "t": 81000,
      "d": 2000,
      "v": 127
    },
    {
      "midi": 54,
      "hit": false,
      "t": 81000,
      "d": 500,
      "v": 127
    },
    {
      "midi": 57,
      "hit": false,
      "t": 81500,
      "d": 500,
      "v": 127
    },
    {
      "midi": 61,
      "hit": false,
      "t": 81500,
      "d": 500,
      "v": 127
    },
    {
      "midi": 66,
      "hit": false,
      "t": 81500,
      "d": 500,
      "v": 127
    },
    {
      "midi": 54,
      "hit": false,
      "t": 82000,
      "d": 500,
      "v": 127
    },
    {
      "midi": 57,
      "hit": false,
      "t": 82500,
      "d": 500,
      "v": 127
    },
    {
      "midi": 61,
      "hit": false,
      "t": 82500,
      "d": 500,
      "v": 127
    },
    {
      "midi": 66,
      "hit": false,
      "t": 82500,
      "d": 500,
      "v": 127
    },
    {
      "midi": 77,
      "hit": false,
      "t": 83000,
      "d": 1000,
      "v": 127
    },
    {
      "midi": 42,
      "hit": false,
      "t": 83000,
      "d": 500,
      "v": 127
    },
    {
      "midi": 56,
      "hit": false,
      "t": 83000,
      "d": 500,
      "v": 127
    },
    {
      "midi": 59,
      "hit": false,
      "t": 83500,
      "d": 500,
      "v": 127
    },
    {
      "midi": 62,
      "hit": false,
      "t": 83500,
      "d": 500,
      "v": 127
    },
    {
      "midi": 76,
      "hit": false,
      "t": 84000,
      "d": 3000,
      "v": 127
    },
    {
      "midi": 45,
      "hit": false,
      "t": 84000,
      "d": 500,
      "v": 127
    },
    {
      "midi": 49,
      "hit": false,
      "t": 84500,
      "d": 500,
      "v": 127
    },
    {
      "midi": 52,
      "hit": false,
      "t": 84500,
      "d": 500,
      "v": 127
    },
    {
      "midi": 57,
      "hit": false,
      "t": 84500,
      "d": 500,
      "v": 127
    },
    {
      "midi": 45,
      "hit": false,
      "t": 85000,
      "d": 500,
      "v": 127
    },
    {
      "midi": 49,
      "hit": false,
      "t": 85500,
      "d": 500,
      "v": 127
    },
    {
      "midi": 52,
      "hit": false,
      "t": 85500,
      "d": 500,
      "v": 127
    },
    {
      "midi": 57,
      "hit": false,
      "t": 85500,
      "d": 500,
      "v": 127
    },
    {
      "midi": 45,
      "hit": false,
      "t": 86000,
      "d": 500,
      "v": 127
    },
    {
      "midi": 49,
      "hit": false,
      "t": 86500,
      "d": 500,
      "v": 127
    },
    {
      "midi": 52,
      "hit": false,
      "t": 86500,
      "d": 500,
      "v": 127
    },
    {
      "midi": 57,
      "hit": false,
      "t": 86500,
      "d": 500,
      "v": 127
    },
    {
      "midi": 85,
      "hit": false,
      "t": 87000,
      "d": 500,
      "v": 127
    },
    {
      "midi": 45,
      "hit": false,
      "t": 87000,
      "d": 500,
      "v": 127
    },
    {
      "midi": 83,
      "hit": false,
      "t": 87500,
      "d": 500,
      "v": 127
    },
    {
      "midi": 49,
      "hit": false,
      "t": 87500,
      "d": 500,
      "v": 127
    },
    {
      "midi": 52,
      "hit": false,
      "t": 87500,
      "d": 500,
      "v": 127
    },
    {
      "midi": 57,
      "hit": false,
      "t": 87500,
      "d": 500,
      "v": 127
    },
    {
      "midi": 81,
      "hit": false,
      "t": 88000,
      "d": 1000,
      "v": 127
    },
    {
      "midi": 45,
      "hit": false,
      "t": 88000,
      "d": 500,
      "v": 127
    },
    {
      "midi": 49,
      "hit": false,
      "t": 88500,
      "d": 500,
      "v": 127
    },
    {
      "midi": 52,
      "hit": false,
      "t": 88500,
      "d": 500,
      "v": 127
    },
    {
      "midi": 57,
      "hit": false,
      "t": 88500,
      "d": 500,
      "v": 127
    },
    {
      "midi": 85,
      "hit": false,
      "t": 89000,
      "d": 500,
      "v": 127
    },
    {
      "midi": 45,
      "hit": false,
      "t": 89000,
      "d": 500,
      "v": 127
    },
    {
      "midi": 90,
      "hit": false,
      "t": 89500,
      "d": 500,
      "v": 127
    },
    {
      "midi": 49,
      "hit": false,
      "t": 89500,
      "d": 500,
      "v": 127
    },
    {
      "midi": 52,
      "hit": false,
      "t": 89500,
      "d": 500,
      "v": 127
    },
    {
      "midi": 57,
      "hit": false,
      "t": 89500,
      "d": 500,
      "v": 127
    },
    {
      "midi": 88,
      "hit": false,
      "t": 90000,
      "d": 1000,
      "v": 127
    },
    {
      "midi": 45,
      "hit": false,
      "t": 90000,
      "d": 500,
      "v": 127
    },
    {
      "midi": 49,
      "hit": false,
      "t": 90500,
      "d": 500,
      "v": 127
    },
    {
      "midi": 52,
      "hit": false,
      "t": 90500,
      "d": 500,
      "v": 127
    },
    {
      "midi": 57,
      "hit": false,
      "t": 90500,
      "d": 500,
      "v": 127
    },
    {
      "midi": 93,
      "hit": false,
      "t": 91000,
      "d": 1000,
      "v": 127
    },
    {
      "midi": 45,
      "hit": false,
      "t": 91000,
      "d": 500,
      "v": 127
    },
    {
      "midi": 49,
      "hit": false,
      "t": 91500,
      "d": 500,
      "v": 127
    },
    {
      "midi": 52,
      "hit": false,
      "t": 91500,
      "d": 500,
      "v": 127
    },
    {
      "midi": 57,
      "hit": false,
      "t": 91500,
      "d": 500,
      "v": 127
    },
    {
      "midi": 92,
      "hit": false,
      "t": 92000,
      "d": 500,
      "v": 127
    },
    {
      "midi": 52,
      "hit": false,
      "t": 92000,
      "d": 500,
      "v": 127
    },
    {
      "midi": 88,
      "hit": false,
      "t": 92500,
      "d": 500,
      "v": 127
    },
    {
      "midi": 56,
      "hit": false,
      "t": 92500,
      "d": 500,
      "v": 127
    },
    {
      "midi": 59,
      "hit": false,
      "t": 92500,
      "d": 500,
      "v": 127
    },
    {
      "midi": 90,
      "hit": false,
      "t": 93000,
      "d": 1000,
      "v": 127
    },
    {
      "midi": 92,
      "hit": false,
      "t": 93000,
      "d": 1000,
      "v": 127
    },
    {
      "midi": 52,
      "hit": false,
      "t": 93000,
      "d": 500,
      "v": 127
    },
    {
      "midi": 56,
      "hit": false,
      "t": 93500,
      "d": 500,
      "v": 127
    },
    {
      "midi": 59,
      "hit": false,
      "t": 93500,
      "d": 500,
      "v": 127
    },
    {
      "midi": 88,
      "hit": false,
      "t": 94000,
      "d": 500,
      "v": 127
    },
    {
      "midi": 52,
      "hit": false,
      "t": 94000,
      "d": 500,
      "v": 127
    },
    {
      "midi": 85,
      "hit": false,
      "t": 94500,
      "d": 500,
      "v": 127
    },
    {
      "midi": 56,
      "hit": false,
      "t": 94500,
      "d": 500,
      "v": 127
    },
    {
      "midi": 59,
      "hit": false,
      "t": 94500,
      "d": 500,
      "v": 127
    },
    {
      "midi": 86,
      "hit": false,
      "t": 95000,
      "d": 1000,
      "v": 127
    },
    {
      "midi": 88,
      "hit": false,
      "t": 95000,
      "d": 1000,
      "v": 127
    },
    {
      "midi": 52,
      "hit": false,
      "t": 95000,
      "d": 500,
      "v": 127
    },
    {
      "midi": 56,
      "hit": false,
      "t": 95500,
      "d": 500,
      "v": 127
    },
    {
      "midi": 59,
      "hit": false,
      "t": 95500,
      "d": 500,
      "v": 127
    },
    {
      "midi": 85,
      "hit": false,
      "t": 96000,
      "d": 500,
      "v": 127
    },
    {
      "midi": 45,
      "hit": false,
      "t": 96000,
      "d": 500,
      "v": 127
    },
    {
      "midi": 85,
      "hit": false,
      "t": 96500,
      "d": 250,
      "v": 127
    },
    {
      "midi": 49,
      "hit": false,
      "t": 96500,
      "d": 500,
      "v": 127
    },
    {
      "midi": 52,
      "hit": false,
      "t": 96500,
      "d": 500,
      "v": 127
    },
    {
      "midi": 57,
      "hit": false,
      "t": 96500,
      "d": 500,
      "v": 127
    },
    {
      "midi": 86,
      "hit": false,
      "t": 96750,
      "d": 250,
      "v": 127
    },
    {
      "midi": 87,
      "hit": false,
      "t": 97000,
      "d": 500,
      "v": 127
    },
    {
      "midi": 45,
      "hit": false,
      "t": 97000,
      "d": 500,
      "v": 127
    },
    {
      "midi": 88,
      "hit": false,
      "t": 97500,
      "d": 500,
      "v": 127
    },
    {
      "midi": 49,
      "hit": false,
      "t": 97500,
      "d": 500,
      "v": 127
    },
    {
      "midi": 52,
      "hit": false,
      "t": 97500,
      "d": 500,
      "v": 127
    },
    {
      "midi": 57,
      "hit": false,
      "t": 97500,
      "d": 500,
      "v": 127
    },
    {
      "midi": 89,
      "hit": false,
      "t": 98000,
      "d": 500,
      "v": 127
    },
    {
      "midi": 44,
      "hit": false,
      "t": 98000,
      "d": 500,
      "v": 127
    },
    {
      "midi": 90,
      "hit": false,
      "t": 98500,
      "d": 500,
      "v": 127
    },
    {
      "midi": 47,
      "hit": false,
      "t": 98500,
      "d": 500,
      "v": 127
    },
    {
      "midi": 49,
      "hit": false,
      "t": 98500,
      "d": 500,
      "v": 127
    },
    {
      "midi": 53,
      "hit": false,
      "t": 98500,
      "d": 500,
      "v": 127
    },
    {
      "midi": 91,
      "hit": false,
      "t": 99000,
      "d": 500,
      "v": 127
    },
    {
      "midi": 44,
      "hit": false,
      "t": 99000,
      "d": 500,
      "v": 127
    },
    {
      "midi": 92,
      "hit": false,
      "t": 99500,
      "d": 500,
      "v": 127
    },
    {
      "midi": 47,
      "hit": false,
      "t": 99500,
      "d": 500,
      "v": 127
    },
    {
      "midi": 49,
      "hit": false,
      "t": 99500,
      "d": 500,
      "v": 127
    },
    {
      "midi": 53,
      "hit": false,
      "t": 99500,
      "d": 500,
      "v": 127
    },
    {
      "midi": 93,
      "hit": false,
      "t": 100000,
      "d": 500,
      "v": 127
    },
    {
      "midi": 42,
      "hit": false,
      "t": 100000,
      "d": 500,
      "v": 127
    },
    {
      "midi": 89,
      "hit": false,
      "t": 100500,
      "d": 250,
      "v": 127
    },
    {
      "midi": 45,
      "hit": false,
      "t": 100500,
      "d": 500,
      "v": 127
    },
    {
      "midi": 49,
      "hit": false,
      "t": 100500,
      "d": 500,
      "v": 127
    },
    {
      "midi": 54,
      "hit": false,
      "t": 100500,
      "d": 500,
      "v": 127
    },
    {
      "midi": 92,
      "hit": false,
      "t": 100750,
      "d": 250,
      "v": 127
    },
    {
      "midi": 90,
      "hit": false,
      "t": 101000,
      "d": 500,
      "v": 127
    },
    {
      "midi": 50,
      "hit": false,
      "t": 101000,
      "d": 500,
      "v": 127
    },
    {
      "midi": 85,
      "hit": false,
      "t": 101500,
      "d": 250,
      "v": 127
    },
    {
      "midi": 54,
      "hit": false,
      "t": 101500,
      "d": 500,
      "v": 127
    },
    {
      "midi": 59,
      "hit": false,
      "t": 101500,
      "d": 500,
      "v": 127
    },
    {
      "midi": 88,
      "hit": false,
      "t": 101750,
      "d": 250,
      "v": 127
    },
    {
      "midi": 86,
      "hit": false,
      "t": 102000,
      "d": 500,
      "v": 127
    },
    {
      "midi": 47,
      "hit": false,
      "t": 102000,
      "d": 500,
      "v": 127
    },
    {
      "midi": 82,
      "hit": false,
      "t": 102500,
      "d": 250,
      "v": 127
    },
    {
      "midi": 50,
      "hit": false,
      "t": 102500,
      "d": 500,
      "v": 127
    },
    {
      "midi": 54,
      "hit": false,
      "t": 102500,
      "d": 500,
      "v": 127
    },
    {
      "midi": 59,
      "hit": false,
      "t": 102500,
      "d": 500,
      "v": 127
    },
    {
      "midi": 85,
      "hit": false,
      "t": 102750,
      "d": 250,
      "v": 127
    },
    {
      "midi": 83,
      "hit": false,
      "t": 103000,
      "d": 500,
      "v": 127
    },
    {
      "midi": 52,
      "hit": false,
      "t": 103000,
      "d": 500,
      "v": 127
    },
    {
      "midi": 88,
      "hit": false,
      "t": 103500,
      "d": 500,
      "v": 127
    },
    {
      "midi": 56,
      "hit": false,
      "t": 103500,
      "d": 500,
      "v": 127
    },
    {
      "midi": 59,
      "hit": false,
      "t": 103500,
      "d": 500,
      "v": 127
    },
    {
      "midi": 85,
      "hit": false,
      "t": 104000,
      "d": 500,
      "v": 127
    },
    {
      "midi": 45,
      "hit": false,
      "t": 104000,
      "d": 500,
      "v": 127
    },
    {
      "midi": 85,
      "hit": false,
      "t": 104500,
      "d": 250,
      "v": 127
    },
    {
      "midi": 49,
      "hit": false,
      "t": 104500,
      "d": 500,
      "v": 127
    },
    {
      "midi": 52,
      "hit": false,
      "t": 104500,
      "d": 500,
      "v": 127
    },
    {
      "midi": 57,
      "hit": false,
      "t": 104500,
      "d": 500,
      "v": 127
    },
    {
      "midi": 86,
      "hit": false,
      "t": 104750,
      "d": 250,
      "v": 127
    },
    {
      "midi": 87,
      "hit": false,
      "t": 105000,
      "d": 500,
      "v": 127
    },
    {
      "midi": 45,
      "hit": false,
      "t": 105000,
      "d": 500,
      "v": 127
    },
    {
      "midi": 88,
      "hit": false,
      "t": 105500,
      "d": 500,
      "v": 127
    },
    {
      "midi": 49,
      "hit": false,
      "t": 105500,
      "d": 500,
      "v": 127
    },
    {
      "midi": 52,
      "hit": false,
      "t": 105500,
      "d": 500,
      "v": 127
    },
    {
      "midi": 57,
      "hit": false,
      "t": 105500,
      "d": 500,
      "v": 127
    },
    {
      "midi": 89,
      "hit": false,
      "t": 106000,
      "d": 500,
      "v": 127
    },
    {
      "midi": 44,
      "hit": false,
      "t": 106000,
      "d": 500,
      "v": 127
    },
    {
      "midi": 90,
      "hit": false,
      "t": 106500,
      "d": 500,
      "v": 127
    },
    {
      "midi": 47,
      "hit": false,
      "t": 106500,
      "d": 500,
      "v": 127
    },
    {
      "midi": 49,
      "hit": false,
      "t": 106500,
      "d": 500,
      "v": 127
    },
    {
      "midi": 53,
      "hit": false,
      "t": 106500,
      "d": 500,
      "v": 127
    },
    {
      "midi": 91,
      "hit": false,
      "t": 107000,
      "d": 500,
      "v": 127
    },
    {
      "midi": 44,
      "hit": false,
      "t": 107000,
      "d": 500,
      "v": 127
    },
    {
      "midi": 92,
      "hit": false,
      "t": 107500,
      "d": 500,
      "v": 127
    },
    {
      "midi": 47,
      "hit": false,
      "t": 107500,
      "d": 500,
      "v": 127
    },
    {
      "midi": 49,
      "hit": false,
      "t": 107500,
      "d": 500,
      "v": 127
    },
    {
      "midi": 53,
      "hit": false,
      "t": 107500,
      "d": 500,
      "v": 127
    },
    {
      "midi": 93,
      "hit": false,
      "t": 108000,
      "d": 500,
      "v": 127
    },
    {
      "midi": 42,
      "hit": false,
      "t": 108000,
      "d": 500,
      "v": 127
    },
    {
      "midi": 89,
      "hit": false,
      "t": 108500,
      "d": 250,
      "v": 127
    },
    {
      "midi": 45,
      "hit": false,
      "t": 108500,
      "d": 500,
      "v": 127
    },
    {
      "midi": 49,
      "hit": false,
      "t": 108500,
      "d": 500,
      "v": 127
    },
    {
      "midi": 54,
      "hit": false,
      "t": 108500,
      "d": 500,
      "v": 127
    },
    {
      "midi": 92,
      "hit": false,
      "t": 108750,
      "d": 250,
      "v": 127
    },
    {
      "midi": 90,
      "hit": false,
      "t": 109000,
      "d": 500,
      "v": 127
    },
    {
      "midi": 50,
      "hit": false,
      "t": 109000,
      "d": 500,
      "v": 127
    },
    {
      "midi": 85,
      "hit": false,
      "t": 109500,
      "d": 250,
      "v": 127
    },
    {
      "midi": 54,
      "hit": false,
      "t": 109500,
      "d": 500,
      "v": 127
    },
    {
      "midi": 59,
      "hit": false,
      "t": 109500,
      "d": 500,
      "v": 127
    },
    {
      "midi": 88,
      "hit": false,
      "t": 109750,
      "d": 250,
      "v": 127
    },
    {
      "midi": 86,
      "hit": false,
      "t": 110000,
      "d": 500,
      "v": 127
    },
    {
      "midi": 47,
      "hit": false,
      "t": 110000,
      "d": 500,
      "v": 127
    },
    {
      "midi": 82,
      "hit": false,
      "t": 110500,
      "d": 250,
      "v": 127
    },
    {
      "midi": 50,
      "hit": false,
      "t": 110500,
      "d": 500,
      "v": 127
    },
    {
      "midi": 54,
      "hit": false,
      "t": 110500,
      "d": 500,
      "v": 127
    },
    {
      "midi": 59,
      "hit": false,
      "t": 110500,
      "d": 500,
      "v": 127
    },
    {
      "midi": 85,
      "hit": false,
      "t": 110750,
      "d": 250,
      "v": 127
    },
    {
      "midi": 83,
      "hit": false,
      "t": 111000,
      "d": 500,
      "v": 127
    },
    {
      "midi": 52,
      "hit": false,
      "t": 111000,
      "d": 500,
      "v": 127
    },
    {
      "midi": 88,
      "hit": false,
      "t": 111500,
      "d": 500,
      "v": 127
    },
    {
      "midi": 56,
      "hit": false,
      "t": 111500,
      "d": 500,
      "v": 127
    },
    {
      "midi": 59,
      "hit": false,
      "t": 111500,
      "d": 500,
      "v": 127
    },
    {
      "midi": 81,
      "hit": false,
      "t": 112000,
      "d": 1000,
      "v": 127
    },
    {
      "midi": 57,
      "hit": false,
      "t": 112000,
      "d": 1000,
      "v": 127
    },
    {
      "midi": 61,
      "hit": false,
      "t": 112000,
      "d": 1000,
      "v": 127
    },
    {
      "midi": 73,
      "hit": false,
      "t": 113000,
      "d": 1000,
      "v": 127
    },
    {
      "midi": 76,
      "hit": false,
      "t": 113000,
      "d": 1000,
      "v": 127
    },
    {
      "midi": 81,
      "hit": false,
      "t": 113000,
      "d": 1000,
      "v": 127
    },
    {
      "midi": 33,
      "hit": false,
      "t": 113000,
      "d": 1000,
      "v": 127
    },
    {
      "midi": 45,
      "hit": false,
      "t": 113000,
      "d": 1000,
      "v": 127
    },
    {
      "midi": 71,
      "hit": false,
      "t": 116000,
      "d": 3000,
      "v": 127
    },
    {
      "midi": 52,
      "hit": false,
      "t": 116000,
      "d": 500,
      "v": 127
    },
    {
      "midi": 56,
      "hit": false,
      "t": 116500,
      "d": 500,
      "v": 127
    },
    {
      "midi": 59,
      "hit": false,
      "t": 116500,
      "d": 500,
      "v": 127
    },
    {
      "midi": 56,
      "hit": false,
      "t": 117000,
      "d": 500,
      "v": 127
    },
    {
      "midi": 59,
      "hit": false,
      "t": 117000,
      "d": 500,
      "v": 127
    },
    {
      "midi": 56,
      "hit": false,
      "t": 117500,
      "d": 500,
      "v": 127
    },
    {
      "midi": 59,
      "hit": false,
      "t": 117500,
      "d": 500,
      "v": 127
    },
    {
      "midi": 52,
      "hit": false,
      "t": 118000,
      "d": 500,
      "v": 127
    },
    {
      "midi": 56,
      "hit": false,
      "t": 118500,
      "d": 500,
      "v": 127
    },
    {
      "midi": 59,
      "hit": false,
      "t": 118500,
      "d": 500,
      "v": 127
    },
    {
      "midi": 80,
      "hit": false,
      "t": 119000,
      "d": 500,
      "v": 127
    },
    {
      "midi": 56,
      "hit": false,
      "t": 119000,
      "d": 500,
      "v": 127
    },
    {
      "midi": 59,
      "hit": false,
      "t": 119000,
      "d": 500,
      "v": 127
    },
    {
      "midi": 78,
      "hit": false,
      "t": 119500,
      "d": 500,
      "v": 127
    },
    {
      "midi": 56,
      "hit": false,
      "t": 119500,
      "d": 500,
      "v": 127
    },
    {
      "midi": 59,
      "hit": false,
      "t": 119500,
      "d": 500,
      "v": 127
    },
    {
      "midi": 76,
      "hit": false,
      "t": 120000,
      "d": 1000,
      "v": 127
    },
    {
      "midi": 52,
      "hit": false,
      "t": 120000,
      "d": 500,
      "v": 127
    },
    {
      "midi": 56,
      "hit": false,
      "t": 120500,
      "d": 500,
      "v": 127
    },
    {
      "midi": 59,
      "hit": false,
      "t": 120500,
      "d": 500,
      "v": 127
    },
    {
      "midi": 80,
      "hit": false,
      "t": 121000,
      "d": 500,
      "v": 127
    },
    {
      "midi": 56,
      "hit": false,
      "t": 121000,
      "d": 500,
      "v": 127
    },
    {
      "midi": 59,
      "hit": false,
      "t": 121000,
      "d": 500,
      "v": 127
    },
    {
      "midi": 85,
      "hit": false,
      "t": 121500,
      "d": 500,
      "v": 127
    },
    {
      "midi": 56,
      "hit": false,
      "t": 121500,
      "d": 500,
      "v": 127
    },
    {
      "midi": 59,
      "hit": false,
      "t": 121500,
      "d": 500,
      "v": 127
    },
    {
      "midi": 83,
      "hit": false,
      "t": 122000,
      "d": 1000,
      "v": 127
    },
    {
      "midi": 52,
      "hit": false,
      "t": 122000,
      "d": 500,
      "v": 127
    },
    {
      "midi": 56,
      "hit": false,
      "t": 122500,
      "d": 500,
      "v": 127
    },
    {
      "midi": 59,
      "hit": false,
      "t": 122500,
      "d": 500,
      "v": 127
    },
    {
      "midi": 88,
      "hit": false,
      "t": 123000,
      "d": 1000,
      "v": 127
    },
    {
      "midi": 56,
      "hit": false,
      "t": 123000,
      "d": 500,
      "v": 127
    },
    {
      "midi": 59,
      "hit": false,
      "t": 123000,
      "d": 500,
      "v": 127
    },
    {
      "midi": 56,
      "hit": false,
      "t": 123500,
      "d": 500,
      "v": 127
    },
    {
      "midi": 59,
      "hit": false,
      "t": 123500,
      "d": 500,
      "v": 127
    },
    {
      "midi": 87,
      "hit": false,
      "t": 124000,
      "d": 500,
      "v": 127
    },
    {
      "midi": 47,
      "hit": false,
      "t": 124000,
      "d": 500,
      "v": 127
    },
    {
      "midi": 83,
      "hit": false,
      "t": 124500,
      "d": 500,
      "v": 127
    },
    {
      "midi": 51,
      "hit": false,
      "t": 124500,
      "d": 500,
      "v": 127
    },
    {
      "midi": 57,
      "hit": false,
      "t": 124500,
      "d": 500,
      "v": 127
    },
    {
      "midi": 59,
      "hit": false,
      "t": 124500,
      "d": 500,
      "v": 127
    },
    {
      "midi": 85,
      "hit": false,
      "t": 125000,
      "d": 1000,
      "v": 127
    },
    {
      "midi": 87,
      "hit": false,
      "t": 125000,
      "d": 1000,
      "v": 127
    },
    {
      "midi": 51,
      "hit": false,
      "t": 125000,
      "d": 500,
      "v": 127
    },
    {
      "midi": 57,
      "hit": false,
      "t": 125000,
      "d": 500,
      "v": 127
    },
    {
      "midi": 59,
      "hit": false,
      "t": 125000,
      "d": 500,
      "v": 127
    },
    {
      "midi": 51,
      "hit": false,
      "t": 125500,
      "d": 500,
      "v": 127
    },
    {
      "midi": 57,
      "hit": false,
      "t": 125500,
      "d": 500,
      "v": 127
    },
    {
      "midi": 59,
      "hit": false,
      "t": 125500,
      "d": 500,
      "v": 127
    },
    {
      "midi": 83,
      "hit": false,
      "t": 126000,
      "d": 500,
      "v": 127
    },
    {
      "midi": 47,
      "hit": false,
      "t": 126000,
      "d": 500,
      "v": 127
    },
    {
      "midi": 80,
      "hit": false,
      "t": 126500,
      "d": 500,
      "v": 127
    },
    {
      "midi": 51,
      "hit": false,
      "t": 126500,
      "d": 500,
      "v": 127
    },
    {
      "midi": 57,
      "hit": false,
      "t": 126500,
      "d": 500,
      "v": 127
    },
    {
      "midi": 59,
      "hit": false,
      "t": 126500,
      "d": 500,
      "v": 127
    },
    {
      "midi": 81,
      "hit": false,
      "t": 127000,
      "d": 1000,
      "v": 127
    },
    {
      "midi": 83,
      "hit": false,
      "t": 127000,
      "d": 1000,
      "v": 127
    },
    {
      "midi": 51,
      "hit": false,
      "t": 127000,
      "d": 500,
      "v": 127
    },
    {
      "midi": 57,
      "hit": false,
      "t": 127000,
      "d": 500,
      "v": 127
    },
    {
      "midi": 59,
      "hit": false,
      "t": 127000,
      "d": 500,
      "v": 127
    },
    {
      "midi": 51,
      "hit": false,
      "t": 127500,
      "d": 500,
      "v": 127
    },
    {
      "midi": 57,
      "hit": false,
      "t": 127500,
      "d": 500,
      "v": 127
    },
    {
      "midi": 59,
      "hit": false,
      "t": 127500,
      "d": 500,
      "v": 127
    },
    {
      "midi": 80,
      "hit": false,
      "t": 128000,
      "d": 500,
      "v": 127
    },
    {
      "midi": 52,
      "hit": false,
      "t": 128000,
      "d": 500,
      "v": 127
    },
    {
      "midi": 76,
      "hit": false,
      "t": 128500,
      "d": 500,
      "v": 127
    },
    {
      "midi": 56,
      "hit": false,
      "t": 128500,
      "d": 500,
      "v": 127
    },
    {
      "midi": 59,
      "hit": false,
      "t": 128500,
      "d": 500,
      "v": 127
    },
    {
      "midi": 78,
      "hit": false,
      "t": 129000,
      "d": 500,
      "v": 127
    },
    {
      "midi": 47,
      "hit": false,
      "t": 129000,
      "d": 500,
      "v": 127
    },
    {
      "midi": 71,
      "hit": false,
      "t": 129500,
      "d": 500,
      "v": 127
    },
    {
      "midi": 51,
      "hit": false,
      "t": 129500,
      "d": 500,
      "v": 127
    },
    {
      "midi": 57,
      "hit": false,
      "t": 129500,
      "d": 500,
      "v": 127
    },
    {
      "midi": 59,
      "hit": false,
      "t": 129500,
      "d": 500,
      "v": 127
    },
    {
      "midi": 76,
      "hit": false,
      "t": 130000,
      "d": 1000,
      "v": 127
    },
    {
      "midi": 52,
      "hit": false,
      "t": 130000,
      "d": 500,
      "v": 127
    },
    {
      "midi": 56,
      "hit": false,
      "t": 130500,
      "d": 500,
      "v": 127
    },
    {
      "midi": 59,
      "hit": false,
      "t": 130500,
      "d": 500,
      "v": 127
    },
    {
      "midi": 56,
      "hit": false,
      "t": 131000,
      "d": 500,
      "v": 127
    },
    {
      "midi": 59,
      "hit": false,
      "t": 131000,
      "d": 500,
      "v": 127
    },
    {
      "midi": 56,
      "hit": false,
      "t": 131500,
      "d": 500,
      "v": 127
    },
    {
      "midi": 59,
      "hit": false,
      "t": 131500,
      "d": 500,
      "v": 127
    },
    {
      "midi": 71,
      "hit": false,
      "t": 132000,
      "d": 3000,
      "v": 127
    },
    {
      "midi": 52,
      "hit": false,
      "t": 132000,
      "d": 500,
      "v": 127
    },
    {
      "midi": 56,
      "hit": false,
      "t": 132500,
      "d": 500,
      "v": 127
    },
    {
      "midi": 59,
      "hit": false,
      "t": 132500,
      "d": 500,
      "v": 127
    },
    {
      "midi": 56,
      "hit": false,
      "t": 133000,
      "d": 500,
      "v": 127
    },
    {
      "midi": 59,
      "hit": false,
      "t": 133000,
      "d": 500,
      "v": 127
    },
    {
      "midi": 56,
      "hit": false,
      "t": 133500,
      "d": 500,
      "v": 127
    },
    {
      "midi": 59,
      "hit": false,
      "t": 133500,
      "d": 500,
      "v": 127
    },
    {
      "midi": 52,
      "hit": false,
      "t": 134000,
      "d": 500,
      "v": 127
    },
    {
      "midi": 56,
      "hit": false,
      "t": 134500,
      "d": 500,
      "v": 127
    },
    {
      "midi": 59,
      "hit": false,
      "t": 134500,
      "d": 500,
      "v": 127
    },
    {
      "midi": 80,
      "hit": false,
      "t": 135000,
      "d": 500,
      "v": 127
    },
    {
      "midi": 56,
      "hit": false,
      "t": 135000,
      "d": 500,
      "v": 127
    },
    {
      "midi": 59,
      "hit": false,
      "t": 135000,
      "d": 500,
      "v": 127
    },
    {
      "midi": 78,
      "hit": false,
      "t": 135500,
      "d": 500,
      "v": 127
    },
    {
      "midi": 56,
      "hit": false,
      "t": 135500,
      "d": 500,
      "v": 127
    },
    {
      "midi": 59,
      "hit": false,
      "t": 135500,
      "d": 500,
      "v": 127
    },
    {
      "midi": 76,
      "hit": false,
      "t": 136000,
      "d": 1000,
      "v": 127
    },
    {
      "midi": 52,
      "hit": false,
      "t": 136000,
      "d": 500,
      "v": 127
    },
    {
      "midi": 56,
      "hit": false,
      "t": 136500,
      "d": 500,
      "v": 127
    },
    {
      "midi": 59,
      "hit": false,
      "t": 136500,
      "d": 500,
      "v": 127
    },
    {
      "midi": 80,
      "hit": false,
      "t": 137000,
      "d": 500,
      "v": 127
    },
    {
      "midi": 56,
      "hit": false,
      "t": 137000,
      "d": 500,
      "v": 127
    },
    {
      "midi": 59,
      "hit": false,
      "t": 137000,
      "d": 500,
      "v": 127
    },
    {
      "midi": 85,
      "hit": false,
      "t": 137500,
      "d": 500,
      "v": 127
    },
    {
      "midi": 56,
      "hit": false,
      "t": 137500,
      "d": 500,
      "v": 127
    },
    {
      "midi": 59,
      "hit": false,
      "t": 137500,
      "d": 500,
      "v": 127
    },
    {
      "midi": 83,
      "hit": false,
      "t": 138000,
      "d": 1000,
      "v": 127
    },
    {
      "midi": 52,
      "hit": false,
      "t": 138000,
      "d": 500,
      "v": 127
    },
    {
      "midi": 56,
      "hit": false,
      "t": 138500,
      "d": 500,
      "v": 127
    },
    {
      "midi": 59,
      "hit": false,
      "t": 138500,
      "d": 500,
      "v": 127
    },
    {
      "midi": 88,
      "hit": false,
      "t": 139000,
      "d": 1000,
      "v": 127
    },
    {
      "midi": 56,
      "hit": false,
      "t": 139000,
      "d": 500,
      "v": 127
    },
    {
      "midi": 59,
      "hit": false,
      "t": 139000,
      "d": 500,
      "v": 127
    },
    {
      "midi": 56,
      "hit": false,
      "t": 139500,
      "d": 500,
      "v": 127
    },
    {
      "midi": 59,
      "hit": false,
      "t": 139500,
      "d": 500,
      "v": 127
    },
    {
      "midi": 87,
      "hit": false,
      "t": 140000,
      "d": 500,
      "v": 127
    },
    {
      "midi": 47,
      "hit": false,
      "t": 140000,
      "d": 500,
      "v": 127
    },
    {
      "midi": 83,
      "hit": false,
      "t": 140500,
      "d": 500,
      "v": 127
    },
    {
      "midi": 51,
      "hit": false,
      "t": 140500,
      "d": 500,
      "v": 127
    },
    {
      "midi": 57,
      "hit": false,
      "t": 140500,
      "d": 500,
      "v": 127
    },
    {
      "midi": 59,
      "hit": false,
      "t": 140500,
      "d": 500,
      "v": 127
    },
    {
      "midi": 85,
      "hit": false,
      "t": 141000,
      "d": 1000,
      "v": 127
    },
    {
      "midi": 87,
      "hit": false,
      "t": 141000,
      "d": 1000,
      "v": 127
    },
    {
      "midi": 51,
      "hit": false,
      "t": 141000,
      "d": 500,
      "v": 127
    },
    {
      "midi": 57,
      "hit": false,
      "t": 141000,
      "d": 500,
      "v": 127
    },
    {
      "midi": 59,
      "hit": false,
      "t": 141000,
      "d": 500,
      "v": 127
    },
    {
      "midi": 51,
      "hit": false,
      "t": 141500,
      "d": 500,
      "v": 127
    },
    {
      "midi": 57,
      "hit": false,
      "t": 141500,
      "d": 500,
      "v": 127
    },
    {
      "midi": 59,
      "hit": false,
      "t": 141500,
      "d": 500,
      "v": 127
    },
    {
      "midi": 83,
      "hit": false,
      "t": 142000,
      "d": 500,
      "v": 127
    },
    {
      "midi": 47,
      "hit": false,
      "t": 142000,
      "d": 500,
      "v": 127
    },
    {
      "midi": 80,
      "hit": false,
      "t": 142500,
      "d": 500,
      "v": 127
    },
    {
      "midi": 51,
      "hit": false,
      "t": 142500,
      "d": 500,
      "v": 127
    },
    {
      "midi": 57,
      "hit": false,
      "t": 142500,
      "d": 500,
      "v": 127
    },
    {
      "midi": 59,
      "hit": false,
      "t": 142500,
      "d": 500,
      "v": 127
    },
    {
      "midi": 81,
      "hit": false,
      "t": 143000,
      "d": 1000,
      "v": 127
    },
    {
      "midi": 83,
      "hit": false,
      "t": 143000,
      "d": 1000,
      "v": 127
    },
    {
      "midi": 51,
      "hit": false,
      "t": 143000,
      "d": 500,
      "v": 127
    },
    {
      "midi": 57,
      "hit": false,
      "t": 143000,
      "d": 500,
      "v": 127
    },
    {
      "midi": 59,
      "hit": false,
      "t": 143000,
      "d": 500,
      "v": 127
    },
    {
      "midi": 51,
      "hit": false,
      "t": 143500,
      "d": 500,
      "v": 127
    },
    {
      "midi": 57,
      "hit": false,
      "t": 143500,
      "d": 500,
      "v": 127
    },
    {
      "midi": 59,
      "hit": false,
      "t": 143500,
      "d": 500,
      "v": 127
    },
    {
      "midi": 80,
      "hit": false,
      "t": 144000,
      "d": 500,
      "v": 127
    },
    {
      "midi": 52,
      "hit": false,
      "t": 144000,
      "d": 500,
      "v": 127
    },
    {
      "midi": 83,
      "hit": false,
      "t": 144500,
      "d": 500,
      "v": 127
    },
    {
      "midi": 56,
      "hit": false,
      "t": 144500,
      "d": 500,
      "v": 127
    },
    {
      "midi": 59,
      "hit": false,
      "t": 144500,
      "d": 500,
      "v": 127
    },
    {
      "midi": 78,
      "hit": false,
      "t": 145000,
      "d": 500,
      "v": 127
    },
    {
      "midi": 47,
      "hit": false,
      "t": 145000,
      "d": 500,
      "v": 127
    },
    {
      "midi": 83,
      "hit": false,
      "t": 145500,
      "d": 500,
      "v": 127
    },
    {
      "midi": 51,
      "hit": false,
      "t": 145500,
      "d": 500,
      "v": 127
    },
    {
      "midi": 57,
      "hit": false,
      "t": 145500,
      "d": 500,
      "v": 127
    },
    {
      "midi": 59,
      "hit": false,
      "t": 145500,
      "d": 500,
      "v": 127
    },
    {
      "midi": 76,
      "hit": false,
      "t": 146000,
      "d": 1000,
      "v": 127
    },
    {
      "midi": 52,
      "hit": false,
      "t": 146000,
      "d": 500,
      "v": 127
    },
    {
      "midi": 56,
      "hit": false,
      "t": 146500,
      "d": 500,
      "v": 127
    },
    {
      "midi": 59,
      "hit": false,
      "t": 146500,
      "d": 500,
      "v": 127
    },
    {
      "midi": 56,
      "hit": false,
      "t": 147000,
      "d": 500,
      "v": 127
    },
    {
      "midi": 59,
      "hit": false,
      "t": 147000,
      "d": 500,
      "v": 127
    },
    {
      "midi": 56,
      "hit": false,
      "t": 147500,
      "d": 500,
      "v": 127
    },
    {
      "midi": 59,
      "hit": false,
      "t": 147500,
      "d": 500,
      "v": 127
    },
    {
      "midi": 80,
      "hit": false,
      "t": 148000,
      "d": 3000,
      "v": 127
    },
    {
      "midi": 49,
      "hit": false,
      "t": 148000,
      "d": 500,
      "v": 127
    },
    {
      "midi": 52,
      "hit": false,
      "t": 148500,
      "d": 500,
      "v": 127
    },
    {
      "midi": 56,
      "hit": false,
      "t": 148500,
      "d": 500,
      "v": 127
    },
    {
      "midi": 61,
      "hit": false,
      "t": 148500,
      "d": 500,
      "v": 127
    },
    {
      "midi": 52,
      "hit": false,
      "t": 149000,
      "d": 500,
      "v": 127
    },
    {
      "midi": 56,
      "hit": false,
      "t": 149000,
      "d": 500,
      "v": 127
    },
    {
      "midi": 61,
      "hit": false,
      "t": 149000,
      "d": 500,
      "v": 127
    },
    {
      "midi": 52,
      "hit": false,
      "t": 149500,
      "d": 500,
      "v": 127
    },
    {
      "midi": 56,
      "hit": false,
      "t": 149500,
      "d": 500,
      "v": 127
    },
    {
      "midi": 61,
      "hit": false,
      "t": 149500,
      "d": 500,
      "v": 127
    },
    {
      "midi": 49,
      "hit": false,
      "t": 150000,
      "d": 500,
      "v": 127
    },
    {
      "midi": 52,
      "hit": false,
      "t": 150500,
      "d": 500,
      "v": 127
    },
    {
      "midi": 56,
      "hit": false,
      "t": 150500,
      "d": 500,
      "v": 127
    },
    {
      "midi": 61,
      "hit": false,
      "t": 150500,
      "d": 500,
      "v": 127
    },
    {
      "midi": 85,
      "hit": false,
      "t": 151000,
      "d": 500,
      "v": 127
    },
    {
      "midi": 52,
      "hit": false,
      "t": 151000,
      "d": 500,
      "v": 127
    },
    {
      "midi": 56,
      "hit": false,
      "t": 151000,
      "d": 500,
      "v": 127
    },
    {
      "midi": 61,
      "hit": false,
      "t": 151000,
      "d": 500,
      "v": 127
    },
    {
      "midi": 83,
      "hit": false,
      "t": 151500,
      "d": 500,
      "v": 127
    },
    {
      "midi": 52,
      "hit": false,
      "t": 151500,
      "d": 500,
      "v": 127
    },
    {
      "midi": 56,
      "hit": false,
      "t": 151500,
      "d": 500,
      "v": 127
    },
    {
      "midi": 61,
      "hit": false,
      "t": 151500,
      "d": 500,
      "v": 127
    },
    {
      "midi": 81,
      "hit": false,
      "t": 152000,
      "d": 1000,
      "v": 127
    },
    {
      "midi": 54,
      "hit": false,
      "t": 152000,
      "d": 500,
      "v": 127
    },
    {
      "midi": 57,
      "hit": false,
      "t": 152500,
      "d": 500,
      "v": 127
    },
    {
      "midi": 61,
      "hit": false,
      "t": 152500,
      "d": 500,
      "v": 127
    },
    {
      "midi": 80,
      "hit": false,
      "t": 153000,
      "d": 500,
      "v": 127
    },
    {
      "midi": 57,
      "hit": false,
      "t": 153000,
      "d": 500,
      "v": 127
    },
    {
      "midi": 61,
      "hit": false,
      "t": 153000,
      "d": 500,
      "v": 127
    },
    {
      "midi": 78,
      "hit": false,
      "t": 153500,
      "d": 500,
      "v": 127
    },
    {
      "midi": 57,
      "hit": false,
      "t": 153500,
      "d": 500,
      "v": 127
    },
    {
      "midi": 61,
      "hit": false,
      "t": 153500,
      "d": 500,
      "v": 127
    },
    {
      "midi": 76,
      "hit": false,
      "t": 154000,
      "d": 1000,
      "v": 127
    },
    {
      "midi": 55,
      "hit": false,
      "t": 154000,
      "d": 500,
      "v": 127
    },
    {
      "midi": 58,
      "hit": false,
      "t": 154500,
      "d": 500,
      "v": 127
    },
    {
      "midi": 64,
      "hit": false,
      "t": 154500,
      "d": 500,
      "v": 127
    },
    {
      "midi": 75,
      "hit": false,
      "t": 155000,
      "d": 500,
      "v": 127
    },
    {
      "midi": 58,
      "hit": false,
      "t": 155000,
      "d": 500,
      "v": 127
    },
    {
      "midi": 64,
      "hit": false,
      "t": 155000,
      "d": 500,
      "v": 127
    },
    {
      "midi": 73,
      "hit": false,
      "t": 155500,
      "d": 500,
      "v": 127
    },
    {
      "midi": 58,
      "hit": false,
      "t": 155500,
      "d": 500,
      "v": 127
    },
    {
      "midi": 64,
      "hit": false,
      "t": 155500,
      "d": 500,
      "v": 127
    },
    {
      "midi": 75,
      "hit": false,
      "t": 156000,
      "d": 500,
      "v": 127
    },
    {
      "midi": 76,
      "hit": false,
      "t": 156000,
      "d": 500,
      "v": 127
    },
    {
      "midi": 56,
      "hit": false,
      "t": 156000,
      "d": 500,
      "v": 127
    },
    {
      "midi": 74,
      "hit": false,
      "t": 156500,
      "d": 500,
      "v": 127
    },
    {
      "midi": 60,
      "hit": false,
      "t": 156500,
      "d": 500,
      "v": 127
    },
    {
      "midi": 63,
      "hit": false,
      "t": 156500,
      "d": 500,
      "v": 127
    },
    {
      "midi": 75,
      "hit": false,
      "t": 157000,
      "d": 500,
      "v": 127
    },
    {
      "midi": 60,
      "hit": false,
      "t": 157000,
      "d": 500,
      "v": 127
    },
    {
      "midi": 63,
      "hit": false,
      "t": 157000,
      "d": 500,
      "v": 127
    },
    {
      "midi": 74,
      "hit": false,
      "t": 157500,
      "d": 500,
      "v": 127
    },
    {
      "midi": 60,
      "hit": false,
      "t": 157500,
      "d": 500,
      "v": 127
    },
    {
      "midi": 63,
      "hit": false,
      "t": 157500,
      "d": 500,
      "v": 127
    },
    {
      "midi": 75,
      "hit": false,
      "t": 158000,
      "d": 500,
      "v": 127
    },
    {
      "midi": 56,
      "hit": false,
      "t": 158000,
      "d": 500,
      "v": 127
    },
    {
      "midi": 76,
      "hit": false,
      "t": 158500,
      "d": 500,
      "v": 127
    },
    {
      "midi": 60,
      "hit": false,
      "t": 158500,
      "d": 500,
      "v": 127
    },
    {
      "midi": 63,
      "hit": false,
      "t": 158500,
      "d": 500,
      "v": 127
    },
    {
      "midi": 78,
      "hit": false,
      "t": 159000,
      "d": 500,
      "v": 127
    },
    {
      "midi": 60,
      "hit": false,
      "t": 159000,
      "d": 500,
      "v": 127
    },
    {
      "midi": 63,
      "hit": false,
      "t": 159000,
      "d": 500,
      "v": 127
    },
    {
      "midi": 80,
      "hit": false,
      "t": 159500,
      "d": 500,
      "v": 127
    },
    {
      "midi": 60,
      "hit": false,
      "t": 159500,
      "d": 500,
      "v": 127
    },
    {
      "midi": 63,
      "hit": false,
      "t": 159500,
      "d": 500,
      "v": 127
    },
    {
      "midi": 80,
      "hit": false,
      "t": 160000,
      "d": 250,
      "v": 127
    },
    {
      "midi": 49,
      "hit": false,
      "t": 160000,
      "d": 500,
      "v": 127
    },
    {
      "midi": 78,
      "hit": false,
      "t": 160250,
      "d": 250,
      "v": 127
    },
    {
      "midi": 76,
      "hit": false,
      "t": 160500,
      "d": 250,
      "v": 127
    },
    {
      "midi": 52,
      "hit": false,
      "t": 160500,
      "d": 500,
      "v": 127
    },
    {
      "midi": 56,
      "hit": false,
      "t": 160500,
      "d": 500,
      "v": 127
    },
    {
      "midi": 61,
      "hit": false,
      "t": 160500,
      "d": 500,
      "v": 127
    },
    {
      "midi": 75,
      "hit": false,
      "t": 160750,
      "d": 250,
      "v": 127
    },
    {
      "midi": 73,
      "hit": false,
      "t": 161000,
      "d": 1000,
      "v": 127
    },
    {
      "midi": 52,
      "hit": false,
      "t": 161000,
      "d": 500,
      "v": 127
    },
    {
      "midi": 56,
      "hit": false,
      "t": 161000,
      "d": 500,
      "v": 127
    },
    {
      "midi": 61,
      "hit": false,
      "t": 161000,
      "d": 500,
      "v": 127
    },
    {
      "midi": 52,
      "hit": false,
      "t": 161500,
      "d": 500,
      "v": 127
    },
    {
      "midi": 56,
      "hit": false,
      "t": 161500,
      "d": 500,
      "v": 127
    },
    {
      "midi": 61,
      "hit": false,
      "t": 161500,
      "d": 500,
      "v": 127
    },
    {
      "midi": 49,
      "hit": false,
      "t": 162000,
      "d": 500,
      "v": 127
    },
    {
      "midi": 52,
      "hit": false,
      "t": 162500,
      "d": 500,
      "v": 127
    },
    {
      "midi": 56,
      "hit": false,
      "t": 162500,
      "d": 500,
      "v": 127
    },
    {
      "midi": 61,
      "hit": false,
      "t": 162500,
      "d": 500,
      "v": 127
    },
    {
      "midi": 52,
      "hit": false,
      "t": 163000,
      "d": 500,
      "v": 127
    },
    {
      "midi": 56,
      "hit": false,
      "t": 163000,
      "d": 500,
      "v": 127
    },
    {
      "midi": 61,
      "hit": false,
      "t": 163000,
      "d": 500,
      "v": 127
    },
    {
      "midi": 52,
      "hit": false,
      "t": 163500,
      "d": 500,
      "v": 127
    },
    {
      "midi": 56,
      "hit": false,
      "t": 163500,
      "d": 500,
      "v": 127
    },
    {
      "midi": 61,
      "hit": false,
      "t": 163500,
      "d": 500,
      "v": 127
    },
    {
      "midi": 80,
      "hit": false,
      "t": 164000,
      "d": 3000,
      "v": 127
    },
    {
      "midi": 49,
      "hit": false,
      "t": 164000,
      "d": 500,
      "v": 127
    },
    {
      "midi": 52,
      "hit": false,
      "t": 164500,
      "d": 500,
      "v": 127
    },
    {
      "midi": 56,
      "hit": false,
      "t": 164500,
      "d": 500,
      "v": 127
    },
    {
      "midi": 61,
      "hit": false,
      "t": 164500,
      "d": 500,
      "v": 127
    },
    {
      "midi": 52,
      "hit": false,
      "t": 165000,
      "d": 500,
      "v": 127
    },
    {
      "midi": 56,
      "hit": false,
      "t": 165000,
      "d": 500,
      "v": 127
    },
    {
      "midi": 61,
      "hit": false,
      "t": 165000,
      "d": 500,
      "v": 127
    },
    {
      "midi": 52,
      "hit": false,
      "t": 165500,
      "d": 500,
      "v": 127
    },
    {
      "midi": 56,
      "hit": false,
      "t": 165500,
      "d": 500,
      "v": 127
    },
    {
      "midi": 61,
      "hit": false,
      "t": 165500,
      "d": 500,
      "v": 127
    },
    {
      "midi": 49,
      "hit": false,
      "t": 166000,
      "d": 500,
      "v": 127
    },
    {
      "midi": 52,
      "hit": false,
      "t": 166500,
      "d": 500,
      "v": 127
    },
    {
      "midi": 56,
      "hit": false,
      "t": 166500,
      "d": 500,
      "v": 127
    },
    {
      "midi": 61,
      "hit": false,
      "t": 166500,
      "d": 500,
      "v": 127
    },
    {
      "midi": 85,
      "hit": false,
      "t": 167000,
      "d": 500,
      "v": 127
    },
    {
      "midi": 52,
      "hit": false,
      "t": 167000,
      "d": 500,
      "v": 127
    },
    {
      "midi": 56,
      "hit": false,
      "t": 167000,
      "d": 500,
      "v": 127
    },
    {
      "midi": 61,
      "hit": false,
      "t": 167000,
      "d": 500,
      "v": 127
    },
    {
      "midi": 83,
      "hit": false,
      "t": 167500,
      "d": 500,
      "v": 127
    },
    {
      "midi": 52,
      "hit": false,
      "t": 167500,
      "d": 500,
      "v": 127
    },
    {
      "midi": 56,
      "hit": false,
      "t": 167500,
      "d": 500,
      "v": 127
    },
    {
      "midi": 61,
      "hit": false,
      "t": 167500,
      "d": 500,
      "v": 127
    },
    {
      "midi": 81,
      "hit": false,
      "t": 168000,
      "d": 1000,
      "v": 127
    },
    {
      "midi": 54,
      "hit": false,
      "t": 168000,
      "d": 500,
      "v": 127
    },
    {
      "midi": 57,
      "hit": false,
      "t": 168500,
      "d": 500,
      "v": 127
    },
    {
      "midi": 61,
      "hit": false,
      "t": 168500,
      "d": 500,
      "v": 127
    },
    {
      "midi": 80,
      "hit": false,
      "t": 169000,
      "d": 500,
      "v": 127
    },
    {
      "midi": 57,
      "hit": false,
      "t": 169000,
      "d": 500,
      "v": 127
    },
    {
      "midi": 61,
      "hit": false,
      "t": 169000,
      "d": 500,
      "v": 127
    },
    {
      "midi": 78,
      "hit": false,
      "t": 169500,
      "d": 500,
      "v": 127
    },
    {
      "midi": 57,
      "hit": false,
      "t": 169500,
      "d": 500,
      "v": 127
    },
    {
      "midi": 61,
      "hit": false,
      "t": 169500,
      "d": 500,
      "v": 127
    },
    {
      "midi": 76,
      "hit": false,
      "t": 170000,
      "d": 1000,
      "v": 127
    },
    {
      "midi": 55,
      "hit": false,
      "t": 170000,
      "d": 500,
      "v": 127
    },
    {
      "midi": 58,
      "hit": false,
      "t": 170500,
      "d": 500,
      "v": 127
    },
    {
      "midi": 64,
      "hit": false,
      "t": 170500,
      "d": 500,
      "v": 127
    },
    {
      "midi": 75,
      "hit": false,
      "t": 171000,
      "d": 500,
      "v": 127
    },
    {
      "midi": 58,
      "hit": false,
      "t": 171000,
      "d": 500,
      "v": 127
    },
    {
      "midi": 64,
      "hit": false,
      "t": 171000,
      "d": 500,
      "v": 127
    },
    {
      "midi": 73,
      "hit": false,
      "t": 171500,
      "d": 500,
      "v": 127
    },
    {
      "midi": 58,
      "hit": false,
      "t": 171500,
      "d": 500,
      "v": 127
    },
    {
      "midi": 64,
      "hit": false,
      "t": 171500,
      "d": 500,
      "v": 127
    },
    {
      "midi": 75,
      "hit": false,
      "t": 172000,
      "d": 500,
      "v": 127
    },
    {
      "midi": 76,
      "hit": false,
      "t": 172000,
      "d": 500,
      "v": 127
    },
    {
      "midi": 56,
      "hit": false,
      "t": 172000,
      "d": 500,
      "v": 127
    },
    {
      "midi": 74,
      "hit": false,
      "t": 172500,
      "d": 500,
      "v": 127
    },
    {
      "midi": 60,
      "hit": false,
      "t": 172500,
      "d": 500,
      "v": 127
    },
    {
      "midi": 63,
      "hit": false,
      "t": 172500,
      "d": 500,
      "v": 127
    },
    {
      "midi": 75,
      "hit": false,
      "t": 173000,
      "d": 500,
      "v": 127
    },
    {
      "midi": 60,
      "hit": false,
      "t": 173000,
      "d": 500,
      "v": 127
    },
    {
      "midi": 63,
      "hit": false,
      "t": 173000,
      "d": 500,
      "v": 127
    },
    {
      "midi": 74,
      "hit": false,
      "t": 173500,
      "d": 500,
      "v": 127
    },
    {
      "midi": 60,
      "hit": false,
      "t": 173500,
      "d": 500,
      "v": 127
    },
    {
      "midi": 63,
      "hit": false,
      "t": 173500,
      "d": 500,
      "v": 127
    },
    {
      "midi": 75,
      "hit": false,
      "t": 174000,
      "d": 500,
      "v": 127
    },
    {
      "midi": 44,
      "hit": false,
      "t": 174000,
      "d": 500,
      "v": 127
    },
    {
      "midi": 56,
      "hit": false,
      "t": 174000,
      "d": 500,
      "v": 127
    },
    {
      "midi": 76,
      "hit": false,
      "t": 174500,
      "d": 500,
      "v": 127
    },
    {
      "midi": 60,
      "hit": false,
      "t": 174500,
      "d": 500,
      "v": 127
    },
    {
      "midi": 63,
      "hit": false,
      "t": 174500,
      "d": 500,
      "v": 127
    },
    {
      "midi": 78,
      "hit": false,
      "t": 175000,
      "d": 500,
      "v": 127
    },
    {
      "midi": 60,
      "hit": false,
      "t": 175000,
      "d": 500,
      "v": 127
    },
    {
      "midi": 63,
      "hit": false,
      "t": 175000,
      "d": 500,
      "v": 127
    },
    {
      "midi": 80,
      "hit": false,
      "t": 175500,
      "d": 500,
      "v": 127
    },
    {
      "midi": 60,
      "hit": false,
      "t": 175500,
      "d": 500,
      "v": 127
    },
    {
      "midi": 63,
      "hit": false,
      "t": 175500,
      "d": 500,
      "v": 127
    },
    {
      "midi": 80,
      "hit": false,
      "t": 176000,
      "d": 250,
      "v": 127
    },
    {
      "midi": 49,
      "hit": false,
      "t": 176000,
      "d": 500,
      "v": 127
    },
    {
      "midi": 78,
      "hit": false,
      "t": 176250,
      "d": 250,
      "v": 127
    },
    {
      "midi": 76,
      "hit": false,
      "t": 176500,
      "d": 250,
      "v": 127
    },
    {
      "midi": 52,
      "hit": false,
      "t": 176500,
      "d": 500,
      "v": 127
    },
    {
      "midi": 56,
      "hit": false,
      "t": 176500,
      "d": 500,
      "v": 127
    },
    {
      "midi": 61,
      "hit": false,
      "t": 176500,
      "d": 500,
      "v": 127
    },
    {
      "midi": 75,
      "hit": false,
      "t": 176750,
      "d": 250,
      "v": 127
    },
    {
      "midi": 73,
      "hit": false,
      "t": 177000,
      "d": 1000,
      "v": 127
    },
    {
      "midi": 52,
      "hit": false,
      "t": 177000,
      "d": 500,
      "v": 127
    },
    {
      "midi": 56,
      "hit": false,
      "t": 177000,
      "d": 500,
      "v": 127
    },
    {
      "midi": 61,
      "hit": false,
      "t": 177000,
      "d": 500,
      "v": 127
    },
    {
      "midi": 52,
      "hit": false,
      "t": 177500,
      "d": 500,
      "v": 127
    },
    {
      "midi": 56,
      "hit": false,
      "t": 177500,
      "d": 500,
      "v": 127
    },
    {
      "midi": 61,
      "hit": false,
      "t": 177500,
      "d": 500,
      "v": 127
    },
    {
      "midi": 49,
      "hit": false,
      "t": 178000,
      "d": 1000,
      "v": 127
    },
    {
      "midi": 73,
      "hit": false,
      "t": 179000,
      "d": 500,
      "v": 127
    },
    {
      "midi": 73,
      "hit": false,
      "t": 179500,
      "d": 500,
      "v": 127
    },
    {
      "midi": 78,
      "hit": false,
      "t": 180000,
      "d": 1000,
      "v": 127
    },
    {
      "midi": 47,
      "hit": false,
      "t": 180000,
      "d": 2000,
      "v": 127
    },
    {
      "midi": 50,
      "hit": false,
      "t": 180000,
      "d": 2000,
      "v": 127
    },
    {
      "midi": 59,
      "hit": false,
      "t": 180000,
      "d": 2000,
      "v": 127
    },
    {
      "midi": 74,
      "hit": false,
      "t": 181000,
      "d": 500,
      "v": 127
    },
    {
      "midi": 71,
      "hit": false,
      "t": 181500,
      "d": 500,
      "v": 127
    },
    {
      "midi": 68,
      "hit": false,
      "t": 182000,
      "d": 1000,
      "v": 127
    },
    {
      "midi": 52,
      "hit": false,
      "t": 182000,
      "d": 2000,
      "v": 127
    },
    {
      "midi": 56,
      "hit": false,
      "t": 182000,
      "d": 2000,
      "v": 127
    },
    {
      "midi": 59,
      "hit": false,
      "t": 182000,
      "d": 2000,
      "v": 127
    },
    {
      "midi": 68,
      "hit": false,
      "t": 183000,
      "d": 500,
      "v": 127
    },
    {
      "midi": 68,
      "hit": false,
      "t": 183500,
      "d": 500,
      "v": 127
    },
    {
      "midi": 76,
      "hit": false,
      "t": 184000,
      "d": 1000,
      "v": 127
    },
    {
      "midi": 49,
      "hit": false,
      "t": 184000,
      "d": 2000,
      "v": 127
    },
    {
      "midi": 57,
      "hit": false,
      "t": 184000,
      "d": 2000,
      "v": 127
    },
    {
      "midi": 73,
      "hit": false,
      "t": 185000,
      "d": 500,
      "v": 127
    },
    {
      "midi": 69,
      "hit": false,
      "t": 185500,
      "d": 500,
      "v": 127
    },
    {
      "midi": 66,
      "hit": false,
      "t": 186000,
      "d": 1000,
      "v": 127
    },
    {
      "midi": 51,
      "hit": false,
      "t": 186000,
      "d": 2000,
      "v": 127
    },
    {
      "midi": 57,
      "hit": false,
      "t": 186000,
      "d": 2000,
      "v": 127
    },
    {
      "midi": 60,
      "hit": false,
      "t": 186000,
      "d": 2000,
      "v": 127
    },
    {
      "midi": 68,
      "hit": false,
      "t": 187000,
      "d": 500,
      "v": 127
    },
    {
      "midi": 69,
      "hit": false,
      "t": 187500,
      "d": 500,
      "v": 127
    },
    {
      "midi": 64,
      "hit": false,
      "t": 188000,
      "d": 1000,
      "v": 127
    },
    {
      "midi": 52,
      "hit": false,
      "t": 188000,
      "d": 1000,
      "v": 127
    },
    {
      "midi": 57,
      "hit": false,
      "t": 188000,
      "d": 1000,
      "v": 127
    },
    {
      "midi": 61,
      "hit": false,
      "t": 188000,
      "d": 1000,
      "v": 127
    },
    {
      "midi": 73,
      "hit": false,
      "t": 189000,
      "d": 750,
      "v": 127
    },
    {
      "midi": 52,
      "hit": false,
      "t": 189000,
      "d": 1000,
      "v": 127
    },
    {
      "midi": 57,
      "hit": false,
      "t": 189000,
      "d": 1000,
      "v": 127
    },
    {
      "midi": 61,
      "hit": false,
      "t": 189000,
      "d": 1000,
      "v": 127
    },
    {
      "midi": 74,
      "hit": false,
      "t": 189750,
      "d": 250,
      "v": 127
    },
    {
      "midi": 71,
      "hit": false,
      "t": 190000,
      "d": 1000,
      "v": 127
    },
    {
      "midi": 50,
      "hit": false,
      "t": 190000,
      "d": 1000,
      "v": 127
    },
    {
      "midi": 54,
      "hit": false,
      "t": 190000,
      "d": 1000,
      "v": 127
    },
    {
      "midi": 57,
      "hit": false,
      "t": 190000,
      "d": 1000,
      "v": 127
    },
    {
      "midi": 59,
      "hit": false,
      "t": 190000,
      "d": 1000,
      "v": 127
    },
    {
      "midi": 76,
      "hit": false,
      "t": 191000,
      "d": 1000,
      "v": 127
    },
    {
      "midi": 52,
      "hit": false,
      "t": 191000,
      "d": 1000,
      "v": 127
    },
    {
      "midi": 56,
      "hit": false,
      "t": 191000,
      "d": 1000,
      "v": 127
    },
    {
      "midi": 59,
      "hit": false,
      "t": 191000,
      "d": 1000,
      "v": 127
    },
    {
      "midi": 69,
      "hit": false,
      "t": 192000,
      "d": 1000,
      "v": 127
    },
    {
      "midi": 45,
      "hit": false,
      "t": 192000,
      "d": 500,
      "v": 127
    },
    {
      "midi": 49,
      "hit": false,
      "t": 192500,
      "d": 500,
      "v": 127
    },
    {
      "midi": 52,
      "hit": false,
      "t": 192500,
      "d": 500,
      "v": 127
    },
    {
      "midi": 57,
      "hit": false,
      "t": 192500,
      "d": 500,
      "v": 127
    },
    {
      "midi": 45,
      "hit": false,
      "t": 193000,
      "d": 500,
      "v": 127
    },
    {
      "midi": 49,
      "hit": false,
      "t": 193500,
      "d": 500,
      "v": 127
    },
    {
      "midi": 52,
      "hit": false,
      "t": 193500,
      "d": 500,
      "v": 127
    },
    {
      "midi": 57,
      "hit": false,
      "t": 193500,
      "d": 500,
      "v": 127
    },
    {
      "midi": 45,
      "hit": false,
      "t": 194000,
      "d": 500,
      "v": 127
    },
    {
      "midi": 49,
      "hit": false,
      "t": 194500,
      "d": 500,
      "v": 127
    },
    {
      "midi": 52,
      "hit": false,
      "t": 194500,
      "d": 500,
      "v": 127
    },
    {
      "midi": 57,
      "hit": false,
      "t": 194500,
      "d": 500,
      "v": 127
    },
    {
      "midi": 45,
      "hit": false,
      "t": 195000,
      "d": 500,
      "v": 127
    },
    {
      "midi": 49,
      "hit": false,
      "t": 195500,
      "d": 500,
      "v": 127
    },
    {
      "midi": 52,
      "hit": false,
      "t": 195500,
      "d": 500,
      "v": 127
    },
    {
      "midi": 57,
      "hit": false,
      "t": 195500,
      "d": 500,
      "v": 127
    },
    {
      "midi": 64,
      "hit": false,
      "t": 196000,
      "d": 3000,
      "v": 127
    },
    {
      "midi": 45,
      "hit": false,
      "t": 196000,
      "d": 500,
      "v": 127
    },
    {
      "midi": 49,
      "hit": false,
      "t": 196500,
      "d": 500,
      "v": 127
    },
    {
      "midi": 52,
      "hit": false,
      "t": 196500,
      "d": 500,
      "v": 127
    },
    {
      "midi": 57,
      "hit": false,
      "t": 196500,
      "d": 500,
      "v": 127
    },
    {
      "midi": 45,
      "hit": false,
      "t": 197000,
      "d": 500,
      "v": 127
    },
    {
      "midi": 49,
      "hit": false,
      "t": 197500,
      "d": 500,
      "v": 127
    },
    {
      "midi": 52,
      "hit": false,
      "t": 197500,
      "d": 500,
      "v": 127
    },
    {
      "midi": 57,
      "hit": false,
      "t": 197500,
      "d": 500,
      "v": 127
    },
    {
      "midi": 45,
      "hit": false,
      "t": 198000,
      "d": 500,
      "v": 127
    },
    {
      "midi": 49,
      "hit": false,
      "t": 198500,
      "d": 500,
      "v": 127
    },
    {
      "midi": 52,
      "hit": false,
      "t": 198500,
      "d": 500,
      "v": 127
    },
    {
      "midi": 57,
      "hit": false,
      "t": 198500,
      "d": 500,
      "v": 127
    },
    {
      "midi": 73,
      "hit": false,
      "t": 199000,
      "d": 500,
      "v": 127
    },
    {
      "midi": 45,
      "hit": false,
      "t": 199000,
      "d": 500,
      "v": 127
    },
    {
      "midi": 71,
      "hit": false,
      "t": 199500,
      "d": 500,
      "v": 127
    },
    {
      "midi": 49,
      "hit": false,
      "t": 199500,
      "d": 500,
      "v": 127
    },
    {
      "midi": 52,
      "hit": false,
      "t": 199500,
      "d": 500,
      "v": 127
    },
    {
      "midi": 57,
      "hit": false,
      "t": 199500,
      "d": 500,
      "v": 127
    },
    {
      "midi": 69,
      "hit": false,
      "t": 200000,
      "d": 1000,
      "v": 127
    },
    {
      "midi": 45,
      "hit": false,
      "t": 200000,
      "d": 500,
      "v": 127
    },
    {
      "midi": 49,
      "hit": false,
      "t": 200500,
      "d": 500,
      "v": 127
    },
    {
      "midi": 52,
      "hit": false,
      "t": 200500,
      "d": 500,
      "v": 127
    },
    {
      "midi": 57,
      "hit": false,
      "t": 200500,
      "d": 500,
      "v": 127
    },
    {
      "midi": 73,
      "hit": false,
      "t": 201000,
      "d": 500,
      "v": 127
    },
    {
      "midi": 45,
      "hit": false,
      "t": 201000,
      "d": 500,
      "v": 127
    },
    {
      "midi": 78,
      "hit": false,
      "t": 201500,
      "d": 500,
      "v": 127
    },
    {
      "midi": 49,
      "hit": false,
      "t": 201500,
      "d": 500,
      "v": 127
    },
    {
      "midi": 52,
      "hit": false,
      "t": 201500,
      "d": 500,
      "v": 127
    },
    {
      "midi": 57,
      "hit": false,
      "t": 201500,
      "d": 500,
      "v": 127
    },
    {
      "midi": 76,
      "hit": false,
      "t": 202000,
      "d": 1000,
      "v": 127
    },
    {
      "midi": 45,
      "hit": false,
      "t": 202000,
      "d": 500,
      "v": 127
    },
    {
      "midi": 49,
      "hit": false,
      "t": 202500,
      "d": 500,
      "v": 127
    },
    {
      "midi": 52,
      "hit": false,
      "t": 202500,
      "d": 500,
      "v": 127
    },
    {
      "midi": 57,
      "hit": false,
      "t": 202500,
      "d": 500,
      "v": 127
    },
    {
      "midi": 81,
      "hit": false,
      "t": 203000,
      "d": 1000,
      "v": 127
    },
    {
      "midi": 45,
      "hit": false,
      "t": 203000,
      "d": 500,
      "v": 127
    },
    {
      "midi": 49,
      "hit": false,
      "t": 203500,
      "d": 500,
      "v": 127
    },
    {
      "midi": 52,
      "hit": false,
      "t": 203500,
      "d": 500,
      "v": 127
    },
    {
      "midi": 57,
      "hit": false,
      "t": 203500,
      "d": 500,
      "v": 127
    },
    {
      "midi": 80,
      "hit": false,
      "t": 204000,
      "d": 500,
      "v": 127
    },
    {
      "midi": 52,
      "hit": false,
      "t": 204000,
      "d": 500,
      "v": 127
    },
    {
      "midi": 76,
      "hit": false,
      "t": 204500,
      "d": 500,
      "v": 127
    },
    {
      "midi": 56,
      "hit": false,
      "t": 204500,
      "d": 500,
      "v": 127
    },
    {
      "midi": 59,
      "hit": false,
      "t": 204500,
      "d": 500,
      "v": 127
    },
    {
      "midi": 78,
      "hit": false,
      "t": 205000,
      "d": 1000,
      "v": 127
    },
    {
      "midi": 80,
      "hit": false,
      "t": 205000,
      "d": 1000,
      "v": 127
    },
    {
      "midi": 52,
      "hit": false,
      "t": 205000,
      "d": 500,
      "v": 127
    },
    {
      "midi": 56,
      "hit": false,
      "t": 205500,
      "d": 500,
      "v": 127
    },
    {
      "midi": 59,
      "hit": false,
      "t": 205500,
      "d": 500,
      "v": 127
    },
    {
      "midi": 76,
      "hit": false,
      "t": 206000,
      "d": 500,
      "v": 127
    },
    {
      "midi": 52,
      "hit": false,
      "t": 206000,
      "d": 500,
      "v": 127
    },
    {
      "midi": 73,
      "hit": false,
      "t": 206500,
      "d": 500,
      "v": 127
    },
    {
      "midi": 56,
      "hit": false,
      "t": 206500,
      "d": 500,
      "v": 127
    },
    {
      "midi": 59,
      "hit": false,
      "t": 206500,
      "d": 500,
      "v": 127
    },
    {
      "midi": 74,
      "hit": false,
      "t": 207000,
      "d": 500,
      "v": 127
    },
    {
      "midi": 76,
      "hit": false,
      "t": 207000,
      "d": 500,
      "v": 127
    },
    {
      "midi": 52,
      "hit": false,
      "t": 207000,
      "d": 500,
      "v": 127
    },
    {
      "midi": 71,
      "hit": false,
      "t": 207500,
      "d": 500,
      "v": 127
    },
    {
      "midi": 56,
      "hit": false,
      "t": 207500,
      "d": 500,
      "v": 127
    },
    {
      "midi": 59,
      "hit": false,
      "t": 207500,
      "d": 500,
      "v": 127
    },
    {
      "midi": 73,
      "hit": false,
      "t": 208000,
      "d": 500,
      "v": 127
    },
    {
      "midi": 45,
      "hit": false,
      "t": 208000,
      "d": 500,
      "v": 127
    },
    {
      "midi": 85,
      "hit": false,
      "t": 208500,
      "d": 250,
      "v": 127
    },
    {
      "midi": 49,
      "hit": false,
      "t": 208500,
      "d": 500,
      "v": 127
    },
    {
      "midi": 52,
      "hit": false,
      "t": 208500,
      "d": 500,
      "v": 127
    },
    {
      "midi": 57,
      "hit": false,
      "t": 208500,
      "d": 500,
      "v": 127
    },
    {
      "midi": 86,
      "hit": false,
      "t": 208750,
      "d": 250,
      "v": 127
    },
    {
      "midi": 87,
      "hit": false,
      "t": 209000,
      "d": 500,
      "v": 127
    },
    {
      "midi": 45,
      "hit": false,
      "t": 209000,
      "d": 500,
      "v": 127
    },
    {
      "midi": 88,
      "hit": false,
      "t": 209500,
      "d": 500,
      "v": 127
    },
    {
      "midi": 49,
      "hit": false,
      "t": 209500,
      "d": 500,
      "v": 127
    },
    {
      "midi": 52,
      "hit": false,
      "t": 209500,
      "d": 500,
      "v": 127
    },
    {
      "midi": 57,
      "hit": false,
      "t": 209500,
      "d": 500,
      "v": 127
    },
    {
      "midi": 89,
      "hit": false,
      "t": 210000,
      "d": 500,
      "v": 127
    },
    {
      "midi": 44,
      "hit": false,
      "t": 210000,
      "d": 500,
      "v": 127
    },
    {
      "midi": 90,
      "hit": false,
      "t": 210500,
      "d": 500,
      "v": 127
    },
    {
      "midi": 47,
      "hit": false,
      "t": 210500,
      "d": 500,
      "v": 127
    },
    {
      "midi": 49,
      "hit": false,
      "t": 210500,
      "d": 500,
      "v": 127
    },
    {
      "midi": 53,
      "hit": false,
      "t": 210500,
      "d": 500,
      "v": 127
    },
    {
      "midi": 91,
      "hit": false,
      "t": 211000,
      "d": 500,
      "v": 127
    },
    {
      "midi": 44,
      "hit": false,
      "t": 211000,
      "d": 500,
      "v": 127
    },
    {
      "midi": 92,
      "hit": false,
      "t": 211500,
      "d": 500,
      "v": 127
    },
    {
      "midi": 47,
      "hit": false,
      "t": 211500,
      "d": 500,
      "v": 127
    },
    {
      "midi": 49,
      "hit": false,
      "t": 211500,
      "d": 500,
      "v": 127
    },
    {
      "midi": 53,
      "hit": false,
      "t": 211500,
      "d": 500,
      "v": 127
    },
    {
      "midi": 93,
      "hit": false,
      "t": 212000,
      "d": 500,
      "v": 127
    },
    {
      "midi": 42,
      "hit": false,
      "t": 212000,
      "d": 500,
      "v": 127
    },
    {
      "midi": 89,
      "hit": false,
      "t": 212500,
      "d": 250,
      "v": 127
    },
    {
      "midi": 45,
      "hit": false,
      "t": 212500,
      "d": 500,
      "v": 127
    },
    {
      "midi": 49,
      "hit": false,
      "t": 212500,
      "d": 500,
      "v": 127
    },
    {
      "midi": 54,
      "hit": false,
      "t": 212500,
      "d": 500,
      "v": 127
    },
    {
      "midi": 92,
      "hit": false,
      "t": 212750,
      "d": 250,
      "v": 127
    },
    {
      "midi": 90,
      "hit": false,
      "t": 213000,
      "d": 500,
      "v": 127
    },
    {
      "midi": 50,
      "hit": false,
      "t": 213000,
      "d": 500,
      "v": 127
    },
    {
      "midi": 85,
      "hit": false,
      "t": 213500,
      "d": 250,
      "v": 127
    },
    {
      "midi": 54,
      "hit": false,
      "t": 213500,
      "d": 500,
      "v": 127
    },
    {
      "midi": 59,
      "hit": false,
      "t": 213500,
      "d": 500,
      "v": 127
    },
    {
      "midi": 88,
      "hit": false,
      "t": 213750,
      "d": 250,
      "v": 127
    },
    {
      "midi": 86,
      "hit": false,
      "t": 214000,
      "d": 500,
      "v": 127
    },
    {
      "midi": 47,
      "hit": false,
      "t": 214000,
      "d": 500,
      "v": 127
    },
    {
      "midi": 82,
      "hit": false,
      "t": 214500,
      "d": 250,
      "v": 127
    },
    {
      "midi": 50,
      "hit": false,
      "t": 214500,
      "d": 500,
      "v": 127
    },
    {
      "midi": 54,
      "hit": false,
      "t": 214500,
      "d": 500,
      "v": 127
    },
    {
      "midi": 59,
      "hit": false,
      "t": 214500,
      "d": 500,
      "v": 127
    },
    {
      "midi": 85,
      "hit": false,
      "t": 214750,
      "d": 250,
      "v": 127
    },
    {
      "midi": 83,
      "hit": false,
      "t": 215000,
      "d": 500,
      "v": 127
    },
    {
      "midi": 52,
      "hit": false,
      "t": 215000,
      "d": 500,
      "v": 127
    },
    {
      "midi": 88,
      "hit": false,
      "t": 215500,
      "d": 500,
      "v": 127
    },
    {
      "midi": 56,
      "hit": false,
      "t": 215500,
      "d": 500,
      "v": 127
    },
    {
      "midi": 59,
      "hit": false,
      "t": 215500,
      "d": 500,
      "v": 127
    },
    {
      "midi": 85,
      "hit": false,
      "t": 216000,
      "d": 500,
      "v": 127
    },
    {
      "midi": 45,
      "hit": false,
      "t": 216000,
      "d": 500,
      "v": 127
    },
    {
      "midi": 85,
      "hit": false,
      "t": 216500,
      "d": 250,
      "v": 127
    },
    {
      "midi": 49,
      "hit": false,
      "t": 216500,
      "d": 500,
      "v": 127
    },
    {
      "midi": 52,
      "hit": false,
      "t": 216500,
      "d": 500,
      "v": 127
    },
    {
      "midi": 57,
      "hit": false,
      "t": 216500,
      "d": 500,
      "v": 127
    },
    {
      "midi": 86,
      "hit": false,
      "t": 216750,
      "d": 250,
      "v": 127
    },
    {
      "midi": 87,
      "hit": false,
      "t": 217000,
      "d": 500,
      "v": 127
    },
    {
      "midi": 45,
      "hit": false,
      "t": 217000,
      "d": 500,
      "v": 127
    },
    {
      "midi": 88,
      "hit": false,
      "t": 217500,
      "d": 500,
      "v": 127
    },
    {
      "midi": 49,
      "hit": false,
      "t": 217500,
      "d": 500,
      "v": 127
    },
    {
      "midi": 52,
      "hit": false,
      "t": 217500,
      "d": 500,
      "v": 127
    },
    {
      "midi": 57,
      "hit": false,
      "t": 217500,
      "d": 500,
      "v": 127
    },
    {
      "midi": 89,
      "hit": false,
      "t": 218000,
      "d": 500,
      "v": 127
    },
    {
      "midi": 44,
      "hit": false,
      "t": 218000,
      "d": 500,
      "v": 127
    },
    {
      "midi": 90,
      "hit": false,
      "t": 218500,
      "d": 500,
      "v": 127
    },
    {
      "midi": 47,
      "hit": false,
      "t": 218500,
      "d": 500,
      "v": 127
    },
    {
      "midi": 49,
      "hit": false,
      "t": 218500,
      "d": 500,
      "v": 127
    },
    {
      "midi": 53,
      "hit": false,
      "t": 218500,
      "d": 500,
      "v": 127
    },
    {
      "midi": 91,
      "hit": false,
      "t": 219000,
      "d": 500,
      "v": 127
    },
    {
      "midi": 44,
      "hit": false,
      "t": 219000,
      "d": 500,
      "v": 127
    },
    {
      "midi": 92,
      "hit": false,
      "t": 219500,
      "d": 500,
      "v": 127
    },
    {
      "midi": 47,
      "hit": false,
      "t": 219500,
      "d": 500,
      "v": 127
    },
    {
      "midi": 49,
      "hit": false,
      "t": 219500,
      "d": 500,
      "v": 127
    },
    {
      "midi": 53,
      "hit": false,
      "t": 219500,
      "d": 500,
      "v": 127
    },
    {
      "midi": 93,
      "hit": false,
      "t": 220000,
      "d": 500,
      "v": 127
    },
    {
      "midi": 42,
      "hit": false,
      "t": 220000,
      "d": 500,
      "v": 127
    },
    {
      "midi": 89,
      "hit": false,
      "t": 220500,
      "d": 250,
      "v": 127
    },
    {
      "midi": 45,
      "hit": false,
      "t": 220500,
      "d": 500,
      "v": 127
    },
    {
      "midi": 49,
      "hit": false,
      "t": 220500,
      "d": 500,
      "v": 127
    },
    {
      "midi": 54,
      "hit": false,
      "t": 220500,
      "d": 500,
      "v": 127
    },
    {
      "midi": 92,
      "hit": false,
      "t": 220750,
      "d": 250,
      "v": 127
    },
    {
      "midi": 90,
      "hit": false,
      "t": 221000,
      "d": 500,
      "v": 127
    },
    {
      "midi": 50,
      "hit": false,
      "t": 221000,
      "d": 500,
      "v": 127
    },
    {
      "midi": 85,
      "hit": false,
      "t": 221500,
      "d": 250,
      "v": 127
    },
    {
      "midi": 54,
      "hit": false,
      "t": 221500,
      "d": 500,
      "v": 127
    },
    {
      "midi": 59,
      "hit": false,
      "t": 221500,
      "d": 500,
      "v": 127
    },
    {
      "midi": 88,
      "hit": false,
      "t": 221750,
      "d": 250,
      "v": 127
    },
    {
      "midi": 86,
      "hit": false,
      "t": 222000,
      "d": 500,
      "v": 127
    },
    {
      "midi": 47,
      "hit": false,
      "t": 222000,
      "d": 500,
      "v": 127
    },
    {
      "midi": 82,
      "hit": false,
      "t": 222500,
      "d": 250,
      "v": 127
    },
    {
      "midi": 50,
      "hit": false,
      "t": 222500,
      "d": 500,
      "v": 127
    },
    {
      "midi": 54,
      "hit": false,
      "t": 222500,
      "d": 500,
      "v": 127
    },
    {
      "midi": 59,
      "hit": false,
      "t": 222500,
      "d": 500,
      "v": 127
    },
    {
      "midi": 85,
      "hit": false,
      "t": 222750,
      "d": 250,
      "v": 127
    },
    {
      "midi": 83,
      "hit": false,
      "t": 223000,
      "d": 500,
      "v": 127
    },
    {
      "midi": 52,
      "hit": false,
      "t": 223000,
      "d": 500,
      "v": 127
    },
    {
      "midi": 88,
      "hit": false,
      "t": 223500,
      "d": 500,
      "v": 127
    },
    {
      "midi": 56,
      "hit": false,
      "t": 223500,
      "d": 500,
      "v": 127
    },
    {
      "midi": 59,
      "hit": false,
      "t": 223500,
      "d": 500,
      "v": 127
    },
    {
      "midi": 81,
      "hit": false,
      "t": 224000,
      "d": 1000,
      "v": 127
    },
    {
      "midi": 45,
      "hit": false,
      "t": 224000,
      "d": 1000,
      "v": 127
    },
    {
      "midi": 49,
      "hit": false,
      "t": 224000,
      "d": 1000,
      "v": 127
    },
    {
      "midi": 52,
      "hit": false,
      "t": 224000,
      "d": 1000,
      "v": 127
    },
    {
      "midi": 57,
      "hit": false,
      "t": 224000,
      "d": 1000,
      "v": 127
    },
    {
      "midi": 81,
      "hit": false,
      "t": 225000,
      "d": 500,
      "v": 127
    },
    {
      "midi": 80,
      "hit": false,
      "t": 225500,
      "d": 500,
      "v": 127
    },
    {
      "midi": 81,
      "hit": false,
      "t": 226000,
      "d": 500,
      "v": 127
    },
    {
      "midi": 80,
      "hit": false,
      "t": 226500,
      "d": 500,
      "v": 127
    },
    {
      "midi": 81,
      "hit": false,
      "t": 227000,
      "d": 500,
      "v": 127
    },
    {
      "midi": 80,
      "hit": false,
      "t": 227500,
      "d": 500,
      "v": 127
    },
    {
      "midi": 81,
      "hit": false,
      "t": 228000,
      "d": 1000,
      "v": 127
    },
    {
      "midi": 80,
      "hit": false,
      "t": 229000,
      "d": 1000,
      "v": 127
    },
    {
      "midi": 81,
      "hit": false,
      "t": 230000,
      "d": 1000,
      "v": 127
    },
    {
      "midi": 80,
      "hit": false,
      "t": 231000,
      "d": 1000,
      "v": 127
    },
    {
      "midi": 81,
      "hit": false,
      "t": 232000,
      "d": 1500,
      "v": 127
    },
    {
      "midi": 50,
      "hit": false,
      "t": 232000,
      "d": 500,
      "v": 127
    },
    {
      "midi": 54,
      "hit": false,
      "t": 232500,
      "d": 500,
      "v": 127
    },
    {
      "midi": 57,
      "hit": false,
      "t": 232500,
      "d": 500,
      "v": 127
    },
    {
      "midi": 62,
      "hit": false,
      "t": 232500,
      "d": 500,
      "v": 127
    },
    {
      "midi": 54,
      "hit": false,
      "t": 233000,
      "d": 500,
      "v": 127
    },
    {
      "midi": 57,
      "hit": false,
      "t": 233000,
      "d": 500,
      "v": 127
    },
    {
      "midi": 62,
      "hit": false,
      "t": 233000,
      "d": 500,
      "v": 127
    },
    {
      "midi": 80,
      "hit": false,
      "t": 233500,
      "d": 500,
      "v": 127
    },
    {
      "midi": 54,
      "hit": false,
      "t": 233500,
      "d": 500,
      "v": 127
    },
    {
      "midi": 57,
      "hit": false,
      "t": 233500,
      "d": 500,
      "v": 127
    },
    {
      "midi": 62,
      "hit": false,
      "t": 233500,
      "d": 500,
      "v": 127
    },
    {
      "midi": 81,
      "hit": false,
      "t": 234000,
      "d": 1500,
      "v": 127
    },
    {
      "midi": 54,
      "hit": false,
      "t": 234000,
      "d": 500,
      "v": 127
    },
    {
      "midi": 57,
      "hit": false,
      "t": 234000,
      "d": 500,
      "v": 127
    },
    {
      "midi": 62,
      "hit": false,
      "t": 234000,
      "d": 500,
      "v": 127
    },
    {
      "midi": 54,
      "hit": false,
      "t": 234500,
      "d": 500,
      "v": 127
    },
    {
      "midi": 57,
      "hit": false,
      "t": 234500,
      "d": 500,
      "v": 127
    },
    {
      "midi": 62,
      "hit": false,
      "t": 234500,
      "d": 500,
      "v": 127
    },
    {
      "midi": 54,
      "hit": false,
      "t": 235000,
      "d": 500,
      "v": 127
    },
    {
      "midi": 57,
      "hit": false,
      "t": 235000,
      "d": 500,
      "v": 127
    },
    {
      "midi": 62,
      "hit": false,
      "t": 235000,
      "d": 500,
      "v": 127
    },
    {
      "midi": 80,
      "hit": false,
      "t": 235500,
      "d": 500,
      "v": 127
    },
    {
      "midi": 54,
      "hit": false,
      "t": 235500,
      "d": 500,
      "v": 127
    },
    {
      "midi": 57,
      "hit": false,
      "t": 235500,
      "d": 500,
      "v": 127
    },
    {
      "midi": 62,
      "hit": false,
      "t": 235500,
      "d": 500,
      "v": 127
    },
    {
      "midi": 81,
      "hit": false,
      "t": 236000,
      "d": 1500,
      "v": 127
    },
    {
      "midi": 50,
      "hit": false,
      "t": 236000,
      "d": 500,
      "v": 127
    },
    {
      "midi": 54,
      "hit": false,
      "t": 236500,
      "d": 500,
      "v": 127
    },
    {
      "midi": 57,
      "hit": false,
      "t": 236500,
      "d": 500,
      "v": 127
    },
    {
      "midi": 62,
      "hit": false,
      "t": 236500,
      "d": 500,
      "v": 127
    },
    {
      "midi": 54,
      "hit": false,
      "t": 237000,
      "d": 500,
      "v": 127
    },
    {
      "midi": 57,
      "hit": false,
      "t": 237000,
      "d": 500,
      "v": 127
    },
    {
      "midi": 62,
      "hit": false,
      "t": 237000,
      "d": 500,
      "v": 127
    },
    {
      "midi": 85,
      "hit": false,
      "t": 237500,
      "d": 500,
      "v": 127
    },
    {
      "midi": 54,
      "hit": false,
      "t": 237500,
      "d": 500,
      "v": 127
    },
    {
      "midi": 57,
      "hit": false,
      "t": 237500,
      "d": 500,
      "v": 127
    },
    {
      "midi": 62,
      "hit": false,
      "t": 237500,
      "d": 500,
      "v": 127
    },
    {
      "midi": 88,
      "hit": false,
      "t": 238000,
      "d": 1500,
      "v": 127
    },
    {
      "midi": 54,
      "hit": false,
      "t": 238000,
      "d": 500,
      "v": 127
    },
    {
      "midi": 57,
      "hit": false,
      "t": 238000,
      "d": 500,
      "v": 127
    },
    {
      "midi": 62,
      "hit": false,
      "t": 238000,
      "d": 500,
      "v": 127
    },
    {
      "midi": 54,
      "hit": false,
      "t": 238500,
      "d": 500,
      "v": 127
    },
    {
      "midi": 57,
      "hit": false,
      "t": 238500,
      "d": 500,
      "v": 127
    },
    {
      "midi": 62,
      "hit": false,
      "t": 238500,
      "d": 500,
      "v": 127
    },
    {
      "midi": 54,
      "hit": false,
      "t": 239000,
      "d": 500,
      "v": 127
    },
    {
      "midi": 57,
      "hit": false,
      "t": 239000,
      "d": 500,
      "v": 127
    },
    {
      "midi": 62,
      "hit": false,
      "t": 239000,
      "d": 500,
      "v": 127
    },
    {
      "midi": 86,
      "hit": false,
      "t": 239500,
      "d": 500,
      "v": 127
    },
    {
      "midi": 54,
      "hit": false,
      "t": 239500,
      "d": 500,
      "v": 127
    },
    {
      "midi": 57,
      "hit": false,
      "t": 239500,
      "d": 500,
      "v": 127
    },
    {
      "midi": 62,
      "hit": false,
      "t": 239500,
      "d": 500,
      "v": 127
    },
    {
      "midi": 76,
      "hit": false,
      "t": 240000,
      "d": 1500,
      "v": 127
    },
    {
      "midi": 59,
      "hit": false,
      "t": 240000,
      "d": 500,
      "v": 127
    },
    {
      "midi": 62,
      "hit": false,
      "t": 240500,
      "d": 500,
      "v": 127
    },
    {
      "midi": 64,
      "hit": false,
      "t": 240500,
      "d": 500,
      "v": 127
    },
    {
      "midi": 68,
      "hit": false,
      "t": 240500,
      "d": 500,
      "v": 127
    },
    {
      "midi": 62,
      "hit": false,
      "t": 241000,
      "d": 500,
      "v": 127
    },
    {
      "midi": 64,
      "hit": false,
      "t": 241000,
      "d": 500,
      "v": 127
    },
    {
      "midi": 68,
      "hit": false,
      "t": 241000,
      "d": 500,
      "v": 127
    },
    {
      "midi": 75,
      "hit": false,
      "t": 241500,
      "d": 500,
      "v": 127
    },
    {
      "midi": 62,
      "hit": false,
      "t": 241500,
      "d": 500,
      "v": 127
    },
    {
      "midi": 64,
      "hit": false,
      "t": 241500,
      "d": 500,
      "v": 127
    },
    {
      "midi": 68,
      "hit": false,
      "t": 241500,
      "d": 500,
      "v": 127
    },
    {
      "midi": 76,
      "hit": false,
      "t": 242000,
      "d": 1500,
      "v": 127
    },
    {
      "midi": 58,
      "hit": false,
      "t": 242000,
      "d": 500,
      "v": 127
    },
    {
      "midi": 62,
      "hit": false,
      "t": 242500,
      "d": 500,
      "v": 127
    },
    {
      "midi": 64,
      "hit": false,
      "t": 242500,
      "d": 500,
      "v": 127
    },
    {
      "midi": 68,
      "hit": false,
      "t": 242500,
      "d": 500,
      "v": 127
    },
    {
      "midi": 62,
      "hit": false,
      "t": 243000,
      "d": 500,
      "v": 127
    },
    {
      "midi": 64,
      "hit": false,
      "t": 243000,
      "d": 500,
      "v": 127
    },
    {
      "midi": 68,
      "hit": false,
      "t": 243000,
      "d": 500,
      "v": 127
    },
    {
      "midi": 75,
      "hit": false,
      "t": 243500,
      "d": 500,
      "v": 127
    },
    {
      "midi": 62,
      "hit": false,
      "t": 243500,
      "d": 500,
      "v": 127
    },
    {
      "midi": 64,
      "hit": false,
      "t": 243500,
      "d": 500,
      "v": 127
    },
    {
      "midi": 68,
      "hit": false,
      "t": 243500,
      "d": 500,
      "v": 127
    },
    {
      "midi": 76,
      "hit": false,
      "t": 244000,
      "d": 1500,
      "v": 127
    },
    {
      "midi": 57,
      "hit": false,
      "t": 244000,
      "d": 500,
      "v": 127
    },
    {
      "midi": 61,
      "hit": false,
      "t": 244500,
      "d": 500,
      "v": 127
    },
    {
      "midi": 64,
      "hit": false,
      "t": 244500,
      "d": 500,
      "v": 127
    },
    {
      "midi": 67,
      "hit": false,
      "t": 244500,
      "d": 500,
      "v": 127
    },
    {
      "midi": 61,
      "hit": false,
      "t": 245000,
      "d": 500,
      "v": 127
    },
    {
      "midi": 64,
      "hit": false,
      "t": 245000,
      "d": 500,
      "v": 127
    },
    {
      "midi": 67,
      "hit": false,
      "t": 245000,
      "d": 500,
      "v": 127
    },
    {
      "midi": 78,
      "hit": false,
      "t": 245500,
      "d": 500,
      "v": 127
    },
    {
      "midi": 61,
      "hit": false,
      "t": 245500,
      "d": 500,
      "v": 127
    },
    {
      "midi": 64,
      "hit": false,
      "t": 245500,
      "d": 500,
      "v": 127
    },
    {
      "midi": 67,
      "hit": false,
      "t": 245500,
      "d": 500,
      "v": 127
    },
    {
      "midi": 79,
      "hit": false,
      "t": 246000,
      "d": 1500,
      "v": 127
    },
    {
      "midi": 55,
      "hit": false,
      "t": 246000,
      "d": 500,
      "v": 127
    },
    {
      "midi": 57,
      "hit": false,
      "t": 246500,
      "d": 500,
      "v": 127
    },
    {
      "midi": 61,
      "hit": false,
      "t": 246500,
      "d": 500,
      "v": 127
    },
    {
      "midi": 64,
      "hit": false,
      "t": 246500,
      "d": 500,
      "v": 127
    },
    {
      "midi": 57,
      "hit": false,
      "t": 247000,
      "d": 500,
      "v": 127
    },
    {
      "midi": 61,
      "hit": false,
      "t": 247000,
      "d": 500,
      "v": 127
    },
    {
      "midi": 64,
      "hit": false,
      "t": 247000,
      "d": 500,
      "v": 127
    },
    {
      "midi": 80,
      "hit": false,
      "t": 247500,
      "d": 500,
      "v": 127
    },
    {
      "midi": 57,
      "hit": false,
      "t": 247500,
      "d": 500,
      "v": 127
    },
    {
      "midi": 61,
      "hit": false,
      "t": 247500,
      "d": 500,
      "v": 127
    },
    {
      "midi": 64,
      "hit": false,
      "t": 247500,
      "d": 500,
      "v": 127
    },
    {
      "midi": 83,
      "hit": false,
      "t": 248000,
      "d": 1500,
      "v": 127
    },
    {
      "midi": 54,
      "hit": false,
      "t": 248000,
      "d": 500,
      "v": 127
    },
    {
      "midi": 57,
      "hit": false,
      "t": 248500,
      "d": 500,
      "v": 127
    },
    {
      "midi": 62,
      "hit": false,
      "t": 248500,
      "d": 500,
      "v": 127
    },
    {
      "midi": 66,
      "hit": false,
      "t": 248500,
      "d": 500,
      "v": 127
    },
    {
      "midi": 57,
      "hit": false,
      "t": 249000,
      "d": 500,
      "v": 127
    },
    {
      "midi": 62,
      "hit": false,
      "t": 249000,
      "d": 500,
      "v": 127
    },
    {
      "midi": 66,
      "hit": false,
      "t": 249000,
      "d": 500,
      "v": 127
    },
    {
      "midi": 81,
      "hit": false,
      "t": 249500,
      "d": 500,
      "v": 127
    },
    {
      "midi": 57,
      "hit": false,
      "t": 249500,
      "d": 500,
      "v": 127
    },
    {
      "midi": 62,
      "hit": false,
      "t": 249500,
      "d": 500,
      "v": 127
    },
    {
      "midi": 66,
      "hit": false,
      "t": 249500,
      "d": 500,
      "v": 127
    },
    {
      "midi": 74,
      "hit": false,
      "t": 250000,
      "d": 1500,
      "v": 127
    },
    {
      "midi": 59,
      "hit": false,
      "t": 250000,
      "d": 500,
      "v": 127
    },
    {
      "midi": 62,
      "hit": false,
      "t": 250500,
      "d": 500,
      "v": 127
    },
    {
      "midi": 66,
      "hit": false,
      "t": 250500,
      "d": 500,
      "v": 127
    },
    {
      "midi": 62,
      "hit": false,
      "t": 251000,
      "d": 500,
      "v": 127
    },
    {
      "midi": 66,
      "hit": false,
      "t": 251000,
      "d": 500,
      "v": 127
    },
    {
      "midi": 75,
      "hit": false,
      "t": 251500,
      "d": 500,
      "v": 127
    },
    {
      "midi": 62,
      "hit": false,
      "t": 251500,
      "d": 500,
      "v": 127
    },
    {
      "midi": 66,
      "hit": false,
      "t": 251500,
      "d": 500,
      "v": 127
    },
    {
      "midi": 78,
      "hit": false,
      "t": 252000,
      "d": 1500,
      "v": 127
    },
    {
      "midi": 52,
      "hit": false,
      "t": 252000,
      "d": 500,
      "v": 127
    },
    {
      "midi": 59,
      "hit": false,
      "t": 252500,
      "d": 500,
      "v": 127
    },
    {
      "midi": 62,
      "hit": false,
      "t": 252500,
      "d": 500,
      "v": 127
    },
    {
      "midi": 64,
      "hit": false,
      "t": 252500,
      "d": 500,
      "v": 127
    },
    {
      "midi": 59,
      "hit": false,
      "t": 253000,
      "d": 500,
      "v": 127
    },
    {
      "midi": 62,
      "hit": false,
      "t": 253000,
      "d": 500,
      "v": 127
    },
    {
      "midi": 64,
      "hit": false,
      "t": 253000,
      "d": 500,
      "v": 127
    },
    {
      "midi": 76,
      "hit": false,
      "t": 253500,
      "d": 500,
      "v": 127
    },
    {
      "midi": 59,
      "hit": false,
      "t": 253500,
      "d": 500,
      "v": 127
    },
    {
      "midi": 62,
      "hit": false,
      "t": 253500,
      "d": 500,
      "v": 127
    },
    {
      "midi": 64,
      "hit": false,
      "t": 253500,
      "d": 500,
      "v": 127
    },
    {
      "midi": 78,
      "hit": false,
      "t": 254000,
      "d": 1500,
      "v": 127
    },
    {
      "midi": 52,
      "hit": false,
      "t": 254000,
      "d": 500,
      "v": 127
    },
    {
      "midi": 59,
      "hit": false,
      "t": 254500,
      "d": 500,
      "v": 127
    },
    {
      "midi": 62,
      "hit": false,
      "t": 254500,
      "d": 500,
      "v": 127
    },
    {
      "midi": 64,
      "hit": false,
      "t": 254500,
      "d": 500,
      "v": 127
    },
    {
      "midi": 59,
      "hit": false,
      "t": 255000,
      "d": 500,
      "v": 127
    },
    {
      "midi": 62,
      "hit": false,
      "t": 255000,
      "d": 500,
      "v": 127
    },
    {
      "midi": 64,
      "hit": false,
      "t": 255000,
      "d": 500,
      "v": 127
    },
    {
      "midi": 76,
      "hit": false,
      "t": 255500,
      "d": 500,
      "v": 127
    },
    {
      "midi": 59,
      "hit": false,
      "t": 255500,
      "d": 500,
      "v": 127
    },
    {
      "midi": 62,
      "hit": false,
      "t": 255500,
      "d": 500,
      "v": 127
    },
    {
      "midi": 64,
      "hit": false,
      "t": 255500,
      "d": 500,
      "v": 127
    },
    {
      "midi": 78,
      "hit": false,
      "t": 256000,
      "d": 1500,
      "v": 127
    },
    {
      "midi": 57,
      "hit": false,
      "t": 256000,
      "d": 500,
      "v": 127
    },
    {
      "midi": 61,
      "hit": false,
      "t": 256500,
      "d": 500,
      "v": 127
    },
    {
      "midi": 64,
      "hit": false,
      "t": 256500,
      "d": 500,
      "v": 127
    },
    {
      "midi": 61,
      "hit": false,
      "t": 257000,
      "d": 1000,
      "v": 127
    },
    {
      "midi": 64,
      "hit": false,
      "t": 257000,
      "d": 1000,
      "v": 127
    },
    {
      "midi": 76,
      "hit": false,
      "t": 257500,
      "d": 500,
      "v": 127
    },
    {
      "midi": 74,
      "hit": false,
      "t": 258000,
      "d": 500,
      "v": 127
    },
    {
      "midi": 73,
      "hit": false,
      "t": 258500,
      "d": 500,
      "v": 127
    },
    {
      "midi": 71,
      "hit": false,
      "t": 259000,
      "d": 500,
      "v": 127
    },
    {
      "midi": 69,
      "hit": false,
      "t": 259500,
      "d": 500,
      "v": 127
    },
    {
      "midi": 81,
      "hit": false,
      "t": 260000,
      "d": 1500,
      "v": 127
    },
    {
      "midi": 50,
      "hit": false,
      "t": 260000,
      "d": 500,
      "v": 127
    },
    {
      "midi": 54,
      "hit": false,
      "t": 260500,
      "d": 500,
      "v": 127
    },
    {
      "midi": 57,
      "hit": false,
      "t": 260500,
      "d": 500,
      "v": 127
    },
    {
      "midi": 62,
      "hit": false,
      "t": 260500,
      "d": 500,
      "v": 127
    },
    {
      "midi": 54,
      "hit": false,
      "t": 261000,
      "d": 500,
      "v": 127
    },
    {
      "midi": 57,
      "hit": false,
      "t": 261000,
      "d": 500,
      "v": 127
    },
    {
      "midi": 62,
      "hit": false,
      "t": 261000,
      "d": 500,
      "v": 127
    },
    {
      "midi": 80,
      "hit": false,
      "t": 261500,
      "d": 500,
      "v": 127
    },
    {
      "midi": 54,
      "hit": false,
      "t": 261500,
      "d": 500,
      "v": 127
    },
    {
      "midi": 57,
      "hit": false,
      "t": 261500,
      "d": 500,
      "v": 127
    },
    {
      "midi": 62,
      "hit": false,
      "t": 261500,
      "d": 500,
      "v": 127
    },
    {
      "midi": 81,
      "hit": false,
      "t": 262000,
      "d": 1500,
      "v": 127
    },
    {
      "midi": 54,
      "hit": false,
      "t": 262000,
      "d": 500,
      "v": 127
    },
    {
      "midi": 57,
      "hit": false,
      "t": 262000,
      "d": 500,
      "v": 127
    },
    {
      "midi": 62,
      "hit": false,
      "t": 262000,
      "d": 500,
      "v": 127
    },
    {
      "midi": 54,
      "hit": false,
      "t": 262500,
      "d": 500,
      "v": 127
    },
    {
      "midi": 57,
      "hit": false,
      "t": 262500,
      "d": 500,
      "v": 127
    },
    {
      "midi": 62,
      "hit": false,
      "t": 262500,
      "d": 500,
      "v": 127
    },
    {
      "midi": 54,
      "hit": false,
      "t": 263000,
      "d": 500,
      "v": 127
    },
    {
      "midi": 57,
      "hit": false,
      "t": 263000,
      "d": 500,
      "v": 127
    },
    {
      "midi": 62,
      "hit": false,
      "t": 263000,
      "d": 500,
      "v": 127
    },
    {
      "midi": 80,
      "hit": false,
      "t": 263500,
      "d": 500,
      "v": 127
    },
    {
      "midi": 54,
      "hit": false,
      "t": 263500,
      "d": 500,
      "v": 127
    },
    {
      "midi": 57,
      "hit": false,
      "t": 263500,
      "d": 500,
      "v": 127
    },
    {
      "midi": 62,
      "hit": false,
      "t": 263500,
      "d": 500,
      "v": 127
    },
    {
      "midi": 81,
      "hit": false,
      "t": 264000,
      "d": 1500,
      "v": 127
    },
    {
      "midi": 50,
      "hit": false,
      "t": 264000,
      "d": 500,
      "v": 127
    },
    {
      "midi": 54,
      "hit": false,
      "t": 264500,
      "d": 500,
      "v": 127
    },
    {
      "midi": 57,
      "hit": false,
      "t": 264500,
      "d": 500,
      "v": 127
    },
    {
      "midi": 62,
      "hit": false,
      "t": 264500,
      "d": 500,
      "v": 127
    },
    {
      "midi": 54,
      "hit": false,
      "t": 265000,
      "d": 500,
      "v": 127
    },
    {
      "midi": 57,
      "hit": false,
      "t": 265000,
      "d": 500,
      "v": 127
    },
    {
      "midi": 62,
      "hit": false,
      "t": 265000,
      "d": 500,
      "v": 127
    },
    {
      "midi": 85,
      "hit": false,
      "t": 265500,
      "d": 500,
      "v": 127
    },
    {
      "midi": 54,
      "hit": false,
      "t": 265500,
      "d": 500,
      "v": 127
    },
    {
      "midi": 57,
      "hit": false,
      "t": 265500,
      "d": 500,
      "v": 127
    },
    {
      "midi": 62,
      "hit": false,
      "t": 265500,
      "d": 500,
      "v": 127
    },
    {
      "midi": 88,
      "hit": false,
      "t": 266000,
      "d": 1500,
      "v": 127
    },
    {
      "midi": 54,
      "hit": false,
      "t": 266000,
      "d": 500,
      "v": 127
    },
    {
      "midi": 57,
      "hit": false,
      "t": 266000,
      "d": 500,
      "v": 127
    },
    {
      "midi": 62,
      "hit": false,
      "t": 266000,
      "d": 500,
      "v": 127
    },
    {
      "midi": 54,
      "hit": false,
      "t": 266500,
      "d": 500,
      "v": 127
    },
    {
      "midi": 57,
      "hit": false,
      "t": 266500,
      "d": 500,
      "v": 127
    },
    {
      "midi": 62,
      "hit": false,
      "t": 266500,
      "d": 500,
      "v": 127
    },
    {
      "midi": 54,
      "hit": false,
      "t": 267000,
      "d": 500,
      "v": 127
    },
    {
      "midi": 57,
      "hit": false,
      "t": 267000,
      "d": 500,
      "v": 127
    },
    {
      "midi": 62,
      "hit": false,
      "t": 267000,
      "d": 500,
      "v": 127
    },
    {
      "midi": 86,
      "hit": false,
      "t": 267500,
      "d": 500,
      "v": 127
    },
    {
      "midi": 54,
      "hit": false,
      "t": 267500,
      "d": 500,
      "v": 127
    },
    {
      "midi": 57,
      "hit": false,
      "t": 267500,
      "d": 500,
      "v": 127
    },
    {
      "midi": 62,
      "hit": false,
      "t": 267500,
      "d": 500,
      "v": 127
    },
    {
      "midi": 76,
      "hit": false,
      "t": 268000,
      "d": 1500,
      "v": 127
    },
    {
      "midi": 59,
      "hit": false,
      "t": 268000,
      "d": 500,
      "v": 127
    },
    {
      "midi": 62,
      "hit": false,
      "t": 268500,
      "d": 500,
      "v": 127
    },
    {
      "midi": 64,
      "hit": false,
      "t": 268500,
      "d": 500,
      "v": 127
    },
    {
      "midi": 68,
      "hit": false,
      "t": 268500,
      "d": 500,
      "v": 127
    },
    {
      "midi": 62,
      "hit": false,
      "t": 269000,
      "d": 500,
      "v": 127
    },
    {
      "midi": 64,
      "hit": false,
      "t": 269000,
      "d": 500,
      "v": 127
    },
    {
      "midi": 68,
      "hit": false,
      "t": 269000,
      "d": 500,
      "v": 127
    },
    {
      "midi": 75,
      "hit": false,
      "t": 269500,
      "d": 500,
      "v": 127
    },
    {
      "midi": 62,
      "hit": false,
      "t": 269500,
      "d": 500,
      "v": 127
    },
    {
      "midi": 64,
      "hit": false,
      "t": 269500,
      "d": 500,
      "v": 127
    },
    {
      "midi": 68,
      "hit": false,
      "t": 269500,
      "d": 500,
      "v": 127
    },
    {
      "midi": 76,
      "hit": false,
      "t": 270000,
      "d": 1500,
      "v": 127
    },
    {
      "midi": 58,
      "hit": false,
      "t": 270000,
      "d": 500,
      "v": 127
    },
    {
      "midi": 62,
      "hit": false,
      "t": 270500,
      "d": 500,
      "v": 127
    },
    {
      "midi": 64,
      "hit": false,
      "t": 270500,
      "d": 500,
      "v": 127
    },
    {
      "midi": 68,
      "hit": false,
      "t": 270500,
      "d": 500,
      "v": 127
    },
    {
      "midi": 62,
      "hit": false,
      "t": 271000,
      "d": 500,
      "v": 127
    },
    {
      "midi": 64,
      "hit": false,
      "t": 271000,
      "d": 500,
      "v": 127
    },
    {
      "midi": 68,
      "hit": false,
      "t": 271000,
      "d": 500,
      "v": 127
    },
    {
      "midi": 75,
      "hit": false,
      "t": 271500,
      "d": 500,
      "v": 127
    },
    {
      "midi": 62,
      "hit": false,
      "t": 271500,
      "d": 500,
      "v": 127
    },
    {
      "midi": 64,
      "hit": false,
      "t": 271500,
      "d": 500,
      "v": 127
    },
    {
      "midi": 68,
      "hit": false,
      "t": 271500,
      "d": 500,
      "v": 127
    },
    {
      "midi": 76,
      "hit": false,
      "t": 272000,
      "d": 1500,
      "v": 127
    },
    {
      "midi": 57,
      "hit": false,
      "t": 272000,
      "d": 500,
      "v": 127
    },
    {
      "midi": 61,
      "hit": false,
      "t": 272500,
      "d": 500,
      "v": 127
    },
    {
      "midi": 64,
      "hit": false,
      "t": 272500,
      "d": 500,
      "v": 127
    },
    {
      "midi": 67,
      "hit": false,
      "t": 272500,
      "d": 500,
      "v": 127
    },
    {
      "midi": 61,
      "hit": false,
      "t": 273000,
      "d": 500,
      "v": 127
    },
    {
      "midi": 64,
      "hit": false,
      "t": 273000,
      "d": 500,
      "v": 127
    },
    {
      "midi": 67,
      "hit": false,
      "t": 273000,
      "d": 500,
      "v": 127
    },
    {
      "midi": 78,
      "hit": false,
      "t": 273500,
      "d": 500,
      "v": 127
    },
    {
      "midi": 61,
      "hit": false,
      "t": 273500,
      "d": 500,
      "v": 127
    },
    {
      "midi": 64,
      "hit": false,
      "t": 273500,
      "d": 500,
      "v": 127
    },
    {
      "midi": 67,
      "hit": false,
      "t": 273500,
      "d": 500,
      "v": 127
    },
    {
      "midi": 79,
      "hit": false,
      "t": 274000,
      "d": 1500,
      "v": 127
    },
    {
      "midi": 55,
      "hit": false,
      "t": 274000,
      "d": 500,
      "v": 127
    },
    {
      "midi": 57,
      "hit": false,
      "t": 274500,
      "d": 500,
      "v": 127
    },
    {
      "midi": 61,
      "hit": false,
      "t": 274500,
      "d": 500,
      "v": 127
    },
    {
      "midi": 64,
      "hit": false,
      "t": 274500,
      "d": 500,
      "v": 127
    },
    {
      "midi": 57,
      "hit": false,
      "t": 275000,
      "d": 500,
      "v": 127
    },
    {
      "midi": 61,
      "hit": false,
      "t": 275000,
      "d": 500,
      "v": 127
    },
    {
      "midi": 64,
      "hit": false,
      "t": 275000,
      "d": 500,
      "v": 127
    },
    {
      "midi": 80,
      "hit": false,
      "t": 275500,
      "d": 500,
      "v": 127
    },
    {
      "midi": 57,
      "hit": false,
      "t": 275500,
      "d": 500,
      "v": 127
    },
    {
      "midi": 61,
      "hit": false,
      "t": 275500,
      "d": 500,
      "v": 127
    },
    {
      "midi": 64,
      "hit": false,
      "t": 275500,
      "d": 500,
      "v": 127
    },
    {
      "midi": 83,
      "hit": false,
      "t": 276000,
      "d": 1500,
      "v": 127
    },
    {
      "midi": 54,
      "hit": false,
      "t": 276000,
      "d": 500,
      "v": 127
    },
    {
      "midi": 57,
      "hit": false,
      "t": 276500,
      "d": 500,
      "v": 127
    },
    {
      "midi": 62,
      "hit": false,
      "t": 276500,
      "d": 500,
      "v": 127
    },
    {
      "midi": 66,
      "hit": false,
      "t": 276500,
      "d": 500,
      "v": 127
    },
    {
      "midi": 57,
      "hit": false,
      "t": 277000,
      "d": 500,
      "v": 127
    },
    {
      "midi": 62,
      "hit": false,
      "t": 277000,
      "d": 500,
      "v": 127
    },
    {
      "midi": 66,
      "hit": false,
      "t": 277000,
      "d": 500,
      "v": 127
    },
    {
      "midi": 81,
      "hit": false,
      "t": 277500,
      "d": 500,
      "v": 127
    },
    {
      "midi": 57,
      "hit": false,
      "t": 277500,
      "d": 500,
      "v": 127
    },
    {
      "midi": 62,
      "hit": false,
      "t": 277500,
      "d": 500,
      "v": 127
    },
    {
      "midi": 66,
      "hit": false,
      "t": 277500,
      "d": 500,
      "v": 127
    },
    {
      "midi": 74,
      "hit": false,
      "t": 278000,
      "d": 1500,
      "v": 127
    },
    {
      "midi": 59,
      "hit": false,
      "t": 278000,
      "d": 500,
      "v": 127
    },
    {
      "midi": 62,
      "hit": false,
      "t": 278500,
      "d": 500,
      "v": 127
    },
    {
      "midi": 66,
      "hit": false,
      "t": 278500,
      "d": 500,
      "v": 127
    },
    {
      "midi": 62,
      "hit": false,
      "t": 279000,
      "d": 500,
      "v": 127
    },
    {
      "midi": 66,
      "hit": false,
      "t": 279000,
      "d": 500,
      "v": 127
    },
    {
      "midi": 75,
      "hit": false,
      "t": 279500,
      "d": 500,
      "v": 127
    },
    {
      "midi": 62,
      "hit": false,
      "t": 279500,
      "d": 500,
      "v": 127
    },
    {
      "midi": 66,
      "hit": false,
      "t": 279500,
      "d": 500,
      "v": 127
    },
    {
      "midi": 78,
      "hit": false,
      "t": 280000,
      "d": 1500,
      "v": 127
    },
    {
      "midi": 52,
      "hit": false,
      "t": 280000,
      "d": 500,
      "v": 127
    },
    {
      "midi": 55,
      "hit": false,
      "t": 280500,
      "d": 500,
      "v": 127
    },
    {
      "midi": 59,
      "hit": false,
      "t": 280500,
      "d": 500,
      "v": 127
    },
    {
      "midi": 64,
      "hit": false,
      "t": 280500,
      "d": 500,
      "v": 127
    },
    {
      "midi": 55,
      "hit": false,
      "t": 281000,
      "d": 500,
      "v": 127
    },
    {
      "midi": 59,
      "hit": false,
      "t": 281000,
      "d": 500,
      "v": 127
    },
    {
      "midi": 64,
      "hit": false,
      "t": 281000,
      "d": 500,
      "v": 127
    },
    {
      "midi": 76,
      "hit": false,
      "t": 281500,
      "d": 500,
      "v": 127
    },
    {
      "midi": 55,
      "hit": false,
      "t": 281500,
      "d": 500,
      "v": 127
    },
    {
      "midi": 59,
      "hit": false,
      "t": 281500,
      "d": 500,
      "v": 127
    },
    {
      "midi": 64,
      "hit": false,
      "t": 281500,
      "d": 500,
      "v": 127
    },
    {
      "midi": 71,
      "hit": false,
      "t": 282000,
      "d": 1500,
      "v": 127
    },
    {
      "midi": 57,
      "hit": false,
      "t": 282000,
      "d": 500,
      "v": 127
    },
    {
      "midi": 61,
      "hit": false,
      "t": 282500,
      "d": 500,
      "v": 127
    },
    {
      "midi": 64,
      "hit": false,
      "t": 282500,
      "d": 500,
      "v": 127
    },
    {
      "midi": 67,
      "hit": false,
      "t": 282500,
      "d": 500,
      "v": 127
    },
    {
      "midi": 61,
      "hit": false,
      "t": 283000,
      "d": 500,
      "v": 127
    },
    {
      "midi": 64,
      "hit": false,
      "t": 283000,
      "d": 500,
      "v": 127
    },
    {
      "midi": 67,
      "hit": false,
      "t": 283000,
      "d": 500,
      "v": 127
    },
    {
      "midi": 73,
      "hit": false,
      "t": 283500,
      "d": 500,
      "v": 127
    },
    {
      "midi": 61,
      "hit": false,
      "t": 283500,
      "d": 500,
      "v": 127
    },
    {
      "midi": 64,
      "hit": false,
      "t": 283500,
      "d": 500,
      "v": 127
    },
    {
      "midi": 67,
      "hit": false,
      "t": 283500,
      "d": 500,
      "v": 127
    },
    {
      "midi": 83,
      "hit": false,
      "t": 284000,
      "d": 1500,
      "v": 127
    },
    {
      "midi": 54,
      "hit": false,
      "t": 284000,
      "d": 500,
      "v": 127
    },
    {
      "midi": 57,
      "hit": false,
      "t": 284500,
      "d": 500,
      "v": 127
    },
    {
      "midi": 62,
      "hit": false,
      "t": 284500,
      "d": 500,
      "v": 127
    },
    {
      "midi": 66,
      "hit": false,
      "t": 284500,
      "d": 500,
      "v": 127
    },
    {
      "midi": 57,
      "hit": false,
      "t": 285000,
      "d": 500,
      "v": 127
    },
    {
      "midi": 62,
      "hit": false,
      "t": 285000,
      "d": 500,
      "v": 127
    },
    {
      "midi": 66,
      "hit": false,
      "t": 285000,
      "d": 500,
      "v": 127
    },
    {
      "midi": 81,
      "hit": false,
      "t": 285500,
      "d": 500,
      "v": 127
    },
    {
      "midi": 57,
      "hit": false,
      "t": 285500,
      "d": 500,
      "v": 127
    },
    {
      "midi": 62,
      "hit": false,
      "t": 285500,
      "d": 500,
      "v": 127
    },
    {
      "midi": 66,
      "hit": false,
      "t": 285500,
      "d": 500,
      "v": 127
    },
    {
      "midi": 74,
      "hit": false,
      "t": 286000,
      "d": 1500,
      "v": 127
    },
    {
      "midi": 59,
      "hit": false,
      "t": 286000,
      "d": 500,
      "v": 127
    },
    {
      "midi": 62,
      "hit": false,
      "t": 286500,
      "d": 500,
      "v": 127
    },
    {
      "midi": 66,
      "hit": false,
      "t": 286500,
      "d": 500,
      "v": 127
    },
    {
      "midi": 62,
      "hit": false,
      "t": 287000,
      "d": 500,
      "v": 127
    },
    {
      "midi": 66,
      "hit": false,
      "t": 287000,
      "d": 500,
      "v": 127
    },
    {
      "midi": 75,
      "hit": false,
      "t": 287500,
      "d": 500,
      "v": 127
    },
    {
      "midi": 62,
      "hit": false,
      "t": 287500,
      "d": 500,
      "v": 127
    },
    {
      "midi": 66,
      "hit": false,
      "t": 287500,
      "d": 500,
      "v": 127
    },
    {
      "midi": 78,
      "hit": false,
      "t": 288000,
      "d": 1500,
      "v": 127
    },
    {
      "midi": 55,
      "hit": false,
      "t": 288000,
      "d": 500,
      "v": 127
    },
    {
      "midi": 59,
      "hit": false,
      "t": 288500,
      "d": 500,
      "v": 127
    },
    {
      "midi": 64,
      "hit": false,
      "t": 288500,
      "d": 500,
      "v": 127
    },
    {
      "midi": 67,
      "hit": false,
      "t": 288500,
      "d": 500,
      "v": 127
    },
    {
      "midi": 59,
      "hit": false,
      "t": 289000,
      "d": 500,
      "v": 127
    },
    {
      "midi": 64,
      "hit": false,
      "t": 289000,
      "d": 500,
      "v": 127
    },
    {
      "midi": 67,
      "hit": false,
      "t": 289000,
      "d": 500,
      "v": 127
    },
    {
      "midi": 76,
      "hit": false,
      "t": 289500,
      "d": 500,
      "v": 127
    },
    {
      "midi": 59,
      "hit": false,
      "t": 289500,
      "d": 500,
      "v": 127
    },
    {
      "midi": 64,
      "hit": false,
      "t": 289500,
      "d": 500,
      "v": 127
    },
    {
      "midi": 67,
      "hit": false,
      "t": 289500,
      "d": 500,
      "v": 127
    },
    {
      "midi": 71,
      "hit": false,
      "t": 290000,
      "d": 1500,
      "v": 127
    },
    {
      "midi": 57,
      "hit": false,
      "t": 290000,
      "d": 500,
      "v": 127
    },
    {
      "midi": 61,
      "hit": false,
      "t": 290500,
      "d": 500,
      "v": 127
    },
    {
      "midi": 64,
      "hit": false,
      "t": 290500,
      "d": 500,
      "v": 127
    },
    {
      "midi": 67,
      "hit": false,
      "t": 290500,
      "d": 500,
      "v": 127
    },
    {
      "midi": 61,
      "hit": false,
      "t": 291000,
      "d": 500,
      "v": 127
    },
    {
      "midi": 64,
      "hit": false,
      "t": 291000,
      "d": 500,
      "v": 127
    },
    {
      "midi": 67,
      "hit": false,
      "t": 291000,
      "d": 500,
      "v": 127
    },
    {
      "midi": 73,
      "hit": false,
      "t": 291500,
      "d": 500,
      "v": 127
    },
    {
      "midi": 61,
      "hit": false,
      "t": 291500,
      "d": 500,
      "v": 127
    },
    {
      "midi": 64,
      "hit": false,
      "t": 291500,
      "d": 500,
      "v": 127
    },
    {
      "midi": 67,
      "hit": false,
      "t": 291500,
      "d": 500,
      "v": 127
    },
    {
      "midi": 83,
      "hit": false,
      "t": 292000,
      "d": 1500,
      "v": 127
    },
    {
      "midi": 54,
      "hit": false,
      "t": 292000,
      "d": 500,
      "v": 127
    },
    {
      "midi": 57,
      "hit": false,
      "t": 292500,
      "d": 500,
      "v": 127
    },
    {
      "midi": 62,
      "hit": false,
      "t": 292500,
      "d": 500,
      "v": 127
    },
    {
      "midi": 66,
      "hit": false,
      "t": 292500,
      "d": 500,
      "v": 127
    },
    {
      "midi": 57,
      "hit": false,
      "t": 293000,
      "d": 500,
      "v": 127
    },
    {
      "midi": 62,
      "hit": false,
      "t": 293000,
      "d": 500,
      "v": 127
    },
    {
      "midi": 66,
      "hit": false,
      "t": 293000,
      "d": 500,
      "v": 127
    },
    {
      "midi": 81,
      "hit": false,
      "t": 293500,
      "d": 500,
      "v": 127
    },
    {
      "midi": 57,
      "hit": false,
      "t": 293500,
      "d": 500,
      "v": 127
    },
    {
      "midi": 62,
      "hit": false,
      "t": 293500,
      "d": 500,
      "v": 127
    },
    {
      "midi": 66,
      "hit": false,
      "t": 293500,
      "d": 500,
      "v": 127
    },
    {
      "midi": 74,
      "hit": false,
      "t": 294000,
      "d": 1500,
      "v": 127
    },
    {
      "midi": 59,
      "hit": false,
      "t": 294000,
      "d": 500,
      "v": 127
    },
    {
      "midi": 62,
      "hit": false,
      "t": 294500,
      "d": 500,
      "v": 127
    },
    {
      "midi": 66,
      "hit": false,
      "t": 294500,
      "d": 500,
      "v": 127
    },
    {
      "midi": 62,
      "hit": false,
      "t": 295000,
      "d": 500,
      "v": 127
    },
    {
      "midi": 66,
      "hit": false,
      "t": 295000,
      "d": 500,
      "v": 127
    },
    {
      "midi": 75,
      "hit": false,
      "t": 295500,
      "d": 500,
      "v": 127
    },
    {
      "midi": 62,
      "hit": false,
      "t": 295500,
      "d": 500,
      "v": 127
    },
    {
      "midi": 66,
      "hit": false,
      "t": 295500,
      "d": 500,
      "v": 127
    },
    {
      "midi": 78,
      "hit": false,
      "t": 296000,
      "d": 1500,
      "v": 127
    },
    {
      "midi": 55,
      "hit": false,
      "t": 296000,
      "d": 500,
      "v": 127
    },
    {
      "midi": 59,
      "hit": false,
      "t": 296500,
      "d": 500,
      "v": 127
    },
    {
      "midi": 64,
      "hit": false,
      "t": 296500,
      "d": 500,
      "v": 127
    },
    {
      "midi": 67,
      "hit": false,
      "t": 296500,
      "d": 500,
      "v": 127
    },
    {
      "midi": 59,
      "hit": false,
      "t": 297000,
      "d": 500,
      "v": 127
    },
    {
      "midi": 64,
      "hit": false,
      "t": 297000,
      "d": 500,
      "v": 127
    },
    {
      "midi": 67,
      "hit": false,
      "t": 297000,
      "d": 500,
      "v": 127
    },
    {
      "midi": 76,
      "hit": false,
      "t": 297500,
      "d": 500,
      "v": 127
    },
    {
      "midi": 59,
      "hit": false,
      "t": 297500,
      "d": 500,
      "v": 127
    },
    {
      "midi": 64,
      "hit": false,
      "t": 297500,
      "d": 500,
      "v": 127
    },
    {
      "midi": 67,
      "hit": false,
      "t": 297500,
      "d": 500,
      "v": 127
    },
    {
      "midi": 71,
      "hit": false,
      "t": 298000,
      "d": 1500,
      "v": 127
    },
    {
      "midi": 57,
      "hit": false,
      "t": 298000,
      "d": 500,
      "v": 127
    },
    {
      "midi": 64,
      "hit": false,
      "t": 298500,
      "d": 500,
      "v": 127
    },
    {
      "midi": 67,
      "hit": false,
      "t": 298500,
      "d": 500,
      "v": 127
    },
    {
      "midi": 64,
      "hit": false,
      "t": 299000,
      "d": 500,
      "v": 127
    },
    {
      "midi": 67,
      "hit": false,
      "t": 299000,
      "d": 500,
      "v": 127
    },
    {
      "midi": 73,
      "hit": false,
      "t": 299500,
      "d": 500,
      "v": 127
    },
    {
      "midi": 64,
      "hit": false,
      "t": 299500,
      "d": 500,
      "v": 127
    },
    {
      "midi": 67,
      "hit": false,
      "t": 299500,
      "d": 500,
      "v": 127
    },
    {
      "midi": 83,
      "hit": false,
      "t": 300000,
      "d": 500,
      "v": 127
    },
    {
      "midi": 54,
      "hit": false,
      "t": 300000,
      "d": 500,
      "v": 127
    },
    {
      "midi": 81,
      "hit": false,
      "t": 300500,
      "d": 500,
      "v": 127
    },
    {
      "midi": 62,
      "hit": false,
      "t": 300500,
      "d": 500,
      "v": 127
    },
    {
      "midi": 66,
      "hit": false,
      "t": 300500,
      "d": 500,
      "v": 127
    },
    {
      "midi": 88,
      "hit": false,
      "t": 301000,
      "d": 500,
      "v": 127
    },
    {
      "midi": 59,
      "hit": false,
      "t": 301000,
      "d": 500,
      "v": 127
    },
    {
      "midi": 86,
      "hit": false,
      "t": 301500,
      "d": 500,
      "v": 127
    },
    {
      "midi": 62,
      "hit": false,
      "t": 301500,
      "d": 500,
      "v": 127
    },
    {
      "midi": 66,
      "hit": false,
      "t": 301500,
      "d": 500,
      "v": 127
    },
    {
      "midi": 78,
      "hit": false,
      "t": 302000,
      "d": 500,
      "v": 127
    },
    {
      "midi": 55,
      "hit": false,
      "t": 302000,
      "d": 500,
      "v": 127
    },
    {
      "midi": 76,
      "hit": false,
      "t": 302500,
      "d": 500,
      "v": 127
    },
    {
      "midi": 59,
      "hit": false,
      "t": 302500,
      "d": 500,
      "v": 127
    },
    {
      "midi": 64,
      "hit": false,
      "t": 302500,
      "d": 500,
      "v": 127
    },
    {
      "midi": 67,
      "hit": false,
      "t": 302500,
      "d": 500,
      "v": 127
    },
    {
      "midi": 83,
      "hit": false,
      "t": 303000,
      "d": 500,
      "v": 127
    },
    {
      "midi": 57,
      "hit": false,
      "t": 303000,
      "d": 500,
      "v": 127
    },
    {
      "midi": 81,
      "hit": false,
      "t": 303500,
      "d": 500,
      "v": 127
    },
    {
      "midi": 61,
      "hit": false,
      "t": 303500,
      "d": 500,
      "v": 127
    },
    {
      "midi": 67,
      "hit": false,
      "t": 303500,
      "d": 500,
      "v": 127
    },
    {
      "midi": 79,
      "hit": false,
      "t": 304000,
      "d": 500,
      "v": 127
    },
    {
      "midi": 54,
      "hit": false,
      "t": 304000,
      "d": 500,
      "v": 127
    },
    {
      "midi": 78,
      "hit": false,
      "t": 304500,
      "d": 500,
      "v": 127
    },
    {
      "midi": 62,
      "hit": false,
      "t": 304500,
      "d": 500,
      "v": 127
    },
    {
      "midi": 66,
      "hit": false,
      "t": 304500,
      "d": 500,
      "v": 127
    },
    {
      "midi": 88,
      "hit": false,
      "t": 305000,
      "d": 500,
      "v": 127
    },
    {
      "midi": 59,
      "hit": false,
      "t": 305000,
      "d": 500,
      "v": 127
    },
    {
      "midi": 86,
      "hit": false,
      "t": 305500,
      "d": 500,
      "v": 127
    },
    {
      "midi": 62,
      "hit": false,
      "t": 305500,
      "d": 500,
      "v": 127
    },
    {
      "midi": 66,
      "hit": false,
      "t": 305500,
      "d": 500,
      "v": 127
    },
    {
      "midi": 78,
      "hit": false,
      "t": 306000,
      "d": 500,
      "v": 127
    },
    {
      "midi": 55,
      "hit": false,
      "t": 306000,
      "d": 500,
      "v": 127
    },
    {
      "midi": 76,
      "hit": false,
      "t": 306500,
      "d": 500,
      "v": 127
    },
    {
      "midi": 59,
      "hit": false,
      "t": 306500,
      "d": 500,
      "v": 127
    },
    {
      "midi": 64,
      "hit": false,
      "t": 306500,
      "d": 500,
      "v": 127
    },
    {
      "midi": 67,
      "hit": false,
      "t": 306500,
      "d": 500,
      "v": 127
    },
    {
      "midi": 83,
      "hit": false,
      "t": 307000,
      "d": 500,
      "v": 127
    },
    {
      "midi": 57,
      "hit": false,
      "t": 307000,
      "d": 500,
      "v": 127
    },
    {
      "midi": 81,
      "hit": false,
      "t": 307500,
      "d": 500,
      "v": 127
    },
    {
      "midi": 61,
      "hit": false,
      "t": 307500,
      "d": 500,
      "v": 127
    },
    {
      "midi": 64,
      "hit": false,
      "t": 307500,
      "d": 500,
      "v": 127
    },
    {
      "midi": 67,
      "hit": false,
      "t": 307500,
      "d": 500,
      "v": 127
    },
    {
      "midi": 74,
      "hit": false,
      "t": 308000,
      "d": 1000,
      "v": 127
    },
    {
      "midi": 62,
      "hit": false,
      "t": 308000,
      "d": 1000,
      "v": 127
    },
    {
      "midi": 66,
      "hit": false,
      "t": 308000,
      "d": 1000,
      "v": 127
    },
    {
      "midi": 69,
      "hit": false,
      "t": 310000,
      "d": 1500,
      "v": 127
    },
    {
      "midi": 69,
      "hit": false,
      "t": 311500,
      "d": 500,
      "v": 127
    },
    {
      "midi": 69,
      "hit": false,
      "t": 312000,
      "d": 1000,
      "v": 127
    },
    {
      "midi": 62,
      "hit": false,
      "t": 313000,
      "d": 1000,
      "v": 127
    },
    {
      "midi": 74,
      "hit": false,
      "t": 315750,
      "d": 250,
      "v": 127
    },
    {
      "midi": 74,
      "hit": false,
      "t": 316000,
      "d": 2000,
      "v": 127
    },
    {
      "midi": 73,
      "hit": false,
      "t": 318000,
      "d": 1500,
      "v": 127
    },
    {
      "midi": 71,
      "hit": false,
      "t": 319500,
      "d": 500,
      "v": 127
    },
    {
      "midi": 70,
      "hit": false,
      "t": 320000,
      "d": 1000,
      "v": 127
    },
    {
      "midi": 54,
      "hit": false,
      "t": 320000,
      "d": 4000,
      "v": 127
    },
    {
      "midi": 58,
      "hit": false,
      "t": 320000,
      "d": 4000,
      "v": 127
    },
    {
      "midi": 61,
      "hit": false,
      "t": 320000,
      "d": 4000,
      "v": 127
    },
    {
      "midi": 66,
      "hit": false,
      "t": 321000,
      "d": 1000,
      "v": 127
    },
    {
      "midi": 78,
      "hit": false,
      "t": 324000,
      "d": 2000,
      "v": 127
    },
    {
      "midi": 54,
      "hit": false,
      "t": 324000,
      "d": 4000,
      "v": 127
    },
    {
      "midi": 59,
      "hit": false,
      "t": 324000,
      "d": 4000,
      "v": 127
    },
    {
      "midi": 62,
      "hit": false,
      "t": 324000,
      "d": 4000,
      "v": 127
    },
    {
      "midi": 76,
      "hit": false,
      "t": 326000,
      "d": 1500,
      "v": 127
    },
    {
      "midi": 74,
      "hit": false,
      "t": 327500,
      "d": 500,
      "v": 127
    },
    {
      "midi": 73,
      "hit": false,
      "t": 328000,
      "d": 2000,
      "v": 127
    },
    {
      "midi": 54,
      "hit": false,
      "t": 328000,
      "d": 4000,
      "v": 127
    },
    {
      "midi": 58,
      "hit": false,
      "t": 328000,
      "d": 4000,
      "v": 127
    },
    {
      "midi": 61,
      "hit": false,
      "t": 328000,
      "d": 4000,
      "v": 127
    },
    {
      "midi": 66,
      "hit": false,
      "t": 330000,
      "d": 1000,
      "v": 127
    },
    {
      "midi": 66,
      "hit": false,
      "t": 331500,
      "d": 500,
      "v": 127
    },
    {
      "midi": 78,
      "hit": false,
      "t": 332000,
      "d": 2000,
      "v": 127
    },
    {
      "midi": 54,
      "hit": false,
      "t": 332000,
      "d": 4000,
      "v": 127
    },
    {
      "midi": 59,
      "hit": false,
      "t": 332000,
      "d": 4000,
      "v": 127
    },
    {
      "midi": 62,
      "hit": false,
      "t": 332000,
      "d": 4000,
      "v": 127
    },
    {
      "midi": 76,
      "hit": false,
      "t": 334000,
      "d": 1500,
      "v": 127
    },
    {
      "midi": 74,
      "hit": false,
      "t": 335500,
      "d": 500,
      "v": 127
    },
    {
      "midi": 73,
      "hit": false,
      "t": 336000,
      "d": 2000,
      "v": 127
    },
    {
      "midi": 54,
      "hit": false,
      "t": 336000,
      "d": 2000,
      "v": 127
    },
    {
      "midi": 58,
      "hit": false,
      "t": 336000,
      "d": 2000,
      "v": 127
    },
    {
      "midi": 61,
      "hit": false,
      "t": 336000,
      "d": 2000,
      "v": 127
    },
    {
      "midi": 66,
      "hit": false,
      "t": 339000,
      "d": 750,
      "v": 127
    },
    {
      "midi": 78,
      "hit": false,
      "t": 339000,
      "d": 750,
      "v": 127
    },
    {
      "midi": 66,
      "hit": false,
      "t": 339750,
      "d": 250,
      "v": 127
    },
    {
      "midi": 78,
      "hit": false,
      "t": 339750,
      "d": 250,
      "v": 127
    },
    {
      "midi": 78,
      "hit": false,
      "t": 340000,
      "d": 1000,
      "v": 127
    },
    {
      "midi": 90,
      "hit": false,
      "t": 340000,
      "d": 1000,
      "v": 127
    },
    {
      "midi": 47,
      "hit": false,
      "t": 340000,
      "d": 1000,
      "v": 127
    },
    {
      "midi": 50,
      "hit": false,
      "t": 340000,
      "d": 1000,
      "v": 127
    },
    {
      "midi": 54,
      "hit": false,
      "t": 340000,
      "d": 1000,
      "v": 127
    },
    {
      "midi": 59,
      "hit": false,
      "t": 340000,
      "d": 1000,
      "v": 127
    },
    {
      "midi": 74,
      "hit": false,
      "t": 341000,
      "d": 500,
      "v": 127
    },
    {
      "midi": 86,
      "hit": false,
      "t": 341000,
      "d": 500,
      "v": 127
    },
    {
      "midi": 71,
      "hit": false,
      "t": 341500,
      "d": 500,
      "v": 127
    },
    {
      "midi": 83,
      "hit": false,
      "t": 341500,
      "d": 500,
      "v": 127
    },
    {
      "midi": 68,
      "hit": false,
      "t": 342000,
      "d": 1000,
      "v": 127
    },
    {
      "midi": 80,
      "hit": false,
      "t": 342000,
      "d": 1000,
      "v": 127
    },
    {
      "midi": 52,
      "hit": false,
      "t": 342000,
      "d": 1000,
      "v": 127
    },
    {
      "midi": 56,
      "hit": false,
      "t": 342000,
      "d": 1000,
      "v": 127
    },
    {
      "midi": 59,
      "hit": false,
      "t": 342000,
      "d": 1000,
      "v": 127
    },
    {
      "midi": 68,
      "hit": false,
      "t": 343000,
      "d": 500,
      "v": 127
    },
    {
      "midi": 80,
      "hit": false,
      "t": 343000,
      "d": 500,
      "v": 127
    },
    {
      "midi": 68,
      "hit": false,
      "t": 343500,
      "d": 500,
      "v": 127
    },
    {
      "midi": 80,
      "hit": false,
      "t": 343500,
      "d": 500,
      "v": 127
    },
    {
      "midi": 76,
      "hit": false,
      "t": 344000,
      "d": 1000,
      "v": 127
    },
    {
      "midi": 88,
      "hit": false,
      "t": 344000,
      "d": 1000,
      "v": 127
    },
    {
      "midi": 49,
      "hit": false,
      "t": 344000,
      "d": 1000,
      "v": 127
    },
    {
      "midi": 52,
      "hit": false,
      "t": 344000,
      "d": 1000,
      "v": 127
    },
    {
      "midi": 57,
      "hit": false,
      "t": 344000,
      "d": 1000,
      "v": 127
    },
    {
      "midi": 61,
      "hit": false,
      "t": 344000,
      "d": 1000,
      "v": 127
    },
    {
      "midi": 85,
      "hit": false,
      "t": 345000,
      "d": 500,
      "v": 127
    },
    {
      "midi": 97,
      "hit": false,
      "t": 345000,
      "d": 500,
      "v": 127
    },
    {
      "midi": 81,
      "hit": false,
      "t": 345500,
      "d": 500,
      "v": 127
    },
    {
      "midi": 93,
      "hit": false,
      "t": 345500,
      "d": 500,
      "v": 127
    },
    {
      "midi": 78,
      "hit": false,
      "t": 346000,
      "d": 1000,
      "v": 127
    },
    {
      "midi": 90,
      "hit": false,
      "t": 346000,
      "d": 1000,
      "v": 127
    },
    {
      "midi": 51,
      "hit": false,
      "t": 346000,
      "d": 1000,
      "v": 127
    },
    {
      "midi": 57,
      "hit": false,
      "t": 346000,
      "d": 1000,
      "v": 127
    },
    {
      "midi": 60,
      "hit": false,
      "t": 346000,
      "d": 1000,
      "v": 127
    },
    {
      "midi": 80,
      "hit": false,
      "t": 347000,
      "d": 500,
      "v": 127
    },
    {
      "midi": 92,
      "hit": false,
      "t": 347000,
      "d": 500,
      "v": 127
    },
    {
      "midi": 81,
      "hit": false,
      "t": 347500,
      "d": 500,
      "v": 127
    },
    {
      "midi": 93,
      "hit": false,
      "t": 347500,
      "d": 500,
      "v": 127
    },
    {
      "midi": 76,
      "hit": false,
      "t": 348000,
      "d": 1000,
      "v": 127
    },
    {
      "midi": 88,
      "hit": false,
      "t": 348000,
      "d": 1000,
      "v": 127
    },
    {
      "midi": 52,
      "hit": false,
      "t": 348000,
      "d": 1000,
      "v": 127
    },
    {
      "midi": 57,
      "hit": false,
      "t": 348000,
      "d": 1000,
      "v": 127
    },
    {
      "midi": 61,
      "hit": false,
      "t": 348000,
      "d": 1000,
      "v": 127
    },
    {
      "midi": 73,
      "hit": false,
      "t": 349000,
      "d": 750,
      "v": 127
    },
    {
      "midi": 61,
      "hit": false,
      "t": 349000,
      "d": 750,
      "v": 127
    },
    {
      "midi": 74,
      "hit": false,
      "t": 349750,
      "d": 250,
      "v": 127
    },
    {
      "midi": 62,
      "hit": false,
      "t": 349750,
      "d": 250,
      "v": 127
    },
    {
      "midi": 71,
      "hit": false,
      "t": 350000,
      "d": 1000,
      "v": 127
    },
    {
      "midi": 59,
      "hit": false,
      "t": 350000,
      "d": 1000,
      "v": 127
    },
    {
      "midi": 76,
      "hit": false,
      "t": 351000,
      "d": 500,
      "v": 127
    },
    {
      "midi": 62,
      "hit": false,
      "t": 351000,
      "d": 500,
      "v": 127
    },
    {
      "midi": 76,
      "hit": false,
      "t": 351500,
      "d": 500,
      "v": 127
    },
    {
      "midi": 52,
      "hit": false,
      "t": 351500,
      "d": 500,
      "v": 127
    },
    {
      "midi": 69,
      "hit": false,
      "t": 352000,
      "d": 3000,
      "v": 127
    },
    {
      "midi": 76,
      "hit": false,
      "t": 352000,
      "d": 3000,
      "v": 127
    },
    {
      "midi": 57,
      "hit": false,
      "t": 352000,
      "d": 500,
      "v": 127
    },
    {
      "midi": 61,
      "hit": false,
      "t": 352500,
      "d": 500,
      "v": 127
    },
    {
      "midi": 64,
      "hit": false,
      "t": 352500,
      "d": 500,
      "v": 127
    },
    {
      "midi": 57,
      "hit": false,
      "t": 353000,
      "d": 500,
      "v": 127
    },
    {
      "midi": 61,
      "hit": false,
      "t": 353500,
      "d": 500,
      "v": 127
    },
    {
      "midi": 64,
      "hit": false,
      "t": 353500,
      "d": 500,
      "v": 127
    },
    {
      "midi": 57,
      "hit": false,
      "t": 354000,
      "d": 500,
      "v": 127
    },
    {
      "midi": 61,
      "hit": false,
      "t": 354500,
      "d": 500,
      "v": 127
    },
    {
      "midi": 64,
      "hit": false,
      "t": 354500,
      "d": 500,
      "v": 127
    },
    {
      "midi": 85,
      "hit": false,
      "t": 355000,
      "d": 500,
      "v": 127
    },
    {
      "midi": 57,
      "hit": false,
      "t": 355000,
      "d": 500,
      "v": 127
    },
    {
      "midi": 83,
      "hit": false,
      "t": 355500,
      "d": 500,
      "v": 127
    },
    {
      "midi": 61,
      "hit": false,
      "t": 355500,
      "d": 500,
      "v": 127
    },
    {
      "midi": 64,
      "hit": false,
      "t": 355500,
      "d": 500,
      "v": 127
    },
    {
      "midi": 81,
      "hit": false,
      "t": 356000,
      "d": 1000,
      "v": 127
    },
    {
      "midi": 57,
      "hit": false,
      "t": 356000,
      "d": 500,
      "v": 127
    },
    {
      "midi": 61,
      "hit": false,
      "t": 356500,
      "d": 500,
      "v": 127
    },
    {
      "midi": 64,
      "hit": false,
      "t": 356500,
      "d": 500,
      "v": 127
    },
    {
      "midi": 85,
      "hit": false,
      "t": 357000,
      "d": 500,
      "v": 127
    },
    {
      "midi": 57,
      "hit": false,
      "t": 357000,
      "d": 500,
      "v": 127
    },
    {
      "midi": 90,
      "hit": false,
      "t": 357500,
      "d": 500,
      "v": 127
    },
    {
      "midi": 61,
      "hit": false,
      "t": 357500,
      "d": 500,
      "v": 127
    },
    {
      "midi": 64,
      "hit": false,
      "t": 357500,
      "d": 500,
      "v": 127
    },
    {
      "midi": 88,
      "hit": false,
      "t": 358000,
      "d": 1000,
      "v": 127
    },
    {
      "midi": 57,
      "hit": false,
      "t": 358000,
      "d": 500,
      "v": 127
    },
    {
      "midi": 61,
      "hit": false,
      "t": 358500,
      "d": 500,
      "v": 127
    },
    {
      "midi": 64,
      "hit": false,
      "t": 358500,
      "d": 500,
      "v": 127
    },
    {
      "midi": 93,
      "hit": false,
      "t": 359000,
      "d": 1000,
      "v": 127
    },
    {
      "midi": 57,
      "hit": false,
      "t": 359000,
      "d": 500,
      "v": 127
    },
    {
      "midi": 61,
      "hit": false,
      "t": 359500,
      "d": 500,
      "v": 127
    },
    {
      "midi": 64,
      "hit": false,
      "t": 359500,
      "d": 500,
      "v": 127
    },
    {
      "midi": 92,
      "hit": false,
      "t": 360000,
      "d": 500,
      "v": 127
    },
    {
      "midi": 52,
      "hit": false,
      "t": 360000,
      "d": 500,
      "v": 127
    },
    {
      "midi": 88,
      "hit": false,
      "t": 360500,
      "d": 500,
      "v": 127
    },
    {
      "midi": 56,
      "hit": false,
      "t": 360500,
      "d": 500,
      "v": 127
    },
    {
      "midi": 59,
      "hit": false,
      "t": 360500,
      "d": 500,
      "v": 127
    },
    {
      "midi": 64,
      "hit": false,
      "t": 360500,
      "d": 500,
      "v": 127
    },
    {
      "midi": 90,
      "hit": false,
      "t": 361000,
      "d": 1000,
      "v": 127
    },
    {
      "midi": 92,
      "hit": false,
      "t": 361000,
      "d": 1000,
      "v": 127
    },
    {
      "midi": 52,
      "hit": false,
      "t": 361000,
      "d": 500,
      "v": 127
    },
    {
      "midi": 56,
      "hit": false,
      "t": 361500,
      "d": 500,
      "v": 127
    },
    {
      "midi": 59,
      "hit": false,
      "t": 361500,
      "d": 500,
      "v": 127
    },
    {
      "midi": 64,
      "hit": false,
      "t": 361500,
      "d": 500,
      "v": 127
    },
    {
      "midi": 88,
      "hit": false,
      "t": 362000,
      "d": 500,
      "v": 127
    },
    {
      "midi": 52,
      "hit": false,
      "t": 362000,
      "d": 500,
      "v": 127
    },
    {
      "midi": 85,
      "hit": false,
      "t": 362500,
      "d": 500,
      "v": 127
    },
    {
      "midi": 56,
      "hit": false,
      "t": 362500,
      "d": 500,
      "v": 127
    },
    {
      "midi": 59,
      "hit": false,
      "t": 362500,
      "d": 500,
      "v": 127
    },
    {
      "midi": 64,
      "hit": false,
      "t": 362500,
      "d": 500,
      "v": 127
    },
    {
      "midi": 86,
      "hit": false,
      "t": 363000,
      "d": 1000,
      "v": 127
    },
    {
      "midi": 88,
      "hit": false,
      "t": 363000,
      "d": 1000,
      "v": 127
    },
    {
      "midi": 52,
      "hit": false,
      "t": 363000,
      "d": 500,
      "v": 127
    },
    {
      "midi": 56,
      "hit": false,
      "t": 363500,
      "d": 500,
      "v": 127
    },
    {
      "midi": 59,
      "hit": false,
      "t": 363500,
      "d": 500,
      "v": 127
    },
    {
      "midi": 64,
      "hit": false,
      "t": 363500,
      "d": 500,
      "v": 127
    },
    {
      "midi": 85,
      "hit": false,
      "t": 364000,
      "d": 500,
      "v": 127
    },
    {
      "midi": 57,
      "hit": false,
      "t": 364000,
      "d": 500,
      "v": 127
    },
    {
      "midi": 81,
      "hit": false,
      "t": 364500,
      "d": 500,
      "v": 127
    },
    {
      "midi": 61,
      "hit": false,
      "t": 364500,
      "d": 500,
      "v": 127
    },
    {
      "midi": 64,
      "hit": false,
      "t": 364500,
      "d": 500,
      "v": 127
    },
    {
      "midi": 83,
      "hit": false,
      "t": 365000,
      "d": 500,
      "v": 127
    },
    {
      "midi": 52,
      "hit": false,
      "t": 365000,
      "d": 500,
      "v": 127
    },
    {
      "midi": 76,
      "hit": false,
      "t": 365500,
      "d": 500,
      "v": 127
    },
    {
      "midi": 56,
      "hit": false,
      "t": 365500,
      "d": 500,
      "v": 127
    },
    {
      "midi": 59,
      "hit": false,
      "t": 365500,
      "d": 500,
      "v": 127
    },
    {
      "midi": 64,
      "hit": false,
      "t": 365500,
      "d": 500,
      "v": 127
    },
    {
      "midi": 81,
      "hit": false,
      "t": 366000,
      "d": 1000,
      "v": 127
    },
    {
      "midi": 57,
      "hit": false,
      "t": 366000,
      "d": 500,
      "v": 127
    },
    {
      "midi": 61,
      "hit": false,
      "t": 366500,
      "d": 500,
      "v": 127
    },
    {
      "midi": 64,
      "hit": false,
      "t": 366500,
      "d": 500,
      "v": 127
    },
    {
      "midi": 57,
      "hit": false,
      "t": 367000,
      "d": 500,
      "v": 127
    },
    {
      "midi": 61,
      "hit": false,
      "t": 367500,
      "d": 500,
      "v": 127
    },
    {
      "midi": 64,
      "hit": false,
      "t": 367500,
      "d": 500,
      "v": 127
    },
    {
      "midi": 76,
      "hit": false,
      "t": 368000,
      "d": 3000,
      "v": 127
    },
    {
      "midi": 57,
      "hit": false,
      "t": 368000,
      "d": 500,
      "v": 127
    },
    {
      "midi": 61,
      "hit": false,
      "t": 368500,
      "d": 500,
      "v": 127
    },
    {
      "midi": 64,
      "hit": false,
      "t": 368500,
      "d": 500,
      "v": 127
    },
    {
      "midi": 57,
      "hit": false,
      "t": 369000,
      "d": 500,
      "v": 127
    },
    {
      "midi": 61,
      "hit": false,
      "t": 369500,
      "d": 500,
      "v": 127
    },
    {
      "midi": 64,
      "hit": false,
      "t": 369500,
      "d": 500,
      "v": 127
    },
    {
      "midi": 57,
      "hit": false,
      "t": 370000,
      "d": 500,
      "v": 127
    },
    {
      "midi": 61,
      "hit": false,
      "t": 370500,
      "d": 500,
      "v": 127
    },
    {
      "midi": 64,
      "hit": false,
      "t": 370500,
      "d": 500,
      "v": 127
    },
    {
      "midi": 85,
      "hit": false,
      "t": 371000,
      "d": 500,
      "v": 127
    },
    {
      "midi": 57,
      "hit": false,
      "t": 371000,
      "d": 500,
      "v": 127
    },
    {
      "midi": 83,
      "hit": false,
      "t": 371500,
      "d": 500,
      "v": 127
    },
    {
      "midi": 61,
      "hit": false,
      "t": 371500,
      "d": 500,
      "v": 127
    },
    {
      "midi": 64,
      "hit": false,
      "t": 371500,
      "d": 500,
      "v": 127
    },
    {
      "midi": 81,
      "hit": false,
      "t": 372000,
      "d": 1000,
      "v": 127
    },
    {
      "midi": 57,
      "hit": false,
      "t": 372000,
      "d": 500,
      "v": 127
    },
    {
      "midi": 61,
      "hit": false,
      "t": 372500,
      "d": 500,
      "v": 127
    },
    {
      "midi": 64,
      "hit": false,
      "t": 372500,
      "d": 500,
      "v": 127
    },
    {
      "midi": 85,
      "hit": false,
      "t": 373000,
      "d": 500,
      "v": 127
    },
    {
      "midi": 57,
      "hit": false,
      "t": 373000,
      "d": 500,
      "v": 127
    },
    {
      "midi": 90,
      "hit": false,
      "t": 373500,
      "d": 500,
      "v": 127
    },
    {
      "midi": 61,
      "hit": false,
      "t": 373500,
      "d": 500,
      "v": 127
    },
    {
      "midi": 64,
      "hit": false,
      "t": 373500,
      "d": 500,
      "v": 127
    },
    {
      "midi": 88,
      "hit": false,
      "t": 374000,
      "d": 1000,
      "v": 127
    },
    {
      "midi": 57,
      "hit": false,
      "t": 374000,
      "d": 500,
      "v": 127
    },
    {
      "midi": 61,
      "hit": false,
      "t": 374500,
      "d": 500,
      "v": 127
    },
    {
      "midi": 64,
      "hit": false,
      "t": 374500,
      "d": 500,
      "v": 127
    },
    {
      "midi": 93,
      "hit": false,
      "t": 375000,
      "d": 1000,
      "v": 127
    },
    {
      "midi": 57,
      "hit": false,
      "t": 375000,
      "d": 500,
      "v": 127
    },
    {
      "midi": 61,
      "hit": false,
      "t": 375500,
      "d": 500,
      "v": 127
    },
    {
      "midi": 64,
      "hit": false,
      "t": 375500,
      "d": 500,
      "v": 127
    },
    {
      "midi": 92,
      "hit": false,
      "t": 376000,
      "d": 500,
      "v": 127
    },
    {
      "midi": 52,
      "hit": false,
      "t": 376000,
      "d": 500,
      "v": 127
    },
    {
      "midi": 88,
      "hit": false,
      "t": 376500,
      "d": 500,
      "v": 127
    },
    {
      "midi": 56,
      "hit": false,
      "t": 376500,
      "d": 500,
      "v": 127
    },
    {
      "midi": 59,
      "hit": false,
      "t": 376500,
      "d": 500,
      "v": 127
    },
    {
      "midi": 64,
      "hit": false,
      "t": 376500,
      "d": 500,
      "v": 127
    },
    {
      "midi": 90,
      "hit": false,
      "t": 377000,
      "d": 1000,
      "v": 127
    },
    {
      "midi": 92,
      "hit": false,
      "t": 377000,
      "d": 1000,
      "v": 127
    },
    {
      "midi": 52,
      "hit": false,
      "t": 377000,
      "d": 500,
      "v": 127
    },
    {
      "midi": 56,
      "hit": false,
      "t": 377500,
      "d": 500,
      "v": 127
    },
    {
      "midi": 59,
      "hit": false,
      "t": 377500,
      "d": 500,
      "v": 127
    },
    {
      "midi": 64,
      "hit": false,
      "t": 377500,
      "d": 500,
      "v": 127
    },
    {
      "midi": 88,
      "hit": false,
      "t": 378000,
      "d": 500,
      "v": 127
    },
    {
      "midi": 52,
      "hit": false,
      "t": 378000,
      "d": 500,
      "v": 127
    },
    {
      "midi": 85,
      "hit": false,
      "t": 378500,
      "d": 500,
      "v": 127
    },
    {
      "midi": 56,
      "hit": false,
      "t": 378500,
      "d": 500,
      "v": 127
    },
    {
      "midi": 59,
      "hit": false,
      "t": 378500,
      "d": 500,
      "v": 127
    },
    {
      "midi": 64,
      "hit": false,
      "t": 378500,
      "d": 500,
      "v": 127
    },
    {
      "midi": 86,
      "hit": false,
      "t": 379000,
      "d": 1000,
      "v": 127
    },
    {
      "midi": 88,
      "hit": false,
      "t": 379000,
      "d": 1000,
      "v": 127
    },
    {
      "midi": 52,
      "hit": false,
      "t": 379000,
      "d": 500,
      "v": 127
    },
    {
      "midi": 56,
      "hit": false,
      "t": 379500,
      "d": 500,
      "v": 127
    },
    {
      "midi": 59,
      "hit": false,
      "t": 379500,
      "d": 500,
      "v": 127
    },
    {
      "midi": 64,
      "hit": false,
      "t": 379500,
      "d": 500,
      "v": 127
    },
    {
      "midi": 85,
      "hit": false,
      "t": 380000,
      "d": 500,
      "v": 127
    },
    {
      "midi": 57,
      "hit": false,
      "t": 380000,
      "d": 500,
      "v": 127
    },
    {
      "midi": 88,
      "hit": false,
      "t": 380500,
      "d": 500,
      "v": 127
    },
    {
      "midi": 61,
      "hit": false,
      "t": 380500,
      "d": 500,
      "v": 127
    },
    {
      "midi": 64,
      "hit": false,
      "t": 380500,
      "d": 500,
      "v": 127
    },
    {
      "midi": 83,
      "hit": false,
      "t": 381000,
      "d": 500,
      "v": 127
    },
    {
      "midi": 52,
      "hit": false,
      "t": 381000,
      "d": 500,
      "v": 127
    },
    {
      "midi": 88,
      "hit": false,
      "t": 381500,
      "d": 500,
      "v": 127
    },
    {
      "midi": 56,
      "hit": false,
      "t": 381500,
      "d": 500,
      "v": 127
    },
    {
      "midi": 59,
      "hit": false,
      "t": 381500,
      "d": 500,
      "v": 127
    },
    {
      "midi": 64,
      "hit": false,
      "t": 381500,
      "d": 500,
      "v": 127
    },
    {
      "midi": 81,
      "hit": false,
      "t": 382000,
      "d": 1000,
      "v": 127
    },
    {
      "midi": 57,
      "hit": false,
      "t": 382000,
      "d": 500,
      "v": 127
    },
    {
      "midi": 61,
      "hit": false,
      "t": 382500,
      "d": 500,
      "v": 127
    },
    {
      "midi": 64,
      "hit": false,
      "t": 382500,
      "d": 500,
      "v": 127
    },
    {
      "midi": 57,
      "hit": false,
      "t": 383000,
      "d": 500,
      "v": 127
    },
    {
      "midi": 61,
      "hit": false,
      "t": 383500,
      "d": 500,
      "v": 127
    },
    {
      "midi": 64,
      "hit": false,
      "t": 383500,
      "d": 500,
      "v": 127
    },
    {
      "midi": 85,
      "hit": false,
      "t": 384000,
      "d": 3000,
      "v": 127
    },
    {
      "midi": 54,
      "hit": false,
      "t": 384000,
      "d": 500,
      "v": 127
    },
    {
      "midi": 57,
      "hit": false,
      "t": 384500,
      "d": 500,
      "v": 127
    },
    {
      "midi": 61,
      "hit": false,
      "t": 384500,
      "d": 500,
      "v": 127
    },
    {
      "midi": 66,
      "hit": false,
      "t": 384500,
      "d": 500,
      "v": 127
    },
    {
      "midi": 54,
      "hit": false,
      "t": 385000,
      "d": 500,
      "v": 127
    },
    {
      "midi": 57,
      "hit": false,
      "t": 385500,
      "d": 500,
      "v": 127
    },
    {
      "midi": 61,
      "hit": false,
      "t": 385500,
      "d": 500,
      "v": 127
    },
    {
      "midi": 66,
      "hit": false,
      "t": 385500,
      "d": 500,
      "v": 127
    },
    {
      "midi": 54,
      "hit": false,
      "t": 386000,
      "d": 500,
      "v": 127
    },
    {
      "midi": 57,
      "hit": false,
      "t": 386500,
      "d": 500,
      "v": 127
    },
    {
      "midi": 61,
      "hit": false,
      "t": 386500,
      "d": 500,
      "v": 127
    },
    {
      "midi": 66,
      "hit": false,
      "t": 386500,
      "d": 500,
      "v": 127
    },
    {
      "midi": 90,
      "hit": false,
      "t": 387000,
      "d": 500,
      "v": 127
    },
    {
      "midi": 54,
      "hit": false,
      "t": 387000,
      "d": 500,
      "v": 127
    },
    {
      "midi": 88,
      "hit": false,
      "t": 387500,
      "d": 500,
      "v": 127
    },
    {
      "midi": 57,
      "hit": false,
      "t": 387500,
      "d": 500,
      "v": 127
    },
    {
      "midi": 61,
      "hit": false,
      "t": 387500,
      "d": 500,
      "v": 127
    },
    {
      "midi": 66,
      "hit": false,
      "t": 387500,
      "d": 500,
      "v": 127
    },
    {
      "midi": 86,
      "hit": false,
      "t": 388000,
      "d": 1000,
      "v": 127
    },
    {
      "midi": 59,
      "hit": false,
      "t": 388000,
      "d": 500,
      "v": 127
    },
    {
      "midi": 62,
      "hit": false,
      "t": 388500,
      "d": 500,
      "v": 127
    },
    {
      "midi": 66,
      "hit": false,
      "t": 388500,
      "d": 500,
      "v": 127
    },
    {
      "midi": 85,
      "hit": false,
      "t": 389000,
      "d": 500,
      "v": 127
    },
    {
      "midi": 59,
      "hit": false,
      "t": 389000,
      "d": 500,
      "v": 127
    },
    {
      "midi": 83,
      "hit": false,
      "t": 389500,
      "d": 500,
      "v": 127
    },
    {
      "midi": 62,
      "hit": false,
      "t": 389500,
      "d": 500,
      "v": 127
    },
    {
      "midi": 66,
      "hit": false,
      "t": 389500,
      "d": 500,
      "v": 127
    },
    {
      "midi": 81,
      "hit": false,
      "t": 390000,
      "d": 1000,
      "v": 127
    },
    {
      "midi": 60,
      "hit": false,
      "t": 390000,
      "d": 500,
      "v": 127
    },
    {
      "midi": 63,
      "hit": false,
      "t": 390500,
      "d": 500,
      "v": 127
    },
    {
      "midi": 69,
      "hit": false,
      "t": 390500,
      "d": 500,
      "v": 127
    },
    {
      "midi": 80,
      "hit": false,
      "t": 391000,
      "d": 500,
      "v": 127
    },
    {
      "midi": 60,
      "hit": false,
      "t": 391000,
      "d": 500,
      "v": 127
    },
    {
      "midi": 78,
      "hit": false,
      "t": 391500,
      "d": 500,
      "v": 127
    },
    {
      "midi": 63,
      "hit": false,
      "t": 391500,
      "d": 500,
      "v": 127
    },
    {
      "midi": 69,
      "hit": false,
      "t": 391500,
      "d": 500,
      "v": 127
    },
    {
      "midi": 80,
      "hit": false,
      "t": 392000,
      "d": 500,
      "v": 127
    },
    {
      "midi": 61,
      "hit": false,
      "t": 392000,
      "d": 500,
      "v": 127
    },
    {
      "midi": 79,
      "hit": false,
      "t": 392500,
      "d": 500,
      "v": 127
    },
    {
      "midi": 65,
      "hit": false,
      "t": 392500,
      "d": 500,
      "v": 127
    },
    {
      "midi": 68,
      "hit": false,
      "t": 392500,
      "d": 500,
      "v": 127
    },
    {
      "midi": 80,
      "hit": false,
      "t": 393000,
      "d": 500,
      "v": 127
    },
    {
      "midi": 61,
      "hit": false,
      "t": 393000,
      "d": 500,
      "v": 127
    },
    {
      "midi": 79,
      "hit": false,
      "t": 393500,
      "d": 500,
      "v": 127
    },
    {
      "midi": 65,
      "hit": false,
      "t": 393500,
      "d": 500,
      "v": 127
    },
    {
      "midi": 68,
      "hit": false,
      "t": 393500,
      "d": 500,
      "v": 127
    },
    {
      "midi": 80,
      "hit": false,
      "t": 394000,
      "d": 500,
      "v": 127
    },
    {
      "midi": 61,
      "hit": false,
      "t": 394000,
      "d": 500,
      "v": 127
    },
    {
      "midi": 81,
      "hit": false,
      "t": 394500,
      "d": 500,
      "v": 127
    },
    {
      "midi": 65,
      "hit": false,
      "t": 394500,
      "d": 500,
      "v": 127
    },
    {
      "midi": 68,
      "hit": false,
      "t": 394500,
      "d": 500,
      "v": 127
    },
    {
      "midi": 83,
      "hit": false,
      "t": 395000,
      "d": 500,
      "v": 127
    },
    {
      "midi": 61,
      "hit": false,
      "t": 395000,
      "d": 500,
      "v": 127
    },
    {
      "midi": 85,
      "hit": false,
      "t": 395500,
      "d": 500,
      "v": 127
    },
    {
      "midi": 65,
      "hit": false,
      "t": 395500,
      "d": 500,
      "v": 127
    },
    {
      "midi": 68,
      "hit": false,
      "t": 395500,
      "d": 500,
      "v": 127
    },
    {
      "midi": 85,
      "hit": false,
      "t": 396000,
      "d": 250,
      "v": 127
    },
    {
      "midi": 54,
      "hit": false,
      "t": 396000,
      "d": 500,
      "v": 127
    },
    {
      "midi": 83,
      "hit": false,
      "t": 396250,
      "d": 250,
      "v": 127
    },
    {
      "midi": 81,
      "hit": false,
      "t": 396500,
      "d": 250,
      "v": 127
    },
    {
      "midi": 57,
      "hit": false,
      "t": 396500,
      "d": 500,
      "v": 127
    },
    {
      "midi": 61,
      "hit": false,
      "t": 396500,
      "d": 500,
      "v": 127
    },
    {
      "midi": 66,
      "hit": false,
      "t": 396500,
      "d": 500,
      "v": 127
    },
    {
      "midi": 80,
      "hit": false,
      "t": 396750,
      "d": 250,
      "v": 127
    },
    {
      "midi": 78,
      "hit": false,
      "t": 397000,
      "d": 1000,
      "v": 127
    },
    {
      "midi": 54,
      "hit": false,
      "t": 397000,
      "d": 500,
      "v": 127
    },
    {
      "midi": 57,
      "hit": false,
      "t": 397500,
      "d": 500,
      "v": 127
    },
    {
      "midi": 61,
      "hit": false,
      "t": 397500,
      "d": 500,
      "v": 127
    },
    {
      "midi": 66,
      "hit": false,
      "t": 397500,
      "d": 500,
      "v": 127
    },
    {
      "midi": 54,
      "hit": false,
      "t": 398000,
      "d": 500,
      "v": 127
    },
    {
      "midi": 57,
      "hit": false,
      "t": 398500,
      "d": 500,
      "v": 127
    },
    {
      "midi": 61,
      "hit": false,
      "t": 398500,
      "d": 500,
      "v": 127
    },
    {
      "midi": 66,
      "hit": false,
      "t": 398500,
      "d": 500,
      "v": 127
    },
    {
      "midi": 54,
      "hit": false,
      "t": 399000,
      "d": 500,
      "v": 127
    },
    {
      "midi": 57,
      "hit": false,
      "t": 399500,
      "d": 500,
      "v": 127
    },
    {
      "midi": 61,
      "hit": false,
      "t": 399500,
      "d": 500,
      "v": 127
    },
    {
      "midi": 66,
      "hit": false,
      "t": 399500,
      "d": 500,
      "v": 127
    },
    {
      "midi": 85,
      "hit": false,
      "t": 400000,
      "d": 3000,
      "v": 127
    },
    {
      "midi": 54,
      "hit": false,
      "t": 400000,
      "d": 500,
      "v": 127
    },
    {
      "midi": 57,
      "hit": false,
      "t": 400500,
      "d": 500,
      "v": 127
    },
    {
      "midi": 61,
      "hit": false,
      "t": 400500,
      "d": 500,
      "v": 127
    },
    {
      "midi": 66,
      "hit": false,
      "t": 400500,
      "d": 500,
      "v": 127
    },
    {
      "midi": 54,
      "hit": false,
      "t": 401000,
      "d": 500,
      "v": 127
    },
    {
      "midi": 57,
      "hit": false,
      "t": 401500,
      "d": 500,
      "v": 127
    },
    {
      "midi": 61,
      "hit": false,
      "t": 401500,
      "d": 500,
      "v": 127
    },
    {
      "midi": 66,
      "hit": false,
      "t": 401500,
      "d": 500,
      "v": 127
    },
    {
      "midi": 54,
      "hit": false,
      "t": 402000,
      "d": 500,
      "v": 127
    },
    {
      "midi": 57,
      "hit": false,
      "t": 402500,
      "d": 500,
      "v": 127
    },
    {
      "midi": 61,
      "hit": false,
      "t": 402500,
      "d": 500,
      "v": 127
    },
    {
      "midi": 66,
      "hit": false,
      "t": 402500,
      "d": 500,
      "v": 127
    },
    {
      "midi": 90,
      "hit": false,
      "t": 403000,
      "d": 500,
      "v": 127
    },
    {
      "midi": 54,
      "hit": false,
      "t": 403000,
      "d": 500,
      "v": 127
    },
    {
      "midi": 88,
      "hit": false,
      "t": 403500,
      "d": 500,
      "v": 127
    },
    {
      "midi": 57,
      "hit": false,
      "t": 403500,
      "d": 500,
      "v": 127
    },
    {
      "midi": 61,
      "hit": false,
      "t": 403500,
      "d": 500,
      "v": 127
    },
    {
      "midi": 66,
      "hit": false,
      "t": 403500,
      "d": 500,
      "v": 127
    },
    {
      "midi": 86,
      "hit": false,
      "t": 404000,
      "d": 1000,
      "v": 127
    },
    {
      "midi": 59,
      "hit": false,
      "t": 404000,
      "d": 500,
      "v": 127
    },
    {
      "midi": 62,
      "hit": false,
      "t": 404500,
      "d": 500,
      "v": 127
    },
    {
      "midi": 66,
      "hit": false,
      "t": 404500,
      "d": 500,
      "v": 127
    },
    {
      "midi": 85,
      "hit": false,
      "t": 405000,
      "d": 500,
      "v": 127
    },
    {
      "midi": 59,
      "hit": false,
      "t": 405000,
      "d": 500,
      "v": 127
    },
    {
      "midi": 83,
      "hit": false,
      "t": 405500,
      "d": 500,
      "v": 127
    },
    {
      "midi": 62,
      "hit": false,
      "t": 405500,
      "d": 500,
      "v": 127
    },
    {
      "midi": 66,
      "hit": false,
      "t": 405500,
      "d": 500,
      "v": 127
    },
    {
      "midi": 81,
      "hit": false,
      "t": 406000,
      "d": 1000,
      "v": 127
    },
    {
      "midi": 60,
      "hit": false,
      "t": 406000,
      "d": 500,
      "v": 127
    },
    {
      "midi": 63,
      "hit": false,
      "t": 406500,
      "d": 500,
      "v": 127
    },
    {
      "midi": 69,
      "hit": false,
      "t": 406500,
      "d": 500,
      "v": 127
    },
    {
      "midi": 80,
      "hit": false,
      "t": 407000,
      "d": 500,
      "v": 127
    },
    {
      "midi": 60,
      "hit": false,
      "t": 407000,
      "d": 500,
      "v": 127
    },
    {
      "midi": 78,
      "hit": false,
      "t": 407500,
      "d": 500,
      "v": 127
    },
    {
      "midi": 63,
      "hit": false,
      "t": 407500,
      "d": 500,
      "v": 127
    },
    {
      "midi": 69,
      "hit": false,
      "t": 407500,
      "d": 500,
      "v": 127
    },
    {
      "midi": 80,
      "hit": false,
      "t": 408000,
      "d": 500,
      "v": 127
    },
    {
      "midi": 61,
      "hit": false,
      "t": 408000,
      "d": 500,
      "v": 127
    },
    {
      "midi": 79,
      "hit": false,
      "t": 408500,
      "d": 500,
      "v": 127
    },
    {
      "midi": 65,
      "hit": false,
      "t": 408500,
      "d": 500,
      "v": 127
    },
    {
      "midi": 68,
      "hit": false,
      "t": 408500,
      "d": 500,
      "v": 127
    },
    {
      "midi": 80,
      "hit": false,
      "t": 409000,
      "d": 500,
      "v": 127
    },
    {
      "midi": 61,
      "hit": false,
      "t": 409000,
      "d": 500,
      "v": 127
    },
    {
      "midi": 79,
      "hit": false,
      "t": 409500,
      "d": 500,
      "v": 127
    },
    {
      "midi": 65,
      "hit": false,
      "t": 409500,
      "d": 500,
      "v": 127
    },
    {
      "midi": 68,
      "hit": false,
      "t": 409500,
      "d": 500,
      "v": 127
    },
    {
      "midi": 80,
      "hit": false,
      "t": 410000,
      "d": 500,
      "v": 127
    },
    {
      "midi": 61,
      "hit": false,
      "t": 410000,
      "d": 500,
      "v": 127
    },
    {
      "midi": 81,
      "hit": false,
      "t": 410500,
      "d": 500,
      "v": 127
    },
    {
      "midi": 65,
      "hit": false,
      "t": 410500,
      "d": 500,
      "v": 127
    },
    {
      "midi": 68,
      "hit": false,
      "t": 410500,
      "d": 500,
      "v": 127
    },
    {
      "midi": 83,
      "hit": false,
      "t": 411000,
      "d": 500,
      "v": 127
    },
    {
      "midi": 61,
      "hit": false,
      "t": 411000,
      "d": 500,
      "v": 127
    },
    {
      "midi": 85,
      "hit": false,
      "t": 411500,
      "d": 500,
      "v": 127
    },
    {
      "midi": 65,
      "hit": false,
      "t": 411500,
      "d": 500,
      "v": 127
    },
    {
      "midi": 68,
      "hit": false,
      "t": 411500,
      "d": 500,
      "v": 127
    },
    {
      "midi": 85,
      "hit": false,
      "t": 412000,
      "d": 250,
      "v": 127
    },
    {
      "midi": 54,
      "hit": false,
      "t": 412000,
      "d": 500,
      "v": 127
    },
    {
      "midi": 83,
      "hit": false,
      "t": 412250,
      "d": 250,
      "v": 127
    },
    {
      "midi": 81,
      "hit": false,
      "t": 412500,
      "d": 250,
      "v": 127
    },
    {
      "midi": 57,
      "hit": false,
      "t": 412500,
      "d": 500,
      "v": 127
    },
    {
      "midi": 61,
      "hit": false,
      "t": 412500,
      "d": 500,
      "v": 127
    },
    {
      "midi": 66,
      "hit": false,
      "t": 412500,
      "d": 500,
      "v": 127
    },
    {
      "midi": 80,
      "hit": false,
      "t": 412750,
      "d": 250,
      "v": 127
    },
    {
      "midi": 78,
      "hit": false,
      "t": 413000,
      "d": 2000,
      "v": 127
    },
    {
      "midi": 54,
      "hit": false,
      "t": 413000,
      "d": 500,
      "v": 127
    },
    {
      "midi": 57,
      "hit": false,
      "t": 413500,
      "d": 500,
      "v": 127
    },
    {
      "midi": 61,
      "hit": false,
      "t": 413500,
      "d": 500,
      "v": 127
    },
    {
      "midi": 66,
      "hit": false,
      "t": 413500,
      "d": 500,
      "v": 127
    },
    {
      "midi": 54,
      "hit": false,
      "t": 414000,
      "d": 500,
      "v": 127
    },
    {
      "midi": 57,
      "hit": false,
      "t": 414500,
      "d": 500,
      "v": 127
    },
    {
      "midi": 61,
      "hit": false,
      "t": 414500,
      "d": 500,
      "v": 127
    },
    {
      "midi": 66,
      "hit": false,
      "t": 414500,
      "d": 500,
      "v": 127
    },
    {
      "midi": 77,
      "hit": false,
      "t": 415000,
      "d": 1000,
      "v": 127
    },
    {
      "midi": 44,
      "hit": false,
      "t": 415000,
      "d": 500,
      "v": 127
    },
    {
      "midi": 56,
      "hit": false,
      "t": 415000,
      "d": 500,
      "v": 127
    },
    {
      "midi": 56,
      "hit": false,
      "t": 415500,
      "d": 500,
      "v": 127
    },
    {
      "midi": 59,
      "hit": false,
      "t": 415500,
      "d": 500,
      "v": 127
    },
    {
      "midi": 62,
      "hit": false,
      "t": 415500,
      "d": 500,
      "v": 127
    },
    {
      "midi": 76,
      "hit": false,
      "t": 416000,
      "d": 3000,
      "v": 127
    },
    {
      "midi": 45,
      "hit": false,
      "t": 416000,
      "d": 500,
      "v": 127
    },
    {
      "midi": 49,
      "hit": false,
      "t": 416500,
      "d": 500,
      "v": 127
    },
    {
      "midi": 52,
      "hit": false,
      "t": 416500,
      "d": 500,
      "v": 127
    },
    {
      "midi": 57,
      "hit": false,
      "t": 416500,
      "d": 500,
      "v": 127
    },
    {
      "midi": 45,
      "hit": false,
      "t": 417000,
      "d": 500,
      "v": 127
    },
    {
      "midi": 49,
      "hit": false,
      "t": 417500,
      "d": 500,
      "v": 127
    },
    {
      "midi": 52,
      "hit": false,
      "t": 417500,
      "d": 500,
      "v": 127
    },
    {
      "midi": 57,
      "hit": false,
      "t": 417500,
      "d": 500,
      "v": 127
    },
    {
      "midi": 45,
      "hit": false,
      "t": 418000,
      "d": 500,
      "v": 127
    },
    {
      "midi": 49,
      "hit": false,
      "t": 418500,
      "d": 500,
      "v": 127
    },
    {
      "midi": 52,
      "hit": false,
      "t": 418500,
      "d": 500,
      "v": 127
    },
    {
      "midi": 57,
      "hit": false,
      "t": 418500,
      "d": 500,
      "v": 127
    },
    {
      "midi": 85,
      "hit": false,
      "t": 419000,
      "d": 500,
      "v": 127
    },
    {
      "midi": 45,
      "hit": false,
      "t": 419000,
      "d": 500,
      "v": 127
    },
    {
      "midi": 83,
      "hit": false,
      "t": 419500,
      "d": 500,
      "v": 127
    },
    {
      "midi": 49,
      "hit": false,
      "t": 419500,
      "d": 500,
      "v": 127
    },
    {
      "midi": 52,
      "hit": false,
      "t": 419500,
      "d": 500,
      "v": 127
    },
    {
      "midi": 57,
      "hit": false,
      "t": 419500,
      "d": 500,
      "v": 127
    },
    {
      "midi": 81,
      "hit": false,
      "t": 420000,
      "d": 1000,
      "v": 127
    },
    {
      "midi": 45,
      "hit": false,
      "t": 420000,
      "d": 500,
      "v": 127
    },
    {
      "midi": 49,
      "hit": false,
      "t": 420500,
      "d": 500,
      "v": 127
    },
    {
      "midi": 52,
      "hit": false,
      "t": 420500,
      "d": 500,
      "v": 127
    },
    {
      "midi": 57,
      "hit": false,
      "t": 420500,
      "d": 500,
      "v": 127
    },
    {
      "midi": 85,
      "hit": false,
      "t": 421000,
      "d": 500,
      "v": 127
    },
    {
      "midi": 45,
      "hit": false,
      "t": 421000,
      "d": 500,
      "v": 127
    },
    {
      "midi": 90,
      "hit": false,
      "t": 421500,
      "d": 500,
      "v": 127
    },
    {
      "midi": 49,
      "hit": false,
      "t": 421500,
      "d": 500,
      "v": 127
    },
    {
      "midi": 52,
      "hit": false,
      "t": 421500,
      "d": 500,
      "v": 127
    },
    {
      "midi": 57,
      "hit": false,
      "t": 421500,
      "d": 500,
      "v": 127
    },
    {
      "midi": 88,
      "hit": false,
      "t": 422000,
      "d": 1000,
      "v": 127
    },
    {
      "midi": 45,
      "hit": false,
      "t": 422000,
      "d": 500,
      "v": 127
    },
    {
      "midi": 49,
      "hit": false,
      "t": 422500,
      "d": 500,
      "v": 127
    },
    {
      "midi": 52,
      "hit": false,
      "t": 422500,
      "d": 500,
      "v": 127
    },
    {
      "midi": 57,
      "hit": false,
      "t": 422500,
      "d": 500,
      "v": 127
    },
    {
      "midi": 93,
      "hit": false,
      "t": 423000,
      "d": 1000,
      "v": 127
    },
    {
      "midi": 45,
      "hit": false,
      "t": 423000,
      "d": 500,
      "v": 127
    },
    {
      "midi": 49,
      "hit": false,
      "t": 423500,
      "d": 500,
      "v": 127
    },
    {
      "midi": 52,
      "hit": false,
      "t": 423500,
      "d": 500,
      "v": 127
    },
    {
      "midi": 57,
      "hit": false,
      "t": 423500,
      "d": 500,
      "v": 127
    },
    {
      "midi": 92,
      "hit": false,
      "t": 424000,
      "d": 500,
      "v": 127
    },
    {
      "midi": 52,
      "hit": false,
      "t": 424000,
      "d": 500,
      "v": 127
    },
    {
      "midi": 88,
      "hit": false,
      "t": 424500,
      "d": 500,
      "v": 127
    },
    {
      "midi": 56,
      "hit": false,
      "t": 424500,
      "d": 500,
      "v": 127
    },
    {
      "midi": 59,
      "hit": false,
      "t": 424500,
      "d": 500,
      "v": 127
    },
    {
      "midi": 90,
      "hit": false,
      "t": 425000,
      "d": 1000,
      "v": 127
    },
    {
      "midi": 92,
      "hit": false,
      "t": 425000,
      "d": 1000,
      "v": 127
    },
    {
      "midi": 52,
      "hit": false,
      "t": 425000,
      "d": 500,
      "v": 127
    },
    {
      "midi": 56,
      "hit": false,
      "t": 425500,
      "d": 500,
      "v": 127
    },
    {
      "midi": 59,
      "hit": false,
      "t": 425500,
      "d": 500,
      "v": 127
    },
    {
      "midi": 88,
      "hit": false,
      "t": 426000,
      "d": 500,
      "v": 127
    },
    {
      "midi": 52,
      "hit": false,
      "t": 426000,
      "d": 500,
      "v": 127
    },
    {
      "midi": 85,
      "hit": false,
      "t": 426500,
      "d": 500,
      "v": 127
    },
    {
      "midi": 56,
      "hit": false,
      "t": 426500,
      "d": 500,
      "v": 127
    },
    {
      "midi": 59,
      "hit": false,
      "t": 426500,
      "d": 500,
      "v": 127
    },
    {
      "midi": 86,
      "hit": false,
      "t": 427000,
      "d": 500,
      "v": 127
    },
    {
      "midi": 52,
      "hit": false,
      "t": 427000,
      "d": 500,
      "v": 127
    },
    {
      "midi": 83,
      "hit": false,
      "t": 427500,
      "d": 500,
      "v": 127
    },
    {
      "midi": 56,
      "hit": false,
      "t": 427500,
      "d": 500,
      "v": 127
    },
    {
      "midi": 59,
      "hit": false,
      "t": 427500,
      "d": 500,
      "v": 127
    },
    {
      "midi": 81,
      "hit": false,
      "t": 428000,
      "d": 1000,
      "v": 127
    },
    {
      "midi": 45,
      "hit": false,
      "t": 428000,
      "d": 1000,
      "v": 127
    },
    {
      "midi": 49,
      "hit": false,
      "t": 428000,
      "d": 1000,
      "v": 127
    },
    {
      "midi": 52,
      "hit": false,
      "t": 428000,
      "d": 1000,
      "v": 127
    },
    {
      "midi": 57,
      "hit": false,
      "t": 428000,
      "d": 1000,
      "v": 127
    },
    {
      "midi": 81,
      "hit": false,
      "t": 429000,
      "d": 500,
      "v": 127
    },
    {
      "midi": 80,
      "hit": false,
      "t": 429500,
      "d": 500,
      "v": 127
    },
    {
      "midi": 81,
      "hit": false,
      "t": 430000,
      "d": 500,
      "v": 127
    },
    {
      "midi": 80,
      "hit": false,
      "t": 430500,
      "d": 500,
      "v": 127
    },
    {
      "midi": 81,
      "hit": false,
      "t": 431000,
      "d": 500,
      "v": 127
    },
    {
      "midi": 82,
      "hit": false,
      "t": 431500,
      "d": 500,
      "v": 127
    },
    {
      "midi": 84,
      "hit": false,
      "t": 432000,
      "d": 1500,
      "v": 127
    },
    {
      "midi": 53,
      "hit": false,
      "t": 432000,
      "d": 500,
      "v": 127
    },
    {
      "midi": 57,
      "hit": false,
      "t": 432500,
      "d": 500,
      "v": 127
    },
    {
      "midi": 60,
      "hit": false,
      "t": 432500,
      "d": 500,
      "v": 127
    },
    {
      "midi": 57,
      "hit": false,
      "t": 433000,
      "d": 500,
      "v": 127
    },
    {
      "midi": 60,
      "hit": false,
      "t": 433000,
      "d": 500,
      "v": 127
    },
    {
      "midi": 83,
      "hit": false,
      "t": 433500,
      "d": 500,
      "v": 127
    },
    {
      "midi": 57,
      "hit": false,
      "t": 433500,
      "d": 500,
      "v": 127
    },
    {
      "midi": 60,
      "hit": false,
      "t": 433500,
      "d": 500,
      "v": 127
    },
    {
      "midi": 84,
      "hit": false,
      "t": 434000,
      "d": 1500,
      "v": 127
    },
    {
      "midi": 57,
      "hit": false,
      "t": 434000,
      "d": 500,
      "v": 127
    },
    {
      "midi": 60,
      "hit": false,
      "t": 434000,
      "d": 500,
      "v": 127
    },
    {
      "midi": 57,
      "hit": false,
      "t": 434500,
      "d": 500,
      "v": 127
    },
    {
      "midi": 60,
      "hit": false,
      "t": 434500,
      "d": 500,
      "v": 127
    },
    {
      "midi": 57,
      "hit": false,
      "t": 435000,
      "d": 500,
      "v": 127
    },
    {
      "midi": 60,
      "hit": false,
      "t": 435000,
      "d": 500,
      "v": 127
    },
    {
      "midi": 83,
      "hit": false,
      "t": 435500,
      "d": 500,
      "v": 127
    },
    {
      "midi": 57,
      "hit": false,
      "t": 435500,
      "d": 500,
      "v": 127
    },
    {
      "midi": 60,
      "hit": false,
      "t": 435500,
      "d": 500,
      "v": 127
    },
    {
      "midi": 84,
      "hit": false,
      "t": 436000,
      "d": 1500,
      "v": 127
    },
    {
      "midi": 53,
      "hit": false,
      "t": 436000,
      "d": 500,
      "v": 127
    },
    {
      "midi": 57,
      "hit": false,
      "t": 436500,
      "d": 500,
      "v": 127
    },
    {
      "midi": 60,
      "hit": false,
      "t": 436500,
      "d": 500,
      "v": 127
    },
    {
      "midi": 57,
      "hit": false,
      "t": 437000,
      "d": 500,
      "v": 127
    },
    {
      "midi": 60,
      "hit": false,
      "t": 437000,
      "d": 500,
      "v": 127
    },
    {
      "midi": 88,
      "hit": false,
      "t": 437500,
      "d": 500,
      "v": 127
    },
    {
      "midi": 57,
      "hit": false,
      "t": 437500,
      "d": 500,
      "v": 127
    },
    {
      "midi": 60,
      "hit": false,
      "t": 437500,
      "d": 500,
      "v": 127
    },
    {
      "midi": 91,
      "hit": false,
      "t": 438000,
      "d": 1500,
      "v": 127
    },
    {
      "midi": 57,
      "hit": false,
      "t": 438000,
      "d": 500,
      "v": 127
    },
    {
      "midi": 60,
      "hit": false,
      "t": 438000,
      "d": 500,
      "v": 127
    },
    {
      "midi": 57,
      "hit": false,
      "t": 438500,
      "d": 500,
      "v": 127
    },
    {
      "midi": 60,
      "hit": false,
      "t": 438500,
      "d": 500,
      "v": 127
    },
    {
      "midi": 57,
      "hit": false,
      "t": 439000,
      "d": 500,
      "v": 127
    },
    {
      "midi": 60,
      "hit": false,
      "t": 439000,
      "d": 500,
      "v": 127
    },
    {
      "midi": 89,
      "hit": false,
      "t": 439500,
      "d": 500,
      "v": 127
    },
    {
      "midi": 57,
      "hit": false,
      "t": 439500,
      "d": 500,
      "v": 127
    },
    {
      "midi": 60,
      "hit": false,
      "t": 439500,
      "d": 500,
      "v": 127
    },
    {
      "midi": 79,
      "hit": false,
      "t": 440000,
      "d": 1500,
      "v": 127
    },
    {
      "midi": 50,
      "hit": false,
      "t": 440000,
      "d": 500,
      "v": 127
    },
    {
      "midi": 53,
      "hit": false,
      "t": 440500,
      "d": 500,
      "v": 127
    },
    {
      "midi": 55,
      "hit": false,
      "t": 440500,
      "d": 500,
      "v": 127
    },
    {
      "midi": 59,
      "hit": false,
      "t": 440500,
      "d": 500,
      "v": 127
    },
    {
      "midi": 53,
      "hit": false,
      "t": 441000,
      "d": 500,
      "v": 127
    },
    {
      "midi": 55,
      "hit": false,
      "t": 441000,
      "d": 500,
      "v": 127
    },
    {
      "midi": 59,
      "hit": false,
      "t": 441000,
      "d": 500,
      "v": 127
    },
    {
      "midi": 78,
      "hit": false,
      "t": 441500,
      "d": 500,
      "v": 127
    },
    {
      "midi": 53,
      "hit": false,
      "t": 441500,
      "d": 500,
      "v": 127
    },
    {
      "midi": 55,
      "hit": false,
      "t": 441500,
      "d": 500,
      "v": 127
    },
    {
      "midi": 59,
      "hit": false,
      "t": 441500,
      "d": 500,
      "v": 127
    },
    {
      "midi": 79,
      "hit": false,
      "t": 442000,
      "d": 1500,
      "v": 127
    },
    {
      "midi": 49,
      "hit": false,
      "t": 442000,
      "d": 500,
      "v": 127
    },
    {
      "midi": 53,
      "hit": false,
      "t": 442500,
      "d": 500,
      "v": 127
    },
    {
      "midi": 55,
      "hit": false,
      "t": 442500,
      "d": 500,
      "v": 127
    },
    {
      "midi": 59,
      "hit": false,
      "t": 442500,
      "d": 500,
      "v": 127
    },
    {
      "midi": 53,
      "hit": false,
      "t": 443000,
      "d": 500,
      "v": 127
    },
    {
      "midi": 55,
      "hit": false,
      "t": 443000,
      "d": 500,
      "v": 127
    },
    {
      "midi": 59,
      "hit": false,
      "t": 443000,
      "d": 500,
      "v": 127
    },
    {
      "midi": 78,
      "hit": false,
      "t": 443500,
      "d": 500,
      "v": 127
    },
    {
      "midi": 53,
      "hit": false,
      "t": 443500,
      "d": 500,
      "v": 127
    },
    {
      "midi": 55,
      "hit": false,
      "t": 443500,
      "d": 500,
      "v": 127
    },
    {
      "midi": 59,
      "hit": false,
      "t": 443500,
      "d": 500,
      "v": 127
    },
    {
      "midi": 79,
      "hit": false,
      "t": 444000,
      "d": 1500,
      "v": 127
    },
    {
      "midi": 48,
      "hit": false,
      "t": 444000,
      "d": 500,
      "v": 127
    },
    {
      "midi": 52,
      "hit": false,
      "t": 444500,
      "d": 500,
      "v": 127
    },
    {
      "midi": 55,
      "hit": false,
      "t": 444500,
      "d": 500,
      "v": 127
    },
    {
      "midi": 58,
      "hit": false,
      "t": 444500,
      "d": 500,
      "v": 127
    },
    {
      "midi": 52,
      "hit": false,
      "t": 445000,
      "d": 500,
      "v": 127
    },
    {
      "midi": 55,
      "hit": false,
      "t": 445000,
      "d": 500,
      "v": 127
    },
    {
      "midi": 58,
      "hit": false,
      "t": 445000,
      "d": 500,
      "v": 127
    },
    {
      "midi": 81,
      "hit": false,
      "t": 445500,
      "d": 500,
      "v": 127
    },
    {
      "midi": 52,
      "hit": false,
      "t": 445500,
      "d": 500,
      "v": 127
    },
    {
      "midi": 55,
      "hit": false,
      "t": 445500,
      "d": 500,
      "v": 127
    },
    {
      "midi": 58,
      "hit": false,
      "t": 445500,
      "d": 500,
      "v": 127
    },
    {
      "midi": 82,
      "hit": false,
      "t": 446000,
      "d": 1500,
      "v": 127
    },
    {
      "midi": 46,
      "hit": false,
      "t": 446000,
      "d": 500,
      "v": 127
    },
    {
      "midi": 48,
      "hit": false,
      "t": 446500,
      "d": 500,
      "v": 127
    },
    {
      "midi": 52,
      "hit": false,
      "t": 446500,
      "d": 500,
      "v": 127
    },
    {
      "midi": 55,
      "hit": false,
      "t": 446500,
      "d": 500,
      "v": 127
    },
    {
      "midi": 48,
      "hit": false,
      "t": 447000,
      "d": 500,
      "v": 127
    },
    {
      "midi": 52,
      "hit": false,
      "t": 447000,
      "d": 500,
      "v": 127
    },
    {
      "midi": 55,
      "hit": false,
      "t": 447000,
      "d": 500,
      "v": 127
    },
    {
      "midi": 83,
      "hit": false,
      "t": 447500,
      "d": 500,
      "v": 127
    },
    {
      "midi": 48,
      "hit": false,
      "t": 447500,
      "d": 500,
      "v": 127
    },
    {
      "midi": 52,
      "hit": false,
      "t": 447500,
      "d": 500,
      "v": 127
    },
    {
      "midi": 55,
      "hit": false,
      "t": 447500,
      "d": 500,
      "v": 127
    },
    {
      "midi": 86,
      "hit": false,
      "t": 448000,
      "d": 1500,
      "v": 127
    },
    {
      "midi": 45,
      "hit": false,
      "t": 448000,
      "d": 500,
      "v": 127
    },
    {
      "midi": 48,
      "hit": false,
      "t": 448500,
      "d": 500,
      "v": 127
    },
    {
      "midi": 53,
      "hit": false,
      "t": 448500,
      "d": 500,
      "v": 127
    },
    {
      "midi": 57,
      "hit": false,
      "t": 448500,
      "d": 500,
      "v": 127
    },
    {
      "midi": 48,
      "hit": false,
      "t": 449000,
      "d": 500,
      "v": 127
    },
    {
      "midi": 53,
      "hit": false,
      "t": 449000,
      "d": 500,
      "v": 127
    },
    {
      "midi": 57,
      "hit": false,
      "t": 449000,
      "d": 500,
      "v": 127
    },
    {
      "midi": 84,
      "hit": false,
      "t": 449500,
      "d": 500,
      "v": 127
    },
    {
      "midi": 48,
      "hit": false,
      "t": 449500,
      "d": 500,
      "v": 127
    },
    {
      "midi": 53,
      "hit": false,
      "t": 449500,
      "d": 500,
      "v": 127
    },
    {
      "midi": 57,
      "hit": false,
      "t": 449500,
      "d": 500,
      "v": 127
    },
    {
      "midi": 77,
      "hit": false,
      "t": 450000,
      "d": 1500,
      "v": 127
    },
    {
      "midi": 50,
      "hit": false,
      "t": 450000,
      "d": 500,
      "v": 127
    },
    {
      "midi": 53,
      "hit": false,
      "t": 450500,
      "d": 500,
      "v": 127
    },
    {
      "midi": 57,
      "hit": false,
      "t": 450500,
      "d": 500,
      "v": 127
    },
    {
      "midi": 53,
      "hit": false,
      "t": 451000,
      "d": 500,
      "v": 127
    },
    {
      "midi": 57,
      "hit": false,
      "t": 451000,
      "d": 500,
      "v": 127
    },
    {
      "midi": 78,
      "hit": false,
      "t": 451500,
      "d": 500,
      "v": 127
    },
    {
      "midi": 53,
      "hit": false,
      "t": 451500,
      "d": 500,
      "v": 127
    },
    {
      "midi": 57,
      "hit": false,
      "t": 451500,
      "d": 500,
      "v": 127
    },
    {
      "midi": 81,
      "hit": false,
      "t": 452000,
      "d": 1500,
      "v": 127
    },
    {
      "midi": 43,
      "hit": false,
      "t": 452000,
      "d": 500,
      "v": 127
    },
    {
      "midi": 53,
      "hit": false,
      "t": 452500,
      "d": 500,
      "v": 127
    },
    {
      "midi": 55,
      "hit": false,
      "t": 452500,
      "d": 500,
      "v": 127
    },
    {
      "midi": 59,
      "hit": false,
      "t": 452500,
      "d": 500,
      "v": 127
    },
    {
      "midi": 53,
      "hit": false,
      "t": 453000,
      "d": 500,
      "v": 127
    },
    {
      "midi": 55,
      "hit": false,
      "t": 453000,
      "d": 500,
      "v": 127
    },
    {
      "midi": 59,
      "hit": false,
      "t": 453000,
      "d": 500,
      "v": 127
    },
    {
      "midi": 79,
      "hit": false,
      "t": 453500,
      "d": 500,
      "v": 127
    },
    {
      "midi": 53,
      "hit": false,
      "t": 453500,
      "d": 500,
      "v": 127
    },
    {
      "midi": 55,
      "hit": false,
      "t": 453500,
      "d": 500,
      "v": 127
    },
    {
      "midi": 59,
      "hit": false,
      "t": 453500,
      "d": 500,
      "v": 127
    },
    {
      "midi": 81,
      "hit": false,
      "t": 454000,
      "d": 1000,
      "v": 127
    },
    {
      "midi": 43,
      "hit": false,
      "t": 454000,
      "d": 500,
      "v": 127
    },
    {
      "midi": 53,
      "hit": false,
      "t": 454500,
      "d": 500,
      "v": 127
    },
    {
      "midi": 55,
      "hit": false,
      "t": 454500,
      "d": 500,
      "v": 127
    },
    {
      "midi": 59,
      "hit": false,
      "t": 454500,
      "d": 500,
      "v": 127
    },
    {
      "midi": 79,
      "hit": false,
      "t": 455000,
      "d": 1000,
      "v": 127
    },
    {
      "midi": 53,
      "hit": false,
      "t": 455000,
      "d": 500,
      "v": 127
    },
    {
      "midi": 55,
      "hit": false,
      "t": 455000,
      "d": 500,
      "v": 127
    },
    {
      "midi": 59,
      "hit": false,
      "t": 455000,
      "d": 500,
      "v": 127
    },
    {
      "midi": 53,
      "hit": false,
      "t": 455500,
      "d": 500,
      "v": 127
    },
    {
      "midi": 55,
      "hit": false,
      "t": 455500,
      "d": 500,
      "v": 127
    },
    {
      "midi": 59,
      "hit": false,
      "t": 455500,
      "d": 500,
      "v": 127
    },
    {
      "midi": 81,
      "hit": false,
      "t": 456000,
      "d": 1500,
      "v": 127
    },
    {
      "midi": 48,
      "hit": false,
      "t": 456000,
      "d": 500,
      "v": 127
    },
    {
      "midi": 52,
      "hit": false,
      "t": 456500,
      "d": 500,
      "v": 127
    },
    {
      "midi": 55,
      "hit": false,
      "t": 456500,
      "d": 500,
      "v": 127
    },
    {
      "midi": 58,
      "hit": false,
      "t": 456500,
      "d": 500,
      "v": 127
    },
    {
      "midi": 52,
      "hit": false,
      "t": 457000,
      "d": 1000,
      "v": 127
    },
    {
      "midi": 55,
      "hit": false,
      "t": 457000,
      "d": 1000,
      "v": 127
    },
    {
      "midi": 58,
      "hit": false,
      "t": 457000,
      "d": 1000,
      "v": 127
    },
    {
      "midi": 79,
      "hit": false,
      "t": 457500,
      "d": 500,
      "v": 127
    },
    {
      "midi": 77,
      "hit": false,
      "t": 458000,
      "d": 500,
      "v": 127
    },
    {
      "midi": 76,
      "hit": false,
      "t": 458500,
      "d": 500,
      "v": 127
    },
    {
      "midi": 74,
      "hit": false,
      "t": 459000,
      "d": 500,
      "v": 127
    },
    {
      "midi": 72,
      "hit": false,
      "t": 459500,
      "d": 500,
      "v": 127
    },
    {
      "midi": 72,
      "hit": false,
      "t": 460000,
      "d": 1500,
      "v": 127
    },
    {
      "midi": 53,
      "hit": false,
      "t": 460000,
      "d": 500,
      "v": 127
    },
    {
      "midi": 57,
      "hit": false,
      "t": 460500,
      "d": 500,
      "v": 127
    },
    {
      "midi": 60,
      "hit": false,
      "t": 460500,
      "d": 500,
      "v": 127
    },
    {
      "midi": 57,
      "hit": false,
      "t": 461000,
      "d": 500,
      "v": 127
    },
    {
      "midi": 60,
      "hit": false,
      "t": 461000,
      "d": 500,
      "v": 127
    },
    {
      "midi": 71,
      "hit": false,
      "t": 461500,
      "d": 500,
      "v": 127
    },
    {
      "midi": 57,
      "hit": false,
      "t": 461500,
      "d": 500,
      "v": 127
    },
    {
      "midi": 60,
      "hit": false,
      "t": 461500,
      "d": 500,
      "v": 127
    },
    {
      "midi": 72,
      "hit": false,
      "t": 462000,
      "d": 1500,
      "v": 127
    },
    {
      "midi": 57,
      "hit": false,
      "t": 462000,
      "d": 500,
      "v": 127
    },
    {
      "midi": 60,
      "hit": false,
      "t": 462000,
      "d": 500,
      "v": 127
    },
    {
      "midi": 57,
      "hit": false,
      "t": 462500,
      "d": 500,
      "v": 127
    },
    {
      "midi": 60,
      "hit": false,
      "t": 462500,
      "d": 500,
      "v": 127
    },
    {
      "midi": 57,
      "hit": false,
      "t": 463000,
      "d": 500,
      "v": 127
    },
    {
      "midi": 60,
      "hit": false,
      "t": 463000,
      "d": 500,
      "v": 127
    },
    {
      "midi": 71,
      "hit": false,
      "t": 463500,
      "d": 500,
      "v": 127
    },
    {
      "midi": 57,
      "hit": false,
      "t": 463500,
      "d": 500,
      "v": 127
    },
    {
      "midi": 60,
      "hit": false,
      "t": 463500,
      "d": 500,
      "v": 127
    },
    {
      "midi": 72,
      "hit": false,
      "t": 464000,
      "d": 1500,
      "v": 127
    },
    {
      "midi": 53,
      "hit": false,
      "t": 464000,
      "d": 500,
      "v": 127
    },
    {
      "midi": 57,
      "hit": false,
      "t": 464500,
      "d": 500,
      "v": 127
    },
    {
      "midi": 60,
      "hit": false,
      "t": 464500,
      "d": 500,
      "v": 127
    },
    {
      "midi": 57,
      "hit": false,
      "t": 465000,
      "d": 500,
      "v": 127
    },
    {
      "midi": 60,
      "hit": false,
      "t": 465000,
      "d": 500,
      "v": 127
    },
    {
      "midi": 76,
      "hit": false,
      "t": 465500,
      "d": 500,
      "v": 127
    },
    {
      "midi": 57,
      "hit": false,
      "t": 465500,
      "d": 500,
      "v": 127
    },
    {
      "midi": 60,
      "hit": false,
      "t": 465500,
      "d": 500,
      "v": 127
    },
    {
      "midi": 79,
      "hit": false,
      "t": 466000,
      "d": 1500,
      "v": 127
    },
    {
      "midi": 57,
      "hit": false,
      "t": 466000,
      "d": 500,
      "v": 127
    },
    {
      "midi": 60,
      "hit": false,
      "t": 466000,
      "d": 500,
      "v": 127
    },
    {
      "midi": 57,
      "hit": false,
      "t": 466500,
      "d": 500,
      "v": 127
    },
    {
      "midi": 60,
      "hit": false,
      "t": 466500,
      "d": 500,
      "v": 127
    },
    {
      "midi": 57,
      "hit": false,
      "t": 467000,
      "d": 500,
      "v": 127
    },
    {
      "midi": 60,
      "hit": false,
      "t": 467000,
      "d": 500,
      "v": 127
    },
    {
      "midi": 77,
      "hit": false,
      "t": 467500,
      "d": 500,
      "v": 127
    },
    {
      "midi": 57,
      "hit": false,
      "t": 467500,
      "d": 500,
      "v": 127
    },
    {
      "midi": 60,
      "hit": false,
      "t": 467500,
      "d": 500,
      "v": 127
    },
    {
      "midi": 67,
      "hit": false,
      "t": 468000,
      "d": 1500,
      "v": 127
    },
    {
      "midi": 52,
      "hit": false,
      "t": 468000,
      "d": 500,
      "v": 127
    },
    {
      "midi": 55,
      "hit": false,
      "t": 468500,
      "d": 500,
      "v": 127
    },
    {
      "midi": 58,
      "hit": false,
      "t": 468500,
      "d": 500,
      "v": 127
    },
    {
      "midi": 55,
      "hit": false,
      "t": 469000,
      "d": 500,
      "v": 127
    },
    {
      "midi": 58,
      "hit": false,
      "t": 469000,
      "d": 500,
      "v": 127
    },
    {
      "midi": 66,
      "hit": false,
      "t": 469500,
      "d": 500,
      "v": 127
    },
    {
      "midi": 55,
      "hit": false,
      "t": 469500,
      "d": 500,
      "v": 127
    },
    {
      "midi": 58,
      "hit": false,
      "t": 469500,
      "d": 500,
      "v": 127
    },
    {
      "midi": 67,
      "hit": false,
      "t": 470000,
      "d": 1500,
      "v": 127
    },
    {
      "midi": 51,
      "hit": false,
      "t": 470000,
      "d": 500,
      "v": 127
    },
    {
      "midi": 55,
      "hit": false,
      "t": 470500,
      "d": 500,
      "v": 127
    },
    {
      "midi": 58,
      "hit": false,
      "t": 470500,
      "d": 500,
      "v": 127
    },
    {
      "midi": 55,
      "hit": false,
      "t": 471000,
      "d": 500,
      "v": 127
    },
    {
      "midi": 58,
      "hit": false,
      "t": 471000,
      "d": 500,
      "v": 127
    },
    {
      "midi": 66,
      "hit": false,
      "t": 471500,
      "d": 500,
      "v": 127
    },
    {
      "midi": 55,
      "hit": false,
      "t": 471500,
      "d": 500,
      "v": 127
    },
    {
      "midi": 58,
      "hit": false,
      "t": 471500,
      "d": 500,
      "v": 127
    },
    {
      "midi": 67,
      "hit": false,
      "t": 472000,
      "d": 1500,
      "v": 127
    },
    {
      "midi": 50,
      "hit": false,
      "t": 472000,
      "d": 500,
      "v": 127
    },
    {
      "midi": 55,
      "hit": false,
      "t": 472500,
      "d": 500,
      "v": 127
    },
    {
      "midi": 58,
      "hit": false,
      "t": 472500,
      "d": 500,
      "v": 127
    },
    {
      "midi": 55,
      "hit": false,
      "t": 473000,
      "d": 500,
      "v": 127
    },
    {
      "midi": 58,
      "hit": false,
      "t": 473000,
      "d": 500,
      "v": 127
    },
    {
      "midi": 69,
      "hit": false,
      "t": 473500,
      "d": 500,
      "v": 127
    },
    {
      "midi": 55,
      "hit": false,
      "t": 473500,
      "d": 500,
      "v": 127
    },
    {
      "midi": 58,
      "hit": false,
      "t": 473500,
      "d": 500,
      "v": 127
    },
    {
      "midi": 70,
      "hit": false,
      "t": 474000,
      "d": 1500,
      "v": 127
    },
    {
      "midi": 48,
      "hit": false,
      "t": 474000,
      "d": 500,
      "v": 127
    },
    {
      "midi": 52,
      "hit": false,
      "t": 474500,
      "d": 500,
      "v": 127
    },
    {
      "midi": 55,
      "hit": false,
      "t": 474500,
      "d": 500,
      "v": 127
    },
    {
      "midi": 60,
      "hit": false,
      "t": 474500,
      "d": 500,
      "v": 127
    },
    {
      "midi": 52,
      "hit": false,
      "t": 475000,
      "d": 500,
      "v": 127
    },
    {
      "midi": 55,
      "hit": false,
      "t": 475000,
      "d": 500,
      "v": 127
    },
    {
      "midi": 60,
      "hit": false,
      "t": 475000,
      "d": 500,
      "v": 127
    },
    {
      "midi": 71,
      "hit": false,
      "t": 475500,
      "d": 500,
      "v": 127
    },
    {
      "midi": 52,
      "hit": false,
      "t": 475500,
      "d": 500,
      "v": 127
    },
    {
      "midi": 55,
      "hit": false,
      "t": 475500,
      "d": 500,
      "v": 127
    },
    {
      "midi": 60,
      "hit": false,
      "t": 475500,
      "d": 500,
      "v": 127
    },
    {
      "midi": 74,
      "hit": false,
      "t": 476000,
      "d": 1500,
      "v": 127
    },
    {
      "midi": 45,
      "hit": false,
      "t": 476000,
      "d": 500,
      "v": 127
    },
    {
      "midi": 48,
      "hit": false,
      "t": 476500,
      "d": 500,
      "v": 127
    },
    {
      "midi": 53,
      "hit": false,
      "t": 476500,
      "d": 500,
      "v": 127
    },
    {
      "midi": 57,
      "hit": false,
      "t": 476500,
      "d": 500,
      "v": 127
    },
    {
      "midi": 48,
      "hit": false,
      "t": 477000,
      "d": 500,
      "v": 127
    },
    {
      "midi": 53,
      "hit": false,
      "t": 477000,
      "d": 500,
      "v": 127
    },
    {
      "midi": 57,
      "hit": false,
      "t": 477000,
      "d": 500,
      "v": 127
    },
    {
      "midi": 72,
      "hit": false,
      "t": 477500,
      "d": 500,
      "v": 127
    },
    {
      "midi": 48,
      "hit": false,
      "t": 477500,
      "d": 500,
      "v": 127
    },
    {
      "midi": 53,
      "hit": false,
      "t": 477500,
      "d": 500,
      "v": 127
    },
    {
      "midi": 57,
      "hit": false,
      "t": 477500,
      "d": 500,
      "v": 127
    },
    {
      "midi": 65,
      "hit": false,
      "t": 478000,
      "d": 1500,
      "v": 127
    },
    {
      "midi": 50,
      "hit": false,
      "t": 478000,
      "d": 500,
      "v": 127
    },
    {
      "midi": 53,
      "hit": false,
      "t": 478500,
      "d": 500,
      "v": 127
    },
    {
      "midi": 57,
      "hit": false,
      "t": 478500,
      "d": 500,
      "v": 127
    },
    {
      "midi": 53,
      "hit": false,
      "t": 479000,
      "d": 500,
      "v": 127
    },
    {
      "midi": 57,
      "hit": false,
      "t": 479000,
      "d": 500,
      "v": 127
    },
    {
      "midi": 66,
      "hit": false,
      "t": 479500,
      "d": 500,
      "v": 127
    },
    {
      "midi": 53,
      "hit": false,
      "t": 479500,
      "d": 500,
      "v": 127
    },
    {
      "midi": 57,
      "hit": false,
      "t": 479500,
      "d": 500,
      "v": 127
    },
    {
      "midi": 69,
      "hit": false,
      "t": 480000,
      "d": 1500,
      "v": 127
    },
    {
      "midi": 43,
      "hit": false,
      "t": 480000,
      "d": 500,
      "v": 127
    },
    {
      "midi": 53,
      "hit": false,
      "t": 480500,
      "d": 500,
      "v": 127
    },
    {
      "midi": 55,
      "hit": false,
      "t": 480500,
      "d": 500,
      "v": 127
    },
    {
      "midi": 59,
      "hit": false,
      "t": 480500,
      "d": 500,
      "v": 127
    },
    {
      "midi": 53,
      "hit": false,
      "t": 481000,
      "d": 500,
      "v": 127
    },
    {
      "midi": 55,
      "hit": false,
      "t": 481000,
      "d": 500,
      "v": 127
    },
    {
      "midi": 59,
      "hit": false,
      "t": 481000,
      "d": 500,
      "v": 127
    },
    {
      "midi": 67,
      "hit": false,
      "t": 481500,
      "d": 500,
      "v": 127
    },
    {
      "midi": 53,
      "hit": false,
      "t": 481500,
      "d": 500,
      "v": 127
    },
    {
      "midi": 55,
      "hit": false,
      "t": 481500,
      "d": 500,
      "v": 127
    },
    {
      "midi": 59,
      "hit": false,
      "t": 481500,
      "d": 500,
      "v": 127
    },
    {
      "midi": 69,
      "hit": false,
      "t": 482000,
      "d": 1500,
      "v": 127
    },
    {
      "midi": 43,
      "hit": false,
      "t": 482000,
      "d": 500,
      "v": 127
    },
    {
      "midi": 53,
      "hit": false,
      "t": 482500,
      "d": 500,
      "v": 127
    },
    {
      "midi": 55,
      "hit": false,
      "t": 482500,
      "d": 500,
      "v": 127
    },
    {
      "midi": 59,
      "hit": false,
      "t": 482500,
      "d": 500,
      "v": 127
    },
    {
      "midi": 53,
      "hit": false,
      "t": 483000,
      "d": 500,
      "v": 127
    },
    {
      "midi": 55,
      "hit": false,
      "t": 483000,
      "d": 500,
      "v": 127
    },
    {
      "midi": 59,
      "hit": false,
      "t": 483000,
      "d": 500,
      "v": 127
    },
    {
      "midi": 67,
      "hit": false,
      "t": 483500,
      "d": 500,
      "v": 127
    },
    {
      "midi": 53,
      "hit": false,
      "t": 483500,
      "d": 500,
      "v": 127
    },
    {
      "midi": 55,
      "hit": false,
      "t": 483500,
      "d": 500,
      "v": 127
    },
    {
      "midi": 59,
      "hit": false,
      "t": 483500,
      "d": 500,
      "v": 127
    },
    {
      "midi": 69,
      "hit": false,
      "t": 484000,
      "d": 1500,
      "v": 127
    },
    {
      "midi": 48,
      "hit": false,
      "t": 484000,
      "d": 500,
      "v": 127
    },
    {
      "midi": 52,
      "hit": false,
      "t": 484500,
      "d": 500,
      "v": 127
    },
    {
      "midi": 55,
      "hit": false,
      "t": 484500,
      "d": 500,
      "v": 127
    },
    {
      "midi": 58,
      "hit": false,
      "t": 484500,
      "d": 500,
      "v": 127
    },
    {
      "midi": 52,
      "hit": false,
      "t": 485000,
      "d": 1000,
      "v": 127
    },
    {
      "midi": 55,
      "hit": false,
      "t": 485000,
      "d": 1000,
      "v": 127
    },
    {
      "midi": 58,
      "hit": false,
      "t": 485000,
      "d": 1000,
      "v": 127
    },
    {
      "midi": 67,
      "hit": false,
      "t": 485500,
      "d": 500,
      "v": 127
    },
    {
      "midi": 65,
      "hit": false,
      "t": 486000,
      "d": 500,
      "v": 127
    },
    {
      "midi": 64,
      "hit": false,
      "t": 486500,
      "d": 500,
      "v": 127
    },
    {
      "midi": 62,
      "hit": false,
      "t": 487000,
      "d": 500,
      "v": 127
    },
    {
      "midi": 60,
      "hit": false,
      "t": 487500,
      "d": 500,
      "v": 127
    },
    {
      "midi": 72,
      "hit": false,
      "t": 488000,
      "d": 1500,
      "v": 127
    },
    {
      "midi": 53,
      "hit": false,
      "t": 488000,
      "d": 500,
      "v": 127
    },
    {
      "midi": 57,
      "hit": false,
      "t": 488500,
      "d": 500,
      "v": 127
    },
    {
      "midi": 60,
      "hit": false,
      "t": 488500,
      "d": 500,
      "v": 127
    },
    {
      "midi": 57,
      "hit": false,
      "t": 489000,
      "d": 500,
      "v": 127
    },
    {
      "midi": 60,
      "hit": false,
      "t": 489000,
      "d": 500,
      "v": 127
    },
    {
      "midi": 71,
      "hit": false,
      "t": 489500,
      "d": 500,
      "v": 127
    },
    {
      "midi": 57,
      "hit": false,
      "t": 489500,
      "d": 500,
      "v": 127
    },
    {
      "midi": 60,
      "hit": false,
      "t": 489500,
      "d": 500,
      "v": 127
    },
    {
      "midi": 72,
      "hit": false,
      "t": 490000,
      "d": 1500,
      "v": 127
    },
    {
      "midi": 57,
      "hit": false,
      "t": 490000,
      "d": 500,
      "v": 127
    },
    {
      "midi": 60,
      "hit": false,
      "t": 490000,
      "d": 500,
      "v": 127
    },
    {
      "midi": 57,
      "hit": false,
      "t": 490500,
      "d": 500,
      "v": 127
    },
    {
      "midi": 60,
      "hit": false,
      "t": 490500,
      "d": 500,
      "v": 127
    },
    {
      "midi": 57,
      "hit": false,
      "t": 491000,
      "d": 500,
      "v": 127
    },
    {
      "midi": 60,
      "hit": false,
      "t": 491000,
      "d": 500,
      "v": 127
    },
    {
      "midi": 71,
      "hit": false,
      "t": 491500,
      "d": 500,
      "v": 127
    },
    {
      "midi": 57,
      "hit": false,
      "t": 491500,
      "d": 500,
      "v": 127
    },
    {
      "midi": 60,
      "hit": false,
      "t": 491500,
      "d": 500,
      "v": 127
    },
    {
      "midi": 72,
      "hit": false,
      "t": 492000,
      "d": 1500,
      "v": 127
    },
    {
      "midi": 53,
      "hit": false,
      "t": 492000,
      "d": 500,
      "v": 127
    },
    {
      "midi": 57,
      "hit": false,
      "t": 492500,
      "d": 500,
      "v": 127
    },
    {
      "midi": 60,
      "hit": false,
      "t": 492500,
      "d": 500,
      "v": 127
    },
    {
      "midi": 57,
      "hit": false,
      "t": 493000,
      "d": 500,
      "v": 127
    },
    {
      "midi": 60,
      "hit": false,
      "t": 493000,
      "d": 500,
      "v": 127
    },
    {
      "midi": 76,
      "hit": false,
      "t": 493500,
      "d": 500,
      "v": 127
    },
    {
      "midi": 57,
      "hit": false,
      "t": 493500,
      "d": 500,
      "v": 127
    },
    {
      "midi": 60,
      "hit": false,
      "t": 493500,
      "d": 500,
      "v": 127
    },
    {
      "midi": 79,
      "hit": false,
      "t": 494000,
      "d": 1500,
      "v": 127
    },
    {
      "midi": 57,
      "hit": false,
      "t": 494000,
      "d": 500,
      "v": 127
    },
    {
      "midi": 60,
      "hit": false,
      "t": 494000,
      "d": 500,
      "v": 127
    },
    {
      "midi": 57,
      "hit": false,
      "t": 494500,
      "d": 500,
      "v": 127
    },
    {
      "midi": 60,
      "hit": false,
      "t": 494500,
      "d": 500,
      "v": 127
    },
    {
      "midi": 57,
      "hit": false,
      "t": 495000,
      "d": 500,
      "v": 127
    },
    {
      "midi": 60,
      "hit": false,
      "t": 495000,
      "d": 500,
      "v": 127
    },
    {
      "midi": 77,
      "hit": false,
      "t": 495500,
      "d": 500,
      "v": 127
    },
    {
      "midi": 57,
      "hit": false,
      "t": 495500,
      "d": 500,
      "v": 127
    },
    {
      "midi": 60,
      "hit": false,
      "t": 495500,
      "d": 500,
      "v": 127
    },
    {
      "midi": 67,
      "hit": false,
      "t": 496000,
      "d": 1500,
      "v": 127
    },
    {
      "midi": 48,
      "hit": false,
      "t": 496000,
      "d": 500,
      "v": 127
    },
    {
      "midi": 52,
      "hit": false,
      "t": 496500,
      "d": 500,
      "v": 127
    },
    {
      "midi": 55,
      "hit": false,
      "t": 496500,
      "d": 500,
      "v": 127
    },
    {
      "midi": 52,
      "hit": false,
      "t": 497000,
      "d": 500,
      "v": 127
    },
    {
      "midi": 55,
      "hit": false,
      "t": 497000,
      "d": 500,
      "v": 127
    },
    {
      "midi": 66,
      "hit": false,
      "t": 497500,
      "d": 500,
      "v": 127
    },
    {
      "midi": 52,
      "hit": false,
      "t": 497500,
      "d": 500,
      "v": 127
    },
    {
      "midi": 55,
      "hit": false,
      "t": 497500,
      "d": 500,
      "v": 127
    },
    {
      "midi": 67,
      "hit": false,
      "t": 498000,
      "d": 1500,
      "v": 127
    },
    {
      "midi": 47,
      "hit": false,
      "t": 498000,
      "d": 500,
      "v": 127
    },
    {
      "midi": 52,
      "hit": false,
      "t": 498500,
      "d": 500,
      "v": 127
    },
    {
      "midi": 55,
      "hit": false,
      "t": 498500,
      "d": 500,
      "v": 127
    },
    {
      "midi": 52,
      "hit": false,
      "t": 499000,
      "d": 500,
      "v": 127
    },
    {
      "midi": 55,
      "hit": false,
      "t": 499000,
      "d": 500,
      "v": 127
    },
    {
      "midi": 66,
      "hit": false,
      "t": 499500,
      "d": 500,
      "v": 127
    },
    {
      "midi": 52,
      "hit": false,
      "t": 499500,
      "d": 500,
      "v": 127
    },
    {
      "midi": 55,
      "hit": false,
      "t": 499500,
      "d": 500,
      "v": 127
    },
    {
      "midi": 67,
      "hit": false,
      "t": 500000,
      "d": 1500,
      "v": 127
    },
    {
      "midi": 46,
      "hit": false,
      "t": 500000,
      "d": 500,
      "v": 127
    },
    {
      "midi": 52,
      "hit": false,
      "t": 500500,
      "d": 500,
      "v": 127
    },
    {
      "midi": 55,
      "hit": false,
      "t": 500500,
      "d": 500,
      "v": 127
    },
    {
      "midi": 52,
      "hit": false,
      "t": 501000,
      "d": 500,
      "v": 127
    },
    {
      "midi": 55,
      "hit": false,
      "t": 501000,
      "d": 500,
      "v": 127
    },
    {
      "midi": 69,
      "hit": false,
      "t": 501500,
      "d": 500,
      "v": 127
    },
    {
      "midi": 52,
      "hit": false,
      "t": 501500,
      "d": 500,
      "v": 127
    },
    {
      "midi": 55,
      "hit": false,
      "t": 501500,
      "d": 500,
      "v": 127
    },
    {
      "midi": 70,
      "hit": false,
      "t": 502000,
      "d": 1500,
      "v": 127
    },
    {
      "midi": 43,
      "hit": false,
      "t": 502000,
      "d": 500,
      "v": 127
    },
    {
      "midi": 52,
      "hit": false,
      "t": 502500,
      "d": 500,
      "v": 127
    },
    {
      "midi": 55,
      "hit": false,
      "t": 502500,
      "d": 500,
      "v": 127
    },
    {
      "midi": 52,
      "hit": false,
      "t": 503000,
      "d": 500,
      "v": 127
    },
    {
      "midi": 55,
      "hit": false,
      "t": 503000,
      "d": 500,
      "v": 127
    },
    {
      "midi": 71,
      "hit": false,
      "t": 503500,
      "d": 500,
      "v": 127
    },
    {
      "midi": 52,
      "hit": false,
      "t": 503500,
      "d": 500,
      "v": 127
    },
    {
      "midi": 55,
      "hit": false,
      "t": 503500,
      "d": 500,
      "v": 127
    },
    {
      "midi": 74,
      "hit": false,
      "t": 504000,
      "d": 1500,
      "v": 127
    },
    {
      "midi": 45,
      "hit": false,
      "t": 504000,
      "d": 500,
      "v": 127
    },
    {
      "midi": 48,
      "hit": false,
      "t": 504500,
      "d": 500,
      "v": 127
    },
    {
      "midi": 53,
      "hit": false,
      "t": 504500,
      "d": 500,
      "v": 127
    },
    {
      "midi": 57,
      "hit": false,
      "t": 504500,
      "d": 500,
      "v": 127
    },
    {
      "midi": 48,
      "hit": false,
      "t": 505000,
      "d": 500,
      "v": 127
    },
    {
      "midi": 53,
      "hit": false,
      "t": 505000,
      "d": 500,
      "v": 127
    },
    {
      "midi": 57,
      "hit": false,
      "t": 505000,
      "d": 500,
      "v": 127
    },
    {
      "midi": 72,
      "hit": false,
      "t": 505500,
      "d": 500,
      "v": 127
    },
    {
      "midi": 48,
      "hit": false,
      "t": 505500,
      "d": 500,
      "v": 127
    },
    {
      "midi": 53,
      "hit": false,
      "t": 505500,
      "d": 500,
      "v": 127
    },
    {
      "midi": 57,
      "hit": false,
      "t": 505500,
      "d": 500,
      "v": 127
    },
    {
      "midi": 65,
      "hit": false,
      "t": 506000,
      "d": 1500,
      "v": 127
    },
    {
      "midi": 50,
      "hit": false,
      "t": 506000,
      "d": 500,
      "v": 127
    },
    {
      "midi": 53,
      "hit": false,
      "t": 506500,
      "d": 500,
      "v": 127
    },
    {
      "midi": 57,
      "hit": false,
      "t": 506500,
      "d": 500,
      "v": 127
    },
    {
      "midi": 53,
      "hit": false,
      "t": 507000,
      "d": 500,
      "v": 127
    },
    {
      "midi": 57,
      "hit": false,
      "t": 507000,
      "d": 500,
      "v": 127
    },
    {
      "midi": 66,
      "hit": false,
      "t": 507500,
      "d": 500,
      "v": 127
    },
    {
      "midi": 53,
      "hit": false,
      "t": 507500,
      "d": 500,
      "v": 127
    },
    {
      "midi": 57,
      "hit": false,
      "t": 507500,
      "d": 500,
      "v": 127
    },
    {
      "midi": 69,
      "hit": false,
      "t": 508000,
      "d": 1500,
      "v": 127
    },
    {
      "midi": 46,
      "hit": false,
      "t": 508000,
      "d": 500,
      "v": 127
    },
    {
      "midi": 50,
      "hit": false,
      "t": 508500,
      "d": 500,
      "v": 127
    },
    {
      "midi": 58,
      "hit": false,
      "t": 508500,
      "d": 500,
      "v": 127
    },
    {
      "midi": 50,
      "hit": false,
      "t": 509000,
      "d": 500,
      "v": 127
    },
    {
      "midi": 58,
      "hit": false,
      "t": 509000,
      "d": 500,
      "v": 127
    },
    {
      "midi": 67,
      "hit": false,
      "t": 509500,
      "d": 500,
      "v": 127
    },
    {
      "midi": 50,
      "hit": false,
      "t": 509500,
      "d": 500,
      "v": 127
    },
    {
      "midi": 58,
      "hit": false,
      "t": 509500,
      "d": 500,
      "v": 127
    },
    {
      "midi": 62,
      "hit": false,
      "t": 510000,
      "d": 1500,
      "v": 127
    },
    {
      "midi": 48,
      "hit": false,
      "t": 510000,
      "d": 500,
      "v": 127
    },
    {
      "midi": 55,
      "hit": false,
      "t": 510500,
      "d": 500,
      "v": 127
    },
    {
      "midi": 58,
      "hit": false,
      "t": 510500,
      "d": 500,
      "v": 127
    },
    {
      "midi": 55,
      "hit": false,
      "t": 511000,
      "d": 500,
      "v": 127
    },
    {
      "midi": 58,
      "hit": false,
      "t": 511000,
      "d": 500,
      "v": 127
    },
    {
      "midi": 64,
      "hit": false,
      "t": 511500,
      "d": 500,
      "v": 127
    },
    {
      "midi": 55,
      "hit": false,
      "t": 511500,
      "d": 500,
      "v": 127
    },
    {
      "midi": 58,
      "hit": false,
      "t": 511500,
      "d": 500,
      "v": 127
    },
    {
      "midi": 65,
      "hit": false,
      "t": 512000,
      "d": 500,
      "v": 127
    },
    {
      "midi": 53,
      "hit": false,
      "t": 512000,
      "d": 1000,
      "v": 127
    },
    {
      "midi": 57,
      "hit": false,
      "t": 512000,
      "d": 1000,
      "v": 127
    },
    {
      "midi": 64,
      "hit": false,
      "t": 512500,
      "d": 500,
      "v": 127
    },
    {
      "midi": 65,
      "hit": false,
      "t": 513000,
      "d": 500,
      "v": 127
    },
    {
      "midi": 64,
      "hit": false,
      "t": 513500,
      "d": 500,
      "v": 127
    },
    {
      "midi": 65,
      "hit": false,
      "t": 514000,
      "d": 500,
      "v": 127
    },
    {
      "midi": 64,
      "hit": false,
      "t": 514500,
      "d": 500,
      "v": 127
    },
    {
      "midi": 65,
      "hit": false,
      "t": 515000,
      "d": 500,
      "v": 127
    },
    {
      "midi": 66,
      "hit": false,
      "t": 515500,
      "d": 500,
      "v": 127
    },
    {
      "midi": 67,
      "hit": false,
      "t": 516000,
      "d": 1500,
      "v": 127
    },
    {
      "midi": 79,
      "hit": false,
      "t": 516000,
      "d": 1500,
      "v": 127
    },
    {
      "midi": 48,
      "hit": false,
      "t": 516000,
      "d": 500,
      "v": 127
    },
    {
      "midi": 52,
      "hit": false,
      "t": 516500,
      "d": 500,
      "v": 127
    },
    {
      "midi": 55,
      "hit": false,
      "t": 516500,
      "d": 500,
      "v": 127
    },
    {
      "midi": 52,
      "hit": false,
      "t": 517000,
      "d": 500,
      "v": 127
    },
    {
      "midi": 55,
      "hit": false,
      "t": 517000,
      "d": 500,
      "v": 127
    },
    {
      "midi": 66,
      "hit": false,
      "t": 517500,
      "d": 500,
      "v": 127
    },
    {
      "midi": 78,
      "hit": false,
      "t": 517500,
      "d": 500,
      "v": 127
    },
    {
      "midi": 52,
      "hit": false,
      "t": 517500,
      "d": 500,
      "v": 127
    },
    {
      "midi": 55,
      "hit": false,
      "t": 517500,
      "d": 500,
      "v": 127
    },
    {
      "midi": 67,
      "hit": false,
      "t": 518000,
      "d": 1500,
      "v": 127
    },
    {
      "midi": 79,
      "hit": false,
      "t": 518000,
      "d": 1500,
      "v": 127
    },
    {
      "midi": 52,
      "hit": false,
      "t": 518000,
      "d": 500,
      "v": 127
    },
    {
      "midi": 55,
      "hit": false,
      "t": 518000,
      "d": 500,
      "v": 127
    },
    {
      "midi": 52,
      "hit": false,
      "t": 518500,
      "d": 500,
      "v": 127
    },
    {
      "midi": 55,
      "hit": false,
      "t": 518500,
      "d": 500,
      "v": 127
    },
    {
      "midi": 52,
      "hit": false,
      "t": 519000,
      "d": 500,
      "v": 127
    },
    {
      "midi": 55,
      "hit": false,
      "t": 519000,
      "d": 500,
      "v": 127
    },
    {
      "midi": 66,
      "hit": false,
      "t": 519500,
      "d": 500,
      "v": 127
    },
    {
      "midi": 78,
      "hit": false,
      "t": 519500,
      "d": 500,
      "v": 127
    },
    {
      "midi": 52,
      "hit": false,
      "t": 519500,
      "d": 500,
      "v": 127
    },
    {
      "midi": 55,
      "hit": false,
      "t": 519500,
      "d": 500,
      "v": 127
    },
    {
      "midi": 67,
      "hit": false,
      "t": 520000,
      "d": 1500,
      "v": 127
    },
    {
      "midi": 79,
      "hit": false,
      "t": 520000,
      "d": 1500,
      "v": 127
    },
    {
      "midi": 48,
      "hit": false,
      "t": 520000,
      "d": 500,
      "v": 127
    },
    {
      "midi": 52,
      "hit": false,
      "t": 520500,
      "d": 500,
      "v": 127
    },
    {
      "midi": 55,
      "hit": false,
      "t": 520500,
      "d": 500,
      "v": 127
    },
    {
      "midi": 52,
      "hit": false,
      "t": 521000,
      "d": 500,
      "v": 127
    },
    {
      "midi": 55,
      "hit": false,
      "t": 521000,
      "d": 500,
      "v": 127
    },
    {
      "midi": 71,
      "hit": false,
      "t": 521500,
      "d": 500,
      "v": 127
    },
    {
      "midi": 83,
      "hit": false,
      "t": 521500,
      "d": 500,
      "v": 127
    },
    {
      "midi": 52,
      "hit": false,
      "t": 521500,
      "d": 500,
      "v": 127
    },
    {
      "midi": 55,
      "hit": false,
      "t": 521500,
      "d": 500,
      "v": 127
    },
    {
      "midi": 74,
      "hit": false,
      "t": 522000,
      "d": 1500,
      "v": 127
    },
    {
      "midi": 86,
      "hit": false,
      "t": 522000,
      "d": 1500,
      "v": 127
    },
    {
      "midi": 52,
      "hit": false,
      "t": 522000,
      "d": 500,
      "v": 127
    },
    {
      "midi": 55,
      "hit": false,
      "t": 522000,
      "d": 500,
      "v": 127
    },
    {
      "midi": 52,
      "hit": false,
      "t": 522500,
      "d": 500,
      "v": 127
    },
    {
      "midi": 55,
      "hit": false,
      "t": 522500,
      "d": 500,
      "v": 127
    },
    {
      "midi": 52,
      "hit": false,
      "t": 523000,
      "d": 500,
      "v": 127
    },
    {
      "midi": 55,
      "hit": false,
      "t": 523000,
      "d": 500,
      "v": 127
    },
    {
      "midi": 72,
      "hit": false,
      "t": 523500,
      "d": 500,
      "v": 127
    },
    {
      "midi": 84,
      "hit": false,
      "t": 523500,
      "d": 500,
      "v": 127
    },
    {
      "midi": 52,
      "hit": false,
      "t": 523500,
      "d": 500,
      "v": 127
    },
    {
      "midi": 55,
      "hit": false,
      "t": 523500,
      "d": 500,
      "v": 127
    },
    {
      "midi": 62,
      "hit": false,
      "t": 524000,
      "d": 1500,
      "v": 127
    },
    {
      "midi": 74,
      "hit": false,
      "t": 524000,
      "d": 1500,
      "v": 127
    },
    {
      "midi": 45,
      "hit": false,
      "t": 524000,
      "d": 500,
      "v": 127
    },
    {
      "midi": 48,
      "hit": false,
      "t": 524500,
      "d": 500,
      "v": 127
    },
    {
      "midi": 50,
      "hit": false,
      "t": 524500,
      "d": 500,
      "v": 127
    },
    {
      "midi": 54,
      "hit": false,
      "t": 524500,
      "d": 500,
      "v": 127
    },
    {
      "midi": 48,
      "hit": false,
      "t": 525000,
      "d": 500,
      "v": 127
    },
    {
      "midi": 50,
      "hit": false,
      "t": 525000,
      "d": 500,
      "v": 127
    },
    {
      "midi": 54,
      "hit": false,
      "t": 525000,
      "d": 500,
      "v": 127
    },
    {
      "midi": 61,
      "hit": false,
      "t": 525500,
      "d": 500,
      "v": 127
    },
    {
      "midi": 73,
      "hit": false,
      "t": 525500,
      "d": 500,
      "v": 127
    },
    {
      "midi": 48,
      "hit": false,
      "t": 525500,
      "d": 500,
      "v": 127
    },
    {
      "midi": 50,
      "hit": false,
      "t": 525500,
      "d": 500,
      "v": 127
    },
    {
      "midi": 54,
      "hit": false,
      "t": 525500,
      "d": 500,
      "v": 127
    },
    {
      "midi": 62,
      "hit": false,
      "t": 526000,
      "d": 1500,
      "v": 127
    },
    {
      "midi": 74,
      "hit": false,
      "t": 526000,
      "d": 1500,
      "v": 127
    },
    {
      "midi": 44,
      "hit": false,
      "t": 526000,
      "d": 500,
      "v": 127
    },
    {
      "midi": 48,
      "hit": false,
      "t": 526500,
      "d": 500,
      "v": 127
    },
    {
      "midi": 50,
      "hit": false,
      "t": 526500,
      "d": 500,
      "v": 127
    },
    {
      "midi": 54,
      "hit": false,
      "t": 526500,
      "d": 500,
      "v": 127
    },
    {
      "midi": 48,
      "hit": false,
      "t": 527000,
      "d": 500,
      "v": 127
    },
    {
      "midi": 50,
      "hit": false,
      "t": 527000,
      "d": 500,
      "v": 127
    },
    {
      "midi": 54,
      "hit": false,
      "t": 527000,
      "d": 500,
      "v": 127
    },
    {
      "midi": 61,
      "hit": false,
      "t": 527500,
      "d": 500,
      "v": 127
    },
    {
      "midi": 73,
      "hit": false,
      "t": 527500,
      "d": 500,
      "v": 127
    },
    {
      "midi": 48,
      "hit": false,
      "t": 527500,
      "d": 500,
      "v": 127
    },
    {
      "midi": 50,
      "hit": false,
      "t": 527500,
      "d": 500,
      "v": 127
    },
    {
      "midi": 54,
      "hit": false,
      "t": 527500,
      "d": 500,
      "v": 127
    },
    {
      "midi": 62,
      "hit": false,
      "t": 528000,
      "d": 1500,
      "v": 127
    },
    {
      "midi": 74,
      "hit": false,
      "t": 528000,
      "d": 1500,
      "v": 127
    },
    {
      "midi": 43,
      "hit": false,
      "t": 528000,
      "d": 500,
      "v": 127
    },
    {
      "midi": 47,
      "hit": false,
      "t": 528500,
      "d": 500,
      "v": 127
    },
    {
      "midi": 50,
      "hit": false,
      "t": 528500,
      "d": 500,
      "v": 127
    },
    {
      "midi": 53,
      "hit": false,
      "t": 528500,
      "d": 500,
      "v": 127
    },
    {
      "midi": 47,
      "hit": false,
      "t": 529000,
      "d": 500,
      "v": 127
    },
    {
      "midi": 50,
      "hit": false,
      "t": 529000,
      "d": 500,
      "v": 127
    },
    {
      "midi": 53,
      "hit": false,
      "t": 529000,
      "d": 500,
      "v": 127
    },
    {
      "midi": 64,
      "hit": false,
      "t": 529500,
      "d": 500,
      "v": 127
    },
    {
      "midi": 76,
      "hit": false,
      "t": 529500,
      "d": 500,
      "v": 127
    },
    {
      "midi": 47,
      "hit": false,
      "t": 529500,
      "d": 500,
      "v": 127
    },
    {
      "midi": 50,
      "hit": false,
      "t": 529500,
      "d": 500,
      "v": 127
    },
    {
      "midi": 53,
      "hit": false,
      "t": 529500,
      "d": 500,
      "v": 127
    },
    {
      "midi": 65,
      "hit": false,
      "t": 530000,
      "d": 1500,
      "v": 127
    },
    {
      "midi": 77,
      "hit": false,
      "t": 530000,
      "d": 1500,
      "v": 127
    },
    {
      "midi": 41,
      "hit": false,
      "t": 530000,
      "d": 500,
      "v": 127
    },
    {
      "midi": 43,
      "hit": false,
      "t": 530500,
      "d": 500,
      "v": 127
    },
    {
      "midi": 47,
      "hit": false,
      "t": 530500,
      "d": 500,
      "v": 127
    },
    {
      "midi": 50,
      "hit": false,
      "t": 530500,
      "d": 500,
      "v": 127
    },
    {
      "midi": 43,
      "hit": false,
      "t": 531000,
      "d": 500,
      "v": 127
    },
    {
      "midi": 47,
      "hit": false,
      "t": 531000,
      "d": 500,
      "v": 127
    },
    {
      "midi": 50,
      "hit": false,
      "t": 531000,
      "d": 500,
      "v": 127
    },
    {
      "midi": 66,
      "hit": false,
      "t": 531500,
      "d": 500,
      "v": 127
    },
    {
      "midi": 78,
      "hit": false,
      "t": 531500,
      "d": 500,
      "v": 127
    },
    {
      "midi": 43,
      "hit": false,
      "t": 531500,
      "d": 500,
      "v": 127
    },
    {
      "midi": 47,
      "hit": false,
      "t": 531500,
      "d": 500,
      "v": 127
    },
    {
      "midi": 50,
      "hit": false,
      "t": 531500,
      "d": 500,
      "v": 127
    },
    {
      "midi": 69,
      "hit": false,
      "t": 532000,
      "d": 1500,
      "v": 127
    },
    {
      "midi": 81,
      "hit": false,
      "t": 532000,
      "d": 1500,
      "v": 127
    },
    {
      "midi": 40,
      "hit": false,
      "t": 532000,
      "d": 500,
      "v": 127
    },
    {
      "midi": 43,
      "hit": false,
      "t": 532500,
      "d": 500,
      "v": 127
    },
    {
      "midi": 48,
      "hit": false,
      "t": 532500,
      "d": 500,
      "v": 127
    },
    {
      "midi": 52,
      "hit": false,
      "t": 532500,
      "d": 500,
      "v": 127
    },
    {
      "midi": 43,
      "hit": false,
      "t": 533000,
      "d": 500,
      "v": 127
    },
    {
      "midi": 48,
      "hit": false,
      "t": 533000,
      "d": 500,
      "v": 127
    },
    {
      "midi": 52,
      "hit": false,
      "t": 533000,
      "d": 500,
      "v": 127
    },
    {
      "midi": 67,
      "hit": false,
      "t": 533500,
      "d": 500,
      "v": 127
    },
    {
      "midi": 79,
      "hit": false,
      "t": 533500,
      "d": 500,
      "v": 127
    },
    {
      "midi": 43,
      "hit": false,
      "t": 533500,
      "d": 500,
      "v": 127
    },
    {
      "midi": 48,
      "hit": false,
      "t": 533500,
      "d": 500,
      "v": 127
    },
    {
      "midi": 52,
      "hit": false,
      "t": 533500,
      "d": 500,
      "v": 127
    },
    {
      "midi": 60,
      "hit": false,
      "t": 534000,
      "d": 1500,
      "v": 127
    },
    {
      "midi": 72,
      "hit": false,
      "t": 534000,
      "d": 1500,
      "v": 127
    },
    {
      "midi": 45,
      "hit": false,
      "t": 534000,
      "d": 500,
      "v": 127
    },
    {
      "midi": 48,
      "hit": false,
      "t": 534500,
      "d": 500,
      "v": 127
    },
    {
      "midi": 52,
      "hit": false,
      "t": 534500,
      "d": 500,
      "v": 127
    },
    {
      "midi": 48,
      "hit": false,
      "t": 535000,
      "d": 500,
      "v": 127
    },
    {
      "midi": 52,
      "hit": false,
      "t": 535000,
      "d": 500,
      "v": 127
    },
    {
      "midi": 61,
      "hit": false,
      "t": 535500,
      "d": 500,
      "v": 127
    },
    {
      "midi": 73,
      "hit": false,
      "t": 535500,
      "d": 500,
      "v": 127
    },
    {
      "midi": 48,
      "hit": false,
      "t": 535500,
      "d": 500,
      "v": 127
    },
    {
      "midi": 52,
      "hit": false,
      "t": 535500,
      "d": 500,
      "v": 127
    },
    {
      "midi": 64,
      "hit": false,
      "t": 536000,
      "d": 1500,
      "v": 127
    },
    {
      "midi": 76,
      "hit": false,
      "t": 536000,
      "d": 1500,
      "v": 127
    },
    {
      "midi": 38,
      "hit": false,
      "t": 536000,
      "d": 500,
      "v": 127
    },
    {
      "midi": 48,
      "hit": false,
      "t": 536500,
      "d": 500,
      "v": 127
    },
    {
      "midi": 50,
      "hit": false,
      "t": 536500,
      "d": 500,
      "v": 127
    },
    {
      "midi": 54,
      "hit": false,
      "t": 536500,
      "d": 500,
      "v": 127
    },
    {
      "midi": 48,
      "hit": false,
      "t": 537000,
      "d": 500,
      "v": 127
    },
    {
      "midi": 50,
      "hit": false,
      "t": 537000,
      "d": 500,
      "v": 127
    },
    {
      "midi": 54,
      "hit": false,
      "t": 537000,
      "d": 500,
      "v": 127
    },
    {
      "midi": 62,
      "hit": false,
      "t": 537500,
      "d": 500,
      "v": 127
    },
    {
      "midi": 74,
      "hit": false,
      "t": 537500,
      "d": 500,
      "v": 127
    },
    {
      "midi": 48,
      "hit": false,
      "t": 537500,
      "d": 500,
      "v": 127
    },
    {
      "midi": 50,
      "hit": false,
      "t": 537500,
      "d": 500,
      "v": 127
    },
    {
      "midi": 54,
      "hit": false,
      "t": 537500,
      "d": 500,
      "v": 127
    },
    {
      "midi": 64,
      "hit": false,
      "t": 538000,
      "d": 1500,
      "v": 127
    },
    {
      "midi": 76,
      "hit": false,
      "t": 538000,
      "d": 1500,
      "v": 127
    },
    {
      "midi": 38,
      "hit": false,
      "t": 538000,
      "d": 500,
      "v": 127
    },
    {
      "midi": 48,
      "hit": false,
      "t": 538500,
      "d": 500,
      "v": 127
    },
    {
      "midi": 50,
      "hit": false,
      "t": 538500,
      "d": 500,
      "v": 127
    },
    {
      "midi": 54,
      "hit": false,
      "t": 538500,
      "d": 500,
      "v": 127
    },
    {
      "midi": 48,
      "hit": false,
      "t": 539000,
      "d": 500,
      "v": 127
    },
    {
      "midi": 50,
      "hit": false,
      "t": 539000,
      "d": 500,
      "v": 127
    },
    {
      "midi": 54,
      "hit": false,
      "t": 539000,
      "d": 500,
      "v": 127
    },
    {
      "midi": 62,
      "hit": false,
      "t": 539500,
      "d": 500,
      "v": 127
    },
    {
      "midi": 74,
      "hit": false,
      "t": 539500,
      "d": 500,
      "v": 127
    },
    {
      "midi": 48,
      "hit": false,
      "t": 539500,
      "d": 500,
      "v": 127
    },
    {
      "midi": 50,
      "hit": false,
      "t": 539500,
      "d": 500,
      "v": 127
    },
    {
      "midi": 54,
      "hit": false,
      "t": 539500,
      "d": 500,
      "v": 127
    },
    {
      "midi": 64,
      "hit": false,
      "t": 540000,
      "d": 1500,
      "v": 127
    },
    {
      "midi": 76,
      "hit": false,
      "t": 540000,
      "d": 1500,
      "v": 127
    },
    {
      "midi": 43,
      "hit": false,
      "t": 540000,
      "d": 500,
      "v": 127
    },
    {
      "midi": 47,
      "hit": false,
      "t": 540500,
      "d": 500,
      "v": 127
    },
    {
      "midi": 50,
      "hit": false,
      "t": 540500,
      "d": 500,
      "v": 127
    },
    {
      "midi": 53,
      "hit": false,
      "t": 540500,
      "d": 500,
      "v": 127
    },
    {
      "midi": 47,
      "hit": false,
      "t": 541000,
      "d": 1000,
      "v": 127
    },
    {
      "midi": 50,
      "hit": false,
      "t": 541000,
      "d": 1000,
      "v": 127
    },
    {
      "midi": 53,
      "hit": false,
      "t": 541000,
      "d": 1000,
      "v": 127
    },
    {
      "midi": 62,
      "hit": false,
      "t": 541500,
      "d": 500,
      "v": 127
    },
    {
      "midi": 74,
      "hit": false,
      "t": 541500,
      "d": 500,
      "v": 127
    },
    {
      "midi": 60,
      "hit": false,
      "t": 542000,
      "d": 500,
      "v": 127
    },
    {
      "midi": 72,
      "hit": false,
      "t": 542000,
      "d": 500,
      "v": 127
    },
    {
      "midi": 59,
      "hit": false,
      "t": 542500,
      "d": 500,
      "v": 127
    },
    {
      "midi": 71,
      "hit": false,
      "t": 542500,
      "d": 500,
      "v": 127
    },
    {
      "midi": 57,
      "hit": false,
      "t": 543000,
      "d": 500,
      "v": 127
    },
    {
      "midi": 69,
      "hit": false,
      "t": 543000,
      "d": 500,
      "v": 127
    },
    {
      "midi": 55,
      "hit": false,
      "t": 543500,
      "d": 500,
      "v": 127
    },
    {
      "midi": 67,
      "hit": false,
      "t": 543500,
      "d": 500,
      "v": 127
    },
    {
      "midi": 67,
      "hit": false,
      "t": 544000,
      "d": 1500,
      "v": 127
    },
    {
      "midi": 79,
      "hit": false,
      "t": 544000,
      "d": 1500,
      "v": 127
    },
    {
      "midi": 48,
      "hit": false,
      "t": 544000,
      "d": 500,
      "v": 127
    },
    {
      "midi": 52,
      "hit": false,
      "t": 544500,
      "d": 500,
      "v": 127
    },
    {
      "midi": 55,
      "hit": false,
      "t": 544500,
      "d": 500,
      "v": 127
    },
    {
      "midi": 52,
      "hit": false,
      "t": 545000,
      "d": 500,
      "v": 127
    },
    {
      "midi": 55,
      "hit": false,
      "t": 545000,
      "d": 500,
      "v": 127
    },
    {
      "midi": 66,
      "hit": false,
      "t": 545500,
      "d": 500,
      "v": 127
    },
    {
      "midi": 78,
      "hit": false,
      "t": 545500,
      "d": 500,
      "v": 127
    },
    {
      "midi": 52,
      "hit": false,
      "t": 545500,
      "d": 500,
      "v": 127
    },
    {
      "midi": 55,
      "hit": false,
      "t": 545500,
      "d": 500,
      "v": 127
    },
    {
      "midi": 67,
      "hit": false,
      "t": 546000,
      "d": 1500,
      "v": 127
    },
    {
      "midi": 79,
      "hit": false,
      "t": 546000,
      "d": 1500,
      "v": 127
    },
    {
      "midi": 52,
      "hit": false,
      "t": 546000,
      "d": 500,
      "v": 127
    },
    {
      "midi": 55,
      "hit": false,
      "t": 546000,
      "d": 500,
      "v": 127
    },
    {
      "midi": 52,
      "hit": false,
      "t": 546500,
      "d": 500,
      "v": 127
    },
    {
      "midi": 55,
      "hit": false,
      "t": 546500,
      "d": 500,
      "v": 127
    },
    {
      "midi": 52,
      "hit": false,
      "t": 547000,
      "d": 500,
      "v": 127
    },
    {
      "midi": 55,
      "hit": false,
      "t": 547000,
      "d": 500,
      "v": 127
    },
    {
      "midi": 66,
      "hit": false,
      "t": 547500,
      "d": 500,
      "v": 127
    },
    {
      "midi": 78,
      "hit": false,
      "t": 547500,
      "d": 500,
      "v": 127
    },
    {
      "midi": 52,
      "hit": false,
      "t": 547500,
      "d": 500,
      "v": 127
    },
    {
      "midi": 55,
      "hit": false,
      "t": 547500,
      "d": 500,
      "v": 127
    },
    {
      "midi": 67,
      "hit": false,
      "t": 548000,
      "d": 1500,
      "v": 127
    },
    {
      "midi": 79,
      "hit": false,
      "t": 548000,
      "d": 1500,
      "v": 127
    },
    {
      "midi": 48,
      "hit": false,
      "t": 548000,
      "d": 500,
      "v": 127
    },
    {
      "midi": 52,
      "hit": false,
      "t": 548500,
      "d": 500,
      "v": 127
    },
    {
      "midi": 55,
      "hit": false,
      "t": 548500,
      "d": 500,
      "v": 127
    },
    {
      "midi": 52,
      "hit": false,
      "t": 549000,
      "d": 500,
      "v": 127
    },
    {
      "midi": 55,
      "hit": false,
      "t": 549000,
      "d": 500,
      "v": 127
    },
    {
      "midi": 71,
      "hit": false,
      "t": 549500,
      "d": 500,
      "v": 127
    },
    {
      "midi": 83,
      "hit": false,
      "t": 549500,
      "d": 500,
      "v": 127
    },
    {
      "midi": 52,
      "hit": false,
      "t": 549500,
      "d": 500,
      "v": 127
    },
    {
      "midi": 55,
      "hit": false,
      "t": 549500,
      "d": 500,
      "v": 127
    },
    {
      "midi": 74,
      "hit": false,
      "t": 550000,
      "d": 1500,
      "v": 127
    },
    {
      "midi": 86,
      "hit": false,
      "t": 550000,
      "d": 1500,
      "v": 127
    },
    {
      "midi": 52,
      "hit": false,
      "t": 550000,
      "d": 500,
      "v": 127
    },
    {
      "midi": 55,
      "hit": false,
      "t": 550000,
      "d": 500,
      "v": 127
    },
    {
      "midi": 52,
      "hit": false,
      "t": 550500,
      "d": 500,
      "v": 127
    },
    {
      "midi": 55,
      "hit": false,
      "t": 550500,
      "d": 500,
      "v": 127
    },
    {
      "midi": 52,
      "hit": false,
      "t": 551000,
      "d": 500,
      "v": 127
    },
    {
      "midi": 55,
      "hit": false,
      "t": 551000,
      "d": 500,
      "v": 127
    },
    {
      "midi": 72,
      "hit": false,
      "t": 551500,
      "d": 500,
      "v": 127
    },
    {
      "midi": 84,
      "hit": false,
      "t": 551500,
      "d": 500,
      "v": 127
    },
    {
      "midi": 52,
      "hit": false,
      "t": 551500,
      "d": 500,
      "v": 127
    },
    {
      "midi": 55,
      "hit": false,
      "t": 551500,
      "d": 500,
      "v": 127
    },
    {
      "midi": 62,
      "hit": false,
      "t": 552000,
      "d": 1500,
      "v": 127
    },
    {
      "midi": 74,
      "hit": false,
      "t": 552000,
      "d": 1500,
      "v": 127
    },
    {
      "midi": 45,
      "hit": false,
      "t": 552000,
      "d": 500,
      "v": 127
    },
    {
      "midi": 48,
      "hit": false,
      "t": 552500,
      "d": 500,
      "v": 127
    },
    {
      "midi": 50,
      "hit": false,
      "t": 552500,
      "d": 500,
      "v": 127
    },
    {
      "midi": 54,
      "hit": false,
      "t": 552500,
      "d": 500,
      "v": 127
    },
    {
      "midi": 48,
      "hit": false,
      "t": 553000,
      "d": 500,
      "v": 127
    },
    {
      "midi": 50,
      "hit": false,
      "t": 553000,
      "d": 500,
      "v": 127
    },
    {
      "midi": 54,
      "hit": false,
      "t": 553000,
      "d": 500,
      "v": 127
    },
    {
      "midi": 61,
      "hit": false,
      "t": 553500,
      "d": 500,
      "v": 127
    },
    {
      "midi": 73,
      "hit": false,
      "t": 553500,
      "d": 500,
      "v": 127
    },
    {
      "midi": 48,
      "hit": false,
      "t": 553500,
      "d": 500,
      "v": 127
    },
    {
      "midi": 50,
      "hit": false,
      "t": 553500,
      "d": 500,
      "v": 127
    },
    {
      "midi": 54,
      "hit": false,
      "t": 553500,
      "d": 500,
      "v": 127
    },
    {
      "midi": 62,
      "hit": false,
      "t": 554000,
      "d": 1500,
      "v": 127
    },
    {
      "midi": 74,
      "hit": false,
      "t": 554000,
      "d": 1500,
      "v": 127
    },
    {
      "midi": 44,
      "hit": false,
      "t": 554000,
      "d": 500,
      "v": 127
    },
    {
      "midi": 48,
      "hit": false,
      "t": 554500,
      "d": 500,
      "v": 127
    },
    {
      "midi": 50,
      "hit": false,
      "t": 554500,
      "d": 500,
      "v": 127
    },
    {
      "midi": 54,
      "hit": false,
      "t": 554500,
      "d": 500,
      "v": 127
    },
    {
      "midi": 48,
      "hit": false,
      "t": 555000,
      "d": 500,
      "v": 127
    },
    {
      "midi": 50,
      "hit": false,
      "t": 555000,
      "d": 500,
      "v": 127
    },
    {
      "midi": 54,
      "hit": false,
      "t": 555000,
      "d": 500,
      "v": 127
    },
    {
      "midi": 61,
      "hit": false,
      "t": 555500,
      "d": 500,
      "v": 127
    },
    {
      "midi": 73,
      "hit": false,
      "t": 555500,
      "d": 500,
      "v": 127
    },
    {
      "midi": 48,
      "hit": false,
      "t": 555500,
      "d": 500,
      "v": 127
    },
    {
      "midi": 50,
      "hit": false,
      "t": 555500,
      "d": 500,
      "v": 127
    },
    {
      "midi": 54,
      "hit": false,
      "t": 555500,
      "d": 500,
      "v": 127
    },
    {
      "midi": 62,
      "hit": false,
      "t": 556000,
      "d": 1500,
      "v": 127
    },
    {
      "midi": 74,
      "hit": false,
      "t": 556000,
      "d": 1500,
      "v": 127
    },
    {
      "midi": 43,
      "hit": false,
      "t": 556000,
      "d": 500,
      "v": 127
    },
    {
      "midi": 47,
      "hit": false,
      "t": 556500,
      "d": 500,
      "v": 127
    },
    {
      "midi": 50,
      "hit": false,
      "t": 556500,
      "d": 500,
      "v": 127
    },
    {
      "midi": 53,
      "hit": false,
      "t": 556500,
      "d": 500,
      "v": 127
    },
    {
      "midi": 47,
      "hit": false,
      "t": 557000,
      "d": 500,
      "v": 127
    },
    {
      "midi": 50,
      "hit": false,
      "t": 557000,
      "d": 500,
      "v": 127
    },
    {
      "midi": 53,
      "hit": false,
      "t": 557000,
      "d": 500,
      "v": 127
    },
    {
      "midi": 64,
      "hit": false,
      "t": 557500,
      "d": 500,
      "v": 127
    },
    {
      "midi": 76,
      "hit": false,
      "t": 557500,
      "d": 500,
      "v": 127
    },
    {
      "midi": 47,
      "hit": false,
      "t": 557500,
      "d": 500,
      "v": 127
    },
    {
      "midi": 50,
      "hit": false,
      "t": 557500,
      "d": 500,
      "v": 127
    },
    {
      "midi": 53,
      "hit": false,
      "t": 557500,
      "d": 500,
      "v": 127
    },
    {
      "midi": 65,
      "hit": false,
      "t": 558000,
      "d": 1500,
      "v": 127
    },
    {
      "midi": 77,
      "hit": false,
      "t": 558000,
      "d": 1500,
      "v": 127
    },
    {
      "midi": 41,
      "hit": false,
      "t": 558000,
      "d": 500,
      "v": 127
    },
    {
      "midi": 43,
      "hit": false,
      "t": 558500,
      "d": 500,
      "v": 127
    },
    {
      "midi": 47,
      "hit": false,
      "t": 558500,
      "d": 500,
      "v": 127
    },
    {
      "midi": 50,
      "hit": false,
      "t": 558500,
      "d": 500,
      "v": 127
    },
    {
      "midi": 43,
      "hit": false,
      "t": 559000,
      "d": 500,
      "v": 127
    },
    {
      "midi": 47,
      "hit": false,
      "t": 559000,
      "d": 500,
      "v": 127
    },
    {
      "midi": 50,
      "hit": false,
      "t": 559000,
      "d": 500,
      "v": 127
    },
    {
      "midi": 66,
      "hit": false,
      "t": 559500,
      "d": 500,
      "v": 127
    },
    {
      "midi": 78,
      "hit": false,
      "t": 559500,
      "d": 500,
      "v": 127
    },
    {
      "midi": 43,
      "hit": false,
      "t": 559500,
      "d": 500,
      "v": 127
    },
    {
      "midi": 47,
      "hit": false,
      "t": 559500,
      "d": 500,
      "v": 127
    },
    {
      "midi": 50,
      "hit": false,
      "t": 559500,
      "d": 500,
      "v": 127
    },
    {
      "midi": 69,
      "hit": false,
      "t": 560000,
      "d": 1500,
      "v": 127
    },
    {
      "midi": 81,
      "hit": false,
      "t": 560000,
      "d": 1500,
      "v": 127
    },
    {
      "midi": 40,
      "hit": false,
      "t": 560000,
      "d": 500,
      "v": 127
    },
    {
      "midi": 43,
      "hit": false,
      "t": 560500,
      "d": 500,
      "v": 127
    },
    {
      "midi": 48,
      "hit": false,
      "t": 560500,
      "d": 500,
      "v": 127
    },
    {
      "midi": 52,
      "hit": false,
      "t": 560500,
      "d": 500,
      "v": 127
    },
    {
      "midi": 43,
      "hit": false,
      "t": 561000,
      "d": 500,
      "v": 127
    },
    {
      "midi": 48,
      "hit": false,
      "t": 561000,
      "d": 500,
      "v": 127
    },
    {
      "midi": 52,
      "hit": false,
      "t": 561000,
      "d": 500,
      "v": 127
    },
    {
      "midi": 67,
      "hit": false,
      "t": 561500,
      "d": 500,
      "v": 127
    },
    {
      "midi": 79,
      "hit": false,
      "t": 561500,
      "d": 500,
      "v": 127
    },
    {
      "midi": 43,
      "hit": false,
      "t": 561500,
      "d": 500,
      "v": 127
    },
    {
      "midi": 48,
      "hit": false,
      "t": 561500,
      "d": 500,
      "v": 127
    },
    {
      "midi": 52,
      "hit": false,
      "t": 561500,
      "d": 500,
      "v": 127
    },
    {
      "midi": 60,
      "hit": false,
      "t": 562000,
      "d": 1500,
      "v": 127
    },
    {
      "midi": 72,
      "hit": false,
      "t": 562000,
      "d": 1500,
      "v": 127
    },
    {
      "midi": 45,
      "hit": false,
      "t": 562000,
      "d": 500,
      "v": 127
    },
    {
      "midi": 48,
      "hit": false,
      "t": 562500,
      "d": 500,
      "v": 127
    },
    {
      "midi": 52,
      "hit": false,
      "t": 562500,
      "d": 500,
      "v": 127
    },
    {
      "midi": 48,
      "hit": false,
      "t": 563000,
      "d": 500,
      "v": 127
    },
    {
      "midi": 52,
      "hit": false,
      "t": 563000,
      "d": 500,
      "v": 127
    },
    {
      "midi": 61,
      "hit": false,
      "t": 563500,
      "d": 500,
      "v": 127
    },
    {
      "midi": 73,
      "hit": false,
      "t": 563500,
      "d": 500,
      "v": 127
    },
    {
      "midi": 48,
      "hit": false,
      "t": 563500,
      "d": 500,
      "v": 127
    },
    {
      "midi": 52,
      "hit": false,
      "t": 563500,
      "d": 500,
      "v": 127
    },
    {
      "midi": 64,
      "hit": false,
      "t": 564000,
      "d": 1500,
      "v": 127
    },
    {
      "midi": 76,
      "hit": false,
      "t": 564000,
      "d": 1500,
      "v": 127
    },
    {
      "midi": 38,
      "hit": false,
      "t": 564000,
      "d": 500,
      "v": 127
    },
    {
      "midi": 48,
      "hit": false,
      "t": 564500,
      "d": 500,
      "v": 127
    },
    {
      "midi": 50,
      "hit": false,
      "t": 564500,
      "d": 500,
      "v": 127
    },
    {
      "midi": 54,
      "hit": false,
      "t": 564500,
      "d": 500,
      "v": 127
    },
    {
      "midi": 48,
      "hit": false,
      "t": 565000,
      "d": 500,
      "v": 127
    },
    {
      "midi": 50,
      "hit": false,
      "t": 565000,
      "d": 500,
      "v": 127
    },
    {
      "midi": 54,
      "hit": false,
      "t": 565000,
      "d": 500,
      "v": 127
    },
    {
      "midi": 62,
      "hit": false,
      "t": 565500,
      "d": 500,
      "v": 127
    },
    {
      "midi": 74,
      "hit": false,
      "t": 565500,
      "d": 500,
      "v": 127
    },
    {
      "midi": 48,
      "hit": false,
      "t": 565500,
      "d": 500,
      "v": 127
    },
    {
      "midi": 50,
      "hit": false,
      "t": 565500,
      "d": 500,
      "v": 127
    },
    {
      "midi": 54,
      "hit": false,
      "t": 565500,
      "d": 500,
      "v": 127
    },
    {
      "midi": 57,
      "hit": false,
      "t": 566000,
      "d": 1500,
      "v": 127
    },
    {
      "midi": 69,
      "hit": false,
      "t": 566000,
      "d": 1500,
      "v": 127
    },
    {
      "midi": 43,
      "hit": false,
      "t": 566000,
      "d": 500,
      "v": 127
    },
    {
      "midi": 50,
      "hit": false,
      "t": 566500,
      "d": 500,
      "v": 127
    },
    {
      "midi": 53,
      "hit": false,
      "t": 566500,
      "d": 500,
      "v": 127
    },
    {
      "midi": 50,
      "hit": false,
      "t": 567000,
      "d": 500,
      "v": 127
    },
    {
      "midi": 53,
      "hit": false,
      "t": 567000,
      "d": 500,
      "v": 127
    },
    {
      "midi": 59,
      "hit": false,
      "t": 567500,
      "d": 500,
      "v": 127
    },
    {
      "midi": 71,
      "hit": false,
      "t": 567500,
      "d": 500,
      "v": 127
    },
    {
      "midi": 50,
      "hit": false,
      "t": 567500,
      "d": 500,
      "v": 127
    },
    {
      "midi": 53,
      "hit": false,
      "t": 567500,
      "d": 500,
      "v": 127
    },
    {
      "midi": 60,
      "hit": false,
      "t": 568000,
      "d": 1000,
      "v": 127
    },
    {
      "midi": 72,
      "hit": false,
      "t": 568000,
      "d": 1000,
      "v": 127
    },
    {
      "midi": 48,
      "hit": false,
      "t": 568000,
      "d": 500,
      "v": 127
    },
    {
      "midi": 52,
      "hit": false,
      "t": 568000,
      "d": 500,
      "v": 127
    },
    {
      "midi": 60,
      "hit": false,
      "t": 568500,
      "d": 500,
      "v": 127
    },
    {
      "midi": 48,
      "hit": false,
      "t": 569000,
      "d": 500,
      "v": 127
    },
    {
      "midi": 60,
      "hit": false,
      "t": 569500,
      "d": 500,
      "v": 127
    },
    {
      "midi": 48,
      "hit": false,
      "t": 570000,
      "d": 500,
      "v": 127
    },
    {
      "midi": 60,
      "hit": false,
      "t": 570500,
      "d": 500,
      "v": 127
    },
    {
      "midi": 72,
      "hit": false,
      "t": 571000,
      "d": 750,
      "v": 127
    },
    {
      "midi": 48,
      "hit": false,
      "t": 571000,
      "d": 500,
      "v": 127
    },
    {
      "midi": 60,
      "hit": false,
      "t": 571500,
      "d": 500,
      "v": 127
    },
    {
      "midi": 72,
      "hit": false,
      "t": 571750,
      "d": 250,
      "v": 127
    },
    {
      "midi": 72,
      "hit": false,
      "t": 572000,
      "d": 3000,
      "v": 127
    },
    {
      "midi": 48,
      "hit": false,
      "t": 572000,
      "d": 500,
      "v": 127
    },
    {
      "midi": 52,
      "hit": false,
      "t": 572500,
      "d": 500,
      "v": 127
    },
    {
      "midi": 58,
      "hit": false,
      "t": 572500,
      "d": 500,
      "v": 127
    },
    {
      "midi": 48,
      "hit": false,
      "t": 573000,
      "d": 500,
      "v": 127
    },
    {
      "midi": 52,
      "hit": false,
      "t": 573500,
      "d": 500,
      "v": 127
    },
    {
      "midi": 58,
      "hit": false,
      "t": 573500,
      "d": 500,
      "v": 127
    },
    {
      "midi": 48,
      "hit": false,
      "t": 574000,
      "d": 500,
      "v": 127
    },
    {
      "midi": 52,
      "hit": false,
      "t": 574500,
      "d": 500,
      "v": 127
    },
    {
      "midi": 58,
      "hit": false,
      "t": 574500,
      "d": 500,
      "v": 127
    },
    {
      "midi": 81,
      "hit": false,
      "t": 575000,
      "d": 500,
      "v": 127
    },
    {
      "midi": 48,
      "hit": false,
      "t": 575000,
      "d": 500,
      "v": 127
    },
    {
      "midi": 79,
      "hit": false,
      "t": 575500,
      "d": 500,
      "v": 127
    },
    {
      "midi": 52,
      "hit": false,
      "t": 575500,
      "d": 500,
      "v": 127
    },
    {
      "midi": 58,
      "hit": false,
      "t": 575500,
      "d": 500,
      "v": 127
    },
    {
      "midi": 77,
      "hit": false,
      "t": 576000,
      "d": 1000,
      "v": 127
    },
    {
      "midi": 48,
      "hit": false,
      "t": 576000,
      "d": 500,
      "v": 127
    },
    {
      "midi": 53,
      "hit": false,
      "t": 576500,
      "d": 500,
      "v": 127
    },
    {
      "midi": 57,
      "hit": false,
      "t": 576500,
      "d": 500,
      "v": 127
    },
    {
      "midi": 81,
      "hit": false,
      "t": 577000,
      "d": 500,
      "v": 127
    },
    {
      "midi": 48,
      "hit": false,
      "t": 577000,
      "d": 500,
      "v": 127
    },
    {
      "midi": 86,
      "hit": false,
      "t": 577500,
      "d": 500,
      "v": 127
    },
    {
      "midi": 53,
      "hit": false,
      "t": 577500,
      "d": 500,
      "v": 127
    },
    {
      "midi": 57,
      "hit": false,
      "t": 577500,
      "d": 500,
      "v": 127
    },
    {
      "midi": 84,
      "hit": false,
      "t": 578000,
      "d": 1000,
      "v": 127
    },
    {
      "midi": 48,
      "hit": false,
      "t": 578000,
      "d": 500,
      "v": 127
    },
    {
      "midi": 53,
      "hit": false,
      "t": 578500,
      "d": 500,
      "v": 127
    },
    {
      "midi": 57,
      "hit": false,
      "t": 578500,
      "d": 500,
      "v": 127
    },
    {
      "midi": 93,
      "hit": false,
      "t": 579000,
      "d": 1000,
      "v": 127
    },
    {
      "midi": 48,
      "hit": false,
      "t": 579000,
      "d": 500,
      "v": 127
    },
    {
      "midi": 53,
      "hit": false,
      "t": 579500,
      "d": 500,
      "v": 127
    },
    {
      "midi": 57,
      "hit": false,
      "t": 579500,
      "d": 500,
      "v": 127
    },
    {
      "midi": 88,
      "hit": false,
      "t": 580000,
      "d": 500,
      "v": 127
    },
    {
      "midi": 48,
      "hit": false,
      "t": 580000,
      "d": 500,
      "v": 127
    },
    {
      "midi": 84,
      "hit": false,
      "t": 580500,
      "d": 500,
      "v": 127
    },
    {
      "midi": 52,
      "hit": false,
      "t": 580500,
      "d": 500,
      "v": 127
    },
    {
      "midi": 55,
      "hit": false,
      "t": 580500,
      "d": 500,
      "v": 127
    },
    {
      "midi": 86,
      "hit": false,
      "t": 581000,
      "d": 1000,
      "v": 127
    },
    {
      "midi": 88,
      "hit": false,
      "t": 581000,
      "d": 1000,
      "v": 127
    },
    {
      "midi": 48,
      "hit": false,
      "t": 581000,
      "d": 500,
      "v": 127
    },
    {
      "midi": 52,
      "hit": false,
      "t": 581500,
      "d": 500,
      "v": 127
    },
    {
      "midi": 55,
      "hit": false,
      "t": 581500,
      "d": 500,
      "v": 127
    },
    {
      "midi": 84,
      "hit": false,
      "t": 582000,
      "d": 500,
      "v": 127
    },
    {
      "midi": 48,
      "hit": false,
      "t": 582000,
      "d": 500,
      "v": 127
    },
    {
      "midi": 81,
      "hit": false,
      "t": 582500,
      "d": 500,
      "v": 127
    },
    {
      "midi": 52,
      "hit": false,
      "t": 582500,
      "d": 500,
      "v": 127
    },
    {
      "midi": 55,
      "hit": false,
      "t": 582500,
      "d": 500,
      "v": 127
    },
    {
      "midi": 82,
      "hit": false,
      "t": 583000,
      "d": 1000,
      "v": 127
    },
    {
      "midi": 84,
      "hit": false,
      "t": 583000,
      "d": 1000,
      "v": 127
    },
    {
      "midi": 48,
      "hit": false,
      "t": 583000,
      "d": 500,
      "v": 127
    },
    {
      "midi": 52,
      "hit": false,
      "t": 583500,
      "d": 500,
      "v": 127
    },
    {
      "midi": 55,
      "hit": false,
      "t": 583500,
      "d": 500,
      "v": 127
    },
    {
      "midi": 81,
      "hit": false,
      "t": 584000,
      "d": 500,
      "v": 127
    },
    {
      "midi": 48,
      "hit": false,
      "t": 584000,
      "d": 500,
      "v": 127
    },
    {
      "midi": 77,
      "hit": false,
      "t": 584500,
      "d": 500,
      "v": 127
    },
    {
      "midi": 53,
      "hit": false,
      "t": 584500,
      "d": 500,
      "v": 127
    },
    {
      "midi": 57,
      "hit": false,
      "t": 584500,
      "d": 500,
      "v": 127
    },
    {
      "midi": 79,
      "hit": false,
      "t": 585000,
      "d": 500,
      "v": 127
    },
    {
      "midi": 48,
      "hit": false,
      "t": 585000,
      "d": 500,
      "v": 127
    },
    {
      "midi": 72,
      "hit": false,
      "t": 585500,
      "d": 500,
      "v": 127
    },
    {
      "midi": 52,
      "hit": false,
      "t": 585500,
      "d": 500,
      "v": 127
    },
    {
      "midi": 55,
      "hit": false,
      "t": 585500,
      "d": 500,
      "v": 127
    },
    {
      "midi": 77,
      "hit": false,
      "t": 586000,
      "d": 1000,
      "v": 127
    },
    {
      "midi": 48,
      "hit": false,
      "t": 586000,
      "d": 500,
      "v": 127
    },
    {
      "midi": 53,
      "hit": false,
      "t": 586500,
      "d": 500,
      "v": 127
    },
    {
      "midi": 57,
      "hit": false,
      "t": 586500,
      "d": 500,
      "v": 127
    },
    {
      "midi": 72,
      "hit": false,
      "t": 587000,
      "d": 750,
      "v": 127
    },
    {
      "midi": 48,
      "hit": false,
      "t": 587000,
      "d": 500,
      "v": 127
    },
    {
      "midi": 53,
      "hit": false,
      "t": 587500,
      "d": 500,
      "v": 127
    },
    {
      "midi": 57,
      "hit": false,
      "t": 587500,
      "d": 500,
      "v": 127
    },
    {
      "midi": 72,
      "hit": false,
      "t": 587750,
      "d": 250,
      "v": 127
    },
    {
      "midi": 72,
      "hit": false,
      "t": 588000,
      "d": 3000,
      "v": 127
    },
    {
      "midi": 48,
      "hit": false,
      "t": 588000,
      "d": 500,
      "v": 127
    },
    {
      "midi": 52,
      "hit": false,
      "t": 588500,
      "d": 500,
      "v": 127
    },
    {
      "midi": 58,
      "hit": false,
      "t": 588500,
      "d": 500,
      "v": 127
    },
    {
      "midi": 48,
      "hit": false,
      "t": 589000,
      "d": 500,
      "v": 127
    },
    {
      "midi": 52,
      "hit": false,
      "t": 589500,
      "d": 500,
      "v": 127
    },
    {
      "midi": 58,
      "hit": false,
      "t": 589500,
      "d": 500,
      "v": 127
    },
    {
      "midi": 48,
      "hit": false,
      "t": 590000,
      "d": 500,
      "v": 127
    },
    {
      "midi": 52,
      "hit": false,
      "t": 590500,
      "d": 500,
      "v": 127
    },
    {
      "midi": 58,
      "hit": false,
      "t": 590500,
      "d": 500,
      "v": 127
    },
    {
      "midi": 81,
      "hit": false,
      "t": 591000,
      "d": 500,
      "v": 127
    },
    {
      "midi": 48,
      "hit": false,
      "t": 591000,
      "d": 500,
      "v": 127
    },
    {
      "midi": 79,
      "hit": false,
      "t": 591500,
      "d": 500,
      "v": 127
    },
    {
      "midi": 52,
      "hit": false,
      "t": 591500,
      "d": 500,
      "v": 127
    },
    {
      "midi": 58,
      "hit": false,
      "t": 591500,
      "d": 500,
      "v": 127
    },
    {
      "midi": 77,
      "hit": false,
      "t": 592000,
      "d": 1000,
      "v": 127
    },
    {
      "midi": 48,
      "hit": false,
      "t": 592000,
      "d": 500,
      "v": 127
    },
    {
      "midi": 53,
      "hit": false,
      "t": 592500,
      "d": 500,
      "v": 127
    },
    {
      "midi": 57,
      "hit": false,
      "t": 592500,
      "d": 500,
      "v": 127
    },
    {
      "midi": 81,
      "hit": false,
      "t": 593000,
      "d": 500,
      "v": 127
    },
    {
      "midi": 48,
      "hit": false,
      "t": 593000,
      "d": 500,
      "v": 127
    },
    {
      "midi": 86,
      "hit": false,
      "t": 593500,
      "d": 500,
      "v": 127
    },
    {
      "midi": 53,
      "hit": false,
      "t": 593500,
      "d": 500,
      "v": 127
    },
    {
      "midi": 57,
      "hit": false,
      "t": 593500,
      "d": 500,
      "v": 127
    },
    {
      "midi": 84,
      "hit": false,
      "t": 594000,
      "d": 1000,
      "v": 127
    },
    {
      "midi": 48,
      "hit": false,
      "t": 594000,
      "d": 500,
      "v": 127
    },
    {
      "midi": 53,
      "hit": false,
      "t": 594500,
      "d": 500,
      "v": 127
    },
    {
      "midi": 57,
      "hit": false,
      "t": 594500,
      "d": 500,
      "v": 127
    },
    {
      "midi": 93,
      "hit": false,
      "t": 595000,
      "d": 1000,
      "v": 127
    },
    {
      "midi": 48,
      "hit": false,
      "t": 595000,
      "d": 500,
      "v": 127
    },
    {
      "midi": 53,
      "hit": false,
      "t": 595500,
      "d": 500,
      "v": 127
    },
    {
      "midi": 57,
      "hit": false,
      "t": 595500,
      "d": 500,
      "v": 127
    },
    {
      "midi": 88,
      "hit": false,
      "t": 596000,
      "d": 500,
      "v": 127
    },
    {
      "midi": 48,
      "hit": false,
      "t": 596000,
      "d": 500,
      "v": 127
    },
    {
      "midi": 84,
      "hit": false,
      "t": 596500,
      "d": 500,
      "v": 127
    },
    {
      "midi": 52,
      "hit": false,
      "t": 596500,
      "d": 500,
      "v": 127
    },
    {
      "midi": 55,
      "hit": false,
      "t": 596500,
      "d": 500,
      "v": 127
    },
    {
      "midi": 86,
      "hit": false,
      "t": 597000,
      "d": 1000,
      "v": 127
    },
    {
      "midi": 88,
      "hit": false,
      "t": 597000,
      "d": 1000,
      "v": 127
    },
    {
      "midi": 48,
      "hit": false,
      "t": 597000,
      "d": 500,
      "v": 127
    },
    {
      "midi": 52,
      "hit": false,
      "t": 597500,
      "d": 500,
      "v": 127
    },
    {
      "midi": 55,
      "hit": false,
      "t": 597500,
      "d": 500,
      "v": 127
    },
    {
      "midi": 84,
      "hit": false,
      "t": 598000,
      "d": 500,
      "v": 127
    },
    {
      "midi": 48,
      "hit": false,
      "t": 598000,
      "d": 500,
      "v": 127
    },
    {
      "midi": 81,
      "hit": false,
      "t": 598500,
      "d": 500,
      "v": 127
    },
    {
      "midi": 52,
      "hit": false,
      "t": 598500,
      "d": 500,
      "v": 127
    },
    {
      "midi": 55,
      "hit": false,
      "t": 598500,
      "d": 500,
      "v": 127
    },
    {
      "midi": 82,
      "hit": false,
      "t": 599000,
      "d": 1000,
      "v": 127
    },
    {
      "midi": 84,
      "hit": false,
      "t": 599000,
      "d": 1000,
      "v": 127
    },
    {
      "midi": 48,
      "hit": false,
      "t": 599000,
      "d": 500,
      "v": 127
    },
    {
      "midi": 52,
      "hit": false,
      "t": 599500,
      "d": 500,
      "v": 127
    },
    {
      "midi": 55,
      "hit": false,
      "t": 599500,
      "d": 500,
      "v": 127
    },
    {
      "midi": 81,
      "hit": false,
      "t": 600000,
      "d": 500,
      "v": 127
    },
    {
      "midi": 48,
      "hit": false,
      "t": 600000,
      "d": 500,
      "v": 127
    },
    {
      "midi": 77,
      "hit": false,
      "t": 600500,
      "d": 500,
      "v": 127
    },
    {
      "midi": 53,
      "hit": false,
      "t": 600500,
      "d": 500,
      "v": 127
    },
    {
      "midi": 57,
      "hit": false,
      "t": 600500,
      "d": 500,
      "v": 127
    },
    {
      "midi": 79,
      "hit": false,
      "t": 601000,
      "d": 500,
      "v": 127
    },
    {
      "midi": 48,
      "hit": false,
      "t": 601000,
      "d": 500,
      "v": 127
    },
    {
      "midi": 72,
      "hit": false,
      "t": 601500,
      "d": 500,
      "v": 127
    },
    {
      "midi": 52,
      "hit": false,
      "t": 601500,
      "d": 500,
      "v": 127
    },
    {
      "midi": 55,
      "hit": false,
      "t": 601500,
      "d": 500,
      "v": 127
    },
    {
      "midi": 77,
      "hit": false,
      "t": 602000,
      "d": 1000,
      "v": 127
    },
    {
      "midi": 48,
      "hit": false,
      "t": 602000,
      "d": 500,
      "v": 127
    },
    {
      "midi": 53,
      "hit": false,
      "t": 602500,
      "d": 500,
      "v": 127
    },
    {
      "midi": 57,
      "hit": false,
      "t": 602500,
      "d": 500,
      "v": 127
    },
    {
      "midi": 72,
      "hit": false,
      "t": 603000,
      "d": 750,
      "v": 127
    },
    {
      "midi": 48,
      "hit": false,
      "t": 603000,
      "d": 500,
      "v": 127
    },
    {
      "midi": 53,
      "hit": false,
      "t": 603500,
      "d": 500,
      "v": 127
    },
    {
      "midi": 57,
      "hit": false,
      "t": 603500,
      "d": 500,
      "v": 127
    },
    {
      "midi": 72,
      "hit": false,
      "t": 603750,
      "d": 250,
      "v": 127
    },
    {
      "midi": 72,
      "hit": false,
      "t": 604000,
      "d": 3000,
      "v": 127
    },
    {
      "midi": 48,
      "hit": false,
      "t": 604000,
      "d": 500,
      "v": 127
    },
    {
      "midi": 52,
      "hit": false,
      "t": 604500,
      "d": 500,
      "v": 127
    },
    {
      "midi": 58,
      "hit": false,
      "t": 604500,
      "d": 500,
      "v": 127
    },
    {
      "midi": 60,
      "hit": false,
      "t": 604500,
      "d": 500,
      "v": 127
    },
    {
      "midi": 48,
      "hit": false,
      "t": 605000,
      "d": 500,
      "v": 127
    },
    {
      "midi": 52,
      "hit": false,
      "t": 605500,
      "d": 500,
      "v": 127
    },
    {
      "midi": 58,
      "hit": false,
      "t": 605500,
      "d": 500,
      "v": 127
    },
    {
      "midi": 60,
      "hit": false,
      "t": 605500,
      "d": 500,
      "v": 127
    },
    {
      "midi": 48,
      "hit": false,
      "t": 606000,
      "d": 500,
      "v": 127
    },
    {
      "midi": 52,
      "hit": false,
      "t": 606500,
      "d": 500,
      "v": 127
    },
    {
      "midi": 58,
      "hit": false,
      "t": 606500,
      "d": 500,
      "v": 127
    },
    {
      "midi": 60,
      "hit": false,
      "t": 606500,
      "d": 500,
      "v": 127
    },
    {
      "midi": 81,
      "hit": false,
      "t": 607000,
      "d": 500,
      "v": 127
    },
    {
      "midi": 48,
      "hit": false,
      "t": 607000,
      "d": 500,
      "v": 127
    },
    {
      "midi": 79,
      "hit": false,
      "t": 607500,
      "d": 500,
      "v": 127
    },
    {
      "midi": 52,
      "hit": false,
      "t": 607500,
      "d": 500,
      "v": 127
    },
    {
      "midi": 58,
      "hit": false,
      "t": 607500,
      "d": 500,
      "v": 127
    },
    {
      "midi": 60,
      "hit": false,
      "t": 607500,
      "d": 500,
      "v": 127
    },
    {
      "midi": 77,
      "hit": false,
      "t": 608000,
      "d": 1000,
      "v": 127
    },
    {
      "midi": 48,
      "hit": false,
      "t": 608000,
      "d": 500,
      "v": 127
    },
    {
      "midi": 53,
      "hit": false,
      "t": 608500,
      "d": 500,
      "v": 127
    },
    {
      "midi": 57,
      "hit": false,
      "t": 608500,
      "d": 500,
      "v": 127
    },
    {
      "midi": 60,
      "hit": false,
      "t": 608500,
      "d": 500,
      "v": 127
    },
    {
      "midi": 81,
      "hit": false,
      "t": 609000,
      "d": 500,
      "v": 127
    },
    {
      "midi": 48,
      "hit": false,
      "t": 609000,
      "d": 500,
      "v": 127
    },
    {
      "midi": 86,
      "hit": false,
      "t": 609500,
      "d": 500,
      "v": 127
    },
    {
      "midi": 53,
      "hit": false,
      "t": 609500,
      "d": 500,
      "v": 127
    },
    {
      "midi": 57,
      "hit": false,
      "t": 609500,
      "d": 500,
      "v": 127
    },
    {
      "midi": 60,
      "hit": false,
      "t": 609500,
      "d": 500,
      "v": 127
    },
    {
      "midi": 84,
      "hit": false,
      "t": 610000,
      "d": 1000,
      "v": 127
    },
    {
      "midi": 48,
      "hit": false,
      "t": 610000,
      "d": 500,
      "v": 127
    },
    {
      "midi": 53,
      "hit": false,
      "t": 610500,
      "d": 500,
      "v": 127
    },
    {
      "midi": 57,
      "hit": false,
      "t": 610500,
      "d": 500,
      "v": 127
    },
    {
      "midi": 60,
      "hit": false,
      "t": 610500,
      "d": 500,
      "v": 127
    },
    {
      "midi": 93,
      "hit": false,
      "t": 611000,
      "d": 1000,
      "v": 127
    },
    {
      "midi": 48,
      "hit": false,
      "t": 611000,
      "d": 500,
      "v": 127
    },
    {
      "midi": 53,
      "hit": false,
      "t": 611500,
      "d": 500,
      "v": 127
    },
    {
      "midi": 57,
      "hit": false,
      "t": 611500,
      "d": 500,
      "v": 127
    },
    {
      "midi": 60,
      "hit": false,
      "t": 611500,
      "d": 500,
      "v": 127
    },
    {
      "midi": 88,
      "hit": false,
      "t": 612000,
      "d": 500,
      "v": 127
    },
    {
      "midi": 48,
      "hit": false,
      "t": 612000,
      "d": 500,
      "v": 127
    },
    {
      "midi": 84,
      "hit": false,
      "t": 612500,
      "d": 500,
      "v": 127
    },
    {
      "midi": 52,
      "hit": false,
      "t": 612500,
      "d": 500,
      "v": 127
    },
    {
      "midi": 55,
      "hit": false,
      "t": 612500,
      "d": 500,
      "v": 127
    },
    {
      "midi": 60,
      "hit": false,
      "t": 612500,
      "d": 500,
      "v": 127
    },
    {
      "midi": 86,
      "hit": false,
      "t": 613000,
      "d": 1000,
      "v": 127
    },
    {
      "midi": 88,
      "hit": false,
      "t": 613000,
      "d": 1000,
      "v": 127
    },
    {
      "midi": 48,
      "hit": false,
      "t": 613000,
      "d": 500,
      "v": 127
    },
    {
      "midi": 52,
      "hit": false,
      "t": 613500,
      "d": 500,
      "v": 127
    },
    {
      "midi": 55,
      "hit": false,
      "t": 613500,
      "d": 500,
      "v": 127
    },
    {
      "midi": 60,
      "hit": false,
      "t": 613500,
      "d": 500,
      "v": 127
    },
    {
      "midi": 84,
      "hit": false,
      "t": 614000,
      "d": 500,
      "v": 127
    },
    {
      "midi": 48,
      "hit": false,
      "t": 614000,
      "d": 500,
      "v": 127
    },
    {
      "midi": 81,
      "hit": false,
      "t": 614500,
      "d": 500,
      "v": 127
    },
    {
      "midi": 52,
      "hit": false,
      "t": 614500,
      "d": 500,
      "v": 127
    },
    {
      "midi": 55,
      "hit": false,
      "t": 614500,
      "d": 500,
      "v": 127
    },
    {
      "midi": 60,
      "hit": false,
      "t": 614500,
      "d": 500,
      "v": 127
    },
    {
      "midi": 82,
      "hit": false,
      "t": 615000,
      "d": 1000,
      "v": 127
    },
    {
      "midi": 84,
      "hit": false,
      "t": 615000,
      "d": 1000,
      "v": 127
    },
    {
      "midi": 48,
      "hit": false,
      "t": 615000,
      "d": 500,
      "v": 127
    },
    {
      "midi": 52,
      "hit": false,
      "t": 615500,
      "d": 500,
      "v": 127
    },
    {
      "midi": 55,
      "hit": false,
      "t": 615500,
      "d": 500,
      "v": 127
    },
    {
      "midi": 60,
      "hit": false,
      "t": 615500,
      "d": 500,
      "v": 127
    },
    {
      "midi": 81,
      "hit": false,
      "t": 616000,
      "d": 500,
      "v": 127
    },
    {
      "midi": 53,
      "hit": false,
      "t": 616000,
      "d": 500,
      "v": 127
    },
    {
      "midi": 84,
      "hit": false,
      "t": 616500,
      "d": 500,
      "v": 127
    },
    {
      "midi": 57,
      "hit": false,
      "t": 616500,
      "d": 500,
      "v": 127
    },
    {
      "midi": 60,
      "hit": false,
      "t": 616500,
      "d": 500,
      "v": 127
    },
    {
      "midi": 79,
      "hit": false,
      "t": 617000,
      "d": 500,
      "v": 127
    },
    {
      "midi": 48,
      "hit": false,
      "t": 617000,
      "d": 500,
      "v": 127
    },
    {
      "midi": 84,
      "hit": false,
      "t": 617500,
      "d": 500,
      "v": 127
    },
    {
      "midi": 52,
      "hit": false,
      "t": 617500,
      "d": 500,
      "v": 127
    },
    {
      "midi": 55,
      "hit": false,
      "t": 617500,
      "d": 500,
      "v": 127
    },
    {
      "midi": 60,
      "hit": false,
      "t": 617500,
      "d": 500,
      "v": 127
    },
    {
      "midi": 77,
      "hit": false,
      "t": 618000,
      "d": 1000,
      "v": 127
    },
    {
      "midi": 53,
      "hit": false,
      "t": 618000,
      "d": 500,
      "v": 127
    },
    {
      "midi": 57,
      "hit": false,
      "t": 618500,
      "d": 500,
      "v": 127
    },
    {
      "midi": 60,
      "hit": false,
      "t": 618500,
      "d": 500,
      "v": 127
    },
    {
      "midi": 53,
      "hit": false,
      "t": 619000,
      "d": 500,
      "v": 127
    },
    {
      "midi": 57,
      "hit": false,
      "t": 619500,
      "d": 500,
      "v": 127
    },
    {
      "midi": 60,
      "hit": false,
      "t": 619500,
      "d": 500,
      "v": 127
    },
    {
      "midi": 77,
      "hit": false,
      "t": 619750,
      "d": 250,
      "v": 127
    },
    {
      "midi": 77,
      "hit": false,
      "t": 620000,
      "d": 3000,
      "v": 127
    },
    {
      "midi": 41,
      "hit": false,
      "t": 620000,
      "d": 500,
      "v": 127
    },
    {
      "midi": 45,
      "hit": false,
      "t": 620500,
      "d": 500,
      "v": 127
    },
    {
      "midi": 51,
      "hit": false,
      "t": 620500,
      "d": 500,
      "v": 127
    },
    {
      "midi": 53,
      "hit": false,
      "t": 620500,
      "d": 500,
      "v": 127
    },
    {
      "midi": 41,
      "hit": false,
      "t": 621000,
      "d": 500,
      "v": 127
    },
    {
      "midi": 45,
      "hit": false,
      "t": 621500,
      "d": 500,
      "v": 127
    },
    {
      "midi": 51,
      "hit": false,
      "t": 621500,
      "d": 500,
      "v": 127
    },
    {
      "midi": 53,
      "hit": false,
      "t": 621500,
      "d": 500,
      "v": 127
    },
    {
      "midi": 41,
      "hit": false,
      "t": 622000,
      "d": 500,
      "v": 127
    },
    {
      "midi": 45,
      "hit": false,
      "t": 622500,
      "d": 500,
      "v": 127
    },
    {
      "midi": 51,
      "hit": false,
      "t": 622500,
      "d": 500,
      "v": 127
    },
    {
      "midi": 53,
      "hit": false,
      "t": 622500,
      "d": 500,
      "v": 127
    },
    {
      "midi": 86,
      "hit": false,
      "t": 623000,
      "d": 500,
      "v": 127
    },
    {
      "midi": 41,
      "hit": false,
      "t": 623000,
      "d": 500,
      "v": 127
    },
    {
      "midi": 84,
      "hit": false,
      "t": 623500,
      "d": 500,
      "v": 127
    },
    {
      "midi": 45,
      "hit": false,
      "t": 623500,
      "d": 500,
      "v": 127
    },
    {
      "midi": 51,
      "hit": false,
      "t": 623500,
      "d": 500,
      "v": 127
    },
    {
      "midi": 53,
      "hit": false,
      "t": 623500,
      "d": 500,
      "v": 127
    },
    {
      "midi": 82,
      "hit": false,
      "t": 624000,
      "d": 1000,
      "v": 127
    },
    {
      "midi": 41,
      "hit": false,
      "t": 624000,
      "d": 500,
      "v": 127
    },
    {
      "midi": 46,
      "hit": false,
      "t": 624500,
      "d": 500,
      "v": 127
    },
    {
      "midi": 50,
      "hit": false,
      "t": 624500,
      "d": 500,
      "v": 127
    },
    {
      "midi": 53,
      "hit": false,
      "t": 624500,
      "d": 500,
      "v": 127
    },
    {
      "midi": 86,
      "hit": false,
      "t": 625000,
      "d": 500,
      "v": 127
    },
    {
      "midi": 41,
      "hit": false,
      "t": 625000,
      "d": 500,
      "v": 127
    },
    {
      "midi": 91,
      "hit": false,
      "t": 625500,
      "d": 500,
      "v": 127
    },
    {
      "midi": 46,
      "hit": false,
      "t": 625500,
      "d": 500,
      "v": 127
    },
    {
      "midi": 50,
      "hit": false,
      "t": 625500,
      "d": 500,
      "v": 127
    },
    {
      "midi": 53,
      "hit": false,
      "t": 625500,
      "d": 500,
      "v": 127
    },
    {
      "midi": 89,
      "hit": false,
      "t": 626000,
      "d": 1000,
      "v": 127
    },
    {
      "midi": 41,
      "hit": false,
      "t": 626000,
      "d": 500,
      "v": 127
    },
    {
      "midi": 46,
      "hit": false,
      "t": 626500,
      "d": 500,
      "v": 127
    },
    {
      "midi": 50,
      "hit": false,
      "t": 626500,
      "d": 500,
      "v": 127
    },
    {
      "midi": 53,
      "hit": false,
      "t": 626500,
      "d": 500,
      "v": 127
    },
    {
      "midi": 94,
      "hit": false,
      "t": 627000,
      "d": 1000,
      "v": 127
    },
    {
      "midi": 41,
      "hit": false,
      "t": 627000,
      "d": 500,
      "v": 127
    },
    {
      "midi": 46,
      "hit": false,
      "t": 627500,
      "d": 500,
      "v": 127
    },
    {
      "midi": 50,
      "hit": false,
      "t": 627500,
      "d": 500,
      "v": 127
    },
    {
      "midi": 53,
      "hit": false,
      "t": 627500,
      "d": 500,
      "v": 127
    },
    {
      "midi": 93,
      "hit": false,
      "t": 628000,
      "d": 500,
      "v": 127
    },
    {
      "midi": 41,
      "hit": false,
      "t": 628000,
      "d": 500,
      "v": 127
    },
    {
      "midi": 89,
      "hit": false,
      "t": 628500,
      "d": 500,
      "v": 127
    },
    {
      "midi": 45,
      "hit": false,
      "t": 628500,
      "d": 500,
      "v": 127
    },
    {
      "midi": 48,
      "hit": false,
      "t": 628500,
      "d": 500,
      "v": 127
    },
    {
      "midi": 53,
      "hit": false,
      "t": 628500,
      "d": 500,
      "v": 127
    },
    {
      "midi": 91,
      "hit": false,
      "t": 629000,
      "d": 1000,
      "v": 127
    },
    {
      "midi": 93,
      "hit": false,
      "t": 629000,
      "d": 1000,
      "v": 127
    },
    {
      "midi": 41,
      "hit": false,
      "t": 629000,
      "d": 500,
      "v": 127
    },
    {
      "midi": 45,
      "hit": false,
      "t": 629500,
      "d": 500,
      "v": 127
    },
    {
      "midi": 48,
      "hit": false,
      "t": 629500,
      "d": 500,
      "v": 127
    },
    {
      "midi": 53,
      "hit": false,
      "t": 629500,
      "d": 500,
      "v": 127
    },
    {
      "midi": 89,
      "hit": false,
      "t": 630000,
      "d": 500,
      "v": 127
    },
    {
      "midi": 41,
      "hit": false,
      "t": 630000,
      "d": 500,
      "v": 127
    },
    {
      "midi": 86,
      "hit": false,
      "t": 630500,
      "d": 500,
      "v": 127
    },
    {
      "midi": 45,
      "hit": false,
      "t": 630500,
      "d": 500,
      "v": 127
    },
    {
      "midi": 48,
      "hit": false,
      "t": 630500,
      "d": 500,
      "v": 127
    },
    {
      "midi": 53,
      "hit": false,
      "t": 630500,
      "d": 500,
      "v": 127
    },
    {
      "midi": 87,
      "hit": false,
      "t": 631000,
      "d": 1000,
      "v": 127
    },
    {
      "midi": 89,
      "hit": false,
      "t": 631000,
      "d": 1000,
      "v": 127
    },
    {
      "midi": 41,
      "hit": false,
      "t": 631000,
      "d": 500,
      "v": 127
    },
    {
      "midi": 45,
      "hit": false,
      "t": 631500,
      "d": 500,
      "v": 127
    },
    {
      "midi": 48,
      "hit": false,
      "t": 631500,
      "d": 500,
      "v": 127
    },
    {
      "midi": 53,
      "hit": false,
      "t": 631500,
      "d": 500,
      "v": 127
    },
    {
      "midi": 74,
      "hit": false,
      "t": 632000,
      "d": 1000,
      "v": 127
    },
    {
      "midi": 86,
      "hit": false,
      "t": 632000,
      "d": 1000,
      "v": 127
    },
    {
      "midi": 38,
      "hit": false,
      "t": 632000,
      "d": 1000,
      "v": 127
    },
    {
      "midi": 50,
      "hit": false,
      "t": 632000,
      "d": 1000,
      "v": 127
    },
    {
      "midi": 81,
      "hit": false,
      "t": 633000,
      "d": 500,
      "v": 127
    },
    {
      "midi": 45,
      "hit": false,
      "t": 633000,
      "d": 500,
      "v": 127
    },
    {
      "midi": 78,
      "hit": false,
      "t": 633500,
      "d": 500,
      "v": 127
    },
    {
      "midi": 42,
      "hit": false,
      "t": 633500,
      "d": 500,
      "v": 127
    },
    {
      "midi": 74,
      "hit": false,
      "t": 634000,
      "d": 1000,
      "v": 127
    },
    {
      "midi": 86,
      "hit": false,
      "t": 634000,
      "d": 1000,
      "v": 127
    },
    {
      "midi": 38,
      "hit": false,
      "t": 634000,
      "d": 1000,
      "v": 127
    },
    {
      "midi": 50,
      "hit": false,
      "t": 634000,
      "d": 1000,
      "v": 127
    },
    {
      "midi": 81,
      "hit": false,
      "t": 635000,
      "d": 500,
      "v": 127
    },
    {
      "midi": 45,
      "hit": false,
      "t": 635000,
      "d": 500,
      "v": 127
    },
    {
      "midi": 78,
      "hit": false,
      "t": 635500,
      "d": 500,
      "v": 127
    },
    {
      "midi": 42,
      "hit": false,
      "t": 635500,
      "d": 500,
      "v": 127
    },
    {
      "midi": 74,
      "hit": false,
      "t": 636000,
      "d": 1000,
      "v": 127
    },
    {
      "midi": 62,
      "hit": false,
      "t": 636000,
      "d": 1000,
      "v": 127
    },
    {
      "midi": 70,
      "hit": false,
      "t": 637000,
      "d": 500,
      "v": 127
    },
    {
      "midi": 58,
      "hit": false,
      "t": 637000,
      "d": 500,
      "v": 127
    },
    {
      "midi": 67,
      "hit": false,
      "t": 637500,
      "d": 500,
      "v": 127
    },
    {
      "midi": 55,
      "hit": false,
      "t": 637500,
      "d": 500,
      "v": 127
    },
    {
      "midi": 74,
      "hit": false,
      "t": 638000,
      "d": 1000,
      "v": 127
    },
    {
      "midi": 62,
      "hit": false,
      "t": 638000,
      "d": 1000,
      "v": 127
    },
    {
      "midi": 70,
      "hit": false,
      "t": 639000,
      "d": 500,
      "v": 127
    },
    {
      "midi": 58,
      "hit": false,
      "t": 639000,
      "d": 500,
      "v": 127
    },
    {
      "midi": 67,
      "hit": false,
      "t": 639500,
      "d": 500,
      "v": 127
    },
    {
      "midi": 55,
      "hit": false,
      "t": 639500,
      "d": 500,
      "v": 127
    },
    {
      "midi": 74,
      "hit": false,
      "t": 640000,
      "d": 1000,
      "v": 127
    },
    {
      "midi": 86,
      "hit": false,
      "t": 640000,
      "d": 1000,
      "v": 127
    },
    {
      "midi": 38,
      "hit": false,
      "t": 640000,
      "d": 1000,
      "v": 127
    },
    {
      "midi": 50,
      "hit": false,
      "t": 640000,
      "d": 1000,
      "v": 127
    },
    {
      "midi": 81,
      "hit": false,
      "t": 641000,
      "d": 500,
      "v": 127
    },
    {
      "midi": 45,
      "hit": false,
      "t": 641000,
      "d": 500,
      "v": 127
    },
    {
      "midi": 78,
      "hit": false,
      "t": 641500,
      "d": 500,
      "v": 127
    },
    {
      "midi": 42,
      "hit": false,
      "t": 641500,
      "d": 500,
      "v": 127
    },
    {
      "midi": 74,
      "hit": false,
      "t": 642000,
      "d": 1000,
      "v": 127
    },
    {
      "midi": 86,
      "hit": false,
      "t": 642000,
      "d": 1000,
      "v": 127
    },
    {
      "midi": 38,
      "hit": false,
      "t": 642000,
      "d": 1000,
      "v": 127
    },
    {
      "midi": 50,
      "hit": false,
      "t": 642000,
      "d": 1000,
      "v": 127
    },
    {
      "midi": 81,
      "hit": false,
      "t": 643000,
      "d": 500,
      "v": 127
    },
    {
      "midi": 45,
      "hit": false,
      "t": 643000,
      "d": 500,
      "v": 127
    },
    {
      "midi": 78,
      "hit": false,
      "t": 643500,
      "d": 500,
      "v": 127
    },
    {
      "midi": 42,
      "hit": false,
      "t": 643500,
      "d": 500,
      "v": 127
    },
    {
      "midi": 74,
      "hit": false,
      "t": 644000,
      "d": 1000,
      "v": 127
    },
    {
      "midi": 62,
      "hit": false,
      "t": 644000,
      "d": 1000,
      "v": 127
    },
    {
      "midi": 70,
      "hit": false,
      "t": 645000,
      "d": 500,
      "v": 127
    },
    {
      "midi": 58,
      "hit": false,
      "t": 645000,
      "d": 500,
      "v": 127
    },
    {
      "midi": 67,
      "hit": false,
      "t": 645500,
      "d": 500,
      "v": 127
    },
    {
      "midi": 55,
      "hit": false,
      "t": 645500,
      "d": 500,
      "v": 127
    },
    {
      "midi": 74,
      "hit": false,
      "t": 646000,
      "d": 1000,
      "v": 127
    },
    {
      "midi": 62,
      "hit": false,
      "t": 646000,
      "d": 1000,
      "v": 127
    },
    {
      "midi": 70,
      "hit": false,
      "t": 647000,
      "d": 500,
      "v": 127
    },
    {
      "midi": 58,
      "hit": false,
      "t": 647000,
      "d": 500,
      "v": 127
    },
    {
      "midi": 67,
      "hit": false,
      "t": 647500,
      "d": 500,
      "v": 127
    },
    {
      "midi": 55,
      "hit": false,
      "t": 647500,
      "d": 500,
      "v": 127
    },
    {
      "midi": 74,
      "hit": false,
      "t": 648000,
      "d": 1000,
      "v": 127
    },
    {
      "midi": 74,
      "hit": false,
      "t": 649000,
      "d": 1000,
      "v": 127
    },
    {
      "midi": 86,
      "hit": false,
      "t": 649000,
      "d": 1000,
      "v": 127
    },
    {
      "midi": 50,
      "hit": false,
      "t": 649000,
      "d": 1000,
      "v": 127
    },
    {
      "midi": 62,
      "hit": false,
      "t": 649000,
      "d": 1000,
      "v": 127
    },
    {
      "midi": 62,
      "hit": false,
      "t": 650000,
      "d": 1000,
      "v": 127
    },
    {
      "midi": 38,
      "hit": false,
      "t": 650000,
      "d": 1000,
      "v": 127
    },
    {
      "midi": 50,
      "hit": false,
      "t": 650000,
      "d": 1000,
      "v": 127
    },
    {
      "midi": 74,
      "hit": false,
      "t": 651000,
      "d": 750,
      "v": 127
    },
    {
      "midi": 74,
      "hit": false,
      "t": 651750,
      "d": 250,
      "v": 127
    },
    {
      "midi": 74,
      "hit": false,
      "t": 652000,
      "d": 1000,
      "v": 127
    },
    {
      "midi": 74,
      "hit": false,
      "t": 653750,
      "d": 250,
      "v": 127
    },
    {
      "midi": 86,
      "hit": false,
      "t": 653750,
      "d": 250,
      "v": 127
    },
    {
      "midi": 62,
      "hit": false,
      "t": 653750,
      "d": 250,
      "v": 127
    },
    {
      "midi": 74,
      "hit": false,
      "t": 654000,
      "d": 1000,
      "v": 127
    },
    {
      "midi": 86,
      "hit": false,
      "t": 654000,
      "d": 1000,
      "v": 127
    },
    {
      "midi": 62,
      "hit": false,
      "t": 654000,
      "d": 1000,
      "v": 127
    },
    {
      "midi": 74,
      "hit": false,
      "t": 655750,
      "d": 250,
      "v": 127
    },
    {
      "midi": 86,
      "hit": false,
      "t": 655750,
      "d": 250,
      "v": 127
    },
    {
      "midi": 62,
      "hit": false,
      "t": 655750,
      "d": 250,
      "v": 127
    },
    {
      "midi": 74,
      "hit": false,
      "t": 656000,
      "d": 1000,
      "v": 127
    },
    {
      "midi": 86,
      "hit": false,
      "t": 656000,
      "d": 1000,
      "v": 127
    },
    {
      "midi": 62,
      "hit": false,
      "t": 656000,
      "d": 1000,
      "v": 127
    },
    {
      "midi": 62,
      "hit": false,
      "t": 657750,
      "d": 250,
      "v": 127
    },
    {
      "midi": 74,
      "hit": false,
      "t": 657750,
      "d": 250,
      "v": 127
    },
    {
      "midi": 50,
      "hit": false,
      "t": 657750,
      "d": 250,
      "v": 127
    },
    {
      "midi": 62,
      "hit": false,
      "t": 658000,
      "d": 2000,
      "v": 127
    },
    {
      "midi": 42,
      "hit": false,
      "t": 658000,
      "d": 1000,
      "v": 127
    },
    {
      "midi": 50,
      "hit": false,
      "t": 658000,
      "d": 1000,
      "v": 127
    },
    {
      "midi": 57,
      "hit": false,
      "t": 658000,
      "d": 1000,
      "v": 127
    },
    {
      "midi": 43,
      "hit": false,
      "t": 659000,
      "d": 1000,
      "v": 127
    },
    {
      "midi": 58,
      "hit": false,
      "t": 659000,
      "d": 1000,
      "v": 127
    },
    {
      "midi": 73,
      "hit": false,
      "t": 660000,
      "d": 1500,
      "v": 127
    },
    {
      "midi": 57,
      "hit": false,
      "t": 660000,
      "d": 2000,
      "v": 127
    },
    {
      "midi": 73,
      "hit": false,
      "t": 661500,
      "d": 500,
      "v": 127
    },
    {
      "midi": 73,
      "hit": false,
      "t": 662000,
      "d": 1500,
      "v": 127
    },
    {
      "midi": 33,
      "hit": false,
      "t": 662000,
      "d": 2000,
      "v": 127
    },
    {
      "midi": 73,
      "hit": false,
      "t": 663500,
      "d": 500,
      "v": 127
    },
    {
      "midi": 74,
      "hit": false,
      "t": 664000,
      "d": 1000,
      "v": 127
    },
    {
      "midi": 38,
      "hit": false,
      "t": 664000,
      "d": 2000,
      "v": 127
    },
    {
      "midi": 69,
      "hit": false,
      "t": 665000,
      "d": 1000,
      "v": 127
    },
    {
      "midi": 62,
      "hit": false,
      "t": 666000,
      "d": 2000,
      "v": 127
    },
    {
      "midi": 42,
      "hit": false,
      "t": 666000,
      "d": 1000,
      "v": 127
    },
    {
      "midi": 57,
      "hit": false,
      "t": 666000,
      "d": 1000,
      "v": 127
    },
    {
      "midi": 43,
      "hit": false,
      "t": 667000,
      "d": 1000,
      "v": 127
    },
    {
      "midi": 58,
      "hit": false,
      "t": 667000,
      "d": 1000,
      "v": 127
    },
    {
      "midi": 73,
      "hit": false,
      "t": 668000,
      "d": 2000,
      "v": 127
    },
    {
      "midi": 57,
      "hit": false,
      "t": 668000,
      "d": 2000,
      "v": 127
    },
    {
      "midi": 73,
      "hit": false,
      "t": 670000,
      "d": 1500,
      "v": 127
    },
    {
      "midi": 33,
      "hit": false,
      "t": 670000,
      "d": 2000,
      "v": 127
    },
    {
      "midi": 73,
      "hit": false,
      "t": 671500,
      "d": 500,
      "v": 127
    },
    {
      "midi": 74,
      "hit": false,
      "t": 672000,
      "d": 1000,
      "v": 127
    },
    {
      "midi": 38,
      "hit": false,
      "t": 672000,
      "d": 2000,
      "v": 127
    },
    {
      "midi": 69,
      "hit": false,
      "t": 673000,
      "d": 1000,
      "v": 127
    },
    {
      "midi": 62,
      "hit": false,
      "t": 674000,
      "d": 2000,
      "v": 127
    },
    {
      "midi": 42,
      "hit": false,
      "t": 674000,
      "d": 1000,
      "v": 127
    },
    {
      "midi": 57,
      "hit": false,
      "t": 674000,
      "d": 1000,
      "v": 127
    },
    {
      "midi": 43,
      "hit": false,
      "t": 675000,
      "d": 1000,
      "v": 127
    },
    {
      "midi": 58,
      "hit": false,
      "t": 675000,
      "d": 1000,
      "v": 127
    },
    {
      "midi": 61,
      "hit": false,
      "t": 676000,
      "d": 2000,
      "v": 127
    },
    {
      "midi": 57,
      "hit": false,
      "t": 676000,
      "d": 2000,
      "v": 127
    },
    {
      "midi": 73,
      "hit": false,
      "t": 678000,
      "d": 1500,
      "v": 127
    },
    {
      "midi": 33,
      "hit": false,
      "t": 678000,
      "d": 2000,
      "v": 127
    },
    {
      "midi": 73,
      "hit": false,
      "t": 679500,
      "d": 500,
      "v": 127
    },
    {
      "midi": 74,
      "hit": false,
      "t": 680000,
      "d": 1000,
      "v": 127
    },
    {
      "midi": 38,
      "hit": false,
      "t": 680000,
      "d": 2000,
      "v": 127
    },
    {
      "midi": 69,
      "hit": false,
      "t": 681000,
      "d": 1000,
      "v": 127
    },
    {
      "midi": 62,
      "hit": false,
      "t": 682000,
      "d": 2000,
      "v": 127
    },
    {
      "midi": 42,
      "hit": false,
      "t": 682000,
      "d": 1000,
      "v": 127
    },
    {
      "midi": 54,
      "hit": false,
      "t": 682000,
      "d": 1000,
      "v": 127
    },
    {
      "midi": 57,
      "hit": false,
      "t": 682000,
      "d": 1000,
      "v": 127
    },
    {
      "midi": 43,
      "hit": false,
      "t": 683000,
      "d": 1000,
      "v": 127
    },
    {
      "midi": 55,
      "hit": false,
      "t": 683000,
      "d": 1000,
      "v": 127
    },
    {
      "midi": 58,
      "hit": false,
      "t": 683000,
      "d": 1000,
      "v": 127
    },
    {
      "midi": 57,
      "hit": false,
      "t": 684000,
      "d": 1000,
      "v": 127
    },
    {
      "midi": 61,
      "hit": false,
      "t": 684000,
      "d": 1000,
      "v": 127
    },
    {
      "midi": 45,
      "hit": false,
      "t": 684000,
      "d": 1000,
      "v": 127
    },
    {
      "midi": 52,
      "hit": false,
      "t": 684000,
      "d": 1000,
      "v": 127
    },
    {
      "midi": 73,
      "hit": false,
      "t": 686000,
      "d": 1000,
      "v": 127
    },
    {
      "midi": 73,
      "hit": false,
      "t": 687000,
      "d": 750,
      "v": 127
    },
    {
      "midi": 73,
      "hit": false,
      "t": 687750,
      "d": 250,
      "v": 127
    },
    {
      "midi": 74,
      "hit": false,
      "t": 688000,
      "d": 1000,
      "v": 127
    },
    {
      "midi": 74,
      "hit": false,
      "t": 691000,
      "d": 750,
      "v": 127
    },
    {
      "midi": 74,
      "hit": false,
      "t": 691750,
      "d": 250,
      "v": 127
    },
    {
      "midi": 74,
      "hit": false,
      "t": 692000,
      "d": 2000,
      "v": 127
    },
    {
      "midi": 62,
      "hit": false,
      "t": 694000,
      "d": 1000,
      "v": 127
    },
    {
      "midi": 74,
      "hit": false,
      "t": 695000,
      "d": 750,
      "v": 127
    },
    {
      "midi": 86,
      "hit": false,
      "t": 695000,
      "d": 750,
      "v": 127
    },
    {
      "midi": 62,
      "hit": false,
      "t": 695000,
      "d": 750,
      "v": 127
    },
    {
      "midi": 74,
      "hit": false,
      "t": 695750,
      "d": 250,
      "v": 127
    },
    {
      "midi": 86,
      "hit": false,
      "t": 695750,
      "d": 250,
      "v": 127
    },
    {
      "midi": 62,
      "hit": false,
      "t": 695750,
      "d": 250,
      "v": 127
    },
    {
      "midi": 74,
      "hit": false,
      "t": 696000,
      "d": 2000,
      "v": 127
    },
    {
      "midi": 86,
      "hit": false,
      "t": 696000,
      "d": 2000,
      "v": 127
    },
    {
      "midi": 62,
      "hit": false,
      "t": 696000,
      "d": 2000,
      "v": 127
    },
    {
      "midi": 74,
      "hit": false,
      "t": 698000,
      "d": 1500,
      "v": 127
    },
    {
      "midi": 86,
      "hit": false,
      "t": 698000,
      "d": 1500,
      "v": 127
    },
    {
      "midi": 62,
      "hit": false,
      "t": 698000,
      "d": 1500,
      "v": 127
    },
    {
      "midi": 74,
      "hit": false,
      "t": 699500,
      "d": 500,
      "v": 127
    },
    {
      "midi": 86,
      "hit": false,
      "t": 699500,
      "d": 500,
      "v": 127
    },
    {
      "midi": 62,
      "hit": false,
      "t": 699500,
      "d": 500,
      "v": 127
    },
    {
      "midi": 86,
      "hit": false,
      "t": 700000,
      "d": 250,
      "v": 127
    },
    {
      "midi": 50,
      "hit": false,
      "t": 700000,
      "d": 250,
      "v": 127
    },
    {
      "midi": 85,
      "hit": false,
      "t": 700250,
      "d": 250,
      "v": 127
    },
    {
      "midi": 49,
      "hit": false,
      "t": 700250,
      "d": 250,
      "v": 127
    },
    {
      "midi": 83,
      "hit": false,
      "t": 700500,
      "d": 250,
      "v": 127
    },
    {
      "midi": 47,
      "hit": false,
      "t": 700500,
      "d": 250,
      "v": 127
    },
    {
      "midi": 81,
      "hit": false,
      "t": 700750,
      "d": 250,
      "v": 127
    },
    {
      "midi": 45,
      "hit": false,
      "t": 700750,
      "d": 250,
      "v": 127
    },
    {
      "midi": 86,
      "hit": false,
      "t": 701000,
      "d": 250,
      "v": 127
    },
    {
      "midi": 50,
      "hit": false,
      "t": 701000,
      "d": 250,
      "v": 127
    },
    {
      "midi": 85,
      "hit": false,
      "t": 701250,
      "d": 250,
      "v": 127
    },
    {
      "midi": 49,
      "hit": false,
      "t": 701250,
      "d": 250,
      "v": 127
    },
    {
      "midi": 83,
      "hit": false,
      "t": 701500,
      "d": 250,
      "v": 127
    },
    {
      "midi": 47,
      "hit": false,
      "t": 701500,
      "d": 250,
      "v": 127
    },
    {
      "midi": 81,
      "hit": false,
      "t": 701750,
      "d": 250,
      "v": 127
    },
    {
      "midi": 45,
      "hit": false,
      "t": 701750,
      "d": 250,
      "v": 127
    },
    {
      "midi": 86,
      "hit": false,
      "t": 702000,
      "d": 250,
      "v": 127
    },
    {
      "midi": 50,
      "hit": false,
      "t": 702000,
      "d": 250,
      "v": 127
    },
    {
      "midi": 85,
      "hit": false,
      "t": 702250,
      "d": 250,
      "v": 127
    },
    {
      "midi": 49,
      "hit": false,
      "t": 702250,
      "d": 250,
      "v": 127
    },
    {
      "midi": 83,
      "hit": false,
      "t": 702500,
      "d": 250,
      "v": 127
    },
    {
      "midi": 47,
      "hit": false,
      "t": 702500,
      "d": 250,
      "v": 127
    },
    {
      "midi": 81,
      "hit": false,
      "t": 702750,
      "d": 250,
      "v": 127
    },
    {
      "midi": 45,
      "hit": false,
      "t": 702750,
      "d": 250,
      "v": 127
    },
    {
      "midi": 86,
      "hit": false,
      "t": 703000,
      "d": 250,
      "v": 127
    },
    {
      "midi": 50,
      "hit": false,
      "t": 703000,
      "d": 250,
      "v": 127
    },
    {
      "midi": 85,
      "hit": false,
      "t": 703250,
      "d": 250,
      "v": 127
    },
    {
      "midi": 49,
      "hit": false,
      "t": 703250,
      "d": 250,
      "v": 127
    },
    {
      "midi": 83,
      "hit": false,
      "t": 703500,
      "d": 250,
      "v": 127
    },
    {
      "midi": 47,
      "hit": false,
      "t": 703500,
      "d": 250,
      "v": 127
    },
    {
      "midi": 81,
      "hit": false,
      "t": 703750,
      "d": 250,
      "v": 127
    },
    {
      "midi": 45,
      "hit": false,
      "t": 703750,
      "d": 250,
      "v": 127
    },
    {
      "midi": 86,
      "hit": false,
      "t": 704000,
      "d": 250,
      "v": 127
    },
    {
      "midi": 50,
      "hit": false,
      "t": 704000,
      "d": 250,
      "v": 127
    },
    {
      "midi": 85,
      "hit": false,
      "t": 704250,
      "d": 250,
      "v": 127
    },
    {
      "midi": 49,
      "hit": false,
      "t": 704250,
      "d": 250,
      "v": 127
    },
    {
      "midi": 83,
      "hit": false,
      "t": 704500,
      "d": 250,
      "v": 127
    },
    {
      "midi": 47,
      "hit": false,
      "t": 704500,
      "d": 250,
      "v": 127
    },
    {
      "midi": 81,
      "hit": false,
      "t": 704750,
      "d": 250,
      "v": 127
    },
    {
      "midi": 45,
      "hit": false,
      "t": 704750,
      "d": 250,
      "v": 127
    },
    {
      "midi": 86,
      "hit": false,
      "t": 705000,
      "d": 250,
      "v": 127
    },
    {
      "midi": 50,
      "hit": false,
      "t": 705000,
      "d": 250,
      "v": 127
    },
    {
      "midi": 85,
      "hit": false,
      "t": 705250,
      "d": 250,
      "v": 127
    },
    {
      "midi": 49,
      "hit": false,
      "t": 705250,
      "d": 250,
      "v": 127
    },
    {
      "midi": 83,
      "hit": false,
      "t": 705500,
      "d": 250,
      "v": 127
    },
    {
      "midi": 47,
      "hit": false,
      "t": 705500,
      "d": 250,
      "v": 127
    },
    {
      "midi": 81,
      "hit": false,
      "t": 705750,
      "d": 250,
      "v": 127
    },
    {
      "midi": 45,
      "hit": false,
      "t": 705750,
      "d": 250,
      "v": 127
    },
    {
      "midi": 86,
      "hit": false,
      "t": 706000,
      "d": 250,
      "v": 127
    },
    {
      "midi": 50,
      "hit": false,
      "t": 706000,
      "d": 250,
      "v": 127
    },
    {
      "midi": 85,
      "hit": false,
      "t": 706250,
      "d": 250,
      "v": 127
    },
    {
      "midi": 49,
      "hit": false,
      "t": 706250,
      "d": 250,
      "v": 127
    },
    {
      "midi": 83,
      "hit": false,
      "t": 706500,
      "d": 250,
      "v": 127
    },
    {
      "midi": 47,
      "hit": false,
      "t": 706500,
      "d": 250,
      "v": 127
    },
    {
      "midi": 81,
      "hit": false,
      "t": 706750,
      "d": 250,
      "v": 127
    },
    {
      "midi": 45,
      "hit": false,
      "t": 706750,
      "d": 250,
      "v": 127
    },
    {
      "midi": 86,
      "hit": false,
      "t": 707000,
      "d": 250,
      "v": 127
    },
    {
      "midi": 50,
      "hit": false,
      "t": 707000,
      "d": 250,
      "v": 127
    },
    {
      "midi": 85,
      "hit": false,
      "t": 707250,
      "d": 250,
      "v": 127
    },
    {
      "midi": 49,
      "hit": false,
      "t": 707250,
      "d": 250,
      "v": 127
    },
    {
      "midi": 83,
      "hit": false,
      "t": 707500,
      "d": 250,
      "v": 127
    },
    {
      "midi": 47,
      "hit": false,
      "t": 707500,
      "d": 250,
      "v": 127
    },
    {
      "midi": 81,
      "hit": false,
      "t": 707750,
      "d": 250,
      "v": 127
    },
    {
      "midi": 45,
      "hit": false,
      "t": 707750,
      "d": 250,
      "v": 127
    },
    {
      "midi": 78,
      "hit": false,
      "t": 708000,
      "d": 1000,
      "v": 127
    },
    {
      "midi": 86,
      "hit": false,
      "t": 708000,
      "d": 1000,
      "v": 127
    },
    {
      "midi": 50,
      "hit": false,
      "t": 708000,
      "d": 1000,
      "v": 127
    },
    {
      "midi": 74,
      "hit": false,
      "t": 711750,
      "d": 250,
      "v": 127
    },
    {
      "midi": 78,
      "hit": false,
      "t": 711750,
      "d": 250,
      "v": 127
    },
    {
      "midi": 81,
      "hit": false,
      "t": 711750,
      "d": 250,
      "v": 127
    },
    {
      "midi": 86,
      "hit": false,
      "t": 711750,
      "d": 250,
      "v": 127
    },
    {
      "midi": 38,
      "hit": false,
      "t": 711750,
      "d": 250,
      "v": 127
    },
    {
      "midi": 45,
      "hit": false,
      "t": 711750,
      "d": 250,
      "v": 127
    },
    {
      "midi": 50,
      "hit": false,
      "t": 711750,
      "d": 250,
      "v": 127
    },
    {
      "midi": 74,
      "hit": false,
      "t": 712000,
      "d": 1000,
      "v": 127
    },
    {
      "midi": 78,
      "hit": false,
      "t": 712000,
      "d": 1000,
      "v": 127
    },
    {
      "midi": 81,
      "hit": false,
      "t": 712000,
      "d": 1000,
      "v": 127
    },
    {
      "midi": 86,
      "hit": false,
      "t": 712000,
      "d": 1000,
      "v": 127
    },
    {
      "midi": 38,
      "hit": false,
      "t": 712000,
      "d": 1000,
      "v": 127
    },
    {
      "midi": 45,
      "hit": false,
      "t": 712000,
      "d": 1000,
      "v": 127
    },
    {
      "midi": 50,
      "hit": false,
      "t": 712000,
      "d": 1000,
      "v": 127
    },
    {
      "midi": 75,
      "hit": false,
      "t": 715750,
      "d": 250,
      "v": 127
    },
    {
      "midi": 79,
      "hit": false,
      "t": 715750,
      "d": 250,
      "v": 127
    },
    {
      "midi": 84,
      "hit": false,
      "t": 715750,
      "d": 250,
      "v": 127
    },
    {
      "midi": 87,
      "hit": false,
      "t": 715750,
      "d": 250,
      "v": 127
    },
    {
      "midi": 36,
      "hit": false,
      "t": 715750,
      "d": 250,
      "v": 127
    },
    {
      "midi": 43,
      "hit": false,
      "t": 715750,
      "d": 250,
      "v": 127
    },
    {
      "midi": 48,
      "hit": false,
      "t": 715750,
      "d": 250,
      "v": 127
    },
    {
      "midi": 75,
      "hit": false,
      "t": 716000,
      "d": 1000,
      "v": 127
    },
    {
      "midi": 79,
      "hit": false,
      "t": 716000,
      "d": 1000,
      "v": 127
    },
    {
      "midi": 84,
      "hit": false,
      "t": 716000,
      "d": 1000,
      "v": 127
    },
    {
      "midi": 87,
      "hit": false,
      "t": 716000,
      "d": 1000,
      "v": 127
    },
    {
      "midi": 36,
      "hit": false,
      "t": 716000,
      "d": 1000,
      "v": 127
    },
    {
      "midi": 43,
      "hit": false,
      "t": 716000,
      "d": 1000,
      "v": 127
    },
    {
      "midi": 48,
      "hit": false,
      "t": 716000,
      "d": 1000,
      "v": 127
    },
    {
      "midi": 77,
      "hit": false,
      "t": 719750,
      "d": 250,
      "v": 127
    },
    {
      "midi": 81,
      "hit": false,
      "t": 719750,
      "d": 250,
      "v": 127
    },
    {
      "midi": 84,
      "hit": false,
      "t": 719750,
      "d": 250,
      "v": 127
    },
    {
      "midi": 89,
      "hit": false,
      "t": 719750,
      "d": 250,
      "v": 127
    },
    {
      "midi": 29,
      "hit": false,
      "t": 719750,
      "d": 250,
      "v": 127
    },
    {
      "midi": 41,
      "hit": false,
      "t": 719750,
      "d": 250,
      "v": 127
    },
    {
      "midi": 77,
      "hit": false,
      "t": 720000,
      "d": 1000,
      "v": 127
    },
    {
      "midi": 81,
      "hit": false,
      "t": 720000,
      "d": 1000,
      "v": 127
    },
    {
      "midi": 84,
      "hit": false,
      "t": 720000,
      "d": 1000,
      "v": 127
    },
    {
      "midi": 89,
      "hit": false,
      "t": 720000,
      "d": 1000,
      "v": 127
    },
    {
      "midi": 29,
      "hit": false,
      "t": 720000,
      "d": 1000,
      "v": 127
    },
    {
      "midi": 41,
      "hit": false,
      "t": 720000,
      "d": 1000,
      "v": 127
    }
  ]
}